0, 0, Header, 0, 1, 384
1, 0, Start_track
1, 0, Title_t, "Intermezzo 118/2-Mikhail Shiyaev"
1, 0, Text_t, "2009 Piano-e-Competition audition round"
1, 0, Text_t, "captured January 2009"
1, 0, Text_t, "http://www.piano-e-competition.com/"
1, 0, Text_t, "File processed for distribution by software from Zenph Studios, Inc., http://www.zenph.com"
1, 0, Instrument_name_t, "Yamaha Disklavier Pro Mark IV concert grand piano, model DCFIIISM4PRO"
1, 0, Sequencer_specific, 39, 67, 113, 0, 1, 0, 1, 0, 73, 110, 116, 101, 114, 109, 101, 122, 122, 111, 32, 49, 49, 56, 47, 50, 77, 105, 107, 104, 97, 105, 108, 32, 83, 104, 105, 121, 97, 101, 118, 32
1, 0, Sequencer_specific, 6, 67, 113, 0, 0, 0, 69
1, 0, System_exclusive, 21, 67, 113, 126, 21, 0, 2, 2, 0, 3, 14, 1, 4, 1, 13, 13, 10, 11, 9, 2, 7, 247
1, 0, Sequencer_specific, 5, 67, 123, 12, 2, 1
1, 0, Tempo, 512820
1, 0, Time_signature, 4, 2, 24, 8
1, 0, System_exclusive, 5, 126, 127, 9, 1, 247
1, 1, System_exclusive, 8, 67, 16, 76, 0, 0, 126, 0, 247
1, 2, System_exclusive, 8, 67, 16, 76, 8, 9, 7, 1, 247
1, 3, Control_c, 0, 0, 0
1, 3, Control_c, 1, 0, 0
1, 3, Control_c, 2, 0, 0
1, 3, Control_c, 3, 0, 0
1, 3, Control_c, 4, 0, 0
1, 3, Control_c, 5, 0, 0
1, 3, Control_c, 6, 0, 0
1, 3, Control_c, 7, 0, 0
1, 3, Control_c, 8, 0, 0
1, 3, Control_c, 9, 0, 127
1, 3, Control_c, 10, 0, 0
1, 3, Control_c, 11, 0, 0
1, 3, Control_c, 12, 0, 0
1, 3, Control_c, 13, 0, 0
1, 3, Control_c, 14, 0, 0
1, 3, Control_c, 15, 0, 0
1, 4, Control_c, 0, 32, 0
1, 4, Control_c, 1, 32, 0
1, 4, Control_c, 2, 32, 0
1, 4, Control_c, 3, 32, 0
1, 4, Control_c, 4, 32, 0
1, 4, Control_c, 5, 32, 0
1, 4, Control_c, 6, 32, 0
1, 4, Control_c, 7, 32, 0
1, 4, Control_c, 8, 32, 0
1, 4, Control_c, 9, 32, 0
1, 4, Control_c, 10, 32, 0
1, 4, Control_c, 11, 32, 0
1, 4, Control_c, 12, 32, 0
1, 4, Control_c, 13, 32, 0
1, 4, Control_c, 14, 32, 0
1, 4, Control_c, 15, 32, 0
1, 5, Program_c, 0, 0
1, 5, Program_c, 1, 0
1, 5, Program_c, 2, 0
1, 5, Program_c, 3, 0
1, 5, Program_c, 4, 0
1, 5, Program_c, 5, 0
1, 5, Program_c, 6, 0
1, 5, Program_c, 7, 0
1, 5, Program_c, 8, 0
1, 5, Program_c, 9, 0
1, 5, Program_c, 10, 0
1, 5, Program_c, 11, 0
1, 5, Program_c, 12, 0
1, 5, Program_c, 13, 0
1, 5, Program_c, 14, 0
1, 5, Program_c, 15, 0
1, 6, Control_c, 0, 7, 100
1, 6, Control_c, 1, 7, 100
1, 6, Control_c, 2, 7, 100
1, 6, Control_c, 3, 7, 100
1, 6, Control_c, 4, 7, 100
1, 6, Control_c, 5, 7, 100
1, 6, Control_c, 6, 7, 100
1, 6, Control_c, 7, 7, 100
1, 6, Control_c, 8, 7, 100
1, 6, Control_c, 9, 7, 100
1, 6, Control_c, 10, 7, 100
1, 6, Control_c, 11, 7, 100
1, 6, Control_c, 12, 7, 100
1, 6, Control_c, 13, 7, 100
1, 6, Control_c, 14, 7, 100
1, 6, Control_c, 15, 7, 100
1, 117, Control_c, 0, 64, 9
1, 229, Control_c, 0, 64, 19
1, 341, Control_c, 0, 64, 28
1, 452, Control_c, 0, 64, 38
1, 564, Control_c, 0, 64, 47
1, 676, Control_c, 0, 64, 57
1, 787, Control_c, 0, 64, 66
1, 899, Control_c, 0, 64, 77
1, 1133, Note_on_c, 0, 73, 51
1, 1135, Control_c, 0, 64, 77
1, 1165, Control_c, 0, 64, 76
1, 1175, Note_on_c, 0, 69, 42
1, 1186, Control_c, 0, 64, 75
1, 1201, Control_c, 0, 64, 74
1, 1216, Control_c, 0, 64, 73
1, 1218, Note_on_c, 0, 52, 29
1, 1219, Note_on_c, 0, 45, 34
1, 1231, Control_c, 0, 64, 70
1, 1240, Note_off_c, 0, 69, 0
1, 1240, Note_on_c, 0, 69, 3
1, 1246, Control_c, 0, 64, 66
1, 1261, Control_c, 0, 64, 62
1, 1276, Control_c, 0, 64, 60
1, 1306, Control_c, 0, 64, 61
1, 1320, Control_c, 0, 64, 62
1, 1335, Control_c, 0, 64, 64
1, 1350, Control_c, 0, 64, 65
1, 1365, Control_c, 0, 64, 67
1, 1381, Control_c, 0, 64, 69
1, 1396, Control_c, 0, 64, 71
1, 1411, Control_c, 0, 64, 73
1, 1425, Control_c, 0, 64, 75
1, 1440, Control_c, 0, 64, 77
1, 1442, Note_off_c, 0, 52, 36
1, 1455, Control_c, 0, 64, 78
1, 1470, Control_c, 0, 64, 79
1, 1485, Control_c, 0, 64, 80
1, 1499, Control_c, 0, 64, 81
1, 1514, Control_c, 0, 64, 82
1, 1529, Control_c, 0, 64, 82
1, 1544, Control_c, 0, 64, 83
1, 1550, Note_off_c, 0, 45, 23
1, 1559, Control_c, 0, 64, 83
1, 1574, Control_c, 0, 64, 84
1, 1589, Control_c, 0, 64, 84
1, 1603, Control_c, 0, 64, 85
1, 1633, Control_c, 0, 64, 85
1, 1648, Note_on_c, 0, 71, 60
1, 1663, Control_c, 0, 64, 86
1, 1663, Note_on_c, 0, 68, 45
1, 1722, Control_c, 0, 64, 86
1, 1744, Note_off_c, 0, 69, 45
1, 1806, Note_off_c, 0, 68, 45
1, 1907, Note_off_c, 0, 73, 34
1, 2040, Control_c, 0, 64, 86
1, 2070, Control_c, 0, 64, 85
1, 2084, Control_c, 0, 64, 84
1, 2095, Note_off_c, 0, 71, 33
1, 2099, Control_c, 0, 64, 84
1, 2114, Control_c, 0, 64, 83
1, 2129, Control_c, 0, 64, 81
1, 2134, Note_on_c, 0, 74, 50
1, 2141, Note_on_c, 0, 66, 44
1, 2145, Control_c, 0, 64, 79
1, 2160, Control_c, 0, 64, 77
1, 2174, Control_c, 0, 64, 73
1, 2189, Control_c, 0, 64, 70
1, 2204, Control_c, 0, 64, 65
1, 2218, Control_c, 0, 64, 59
1, 2233, Control_c, 0, 64, 50
1, 2241, Note_on_c, 0, 33, 31
1, 2248, Control_c, 0, 64, 39
1, 2263, Control_c, 0, 64, 36
1, 2278, Control_c, 0, 64, 38
1, 2292, Control_c, 0, 64, 45
1, 2307, Control_c, 0, 64, 52
1, 2322, Control_c, 0, 64, 58
1, 2337, Control_c, 0, 64, 62
1, 2352, Control_c, 0, 64, 64
1, 2367, Control_c, 0, 64, 66
1, 2382, Control_c, 0, 64, 69
1, 2384, Note_off_c, 0, 33, 53
1, 2397, Control_c, 0, 64, 71
1, 2412, Control_c, 0, 64, 74
1, 2426, Control_c, 0, 64, 76
1, 2441, Control_c, 0, 64, 78
1, 2456, Control_c, 0, 64, 80
1, 2471, Control_c, 0, 64, 81
1, 2486, Control_c, 0, 64, 82
1, 2500, Control_c, 0, 64, 83
1, 2515, Control_c, 0, 64, 84
1, 2530, Control_c, 0, 64, 85
1, 2545, Control_c, 0, 64, 86
1, 2574, Control_c, 0, 64, 86
1, 2604, Control_c, 0, 64, 87
1, 2671, Note_on_c, 0, 62, 34
1, 2802, Note_off_c, 0, 66, 35
1, 2953, Note_off_c, 0, 62, 43
1, 3023, Note_on_c, 0, 57, 38
1, 3321, Note_on_c, 0, 54, 43
1, 3340, Note_off_c, 0, 57, 36
1, 3441, Note_off_c, 0, 54, 54
1, 3538, Control_c, 0, 64, 86
1, 3582, Control_c, 0, 64, 86
1, 3612, Control_c, 0, 64, 85
1, 3626, Control_c, 0, 64, 84
1, 3640, Control_c, 0, 64, 83
1, 3641, Note_on_c, 0, 73, 59
1, 3655, Control_c, 0, 64, 81
1, 3660, Note_on_c, 0, 69, 53
1, 3670, Control_c, 0, 64, 78
1, 3685, Control_c, 0, 64, 74
1, 3699, Note_on_c, 0, 50, 36
1, 3700, Control_c, 0, 64, 67
1, 3702, Note_on_c, 0, 45, 36
1, 3714, Control_c, 0, 64, 61
1, 3729, Control_c, 0, 64, 54
1, 3745, Control_c, 0, 64, 53
1, 3760, Control_c, 0, 64, 57
1, 3775, Control_c, 0, 64, 61
1, 3790, Control_c, 0, 64, 65
1, 3804, Control_c, 0, 64, 68
1, 3819, Control_c, 0, 64, 72
1, 3834, Control_c, 0, 64, 76
1, 3849, Control_c, 0, 64, 79
1, 3863, Control_c, 0, 64, 81
1, 3865, Note_off_c, 0, 50, 38
1, 3878, Control_c, 0, 64, 83
1, 3883, Note_off_c, 0, 45, 43
1, 3893, Control_c, 0, 64, 85
1, 3908, Control_c, 0, 64, 86
1, 3917, Note_off_c, 0, 74, 40
1, 3923, Control_c, 0, 64, 86
1, 3968, Control_c, 0, 64, 87
1, 3978, Note_on_c, 0, 71, 65
1, 3984, Note_off_c, 0, 69, 63
1, 3993, Note_on_c, 0, 68, 57
1, 4036, Note_off_c, 0, 73, 59
1, 4116, Control_c, 0, 64, 86
1, 4212, Control_c, 0, 64, 85
1, 4215, Note_on_c, 0, 66, 66
1, 4222, Note_off_c, 0, 71, 58
1, 4227, Control_c, 0, 64, 83
1, 4242, Control_c, 0, 64, 76
1, 4257, Control_c, 0, 64, 64
1, 4257, Note_off_c, 0, 68, 33
1, 4271, Control_c, 0, 64, 51
1, 4286, Control_c, 0, 64, 42
1, 4301, Control_c, 0, 64, 45
1, 4316, Control_c, 0, 64, 53
1, 4331, Control_c, 0, 64, 59
1, 4345, Control_c, 0, 64, 64
1, 4358, Note_on_c, 0, 33, 44
1, 4360, Control_c, 0, 64, 68
1, 4375, Control_c, 0, 64, 71
1, 4389, Control_c, 0, 64, 75
1, 4404, Control_c, 0, 64, 77
1, 4410, Note_off_c, 0, 66, 60
1, 4419, Control_c, 0, 64, 80
1, 4434, Control_c, 0, 64, 82
1, 4449, Control_c, 0, 64, 83
1, 4463, Control_c, 0, 64, 84
1, 4478, Control_c, 0, 64, 85
1, 4493, Control_c, 0, 64, 85
1, 4508, Control_c, 0, 64, 86
1, 4510, Note_off_c, 0, 33, 37
1, 4523, Control_c, 0, 64, 87
1, 4534, Note_on_c, 0, 81, 69
1, 4538, Control_c, 0, 64, 88
1, 4554, Control_c, 0, 64, 89
1, 4568, Control_c, 0, 64, 89
1, 4583, Control_c, 0, 64, 90
1, 4598, Control_c, 0, 64, 90
1, 4612, Control_c, 0, 64, 91
1, 4627, Control_c, 0, 64, 91
1, 4642, Control_c, 0, 64, 92
1, 4672, Control_c, 0, 64, 92
1, 4731, Control_c, 0, 64, 93
1, 4761, Control_c, 0, 64, 93
1, 4790, Control_c, 0, 64, 94
1, 4805, Control_c, 0, 64, 95
1, 4820, Control_c, 0, 64, 96
1, 4835, Control_c, 0, 64, 96
1, 4848, Note_on_c, 0, 50, 39
1, 4850, Control_c, 0, 64, 98
1, 4865, Control_c, 0, 64, 99
1, 4880, Control_c, 0, 64, 102
1, 4894, Control_c, 0, 64, 104
1, 4916, Control_c, 0, 64, 106
1, 4931, Control_c, 0, 64, 107
1, 4946, Control_c, 0, 64, 110
1, 4961, Control_c, 0, 64, 113
1, 4975, Control_c, 0, 64, 115
1, 4990, Control_c, 0, 64, 118
1, 5005, Control_c, 0, 64, 120
1, 5020, Control_c, 0, 64, 124
1, 5029, Note_off_c, 0, 81, 56
1, 5035, Control_c, 0, 64, 127
1, 5229, Note_off_c, 0, 50, 0
1, 5266, Poly_aftertouch_c, 0, 50, 127
1, 5270, Note_on_c, 0, 45, 39
1, 5393, Poly_aftertouch_c, 0, 50, 0
1, 5595, Note_on_c, 0, 42, 44
1, 5640, Note_off_c, 0, 45, 39
1, 5873, Control_c, 0, 64, 122
1, 5888, Control_c, 0, 64, 115
1, 5903, Control_c, 0, 64, 109
1, 5917, Control_c, 0, 64, 102
1, 5929, Note_on_c, 0, 69, 55
1, 5932, Control_c, 0, 64, 95
1, 5947, Control_c, 0, 64, 88
1, 5951, Note_on_c, 0, 66, 48
1, 5962, Control_c, 0, 64, 79
1, 5969, Note_on_c, 0, 38, 40
1, 5977, Control_c, 0, 64, 71
1, 5982, Note_off_c, 0, 42, 35
1, 5992, Control_c, 0, 64, 62
1, 6007, Control_c, 0, 64, 50
1, 6021, Control_c, 0, 64, 35
1, 6036, Control_c, 0, 64, 32
1, 6051, Control_c, 0, 64, 36
1, 6066, Control_c, 0, 64, 47
1, 6081, Control_c, 0, 64, 56
1, 6096, Control_c, 0, 64, 63
1, 6110, Control_c, 0, 64, 67
1, 6125, Control_c, 0, 64, 71
1, 6141, Control_c, 0, 64, 76
1, 6156, Control_c, 0, 64, 81
1, 6170, Control_c, 0, 64, 86
1, 6185, Control_c, 0, 64, 90
1, 6200, Control_c, 0, 64, 93
1, 6215, Control_c, 0, 64, 97
1, 6218, Note_off_c, 0, 38, 37
1, 6230, Control_c, 0, 64, 99
1, 6245, Control_c, 0, 64, 101
1, 6257, Note_on_c, 0, 50, 49
1, 6259, Control_c, 0, 64, 103
1, 6274, Control_c, 0, 64, 105
1, 6289, Control_c, 0, 64, 107
1, 6302, Note_off_c, 0, 50, 63
1, 6304, Control_c, 0, 64, 109
1, 6319, Control_c, 0, 64, 109
1, 6333, Control_c, 0, 64, 110
1, 6363, Control_c, 0, 64, 110
1, 6378, Note_on_c, 0, 71, 71
1, 6395, Note_off_c, 0, 69, 59
1, 6427, Note_off_c, 0, 66, 34
1, 6457, Note_off_c, 0, 71, 62
1, 6534, Control_c, 0, 64, 110
1, 6548, Control_c, 0, 64, 109
1, 6562, Note_on_c, 0, 71, 74
1, 6563, Control_c, 0, 64, 107
1, 6578, Control_c, 0, 64, 101
1, 6579, Note_on_c, 0, 64, 56
1, 6583, Note_on_c, 0, 68, 60
1, 6585, Note_on_c, 0, 52, 53
1, 6592, Note_on_c, 0, 50, 50
1, 6592, Control_c, 0, 64, 96
1, 6595, Note_on_c, 0, 56, 45
1, 6607, Control_c, 0, 64, 90
1, 6622, Control_c, 0, 64, 83
1, 6637, Control_c, 0, 64, 75
1, 6652, Control_c, 0, 64, 65
1, 6666, Control_c, 0, 64, 51
1, 6681, Control_c, 0, 64, 32
1, 6696, Control_c, 0, 64, 25
1, 6711, Control_c, 0, 64, 29
1, 6726, Control_c, 0, 64, 41
1, 6740, Control_c, 0, 64, 52
1, 6755, Control_c, 0, 64, 61
1, 6770, Control_c, 0, 64, 67
1, 6785, Control_c, 0, 64, 70
1, 6799, Control_c, 0, 64, 75
1, 6814, Control_c, 0, 64, 78
1, 6824, Note_off_c, 0, 52, 59
1, 6826, Note_off_c, 0, 56, 55
1, 6829, Control_c, 0, 64, 81
1, 6844, Control_c, 0, 64, 85
1, 6853, Note_on_c, 0, 59, 61
1, 6859, Control_c, 0, 64, 89
1, 6874, Control_c, 0, 64, 93
1, 6889, Control_c, 0, 64, 96
1, 6904, Control_c, 0, 64, 98
1, 6919, Control_c, 0, 64, 99
1, 6934, Control_c, 0, 64, 100
1, 6949, Control_c, 0, 64, 101
1, 6963, Control_c, 0, 64, 101
1, 6972, Note_on_c, 0, 76, 81
1, 6978, Control_c, 0, 64, 102
1, 6982, Note_off_c, 0, 71, 37
1, 6997, Note_off_c, 0, 68, 63
1, 7001, Note_off_c, 0, 59, 34
1, 7021, Note_off_c, 0, 64, 57
1, 7060, Note_off_c, 0, 76, 60
1, 7142, Control_c, 0, 64, 101
1, 7163, Control_c, 0, 64, 101
1, 7166, Note_on_c, 0, 49, 56
1, 7169, Note_on_c, 0, 52, 55
1, 7178, Control_c, 0, 64, 99
1, 7186, Note_off_c, 0, 50, 39
1, 7193, Control_c, 0, 64, 97
1, 7208, Control_c, 0, 64, 94
1, 7213, Note_on_c, 0, 76, 79
1, 7223, Control_c, 0, 64, 90
1, 7238, Control_c, 0, 64, 85
1, 7242, Note_on_c, 0, 69, 58
1, 7247, Note_on_c, 0, 64, 49
1, 7253, Control_c, 0, 64, 78
1, 7267, Control_c, 0, 64, 69
1, 7282, Control_c, 0, 64, 56
1, 7297, Control_c, 0, 64, 34
1, 7312, Control_c, 0, 64, 15
1, 7327, Control_c, 0, 64, 19
1, 7342, Control_c, 0, 64, 35
1, 7357, Control_c, 0, 64, 49
1, 7371, Control_c, 0, 64, 60
1, 7386, Control_c, 0, 64, 65
1, 7401, Control_c, 0, 64, 68
1, 7415, Control_c, 0, 64, 72
1, 7425, Note_off_c, 0, 52, 0
1, 7430, Control_c, 0, 64, 75
1, 7445, Control_c, 0, 64, 78
1, 7454, Note_off_c, 0, 64, 36
1, 7460, Control_c, 0, 64, 82
1, 7462, Poly_aftertouch_c, 0, 52, 127
1, 7475, Control_c, 0, 64, 86
1, 7489, Control_c, 0, 64, 89
1, 7498, Poly_aftertouch_c, 0, 52, 0
1, 7501, Note_off_c, 0, 69, 55
1, 7504, Control_c, 0, 64, 92
1, 7517, Note_on_c, 0, 57, 46
1, 7519, Control_c, 0, 64, 94
1, 7534, Control_c, 0, 64, 95
1, 7549, Control_c, 0, 64, 96
1, 7551, Note_off_c, 0, 57, 62
1, 7563, Control_c, 0, 64, 97
1, 7578, Control_c, 0, 64, 98
1, 7601, Note_off_c, 0, 49, 44
1, 7831, Control_c, 0, 64, 97
1, 7846, Control_c, 0, 64, 95
1, 7861, Control_c, 0, 64, 93
1, 7863, Note_on_c, 0, 74, 65
1, 7876, Control_c, 0, 64, 90
1, 7886, Note_on_c, 0, 66, 50
1, 7890, Control_c, 0, 64, 87
1, 7912, Control_c, 0, 64, 83
1, 7927, Control_c, 0, 64, 75
1, 7938, Note_off_c, 0, 76, 54
1, 7941, Note_on_c, 0, 35, 50
1, 7942, Control_c, 0, 64, 65
1, 7957, Control_c, 0, 64, 53
1, 7972, Control_c, 0, 64, 38
1, 7986, Control_c, 0, 64, 36
1, 8001, Control_c, 0, 64, 45
1, 8016, Control_c, 0, 64, 55
1, 8031, Control_c, 0, 64, 62
1, 8045, Control_c, 0, 64, 67
1, 8060, Control_c, 0, 64, 73
1, 8075, Control_c, 0, 64, 80
1, 8089, Note_off_c, 0, 35, 33
1, 8090, Control_c, 0, 64, 84
1, 8105, Control_c, 0, 64, 86
1, 8119, Control_c, 0, 64, 89
1, 8134, Control_c, 0, 64, 92
1, 8149, Control_c, 0, 64, 94
1, 8150, Note_off_c, 0, 66, 54
1, 8164, Control_c, 0, 64, 95
1, 8179, Control_c, 0, 64, 96
1, 8193, Control_c, 0, 64, 96
1, 8208, Control_c, 0, 64, 97
1, 8223, Control_c, 0, 64, 97
1, 8236, Note_on_c, 0, 50, 34
1, 8397, Note_off_c, 0, 50, 41
1, 8400, Control_c, 0, 64, 97
1, 8460, Control_c, 0, 64, 96
1, 8475, Control_c, 0, 64, 96
1, 8490, Control_c, 0, 64, 94
1, 8504, Control_c, 0, 64, 93
1, 8513, Note_on_c, 0, 40, 40
1, 8519, Control_c, 0, 64, 92
1, 8534, Control_c, 0, 64, 90
1, 8549, Control_c, 0, 64, 89
1, 8564, Control_c, 0, 64, 86
1, 8579, Control_c, 0, 64, 82
1, 8594, Control_c, 0, 64, 77
1, 8609, Control_c, 0, 64, 71
1, 8618, Note_on_c, 0, 69, 54
1, 8624, Control_c, 0, 64, 64
1, 8639, Control_c, 0, 64, 53
1, 8644, Note_on_c, 0, 61, 31
1, 8660, Control_c, 0, 64, 34
1, 8675, Control_c, 0, 64, 13
1, 8690, Control_c, 0, 64, 15
1, 8705, Note_off_c, 0, 74, 34
1, 8705, Control_c, 0, 64, 27
1, 8720, Control_c, 0, 64, 42
1, 8734, Control_c, 0, 64, 54
1, 8749, Control_c, 0, 64, 62
1, 8764, Control_c, 0, 64, 65
1, 8779, Control_c, 0, 64, 68
1, 8794, Control_c, 0, 64, 70
1, 8809, Control_c, 0, 64, 73
1, 8824, Control_c, 0, 64, 76
1, 8838, Control_c, 0, 64, 78
1, 8853, Control_c, 0, 64, 81
1, 8868, Control_c, 0, 64, 83
1, 8880, Note_off_c, 0, 61, 41
1, 8883, Control_c, 0, 64, 85
1, 8898, Control_c, 0, 64, 87
1, 8913, Control_c, 0, 64, 88
1, 8928, Control_c, 0, 64, 90
1, 8943, Control_c, 0, 64, 92
1, 8958, Control_c, 0, 64, 94
1, 8972, Note_on_c, 0, 52, 54
1, 8973, Control_c, 0, 64, 96
1, 8984, Note_off_c, 0, 40, 36
1, 8987, Control_c, 0, 64, 98
1, 9002, Control_c, 0, 64, 99
1, 9017, Control_c, 0, 64, 100
1, 9032, Control_c, 0, 64, 101
1, 9047, Control_c, 0, 64, 102
1, 9061, Control_c, 0, 64, 102
1, 9076, Control_c, 0, 64, 103
1, 9217, Note_off_c, 0, 52, 55
1, 9280, Note_off_c, 0, 69, 34
1, 9313, Control_c, 0, 64, 102
1, 9317, Note_on_c, 0, 68, 51
1, 9328, Control_c, 0, 64, 101
1, 9344, Control_c, 0, 64, 98
1, 9352, Note_on_c, 0, 59, 27
1, 9358, Control_c, 0, 64, 95
1, 9373, Control_c, 0, 64, 91
1, 9388, Control_c, 0, 64, 85
1, 9397, Note_on_c, 0, 52, 45
1, 9403, Control_c, 0, 64, 79
1, 9425, Control_c, 0, 64, 72
1, 9440, Control_c, 0, 64, 64
1, 9455, Control_c, 0, 64, 53
1, 9470, Control_c, 0, 64, 39
1, 9484, Control_c, 0, 64, 29
1, 9499, Control_c, 0, 64, 31
1, 9514, Control_c, 0, 64, 39
1, 9529, Control_c, 0, 64, 49
1, 9544, Control_c, 0, 64, 58
1, 9558, Control_c, 0, 64, 63
1, 9569, Note_off_c, 0, 59, 42
1, 9573, Control_c, 0, 64, 66
1, 9588, Control_c, 0, 64, 69
1, 9603, Control_c, 0, 64, 72
1, 9617, Control_c, 0, 64, 75
1, 9632, Control_c, 0, 64, 78
1, 9647, Control_c, 0, 64, 81
1, 9662, Control_c, 0, 64, 83
1, 9677, Control_c, 0, 64, 85
1, 9691, Control_c, 0, 64, 88
1, 9706, Control_c, 0, 64, 90
1, 9709, Note_off_c, 0, 68, 58
1, 9712, Note_on_c, 0, 54, 49
1, 9721, Control_c, 0, 64, 92
1, 9736, Control_c, 0, 64, 94
1, 9751, Control_c, 0, 64, 95
1, 9765, Control_c, 0, 64, 96
1, 9780, Control_c, 0, 64, 96
1, 9795, Control_c, 0, 64, 97
1, 9810, Control_c, 0, 64, 98
1, 9843, Note_off_c, 0, 52, 33
1, 9855, Control_c, 0, 64, 98
1, 10054, Note_off_c, 0, 54, 44
1, 10062, Control_c, 0, 64, 98
1, 10121, Control_c, 0, 64, 97
1, 10137, Control_c, 0, 64, 96
1, 10159, Control_c, 0, 64, 95
1, 10174, Control_c, 0, 64, 93
1, 10189, Control_c, 0, 64, 90
1, 10196, Note_on_c, 0, 73, 53
1, 10204, Control_c, 0, 64, 87
1, 10219, Control_c, 0, 64, 83
1, 10222, Note_on_c, 0, 64, 39
1, 10233, Control_c, 0, 64, 79
1, 10238, Note_on_c, 0, 55, 37
1, 10243, Note_on_c, 0, 52, 41
1, 10248, Control_c, 0, 64, 74
1, 10263, Control_c, 0, 64, 69
1, 10278, Control_c, 0, 64, 63
1, 10293, Control_c, 0, 64, 53
1, 10308, Control_c, 0, 64, 40
1, 10322, Control_c, 0, 64, 26
1, 10337, Control_c, 0, 64, 22
1, 10352, Control_c, 0, 64, 23
1, 10365, Control_c, 0, 64, 31
1, 10380, Control_c, 0, 64, 44
1, 10394, Control_c, 0, 64, 56
1, 10409, Control_c, 0, 64, 62
1, 10424, Control_c, 0, 64, 64
1, 10439, Control_c, 0, 64, 66
1, 10454, Control_c, 0, 64, 68
1, 10469, Control_c, 0, 64, 71
1, 10484, Control_c, 0, 64, 74
1, 10499, Control_c, 0, 64, 77
1, 10513, Control_c, 0, 64, 79
1, 10518, Note_on_c, 0, 71, 65
1, 10528, Control_c, 0, 64, 81
1, 10543, Note_off_c, 0, 55, 38
1, 10543, Note_off_c, 0, 64, 56
1, 10543, Control_c, 0, 64, 84
1, 10557, Control_c, 0, 64, 86
1, 10572, Control_c, 0, 64, 88
1, 10587, Control_c, 0, 64, 90
1, 10602, Control_c, 0, 64, 91
1, 10604, Note_off_c, 0, 52, 37
1, 10617, Control_c, 0, 64, 92
1, 10631, Control_c, 0, 64, 92
1, 10646, Control_c, 0, 64, 93
1, 10676, Control_c, 0, 64, 93
1, 10691, Control_c, 0, 64, 94
1, 10702, Note_off_c, 0, 73, 22
1, 10831, Note_off_c, 0, 71, 35
1, 10913, Note_on_c, 0, 74, 59
1, 10920, Control_c, 0, 64, 93
1, 10934, Note_on_c, 0, 69, 48
1, 10936, Control_c, 0, 64, 92
1, 10951, Control_c, 0, 64, 90
1, 10966, Control_c, 0, 64, 88
1, 10981, Control_c, 0, 64, 86
1, 10996, Control_c, 0, 64, 82
1, 11010, Control_c, 0, 64, 77
1, 11011, Note_on_c, 0, 42, 39
1, 11025, Control_c, 0, 64, 71
1, 11040, Control_c, 0, 64, 64
1, 11054, Control_c, 0, 64, 54
1, 11069, Control_c, 0, 64, 37
1, 11084, Control_c, 0, 64, 20
1, 11099, Control_c, 0, 64, 19
1, 11114, Control_c, 0, 64, 26
1, 11128, Control_c, 0, 64, 39
1, 11143, Control_c, 0, 64, 52
1, 11158, Control_c, 0, 64, 61
1, 11173, Control_c, 0, 64, 65
1, 11187, Control_c, 0, 64, 67
1, 11202, Control_c, 0, 64, 70
1, 11217, Control_c, 0, 64, 73
1, 11232, Control_c, 0, 64, 76
1, 11247, Control_c, 0, 64, 79
1, 11257, Note_off_c, 0, 42, 55
1, 11262, Control_c, 0, 64, 81
1, 11277, Control_c, 0, 64, 83
1, 11292, Control_c, 0, 64, 86
1, 11307, Control_c, 0, 64, 88
1, 11319, Note_on_c, 0, 62, 43
1, 11321, Control_c, 0, 64, 90
1, 11336, Control_c, 0, 64, 92
1, 11351, Control_c, 0, 64, 94
1, 11366, Control_c, 0, 64, 96
1, 11380, Control_c, 0, 64, 98
1, 11395, Control_c, 0, 64, 100
1, 11405, Note_off_c, 0, 69, 41
1, 11410, Control_c, 0, 64, 101
1, 11425, Control_c, 0, 64, 101
1, 11454, Control_c, 0, 64, 102
1, 11469, Control_c, 0, 64, 102
1, 11484, Control_c, 0, 64, 103
1, 11499, Control_c, 0, 64, 103
1, 11543, Control_c, 0, 64, 104
1, 11560, Note_off_c, 0, 62, 41
1, 11623, Note_on_c, 0, 57, 47
1, 11684, Control_c, 0, 64, 104
1, 11745, Control_c, 0, 64, 105
1, 11768, Note_off_c, 0, 57, 0
1, 11804, Poly_aftertouch_c, 0, 57, 127
1, 11885, Poly_aftertouch_c, 0, 57, 0
1, 11919, Note_on_c, 0, 54, 50
1, 11961, Note_off_c, 0, 54, 59
1, 12174, Control_c, 0, 64, 104
1, 12248, Note_on_c, 0, 73, 72
1, 12248, Control_c, 0, 64, 104
1, 12263, Control_c, 0, 64, 103
1, 12267, Note_on_c, 0, 64, 55
1, 12275, Note_on_c, 0, 69, 54
1, 12277, Control_c, 0, 64, 102
1, 12292, Control_c, 0, 64, 100
1, 12307, Control_c, 0, 64, 97
1, 12322, Control_c, 0, 64, 94
1, 12337, Control_c, 0, 64, 91
1, 12343, Note_on_c, 0, 40, 65
1, 12351, Control_c, 0, 64, 87
1, 12366, Control_c, 0, 64, 82
1, 12381, Control_c, 0, 64, 77
1, 12403, Control_c, 0, 64, 70
1, 12418, Control_c, 0, 64, 63
1, 12433, Control_c, 0, 64, 52
1, 12448, Control_c, 0, 64, 37
1, 12463, Control_c, 0, 64, 28
1, 12477, Control_c, 0, 64, 30
1, 12492, Control_c, 0, 64, 38
1, 12501, Note_off_c, 0, 74, 31
1, 12507, Control_c, 0, 64, 50
1, 12522, Control_c, 0, 64, 59
1, 12538, Control_c, 0, 64, 64
1, 12553, Control_c, 0, 64, 67
1, 12568, Control_c, 0, 64, 70
1, 12582, Control_c, 0, 64, 74
1, 12594, Note_on_c, 0, 71, 76
1, 12597, Control_c, 0, 64, 79
1, 12612, Control_c, 0, 64, 84
1, 12618, Note_off_c, 0, 64, 62
1, 12627, Control_c, 0, 64, 88
1, 12630, Note_off_c, 0, 69, 64
1, 12642, Control_c, 0, 64, 92
1, 12657, Control_c, 0, 64, 96
1, 12672, Control_c, 0, 64, 101
1, 12687, Control_c, 0, 64, 105
1, 12693, Note_off_c, 0, 71, 61
1, 12702, Control_c, 0, 64, 110
1, 12705, Note_off_c, 0, 73, 58
1, 12716, Control_c, 0, 64, 113
1, 12731, Control_c, 0, 64, 116
1, 12746, Control_c, 0, 64, 118
1, 12761, Control_c, 0, 64, 120
1, 12775, Control_c, 0, 64, 124
1, 12997, Control_c, 0, 64, 119
1, 13012, Note_on_c, 0, 81, 78
1, 13012, Control_c, 0, 64, 115
1, 13027, Control_c, 0, 64, 109
1, 13030, Note_on_c, 0, 78, 66
1, 13031, Note_on_c, 0, 71, 50
1, 13037, Note_on_c, 0, 69, 61
1, 13041, Control_c, 0, 64, 104
1, 13056, Control_c, 0, 64, 98
1, 13071, Control_c, 0, 64, 91
1, 13072, Note_on_c, 0, 39, 53
1, 13086, Control_c, 0, 64, 84
1, 13101, Control_c, 0, 64, 75
1, 13116, Control_c, 0, 64, 68
1, 13129, Note_off_c, 0, 40, 55
1, 13131, Control_c, 0, 64, 59
1, 13146, Control_c, 0, 64, 45
1, 13167, Control_c, 0, 64, 19
1, 13182, Control_c, 0, 64, 0
1, 13227, Control_c, 0, 64, 29
1, 13241, Control_c, 0, 64, 48
1, 13256, Control_c, 0, 64, 59
1, 13271, Control_c, 0, 64, 64
1, 13286, Control_c, 0, 64, 66
1, 13301, Control_c, 0, 64, 70
1, 13316, Control_c, 0, 64, 73
1, 13331, Control_c, 0, 64, 78
1, 13346, Control_c, 0, 64, 83
1, 13361, Control_c, 0, 64, 89
1, 13376, Control_c, 0, 64, 94
1, 13391, Control_c, 0, 64, 101
1, 13405, Control_c, 0, 64, 111
1, 13420, Control_c, 0, 64, 127
1, 13434, Note_off_c, 0, 39, 58
1, 13450, Note_on_c, 0, 47, 55
1, 13502, Note_off_c, 0, 47, 62
1, 13667, Note_off_c, 0, 81, 57
1, 13711, Note_off_c, 0, 71, 38
1, 13731, Note_off_c, 0, 78, 45
1, 13733, Note_off_c, 0, 69, 30
1, 13796, Note_on_c, 0, 54, 45
1, 13807, Note_on_c, 0, 51, 38
1, 14100, Note_off_c, 0, 54, 0
1, 14130, Note_off_c, 0, 51, 41
1, 14130, Note_on_c, 0, 59, 43
1, 14144, Poly_aftertouch_c, 0, 54, 0
1, 14210, Note_off_c, 0, 59, 48
1, 14515, Note_on_c, 0, 73, 58
1, 14537, Note_on_c, 0, 66, 44
1, 14537, Note_on_c, 0, 71, 50
1, 14553, Control_c, 0, 64, 118
1, 14568, Note_on_c, 0, 45, 38
1, 14568, Control_c, 0, 64, 103
1, 14571, Note_on_c, 0, 47, 42
1, 14583, Control_c, 0, 64, 94
1, 14598, Control_c, 0, 64, 86
1, 14612, Control_c, 0, 64, 77
1, 14627, Control_c, 0, 64, 68
1, 14650, Control_c, 0, 64, 59
1, 14665, Control_c, 0, 64, 45
1, 14679, Control_c, 0, 64, 32
1, 14694, Control_c, 0, 64, 28
1, 14709, Control_c, 0, 64, 29
1, 14724, Control_c, 0, 64, 36
1, 14739, Control_c, 0, 64, 47
1, 14753, Control_c, 0, 64, 57
1, 14768, Control_c, 0, 64, 63
1, 14783, Control_c, 0, 64, 65
1, 14797, Control_c, 0, 64, 68
1, 14812, Control_c, 0, 64, 72
1, 14827, Control_c, 0, 64, 76
1, 14842, Control_c, 0, 64, 81
1, 14857, Control_c, 0, 64, 86
1, 14872, Control_c, 0, 64, 90
1, 14876, Note_on_c, 0, 57, 55
1, 14887, Control_c, 0, 64, 96
1, 14902, Control_c, 0, 64, 103
1, 14916, Control_c, 0, 64, 113
1, 14932, Control_c, 0, 64, 127
1, 14939, Note_off_c, 0, 45, 58
1, 14965, Note_off_c, 0, 57, 63
1, 14991, Note_on_c, 0, 75, 76
1, 15013, Note_off_c, 0, 47, 33
1, 15023, Note_off_c, 0, 66, 56
1, 15065, Note_off_c, 0, 73, 57
1, 15074, Note_off_c, 0, 71, 58
1, 15098, Note_off_c, 0, 75, 64
1, 15171, Note_on_c, 0, 75, 80
1, 15197, Note_on_c, 0, 66, 49
1, 15200, Note_on_c, 0, 44, 61
1, 15202, Note_on_c, 0, 47, 59
1, 15204, Note_on_c, 0, 71, 54
1, 15214, Control_c, 0, 64, 109
1, 15228, Control_c, 0, 64, 90
1, 15243, Control_c, 0, 64, 74
1, 15258, Control_c, 0, 64, 61
1, 15273, Control_c, 0, 64, 45
1, 15288, Control_c, 0, 64, 34
1, 15302, Control_c, 0, 64, 37
1, 15317, Control_c, 0, 64, 48
1, 15332, Control_c, 0, 64, 56
1, 15347, Control_c, 0, 64, 63
1, 15362, Control_c, 0, 64, 69
1, 15376, Control_c, 0, 64, 76
1, 15399, Control_c, 0, 64, 85
1, 15414, Control_c, 0, 64, 93
1, 15428, Control_c, 0, 64, 100
1, 15443, Control_c, 0, 64, 108
1, 15458, Control_c, 0, 64, 127
1, 15512, Note_on_c, 0, 56, 66
1, 15596, Note_off_c, 0, 44, 42
1, 15628, Note_on_c, 0, 76, 78
1, 15649, Note_off_c, 0, 75, 56
1, 15677, Note_off_c, 0, 66, 53
1, 15680, Note_off_c, 0, 71, 37
1, 15706, Note_off_c, 0, 47, 31
1, 15710, Note_off_c, 0, 56, 62
1, 15738, Note_off_c, 0, 76, 59
1, 15915, Note_on_c, 0, 76, 69
1, 15932, Note_on_c, 0, 73, 51
1, 15945, Note_on_c, 0, 64, 46
1, 15963, Control_c, 0, 64, 108
1, 15967, Note_on_c, 0, 45, 48
1, 15978, Control_c, 0, 64, 96
1, 15979, Note_on_c, 0, 54, 53
1, 15993, Control_c, 0, 64, 85
1, 16007, Control_c, 0, 64, 76
1, 16022, Control_c, 0, 64, 64
1, 16037, Control_c, 0, 64, 51
1, 16052, Control_c, 0, 64, 16
1, 16067, Control_c, 0, 64, 0
1, 16141, Control_c, 0, 64, 37
1, 16163, Control_c, 0, 64, 55
1, 16177, Control_c, 0, 64, 62
1, 16192, Control_c, 0, 64, 65
1, 16207, Control_c, 0, 64, 67
1, 16222, Control_c, 0, 64, 72
1, 16237, Control_c, 0, 64, 76
1, 16252, Control_c, 0, 64, 81
1, 16254, Note_off_c, 0, 76, 61
1, 16267, Control_c, 0, 64, 84
1, 16282, Control_c, 0, 64, 89
1, 16295, Note_off_c, 0, 73, 62
1, 16297, Control_c, 0, 64, 94
1, 16312, Control_c, 0, 64, 101
1, 16312, Control_c, 0, 67, 9
1, 16326, Control_c, 0, 64, 114
1, 16326, Control_c, 0, 67, 12
1, 16338, Note_on_c, 0, 57, 37
1, 16341, Note_off_c, 0, 64, 63
1, 16341, Control_c, 0, 64, 127
1, 16341, Control_c, 0, 67, 14
1, 16356, Control_c, 0, 67, 16
1, 16370, Control_c, 0, 67, 22
1, 16371, Note_off_c, 0, 57, 53
1, 16385, Control_c, 0, 67, 28
1, 16400, Control_c, 0, 67, 35
1, 16415, Control_c, 0, 67, 41
1, 16430, Control_c, 0, 67, 45
1, 16444, Control_c, 0, 67, 47
1, 16446, Note_off_c, 0, 54, 60
1, 16459, Control_c, 0, 67, 48
1, 16474, Control_c, 0, 67, 47
1, 16489, Control_c, 0, 67, 46
1, 16504, Control_c, 0, 67, 46
1, 16520, Control_c, 0, 67, 45
1, 16535, Control_c, 0, 67, 43
1, 16549, Control_c, 0, 67, 43
1, 16608, Control_c, 0, 67, 42
1, 16638, Control_c, 0, 67, 42
1, 16653, Control_c, 0, 67, 41
1, 16667, Control_c, 0, 67, 41
1, 16694, Note_on_c, 0, 66, 54
1, 16697, Control_c, 0, 67, 40
1, 16712, Control_c, 0, 64, 114
1, 16721, Note_on_c, 0, 57, 36
1, 16725, Note_on_c, 0, 63, 40
1, 16727, Control_c, 0, 64, 105
1, 16727, Control_c, 0, 67, 40
1, 16742, Control_c, 0, 64, 99
1, 16756, Note_on_c, 0, 47, 56
1, 16756, Control_c, 0, 64, 94
1, 16756, Control_c, 0, 67, 39
1, 16771, Control_c, 0, 64, 89
1, 16786, Control_c, 0, 64, 83
1, 16786, Control_c, 0, 67, 39
1, 16800, Control_c, 0, 64, 78
1, 16815, Control_c, 0, 64, 73
1, 16815, Control_c, 0, 67, 38
1, 16830, Control_c, 0, 64, 67
1, 16845, Control_c, 0, 64, 63
1, 16845, Control_c, 0, 67, 38
1, 16860, Control_c, 0, 64, 55
1, 16875, Control_c, 0, 64, 44
1, 16881, Note_off_c, 0, 45, 38
1, 16890, Control_c, 0, 64, 22
1, 16912, Control_c, 0, 64, 0
1, 16971, Control_c, 0, 64, 19
1, 16986, Control_c, 0, 64, 42
1, 17000, Control_c, 0, 64, 56
1, 17015, Control_c, 0, 64, 62
1, 17030, Control_c, 0, 64, 65
1, 17045, Control_c, 0, 64, 67
1, 17060, Control_c, 0, 64, 71
1, 17060, Control_c, 0, 67, 38
1, 17075, Control_c, 0, 64, 75
1, 17075, Control_c, 0, 67, 39
1, 17082, Note_off_c, 0, 57, 40
1, 17090, Control_c, 0, 64, 80
1, 17090, Control_c, 0, 67, 39
1, 17104, Control_c, 0, 64, 85
1, 17104, Control_c, 0, 67, 40
1, 17106, Note_on_c, 0, 54, 42
1, 17119, Control_c, 0, 64, 89
1, 17119, Control_c, 0, 67, 41
1, 17131, Note_off_c, 0, 63, 43
1, 17134, Control_c, 0, 64, 96
1, 17134, Control_c, 0, 67, 42
1, 17149, Control_c, 0, 64, 103
1, 17149, Control_c, 0, 67, 43
1, 17164, Control_c, 0, 64, 112
1, 17164, Control_c, 0, 67, 43
1, 17177, Note_off_c, 0, 54, 58
1, 17179, Control_c, 0, 64, 124
1, 17179, Control_c, 0, 67, 44
1, 17193, Control_c, 0, 64, 127
1, 17193, Control_c, 0, 67, 45
1, 17208, Control_c, 0, 67, 46
1, 17223, Control_c, 0, 67, 47
1, 17238, Control_c, 0, 67, 47
1, 17253, Control_c, 0, 67, 48
1, 17267, Control_c, 0, 67, 48
1, 17273, Note_off_c, 0, 47, 24
1, 17297, Control_c, 0, 67, 49
1, 17312, Control_c, 0, 67, 49
1, 17328, Control_c, 0, 67, 50
1, 17387, Control_c, 0, 67, 50
1, 17431, Control_c, 0, 67, 53
1, 17446, Control_c, 0, 67, 58
1, 17461, Control_c, 0, 67, 61
1, 17476, Control_c, 0, 67, 64
1, 17490, Control_c, 0, 67, 66
1, 17505, Control_c, 0, 67, 67
1, 17520, Control_c, 0, 67, 66
1, 17564, Control_c, 0, 64, 119
1, 17564, Control_c, 0, 67, 66
1, 17579, Control_c, 0, 64, 113
1, 17588, Note_on_c, 0, 69, 50
1, 17594, Control_c, 0, 64, 109
1, 17594, Control_c, 0, 67, 65
1, 17603, Note_on_c, 0, 57, 41
1, 17609, Note_on_c, 0, 63, 50
1, 17609, Control_c, 0, 64, 104
1, 17623, Control_c, 0, 64, 98
1, 17646, Control_c, 0, 64, 94
1, 17661, Control_c, 0, 64, 90
1, 17661, Control_c, 0, 67, 65
1, 17676, Control_c, 0, 64, 87
1, 17676, Control_c, 0, 67, 64
1, 17689, Note_on_c, 0, 40, 53
1, 17691, Control_c, 0, 64, 84
1, 17705, Control_c, 0, 64, 82
1, 17705, Control_c, 0, 67, 64
1, 17720, Control_c, 0, 64, 79
1, 17720, Control_c, 0, 67, 63
1, 17735, Control_c, 0, 64, 76
1, 17750, Control_c, 0, 64, 74
1, 17750, Control_c, 0, 67, 63
1, 17765, Control_c, 0, 64, 72
1, 17779, Control_c, 0, 64, 69
1, 17779, Control_c, 0, 67, 62
1, 17794, Control_c, 0, 64, 67
1, 17794, Control_c, 0, 67, 62
1, 17809, Control_c, 0, 64, 65
1, 17823, Control_c, 0, 64, 62
1, 17838, Control_c, 0, 64, 59
1, 17853, Control_c, 0, 64, 55
1, 17868, Control_c, 0, 64, 48
1, 17883, Control_c, 0, 64, 34
1, 17897, Control_c, 0, 64, 18
1, 17912, Control_c, 0, 64, 16
1, 17919, Note_off_c, 0, 66, 24
1, 17927, Control_c, 0, 64, 28
1, 17942, Control_c, 0, 64, 44
1, 17942, Control_c, 0, 67, 62
1, 17957, Control_c, 0, 64, 57
1, 17957, Control_c, 0, 67, 63
1, 17972, Control_c, 0, 64, 65
1, 17987, Control_c, 0, 64, 69
1, 17987, Control_c, 0, 67, 63
1, 18002, Control_c, 0, 64, 75
1, 18002, Control_c, 0, 67, 64
1, 18016, Control_c, 0, 64, 79
1, 18016, Control_c, 0, 67, 65
1, 18031, Control_c, 0, 64, 83
1, 18031, Control_c, 0, 67, 65
1, 18046, Control_c, 0, 64, 85
1, 18046, Control_c, 0, 67, 66
1, 18061, Control_c, 0, 64, 88
1, 18061, Control_c, 0, 67, 66
1, 18076, Control_c, 0, 64, 91
1, 18076, Control_c, 0, 67, 67
1, 18091, Control_c, 0, 64, 93
1, 18091, Control_c, 0, 67, 68
1, 18105, Control_c, 0, 64, 93
1, 18105, Control_c, 0, 67, 69
1, 18121, Control_c, 0, 64, 94
1, 18121, Control_c, 0, 67, 74
1, 18136, Control_c, 0, 64, 94
1, 18136, Control_c, 0, 67, 79
1, 18151, Control_c, 0, 67, 84
1, 18166, Control_c, 0, 67, 87
1, 18181, Control_c, 0, 67, 90
1, 18195, Control_c, 0, 67, 93
1, 18210, Control_c, 0, 67, 95
1, 18213, Note_off_c, 0, 57, 58
1, 18219, Note_off_c, 0, 69, 61
1, 18225, Control_c, 0, 64, 95
1, 18225, Control_c, 0, 67, 96
1, 18230, Note_on_c, 0, 47, 45
1, 18239, Control_c, 0, 67, 97
1, 18254, Control_c, 0, 67, 97
1, 18284, Control_c, 0, 67, 98
1, 18299, Control_c, 0, 67, 99
1, 18313, Control_c, 0, 67, 101
1, 18328, Control_c, 0, 67, 103
1, 18343, Control_c, 0, 67, 105
1, 18358, Control_c, 0, 67, 107
1, 18372, Control_c, 0, 67, 110
1, 18395, Control_c, 0, 67, 111
1, 18410, Control_c, 0, 67, 112
1, 18425, Control_c, 0, 64, 94
1, 18425, Control_c, 0, 67, 113
1, 18440, Control_c, 0, 67, 114
1, 18454, Control_c, 0, 67, 115
1, 18469, Control_c, 0, 67, 115
1, 18484, Control_c, 0, 64, 94
1, 18499, Control_c, 0, 64, 93
1, 18514, Control_c, 0, 64, 93
1, 18528, Control_c, 0, 64, 92
1, 18528, Control_c, 0, 67, 116
1, 18543, Control_c, 0, 64, 91
1, 18558, Control_c, 0, 64, 90
1, 18572, Control_c, 0, 64, 89
1, 18587, Control_c, 0, 64, 87
1, 18601, Control_c, 0, 64, 86
1, 18616, Control_c, 0, 64, 85
1, 18631, Control_c, 0, 64, 83
1, 18646, Control_c, 0, 64, 81
1, 18657, Note_on_c, 0, 64, 40
1, 18660, Note_on_c, 0, 68, 43
1, 18660, Control_c, 0, 64, 79
1, 18663, Note_on_c, 0, 56, 40
1, 18675, Control_c, 0, 64, 76
1, 18690, Control_c, 0, 64, 74
1, 18705, Control_c, 0, 64, 71
1, 18720, Control_c, 0, 64, 67
1, 18735, Control_c, 0, 64, 63
1, 18750, Control_c, 0, 64, 57
1, 18750, Control_c, 0, 67, 116
1, 18765, Control_c, 0, 64, 48
1, 18779, Control_c, 0, 64, 32
1, 18794, Control_c, 0, 64, 0
1, 18853, Control_c, 0, 67, 116
1, 18868, Control_c, 0, 67, 115
1, 18880, Note_off_c, 0, 63, 40
1, 18883, Control_c, 0, 67, 114
1, 18898, Control_c, 0, 64, 28
1, 18898, Control_c, 0, 67, 114
1, 18914, Control_c, 0, 64, 46
1, 18914, Control_c, 0, 67, 113
1, 18929, Control_c, 0, 64, 56
1, 18929, Control_c, 0, 67, 112
1, 18943, Control_c, 0, 64, 59
1, 18943, Control_c, 0, 67, 112
1, 18958, Control_c, 0, 64, 61
1, 18958, Control_c, 0, 67, 111
1, 18973, Control_c, 0, 64, 63
1, 18987, Control_c, 0, 64, 64
1, 19002, Control_c, 0, 64, 66
1, 19017, Control_c, 0, 64, 67
1, 19017, Control_c, 0, 67, 110
1, 19032, Control_c, 0, 64, 69
1, 19047, Control_c, 0, 64, 71
1, 19047, Control_c, 0, 67, 110
1, 19061, Control_c, 0, 64, 73
1, 19076, Control_c, 0, 64, 74
1, 19091, Control_c, 0, 64, 75
1, 19106, Control_c, 0, 64, 76
1, 19121, Control_c, 0, 64, 77
1, 19121, Control_c, 0, 67, 109
1, 19143, Control_c, 0, 64, 79
1, 19158, Control_c, 0, 64, 80
1, 19173, Control_c, 0, 64, 81
1, 19188, Control_c, 0, 64, 81
1, 19202, Control_c, 0, 64, 82
1, 19205, Note_on_c, 0, 52, 40
1, 19217, Control_c, 0, 64, 84
1, 19217, Control_c, 0, 67, 109
1, 19221, Note_off_c, 0, 56, 38
1, 19232, Control_c, 0, 64, 86
1, 19242, Note_off_c, 0, 64, 40
1, 19247, Control_c, 0, 64, 88
1, 19262, Control_c, 0, 64, 89
1, 19276, Control_c, 0, 64, 90
1, 19291, Control_c, 0, 64, 91
1, 19306, Control_c, 0, 64, 92
1, 19321, Control_c, 0, 64, 93
1, 19336, Control_c, 0, 64, 94
1, 19351, Control_c, 0, 64, 95
1, 19353, Note_off_c, 0, 68, 44
1, 19366, Control_c, 0, 67, 109
1, 19381, Control_c, 0, 64, 96
1, 19410, Control_c, 0, 67, 110
1, 19455, Control_c, 0, 67, 110
1, 19474, Note_off_c, 0, 40, 41
1, 19529, Control_c, 0, 67, 111
1, 19573, Control_c, 0, 67, 111
1, 19617, Note_off_c, 0, 47, 41
1, 19707, Control_c, 0, 67, 112
1, 19752, Control_c, 0, 64, 95
1, 19766, Control_c, 0, 64, 95
1, 19781, Control_c, 0, 64, 94
1, 19796, Control_c, 0, 64, 93
1, 19796, Control_c, 0, 67, 112
1, 19811, Control_c, 0, 64, 92
1, 19826, Control_c, 0, 64, 92
1, 19841, Control_c, 0, 64, 90
1, 19856, Control_c, 0, 64, 89
1, 19871, Control_c, 0, 64, 88
1, 19892, Control_c, 0, 64, 87
1, 19907, Control_c, 0, 64, 86
1, 19922, Control_c, 0, 64, 85
1, 19937, Control_c, 0, 64, 84
1, 19952, Control_c, 0, 64, 83
1, 19966, Control_c, 0, 64, 81
1, 19981, Control_c, 0, 64, 79
1, 19996, Control_c, 0, 64, 78
1, 20011, Control_c, 0, 64, 76
1, 20013, Note_on_c, 0, 73, 44
1, 20023, Note_on_c, 0, 69, 38
1, 20026, Control_c, 0, 64, 75
1, 20041, Control_c, 0, 64, 73
1, 20056, Control_c, 0, 64, 72
1, 20070, Control_c, 0, 64, 70
1, 20085, Control_c, 0, 64, 67
1, 20085, Control_c, 0, 67, 113
1, 20086, Note_on_c, 0, 45, 29
1, 20100, Control_c, 0, 64, 64
1, 20115, Control_c, 0, 64, 60
1, 20115, Control_c, 0, 67, 113
1, 20130, Control_c, 0, 64, 54
1, 20145, Control_c, 0, 64, 44
1, 20160, Control_c, 0, 64, 28
1, 20174, Control_c, 0, 64, 0
1, 20248, Control_c, 0, 64, 32
1, 20263, Control_c, 0, 64, 47
1, 20263, Control_c, 0, 67, 113
1, 20278, Control_c, 0, 64, 57
1, 20278, Control_c, 0, 67, 112
1, 20292, Control_c, 0, 64, 61
1, 20292, Control_c, 0, 67, 112
1, 20307, Control_c, 0, 64, 63
1, 20307, Control_c, 0, 67, 111
1, 20322, Control_c, 0, 64, 65
1, 20322, Control_c, 0, 67, 111
1, 20336, Control_c, 0, 64, 67
1, 20336, Control_c, 0, 67, 110
1, 20351, Control_c, 0, 64, 70
1, 20351, Control_c, 0, 67, 109
1, 20366, Control_c, 0, 64, 74
1, 20366, Control_c, 0, 67, 109
1, 20375, Note_off_c, 0, 52, 39
1, 20381, Control_c, 0, 64, 76
1, 20396, Control_c, 0, 64, 79
1, 20396, Control_c, 0, 67, 108
1, 20410, Control_c, 0, 64, 82
1, 20425, Control_c, 0, 64, 84
1, 20425, Control_c, 0, 67, 108
1, 20440, Control_c, 0, 64, 86
1, 20455, Control_c, 0, 64, 89
1, 20455, Control_c, 0, 67, 107
1, 20470, Control_c, 0, 64, 91
1, 20485, Control_c, 0, 64, 92
1, 20485, Control_c, 0, 67, 107
1, 20500, Control_c, 0, 64, 94
1, 20515, Control_c, 0, 64, 94
1, 20524, Note_on_c, 0, 68, 42
1, 20524, Note_on_c, 0, 71, 48
1, 20527, Note_off_c, 0, 45, 33
1, 20530, Control_c, 0, 64, 95
1, 20530, Control_c, 0, 67, 106
1, 20545, Control_c, 0, 64, 96
1, 20560, Control_c, 0, 64, 97
1, 20560, Control_c, 0, 67, 106
1, 20589, Control_c, 0, 64, 98
1, 20604, Control_c, 0, 64, 98
1, 20604, Control_c, 0, 67, 105
1, 20615, Note_off_c, 0, 73, 42
1, 20619, Control_c, 0, 64, 99
1, 20623, Note_off_c, 0, 69, 45
1, 20634, Control_c, 0, 64, 100
1, 20656, Control_c, 0, 64, 100
1, 20671, Control_c, 0, 64, 101
1, 20686, Control_c, 0, 64, 101
1, 20701, Control_c, 0, 64, 102
1, 20715, Control_c, 0, 64, 103
1, 20730, Control_c, 0, 64, 103
1, 20753, Note_off_c, 0, 68, 43
1, 20760, Control_c, 0, 64, 104
1, 20819, Control_c, 0, 67, 105
1, 20878, Control_c, 0, 67, 104
1, 20893, Control_c, 0, 67, 104
1, 20937, Note_off_c, 0, 71, 42
1, 20938, Control_c, 0, 67, 103
1, 20967, Control_c, 0, 64, 103
1, 20997, Control_c, 0, 67, 103
1, 21012, Control_c, 0, 64, 103
1, 21027, Control_c, 0, 64, 102
1, 21041, Control_c, 0, 64, 101
1, 21056, Control_c, 0, 64, 99
1, 21071, Control_c, 0, 64, 97
1, 21078, Note_on_c, 0, 74, 50
1, 21086, Control_c, 0, 64, 95
1, 21098, Note_on_c, 0, 66, 42
1, 21101, Control_c, 0, 64, 92
1, 21115, Control_c, 0, 64, 88
1, 21130, Control_c, 0, 64, 84
1, 21145, Control_c, 0, 64, 79
1, 21159, Control_c, 0, 64, 74
1, 21174, Control_c, 0, 64, 69
1, 21175, Note_on_c, 0, 33, 36
1, 21189, Control_c, 0, 64, 63
1, 21204, Control_c, 0, 64, 54
1, 21219, Control_c, 0, 64, 42
1, 21233, Control_c, 0, 64, 31
1, 21248, Control_c, 0, 64, 28
1, 21263, Control_c, 0, 64, 32
1, 21278, Control_c, 0, 64, 42
1, 21293, Control_c, 0, 64, 52
1, 21309, Control_c, 0, 64, 60
1, 21309, Control_c, 0, 67, 102
1, 21324, Control_c, 0, 64, 65
1, 21338, Control_c, 0, 64, 67
1, 21353, Control_c, 0, 64, 71
1, 21368, Control_c, 0, 64, 74
1, 21368, Control_c, 0, 67, 102
1, 21383, Control_c, 0, 64, 77
1, 21383, Control_c, 0, 67, 101
1, 21393, Note_off_c, 0, 33, 49
1, 21405, Control_c, 0, 64, 80
1, 21420, Control_c, 0, 64, 82
1, 21420, Control_c, 0, 67, 101
1, 21435, Control_c, 0, 64, 84
1, 21450, Control_c, 0, 64, 87
1, 21450, Control_c, 0, 67, 100
1, 21465, Control_c, 0, 64, 89
1, 21479, Control_c, 0, 64, 90
1, 21494, Control_c, 0, 64, 92
1, 21509, Control_c, 0, 64, 93
1, 21524, Control_c, 0, 64, 95
1, 21539, Control_c, 0, 64, 96
1, 21553, Control_c, 0, 64, 96
1, 21568, Control_c, 0, 64, 97
1, 21593, Note_on_c, 0, 62, 40
1, 21612, Control_c, 0, 64, 97
1, 21716, Control_c, 0, 64, 98
1, 21850, Control_c, 0, 67, 100
1, 21879, Control_c, 0, 67, 99
1, 21909, Control_c, 0, 64, 97
1, 21909, Control_c, 0, 67, 99
1, 21924, Control_c, 0, 67, 97
1, 21938, Control_c, 0, 67, 96
1, 21953, Control_c, 0, 67, 96
1, 21967, Note_on_c, 0, 57, 42
1, 21979, Note_off_c, 0, 62, 42
1, 22021, Note_off_c, 0, 66, 41
1, 22027, Control_c, 0, 67, 95
1, 22199, Control_c, 0, 67, 95
1, 22291, Note_on_c, 0, 54, 42
1, 22317, Control_c, 0, 67, 94
1, 22332, Control_c, 0, 67, 92
1, 22339, Note_off_c, 0, 57, 36
1, 22375, Control_c, 0, 67, 92
1, 22436, Note_off_c, 0, 54, 0
1, 22453, Poly_aftertouch_c, 0, 54, 0
1, 22493, Control_c, 0, 64, 97
1, 22523, Control_c, 0, 64, 96
1, 22538, Control_c, 0, 64, 96
1, 22553, Control_c, 0, 64, 95
1, 22567, Control_c, 0, 64, 94
1, 22582, Control_c, 0, 64, 94
1, 22582, Control_c, 0, 67, 91
1, 22597, Control_c, 0, 64, 93
1, 22611, Control_c, 0, 64, 92
1, 22626, Control_c, 0, 64, 90
1, 22641, Control_c, 0, 64, 89
1, 22655, Note_on_c, 0, 73, 54
1, 22656, Control_c, 0, 64, 86
1, 22664, Note_on_c, 0, 69, 51
1, 22671, Control_c, 0, 64, 83
1, 22685, Control_c, 0, 64, 79
1, 22685, Control_c, 0, 67, 91
1, 22700, Control_c, 0, 64, 75
1, 22706, Note_on_c, 0, 45, 39
1, 22713, Note_on_c, 0, 50, 35
1, 22715, Control_c, 0, 64, 71
1, 22730, Control_c, 0, 64, 67
1, 22730, Control_c, 0, 67, 90
1, 22745, Control_c, 0, 64, 61
1, 22759, Control_c, 0, 64, 48
1, 22774, Control_c, 0, 64, 34
1, 22774, Control_c, 0, 67, 89
1, 22789, Control_c, 0, 64, 26
1, 22789, Control_c, 0, 67, 86
1, 22804, Control_c, 0, 64, 27
1, 22804, Control_c, 0, 67, 85
1, 22819, Control_c, 0, 64, 33
1, 22819, Control_c, 0, 67, 84
1, 22834, Control_c, 0, 64, 45
1, 22834, Control_c, 0, 67, 84
1, 22849, Control_c, 0, 64, 58
1, 22849, Control_c, 0, 67, 83
1, 22864, Control_c, 0, 64, 65
1, 22864, Control_c, 0, 67, 81
1, 22885, Control_c, 0, 64, 68
1, 22885, Control_c, 0, 67, 79
1, 22900, Control_c, 0, 64, 72
1, 22900, Control_c, 0, 67, 77
1, 22916, Control_c, 0, 64, 76
1, 22916, Control_c, 0, 67, 76
1, 22931, Control_c, 0, 64, 79
1, 22931, Control_c, 0, 67, 74
1, 22946, Note_off_c, 0, 45, 30
1, 22946, Control_c, 0, 64, 83
1, 22946, Control_c, 0, 67, 72
1, 22955, Note_off_c, 0, 50, 41
1, 22961, Control_c, 0, 64, 86
1, 22961, Control_c, 0, 67, 68
1, 22976, Control_c, 0, 64, 89
1, 22976, Control_c, 0, 67, 65
1, 22990, Control_c, 0, 64, 91
1, 22990, Control_c, 0, 67, 61
1, 23005, Control_c, 0, 64, 92
1, 23005, Control_c, 0, 67, 59
1, 23020, Control_c, 0, 64, 93
1, 23020, Control_c, 0, 67, 57
1, 23030, Note_off_c, 0, 74, 33
1, 23035, Control_c, 0, 64, 94
1, 23035, Control_c, 0, 67, 55
1, 23049, Control_c, 0, 64, 94
1, 23049, Control_c, 0, 67, 54
1, 23055, Note_on_c, 0, 71, 56
1, 23064, Control_c, 0, 67, 53
1, 23069, Note_on_c, 0, 68, 51
1, 23079, Control_c, 0, 67, 53
1, 23093, Note_off_c, 0, 69, 59
1, 23095, Control_c, 0, 64, 95
1, 23124, Control_c, 0, 67, 52
1, 23127, Note_off_c, 0, 73, 51
1, 23198, Control_c, 0, 64, 94
1, 23287, Control_c, 0, 64, 94
1, 23302, Control_c, 0, 64, 92
1, 23317, Control_c, 0, 64, 91
1, 23332, Control_c, 0, 64, 89
1, 23346, Control_c, 0, 64, 87
1, 23361, Control_c, 0, 64, 83
1, 23376, Control_c, 0, 64, 79
1, 23391, Control_c, 0, 64, 75
1, 23406, Control_c, 0, 64, 70
1, 23412, Note_off_c, 0, 71, 53
1, 23419, Note_on_c, 0, 66, 57
1, 23421, Control_c, 0, 64, 63
1, 23425, Note_off_c, 0, 68, 43
1, 23435, Control_c, 0, 64, 51
1, 23435, Control_c, 0, 67, 53
1, 23450, Control_c, 0, 64, 32
1, 23465, Control_c, 0, 64, 12
1, 23480, Control_c, 0, 64, 16
1, 23495, Control_c, 0, 64, 29
1, 23509, Control_c, 0, 64, 44
1, 23517, Note_on_c, 0, 33, 37
1, 23524, Control_c, 0, 64, 57
1, 23539, Control_c, 0, 64, 64
1, 23554, Control_c, 0, 64, 69
1, 23568, Control_c, 0, 64, 73
1, 23583, Control_c, 0, 64, 77
1, 23591, Note_off_c, 0, 66, 61
1, 23598, Control_c, 0, 64, 80
1, 23613, Control_c, 0, 64, 83
1, 23628, Control_c, 0, 64, 85
1, 23628, Control_c, 0, 67, 52
1, 23650, Control_c, 0, 64, 88
1, 23665, Control_c, 0, 64, 90
1, 23680, Control_c, 0, 64, 92
1, 23695, Control_c, 0, 64, 93
1, 23710, Control_c, 0, 64, 94
1, 23725, Control_c, 0, 64, 96
1, 23740, Control_c, 0, 64, 98
1, 23753, Note_off_c, 0, 33, 41
1, 23755, Control_c, 0, 64, 100
1, 23770, Control_c, 0, 64, 102
1, 23770, Note_on_c, 0, 81, 59
1, 23785, Control_c, 0, 64, 104
1, 23800, Control_c, 0, 64, 106
1, 23814, Control_c, 0, 64, 109
1, 23829, Control_c, 0, 64, 112
1, 23844, Control_c, 0, 64, 116
1, 23858, Control_c, 0, 64, 122
1, 23873, Control_c, 0, 64, 127
1, 23903, Control_c, 0, 67, 52
1, 24047, Note_on_c, 0, 50, 35
1, 24291, Note_off_c, 0, 81, 54
1, 24423, Note_on_c, 0, 45, 40
1, 24551, Note_off_c, 0, 50, 32
1, 24755, Note_on_c, 0, 42, 40
1, 24834, Note_off_c, 0, 45, 41
1, 25036, Control_c, 0, 64, 124
1, 25051, Control_c, 0, 64, 118
1, 25066, Control_c, 0, 64, 114
1, 25080, Control_c, 0, 64, 111
1, 25095, Control_c, 0, 64, 107
1, 25110, Control_c, 0, 64, 104
1, 25125, Control_c, 0, 64, 99
1, 25144, Note_on_c, 0, 69, 50
1, 25147, Control_c, 0, 64, 94
1, 25156, Note_on_c, 0, 66, 52
1, 25162, Control_c, 0, 64, 89
1, 25177, Control_c, 0, 64, 82
1, 25179, Note_on_c, 0, 38, 38
1, 25192, Control_c, 0, 64, 75
1, 25207, Control_c, 0, 64, 66
1, 25221, Control_c, 0, 64, 55
1, 25236, Control_c, 0, 64, 39
1, 25248, Note_off_c, 0, 42, 34
1, 25251, Control_c, 0, 64, 32
1, 25266, Control_c, 0, 64, 35
1, 25266, Control_c, 0, 67, 51
1, 25281, Control_c, 0, 64, 47
1, 25295, Control_c, 0, 64, 56
1, 25311, Control_c, 0, 64, 63
1, 25326, Control_c, 0, 64, 67
1, 25341, Control_c, 0, 64, 71
1, 25341, Control_c, 0, 67, 50
1, 25356, Control_c, 0, 64, 76
1, 25356, Control_c, 0, 67, 48
1, 25370, Control_c, 0, 64, 82
1, 25370, Control_c, 0, 67, 47
1, 25385, Control_c, 0, 64, 86
1, 25385, Control_c, 0, 67, 45
1, 25400, Control_c, 0, 64, 89
1, 25400, Control_c, 0, 67, 44
1, 25415, Control_c, 0, 64, 93
1, 25415, Control_c, 0, 67, 42
1, 25429, Control_c, 0, 64, 97
1, 25429, Control_c, 0, 67, 41
1, 25444, Control_c, 0, 64, 102
1, 25444, Control_c, 0, 67, 39
1, 25459, Control_c, 0, 64, 108
1, 25459, Control_c, 0, 67, 38
1, 25460, Note_off_c, 0, 38, 38
1, 25474, Control_c, 0, 64, 115
1, 25474, Control_c, 0, 67, 37
1, 25481, Note_on_c, 0, 50, 49
1, 25489, Control_c, 0, 64, 127
1, 25489, Control_c, 0, 67, 35
1, 25503, Control_c, 0, 67, 34
1, 25518, Control_c, 0, 67, 33
1, 25529, Note_off_c, 0, 50, 59
1, 25533, Control_c, 0, 67, 32
1, 25548, Control_c, 0, 67, 32
1, 25563, Control_c, 0, 67, 31
1, 25577, Control_c, 0, 67, 31
1, 25592, Control_c, 0, 67, 30
1, 25599, Note_off_c, 0, 69, 54
1, 25607, Control_c, 0, 67, 29
1, 25609, Note_off_c, 0, 66, 55
1, 25622, Control_c, 0, 67, 29
1, 25632, Note_on_c, 0, 71, 63
1, 25636, Control_c, 0, 67, 28
1, 25645, Note_on_c, 0, 65, 57
1, 25666, Control_c, 0, 67, 28
1, 25696, Note_off_c, 0, 65, 56
1, 25712, Note_off_c, 0, 71, 61
1, 25785, Control_c, 0, 67, 27
1, 25815, Control_c, 0, 64, 124
1, 25815, Control_c, 0, 67, 26
1, 25820, Note_on_c, 0, 65, 62
1, 25821, Note_on_c, 0, 71, 65
1, 25829, Control_c, 0, 64, 110
1, 25829, Control_c, 0, 67, 24
1, 25835, Note_on_c, 0, 56, 50
1, 25835, Note_on_c, 0, 68, 58
1, 25843, Note_on_c, 0, 50, 47
1, 25844, Control_c, 0, 64, 102
1, 25844, Control_c, 0, 67, 24
1, 25847, Note_on_c, 0, 53, 46
1, 25859, Control_c, 0, 64, 94
1, 25881, Control_c, 0, 64, 86
1, 25896, Control_c, 0, 64, 76
1, 25896, Control_c, 0, 67, 23
1, 25910, Control_c, 0, 64, 65
1, 25925, Control_c, 0, 64, 52
1, 25925, Control_c, 0, 67, 23
1, 25940, Control_c, 0, 64, 36
1, 25955, Control_c, 0, 64, 32
1, 25955, Control_c, 0, 67, 22
1, 25970, Control_c, 0, 64, 40
1, 25970, Control_c, 0, 67, 20
1, 25985, Control_c, 0, 64, 53
1, 25985, Control_c, 0, 67, 18
1, 25999, Control_c, 0, 64, 61
1, 25999, Control_c, 0, 67, 15
1, 26014, Control_c, 0, 64, 67
1, 26014, Control_c, 0, 67, 13
1, 26029, Control_c, 0, 64, 72
1, 26029, Control_c, 0, 67, 12
1, 26044, Control_c, 0, 64, 77
1, 26044, Control_c, 0, 67, 9
1, 26059, Control_c, 0, 64, 85
1, 26059, Control_c, 0, 67, 0
1, 26074, Control_c, 0, 64, 90
1, 26089, Control_c, 0, 64, 96
1, 26104, Control_c, 0, 64, 102
1, 26120, Control_c, 0, 64, 111
1, 26133, Note_on_c, 0, 59, 62
1, 26134, Control_c, 0, 64, 127
1, 26196, Note_off_c, 0, 50, 32
1, 26202, Note_off_c, 0, 56, 42
1, 26223, Note_off_c, 0, 71, 54
1, 26236, Note_off_c, 0, 59, 52
1, 26255, Note_off_c, 0, 53, 35
1, 26289, Note_on_c, 0, 76, 76
1, 26356, Note_off_c, 0, 65, 56
1, 26380, Note_off_c, 0, 68, 60
1, 26401, Note_off_c, 0, 76, 61
1, 26491, Note_on_c, 0, 59, 51
1, 26499, Note_on_c, 0, 52, 47
1, 26500, Note_on_c, 0, 49, 44
1, 26554, Note_on_c, 0, 76, 74
1, 26564, Control_c, 0, 64, 93
1, 26569, Note_on_c, 0, 68, 61
1, 26578, Note_on_c, 0, 64, 51
1, 26578, Control_c, 0, 64, 72
1, 26593, Control_c, 0, 64, 59
1, 26608, Control_c, 0, 64, 44
1, 26631, Control_c, 0, 64, 38
1, 26646, Control_c, 0, 64, 44
1, 26660, Control_c, 0, 64, 53
1, 26675, Control_c, 0, 64, 60
1, 26690, Control_c, 0, 64, 66
1, 26705, Control_c, 0, 64, 72
1, 26720, Control_c, 0, 64, 79
1, 26734, Control_c, 0, 64, 85
1, 26749, Control_c, 0, 64, 88
1, 26764, Control_c, 0, 64, 91
1, 26770, Note_off_c, 0, 52, 0
1, 26778, Control_c, 0, 64, 96
1, 26793, Control_c, 0, 64, 100
1, 26807, Poly_aftertouch_c, 0, 52, 127
1, 26808, Control_c, 0, 64, 102
1, 26823, Control_c, 0, 64, 103
1, 26834, Note_off_c, 0, 68, 46
1, 26878, Note_off_c, 0, 59, 19
1, 26882, Control_c, 0, 64, 95
1, 26897, Control_c, 0, 64, 81
1, 26909, Note_on_c, 0, 69, 61
1, 26911, Note_off_c, 0, 64, 57
1, 26913, Control_c, 0, 64, 70
1, 26919, Note_on_c, 0, 57, 47
1, 26928, Control_c, 0, 64, 66
1, 26943, Control_c, 0, 64, 67
1, 26957, Control_c, 0, 64, 70
1, 26968, Note_off_c, 0, 57, 49
1, 26972, Control_c, 0, 64, 76
1, 26987, Control_c, 0, 64, 87
1, 27002, Control_c, 0, 64, 99
1, 27002, Control_c, 0, 67, 9
1, 27015, Poly_aftertouch_c, 0, 52, 0
1, 27016, Control_c, 0, 64, 106
1, 27016, Control_c, 0, 67, 11
1, 27028, Note_off_c, 0, 69, 63
1, 27031, Control_c, 0, 64, 110
1, 27031, Control_c, 0, 67, 11
1, 27046, Control_c, 0, 64, 115
1, 27046, Control_c, 0, 67, 12
1, 27055, Note_off_c, 0, 49, 22
1, 27061, Control_c, 0, 64, 120
1, 27076, Control_c, 0, 64, 127
1, 27076, Control_c, 0, 67, 12
1, 27090, Control_c, 0, 67, 14
1, 27105, Control_c, 0, 67, 16
1, 27120, Control_c, 0, 67, 18
1, 27135, Control_c, 0, 67, 20
1, 27150, Control_c, 0, 67, 23
1, 27165, Control_c, 0, 67, 25
1, 27180, Control_c, 0, 67, 28
1, 27195, Control_c, 0, 67, 29
1, 27209, Control_c, 0, 67, 30
1, 27269, Control_c, 0, 64, 122
1, 27283, Control_c, 0, 64, 116
1, 27298, Control_c, 0, 64, 111
1, 27312, Note_off_c, 0, 76, 56
1, 27313, Control_c, 0, 64, 106
1, 27316, Note_on_c, 0, 74, 58
1, 27328, Control_c, 0, 64, 102
1, 27328, Control_c, 0, 67, 31
1, 27339, Note_on_c, 0, 66, 51
1, 27343, Control_c, 0, 64, 96
1, 27357, Control_c, 0, 64, 90
1, 27357, Control_c, 0, 67, 31
1, 27380, Control_c, 0, 64, 79
1, 27380, Control_c, 0, 67, 32
1, 27392, Note_on_c, 0, 35, 50
1, 27395, Control_c, 0, 64, 68
1, 27395, Control_c, 0, 67, 32
1, 27409, Control_c, 0, 64, 56
1, 27409, Control_c, 0, 67, 36
1, 27424, Control_c, 0, 64, 39
1, 27424, Control_c, 0, 67, 41
1, 27439, Control_c, 0, 64, 34
1, 27439, Control_c, 0, 67, 46
1, 27454, Control_c, 0, 64, 43
1, 27454, Control_c, 0, 67, 49
1, 27469, Control_c, 0, 64, 55
1, 27469, Control_c, 0, 67, 51
1, 27483, Control_c, 0, 64, 64
1, 27483, Control_c, 0, 67, 53
1, 27498, Control_c, 0, 64, 71
1, 27498, Control_c, 0, 67, 54
1, 27513, Control_c, 0, 64, 80
1, 27513, Control_c, 0, 67, 56
1, 27526, Note_off_c, 0, 35, 49
1, 27528, Control_c, 0, 64, 89
1, 27528, Control_c, 0, 67, 59
1, 27543, Control_c, 0, 64, 95
1, 27543, Control_c, 0, 67, 61
1, 27557, Control_c, 0, 64, 100
1, 27557, Control_c, 0, 67, 61
1, 27572, Control_c, 0, 64, 107
1, 27587, Control_c, 0, 64, 119
1, 27601, Control_c, 0, 64, 127
1, 27616, Control_c, 0, 67, 62
1, 27654, Note_off_c, 0, 66, 57
1, 27661, Control_c, 0, 67, 62
1, 27675, Control_c, 0, 67, 63
1, 27690, Control_c, 0, 67, 64
1, 27706, Control_c, 0, 67, 67
1, 27713, Note_on_c, 0, 50, 50
1, 27721, Control_c, 0, 67, 72
1, 27736, Control_c, 0, 67, 77
1, 27751, Control_c, 0, 67, 81
1, 27766, Control_c, 0, 67, 84
1, 27780, Control_c, 0, 67, 88
1, 27795, Control_c, 0, 67, 90
1, 27810, Control_c, 0, 67, 91
1, 27825, Control_c, 0, 67, 92
1, 27884, Note_off_c, 0, 50, 27
1, 27958, Control_c, 0, 64, 117
1, 27973, Control_c, 0, 64, 110
1, 27988, Control_c, 0, 64, 105
1, 27988, Control_c, 0, 67, 92
1, 28003, Control_c, 0, 64, 100
1, 28018, Control_c, 0, 64, 96
1, 28018, Control_c, 0, 67, 93
1, 28032, Control_c, 0, 64, 92
1, 28032, Control_c, 0, 67, 93
1, 28032, Note_on_c, 0, 40, 45
1, 28047, Control_c, 0, 64, 88
1, 28047, Control_c, 0, 67, 94
1, 28062, Control_c, 0, 64, 83
1, 28062, Control_c, 0, 67, 97
1, 28074, Note_on_c, 0, 69, 58
1, 28077, Control_c, 0, 64, 76
1, 28092, Control_c, 0, 64, 68
1, 28095, Note_on_c, 0, 61, 36
1, 28106, Control_c, 0, 64, 58
1, 28121, Control_c, 0, 64, 39
1, 28121, Control_c, 0, 67, 98
1, 28122, Note_off_c, 0, 74, 44
1, 28143, Control_c, 0, 64, 0
1, 28165, Note_off_c, 0, 61, 0
1, 28165, Note_on_c, 0, 61, 5
1, 28173, Control_c, 0, 67, 97
1, 28187, Control_c, 0, 64, 25
1, 28202, Control_c, 0, 64, 43
1, 28217, Control_c, 0, 64, 57
1, 28232, Control_c, 0, 64, 63
1, 28232, Control_c, 0, 67, 97
1, 28247, Control_c, 0, 64, 66
1, 28262, Control_c, 0, 64, 69
1, 28262, Control_c, 0, 67, 96
1, 28277, Control_c, 0, 64, 71
1, 28277, Control_c, 0, 67, 96
1, 28292, Control_c, 0, 64, 75
1, 28306, Control_c, 0, 64, 78
1, 28321, Control_c, 0, 64, 82
1, 28336, Control_c, 0, 64, 85
1, 28350, Control_c, 0, 64, 89
1, 28350, Control_c, 0, 67, 95
1, 28365, Control_c, 0, 64, 92
1, 28380, Control_c, 0, 64, 96
1, 28395, Control_c, 0, 64, 100
1, 28406, Note_off_c, 0, 61, 41
1, 28410, Control_c, 0, 64, 104
1, 28424, Control_c, 0, 64, 106
1, 28424, Control_c, 0, 67, 96
1, 28438, Note_on_c, 0, 52, 53
1, 28439, Control_c, 0, 64, 107
1, 28443, Note_off_c, 0, 40, 30
1, 28454, Control_c, 0, 64, 107
1, 28454, Control_c, 0, 67, 96
1, 28469, Control_c, 0, 67, 97
1, 28484, Control_c, 0, 67, 97
1, 28515, Control_c, 0, 67, 98
1, 28529, Control_c, 0, 67, 98
1, 28544, Control_c, 0, 67, 99
1, 28559, Control_c, 0, 67, 99
1, 28603, Control_c, 0, 67, 101
1, 28618, Control_c, 0, 67, 103
1, 28633, Control_c, 0, 67, 103
1, 28662, Control_c, 0, 64, 107
1, 28688, Note_off_c, 0, 52, 53
1, 28707, Control_c, 0, 64, 106
1, 28736, Control_c, 0, 64, 105
1, 28751, Control_c, 0, 64, 104
1, 28766, Control_c, 0, 64, 103
1, 28781, Control_c, 0, 64, 102
1, 28796, Control_c, 0, 64, 100
1, 28809, Note_off_c, 0, 69, 42
1, 28810, Control_c, 0, 64, 99
1, 28825, Control_c, 0, 64, 96
1, 28838, Note_on_c, 0, 68, 46
1, 28840, Control_c, 0, 64, 94
1, 28855, Control_c, 0, 64, 91
1, 28870, Control_c, 0, 64, 87
1, 28871, Note_on_c, 0, 59, 30
1, 28892, Control_c, 0, 64, 81
1, 28907, Control_c, 0, 64, 76
1, 28919, Note_on_c, 0, 52, 38
1, 28922, Control_c, 0, 64, 71
1, 28936, Control_c, 0, 64, 65
1, 28951, Control_c, 0, 64, 56
1, 28951, Control_c, 0, 67, 103
1, 28966, Control_c, 0, 64, 39
1, 28980, Control_c, 0, 64, 0
1, 28980, Control_c, 0, 67, 102
1, 28995, Control_c, 0, 67, 102
1, 29010, Control_c, 0, 67, 101
1, 29025, Control_c, 0, 67, 100
1, 29040, Control_c, 0, 64, 16
1, 29040, Control_c, 0, 67, 100
1, 29055, Control_c, 0, 64, 36
1, 29055, Control_c, 0, 67, 99
1, 29070, Control_c, 0, 64, 52
1, 29070, Control_c, 0, 67, 99
1, 29084, Control_c, 0, 64, 61
1, 29084, Control_c, 0, 67, 98
1, 29099, Control_c, 0, 64, 63
1, 29099, Control_c, 0, 67, 98
1, 29114, Control_c, 0, 64, 64
1, 29128, Control_c, 0, 64, 66
1, 29132, Note_off_c, 0, 59, 42
1, 29143, Control_c, 0, 64, 68
1, 29143, Control_c, 0, 67, 97
1, 29158, Control_c, 0, 64, 70
1, 29173, Control_c, 0, 64, 72
1, 29173, Control_c, 0, 67, 97
1, 29187, Control_c, 0, 64, 75
1, 29202, Control_c, 0, 64, 77
1, 29217, Control_c, 0, 64, 79
1, 29232, Control_c, 0, 64, 81
1, 29243, Note_on_c, 0, 54, 42
1, 29247, Control_c, 0, 64, 83
1, 29261, Control_c, 0, 64, 86
1, 29276, Note_off_c, 0, 68, 54
1, 29276, Control_c, 0, 64, 88
1, 29291, Control_c, 0, 64, 91
1, 29307, Control_c, 0, 64, 93
1, 29307, Control_c, 0, 67, 96
1, 29322, Control_c, 0, 64, 95
1, 29337, Control_c, 0, 64, 97
1, 29351, Control_c, 0, 64, 98
1, 29366, Control_c, 0, 64, 99
1, 29381, Control_c, 0, 64, 99
1, 29395, Note_off_c, 0, 52, 28
1, 29395, Control_c, 0, 64, 100
1, 29395, Control_c, 0, 67, 96
1, 29537, Note_off_c, 0, 54, 0
1, 29579, Poly_aftertouch_c, 0, 54, 0
1, 29670, Control_c, 0, 64, 99
1, 29699, Control_c, 0, 64, 98
1, 29714, Control_c, 0, 64, 98
1, 29729, Control_c, 0, 64, 97
1, 29729, Control_c, 0, 67, 95
1, 29744, Control_c, 0, 64, 96
1, 29758, Control_c, 0, 64, 95
1, 29773, Control_c, 0, 64, 94
1, 29788, Control_c, 0, 64, 93
1, 29788, Control_c, 0, 67, 95
1, 29803, Control_c, 0, 64, 91
1, 29818, Control_c, 0, 64, 89
1, 29827, Note_on_c, 0, 73, 45
1, 29833, Control_c, 0, 64, 86
1, 29848, Control_c, 0, 64, 82
1, 29852, Note_on_c, 0, 64, 40
1, 29863, Control_c, 0, 64, 79
1, 29866, Note_on_c, 0, 55, 31
1, 29872, Note_on_c, 0, 52, 37
1, 29878, Control_c, 0, 64, 75
1, 29893, Control_c, 0, 64, 71
1, 29893, Control_c, 0, 67, 94
1, 29907, Control_c, 0, 64, 67
1, 29922, Control_c, 0, 64, 62
1, 29937, Control_c, 0, 64, 54
1, 29952, Control_c, 0, 64, 42
1, 29967, Control_c, 0, 64, 25
1, 29982, Control_c, 0, 64, 0
1, 29982, Control_c, 0, 67, 94
1, 29997, Control_c, 0, 67, 93
1, 30011, Control_c, 0, 67, 93
1, 30026, Control_c, 0, 64, 23
1, 30041, Control_c, 0, 64, 39
1, 30041, Control_c, 0, 67, 92
1, 30056, Control_c, 0, 64, 52
1, 30056, Control_c, 0, 67, 92
1, 30071, Control_c, 0, 64, 60
1, 30071, Control_c, 0, 67, 91
1, 30085, Control_c, 0, 64, 63
1, 30085, Control_c, 0, 67, 90
1, 30101, Control_c, 0, 64, 65
1, 30101, Control_c, 0, 67, 89
1, 30116, Control_c, 0, 64, 67
1, 30116, Control_c, 0, 67, 88
1, 30131, Control_c, 0, 64, 69
1, 30131, Control_c, 0, 67, 87
1, 30146, Control_c, 0, 64, 72
1, 30146, Control_c, 0, 67, 84
1, 30161, Control_c, 0, 64, 75
1, 30161, Control_c, 0, 67, 83
1, 30175, Control_c, 0, 64, 78
1, 30175, Control_c, 0, 67, 82
1, 30190, Control_c, 0, 64, 80
1, 30190, Control_c, 0, 67, 81
1, 30196, Note_off_c, 0, 55, 37
1, 30205, Control_c, 0, 64, 82
1, 30205, Control_c, 0, 67, 80
1, 30219, Control_c, 0, 64, 84
1, 30219, Control_c, 0, 67, 79
1, 30222, Note_on_c, 0, 71, 53
1, 30234, Control_c, 0, 64, 87
1, 30249, Control_c, 0, 64, 89
1, 30264, Control_c, 0, 64, 91
1, 30279, Control_c, 0, 64, 92
1, 30279, Control_c, 0, 67, 79
1, 30283, Note_off_c, 0, 64, 34
1, 30292, Note_off_c, 0, 52, 38
1, 30293, Control_c, 0, 64, 94
1, 30308, Control_c, 0, 64, 96
1, 30321, Note_off_c, 0, 73, 0
1, 30323, Control_c, 0, 64, 97
1, 30338, Control_c, 0, 64, 98
1, 30353, Control_c, 0, 64, 99
1, 30358, Poly_aftertouch_c, 0, 73, 127
1, 30375, Control_c, 0, 64, 100
1, 30390, Control_c, 0, 64, 101
1, 30405, Control_c, 0, 64, 101
1, 30464, Control_c, 0, 64, 102
1, 30584, Note_off_c, 0, 71, 28
1, 30612, Control_c, 0, 64, 101
1, 30641, Control_c, 0, 64, 99
1, 30646, Note_on_c, 0, 74, 58
1, 30656, Control_c, 0, 64, 96
1, 30666, Note_on_c, 0, 69, 44
1, 30671, Control_c, 0, 64, 93
1, 30686, Control_c, 0, 64, 90
1, 30692, Poly_aftertouch_c, 0, 73, 0
1, 30700, Control_c, 0, 64, 84
1, 30715, Control_c, 0, 64, 79
1, 30715, Control_c, 0, 67, 78
1, 30730, Control_c, 0, 64, 71
1, 30741, Note_on_c, 0, 42, 34
1, 30745, Control_c, 0, 64, 63
1, 30745, Control_c, 0, 67, 78
1, 30760, Control_c, 0, 64, 50
1, 30775, Control_c, 0, 64, 33
1, 30775, Control_c, 0, 67, 77
1, 30790, Control_c, 0, 64, 21
1, 30790, Control_c, 0, 67, 75
1, 30805, Control_c, 0, 64, 24
1, 30805, Control_c, 0, 67, 71
1, 30820, Control_c, 0, 64, 36
1, 30820, Control_c, 0, 67, 67
1, 30834, Control_c, 0, 64, 48
1, 30834, Control_c, 0, 67, 65
1, 30849, Control_c, 0, 64, 58
1, 30849, Control_c, 0, 67, 63
1, 30864, Control_c, 0, 64, 64
1, 30864, Control_c, 0, 67, 62
1, 30879, Control_c, 0, 64, 67
1, 30879, Control_c, 0, 67, 62
1, 30894, Control_c, 0, 64, 70
1, 30894, Control_c, 0, 67, 61
1, 30909, Control_c, 0, 64, 75
1, 30909, Control_c, 0, 67, 61
1, 30924, Control_c, 0, 64, 78
1, 30939, Control_c, 0, 64, 82
1, 30939, Control_c, 0, 67, 59
1, 30954, Control_c, 0, 64, 85
1, 30954, Control_c, 0, 67, 55
1, 30969, Control_c, 0, 64, 88
1, 30969, Control_c, 0, 67, 51
1, 30984, Control_c, 0, 64, 91
1, 30984, Control_c, 0, 67, 47
1, 30993, Note_off_c, 0, 42, 40
1, 30998, Control_c, 0, 64, 96
1, 30998, Control_c, 0, 67, 44
1, 31013, Control_c, 0, 64, 101
1, 31013, Control_c, 0, 67, 41
1, 31028, Control_c, 0, 64, 105
1, 31028, Control_c, 0, 67, 39
1, 31042, Control_c, 0, 64, 111
1, 31042, Control_c, 0, 67, 38
1, 31051, Note_on_c, 0, 62, 42
1, 31057, Control_c, 0, 64, 117
1, 31057, Control_c, 0, 67, 38
1, 31072, Control_c, 0, 64, 124
1, 31087, Control_c, 0, 64, 127
1, 31087, Control_c, 0, 67, 37
1, 31132, Note_off_c, 0, 69, 39
1, 31213, Control_c, 0, 67, 37
1, 31320, Note_off_c, 0, 62, 33
1, 31368, Note_on_c, 0, 57, 41
1, 31676, Note_off_c, 0, 57, 24
1, 31692, Note_on_c, 0, 54, 40
1, 31742, Note_off_c, 0, 54, 57
1, 32066, Note_on_c, 0, 73, 61
1, 32090, Note_on_c, 0, 64, 42
1, 32101, Note_on_c, 0, 69, 45
1, 32154, Control_c, 0, 64, 124
1, 32169, Control_c, 0, 64, 115
1, 32182, Note_on_c, 0, 40, 54
1, 32184, Control_c, 0, 64, 109
1, 32198, Control_c, 0, 64, 105
1, 32213, Control_c, 0, 64, 98
1, 32228, Control_c, 0, 64, 93
1, 32243, Control_c, 0, 64, 87
1, 32258, Control_c, 0, 64, 79
1, 32272, Control_c, 0, 64, 71
1, 32287, Control_c, 0, 64, 63
1, 32302, Control_c, 0, 64, 51
1, 32317, Control_c, 0, 64, 41
1, 32332, Control_c, 0, 64, 41
1, 32332, Control_c, 0, 67, 36
1, 32346, Control_c, 0, 64, 46
1, 32346, Control_c, 0, 67, 35
1, 32361, Control_c, 0, 64, 55
1, 32361, Control_c, 0, 67, 31
1, 32376, Control_c, 0, 64, 63
1, 32376, Control_c, 0, 67, 26
1, 32387, Note_off_c, 0, 74, 32
1, 32391, Control_c, 0, 64, 68
1, 32391, Control_c, 0, 67, 22
1, 32405, Control_c, 0, 64, 76
1, 32405, Control_c, 0, 67, 18
1, 32420, Control_c, 0, 64, 84
1, 32420, Control_c, 0, 67, 15
1, 32426, Note_on_c, 0, 71, 74
1, 32435, Control_c, 0, 64, 92
1, 32435, Control_c, 0, 67, 10
1, 32450, Control_c, 0, 64, 100
1, 32450, Control_c, 0, 67, 0
1, 32465, Note_off_c, 0, 64, 59
1, 32465, Control_c, 0, 64, 112
1, 32480, Control_c, 0, 64, 127
1, 32503, Note_off_c, 0, 69, 43
1, 32557, Note_off_c, 0, 71, 63
1, 32605, Note_off_c, 0, 73, 34
1, 32789, Note_on_c, 0, 39, 55
1, 32847, Note_off_c, 0, 40, 52
1, 32886, Note_on_c, 0, 81, 76
1, 32898, Note_on_c, 0, 78, 61
1, 32906, Note_on_c, 0, 71, 55
1, 32908, Note_on_c, 0, 69, 62
1, 32917, Control_c, 0, 64, 100
1, 32932, Control_c, 0, 64, 86
1, 32947, Control_c, 0, 64, 71
1, 32962, Control_c, 0, 64, 59
1, 32976, Control_c, 0, 64, 39
1, 32991, Control_c, 0, 64, 17
1, 33006, Control_c, 0, 64, 18
1, 33020, Control_c, 0, 64, 36
1, 33035, Control_c, 0, 64, 50
1, 33050, Control_c, 0, 64, 60
1, 33065, Control_c, 0, 64, 67
1, 33080, Control_c, 0, 64, 73
1, 33094, Control_c, 0, 64, 82
1, 33109, Control_c, 0, 64, 95
1, 33124, Control_c, 0, 64, 111
1, 33139, Control_c, 0, 64, 127
1, 33241, Note_off_c, 0, 39, 58
1, 33269, Note_on_c, 0, 47, 52
1, 33347, Note_off_c, 0, 47, 63
1, 33434, Note_off_c, 0, 81, 55
1, 33466, Note_off_c, 0, 71, 31
1, 33482, Note_off_c, 0, 69, 39
1, 33494, Note_off_c, 0, 78, 29
1, 33608, Note_on_c, 0, 54, 54
1, 33610, Note_on_c, 0, 51, 50
1, 33921, Note_on_c, 0, 59, 53
1, 33935, Note_off_c, 0, 54, 34
1, 33946, Note_off_c, 0, 51, 31
1, 34006, Note_off_c, 0, 59, 61
1, 34259, Note_on_c, 0, 73, 67
1, 34268, Note_on_c, 0, 68, 63
1, 34295, Note_on_c, 0, 47, 46
1, 34301, Note_on_c, 0, 45, 49
1, 34312, Control_c, 0, 64, 98
1, 34326, Control_c, 0, 64, 75
1, 34341, Control_c, 0, 64, 61
1, 34355, Control_c, 0, 64, 44
1, 34370, Control_c, 0, 64, 32
1, 34385, Control_c, 0, 64, 34
1, 34400, Control_c, 0, 64, 43
1, 34415, Control_c, 0, 64, 54
1, 34429, Control_c, 0, 64, 64
1, 34444, Control_c, 0, 64, 70
1, 34459, Control_c, 0, 64, 78
1, 34474, Control_c, 0, 64, 88
1, 34489, Control_c, 0, 64, 97
1, 34504, Control_c, 0, 64, 108
1, 34519, Control_c, 0, 64, 127
1, 34537, Note_off_c, 0, 68, 54
1, 34593, Note_on_c, 0, 57, 52
1, 34654, Note_off_c, 0, 45, 63
1, 34656, Note_off_c, 0, 57, 61
1, 34719, Note_off_c, 0, 47, 0
1, 34741, Note_on_c, 0, 75, 71
1, 34754, Note_on_c, 0, 66, 64
1, 34759, Poly_aftertouch_c, 0, 47, 0
1, 34760, Note_on_c, 0, 71, 59
1, 34811, Note_off_c, 0, 73, 23
1, 34836, Note_off_c, 0, 66, 54
1, 34853, Note_off_c, 0, 75, 62
1, 34859, Note_off_c, 0, 71, 57
1, 34949, Note_on_c, 0, 75, 77
1, 34962, Note_on_c, 0, 66, 72
1, 34965, Note_on_c, 0, 71, 62
1, 34971, Control_c, 0, 64, 111
1, 34978, Note_on_c, 0, 44, 54
1, 34983, Note_on_c, 0, 47, 47
1, 34986, Control_c, 0, 64, 81
1, 35001, Control_c, 0, 64, 65
1, 35015, Control_c, 0, 64, 50
1, 35030, Control_c, 0, 64, 41
1, 35045, Control_c, 0, 64, 47
1, 35060, Control_c, 0, 64, 56
1, 35074, Control_c, 0, 64, 64
1, 35088, Control_c, 0, 64, 71
1, 35103, Control_c, 0, 64, 82
1, 35118, Control_c, 0, 64, 97
1, 35133, Control_c, 0, 64, 115
1, 35148, Control_c, 0, 64, 127
1, 35197, Note_off_c, 0, 66, 62
1, 35301, Note_on_c, 0, 56, 51
1, 35327, Note_off_c, 0, 71, 22
1, 35362, Note_off_c, 0, 44, 39
1, 35399, Note_off_c, 0, 56, 53
1, 35414, Note_off_c, 0, 47, 42
1, 35418, Note_off_c, 0, 75, 37
1, 35449, Note_on_c, 0, 76, 77
1, 35466, Note_on_c, 0, 64, 64
1, 35470, Note_on_c, 0, 72, 58
1, 35529, Note_off_c, 0, 72, 50
1, 35544, Note_off_c, 0, 64, 55
1, 35557, Note_off_c, 0, 76, 58
1, 35699, Note_on_c, 0, 76, 72
1, 35711, Note_on_c, 0, 72, 67
1, 35712, Note_on_c, 0, 64, 54
1, 35719, Control_c, 0, 64, 111
1, 35734, Control_c, 0, 64, 102
1, 35738, Note_on_c, 0, 45, 49
1, 35748, Note_on_c, 0, 54, 55
1, 35749, Control_c, 0, 64, 96
1, 35764, Control_c, 0, 64, 91
1, 35779, Control_c, 0, 64, 87
1, 35793, Control_c, 0, 64, 83
1, 35808, Control_c, 0, 64, 79
1, 35823, Control_c, 0, 64, 77
1, 35837, Control_c, 0, 64, 74
1, 35852, Control_c, 0, 64, 72
1, 35867, Control_c, 0, 64, 70
1, 35882, Control_c, 0, 64, 68
1, 35897, Control_c, 0, 64, 67
1, 35911, Control_c, 0, 64, 65
1, 35926, Control_c, 0, 64, 64
1, 35941, Control_c, 0, 64, 62
1, 35956, Control_c, 0, 64, 61
1, 35971, Control_c, 0, 64, 58
1, 35985, Control_c, 0, 64, 54
1, 36000, Control_c, 0, 64, 49
1, 36015, Control_c, 0, 64, 39
1, 36030, Control_c, 0, 64, 0
1, 36119, Control_c, 0, 64, 9
1, 36134, Control_c, 0, 64, 24
1, 36149, Control_c, 0, 64, 27
1, 36163, Control_c, 0, 64, 31
1, 36178, Control_c, 0, 64, 39
1, 36192, Note_on_c, 0, 73, 59
1, 36193, Control_c, 0, 64, 49
1, 36208, Control_c, 0, 64, 57
1, 36215, Note_on_c, 0, 57, 39
1, 36223, Control_c, 0, 64, 63
1, 36237, Control_c, 0, 64, 66
1, 36244, Note_off_c, 0, 54, 61
1, 36248, Note_off_c, 0, 76, 58
1, 36252, Note_off_c, 0, 72, 58
1, 36252, Control_c, 0, 64, 70
1, 36267, Control_c, 0, 64, 75
1, 36282, Control_c, 0, 64, 81
1, 36282, Control_c, 0, 67, 9
1, 36292, Note_off_c, 0, 57, 61
1, 36297, Control_c, 0, 64, 88
1, 36297, Control_c, 0, 67, 12
1, 36311, Control_c, 0, 64, 95
1, 36311, Control_c, 0, 67, 16
1, 36326, Control_c, 0, 64, 104
1, 36326, Control_c, 0, 67, 19
1, 36341, Control_c, 0, 64, 112
1, 36341, Control_c, 0, 67, 23
1, 36346, Note_off_c, 0, 73, 61
1, 36353, Note_off_c, 0, 64, 35
1, 36356, Control_c, 0, 64, 127
1, 36356, Control_c, 0, 67, 27
1, 36378, Control_c, 0, 67, 29
1, 36393, Control_c, 0, 67, 30
1, 36423, Control_c, 0, 67, 29
1, 36572, Control_c, 0, 67, 30
1, 36587, Control_c, 0, 64, 117
1, 36601, Control_c, 0, 64, 110
1, 36609, Note_on_c, 0, 47, 44
1, 36616, Control_c, 0, 64, 106
1, 36631, Control_c, 0, 64, 102
1, 36646, Control_c, 0, 64, 98
1, 36646, Control_c, 0, 67, 30
1, 36660, Control_c, 0, 64, 94
1, 36675, Control_c, 0, 64, 90
1, 36680, Note_on_c, 0, 63, 54
1, 36690, Control_c, 0, 64, 87
1, 36695, Note_on_c, 0, 57, 46
1, 36705, Control_c, 0, 64, 84
1, 36720, Control_c, 0, 64, 81
1, 36734, Control_c, 0, 64, 77
1, 36742, Note_off_c, 0, 45, 33
1, 36749, Control_c, 0, 64, 74
1, 36764, Control_c, 0, 64, 72
1, 36779, Control_c, 0, 64, 71
1, 36793, Control_c, 0, 64, 69
1, 36808, Control_c, 0, 64, 68
1, 36808, Control_c, 0, 67, 31
1, 36823, Control_c, 0, 64, 66
1, 36838, Control_c, 0, 64, 64
1, 36853, Control_c, 0, 64, 62
1, 36853, Control_c, 0, 67, 31
1, 36868, Control_c, 0, 64, 62
1, 36927, Control_c, 0, 64, 61
1, 36957, Control_c, 0, 64, 60
1, 36972, Control_c, 0, 64, 59
1, 36986, Control_c, 0, 64, 58
1, 37001, Control_c, 0, 64, 57
1, 37016, Control_c, 0, 64, 56
1, 37031, Control_c, 0, 64, 53
1, 37046, Control_c, 0, 64, 49
1, 37060, Control_c, 0, 64, 41
1, 37075, Control_c, 0, 64, 30
1, 37090, Control_c, 0, 64, 21
1, 37105, Control_c, 0, 64, 20
1, 37124, Note_on_c, 0, 69, 55
1, 37127, Control_c, 0, 64, 25
1, 37134, Note_on_c, 0, 54, 39
1, 37142, Control_c, 0, 64, 39
1, 37157, Control_c, 0, 64, 52
1, 37172, Control_c, 0, 64, 60
1, 37187, Control_c, 0, 64, 64
1, 37201, Control_c, 0, 64, 67
1, 37216, Control_c, 0, 64, 70
1, 37216, Control_c, 0, 67, 32
1, 37231, Control_c, 0, 64, 75
1, 37246, Control_c, 0, 64, 79
1, 37261, Control_c, 0, 64, 84
1, 37261, Control_c, 0, 67, 32
1, 37275, Control_c, 0, 64, 88
1, 37275, Control_c, 0, 67, 34
1, 37282, Note_off_c, 0, 47, 27
1, 37291, Control_c, 0, 64, 91
1, 37291, Control_c, 0, 67, 38
1, 37306, Control_c, 0, 64, 96
1, 37306, Control_c, 0, 67, 42
1, 37312, Note_off_c, 0, 54, 44
1, 37321, Control_c, 0, 64, 102
1, 37321, Control_c, 0, 67, 44
1, 37336, Control_c, 0, 64, 108
1, 37336, Control_c, 0, 67, 46
1, 37339, Note_off_c, 0, 57, 31
1, 37351, Control_c, 0, 64, 111
1, 37351, Control_c, 0, 67, 48
1, 37366, Control_c, 0, 64, 113
1, 37366, Control_c, 0, 67, 50
1, 37381, Control_c, 0, 64, 115
1, 37381, Control_c, 0, 67, 51
1, 37395, Control_c, 0, 64, 115
1, 37408, Note_off_c, 0, 69, 34
1, 37410, Control_c, 0, 64, 116
1, 37416, Note_off_c, 0, 63, 35
1, 37425, Control_c, 0, 67, 51
1, 37440, Control_c, 0, 67, 50
1, 37544, Control_c, 0, 67, 51
1, 37559, Control_c, 0, 64, 115
1, 37573, Control_c, 0, 64, 113
1, 37573, Control_c, 0, 67, 51
1, 37588, Control_c, 0, 64, 110
1, 37603, Control_c, 0, 64, 109
1, 37617, Control_c, 0, 64, 106
1, 37617, Control_c, 0, 67, 52
1, 37632, Control_c, 0, 64, 104
1, 37647, Control_c, 0, 64, 101
1, 37662, Control_c, 0, 64, 99
1, 37677, Control_c, 0, 64, 96
1, 37677, Control_c, 0, 67, 52
1, 37691, Control_c, 0, 64, 93
1, 37691, Control_c, 0, 67, 53
1, 37706, Control_c, 0, 64, 91
1, 37707, Note_on_c, 0, 69, 52
1, 37718, Note_on_c, 0, 63, 44
1, 37721, Control_c, 0, 64, 88
1, 37723, Note_on_c, 0, 57, 41
1, 37736, Control_c, 0, 64, 86
1, 37736, Control_c, 0, 67, 55
1, 37745, Note_on_c, 0, 40, 40
1, 37751, Control_c, 0, 64, 83
1, 37751, Control_c, 0, 67, 58
1, 37765, Control_c, 0, 64, 80
1, 37765, Control_c, 0, 67, 61
1, 37780, Control_c, 0, 64, 77
1, 37780, Control_c, 0, 67, 63
1, 37795, Control_c, 0, 64, 74
1, 37795, Control_c, 0, 67, 65
1, 37810, Control_c, 0, 64, 70
1, 37810, Control_c, 0, 67, 66
1, 37825, Control_c, 0, 64, 65
1, 37840, Control_c, 0, 64, 59
1, 37840, Control_c, 0, 67, 66
1, 37862, Control_c, 0, 64, 50
1, 37862, Control_c, 0, 67, 65
1, 37877, Control_c, 0, 64, 37
1, 37877, Control_c, 0, 67, 65
1, 37891, Control_c, 0, 64, 21
1, 37891, Control_c, 0, 67, 64
1, 37906, Control_c, 0, 64, 17
1, 37906, Control_c, 0, 67, 63
1, 37921, Control_c, 0, 64, 23
1, 37921, Control_c, 0, 67, 62
1, 37935, Control_c, 0, 64, 36
1, 37935, Control_c, 0, 67, 62
1, 37950, Control_c, 0, 64, 51
1, 37965, Control_c, 0, 64, 60
1, 37980, Control_c, 0, 64, 65
1, 37995, Control_c, 0, 64, 68
1, 38010, Control_c, 0, 64, 71
1, 38010, Control_c, 0, 67, 62
1, 38024, Control_c, 0, 64, 75
1, 38024, Control_c, 0, 67, 63
1, 38039, Control_c, 0, 64, 79
1, 38039, Control_c, 0, 67, 63
1, 38054, Control_c, 0, 64, 83
1, 38054, Control_c, 0, 67, 64
1, 38069, Control_c, 0, 64, 87
1, 38084, Control_c, 0, 64, 90
1, 38084, Control_c, 0, 67, 64
1, 38100, Control_c, 0, 64, 93
1, 38100, Control_c, 0, 67, 65
1, 38114, Control_c, 0, 64, 95
1, 38114, Control_c, 0, 67, 66
1, 38129, Control_c, 0, 64, 96
1, 38129, Control_c, 0, 67, 66
1, 38144, Control_c, 0, 64, 97
1, 38144, Control_c, 0, 67, 67
1, 38159, Control_c, 0, 64, 99
1, 38159, Control_c, 0, 67, 67
1, 38174, Control_c, 0, 64, 99
1, 38174, Control_c, 0, 67, 68
1, 38183, Note_off_c, 0, 69, 62
1, 38188, Control_c, 0, 64, 100
1, 38188, Control_c, 0, 67, 69
1, 38203, Control_c, 0, 67, 73
1, 38209, Note_off_c, 0, 57, 56
1, 38218, Control_c, 0, 64, 100
1, 38218, Control_c, 0, 67, 77
1, 38233, Control_c, 0, 64, 101
1, 38233, Control_c, 0, 67, 78
1, 38248, Control_c, 0, 64, 101
1, 38248, Control_c, 0, 67, 79
1, 38258, Note_on_c, 0, 47, 37
1, 38278, Control_c, 0, 64, 102
1, 38382, Control_c, 0, 67, 79
1, 38426, Control_c, 0, 67, 80
1, 38440, Control_c, 0, 67, 80
1, 38455, Control_c, 0, 67, 81
1, 38470, Control_c, 0, 67, 85
1, 38485, Control_c, 0, 67, 88
1, 38500, Control_c, 0, 67, 90
1, 38514, Control_c, 0, 67, 91
1, 38529, Control_c, 0, 67, 92
1, 38544, Control_c, 0, 64, 101
1, 38544, Control_c, 0, 67, 93
1, 38558, Control_c, 0, 64, 100
1, 38558, Control_c, 0, 67, 93
1, 38573, Control_c, 0, 64, 99
1, 38588, Control_c, 0, 64, 98
1, 38611, Control_c, 0, 64, 97
1, 38626, Control_c, 0, 64, 96
1, 38640, Control_c, 0, 64, 95
1, 38655, Control_c, 0, 64, 94
1, 38670, Control_c, 0, 64, 93
1, 38685, Control_c, 0, 64, 92
1, 38700, Control_c, 0, 64, 90
1, 38714, Control_c, 0, 64, 87
1, 38729, Control_c, 0, 64, 84
1, 38733, Note_on_c, 0, 68, 42
1, 38744, Control_c, 0, 64, 79
1, 38746, Note_on_c, 0, 64, 35
1, 38747, Note_on_c, 0, 56, 31
1, 38759, Control_c, 0, 64, 74
1, 38759, Control_c, 0, 67, 94
1, 38766, Note_on_c, 0, 52, 34
1, 38773, Control_c, 0, 64, 69
1, 38773, Control_c, 0, 67, 94
1, 38788, Control_c, 0, 64, 64
1, 38803, Control_c, 0, 64, 59
1, 38803, Control_c, 0, 67, 95
1, 38818, Control_c, 0, 64, 52
1, 38818, Control_c, 0, 67, 95
1, 38832, Control_c, 0, 64, 43
1, 38832, Control_c, 0, 67, 98
1, 38847, Control_c, 0, 64, 26
1, 38847, Control_c, 0, 67, 99
1, 38862, Control_c, 0, 64, 0
1, 38862, Control_c, 0, 67, 100
1, 38893, Control_c, 0, 67, 100
1, 38899, Note_off_c, 0, 47, 31
1, 38937, Control_c, 0, 67, 100
1, 38952, Control_c, 0, 67, 99
1, 38961, Note_off_c, 0, 63, 41
1, 38967, Control_c, 0, 64, 8
1, 38967, Control_c, 0, 67, 98
1, 38982, Control_c, 0, 64, 32
1, 38982, Control_c, 0, 67, 98
1, 38996, Control_c, 0, 64, 45
1, 39011, Control_c, 0, 64, 53
1, 39011, Control_c, 0, 67, 97
1, 39026, Control_c, 0, 64, 57
1, 39026, Control_c, 0, 67, 97
1, 39041, Control_c, 0, 64, 59
1, 39056, Control_c, 0, 64, 61
1, 39056, Control_c, 0, 67, 96
1, 39071, Control_c, 0, 64, 63
1, 39086, Control_c, 0, 64, 64
1, 39086, Control_c, 0, 67, 96
1, 39101, Control_c, 0, 64, 66
1, 39115, Control_c, 0, 64, 67
1, 39130, Control_c, 0, 64, 69
1, 39145, Control_c, 0, 64, 71
1, 39160, Control_c, 0, 64, 74
1, 39175, Control_c, 0, 64, 76
1, 39175, Control_c, 0, 67, 95
1, 39189, Control_c, 0, 64, 78
1, 39204, Control_c, 0, 64, 81
1, 39209, Note_off_c, 0, 64, 41
1, 39213, Note_on_c, 0, 47, 34
1, 39219, Control_c, 0, 64, 84
1, 39234, Control_c, 0, 64, 86
1, 39249, Control_c, 0, 64, 89
1, 39263, Control_c, 0, 64, 91
1, 39278, Control_c, 0, 64, 94
1, 39286, Note_off_c, 0, 68, 49
1, 39293, Control_c, 0, 64, 96
1, 39308, Control_c, 0, 64, 97
1, 39318, Note_off_c, 0, 52, 35
1, 39323, Control_c, 0, 64, 98
1, 39337, Control_c, 0, 64, 99
1, 39337, Control_c, 0, 67, 95
1, 39352, Control_c, 0, 64, 99
1, 39404, Control_c, 0, 64, 100
1, 39428, Note_off_c, 0, 56, 35
1, 39435, Note_off_c, 0, 40, 33
1, 39478, Control_c, 0, 67, 95
1, 39537, Control_c, 0, 67, 96
1, 39543, Note_off_c, 0, 47, 35
1, 39580, Control_c, 0, 64, 99
1, 39580, Control_c, 0, 67, 96
1, 39595, Control_c, 0, 67, 97
1, 39625, Control_c, 0, 67, 97
1, 39640, Control_c, 0, 67, 98
1, 39655, Control_c, 0, 67, 98
1, 39670, Control_c, 0, 64, 99
1, 39670, Control_c, 0, 67, 99
1, 39685, Control_c, 0, 64, 98
1, 39685, Control_c, 0, 67, 100
1, 39700, Control_c, 0, 64, 97
1, 39700, Control_c, 0, 67, 100
1, 39715, Control_c, 0, 64, 97
1, 39730, Control_c, 0, 64, 96
1, 39730, Control_c, 0, 67, 101
1, 39745, Control_c, 0, 64, 95
1, 39745, Control_c, 0, 67, 101
1, 39759, Control_c, 0, 64, 93
1, 39759, Control_c, 0, 67, 102
1, 39774, Control_c, 0, 64, 92
1, 39774, Control_c, 0, 67, 104
1, 39789, Control_c, 0, 64, 92
1, 39789, Control_c, 0, 67, 105
1, 39804, Control_c, 0, 64, 91
1, 39804, Control_c, 0, 67, 106
1, 39819, Control_c, 0, 64, 89
1, 39834, Control_c, 0, 64, 88
1, 39849, Control_c, 0, 64, 87
1, 39849, Control_c, 0, 67, 105
1, 39864, Control_c, 0, 64, 87
1, 39864, Control_c, 0, 67, 105
1, 39876, Note_on_c, 0, 64, 45
1, 39879, Control_c, 0, 64, 86
1, 39879, Control_c, 0, 67, 104
1, 39893, Control_c, 0, 64, 85
1, 39893, Control_c, 0, 67, 104
1, 39905, Note_on_c, 0, 55, 34
1, 39908, Control_c, 0, 64, 84
1, 39908, Control_c, 0, 67, 103
1, 39910, Note_on_c, 0, 60, 31
1, 39923, Control_c, 0, 64, 82
1, 39923, Control_c, 0, 67, 103
1, 39938, Control_c, 0, 64, 80
1, 39953, Control_c, 0, 64, 77
1, 39953, Control_c, 0, 67, 102
1, 39958, Note_on_c, 0, 40, 39
1, 39967, Control_c, 0, 64, 76
1, 39982, Control_c, 0, 64, 74
1, 39982, Control_c, 0, 67, 102
1, 39997, Control_c, 0, 64, 73
1, 39997, Control_c, 0, 67, 101
1, 40011, Control_c, 0, 64, 72
1, 40026, Control_c, 0, 64, 70
1, 40041, Control_c, 0, 64, 68
1, 40056, Control_c, 0, 64, 66
1, 40056, Control_c, 0, 67, 101
1, 40071, Control_c, 0, 64, 65
1, 40085, Control_c, 0, 64, 64
1, 40100, Control_c, 0, 64, 64
1, 40123, Control_c, 0, 64, 63
1, 40138, Control_c, 0, 64, 63
1, 40153, Control_c, 0, 64, 62
1, 40167, Control_c, 0, 64, 62
1, 40182, Control_c, 0, 64, 61
1, 40197, Control_c, 0, 64, 61
1, 40211, Control_c, 0, 64, 60
1, 40226, Control_c, 0, 64, 60
1, 40256, Control_c, 0, 64, 59
1, 40271, Control_c, 0, 64, 59
1, 40271, Control_c, 0, 67, 100
1, 40300, Control_c, 0, 64, 58
1, 40323, Note_on_c, 0, 43, 46
1, 40331, Control_c, 0, 64, 58
1, 40360, Control_c, 0, 64, 57
1, 40390, Control_c, 0, 64, 57
1, 40390, Control_c, 0, 67, 100
1, 40419, Control_c, 0, 64, 56
1, 40479, Control_c, 0, 64, 56
1, 40479, Control_c, 0, 67, 99
1, 40524, Control_c, 0, 67, 99
1, 40539, Control_c, 0, 64, 55
1, 40569, Control_c, 0, 67, 98
1, 40642, Control_c, 0, 67, 98
1, 40674, Note_on_c, 0, 66, 54
1, 40687, Control_c, 0, 64, 55
1, 40716, Control_c, 0, 67, 97
1, 40766, Note_on_c, 0, 48, 38
1, 40821, Control_c, 0, 67, 97
1, 40850, Note_off_c, 0, 64, 54
1, 40887, Control_c, 0, 67, 96
1, 40901, Note_off_c, 0, 43, 38
1, 40931, Control_c, 0, 64, 54
1, 40931, Control_c, 0, 67, 96
1, 40961, Control_c, 0, 67, 95
1, 41065, Control_c, 0, 67, 95
1, 41065, Note_on_c, 0, 52, 37
1, 41131, Note_off_c, 0, 48, 40
1, 41198, Control_c, 0, 64, 55
1, 41213, Control_c, 0, 67, 94
1, 41303, Control_c, 0, 64, 55
1, 41356, Note_on_c, 0, 64, 42
1, 41377, Note_on_c, 0, 48, 38
1, 41377, Control_c, 0, 67, 94
1, 41405, Note_off_c, 0, 52, 37
1, 41524, Control_c, 0, 67, 93
1, 41539, Control_c, 0, 64, 56
1, 41554, Control_c, 0, 64, 57
1, 41569, Control_c, 0, 64, 58
1, 41569, Control_c, 0, 67, 93
1, 41575, Note_off_c, 0, 66, 38
1, 41584, Control_c, 0, 64, 60
1, 41606, Control_c, 0, 64, 61
1, 41621, Control_c, 0, 64, 62
1, 41636, Control_c, 0, 64, 63
1, 41636, Control_c, 0, 67, 92
1, 41651, Control_c, 0, 64, 64
1, 41665, Control_c, 0, 64, 66
1, 41674, Note_on_c, 0, 43, 37
1, 41680, Control_c, 0, 64, 67
1, 41695, Control_c, 0, 64, 69
1, 41695, Control_c, 0, 67, 92
1, 41697, Note_off_c, 0, 55, 37
1, 41710, Control_c, 0, 64, 71
1, 41725, Control_c, 0, 64, 73
1, 41725, Control_c, 0, 67, 91
1, 41731, Note_off_c, 0, 48, 36
1, 41736, Note_off_c, 0, 40, 37
1, 41739, Control_c, 0, 64, 75
1, 41744, Note_off_c, 0, 60, 34
1, 41754, Control_c, 0, 64, 77
1, 41754, Control_c, 0, 67, 91
1, 41769, Control_c, 0, 64, 80
1, 41783, Control_c, 0, 64, 82
1, 41783, Control_c, 0, 67, 90
1, 41798, Control_c, 0, 64, 83
1, 41800, Note_off_c, 0, 64, 41
1, 41813, Control_c, 0, 64, 85
1, 41813, Control_c, 0, 67, 89
1, 41828, Control_c, 0, 64, 85
1, 41828, Control_c, 0, 67, 88
1, 41843, Control_c, 0, 64, 86
1, 41873, Control_c, 0, 67, 88
1, 41962, Control_c, 0, 67, 87
1, 42006, Control_c, 0, 64, 85
1, 42032, Note_on_c, 0, 40, 43
1, 42036, Control_c, 0, 64, 85
1, 42036, Control_c, 0, 67, 87
1, 42051, Control_c, 0, 64, 84
1, 42065, Control_c, 0, 64, 83
1, 42081, Control_c, 0, 64, 83
1, 42081, Control_c, 0, 67, 84
1, 42096, Control_c, 0, 64, 82
1, 42096, Control_c, 0, 67, 83
1, 42107, Note_on_c, 0, 64, 55
1, 42111, Control_c, 0, 64, 82
1, 42111, Control_c, 0, 67, 83
1, 42118, Note_on_c, 0, 61, 45
1, 42125, Note_on_c, 0, 55, 42
1, 42126, Control_c, 0, 64, 81
1, 42141, Control_c, 0, 64, 80
1, 42155, Control_c, 0, 64, 79
1, 42155, Control_c, 0, 67, 82
1, 42168, Note_off_c, 0, 43, 39
1, 42170, Control_c, 0, 64, 79
1, 42170, Control_c, 0, 67, 82
1, 42185, Control_c, 0, 64, 78
1, 42200, Control_c, 0, 64, 77
1, 42200, Control_c, 0, 67, 81
1, 42214, Control_c, 0, 64, 76
1, 42214, Control_c, 0, 67, 79
1, 42229, Control_c, 0, 64, 76
1, 42229, Control_c, 0, 67, 76
1, 42244, Control_c, 0, 64, 75
1, 42244, Control_c, 0, 67, 73
1, 42259, Control_c, 0, 64, 74
1, 42259, Control_c, 0, 67, 71
1, 42273, Control_c, 0, 64, 73
1, 42273, Control_c, 0, 67, 68
1, 42288, Control_c, 0, 64, 72
1, 42288, Control_c, 0, 67, 65
1, 42303, Control_c, 0, 67, 63
1, 42318, Control_c, 0, 64, 71
1, 42318, Control_c, 0, 67, 60
1, 42333, Control_c, 0, 64, 71
1, 42333, Control_c, 0, 67, 58
1, 42355, Control_c, 0, 67, 56
1, 42370, Control_c, 0, 64, 70
1, 42370, Control_c, 0, 67, 54
1, 42385, Control_c, 0, 64, 70
1, 42385, Control_c, 0, 67, 52
1, 42400, Control_c, 0, 67, 50
1, 42404, Note_on_c, 0, 43, 48
1, 42414, Control_c, 0, 67, 48
1, 42429, Control_c, 0, 64, 69
1, 42429, Control_c, 0, 67, 45
1, 42444, Control_c, 0, 67, 42
1, 42459, Control_c, 0, 67, 40
1, 42474, Control_c, 0, 64, 69
1, 42474, Control_c, 0, 67, 37
1, 42488, Control_c, 0, 67, 33
1, 42503, Control_c, 0, 67, 31
1, 42518, Control_c, 0, 64, 68
1, 42518, Control_c, 0, 67, 28
1, 42533, Control_c, 0, 67, 25
1, 42548, Control_c, 0, 67, 22
1, 42562, Control_c, 0, 67, 19
1, 42577, Control_c, 0, 67, 15
1, 42592, Control_c, 0, 67, 11
1, 42606, Control_c, 0, 67, 8
1, 42621, Control_c, 0, 64, 68
1, 42621, Control_c, 0, 67, 0
1, 42704, Note_on_c, 0, 66, 62
1, 42725, Control_c, 0, 64, 67
1, 42741, Note_on_c, 0, 49, 51
1, 42755, Control_c, 0, 64, 67
1, 42800, Control_c, 0, 64, 66
1, 42813, Note_off_c, 0, 64, 49
1, 42829, Control_c, 0, 64, 66
1, 42844, Control_c, 0, 64, 65
1, 42874, Control_c, 0, 64, 65
1, 42889, Control_c, 0, 64, 64
1, 42934, Control_c, 0, 64, 64
1, 42978, Control_c, 0, 64, 63
1, 43000, Note_on_c, 0, 52, 49
1, 43009, Note_off_c, 0, 43, 25
1, 43052, Control_c, 0, 64, 63
1, 43075, Note_off_c, 0, 49, 32
1, 43178, Control_c, 0, 64, 62
1, 43223, Control_c, 0, 64, 62
1, 43252, Control_c, 0, 64, 61
1, 43282, Control_c, 0, 64, 61
1, 43289, Note_on_c, 0, 64, 49
1, 43297, Control_c, 0, 64, 60
1, 43310, Note_on_c, 0, 49, 36
1, 43310, Control_c, 0, 64, 59
1, 43325, Control_c, 0, 64, 58
1, 43340, Control_c, 0, 64, 55
1, 43344, Note_off_c, 0, 52, 31
1, 43354, Control_c, 0, 64, 52
1, 43369, Control_c, 0, 64, 46
1, 43384, Control_c, 0, 64, 40
1, 43399, Control_c, 0, 64, 35
1, 43414, Control_c, 0, 64, 34
1, 43426, Note_off_c, 0, 66, 32
1, 43444, Control_c, 0, 64, 34
1, 43459, Control_c, 0, 64, 37
1, 43474, Control_c, 0, 64, 44
1, 43488, Control_c, 0, 64, 52
1, 43503, Control_c, 0, 64, 58
1, 43518, Control_c, 0, 64, 61
1, 43533, Control_c, 0, 64, 63
1, 43548, Control_c, 0, 64, 65
1, 43562, Control_c, 0, 64, 67
1, 43566, Note_off_c, 0, 55, 34
1, 43577, Control_c, 0, 64, 70
1, 43592, Control_c, 0, 64, 73
1, 43598, Note_on_c, 0, 43, 36
1, 43601, Note_off_c, 0, 49, 38
1, 43604, Note_off_c, 0, 40, 34
1, 43607, Control_c, 0, 64, 75
1, 43622, Control_c, 0, 64, 77
1, 43623, Note_off_c, 0, 61, 35
1, 43636, Control_c, 0, 64, 79
1, 43651, Control_c, 0, 64, 80
1, 43660, Note_off_c, 0, 64, 63
1, 43666, Control_c, 0, 64, 81
1, 43682, Control_c, 0, 64, 82
1, 43697, Control_c, 0, 64, 82
1, 43726, Control_c, 0, 64, 83
1, 43845, Control_c, 0, 64, 82
1, 43863, Note_on_c, 0, 47, 44
1, 43865, Note_on_c, 0, 40, 44
1, 43867, Control_c, 0, 64, 81
1, 43880, Note_off_c, 0, 43, 32
1, 43882, Control_c, 0, 64, 77
1, 43897, Control_c, 0, 64, 70
1, 43912, Control_c, 0, 64, 63
1, 43927, Control_c, 0, 64, 54
1, 43933, Note_on_c, 0, 64, 59
1, 43941, Control_c, 0, 64, 53
1, 43956, Control_c, 0, 64, 56
1, 43965, Note_on_c, 0, 62, 37
1, 43971, Control_c, 0, 64, 61
1, 43976, Note_on_c, 0, 56, 19
1, 43985, Control_c, 0, 64, 64
1, 44000, Control_c, 0, 64, 68
1, 44015, Control_c, 0, 64, 72
1, 44030, Control_c, 0, 64, 77
1, 44045, Control_c, 0, 64, 81
1, 44060, Control_c, 0, 64, 84
1, 44068, Note_off_c, 0, 56, 33
1, 44075, Control_c, 0, 64, 88
1, 44090, Control_c, 0, 64, 92
1, 44105, Control_c, 0, 64, 96
1, 44110, Note_off_c, 0, 62, 42
1, 44120, Control_c, 0, 64, 100
1, 44132, Note_off_c, 0, 40, 29
1, 44134, Control_c, 0, 64, 105
1, 44149, Control_c, 0, 64, 110
1, 44155, Note_off_c, 0, 47, 51
1, 44164, Control_c, 0, 64, 115
1, 44178, Control_c, 0, 64, 124
1, 44193, Control_c, 0, 64, 127
1, 44198, Note_on_c, 0, 52, 45
1, 44464, Note_on_c, 0, 56, 49
1, 44502, Note_off_c, 0, 52, 44
1, 44536, Note_on_c, 0, 71, 67
1, 44636, Note_off_c, 0, 64, 41
1, 44770, Note_on_c, 0, 52, 58
1, 45003, Note_on_c, 0, 69, 71
1, 45016, Control_c, 0, 64, 113
1, 45017, Note_on_c, 0, 64, 56
1, 45031, Control_c, 0, 64, 103
1, 45037, Note_on_c, 0, 57, 61
1, 45038, Note_on_c, 0, 62, 53
1, 45046, Control_c, 0, 64, 93
1, 45061, Control_c, 0, 64, 79
1, 45075, Control_c, 0, 64, 65
1, 45079, Note_off_c, 0, 56, 48
1, 45090, Control_c, 0, 64, 52
1, 45104, Note_off_c, 0, 52, 60
1, 45105, Control_c, 0, 64, 44
1, 45120, Control_c, 0, 64, 47
1, 45135, Control_c, 0, 64, 54
1, 45149, Control_c, 0, 64, 60
1, 45156, Note_off_c, 0, 71, 32
1, 45164, Control_c, 0, 64, 64
1, 45179, Control_c, 0, 64, 69
1, 45194, Control_c, 0, 64, 73
1, 45208, Control_c, 0, 64, 78
1, 45223, Control_c, 0, 64, 82
1, 45238, Control_c, 0, 64, 85
1, 45247, Note_off_c, 0, 62, 44
1, 45253, Control_c, 0, 64, 87
1, 45268, Control_c, 0, 64, 88
1, 45274, Note_on_c, 0, 52, 55
1, 45284, Control_c, 0, 64, 90
1, 45298, Control_c, 0, 64, 91
1, 45313, Control_c, 0, 64, 93
1, 45328, Control_c, 0, 64, 93
1, 45351, Control_c, 0, 64, 94
1, 45357, Note_off_c, 0, 57, 53
1, 45366, Control_c, 0, 64, 95
1, 45382, Note_off_c, 0, 64, 35
1, 45395, Control_c, 0, 64, 95
1, 45499, Control_c, 0, 64, 95
1, 45530, Note_on_c, 0, 59, 61
1, 45543, Control_c, 0, 64, 94
1, 45557, Control_c, 0, 64, 92
1, 45572, Control_c, 0, 64, 91
1, 45586, Control_c, 0, 64, 87
1, 45588, Note_on_c, 0, 68, 74
1, 45601, Control_c, 0, 64, 83
1, 45606, Note_on_c, 0, 64, 58
1, 45613, Note_off_c, 0, 52, 34
1, 45616, Control_c, 0, 64, 75
1, 45620, Note_on_c, 0, 62, 48
1, 45630, Control_c, 0, 64, 66
1, 45645, Control_c, 0, 64, 57
1, 45660, Control_c, 0, 64, 52
1, 45675, Control_c, 0, 64, 56
1, 45678, Note_off_c, 0, 69, 51
1, 45690, Control_c, 0, 64, 60
1, 45704, Control_c, 0, 64, 64
1, 45719, Control_c, 0, 64, 67
1, 45727, Note_off_c, 0, 62, 27
1, 45734, Control_c, 0, 64, 72
1, 45748, Control_c, 0, 64, 79
1, 45763, Control_c, 0, 64, 84
1, 45778, Control_c, 0, 64, 88
1, 45793, Control_c, 0, 64, 91
1, 45808, Control_c, 0, 64, 94
1, 45814, Note_off_c, 0, 59, 61
1, 45822, Control_c, 0, 64, 97
1, 45833, Note_on_c, 0, 52, 56
1, 45837, Control_c, 0, 64, 100
1, 45852, Control_c, 0, 64, 104
1, 45867, Control_c, 0, 64, 108
1, 45882, Control_c, 0, 64, 110
1, 45897, Control_c, 0, 64, 111
1, 45912, Control_c, 0, 64, 112
1, 45918, Note_off_c, 0, 52, 63
1, 45927, Control_c, 0, 64, 113
1, 45942, Control_c, 0, 64, 113
1, 46000, Note_off_c, 0, 64, 0
1, 46037, Poly_aftertouch_c, 0, 64, 127
1, 46060, Control_c, 0, 64, 113
1, 46127, Control_c, 0, 64, 112
1, 46142, Control_c, 0, 64, 111
1, 46157, Control_c, 0, 64, 109
1, 46172, Control_c, 0, 64, 106
1, 46187, Control_c, 0, 64, 103
1, 46201, Control_c, 0, 64, 100
1, 46216, Control_c, 0, 64, 97
1, 46219, Note_on_c, 0, 71, 63
1, 46227, Note_on_c, 0, 62, 60
1, 46231, Control_c, 0, 64, 93
1, 46245, Note_on_c, 0, 45, 51
1, 46246, Control_c, 0, 64, 90
1, 46261, Control_c, 0, 64, 87
1, 46276, Control_c, 0, 64, 84
1, 46290, Control_c, 0, 64, 81
1, 46305, Control_c, 0, 64, 78
1, 46320, Control_c, 0, 64, 75
1, 46335, Control_c, 0, 64, 70
1, 46350, Control_c, 0, 64, 63
1, 46365, Control_c, 0, 64, 52
1, 46379, Control_c, 0, 64, 33
1, 46382, Poly_aftertouch_c, 0, 64, 0
1, 46394, Control_c, 0, 64, 26
1, 46409, Control_c, 0, 64, 28
1, 46424, Control_c, 0, 64, 37
1, 46439, Control_c, 0, 64, 47
1, 46453, Control_c, 0, 64, 56
1, 46468, Control_c, 0, 64, 61
1, 46483, Control_c, 0, 64, 64
1, 46498, Control_c, 0, 64, 66
1, 46513, Control_c, 0, 64, 68
1, 46527, Control_c, 0, 64, 70
1, 46542, Control_c, 0, 64, 73
1, 46556, Note_on_c, 0, 52, 60
1, 46557, Control_c, 0, 64, 76
1, 46571, Control_c, 0, 64, 77
1, 46586, Control_c, 0, 64, 79
1, 46601, Control_c, 0, 64, 80
1, 46616, Control_c, 0, 64, 80
1, 46631, Control_c, 0, 64, 81
1, 46645, Control_c, 0, 64, 81
1, 46855, Note_on_c, 0, 64, 51
1, 46876, Control_c, 0, 64, 80
1, 46891, Control_c, 0, 64, 79
1, 46895, Note_on_c, 0, 56, 53
1, 46906, Control_c, 0, 64, 77
1, 46921, Control_c, 0, 64, 75
1, 46936, Control_c, 0, 64, 71
1, 46950, Control_c, 0, 64, 65
1, 46965, Control_c, 0, 64, 56
1, 46980, Control_c, 0, 64, 40
1, 46982, Note_off_c, 0, 52, 51
1, 46994, Control_c, 0, 64, 8
1, 47009, Control_c, 0, 64, 0
1, 47039, Control_c, 0, 64, 23
1, 47054, Control_c, 0, 64, 38
1, 47057, Note_off_c, 0, 68, 38
1, 47068, Control_c, 0, 64, 51
1, 47083, Control_c, 0, 64, 59
1, 47098, Control_c, 0, 64, 63
1, 47113, Control_c, 0, 64, 64
1, 47113, Control_c, 0, 67, 9
1, 47128, Control_c, 0, 64, 66
1, 47128, Control_c, 0, 67, 11
1, 47143, Control_c, 0, 64, 68
1, 47143, Control_c, 0, 67, 11
1, 47158, Control_c, 0, 64, 71
1, 47158, Control_c, 0, 67, 12
1, 47173, Control_c, 0, 64, 74
1, 47173, Control_c, 0, 67, 14
1, 47188, Control_c, 0, 64, 78
1, 47188, Control_c, 0, 67, 17
1, 47193, Note_on_c, 0, 52, 47
1, 47202, Control_c, 0, 64, 80
1, 47202, Control_c, 0, 67, 21
1, 47204, Note_off_c, 0, 64, 56
1, 47206, Note_off_c, 0, 62, 37
1, 47217, Control_c, 0, 64, 83
1, 47217, Control_c, 0, 67, 27
1, 47221, Note_off_c, 0, 71, 24
1, 47232, Control_c, 0, 64, 85
1, 47232, Control_c, 0, 67, 33
1, 47247, Control_c, 0, 64, 86
1, 47247, Control_c, 0, 67, 38
1, 47262, Control_c, 0, 64, 87
1, 47262, Control_c, 0, 67, 42
1, 47276, Control_c, 0, 64, 88
1, 47276, Control_c, 0, 67, 45
1, 47278, Note_off_c, 0, 45, 36
1, 47291, Control_c, 0, 67, 47
1, 47306, Control_c, 0, 64, 88
1, 47306, Control_c, 0, 67, 48
1, 47312, Note_off_c, 0, 56, 35
1, 47365, Control_c, 0, 67, 49
1, 47380, Control_c, 0, 67, 50
1, 47409, Control_c, 0, 67, 50
1, 47424, Control_c, 0, 67, 53
1, 47439, Control_c, 0, 67, 56
1, 47454, Control_c, 0, 64, 88
1, 47454, Control_c, 0, 67, 60
1, 47468, Control_c, 0, 67, 65
1, 47483, Control_c, 0, 64, 87
1, 47483, Control_c, 0, 67, 69
1, 47498, Control_c, 0, 64, 87
1, 47498, Control_c, 0, 67, 74
1, 47513, Control_c, 0, 64, 86
1, 47513, Control_c, 0, 67, 77
1, 47528, Control_c, 0, 64, 85
1, 47528, Control_c, 0, 67, 77
1, 47542, Control_c, 0, 64, 84
1, 47557, Control_c, 0, 64, 83
1, 47572, Control_c, 0, 64, 82
1, 47578, Note_on_c, 0, 45, 40
1, 47587, Control_c, 0, 64, 81
1, 47609, Control_c, 0, 64, 81
1, 47624, Control_c, 0, 64, 79
1, 47624, Control_c, 0, 67, 77
1, 47638, Note_on_c, 0, 69, 54
1, 47639, Control_c, 0, 64, 78
1, 47639, Control_c, 0, 67, 76
1, 47654, Control_c, 0, 64, 76
1, 47654, Control_c, 0, 67, 75
1, 47659, Note_on_c, 0, 60, 39
1, 47668, Note_on_c, 0, 65, 46
1, 47669, Control_c, 0, 64, 75
1, 47669, Control_c, 0, 67, 75
1, 47685, Control_c, 0, 64, 73
1, 47685, Control_c, 0, 67, 74
1, 47699, Control_c, 0, 64, 72
1, 47699, Control_c, 0, 67, 73
1, 47714, Control_c, 0, 64, 72
1, 47714, Control_c, 0, 67, 72
1, 47729, Control_c, 0, 64, 71
1, 47729, Control_c, 0, 67, 72
1, 47744, Control_c, 0, 64, 70
1, 47744, Control_c, 0, 67, 71
1, 47759, Control_c, 0, 64, 68
1, 47759, Control_c, 0, 67, 71
1, 47772, Note_off_c, 0, 52, 39
1, 47773, Control_c, 0, 64, 67
1, 47773, Control_c, 0, 67, 70
1, 47788, Control_c, 0, 64, 65
1, 47788, Control_c, 0, 67, 70
1, 47804, Control_c, 0, 64, 63
1, 47804, Control_c, 0, 67, 69
1, 47819, Control_c, 0, 64, 61
1, 47833, Control_c, 0, 64, 61
1, 47833, Control_c, 0, 67, 69
1, 47848, Control_c, 0, 64, 60
1, 47863, Control_c, 0, 64, 60
1, 47878, Control_c, 0, 64, 59
1, 47892, Control_c, 0, 64, 58
1, 47907, Control_c, 0, 64, 57
1, 47922, Control_c, 0, 64, 55
1, 47937, Control_c, 0, 64, 52
1, 47952, Control_c, 0, 64, 47
1, 47954, Note_on_c, 0, 48, 43
1, 47966, Control_c, 0, 64, 37
1, 47966, Control_c, 0, 67, 68
1, 47981, Control_c, 0, 64, 9
1, 47996, Control_c, 0, 64, 0
1, 48025, Control_c, 0, 67, 68
1, 48040, Control_c, 0, 67, 67
1, 48070, Control_c, 0, 67, 66
1, 48085, Control_c, 0, 67, 66
1, 48100, Control_c, 0, 64, 33
1, 48100, Control_c, 0, 67, 65
1, 48115, Control_c, 0, 64, 46
1, 48115, Control_c, 0, 67, 65
1, 48130, Control_c, 0, 64, 54
1, 48130, Control_c, 0, 67, 64
1, 48145, Control_c, 0, 64, 57
1, 48160, Control_c, 0, 64, 59
1, 48160, Control_c, 0, 67, 64
1, 48174, Control_c, 0, 64, 61
1, 48174, Control_c, 0, 67, 63
1, 48189, Control_c, 0, 64, 62
1, 48189, Control_c, 0, 67, 63
1, 48204, Control_c, 0, 64, 63
1, 48218, Control_c, 0, 64, 64
1, 48218, Control_c, 0, 67, 62
1, 48233, Control_c, 0, 64, 64
1, 48233, Control_c, 0, 67, 62
1, 48248, Control_c, 0, 64, 65
1, 48248, Control_c, 0, 67, 59
1, 48263, Control_c, 0, 64, 65
1, 48263, Control_c, 0, 67, 56
1, 48278, Control_c, 0, 64, 66
1, 48278, Control_c, 0, 67, 53
1, 48292, Control_c, 0, 64, 66
1, 48292, Control_c, 0, 67, 50
1, 48297, Note_on_c, 0, 71, 57
1, 48307, Control_c, 0, 64, 67
1, 48307, Control_c, 0, 67, 47
1, 48322, Note_on_c, 0, 53, 32
1, 48322, Control_c, 0, 64, 67
1, 48322, Control_c, 0, 67, 45
1, 48337, Control_c, 0, 64, 68
1, 48337, Control_c, 0, 67, 43
1, 48359, Control_c, 0, 64, 68
1, 48359, Control_c, 0, 67, 41
1, 48374, Control_c, 0, 64, 69
1, 48374, Control_c, 0, 67, 38
1, 48389, Control_c, 0, 64, 70
1, 48389, Control_c, 0, 67, 37
1, 48404, Control_c, 0, 64, 71
1, 48404, Control_c, 0, 67, 35
1, 48419, Control_c, 0, 64, 72
1, 48419, Control_c, 0, 67, 33
1, 48433, Control_c, 0, 64, 73
1, 48433, Control_c, 0, 67, 32
1, 48448, Control_c, 0, 64, 75
1, 48448, Control_c, 0, 67, 30
1, 48458, Note_off_c, 0, 69, 36
1, 48463, Control_c, 0, 64, 76
1, 48463, Control_c, 0, 67, 27
1, 48478, Control_c, 0, 64, 77
1, 48478, Control_c, 0, 67, 25
1, 48493, Control_c, 0, 64, 78
1, 48493, Control_c, 0, 67, 21
1, 48508, Control_c, 0, 64, 79
1, 48508, Control_c, 0, 67, 18
1, 48523, Control_c, 0, 64, 80
1, 48523, Control_c, 0, 67, 15
1, 48538, Control_c, 0, 64, 81
1, 48538, Control_c, 0, 67, 12
1, 48553, Control_c, 0, 64, 81
1, 48553, Control_c, 0, 67, 11
1, 48568, Control_c, 0, 64, 82
1, 48568, Control_c, 0, 67, 9
1, 48583, Control_c, 0, 64, 84
1, 48583, Control_c, 0, 67, 9
1, 48595, Note_on_c, 0, 57, 48
1, 48597, Control_c, 0, 64, 86
1, 48597, Control_c, 0, 67, 8
1, 48612, Control_c, 0, 64, 87
1, 48627, Control_c, 0, 64, 89
1, 48627, Control_c, 0, 67, 8
1, 48642, Control_c, 0, 64, 90
1, 48656, Control_c, 0, 64, 92
1, 48656, Control_c, 0, 67, 0
1, 48671, Control_c, 0, 64, 94
1, 48682, Note_off_c, 0, 53, 39
1, 48686, Control_c, 0, 64, 96
1, 48701, Control_c, 0, 64, 99
1, 48716, Control_c, 0, 64, 100
1, 48730, Control_c, 0, 64, 101
1, 48745, Control_c, 0, 64, 102
1, 48760, Control_c, 0, 64, 103
1, 48774, Control_c, 0, 64, 105
1, 48789, Control_c, 0, 64, 106
1, 48804, Control_c, 0, 64, 107
1, 48819, Control_c, 0, 64, 108
1, 48834, Control_c, 0, 64, 109
1, 48845, Note_off_c, 0, 48, 19
1, 48848, Control_c, 0, 64, 110
1, 48863, Control_c, 0, 64, 112
1, 48866, Note_on_c, 0, 69, 63
1, 48872, Note_on_c, 0, 53, 43
1, 48878, Control_c, 0, 64, 113
1, 48893, Control_c, 0, 64, 115
1, 48895, Note_off_c, 0, 57, 35
1, 48908, Control_c, 0, 64, 117
1, 48923, Control_c, 0, 64, 119
1, 48938, Control_c, 0, 64, 124
1, 48952, Control_c, 0, 64, 127
1, 48988, Note_off_c, 0, 45, 40
1, 49031, Note_off_c, 0, 71, 27
1, 49105, Note_off_c, 0, 53, 0
1, 49137, Note_off_c, 0, 60, 30
1, 49139, Note_off_c, 0, 65, 49
1, 49154, Note_on_c, 0, 48, 54
1, 49160, Poly_aftertouch_c, 0, 53, 0
1, 49176, Note_off_c, 0, 69, 52
1, 49218, Note_off_c, 0, 48, 64
1, 49458, Note_on_c, 0, 69, 67
1, 49465, Control_c, 0, 64, 116
1, 49465, Note_on_c, 0, 63, 62
1, 49471, Note_on_c, 0, 60, 53
1, 49479, Control_c, 0, 64, 109
1, 49494, Control_c, 0, 64, 102
1, 49495, Note_on_c, 0, 41, 58
1, 49509, Control_c, 0, 64, 92
1, 49524, Control_c, 0, 64, 81
1, 49539, Control_c, 0, 64, 69
1, 49553, Control_c, 0, 64, 58
1, 49568, Control_c, 0, 64, 44
1, 49583, Control_c, 0, 64, 40
1, 49597, Control_c, 0, 64, 48
1, 49612, Control_c, 0, 64, 57
1, 49627, Control_c, 0, 64, 63
1, 49642, Control_c, 0, 64, 67
1, 49657, Control_c, 0, 64, 72
1, 49671, Control_c, 0, 64, 79
1, 49686, Control_c, 0, 64, 85
1, 49701, Control_c, 0, 64, 91
1, 49716, Control_c, 0, 64, 96
1, 49731, Control_c, 0, 64, 105
1, 49743, Note_on_c, 0, 48, 63
1, 49745, Control_c, 0, 64, 120
1, 49760, Control_c, 0, 64, 127
1, 49787, Note_off_c, 0, 41, 59
1, 50012, Note_on_c, 0, 72, 74
1, 50051, Note_on_c, 0, 51, 55
1, 50173, Note_off_c, 0, 69, 37
1, 50284, Note_on_c, 0, 57, 60
1, 50298, Note_off_c, 0, 48, 34
1, 50323, Note_off_c, 0, 51, 53
1, 50537, Note_on_c, 0, 69, 79
1, 50547, Note_on_c, 0, 51, 57
1, 50566, Note_off_c, 0, 72, 44
1, 50580, Note_off_c, 0, 57, 35
1, 50786, Note_off_c, 0, 51, 61
1, 50799, Note_on_c, 0, 48, 62
1, 50816, Note_off_c, 0, 60, 44
1, 50834, Note_off_c, 0, 63, 63
1, 50848, Note_off_c, 0, 48, 65
1, 50912, Note_off_c, 0, 69, 59
1, 51045, Note_on_c, 0, 39, 72
1, 51080, Control_c, 0, 64, 84
1, 51095, Control_c, 0, 64, 63
1, 51110, Control_c, 0, 64, 39
1, 51117, Note_on_c, 0, 69, 79
1, 51124, Control_c, 0, 64, 36
1, 51139, Control_c, 0, 64, 48
1, 51140, Note_on_c, 0, 66, 59
1, 51145, Note_on_c, 0, 60, 45
1, 51154, Control_c, 0, 64, 60
1, 51168, Control_c, 0, 64, 69
1, 51183, Control_c, 0, 64, 81
1, 51198, Control_c, 0, 64, 115
1, 51213, Control_c, 0, 64, 127
1, 51234, Note_off_c, 0, 60, 54
1, 51285, Note_off_c, 0, 66, 51
1, 51322, Note_off_c, 0, 39, 55
1, 51352, Note_off_c, 0, 69, 65
1, 51383, Note_on_c, 0, 48, 70
1, 51616, Note_on_c, 0, 78, 82
1, 51629, Note_off_c, 0, 48, 58
1, 51676, Note_on_c, 0, 57, 56
1, 51922, Note_on_c, 0, 51, 69
1, 51979, Note_off_c, 0, 57, 49
1, 52219, Note_on_c, 0, 57, 62
1, 52313, Note_on_c, 0, 72, 81
1, 52321, Note_off_c, 0, 51, 35
1, 52491, Note_off_c, 0, 78, 35
1, 52613, Note_on_c, 0, 60, 69
1, 52690, Note_off_c, 0, 57, 51
1, 53000, Note_on_c, 0, 66, 74
1, 53145, Note_off_c, 0, 60, 29
1, 53261, Note_on_c, 0, 69, 75
1, 53268, Note_on_c, 0, 60, 61
1, 53271, Note_off_c, 0, 72, 61
1, 53300, Note_off_c, 0, 66, 59
1, 53543, Note_on_c, 0, 57, 61
1, 53631, Control_c, 0, 64, 113
1, 53632, Note_on_c, 0, 68, 75
1, 53645, Control_c, 0, 64, 108
1, 53660, Control_c, 0, 64, 103
1, 53675, Control_c, 0, 64, 99
1, 53683, Note_off_c, 0, 60, 33
1, 53690, Control_c, 0, 64, 95
1, 53698, Note_off_c, 0, 69, 59
1, 53705, Control_c, 0, 64, 92
1, 53719, Control_c, 0, 64, 89
1, 53734, Control_c, 0, 64, 87
1, 53749, Control_c, 0, 64, 85
1, 53764, Control_c, 0, 64, 83
1, 53779, Control_c, 0, 64, 82
1, 53793, Control_c, 0, 64, 81
1, 53808, Control_c, 0, 64, 79
1, 53823, Control_c, 0, 64, 79
1, 53837, Control_c, 0, 64, 78
1, 53852, Control_c, 0, 64, 77
1, 53867, Control_c, 0, 64, 77
1, 53882, Control_c, 0, 64, 76
1, 53897, Control_c, 0, 64, 76
1, 53897, Control_c, 0, 67, 8
1, 53911, Control_c, 0, 64, 75
1, 53922, Note_on_c, 0, 60, 50
1, 53926, Control_c, 0, 64, 74
1, 53926, Control_c, 0, 67, 8
1, 53941, Control_c, 0, 64, 74
1, 53956, Control_c, 0, 64, 73
1, 53970, Control_c, 0, 64, 72
1, 53970, Control_c, 0, 67, 9
1, 53985, Control_c, 0, 64, 70
1, 54000, Control_c, 0, 64, 66
1, 54015, Control_c, 0, 64, 60
1, 54015, Control_c, 0, 67, 9
1, 54017, Note_off_c, 0, 57, 54
1, 54030, Control_c, 0, 64, 52
1, 54030, Control_c, 0, 67, 10
1, 54044, Control_c, 0, 67, 11
1, 54060, Control_c, 0, 64, 55
1, 54075, Control_c, 0, 64, 59
1, 54075, Control_c, 0, 67, 12
1, 54090, Control_c, 0, 64, 64
1, 54090, Control_c, 0, 67, 12
1, 54105, Control_c, 0, 64, 68
1, 54120, Control_c, 0, 64, 73
1, 54120, Control_c, 0, 67, 15
1, 54134, Control_c, 0, 64, 81
1, 54134, Control_c, 0, 67, 16
1, 54149, Control_c, 0, 64, 86
1, 54149, Control_c, 0, 67, 18
1, 54164, Control_c, 0, 64, 90
1, 54164, Control_c, 0, 67, 20
1, 54179, Control_c, 0, 64, 95
1, 54179, Control_c, 0, 67, 23
1, 54193, Control_c, 0, 64, 101
1, 54193, Control_c, 0, 67, 26
1, 54208, Control_c, 0, 64, 107
1, 54208, Control_c, 0, 67, 30
1, 54223, Control_c, 0, 64, 115
1, 54223, Control_c, 0, 67, 33
1, 54225, Note_on_c, 0, 57, 51
1, 54238, Control_c, 0, 64, 120
1, 54238, Control_c, 0, 67, 37
1, 54248, Note_off_c, 0, 60, 48
1, 54253, Control_c, 0, 64, 127
1, 54253, Control_c, 0, 67, 39
1, 54267, Control_c, 0, 67, 41
1, 54282, Control_c, 0, 67, 43
1, 54297, Control_c, 0, 67, 45
1, 54309, Note_off_c, 0, 57, 63
1, 54312, Control_c, 0, 67, 48
1, 54327, Control_c, 0, 67, 52
1, 54349, Control_c, 0, 67, 56
1, 54364, Control_c, 0, 67, 59
1, 54379, Control_c, 0, 67, 62
1, 54393, Control_c, 0, 67, 63
1, 54408, Control_c, 0, 64, 124
1, 54408, Control_c, 0, 67, 64
1, 54423, Control_c, 0, 64, 119
1, 54438, Control_c, 0, 64, 115
1, 54438, Control_c, 0, 67, 63
1, 54453, Control_c, 0, 64, 112
1, 54467, Control_c, 0, 64, 109
1, 54482, Control_c, 0, 64, 107
1, 54497, Control_c, 0, 64, 105
1, 54497, Control_c, 0, 67, 63
1, 54512, Control_c, 0, 64, 103
1, 54521, Note_on_c, 0, 52, 51
1, 54527, Control_c, 0, 64, 100
1, 54542, Control_c, 0, 64, 98
1, 54557, Control_c, 0, 64, 96
1, 54572, Control_c, 0, 64, 94
1, 54586, Control_c, 0, 64, 93
1, 54601, Control_c, 0, 64, 92
1, 54601, Control_c, 0, 67, 62
1, 54616, Control_c, 0, 64, 91
1, 54616, Control_c, 0, 67, 62
1, 54631, Control_c, 0, 64, 90
1, 54646, Control_c, 0, 64, 88
1, 54646, Control_c, 0, 67, 61
1, 54661, Control_c, 0, 64, 87
1, 54661, Control_c, 0, 67, 60
1, 54676, Control_c, 0, 64, 86
1, 54676, Control_c, 0, 67, 59
1, 54691, Control_c, 0, 64, 86
1, 54691, Control_c, 0, 67, 59
1, 54706, Control_c, 0, 64, 85
1, 54706, Control_c, 0, 67, 58
1, 54720, Control_c, 0, 64, 85
1, 54720, Control_c, 0, 67, 58
1, 54735, Control_c, 0, 64, 84
1, 54735, Control_c, 0, 67, 57
1, 54750, Control_c, 0, 64, 83
1, 54765, Control_c, 0, 64, 81
1, 54780, Control_c, 0, 64, 81
1, 54780, Control_c, 0, 67, 56
1, 54794, Control_c, 0, 64, 79
1, 54809, Control_c, 0, 64, 79
1, 54824, Control_c, 0, 64, 78
1, 54839, Control_c, 0, 64, 77
1, 54854, Control_c, 0, 64, 77
1, 54870, Control_c, 0, 64, 75
1, 54878, Note_on_c, 0, 66, 57
1, 54884, Control_c, 0, 64, 74
1, 54884, Control_c, 0, 67, 56
1, 54888, Note_on_c, 0, 48, 43
1, 54899, Control_c, 0, 64, 73
1, 54914, Control_c, 0, 64, 71
1, 54929, Control_c, 0, 64, 69
1, 54944, Control_c, 0, 64, 68
1, 54958, Control_c, 0, 64, 66
1, 54973, Control_c, 0, 64, 64
1, 54973, Control_c, 0, 67, 55
1, 54988, Control_c, 0, 64, 63
1, 55003, Control_c, 0, 64, 62
1, 55016, Note_off_c, 0, 52, 39
1, 55017, Control_c, 0, 64, 61
1, 55032, Control_c, 0, 64, 60
1, 55032, Control_c, 0, 67, 55
1, 55045, Note_off_c, 0, 68, 36
1, 55047, Control_c, 0, 64, 59
1, 55062, Control_c, 0, 64, 59
1, 55077, Control_c, 0, 64, 58
1, 55099, Control_c, 0, 64, 58
1, 55114, Control_c, 0, 64, 57
1, 55129, Control_c, 0, 64, 57
1, 55144, Control_c, 0, 64, 56
1, 55159, Control_c, 0, 64, 55
1, 55173, Control_c, 0, 64, 54
1, 55188, Control_c, 0, 64, 53
1, 55188, Control_c, 0, 67, 54
1, 55203, Control_c, 0, 64, 52
1, 55217, Control_c, 0, 64, 52
1, 55232, Control_c, 0, 64, 50
1, 55247, Control_c, 0, 64, 47
1, 55262, Control_c, 0, 64, 42
1, 55264, Note_on_c, 0, 64, 52
1, 55276, Note_on_c, 0, 45, 37
1, 55277, Control_c, 0, 64, 36
1, 55277, Control_c, 0, 67, 54
1, 55291, Control_c, 0, 64, 30
1, 55306, Control_c, 0, 64, 27
1, 55317, Note_off_c, 0, 66, 58
1, 55332, Note_off_c, 0, 48, 57
1, 55336, Control_c, 0, 64, 31
1, 55336, Control_c, 0, 67, 53
1, 55351, Control_c, 0, 64, 41
1, 55365, Control_c, 0, 64, 51
1, 55380, Control_c, 0, 64, 58
1, 55395, Control_c, 0, 64, 62
1, 55409, Control_c, 0, 64, 64
1, 55409, Control_c, 0, 67, 53
1, 55424, Control_c, 0, 64, 65
1, 55439, Control_c, 0, 64, 68
1, 55454, Control_c, 0, 64, 70
1, 55469, Control_c, 0, 64, 73
1, 55469, Control_c, 0, 67, 52
1, 55484, Control_c, 0, 64, 76
1, 55498, Control_c, 0, 64, 78
1, 55513, Control_c, 0, 64, 80
1, 55528, Control_c, 0, 64, 82
1, 55528, Control_c, 0, 67, 52
1, 55543, Control_c, 0, 64, 83
1, 55558, Control_c, 0, 64, 85
1, 55573, Control_c, 0, 64, 86
1, 55588, Control_c, 0, 64, 87
1, 55602, Control_c, 0, 64, 88
1, 55632, Control_c, 0, 64, 88
1, 55752, Control_c, 0, 64, 88
1, 55779, Note_on_c, 0, 68, 55
1, 55811, Control_c, 0, 64, 86
1, 55819, Note_off_c, 0, 64, 59
1, 55826, Control_c, 0, 64, 85
1, 55827, Note_off_c, 0, 45, 31
1, 55847, Control_c, 0, 64, 82
1, 55862, Control_c, 0, 64, 79
1, 55876, Note_on_c, 0, 40, 40
1, 55877, Control_c, 0, 64, 76
1, 55892, Control_c, 0, 64, 71
1, 55907, Control_c, 0, 64, 66
1, 55922, Control_c, 0, 64, 59
1, 55937, Control_c, 0, 64, 49
1, 55952, Control_c, 0, 64, 32
1, 55966, Control_c, 0, 64, 23
1, 55981, Control_c, 0, 64, 22
1, 55981, Control_c, 0, 67, 51
1, 55996, Control_c, 0, 64, 27
1, 56011, Control_c, 0, 64, 38
1, 56026, Control_c, 0, 64, 50
1, 56040, Control_c, 0, 64, 60
1, 56040, Control_c, 0, 67, 51
1, 56055, Control_c, 0, 64, 63
1, 56070, Control_c, 0, 64, 64
1, 56085, Control_c, 0, 64, 66
1, 56085, Control_c, 0, 67, 50
1, 56100, Control_c, 0, 64, 68
1, 56100, Control_c, 0, 67, 50
1, 56114, Control_c, 0, 64, 70
1, 56129, Control_c, 0, 64, 73
1, 56129, Control_c, 0, 67, 49
1, 56139, Note_off_c, 0, 40, 58
1, 56144, Control_c, 0, 64, 76
1, 56158, Control_c, 0, 64, 78
1, 56173, Control_c, 0, 64, 81
1, 56188, Control_c, 0, 64, 82
1, 56194, Note_on_c, 0, 59, 31
1, 56203, Control_c, 0, 64, 85
1, 56218, Control_c, 0, 64, 87
1, 56232, Control_c, 0, 64, 89
1, 56247, Control_c, 0, 64, 90
1, 56262, Control_c, 0, 64, 91
1, 56262, Control_c, 0, 67, 49
1, 56277, Control_c, 0, 64, 92
1, 56292, Control_c, 0, 64, 93
1, 56306, Control_c, 0, 64, 94
1, 56321, Control_c, 0, 64, 95
1, 56336, Control_c, 0, 64, 95
1, 56351, Control_c, 0, 64, 96
1, 56381, Control_c, 0, 64, 96
1, 56463, Note_off_c, 0, 59, 41
1, 56484, Note_on_c, 0, 56, 45
1, 56721, Note_off_c, 0, 56, 37
1, 56783, Note_on_c, 0, 52, 43
1, 56804, Control_c, 0, 67, 48
1, 56863, Control_c, 0, 64, 96
1, 56937, Control_c, 0, 64, 95
1, 56952, Control_c, 0, 64, 95
1, 56967, Control_c, 0, 64, 94
1, 56981, Control_c, 0, 64, 94
1, 56996, Control_c, 0, 64, 93
1, 57011, Control_c, 0, 64, 93
1, 57026, Control_c, 0, 64, 92
1, 57036, Note_on_c, 0, 69, 66
1, 57041, Control_c, 0, 64, 90
1, 57055, Control_c, 0, 64, 88
1, 57069, Note_on_c, 0, 60, 42
1, 57070, Control_c, 0, 64, 85
1, 57085, Control_c, 0, 64, 81
1, 57100, Control_c, 0, 64, 74
1, 57108, Note_off_c, 0, 68, 48
1, 57115, Control_c, 0, 64, 66
1, 57115, Control_c, 0, 67, 48
1, 57129, Control_c, 0, 64, 58
1, 57129, Control_c, 0, 67, 45
1, 57144, Control_c, 0, 64, 51
1, 57144, Control_c, 0, 67, 41
1, 57159, Control_c, 0, 64, 53
1, 57159, Control_c, 0, 67, 39
1, 57174, Control_c, 0, 64, 58
1, 57174, Control_c, 0, 67, 36
1, 57189, Control_c, 0, 64, 63
1, 57189, Control_c, 0, 67, 34
1, 57204, Control_c, 0, 64, 67
1, 57204, Control_c, 0, 67, 32
1, 57218, Control_c, 0, 64, 71
1, 57218, Control_c, 0, 67, 31
1, 57233, Control_c, 0, 64, 76
1, 57233, Control_c, 0, 67, 31
1, 57249, Control_c, 0, 64, 82
1, 57249, Control_c, 0, 67, 30
1, 57264, Control_c, 0, 64, 86
1, 57264, Control_c, 0, 67, 30
1, 57278, Control_c, 0, 64, 90
1, 57278, Control_c, 0, 67, 28
1, 57293, Control_c, 0, 64, 94
1, 57293, Control_c, 0, 67, 25
1, 57308, Control_c, 0, 64, 99
1, 57308, Control_c, 0, 67, 22
1, 57331, Control_c, 0, 64, 103
1, 57331, Control_c, 0, 67, 20
1, 57344, Note_off_c, 0, 60, 40
1, 57346, Control_c, 0, 64, 107
1, 57346, Control_c, 0, 67, 19
1, 57347, Note_on_c, 0, 57, 49
1, 57360, Control_c, 0, 64, 110
1, 57360, Control_c, 0, 67, 17
1, 57375, Control_c, 0, 64, 114
1, 57375, Control_c, 0, 67, 17
1, 57385, Note_off_c, 0, 57, 60
1, 57390, Control_c, 0, 64, 118
1, 57390, Control_c, 0, 67, 15
1, 57405, Control_c, 0, 64, 122
1, 57405, Control_c, 0, 67, 14
1, 57419, Control_c, 0, 64, 127
1, 57419, Control_c, 0, 67, 13
1, 57432, Note_off_c, 0, 52, 32
1, 57434, Control_c, 0, 67, 11
1, 57449, Control_c, 0, 67, 10
1, 57464, Control_c, 0, 67, 9
1, 57479, Control_c, 0, 67, 8
1, 57493, Control_c, 0, 67, 0
1, 57699, Control_c, 0, 64, 124
1, 57702, Note_on_c, 0, 70, 61
1, 57714, Control_c, 0, 64, 116
1, 57729, Control_c, 0, 64, 111
1, 57744, Control_c, 0, 64, 107
1, 57746, Note_off_c, 0, 69, 64
1, 57758, Control_c, 0, 64, 103
1, 57773, Control_c, 0, 64, 99
1, 57776, Note_on_c, 0, 40, 49
1, 57788, Control_c, 0, 64, 95
1, 57803, Control_c, 0, 64, 90
1, 57818, Control_c, 0, 64, 83
1, 57833, Control_c, 0, 64, 74
1, 57847, Control_c, 0, 64, 63
1, 57862, Control_c, 0, 64, 51
1, 57877, Control_c, 0, 64, 43
1, 57892, Control_c, 0, 64, 45
1, 57907, Control_c, 0, 64, 53
1, 57922, Control_c, 0, 64, 60
1, 57936, Control_c, 0, 64, 65
1, 57951, Control_c, 0, 64, 70
1, 57966, Control_c, 0, 64, 75
1, 57981, Control_c, 0, 64, 80
1, 57996, Control_c, 0, 64, 83
1, 58007, Note_off_c, 0, 40, 59
1, 58010, Control_c, 0, 64, 86
1, 58025, Control_c, 0, 64, 89
1, 58040, Control_c, 0, 64, 92
1, 58041, Note_on_c, 0, 61, 46
1, 58056, Control_c, 0, 64, 96
1, 58071, Control_c, 0, 64, 99
1, 58093, Control_c, 0, 64, 102
1, 58107, Control_c, 0, 64, 105
1, 58122, Control_c, 0, 64, 108
1, 58137, Control_c, 0, 64, 111
1, 58152, Control_c, 0, 64, 115
1, 58167, Control_c, 0, 64, 116
1, 58181, Control_c, 0, 64, 118
1, 58196, Control_c, 0, 64, 122
1, 58211, Control_c, 0, 64, 127
1, 58327, Note_on_c, 0, 58, 48
1, 58337, Note_off_c, 0, 61, 44
1, 58522, Note_off_c, 0, 58, 59
1, 58590, Note_on_c, 0, 52, 51
1, 58775, Control_c, 0, 64, 124
1, 58789, Control_c, 0, 64, 118
1, 58804, Control_c, 0, 64, 113
1, 58819, Control_c, 0, 64, 109
1, 58841, Control_c, 0, 64, 105
1, 58851, Note_on_c, 0, 68, 71
1, 58857, Control_c, 0, 64, 99
1, 58872, Control_c, 0, 64, 92
1, 58876, Note_on_c, 0, 64, 49
1, 58887, Control_c, 0, 64, 84
1, 58902, Control_c, 0, 64, 73
1, 58917, Control_c, 0, 64, 64
1, 58931, Control_c, 0, 64, 58
1, 58946, Control_c, 0, 64, 58
1, 58961, Control_c, 0, 64, 62
1, 58971, Note_off_c, 0, 70, 52
1, 58976, Control_c, 0, 64, 66
1, 58990, Control_c, 0, 64, 70
1, 59005, Control_c, 0, 64, 77
1, 59020, Control_c, 0, 64, 85
1, 59035, Control_c, 0, 64, 92
1, 59050, Control_c, 0, 64, 99
1, 59064, Control_c, 0, 64, 109
1, 59079, Control_c, 0, 64, 127
1, 59130, Note_off_c, 0, 64, 45
1, 59138, Note_on_c, 0, 66, 77
1, 59156, Note_on_c, 0, 61, 53
1, 59187, Note_off_c, 0, 61, 65
1, 59194, Note_off_c, 0, 68, 54
1, 59216, Note_off_c, 0, 52, 36
1, 59453, Note_on_c, 0, 71, 70
1, 59523, Note_off_c, 0, 66, 59
1, 59533, Note_on_c, 0, 40, 57
1, 59538, Control_c, 0, 64, 102
1, 59553, Control_c, 0, 64, 86
1, 59568, Control_c, 0, 64, 73
1, 59590, Control_c, 0, 64, 62
1, 59605, Control_c, 0, 64, 49
1, 59620, Control_c, 0, 64, 42
1, 59635, Control_c, 0, 64, 46
1, 59650, Control_c, 0, 64, 55
1, 59666, Control_c, 0, 64, 63
1, 59680, Control_c, 0, 64, 68
1, 59695, Control_c, 0, 64, 74
1, 59710, Control_c, 0, 64, 83
1, 59725, Control_c, 0, 64, 92
1, 59740, Control_c, 0, 64, 99
1, 59754, Control_c, 0, 64, 107
1, 59755, Note_off_c, 0, 40, 60
1, 59769, Control_c, 0, 64, 120
1, 59771, Note_on_c, 0, 62, 56
1, 59784, Control_c, 0, 64, 127
1, 60028, Note_on_c, 0, 59, 65
1, 60029, Note_off_c, 0, 62, 62
1, 60208, Note_off_c, 0, 59, 62
1, 60265, Note_on_c, 0, 52, 63
1, 60527, Note_on_c, 0, 72, 78
1, 60547, Control_c, 0, 64, 103
1, 60559, Note_on_c, 0, 63, 64
1, 60562, Control_c, 0, 64, 82
1, 60576, Control_c, 0, 64, 69
1, 60591, Control_c, 0, 64, 62
1, 60606, Control_c, 0, 64, 60
1, 60621, Control_c, 0, 64, 63
1, 60635, Control_c, 0, 64, 67
1, 60638, Note_off_c, 0, 71, 36
1, 60650, Control_c, 0, 64, 71
1, 60665, Control_c, 0, 64, 80
1, 60680, Control_c, 0, 64, 88
1, 60695, Control_c, 0, 64, 95
1, 60709, Control_c, 0, 64, 102
1, 60724, Control_c, 0, 64, 113
1, 60739, Control_c, 0, 64, 127
1, 60766, Note_off_c, 0, 63, 56
1, 60802, Note_on_c, 0, 60, 65
1, 60828, Note_off_c, 0, 60, 65
1, 60867, Note_off_c, 0, 52, 36
1, 61114, Note_on_c, 0, 73, 71
1, 61154, Note_off_c, 0, 72, 61
1, 61170, Note_on_c, 0, 40, 69
1, 61176, Control_c, 0, 64, 105
1, 61191, Control_c, 0, 64, 85
1, 61206, Control_c, 0, 64, 70
1, 61221, Control_c, 0, 64, 58
1, 61235, Control_c, 0, 64, 50
1, 61251, Control_c, 0, 64, 53
1, 61266, Control_c, 0, 64, 61
1, 61281, Control_c, 0, 64, 66
1, 61296, Control_c, 0, 64, 72
1, 61311, Control_c, 0, 64, 81
1, 61325, Control_c, 0, 64, 93
1, 61340, Control_c, 0, 64, 102
1, 61353, Note_off_c, 0, 40, 61
1, 61355, Control_c, 0, 64, 112
1, 61370, Control_c, 0, 64, 127
1, 61454, Note_on_c, 0, 64, 52
1, 61721, Note_on_c, 0, 61, 58
1, 61723, Note_off_c, 0, 64, 63
1, 61984, Note_on_c, 0, 52, 58
1, 61994, Note_off_c, 0, 61, 61
1, 62039, Note_off_c, 0, 52, 63
1, 62223, Note_on_c, 0, 71, 74
1, 62254, Note_on_c, 0, 67, 55
1, 62314, Note_off_c, 0, 73, 35
1, 62469, Note_off_c, 0, 67, 31
1, 62510, Note_on_c, 0, 69, 82
1, 62527, Note_on_c, 0, 61, 52
1, 62553, Note_off_c, 0, 61, 64
1, 62606, Note_off_c, 0, 71, 36
1, 62894, Note_on_c, 0, 74, 76
1, 62927, Control_c, 0, 64, 110
1, 62936, Note_on_c, 0, 42, 68
1, 62942, Control_c, 0, 64, 92
1, 62957, Control_c, 0, 64, 75
1, 62972, Control_c, 0, 64, 59
1, 62987, Control_c, 0, 64, 39
1, 63001, Control_c, 0, 64, 26
1, 63016, Control_c, 0, 64, 32
1, 63031, Control_c, 0, 64, 47
1, 63046, Control_c, 0, 64, 59
1, 63061, Control_c, 0, 64, 67
1, 63076, Control_c, 0, 64, 76
1, 63091, Control_c, 0, 64, 89
1, 63105, Control_c, 0, 64, 104
1, 63120, Control_c, 0, 64, 127
1, 63211, Note_off_c, 0, 42, 35
1, 63225, Note_on_c, 0, 62, 63
1, 63367, Note_off_c, 0, 62, 62
1, 63410, Note_off_c, 0, 69, 56
1, 63514, Note_on_c, 0, 57, 64
1, 63552, Note_off_c, 0, 57, 64
1, 63827, Note_on_c, 0, 73, 78
1, 63842, Note_on_c, 0, 68, 69
1, 63854, Control_c, 0, 64, 111
1, 63859, Note_on_c, 0, 40, 72
1, 63869, Control_c, 0, 64, 84
1, 63884, Control_c, 0, 64, 65
1, 63899, Control_c, 0, 64, 44
1, 63904, Note_off_c, 0, 74, 60
1, 63914, Control_c, 0, 64, 0
1, 63987, Control_c, 0, 64, 27
1, 64002, Control_c, 0, 64, 55
1, 64017, Control_c, 0, 64, 67
1, 64032, Control_c, 0, 64, 75
1, 64046, Control_c, 0, 64, 91
1, 64061, Control_c, 0, 64, 127
1, 64170, Note_off_c, 0, 40, 58
1, 64178, Note_on_c, 0, 52, 69
1, 64440, Note_off_c, 0, 52, 40
1, 64447, Note_on_c, 0, 71, 74
1, 64458, Note_on_c, 0, 56, 64
1, 64484, Note_off_c, 0, 56, 65
1, 64521, Note_off_c, 0, 68, 59
1, 64544, Note_off_c, 0, 73, 59
1, 64721, Control_c, 0, 64, 88
1, 64735, Note_on_c, 0, 38, 70
1, 64735, Control_c, 0, 64, 60
1, 64750, Control_c, 0, 64, 0
1, 64794, Control_c, 0, 64, 38
1, 64809, Control_c, 0, 64, 60
1, 64832, Control_c, 0, 64, 75
1, 64847, Control_c, 0, 64, 99
1, 64862, Control_c, 0, 64, 127
1, 64891, Note_off_c, 0, 38, 60
1, 64903, Note_on_c, 0, 66, 77
1, 64922, Note_off_c, 0, 71, 57
1, 65002, Note_off_c, 0, 66, 61
1, 65141, Note_on_c, 0, 81, 76
1, 65350, Note_on_c, 0, 54, 64
1, 65482, Note_off_c, 0, 54, 62
1, 65716, Note_on_c, 0, 57, 63
1, 65717, Note_off_c, 0, 81, 61
1, 65723, Note_on_c, 0, 50, 59
1, 65827, Note_off_c, 0, 50, 58
1, 65884, Note_off_c, 0, 57, 52
1, 66062, Note_on_c, 0, 62, 66
1, 66075, Note_on_c, 0, 54, 59
1, 66099, Note_off_c, 0, 62, 65
1, 66137, Note_off_c, 0, 54, 57
1, 66502, Note_on_c, 0, 69, 78
1, 66513, Note_on_c, 0, 64, 65
1, 66520, Note_on_c, 0, 57, 60
1, 66549, Note_on_c, 0, 45, 64
1, 66558, Note_on_c, 0, 37, 67
1, 66596, Control_c, 0, 64, 97
1, 66611, Control_c, 0, 64, 78
1, 66626, Control_c, 0, 64, 63
1, 66641, Control_c, 0, 64, 44
1, 66656, Control_c, 0, 64, 0
1, 66701, Control_c, 0, 64, 19
1, 66715, Control_c, 0, 64, 37
1, 66730, Control_c, 0, 64, 52
1, 66745, Control_c, 0, 64, 62
1, 66760, Control_c, 0, 64, 67
1, 66774, Control_c, 0, 64, 70
1, 66789, Control_c, 0, 64, 74
1, 66804, Control_c, 0, 64, 80
1, 66819, Control_c, 0, 64, 86
1, 66834, Control_c, 0, 64, 94
1, 66850, Control_c, 0, 64, 106
1, 66864, Control_c, 0, 64, 127
1, 66886, Note_off_c, 0, 57, 61
1, 66891, Note_on_c, 0, 35, 78
1, 66897, Note_off_c, 0, 37, 58
1, 67142, Note_on_c, 0, 38, 75
1, 67158, Note_off_c, 0, 35, 59
1, 67213, Note_off_c, 0, 69, 62
1, 67221, Note_on_c, 0, 68, 76
1, 67227, Control_c, 0, 64, 107
1, 67232, Note_on_c, 0, 59, 57
1, 67238, Note_on_c, 0, 57, 67
1, 67242, Control_c, 0, 64, 100
1, 67257, Control_c, 0, 64, 96
1, 67271, Control_c, 0, 64, 92
1, 67286, Control_c, 0, 64, 88
1, 67300, Note_off_c, 0, 45, 63
1, 67301, Control_c, 0, 64, 85
1, 67316, Control_c, 0, 64, 82
1, 67331, Control_c, 0, 64, 79
1, 67345, Control_c, 0, 64, 77
1, 67360, Control_c, 0, 64, 75
1, 67375, Control_c, 0, 64, 74
1, 67389, Control_c, 0, 64, 73
1, 67398, Note_off_c, 0, 64, 46
1, 67404, Control_c, 0, 64, 71
1, 67419, Control_c, 0, 64, 70
1, 67434, Control_c, 0, 64, 69
1, 67449, Control_c, 0, 64, 68
1, 67464, Control_c, 0, 64, 67
1, 67479, Control_c, 0, 64, 65
1, 67494, Control_c, 0, 64, 64
1, 67509, Control_c, 0, 64, 62
1, 67523, Control_c, 0, 64, 58
1, 67538, Control_c, 0, 64, 53
1, 67550, Note_on_c, 0, 45, 67
1, 67553, Control_c, 0, 64, 46
1, 67568, Control_c, 0, 64, 36
1, 67583, Control_c, 0, 64, 19
1, 67597, Control_c, 0, 64, 0
1, 67702, Control_c, 0, 64, 26
1, 67717, Control_c, 0, 64, 48
1, 67732, Control_c, 0, 64, 56
1, 67747, Control_c, 0, 64, 60
1, 67761, Control_c, 0, 64, 63
1, 67776, Control_c, 0, 64, 65
1, 67791, Control_c, 0, 64, 67
1, 67806, Control_c, 0, 64, 71
1, 67828, Control_c, 0, 64, 76
1, 67842, Control_c, 0, 64, 80
1, 67857, Control_c, 0, 64, 83
1, 67872, Control_c, 0, 64, 87
1, 67885, Note_on_c, 0, 66, 77
1, 67887, Control_c, 0, 64, 91
1, 67902, Control_c, 0, 64, 97
1, 67917, Control_c, 0, 64, 103
1, 67932, Control_c, 0, 64, 109
1, 67939, Note_off_c, 0, 45, 60
1, 67947, Control_c, 0, 64, 113
1, 67960, Note_off_c, 0, 68, 60
1, 67962, Control_c, 0, 64, 119
1, 67976, Control_c, 0, 64, 127
1, 68018, Note_off_c, 0, 59, 36
1, 68024, Note_off_c, 0, 57, 37
1, 68125, Note_off_c, 0, 66, 59
1, 68145, Note_on_c, 0, 45, 72
1, 68410, Note_on_c, 0, 64, 76
1, 68422, Note_on_c, 0, 37, 69
1, 68434, Note_on_c, 0, 52, 52
1, 68435, Note_off_c, 0, 38, 57
1, 68436, Note_on_c, 0, 57, 53
1, 68465, Control_c, 0, 64, 97
1, 68480, Control_c, 0, 64, 78
1, 68495, Control_c, 0, 64, 63
1, 68510, Control_c, 0, 64, 40
1, 68525, Control_c, 0, 64, 21
1, 68540, Control_c, 0, 64, 26
1, 68555, Control_c, 0, 64, 42
1, 68577, Control_c, 0, 64, 54
1, 68591, Control_c, 0, 64, 63
1, 68606, Control_c, 0, 64, 68
1, 68621, Control_c, 0, 64, 76
1, 68636, Control_c, 0, 64, 83
1, 68650, Control_c, 0, 64, 89
1, 68665, Control_c, 0, 64, 94
1, 68674, Note_on_c, 0, 62, 80
1, 68676, Note_off_c, 0, 37, 60
1, 68680, Control_c, 0, 64, 100
1, 68693, Note_on_c, 0, 35, 73
1, 68695, Control_c, 0, 64, 107
1, 68710, Control_c, 0, 64, 116
1, 68723, Note_off_c, 0, 64, 59
1, 68725, Control_c, 0, 64, 122
1, 68728, Note_off_c, 0, 52, 60
1, 68740, Control_c, 0, 64, 127
1, 68773, Note_off_c, 0, 57, 55
1, 68877, Note_off_c, 0, 35, 57
1, 68895, Note_on_c, 0, 38, 69
1, 68932, Control_c, 0, 64, 120
1, 68947, Control_c, 0, 64, 111
1, 68961, Control_c, 0, 64, 105
1, 68975, Note_off_c, 0, 62, 60
1, 68976, Control_c, 0, 64, 100
1, 68991, Control_c, 0, 64, 95
1, 68996, Note_on_c, 0, 61, 77
1, 69006, Control_c, 0, 64, 88
1, 69011, Note_on_c, 0, 54, 65
1, 69020, Note_on_c, 0, 57, 59
1, 69021, Control_c, 0, 64, 84
1, 69032, Note_off_c, 0, 45, 58
1, 69035, Control_c, 0, 64, 80
1, 69050, Control_c, 0, 64, 78
1, 69065, Control_c, 0, 64, 75
1, 69080, Control_c, 0, 64, 73
1, 69095, Control_c, 0, 64, 72
1, 69109, Control_c, 0, 64, 70
1, 69124, Control_c, 0, 64, 70
1, 69139, Control_c, 0, 64, 69
1, 69154, Control_c, 0, 64, 68
1, 69169, Control_c, 0, 64, 68
1, 69184, Control_c, 0, 64, 67
1, 69199, Control_c, 0, 64, 66
1, 69214, Control_c, 0, 64, 65
1, 69229, Control_c, 0, 64, 64
1, 69244, Control_c, 0, 64, 63
1, 69258, Control_c, 0, 64, 62
1, 69268, Note_on_c, 0, 45, 66
1, 69273, Control_c, 0, 64, 60
1, 69288, Control_c, 0, 64, 56
1, 69303, Control_c, 0, 64, 51
1, 69326, Control_c, 0, 64, 44
1, 69340, Control_c, 0, 64, 34
1, 69355, Control_c, 0, 64, 12
1, 69370, Control_c, 0, 64, 0
1, 69473, Control_c, 0, 64, 17
1, 69488, Control_c, 0, 64, 38
1, 69503, Control_c, 0, 64, 49
1, 69518, Control_c, 0, 64, 56
1, 69533, Control_c, 0, 64, 60
1, 69547, Control_c, 0, 64, 62
1, 69553, Note_on_c, 0, 59, 70
1, 69562, Control_c, 0, 64, 64
1, 69577, Control_c, 0, 64, 66
1, 69591, Control_c, 0, 64, 69
1, 69601, Note_off_c, 0, 61, 56
1, 69606, Control_c, 0, 64, 74
1, 69621, Control_c, 0, 64, 77
1, 69636, Control_c, 0, 64, 80
1, 69639, Note_off_c, 0, 45, 62
1, 69651, Control_c, 0, 64, 83
1, 69665, Control_c, 0, 64, 85
1, 69671, Note_off_c, 0, 54, 57
1, 69671, Note_off_c, 0, 57, 55
1, 69680, Control_c, 0, 64, 87
1, 69695, Control_c, 0, 64, 89
1, 69710, Control_c, 0, 64, 91
1, 69725, Control_c, 0, 64, 92
1, 69739, Control_c, 0, 64, 93
1, 69747, Note_off_c, 0, 59, 63
1, 69754, Control_c, 0, 64, 95
1, 69769, Control_c, 0, 64, 95
1, 69783, Control_c, 0, 64, 96
1, 69839, Note_on_c, 0, 45, 67
1, 69962, Control_c, 0, 64, 95
1, 69977, Control_c, 0, 64, 95
1, 69991, Control_c, 0, 64, 94
1, 70006, Control_c, 0, 64, 93
1, 70021, Control_c, 0, 64, 93
1, 70036, Control_c, 0, 64, 92
1, 70051, Control_c, 0, 64, 91
1, 70073, Note_on_c, 0, 37, 62
1, 70074, Control_c, 0, 64, 89
1, 70086, Note_off_c, 0, 38, 53
1, 70088, Control_c, 0, 64, 88
1, 70103, Control_c, 0, 64, 86
1, 70114, Note_on_c, 0, 69, 80
1, 70118, Control_c, 0, 64, 82
1, 70127, Note_on_c, 0, 57, 59
1, 70130, Note_on_c, 0, 64, 66
1, 70133, Control_c, 0, 64, 76
1, 70148, Control_c, 0, 64, 70
1, 70162, Control_c, 0, 64, 61
1, 70177, Control_c, 0, 64, 45
1, 70192, Control_c, 0, 64, 0
1, 70281, Control_c, 0, 64, 40
1, 70296, Control_c, 0, 64, 57
1, 70311, Control_c, 0, 64, 64
1, 70326, Control_c, 0, 64, 68
1, 70333, Note_off_c, 0, 37, 55
1, 70340, Control_c, 0, 64, 71
1, 70355, Control_c, 0, 64, 75
1, 70356, Note_off_c, 0, 57, 54
1, 70364, Note_on_c, 0, 35, 65
1, 70370, Control_c, 0, 64, 79
1, 70385, Control_c, 0, 64, 84
1, 70400, Control_c, 0, 64, 88
1, 70414, Control_c, 0, 64, 91
1, 70421, Note_off_c, 0, 69, 59
1, 70429, Control_c, 0, 64, 92
1, 70444, Control_c, 0, 64, 92
1, 70533, Control_c, 0, 67, 8
1, 70548, Control_c, 0, 67, 8
1, 70562, Control_c, 0, 64, 92
1, 70574, Note_off_c, 0, 35, 34
1, 70577, Control_c, 0, 64, 91
1, 70577, Control_c, 0, 67, 9
1, 70582, Note_on_c, 0, 38, 57
1, 70592, Control_c, 0, 64, 90
1, 70606, Control_c, 0, 64, 89
1, 70621, Control_c, 0, 64, 87
1, 70636, Control_c, 0, 64, 86
1, 70651, Control_c, 0, 64, 84
1, 70666, Control_c, 0, 64, 81
1, 70680, Control_c, 0, 64, 79
1, 70692, Note_on_c, 0, 67, 76
1, 70695, Control_c, 0, 64, 77
1, 70704, Note_on_c, 0, 57, 57
1, 70706, Note_on_c, 0, 59, 60
1, 70710, Control_c, 0, 64, 75
1, 70725, Control_c, 0, 64, 73
1, 70740, Control_c, 0, 64, 71
1, 70740, Note_off_c, 0, 45, 60
1, 70755, Control_c, 0, 64, 70
1, 70755, Control_c, 0, 67, 9
1, 70769, Note_off_c, 0, 64, 56
1, 70770, Control_c, 0, 64, 68
1, 70785, Control_c, 0, 64, 67
1, 70799, Control_c, 0, 64, 65
1, 70821, Control_c, 0, 64, 64
1, 70837, Control_c, 0, 64, 63
1, 70837, Control_c, 0, 67, 10
1, 70852, Control_c, 0, 64, 62
1, 70852, Control_c, 0, 67, 10
1, 70867, Control_c, 0, 64, 62
1, 70911, Control_c, 0, 64, 61
1, 70911, Control_c, 0, 67, 11
1, 70926, Control_c, 0, 64, 60
1, 70941, Control_c, 0, 64, 60
1, 70941, Control_c, 0, 67, 12
1, 70956, Control_c, 0, 64, 59
1, 70956, Control_c, 0, 67, 13
1, 70971, Control_c, 0, 64, 58
1, 70985, Control_c, 0, 64, 58
1, 71000, Control_c, 0, 64, 57
1, 71015, Control_c, 0, 64, 57
1, 71029, Control_c, 0, 64, 56
1, 71044, Control_c, 0, 64, 55
1, 71059, Control_c, 0, 64, 54
1, 71061, Note_on_c, 0, 45, 50
1, 71074, Control_c, 0, 64, 53
1, 71089, Control_c, 0, 64, 52
1, 71104, Control_c, 0, 64, 51
1, 71118, Control_c, 0, 64, 49
1, 71133, Control_c, 0, 64, 46
1, 71133, Control_c, 0, 67, 13
1, 71148, Control_c, 0, 64, 43
1, 71162, Control_c, 0, 64, 38
1, 71177, Control_c, 0, 64, 32
1, 71192, Control_c, 0, 64, 25
1, 71207, Control_c, 0, 64, 8
1, 71207, Control_c, 0, 67, 12
1, 71222, Control_c, 0, 64, 0
1, 71236, Control_c, 0, 67, 12
1, 71281, Control_c, 0, 67, 11
1, 71354, Control_c, 0, 64, 32
1, 71366, Note_on_c, 0, 65, 68
1, 71369, Control_c, 0, 64, 45
1, 71384, Control_c, 0, 64, 55
1, 71399, Control_c, 0, 64, 60
1, 71414, Control_c, 0, 64, 63
1, 71428, Control_c, 0, 64, 65
1, 71428, Control_c, 0, 67, 12
1, 71440, Note_off_c, 0, 67, 54
1, 71443, Control_c, 0, 64, 67
1, 71443, Control_c, 0, 67, 13
1, 71458, Control_c, 0, 64, 69
1, 71458, Control_c, 0, 67, 13
1, 71473, Control_c, 0, 64, 72
1, 71473, Control_c, 0, 67, 14
1, 71488, Control_c, 0, 64, 74
1, 71488, Control_c, 0, 67, 14
1, 71495, Note_off_c, 0, 45, 54
1, 71503, Control_c, 0, 64, 76
1, 71518, Control_c, 0, 64, 79
1, 71518, Control_c, 0, 67, 15
1, 71533, Control_c, 0, 64, 80
1, 71548, Control_c, 0, 64, 82
1, 71569, Control_c, 0, 64, 83
1, 71583, Note_off_c, 0, 59, 27
1, 71584, Control_c, 0, 64, 84
1, 71599, Control_c, 0, 67, 15
1, 71614, Control_c, 0, 67, 16
1, 71629, Control_c, 0, 64, 84
1, 71629, Control_c, 0, 67, 21
1, 71645, Control_c, 0, 64, 85
1, 71645, Control_c, 0, 67, 26
1, 71659, Control_c, 0, 64, 86
1, 71659, Control_c, 0, 67, 31
1, 71663, Note_off_c, 0, 57, 33
1, 71674, Control_c, 0, 64, 86
1, 71674, Control_c, 0, 67, 35
1, 71688, Note_off_c, 0, 65, 53
1, 71689, Control_c, 0, 64, 87
1, 71689, Control_c, 0, 67, 40
1, 71700, Note_on_c, 0, 45, 52
1, 71704, Control_c, 0, 64, 87
1, 71704, Control_c, 0, 67, 44
1, 71719, Control_c, 0, 64, 88
1, 71719, Control_c, 0, 67, 48
1, 71733, Control_c, 0, 67, 50
1, 71763, Control_c, 0, 64, 88
1, 71778, Control_c, 0, 67, 49
1, 71852, Control_c, 0, 67, 50
1, 71882, Control_c, 0, 67, 50
1, 71941, Control_c, 0, 64, 88
1, 71971, Control_c, 0, 67, 50
1, 72000, Control_c, 0, 64, 87
1, 72015, Control_c, 0, 64, 86
1, 72030, Control_c, 0, 64, 84
1, 72045, Control_c, 0, 64, 83
1, 72045, Control_c, 0, 67, 49
1, 72059, Control_c, 0, 64, 81
1, 72072, Note_on_c, 0, 64, 55
1, 72074, Control_c, 0, 64, 78
1, 72077, Note_on_c, 0, 36, 54
1, 72089, Control_c, 0, 64, 75
1, 72089, Control_c, 0, 67, 50
1, 72090, Note_on_c, 0, 57, 37
1, 72091, Note_on_c, 0, 52, 44
1, 72104, Control_c, 0, 64, 71
1, 72119, Control_c, 0, 64, 66
1, 72126, Note_off_c, 0, 38, 29
1, 72133, Control_c, 0, 64, 60
1, 72148, Control_c, 0, 64, 51
1, 72148, Control_c, 0, 67, 50
1, 72163, Control_c, 0, 64, 34
1, 72177, Control_c, 0, 64, 0
1, 72192, Control_c, 0, 67, 51
1, 72266, Control_c, 0, 64, 13
1, 72281, Control_c, 0, 64, 40
1, 72296, Control_c, 0, 64, 54
1, 72319, Control_c, 0, 64, 61
1, 72333, Control_c, 0, 64, 63
1, 72333, Control_c, 0, 67, 53
1, 72348, Control_c, 0, 64, 64
1, 72348, Control_c, 0, 67, 55
1, 72363, Control_c, 0, 64, 66
1, 72363, Control_c, 0, 67, 58
1, 72378, Control_c, 0, 64, 69
1, 72378, Control_c, 0, 67, 59
1, 72392, Control_c, 0, 64, 72
1, 72392, Control_c, 0, 67, 63
1, 72402, Note_on_c, 0, 62, 65
1, 72403, Note_on_c, 0, 35, 57
1, 72407, Control_c, 0, 64, 75
1, 72407, Control_c, 0, 67, 66
1, 72422, Control_c, 0, 64, 78
1, 72422, Control_c, 0, 67, 69
1, 72428, Note_off_c, 0, 36, 53
1, 72438, Control_c, 0, 64, 79
1, 72438, Control_c, 0, 67, 72
1, 72453, Note_off_c, 0, 64, 38
1, 72453, Control_c, 0, 64, 80
1, 72453, Control_c, 0, 67, 74
1, 72468, Control_c, 0, 64, 81
1, 72468, Control_c, 0, 67, 75
1, 72478, Note_off_c, 0, 52, 42
1, 72482, Control_c, 0, 67, 77
1, 72496, Note_off_c, 0, 57, 41
1, 72497, Control_c, 0, 67, 77
1, 72528, Control_c, 0, 67, 78
1, 72543, Control_c, 0, 67, 79
1, 72557, Control_c, 0, 67, 83
1, 72572, Control_c, 0, 67, 86
1, 72587, Control_c, 0, 67, 88
1, 72602, Control_c, 0, 67, 91
1, 72616, Control_c, 0, 67, 93
1, 72631, Control_c, 0, 67, 96
1, 72646, Control_c, 0, 64, 80
1, 72646, Control_c, 0, 67, 97
1, 72661, Control_c, 0, 64, 80
1, 72661, Control_c, 0, 67, 98
1, 72676, Control_c, 0, 64, 79
1, 72676, Control_c, 0, 67, 100
1, 72684, Note_on_c, 0, 38, 52
1, 72690, Control_c, 0, 64, 78
1, 72690, Control_c, 0, 67, 100
1, 72697, Note_off_c, 0, 35, 50
1, 72705, Control_c, 0, 64, 78
1, 72720, Control_c, 0, 64, 77
1, 72720, Control_c, 0, 67, 101
1, 72735, Control_c, 0, 64, 76
1, 72750, Control_c, 0, 64, 74
1, 72750, Control_c, 0, 67, 101
1, 72764, Control_c, 0, 64, 72
1, 72764, Control_c, 0, 67, 103
1, 72777, Note_on_c, 0, 60, 52
1, 72779, Control_c, 0, 64, 70
1, 72779, Control_c, 0, 67, 104
1, 72788, Note_on_c, 0, 57, 41
1, 72794, Control_c, 0, 64, 68
1, 72794, Control_c, 0, 67, 105
1, 72801, Note_on_c, 0, 53, 47
1, 72809, Control_c, 0, 64, 66
1, 72809, Control_c, 0, 67, 106
1, 72824, Control_c, 0, 64, 64
1, 72824, Control_c, 0, 67, 108
1, 72838, Control_c, 0, 64, 61
1, 72838, Control_c, 0, 67, 109
1, 72853, Control_c, 0, 64, 58
1, 72853, Control_c, 0, 67, 109
1, 72855, Note_off_c, 0, 62, 30
1, 72868, Control_c, 0, 64, 56
1, 72868, Control_c, 0, 67, 110
1, 72883, Control_c, 0, 64, 55
1, 72883, Control_c, 0, 67, 112
1, 72898, Control_c, 0, 64, 54
1, 72898, Control_c, 0, 67, 113
1, 72913, Control_c, 0, 64, 53
1, 72913, Control_c, 0, 67, 114
1, 72928, Control_c, 0, 64, 52
1, 72928, Control_c, 0, 67, 115
1, 72943, Control_c, 0, 64, 51
1, 72943, Control_c, 0, 67, 117
1, 72957, Control_c, 0, 64, 50
1, 72957, Control_c, 0, 67, 118
1, 72972, Control_c, 0, 64, 49
1, 72972, Control_c, 0, 67, 119
1, 72987, Control_c, 0, 64, 48
1, 72987, Control_c, 0, 67, 120
1, 73001, Control_c, 0, 64, 47
1, 73001, Control_c, 0, 67, 121
1, 73008, Note_off_c, 0, 45, 48
1, 73016, Control_c, 0, 64, 46
1, 73016, Control_c, 0, 67, 123
1, 73031, Control_c, 0, 64, 46
1, 73031, Control_c, 0, 67, 124
1, 73046, Control_c, 0, 64, 45
1, 73046, Control_c, 0, 67, 124
1, 73068, Control_c, 0, 64, 44
1, 73068, Control_c, 0, 67, 125
1, 73083, Control_c, 0, 64, 44
1, 73098, Control_c, 0, 64, 43
1, 73113, Control_c, 0, 64, 42
1, 73113, Control_c, 0, 67, 125
1, 73128, Control_c, 0, 64, 42
1, 73142, Control_c, 0, 64, 41
1, 73142, Control_c, 0, 67, 126
1, 73157, Control_c, 0, 64, 41
1, 73172, Control_c, 0, 64, 40
1, 73187, Control_c, 0, 64, 39
1, 73187, Note_on_c, 0, 45, 37
1, 73202, Control_c, 0, 64, 38
1, 73202, Control_c, 0, 67, 126
1, 73216, Control_c, 0, 64, 37
1, 73232, Control_c, 0, 64, 35
1, 73232, Control_c, 0, 67, 127
1, 73247, Control_c, 0, 64, 33
1, 73262, Control_c, 0, 64, 31
1, 73262, Control_c, 0, 67, 127
1, 73277, Control_c, 0, 64, 29
1, 73292, Control_c, 0, 64, 26
1, 73306, Control_c, 0, 64, 23
1, 73321, Control_c, 0, 64, 17
1, 73336, Control_c, 0, 64, 8
1, 73351, Control_c, 0, 64, 0
1, 73625, Note_on_c, 0, 59, 39
1, 73676, Note_off_c, 0, 60, 35
1, 73706, Control_c, 0, 67, 127
1, 73721, Control_c, 0, 67, 126
1, 73736, Control_c, 0, 64, 33
1, 73736, Control_c, 0, 67, 125
1, 73750, Control_c, 0, 64, 47
1, 73750, Control_c, 0, 67, 124
1, 73765, Control_c, 0, 64, 55
1, 73765, Control_c, 0, 67, 124
1, 73780, Control_c, 0, 64, 58
1, 73795, Control_c, 0, 64, 60
1, 73795, Control_c, 0, 67, 123
1, 73817, Control_c, 0, 64, 62
1, 73831, Control_c, 0, 64, 64
1, 73831, Control_c, 0, 67, 123
1, 73846, Control_c, 0, 64, 66
1, 73846, Control_c, 0, 67, 122
1, 73861, Control_c, 0, 64, 68
1, 73862, Note_off_c, 0, 45, 58
1, 73876, Control_c, 0, 64, 70
1, 73876, Control_c, 0, 67, 122
1, 73891, Control_c, 0, 64, 73
1, 73906, Control_c, 0, 64, 76
1, 73920, Control_c, 0, 64, 79
1, 73935, Control_c, 0, 64, 82
1, 73950, Control_c, 0, 64, 84
1, 73965, Control_c, 0, 64, 87
1, 73980, Control_c, 0, 64, 90
1, 73995, Control_c, 0, 64, 94
1, 73995, Control_c, 0, 67, 121
1, 74010, Control_c, 0, 64, 97
1, 74025, Control_c, 0, 64, 99
1, 74025, Control_c, 0, 67, 122
1, 74040, Control_c, 0, 64, 102
1, 74055, Control_c, 0, 64, 106
1, 74070, Control_c, 0, 64, 111
1, 74084, Control_c, 0, 64, 116
1, 74099, Control_c, 0, 64, 119
1, 74114, Control_c, 0, 64, 122
1, 74123, Note_on_c, 0, 45, 26
1, 74123, Note_off_c, 0, 53, 31
1, 74129, Control_c, 0, 64, 127
1, 74179, Note_off_c, 0, 57, 41
1, 74185, Note_off_c, 0, 38, 41
1, 74212, Note_off_c, 0, 45, 56
1, 74218, Control_c, 0, 67, 121
1, 74235, Note_off_c, 0, 59, 47
1, 74440, Control_c, 0, 67, 121
1, 74529, Control_c, 0, 67, 120
1, 74566, Control_c, 0, 67, 121
1, 74595, Control_c, 0, 67, 121
1, 74610, Control_c, 0, 67, 122
1, 74625, Control_c, 0, 67, 122
1, 74640, Control_c, 0, 67, 123
1, 74654, Control_c, 0, 67, 123
1, 74699, Control_c, 0, 67, 124
1, 74758, Control_c, 0, 64, 122
1, 74773, Control_c, 0, 64, 118
1, 74787, Control_c, 0, 64, 116
1, 74802, Control_c, 0, 64, 113
1, 74817, Control_c, 0, 64, 111
1, 74833, Control_c, 0, 64, 110
1, 74833, Control_c, 0, 67, 124
1, 74848, Control_c, 0, 64, 109
1, 74848, Control_c, 0, 67, 125
1, 74862, Control_c, 0, 64, 107
1, 74862, Control_c, 0, 67, 126
1, 74877, Control_c, 0, 64, 105
1, 74877, Control_c, 0, 67, 127
1, 74892, Control_c, 0, 64, 103
1, 74892, Control_c, 0, 67, 127
1, 74907, Control_c, 0, 64, 101
1, 74922, Control_c, 0, 64, 100
1, 74937, Control_c, 0, 64, 99
1, 74951, Control_c, 0, 64, 97
1, 74966, Control_c, 0, 64, 94
1, 74981, Control_c, 0, 64, 92
1, 74996, Control_c, 0, 64, 90
1, 75010, Control_c, 0, 64, 88
1, 75025, Control_c, 0, 64, 87
1, 75040, Control_c, 0, 64, 85
1, 75055, Control_c, 0, 64, 84
1, 75070, Control_c, 0, 64, 82
1, 75084, Control_c, 0, 64, 80
1, 75099, Control_c, 0, 64, 78
1, 75114, Control_c, 0, 64, 76
1, 75116, Note_on_c, 0, 80, 59
1, 75127, Note_on_c, 0, 76, 51
1, 75129, Control_c, 0, 64, 74
1, 75131, Note_on_c, 0, 69, 49
1, 75144, Control_c, 0, 64, 72
1, 75158, Control_c, 0, 64, 70
1, 75173, Control_c, 0, 64, 66
1, 75179, Note_on_c, 0, 64, 39
1, 75181, Note_on_c, 0, 57, 41
1, 75188, Control_c, 0, 64, 61
1, 75193, Note_on_c, 0, 49, 39
1, 75196, Note_on_c, 0, 52, 39
1, 75202, Control_c, 0, 64, 54
1, 75217, Control_c, 0, 64, 46
1, 75232, Control_c, 0, 64, 33
1, 75247, Control_c, 0, 64, 0
1, 75343, Control_c, 0, 64, 25
1, 75358, Control_c, 0, 64, 47
1, 75373, Control_c, 0, 64, 59
1, 75388, Control_c, 0, 64, 63
1, 75391, Note_off_c, 0, 64, 55
1, 75402, Control_c, 0, 64, 65
1, 75417, Control_c, 0, 64, 68
1, 75432, Control_c, 0, 64, 72
1, 75441, Note_off_c, 0, 49, 0
1, 75446, Note_off_c, 0, 57, 41
1, 75447, Control_c, 0, 64, 78
1, 75462, Control_c, 0, 64, 83
1, 75475, Note_off_c, 0, 52, 34
1, 75477, Control_c, 0, 64, 87
1, 75491, Control_c, 0, 64, 90
1, 75506, Control_c, 0, 64, 94
1, 75521, Control_c, 0, 64, 99
1, 75536, Control_c, 0, 64, 105
1, 75551, Control_c, 0, 64, 114
1, 75557, Poly_aftertouch_c, 0, 49, 0
1, 75566, Control_c, 0, 64, 127
1, 75663, Note_on_c, 0, 81, 49
1, 75685, Control_c, 0, 67, 127
1, 75699, Note_off_c, 0, 76, 58
1, 75718, Note_off_c, 0, 80, 56
1, 75745, Control_c, 0, 67, 126
1, 75789, Control_c, 0, 67, 126
1, 75878, Control_c, 0, 67, 125
1, 76011, Control_c, 0, 67, 126
1, 76063, Control_c, 0, 64, 122
1, 76078, Control_c, 0, 64, 115
1, 76093, Control_c, 0, 64, 111
1, 76107, Control_c, 0, 64, 108
1, 76122, Control_c, 0, 64, 105
1, 76137, Control_c, 0, 64, 102
1, 76137, Control_c, 0, 67, 126
1, 76151, Note_on_c, 0, 74, 31
1, 76152, Control_c, 0, 64, 98
1, 76153, Note_on_c, 0, 78, 50
1, 76166, Control_c, 0, 64, 94
1, 76181, Control_c, 0, 64, 91
1, 76196, Control_c, 0, 64, 87
1, 76201, Note_off_c, 0, 81, 58
1, 76208, Note_on_c, 0, 45, 32
1, 76211, Control_c, 0, 64, 83
1, 76211, Control_c, 0, 67, 127
1, 76216, Note_on_c, 0, 38, 35
1, 76225, Control_c, 0, 64, 79
1, 76240, Control_c, 0, 64, 74
1, 76255, Control_c, 0, 64, 67
1, 76271, Control_c, 0, 64, 59
1, 76286, Control_c, 0, 64, 47
1, 76300, Control_c, 0, 64, 39
1, 76315, Control_c, 0, 64, 42
1, 76330, Control_c, 0, 64, 50
1, 76345, Control_c, 0, 64, 59
1, 76345, Control_c, 0, 67, 126
1, 76359, Control_c, 0, 64, 64
1, 76374, Control_c, 0, 64, 68
1, 76389, Control_c, 0, 64, 73
1, 76389, Control_c, 0, 67, 126
1, 76404, Control_c, 0, 64, 79
1, 76419, Control_c, 0, 64, 84
1, 76433, Note_off_c, 0, 74, 56
1, 76435, Control_c, 0, 64, 88
1, 76435, Control_c, 0, 67, 125
1, 76446, Note_off_c, 0, 38, 41
1, 76449, Control_c, 0, 64, 93
1, 76464, Control_c, 0, 64, 98
1, 76464, Control_c, 0, 67, 125
1, 76479, Control_c, 0, 64, 103
1, 76492, Note_off_c, 0, 45, 41
1, 76494, Control_c, 0, 64, 108
1, 76494, Control_c, 0, 67, 124
1, 76509, Control_c, 0, 64, 111
1, 76524, Control_c, 0, 64, 116
1, 76538, Control_c, 0, 64, 124
1, 76553, Control_c, 0, 64, 127
1, 76553, Control_c, 0, 67, 124
1, 76597, Control_c, 0, 67, 123
1, 76612, Control_c, 0, 67, 123
1, 76627, Control_c, 0, 67, 122
1, 76642, Control_c, 0, 67, 122
1, 76672, Control_c, 0, 67, 121
1, 76702, Control_c, 0, 67, 121
1, 76760, Note_on_c, 0, 68, 45
1, 76827, Control_c, 0, 67, 120
1, 76848, Note_off_c, 0, 69, 52
1, 76901, Control_c, 0, 67, 120
1, 76954, Note_off_c, 0, 68, 59
1, 76990, Control_c, 0, 67, 119
1, 77064, Control_c, 0, 64, 113
1, 77064, Control_c, 0, 67, 120
1, 77079, Control_c, 0, 64, 108
1, 77089, Note_on_c, 0, 69, 51
1, 77094, Control_c, 0, 64, 103
1, 77094, Control_c, 0, 67, 120
1, 77109, Control_c, 0, 64, 97
1, 77112, Note_on_c, 0, 54, 39
1, 77117, Note_on_c, 0, 50, 42
1, 77124, Control_c, 0, 64, 92
1, 77124, Control_c, 0, 67, 121
1, 77138, Control_c, 0, 64, 87
1, 77153, Control_c, 0, 64, 80
1, 77168, Control_c, 0, 64, 73
1, 77182, Control_c, 0, 64, 66
1, 77197, Control_c, 0, 64, 56
1, 77212, Control_c, 0, 64, 43
1, 77228, Control_c, 0, 64, 37
1, 77243, Control_c, 0, 64, 41
1, 77258, Control_c, 0, 64, 51
1, 77273, Control_c, 0, 64, 58
1, 77273, Control_c, 0, 67, 120
1, 77287, Control_c, 0, 64, 64
1, 77302, Control_c, 0, 64, 67
1, 77302, Control_c, 0, 67, 120
1, 77317, Control_c, 0, 64, 72
1, 77317, Control_c, 0, 67, 119
1, 77332, Control_c, 0, 64, 77
1, 77346, Control_c, 0, 64, 82
1, 77346, Control_c, 0, 67, 118
1, 77361, Control_c, 0, 64, 87
1, 77361, Control_c, 0, 67, 117
1, 77366, Note_off_c, 0, 69, 62
1, 77376, Control_c, 0, 64, 92
1, 77376, Control_c, 0, 67, 115
1, 77391, Control_c, 0, 64, 97
1, 77391, Control_c, 0, 67, 114
1, 77399, Note_on_c, 0, 66, 57
1, 77405, Control_c, 0, 64, 102
1, 77405, Control_c, 0, 67, 112
1, 77406, Note_off_c, 0, 50, 41
1, 77410, Note_on_c, 0, 57, 44
1, 77420, Control_c, 0, 64, 108
1, 77420, Control_c, 0, 67, 111
1, 77435, Control_c, 0, 64, 116
1, 77435, Control_c, 0, 67, 110
1, 77447, Note_off_c, 0, 54, 40
1, 77447, Note_off_c, 0, 66, 58
1, 77448, Note_off_c, 0, 57, 63
1, 77450, Control_c, 0, 64, 127
1, 77450, Control_c, 0, 67, 109
1, 77480, Control_c, 0, 67, 108
1, 77501, Note_off_c, 0, 78, 62
1, 77509, Control_c, 0, 67, 108
1, 77709, Control_c, 0, 67, 107
1, 77739, Control_c, 0, 67, 107
1, 77754, Control_c, 0, 67, 106
1, 77769, Control_c, 0, 67, 105
1, 77849, Note_on_c, 0, 80, 63
1, 77858, Control_c, 0, 64, 118
1, 77861, Note_on_c, 0, 76, 51
1, 77863, Note_on_c, 0, 69, 51
1, 77872, Control_c, 0, 64, 108
1, 77887, Control_c, 0, 64, 101
1, 77887, Control_c, 0, 67, 106
1, 77902, Control_c, 0, 64, 95
1, 77917, Control_c, 0, 64, 89
1, 77931, Control_c, 0, 64, 84
1, 77937, Note_on_c, 0, 64, 49
1, 77946, Control_c, 0, 64, 77
1, 77948, Note_on_c, 0, 57, 45
1, 77956, Note_on_c, 0, 52, 47
1, 77961, Control_c, 0, 64, 68
1, 77966, Note_on_c, 0, 49, 44
1, 77976, Control_c, 0, 64, 59
1, 77991, Control_c, 0, 64, 44
1, 78005, Control_c, 0, 64, 35
1, 78021, Control_c, 0, 64, 40
1, 78036, Control_c, 0, 64, 51
1, 78051, Control_c, 0, 64, 60
1, 78066, Control_c, 0, 64, 68
1, 78081, Control_c, 0, 64, 74
1, 78095, Control_c, 0, 64, 83
1, 78110, Control_c, 0, 64, 89
1, 78125, Control_c, 0, 64, 94
1, 78135, Note_off_c, 0, 64, 33
1, 78140, Control_c, 0, 64, 100
1, 78155, Control_c, 0, 64, 109
1, 78169, Control_c, 0, 64, 119
1, 78184, Control_c, 0, 64, 127
1, 78212, Note_off_c, 0, 57, 33
1, 78213, Note_off_c, 0, 52, 39
1, 78271, Note_off_c, 0, 49, 35
1, 78288, Note_on_c, 0, 81, 62
1, 78308, Note_off_c, 0, 76, 57
1, 78342, Note_off_c, 0, 80, 56
1, 78356, Note_off_c, 0, 81, 60
1, 78532, Control_c, 0, 67, 106
1, 78666, Control_c, 0, 67, 107
1, 78710, Control_c, 0, 64, 117
1, 78725, Control_c, 0, 64, 113
1, 78732, Note_on_c, 0, 71, 48
1, 78740, Control_c, 0, 64, 109
1, 78754, Control_c, 0, 64, 105
1, 78766, Note_on_c, 0, 66, 42
1, 78769, Control_c, 0, 64, 99
1, 78784, Control_c, 0, 64, 93
1, 78785, Note_on_c, 0, 47, 42
1, 78794, Note_on_c, 0, 39, 45
1, 78799, Control_c, 0, 64, 86
1, 78799, Control_c, 0, 67, 107
1, 78814, Control_c, 0, 64, 79
1, 78830, Control_c, 0, 64, 72
1, 78830, Control_c, 0, 67, 107
1, 78844, Control_c, 0, 64, 63
1, 78859, Control_c, 0, 64, 48
1, 78859, Control_c, 0, 67, 106
1, 78874, Control_c, 0, 64, 28
1, 78889, Control_c, 0, 64, 17
1, 78889, Control_c, 0, 67, 106
1, 78904, Control_c, 0, 64, 23
1, 78904, Control_c, 0, 67, 105
1, 78918, Control_c, 0, 64, 37
1, 78918, Control_c, 0, 67, 105
1, 78933, Control_c, 0, 64, 51
1, 78933, Control_c, 0, 67, 104
1, 78948, Control_c, 0, 64, 60
1, 78948, Control_c, 0, 67, 103
1, 78963, Control_c, 0, 64, 66
1, 78963, Control_c, 0, 67, 101
1, 78977, Control_c, 0, 64, 70
1, 78977, Control_c, 0, 67, 99
1, 78992, Control_c, 0, 64, 73
1, 78992, Control_c, 0, 67, 97
1, 79007, Control_c, 0, 64, 77
1, 79007, Control_c, 0, 67, 95
1, 79022, Control_c, 0, 64, 80
1, 79022, Control_c, 0, 67, 93
1, 79025, Note_off_c, 0, 39, 39
1, 79031, Note_off_c, 0, 47, 44
1, 79037, Control_c, 0, 64, 83
1, 79037, Control_c, 0, 67, 90
1, 79059, Control_c, 0, 64, 86
1, 79059, Control_c, 0, 67, 88
1, 79074, Control_c, 0, 64, 90
1, 79074, Control_c, 0, 67, 87
1, 79089, Control_c, 0, 64, 93
1, 79089, Control_c, 0, 67, 87
1, 79104, Control_c, 0, 64, 96
1, 79104, Control_c, 0, 67, 86
1, 79119, Control_c, 0, 64, 98
1, 79133, Control_c, 0, 64, 99
1, 79133, Control_c, 0, 67, 86
1, 79148, Control_c, 0, 64, 102
1, 79163, Control_c, 0, 64, 105
1, 79163, Control_c, 0, 67, 85
1, 79176, Note_on_c, 0, 68, 53
1, 79177, Control_c, 0, 64, 106
1, 79192, Control_c, 0, 64, 108
1, 79206, Note_off_c, 0, 69, 50
1, 79207, Control_c, 0, 64, 108
1, 79222, Control_c, 0, 64, 109
1, 79222, Control_c, 0, 67, 85
1, 79237, Control_c, 0, 67, 84
1, 79251, Control_c, 0, 64, 109
1, 79251, Control_c, 0, 67, 82
1, 79266, Control_c, 0, 64, 110
1, 79311, Control_c, 0, 67, 82
1, 79414, Control_c, 0, 67, 81
1, 79429, Control_c, 0, 64, 109
1, 79459, Control_c, 0, 64, 109
1, 79474, Control_c, 0, 64, 106
1, 79489, Control_c, 0, 64, 103
1, 79504, Control_c, 0, 64, 98
1, 79519, Control_c, 0, 64, 93
1, 79523, Note_on_c, 0, 69, 47
1, 79533, Control_c, 0, 64, 88
1, 79548, Control_c, 0, 64, 81
1, 79549, Note_on_c, 0, 51, 29
1, 79549, Note_on_c, 0, 54, 35
1, 79563, Control_c, 0, 64, 70
1, 79574, Note_off_c, 0, 66, 40
1, 79577, Control_c, 0, 64, 61
1, 79592, Control_c, 0, 64, 47
1, 79594, Note_off_c, 0, 68, 35
1, 79607, Control_c, 0, 64, 37
1, 79607, Control_c, 0, 67, 81
1, 79623, Control_c, 0, 64, 39
1, 79623, Control_c, 0, 67, 78
1, 79638, Control_c, 0, 64, 49
1, 79638, Control_c, 0, 67, 77
1, 79653, Control_c, 0, 64, 58
1, 79653, Control_c, 0, 67, 76
1, 79667, Control_c, 0, 64, 65
1, 79682, Control_c, 0, 64, 70
1, 79682, Control_c, 0, 67, 76
1, 79697, Control_c, 0, 64, 76
1, 79697, Control_c, 0, 67, 75
1, 79712, Control_c, 0, 64, 83
1, 79712, Control_c, 0, 67, 75
1, 79727, Control_c, 0, 64, 88
1, 79727, Control_c, 0, 67, 74
1, 79741, Control_c, 0, 64, 94
1, 79741, Control_c, 0, 67, 71
1, 79756, Control_c, 0, 64, 101
1, 79756, Control_c, 0, 67, 68
1, 79771, Control_c, 0, 64, 113
1, 79771, Control_c, 0, 67, 66
1, 79786, Control_c, 0, 64, 127
1, 79786, Control_c, 0, 67, 64
1, 79808, Control_c, 0, 67, 63
1, 79823, Control_c, 0, 67, 61
1, 79838, Control_c, 0, 67, 59
1, 79852, Control_c, 0, 67, 57
1, 79867, Control_c, 0, 67, 55
1, 79882, Control_c, 0, 67, 53
1, 79897, Control_c, 0, 67, 52
1, 79900, Note_off_c, 0, 54, 39
1, 79903, Note_on_c, 0, 57, 35
1, 79906, Note_on_c, 0, 59, 42
1, 79912, Control_c, 0, 67, 51
1, 79927, Control_c, 0, 67, 50
1, 79942, Control_c, 0, 67, 48
1, 79955, Note_off_c, 0, 57, 46
1, 79956, Control_c, 0, 67, 46
1, 79971, Control_c, 0, 67, 45
1, 79986, Control_c, 0, 67, 43
1, 79989, Note_off_c, 0, 59, 57
1, 79996, Note_off_c, 0, 69, 37
1, 80000, Control_c, 0, 67, 41
1, 80015, Control_c, 0, 67, 38
1, 80030, Control_c, 0, 67, 36
1, 80045, Control_c, 0, 67, 35
1, 80060, Control_c, 0, 67, 34
1, 80062, Note_off_c, 0, 51, 29
1, 80074, Control_c, 0, 67, 33
1, 80104, Control_c, 0, 67, 33
1, 80111, Note_off_c, 0, 71, 60
1, 80148, Control_c, 0, 67, 32
1, 80163, Control_c, 0, 67, 30
1, 80178, Control_c, 0, 67, 27
1, 80192, Control_c, 0, 67, 25
1, 80252, Control_c, 0, 67, 25
1, 80341, Control_c, 0, 67, 24
1, 80365, Note_on_c, 0, 71, 44
1, 80386, Control_c, 0, 64, 122
1, 80392, Note_on_c, 0, 69, 40
1, 80400, Control_c, 0, 64, 101
1, 80401, Note_on_c, 0, 64, 34
1, 80407, Note_on_c, 0, 40, 34
1, 80416, Control_c, 0, 64, 89
1, 80431, Control_c, 0, 64, 78
1, 80446, Control_c, 0, 64, 68
1, 80461, Control_c, 0, 64, 60
1, 80475, Control_c, 0, 64, 52
1, 80490, Control_c, 0, 64, 52
1, 80490, Control_c, 0, 67, 24
1, 80505, Control_c, 0, 64, 57
1, 80505, Control_c, 0, 67, 23
1, 80520, Control_c, 0, 64, 61
1, 80520, Control_c, 0, 67, 20
1, 80535, Control_c, 0, 64, 65
1, 80535, Control_c, 0, 67, 18
1, 80557, Control_c, 0, 64, 69
1, 80557, Control_c, 0, 67, 17
1, 80571, Control_c, 0, 64, 76
1, 80571, Control_c, 0, 67, 16
1, 80586, Control_c, 0, 64, 83
1, 80586, Control_c, 0, 67, 14
1, 80601, Control_c, 0, 64, 89
1, 80601, Control_c, 0, 67, 12
1, 80616, Control_c, 0, 64, 94
1, 80616, Control_c, 0, 67, 9
1, 80630, Control_c, 0, 64, 101
1, 80630, Control_c, 0, 67, 0
1, 80645, Control_c, 0, 64, 110
1, 80660, Control_c, 0, 64, 127
1, 80664, Note_off_c, 0, 40, 35
1, 80720, Note_on_c, 0, 52, 44
1, 80777, Note_off_c, 0, 52, 56
1, 80857, Note_on_c, 0, 73, 65
1, 80888, Note_off_c, 0, 69, 42
1, 80891, Note_off_c, 0, 64, 42
1, 80906, Note_off_c, 0, 71, 45
1, 80938, Note_off_c, 0, 73, 62
1, 81038, Note_on_c, 0, 73, 68
1, 81047, Note_on_c, 0, 56, 48
1, 81054, Note_on_c, 0, 52, 44
1, 81054, Note_on_c, 0, 68, 56
1, 81060, Control_c, 0, 64, 115
1, 81067, Note_on_c, 0, 64, 40
1, 81075, Control_c, 0, 64, 94
1, 81089, Control_c, 0, 64, 81
1, 81104, Control_c, 0, 64, 68
1, 81119, Control_c, 0, 64, 58
1, 81134, Control_c, 0, 64, 49
1, 81163, Control_c, 0, 64, 55
1, 81178, Control_c, 0, 64, 62
1, 81193, Control_c, 0, 64, 67
1, 81208, Control_c, 0, 64, 73
1, 81224, Control_c, 0, 64, 82
1, 81238, Control_c, 0, 64, 92
1, 81253, Control_c, 0, 64, 101
1, 81268, Control_c, 0, 64, 115
1, 81283, Control_c, 0, 64, 127
1, 81361, Note_on_c, 0, 61, 56
1, 81367, Note_off_c, 0, 56, 40
1, 81395, Note_off_c, 0, 52, 50
1, 81464, Note_off_c, 0, 61, 61
1, 81483, Note_on_c, 0, 74, 75
1, 81516, Note_off_c, 0, 68, 58
1, 81528, Note_off_c, 0, 64, 60
1, 81530, Note_off_c, 0, 73, 55
1, 81571, Note_off_c, 0, 74, 62
1, 81670, Note_on_c, 0, 74, 74
1, 81689, Note_on_c, 0, 54, 49
1, 81691, Note_on_c, 0, 66, 58
1, 81700, Note_on_c, 0, 62, 55
1, 81701, Note_on_c, 0, 47, 41
1, 81704, Control_c, 0, 64, 107
1, 81719, Control_c, 0, 64, 94
1, 81733, Control_c, 0, 64, 82
1, 81748, Control_c, 0, 64, 71
1, 81763, Control_c, 0, 64, 62
1, 81778, Control_c, 0, 64, 52
1, 81793, Control_c, 0, 64, 50
1, 81808, Control_c, 0, 64, 54
1, 81823, Control_c, 0, 64, 60
1, 81837, Control_c, 0, 64, 64
1, 81852, Control_c, 0, 64, 69
1, 81867, Control_c, 0, 64, 76
1, 81882, Control_c, 0, 64, 86
1, 81897, Control_c, 0, 64, 93
1, 81911, Control_c, 0, 64, 101
1, 81926, Control_c, 0, 64, 110
1, 81941, Control_c, 0, 64, 127
1, 81953, Note_off_c, 0, 54, 49
1, 81961, Note_on_c, 0, 73, 75
1, 81975, Note_on_c, 0, 59, 49
1, 82014, Note_off_c, 0, 59, 64
1, 82049, Note_off_c, 0, 74, 54
1, 82079, Note_off_c, 0, 47, 36
1, 82084, Note_off_c, 0, 62, 48
1, 82361, Note_on_c, 0, 74, 64
1, 82371, Note_on_c, 0, 64, 52
1, 82376, Note_on_c, 0, 62, 56
1, 82393, Control_c, 0, 64, 104
1, 82397, Note_on_c, 0, 40, 47
1, 82408, Control_c, 0, 64, 94
1, 82423, Control_c, 0, 64, 86
1, 82438, Control_c, 0, 64, 78
1, 82453, Control_c, 0, 64, 71
1, 82467, Control_c, 0, 64, 63
1, 82474, Note_off_c, 0, 73, 54
1, 82482, Control_c, 0, 64, 49
1, 82497, Control_c, 0, 64, 31
1, 82501, Note_off_c, 0, 66, 60
1, 82512, Control_c, 0, 64, 0
1, 82556, Control_c, 0, 64, 19
1, 82571, Control_c, 0, 64, 38
1, 82586, Control_c, 0, 64, 55
1, 82601, Control_c, 0, 64, 63
1, 82616, Control_c, 0, 64, 66
1, 82631, Control_c, 0, 64, 68
1, 82646, Control_c, 0, 64, 72
1, 82660, Control_c, 0, 64, 77
1, 82675, Control_c, 0, 64, 83
1, 82690, Control_c, 0, 64, 90
1, 82705, Control_c, 0, 64, 96
1, 82720, Control_c, 0, 64, 104
1, 82735, Control_c, 0, 64, 114
1, 82749, Control_c, 0, 64, 127
1, 82759, Note_off_c, 0, 40, 40
1, 82801, Control_c, 0, 67, 9
1, 82810, Note_on_c, 0, 68, 68
1, 82815, Note_off_c, 0, 74, 58
1, 82816, Control_c, 0, 67, 11
1, 82824, Note_on_c, 0, 52, 39
1, 82831, Control_c, 0, 67, 12
1, 82846, Control_c, 0, 67, 14
1, 82861, Control_c, 0, 67, 16
1, 82876, Control_c, 0, 67, 21
1, 82890, Control_c, 0, 67, 26
1, 82905, Control_c, 0, 67, 31
1, 82920, Control_c, 0, 67, 36
1, 82935, Control_c, 0, 67, 39
1, 82950, Control_c, 0, 67, 43
1, 82965, Control_c, 0, 67, 47
1, 82979, Control_c, 0, 67, 51
1, 82994, Control_c, 0, 67, 54
1, 82999, Note_off_c, 0, 64, 33
1, 83010, Control_c, 0, 67, 58
1, 83024, Control_c, 0, 67, 61
1, 83039, Control_c, 0, 67, 64
1, 83054, Control_c, 0, 67, 66
1, 83062, Note_off_c, 0, 62, 38
1, 83069, Control_c, 0, 67, 69
1, 83084, Control_c, 0, 67, 70
1, 83179, Note_off_c, 0, 68, 36
1, 83203, Control_c, 0, 67, 70
1, 83217, Control_c, 0, 67, 71
1, 83232, Control_c, 0, 67, 71
1, 83247, Control_c, 0, 67, 72
1, 83262, Control_c, 0, 67, 75
1, 83277, Control_c, 0, 67, 78
1, 83281, Note_on_c, 0, 45, 45
1, 83291, Control_c, 0, 64, 116
1, 83291, Control_c, 0, 67, 80
1, 83306, Control_c, 0, 64, 108
1, 83306, Control_c, 0, 67, 80
1, 83321, Control_c, 0, 64, 101
1, 83334, Note_on_c, 0, 68, 53
1, 83335, Control_c, 0, 64, 96
1, 83337, Note_off_c, 0, 52, 34
1, 83350, Control_c, 0, 64, 92
1, 83350, Control_c, 0, 67, 80
1, 83353, Note_on_c, 0, 62, 53
1, 83365, Control_c, 0, 64, 89
1, 83380, Control_c, 0, 64, 86
1, 83395, Control_c, 0, 64, 83
1, 83395, Control_c, 0, 67, 79
1, 83409, Control_c, 0, 64, 81
1, 83424, Control_c, 0, 64, 79
1, 83439, Control_c, 0, 64, 78
1, 83454, Control_c, 0, 64, 76
1, 83454, Control_c, 0, 67, 79
1, 83469, Control_c, 0, 64, 74
1, 83484, Control_c, 0, 64, 73
1, 83498, Control_c, 0, 64, 71
1, 83513, Control_c, 0, 64, 70
1, 83513, Control_c, 0, 67, 78
1, 83528, Control_c, 0, 64, 69
1, 83550, Control_c, 0, 64, 68
1, 83550, Control_c, 0, 67, 78
1, 83565, Control_c, 0, 64, 68
1, 83580, Control_c, 0, 64, 67
1, 83595, Control_c, 0, 67, 77
1, 83610, Control_c, 0, 64, 66
1, 83626, Control_c, 0, 67, 77
1, 83640, Control_c, 0, 67, 76
1, 83655, Control_c, 0, 64, 66
1, 83670, Control_c, 0, 64, 65
1, 83685, Control_c, 0, 64, 64
1, 83685, Control_c, 0, 67, 76
1, 83692, Note_on_c, 0, 52, 60
1, 83700, Control_c, 0, 64, 60
1, 83700, Control_c, 0, 67, 75
1, 83714, Control_c, 0, 64, 55
1, 83729, Control_c, 0, 64, 50
1, 83729, Control_c, 0, 67, 75
1, 83744, Control_c, 0, 64, 48
1, 83759, Control_c, 0, 64, 49
1, 83759, Control_c, 0, 67, 74
1, 83773, Control_c, 0, 64, 52
1, 83788, Control_c, 0, 64, 57
1, 83788, Control_c, 0, 67, 74
1, 83803, Control_c, 0, 64, 62
1, 83818, Control_c, 0, 64, 66
1, 83818, Control_c, 0, 67, 73
1, 83833, Control_c, 0, 64, 69
1, 83847, Control_c, 0, 64, 74
1, 83862, Control_c, 0, 64, 78
1, 83862, Control_c, 0, 67, 73
1, 83877, Control_c, 0, 64, 80
1, 83892, Control_c, 0, 64, 81
1, 83907, Control_c, 0, 67, 72
1, 83996, Control_c, 0, 64, 80
1, 84011, Control_c, 0, 64, 79
1, 84026, Control_c, 0, 64, 78
1, 84035, Note_on_c, 0, 69, 54
1, 84040, Control_c, 0, 64, 76
1, 84050, Note_on_c, 0, 61, 45
1, 84055, Control_c, 0, 64, 73
1, 84070, Control_c, 0, 64, 70
1, 84085, Control_c, 0, 64, 66
1, 84087, Note_on_c, 0, 57, 48
1, 84100, Control_c, 0, 64, 61
1, 84105, Note_off_c, 0, 52, 58
1, 84114, Control_c, 0, 64, 54
1, 84129, Control_c, 0, 64, 45
1, 84129, Control_c, 0, 67, 72
1, 84138, Note_off_c, 0, 68, 45
1, 84141, Note_off_c, 0, 62, 52
1, 84144, Control_c, 0, 64, 32
1, 84158, Control_c, 0, 64, 17
1, 84173, Control_c, 0, 64, 0
1, 84173, Control_c, 0, 67, 71
1, 84203, Control_c, 0, 64, 23
1, 84218, Control_c, 0, 64, 37
1, 84232, Control_c, 0, 64, 51
1, 84247, Control_c, 0, 64, 60
1, 84247, Control_c, 0, 67, 71
1, 84262, Control_c, 0, 64, 64
1, 84277, Control_c, 0, 64, 65
1, 84300, Control_c, 0, 64, 68
1, 84314, Control_c, 0, 64, 71
1, 84314, Control_c, 0, 67, 70
1, 84329, Control_c, 0, 64, 74
1, 84329, Control_c, 0, 67, 70
1, 84344, Control_c, 0, 64, 78
1, 84358, Note_off_c, 0, 61, 56
1, 84359, Control_c, 0, 64, 82
1, 84370, Note_off_c, 0, 57, 52
1, 84373, Control_c, 0, 64, 84
1, 84385, Note_on_c, 0, 56, 55
1, 84388, Control_c, 0, 64, 88
1, 84403, Control_c, 0, 64, 91
1, 84419, Control_c, 0, 64, 94
1, 84425, Note_off_c, 0, 69, 59
1, 84434, Control_c, 0, 64, 98
1, 84434, Control_c, 0, 67, 69
1, 84449, Control_c, 0, 64, 101
1, 84464, Control_c, 0, 64, 104
1, 84476, Note_off_c, 0, 45, 33
1, 84478, Control_c, 0, 64, 107
1, 84493, Control_c, 0, 64, 110
1, 84508, Control_c, 0, 64, 113
1, 84523, Control_c, 0, 64, 115
1, 84537, Control_c, 0, 64, 117
1, 84546, Note_off_c, 0, 56, 31
1, 84730, Control_c, 0, 64, 116
1, 84744, Control_c, 0, 64, 114
1, 84759, Control_c, 0, 64, 111
1, 84774, Control_c, 0, 64, 108
1, 84789, Note_on_c, 0, 69, 53
1, 84789, Control_c, 0, 64, 104
1, 84804, Control_c, 0, 64, 100
1, 84805, Note_on_c, 0, 66, 40
1, 84807, Note_on_c, 0, 61, 41
1, 84819, Control_c, 0, 64, 95
1, 84834, Control_c, 0, 64, 91
1, 84848, Control_c, 0, 64, 86
1, 84852, Note_on_c, 0, 54, 38
1, 84863, Control_c, 0, 64, 81
1, 84869, Note_on_c, 0, 45, 36
1, 84878, Control_c, 0, 64, 76
1, 84893, Control_c, 0, 64, 69
1, 84908, Control_c, 0, 64, 63
1, 84923, Control_c, 0, 64, 53
1, 84937, Control_c, 0, 64, 39
1, 84952, Control_c, 0, 64, 26
1, 84967, Control_c, 0, 64, 24
1, 84967, Control_c, 0, 67, 69
1, 84981, Control_c, 0, 64, 28
1, 84996, Control_c, 0, 64, 40
1, 84996, Control_c, 0, 67, 68
1, 85011, Control_c, 0, 64, 52
1, 85026, Control_c, 0, 64, 60
1, 85026, Control_c, 0, 67, 68
1, 85048, Control_c, 0, 64, 65
1, 85048, Control_c, 0, 67, 67
1, 85063, Control_c, 0, 64, 68
1, 85063, Control_c, 0, 67, 67
1, 85078, Control_c, 0, 64, 71
1, 85078, Control_c, 0, 67, 66
1, 85093, Control_c, 0, 64, 75
1, 85093, Control_c, 0, 67, 65
1, 85108, Control_c, 0, 64, 79
1, 85108, Control_c, 0, 67, 63
1, 85122, Control_c, 0, 64, 83
1, 85122, Control_c, 0, 67, 59
1, 85137, Control_c, 0, 64, 86
1, 85137, Control_c, 0, 67, 54
1, 85152, Control_c, 0, 64, 89
1, 85152, Control_c, 0, 67, 50
1, 85167, Control_c, 0, 64, 92
1, 85167, Control_c, 0, 67, 45
1, 85181, Note_off_c, 0, 45, 35
1, 85182, Control_c, 0, 64, 95
1, 85182, Control_c, 0, 67, 41
1, 85194, Note_on_c, 0, 57, 53
1, 85196, Control_c, 0, 64, 99
1, 85196, Control_c, 0, 67, 38
1, 85212, Control_c, 0, 64, 103
1, 85212, Control_c, 0, 67, 35
1, 85227, Control_c, 0, 64, 108
1, 85227, Control_c, 0, 67, 33
1, 85242, Control_c, 0, 64, 111
1, 85242, Control_c, 0, 67, 31
1, 85243, Note_off_c, 0, 54, 40
1, 85256, Control_c, 0, 64, 113
1, 85256, Control_c, 0, 67, 30
1, 85271, Control_c, 0, 64, 115
1, 85271, Control_c, 0, 67, 29
1, 85285, Control_c, 0, 64, 120
1, 85285, Control_c, 0, 67, 27
1, 85300, Control_c, 0, 64, 127
1, 85300, Control_c, 0, 67, 26
1, 85313, Note_off_c, 0, 61, 42
1, 85315, Control_c, 0, 67, 24
1, 85330, Control_c, 0, 67, 23
1, 85345, Control_c, 0, 67, 20
1, 85359, Control_c, 0, 67, 19
1, 85374, Control_c, 0, 67, 17
1, 85389, Control_c, 0, 67, 15
1, 85404, Control_c, 0, 67, 14
1, 85418, Control_c, 0, 67, 12
1, 85433, Control_c, 0, 67, 11
1, 85448, Control_c, 0, 67, 11
1, 85463, Control_c, 0, 67, 10
1, 85478, Control_c, 0, 67, 9
1, 85492, Control_c, 0, 67, 0
1, 85538, Note_on_c, 0, 71, 63
1, 85598, Note_on_c, 0, 61, 44
1, 85666, Note_off_c, 0, 57, 40
1, 85761, Note_off_c, 0, 69, 29
1, 85849, Note_off_c, 0, 61, 59
1, 85861, Note_on_c, 0, 57, 54
1, 86138, Note_on_c, 0, 69, 62
1, 86140, Note_on_c, 0, 54, 55
1, 86160, Note_off_c, 0, 57, 43
1, 86226, Note_off_c, 0, 71, 36
1, 86399, Note_on_c, 0, 52, 59
1, 86401, Note_off_c, 0, 54, 52
1, 86428, Note_off_c, 0, 69, 52
1, 86463, Note_off_c, 0, 52, 64
1, 86470, Note_off_c, 0, 66, 41
1, 86679, Control_c, 0, 64, 117
1, 86694, Control_c, 0, 64, 111
1, 86706, Note_on_c, 0, 69, 69
1, 86708, Control_c, 0, 64, 105
1, 86714, Note_on_c, 0, 66, 54
1, 86720, Note_on_c, 0, 62, 55
1, 86723, Control_c, 0, 64, 100
1, 86738, Control_c, 0, 64, 94
1, 86747, Note_on_c, 0, 50, 60
1, 86751, Note_on_c, 0, 45, 53
1, 86753, Control_c, 0, 64, 89
1, 86768, Control_c, 0, 64, 84
1, 86783, Control_c, 0, 64, 80
1, 86798, Control_c, 0, 64, 75
1, 86813, Control_c, 0, 64, 68
1, 86828, Control_c, 0, 64, 61
1, 86843, Control_c, 0, 64, 48
1, 86858, Control_c, 0, 64, 27
1, 86872, Control_c, 0, 64, 0
1, 86917, Control_c, 0, 64, 22
1, 86932, Control_c, 0, 64, 40
1, 86947, Control_c, 0, 64, 54
1, 86962, Control_c, 0, 64, 61
1, 86977, Control_c, 0, 64, 64
1, 86991, Control_c, 0, 64, 65
1, 87006, Control_c, 0, 64, 67
1, 87011, Note_on_c, 0, 54, 63
1, 87021, Control_c, 0, 64, 70
1, 87036, Control_c, 0, 64, 73
1, 87051, Control_c, 0, 64, 76
1, 87065, Control_c, 0, 64, 79
1, 87080, Control_c, 0, 64, 81
1, 87095, Control_c, 0, 64, 83
1, 87110, Control_c, 0, 64, 86
1, 87115, Note_off_c, 0, 50, 36
1, 87125, Control_c, 0, 64, 89
1, 87139, Control_c, 0, 64, 91
1, 87154, Control_c, 0, 64, 93
1, 87169, Control_c, 0, 64, 95
1, 87183, Control_c, 0, 64, 97
1, 87198, Control_c, 0, 64, 100
1, 87213, Control_c, 0, 64, 103
1, 87228, Control_c, 0, 64, 105
1, 87243, Control_c, 0, 64, 106
1, 87257, Control_c, 0, 64, 107
1, 87272, Control_c, 0, 64, 110
1, 87286, Note_on_c, 0, 71, 70
1, 87295, Control_c, 0, 64, 114
1, 87297, Note_on_c, 0, 57, 63
1, 87310, Control_c, 0, 64, 119
1, 87325, Control_c, 0, 64, 122
1, 87339, Control_c, 0, 64, 127
1, 87350, Note_off_c, 0, 54, 59
1, 87365, Note_off_c, 0, 69, 58
1, 87528, Note_on_c, 0, 54, 57
1, 87572, Note_off_c, 0, 57, 36
1, 87770, Note_on_c, 0, 69, 76
1, 87779, Note_on_c, 0, 50, 66
1, 87816, Note_off_c, 0, 71, 55
1, 87884, Note_off_c, 0, 54, 36
1, 87929, Note_off_c, 0, 45, 38
1, 88005, Note_off_c, 0, 62, 57
1, 88015, Note_on_c, 0, 49, 69
1, 88056, Note_off_c, 0, 69, 64
1, 88057, Note_off_c, 0, 66, 54
1, 88083, Note_off_c, 0, 50, 38
1, 88172, Note_off_c, 0, 49, 27
1, 88312, Note_on_c, 0, 69, 77
1, 88319, Note_on_c, 0, 47, 69
1, 88319, Note_on_c, 0, 66, 72
1, 88320, Note_on_c, 0, 45, 62
1, 88323, Note_on_c, 0, 62, 63
1, 88339, Control_c, 0, 64, 117
1, 88354, Control_c, 0, 64, 98
1, 88369, Control_c, 0, 64, 83
1, 88384, Control_c, 0, 64, 70
1, 88399, Control_c, 0, 64, 60
1, 88415, Control_c, 0, 64, 45
1, 88429, Control_c, 0, 64, 36
1, 88444, Control_c, 0, 64, 38
1, 88459, Control_c, 0, 64, 46
1, 88474, Control_c, 0, 64, 54
1, 88489, Control_c, 0, 64, 61
1, 88503, Control_c, 0, 64, 66
1, 88518, Control_c, 0, 64, 73
1, 88533, Control_c, 0, 64, 80
1, 88548, Control_c, 0, 64, 87
1, 88563, Control_c, 0, 64, 92
1, 88566, Note_on_c, 0, 50, 75
1, 88578, Control_c, 0, 64, 100
1, 88592, Control_c, 0, 64, 112
1, 88606, Note_off_c, 0, 47, 64
1, 88607, Control_c, 0, 64, 127
1, 88835, Note_on_c, 0, 74, 78
1, 88856, Note_on_c, 0, 54, 62
1, 88959, Note_off_c, 0, 62, 60
1, 88979, Note_off_c, 0, 69, 59
1, 88989, Note_off_c, 0, 66, 52
1, 89120, Note_off_c, 0, 45, 41
1, 89122, Note_on_c, 0, 57, 72
1, 89154, Note_off_c, 0, 54, 63
1, 89190, Note_off_c, 0, 50, 52
1, 89213, Note_off_c, 0, 57, 57
1, 89388, Note_on_c, 0, 52, 70
1, 89398, Note_on_c, 0, 45, 58
1, 89430, Control_c, 0, 64, 120
1, 89445, Control_c, 0, 64, 103
1, 89451, Note_on_c, 0, 73, 72
1, 89460, Note_on_c, 0, 68, 67
1, 89460, Control_c, 0, 64, 92
1, 89467, Note_on_c, 0, 64, 69
1, 89475, Control_c, 0, 64, 84
1, 89478, Note_off_c, 0, 74, 63
1, 89490, Control_c, 0, 64, 76
1, 89505, Control_c, 0, 64, 69
1, 89520, Control_c, 0, 64, 59
1, 89541, Control_c, 0, 64, 45
1, 89556, Control_c, 0, 64, 13
1, 89571, Control_c, 0, 64, 0
1, 89630, Control_c, 0, 64, 20
1, 89645, Control_c, 0, 64, 43
1, 89660, Control_c, 0, 64, 57
1, 89675, Control_c, 0, 64, 62
1, 89689, Control_c, 0, 64, 64
1, 89704, Control_c, 0, 64, 66
1, 89719, Control_c, 0, 64, 69
1, 89734, Control_c, 0, 64, 74
1, 89748, Control_c, 0, 64, 79
1, 89763, Control_c, 0, 64, 83
1, 89777, Control_c, 0, 64, 86
1, 89792, Control_c, 0, 64, 89
1, 89807, Control_c, 0, 64, 93
1, 89822, Control_c, 0, 64, 100
1, 89830, Note_off_c, 0, 45, 49
1, 89837, Control_c, 0, 64, 106
1, 89844, Note_off_c, 0, 52, 62
1, 89852, Control_c, 0, 64, 115
1, 89856, Note_on_c, 0, 56, 57
1, 89866, Control_c, 0, 64, 127
1, 90146, Note_on_c, 0, 59, 59
1, 90179, Note_off_c, 0, 64, 34
1, 90186, Note_off_c, 0, 56, 33
1, 90399, Note_off_c, 0, 59, 0
1, 90426, Note_on_c, 0, 71, 65
1, 90444, Note_off_c, 0, 68, 33
1, 90445, Note_on_c, 0, 62, 55
1, 90451, Poly_aftertouch_c, 0, 59, 0
1, 90488, Note_off_c, 0, 62, 60
1, 90652, Note_off_c, 0, 73, 26
1, 90779, Control_c, 0, 64, 115
1, 90794, Control_c, 0, 64, 108
1, 90810, Control_c, 0, 64, 103
1, 90824, Control_c, 0, 64, 97
1, 90838, Note_off_c, 0, 71, 31
1, 90839, Control_c, 0, 64, 94
1, 90846, Note_on_c, 0, 68, 57
1, 90854, Control_c, 0, 64, 91
1, 90864, Note_on_c, 0, 62, 51
1, 90869, Control_c, 0, 64, 88
1, 90884, Control_c, 0, 64, 85
1, 90897, Note_on_c, 0, 45, 49
1, 90899, Control_c, 0, 64, 83
1, 90913, Control_c, 0, 64, 80
1, 90928, Control_c, 0, 64, 76
1, 90943, Control_c, 0, 64, 73
1, 90958, Control_c, 0, 64, 70
1, 90973, Control_c, 0, 64, 65
1, 90987, Control_c, 0, 64, 58
1, 91002, Control_c, 0, 64, 46
1, 91017, Control_c, 0, 64, 32
1, 91039, Control_c, 0, 64, 20
1, 91054, Control_c, 0, 64, 20
1, 91069, Control_c, 0, 64, 25
1, 91084, Control_c, 0, 64, 36
1, 91099, Control_c, 0, 64, 49
1, 91113, Control_c, 0, 64, 58
1, 91128, Control_c, 0, 64, 63
1, 91143, Control_c, 0, 64, 65
1, 91157, Control_c, 0, 64, 66
1, 91172, Control_c, 0, 64, 68
1, 91187, Control_c, 0, 64, 70
1, 91202, Control_c, 0, 64, 72
1, 91231, Control_c, 0, 64, 71
1, 91242, Note_on_c, 0, 52, 53
1, 91246, Control_c, 0, 64, 67
1, 91261, Control_c, 0, 64, 63
1, 91276, Control_c, 0, 64, 61
1, 91291, Control_c, 0, 64, 62
1, 91305, Control_c, 0, 64, 63
1, 91320, Control_c, 0, 64, 66
1, 91335, Control_c, 0, 64, 69
1, 91350, Control_c, 0, 64, 73
1, 91365, Control_c, 0, 64, 75
1, 91380, Control_c, 0, 64, 76
1, 91395, Control_c, 0, 64, 77
1, 91409, Control_c, 0, 64, 77
1, 91528, Control_c, 0, 64, 77
1, 91543, Control_c, 0, 64, 76
1, 91557, Control_c, 0, 64, 74
1, 91572, Control_c, 0, 64, 69
1, 91573, Note_on_c, 0, 69, 48
1, 91587, Control_c, 0, 64, 62
1, 91603, Control_c, 0, 64, 49
1, 91605, Note_on_c, 0, 61, 33
1, 91618, Control_c, 0, 64, 25
1, 91619, Note_on_c, 0, 57, 37
1, 91633, Control_c, 0, 64, 0
1, 91635, Note_off_c, 0, 52, 33
1, 91640, Note_off_c, 0, 68, 44
1, 91662, Control_c, 0, 64, 27
1, 91677, Control_c, 0, 64, 42
1, 91692, Control_c, 0, 64, 54
1, 91705, Note_off_c, 0, 62, 36
1, 91707, Control_c, 0, 64, 62
1, 91721, Control_c, 0, 64, 65
1, 91736, Control_c, 0, 64, 67
1, 91751, Control_c, 0, 64, 68
1, 91766, Control_c, 0, 64, 70
1, 91788, Control_c, 0, 64, 72
1, 91803, Control_c, 0, 64, 73
1, 91818, Control_c, 0, 64, 74
1, 91833, Control_c, 0, 64, 75
1, 91936, Control_c, 0, 64, 74
1, 91951, Control_c, 0, 64, 69
1, 91955, Note_on_c, 0, 44, 44
1, 91966, Control_c, 0, 64, 62
1, 91979, Note_off_c, 0, 57, 37
1, 91980, Control_c, 0, 64, 50
1, 91995, Control_c, 0, 64, 40
1, 92010, Control_c, 0, 64, 45
1, 92012, Note_off_c, 0, 45, 56
1, 92025, Control_c, 0, 64, 54
1, 92040, Control_c, 0, 64, 63
1, 92054, Control_c, 0, 64, 67
1, 92060, Note_off_c, 0, 61, 47
1, 92069, Control_c, 0, 64, 71
1, 92084, Control_c, 0, 64, 76
1, 92099, Control_c, 0, 64, 80
1, 92114, Control_c, 0, 64, 83
1, 92128, Control_c, 0, 64, 85
1, 92136, Note_off_c, 0, 69, 60
1, 92143, Control_c, 0, 64, 87
1, 92158, Control_c, 0, 64, 88
1, 92173, Control_c, 0, 64, 89
1, 92202, Control_c, 0, 64, 89
1, 92396, Control_c, 0, 64, 89
1, 92411, Control_c, 0, 64, 88
1, 92426, Control_c, 0, 64, 88
1, 92441, Control_c, 0, 64, 87
1, 92456, Control_c, 0, 64, 86
1, 92468, Note_on_c, 0, 69, 47
1, 92470, Control_c, 0, 64, 85
1, 92485, Control_c, 0, 64, 83
1, 92486, Note_on_c, 0, 66, 37
1, 92493, Note_on_c, 0, 61, 39
1, 92500, Control_c, 0, 64, 82
1, 92515, Control_c, 0, 64, 80
1, 92537, Control_c, 0, 64, 78
1, 92548, Note_on_c, 0, 42, 34
1, 92551, Control_c, 0, 64, 75
1, 92563, Note_off_c, 0, 44, 27
1, 92566, Control_c, 0, 64, 73
1, 92581, Control_c, 0, 64, 70
1, 92596, Control_c, 0, 64, 67
1, 92611, Control_c, 0, 64, 61
1, 92626, Control_c, 0, 64, 53
1, 92641, Control_c, 0, 64, 40
1, 92655, Control_c, 0, 64, 27
1, 92670, Control_c, 0, 64, 19
1, 92700, Control_c, 0, 64, 22
1, 92715, Control_c, 0, 64, 33
1, 92730, Control_c, 0, 64, 46
1, 92743, Control_c, 0, 64, 58
1, 92757, Control_c, 0, 64, 63
1, 92772, Control_c, 0, 64, 66
1, 92787, Control_c, 0, 64, 68
1, 92802, Control_c, 0, 64, 70
1, 92816, Control_c, 0, 64, 73
1, 92831, Control_c, 0, 64, 76
1, 92846, Control_c, 0, 64, 80
1, 92861, Control_c, 0, 64, 83
1, 92876, Control_c, 0, 64, 85
1, 92891, Control_c, 0, 64, 87
1, 92900, Note_on_c, 0, 49, 40
1, 92906, Control_c, 0, 64, 90
1, 92921, Control_c, 0, 64, 92
1, 92935, Control_c, 0, 64, 95
1, 92950, Control_c, 0, 64, 99
1, 92965, Control_c, 0, 64, 102
1, 92980, Control_c, 0, 64, 107
1, 92995, Control_c, 0, 64, 113
1, 93009, Control_c, 0, 64, 124
1, 93024, Control_c, 0, 64, 127
1, 93249, Note_on_c, 0, 71, 52
1, 93340, Note_on_c, 0, 57, 38
1, 93422, Note_off_c, 0, 69, 33
1, 93432, Note_off_c, 0, 49, 39
1, 93498, Note_off_c, 0, 42, 29
1, 93617, Note_off_c, 0, 57, 39
1, 93619, Note_on_c, 0, 49, 42
1, 93866, Note_on_c, 0, 69, 60
1, 93870, Note_off_c, 0, 49, 40
1, 93875, Note_on_c, 0, 42, 34
1, 93940, Note_off_c, 0, 42, 45
1, 94140, Note_on_c, 0, 40, 59
1, 94140, Note_off_c, 0, 71, 26
1, 94214, Note_off_c, 0, 61, 41
1, 94253, Note_off_c, 0, 69, 37
1, 94256, Note_off_c, 0, 66, 41
1, 94352, Note_off_c, 0, 40, 31
1, 94360, Control_c, 0, 64, 122
1, 94374, Control_c, 0, 64, 115
1, 94389, Control_c, 0, 64, 109
1, 94393, Note_on_c, 0, 38, 56
1, 94404, Control_c, 0, 64, 104
1, 94419, Control_c, 0, 64, 98
1, 94434, Control_c, 0, 64, 93
1, 94448, Control_c, 0, 64, 87
1, 94458, Note_on_c, 0, 69, 70
1, 94463, Control_c, 0, 64, 81
1, 94468, Note_on_c, 0, 66, 59
1, 94478, Control_c, 0, 64, 74
1, 94479, Note_on_c, 0, 62, 57
1, 94493, Control_c, 0, 64, 65
1, 94508, Control_c, 0, 64, 54
1, 94522, Control_c, 0, 64, 39
1, 94537, Control_c, 0, 64, 29
1, 94552, Control_c, 0, 64, 30
1, 94566, Control_c, 0, 64, 38
1, 94581, Control_c, 0, 64, 48
1, 94596, Control_c, 0, 64, 58
1, 94611, Control_c, 0, 64, 64
1, 94626, Control_c, 0, 64, 67
1, 94641, Control_c, 0, 64, 72
1, 94656, Control_c, 0, 64, 76
1, 94671, Control_c, 0, 64, 80
1, 94685, Control_c, 0, 64, 85
1, 94700, Control_c, 0, 64, 90
1, 94715, Control_c, 0, 64, 96
1, 94718, Note_on_c, 0, 45, 65
1, 94730, Control_c, 0, 64, 103
1, 94745, Control_c, 0, 64, 120
1, 94760, Control_c, 0, 64, 127
1, 94796, Note_off_c, 0, 38, 54
1, 95038, Note_on_c, 0, 71, 76
1, 95051, Note_off_c, 0, 45, 0
1, 95052, Note_on_c, 0, 54, 56
1, 95117, Poly_aftertouch_c, 0, 45, 0
1, 95127, Note_off_c, 0, 69, 52
1, 95285, Note_off_c, 0, 54, 35
1, 95292, Note_on_c, 0, 45, 59
1, 95552, Note_on_c, 0, 69, 78
1, 95557, Note_on_c, 0, 38, 59
1, 95565, Note_off_c, 0, 45, 64
1, 95575, Control_c, 0, 64, 89
1, 95590, Control_c, 0, 64, 72
1, 95606, Control_c, 0, 64, 63
1, 95621, Control_c, 0, 64, 61
1, 95635, Control_c, 0, 64, 63
1, 95650, Control_c, 0, 64, 67
1, 95656, Note_off_c, 0, 71, 51
1, 95665, Control_c, 0, 64, 73
1, 95680, Control_c, 0, 64, 82
1, 95695, Control_c, 0, 64, 93
1, 95709, Control_c, 0, 64, 103
1, 95724, Control_c, 0, 64, 116
1, 95738, Control_c, 0, 64, 127
1, 95816, Note_on_c, 0, 37, 70
1, 95851, Note_off_c, 0, 38, 39
1, 95869, Note_off_c, 0, 62, 57
1, 95939, Note_off_c, 0, 66, 55
1, 95950, Note_off_c, 0, 69, 52
1, 96098, Note_on_c, 0, 35, 63
1, 96140, Note_off_c, 0, 37, 26
1, 96182, Control_c, 0, 64, 120
1, 96189, Note_on_c, 0, 69, 85
1, 96197, Control_c, 0, 64, 101
1, 96198, Note_on_c, 0, 66, 75
1, 96199, Note_on_c, 0, 62, 64
1, 96212, Control_c, 0, 64, 88
1, 96227, Control_c, 0, 64, 76
1, 96241, Control_c, 0, 64, 64
1, 96256, Control_c, 0, 64, 50
1, 96279, Control_c, 0, 64, 36
1, 96293, Control_c, 0, 64, 32
1, 96308, Control_c, 0, 64, 35
1, 96323, Control_c, 0, 64, 44
1, 96338, Control_c, 0, 64, 55
1, 96352, Control_c, 0, 64, 64
1, 96367, Control_c, 0, 64, 70
1, 96382, Control_c, 0, 64, 76
1, 96398, Control_c, 0, 64, 82
1, 96413, Control_c, 0, 64, 87
1, 96428, Control_c, 0, 64, 92
1, 96442, Control_c, 0, 64, 98
1, 96457, Control_c, 0, 64, 108
1, 96472, Control_c, 0, 64, 127
1, 96473, Note_off_c, 0, 62, 60
1, 96516, Note_off_c, 0, 66, 61
1, 96525, Note_off_c, 0, 69, 65
1, 96635, Note_off_c, 0, 35, 57
1, 96651, Note_on_c, 0, 47, 51
1, 96914, Note_on_c, 0, 78, 84
1, 97000, Note_on_c, 0, 50, 48
1, 97040, Note_off_c, 0, 47, 52
1, 97367, Note_on_c, 0, 54, 67
1, 97518, Note_off_c, 0, 50, 31
1, 97613, Note_off_c, 0, 54, 63
1, 97644, Note_on_c, 0, 57, 49
1, 97753, Note_on_c, 0, 74, 78
1, 97964, Note_off_c, 0, 57, 49
1, 97983, Note_on_c, 0, 62, 66
1, 97987, Note_off_c, 0, 78, 36
1, 98388, Note_on_c, 0, 66, 67
1, 98454, Note_off_c, 0, 62, 61
1, 98671, Note_off_c, 0, 66, 60
1, 98768, Note_on_c, 0, 71, 64
1, 98786, Note_off_c, 0, 74, 62
1, 98824, Note_on_c, 0, 62, 65
1, 98865, Note_off_c, 0, 71, 64
1, 98877, Note_off_c, 0, 62, 62
1, 99365, Note_on_c, 0, 68, 60
1, 99378, Control_c, 0, 64, 111
1, 99388, Note_on_c, 0, 61, 46
1, 99391, Note_on_c, 0, 64, 50
1, 99393, Control_c, 0, 64, 98
1, 99408, Control_c, 0, 64, 88
1, 99423, Control_c, 0, 64, 79
1, 99437, Note_on_c, 0, 40, 50
1, 99438, Control_c, 0, 64, 71
1, 99452, Control_c, 0, 64, 61
1, 99467, Control_c, 0, 64, 45
1, 99482, Control_c, 0, 64, 0
1, 99541, Control_c, 0, 64, 28
1, 99556, Control_c, 0, 64, 48
1, 99571, Control_c, 0, 64, 60
1, 99586, Control_c, 0, 64, 65
1, 99601, Control_c, 0, 64, 68
1, 99616, Control_c, 0, 64, 70
1, 99631, Control_c, 0, 64, 73
1, 99646, Control_c, 0, 64, 77
1, 99661, Control_c, 0, 64, 81
1, 99675, Control_c, 0, 64, 85
1, 99690, Control_c, 0, 64, 88
1, 99705, Control_c, 0, 64, 91
1, 99720, Control_c, 0, 64, 93
1, 99735, Control_c, 0, 64, 96
1, 99750, Control_c, 0, 64, 98
1, 99765, Control_c, 0, 64, 102
1, 99779, Note_on_c, 0, 49, 55
1, 99780, Control_c, 0, 64, 106
1, 99794, Control_c, 0, 64, 110
1, 99809, Control_c, 0, 64, 113
1, 99818, Note_off_c, 0, 40, 31
1, 99824, Control_c, 0, 64, 116
1, 99839, Control_c, 0, 64, 124
1, 99854, Control_c, 0, 64, 127
1, 99854, Control_c, 0, 67, 8
1, 99868, Control_c, 0, 67, 9
1, 99883, Control_c, 0, 67, 9
1, 99913, Control_c, 0, 67, 10
1, 99942, Control_c, 0, 67, 10
1, 99972, Control_c, 0, 67, 11
1, 100024, Control_c, 0, 67, 11
1, 100039, Control_c, 0, 67, 12
1, 100068, Control_c, 0, 67, 12
1, 100113, Note_on_c, 0, 52, 60
1, 100172, Control_c, 0, 67, 13
1, 100201, Control_c, 0, 67, 13
1, 100216, Control_c, 0, 67, 14
1, 100230, Control_c, 0, 67, 15
1, 100240, Note_on_c, 0, 69, 51
1, 100245, Control_c, 0, 67, 18
1, 100260, Control_c, 0, 67, 20
1, 100275, Control_c, 0, 67, 22
1, 100290, Control_c, 0, 67, 25
1, 100304, Control_c, 0, 67, 29
1, 100319, Control_c, 0, 67, 32
1, 100334, Control_c, 0, 67, 35
1, 100337, Note_off_c, 0, 49, 27
1, 100349, Control_c, 0, 67, 35
1, 100363, Note_off_c, 0, 68, 36
1, 100379, Control_c, 0, 67, 36
1, 100424, Control_c, 0, 67, 36
1, 100439, Note_off_c, 0, 69, 60
1, 100451, Note_off_c, 0, 64, 45
1, 100520, Note_on_c, 0, 57, 46
1, 100562, Note_off_c, 0, 61, 48
1, 100564, Note_off_c, 0, 57, 62
1, 100582, Note_off_c, 0, 52, 27
1, 100646, Control_c, 0, 67, 37
1, 100676, Control_c, 0, 67, 37
1, 100690, Control_c, 0, 67, 38
1, 100705, Control_c, 0, 67, 44
1, 100720, Control_c, 0, 67, 49
1, 100735, Control_c, 0, 67, 53
1, 100750, Control_c, 0, 67, 55
1, 100772, Control_c, 0, 67, 56
1, 100787, Control_c, 0, 67, 57
1, 100802, Control_c, 0, 67, 59
1, 100816, Control_c, 0, 67, 60
1, 100831, Control_c, 0, 67, 61
1, 100861, Control_c, 0, 67, 60
1, 100995, Control_c, 0, 67, 60
1, 101024, Control_c, 0, 67, 59
1, 101054, Control_c, 0, 64, 124
1, 101069, Control_c, 0, 64, 119
1, 101069, Control_c, 0, 67, 59
1, 101084, Control_c, 0, 64, 115
1, 101098, Control_c, 0, 64, 113
1, 101113, Control_c, 0, 64, 110
1, 101128, Control_c, 0, 64, 107
1, 101128, Control_c, 0, 67, 58
1, 101131, Note_on_c, 0, 64, 44
1, 101142, Control_c, 0, 64, 104
1, 101148, Note_on_c, 0, 61, 42
1, 101151, Note_on_c, 0, 56, 43
1, 101157, Control_c, 0, 64, 100
1, 101172, Control_c, 0, 64, 95
1, 101188, Control_c, 0, 64, 89
1, 101191, Note_on_c, 0, 28, 66
1, 101203, Control_c, 0, 64, 84
1, 101218, Control_c, 0, 64, 79
1, 101233, Control_c, 0, 64, 75
1, 101247, Control_c, 0, 64, 70
1, 101262, Control_c, 0, 64, 65
1, 101262, Control_c, 0, 67, 58
1, 101277, Control_c, 0, 64, 58
1, 101292, Control_c, 0, 64, 45
1, 101292, Control_c, 0, 67, 57
1, 101307, Control_c, 0, 64, 33
1, 101307, Control_c, 0, 67, 57
1, 101321, Control_c, 0, 64, 25
1, 101336, Control_c, 0, 67, 56
1, 101351, Control_c, 0, 64, 31
1, 101366, Control_c, 0, 64, 42
1, 101381, Control_c, 0, 64, 55
1, 101395, Control_c, 0, 64, 62
1, 101410, Control_c, 0, 64, 65
1, 101425, Control_c, 0, 64, 67
1, 101440, Control_c, 0, 64, 70
1, 101455, Control_c, 0, 64, 73
1, 101470, Control_c, 0, 64, 77
1, 101485, Control_c, 0, 64, 82
1, 101500, Control_c, 0, 64, 85
1, 101521, Control_c, 0, 64, 88
1, 101536, Control_c, 0, 64, 92
1, 101545, Note_on_c, 0, 59, 62
1, 101551, Control_c, 0, 64, 95
1, 101565, Control_c, 0, 64, 99
1, 101565, Control_c, 0, 67, 57
1, 101580, Control_c, 0, 64, 102
1, 101580, Control_c, 0, 67, 57
1, 101595, Control_c, 0, 64, 106
1, 101595, Control_c, 0, 67, 58
1, 101598, Note_off_c, 0, 56, 53
1, 101610, Control_c, 0, 64, 109
1, 101610, Control_c, 0, 67, 58
1, 101625, Control_c, 0, 64, 112
1, 101625, Control_c, 0, 67, 59
1, 101640, Control_c, 0, 64, 115
1, 101640, Control_c, 0, 67, 59
1, 101655, Control_c, 0, 64, 119
1, 101655, Control_c, 0, 67, 60
1, 101670, Control_c, 0, 64, 127
1, 101670, Control_c, 0, 67, 61
1, 101670, Note_off_c, 0, 59, 64
1, 101685, Control_c, 0, 67, 61
1, 101699, Note_off_c, 0, 61, 40
1, 101744, Control_c, 0, 67, 62
1, 101757, Note_off_c, 0, 28, 60
1, 101773, Control_c, 0, 67, 62
1, 101788, Control_c, 0, 67, 63
1, 101803, Control_c, 0, 67, 65
1, 101818, Control_c, 0, 67, 71
1, 101832, Control_c, 0, 67, 76
1, 101847, Control_c, 0, 67, 79
1, 101862, Control_c, 0, 67, 81
1, 101877, Control_c, 0, 64, 120
1, 101877, Control_c, 0, 67, 82
1, 101892, Control_c, 0, 64, 113
1, 101892, Control_c, 0, 67, 84
1, 101899, Note_on_c, 0, 28, 53
1, 101906, Control_c, 0, 64, 109
1, 101906, Control_c, 0, 67, 84
1, 101921, Control_c, 0, 64, 103
1, 101936, Control_c, 0, 64, 97
1, 101951, Control_c, 0, 64, 91
1, 101965, Control_c, 0, 64, 84
1, 101967, Note_on_c, 0, 62, 58
1, 101970, Note_on_c, 0, 57, 50
1, 101981, Control_c, 0, 64, 78
1, 101985, Note_on_c, 0, 54, 43
1, 101996, Control_c, 0, 64, 71
1, 102011, Control_c, 0, 64, 64
1, 102026, Control_c, 0, 64, 55
1, 102026, Control_c, 0, 67, 85
1, 102041, Control_c, 0, 64, 39
1, 102056, Control_c, 0, 64, 13
1, 102056, Control_c, 0, 67, 85
1, 102070, Control_c, 0, 64, 0
1, 102100, Control_c, 0, 64, 22
1, 102115, Control_c, 0, 64, 38
1, 102130, Control_c, 0, 64, 52
1, 102144, Control_c, 0, 64, 60
1, 102144, Control_c, 0, 67, 86
1, 102159, Control_c, 0, 64, 64
1, 102159, Control_c, 0, 67, 88
1, 102174, Control_c, 0, 64, 66
1, 102174, Control_c, 0, 67, 89
1, 102188, Control_c, 0, 64, 68
1, 102188, Control_c, 0, 67, 90
1, 102203, Control_c, 0, 64, 70
1, 102203, Control_c, 0, 67, 92
1, 102218, Control_c, 0, 64, 73
1, 102218, Control_c, 0, 67, 93
1, 102233, Control_c, 0, 64, 76
1, 102233, Control_c, 0, 67, 93
1, 102248, Control_c, 0, 64, 79
1, 102248, Control_c, 0, 67, 94
1, 102270, Control_c, 0, 64, 81
1, 102270, Control_c, 0, 67, 95
1, 102285, Control_c, 0, 64, 83
1, 102285, Control_c, 0, 67, 97
1, 102289, Note_off_c, 0, 28, 32
1, 102300, Control_c, 0, 64, 86
1, 102300, Control_c, 0, 67, 97
1, 102315, Control_c, 0, 64, 88
1, 102315, Control_c, 0, 67, 98
1, 102330, Control_c, 0, 64, 91
1, 102330, Control_c, 0, 67, 100
1, 102344, Control_c, 0, 64, 93
1, 102344, Control_c, 0, 67, 100
1, 102352, Note_on_c, 0, 40, 47
1, 102359, Control_c, 0, 64, 95
1, 102359, Control_c, 0, 67, 101
1, 102374, Control_c, 0, 64, 97
1, 102374, Control_c, 0, 67, 102
1, 102388, Control_c, 0, 64, 98
1, 102388, Control_c, 0, 67, 102
1, 102403, Control_c, 0, 64, 100
1, 102418, Control_c, 0, 64, 101
1, 102463, Control_c, 0, 64, 102
1, 102581, Control_c, 0, 67, 102
1, 102611, Control_c, 0, 67, 101
1, 102670, Control_c, 0, 67, 101
1, 102720, Note_off_c, 0, 40, 36
1, 102740, Note_on_c, 0, 45, 45
1, 102744, Control_c, 0, 67, 100
1, 103034, Control_c, 0, 67, 101
1, 103197, Note_off_c, 0, 64, 46
1, 103197, Control_c, 0, 67, 100
1, 103199, Note_on_c, 0, 50, 48
1, 103219, Note_off_c, 0, 54, 40
1, 103259, Note_off_c, 0, 57, 34
1, 103285, Control_c, 0, 67, 100
1, 103336, Note_off_c, 0, 45, 37
1, 103419, Control_c, 0, 67, 99
1, 103449, Control_c, 0, 64, 101
1, 103552, Control_c, 0, 64, 101
1, 103567, Control_c, 0, 64, 100
1, 103583, Control_c, 0, 64, 100
1, 103598, Control_c, 0, 64, 99
1, 103613, Control_c, 0, 64, 99
1, 103627, Control_c, 0, 64, 98
1, 103642, Control_c, 0, 64, 97
1, 103657, Control_c, 0, 64, 97
1, 103672, Control_c, 0, 64, 96
1, 103701, Control_c, 0, 64, 95
1, 103716, Control_c, 0, 64, 94
1, 103731, Control_c, 0, 64, 93
1, 103746, Control_c, 0, 64, 92
1, 103768, Control_c, 0, 64, 90
1, 103768, Control_c, 0, 67, 99
1, 103783, Control_c, 0, 64, 89
1, 103798, Control_c, 0, 64, 86
1, 103808, Note_off_c, 0, 62, 35
1, 103813, Control_c, 0, 64, 84
1, 103814, Note_on_c, 0, 64, 50
1, 103822, Note_on_c, 0, 40, 54
1, 103828, Control_c, 0, 64, 81
1, 103831, Note_on_c, 0, 61, 50
1, 103840, Note_on_c, 0, 56, 49
1, 103842, Control_c, 0, 64, 78
1, 103842, Control_c, 0, 67, 98
1, 103857, Control_c, 0, 64, 75
1, 103872, Control_c, 0, 64, 72
1, 103887, Control_c, 0, 64, 69
1, 103902, Control_c, 0, 64, 65
1, 103916, Control_c, 0, 64, 60
1, 103931, Control_c, 0, 64, 52
1, 103946, Control_c, 0, 64, 41
1, 103960, Control_c, 0, 64, 13
1, 103974, Control_c, 0, 64, 0
1, 103977, Note_off_c, 0, 50, 40
1, 104048, Control_c, 0, 67, 98
1, 104063, Control_c, 0, 64, 31
1, 104078, Control_c, 0, 64, 47
1, 104093, Control_c, 0, 64, 55
1, 104093, Control_c, 0, 67, 97
1, 104108, Control_c, 0, 64, 60
1, 104123, Control_c, 0, 64, 62
1, 104138, Control_c, 0, 64, 63
1, 104153, Control_c, 0, 64, 65
1, 104167, Control_c, 0, 64, 67
1, 104167, Control_c, 0, 67, 97
1, 104182, Control_c, 0, 64, 70
1, 104197, Control_c, 0, 64, 73
1, 104212, Control_c, 0, 64, 75
1, 104227, Control_c, 0, 64, 77
1, 104241, Control_c, 0, 64, 79
1, 104256, Control_c, 0, 64, 81
1, 104271, Control_c, 0, 64, 83
1, 104286, Control_c, 0, 64, 84
1, 104300, Control_c, 0, 64, 85
1, 104315, Control_c, 0, 64, 86
1, 104330, Control_c, 0, 64, 86
1, 104345, Control_c, 0, 64, 87
1, 104345, Control_c, 0, 67, 97
1, 104359, Control_c, 0, 64, 87
1, 104390, Control_c, 0, 64, 88
1, 104405, Control_c, 0, 64, 88
1, 104445, Note_on_c, 0, 59, 47
1, 104447, Note_off_c, 0, 56, 41
1, 104449, Control_c, 0, 64, 89
1, 104476, Note_on_c, 0, 50, 34
1, 104546, Note_off_c, 0, 61, 38
1, 104600, Note_off_c, 0, 50, 42
1, 104662, Note_off_c, 0, 40, 40
1, 104782, Control_c, 0, 64, 88
1, 104871, Control_c, 0, 64, 88
1, 104901, Control_c, 0, 64, 87
1, 104905, Note_on_c, 0, 33, 48
1, 104916, Control_c, 0, 64, 87
1, 104931, Control_c, 0, 64, 86
1, 104961, Control_c, 0, 64, 86
1, 104990, Control_c, 0, 64, 85
1, 105005, Control_c, 0, 64, 85
1, 105020, Control_c, 0, 67, 98
1, 105050, Control_c, 0, 64, 84
1, 105064, Control_c, 0, 67, 98
1, 105079, Control_c, 0, 64, 84
1, 105094, Control_c, 0, 67, 99
1, 105108, Control_c, 0, 67, 99
1, 105138, Control_c, 0, 67, 100
1, 105153, Control_c, 0, 64, 83
1, 105168, Control_c, 0, 67, 100
1, 105198, Control_c, 0, 64, 83
1, 105198, Control_c, 0, 67, 101
1, 105228, Control_c, 0, 64, 82
1, 105228, Control_c, 0, 67, 101
1, 105265, Control_c, 0, 64, 82
1, 105280, Control_c, 0, 64, 81
1, 105280, Control_c, 0, 67, 102
1, 105294, Control_c, 0, 64, 81
1, 105309, Control_c, 0, 64, 80
1, 105309, Control_c, 0, 67, 102
1, 105324, Control_c, 0, 64, 80
1, 105339, Control_c, 0, 64, 79
1, 105354, Control_c, 0, 64, 79
1, 105354, Control_c, 0, 67, 103
1, 105369, Control_c, 0, 64, 78
1, 105373, Note_on_c, 0, 49, 41
1, 105384, Control_c, 0, 64, 78
1, 105384, Control_c, 0, 67, 103
1, 105399, Control_c, 0, 64, 77
1, 105413, Control_c, 0, 64, 77
1, 105413, Control_c, 0, 67, 104
1, 105428, Control_c, 0, 64, 76
1, 105428, Control_c, 0, 67, 105
1, 105443, Control_c, 0, 64, 76
1, 105443, Control_c, 0, 67, 107
1, 105458, Control_c, 0, 64, 75
1, 105458, Control_c, 0, 67, 107
1, 105473, Control_c, 0, 64, 75
1, 105473, Control_c, 0, 67, 108
1, 105487, Control_c, 0, 64, 74
1, 105487, Control_c, 0, 67, 109
1, 105502, Control_c, 0, 64, 74
1, 105502, Control_c, 0, 67, 110
1, 105517, Control_c, 0, 64, 73
1, 105517, Control_c, 0, 67, 110
1, 105532, Control_c, 0, 64, 72
1, 105532, Control_c, 0, 67, 111
1, 105547, Control_c, 0, 64, 71
1, 105547, Control_c, 0, 67, 111
1, 105561, Control_c, 0, 64, 70
1, 105561, Control_c, 0, 67, 112
1, 105576, Control_c, 0, 64, 69
1, 105576, Control_c, 0, 67, 112
1, 105591, Control_c, 0, 64, 67
1, 105591, Control_c, 0, 67, 113
1, 105602, Note_off_c, 0, 59, 44
1, 105605, Control_c, 0, 64, 65
1, 105605, Control_c, 0, 67, 114
1, 105620, Control_c, 0, 64, 63
1, 105620, Control_c, 0, 67, 115
1, 105624, Note_on_c, 0, 57, 38
1, 105635, Control_c, 0, 64, 60
1, 105635, Control_c, 0, 67, 116
1, 105650, Control_c, 0, 64, 55
1, 105650, Control_c, 0, 67, 116
1, 105665, Control_c, 0, 64, 45
1, 105665, Control_c, 0, 67, 117
1, 105679, Control_c, 0, 64, 22
1, 105679, Control_c, 0, 67, 117
1, 105694, Control_c, 0, 64, 0
1, 105694, Control_c, 0, 67, 118
1, 105754, Control_c, 0, 67, 117
1, 105768, Control_c, 0, 67, 117
1, 105783, Control_c, 0, 64, 22
1, 105783, Control_c, 0, 67, 116
1, 105798, Control_c, 0, 64, 43
1, 105798, Control_c, 0, 67, 116
1, 105813, Control_c, 0, 64, 57
1, 105813, Control_c, 0, 67, 115
1, 105828, Control_c, 0, 64, 61
1, 105828, Control_c, 0, 67, 115
1, 105843, Control_c, 0, 64, 63
1, 105843, Control_c, 0, 67, 114
1, 105858, Control_c, 0, 64, 65
1, 105858, Control_c, 0, 67, 114
1, 105873, Control_c, 0, 64, 67
1, 105887, Control_c, 0, 64, 69
1, 105887, Control_c, 0, 67, 113
1, 105902, Control_c, 0, 64, 72
1, 105917, Control_c, 0, 64, 74
1, 105931, Control_c, 0, 64, 77
1, 105946, Control_c, 0, 64, 80
1, 105946, Control_c, 0, 67, 113
1, 105961, Control_c, 0, 64, 83
1, 105977, Control_c, 0, 64, 85
1, 105992, Control_c, 0, 64, 88
1, 106010, Note_off_c, 0, 57, 40
1, 106014, Control_c, 0, 64, 91
1, 106029, Control_c, 0, 64, 94
1, 106043, Control_c, 0, 64, 97
1, 106058, Control_c, 0, 64, 100
1, 106073, Control_c, 0, 64, 102
1, 106088, Control_c, 0, 64, 104
1, 106102, Control_c, 0, 64, 105
1, 106105, Note_off_c, 0, 49, 40
1, 106117, Control_c, 0, 64, 106
1, 106132, Control_c, 0, 64, 106
1, 106147, Control_c, 0, 64, 108
1, 106162, Control_c, 0, 64, 108
1, 106177, Control_c, 0, 64, 109
1, 106221, Control_c, 0, 64, 109
1, 106250, Control_c, 0, 64, 110
1, 106324, Control_c, 0, 64, 110
1, 106382, Note_on_c, 0, 69, 40
1, 106472, Control_c, 0, 67, 113
1, 106532, Control_c, 0, 67, 114
1, 106591, Control_c, 0, 67, 114
1, 106635, Control_c, 0, 67, 115
1, 106650, Control_c, 0, 67, 115
1, 106680, Control_c, 0, 67, 116
1, 106709, Control_c, 0, 67, 116
1, 106724, Control_c, 0, 67, 117
1, 106739, Control_c, 0, 67, 117
1, 106761, Control_c, 0, 67, 118
1, 106791, Control_c, 0, 67, 118
1, 106821, Control_c, 0, 67, 119
1, 106851, Control_c, 0, 67, 119
1, 106865, Control_c, 0, 67, 120
1, 106880, Control_c, 0, 64, 110
1, 106880, Control_c, 0, 67, 120
1, 106970, Control_c, 0, 67, 120
1, 106984, Control_c, 0, 67, 119
1, 107014, Control_c, 0, 67, 119
1, 107029, Control_c, 0, 67, 118
1, 107058, Control_c, 0, 67, 118
1, 107073, Control_c, 0, 67, 117
1, 107088, Control_c, 0, 67, 117
1, 107118, Control_c, 0, 67, 116
1, 107132, Control_c, 0, 64, 109
1, 107176, Control_c, 0, 64, 109
1, 107191, Control_c, 0, 67, 116
1, 107324, Control_c, 0, 67, 115
1, 107414, Control_c, 0, 64, 108
1, 107414, Control_c, 0, 67, 115
1, 107488, Control_c, 0, 64, 108
1, 107488, Control_c, 0, 67, 114
1, 107524, Control_c, 0, 64, 107
1, 107554, Control_c, 0, 64, 107
1, 107554, Control_c, 0, 67, 114
1, 107585, Control_c, 0, 64, 106
1, 107614, Control_c, 0, 67, 113
1, 107629, Control_c, 0, 64, 106
1, 107644, Control_c, 0, 64, 105
1, 107674, Control_c, 0, 64, 105
1, 107674, Control_c, 0, 67, 113
1, 107688, Control_c, 0, 64, 104
1, 107703, Control_c, 0, 64, 104
1, 107719, Control_c, 0, 64, 103
1, 107719, Control_c, 0, 67, 112
1, 107734, Control_c, 0, 64, 103
1, 107749, Control_c, 0, 64, 102
1, 107763, Control_c, 0, 64, 101
1, 107763, Control_c, 0, 67, 112
1, 107778, Control_c, 0, 64, 101
1, 107793, Control_c, 0, 64, 100
1, 107793, Control_c, 0, 67, 111
1, 107807, Control_c, 0, 64, 99
1, 107822, Note_off_c, 0, 69, 41
1, 107822, Control_c, 0, 64, 98
1, 107837, Control_c, 0, 64, 98
1, 107837, Control_c, 0, 67, 111
1, 107846, Note_off_c, 0, 33, 36
1, 107852, Control_c, 0, 64, 97
1, 107852, Control_c, 0, 67, 110
1, 107867, Control_c, 0, 64, 97
1, 107882, Control_c, 0, 64, 96
1, 107882, Control_c, 0, 67, 109
1, 107889, Note_off_c, 0, 64, 36
1, 107897, Control_c, 0, 64, 96
1, 107897, Control_c, 0, 67, 109
1, 107912, Control_c, 0, 64, 95
1, 107912, Control_c, 0, 67, 108
1, 107927, Control_c, 0, 64, 94
1, 107927, Control_c, 0, 67, 108
1, 107942, Control_c, 0, 64, 94
1, 107942, Control_c, 0, 67, 107
1, 107956, Control_c, 0, 64, 93
1, 107956, Control_c, 0, 67, 106
1, 107971, Control_c, 0, 64, 92
1, 107971, Control_c, 0, 67, 104
1, 107986, Control_c, 0, 64, 91
1, 107986, Control_c, 0, 67, 103
1, 108000, Control_c, 0, 64, 91
1, 108000, Control_c, 0, 67, 101
1, 108015, Control_c, 0, 64, 90
1, 108015, Control_c, 0, 67, 99
1, 108030, Control_c, 0, 64, 89
1, 108030, Control_c, 0, 67, 98
1, 108045, Control_c, 0, 64, 88
1, 108045, Control_c, 0, 67, 96
1, 108060, Control_c, 0, 64, 87
1, 108060, Control_c, 0, 67, 95
1, 108074, Control_c, 0, 64, 86
1, 108074, Control_c, 0, 67, 93
1, 108089, Control_c, 0, 64, 85
1, 108089, Control_c, 0, 67, 92
1, 108104, Control_c, 0, 64, 84
1, 108104, Control_c, 0, 67, 90
1, 108118, Control_c, 0, 64, 82
1, 108118, Control_c, 0, 67, 88
1, 108133, Control_c, 0, 64, 81
1, 108133, Control_c, 0, 67, 86
1, 108148, Control_c, 0, 64, 81
1, 108148, Control_c, 0, 67, 84
1, 108163, Control_c, 0, 64, 80
1, 108163, Control_c, 0, 67, 82
1, 108178, Control_c, 0, 64, 79
1, 108178, Control_c, 0, 67, 79
1, 108192, Control_c, 0, 64, 79
1, 108192, Control_c, 0, 67, 75
1, 108207, Control_c, 0, 64, 78
1, 108207, Control_c, 0, 67, 71
1, 108222, Control_c, 0, 64, 77
1, 108222, Control_c, 0, 67, 67
1, 108237, Control_c, 0, 64, 76
1, 108237, Control_c, 0, 67, 63
1, 108260, Control_c, 0, 64, 76
1, 108260, Control_c, 0, 67, 60
1, 108274, Control_c, 0, 64, 75
1, 108274, Control_c, 0, 67, 56
1, 108289, Control_c, 0, 64, 75
1, 108289, Control_c, 0, 67, 52
1, 108304, Control_c, 0, 64, 74
1, 108304, Control_c, 0, 67, 48
1, 108319, Control_c, 0, 64, 73
1, 108319, Control_c, 0, 67, 45
1, 108333, Control_c, 0, 64, 73
1, 108333, Control_c, 0, 67, 41
1, 108348, Control_c, 0, 64, 72
1, 108348, Control_c, 0, 67, 38
1, 108363, Control_c, 0, 64, 71
1, 108363, Control_c, 0, 67, 33
1, 108379, Control_c, 0, 64, 70
1, 108379, Control_c, 0, 67, 29
1, 108394, Control_c, 0, 64, 69
1, 108394, Control_c, 0, 67, 25
1, 108409, Control_c, 0, 64, 69
1, 108409, Control_c, 0, 67, 20
1, 108423, Control_c, 0, 64, 68
1, 108423, Control_c, 0, 67, 16
1, 108438, Control_c, 0, 64, 67
1, 108438, Control_c, 0, 67, 10
1, 108453, Control_c, 0, 64, 66
1, 108453, Control_c, 0, 67, 0
1, 108468, Control_c, 0, 64, 66
1, 108483, Control_c, 0, 64, 65
1, 108497, Control_c, 0, 64, 64
1, 108512, Control_c, 0, 64, 64
1, 108527, Control_c, 0, 64, 63
1, 108542, Control_c, 0, 64, 62
1, 108557, Control_c, 0, 64, 61
1, 108572, Control_c, 0, 64, 60
1, 108586, Control_c, 0, 64, 59
1, 108601, Control_c, 0, 64, 58
1, 108616, Control_c, 0, 64, 56
1, 108630, Control_c, 0, 64, 55
1, 108645, Control_c, 0, 64, 53
1, 108660, Control_c, 0, 64, 52
1, 108675, Control_c, 0, 64, 49
1, 108690, Control_c, 0, 64, 47
1, 108705, Control_c, 0, 64, 45
1, 108720, Control_c, 0, 64, 44
1, 108734, Control_c, 0, 64, 43
1, 108749, Control_c, 0, 64, 43
1, 108764, Control_c, 0, 64, 42
1, 108779, Control_c, 0, 64, 40
1, 108794, Control_c, 0, 64, 38
1, 108809, Control_c, 0, 64, 36
1, 108823, Control_c, 0, 64, 34
1, 108838, Control_c, 0, 64, 31
1, 108853, Control_c, 0, 64, 30
1, 108868, Control_c, 0, 64, 27
1, 108883, Control_c, 0, 64, 21
1, 108897, Control_c, 0, 64, 9
1, 108912, Control_c, 0, 64, 0
1, 109053, Control_c, 0, 64, 9
1, 109068, Control_c, 0, 64, 22
1, 109083, Control_c, 0, 64, 30
1, 109097, Control_c, 0, 64, 38
1, 109112, Control_c, 0, 64, 46
1, 109127, Control_c, 0, 64, 54
1, 109142, Control_c, 0, 64, 57
1, 109156, Control_c, 0, 64, 58
1, 109172, Control_c, 0, 64, 59
1, 109187, Control_c, 0, 64, 61
1, 109202, Control_c, 0, 64, 62
1, 109217, Control_c, 0, 64, 63
1, 109232, Control_c, 0, 64, 64
1, 109246, Control_c, 0, 64, 65
1, 109261, Control_c, 0, 64, 67
1, 109276, Control_c, 0, 64, 68
1, 109291, Control_c, 0, 64, 70
1, 109306, Control_c, 0, 64, 71
1, 109320, Control_c, 0, 64, 73
1, 109335, Control_c, 0, 64, 75
1, 109350, Control_c, 0, 64, 77
1, 109365, Control_c, 0, 64, 79
1, 109379, Control_c, 0, 64, 81
1, 109394, Control_c, 0, 64, 83
1, 109409, Control_c, 0, 64, 84
1, 109424, Control_c, 0, 64, 86
1, 109439, Control_c, 0, 64, 87
1, 109453, Control_c, 0, 64, 88
1, 109468, Control_c, 0, 64, 89
1, 109483, Control_c, 0, 64, 90
1, 109498, Control_c, 0, 64, 92
1, 109513, Control_c, 0, 64, 92
1, 109527, Control_c, 0, 64, 93
1, 109533, Note_on_c, 0, 73, 58
1, 109542, Control_c, 0, 64, 94
1, 109557, Control_c, 0, 64, 94
1, 109572, Control_c, 0, 64, 95
1, 109587, Control_c, 0, 64, 95
1, 109617, Control_c, 0, 64, 96
1, 109632, Control_c, 0, 64, 96
1, 109646, Control_c, 0, 64, 97
1, 109661, Control_c, 0, 64, 97
1, 109676, Control_c, 0, 64, 98
1, 109691, Control_c, 0, 64, 98
1, 109720, Control_c, 0, 64, 99
1, 109948, Note_on_c, 0, 42, 35
1, 110227, Note_on_c, 0, 49, 34
1, 110249, Note_off_c, 0, 42, 38
1, 110323, Note_on_c, 0, 78, 65
1, 110410, Control_c, 0, 64, 98
1, 110412, Note_off_c, 0, 49, 38
1, 110449, Note_off_c, 0, 73, 56
1, 110468, Note_on_c, 0, 57, 46
1, 110469, Control_c, 0, 64, 98
1, 110506, Control_c, 0, 64, 97
1, 110535, Control_c, 0, 64, 97
1, 110565, Control_c, 0, 64, 96
1, 110580, Control_c, 0, 64, 96
1, 110624, Control_c, 0, 64, 95
1, 110639, Control_c, 0, 64, 95
1, 110669, Control_c, 0, 64, 94
1, 110699, Control_c, 0, 64, 94
1, 110727, Control_c, 0, 64, 93
1, 110742, Control_c, 0, 64, 93
1, 110753, Note_on_c, 0, 76, 65
1, 110757, Control_c, 0, 64, 92
1, 110773, Control_c, 0, 64, 91
1, 110788, Control_c, 0, 64, 89
1, 110803, Control_c, 0, 64, 87
1, 110817, Control_c, 0, 64, 85
1, 110829, Note_on_c, 0, 61, 61
1, 110832, Control_c, 0, 64, 82
1, 110840, Note_off_c, 0, 57, 41
1, 110847, Control_c, 0, 64, 76
1, 110862, Control_c, 0, 64, 69
1, 110877, Control_c, 0, 64, 61
1, 110891, Control_c, 0, 64, 53
1, 110906, Control_c, 0, 64, 50
1, 110921, Control_c, 0, 64, 52
1, 110936, Control_c, 0, 64, 57
1, 110951, Control_c, 0, 64, 62
1, 110965, Control_c, 0, 64, 65
1, 110980, Control_c, 0, 64, 68
1, 110981, Note_off_c, 0, 78, 36
1, 110995, Control_c, 0, 64, 72
1, 111010, Control_c, 0, 64, 76
1, 111024, Control_c, 0, 64, 79
1, 111039, Control_c, 0, 64, 81
1, 111054, Control_c, 0, 64, 83
1, 111069, Control_c, 0, 64, 86
1, 111084, Control_c, 0, 64, 88
1, 111098, Control_c, 0, 64, 90
1, 111107, Note_on_c, 0, 57, 37
1, 111113, Control_c, 0, 64, 92
1, 111128, Control_c, 0, 64, 94
1, 111129, Note_off_c, 0, 61, 33
1, 111143, Control_c, 0, 64, 96
1, 111158, Control_c, 0, 64, 96
1, 111173, Control_c, 0, 64, 97
1, 111217, Control_c, 0, 64, 97
1, 111313, Note_off_c, 0, 57, 41
1, 111320, Note_on_c, 0, 54, 45
1, 111387, Control_c, 0, 64, 97
1, 111447, Control_c, 0, 64, 96
1, 111462, Control_c, 0, 64, 96
1, 111477, Control_c, 0, 64, 94
1, 111492, Control_c, 0, 64, 93
1, 111507, Control_c, 0, 64, 91
1, 111512, Note_on_c, 0, 74, 61
1, 111522, Control_c, 0, 64, 89
1, 111536, Control_c, 0, 64, 86
1, 111551, Control_c, 0, 64, 82
1, 111566, Control_c, 0, 64, 78
1, 111581, Control_c, 0, 64, 73
1, 111590, Note_on_c, 0, 66, 55
1, 111596, Control_c, 0, 64, 66
1, 111611, Control_c, 0, 64, 59
1, 111615, Note_off_c, 0, 76, 51
1, 111626, Control_c, 0, 64, 50
1, 111641, Control_c, 0, 64, 46
1, 111656, Control_c, 0, 64, 49
1, 111671, Control_c, 0, 64, 54
1, 111686, Control_c, 0, 64, 60
1, 111700, Control_c, 0, 64, 64
1, 111715, Control_c, 0, 64, 67
1, 111730, Control_c, 0, 64, 71
1, 111745, Control_c, 0, 64, 76
1, 111760, Control_c, 0, 64, 79
1, 111774, Control_c, 0, 64, 82
1, 111789, Control_c, 0, 64, 84
1, 111804, Control_c, 0, 64, 87
1, 111819, Control_c, 0, 64, 89
1, 111834, Control_c, 0, 64, 91
1, 111836, Note_on_c, 0, 57, 41
1, 111848, Control_c, 0, 64, 93
1, 111858, Note_off_c, 0, 54, 39
1, 111863, Control_c, 0, 64, 94
1, 111878, Control_c, 0, 64, 95
1, 111893, Control_c, 0, 64, 95
1, 111969, Note_off_c, 0, 66, 43
1, 112032, Note_on_c, 0, 54, 36
1, 112038, Note_off_c, 0, 57, 44
1, 112093, Control_c, 0, 64, 95
1, 112137, Control_c, 0, 64, 94
1, 112152, Control_c, 0, 64, 93
1, 112166, Control_c, 0, 64, 92
1, 112181, Control_c, 0, 64, 91
1, 112196, Control_c, 0, 64, 90
1, 112211, Control_c, 0, 64, 88
1, 112226, Control_c, 0, 64, 86
1, 112236, Note_on_c, 0, 73, 52
1, 112241, Control_c, 0, 64, 83
1, 112255, Control_c, 0, 64, 80
1, 112270, Control_c, 0, 64, 77
1, 112282, Note_on_c, 0, 64, 45
1, 112284, Note_off_c, 0, 74, 57
1, 112285, Control_c, 0, 64, 73
1, 112300, Control_c, 0, 64, 68
1, 112315, Control_c, 0, 64, 61
1, 112329, Control_c, 0, 64, 51
1, 112344, Control_c, 0, 64, 40
1, 112359, Control_c, 0, 64, 38
1, 112375, Control_c, 0, 64, 42
1, 112390, Control_c, 0, 64, 50
1, 112404, Control_c, 0, 64, 57
1, 112419, Control_c, 0, 64, 63
1, 112434, Control_c, 0, 64, 66
1, 112449, Control_c, 0, 64, 69
1, 112464, Control_c, 0, 64, 73
1, 112476, Note_off_c, 0, 54, 38
1, 112478, Control_c, 0, 64, 76
1, 112493, Control_c, 0, 64, 80
1, 112501, Note_on_c, 0, 57, 38
1, 112508, Control_c, 0, 64, 83
1, 112523, Control_c, 0, 64, 85
1, 112538, Control_c, 0, 64, 87
1, 112553, Control_c, 0, 64, 89
1, 112568, Control_c, 0, 64, 90
1, 112583, Control_c, 0, 64, 91
1, 112597, Control_c, 0, 64, 92
1, 112670, Note_off_c, 0, 64, 36
1, 112699, Note_off_c, 0, 57, 40
1, 112708, Note_on_c, 0, 54, 42
1, 112812, Control_c, 0, 64, 91
1, 112827, Control_c, 0, 64, 91
1, 112842, Control_c, 0, 64, 90
1, 112857, Control_c, 0, 64, 89
1, 112871, Control_c, 0, 64, 88
1, 112886, Control_c, 0, 64, 86
1, 112901, Control_c, 0, 64, 84
1, 112916, Control_c, 0, 64, 81
1, 112927, Note_on_c, 0, 62, 42
1, 112931, Control_c, 0, 64, 78
1, 112945, Control_c, 0, 64, 74
1, 112960, Control_c, 0, 64, 67
1, 112975, Control_c, 0, 64, 59
1, 112988, Note_off_c, 0, 54, 38
1, 112990, Control_c, 0, 64, 48
1, 113000, Note_on_c, 0, 71, 49
1, 113004, Control_c, 0, 64, 43
1, 113019, Control_c, 0, 64, 45
1, 113034, Control_c, 0, 64, 51
1, 113049, Control_c, 0, 64, 58
1, 113063, Control_c, 0, 64, 63
1, 113066, Note_off_c, 0, 73, 61
1, 113078, Control_c, 0, 64, 67
1, 113093, Control_c, 0, 64, 71
1, 113108, Control_c, 0, 64, 74
1, 113122, Control_c, 0, 64, 78
1, 113137, Control_c, 0, 64, 81
1, 113152, Control_c, 0, 64, 84
1, 113168, Control_c, 0, 64, 87
1, 113183, Control_c, 0, 64, 89
1, 113198, Control_c, 0, 64, 91
1, 113202, Note_on_c, 0, 57, 36
1, 113213, Control_c, 0, 64, 93
1, 113226, Note_off_c, 0, 62, 38
1, 113227, Control_c, 0, 64, 94
1, 113242, Control_c, 0, 64, 95
1, 113257, Control_c, 0, 64, 95
1, 113272, Control_c, 0, 64, 96
1, 113286, Note_on_c, 0, 74, 71
1, 113287, Control_c, 0, 64, 97
1, 113377, Note_on_c, 0, 54, 41
1, 113423, Note_off_c, 0, 57, 40
1, 113576, Note_off_c, 0, 54, 41
1, 113588, Note_on_c, 0, 80, 71
1, 113602, Note_on_c, 0, 47, 47
1, 113608, Note_off_c, 0, 71, 54
1, 113674, Note_off_c, 0, 74, 62
1, 113738, Control_c, 0, 64, 96
1, 113766, Note_on_c, 0, 54, 45
1, 113778, Note_off_c, 0, 47, 33
1, 113783, Control_c, 0, 64, 96
1, 113798, Control_c, 0, 64, 95
1, 113812, Control_c, 0, 64, 95
1, 113827, Control_c, 0, 64, 94
1, 113857, Control_c, 0, 64, 93
1, 113869, Note_on_c, 0, 78, 72
1, 113886, Control_c, 0, 64, 93
1, 113901, Control_c, 0, 64, 92
1, 113945, Control_c, 0, 64, 92
1, 113974, Note_on_c, 0, 57, 46
1, 113977, Control_c, 0, 64, 91
1, 114006, Control_c, 0, 64, 91
1, 114035, Control_c, 0, 64, 90
1, 114065, Control_c, 0, 64, 90
1, 114085, Note_off_c, 0, 80, 35
1, 114095, Control_c, 0, 64, 89
1, 114109, Control_c, 0, 64, 89
1, 114124, Control_c, 0, 64, 88
1, 114139, Control_c, 0, 64, 87
1, 114154, Control_c, 0, 64, 86
1, 114169, Control_c, 0, 64, 84
1, 114184, Control_c, 0, 64, 82
1, 114195, Note_on_c, 0, 71, 56
1, 114198, Control_c, 0, 64, 80
1, 114212, Note_off_c, 0, 78, 56
1, 114213, Control_c, 0, 64, 77
1, 114216, Note_off_c, 0, 54, 0
1, 114228, Control_c, 0, 64, 74
1, 114250, Control_c, 0, 64, 72
1, 114261, Poly_aftertouch_c, 0, 54, 127
1, 114265, Control_c, 0, 64, 67
1, 114280, Control_c, 0, 64, 60
1, 114289, Note_on_c, 0, 62, 54
1, 114295, Control_c, 0, 64, 50
1, 114310, Control_c, 0, 64, 41
1, 114324, Control_c, 0, 64, 37
1, 114339, Control_c, 0, 64, 39
1, 114344, Note_off_c, 0, 57, 56
1, 114354, Control_c, 0, 64, 45
1, 114368, Control_c, 0, 64, 54
1, 114383, Control_c, 0, 64, 61
1, 114398, Control_c, 0, 64, 65
1, 114410, Poly_aftertouch_c, 0, 54, 0
1, 114413, Control_c, 0, 64, 68
1, 114428, Control_c, 0, 64, 71
1, 114443, Control_c, 0, 64, 74
1, 114457, Control_c, 0, 64, 77
1, 114472, Control_c, 0, 64, 79
1, 114487, Control_c, 0, 64, 81
1, 114502, Control_c, 0, 64, 83
1, 114508, Note_on_c, 0, 57, 40
1, 114516, Control_c, 0, 64, 84
1, 114531, Control_c, 0, 64, 85
1, 114546, Control_c, 0, 64, 85
1, 114561, Control_c, 0, 64, 86
1, 114574, Note_off_c, 0, 62, 29
1, 114720, Note_on_c, 0, 54, 40
1, 114738, Control_c, 0, 64, 85
1, 114753, Control_c, 0, 64, 85
1, 114769, Control_c, 0, 64, 84
1, 114783, Control_c, 0, 64, 83
1, 114789, Note_off_c, 0, 57, 31
1, 114798, Control_c, 0, 64, 83
1, 114813, Control_c, 0, 64, 82
1, 114828, Control_c, 0, 64, 82
1, 114843, Control_c, 0, 64, 81
1, 114857, Control_c, 0, 64, 79
1, 114872, Control_c, 0, 64, 77
1, 114887, Control_c, 0, 64, 75
1, 114902, Control_c, 0, 64, 72
1, 114905, Note_on_c, 0, 69, 53
1, 114917, Control_c, 0, 64, 69
1, 114932, Control_c, 0, 64, 64
1, 114947, Control_c, 0, 64, 57
1, 114947, Note_on_c, 0, 61, 37
1, 114962, Control_c, 0, 64, 47
1, 114976, Control_c, 0, 64, 43
1, 114983, Note_off_c, 0, 54, 38
1, 114992, Note_off_c, 0, 71, 62
1, 114998, Control_c, 0, 64, 45
1, 115013, Control_c, 0, 64, 50
1, 115028, Control_c, 0, 64, 56
1, 115043, Control_c, 0, 64, 61
1, 115058, Control_c, 0, 64, 65
1, 115072, Control_c, 0, 64, 68
1, 115087, Control_c, 0, 64, 72
1, 115102, Control_c, 0, 64, 75
1, 115117, Control_c, 0, 64, 79
1, 115132, Control_c, 0, 64, 81
1, 115146, Control_c, 0, 64, 83
1, 115161, Control_c, 0, 64, 84
1, 115168, Note_on_c, 0, 57, 40
1, 115176, Control_c, 0, 64, 85
1, 115191, Control_c, 0, 64, 86
1, 115221, Control_c, 0, 64, 86
1, 115238, Note_on_c, 0, 73, 66
1, 115337, Note_on_c, 0, 54, 40
1, 115397, Note_off_c, 0, 61, 28
1, 115444, Control_c, 0, 64, 86
1, 115488, Control_c, 0, 64, 85
1, 115503, Control_c, 0, 64, 84
1, 115517, Control_c, 0, 64, 83
1, 115532, Control_c, 0, 64, 82
1, 115547, Control_c, 0, 64, 80
1, 115557, Note_on_c, 0, 78, 60
1, 115558, Note_on_c, 0, 49, 39
1, 115562, Control_c, 0, 64, 77
1, 115578, Control_c, 0, 64, 72
1, 115593, Control_c, 0, 64, 67
1, 115607, Control_c, 0, 64, 60
1, 115620, Note_off_c, 0, 69, 58
1, 115622, Control_c, 0, 64, 50
1, 115637, Control_c, 0, 64, 45
1, 115652, Control_c, 0, 64, 46
1, 115655, Note_off_c, 0, 57, 38
1, 115667, Control_c, 0, 64, 52
1, 115681, Control_c, 0, 64, 57
1, 115695, Note_off_c, 0, 73, 53
1, 115696, Control_c, 0, 64, 61
1, 115710, Note_off_c, 0, 54, 37
1, 115711, Control_c, 0, 64, 64
1, 115726, Control_c, 0, 64, 66
1, 115747, Note_on_c, 0, 52, 39
1, 115749, Control_c, 0, 64, 69
1, 115763, Control_c, 0, 64, 71
1, 115778, Control_c, 0, 64, 73
1, 115793, Control_c, 0, 64, 75
1, 115808, Control_c, 0, 64, 75
1, 115822, Control_c, 0, 64, 76
1, 115837, Control_c, 0, 64, 76
1, 115852, Control_c, 0, 64, 77
1, 115868, Note_off_c, 0, 49, 33
1, 115871, Note_on_c, 0, 76, 56
1, 115882, Control_c, 0, 64, 77
1, 115950, Note_on_c, 0, 57, 41
1, 116085, Note_off_c, 0, 78, 22
1, 116088, Control_c, 0, 64, 77
1, 116118, Control_c, 0, 64, 76
1, 116133, Control_c, 0, 64, 76
1, 116148, Control_c, 0, 64, 75
1, 116161, Note_on_c, 0, 69, 53
1, 116163, Control_c, 0, 64, 74
1, 116171, Note_off_c, 0, 76, 50
1, 116178, Control_c, 0, 64, 73
1, 116189, Note_on_c, 0, 61, 40
1, 116193, Control_c, 0, 64, 71
1, 116202, Note_off_c, 0, 57, 35
1, 116208, Control_c, 0, 64, 68
1, 116222, Control_c, 0, 64, 62
1, 116237, Control_c, 0, 64, 54
1, 116252, Control_c, 0, 64, 47
1, 116267, Control_c, 0, 64, 46
1, 116282, Control_c, 0, 64, 50
1, 116296, Control_c, 0, 64, 55
1, 116311, Control_c, 0, 64, 60
1, 116326, Control_c, 0, 64, 64
1, 116340, Control_c, 0, 64, 67
1, 116355, Control_c, 0, 64, 70
1, 116368, Note_on_c, 0, 54, 43
1, 116371, Control_c, 0, 64, 73
1, 116383, Note_off_c, 0, 52, 32
1, 116386, Control_c, 0, 64, 75
1, 116401, Control_c, 0, 64, 77
1, 116416, Control_c, 0, 64, 79
1, 116430, Control_c, 0, 64, 80
1, 116445, Control_c, 0, 64, 80
1, 116473, Note_on_c, 0, 68, 64
1, 116497, Control_c, 0, 64, 81
1, 116546, Note_off_c, 0, 69, 53
1, 116572, Note_off_c, 0, 54, 40
1, 116586, Note_off_c, 0, 61, 39
1, 116595, Note_on_c, 0, 50, 37
1, 116675, Control_c, 0, 64, 80
1, 116703, Control_c, 0, 64, 80
1, 116717, Control_c, 0, 64, 79
1, 116732, Control_c, 0, 64, 78
1, 116747, Control_c, 0, 64, 77
1, 116762, Control_c, 0, 64, 76
1, 116777, Control_c, 0, 64, 74
1, 116792, Control_c, 0, 64, 71
1, 116807, Control_c, 0, 64, 66
1, 116822, Control_c, 0, 64, 60
1, 116828, Note_on_c, 0, 76, 56
1, 116836, Control_c, 0, 64, 51
1, 116840, Note_on_c, 0, 59, 35
1, 116851, Control_c, 0, 64, 43
1, 116866, Control_c, 0, 64, 41
1, 116866, Note_off_c, 0, 68, 61
1, 116881, Control_c, 0, 64, 44
1, 116896, Control_c, 0, 64, 50
1, 116910, Control_c, 0, 64, 56
1, 116925, Control_c, 0, 64, 61
1, 116940, Control_c, 0, 64, 65
1, 116955, Control_c, 0, 64, 67
1, 116965, Note_off_c, 0, 50, 30
1, 116969, Control_c, 0, 64, 70
1, 116984, Control_c, 0, 64, 73
1, 116999, Control_c, 0, 64, 76
1, 117014, Control_c, 0, 64, 77
1, 117029, Control_c, 0, 64, 79
1, 117033, Note_on_c, 0, 54, 43
1, 117043, Control_c, 0, 64, 79
1, 117058, Control_c, 0, 64, 80
1, 117061, Note_off_c, 0, 59, 40
1, 117073, Control_c, 0, 64, 81
1, 117088, Control_c, 0, 64, 82
1, 117103, Control_c, 0, 64, 82
1, 117117, Control_c, 0, 64, 83
1, 117153, Note_on_c, 0, 74, 53
1, 117197, Note_off_c, 0, 76, 54
1, 117264, Note_on_c, 0, 44, 51
1, 117275, Note_off_c, 0, 54, 40
1, 117466, Control_c, 0, 64, 82
1, 117481, Control_c, 0, 64, 82
1, 117496, Control_c, 0, 64, 81
1, 117511, Control_c, 0, 64, 80
1, 117526, Control_c, 0, 64, 79
1, 117538, Note_on_c, 0, 71, 51
1, 117540, Control_c, 0, 64, 78
1, 117555, Control_c, 0, 64, 76
1, 117567, Note_on_c, 0, 49, 44
1, 117570, Control_c, 0, 64, 73
1, 117575, Note_off_c, 0, 74, 36
1, 117585, Control_c, 0, 64, 69
1, 117600, Control_c, 0, 64, 63
1, 117615, Control_c, 0, 64, 55
1, 117629, Control_c, 0, 64, 43
1, 117644, Control_c, 0, 64, 36
1, 117659, Control_c, 0, 64, 37
1, 117674, Control_c, 0, 64, 45
1, 117689, Control_c, 0, 64, 53
1, 117703, Control_c, 0, 64, 61
1, 117707, Note_off_c, 0, 44, 30
1, 117718, Control_c, 0, 64, 65
1, 117733, Control_c, 0, 64, 68
1, 117748, Control_c, 0, 64, 71
1, 117763, Control_c, 0, 64, 75
1, 117764, Note_on_c, 0, 53, 40
1, 117777, Control_c, 0, 64, 79
1, 117792, Control_c, 0, 64, 82
1, 117807, Control_c, 0, 64, 86
1, 117822, Control_c, 0, 64, 88
1, 117837, Control_c, 0, 64, 91
1, 117852, Control_c, 0, 64, 94
1, 117866, Control_c, 0, 64, 98
1, 117881, Control_c, 0, 64, 102
1, 117896, Control_c, 0, 64, 106
1, 117910, Control_c, 0, 64, 108
1, 117925, Control_c, 0, 64, 110
1, 117936, Note_on_c, 0, 68, 45
1, 117940, Control_c, 0, 64, 111
1, 117956, Control_c, 0, 64, 112
1, 117971, Control_c, 0, 64, 113
1, 117991, Note_off_c, 0, 71, 57
1, 117993, Control_c, 0, 64, 114
1, 118008, Control_c, 0, 64, 115
1, 118038, Control_c, 0, 64, 115
1, 118055, Note_off_c, 0, 49, 22
1, 118104, Note_off_c, 0, 68, 35
1, 118105, Note_off_c, 0, 53, 35
1, 118109, Note_on_c, 0, 59, 38
1, 118152, Note_off_c, 0, 59, 56
1, 118215, Control_c, 0, 64, 115
1, 118275, Control_c, 0, 64, 113
1, 118289, Control_c, 0, 64, 110
1, 118304, Control_c, 0, 64, 107
1, 118319, Control_c, 0, 64, 102
1, 118334, Control_c, 0, 64, 98
1, 118349, Control_c, 0, 64, 93
1, 118363, Control_c, 0, 64, 87
1, 118378, Control_c, 0, 64, 76
1, 118393, Control_c, 0, 64, 65
1, 118407, Control_c, 0, 64, 55
1, 118422, Control_c, 0, 64, 43
1, 118425, Note_on_c, 0, 73, 57
1, 118426, Note_on_c, 0, 42, 40
1, 118437, Control_c, 0, 64, 41
1, 118448, Note_on_c, 0, 69, 47
1, 118452, Control_c, 0, 64, 48
1, 118467, Control_c, 0, 64, 56
1, 118482, Control_c, 0, 64, 64
1, 118497, Control_c, 0, 64, 68
1, 118512, Control_c, 0, 64, 74
1, 118526, Control_c, 0, 64, 82
1, 118541, Control_c, 0, 64, 88
1, 118556, Control_c, 0, 64, 94
1, 118571, Control_c, 0, 64, 102
1, 118586, Control_c, 0, 64, 112
1, 118600, Control_c, 0, 64, 127
1, 118603, Note_off_c, 0, 42, 41
1, 118674, Note_on_c, 0, 57, 46
1, 118775, Note_on_c, 0, 81, 77
1, 118821, Note_off_c, 0, 69, 60
1, 118834, Note_off_c, 0, 73, 61
1, 118890, Note_on_c, 0, 54, 48
1, 118890, Note_off_c, 0, 57, 31
1, 119086, Note_on_c, 0, 61, 62
1, 119143, Note_on_c, 0, 80, 82
1, 119161, Note_off_c, 0, 81, 64
1, 119346, Note_on_c, 0, 57, 61
1, 119346, Note_off_c, 0, 61, 56
1, 119361, Note_off_c, 0, 54, 40
1, 119537, Note_off_c, 0, 57, 59
1, 119541, Note_on_c, 0, 54, 66
1, 119641, Note_off_c, 0, 54, 59
1, 119727, Note_on_c, 0, 78, 78
1, 119785, Note_on_c, 0, 69, 76
1, 119806, Note_off_c, 0, 80, 59
1, 119994, Note_on_c, 0, 57, 63
1, 120014, Note_off_c, 0, 69, 33
1, 120138, Note_off_c, 0, 57, 52
1, 120201, Note_on_c, 0, 54, 50
1, 120252, Note_off_c, 0, 54, 64
1, 120498, Note_on_c, 0, 76, 74
1, 120502, Note_off_c, 0, 78, 0
1, 120513, Note_on_c, 0, 68, 61
1, 120539, Poly_aftertouch_c, 0, 78, 127
1, 120548, Note_on_c, 0, 38, 52
1, 120552, Control_c, 0, 64, 105
1, 120566, Control_c, 0, 64, 94
1, 120581, Control_c, 0, 64, 84
1, 120586, Poly_aftertouch_c, 0, 78, 0
1, 120596, Control_c, 0, 64, 71
1, 120610, Control_c, 0, 64, 60
1, 120625, Control_c, 0, 64, 45
1, 120640, Control_c, 0, 64, 31
1, 120655, Control_c, 0, 64, 28
1, 120670, Control_c, 0, 64, 31
1, 120685, Control_c, 0, 64, 39
1, 120700, Control_c, 0, 64, 53
1, 120715, Control_c, 0, 64, 61
1, 120729, Control_c, 0, 64, 66
1, 120744, Control_c, 0, 64, 69
1, 120759, Control_c, 0, 64, 72
1, 120774, Control_c, 0, 64, 75
1, 120789, Control_c, 0, 64, 79
1, 120803, Control_c, 0, 64, 83
1, 120813, Note_on_c, 0, 45, 57
1, 120818, Control_c, 0, 64, 86
1, 120833, Control_c, 0, 64, 89
1, 120848, Control_c, 0, 64, 91
1, 120863, Control_c, 0, 64, 93
1, 120877, Control_c, 0, 64, 97
1, 120892, Control_c, 0, 64, 102
1, 120907, Control_c, 0, 64, 107
1, 120922, Control_c, 0, 64, 111
1, 120936, Control_c, 0, 64, 113
1, 120951, Control_c, 0, 64, 115
1, 120966, Control_c, 0, 64, 119
1, 120989, Control_c, 0, 64, 127
1, 120990, Note_off_c, 0, 68, 46
1, 121023, Note_off_c, 0, 38, 29
1, 121027, Note_off_c, 0, 45, 64
1, 121042, Note_on_c, 0, 50, 67
1, 121221, Note_off_c, 0, 50, 47
1, 121251, Note_on_c, 0, 69, 66
1, 121263, Note_on_c, 0, 54, 52
1, 121273, Note_on_c, 0, 66, 53
1, 121406, Note_off_c, 0, 76, 37
1, 121439, Note_on_c, 0, 57, 59
1, 121506, Note_off_c, 0, 54, 31
1, 121565, Note_on_c, 0, 73, 75
1, 121620, Note_off_c, 0, 69, 61
1, 121651, Note_off_c, 0, 66, 33
1, 121658, Note_on_c, 0, 50, 60
1, 121666, Note_off_c, 0, 57, 61
1, 121699, Note_off_c, 0, 50, 67
1, 121870, Control_c, 0, 64, 114
1, 121883, Note_on_c, 0, 76, 72
1, 121885, Control_c, 0, 64, 106
1, 121900, Control_c, 0, 64, 97
1, 121911, Note_on_c, 0, 42, 54
1, 121914, Control_c, 0, 64, 88
1, 121929, Control_c, 0, 64, 76
1, 121945, Control_c, 0, 64, 64
1, 121955, Note_off_c, 0, 73, 56
1, 121961, Control_c, 0, 64, 51
1, 121976, Control_c, 0, 64, 39
1, 121990, Control_c, 0, 64, 41
1, 122005, Control_c, 0, 64, 51
1, 122020, Control_c, 0, 64, 59
1, 122035, Control_c, 0, 64, 65
1, 122049, Control_c, 0, 64, 70
1, 122064, Control_c, 0, 64, 77
1, 122079, Control_c, 0, 64, 84
1, 122094, Control_c, 0, 64, 89
1, 122104, Note_on_c, 0, 50, 61
1, 122109, Control_c, 0, 64, 93
1, 122123, Control_c, 0, 64, 98
1, 122138, Control_c, 0, 64, 104
1, 122153, Control_c, 0, 64, 110
1, 122168, Control_c, 0, 64, 118
1, 122172, Note_off_c, 0, 42, 32
1, 122180, Note_on_c, 0, 74, 71
1, 122182, Control_c, 0, 64, 127
1, 122214, Note_off_c, 0, 76, 62
1, 122248, Note_off_c, 0, 50, 64
1, 122280, Note_on_c, 0, 57, 62
1, 122339, Note_off_c, 0, 57, 54
1, 122455, Note_on_c, 0, 44, 56
1, 122486, Control_c, 0, 64, 124
1, 122501, Control_c, 0, 64, 111
1, 122516, Control_c, 0, 64, 104
1, 122530, Control_c, 0, 64, 98
1, 122539, Note_off_c, 0, 74, 61
1, 122544, Note_on_c, 0, 73, 66
1, 122545, Control_c, 0, 64, 91
1, 122554, Note_on_c, 0, 64, 67
1, 122560, Control_c, 0, 64, 85
1, 122575, Control_c, 0, 64, 79
1, 122590, Control_c, 0, 64, 72
1, 122605, Control_c, 0, 64, 64
1, 122619, Control_c, 0, 64, 56
1, 122634, Control_c, 0, 64, 43
1, 122649, Control_c, 0, 64, 30
1, 122664, Control_c, 0, 64, 26
1, 122679, Control_c, 0, 64, 27
1, 122694, Control_c, 0, 64, 34
1, 122708, Control_c, 0, 64, 48
1, 122723, Control_c, 0, 64, 58
1, 122738, Control_c, 0, 64, 64
1, 122754, Control_c, 0, 64, 67
1, 122769, Control_c, 0, 64, 70
1, 122783, Control_c, 0, 64, 73
1, 122789, Note_on_c, 0, 52, 52
1, 122798, Control_c, 0, 64, 77
1, 122813, Control_c, 0, 64, 81
1, 122828, Control_c, 0, 64, 84
1, 122843, Control_c, 0, 64, 87
1, 122858, Control_c, 0, 64, 89
1, 122859, Note_off_c, 0, 44, 0
1, 122872, Control_c, 0, 64, 91
1, 122887, Control_c, 0, 64, 92
1, 122902, Control_c, 0, 64, 94
1, 122917, Control_c, 0, 64, 94
1, 122921, Poly_aftertouch_c, 0, 44, 0
1, 122932, Control_c, 0, 64, 95
1, 122947, Control_c, 0, 64, 95
1, 122968, Note_off_c, 0, 64, 55
1, 122976, Control_c, 0, 64, 96
1, 123009, Note_on_c, 0, 56, 47
1, 123031, Note_off_c, 0, 52, 35
1, 123109, Control_c, 0, 64, 95
1, 123168, Control_c, 0, 64, 94
1, 123183, Control_c, 0, 64, 93
1, 123198, Control_c, 0, 64, 91
1, 123203, Note_on_c, 0, 44, 49
1, 123213, Control_c, 0, 64, 89
1, 123234, Note_off_c, 0, 56, 27
1, 123235, Control_c, 0, 64, 86
1, 123250, Control_c, 0, 64, 83
1, 123265, Control_c, 0, 64, 80
1, 123279, Control_c, 0, 64, 76
1, 123283, Note_on_c, 0, 66, 57
1, 123284, Note_on_c, 0, 63, 48
1, 123294, Control_c, 0, 64, 72
1, 123309, Control_c, 0, 64, 66
1, 123323, Control_c, 0, 64, 60
1, 123338, Control_c, 0, 64, 48
1, 123353, Control_c, 0, 64, 22
1, 123368, Control_c, 0, 64, 0
1, 123399, Note_off_c, 0, 73, 57
1, 123442, Control_c, 0, 64, 37
1, 123457, Control_c, 0, 64, 54
1, 123472, Control_c, 0, 64, 61
1, 123478, Note_on_c, 0, 51, 51
1, 123487, Control_c, 0, 64, 64
1, 123502, Control_c, 0, 64, 65
1, 123517, Control_c, 0, 64, 68
1, 123531, Control_c, 0, 64, 70
1, 123546, Control_c, 0, 64, 73
1, 123562, Control_c, 0, 64, 75
1, 123576, Control_c, 0, 64, 76
1, 123591, Control_c, 0, 64, 76
1, 123606, Control_c, 0, 64, 77
1, 123609, Note_on_c, 0, 68, 68
1, 123609, Note_off_c, 0, 44, 33
1, 123621, Control_c, 0, 64, 77
1, 123636, Control_c, 0, 64, 78
1, 123651, Control_c, 0, 64, 78
1, 123702, Note_off_c, 0, 63, 34
1, 123724, Note_on_c, 0, 54, 58
1, 123731, Note_off_c, 0, 66, 33
1, 123799, Control_c, 0, 64, 79
1, 123991, Note_on_c, 0, 69, 57
1, 123999, Control_c, 0, 64, 78
1, 124014, Control_c, 0, 64, 76
1, 124018, Note_off_c, 0, 68, 51
1, 124021, Note_on_c, 0, 60, 45
1, 124028, Control_c, 0, 64, 71
1, 124043, Control_c, 0, 64, 64
1, 124058, Control_c, 0, 64, 57
1, 124073, Control_c, 0, 64, 56
1, 124077, Note_off_c, 0, 54, 56
1, 124088, Control_c, 0, 64, 59
1, 124102, Control_c, 0, 64, 62
1, 124117, Control_c, 0, 64, 66
1, 124132, Control_c, 0, 64, 70
1, 124146, Control_c, 0, 64, 75
1, 124155, Note_off_c, 0, 51, 33
1, 124161, Control_c, 0, 64, 78
1, 124176, Control_c, 0, 64, 80
1, 124191, Control_c, 0, 64, 81
1, 124191, Control_c, 0, 67, 9
1, 124206, Control_c, 0, 64, 83
1, 124206, Control_c, 0, 67, 10
1, 124220, Control_c, 0, 64, 85
1, 124220, Control_c, 0, 67, 12
1, 124235, Control_c, 0, 64, 86
1, 124235, Control_c, 0, 67, 14
1, 124245, Note_on_c, 0, 54, 47
1, 124250, Control_c, 0, 64, 87
1, 124250, Control_c, 0, 67, 17
1, 124265, Control_c, 0, 64, 88
1, 124265, Control_c, 0, 67, 20
1, 124268, Note_off_c, 0, 60, 39
1, 124280, Control_c, 0, 64, 88
1, 124280, Control_c, 0, 67, 22
1, 124295, Control_c, 0, 64, 89
1, 124295, Control_c, 0, 67, 24
1, 124310, Control_c, 0, 64, 90
1, 124310, Control_c, 0, 67, 26
1, 124325, Control_c, 0, 64, 90
1, 124325, Control_c, 0, 67, 28
1, 124339, Control_c, 0, 64, 91
1, 124339, Control_c, 0, 67, 31
1, 124355, Control_c, 0, 67, 35
1, 124367, Note_on_c, 0, 66, 57
1, 124370, Control_c, 0, 67, 41
1, 124384, Control_c, 0, 64, 91
1, 124384, Control_c, 0, 67, 45
1, 124399, Control_c, 0, 64, 92
1, 124399, Control_c, 0, 67, 48
1, 124414, Control_c, 0, 67, 51
1, 124429, Control_c, 0, 67, 53
1, 124459, Control_c, 0, 64, 92
1, 124459, Control_c, 0, 67, 53
1, 124461, Note_off_c, 0, 69, 34
1, 124489, Control_c, 0, 67, 54
1, 124503, Control_c, 0, 67, 55
1, 124509, Note_off_c, 0, 54, 44
1, 124516, Note_on_c, 0, 51, 44
1, 124518, Control_c, 0, 67, 59
1, 124533, Control_c, 0, 67, 62
1, 124548, Control_c, 0, 67, 65
1, 124557, Note_off_c, 0, 51, 57
1, 124563, Control_c, 0, 67, 69
1, 124577, Control_c, 0, 67, 73
1, 124592, Control_c, 0, 67, 78
1, 124607, Control_c, 0, 67, 82
1, 124622, Control_c, 0, 67, 85
1, 124637, Control_c, 0, 67, 87
1, 124651, Control_c, 0, 67, 88
1, 124681, Control_c, 0, 67, 88
1, 124696, Control_c, 0, 67, 89
1, 124733, Control_c, 0, 67, 90
1, 124748, Control_c, 0, 67, 90
1, 124792, Control_c, 0, 64, 92
1, 124792, Control_c, 0, 67, 91
1, 124807, Control_c, 0, 64, 91
1, 124822, Control_c, 0, 64, 90
1, 124837, Control_c, 0, 64, 89
1, 124851, Control_c, 0, 64, 88
1, 124866, Control_c, 0, 64, 87
1, 124881, Control_c, 0, 64, 85
1, 124881, Control_c, 0, 67, 91
1, 124889, Note_on_c, 0, 65, 51
1, 124896, Control_c, 0, 64, 83
1, 124911, Control_c, 0, 64, 79
1, 124917, Note_on_c, 0, 61, 37
1, 124924, Note_on_c, 0, 37, 43
1, 124925, Control_c, 0, 64, 75
1, 124939, Control_c, 0, 64, 71
1, 124939, Control_c, 0, 67, 92
1, 124954, Control_c, 0, 64, 67
1, 124954, Control_c, 0, 67, 92
1, 124968, Control_c, 0, 64, 62
1, 124983, Control_c, 0, 64, 53
1, 124983, Control_c, 0, 67, 95
1, 124998, Control_c, 0, 64, 41
1, 124998, Control_c, 0, 67, 96
1, 125000, Note_off_c, 0, 61, 0
1, 125000, Note_on_c, 0, 61, 3
1, 125010, Note_off_c, 0, 66, 29
1, 125013, Control_c, 0, 64, 18
1, 125013, Control_c, 0, 67, 97
1, 125028, Control_c, 0, 64, 0
1, 125043, Control_c, 0, 67, 97
1, 125073, Control_c, 0, 64, 25
1, 125073, Control_c, 0, 67, 98
1, 125088, Control_c, 0, 64, 42
1, 125088, Control_c, 0, 67, 98
1, 125102, Control_c, 0, 64, 55
1, 125117, Control_c, 0, 64, 63
1, 125132, Control_c, 0, 64, 64
1, 125147, Control_c, 0, 64, 65
1, 125162, Control_c, 0, 64, 67
1, 125162, Control_c, 0, 67, 99
1, 125177, Control_c, 0, 64, 69
1, 125192, Control_c, 0, 64, 72
1, 125192, Control_c, 0, 67, 99
1, 125205, Note_on_c, 0, 44, 41
1, 125207, Control_c, 0, 64, 74
1, 125207, Control_c, 0, 67, 100
1, 125222, Control_c, 0, 64, 76
1, 125222, Control_c, 0, 67, 100
1, 125237, Control_c, 0, 64, 77
1, 125237, Control_c, 0, 67, 102
1, 125237, Note_off_c, 0, 37, 32
1, 125252, Control_c, 0, 64, 78
1, 125252, Control_c, 0, 67, 103
1, 125267, Control_c, 0, 64, 79
1, 125267, Control_c, 0, 67, 103
1, 125281, Control_c, 0, 64, 80
1, 125281, Control_c, 0, 67, 105
1, 125296, Control_c, 0, 64, 80
1, 125296, Control_c, 0, 67, 107
1, 125311, Control_c, 0, 67, 108
1, 125460, Note_on_c, 0, 49, 43
1, 125526, Control_c, 0, 67, 108
1, 125552, Note_off_c, 0, 44, 33
1, 125555, Control_c, 0, 67, 107
1, 125625, Note_off_c, 0, 49, 60
1, 125681, Note_on_c, 0, 53, 38
1, 125781, Note_on_c, 0, 68, 54
1, 125937, Note_off_c, 0, 53, 38
1, 125943, Note_off_c, 0, 61, 36
1, 125954, Note_off_c, 0, 65, 48
1, 125957, Control_c, 0, 67, 108
1, 125971, Note_on_c, 0, 56, 43
1, 126060, Control_c, 0, 67, 108
1, 126119, Control_c, 0, 67, 109
1, 126179, Control_c, 0, 67, 109
1, 126209, Control_c, 0, 67, 110
1, 126230, Control_c, 0, 67, 110
1, 126245, Control_c, 0, 67, 112
1, 126260, Control_c, 0, 67, 113
1, 126271, Note_on_c, 0, 59, 41
1, 126275, Control_c, 0, 67, 114
1, 126290, Control_c, 0, 67, 116
1, 126304, Control_c, 0, 67, 117
1, 126319, Control_c, 0, 67, 118
1, 126334, Control_c, 0, 67, 119
1, 126349, Control_c, 0, 67, 120
1, 126364, Control_c, 0, 67, 121
1, 126366, Note_off_c, 0, 56, 36
1, 126378, Control_c, 0, 67, 123
1, 126393, Control_c, 0, 67, 123
1, 126408, Control_c, 0, 67, 124
1, 126423, Control_c, 0, 67, 125
1, 126438, Control_c, 0, 67, 126
1, 126453, Control_c, 0, 67, 126
1, 126468, Control_c, 0, 67, 127
1, 126601, Control_c, 0, 64, 80
1, 126659, Note_on_c, 0, 65, 37
1, 126690, Control_c, 0, 64, 79
1, 126760, Note_off_c, 0, 59, 41
1, 126794, Control_c, 0, 64, 79
1, 126868, Control_c, 0, 64, 78
1, 126912, Control_c, 0, 64, 78
1, 126929, Note_off_c, 0, 65, 42
1, 126979, Control_c, 0, 64, 77
1, 127009, Control_c, 0, 64, 77
1, 127024, Control_c, 0, 64, 76
1, 127053, Control_c, 0, 64, 76
1, 127083, Control_c, 0, 64, 75
1, 127113, Control_c, 0, 64, 75
1, 127142, Control_c, 0, 64, 74
1, 127157, Control_c, 0, 64, 74
1, 127186, Control_c, 0, 64, 73
1, 127216, Control_c, 0, 64, 73
1, 127246, Control_c, 0, 64, 72
1, 127261, Control_c, 0, 64, 72
1, 127291, Control_c, 0, 64, 71
1, 127335, Control_c, 0, 64, 71
1, 127350, Control_c, 0, 64, 70
1, 127365, Control_c, 0, 64, 70
1, 127379, Control_c, 0, 64, 69
1, 127409, Note_on_c, 0, 73, 43
1, 127409, Control_c, 0, 64, 69
1, 127424, Control_c, 0, 64, 68
1, 127439, Control_c, 0, 64, 68
1, 127453, Control_c, 0, 64, 67
1, 127468, Control_c, 0, 64, 67
1, 127483, Control_c, 0, 64, 66
1, 127498, Control_c, 0, 64, 66
1, 127513, Control_c, 0, 64, 65
1, 127527, Control_c, 0, 64, 65
1, 127534, Note_off_c, 0, 68, 61
1, 127543, Control_c, 0, 64, 64
1, 127573, Control_c, 0, 64, 64
1, 127587, Control_c, 0, 64, 63
1, 127617, Control_c, 0, 64, 63
1, 127632, Control_c, 0, 64, 62
1, 127647, Control_c, 0, 64, 62
1, 127661, Control_c, 0, 64, 61
1, 127676, Control_c, 0, 64, 60
1, 127691, Control_c, 0, 64, 60
1, 127706, Control_c, 0, 64, 59
1, 127729, Control_c, 0, 64, 59
1, 127743, Control_c, 0, 64, 58
1, 127758, Control_c, 0, 64, 57
1, 127788, Control_c, 0, 64, 57
1, 127802, Control_c, 0, 64, 56
1, 127817, Control_c, 0, 64, 56
1, 127832, Control_c, 0, 64, 55
1, 127847, Control_c, 0, 64, 55
1, 127862, Control_c, 0, 64, 54
1, 127876, Control_c, 0, 64, 54
1, 127891, Control_c, 0, 64, 53
1, 127906, Control_c, 0, 64, 52
1, 127921, Control_c, 0, 64, 52
1, 127934, Control_c, 0, 64, 51
1, 127949, Control_c, 0, 64, 50
1, 127964, Control_c, 0, 64, 49
1, 127979, Control_c, 0, 64, 47
1, 127993, Control_c, 0, 64, 46
1, 128008, Control_c, 0, 64, 43
1, 128023, Control_c, 0, 64, 40
1, 128038, Control_c, 0, 64, 35
1, 128053, Control_c, 0, 64, 30
1, 128067, Control_c, 0, 64, 25
1, 128082, Control_c, 0, 64, 23
1, 128112, Control_c, 0, 64, 27
1, 128126, Control_c, 0, 64, 36
1, 128141, Control_c, 0, 64, 44
1, 128156, Control_c, 0, 64, 49
1, 128171, Control_c, 0, 64, 52
1, 128186, Control_c, 0, 64, 55
1, 128200, Control_c, 0, 64, 57
1, 128215, Control_c, 0, 64, 58
1, 128230, Control_c, 0, 64, 60
1, 128245, Control_c, 0, 64, 61
1, 128255, Note_on_c, 0, 42, 30
1, 128260, Control_c, 0, 64, 62
1, 128274, Control_c, 0, 64, 63
1, 128289, Control_c, 0, 64, 64
1, 128304, Control_c, 0, 64, 65
1, 128319, Control_c, 0, 64, 66
1, 128334, Control_c, 0, 64, 67
1, 128350, Control_c, 0, 64, 68
1, 128364, Control_c, 0, 64, 70
1, 128379, Control_c, 0, 64, 71
1, 128394, Control_c, 0, 64, 72
1, 128409, Control_c, 0, 64, 74
1, 128423, Control_c, 0, 64, 75
1, 128438, Control_c, 0, 64, 76
1, 128453, Control_c, 0, 64, 77
1, 128476, Control_c, 0, 64, 78
1, 128491, Control_c, 0, 64, 79
1, 128505, Control_c, 0, 64, 79
1, 128520, Control_c, 0, 64, 80
1, 128535, Control_c, 0, 64, 81
1, 128579, Control_c, 0, 64, 81
1, 128585, Note_on_c, 0, 49, 36
1, 128609, Control_c, 0, 64, 82
1, 128621, Note_off_c, 0, 42, 32
1, 128751, Note_on_c, 0, 78, 51
1, 128832, Note_off_c, 0, 49, 38
1, 128846, Note_off_c, 0, 73, 50
1, 128882, Note_on_c, 0, 57, 39
1, 128979, Control_c, 0, 64, 81
1, 129009, Control_c, 0, 64, 81
1, 129053, Control_c, 0, 64, 80
1, 129083, Control_c, 0, 64, 80
1, 129097, Control_c, 0, 64, 79
1, 129097, Control_c, 0, 67, 127
1, 129112, Control_c, 0, 64, 79
1, 129140, Note_off_c, 0, 57, 0
1, 129143, Control_c, 0, 64, 78
1, 129158, Control_c, 0, 64, 78
1, 129158, Control_c, 0, 67, 126
1, 129177, Poly_aftertouch_c, 0, 57, 127
1, 129187, Control_c, 0, 64, 77
1, 129198, Note_on_c, 0, 76, 54
1, 129225, Control_c, 0, 64, 77
1, 129240, Control_c, 0, 64, 76
1, 129254, Control_c, 0, 64, 74
1, 129269, Control_c, 0, 64, 72
1, 129284, Control_c, 0, 64, 68
1, 129291, Note_on_c, 0, 61, 56
1, 129295, Poly_aftertouch_c, 0, 57, 0
1, 129299, Control_c, 0, 64, 65
1, 129314, Control_c, 0, 64, 64
1, 129328, Control_c, 0, 64, 64
1, 129343, Control_c, 0, 64, 65
1, 129358, Control_c, 0, 64, 66
1, 129372, Control_c, 0, 64, 67
1, 129387, Control_c, 0, 64, 69
1, 129402, Control_c, 0, 64, 70
1, 129417, Control_c, 0, 64, 72
1, 129433, Control_c, 0, 64, 73
1, 129447, Control_c, 0, 64, 74
1, 129457, Note_off_c, 0, 78, 28
1, 129462, Control_c, 0, 64, 75
1, 129462, Control_c, 0, 67, 126
1, 129477, Control_c, 0, 64, 76
1, 129492, Control_c, 0, 64, 77
1, 129507, Control_c, 0, 64, 78
1, 129521, Control_c, 0, 64, 79
1, 129536, Control_c, 0, 64, 80
1, 129565, Control_c, 0, 64, 81
1, 129592, Note_off_c, 0, 61, 35
1, 129592, Note_on_c, 0, 57, 40
1, 129595, Control_c, 0, 67, 125
1, 129684, Control_c, 0, 67, 125
1, 129779, Note_off_c, 0, 57, 41
1, 129808, Note_on_c, 0, 54, 45
1, 129907, Control_c, 0, 64, 80
1, 129952, Control_c, 0, 64, 80
1, 129989, Control_c, 0, 64, 79
1, 130003, Control_c, 0, 64, 79
1, 130018, Control_c, 0, 64, 78
1, 130033, Control_c, 0, 64, 78
1, 130048, Control_c, 0, 64, 77
1, 130063, Control_c, 0, 64, 77
1, 130072, Note_on_c, 0, 74, 53
1, 130078, Control_c, 0, 64, 76
1, 130093, Control_c, 0, 64, 75
1, 130108, Control_c, 0, 64, 73
1, 130122, Control_c, 0, 64, 72
1, 130137, Control_c, 0, 64, 70
1, 130142, Note_on_c, 0, 66, 55
1, 130152, Control_c, 0, 64, 66
1, 130167, Control_c, 0, 64, 61
1, 130170, Note_off_c, 0, 76, 33
1, 130182, Control_c, 0, 64, 55
1, 130196, Control_c, 0, 64, 51
1, 130211, Control_c, 0, 64, 52
1, 130226, Control_c, 0, 64, 56
1, 130241, Control_c, 0, 64, 60
1, 130256, Control_c, 0, 64, 63
1, 130270, Control_c, 0, 64, 66
1, 130285, Control_c, 0, 64, 68
1, 130300, Control_c, 0, 64, 70
1, 130315, Control_c, 0, 64, 72
1, 130330, Control_c, 0, 64, 75
1, 130344, Control_c, 0, 64, 78
1, 130359, Control_c, 0, 64, 80
1, 130359, Control_c, 0, 67, 124
1, 130374, Control_c, 0, 64, 81
1, 130388, Control_c, 0, 64, 82
1, 130403, Control_c, 0, 64, 83
1, 130418, Control_c, 0, 64, 83
1, 130433, Control_c, 0, 64, 84
1, 130435, Note_on_c, 0, 57, 34
1, 130438, Note_off_c, 0, 54, 38
1, 130448, Control_c, 0, 64, 85
1, 130545, Note_off_c, 0, 66, 41
1, 130652, Note_on_c, 0, 54, 37
1, 130656, Note_off_c, 0, 57, 35
1, 130670, Control_c, 0, 67, 124
1, 130753, Control_c, 0, 64, 84
1, 130767, Control_c, 0, 64, 84
1, 130782, Control_c, 0, 64, 83
1, 130797, Control_c, 0, 64, 82
1, 130812, Control_c, 0, 64, 82
1, 130826, Control_c, 0, 64, 81
1, 130841, Control_c, 0, 64, 79
1, 130856, Control_c, 0, 64, 77
1, 130856, Control_c, 0, 67, 124
1, 130870, Note_on_c, 0, 73, 47
1, 130871, Control_c, 0, 64, 75
1, 130886, Control_c, 0, 64, 73
1, 130900, Control_c, 0, 64, 70
1, 130912, Note_on_c, 0, 64, 46
1, 130915, Note_off_c, 0, 74, 57
1, 130915, Control_c, 0, 64, 68
1, 130930, Control_c, 0, 64, 64
1, 130945, Control_c, 0, 64, 57
1, 130960, Control_c, 0, 64, 48
1, 130975, Control_c, 0, 64, 42
1, 130990, Control_c, 0, 64, 41
1, 131005, Control_c, 0, 64, 45
1, 131019, Control_c, 0, 64, 51
1, 131034, Control_c, 0, 64, 57
1, 131049, Control_c, 0, 64, 62
1, 131064, Control_c, 0, 64, 65
1, 131079, Control_c, 0, 64, 67
1, 131093, Control_c, 0, 64, 69
1, 131108, Control_c, 0, 64, 71
1, 131108, Control_c, 0, 67, 124
1, 131123, Control_c, 0, 64, 74
1, 131125, Note_off_c, 0, 54, 38
1, 131137, Control_c, 0, 64, 77
1, 131142, Note_on_c, 0, 57, 39
1, 131152, Control_c, 0, 64, 80
1, 131167, Control_c, 0, 64, 82
1, 131182, Control_c, 0, 64, 84
1, 131197, Control_c, 0, 64, 85
1, 131211, Control_c, 0, 64, 85
1, 131211, Control_c, 0, 67, 123
1, 131256, Control_c, 0, 64, 86
1, 131319, Note_off_c, 0, 64, 36
1, 131347, Note_off_c, 0, 57, 40
1, 131354, Note_on_c, 0, 54, 43
1, 131360, Control_c, 0, 64, 85
1, 131360, Control_c, 0, 67, 123
1, 131374, Control_c, 0, 67, 122
1, 131389, Control_c, 0, 67, 122
1, 131404, Control_c, 0, 67, 121
1, 131434, Control_c, 0, 67, 121
1, 131449, Control_c, 0, 64, 85
1, 131449, Control_c, 0, 67, 120
1, 131471, Control_c, 0, 64, 84
1, 131485, Control_c, 0, 64, 84
1, 131500, Control_c, 0, 64, 83
1, 131500, Control_c, 0, 67, 120
1, 131515, Control_c, 0, 64, 82
1, 131530, Control_c, 0, 64, 81
1, 131530, Control_c, 0, 67, 119
1, 131546, Control_c, 0, 64, 80
1, 131560, Control_c, 0, 64, 77
1, 131575, Control_c, 0, 64, 74
1, 131582, Note_on_c, 0, 62, 44
1, 131590, Control_c, 0, 64, 71
1, 131590, Control_c, 0, 67, 119
1, 131605, Control_c, 0, 64, 67
1, 131620, Control_c, 0, 64, 62
1, 131635, Control_c, 0, 64, 54
1, 131635, Control_c, 0, 67, 118
1, 131646, Note_off_c, 0, 54, 39
1, 131649, Control_c, 0, 64, 45
1, 131664, Control_c, 0, 64, 39
1, 131664, Control_c, 0, 67, 118
1, 131678, Control_c, 0, 67, 117
1, 131685, Note_on_c, 0, 71, 46
1, 131693, Control_c, 0, 64, 42
1, 131693, Control_c, 0, 67, 117
1, 131708, Control_c, 0, 64, 48
1, 131708, Control_c, 0, 67, 116
1, 131723, Control_c, 0, 64, 55
1, 131732, Note_off_c, 0, 73, 55
1, 131738, Control_c, 0, 64, 62
1, 131738, Control_c, 0, 67, 116
1, 131753, Control_c, 0, 64, 65
1, 131753, Control_c, 0, 67, 115
1, 131767, Control_c, 0, 64, 68
1, 131767, Control_c, 0, 67, 114
1, 131782, Control_c, 0, 64, 70
1, 131797, Control_c, 0, 64, 73
1, 131797, Control_c, 0, 67, 114
1, 131812, Control_c, 0, 64, 76
1, 131812, Control_c, 0, 67, 113
1, 131827, Control_c, 0, 64, 79
1, 131827, Control_c, 0, 67, 113
1, 131841, Control_c, 0, 64, 81
1, 131856, Control_c, 0, 64, 83
1, 131871, Control_c, 0, 64, 84
1, 131886, Control_c, 0, 64, 86
1, 131895, Note_on_c, 0, 57, 26
1, 131901, Control_c, 0, 64, 87
1, 131915, Control_c, 0, 64, 87
1, 131930, Control_c, 0, 64, 88
1, 131940, Note_off_c, 0, 62, 37
1, 132012, Note_on_c, 0, 74, 60
1, 132130, Note_on_c, 0, 54, 31
1, 132145, Note_off_c, 0, 57, 38
1, 132293, Control_c, 0, 67, 113
1, 132357, Note_on_c, 0, 80, 59
1, 132373, Note_off_c, 0, 54, 37
1, 132392, Note_on_c, 0, 47, 37
1, 132392, Note_off_c, 0, 71, 37
1, 132412, Control_c, 0, 67, 114
1, 132456, Note_off_c, 0, 74, 60
1, 132502, Control_c, 0, 64, 87
1, 132546, Control_c, 0, 64, 87
1, 132568, Note_on_c, 0, 54, 43
1, 132587, Note_off_c, 0, 47, 35
1, 132591, Control_c, 0, 64, 86
1, 132620, Control_c, 0, 64, 86
1, 132665, Control_c, 0, 64, 85
1, 132683, Note_on_c, 0, 78, 55
1, 132710, Control_c, 0, 67, 113
1, 132725, Control_c, 0, 64, 85
1, 132754, Control_c, 0, 64, 84
1, 132794, Note_on_c, 0, 57, 45
1, 132798, Note_off_c, 0, 80, 0
1, 132798, Control_c, 0, 64, 84
1, 132828, Control_c, 0, 67, 113
1, 132835, Poly_aftertouch_c, 0, 80, 127
1, 132857, Control_c, 0, 64, 83
1, 132857, Control_c, 0, 67, 112
1, 132887, Control_c, 0, 67, 112
1, 132902, Control_c, 0, 64, 83
1, 132902, Control_c, 0, 67, 111
1, 132909, Poly_aftertouch_c, 0, 80, 0
1, 132916, Control_c, 0, 67, 110
1, 132931, Control_c, 0, 67, 109
1, 132946, Control_c, 0, 64, 82
1, 132946, Control_c, 0, 67, 108
1, 132969, Control_c, 0, 67, 107
1, 132984, Control_c, 0, 64, 82
1, 132984, Control_c, 0, 67, 106
1, 132998, Control_c, 0, 64, 81
1, 132998, Control_c, 0, 67, 106
1, 133013, Control_c, 0, 64, 81
1, 133028, Control_c, 0, 64, 80
1, 133028, Control_c, 0, 67, 105
1, 133043, Control_c, 0, 64, 79
1, 133058, Control_c, 0, 64, 78
1, 133063, Note_off_c, 0, 78, 56
1, 133072, Control_c, 0, 64, 77
1, 133077, Note_on_c, 0, 71, 50
1, 133087, Control_c, 0, 64, 77
1, 133102, Control_c, 0, 64, 76
1, 133116, Control_c, 0, 64, 75
1, 133131, Control_c, 0, 64, 74
1, 133148, Control_c, 0, 64, 73
1, 133148, Control_c, 0, 67, 105
1, 133162, Control_c, 0, 64, 72
1, 133177, Control_c, 0, 64, 70
1, 133180, Note_on_c, 0, 62, 58
1, 133192, Control_c, 0, 64, 66
1, 133206, Control_c, 0, 64, 61
1, 133221, Control_c, 0, 64, 54
1, 133236, Control_c, 0, 64, 50
1, 133251, Control_c, 0, 64, 50
1, 133266, Control_c, 0, 64, 54
1, 133280, Control_c, 0, 64, 58
1, 133295, Control_c, 0, 64, 62
1, 133310, Control_c, 0, 64, 65
1, 133325, Control_c, 0, 64, 69
1, 133325, Control_c, 0, 67, 104
1, 133340, Control_c, 0, 64, 72
1, 133345, Note_off_c, 0, 57, 33
1, 133354, Control_c, 0, 64, 75
1, 133369, Control_c, 0, 64, 77
1, 133384, Control_c, 0, 64, 79
1, 133399, Control_c, 0, 64, 80
1, 133413, Note_off_c, 0, 54, 27
1, 133413, Control_c, 0, 64, 81
1, 133428, Control_c, 0, 64, 81
1, 133443, Control_c, 0, 64, 82
1, 133461, Note_on_c, 0, 57, 33
1, 133473, Control_c, 0, 64, 82
1, 133562, Note_off_c, 0, 62, 30
1, 133592, Control_c, 0, 67, 105
1, 133651, Control_c, 0, 64, 82
1, 133680, Control_c, 0, 64, 81
1, 133695, Control_c, 0, 64, 81
1, 133724, Note_on_c, 0, 54, 17
1, 133732, Control_c, 0, 64, 80
1, 133747, Control_c, 0, 64, 80
1, 133762, Control_c, 0, 64, 79
1, 133777, Control_c, 0, 64, 79
1, 133792, Control_c, 0, 64, 78
1, 133807, Control_c, 0, 64, 78
1, 133821, Control_c, 0, 64, 77
1, 133821, Control_c, 0, 67, 105
1, 133836, Control_c, 0, 64, 76
1, 133851, Control_c, 0, 64, 75
1, 133866, Control_c, 0, 64, 73
1, 133881, Control_c, 0, 64, 72
1, 133885, Note_on_c, 0, 69, 45
1, 133895, Control_c, 0, 64, 70
1, 133910, Control_c, 0, 64, 69
1, 133925, Control_c, 0, 64, 67
1, 133932, Note_off_c, 0, 71, 57
1, 133941, Control_c, 0, 64, 63
1, 133951, Note_on_c, 0, 61, 38
1, 133956, Control_c, 0, 64, 58
1, 133962, Note_off_c, 0, 57, 37
1, 133970, Control_c, 0, 64, 50
1, 133985, Control_c, 0, 64, 45
1, 134000, Control_c, 0, 64, 45
1, 134015, Control_c, 0, 64, 47
1, 134030, Control_c, 0, 64, 52
1, 134044, Control_c, 0, 64, 57
1, 134059, Control_c, 0, 64, 62
1, 134074, Control_c, 0, 64, 65
1, 134089, Control_c, 0, 64, 67
1, 134104, Control_c, 0, 64, 69
1, 134118, Control_c, 0, 64, 71
1, 134133, Control_c, 0, 64, 73
1, 134148, Control_c, 0, 64, 76
1, 134162, Control_c, 0, 64, 78
1, 134173, Note_on_c, 0, 57, 36
1, 134177, Control_c, 0, 64, 79
1, 134192, Control_c, 0, 64, 81
1, 134207, Control_c, 0, 64, 82
1, 134222, Control_c, 0, 64, 82
1, 134227, Note_off_c, 0, 54, 16
1, 134236, Control_c, 0, 64, 83
1, 134251, Control_c, 0, 64, 84
1, 134266, Control_c, 0, 64, 84
1, 134293, Note_on_c, 0, 73, 54
1, 134311, Control_c, 0, 64, 85
1, 134326, Control_c, 0, 64, 85
1, 134353, Note_on_c, 0, 54, 26
1, 134355, Control_c, 0, 64, 86
1, 134528, Note_off_c, 0, 61, 27
1, 134585, Control_c, 0, 64, 85
1, 134600, Control_c, 0, 64, 85
1, 134615, Control_c, 0, 64, 84
1, 134615, Control_c, 0, 67, 106
1, 134624, Note_on_c, 0, 78, 49
1, 134630, Control_c, 0, 64, 83
1, 134632, Note_on_c, 0, 49, 35
1, 134644, Control_c, 0, 64, 82
1, 134659, Control_c, 0, 64, 80
1, 134674, Control_c, 0, 64, 77
1, 134689, Control_c, 0, 64, 72
1, 134704, Control_c, 0, 64, 66
1, 134718, Control_c, 0, 64, 59
1, 134734, Control_c, 0, 64, 52
1, 134749, Control_c, 0, 64, 51
1, 134758, Note_off_c, 0, 57, 19
1, 134764, Note_off_c, 0, 69, 41
1, 134764, Control_c, 0, 64, 54
1, 134779, Control_c, 0, 64, 58
1, 134793, Control_c, 0, 64, 61
1, 134808, Control_c, 0, 64, 64
1, 134808, Control_c, 0, 67, 105
1, 134809, Note_off_c, 0, 54, 37
1, 134823, Control_c, 0, 64, 66
1, 134833, Note_on_c, 0, 52, 23
1, 134838, Control_c, 0, 64, 68
1, 134853, Control_c, 0, 64, 70
1, 134867, Control_c, 0, 64, 73
1, 134882, Control_c, 0, 64, 74
1, 134897, Control_c, 0, 64, 75
1, 134912, Control_c, 0, 64, 76
1, 134927, Control_c, 0, 64, 77
1, 134941, Control_c, 0, 64, 78
1, 134941, Control_c, 0, 67, 105
1, 134956, Control_c, 0, 64, 79
1, 134957, Note_on_c, 0, 76, 50
1, 134962, Note_off_c, 0, 73, 0
1, 134999, Poly_aftertouch_c, 0, 73, 127
1, 135042, Note_on_c, 0, 57, 38
1, 135081, Note_off_c, 0, 49, 27
1, 135112, Note_off_c, 0, 78, 24
1, 135193, Control_c, 0, 64, 78
1, 135215, Control_c, 0, 64, 78
1, 135230, Control_c, 0, 64, 77
1, 135245, Control_c, 0, 64, 77
1, 135259, Control_c, 0, 64, 76
1, 135274, Control_c, 0, 64, 74
1, 135286, Note_on_c, 0, 69, 48
1, 135289, Control_c, 0, 64, 73
1, 135304, Control_c, 0, 64, 70
1, 135306, Poly_aftertouch_c, 0, 73, 0
1, 135310, Note_on_c, 0, 61, 37
1, 135319, Control_c, 0, 64, 65
1, 135327, Note_off_c, 0, 76, 30
1, 135333, Control_c, 0, 64, 58
1, 135348, Control_c, 0, 64, 49
1, 135363, Control_c, 0, 64, 45
1, 135378, Control_c, 0, 64, 49
1, 135393, Control_c, 0, 64, 54
1, 135408, Note_off_c, 0, 57, 36
1, 135408, Control_c, 0, 64, 59
1, 135422, Control_c, 0, 64, 63
1, 135437, Control_c, 0, 64, 66
1, 135452, Control_c, 0, 64, 69
1, 135466, Control_c, 0, 64, 72
1, 135481, Control_c, 0, 64, 74
1, 135496, Control_c, 0, 64, 75
1, 135510, Control_c, 0, 64, 77
1, 135525, Control_c, 0, 64, 78
1, 135538, Note_on_c, 0, 54, 35
1, 135542, Control_c, 0, 64, 79
1, 135556, Control_c, 0, 64, 80
1, 135571, Control_c, 0, 64, 81
1, 135601, Control_c, 0, 64, 81
1, 135628, Note_on_c, 0, 68, 51
1, 135719, Control_c, 0, 67, 105
1, 135721, Note_off_c, 0, 69, 35
1, 135749, Note_off_c, 0, 52, 28
1, 135751, Note_on_c, 0, 50, 24
1, 135770, Note_off_c, 0, 61, 41
1, 135778, Control_c, 0, 64, 81
1, 135784, Note_off_c, 0, 54, 33
1, 135821, Note_off_c, 0, 50, 0
1, 135822, Control_c, 0, 64, 80
1, 135837, Control_c, 0, 64, 80
1, 135859, Poly_aftertouch_c, 0, 50, 127
1, 135867, Control_c, 0, 64, 79
1, 135867, Control_c, 0, 67, 106
1, 135882, Control_c, 0, 64, 79
1, 135896, Control_c, 0, 64, 78
1, 135911, Control_c, 0, 64, 78
1, 135926, Control_c, 0, 64, 77
1, 135941, Control_c, 0, 64, 76
1, 135963, Control_c, 0, 64, 75
1, 135978, Control_c, 0, 64, 74
1, 135993, Control_c, 0, 64, 73
1, 136007, Note_on_c, 0, 76, 46
1, 136007, Control_c, 0, 64, 71
1, 136022, Control_c, 0, 64, 69
1, 136037, Control_c, 0, 64, 65
1, 136052, Control_c, 0, 64, 59
1, 136066, Note_on_c, 0, 59, 27
1, 136067, Control_c, 0, 64, 50
1, 136081, Control_c, 0, 64, 46
1, 136086, Note_off_c, 0, 68, 60
1, 136096, Control_c, 0, 64, 48
1, 136111, Control_c, 0, 64, 52
1, 136126, Control_c, 0, 64, 57
1, 136141, Control_c, 0, 64, 61
1, 136156, Control_c, 0, 64, 65
1, 136171, Control_c, 0, 64, 67
1, 136186, Control_c, 0, 64, 70
1, 136200, Control_c, 0, 64, 73
1, 136200, Control_c, 0, 67, 105
1, 136215, Control_c, 0, 64, 74
1, 136224, Poly_aftertouch_c, 0, 50, 0
1, 136230, Control_c, 0, 64, 76
1, 136245, Control_c, 0, 64, 78
1, 136260, Control_c, 0, 64, 79
1, 136263, Note_on_c, 0, 54, 37
1, 136275, Control_c, 0, 64, 80
1, 136290, Control_c, 0, 64, 81
1, 136299, Note_off_c, 0, 59, 35
1, 136305, Control_c, 0, 64, 82
1, 136320, Control_c, 0, 64, 82
1, 136335, Control_c, 0, 64, 83
1, 136423, Note_on_c, 0, 74, 45
1, 136507, Note_off_c, 0, 76, 34
1, 136514, Note_on_c, 0, 44, 37
1, 136524, Note_off_c, 0, 54, 40
1, 136587, Control_c, 0, 64, 82
1, 136617, Control_c, 0, 64, 82
1, 136646, Control_c, 0, 64, 81
1, 136661, Control_c, 0, 64, 81
1, 136676, Control_c, 0, 64, 80
1, 136691, Control_c, 0, 64, 80
1, 136713, Control_c, 0, 64, 79
1, 136728, Control_c, 0, 64, 78
1, 136728, Control_c, 0, 67, 105
1, 136743, Control_c, 0, 64, 76
1, 136757, Control_c, 0, 64, 74
1, 136772, Control_c, 0, 64, 72
1, 136773, Note_on_c, 0, 71, 40
1, 136787, Control_c, 0, 64, 69
1, 136800, Note_on_c, 0, 49, 39
1, 136802, Control_c, 0, 64, 64
1, 136817, Control_c, 0, 64, 57
1, 136831, Control_c, 0, 64, 49
1, 136831, Control_c, 0, 67, 104
1, 136844, Note_off_c, 0, 74, 47
1, 136846, Control_c, 0, 64, 43
1, 136861, Control_c, 0, 67, 104
1, 136876, Control_c, 0, 64, 47
1, 136891, Control_c, 0, 64, 55
1, 136891, Control_c, 0, 67, 103
1, 136905, Control_c, 0, 64, 61
1, 136920, Control_c, 0, 64, 65
1, 136920, Control_c, 0, 67, 103
1, 136935, Control_c, 0, 64, 68
1, 136935, Control_c, 0, 67, 101
1, 136950, Control_c, 0, 64, 71
1, 136950, Control_c, 0, 67, 100
1, 136964, Control_c, 0, 64, 74
1, 136964, Control_c, 0, 67, 98
1, 136968, Note_off_c, 0, 44, 35
1, 136979, Control_c, 0, 64, 78
1, 136979, Control_c, 0, 67, 97
1, 136994, Control_c, 0, 64, 81
1, 136994, Control_c, 0, 67, 96
1, 137009, Control_c, 0, 64, 83
1, 137009, Control_c, 0, 67, 95
1, 137011, Note_on_c, 0, 53, 37
1, 137024, Control_c, 0, 64, 86
1, 137024, Control_c, 0, 67, 94
1, 137038, Control_c, 0, 64, 89
1, 137038, Control_c, 0, 67, 93
1, 137053, Control_c, 0, 64, 91
1, 137053, Control_c, 0, 67, 92
1, 137068, Control_c, 0, 64, 93
1, 137068, Control_c, 0, 67, 91
1, 137083, Control_c, 0, 64, 96
1, 137083, Control_c, 0, 67, 89
1, 137098, Control_c, 0, 64, 97
1, 137098, Control_c, 0, 67, 88
1, 137113, Control_c, 0, 64, 99
1, 137113, Control_c, 0, 67, 87
1, 137128, Control_c, 0, 64, 101
1, 137128, Control_c, 0, 67, 86
1, 137143, Control_c, 0, 64, 103
1, 137143, Control_c, 0, 67, 84
1, 137158, Control_c, 0, 64, 106
1, 137158, Control_c, 0, 67, 82
1, 137171, Note_on_c, 0, 68, 46
1, 137173, Control_c, 0, 64, 108
1, 137173, Control_c, 0, 67, 80
1, 137187, Control_c, 0, 64, 110
1, 137187, Control_c, 0, 67, 78
1, 137202, Control_c, 0, 64, 112
1, 137202, Control_c, 0, 67, 76
1, 137217, Control_c, 0, 64, 113
1, 137217, Control_c, 0, 67, 74
1, 137225, Note_off_c, 0, 71, 40
1, 137232, Control_c, 0, 64, 115
1, 137232, Control_c, 0, 67, 73
1, 137247, Control_c, 0, 64, 116
1, 137247, Control_c, 0, 67, 71
1, 137262, Control_c, 0, 64, 118
1, 137262, Control_c, 0, 67, 69
1, 137277, Control_c, 0, 67, 66
1, 137292, Control_c, 0, 67, 64
1, 137306, Control_c, 0, 67, 60
1, 137321, Control_c, 0, 64, 119
1, 137321, Control_c, 0, 67, 58
1, 137333, Note_off_c, 0, 49, 28
1, 137336, Control_c, 0, 67, 54
1, 137340, Note_off_c, 0, 68, 44
1, 137351, Control_c, 0, 67, 51
1, 137360, Note_on_c, 0, 59, 30
1, 137366, Control_c, 0, 67, 47
1, 137380, Control_c, 0, 67, 43
1, 137395, Control_c, 0, 67, 38
1, 137410, Control_c, 0, 67, 33
1, 137411, Note_off_c, 0, 59, 48
1, 137416, Note_off_c, 0, 53, 27
1, 137425, Control_c, 0, 67, 28
1, 137440, Control_c, 0, 67, 24
1, 137461, Control_c, 0, 67, 20
1, 137476, Control_c, 0, 64, 118
1, 137476, Control_c, 0, 67, 16
1, 137491, Control_c, 0, 67, 12
1, 137506, Control_c, 0, 67, 0
1, 137566, Control_c, 0, 64, 117
1, 137580, Control_c, 0, 64, 115
1, 137595, Control_c, 0, 64, 113
1, 137610, Control_c, 0, 64, 110
1, 137625, Control_c, 0, 64, 108
1, 137640, Control_c, 0, 64, 105
1, 137654, Control_c, 0, 64, 102
1, 137669, Control_c, 0, 64, 99
1, 137684, Control_c, 0, 64, 94
1, 137699, Control_c, 0, 64, 90
1, 137700, Note_on_c, 0, 42, 37
1, 137714, Control_c, 0, 64, 84
1, 137728, Control_c, 0, 64, 77
1, 137743, Control_c, 0, 64, 68
1, 137758, Control_c, 0, 64, 59
1, 137773, Control_c, 0, 64, 49
1, 137787, Control_c, 0, 64, 47
1, 137802, Control_c, 0, 64, 52
1, 137808, Note_on_c, 0, 73, 48
1, 137817, Control_c, 0, 64, 59
1, 137831, Note_on_c, 0, 69, 39
1, 137832, Control_c, 0, 64, 64
1, 137847, Control_c, 0, 64, 68
1, 137861, Control_c, 0, 64, 74
1, 137876, Control_c, 0, 64, 81
1, 137891, Control_c, 0, 64, 89
1, 137906, Control_c, 0, 64, 94
1, 137922, Control_c, 0, 64, 100
1, 137937, Note_off_c, 0, 42, 41
1, 137937, Control_c, 0, 64, 107
1, 137951, Control_c, 0, 64, 118
1, 137966, Control_c, 0, 64, 127
1, 138031, Note_on_c, 0, 57, 37
1, 138159, Note_on_c, 0, 81, 73
1, 138226, Note_off_c, 0, 73, 62
1, 138244, Note_off_c, 0, 69, 43
1, 138263, Note_off_c, 0, 57, 37
1, 138286, Note_on_c, 0, 54, 46
1, 138480, Note_on_c, 0, 61, 55
1, 138553, Note_on_c, 0, 80, 77
1, 138569, Note_off_c, 0, 81, 62
1, 138752, Note_off_c, 0, 61, 56
1, 138758, Note_off_c, 0, 54, 38
1, 138758, Note_on_c, 0, 57, 55
1, 138941, Note_off_c, 0, 57, 62
1, 138954, Note_on_c, 0, 54, 67
1, 139049, Note_off_c, 0, 54, 50
1, 139158, Note_on_c, 0, 78, 75
1, 139181, Note_on_c, 0, 69, 68
1, 139238, Note_off_c, 0, 80, 57
1, 139389, Note_off_c, 0, 69, 33
1, 139399, Note_on_c, 0, 57, 54
1, 139602, Note_on_c, 0, 54, 60
1, 139623, Note_off_c, 0, 57, 29
1, 139655, Note_off_c, 0, 54, 63
1, 139911, Note_on_c, 0, 76, 74
1, 139931, Note_on_c, 0, 68, 63
1, 139974, Control_c, 0, 64, 106
1, 139984, Note_on_c, 0, 38, 61
1, 139989, Control_c, 0, 64, 93
1, 140004, Control_c, 0, 64, 80
1, 140006, Note_off_c, 0, 78, 40
1, 140019, Control_c, 0, 64, 71
1, 140034, Control_c, 0, 64, 62
1, 140048, Control_c, 0, 64, 49
1, 140063, Control_c, 0, 64, 34
1, 140078, Control_c, 0, 64, 24
1, 140093, Control_c, 0, 64, 25
1, 140108, Control_c, 0, 64, 32
1, 140122, Control_c, 0, 64, 45
1, 140137, Control_c, 0, 64, 57
1, 140152, Control_c, 0, 64, 64
1, 140167, Control_c, 0, 64, 67
1, 140181, Control_c, 0, 64, 70
1, 140196, Control_c, 0, 64, 74
1, 140211, Control_c, 0, 64, 79
1, 140226, Control_c, 0, 64, 84
1, 140241, Control_c, 0, 64, 89
1, 140255, Control_c, 0, 64, 93
1, 140262, Note_on_c, 0, 45, 69
1, 140270, Control_c, 0, 64, 99
1, 140285, Control_c, 0, 64, 108
1, 140299, Control_c, 0, 64, 127
1, 140382, Note_off_c, 0, 68, 57
1, 140452, Note_off_c, 0, 38, 53
1, 140472, Note_off_c, 0, 45, 64
1, 140481, Note_on_c, 0, 50, 69
1, 140678, Note_on_c, 0, 69, 69
1, 140679, Note_off_c, 0, 50, 36
1, 140696, Note_on_c, 0, 66, 52
1, 140705, Note_on_c, 0, 54, 51
1, 140806, Note_off_c, 0, 76, 57
1, 140885, Note_off_c, 0, 54, 57
1, 140892, Note_on_c, 0, 57, 50
1, 140991, Note_on_c, 0, 73, 77
1, 141019, Note_off_c, 0, 66, 54
1, 141053, Note_off_c, 0, 69, 58
1, 141110, Note_on_c, 0, 50, 61
1, 141132, Note_off_c, 0, 57, 42
1, 141142, Note_off_c, 0, 50, 67
1, 141328, Note_on_c, 0, 76, 75
1, 141368, Control_c, 0, 64, 119
1, 141383, Note_on_c, 0, 42, 59
1, 141383, Control_c, 0, 64, 94
1, 141398, Control_c, 0, 64, 78
1, 141411, Note_off_c, 0, 73, 55
1, 141413, Control_c, 0, 64, 65
1, 141427, Control_c, 0, 64, 56
1, 141442, Control_c, 0, 64, 53
1, 141457, Control_c, 0, 64, 56
1, 141472, Control_c, 0, 64, 61
1, 141487, Control_c, 0, 64, 65
1, 141501, Control_c, 0, 64, 71
1, 141516, Control_c, 0, 64, 78
1, 141531, Control_c, 0, 64, 85
1, 141545, Control_c, 0, 64, 92
1, 141560, Control_c, 0, 64, 97
1, 141575, Control_c, 0, 64, 104
1, 141590, Control_c, 0, 64, 115
1, 141591, Note_on_c, 0, 50, 58
1, 141605, Control_c, 0, 64, 127
1, 141637, Note_off_c, 0, 42, 48
1, 141682, Note_on_c, 0, 74, 75
1, 141732, Note_off_c, 0, 76, 61
1, 141775, Note_off_c, 0, 50, 62
1, 141813, Note_on_c, 0, 57, 59
1, 141888, Note_off_c, 0, 57, 59
1, 142002, Note_on_c, 0, 44, 51
1, 142088, Control_c, 0, 64, 115
1, 142103, Control_c, 0, 64, 99
1, 142109, Note_off_c, 0, 74, 61
1, 142112, Note_on_c, 0, 64, 64
1, 142113, Note_on_c, 0, 73, 61
1, 142118, Control_c, 0, 64, 87
1, 142132, Control_c, 0, 64, 79
1, 142147, Control_c, 0, 64, 72
1, 142161, Control_c, 0, 64, 65
1, 142175, Control_c, 0, 64, 57
1, 142190, Control_c, 0, 64, 45
1, 142205, Control_c, 0, 64, 33
1, 142220, Control_c, 0, 64, 31
1, 142235, Control_c, 0, 64, 33
1, 142249, Control_c, 0, 64, 42
1, 142264, Control_c, 0, 64, 52
1, 142279, Control_c, 0, 64, 61
1, 142294, Control_c, 0, 64, 65
1, 142309, Control_c, 0, 64, 69
1, 142323, Control_c, 0, 64, 72
1, 142338, Control_c, 0, 64, 76
1, 142353, Control_c, 0, 64, 78
1, 142368, Control_c, 0, 64, 81
1, 142383, Control_c, 0, 64, 84
1, 142383, Control_c, 0, 67, 10
1, 142398, Control_c, 0, 64, 86
1, 142398, Control_c, 0, 67, 12
1, 142409, Note_on_c, 0, 52, 53
1, 142413, Control_c, 0, 64, 89
1, 142413, Control_c, 0, 67, 15
1, 142428, Control_c, 0, 64, 91
1, 142428, Control_c, 0, 67, 21
1, 142442, Control_c, 0, 64, 93
1, 142442, Control_c, 0, 67, 28
1, 142457, Control_c, 0, 64, 95
1, 142457, Control_c, 0, 67, 37
1, 142472, Control_c, 0, 64, 96
1, 142472, Control_c, 0, 67, 46
1, 142487, Control_c, 0, 64, 97
1, 142487, Control_c, 0, 67, 53
1, 142494, Note_off_c, 0, 44, 36
1, 142502, Control_c, 0, 64, 99
1, 142502, Control_c, 0, 67, 59
1, 142516, Control_c, 0, 64, 101
1, 142516, Control_c, 0, 67, 65
1, 142531, Control_c, 0, 67, 69
1, 142546, Control_c, 0, 64, 101
1, 142546, Control_c, 0, 67, 71
1, 142561, Control_c, 0, 67, 72
1, 142590, Control_c, 0, 64, 102
1, 142605, Control_c, 0, 67, 73
1, 142649, Control_c, 0, 67, 73
1, 142656, Note_on_c, 0, 56, 49
1, 142679, Control_c, 0, 67, 74
1, 142700, Note_off_c, 0, 64, 54
1, 142701, Control_c, 0, 67, 74
1, 142716, Control_c, 0, 67, 76
1, 142720, Note_off_c, 0, 52, 27
1, 142732, Control_c, 0, 67, 79
1, 142747, Control_c, 0, 67, 82
1, 142761, Control_c, 0, 67, 83
1, 142791, Control_c, 0, 64, 101
1, 142821, Control_c, 0, 64, 101
1, 142836, Control_c, 0, 64, 100
1, 142851, Control_c, 0, 64, 100
1, 142851, Control_c, 0, 67, 82
1, 142866, Control_c, 0, 64, 99
1, 142878, Note_on_c, 0, 44, 43
1, 142880, Control_c, 0, 64, 98
1, 142895, Control_c, 0, 64, 97
1, 142910, Control_c, 0, 64, 96
1, 142910, Control_c, 0, 67, 82
1, 142925, Control_c, 0, 64, 95
1, 142929, Note_off_c, 0, 56, 43
1, 142940, Control_c, 0, 64, 94
1, 142954, Control_c, 0, 64, 93
1, 142969, Control_c, 0, 64, 92
1, 142984, Control_c, 0, 64, 91
1, 142998, Control_c, 0, 64, 89
1, 143013, Control_c, 0, 64, 86
1, 143022, Note_on_c, 0, 66, 52
1, 143028, Control_c, 0, 64, 84
1, 143038, Note_on_c, 0, 63, 51
1, 143043, Control_c, 0, 64, 81
1, 143058, Control_c, 0, 64, 77
1, 143072, Control_c, 0, 64, 74
1, 143087, Control_c, 0, 64, 70
1, 143087, Control_c, 0, 67, 82
1, 143102, Control_c, 0, 64, 65
1, 143117, Control_c, 0, 64, 55
1, 143132, Control_c, 0, 64, 42
1, 143132, Control_c, 0, 67, 83
1, 143146, Control_c, 0, 64, 26
1, 143155, Note_off_c, 0, 73, 49
1, 143161, Control_c, 0, 64, 20
1, 143176, Control_c, 0, 64, 23
1, 143191, Control_c, 0, 64, 34
1, 143191, Control_c, 0, 67, 83
1, 143206, Control_c, 0, 64, 49
1, 143221, Control_c, 0, 64, 59
1, 143235, Control_c, 0, 64, 64
1, 143250, Control_c, 0, 64, 67
1, 143257, Note_on_c, 0, 51, 42
1, 143265, Control_c, 0, 64, 70
1, 143280, Control_c, 0, 64, 72
1, 143295, Control_c, 0, 64, 73
1, 143310, Control_c, 0, 64, 75
1, 143321, Note_off_c, 0, 44, 39
1, 143324, Control_c, 0, 64, 77
1, 143339, Control_c, 0, 64, 78
1, 143339, Control_c, 0, 67, 84
1, 143354, Control_c, 0, 64, 79
1, 143369, Control_c, 0, 64, 79
1, 143384, Control_c, 0, 64, 80
1, 143389, Note_on_c, 0, 68, 61
1, 143398, Control_c, 0, 64, 81
1, 143413, Control_c, 0, 64, 81
1, 143428, Control_c, 0, 64, 82
1, 143428, Control_c, 0, 67, 84
1, 143481, Note_off_c, 0, 66, 0
1, 143519, Poly_aftertouch_c, 0, 66, 127
1, 143528, Note_on_c, 0, 54, 51
1, 143544, Note_off_c, 0, 63, 41
1, 143581, Poly_aftertouch_c, 0, 66, 0
1, 143629, Control_c, 0, 67, 84
1, 143786, Note_on_c, 0, 69, 52
1, 143793, Control_c, 0, 64, 81
1, 143808, Control_c, 0, 64, 81
1, 143822, Control_c, 0, 64, 77
1, 143829, Note_on_c, 0, 60, 40
1, 143837, Control_c, 0, 64, 71
1, 143852, Control_c, 0, 64, 65
1, 143858, Note_off_c, 0, 68, 34
1, 143867, Control_c, 0, 64, 58
1, 143882, Control_c, 0, 64, 53
1, 143882, Control_c, 0, 67, 84
1, 143896, Control_c, 0, 64, 54
1, 143899, Note_off_c, 0, 54, 53
1, 143911, Control_c, 0, 64, 58
1, 143926, Control_c, 0, 64, 62
1, 143940, Control_c, 0, 64, 65
1, 143940, Control_c, 0, 67, 85
1, 143955, Control_c, 0, 64, 69
1, 143970, Control_c, 0, 64, 72
1, 143970, Control_c, 0, 67, 85
1, 143985, Control_c, 0, 64, 75
1, 143985, Control_c, 0, 67, 89
1, 144000, Control_c, 0, 64, 77
1, 144000, Control_c, 0, 67, 92
1, 144014, Control_c, 0, 64, 78
1, 144014, Control_c, 0, 67, 93
1, 144029, Control_c, 0, 64, 79
1, 144029, Control_c, 0, 67, 94
1, 144040, Note_off_c, 0, 51, 28
1, 144044, Control_c, 0, 64, 80
1, 144044, Control_c, 0, 67, 95
1, 144059, Control_c, 0, 64, 81
1, 144059, Control_c, 0, 67, 97
1, 144065, Note_on_c, 0, 54, 43
1, 144074, Control_c, 0, 64, 81
1, 144074, Control_c, 0, 67, 97
1, 144088, Control_c, 0, 64, 82
1, 144103, Control_c, 0, 64, 83
1, 144117, Note_off_c, 0, 60, 40
1, 144118, Control_c, 0, 64, 83
1, 144177, Control_c, 0, 64, 84
1, 144231, Note_on_c, 0, 66, 47
1, 144274, Control_c, 0, 64, 84
1, 144282, Note_off_c, 0, 69, 32
1, 144349, Control_c, 0, 67, 98
1, 144364, Control_c, 0, 67, 98
1, 144378, Control_c, 0, 67, 99
1, 144393, Control_c, 0, 67, 100
1, 144402, Note_on_c, 0, 51, 39
1, 144408, Control_c, 0, 67, 103
1, 144414, Note_off_c, 0, 54, 38
1, 144423, Control_c, 0, 67, 105
1, 144437, Control_c, 0, 67, 106
1, 144449, Note_off_c, 0, 51, 51
1, 144452, Control_c, 0, 67, 108
1, 144467, Control_c, 0, 67, 109
1, 144482, Control_c, 0, 67, 110
1, 144497, Control_c, 0, 67, 112
1, 144526, Control_c, 0, 67, 113
1, 144719, Control_c, 0, 67, 112
1, 144734, Control_c, 0, 64, 84
1, 144764, Control_c, 0, 67, 112
1, 144793, Control_c, 0, 64, 83
1, 144793, Control_c, 0, 67, 111
1, 144808, Control_c, 0, 64, 83
1, 144823, Control_c, 0, 64, 82
1, 144837, Control_c, 0, 64, 82
1, 144852, Control_c, 0, 64, 81
1, 144867, Control_c, 0, 64, 81
1, 144882, Control_c, 0, 64, 80
1, 144893, Note_on_c, 0, 65, 47
1, 144897, Control_c, 0, 64, 79
1, 144902, Note_on_c, 0, 61, 37
1, 144911, Control_c, 0, 64, 77
1, 144926, Control_c, 0, 64, 76
1, 144949, Control_c, 0, 64, 73
1, 144956, Note_on_c, 0, 37, 38
1, 144964, Control_c, 0, 64, 71
1, 144978, Control_c, 0, 64, 68
1, 144987, Note_off_c, 0, 66, 0
1, 144993, Control_c, 0, 64, 65
1, 145008, Control_c, 0, 64, 61
1, 145023, Control_c, 0, 64, 54
1, 145038, Control_c, 0, 64, 45
1, 145040, Poly_aftertouch_c, 0, 66, 0
1, 145052, Control_c, 0, 64, 34
1, 145052, Control_c, 0, 67, 112
1, 145067, Control_c, 0, 64, 22
1, 145082, Control_c, 0, 64, 14
1, 145112, Control_c, 0, 64, 23
1, 145128, Control_c, 0, 64, 39
1, 145142, Control_c, 0, 64, 51
1, 145142, Control_c, 0, 67, 111
1, 145157, Control_c, 0, 64, 59
1, 145172, Control_c, 0, 64, 63
1, 145172, Control_c, 0, 67, 111
1, 145187, Control_c, 0, 64, 64
1, 145201, Control_c, 0, 64, 66
1, 145216, Control_c, 0, 64, 68
1, 145231, Control_c, 0, 64, 70
1, 145246, Control_c, 0, 64, 73
1, 145246, Control_c, 0, 67, 110
1, 145260, Note_on_c, 0, 44, 41
1, 145260, Control_c, 0, 64, 75
1, 145271, Note_off_c, 0, 37, 41
1, 145275, Control_c, 0, 64, 76
1, 145290, Control_c, 0, 64, 78
1, 145305, Control_c, 0, 64, 79
1, 145320, Control_c, 0, 64, 81
1, 145335, Control_c, 0, 64, 82
1, 145335, Control_c, 0, 67, 110
1, 145349, Control_c, 0, 64, 82
1, 145364, Control_c, 0, 64, 83
1, 145379, Control_c, 0, 64, 83
1, 145394, Control_c, 0, 64, 84
1, 145409, Control_c, 0, 67, 109
1, 145423, Control_c, 0, 64, 84
1, 145453, Control_c, 0, 64, 85
1, 145483, Control_c, 0, 64, 85
1, 145513, Control_c, 0, 64, 86
1, 145522, Note_on_c, 0, 49, 42
1, 145644, Note_off_c, 0, 44, 34
1, 145748, Note_off_c, 0, 49, 56
1, 145757, Control_c, 0, 67, 110
1, 145788, Note_on_c, 0, 53, 37
1, 145831, Control_c, 0, 67, 109
1, 145862, Note_on_c, 0, 68, 48
1, 146057, Note_off_c, 0, 53, 37
1, 146067, Note_off_c, 0, 61, 36
1, 146087, Note_on_c, 0, 56, 44
1, 146090, Note_off_c, 0, 65, 37
1, 146157, Control_c, 0, 67, 110
1, 146231, Control_c, 0, 67, 110
1, 146305, Control_c, 0, 67, 111
1, 146334, Control_c, 0, 67, 111
1, 146364, Control_c, 0, 67, 112
1, 146379, Control_c, 0, 67, 112
1, 146394, Control_c, 0, 67, 113
1, 146407, Note_on_c, 0, 59, 42
1, 146423, Control_c, 0, 67, 113
1, 146461, Control_c, 0, 67, 114
1, 146476, Control_c, 0, 67, 115
1, 146490, Control_c, 0, 67, 117
1, 146494, Note_off_c, 0, 56, 37
1, 146505, Control_c, 0, 67, 117
1, 146520, Control_c, 0, 67, 118
1, 146535, Control_c, 0, 67, 119
1, 146549, Control_c, 0, 67, 119
1, 146564, Control_c, 0, 67, 120
1, 146579, Control_c, 0, 67, 120
1, 146594, Control_c, 0, 67, 121
1, 146609, Control_c, 0, 67, 122
1, 146623, Control_c, 0, 67, 122
1, 146638, Control_c, 0, 67, 123
1, 146654, Control_c, 0, 67, 123
1, 146669, Control_c, 0, 67, 124
1, 146684, Control_c, 0, 67, 124
1, 146698, Control_c, 0, 67, 125
1, 146729, Control_c, 0, 67, 125
1, 146759, Control_c, 0, 67, 126
1, 146773, Control_c, 0, 67, 126
1, 146788, Control_c, 0, 67, 127
1, 146818, Control_c, 0, 67, 127
1, 146927, Note_on_c, 0, 65, 43
1, 146951, Control_c, 0, 64, 85
1, 147003, Note_off_c, 0, 59, 40
1, 147069, Control_c, 0, 64, 85
1, 147173, Control_c, 0, 64, 84
1, 147215, Note_off_c, 0, 65, 52
1, 147239, Control_c, 0, 64, 84
1, 147313, Control_c, 0, 64, 83
1, 147388, Control_c, 0, 64, 83
1, 147462, Control_c, 0, 64, 82
1, 147537, Control_c, 0, 64, 82
1, 147641, Control_c, 0, 64, 81
1, 147759, Control_c, 0, 64, 81
1, 147788, Note_on_c, 0, 73, 47
1, 147862, Control_c, 0, 64, 80
1, 147863, Note_off_c, 0, 68, 63
1, 147892, Control_c, 0, 64, 80
1, 147907, Control_c, 0, 64, 79
1, 147944, Control_c, 0, 64, 79
1, 147959, Control_c, 0, 64, 78
1, 147974, Control_c, 0, 64, 77
1, 147988, Control_c, 0, 64, 76
1, 148003, Control_c, 0, 64, 75
1, 148018, Control_c, 0, 64, 74
1, 148033, Control_c, 0, 64, 74
1, 148048, Control_c, 0, 64, 73
1, 148062, Control_c, 0, 64, 72
1, 148077, Control_c, 0, 64, 71
1, 148092, Control_c, 0, 64, 70
1, 148107, Control_c, 0, 64, 70
1, 148121, Control_c, 0, 64, 69
1, 148136, Control_c, 0, 64, 68
1, 148151, Control_c, 0, 64, 67
1, 148166, Control_c, 0, 64, 66
1, 148181, Control_c, 0, 64, 64
1, 148196, Control_c, 0, 64, 63
1, 148211, Control_c, 0, 64, 62
1, 148225, Control_c, 0, 64, 61
1, 148240, Control_c, 0, 64, 60
1, 148255, Control_c, 0, 64, 60
1, 148270, Control_c, 0, 64, 59
1, 148285, Control_c, 0, 64, 58
1, 148300, Control_c, 0, 64, 56
1, 148315, Control_c, 0, 64, 53
1, 148330, Control_c, 0, 64, 48
1, 148345, Control_c, 0, 64, 39
1, 148360, Control_c, 0, 64, 25
1, 148375, Control_c, 0, 64, 0
1, 148493, Control_c, 0, 64, 29
1, 148508, Control_c, 0, 64, 45
1, 148523, Control_c, 0, 64, 54
1, 148537, Control_c, 0, 64, 58
1, 148552, Control_c, 0, 64, 60
1, 148567, Control_c, 0, 64, 62
1, 148582, Control_c, 0, 64, 64
1, 148597, Control_c, 0, 64, 66
1, 148611, Control_c, 0, 64, 68
1, 148626, Control_c, 0, 64, 71
1, 148641, Control_c, 0, 64, 73
1, 148656, Control_c, 0, 64, 76
1, 148671, Control_c, 0, 64, 79
1, 148693, Control_c, 0, 64, 81
1, 148708, Control_c, 0, 64, 84
1, 148723, Control_c, 0, 64, 87
1, 148737, Control_c, 0, 64, 89
1, 148752, Control_c, 0, 64, 92
1, 148767, Control_c, 0, 64, 94
1, 148782, Control_c, 0, 64, 96
1, 148797, Control_c, 0, 64, 99
1, 148811, Control_c, 0, 64, 102
1, 148826, Control_c, 0, 64, 106
1, 148841, Control_c, 0, 64, 109
1, 148856, Control_c, 0, 64, 113
1, 148871, Control_c, 0, 64, 117
1, 148885, Control_c, 0, 64, 122
1, 148900, Control_c, 0, 64, 127
1, 149129, Note_on_c, 0, 70, 31
1, 149149, Note_on_c, 0, 66, 33
1, 149191, Note_on_c, 0, 49, 29
1, 149204, Note_on_c, 0, 42, 32
1, 149218, Note_on_c, 0, 58, 22
1, 149232, Note_off_c, 0, 66, 0
1, 149232, Note_on_c, 0, 66, 3
1, 149499, Note_off_c, 0, 42, 40
1, 149555, Note_off_c, 0, 49, 39
1, 149591, Note_off_c, 0, 58, 34
1, 149835, Note_on_c, 0, 78, 49
1, 150064, Note_off_c, 0, 66, 42
1, 150115, Note_off_c, 0, 78, 31
1, 150139, Note_off_c, 0, 70, 35
1, 150264, Control_c, 0, 64, 124
1, 150279, Control_c, 0, 64, 120
1, 150294, Control_c, 0, 64, 117
1, 150309, Control_c, 0, 64, 114
1, 150324, Control_c, 0, 64, 112
1, 150339, Control_c, 0, 64, 110
1, 150354, Control_c, 0, 64, 108
1, 150369, Control_c, 0, 64, 106
1, 150383, Control_c, 0, 64, 104
1, 150398, Control_c, 0, 64, 101
1, 150413, Control_c, 0, 64, 96
1, 150416, Note_on_c, 0, 77, 53
1, 150428, Control_c, 0, 64, 92
1, 150437, Note_on_c, 0, 65, 37
1, 150443, Control_c, 0, 64, 88
1, 150457, Control_c, 0, 64, 84
1, 150458, Note_on_c, 0, 70, 36
1, 150472, Control_c, 0, 64, 81
1, 150475, Note_on_c, 0, 61, 47
1, 150487, Control_c, 0, 64, 78
1, 150493, Note_on_c, 0, 49, 34
1, 150494, Note_on_c, 0, 58, 35
1, 150502, Control_c, 0, 64, 75
1, 150516, Control_c, 0, 64, 71
1, 150531, Control_c, 0, 64, 66
1, 150546, Control_c, 0, 64, 59
1, 150561, Control_c, 0, 64, 50
1, 150576, Control_c, 0, 64, 41
1, 150590, Control_c, 0, 64, 34
1, 150605, Control_c, 0, 64, 31
1, 150619, Note_off_c, 0, 58, 0
1, 150620, Control_c, 0, 64, 32
1, 150635, Control_c, 0, 64, 38
1, 150650, Control_c, 0, 64, 50
1, 150655, Poly_aftertouch_c, 0, 58, 127
1, 150664, Control_c, 0, 64, 58
1, 150679, Control_c, 0, 64, 63
1, 150694, Control_c, 0, 64, 65
1, 150710, Control_c, 0, 64, 67
1, 150725, Control_c, 0, 64, 69
1, 150740, Control_c, 0, 64, 73
1, 150754, Control_c, 0, 64, 77
1, 150759, Note_off_c, 0, 49, 47
1, 150769, Control_c, 0, 64, 80
1, 150784, Control_c, 0, 64, 83
1, 150799, Control_c, 0, 64, 85
1, 150807, Note_off_c, 0, 77, 54
1, 150813, Control_c, 0, 64, 88
1, 150828, Control_c, 0, 64, 91
1, 150843, Control_c, 0, 64, 94
1, 150852, Note_off_c, 0, 65, 41
1, 150858, Control_c, 0, 64, 97
1, 150873, Control_c, 0, 64, 100
1, 150887, Control_c, 0, 64, 102
1, 150899, Note_off_c, 0, 73, 14
1, 150902, Control_c, 0, 64, 105
1, 150905, Note_off_c, 0, 61, 55
1, 150917, Control_c, 0, 64, 108
1, 150939, Control_c, 0, 64, 109
1, 150954, Control_c, 0, 64, 111
1, 150969, Control_c, 0, 64, 113
1, 150984, Control_c, 0, 64, 113
1, 150999, Control_c, 0, 64, 114
1, 151058, Note_off_c, 0, 70, 40
1, 151141, Poly_aftertouch_c, 0, 58, 0
1, 151206, Control_c, 0, 64, 113
1, 151266, Control_c, 0, 64, 113
1, 151280, Control_c, 0, 64, 111
1, 151295, Control_c, 0, 64, 109
1, 151310, Control_c, 0, 64, 107
1, 151325, Control_c, 0, 64, 106
1, 151339, Control_c, 0, 64, 104
1, 151354, Control_c, 0, 64, 102
1, 151369, Control_c, 0, 64, 100
1, 151384, Note_on_c, 0, 75, 52
1, 151384, Control_c, 0, 64, 97
1, 151399, Control_c, 0, 64, 95
1, 151413, Control_c, 0, 64, 93
1, 151428, Control_c, 0, 64, 90
1, 151430, Note_on_c, 0, 66, 47
1, 151438, Note_on_c, 0, 70, 30
1, 151443, Note_on_c, 0, 63, 24
1, 151443, Control_c, 0, 64, 87
1, 151448, Note_on_c, 0, 54, 42
1, 151454, Note_on_c, 0, 58, 39
1, 151458, Control_c, 0, 64, 82
1, 151473, Control_c, 0, 64, 78
1, 151487, Control_c, 0, 64, 74
1, 151503, Control_c, 0, 64, 70
1, 151518, Control_c, 0, 64, 66
1, 151533, Control_c, 0, 64, 62
1, 151548, Control_c, 0, 64, 57
1, 151562, Control_c, 0, 64, 50
1, 151577, Control_c, 0, 64, 44
1, 151592, Control_c, 0, 64, 41
1, 151622, Control_c, 0, 64, 43
1, 151636, Control_c, 0, 64, 49
1, 151651, Control_c, 0, 64, 56
1, 151666, Control_c, 0, 64, 61
1, 151689, Control_c, 0, 64, 64
1, 151704, Control_c, 0, 64, 66
1, 151718, Control_c, 0, 64, 68
1, 151733, Control_c, 0, 64, 72
1, 151748, Control_c, 0, 64, 75
1, 151762, Control_c, 0, 64, 80
1, 151777, Control_c, 0, 64, 83
1, 151792, Control_c, 0, 64, 85
1, 151807, Control_c, 0, 64, 88
1, 151822, Control_c, 0, 64, 91
1, 151836, Control_c, 0, 64, 94
1, 151851, Control_c, 0, 64, 97
1, 151866, Control_c, 0, 64, 100
1, 151881, Control_c, 0, 64, 103
1, 151895, Control_c, 0, 64, 104
1, 151903, Note_off_c, 0, 63, 38
1, 151910, Control_c, 0, 64, 106
1, 151925, Control_c, 0, 64, 107
1, 151940, Control_c, 0, 64, 108
1, 151954, Control_c, 0, 64, 109
1, 151956, Note_off_c, 0, 58, 35
1, 151957, Note_off_c, 0, 66, 34
1, 151966, Note_off_c, 0, 70, 42
1, 151969, Control_c, 0, 64, 109
1, 151984, Control_c, 0, 64, 110
1, 152043, Control_c, 0, 64, 110
1, 152161, Control_c, 0, 64, 110
1, 152235, Control_c, 0, 64, 109
1, 152250, Control_c, 0, 64, 109
1, 152265, Control_c, 0, 64, 107
1, 152280, Control_c, 0, 64, 105
1, 152295, Control_c, 0, 64, 104
1, 152311, Control_c, 0, 64, 102
1, 152325, Control_c, 0, 64, 100
1, 152340, Control_c, 0, 64, 98
1, 152355, Note_on_c, 0, 73, 48
1, 152355, Control_c, 0, 64, 95
1, 152370, Control_c, 0, 64, 92
1, 152378, Note_on_c, 0, 65, 33
1, 152384, Control_c, 0, 64, 88
1, 152389, Note_on_c, 0, 53, 29
1, 152393, Note_on_c, 0, 70, 34
1, 152394, Note_on_c, 0, 61, 18
1, 152396, Note_on_c, 0, 58, 34
1, 152399, Control_c, 0, 64, 84
1, 152414, Control_c, 0, 64, 80
1, 152437, Control_c, 0, 64, 77
1, 152452, Control_c, 0, 64, 73
1, 152466, Control_c, 0, 64, 69
1, 152481, Control_c, 0, 64, 65
1, 152496, Control_c, 0, 64, 60
1, 152506, Note_off_c, 0, 54, 41
1, 152511, Control_c, 0, 64, 53
1, 152526, Control_c, 0, 64, 45
1, 152537, Note_off_c, 0, 75, 31
1, 152540, Control_c, 0, 64, 39
1, 152555, Control_c, 0, 64, 38
1, 152570, Control_c, 0, 64, 40
1, 152584, Control_c, 0, 64, 45
1, 152599, Control_c, 0, 64, 53
1, 152614, Control_c, 0, 64, 60
1, 152629, Control_c, 0, 64, 64
1, 152643, Control_c, 0, 64, 66
1, 152658, Control_c, 0, 64, 69
1, 152673, Control_c, 0, 64, 72
1, 152688, Control_c, 0, 64, 75
1, 152703, Control_c, 0, 64, 78
1, 152718, Control_c, 0, 64, 81
1, 152732, Control_c, 0, 64, 84
1, 152747, Control_c, 0, 64, 86
1, 152762, Control_c, 0, 64, 88
1, 152776, Control_c, 0, 64, 90
1, 152779, Note_off_c, 0, 61, 40
1, 152791, Control_c, 0, 64, 92
1, 152803, Note_off_c, 0, 65, 42
1, 152806, Control_c, 0, 64, 94
1, 152821, Control_c, 0, 64, 95
1, 152836, Control_c, 0, 64, 96
1, 152850, Control_c, 0, 64, 96
1, 152865, Control_c, 0, 64, 97
1, 152880, Control_c, 0, 64, 98
1, 152897, Note_off_c, 0, 70, 39
1, 152902, Note_off_c, 0, 58, 38
1, 152939, Control_c, 0, 64, 99
1, 153185, Control_c, 0, 64, 98
1, 153259, Control_c, 0, 64, 98
1, 153274, Control_c, 0, 64, 97
1, 153288, Control_c, 0, 64, 96
1, 153303, Control_c, 0, 64, 95
1, 153318, Control_c, 0, 64, 94
1, 153329, Note_on_c, 0, 78, 61
1, 153333, Control_c, 0, 64, 92
1, 153348, Control_c, 0, 64, 91
1, 153352, Note_on_c, 0, 66, 42
1, 153360, Note_on_c, 0, 70, 43
1, 153362, Control_c, 0, 64, 88
1, 153373, Note_on_c, 0, 58, 33
1, 153376, Note_on_c, 0, 63, 32
1, 153377, Control_c, 0, 64, 86
1, 153378, Note_on_c, 0, 51, 38
1, 153392, Control_c, 0, 64, 83
1, 153406, Control_c, 0, 64, 79
1, 153421, Control_c, 0, 64, 76
1, 153436, Control_c, 0, 64, 73
1, 153451, Control_c, 0, 64, 69
1, 153466, Control_c, 0, 64, 66
1, 153481, Control_c, 0, 64, 62
1, 153481, Note_off_c, 0, 53, 34
1, 153496, Control_c, 0, 64, 56
1, 153511, Control_c, 0, 64, 50
1, 153525, Control_c, 0, 64, 43
1, 153540, Control_c, 0, 64, 39
1, 153555, Control_c, 0, 64, 38
1, 153570, Control_c, 0, 64, 41
1, 153585, Control_c, 0, 64, 47
1, 153599, Control_c, 0, 64, 54
1, 153613, Note_off_c, 0, 73, 24
1, 153614, Control_c, 0, 64, 60
1, 153629, Control_c, 0, 64, 63
1, 153644, Control_c, 0, 64, 65
1, 153659, Control_c, 0, 64, 67
1, 153673, Control_c, 0, 64, 70
1, 153688, Control_c, 0, 64, 73
1, 153703, Control_c, 0, 64, 76
1, 153718, Control_c, 0, 64, 79
1, 153732, Control_c, 0, 64, 81
1, 153747, Control_c, 0, 64, 83
1, 153762, Control_c, 0, 64, 86
1, 153776, Note_off_c, 0, 63, 42
1, 153777, Control_c, 0, 64, 88
1, 153792, Control_c, 0, 64, 91
1, 153806, Control_c, 0, 64, 95
1, 153821, Control_c, 0, 64, 98
1, 153836, Control_c, 0, 64, 101
1, 153851, Control_c, 0, 64, 103
1, 153866, Control_c, 0, 64, 105
1, 153880, Control_c, 0, 64, 106
1, 153896, Control_c, 0, 64, 106
1, 153934, Control_c, 0, 64, 107
1, 153949, Control_c, 0, 64, 108
1, 154015, Note_off_c, 0, 66, 42
1, 154047, Note_off_c, 0, 78, 31
1, 154095, Note_off_c, 0, 58, 36
1, 154101, Note_off_c, 0, 70, 32
1, 154201, Control_c, 0, 64, 107
1, 154216, Control_c, 0, 64, 107
1, 154230, Control_c, 0, 64, 105
1, 154245, Control_c, 0, 64, 104
1, 154260, Control_c, 0, 64, 101
1, 154275, Control_c, 0, 64, 98
1, 154286, Note_on_c, 0, 77, 59
1, 154290, Control_c, 0, 64, 96
1, 154304, Note_on_c, 0, 70, 42
1, 154304, Control_c, 0, 64, 93
1, 154310, Note_on_c, 0, 65, 39
1, 154319, Control_c, 0, 64, 90
1, 154326, Note_on_c, 0, 61, 38
1, 154333, Note_on_c, 0, 58, 22
1, 154334, Control_c, 0, 64, 86
1, 154345, Note_on_c, 0, 49, 39
1, 154348, Control_c, 0, 64, 82
1, 154363, Control_c, 0, 64, 78
1, 154378, Control_c, 0, 64, 74
1, 154393, Control_c, 0, 64, 71
1, 154408, Control_c, 0, 64, 67
1, 154418, Note_off_c, 0, 51, 38
1, 154423, Control_c, 0, 64, 63
1, 154438, Control_c, 0, 64, 56
1, 154453, Control_c, 0, 64, 47
1, 154467, Control_c, 0, 64, 40
1, 154482, Control_c, 0, 64, 40
1, 154497, Control_c, 0, 64, 43
1, 154512, Control_c, 0, 64, 49
1, 154527, Control_c, 0, 64, 56
1, 154542, Control_c, 0, 64, 62
1, 154556, Control_c, 0, 64, 65
1, 154571, Control_c, 0, 64, 68
1, 154586, Control_c, 0, 64, 72
1, 154601, Control_c, 0, 64, 75
1, 154616, Control_c, 0, 64, 78
1, 154630, Control_c, 0, 64, 81
1, 154634, Note_off_c, 0, 49, 49
1, 154645, Control_c, 0, 64, 83
1, 154649, Note_off_c, 0, 77, 58
1, 154660, Control_c, 0, 64, 86
1, 154681, Note_off_c, 0, 65, 41
1, 154682, Control_c, 0, 64, 88
1, 154698, Control_c, 0, 64, 91
1, 154713, Control_c, 0, 64, 93
1, 154727, Control_c, 0, 64, 95
1, 154742, Control_c, 0, 64, 97
1, 154745, Note_off_c, 0, 61, 52
1, 154757, Control_c, 0, 64, 100
1, 154772, Control_c, 0, 64, 102
1, 154786, Control_c, 0, 64, 105
1, 154801, Control_c, 0, 64, 107
1, 154816, Control_c, 0, 64, 108
1, 154831, Control_c, 0, 64, 109
1, 154846, Control_c, 0, 64, 111
1, 154861, Control_c, 0, 64, 113
1, 154876, Control_c, 0, 64, 113
1, 154954, Note_off_c, 0, 70, 37
1, 155047, Note_off_c, 0, 58, 17
1, 155142, Control_c, 0, 64, 113
1, 155157, Control_c, 0, 64, 111
1, 155171, Control_c, 0, 64, 110
1, 155186, Control_c, 0, 64, 108
1, 155201, Control_c, 0, 64, 106
1, 155216, Control_c, 0, 64, 104
1, 155222, Note_on_c, 0, 75, 44
1, 155231, Control_c, 0, 64, 102
1, 155245, Control_c, 0, 64, 100
1, 155254, Note_on_c, 0, 70, 39
1, 155260, Control_c, 0, 64, 98
1, 155263, Note_on_c, 0, 58, 23
1, 155269, Note_on_c, 0, 63, 16
1, 155275, Control_c, 0, 64, 94
1, 155278, Note_on_c, 0, 66, 37
1, 155283, Note_on_c, 0, 54, 37
1, 155290, Control_c, 0, 64, 91
1, 155305, Control_c, 0, 64, 86
1, 155320, Control_c, 0, 64, 81
1, 155335, Control_c, 0, 64, 77
1, 155350, Control_c, 0, 64, 73
1, 155365, Control_c, 0, 64, 70
1, 155379, Control_c, 0, 64, 65
1, 155394, Control_c, 0, 64, 59
1, 155409, Control_c, 0, 64, 51
1, 155431, Control_c, 0, 64, 45
1, 155446, Control_c, 0, 64, 43
1, 155460, Control_c, 0, 64, 45
1, 155475, Control_c, 0, 64, 50
1, 155490, Control_c, 0, 64, 56
1, 155506, Control_c, 0, 64, 61
1, 155521, Control_c, 0, 64, 64
1, 155536, Control_c, 0, 64, 67
1, 155550, Control_c, 0, 64, 69
1, 155565, Control_c, 0, 64, 72
1, 155580, Control_c, 0, 64, 75
1, 155595, Control_c, 0, 64, 78
1, 155609, Control_c, 0, 64, 81
1, 155624, Control_c, 0, 64, 83
1, 155639, Control_c, 0, 64, 86
1, 155654, Control_c, 0, 64, 88
1, 155654, Control_c, 0, 67, 127
1, 155669, Control_c, 0, 64, 91
1, 155684, Control_c, 0, 64, 94
1, 155699, Control_c, 0, 64, 96
1, 155699, Control_c, 0, 67, 126
1, 155699, Note_off_c, 0, 66, 46
1, 155700, Note_off_c, 0, 63, 42
1, 155713, Control_c, 0, 64, 97
1, 155728, Control_c, 0, 64, 99
1, 155728, Control_c, 0, 67, 126
1, 155738, Note_off_c, 0, 70, 42
1, 155743, Control_c, 0, 64, 100
1, 155758, Control_c, 0, 64, 101
1, 155763, Note_off_c, 0, 58, 34
1, 155773, Control_c, 0, 64, 102
1, 155788, Control_c, 0, 64, 103
1, 155817, Control_c, 0, 64, 103
1, 155832, Control_c, 0, 64, 104
1, 156098, Control_c, 0, 64, 103
1, 156113, Control_c, 0, 64, 102
1, 156128, Control_c, 0, 64, 100
1, 156143, Note_on_c, 0, 73, 48
1, 156143, Control_c, 0, 64, 98
1, 156158, Control_c, 0, 64, 96
1, 156166, Note_on_c, 0, 70, 39
1, 156176, Note_on_c, 0, 65, 37
1, 156178, Note_on_c, 0, 61, 27
1, 156180, Control_c, 0, 64, 94
1, 156190, Note_on_c, 0, 53, 31
1, 156195, Control_c, 0, 64, 91
1, 156196, Note_on_c, 0, 58, 37
1, 156209, Control_c, 0, 64, 88
1, 156224, Control_c, 0, 64, 84
1, 156239, Control_c, 0, 64, 79
1, 156254, Control_c, 0, 64, 75
1, 156269, Control_c, 0, 64, 70
1, 156274, Note_off_c, 0, 54, 39
1, 156283, Control_c, 0, 64, 64
1, 156299, Control_c, 0, 64, 57
1, 156314, Control_c, 0, 64, 47
1, 156329, Control_c, 0, 64, 40
1, 156344, Control_c, 0, 64, 38
1, 156347, Note_off_c, 0, 75, 37
1, 156358, Control_c, 0, 64, 40
1, 156373, Control_c, 0, 64, 45
1, 156373, Control_c, 0, 67, 125
1, 156387, Control_c, 0, 64, 54
1, 156387, Control_c, 0, 67, 125
1, 156402, Control_c, 0, 64, 60
1, 156402, Control_c, 0, 67, 124
1, 156417, Control_c, 0, 64, 64
1, 156417, Control_c, 0, 67, 123
1, 156432, Control_c, 0, 64, 67
1, 156432, Control_c, 0, 67, 121
1, 156447, Control_c, 0, 64, 70
1, 156447, Control_c, 0, 67, 120
1, 156454, Note_off_c, 0, 65, 39
1, 156462, Control_c, 0, 64, 74
1, 156462, Control_c, 0, 67, 118
1, 156477, Control_c, 0, 64, 77
1, 156477, Control_c, 0, 67, 117
1, 156492, Control_c, 0, 64, 82
1, 156492, Control_c, 0, 67, 115
1, 156506, Control_c, 0, 64, 85
1, 156506, Control_c, 0, 67, 114
1, 156521, Control_c, 0, 64, 89
1, 156521, Control_c, 0, 67, 113
1, 156536, Control_c, 0, 64, 92
1, 156536, Control_c, 0, 67, 111
1, 156550, Control_c, 0, 64, 95
1, 156550, Control_c, 0, 67, 109
1, 156565, Control_c, 0, 64, 99
1, 156565, Control_c, 0, 67, 108
1, 156573, Note_off_c, 0, 70, 43
1, 156580, Control_c, 0, 64, 103
1, 156580, Control_c, 0, 67, 106
1, 156595, Control_c, 0, 64, 108
1, 156595, Control_c, 0, 67, 105
1, 156610, Control_c, 0, 64, 113
1, 156610, Control_c, 0, 67, 104
1, 156624, Control_c, 0, 64, 118
1, 156624, Control_c, 0, 67, 103
1, 156639, Control_c, 0, 64, 127
1, 156639, Control_c, 0, 67, 102
1, 156654, Control_c, 0, 67, 101
1, 156669, Control_c, 0, 67, 100
1, 156684, Control_c, 0, 67, 99
1, 156698, Note_off_c, 0, 53, 36
1, 156698, Control_c, 0, 67, 98
1, 156713, Control_c, 0, 67, 97
1, 156728, Control_c, 0, 67, 95
1, 156742, Control_c, 0, 67, 94
1, 156757, Control_c, 0, 67, 93
1, 156772, Control_c, 0, 67, 92
1, 156787, Control_c, 0, 67, 91
1, 156801, Note_off_c, 0, 58, 29
1, 156802, Control_c, 0, 67, 90
1, 156809, Note_off_c, 0, 61, 35
1, 156817, Control_c, 0, 67, 89
1, 156831, Control_c, 0, 67, 87
1, 156846, Control_c, 0, 67, 86
1, 156861, Control_c, 0, 67, 85
1, 156876, Control_c, 0, 67, 83
1, 156891, Control_c, 0, 67, 82
1, 156906, Control_c, 0, 67, 80
1, 156928, Control_c, 0, 67, 78
1, 156943, Control_c, 0, 67, 76
1, 156957, Control_c, 0, 67, 74
1, 156972, Control_c, 0, 67, 74
1, 156987, Control_c, 0, 67, 73
1, 157046, Control_c, 0, 67, 73
1, 157299, Control_c, 0, 67, 73
1, 157335, Note_on_c, 0, 72, 61
1, 157359, Note_on_c, 0, 60, 40
1, 157359, Control_c, 0, 67, 74
1, 157364, Note_on_c, 0, 63, 40
1, 157365, Note_on_c, 0, 70, 45
1, 157370, Note_on_c, 0, 66, 41
1, 157373, Control_c, 0, 64, 115
1, 157376, Note_on_c, 0, 54, 36
1, 157376, Note_on_c, 0, 58, 39
1, 157387, Note_on_c, 0, 51, 30
1, 157388, Control_c, 0, 64, 104
1, 157403, Control_c, 0, 64, 96
1, 157403, Control_c, 0, 67, 74
1, 157418, Control_c, 0, 64, 88
1, 157433, Control_c, 0, 64, 82
1, 157433, Control_c, 0, 67, 75
1, 157447, Control_c, 0, 64, 76
1, 157462, Control_c, 0, 64, 70
1, 157462, Control_c, 0, 67, 75
1, 157477, Control_c, 0, 64, 65
1, 157492, Control_c, 0, 64, 59
1, 157492, Control_c, 0, 67, 76
1, 157507, Control_c, 0, 64, 53
1, 157507, Control_c, 0, 67, 76
1, 157511, Note_off_c, 0, 73, 29
1, 157521, Control_c, 0, 64, 48
1, 157521, Control_c, 0, 67, 77
1, 157536, Control_c, 0, 64, 47
1, 157536, Control_c, 0, 67, 77
1, 157551, Control_c, 0, 64, 48
1, 157551, Control_c, 0, 67, 78
1, 157565, Control_c, 0, 64, 52
1, 157565, Control_c, 0, 67, 79
1, 157580, Control_c, 0, 64, 57
1, 157580, Control_c, 0, 67, 80
1, 157595, Control_c, 0, 64, 62
1, 157595, Control_c, 0, 67, 80
1, 157610, Control_c, 0, 64, 65
1, 157610, Control_c, 0, 67, 82
1, 157625, Control_c, 0, 64, 68
1, 157625, Control_c, 0, 67, 83
1, 157639, Control_c, 0, 64, 72
1, 157639, Control_c, 0, 67, 84
1, 157654, Control_c, 0, 64, 76
1, 157654, Control_c, 0, 67, 85
1, 157677, Control_c, 0, 64, 79
1, 157677, Control_c, 0, 67, 86
1, 157692, Control_c, 0, 64, 84
1, 157692, Control_c, 0, 67, 87
1, 157707, Control_c, 0, 64, 87
1, 157707, Control_c, 0, 67, 87
1, 157721, Control_c, 0, 64, 91
1, 157721, Control_c, 0, 67, 88
1, 157736, Control_c, 0, 64, 94
1, 157736, Control_c, 0, 67, 91
1, 157740, Note_off_c, 0, 60, 36
1, 157751, Note_off_c, 0, 63, 47
1, 157751, Control_c, 0, 64, 97
1, 157751, Control_c, 0, 67, 95
1, 157766, Control_c, 0, 64, 101
1, 157766, Control_c, 0, 67, 98
1, 157780, Control_c, 0, 64, 105
1, 157780, Control_c, 0, 67, 100
1, 157795, Control_c, 0, 64, 110
1, 157795, Control_c, 0, 67, 101
1, 157810, Control_c, 0, 64, 115
1, 157810, Control_c, 0, 67, 102
1, 157812, Note_off_c, 0, 58, 34
1, 157825, Control_c, 0, 64, 119
1, 157825, Control_c, 0, 67, 104
1, 157840, Control_c, 0, 64, 122
1, 157840, Control_c, 0, 67, 106
1, 157842, Note_off_c, 0, 66, 43
1, 157854, Control_c, 0, 64, 124
1, 157854, Control_c, 0, 67, 107
1, 157869, Control_c, 0, 64, 127
1, 157869, Control_c, 0, 67, 109
1, 157885, Control_c, 0, 67, 110
1, 157890, Note_off_c, 0, 70, 34
1, 157901, Control_c, 0, 67, 111
1, 157904, Note_off_c, 0, 51, 30
1, 157916, Control_c, 0, 67, 113
1, 157931, Control_c, 0, 67, 114
1, 157945, Control_c, 0, 67, 116
1, 157960, Control_c, 0, 67, 117
1, 157975, Control_c, 0, 67, 119
1, 157990, Control_c, 0, 67, 120
1, 158004, Control_c, 0, 67, 122
1, 158019, Control_c, 0, 67, 123
1, 158034, Control_c, 0, 67, 124
1, 158049, Control_c, 0, 67, 125
1, 158064, Control_c, 0, 67, 126
1, 158078, Control_c, 0, 64, 124
1, 158078, Control_c, 0, 67, 127
1, 158093, Control_c, 0, 64, 119
1, 158093, Control_c, 0, 67, 127
1, 158108, Control_c, 0, 64, 115
1, 158123, Control_c, 0, 64, 113
1, 158138, Control_c, 0, 64, 111
1, 158152, Control_c, 0, 64, 109
1, 158167, Control_c, 0, 64, 108
1, 158182, Control_c, 0, 64, 106
1, 158197, Control_c, 0, 64, 104
1, 158211, Control_c, 0, 64, 102
1, 158226, Control_c, 0, 64, 100
1, 158241, Control_c, 0, 64, 99
1, 158256, Control_c, 0, 64, 97
1, 158271, Control_c, 0, 64, 95
1, 158286, Control_c, 0, 64, 92
1, 158301, Control_c, 0, 64, 90
1, 158315, Control_c, 0, 64, 87
1, 158330, Control_c, 0, 64, 84
1, 158331, Note_on_c, 0, 69, 43
1, 158342, Note_on_c, 0, 65, 37
1, 158345, Control_c, 0, 64, 81
1, 158349, Note_off_c, 0, 54, 37
1, 158356, Note_on_c, 0, 60, 32
1, 158358, Note_on_c, 0, 53, 37
1, 158360, Control_c, 0, 64, 77
1, 158361, Note_on_c, 0, 57, 31
1, 158375, Control_c, 0, 64, 74
1, 158389, Control_c, 0, 64, 70
1, 158404, Control_c, 0, 64, 66
1, 158426, Control_c, 0, 64, 63
1, 158441, Control_c, 0, 64, 58
1, 158456, Control_c, 0, 64, 53
1, 158471, Control_c, 0, 64, 47
1, 158486, Control_c, 0, 64, 40
1, 158501, Control_c, 0, 64, 31
1, 158516, Control_c, 0, 64, 28
1, 158530, Control_c, 0, 64, 29
1, 158545, Control_c, 0, 64, 36
1, 158560, Control_c, 0, 64, 47
1, 158575, Control_c, 0, 64, 56
1, 158590, Control_c, 0, 64, 62
1, 158604, Control_c, 0, 64, 65
1, 158619, Control_c, 0, 64, 67
1, 158634, Control_c, 0, 64, 71
1, 158649, Control_c, 0, 64, 75
1, 158650, Note_off_c, 0, 60, 34
1, 158664, Control_c, 0, 64, 79
1, 158678, Control_c, 0, 64, 83
1, 158685, Note_off_c, 0, 65, 46
1, 158694, Control_c, 0, 64, 87
1, 158709, Control_c, 0, 64, 91
1, 158724, Control_c, 0, 64, 95
1, 158739, Control_c, 0, 64, 101
1, 158745, Note_off_c, 0, 57, 37
1, 158754, Control_c, 0, 64, 107
1, 158768, Control_c, 0, 64, 115
1, 158783, Control_c, 0, 64, 127
1, 158812, Note_off_c, 0, 53, 31
1, 159219, Control_c, 0, 64, 118
1, 159234, Control_c, 0, 64, 114
1, 159249, Control_c, 0, 64, 111
1, 159264, Control_c, 0, 64, 108
1, 159279, Control_c, 0, 64, 105
1, 159294, Control_c, 0, 64, 101
1, 159305, Note_on_c, 0, 73, 55
1, 159308, Control_c, 0, 64, 96
1, 159319, Note_on_c, 0, 61, 41
1, 159323, Control_c, 0, 64, 92
1, 159338, Control_c, 0, 64, 88
1, 159349, Note_on_c, 0, 46, 37
1, 159353, Note_on_c, 0, 53, 37
1, 159353, Note_on_c, 0, 58, 36
1, 159353, Control_c, 0, 64, 85
1, 159368, Control_c, 0, 64, 81
1, 159383, Control_c, 0, 64, 77
1, 159398, Control_c, 0, 64, 74
1, 159413, Control_c, 0, 64, 68
1, 159421, Note_off_c, 0, 69, 43
1, 159427, Control_c, 0, 64, 63
1, 159442, Control_c, 0, 64, 57
1, 159448, Note_off_c, 0, 72, 33
1, 159457, Control_c, 0, 64, 49
1, 159472, Control_c, 0, 64, 43
1, 159487, Control_c, 0, 64, 41
1, 159502, Control_c, 0, 64, 42
1, 159517, Control_c, 0, 64, 47
1, 159532, Control_c, 0, 64, 53
1, 159547, Control_c, 0, 64, 60
1, 159562, Control_c, 0, 64, 64
1, 159576, Control_c, 0, 64, 66
1, 159591, Control_c, 0, 64, 69
1, 159606, Control_c, 0, 64, 73
1, 159621, Control_c, 0, 64, 77
1, 159636, Control_c, 0, 64, 80
1, 159650, Control_c, 0, 64, 83
1, 159665, Control_c, 0, 64, 86
1, 159680, Control_c, 0, 64, 89
1, 159695, Control_c, 0, 64, 93
1, 159710, Control_c, 0, 64, 98
1, 159724, Control_c, 0, 64, 102
1, 159732, Note_on_c, 0, 65, 62
1, 159739, Control_c, 0, 64, 105
1, 159754, Control_c, 0, 64, 109
1, 159768, Control_c, 0, 64, 114
1, 159783, Control_c, 0, 64, 122
1, 159798, Control_c, 0, 64, 127
1, 159950, Note_off_c, 0, 46, 40
1, 159955, Note_off_c, 0, 58, 61
1, 160018, Note_off_c, 0, 61, 36
1, 160078, Note_off_c, 0, 53, 26
1, 160236, Control_c, 0, 64, 116
1, 160250, Control_c, 0, 64, 109
1, 160251, Note_on_c, 0, 70, 57
1, 160265, Control_c, 0, 64, 104
1, 160280, Control_c, 0, 64, 98
1, 160295, Control_c, 0, 64, 91
1, 160310, Control_c, 0, 64, 84
1, 160319, Note_on_c, 0, 59, 36
1, 160321, Note_on_c, 0, 53, 36
1, 160322, Note_on_c, 0, 49, 41
1, 160325, Control_c, 0, 64, 79
1, 160327, Note_off_c, 0, 65, 56
1, 160340, Control_c, 0, 64, 75
1, 160355, Control_c, 0, 64, 70
1, 160370, Control_c, 0, 64, 66
1, 160385, Control_c, 0, 64, 61
1, 160399, Control_c, 0, 64, 54
1, 160414, Control_c, 0, 64, 46
1, 160429, Control_c, 0, 64, 41
1, 160444, Control_c, 0, 64, 39
1, 160459, Control_c, 0, 64, 40
1, 160473, Control_c, 0, 64, 43
1, 160488, Control_c, 0, 64, 50
1, 160503, Control_c, 0, 64, 58
1, 160518, Control_c, 0, 64, 62
1, 160533, Control_c, 0, 64, 64
1, 160547, Control_c, 0, 64, 66
1, 160562, Control_c, 0, 64, 67
1, 160577, Control_c, 0, 64, 70
1, 160591, Control_c, 0, 64, 73
1, 160606, Control_c, 0, 64, 76
1, 160621, Control_c, 0, 64, 78
1, 160636, Control_c, 0, 64, 79
1, 160651, Control_c, 0, 64, 81
1, 160671, Note_off_c, 0, 59, 41
1, 160673, Control_c, 0, 64, 83
1, 160688, Control_c, 0, 64, 86
1, 160703, Control_c, 0, 64, 89
1, 160717, Control_c, 0, 64, 92
1, 160732, Control_c, 0, 64, 94
1, 160747, Control_c, 0, 64, 95
1, 160762, Control_c, 0, 64, 96
1, 160777, Control_c, 0, 64, 98
1, 160791, Control_c, 0, 64, 99
1, 160795, Note_off_c, 0, 53, 32
1, 160806, Control_c, 0, 64, 101
1, 160821, Control_c, 0, 64, 102
1, 160836, Control_c, 0, 64, 103
1, 160872, Note_off_c, 0, 49, 56
1, 160880, Control_c, 0, 64, 103
1, 160890, Note_on_c, 0, 68, 48
1, 160949, Note_off_c, 0, 70, 32
1, 161222, Control_c, 0, 64, 103
1, 161267, Control_c, 0, 64, 102
1, 161282, Control_c, 0, 64, 102
1, 161296, Control_c, 0, 64, 101
1, 161311, Control_c, 0, 64, 101
1, 161326, Control_c, 0, 64, 100
1, 161340, Control_c, 0, 64, 99
1, 161355, Control_c, 0, 64, 98
1, 161370, Control_c, 0, 64, 97
1, 161385, Control_c, 0, 64, 96
1, 161400, Control_c, 0, 64, 95
1, 161422, Control_c, 0, 64, 94
1, 161437, Control_c, 0, 64, 93
1, 161452, Control_c, 0, 64, 92
1, 161467, Control_c, 0, 64, 91
1, 161482, Control_c, 0, 64, 90
1, 161496, Control_c, 0, 64, 88
1, 161511, Control_c, 0, 64, 86
1, 161526, Control_c, 0, 64, 84
1, 161538, Note_on_c, 0, 66, 42
1, 161540, Control_c, 0, 64, 82
1, 161555, Control_c, 0, 64, 80
1, 161570, Control_c, 0, 64, 77
1, 161585, Control_c, 0, 64, 74
1, 161586, Note_on_c, 0, 49, 37
1, 161592, Note_on_c, 0, 42, 32
1, 161592, Note_on_c, 0, 58, 14
1, 161600, Control_c, 0, 64, 72
1, 161614, Control_c, 0, 64, 69
1, 161629, Control_c, 0, 64, 66
1, 161637, Note_off_c, 0, 68, 34
1, 161644, Control_c, 0, 64, 63
1, 161659, Control_c, 0, 64, 58
1, 161674, Control_c, 0, 64, 51
1, 161688, Control_c, 0, 64, 43
1, 161703, Control_c, 0, 64, 37
1, 161718, Control_c, 0, 64, 37
1, 161733, Control_c, 0, 64, 42
1, 161747, Control_c, 0, 64, 51
1, 161762, Control_c, 0, 64, 58
1, 161777, Control_c, 0, 64, 63
1, 161792, Control_c, 0, 64, 66
1, 161807, Control_c, 0, 64, 69
1, 161821, Control_c, 0, 64, 72
1, 161836, Control_c, 0, 64, 75
1, 161851, Control_c, 0, 64, 79
1, 161858, Note_off_c, 0, 42, 49
1, 161866, Control_c, 0, 64, 81
1, 161881, Control_c, 0, 64, 84
1, 161897, Control_c, 0, 64, 87
1, 161911, Control_c, 0, 64, 89
1, 161913, Note_off_c, 0, 49, 0
1, 161926, Control_c, 0, 64, 92
1, 161941, Control_c, 0, 64, 95
1, 161956, Control_c, 0, 64, 99
1, 161970, Control_c, 0, 64, 102
1, 161973, Poly_aftertouch_c, 0, 49, 0
1, 161985, Control_c, 0, 64, 105
1, 162000, Control_c, 0, 64, 106
1, 162015, Control_c, 0, 64, 109
1, 162030, Control_c, 0, 64, 111
1, 162045, Control_c, 0, 64, 115
1, 162060, Control_c, 0, 64, 119
1, 162075, Control_c, 0, 64, 124
1, 162090, Control_c, 0, 64, 127
1, 162143, Note_on_c, 0, 78, 55
1, 162322, Note_off_c, 0, 58, 34
1, 162364, Note_off_c, 0, 78, 53
1, 162432, Note_off_c, 0, 66, 41
1, 162541, Control_c, 0, 64, 124
1, 162570, Control_c, 0, 64, 122
1, 162585, Control_c, 0, 64, 120
1, 162600, Control_c, 0, 64, 118
1, 162615, Control_c, 0, 64, 116
1, 162630, Control_c, 0, 64, 114
1, 162644, Control_c, 0, 64, 112
1, 162659, Control_c, 0, 64, 110
1, 162674, Control_c, 0, 64, 109
1, 162690, Control_c, 0, 64, 106
1, 162705, Control_c, 0, 64, 104
1, 162720, Control_c, 0, 64, 101
1, 162729, Note_on_c, 0, 77, 55
1, 162734, Control_c, 0, 64, 98
1, 162749, Control_c, 0, 64, 94
1, 162756, Note_on_c, 0, 65, 44
1, 162764, Note_on_c, 0, 70, 41
1, 162764, Control_c, 0, 64, 91
1, 162778, Note_on_c, 0, 61, 35
1, 162779, Control_c, 0, 64, 88
1, 162785, Note_on_c, 0, 49, 32
1, 162790, Note_on_c, 0, 58, 29
1, 162793, Control_c, 0, 64, 84
1, 162808, Control_c, 0, 64, 80
1, 162823, Control_c, 0, 64, 76
1, 162838, Control_c, 0, 64, 71
1, 162853, Control_c, 0, 64, 67
1, 162868, Control_c, 0, 64, 63
1, 162883, Control_c, 0, 64, 56
1, 162897, Control_c, 0, 64, 47
1, 162920, Control_c, 0, 64, 33
1, 162920, Control_c, 0, 67, 127
1, 162935, Control_c, 0, 64, 21
1, 162935, Control_c, 0, 67, 126
1, 162949, Control_c, 0, 64, 19
1, 162949, Control_c, 0, 67, 126
1, 162964, Control_c, 0, 64, 21
1, 162979, Control_c, 0, 64, 31
1, 162979, Control_c, 0, 67, 125
1, 162993, Control_c, 0, 64, 45
1, 162993, Control_c, 0, 67, 124
1, 163008, Control_c, 0, 64, 55
1, 163008, Control_c, 0, 67, 124
1, 163023, Control_c, 0, 64, 62
1, 163023, Control_c, 0, 67, 123
1, 163038, Control_c, 0, 64, 65
1, 163038, Control_c, 0, 67, 123
1, 163053, Control_c, 0, 64, 66
1, 163053, Control_c, 0, 67, 122
1, 163067, Control_c, 0, 64, 69
1, 163067, Control_c, 0, 67, 122
1, 163082, Control_c, 0, 64, 72
1, 163082, Control_c, 0, 67, 121
1, 163088, Note_off_c, 0, 77, 56
1, 163094, Note_off_c, 0, 49, 42
1, 163097, Control_c, 0, 64, 75
1, 163097, Control_c, 0, 67, 121
1, 163112, Control_c, 0, 64, 78
1, 163112, Control_c, 0, 67, 120
1, 163126, Control_c, 0, 64, 81
1, 163126, Control_c, 0, 67, 120
1, 163140, Control_c, 0, 64, 84
1, 163140, Control_c, 0, 67, 119
1, 163145, Note_off_c, 0, 58, 33
1, 163155, Control_c, 0, 64, 86
1, 163163, Note_off_c, 0, 65, 37
1, 163170, Control_c, 0, 64, 88
1, 163170, Control_c, 0, 67, 119
1, 163184, Note_off_c, 0, 73, 17
1, 163185, Control_c, 0, 64, 90
1, 163185, Control_c, 0, 67, 118
1, 163199, Control_c, 0, 64, 91
1, 163202, Note_off_c, 0, 61, 40
1, 163214, Control_c, 0, 64, 92
1, 163229, Control_c, 0, 64, 93
1, 163229, Control_c, 0, 67, 118
1, 163242, Note_off_c, 0, 70, 43
1, 163244, Control_c, 0, 64, 94
1, 163258, Control_c, 0, 64, 95
1, 163273, Control_c, 0, 64, 96
1, 163288, Control_c, 0, 64, 96
1, 163288, Control_c, 0, 67, 117
1, 163303, Control_c, 0, 64, 97
1, 163318, Control_c, 0, 64, 98
1, 163333, Control_c, 0, 64, 99
1, 163348, Control_c, 0, 64, 100
1, 163362, Control_c, 0, 64, 101
1, 163377, Control_c, 0, 64, 101
1, 163422, Control_c, 0, 64, 102
1, 163541, Control_c, 0, 67, 118
1, 163586, Control_c, 0, 64, 101
1, 163630, Control_c, 0, 64, 101
1, 163645, Control_c, 0, 64, 100
1, 163667, Control_c, 0, 64, 98
1, 163682, Control_c, 0, 64, 97
1, 163687, Note_on_c, 0, 75, 50
1, 163696, Control_c, 0, 64, 95
1, 163708, Note_on_c, 0, 69, 49
1, 163711, Control_c, 0, 64, 92
1, 163726, Control_c, 0, 64, 90
1, 163729, Note_on_c, 0, 63, 34
1, 163729, Note_on_c, 0, 66, 39
1, 163734, Note_on_c, 0, 57, 38
1, 163735, Note_on_c, 0, 54, 41
1, 163741, Control_c, 0, 64, 87
1, 163756, Control_c, 0, 64, 84
1, 163771, Control_c, 0, 64, 81
1, 163786, Control_c, 0, 64, 77
1, 163801, Control_c, 0, 64, 74
1, 163815, Control_c, 0, 64, 70
1, 163830, Control_c, 0, 64, 66
1, 163845, Control_c, 0, 64, 62
1, 163860, Control_c, 0, 64, 55
1, 163875, Control_c, 0, 64, 46
1, 163889, Control_c, 0, 64, 37
1, 163904, Control_c, 0, 64, 31
1, 163904, Control_c, 0, 67, 117
1, 163919, Control_c, 0, 64, 30
1, 163919, Control_c, 0, 67, 117
1, 163933, Control_c, 0, 64, 32
1, 163933, Control_c, 0, 67, 116
1, 163948, Control_c, 0, 64, 39
1, 163963, Control_c, 0, 64, 48
1, 163963, Control_c, 0, 67, 116
1, 163978, Control_c, 0, 64, 57
1, 163978, Control_c, 0, 67, 115
1, 163993, Control_c, 0, 64, 62
1, 163993, Control_c, 0, 67, 114
1, 164007, Control_c, 0, 64, 64
1, 164007, Control_c, 0, 67, 114
1, 164022, Control_c, 0, 64, 66
1, 164037, Control_c, 0, 64, 69
1, 164037, Control_c, 0, 67, 113
1, 164052, Control_c, 0, 64, 72
1, 164052, Control_c, 0, 67, 113
1, 164067, Control_c, 0, 64, 75
1, 164067, Control_c, 0, 67, 112
1, 164081, Control_c, 0, 64, 79
1, 164081, Control_c, 0, 67, 111
1, 164096, Control_c, 0, 64, 82
1, 164111, Control_c, 0, 64, 85
1, 164111, Control_c, 0, 67, 111
1, 164114, Note_off_c, 0, 57, 40
1, 164126, Control_c, 0, 64, 88
1, 164141, Control_c, 0, 64, 90
1, 164141, Control_c, 0, 67, 110
1, 164155, Note_off_c, 0, 66, 43
1, 164155, Control_c, 0, 64, 93
1, 164170, Control_c, 0, 64, 95
1, 164170, Control_c, 0, 67, 110
1, 164185, Control_c, 0, 64, 98
1, 164185, Control_c, 0, 67, 109
1, 164200, Control_c, 0, 64, 99
1, 164200, Control_c, 0, 67, 108
1, 164202, Note_off_c, 0, 63, 42
1, 164215, Control_c, 0, 64, 101
1, 164215, Control_c, 0, 67, 108
1, 164215, Note_off_c, 0, 69, 53
1, 164230, Control_c, 0, 64, 103
1, 164245, Control_c, 0, 64, 104
1, 164245, Control_c, 0, 67, 107
1, 164260, Control_c, 0, 64, 105
1, 164275, Control_c, 0, 64, 105
1, 164275, Control_c, 0, 67, 107
1, 164290, Control_c, 0, 64, 106
1, 164290, Control_c, 0, 67, 106
1, 164304, Control_c, 0, 64, 106
1, 164304, Control_c, 0, 67, 106
1, 164319, Control_c, 0, 67, 105
1, 164334, Control_c, 0, 67, 105
1, 164349, Control_c, 0, 67, 104
1, 164364, Control_c, 0, 67, 103
1, 164416, Control_c, 0, 67, 103
1, 164460, Control_c, 0, 67, 102
1, 164505, Control_c, 0, 67, 101
1, 164534, Control_c, 0, 67, 100
1, 164579, Control_c, 0, 64, 106
1, 164594, Control_c, 0, 64, 105
1, 164609, Control_c, 0, 64, 103
1, 164624, Control_c, 0, 64, 101
1, 164638, Control_c, 0, 64, 99
1, 164653, Control_c, 0, 64, 97
1, 164668, Control_c, 0, 64, 94
1, 164668, Control_c, 0, 67, 100
1, 164674, Note_on_c, 0, 73, 49
1, 164683, Control_c, 0, 64, 91
1, 164695, Note_on_c, 0, 61, 29
1, 164698, Note_on_c, 0, 68, 41
1, 164698, Note_on_c, 0, 65, 41
1, 164698, Control_c, 0, 64, 88
1, 164708, Note_on_c, 0, 53, 36
1, 164712, Note_on_c, 0, 56, 37
1, 164713, Control_c, 0, 64, 84
1, 164728, Control_c, 0, 64, 81
1, 164743, Control_c, 0, 64, 78
1, 164743, Control_c, 0, 67, 99
1, 164757, Control_c, 0, 64, 74
1, 164757, Control_c, 0, 67, 98
1, 164772, Control_c, 0, 64, 71
1, 164772, Control_c, 0, 67, 98
1, 164787, Control_c, 0, 64, 68
1, 164787, Control_c, 0, 67, 97
1, 164800, Note_off_c, 0, 54, 39
1, 164802, Control_c, 0, 64, 64
1, 164802, Control_c, 0, 67, 97
1, 164817, Control_c, 0, 64, 58
1, 164817, Control_c, 0, 67, 96
1, 164831, Control_c, 0, 64, 49
1, 164831, Control_c, 0, 67, 95
1, 164846, Control_c, 0, 64, 42
1, 164846, Control_c, 0, 67, 94
1, 164861, Note_off_c, 0, 75, 37
1, 164861, Control_c, 0, 64, 38
1, 164861, Control_c, 0, 67, 92
1, 164876, Control_c, 0, 64, 37
1, 164876, Control_c, 0, 67, 91
1, 164891, Control_c, 0, 64, 38
1, 164891, Control_c, 0, 67, 89
1, 164905, Control_c, 0, 64, 43
1, 164905, Control_c, 0, 67, 87
1, 164920, Control_c, 0, 64, 51
1, 164920, Control_c, 0, 67, 86
1, 164935, Control_c, 0, 64, 60
1, 164935, Control_c, 0, 67, 84
1, 164950, Control_c, 0, 64, 64
1, 164950, Control_c, 0, 67, 82
1, 164964, Control_c, 0, 64, 67
1, 164964, Control_c, 0, 67, 81
1, 164979, Control_c, 0, 64, 69
1, 164979, Control_c, 0, 67, 79
1, 164994, Control_c, 0, 64, 72
1, 164994, Control_c, 0, 67, 77
1, 165009, Control_c, 0, 64, 76
1, 165009, Control_c, 0, 67, 74
1, 165024, Control_c, 0, 64, 79
1, 165024, Control_c, 0, 67, 71
1, 165038, Control_c, 0, 64, 83
1, 165038, Control_c, 0, 67, 68
1, 165053, Control_c, 0, 64, 86
1, 165053, Control_c, 0, 67, 66
1, 165068, Control_c, 0, 64, 89
1, 165068, Control_c, 0, 67, 63
1, 165084, Control_c, 0, 64, 92
1, 165084, Control_c, 0, 67, 60
1, 165087, Note_off_c, 0, 61, 42
1, 165099, Control_c, 0, 64, 95
1, 165099, Control_c, 0, 67, 58
1, 165114, Control_c, 0, 64, 98
1, 165114, Control_c, 0, 67, 57
1, 165122, Note_off_c, 0, 65, 34
1, 165129, Control_c, 0, 64, 101
1, 165129, Control_c, 0, 67, 56
1, 165143, Control_c, 0, 64, 102
1, 165143, Control_c, 0, 67, 55
1, 165166, Control_c, 0, 64, 102
1, 165166, Control_c, 0, 67, 54
1, 165180, Note_off_c, 0, 56, 40
1, 165181, Control_c, 0, 64, 103
1, 165195, Control_c, 0, 64, 104
1, 165210, Control_c, 0, 64, 105
1, 165211, Note_off_c, 0, 68, 43
1, 165329, Control_c, 0, 67, 55
1, 165373, Control_c, 0, 67, 55
1, 165402, Control_c, 0, 67, 56
1, 165476, Control_c, 0, 67, 56
1, 165595, Control_c, 0, 67, 57
1, 165640, Control_c, 0, 64, 104
1, 165654, Control_c, 0, 64, 102
1, 165669, Control_c, 0, 64, 100
1, 165684, Control_c, 0, 64, 98
1, 165688, Note_on_c, 0, 78, 66
1, 165699, Control_c, 0, 64, 96
1, 165701, Note_on_c, 0, 72, 56
1, 165704, Note_on_c, 0, 66, 50
1, 165705, Note_on_c, 0, 68, 49
1, 165713, Control_c, 0, 64, 93
1, 165728, Control_c, 0, 64, 90
1, 165729, Note_on_c, 0, 51, 39
1, 165729, Note_on_c, 0, 63, 42
1, 165741, Note_on_c, 0, 56, 40
1, 165743, Control_c, 0, 64, 87
1, 165758, Control_c, 0, 64, 84
1, 165771, Note_off_c, 0, 73, 33
1, 165773, Control_c, 0, 64, 80
1, 165787, Control_c, 0, 64, 75
1, 165802, Control_c, 0, 64, 71
1, 165817, Control_c, 0, 64, 67
1, 165823, Note_off_c, 0, 53, 38
1, 165832, Control_c, 0, 64, 63
1, 165847, Control_c, 0, 64, 59
1, 165847, Control_c, 0, 67, 56
1, 165861, Control_c, 0, 64, 54
1, 165877, Control_c, 0, 64, 48
1, 165892, Control_c, 0, 64, 40
1, 165914, Control_c, 0, 64, 30
1, 165929, Control_c, 0, 64, 21
1, 165944, Control_c, 0, 64, 20
1, 165944, Control_c, 0, 67, 56
1, 165959, Control_c, 0, 64, 26
1, 165974, Control_c, 0, 64, 37
1, 165989, Control_c, 0, 64, 49
1, 165989, Control_c, 0, 67, 55
1, 166004, Control_c, 0, 64, 57
1, 166018, Control_c, 0, 64, 62
1, 166033, Control_c, 0, 64, 64
1, 166048, Control_c, 0, 64, 66
1, 166048, Control_c, 0, 67, 55
1, 166063, Control_c, 0, 64, 68
1, 166078, Control_c, 0, 64, 71
1, 166078, Control_c, 0, 67, 54
1, 166092, Control_c, 0, 64, 75
1, 166107, Control_c, 0, 64, 78
1, 166108, Note_off_c, 0, 63, 44
1, 166122, Control_c, 0, 64, 81
1, 166136, Control_c, 0, 64, 84
1, 166151, Control_c, 0, 64, 87
1, 166166, Control_c, 0, 64, 90
1, 166181, Control_c, 0, 64, 93
1, 166196, Control_c, 0, 64, 97
1, 166196, Control_c, 0, 67, 54
1, 166210, Control_c, 0, 64, 101
1, 166210, Control_c, 0, 67, 53
1, 166221, Note_off_c, 0, 78, 61
1, 166225, Control_c, 0, 64, 104
1, 166239, Note_off_c, 0, 72, 40
1, 166240, Control_c, 0, 64, 106
1, 166255, Control_c, 0, 64, 107
1, 166255, Control_c, 0, 67, 53
1, 166270, Control_c, 0, 64, 109
1, 166273, Note_off_c, 0, 66, 51
1, 166284, Control_c, 0, 64, 111
1, 166299, Control_c, 0, 64, 112
1, 166299, Control_c, 0, 67, 52
1, 166314, Control_c, 0, 64, 113
1, 166314, Control_c, 0, 67, 47
1, 166328, Control_c, 0, 64, 114
1, 166328, Control_c, 0, 67, 43
1, 166343, Control_c, 0, 67, 41
1, 166358, Control_c, 0, 64, 115
1, 166358, Control_c, 0, 67, 40
1, 166360, Note_off_c, 0, 68, 45
1, 166373, Control_c, 0, 67, 39
1, 166478, Note_off_c, 0, 56, 37
1, 166551, Control_c, 0, 67, 40
1, 166610, Control_c, 0, 67, 40
1, 166625, Control_c, 0, 64, 114
1, 166662, Control_c, 0, 64, 113
1, 166677, Control_c, 0, 64, 110
1, 166689, Note_on_c, 0, 77, 64
1, 166693, Control_c, 0, 64, 107
1, 166707, Control_c, 0, 64, 103
1, 166710, Note_on_c, 0, 73, 50
1, 166719, Note_on_c, 0, 68, 50
1, 166722, Control_c, 0, 64, 99
1, 166725, Note_on_c, 0, 65, 43
1, 166737, Control_c, 0, 64, 95
1, 166748, Note_on_c, 0, 56, 36
1, 166752, Note_on_c, 0, 61, 40
1, 166752, Control_c, 0, 64, 89
1, 166754, Note_on_c, 0, 49, 41
1, 166767, Control_c, 0, 64, 83
1, 166782, Control_c, 0, 64, 78
1, 166796, Control_c, 0, 64, 73
1, 166811, Control_c, 0, 64, 68
1, 166826, Control_c, 0, 64, 62
1, 166841, Control_c, 0, 64, 51
1, 166856, Control_c, 0, 64, 41
1, 166870, Control_c, 0, 64, 35
1, 166883, Note_off_c, 0, 51, 34
1, 166885, Control_c, 0, 64, 36
1, 166900, Control_c, 0, 64, 42
1, 166900, Control_c, 0, 67, 41
1, 166914, Control_c, 0, 64, 51
1, 166929, Control_c, 0, 64, 59
1, 166929, Control_c, 0, 67, 41
1, 166944, Control_c, 0, 64, 65
1, 166944, Control_c, 0, 67, 42
1, 166958, Control_c, 0, 64, 68
1, 166958, Control_c, 0, 67, 43
1, 166973, Control_c, 0, 64, 72
1, 166973, Control_c, 0, 67, 44
1, 166988, Control_c, 0, 64, 77
1, 166988, Control_c, 0, 67, 45
1, 167003, Control_c, 0, 64, 81
1, 167003, Control_c, 0, 67, 46
1, 167017, Note_off_c, 0, 77, 58
1, 167018, Control_c, 0, 64, 85
1, 167018, Control_c, 0, 67, 47
1, 167032, Control_c, 0, 64, 88
1, 167032, Control_c, 0, 67, 48
1, 167038, Note_off_c, 0, 65, 51
1, 167038, Note_off_c, 0, 49, 55
1, 167047, Control_c, 0, 64, 91
1, 167047, Control_c, 0, 67, 50
1, 167062, Note_off_c, 0, 56, 41
1, 167062, Control_c, 0, 64, 94
1, 167062, Control_c, 0, 67, 51
1, 167077, Control_c, 0, 64, 97
1, 167077, Control_c, 0, 67, 52
1, 167092, Control_c, 0, 64, 99
1, 167092, Control_c, 0, 67, 53
1, 167107, Control_c, 0, 64, 101
1, 167107, Control_c, 0, 67, 54
1, 167121, Control_c, 0, 64, 101
1, 167121, Control_c, 0, 67, 56
1, 167136, Control_c, 0, 64, 102
1, 167136, Control_c, 0, 67, 60
1, 167145, Note_off_c, 0, 61, 42
1, 167151, Control_c, 0, 64, 102
1, 167151, Control_c, 0, 67, 66
1, 167166, Control_c, 0, 67, 72
1, 167181, Control_c, 0, 67, 77
1, 167193, Note_off_c, 0, 68, 40
1, 167196, Control_c, 0, 64, 103
1, 167196, Control_c, 0, 67, 82
1, 167211, Control_c, 0, 67, 86
1, 167225, Control_c, 0, 67, 88
1, 167240, Control_c, 0, 67, 89
1, 167285, Control_c, 0, 67, 89
1, 167388, Control_c, 0, 67, 90
1, 167470, Control_c, 0, 67, 90
1, 167560, Control_c, 0, 64, 102
1, 167575, Control_c, 0, 64, 102
1, 167575, Control_c, 0, 67, 90
1, 167589, Control_c, 0, 64, 101
1, 167604, Control_c, 0, 64, 99
1, 167606, Note_on_c, 0, 75, 58
1, 167619, Control_c, 0, 64, 97
1, 167633, Note_on_c, 0, 71, 43
1, 167634, Control_c, 0, 64, 95
1, 167649, Control_c, 0, 64, 92
1, 167658, Note_on_c, 0, 68, 39
1, 167663, Note_on_c, 0, 63, 16
1, 167663, Control_c, 0, 64, 88
1, 167664, Note_on_c, 0, 66, 53
1, 167678, Control_c, 0, 64, 84
1, 167679, Note_on_c, 0, 54, 47
1, 167680, Note_on_c, 0, 59, 52
1, 167688, Note_on_c, 0, 56, 47
1, 167693, Control_c, 0, 64, 80
1, 167697, Note_off_c, 0, 73, 33
1, 167708, Control_c, 0, 64, 76
1, 167723, Control_c, 0, 64, 72
1, 167737, Control_c, 0, 64, 69
1, 167752, Control_c, 0, 64, 65
1, 167767, Control_c, 0, 64, 60
1, 167781, Control_c, 0, 64, 53
1, 167796, Control_c, 0, 64, 44
1, 167811, Control_c, 0, 64, 35
1, 167811, Control_c, 0, 67, 90
1, 167826, Control_c, 0, 64, 31
1, 167841, Control_c, 0, 64, 32
1, 167855, Control_c, 0, 64, 38
1, 167870, Control_c, 0, 64, 48
1, 167885, Control_c, 0, 64, 56
1, 167900, Control_c, 0, 64, 62
1, 167900, Control_c, 0, 67, 91
1, 167915, Control_c, 0, 64, 65
1, 167915, Control_c, 0, 67, 91
1, 167929, Control_c, 0, 64, 67
1, 167929, Control_c, 0, 67, 94
1, 167944, Control_c, 0, 64, 71
1, 167944, Control_c, 0, 67, 95
1, 167959, Control_c, 0, 64, 75
1, 167974, Control_c, 0, 64, 79
1, 167974, Control_c, 0, 67, 96
1, 167989, Control_c, 0, 64, 83
1, 168004, Control_c, 0, 64, 86
1, 168019, Control_c, 0, 64, 90
1, 168034, Control_c, 0, 64, 93
1, 168034, Control_c, 0, 67, 96
1, 168048, Control_c, 0, 64, 97
1, 168048, Control_c, 0, 67, 97
1, 168063, Control_c, 0, 64, 101
1, 168078, Control_c, 0, 64, 104
1, 168078, Control_c, 0, 67, 98
1, 168093, Control_c, 0, 64, 107
1, 168093, Control_c, 0, 67, 99
1, 168107, Control_c, 0, 64, 110
1, 168107, Control_c, 0, 67, 99
1, 168122, Control_c, 0, 64, 115
1, 168137, Control_c, 0, 64, 124
1, 168137, Control_c, 0, 67, 100
1, 168141, Note_off_c, 0, 66, 41
1, 168159, Control_c, 0, 64, 127
1, 168159, Control_c, 0, 67, 100
1, 168174, Control_c, 0, 67, 101
1, 168189, Control_c, 0, 67, 102
1, 168199, Note_off_c, 0, 59, 34
1, 168203, Control_c, 0, 67, 103
1, 168218, Control_c, 0, 67, 103
1, 168233, Control_c, 0, 67, 104
1, 168248, Control_c, 0, 67, 106
1, 168263, Control_c, 0, 67, 108
1, 168278, Control_c, 0, 67, 109
1, 168293, Control_c, 0, 67, 110
1, 168308, Control_c, 0, 67, 111
1, 168323, Control_c, 0, 67, 112
1, 168338, Control_c, 0, 67, 113
1, 168353, Control_c, 0, 67, 114
1, 168354, Note_off_c, 0, 56, 29
1, 168367, Note_off_c, 0, 63, 44
1, 168368, Control_c, 0, 67, 115
1, 168383, Control_c, 0, 67, 115
1, 168398, Control_c, 0, 67, 116
1, 168409, Note_off_c, 0, 71, 37
1, 168416, Note_off_c, 0, 68, 42
1, 168427, Control_c, 0, 67, 116
1, 168442, Control_c, 0, 67, 117
1, 168457, Control_c, 0, 67, 118
1, 168472, Control_c, 0, 67, 119
1, 168502, Control_c, 0, 67, 119
1, 168531, Control_c, 0, 67, 121
1, 168576, Control_c, 0, 67, 121
1, 168679, Control_c, 0, 67, 122
1, 168709, Control_c, 0, 67, 123
1, 168738, Control_c, 0, 64, 118
1, 168753, Control_c, 0, 64, 112
1, 168768, Control_c, 0, 64, 108
1, 168768, Control_c, 0, 67, 123
1, 168783, Control_c, 0, 64, 104
1, 168792, Note_on_c, 0, 73, 47
1, 168798, Control_c, 0, 64, 101
1, 168798, Control_c, 0, 67, 124
1, 168812, Control_c, 0, 64, 97
1, 168815, Note_on_c, 0, 71, 44
1, 168820, Note_on_c, 0, 68, 41
1, 168827, Control_c, 0, 64, 94
1, 168827, Control_c, 0, 67, 124
1, 168829, Note_on_c, 0, 61, 21
1, 168838, Note_on_c, 0, 65, 31
1, 168842, Control_c, 0, 64, 91
1, 168857, Control_c, 0, 64, 86
1, 168857, Control_c, 0, 67, 125
1, 168861, Note_on_c, 0, 53, 29
1, 168866, Note_on_c, 0, 59, 34
1, 168870, Note_on_c, 0, 56, 40
1, 168872, Control_c, 0, 64, 81
1, 168872, Control_c, 0, 67, 126
1, 168886, Control_c, 0, 64, 77
1, 168886, Control_c, 0, 67, 126
1, 168909, Control_c, 0, 64, 74
1, 168923, Note_off_c, 0, 75, 35
1, 168924, Control_c, 0, 64, 70
1, 168924, Control_c, 0, 67, 127
1, 168938, Control_c, 0, 64, 67
1, 168953, Control_c, 0, 64, 62
1, 168967, Note_off_c, 0, 54, 43
1, 168968, Control_c, 0, 64, 56
1, 168983, Control_c, 0, 64, 48
1, 168998, Control_c, 0, 64, 39
1, 169012, Control_c, 0, 64, 30
1, 169027, Control_c, 0, 64, 26
1, 169057, Control_c, 0, 64, 31
1, 169072, Control_c, 0, 64, 43
1, 169088, Control_c, 0, 64, 54
1, 169102, Control_c, 0, 64, 61
1, 169117, Control_c, 0, 64, 65
1, 169132, Control_c, 0, 64, 68
1, 169146, Note_off_c, 0, 65, 41
1, 169147, Control_c, 0, 64, 70
1, 169161, Control_c, 0, 64, 74
1, 169161, Control_c, 0, 67, 127
1, 169176, Control_c, 0, 64, 77
1, 169191, Control_c, 0, 64, 81
1, 169191, Control_c, 0, 67, 126
1, 169196, Note_off_c, 0, 59, 41
1, 169206, Control_c, 0, 64, 85
1, 169221, Control_c, 0, 64, 89
1, 169221, Control_c, 0, 67, 126
1, 169235, Control_c, 0, 64, 93
1, 169250, Control_c, 0, 64, 97
1, 169259, Note_off_c, 0, 53, 34
1, 169265, Control_c, 0, 64, 101
1, 169280, Control_c, 0, 64, 105
1, 169295, Control_c, 0, 64, 109
1, 169309, Control_c, 0, 64, 114
1, 169318, Note_off_c, 0, 56, 34
1, 169324, Control_c, 0, 64, 118
1, 169339, Note_off_c, 0, 71, 40
1, 169339, Control_c, 0, 64, 124
1, 169354, Note_off_c, 0, 61, 34
1, 169354, Control_c, 0, 64, 127
1, 169362, Note_off_c, 0, 68, 44
1, 169635, Control_c, 0, 67, 126
1, 169717, Control_c, 0, 64, 124
1, 169732, Control_c, 0, 64, 118
1, 169747, Control_c, 0, 64, 115
1, 169761, Control_c, 0, 64, 113
1, 169776, Control_c, 0, 64, 109
1, 169791, Control_c, 0, 64, 106
1, 169806, Control_c, 0, 64, 103
1, 169821, Control_c, 0, 64, 100
1, 169835, Control_c, 0, 64, 96
1, 169840, Note_on_c, 0, 71, 44
1, 169850, Control_c, 0, 64, 93
1, 169861, Note_on_c, 0, 66, 33
1, 169865, Control_c, 0, 64, 88
1, 169881, Control_c, 0, 64, 84
1, 169884, Note_on_c, 0, 61, 19
1, 169885, Note_on_c, 0, 54, 27
1, 169895, Note_on_c, 0, 51, 35
1, 169895, Note_on_c, 0, 63, 33
1, 169896, Control_c, 0, 64, 80
1, 169911, Control_c, 0, 64, 76
1, 169925, Control_c, 0, 64, 73
1, 169940, Control_c, 0, 64, 69
1, 169955, Control_c, 0, 64, 65
1, 169970, Control_c, 0, 64, 61
1, 169984, Control_c, 0, 64, 54
1, 169999, Control_c, 0, 64, 48
1, 170014, Control_c, 0, 64, 42
1, 170029, Control_c, 0, 64, 39
1, 170058, Control_c, 0, 64, 43
1, 170073, Control_c, 0, 64, 49
1, 170088, Control_c, 0, 64, 56
1, 170103, Control_c, 0, 64, 61
1, 170103, Control_c, 0, 67, 126
1, 170118, Control_c, 0, 64, 64
1, 170132, Control_c, 0, 64, 66
1, 170147, Control_c, 0, 64, 68
1, 170162, Control_c, 0, 64, 72
1, 170162, Control_c, 0, 67, 125
1, 170177, Control_c, 0, 64, 75
1, 170192, Control_c, 0, 64, 78
1, 170207, Control_c, 0, 64, 81
1, 170207, Control_c, 0, 67, 125
1, 170222, Control_c, 0, 64, 83
1, 170228, Note_off_c, 0, 63, 40
1, 170236, Control_c, 0, 64, 86
1, 170251, Control_c, 0, 64, 89
1, 170266, Control_c, 0, 64, 92
1, 170281, Control_c, 0, 64, 96
1, 170295, Control_c, 0, 64, 98
1, 170306, Note_off_c, 0, 54, 39
1, 170310, Control_c, 0, 64, 100
1, 170312, Note_off_c, 0, 61, 37
1, 170324, Note_off_c, 0, 66, 41
1, 170325, Control_c, 0, 64, 102
1, 170325, Control_c, 0, 67, 124
1, 170340, Control_c, 0, 64, 104
1, 170355, Control_c, 0, 64, 105
1, 170369, Control_c, 0, 64, 106
1, 170406, Control_c, 0, 64, 107
1, 170421, Control_c, 0, 64, 108
1, 170436, Control_c, 0, 64, 109
1, 170570, Control_c, 0, 67, 125
1, 170674, Control_c, 0, 67, 125
1, 170749, Control_c, 0, 67, 126
1, 170778, Control_c, 0, 64, 108
1, 170793, Control_c, 0, 64, 108
1, 170807, Control_c, 0, 64, 106
1, 170822, Control_c, 0, 64, 106
1, 170837, Control_c, 0, 64, 105
1, 170852, Control_c, 0, 64, 104
1, 170867, Control_c, 0, 64, 102
1, 170881, Control_c, 0, 64, 100
1, 170896, Control_c, 0, 64, 99
1, 170911, Control_c, 0, 64, 97
1, 170926, Control_c, 0, 64, 95
1, 170928, Note_on_c, 0, 70, 39
1, 170941, Control_c, 0, 64, 93
1, 170945, Note_on_c, 0, 54, 33
1, 170945, Note_on_c, 0, 61, 31
1, 170956, Control_c, 0, 64, 90
1, 170961, Note_on_c, 0, 66, 32
1, 170962, Note_on_c, 0, 49, 31
1, 170971, Control_c, 0, 64, 87
1, 170986, Control_c, 0, 64, 84
1, 171000, Control_c, 0, 64, 80
1, 171015, Control_c, 0, 64, 77
1, 171030, Control_c, 0, 64, 74
1, 171045, Control_c, 0, 64, 71
1, 171060, Control_c, 0, 64, 68
1, 171074, Control_c, 0, 64, 66
1, 171089, Control_c, 0, 64, 63
1, 171095, Note_off_c, 0, 51, 38
1, 171095, Note_off_c, 0, 71, 42
1, 171104, Control_c, 0, 64, 59
1, 171119, Control_c, 0, 64, 55
1, 171134, Control_c, 0, 64, 50
1, 171156, Control_c, 0, 64, 43
1, 171171, Control_c, 0, 64, 36
1, 171171, Control_c, 0, 67, 126
1, 171186, Control_c, 0, 64, 34
1, 171215, Control_c, 0, 64, 37
1, 171230, Control_c, 0, 64, 44
1, 171245, Control_c, 0, 64, 52
1, 171260, Control_c, 0, 64, 58
1, 171274, Control_c, 0, 64, 61
1, 171289, Control_c, 0, 64, 63
1, 171304, Control_c, 0, 64, 65
1, 171319, Control_c, 0, 64, 67
1, 171333, Control_c, 0, 64, 70
1, 171348, Control_c, 0, 64, 73
1, 171363, Control_c, 0, 64, 76
1, 171378, Control_c, 0, 64, 78
1, 171393, Control_c, 0, 64, 81
1, 171408, Control_c, 0, 64, 83
1, 171423, Control_c, 0, 64, 85
1, 171438, Control_c, 0, 64, 88
1, 171453, Control_c, 0, 64, 91
1, 171468, Control_c, 0, 64, 94
1, 171483, Control_c, 0, 64, 98
1, 171497, Control_c, 0, 64, 101
1, 171512, Control_c, 0, 64, 104
1, 171527, Control_c, 0, 64, 107
1, 171542, Control_c, 0, 64, 109
1, 171542, Control_c, 0, 67, 126
1, 171557, Control_c, 0, 64, 112
1, 171572, Control_c, 0, 64, 118
1, 171587, Control_c, 0, 64, 127
1, 171641, Note_off_c, 0, 49, 31
1, 171649, Note_off_c, 0, 73, 40
1, 171691, Note_off_c, 0, 54, 34
1, 171795, Note_off_c, 0, 61, 30
1, 171831, Note_off_c, 0, 66, 35
1, 171868, Control_c, 0, 67, 125
1, 172424, Control_c, 0, 64, 122
1, 172439, Control_c, 0, 64, 120
1, 172454, Control_c, 0, 64, 119
1, 172469, Control_c, 0, 64, 118
1, 172484, Control_c, 0, 64, 117
1, 172499, Control_c, 0, 64, 116
1, 172528, Control_c, 0, 64, 115
1, 172543, Control_c, 0, 64, 115
1, 172558, Control_c, 0, 64, 114
1, 172572, Control_c, 0, 64, 113
1, 172587, Control_c, 0, 64, 113
1, 172602, Control_c, 0, 64, 112
1, 172617, Control_c, 0, 64, 111
1, 172632, Control_c, 0, 64, 110
1, 172654, Control_c, 0, 64, 109
1, 172669, Control_c, 0, 64, 108
1, 172684, Control_c, 0, 64, 107
1, 172699, Control_c, 0, 64, 106
1, 172714, Control_c, 0, 64, 105
1, 172728, Control_c, 0, 64, 103
1, 172743, Control_c, 0, 64, 100
1, 172758, Control_c, 0, 64, 98
1, 172758, Control_c, 0, 67, 125
1, 172772, Control_c, 0, 64, 94
1, 172773, Note_on_c, 0, 73, 41
1, 172785, Note_on_c, 0, 65, 38
1, 172785, Note_on_c, 0, 68, 37
1, 172787, Note_on_c, 0, 61, 35
1, 172787, Control_c, 0, 64, 92
1, 172802, Control_c, 0, 64, 90
1, 172807, Note_on_c, 0, 53, 31
1, 172808, Note_on_c, 0, 59, 21
1, 172809, Note_on_c, 0, 49, 28
1, 172817, Control_c, 0, 64, 88
1, 172819, Note_on_c, 0, 56, 25
1, 172832, Control_c, 0, 64, 86
1, 172846, Control_c, 0, 64, 84
1, 172861, Control_c, 0, 64, 81
1, 172876, Control_c, 0, 64, 78
1, 172891, Control_c, 0, 64, 74
1, 172905, Control_c, 0, 64, 71
1, 172920, Control_c, 0, 64, 67
1, 172935, Control_c, 0, 64, 62
1, 172950, Control_c, 0, 64, 57
1, 172965, Control_c, 0, 64, 51
1, 172979, Control_c, 0, 64, 41
1, 172979, Control_c, 0, 67, 125
1, 172988, Note_off_c, 0, 70, 37
1, 172994, Control_c, 0, 64, 25
1, 173009, Control_c, 0, 64, 0
1, 173099, Control_c, 0, 67, 125
1, 173129, Control_c, 0, 64, 27
1, 173129, Control_c, 0, 67, 124
1, 173143, Control_c, 0, 64, 41
1, 173143, Control_c, 0, 67, 124
1, 173158, Control_c, 0, 64, 51
1, 173158, Control_c, 0, 67, 123
1, 173173, Control_c, 0, 64, 57
1, 173188, Control_c, 0, 64, 59
1, 173188, Control_c, 0, 67, 123
1, 173202, Control_c, 0, 64, 61
1, 173217, Control_c, 0, 64, 62
1, 173217, Control_c, 0, 67, 122
1, 173232, Control_c, 0, 64, 64
1, 173247, Control_c, 0, 64, 66
1, 173247, Control_c, 0, 67, 121
1, 173262, Control_c, 0, 64, 68
1, 173262, Control_c, 0, 67, 121
1, 173277, Control_c, 0, 64, 71
1, 173277, Control_c, 0, 67, 120
1, 173292, Control_c, 0, 64, 74
1, 173307, Control_c, 0, 64, 77
1, 173307, Control_c, 0, 67, 120
1, 173322, Control_c, 0, 64, 79
1, 173322, Control_c, 0, 67, 119
1, 173337, Control_c, 0, 64, 82
1, 173337, Control_c, 0, 67, 119
1, 173351, Control_c, 0, 64, 84
1, 173351, Control_c, 0, 67, 118
1, 173366, Control_c, 0, 64, 87
1, 173381, Control_c, 0, 64, 91
1, 173381, Control_c, 0, 67, 118
1, 173402, Control_c, 0, 64, 95
1, 173402, Control_c, 0, 67, 117
1, 173417, Control_c, 0, 64, 99
1, 173417, Control_c, 0, 67, 117
1, 173432, Control_c, 0, 64, 104
1, 173432, Control_c, 0, 67, 116
1, 173447, Control_c, 0, 64, 110
1, 173462, Control_c, 0, 64, 124
1, 173462, Control_c, 0, 67, 116
1, 173477, Control_c, 0, 64, 127
1, 173477, Control_c, 0, 67, 115
1, 173492, Control_c, 0, 67, 115
1, 173507, Control_c, 0, 67, 114
1, 173536, Control_c, 0, 67, 114
1, 173538, Note_off_c, 0, 59, 29
1, 173566, Control_c, 0, 67, 113
1, 173581, Control_c, 0, 67, 113
1, 173593, Note_off_c, 0, 53, 26
1, 173610, Control_c, 0, 67, 112
1, 173625, Control_c, 0, 67, 112
1, 173640, Control_c, 0, 67, 111
1, 173655, Control_c, 0, 67, 111
1, 173656, Note_off_c, 0, 49, 36
1, 173670, Control_c, 0, 67, 110
1, 173671, Note_off_c, 0, 56, 28
1, 173699, Control_c, 0, 67, 110
1, 173743, Control_c, 0, 67, 109
1, 173773, Control_c, 0, 67, 109
1, 173788, Control_c, 0, 67, 108
1, 173802, Control_c, 0, 67, 107
1, 173806, Note_off_c, 0, 61, 27
1, 173817, Control_c, 0, 67, 107
1, 173819, Note_off_c, 0, 65, 31
1, 173819, Note_off_c, 0, 73, 35
1, 173832, Control_c, 0, 67, 106
1, 173847, Control_c, 0, 67, 105
1, 173858, Note_off_c, 0, 68, 33
1, 173862, Control_c, 0, 67, 105
1, 173878, Control_c, 0, 67, 104
1, 173892, Control_c, 0, 67, 103
1, 173907, Control_c, 0, 67, 102
1, 173922, Control_c, 0, 67, 101
1, 173937, Control_c, 0, 67, 100
1, 173951, Control_c, 0, 67, 99
1, 173966, Control_c, 0, 67, 98
1, 173981, Control_c, 0, 67, 97
1, 173996, Control_c, 0, 67, 96
1, 174011, Control_c, 0, 67, 95
1, 174025, Control_c, 0, 67, 94
1, 174040, Control_c, 0, 67, 93
1, 174055, Control_c, 0, 67, 92
1, 174070, Control_c, 0, 67, 92
1, 174085, Control_c, 0, 67, 91
1, 174100, Control_c, 0, 67, 91
1, 174130, Control_c, 0, 67, 88
1, 174151, Control_c, 0, 67, 87
1, 174166, Control_c, 0, 67, 85
1, 174181, Control_c, 0, 67, 84
1, 174196, Control_c, 0, 67, 82
1, 174211, Control_c, 0, 67, 80
1, 174225, Control_c, 0, 67, 78
1, 174240, Control_c, 0, 64, 120
1, 174240, Control_c, 0, 67, 76
1, 174255, Control_c, 0, 64, 117
1, 174255, Control_c, 0, 67, 74
1, 174270, Control_c, 0, 64, 115
1, 174270, Control_c, 0, 67, 73
1, 174285, Control_c, 0, 64, 111
1, 174285, Control_c, 0, 67, 72
1, 174299, Control_c, 0, 64, 109
1, 174299, Control_c, 0, 67, 69
1, 174314, Control_c, 0, 64, 108
1, 174314, Control_c, 0, 67, 65
1, 174329, Control_c, 0, 64, 107
1, 174329, Control_c, 0, 67, 60
1, 174344, Control_c, 0, 64, 106
1, 174344, Control_c, 0, 67, 55
1, 174359, Control_c, 0, 64, 104
1, 174359, Control_c, 0, 67, 49
1, 174374, Control_c, 0, 64, 102
1, 174374, Control_c, 0, 67, 44
1, 174389, Control_c, 0, 64, 100
1, 174389, Control_c, 0, 67, 38
1, 174404, Control_c, 0, 64, 99
1, 174404, Control_c, 0, 67, 33
1, 174419, Control_c, 0, 64, 98
1, 174419, Control_c, 0, 67, 28
1, 174433, Control_c, 0, 64, 97
1, 174433, Control_c, 0, 67, 22
1, 174448, Control_c, 0, 64, 96
1, 174448, Control_c, 0, 67, 13
1, 174463, Control_c, 0, 64, 94
1, 174463, Control_c, 0, 67, 0
1, 174478, Control_c, 0, 64, 93
1, 174493, Control_c, 0, 64, 92
1, 174507, Control_c, 0, 64, 91
1, 174522, Control_c, 0, 64, 90
1, 174537, Control_c, 0, 64, 88
1, 174551, Control_c, 0, 64, 87
1, 174566, Control_c, 0, 64, 85
1, 174581, Control_c, 0, 64, 84
1, 174596, Control_c, 0, 64, 82
1, 174611, Control_c, 0, 64, 80
1, 174625, Control_c, 0, 64, 79
1, 174640, Control_c, 0, 64, 77
1, 174655, Control_c, 0, 64, 75
1, 174671, Control_c, 0, 64, 73
1, 174686, Control_c, 0, 64, 71
1, 174701, Control_c, 0, 64, 69
1, 174715, Control_c, 0, 64, 66
1, 174730, Control_c, 0, 64, 65
1, 174745, Control_c, 0, 64, 63
1, 174760, Control_c, 0, 64, 61
1, 174774, Control_c, 0, 64, 59
1, 174789, Control_c, 0, 64, 56
1, 174804, Control_c, 0, 64, 54
1, 174819, Control_c, 0, 64, 51
1, 174834, Control_c, 0, 64, 47
1, 174848, Control_c, 0, 64, 42
1, 174863, Control_c, 0, 64, 35
1, 174878, Control_c, 0, 64, 22
1, 174901, Control_c, 0, 64, 0
1, 174958, Note_on_c, 0, 61, 68
1, 175063, Control_c, 0, 64, 29
1, 175078, Control_c, 0, 64, 49
1, 175093, Control_c, 0, 64, 60
1, 175107, Control_c, 0, 64, 63
1, 175122, Control_c, 0, 64, 65
1, 175137, Control_c, 0, 64, 67
1, 175152, Control_c, 0, 64, 72
1, 175166, Control_c, 0, 64, 79
1, 175181, Control_c, 0, 64, 87
1, 175196, Control_c, 0, 64, 95
1, 175211, Control_c, 0, 64, 106
1, 175226, Control_c, 0, 64, 127
1, 175447, Note_on_c, 0, 42, 35
1, 175711, Note_on_c, 0, 49, 44
1, 175717, Note_off_c, 0, 42, 41
1, 175812, Note_on_c, 0, 66, 76
1, 175906, Note_off_c, 0, 61, 56
1, 175983, Note_off_c, 0, 49, 36
1, 175990, Note_off_c, 0, 66, 65
1, 176008, Note_on_c, 0, 57, 52
1, 176046, Note_off_c, 0, 57, 63
1, 176293, Note_on_c, 0, 73, 74
1, 176374, Note_on_c, 0, 64, 72
1, 176375, Control_c, 0, 64, 109
1, 176398, Control_c, 0, 64, 92
1, 176413, Control_c, 0, 64, 80
1, 176427, Control_c, 0, 64, 69
1, 176442, Control_c, 0, 64, 60
1, 176457, Control_c, 0, 64, 52
1, 176472, Control_c, 0, 64, 51
1, 176487, Control_c, 0, 64, 55
1, 176501, Control_c, 0, 64, 61
1, 176516, Control_c, 0, 64, 65
1, 176531, Control_c, 0, 64, 70
1, 176545, Control_c, 0, 64, 76
1, 176560, Control_c, 0, 64, 86
1, 176575, Control_c, 0, 64, 94
1, 176590, Control_c, 0, 64, 101
1, 176605, Control_c, 0, 64, 109
1, 176619, Control_c, 0, 64, 127
1, 176659, Note_on_c, 0, 57, 49
1, 176824, Note_off_c, 0, 64, 25
1, 176864, Note_on_c, 0, 54, 54
1, 176923, Note_off_c, 0, 57, 33
1, 177039, Note_on_c, 0, 78, 75
1, 177110, Note_on_c, 0, 62, 72
1, 177124, Control_c, 0, 64, 113
1, 177146, Control_c, 0, 64, 90
1, 177161, Control_c, 0, 64, 74
1, 177176, Control_c, 0, 64, 63
1, 177191, Control_c, 0, 64, 57
1, 177206, Control_c, 0, 64, 60
1, 177215, Note_off_c, 0, 73, 35
1, 177221, Control_c, 0, 64, 63
1, 177236, Control_c, 0, 64, 67
1, 177250, Control_c, 0, 64, 72
1, 177265, Control_c, 0, 64, 80
1, 177280, Control_c, 0, 64, 88
1, 177295, Control_c, 0, 64, 94
1, 177310, Control_c, 0, 64, 101
1, 177324, Control_c, 0, 64, 107
1, 177339, Control_c, 0, 64, 116
1, 177353, Control_c, 0, 64, 127
1, 177364, Note_on_c, 0, 57, 53
1, 177389, Note_off_c, 0, 54, 33
1, 177435, Note_off_c, 0, 62, 50
1, 177547, Note_on_c, 0, 54, 42
1, 177556, Note_off_c, 0, 57, 49
1, 177753, Note_on_c, 0, 61, 61
1, 177797, Control_c, 0, 64, 112
1, 177812, Control_c, 0, 64, 103
1, 177819, Note_on_c, 0, 76, 74
1, 177827, Control_c, 0, 64, 94
1, 177841, Control_c, 0, 64, 84
1, 177857, Control_c, 0, 64, 73
1, 177872, Control_c, 0, 64, 63
1, 177894, Control_c, 0, 64, 51
1, 177909, Control_c, 0, 64, 44
1, 177924, Control_c, 0, 64, 49
1, 177928, Note_off_c, 0, 78, 54
1, 177939, Control_c, 0, 64, 57
1, 177954, Control_c, 0, 64, 63
1, 177969, Control_c, 0, 64, 69
1, 177984, Control_c, 0, 64, 76
1, 177998, Control_c, 0, 64, 85
1, 178013, Control_c, 0, 64, 94
1, 178028, Control_c, 0, 64, 101
1, 178043, Control_c, 0, 64, 109
1, 178047, Note_on_c, 0, 57, 49
1, 178058, Control_c, 0, 64, 127
1, 178068, Note_off_c, 0, 54, 39
1, 178096, Note_off_c, 0, 61, 53
1, 178207, Note_off_c, 0, 57, 47
1, 178235, Note_on_c, 0, 54, 42
1, 178270, Note_off_c, 0, 76, 40
1, 178401, Note_off_c, 0, 54, 35
1, 178408, Note_on_c, 0, 59, 56
1, 178458, Control_c, 0, 64, 105
1, 178472, Control_c, 0, 64, 85
1, 178476, Note_on_c, 0, 74, 68
1, 178487, Control_c, 0, 64, 70
1, 178502, Control_c, 0, 64, 57
1, 178516, Control_c, 0, 64, 54
1, 178531, Control_c, 0, 64, 59
1, 178546, Control_c, 0, 64, 64
1, 178561, Control_c, 0, 64, 70
1, 178576, Control_c, 0, 64, 78
1, 178590, Control_c, 0, 64, 89
1, 178605, Control_c, 0, 64, 103
1, 178612, Note_off_c, 0, 59, 0
1, 178620, Control_c, 0, 64, 119
1, 178643, Control_c, 0, 64, 127
1, 178674, Poly_aftertouch_c, 0, 59, 0
1, 178678, Note_on_c, 0, 54, 49
1, 178711, Note_off_c, 0, 54, 65
1, 178798, Note_on_c, 0, 62, 74
1, 178896, Note_on_c, 0, 47, 60
1, 179075, Note_off_c, 0, 47, 46
1, 179078, Note_on_c, 0, 35, 53
1, 179087, Note_on_c, 0, 69, 77
1, 179122, Note_off_c, 0, 62, 61
1, 179185, Note_off_c, 0, 35, 60
1, 179271, Note_on_c, 0, 47, 43
1, 179302, Note_off_c, 0, 47, 62
1, 179364, Note_off_c, 0, 69, 64
1, 179366, Note_on_c, 0, 68, 75
1, 179413, Note_off_c, 0, 74, 62
1, 179473, Note_on_c, 0, 50, 60
1, 179699, Note_on_c, 0, 74, 70
1, 179719, Control_c, 0, 64, 104
1, 179734, Control_c, 0, 64, 88
1, 179741, Note_off_c, 0, 68, 57
1, 179745, Note_on_c, 0, 59, 71
1, 179749, Control_c, 0, 64, 73
1, 179763, Control_c, 0, 64, 61
1, 179778, Control_c, 0, 64, 45
1, 179793, Control_c, 0, 64, 33
1, 179808, Control_c, 0, 64, 37
1, 179823, Control_c, 0, 64, 48
1, 179837, Control_c, 0, 64, 57
1, 179852, Control_c, 0, 64, 65
1, 179867, Control_c, 0, 64, 70
1, 179882, Control_c, 0, 64, 77
1, 179897, Control_c, 0, 64, 84
1, 179911, Control_c, 0, 64, 90
1, 179926, Control_c, 0, 64, 95
1, 179941, Control_c, 0, 64, 101
1, 179949, Note_off_c, 0, 50, 55
1, 179956, Control_c, 0, 64, 108
1, 179970, Control_c, 0, 64, 114
1, 179978, Note_on_c, 0, 54, 50
1, 179985, Control_c, 0, 64, 122
1, 180000, Control_c, 0, 64, 127
1, 180094, Note_off_c, 0, 59, 38
1, 180160, Note_on_c, 0, 49, 54
1, 180172, Note_off_c, 0, 54, 53
1, 180305, Control_c, 0, 64, 113
1, 180315, Note_on_c, 0, 73, 72
1, 180315, Note_off_c, 0, 74, 61
1, 180320, Control_c, 0, 64, 99
1, 180334, Control_c, 0, 64, 85
1, 180349, Control_c, 0, 64, 71
1, 180364, Control_c, 0, 64, 59
1, 180368, Note_on_c, 0, 57, 62
1, 180379, Control_c, 0, 64, 50
1, 180393, Control_c, 0, 64, 52
1, 180408, Control_c, 0, 64, 59
1, 180423, Control_c, 0, 64, 65
1, 180438, Control_c, 0, 64, 71
1, 180453, Control_c, 0, 64, 80
1, 180467, Control_c, 0, 64, 91
1, 180482, Control_c, 0, 64, 101
1, 180497, Control_c, 0, 64, 111
1, 180512, Control_c, 0, 64, 127
1, 180562, Note_off_c, 0, 57, 33
1, 180573, Note_on_c, 0, 54, 52
1, 180601, Note_off_c, 0, 54, 67
1, 180652, Note_on_c, 0, 61, 79
1, 180663, Note_off_c, 0, 49, 49
1, 180774, Note_on_c, 0, 45, 64
1, 180928, Note_off_c, 0, 45, 58
1, 180958, Note_on_c, 0, 68, 78
1, 180969, Note_on_c, 0, 33, 57
1, 181036, Note_off_c, 0, 33, 60
1, 181108, Note_on_c, 0, 45, 43
1, 181159, Note_off_c, 0, 61, 41
1, 181165, Note_off_c, 0, 45, 52
1, 181193, Note_off_c, 0, 73, 52
1, 181254, Note_on_c, 0, 66, 79
1, 181315, Note_off_c, 0, 68, 55
1, 181344, Note_on_c, 0, 49, 63
1, 181370, Note_off_c, 0, 49, 66
1, 181595, Note_on_c, 0, 73, 73
1, 181616, Control_c, 0, 64, 115
1, 181635, Note_on_c, 0, 57, 74
1, 181638, Control_c, 0, 64, 100
1, 181650, Note_on_c, 0, 47, 57
1, 181653, Control_c, 0, 64, 90
1, 181663, Note_on_c, 0, 50, 51
1, 181668, Control_c, 0, 64, 79
1, 181683, Control_c, 0, 64, 69
1, 181697, Note_off_c, 0, 66, 50
1, 181698, Control_c, 0, 64, 59
1, 181713, Control_c, 0, 64, 43
1, 181728, Control_c, 0, 64, 27
1, 181742, Control_c, 0, 64, 26
1, 181757, Control_c, 0, 64, 33
1, 181772, Control_c, 0, 64, 45
1, 181787, Control_c, 0, 64, 56
1, 181802, Control_c, 0, 64, 64
1, 181816, Control_c, 0, 64, 69
1, 181831, Control_c, 0, 64, 75
1, 181845, Control_c, 0, 64, 83
1, 181861, Control_c, 0, 64, 90
1, 181876, Control_c, 0, 64, 98
1, 181891, Control_c, 0, 64, 113
1, 181906, Control_c, 0, 64, 127
1, 181943, Note_on_c, 0, 56, 83
1, 181951, Note_off_c, 0, 47, 53
1, 181954, Note_off_c, 0, 57, 62
1, 182006, Note_off_c, 0, 73, 64
1, 182011, Note_off_c, 0, 50, 37
1, 182032, Note_off_c, 0, 56, 62
1, 182266, Note_on_c, 0, 71, 73
1, 182273, Note_on_c, 0, 64, 65
1, 182288, Note_on_c, 0, 44, 64
1, 182291, Control_c, 0, 64, 90
1, 182305, Control_c, 0, 64, 72
1, 182320, Control_c, 0, 64, 60
1, 182335, Control_c, 0, 64, 57
1, 182349, Control_c, 0, 64, 61
1, 182364, Control_c, 0, 64, 66
1, 182387, Control_c, 0, 64, 71
1, 182402, Note_off_c, 0, 44, 61
1, 182402, Control_c, 0, 64, 79
1, 182416, Control_c, 0, 64, 90
1, 182431, Control_c, 0, 64, 104
1, 182446, Control_c, 0, 64, 127
1, 182498, Note_on_c, 0, 59, 53
1, 182625, Note_off_c, 0, 64, 64
1, 182625, Note_on_c, 0, 62, 80
1, 182634, Note_off_c, 0, 59, 52
1, 182640, Note_off_c, 0, 71, 61
1, 182713, Note_on_c, 0, 54, 49
1, 182739, Note_off_c, 0, 54, 58
1, 182934, Note_off_c, 0, 62, 58
1, 182944, Note_on_c, 0, 59, 73
1, 182951, Control_c, 0, 64, 93
1, 182966, Control_c, 0, 64, 71
1, 182970, Note_on_c, 0, 37, 61
1, 182980, Control_c, 0, 64, 58
1, 182995, Control_c, 0, 64, 51
1, 183010, Control_c, 0, 64, 56
1, 183025, Control_c, 0, 64, 64
1, 183040, Control_c, 0, 64, 69
1, 183051, Note_off_c, 0, 37, 59
1, 183054, Control_c, 0, 64, 79
1, 183069, Control_c, 0, 64, 93
1, 183084, Control_c, 0, 64, 115
1, 183099, Control_c, 0, 64, 127
1, 183180, Note_on_c, 0, 53, 49
1, 183293, Note_off_c, 0, 59, 64
1, 183296, Note_on_c, 0, 56, 74
1, 183424, Note_off_c, 0, 56, 61
1, 183440, Note_off_c, 0, 53, 35
1, 183448, Note_on_c, 0, 49, 58
1, 183533, Note_off_c, 0, 49, 52
1, 183713, Note_on_c, 0, 42, 58
1, 183774, Control_c, 0, 64, 96
1, 183789, Control_c, 0, 64, 76
1, 183803, Control_c, 0, 64, 61
1, 183818, Control_c, 0, 64, 32
1, 183833, Control_c, 0, 64, 0
1, 183835, Note_on_c, 0, 73, 79
1, 183900, Control_c, 0, 64, 34
1, 183915, Control_c, 0, 64, 59
1, 183929, Control_c, 0, 64, 70
1, 183944, Control_c, 0, 64, 83
1, 183959, Control_c, 0, 64, 112
1, 183974, Control_c, 0, 64, 127
1, 184029, Note_on_c, 0, 49, 57
1, 184053, Note_off_c, 0, 42, 34
1, 184155, Note_on_c, 0, 85, 84
1, 184162, Note_off_c, 0, 49, 59
1, 184212, Note_off_c, 0, 73, 61
1, 184246, Note_on_c, 0, 57, 63
1, 184426, Note_off_c, 0, 57, 34
1, 184476, Note_on_c, 0, 83, 78
1, 184556, Note_on_c, 0, 61, 86
1, 184562, Note_off_c, 0, 85, 58
1, 184789, Note_on_c, 0, 57, 53
1, 184810, Note_off_c, 0, 61, 55
1, 184828, Note_off_c, 0, 83, 46
1, 184905, Note_on_c, 0, 81, 76
1, 184905, Note_on_c, 0, 73, 78
1, 184985, Note_off_c, 0, 57, 57
1, 185014, Note_on_c, 0, 54, 45
1, 185080, Note_off_c, 0, 73, 64
1, 185097, Note_off_c, 0, 54, 55
1, 185165, Note_on_c, 0, 57, 53
1, 185213, Note_on_c, 0, 80, 78
1, 185218, Note_on_c, 0, 71, 76
1, 185347, Note_off_c, 0, 57, 52
1, 185355, Note_off_c, 0, 71, 61
1, 185379, Note_on_c, 0, 54, 63
1, 185382, Note_off_c, 0, 81, 33
1, 185490, Note_on_c, 0, 78, 82
1, 185494, Note_on_c, 0, 69, 78
1, 185522, Note_off_c, 0, 80, 59
1, 185570, Note_off_c, 0, 69, 64
1, 185585, Note_off_c, 0, 54, 62
1, 185596, Note_on_c, 0, 49, 65
1, 185633, Note_off_c, 0, 49, 62
1, 185864, Note_on_c, 0, 38, 69
1, 185904, Note_on_c, 0, 76, 72
1, 185914, Note_off_c, 0, 78, 49
1, 185916, Note_on_c, 0, 68, 60
1, 185932, Control_c, 0, 64, 99
1, 185946, Control_c, 0, 64, 82
1, 185961, Control_c, 0, 64, 70
1, 185976, Control_c, 0, 64, 59
1, 185991, Control_c, 0, 64, 42
1, 186005, Control_c, 0, 64, 19
1, 186020, Control_c, 0, 64, 9
1, 186035, Control_c, 0, 64, 16
1, 186050, Control_c, 0, 64, 33
1, 186065, Control_c, 0, 64, 49
1, 186080, Control_c, 0, 64, 61
1, 186095, Control_c, 0, 64, 66
1, 186110, Control_c, 0, 64, 70
1, 186132, Control_c, 0, 64, 74
1, 186147, Control_c, 0, 64, 78
1, 186161, Control_c, 0, 64, 85
1, 186169, Note_on_c, 0, 45, 58
1, 186176, Control_c, 0, 64, 90
1, 186191, Control_c, 0, 64, 96
1, 186205, Control_c, 0, 64, 102
1, 186219, Note_off_c, 0, 68, 55
1, 186220, Control_c, 0, 64, 109
1, 186235, Control_c, 0, 64, 120
1, 186250, Control_c, 0, 64, 127
1, 186305, Note_off_c, 0, 45, 64
1, 186316, Note_off_c, 0, 38, 32
1, 186348, Note_on_c, 0, 50, 59
1, 186518, Note_off_c, 0, 50, 36
1, 186527, Note_on_c, 0, 69, 70
1, 186537, Note_on_c, 0, 66, 61
1, 186546, Note_on_c, 0, 54, 49
1, 186576, Control_c, 0, 64, 101
1, 186591, Control_c, 0, 64, 81
1, 186605, Control_c, 0, 64, 67
1, 186620, Control_c, 0, 64, 57
1, 186635, Control_c, 0, 64, 57
1, 186651, Control_c, 0, 64, 62
1, 186666, Control_c, 0, 64, 66
1, 186681, Control_c, 0, 64, 71
1, 186688, Note_off_c, 0, 76, 54
1, 186695, Control_c, 0, 64, 78
1, 186710, Control_c, 0, 64, 85
1, 186714, Note_on_c, 0, 57, 64
1, 186718, Note_off_c, 0, 54, 53
1, 186725, Control_c, 0, 64, 90
1, 186740, Control_c, 0, 64, 95
1, 186754, Control_c, 0, 64, 100
1, 186769, Control_c, 0, 64, 105
1, 186784, Control_c, 0, 64, 108
1, 186799, Control_c, 0, 64, 110
1, 186806, Note_on_c, 0, 73, 80
1, 186814, Control_c, 0, 64, 110
1, 186828, Control_c, 0, 64, 113
1, 186843, Control_c, 0, 64, 117
1, 186858, Note_off_c, 0, 69, 62
1, 186858, Control_c, 0, 64, 124
1, 186865, Note_off_c, 0, 66, 48
1, 186881, Control_c, 0, 64, 127
1, 186900, Note_on_c, 0, 50, 65
1, 186906, Note_off_c, 0, 57, 58
1, 187087, Control_c, 0, 64, 118
1, 187101, Note_on_c, 0, 54, 67
1, 187102, Control_c, 0, 64, 107
1, 187117, Control_c, 0, 64, 95
1, 187132, Control_c, 0, 64, 80
1, 187134, Note_on_c, 0, 76, 75
1, 187146, Control_c, 0, 64, 67
1, 187161, Control_c, 0, 64, 52
1, 187176, Control_c, 0, 64, 44
1, 187191, Control_c, 0, 64, 50
1, 187194, Note_off_c, 0, 50, 36
1, 187206, Control_c, 0, 64, 59
1, 187219, Note_off_c, 0, 73, 54
1, 187220, Control_c, 0, 64, 65
1, 187235, Control_c, 0, 64, 72
1, 187250, Control_c, 0, 64, 85
1, 187265, Control_c, 0, 64, 99
1, 187280, Control_c, 0, 64, 111
1, 187285, Note_on_c, 0, 58, 60
1, 187294, Control_c, 0, 64, 127
1, 187316, Note_off_c, 0, 54, 50
1, 187380, Note_off_c, 0, 58, 60
1, 187384, Note_on_c, 0, 74, 80
1, 187472, Note_off_c, 0, 76, 32
1, 187482, Note_on_c, 0, 50, 51
1, 187515, Note_off_c, 0, 50, 66
1, 187758, Note_on_c, 0, 35, 63
1, 187800, Note_off_c, 0, 74, 63
1, 187818, Note_on_c, 0, 73, 66
1, 187827, Note_on_c, 0, 64, 73
1, 187836, Control_c, 0, 64, 116
1, 187850, Control_c, 0, 64, 100
1, 187865, Control_c, 0, 64, 86
1, 187880, Control_c, 0, 64, 74
1, 187895, Control_c, 0, 64, 63
1, 187910, Control_c, 0, 64, 50
1, 187924, Control_c, 0, 64, 36
1, 187939, Control_c, 0, 64, 35
1, 187954, Control_c, 0, 64, 45
1, 187968, Control_c, 0, 64, 55
1, 187983, Control_c, 0, 64, 62
1, 187998, Control_c, 0, 64, 67
1, 188013, Control_c, 0, 64, 72
1, 188028, Control_c, 0, 64, 77
1, 188042, Control_c, 0, 64, 81
1, 188057, Control_c, 0, 64, 86
1, 188072, Control_c, 0, 64, 90
1, 188087, Control_c, 0, 64, 94
1, 188099, Note_on_c, 0, 42, 55
1, 188101, Control_c, 0, 64, 99
1, 188116, Control_c, 0, 64, 104
1, 188131, Control_c, 0, 64, 109
1, 188146, Control_c, 0, 64, 113
1, 188158, Note_off_c, 0, 64, 61
1, 188161, Control_c, 0, 64, 118
1, 188176, Control_c, 0, 64, 122
1, 188190, Control_c, 0, 64, 127
1, 188218, Note_off_c, 0, 35, 30
1, 188235, Note_off_c, 0, 42, 61
1, 188281, Note_on_c, 0, 47, 53
1, 188378, Note_off_c, 0, 47, 55
1, 188477, Note_on_c, 0, 50, 59
1, 188480, Control_c, 0, 64, 118
1, 188484, Note_on_c, 0, 66, 65
1, 188493, Note_on_c, 0, 62, 60
1, 188495, Control_c, 0, 64, 111
1, 188510, Control_c, 0, 64, 104
1, 188525, Control_c, 0, 64, 97
1, 188540, Control_c, 0, 64, 88
1, 188554, Control_c, 0, 64, 74
1, 188569, Control_c, 0, 64, 62
1, 188584, Control_c, 0, 64, 48
1, 188599, Control_c, 0, 64, 40
1, 188614, Control_c, 0, 64, 44
1, 188629, Control_c, 0, 64, 53
1, 188644, Control_c, 0, 64, 60
1, 188658, Control_c, 0, 64, 65
1, 188659, Note_on_c, 0, 54, 63
1, 188673, Control_c, 0, 64, 70
1, 188678, Note_off_c, 0, 50, 56
1, 188688, Control_c, 0, 64, 75
1, 188699, Note_off_c, 0, 73, 59
1, 188703, Control_c, 0, 64, 80
1, 188718, Control_c, 0, 64, 84
1, 188732, Control_c, 0, 64, 87
1, 188747, Control_c, 0, 64, 90
1, 188761, Note_on_c, 0, 70, 78
1, 188762, Control_c, 0, 64, 95
1, 188777, Control_c, 0, 64, 99
1, 188791, Control_c, 0, 64, 103
1, 188806, Control_c, 0, 64, 105
1, 188821, Control_c, 0, 64, 106
1, 188836, Control_c, 0, 64, 107
1, 188837, Note_on_c, 0, 47, 69
1, 188851, Control_c, 0, 64, 108
1, 188865, Control_c, 0, 64, 109
1, 188929, Note_off_c, 0, 54, 54
1, 189044, Control_c, 0, 64, 106
1, 189047, Note_on_c, 0, 50, 73
1, 189047, Note_on_c, 0, 73, 73
1, 189055, Note_off_c, 0, 62, 35
1, 189059, Control_c, 0, 64, 98
1, 189074, Control_c, 0, 64, 85
1, 189088, Control_c, 0, 64, 71
1, 189103, Control_c, 0, 64, 59
1, 189123, Note_off_c, 0, 70, 54
1, 189126, Control_c, 0, 64, 47
1, 189126, Note_off_c, 0, 66, 37
1, 189141, Control_c, 0, 64, 49
1, 189155, Control_c, 0, 64, 57
1, 189170, Control_c, 0, 64, 63
1, 189185, Control_c, 0, 64, 68
1, 189200, Control_c, 0, 64, 74
1, 189215, Control_c, 0, 64, 82
1, 189218, Note_off_c, 0, 47, 30
1, 189228, Note_on_c, 0, 55, 51
1, 189229, Control_c, 0, 64, 90
1, 189244, Control_c, 0, 64, 95
1, 189259, Control_c, 0, 64, 102
1, 189274, Control_c, 0, 64, 109
1, 189289, Control_c, 0, 64, 119
1, 189303, Control_c, 0, 64, 127
1, 189305, Note_off_c, 0, 50, 31
1, 189347, Note_on_c, 0, 71, 76
1, 189380, Note_off_c, 0, 55, 62
1, 189385, Note_off_c, 0, 73, 64
1, 189412, Note_on_c, 0, 47, 64
1, 189463, Note_off_c, 0, 47, 65
1, 189615, Control_c, 0, 64, 105
1, 189617, Note_off_c, 0, 71, 37
1, 189630, Control_c, 0, 64, 83
1, 189640, Note_on_c, 0, 37, 65
1, 189645, Control_c, 0, 64, 67
1, 189649, Note_on_c, 0, 69, 66
1, 189659, Note_on_c, 0, 61, 57
1, 189660, Control_c, 0, 64, 53
1, 189675, Control_c, 0, 64, 45
1, 189690, Control_c, 0, 64, 52
1, 189704, Control_c, 0, 64, 60
1, 189719, Control_c, 0, 64, 65
1, 189734, Control_c, 0, 64, 70
1, 189748, Control_c, 0, 64, 78
1, 189758, Note_off_c, 0, 37, 61
1, 189763, Control_c, 0, 64, 89
1, 189778, Control_c, 0, 64, 95
1, 189793, Control_c, 0, 64, 99
1, 189807, Note_on_c, 0, 49, 57
1, 189808, Control_c, 0, 64, 104
1, 189822, Control_c, 0, 64, 111
1, 189838, Control_c, 0, 64, 124
1, 189853, Control_c, 0, 64, 127
1, 189928, Note_on_c, 0, 66, 76
1, 189933, Note_off_c, 0, 69, 52
1, 189979, Note_off_c, 0, 61, 63
1, 189994, Note_on_c, 0, 45, 70
1, 190003, Note_off_c, 0, 49, 52
1, 190201, Control_c, 0, 64, 89
1, 190204, Note_on_c, 0, 62, 79
1, 190207, Note_on_c, 0, 54, 71
1, 190213, Note_on_c, 0, 57, 66
1, 190216, Control_c, 0, 64, 70
1, 190231, Control_c, 0, 64, 56
1, 190245, Control_c, 0, 64, 47
1, 190260, Control_c, 0, 64, 53
1, 190275, Control_c, 0, 64, 63
1, 190290, Control_c, 0, 64, 70
1, 190305, Control_c, 0, 64, 84
1, 190319, Control_c, 0, 64, 120
1, 190334, Control_c, 0, 64, 127
1, 190405, Note_off_c, 0, 54, 63
1, 190408, Note_on_c, 0, 49, 66
1, 190420, Note_off_c, 0, 45, 62
1, 190422, Note_off_c, 0, 66, 46
1, 190447, Note_off_c, 0, 49, 66
1, 190484, Note_on_c, 0, 60, 83
1, 190492, Note_off_c, 0, 57, 63
1, 190507, Note_off_c, 0, 62, 66
1, 190580, Note_on_c, 0, 37, 78
1, 190650, Note_off_c, 0, 37, 61
1, 190746, Note_on_c, 0, 53, 80
1, 190787, Control_c, 0, 64, 89
1, 190802, Control_c, 0, 64, 65
1, 190817, Control_c, 0, 64, 41
1, 190831, Note_on_c, 0, 61, 79
1, 190832, Control_c, 0, 64, 0
1, 190836, Note_on_c, 0, 56, 77
1, 190846, Control_c, 0, 64, 12
1, 190858, Note_off_c, 0, 60, 58
1, 190861, Control_c, 0, 64, 39
1, 190876, Control_c, 0, 64, 59
1, 190891, Control_c, 0, 64, 71
1, 190906, Control_c, 0, 64, 86
1, 190920, Control_c, 0, 64, 127
1, 191034, Note_on_c, 0, 47, 75
1, 191065, Note_off_c, 0, 53, 30
1, 191067, Note_off_c, 0, 61, 59
1, 191201, Note_on_c, 0, 53, 77
1, 191321, Note_off_c, 0, 47, 37
1, 191322, Note_on_c, 0, 37, 78
1, 191372, Note_off_c, 0, 37, 61
1, 191420, Note_off_c, 0, 53, 59
1, 191434, Note_off_c, 0, 56, 60
1, 191824, Note_on_c, 0, 56, 80
1, 191836, Note_on_c, 0, 47, 68
1, 191837, Note_on_c, 0, 42, 63
1, 191862, Control_c, 0, 64, 109
1, 191877, Control_c, 0, 64, 85
1, 191891, Control_c, 0, 64, 72
1, 191906, Control_c, 0, 64, 61
1, 191921, Control_c, 0, 64, 45
1, 191935, Control_c, 0, 64, 16
1, 191950, Control_c, 0, 64, 0
1, 192039, Control_c, 0, 64, 32
1, 192054, Control_c, 0, 64, 47
1, 192069, Control_c, 0, 64, 56
1, 192084, Control_c, 0, 64, 63
1, 192098, Control_c, 0, 64, 68
1, 192121, Control_c, 0, 64, 75
1, 192136, Control_c, 0, 64, 85
1, 192150, Control_c, 0, 64, 98
1, 192165, Control_c, 0, 64, 114
1, 192180, Control_c, 0, 64, 127
1, 192463, Note_off_c, 0, 56, 36
1, 192928, Control_c, 0, 64, 112
1, 192938, Note_on_c, 0, 54, 49
1, 192943, Control_c, 0, 64, 105
1, 192948, Note_on_c, 0, 45, 45
1, 192958, Control_c, 0, 64, 101
1, 192972, Control_c, 0, 64, 98
1, 192987, Control_c, 0, 64, 95
1, 193002, Control_c, 0, 64, 91
1, 193017, Control_c, 0, 64, 88
1, 193032, Control_c, 0, 64, 85
1, 193048, Control_c, 0, 64, 82
1, 193063, Control_c, 0, 64, 80
1, 193078, Control_c, 0, 64, 77
1, 193088, Note_off_c, 0, 47, 31
1, 193093, Control_c, 0, 64, 75
1, 193108, Control_c, 0, 64, 73
1, 193123, Control_c, 0, 64, 72
1, 193138, Control_c, 0, 64, 71
1, 193152, Control_c, 0, 64, 70
1, 193167, Control_c, 0, 64, 69
1, 193182, Control_c, 0, 64, 69
1, 193196, Control_c, 0, 64, 68
1, 193211, Control_c, 0, 64, 67
1, 193226, Control_c, 0, 64, 67
1, 193241, Control_c, 0, 64, 66
1, 193270, Control_c, 0, 64, 66
1, 193285, Control_c, 0, 64, 65
1, 193300, Control_c, 0, 64, 64
1, 193315, Control_c, 0, 64, 64
1, 193330, Control_c, 0, 64, 63
1, 193344, Control_c, 0, 64, 62
1, 193359, Control_c, 0, 64, 61
1, 193365, Note_on_c, 0, 57, 57
1, 193374, Control_c, 0, 64, 59
1, 193389, Control_c, 0, 64, 56
1, 193404, Control_c, 0, 64, 53
1, 193419, Control_c, 0, 64, 50
1, 193434, Control_c, 0, 64, 45
1, 193449, Control_c, 0, 64, 38
1, 193463, Control_c, 0, 64, 26
1, 193478, Control_c, 0, 64, 0
1, 193573, Note_on_c, 0, 61, 68
1, 193581, Control_c, 0, 64, 34
1, 193596, Control_c, 0, 64, 51
1, 193619, Control_c, 0, 64, 60
1, 193634, Control_c, 0, 64, 65
1, 193648, Control_c, 0, 64, 68
1, 193663, Control_c, 0, 64, 74
1, 193678, Control_c, 0, 64, 80
1, 193693, Control_c, 0, 64, 86
1, 193708, Control_c, 0, 64, 91
1, 193722, Control_c, 0, 64, 97
1, 193737, Control_c, 0, 64, 104
1, 193752, Control_c, 0, 64, 109
1, 193762, Note_off_c, 0, 57, 61
1, 193767, Control_c, 0, 64, 110
1, 193767, Control_c, 0, 67, 9
1, 193780, Note_on_c, 0, 66, 69
1, 193782, Control_c, 0, 67, 11
1, 193796, Control_c, 0, 67, 12
1, 193811, Control_c, 0, 67, 14
1, 193815, Note_off_c, 0, 61, 62
1, 193826, Control_c, 0, 67, 16
1, 193842, Control_c, 0, 67, 21
1, 193857, Control_c, 0, 67, 27
1, 193863, Note_off_c, 0, 54, 59
1, 193865, Note_off_c, 0, 66, 64
1, 193872, Control_c, 0, 67, 33
1, 193880, Note_off_c, 0, 45, 0
1, 193887, Control_c, 0, 67, 39
1, 193888, Note_off_c, 0, 42, 38
1, 193901, Control_c, 0, 64, 109
1, 193901, Control_c, 0, 67, 44
1, 193915, Poly_aftertouch_c, 0, 45, 0
1, 193916, Control_c, 0, 64, 108
1, 193916, Control_c, 0, 67, 46
1, 193931, Control_c, 0, 64, 105
1, 193931, Control_c, 0, 67, 46
1, 193945, Control_c, 0, 64, 102
1, 193945, Control_c, 0, 67, 46
1, 193955, Note_on_c, 0, 69, 63
1, 193960, Control_c, 0, 64, 100
1, 193975, Control_c, 0, 64, 98
1, 193975, Control_c, 0, 67, 45
1, 193990, Control_c, 0, 64, 95
1, 193990, Control_c, 0, 67, 45
1, 194005, Control_c, 0, 64, 92
1, 194005, Control_c, 0, 67, 44
1, 194019, Control_c, 0, 64, 91
1, 194019, Control_c, 0, 67, 43
1, 194034, Control_c, 0, 64, 89
1, 194034, Control_c, 0, 67, 43
1, 194049, Control_c, 0, 64, 88
1, 194049, Control_c, 0, 67, 42
1, 194064, Control_c, 0, 64, 86
1, 194064, Control_c, 0, 67, 41
1, 194079, Control_c, 0, 64, 84
1, 194079, Control_c, 0, 67, 41
1, 194093, Control_c, 0, 64, 80
1, 194108, Control_c, 0, 64, 74
1, 194108, Control_c, 0, 67, 40
1, 194123, Control_c, 0, 64, 69
1, 194134, Note_on_c, 0, 73, 74
1, 194137, Control_c, 0, 64, 62
1, 194137, Control_c, 0, 67, 40
1, 194152, Control_c, 0, 64, 51
1, 194152, Control_c, 0, 67, 39
1, 194167, Control_c, 0, 64, 31
1, 194167, Control_c, 0, 67, 39
1, 194182, Control_c, 0, 64, 0
1, 194182, Control_c, 0, 67, 38
1, 194192, Note_off_c, 0, 69, 61
1, 194197, Control_c, 0, 67, 37
1, 194212, Control_c, 0, 64, 17
1, 194212, Control_c, 0, 67, 37
1, 194227, Control_c, 0, 64, 41
1, 194227, Control_c, 0, 67, 36
1, 194242, Control_c, 0, 64, 58
1, 194242, Control_c, 0, 67, 35
1, 194257, Control_c, 0, 64, 68
1, 194257, Control_c, 0, 67, 35
1, 194271, Control_c, 0, 64, 73
1, 194286, Control_c, 0, 64, 78
1, 194286, Control_c, 0, 67, 34
1, 194301, Control_c, 0, 64, 80
1, 194301, Control_c, 0, 67, 33
1, 194316, Control_c, 0, 64, 81
1, 194316, Control_c, 0, 67, 33
1, 194331, Control_c, 0, 67, 32
1, 194345, Control_c, 0, 67, 30
1, 194367, Control_c, 0, 67, 26
1, 194382, Control_c, 0, 67, 21
1, 194397, Control_c, 0, 67, 16
1, 194412, Control_c, 0, 67, 10
1, 194426, Control_c, 0, 67, 0
1, 194441, Control_c, 0, 64, 80
1, 194456, Control_c, 0, 64, 79
1, 194471, Control_c, 0, 64, 78
1, 194486, Control_c, 0, 64, 77
1, 194501, Control_c, 0, 64, 75
1, 194513, Note_on_c, 0, 76, 82
1, 194516, Control_c, 0, 64, 74
1, 194531, Control_c, 0, 64, 71
1, 194540, Note_on_c, 0, 64, 53
1, 194540, Note_on_c, 0, 69, 56
1, 194545, Control_c, 0, 64, 69
1, 194560, Control_c, 0, 64, 66
1, 194575, Control_c, 0, 64, 64
1, 194590, Control_c, 0, 64, 61
1, 194605, Note_on_c, 0, 57, 36
1, 194605, Control_c, 0, 64, 57
1, 194609, Note_on_c, 0, 54, 37
1, 194619, Control_c, 0, 64, 52
1, 194635, Control_c, 0, 64, 45
1, 194650, Control_c, 0, 64, 34
1, 194665, Control_c, 0, 64, 8
1, 194680, Control_c, 0, 64, 0
1, 194743, Note_off_c, 0, 73, 23
1, 194783, Control_c, 0, 64, 41
1, 194798, Control_c, 0, 64, 55
1, 194813, Control_c, 0, 64, 60
1, 194828, Control_c, 0, 64, 63
1, 194842, Control_c, 0, 64, 65
1, 194857, Control_c, 0, 64, 67
1, 194872, Control_c, 0, 64, 71
1, 194887, Control_c, 0, 64, 75
1, 194902, Control_c, 0, 64, 79
1, 194916, Control_c, 0, 64, 81
1, 194931, Control_c, 0, 64, 83
1, 194946, Control_c, 0, 64, 84
1, 194960, Control_c, 0, 64, 85
1, 194990, Control_c, 0, 64, 85
1, 195005, Control_c, 0, 64, 86
1, 195009, Note_off_c, 0, 64, 61
1, 195035, Control_c, 0, 64, 86
1, 195279, Control_c, 0, 64, 86
1, 195339, Control_c, 0, 64, 85
1, 195354, Control_c, 0, 64, 85
1, 195368, Control_c, 0, 64, 84
1, 195383, Control_c, 0, 64, 83
1, 195398, Control_c, 0, 64, 81
1, 195407, Note_off_c, 0, 76, 52
1, 195413, Control_c, 0, 64, 78
1, 195428, Control_c, 0, 64, 73
1, 195437, Note_on_c, 0, 74, 48
1, 195443, Control_c, 0, 64, 67
1, 195458, Control_c, 0, 64, 57
1, 195470, Note_on_c, 0, 62, 22
1, 195473, Control_c, 0, 64, 34
1, 195488, Control_c, 0, 64, 0
1, 195532, Control_c, 0, 64, 16
1, 195547, Control_c, 0, 64, 40
1, 195562, Control_c, 0, 64, 56
1, 195577, Control_c, 0, 64, 65
1, 195591, Control_c, 0, 64, 68
1, 195598, Note_off_c, 0, 57, 49
1, 195606, Control_c, 0, 64, 73
1, 195621, Control_c, 0, 64, 76
1, 195621, Control_c, 0, 67, 9
1, 195622, Note_off_c, 0, 54, 55
1, 195636, Control_c, 0, 64, 79
1, 195636, Control_c, 0, 67, 10
1, 195651, Control_c, 0, 64, 83
1, 195651, Control_c, 0, 67, 11
1, 195665, Control_c, 0, 64, 87
1, 195665, Control_c, 0, 67, 11
1, 195680, Control_c, 0, 64, 90
1, 195680, Control_c, 0, 67, 12
1, 195695, Control_c, 0, 64, 93
1, 195695, Control_c, 0, 67, 12
1, 195710, Control_c, 0, 64, 95
1, 195710, Control_c, 0, 67, 13
1, 195725, Control_c, 0, 64, 96
1, 195725, Control_c, 0, 67, 14
1, 195739, Control_c, 0, 64, 97
1, 195739, Control_c, 0, 67, 15
1, 195754, Control_c, 0, 64, 97
1, 195754, Control_c, 0, 67, 15
1, 195769, Control_c, 0, 67, 16
1, 195783, Control_c, 0, 67, 17
1, 195798, Control_c, 0, 67, 18
1, 195813, Control_c, 0, 67, 21
1, 195828, Control_c, 0, 67, 26
1, 195843, Control_c, 0, 67, 33
1, 195865, Control_c, 0, 67, 41
1, 195880, Control_c, 0, 67, 48
1, 195895, Control_c, 0, 67, 54
1, 195910, Control_c, 0, 67, 60
1, 195924, Control_c, 0, 67, 65
1, 195939, Control_c, 0, 67, 67
1, 195944, Note_on_c, 0, 42, 42
1, 195954, Control_c, 0, 67, 69
1, 195969, Control_c, 0, 64, 97
1, 195969, Control_c, 0, 67, 72
1, 195984, Control_c, 0, 64, 96
1, 195984, Control_c, 0, 67, 75
1, 195998, Control_c, 0, 64, 96
1, 195998, Control_c, 0, 67, 76
1, 196013, Control_c, 0, 64, 95
1, 196013, Control_c, 0, 67, 76
1, 196028, Control_c, 0, 64, 95
1, 196043, Control_c, 0, 64, 94
1, 196043, Control_c, 0, 67, 77
1, 196058, Control_c, 0, 64, 93
1, 196058, Control_c, 0, 67, 77
1, 196062, Note_off_c, 0, 74, 60
1, 196072, Control_c, 0, 64, 93
1, 196087, Control_c, 0, 64, 92
1, 196087, Control_c, 0, 67, 79
1, 196090, Note_off_c, 0, 69, 35
1, 196102, Control_c, 0, 64, 91
1, 196102, Control_c, 0, 67, 81
1, 196116, Control_c, 0, 64, 90
1, 196116, Control_c, 0, 67, 82
1, 196128, Note_off_c, 0, 62, 50
1, 196131, Control_c, 0, 64, 90
1, 196146, Control_c, 0, 67, 83
1, 196161, Control_c, 0, 64, 88
1, 196161, Control_c, 0, 67, 84
1, 196167, Note_on_c, 0, 45, 53
1, 196176, Control_c, 0, 64, 87
1, 196176, Control_c, 0, 67, 86
1, 196190, Control_c, 0, 64, 85
1, 196190, Control_c, 0, 67, 88
1, 196205, Control_c, 0, 64, 83
1, 196205, Control_c, 0, 67, 89
1, 196220, Control_c, 0, 64, 82
1, 196220, Control_c, 0, 67, 90
1, 196236, Control_c, 0, 64, 81
1, 196236, Control_c, 0, 67, 90
1, 196251, Control_c, 0, 64, 79
1, 196266, Control_c, 0, 64, 77
1, 196280, Control_c, 0, 64, 75
1, 196295, Control_c, 0, 64, 74
1, 196310, Control_c, 0, 64, 73
1, 196310, Control_c, 0, 67, 90
1, 196319, Note_off_c, 0, 42, 60
1, 196325, Control_c, 0, 64, 71
1, 196328, Note_off_c, 0, 45, 65
1, 196339, Control_c, 0, 64, 70
1, 196344, Note_on_c, 0, 50, 59
1, 196354, Control_c, 0, 64, 68
1, 196354, Control_c, 0, 67, 89
1, 196369, Control_c, 0, 64, 67
1, 196384, Control_c, 0, 64, 65
1, 196384, Control_c, 0, 67, 89
1, 196399, Control_c, 0, 64, 63
1, 196413, Control_c, 0, 64, 62
1, 196413, Control_c, 0, 67, 88
1, 196428, Control_c, 0, 64, 61
1, 196428, Control_c, 0, 67, 88
1, 196443, Control_c, 0, 64, 59
1, 196458, Control_c, 0, 64, 58
1, 196458, Control_c, 0, 67, 87
1, 196473, Control_c, 0, 64, 56
1, 196487, Control_c, 0, 64, 55
1, 196502, Control_c, 0, 64, 53
1, 196502, Control_c, 0, 67, 87
1, 196517, Control_c, 0, 64, 52
1, 196531, Control_c, 0, 64, 51
1, 196542, Note_on_c, 0, 54, 44
1, 196546, Control_c, 0, 64, 50
1, 196561, Control_c, 0, 64, 49
1, 196566, Note_off_c, 0, 50, 37
1, 196576, Control_c, 0, 64, 48
1, 196591, Control_c, 0, 64, 47
1, 196613, Control_c, 0, 64, 46
1, 196628, Control_c, 0, 64, 45
1, 196643, Control_c, 0, 64, 44
1, 196658, Control_c, 0, 64, 43
1, 196658, Control_c, 0, 67, 86
1, 196687, Control_c, 0, 67, 86
1, 196702, Control_c, 0, 64, 42
1, 196717, Control_c, 0, 67, 85
1, 196761, Control_c, 0, 67, 86
1, 196798, Note_on_c, 0, 57, 40
1, 196801, Note_off_c, 0, 54, 58
1, 196806, Control_c, 0, 67, 85
1, 196939, Control_c, 0, 67, 85
1, 197044, Control_c, 0, 64, 43
1, 197074, Control_c, 0, 67, 84
1, 197118, Control_c, 0, 64, 43
1, 197148, Control_c, 0, 67, 84
1, 197206, Note_on_c, 0, 62, 51
1, 197208, Control_c, 0, 67, 83
1, 197282, Control_c, 0, 64, 44
1, 197292, Note_on_c, 0, 40, 47
1, 197326, Control_c, 0, 67, 84
1, 197378, Control_c, 0, 67, 84
1, 197392, Control_c, 0, 67, 85
1, 197407, Control_c, 0, 67, 86
1, 197422, Control_c, 0, 64, 44
1, 197422, Control_c, 0, 67, 87
1, 197437, Control_c, 0, 67, 88
1, 197452, Control_c, 0, 67, 89
1, 197467, Control_c, 0, 67, 89
1, 197482, Control_c, 0, 67, 90
1, 197497, Control_c, 0, 67, 90
1, 197511, Control_c, 0, 67, 91
1, 197526, Control_c, 0, 67, 91
1, 197541, Control_c, 0, 67, 92
1, 197556, Control_c, 0, 67, 92
1, 197570, Control_c, 0, 67, 96
1, 197585, Control_c, 0, 67, 100
1, 197600, Control_c, 0, 67, 101
1, 197644, Control_c, 0, 67, 101
1, 197659, Control_c, 0, 67, 102
1, 197674, Control_c, 0, 67, 104
1, 197718, Control_c, 0, 67, 103
1, 197733, Control_c, 0, 67, 103
1, 197748, Control_c, 0, 67, 102
1, 197792, Control_c, 0, 67, 102
1, 197838, Control_c, 0, 67, 102
1, 197853, Control_c, 0, 67, 102
1, 197867, Control_c, 0, 67, 101
1, 197882, Control_c, 0, 64, 45
1, 197912, Control_c, 0, 67, 101
1, 197926, Control_c, 0, 67, 100
1, 197956, Control_c, 0, 67, 100
1, 198030, Control_c, 0, 67, 99
1, 198060, Control_c, 0, 67, 99
1, 198075, Control_c, 0, 67, 98
1, 198156, Control_c, 0, 67, 98
1, 198185, Control_c, 0, 67, 97
1, 198221, Note_on_c, 0, 61, 35
1, 198245, Control_c, 0, 67, 97
1, 198257, Note_off_c, 0, 62, 30
1, 198304, Control_c, 0, 67, 96
1, 198349, Control_c, 0, 67, 96
1, 198378, Control_c, 0, 64, 46
1, 198378, Control_c, 0, 67, 95
1, 198393, Control_c, 0, 64, 48
1, 198408, Control_c, 0, 64, 52
1, 198408, Control_c, 0, 67, 95
1, 198423, Control_c, 0, 64, 55
1, 198438, Control_c, 0, 64, 57
1, 198438, Control_c, 0, 67, 94
1, 198452, Control_c, 0, 64, 59
1, 198467, Control_c, 0, 64, 61
1, 198467, Control_c, 0, 67, 94
1, 198482, Control_c, 0, 64, 62
1, 198482, Control_c, 0, 67, 93
1, 198497, Control_c, 0, 64, 63
1, 198511, Control_c, 0, 64, 64
1, 198511, Control_c, 0, 67, 93
1, 198526, Control_c, 0, 64, 65
1, 198541, Control_c, 0, 64, 67
1, 198541, Control_c, 0, 67, 92
1, 198556, Control_c, 0, 64, 68
1, 198571, Control_c, 0, 64, 70
1, 198585, Control_c, 0, 64, 72
1, 198585, Control_c, 0, 67, 92
1, 198600, Control_c, 0, 64, 74
1, 198615, Control_c, 0, 64, 76
1, 198626, Note_off_c, 0, 57, 37
1, 198631, Control_c, 0, 64, 77
1, 198646, Control_c, 0, 64, 78
1, 198661, Control_c, 0, 64, 79
1, 198661, Control_c, 0, 67, 91
1, 198676, Control_c, 0, 64, 80
1, 198690, Control_c, 0, 64, 82
1, 198705, Control_c, 0, 64, 83
1, 198720, Control_c, 0, 64, 84
1, 198720, Control_c, 0, 67, 91
1, 198735, Control_c, 0, 64, 85
1, 198750, Control_c, 0, 64, 86
1, 198779, Control_c, 0, 64, 86
1, 198779, Control_c, 0, 67, 90
1, 198794, Note_off_c, 0, 61, 41
1, 198794, Control_c, 0, 64, 87
1, 198823, Control_c, 0, 64, 87
1, 198823, Control_c, 0, 67, 90
1, 198861, Note_on_c, 0, 52, 34
1, 198876, Control_c, 0, 64, 88
1, 198876, Control_c, 0, 67, 89
1, 198905, Control_c, 0, 64, 88
1, 198905, Control_c, 0, 67, 89
1, 198920, Control_c, 0, 67, 88
1, 198935, Control_c, 0, 67, 87
1, 198949, Control_c, 0, 67, 85
1, 198964, Control_c, 0, 67, 85
1, 198994, Control_c, 0, 67, 84
1, 199008, Control_c, 0, 67, 84
1, 199038, Control_c, 0, 67, 82
1, 199053, Control_c, 0, 67, 79
1, 199067, Control_c, 0, 67, 77
1, 199078, Note_off_c, 0, 40, 35
1, 199081, Control_c, 0, 67, 76
1, 199096, Control_c, 0, 67, 76
1, 199111, Control_c, 0, 67, 75
1, 199140, Control_c, 0, 67, 75
1, 199145, Note_on_c, 0, 57, 44
1, 199155, Control_c, 0, 64, 88
1, 199170, Control_c, 0, 67, 74
1, 199185, Control_c, 0, 64, 87
1, 199185, Control_c, 0, 67, 71
1, 199199, Control_c, 0, 67, 66
1, 199214, Control_c, 0, 64, 87
1, 199214, Control_c, 0, 67, 61
1, 199229, Control_c, 0, 64, 86
1, 199229, Control_c, 0, 67, 58
1, 199244, Control_c, 0, 64, 86
1, 199244, Control_c, 0, 67, 55
1, 199259, Control_c, 0, 64, 85
1, 199259, Control_c, 0, 67, 54
1, 199273, Control_c, 0, 64, 85
1, 199273, Control_c, 0, 67, 53
1, 199288, Control_c, 0, 64, 84
1, 199303, Control_c, 0, 64, 83
1, 199303, Control_c, 0, 67, 52
1, 199318, Control_c, 0, 64, 83
1, 199348, Control_c, 0, 64, 82
1, 199348, Control_c, 0, 67, 52
1, 199363, Control_c, 0, 64, 82
1, 199378, Control_c, 0, 64, 81
1, 199393, Control_c, 0, 64, 81
1, 199407, Control_c, 0, 64, 80
1, 199407, Control_c, 0, 67, 51
1, 199422, Control_c, 0, 64, 80
1, 199422, Control_c, 0, 67, 51
1, 199432, Note_on_c, 0, 61, 55
1, 199437, Control_c, 0, 67, 50
1, 199452, Control_c, 0, 64, 79
1, 199452, Control_c, 0, 67, 46
1, 199467, Control_c, 0, 64, 79
1, 199467, Control_c, 0, 67, 42
1, 199482, Control_c, 0, 67, 38
1, 199497, Control_c, 0, 64, 78
1, 199497, Control_c, 0, 67, 34
1, 199512, Control_c, 0, 64, 78
1, 199512, Control_c, 0, 67, 31
1, 199527, Control_c, 0, 64, 77
1, 199527, Control_c, 0, 67, 28
1, 199542, Control_c, 0, 64, 77
1, 199542, Control_c, 0, 67, 25
1, 199556, Control_c, 0, 67, 20
1, 199557, Note_off_c, 0, 52, 19
1, 199571, Control_c, 0, 67, 16
1, 199586, Control_c, 0, 64, 76
1, 199586, Control_c, 0, 67, 9
1, 199608, Control_c, 0, 67, 0
1, 199623, Control_c, 0, 64, 75
1, 199637, Control_c, 0, 64, 74
1, 199652, Control_c, 0, 64, 73
1, 199667, Control_c, 0, 64, 71
1, 199670, Note_on_c, 0, 64, 62
1, 199682, Control_c, 0, 64, 67
1, 199697, Control_c, 0, 64, 60
1, 199712, Control_c, 0, 64, 46
1, 199727, Control_c, 0, 64, 12
1, 199741, Control_c, 0, 64, 0
1, 199786, Control_c, 0, 64, 15
1, 199801, Control_c, 0, 64, 36
1, 199816, Control_c, 0, 64, 52
1, 199831, Control_c, 0, 64, 62
1, 199846, Control_c, 0, 64, 65
1, 199861, Control_c, 0, 64, 68
1, 199876, Control_c, 0, 64, 71
1, 199890, Control_c, 0, 64, 75
1, 199905, Control_c, 0, 64, 80
1, 199920, Control_c, 0, 64, 86
1, 199935, Control_c, 0, 64, 92
1, 199944, Note_on_c, 0, 69, 73
1, 199950, Control_c, 0, 64, 99
1, 199960, Note_off_c, 0, 64, 62
1, 199961, Note_off_c, 0, 61, 46
1, 199964, Control_c, 0, 64, 105
1, 199972, Note_off_c, 0, 57, 49
1, 199979, Control_c, 0, 64, 113
1, 199994, Control_c, 0, 64, 127
1, 200521, Control_c, 0, 64, 118
1, 200535, Control_c, 0, 64, 108
1, 200550, Control_c, 0, 64, 101
1, 200558, Note_on_c, 0, 73, 68
1, 200565, Control_c, 0, 64, 96
1, 200570, Note_on_c, 0, 63, 61
1, 200570, Note_on_c, 0, 66, 54
1, 200579, Control_c, 0, 64, 93
1, 200594, Control_c, 0, 64, 90
1, 200609, Control_c, 0, 64, 87
1, 200624, Control_c, 0, 64, 85
1, 200639, Control_c, 0, 64, 83
1, 200654, Control_c, 0, 64, 81
1, 200656, Note_on_c, 0, 52, 56
1, 200668, Control_c, 0, 64, 79
1, 200683, Control_c, 0, 64, 77
1, 200698, Control_c, 0, 64, 76
1, 200713, Control_c, 0, 64, 74
1, 200728, Control_c, 0, 64, 71
1, 200743, Control_c, 0, 64, 67
1, 200758, Control_c, 0, 64, 62
1, 200773, Control_c, 0, 64, 55
1, 200787, Control_c, 0, 64, 46
1, 200802, Control_c, 0, 64, 33
1, 200817, Control_c, 0, 64, 0
1, 200920, Control_c, 0, 64, 18
1, 200935, Control_c, 0, 64, 33
1, 200950, Control_c, 0, 64, 44
1, 200965, Control_c, 0, 64, 51
1, 200979, Control_c, 0, 64, 54
1, 200994, Control_c, 0, 64, 57
1, 201009, Control_c, 0, 64, 59
1, 201025, Control_c, 0, 64, 61
1, 201040, Control_c, 0, 64, 63
1, 201055, Control_c, 0, 64, 65
1, 201055, Control_c, 0, 67, 8
1, 201069, Control_c, 0, 64, 66
1, 201069, Control_c, 0, 67, 9
1, 201084, Control_c, 0, 64, 69
1, 201084, Control_c, 0, 67, 10
1, 201107, Control_c, 0, 64, 72
1, 201107, Control_c, 0, 67, 10
1, 201122, Control_c, 0, 64, 75
1, 201122, Control_c, 0, 67, 11
1, 201136, Control_c, 0, 64, 79
1, 201136, Control_c, 0, 67, 13
1, 201151, Control_c, 0, 64, 81
1, 201151, Control_c, 0, 67, 13
1, 201166, Control_c, 0, 64, 84
1, 201181, Control_c, 0, 64, 86
1, 201196, Control_c, 0, 64, 87
1, 201210, Control_c, 0, 64, 89
1, 201225, Control_c, 0, 64, 89
1, 201240, Control_c, 0, 64, 90
1, 201255, Control_c, 0, 64, 90
1, 201270, Control_c, 0, 64, 91
1, 201284, Control_c, 0, 64, 92
1, 201284, Control_c, 0, 67, 14
1, 201299, Control_c, 0, 64, 92
1, 201299, Control_c, 0, 67, 14
1, 201314, Control_c, 0, 64, 93
1, 201314, Control_c, 0, 67, 15
1, 201328, Control_c, 0, 67, 16
1, 201343, Control_c, 0, 67, 19
1, 201358, Control_c, 0, 64, 93
1, 201358, Control_c, 0, 67, 22
1, 201373, Control_c, 0, 64, 94
1, 201373, Control_c, 0, 67, 26
1, 201388, Control_c, 0, 64, 94
1, 201388, Control_c, 0, 67, 30
1, 201402, Control_c, 0, 67, 34
1, 201417, Control_c, 0, 64, 95
1, 201417, Control_c, 0, 67, 39
1, 201432, Control_c, 0, 64, 95
1, 201432, Control_c, 0, 67, 43
1, 201447, Control_c, 0, 64, 96
1, 201447, Control_c, 0, 67, 47
1, 201462, Control_c, 0, 64, 96
1, 201462, Control_c, 0, 67, 51
1, 201476, Control_c, 0, 67, 54
1, 201491, Control_c, 0, 67, 57
1, 201506, Control_c, 0, 67, 60
1, 201521, Control_c, 0, 64, 97
1, 201521, Control_c, 0, 67, 63
1, 201536, Control_c, 0, 67, 66
1, 201551, Control_c, 0, 67, 69
1, 201566, Control_c, 0, 67, 72
1, 201581, Control_c, 0, 67, 73
1, 201596, Control_c, 0, 67, 75
1, 201610, Control_c, 0, 67, 76
1, 201625, Control_c, 0, 67, 76
1, 201699, Control_c, 0, 67, 75
1, 201728, Control_c, 0, 67, 75
1, 201758, Control_c, 0, 67, 74
1, 201788, Control_c, 0, 67, 74
1, 201802, Control_c, 0, 67, 73
1, 201833, Control_c, 0, 64, 96
1, 201870, Control_c, 0, 67, 73
1, 201900, Control_c, 0, 67, 72
1, 201944, Control_c, 0, 64, 96
1, 201974, Control_c, 0, 67, 72
1, 202074, Note_on_c, 0, 71, 62
1, 202107, Control_c, 0, 67, 71
1, 202122, Control_c, 0, 64, 97
1, 202137, Control_c, 0, 64, 100
1, 202137, Control_c, 0, 67, 71
1, 202151, Control_c, 0, 64, 104
1, 202166, Control_c, 0, 64, 108
1, 202181, Control_c, 0, 64, 111
1, 202181, Control_c, 0, 67, 70
1, 202196, Control_c, 0, 64, 115
1, 202196, Control_c, 0, 67, 70
1, 202211, Control_c, 0, 64, 119
1, 202211, Control_c, 0, 67, 69
1, 202225, Control_c, 0, 64, 127
1, 202240, Control_c, 0, 67, 69
1, 202248, Note_off_c, 0, 73, 37
1, 202255, Control_c, 0, 67, 68
1, 202270, Control_c, 0, 67, 68
1, 202285, Control_c, 0, 67, 67
1, 202299, Control_c, 0, 67, 66
1, 202329, Control_c, 0, 67, 66
1, 202344, Control_c, 0, 67, 65
1, 202359, Control_c, 0, 67, 64
1, 202365, Note_off_c, 0, 63, 55
1, 202374, Control_c, 0, 67, 63
1, 202388, Control_c, 0, 67, 63
1, 202433, Control_c, 0, 67, 62
1, 202440, Note_off_c, 0, 66, 30
1, 202463, Control_c, 0, 67, 62
1, 202475, Note_off_c, 0, 69, 59
1, 202885, Control_c, 0, 64, 117
1, 202890, Note_on_c, 0, 73, 58
1, 202899, Control_c, 0, 64, 107
1, 202907, Note_on_c, 0, 68, 50
1, 202909, Note_on_c, 0, 62, 47
1, 202914, Control_c, 0, 64, 99
1, 202929, Control_c, 0, 64, 93
1, 202944, Control_c, 0, 64, 86
1, 202959, Control_c, 0, 64, 80
1, 202961, Note_on_c, 0, 45, 40
1, 202973, Control_c, 0, 64, 72
1, 202988, Control_c, 0, 64, 64
1, 203003, Control_c, 0, 64, 52
1, 203018, Control_c, 0, 64, 36
1, 203033, Control_c, 0, 64, 23
1, 203033, Control_c, 0, 67, 61
1, 203047, Control_c, 0, 64, 24
1, 203062, Control_c, 0, 64, 34
1, 203062, Control_c, 0, 67, 61
1, 203077, Control_c, 0, 64, 47
1, 203092, Control_c, 0, 64, 57
1, 203096, Note_off_c, 0, 71, 23
1, 203107, Control_c, 0, 64, 64
1, 203122, Control_c, 0, 64, 68
1, 203122, Control_c, 0, 67, 60
1, 203137, Control_c, 0, 64, 72
1, 203137, Control_c, 0, 67, 58
1, 203152, Control_c, 0, 64, 77
1, 203152, Control_c, 0, 67, 56
1, 203166, Control_c, 0, 64, 82
1, 203166, Control_c, 0, 67, 54
1, 203181, Control_c, 0, 64, 87
1, 203181, Control_c, 0, 67, 51
1, 203182, Note_off_c, 0, 52, 38
1, 203196, Control_c, 0, 64, 94
1, 203196, Control_c, 0, 67, 49
1, 203211, Control_c, 0, 64, 101
1, 203211, Control_c, 0, 67, 47
1, 203226, Control_c, 0, 64, 110
1, 203226, Control_c, 0, 67, 45
1, 203241, Control_c, 0, 64, 127
1, 203241, Control_c, 0, 67, 44
1, 203255, Control_c, 0, 67, 42
1, 203270, Control_c, 0, 67, 41
1, 203285, Control_c, 0, 67, 38
1, 203299, Control_c, 0, 67, 36
1, 203304, Note_off_c, 0, 45, 40
1, 203314, Control_c, 0, 67, 34
1, 203329, Control_c, 0, 67, 32
1, 203351, Control_c, 0, 67, 30
1, 203366, Control_c, 0, 67, 28
1, 203381, Control_c, 0, 67, 27
1, 203396, Control_c, 0, 67, 25
1, 203411, Control_c, 0, 67, 24
1, 203426, Control_c, 0, 67, 21
1, 203441, Control_c, 0, 67, 19
1, 203456, Control_c, 0, 67, 16
1, 203471, Control_c, 0, 67, 13
1, 203485, Control_c, 0, 67, 12
1, 203488, Note_on_c, 0, 71, 63
1, 203500, Control_c, 0, 67, 11
1, 203515, Control_c, 0, 67, 10
1, 203518, Note_off_c, 0, 62, 52
1, 203530, Control_c, 0, 67, 9
1, 203540, Note_off_c, 0, 73, 58
1, 203545, Control_c, 0, 67, 0
1, 203565, Note_off_c, 0, 68, 55
1, 203969, Note_on_c, 0, 74, 61
1, 203975, Control_c, 0, 64, 105
1, 203990, Control_c, 0, 64, 96
1, 204000, Note_on_c, 0, 66, 51
1, 204004, Control_c, 0, 64, 89
1, 204019, Control_c, 0, 64, 83
1, 204034, Control_c, 0, 64, 77
1, 204049, Control_c, 0, 64, 69
1, 204053, Note_off_c, 0, 71, 34
1, 204061, Note_on_c, 0, 33, 46
1, 204064, Control_c, 0, 64, 60
1, 204079, Control_c, 0, 64, 48
1, 204101, Control_c, 0, 64, 34
1, 204116, Control_c, 0, 64, 29
1, 204130, Control_c, 0, 64, 31
1, 204145, Control_c, 0, 64, 42
1, 204160, Control_c, 0, 64, 53
1, 204175, Control_c, 0, 64, 61
1, 204190, Control_c, 0, 64, 67
1, 204204, Control_c, 0, 64, 71
1, 204219, Note_off_c, 0, 33, 45
1, 204219, Control_c, 0, 64, 77
1, 204235, Control_c, 0, 64, 83
1, 204250, Control_c, 0, 64, 91
1, 204265, Control_c, 0, 64, 98
1, 204280, Control_c, 0, 64, 108
1, 204295, Control_c, 0, 64, 127
1, 204513, Note_on_c, 0, 62, 46
1, 204866, Note_off_c, 0, 62, 58
1, 204875, Note_on_c, 0, 57, 51
1, 204955, Note_off_c, 0, 66, 35
1, 205176, Note_on_c, 0, 54, 57
1, 205191, Note_off_c, 0, 57, 35
1, 205325, Note_off_c, 0, 54, 56
1, 205487, Note_on_c, 0, 73, 66
1, 205495, Note_on_c, 0, 69, 67
1, 205517, Control_c, 0, 64, 99
1, 205532, Control_c, 0, 64, 81
1, 205540, Note_on_c, 0, 50, 46
1, 205547, Control_c, 0, 64, 67
1, 205557, Note_on_c, 0, 45, 37
1, 205562, Control_c, 0, 64, 60
1, 205599, Control_c, 0, 64, 64
1, 205614, Control_c, 0, 64, 69
1, 205629, Control_c, 0, 64, 76
1, 205643, Control_c, 0, 64, 86
1, 205658, Control_c, 0, 64, 98
1, 205673, Control_c, 0, 64, 106
1, 205688, Control_c, 0, 64, 117
1, 205696, Note_off_c, 0, 50, 63
1, 205702, Control_c, 0, 64, 127
1, 205721, Note_off_c, 0, 45, 47
1, 205833, Note_off_c, 0, 74, 56
1, 205853, Note_on_c, 0, 71, 70
1, 205867, Note_on_c, 0, 68, 65
1, 205870, Note_off_c, 0, 69, 65
1, 205910, Note_off_c, 0, 73, 57
1, 206014, Control_c, 0, 64, 107
1, 206029, Control_c, 0, 64, 86
1, 206044, Control_c, 0, 64, 70
1, 206059, Control_c, 0, 64, 55
1, 206073, Control_c, 0, 64, 44
1, 206088, Control_c, 0, 64, 47
1, 206091, Note_on_c, 0, 66, 72
1, 206094, Note_off_c, 0, 68, 56
1, 206100, Note_off_c, 0, 71, 62
1, 206103, Control_c, 0, 64, 56
1, 206118, Control_c, 0, 64, 63
1, 206132, Control_c, 0, 64, 70
1, 206147, Control_c, 0, 64, 79
1, 206162, Control_c, 0, 64, 94
1, 206177, Control_c, 0, 64, 109
1, 206192, Control_c, 0, 64, 127
1, 206217, Note_on_c, 0, 33, 58
1, 206236, Note_off_c, 0, 66, 62
1, 206332, Note_off_c, 0, 33, 60
1, 206369, Note_on_c, 0, 81, 78
1, 206660, Note_on_c, 0, 50, 52
1, 206744, Note_off_c, 0, 81, 56
1, 206982, Note_on_c, 0, 45, 61
1, 207271, Note_on_c, 0, 42, 73
1, 207337, Note_off_c, 0, 50, 40
1, 207376, Note_off_c, 0, 45, 53
1, 207638, Note_on_c, 0, 80, 81
1, 207651, Note_on_c, 0, 71, 74
1, 207675, Control_c, 0, 64, 96
1, 207680, Note_on_c, 0, 38, 64
1, 207690, Control_c, 0, 64, 72
1, 207705, Control_c, 0, 64, 56
1, 207719, Control_c, 0, 64, 36
1, 207729, Note_off_c, 0, 42, 34
1, 207734, Control_c, 0, 64, 28
1, 207749, Control_c, 0, 64, 33
1, 207763, Control_c, 0, 64, 49
1, 207778, Control_c, 0, 64, 61
1, 207793, Control_c, 0, 64, 72
1, 207808, Control_c, 0, 64, 85
1, 207823, Control_c, 0, 64, 124
1, 207845, Control_c, 0, 64, 127
1, 207922, Note_off_c, 0, 71, 53
1, 207957, Note_off_c, 0, 38, 60
1, 207978, Note_on_c, 0, 50, 64
1, 208021, Note_off_c, 0, 50, 64
1, 208103, Note_off_c, 0, 80, 61
1, 208112, Note_on_c, 0, 78, 80
1, 208121, Note_on_c, 0, 69, 74
1, 208187, Note_off_c, 0, 69, 63
1, 208216, Note_off_c, 0, 78, 62
1, 208291, Note_on_c, 0, 78, 80
1, 208291, Control_c, 0, 64, 97
1, 208298, Note_on_c, 0, 57, 70
1, 208299, Note_on_c, 0, 69, 73
1, 208301, Note_on_c, 0, 54, 61
1, 208304, Note_on_c, 0, 50, 63
1, 208306, Control_c, 0, 64, 70
1, 208320, Control_c, 0, 64, 54
1, 208335, Control_c, 0, 64, 48
1, 208350, Control_c, 0, 64, 56
1, 208365, Control_c, 0, 64, 65
1, 208380, Control_c, 0, 64, 72
1, 208394, Control_c, 0, 64, 84
1, 208409, Control_c, 0, 64, 107
1, 208422, Note_off_c, 0, 69, 63
1, 208424, Control_c, 0, 64, 127
1, 208443, Note_off_c, 0, 57, 62
1, 208557, Control_c, 0, 64, 107
1, 208572, Control_c, 0, 64, 77
1, 208594, Control_c, 0, 64, 72
1, 208603, Note_on_c, 0, 59, 71
1, 208608, Note_on_c, 0, 56, 69
1, 208609, Control_c, 0, 64, 73
1, 208624, Control_c, 0, 64, 78
1, 208639, Control_c, 0, 64, 90
1, 208654, Note_off_c, 0, 50, 54
1, 208654, Note_off_c, 0, 54, 0
1, 208654, Control_c, 0, 64, 117
1, 208668, Control_c, 0, 64, 127
1, 208690, Poly_aftertouch_c, 0, 54, 127
1, 208736, Note_off_c, 0, 56, 57
1, 208737, Note_off_c, 0, 59, 59
1, 208743, Note_on_c, 0, 77, 78
1, 208756, Note_on_c, 0, 68, 71
1, 208782, Note_off_c, 0, 78, 57
1, 208791, Poly_aftertouch_c, 0, 54, 0
1, 208851, Note_off_c, 0, 68, 53
1, 208866, Note_off_c, 0, 77, 62
1, 208949, Control_c, 0, 64, 99
1, 208952, Note_on_c, 0, 77, 78
1, 208964, Control_c, 0, 64, 74
1, 208967, Note_on_c, 0, 68, 73
1, 208969, Note_on_c, 0, 49, 61
1, 208969, Note_on_c, 0, 59, 66
1, 208973, Note_on_c, 0, 56, 61
1, 208979, Control_c, 0, 64, 58
1, 208994, Control_c, 0, 64, 54
1, 209009, Control_c, 0, 64, 60
1, 209024, Control_c, 0, 64, 65
1, 209039, Control_c, 0, 64, 73
1, 209054, Control_c, 0, 64, 87
1, 209069, Control_c, 0, 64, 127
1, 209076, Note_off_c, 0, 59, 62
1, 209102, Note_off_c, 0, 56, 46
1, 209142, Note_off_c, 0, 68, 60
1, 209262, Control_c, 0, 64, 83
1, 209266, Note_on_c, 0, 76, 83
1, 209276, Note_on_c, 0, 69, 74
1, 209277, Control_c, 0, 64, 65
1, 209288, Note_on_c, 0, 61, 59
1, 209291, Control_c, 0, 64, 61
1, 209293, Note_off_c, 0, 77, 63
1, 209298, Note_on_c, 0, 57, 52
1, 209306, Control_c, 0, 64, 65
1, 209321, Control_c, 0, 64, 71
1, 209322, Note_off_c, 0, 61, 64
1, 209343, Control_c, 0, 64, 81
1, 209349, Note_off_c, 0, 57, 60
1, 209358, Control_c, 0, 64, 99
1, 209373, Control_c, 0, 64, 127
1, 209382, Note_off_c, 0, 76, 63
1, 209402, Note_off_c, 0, 49, 61
1, 209629, Note_on_c, 0, 74, 74
1, 209650, Note_on_c, 0, 66, 67
1, 209669, Control_c, 0, 64, 98
1, 209681, Note_off_c, 0, 69, 57
1, 209684, Control_c, 0, 64, 72
1, 209686, Note_on_c, 0, 35, 57
1, 209698, Control_c, 0, 64, 58
1, 209713, Control_c, 0, 64, 43
1, 209728, Control_c, 0, 64, 45
1, 209742, Control_c, 0, 64, 56
1, 209757, Control_c, 0, 64, 64
1, 209772, Control_c, 0, 64, 74
1, 209787, Control_c, 0, 64, 90
1, 209790, Note_off_c, 0, 35, 59
1, 209802, Control_c, 0, 64, 127
1, 209952, Note_on_c, 0, 71, 73
1, 209967, Note_on_c, 0, 62, 63
1, 209981, Note_off_c, 0, 74, 59
1, 209996, Note_on_c, 0, 50, 58
1, 210040, Note_off_c, 0, 66, 55
1, 210061, Note_off_c, 0, 71, 63
1, 210218, Note_off_c, 0, 50, 0
1, 210249, Note_on_c, 0, 40, 56
1, 210255, Poly_aftertouch_c, 0, 50, 127
1, 210298, Control_c, 0, 64, 119
1, 210312, Control_c, 0, 64, 109
1, 210322, Note_on_c, 0, 69, 71
1, 210327, Control_c, 0, 64, 101
1, 210334, Note_on_c, 0, 61, 65
1, 210342, Control_c, 0, 64, 94
1, 210350, Poly_aftertouch_c, 0, 50, 0
1, 210356, Control_c, 0, 64, 87
1, 210371, Control_c, 0, 64, 80
1, 210386, Control_c, 0, 64, 74
1, 210401, Control_c, 0, 64, 68
1, 210403, Note_off_c, 0, 62, 51
1, 210416, Control_c, 0, 64, 63
1, 210431, Control_c, 0, 64, 55
1, 210446, Control_c, 0, 64, 44
1, 210461, Control_c, 0, 64, 18
1, 210476, Control_c, 0, 64, 0
1, 210550, Control_c, 0, 64, 9
1, 210564, Control_c, 0, 64, 38
1, 210579, Control_c, 0, 64, 56
1, 210594, Control_c, 0, 64, 63
1, 210610, Control_c, 0, 64, 65
1, 210625, Control_c, 0, 64, 68
1, 210631, Note_on_c, 0, 52, 73
1, 210640, Control_c, 0, 64, 73
1, 210655, Control_c, 0, 64, 79
1, 210669, Control_c, 0, 64, 85
1, 210684, Control_c, 0, 64, 89
1, 210699, Control_c, 0, 64, 94
1, 210714, Control_c, 0, 64, 99
1, 210715, Note_off_c, 0, 40, 33
1, 210729, Control_c, 0, 64, 105
1, 210743, Control_c, 0, 64, 111
1, 210758, Control_c, 0, 64, 118
1, 210773, Control_c, 0, 64, 127
1, 210922, Note_off_c, 0, 52, 57
1, 211008, Note_on_c, 0, 68, 58
1, 211019, Note_on_c, 0, 59, 39
1, 211048, Control_c, 0, 64, 115
1, 211062, Control_c, 0, 64, 106
1, 211077, Control_c, 0, 64, 98
1, 211086, Note_on_c, 0, 52, 69
1, 211092, Control_c, 0, 64, 89
1, 211107, Control_c, 0, 64, 80
1, 211108, Note_off_c, 0, 69, 34
1, 211121, Control_c, 0, 64, 71
1, 211136, Control_c, 0, 64, 62
1, 211151, Control_c, 0, 64, 45
1, 211166, Control_c, 0, 64, 0
1, 211206, Note_off_c, 0, 61, 27
1, 211210, Control_c, 0, 64, 19
1, 211225, Control_c, 0, 64, 39
1, 211240, Control_c, 0, 64, 55
1, 211254, Control_c, 0, 64, 64
1, 211269, Control_c, 0, 64, 67
1, 211284, Control_c, 0, 64, 71
1, 211299, Control_c, 0, 64, 74
1, 211313, Control_c, 0, 64, 78
1, 211328, Control_c, 0, 64, 81
1, 211335, Note_off_c, 0, 59, 43
1, 211343, Control_c, 0, 64, 84
1, 211358, Control_c, 0, 64, 87
1, 211373, Control_c, 0, 64, 90
1, 211388, Control_c, 0, 64, 93
1, 211403, Control_c, 0, 64, 97
1, 211415, Note_on_c, 0, 54, 64
1, 211418, Control_c, 0, 64, 100
1, 211433, Control_c, 0, 64, 102
1, 211433, Control_c, 0, 67, 8
1, 211448, Control_c, 0, 64, 106
1, 211448, Control_c, 0, 67, 9
1, 211463, Control_c, 0, 64, 111
1, 211463, Control_c, 0, 67, 11
1, 211477, Note_off_c, 0, 68, 59
1, 211478, Control_c, 0, 64, 116
1, 211478, Control_c, 0, 67, 12
1, 211492, Control_c, 0, 64, 122
1, 211492, Control_c, 0, 67, 12
1, 211507, Control_c, 0, 64, 127
1, 211522, Note_off_c, 0, 52, 53
1, 211567, Control_c, 0, 67, 12
1, 211589, Control_c, 0, 67, 11
1, 211604, Control_c, 0, 67, 9
1, 211618, Control_c, 0, 67, 8
1, 211633, Control_c, 0, 67, 0
1, 211856, Control_c, 0, 64, 122
1, 211871, Control_c, 0, 64, 115
1, 211885, Control_c, 0, 64, 109
1, 211895, Note_off_c, 0, 54, 25
1, 211900, Control_c, 0, 64, 103
1, 211908, Note_on_c, 0, 73, 62
1, 211915, Control_c, 0, 64, 98
1, 211927, Note_on_c, 0, 64, 49
1, 211930, Control_c, 0, 64, 93
1, 211942, Note_on_c, 0, 55, 47
1, 211944, Control_c, 0, 64, 88
1, 211946, Note_on_c, 0, 52, 48
1, 211959, Control_c, 0, 64, 82
1, 211974, Control_c, 0, 64, 77
1, 211989, Control_c, 0, 64, 68
1, 212004, Control_c, 0, 64, 59
1, 212018, Control_c, 0, 64, 41
1, 212033, Control_c, 0, 64, 18
1, 212048, Control_c, 0, 64, 12
1, 212063, Control_c, 0, 64, 24
1, 212078, Control_c, 0, 64, 38
1, 212092, Control_c, 0, 64, 54
1, 212107, Control_c, 0, 64, 64
1, 212122, Control_c, 0, 64, 69
1, 212136, Control_c, 0, 64, 74
1, 212151, Control_c, 0, 64, 79
1, 212166, Control_c, 0, 64, 84
1, 212181, Control_c, 0, 64, 89
1, 212196, Note_off_c, 0, 55, 60
1, 212196, Control_c, 0, 64, 97
1, 212212, Control_c, 0, 64, 105
1, 212226, Control_c, 0, 64, 124
1, 212241, Control_c, 0, 64, 127
1, 212256, Note_on_c, 0, 71, 71
1, 212297, Note_off_c, 0, 52, 35
1, 212301, Note_off_c, 0, 64, 57
1, 212662, Note_on_c, 0, 74, 71
1, 212681, Note_on_c, 0, 69, 58
1, 212722, Note_off_c, 0, 71, 27
1, 212723, Control_c, 0, 64, 108
1, 212732, Note_on_c, 0, 42, 36
1, 212738, Control_c, 0, 64, 95
1, 212753, Control_c, 0, 64, 84
1, 212767, Control_c, 0, 64, 73
1, 212780, Note_off_c, 0, 73, 6
1, 212782, Control_c, 0, 64, 62
1, 212797, Control_c, 0, 64, 41
1, 212812, Control_c, 0, 64, 0
1, 212841, Control_c, 0, 64, 20
1, 212856, Control_c, 0, 64, 40
1, 212871, Control_c, 0, 64, 56
1, 212885, Control_c, 0, 64, 66
1, 212900, Control_c, 0, 64, 75
1, 212915, Control_c, 0, 64, 86
1, 212930, Control_c, 0, 64, 99
1, 212945, Control_c, 0, 64, 122
1, 212956, Note_off_c, 0, 42, 53
1, 212959, Control_c, 0, 64, 127
1, 213035, Note_on_c, 0, 62, 56
1, 213316, Note_off_c, 0, 62, 61
1, 213337, Note_on_c, 0, 57, 49
1, 213355, Note_off_c, 0, 69, 16
1, 213601, Note_off_c, 0, 57, 23
1, 213645, Note_on_c, 0, 54, 54
1, 213689, Note_off_c, 0, 54, 59
1, 213954, Note_on_c, 0, 73, 75
1, 213969, Note_on_c, 0, 64, 64
1, 213971, Note_on_c, 0, 69, 66
1, 214012, Control_c, 0, 64, 96
1, 214014, Note_on_c, 0, 40, 73
1, 214027, Control_c, 0, 64, 73
1, 214043, Control_c, 0, 64, 58
1, 214058, Control_c, 0, 64, 39
1, 214073, Control_c, 0, 64, 35
1, 214087, Control_c, 0, 64, 47
1, 214102, Control_c, 0, 64, 62
1, 214117, Control_c, 0, 64, 71
1, 214131, Control_c, 0, 64, 88
1, 214146, Control_c, 0, 64, 127
1, 214199, Note_off_c, 0, 74, 33
1, 214237, Note_off_c, 0, 40, 61
1, 214305, Note_on_c, 0, 71, 78
1, 214339, Note_off_c, 0, 64, 64
1, 214352, Note_off_c, 0, 69, 58
1, 214390, Note_off_c, 0, 71, 62
1, 214392, Note_off_c, 0, 73, 52
1, 214631, Note_on_c, 0, 39, 61
1, 214631, Note_on_c, 0, 47, 65
1, 214703, Control_c, 0, 64, 116
1, 214705, Note_on_c, 0, 83, 92
1, 214717, Note_on_c, 0, 78, 78
1, 214717, Control_c, 0, 64, 81
1, 214724, Note_on_c, 0, 71, 66
1, 214728, Note_on_c, 0, 69, 67
1, 214732, Control_c, 0, 64, 64
1, 214747, Control_c, 0, 64, 51
1, 214762, Control_c, 0, 64, 44
1, 214777, Control_c, 0, 64, 50
1, 214792, Control_c, 0, 64, 59
1, 214807, Control_c, 0, 64, 67
1, 214822, Control_c, 0, 64, 76
1, 214836, Control_c, 0, 64, 95
1, 214851, Control_c, 0, 64, 127
1, 215060, Note_off_c, 0, 69, 58
1, 215061, Note_off_c, 0, 71, 50
1, 215066, Note_off_c, 0, 39, 57
1, 215075, Note_off_c, 0, 47, 64
1, 215082, Note_on_c, 0, 51, 63
1, 215111, Note_off_c, 0, 78, 56
1, 215169, Note_off_c, 0, 51, 63
1, 215347, Control_c, 0, 64, 94
1, 215358, Note_on_c, 0, 75, 71
1, 215361, Control_c, 0, 64, 71
1, 215375, Note_on_c, 0, 71, 48
1, 215376, Control_c, 0, 64, 63
1, 215378, Note_on_c, 0, 69, 55
1, 215379, Note_on_c, 0, 47, 61
1, 215381, Note_on_c, 0, 42, 51
1, 215391, Control_c, 0, 64, 64
1, 215407, Control_c, 0, 64, 73
1, 215422, Control_c, 0, 64, 89
1, 215437, Control_c, 0, 64, 127
1, 215520, Note_off_c, 0, 83, 57
1, 215651, Note_on_c, 0, 81, 85
1, 215673, Note_off_c, 0, 42, 57
1, 215687, Note_on_c, 0, 54, 70
1, 215695, Note_off_c, 0, 47, 64
1, 215697, Note_off_c, 0, 69, 60
1, 215702, Note_off_c, 0, 71, 50
1, 215739, Note_off_c, 0, 81, 65
1, 215743, Note_off_c, 0, 75, 64
1, 215812, Note_off_c, 0, 54, 56
1, 215974, Note_on_c, 0, 80, 81
1, 215989, Note_on_c, 0, 68, 64
1, 215990, Note_on_c, 0, 73, 66
1, 216004, Note_on_c, 0, 45, 57
1, 216014, Note_on_c, 0, 47, 57
1, 216029, Control_c, 0, 64, 109
1, 216044, Control_c, 0, 64, 77
1, 216059, Control_c, 0, 64, 62
1, 216081, Control_c, 0, 64, 51
1, 216096, Control_c, 0, 64, 53
1, 216110, Control_c, 0, 64, 62
1, 216125, Control_c, 0, 64, 69
1, 216140, Control_c, 0, 64, 81
1, 216155, Control_c, 0, 64, 118
1, 216170, Control_c, 0, 64, 127
1, 216198, Note_off_c, 0, 80, 63
1, 216238, Note_off_c, 0, 73, 62
1, 216250, Note_off_c, 0, 68, 62
1, 216299, Note_on_c, 0, 57, 71
1, 216302, Note_off_c, 0, 45, 58
1, 216344, Note_off_c, 0, 57, 60
1, 216402, Note_off_c, 0, 47, 35
1, 216426, Note_on_c, 0, 78, 81
1, 216437, Note_on_c, 0, 75, 72
1, 216443, Note_on_c, 0, 66, 71
1, 216450, Note_on_c, 0, 71, 59
1, 216534, Note_off_c, 0, 66, 60
1, 216537, Note_off_c, 0, 78, 60
1, 216550, Note_off_c, 0, 75, 59
1, 216560, Note_off_c, 0, 71, 60
1, 216622, Note_on_c, 0, 78, 79
1, 216628, Note_on_c, 0, 75, 67
1, 216630, Control_c, 0, 64, 90
1, 216633, Note_on_c, 0, 71, 49
1, 216634, Note_on_c, 0, 66, 72
1, 216642, Note_on_c, 0, 44, 65
1, 216645, Note_on_c, 0, 47, 63
1, 216645, Control_c, 0, 64, 67
1, 216660, Control_c, 0, 64, 49
1, 216674, Control_c, 0, 64, 31
1, 216689, Control_c, 0, 64, 36
1, 216704, Control_c, 0, 64, 54
1, 216719, Control_c, 0, 64, 64
1, 216733, Control_c, 0, 64, 74
1, 216748, Control_c, 0, 64, 91
1, 216763, Control_c, 0, 64, 127
1, 216829, Note_off_c, 0, 78, 63
1, 216837, Note_off_c, 0, 66, 63
1, 216935, Note_on_c, 0, 52, 77
1, 216946, Note_off_c, 0, 71, 28
1, 217023, Note_off_c, 0, 75, 30
1, 217028, Note_off_c, 0, 44, 35
1, 217068, Note_off_c, 0, 47, 50
1, 217089, Note_on_c, 0, 76, 84
1, 217099, Note_on_c, 0, 64, 73
1, 217100, Note_on_c, 0, 72, 73
1, 217132, Note_off_c, 0, 52, 62
1, 217212, Note_off_c, 0, 64, 58
1, 217218, Note_off_c, 0, 72, 54
1, 217232, Note_off_c, 0, 76, 60
1, 217311, Note_on_c, 0, 76, 78
1, 217325, Note_on_c, 0, 72, 73
1, 217329, Note_on_c, 0, 64, 69
1, 217333, Note_on_c, 0, 45, 61
1, 217333, Note_on_c, 0, 52, 70
1, 217334, Control_c, 0, 64, 91
1, 217348, Control_c, 0, 64, 71
1, 217363, Control_c, 0, 64, 56
1, 217378, Control_c, 0, 64, 36
1, 217393, Control_c, 0, 64, 32
1, 217408, Control_c, 0, 64, 43
1, 217422, Control_c, 0, 64, 58
1, 217437, Control_c, 0, 64, 66
1, 217452, Control_c, 0, 64, 74
1, 217467, Control_c, 0, 64, 87
1, 217482, Control_c, 0, 64, 102
1, 217496, Control_c, 0, 64, 110
1, 217511, Control_c, 0, 64, 118
1, 217526, Control_c, 0, 64, 127
1, 217682, Control_c, 0, 64, 94
1, 217696, Control_c, 0, 64, 76
1, 217701, Note_on_c, 0, 73, 78
1, 217711, Control_c, 0, 64, 63
1, 217726, Control_c, 0, 64, 58
1, 217740, Note_off_c, 0, 76, 61
1, 217741, Control_c, 0, 64, 62
1, 217755, Note_on_c, 0, 54, 72
1, 217755, Control_c, 0, 64, 67
1, 217770, Control_c, 0, 64, 76
1, 217776, Note_off_c, 0, 72, 55
1, 217786, Control_c, 0, 64, 90
1, 217802, Control_c, 0, 64, 117
1, 217817, Control_c, 0, 64, 127
1, 217833, Note_off_c, 0, 45, 36
1, 217881, Note_off_c, 0, 52, 31
1, 218010, Note_off_c, 0, 73, 58
1, 218014, Note_off_c, 0, 54, 59
1, 218033, Note_off_c, 0, 64, 51
1, 218178, Note_on_c, 0, 73, 65
1, 218186, Note_on_c, 0, 64, 60
1, 218213, Note_on_c, 0, 54, 60
1, 218217, Note_on_c, 0, 47, 56
1, 218232, Control_c, 0, 64, 108
1, 218246, Control_c, 0, 64, 92
1, 218261, Control_c, 0, 64, 78
1, 218276, Control_c, 0, 64, 65
1, 218291, Control_c, 0, 64, 47
1, 218305, Control_c, 0, 64, 11
1, 218327, Control_c, 0, 64, 0
1, 218342, Control_c, 0, 64, 19
1, 218357, Control_c, 0, 64, 40
1, 218372, Control_c, 0, 64, 54
1, 218387, Control_c, 0, 64, 64
1, 218402, Control_c, 0, 64, 70
1, 218417, Control_c, 0, 64, 76
1, 218432, Control_c, 0, 64, 83
1, 218447, Control_c, 0, 64, 86
1, 218461, Control_c, 0, 64, 90
1, 218476, Control_c, 0, 64, 94
1, 218491, Control_c, 0, 64, 97
1, 218505, Control_c, 0, 64, 99
1, 218520, Control_c, 0, 64, 99
1, 218535, Control_c, 0, 64, 100
1, 218550, Control_c, 0, 64, 101
1, 218638, Note_on_c, 0, 66, 67
1, 218640, Control_c, 0, 64, 99
1, 218649, Note_on_c, 0, 63, 54
1, 218649, Note_off_c, 0, 73, 60
1, 218652, Note_off_c, 0, 54, 55
1, 218655, Control_c, 0, 64, 89
1, 218664, Note_off_c, 0, 64, 52
1, 218670, Control_c, 0, 64, 74
1, 218675, Note_on_c, 0, 57, 48
1, 218684, Control_c, 0, 64, 60
1, 218699, Control_c, 0, 64, 45
1, 218729, Control_c, 0, 64, 57
1, 218743, Control_c, 0, 64, 65
1, 218758, Control_c, 0, 64, 74
1, 218773, Control_c, 0, 64, 89
1, 218788, Control_c, 0, 64, 111
1, 218795, Note_off_c, 0, 57, 55
1, 218802, Control_c, 0, 64, 127
1, 218858, Note_off_c, 0, 47, 40
1, 218887, Note_off_c, 0, 63, 34
1, 219213, Note_on_c, 0, 69, 65
1, 219218, Note_on_c, 0, 63, 57
1, 219222, Note_on_c, 0, 57, 53
1, 219240, Control_c, 0, 64, 124
1, 219254, Control_c, 0, 64, 113
1, 219265, Note_on_c, 0, 40, 45
1, 219269, Control_c, 0, 64, 106
1, 219284, Control_c, 0, 64, 101
1, 219299, Control_c, 0, 64, 98
1, 219314, Control_c, 0, 64, 94
1, 219328, Control_c, 0, 64, 89
1, 219343, Control_c, 0, 64, 84
1, 219358, Control_c, 0, 64, 79
1, 219373, Control_c, 0, 64, 74
1, 219388, Control_c, 0, 64, 67
1, 219403, Control_c, 0, 64, 59
1, 219418, Note_off_c, 0, 66, 0
1, 219418, Control_c, 0, 64, 40
1, 219433, Control_c, 0, 64, 0
1, 219488, Poly_aftertouch_c, 0, 66, 0
1, 219507, Control_c, 0, 64, 18
1, 219522, Control_c, 0, 64, 44
1, 219537, Control_c, 0, 64, 60
1, 219551, Control_c, 0, 64, 65
1, 219566, Control_c, 0, 64, 68
1, 219581, Control_c, 0, 64, 72
1, 219596, Control_c, 0, 64, 77
1, 219611, Control_c, 0, 64, 82
1, 219625, Control_c, 0, 64, 87
1, 219640, Control_c, 0, 64, 93
1, 219655, Control_c, 0, 64, 102
1, 219670, Control_c, 0, 64, 119
1, 219685, Control_c, 0, 64, 127
1, 219744, Note_off_c, 0, 69, 62
1, 219755, Note_on_c, 0, 47, 51
1, 219778, Note_off_c, 0, 57, 64
1, 220184, Note_on_c, 0, 68, 49
1, 220196, Control_c, 0, 64, 116
1, 220204, Note_on_c, 0, 64, 42
1, 220205, Note_on_c, 0, 56, 36
1, 220211, Control_c, 0, 64, 103
1, 220226, Control_c, 0, 64, 93
1, 220235, Note_on_c, 0, 52, 44
1, 220241, Control_c, 0, 64, 83
1, 220256, Control_c, 0, 64, 75
1, 220271, Control_c, 0, 64, 69
1, 220286, Control_c, 0, 64, 63
1, 220301, Control_c, 0, 64, 56
1, 220316, Control_c, 0, 64, 47
1, 220330, Control_c, 0, 64, 30
1, 220345, Control_c, 0, 64, 0
1, 220375, Note_off_c, 0, 47, 30
1, 220412, Note_off_c, 0, 63, 29
1, 220463, Control_c, 0, 64, 31
1, 220478, Control_c, 0, 64, 45
1, 220493, Control_c, 0, 64, 55
1, 220508, Control_c, 0, 64, 60
1, 220522, Control_c, 0, 64, 63
1, 220537, Control_c, 0, 64, 65
1, 220552, Control_c, 0, 64, 67
1, 220574, Control_c, 0, 64, 70
1, 220589, Control_c, 0, 64, 74
1, 220604, Control_c, 0, 64, 78
1, 220619, Control_c, 0, 64, 82
1, 220634, Control_c, 0, 64, 86
1, 220634, Control_c, 0, 67, 9
1, 220648, Control_c, 0, 64, 91
1, 220648, Control_c, 0, 67, 9
1, 220655, Note_on_c, 0, 47, 40
1, 220663, Control_c, 0, 64, 97
1, 220663, Control_c, 0, 67, 10
1, 220678, Control_c, 0, 64, 102
1, 220678, Control_c, 0, 67, 11
1, 220693, Control_c, 0, 64, 106
1, 220693, Control_c, 0, 67, 12
1, 220707, Control_c, 0, 64, 109
1, 220707, Control_c, 0, 67, 13
1, 220722, Control_c, 0, 64, 111
1, 220737, Control_c, 0, 64, 115
1, 220737, Control_c, 0, 67, 13
1, 220742, Note_off_c, 0, 64, 34
1, 220748, Note_off_c, 0, 52, 34
1, 220752, Control_c, 0, 64, 120
1, 220767, Control_c, 0, 64, 127
1, 220767, Control_c, 0, 67, 14
1, 220779, Note_off_c, 0, 68, 60
1, 220781, Control_c, 0, 67, 15
1, 220796, Control_c, 0, 67, 19
1, 220811, Control_c, 0, 67, 23
1, 220818, Note_off_c, 0, 40, 40
1, 220826, Control_c, 0, 67, 27
1, 220841, Control_c, 0, 67, 32
1, 220855, Control_c, 0, 67, 37
1, 220870, Control_c, 0, 67, 45
1, 220873, Note_off_c, 0, 56, 40
1, 220885, Control_c, 0, 67, 50
1, 220900, Control_c, 0, 67, 55
1, 220915, Control_c, 0, 67, 57
1, 220930, Control_c, 0, 67, 56
1, 220945, Control_c, 0, 67, 57
1, 220960, Control_c, 0, 67, 58
1, 220974, Control_c, 0, 67, 59
1, 220989, Control_c, 0, 64, 124
1, 220989, Control_c, 0, 67, 61
1, 221004, Control_c, 0, 67, 61
1, 221019, Control_c, 0, 64, 122
1, 221034, Control_c, 0, 64, 119
1, 221049, Control_c, 0, 64, 117
1, 221049, Control_c, 0, 67, 61
1, 221064, Control_c, 0, 64, 116
1, 221064, Control_c, 0, 67, 60
1, 221079, Control_c, 0, 64, 115
1, 221079, Control_c, 0, 67, 60
1, 221094, Control_c, 0, 64, 114
1, 221094, Control_c, 0, 67, 59
1, 221109, Control_c, 0, 64, 113
1, 221123, Control_c, 0, 64, 111
1, 221138, Control_c, 0, 64, 110
1, 221138, Control_c, 0, 67, 60
1, 221153, Control_c, 0, 64, 109
1, 221168, Control_c, 0, 64, 108
1, 221183, Control_c, 0, 64, 105
1, 221197, Control_c, 0, 64, 102
1, 221212, Control_c, 0, 64, 99
1, 221215, Note_on_c, 0, 64, 48
1, 221227, Control_c, 0, 64, 95
1, 221242, Control_c, 0, 64, 91
1, 221242, Control_c, 0, 67, 60
1, 221245, Note_on_c, 0, 55, 36
1, 221251, Note_on_c, 0, 60, 33
1, 221257, Control_c, 0, 64, 88
1, 221271, Control_c, 0, 64, 85
1, 221271, Control_c, 0, 67, 61
1, 221283, Note_on_c, 0, 40, 42
1, 221286, Control_c, 0, 64, 82
1, 221286, Control_c, 0, 67, 61
1, 221301, Control_c, 0, 64, 79
1, 221301, Control_c, 0, 67, 62
1, 221323, Control_c, 0, 64, 75
1, 221338, Control_c, 0, 64, 72
1, 221338, Control_c, 0, 67, 62
1, 221353, Control_c, 0, 64, 69
1, 221353, Control_c, 0, 67, 63
1, 221368, Control_c, 0, 64, 66
1, 221368, Control_c, 0, 67, 64
1, 221383, Control_c, 0, 64, 64
1, 221383, Control_c, 0, 67, 67
1, 221397, Control_c, 0, 64, 63
1, 221397, Control_c, 0, 67, 69
1, 221412, Control_c, 0, 64, 62
1, 221412, Control_c, 0, 67, 69
1, 221427, Control_c, 0, 64, 61
1, 221427, Control_c, 0, 67, 70
1, 221442, Control_c, 0, 67, 71
1, 221457, Control_c, 0, 64, 61
1, 221457, Control_c, 0, 67, 72
1, 221471, Control_c, 0, 67, 73
1, 221486, Control_c, 0, 64, 60
1, 221497, Note_off_c, 0, 47, 32
1, 221501, Control_c, 0, 64, 60
1, 221501, Control_c, 0, 67, 72
1, 221530, Control_c, 0, 64, 59
1, 221545, Control_c, 0, 64, 59
1, 221575, Control_c, 0, 64, 58
1, 221609, Note_on_c, 0, 43, 43
1, 221619, Control_c, 0, 64, 58
1, 221634, Control_c, 0, 67, 72
1, 221649, Control_c, 0, 64, 57
1, 221678, Control_c, 0, 64, 57
1, 221678, Control_c, 0, 67, 71
1, 221693, Control_c, 0, 64, 56
1, 221708, Control_c, 0, 64, 56
1, 221738, Control_c, 0, 64, 55
1, 221767, Control_c, 0, 67, 71
1, 221782, Control_c, 0, 64, 55
1, 221798, Control_c, 0, 67, 70
1, 221813, Control_c, 0, 64, 54
1, 221872, Control_c, 0, 67, 70
1, 221934, Note_on_c, 0, 66, 61
1, 221961, Control_c, 0, 64, 54
1, 222035, Control_c, 0, 67, 70
1, 222048, Note_on_c, 0, 48, 39
1, 222050, Control_c, 0, 67, 71
1, 222087, Control_c, 0, 67, 71
1, 222115, Note_off_c, 0, 64, 54
1, 222116, Control_c, 0, 67, 72
1, 222146, Control_c, 0, 67, 72
1, 222176, Control_c, 0, 67, 73
1, 222217, Note_off_c, 0, 43, 33
1, 222235, Control_c, 0, 67, 73
1, 222293, Control_c, 0, 67, 74
1, 222320, Note_on_c, 0, 52, 35
1, 222323, Control_c, 0, 67, 74
1, 222375, Note_off_c, 0, 48, 41
1, 222501, Control_c, 0, 67, 74
1, 222545, Control_c, 0, 67, 74
1, 222568, Note_on_c, 0, 64, 41
1, 222601, Note_on_c, 0, 48, 33
1, 222625, Note_off_c, 0, 52, 38
1, 222650, Control_c, 0, 67, 75
1, 222712, Note_off_c, 0, 66, 36
1, 222724, Control_c, 0, 64, 53
1, 222724, Control_c, 0, 67, 74
1, 222739, Control_c, 0, 64, 52
1, 222754, Control_c, 0, 64, 51
1, 222754, Control_c, 0, 67, 74
1, 222783, Control_c, 0, 67, 73
1, 222820, Control_c, 0, 64, 52
1, 222820, Control_c, 0, 67, 72
1, 222835, Control_c, 0, 64, 54
1, 222835, Control_c, 0, 67, 72
1, 222849, Control_c, 0, 64, 57
1, 222849, Control_c, 0, 67, 71
1, 222864, Control_c, 0, 64, 60
1, 222879, Control_c, 0, 64, 63
1, 222879, Control_c, 0, 67, 71
1, 222884, Note_on_c, 0, 43, 41
1, 222894, Control_c, 0, 64, 65
1, 222894, Control_c, 0, 67, 70
1, 222909, Control_c, 0, 64, 67
1, 222909, Control_c, 0, 67, 70
1, 222924, Control_c, 0, 64, 70
1, 222924, Control_c, 0, 67, 69
1, 222939, Control_c, 0, 64, 73
1, 222954, Control_c, 0, 64, 77
1, 222954, Control_c, 0, 67, 69
1, 222969, Control_c, 0, 64, 80
1, 222983, Control_c, 0, 64, 82
1, 222994, Note_off_c, 0, 40, 34
1, 222998, Control_c, 0, 64, 83
1, 223013, Control_c, 0, 64, 84
1, 223013, Control_c, 0, 67, 68
1, 223019, Note_off_c, 0, 48, 26
1, 223019, Note_off_c, 0, 60, 39
1, 223019, Note_off_c, 0, 55, 27
1, 223042, Control_c, 0, 64, 84
1, 223057, Control_c, 0, 64, 85
1, 223072, Control_c, 0, 67, 68
1, 223077, Note_off_c, 0, 64, 45
1, 223087, Control_c, 0, 67, 67
1, 223161, Control_c, 0, 67, 67
1, 223190, Control_c, 0, 64, 84
1, 223205, Control_c, 0, 64, 84
1, 223235, Control_c, 0, 64, 83
1, 223249, Control_c, 0, 64, 82
1, 223251, Note_on_c, 0, 40, 37
1, 223264, Control_c, 0, 64, 82
1, 223264, Control_c, 0, 67, 66
1, 223279, Control_c, 0, 64, 81
1, 223294, Control_c, 0, 64, 81
1, 223308, Control_c, 0, 64, 80
1, 223323, Control_c, 0, 64, 79
1, 223323, Control_c, 0, 67, 66
1, 223338, Control_c, 0, 64, 79
1, 223341, Note_on_c, 0, 64, 51
1, 223353, Control_c, 0, 64, 78
1, 223364, Note_on_c, 0, 55, 38
1, 223364, Note_on_c, 0, 61, 41
1, 223368, Control_c, 0, 64, 77
1, 223383, Control_c, 0, 64, 76
1, 223383, Control_c, 0, 67, 65
1, 223389, Note_off_c, 0, 43, 39
1, 223398, Control_c, 0, 64, 75
1, 223413, Control_c, 0, 64, 74
1, 223413, Control_c, 0, 67, 65
1, 223428, Control_c, 0, 64, 73
1, 223428, Control_c, 0, 67, 64
1, 223443, Control_c, 0, 64, 72
1, 223458, Control_c, 0, 64, 71
1, 223458, Control_c, 0, 67, 64
1, 223472, Control_c, 0, 64, 70
1, 223472, Control_c, 0, 67, 63
1, 223487, Control_c, 0, 64, 70
1, 223487, Control_c, 0, 67, 63
1, 223502, Control_c, 0, 64, 69
1, 223502, Control_c, 0, 67, 62
1, 223517, Control_c, 0, 64, 68
1, 223517, Control_c, 0, 67, 62
1, 223532, Control_c, 0, 64, 68
1, 223532, Control_c, 0, 67, 61
1, 223547, Control_c, 0, 64, 67
1, 223569, Control_c, 0, 64, 67
1, 223569, Control_c, 0, 67, 60
1, 223584, Control_c, 0, 64, 66
1, 223584, Control_c, 0, 67, 60
1, 223598, Control_c, 0, 64, 66
1, 223598, Control_c, 0, 67, 59
1, 223607, Note_on_c, 0, 43, 46
1, 223613, Control_c, 0, 67, 58
1, 223643, Control_c, 0, 67, 57
1, 223658, Control_c, 0, 64, 65
1, 223658, Control_c, 0, 67, 56
1, 223672, Control_c, 0, 67, 52
1, 223687, Control_c, 0, 67, 48
1, 223702, Control_c, 0, 67, 45
1, 223717, Control_c, 0, 64, 65
1, 223717, Control_c, 0, 67, 43
1, 223732, Control_c, 0, 67, 42
1, 223747, Control_c, 0, 67, 40
1, 223762, Control_c, 0, 67, 38
1, 223776, Control_c, 0, 67, 37
1, 223790, Control_c, 0, 67, 35
1, 223805, Control_c, 0, 67, 35
1, 223820, Control_c, 0, 64, 64
1, 223835, Control_c, 0, 67, 34
1, 223864, Control_c, 0, 67, 34
1, 223894, Control_c, 0, 67, 33
1, 223915, Note_on_c, 0, 66, 66
1, 223923, Control_c, 0, 64, 64
1, 223923, Control_c, 0, 67, 32
1, 223938, Control_c, 0, 67, 30
1, 223953, Control_c, 0, 67, 28
1, 223964, Note_on_c, 0, 49, 43
1, 223968, Control_c, 0, 64, 63
1, 224054, Note_off_c, 0, 64, 53
1, 224102, Note_off_c, 0, 43, 36
1, 224212, Note_on_c, 0, 52, 40
1, 224255, Note_off_c, 0, 49, 33
1, 224435, Control_c, 0, 64, 63
1, 224469, Note_on_c, 0, 64, 49
1, 224486, Note_off_c, 0, 52, 41
1, 224488, Note_on_c, 0, 49, 40
1, 224510, Control_c, 0, 64, 62
1, 224525, Control_c, 0, 64, 61
1, 224539, Control_c, 0, 64, 59
1, 224546, Note_off_c, 0, 66, 33
1, 224554, Control_c, 0, 64, 55
1, 224569, Control_c, 0, 64, 51
1, 224584, Control_c, 0, 64, 46
1, 224599, Control_c, 0, 64, 43
1, 224613, Control_c, 0, 64, 44
1, 224628, Control_c, 0, 64, 47
1, 224643, Control_c, 0, 64, 53
1, 224658, Control_c, 0, 64, 59
1, 224673, Control_c, 0, 64, 63
1, 224687, Control_c, 0, 64, 66
1, 224696, Note_off_c, 0, 55, 44
1, 224702, Control_c, 0, 64, 69
1, 224717, Control_c, 0, 64, 72
1, 224732, Control_c, 0, 64, 76
1, 224740, Note_off_c, 0, 61, 48
1, 224745, Note_off_c, 0, 49, 35
1, 224746, Control_c, 0, 64, 79
1, 224750, Note_on_c, 0, 43, 39
1, 224761, Control_c, 0, 64, 82
1, 224776, Control_c, 0, 64, 84
1, 224780, Note_off_c, 0, 64, 60
1, 224791, Control_c, 0, 64, 86
1, 224799, Note_off_c, 0, 40, 36
1, 224806, Control_c, 0, 64, 87
1, 224850, Control_c, 0, 64, 88
1, 224880, Control_c, 0, 67, 28
1, 224909, Control_c, 0, 64, 87
1, 224969, Control_c, 0, 64, 86
1, 224984, Control_c, 0, 64, 84
1, 224999, Control_c, 0, 64, 82
1, 225008, Note_on_c, 0, 47, 40
1, 225010, Note_on_c, 0, 40, 40
1, 225014, Control_c, 0, 64, 80
1, 225029, Control_c, 0, 64, 77
1, 225043, Note_off_c, 0, 43, 31
1, 225043, Control_c, 0, 64, 72
1, 225066, Control_c, 0, 64, 66
1, 225074, Note_on_c, 0, 64, 56
1, 225081, Control_c, 0, 64, 58
1, 225096, Control_c, 0, 64, 49
1, 225106, Note_on_c, 0, 62, 39
1, 225110, Control_c, 0, 64, 45
1, 225116, Note_on_c, 0, 56, 24
1, 225125, Control_c, 0, 64, 47
1, 225140, Control_c, 0, 64, 53
1, 225155, Control_c, 0, 64, 59
1, 225169, Control_c, 0, 64, 62
1, 225184, Control_c, 0, 64, 65
1, 225199, Control_c, 0, 64, 68
1, 225214, Control_c, 0, 64, 72
1, 225229, Control_c, 0, 64, 76
1, 225238, Note_off_c, 0, 40, 33
1, 225243, Control_c, 0, 64, 78
1, 225256, Note_off_c, 0, 56, 22
1, 225258, Control_c, 0, 64, 81
1, 225264, Note_off_c, 0, 62, 43
1, 225274, Control_c, 0, 64, 82
1, 225279, Note_off_c, 0, 47, 41
1, 225289, Control_c, 0, 64, 83
1, 225304, Control_c, 0, 64, 84
1, 225311, Note_on_c, 0, 52, 45
1, 225318, Control_c, 0, 64, 84
1, 225333, Control_c, 0, 64, 85
1, 225556, Control_c, 0, 64, 84
1, 225573, Note_on_c, 0, 71, 58
1, 225585, Control_c, 0, 64, 84
1, 225600, Control_c, 0, 64, 83
1, 225609, Note_on_c, 0, 56, 41
1, 225615, Control_c, 0, 64, 83
1, 225630, Control_c, 0, 64, 82
1, 225631, Note_off_c, 0, 52, 39
1, 225633, Note_off_c, 0, 64, 43
1, 225659, Control_c, 0, 64, 82
1, 225674, Control_c, 0, 64, 81
1, 225703, Control_c, 0, 64, 81
1, 225748, Control_c, 0, 64, 80
1, 225777, Control_c, 0, 64, 80
1, 225793, Control_c, 0, 64, 79
1, 225830, Control_c, 0, 64, 79
1, 225853, Note_on_c, 0, 52, 46
1, 225860, Control_c, 0, 64, 78
1, 225875, Control_c, 0, 64, 78
1, 225905, Control_c, 0, 64, 77
1, 225920, Control_c, 0, 64, 77
1, 225935, Control_c, 0, 64, 76
1, 225949, Control_c, 0, 64, 76
1, 225964, Control_c, 0, 64, 75
1, 225968, Note_off_c, 0, 56, 29
1, 225979, Control_c, 0, 64, 75
1, 226008, Control_c, 0, 64, 74
1, 226023, Control_c, 0, 64, 74
1, 226053, Control_c, 0, 64, 73
1, 226082, Control_c, 0, 64, 73
1, 226097, Control_c, 0, 64, 72
1, 226111, Control_c, 0, 64, 72
1, 226126, Control_c, 0, 64, 71
1, 226141, Control_c, 0, 64, 70
1, 226149, Note_on_c, 0, 57, 47
1, 226156, Control_c, 0, 64, 69
1, 226171, Control_c, 0, 64, 69
1, 226185, Control_c, 0, 64, 68
1, 226200, Control_c, 0, 64, 68
1, 226215, Control_c, 0, 64, 67
1, 226230, Control_c, 0, 64, 66
1, 226236, Note_on_c, 0, 69, 56
1, 226245, Control_c, 0, 64, 65
1, 226259, Note_on_c, 0, 64, 34
1, 226260, Control_c, 0, 64, 64
1, 226274, Control_c, 0, 64, 63
1, 226278, Note_on_c, 0, 62, 35
1, 226289, Note_off_c, 0, 52, 34
1, 226289, Control_c, 0, 64, 61
1, 226304, Control_c, 0, 64, 58
1, 226319, Control_c, 0, 64, 54
1, 226334, Control_c, 0, 64, 52
1, 226349, Control_c, 0, 64, 51
1, 226379, Control_c, 0, 64, 53
1, 226382, Note_off_c, 0, 71, 37
1, 226393, Control_c, 0, 64, 56
1, 226408, Control_c, 0, 64, 59
1, 226423, Control_c, 0, 64, 62
1, 226438, Control_c, 0, 64, 64
1, 226453, Control_c, 0, 64, 66
1, 226467, Control_c, 0, 64, 68
1, 226470, Note_off_c, 0, 62, 53
1, 226482, Control_c, 0, 64, 71
1, 226497, Control_c, 0, 64, 73
1, 226499, Note_on_c, 0, 52, 38
1, 226507, Note_off_c, 0, 64, 35
1, 226511, Control_c, 0, 64, 74
1, 226526, Control_c, 0, 64, 76
1, 226541, Control_c, 0, 64, 77
1, 226564, Control_c, 0, 64, 78
1, 226579, Control_c, 0, 64, 79
1, 226607, Note_off_c, 0, 57, 32
1, 226728, Control_c, 0, 64, 78
1, 226742, Control_c, 0, 64, 78
1, 226748, Note_off_c, 0, 69, 54
1, 226750, Note_on_c, 0, 68, 55
1, 226757, Control_c, 0, 64, 77
1, 226769, Note_on_c, 0, 59, 45
1, 226772, Control_c, 0, 64, 76
1, 226787, Note_on_c, 0, 64, 24
1, 226787, Control_c, 0, 64, 74
1, 226796, Note_on_c, 0, 62, 28
1, 226802, Control_c, 0, 64, 72
1, 226816, Control_c, 0, 64, 68
1, 226831, Control_c, 0, 64, 63
1, 226838, Note_off_c, 0, 52, 37
1, 226846, Control_c, 0, 64, 57
1, 226861, Control_c, 0, 64, 51
1, 226876, Control_c, 0, 64, 50
1, 226890, Control_c, 0, 64, 52
1, 226905, Control_c, 0, 64, 56
1, 226920, Control_c, 0, 64, 60
1, 226930, Note_off_c, 0, 62, 42
1, 226934, Control_c, 0, 64, 64
1, 226949, Control_c, 0, 64, 67
1, 226964, Control_c, 0, 64, 70
1, 226979, Control_c, 0, 64, 74
1, 226994, Control_c, 0, 64, 77
1, 227008, Control_c, 0, 64, 80
1, 227023, Control_c, 0, 64, 82
1, 227038, Control_c, 0, 64, 84
1, 227051, Note_on_c, 0, 52, 43
1, 227053, Control_c, 0, 64, 86
1, 227067, Note_off_c, 0, 59, 30
1, 227068, Control_c, 0, 64, 88
1, 227082, Control_c, 0, 64, 89
1, 227097, Control_c, 0, 64, 91
1, 227112, Control_c, 0, 64, 93
1, 227127, Control_c, 0, 64, 93
1, 227142, Control_c, 0, 64, 94
1, 227145, Note_off_c, 0, 52, 54
1, 227187, Control_c, 0, 64, 94
1, 227327, Control_c, 0, 64, 94
1, 227371, Control_c, 0, 64, 93
1, 227387, Control_c, 0, 64, 92
1, 227402, Control_c, 0, 64, 91
1, 227417, Control_c, 0, 64, 90
1, 227432, Control_c, 0, 64, 89
1, 227446, Control_c, 0, 64, 87
1, 227457, Note_on_c, 0, 71, 46
1, 227458, Note_on_c, 0, 62, 44
1, 227461, Control_c, 0, 64, 86
1, 227472, Note_off_c, 0, 64, 13
1, 227476, Control_c, 0, 64, 83
1, 227491, Control_c, 0, 64, 81
1, 227494, Note_on_c, 0, 45, 36
1, 227506, Control_c, 0, 64, 79
1, 227520, Control_c, 0, 64, 77
1, 227535, Control_c, 0, 64, 75
1, 227550, Control_c, 0, 64, 73
1, 227564, Control_c, 0, 64, 70
1, 227579, Control_c, 0, 64, 67
1, 227594, Control_c, 0, 64, 64
1, 227609, Control_c, 0, 64, 61
1, 227624, Control_c, 0, 64, 56
1, 227638, Control_c, 0, 64, 51
1, 227653, Control_c, 0, 64, 47
1, 227668, Control_c, 0, 64, 46
1, 227683, Control_c, 0, 64, 47
1, 227698, Control_c, 0, 64, 50
1, 227712, Control_c, 0, 64, 54
1, 227727, Control_c, 0, 64, 59
1, 227742, Control_c, 0, 64, 62
1, 227756, Control_c, 0, 64, 64
1, 227771, Control_c, 0, 64, 66
1, 227786, Control_c, 0, 64, 69
1, 227801, Control_c, 0, 64, 71
1, 227816, Control_c, 0, 64, 73
1, 227830, Control_c, 0, 64, 75
1, 227845, Control_c, 0, 64, 77
1, 227851, Note_on_c, 0, 52, 39
1, 227860, Control_c, 0, 64, 78
1, 227875, Control_c, 0, 64, 79
1, 227890, Control_c, 0, 64, 80
1, 227920, Control_c, 0, 64, 80
1, 227935, Control_c, 0, 64, 81
1, 228105, Control_c, 0, 64, 80
1, 228120, Control_c, 0, 64, 79
1, 228124, Note_off_c, 0, 71, 33
1, 228135, Control_c, 0, 64, 79
1, 228149, Control_c, 0, 64, 77
1, 228152, Note_on_c, 0, 64, 40
1, 228164, Control_c, 0, 64, 76
1, 228164, Note_on_c, 0, 56, 35
1, 228179, Control_c, 0, 64, 74
1, 228194, Control_c, 0, 64, 71
1, 228209, Control_c, 0, 64, 66
1, 228220, Note_off_c, 0, 68, 28
1, 228224, Control_c, 0, 64, 61
1, 228239, Control_c, 0, 64, 53
1, 228244, Note_off_c, 0, 52, 37
1, 228254, Control_c, 0, 64, 47
1, 228269, Control_c, 0, 64, 46
1, 228284, Control_c, 0, 64, 49
1, 228299, Control_c, 0, 64, 53
1, 228314, Control_c, 0, 64, 58
1, 228319, Note_off_c, 0, 62, 34
1, 228329, Control_c, 0, 64, 62
1, 228343, Control_c, 0, 64, 65
1, 228358, Control_c, 0, 64, 68
1, 228373, Control_c, 0, 64, 71
1, 228388, Control_c, 0, 64, 74
1, 228403, Control_c, 0, 64, 78
1, 228403, Control_c, 0, 67, 27
1, 228418, Control_c, 0, 64, 81
1, 228433, Control_c, 0, 64, 83
1, 228444, Note_off_c, 0, 64, 41
1, 228448, Control_c, 0, 64, 85
1, 228462, Control_c, 0, 64, 87
1, 228477, Control_c, 0, 64, 89
1, 228486, Note_on_c, 0, 52, 32
1, 228492, Control_c, 0, 64, 90
1, 228506, Control_c, 0, 64, 91
1, 228521, Control_c, 0, 64, 92
1, 228536, Control_c, 0, 64, 92
1, 228551, Note_off_c, 0, 45, 36
1, 228551, Control_c, 0, 64, 93
1, 228551, Control_c, 0, 67, 27
1, 228564, Note_off_c, 0, 56, 38
1, 228566, Control_c, 0, 64, 93
1, 228684, Control_c, 0, 67, 26
1, 228773, Control_c, 0, 64, 93
1, 228787, Control_c, 0, 64, 92
1, 228810, Control_c, 0, 64, 91
1, 228825, Control_c, 0, 64, 90
1, 228840, Control_c, 0, 64, 89
1, 228855, Control_c, 0, 64, 88
1, 228869, Control_c, 0, 64, 87
1, 228884, Control_c, 0, 64, 86
1, 228899, Control_c, 0, 64, 84
1, 228901, Note_on_c, 0, 69, 46
1, 228913, Control_c, 0, 64, 82
1, 228914, Note_on_c, 0, 65, 36
1, 228927, Note_on_c, 0, 60, 32
1, 228928, Control_c, 0, 64, 80
1, 228928, Control_c, 0, 67, 26
1, 228943, Control_c, 0, 64, 78
1, 228958, Control_c, 0, 64, 76
1, 228972, Note_on_c, 0, 45, 33
1, 228973, Control_c, 0, 64, 74
1, 228989, Control_c, 0, 64, 72
1, 229003, Control_c, 0, 64, 70
1, 229018, Control_c, 0, 64, 68
1, 229033, Control_c, 0, 64, 65
1, 229048, Control_c, 0, 64, 62
1, 229048, Control_c, 0, 67, 25
1, 229063, Control_c, 0, 64, 58
1, 229078, Control_c, 0, 64, 53
1, 229078, Control_c, 0, 67, 24
1, 229092, Control_c, 0, 64, 45
1, 229092, Control_c, 0, 67, 19
1, 229107, Control_c, 0, 64, 36
1, 229107, Control_c, 0, 67, 15
1, 229122, Note_off_c, 0, 52, 34
1, 229122, Control_c, 0, 64, 26
1, 229122, Control_c, 0, 67, 13
1, 229136, Control_c, 0, 64, 23
1, 229136, Control_c, 0, 67, 12
1, 229151, Control_c, 0, 64, 23
1, 229151, Control_c, 0, 67, 11
1, 229166, Control_c, 0, 64, 29
1, 229166, Control_c, 0, 67, 9
1, 229181, Control_c, 0, 64, 41
1, 229181, Control_c, 0, 67, 0
1, 229196, Control_c, 0, 64, 50
1, 229211, Control_c, 0, 64, 57
1, 229226, Control_c, 0, 64, 60
1, 229240, Control_c, 0, 64, 62
1, 229255, Control_c, 0, 64, 63
1, 229270, Control_c, 0, 64, 65
1, 229274, Note_on_c, 0, 48, 33
1, 229285, Control_c, 0, 64, 67
1, 229300, Control_c, 0, 64, 69
1, 229315, Control_c, 0, 64, 70
1, 229329, Control_c, 0, 64, 72
1, 229344, Control_c, 0, 64, 73
1, 229359, Control_c, 0, 64, 75
1, 229374, Control_c, 0, 64, 76
1, 229389, Control_c, 0, 64, 77
1, 229403, Control_c, 0, 64, 79
1, 229418, Control_c, 0, 64, 79
1, 229433, Control_c, 0, 64, 80
1, 229448, Control_c, 0, 64, 81
1, 229477, Control_c, 0, 64, 81
1, 229492, Control_c, 0, 64, 82
1, 229589, Control_c, 0, 64, 82
1, 229632, Note_on_c, 0, 71, 53
1, 229648, Control_c, 0, 64, 83
1, 229663, Control_c, 0, 64, 83
1, 229674, Note_on_c, 0, 53, 25
1, 229692, Control_c, 0, 64, 84
1, 229707, Control_c, 0, 64, 85
1, 229722, Control_c, 0, 64, 86
1, 229736, Control_c, 0, 64, 87
1, 229739, Note_off_c, 0, 48, 34
1, 229751, Control_c, 0, 64, 87
1, 229766, Control_c, 0, 64, 88
1, 229781, Note_off_c, 0, 69, 45
1, 229782, Control_c, 0, 64, 88
1, 229797, Control_c, 0, 64, 89
1, 229812, Control_c, 0, 64, 90
1, 229826, Control_c, 0, 64, 91
1, 229841, Control_c, 0, 64, 91
1, 229871, Control_c, 0, 64, 92
1, 229886, Control_c, 0, 64, 92
1, 229915, Control_c, 0, 64, 93
1, 229923, Note_on_c, 0, 57, 46
1, 229945, Control_c, 0, 64, 94
1, 229959, Control_c, 0, 64, 94
1, 229964, Note_off_c, 0, 53, 39
1, 229989, Control_c, 0, 64, 95
1, 230004, Control_c, 0, 64, 95
1, 230019, Control_c, 0, 64, 96
1, 230048, Control_c, 0, 64, 96
1, 230078, Control_c, 0, 64, 97
1, 230123, Control_c, 0, 64, 97
1, 230182, Note_off_c, 0, 57, 39
1, 230188, Note_on_c, 0, 69, 66
1, 230194, Note_on_c, 0, 53, 47
1, 230313, Note_off_c, 0, 45, 35
1, 230367, Control_c, 0, 64, 98
1, 230391, Note_off_c, 0, 71, 25
1, 230397, Control_c, 0, 64, 98
1, 230412, Control_c, 0, 64, 99
1, 230427, Control_c, 0, 64, 99
1, 230441, Control_c, 0, 64, 100
1, 230456, Note_off_c, 0, 53, 28
1, 230456, Control_c, 0, 64, 101
1, 230458, Note_on_c, 0, 48, 51
1, 230481, Note_off_c, 0, 65, 41
1, 230482, Note_off_c, 0, 60, 38
1, 230485, Control_c, 0, 64, 101
1, 230516, Note_off_c, 0, 48, 62
1, 230517, Note_off_c, 0, 69, 60
1, 230738, Control_c, 0, 64, 101
1, 230753, Control_c, 0, 64, 99
1, 230761, Note_on_c, 0, 69, 68
1, 230768, Control_c, 0, 64, 97
1, 230774, Note_on_c, 0, 60, 55
1, 230777, Note_on_c, 0, 63, 62
1, 230782, Control_c, 0, 64, 94
1, 230797, Control_c, 0, 64, 90
1, 230803, Note_on_c, 0, 41, 57
1, 230812, Control_c, 0, 64, 85
1, 230827, Control_c, 0, 64, 77
1, 230842, Control_c, 0, 64, 67
1, 230856, Control_c, 0, 64, 57
1, 230871, Control_c, 0, 64, 43
1, 230886, Control_c, 0, 64, 41
1, 230901, Control_c, 0, 64, 49
1, 230916, Control_c, 0, 64, 58
1, 230931, Control_c, 0, 64, 65
1, 230946, Control_c, 0, 64, 70
1, 230960, Control_c, 0, 64, 78
1, 230975, Control_c, 0, 64, 88
1, 230990, Control_c, 0, 64, 99
1, 231005, Control_c, 0, 64, 113
1, 231020, Control_c, 0, 64, 127
1, 231031, Note_on_c, 0, 48, 61
1, 231065, Note_off_c, 0, 41, 54
1, 231291, Note_on_c, 0, 51, 64
1, 231360, Note_off_c, 0, 48, 29
1, 231362, Note_on_c, 0, 72, 79
1, 231490, Note_off_c, 0, 69, 32
1, 231553, Note_on_c, 0, 57, 64
1, 231554, Note_off_c, 0, 51, 56
1, 231811, Note_off_c, 0, 57, 27
1, 231816, Note_on_c, 0, 69, 80
1, 231827, Note_on_c, 0, 51, 62
1, 231879, Note_off_c, 0, 72, 33
1, 232030, Note_off_c, 0, 51, 63
1, 232034, Note_off_c, 0, 60, 30
1, 232043, Note_off_c, 0, 63, 58
1, 232052, Note_on_c, 0, 48, 61
1, 232099, Note_off_c, 0, 48, 64
1, 232102, Note_off_c, 0, 69, 64
1, 232310, Control_c, 0, 64, 89
1, 232316, Note_on_c, 0, 39, 70
1, 232321, Note_on_c, 0, 69, 82
1, 232325, Control_c, 0, 64, 69
1, 232340, Control_c, 0, 64, 55
1, 232341, Note_on_c, 0, 60, 59
1, 232343, Note_on_c, 0, 66, 58
1, 232354, Control_c, 0, 64, 47
1, 232369, Control_c, 0, 64, 54
1, 232384, Control_c, 0, 64, 63
1, 232399, Control_c, 0, 64, 74
1, 232414, Control_c, 0, 64, 95
1, 232428, Control_c, 0, 64, 127
1, 232463, Note_off_c, 0, 60, 54
1, 232522, Note_off_c, 0, 66, 52
1, 232558, Note_off_c, 0, 39, 60
1, 232586, Note_off_c, 0, 69, 66
1, 232600, Note_on_c, 0, 48, 68
1, 232846, Note_on_c, 0, 78, 86
1, 232876, Note_off_c, 0, 48, 34
1, 232913, Note_on_c, 0, 57, 42
1, 233148, Note_on_c, 0, 51, 66
1, 233193, Note_off_c, 0, 57, 55
1, 233441, Note_on_c, 0, 57, 65
1, 233523, Note_on_c, 0, 72, 80
1, 233525, Note_off_c, 0, 51, 32
1, 233730, Note_off_c, 0, 78, 25
1, 233805, Note_on_c, 0, 60, 75
1, 233965, Note_off_c, 0, 57, 26
1, 234177, Note_on_c, 0, 66, 75
1, 234257, Note_off_c, 0, 60, 54
1, 234431, Note_on_c, 0, 69, 79
1, 234455, Note_on_c, 0, 60, 56
1, 234471, Note_off_c, 0, 72, 61
1, 234504, Note_off_c, 0, 66, 60
1, 234716, Note_on_c, 0, 57, 64
1, 234803, Note_on_c, 0, 68, 80
1, 234815, Control_c, 0, 64, 122
1, 234828, Note_off_c, 0, 60, 56
1, 234829, Control_c, 0, 64, 113
1, 234844, Control_c, 0, 64, 109
1, 234859, Control_c, 0, 64, 107
1, 234865, Note_off_c, 0, 69, 62
1, 234874, Control_c, 0, 64, 105
1, 234889, Control_c, 0, 64, 102
1, 234903, Control_c, 0, 64, 100
1, 234918, Control_c, 0, 64, 98
1, 234933, Control_c, 0, 64, 97
1, 234947, Control_c, 0, 64, 95
1, 234962, Control_c, 0, 64, 94
1, 234977, Control_c, 0, 64, 93
1, 234992, Control_c, 0, 64, 92
1, 235007, Control_c, 0, 64, 92
1, 235081, Control_c, 0, 64, 91
1, 235085, Note_on_c, 0, 60, 65
1, 235110, Control_c, 0, 64, 91
1, 235125, Control_c, 0, 64, 88
1, 235140, Control_c, 0, 64, 80
1, 235154, Note_off_c, 0, 57, 56
1, 235155, Control_c, 0, 64, 71
1, 235169, Control_c, 0, 64, 65
1, 235184, Control_c, 0, 64, 63
1, 235199, Control_c, 0, 64, 64
1, 235214, Control_c, 0, 64, 67
1, 235229, Control_c, 0, 64, 71
1, 235244, Control_c, 0, 64, 78
1, 235259, Control_c, 0, 64, 85
1, 235273, Control_c, 0, 64, 90
1, 235288, Control_c, 0, 64, 94
1, 235303, Control_c, 0, 64, 98
1, 235318, Control_c, 0, 64, 105
1, 235333, Control_c, 0, 64, 115
1, 235347, Control_c, 0, 64, 127
1, 235393, Note_on_c, 0, 57, 59
1, 235393, Control_c, 0, 67, 10
1, 235396, Note_off_c, 0, 60, 56
1, 235408, Control_c, 0, 67, 11
1, 235423, Control_c, 0, 67, 12
1, 235437, Control_c, 0, 67, 14
1, 235452, Control_c, 0, 67, 16
1, 235467, Control_c, 0, 67, 18
1, 235477, Note_off_c, 0, 57, 63
1, 235482, Control_c, 0, 67, 21
1, 235497, Control_c, 0, 67, 26
1, 235512, Control_c, 0, 67, 32
1, 235526, Control_c, 0, 67, 40
1, 235548, Control_c, 0, 67, 46
1, 235563, Control_c, 0, 67, 49
1, 235578, Control_c, 0, 67, 50
1, 235593, Control_c, 0, 67, 49
1, 235608, Control_c, 0, 67, 48
1, 235623, Control_c, 0, 67, 48
1, 235637, Control_c, 0, 67, 47
1, 235652, Control_c, 0, 67, 46
1, 235667, Control_c, 0, 67, 45
1, 235682, Control_c, 0, 67, 45
1, 235695, Note_on_c, 0, 52, 59
1, 235697, Control_c, 0, 67, 44
1, 235712, Control_c, 0, 67, 44
1, 235726, Control_c, 0, 67, 43
1, 235741, Control_c, 0, 67, 43
1, 235757, Control_c, 0, 64, 124
1, 235771, Control_c, 0, 64, 119
1, 235771, Control_c, 0, 67, 42
1, 235786, Control_c, 0, 64, 116
1, 235801, Control_c, 0, 64, 113
1, 235801, Control_c, 0, 67, 42
1, 235816, Control_c, 0, 64, 111
1, 235831, Control_c, 0, 64, 109
1, 235831, Control_c, 0, 67, 41
1, 235845, Control_c, 0, 64, 108
1, 235860, Control_c, 0, 64, 107
1, 235875, Control_c, 0, 64, 106
1, 235875, Control_c, 0, 67, 41
1, 235890, Control_c, 0, 64, 104
1, 235904, Control_c, 0, 64, 102
1, 235919, Control_c, 0, 64, 100
1, 235919, Control_c, 0, 67, 40
1, 235934, Control_c, 0, 64, 98
1, 235949, Control_c, 0, 64, 97
1, 235964, Control_c, 0, 64, 96
1, 235978, Control_c, 0, 64, 95
1, 235978, Control_c, 0, 67, 40
1, 235993, Control_c, 0, 64, 94
1, 236008, Control_c, 0, 64, 92
1, 236008, Control_c, 0, 67, 39
1, 236020, Note_on_c, 0, 66, 69
1, 236023, Control_c, 0, 64, 90
1, 236023, Control_c, 0, 67, 39
1, 236038, Control_c, 0, 64, 88
1, 236046, Note_on_c, 0, 48, 54
1, 236052, Control_c, 0, 64, 85
1, 236052, Control_c, 0, 67, 38
1, 236067, Control_c, 0, 64, 82
1, 236082, Control_c, 0, 64, 79
1, 236097, Control_c, 0, 64, 76
1, 236111, Control_c, 0, 64, 72
1, 236126, Control_c, 0, 64, 67
1, 236126, Control_c, 0, 67, 38
1, 236141, Control_c, 0, 64, 63
1, 236156, Control_c, 0, 64, 56
1, 236172, Control_c, 0, 64, 50
1, 236172, Control_c, 0, 67, 37
1, 236187, Control_c, 0, 64, 46
1, 236188, Note_off_c, 0, 68, 52
1, 236216, Control_c, 0, 64, 50
1, 236231, Control_c, 0, 64, 56
1, 236246, Control_c, 0, 64, 62
1, 236246, Control_c, 0, 67, 37
1, 236258, Note_off_c, 0, 52, 34
1, 236261, Control_c, 0, 64, 66
1, 236275, Control_c, 0, 64, 69
1, 236298, Control_c, 0, 64, 73
1, 236298, Control_c, 0, 67, 36
1, 236313, Control_c, 0, 64, 76
1, 236313, Control_c, 0, 67, 36
1, 236327, Control_c, 0, 64, 78
1, 236342, Control_c, 0, 64, 78
1, 236342, Control_c, 0, 67, 35
1, 236387, Control_c, 0, 64, 78
1, 236387, Control_c, 0, 67, 35
1, 236401, Control_c, 0, 64, 77
1, 236401, Control_c, 0, 67, 33
1, 236416, Control_c, 0, 64, 74
1, 236416, Control_c, 0, 67, 30
1, 236431, Control_c, 0, 64, 71
1, 236431, Control_c, 0, 67, 28
1, 236442, Note_on_c, 0, 64, 66
1, 236446, Control_c, 0, 64, 68
1, 236446, Control_c, 0, 67, 27
1, 236461, Control_c, 0, 64, 66
1, 236461, Control_c, 0, 67, 27
1, 236466, Note_on_c, 0, 45, 52
1, 236475, Control_c, 0, 64, 65
1, 236490, Control_c, 0, 64, 66
1, 236490, Control_c, 0, 67, 26
1, 236505, Control_c, 0, 64, 68
1, 236510, Note_off_c, 0, 66, 63
1, 236520, Control_c, 0, 64, 71
1, 236535, Control_c, 0, 64, 76
1, 236550, Control_c, 0, 64, 82
1, 236565, Control_c, 0, 64, 87
1, 236579, Control_c, 0, 64, 90
1, 236579, Control_c, 0, 67, 26
1, 236594, Control_c, 0, 64, 93
1, 236609, Control_c, 0, 64, 97
1, 236618, Note_off_c, 0, 48, 32
1, 236624, Control_c, 0, 64, 101
1, 236639, Control_c, 0, 64, 104
1, 236654, Control_c, 0, 64, 105
1, 236668, Control_c, 0, 64, 105
1, 236772, Control_c, 0, 64, 105
1, 236831, Control_c, 0, 64, 104
1, 236846, Control_c, 0, 64, 103
1, 236861, Control_c, 0, 64, 102
1, 236875, Control_c, 0, 64, 101
1, 236890, Control_c, 0, 64, 100
1, 236905, Control_c, 0, 64, 99
1, 236919, Control_c, 0, 64, 97
1, 236934, Control_c, 0, 64, 96
1, 236949, Control_c, 0, 64, 94
1, 236952, Note_on_c, 0, 68, 63
1, 236965, Control_c, 0, 64, 91
1, 236980, Control_c, 0, 64, 87
1, 236995, Control_c, 0, 64, 83
1, 237004, Note_off_c, 0, 64, 61
1, 237010, Control_c, 0, 64, 79
1, 237024, Control_c, 0, 64, 74
1, 237047, Control_c, 0, 64, 69
1, 237056, Note_on_c, 0, 40, 42
1, 237062, Control_c, 0, 64, 65
1, 237077, Control_c, 0, 64, 60
1, 237092, Control_c, 0, 64, 55
1, 237106, Control_c, 0, 64, 48
1, 237121, Control_c, 0, 64, 34
1, 237136, Control_c, 0, 64, 0
1, 237138, Note_off_c, 0, 45, 32
1, 237239, Control_c, 0, 64, 34
1, 237254, Control_c, 0, 64, 50
1, 237269, Control_c, 0, 64, 58
1, 237284, Control_c, 0, 64, 61
1, 237298, Control_c, 0, 64, 63
1, 237313, Control_c, 0, 64, 65
1, 237313, Control_c, 0, 67, 25
1, 237328, Control_c, 0, 64, 67
1, 237343, Control_c, 0, 64, 69
1, 237350, Note_off_c, 0, 40, 59
1, 237357, Control_c, 0, 64, 72
1, 237372, Control_c, 0, 64, 75
1, 237372, Control_c, 0, 67, 25
1, 237375, Note_on_c, 0, 59, 42
1, 237387, Control_c, 0, 64, 77
1, 237402, Control_c, 0, 64, 80
1, 237417, Control_c, 0, 64, 83
1, 237432, Control_c, 0, 64, 86
1, 237432, Control_c, 0, 67, 24
1, 237447, Control_c, 0, 64, 87
1, 237447, Control_c, 0, 67, 22
1, 237462, Control_c, 0, 64, 89
1, 237477, Control_c, 0, 64, 90
1, 237477, Control_c, 0, 67, 21
1, 237491, Control_c, 0, 64, 91
1, 237506, Control_c, 0, 64, 92
1, 237521, Control_c, 0, 64, 94
1, 237536, Control_c, 0, 64, 96
1, 237565, Control_c, 0, 64, 96
1, 237580, Control_c, 0, 64, 97
1, 237595, Control_c, 0, 64, 98
1, 237610, Control_c, 0, 64, 99
1, 237624, Control_c, 0, 64, 100
1, 237650, Note_off_c, 0, 59, 41
1, 237668, Control_c, 0, 64, 100
1, 237679, Note_on_c, 0, 56, 48
1, 237906, Note_off_c, 0, 56, 38
1, 237966, Note_on_c, 0, 52, 42
1, 238076, Control_c, 0, 64, 100
1, 238121, Control_c, 0, 64, 99
1, 238135, Control_c, 0, 64, 99
1, 238150, Control_c, 0, 64, 98
1, 238165, Control_c, 0, 64, 97
1, 238180, Control_c, 0, 64, 96
1, 238195, Control_c, 0, 64, 94
1, 238210, Control_c, 0, 64, 93
1, 238223, Note_on_c, 0, 69, 70
1, 238225, Control_c, 0, 64, 92
1, 238239, Control_c, 0, 64, 90
1, 238253, Note_on_c, 0, 60, 42
1, 238254, Control_c, 0, 64, 87
1, 238269, Control_c, 0, 64, 84
1, 238284, Control_c, 0, 64, 79
1, 238298, Control_c, 0, 64, 71
1, 238313, Control_c, 0, 64, 63
1, 238322, Note_off_c, 0, 68, 33
1, 238328, Control_c, 0, 64, 51
1, 238343, Control_c, 0, 64, 48
1, 238358, Control_c, 0, 64, 51
1, 238358, Control_c, 0, 67, 21
1, 238372, Control_c, 0, 64, 58
1, 238387, Control_c, 0, 64, 63
1, 238402, Control_c, 0, 64, 67
1, 238417, Control_c, 0, 64, 72
1, 238432, Control_c, 0, 64, 79
1, 238446, Control_c, 0, 64, 84
1, 238446, Control_c, 0, 67, 20
1, 238461, Control_c, 0, 64, 87
1, 238476, Control_c, 0, 64, 91
1, 238490, Control_c, 0, 64, 95
1, 238505, Control_c, 0, 64, 101
1, 238505, Control_c, 0, 67, 20
1, 238520, Control_c, 0, 64, 105
1, 238528, Note_off_c, 0, 60, 41
1, 238532, Note_on_c, 0, 57, 48
1, 238535, Control_c, 0, 64, 107
1, 238558, Control_c, 0, 64, 109
1, 238574, Control_c, 0, 64, 111
1, 238583, Note_off_c, 0, 57, 60
1, 238589, Control_c, 0, 64, 114
1, 238603, Control_c, 0, 64, 115
1, 238609, Note_off_c, 0, 52, 34
1, 238633, Control_c, 0, 64, 116
1, 238796, Control_c, 0, 64, 115
1, 238838, Note_on_c, 0, 70, 63
1, 238841, Control_c, 0, 64, 115
1, 238856, Control_c, 0, 64, 112
1, 238870, Note_off_c, 0, 69, 65
1, 238870, Control_c, 0, 64, 109
1, 238885, Control_c, 0, 64, 105
1, 238900, Control_c, 0, 64, 101
1, 238914, Control_c, 0, 64, 97
1, 238929, Control_c, 0, 64, 93
1, 238934, Note_on_c, 0, 40, 54
1, 238944, Control_c, 0, 64, 86
1, 238959, Control_c, 0, 64, 79
1, 238974, Control_c, 0, 64, 70
1, 238988, Control_c, 0, 64, 61
1, 239003, Control_c, 0, 64, 50
1, 239018, Control_c, 0, 64, 43
1, 239033, Control_c, 0, 64, 45
1, 239048, Control_c, 0, 64, 51
1, 239063, Control_c, 0, 64, 58
1, 239077, Control_c, 0, 64, 63
1, 239092, Control_c, 0, 64, 68
1, 239092, Control_c, 0, 67, 18
1, 239107, Control_c, 0, 64, 73
1, 239107, Control_c, 0, 67, 18
1, 239122, Control_c, 0, 64, 80
1, 239122, Control_c, 0, 67, 17
1, 239137, Note_off_c, 0, 40, 60
1, 239137, Control_c, 0, 64, 87
1, 239152, Control_c, 0, 64, 91
1, 239152, Control_c, 0, 67, 17
1, 239167, Control_c, 0, 64, 96
1, 239168, Note_on_c, 0, 61, 45
1, 239182, Control_c, 0, 64, 102
1, 239182, Control_c, 0, 67, 16
1, 239196, Control_c, 0, 64, 110
1, 239196, Control_c, 0, 67, 15
1, 239211, Control_c, 0, 64, 119
1, 239211, Control_c, 0, 67, 12
1, 239226, Control_c, 0, 64, 127
1, 239226, Control_c, 0, 67, 11
1, 239241, Control_c, 0, 67, 10
1, 239270, Control_c, 0, 67, 9
1, 239307, Control_c, 0, 67, 9
1, 239441, Control_c, 0, 67, 8
1, 239449, Note_on_c, 0, 58, 42
1, 239495, Note_off_c, 0, 61, 41
1, 239560, Control_c, 0, 67, 8
1, 239590, Control_c, 0, 67, 0
1, 239677, Note_off_c, 0, 58, 59
1, 239715, Note_on_c, 0, 52, 48
1, 239826, Control_c, 0, 64, 124
1, 239841, Control_c, 0, 64, 117
1, 239856, Control_c, 0, 64, 113
1, 239871, Control_c, 0, 64, 109
1, 239885, Control_c, 0, 64, 106
1, 239900, Control_c, 0, 64, 104
1, 239915, Control_c, 0, 64, 101
1, 239930, Control_c, 0, 64, 99
1, 239945, Control_c, 0, 64, 95
1, 239956, Note_on_c, 0, 68, 68
1, 239960, Control_c, 0, 64, 91
1, 239973, Note_on_c, 0, 64, 50
1, 239975, Control_c, 0, 64, 86
1, 239990, Control_c, 0, 64, 79
1, 240004, Control_c, 0, 64, 70
1, 240019, Control_c, 0, 64, 62
1, 240041, Control_c, 0, 64, 55
1, 240056, Control_c, 0, 64, 56
1, 240063, Note_off_c, 0, 70, 58
1, 240071, Control_c, 0, 64, 61
1, 240086, Control_c, 0, 64, 66
1, 240100, Control_c, 0, 64, 71
1, 240115, Control_c, 0, 64, 79
1, 240130, Control_c, 0, 64, 89
1, 240145, Control_c, 0, 64, 100
1, 240160, Control_c, 0, 64, 109
1, 240175, Control_c, 0, 64, 127
1, 240256, Note_on_c, 0, 66, 77
1, 240264, Note_off_c, 0, 64, 45
1, 240274, Note_on_c, 0, 61, 53
1, 240305, Note_off_c, 0, 68, 57
1, 240315, Note_off_c, 0, 61, 60
1, 240335, Note_off_c, 0, 52, 38
1, 240570, Note_on_c, 0, 71, 74
1, 240649, Control_c, 0, 64, 99
1, 240650, Note_off_c, 0, 66, 60
1, 240664, Control_c, 0, 64, 85
1, 240668, Note_on_c, 0, 40, 60
1, 240679, Control_c, 0, 64, 72
1, 240693, Control_c, 0, 64, 61
1, 240708, Control_c, 0, 64, 49
1, 240723, Control_c, 0, 64, 44
1, 240738, Control_c, 0, 64, 50
1, 240753, Control_c, 0, 64, 58
1, 240768, Control_c, 0, 64, 64
1, 240790, Control_c, 0, 64, 71
1, 240805, Control_c, 0, 64, 80
1, 240820, Control_c, 0, 64, 93
1, 240835, Control_c, 0, 64, 105
1, 240848, Note_off_c, 0, 40, 59
1, 240849, Control_c, 0, 64, 122
1, 240864, Control_c, 0, 64, 127
1, 240903, Note_on_c, 0, 62, 56
1, 241170, Note_on_c, 0, 59, 61
1, 241178, Note_off_c, 0, 62, 64
1, 241367, Note_off_c, 0, 59, 61
1, 241417, Note_on_c, 0, 52, 64
1, 241663, Note_on_c, 0, 72, 79
1, 241698, Note_on_c, 0, 63, 66
1, 241702, Control_c, 0, 64, 109
1, 241716, Control_c, 0, 64, 91
1, 241731, Control_c, 0, 64, 77
1, 241733, Note_off_c, 0, 71, 54
1, 241746, Control_c, 0, 64, 64
1, 241762, Control_c, 0, 64, 59
1, 241777, Control_c, 0, 64, 60
1, 241792, Control_c, 0, 64, 64
1, 241807, Control_c, 0, 64, 69
1, 241821, Control_c, 0, 64, 77
1, 241836, Control_c, 0, 64, 89
1, 241851, Control_c, 0, 64, 109
1, 241866, Control_c, 0, 64, 127
1, 241921, Note_off_c, 0, 63, 62
1, 241945, Note_on_c, 0, 60, 66
1, 241971, Note_off_c, 0, 60, 65
1, 242032, Note_off_c, 0, 52, 39
1, 242216, Note_on_c, 0, 73, 74
1, 242256, Note_off_c, 0, 72, 61
1, 242280, Note_on_c, 0, 40, 74
1, 242281, Control_c, 0, 64, 101
1, 242303, Control_c, 0, 64, 81
1, 242318, Control_c, 0, 64, 66
1, 242333, Control_c, 0, 64, 54
1, 242347, Control_c, 0, 64, 43
1, 242362, Control_c, 0, 64, 47
1, 242377, Control_c, 0, 64, 56
1, 242392, Control_c, 0, 64, 63
1, 242407, Control_c, 0, 64, 70
1, 242421, Control_c, 0, 64, 80
1, 242436, Control_c, 0, 64, 96
1, 242449, Note_off_c, 0, 40, 62
1, 242451, Control_c, 0, 64, 124
1, 242466, Control_c, 0, 64, 127
1, 242539, Note_on_c, 0, 64, 61
1, 242793, Note_off_c, 0, 64, 63
1, 242813, Note_on_c, 0, 61, 67
1, 243051, Note_off_c, 0, 61, 61
1, 243058, Note_on_c, 0, 52, 65
1, 243108, Note_off_c, 0, 52, 60
1, 243290, Note_on_c, 0, 71, 76
1, 243305, Note_on_c, 0, 67, 60
1, 243377, Note_off_c, 0, 73, 37
1, 243519, Note_off_c, 0, 67, 32
1, 243576, Note_on_c, 0, 69, 82
1, 243589, Note_on_c, 0, 61, 59
1, 243617, Note_off_c, 0, 61, 66
1, 243623, Note_off_c, 0, 71, 57
1, 243933, Note_on_c, 0, 74, 81
1, 243978, Control_c, 0, 64, 92
1, 243993, Control_c, 0, 64, 73
1, 244001, Note_on_c, 0, 42, 69
1, 244008, Control_c, 0, 64, 60
1, 244023, Control_c, 0, 64, 47
1, 244038, Control_c, 0, 64, 48
1, 244053, Control_c, 0, 64, 57
1, 244067, Control_c, 0, 64, 67
1, 244082, Control_c, 0, 64, 78
1, 244097, Control_c, 0, 64, 102
1, 244111, Control_c, 0, 64, 127
1, 244157, Note_off_c, 0, 42, 56
1, 244257, Note_on_c, 0, 62, 64
1, 244382, Note_off_c, 0, 62, 62
1, 244409, Note_off_c, 0, 69, 35
1, 244539, Note_on_c, 0, 57, 65
1, 244574, Note_off_c, 0, 57, 63
1, 244851, Note_on_c, 0, 73, 78
1, 244863, Note_on_c, 0, 68, 71
1, 244875, Control_c, 0, 64, 117
1, 244890, Control_c, 0, 64, 84
1, 244890, Note_on_c, 0, 40, 70
1, 244905, Control_c, 0, 64, 67
1, 244920, Control_c, 0, 64, 52
1, 244934, Control_c, 0, 64, 37
1, 244938, Note_off_c, 0, 74, 55
1, 244949, Control_c, 0, 64, 36
1, 244965, Control_c, 0, 64, 48
1, 244980, Control_c, 0, 64, 59
1, 244995, Control_c, 0, 64, 67
1, 245009, Control_c, 0, 64, 77
1, 245024, Control_c, 0, 64, 94
1, 245039, Control_c, 0, 64, 127
1, 245209, Note_on_c, 0, 52, 72
1, 245262, Note_off_c, 0, 40, 32
1, 245492, Note_on_c, 0, 71, 79
1, 245505, Note_off_c, 0, 52, 46
1, 245516, Note_on_c, 0, 56, 60
1, 245543, Note_off_c, 0, 56, 65
1, 245597, Note_off_c, 0, 68, 56
1, 245603, Note_off_c, 0, 73, 54
1, 245817, Control_c, 0, 64, 89
1, 245826, Note_on_c, 0, 38, 68
1, 245832, Control_c, 0, 64, 67
1, 245847, Control_c, 0, 64, 45
1, 245862, Control_c, 0, 64, 0
1, 245892, Control_c, 0, 64, 28
1, 245907, Control_c, 0, 64, 49
1, 245922, Control_c, 0, 64, 63
1, 245936, Control_c, 0, 64, 72
1, 245951, Control_c, 0, 64, 82
1, 245966, Control_c, 0, 64, 100
1, 245969, Note_off_c, 0, 38, 56
1, 245978, Note_on_c, 0, 66, 77
1, 245980, Control_c, 0, 64, 127
1, 245986, Note_off_c, 0, 71, 61
1, 246092, Note_off_c, 0, 66, 59
1, 246207, Note_on_c, 0, 81, 84
1, 246419, Note_on_c, 0, 54, 70
1, 246542, Note_off_c, 0, 54, 62
1, 246705, Note_off_c, 0, 81, 55
1, 246768, Note_on_c, 0, 57, 66
1, 246770, Note_on_c, 0, 50, 62
1, 246899, Note_off_c, 0, 50, 51
1, 246937, Note_off_c, 0, 57, 51
1, 247093, Note_on_c, 0, 62, 69
1, 247104, Note_on_c, 0, 54, 64
1, 247127, Note_off_c, 0, 62, 66
1, 247168, Note_off_c, 0, 54, 59
1, 247505, Note_on_c, 0, 69, 79
1, 247512, Note_on_c, 0, 64, 65
1, 247518, Note_on_c, 0, 57, 63
1, 247541, Note_on_c, 0, 45, 69
1, 247547, Note_on_c, 0, 37, 71
1, 247588, Control_c, 0, 64, 108
1, 247603, Control_c, 0, 64, 90
1, 247618, Control_c, 0, 64, 73
1, 247633, Control_c, 0, 64, 59
1, 247648, Control_c, 0, 64, 33
1, 247662, Control_c, 0, 64, 0
1, 247692, Control_c, 0, 64, 12
1, 247707, Control_c, 0, 64, 31
1, 247722, Control_c, 0, 64, 48
1, 247737, Control_c, 0, 64, 59
1, 247752, Control_c, 0, 64, 65
1, 247766, Control_c, 0, 64, 68
1, 247781, Control_c, 0, 64, 72
1, 247796, Control_c, 0, 64, 76
1, 247811, Control_c, 0, 64, 81
1, 247826, Control_c, 0, 64, 88
1, 247840, Control_c, 0, 64, 94
1, 247855, Control_c, 0, 64, 101
1, 247865, Note_off_c, 0, 57, 61
1, 247866, Note_on_c, 0, 35, 74
1, 247868, Note_off_c, 0, 37, 54
1, 247870, Control_c, 0, 64, 111
1, 247884, Control_c, 0, 64, 127
1, 248141, Note_off_c, 0, 35, 56
1, 248146, Note_on_c, 0, 38, 68
1, 248170, Note_off_c, 0, 69, 61
1, 248193, Note_on_c, 0, 68, 78
1, 248196, Control_c, 0, 64, 115
1, 248207, Note_on_c, 0, 59, 60
1, 248208, Note_on_c, 0, 57, 67
1, 248211, Control_c, 0, 64, 105
1, 248226, Control_c, 0, 64, 97
1, 248241, Control_c, 0, 64, 91
1, 248256, Control_c, 0, 64, 87
1, 248256, Note_off_c, 0, 45, 61
1, 248278, Control_c, 0, 64, 84
1, 248293, Control_c, 0, 64, 81
1, 248308, Control_c, 0, 64, 79
1, 248323, Control_c, 0, 64, 77
1, 248337, Control_c, 0, 64, 75
1, 248352, Control_c, 0, 64, 74
1, 248367, Control_c, 0, 64, 73
1, 248381, Control_c, 0, 64, 72
1, 248393, Note_off_c, 0, 64, 35
1, 248396, Control_c, 0, 64, 71
1, 248411, Control_c, 0, 64, 70
1, 248426, Control_c, 0, 64, 69
1, 248441, Control_c, 0, 64, 68
1, 248455, Control_c, 0, 64, 67
1, 248470, Control_c, 0, 64, 66
1, 248485, Control_c, 0, 64, 65
1, 248499, Control_c, 0, 64, 63
1, 248514, Control_c, 0, 64, 60
1, 248528, Note_on_c, 0, 45, 66
1, 248529, Control_c, 0, 64, 56
1, 248544, Control_c, 0, 64, 51
1, 248559, Control_c, 0, 64, 43
1, 248573, Control_c, 0, 64, 32
1, 248588, Control_c, 0, 64, 0
1, 248692, Control_c, 0, 64, 26
1, 248706, Control_c, 0, 64, 45
1, 248721, Control_c, 0, 64, 55
1, 248736, Control_c, 0, 64, 60
1, 248751, Control_c, 0, 64, 63
1, 248766, Control_c, 0, 64, 65
1, 248780, Control_c, 0, 64, 67
1, 248795, Control_c, 0, 64, 70
1, 248810, Control_c, 0, 64, 73
1, 248825, Control_c, 0, 64, 77
1, 248840, Control_c, 0, 64, 80
1, 248845, Note_on_c, 0, 66, 71
1, 248855, Control_c, 0, 64, 83
1, 248870, Control_c, 0, 64, 87
1, 248885, Control_c, 0, 64, 92
1, 248899, Control_c, 0, 64, 96
1, 248901, Note_off_c, 0, 45, 60
1, 248914, Control_c, 0, 64, 100
1, 248929, Control_c, 0, 64, 104
1, 248935, Note_off_c, 0, 68, 52
1, 248944, Control_c, 0, 64, 108
1, 248959, Control_c, 0, 64, 111
1, 248974, Control_c, 0, 64, 114
1, 248980, Note_off_c, 0, 59, 52
1, 248981, Note_off_c, 0, 57, 54
1, 248989, Control_c, 0, 64, 118
1, 249004, Control_c, 0, 64, 124
1, 249026, Control_c, 0, 64, 127
1, 249075, Note_off_c, 0, 66, 61
1, 249107, Note_on_c, 0, 45, 67
1, 249293, Control_c, 0, 64, 122
1, 249308, Control_c, 0, 64, 119
1, 249322, Control_c, 0, 64, 116
1, 249337, Control_c, 0, 64, 113
1, 249352, Control_c, 0, 64, 109
1, 249363, Note_on_c, 0, 64, 75
1, 249367, Control_c, 0, 64, 104
1, 249376, Note_off_c, 0, 38, 60
1, 249378, Note_on_c, 0, 37, 65
1, 249382, Control_c, 0, 64, 98
1, 249386, Note_on_c, 0, 52, 53
1, 249386, Note_on_c, 0, 57, 55
1, 249396, Control_c, 0, 64, 87
1, 249411, Control_c, 0, 64, 73
1, 249426, Control_c, 0, 64, 61
1, 249441, Control_c, 0, 64, 44
1, 249456, Control_c, 0, 64, 28
1, 249470, Control_c, 0, 64, 30
1, 249485, Control_c, 0, 64, 42
1, 249500, Control_c, 0, 64, 55
1, 249515, Control_c, 0, 64, 62
1, 249529, Control_c, 0, 64, 67
1, 249544, Control_c, 0, 64, 72
1, 249559, Control_c, 0, 64, 77
1, 249574, Control_c, 0, 64, 81
1, 249589, Control_c, 0, 64, 85
1, 249603, Control_c, 0, 64, 88
1, 249604, Note_on_c, 0, 62, 79
1, 249605, Note_off_c, 0, 37, 52
1, 249618, Control_c, 0, 64, 92
1, 249620, Note_on_c, 0, 35, 69
1, 249631, Note_off_c, 0, 64, 65
1, 249633, Control_c, 0, 64, 96
1, 249648, Note_off_c, 0, 52, 62
1, 249648, Control_c, 0, 64, 100
1, 249663, Control_c, 0, 64, 102
1, 249678, Control_c, 0, 64, 102
1, 249686, Note_off_c, 0, 57, 59
1, 249692, Control_c, 0, 64, 103
1, 249707, Control_c, 0, 64, 103
1, 249834, Control_c, 0, 64, 103
1, 249838, Note_on_c, 0, 38, 65
1, 249841, Note_off_c, 0, 35, 33
1, 249864, Control_c, 0, 64, 102
1, 249879, Control_c, 0, 64, 101
1, 249892, Note_off_c, 0, 62, 58
1, 249894, Control_c, 0, 64, 99
1, 249908, Control_c, 0, 64, 97
1, 249918, Note_off_c, 0, 45, 60
1, 249923, Control_c, 0, 64, 94
1, 249927, Note_on_c, 0, 61, 79
1, 249938, Control_c, 0, 64, 91
1, 249945, Note_on_c, 0, 54, 64
1, 249945, Note_on_c, 0, 57, 60
1, 249952, Control_c, 0, 64, 89
1, 249967, Control_c, 0, 64, 86
1, 249983, Control_c, 0, 64, 84
1, 249998, Control_c, 0, 64, 81
1, 250013, Control_c, 0, 64, 79
1, 250027, Control_c, 0, 64, 77
1, 250042, Control_c, 0, 64, 76
1, 250057, Control_c, 0, 64, 74
1, 250072, Control_c, 0, 64, 73
1, 250087, Control_c, 0, 64, 72
1, 250101, Control_c, 0, 64, 70
1, 250116, Control_c, 0, 64, 68
1, 250131, Control_c, 0, 64, 67
1, 250146, Control_c, 0, 64, 65
1, 250160, Control_c, 0, 64, 63
1, 250175, Control_c, 0, 64, 60
1, 250190, Control_c, 0, 64, 56
1, 250199, Note_on_c, 0, 45, 66
1, 250205, Control_c, 0, 64, 52
1, 250220, Control_c, 0, 64, 45
1, 250235, Control_c, 0, 64, 34
1, 250250, Control_c, 0, 64, 0
1, 250353, Control_c, 0, 64, 25
1, 250368, Control_c, 0, 64, 44
1, 250383, Control_c, 0, 64, 55
1, 250398, Control_c, 0, 64, 61
1, 250413, Control_c, 0, 64, 63
1, 250427, Control_c, 0, 64, 65
1, 250442, Control_c, 0, 64, 67
1, 250457, Control_c, 0, 64, 70
1, 250465, Note_on_c, 0, 59, 73
1, 250471, Control_c, 0, 64, 73
1, 250486, Control_c, 0, 64, 76
1, 250500, Note_off_c, 0, 61, 53
1, 250501, Control_c, 0, 64, 79
1, 250503, Note_off_c, 0, 45, 61
1, 250524, Control_c, 0, 64, 81
1, 250530, Note_off_c, 0, 57, 53
1, 250539, Control_c, 0, 64, 83
1, 250554, Control_c, 0, 64, 85
1, 250567, Note_off_c, 0, 54, 56
1, 250569, Control_c, 0, 64, 86
1, 250584, Control_c, 0, 64, 87
1, 250599, Control_c, 0, 64, 88
1, 250614, Control_c, 0, 64, 90
1, 250628, Control_c, 0, 64, 91
1, 250643, Control_c, 0, 64, 92
1, 250658, Control_c, 0, 64, 92
1, 250666, Note_off_c, 0, 59, 65
1, 250688, Control_c, 0, 64, 93
1, 250736, Note_on_c, 0, 45, 62
1, 250836, Control_c, 0, 64, 92
1, 250880, Control_c, 0, 64, 92
1, 250895, Control_c, 0, 64, 91
1, 250910, Control_c, 0, 64, 91
1, 250924, Control_c, 0, 64, 90
1, 250938, Note_on_c, 0, 37, 65
1, 250939, Control_c, 0, 64, 89
1, 250946, Note_off_c, 0, 38, 53
1, 250954, Control_c, 0, 64, 87
1, 250968, Control_c, 0, 64, 85
1, 250983, Control_c, 0, 64, 83
1, 250998, Control_c, 0, 64, 78
1, 251004, Note_on_c, 0, 69, 79
1, 251013, Control_c, 0, 64, 74
1, 251016, Note_on_c, 0, 64, 66
1, 251019, Note_on_c, 0, 57, 59
1, 251028, Control_c, 0, 64, 68
1, 251043, Control_c, 0, 64, 60
1, 251058, Control_c, 0, 64, 44
1, 251073, Control_c, 0, 64, 0
1, 251132, Control_c, 0, 64, 12
1, 251147, Control_c, 0, 64, 39
1, 251162, Control_c, 0, 64, 57
1, 251176, Control_c, 0, 64, 65
1, 251191, Control_c, 0, 64, 69
1, 251206, Control_c, 0, 64, 74
1, 251221, Control_c, 0, 64, 77
1, 251228, Note_off_c, 0, 37, 57
1, 251234, Note_off_c, 0, 57, 54
1, 251236, Control_c, 0, 64, 80
1, 251250, Control_c, 0, 64, 84
1, 251251, Note_on_c, 0, 35, 67
1, 251272, Control_c, 0, 64, 87
1, 251287, Control_c, 0, 64, 89
1, 251302, Control_c, 0, 64, 89
1, 251308, Note_off_c, 0, 69, 63
1, 251332, Control_c, 0, 64, 90
1, 251377, Control_c, 0, 64, 89
1, 251377, Control_c, 0, 67, 9
1, 251392, Control_c, 0, 67, 11
1, 251406, Control_c, 0, 67, 13
1, 251421, Control_c, 0, 67, 14
1, 251436, Control_c, 0, 64, 89
1, 251436, Control_c, 0, 67, 15
1, 251451, Control_c, 0, 64, 88
1, 251451, Control_c, 0, 67, 16
1, 251466, Control_c, 0, 64, 87
1, 251466, Control_c, 0, 67, 16
1, 251481, Control_c, 0, 64, 86
1, 251496, Control_c, 0, 64, 85
1, 251496, Control_c, 0, 67, 17
1, 251508, Note_on_c, 0, 38, 55
1, 251511, Control_c, 0, 64, 84
1, 251511, Control_c, 0, 67, 17
1, 251520, Note_off_c, 0, 35, 33
1, 251525, Control_c, 0, 64, 83
1, 251525, Control_c, 0, 67, 19
1, 251540, Control_c, 0, 64, 82
1, 251540, Control_c, 0, 67, 24
1, 251555, Control_c, 0, 64, 81
1, 251555, Control_c, 0, 67, 29
1, 251570, Control_c, 0, 64, 80
1, 251570, Control_c, 0, 67, 34
1, 251585, Control_c, 0, 64, 79
1, 251585, Control_c, 0, 67, 38
1, 251599, Control_c, 0, 64, 77
1, 251599, Control_c, 0, 67, 43
1, 251609, Note_off_c, 0, 45, 60
1, 251614, Control_c, 0, 64, 75
1, 251614, Control_c, 0, 67, 46
1, 251625, Note_on_c, 0, 67, 73
1, 251629, Control_c, 0, 64, 73
1, 251629, Control_c, 0, 67, 49
1, 251644, Control_c, 0, 64, 72
1, 251648, Note_on_c, 0, 57, 50
1, 251648, Note_on_c, 0, 59, 54
1, 251659, Control_c, 0, 64, 70
1, 251662, Note_off_c, 0, 64, 56
1, 251673, Control_c, 0, 64, 69
1, 251673, Control_c, 0, 67, 48
1, 251688, Control_c, 0, 64, 67
1, 251703, Control_c, 0, 64, 65
1, 251717, Control_c, 0, 64, 64
1, 251732, Control_c, 0, 64, 62
1, 251747, Control_c, 0, 64, 61
1, 251762, Control_c, 0, 64, 60
1, 251777, Control_c, 0, 64, 59
1, 251791, Control_c, 0, 64, 58
1, 251806, Control_c, 0, 64, 58
1, 251821, Control_c, 0, 64, 57
1, 251821, Control_c, 0, 67, 49
1, 251836, Control_c, 0, 64, 56
1, 251851, Control_c, 0, 64, 55
1, 251866, Control_c, 0, 64, 54
1, 251880, Control_c, 0, 64, 53
1, 251895, Control_c, 0, 64, 53
1, 251910, Control_c, 0, 67, 48
1, 251925, Control_c, 0, 64, 52
1, 251940, Control_c, 0, 64, 52
1, 251940, Control_c, 0, 67, 48
1, 251955, Control_c, 0, 64, 51
1, 251955, Control_c, 0, 67, 47
1, 251970, Control_c, 0, 64, 50
1, 251970, Control_c, 0, 67, 47
1, 251979, Note_on_c, 0, 45, 51
1, 251985, Control_c, 0, 64, 50
1, 251985, Control_c, 0, 67, 46
1, 251999, Control_c, 0, 67, 46
1, 252036, Control_c, 0, 67, 45
1, 252066, Control_c, 0, 67, 45
1, 252140, Control_c, 0, 64, 49
1, 252155, Control_c, 0, 64, 48
1, 252170, Control_c, 0, 64, 46
1, 252185, Control_c, 0, 64, 44
1, 252200, Control_c, 0, 64, 39
1, 252215, Control_c, 0, 64, 32
1, 252229, Control_c, 0, 64, 17
1, 252244, Control_c, 0, 64, 0
1, 252319, Control_c, 0, 67, 45
1, 252348, Control_c, 0, 67, 46
1, 252363, Control_c, 0, 64, 24
1, 252363, Control_c, 0, 67, 46
1, 252378, Control_c, 0, 64, 37
1, 252383, Note_on_c, 0, 65, 53
1, 252393, Control_c, 0, 64, 48
1, 252393, Control_c, 0, 67, 47
1, 252408, Control_c, 0, 64, 56
1, 252408, Control_c, 0, 67, 47
1, 252422, Control_c, 0, 64, 59
1, 252422, Control_c, 0, 67, 48
1, 252437, Control_c, 0, 64, 62
1, 252437, Control_c, 0, 67, 48
1, 252448, Note_off_c, 0, 45, 60
1, 252452, Control_c, 0, 64, 63
1, 252452, Control_c, 0, 67, 49
1, 252467, Control_c, 0, 64, 65
1, 252467, Control_c, 0, 67, 49
1, 252468, Note_off_c, 0, 67, 55
1, 252482, Control_c, 0, 64, 68
1, 252482, Control_c, 0, 67, 50
1, 252496, Control_c, 0, 64, 70
1, 252496, Control_c, 0, 67, 50
1, 252511, Control_c, 0, 64, 73
1, 252511, Control_c, 0, 67, 51
1, 252526, Control_c, 0, 64, 75
1, 252526, Control_c, 0, 67, 53
1, 252540, Control_c, 0, 64, 77
1, 252540, Control_c, 0, 67, 58
1, 252554, Note_off_c, 0, 59, 39
1, 252555, Control_c, 0, 64, 79
1, 252555, Control_c, 0, 67, 61
1, 252570, Control_c, 0, 64, 81
1, 252570, Control_c, 0, 67, 64
1, 252585, Control_c, 0, 64, 82
1, 252585, Control_c, 0, 67, 67
1, 252597, Note_off_c, 0, 57, 40
1, 252597, Note_off_c, 0, 65, 60
1, 252600, Control_c, 0, 64, 83
1, 252600, Control_c, 0, 67, 69
1, 252615, Control_c, 0, 64, 84
1, 252615, Control_c, 0, 67, 70
1, 252629, Control_c, 0, 64, 84
1, 252644, Control_c, 0, 64, 85
1, 252672, Note_on_c, 0, 45, 54
1, 252674, Control_c, 0, 67, 70
1, 252703, Control_c, 0, 67, 69
1, 252718, Control_c, 0, 67, 69
1, 252748, Control_c, 0, 67, 68
1, 252785, Control_c, 0, 67, 67
1, 252859, Control_c, 0, 67, 67
1, 252888, Control_c, 0, 64, 84
1, 252903, Control_c, 0, 64, 84
1, 252918, Control_c, 0, 64, 83
1, 252918, Control_c, 0, 67, 67
1, 252933, Control_c, 0, 64, 82
1, 252949, Control_c, 0, 64, 81
1, 252949, Control_c, 0, 67, 68
1, 252964, Control_c, 0, 64, 80
1, 252964, Control_c, 0, 67, 68
1, 252974, Note_on_c, 0, 64, 60
1, 252978, Control_c, 0, 64, 77
1, 252978, Control_c, 0, 67, 69
1, 252985, Note_on_c, 0, 36, 49
1, 252993, Control_c, 0, 64, 73
1, 252993, Control_c, 0, 67, 70
1, 252998, Note_on_c, 0, 52, 45
1, 253000, Note_on_c, 0, 57, 39
1, 253007, Note_off_c, 0, 38, 29
1, 253008, Control_c, 0, 64, 66
1, 253008, Control_c, 0, 67, 71
1, 253023, Control_c, 0, 64, 52
1, 253023, Control_c, 0, 67, 72
1, 253038, Control_c, 0, 64, 21
1, 253038, Control_c, 0, 67, 72
1, 253052, Control_c, 0, 64, 0
1, 253052, Control_c, 0, 67, 74
1, 253067, Control_c, 0, 67, 76
1, 253112, Control_c, 0, 67, 75
1, 253126, Control_c, 0, 64, 32
1, 253141, Control_c, 0, 64, 51
1, 253141, Control_c, 0, 67, 75
1, 253156, Control_c, 0, 64, 59
1, 253171, Control_c, 0, 64, 60
1, 253171, Control_c, 0, 67, 74
1, 253186, Control_c, 0, 64, 61
1, 253201, Control_c, 0, 64, 60
1, 253216, Control_c, 0, 64, 58
1, 253231, Control_c, 0, 64, 52
1, 253245, Control_c, 0, 64, 42
1, 253260, Control_c, 0, 64, 30
1, 253275, Control_c, 0, 64, 29
1, 253275, Control_c, 0, 67, 75
1, 253290, Control_c, 0, 64, 39
1, 253299, Note_on_c, 0, 35, 62
1, 253305, Control_c, 0, 64, 50
1, 253305, Control_c, 0, 67, 75
1, 253306, Note_on_c, 0, 62, 62
1, 253318, Note_off_c, 0, 64, 61
1, 253319, Control_c, 0, 64, 58
1, 253333, Note_off_c, 0, 36, 61
1, 253334, Control_c, 0, 64, 62
1, 253334, Control_c, 0, 67, 76
1, 253349, Control_c, 0, 64, 64
1, 253349, Control_c, 0, 67, 76
1, 253363, Control_c, 0, 64, 66
1, 253363, Control_c, 0, 67, 77
1, 253378, Control_c, 0, 64, 68
1, 253378, Control_c, 0, 67, 77
1, 253387, Note_off_c, 0, 52, 53
1, 253393, Control_c, 0, 64, 70
1, 253393, Control_c, 0, 67, 79
1, 253402, Note_off_c, 0, 57, 41
1, 253408, Control_c, 0, 64, 73
1, 253408, Control_c, 0, 67, 81
1, 253423, Control_c, 0, 64, 74
1, 253423, Control_c, 0, 67, 82
1, 253438, Control_c, 0, 64, 75
1, 253438, Control_c, 0, 67, 84
1, 253452, Control_c, 0, 67, 84
1, 253467, Control_c, 0, 67, 85
1, 253534, Control_c, 0, 67, 85
1, 253549, Control_c, 0, 67, 88
1, 253564, Control_c, 0, 67, 90
1, 253578, Control_c, 0, 67, 91
1, 253652, Control_c, 0, 64, 75
1, 253667, Control_c, 0, 64, 74
1, 253682, Control_c, 0, 64, 73
1, 253682, Control_c, 0, 67, 90
1, 253696, Control_c, 0, 64, 72
1, 253704, Note_off_c, 0, 62, 34
1, 253711, Control_c, 0, 64, 70
1, 253716, Note_on_c, 0, 38, 50
1, 253716, Note_on_c, 0, 60, 52
1, 253723, Note_off_c, 0, 35, 29
1, 253726, Control_c, 0, 64, 67
1, 253726, Control_c, 0, 67, 90
1, 253742, Control_c, 0, 64, 64
1, 253742, Control_c, 0, 67, 89
1, 253746, Note_on_c, 0, 57, 42
1, 253753, Note_on_c, 0, 53, 41
1, 253757, Control_c, 0, 64, 61
1, 253772, Control_c, 0, 64, 58
1, 253772, Control_c, 0, 67, 89
1, 253787, Control_c, 0, 64, 56
1, 253787, Control_c, 0, 67, 88
1, 253801, Control_c, 0, 64, 55
1, 253816, Control_c, 0, 64, 55
1, 253816, Control_c, 0, 67, 88
1, 253831, Control_c, 0, 64, 54
1, 253831, Control_c, 0, 67, 87
1, 253846, Control_c, 0, 64, 53
1, 253861, Control_c, 0, 64, 52
1, 253875, Control_c, 0, 64, 51
1, 253890, Control_c, 0, 64, 50
1, 253890, Control_c, 0, 67, 87
1, 253905, Note_off_c, 0, 45, 61
1, 253905, Control_c, 0, 64, 50
1, 253934, Control_c, 0, 64, 49
1, 253934, Control_c, 0, 67, 86
1, 253949, Control_c, 0, 64, 49
1, 253964, Control_c, 0, 64, 48
1, 253979, Control_c, 0, 64, 48
1, 254024, Control_c, 0, 67, 86
1, 254100, Note_on_c, 0, 45, 47
1, 254113, Control_c, 0, 64, 47
1, 254172, Control_c, 0, 67, 85
1, 254261, Control_c, 0, 67, 86
1, 254298, Control_c, 0, 67, 86
1, 254327, Control_c, 0, 67, 87
1, 254357, Control_c, 0, 67, 87
1, 254387, Control_c, 0, 67, 88
1, 254401, Control_c, 0, 67, 88
1, 254416, Control_c, 0, 67, 89
1, 254431, Control_c, 0, 67, 89
1, 254446, Control_c, 0, 67, 90
1, 254461, Control_c, 0, 67, 92
1, 254475, Control_c, 0, 67, 93
1, 254490, Control_c, 0, 64, 46
1, 254490, Control_c, 0, 67, 94
1, 254505, Control_c, 0, 64, 42
1, 254505, Control_c, 0, 67, 100
1, 254519, Control_c, 0, 64, 34
1, 254519, Control_c, 0, 67, 103
1, 254528, Note_on_c, 0, 59, 36
1, 254534, Control_c, 0, 64, 12
1, 254541, Note_off_c, 0, 60, 34
1, 254550, Control_c, 0, 64, 0
1, 254639, Control_c, 0, 64, 25
1, 254654, Control_c, 0, 64, 45
1, 254654, Control_c, 0, 67, 102
1, 254669, Control_c, 0, 64, 57
1, 254684, Control_c, 0, 64, 61
1, 254692, Note_off_c, 0, 45, 58
1, 254698, Control_c, 0, 64, 63
1, 254698, Control_c, 0, 67, 102
1, 254713, Control_c, 0, 64, 65
1, 254713, Control_c, 0, 67, 101
1, 254728, Control_c, 0, 64, 67
1, 254742, Control_c, 0, 64, 70
1, 254757, Control_c, 0, 64, 73
1, 254772, Control_c, 0, 64, 76
1, 254787, Control_c, 0, 64, 79
1, 254802, Control_c, 0, 64, 82
1, 254817, Control_c, 0, 64, 84
1, 254832, Control_c, 0, 64, 86
1, 254846, Control_c, 0, 64, 87
1, 254861, Control_c, 0, 64, 89
1, 254861, Control_c, 0, 67, 102
1, 254876, Control_c, 0, 64, 92
1, 254876, Control_c, 0, 67, 102
1, 254891, Control_c, 0, 64, 94
1, 254906, Control_c, 0, 64, 97
1, 254918, Note_off_c, 0, 53, 34
1, 254921, Control_c, 0, 64, 100
1, 254935, Control_c, 0, 64, 103
1, 254935, Control_c, 0, 67, 103
1, 254950, Control_c, 0, 64, 106
1, 254965, Control_c, 0, 64, 109
1, 254965, Control_c, 0, 67, 103
1, 254980, Control_c, 0, 64, 114
1, 254995, Note_off_c, 0, 57, 40
1, 254995, Control_c, 0, 64, 118
1, 254995, Control_c, 0, 67, 104
1, 255016, Control_c, 0, 64, 120
1, 255016, Control_c, 0, 67, 104
1, 255031, Control_c, 0, 64, 122
1, 255031, Control_c, 0, 67, 105
1, 255046, Control_c, 0, 64, 124
1, 255046, Control_c, 0, 67, 106
1, 255050, Note_on_c, 0, 45, 37
1, 255061, Control_c, 0, 64, 127
1, 255061, Control_c, 0, 67, 109
1, 255070, Note_off_c, 0, 59, 41
1, 255076, Control_c, 0, 67, 110
1, 255081, Note_off_c, 0, 38, 38
1, 255091, Control_c, 0, 67, 111
1, 255106, Control_c, 0, 67, 111
1, 255118, Note_off_c, 0, 45, 53
1, 255121, Control_c, 0, 67, 112
1, 255136, Control_c, 0, 67, 113
1, 255150, Control_c, 0, 67, 113
1, 255165, Control_c, 0, 67, 114
1, 255447, Control_c, 0, 67, 113
1, 255669, Control_c, 0, 64, 124
1, 255669, Control_c, 0, 67, 114
1, 255684, Control_c, 0, 64, 120
1, 255699, Control_c, 0, 64, 118
1, 255714, Control_c, 0, 64, 116
1, 255729, Control_c, 0, 64, 113
1, 255744, Control_c, 0, 64, 110
1, 255765, Control_c, 0, 64, 108
1, 255780, Control_c, 0, 64, 106
1, 255795, Control_c, 0, 64, 104
1, 255810, Control_c, 0, 64, 102
1, 255810, Control_c, 0, 67, 114
1, 255825, Control_c, 0, 64, 100
1, 255839, Control_c, 0, 64, 98
1, 255839, Control_c, 0, 67, 115
1, 255854, Control_c, 0, 64, 95
1, 255854, Control_c, 0, 67, 116
1, 255869, Control_c, 0, 64, 92
1, 255884, Control_c, 0, 64, 90
1, 255884, Control_c, 0, 67, 117
1, 255899, Control_c, 0, 64, 89
1, 255899, Control_c, 0, 67, 117
1, 255914, Control_c, 0, 64, 87
1, 255914, Control_c, 0, 67, 118
1, 255928, Control_c, 0, 64, 85
1, 255928, Control_c, 0, 67, 119
1, 255943, Control_c, 0, 64, 84
1, 255943, Control_c, 0, 67, 119
1, 255958, Control_c, 0, 64, 82
1, 255958, Control_c, 0, 67, 120
1, 255973, Control_c, 0, 64, 80
1, 255973, Control_c, 0, 67, 121
1, 255988, Control_c, 0, 64, 79
1, 255988, Control_c, 0, 67, 121
1, 255999, Note_on_c, 0, 80, 61
1, 256003, Control_c, 0, 64, 77
1, 256003, Control_c, 0, 67, 122
1, 256009, Note_on_c, 0, 69, 54
1, 256017, Note_on_c, 0, 76, 50
1, 256018, Control_c, 0, 64, 76
1, 256018, Control_c, 0, 67, 122
1, 256033, Control_c, 0, 64, 74
1, 256033, Control_c, 0, 67, 123
1, 256047, Control_c, 0, 64, 71
1, 256062, Control_c, 0, 64, 68
1, 256062, Control_c, 0, 67, 123
1, 256076, Note_on_c, 0, 64, 40
1, 256077, Control_c, 0, 64, 64
1, 256081, Note_on_c, 0, 52, 38
1, 256087, Note_on_c, 0, 57, 39
1, 256091, Control_c, 0, 64, 59
1, 256098, Note_on_c, 0, 49, 38
1, 256106, Control_c, 0, 64, 54
1, 256121, Control_c, 0, 64, 48
1, 256137, Control_c, 0, 64, 32
1, 256152, Control_c, 0, 64, 0
1, 256182, Control_c, 0, 67, 123
1, 256196, Control_c, 0, 67, 122
1, 256211, Control_c, 0, 67, 122
1, 256226, Control_c, 0, 64, 11
1, 256241, Control_c, 0, 64, 40
1, 256241, Control_c, 0, 67, 121
1, 256256, Control_c, 0, 64, 56
1, 256256, Control_c, 0, 67, 121
1, 256270, Control_c, 0, 64, 62
1, 256270, Control_c, 0, 67, 120
1, 256285, Control_c, 0, 64, 64
1, 256300, Control_c, 0, 64, 66
1, 256315, Control_c, 0, 64, 69
1, 256315, Control_c, 0, 67, 120
1, 256330, Control_c, 0, 64, 73
1, 256330, Control_c, 0, 67, 119
1, 256334, Note_off_c, 0, 64, 42
1, 256344, Control_c, 0, 64, 77
1, 256359, Control_c, 0, 64, 81
1, 256374, Control_c, 0, 64, 84
1, 256384, Note_off_c, 0, 57, 24
1, 256388, Control_c, 0, 64, 87
1, 256388, Control_c, 0, 67, 119
1, 256403, Control_c, 0, 64, 90
1, 256418, Control_c, 0, 64, 93
1, 256431, Note_off_c, 0, 52, 36
1, 256433, Note_off_c, 0, 49, 0
1, 256433, Control_c, 0, 64, 96
1, 256448, Control_c, 0, 64, 99
1, 256448, Control_c, 0, 67, 118
1, 256462, Control_c, 0, 64, 102
1, 256470, Poly_aftertouch_c, 0, 49, 127
1, 256477, Control_c, 0, 64, 105
1, 256492, Control_c, 0, 64, 107
1, 256514, Control_c, 0, 64, 111
1, 256514, Control_c, 0, 67, 118
1, 256529, Control_c, 0, 64, 113
1, 256543, Poly_aftertouch_c, 0, 49, 0
1, 256544, Control_c, 0, 64, 115
1, 256559, Control_c, 0, 64, 116
1, 256559, Control_c, 0, 67, 117
1, 256574, Control_c, 0, 64, 118
1, 256588, Control_c, 0, 64, 119
1, 256588, Control_c, 0, 67, 117
1, 256603, Control_c, 0, 64, 122
1, 256624, Note_on_c, 0, 81, 51
1, 256633, Control_c, 0, 67, 116
1, 256653, Note_off_c, 0, 76, 40
1, 256658, Note_off_c, 0, 80, 56
1, 256736, Control_c, 0, 67, 116
1, 256900, Control_c, 0, 64, 120
1, 256945, Control_c, 0, 64, 119
1, 256945, Control_c, 0, 67, 116
1, 256975, Control_c, 0, 64, 117
1, 256975, Control_c, 0, 67, 117
1, 256990, Control_c, 0, 64, 116
1, 256990, Control_c, 0, 67, 117
1, 257005, Control_c, 0, 64, 115
1, 257005, Control_c, 0, 67, 118
1, 257019, Control_c, 0, 64, 113
1, 257019, Control_c, 0, 67, 118
1, 257034, Control_c, 0, 64, 111
1, 257034, Control_c, 0, 67, 119
1, 257049, Control_c, 0, 64, 110
1, 257049, Control_c, 0, 67, 119
1, 257064, Control_c, 0, 64, 108
1, 257064, Control_c, 0, 67, 120
1, 257079, Control_c, 0, 64, 106
1, 257079, Control_c, 0, 67, 120
1, 257093, Control_c, 0, 64, 105
1, 257093, Control_c, 0, 67, 121
1, 257108, Control_c, 0, 64, 103
1, 257123, Control_c, 0, 64, 101
1, 257123, Control_c, 0, 67, 121
1, 257137, Control_c, 0, 64, 99
1, 257137, Control_c, 0, 67, 122
1, 257152, Control_c, 0, 64, 97
1, 257152, Control_c, 0, 67, 122
1, 257167, Control_c, 0, 64, 94
1, 257167, Control_c, 0, 67, 123
1, 257182, Control_c, 0, 64, 91
1, 257197, Control_c, 0, 64, 88
1, 257198, Note_on_c, 0, 78, 56
1, 257211, Note_off_c, 0, 81, 51
1, 257211, Control_c, 0, 64, 84
1, 257211, Control_c, 0, 67, 123
1, 257226, Control_c, 0, 64, 78
1, 257230, Note_on_c, 0, 74, 37
1, 257241, Control_c, 0, 64, 72
1, 257264, Control_c, 0, 64, 65
1, 257266, Note_on_c, 0, 45, 36
1, 257276, Note_on_c, 0, 38, 36
1, 257279, Control_c, 0, 64, 56
1, 257293, Control_c, 0, 64, 44
1, 257308, Control_c, 0, 64, 38
1, 257323, Control_c, 0, 64, 41
1, 257323, Control_c, 0, 67, 123
1, 257337, Control_c, 0, 64, 50
1, 257337, Control_c, 0, 67, 122
1, 257352, Control_c, 0, 64, 58
1, 257352, Control_c, 0, 67, 121
1, 257367, Control_c, 0, 64, 64
1, 257367, Control_c, 0, 67, 121
1, 257382, Control_c, 0, 64, 68
1, 257397, Control_c, 0, 64, 73
1, 257397, Control_c, 0, 67, 120
1, 257411, Control_c, 0, 64, 79
1, 257411, Control_c, 0, 67, 120
1, 257426, Control_c, 0, 64, 84
1, 257426, Control_c, 0, 67, 119
1, 257441, Control_c, 0, 64, 88
1, 257441, Control_c, 0, 67, 119
1, 257456, Control_c, 0, 64, 92
1, 257456, Control_c, 0, 67, 118
1, 257461, Note_off_c, 0, 38, 60
1, 257470, Control_c, 0, 64, 96
1, 257471, Note_off_c, 0, 74, 39
1, 257475, Note_off_c, 0, 45, 53
1, 257485, Control_c, 0, 64, 100
1, 257485, Control_c, 0, 67, 118
1, 257499, Control_c, 0, 64, 104
1, 257499, Control_c, 0, 67, 117
1, 257514, Control_c, 0, 64, 108
1, 257529, Control_c, 0, 64, 111
1, 257529, Control_c, 0, 67, 117
1, 257544, Control_c, 0, 64, 113
1, 257559, Control_c, 0, 64, 115
1, 257574, Control_c, 0, 64, 116
1, 257574, Control_c, 0, 67, 116
1, 257589, Control_c, 0, 64, 117
1, 257618, Control_c, 0, 67, 116
1, 257662, Control_c, 0, 67, 115
1, 257707, Control_c, 0, 67, 115
1, 257738, Control_c, 0, 67, 114
1, 257788, Note_on_c, 0, 68, 45
1, 257867, Note_off_c, 0, 69, 43
1, 257886, Control_c, 0, 67, 114
1, 257937, Note_off_c, 0, 68, 61
1, 257945, Control_c, 0, 67, 113
1, 257959, Control_c, 0, 64, 116
1, 257989, Control_c, 0, 64, 115
1, 258004, Control_c, 0, 64, 113
1, 258027, Control_c, 0, 64, 111
1, 258027, Control_c, 0, 67, 113
1, 258041, Control_c, 0, 64, 109
1, 258056, Control_c, 0, 64, 106
1, 258056, Control_c, 0, 67, 113
1, 258071, Control_c, 0, 64, 103
1, 258086, Control_c, 0, 64, 100
1, 258100, Note_on_c, 0, 69, 49
1, 258101, Control_c, 0, 64, 97
1, 258115, Control_c, 0, 64, 93
1, 258116, Note_on_c, 0, 54, 34
1, 258122, Note_on_c, 0, 50, 41
1, 258130, Control_c, 0, 64, 88
1, 258145, Control_c, 0, 64, 84
1, 258159, Control_c, 0, 64, 79
1, 258174, Control_c, 0, 64, 75
1, 258189, Control_c, 0, 64, 70
1, 258204, Control_c, 0, 64, 65
1, 258204, Control_c, 0, 67, 114
1, 258219, Control_c, 0, 64, 56
1, 258233, Control_c, 0, 64, 46
1, 258248, Control_c, 0, 64, 42
1, 258248, Control_c, 0, 67, 113
1, 258263, Control_c, 0, 64, 45
1, 258278, Control_c, 0, 64, 51
1, 258292, Control_c, 0, 64, 58
1, 258307, Control_c, 0, 64, 64
1, 258322, Control_c, 0, 64, 68
1, 258337, Control_c, 0, 64, 74
1, 258352, Control_c, 0, 64, 79
1, 258367, Control_c, 0, 64, 83
1, 258370, Note_off_c, 0, 69, 54
1, 258382, Control_c, 0, 64, 87
1, 258382, Control_c, 0, 67, 113
1, 258397, Control_c, 0, 64, 91
1, 258405, Note_on_c, 0, 66, 46
1, 258412, Control_c, 0, 64, 96
1, 258425, Note_on_c, 0, 57, 39
1, 258426, Control_c, 0, 64, 101
1, 258429, Note_off_c, 0, 50, 52
1, 258441, Control_c, 0, 64, 109
1, 258453, Note_off_c, 0, 54, 41
1, 258456, Control_c, 0, 64, 115
1, 258461, Note_off_c, 0, 57, 56
1, 258468, Note_off_c, 0, 66, 60
1, 258471, Control_c, 0, 64, 122
1, 258485, Control_c, 0, 64, 127
1, 258519, Note_off_c, 0, 78, 59
1, 258620, Control_c, 0, 67, 112
1, 258635, Control_c, 0, 67, 112
1, 258664, Control_c, 0, 67, 111
1, 258694, Control_c, 0, 67, 111
1, 258724, Control_c, 0, 67, 110
1, 258775, Control_c, 0, 64, 124
1, 258775, Control_c, 0, 67, 110
1, 258790, Control_c, 0, 64, 119
1, 258805, Control_c, 0, 64, 115
1, 258820, Control_c, 0, 64, 112
1, 258835, Control_c, 0, 64, 109
1, 258850, Control_c, 0, 64, 105
1, 258850, Control_c, 0, 67, 110
1, 258853, Note_on_c, 0, 80, 61
1, 258860, Note_on_c, 0, 69, 59
1, 258864, Control_c, 0, 64, 103
1, 258875, Note_on_c, 0, 76, 51
1, 258879, Control_c, 0, 64, 99
1, 258894, Control_c, 0, 64, 96
1, 258909, Control_c, 0, 64, 92
1, 258909, Control_c, 0, 67, 111
1, 258923, Control_c, 0, 64, 87
1, 258936, Note_on_c, 0, 64, 39
1, 258938, Control_c, 0, 64, 81
1, 258952, Note_on_c, 0, 57, 40
1, 258953, Control_c, 0, 64, 74
1, 258954, Note_on_c, 0, 52, 40
1, 258966, Note_on_c, 0, 49, 36
1, 258967, Control_c, 0, 64, 66
1, 258967, Control_c, 0, 67, 111
1, 258982, Control_c, 0, 64, 57
1, 258996, Control_c, 0, 64, 44
1, 259011, Control_c, 0, 64, 37
1, 259026, Control_c, 0, 64, 39
1, 259041, Control_c, 0, 64, 49
1, 259055, Control_c, 0, 64, 57
1, 259070, Control_c, 0, 64, 64
1, 259085, Control_c, 0, 64, 69
1, 259100, Control_c, 0, 64, 74
1, 259115, Control_c, 0, 64, 80
1, 259118, Note_off_c, 0, 64, 41
1, 259130, Control_c, 0, 64, 84
1, 259145, Control_c, 0, 64, 87
1, 259160, Control_c, 0, 64, 91
1, 259175, Control_c, 0, 64, 95
1, 259189, Control_c, 0, 64, 98
1, 259204, Control_c, 0, 64, 102
1, 259219, Control_c, 0, 64, 104
1, 259223, Note_off_c, 0, 57, 32
1, 259234, Control_c, 0, 64, 106
1, 259243, Note_off_c, 0, 52, 35
1, 259249, Control_c, 0, 64, 106
1, 259271, Note_on_c, 0, 81, 61
1, 259278, Control_c, 0, 64, 107
1, 259278, Control_c, 0, 67, 111
1, 259279, Note_off_c, 0, 76, 58
1, 259293, Control_c, 0, 64, 107
1, 259300, Note_off_c, 0, 80, 55
1, 259316, Note_off_c, 0, 49, 39
1, 259322, Control_c, 0, 64, 108
1, 259326, Note_off_c, 0, 81, 57
1, 259523, Control_c, 0, 64, 107
1, 259612, Control_c, 0, 64, 107
1, 259627, Control_c, 0, 64, 106
1, 259642, Control_c, 0, 64, 106
1, 259657, Control_c, 0, 64, 105
1, 259672, Control_c, 0, 64, 104
1, 259686, Control_c, 0, 64, 102
1, 259701, Control_c, 0, 64, 101
1, 259716, Control_c, 0, 64, 99
1, 259731, Control_c, 0, 64, 98
1, 259745, Control_c, 0, 64, 96
1, 259747, Note_on_c, 0, 71, 49
1, 259760, Control_c, 0, 64, 93
1, 259775, Control_c, 0, 64, 90
1, 259778, Note_on_c, 0, 66, 40
1, 259790, Control_c, 0, 64, 87
1, 259805, Control_c, 0, 64, 82
1, 259819, Control_c, 0, 64, 78
1, 259830, Note_on_c, 0, 47, 34
1, 259831, Note_on_c, 0, 39, 45
1, 259834, Control_c, 0, 64, 74
1, 259849, Control_c, 0, 64, 70
1, 259864, Control_c, 0, 64, 66
1, 259879, Control_c, 0, 64, 59
1, 259893, Control_c, 0, 64, 49
1, 259908, Control_c, 0, 64, 35
1, 259923, Control_c, 0, 64, 26
1, 259953, Control_c, 0, 64, 35
1, 259953, Control_c, 0, 67, 110
1, 259968, Control_c, 0, 64, 48
1, 259983, Control_c, 0, 64, 58
1, 259983, Control_c, 0, 67, 110
1, 259985, Note_off_c, 0, 47, 42
1, 259997, Control_c, 0, 64, 65
1, 259997, Control_c, 0, 67, 109
1, 260012, Control_c, 0, 64, 69
1, 260012, Control_c, 0, 67, 108
1, 260027, Control_c, 0, 64, 73
1, 260027, Control_c, 0, 67, 107
1, 260042, Control_c, 0, 64, 79
1, 260042, Control_c, 0, 67, 105
1, 260056, Control_c, 0, 64, 83
1, 260056, Control_c, 0, 67, 103
1, 260071, Control_c, 0, 64, 87
1, 260071, Control_c, 0, 67, 102
1, 260086, Control_c, 0, 64, 92
1, 260086, Control_c, 0, 67, 101
1, 260101, Control_c, 0, 64, 97
1, 260101, Control_c, 0, 67, 100
1, 260110, Note_off_c, 0, 39, 54
1, 260116, Control_c, 0, 64, 102
1, 260116, Control_c, 0, 67, 99
1, 260132, Control_c, 0, 64, 106
1, 260146, Control_c, 0, 64, 110
1, 260146, Control_c, 0, 67, 99
1, 260161, Control_c, 0, 64, 113
1, 260176, Control_c, 0, 64, 115
1, 260191, Control_c, 0, 64, 116
1, 260206, Control_c, 0, 64, 117
1, 260218, Note_on_c, 0, 68, 49
1, 260221, Control_c, 0, 64, 118
1, 260221, Control_c, 0, 67, 98
1, 260238, Note_off_c, 0, 69, 47
1, 260346, Control_c, 0, 67, 98
1, 260435, Control_c, 0, 64, 117
1, 260465, Control_c, 0, 64, 115
1, 260480, Control_c, 0, 64, 113
1, 260495, Control_c, 0, 64, 109
1, 260510, Control_c, 0, 64, 106
1, 260525, Control_c, 0, 64, 102
1, 260540, Control_c, 0, 64, 98
1, 260554, Control_c, 0, 64, 92
1, 260569, Control_c, 0, 64, 86
1, 260580, Note_on_c, 0, 69, 46
1, 260584, Control_c, 0, 64, 80
1, 260591, Note_on_c, 0, 54, 40
1, 260599, Control_c, 0, 64, 72
1, 260606, Note_on_c, 0, 51, 31
1, 260614, Control_c, 0, 64, 63
1, 260629, Control_c, 0, 64, 53
1, 260635, Note_off_c, 0, 66, 37
1, 260643, Control_c, 0, 64, 44
1, 260643, Control_c, 0, 67, 97
1, 260645, Note_off_c, 0, 68, 43
1, 260658, Control_c, 0, 64, 43
1, 260658, Control_c, 0, 67, 96
1, 260673, Control_c, 0, 64, 49
1, 260673, Control_c, 0, 67, 95
1, 260687, Control_c, 0, 64, 56
1, 260702, Control_c, 0, 64, 62
1, 260717, Control_c, 0, 64, 67
1, 260717, Control_c, 0, 67, 95
1, 260732, Control_c, 0, 64, 72
1, 260747, Control_c, 0, 64, 80
1, 260747, Control_c, 0, 67, 94
1, 260761, Control_c, 0, 64, 88
1, 260761, Control_c, 0, 67, 94
1, 260776, Control_c, 0, 64, 94
1, 260776, Control_c, 0, 67, 92
1, 260791, Control_c, 0, 64, 101
1, 260791, Control_c, 0, 67, 89
1, 260806, Control_c, 0, 64, 113
1, 260806, Control_c, 0, 67, 87
1, 260821, Control_c, 0, 64, 127
1, 260821, Control_c, 0, 67, 85
1, 260835, Control_c, 0, 67, 83
1, 260850, Control_c, 0, 67, 81
1, 260865, Control_c, 0, 67, 80
1, 260880, Control_c, 0, 67, 78
1, 260889, Note_off_c, 0, 54, 39
1, 260895, Control_c, 0, 67, 76
1, 260910, Control_c, 0, 67, 74
1, 260925, Control_c, 0, 67, 72
1, 260940, Control_c, 0, 67, 71
1, 260955, Control_c, 0, 67, 69
1, 260966, Note_on_c, 0, 59, 39
1, 260970, Control_c, 0, 67, 68
1, 260971, Note_on_c, 0, 57, 34
1, 260984, Control_c, 0, 67, 67
1, 261007, Control_c, 0, 67, 65
1, 261022, Note_off_c, 0, 57, 48
1, 261022, Control_c, 0, 67, 63
1, 261037, Control_c, 0, 67, 61
1, 261047, Note_off_c, 0, 59, 61
1, 261052, Control_c, 0, 67, 59
1, 261055, Note_off_c, 0, 69, 45
1, 261066, Control_c, 0, 67, 57
1, 261081, Control_c, 0, 67, 55
1, 261096, Control_c, 0, 67, 54
1, 261111, Control_c, 0, 67, 53
1, 261124, Note_off_c, 0, 51, 31
1, 261160, Note_off_c, 0, 71, 61
1, 261170, Control_c, 0, 67, 53
1, 261377, Control_c, 0, 67, 52
1, 261445, Note_on_c, 0, 71, 39
1, 261452, Control_c, 0, 64, 106
1, 261458, Note_on_c, 0, 64, 35
1, 261463, Note_on_c, 0, 69, 37
1, 261466, Control_c, 0, 64, 94
1, 261481, Control_c, 0, 64, 84
1, 261482, Note_on_c, 0, 40, 36
1, 261496, Control_c, 0, 64, 74
1, 261510, Control_c, 0, 64, 66
1, 261525, Control_c, 0, 64, 58
1, 261540, Control_c, 0, 64, 53
1, 261555, Control_c, 0, 64, 56
1, 261570, Control_c, 0, 64, 61
1, 261584, Control_c, 0, 64, 64
1, 261599, Control_c, 0, 64, 68
1, 261599, Control_c, 0, 67, 52
1, 261614, Control_c, 0, 64, 73
1, 261629, Control_c, 0, 64, 81
1, 261644, Control_c, 0, 64, 89
1, 261658, Control_c, 0, 64, 96
1, 261658, Control_c, 0, 67, 51
1, 261673, Control_c, 0, 64, 102
1, 261688, Control_c, 0, 64, 112
1, 261688, Control_c, 0, 67, 51
1, 261702, Control_c, 0, 64, 127
1, 261702, Control_c, 0, 67, 49
1, 261717, Control_c, 0, 67, 44
1, 261733, Note_off_c, 0, 40, 36
1, 261733, Control_c, 0, 67, 40
1, 261756, Control_c, 0, 67, 36
1, 261771, Control_c, 0, 67, 34
1, 261786, Control_c, 0, 67, 31
1, 261801, Control_c, 0, 67, 29
1, 261806, Note_on_c, 0, 52, 40
1, 261815, Control_c, 0, 67, 27
1, 261830, Control_c, 0, 67, 26
1, 261845, Control_c, 0, 67, 26
1, 261858, Note_off_c, 0, 52, 57
1, 261860, Control_c, 0, 67, 25
1, 261875, Control_c, 0, 67, 24
1, 261889, Control_c, 0, 67, 23
1, 261904, Control_c, 0, 67, 21
1, 261919, Control_c, 0, 67, 20
1, 261929, Note_on_c, 0, 73, 61
1, 261933, Control_c, 0, 67, 19
1, 261948, Control_c, 0, 67, 19
1, 261963, Control_c, 0, 67, 18
1, 261970, Note_off_c, 0, 69, 48
1, 261971, Note_off_c, 0, 71, 52
1, 261986, Note_off_c, 0, 64, 42
1, 262004, Note_off_c, 0, 73, 59
1, 262081, Control_c, 0, 67, 18
1, 262111, Control_c, 0, 64, 122
1, 262112, Note_on_c, 0, 73, 68
1, 262116, Note_on_c, 0, 52, 45
1, 262118, Note_on_c, 0, 56, 45
1, 262126, Control_c, 0, 64, 98
1, 262126, Control_c, 0, 67, 17
1, 262128, Note_on_c, 0, 68, 53
1, 262134, Note_on_c, 0, 64, 35
1, 262141, Control_c, 0, 64, 84
1, 262156, Control_c, 0, 64, 72
1, 262156, Control_c, 0, 67, 16
1, 262170, Control_c, 0, 64, 62
1, 262170, Control_c, 0, 67, 13
1, 262185, Control_c, 0, 64, 57
1, 262185, Control_c, 0, 67, 11
1, 262200, Control_c, 0, 64, 58
1, 262200, Control_c, 0, 67, 9
1, 262215, Control_c, 0, 64, 62
1, 262215, Control_c, 0, 67, 0
1, 262230, Control_c, 0, 64, 66
1, 262245, Control_c, 0, 64, 72
1, 262260, Control_c, 0, 64, 81
1, 262274, Control_c, 0, 64, 99
1, 262289, Control_c, 0, 64, 127
1, 262392, Note_off_c, 0, 56, 55
1, 262414, Note_on_c, 0, 61, 50
1, 262456, Note_off_c, 0, 52, 53
1, 262518, Note_off_c, 0, 61, 59
1, 262530, Note_on_c, 0, 74, 76
1, 262554, Note_off_c, 0, 68, 60
1, 262585, Note_off_c, 0, 64, 52
1, 262606, Note_off_c, 0, 73, 32
1, 262615, Note_off_c, 0, 74, 62
1, 262730, Note_on_c, 0, 74, 72
1, 262758, Note_on_c, 0, 66, 54
1, 262759, Note_on_c, 0, 54, 47
1, 262761, Note_on_c, 0, 47, 45
1, 262762, Note_on_c, 0, 62, 51
1, 262771, Control_c, 0, 64, 112
1, 262786, Control_c, 0, 64, 90
1, 262801, Control_c, 0, 64, 75
1, 262816, Control_c, 0, 64, 64
1, 262830, Control_c, 0, 64, 54
1, 262845, Control_c, 0, 64, 47
1, 262860, Control_c, 0, 64, 48
1, 262875, Control_c, 0, 64, 53
1, 262890, Control_c, 0, 64, 60
1, 262904, Control_c, 0, 64, 65
1, 262919, Control_c, 0, 64, 71
1, 262934, Control_c, 0, 64, 81
1, 262949, Control_c, 0, 64, 94
1, 262963, Control_c, 0, 64, 108
1, 262978, Control_c, 0, 64, 127
1, 263035, Note_on_c, 0, 73, 76
1, 263058, Note_on_c, 0, 59, 44
1, 263086, Note_off_c, 0, 54, 30
1, 263091, Note_off_c, 0, 59, 55
1, 263109, Note_off_c, 0, 74, 61
1, 263126, Note_off_c, 0, 62, 59
1, 263145, Note_off_c, 0, 47, 36
1, 263418, Note_on_c, 0, 74, 65
1, 263431, Note_on_c, 0, 64, 50
1, 263434, Note_on_c, 0, 62, 55
1, 263460, Control_c, 0, 64, 105
1, 263475, Control_c, 0, 64, 89
1, 263479, Note_on_c, 0, 40, 42
1, 263490, Control_c, 0, 64, 77
1, 263505, Control_c, 0, 64, 66
1, 263511, Note_off_c, 0, 73, 37
1, 263520, Control_c, 0, 64, 56
1, 263534, Control_c, 0, 64, 44
1, 263547, Note_off_c, 0, 66, 49
1, 263549, Control_c, 0, 64, 40
1, 263564, Control_c, 0, 64, 44
1, 263578, Control_c, 0, 64, 53
1, 263593, Control_c, 0, 64, 61
1, 263608, Control_c, 0, 64, 67
1, 263623, Control_c, 0, 64, 74
1, 263638, Control_c, 0, 64, 84
1, 263652, Control_c, 0, 64, 95
1, 263667, Control_c, 0, 64, 106
1, 263682, Control_c, 0, 64, 124
1, 263697, Control_c, 0, 64, 127
1, 263738, Note_on_c, 0, 68, 72
1, 263754, Note_on_c, 0, 52, 52
1, 263759, Note_off_c, 0, 74, 58
1, 263780, Note_off_c, 0, 40, 30
1, 263859, Note_off_c, 0, 52, 51
1, 263888, Note_off_c, 0, 64, 32
1, 263919, Note_off_c, 0, 68, 60
1, 263930, Note_off_c, 0, 62, 32
1, 264025, Note_on_c, 0, 45, 55
1, 264076, Note_on_c, 0, 68, 61
1, 264086, Note_on_c, 0, 62, 54
1, 264119, Control_c, 0, 64, 115
1, 264135, Control_c, 0, 64, 106
1, 264150, Control_c, 0, 64, 100
1, 264165, Control_c, 0, 64, 97
1, 264180, Control_c, 0, 64, 94
1, 264195, Control_c, 0, 64, 92
1, 264209, Control_c, 0, 64, 90
1, 264224, Control_c, 0, 64, 87
1, 264239, Control_c, 0, 64, 86
1, 264254, Control_c, 0, 64, 84
1, 264269, Control_c, 0, 64, 83
1, 264284, Control_c, 0, 64, 82
1, 264299, Control_c, 0, 64, 81
1, 264314, Control_c, 0, 64, 79
1, 264328, Control_c, 0, 64, 75
1, 264343, Control_c, 0, 64, 69
1, 264344, Note_on_c, 0, 52, 65
1, 264358, Control_c, 0, 64, 63
1, 264373, Control_c, 0, 64, 53
1, 264388, Control_c, 0, 64, 46
1, 264402, Control_c, 0, 64, 45
1, 264417, Control_c, 0, 64, 49
1, 264432, Control_c, 0, 64, 56
1, 264447, Control_c, 0, 64, 62
1, 264462, Control_c, 0, 64, 68
1, 264476, Control_c, 0, 64, 75
1, 264491, Control_c, 0, 64, 81
1, 264506, Control_c, 0, 64, 83
1, 264521, Control_c, 0, 64, 84
1, 264609, Control_c, 0, 64, 83
1, 264624, Control_c, 0, 64, 83
1, 264639, Control_c, 0, 64, 81
1, 264641, Note_on_c, 0, 69, 63
1, 264654, Control_c, 0, 64, 79
1, 264657, Note_on_c, 0, 61, 53
1, 264663, Note_on_c, 0, 57, 55
1, 264668, Control_c, 0, 64, 76
1, 264677, Note_off_c, 0, 52, 54
1, 264683, Control_c, 0, 64, 73
1, 264698, Control_c, 0, 64, 67
1, 264713, Control_c, 0, 64, 58
1, 264719, Note_off_c, 0, 68, 56
1, 264728, Control_c, 0, 64, 43
1, 264743, Control_c, 0, 64, 23
1, 264763, Note_off_c, 0, 62, 57
1, 264765, Control_c, 0, 64, 0
1, 264795, Control_c, 0, 64, 15
1, 264809, Control_c, 0, 64, 32
1, 264824, Control_c, 0, 64, 48
1, 264839, Control_c, 0, 64, 60
1, 264854, Control_c, 0, 64, 65
1, 264869, Control_c, 0, 64, 67
1, 264883, Control_c, 0, 64, 70
1, 264898, Control_c, 0, 64, 74
1, 264911, Note_off_c, 0, 61, 63
1, 264913, Control_c, 0, 64, 80
1, 264929, Control_c, 0, 64, 86
1, 264932, Note_on_c, 0, 56, 67
1, 264944, Note_off_c, 0, 57, 57
1, 264944, Control_c, 0, 64, 92
1, 264958, Control_c, 0, 64, 97
1, 264973, Control_c, 0, 64, 104
1, 264986, Note_off_c, 0, 69, 58
1, 264988, Control_c, 0, 64, 113
1, 265003, Control_c, 0, 64, 124
1, 265018, Control_c, 0, 64, 127
1, 265069, Note_off_c, 0, 56, 61
1, 265071, Note_off_c, 0, 45, 42
1, 265299, Control_c, 0, 64, 111
1, 265300, Note_on_c, 0, 69, 60
1, 265314, Note_on_c, 0, 66, 52
1, 265314, Control_c, 0, 64, 103
1, 265321, Note_on_c, 0, 61, 49
1, 265329, Control_c, 0, 64, 95
1, 265344, Control_c, 0, 64, 88
1, 265358, Control_c, 0, 64, 81
1, 265371, Note_on_c, 0, 45, 46
1, 265372, Note_on_c, 0, 54, 44
1, 265373, Control_c, 0, 64, 74
1, 265388, Control_c, 0, 64, 66
1, 265403, Control_c, 0, 64, 57
1, 265418, Control_c, 0, 64, 43
1, 265432, Control_c, 0, 64, 25
1, 265447, Control_c, 0, 64, 9
1, 265462, Control_c, 0, 64, 8
1, 265476, Control_c, 0, 64, 22
1, 265491, Control_c, 0, 64, 38
1, 265514, Control_c, 0, 64, 53
1, 265529, Control_c, 0, 64, 63
1, 265544, Control_c, 0, 64, 68
1, 265558, Control_c, 0, 64, 73
1, 265573, Control_c, 0, 64, 78
1, 265588, Control_c, 0, 64, 83
1, 265603, Control_c, 0, 64, 88
1, 265614, Note_off_c, 0, 45, 57
1, 265618, Control_c, 0, 64, 94
1, 265632, Control_c, 0, 64, 101
1, 265640, Note_on_c, 0, 57, 61
1, 265647, Control_c, 0, 64, 110
1, 265662, Note_off_c, 0, 54, 63
1, 265662, Control_c, 0, 64, 127
1, 265877, Note_off_c, 0, 61, 58
1, 265953, Note_on_c, 0, 71, 65
1, 265996, Note_off_c, 0, 57, 41
1, 266011, Note_on_c, 0, 61, 61
1, 266069, Note_off_c, 0, 69, 36
1, 266261, Note_off_c, 0, 61, 63
1, 266269, Note_on_c, 0, 57, 54
1, 266502, Note_on_c, 0, 69, 72
1, 266512, Note_on_c, 0, 54, 58
1, 266538, Note_off_c, 0, 71, 57
1, 266560, Note_off_c, 0, 57, 46
1, 266749, Note_on_c, 0, 52, 59
1, 266766, Note_off_c, 0, 69, 50
1, 266778, Note_off_c, 0, 54, 55
1, 266788, Note_off_c, 0, 66, 47
1, 266806, Note_off_c, 0, 52, 63
1, 267029, Note_on_c, 0, 69, 72
1, 267041, Control_c, 0, 64, 115
1, 267044, Note_on_c, 0, 66, 55
1, 267047, Note_on_c, 0, 62, 54
1, 267056, Control_c, 0, 64, 105
1, 267071, Control_c, 0, 64, 97
1, 267086, Control_c, 0, 64, 90
1, 267086, Note_on_c, 0, 50, 61
1, 267091, Note_on_c, 0, 45, 56
1, 267101, Control_c, 0, 64, 82
1, 267116, Control_c, 0, 64, 75
1, 267130, Control_c, 0, 64, 68
1, 267145, Control_c, 0, 64, 59
1, 267160, Control_c, 0, 64, 42
1, 267175, Control_c, 0, 64, 0
1, 267264, Control_c, 0, 64, 12
1, 267278, Control_c, 0, 64, 40
1, 267293, Control_c, 0, 64, 56
1, 267308, Control_c, 0, 64, 61
1, 267324, Control_c, 0, 64, 63
1, 267328, Note_on_c, 0, 54, 65
1, 267339, Control_c, 0, 64, 64
1, 267353, Control_c, 0, 64, 66
1, 267368, Control_c, 0, 64, 68
1, 267383, Control_c, 0, 64, 71
1, 267398, Control_c, 0, 64, 74
1, 267407, Note_off_c, 0, 50, 53
1, 267413, Control_c, 0, 64, 76
1, 267427, Control_c, 0, 64, 77
1, 267442, Control_c, 0, 64, 79
1, 267457, Control_c, 0, 64, 80
1, 267472, Control_c, 0, 64, 82
1, 267487, Control_c, 0, 64, 83
1, 267501, Control_c, 0, 64, 84
1, 267516, Control_c, 0, 64, 85
1, 267531, Control_c, 0, 64, 86
1, 267545, Control_c, 0, 64, 86
1, 267560, Control_c, 0, 64, 87
1, 267573, Note_on_c, 0, 71, 72
1, 267575, Control_c, 0, 64, 87
1, 267590, Control_c, 0, 64, 89
1, 267595, Note_on_c, 0, 57, 66
1, 267605, Control_c, 0, 64, 90
1, 267620, Control_c, 0, 64, 92
1, 267634, Note_off_c, 0, 69, 58
1, 267634, Control_c, 0, 64, 93
1, 267640, Note_off_c, 0, 54, 58
1, 267649, Control_c, 0, 64, 94
1, 267664, Control_c, 0, 64, 95
1, 267679, Control_c, 0, 64, 96
1, 267694, Control_c, 0, 64, 98
1, 267709, Control_c, 0, 64, 99
1, 267724, Control_c, 0, 64, 100
1, 267745, Control_c, 0, 64, 101
1, 267760, Control_c, 0, 64, 102
1, 267775, Control_c, 0, 64, 102
1, 267790, Control_c, 0, 64, 103
1, 267805, Control_c, 0, 64, 104
1, 267819, Control_c, 0, 64, 104
1, 267834, Note_on_c, 0, 54, 64
1, 267834, Control_c, 0, 64, 105
1, 267849, Control_c, 0, 64, 105
1, 267864, Control_c, 0, 64, 106
1, 267879, Control_c, 0, 64, 107
1, 267894, Control_c, 0, 64, 109
1, 267903, Note_off_c, 0, 57, 35
1, 267909, Control_c, 0, 64, 109
1, 267924, Control_c, 0, 64, 110
1, 267939, Control_c, 0, 64, 111
1, 267953, Control_c, 0, 64, 113
1, 267968, Control_c, 0, 64, 113
1, 267998, Control_c, 0, 64, 114
1, 268013, Control_c, 0, 64, 115
1, 268027, Control_c, 0, 64, 115
1, 268062, Note_on_c, 0, 69, 77
1, 268073, Note_on_c, 0, 50, 63
1, 268094, Note_off_c, 0, 71, 59
1, 268149, Note_off_c, 0, 54, 54
1, 268255, Note_off_c, 0, 62, 36
1, 268269, Note_off_c, 0, 45, 42
1, 268275, Note_off_c, 0, 69, 58
1, 268278, Note_on_c, 0, 49, 62
1, 268311, Note_off_c, 0, 66, 51
1, 268311, Note_off_c, 0, 50, 63
1, 268354, Note_off_c, 0, 49, 63
1, 268472, Control_c, 0, 64, 115
1, 268509, Control_c, 0, 64, 113
1, 268524, Control_c, 0, 64, 110
1, 268539, Control_c, 0, 64, 107
1, 268540, Note_on_c, 0, 45, 66
1, 268547, Note_on_c, 0, 47, 68
1, 268554, Control_c, 0, 64, 103
1, 268568, Control_c, 0, 64, 99
1, 268583, Control_c, 0, 64, 95
1, 268598, Control_c, 0, 64, 89
1, 268613, Control_c, 0, 64, 84
1, 268618, Note_on_c, 0, 69, 73
1, 268628, Control_c, 0, 64, 78
1, 268631, Note_on_c, 0, 62, 64
1, 268632, Note_on_c, 0, 66, 67
1, 268642, Control_c, 0, 64, 70
1, 268657, Control_c, 0, 64, 61
1, 268672, Control_c, 0, 64, 46
1, 268687, Control_c, 0, 64, 30
1, 268702, Control_c, 0, 64, 30
1, 268717, Control_c, 0, 64, 40
1, 268731, Control_c, 0, 64, 51
1, 268746, Control_c, 0, 64, 59
1, 268761, Control_c, 0, 64, 65
1, 268776, Control_c, 0, 64, 69
1, 268791, Control_c, 0, 64, 73
1, 268806, Control_c, 0, 64, 77
1, 268807, Note_on_c, 0, 50, 71
1, 268821, Control_c, 0, 64, 81
1, 268836, Control_c, 0, 64, 84
1, 268850, Control_c, 0, 64, 87
1, 268865, Control_c, 0, 64, 90
1, 268879, Note_off_c, 0, 47, 34
1, 268880, Control_c, 0, 64, 92
1, 268894, Control_c, 0, 64, 94
1, 268909, Control_c, 0, 64, 97
1, 268925, Control_c, 0, 64, 100
1, 268940, Control_c, 0, 64, 103
1, 268955, Control_c, 0, 64, 105
1, 268970, Control_c, 0, 64, 107
1, 268985, Control_c, 0, 64, 109
1, 268999, Control_c, 0, 64, 111
1, 269014, Control_c, 0, 64, 115
1, 269029, Control_c, 0, 64, 118
1, 269038, Note_on_c, 0, 74, 77
1, 269044, Control_c, 0, 64, 120
1, 269059, Control_c, 0, 64, 124
1, 269073, Control_c, 0, 64, 127
1, 269077, Note_on_c, 0, 54, 62
1, 269116, Note_off_c, 0, 62, 62
1, 269130, Note_off_c, 0, 69, 62
1, 269132, Note_off_c, 0, 66, 53
1, 269296, Note_on_c, 0, 57, 66
1, 269301, Note_off_c, 0, 54, 57
1, 269301, Note_off_c, 0, 45, 43
1, 269327, Note_off_c, 0, 50, 31
1, 269353, Note_off_c, 0, 57, 58
1, 269464, Control_c, 0, 64, 124
1, 269479, Control_c, 0, 64, 115
1, 269494, Note_on_c, 0, 45, 51
1, 269494, Control_c, 0, 64, 108
1, 269495, Note_on_c, 0, 52, 63
1, 269509, Control_c, 0, 64, 103
1, 269523, Control_c, 0, 64, 98
1, 269538, Control_c, 0, 64, 93
1, 269553, Control_c, 0, 64, 87
1, 269568, Control_c, 0, 64, 82
1, 269570, Note_on_c, 0, 73, 76
1, 269583, Control_c, 0, 64, 77
1, 269584, Note_on_c, 0, 68, 68
1, 269590, Note_on_c, 0, 64, 62
1, 269595, Note_off_c, 0, 74, 63
1, 269597, Control_c, 0, 64, 71
1, 269612, Control_c, 0, 64, 62
1, 269627, Control_c, 0, 64, 50
1, 269641, Control_c, 0, 64, 25
1, 269656, Control_c, 0, 64, 0
1, 269717, Control_c, 0, 64, 20
1, 269732, Control_c, 0, 64, 44
1, 269746, Control_c, 0, 64, 58
1, 269761, Control_c, 0, 64, 64
1, 269776, Control_c, 0, 64, 66
1, 269791, Control_c, 0, 64, 67
1, 269806, Control_c, 0, 64, 71
1, 269820, Control_c, 0, 64, 74
1, 269835, Control_c, 0, 64, 78
1, 269850, Control_c, 0, 64, 81
1, 269861, Note_off_c, 0, 52, 62
1, 269865, Control_c, 0, 64, 84
1, 269870, Note_off_c, 0, 45, 34
1, 269880, Control_c, 0, 64, 86
1, 269883, Note_on_c, 0, 56, 52
1, 269894, Control_c, 0, 64, 89
1, 269909, Control_c, 0, 64, 92
1, 269924, Control_c, 0, 64, 94
1, 269939, Control_c, 0, 64, 96
1, 269954, Control_c, 0, 64, 97
1, 269969, Control_c, 0, 64, 99
1, 269983, Control_c, 0, 64, 100
1, 270006, Control_c, 0, 64, 101
1, 270020, Control_c, 0, 64, 101
1, 270035, Control_c, 0, 64, 102
1, 270050, Control_c, 0, 64, 102
1, 270094, Control_c, 0, 64, 103
1, 270159, Note_off_c, 0, 64, 47
1, 270174, Note_on_c, 0, 59, 54
1, 270186, Note_off_c, 0, 56, 24
1, 270247, Note_off_c, 0, 68, 42
1, 270414, Note_off_c, 0, 59, 34
1, 270434, Note_on_c, 0, 71, 66
1, 270456, Note_on_c, 0, 62, 45
1, 270492, Note_off_c, 0, 62, 62
1, 270510, Control_c, 0, 64, 102
1, 270568, Note_off_c, 0, 73, 27
1, 270643, Control_c, 0, 64, 102
1, 270673, Control_c, 0, 64, 101
1, 270688, Control_c, 0, 64, 101
1, 270703, Control_c, 0, 64, 100
1, 270717, Control_c, 0, 64, 99
1, 270740, Control_c, 0, 64, 99
1, 270755, Control_c, 0, 64, 98
1, 270769, Control_c, 0, 64, 97
1, 270784, Control_c, 0, 64, 96
1, 270799, Control_c, 0, 64, 95
1, 270803, Note_off_c, 0, 71, 53
1, 270814, Control_c, 0, 64, 94
1, 270829, Control_c, 0, 64, 92
1, 270843, Note_on_c, 0, 68, 57
1, 270843, Control_c, 0, 64, 91
1, 270858, Control_c, 0, 64, 89
1, 270863, Note_on_c, 0, 62, 48
1, 270873, Control_c, 0, 64, 86
1, 270888, Control_c, 0, 64, 83
1, 270899, Note_on_c, 0, 45, 50
1, 270902, Control_c, 0, 64, 80
1, 270917, Control_c, 0, 64, 76
1, 270932, Control_c, 0, 64, 73
1, 270948, Control_c, 0, 64, 69
1, 270963, Control_c, 0, 64, 64
1, 270977, Control_c, 0, 64, 56
1, 270992, Control_c, 0, 64, 43
1, 271007, Control_c, 0, 64, 30
1, 271022, Control_c, 0, 64, 26
1, 271037, Control_c, 0, 64, 31
1, 271051, Control_c, 0, 64, 41
1, 271066, Control_c, 0, 64, 52
1, 271066, Control_c, 0, 67, 8
1, 271081, Control_c, 0, 64, 61
1, 271081, Control_c, 0, 67, 10
1, 271095, Control_c, 0, 64, 65
1, 271095, Control_c, 0, 67, 13
1, 271110, Control_c, 0, 64, 68
1, 271110, Control_c, 0, 67, 16
1, 271125, Control_c, 0, 64, 71
1, 271125, Control_c, 0, 67, 19
1, 271140, Control_c, 0, 64, 72
1, 271140, Control_c, 0, 67, 25
1, 271155, Control_c, 0, 67, 29
1, 271170, Control_c, 0, 64, 71
1, 271170, Control_c, 0, 67, 33
1, 271185, Control_c, 0, 64, 68
1, 271185, Control_c, 0, 67, 35
1, 271200, Control_c, 0, 64, 65
1, 271213, Note_on_c, 0, 52, 49
1, 271215, Control_c, 0, 64, 63
1, 271229, Control_c, 0, 64, 63
1, 271229, Control_c, 0, 67, 35
1, 271244, Control_c, 0, 64, 64
1, 271259, Control_c, 0, 64, 66
1, 271259, Control_c, 0, 67, 36
1, 271274, Control_c, 0, 64, 69
1, 271288, Control_c, 0, 64, 71
1, 271303, Control_c, 0, 64, 72
1, 271319, Control_c, 0, 64, 73
1, 271319, Control_c, 0, 67, 36
1, 271334, Control_c, 0, 67, 38
1, 271349, Control_c, 0, 67, 41
1, 271364, Control_c, 0, 67, 44
1, 271379, Control_c, 0, 67, 46
1, 271393, Control_c, 0, 67, 47
1, 271408, Control_c, 0, 64, 72
1, 271408, Control_c, 0, 67, 49
1, 271423, Control_c, 0, 64, 71
1, 271423, Control_c, 0, 67, 51
1, 271438, Control_c, 0, 64, 67
1, 271438, Control_c, 0, 67, 52
1, 271453, Control_c, 0, 64, 60
1, 271453, Control_c, 0, 67, 53
1, 271467, Control_c, 0, 64, 49
1, 271467, Control_c, 0, 67, 52
1, 271489, Control_c, 0, 64, 35
1, 271489, Control_c, 0, 67, 52
1, 271504, Control_c, 0, 64, 32
1, 271504, Control_c, 0, 67, 51
1, 271508, Note_on_c, 0, 69, 47
1, 271519, Control_c, 0, 64, 39
1, 271519, Control_c, 0, 67, 50
1, 271526, Note_on_c, 0, 61, 38
1, 271528, Note_on_c, 0, 57, 42
1, 271534, Control_c, 0, 64, 49
1, 271534, Control_c, 0, 67, 49
1, 271548, Note_off_c, 0, 68, 56
1, 271548, Control_c, 0, 64, 57
1, 271548, Control_c, 0, 67, 49
1, 271554, Note_off_c, 0, 52, 49
1, 271563, Control_c, 0, 64, 63
1, 271563, Control_c, 0, 67, 48
1, 271578, Control_c, 0, 64, 66
1, 271593, Control_c, 0, 64, 68
1, 271593, Control_c, 0, 67, 48
1, 271608, Control_c, 0, 64, 69
1, 271608, Control_c, 0, 67, 47
1, 271616, Note_off_c, 0, 62, 37
1, 271623, Control_c, 0, 64, 71
1, 271623, Control_c, 0, 67, 47
1, 271638, Control_c, 0, 64, 71
1, 271638, Control_c, 0, 67, 46
1, 271653, Control_c, 0, 64, 72
1, 271653, Control_c, 0, 67, 46
1, 271667, Control_c, 0, 67, 45
1, 271682, Control_c, 0, 64, 72
1, 271682, Control_c, 0, 67, 45
1, 271756, Control_c, 0, 64, 72
1, 271756, Control_c, 0, 67, 44
1, 271771, Control_c, 0, 64, 71
1, 271771, Control_c, 0, 67, 44
1, 271786, Control_c, 0, 64, 67
1, 271800, Control_c, 0, 64, 61
1, 271800, Control_c, 0, 67, 43
1, 271815, Control_c, 0, 64, 48
1, 271815, Control_c, 0, 67, 43
1, 271826, Note_on_c, 0, 44, 49
1, 271830, Control_c, 0, 64, 41
1, 271845, Control_c, 0, 64, 46
1, 271845, Control_c, 0, 67, 42
1, 271855, Note_off_c, 0, 57, 41
1, 271860, Control_c, 0, 64, 55
1, 271871, Note_off_c, 0, 45, 58
1, 271874, Control_c, 0, 64, 62
1, 271874, Control_c, 0, 67, 42
1, 271886, Note_off_c, 0, 61, 52
1, 271889, Control_c, 0, 64, 66
1, 271904, Control_c, 0, 64, 71
1, 271918, Control_c, 0, 64, 76
1, 271933, Control_c, 0, 64, 80
1, 271933, Control_c, 0, 67, 41
1, 271948, Control_c, 0, 64, 83
1, 271963, Control_c, 0, 64, 85
1, 271964, Note_off_c, 0, 69, 58
1, 271978, Control_c, 0, 64, 88
1, 271993, Control_c, 0, 64, 90
1, 272007, Control_c, 0, 64, 91
1, 272022, Control_c, 0, 64, 92
1, 272097, Control_c, 0, 67, 41
1, 272203, Note_on_c, 0, 42, 43
1, 272216, Control_c, 0, 64, 92
1, 272216, Note_off_c, 0, 44, 19
1, 272238, Control_c, 0, 64, 90
1, 272253, Control_c, 0, 64, 88
1, 272268, Control_c, 0, 64, 85
1, 272268, Control_c, 0, 67, 40
1, 272282, Note_on_c, 0, 69, 53
1, 272283, Control_c, 0, 64, 82
1, 272297, Control_c, 0, 64, 79
1, 272300, Note_on_c, 0, 61, 46
1, 272302, Note_on_c, 0, 66, 41
1, 272312, Control_c, 0, 64, 74
1, 272327, Control_c, 0, 64, 69
1, 272341, Control_c, 0, 64, 63
1, 272356, Control_c, 0, 64, 54
1, 272356, Control_c, 0, 67, 40
1, 272371, Control_c, 0, 64, 42
1, 272386, Control_c, 0, 64, 30
1, 272386, Control_c, 0, 67, 39
1, 272401, Control_c, 0, 64, 25
1, 272401, Control_c, 0, 67, 39
1, 272416, Control_c, 0, 64, 26
1, 272431, Control_c, 0, 64, 35
1, 272431, Control_c, 0, 67, 38
1, 272446, Control_c, 0, 64, 48
1, 272461, Control_c, 0, 64, 59
1, 272475, Control_c, 0, 64, 65
1, 272490, Control_c, 0, 64, 68
1, 272490, Control_c, 0, 67, 38
1, 272505, Control_c, 0, 64, 71
1, 272520, Control_c, 0, 64, 75
1, 272520, Control_c, 0, 67, 37
1, 272534, Control_c, 0, 64, 79
1, 272534, Control_c, 0, 67, 37
1, 272549, Control_c, 0, 64, 84
1, 272549, Control_c, 0, 67, 35
1, 272564, Control_c, 0, 64, 89
1, 272564, Control_c, 0, 67, 31
1, 272576, Note_on_c, 0, 49, 55
1, 272579, Control_c, 0, 64, 95
1, 272579, Control_c, 0, 67, 28
1, 272594, Control_c, 0, 64, 101
1, 272594, Control_c, 0, 67, 25
1, 272608, Control_c, 0, 64, 111
1, 272608, Control_c, 0, 67, 21
1, 272623, Control_c, 0, 64, 127
1, 272623, Control_c, 0, 67, 19
1, 272638, Control_c, 0, 67, 16
1, 272653, Control_c, 0, 67, 14
1, 272668, Control_c, 0, 67, 12
1, 272683, Control_c, 0, 67, 11
1, 272697, Control_c, 0, 67, 9
1, 272712, Control_c, 0, 67, 0
1, 272886, Note_on_c, 0, 71, 62
1, 272911, Note_on_c, 0, 57, 45
1, 272981, Note_off_c, 0, 49, 55
1, 273016, Note_off_c, 0, 69, 37
1, 273088, Note_off_c, 0, 42, 30
1, 273130, Poly_aftertouch_c, 0, 44, 127
1, 273161, Note_off_c, 0, 57, 38
1, 273164, Note_on_c, 0, 49, 53
1, 273212, Poly_aftertouch_c, 0, 44, 0
1, 273405, Note_on_c, 0, 69, 68
1, 273418, Note_off_c, 0, 49, 35
1, 273420, Note_on_c, 0, 42, 42
1, 273483, Note_off_c, 0, 42, 59
1, 273600, Note_off_c, 0, 61, 51
1, 273623, Note_off_c, 0, 71, 40
1, 273661, Note_on_c, 0, 40, 68
1, 273692, Note_off_c, 0, 69, 55
1, 273719, Note_off_c, 0, 66, 42
1, 273882, Note_off_c, 0, 40, 31
1, 273892, Note_on_c, 0, 38, 68
1, 273957, Control_c, 0, 64, 104
1, 273972, Control_c, 0, 64, 91
1, 273973, Note_on_c, 0, 69, 77
1, 273982, Note_on_c, 0, 66, 62
1, 273987, Control_c, 0, 64, 79
1, 273990, Note_on_c, 0, 62, 62
1, 274002, Control_c, 0, 64, 68
1, 274017, Control_c, 0, 64, 57
1, 274032, Control_c, 0, 64, 39
1, 274046, Control_c, 0, 64, 31
1, 274061, Control_c, 0, 64, 34
1, 274076, Control_c, 0, 64, 45
1, 274091, Control_c, 0, 64, 56
1, 274105, Control_c, 0, 64, 64
1, 274120, Control_c, 0, 64, 70
1, 274135, Control_c, 0, 64, 78
1, 274150, Control_c, 0, 64, 88
1, 274165, Control_c, 0, 64, 96
1, 274179, Control_c, 0, 64, 108
1, 274194, Control_c, 0, 64, 127
1, 274219, Note_on_c, 0, 45, 67
1, 274311, Note_off_c, 0, 38, 58
1, 274538, Note_on_c, 0, 71, 74
1, 274555, Note_on_c, 0, 54, 63
1, 274607, Note_off_c, 0, 69, 58
1, 274607, Note_off_c, 0, 45, 27
1, 274768, Note_off_c, 0, 54, 60
1, 274777, Note_on_c, 0, 45, 59
1, 275029, Note_on_c, 0, 69, 78
1, 275036, Note_on_c, 0, 38, 63
1, 275048, Note_off_c, 0, 45, 63
1, 275048, Control_c, 0, 64, 109
1, 275063, Control_c, 0, 64, 85
1, 275077, Control_c, 0, 64, 70
1, 275092, Control_c, 0, 64, 61
1, 275107, Control_c, 0, 64, 57
1, 275122, Control_c, 0, 64, 60
1, 275136, Control_c, 0, 64, 66
1, 275140, Note_off_c, 0, 71, 50
1, 275151, Control_c, 0, 64, 71
1, 275166, Control_c, 0, 64, 81
1, 275181, Control_c, 0, 64, 96
1, 275196, Control_c, 0, 64, 120
1, 275210, Control_c, 0, 64, 127
1, 275319, Note_on_c, 0, 37, 73
1, 275359, Note_off_c, 0, 38, 38
1, 275359, Note_off_c, 0, 62, 58
1, 275431, Note_off_c, 0, 69, 55
1, 275434, Note_off_c, 0, 66, 51
1, 275608, Note_on_c, 0, 35, 72
1, 275645, Note_off_c, 0, 37, 24
1, 275678, Control_c, 0, 64, 109
1, 275693, Control_c, 0, 64, 80
1, 275698, Note_on_c, 0, 69, 84
1, 275707, Control_c, 0, 64, 64
1, 275720, Note_on_c, 0, 66, 59
1, 275722, Note_on_c, 0, 62, 61
1, 275722, Control_c, 0, 64, 49
1, 275737, Control_c, 0, 64, 41
1, 275752, Control_c, 0, 64, 48
1, 275766, Control_c, 0, 64, 58
1, 275781, Control_c, 0, 64, 66
1, 275796, Control_c, 0, 64, 77
1, 275811, Control_c, 0, 64, 100
1, 275826, Control_c, 0, 64, 127
1, 275895, Note_off_c, 0, 62, 54
1, 276008, Note_off_c, 0, 66, 35
1, 276035, Note_off_c, 0, 69, 66
1, 276144, Note_on_c, 0, 47, 70
1, 276167, Note_off_c, 0, 35, 53
1, 276398, Note_on_c, 0, 78, 85
1, 276524, Note_on_c, 0, 50, 64
1, 276618, Note_off_c, 0, 47, 59
1, 276873, Note_on_c, 0, 54, 78
1, 277182, Note_on_c, 0, 57, 76
1, 277189, Note_off_c, 0, 50, 55
1, 277214, Note_off_c, 0, 54, 62
1, 277272, Note_on_c, 0, 74, 77
1, 277454, Note_off_c, 0, 78, 31
1, 277484, Note_off_c, 0, 57, 50
1, 277501, Note_on_c, 0, 62, 75
1, 277899, Note_on_c, 0, 66, 71
1, 278052, Note_off_c, 0, 62, 58
1, 278229, Note_off_c, 0, 66, 57
1, 278330, Note_on_c, 0, 71, 64
1, 278364, Note_off_c, 0, 74, 62
1, 278396, Note_on_c, 0, 62, 67
1, 278462, Note_off_c, 0, 71, 61
1, 278472, Note_off_c, 0, 62, 64
1, 279105, Note_on_c, 0, 68, 57
1, 279122, Note_on_c, 0, 61, 44
1, 279123, Note_on_c, 0, 64, 43
1, 279155, Control_c, 0, 64, 103
1, 279169, Note_on_c, 0, 40, 56
1, 279170, Control_c, 0, 64, 92
1, 279184, Control_c, 0, 64, 83
1, 279199, Control_c, 0, 64, 74
1, 279214, Control_c, 0, 64, 64
1, 279229, Control_c, 0, 64, 50
1, 279244, Control_c, 0, 64, 12
1, 279258, Control_c, 0, 64, 0
1, 279319, Control_c, 0, 64, 31
1, 279333, Control_c, 0, 64, 51
1, 279348, Control_c, 0, 64, 61
1, 279363, Control_c, 0, 64, 66
1, 279378, Control_c, 0, 64, 68
1, 279393, Control_c, 0, 64, 72
1, 279407, Control_c, 0, 64, 76
1, 279422, Control_c, 0, 64, 80
1, 279437, Control_c, 0, 64, 83
1, 279452, Control_c, 0, 64, 87
1, 279467, Control_c, 0, 64, 91
1, 279481, Control_c, 0, 64, 94
1, 279496, Control_c, 0, 64, 98
1, 279511, Control_c, 0, 64, 101
1, 279525, Control_c, 0, 64, 104
1, 279540, Control_c, 0, 64, 109
1, 279549, Note_on_c, 0, 49, 46
1, 279555, Control_c, 0, 64, 115
1, 279570, Control_c, 0, 64, 127
1, 279630, Control_c, 0, 67, 9
1, 279638, Note_off_c, 0, 40, 31
1, 279645, Control_c, 0, 67, 10
1, 279659, Control_c, 0, 67, 11
1, 279689, Control_c, 0, 67, 12
1, 279755, Control_c, 0, 67, 13
1, 279770, Control_c, 0, 67, 15
1, 279785, Control_c, 0, 67, 17
1, 279800, Control_c, 0, 67, 19
1, 279814, Control_c, 0, 67, 20
1, 279829, Control_c, 0, 67, 20
1, 279913, Note_on_c, 0, 52, 47
1, 279993, Note_on_c, 0, 69, 53
1, 280022, Control_c, 0, 67, 21
1, 280026, Note_off_c, 0, 49, 32
1, 280034, Note_off_c, 0, 68, 32
1, 280037, Control_c, 0, 67, 21
1, 280171, Control_c, 0, 67, 22
1, 280191, Note_off_c, 0, 69, 59
1, 280201, Control_c, 0, 67, 22
1, 280209, Note_off_c, 0, 64, 42
1, 280216, Control_c, 0, 67, 24
1, 280230, Control_c, 0, 67, 30
1, 280244, Note_off_c, 0, 52, 43
1, 280245, Control_c, 0, 67, 35
1, 280260, Control_c, 0, 67, 39
1, 280275, Control_c, 0, 67, 43
1, 280290, Control_c, 0, 67, 45
1, 280297, Note_on_c, 0, 57, 44
1, 280304, Control_c, 0, 67, 45
1, 280319, Control_c, 0, 67, 45
1, 280333, Note_off_c, 0, 61, 46
1, 280342, Note_off_c, 0, 57, 55
1, 280348, Control_c, 0, 67, 44
1, 280363, Control_c, 0, 67, 44
1, 280378, Control_c, 0, 67, 43
1, 280393, Control_c, 0, 67, 43
1, 280408, Control_c, 0, 67, 42
1, 280437, Control_c, 0, 67, 42
1, 280467, Control_c, 0, 67, 41
1, 280519, Control_c, 0, 67, 41
1, 280637, Control_c, 0, 67, 40
1, 280756, Control_c, 0, 67, 40
1, 280832, Note_on_c, 0, 64, 52
1, 280846, Note_on_c, 0, 61, 42
1, 280860, Control_c, 0, 64, 122
1, 280861, Note_on_c, 0, 56, 43
1, 280874, Control_c, 0, 64, 117
1, 280888, Note_on_c, 0, 28, 71
1, 280889, Control_c, 0, 64, 115
1, 280905, Control_c, 0, 64, 111
1, 280920, Control_c, 0, 64, 108
1, 280935, Control_c, 0, 64, 104
1, 280950, Control_c, 0, 64, 98
1, 280965, Control_c, 0, 64, 91
1, 280979, Control_c, 0, 64, 85
1, 280994, Control_c, 0, 64, 80
1, 281009, Control_c, 0, 64, 75
1, 281009, Control_c, 0, 67, 39
1, 281024, Control_c, 0, 64, 70
1, 281039, Control_c, 0, 64, 63
1, 281053, Control_c, 0, 64, 53
1, 281053, Control_c, 0, 67, 39
1, 281068, Control_c, 0, 64, 39
1, 281083, Control_c, 0, 64, 34
1, 281097, Control_c, 0, 64, 37
1, 281097, Control_c, 0, 67, 38
1, 281112, Control_c, 0, 64, 46
1, 281127, Control_c, 0, 64, 55
1, 281142, Control_c, 0, 64, 61
1, 281142, Control_c, 0, 67, 38
1, 281157, Control_c, 0, 64, 66
1, 281171, Control_c, 0, 64, 70
1, 281186, Control_c, 0, 64, 75
1, 281186, Control_c, 0, 67, 37
1, 281201, Control_c, 0, 64, 80
1, 281216, Control_c, 0, 64, 85
1, 281237, Note_on_c, 0, 59, 66
1, 281239, Control_c, 0, 64, 91
1, 281253, Control_c, 0, 64, 98
1, 281268, Control_c, 0, 64, 107
1, 281272, Note_off_c, 0, 56, 53
1, 281283, Control_c, 0, 64, 115
1, 281298, Control_c, 0, 64, 127
1, 281372, Control_c, 0, 67, 37
1, 281374, Note_off_c, 0, 59, 64
1, 281378, Note_off_c, 0, 61, 40
1, 281432, Note_off_c, 0, 28, 58
1, 281579, Note_on_c, 0, 28, 55
1, 281623, Control_c, 0, 64, 118
1, 281638, Control_c, 0, 64, 108
1, 281652, Control_c, 0, 64, 100
1, 281658, Note_on_c, 0, 62, 57
1, 281667, Control_c, 0, 64, 91
1, 281670, Note_on_c, 0, 57, 52
1, 281678, Note_on_c, 0, 54, 48
1, 281682, Control_c, 0, 64, 84
1, 281698, Control_c, 0, 64, 77
1, 281713, Control_c, 0, 64, 70
1, 281727, Control_c, 0, 64, 62
1, 281742, Control_c, 0, 64, 50
1, 281757, Control_c, 0, 64, 32
1, 281772, Control_c, 0, 64, 18
1, 281772, Control_c, 0, 67, 37
1, 281787, Control_c, 0, 64, 22
1, 281801, Control_c, 0, 64, 35
1, 281801, Control_c, 0, 67, 38
1, 281816, Control_c, 0, 64, 49
1, 281816, Control_c, 0, 67, 38
1, 281831, Control_c, 0, 64, 59
1, 281831, Control_c, 0, 67, 39
1, 281846, Control_c, 0, 64, 65
1, 281846, Control_c, 0, 67, 39
1, 281861, Control_c, 0, 64, 69
1, 281861, Control_c, 0, 67, 40
1, 281875, Control_c, 0, 64, 74
1, 281875, Control_c, 0, 67, 40
1, 281890, Control_c, 0, 64, 77
1, 281905, Control_c, 0, 64, 80
1, 281905, Control_c, 0, 67, 41
1, 281919, Control_c, 0, 64, 83
1, 281919, Control_c, 0, 67, 41
1, 281934, Control_c, 0, 64, 85
1, 281934, Control_c, 0, 67, 42
1, 281949, Control_c, 0, 64, 88
1, 281949, Control_c, 0, 67, 43
1, 281964, Control_c, 0, 64, 90
1, 281964, Control_c, 0, 67, 43
1, 281981, Note_off_c, 0, 28, 29
1, 281987, Control_c, 0, 64, 92
1, 281987, Control_c, 0, 67, 44
1, 282001, Control_c, 0, 64, 93
1, 282001, Control_c, 0, 67, 45
1, 282016, Control_c, 0, 64, 95
1, 282016, Control_c, 0, 67, 45
1, 282031, Control_c, 0, 64, 97
1, 282031, Control_c, 0, 67, 46
1, 282046, Control_c, 0, 64, 98
1, 282046, Control_c, 0, 67, 46
1, 282061, Control_c, 0, 64, 100
1, 282061, Control_c, 0, 67, 47
1, 282062, Note_on_c, 0, 40, 45
1, 282075, Control_c, 0, 64, 103
1, 282075, Control_c, 0, 67, 50
1, 282090, Control_c, 0, 64, 104
1, 282090, Control_c, 0, 67, 54
1, 282105, Control_c, 0, 64, 105
1, 282105, Control_c, 0, 67, 59
1, 282120, Control_c, 0, 67, 61
1, 282134, Control_c, 0, 64, 106
1, 282134, Control_c, 0, 67, 64
1, 282149, Control_c, 0, 64, 106
1, 282149, Control_c, 0, 67, 66
1, 282164, Control_c, 0, 64, 107
1, 282164, Control_c, 0, 67, 67
1, 282179, Control_c, 0, 64, 107
1, 282194, Control_c, 0, 64, 108
1, 282208, Control_c, 0, 64, 108
1, 282208, Control_c, 0, 67, 66
1, 282238, Control_c, 0, 64, 109
1, 282238, Control_c, 0, 67, 66
1, 282253, Control_c, 0, 64, 109
1, 282268, Control_c, 0, 64, 110
1, 282283, Control_c, 0, 64, 111
1, 282283, Control_c, 0, 67, 65
1, 282298, Control_c, 0, 64, 111
1, 282298, Control_c, 0, 67, 65
1, 282312, Control_c, 0, 64, 112
1, 282327, Control_c, 0, 67, 64
1, 282342, Control_c, 0, 67, 64
1, 282352, Note_off_c, 0, 40, 36
1, 282372, Control_c, 0, 67, 63
1, 282387, Control_c, 0, 67, 63
1, 282401, Control_c, 0, 67, 62
1, 282431, Control_c, 0, 64, 113
1, 282431, Control_c, 0, 67, 62
1, 282440, Note_on_c, 0, 45, 45
1, 282446, Control_c, 0, 67, 61
1, 282475, Control_c, 0, 67, 61
1, 282506, Control_c, 0, 67, 60
1, 282550, Control_c, 0, 67, 60
1, 282639, Control_c, 0, 67, 59
1, 282809, Note_off_c, 0, 54, 39
1, 282898, Control_c, 0, 67, 59
1, 282918, Note_off_c, 0, 57, 28
1, 282939, Note_on_c, 0, 50, 49
1, 282941, Note_off_c, 0, 64, 47
1, 283078, Note_off_c, 0, 45, 41
1, 283195, Control_c, 0, 64, 112
1, 283224, Control_c, 0, 67, 59
1, 283269, Control_c, 0, 64, 111
1, 283283, Control_c, 0, 64, 110
1, 283299, Control_c, 0, 64, 110
1, 283314, Control_c, 0, 64, 109
1, 283344, Control_c, 0, 64, 108
1, 283359, Control_c, 0, 64, 107
1, 283373, Control_c, 0, 64, 106
1, 283388, Control_c, 0, 64, 106
1, 283403, Control_c, 0, 64, 105
1, 283418, Control_c, 0, 64, 105
1, 283433, Control_c, 0, 64, 104
1, 283447, Control_c, 0, 64, 103
1, 283469, Control_c, 0, 64, 102
1, 283469, Control_c, 0, 67, 60
1, 283484, Control_c, 0, 64, 101
1, 283499, Control_c, 0, 64, 100
1, 283514, Control_c, 0, 64, 99
1, 283529, Control_c, 0, 64, 97
1, 283544, Control_c, 0, 64, 96
1, 283558, Control_c, 0, 64, 95
1, 283573, Control_c, 0, 64, 93
1, 283588, Control_c, 0, 64, 92
1, 283603, Control_c, 0, 64, 91
1, 283606, Note_on_c, 0, 64, 53
1, 283618, Control_c, 0, 64, 90
1, 283632, Note_on_c, 0, 61, 45
1, 283633, Control_c, 0, 64, 89
1, 283633, Control_c, 0, 67, 59
1, 283639, Note_on_c, 0, 56, 42
1, 283647, Control_c, 0, 64, 88
1, 283662, Control_c, 0, 64, 87
1, 283677, Control_c, 0, 64, 86
1, 283691, Control_c, 0, 64, 84
1, 283692, Note_on_c, 0, 40, 59
1, 283706, Control_c, 0, 64, 83
1, 283721, Control_c, 0, 64, 83
1, 283736, Control_c, 0, 64, 82
1, 283738, Note_off_c, 0, 62, 35
1, 283751, Control_c, 0, 64, 81
1, 283765, Control_c, 0, 64, 79
1, 283780, Control_c, 0, 64, 78
1, 283780, Control_c, 0, 67, 59
1, 283795, Control_c, 0, 64, 77
1, 283810, Control_c, 0, 64, 76
1, 283820, Note_off_c, 0, 50, 41
1, 283825, Control_c, 0, 64, 75
1, 283840, Control_c, 0, 64, 74
1, 283840, Control_c, 0, 67, 59
1, 283854, Control_c, 0, 64, 72
1, 283869, Control_c, 0, 64, 71
1, 283869, Control_c, 0, 67, 60
1, 283884, Control_c, 0, 64, 69
1, 283898, Control_c, 0, 64, 67
1, 283898, Control_c, 0, 67, 60
1, 283913, Control_c, 0, 64, 65
1, 283913, Control_c, 0, 67, 61
1, 283928, Control_c, 0, 64, 64
1, 283928, Control_c, 0, 67, 62
1, 283943, Control_c, 0, 64, 63
1, 283943, Control_c, 0, 67, 63
1, 283958, Control_c, 0, 64, 62
1, 283958, Control_c, 0, 67, 63
1, 283973, Control_c, 0, 64, 61
1, 283973, Control_c, 0, 67, 64
1, 283988, Control_c, 0, 64, 60
1, 283988, Control_c, 0, 67, 65
1, 284003, Control_c, 0, 64, 59
1, 284003, Control_c, 0, 67, 66
1, 284018, Control_c, 0, 64, 57
1, 284018, Control_c, 0, 67, 67
1, 284032, Control_c, 0, 64, 55
1, 284032, Control_c, 0, 67, 67
1, 284047, Control_c, 0, 64, 51
1, 284047, Control_c, 0, 67, 68
1, 284062, Control_c, 0, 64, 43
1, 284062, Control_c, 0, 67, 69
1, 284077, Control_c, 0, 64, 21
1, 284077, Control_c, 0, 67, 70
1, 284092, Control_c, 0, 64, 0
1, 284092, Control_c, 0, 67, 75
1, 284107, Control_c, 0, 67, 81
1, 284122, Control_c, 0, 67, 84
1, 284137, Control_c, 0, 67, 87
1, 284152, Control_c, 0, 67, 88
1, 284167, Control_c, 0, 67, 88
1, 284181, Control_c, 0, 64, 28
1, 284196, Control_c, 0, 64, 47
1, 284196, Control_c, 0, 67, 89
1, 284211, Control_c, 0, 64, 57
1, 284233, Control_c, 0, 64, 62
1, 284248, Control_c, 0, 64, 64
1, 284263, Control_c, 0, 64, 66
1, 284277, Control_c, 0, 64, 68
1, 284277, Control_c, 0, 67, 89
1, 284292, Control_c, 0, 64, 72
1, 284307, Control_c, 0, 64, 75
1, 284307, Control_c, 0, 67, 90
1, 284322, Control_c, 0, 64, 78
1, 284322, Control_c, 0, 67, 92
1, 284336, Control_c, 0, 64, 81
1, 284336, Control_c, 0, 67, 96
1, 284351, Control_c, 0, 64, 84
1, 284351, Control_c, 0, 67, 98
1, 284366, Control_c, 0, 64, 86
1, 284366, Control_c, 0, 67, 99
1, 284381, Control_c, 0, 64, 89
1, 284381, Control_c, 0, 67, 101
1, 284396, Control_c, 0, 64, 90
1, 284396, Control_c, 0, 67, 103
1, 284396, Note_on_c, 0, 59, 51
1, 284411, Control_c, 0, 64, 91
1, 284411, Control_c, 0, 67, 103
1, 284425, Control_c, 0, 64, 92
1, 284430, Note_on_c, 0, 50, 41
1, 284440, Control_c, 0, 64, 93
1, 284455, Control_c, 0, 64, 94
1, 284465, Note_off_c, 0, 56, 29
1, 284470, Control_c, 0, 64, 94
1, 284492, Note_off_c, 0, 50, 54
1, 284513, Control_c, 0, 67, 103
1, 284543, Control_c, 0, 67, 102
1, 284553, Note_off_c, 0, 61, 37
1, 284587, Control_c, 0, 67, 102
1, 284602, Control_c, 0, 67, 101
1, 284638, Note_off_c, 0, 40, 40
1, 284691, Control_c, 0, 67, 101
1, 284766, Control_c, 0, 67, 100
1, 284854, Control_c, 0, 64, 94
1, 284854, Control_c, 0, 67, 100
1, 284875, Note_on_c, 0, 33, 46
1, 284884, Control_c, 0, 64, 93
1, 284915, Control_c, 0, 64, 93
1, 284930, Control_c, 0, 64, 92
1, 284959, Control_c, 0, 64, 92
1, 284981, Control_c, 0, 64, 91
1, 284996, Control_c, 0, 64, 91
1, 285011, Control_c, 0, 64, 90
1, 285011, Control_c, 0, 67, 100
1, 285040, Control_c, 0, 64, 90
1, 285055, Control_c, 0, 67, 101
1, 285070, Control_c, 0, 64, 89
1, 285100, Control_c, 0, 64, 89
1, 285115, Control_c, 0, 64, 88
1, 285115, Control_c, 0, 67, 101
1, 285144, Control_c, 0, 64, 88
1, 285144, Control_c, 0, 67, 102
1, 285159, Control_c, 0, 64, 87
1, 285174, Control_c, 0, 67, 102
1, 285189, Control_c, 0, 64, 87
1, 285204, Control_c, 0, 64, 86
1, 285204, Control_c, 0, 67, 103
1, 285234, Control_c, 0, 64, 86
1, 285249, Control_c, 0, 67, 103
1, 285264, Control_c, 0, 64, 85
1, 285278, Control_c, 0, 64, 85
1, 285293, Control_c, 0, 67, 104
1, 285308, Control_c, 0, 64, 84
1, 285323, Control_c, 0, 64, 84
1, 285337, Control_c, 0, 64, 83
1, 285352, Control_c, 0, 64, 83
1, 285352, Control_c, 0, 67, 104
1, 285354, Note_on_c, 0, 49, 44
1, 285367, Control_c, 0, 64, 82
1, 285367, Control_c, 0, 67, 106
1, 285382, Control_c, 0, 64, 82
1, 285382, Control_c, 0, 67, 107
1, 285397, Control_c, 0, 64, 81
1, 285411, Control_c, 0, 64, 80
1, 285426, Control_c, 0, 64, 80
1, 285441, Control_c, 0, 64, 79
1, 285456, Control_c, 0, 64, 79
1, 285470, Control_c, 0, 64, 78
1, 285485, Control_c, 0, 64, 77
1, 285500, Control_c, 0, 64, 77
1, 285515, Control_c, 0, 64, 76
1, 285530, Control_c, 0, 64, 76
1, 285544, Control_c, 0, 67, 107
1, 285559, Control_c, 0, 64, 75
1, 285574, Control_c, 0, 64, 74
1, 285589, Control_c, 0, 64, 73
1, 285604, Control_c, 0, 64, 72
1, 285618, Control_c, 0, 64, 72
1, 285624, Note_on_c, 0, 57, 40
1, 285633, Control_c, 0, 64, 71
1, 285633, Control_c, 0, 67, 108
1, 285648, Control_c, 0, 64, 69
1, 285663, Control_c, 0, 64, 68
1, 285663, Control_c, 0, 67, 108
1, 285678, Control_c, 0, 64, 66
1, 285694, Control_c, 0, 64, 64
1, 285694, Control_c, 0, 67, 109
1, 285708, Note_off_c, 0, 59, 27
1, 285709, Control_c, 0, 64, 62
1, 285709, Control_c, 0, 67, 109
1, 285731, Control_c, 0, 64, 59
1, 285746, Control_c, 0, 64, 55
1, 285746, Control_c, 0, 67, 110
1, 285761, Control_c, 0, 64, 47
1, 285775, Control_c, 0, 64, 31
1, 285790, Control_c, 0, 64, 0
1, 285835, Control_c, 0, 67, 109
1, 285864, Control_c, 0, 64, 10
1, 285864, Control_c, 0, 67, 109
1, 285879, Control_c, 0, 64, 38
1, 285879, Control_c, 0, 67, 108
1, 285893, Control_c, 0, 64, 56
1, 285893, Control_c, 0, 67, 108
1, 285908, Control_c, 0, 64, 62
1, 285908, Control_c, 0, 67, 107
1, 285923, Control_c, 0, 64, 64
1, 285923, Control_c, 0, 67, 107
1, 285938, Control_c, 0, 64, 66
1, 285953, Control_c, 0, 64, 68
1, 285953, Control_c, 0, 67, 106
1, 285967, Control_c, 0, 64, 71
1, 285967, Control_c, 0, 67, 106
1, 285982, Control_c, 0, 64, 74
1, 285997, Control_c, 0, 64, 79
1, 285997, Control_c, 0, 67, 105
1, 286012, Control_c, 0, 64, 82
1, 286027, Control_c, 0, 64, 86
1, 286027, Control_c, 0, 67, 105
1, 286042, Control_c, 0, 64, 89
1, 286056, Control_c, 0, 64, 92
1, 286071, Control_c, 0, 64, 96
1, 286071, Control_c, 0, 67, 104
1, 286086, Control_c, 0, 64, 101
1, 286101, Control_c, 0, 64, 105
1, 286116, Control_c, 0, 64, 110
1, 286116, Control_c, 0, 67, 104
1, 286131, Control_c, 0, 64, 118
1, 286137, Note_off_c, 0, 57, 40
1, 286146, Control_c, 0, 64, 127
1, 286146, Control_c, 0, 67, 103
1, 286564, Note_on_c, 0, 69, 45
1, 287058, Control_c, 0, 67, 104
1, 287481, Control_c, 0, 67, 104
1, 288643, Control_c, 0, 67, 104
1, 289200, Control_c, 0, 67, 103
1, 290020, Note_off_c, 0, 49, 29
1, 290371, Control_c, 0, 67, 104
1, 290888, Note_off_c, 0, 69, 14
1, 290929, Note_off_c, 0, 64, 24
1, 291193, Note_off_c, 0, 33, 14
1, 291654, Control_c, 0, 67, 103
1, 291928, Control_c, 0, 64, 124
1, 291943, Control_c, 0, 64, 119
1, 291958, Control_c, 0, 64, 115
1, 291973, Control_c, 0, 64, 112
1, 291987, Control_c, 0, 64, 109
1, 291987, Control_c, 0, 67, 103
1, 292002, Control_c, 0, 64, 106
1, 292017, Control_c, 0, 64, 104
1, 292032, Control_c, 0, 64, 102
1, 292047, Control_c, 0, 64, 101
1, 292061, Control_c, 0, 64, 100
1, 292077, Control_c, 0, 64, 99
1, 292092, Control_c, 0, 64, 98
1, 292107, Control_c, 0, 64, 97
1, 292122, Control_c, 0, 64, 96
1, 292136, Control_c, 0, 64, 95
1, 292151, Control_c, 0, 64, 94
1, 292151, Control_c, 0, 67, 102
1, 292166, Control_c, 0, 64, 93
1, 292181, Control_c, 0, 64, 92
1, 292196, Control_c, 0, 64, 91
1, 292210, Control_c, 0, 64, 90
1, 292225, Control_c, 0, 64, 89
1, 292240, Control_c, 0, 64, 89
1, 292255, Control_c, 0, 64, 88
1, 292270, Control_c, 0, 64, 88
1, 292284, Control_c, 0, 64, 87
1, 292299, Control_c, 0, 64, 86
1, 292314, Control_c, 0, 64, 86
1, 292328, Control_c, 0, 64, 85
1, 292343, Control_c, 0, 64, 84
1, 292358, Control_c, 0, 64, 84
1, 292373, Control_c, 0, 64, 83
1, 292373, Control_c, 0, 67, 102
1, 292388, Control_c, 0, 64, 83
1, 292403, Control_c, 0, 64, 82
1, 292418, Control_c, 0, 64, 81
1, 292433, Control_c, 0, 64, 81
1, 292448, Control_c, 0, 64, 80
1, 292470, Control_c, 0, 64, 80
1, 292484, Control_c, 0, 64, 79
1, 292499, Control_c, 0, 64, 78
1, 292514, Control_c, 0, 64, 77
1, 292529, Control_c, 0, 64, 76
1, 292543, Control_c, 0, 64, 76
1, 292558, Control_c, 0, 64, 75
1, 292573, Control_c, 0, 64, 74
1, 292588, Control_c, 0, 64, 73
1, 292603, Control_c, 0, 64, 72
1, 292617, Control_c, 0, 64, 71
1, 292632, Control_c, 0, 64, 70
1, 292647, Control_c, 0, 64, 69
1, 292662, Control_c, 0, 64, 67
1, 292677, Control_c, 0, 64, 66
1, 292691, Control_c, 0, 64, 65
1, 292706, Control_c, 0, 64, 64
1, 292721, Control_c, 0, 64, 63
1, 292735, Control_c, 0, 64, 62
1, 292750, Control_c, 0, 64, 62
1, 292765, Control_c, 0, 64, 61
1, 292780, Control_c, 0, 64, 60
1, 292795, Control_c, 0, 64, 59
1, 292809, Control_c, 0, 64, 58
1, 292824, Control_c, 0, 64, 57
1, 292839, Control_c, 0, 64, 56
1, 292853, Control_c, 0, 64, 55
1, 292868, Control_c, 0, 64, 54
1, 292885, Control_c, 0, 64, 53
1, 292899, Control_c, 0, 64, 53
1, 292914, Control_c, 0, 64, 52
1, 292929, Control_c, 0, 64, 51
1, 292958, Control_c, 0, 64, 51
1, 292973, Control_c, 0, 64, 50
1, 292988, Control_c, 0, 64, 50
1, 293003, Control_c, 0, 64, 49
1, 293018, Control_c, 0, 64, 48
1, 293032, Control_c, 0, 64, 48
1, 293047, Control_c, 0, 64, 47
1, 293062, Control_c, 0, 64, 46
1, 293077, Control_c, 0, 64, 46
1, 293092, Control_c, 0, 67, 101
1, 293106, Control_c, 0, 64, 45
1, 293121, Control_c, 0, 64, 45
1, 293136, Control_c, 0, 64, 44
1, 293166, Control_c, 0, 64, 44
1, 293181, Control_c, 0, 67, 101
1, 293232, Control_c, 0, 67, 100
1, 293306, Control_c, 0, 67, 100
1, 293336, Control_c, 0, 67, 99
1, 293366, Control_c, 0, 67, 99
1, 293395, Control_c, 0, 67, 98
1, 293425, Control_c, 0, 67, 98
1, 293440, Control_c, 0, 67, 97
1, 293470, Control_c, 0, 67, 97
1, 293499, Control_c, 0, 67, 96
1, 293514, Control_c, 0, 67, 96
1, 293544, Control_c, 0, 67, 95
1, 293558, Control_c, 0, 67, 95
1, 293573, Control_c, 0, 67, 94
1, 293603, Control_c, 0, 67, 94
1, 293618, Control_c, 0, 67, 93
1, 293632, Control_c, 0, 67, 91
1, 293662, Control_c, 0, 67, 90
1, 293693, Control_c, 0, 67, 90
1, 293722, Control_c, 0, 67, 89
1, 293737, Control_c, 0, 67, 89
1, 293752, Control_c, 0, 67, 87
1, 293767, Control_c, 0, 67, 85
1, 293781, Control_c, 0, 67, 85
1, 293796, Control_c, 0, 67, 84
1, 293826, Control_c, 0, 67, 84
1, 293870, Control_c, 0, 67, 83
1, 293914, Control_c, 0, 67, 83
1, 293929, Control_c, 0, 67, 81
1, 293952, Control_c, 0, 67, 78
1, 293967, Control_c, 0, 67, 76
1, 293981, Control_c, 0, 67, 75
1, 294026, Control_c, 0, 67, 75
1, 294070, Control_c, 0, 67, 74
1, 294085, Control_c, 0, 64, 44
1, 294114, Control_c, 0, 67, 74
1, 294159, Control_c, 0, 67, 71
1, 294174, Control_c, 0, 67, 66
1, 294188, Control_c, 0, 67, 63
1, 294203, Control_c, 0, 67, 61
1, 294218, Control_c, 0, 67, 61
1, 294233, Control_c, 0, 67, 60
1, 294293, Control_c, 0, 64, 45
1, 294337, Control_c, 0, 67, 60
1, 294381, Control_c, 0, 64, 45
1, 294381, Control_c, 0, 67, 59
1, 294441, Control_c, 0, 67, 59
1, 294470, Control_c, 0, 67, 56
1, 294486, Control_c, 0, 67, 52
1, 294501, Control_c, 0, 67, 49
1, 294516, Control_c, 0, 67, 46
1, 294530, Control_c, 0, 67, 45
1, 294545, Control_c, 0, 67, 43
1, 294560, Control_c, 0, 67, 41
1, 294575, Control_c, 0, 67, 39
1, 294590, Control_c, 0, 67, 36
1, 294604, Control_c, 0, 67, 34
1, 294619, Control_c, 0, 67, 31
1, 294634, Control_c, 0, 67, 29
1, 294649, Control_c, 0, 67, 25
1, 294664, Control_c, 0, 67, 23
1, 294678, Control_c, 0, 64, 46
1, 294678, Control_c, 0, 67, 20
1, 294701, Control_c, 0, 67, 17
1, 294716, Control_c, 0, 67, 13
1, 294730, Control_c, 0, 67, 10
1, 294745, Control_c, 0, 64, 46
1, 294745, Control_c, 0, 67, 0
1, 295189, Control_c, 0, 64, 46
1, 295203, Control_c, 0, 64, 45
1, 295218, Control_c, 0, 64, 44
1, 295233, Control_c, 0, 64, 43
1, 295247, Control_c, 0, 64, 42
1, 295262, Control_c, 0, 64, 41
1, 295279, Control_c, 0, 64, 40
1, 295294, Control_c, 0, 64, 39
1, 295308, Control_c, 0, 64, 39
1, 295820, Control_c, 0, 64, 39
1, 295849, Control_c, 0, 64, 40
1, 296147, Control_c, 0, 64, 39
1, 296162, Control_c, 0, 64, 39
1, 296176, Control_c, 0, 64, 38
1, 296191, Control_c, 0, 64, 38
1, 296213, Control_c, 0, 64, 37
1, 296228, Control_c, 0, 64, 36
1, 296243, Control_c, 0, 64, 36
1, 296287, Control_c, 0, 64, 35
1, 296347, Control_c, 0, 64, 35
1, 296361, Control_c, 0, 64, 34
1, 296376, Control_c, 0, 64, 33
1, 296391, Control_c, 0, 64, 32
1, 296406, Control_c, 0, 64, 31
1, 296421, Control_c, 0, 64, 30
1, 296436, Control_c, 0, 64, 29
1, 296450, Control_c, 0, 64, 27
1, 296465, Control_c, 0, 64, 26
1, 296480, Control_c, 0, 64, 26
1, 296495, Control_c, 0, 64, 25
1, 296539, Control_c, 0, 64, 25
1, 296614, End_track
0, 0, End_of_file
