0, 0, Header, 0, 1, 384
1, 0, Start_track
1, 0, Title_t, "Paganini Var. II--Yang Song     "
1, 0, Text_t, "2008 e-Piano Junior Competition recital round"
1, 0, Text_t, "recorded July 2008"
1, 0, Text_t, "http://www.piano-e-competition.com/"
1, 0, Text_t, "File processed for distribution by software from Zenph Studios, Inc., http://www.zenph.com"
1, 0, Instrument_name_t, "Yamaha Disklavier Pro Mark IV concert grand piano, model DCFIIISM4PRO"
1, 0, Sequencer_specific, 39, 67, 113, 0, 1, 0, 1, 0, 80, 97, 103, 97, 110, 105, 110, 105, 32, 86, 97, 114, 46, 32, 73, 73, 89, 97, 110, 103, 32, 83, 111, 110, 103, 32, 32, 32, 32, 32, 32, 32
1, 0, Sequencer_specific, 6, 67, 113, 0, 0, 0, 69
1, 0, System_exclusive, 21, 67, 113, 126, 21, 0, 2, 2, 0, 3, 14, 1, 4, 1, 13, 13, 10, 11, 9, 2, 7, 247
1, 0, Sequencer_specific, 5, 67, 123, 12, 2, 1
1, 0, Tempo, 512820
1, 0, Time_signature, 4, 2, 24, 8
1, 0, System_exclusive, 5, 126, 127, 9, 1, 247
1, 1, System_exclusive, 8, 67, 16, 76, 0, 0, 126, 0, 247
1, 2, System_exclusive, 8, 67, 16, 76, 8, 9, 7, 1, 247
1, 3, Control_c, 0, 0, 0
1, 3, Control_c, 1, 0, 0
1, 3, Control_c, 2, 0, 0
1, 3, Control_c, 3, 0, 0
1, 3, Control_c, 4, 0, 0
1, 3, Control_c, 5, 0, 0
1, 3, Control_c, 6, 0, 0
1, 3, Control_c, 7, 0, 0
1, 3, Control_c, 8, 0, 0
1, 3, Control_c, 9, 0, 127
1, 3, Control_c, 10, 0, 0
1, 3, Control_c, 11, 0, 0
1, 3, Control_c, 12, 0, 0
1, 3, Control_c, 13, 0, 0
1, 3, Control_c, 14, 0, 0
1, 3, Control_c, 15, 0, 0
1, 4, Control_c, 0, 32, 0
1, 4, Control_c, 1, 32, 0
1, 4, Control_c, 2, 32, 0
1, 4, Control_c, 3, 32, 0
1, 4, Control_c, 4, 32, 0
1, 4, Control_c, 5, 32, 0
1, 4, Control_c, 6, 32, 0
1, 4, Control_c, 7, 32, 0
1, 4, Control_c, 8, 32, 0
1, 4, Control_c, 9, 32, 0
1, 4, Control_c, 10, 32, 0
1, 4, Control_c, 11, 32, 0
1, 4, Control_c, 12, 32, 0
1, 4, Control_c, 13, 32, 0
1, 4, Control_c, 14, 32, 0
1, 4, Control_c, 15, 32, 0
1, 5, Program_c, 0, 0
1, 5, Program_c, 1, 0
1, 5, Program_c, 2, 0
1, 5, Program_c, 3, 0
1, 5, Program_c, 4, 0
1, 5, Program_c, 5, 0
1, 5, Program_c, 6, 0
1, 5, Program_c, 7, 0
1, 5, Program_c, 8, 0
1, 5, Program_c, 9, 0
1, 5, Program_c, 10, 0
1, 5, Program_c, 11, 0
1, 5, Program_c, 12, 0
1, 5, Program_c, 13, 0
1, 5, Program_c, 14, 0
1, 5, Program_c, 15, 0
1, 6, Control_c, 0, 7, 100
1, 6, Control_c, 1, 7, 100
1, 6, Control_c, 2, 7, 100
1, 6, Control_c, 3, 7, 100
1, 6, Control_c, 4, 7, 100
1, 6, Control_c, 5, 7, 100
1, 6, Control_c, 6, 7, 100
1, 6, Control_c, 7, 7, 100
1, 6, Control_c, 8, 7, 100
1, 6, Control_c, 9, 7, 100
1, 6, Control_c, 10, 7, 100
1, 6, Control_c, 11, 7, 100
1, 6, Control_c, 12, 7, 100
1, 6, Control_c, 13, 7, 100
1, 6, Control_c, 14, 7, 100
1, 6, Control_c, 15, 7, 100
1, 1128, Note_on_c, 0, 81, 67
1, 1162, Note_on_c, 0, 76, 61
1, 1189, Control_c, 0, 64, 65
1, 1190, Note_off_c, 0, 81, 61
1, 1196, Note_on_c, 0, 57, 61
1, 1198, Note_on_c, 0, 69, 80
1, 1203, Control_c, 0, 64, 70
1, 1205, Note_off_c, 0, 76, 68
1, 1218, Control_c, 0, 64, 74
1, 1225, Note_off_c, 0, 57, 63
1, 1233, Control_c, 0, 64, 78
1, 1240, Note_off_c, 0, 69, 62
1, 1248, Control_c, 0, 64, 80
1, 1262, Control_c, 0, 64, 81
1, 1336, Control_c, 0, 64, 80
1, 1441, Control_c, 0, 64, 79
1, 1456, Control_c, 0, 64, 78
1, 1470, Control_c, 0, 64, 74
1, 1485, Control_c, 0, 64, 70
1, 1487, Note_on_c, 0, 57, 78
1, 1500, Control_c, 0, 64, 65
1, 1501, Note_on_c, 0, 69, 72
1, 1515, Control_c, 0, 64, 54
1, 1517, Note_off_c, 0, 57, 66
1, 1525, Note_off_c, 0, 69, 72
1, 1530, Control_c, 0, 64, 21
1, 1544, Control_c, 0, 64, 0
1, 1596, Note_on_c, 0, 57, 64
1, 1597, Note_on_c, 0, 69, 63
1, 1630, Note_off_c, 0, 57, 63
1, 1662, Note_on_c, 0, 72, 68
1, 1663, Note_off_c, 0, 69, 61
1, 1670, Note_on_c, 0, 60, 60
1, 1710, Note_off_c, 0, 60, 57
1, 1723, Note_off_c, 0, 72, 64
1, 1741, Note_on_c, 0, 71, 63
1, 1763, Note_on_c, 0, 59, 39
1, 1780, Note_off_c, 0, 71, 59
1, 1792, Note_off_c, 0, 59, 57
1, 1797, Note_on_c, 0, 69, 64
1, 1809, Note_on_c, 0, 57, 55
1, 1815, Note_off_c, 0, 69, 67
1, 1916, Note_on_c, 0, 88, 77
1, 1957, Note_on_c, 0, 83, 67
1, 1970, Note_off_c, 0, 57, 61
1, 1979, Note_on_c, 0, 64, 68
1, 1982, Control_c, 0, 64, 44
1, 1982, Note_on_c, 0, 76, 95
1, 1985, Note_off_c, 0, 88, 53
1, 1997, Control_c, 0, 64, 61
1, 2012, Control_c, 0, 64, 63
1, 2021, Note_off_c, 0, 83, 64
1, 2026, Control_c, 0, 64, 64
1, 2027, Note_off_c, 0, 64, 62
1, 2027, Note_off_c, 0, 76, 69
1, 2041, Control_c, 0, 64, 65
1, 2056, Control_c, 0, 64, 67
1, 2071, Control_c, 0, 64, 68
1, 2085, Control_c, 0, 64, 68
1, 2115, Control_c, 0, 64, 69
1, 2130, Control_c, 0, 64, 69
1, 2145, Control_c, 0, 64, 70
1, 2159, Control_c, 0, 64, 70
1, 2309, Note_on_c, 0, 64, 80
1, 2314, Note_on_c, 0, 52, 67
1, 2331, Control_c, 0, 64, 68
1, 2342, Note_off_c, 0, 64, 69
1, 2346, Control_c, 0, 64, 64
1, 2352, Note_off_c, 0, 52, 67
1, 2361, Control_c, 0, 64, 59
1, 2375, Control_c, 0, 64, 52
1, 2390, Control_c, 0, 64, 49
1, 2393, Note_on_c, 0, 64, 75
1, 2405, Control_c, 0, 64, 46
1, 2418, Note_on_c, 0, 52, 66
1, 2420, Control_c, 0, 64, 42
1, 2435, Control_c, 0, 64, 37
1, 2449, Control_c, 0, 64, 31
1, 2462, Note_on_c, 0, 68, 75
1, 2464, Control_c, 0, 64, 24
1, 2471, Note_off_c, 0, 52, 63
1, 2479, Control_c, 0, 64, 21
1, 2484, Note_off_c, 0, 64, 65
1, 2486, Note_on_c, 0, 56, 52
1, 2494, Control_c, 0, 64, 18
1, 2508, Control_c, 0, 64, 13
1, 2534, Note_on_c, 0, 66, 76
1, 2545, Note_off_c, 0, 56, 57
1, 2552, Note_off_c, 0, 68, 64
1, 2555, Note_on_c, 0, 54, 48
1, 2586, Note_off_c, 0, 54, 64
1, 2587, Note_off_c, 0, 66, 66
1, 2599, Note_on_c, 0, 64, 60
1, 2607, Note_on_c, 0, 52, 56
1, 2612, Control_c, 0, 64, 10
1, 2618, Note_off_c, 0, 64, 63
1, 2626, Control_c, 0, 64, 0
1, 2701, Note_on_c, 0, 81, 77
1, 2757, Note_on_c, 0, 76, 64
1, 2760, Control_c, 0, 64, 22
1, 2769, Note_on_c, 0, 57, 74
1, 2773, Note_on_c, 0, 77, 45
1, 2774, Note_on_c, 0, 69, 99
1, 2775, Control_c, 0, 64, 54
1, 2790, Control_c, 0, 64, 63
1, 2795, Note_off_c, 0, 81, 57
1, 2799, Note_off_c, 0, 77, 35
1, 2801, Note_off_c, 0, 52, 65
1, 2805, Note_off_c, 0, 57, 63
1, 2805, Control_c, 0, 64, 65
1, 2820, Control_c, 0, 64, 66
1, 2820, Note_off_c, 0, 76, 68
1, 2820, Note_off_c, 0, 69, 67
1, 2834, Control_c, 0, 64, 68
1, 2849, Control_c, 0, 64, 68
1, 2864, Control_c, 0, 64, 70
1, 2879, Control_c, 0, 64, 70
1, 3058, Control_c, 0, 64, 70
1, 3079, Control_c, 0, 64, 68
1, 3094, Control_c, 0, 64, 65
1, 3097, Note_on_c, 0, 69, 84
1, 3100, Note_on_c, 0, 57, 75
1, 3109, Control_c, 0, 64, 59
1, 3119, Note_off_c, 0, 69, 69
1, 3124, Control_c, 0, 64, 52
1, 3126, Note_off_c, 0, 57, 65
1, 3139, Control_c, 0, 64, 46
1, 3154, Control_c, 0, 64, 42
1, 3169, Control_c, 0, 64, 39
1, 3175, Note_on_c, 0, 69, 88
1, 3184, Control_c, 0, 64, 37
1, 3189, Note_on_c, 0, 57, 60
1, 3198, Control_c, 0, 64, 32
1, 3213, Control_c, 0, 64, 28
1, 3222, Note_off_c, 0, 57, 63
1, 3228, Control_c, 0, 64, 27
1, 3238, Note_on_c, 0, 60, 61
1, 3243, Control_c, 0, 64, 25
1, 3255, Note_on_c, 0, 72, 79
1, 3257, Control_c, 0, 64, 21
1, 3261, Note_off_c, 0, 69, 65
1, 3272, Control_c, 0, 64, 16
1, 3287, Control_c, 0, 64, 10
1, 3289, Note_off_c, 0, 60, 48
1, 3302, Control_c, 0, 64, 0
1, 3315, Note_off_c, 0, 72, 63
1, 3321, Note_on_c, 0, 71, 71
1, 3330, Note_on_c, 0, 59, 51
1, 3369, Note_off_c, 0, 59, 62
1, 3370, Note_off_c, 0, 71, 61
1, 3379, Note_on_c, 0, 69, 73
1, 3396, Note_on_c, 0, 57, 48
1, 3401, Note_off_c, 0, 69, 72
1, 3511, Note_on_c, 0, 88, 80
1, 3541, Note_on_c, 0, 83, 84
1, 3549, Note_off_c, 0, 57, 61
1, 3561, Note_on_c, 0, 64, 82
1, 3563, Note_off_c, 0, 88, 60
1, 3575, Note_on_c, 0, 76, 91
1, 3613, Control_c, 0, 64, 32
1, 3615, Note_off_c, 0, 83, 60
1, 3628, Control_c, 0, 64, 43
1, 3643, Control_c, 0, 64, 49
1, 3657, Control_c, 0, 64, 54
1, 3672, Control_c, 0, 64, 57
1, 3687, Control_c, 0, 64, 59
1, 3702, Control_c, 0, 64, 60
1, 3717, Control_c, 0, 64, 61
1, 3732, Control_c, 0, 64, 62
1, 3747, Control_c, 0, 64, 63
1, 3762, Control_c, 0, 64, 64
1, 3777, Control_c, 0, 64, 64
1, 3792, Control_c, 0, 64, 65
1, 3829, Control_c, 0, 64, 65
1, 3844, Control_c, 0, 64, 66
1, 3859, Control_c, 0, 64, 66
1, 3874, Control_c, 0, 64, 67
1, 3888, Control_c, 0, 64, 67
1, 3903, Control_c, 0, 64, 68
1, 3918, Control_c, 0, 64, 68
1, 3933, Control_c, 0, 64, 69
1, 3962, Control_c, 0, 64, 69
1, 4023, Note_off_c, 0, 64, 0
1, 4029, Note_off_c, 0, 76, 65
1, 4034, Note_on_c, 0, 64, 64
1, 4036, Control_c, 0, 64, 69
1, 4040, Note_on_c, 0, 52, 62
1, 4051, Control_c, 0, 64, 68
1, 4066, Control_c, 0, 64, 66
1, 4069, Note_off_c, 0, 64, 67
1, 4076, Note_off_c, 0, 52, 66
1, 4081, Control_c, 0, 64, 64
1, 4096, Control_c, 0, 64, 63
1, 4111, Control_c, 0, 64, 61
1, 4126, Control_c, 0, 64, 60
1, 4140, Control_c, 0, 64, 59
1, 4155, Control_c, 0, 64, 59
1, 4185, Control_c, 0, 64, 58
1, 4200, Control_c, 0, 64, 58
1, 4229, Control_c, 0, 64, 57
1, 4244, Control_c, 0, 64, 57
1, 4259, Control_c, 0, 67, 8
1, 4273, Control_c, 0, 64, 56
1, 4273, Control_c, 0, 67, 9
1, 4288, Control_c, 0, 64, 56
1, 4288, Control_c, 0, 67, 10
1, 4303, Control_c, 0, 64, 54
1, 4303, Control_c, 0, 67, 13
1, 4318, Control_c, 0, 64, 51
1, 4318, Control_c, 0, 67, 16
1, 4333, Control_c, 0, 64, 48
1, 4333, Control_c, 0, 67, 20
1, 4347, Control_c, 0, 64, 44
1, 4347, Control_c, 0, 67, 25
1, 4362, Control_c, 0, 64, 40
1, 4362, Control_c, 0, 67, 32
1, 4377, Control_c, 0, 64, 39
1, 4377, Control_c, 0, 67, 39
1, 4391, Control_c, 0, 64, 40
1, 4391, Control_c, 0, 67, 47
1, 4406, Control_c, 0, 64, 45
1, 4406, Control_c, 0, 67, 55
1, 4421, Control_c, 0, 64, 54
1, 4421, Control_c, 0, 67, 64
1, 4424, Note_on_c, 0, 81, 57
1, 4436, Control_c, 0, 64, 62
1, 4436, Control_c, 0, 67, 73
1, 4446, Note_on_c, 0, 76, 55
1, 4451, Control_c, 0, 64, 64
1, 4451, Control_c, 0, 67, 81
1, 4465, Note_off_c, 0, 81, 57
1, 4465, Control_c, 0, 64, 65
1, 4465, Control_c, 0, 67, 90
1, 4473, Note_on_c, 0, 69, 77
1, 4475, Note_on_c, 0, 57, 54
1, 4480, Note_off_c, 0, 76, 67
1, 4480, Control_c, 0, 64, 66
1, 4480, Control_c, 0, 67, 97
1, 4495, Control_c, 0, 64, 67
1, 4495, Control_c, 0, 67, 103
1, 4504, Note_off_c, 0, 57, 63
1, 4510, Control_c, 0, 64, 68
1, 4510, Control_c, 0, 67, 107
1, 4513, Note_off_c, 0, 69, 65
1, 4525, Control_c, 0, 64, 68
1, 4525, Control_c, 0, 67, 109
1, 4540, Control_c, 0, 64, 69
1, 4725, Control_c, 0, 64, 68
1, 4740, Control_c, 0, 64, 67
1, 4755, Control_c, 0, 64, 64
1, 4770, Control_c, 0, 64, 59
1, 4772, Note_on_c, 0, 57, 55
1, 4778, Note_on_c, 0, 69, 56
1, 4784, Control_c, 0, 64, 49
1, 4795, Note_off_c, 0, 57, 58
1, 4797, Note_off_c, 0, 69, 63
1, 4799, Control_c, 0, 64, 41
1, 4814, Control_c, 0, 64, 29
1, 4829, Control_c, 0, 64, 0
1, 4853, Note_on_c, 0, 57, 66
1, 4854, Note_on_c, 0, 69, 69
1, 4893, Note_off_c, 0, 57, 62
1, 4900, Note_off_c, 0, 69, 61
1, 4927, Note_on_c, 0, 72, 65
1, 4936, Note_on_c, 0, 60, 54
1, 4979, Note_off_c, 0, 60, 60
1, 4984, Note_off_c, 0, 72, 64
1, 4990, Note_on_c, 0, 71, 65
1, 5020, Note_on_c, 0, 59, 35
1, 5041, Note_off_c, 0, 71, 60
1, 5048, Note_off_c, 0, 59, 55
1, 5068, Note_on_c, 0, 69, 49
1, 5071, Note_on_c, 0, 57, 46
1, 5092, Note_off_c, 0, 69, 54
1, 5095, Control_c, 0, 67, 109
1, 5140, Control_c, 0, 67, 108
1, 5184, Note_on_c, 0, 88, 70
1, 5199, Control_c, 0, 67, 108
1, 5217, Note_on_c, 0, 83, 69
1, 5229, Control_c, 0, 67, 107
1, 5243, Note_off_c, 0, 88, 62
1, 5243, Control_c, 0, 64, 38
1, 5243, Control_c, 0, 67, 107
1, 5249, Note_off_c, 0, 57, 60
1, 5258, Control_c, 0, 64, 56
1, 5260, Note_on_c, 0, 76, 86
1, 5262, Note_on_c, 0, 64, 64
1, 5273, Control_c, 0, 64, 61
1, 5273, Control_c, 0, 67, 106
1, 5287, Note_off_c, 0, 83, 62
1, 5288, Control_c, 0, 64, 63
1, 5299, Note_off_c, 0, 76, 68
1, 5302, Note_off_c, 0, 64, 63
1, 5303, Control_c, 0, 64, 64
1, 5325, Control_c, 0, 64, 65
1, 5340, Control_c, 0, 64, 66
1, 5355, Control_c, 0, 64, 67
1, 5369, Control_c, 0, 64, 68
1, 5384, Control_c, 0, 64, 70
1, 5400, Control_c, 0, 64, 70
1, 5445, Control_c, 0, 64, 71
1, 5489, Control_c, 0, 67, 106
1, 5533, Control_c, 0, 64, 70
1, 5533, Control_c, 0, 67, 105
1, 5548, Control_c, 0, 64, 68
1, 5563, Control_c, 0, 64, 64
1, 5568, Note_on_c, 0, 52, 64
1, 5568, Note_on_c, 0, 64, 70
1, 5578, Control_c, 0, 64, 57
1, 5593, Control_c, 0, 64, 46
1, 5595, Note_off_c, 0, 64, 69
1, 5603, Note_off_c, 0, 52, 64
1, 5607, Control_c, 0, 64, 38
1, 5622, Control_c, 0, 64, 29
1, 5622, Control_c, 0, 67, 105
1, 5637, Control_c, 0, 64, 21
1, 5649, Note_on_c, 0, 64, 75
1, 5652, Control_c, 0, 64, 10
1, 5667, Control_c, 0, 64, 0
1, 5670, Note_on_c, 0, 52, 54
1, 5711, Note_on_c, 0, 68, 78
1, 5714, Note_off_c, 0, 52, 61
1, 5715, Note_off_c, 0, 64, 62
1, 5728, Note_on_c, 0, 56, 50
1, 5780, Note_off_c, 0, 56, 55
1, 5784, Note_on_c, 0, 66, 69
1, 5791, Note_off_c, 0, 68, 62
1, 5800, Note_on_c, 0, 54, 44
1, 5834, Note_off_c, 0, 66, 66
1, 5837, Note_off_c, 0, 54, 63
1, 5855, Note_on_c, 0, 64, 45
1, 5875, Note_on_c, 0, 52, 44
1, 5881, Note_off_c, 0, 64, 51
1, 5889, Control_c, 0, 67, 104
1, 5952, Note_on_c, 0, 81, 77
1, 5978, Control_c, 0, 67, 104
1, 5992, Control_c, 0, 64, 29
1, 5996, Note_on_c, 0, 76, 69
1, 6006, Note_off_c, 0, 81, 59
1, 6007, Control_c, 0, 64, 50
1, 6007, Control_c, 0, 67, 103
1, 6022, Control_c, 0, 64, 59
1, 6025, Note_on_c, 0, 57, 55
1, 6025, Note_on_c, 0, 69, 86
1, 6037, Control_c, 0, 64, 62
1, 6038, Note_off_c, 0, 52, 64
1, 6051, Control_c, 0, 64, 63
1, 6056, Note_off_c, 0, 57, 64
1, 6058, Note_off_c, 0, 76, 66
1, 6074, Control_c, 0, 64, 64
1, 6076, Note_off_c, 0, 69, 63
1, 6089, Control_c, 0, 64, 65
1, 6104, Control_c, 0, 64, 65
1, 6119, Control_c, 0, 64, 66
1, 6133, Control_c, 0, 64, 67
1, 6163, Control_c, 0, 64, 67
1, 6178, Control_c, 0, 64, 68
1, 6209, Control_c, 0, 67, 104
1, 6253, Control_c, 0, 67, 103
1, 6267, Control_c, 0, 64, 68
1, 6312, Control_c, 0, 64, 68
1, 6341, Control_c, 0, 64, 67
1, 6350, Note_on_c, 0, 69, 75
1, 6356, Note_on_c, 0, 57, 61
1, 6356, Control_c, 0, 64, 64
1, 6371, Control_c, 0, 64, 57
1, 6374, Note_off_c, 0, 69, 70
1, 6377, Note_off_c, 0, 57, 60
1, 6386, Control_c, 0, 64, 43
1, 6401, Control_c, 0, 64, 27
1, 6415, Control_c, 0, 64, 13
1, 6430, Note_on_c, 0, 69, 82
1, 6430, Control_c, 0, 64, 0
1, 6441, Note_on_c, 0, 57, 65
1, 6482, Note_off_c, 0, 57, 60
1, 6502, Note_on_c, 0, 72, 77
1, 6504, Note_off_c, 0, 69, 62
1, 6513, Note_on_c, 0, 60, 55
1, 6553, Note_off_c, 0, 60, 61
1, 6563, Note_off_c, 0, 72, 64
1, 6570, Note_on_c, 0, 71, 66
1, 6591, Note_on_c, 0, 59, 40
1, 6620, Note_off_c, 0, 59, 58
1, 6620, Note_off_c, 0, 71, 62
1, 6627, Note_on_c, 0, 69, 72
1, 6644, Note_on_c, 0, 57, 49
1, 6653, Note_off_c, 0, 69, 66
1, 6667, Control_c, 0, 67, 103
1, 6682, Control_c, 0, 67, 102
1, 6749, Note_on_c, 0, 88, 79
1, 6779, Note_on_c, 0, 83, 78
1, 6800, Note_off_c, 0, 57, 59
1, 6810, Note_off_c, 0, 88, 57
1, 6821, Note_on_c, 0, 76, 85
1, 6827, Note_on_c, 0, 64, 64
1, 6853, Control_c, 0, 67, 103
1, 6856, Note_off_c, 0, 83, 57
1, 6868, Control_c, 0, 67, 103
1, 6956, Control_c, 0, 67, 104
1, 6971, Control_c, 0, 64, 21
1, 6971, Control_c, 0, 67, 104
1, 6986, Control_c, 0, 64, 40
1, 7002, Control_c, 0, 64, 48
1, 7017, Control_c, 0, 64, 54
1, 7032, Control_c, 0, 64, 56
1, 7046, Control_c, 0, 64, 58
1, 7061, Control_c, 0, 64, 60
1, 7076, Control_c, 0, 64, 61
1, 7090, Control_c, 0, 64, 62
1, 7105, Control_c, 0, 64, 63
1, 7120, Control_c, 0, 64, 64
1, 7135, Control_c, 0, 64, 66
1, 7150, Control_c, 0, 64, 68
1, 7164, Control_c, 0, 64, 70
1, 7179, Control_c, 0, 64, 72
1, 7179, Control_c, 0, 67, 104
1, 7194, Control_c, 0, 64, 74
1, 7209, Control_c, 0, 64, 76
1, 7224, Control_c, 0, 64, 77
1, 7238, Control_c, 0, 64, 78
1, 7253, Control_c, 0, 64, 79
1, 7257, Note_off_c, 0, 64, 0
1, 7268, Control_c, 0, 64, 80
1, 7270, Note_off_c, 0, 76, 62
1, 7273, Note_on_c, 0, 64, 45
1, 7281, Note_on_c, 0, 52, 65
1, 7311, Note_off_c, 0, 64, 66
1, 7320, Note_off_c, 0, 52, 62
1, 7357, Control_c, 0, 67, 103
1, 7551, Control_c, 0, 67, 103
1, 7631, Control_c, 0, 64, 79
1, 7646, Control_c, 0, 64, 75
1, 7646, Control_c, 0, 67, 102
1, 7661, Control_c, 0, 64, 66
1, 7661, Control_c, 0, 67, 102
1, 7676, Control_c, 0, 64, 0
1, 7676, Control_c, 0, 67, 98
1, 7681, Note_on_c, 0, 93, 77
1, 7691, Note_on_c, 0, 57, 55
1, 7691, Control_c, 0, 67, 78
1, 7702, Note_on_c, 0, 88, 65
1, 7706, Control_c, 0, 67, 0
1, 7712, Note_on_c, 0, 64, 50
1, 7721, Control_c, 0, 64, 41
1, 7727, Note_off_c, 0, 57, 61
1, 7730, Note_off_c, 0, 93, 63
1, 7735, Control_c, 0, 64, 65
1, 7741, Note_off_c, 0, 88, 60
1, 7745, Note_off_c, 0, 64, 64
1, 7749, Note_on_c, 0, 81, 81
1, 7750, Control_c, 0, 64, 71
1, 7757, Note_on_c, 0, 69, 61
1, 7765, Control_c, 0, 64, 78
1, 7780, Control_c, 0, 64, 81
1, 7792, Note_off_c, 0, 81, 57
1, 7794, Note_off_c, 0, 69, 65
1, 7795, Control_c, 0, 64, 82
1, 7825, Control_c, 0, 64, 81
1, 7988, Control_c, 0, 64, 77
1, 8003, Control_c, 0, 64, 64
1, 8018, Control_c, 0, 64, 0
1, 8025, Note_on_c, 0, 81, 79
1, 8032, Note_on_c, 0, 69, 70
1, 8044, Note_off_c, 0, 81, 70
1, 8052, Note_off_c, 0, 69, 67
1, 8108, Note_on_c, 0, 81, 87
1, 8114, Note_on_c, 0, 69, 71
1, 8139, Note_off_c, 0, 81, 59
1, 8166, Note_off_c, 0, 69, 56
1, 8182, Note_on_c, 0, 82, 80
1, 8203, Note_on_c, 0, 70, 65
1, 8224, Note_off_c, 0, 82, 63
1, 8246, Note_on_c, 0, 81, 77
1, 8255, Note_off_c, 0, 70, 50
1, 8296, Note_on_c, 0, 69, 20
1, 8303, Note_on_c, 0, 67, 50
1, 8305, Note_off_c, 0, 81, 62
1, 8318, Note_on_c, 0, 79, 77
1, 8332, Note_off_c, 0, 67, 58
1, 8346, Note_off_c, 0, 69, 31
1, 8350, Note_off_c, 0, 79, 60
1, 8434, Note_on_c, 0, 89, 74
1, 8457, Note_on_c, 0, 62, 58
1, 8475, Note_on_c, 0, 81, 68
1, 8484, Control_c, 0, 64, 64
1, 8490, Note_off_c, 0, 89, 64
1, 8499, Control_c, 0, 64, 66
1, 8513, Note_on_c, 0, 77, 76
1, 8513, Control_c, 0, 64, 67
1, 8519, Note_on_c, 0, 65, 59
1, 8528, Control_c, 0, 64, 71
1, 8543, Control_c, 0, 64, 75
1, 8558, Control_c, 0, 64, 78
1, 8563, Note_off_c, 0, 65, 65
1, 8567, Note_off_c, 0, 62, 61
1, 8572, Control_c, 0, 64, 79
1, 8575, Note_off_c, 0, 81, 61
1, 8587, Control_c, 0, 64, 80
1, 8588, Note_off_c, 0, 77, 62
1, 8603, Control_c, 0, 64, 80
1, 8618, Control_c, 0, 64, 81
1, 8648, Control_c, 0, 64, 82
1, 8737, Control_c, 0, 64, 82
1, 8825, Control_c, 0, 64, 82
1, 8826, Note_on_c, 0, 62, 80
1, 8832, Note_on_c, 0, 74, 81
1, 8840, Control_c, 0, 64, 78
1, 8853, Note_off_c, 0, 62, 64
1, 8853, Note_off_c, 0, 74, 69
1, 8855, Control_c, 0, 64, 68
1, 8869, Control_c, 0, 64, 0
1, 8907, Note_on_c, 0, 74, 83
1, 8918, Note_on_c, 0, 62, 71
1, 8983, Note_on_c, 0, 77, 84
1, 8990, Note_off_c, 0, 74, 64
1, 9002, Note_on_c, 0, 65, 59
1, 9028, Note_off_c, 0, 62, 37
1, 9041, Note_on_c, 0, 76, 79
1, 9049, Note_off_c, 0, 77, 62
1, 9053, Note_on_c, 0, 64, 60
1, 9074, Note_off_c, 0, 65, 51
1, 9108, Note_on_c, 0, 74, 75
1, 9113, Note_off_c, 0, 64, 61
1, 9114, Note_off_c, 0, 76, 66
1, 9130, Note_off_c, 0, 74, 72
1, 9227, Note_on_c, 0, 55, 47
1, 9244, Note_on_c, 0, 91, 78
1, 9268, Note_on_c, 0, 62, 48
1, 9277, Note_on_c, 0, 86, 71
1, 9278, Note_off_c, 0, 55, 57
1, 9291, Control_c, 0, 64, 64
1, 9297, Note_off_c, 0, 91, 57
1, 9306, Control_c, 0, 64, 70
1, 9320, Note_on_c, 0, 79, 76
1, 9321, Control_c, 0, 64, 73
1, 9323, Note_on_c, 0, 67, 62
1, 9336, Control_c, 0, 64, 77
1, 9339, Note_off_c, 0, 62, 54
1, 9351, Control_c, 0, 64, 80
1, 9366, Control_c, 0, 64, 81
1, 9366, Note_off_c, 0, 86, 61
1, 9381, Control_c, 0, 64, 82
1, 9396, Note_off_c, 0, 67, 58
1, 9396, Control_c, 0, 64, 83
1, 9407, Note_off_c, 0, 79, 59
1, 9411, Control_c, 0, 64, 84
1, 9426, Control_c, 0, 64, 84
1, 9441, Control_c, 0, 64, 85
1, 9455, Control_c, 0, 64, 85
1, 9470, Control_c, 0, 64, 86
1, 9530, Control_c, 0, 64, 86
1, 9618, Note_on_c, 0, 67, 73
1, 9618, Control_c, 0, 64, 86
1, 9622, Note_on_c, 0, 79, 72
1, 9633, Control_c, 0, 64, 79
1, 9637, Note_off_c, 0, 79, 68
1, 9643, Note_off_c, 0, 67, 65
1, 9648, Control_c, 0, 64, 62
1, 9663, Control_c, 0, 64, 0
1, 9693, Note_on_c, 0, 79, 87
1, 9705, Note_on_c, 0, 67, 72
1, 9736, Note_off_c, 0, 79, 63
1, 9763, Note_off_c, 0, 67, 56
1, 9773, Note_on_c, 0, 81, 84
1, 9788, Note_on_c, 0, 69, 70
1, 9844, Note_off_c, 0, 81, 61
1, 9848, Note_off_c, 0, 69, 62
1, 9850, Note_on_c, 0, 79, 83
1, 9870, Note_on_c, 0, 67, 53
1, 9891, Note_off_c, 0, 67, 59
1, 9902, Note_on_c, 0, 65, 52
1, 9904, Note_off_c, 0, 79, 63
1, 9910, Note_on_c, 0, 77, 75
1, 9923, Note_off_c, 0, 65, 59
1, 9946, Note_off_c, 0, 77, 58
1, 10037, Note_on_c, 0, 88, 68
1, 10061, Note_on_c, 0, 60, 49
1, 10080, Note_on_c, 0, 79, 68
1, 10085, Control_c, 0, 64, 54
1, 10099, Control_c, 0, 64, 68
1, 10114, Note_off_c, 0, 88, 40
1, 10114, Control_c, 0, 64, 69
1, 10117, Note_on_c, 0, 76, 71
1, 10126, Note_on_c, 0, 64, 54
1, 10129, Control_c, 0, 64, 71
1, 10144, Control_c, 0, 64, 75
1, 10159, Control_c, 0, 64, 80
1, 10162, Note_off_c, 0, 60, 60
1, 10171, Note_off_c, 0, 64, 64
1, 10174, Note_off_c, 0, 79, 60
1, 10174, Control_c, 0, 64, 82
1, 10189, Note_off_c, 0, 76, 64
1, 10189, Control_c, 0, 64, 83
1, 10204, Control_c, 0, 64, 83
1, 10219, Control_c, 0, 64, 84
1, 10234, Control_c, 0, 64, 85
1, 10248, Control_c, 0, 64, 86
1, 10278, Control_c, 0, 64, 86
1, 10383, Control_c, 0, 64, 87
1, 10412, Control_c, 0, 64, 86
1, 10427, Control_c, 0, 64, 85
1, 10430, Note_on_c, 0, 72, 81
1, 10436, Note_on_c, 0, 60, 70
1, 10442, Control_c, 0, 64, 78
1, 10455, Note_off_c, 0, 72, 66
1, 10457, Control_c, 0, 64, 59
1, 10460, Note_off_c, 0, 60, 68
1, 10472, Control_c, 0, 64, 0
1, 10512, Note_on_c, 0, 72, 81
1, 10526, Note_on_c, 0, 60, 58
1, 10596, Note_on_c, 0, 76, 80
1, 10598, Note_off_c, 0, 72, 62
1, 10621, Note_on_c, 0, 64, 57
1, 10648, Note_on_c, 0, 74, 74
1, 10651, Note_off_c, 0, 76, 66
1, 10654, Note_on_c, 0, 62, 58
1, 10657, Note_off_c, 0, 60, 61
1, 10666, Note_off_c, 0, 64, 57
1, 10686, Note_off_c, 0, 62, 63
1, 10710, Note_on_c, 0, 72, 78
1, 10716, Note_off_c, 0, 74, 65
1, 10732, Note_off_c, 0, 72, 68
1, 10812, Note_on_c, 0, 50, 36
1, 10836, Note_on_c, 0, 59, 57
1, 10845, Note_on_c, 0, 89, 84
1, 10845, Note_off_c, 0, 50, 44
1, 10880, Control_c, 0, 64, 71
1, 10885, Note_on_c, 0, 83, 85
1, 10892, Note_off_c, 0, 89, 67
1, 10895, Control_c, 0, 64, 75
1, 10909, Note_on_c, 0, 77, 89
1, 10910, Control_c, 0, 64, 80
1, 10912, Note_on_c, 0, 65, 69
1, 10916, Note_off_c, 0, 59, 63
1, 10924, Control_c, 0, 64, 84
1, 10939, Control_c, 0, 64, 87
1, 10948, Note_off_c, 0, 83, 61
1, 10954, Control_c, 0, 64, 88
1, 10959, Note_off_c, 0, 77, 63
1, 10968, Control_c, 0, 64, 88
1, 10985, Control_c, 0, 64, 89
1, 11142, Note_off_c, 0, 65, 37
1, 11211, Note_on_c, 0, 59, 70
1, 11213, Note_on_c, 0, 71, 77
1, 11236, Note_off_c, 0, 59, 66
1, 11236, Note_off_c, 0, 71, 68
1, 11277, Note_on_c, 0, 71, 86
1, 11327, Note_on_c, 0, 59, 52
1, 11351, Note_off_c, 0, 59, 57
1, 11360, Note_on_c, 0, 62, 62
1, 11365, Note_on_c, 0, 74, 86
1, 11367, Note_off_c, 0, 71, 37
1, 11422, Note_on_c, 0, 72, 80
1, 11423, Note_on_c, 0, 60, 65
1, 11437, Note_off_c, 0, 74, 61
1, 11471, Note_off_c, 0, 62, 59
1, 11479, Note_on_c, 0, 71, 82
1, 11487, Note_off_c, 0, 60, 62
1, 11496, Note_off_c, 0, 72, 64
1, 11511, Note_on_c, 0, 59, 26
1, 11524, Note_off_c, 0, 71, 59
1, 11535, Note_off_c, 0, 59, 57
1, 11569, Control_c, 0, 64, 87
1, 11584, Control_c, 0, 64, 81
1, 11599, Control_c, 0, 64, 72
1, 11600, Note_on_c, 0, 48, 67
1, 11614, Control_c, 0, 64, 51
1, 11629, Control_c, 0, 64, 0
1, 11629, Note_on_c, 0, 88, 85
1, 11640, Note_off_c, 0, 48, 62
1, 11640, Note_on_c, 0, 57, 66
1, 11658, Control_c, 0, 64, 50
1, 11672, Note_on_c, 0, 81, 87
1, 11673, Control_c, 0, 64, 63
1, 11685, Note_off_c, 0, 88, 62
1, 11688, Control_c, 0, 64, 66
1, 11696, Note_on_c, 0, 76, 92
1, 11703, Control_c, 0, 64, 70
1, 11718, Control_c, 0, 64, 75
1, 11720, Note_on_c, 0, 64, 67
1, 11732, Note_off_c, 0, 57, 57
1, 11733, Control_c, 0, 64, 79
1, 11735, Note_off_c, 0, 81, 61
1, 11747, Control_c, 0, 64, 80
1, 11748, Note_off_c, 0, 76, 69
1, 11762, Control_c, 0, 64, 81
1, 11777, Control_c, 0, 64, 81
1, 11792, Control_c, 0, 64, 82
1, 11807, Control_c, 0, 64, 83
1, 11822, Control_c, 0, 64, 84
1, 11837, Control_c, 0, 64, 85
1, 11852, Control_c, 0, 64, 85
1, 11896, Control_c, 0, 64, 86
1, 11919, Note_off_c, 0, 64, 47
1, 12005, Note_on_c, 0, 57, 68
1, 12006, Note_on_c, 0, 69, 80
1, 12013, Control_c, 0, 64, 83
1, 12026, Note_off_c, 0, 69, 73
1, 12028, Control_c, 0, 64, 72
1, 12031, Note_off_c, 0, 57, 64
1, 12043, Control_c, 0, 64, 0
1, 12087, Note_on_c, 0, 69, 95
1, 12125, Note_off_c, 0, 69, 65
1, 12134, Note_on_c, 0, 57, 20
1, 12163, Note_on_c, 0, 60, 50
1, 12171, Note_on_c, 0, 72, 82
1, 12172, Note_off_c, 0, 57, 38
1, 12238, Note_off_c, 0, 60, 54
1, 12242, Note_on_c, 0, 71, 82
1, 12243, Note_on_c, 0, 59, 52
1, 12258, Note_off_c, 0, 72, 56
1, 12289, Note_off_c, 0, 59, 58
1, 12327, Note_on_c, 0, 57, 50
1, 12336, Note_on_c, 0, 69, 81
1, 12342, Note_off_c, 0, 71, 60
1, 12394, Note_off_c, 0, 57, 58
1, 12396, Note_off_c, 0, 69, 66
1, 12435, Note_on_c, 0, 65, 97
1, 12440, Note_on_c, 0, 53, 84
1, 12450, Control_c, 0, 64, 67
1, 12465, Control_c, 0, 64, 79
1, 12480, Control_c, 0, 64, 84
1, 12494, Control_c, 0, 64, 86
1, 12568, Control_c, 0, 64, 86
1, 12628, Control_c, 0, 64, 87
1, 12643, Control_c, 0, 64, 87
1, 12673, Control_c, 0, 64, 88
1, 12696, Note_on_c, 0, 57, 39
1, 12702, Note_off_c, 0, 65, 54
1, 12702, Control_c, 0, 64, 88
1, 12714, Note_off_c, 0, 53, 39
1, 12717, Control_c, 0, 64, 89
1, 12721, Note_on_c, 0, 69, 48
1, 12732, Control_c, 0, 64, 89
1, 12743, Note_on_c, 0, 75, 82
1, 12743, Note_off_c, 0, 57, 60
1, 12747, Control_c, 0, 64, 90
1, 12754, Note_on_c, 0, 71, 54
1, 12754, Note_off_c, 0, 69, 67
1, 12758, Note_on_c, 0, 63, 53
1, 12759, Note_on_c, 0, 59, 35
1, 12776, Control_c, 0, 64, 89
1, 12780, Note_off_c, 0, 71, 59
1, 12786, Note_off_c, 0, 63, 60
1, 12791, Control_c, 0, 64, 81
1, 12814, Control_c, 0, 64, 61
1, 12815, Note_off_c, 0, 59, 41
1, 12829, Control_c, 0, 64, 0
1, 12831, Note_on_c, 0, 64, 77
1, 12845, Note_off_c, 0, 75, 61
1, 12849, Note_on_c, 0, 52, 54
1, 12879, Note_off_c, 0, 52, 67
1, 12929, Note_on_c, 0, 76, 73
1, 12949, Poly_aftertouch_c, 0, 68, 0
1, 12976, Note_off_c, 0, 64, 59
1, 13009, Note_on_c, 0, 74, 76
1, 13009, Note_off_c, 0, 76, 59
1, 13033, Note_on_c, 0, 62, 41
1, 13072, Note_off_c, 0, 62, 47
1, 13089, Note_on_c, 0, 71, 85
1, 13093, Note_on_c, 0, 59, 57
1, 13107, Note_off_c, 0, 74, 64
1, 13135, Note_off_c, 0, 59, 60
1, 13138, Note_off_c, 0, 71, 63
1, 13207, Note_on_c, 0, 69, 102
1, 13211, Note_on_c, 0, 57, 74
1, 13243, Control_c, 0, 64, 66
1, 13258, Control_c, 0, 64, 65
1, 13288, Control_c, 0, 64, 66
1, 13303, Control_c, 0, 64, 67
1, 13317, Control_c, 0, 64, 68
1, 13332, Control_c, 0, 64, 68
1, 13408, Control_c, 0, 64, 69
1, 13423, Control_c, 0, 64, 69
1, 13482, Control_c, 0, 64, 70
1, 13497, Control_c, 0, 64, 70
1, 13512, Control_c, 0, 64, 71
1, 13527, Control_c, 0, 64, 72
1, 13541, Control_c, 0, 64, 72
1, 13563, Control_c, 0, 64, 73
1, 13578, Control_c, 0, 64, 75
1, 13593, Control_c, 0, 64, 76
1, 13608, Control_c, 0, 64, 78
1, 13623, Control_c, 0, 64, 80
1, 13638, Control_c, 0, 64, 81
1, 13646, Note_on_c, 0, 45, 67
1, 13651, Note_off_c, 0, 69, 66
1, 13653, Control_c, 0, 64, 83
1, 13660, Note_on_c, 0, 72, 68
1, 13667, Note_on_c, 0, 81, 98
1, 13667, Control_c, 0, 64, 84
1, 13670, Note_on_c, 0, 76, 57
1, 13678, Note_off_c, 0, 72, 67
1, 13682, Control_c, 0, 64, 85
1, 13685, Note_off_c, 0, 45, 64
1, 13690, Note_off_c, 0, 76, 61
1, 13694, Note_off_c, 0, 81, 67
1, 13697, Control_c, 0, 64, 85
1, 13702, Note_off_c, 0, 57, 60
1, 13727, Control_c, 0, 64, 86
1, 13963, Control_c, 0, 64, 85
1, 13978, Control_c, 0, 64, 84
1, 13992, Control_c, 0, 64, 78
1, 14007, Control_c, 0, 64, 63
1, 14022, Control_c, 0, 64, 0
1, 14049, Note_on_c, 0, 57, 53
1, 14051, Note_on_c, 0, 93, 83
1, 14060, Note_on_c, 0, 88, 72
1, 14067, Note_on_c, 0, 64, 47
1, 14067, Control_c, 0, 64, 42
1, 14082, Note_off_c, 0, 57, 64
1, 14082, Control_c, 0, 64, 62
1, 14089, Note_off_c, 0, 93, 61
1, 14092, Note_off_c, 0, 64, 61
1, 14097, Note_off_c, 0, 88, 60
1, 14097, Control_c, 0, 64, 68
1, 14106, Note_on_c, 0, 69, 60
1, 14107, Note_on_c, 0, 81, 79
1, 14112, Control_c, 0, 64, 72
1, 14127, Control_c, 0, 64, 78
1, 14130, Note_off_c, 0, 69, 63
1, 14141, Control_c, 0, 64, 80
1, 14156, Control_c, 0, 64, 81
1, 14171, Control_c, 0, 64, 82
1, 14187, Control_c, 0, 64, 83
1, 14202, Control_c, 0, 64, 83
1, 14217, Note_off_c, 0, 81, 52
1, 14246, Control_c, 0, 64, 84
1, 14313, Control_c, 0, 64, 84
1, 14358, Control_c, 0, 64, 84
1, 14372, Control_c, 0, 64, 80
1, 14381, Note_on_c, 0, 81, 74
1, 14387, Control_c, 0, 64, 61
1, 14391, Note_on_c, 0, 69, 61
1, 14402, Control_c, 0, 64, 0
1, 14404, Note_off_c, 0, 81, 68
1, 14408, Note_off_c, 0, 69, 63
1, 14460, Note_on_c, 0, 81, 82
1, 14474, Note_on_c, 0, 69, 66
1, 14495, Note_off_c, 0, 81, 63
1, 14512, Note_off_c, 0, 69, 58
1, 14538, Note_on_c, 0, 82, 78
1, 14547, Note_on_c, 0, 70, 64
1, 14559, Note_off_c, 0, 82, 68
1, 14603, Note_off_c, 0, 70, 60
1, 14607, Note_on_c, 0, 81, 75
1, 14661, Note_off_c, 0, 81, 61
1, 14669, Note_on_c, 0, 79, 63
1, 14695, Note_off_c, 0, 79, 62
1, 14772, Note_on_c, 0, 89, 65
1, 14779, Note_on_c, 0, 62, 45
1, 14809, Note_off_c, 0, 89, 53
1, 14816, Control_c, 0, 64, 66
1, 14826, Note_on_c, 0, 81, 50
1, 14831, Control_c, 0, 64, 67
1, 14839, Note_on_c, 0, 65, 53
1, 14846, Control_c, 0, 64, 70
1, 14859, Note_on_c, 0, 77, 76
1, 14861, Control_c, 0, 64, 76
1, 14876, Control_c, 0, 64, 82
1, 14878, Note_off_c, 0, 62, 55
1, 14889, Note_off_c, 0, 65, 62
1, 14890, Control_c, 0, 64, 84
1, 14905, Control_c, 0, 64, 85
1, 14910, Note_off_c, 0, 81, 59
1, 14919, Control_c, 0, 64, 85
1, 14931, Note_off_c, 0, 77, 57
1, 14934, Control_c, 0, 64, 86
1, 14949, Control_c, 0, 64, 87
1, 14964, Control_c, 0, 64, 88
1, 14979, Control_c, 0, 64, 88
1, 14994, Control_c, 0, 64, 89
1, 15024, Control_c, 0, 64, 90
1, 15076, Control_c, 0, 64, 90
1, 15135, Control_c, 0, 64, 90
1, 15150, Control_c, 0, 64, 82
1, 15162, Note_on_c, 0, 74, 81
1, 15164, Note_on_c, 0, 62, 74
1, 15165, Control_c, 0, 64, 54
1, 15180, Control_c, 0, 64, 0
1, 15188, Note_off_c, 0, 74, 65
1, 15194, Note_off_c, 0, 62, 63
1, 15247, Note_on_c, 0, 74, 79
1, 15268, Note_on_c, 0, 62, 46
1, 15297, Note_off_c, 0, 62, 56
1, 15303, Note_on_c, 0, 65, 60
1, 15328, Note_on_c, 0, 77, 79
1, 15332, Note_off_c, 0, 74, 59
1, 15370, Note_on_c, 0, 64, 58
1, 15384, Note_off_c, 0, 77, 63
1, 15388, Note_on_c, 0, 76, 82
1, 15392, Note_off_c, 0, 65, 49
1, 15417, Note_off_c, 0, 64, 61
1, 15424, Note_on_c, 0, 62, 23
1, 15450, Note_off_c, 0, 62, 51
1, 15451, Note_on_c, 0, 74, 66
1, 15451, Note_off_c, 0, 76, 66
1, 15477, Note_off_c, 0, 74, 70
1, 15555, Note_on_c, 0, 55, 48
1, 15597, Note_on_c, 0, 91, 76
1, 15611, Note_off_c, 0, 55, 59
1, 15615, Note_on_c, 0, 62, 40
1, 15624, Control_c, 0, 64, 64
1, 15626, Note_off_c, 0, 91, 54
1, 15632, Note_on_c, 0, 86, 70
1, 15638, Control_c, 0, 64, 68
1, 15653, Control_c, 0, 64, 71
1, 15660, Note_on_c, 0, 67, 62
1, 15660, Note_on_c, 0, 79, 74
1, 15668, Control_c, 0, 64, 76
1, 15671, Note_off_c, 0, 62, 61
1, 15683, Control_c, 0, 64, 81
1, 15692, Note_off_c, 0, 86, 62
1, 15697, Note_off_c, 0, 67, 62
1, 15698, Control_c, 0, 64, 83
1, 15714, Note_off_c, 0, 79, 61
1, 15772, Control_c, 0, 64, 83
1, 15810, Control_c, 0, 64, 84
1, 15825, Control_c, 0, 64, 84
1, 15943, Control_c, 0, 64, 82
1, 15948, Note_on_c, 0, 67, 72
1, 15951, Note_on_c, 0, 79, 71
1, 15958, Control_c, 0, 64, 71
1, 15967, Note_off_c, 0, 79, 67
1, 15971, Note_off_c, 0, 67, 65
1, 15973, Control_c, 0, 64, 0
1, 16022, Note_on_c, 0, 79, 83
1, 16028, Note_on_c, 0, 67, 66
1, 16060, Note_off_c, 0, 79, 63
1, 16101, Note_on_c, 0, 81, 78
1, 16103, Note_off_c, 0, 67, 59
1, 16114, Note_on_c, 0, 69, 65
1, 16151, Note_off_c, 0, 81, 61
1, 16174, Note_on_c, 0, 79, 72
1, 16178, Note_off_c, 0, 69, 62
1, 16192, Note_on_c, 0, 67, 48
1, 16217, Note_off_c, 0, 67, 61
1, 16225, Note_off_c, 0, 79, 62
1, 16234, Note_on_c, 0, 65, 51
1, 16234, Note_on_c, 0, 77, 70
1, 16258, Note_off_c, 0, 65, 57
1, 16262, Note_off_c, 0, 77, 62
1, 16356, Note_on_c, 0, 88, 70
1, 16377, Note_on_c, 0, 60, 55
1, 16413, Note_on_c, 0, 79, 68
1, 16417, Control_c, 0, 64, 63
1, 16425, Note_off_c, 0, 88, 53
1, 16432, Control_c, 0, 64, 66
1, 16434, Note_on_c, 0, 64, 53
1, 16439, Note_on_c, 0, 76, 69
1, 16446, Control_c, 0, 64, 67
1, 16461, Control_c, 0, 64, 71
1, 16476, Control_c, 0, 64, 75
1, 16491, Control_c, 0, 64, 79
1, 16493, Note_off_c, 0, 60, 56
1, 16503, Note_off_c, 0, 76, 66
1, 16506, Control_c, 0, 64, 80
1, 16509, Note_off_c, 0, 64, 60
1, 16512, Note_off_c, 0, 79, 58
1, 16520, Control_c, 0, 64, 80
1, 16764, Note_on_c, 0, 60, 69
1, 16771, Note_on_c, 0, 72, 70
1, 16787, Note_off_c, 0, 72, 67
1, 16789, Note_off_c, 0, 60, 67
1, 16839, Note_on_c, 0, 72, 88
1, 16858, Note_on_c, 0, 60, 41
1, 16878, Note_off_c, 0, 72, 61
1, 16893, Note_off_c, 0, 60, 46
1, 16914, Note_on_c, 0, 76, 85
1, 16916, Note_on_c, 0, 64, 55
1, 16950, Note_on_c, 0, 62, 67
1, 16969, Note_on_c, 0, 74, 81
1, 16973, Note_off_c, 0, 76, 68
1, 16983, Note_off_c, 0, 64, 51
1, 16993, Note_on_c, 0, 60, 40
1, 17013, Note_off_c, 0, 62, 61
1, 17021, Note_off_c, 0, 60, 55
1, 17027, Note_on_c, 0, 72, 77
1, 17041, Note_off_c, 0, 74, 65
1, 17056, Note_off_c, 0, 72, 63
1, 17092, Control_c, 0, 64, 79
1, 17107, Control_c, 0, 64, 75
1, 17122, Control_c, 0, 64, 65
1, 17122, Note_on_c, 0, 50, 56
1, 17137, Control_c, 0, 64, 0
1, 17155, Note_off_c, 0, 50, 65
1, 17161, Note_on_c, 0, 59, 57
1, 17162, Note_on_c, 0, 89, 85
1, 17197, Control_c, 0, 64, 41
1, 17211, Control_c, 0, 64, 60
1, 17214, Note_on_c, 0, 83, 82
1, 17221, Note_off_c, 0, 89, 64
1, 17226, Control_c, 0, 64, 64
1, 17234, Note_on_c, 0, 77, 88
1, 17235, Note_off_c, 0, 59, 61
1, 17238, Note_on_c, 0, 65, 63
1, 17241, Control_c, 0, 64, 66
1, 17256, Control_c, 0, 64, 69
1, 17271, Control_c, 0, 64, 72
1, 17276, Note_off_c, 0, 83, 61
1, 17285, Control_c, 0, 64, 74
1, 17286, Note_off_c, 0, 77, 63
1, 17307, Control_c, 0, 64, 74
1, 17322, Control_c, 0, 64, 75
1, 17337, Control_c, 0, 64, 76
1, 17352, Control_c, 0, 64, 76
1, 17367, Control_c, 0, 64, 77
1, 17382, Control_c, 0, 64, 77
1, 17461, Note_off_c, 0, 65, 29
1, 17528, Note_on_c, 0, 59, 68
1, 17543, Note_on_c, 0, 71, 69
1, 17557, Note_off_c, 0, 59, 65
1, 17558, Note_off_c, 0, 71, 65
1, 17603, Note_on_c, 0, 71, 90
1, 17605, Control_c, 0, 64, 78
1, 17634, Control_c, 0, 64, 78
1, 17647, Note_off_c, 0, 71, 62
1, 17649, Control_c, 0, 64, 79
1, 17651, Note_on_c, 0, 59, 32
1, 17663, Note_on_c, 0, 62, 67
1, 17678, Note_off_c, 0, 59, 51
1, 17679, Control_c, 0, 64, 80
1, 17686, Note_on_c, 0, 74, 89
1, 17694, Control_c, 0, 64, 80
1, 17721, Note_on_c, 0, 60, 67
1, 17723, Control_c, 0, 64, 81
1, 17746, Note_on_c, 0, 72, 83
1, 17753, Control_c, 0, 64, 81
1, 17765, Note_off_c, 0, 74, 62
1, 17767, Note_off_c, 0, 62, 52
1, 17768, Control_c, 0, 64, 82
1, 17781, Note_on_c, 0, 59, 53
1, 17782, Control_c, 0, 64, 82
1, 17790, Note_off_c, 0, 60, 61
1, 17797, Control_c, 0, 64, 83
1, 17802, Note_on_c, 0, 71, 80
1, 17804, Note_off_c, 0, 59, 60
1, 17821, Note_off_c, 0, 72, 65
1, 17826, Control_c, 0, 64, 83
1, 17840, Note_off_c, 0, 71, 61
1, 17841, Control_c, 0, 64, 84
1, 17871, Control_c, 0, 64, 84
1, 17900, Control_c, 0, 64, 84
1, 17906, Note_on_c, 0, 48, 65
1, 17915, Control_c, 0, 64, 82
1, 17930, Control_c, 0, 64, 73
1, 17945, Note_off_c, 0, 48, 64
1, 17945, Control_c, 0, 64, 51
1, 17949, Note_on_c, 0, 88, 86
1, 17951, Note_on_c, 0, 57, 59
1, 17960, Control_c, 0, 64, 0
1, 17996, Note_on_c, 0, 81, 82
1, 18005, Control_c, 0, 64, 33
1, 18010, Note_off_c, 0, 88, 59
1, 18020, Control_c, 0, 64, 61
1, 18024, Note_on_c, 0, 76, 90
1, 18034, Control_c, 0, 64, 67
1, 18037, Note_on_c, 0, 64, 59
1, 18052, Note_off_c, 0, 57, 54
1, 18056, Control_c, 0, 64, 71
1, 18071, Control_c, 0, 64, 77
1, 18077, Note_off_c, 0, 81, 60
1, 18086, Control_c, 0, 64, 82
1, 18088, Note_off_c, 0, 76, 66
1, 18101, Control_c, 0, 64, 83
1, 18115, Control_c, 0, 64, 85
1, 18130, Control_c, 0, 64, 87
1, 18145, Control_c, 0, 64, 89
1, 18160, Control_c, 0, 64, 91
1, 18175, Control_c, 0, 64, 93
1, 18191, Control_c, 0, 64, 95
1, 18205, Control_c, 0, 64, 96
1, 18220, Control_c, 0, 64, 96
1, 18237, Note_off_c, 0, 64, 51
1, 18339, Note_on_c, 0, 57, 71
1, 18349, Note_on_c, 0, 69, 68
1, 18365, Note_off_c, 0, 57, 65
1, 18366, Note_off_c, 0, 69, 68
1, 18407, Note_on_c, 0, 69, 93
1, 18431, Note_on_c, 0, 57, 64
1, 18449, Note_off_c, 0, 69, 68
1, 18482, Note_off_c, 0, 57, 59
1, 18494, Note_on_c, 0, 72, 93
1, 18496, Note_on_c, 0, 60, 66
1, 18546, Control_c, 0, 64, 97
1, 18567, Note_on_c, 0, 59, 68
1, 18571, Note_on_c, 0, 71, 90
1, 18605, Note_off_c, 0, 60, 61
1, 18605, Control_c, 0, 64, 97
1, 18606, Note_off_c, 0, 72, 64
1, 18629, Note_on_c, 0, 57, 70
1, 18633, Note_off_c, 0, 59, 57
1, 18647, Note_on_c, 0, 69, 98
1, 18675, Note_off_c, 0, 71, 59
1, 18678, Control_c, 0, 64, 98
1, 18708, Control_c, 0, 64, 97
1, 18723, Control_c, 0, 64, 95
1, 18738, Control_c, 0, 64, 84
1, 18753, Control_c, 0, 64, 66
1, 18762, Note_on_c, 0, 53, 89
1, 18765, Note_on_c, 0, 65, 100
1, 18767, Note_off_c, 0, 57, 57
1, 18768, Control_c, 0, 64, 0
1, 18820, Note_off_c, 0, 69, 58
1, 18834, Control_c, 0, 64, 51
1, 18849, Control_c, 0, 64, 65
1, 18863, Control_c, 0, 64, 70
1, 18878, Control_c, 0, 64, 74
1, 18893, Control_c, 0, 64, 78
1, 18908, Control_c, 0, 64, 80
1, 18923, Control_c, 0, 64, 80
1, 18938, Control_c, 0, 64, 81
1, 18942, Note_on_c, 0, 57, 55
1, 18968, Control_c, 0, 64, 82
1, 18983, Control_c, 0, 64, 83
1, 18989, Note_off_c, 0, 53, 57
1, 18998, Control_c, 0, 64, 83
1, 19012, Control_c, 0, 64, 84
1, 19019, Note_on_c, 0, 59, 44
1, 19036, Note_on_c, 0, 69, 46
1, 19053, Note_off_c, 0, 65, 60
1, 19054, Note_off_c, 0, 57, 62
1, 19061, Note_on_c, 0, 63, 62
1, 19068, Note_on_c, 0, 75, 84
1, 19077, Note_on_c, 0, 71, 45
1, 19081, Note_off_c, 0, 69, 65
1, 19095, Note_off_c, 0, 59, 55
1, 19096, Note_off_c, 0, 63, 65
1, 19102, Note_off_c, 0, 71, 58
1, 19144, Note_on_c, 0, 64, 95
1, 19146, Note_on_c, 0, 52, 77
1, 19148, Note_on_c, 0, 56, 67
1, 19166, Note_off_c, 0, 75, 60
1, 19176, Control_c, 0, 64, 84
1, 19191, Control_c, 0, 64, 82
1, 19195, Note_off_c, 0, 52, 57
1, 19206, Note_off_c, 0, 56, 58
1, 19206, Control_c, 0, 64, 80
1, 19221, Control_c, 0, 64, 76
1, 19236, Control_c, 0, 64, 71
1, 19240, Note_on_c, 0, 76, 83
1, 19251, Control_c, 0, 64, 66
1, 19266, Control_c, 0, 64, 62
1, 19295, Control_c, 0, 64, 63
1, 19304, Note_off_c, 0, 64, 57
1, 19310, Control_c, 0, 64, 62
1, 19325, Note_on_c, 0, 74, 81
1, 19329, Note_on_c, 0, 62, 58
1, 19333, Note_off_c, 0, 76, 60
1, 19340, Control_c, 0, 64, 62
1, 19369, Control_c, 0, 64, 62
1, 19372, Note_off_c, 0, 62, 58
1, 19397, Note_on_c, 0, 59, 60
1, 19398, Control_c, 0, 64, 63
1, 19404, Note_on_c, 0, 71, 91
1, 19428, Control_c, 0, 64, 62
1, 19433, Note_off_c, 0, 74, 65
1, 19443, Control_c, 0, 64, 61
1, 19458, Note_off_c, 0, 59, 54
1, 19458, Control_c, 0, 64, 53
1, 19462, Note_off_c, 0, 71, 61
1, 19472, Control_c, 0, 64, 0
1, 19537, Note_on_c, 0, 69, 104
1, 19541, Note_on_c, 0, 57, 84
1, 19599, Control_c, 0, 64, 46
1, 19613, Control_c, 0, 64, 62
1, 19628, Control_c, 0, 64, 65
1, 19643, Control_c, 0, 64, 66
1, 19658, Control_c, 0, 64, 67
1, 19673, Control_c, 0, 64, 69
1, 19687, Control_c, 0, 64, 70
1, 19702, Control_c, 0, 64, 71
1, 19717, Control_c, 0, 64, 72
1, 19731, Control_c, 0, 64, 72
1, 19746, Control_c, 0, 64, 73
1, 19777, Control_c, 0, 64, 73
1, 19910, Control_c, 0, 64, 74
1, 19940, Control_c, 0, 64, 74
1, 19955, Control_c, 0, 64, 75
1, 19984, Control_c, 0, 64, 75
1, 19999, Control_c, 0, 64, 76
1, 20014, Control_c, 0, 64, 78
1, 20029, Control_c, 0, 64, 79
1, 20031, Note_on_c, 0, 45, 55
1, 20044, Control_c, 0, 64, 80
1, 20052, Note_off_c, 0, 69, 71
1, 20056, Note_on_c, 0, 72, 81
1, 20059, Control_c, 0, 64, 82
1, 20073, Note_off_c, 0, 57, 57
1, 20073, Control_c, 0, 64, 83
1, 20074, Note_on_c, 0, 76, 75
1, 20074, Note_on_c, 0, 81, 102
1, 20083, Note_off_c, 0, 72, 66
1, 20088, Control_c, 0, 64, 86
1, 20089, Note_off_c, 0, 76, 69
1, 20103, Control_c, 0, 64, 88
1, 20107, Note_off_c, 0, 81, 68
1, 20118, Control_c, 0, 64, 91
1, 20127, Note_off_c, 0, 45, 64
1, 20133, Control_c, 0, 64, 93
1, 20148, Control_c, 0, 64, 95
1, 20163, Control_c, 0, 64, 96
1, 20178, Control_c, 0, 64, 97
1, 20193, Control_c, 0, 64, 97
1, 20208, Control_c, 0, 64, 98
1, 20222, Control_c, 0, 64, 98
1, 20601, Control_c, 0, 64, 99
1, 20690, Control_c, 0, 64, 99
1, 20720, Control_c, 0, 64, 100
1, 20734, Control_c, 0, 64, 100
1, 20749, Control_c, 0, 64, 101
1, 20764, Control_c, 0, 64, 101
1, 20779, Control_c, 0, 64, 102
1, 20794, Control_c, 0, 64, 103
1, 20808, Control_c, 0, 64, 103
1, 20852, Control_c, 0, 64, 103
1, 20867, Control_c, 0, 64, 94
1, 20882, Control_c, 0, 64, 75
1, 20897, Control_c, 0, 64, 0
1, 21194, Note_on_c, 0, 40, 81
1, 21194, Note_on_c, 0, 76, 106
1, 21196, Note_on_c, 0, 44, 79
1, 21197, Note_on_c, 0, 88, 105
1, 21215, Control_c, 0, 64, 80
1, 21230, Control_c, 0, 64, 127
1, 21231, Note_off_c, 0, 88, 62
1, 21245, Note_off_c, 0, 76, 70
1, 21319, Note_on_c, 0, 42, 66
1, 21321, Note_off_c, 0, 44, 63
1, 21331, Note_on_c, 0, 45, 65
1, 21343, Note_off_c, 0, 40, 53
1, 21418, Note_off_c, 0, 45, 59
1, 21419, Note_on_c, 0, 44, 56
1, 21424, Note_off_c, 0, 42, 62
1, 21426, Note_on_c, 0, 47, 80
1, 21445, Note_off_c, 0, 44, 60
1, 21474, Note_off_c, 0, 47, 64
1, 21483, Control_c, 0, 64, 110
1, 21498, Control_c, 0, 64, 97
1, 21513, Control_c, 0, 64, 90
1, 21513, Note_on_c, 0, 48, 97
1, 21516, Note_on_c, 0, 45, 90
1, 21521, Note_on_c, 0, 72, 106
1, 21522, Note_on_c, 0, 84, 100
1, 21528, Control_c, 0, 64, 89
1, 21550, Note_off_c, 0, 84, 62
1, 21557, Control_c, 0, 64, 90
1, 21564, Note_off_c, 0, 72, 66
1, 21572, Control_c, 0, 64, 92
1, 21587, Control_c, 0, 64, 93
1, 21601, Control_c, 0, 64, 95
1, 21607, Note_off_c, 0, 48, 57
1, 21613, Note_off_c, 0, 45, 63
1, 21616, Control_c, 0, 64, 97
1, 21621, Note_on_c, 0, 47, 72
1, 21623, Note_on_c, 0, 50, 72
1, 21631, Control_c, 0, 64, 100
1, 21646, Control_c, 0, 64, 102
1, 21661, Control_c, 0, 64, 104
1, 21675, Control_c, 0, 64, 105
1, 21703, Note_on_c, 0, 48, 77
1, 21714, Note_on_c, 0, 52, 83
1, 21725, Note_off_c, 0, 47, 38
1, 21737, Note_off_c, 0, 50, 53
1, 21749, Control_c, 0, 64, 101
1, 21753, Note_off_c, 0, 52, 64
1, 21764, Control_c, 0, 64, 91
1, 21765, Note_off_c, 0, 48, 63
1, 21779, Control_c, 0, 64, 78
1, 21801, Control_c, 0, 64, 63
1, 21816, Control_c, 0, 64, 0
1, 21823, Note_on_c, 0, 68, 111
1, 21826, Note_on_c, 0, 80, 102
1, 21830, Note_on_c, 0, 53, 91
1, 21835, Note_on_c, 0, 50, 82
1, 21846, Control_c, 0, 64, 57
1, 21856, Note_on_c, 0, 78, 49
1, 21861, Control_c, 0, 64, 67
1, 21867, Note_off_c, 0, 53, 68
1, 21873, Note_on_c, 0, 76, 16
1, 21875, Control_c, 0, 64, 71
1, 21878, Note_off_c, 0, 50, 62
1, 21881, Note_off_c, 0, 78, 40
1, 21890, Control_c, 0, 64, 73
1, 21905, Control_c, 0, 64, 75
1, 21919, Note_off_c, 0, 76, 30
1, 21920, Control_c, 0, 64, 77
1, 21929, Note_on_c, 0, 48, 80
1, 21935, Control_c, 0, 64, 79
1, 21939, Note_on_c, 0, 52, 75
1, 21949, Note_off_c, 0, 68, 55
1, 21949, Control_c, 0, 64, 82
1, 21964, Control_c, 0, 64, 83
1, 21973, Note_off_c, 0, 80, 60
1, 21979, Control_c, 0, 64, 84
1, 22013, Note_on_c, 0, 47, 67
1, 22015, Note_off_c, 0, 52, 57
1, 22024, Note_off_c, 0, 48, 38
1, 22038, Control_c, 0, 64, 82
1, 22045, Note_on_c, 0, 50, 69
1, 22050, Note_off_c, 0, 47, 64
1, 22053, Control_c, 0, 64, 74
1, 22068, Control_c, 0, 64, 60
1, 22073, Poly_aftertouch_c, 0, 76, 0
1, 22076, Note_on_c, 0, 45, 53
1, 22083, Control_c, 0, 64, 0
1, 22107, Note_on_c, 0, 69, 107
1, 22109, Note_on_c, 0, 81, 99
1, 22112, Control_c, 0, 64, 34
1, 22126, Note_off_c, 0, 50, 63
1, 22127, Control_c, 0, 64, 62
1, 22135, Note_off_c, 0, 81, 67
1, 22142, Control_c, 0, 64, 68
1, 22142, Note_on_c, 0, 48, 68
1, 22146, Note_off_c, 0, 69, 67
1, 22157, Control_c, 0, 64, 72
1, 22172, Control_c, 0, 64, 76
1, 22187, Control_c, 0, 64, 79
1, 22201, Note_on_c, 0, 47, 69
1, 22202, Control_c, 0, 64, 81
1, 22216, Note_off_c, 0, 48, 48
1, 22217, Control_c, 0, 64, 82
1, 22232, Control_c, 0, 64, 84
1, 22234, Note_on_c, 0, 50, 68
1, 22247, Control_c, 0, 64, 84
1, 22256, Note_off_c, 0, 45, 35
1, 22274, Note_off_c, 0, 47, 64
1, 22291, Note_off_c, 0, 50, 63
1, 22291, Control_c, 0, 64, 84
1, 22294, Note_on_c, 0, 52, 84
1, 22306, Control_c, 0, 64, 80
1, 22321, Control_c, 0, 64, 72
1, 22330, Note_off_c, 0, 52, 66
1, 22336, Control_c, 0, 64, 53
1, 22351, Control_c, 0, 64, 0
1, 22366, Control_c, 0, 64, 48
1, 22380, Control_c, 0, 64, 64
1, 22388, Note_on_c, 0, 66, 106
1, 22389, Note_on_c, 0, 51, 62
1, 22390, Note_on_c, 0, 54, 75
1, 22390, Note_on_c, 0, 78, 100
1, 22395, Control_c, 0, 64, 68
1, 22410, Control_c, 0, 64, 73
1, 22420, Note_on_c, 0, 50, 48
1, 22424, Control_c, 0, 64, 78
1, 22439, Control_c, 0, 64, 81
1, 22444, Note_off_c, 0, 78, 69
1, 22451, Note_off_c, 0, 50, 53
1, 22454, Control_c, 0, 64, 82
1, 22468, Note_off_c, 0, 54, 59
1, 22469, Control_c, 0, 64, 83
1, 22476, Note_off_c, 0, 66, 56
1, 22480, Note_on_c, 0, 52, 68
1, 22484, Control_c, 0, 64, 84
1, 22498, Control_c, 0, 64, 85
1, 22500, Note_on_c, 0, 56, 67
1, 22513, Control_c, 0, 64, 87
1, 22515, Note_off_c, 0, 51, 21
1, 22528, Control_c, 0, 64, 88
1, 22551, Control_c, 0, 64, 88
1, 22563, Note_on_c, 0, 54, 71
1, 22563, Note_off_c, 0, 56, 64
1, 22580, Control_c, 0, 64, 88
1, 22584, Note_on_c, 0, 70, 28
1, 22590, Note_on_c, 0, 57, 75
1, 22595, Control_c, 0, 64, 86
1, 22604, Note_off_c, 0, 52, 64
1, 22605, Note_off_c, 0, 54, 56
1, 22610, Control_c, 0, 64, 79
1, 22620, Note_off_c, 0, 70, 47
1, 22624, Control_c, 0, 64, 66
1, 22639, Control_c, 0, 64, 43
1, 22640, Note_off_c, 0, 57, 62
1, 22654, Control_c, 0, 64, 54
1, 22669, Control_c, 0, 64, 65
1, 22684, Control_c, 0, 64, 69
1, 22688, Note_on_c, 0, 56, 82
1, 22691, Note_on_c, 0, 59, 75
1, 22691, Note_on_c, 0, 64, 104
1, 22693, Note_on_c, 0, 76, 100
1, 22698, Control_c, 0, 64, 74
1, 22713, Control_c, 0, 64, 79
1, 22720, Note_off_c, 0, 76, 69
1, 22726, Note_off_c, 0, 64, 64
1, 22727, Note_on_c, 0, 73, 33
1, 22728, Note_off_c, 0, 73, 127
1, 22728, Control_c, 0, 64, 81
1, 22738, Note_off_c, 0, 59, 59
1, 22743, Control_c, 0, 64, 82
1, 22749, Note_off_c, 0, 56, 62
1, 22772, Control_c, 0, 64, 82
1, 22777, Note_on_c, 0, 57, 57
1, 22787, Control_c, 0, 64, 83
1, 22789, Note_on_c, 0, 60, 74
1, 22802, Control_c, 0, 64, 84
1, 22817, Control_c, 0, 64, 85
1, 22822, Note_off_c, 0, 57, 60
1, 22831, Control_c, 0, 64, 85
1, 22844, Note_off_c, 0, 60, 61
1, 22846, Control_c, 0, 64, 86
1, 22849, Note_on_c, 0, 59, 70
1, 22858, Note_on_c, 0, 62, 67
1, 22861, Control_c, 0, 64, 87
1, 22879, Note_off_c, 0, 62, 65
1, 22905, Control_c, 0, 64, 85
1, 22920, Control_c, 0, 64, 78
1, 22927, Note_off_c, 0, 59, 61
1, 22935, Control_c, 0, 64, 67
1, 22950, Control_c, 0, 64, 0
1, 22972, Note_on_c, 0, 60, 90
1, 22980, Note_on_c, 0, 69, 107
1, 22981, Note_on_c, 0, 64, 105
1, 22981, Control_c, 0, 64, 47
1, 22995, Control_c, 0, 64, 63
1, 23010, Control_c, 0, 64, 67
1, 23025, Control_c, 0, 64, 70
1, 23037, Note_off_c, 0, 60, 57
1, 23040, Control_c, 0, 64, 73
1, 23051, Note_off_c, 0, 64, 63
1, 23054, Control_c, 0, 64, 75
1, 23069, Control_c, 0, 64, 75
1, 23071, Note_on_c, 0, 62, 83
1, 23078, Note_on_c, 0, 59, 73
1, 23084, Control_c, 0, 64, 76
1, 23099, Control_c, 0, 64, 77
1, 23114, Control_c, 0, 64, 78
1, 23119, Note_off_c, 0, 69, 57
1, 23123, Note_off_c, 0, 59, 54
1, 23125, Note_off_c, 0, 62, 63
1, 23129, Control_c, 0, 64, 78
1, 23158, Control_c, 0, 64, 79
1, 23162, Note_on_c, 0, 57, 73
1, 23166, Note_on_c, 0, 60, 87
1, 23188, Note_off_c, 0, 57, 66
1, 23188, Note_off_c, 0, 60, 70
1, 23202, Control_c, 0, 64, 79
1, 23232, Control_c, 0, 64, 80
1, 23246, Control_c, 0, 64, 81
1, 23251, Note_on_c, 0, 59, 70
1, 23258, Note_on_c, 0, 64, 92
1, 23260, Note_on_c, 0, 76, 93
1, 23261, Control_c, 0, 64, 82
1, 23271, Note_on_c, 0, 52, 60
1, 23276, Control_c, 0, 64, 83
1, 23278, Note_off_c, 0, 76, 74
1, 23283, Note_off_c, 0, 64, 69
1, 23299, Control_c, 0, 64, 83
1, 23307, Note_off_c, 0, 59, 47
1, 23314, Control_c, 0, 64, 84
1, 23343, Control_c, 0, 64, 84
1, 23349, Note_on_c, 0, 57, 66
1, 23358, Control_c, 0, 64, 85
1, 23372, Control_c, 0, 64, 85
1, 23387, Control_c, 0, 64, 86
1, 23402, Control_c, 0, 64, 87
1, 23412, Note_on_c, 0, 56, 67
1, 23415, Note_off_c, 0, 57, 55
1, 23476, Control_c, 0, 64, 84
1, 23491, Note_off_c, 0, 56, 62
1, 23491, Control_c, 0, 64, 77
1, 23506, Control_c, 0, 64, 63
1, 23515, Note_on_c, 0, 62, 100
1, 23516, Note_on_c, 0, 59, 92
1, 23517, Note_on_c, 0, 68, 96
1, 23520, Control_c, 0, 64, 0
1, 23550, Control_c, 0, 64, 33
1, 23564, Note_off_c, 0, 52, 47
1, 23565, Control_c, 0, 64, 59
1, 23579, Note_off_c, 0, 59, 58
1, 23579, Control_c, 0, 64, 64
1, 23594, Control_c, 0, 64, 68
1, 23601, Note_off_c, 0, 62, 59
1, 23609, Control_c, 0, 64, 71
1, 23610, Note_on_c, 0, 57, 78
1, 23615, Note_on_c, 0, 60, 77
1, 23624, Control_c, 0, 64, 74
1, 23628, Note_off_c, 0, 68, 64
1, 23639, Control_c, 0, 64, 75
1, 23650, Note_off_c, 0, 57, 52
1, 23653, Control_c, 0, 64, 76
1, 23663, Note_off_c, 0, 60, 65
1, 23668, Control_c, 0, 64, 77
1, 23687, Note_on_c, 0, 56, 75
1, 23704, Note_on_c, 0, 59, 52
1, 23713, Note_off_c, 0, 56, 65
1, 23713, Control_c, 0, 64, 78
1, 23722, Note_off_c, 0, 59, 63
1, 23743, Control_c, 0, 64, 78
1, 23758, Control_c, 0, 64, 79
1, 23773, Control_c, 0, 64, 80
1, 23776, Note_on_c, 0, 57, 67
1, 23779, Note_on_c, 0, 54, 73
1, 23788, Control_c, 0, 64, 81
1, 23790, Note_on_c, 0, 76, 88
1, 23795, Note_on_c, 0, 64, 76
1, 23803, Control_c, 0, 64, 82
1, 23807, Note_off_c, 0, 76, 76
1, 23813, Note_off_c, 0, 64, 64
1, 23817, Control_c, 0, 64, 83
1, 23832, Control_c, 0, 64, 83
1, 23847, Note_off_c, 0, 57, 50
1, 23847, Control_c, 0, 64, 84
1, 23862, Control_c, 0, 64, 84
1, 23871, Note_off_c, 0, 54, 62
1, 23874, Note_on_c, 0, 51, 66
1, 23877, Control_c, 0, 64, 85
1, 23882, Note_on_c, 0, 56, 71
1, 23892, Control_c, 0, 64, 86
1, 23907, Control_c, 0, 64, 87
1, 23922, Control_c, 0, 64, 88
1, 23936, Control_c, 0, 64, 89
1, 23951, Control_c, 0, 64, 89
1, 23962, Note_on_c, 0, 54, 70
1, 23965, Note_off_c, 0, 56, 61
1, 23995, Control_c, 0, 64, 88
1, 24010, Control_c, 0, 64, 82
1, 24023, Note_on_c, 0, 57, 86
1, 24023, Note_off_c, 0, 54, 58
1, 24025, Control_c, 0, 64, 70
1, 24026, Note_on_c, 0, 60, 94
1, 24032, Note_on_c, 0, 66, 100
1, 24047, Control_c, 0, 64, 18
1, 24062, Control_c, 0, 64, 0
1, 24077, Control_c, 0, 64, 36
1, 24092, Control_c, 0, 64, 59
1, 24107, Control_c, 0, 64, 64
1, 24111, Note_off_c, 0, 60, 60
1, 24118, Note_off_c, 0, 57, 60
1, 24121, Control_c, 0, 64, 68
1, 24123, Note_on_c, 0, 56, 69
1, 24130, Note_on_c, 0, 59, 77
1, 24136, Control_c, 0, 64, 72
1, 24145, Note_off_c, 0, 66, 64
1, 24151, Control_c, 0, 64, 75
1, 24166, Control_c, 0, 64, 77
1, 24172, Note_off_c, 0, 59, 66
1, 24181, Control_c, 0, 64, 78
1, 24187, Note_off_c, 0, 56, 63
1, 24189, Note_on_c, 0, 54, 61
1, 24195, Control_c, 0, 64, 79
1, 24204, Note_on_c, 0, 57, 70
1, 24208, Note_off_c, 0, 54, 61
1, 24210, Control_c, 0, 64, 79
1, 24220, Note_off_c, 0, 51, 56
1, 24223, Note_off_c, 0, 57, 62
1, 24255, Control_c, 0, 64, 80
1, 24269, Control_c, 0, 64, 80
1, 24284, Control_c, 0, 64, 81
1, 24293, Note_on_c, 0, 56, 71
1, 24299, Control_c, 0, 64, 82
1, 24305, Note_on_c, 0, 52, 53
1, 24306, Note_on_c, 0, 76, 101
1, 24314, Control_c, 0, 64, 83
1, 24329, Control_c, 0, 64, 84
1, 24343, Control_c, 0, 64, 85
1, 24351, Note_off_c, 0, 56, 59
1, 24358, Control_c, 0, 64, 85
1, 24373, Control_c, 0, 64, 86
1, 24378, Note_off_c, 0, 52, 66
1, 24388, Control_c, 0, 64, 87
1, 24397, Note_on_c, 0, 54, 56
1, 24402, Control_c, 0, 64, 88
1, 24417, Control_c, 0, 64, 89
1, 24418, Note_on_c, 0, 49, 48
1, 24431, Note_on_c, 0, 64, 74
1, 24432, Control_c, 0, 64, 91
1, 24447, Control_c, 0, 64, 92
1, 24454, Poly_aftertouch_c, 0, 51, 127
1, 24456, Note_off_c, 0, 64, 69
1, 24462, Control_c, 0, 64, 93
1, 24471, Note_off_c, 0, 54, 60
1, 24473, Note_off_c, 0, 76, 66
1, 24476, Control_c, 0, 64, 94
1, 24479, Note_on_c, 0, 56, 68
1, 24491, Control_c, 0, 64, 94
1, 24493, Poly_aftertouch_c, 0, 51, 0
1, 24519, Note_off_c, 0, 49, 54
1, 24521, Control_c, 0, 64, 94
1, 24536, Control_c, 0, 64, 89
1, 24551, Control_c, 0, 64, 80
1, 24566, Control_c, 0, 64, 70
1, 24581, Control_c, 0, 64, 64
1, 24587, Note_on_c, 0, 54, 75
1, 24589, Note_on_c, 0, 88, 98
1, 24595, Note_on_c, 0, 76, 87
1, 24595, Note_off_c, 0, 56, 51
1, 24596, Control_c, 0, 64, 65
1, 24610, Note_on_c, 0, 49, 64
1, 24611, Control_c, 0, 64, 70
1, 24614, Note_off_c, 0, 88, 61
1, 24625, Control_c, 0, 64, 75
1, 24634, Note_off_c, 0, 76, 64
1, 24640, Control_c, 0, 64, 79
1, 24655, Control_c, 0, 64, 80
1, 24670, Control_c, 0, 64, 82
1, 24679, Note_off_c, 0, 54, 61
1, 24685, Control_c, 0, 64, 83
1, 24700, Control_c, 0, 64, 84
1, 24712, Note_off_c, 0, 49, 61
1, 24715, Control_c, 0, 64, 85
1, 24730, Control_c, 0, 64, 87
1, 24745, Control_c, 0, 64, 88
1, 24755, Note_on_c, 0, 76, 76
1, 24756, Note_on_c, 0, 77, 81
1, 24759, Note_on_c, 0, 64, 65
1, 24759, Control_c, 0, 64, 90
1, 24762, Note_on_c, 0, 65, 62
1, 24774, Control_c, 0, 64, 92
1, 24777, Note_off_c, 0, 77, 68
1, 24777, Note_off_c, 0, 76, 71
1, 24779, Note_off_c, 0, 64, 64
1, 24782, Note_off_c, 0, 65, 64
1, 24797, Control_c, 0, 64, 93
1, 24812, Control_c, 0, 64, 94
1, 24826, Control_c, 0, 64, 95
1, 24856, Control_c, 0, 64, 94
1, 24871, Control_c, 0, 64, 89
1, 24886, Control_c, 0, 64, 80
1, 24900, Note_on_c, 0, 47, 79
1, 24900, Control_c, 0, 64, 69
1, 24905, Note_on_c, 0, 51, 79
1, 24910, Note_on_c, 0, 90, 101
1, 24911, Note_on_c, 0, 78, 95
1, 24915, Control_c, 0, 64, 59
1, 24930, Control_c, 0, 64, 64
1, 24934, Note_off_c, 0, 78, 61
1, 24944, Note_off_c, 0, 90, 61
1, 24944, Control_c, 0, 64, 68
1, 24959, Control_c, 0, 64, 73
1, 24974, Control_c, 0, 64, 77
1, 24989, Control_c, 0, 64, 79
1, 24992, Note_off_c, 0, 47, 63
1, 25004, Control_c, 0, 64, 80
1, 25012, Note_off_c, 0, 51, 58
1, 25018, Note_on_c, 0, 54, 82
1, 25019, Control_c, 0, 64, 81
1, 25034, Control_c, 0, 64, 82
1, 25049, Control_c, 0, 64, 84
1, 25063, Control_c, 0, 64, 85
1, 25078, Control_c, 0, 64, 87
1, 25080, Note_on_c, 0, 78, 98
1, 25084, Note_on_c, 0, 66, 90
1, 25093, Control_c, 0, 64, 89
1, 25102, Note_off_c, 0, 66, 74
1, 25108, Control_c, 0, 64, 91
1, 25114, Note_off_c, 0, 54, 58
1, 25114, Note_on_c, 0, 47, 68
1, 25115, Note_on_c, 0, 51, 71
1, 25123, Control_c, 0, 64, 92
1, 25133, Note_on_c, 0, 79, 34
1, 25138, Control_c, 0, 64, 93
1, 25139, Note_off_c, 0, 78, 60
1, 25152, Control_c, 0, 64, 94
1, 25165, Note_off_c, 0, 79, 33
1, 25180, Note_off_c, 0, 47, 62
1, 25195, Note_off_c, 0, 51, 62
1, 25197, Control_c, 0, 64, 89
1, 25212, Control_c, 0, 64, 79
1, 25226, Control_c, 0, 64, 66
1, 25233, Note_on_c, 0, 45, 83
1, 25237, Note_on_c, 0, 49, 83
1, 25241, Control_c, 0, 64, 37
1, 25248, Note_on_c, 0, 91, 101
1, 25248, Note_on_c, 0, 79, 100
1, 25256, Control_c, 0, 64, 56
1, 25271, Control_c, 0, 64, 65
1, 25275, Note_off_c, 0, 91, 64
1, 25283, Note_off_c, 0, 79, 64
1, 25286, Control_c, 0, 64, 70
1, 25300, Control_c, 0, 64, 76
1, 25315, Control_c, 0, 64, 80
1, 25330, Control_c, 0, 64, 83
1, 25343, Note_off_c, 0, 45, 64
1, 25344, Control_c, 0, 64, 84
1, 25358, Note_off_c, 0, 49, 57
1, 25359, Note_on_c, 0, 52, 93
1, 25359, Control_c, 0, 64, 85
1, 25376, Control_c, 0, 64, 86
1, 25389, Control_c, 0, 64, 88
1, 25404, Control_c, 0, 64, 89
1, 25419, Control_c, 0, 64, 90
1, 25424, Note_on_c, 0, 79, 99
1, 25427, Note_on_c, 0, 67, 92
1, 25434, Control_c, 0, 64, 91
1, 25443, Note_off_c, 0, 67, 74
1, 25448, Control_c, 0, 64, 92
1, 25453, Note_off_c, 0, 79, 68
1, 25463, Control_c, 0, 64, 94
1, 25478, Control_c, 0, 64, 95
1, 25487, Note_on_c, 0, 49, 71
1, 25493, Note_off_c, 0, 52, 64
1, 25493, Control_c, 0, 64, 96
1, 25505, Note_on_c, 0, 45, 63
1, 25508, Control_c, 0, 64, 97
1, 25523, Control_c, 0, 64, 97
1, 25545, Control_c, 0, 64, 99
1, 25560, Control_c, 0, 64, 100
1, 25574, Control_c, 0, 64, 101
1, 25588, Note_off_c, 0, 49, 55
1, 25589, Control_c, 0, 64, 102
1, 25624, Note_off_c, 0, 45, 62
1, 25634, Control_c, 0, 64, 99
1, 25648, Note_on_c, 0, 44, 77
1, 25648, Control_c, 0, 64, 89
1, 25653, Note_on_c, 0, 48, 99
1, 25655, Note_on_c, 0, 92, 111
1, 25658, Note_on_c, 0, 80, 106
1, 25663, Control_c, 0, 64, 73
1, 25678, Control_c, 0, 64, 0
1, 25685, Note_on_c, 0, 90, 55
1, 25707, Note_on_c, 0, 93, 31
1, 25709, Note_off_c, 0, 90, 38
1, 25710, Note_on_c, 0, 82, 10
1, 25711, Note_off_c, 0, 82, 127
1, 25737, Control_c, 0, 64, 50
1, 25741, Note_off_c, 0, 93, 33
1, 25752, Control_c, 0, 64, 65
1, 25767, Control_c, 0, 64, 70
1, 25782, Control_c, 0, 64, 75
1, 25797, Control_c, 0, 64, 79
1, 25812, Control_c, 0, 64, 81
1, 25827, Control_c, 0, 64, 82
1, 25841, Control_c, 0, 64, 83
1, 25856, Control_c, 0, 64, 84
1, 25856, Note_off_c, 0, 92, 60
1, 25862, Note_off_c, 0, 80, 55
1, 25871, Control_c, 0, 64, 87
1, 25886, Control_c, 0, 64, 89
1, 25899, Note_on_c, 0, 51, 98
1, 25901, Control_c, 0, 64, 91
1, 25915, Control_c, 0, 64, 93
1, 25926, Note_off_c, 0, 48, 61
1, 25928, Note_off_c, 0, 44, 64
1, 25930, Control_c, 0, 64, 96
1, 25945, Control_c, 0, 64, 98
1, 25949, Note_off_c, 0, 51, 65
1, 25960, Control_c, 0, 64, 100
1, 25974, Control_c, 0, 64, 101
1, 25989, Control_c, 0, 64, 103
1, 26004, Control_c, 0, 64, 104
1, 26019, Control_c, 0, 64, 106
1, 26034, Control_c, 0, 64, 106
1, 26048, Control_c, 0, 64, 107
1, 26078, Control_c, 0, 64, 108
1, 26122, Control_c, 0, 64, 108
1, 26168, Control_c, 0, 64, 109
1, 26183, Control_c, 0, 64, 109
1, 26212, Control_c, 0, 64, 110
1, 26242, Control_c, 0, 64, 110
1, 26273, Note_on_c, 0, 44, 107
1, 26274, Note_on_c, 0, 32, 104
1, 26294, Control_c, 0, 64, 109
1, 26309, Control_c, 0, 64, 100
1, 26324, Control_c, 0, 64, 85
1, 26339, Control_c, 0, 64, 65
1, 26339, Note_on_c, 0, 36, 6
1, 26353, Control_c, 0, 64, 0
1, 26388, Note_off_c, 0, 36, 35
1, 26531, Control_c, 0, 64, 43
1, 26545, Control_c, 0, 64, 56
1, 26560, Control_c, 0, 64, 61
1, 26575, Control_c, 0, 64, 63
1, 26590, Control_c, 0, 64, 65
1, 26605, Control_c, 0, 64, 67
1, 26619, Control_c, 0, 64, 68
1, 26634, Control_c, 0, 64, 70
1, 26649, Control_c, 0, 64, 71
1, 26664, Control_c, 0, 64, 72
1, 26679, Control_c, 0, 64, 73
1, 26694, Control_c, 0, 64, 74
1, 26709, Control_c, 0, 64, 76
1, 26724, Control_c, 0, 64, 77
1, 26725, Note_off_c, 0, 32, 49
1, 26738, Control_c, 0, 64, 79
1, 26753, Control_c, 0, 64, 80
1, 26782, Control_c, 0, 64, 80
1, 26797, Control_c, 0, 64, 81
1, 26812, Control_c, 0, 64, 82
1, 26827, Control_c, 0, 64, 82
1, 26836, Note_off_c, 0, 44, 36
1, 26842, Control_c, 0, 64, 83
1, 26857, Control_c, 0, 64, 84
1, 26871, Control_c, 0, 64, 85
1, 26887, Control_c, 0, 64, 85
1, 26902, Control_c, 0, 64, 86
1, 26916, Control_c, 0, 64, 86
1, 26931, Control_c, 0, 64, 87
1, 26962, Control_c, 0, 64, 87
1, 26977, Control_c, 0, 64, 88
1, 27007, Control_c, 0, 64, 88
1, 27043, Control_c, 0, 64, 89
1, 27073, Control_c, 0, 64, 89
1, 27132, Control_c, 0, 64, 90
1, 27739, Control_c, 0, 64, 90
1, 27851, Control_c, 0, 64, 91
1, 27896, Control_c, 0, 64, 91
1, 27911, Control_c, 0, 64, 92
1, 27925, Control_c, 0, 64, 92
1, 27982, Note_on_c, 0, 64, 81
1, 28003, Note_on_c, 0, 68, 50
1, 28015, Control_c, 0, 64, 87
1, 28029, Control_c, 0, 64, 76
1, 28044, Control_c, 0, 64, 56
1, 28059, Control_c, 0, 64, 0
1, 28104, Control_c, 0, 64, 52
1, 28107, Note_off_c, 0, 68, 53
1, 28118, Control_c, 0, 64, 63
1, 28133, Control_c, 0, 64, 67
1, 28148, Control_c, 0, 64, 70
1, 28161, Note_on_c, 0, 69, 51
1, 28162, Control_c, 0, 64, 75
1, 28177, Control_c, 0, 64, 79
1, 28181, Poly_aftertouch_c, 0, 66, 127
1, 28192, Control_c, 0, 64, 81
1, 28207, Control_c, 0, 64, 82
1, 28212, Poly_aftertouch_c, 0, 66, 0
1, 28222, Control_c, 0, 64, 83
1, 28232, Note_off_c, 0, 69, 57
1, 28236, Control_c, 0, 64, 84
1, 28238, Note_off_c, 0, 64, 54
1, 28251, Control_c, 0, 64, 85
1, 28266, Control_c, 0, 64, 87
1, 28281, Control_c, 0, 64, 88
1, 28282, Note_on_c, 0, 68, 46
1, 28289, Note_on_c, 0, 52, 47
1, 28296, Control_c, 0, 64, 89
1, 28307, Note_off_c, 0, 68, 59
1, 28310, Note_on_c, 0, 71, 41
1, 28310, Control_c, 0, 64, 89
1, 28325, Control_c, 0, 64, 90
1, 28344, Note_off_c, 0, 71, 52
1, 28384, Control_c, 0, 64, 89
1, 28389, Note_off_c, 0, 52, 64
1, 28399, Control_c, 0, 64, 85
1, 28401, Note_on_c, 0, 60, 84
1, 28414, Control_c, 0, 64, 78
1, 28418, Note_on_c, 0, 69, 48
1, 28427, Note_on_c, 0, 72, 52
1, 28429, Control_c, 0, 64, 71
1, 28444, Control_c, 0, 64, 67
1, 28447, Note_off_c, 0, 69, 54
1, 28459, Control_c, 0, 64, 70
1, 28461, Note_off_c, 0, 72, 55
1, 28474, Control_c, 0, 64, 73
1, 28489, Control_c, 0, 64, 76
1, 28503, Control_c, 0, 64, 79
1, 28518, Control_c, 0, 64, 81
1, 28540, Control_c, 0, 64, 83
1, 28554, Note_on_c, 0, 74, 46
1, 28555, Control_c, 0, 64, 85
1, 28571, Control_c, 0, 64, 86
1, 28584, Note_off_c, 0, 74, 62
1, 28586, Note_off_c, 0, 60, 49
1, 28586, Control_c, 0, 64, 87
1, 28600, Control_c, 0, 64, 88
1, 28614, Poly_aftertouch_c, 0, 71, 0
1, 28615, Control_c, 0, 64, 89
1, 28620, Note_on_c, 0, 48, 61
1, 28630, Control_c, 0, 64, 91
1, 28645, Control_c, 0, 64, 92
1, 28651, Note_on_c, 0, 72, 58
1, 28655, Note_on_c, 0, 76, 60
1, 28659, Control_c, 0, 64, 93
1, 28679, Note_off_c, 0, 72, 56
1, 28682, Note_off_c, 0, 76, 69
1, 28683, Note_off_c, 0, 48, 62
1, 28704, Control_c, 0, 64, 92
1, 28719, Control_c, 0, 64, 87
1, 28734, Control_c, 0, 64, 79
1, 28748, Control_c, 0, 64, 70
1, 28751, Note_on_c, 0, 56, 88
1, 28762, Note_on_c, 0, 77, 68
1, 28763, Control_c, 0, 64, 68
1, 28776, Note_on_c, 0, 74, 53
1, 28778, Control_c, 0, 64, 71
1, 28793, Control_c, 0, 64, 75
1, 28803, Note_off_c, 0, 74, 63
1, 28807, Control_c, 0, 64, 78
1, 28822, Control_c, 0, 64, 81
1, 28837, Control_c, 0, 64, 83
1, 28852, Control_c, 0, 64, 85
1, 28864, Note_off_c, 0, 77, 35
1, 28867, Note_on_c, 0, 72, 68
1, 28867, Control_c, 0, 64, 86
1, 28879, Note_on_c, 0, 76, 49
1, 28882, Control_c, 0, 64, 87
1, 28897, Control_c, 0, 64, 89
1, 28900, Note_off_c, 0, 76, 58
1, 28912, Control_c, 0, 64, 90
1, 28913, Note_off_c, 0, 56, 56
1, 28918, Note_off_c, 0, 72, 62
1, 28927, Control_c, 0, 64, 92
1, 28936, Note_on_c, 0, 44, 68
1, 28941, Control_c, 0, 64, 94
1, 28956, Control_c, 0, 64, 95
1, 28971, Control_c, 0, 64, 95
1, 28980, Note_on_c, 0, 71, 62
1, 28981, Note_on_c, 0, 74, 60
1, 29003, Note_off_c, 0, 71, 61
1, 29013, Note_off_c, 0, 44, 60
1, 29015, Control_c, 0, 64, 95
1, 29023, Note_off_c, 0, 74, 60
1, 29030, Control_c, 0, 64, 91
1, 29045, Control_c, 0, 64, 84
1, 29059, Control_c, 0, 64, 76
1, 29070, Note_on_c, 0, 57, 97
1, 29074, Control_c, 0, 64, 70
1, 29084, Note_on_c, 0, 69, 67
1, 29085, Note_on_c, 0, 72, 70
1, 29089, Control_c, 0, 64, 69
1, 29104, Control_c, 0, 64, 71
1, 29109, Note_off_c, 0, 72, 70
1, 29118, Control_c, 0, 64, 75
1, 29124, Note_off_c, 0, 69, 59
1, 29132, Control_c, 0, 64, 78
1, 29147, Control_c, 0, 64, 80
1, 29162, Control_c, 0, 64, 81
1, 29175, Poly_aftertouch_c, 0, 52, 127
1, 29177, Control_c, 0, 64, 83
1, 29191, Note_on_c, 0, 71, 53
1, 29191, Note_on_c, 0, 74, 63
1, 29192, Control_c, 0, 64, 86
1, 29207, Control_c, 0, 64, 88
1, 29211, Note_off_c, 0, 71, 58
1, 29222, Control_c, 0, 64, 90
1, 29225, Note_off_c, 0, 74, 63
1, 29232, Note_off_c, 0, 57, 58
1, 29237, Control_c, 0, 64, 93
1, 29242, Note_on_c, 0, 45, 68
1, 29252, Control_c, 0, 64, 95
1, 29258, Poly_aftertouch_c, 0, 52, 0
1, 29266, Control_c, 0, 64, 98
1, 29288, Control_c, 0, 64, 101
1, 29291, Note_on_c, 0, 76, 71
1, 29296, Note_on_c, 0, 72, 57
1, 29298, Note_off_c, 0, 45, 62
1, 29303, Control_c, 0, 64, 104
1, 29313, Note_off_c, 0, 72, 64
1, 29314, Note_off_c, 0, 76, 70
1, 29317, Control_c, 0, 64, 106
1, 29363, Control_c, 0, 64, 104
1, 29378, Control_c, 0, 64, 96
1, 29383, Note_on_c, 0, 54, 96
1, 29393, Control_c, 0, 64, 84
1, 29402, Note_on_c, 0, 80, 69
1, 29407, Note_on_c, 0, 74, 54
1, 29407, Control_c, 0, 64, 72
1, 29419, Note_off_c, 0, 80, 64
1, 29422, Control_c, 0, 64, 69
1, 29425, Note_off_c, 0, 74, 63
1, 29437, Control_c, 0, 64, 70
1, 29452, Control_c, 0, 64, 74
1, 29467, Control_c, 0, 64, 79
1, 29481, Control_c, 0, 64, 83
1, 29495, Note_on_c, 0, 80, 68
1, 29496, Control_c, 0, 64, 85
1, 29506, Note_on_c, 0, 76, 66
1, 29511, Control_c, 0, 64, 88
1, 29516, Note_on_c, 0, 81, 65
1, 29517, Note_off_c, 0, 54, 56
1, 29526, Control_c, 0, 64, 90
1, 29532, Note_off_c, 0, 80, 61
1, 29533, Note_off_c, 0, 81, 63
1, 29538, Note_off_c, 0, 76, 60
1, 29541, Control_c, 0, 64, 93
1, 29544, Note_on_c, 0, 42, 73
1, 29556, Control_c, 0, 64, 96
1, 29571, Control_c, 0, 64, 98
1, 29585, Control_c, 0, 64, 100
1, 29597, Note_on_c, 0, 81, 70
1, 29600, Note_on_c, 0, 83, 72
1, 29600, Control_c, 0, 64, 101
1, 29618, Note_off_c, 0, 42, 59
1, 29622, Note_off_c, 0, 81, 67
1, 29624, Note_off_c, 0, 83, 65
1, 29630, Control_c, 0, 64, 100
1, 29645, Control_c, 0, 64, 93
1, 29660, Note_on_c, 0, 52, 104
1, 29660, Control_c, 0, 64, 82
1, 29675, Control_c, 0, 64, 71
1, 29689, Note_on_c, 0, 80, 77
1, 29689, Control_c, 0, 64, 65
1, 29696, Note_on_c, 0, 83, 71
1, 29704, Control_c, 0, 64, 68
1, 29710, Note_off_c, 0, 80, 56
1, 29719, Note_on_c, 0, 81, 52
1, 29719, Control_c, 0, 64, 74
1, 29726, Note_off_c, 0, 83, 63
1, 29733, Control_c, 0, 64, 79
1, 29740, Note_off_c, 0, 81, 40
1, 29748, Control_c, 0, 64, 83
1, 29763, Control_c, 0, 64, 85
1, 29778, Control_c, 0, 64, 86
1, 29780, Note_on_c, 0, 84, 91
1, 29781, Note_off_c, 0, 52, 57
1, 29787, Note_on_c, 0, 81, 88
1, 29793, Control_c, 0, 64, 88
1, 29807, Control_c, 0, 64, 90
1, 29809, Note_off_c, 0, 81, 61
1, 29815, Note_on_c, 0, 40, 69
1, 29822, Note_off_c, 0, 84, 64
1, 29822, Control_c, 0, 64, 92
1, 29837, Control_c, 0, 64, 95
1, 29845, Note_off_c, 0, 40, 66
1, 29852, Control_c, 0, 64, 98
1, 29867, Control_c, 0, 64, 101
1, 29868, Note_on_c, 0, 86, 95
1, 29869, Note_on_c, 0, 83, 89
1, 29882, Control_c, 0, 64, 105
1, 29897, Control_c, 0, 64, 108
1, 29912, Control_c, 0, 64, 111
1, 29913, Note_off_c, 0, 83, 55
1, 29927, Control_c, 0, 64, 111
1, 29937, Note_off_c, 0, 86, 64
1, 29956, Control_c, 0, 64, 106
1, 29971, Control_c, 0, 64, 93
1, 29979, Note_on_c, 0, 45, 113
1, 29986, Control_c, 0, 64, 75
1, 29988, Note_on_c, 0, 88, 90
1, 29992, Note_on_c, 0, 84, 85
1, 30001, Control_c, 0, 64, 56
1, 30015, Control_c, 0, 64, 0
1, 30038, Control_c, 0, 64, 58
1, 30051, Note_off_c, 0, 84, 66
1, 30053, Control_c, 0, 64, 68
1, 30068, Control_c, 0, 64, 74
1, 30083, Control_c, 0, 64, 82
1, 30097, Control_c, 0, 64, 85
1, 30112, Control_c, 0, 64, 87
1, 30127, Control_c, 0, 64, 90
1, 30128, Note_on_c, 0, 83, 73
1, 30128, Note_off_c, 0, 88, 56
1, 30131, Note_on_c, 0, 86, 76
1, 30141, Control_c, 0, 64, 93
1, 30156, Control_c, 0, 64, 98
1, 30167, Note_on_c, 0, 33, 60
1, 30170, Note_off_c, 0, 83, 51
1, 30172, Control_c, 0, 64, 103
1, 30182, Note_off_c, 0, 45, 58
1, 30187, Control_c, 0, 64, 106
1, 30196, Note_off_c, 0, 33, 63
1, 30202, Control_c, 0, 64, 108
1, 30207, Note_on_c, 0, 84, 76
1, 30218, Note_on_c, 0, 81, 71
1, 30226, Note_off_c, 0, 86, 62
1, 30232, Control_c, 0, 64, 106
1, 30232, Note_off_c, 0, 84, 66
1, 30246, Control_c, 0, 64, 99
1, 30253, Note_off_c, 0, 81, 60
1, 30261, Control_c, 0, 64, 88
1, 30276, Control_c, 0, 64, 75
1, 30291, Control_c, 0, 64, 68
1, 30292, Note_on_c, 0, 52, 96
1, 30306, Control_c, 0, 64, 69
1, 30314, Note_on_c, 0, 80, 80
1, 30315, Note_on_c, 0, 83, 80
1, 30320, Control_c, 0, 64, 75
1, 30335, Control_c, 0, 64, 83
1, 30350, Control_c, 0, 64, 89
1, 30351, Note_off_c, 0, 80, 64
1, 30364, Control_c, 0, 64, 92
1, 30379, Control_c, 0, 64, 94
1, 30380, Note_off_c, 0, 83, 52
1, 30394, Control_c, 0, 64, 96
1, 30408, Note_on_c, 0, 78, 84
1, 30409, Control_c, 0, 64, 99
1, 30414, Note_off_c, 0, 52, 56
1, 30419, Note_on_c, 0, 81, 78
1, 30424, Control_c, 0, 64, 102
1, 30438, Control_c, 0, 64, 107
1, 30453, Control_c, 0, 64, 112
1, 30454, Note_off_c, 0, 78, 63
1, 30459, Note_on_c, 0, 40, 66
1, 30468, Control_c, 0, 64, 117
1, 30483, Control_c, 0, 64, 123
1, 30489, Note_off_c, 0, 40, 65
1, 30497, Note_on_c, 0, 80, 82
1, 30498, Control_c, 0, 64, 127
1, 30511, Note_on_c, 0, 74, 47
1, 30517, Note_off_c, 0, 81, 62
1, 30520, Note_on_c, 0, 76, 45
1, 30533, Note_off_c, 0, 74, 62
1, 30536, Note_off_c, 0, 80, 61
1, 30542, Control_c, 0, 64, 117
1, 30545, Note_off_c, 0, 76, 51
1, 30557, Control_c, 0, 64, 98
1, 30572, Control_c, 0, 64, 83
1, 30587, Control_c, 0, 64, 70
1, 30589, Note_on_c, 0, 44, 105
1, 30599, Note_on_c, 0, 83, 88
1, 30602, Control_c, 0, 64, 63
1, 30603, Note_on_c, 0, 86, 92
1, 30617, Control_c, 0, 64, 67
1, 30632, Control_c, 0, 64, 75
1, 30644, Note_off_c, 0, 83, 61
1, 30646, Control_c, 0, 64, 84
1, 30661, Control_c, 0, 64, 91
1, 30676, Control_c, 0, 64, 92
1, 30691, Control_c, 0, 64, 94
1, 30700, Note_on_c, 0, 81, 86
1, 30705, Control_c, 0, 64, 96
1, 30708, Note_on_c, 0, 84, 75
1, 30713, Note_off_c, 0, 86, 61
1, 30720, Control_c, 0, 64, 99
1, 30735, Control_c, 0, 64, 103
1, 30739, Note_off_c, 0, 84, 63
1, 30748, Note_off_c, 0, 44, 57
1, 30750, Control_c, 0, 64, 108
1, 30757, Note_off_c, 0, 81, 62
1, 30760, Note_on_c, 0, 32, 63
1, 30764, Control_c, 0, 64, 112
1, 30787, Control_c, 0, 64, 116
1, 30800, Note_off_c, 0, 32, 61
1, 30802, Control_c, 0, 64, 118
1, 30817, Control_c, 0, 64, 118
1, 30827, Note_on_c, 0, 83, 80
1, 30832, Control_c, 0, 64, 118
1, 30834, Note_on_c, 0, 80, 57
1, 30846, Control_c, 0, 64, 110
1, 30854, Note_off_c, 0, 80, 60
1, 30861, Control_c, 0, 64, 98
1, 30869, Note_off_c, 0, 83, 60
1, 30876, Control_c, 0, 64, 86
1, 30890, Note_on_c, 0, 52, 96
1, 30891, Control_c, 0, 64, 75
1, 30900, Note_on_c, 0, 83, 60
1, 30906, Control_c, 0, 64, 70
1, 30909, Note_on_c, 0, 78, 90
1, 30921, Note_on_c, 0, 81, 76
1, 30921, Control_c, 0, 64, 71
1, 30936, Control_c, 0, 64, 75
1, 30942, Note_off_c, 0, 83, 61
1, 30951, Control_c, 0, 64, 81
1, 30961, Note_off_c, 0, 78, 64
1, 30966, Control_c, 0, 64, 84
1, 30981, Control_c, 0, 64, 87
1, 30995, Control_c, 0, 64, 90
1, 31000, Note_on_c, 0, 80, 69
1, 31000, Note_off_c, 0, 52, 55
1, 31010, Control_c, 0, 64, 93
1, 31025, Control_c, 0, 64, 97
1, 31032, Note_off_c, 0, 81, 60
1, 31034, Note_on_c, 0, 76, 37
1, 31040, Control_c, 0, 64, 102
1, 31047, Note_on_c, 0, 40, 77
1, 31055, Control_c, 0, 64, 106
1, 31064, Note_off_c, 0, 76, 49
1, 31070, Control_c, 0, 64, 110
1, 31070, Note_off_c, 0, 80, 64
1, 31075, Note_off_c, 0, 40, 66
1, 31085, Control_c, 0, 64, 114
1, 31100, Control_c, 0, 64, 119
1, 31103, Note_on_c, 0, 78, 72
1, 31108, Note_on_c, 0, 75, 86
1, 31115, Control_c, 0, 64, 126
1, 31130, Control_c, 0, 64, 127
1, 31156, Note_off_c, 0, 75, 63
1, 31159, Control_c, 0, 64, 119
1, 31168, Note_off_c, 0, 78, 64
1, 31174, Control_c, 0, 64, 103
1, 31188, Control_c, 0, 64, 88
1, 31203, Control_c, 0, 64, 72
1, 31210, Note_on_c, 0, 42, 98
1, 31216, Note_on_c, 0, 81, 86
1, 31218, Note_on_c, 0, 84, 93
1, 31218, Control_c, 0, 64, 59
1, 31233, Control_c, 0, 64, 63
1, 31248, Control_c, 0, 64, 70
1, 31262, Control_c, 0, 64, 78
1, 31273, Note_off_c, 0, 81, 60
1, 31277, Control_c, 0, 64, 86
1, 31292, Control_c, 0, 64, 89
1, 31307, Control_c, 0, 64, 90
1, 31322, Control_c, 0, 64, 92
1, 31323, Note_off_c, 0, 84, 59
1, 31336, Control_c, 0, 64, 94
1, 31338, Note_on_c, 0, 80, 73
1, 31339, Note_on_c, 0, 83, 73
1, 31351, Control_c, 0, 64, 96
1, 31362, Note_off_c, 0, 42, 57
1, 31366, Control_c, 0, 64, 99
1, 31367, Note_on_c, 0, 30, 69
1, 31380, Control_c, 0, 64, 101
1, 31391, Note_off_c, 0, 80, 62
1, 31392, Note_off_c, 0, 30, 64
1, 31395, Control_c, 0, 64, 102
1, 31410, Control_c, 0, 64, 103
1, 31425, Control_c, 0, 64, 104
1, 31429, Note_on_c, 0, 81, 83
1, 31437, Note_on_c, 0, 78, 90
1, 31440, Control_c, 0, 64, 104
1, 31441, Note_off_c, 0, 83, 57
1, 31455, Control_c, 0, 64, 105
1, 31469, Note_off_c, 0, 81, 58
1, 31469, Control_c, 0, 64, 105
1, 31485, Note_off_c, 0, 78, 64
1, 31514, Note_on_c, 0, 52, 94
1, 31543, Note_on_c, 0, 80, 82
1, 31547, Note_on_c, 0, 76, 77
1, 31551, Control_c, 0, 64, 106
1, 31584, Note_off_c, 0, 76, 63
1, 31610, Control_c, 0, 64, 106
1, 31612, Poly_aftertouch_c, 0, 40, 127
1, 31616, Note_off_c, 0, 52, 51
1, 31625, Control_c, 0, 64, 107
1, 31635, Note_on_c, 0, 78, 85
1, 31640, Control_c, 0, 64, 108
1, 31645, Note_on_c, 0, 75, 79
1, 31648, Poly_aftertouch_c, 0, 40, 0
1, 31655, Control_c, 0, 64, 110
1, 31667, Note_off_c, 0, 80, 62
1, 31669, Control_c, 0, 64, 112
1, 31672, Note_on_c, 0, 40, 68
1, 31672, Note_off_c, 0, 75, 64
1, 31684, Control_c, 0, 64, 114
1, 31693, Note_off_c, 0, 78, 61
1, 31699, Control_c, 0, 64, 114
1, 31714, Control_c, 0, 64, 115
1, 31732, Note_on_c, 0, 73, 84
1, 31736, Note_off_c, 0, 40, 63
1, 31738, Note_on_c, 0, 76, 73
1, 31744, Control_c, 0, 64, 113
1, 31759, Control_c, 0, 64, 104
1, 31774, Control_c, 0, 64, 90
1, 31775, Note_off_c, 0, 73, 64
1, 31789, Control_c, 0, 64, 75
1, 31790, Note_off_c, 0, 76, 67
1, 31804, Control_c, 0, 64, 62
1, 31818, Control_c, 0, 64, 64
1, 31833, Control_c, 0, 64, 69
1, 31836, Note_on_c, 0, 52, 110
1, 31842, Note_on_c, 0, 40, 96
1, 31848, Control_c, 0, 64, 75
1, 31863, Control_c, 0, 64, 83
1, 31878, Note_on_c, 0, 80, 86
1, 31878, Note_on_c, 0, 88, 90
1, 31878, Control_c, 0, 64, 89
1, 31893, Note_off_c, 0, 52, 64
1, 31893, Control_c, 0, 64, 92
1, 31908, Control_c, 0, 64, 94
1, 31915, Poly_aftertouch_c, 0, 48, 127
1, 31923, Control_c, 0, 64, 96
1, 31923, Note_off_c, 0, 80, 63
1, 31924, Poly_aftertouch_c, 0, 43, 127
1, 31926, Note_off_c, 0, 40, 65
1, 31937, Control_c, 0, 64, 98
1, 31952, Poly_aftertouch_c, 0, 48, 0
1, 31952, Control_c, 0, 64, 99
1, 31956, Note_off_c, 0, 88, 62
1, 31965, Poly_aftertouch_c, 0, 43, 0
1, 31967, Control_c, 0, 64, 101
1, 31982, Control_c, 0, 64, 103
1, 31997, Control_c, 0, 64, 106
1, 32000, Note_on_c, 0, 87, 88
1, 32005, Note_on_c, 0, 78, 79
1, 32012, Control_c, 0, 64, 109
1, 32027, Control_c, 0, 64, 113
1, 32033, Note_off_c, 0, 78, 61
1, 32042, Control_c, 0, 64, 117
1, 32048, Note_off_c, 0, 87, 63
1, 32057, Control_c, 0, 64, 121
1, 32072, Control_c, 0, 64, 123
1, 32078, Note_on_c, 0, 40, 78
1, 32083, Note_on_c, 0, 28, 62
1, 32099, Note_off_c, 0, 40, 66
1, 32101, Control_c, 0, 64, 120
1, 32107, Note_on_c, 0, 85, 90
1, 32110, Note_on_c, 0, 30, 21
1, 32113, Note_off_c, 0, 28, 57
1, 32116, Control_c, 0, 64, 109
1, 32121, Note_on_c, 0, 76, 69
1, 32130, Control_c, 0, 64, 96
1, 32137, Note_off_c, 0, 76, 69
1, 32145, Control_c, 0, 64, 83
1, 32149, Note_off_c, 0, 30, 50
1, 32153, Note_off_c, 0, 85, 63
1, 32160, Control_c, 0, 64, 74
1, 32175, Control_c, 0, 64, 72
1, 32185, Poly_aftertouch_c, 0, 29, 0
1, 32190, Control_c, 0, 64, 74
1, 32204, Control_c, 0, 64, 79
1, 32209, Note_on_c, 0, 54, 100
1, 32209, Note_on_c, 0, 83, 98
1, 32210, Note_on_c, 0, 42, 96
1, 32217, Note_on_c, 0, 75, 93
1, 32219, Control_c, 0, 64, 85
1, 32227, Note_off_c, 0, 54, 71
1, 32234, Control_c, 0, 64, 88
1, 32244, Note_off_c, 0, 42, 65
1, 32249, Control_c, 0, 64, 91
1, 32255, Note_off_c, 0, 75, 56
1, 32264, Control_c, 0, 64, 95
1, 32266, Note_off_c, 0, 83, 56
1, 32286, Control_c, 0, 64, 101
1, 32301, Control_c, 0, 64, 108
1, 32316, Control_c, 0, 64, 114
1, 32326, Note_on_c, 0, 85, 89
1, 32331, Control_c, 0, 64, 119
1, 32337, Note_on_c, 0, 76, 65
1, 32339, Note_on_c, 0, 83, 45
1, 32345, Control_c, 0, 64, 124
1, 32355, Note_off_c, 0, 76, 67
1, 32360, Note_off_c, 0, 83, 58
1, 32360, Control_c, 0, 64, 127
1, 32384, Note_off_c, 0, 85, 60
1, 32398, Note_on_c, 0, 42, 97
1, 32402, Note_on_c, 0, 30, 87
1, 32405, Control_c, 0, 64, 124
1, 32419, Control_c, 0, 64, 108
1, 32423, Note_off_c, 0, 42, 67
1, 32426, Note_on_c, 0, 83, 85
1, 32432, Note_off_c, 0, 30, 63
1, 32434, Control_c, 0, 64, 92
1, 32449, Control_c, 0, 64, 78
1, 32464, Control_c, 0, 64, 69
1, 32479, Control_c, 0, 64, 68
1, 32486, Note_off_c, 0, 83, 60
1, 32493, Control_c, 0, 64, 74
1, 32508, Control_c, 0, 64, 82
1, 32523, Control_c, 0, 64, 89
1, 32537, Note_on_c, 0, 55, 101
1, 32537, Control_c, 0, 64, 93
1, 32541, Note_on_c, 0, 43, 93
1, 32551, Note_on_c, 0, 81, 102
1, 32552, Control_c, 0, 64, 95
1, 32556, Note_off_c, 0, 55, 75
1, 32558, Note_on_c, 0, 73, 95
1, 32568, Control_c, 0, 64, 97
1, 32572, Note_off_c, 0, 43, 65
1, 32581, Note_off_c, 0, 73, 63
1, 32583, Control_c, 0, 64, 99
1, 32587, Note_on_c, 0, 46, 19
1, 32598, Control_c, 0, 64, 101
1, 32602, Note_off_c, 0, 81, 62
1, 32613, Control_c, 0, 64, 103
1, 32628, Control_c, 0, 64, 104
1, 32633, Note_off_c, 0, 46, 39
1, 32642, Control_c, 0, 64, 105
1, 32657, Note_on_c, 0, 80, 89
1, 32657, Control_c, 0, 64, 105
1, 32668, Note_on_c, 0, 72, 87
1, 32687, Control_c, 0, 64, 106
1, 32693, Note_off_c, 0, 72, 64
1, 32710, Note_off_c, 0, 80, 66
1, 32716, Control_c, 0, 64, 106
1, 32729, Note_on_c, 0, 43, 100
1, 32737, Note_on_c, 0, 31, 78
1, 32752, Note_off_c, 0, 43, 68
1, 32762, Note_off_c, 0, 31, 60
1, 32772, Note_on_c, 0, 33, 33
1, 32793, Note_on_c, 0, 81, 105
1, 32805, Note_on_c, 0, 72, 80
1, 32812, Note_off_c, 0, 33, 50
1, 32829, Note_off_c, 0, 72, 70
1, 32939, Control_c, 0, 64, 105
1, 32945, Note_off_c, 0, 81, 55
1, 32953, Control_c, 0, 64, 94
1, 32961, Note_on_c, 0, 56, 108
1, 32961, Note_on_c, 0, 80, 98
1, 32963, Note_on_c, 0, 72, 90
1, 32965, Note_on_c, 0, 44, 96
1, 32968, Control_c, 0, 64, 78
1, 32983, Control_c, 0, 64, 46
1, 32998, Control_c, 0, 64, 0
1, 33008, Note_on_c, 0, 48, 5
1, 33079, Note_off_c, 0, 48, 44
1, 33088, Note_off_c, 0, 72, 58
1, 33124, Control_c, 0, 64, 21
1, 33134, Note_on_c, 0, 75, 88
1, 33139, Control_c, 0, 64, 31
1, 33154, Control_c, 0, 64, 42
1, 33168, Control_c, 0, 64, 52
1, 33183, Control_c, 0, 64, 60
1, 33198, Control_c, 0, 64, 63
1, 33213, Control_c, 0, 64, 65
1, 33228, Control_c, 0, 64, 66
1, 33229, Note_off_c, 0, 80, 57
1, 33242, Control_c, 0, 64, 69
1, 33257, Control_c, 0, 64, 72
1, 33272, Control_c, 0, 64, 77
1, 33286, Control_c, 0, 64, 82
1, 33293, Note_on_c, 0, 68, 106
1, 33301, Control_c, 0, 64, 86
1, 33316, Control_c, 0, 64, 88
1, 33318, Note_off_c, 0, 75, 68
1, 33331, Control_c, 0, 64, 90
1, 33332, Note_off_c, 0, 68, 68
1, 33346, Control_c, 0, 64, 91
1, 33362, Control_c, 0, 64, 92
1, 33377, Control_c, 0, 64, 92
1, 33389, Note_off_c, 0, 56, 62
1, 33404, Note_off_c, 0, 44, 56
1, 33406, Control_c, 0, 64, 93
1, 33421, Control_c, 0, 64, 93
1, 33451, Control_c, 0, 64, 94
1, 33495, Control_c, 0, 64, 94
1, 33613, Control_c, 0, 64, 93
1, 33628, Control_c, 0, 64, 86
1, 33643, Control_c, 0, 64, 75
1, 33647, Note_on_c, 0, 93, 105
1, 33652, Note_on_c, 0, 45, 64
1, 33654, Note_on_c, 0, 49, 66
1, 33657, Control_c, 0, 64, 63
1, 33672, Control_c, 0, 64, 35
1, 33687, Control_c, 0, 64, 55
1, 33702, Control_c, 0, 64, 63
1, 33717, Control_c, 0, 64, 66
1, 33732, Control_c, 0, 64, 69
1, 33733, Note_off_c, 0, 45, 61
1, 33747, Control_c, 0, 64, 73
1, 33753, Note_off_c, 0, 49, 60
1, 33762, Control_c, 0, 64, 77
1, 33783, Note_on_c, 0, 47, 60
1, 33783, Control_c, 0, 64, 79
1, 33793, Note_on_c, 0, 50, 63
1, 33798, Control_c, 0, 64, 81
1, 33813, Control_c, 0, 64, 82
1, 33828, Control_c, 0, 64, 83
1, 33843, Control_c, 0, 64, 84
1, 33857, Control_c, 0, 64, 84
1, 33862, Note_off_c, 0, 93, 58
1, 33872, Note_off_c, 0, 50, 61
1, 33883, Note_on_c, 0, 52, 73
1, 33885, Note_on_c, 0, 81, 92
1, 33886, Note_off_c, 0, 47, 55
1, 33887, Note_on_c, 0, 86, 34
1, 33902, Control_c, 0, 64, 83
1, 33917, Control_c, 0, 64, 77
1, 33921, Note_off_c, 0, 86, 42
1, 33925, Note_off_c, 0, 52, 65
1, 33932, Control_c, 0, 64, 67
1, 33942, Note_off_c, 0, 81, 63
1, 33947, Control_c, 0, 64, 56
1, 33961, Control_c, 0, 64, 58
1, 33962, Poly_aftertouch_c, 0, 49, 0
1, 33976, Control_c, 0, 64, 64
1, 33988, Note_on_c, 0, 53, 83
1, 33991, Control_c, 0, 64, 68
1, 33994, Note_on_c, 0, 50, 73
1, 33995, Note_on_c, 0, 89, 101
1, 34006, Control_c, 0, 64, 72
1, 34021, Control_c, 0, 64, 75
1, 34036, Control_c, 0, 64, 77
1, 34041, Note_off_c, 0, 50, 57
1, 34051, Control_c, 0, 64, 79
1, 34065, Control_c, 0, 64, 80
1, 34078, Note_off_c, 0, 53, 60
1, 34080, Control_c, 0, 64, 81
1, 34095, Control_c, 0, 64, 82
1, 34103, Note_on_c, 0, 55, 71
1, 34108, Note_on_c, 0, 52, 67
1, 34109, Control_c, 0, 64, 83
1, 34124, Control_c, 0, 64, 84
1, 34139, Control_c, 0, 64, 86
1, 34152, Note_off_c, 0, 52, 53
1, 34155, Control_c, 0, 64, 87
1, 34158, Note_off_c, 0, 89, 62
1, 34170, Control_c, 0, 64, 88
1, 34173, Note_on_c, 0, 57, 77
1, 34182, Note_on_c, 0, 77, 90
1, 34185, Note_on_c, 0, 53, 70
1, 34203, Note_off_c, 0, 57, 63
1, 34214, Control_c, 0, 64, 87
1, 34229, Control_c, 0, 64, 82
1, 34238, Note_off_c, 0, 77, 63
1, 34244, Control_c, 0, 64, 72
1, 34259, Control_c, 0, 64, 57
1, 34263, Note_off_c, 0, 53, 64
1, 34272, Note_off_c, 0, 55, 0
1, 34274, Control_c, 0, 64, 0
1, 34286, Note_on_c, 0, 58, 95
1, 34288, Control_c, 0, 64, 45
1, 34289, Note_on_c, 0, 55, 56
1, 34289, Note_on_c, 0, 85, 93
1, 34303, Control_c, 0, 64, 63
1, 34318, Note_on_c, 0, 82, 53
1, 34318, Control_c, 0, 64, 67
1, 34332, Control_c, 0, 64, 71
1, 34340, Note_off_c, 0, 82, 58
1, 34342, Note_off_c, 0, 58, 60
1, 34347, Control_c, 0, 64, 74
1, 34357, Note_off_c, 0, 55, 60
1, 34362, Control_c, 0, 64, 77
1, 34377, Control_c, 0, 64, 79
1, 34392, Control_c, 0, 64, 80
1, 34396, Note_on_c, 0, 53, 77
1, 34407, Note_on_c, 0, 57, 66
1, 34407, Control_c, 0, 64, 82
1, 34422, Control_c, 0, 64, 84
1, 34437, Control_c, 0, 64, 85
1, 34452, Control_c, 0, 64, 86
1, 34466, Note_off_c, 0, 53, 59
1, 34467, Control_c, 0, 64, 86
1, 34490, Note_on_c, 0, 73, 88
1, 34492, Note_on_c, 0, 52, 63
1, 34501, Note_off_c, 0, 57, 57
1, 34503, Note_off_c, 0, 85, 40
1, 34511, Control_c, 0, 64, 84
1, 34533, Control_c, 0, 64, 76
1, 34540, Note_off_c, 0, 73, 63
1, 34543, Note_on_c, 0, 55, 48
1, 34548, Control_c, 0, 64, 63
1, 34549, Note_off_c, 0, 52, 65
1, 34563, Control_c, 0, 64, 0
1, 34579, Note_on_c, 0, 50, 75
1, 34593, Control_c, 0, 64, 53
1, 34596, Note_on_c, 0, 86, 103
1, 34607, Control_c, 0, 64, 64
1, 34610, Note_on_c, 0, 53, 65
1, 34618, Note_off_c, 0, 55, 64
1, 34622, Control_c, 0, 64, 68
1, 34628, Note_on_c, 0, 81, 46
1, 34637, Control_c, 0, 64, 73
1, 34652, Control_c, 0, 64, 77
1, 34657, Note_off_c, 0, 50, 59
1, 34659, Note_off_c, 0, 81, 48
1, 34667, Control_c, 0, 64, 79
1, 34681, Control_c, 0, 64, 80
1, 34696, Control_c, 0, 64, 81
1, 34699, Note_off_c, 0, 53, 62
1, 34711, Control_c, 0, 64, 82
1, 34713, Note_on_c, 0, 52, 64
1, 34726, Control_c, 0, 64, 82
1, 34728, Note_on_c, 0, 55, 62
1, 34740, Control_c, 0, 64, 83
1, 34755, Control_c, 0, 64, 84
1, 34762, Note_off_c, 0, 86, 59
1, 34770, Control_c, 0, 64, 84
1, 34777, Note_off_c, 0, 52, 65
1, 34781, Note_off_c, 0, 55, 63
1, 34790, Note_on_c, 0, 74, 76
1, 34800, Control_c, 0, 64, 84
1, 34805, Note_on_c, 0, 57, 64
1, 34815, Control_c, 0, 64, 81
1, 34829, Note_off_c, 0, 57, 64
1, 34830, Control_c, 0, 64, 74
1, 34843, Note_off_c, 0, 74, 62
1, 34845, Control_c, 0, 64, 63
1, 34860, Control_c, 0, 64, 10
1, 34875, Control_c, 0, 64, 46
1, 34884, Note_on_c, 0, 59, 77
1, 34886, Note_on_c, 0, 55, 78
1, 34889, Note_on_c, 0, 83, 96
1, 34889, Control_c, 0, 64, 62
1, 34904, Control_c, 0, 64, 66
1, 34919, Control_c, 0, 64, 70
1, 34928, Note_off_c, 0, 55, 53
1, 34933, Control_c, 0, 64, 75
1, 34948, Control_c, 0, 64, 78
1, 34952, Note_off_c, 0, 59, 57
1, 34964, Control_c, 0, 64, 79
1, 34979, Note_on_c, 0, 57, 58
1, 34979, Control_c, 0, 64, 79
1, 34994, Control_c, 0, 64, 80
1, 35004, Note_on_c, 0, 61, 70
1, 35009, Control_c, 0, 64, 81
1, 35024, Control_c, 0, 64, 82
1, 35038, Control_c, 0, 64, 82
1, 35050, Note_off_c, 0, 57, 61
1, 35058, Note_off_c, 0, 61, 61
1, 35060, Note_off_c, 0, 83, 56
1, 35068, Control_c, 0, 64, 82
1, 35083, Note_on_c, 0, 62, 70
1, 35083, Control_c, 0, 64, 79
1, 35097, Control_c, 0, 64, 72
1, 35098, Note_on_c, 0, 71, 71
1, 35110, Note_off_c, 0, 62, 66
1, 35112, Control_c, 0, 64, 57
1, 35127, Control_c, 0, 64, 0
1, 35134, Note_off_c, 0, 71, 58
1, 35157, Control_c, 0, 64, 56
1, 35172, Control_c, 0, 64, 64
1, 35173, Note_on_c, 0, 64, 72
1, 35181, Note_on_c, 0, 81, 98
1, 35182, Note_on_c, 0, 61, 64
1, 35187, Control_c, 0, 64, 68
1, 35202, Control_c, 0, 64, 71
1, 35212, Note_off_c, 0, 61, 61
1, 35216, Control_c, 0, 64, 74
1, 35222, Note_off_c, 0, 64, 60
1, 35231, Control_c, 0, 64, 76
1, 35246, Control_c, 0, 64, 78
1, 35261, Control_c, 0, 64, 79
1, 35283, Control_c, 0, 64, 80
1, 35293, Note_on_c, 0, 62, 47
1, 35297, Note_on_c, 0, 65, 61
1, 35298, Control_c, 0, 64, 81
1, 35320, Note_off_c, 0, 62, 53
1, 35329, Note_off_c, 0, 65, 61
1, 35334, Note_on_c, 0, 64, 63
1, 35357, Control_c, 0, 64, 78
1, 35361, Note_on_c, 0, 67, 61
1, 35368, Note_off_c, 0, 81, 55
1, 35371, Note_off_c, 0, 64, 62
1, 35371, Control_c, 0, 64, 70
1, 35380, Note_off_c, 0, 67, 61
1, 35386, Control_c, 0, 64, 50
1, 35389, Note_on_c, 0, 69, 83
1, 35401, Control_c, 0, 64, 0
1, 35418, Note_off_c, 0, 69, 66
1, 35431, Control_c, 0, 64, 53
1, 35446, Control_c, 0, 64, 63
1, 35452, Note_on_c, 0, 69, 69
1, 35458, Note_on_c, 0, 65, 73
1, 35461, Control_c, 0, 64, 66
1, 35472, Note_on_c, 0, 74, 89
1, 35476, Control_c, 0, 64, 68
1, 35476, Note_off_c, 0, 69, 69
1, 35485, Note_off_c, 0, 65, 67
1, 35490, Control_c, 0, 64, 70
1, 35505, Control_c, 0, 64, 72
1, 35519, Note_off_c, 0, 74, 67
1, 35520, Control_c, 0, 64, 74
1, 35535, Control_c, 0, 64, 76
1, 35550, Control_c, 0, 64, 77
1, 35553, Note_on_c, 0, 64, 73
1, 35563, Note_on_c, 0, 67, 76
1, 35564, Control_c, 0, 64, 78
1, 35592, Note_off_c, 0, 64, 60
1, 35594, Note_off_c, 0, 67, 60
1, 35594, Control_c, 0, 64, 79
1, 35638, Control_c, 0, 64, 78
1, 35644, Note_on_c, 0, 65, 73
1, 35653, Note_on_c, 0, 62, 68
1, 35653, Control_c, 0, 64, 75
1, 35668, Note_off_c, 0, 65, 69
1, 35668, Control_c, 0, 64, 67
1, 35670, Note_on_c, 0, 69, 77
1, 35682, Control_c, 0, 64, 44
1, 35684, Note_off_c, 0, 62, 61
1, 35697, Note_off_c, 0, 69, 67
1, 35697, Control_c, 0, 64, 0
1, 35712, Control_c, 0, 64, 13
1, 35727, Control_c, 0, 64, 57
1, 35742, Control_c, 0, 64, 64
1, 35745, Note_on_c, 0, 64, 77
1, 35758, Control_c, 0, 64, 68
1, 35759, Note_on_c, 0, 61, 68
1, 35764, Note_on_c, 0, 81, 72
1, 35770, Note_on_c, 0, 83, 68
1, 35773, Control_c, 0, 64, 71
1, 35784, Note_off_c, 0, 83, 65
1, 35787, Control_c, 0, 64, 75
1, 35802, Control_c, 0, 64, 76
1, 35807, Note_off_c, 0, 64, 61
1, 35817, Control_c, 0, 64, 77
1, 35825, Note_off_c, 0, 81, 60
1, 35827, Note_off_c, 0, 61, 56
1, 35836, Note_on_c, 0, 62, 58
1, 35847, Control_c, 0, 64, 77
1, 35861, Control_c, 0, 64, 78
1, 35865, Note_on_c, 0, 57, 57
1, 35876, Control_c, 0, 64, 79
1, 35891, Note_off_c, 0, 62, 58
1, 35891, Control_c, 0, 64, 80
1, 35921, Note_on_c, 0, 61, 13
1, 35938, Note_on_c, 0, 69, 68
1, 35965, Control_c, 0, 64, 77
1, 35979, Note_off_c, 0, 69, 58
1, 35980, Control_c, 0, 64, 70
1, 35989, Note_off_c, 0, 61, 36
1, 35994, Control_c, 0, 64, 52
1, 36009, Control_c, 0, 64, 0
1, 36010, Note_off_c, 0, 57, 61
1, 36044, Note_on_c, 0, 67, 84
1, 36058, Note_on_c, 0, 71, 68
1, 36061, Control_c, 0, 64, 48
1, 36076, Control_c, 0, 64, 62
1, 36090, Note_off_c, 0, 71, 61
1, 36091, Control_c, 0, 64, 65
1, 36105, Control_c, 0, 64, 68
1, 36120, Control_c, 0, 64, 71
1, 36135, Control_c, 0, 64, 74
1, 36150, Control_c, 0, 64, 77
1, 36158, Note_on_c, 0, 72, 63
1, 36165, Control_c, 0, 64, 79
1, 36167, Note_on_c, 0, 69, 53
1, 36176, Note_off_c, 0, 72, 66
1, 36179, Control_c, 0, 64, 81
1, 36188, Note_off_c, 0, 69, 63
1, 36191, Note_off_c, 0, 67, 53
1, 36194, Control_c, 0, 64, 82
1, 36209, Control_c, 0, 64, 83
1, 36224, Control_c, 0, 64, 83
1, 36248, Note_on_c, 0, 74, 68
1, 36249, Note_on_c, 0, 55, 52
1, 36254, Note_on_c, 0, 71, 52
1, 36254, Control_c, 0, 64, 82
1, 36269, Control_c, 0, 64, 78
1, 36275, Note_off_c, 0, 74, 66
1, 36275, Note_off_c, 0, 55, 59
1, 36275, Note_off_c, 0, 71, 55
1, 36284, Control_c, 0, 64, 70
1, 36298, Control_c, 0, 64, 53
1, 36313, Control_c, 0, 64, 52
1, 36328, Control_c, 0, 64, 63
1, 36342, Note_on_c, 0, 63, 98
1, 36343, Control_c, 0, 64, 66
1, 36346, Note_on_c, 0, 72, 66
1, 36358, Control_c, 0, 64, 69
1, 36360, Note_on_c, 0, 75, 61
1, 36373, Control_c, 0, 64, 73
1, 36379, Note_off_c, 0, 72, 62
1, 36387, Control_c, 0, 64, 77
1, 36390, Note_off_c, 0, 75, 68
1, 36402, Control_c, 0, 64, 79
1, 36417, Control_c, 0, 64, 80
1, 36432, Control_c, 0, 64, 81
1, 36447, Control_c, 0, 64, 83
1, 36453, Note_on_c, 0, 77, 69
1, 36461, Control_c, 0, 64, 84
1, 36465, Note_on_c, 0, 74, 50
1, 36476, Control_c, 0, 64, 85
1, 36486, Note_off_c, 0, 74, 63
1, 36491, Control_c, 0, 64, 87
1, 36497, Note_off_c, 0, 63, 61
1, 36501, Note_on_c, 0, 51, 72
1, 36505, Control_c, 0, 64, 89
1, 36520, Control_c, 0, 64, 91
1, 36535, Control_c, 0, 64, 91
1, 36536, Note_on_c, 0, 75, 71
1, 36548, Note_on_c, 0, 79, 55
1, 36561, Note_off_c, 0, 51, 61
1, 36561, Note_off_c, 0, 77, 60
1, 36567, Note_off_c, 0, 79, 60
1, 36576, Note_off_c, 0, 75, 62
1, 36581, Control_c, 0, 64, 88
1, 36596, Control_c, 0, 64, 79
1, 36610, Control_c, 0, 64, 67
1, 36620, Note_on_c, 0, 59, 94
1, 36624, Control_c, 0, 64, 40
1, 36630, Note_on_c, 0, 80, 84
1, 36639, Control_c, 0, 64, 49
1, 36654, Control_c, 0, 64, 64
1, 36669, Control_c, 0, 64, 68
1, 36683, Control_c, 0, 64, 73
1, 36698, Control_c, 0, 64, 77
1, 36707, Note_off_c, 0, 80, 63
1, 36713, Control_c, 0, 64, 79
1, 36728, Control_c, 0, 64, 80
1, 36738, Note_on_c, 0, 79, 70
1, 36739, Note_on_c, 0, 75, 63
1, 36743, Control_c, 0, 64, 81
1, 36758, Control_c, 0, 64, 82
1, 36778, Note_off_c, 0, 75, 64
1, 36780, Control_c, 0, 64, 84
1, 36795, Control_c, 0, 64, 85
1, 36796, Note_off_c, 0, 59, 49
1, 36799, Note_on_c, 0, 47, 77
1, 36809, Control_c, 0, 64, 87
1, 36824, Control_c, 0, 64, 89
1, 36826, Note_on_c, 0, 77, 74
1, 36839, Control_c, 0, 64, 89
1, 36843, Note_on_c, 0, 74, 48
1, 36850, Note_off_c, 0, 79, 33
1, 36854, Control_c, 0, 64, 90
1, 36858, Note_off_c, 0, 47, 57
1, 36865, Note_off_c, 0, 74, 61
1, 36869, Control_c, 0, 64, 89
1, 36877, Note_off_c, 0, 77, 61
1, 36883, Control_c, 0, 64, 87
1, 36898, Control_c, 0, 64, 79
1, 36913, Control_c, 0, 64, 68
1, 36923, Note_on_c, 0, 60, 104
1, 36927, Note_on_c, 0, 75, 81
1, 36927, Control_c, 0, 64, 51
1, 36928, Note_on_c, 0, 72, 78
1, 36942, Control_c, 0, 64, 57
1, 36957, Control_c, 0, 64, 65
1, 36965, Note_off_c, 0, 72, 63
1, 36972, Control_c, 0, 64, 70
1, 36977, Note_off_c, 0, 75, 64
1, 36984, Note_on_c, 0, 51, 9
1, 36987, Control_c, 0, 64, 75
1, 37002, Control_c, 0, 64, 79
1, 37017, Control_c, 0, 64, 81
1, 37029, Note_off_c, 0, 51, 51
1, 37031, Note_on_c, 0, 77, 83
1, 37032, Poly_aftertouch_c, 0, 55, 0
1, 37032, Control_c, 0, 64, 82
1, 37039, Note_on_c, 0, 74, 69
1, 37046, Note_off_c, 0, 60, 47
1, 37047, Control_c, 0, 64, 84
1, 37062, Control_c, 0, 64, 85
1, 37072, Note_off_c, 0, 77, 60
1, 37076, Control_c, 0, 64, 87
1, 37091, Control_c, 0, 64, 88
1, 37094, Note_on_c, 0, 48, 66
1, 37103, Note_off_c, 0, 74, 52
1, 37106, Control_c, 0, 64, 90
1, 37117, Note_on_c, 0, 79, 81
1, 37121, Control_c, 0, 64, 91
1, 37125, Note_on_c, 0, 75, 69
1, 37130, Note_off_c, 0, 48, 65
1, 37135, Control_c, 0, 64, 91
1, 37147, Note_off_c, 0, 75, 68
1, 37160, Note_off_c, 0, 79, 63
1, 37165, Control_c, 0, 64, 91
1, 37180, Control_c, 0, 64, 87
1, 37195, Control_c, 0, 64, 80
1, 37208, Note_on_c, 0, 57, 102
1, 37209, Control_c, 0, 64, 69
1, 37214, Note_on_c, 0, 77, 88
1, 37221, Note_on_c, 0, 81, 87
1, 37224, Control_c, 0, 64, 60
1, 37239, Control_c, 0, 64, 62
1, 37254, Control_c, 0, 64, 68
1, 37265, Note_off_c, 0, 81, 59
1, 37266, Note_off_c, 0, 77, 62
1, 37269, Control_c, 0, 64, 72
1, 37283, Control_c, 0, 64, 76
1, 37298, Control_c, 0, 64, 79
1, 37313, Control_c, 0, 64, 80
1, 37327, Note_on_c, 0, 83, 78
1, 37327, Control_c, 0, 64, 82
1, 37329, Note_on_c, 0, 79, 71
1, 37342, Control_c, 0, 64, 83
1, 37351, Note_off_c, 0, 79, 66
1, 37355, Note_off_c, 0, 57, 50
1, 37358, Control_c, 0, 64, 86
1, 37373, Control_c, 0, 64, 88
1, 37374, Note_off_c, 0, 83, 62
1, 37384, Note_on_c, 0, 45, 66
1, 37388, Control_c, 0, 64, 89
1, 37403, Control_c, 0, 64, 90
1, 37419, Note_on_c, 0, 81, 74
1, 37423, Note_off_c, 0, 45, 63
1, 37424, Note_on_c, 0, 84, 81
1, 37447, Note_off_c, 0, 81, 60
1, 37447, Control_c, 0, 64, 88
1, 37462, Control_c, 0, 64, 82
1, 37464, Note_off_c, 0, 84, 65
1, 37477, Control_c, 0, 64, 72
1, 37492, Control_c, 0, 64, 59
1, 37503, Note_on_c, 0, 55, 103
1, 37506, Control_c, 0, 64, 51
1, 37529, Note_on_c, 0, 86, 90
1, 37529, Control_c, 0, 64, 64
1, 37544, Control_c, 0, 64, 69
1, 37550, Note_on_c, 0, 84, 55
1, 37552, Note_on_c, 0, 87, 43
1, 37556, Note_on_c, 0, 83, 30
1, 37557, Note_off_c, 0, 83, 127
1, 37558, Control_c, 0, 64, 74
1, 37571, Note_off_c, 0, 84, 59
1, 37573, Control_c, 0, 64, 79
1, 37575, Note_off_c, 0, 86, 65
1, 37579, Note_off_c, 0, 87, 36
1, 37588, Control_c, 0, 64, 81
1, 37603, Control_c, 0, 64, 83
1, 37618, Control_c, 0, 64, 84
1, 37626, Note_on_c, 0, 84, 86
1, 37628, Note_off_c, 0, 55, 51
1, 37632, Control_c, 0, 64, 86
1, 37635, Note_on_c, 0, 87, 86
1, 37647, Control_c, 0, 64, 88
1, 37660, Note_off_c, 0, 87, 62
1, 37662, Control_c, 0, 64, 90
1, 37677, Control_c, 0, 64, 91
1, 37686, Note_on_c, 0, 43, 47
1, 37688, Note_off_c, 0, 84, 62
1, 37692, Control_c, 0, 64, 92
1, 37706, Control_c, 0, 64, 93
1, 37720, Note_off_c, 0, 43, 51
1, 37721, Control_c, 0, 64, 95
1, 37725, Note_on_c, 0, 89, 89
1, 37733, Note_on_c, 0, 86, 80
1, 37736, Control_c, 0, 64, 95
1, 37762, Note_off_c, 0, 86, 62
1, 37765, Control_c, 0, 64, 95
1, 37780, Control_c, 0, 64, 90
1, 37781, Note_off_c, 0, 89, 66
1, 37795, Control_c, 0, 64, 80
1, 37810, Control_c, 0, 64, 67
1, 37819, Note_on_c, 0, 48, 112
1, 37825, Control_c, 0, 64, 31
1, 37828, Note_on_c, 0, 87, 91
1, 37830, Note_on_c, 0, 91, 92
1, 37840, Control_c, 0, 64, 44
1, 37855, Control_c, 0, 64, 63
1, 37869, Control_c, 0, 64, 68
1, 37881, Note_off_c, 0, 87, 63
1, 37884, Control_c, 0, 64, 72
1, 37899, Control_c, 0, 64, 77
1, 37914, Control_c, 0, 64, 80
1, 37929, Control_c, 0, 64, 81
1, 37944, Control_c, 0, 64, 82
1, 37944, Note_on_c, 0, 89, 82
1, 37944, Note_off_c, 0, 91, 58
1, 37945, Note_on_c, 0, 86, 76
1, 37958, Control_c, 0, 64, 84
1, 37973, Control_c, 0, 64, 85
1, 37986, Note_off_c, 0, 86, 57
1, 37988, Control_c, 0, 64, 86
1, 38000, Note_on_c, 0, 36, 60
1, 38003, Control_c, 0, 64, 88
1, 38018, Control_c, 0, 64, 89
1, 38028, Note_off_c, 0, 36, 55
1, 38030, Note_off_c, 0, 48, 60
1, 38032, Note_on_c, 0, 87, 77
1, 38032, Control_c, 0, 64, 89
1, 38034, Note_on_c, 0, 84, 75
1, 38055, Note_off_c, 0, 89, 64
1, 38078, Note_off_c, 0, 87, 63
1, 38084, Note_off_c, 0, 84, 63
1, 38091, Control_c, 0, 64, 85
1, 38106, Control_c, 0, 64, 76
1, 38121, Control_c, 0, 64, 62
1, 38136, Note_on_c, 0, 55, 97
1, 38136, Control_c, 0, 64, 47
1, 38139, Note_on_c, 0, 86, 96
1, 38148, Note_on_c, 0, 83, 78
1, 38152, Control_c, 0, 64, 61
1, 38167, Control_c, 0, 64, 67
1, 38169, Note_off_c, 0, 83, 65
1, 38181, Control_c, 0, 64, 71
1, 38196, Control_c, 0, 64, 76
1, 38211, Control_c, 0, 64, 80
1, 38224, Note_off_c, 0, 55, 53
1, 38226, Control_c, 0, 64, 81
1, 38228, Note_off_c, 0, 86, 41
1, 38241, Control_c, 0, 64, 82
1, 38242, Note_on_c, 0, 84, 82
1, 38245, Note_on_c, 0, 81, 85
1, 38255, Control_c, 0, 64, 83
1, 38278, Control_c, 0, 64, 84
1, 38285, Note_on_c, 0, 43, 67
1, 38288, Note_off_c, 0, 81, 58
1, 38293, Control_c, 0, 64, 85
1, 38307, Control_c, 0, 64, 86
1, 38322, Control_c, 0, 64, 87
1, 38325, Note_off_c, 0, 43, 62
1, 38337, Note_on_c, 0, 83, 80
1, 38355, Note_off_c, 0, 84, 63
1, 38361, Note_on_c, 0, 77, 48
1, 38362, Note_on_c, 0, 79, 47
1, 38369, Note_off_c, 0, 83, 58
1, 38381, Control_c, 0, 64, 85
1, 38383, Note_off_c, 0, 77, 55
1, 38383, Note_off_c, 0, 79, 58
1, 38396, Control_c, 0, 64, 77
1, 38411, Control_c, 0, 64, 63
1, 38426, Control_c, 0, 64, 0
1, 38439, Note_on_c, 0, 45, 88
1, 38441, Note_on_c, 0, 41, 89
1, 38441, Note_on_c, 0, 89, 100
1, 38441, Control_c, 0, 64, 13
1, 38455, Control_c, 0, 64, 60
1, 38470, Control_c, 0, 64, 66
1, 38485, Control_c, 0, 64, 70
1, 38496, Note_off_c, 0, 41, 49
1, 38499, Control_c, 0, 64, 74
1, 38514, Control_c, 0, 64, 77
1, 38529, Control_c, 0, 64, 79
1, 38540, Note_on_c, 0, 43, 54
1, 38544, Control_c, 0, 64, 80
1, 38559, Control_c, 0, 64, 82
1, 38567, Note_on_c, 0, 46, 68
1, 38573, Control_c, 0, 64, 83
1, 38576, Note_off_c, 0, 89, 55
1, 38588, Control_c, 0, 64, 85
1, 38597, Note_off_c, 0, 45, 31
1, 38603, Control_c, 0, 64, 86
1, 38607, Note_off_c, 0, 43, 60
1, 38618, Control_c, 0, 64, 87
1, 38630, Note_on_c, 0, 77, 79
1, 38633, Control_c, 0, 64, 88
1, 38636, Note_on_c, 0, 48, 74
1, 38636, Note_off_c, 0, 46, 62
1, 38665, Note_off_c, 0, 48, 67
1, 38668, Note_off_c, 0, 77, 60
1, 38677, Control_c, 0, 64, 85
1, 38692, Control_c, 0, 64, 76
1, 38707, Control_c, 0, 64, 64
1, 38722, Control_c, 0, 64, 26
1, 38734, Note_on_c, 0, 85, 99
1, 38737, Control_c, 0, 64, 48
1, 38752, Note_on_c, 0, 50, 66
1, 38752, Control_c, 0, 64, 64
1, 38763, Note_on_c, 0, 46, 26
1, 38764, Note_off_c, 0, 46, 127
1, 38767, Control_c, 0, 64, 68
1, 38781, Control_c, 0, 64, 74
1, 38789, Note_off_c, 0, 50, 63
1, 38796, Control_c, 0, 64, 79
1, 38808, Poly_aftertouch_c, 0, 46, 0
1, 38811, Control_c, 0, 64, 81
1, 38824, Poly_aftertouch_c, 0, 47, 127
1, 38826, Control_c, 0, 64, 82
1, 38841, Control_c, 0, 64, 83
1, 38855, Control_c, 0, 64, 85
1, 38856, Poly_aftertouch_c, 0, 47, 0
1, 38857, Note_on_c, 0, 51, 53
1, 38870, Control_c, 0, 64, 87
1, 38885, Control_c, 0, 64, 89
1, 38899, Control_c, 0, 64, 91
1, 38901, Note_on_c, 0, 53, 74
1, 38912, Note_on_c, 0, 73, 84
1, 38913, Note_on_c, 0, 49, 66
1, 38914, Control_c, 0, 64, 93
1, 38919, Note_off_c, 0, 51, 56
1, 38924, Note_off_c, 0, 85, 40
1, 38929, Note_off_c, 0, 53, 69
1, 38960, Control_c, 0, 64, 91
1, 38961, Note_off_c, 0, 73, 62
1, 38975, Control_c, 0, 64, 83
1, 38976, Note_off_c, 0, 49, 61
1, 38990, Control_c, 0, 64, 73
1, 39004, Control_c, 0, 64, 61
1, 39025, Note_on_c, 0, 81, 95
1, 39026, Control_c, 0, 64, 44
1, 39027, Note_on_c, 0, 54, 84
1, 39038, Note_on_c, 0, 51, 71
1, 39041, Control_c, 0, 64, 59
1, 39056, Control_c, 0, 64, 66
1, 39071, Control_c, 0, 64, 70
1, 39077, Note_off_c, 0, 51, 59
1, 39086, Control_c, 0, 64, 76
1, 39091, Note_off_c, 0, 54, 59
1, 39101, Control_c, 0, 64, 80
1, 39115, Control_c, 0, 64, 81
1, 39130, Control_c, 0, 64, 82
1, 39135, Note_on_c, 0, 49, 76
1, 39135, Note_on_c, 0, 53, 69
1, 39145, Control_c, 0, 64, 84
1, 39160, Control_c, 0, 64, 85
1, 39175, Control_c, 0, 64, 86
1, 39190, Control_c, 0, 64, 86
1, 39219, Note_on_c, 0, 69, 83
1, 39221, Note_on_c, 0, 48, 74
1, 39223, Note_off_c, 0, 53, 56
1, 39234, Note_off_c, 0, 81, 59
1, 39234, Control_c, 0, 64, 85
1, 39239, Note_on_c, 0, 51, 72
1, 39249, Control_c, 0, 64, 79
1, 39252, Note_on_c, 0, 78, 37
1, 39259, Note_off_c, 0, 48, 64
1, 39261, Note_off_c, 0, 69, 64
1, 39264, Control_c, 0, 64, 65
1, 39272, Note_off_c, 0, 78, 50
1, 39278, Note_off_c, 0, 49, 36
1, 39278, Control_c, 0, 64, 0
1, 39318, Note_on_c, 0, 46, 83
1, 39321, Note_off_c, 0, 51, 33
1, 39323, Note_on_c, 0, 49, 67
1, 39323, Note_on_c, 0, 82, 96
1, 39337, Control_c, 0, 64, 39
1, 39352, Control_c, 0, 64, 63
1, 39367, Control_c, 0, 64, 67
1, 39382, Control_c, 0, 64, 69
1, 39396, Control_c, 0, 64, 72
1, 39404, Note_off_c, 0, 49, 57
1, 39411, Note_on_c, 0, 48, 65
1, 39411, Control_c, 0, 64, 75
1, 39414, Note_off_c, 0, 46, 63
1, 39425, Note_on_c, 0, 51, 73
1, 39426, Control_c, 0, 64, 78
1, 39441, Control_c, 0, 64, 80
1, 39456, Control_c, 0, 64, 81
1, 39470, Control_c, 0, 64, 82
1, 39477, Note_off_c, 0, 48, 64
1, 39485, Control_c, 0, 64, 83
1, 39486, Note_on_c, 0, 49, 55
1, 39509, Note_on_c, 0, 53, 76
1, 39518, Note_off_c, 0, 51, 60
1, 39519, Note_off_c, 0, 49, 63
1, 39524, Note_on_c, 0, 70, 73
1, 39530, Control_c, 0, 64, 83
1, 39536, Note_off_c, 0, 82, 62
1, 39539, Note_off_c, 0, 53, 68
1, 39542, Note_off_c, 0, 70, 68
1, 39545, Control_c, 0, 64, 78
1, 39560, Control_c, 0, 64, 69
1, 39574, Control_c, 0, 64, 54
1, 39589, Control_c, 0, 64, 46
1, 39604, Control_c, 0, 64, 61
1, 39606, Note_on_c, 0, 55, 79
1, 39613, Note_on_c, 0, 52, 72
1, 39619, Control_c, 0, 64, 66
1, 39624, Note_on_c, 0, 87, 91
1, 39634, Control_c, 0, 64, 70
1, 39649, Control_c, 0, 64, 74
1, 39664, Control_c, 0, 64, 78
1, 39669, Note_off_c, 0, 52, 46
1, 39678, Control_c, 0, 64, 80
1, 39693, Control_c, 0, 64, 81
1, 39700, Note_on_c, 0, 53, 65
1, 39707, Note_off_c, 0, 55, 61
1, 39708, Control_c, 0, 64, 83
1, 39711, Note_on_c, 0, 56, 76
1, 39722, Control_c, 0, 64, 85
1, 39738, Control_c, 0, 64, 86
1, 39753, Control_c, 0, 64, 86
1, 39775, Control_c, 0, 64, 87
1, 39782, Note_off_c, 0, 87, 58
1, 39790, Control_c, 0, 64, 86
1, 39792, Note_on_c, 0, 58, 79
1, 39795, Note_off_c, 0, 56, 64
1, 39797, Note_off_c, 0, 53, 65
1, 39801, Note_on_c, 0, 75, 81
1, 39805, Control_c, 0, 64, 85
1, 39820, Control_c, 0, 64, 80
1, 39827, Note_off_c, 0, 58, 63
1, 39834, Control_c, 0, 64, 70
1, 39839, Note_off_c, 0, 75, 62
1, 39849, Control_c, 0, 64, 49
1, 39864, Control_c, 0, 64, 37
1, 39879, Control_c, 0, 64, 59
1, 39893, Control_c, 0, 64, 65
1, 39898, Note_on_c, 0, 83, 99
1, 39899, Note_on_c, 0, 59, 78
1, 39905, Note_on_c, 0, 56, 77
1, 39908, Control_c, 0, 64, 68
1, 39923, Control_c, 0, 64, 72
1, 39938, Control_c, 0, 64, 76
1, 39952, Note_off_c, 0, 59, 62
1, 39953, Control_c, 0, 64, 78
1, 39961, Note_off_c, 0, 56, 0
1, 39968, Control_c, 0, 64, 79
1, 39980, Note_on_c, 0, 58, 55
1, 39983, Control_c, 0, 64, 81
1, 39998, Control_c, 0, 64, 83
1, 39998, Poly_aftertouch_c, 0, 56, 127
1, 40010, Poly_aftertouch_c, 0, 56, 0
1, 40012, Note_on_c, 0, 61, 72
1, 40013, Control_c, 0, 64, 84
1, 40027, Control_c, 0, 64, 86
1, 40042, Control_c, 0, 64, 87
1, 40057, Control_c, 0, 64, 88
1, 40059, Note_off_c, 0, 83, 56
1, 40072, Control_c, 0, 64, 89
1, 40073, Note_on_c, 0, 71, 82
1, 40078, Note_on_c, 0, 63, 76
1, 40087, Control_c, 0, 64, 90
1, 40100, Note_off_c, 0, 58, 60
1, 40103, Note_off_c, 0, 61, 61
1, 40107, Note_off_c, 0, 63, 65
1, 40114, Note_off_c, 0, 71, 58
1, 40131, Control_c, 0, 64, 88
1, 40145, Control_c, 0, 64, 82
1, 40160, Control_c, 0, 64, 71
1, 40168, Note_on_c, 0, 79, 104
1, 40171, Poly_aftertouch_c, 0, 59, 0
1, 40175, Control_c, 0, 64, 54
1, 40177, Note_on_c, 0, 64, 82
1, 40183, Note_on_c, 0, 61, 72
1, 40190, Control_c, 0, 64, 21
1, 40205, Control_c, 0, 64, 55
1, 40212, Note_off_c, 0, 61, 64
1, 40212, Note_off_c, 0, 64, 65
1, 40219, Control_c, 0, 64, 65
1, 40234, Control_c, 0, 64, 68
1, 40249, Control_c, 0, 64, 72
1, 40264, Control_c, 0, 64, 76
1, 40277, Note_on_c, 0, 59, 70
1, 40278, Control_c, 0, 64, 78
1, 40279, Note_on_c, 0, 63, 79
1, 40293, Control_c, 0, 64, 79
1, 40308, Control_c, 0, 64, 81
1, 40321, Note_off_c, 0, 59, 60
1, 40323, Control_c, 0, 64, 82
1, 40338, Note_off_c, 0, 63, 56
1, 40338, Control_c, 0, 64, 84
1, 40353, Control_c, 0, 64, 85
1, 40364, Note_on_c, 0, 67, 90
1, 40367, Control_c, 0, 64, 86
1, 40369, Note_on_c, 0, 61, 77
1, 40378, Note_on_c, 0, 58, 48
1, 40379, Note_off_c, 0, 79, 58
1, 40388, Note_on_c, 0, 56, 59
1, 40397, Control_c, 0, 64, 85
1, 40403, Note_off_c, 0, 58, 55
1, 40408, Note_off_c, 0, 67, 62
1, 40412, Control_c, 0, 64, 81
1, 40414, Note_off_c, 0, 56, 58
1, 40417, Note_off_c, 0, 61, 54
1, 40427, Control_c, 0, 64, 70
1, 40442, Control_c, 0, 64, 0
1, 40451, Note_on_c, 0, 56, 54
1, 40460, Note_on_c, 0, 59, 76
1, 40464, Note_on_c, 0, 80, 94
1, 40475, Note_on_c, 0, 58, 65
1, 40491, Note_on_c, 0, 78, 61
1, 40497, Note_off_c, 0, 56, 57
1, 40501, Control_c, 0, 64, 59
1, 40523, Control_c, 0, 64, 67
1, 40524, Note_off_c, 0, 78, 38
1, 40538, Control_c, 0, 64, 71
1, 40554, Control_c, 0, 64, 74
1, 40555, Note_off_c, 0, 59, 59
1, 40569, Control_c, 0, 64, 77
1, 40576, Note_on_c, 0, 61, 65
1, 40583, Control_c, 0, 64, 80
1, 40588, Note_off_c, 0, 80, 62
1, 40598, Control_c, 0, 64, 82
1, 40613, Control_c, 0, 64, 84
1, 40615, Note_off_c, 0, 58, 64
1, 40628, Control_c, 0, 64, 85
1, 40643, Note_on_c, 0, 63, 76
1, 40643, Control_c, 0, 64, 86
1, 40647, Note_off_c, 0, 61, 60
1, 40657, Control_c, 0, 64, 86
1, 40668, Note_off_c, 0, 63, 68
1, 40672, Control_c, 0, 64, 87
1, 40716, Control_c, 0, 64, 83
1, 40731, Control_c, 0, 64, 75
1, 40746, Control_c, 0, 64, 63
1, 40748, Note_on_c, 0, 66, 67
1, 40750, Note_on_c, 0, 61, 96
1, 40761, Control_c, 0, 64, 42
1, 40776, Note_off_c, 0, 66, 52
1, 40776, Control_c, 0, 64, 59
1, 40779, Note_on_c, 0, 65, 59
1, 40791, Control_c, 0, 64, 66
1, 40801, Note_off_c, 0, 65, 65
1, 40806, Control_c, 0, 64, 71
1, 40821, Control_c, 0, 64, 77
1, 40835, Control_c, 0, 64, 82
1, 40850, Control_c, 0, 64, 84
1, 40862, Note_on_c, 0, 63, 65
1, 40865, Control_c, 0, 64, 84
1, 40865, Note_on_c, 0, 66, 75
1, 40880, Control_c, 0, 64, 85
1, 40894, Note_off_c, 0, 61, 61
1, 40895, Control_c, 0, 64, 87
1, 40898, Note_off_c, 0, 66, 62
1, 40898, Note_off_c, 0, 63, 61
1, 40909, Control_c, 0, 64, 88
1, 40924, Control_c, 0, 64, 90
1, 40926, Note_on_c, 0, 49, 69
1, 40939, Control_c, 0, 64, 92
1, 40954, Control_c, 0, 64, 93
1, 40963, Note_off_c, 0, 49, 61
1, 40968, Control_c, 0, 64, 94
1, 40970, Note_on_c, 0, 68, 70
1, 40997, Note_off_c, 0, 68, 68
1, 41013, Control_c, 0, 64, 93
1, 41019, Note_on_c, 0, 65, 18
1, 41028, Control_c, 0, 64, 87
1, 41042, Control_c, 0, 64, 78
1, 41049, Note_on_c, 0, 57, 104
1, 41053, Note_off_c, 0, 65, 0
1, 41057, Control_c, 0, 64, 67
1, 41064, Note_on_c, 0, 69, 83
1, 41069, Poly_aftertouch_c, 0, 65, 0
1, 41072, Control_c, 0, 64, 60
1, 41087, Control_c, 0, 64, 65
1, 41088, Note_on_c, 0, 66, 53
1, 41101, Control_c, 0, 64, 69
1, 41104, Note_off_c, 0, 69, 65
1, 41107, Note_off_c, 0, 66, 63
1, 41116, Control_c, 0, 64, 74
1, 41124, Note_off_c, 0, 57, 57
1, 41131, Control_c, 0, 64, 79
1, 41146, Control_c, 0, 64, 83
1, 41161, Control_c, 0, 64, 84
1, 41175, Control_c, 0, 64, 87
1, 41176, Note_on_c, 0, 71, 56
1, 41190, Control_c, 0, 64, 89
1, 41196, Note_off_c, 0, 71, 60
1, 41205, Note_on_c, 0, 42, 69
1, 41205, Control_c, 0, 64, 93
1, 41220, Control_c, 0, 64, 96
1, 41235, Control_c, 0, 64, 99
1, 41238, Note_off_c, 0, 42, 65
1, 41250, Control_c, 0, 64, 100
1, 41277, Note_on_c, 0, 69, 59
1, 41299, Note_on_c, 0, 74, 45
1, 41301, Control_c, 0, 64, 99
1, 41306, Note_off_c, 0, 69, 69
1, 41316, Control_c, 0, 64, 92
1, 41322, Note_off_c, 0, 74, 60
1, 41331, Control_c, 0, 64, 81
1, 41347, Control_c, 0, 64, 70
1, 41349, Note_on_c, 0, 59, 94
1, 41362, Control_c, 0, 64, 63
1, 41369, Note_on_c, 0, 71, 76
1, 41372, Note_on_c, 0, 75, 90
1, 41377, Control_c, 0, 64, 66
1, 41392, Control_c, 0, 64, 72
1, 41406, Control_c, 0, 64, 78
1, 41415, Note_off_c, 0, 71, 58
1, 41419, Note_off_c, 0, 75, 61
1, 41421, Control_c, 0, 64, 83
1, 41436, Control_c, 0, 64, 84
1, 41439, Poly_aftertouch_c, 0, 49, 127
1, 41446, Note_off_c, 0, 59, 54
1, 41451, Control_c, 0, 64, 86
1, 41466, Control_c, 0, 64, 88
1, 41468, Note_on_c, 0, 73, 79
1, 41468, Note_on_c, 0, 76, 76
1, 41479, Poly_aftertouch_c, 0, 49, 0
1, 41480, Control_c, 0, 64, 91
1, 41482, Note_on_c, 0, 47, 66
1, 41495, Control_c, 0, 64, 94
1, 41505, Note_off_c, 0, 73, 62
1, 41509, Note_off_c, 0, 76, 64
1, 41510, Control_c, 0, 64, 97
1, 41524, Control_c, 0, 64, 100
1, 41531, Note_off_c, 0, 47, 63
1, 41539, Control_c, 0, 64, 102
1, 41554, Control_c, 0, 64, 104
1, 41568, Note_on_c, 0, 78, 89
1, 41569, Control_c, 0, 64, 105
1, 41581, Note_on_c, 0, 75, 60
1, 41599, Control_c, 0, 64, 102
1, 41602, Note_off_c, 0, 75, 62
1, 41610, Note_off_c, 0, 78, 60
1, 41613, Control_c, 0, 64, 94
1, 41628, Control_c, 0, 64, 84
1, 41643, Control_c, 0, 64, 76
1, 41645, Note_on_c, 0, 56, 108
1, 41655, Note_on_c, 0, 80, 86
1, 41658, Note_on_c, 0, 76, 92
1, 41658, Control_c, 0, 64, 74
1, 41673, Control_c, 0, 64, 76
1, 41688, Control_c, 0, 64, 82
1, 41699, Note_off_c, 0, 56, 60
1, 41703, Note_off_c, 0, 80, 65
1, 41703, Control_c, 0, 64, 88
1, 41708, Note_off_c, 0, 76, 65
1, 41717, Control_c, 0, 64, 92
1, 41732, Control_c, 0, 64, 95
1, 41747, Control_c, 0, 64, 98
1, 41754, Note_on_c, 0, 81, 89
1, 41762, Control_c, 0, 64, 101
1, 41762, Note_on_c, 0, 78, 86
1, 41777, Control_c, 0, 64, 104
1, 41782, Note_on_c, 0, 40, 84
1, 41791, Control_c, 0, 64, 107
1, 41792, Note_off_c, 0, 78, 58
1, 41798, Note_off_c, 0, 81, 63
1, 41806, Note_off_c, 0, 40, 67
1, 41806, Control_c, 0, 64, 110
1, 41821, Control_c, 0, 64, 114
1, 41836, Control_c, 0, 64, 117
1, 41851, Control_c, 0, 64, 118
1, 41856, Note_on_c, 0, 83, 91
1, 41860, Note_on_c, 0, 80, 83
1, 41866, Control_c, 0, 64, 118
1, 41879, Note_off_c, 0, 80, 72
1, 41880, Control_c, 0, 64, 114
1, 41895, Note_off_c, 0, 83, 64
1, 41895, Control_c, 0, 64, 102
1, 41910, Control_c, 0, 64, 89
1, 41924, Control_c, 0, 64, 77
1, 41926, Note_on_c, 0, 57, 104
1, 41939, Control_c, 0, 64, 70
1, 41948, Note_on_c, 0, 81, 94
1, 41952, Note_on_c, 0, 85, 94
1, 41954, Control_c, 0, 64, 73
1, 41962, Note_on_c, 0, 55, 26
1, 41969, Control_c, 0, 64, 79
1, 41983, Note_off_c, 0, 81, 64
1, 41984, Control_c, 0, 64, 87
1, 41998, Control_c, 0, 64, 92
1, 42000, Note_off_c, 0, 85, 63
1, 42021, Control_c, 0, 64, 95
1, 42036, Control_c, 0, 64, 98
1, 42050, Control_c, 0, 64, 103
1, 42053, Note_on_c, 0, 86, 100
1, 42055, Note_off_c, 0, 57, 59
1, 42058, Note_on_c, 0, 83, 90
1, 42065, Control_c, 0, 64, 107
1, 42080, Control_c, 0, 64, 114
1, 42093, Note_off_c, 0, 55, 50
1, 42095, Control_c, 0, 64, 123
1, 42096, Note_on_c, 0, 45, 69
1, 42096, Note_off_c, 0, 86, 63
1, 42107, Note_off_c, 0, 83, 60
1, 42110, Control_c, 0, 64, 127
1, 42127, Note_off_c, 0, 45, 63
1, 42146, Note_on_c, 0, 88, 96
1, 42155, Control_c, 0, 64, 118
1, 42158, Note_on_c, 0, 85, 85
1, 42170, Control_c, 0, 64, 101
1, 42181, Note_off_c, 0, 85, 62
1, 42185, Control_c, 0, 64, 87
1, 42186, Note_on_c, 0, 83, 5
1, 42196, Note_off_c, 0, 88, 65
1, 42200, Control_c, 0, 64, 76
1, 42215, Control_c, 0, 64, 71
1, 42229, Control_c, 0, 64, 75
1, 42230, Note_on_c, 0, 53, 104
1, 42239, Note_off_c, 0, 83, 26
1, 42244, Control_c, 0, 64, 83
1, 42249, Note_on_c, 0, 89, 100
1, 42252, Note_on_c, 0, 86, 104
1, 42259, Control_c, 0, 64, 93
1, 42274, Control_c, 0, 64, 100
1, 42289, Control_c, 0, 64, 103
1, 42296, Note_off_c, 0, 89, 67
1, 42303, Control_c, 0, 64, 106
1, 42308, Note_off_c, 0, 86, 63
1, 42317, Note_off_c, 0, 53, 58
1, 42318, Control_c, 0, 64, 109
1, 42333, Control_c, 0, 64, 112
1, 42347, Control_c, 0, 64, 114
1, 42356, Note_on_c, 0, 91, 101
1, 42362, Control_c, 0, 64, 116
1, 42363, Note_on_c, 0, 88, 92
1, 42377, Control_c, 0, 64, 117
1, 42384, Note_off_c, 0, 88, 66
1, 42392, Control_c, 0, 64, 119
1, 42394, Note_on_c, 0, 38, 82
1, 42407, Control_c, 0, 64, 123
1, 42415, Note_off_c, 0, 91, 61
1, 42416, Note_off_c, 0, 38, 67
1, 42421, Control_c, 0, 64, 127
1, 42475, Note_on_c, 0, 89, 101
1, 42475, Note_on_c, 0, 93, 102
1, 42549, Note_off_c, 0, 89, 63
1, 42555, Control_c, 0, 64, 102
1, 42570, Control_c, 0, 64, 85
1, 42575, Note_off_c, 0, 93, 62
1, 42585, Control_c, 0, 64, 69
1, 42600, Control_c, 0, 64, 13
1, 42602, Note_on_c, 0, 52, 102
1, 42609, Note_on_c, 0, 88, 99
1, 42614, Note_on_c, 0, 92, 105
1, 42614, Control_c, 0, 64, 38
1, 42629, Control_c, 0, 64, 64
1, 42644, Control_c, 0, 64, 71
1, 42659, Control_c, 0, 64, 80
1, 42673, Control_c, 0, 64, 90
1, 42685, Note_off_c, 0, 88, 64
1, 42688, Control_c, 0, 64, 96
1, 42696, Poly_aftertouch_c, 0, 49, 127
1, 42703, Control_c, 0, 64, 100
1, 42718, Control_c, 0, 64, 103
1, 42724, Poly_aftertouch_c, 0, 49, 0
1, 42728, Note_off_c, 0, 92, 65
1, 42733, Control_c, 0, 64, 108
1, 42747, Control_c, 0, 64, 112
1, 42770, Control_c, 0, 64, 115
1, 42776, Note_on_c, 0, 93, 93
1, 42782, Note_on_c, 0, 90, 100
1, 42785, Control_c, 0, 64, 119
1, 42800, Control_c, 0, 64, 123
1, 42815, Control_c, 0, 64, 127
1, 42817, Note_off_c, 0, 52, 58
1, 42841, Note_on_c, 0, 40, 83
1, 42856, Note_off_c, 0, 93, 62
1, 42869, Note_off_c, 0, 90, 66
1, 42870, Note_off_c, 0, 40, 68
1, 42933, Note_on_c, 0, 95, 112
1, 42940, Note_on_c, 0, 92, 107
1, 43000, Note_off_c, 0, 92, 59
1, 43032, Note_off_c, 0, 95, 46
1, 43196, Note_on_c, 0, 45, 100
1, 43198, Note_on_c, 0, 97, 112
1, 43199, Note_on_c, 0, 85, 101
1, 43201, Note_on_c, 0, 33, 99
1, 43201, Note_on_c, 0, 93, 93
1, 43215, Control_c, 0, 64, 115
1, 43230, Control_c, 0, 64, 95
1, 43244, Control_c, 0, 64, 72
1, 43247, Note_on_c, 0, 91, 15
1, 43259, Control_c, 0, 64, 0
1, 43271, Note_on_c, 0, 40, 3
1, 43273, Note_off_c, 0, 91, 36
1, 43310, Note_off_c, 0, 40, 32
1, 43757, Control_c, 0, 64, 45
1, 43772, Control_c, 0, 64, 59
1, 43787, Control_c, 0, 64, 60
1, 43801, Control_c, 0, 64, 63
1, 43816, Control_c, 0, 64, 65
1, 43831, Control_c, 0, 64, 67
1, 43846, Control_c, 0, 64, 71
1, 43861, Control_c, 0, 64, 75
1, 43876, Control_c, 0, 64, 79
1, 43891, Control_c, 0, 64, 81
1, 43906, Control_c, 0, 64, 83
1, 43920, Control_c, 0, 64, 85
1, 43935, Control_c, 0, 64, 87
1, 43950, Control_c, 0, 64, 90
1, 43964, Note_off_c, 0, 97, 38
1, 43965, Control_c, 0, 64, 91
1, 43980, Control_c, 0, 64, 92
1, 43994, Control_c, 0, 64, 93
1, 43997, Note_off_c, 0, 93, 44
1, 44009, Control_c, 0, 64, 94
1, 44018, Poly_aftertouch_c, 0, 40, 127
1, 44024, Control_c, 0, 64, 96
1, 44036, Note_off_c, 0, 33, 34
1, 44039, Control_c, 0, 64, 97
1, 44054, Control_c, 0, 64, 99
1, 44068, Control_c, 0, 64, 101
1, 44083, Control_c, 0, 64, 102
1, 44098, Control_c, 0, 64, 103
1, 44111, Control_c, 0, 64, 104
1, 44126, Control_c, 0, 64, 104
1, 44141, Control_c, 0, 64, 106
1, 44156, Control_c, 0, 64, 107
1, 44161, Note_off_c, 0, 45, 44
1, 44171, Control_c, 0, 64, 108
1, 44186, Control_c, 0, 64, 109
1, 44201, Note_off_c, 0, 85, 49
1, 44201, Control_c, 0, 64, 109
1, 44231, Control_c, 0, 64, 110
1, 44335, Poly_aftertouch_c, 0, 40, 0
1, 44594, Control_c, 0, 64, 110
1, 44639, Control_c, 0, 64, 109
1, 44654, Control_c, 0, 64, 102
1, 44669, Control_c, 0, 64, 88
1, 44682, Note_on_c, 0, 45, 107
1, 44684, Note_on_c, 0, 85, 91
1, 44684, Control_c, 0, 64, 71
1, 44685, Note_on_c, 0, 33, 105
1, 44685, Note_on_c, 0, 81, 104
1, 44685, Note_on_c, 0, 93, 105
1, 44698, Control_c, 0, 64, 0
1, 44728, Control_c, 0, 64, 62
1, 44742, Control_c, 0, 64, 66
1, 44750, Note_off_c, 0, 33, 63
1, 44755, Note_on_c, 0, 35, 2
1, 44757, Control_c, 0, 64, 72
1, 44770, Note_off_c, 0, 93, 57
1, 44772, Control_c, 0, 64, 78
1, 44776, Note_off_c, 0, 35, 58
1, 44778, Note_off_c, 0, 85, 62
1, 44787, Control_c, 0, 64, 83
1, 44802, Control_c, 0, 64, 84
1, 44815, Note_off_c, 0, 45, 61
1, 44816, Control_c, 0, 64, 85
1, 44831, Control_c, 0, 64, 87
1, 44846, Control_c, 0, 64, 88
1, 44860, Control_c, 0, 64, 89
1, 44875, Control_c, 0, 64, 90
1, 44885, Note_on_c, 0, 47, 74
1, 44887, Note_on_c, 0, 86, 83
1, 44890, Control_c, 0, 64, 91
1, 44893, Note_off_c, 0, 81, 59
1, 44905, Control_c, 0, 64, 93
1, 44920, Note_off_c, 0, 47, 67
1, 44920, Control_c, 0, 64, 94
1, 44934, Control_c, 0, 64, 96
1, 44949, Control_c, 0, 64, 98
1, 44964, Control_c, 0, 64, 100
1, 44970, Note_on_c, 0, 49, 78
1, 44979, Control_c, 0, 64, 101
1, 44984, Note_on_c, 0, 88, 85
1, 44994, Control_c, 0, 64, 102
1, 45016, Note_off_c, 0, 49, 58
1, 45016, Control_c, 0, 64, 102
1, 45031, Control_c, 0, 64, 102
1, 45043, Note_off_c, 0, 88, 64
1, 45046, Control_c, 0, 64, 97
1, 45047, Note_off_c, 0, 86, 25
1, 45061, Control_c, 0, 64, 86
1, 45075, Control_c, 0, 64, 71
1, 45084, Note_on_c, 0, 50, 105
1, 45090, Control_c, 0, 64, 47
1, 45091, Note_on_c, 0, 38, 94
1, 45091, Note_on_c, 0, 77, 108
1, 45091, Note_on_c, 0, 89, 103
1, 45105, Control_c, 0, 64, 56
1, 45113, Note_on_c, 0, 46, 50
1, 45117, Note_off_c, 0, 38, 68
1, 45119, Note_on_c, 0, 40, 57
1, 45120, Control_c, 0, 64, 66
1, 45135, Control_c, 0, 64, 71
1, 45140, Note_off_c, 0, 89, 65
1, 45145, Note_off_c, 0, 46, 37
1, 45149, Control_c, 0, 64, 78
1, 45150, Note_off_c, 0, 40, 62
1, 45162, Note_off_c, 0, 50, 57
1, 45164, Control_c, 0, 64, 83
1, 45179, Control_c, 0, 64, 85
1, 45188, Note_off_c, 0, 77, 55
1, 45188, Poly_aftertouch_c, 0, 79, 0
1, 45194, Control_c, 0, 64, 86
1, 45209, Control_c, 0, 64, 87
1, 45223, Control_c, 0, 64, 89
1, 45229, Note_on_c, 0, 79, 65
1, 45238, Control_c, 0, 64, 90
1, 45253, Control_c, 0, 64, 92
1, 45268, Control_c, 0, 64, 93
1, 45271, Note_on_c, 0, 52, 48
1, 45283, Control_c, 0, 64, 95
1, 45298, Control_c, 0, 64, 97
1, 45302, Note_off_c, 0, 52, 49
1, 45313, Control_c, 0, 64, 99
1, 45313, Note_on_c, 0, 81, 82
1, 45316, Note_on_c, 0, 53, 76
1, 45328, Control_c, 0, 64, 101
1, 45341, Note_off_c, 0, 79, 55
1, 45343, Note_off_c, 0, 53, 69
1, 45343, Control_c, 0, 64, 101
1, 45357, Control_c, 0, 64, 100
1, 45360, Note_off_c, 0, 81, 62
1, 45372, Control_c, 0, 64, 93
1, 45387, Control_c, 0, 64, 75
1, 45402, Control_c, 0, 64, 35
1, 45408, Note_on_c, 0, 73, 107
1, 45409, Note_on_c, 0, 55, 100
1, 45409, Note_on_c, 0, 85, 100
1, 45412, Note_on_c, 0, 82, 85
1, 45415, Note_on_c, 0, 43, 93
1, 45417, Control_c, 0, 64, 0
1, 45432, Control_c, 0, 64, 26
1, 45442, Note_on_c, 0, 46, 47
1, 45442, Note_off_c, 0, 43, 66
1, 45447, Control_c, 0, 64, 65
1, 45456, Note_off_c, 0, 55, 63
1, 45462, Control_c, 0, 64, 71
1, 45476, Note_off_c, 0, 73, 61
1, 45477, Control_c, 0, 64, 78
1, 45478, Note_off_c, 0, 46, 34
1, 45491, Control_c, 0, 64, 84
1, 45497, Note_off_c, 0, 85, 64
1, 45506, Control_c, 0, 64, 85
1, 45514, Note_off_c, 0, 82, 58
1, 45521, Control_c, 0, 64, 86
1, 45527, Note_on_c, 0, 81, 67
1, 45536, Control_c, 0, 64, 88
1, 45547, Note_on_c, 0, 53, 64
1, 45551, Control_c, 0, 64, 90
1, 45565, Control_c, 0, 64, 92
1, 45580, Control_c, 0, 64, 93
1, 45595, Control_c, 0, 64, 94
1, 45599, Note_off_c, 0, 53, 66
1, 45603, Note_on_c, 0, 52, 73
1, 45610, Control_c, 0, 64, 94
1, 45620, Note_on_c, 0, 79, 76
1, 45631, Note_off_c, 0, 52, 69
1, 45638, Note_off_c, 0, 81, 61
1, 45639, Control_c, 0, 64, 94
1, 45648, Note_off_c, 0, 79, 63
1, 45654, Control_c, 0, 64, 87
1, 45669, Control_c, 0, 64, 74
1, 45683, Control_c, 0, 64, 0
1, 45700, Note_on_c, 0, 50, 110
1, 45708, Note_on_c, 0, 38, 97
1, 45709, Note_on_c, 0, 77, 90
1, 45710, Note_on_c, 0, 86, 93
1, 45712, Note_on_c, 0, 74, 94
1, 45728, Control_c, 0, 64, 64
1, 45730, Note_off_c, 0, 38, 67
1, 45732, Note_on_c, 0, 40, 56
1, 45739, Note_off_c, 0, 50, 67
1, 45743, Control_c, 0, 64, 71
1, 45749, Note_on_c, 0, 46, 16
1, 45752, Note_off_c, 0, 77, 62
1, 45762, Note_off_c, 0, 86, 60
1, 45765, Control_c, 0, 64, 77
1, 45766, Note_off_c, 0, 40, 57
1, 45780, Control_c, 0, 64, 82
1, 45795, Control_c, 0, 64, 83
1, 45802, Note_off_c, 0, 46, 49
1, 45810, Control_c, 0, 64, 84
1, 45825, Control_c, 0, 64, 85
1, 45834, Note_on_c, 0, 79, 81
1, 45835, Note_off_c, 0, 74, 59
1, 45839, Control_c, 0, 64, 87
1, 45852, Note_on_c, 0, 52, 62
1, 45854, Control_c, 0, 64, 88
1, 45869, Control_c, 0, 64, 90
1, 45878, Note_off_c, 0, 52, 66
1, 45884, Control_c, 0, 64, 91
1, 45898, Control_c, 0, 64, 92
1, 45914, Note_on_c, 0, 53, 75
1, 45915, Note_on_c, 0, 81, 81
1, 45928, Control_c, 0, 64, 91
1, 45936, Note_off_c, 0, 79, 60
1, 45939, Note_off_c, 0, 53, 68
1, 45943, Control_c, 0, 64, 83
1, 45957, Note_off_c, 0, 81, 62
1, 45958, Control_c, 0, 64, 67
1, 45972, Control_c, 0, 64, 0
1, 45997, Note_on_c, 0, 71, 102
1, 45998, Note_on_c, 0, 83, 100
1, 46001, Note_on_c, 0, 55, 103
1, 46004, Note_on_c, 0, 43, 100
1, 46017, Control_c, 0, 64, 63
1, 46027, Note_off_c, 0, 43, 67
1, 46032, Control_c, 0, 64, 70
1, 46037, Note_on_c, 0, 46, 40
1, 46038, Note_off_c, 0, 55, 66
1, 46046, Control_c, 0, 64, 75
1, 46049, Note_off_c, 0, 83, 57
1, 46054, Note_on_c, 0, 45, 24
1, 46061, Control_c, 0, 64, 80
1, 46072, Note_off_c, 0, 46, 52
1, 46076, Control_c, 0, 64, 81
1, 46091, Control_c, 0, 64, 81
1, 46091, Note_off_c, 0, 45, 52
1, 46103, Note_off_c, 0, 71, 55
1, 46106, Control_c, 0, 64, 82
1, 46118, Note_on_c, 0, 72, 80
1, 46121, Control_c, 0, 64, 84
1, 46136, Control_c, 0, 64, 85
1, 46139, Note_on_c, 0, 57, 73
1, 46151, Control_c, 0, 64, 86
1, 46166, Note_off_c, 0, 57, 67
1, 46166, Control_c, 0, 64, 88
1, 46181, Control_c, 0, 64, 88
1, 46204, Note_on_c, 0, 74, 76
1, 46209, Note_off_c, 0, 72, 61
1, 46210, Control_c, 0, 64, 88
1, 46225, Note_on_c, 0, 59, 46
1, 46225, Control_c, 0, 64, 83
1, 46231, Note_off_c, 0, 74, 66
1, 46240, Control_c, 0, 64, 72
1, 46249, Note_off_c, 0, 59, 55
1, 46255, Control_c, 0, 64, 0
1, 46285, Control_c, 0, 64, 52
1, 46293, Note_on_c, 0, 57, 102
1, 46294, Note_on_c, 0, 69, 102
1, 46295, Note_on_c, 0, 81, 98
1, 46298, Note_on_c, 0, 73, 88
1, 46299, Control_c, 0, 64, 66
1, 46300, Note_on_c, 0, 45, 90
1, 46314, Control_c, 0, 64, 71
1, 46318, Note_on_c, 0, 79, 57
1, 46319, Note_off_c, 0, 79, 127
1, 46319, Note_on_c, 0, 47, 70
1, 46321, Note_off_c, 0, 45, 70
1, 46328, Note_off_c, 0, 57, 69
1, 46329, Control_c, 0, 64, 79
1, 46335, Note_off_c, 0, 81, 56
1, 46341, Note_off_c, 0, 47, 64
1, 46344, Control_c, 0, 64, 85
1, 46354, Note_off_c, 0, 73, 60
1, 46359, Control_c, 0, 64, 85
1, 46364, Note_off_c, 0, 69, 54
1, 46374, Control_c, 0, 64, 86
1, 46389, Control_c, 0, 64, 87
1, 46404, Control_c, 0, 64, 88
1, 46416, Note_on_c, 0, 74, 72
1, 46419, Control_c, 0, 64, 90
1, 46428, Note_on_c, 0, 59, 67
1, 46434, Control_c, 0, 64, 92
1, 46448, Control_c, 0, 64, 94
1, 46456, Note_off_c, 0, 59, 65
1, 46463, Control_c, 0, 64, 95
1, 46492, Note_on_c, 0, 61, 73
1, 46492, Note_on_c, 0, 76, 82
1, 46508, Control_c, 0, 64, 91
1, 46520, Note_off_c, 0, 61, 64
1, 46527, Note_off_c, 0, 74, 61
1, 46529, Control_c, 0, 64, 80
1, 46539, Note_off_c, 0, 76, 66
1, 46544, Control_c, 0, 64, 60
1, 46559, Control_c, 0, 64, 0
1, 46574, Control_c, 0, 64, 47
1, 46583, Note_on_c, 0, 62, 107
1, 46586, Note_on_c, 0, 50, 103
1, 46586, Note_on_c, 0, 65, 101
1, 46589, Note_on_c, 0, 77, 85
1, 46589, Control_c, 0, 64, 67
1, 46589, Note_on_c, 0, 76, 83
1, 46602, Note_on_c, 0, 75, 68
1, 46603, Control_c, 0, 64, 74
1, 46618, Control_c, 0, 64, 83
1, 46621, Note_off_c, 0, 75, 68
1, 46622, Note_on_c, 0, 58, 33
1, 46622, Note_off_c, 0, 50, 60
1, 46633, Control_c, 0, 64, 91
1, 46639, Note_off_c, 0, 65, 61
1, 46648, Control_c, 0, 64, 93
1, 46651, Note_off_c, 0, 58, 49
1, 46657, Note_off_c, 0, 76, 62
1, 46660, Note_off_c, 0, 62, 46
1, 46663, Control_c, 0, 64, 94
1, 46678, Control_c, 0, 64, 96
1, 46688, Note_off_c, 0, 77, 37
1, 46690, Note_on_c, 0, 76, 59
1, 46693, Control_c, 0, 64, 97
1, 46708, Control_c, 0, 64, 99
1, 46718, Note_on_c, 0, 60, 68
1, 46722, Control_c, 0, 64, 100
1, 46737, Control_c, 0, 64, 101
1, 46752, Control_c, 0, 64, 102
1, 46755, Note_on_c, 0, 58, 70
1, 46760, Note_off_c, 0, 60, 62
1, 46767, Control_c, 0, 64, 104
1, 46770, Note_off_c, 0, 76, 58
1, 46781, Note_on_c, 0, 74, 70
1, 46785, Note_off_c, 0, 58, 67
1, 46802, Note_off_c, 0, 74, 71
1, 46811, Control_c, 0, 64, 100
1, 46826, Control_c, 0, 64, 84
1, 46840, Control_c, 0, 64, 66
1, 46855, Control_c, 0, 64, 0
1, 46860, Note_on_c, 0, 81, 104
1, 46862, Note_on_c, 0, 69, 102
1, 46863, Note_on_c, 0, 57, 100
1, 46868, Note_on_c, 0, 45, 94
1, 46870, Control_c, 0, 64, 13
1, 46872, Note_on_c, 0, 73, 69
1, 46880, Note_on_c, 0, 55, 67
1, 46881, Note_off_c, 0, 55, 127
1, 46885, Note_on_c, 0, 46, 56
1, 46886, Note_off_c, 0, 46, 127
1, 46886, Control_c, 0, 64, 64
1, 46888, Note_on_c, 0, 51, 53
1, 46891, Note_on_c, 0, 78, 45
1, 46891, Note_off_c, 0, 73, 41
1, 46900, Control_c, 0, 64, 71
1, 46913, Note_off_c, 0, 51, 55
1, 46914, Control_c, 0, 64, 80
1, 46917, Note_off_c, 0, 78, 36
1, 46920, Note_off_c, 0, 69, 59
1, 46929, Control_c, 0, 64, 87
1, 46945, Control_c, 0, 64, 88
1, 46960, Control_c, 0, 64, 89
1, 46970, Note_off_c, 0, 81, 54
1, 46975, Note_off_c, 0, 57, 51
1, 46975, Control_c, 0, 64, 90
1, 46976, Poly_aftertouch_c, 0, 49, 0
1, 46977, Note_on_c, 0, 74, 79
1, 46990, Control_c, 0, 64, 91
1, 46992, Note_on_c, 0, 52, 65
1, 47005, Control_c, 0, 64, 93
1, 47018, Note_on_c, 0, 49, 62
1, 47019, Control_c, 0, 64, 96
1, 47020, Note_off_c, 0, 45, 60
1, 47026, Note_on_c, 0, 76, 78
1, 47030, Note_off_c, 0, 74, 66
1, 47034, Control_c, 0, 64, 98
1, 47039, Note_off_c, 0, 52, 64
1, 47046, Note_off_c, 0, 76, 72
1, 47049, Control_c, 0, 64, 101
1, 47057, Note_off_c, 0, 49, 62
1, 47064, Control_c, 0, 64, 105
1, 47079, Control_c, 0, 64, 110
1, 47093, Control_c, 0, 64, 117
1, 47108, Control_c, 0, 64, 127
1, 47123, Control_c, 0, 64, 127
1, 47182, Control_c, 0, 64, 113
1, 47197, Control_c, 0, 64, 95
1, 47212, Control_c, 0, 64, 73
1, 47221, Note_on_c, 0, 79, 112
1, 47223, Note_on_c, 0, 91, 106
1, 47226, Note_on_c, 0, 43, 110
1, 47226, Control_c, 0, 64, 0
1, 47229, Note_on_c, 0, 31, 98
1, 47240, Note_on_c, 0, 34, 72
1, 47247, Note_on_c, 0, 39, 60
1, 47248, Note_off_c, 0, 39, 127
1, 47252, Note_on_c, 0, 33, 58
1, 47263, Control_c, 0, 64, 16
1, 47276, Note_off_c, 0, 34, 36
1, 47278, Control_c, 0, 64, 63
1, 47280, Note_on_c, 0, 84, 9
1, 47293, Control_c, 0, 64, 70
1, 47298, Note_off_c, 0, 33, 0
1, 47298, Note_on_c, 0, 33, 24
1, 47308, Control_c, 0, 64, 77
1, 47309, Note_off_c, 0, 31, 64
1, 47323, Control_c, 0, 64, 81
1, 47333, Note_off_c, 0, 33, 64
1, 47334, Note_off_c, 0, 84, 28
1, 47338, Control_c, 0, 64, 81
1, 47345, Note_off_c, 0, 91, 52
1, 47354, Note_off_c, 0, 43, 59
1, 47367, Control_c, 0, 64, 82
1, 47382, Control_c, 0, 64, 85
1, 47387, Note_on_c, 0, 84, 55
1, 47389, Note_off_c, 0, 79, 53
1, 47397, Control_c, 0, 64, 89
1, 47411, Control_c, 0, 64, 93
1, 47426, Control_c, 0, 64, 96
1, 47441, Control_c, 0, 64, 98
1, 47457, Note_on_c, 0, 86, 74
1, 47459, Note_on_c, 0, 45, 32
1, 47474, Note_on_c, 0, 47, 78
1, 47486, Control_c, 0, 64, 96
1, 47487, Note_off_c, 0, 45, 58
1, 47487, Note_off_c, 0, 84, 64
1, 47501, Note_off_c, 0, 47, 67
1, 47501, Control_c, 0, 64, 85
1, 47506, Note_off_c, 0, 86, 63
1, 47516, Control_c, 0, 64, 71
1, 47531, Control_c, 0, 64, 43
1, 47545, Control_c, 0, 64, 47
1, 47548, Note_on_c, 0, 75, 99
1, 47551, Note_on_c, 0, 48, 102
1, 47551, Note_on_c, 0, 87, 89
1, 47560, Note_on_c, 0, 36, 88
1, 47560, Control_c, 0, 64, 66
1, 47575, Control_c, 0, 64, 73
1, 47581, Note_off_c, 0, 87, 66
1, 47582, Note_off_c, 0, 36, 68
1, 47587, Note_off_c, 0, 48, 69
1, 47590, Control_c, 0, 64, 81
1, 47595, Note_off_c, 0, 75, 63
1, 47601, Note_on_c, 0, 38, 38
1, 47605, Control_c, 0, 64, 84
1, 47619, Control_c, 0, 64, 84
1, 47634, Control_c, 0, 64, 85
1, 47637, Note_off_c, 0, 38, 52
1, 47649, Control_c, 0, 64, 87
1, 47659, Note_on_c, 0, 77, 72
1, 47663, Control_c, 0, 64, 88
1, 47678, Control_c, 0, 64, 90
1, 47683, Note_on_c, 0, 50, 74
1, 47693, Control_c, 0, 64, 92
1, 47708, Control_c, 0, 64, 93
1, 47723, Control_c, 0, 64, 94
1, 47724, Note_off_c, 0, 50, 59
1, 47728, Note_on_c, 0, 79, 81
1, 47739, Control_c, 0, 64, 94
1, 47763, Note_off_c, 0, 77, 61
1, 47763, Note_on_c, 0, 51, 65
1, 47768, Control_c, 0, 64, 94
1, 47774, Note_off_c, 0, 79, 62
1, 47783, Control_c, 0, 64, 87
1, 47784, Note_off_c, 0, 51, 63
1, 47798, Control_c, 0, 64, 74
1, 47813, Control_c, 0, 64, 48
1, 47826, Note_on_c, 0, 83, 98
1, 47827, Note_on_c, 0, 71, 108
1, 47828, Control_c, 0, 64, 0
1, 47829, Note_on_c, 0, 80, 90
1, 47832, Note_on_c, 0, 53, 104
1, 47837, Note_on_c, 0, 41, 97
1, 47856, Control_c, 0, 64, 60
1, 47865, Note_on_c, 0, 46, 41
1, 47867, Note_off_c, 0, 41, 63
1, 47871, Control_c, 0, 64, 69
1, 47885, Control_c, 0, 64, 73
1, 47897, Note_off_c, 0, 46, 34
1, 47900, Note_off_c, 0, 80, 59
1, 47900, Control_c, 0, 64, 76
1, 47912, Note_off_c, 0, 71, 46
1, 47915, Control_c, 0, 64, 78
1, 47927, Note_off_c, 0, 83, 54
1, 47930, Control_c, 0, 64, 80
1, 47933, Note_on_c, 0, 79, 67
1, 47945, Control_c, 0, 64, 84
1, 47955, Note_off_c, 0, 53, 37
1, 47960, Control_c, 0, 64, 86
1, 47966, Note_on_c, 0, 51, 70
1, 47975, Control_c, 0, 64, 88
1, 47990, Control_c, 0, 64, 88
1, 48019, Note_on_c, 0, 77, 81
1, 48033, Note_off_c, 0, 79, 60
1, 48035, Note_off_c, 0, 51, 62
1, 48049, Note_on_c, 0, 50, 41
1, 48056, Note_off_c, 0, 77, 61
1, 48071, Control_c, 0, 64, 83
1, 48079, Note_off_c, 0, 50, 50
1, 48085, Control_c, 0, 64, 73
1, 48100, Control_c, 0, 64, 54
1, 48115, Control_c, 0, 64, 0
1, 48118, Note_on_c, 0, 84, 95
1, 48118, Note_on_c, 0, 72, 98
1, 48121, Note_on_c, 0, 75, 87
1, 48123, Note_on_c, 0, 48, 100
1, 48130, Control_c, 0, 64, 63
1, 48133, Note_on_c, 0, 36, 85
1, 48145, Control_c, 0, 64, 71
1, 48159, Note_off_c, 0, 36, 66
1, 48159, Note_off_c, 0, 48, 67
1, 48159, Note_off_c, 0, 84, 61
1, 48159, Control_c, 0, 64, 79
1, 48171, Note_off_c, 0, 75, 62
1, 48174, Control_c, 0, 64, 86
1, 48189, Control_c, 0, 64, 88
1, 48204, Control_c, 0, 64, 90
1, 48219, Control_c, 0, 64, 92
1, 48234, Note_off_c, 0, 72, 57
1, 48234, Control_c, 0, 64, 94
1, 48238, Poly_aftertouch_c, 0, 39, 0
1, 48244, Note_on_c, 0, 77, 76
1, 48249, Control_c, 0, 64, 95
1, 48250, Note_on_c, 0, 50, 71
1, 48264, Control_c, 0, 64, 97
1, 48279, Control_c, 0, 64, 97
1, 48282, Note_off_c, 0, 50, 65
1, 48293, Control_c, 0, 64, 98
1, 48308, Control_c, 0, 64, 98
1, 48321, Note_on_c, 0, 79, 75
1, 48324, Note_on_c, 0, 51, 66
1, 48326, Note_off_c, 0, 77, 59
1, 48352, Note_off_c, 0, 51, 64
1, 48353, Control_c, 0, 64, 93
1, 48360, Note_off_c, 0, 79, 60
1, 48367, Control_c, 0, 64, 83
1, 48382, Control_c, 0, 64, 68
1, 48397, Control_c, 0, 64, 0
1, 48401, Note_on_c, 0, 53, 104
1, 48401, Note_on_c, 0, 69, 104
1, 48402, Note_on_c, 0, 81, 102
1, 48409, Note_on_c, 0, 41, 92
1, 48427, Control_c, 0, 64, 64
1, 48428, Note_on_c, 0, 44, 56
1, 48432, Note_off_c, 0, 41, 71
1, 48441, Control_c, 0, 64, 71
1, 48443, Note_off_c, 0, 53, 65
1, 48446, Note_off_c, 0, 81, 60
1, 48455, Note_off_c, 0, 44, 38
1, 48456, Control_c, 0, 64, 79
1, 48471, Control_c, 0, 64, 84
1, 48485, Control_c, 0, 64, 85
1, 48490, Note_off_c, 0, 69, 41
1, 48500, Control_c, 0, 64, 86
1, 48515, Control_c, 0, 64, 88
1, 48516, Note_on_c, 0, 71, 80
1, 48531, Control_c, 0, 64, 91
1, 48542, Note_on_c, 0, 55, 63
1, 48546, Control_c, 0, 64, 93
1, 48561, Control_c, 0, 64, 95
1, 48565, Note_off_c, 0, 55, 66
1, 48576, Control_c, 0, 64, 97
1, 48590, Control_c, 0, 64, 98
1, 48596, Note_on_c, 0, 57, 76
1, 48602, Note_on_c, 0, 72, 72
1, 48609, Note_off_c, 0, 71, 56
1, 48620, Note_off_c, 0, 57, 65
1, 48627, Note_off_c, 0, 72, 67
1, 48634, Control_c, 0, 64, 90
1, 48649, Control_c, 0, 64, 78
1, 48663, Control_c, 0, 64, 60
1, 48678, Control_c, 0, 64, 0
1, 48688, Note_on_c, 0, 67, 104
1, 48691, Note_on_c, 0, 79, 99
1, 48692, Note_on_c, 0, 55, 104
1, 48693, Control_c, 0, 64, 40
1, 48698, Note_on_c, 0, 43, 91
1, 48708, Control_c, 0, 64, 66
1, 48721, Note_off_c, 0, 43, 66
1, 48723, Control_c, 0, 64, 72
1, 48729, Note_on_c, 0, 46, 41
1, 48732, Note_off_c, 0, 55, 66
1, 48738, Control_c, 0, 64, 81
1, 48747, Note_off_c, 0, 79, 52
1, 48760, Control_c, 0, 64, 86
1, 48771, Note_off_c, 0, 46, 50
1, 48775, Control_c, 0, 64, 88
1, 48789, Control_c, 0, 64, 89
1, 48794, Note_on_c, 0, 72, 64
1, 48797, Note_off_c, 0, 67, 55
1, 48804, Control_c, 0, 64, 92
1, 48819, Control_c, 0, 64, 94
1, 48834, Control_c, 0, 64, 97
1, 48849, Control_c, 0, 64, 99
1, 48858, Note_on_c, 0, 57, 35
1, 48863, Control_c, 0, 64, 101
1, 48875, Note_on_c, 0, 55, 4
1, 48878, Note_on_c, 0, 74, 78
1, 48878, Control_c, 0, 64, 101
1, 48893, Note_off_c, 0, 57, 50
1, 48908, Control_c, 0, 64, 101
1, 48910, Note_off_c, 0, 72, 63
1, 48917, Note_off_c, 0, 55, 52
1, 48920, Note_on_c, 0, 59, 42
1, 48923, Control_c, 0, 64, 95
1, 48926, Note_off_c, 0, 74, 64
1, 48938, Control_c, 0, 64, 80
1, 48946, Note_off_c, 0, 59, 54
1, 48952, Control_c, 0, 64, 64
1, 48967, Control_c, 0, 64, 0
1, 48978, Note_on_c, 0, 60, 97
1, 48978, Note_on_c, 0, 75, 96
1, 48979, Note_on_c, 0, 63, 96
1, 48982, Note_on_c, 0, 48, 96
1, 48997, Control_c, 0, 64, 64
1, 49000, Note_on_c, 0, 73, 47
1, 49008, Note_on_c, 0, 51, 50
1, 49012, Control_c, 0, 64, 71
1, 49021, Note_off_c, 0, 48, 59
1, 49024, Note_off_c, 0, 63, 65
1, 49024, Note_off_c, 0, 73, 41
1, 49027, Control_c, 0, 64, 80
1, 49036, Note_off_c, 0, 51, 59
1, 49037, Note_off_c, 0, 60, 0
1, 49041, Control_c, 0, 64, 86
1, 49055, Note_off_c, 0, 75, 64
1, 49056, Control_c, 0, 64, 87
1, 49071, Control_c, 0, 64, 88
1, 49075, Poly_aftertouch_c, 0, 60, 127
1, 49086, Note_on_c, 0, 48, 31
1, 49086, Note_on_c, 0, 74, 76
1, 49086, Control_c, 0, 64, 89
1, 49090, Poly_aftertouch_c, 0, 60, 0
1, 49093, Note_on_c, 0, 58, 71
1, 49101, Control_c, 0, 64, 90
1, 49108, Note_off_c, 0, 48, 59
1, 49115, Control_c, 0, 64, 92
1, 49120, Note_on_c, 0, 50, 5
1, 49130, Control_c, 0, 64, 95
1, 49145, Control_c, 0, 64, 96
1, 49154, Note_on_c, 0, 56, 62
1, 49155, Note_on_c, 0, 72, 73
1, 49158, Note_off_c, 0, 50, 34
1, 49158, Note_off_c, 0, 58, 65
1, 49160, Control_c, 0, 64, 97
1, 49164, Note_off_c, 0, 74, 62
1, 49175, Note_off_c, 0, 56, 63
1, 49175, Control_c, 0, 64, 96
1, 49189, Note_off_c, 0, 72, 63
1, 49189, Control_c, 0, 64, 92
1, 49204, Control_c, 0, 64, 81
1, 49219, Control_c, 0, 64, 60
1, 49233, Control_c, 0, 64, 0
1, 49241, Note_on_c, 0, 67, 97
1, 49243, Note_on_c, 0, 79, 99
1, 49245, Note_on_c, 0, 55, 100
1, 49253, Note_on_c, 0, 43, 88
1, 49263, Control_c, 0, 64, 61
1, 49268, Note_on_c, 0, 46, 59
1, 49270, Note_on_c, 0, 51, 56
1, 49278, Control_c, 0, 64, 69
1, 49293, Control_c, 0, 64, 76
1, 49294, Note_off_c, 0, 46, 56
1, 49295, Note_off_c, 0, 51, 55
1, 49307, Control_c, 0, 64, 84
1, 49312, Note_off_c, 0, 67, 54
1, 49322, Control_c, 0, 64, 86
1, 49345, Poly_aftertouch_c, 0, 76, 0
1, 49346, Note_on_c, 0, 72, 80
1, 49351, Note_off_c, 0, 55, 58
1, 49353, Control_c, 0, 64, 86
1, 49355, Note_off_c, 0, 79, 58
1, 49368, Control_c, 0, 64, 87
1, 49372, Note_on_c, 0, 50, 65
1, 49383, Control_c, 0, 64, 89
1, 49397, Note_on_c, 0, 47, 70
1, 49398, Control_c, 0, 64, 90
1, 49400, Note_on_c, 0, 74, 60
1, 49400, Note_off_c, 0, 72, 66
1, 49401, Note_off_c, 0, 43, 59
1, 49408, Note_off_c, 0, 50, 65
1, 49412, Control_c, 0, 64, 92
1, 49419, Note_off_c, 0, 74, 65
1, 49422, Note_off_c, 0, 47, 67
1, 49427, Control_c, 0, 64, 94
1, 49442, Control_c, 0, 64, 96
1, 49457, Control_c, 0, 64, 98
1, 49472, Control_c, 0, 64, 100
1, 49486, Control_c, 0, 64, 101
1, 49538, Control_c, 0, 64, 98
1, 49553, Control_c, 0, 64, 87
1, 49568, Control_c, 0, 64, 70
1, 49583, Control_c, 0, 64, 0
1, 49591, Note_on_c, 0, 77, 100
1, 49593, Note_on_c, 0, 89, 108
1, 49594, Note_on_c, 0, 41, 109
1, 49594, Note_on_c, 0, 81, 89
1, 49597, Note_on_c, 0, 29, 103
1, 49606, Note_on_c, 0, 32, 85
1, 49619, Note_on_c, 0, 34, 53
1, 49620, Note_off_c, 0, 34, 127
1, 49627, Control_c, 0, 64, 59
1, 49628, Note_on_c, 0, 37, 39
1, 49629, Note_off_c, 0, 37, 127
1, 49632, Note_off_c, 0, 32, 62
1, 49642, Control_c, 0, 64, 67
1, 49653, Note_on_c, 0, 31, 54
1, 49656, Control_c, 0, 64, 72
1, 49660, Note_off_c, 0, 29, 62
1, 49669, Note_off_c, 0, 89, 64
1, 49671, Control_c, 0, 64, 77
1, 49680, Note_off_c, 0, 31, 61
1, 49686, Control_c, 0, 64, 79
1, 49699, Note_off_c, 0, 41, 66
1, 49699, Note_off_c, 0, 81, 54
1, 49701, Control_c, 0, 64, 80
1, 49716, Control_c, 0, 64, 80
1, 49730, Control_c, 0, 64, 81
1, 49745, Control_c, 0, 64, 82
1, 49760, Control_c, 0, 64, 84
1, 49769, Note_off_c, 0, 77, 47
1, 49775, Control_c, 0, 64, 86
1, 49777, Note_on_c, 0, 82, 67
1, 49790, Control_c, 0, 64, 89
1, 49805, Control_c, 0, 64, 91
1, 49820, Control_c, 0, 64, 93
1, 49829, Note_off_c, 0, 82, 64
1, 49833, Note_on_c, 0, 45, 75
1, 49835, Control_c, 0, 64, 95
1, 49846, Note_on_c, 0, 84, 80
1, 49850, Control_c, 0, 64, 95
1, 49858, Note_off_c, 0, 45, 67
1, 49879, Control_c, 0, 64, 93
1, 49894, Note_off_c, 0, 84, 64
1, 49894, Control_c, 0, 64, 83
1, 49909, Control_c, 0, 64, 69
1, 49924, Control_c, 0, 64, 0
1, 49930, Note_on_c, 0, 73, 94
1, 49930, Note_on_c, 0, 85, 86
1, 49931, Note_on_c, 0, 46, 104
1, 49937, Note_on_c, 0, 34, 93
1, 49951, Note_on_c, 0, 37, 61
1, 49953, Control_c, 0, 64, 63
1, 49954, Note_off_c, 0, 46, 68
1, 49963, Note_off_c, 0, 85, 69
1, 49963, Note_on_c, 0, 47, 55
1, 49963, Note_off_c, 0, 34, 69
1, 49968, Control_c, 0, 64, 70
1, 49978, Note_off_c, 0, 37, 59
1, 49983, Control_c, 0, 64, 79
1, 49993, Note_off_c, 0, 47, 57
1, 49997, Note_off_c, 0, 73, 53
1, 49998, Control_c, 0, 64, 86
1, 50012, Control_c, 0, 64, 89
1, 50027, Control_c, 0, 64, 90
1, 50034, Note_on_c, 0, 75, 78
1, 50042, Control_c, 0, 64, 92
1, 50056, Control_c, 0, 64, 94
1, 50071, Control_c, 0, 64, 97
1, 50076, Note_on_c, 0, 48, 70
1, 50086, Control_c, 0, 64, 100
1, 50101, Control_c, 0, 64, 101
1, 50111, Note_on_c, 0, 77, 75
1, 50132, Note_off_c, 0, 75, 58
1, 50133, Note_off_c, 0, 48, 63
1, 50144, Note_on_c, 0, 49, 65
1, 50147, Control_c, 0, 64, 98
1, 50160, Note_off_c, 0, 77, 61
1, 50161, Control_c, 0, 64, 89
1, 50165, Note_off_c, 0, 49, 63
1, 50176, Control_c, 0, 64, 72
1, 50191, Control_c, 0, 64, 37
1, 50206, Control_c, 0, 64, 0
1, 50207, Note_on_c, 0, 81, 103
1, 50210, Note_on_c, 0, 69, 95
1, 50210, Note_on_c, 0, 51, 101
1, 50215, Note_on_c, 0, 78, 82
1, 50216, Note_on_c, 0, 39, 89
1, 50221, Control_c, 0, 64, 62
1, 50234, Note_off_c, 0, 39, 69
1, 50235, Control_c, 0, 64, 70
1, 50237, Note_off_c, 0, 78, 66
1, 50245, Note_off_c, 0, 51, 60
1, 50254, Note_on_c, 0, 52, 48
1, 50258, Control_c, 0, 64, 78
1, 50258, Note_on_c, 0, 42, 30
1, 50261, Note_off_c, 0, 69, 55
1, 50273, Control_c, 0, 64, 87
1, 50279, Note_off_c, 0, 52, 60
1, 50287, Control_c, 0, 64, 90
1, 50297, Note_off_c, 0, 42, 50
1, 50302, Control_c, 0, 64, 92
1, 50317, Control_c, 0, 64, 94
1, 50324, Note_on_c, 0, 77, 73
1, 50332, Control_c, 0, 64, 97
1, 50341, Note_off_c, 0, 81, 56
1, 50347, Control_c, 0, 64, 101
1, 50361, Control_c, 0, 64, 106
1, 50366, Note_on_c, 0, 53, 66
1, 50376, Control_c, 0, 64, 109
1, 50391, Control_c, 0, 64, 110
1, 50404, Note_on_c, 0, 75, 80
1, 50405, Note_on_c, 0, 54, 76
1, 50409, Note_off_c, 0, 53, 62
1, 50421, Control_c, 0, 64, 105
1, 50429, Note_off_c, 0, 77, 59
1, 50435, Control_c, 0, 64, 94
1, 50448, Note_off_c, 0, 54, 60
1, 50450, Control_c, 0, 64, 80
1, 50453, Note_off_c, 0, 75, 63
1, 50465, Control_c, 0, 64, 60
1, 50479, Control_c, 0, 64, 0
1, 50488, Note_on_c, 0, 58, 97
1, 50490, Note_on_c, 0, 70, 93
1, 50491, Note_on_c, 0, 82, 90
1, 50492, Note_on_c, 0, 46, 98
1, 50494, Control_c, 0, 64, 57
1, 50509, Control_c, 0, 64, 68
1, 50516, Note_off_c, 0, 46, 69
1, 50524, Control_c, 0, 64, 76
1, 50529, Note_off_c, 0, 58, 64
1, 50539, Control_c, 0, 64, 83
1, 50547, Note_off_c, 0, 82, 63
1, 50554, Control_c, 0, 64, 88
1, 50567, Note_off_c, 0, 70, 56
1, 50568, Control_c, 0, 64, 88
1, 50583, Control_c, 0, 64, 89
1, 50584, Note_on_c, 0, 75, 70
1, 50598, Control_c, 0, 64, 90
1, 50613, Control_c, 0, 64, 91
1, 50628, Control_c, 0, 64, 93
1, 50632, Note_on_c, 0, 61, 76
1, 50643, Control_c, 0, 64, 96
1, 50645, Note_on_c, 0, 59, 19
1, 50651, Note_off_c, 0, 61, 66
1, 50656, Note_off_c, 0, 75, 65
1, 50657, Control_c, 0, 64, 99
1, 50672, Control_c, 0, 64, 104
1, 50681, Note_off_c, 0, 59, 44
1, 50687, Control_c, 0, 64, 109
1, 50702, Control_c, 0, 64, 112
1, 50703, Poly_aftertouch_c, 0, 60, 0
1, 50717, Control_c, 0, 64, 112
1, 50732, Control_c, 0, 64, 112
1, 50747, Control_c, 0, 64, 105
1, 50761, Control_c, 0, 64, 91
1, 50776, Control_c, 0, 64, 74
1, 50781, Note_on_c, 0, 39, 111
1, 50783, Note_on_c, 0, 27, 99
1, 50791, Control_c, 0, 64, 0
1, 50794, Note_on_c, 0, 75, 100
1, 50795, Note_on_c, 0, 87, 101
1, 50800, Note_on_c, 0, 79, 76
1, 50811, Note_on_c, 0, 32, 44
1, 50812, Note_off_c, 0, 32, 127
1, 50812, Note_off_c, 0, 27, 65
1, 50821, Control_c, 0, 64, 39
1, 50829, Note_on_c, 0, 82, 33
1, 50835, Note_off_c, 0, 39, 61
1, 50835, Control_c, 0, 64, 66
1, 50850, Control_c, 0, 64, 71
1, 50864, Note_off_c, 0, 87, 66
1, 50865, Control_c, 0, 64, 78
1, 50866, Note_off_c, 0, 82, 32
1, 50871, Note_off_c, 0, 79, 53
1, 50879, Control_c, 0, 64, 83
1, 50894, Poly_aftertouch_c, 0, 28, 0
1, 50894, Control_c, 0, 64, 85
1, 50909, Control_c, 0, 64, 86
1, 50925, Control_c, 0, 64, 88
1, 50928, Note_off_c, 0, 75, 56
1, 50940, Control_c, 0, 64, 91
1, 50944, Note_on_c, 0, 80, 72
1, 50955, Control_c, 0, 64, 94
1, 50956, Note_on_c, 0, 41, 61
1, 50969, Control_c, 0, 64, 97
1, 50982, Note_off_c, 0, 41, 60
1, 50984, Control_c, 0, 64, 100
1, 50990, Note_on_c, 0, 82, 68
1, 51006, Control_c, 0, 64, 102
1, 51012, Note_off_c, 0, 80, 65
1, 51051, Control_c, 0, 64, 98
1, 51066, Control_c, 0, 64, 87
1, 51067, Note_off_c, 0, 82, 63
1, 51076, Poly_aftertouch_c, 0, 43, 0
1, 51081, Control_c, 0, 64, 71
1, 51084, Note_on_c, 0, 44, 105
1, 51087, Note_on_c, 0, 32, 96
1, 51090, Note_on_c, 0, 83, 82
1, 51093, Note_on_c, 0, 71, 92
1, 51096, Control_c, 0, 64, 22
1, 51105, Note_on_c, 0, 34, 62
1, 51107, Note_on_c, 0, 45, 67
1, 51110, Control_c, 0, 64, 18
1, 51112, Note_off_c, 0, 32, 69
1, 51125, Control_c, 0, 64, 64
1, 51125, Note_on_c, 0, 81, 49
1, 51130, Note_off_c, 0, 34, 60
1, 51130, Note_off_c, 0, 45, 63
1, 51130, Note_off_c, 0, 83, 55
1, 51135, Note_off_c, 0, 44, 62
1, 51140, Control_c, 0, 64, 71
1, 51149, Note_off_c, 0, 81, 38
1, 51155, Control_c, 0, 64, 78
1, 51170, Control_c, 0, 64, 85
1, 51184, Control_c, 0, 64, 89
1, 51199, Control_c, 0, 64, 90
1, 51200, Note_on_c, 0, 73, 80
1, 51212, Note_off_c, 0, 71, 58
1, 51213, Note_on_c, 0, 46, 72
1, 51214, Control_c, 0, 64, 92
1, 51229, Control_c, 0, 64, 95
1, 51244, Control_c, 0, 64, 98
1, 51254, Note_off_c, 0, 46, 62
1, 51258, Control_c, 0, 64, 100
1, 51261, Note_on_c, 0, 75, 79
1, 51273, Control_c, 0, 64, 102
1, 51288, Control_c, 0, 64, 102
1, 51291, Note_off_c, 0, 73, 63
1, 51302, Control_c, 0, 64, 102
1, 51313, Note_off_c, 0, 75, 64
1, 51317, Control_c, 0, 64, 96
1, 51332, Control_c, 0, 64, 84
1, 51347, Control_c, 0, 64, 69
1, 51355, Note_on_c, 0, 67, 98
1, 51356, Note_on_c, 0, 79, 94
1, 51357, Note_on_c, 0, 49, 102
1, 51359, Note_on_c, 0, 37, 91
1, 51362, Control_c, 0, 64, 29
1, 51366, Note_on_c, 0, 76, 75
1, 51376, Control_c, 0, 64, 34
1, 51385, Note_on_c, 0, 75, 10
1, 51386, Note_off_c, 0, 75, 127
1, 51386, Note_off_c, 0, 37, 71
1, 51391, Control_c, 0, 64, 64
1, 51406, Control_c, 0, 64, 70
1, 51409, Note_off_c, 0, 49, 61
1, 51416, Note_off_c, 0, 76, 41
1, 51421, Control_c, 0, 64, 78
1, 51436, Control_c, 0, 64, 84
1, 51450, Control_c, 0, 64, 87
1, 51465, Control_c, 0, 64, 89
1, 51474, Note_on_c, 0, 75, 60
1, 51475, Note_off_c, 0, 67, 37
1, 51480, Control_c, 0, 64, 92
1, 51493, Note_on_c, 0, 51, 60
1, 51495, Note_off_c, 0, 79, 59
1, 51495, Control_c, 0, 64, 96
1, 51510, Control_c, 0, 64, 101
1, 51523, Note_off_c, 0, 51, 64
1, 51525, Control_c, 0, 64, 104
1, 51529, Poly_aftertouch_c, 0, 76, 0
1, 51540, Control_c, 0, 64, 105
1, 51555, Note_on_c, 0, 73, 81
1, 51570, Control_c, 0, 64, 101
1, 51579, Note_off_c, 0, 75, 65
1, 51584, Control_c, 0, 64, 89
1, 51593, Note_off_c, 0, 73, 62
1, 51599, Control_c, 0, 64, 73
1, 51614, Control_c, 0, 64, 10
1, 51628, Control_c, 0, 64, 37
1, 51629, Note_on_c, 0, 80, 98
1, 51629, Note_on_c, 0, 68, 98
1, 51634, Note_on_c, 0, 44, 82
1, 51635, Note_on_c, 0, 56, 97
1, 51643, Control_c, 0, 64, 66
1, 51645, Note_on_c, 0, 73, 41
1, 51658, Control_c, 0, 64, 76
1, 51664, Note_off_c, 0, 44, 68
1, 51668, Note_off_c, 0, 73, 58
1, 51673, Control_c, 0, 64, 88
1, 51680, Note_off_c, 0, 56, 62
1, 51688, Control_c, 0, 64, 98
1, 51696, Note_off_c, 0, 80, 63
1, 51702, Control_c, 0, 64, 101
1, 51717, Control_c, 0, 64, 102
1, 51722, Poly_aftertouch_c, 0, 46, 127
1, 51733, Control_c, 0, 64, 102
1, 51734, Note_on_c, 0, 73, 79
1, 51753, Note_off_c, 0, 68, 59
1, 51755, Control_c, 0, 64, 103
1, 51757, Poly_aftertouch_c, 0, 46, 0
1, 51770, Control_c, 0, 64, 103
1, 51785, Control_c, 0, 64, 104
1, 51787, Note_on_c, 0, 59, 62
1, 51800, Control_c, 0, 64, 107
1, 51805, Note_off_c, 0, 73, 64
1, 51814, Note_off_c, 0, 59, 64
1, 51814, Control_c, 0, 64, 113
1, 51826, Note_on_c, 0, 75, 64
1, 51829, Control_c, 0, 64, 125
1, 51844, Note_off_c, 0, 75, 65
1, 51844, Control_c, 0, 64, 127
1, 51889, Control_c, 0, 64, 119
1, 51904, Control_c, 0, 64, 97
1, 51918, Control_c, 0, 64, 79
1, 51933, Control_c, 0, 64, 62
1, 51936, Note_on_c, 0, 37, 108
1, 51939, Note_on_c, 0, 85, 98
1, 51941, Note_on_c, 0, 25, 94
1, 51944, Note_on_c, 0, 77, 82
1, 51945, Note_on_c, 0, 73, 95
1, 51948, Control_c, 0, 64, 0
1, 51963, Control_c, 0, 64, 58
1, 51968, Note_off_c, 0, 25, 68
1, 51969, Note_on_c, 0, 78, 41
1, 51972, Note_on_c, 0, 30, 34
1, 51973, Note_off_c, 0, 30, 127
1, 51974, Note_on_c, 0, 27, 32
1, 51975, Note_off_c, 0, 27, 127
1, 51978, Control_c, 0, 64, 68
1, 51980, Note_on_c, 0, 86, 40
1, 51987, Note_off_c, 0, 37, 64
1, 51993, Control_c, 0, 64, 77
1, 51999, Note_off_c, 0, 78, 33
1, 52007, Control_c, 0, 64, 84
1, 52009, Note_off_c, 0, 86, 35
1, 52016, Poly_aftertouch_c, 0, 30, 0
1, 52020, Note_off_c, 0, 77, 58
1, 52022, Control_c, 0, 64, 87
1, 52031, Note_off_c, 0, 85, 61
1, 52051, Control_c, 0, 64, 87
1, 52066, Control_c, 0, 64, 88
1, 52081, Control_c, 0, 64, 91
1, 52082, Note_on_c, 0, 39, 74
1, 52086, Note_on_c, 0, 78, 69
1, 52088, Note_off_c, 0, 73, 59
1, 52096, Control_c, 0, 64, 94
1, 52111, Control_c, 0, 64, 98
1, 52119, Note_off_c, 0, 39, 62
1, 52126, Control_c, 0, 64, 100
1, 52140, Control_c, 0, 64, 102
1, 52142, Note_on_c, 0, 80, 73
1, 52155, Control_c, 0, 64, 102
1, 52177, Note_off_c, 0, 78, 62
1, 52185, Control_c, 0, 64, 100
1, 52199, Control_c, 0, 64, 91
1, 52209, Note_off_c, 0, 80, 63
1, 52214, Control_c, 0, 64, 77
1, 52217, Note_on_c, 0, 81, 83
1, 52219, Note_on_c, 0, 42, 110
1, 52223, Note_on_c, 0, 30, 93
1, 52223, Note_on_c, 0, 69, 99
1, 52229, Control_c, 0, 64, 62
1, 52237, Note_on_c, 0, 32, 73
1, 52244, Control_c, 0, 64, 21
1, 52246, Note_on_c, 0, 79, 62
1, 52252, Note_off_c, 0, 30, 67
1, 52258, Control_c, 0, 64, 60
1, 52263, Note_off_c, 0, 32, 59
1, 52266, Note_off_c, 0, 79, 57
1, 52272, Note_off_c, 0, 81, 63
1, 52273, Control_c, 0, 64, 68
1, 52288, Control_c, 0, 64, 75
1, 52291, Note_off_c, 0, 42, 58
1, 52303, Control_c, 0, 64, 81
1, 52318, Control_c, 0, 64, 84
1, 52333, Control_c, 0, 64, 85
1, 52336, Note_on_c, 0, 71, 76
1, 52339, Note_off_c, 0, 69, 62
1, 52348, Control_c, 0, 64, 87
1, 52354, Note_on_c, 0, 44, 76
1, 52363, Control_c, 0, 64, 89
1, 52377, Control_c, 0, 64, 93
1, 52389, Note_off_c, 0, 44, 66
1, 52392, Control_c, 0, 64, 96
1, 52397, Note_on_c, 0, 73, 80
1, 52407, Control_c, 0, 64, 99
1, 52416, Note_off_c, 0, 71, 59
1, 52422, Control_c, 0, 64, 100
1, 52441, Note_off_c, 0, 73, 62
1, 52466, Control_c, 0, 64, 98
1, 52481, Control_c, 0, 64, 88
1, 52503, Note_on_c, 0, 47, 107
1, 52503, Control_c, 0, 64, 74
1, 52504, Note_on_c, 0, 83, 98
1, 52509, Note_on_c, 0, 35, 98
1, 52509, Note_on_c, 0, 71, 95
1, 52518, Control_c, 0, 64, 47
1, 52526, Note_on_c, 0, 37, 62
1, 52534, Control_c, 0, 64, 0
1, 52536, Note_off_c, 0, 35, 69
1, 52549, Control_c, 0, 64, 42
1, 52552, Note_on_c, 0, 80, 23
1, 52553, Note_off_c, 0, 80, 127
1, 52553, Note_off_c, 0, 37, 37
1, 52563, Control_c, 0, 64, 65
1, 52572, Note_off_c, 0, 83, 52
1, 52578, Control_c, 0, 64, 71
1, 52586, Note_off_c, 0, 47, 55
1, 52593, Control_c, 0, 64, 77
1, 52608, Control_c, 0, 64, 81
1, 52623, Control_c, 0, 64, 82
1, 52635, Note_off_c, 0, 71, 56
1, 52636, Note_on_c, 0, 76, 68
1, 52637, Control_c, 0, 64, 84
1, 52652, Control_c, 0, 64, 86
1, 52667, Control_c, 0, 64, 90
1, 52674, Note_on_c, 0, 49, 67
1, 52682, Control_c, 0, 64, 94
1, 52696, Control_c, 0, 64, 97
1, 52711, Control_c, 0, 64, 101
1, 52713, Note_off_c, 0, 49, 59
1, 52721, Note_on_c, 0, 51, 75
1, 52726, Control_c, 0, 64, 103
1, 52729, Note_on_c, 0, 78, 81
1, 52736, Note_off_c, 0, 76, 64
1, 52741, Control_c, 0, 64, 104
1, 52746, Note_off_c, 0, 51, 66
1, 52771, Control_c, 0, 64, 102
1, 52786, Control_c, 0, 64, 93
1, 52801, Control_c, 0, 64, 77
1, 52804, Note_on_c, 0, 68, 104
1, 52804, Note_on_c, 0, 80, 94
1, 52812, Note_on_c, 0, 52, 114
1, 52816, Control_c, 0, 64, 48
1, 52818, Note_on_c, 0, 40, 100
1, 52830, Control_c, 0, 64, 0
1, 52832, Note_off_c, 0, 78, 65
1, 52838, Note_on_c, 0, 70, 44
1, 52842, Note_off_c, 0, 40, 69
1, 52851, Note_on_c, 0, 41, 47
1, 52860, Note_off_c, 0, 52, 61
1, 52860, Control_c, 0, 64, 53
1, 52865, Note_off_c, 0, 70, 39
1, 52866, Note_off_c, 0, 80, 66
1, 52874, Control_c, 0, 64, 65
1, 52882, Note_off_c, 0, 41, 54
1, 52884, Note_off_c, 0, 68, 59
1, 52889, Control_c, 0, 64, 71
1, 52904, Control_c, 0, 64, 76
1, 52919, Control_c, 0, 64, 79
1, 52934, Control_c, 0, 64, 81
1, 52944, Note_on_c, 0, 69, 73
1, 52949, Control_c, 0, 64, 82
1, 52963, Control_c, 0, 64, 84
1, 52978, Note_on_c, 0, 54, 62
1, 52978, Control_c, 0, 64, 85
1, 52993, Control_c, 0, 64, 88
1, 53008, Control_c, 0, 64, 90
1, 53015, Note_on_c, 0, 71, 77
1, 53017, Note_off_c, 0, 54, 58
1, 53022, Control_c, 0, 64, 92
1, 53029, Note_off_c, 0, 69, 63
1, 53034, Note_on_c, 0, 56, 64
1, 53037, Control_c, 0, 64, 94
1, 53052, Control_c, 0, 64, 97
1, 53053, Note_off_c, 0, 71, 59
1, 53057, Note_off_c, 0, 56, 65
1, 53067, Control_c, 0, 64, 99
1, 53081, Control_c, 0, 64, 99
1, 53112, Control_c, 0, 64, 95
1, 53127, Control_c, 0, 64, 84
1, 53139, Note_on_c, 0, 81, 111
1, 53141, Note_on_c, 0, 69, 103
1, 53142, Note_on_c, 0, 57, 104
1, 53142, Control_c, 0, 64, 65
1, 53144, Note_on_c, 0, 73, 95
1, 53147, Note_on_c, 0, 45, 92
1, 53156, Control_c, 0, 64, 0
1, 53176, Note_off_c, 0, 45, 68
1, 53186, Control_c, 0, 64, 58
1, 53200, Control_c, 0, 64, 67
1, 53206, Note_on_c, 0, 47, 4
1, 53215, Control_c, 0, 64, 74
1, 53220, Note_off_c, 0, 81, 55
1, 53230, Control_c, 0, 64, 84
1, 53236, Note_off_c, 0, 57, 58
1, 53239, Note_off_c, 0, 73, 59
1, 53253, Control_c, 0, 64, 88
1, 53268, Control_c, 0, 64, 89
1, 53272, Note_off_c, 0, 47, 50
1, 53282, Control_c, 0, 64, 90
1, 53297, Control_c, 0, 64, 90
1, 53312, Note_on_c, 0, 74, 75
1, 53312, Control_c, 0, 64, 91
1, 53320, Note_off_c, 0, 69, 60
1, 53328, Control_c, 0, 64, 91
1, 53331, Note_on_c, 0, 59, 53
1, 53343, Control_c, 0, 64, 92
1, 53358, Control_c, 0, 64, 93
1, 53365, Note_off_c, 0, 59, 63
1, 53373, Control_c, 0, 64, 94
1, 53387, Control_c, 0, 64, 95
1, 53402, Control_c, 0, 64, 97
1, 53407, Note_on_c, 0, 61, 73
1, 53415, Note_on_c, 0, 76, 80
1, 53417, Control_c, 0, 64, 99
1, 53432, Control_c, 0, 64, 101
1, 53437, Note_off_c, 0, 74, 58
1, 53447, Control_c, 0, 64, 103
1, 53448, Note_off_c, 0, 61, 57
1, 53461, Control_c, 0, 64, 104
1, 53469, Note_off_c, 0, 76, 66
1, 53476, Control_c, 0, 64, 104
1, 53491, Control_c, 0, 64, 103
1, 53505, Control_c, 0, 64, 96
1, 53520, Control_c, 0, 64, 79
1, 53529, Note_on_c, 0, 77, 101
1, 53531, Note_on_c, 0, 65, 109
1, 53533, Note_on_c, 0, 62, 101
1, 53535, Control_c, 0, 64, 58
1, 53537, Note_on_c, 0, 50, 92
1, 53550, Control_c, 0, 64, 0
1, 53579, Control_c, 0, 64, 44
1, 53594, Control_c, 0, 64, 64
1, 53609, Control_c, 0, 64, 71
1, 53624, Control_c, 0, 64, 81
1, 53631, Note_off_c, 0, 77, 57
1, 53639, Control_c, 0, 64, 89
1, 53653, Control_c, 0, 64, 91
1, 53668, Control_c, 0, 64, 92
1, 53683, Control_c, 0, 64, 92
1, 53698, Control_c, 0, 64, 93
1, 53700, Note_on_c, 0, 57, 56
1, 53709, Note_on_c, 0, 67, 89
1, 53713, Control_c, 0, 64, 93
1, 53725, Note_off_c, 0, 62, 52
1, 53730, Note_off_c, 0, 65, 57
1, 53758, Control_c, 0, 64, 94
1, 53786, Note_off_c, 0, 50, 25
1, 53822, Note_off_c, 0, 57, 61
1, 53823, Note_on_c, 0, 69, 84
1, 53829, Note_on_c, 0, 53, 68
1, 53841, Note_off_c, 0, 67, 59
1, 53846, Control_c, 0, 64, 94
1, 53856, Note_off_c, 0, 53, 68
1, 53861, Control_c, 0, 64, 95
1, 53874, Note_off_c, 0, 69, 64
1, 53876, Control_c, 0, 64, 96
1, 53891, Control_c, 0, 64, 97
1, 53905, Control_c, 0, 64, 99
1, 53920, Control_c, 0, 64, 100
1, 53950, Control_c, 0, 64, 99
1, 53965, Control_c, 0, 64, 90
1, 53979, Control_c, 0, 64, 74
1, 53987, Note_on_c, 0, 52, 104
1, 53987, Note_on_c, 0, 64, 101
1, 53987, Note_on_c, 0, 76, 98
1, 53991, Note_on_c, 0, 68, 92
1, 53994, Control_c, 0, 64, 0
1, 54003, Note_on_c, 0, 40, 86
1, 54076, Control_c, 0, 64, 62
1, 54077, Note_on_c, 0, 42, 17
1, 54078, Note_off_c, 0, 42, 127
1, 54091, Control_c, 0, 64, 68
1, 54105, Control_c, 0, 64, 72
1, 54120, Control_c, 0, 64, 73
1, 54133, Note_off_c, 0, 76, 61
1, 54136, Control_c, 0, 64, 74
1, 54151, Control_c, 0, 64, 75
1, 54153, Note_off_c, 0, 68, 62
1, 54166, Control_c, 0, 64, 77
1, 54181, Control_c, 0, 64, 80
1, 54195, Note_on_c, 0, 47, 57
1, 54196, Control_c, 0, 64, 82
1, 54210, Control_c, 0, 64, 84
1, 54224, Note_on_c, 0, 69, 94
1, 54225, Control_c, 0, 64, 84
1, 54240, Control_c, 0, 64, 85
1, 54254, Control_c, 0, 64, 86
1, 54269, Control_c, 0, 64, 88
1, 54276, Note_off_c, 0, 52, 50
1, 54284, Control_c, 0, 64, 90
1, 54299, Control_c, 0, 64, 91
1, 54314, Control_c, 0, 64, 92
1, 54328, Control_c, 0, 64, 93
1, 54343, Control_c, 0, 64, 94
1, 54358, Control_c, 0, 64, 95
1, 54373, Control_c, 0, 64, 96
1, 54388, Control_c, 0, 64, 97
1, 54402, Note_on_c, 0, 44, 67
1, 54402, Control_c, 0, 64, 98
1, 54408, Note_on_c, 0, 71, 101
1, 54410, Note_off_c, 0, 47, 65
1, 54417, Control_c, 0, 64, 99
1, 54422, Note_off_c, 0, 40, 47
1, 54432, Control_c, 0, 64, 100
1, 54434, Note_off_c, 0, 69, 42
1, 54435, Note_off_c, 0, 44, 64
1, 54446, Control_c, 0, 64, 101
1, 54461, Control_c, 0, 64, 102
1, 54476, Control_c, 0, 64, 103
1, 54491, Control_c, 0, 64, 104
1, 54498, Note_off_c, 0, 71, 52
1, 54506, Control_c, 0, 64, 105
1, 54521, Control_c, 0, 64, 107
1, 54536, Control_c, 0, 64, 108
1, 54551, Control_c, 0, 64, 110
1, 54565, Control_c, 0, 64, 111
1, 54580, Note_off_c, 0, 64, 35
1, 54580, Control_c, 0, 64, 112
1, 54594, Control_c, 0, 64, 113
1, 54609, Control_c, 0, 64, 114
1, 54624, Control_c, 0, 64, 115
1, 54639, Control_c, 0, 64, 116
1, 54653, Control_c, 0, 64, 117
1, 54668, Control_c, 0, 64, 118
1, 54683, Control_c, 0, 64, 119
1, 54698, Control_c, 0, 64, 119
1, 54713, Control_c, 0, 64, 120
1, 54727, Control_c, 0, 64, 121
1, 54754, Note_on_c, 0, 64, 109
1, 54754, Note_on_c, 0, 73, 94
1, 54756, Note_on_c, 0, 45, 87
1, 54756, Note_on_c, 0, 76, 103
1, 54757, Note_on_c, 0, 33, 84
1, 54762, Note_on_c, 0, 69, 83
1, 54765, Control_c, 0, 64, 118
1, 54780, Control_c, 0, 64, 103
1, 54795, Control_c, 0, 64, 81
1, 54809, Control_c, 0, 64, 0
1, 55691, Control_c, 0, 64, 27
1, 55706, Control_c, 0, 64, 39
1, 55722, Control_c, 0, 64, 48
1, 55737, Control_c, 0, 64, 53
1, 55752, Control_c, 0, 64, 57
1, 55767, Control_c, 0, 64, 59
1, 55781, Control_c, 0, 64, 61
1, 55796, Control_c, 0, 64, 62
1, 55811, Control_c, 0, 64, 63
1, 55826, Control_c, 0, 64, 64
1, 55841, Control_c, 0, 64, 66
1, 55855, Control_c, 0, 64, 67
1, 55870, Control_c, 0, 64, 68
1, 55885, Control_c, 0, 64, 70
1, 55899, Control_c, 0, 64, 71
1, 55914, Control_c, 0, 64, 74
1, 55929, Control_c, 0, 64, 76
1, 55944, Control_c, 0, 64, 78
1, 55959, Control_c, 0, 64, 79
1, 55973, Control_c, 0, 64, 80
1, 55988, Control_c, 0, 64, 80
1, 56003, Control_c, 0, 64, 81
1, 56018, Control_c, 0, 64, 82
1, 56047, Control_c, 0, 64, 82
1, 56062, Control_c, 0, 64, 83
1, 56077, Control_c, 0, 64, 84
1, 56092, Control_c, 0, 64, 85
1, 56107, Control_c, 0, 64, 86
1, 56122, Control_c, 0, 64, 87
1, 56137, Control_c, 0, 64, 88
1, 56152, Control_c, 0, 64, 89
1, 56166, Control_c, 0, 64, 89
1, 56181, Control_c, 0, 64, 90
1, 56196, Control_c, 0, 64, 90
1, 56211, Control_c, 0, 64, 91
1, 56248, Control_c, 0, 64, 91
1, 56263, Control_c, 0, 64, 92
1, 56293, Control_c, 0, 64, 92
1, 56307, Control_c, 0, 64, 93
1, 56337, Control_c, 0, 64, 93
1, 56367, Control_c, 0, 64, 94
1, 56423, Note_off_c, 0, 76, 50
1, 56472, Note_off_c, 0, 69, 34
1, 56482, Note_off_c, 0, 73, 64
1, 56485, Note_off_c, 0, 64, 51
1, 56724, Note_off_c, 0, 33, 35
1, 56752, Note_off_c, 0, 45, 31
1, 56827, Control_c, 0, 64, 93
1, 56841, Control_c, 0, 64, 92
1, 56856, Control_c, 0, 64, 90
1, 56871, Control_c, 0, 64, 87
1, 56886, Control_c, 0, 64, 83
1, 56901, Control_c, 0, 64, 79
1, 56915, Control_c, 0, 64, 76
1, 56930, Control_c, 0, 64, 71
1, 56945, Control_c, 0, 64, 64
1, 56960, Control_c, 0, 64, 0
1, 57339, Control_c, 0, 67, 8
1, 57353, Control_c, 0, 67, 9
1, 57368, Control_c, 0, 67, 11
1, 57383, Control_c, 0, 67, 13
1, 57398, Control_c, 0, 67, 17
1, 57413, Control_c, 0, 67, 22
1, 57427, Control_c, 0, 67, 27
1, 57442, Control_c, 0, 67, 30
1, 57457, Control_c, 0, 67, 34
1, 57472, Control_c, 0, 67, 37
1, 57487, Control_c, 0, 67, 41
1, 57502, Control_c, 0, 67, 44
1, 57517, Control_c, 0, 67, 47
1, 57531, Control_c, 0, 67, 50
1, 57546, Control_c, 0, 67, 53
1, 57561, Control_c, 0, 64, 25
1, 57561, Control_c, 0, 67, 57
1, 57576, Control_c, 0, 64, 35
1, 57576, Control_c, 0, 67, 62
1, 57591, Control_c, 0, 64, 42
1, 57591, Control_c, 0, 67, 69
1, 57606, Control_c, 0, 64, 46
1, 57606, Control_c, 0, 67, 75
1, 57620, Control_c, 0, 64, 50
1, 57620, Control_c, 0, 67, 81
1, 57635, Control_c, 0, 64, 53
1, 57635, Control_c, 0, 67, 88
1, 57650, Control_c, 0, 64, 56
1, 57650, Control_c, 0, 67, 95
1, 57664, Control_c, 0, 64, 58
1, 57664, Control_c, 0, 67, 102
1, 57679, Control_c, 0, 64, 59
1, 57679, Control_c, 0, 67, 110
1, 57694, Control_c, 0, 64, 61
1, 57694, Control_c, 0, 67, 120
1, 57709, Control_c, 0, 64, 62
1, 57709, Control_c, 0, 67, 127
1, 57724, Control_c, 0, 64, 63
1, 57739, Control_c, 0, 64, 63
1, 57761, Control_c, 0, 64, 64
1, 57776, Control_c, 0, 64, 64
1, 57791, Control_c, 0, 64, 65
1, 57806, Control_c, 0, 64, 65
1, 57820, Control_c, 0, 64, 66
1, 57835, Control_c, 0, 64, 66
1, 57850, Control_c, 0, 64, 67
1, 57865, Control_c, 0, 64, 67
1, 57879, Control_c, 0, 64, 68
1, 57894, Control_c, 0, 64, 69
1, 57909, Control_c, 0, 64, 70
1, 57924, Control_c, 0, 64, 71
1, 57939, Control_c, 0, 64, 73
1, 57953, Control_c, 0, 64, 74
1, 57968, Control_c, 0, 64, 75
1, 57983, Control_c, 0, 64, 76
1, 57997, Control_c, 0, 64, 78
1, 58012, Control_c, 0, 64, 80
1, 58027, Control_c, 0, 64, 82
1, 58042, Control_c, 0, 64, 83
1, 58057, Control_c, 0, 64, 84
1, 58071, Control_c, 0, 64, 85
1, 58086, Control_c, 0, 64, 86
1, 58101, Control_c, 0, 64, 87
1, 58117, Control_c, 0, 64, 87
1, 58146, Note_on_c, 0, 64, 47
1, 58147, Control_c, 0, 64, 88
1, 58155, Note_on_c, 0, 52, 39
1, 58191, Control_c, 0, 64, 88
1, 58206, Control_c, 0, 64, 89
1, 58236, Control_c, 0, 64, 89
1, 58280, Control_c, 0, 64, 90
1, 58359, Note_off_c, 0, 52, 41
1, 58369, Note_off_c, 0, 64, 37
1, 58442, Control_c, 0, 64, 90
1, 58656, Note_on_c, 0, 33, 27
1, 58657, Control_c, 0, 64, 90
1, 58687, Control_c, 0, 64, 89
1, 58701, Control_c, 0, 64, 85
1, 58716, Control_c, 0, 64, 76
1, 58728, Note_on_c, 0, 65, 50
1, 58731, Control_c, 0, 64, 63
1, 58736, Note_on_c, 0, 53, 26
1, 58746, Control_c, 0, 64, 0
1, 58834, Control_c, 0, 64, 53
1, 58849, Control_c, 0, 64, 60
1, 58864, Control_c, 0, 64, 63
1, 58879, Control_c, 0, 64, 66
1, 58894, Control_c, 0, 64, 69
1, 58902, Note_off_c, 0, 33, 44
1, 58909, Control_c, 0, 64, 72
1, 58924, Control_c, 0, 64, 75
1, 58939, Control_c, 0, 64, 77
1, 58954, Control_c, 0, 64, 79
1, 58969, Control_c, 0, 64, 80
1, 58984, Control_c, 0, 64, 81
1, 58998, Control_c, 0, 64, 82
1, 59013, Control_c, 0, 64, 82
1, 59043, Control_c, 0, 64, 83
1, 59058, Control_c, 0, 64, 84
1, 59064, Note_off_c, 0, 53, 42
1, 59066, Note_off_c, 0, 65, 32
1, 59073, Control_c, 0, 64, 84
1, 59117, Control_c, 0, 64, 85
1, 59162, Note_on_c, 0, 48, 33
1, 59221, Control_c, 0, 64, 85
1, 59257, Control_c, 0, 64, 86
1, 59269, Note_on_c, 0, 64, 57
1, 59285, Note_on_c, 0, 52, 38
1, 59302, Control_c, 0, 64, 86
1, 59317, Control_c, 0, 64, 87
1, 59335, Note_off_c, 0, 52, 47
1, 59362, Control_c, 0, 64, 87
1, 59382, Note_off_c, 0, 48, 41
1, 59421, Control_c, 0, 64, 88
1, 59431, Note_on_c, 0, 40, 22
1, 59452, Note_off_c, 0, 64, 61
1, 59480, Control_c, 0, 64, 88
1, 59634, Note_on_c, 0, 72, 72
1, 59645, Note_on_c, 0, 60, 53
1, 59657, Note_on_c, 0, 52, 38
1, 59702, Control_c, 0, 67, 127
1, 59718, Control_c, 0, 67, 120
1, 59733, Control_c, 0, 67, 116
1, 59747, Control_c, 0, 67, 112
1, 59762, Control_c, 0, 67, 110
1, 59766, Note_off_c, 0, 40, 12
1, 59771, Note_off_c, 0, 72, 56
1, 59777, Control_c, 0, 67, 109
1, 59792, Control_c, 0, 67, 107
1, 59807, Control_c, 0, 64, 89
1, 59807, Control_c, 0, 67, 105
1, 59817, Note_off_c, 0, 60, 58
1, 59821, Control_c, 0, 67, 101
1, 59831, Note_off_c, 0, 52, 42
1, 59837, Control_c, 0, 67, 98
1, 59852, Control_c, 0, 67, 94
1, 59866, Control_c, 0, 67, 89
1, 59871, Note_on_c, 0, 45, 30
1, 59881, Control_c, 0, 67, 86
1, 59896, Control_c, 0, 67, 82
1, 59911, Control_c, 0, 67, 80
1, 59926, Control_c, 0, 67, 78
1, 59940, Control_c, 0, 67, 76
1, 59955, Control_c, 0, 67, 75
1, 59956, Note_on_c, 0, 69, 82
1, 59970, Note_on_c, 0, 57, 58
1, 59970, Control_c, 0, 67, 73
1, 59993, Control_c, 0, 67, 73
1, 60022, Control_c, 0, 67, 72
1, 60033, Note_off_c, 0, 57, 0
1, 60033, Note_on_c, 0, 57, 8
1, 60037, Control_c, 0, 67, 72
1, 60046, Note_on_c, 0, 36, 47
1, 60086, Note_off_c, 0, 36, 54
1, 60111, Control_c, 0, 67, 72
1, 60140, Control_c, 0, 67, 73
1, 60155, Note_off_c, 0, 69, 54
1, 60183, Note_off_c, 0, 57, 51
1, 60185, Control_c, 0, 67, 73
1, 60229, Control_c, 0, 67, 74
1, 60244, Control_c, 0, 67, 75
1, 60259, Control_c, 0, 64, 88
1, 60259, Control_c, 0, 67, 75
1, 60274, Control_c, 0, 64, 82
1, 60274, Control_c, 0, 67, 76
1, 60278, Note_on_c, 0, 40, 51
1, 60285, Note_on_c, 0, 67, 84
1, 60289, Control_c, 0, 64, 70
1, 60295, Note_on_c, 0, 55, 65
1, 60304, Control_c, 0, 64, 0
1, 60304, Control_c, 0, 67, 77
1, 60313, Note_off_c, 0, 45, 45
1, 60378, Control_c, 0, 64, 57
1, 60392, Control_c, 0, 64, 64
1, 60407, Control_c, 0, 64, 68
1, 60411, Note_off_c, 0, 55, 55
1, 60422, Control_c, 0, 64, 72
1, 60437, Control_c, 0, 64, 75
1, 60437, Control_c, 0, 67, 76
1, 60440, Note_off_c, 0, 40, 47
1, 60452, Control_c, 0, 64, 78
1, 60466, Control_c, 0, 64, 80
1, 60466, Control_c, 0, 67, 76
1, 60481, Control_c, 0, 64, 82
1, 60481, Control_c, 0, 67, 75
1, 60496, Control_c, 0, 64, 83
1, 60508, Note_off_c, 0, 67, 58
1, 60512, Control_c, 0, 64, 83
1, 60527, Control_c, 0, 64, 84
1, 60542, Control_c, 0, 64, 84
1, 60601, Control_c, 0, 67, 75
1, 60616, Control_c, 0, 67, 74
1, 60623, Note_on_c, 0, 55, 30
1, 60632, Note_on_c, 0, 72, 92
1, 60658, Note_on_c, 0, 60, 51
1, 60660, Control_c, 0, 67, 75
1, 60689, Control_c, 0, 67, 74
1, 60713, Note_off_c, 0, 60, 36
1, 60760, Note_off_c, 0, 55, 41
1, 60787, Note_on_c, 0, 48, 33
1, 60825, Note_off_c, 0, 48, 51
1, 60825, Note_off_c, 0, 72, 63
1, 60845, Control_c, 0, 67, 74
1, 60860, Control_c, 0, 67, 73
1, 60904, Control_c, 0, 64, 85
1, 60945, Note_on_c, 0, 76, 96
1, 60959, Note_on_c, 0, 64, 67
1, 60974, Note_on_c, 0, 60, 40
1, 61082, Control_c, 0, 67, 74
1, 61100, Note_off_c, 0, 60, 34
1, 61142, Note_on_c, 0, 52, 49
1, 61144, Note_off_c, 0, 76, 62
1, 61158, Note_off_c, 0, 64, 60
1, 61171, Control_c, 0, 67, 74
1, 61178, Note_off_c, 0, 52, 66
1, 61239, Note_on_c, 0, 74, 93
1, 61250, Note_on_c, 0, 62, 75
1, 61320, Control_c, 0, 67, 75
1, 61361, Note_on_c, 0, 44, 45
1, 61363, Control_c, 0, 67, 74
1, 61408, Note_off_c, 0, 62, 53
1, 61430, Note_off_c, 0, 74, 46
1, 61432, Note_off_c, 0, 44, 52
1, 61451, Control_c, 0, 67, 75
1, 61481, Control_c, 0, 64, 85
1, 61481, Control_c, 0, 67, 75
1, 61504, Control_c, 0, 64, 85
1, 61514, Note_on_c, 0, 45, 50
1, 61518, Control_c, 0, 64, 82
1, 61533, Control_c, 0, 64, 73
1, 61533, Control_c, 0, 67, 76
1, 61548, Control_c, 0, 64, 52
1, 61550, Note_on_c, 0, 72, 79
1, 61563, Control_c, 0, 64, 0
1, 61565, Note_on_c, 0, 60, 60
1, 61578, Control_c, 0, 67, 75
1, 61622, Control_c, 0, 64, 60
1, 61636, Control_c, 0, 64, 67
1, 61651, Control_c, 0, 64, 72
1, 61654, Note_off_c, 0, 45, 58
1, 61654, Note_off_c, 0, 60, 51
1, 61666, Control_c, 0, 64, 77
1, 61681, Control_c, 0, 64, 82
1, 61696, Control_c, 0, 64, 84
1, 61711, Control_c, 0, 64, 85
1, 61711, Control_c, 0, 67, 75
1, 61726, Control_c, 0, 64, 86
1, 61726, Control_c, 0, 67, 74
1, 61740, Control_c, 0, 64, 87
1, 61757, Note_off_c, 0, 72, 59
1, 61770, Control_c, 0, 64, 87
1, 61817, Note_on_c, 0, 60, 41
1, 61844, Control_c, 0, 67, 74
1, 61859, Control_c, 0, 67, 73
1, 61893, Note_on_c, 0, 77, 92
1, 61910, Note_on_c, 0, 65, 70
1, 61949, Note_off_c, 0, 60, 56
1, 61960, Note_off_c, 0, 65, 43
1, 61963, Control_c, 0, 67, 73
1, 61997, Note_on_c, 0, 53, 28
1, 62007, Control_c, 0, 67, 72
1, 62032, Note_off_c, 0, 53, 50
1, 62071, Note_off_c, 0, 77, 58
1, 62081, Control_c, 0, 67, 72
1, 62112, Control_c, 0, 67, 71
1, 62204, Note_on_c, 0, 81, 93
1, 62215, Control_c, 0, 67, 71
1, 62223, Note_on_c, 0, 69, 64
1, 62229, Note_on_c, 0, 65, 32
1, 62230, Control_c, 0, 67, 70
1, 62253, Control_c, 0, 67, 69
1, 62267, Control_c, 0, 67, 68
1, 62282, Control_c, 0, 67, 66
1, 62297, Control_c, 0, 67, 66
1, 62301, Note_off_c, 0, 69, 0
1, 62301, Note_on_c, 0, 69, 8
1, 62304, Note_off_c, 0, 65, 38
1, 62312, Control_c, 0, 67, 65
1, 62356, Control_c, 0, 67, 65
1, 62411, Note_off_c, 0, 81, 51
1, 62427, Note_off_c, 0, 69, 42
1, 62433, Note_on_c, 0, 57, 36
1, 62473, Note_off_c, 0, 57, 55
1, 62525, Note_on_c, 0, 79, 79
1, 62535, Note_on_c, 0, 67, 62
1, 62641, Note_off_c, 0, 67, 53
1, 62668, Note_off_c, 0, 79, 38
1, 62691, Note_on_c, 0, 49, 33
1, 62800, Control_c, 0, 67, 65
1, 62814, Note_off_c, 0, 49, 38
1, 62846, Control_c, 0, 64, 87
1, 62846, Control_c, 0, 67, 66
1, 62860, Note_on_c, 0, 50, 41
1, 62860, Control_c, 0, 64, 82
1, 62860, Control_c, 0, 67, 66
1, 62871, Note_on_c, 0, 77, 63
1, 62875, Control_c, 0, 64, 71
1, 62888, Note_on_c, 0, 65, 40
1, 62890, Control_c, 0, 64, 0
1, 62890, Control_c, 0, 67, 67
1, 62987, Control_c, 0, 64, 57
1, 63002, Control_c, 0, 64, 64
1, 63017, Control_c, 0, 64, 65
1, 63032, Control_c, 0, 64, 67
1, 63046, Control_c, 0, 64, 70
1, 63061, Control_c, 0, 64, 73
1, 63076, Control_c, 0, 64, 76
1, 63083, Note_off_c, 0, 77, 54
1, 63091, Control_c, 0, 64, 78
1, 63091, Control_c, 0, 67, 67
1, 63103, Note_on_c, 0, 62, 33
1, 63106, Control_c, 0, 64, 79
1, 63121, Note_off_c, 0, 65, 41
1, 63121, Control_c, 0, 64, 79
1, 63136, Control_c, 0, 67, 68
1, 63150, Control_c, 0, 64, 80
1, 63150, Control_c, 0, 67, 68
1, 63210, Note_on_c, 0, 76, 69
1, 63224, Note_on_c, 0, 64, 54
1, 63224, Note_off_c, 0, 50, 17
1, 63243, Note_off_c, 0, 62, 38
1, 63298, Control_c, 0, 67, 68
1, 63313, Control_c, 0, 67, 67
1, 63329, Note_on_c, 0, 57, 26
1, 63350, Note_off_c, 0, 64, 41
1, 63354, Note_off_c, 0, 76, 38
1, 63372, Control_c, 0, 67, 67
1, 63387, Control_c, 0, 67, 66
1, 63431, Control_c, 0, 67, 66
1, 63461, Control_c, 0, 67, 65
1, 63473, Note_off_c, 0, 57, 23
1, 63498, Note_on_c, 0, 74, 64
1, 63505, Control_c, 0, 67, 65
1, 63517, Note_on_c, 0, 62, 49
1, 63524, Note_on_c, 0, 59, 28
1, 63550, Control_c, 0, 67, 64
1, 63565, Control_c, 0, 67, 64
1, 63580, Control_c, 0, 67, 63
1, 63595, Control_c, 0, 67, 60
1, 63598, Note_off_c, 0, 62, 45
1, 63609, Control_c, 0, 67, 54
1, 63624, Control_c, 0, 67, 48
1, 63639, Control_c, 0, 67, 44
1, 63654, Control_c, 0, 67, 39
1, 63669, Control_c, 0, 67, 35
1, 63683, Control_c, 0, 67, 32
1, 63698, Note_off_c, 0, 74, 47
1, 63698, Control_c, 0, 67, 31
1, 63714, Control_c, 0, 67, 30
1, 63720, Note_off_c, 0, 59, 32
1, 63736, Control_c, 0, 67, 29
1, 63738, Note_on_c, 0, 57, 26
1, 63751, Control_c, 0, 67, 27
1, 63766, Control_c, 0, 67, 24
1, 63781, Control_c, 0, 67, 22
1, 63795, Control_c, 0, 67, 19
1, 63810, Control_c, 0, 67, 17
1, 63816, Note_on_c, 0, 75, 75
1, 63825, Control_c, 0, 67, 16
1, 63831, Note_on_c, 0, 63, 52
1, 63839, Control_c, 0, 67, 15
1, 63854, Control_c, 0, 67, 14
1, 63869, Control_c, 0, 67, 13
1, 63899, Control_c, 0, 67, 12
1, 63914, Control_c, 0, 67, 12
1, 63937, Note_off_c, 0, 57, 17
1, 63952, Note_off_c, 0, 63, 38
1, 63992, Note_on_c, 0, 53, 37
1, 64032, Control_c, 0, 67, 12
1, 64062, Control_c, 0, 67, 13
1, 64077, Control_c, 0, 67, 13
1, 64092, Control_c, 0, 67, 14
1, 64106, Control_c, 0, 67, 14
1, 64121, Control_c, 0, 67, 15
1, 64136, Control_c, 0, 67, 16
1, 64151, Control_c, 0, 67, 17
1, 64160, Note_off_c, 0, 53, 41
1, 64166, Control_c, 0, 67, 17
1, 64180, Control_c, 0, 67, 18
1, 64210, Control_c, 0, 67, 19
1, 64217, Note_off_c, 0, 75, 23
1, 64238, Note_on_c, 0, 52, 38
1, 64254, Control_c, 0, 64, 79
1, 64254, Control_c, 0, 67, 20
1, 64269, Control_c, 0, 64, 77
1, 64269, Control_c, 0, 67, 20
1, 64284, Control_c, 0, 64, 71
1, 64284, Control_c, 0, 67, 21
1, 64292, Note_on_c, 0, 77, 56
1, 64299, Control_c, 0, 64, 58
1, 64299, Control_c, 0, 67, 22
1, 64302, Note_on_c, 0, 65, 41
1, 64313, Control_c, 0, 64, 0
1, 64313, Control_c, 0, 67, 23
1, 64328, Control_c, 0, 67, 24
1, 64343, Control_c, 0, 67, 26
1, 64358, Control_c, 0, 67, 30
1, 64373, Control_c, 0, 67, 38
1, 64388, Control_c, 0, 64, 46
1, 64388, Control_c, 0, 67, 47
1, 64402, Control_c, 0, 64, 58
1, 64402, Control_c, 0, 67, 58
1, 64417, Control_c, 0, 64, 63
1, 64417, Control_c, 0, 67, 68
1, 64432, Control_c, 0, 64, 64
1, 64432, Control_c, 0, 67, 77
1, 64447, Control_c, 0, 64, 66
1, 64447, Control_c, 0, 67, 86
1, 64462, Control_c, 0, 64, 69
1, 64462, Control_c, 0, 67, 96
1, 64484, Control_c, 0, 64, 72
1, 64484, Control_c, 0, 67, 104
1, 64499, Control_c, 0, 64, 75
1, 64499, Control_c, 0, 67, 109
1, 64505, Note_off_c, 0, 77, 37
1, 64515, Control_c, 0, 64, 76
1, 64515, Control_c, 0, 67, 111
1, 64528, Note_off_c, 0, 65, 37
1, 64530, Control_c, 0, 64, 77
1, 64530, Control_c, 0, 67, 112
1, 64544, Control_c, 0, 64, 78
1, 64544, Control_c, 0, 67, 113
1, 64559, Control_c, 0, 64, 78
1, 64559, Control_c, 0, 67, 115
1, 64566, Note_on_c, 0, 60, 32
1, 64574, Control_c, 0, 64, 79
1, 64574, Control_c, 0, 67, 119
1, 64589, Control_c, 0, 64, 80
1, 64589, Control_c, 0, 67, 123
1, 64604, Control_c, 0, 67, 126
1, 64618, Control_c, 0, 64, 80
1, 64618, Control_c, 0, 67, 127
1, 64633, Control_c, 0, 64, 81
1, 64648, Control_c, 0, 64, 81
1, 64656, Note_on_c, 0, 76, 61
1, 64672, Note_on_c, 0, 64, 40
1, 64677, Control_c, 0, 64, 82
1, 64692, Control_c, 0, 64, 82
1, 64706, Note_off_c, 0, 64, 49
1, 64722, Control_c, 0, 64, 83
1, 64747, Note_off_c, 0, 60, 38
1, 64798, Note_off_c, 0, 76, 59
1, 64799, Note_on_c, 0, 57, 36
1, 64862, Note_off_c, 0, 52, 38
1, 64936, Note_off_c, 0, 57, 32
1, 64987, Note_on_c, 0, 84, 68
1, 65020, Note_on_c, 0, 72, 15
1, 65030, Note_on_c, 0, 64, 30
1, 65088, Note_off_c, 0, 84, 55
1, 65154, Note_off_c, 0, 64, 36
1, 65160, Note_off_c, 0, 72, 41
1, 65193, Note_on_c, 0, 57, 33
1, 65300, Note_on_c, 0, 81, 77
1, 65319, Note_on_c, 0, 69, 48
1, 65355, Note_off_c, 0, 69, 47
1, 65359, Note_on_c, 0, 48, 47
1, 65371, Note_off_c, 0, 57, 32
1, 65398, Note_off_c, 0, 48, 49
1, 65437, Note_off_c, 0, 81, 38
1, 65505, Poly_aftertouch_c, 0, 57, 127
1, 65544, Control_c, 0, 64, 82
1, 65559, Control_c, 0, 64, 77
1, 65574, Control_c, 0, 64, 64
1, 65577, Note_on_c, 0, 52, 47
1, 65588, Note_on_c, 0, 79, 75
1, 65589, Control_c, 0, 64, 0
1, 65601, Poly_aftertouch_c, 0, 57, 0
1, 65604, Note_on_c, 0, 67, 46
1, 65618, Control_c, 0, 64, 36
1, 65633, Control_c, 0, 64, 59
1, 65643, Note_off_c, 0, 67, 45
1, 65648, Control_c, 0, 64, 64
1, 65663, Control_c, 0, 64, 68
1, 65677, Control_c, 0, 64, 74
1, 65691, Note_off_c, 0, 52, 56
1, 65692, Control_c, 0, 64, 79
1, 65707, Control_c, 0, 64, 81
1, 65722, Control_c, 0, 64, 82
1, 65751, Control_c, 0, 64, 83
1, 65766, Control_c, 0, 64, 83
1, 65779, Note_off_c, 0, 79, 52
1, 65796, Control_c, 0, 64, 84
1, 65863, Note_on_c, 0, 67, 47
1, 65913, Note_on_c, 0, 84, 85
1, 65927, Note_on_c, 0, 72, 63
1, 65967, Note_off_c, 0, 72, 43
1, 66016, Note_off_c, 0, 67, 42
1, 66042, Note_on_c, 0, 60, 46
1, 66081, Note_off_c, 0, 60, 52
1, 66084, Note_off_c, 0, 84, 61
1, 66203, Note_on_c, 0, 88, 94
1, 66218, Note_on_c, 0, 76, 67
1, 66240, Note_on_c, 0, 72, 41
1, 66357, Note_off_c, 0, 72, 36
1, 66374, Note_off_c, 0, 88, 54
1, 66390, Note_off_c, 0, 76, 61
1, 66400, Note_on_c, 0, 64, 49
1, 66451, Note_off_c, 0, 64, 60
1, 66496, Note_on_c, 0, 86, 94
1, 66504, Note_on_c, 0, 74, 79
1, 66615, Note_on_c, 0, 56, 54
1, 66656, Note_off_c, 0, 56, 62
1, 66674, Note_off_c, 0, 86, 53
1, 66682, Note_off_c, 0, 74, 54
1, 66766, Note_on_c, 0, 57, 64
1, 66775, Control_c, 0, 64, 83
1, 66790, Control_c, 0, 64, 77
1, 66805, Control_c, 0, 64, 64
1, 66811, Note_on_c, 0, 84, 90
1, 66820, Control_c, 0, 64, 0
1, 66820, Note_on_c, 0, 72, 71
1, 66879, Control_c, 0, 64, 57
1, 66894, Control_c, 0, 64, 65
1, 66900, Note_off_c, 0, 72, 50
1, 66909, Control_c, 0, 64, 69
1, 66918, Note_off_c, 0, 57, 56
1, 66924, Control_c, 0, 64, 75
1, 66939, Control_c, 0, 64, 79
1, 66954, Control_c, 0, 64, 80
1, 66969, Control_c, 0, 64, 81
1, 66984, Control_c, 0, 64, 81
1, 67008, Note_off_c, 0, 84, 62
1, 67013, Control_c, 0, 64, 82
1, 67110, Note_on_c, 0, 89, 98
1, 67119, Note_on_c, 0, 77, 77
1, 67201, Note_off_c, 0, 77, 47
1, 67228, Note_on_c, 0, 65, 45
1, 67261, Note_off_c, 0, 65, 53
1, 67279, Note_off_c, 0, 89, 64
1, 67404, Note_on_c, 0, 93, 100
1, 67413, Note_on_c, 0, 81, 75
1, 67420, Note_on_c, 0, 77, 49
1, 67544, Note_off_c, 0, 77, 25
1, 67613, Note_off_c, 0, 93, 57
1, 67616, Note_on_c, 0, 69, 37
1, 67622, Note_off_c, 0, 81, 57
1, 67652, Note_off_c, 0, 69, 52
1, 67730, Note_on_c, 0, 91, 94
1, 67741, Note_on_c, 0, 79, 69
1, 67782, Note_off_c, 0, 79, 42
1, 67865, Note_on_c, 0, 61, 38
1, 67868, Note_off_c, 0, 91, 38
1, 67902, Note_off_c, 0, 61, 56
1, 68007, Note_on_c, 0, 62, 41
1, 68028, Control_c, 0, 64, 81
1, 68043, Control_c, 0, 64, 78
1, 68051, Note_on_c, 0, 89, 64
1, 68057, Note_on_c, 0, 77, 44
1, 68058, Control_c, 0, 64, 70
1, 68072, Control_c, 0, 64, 0
1, 68147, Control_c, 0, 64, 16
1, 68161, Control_c, 0, 64, 55
1, 68176, Control_c, 0, 64, 61
1, 68191, Control_c, 0, 64, 63
1, 68206, Control_c, 0, 64, 65
1, 68228, Control_c, 0, 64, 66
1, 68243, Control_c, 0, 64, 68
1, 68258, Control_c, 0, 64, 70
1, 68273, Note_off_c, 0, 62, 23
1, 68273, Control_c, 0, 64, 71
1, 68277, Note_off_c, 0, 89, 38
1, 68285, Note_off_c, 0, 77, 48
1, 68287, Control_c, 0, 64, 72
1, 68294, Note_on_c, 0, 74, 28
1, 68302, Control_c, 0, 64, 72
1, 68361, Control_c, 0, 64, 73
1, 68376, Control_c, 0, 64, 74
1, 68391, Control_c, 0, 64, 74
1, 68409, Note_on_c, 0, 88, 69
1, 68418, Note_on_c, 0, 76, 54
1, 68433, Note_off_c, 0, 74, 32
1, 68436, Control_c, 0, 64, 75
1, 68510, Control_c, 0, 64, 75
1, 68528, Note_off_c, 0, 76, 34
1, 68551, Note_on_c, 0, 69, 19
1, 68551, Note_off_c, 0, 88, 35
1, 68600, Control_c, 0, 64, 76
1, 68644, Control_c, 0, 64, 76
1, 68698, Note_on_c, 0, 86, 63
1, 68703, Control_c, 0, 64, 77
1, 68710, Note_on_c, 0, 74, 46
1, 68714, Note_off_c, 0, 69, 38
1, 68754, Note_on_c, 0, 71, 26
1, 68779, Note_off_c, 0, 74, 44
1, 68807, Control_c, 0, 64, 77
1, 68904, Note_off_c, 0, 71, 29
1, 68910, Note_off_c, 0, 86, 38
1, 68942, Note_on_c, 0, 69, 34
1, 69023, Note_on_c, 0, 87, 67
1, 69041, Note_on_c, 0, 75, 42
1, 69116, Note_off_c, 0, 69, 38
1, 69153, Note_off_c, 0, 75, 28
1, 69170, Note_on_c, 0, 65, 37
1, 69279, Note_off_c, 0, 87, 29
1, 69437, Control_c, 0, 64, 77
1, 69448, Note_on_c, 0, 89, 51
1, 69451, Control_c, 0, 64, 75
1, 69456, Note_on_c, 0, 73, 65
1, 69465, Note_on_c, 0, 77, 35
1, 69466, Control_c, 0, 64, 70
1, 69481, Control_c, 0, 64, 52
1, 69496, Control_c, 0, 64, 0
1, 69570, Control_c, 0, 64, 54
1, 69585, Control_c, 0, 64, 62
1, 69600, Control_c, 0, 64, 65
1, 69601, Note_off_c, 0, 65, 16
1, 69615, Control_c, 0, 64, 66
1, 69630, Control_c, 0, 64, 68
1, 69638, Note_off_c, 0, 77, 37
1, 69644, Control_c, 0, 64, 69
1, 69655, Note_off_c, 0, 89, 36
1, 69659, Control_c, 0, 64, 71
1, 69674, Control_c, 0, 64, 72
1, 69689, Control_c, 0, 64, 73
1, 69741, Control_c, 0, 64, 73
1, 69779, Note_on_c, 0, 69, 28
1, 69829, Note_on_c, 0, 88, 65
1, 69843, Note_on_c, 0, 76, 49
1, 69898, Note_off_c, 0, 73, 20
1, 69918, Note_off_c, 0, 69, 41
1, 69949, Note_off_c, 0, 88, 38
1, 69953, Note_off_c, 0, 76, 37
1, 70014, Poly_aftertouch_c, 0, 64, 127
1, 70121, Note_on_c, 0, 85, 71
1, 70129, Note_on_c, 0, 70, 45
1, 70134, Poly_aftertouch_c, 0, 64, 0
1, 70138, Note_on_c, 0, 73, 51
1, 70186, Control_c, 0, 64, 74
1, 70280, Note_off_c, 0, 85, 63
1, 70293, Note_off_c, 0, 73, 58
1, 70305, Control_c, 0, 64, 74
1, 70308, Note_off_c, 0, 70, 42
1, 70327, Note_on_c, 0, 67, 37
1, 70379, Control_c, 0, 64, 75
1, 70418, Note_on_c, 0, 82, 83
1, 70426, Note_on_c, 0, 70, 65
1, 70483, Note_off_c, 0, 67, 48
1, 70512, Note_on_c, 0, 64, 46
1, 70549, Control_c, 0, 64, 75
1, 70549, Control_c, 0, 67, 127
1, 70564, Control_c, 0, 67, 126
1, 70579, Control_c, 0, 67, 125
1, 70594, Control_c, 0, 67, 124
1, 70600, Note_off_c, 0, 64, 59
1, 70608, Control_c, 0, 67, 124
1, 70614, Note_off_c, 0, 82, 61
1, 70619, Note_off_c, 0, 70, 56
1, 70623, Control_c, 0, 67, 123
1, 70638, Control_c, 0, 67, 123
1, 70719, Note_on_c, 0, 80, 80
1, 70725, Note_on_c, 0, 65, 45
1, 70726, Control_c, 0, 64, 73
1, 70726, Control_c, 0, 67, 123
1, 70731, Note_on_c, 0, 68, 61
1, 70741, Control_c, 0, 64, 67
1, 70741, Control_c, 0, 67, 124
1, 70756, Control_c, 0, 64, 47
1, 70756, Control_c, 0, 67, 124
1, 70771, Control_c, 0, 64, 0
1, 70786, Control_c, 0, 67, 125
1, 70800, Control_c, 0, 67, 125
1, 70830, Control_c, 0, 64, 28
1, 70845, Control_c, 0, 64, 54
1, 70845, Control_c, 0, 67, 126
1, 70860, Control_c, 0, 64, 61
1, 70860, Control_c, 0, 67, 126
1, 70874, Control_c, 0, 64, 63
1, 70889, Control_c, 0, 64, 65
1, 70905, Control_c, 0, 64, 66
1, 70905, Control_c, 0, 67, 127
1, 70920, Control_c, 0, 64, 68
1, 70922, Note_on_c, 0, 62, 39
1, 70935, Control_c, 0, 64, 69
1, 70950, Control_c, 0, 64, 70
1, 70965, Control_c, 0, 64, 70
1, 70975, Note_off_c, 0, 68, 49
1, 70979, Control_c, 0, 64, 71
1, 70994, Control_c, 0, 64, 71
1, 70994, Control_c, 0, 67, 127
1, 71009, Control_c, 0, 64, 72
1, 71023, Control_c, 0, 64, 73
1, 71034, Note_off_c, 0, 65, 35
1, 71038, Control_c, 0, 64, 73
1, 71053, Control_c, 0, 64, 74
1, 71055, Note_on_c, 0, 81, 82
1, 71057, Note_on_c, 0, 69, 65
1, 71068, Control_c, 0, 64, 74
1, 71083, Control_c, 0, 64, 75
1, 71098, Note_off_c, 0, 80, 66
1, 71127, Note_off_c, 0, 69, 52
1, 71160, Note_on_c, 0, 57, 31
1, 71194, Note_off_c, 0, 62, 30
1, 71207, Note_off_c, 0, 81, 59
1, 71324, Note_off_c, 0, 57, 42
1, 71356, Note_on_c, 0, 62, 34
1, 71356, Note_on_c, 0, 85, 85
1, 71369, Note_on_c, 0, 73, 64
1, 71402, Control_c, 0, 64, 74
1, 71530, Note_on_c, 0, 57, 45
1, 71569, Note_off_c, 0, 73, 50
1, 71656, Note_on_c, 0, 86, 84
1, 71659, Note_on_c, 0, 74, 66
1, 71689, Note_off_c, 0, 85, 66
1, 71741, Note_off_c, 0, 57, 36
1, 71750, Note_off_c, 0, 62, 36
1, 71765, Note_on_c, 0, 53, 52
1, 71796, Note_off_c, 0, 74, 55
1, 71797, Note_off_c, 0, 53, 57
1, 71831, Note_off_c, 0, 86, 62
1, 72063, Note_on_c, 0, 87, 67
1, 72069, Note_on_c, 0, 68, 73
1, 72072, Note_on_c, 0, 75, 52
1, 72076, Control_c, 0, 64, 74
1, 72091, Control_c, 0, 64, 70
1, 72106, Control_c, 0, 64, 61
1, 72120, Control_c, 0, 64, 0
1, 72209, Control_c, 0, 64, 52
1, 72224, Control_c, 0, 64, 61
1, 72239, Control_c, 0, 64, 63
1, 72254, Control_c, 0, 64, 65
1, 72269, Control_c, 0, 64, 66
1, 72284, Control_c, 0, 64, 67
1, 72299, Control_c, 0, 64, 68
1, 72314, Control_c, 0, 64, 69
1, 72319, Note_off_c, 0, 87, 49
1, 72328, Control_c, 0, 64, 70
1, 72343, Control_c, 0, 64, 71
1, 72351, Note_off_c, 0, 75, 39
1, 72358, Control_c, 0, 64, 72
1, 72372, Control_c, 0, 64, 72
1, 72415, Note_on_c, 0, 65, 34
1, 72432, Control_c, 0, 64, 73
1, 72446, Control_c, 0, 64, 73
1, 72449, Note_off_c, 0, 68, 34
1, 72451, Note_on_c, 0, 86, 62
1, 72460, Note_on_c, 0, 74, 44
1, 72461, Control_c, 0, 64, 74
1, 72534, Note_off_c, 0, 86, 53
1, 72579, Note_off_c, 0, 65, 36
1, 72581, Note_off_c, 0, 74, 34
1, 72596, Control_c, 0, 64, 74
1, 72612, Note_on_c, 0, 59, 26
1, 72761, Note_on_c, 0, 83, 70
1, 72771, Note_on_c, 0, 65, 42
1, 72778, Note_on_c, 0, 71, 48
1, 72816, Note_off_c, 0, 59, 29
1, 72909, Note_off_c, 0, 71, 45
1, 72916, Note_off_c, 0, 83, 36
1, 72989, Control_c, 0, 64, 75
1, 72996, Note_on_c, 0, 62, 30
1, 73003, Control_c, 0, 64, 75
1, 73008, Note_off_c, 0, 65, 36
1, 73071, Note_on_c, 0, 80, 74
1, 73086, Note_on_c, 0, 68, 60
1, 73092, Control_c, 0, 64, 76
1, 73137, Control_c, 0, 64, 76
1, 73160, Note_off_c, 0, 62, 38
1, 73187, Note_on_c, 0, 59, 30
1, 73207, Note_off_c, 0, 80, 58
1, 73229, Note_off_c, 0, 68, 50
1, 73332, Note_off_c, 0, 59, 37
1, 73344, Control_c, 0, 64, 76
1, 73359, Control_c, 0, 64, 72
1, 73369, Note_on_c, 0, 78, 68
1, 73370, Note_on_c, 0, 64, 39
1, 73373, Control_c, 0, 64, 64
1, 73388, Note_on_c, 0, 66, 42
1, 73388, Control_c, 0, 64, 0
1, 73432, Control_c, 0, 64, 27
1, 73447, Control_c, 0, 64, 51
1, 73470, Control_c, 0, 64, 61
1, 73485, Control_c, 0, 64, 64
1, 73499, Control_c, 0, 64, 66
1, 73514, Control_c, 0, 64, 68
1, 73529, Control_c, 0, 64, 69
1, 73544, Control_c, 0, 64, 71
1, 73558, Control_c, 0, 64, 72
1, 73566, Note_on_c, 0, 60, 34
1, 73573, Control_c, 0, 64, 73
1, 73577, Note_off_c, 0, 66, 28
1, 73588, Control_c, 0, 64, 73
1, 73628, Note_off_c, 0, 64, 34
1, 73632, Control_c, 0, 64, 74
1, 73684, Note_on_c, 0, 79, 67
1, 73685, Note_off_c, 0, 78, 44
1, 73691, Note_on_c, 0, 67, 48
1, 73706, Control_c, 0, 64, 74
1, 73740, Note_off_c, 0, 67, 40
1, 73758, Note_off_c, 0, 60, 30
1, 73765, Control_c, 0, 64, 75
1, 73771, Note_on_c, 0, 55, 42
1, 73841, Note_off_c, 0, 79, 58
1, 73885, Control_c, 0, 64, 75
1, 73923, Note_off_c, 0, 55, 40
1, 73929, Control_c, 0, 64, 75
1, 73943, Control_c, 0, 64, 73
1, 73958, Control_c, 0, 64, 69
1, 73962, Note_on_c, 0, 60, 40
1, 73969, Note_on_c, 0, 83, 67
1, 73973, Control_c, 0, 64, 62
1, 73988, Control_c, 0, 64, 56
1, 73992, Note_on_c, 0, 71, 38
1, 74003, Control_c, 0, 64, 60
1, 74017, Control_c, 0, 64, 63
1, 74032, Control_c, 0, 64, 64
1, 74047, Control_c, 0, 64, 66
1, 74047, Control_c, 0, 67, 127
1, 74062, Control_c, 0, 64, 68
1, 74077, Control_c, 0, 64, 70
1, 74093, Control_c, 0, 64, 72
1, 74093, Control_c, 0, 67, 126
1, 74108, Control_c, 0, 64, 72
1, 74122, Control_c, 0, 64, 73
1, 74126, Note_off_c, 0, 71, 23
1, 74137, Control_c, 0, 64, 74
1, 74137, Control_c, 0, 67, 125
1, 74144, Note_off_c, 0, 83, 51
1, 74166, Control_c, 0, 64, 74
1, 74166, Control_c, 0, 67, 125
1, 74172, Note_on_c, 0, 55, 38
1, 74181, Control_c, 0, 67, 124
1, 74196, Control_c, 0, 67, 124
1, 74219, Control_c, 0, 67, 123
1, 74233, Control_c, 0, 64, 75
1, 74233, Control_c, 0, 67, 123
1, 74263, Control_c, 0, 67, 122
1, 74278, Control_c, 0, 67, 121
1, 74293, Control_c, 0, 67, 119
1, 74296, Note_on_c, 0, 84, 68
1, 74308, Control_c, 0, 67, 116
1, 74309, Note_on_c, 0, 72, 43
1, 74322, Control_c, 0, 67, 113
1, 74337, Control_c, 0, 67, 109
1, 74352, Control_c, 0, 67, 104
1, 74364, Note_off_c, 0, 55, 37
1, 74367, Control_c, 0, 67, 98
1, 74381, Control_c, 0, 67, 90
1, 74386, Note_on_c, 0, 52, 44
1, 74396, Control_c, 0, 67, 82
1, 74411, Control_c, 0, 67, 77
1, 74424, Note_off_c, 0, 72, 23
1, 74426, Control_c, 0, 67, 72
1, 74441, Control_c, 0, 67, 67
1, 74442, Note_off_c, 0, 52, 62
1, 74455, Control_c, 0, 67, 62
1, 74460, Note_off_c, 0, 84, 56
1, 74470, Control_c, 0, 67, 56
1, 74485, Control_c, 0, 67, 51
1, 74500, Control_c, 0, 67, 49
1, 74515, Control_c, 0, 67, 47
1, 74529, Control_c, 0, 67, 46
1, 74544, Control_c, 0, 67, 45
1, 74559, Control_c, 0, 64, 75
1, 74559, Control_c, 0, 67, 43
1, 74573, Control_c, 0, 67, 42
1, 74588, Control_c, 0, 67, 40
1, 74603, Control_c, 0, 67, 39
1, 74618, Control_c, 0, 64, 76
1, 74618, Control_c, 0, 67, 39
1, 74648, Control_c, 0, 67, 38
1, 74678, Control_c, 0, 64, 75
1, 74686, Note_on_c, 0, 51, 52
1, 74693, Control_c, 0, 64, 70
1, 74702, Note_off_c, 0, 60, 10
1, 74704, Note_on_c, 0, 85, 60
1, 74707, Control_c, 0, 64, 59
1, 74719, Note_on_c, 0, 73, 43
1, 74722, Control_c, 0, 64, 0
1, 74737, Control_c, 0, 67, 39
1, 74766, Control_c, 0, 64, 18
1, 74766, Control_c, 0, 67, 39
1, 74781, Control_c, 0, 64, 52
1, 74796, Control_c, 0, 64, 62
1, 74796, Control_c, 0, 67, 40
1, 74811, Control_c, 0, 64, 66
1, 74811, Control_c, 0, 67, 40
1, 74826, Control_c, 0, 64, 68
1, 74840, Control_c, 0, 64, 71
1, 74840, Control_c, 0, 67, 41
1, 74855, Control_c, 0, 64, 74
1, 74870, Control_c, 0, 64, 75
1, 74880, Note_off_c, 0, 51, 53
1, 74886, Control_c, 0, 64, 76
1, 74901, Control_c, 0, 64, 77
1, 74901, Control_c, 0, 67, 41
1, 74916, Control_c, 0, 64, 77
1, 74916, Control_c, 0, 67, 42
1, 74931, Control_c, 0, 64, 78
1, 74945, Control_c, 0, 64, 79
1, 74945, Control_c, 0, 67, 43
1, 74951, Note_off_c, 0, 85, 49
1, 74967, Control_c, 0, 64, 79
1, 74982, Control_c, 0, 64, 80
1, 74982, Control_c, 0, 67, 43
1, 74997, Control_c, 0, 67, 44
1, 75015, Note_off_c, 0, 73, 38
1, 75026, Control_c, 0, 67, 44
1, 75041, Control_c, 0, 67, 45
1, 75043, Note_on_c, 0, 66, 47
1, 75056, Control_c, 0, 67, 45
1, 75071, Control_c, 0, 67, 46
1, 75086, Control_c, 0, 67, 47
1, 75096, Note_on_c, 0, 84, 68
1, 75101, Control_c, 0, 67, 47
1, 75109, Note_on_c, 0, 72, 52
1, 75116, Control_c, 0, 67, 48
1, 75131, Control_c, 0, 67, 48
1, 75145, Control_c, 0, 67, 49
1, 75160, Control_c, 0, 67, 49
1, 75174, Note_off_c, 0, 66, 50
1, 75175, Control_c, 0, 67, 50
1, 75178, Note_off_c, 0, 84, 60
1, 75211, Note_on_c, 0, 57, 49
1, 75225, Note_off_c, 0, 72, 41
1, 75234, Control_c, 0, 67, 50
1, 75278, Control_c, 0, 67, 50
1, 75314, Note_off_c, 0, 57, 48
1, 75351, Note_on_c, 0, 65, 56
1, 75360, Note_on_c, 0, 81, 85
1, 75373, Note_on_c, 0, 69, 64
1, 75409, Note_off_c, 0, 65, 56
1, 75459, Note_off_c, 0, 81, 56
1, 75492, Note_off_c, 0, 69, 59
1, 75554, Note_on_c, 0, 50, 48
1, 75604, Control_c, 0, 67, 50
1, 75634, Control_c, 0, 67, 51
1, 75635, Note_on_c, 0, 77, 84
1, 75642, Note_on_c, 0, 65, 71
1, 75670, Note_off_c, 0, 65, 58
1, 75691, Note_off_c, 0, 50, 35
1, 75725, Note_on_c, 0, 53, 44
1, 75752, Note_off_c, 0, 77, 57
1, 75834, Control_c, 0, 67, 50
1, 75858, Note_off_c, 0, 53, 61
1, 75864, Control_c, 0, 67, 51
1, 75894, Control_c, 0, 64, 77
1, 75894, Control_c, 0, 67, 51
1, 75895, Note_on_c, 0, 50, 58
1, 75909, Control_c, 0, 64, 68
1, 75924, Control_c, 0, 64, 51
1, 75924, Control_c, 0, 67, 52
1, 75931, Note_on_c, 0, 84, 82
1, 75939, Control_c, 0, 64, 19
1, 75943, Note_on_c, 0, 72, 59
1, 75953, Control_c, 0, 64, 48
1, 75953, Control_c, 0, 67, 54
1, 75968, Control_c, 0, 64, 58
1, 75968, Control_c, 0, 67, 54
1, 75983, Control_c, 0, 64, 63
1, 75983, Control_c, 0, 67, 55
1, 75998, Control_c, 0, 64, 66
1, 76012, Control_c, 0, 64, 70
1, 76027, Control_c, 0, 64, 73
1, 76042, Control_c, 0, 64, 75
1, 76044, Note_off_c, 0, 50, 62
1, 76057, Control_c, 0, 64, 76
1, 76072, Control_c, 0, 64, 77
1, 76072, Control_c, 0, 67, 54
1, 76086, Control_c, 0, 64, 78
1, 76116, Control_c, 0, 64, 78
1, 76117, Note_off_c, 0, 84, 46
1, 76131, Control_c, 0, 64, 79
1, 76142, Note_off_c, 0, 72, 37
1, 76175, Control_c, 0, 64, 79
1, 76180, Note_on_c, 0, 65, 61
1, 76205, Control_c, 0, 67, 54
1, 76236, Note_on_c, 0, 83, 88
1, 76246, Note_on_c, 0, 71, 69
1, 76302, Note_off_c, 0, 65, 35
1, 76325, Note_off_c, 0, 71, 56
1, 76326, Note_off_c, 0, 83, 58
1, 76362, Note_on_c, 0, 56, 51
1, 76479, Control_c, 0, 67, 53
1, 76513, Note_on_c, 0, 80, 88
1, 76526, Note_on_c, 0, 68, 71
1, 76528, Note_on_c, 0, 64, 48
1, 76568, Note_off_c, 0, 64, 47
1, 76598, Control_c, 0, 67, 52
1, 76599, Note_off_c, 0, 80, 63
1, 76613, Note_off_c, 0, 68, 59
1, 76642, Control_c, 0, 67, 52
1, 76663, Note_off_c, 0, 56, 57
1, 76687, Control_c, 0, 67, 51
1, 76723, Note_on_c, 0, 48, 64
1, 76776, Control_c, 0, 67, 51
1, 76806, Control_c, 0, 67, 51
1, 76836, Note_on_c, 0, 76, 86
1, 76848, Note_on_c, 0, 64, 70
1, 76880, Control_c, 0, 67, 52
1, 76904, Note_off_c, 0, 48, 34
1, 76909, Control_c, 0, 67, 52
1, 76939, Control_c, 0, 67, 53
1, 76954, Control_c, 0, 67, 53
1, 76956, Note_off_c, 0, 64, 45
1, 76966, Note_on_c, 0, 57, 49
1, 76998, Control_c, 0, 67, 54
1, 77011, Note_off_c, 0, 76, 65
1, 77013, Control_c, 0, 67, 54
1, 77042, Control_c, 0, 67, 55
1, 77057, Control_c, 0, 67, 55
1, 77072, Control_c, 0, 64, 80
1, 77072, Control_c, 0, 67, 56
1, 77087, Control_c, 0, 67, 56
1, 77102, Control_c, 0, 67, 58
1, 77116, Control_c, 0, 67, 61
1, 77131, Note_off_c, 0, 57, 31
1, 77131, Control_c, 0, 67, 62
1, 77146, Control_c, 0, 67, 63
1, 77161, Control_c, 0, 67, 65
1, 77165, Note_on_c, 0, 50, 51
1, 77176, Control_c, 0, 67, 68
1, 77191, Control_c, 0, 67, 71
1, 77205, Control_c, 0, 67, 73
1, 77228, Control_c, 0, 67, 77
1, 77242, Control_c, 0, 64, 78
1, 77242, Control_c, 0, 67, 80
1, 77257, Control_c, 0, 64, 71
1, 77257, Control_c, 0, 67, 84
1, 77272, Control_c, 0, 64, 58
1, 77272, Control_c, 0, 67, 89
1, 77274, Note_on_c, 0, 79, 84
1, 77282, Note_on_c, 0, 67, 56
1, 77287, Control_c, 0, 64, 0
1, 77287, Control_c, 0, 67, 94
1, 77303, Control_c, 0, 64, 30
1, 77303, Control_c, 0, 67, 100
1, 77318, Control_c, 0, 64, 49
1, 77318, Control_c, 0, 67, 105
1, 77333, Control_c, 0, 64, 58
1, 77333, Control_c, 0, 67, 110
1, 77347, Control_c, 0, 64, 64
1, 77347, Control_c, 0, 67, 115
1, 77362, Control_c, 0, 64, 67
1, 77362, Control_c, 0, 67, 119
1, 77377, Control_c, 0, 64, 70
1, 77377, Control_c, 0, 67, 123
1, 77391, Control_c, 0, 64, 73
1, 77391, Control_c, 0, 67, 127
1, 77406, Control_c, 0, 64, 76
1, 77421, Control_c, 0, 64, 78
1, 77436, Control_c, 0, 64, 79
1, 77451, Control_c, 0, 64, 80
1, 77463, Note_off_c, 0, 79, 49
1, 77465, Control_c, 0, 64, 81
1, 77471, Note_on_c, 0, 62, 43
1, 77480, Control_c, 0, 64, 82
1, 77484, Note_off_c, 0, 67, 57
1, 77495, Control_c, 0, 64, 82
1, 77602, Note_on_c, 0, 77, 91
1, 77608, Note_on_c, 0, 65, 73
1, 77611, Note_off_c, 0, 62, 36
1, 77653, Note_on_c, 0, 67, 23
1, 77667, Note_off_c, 0, 77, 62
1, 77670, Note_on_c, 0, 57, 51
1, 77691, Note_off_c, 0, 67, 32
1, 77697, Note_off_c, 0, 65, 60
1, 77706, Note_off_c, 0, 57, 63
1, 77736, Note_off_c, 0, 50, 54
1, 77806, Control_c, 0, 64, 83
1, 77865, Control_c, 0, 64, 82
1, 77880, Control_c, 0, 64, 76
1, 77890, Note_on_c, 0, 40, 72
1, 77895, Control_c, 0, 64, 66
1, 77901, Note_on_c, 0, 74, 82
1, 77906, Note_on_c, 0, 62, 70
1, 77909, Control_c, 0, 64, 0
1, 77962, Control_c, 0, 64, 46
1, 77977, Control_c, 0, 64, 60
1, 77991, Control_c, 0, 64, 65
1, 78006, Control_c, 0, 64, 67
1, 78021, Control_c, 0, 64, 70
1, 78036, Control_c, 0, 64, 72
1, 78040, Note_off_c, 0, 40, 59
1, 78051, Control_c, 0, 64, 74
1, 78053, Note_off_c, 0, 74, 60
1, 78065, Control_c, 0, 64, 76
1, 78072, Note_off_c, 0, 62, 59
1, 78080, Control_c, 0, 64, 76
1, 78096, Control_c, 0, 64, 77
1, 78111, Control_c, 0, 64, 78
1, 78126, Control_c, 0, 64, 78
1, 78196, Note_on_c, 0, 56, 56
1, 78235, Note_on_c, 0, 71, 81
1, 78247, Note_on_c, 0, 59, 61
1, 78293, Note_off_c, 0, 56, 57
1, 78353, Poly_aftertouch_c, 0, 69, 0
1, 78359, Note_on_c, 0, 47, 49
1, 78383, Note_off_c, 0, 59, 37
1, 78407, Control_c, 0, 64, 79
1, 78419, Note_off_c, 0, 71, 57
1, 78444, Note_off_c, 0, 47, 51
1, 78451, Control_c, 0, 64, 79
1, 78526, Control_c, 0, 64, 79
1, 78527, Note_on_c, 0, 45, 65
1, 78540, Control_c, 0, 64, 74
1, 78555, Control_c, 0, 64, 63
1, 78567, Note_on_c, 0, 72, 86
1, 78570, Control_c, 0, 64, 0
1, 78573, Note_on_c, 0, 60, 67
1, 78629, Control_c, 0, 64, 46
1, 78644, Control_c, 0, 64, 60
1, 78659, Control_c, 0, 64, 63
1, 78674, Control_c, 0, 64, 65
1, 78688, Control_c, 0, 64, 67
1, 78711, Control_c, 0, 64, 69
1, 78726, Control_c, 0, 64, 71
1, 78740, Control_c, 0, 64, 72
1, 78755, Control_c, 0, 64, 74
1, 78756, Note_off_c, 0, 45, 53
1, 78758, Note_off_c, 0, 60, 35
1, 78770, Control_c, 0, 64, 75
1, 78785, Control_c, 0, 64, 76
1, 78797, Note_off_c, 0, 72, 58
1, 78814, Control_c, 0, 64, 76
1, 78842, Note_on_c, 0, 59, 52
1, 78844, Control_c, 0, 67, 125
1, 78859, Control_c, 0, 67, 115
1, 78874, Control_c, 0, 67, 105
1, 78890, Control_c, 0, 67, 97
1, 78893, Note_on_c, 0, 74, 90
1, 78902, Note_on_c, 0, 62, 70
1, 78905, Control_c, 0, 67, 88
1, 78919, Control_c, 0, 67, 80
1, 78934, Control_c, 0, 67, 68
1, 78949, Control_c, 0, 67, 51
1, 78963, Control_c, 0, 64, 77
1, 78963, Control_c, 0, 67, 35
1, 78978, Control_c, 0, 67, 21
1, 78993, Control_c, 0, 67, 10
1, 79008, Control_c, 0, 67, 0
1, 79021, Note_off_c, 0, 62, 49
1, 79021, Note_on_c, 0, 52, 63
1, 79023, Control_c, 0, 64, 77
1, 79028, Note_off_c, 0, 59, 36
1, 79066, Note_off_c, 0, 74, 63
1, 79067, Control_c, 0, 64, 78
1, 79111, Control_c, 0, 64, 78
1, 79185, Control_c, 0, 64, 76
1, 79200, Control_c, 0, 64, 70
1, 79215, Control_c, 0, 64, 57
1, 79230, Control_c, 0, 64, 0
1, 79243, Note_on_c, 0, 60, 81
1, 79244, Control_c, 0, 64, 19
1, 79251, Note_on_c, 0, 64, 64
1, 79251, Note_on_c, 0, 76, 74
1, 79259, Control_c, 0, 64, 44
1, 79274, Control_c, 0, 64, 52
1, 79289, Control_c, 0, 64, 59
1, 79304, Control_c, 0, 64, 63
1, 79308, Note_off_c, 0, 64, 53
1, 79310, Note_off_c, 0, 52, 55
1, 79319, Control_c, 0, 64, 65
1, 79319, Control_c, 0, 67, 8
1, 79334, Control_c, 0, 64, 67
1, 79334, Control_c, 0, 67, 10
1, 79349, Control_c, 0, 64, 69
1, 79349, Control_c, 0, 67, 12
1, 79360, Note_off_c, 0, 76, 67
1, 79363, Control_c, 0, 64, 71
1, 79363, Control_c, 0, 67, 15
1, 79378, Control_c, 0, 64, 72
1, 79378, Control_c, 0, 67, 17
1, 79393, Control_c, 0, 64, 72
1, 79393, Control_c, 0, 67, 18
1, 79408, Control_c, 0, 67, 19
1, 79423, Control_c, 0, 67, 20
1, 79437, Control_c, 0, 64, 73
1, 79437, Control_c, 0, 67, 22
1, 79444, Note_off_c, 0, 60, 52
1, 79459, Control_c, 0, 67, 25
1, 79474, Control_c, 0, 67, 29
1, 79489, Control_c, 0, 67, 31
1, 79504, Control_c, 0, 67, 33
1, 79519, Control_c, 0, 67, 33
1, 79534, Note_on_c, 0, 52, 36
1, 79548, Control_c, 0, 67, 34
1, 79563, Control_c, 0, 67, 35
1, 79578, Control_c, 0, 67, 36
1, 79593, Control_c, 0, 67, 37
1, 79608, Control_c, 0, 67, 39
1, 79609, Note_on_c, 0, 88, 92
1, 79623, Note_on_c, 0, 76, 66
1, 79623, Control_c, 0, 67, 40
1, 79637, Control_c, 0, 67, 43
1, 79652, Control_c, 0, 67, 44
1, 79662, Note_off_c, 0, 52, 35
1, 79667, Control_c, 0, 67, 45
1, 79683, Control_c, 0, 64, 73
1, 79683, Control_c, 0, 67, 47
1, 79697, Control_c, 0, 67, 49
1, 79706, Note_on_c, 0, 45, 42
1, 79712, Control_c, 0, 64, 74
1, 79712, Control_c, 0, 67, 52
1, 79727, Control_c, 0, 64, 74
1, 79727, Control_c, 0, 67, 56
1, 79741, Note_off_c, 0, 45, 63
1, 79742, Control_c, 0, 64, 75
1, 79742, Control_c, 0, 67, 60
1, 79757, Control_c, 0, 64, 75
1, 79757, Control_c, 0, 67, 63
1, 79772, Control_c, 0, 67, 64
1, 79786, Control_c, 0, 67, 65
1, 79801, Control_c, 0, 67, 68
1, 79803, Note_off_c, 0, 76, 37
1, 79816, Control_c, 0, 67, 72
1, 79831, Control_c, 0, 67, 75
1, 79846, Control_c, 0, 67, 76
1, 79862, Note_off_c, 0, 88, 56
1, 79875, Control_c, 0, 64, 76
1, 79875, Control_c, 0, 67, 77
1, 79905, Control_c, 0, 67, 78
1, 79920, Control_c, 0, 64, 76
1, 79920, Control_c, 0, 67, 80
1, 79934, Control_c, 0, 67, 84
1, 79949, Control_c, 0, 67, 87
1, 79964, Control_c, 0, 67, 90
1, 79979, Control_c, 0, 67, 93
1, 79993, Control_c, 0, 67, 96
1, 80008, Control_c, 0, 67, 98
1, 80023, Control_c, 0, 67, 100
1, 80038, Control_c, 0, 67, 101
1, 80053, Control_c, 0, 67, 102
1, 80067, Control_c, 0, 64, 76
1, 80067, Control_c, 0, 67, 103
1, 80082, Control_c, 0, 64, 73
1, 80082, Control_c, 0, 67, 106
1, 80083, Note_on_c, 0, 73, 56
1, 80091, Note_on_c, 0, 89, 62
1, 80094, Note_on_c, 0, 77, 42
1, 80097, Control_c, 0, 64, 67
1, 80097, Control_c, 0, 67, 109
1, 80112, Control_c, 0, 64, 29
1, 80112, Control_c, 0, 67, 113
1, 80127, Control_c, 0, 64, 0
1, 80127, Control_c, 0, 67, 116
1, 80142, Control_c, 0, 67, 119
1, 80157, Control_c, 0, 67, 124
1, 80171, Control_c, 0, 67, 127
1, 80186, Control_c, 0, 64, 35
1, 80201, Control_c, 0, 64, 54
1, 80223, Control_c, 0, 64, 60
1, 80238, Control_c, 0, 64, 63
1, 80253, Control_c, 0, 64, 64
1, 80267, Control_c, 0, 64, 65
1, 80282, Control_c, 0, 64, 66
1, 80297, Control_c, 0, 64, 68
1, 80301, Note_off_c, 0, 89, 36
1, 80312, Control_c, 0, 64, 70
1, 80326, Note_off_c, 0, 77, 38
1, 80326, Control_c, 0, 64, 72
1, 80341, Control_c, 0, 64, 72
1, 80356, Control_c, 0, 64, 73
1, 80439, Note_on_c, 0, 69, 30
1, 80487, Note_on_c, 0, 88, 53
1, 80498, Note_on_c, 0, 76, 36
1, 80514, Note_off_c, 0, 73, 29
1, 80601, Note_off_c, 0, 69, 35
1, 80607, Note_off_c, 0, 76, 41
1, 80615, Note_off_c, 0, 88, 36
1, 80645, Note_on_c, 0, 64, 32
1, 80790, Note_on_c, 0, 70, 43
1, 80791, Note_on_c, 0, 85, 64
1, 80808, Note_on_c, 0, 73, 49
1, 80839, Note_off_c, 0, 64, 19
1, 80861, Control_c, 0, 64, 73
1, 80927, Note_off_c, 0, 85, 63
1, 80960, Note_off_c, 0, 70, 33
1, 80971, Note_off_c, 0, 73, 39
1, 81009, Note_on_c, 0, 67, 37
1, 81090, Note_on_c, 0, 82, 74
1, 81094, Note_on_c, 0, 70, 57
1, 81158, Note_off_c, 0, 67, 41
1, 81176, Note_on_c, 0, 64, 44
1, 81239, Control_c, 0, 64, 74
1, 81240, Note_off_c, 0, 82, 60
1, 81256, Note_off_c, 0, 70, 51
1, 81268, Control_c, 0, 64, 74
1, 81290, Note_off_c, 0, 64, 54
1, 81313, Control_c, 0, 64, 75
1, 81343, Control_c, 0, 64, 75
1, 81377, Note_on_c, 0, 65, 62
1, 81382, Note_on_c, 0, 80, 65
1, 81394, Note_on_c, 0, 68, 49
1, 81403, Control_c, 0, 64, 73
1, 81417, Control_c, 0, 64, 67
1, 81432, Control_c, 0, 64, 51
1, 81447, Control_c, 0, 64, 0
1, 81462, Control_c, 0, 64, 22
1, 81477, Control_c, 0, 64, 40
1, 81492, Control_c, 0, 64, 52
1, 81506, Control_c, 0, 64, 60
1, 81521, Control_c, 0, 64, 64
1, 81536, Control_c, 0, 64, 65
1, 81550, Control_c, 0, 64, 67
1, 81565, Control_c, 0, 64, 69
1, 81580, Control_c, 0, 64, 70
1, 81594, Note_on_c, 0, 62, 45
1, 81594, Note_off_c, 0, 68, 42
1, 81595, Control_c, 0, 64, 71
1, 81610, Control_c, 0, 64, 71
1, 81624, Control_c, 0, 64, 72
1, 81639, Control_c, 0, 64, 72
1, 81654, Control_c, 0, 64, 73
1, 81669, Control_c, 0, 64, 74
1, 81677, Note_off_c, 0, 65, 32
1, 81683, Note_off_c, 0, 80, 54
1, 81684, Control_c, 0, 64, 74
1, 81706, Control_c, 0, 64, 75
1, 81721, Note_on_c, 0, 81, 71
1, 81733, Note_on_c, 0, 69, 47
1, 81751, Control_c, 0, 64, 75
1, 81761, Note_off_c, 0, 69, 52
1, 81780, Control_c, 0, 64, 76
1, 81785, Note_on_c, 0, 57, 39
1, 81796, Note_off_c, 0, 62, 28
1, 81810, Control_c, 0, 64, 76
1, 81829, Note_off_c, 0, 81, 57
1, 81854, Control_c, 0, 64, 77
1, 81884, Control_c, 0, 64, 77
1, 81913, Control_c, 0, 64, 78
1, 81946, Note_off_c, 0, 57, 32
1, 81976, Note_on_c, 0, 62, 65
1, 81987, Control_c, 0, 64, 77
1, 81992, Note_on_c, 0, 85, 65
1, 82002, Control_c, 0, 64, 73
1, 82003, Note_on_c, 0, 73, 51
1, 82017, Control_c, 0, 64, 64
1, 82032, Control_c, 0, 64, 0
1, 82061, Control_c, 0, 64, 47
1, 82077, Control_c, 0, 64, 59
1, 82092, Control_c, 0, 64, 64
1, 82107, Control_c, 0, 64, 67
1, 82122, Control_c, 0, 64, 69
1, 82136, Control_c, 0, 64, 71
1, 82151, Control_c, 0, 64, 73
1, 82166, Control_c, 0, 64, 74
1, 82175, Note_off_c, 0, 73, 37
1, 82181, Control_c, 0, 64, 75
1, 82188, Note_on_c, 0, 57, 41
1, 82195, Control_c, 0, 64, 75
1, 82240, Control_c, 0, 64, 76
1, 82255, Control_c, 0, 64, 76
1, 82295, Note_on_c, 0, 86, 66
1, 82314, Note_on_c, 0, 74, 39
1, 82315, Control_c, 0, 64, 77
1, 82333, Note_off_c, 0, 85, 26
1, 82347, Note_off_c, 0, 57, 37
1, 82367, Note_off_c, 0, 62, 37
1, 82386, Note_on_c, 0, 53, 49
1, 82410, Note_off_c, 0, 74, 28
1, 82419, Control_c, 0, 64, 77
1, 82421, Note_off_c, 0, 53, 66
1, 82436, Note_off_c, 0, 86, 58
1, 82455, Control_c, 0, 67, 126
1, 82470, Control_c, 0, 67, 123
1, 82485, Control_c, 0, 67, 121
1, 82500, Control_c, 0, 67, 120
1, 82515, Control_c, 0, 64, 78
1, 82515, Control_c, 0, 67, 119
1, 82529, Control_c, 0, 67, 119
1, 82544, Control_c, 0, 64, 78
1, 82634, Control_c, 0, 67, 119
1, 82649, Control_c, 0, 67, 120
1, 82668, Note_on_c, 0, 68, 74
1, 82678, Control_c, 0, 64, 77
1, 82678, Control_c, 0, 67, 120
1, 82678, Note_on_c, 0, 87, 61
1, 82681, Note_on_c, 0, 75, 47
1, 82693, Control_c, 0, 64, 72
1, 82693, Control_c, 0, 67, 121
1, 82707, Control_c, 0, 64, 59
1, 82722, Control_c, 0, 64, 0
1, 82767, Control_c, 0, 64, 42
1, 82781, Control_c, 0, 64, 56
1, 82781, Control_c, 0, 67, 121
1, 82796, Control_c, 0, 64, 62
1, 82811, Control_c, 0, 64, 64
1, 82826, Control_c, 0, 64, 65
1, 82841, Control_c, 0, 64, 67
1, 82855, Control_c, 0, 64, 69
1, 82870, Control_c, 0, 64, 70
1, 82886, Control_c, 0, 64, 72
1, 82886, Control_c, 0, 67, 122
1, 82901, Control_c, 0, 64, 73
1, 82916, Control_c, 0, 64, 74
1, 82924, Note_off_c, 0, 75, 51
1, 82930, Control_c, 0, 64, 74
1, 82932, Note_off_c, 0, 87, 35
1, 82945, Control_c, 0, 64, 75
1, 82956, Note_on_c, 0, 65, 37
1, 82960, Control_c, 0, 64, 75
1, 83023, Note_on_c, 0, 86, 61
1, 83027, Note_on_c, 0, 74, 48
1, 83049, Control_c, 0, 64, 76
1, 83073, Note_off_c, 0, 65, 0
1, 83093, Control_c, 0, 64, 76
1, 83096, Note_off_c, 0, 86, 57
1, 83108, Note_off_c, 0, 74, 57
1, 83111, Poly_aftertouch_c, 0, 65, 0
1, 83138, Note_on_c, 0, 59, 46
1, 83152, Note_off_c, 0, 68, 35
1, 83167, Control_c, 0, 64, 77
1, 83278, Control_c, 0, 64, 75
1, 83293, Control_c, 0, 64, 70
1, 83293, Control_c, 0, 67, 122
1, 83308, Control_c, 0, 64, 61
1, 83319, Note_on_c, 0, 65, 72
1, 83323, Control_c, 0, 64, 37
1, 83337, Control_c, 0, 64, 41
1, 83339, Note_on_c, 0, 83, 62
1, 83352, Control_c, 0, 64, 53
1, 83360, Note_on_c, 0, 71, 35
1, 83367, Control_c, 0, 64, 60
1, 83382, Control_c, 0, 64, 63
1, 83397, Control_c, 0, 64, 65
1, 83405, Note_off_c, 0, 59, 29
1, 83412, Control_c, 0, 64, 67
1, 83427, Control_c, 0, 64, 69
1, 83441, Control_c, 0, 64, 71
1, 83456, Control_c, 0, 64, 73
1, 83471, Control_c, 0, 64, 74
1, 83472, Note_off_c, 0, 71, 36
1, 83481, Note_off_c, 0, 83, 32
1, 83486, Control_c, 0, 64, 74
1, 83501, Control_c, 0, 64, 75
1, 83501, Control_c, 0, 67, 122
1, 83530, Control_c, 0, 64, 75
1, 83545, Control_c, 0, 64, 76
1, 83560, Control_c, 0, 64, 76
1, 83582, Note_on_c, 0, 62, 45
1, 83630, Note_off_c, 0, 65, 39
1, 83671, Note_on_c, 0, 80, 65
1, 83681, Note_on_c, 0, 68, 54
1, 83713, Note_off_c, 0, 62, 53
1, 83749, Note_on_c, 0, 59, 36
1, 83785, Note_off_c, 0, 80, 56
1, 83818, Note_off_c, 0, 68, 51
1, 83826, Control_c, 0, 64, 77
1, 83826, Control_c, 0, 67, 121
1, 83886, Control_c, 0, 64, 77
1, 83915, Note_off_c, 0, 59, 38
1, 83915, Control_c, 0, 67, 122
1, 83943, Note_on_c, 0, 64, 65
1, 83945, Control_c, 0, 64, 77
1, 83960, Note_on_c, 0, 78, 66
1, 83967, Control_c, 0, 64, 73
1, 83975, Note_on_c, 0, 66, 49
1, 83982, Control_c, 0, 64, 64
1, 83982, Control_c, 0, 67, 122
1, 83997, Control_c, 0, 64, 0
1, 84041, Control_c, 0, 64, 36
1, 84056, Control_c, 0, 64, 55
1, 84071, Control_c, 0, 64, 63
1, 84086, Control_c, 0, 64, 65
1, 84086, Control_c, 0, 67, 123
1, 84100, Control_c, 0, 64, 67
1, 84115, Control_c, 0, 64, 69
1, 84130, Control_c, 0, 64, 70
1, 84145, Control_c, 0, 64, 72
1, 84145, Control_c, 0, 67, 122
1, 84160, Control_c, 0, 64, 73
1, 84171, Note_off_c, 0, 66, 44
1, 84175, Control_c, 0, 64, 74
1, 84175, Control_c, 0, 67, 122
1, 84190, Control_c, 0, 64, 74
1, 84196, Note_off_c, 0, 64, 47
1, 84199, Note_on_c, 0, 60, 38
1, 84205, Control_c, 0, 64, 75
1, 84219, Control_c, 0, 64, 76
1, 84231, Note_off_c, 0, 78, 50
1, 84234, Control_c, 0, 64, 76
1, 84249, Control_c, 0, 64, 77
1, 84255, Note_on_c, 0, 79, 61
1, 84271, Note_on_c, 0, 67, 46
1, 84293, Control_c, 0, 64, 77
1, 84336, Note_off_c, 0, 67, 52
1, 84352, Control_c, 0, 64, 78
1, 84392, Note_off_c, 0, 60, 37
1, 84412, Control_c, 0, 67, 121
1, 84419, Note_on_c, 0, 55, 34
1, 84425, Note_off_c, 0, 79, 58
1, 84426, Control_c, 0, 64, 78
1, 84491, Note_off_c, 0, 55, 38
1, 84546, Control_c, 0, 64, 77
1, 84561, Control_c, 0, 64, 73
1, 84567, Note_on_c, 0, 60, 32
1, 84569, Note_on_c, 0, 83, 67
1, 84575, Control_c, 0, 64, 66
1, 84589, Note_on_c, 0, 71, 43
1, 84590, Control_c, 0, 64, 52
1, 84605, Control_c, 0, 64, 54
1, 84605, Control_c, 0, 67, 121
1, 84620, Control_c, 0, 64, 60
1, 84635, Control_c, 0, 64, 62
1, 84649, Control_c, 0, 64, 64
1, 84664, Control_c, 0, 64, 66
1, 84664, Control_c, 0, 67, 120
1, 84679, Control_c, 0, 64, 69
1, 84694, Control_c, 0, 64, 71
1, 84717, Control_c, 0, 64, 74
1, 84717, Control_c, 0, 67, 120
1, 84731, Control_c, 0, 64, 75
1, 84746, Control_c, 0, 64, 76
1, 84746, Control_c, 0, 67, 119
1, 84747, Note_off_c, 0, 71, 36
1, 84759, Note_off_c, 0, 83, 54
1, 84761, Control_c, 0, 64, 76
1, 84772, Note_on_c, 0, 55, 35
1, 84776, Control_c, 0, 64, 77
1, 84776, Control_c, 0, 67, 118
1, 84790, Control_c, 0, 64, 77
1, 84805, Control_c, 0, 67, 117
1, 84820, Control_c, 0, 64, 78
1, 84820, Control_c, 0, 67, 116
1, 84835, Control_c, 0, 67, 112
1, 84850, Control_c, 0, 67, 107
1, 84864, Control_c, 0, 67, 102
1, 84879, Control_c, 0, 64, 78
1, 84879, Control_c, 0, 67, 98
1, 84893, Note_on_c, 0, 84, 68
1, 84894, Control_c, 0, 67, 93
1, 84908, Note_on_c, 0, 72, 44
1, 84908, Control_c, 0, 67, 85
1, 84923, Control_c, 0, 67, 75
1, 84938, Control_c, 0, 67, 65
1, 84953, Control_c, 0, 67, 57
1, 84968, Control_c, 0, 67, 50
1, 84980, Note_off_c, 0, 55, 41
1, 84982, Note_on_c, 0, 52, 49
1, 84983, Control_c, 0, 67, 45
1, 84998, Control_c, 0, 67, 41
1, 85012, Control_c, 0, 67, 38
1, 85027, Control_c, 0, 67, 37
1, 85033, Note_off_c, 0, 52, 62
1, 85042, Control_c, 0, 67, 37
1, 85051, Note_off_c, 0, 84, 59
1, 85052, Note_off_c, 0, 72, 40
1, 85057, Control_c, 0, 67, 36
1, 85117, Note_off_c, 0, 60, 30
1, 85161, Control_c, 0, 64, 79
1, 85309, Note_on_c, 0, 51, 45
1, 85339, Control_c, 0, 64, 76
1, 85354, Control_c, 0, 64, 70
1, 85361, Note_on_c, 0, 85, 61
1, 85367, Note_on_c, 0, 73, 40
1, 85369, Control_c, 0, 64, 57
1, 85384, Control_c, 0, 64, 0
1, 85384, Control_c, 0, 67, 36
1, 85413, Control_c, 0, 67, 37
1, 85428, Control_c, 0, 64, 38
1, 85428, Control_c, 0, 67, 37
1, 85451, Control_c, 0, 64, 56
1, 85451, Control_c, 0, 67, 38
1, 85466, Control_c, 0, 64, 63
1, 85466, Control_c, 0, 67, 39
1, 85480, Control_c, 0, 64, 66
1, 85480, Control_c, 0, 67, 39
1, 85495, Control_c, 0, 64, 69
1, 85495, Control_c, 0, 67, 40
1, 85510, Control_c, 0, 64, 72
1, 85510, Control_c, 0, 67, 41
1, 85525, Control_c, 0, 64, 74
1, 85539, Control_c, 0, 64, 76
1, 85539, Control_c, 0, 67, 41
1, 85554, Control_c, 0, 64, 77
1, 85554, Control_c, 0, 67, 42
1, 85569, Control_c, 0, 64, 77
1, 85569, Control_c, 0, 67, 42
1, 85576, Note_off_c, 0, 51, 35
1, 85584, Control_c, 0, 64, 78
1, 85584, Control_c, 0, 67, 43
1, 85599, Control_c, 0, 64, 78
1, 85599, Control_c, 0, 67, 44
1, 85613, Control_c, 0, 67, 44
1, 85628, Control_c, 0, 64, 79
1, 85628, Control_c, 0, 67, 45
1, 85643, Control_c, 0, 67, 46
1, 85658, Control_c, 0, 67, 47
1, 85673, Control_c, 0, 64, 79
1, 85673, Control_c, 0, 67, 47
1, 85687, Control_c, 0, 67, 48
1, 85702, Control_c, 0, 67, 49
1, 85707, Note_off_c, 0, 73, 36
1, 85717, Control_c, 0, 67, 51
1, 85731, Control_c, 0, 67, 55
1, 85736, Note_off_c, 0, 85, 41
1, 85746, Control_c, 0, 67, 58
1, 85749, Note_on_c, 0, 66, 47
1, 85761, Control_c, 0, 67, 61
1, 85776, Control_c, 0, 67, 64
1, 85791, Control_c, 0, 67, 67
1, 85805, Control_c, 0, 67, 71
1, 85814, Note_on_c, 0, 84, 60
1, 85814, Note_on_c, 0, 72, 53
1, 85820, Control_c, 0, 67, 74
1, 85835, Control_c, 0, 67, 77
1, 85850, Control_c, 0, 67, 78
1, 85865, Control_c, 0, 67, 80
1, 85879, Note_off_c, 0, 84, 57
1, 85880, Control_c, 0, 67, 80
1, 85895, Control_c, 0, 67, 82
1, 85910, Control_c, 0, 67, 84
1, 85918, Note_off_c, 0, 72, 58
1, 85921, Note_off_c, 0, 66, 42
1, 85925, Control_c, 0, 67, 87
1, 85939, Control_c, 0, 67, 89
1, 85949, Note_on_c, 0, 57, 39
1, 85954, Control_c, 0, 67, 92
1, 85969, Control_c, 0, 67, 94
1, 85984, Control_c, 0, 67, 96
1, 85999, Control_c, 0, 67, 98
1, 86014, Control_c, 0, 67, 100
1, 86029, Control_c, 0, 67, 101
1, 86043, Control_c, 0, 67, 102
1, 86044, Note_off_c, 0, 57, 35
1, 86058, Control_c, 0, 67, 103
1, 86067, Note_on_c, 0, 65, 53
1, 86071, Note_on_c, 0, 81, 78
1, 86074, Control_c, 0, 67, 104
1, 86082, Note_on_c, 0, 69, 61
1, 86089, Control_c, 0, 67, 105
1, 86103, Control_c, 0, 67, 106
1, 86118, Control_c, 0, 67, 106
1, 86124, Note_off_c, 0, 65, 55
1, 86133, Control_c, 0, 67, 107
1, 86147, Control_c, 0, 67, 107
1, 86154, Note_off_c, 0, 81, 53
1, 86162, Control_c, 0, 67, 108
1, 86221, Note_off_c, 0, 69, 36
1, 86282, Note_on_c, 0, 50, 50
1, 86361, Note_on_c, 0, 77, 84
1, 86372, Note_on_c, 0, 65, 68
1, 86392, Control_c, 0, 67, 108
1, 86399, Note_off_c, 0, 65, 53
1, 86431, Note_off_c, 0, 50, 34
1, 86458, Note_on_c, 0, 53, 43
1, 86482, Note_off_c, 0, 77, 59
1, 86584, Control_c, 0, 67, 108
1, 86598, Note_off_c, 0, 53, 36
1, 86613, Note_on_c, 0, 50, 58
1, 86643, Control_c, 0, 64, 79
1, 86643, Control_c, 0, 67, 108
1, 86658, Control_c, 0, 64, 74
1, 86673, Control_c, 0, 64, 64
1, 86676, Note_on_c, 0, 84, 81
1, 86677, Note_on_c, 0, 72, 69
1, 86688, Control_c, 0, 64, 0
1, 86732, Control_c, 0, 64, 25
1, 86747, Control_c, 0, 64, 59
1, 86762, Control_c, 0, 64, 64
1, 86777, Control_c, 0, 64, 67
1, 86792, Control_c, 0, 64, 70
1, 86807, Control_c, 0, 64, 72
1, 86810, Note_off_c, 0, 50, 62
1, 86821, Control_c, 0, 64, 75
1, 86836, Control_c, 0, 64, 77
1, 86851, Control_c, 0, 64, 78
1, 86854, Note_off_c, 0, 72, 57
1, 86855, Note_off_c, 0, 84, 50
1, 86867, Control_c, 0, 64, 78
1, 86896, Control_c, 0, 64, 79
1, 86926, Control_c, 0, 64, 79
1, 86953, Note_on_c, 0, 65, 59
1, 86963, Control_c, 0, 67, 108
1, 87012, Note_on_c, 0, 83, 86
1, 87019, Note_on_c, 0, 71, 73
1, 87083, Note_off_c, 0, 65, 37
1, 87102, Note_off_c, 0, 83, 58
1, 87113, Note_off_c, 0, 71, 59
1, 87140, Note_on_c, 0, 56, 49
1, 87287, Note_on_c, 0, 64, 52
1, 87296, Note_on_c, 0, 80, 88
1, 87308, Note_on_c, 0, 68, 74
1, 87336, Note_off_c, 0, 64, 52
1, 87376, Note_off_c, 0, 80, 65
1, 87379, Note_off_c, 0, 68, 61
1, 87448, Note_off_c, 0, 56, 59
1, 87493, Note_on_c, 0, 48, 65
1, 87570, Control_c, 0, 67, 108
1, 87591, Note_on_c, 0, 76, 92
1, 87600, Control_c, 0, 67, 109
1, 87602, Note_on_c, 0, 64, 72
1, 87615, Control_c, 0, 67, 109
1, 87630, Control_c, 0, 67, 110
1, 87644, Control_c, 0, 67, 112
1, 87659, Control_c, 0, 67, 114
1, 87669, Note_off_c, 0, 64, 54
1, 87674, Control_c, 0, 64, 80
1, 87674, Control_c, 0, 67, 116
1, 87689, Control_c, 0, 67, 118
1, 87692, Note_on_c, 0, 57, 62
1, 87712, Control_c, 0, 67, 120
1, 87715, Note_off_c, 0, 76, 62
1, 87726, Control_c, 0, 67, 123
1, 87741, Control_c, 0, 67, 124
1, 87756, Control_c, 0, 67, 126
1, 87771, Control_c, 0, 67, 127
1, 87786, Control_c, 0, 67, 127
1, 87788, Note_off_c, 0, 57, 61
1, 87810, Note_off_c, 0, 48, 42
1, 87815, Control_c, 0, 64, 80
1, 87964, Note_on_c, 0, 47, 79
1, 87978, Control_c, 0, 64, 77
1, 87993, Control_c, 0, 64, 68
1, 88006, Note_on_c, 0, 79, 83
1, 88008, Control_c, 0, 64, 25
1, 88012, Note_on_c, 0, 67, 61
1, 88023, Control_c, 0, 64, 0
1, 88082, Control_c, 0, 64, 31
1, 88097, Control_c, 0, 64, 61
1, 88112, Control_c, 0, 64, 65
1, 88126, Control_c, 0, 64, 68
1, 88141, Control_c, 0, 64, 70
1, 88142, Note_off_c, 0, 47, 55
1, 88156, Control_c, 0, 64, 73
1, 88171, Control_c, 0, 64, 76
1, 88186, Control_c, 0, 64, 78
1, 88200, Control_c, 0, 64, 79
1, 88212, Note_off_c, 0, 79, 40
1, 88215, Control_c, 0, 64, 80
1, 88216, Note_off_c, 0, 67, 56
1, 88230, Control_c, 0, 64, 80
1, 88245, Control_c, 0, 64, 81
1, 88274, Control_c, 0, 64, 81
1, 88303, Note_on_c, 0, 62, 45
1, 88384, Note_on_c, 0, 77, 77
1, 88393, Note_on_c, 0, 65, 66
1, 88415, Note_off_c, 0, 62, 36
1, 88429, Note_off_c, 0, 77, 55
1, 88463, Note_off_c, 0, 65, 60
1, 88485, Note_on_c, 0, 57, 52
1, 88508, Note_off_c, 0, 57, 59
1, 88653, Control_c, 0, 64, 82
1, 88697, Control_c, 0, 64, 81
1, 88712, Control_c, 0, 64, 80
1, 88727, Control_c, 0, 64, 72
1, 88731, Note_on_c, 0, 40, 76
1, 88734, Note_on_c, 0, 74, 62
1, 88741, Note_on_c, 0, 62, 46
1, 88742, Control_c, 0, 64, 53
1, 88756, Control_c, 0, 64, 0
1, 88816, Control_c, 0, 64, 51
1, 88831, Control_c, 0, 64, 63
1, 88846, Control_c, 0, 64, 66
1, 88861, Control_c, 0, 64, 68
1, 88869, Note_off_c, 0, 40, 57
1, 88874, Note_off_c, 0, 74, 54
1, 88876, Control_c, 0, 64, 70
1, 88891, Control_c, 0, 64, 72
1, 88905, Control_c, 0, 64, 75
1, 88914, Note_off_c, 0, 62, 39
1, 88920, Control_c, 0, 64, 77
1, 88935, Control_c, 0, 64, 77
1, 88949, Control_c, 0, 64, 78
1, 88979, Control_c, 0, 64, 78
1, 89099, Note_on_c, 0, 56, 39
1, 89201, Note_on_c, 0, 71, 58
1, 89224, Note_on_c, 0, 59, 43
1, 89248, Note_off_c, 0, 56, 40
1, 89349, Note_on_c, 0, 47, 39
1, 89364, Note_off_c, 0, 59, 34
1, 89371, Note_off_c, 0, 71, 48
1, 89424, Note_off_c, 0, 47, 49
1, 89684, Control_c, 0, 64, 76
1, 89698, Control_c, 0, 64, 70
1, 89701, Note_on_c, 0, 45, 37
1, 89713, Control_c, 0, 64, 55
1, 89728, Control_c, 0, 64, 0
1, 89731, Note_on_c, 0, 72, 52
1, 89749, Note_on_c, 0, 60, 30
1, 89832, Control_c, 0, 64, 50
1, 89846, Control_c, 0, 64, 59
1, 89861, Control_c, 0, 64, 62
1, 89876, Control_c, 0, 64, 64
1, 89890, Control_c, 0, 64, 66
1, 89905, Control_c, 0, 64, 68
1, 89920, Control_c, 0, 64, 70
1, 89943, Control_c, 0, 64, 72
1, 89958, Control_c, 0, 64, 74
1, 89958, Note_off_c, 0, 45, 37
1, 89972, Control_c, 0, 64, 74
1, 89982, Note_off_c, 0, 60, 32
1, 89987, Control_c, 0, 64, 75
1, 89999, Note_off_c, 0, 72, 38
1, 90061, Control_c, 0, 64, 75
1, 90192, Note_on_c, 0, 59, 22
1, 90282, Note_on_c, 0, 74, 55
1, 90298, Note_on_c, 0, 62, 37
1, 90328, Control_c, 0, 64, 75
1, 90539, Note_off_c, 0, 74, 30
1, 90542, Note_off_c, 0, 62, 25
1, 90560, Note_off_c, 0, 59, 28
1, 90562, Note_on_c, 0, 52, 25
1, 90640, Control_c, 0, 67, 127
1, 90655, Control_c, 0, 67, 124
1, 90669, Control_c, 0, 67, 121
1, 90691, Control_c, 0, 67, 118
1, 90706, Control_c, 0, 67, 115
1, 90721, Control_c, 0, 67, 112
1, 90736, Control_c, 0, 67, 109
1, 90751, Control_c, 0, 67, 105
1, 90766, Control_c, 0, 67, 101
1, 90780, Control_c, 0, 67, 96
1, 90795, Control_c, 0, 67, 91
1, 90810, Control_c, 0, 67, 87
1, 90825, Control_c, 0, 64, 74
1, 90825, Control_c, 0, 67, 83
1, 90839, Control_c, 0, 67, 79
1, 90840, Note_off_c, 0, 52, 27
1, 90854, Control_c, 0, 67, 75
1, 90870, Control_c, 0, 67, 71
1, 90885, Control_c, 0, 67, 67
1, 90900, Control_c, 0, 67, 63
1, 90915, Control_c, 0, 67, 60
1, 90930, Control_c, 0, 67, 56
1, 90944, Control_c, 0, 67, 51
1, 90959, Control_c, 0, 67, 47
1, 90974, Control_c, 0, 67, 44
1, 90989, Control_c, 0, 67, 39
1, 91004, Control_c, 0, 67, 35
1, 91018, Control_c, 0, 64, 74
1, 91018, Control_c, 0, 67, 31
1, 91033, Control_c, 0, 67, 27
1, 91048, Control_c, 0, 67, 23
1, 91063, Control_c, 0, 67, 18
1, 91078, Control_c, 0, 67, 13
1, 91092, Control_c, 0, 67, 8
1, 91107, Control_c, 0, 64, 73
1, 91107, Control_c, 0, 67, 0
1, 91137, Control_c, 0, 64, 73
1, 91151, Control_c, 0, 64, 72
1, 91166, Control_c, 0, 64, 71
1, 91181, Control_c, 0, 64, 70
1, 91196, Control_c, 0, 64, 69
1, 91211, Control_c, 0, 64, 67
1, 91217, Note_on_c, 0, 76, 45
1, 91225, Control_c, 0, 64, 65
1, 91226, Note_on_c, 0, 60, 24
1, 91237, Note_on_c, 0, 64, 26
1, 91240, Control_c, 0, 64, 64
1, 91255, Control_c, 0, 64, 62
1, 91270, Control_c, 0, 64, 58
1, 91285, Control_c, 0, 64, 54
1, 91299, Control_c, 0, 64, 46
1, 91314, Control_c, 0, 64, 25
1, 91329, Control_c, 0, 64, 0
1, 91663, Control_c, 0, 64, 16
1, 91678, Control_c, 0, 64, 39
1, 91693, Control_c, 0, 64, 48
1, 91708, Control_c, 0, 64, 53
1, 91722, Control_c, 0, 64, 56
1, 91737, Control_c, 0, 64, 59
1, 91752, Control_c, 0, 64, 60
1, 91767, Control_c, 0, 64, 62
1, 91782, Control_c, 0, 64, 63
1, 91797, Control_c, 0, 64, 64
1, 91812, Control_c, 0, 64, 65
1, 91827, Control_c, 0, 64, 65
1, 91841, Control_c, 0, 64, 66
1, 91856, Control_c, 0, 64, 67
1, 91871, Control_c, 0, 64, 68
1, 91885, Control_c, 0, 64, 69
1, 91900, Control_c, 0, 64, 70
1, 91915, Control_c, 0, 64, 71
1, 91930, Control_c, 0, 64, 72
1, 91945, Control_c, 0, 64, 73
1, 91959, Control_c, 0, 64, 74
1, 91974, Control_c, 0, 64, 75
1, 91989, Control_c, 0, 64, 75
1, 92004, Control_c, 0, 64, 76
1, 92019, Control_c, 0, 64, 76
1, 92035, Control_c, 0, 64, 77
1, 92064, Control_c, 0, 64, 77
1, 92085, Note_off_c, 0, 76, 32
1, 92086, Note_off_c, 0, 64, 31
1, 92172, Note_off_c, 0, 60, 30
1, 92590, Control_c, 0, 64, 77
1, 92679, Control_c, 0, 64, 76
1, 92709, Control_c, 0, 64, 76
1, 92724, Control_c, 0, 64, 75
1, 92739, Control_c, 0, 64, 75
1, 92754, Control_c, 0, 64, 74
1, 92769, Control_c, 0, 64, 74
1, 92784, Control_c, 0, 64, 73
1, 92799, Control_c, 0, 64, 73
1, 92813, Control_c, 0, 64, 72
1, 92828, Control_c, 0, 64, 72
1, 92843, Control_c, 0, 64, 71
1, 92858, Control_c, 0, 64, 70
1, 92873, Control_c, 0, 64, 70
1, 92888, Control_c, 0, 64, 69
1, 92903, Control_c, 0, 64, 69
1, 92917, Control_c, 0, 64, 68
1, 92932, Control_c, 0, 64, 68
1, 92969, Control_c, 0, 64, 67
1, 92998, Control_c, 0, 64, 67
1, 93013, Control_c, 0, 64, 66
1, 93028, Control_c, 0, 64, 65
1, 93043, Control_c, 0, 64, 63
1, 93058, Control_c, 0, 64, 61
1, 93073, Control_c, 0, 64, 57
1, 93088, Control_c, 0, 64, 53
1, 93103, Control_c, 0, 64, 46
1, 93117, Control_c, 0, 64, 33
1, 93132, Control_c, 0, 64, 0
1, 93345, Note_on_c, 0, 52, 64
1, 93375, Note_off_c, 0, 52, 67
1, 93472, Note_on_c, 0, 64, 56
1, 93523, Note_off_c, 0, 64, 58
1, 93589, Note_on_c, 0, 45, 56
1, 93606, Note_on_c, 0, 60, 64
1, 93609, Note_on_c, 0, 57, 55
1, 93621, Control_c, 0, 64, 46
1, 93636, Control_c, 0, 64, 0
1, 93648, Note_off_c, 0, 45, 54
1, 93648, Note_off_c, 0, 57, 61
1, 93669, Note_off_c, 0, 60, 57
1, 93736, Note_on_c, 0, 62, 65
1, 93783, Note_off_c, 0, 62, 61
1, 93857, Note_on_c, 0, 64, 69
1, 93861, Note_on_c, 0, 52, 62
1, 93885, Note_off_c, 0, 64, 66
1, 93891, Note_off_c, 0, 52, 67
1, 93940, Control_c, 0, 67, 8
1, 93976, Note_on_c, 0, 76, 74
1, 94041, Note_off_c, 0, 76, 61
1, 94074, Control_c, 0, 67, 0
1, 94097, Note_on_c, 0, 45, 61
1, 94101, Note_on_c, 0, 72, 74
1, 94116, Note_on_c, 0, 69, 61
1, 94134, Control_c, 0, 64, 41
1, 94149, Control_c, 0, 64, 0
1, 94150, Note_off_c, 0, 45, 58
1, 94151, Note_off_c, 0, 72, 63
1, 94154, Note_off_c, 0, 69, 62
1, 94225, Note_on_c, 0, 74, 64
1, 94235, Note_on_c, 0, 71, 38
1, 94263, Note_off_c, 0, 71, 45
1, 94271, Note_off_c, 0, 74, 65
1, 94345, Note_on_c, 0, 52, 62
1, 94350, Note_on_c, 0, 72, 55
1, 94351, Note_on_c, 0, 76, 61
1, 94368, Note_off_c, 0, 72, 62
1, 94369, Note_off_c, 0, 76, 64
1, 94373, Note_off_c, 0, 52, 67
1, 94451, Control_c, 0, 67, 8
1, 94474, Note_on_c, 0, 88, 83
1, 94481, Control_c, 0, 67, 0
1, 94527, Note_off_c, 0, 88, 61
1, 94608, Note_on_c, 0, 53, 94
1, 94612, Note_on_c, 0, 83, 75
1, 94614, Note_on_c, 0, 86, 79
1, 94629, Control_c, 0, 64, 60
1, 94644, Control_c, 0, 64, 72
1, 94659, Control_c, 0, 64, 73
1, 94665, Note_off_c, 0, 83, 60
1, 94674, Control_c, 0, 64, 74
1, 94688, Control_c, 0, 64, 76
1, 94699, Note_off_c, 0, 86, 59
1, 94703, Control_c, 0, 64, 79
1, 94718, Control_c, 0, 64, 80
1, 94733, Control_c, 0, 64, 81
1, 94745, Note_on_c, 0, 84, 70
1, 94748, Control_c, 0, 64, 82
1, 94748, Note_off_c, 0, 53, 61
1, 94751, Note_on_c, 0, 81, 66
1, 94782, Note_off_c, 0, 81, 60
1, 94805, Note_off_c, 0, 84, 64
1, 94822, Control_c, 0, 64, 81
1, 94836, Control_c, 0, 64, 80
1, 94851, Control_c, 0, 64, 76
1, 94867, Note_on_c, 0, 83, 70
1, 94867, Control_c, 0, 64, 69
1, 94882, Control_c, 0, 64, 54
1, 94882, Note_on_c, 0, 79, 51
1, 94897, Control_c, 0, 64, 0
1, 94900, Note_off_c, 0, 83, 58
1, 94915, Note_off_c, 0, 79, 49
1, 94941, Control_c, 0, 67, 8
1, 94956, Control_c, 0, 67, 8
1, 94985, Control_c, 0, 67, 9
1, 94995, Note_on_c, 0, 53, 85
1, 95000, Control_c, 0, 67, 8
1, 95003, Note_on_c, 0, 84, 65
1, 95004, Note_on_c, 0, 81, 58
1, 95028, Note_off_c, 0, 53, 66
1, 95050, Note_off_c, 0, 81, 53
1, 95059, Note_off_c, 0, 84, 58
1, 95115, Note_on_c, 0, 53, 106
1, 95126, Note_on_c, 0, 83, 57
1, 95130, Note_on_c, 0, 79, 67
1, 95148, Control_c, 0, 64, 55
1, 95148, Control_c, 0, 67, 8
1, 95157, Note_off_c, 0, 83, 64
1, 95163, Control_c, 0, 64, 66
1, 95185, Control_c, 0, 64, 68
1, 95200, Control_c, 0, 64, 69
1, 95206, Note_off_c, 0, 79, 58
1, 95215, Control_c, 0, 64, 71
1, 95215, Control_c, 0, 67, 0
1, 95230, Control_c, 0, 64, 72
1, 95245, Control_c, 0, 64, 73
1, 95260, Control_c, 0, 64, 74
1, 95267, Note_on_c, 0, 77, 61
1, 95274, Control_c, 0, 64, 74
1, 95279, Note_on_c, 0, 81, 41
1, 95286, Note_off_c, 0, 77, 57
1, 95289, Control_c, 0, 64, 75
1, 95307, Note_off_c, 0, 81, 38
1, 95388, Note_off_c, 0, 53, 54
1, 95389, Note_on_c, 0, 45, 76
1, 95407, Control_c, 0, 64, 74
1, 95422, Control_c, 0, 64, 74
1, 95432, Note_off_c, 0, 45, 65
1, 95452, Control_c, 0, 64, 73
1, 95466, Control_c, 0, 64, 73
1, 95481, Control_c, 0, 64, 72
1, 95496, Control_c, 0, 64, 71
1, 95499, Note_on_c, 0, 69, 75
1, 95506, Note_on_c, 0, 57, 64
1, 95511, Control_c, 0, 64, 71
1, 95525, Note_off_c, 0, 57, 61
1, 95526, Control_c, 0, 64, 70
1, 95541, Control_c, 0, 64, 69
1, 95556, Control_c, 0, 64, 68
1, 95571, Control_c, 0, 64, 65
1, 95585, Control_c, 0, 64, 56
1, 95590, Note_off_c, 0, 69, 49
1, 95600, Control_c, 0, 64, 0
1, 95627, Note_on_c, 0, 38, 68
1, 95646, Note_on_c, 0, 65, 60
1, 95653, Note_on_c, 0, 62, 66
1, 95676, Note_off_c, 0, 38, 63
1, 95682, Note_off_c, 0, 65, 66
1, 95694, Note_off_c, 0, 62, 59
1, 95760, Note_on_c, 0, 67, 69
1, 95790, Note_on_c, 0, 64, 9
1, 95800, Note_off_c, 0, 67, 63
1, 95838, Note_off_c, 0, 64, 28
1, 95882, Note_on_c, 0, 45, 62
1, 95887, Note_on_c, 0, 69, 57
1, 95899, Note_on_c, 0, 65, 29
1, 95907, Note_off_c, 0, 69, 61
1, 95916, Note_off_c, 0, 45, 63
1, 95943, Note_off_c, 0, 65, 31
1, 95994, Control_c, 0, 67, 8
1, 96003, Note_on_c, 0, 81, 76
1, 96054, Control_c, 0, 67, 0
1, 96064, Note_off_c, 0, 81, 55
1, 96125, Note_on_c, 0, 38, 62
1, 96128, Note_on_c, 0, 77, 69
1, 96133, Note_on_c, 0, 74, 68
1, 96173, Note_off_c, 0, 74, 55
1, 96174, Note_off_c, 0, 77, 62
1, 96190, Note_off_c, 0, 38, 55
1, 96250, Note_on_c, 0, 79, 70
1, 96256, Note_on_c, 0, 76, 48
1, 96276, Note_off_c, 0, 76, 54
1, 96288, Note_off_c, 0, 79, 59
1, 96352, Note_on_c, 0, 45, 58
1, 96377, Note_off_c, 0, 45, 63
1, 96380, Note_on_c, 0, 83, 48
1, 96403, Note_off_c, 0, 83, 54
1, 96482, Note_on_c, 0, 93, 88
1, 96519, Note_off_c, 0, 93, 57
1, 96596, Note_on_c, 0, 52, 89
1, 96597, Note_on_c, 0, 88, 59
1, 96605, Note_on_c, 0, 47, 81
1, 96608, Note_on_c, 0, 92, 68
1, 96636, Note_off_c, 0, 92, 64
1, 96647, Control_c, 0, 64, 28
1, 96655, Note_off_c, 0, 52, 64
1, 96657, Note_off_c, 0, 88, 63
1, 96662, Control_c, 0, 64, 31
1, 96683, Control_c, 0, 64, 33
1, 96698, Control_c, 0, 64, 34
1, 96713, Control_c, 0, 64, 35
1, 96715, Note_off_c, 0, 47, 63
1, 96740, Note_on_c, 0, 90, 68
1, 96744, Note_on_c, 0, 83, 64
1, 96758, Control_c, 0, 64, 34
1, 96772, Note_off_c, 0, 83, 64
1, 96772, Control_c, 0, 64, 33
1, 96779, Note_off_c, 0, 90, 61
1, 96787, Control_c, 0, 64, 31
1, 96802, Control_c, 0, 64, 28
1, 96817, Control_c, 0, 64, 24
1, 96832, Control_c, 0, 64, 16
1, 96844, Note_on_c, 0, 80, 75
1, 96847, Control_c, 0, 64, 0
1, 96853, Note_on_c, 0, 88, 68
1, 96879, Note_off_c, 0, 80, 61
1, 96881, Note_off_c, 0, 88, 62
1, 96954, Note_on_c, 0, 47, 78
1, 96960, Note_on_c, 0, 83, 75
1, 96963, Note_on_c, 0, 90, 75
1, 96983, Note_off_c, 0, 47, 65
1, 97005, Note_off_c, 0, 83, 60
1, 97015, Note_off_c, 0, 90, 62
1, 97057, Note_on_c, 0, 47, 89
1, 97069, Control_c, 0, 64, 13
1, 97070, Note_on_c, 0, 80, 88
1, 97071, Note_on_c, 0, 88, 81
1, 97083, Control_c, 0, 64, 28
1, 97098, Control_c, 0, 64, 31
1, 97107, Note_off_c, 0, 80, 66
1, 97110, Note_off_c, 0, 88, 62
1, 97128, Control_c, 0, 64, 30
1, 97143, Control_c, 0, 64, 27
1, 97157, Control_c, 0, 64, 18
1, 97172, Control_c, 0, 64, 0
1, 97191, Note_on_c, 0, 76, 69
1, 97191, Note_on_c, 0, 83, 58
1, 97210, Note_off_c, 0, 83, 59
1, 97225, Note_off_c, 0, 76, 66
1, 97320, Note_on_c, 0, 40, 61
1, 97358, Note_off_c, 0, 40, 62
1, 97440, Note_on_c, 0, 64, 70
1, 97446, Note_on_c, 0, 52, 60
1, 97467, Note_off_c, 0, 52, 61
1, 97538, Note_off_c, 0, 64, 29
1, 97572, Note_on_c, 0, 33, 70
1, 97586, Note_on_c, 0, 60, 63
1, 97590, Note_on_c, 0, 57, 65
1, 97622, Note_off_c, 0, 60, 60
1, 97629, Note_off_c, 0, 57, 62
1, 97637, Note_off_c, 0, 33, 59
1, 97705, Note_on_c, 0, 62, 62
1, 97741, Note_off_c, 0, 62, 63
1, 97815, Note_on_c, 0, 40, 68
1, 97821, Note_on_c, 0, 64, 71
1, 97822, Note_on_c, 0, 60, 55
1, 97843, Note_off_c, 0, 60, 58
1, 97845, Note_off_c, 0, 40, 64
1, 97848, Note_off_c, 0, 64, 68
1, 97948, Note_on_c, 0, 76, 70
1, 98005, Note_off_c, 0, 76, 59
1, 98069, Note_on_c, 0, 33, 76
1, 98071, Note_on_c, 0, 72, 74
1, 98078, Note_on_c, 0, 69, 70
1, 98113, Note_off_c, 0, 33, 60
1, 98114, Note_off_c, 0, 72, 63
1, 98119, Note_off_c, 0, 69, 56
1, 98203, Note_on_c, 0, 74, 68
1, 98215, Note_on_c, 0, 71, 42
1, 98242, Note_off_c, 0, 74, 65
1, 98243, Note_off_c, 0, 71, 35
1, 98315, Note_on_c, 0, 40, 65
1, 98327, Note_on_c, 0, 76, 60
1, 98341, Note_on_c, 0, 72, 31
1, 98343, Note_off_c, 0, 40, 66
1, 98345, Note_off_c, 0, 76, 66
1, 98373, Note_off_c, 0, 72, 47
1, 98441, Note_on_c, 0, 88, 84
1, 98486, Note_off_c, 0, 88, 59
1, 98573, Note_on_c, 0, 41, 86
1, 98579, Note_on_c, 0, 83, 77
1, 98579, Note_on_c, 0, 86, 79
1, 98581, Control_c, 0, 64, 63
1, 98596, Control_c, 0, 64, 71
1, 98601, Note_off_c, 0, 47, 57
1, 98610, Control_c, 0, 64, 72
1, 98619, Note_off_c, 0, 41, 67
1, 98622, Note_off_c, 0, 83, 59
1, 98625, Control_c, 0, 64, 73
1, 98640, Control_c, 0, 64, 74
1, 98641, Note_off_c, 0, 86, 61
1, 98654, Control_c, 0, 64, 75
1, 98669, Control_c, 0, 64, 76
1, 98684, Control_c, 0, 64, 77
1, 98699, Control_c, 0, 64, 77
1, 98701, Note_on_c, 0, 84, 73
1, 98703, Note_on_c, 0, 81, 66
1, 98731, Note_off_c, 0, 81, 62
1, 98740, Note_off_c, 0, 84, 62
1, 98773, Control_c, 0, 64, 77
1, 98788, Control_c, 0, 64, 76
1, 98802, Control_c, 0, 64, 74
1, 98817, Control_c, 0, 64, 71
1, 98832, Control_c, 0, 64, 67
1, 98836, Note_on_c, 0, 79, 56
1, 98841, Note_on_c, 0, 83, 52
1, 98848, Control_c, 0, 64, 63
1, 98862, Note_off_c, 0, 83, 60
1, 98863, Control_c, 0, 64, 57
1, 98877, Control_c, 0, 64, 56
1, 98882, Note_off_c, 0, 79, 59
1, 98892, Control_c, 0, 64, 55
1, 98907, Control_c, 0, 64, 48
1, 98922, Control_c, 0, 64, 30
1, 98945, Control_c, 0, 64, 0
1, 98961, Note_on_c, 0, 41, 88
1, 98963, Note_on_c, 0, 81, 70
1, 98979, Note_on_c, 0, 84, 58
1, 99005, Note_off_c, 0, 41, 66
1, 99009, Note_off_c, 0, 81, 57
1, 99015, Note_off_c, 0, 84, 62
1, 99048, Control_c, 0, 64, 48
1, 99063, Control_c, 0, 64, 61
1, 99073, Note_on_c, 0, 41, 96
1, 99077, Control_c, 0, 64, 64
1, 99088, Note_on_c, 0, 79, 72
1, 99092, Control_c, 0, 64, 65
1, 99093, Note_on_c, 0, 83, 64
1, 99107, Control_c, 0, 64, 67
1, 99120, Note_off_c, 0, 83, 65
1, 99122, Control_c, 0, 64, 69
1, 99137, Control_c, 0, 64, 72
1, 99151, Control_c, 0, 64, 74
1, 99154, Note_off_c, 0, 79, 61
1, 99166, Control_c, 0, 64, 76
1, 99181, Control_c, 0, 64, 77
1, 99196, Control_c, 0, 64, 77
1, 99211, Control_c, 0, 64, 78
1, 99215, Note_on_c, 0, 77, 65
1, 99222, Note_on_c, 0, 81, 57
1, 99225, Control_c, 0, 64, 79
1, 99233, Note_off_c, 0, 41, 58
1, 99233, Note_off_c, 0, 77, 61
1, 99240, Control_c, 0, 64, 79
1, 99241, Note_off_c, 0, 81, 58
1, 99270, Control_c, 0, 64, 80
1, 99330, Note_on_c, 0, 57, 91
1, 99345, Control_c, 0, 64, 73
1, 99356, Note_off_c, 0, 57, 66
1, 99359, Control_c, 0, 64, 48
1, 99374, Control_c, 0, 64, 0
1, 99461, Note_on_c, 0, 69, 71
1, 99476, Note_on_c, 0, 57, 42
1, 99483, Note_off_c, 0, 57, 46
1, 99526, Note_off_c, 0, 69, 39
1, 99600, Note_on_c, 0, 50, 58
1, 99601, Note_on_c, 0, 65, 63
1, 99606, Note_on_c, 0, 62, 66
1, 99625, Note_off_c, 0, 50, 62
1, 99633, Note_off_c, 0, 65, 67
1, 99646, Note_off_c, 0, 62, 59
1, 99732, Note_on_c, 0, 67, 64
1, 99739, Note_on_c, 0, 64, 36
1, 99763, Note_off_c, 0, 67, 65
1, 99770, Note_off_c, 0, 64, 34
1, 99844, Note_on_c, 0, 57, 67
1, 99857, Note_on_c, 0, 69, 68
1, 99874, Note_off_c, 0, 57, 64
1, 99875, Note_off_c, 0, 69, 67
1, 99973, Note_on_c, 0, 81, 81
1, 100034, Note_off_c, 0, 81, 58
1, 100088, Note_on_c, 0, 50, 63
1, 100091, Note_on_c, 0, 77, 70
1, 100093, Control_c, 0, 64, 60
1, 100099, Note_on_c, 0, 74, 55
1, 100108, Control_c, 0, 64, 68
1, 100120, Note_off_c, 0, 77, 61
1, 100123, Control_c, 0, 64, 66
1, 100127, Note_off_c, 0, 50, 58
1, 100134, Note_off_c, 0, 74, 62
1, 100138, Control_c, 0, 64, 66
1, 100152, Control_c, 0, 64, 66
1, 100197, Control_c, 0, 64, 67
1, 100209, Note_on_c, 0, 79, 69
1, 100210, Note_on_c, 0, 76, 57
1, 100227, Note_off_c, 0, 76, 66
1, 100241, Control_c, 0, 64, 67
1, 100245, Note_off_c, 0, 79, 60
1, 100299, Control_c, 0, 64, 68
1, 100307, Note_on_c, 0, 57, 65
1, 100314, Control_c, 0, 64, 69
1, 100329, Control_c, 0, 64, 70
1, 100330, Note_on_c, 0, 79, 51
1, 100335, Note_off_c, 0, 57, 64
1, 100336, Note_on_c, 0, 83, 44
1, 100344, Control_c, 0, 64, 71
1, 100351, Note_off_c, 0, 79, 59
1, 100359, Control_c, 0, 64, 72
1, 100361, Note_off_c, 0, 83, 36
1, 100373, Control_c, 0, 64, 73
1, 100388, Control_c, 0, 64, 74
1, 100403, Control_c, 0, 64, 74
1, 100418, Control_c, 0, 64, 75
1, 100427, Note_on_c, 0, 40, 89
1, 100442, Note_on_c, 0, 93, 89
1, 100451, Note_off_c, 0, 40, 67
1, 100482, Note_on_c, 0, 88, 22
1, 100488, Note_off_c, 0, 93, 62
1, 100501, Control_c, 0, 64, 73
1, 100516, Control_c, 0, 64, 71
1, 100522, Note_off_c, 0, 88, 30
1, 100530, Control_c, 0, 64, 66
1, 100545, Control_c, 0, 64, 58
1, 100560, Control_c, 0, 64, 48
1, 100562, Note_on_c, 0, 88, 66
1, 100563, Note_on_c, 0, 59, 89
1, 100567, Note_on_c, 0, 53, 78
1, 100568, Note_on_c, 0, 52, 85
1, 100575, Control_c, 0, 64, 53
1, 100580, Note_off_c, 0, 59, 73
1, 100590, Control_c, 0, 64, 56
1, 100591, Note_off_c, 0, 53, 71
1, 100592, Note_off_c, 0, 52, 73
1, 100604, Control_c, 0, 64, 59
1, 100618, Note_off_c, 0, 88, 63
1, 100619, Control_c, 0, 64, 61
1, 100634, Control_c, 0, 64, 61
1, 100649, Control_c, 0, 64, 62
1, 100678, Control_c, 0, 64, 62
1, 100683, Note_on_c, 0, 90, 71
1, 100688, Note_on_c, 0, 83, 66
1, 100693, Control_c, 0, 64, 63
1, 100708, Control_c, 0, 64, 63
1, 100723, Control_c, 0, 64, 64
1, 100728, Note_off_c, 0, 83, 60
1, 100737, Control_c, 0, 64, 64
1, 100742, Note_off_c, 0, 90, 60
1, 100752, Control_c, 0, 64, 65
1, 100799, Note_on_c, 0, 88, 72
1, 100799, Note_on_c, 0, 80, 76
1, 100811, Control_c, 0, 64, 64
1, 100826, Control_c, 0, 64, 63
1, 100840, Note_off_c, 0, 80, 64
1, 100841, Control_c, 0, 64, 61
1, 100843, Note_off_c, 0, 88, 61
1, 100856, Control_c, 0, 64, 58
1, 100871, Control_c, 0, 64, 54
1, 100886, Control_c, 0, 64, 48
1, 100901, Control_c, 0, 64, 43
1, 100911, Note_on_c, 0, 52, 88
1, 100913, Note_on_c, 0, 59, 73
1, 100916, Control_c, 0, 64, 30
1, 100921, Note_on_c, 0, 83, 74
1, 100924, Note_on_c, 0, 90, 79
1, 100930, Control_c, 0, 64, 0
1, 100933, Note_off_c, 0, 52, 71
1, 100937, Note_off_c, 0, 59, 66
1, 100966, Note_off_c, 0, 83, 61
1, 100978, Note_off_c, 0, 90, 63
1, 101019, Control_c, 0, 64, 57
1, 101022, Note_on_c, 0, 52, 103
1, 101034, Control_c, 0, 64, 64
1, 101037, Note_on_c, 0, 88, 77
1, 101047, Note_on_c, 0, 80, 57
1, 101048, Control_c, 0, 64, 65
1, 101052, Note_off_c, 0, 52, 71
1, 101061, Note_on_c, 0, 79, 45
1, 101063, Control_c, 0, 64, 67
1, 101066, Note_off_c, 0, 80, 62
1, 101077, Note_off_c, 0, 88, 61
1, 101078, Control_c, 0, 64, 68
1, 101086, Note_off_c, 0, 79, 46
1, 101093, Control_c, 0, 64, 70
1, 101108, Control_c, 0, 64, 72
1, 101122, Control_c, 0, 64, 73
1, 101137, Control_c, 0, 64, 74
1, 101152, Control_c, 0, 64, 75
1, 101157, Note_on_c, 0, 83, 74
1, 101167, Control_c, 0, 64, 75
1, 101179, Note_on_c, 0, 76, 62
1, 101190, Control_c, 0, 64, 76
1, 101202, Note_off_c, 0, 83, 59
1, 101204, Control_c, 0, 64, 76
1, 101215, Note_off_c, 0, 76, 65
1, 101279, Control_c, 0, 64, 76
1, 101282, Note_on_c, 0, 55, 106
1, 101289, Note_on_c, 0, 52, 90
1, 101294, Control_c, 0, 64, 73
1, 101309, Control_c, 0, 64, 69
1, 101311, Note_off_c, 0, 52, 64
1, 101324, Control_c, 0, 64, 64
1, 101339, Control_c, 0, 64, 54
1, 101353, Control_c, 0, 64, 48
1, 101368, Control_c, 0, 64, 49
1, 101383, Control_c, 0, 64, 50
1, 101398, Control_c, 0, 64, 50
1, 101413, Control_c, 0, 64, 51
1, 101443, Note_on_c, 0, 66, 30
1, 101450, Note_on_c, 0, 70, 26
1, 101472, Control_c, 0, 64, 50
1, 101473, Note_off_c, 0, 66, 52
1, 101486, Control_c, 0, 64, 45
1, 101488, Note_off_c, 0, 70, 39
1, 101501, Control_c, 0, 64, 0
1, 101542, Note_on_c, 0, 45, 68
1, 101560, Note_on_c, 0, 64, 53
1, 101562, Note_on_c, 0, 61, 57
1, 101568, Note_off_c, 0, 45, 67
1, 101595, Note_off_c, 0, 61, 64
1, 101596, Note_off_c, 0, 64, 65
1, 101676, Note_on_c, 0, 65, 62
1, 101680, Note_on_c, 0, 62, 57
1, 101712, Note_off_c, 0, 65, 63
1, 101716, Note_off_c, 0, 62, 62
1, 101783, Note_on_c, 0, 64, 62
1, 101787, Note_on_c, 0, 52, 57
1, 101803, Note_off_c, 0, 64, 65
1, 101816, Note_off_c, 0, 52, 66
1, 101901, Note_on_c, 0, 82, 81
1, 101909, Note_on_c, 0, 70, 75
1, 101940, Note_off_c, 0, 70, 69
1, 101941, Note_off_c, 0, 82, 51
1, 102031, Note_on_c, 0, 76, 74
1, 102035, Note_on_c, 0, 45, 59
1, 102041, Note_on_c, 0, 73, 69
1, 102069, Note_off_c, 0, 45, 63
1, 102069, Note_off_c, 0, 73, 65
1, 102078, Note_off_c, 0, 76, 66
1, 102157, Note_on_c, 0, 74, 63
1, 102159, Note_on_c, 0, 77, 63
1, 102185, Note_off_c, 0, 74, 65
1, 102189, Note_off_c, 0, 77, 64
1, 102262, Note_on_c, 0, 52, 64
1, 102264, Note_on_c, 0, 76, 63
1, 102281, Note_off_c, 0, 76, 67
1, 102298, Note_off_c, 0, 52, 63
1, 102383, Note_on_c, 0, 94, 88
1, 102392, Note_on_c, 0, 82, 75
1, 102408, Note_off_c, 0, 82, 70
1, 102409, Note_off_c, 0, 94, 61
1, 102506, Note_on_c, 0, 45, 85
1, 102506, Note_on_c, 0, 93, 94
1, 102509, Note_on_c, 0, 89, 86
1, 102549, Note_off_c, 0, 89, 66
1, 102594, Note_off_c, 0, 93, 59
1, 102627, Note_on_c, 0, 91, 85
1, 102644, Note_on_c, 0, 88, 62
1, 102661, Note_off_c, 0, 88, 62
1, 102689, Note_off_c, 0, 91, 60
1, 102706, Note_off_c, 0, 45, 58
1, 102761, Note_on_c, 0, 89, 71
1, 102768, Note_on_c, 0, 86, 59
1, 102783, Note_off_c, 0, 89, 71
1, 102801, Note_off_c, 0, 86, 63
1, 102875, Note_on_c, 0, 45, 56
1, 102877, Note_on_c, 0, 91, 73
1, 102882, Note_on_c, 0, 88, 67
1, 102907, Note_off_c, 0, 45, 65
1, 102915, Note_off_c, 0, 88, 60
1, 102929, Note_off_c, 0, 91, 56
1, 102990, Note_on_c, 0, 45, 61
1, 102993, Note_on_c, 0, 89, 64
1, 102996, Note_on_c, 0, 86, 64
1, 103022, Note_off_c, 0, 89, 67
1, 103046, Note_off_c, 0, 55, 39
1, 103056, Note_off_c, 0, 86, 61
1, 103118, Note_on_c, 0, 85, 63
1, 103120, Note_on_c, 0, 88, 64
1, 103138, Note_off_c, 0, 88, 64
1, 103143, Note_off_c, 0, 85, 67
1, 103223, Note_off_c, 0, 45, 61
1, 103234, Note_on_c, 0, 53, 98
1, 103239, Note_on_c, 0, 50, 81
1, 103302, Note_off_c, 0, 50, 55
1, 103368, Note_on_c, 0, 57, 68
1, 103369, Note_on_c, 0, 69, 60
1, 103388, Note_off_c, 0, 69, 62
1, 103396, Note_off_c, 0, 57, 65
1, 103494, Note_on_c, 0, 43, 63
1, 103537, Note_on_c, 0, 62, 41
1, 103539, Note_off_c, 0, 43, 59
1, 103565, Note_off_c, 0, 62, 55
1, 103626, Note_on_c, 0, 64, 66
1, 103652, Note_on_c, 0, 60, 36
1, 103658, Note_off_c, 0, 64, 67
1, 103679, Note_off_c, 0, 60, 47
1, 103737, Note_on_c, 0, 65, 72
1, 103744, Note_on_c, 0, 50, 59
1, 103761, Note_off_c, 0, 65, 68
1, 103787, Note_off_c, 0, 50, 63
1, 103860, Note_on_c, 0, 81, 88
1, 103874, Note_on_c, 0, 69, 69
1, 103893, Note_off_c, 0, 69, 67
1, 103896, Note_off_c, 0, 81, 55
1, 103982, Note_on_c, 0, 43, 62
1, 103991, Note_on_c, 0, 74, 80
1, 104016, Note_on_c, 0, 71, 47
1, 104041, Note_off_c, 0, 71, 50
1, 104048, Note_off_c, 0, 74, 65
1, 104106, Note_on_c, 0, 76, 75
1, 104163, Note_off_c, 0, 76, 62
1, 104211, Note_off_c, 0, 43, 37
1, 104221, Note_on_c, 0, 77, 81
1, 104228, Note_on_c, 0, 50, 64
1, 104242, Note_off_c, 0, 77, 67
1, 104281, Note_off_c, 0, 50, 56
1, 104349, Note_on_c, 0, 93, 91
1, 104364, Note_on_c, 0, 81, 66
1, 104385, Note_off_c, 0, 81, 61
1, 104387, Note_off_c, 0, 93, 58
1, 104472, Note_on_c, 0, 43, 91
1, 104474, Note_on_c, 0, 91, 96
1, 104481, Note_on_c, 0, 88, 83
1, 104497, Control_c, 0, 64, 62
1, 104512, Control_c, 0, 64, 32
1, 104527, Control_c, 0, 64, 0
1, 104530, Note_off_c, 0, 88, 62
1, 104571, Control_c, 0, 64, 16
1, 104576, Note_off_c, 0, 91, 49
1, 104586, Control_c, 0, 64, 21
1, 104598, Note_on_c, 0, 89, 84
1, 104600, Note_on_c, 0, 86, 82
1, 104616, Control_c, 0, 64, 22
1, 104642, Note_off_c, 0, 86, 64
1, 104645, Control_c, 0, 64, 21
1, 104657, Note_off_c, 0, 89, 65
1, 104660, Control_c, 0, 64, 18
1, 104667, Note_off_c, 0, 43, 52
1, 104675, Control_c, 0, 64, 13
1, 104689, Control_c, 0, 64, 0
1, 104722, Note_on_c, 0, 88, 81
1, 104726, Note_on_c, 0, 84, 73
1, 104755, Note_off_c, 0, 88, 62
1, 104773, Note_off_c, 0, 84, 62
1, 104841, Note_on_c, 0, 43, 75
1, 104842, Note_on_c, 0, 86, 78
1, 104845, Note_on_c, 0, 89, 84
1, 104888, Note_off_c, 0, 43, 58
1, 104895, Note_off_c, 0, 86, 63
1, 104907, Note_off_c, 0, 89, 65
1, 104962, Note_on_c, 0, 43, 81
1, 104967, Note_on_c, 0, 88, 78
1, 104982, Note_on_c, 0, 84, 72
1, 105008, Note_off_c, 0, 88, 62
1, 105011, Note_off_c, 0, 53, 46
1, 105041, Note_off_c, 0, 84, 64
1, 105099, Note_on_c, 0, 86, 66
1, 105103, Note_on_c, 0, 83, 59
1, 105119, Note_off_c, 0, 86, 65
1, 105133, Note_off_c, 0, 83, 64
1, 105205, Note_off_c, 0, 43, 60
1, 105217, Note_on_c, 0, 52, 106
1, 105223, Note_on_c, 0, 48, 80
1, 105263, Note_off_c, 0, 48, 67
1, 105340, Note_on_c, 0, 67, 72
1, 105354, Note_on_c, 0, 59, 55
1, 105387, Note_off_c, 0, 59, 55
1, 105391, Note_off_c, 0, 67, 49
1, 105474, Note_on_c, 0, 41, 67
1, 105491, Note_on_c, 0, 60, 68
1, 105514, Note_off_c, 0, 41, 64
1, 105526, Note_on_c, 0, 57, 23
1, 105537, Note_off_c, 0, 60, 59
1, 105567, Note_off_c, 0, 57, 38
1, 105610, Note_on_c, 0, 62, 64
1, 105649, Note_off_c, 0, 62, 61
1, 105725, Note_on_c, 0, 48, 67
1, 105731, Note_on_c, 0, 64, 66
1, 105761, Note_off_c, 0, 64, 67
1, 105859, Note_on_c, 0, 72, 68
1, 105882, Note_on_c, 0, 69, 41
1, 105891, Note_off_c, 0, 72, 64
1, 105909, Note_off_c, 0, 69, 58
1, 105956, Note_on_c, 0, 41, 81
1, 105960, Note_off_c, 0, 52, 57
1, 105975, Note_on_c, 0, 74, 67
1, 105976, Note_on_c, 0, 71, 58
1, 105995, Note_off_c, 0, 71, 63
1, 106003, Note_off_c, 0, 74, 66
1, 106040, Note_off_c, 0, 48, 33
1, 106085, Note_on_c, 0, 76, 65
1, 106092, Note_on_c, 0, 72, 49
1, 106125, Note_off_c, 0, 72, 53
1, 106141, Note_off_c, 0, 76, 53
1, 106184, Note_off_c, 0, 41, 57
1, 106185, Note_on_c, 0, 77, 66
1, 106197, Note_on_c, 0, 50, 103
1, 106198, Note_on_c, 0, 47, 78
1, 106208, Note_off_c, 0, 77, 65
1, 106236, Note_off_c, 0, 47, 66
1, 106324, Note_on_c, 0, 65, 57
1, 106428, Note_off_c, 0, 65, 30
1, 106465, Note_on_c, 0, 40, 67
1, 106468, Note_on_c, 0, 59, 60
1, 106472, Note_on_c, 0, 55, 47
1, 106498, Note_off_c, 0, 55, 58
1, 106511, Note_off_c, 0, 59, 62
1, 106514, Note_off_c, 0, 40, 59
1, 106594, Note_on_c, 0, 60, 60
1, 106604, Note_on_c, 0, 57, 44
1, 106626, Note_off_c, 0, 60, 64
1, 106630, Note_off_c, 0, 57, 58
1, 106706, Note_on_c, 0, 62, 65
1, 106709, Note_on_c, 0, 47, 70
1, 106737, Note_off_c, 0, 62, 64
1, 106829, Note_on_c, 0, 71, 68
1, 106838, Note_on_c, 0, 67, 51
1, 106863, Note_off_c, 0, 71, 61
1, 106872, Note_off_c, 0, 67, 60
1, 106935, Note_on_c, 0, 40, 71
1, 106953, Note_on_c, 0, 72, 61
1, 106964, Note_on_c, 0, 69, 32
1, 106982, Note_off_c, 0, 72, 69
1, 106989, Note_off_c, 0, 50, 50
1, 106997, Note_off_c, 0, 69, 33
1, 107052, Note_off_c, 0, 47, 0
1, 107069, Note_on_c, 0, 74, 50
1, 107071, Note_on_c, 0, 71, 42
1, 107089, Poly_aftertouch_c, 0, 47, 127
1, 107105, Note_off_c, 0, 74, 56
1, 107105, Note_off_c, 0, 71, 49
1, 107143, Poly_aftertouch_c, 0, 47, 0
1, 107170, Note_off_c, 0, 40, 63
1, 107176, Note_on_c, 0, 48, 101
1, 107179, Note_on_c, 0, 76, 43
1, 107181, Note_on_c, 0, 45, 77
1, 107202, Note_off_c, 0, 76, 50
1, 107223, Note_off_c, 0, 45, 65
1, 107304, Note_on_c, 0, 64, 52
1, 107344, Control_c, 0, 67, 8
1, 107359, Control_c, 0, 67, 11
1, 107372, Note_on_c, 0, 53, 62
1, 107373, Control_c, 0, 67, 11
1, 107399, Note_off_c, 0, 53, 68
1, 107403, Control_c, 0, 67, 11
1, 107405, Note_on_c, 0, 57, 57
1, 107417, Note_on_c, 0, 38, 77
1, 107427, Note_off_c, 0, 57, 61
1, 107427, Note_off_c, 0, 64, 63
1, 107429, Note_off_c, 0, 48, 59
1, 107432, Control_c, 0, 67, 11
1, 107462, Control_c, 0, 67, 12
1, 107477, Control_c, 0, 67, 13
1, 107491, Control_c, 0, 67, 14
1, 107506, Control_c, 0, 67, 15
1, 107531, Note_on_c, 0, 77, 81
1, 107551, Control_c, 0, 67, 15
1, 107561, Note_on_c, 0, 69, 52
1, 107566, Control_c, 0, 67, 14
1, 107581, Control_c, 0, 67, 14
1, 107596, Control_c, 0, 67, 14
1, 107610, Control_c, 0, 67, 15
1, 107622, Note_off_c, 0, 77, 60
1, 107625, Control_c, 0, 67, 15
1, 107629, Note_on_c, 0, 47, 102
1, 107640, Control_c, 0, 67, 16
1, 107642, Note_on_c, 0, 43, 66
1, 107644, Note_off_c, 0, 69, 35
1, 107646, Note_off_c, 0, 38, 58
1, 107650, Note_on_c, 0, 74, 29
1, 107673, Note_off_c, 0, 43, 61
1, 107682, Note_off_c, 0, 74, 44
1, 107685, Control_c, 0, 67, 15
1, 107715, Control_c, 0, 67, 15
1, 107760, Note_on_c, 0, 62, 76
1, 107760, Control_c, 0, 67, 15
1, 107789, Control_c, 0, 67, 16
1, 107834, Control_c, 0, 67, 17
1, 107848, Control_c, 0, 67, 17
1, 107862, Note_off_c, 0, 47, 58
1, 107863, Control_c, 0, 67, 18
1, 107868, Note_on_c, 0, 55, 68
1, 107872, Note_on_c, 0, 36, 75
1, 107875, Note_on_c, 0, 52, 52
1, 107878, Control_c, 0, 67, 19
1, 107893, Note_off_c, 0, 55, 67
1, 107893, Control_c, 0, 67, 24
1, 107895, Note_off_c, 0, 62, 60
1, 107903, Note_off_c, 0, 52, 36
1, 107908, Control_c, 0, 67, 29
1, 107930, Control_c, 0, 67, 34
1, 107945, Control_c, 0, 67, 37
1, 107959, Control_c, 0, 67, 41
1, 107974, Control_c, 0, 67, 45
1, 107989, Control_c, 0, 67, 47
1, 108004, Control_c, 0, 67, 48
1, 108019, Note_on_c, 0, 76, 83
1, 108019, Control_c, 0, 67, 48
1, 108034, Control_c, 0, 67, 49
1, 108039, Note_on_c, 0, 67, 48
1, 108064, Note_off_c, 0, 67, 55
1, 108093, Control_c, 0, 67, 50
1, 108095, Note_off_c, 0, 76, 43
1, 108108, Control_c, 0, 67, 51
1, 108110, Note_off_c, 0, 36, 63
1, 108115, Note_on_c, 0, 43, 82
1, 108120, Note_on_c, 0, 72, 68
1, 108122, Control_c, 0, 67, 55
1, 108127, Note_on_c, 0, 40, 68
1, 108137, Note_on_c, 0, 65, 46
1, 108137, Control_c, 0, 67, 61
1, 108139, Note_off_c, 0, 72, 67
1, 108152, Control_c, 0, 67, 66
1, 108164, Note_off_c, 0, 65, 54
1, 108167, Control_c, 0, 67, 70
1, 108182, Control_c, 0, 67, 73
1, 108196, Control_c, 0, 67, 78
1, 108211, Control_c, 0, 67, 82
1, 108226, Control_c, 0, 67, 86
1, 108240, Control_c, 0, 67, 89
1, 108250, Note_on_c, 0, 60, 72
1, 108255, Control_c, 0, 67, 93
1, 108270, Control_c, 0, 67, 97
1, 108285, Control_c, 0, 67, 103
1, 108300, Control_c, 0, 67, 108
1, 108314, Control_c, 0, 67, 115
1, 108329, Control_c, 0, 67, 121
1, 108344, Control_c, 0, 67, 125
1, 108356, Note_on_c, 0, 35, 68
1, 108356, Note_off_c, 0, 43, 50
1, 108359, Control_c, 0, 67, 127
1, 108362, Note_on_c, 0, 53, 69
1, 108368, Note_on_c, 0, 50, 46
1, 108381, Note_off_c, 0, 40, 32
1, 108382, Note_off_c, 0, 60, 60
1, 108387, Note_off_c, 0, 53, 68
1, 108399, Note_off_c, 0, 50, 34
1, 108508, Note_on_c, 0, 74, 83
1, 108526, Note_on_c, 0, 65, 53
1, 108548, Note_off_c, 0, 65, 60
1, 108600, Note_off_c, 0, 74, 53
1, 108614, Note_on_c, 0, 40, 63
1, 108616, Note_on_c, 0, 44, 71
1, 108616, Note_on_c, 0, 71, 71
1, 108622, Note_on_c, 0, 62, 71
1, 108640, Note_off_c, 0, 71, 68
1, 108650, Note_off_c, 0, 62, 66
1, 108675, Note_off_c, 0, 35, 54
1, 108705, Note_off_c, 0, 40, 62
1, 108743, Note_off_c, 0, 44, 63
1, 108777, Note_on_c, 0, 59, 70
1, 108916, Control_c, 0, 67, 126
1, 108919, Note_on_c, 0, 45, 65
1, 108920, Note_on_c, 0, 33, 75
1, 108921, Note_off_c, 0, 59, 55
1, 108931, Control_c, 0, 64, 39
1, 108931, Control_c, 0, 67, 102
1, 108941, Note_on_c, 0, 49, 55
1, 108945, Note_off_c, 0, 33, 66
1, 108945, Control_c, 0, 64, 56
1, 108945, Control_c, 0, 67, 46
1, 108947, Note_off_c, 0, 45, 66
1, 108948, Note_on_c, 0, 52, 55
1, 108960, Control_c, 0, 64, 61
1, 108960, Control_c, 0, 67, 0
1, 108975, Control_c, 0, 64, 64
1, 108990, Control_c, 0, 64, 66
1, 109005, Control_c, 0, 64, 68
1, 109019, Control_c, 0, 64, 71
1, 109034, Control_c, 0, 64, 74
1, 109049, Control_c, 0, 64, 76
1, 109063, Control_c, 0, 64, 78
1, 109078, Control_c, 0, 64, 79
1, 109093, Control_c, 0, 64, 79
1, 109102, Note_off_c, 0, 49, 61
1, 109119, Note_off_c, 0, 52, 66
1, 109123, Control_c, 0, 64, 80
1, 109137, Control_c, 0, 64, 80
1, 109152, Control_c, 0, 64, 81
1, 109167, Control_c, 0, 64, 82
1, 109182, Control_c, 0, 64, 83
1, 109211, Control_c, 0, 64, 83
1, 109257, Control_c, 0, 64, 82
1, 109269, Note_on_c, 0, 55, 96
1, 109272, Control_c, 0, 64, 76
1, 109280, Note_on_c, 0, 52, 85
1, 109286, Control_c, 0, 64, 61
1, 109301, Note_off_c, 0, 52, 73
1, 109301, Control_c, 0, 64, 0
1, 109387, Note_on_c, 0, 70, 67
1, 109396, Note_on_c, 0, 58, 58
1, 109441, Note_off_c, 0, 58, 64
1, 109468, Note_off_c, 0, 70, 54
1, 109524, Note_on_c, 0, 45, 60
1, 109545, Note_on_c, 0, 64, 55
1, 109557, Note_off_c, 0, 45, 64
1, 109560, Note_on_c, 0, 61, 41
1, 109578, Note_off_c, 0, 64, 65
1, 109587, Note_off_c, 0, 61, 46
1, 109651, Note_on_c, 0, 62, 59
1, 109655, Note_on_c, 0, 65, 56
1, 109679, Note_off_c, 0, 65, 65
1, 109681, Note_off_c, 0, 62, 62
1, 109757, Note_on_c, 0, 64, 66
1, 109762, Note_on_c, 0, 52, 70
1, 109766, Note_on_c, 0, 65, 52
1, 109776, Note_off_c, 0, 64, 67
1, 109792, Note_off_c, 0, 65, 37
1, 109807, Note_off_c, 0, 52, 63
1, 109875, Note_on_c, 0, 82, 84
1, 109882, Note_on_c, 0, 70, 77
1, 109903, Note_off_c, 0, 70, 70
1, 109916, Note_off_c, 0, 82, 44
1, 109983, Note_on_c, 0, 45, 74
1, 109992, Note_on_c, 0, 76, 75
1, 109997, Note_on_c, 0, 73, 76
1, 110037, Note_off_c, 0, 73, 63
1, 110039, Note_off_c, 0, 76, 65
1, 110117, Note_on_c, 0, 77, 69
1, 110118, Note_on_c, 0, 74, 66
1, 110146, Note_off_c, 0, 74, 66
1, 110153, Note_off_c, 0, 77, 57
1, 110223, Note_off_c, 0, 45, 42
1, 110226, Note_on_c, 0, 52, 69
1, 110226, Note_on_c, 0, 76, 69
1, 110231, Note_on_c, 0, 77, 43
1, 110246, Note_off_c, 0, 76, 69
1, 110255, Note_off_c, 0, 77, 51
1, 110273, Note_off_c, 0, 52, 64
1, 110354, Note_on_c, 0, 94, 90
1, 110362, Note_on_c, 0, 82, 74
1, 110378, Note_off_c, 0, 82, 69
1, 110385, Note_off_c, 0, 94, 48
1, 110476, Note_on_c, 0, 45, 73
1, 110477, Note_on_c, 0, 93, 99
1, 110488, Note_on_c, 0, 89, 81
1, 110514, Note_off_c, 0, 89, 65
1, 110562, Note_off_c, 0, 93, 58
1, 110593, Note_on_c, 0, 91, 92
1, 110600, Note_on_c, 0, 88, 86
1, 110630, Note_off_c, 0, 88, 58
1, 110657, Note_off_c, 0, 91, 61
1, 110670, Note_off_c, 0, 45, 53
1, 110714, Note_on_c, 0, 89, 85
1, 110717, Note_on_c, 0, 86, 79
1, 110752, Note_off_c, 0, 89, 64
1, 110760, Note_off_c, 0, 86, 59
1, 110825, Note_on_c, 0, 91, 82
1, 110828, Note_on_c, 0, 88, 86
1, 110829, Note_on_c, 0, 45, 67
1, 110868, Note_off_c, 0, 88, 63
1, 110869, Note_off_c, 0, 45, 63
1, 110890, Note_off_c, 0, 91, 60
1, 110949, Note_on_c, 0, 45, 69
1, 110952, Note_on_c, 0, 89, 86
1, 110956, Note_on_c, 0, 86, 86
1, 110997, Note_off_c, 0, 89, 65
1, 111000, Note_off_c, 0, 55, 45
1, 111018, Note_off_c, 0, 86, 63
1, 111068, Note_on_c, 0, 85, 74
1, 111071, Note_on_c, 0, 88, 73
1, 111088, Note_off_c, 0, 85, 72
1, 111089, Note_off_c, 0, 88, 66
1, 111171, Note_off_c, 0, 45, 61
1, 111190, Control_c, 0, 67, 8
1, 111204, Note_on_c, 0, 50, 61
1, 111205, Note_on_c, 0, 53, 68
1, 111205, Control_c, 0, 67, 10
1, 111220, Control_c, 0, 67, 14
1, 111235, Control_c, 0, 67, 17
1, 111250, Control_c, 0, 67, 20
1, 111253, Note_off_c, 0, 50, 57
1, 111264, Control_c, 0, 67, 22
1, 111279, Control_c, 0, 67, 23
1, 111294, Control_c, 0, 67, 23
1, 111309, Control_c, 0, 67, 24
1, 111314, Note_on_c, 0, 69, 79
1, 111323, Note_on_c, 0, 57, 70
1, 111324, Control_c, 0, 67, 25
1, 111338, Control_c, 0, 67, 25
1, 111352, Note_off_c, 0, 57, 65
1, 111353, Control_c, 0, 67, 26
1, 111355, Note_off_c, 0, 69, 59
1, 111397, Control_c, 0, 67, 25
1, 111435, Note_on_c, 0, 43, 60
1, 111452, Note_on_c, 0, 62, 81
1, 111456, Control_c, 0, 67, 25
1, 111471, Control_c, 0, 67, 24
1, 111506, Note_off_c, 0, 62, 61
1, 111557, Note_on_c, 0, 64, 75
1, 111575, Control_c, 0, 67, 24
1, 111617, Note_off_c, 0, 64, 62
1, 111670, Note_off_c, 0, 43, 57
1, 111677, Note_on_c, 0, 65, 71
1, 111684, Note_on_c, 0, 50, 63
1, 111696, Note_off_c, 0, 65, 68
1, 111702, Control_c, 0, 67, 23
1, 111781, Note_off_c, 0, 50, 39
1, 111805, Note_on_c, 0, 81, 84
1, 111817, Note_on_c, 0, 69, 67
1, 111833, Note_off_c, 0, 69, 68
1, 111844, Note_off_c, 0, 81, 43
1, 111850, Control_c, 0, 67, 23
1, 111918, Note_on_c, 0, 43, 60
1, 111934, Note_on_c, 0, 74, 77
1, 111969, Control_c, 0, 67, 22
1, 111994, Note_off_c, 0, 74, 64
1, 112049, Note_on_c, 0, 76, 71
1, 112124, Note_off_c, 0, 76, 63
1, 112143, Note_off_c, 0, 43, 53
1, 112162, Note_on_c, 0, 50, 54
1, 112165, Note_on_c, 0, 77, 71
1, 112189, Note_off_c, 0, 77, 68
1, 112211, Note_off_c, 0, 50, 58
1, 112266, Control_c, 0, 67, 23
1, 112288, Note_on_c, 0, 93, 97
1, 112303, Note_on_c, 0, 81, 70
1, 112317, Note_off_c, 0, 81, 65
1, 112325, Control_c, 0, 67, 22
1, 112326, Note_off_c, 0, 93, 62
1, 112384, Control_c, 0, 67, 23
1, 112412, Note_on_c, 0, 91, 95
1, 112421, Control_c, 0, 67, 23
1, 112422, Note_on_c, 0, 88, 87
1, 112425, Note_on_c, 0, 43, 73
1, 112452, Control_c, 0, 67, 23
1, 112461, Note_off_c, 0, 88, 63
1, 112481, Control_c, 0, 67, 23
1, 112540, Note_on_c, 0, 89, 89
1, 112541, Note_off_c, 0, 91, 61
1, 112544, Note_on_c, 0, 86, 88
1, 112577, Note_off_c, 0, 86, 64
1, 112607, Note_off_c, 0, 89, 66
1, 112657, Note_on_c, 0, 88, 90
1, 112664, Note_off_c, 0, 43, 38
1, 112670, Note_on_c, 0, 84, 76
1, 112707, Note_off_c, 0, 88, 64
1, 112708, Note_off_c, 0, 84, 54
1, 112780, Note_on_c, 0, 89, 79
1, 112782, Note_on_c, 0, 86, 87
1, 112783, Note_on_c, 0, 43, 62
1, 112820, Note_off_c, 0, 86, 63
1, 112827, Note_off_c, 0, 43, 61
1, 112843, Note_off_c, 0, 89, 65
1, 112903, Note_on_c, 0, 88, 80
1, 112912, Note_on_c, 0, 43, 62
1, 112914, Note_on_c, 0, 84, 76
1, 112938, Note_off_c, 0, 88, 61
1, 112973, Note_off_c, 0, 53, 43
1, 112973, Note_off_c, 0, 84, 64
1, 113000, Control_c, 0, 67, 24
1, 113015, Control_c, 0, 67, 24
1, 113027, Note_on_c, 0, 86, 71
1, 113029, Note_on_c, 0, 83, 68
1, 113029, Control_c, 0, 67, 25
1, 113044, Control_c, 0, 67, 25
1, 113045, Note_off_c, 0, 83, 65
1, 113045, Note_off_c, 0, 86, 66
1, 113059, Control_c, 0, 67, 26
1, 113074, Control_c, 0, 67, 26
1, 113089, Control_c, 0, 67, 27
1, 113103, Control_c, 0, 67, 27
1, 113118, Control_c, 0, 67, 29
1, 113133, Control_c, 0, 67, 33
1, 113136, Note_off_c, 0, 43, 57
1, 113155, Control_c, 0, 67, 38
1, 113170, Control_c, 0, 67, 44
1, 113180, Note_on_c, 0, 48, 50
1, 113184, Note_on_c, 0, 52, 55
1, 113185, Control_c, 0, 67, 49
1, 113200, Control_c, 0, 67, 54
1, 113215, Control_c, 0, 67, 59
1, 113230, Control_c, 0, 67, 63
1, 113245, Note_off_c, 0, 48, 54
1, 113245, Control_c, 0, 67, 68
1, 113259, Control_c, 0, 67, 73
1, 113274, Control_c, 0, 67, 77
1, 113289, Control_c, 0, 67, 81
1, 113297, Note_on_c, 0, 59, 49
1, 113302, Note_on_c, 0, 67, 50
1, 113304, Control_c, 0, 67, 85
1, 113319, Control_c, 0, 67, 87
1, 113322, Note_off_c, 0, 59, 56
1, 113334, Control_c, 0, 67, 89
1, 113336, Note_off_c, 0, 67, 49
1, 113349, Control_c, 0, 67, 90
1, 113364, Control_c, 0, 67, 90
1, 113408, Note_on_c, 0, 41, 55
1, 113432, Note_on_c, 0, 60, 63
1, 113447, Note_on_c, 0, 57, 47
1, 113477, Note_off_c, 0, 60, 58
1, 113480, Note_off_c, 0, 57, 54
1, 113550, Note_on_c, 0, 62, 59
1, 113571, Control_c, 0, 67, 90
1, 113588, Note_off_c, 0, 62, 63
1, 113620, Note_off_c, 0, 41, 31
1, 113630, Control_c, 0, 67, 89
1, 113659, Note_on_c, 0, 48, 51
1, 113660, Note_on_c, 0, 64, 61
1, 113680, Note_on_c, 0, 60, 20
1, 113681, Note_off_c, 0, 60, 127
1, 113689, Note_off_c, 0, 64, 66
1, 113704, Control_c, 0, 67, 89
1, 113763, Control_c, 0, 67, 88
1, 113789, Note_on_c, 0, 72, 74
1, 113808, Note_on_c, 0, 69, 52
1, 113823, Note_off_c, 0, 72, 60
1, 113831, Note_off_c, 0, 69, 62
1, 113852, Control_c, 0, 67, 88
1, 113911, Note_off_c, 0, 52, 51
1, 113918, Note_on_c, 0, 41, 68
1, 113918, Note_on_c, 0, 74, 69
1, 113921, Note_on_c, 0, 71, 57
1, 113939, Note_off_c, 0, 71, 61
1, 113948, Control_c, 0, 67, 87
1, 113957, Note_off_c, 0, 74, 65
1, 114037, Note_on_c, 0, 76, 69
1, 114062, Note_on_c, 0, 72, 34
1, 114095, Note_off_c, 0, 72, 50
1, 114101, Note_off_c, 0, 48, 19
1, 114125, Note_off_c, 0, 76, 36
1, 114139, Note_off_c, 0, 41, 37
1, 114139, Note_on_c, 0, 77, 64
1, 114141, Note_on_c, 0, 50, 102
1, 114142, Note_on_c, 0, 47, 70
1, 114156, Note_off_c, 0, 77, 64
1, 114184, Note_off_c, 0, 47, 67
1, 114267, Note_on_c, 0, 65, 62
1, 114283, Note_on_c, 0, 67, 24
1, 114319, Note_off_c, 0, 67, 42
1, 114320, Control_c, 0, 67, 87
1, 114386, Note_on_c, 0, 55, 51
1, 114387, Note_on_c, 0, 40, 61
1, 114388, Note_on_c, 0, 59, 49
1, 114403, Note_off_c, 0, 65, 36
1, 114408, Control_c, 0, 67, 86
1, 114409, Note_off_c, 0, 55, 59
1, 114424, Note_off_c, 0, 40, 64
1, 114427, Note_off_c, 0, 59, 62
1, 114438, Control_c, 0, 67, 86
1, 114500, Note_on_c, 0, 60, 63
1, 114514, Note_on_c, 0, 57, 41
1, 114527, Control_c, 0, 67, 85
1, 114535, Note_off_c, 0, 60, 62
1, 114550, Note_off_c, 0, 57, 56
1, 114601, Control_c, 0, 67, 85
1, 114628, Note_on_c, 0, 62, 63
1, 114637, Note_on_c, 0, 47, 57
1, 114664, Note_off_c, 0, 62, 64
1, 114763, Note_on_c, 0, 71, 67
1, 114777, Note_on_c, 0, 67, 46
1, 114786, Control_c, 0, 67, 84
1, 114792, Note_off_c, 0, 71, 65
1, 114801, Control_c, 0, 67, 84
1, 114805, Note_off_c, 0, 67, 55
1, 114884, Note_on_c, 0, 40, 67
1, 114889, Note_on_c, 0, 69, 59
1, 114893, Note_on_c, 0, 72, 67
1, 114894, Note_off_c, 0, 50, 55
1, 114897, Note_off_c, 0, 47, 28
1, 114908, Note_off_c, 0, 69, 66
1, 114922, Note_off_c, 0, 72, 67
1, 115005, Note_on_c, 0, 74, 62
1, 115021, Note_on_c, 0, 71, 37
1, 115043, Poly_aftertouch_c, 0, 47, 127
1, 115055, Note_off_c, 0, 71, 48
1, 115069, Control_c, 0, 67, 83
1, 115086, Poly_aftertouch_c, 0, 47, 0
1, 115098, Note_off_c, 0, 40, 56
1, 115098, Note_off_c, 0, 74, 33
1, 115109, Note_on_c, 0, 48, 106
1, 115114, Note_on_c, 0, 45, 75
1, 115117, Note_on_c, 0, 76, 47
1, 115128, Control_c, 0, 64, 57
1, 115128, Control_c, 0, 67, 84
1, 115141, Note_off_c, 0, 76, 48
1, 115143, Control_c, 0, 64, 66
1, 115150, Note_off_c, 0, 45, 68
1, 115158, Control_c, 0, 64, 48
1, 115173, Control_c, 0, 64, 0
1, 115188, Control_c, 0, 67, 83
1, 115203, Control_c, 0, 67, 83
1, 115218, Control_c, 0, 67, 82
1, 115221, Note_on_c, 0, 64, 70
1, 115262, Control_c, 0, 67, 82
1, 115340, Note_on_c, 0, 57, 52
1, 115350, Control_c, 0, 67, 81
1, 115351, Note_off_c, 0, 64, 62
1, 115358, Note_off_c, 0, 48, 54
1, 115365, Note_on_c, 0, 38, 78
1, 115365, Note_off_c, 0, 57, 53
1, 115418, Control_c, 0, 67, 82
1, 115469, Note_on_c, 0, 77, 77
1, 115477, Control_c, 0, 67, 81
1, 115492, Note_on_c, 0, 69, 59
1, 115536, Control_c, 0, 67, 82
1, 115551, Control_c, 0, 67, 82
1, 115561, Note_off_c, 0, 77, 62
1, 115576, Note_off_c, 0, 38, 62
1, 115580, Note_on_c, 0, 74, 44
1, 115582, Note_on_c, 0, 47, 104
1, 115588, Note_on_c, 0, 71, 49
1, 115588, Note_off_c, 0, 69, 63
1, 115593, Note_on_c, 0, 43, 67
1, 115603, Note_off_c, 0, 74, 56
1, 115611, Note_off_c, 0, 71, 53
1, 115623, Note_off_c, 0, 43, 61
1, 115625, Control_c, 0, 67, 83
1, 115641, Control_c, 0, 67, 83
1, 115697, Note_on_c, 0, 62, 76
1, 115715, Control_c, 0, 67, 82
1, 115810, Note_off_c, 0, 47, 59
1, 115814, Note_on_c, 0, 55, 60
1, 115825, Note_off_c, 0, 62, 61
1, 115830, Note_on_c, 0, 36, 76
1, 115833, Control_c, 0, 67, 83
1, 115835, Note_off_c, 0, 55, 63
1, 115877, Control_c, 0, 67, 83
1, 115892, Control_c, 0, 67, 84
1, 115907, Control_c, 0, 67, 84
1, 115921, Control_c, 0, 67, 85
1, 115936, Control_c, 0, 67, 86
1, 115946, Note_on_c, 0, 76, 76
1, 115966, Control_c, 0, 67, 86
1, 115968, Note_on_c, 0, 67, 50
1, 115981, Control_c, 0, 67, 87
1, 116011, Control_c, 0, 67, 87
1, 116014, Note_off_c, 0, 67, 43
1, 116026, Control_c, 0, 67, 88
1, 116040, Note_off_c, 0, 76, 63
1, 116041, Control_c, 0, 67, 89
1, 116053, Note_off_c, 0, 36, 64
1, 116055, Control_c, 0, 67, 89
1, 116057, Note_on_c, 0, 43, 101
1, 116062, Note_on_c, 0, 72, 50
1, 116065, Note_on_c, 0, 40, 79
1, 116084, Note_off_c, 0, 72, 60
1, 116115, Control_c, 0, 67, 90
1, 116129, Control_c, 0, 67, 90
1, 116151, Control_c, 0, 67, 91
1, 116166, Control_c, 0, 67, 92
1, 116181, Control_c, 0, 67, 93
1, 116188, Note_on_c, 0, 60, 71
1, 116196, Control_c, 0, 67, 94
1, 116211, Control_c, 0, 67, 95
1, 116225, Control_c, 0, 67, 96
1, 116240, Control_c, 0, 67, 97
1, 116255, Control_c, 0, 67, 98
1, 116270, Control_c, 0, 67, 100
1, 116285, Control_c, 0, 67, 103
1, 116300, Control_c, 0, 67, 108
1, 116307, Note_on_c, 0, 53, 68
1, 116314, Note_off_c, 0, 43, 54
1, 116315, Note_on_c, 0, 35, 74
1, 116315, Control_c, 0, 67, 111
1, 116322, Note_off_c, 0, 60, 60
1, 116329, Control_c, 0, 67, 115
1, 116334, Note_off_c, 0, 40, 52
1, 116336, Note_off_c, 0, 53, 67
1, 116344, Control_c, 0, 67, 119
1, 116359, Control_c, 0, 67, 123
1, 116374, Control_c, 0, 67, 127
1, 116458, Note_on_c, 0, 74, 81
1, 116465, Note_on_c, 0, 65, 68
1, 116512, Note_off_c, 0, 65, 61
1, 116574, Note_off_c, 0, 74, 64
1, 116582, Control_c, 0, 64, 21
1, 116589, Note_on_c, 0, 71, 70
1, 116597, Note_on_c, 0, 40, 64
1, 116597, Control_c, 0, 64, 41
1, 116600, Note_on_c, 0, 62, 65
1, 116604, Note_on_c, 0, 44, 66
1, 116611, Control_c, 0, 64, 49
1, 116613, Note_off_c, 0, 71, 68
1, 116626, Control_c, 0, 64, 52
1, 116629, Note_off_c, 0, 62, 64
1, 116641, Control_c, 0, 64, 54
1, 116656, Control_c, 0, 64, 55
1, 116671, Control_c, 0, 64, 56
1, 116685, Control_c, 0, 64, 57
1, 116700, Control_c, 0, 64, 59
1, 116715, Control_c, 0, 64, 61
1, 116730, Control_c, 0, 64, 62
1, 116745, Control_c, 0, 64, 64
1, 116756, Note_off_c, 0, 40, 47
1, 116759, Control_c, 0, 64, 64
1, 116774, Control_c, 0, 64, 65
1, 116777, Note_on_c, 0, 59, 83
1, 116781, Note_off_c, 0, 35, 24
1, 116787, Note_on_c, 0, 50, 68
1, 116789, Control_c, 0, 64, 65
1, 116796, Note_off_c, 0, 44, 60
1, 116848, Control_c, 0, 64, 65
1, 116915, Control_c, 0, 64, 64
1, 116930, Control_c, 0, 64, 64
1, 116959, Control_c, 0, 64, 63
1, 116989, Control_c, 0, 64, 63
1, 117003, Control_c, 0, 64, 62
1, 117018, Control_c, 0, 64, 61
1, 117033, Control_c, 0, 64, 60
1, 117048, Control_c, 0, 64, 58
1, 117063, Control_c, 0, 64, 55
1, 117078, Control_c, 0, 64, 51
1, 117093, Control_c, 0, 64, 42
1, 117108, Control_c, 0, 64, 0
1, 117113, Note_off_c, 0, 50, 36
1, 117145, Note_on_c, 0, 49, 52
1, 117146, Note_on_c, 0, 52, 57
1, 117147, Note_on_c, 0, 45, 29
1, 117147, Note_off_c, 0, 59, 49
1, 117153, Note_on_c, 0, 33, 38
1, 117723, Control_c, 0, 64, 44
1, 117738, Control_c, 0, 64, 54
1, 117752, Control_c, 0, 64, 58
1, 117767, Control_c, 0, 64, 62
1, 117782, Control_c, 0, 64, 64
1, 117797, Control_c, 0, 64, 66
1, 117812, Control_c, 0, 64, 69
1, 117826, Control_c, 0, 64, 71
1, 117841, Control_c, 0, 64, 73
1, 117856, Control_c, 0, 64, 74
1, 117871, Control_c, 0, 64, 75
1, 117886, Control_c, 0, 64, 76
1, 117901, Control_c, 0, 64, 77
1, 117916, Control_c, 0, 64, 77
1, 117960, Control_c, 0, 64, 78
1, 117970, Note_off_c, 0, 52, 37
1, 117989, Note_off_c, 0, 49, 30
1, 118007, Note_off_c, 0, 45, 39
1, 118020, Note_off_c, 0, 33, 38
1, 118213, Control_c, 0, 64, 77
1, 118288, Control_c, 0, 64, 77
1, 118288, Control_c, 0, 67, 125
1, 118303, Control_c, 0, 67, 122
1, 118318, Control_c, 0, 67, 119
1, 118332, Control_c, 0, 67, 117
1, 118347, Control_c, 0, 67, 115
1, 118362, Control_c, 0, 67, 113
1, 118376, Control_c, 0, 64, 76
1, 118376, Control_c, 0, 67, 111
1, 118391, Control_c, 0, 67, 110
1, 118413, Control_c, 0, 67, 109
1, 118473, Control_c, 0, 64, 76
1, 118488, Control_c, 0, 64, 75
1, 118503, Control_c, 0, 67, 110
1, 118518, Control_c, 0, 64, 75
1, 118518, Control_c, 0, 67, 110
1, 118532, Control_c, 0, 64, 74
1, 118547, Control_c, 0, 64, 74
1, 118547, Control_c, 0, 67, 111
1, 118562, Control_c, 0, 64, 73
1, 118576, Control_c, 0, 64, 72
1, 118591, Control_c, 0, 64, 71
1, 118606, Control_c, 0, 64, 70
1, 118621, Control_c, 0, 64, 70
1, 118636, Control_c, 0, 64, 69
1, 118636, Control_c, 0, 67, 112
1, 118650, Control_c, 0, 64, 69
1, 118665, Control_c, 0, 64, 68
1, 118680, Control_c, 0, 64, 68
1, 118695, Control_c, 0, 64, 67
1, 118710, Control_c, 0, 64, 67
1, 118724, Control_c, 0, 67, 112
1, 118739, Control_c, 0, 64, 66
1, 118754, Control_c, 0, 64, 66
1, 118768, Control_c, 0, 64, 65
1, 118783, Control_c, 0, 64, 65
1, 118783, Control_c, 0, 67, 113
1, 118813, Control_c, 0, 64, 64
1, 118813, Control_c, 0, 67, 113
1, 118829, Control_c, 0, 64, 64
1, 118829, Control_c, 0, 67, 114
1, 118844, Control_c, 0, 64, 63
1, 118859, Control_c, 0, 64, 63
1, 118873, Control_c, 0, 67, 114
1, 118888, Control_c, 0, 67, 115
1, 118903, Control_c, 0, 67, 115
1, 118918, Control_c, 0, 67, 116
1, 118933, Control_c, 0, 64, 63
1, 118933, Control_c, 0, 67, 116
1, 118947, Control_c, 0, 67, 117
1, 118962, Control_c, 0, 64, 64
1, 118962, Control_c, 0, 67, 117
1, 118977, Control_c, 0, 64, 64
1, 118977, Control_c, 0, 67, 119
1, 118992, Control_c, 0, 64, 65
1, 118992, Control_c, 0, 67, 120
1, 119006, Control_c, 0, 64, 65
1, 119006, Control_c, 0, 67, 121
1, 119021, Control_c, 0, 67, 123
1, 119036, Control_c, 0, 64, 66
1, 119036, Control_c, 0, 67, 127
1, 119051, Control_c, 0, 64, 66
1, 119066, Control_c, 0, 64, 67
1, 119080, Control_c, 0, 64, 67
1, 119095, Control_c, 0, 64, 68
1, 119221, Control_c, 0, 64, 68
1, 119251, Control_c, 0, 64, 69
1, 119266, Control_c, 0, 64, 70
1, 119280, Control_c, 0, 64, 70
1, 119295, Control_c, 0, 64, 71
1, 119310, Control_c, 0, 64, 73
1, 119325, Control_c, 0, 64, 74
1, 119340, Control_c, 0, 64, 75
1, 119352, Note_on_c, 0, 33, 24
1, 119354, Control_c, 0, 64, 77
1, 119369, Control_c, 0, 64, 78
1, 119384, Control_c, 0, 64, 80
1, 119398, Control_c, 0, 64, 82
1, 119413, Control_c, 0, 64, 83
1, 119428, Control_c, 0, 64, 84
1, 119443, Control_c, 0, 64, 85
1, 119457, Note_on_c, 0, 92, 51
1, 119458, Control_c, 0, 64, 87
1, 119472, Control_c, 0, 64, 88
1, 119487, Control_c, 0, 64, 90
1, 119488, Note_off_c, 0, 33, 38
1, 119502, Control_c, 0, 64, 92
1, 119517, Control_c, 0, 64, 93
1, 119532, Control_c, 0, 64, 95
1, 119546, Control_c, 0, 64, 96
1, 119551, Note_on_c, 0, 93, 56
1, 119561, Control_c, 0, 64, 97
1, 119576, Note_off_c, 0, 92, 36
1, 119576, Control_c, 0, 64, 98
1, 119591, Control_c, 0, 64, 98
1, 119606, Control_c, 0, 64, 99
1, 119621, Control_c, 0, 64, 100
1, 119636, Control_c, 0, 64, 101
1, 119651, Control_c, 0, 64, 102
1, 119662, Note_on_c, 0, 95, 53
1, 119666, Control_c, 0, 64, 103
1, 119679, Note_off_c, 0, 93, 56
1, 119681, Control_c, 0, 64, 104
1, 119695, Control_c, 0, 64, 105
1, 119703, Note_off_c, 0, 95, 64
1, 119710, Control_c, 0, 64, 105
1, 119725, Control_c, 0, 64, 106
1, 119740, Control_c, 0, 64, 107
1, 119770, Control_c, 0, 64, 107
1, 119804, Note_on_c, 0, 49, 35
1, 119832, Note_on_c, 0, 93, 62
1, 119841, Note_on_c, 0, 81, 49
1, 119844, Control_c, 0, 64, 108
1, 119874, Note_off_c, 0, 49, 57
1, 119925, Control_c, 0, 64, 108
1, 119955, Control_c, 0, 64, 109
1, 119970, Control_c, 0, 64, 109
1, 119984, Control_c, 0, 64, 110
1, 119999, Control_c, 0, 64, 110
1, 120014, Control_c, 0, 64, 111
1, 120029, Control_c, 0, 64, 111
1, 120042, Note_off_c, 0, 81, 38
1, 120059, Control_c, 0, 64, 112
1, 120148, Control_c, 0, 67, 125
1, 120163, Control_c, 0, 67, 121
1, 120177, Control_c, 0, 67, 117
1, 120192, Control_c, 0, 67, 113
1, 120207, Control_c, 0, 67, 109
1, 120221, Control_c, 0, 67, 104
1, 120236, Control_c, 0, 67, 101
1, 120251, Control_c, 0, 67, 97
1, 120266, Control_c, 0, 67, 92
1, 120281, Control_c, 0, 67, 88
1, 120295, Control_c, 0, 67, 84
1, 120310, Control_c, 0, 67, 80
1, 120325, Control_c, 0, 67, 77
1, 120340, Control_c, 0, 67, 74
1, 120354, Control_c, 0, 67, 72
1, 120369, Control_c, 0, 67, 69
1, 120384, Control_c, 0, 67, 66
1, 120386, Note_on_c, 0, 92, 74
1, 120395, Note_on_c, 0, 80, 54
1, 120399, Control_c, 0, 67, 63
1, 120414, Control_c, 0, 67, 59
1, 120423, Note_on_c, 0, 69, 38
1, 120430, Note_on_c, 0, 61, 30
1, 120430, Control_c, 0, 67, 54
1, 120439, Note_on_c, 0, 64, 26
1, 120444, Control_c, 0, 67, 50
1, 120459, Control_c, 0, 67, 45
1, 120474, Control_c, 0, 67, 41
1, 120489, Control_c, 0, 67, 36
1, 120504, Control_c, 0, 67, 30
1, 120518, Control_c, 0, 67, 25
1, 120533, Control_c, 0, 67, 20
1, 120548, Control_c, 0, 67, 15
1, 120563, Control_c, 0, 67, 10
1, 120567, Note_off_c, 0, 64, 32
1, 120578, Control_c, 0, 67, 0
1, 120589, Note_off_c, 0, 61, 30
1, 120602, Note_off_c, 0, 93, 35
1, 120636, Note_off_c, 0, 69, 33
1, 120675, Note_off_c, 0, 80, 54
1, 120704, Control_c, 0, 64, 112
1, 120727, Note_off_c, 0, 92, 50
1, 120887, Note_on_c, 0, 90, 85
1, 120905, Note_on_c, 0, 61, 35
1, 120908, Note_on_c, 0, 78, 58
1, 120912, Note_on_c, 0, 57, 23
1, 120939, Note_off_c, 0, 61, 60
1, 120962, Note_off_c, 0, 57, 59
1, 121074, Control_c, 0, 64, 112
1, 121104, Control_c, 0, 67, 8
1, 121118, Control_c, 0, 67, 9
1, 121133, Control_c, 0, 67, 10
1, 121138, Note_off_c, 0, 78, 35
1, 121148, Control_c, 0, 67, 11
1, 121163, Control_c, 0, 67, 12
1, 121177, Control_c, 0, 67, 13
1, 121192, Control_c, 0, 67, 15
1, 121207, Control_c, 0, 67, 19
1, 121223, Control_c, 0, 67, 22
1, 121238, Control_c, 0, 67, 24
1, 121254, Note_off_c, 0, 90, 50
1, 121284, Note_on_c, 0, 35, 48
1, 121297, Control_c, 0, 67, 25
1, 121315, Note_off_c, 0, 35, 58
1, 121327, Control_c, 0, 67, 24
1, 121438, Control_c, 0, 67, 25
1, 121452, Note_on_c, 0, 92, 78
1, 121453, Control_c, 0, 64, 106
1, 121466, Note_on_c, 0, 50, 49
1, 121466, Note_on_c, 0, 80, 50
1, 121467, Control_c, 0, 64, 96
1, 121467, Control_c, 0, 67, 25
1, 121482, Control_c, 0, 64, 84
1, 121497, Control_c, 0, 64, 74
1, 121512, Control_c, 0, 64, 67
1, 121527, Control_c, 0, 64, 64
1, 121541, Control_c, 0, 64, 65
1, 121556, Control_c, 0, 64, 69
1, 121571, Control_c, 0, 64, 74
1, 121586, Control_c, 0, 64, 78
1, 121600, Control_c, 0, 64, 82
1, 121615, Control_c, 0, 64, 84
1, 121615, Control_c, 0, 67, 25
1, 121630, Note_off_c, 0, 50, 57
1, 121630, Control_c, 0, 64, 86
1, 121630, Control_c, 0, 67, 24
1, 121645, Control_c, 0, 64, 88
1, 121660, Control_c, 0, 64, 90
1, 121660, Control_c, 0, 67, 23
1, 121675, Control_c, 0, 64, 92
1, 121689, Control_c, 0, 64, 92
1, 121692, Note_off_c, 0, 92, 57
1, 121704, Control_c, 0, 64, 93
1, 121704, Control_c, 0, 67, 23
1, 121734, Control_c, 0, 64, 94
1, 121734, Control_c, 0, 67, 22
1, 121764, Control_c, 0, 64, 94
1, 121764, Control_c, 0, 67, 22
1, 121779, Control_c, 0, 67, 21
1, 121793, Control_c, 0, 64, 95
1, 121793, Control_c, 0, 67, 21
1, 121823, Control_c, 0, 64, 95
1, 121823, Control_c, 0, 67, 20
1, 121838, Control_c, 0, 67, 20
1, 121853, Note_off_c, 0, 80, 57
1, 121853, Control_c, 0, 64, 96
1, 121867, Control_c, 0, 64, 96
1, 121867, Control_c, 0, 67, 19
1, 121882, Control_c, 0, 67, 19
1, 121897, Control_c, 0, 64, 97
1, 121897, Control_c, 0, 67, 18
1, 121926, Control_c, 0, 64, 97
1, 121926, Control_c, 0, 67, 17
1, 121956, Control_c, 0, 67, 16
1, 121987, Control_c, 0, 67, 16
1, 122001, Control_c, 0, 67, 15
1, 122017, Control_c, 0, 64, 98
1, 122032, Control_c, 0, 67, 14
1, 122047, Control_c, 0, 67, 14
1, 122062, Control_c, 0, 67, 13
1, 122064, Note_on_c, 0, 62, 31
1, 122077, Control_c, 0, 67, 12
1, 122083, Note_on_c, 0, 68, 30
1, 122091, Control_c, 0, 67, 11
1, 122106, Control_c, 0, 67, 9
1, 122121, Control_c, 0, 67, 0
1, 122158, Control_c, 0, 64, 98
1, 122247, Control_c, 0, 64, 99
1, 122275, Note_on_c, 0, 86, 63
1, 122276, Note_on_c, 0, 74, 39
1, 122282, Note_off_c, 0, 68, 42
1, 122321, Control_c, 0, 64, 99
1, 122438, Note_off_c, 0, 86, 53
1, 122445, Note_off_c, 0, 74, 36
1, 122449, Note_off_c, 0, 62, 17
1, 122534, Note_on_c, 0, 56, 43
1, 122554, Note_on_c, 0, 74, 43
1, 122554, Note_on_c, 0, 86, 65
1, 122592, Note_off_c, 0, 74, 55
1, 122619, Note_off_c, 0, 56, 58
1, 122633, Note_off_c, 0, 86, 61
1, 122950, Note_on_c, 0, 37, 45
1, 122978, Note_on_c, 0, 90, 66
1, 122995, Note_on_c, 0, 78, 52
1, 123003, Note_off_c, 0, 37, 61
1, 123016, Note_off_c, 0, 78, 63
1, 123016, Note_off_c, 0, 90, 63
1, 123070, Control_c, 0, 64, 95
1, 123082, Note_on_c, 0, 88, 77
1, 123085, Control_c, 0, 64, 83
1, 123088, Note_on_c, 0, 76, 67
1, 123099, Note_on_c, 0, 52, 59
1, 123099, Control_c, 0, 64, 69
1, 123114, Control_c, 0, 64, 51
1, 123129, Control_c, 0, 64, 52
1, 123144, Control_c, 0, 64, 63
1, 123159, Control_c, 0, 64, 67
1, 123173, Control_c, 0, 64, 72
1, 123188, Control_c, 0, 64, 76
1, 123203, Control_c, 0, 64, 80
1, 123218, Control_c, 0, 64, 82
1, 123233, Control_c, 0, 64, 84
1, 123246, Note_off_c, 0, 52, 64
1, 123247, Control_c, 0, 64, 85
1, 123262, Control_c, 0, 64, 87
1, 123277, Control_c, 0, 64, 88
1, 123292, Control_c, 0, 64, 90
1, 123307, Control_c, 0, 64, 91
1, 123321, Control_c, 0, 64, 92
1, 123336, Control_c, 0, 64, 92
1, 123351, Control_c, 0, 64, 93
1, 123380, Control_c, 0, 64, 94
1, 123381, Note_off_c, 0, 76, 54
1, 123395, Control_c, 0, 64, 94
1, 123409, Note_off_c, 0, 88, 34
1, 123425, Control_c, 0, 64, 95
1, 123439, Control_c, 0, 64, 95
1, 123469, Control_c, 0, 64, 96
1, 123553, Note_on_c, 0, 86, 87
1, 123572, Note_on_c, 0, 74, 62
1, 123597, Note_on_c, 0, 61, 35
1, 123608, Note_on_c, 0, 64, 36
1, 123619, Note_on_c, 0, 68, 30
1, 123758, Note_off_c, 0, 61, 32
1, 123825, Note_off_c, 0, 68, 42
1, 123832, Control_c, 0, 64, 96
1, 123849, Note_off_c, 0, 74, 60
1, 123936, Control_c, 0, 67, 8
1, 123950, Control_c, 0, 67, 9
1, 123965, Control_c, 0, 67, 10
1, 123980, Control_c, 0, 67, 12
1, 123991, Note_off_c, 0, 64, 11
1, 123994, Control_c, 0, 67, 14
1, 124003, Note_on_c, 0, 56, 36
1, 124009, Control_c, 0, 67, 18
1, 124024, Control_c, 0, 67, 21
1, 124037, Note_on_c, 0, 61, 27
1, 124039, Control_c, 0, 67, 23
1, 124054, Control_c, 0, 67, 27
1, 124068, Note_off_c, 0, 61, 54
1, 124068, Control_c, 0, 67, 30
1, 124075, Note_on_c, 0, 85, 80
1, 124083, Control_c, 0, 67, 33
1, 124089, Note_off_c, 0, 56, 57
1, 124092, Note_on_c, 0, 73, 53
1, 124098, Control_c, 0, 67, 37
1, 124113, Control_c, 0, 67, 41
1, 124128, Control_c, 0, 67, 44
1, 124143, Control_c, 0, 67, 47
1, 124155, Note_off_c, 0, 86, 58
1, 124158, Control_c, 0, 67, 48
1, 124173, Control_c, 0, 67, 50
1, 124187, Control_c, 0, 67, 52
1, 124202, Control_c, 0, 67, 55
1, 124217, Control_c, 0, 67, 58
1, 124229, Note_off_c, 0, 73, 33
1, 124232, Control_c, 0, 67, 63
1, 124247, Control_c, 0, 67, 67
1, 124261, Control_c, 0, 67, 70
1, 124276, Control_c, 0, 67, 75
1, 124291, Control_c, 0, 67, 80
1, 124306, Control_c, 0, 67, 85
1, 124320, Control_c, 0, 67, 89
1, 124335, Control_c, 0, 67, 93
1, 124350, Control_c, 0, 67, 96
1, 124365, Control_c, 0, 67, 100
1, 124387, Control_c, 0, 67, 103
1, 124402, Control_c, 0, 67, 107
1, 124417, Control_c, 0, 67, 109
1, 124418, Note_on_c, 0, 35, 46
1, 124432, Control_c, 0, 67, 111
1, 124447, Control_c, 0, 67, 112
1, 124453, Note_off_c, 0, 35, 57
1, 124462, Control_c, 0, 67, 113
1, 124477, Control_c, 0, 67, 114
1, 124486, Note_off_c, 0, 85, 35
1, 124491, Control_c, 0, 67, 114
1, 124506, Control_c, 0, 67, 115
1, 124551, Control_c, 0, 67, 116
1, 124566, Control_c, 0, 67, 116
1, 124581, Control_c, 0, 64, 96
1, 124581, Control_c, 0, 67, 119
1, 124592, Note_on_c, 0, 88, 75
1, 124596, Control_c, 0, 64, 92
1, 124596, Control_c, 0, 67, 122
1, 124603, Note_on_c, 0, 76, 53
1, 124611, Control_c, 0, 64, 81
1, 124611, Control_c, 0, 67, 126
1, 124624, Note_on_c, 0, 50, 42
1, 124625, Control_c, 0, 64, 66
1, 124625, Control_c, 0, 67, 127
1, 124640, Control_c, 0, 64, 0
1, 124699, Control_c, 0, 64, 57
1, 124714, Control_c, 0, 64, 65
1, 124729, Control_c, 0, 64, 69
1, 124743, Control_c, 0, 64, 75
1, 124758, Control_c, 0, 64, 81
1, 124773, Control_c, 0, 64, 84
1, 124788, Control_c, 0, 64, 86
1, 124803, Control_c, 0, 64, 87
1, 124813, Note_off_c, 0, 88, 56
1, 124815, Note_off_c, 0, 50, 37
1, 124817, Control_c, 0, 64, 89
1, 124832, Control_c, 0, 64, 91
1, 124847, Control_c, 0, 64, 92
1, 124862, Control_c, 0, 64, 94
1, 124872, Note_off_c, 0, 76, 63
1, 124877, Control_c, 0, 64, 94
1, 124891, Control_c, 0, 64, 95
1, 124906, Control_c, 0, 64, 95
1, 124936, Control_c, 0, 64, 96
1, 125169, Note_on_c, 0, 59, 35
1, 125191, Note_on_c, 0, 62, 27
1, 125256, Control_c, 0, 64, 96
1, 125386, Note_on_c, 0, 80, 56
1, 125407, Note_on_c, 0, 68, 28
1, 125407, Note_off_c, 0, 62, 34
1, 125454, Note_off_c, 0, 59, 28
1, 125530, Note_off_c, 0, 80, 39
1, 125545, Note_off_c, 0, 68, 42
1, 125720, Note_on_c, 0, 59, 35
1, 125732, Note_on_c, 0, 80, 50
1, 125733, Note_on_c, 0, 68, 22
1, 125742, Note_on_c, 0, 52, 34
1, 125775, Note_off_c, 0, 68, 43
1, 125779, Note_off_c, 0, 59, 57
1, 125811, Note_off_c, 0, 52, 61
1, 125833, Note_off_c, 0, 80, 61
1, 126133, Note_on_c, 0, 33, 48
1, 126180, Note_off_c, 0, 33, 60
1, 126283, Note_on_c, 0, 93, 71
1, 126286, Control_c, 0, 64, 96
1, 126301, Control_c, 0, 64, 92
1, 126316, Control_c, 0, 64, 82
1, 126316, Note_on_c, 0, 81, 72
1, 126322, Note_on_c, 0, 49, 58
1, 126330, Control_c, 0, 64, 68
1, 126345, Control_c, 0, 64, 32
1, 126360, Control_c, 0, 64, 0
1, 126375, Control_c, 0, 64, 49
1, 126389, Control_c, 0, 64, 63
1, 126404, Control_c, 0, 64, 67
1, 126419, Control_c, 0, 64, 72
1, 126434, Control_c, 0, 64, 78
1, 126445, Note_off_c, 0, 49, 58
1, 126449, Control_c, 0, 64, 83
1, 126463, Control_c, 0, 64, 85
1, 126478, Control_c, 0, 64, 87
1, 126493, Control_c, 0, 64, 89
1, 126508, Control_c, 0, 64, 90
1, 126523, Control_c, 0, 64, 92
1, 126537, Control_c, 0, 64, 94
1, 126551, Note_off_c, 0, 81, 57
1, 126552, Control_c, 0, 64, 95
1, 126567, Control_c, 0, 64, 96
1, 126581, Control_c, 0, 64, 96
1, 126596, Control_c, 0, 64, 97
1, 126611, Control_c, 0, 64, 98
1, 126645, Note_off_c, 0, 93, 31
1, 126649, Control_c, 0, 64, 98
1, 126678, Control_c, 0, 64, 99
1, 126847, Note_on_c, 0, 92, 80
1, 126872, Control_c, 0, 67, 126
1, 126881, Note_on_c, 0, 69, 36
1, 126884, Note_on_c, 0, 64, 39
1, 126885, Note_on_c, 0, 80, 74
1, 126886, Control_c, 0, 67, 123
1, 126897, Note_on_c, 0, 61, 32
1, 126901, Control_c, 0, 67, 120
1, 126916, Control_c, 0, 67, 117
1, 126931, Control_c, 0, 67, 114
1, 126946, Control_c, 0, 67, 109
1, 126960, Control_c, 0, 67, 103
1, 126975, Control_c, 0, 67, 97
1, 126990, Control_c, 0, 67, 91
1, 127005, Control_c, 0, 67, 85
1, 127019, Control_c, 0, 67, 80
1, 127034, Control_c, 0, 67, 76
1, 127049, Note_off_c, 0, 61, 34
1, 127049, Control_c, 0, 67, 73
1, 127052, Note_off_c, 0, 64, 41
1, 127064, Control_c, 0, 67, 70
1, 127079, Control_c, 0, 67, 66
1, 127092, Note_off_c, 0, 69, 31
1, 127094, Control_c, 0, 67, 63
1, 127096, Note_off_c, 0, 92, 58
1, 127109, Control_c, 0, 67, 59
1, 127124, Control_c, 0, 67, 57
1, 127138, Control_c, 0, 67, 55
1, 127153, Control_c, 0, 67, 53
1, 127168, Control_c, 0, 67, 52
1, 127183, Control_c, 0, 67, 51
1, 127198, Control_c, 0, 67, 51
1, 127216, Note_off_c, 0, 80, 60
1, 127331, Note_on_c, 0, 90, 66
1, 127337, Note_on_c, 0, 57, 35
1, 127347, Note_on_c, 0, 61, 38
1, 127371, Note_on_c, 0, 78, 69
1, 127419, Note_off_c, 0, 61, 62
1, 127425, Note_off_c, 0, 57, 58
1, 127427, Control_c, 0, 67, 51
1, 127455, Poly_aftertouch_c, 0, 64, 0
1, 127545, Control_c, 0, 67, 52
1, 127593, Note_off_c, 0, 78, 35
1, 127604, Note_off_c, 0, 90, 36
1, 127621, Control_c, 0, 67, 52
1, 127744, Note_on_c, 0, 90, 77
1, 127749, Note_on_c, 0, 35, 51
1, 127750, Note_on_c, 0, 78, 61
1, 127780, Note_off_c, 0, 35, 62
1, 127782, Note_off_c, 0, 78, 53
1, 127804, Note_off_c, 0, 90, 63
1, 127842, Control_c, 0, 67, 53
1, 127857, Control_c, 0, 67, 53
1, 127872, Control_c, 0, 64, 97
1, 127878, Note_on_c, 0, 92, 90
1, 127887, Note_on_c, 0, 80, 69
1, 127887, Control_c, 0, 64, 89
1, 127887, Control_c, 0, 67, 54
1, 127900, Note_on_c, 0, 50, 55
1, 127902, Control_c, 0, 64, 75
1, 127917, Control_c, 0, 64, 47
1, 127931, Control_c, 0, 64, 0
1, 127976, Control_c, 0, 64, 53
1, 127976, Control_c, 0, 67, 54
1, 127991, Control_c, 0, 64, 65
1, 128006, Control_c, 0, 64, 70
1, 128021, Control_c, 0, 64, 77
1, 128036, Control_c, 0, 64, 82
1, 128041, Note_off_c, 0, 50, 58
1, 128051, Control_c, 0, 64, 84
1, 128066, Control_c, 0, 64, 85
1, 128081, Control_c, 0, 64, 87
1, 128095, Control_c, 0, 64, 88
1, 128102, Note_off_c, 0, 92, 59
1, 128110, Control_c, 0, 64, 90
1, 128110, Control_c, 0, 67, 55
1, 128132, Control_c, 0, 64, 91
1, 128132, Control_c, 0, 67, 56
1, 128147, Control_c, 0, 64, 92
1, 128147, Control_c, 0, 67, 56
1, 128161, Control_c, 0, 64, 92
1, 128161, Control_c, 0, 67, 57
1, 128176, Control_c, 0, 67, 58
1, 128191, Control_c, 0, 67, 58
1, 128206, Control_c, 0, 67, 59
1, 128221, Control_c, 0, 67, 60
1, 128236, Control_c, 0, 67, 61
1, 128250, Control_c, 0, 64, 93
1, 128250, Control_c, 0, 67, 62
1, 128265, Control_c, 0, 67, 63
1, 128271, Note_off_c, 0, 80, 61
1, 128280, Control_c, 0, 67, 64
1, 128295, Control_c, 0, 67, 66
1, 128310, Control_c, 0, 67, 68
1, 128325, Control_c, 0, 67, 72
1, 128340, Control_c, 0, 67, 76
1, 128355, Control_c, 0, 67, 82
1, 128369, Control_c, 0, 67, 87
1, 128384, Control_c, 0, 67, 92
1, 128399, Control_c, 0, 67, 96
1, 128414, Control_c, 0, 67, 100
1, 128429, Control_c, 0, 67, 104
1, 128444, Control_c, 0, 67, 108
1, 128446, Note_on_c, 0, 62, 35
1, 128459, Control_c, 0, 67, 113
1, 128463, Note_on_c, 0, 68, 38
1, 128474, Control_c, 0, 67, 116
1, 128489, Control_c, 0, 67, 119
1, 128504, Control_c, 0, 67, 120
1, 128519, Control_c, 0, 67, 122
1, 128533, Control_c, 0, 67, 123
1, 128548, Control_c, 0, 67, 127
1, 128563, Control_c, 0, 67, 127
1, 128640, Note_off_c, 0, 68, 41
1, 128656, Note_on_c, 0, 86, 59
1, 128656, Note_on_c, 0, 74, 39
1, 128782, Note_off_c, 0, 74, 28
1, 128801, Note_off_c, 0, 86, 38
1, 128906, Note_off_c, 0, 62, 13
1, 128912, Note_on_c, 0, 56, 39
1, 128932, Note_on_c, 0, 86, 59
1, 128944, Note_on_c, 0, 74, 45
1, 128981, Note_off_c, 0, 74, 67
1, 129014, Note_off_c, 0, 56, 56
1, 129019, Note_off_c, 0, 86, 63
1, 129324, Note_on_c, 0, 37, 43
1, 129328, Note_on_c, 0, 90, 69
1, 129353, Note_on_c, 0, 78, 50
1, 129360, Note_off_c, 0, 90, 63
1, 129368, Note_off_c, 0, 37, 64
1, 129374, Note_off_c, 0, 78, 61
1, 129401, Control_c, 0, 64, 91
1, 129415, Control_c, 0, 64, 83
1, 129430, Control_c, 0, 64, 70
1, 129433, Note_on_c, 0, 88, 78
1, 129442, Note_on_c, 0, 76, 61
1, 129445, Control_c, 0, 64, 0
1, 129454, Note_on_c, 0, 52, 42
1, 129503, Control_c, 0, 64, 40
1, 129518, Control_c, 0, 64, 62
1, 129532, Control_c, 0, 64, 67
1, 129547, Control_c, 0, 64, 72
1, 129562, Control_c, 0, 64, 78
1, 129577, Control_c, 0, 64, 83
1, 129592, Control_c, 0, 64, 84
1, 129594, Note_off_c, 0, 52, 64
1, 129607, Control_c, 0, 64, 85
1, 129622, Control_c, 0, 64, 86
1, 129644, Control_c, 0, 64, 87
1, 129659, Control_c, 0, 64, 88
1, 129674, Control_c, 0, 64, 89
1, 129688, Control_c, 0, 64, 90
1, 129690, Note_off_c, 0, 76, 54
1, 129705, Note_off_c, 0, 88, 31
1, 129762, Control_c, 0, 64, 90
1, 129915, Note_on_c, 0, 86, 85
1, 129932, Note_on_c, 0, 74, 60
1, 129951, Note_on_c, 0, 61, 33
1, 129976, Note_on_c, 0, 68, 32
1, 129992, Note_on_c, 0, 64, 15
1, 130140, Note_off_c, 0, 61, 28
1, 130171, Note_off_c, 0, 74, 58
1, 130200, Note_off_c, 0, 68, 42
1, 130267, Control_c, 0, 67, 124
1, 130282, Control_c, 0, 67, 118
1, 130297, Control_c, 0, 67, 110
1, 130300, Note_off_c, 0, 64, 0
1, 130311, Control_c, 0, 67, 100
1, 130326, Control_c, 0, 67, 89
1, 130337, Poly_aftertouch_c, 0, 64, 127
1, 130341, Control_c, 0, 64, 91
1, 130341, Control_c, 0, 67, 77
1, 130355, Control_c, 0, 67, 68
1, 130370, Control_c, 0, 67, 60
1, 130393, Control_c, 0, 67, 52
1, 130403, Note_on_c, 0, 56, 39
1, 130408, Note_off_c, 0, 86, 0
1, 130408, Control_c, 0, 67, 44
1, 130423, Control_c, 0, 67, 37
1, 130423, Note_on_c, 0, 61, 38
1, 130437, Poly_aftertouch_c, 0, 64, 0
1, 130437, Control_c, 0, 67, 34
1, 130444, Note_on_c, 0, 85, 81
1, 130444, Poly_aftertouch_c, 0, 86, 127
1, 130452, Control_c, 0, 67, 32
1, 130463, Note_on_c, 0, 73, 53
1, 130467, Control_c, 0, 67, 32
1, 130482, Control_c, 0, 67, 30
1, 130483, Note_off_c, 0, 61, 56
1, 130490, Note_off_c, 0, 56, 57
1, 130497, Control_c, 0, 67, 28
1, 130498, Poly_aftertouch_c, 0, 86, 0
1, 130511, Control_c, 0, 67, 26
1, 130526, Control_c, 0, 67, 23
1, 130541, Control_c, 0, 67, 22
1, 130555, Control_c, 0, 67, 22
1, 130674, Control_c, 0, 67, 22
1, 130704, Control_c, 0, 67, 23
1, 130719, Control_c, 0, 67, 23
1, 130723, Note_off_c, 0, 85, 62
1, 130730, Note_off_c, 0, 73, 27
1, 130793, Control_c, 0, 67, 24
1, 130808, Control_c, 0, 67, 24
1, 130817, Note_on_c, 0, 35, 44
1, 130831, Note_on_c, 0, 85, 72
1, 130838, Control_c, 0, 67, 25
1, 130850, Note_off_c, 0, 35, 55
1, 130853, Control_c, 0, 67, 25
1, 130883, Control_c, 0, 67, 26
1, 130903, Poly_aftertouch_c, 0, 73, 0
1, 130927, Control_c, 0, 67, 26
1, 130957, Control_c, 0, 67, 27
1, 130971, Control_c, 0, 67, 28
1, 130986, Control_c, 0, 67, 28
1, 131001, Control_c, 0, 64, 88
1, 131001, Control_c, 0, 67, 29
1, 131002, Note_on_c, 0, 50, 46
1, 131005, Note_on_c, 0, 88, 76
1, 131016, Control_c, 0, 64, 76
1, 131016, Control_c, 0, 67, 30
1, 131020, Note_on_c, 0, 76, 51
1, 131031, Control_c, 0, 64, 56
1, 131046, Control_c, 0, 64, 0
1, 131046, Control_c, 0, 67, 30
1, 131047, Note_off_c, 0, 85, 58
1, 131060, Control_c, 0, 67, 32
1, 131075, Control_c, 0, 67, 33
1, 131090, Control_c, 0, 67, 34
1, 131105, Control_c, 0, 64, 34
1, 131105, Control_c, 0, 67, 35
1, 131120, Control_c, 0, 64, 62
1, 131120, Control_c, 0, 67, 37
1, 131142, Control_c, 0, 64, 66
1, 131142, Control_c, 0, 67, 41
1, 131157, Control_c, 0, 64, 70
1, 131157, Control_c, 0, 67, 47
1, 131172, Control_c, 0, 64, 75
1, 131172, Control_c, 0, 67, 53
1, 131186, Control_c, 0, 64, 80
1, 131186, Control_c, 0, 67, 58
1, 131190, Note_off_c, 0, 50, 47
1, 131201, Control_c, 0, 64, 82
1, 131201, Control_c, 0, 67, 63
1, 131216, Control_c, 0, 64, 83
1, 131216, Control_c, 0, 67, 67
1, 131231, Control_c, 0, 64, 85
1, 131231, Control_c, 0, 67, 72
1, 131246, Control_c, 0, 64, 86
1, 131246, Control_c, 0, 67, 76
1, 131254, Note_off_c, 0, 88, 50
1, 131260, Control_c, 0, 64, 87
1, 131260, Control_c, 0, 67, 80
1, 131275, Control_c, 0, 64, 88
1, 131275, Control_c, 0, 67, 83
1, 131290, Control_c, 0, 64, 89
1, 131290, Control_c, 0, 67, 85
1, 131304, Control_c, 0, 64, 89
1, 131304, Control_c, 0, 67, 87
1, 131319, Control_c, 0, 67, 88
1, 131334, Control_c, 0, 67, 89
1, 131349, Control_c, 0, 64, 90
1, 131349, Control_c, 0, 67, 91
1, 131364, Control_c, 0, 67, 94
1, 131378, Control_c, 0, 67, 95
1, 131393, Control_c, 0, 64, 90
1, 131393, Control_c, 0, 67, 97
1, 131408, Control_c, 0, 67, 99
1, 131423, Control_c, 0, 67, 101
1, 131431, Note_off_c, 0, 76, 55
1, 131438, Control_c, 0, 67, 102
1, 131452, Control_c, 0, 67, 104
1, 131467, Control_c, 0, 67, 108
1, 131482, Control_c, 0, 67, 110
1, 131497, Control_c, 0, 67, 113
1, 131512, Control_c, 0, 67, 115
1, 131526, Control_c, 0, 67, 117
1, 131541, Control_c, 0, 67, 118
1, 131556, Control_c, 0, 67, 120
1, 131569, Note_on_c, 0, 62, 34
1, 131571, Control_c, 0, 67, 122
1, 131586, Control_c, 0, 67, 124
1, 131597, Note_on_c, 0, 59, 18
1, 131601, Control_c, 0, 67, 126
1, 131616, Control_c, 0, 67, 127
1, 131805, Note_off_c, 0, 62, 36
1, 131825, Note_on_c, 0, 80, 55
1, 131830, Note_on_c, 0, 68, 43
1, 131966, Note_off_c, 0, 68, 31
1, 131972, Note_off_c, 0, 80, 39
1, 132128, Note_on_c, 0, 52, 30
1, 132140, Note_off_c, 0, 59, 13
1, 132163, Note_on_c, 0, 80, 55
1, 132179, Note_on_c, 0, 68, 34
1, 132215, Note_off_c, 0, 52, 61
1, 132221, Note_off_c, 0, 68, 50
1, 132232, Control_c, 0, 64, 91
1, 132315, Note_off_c, 0, 80, 60
1, 132335, Control_c, 0, 64, 91
1, 132365, Control_c, 0, 64, 92
1, 132380, Control_c, 0, 64, 93
1, 132395, Control_c, 0, 64, 94
1, 132411, Control_c, 0, 64, 95
1, 132425, Control_c, 0, 64, 95
1, 132440, Control_c, 0, 64, 96
1, 132455, Control_c, 0, 64, 96
1, 132470, Control_c, 0, 64, 97
1, 132485, Control_c, 0, 64, 97
1, 132514, Control_c, 0, 64, 98
1, 132540, Note_on_c, 0, 33, 56
1, 132558, Control_c, 0, 64, 98
1, 132574, Note_off_c, 0, 33, 63
1, 132588, Control_c, 0, 64, 99
1, 132603, Control_c, 0, 64, 99
1, 132640, Control_c, 0, 64, 100
1, 132670, Control_c, 0, 64, 100
1, 132685, Control_c, 0, 64, 101
1, 132699, Control_c, 0, 64, 101
1, 132714, Control_c, 0, 64, 102
1, 132761, Note_on_c, 0, 49, 55
1, 132770, Note_on_c, 0, 97, 84
1, 132773, Control_c, 0, 64, 101
1, 132776, Note_on_c, 0, 85, 63
1, 132788, Control_c, 0, 64, 94
1, 132803, Control_c, 0, 64, 81
1, 132818, Control_c, 0, 64, 64
1, 132832, Control_c, 0, 64, 0
1, 132847, Control_c, 0, 64, 13
1, 132862, Control_c, 0, 64, 59
1, 132877, Control_c, 0, 64, 65
1, 132892, Control_c, 0, 64, 72
1, 132907, Control_c, 0, 64, 81
1, 132921, Control_c, 0, 64, 90
1, 132923, Note_off_c, 0, 49, 60
1, 132936, Control_c, 0, 64, 95
1, 132951, Control_c, 0, 64, 100
1, 132966, Control_c, 0, 64, 109
1, 132981, Control_c, 0, 64, 123
1, 132996, Control_c, 0, 64, 127
1, 132996, Control_c, 0, 67, 119
1, 133011, Control_c, 0, 67, 108
1, 133025, Control_c, 0, 67, 98
1, 133040, Control_c, 0, 67, 87
1, 133055, Control_c, 0, 67, 74
1, 133056, Note_off_c, 0, 97, 64
1, 133070, Control_c, 0, 67, 60
1, 133084, Control_c, 0, 67, 46
1, 133099, Control_c, 0, 67, 36
1, 133114, Control_c, 0, 67, 29
1, 133129, Control_c, 0, 67, 22
1, 133142, Note_off_c, 0, 85, 60
1, 133144, Control_c, 0, 67, 17
1, 133158, Control_c, 0, 67, 12
1, 133173, Control_c, 0, 67, 8
1, 133188, Control_c, 0, 67, 0
1, 133355, Note_on_c, 0, 69, 38
1, 133356, Note_on_c, 0, 73, 42
1, 133356, Note_on_c, 0, 95, 88
1, 133360, Note_on_c, 0, 64, 42
1, 133370, Note_on_c, 0, 83, 61
1, 133591, Note_off_c, 0, 69, 35
1, 133596, Control_c, 0, 67, 8
1, 133611, Control_c, 0, 67, 10
1, 133615, Note_off_c, 0, 64, 34
1, 133626, Control_c, 0, 67, 13
1, 133641, Control_c, 0, 67, 16
1, 133645, Note_off_c, 0, 83, 57
1, 133646, Note_off_c, 0, 95, 39
1, 133655, Control_c, 0, 67, 19
1, 133670, Control_c, 0, 67, 23
1, 133685, Control_c, 0, 67, 28
1, 133700, Control_c, 0, 67, 31
1, 133714, Control_c, 0, 67, 36
1, 133729, Control_c, 0, 67, 40
1, 133744, Note_off_c, 0, 73, 36
1, 133744, Control_c, 0, 67, 44
1, 133759, Control_c, 0, 67, 48
1, 133774, Control_c, 0, 67, 50
1, 133789, Control_c, 0, 67, 53
1, 133804, Control_c, 0, 67, 56
1, 133819, Control_c, 0, 67, 58
1, 133834, Control_c, 0, 67, 60
1, 133848, Control_c, 0, 67, 62
1, 133863, Control_c, 0, 67, 64
1, 133878, Control_c, 0, 67, 66
1, 133893, Control_c, 0, 67, 71
1, 133900, Note_on_c, 0, 69, 33
1, 133907, Control_c, 0, 67, 77
1, 133910, Note_on_c, 0, 61, 39
1, 133912, Note_on_c, 0, 93, 87
1, 133920, Note_on_c, 0, 81, 70
1, 133922, Control_c, 0, 67, 83
1, 133931, Note_off_c, 0, 69, 52
1, 133937, Control_c, 0, 67, 88
1, 133952, Control_c, 0, 67, 92
1, 133966, Control_c, 0, 67, 94
1, 133974, Note_off_c, 0, 61, 59
1, 133980, Control_c, 0, 67, 95
1, 133992, Poly_aftertouch_c, 0, 64, 0
1, 133995, Control_c, 0, 67, 98
1, 134011, Control_c, 0, 67, 101
1, 134026, Control_c, 0, 67, 106
1, 134034, Note_off_c, 0, 93, 59
1, 134041, Control_c, 0, 67, 111
1, 134056, Control_c, 0, 67, 117
1, 134070, Control_c, 0, 67, 124
1, 134085, Control_c, 0, 67, 127
1, 134092, Note_off_c, 0, 81, 55
1, 134302, Note_on_c, 0, 38, 57
1, 134347, Note_off_c, 0, 38, 61
1, 134466, Note_on_c, 0, 89, 75
1, 134469, Note_on_c, 0, 54, 75
1, 134476, Note_on_c, 0, 77, 57
1, 134492, Control_c, 0, 64, 113
1, 134507, Control_c, 0, 64, 92
1, 134522, Control_c, 0, 64, 74
1, 134537, Control_c, 0, 64, 42
1, 134552, Control_c, 0, 64, 0
1, 134567, Control_c, 0, 64, 40
1, 134582, Control_c, 0, 64, 58
1, 134596, Control_c, 0, 64, 63
1, 134611, Control_c, 0, 64, 66
1, 134626, Control_c, 0, 64, 70
1, 134641, Control_c, 0, 64, 74
1, 134644, Note_off_c, 0, 54, 61
1, 134656, Control_c, 0, 64, 80
1, 134670, Control_c, 0, 64, 84
1, 134685, Control_c, 0, 64, 87
1, 134700, Control_c, 0, 64, 89
1, 134716, Control_c, 0, 64, 92
1, 134730, Control_c, 0, 64, 94
1, 134745, Control_c, 0, 64, 96
1, 134760, Control_c, 0, 64, 98
1, 134775, Control_c, 0, 64, 99
1, 134790, Control_c, 0, 64, 100
1, 134805, Control_c, 0, 64, 101
1, 134820, Control_c, 0, 64, 102
1, 134827, Note_off_c, 0, 77, 36
1, 134835, Control_c, 0, 64, 103
1, 134850, Control_c, 0, 64, 104
1, 134865, Control_c, 0, 64, 105
1, 134887, Control_c, 0, 64, 106
1, 134901, Control_c, 0, 64, 106
1, 134916, Control_c, 0, 64, 107
1, 134931, Control_c, 0, 64, 107
1, 134946, Control_c, 0, 64, 108
1, 134960, Control_c, 0, 64, 109
1, 134975, Control_c, 0, 64, 109
1, 134990, Control_c, 0, 64, 110
1, 135005, Control_c, 0, 64, 110
1, 135020, Control_c, 0, 64, 111
1, 135035, Control_c, 0, 64, 111
1, 135050, Control_c, 0, 64, 112
1, 135065, Control_c, 0, 64, 112
1, 135065, Control_c, 0, 67, 123
1, 135080, Control_c, 0, 67, 119
1, 135095, Control_c, 0, 64, 113
1, 135095, Control_c, 0, 67, 115
1, 135105, Note_on_c, 0, 71, 38
1, 135108, Note_on_c, 0, 62, 21
1, 135109, Control_c, 0, 67, 112
1, 135124, Note_on_c, 0, 66, 19
1, 135124, Control_c, 0, 67, 109
1, 135139, Control_c, 0, 67, 107
1, 135153, Control_c, 0, 67, 104
1, 135168, Control_c, 0, 67, 101
1, 135183, Control_c, 0, 67, 99
1, 135198, Control_c, 0, 64, 113
1, 135198, Control_c, 0, 67, 96
1, 135213, Control_c, 0, 67, 93
1, 135227, Control_c, 0, 67, 90
1, 135242, Control_c, 0, 67, 87
1, 135257, Control_c, 0, 67, 82
1, 135272, Control_c, 0, 67, 77
1, 135277, Note_off_c, 0, 89, 41
1, 135287, Control_c, 0, 67, 72
1, 135301, Control_c, 0, 67, 67
1, 135302, Note_on_c, 0, 90, 67
1, 135314, Note_on_c, 0, 78, 45
1, 135316, Control_c, 0, 67, 62
1, 135318, Note_off_c, 0, 66, 41
1, 135331, Control_c, 0, 67, 58
1, 135345, Note_off_c, 0, 62, 35
1, 135345, Control_c, 0, 64, 114
1, 135345, Control_c, 0, 67, 51
1, 135360, Control_c, 0, 67, 45
1, 135371, Note_off_c, 0, 71, 34
1, 135375, Control_c, 0, 67, 40
1, 135390, Control_c, 0, 67, 36
1, 135405, Control_c, 0, 67, 31
1, 135419, Control_c, 0, 67, 26
1, 135422, Note_off_c, 0, 78, 30
1, 135434, Control_c, 0, 67, 21
1, 135449, Control_c, 0, 67, 14
1, 135450, Note_off_c, 0, 90, 49
1, 135464, Control_c, 0, 67, 0
1, 135602, Note_on_c, 0, 90, 58
1, 135623, Note_on_c, 0, 66, 36
1, 135628, Note_on_c, 0, 78, 47
1, 135644, Note_on_c, 0, 59, 34
1, 135659, Note_on_c, 0, 62, 5
1, 135693, Note_off_c, 0, 66, 64
1, 135699, Note_off_c, 0, 78, 55
1, 135716, Note_off_c, 0, 62, 35
1, 135750, Note_off_c, 0, 59, 40
1, 136024, Note_on_c, 0, 35, 58
1, 136066, Note_off_c, 0, 35, 63
1, 136173, Note_on_c, 0, 95, 87
1, 136176, Note_on_c, 0, 83, 66
1, 136183, Control_c, 0, 64, 108
1, 136188, Note_on_c, 0, 50, 56
1, 136198, Control_c, 0, 64, 97
1, 136212, Control_c, 0, 64, 81
1, 136213, Note_off_c, 0, 90, 61
1, 136227, Control_c, 0, 64, 64
1, 136241, Control_c, 0, 64, 0
1, 136271, Control_c, 0, 64, 50
1, 136286, Control_c, 0, 64, 64
1, 136300, Control_c, 0, 64, 70
1, 136315, Control_c, 0, 64, 78
1, 136330, Control_c, 0, 64, 85
1, 136345, Control_c, 0, 64, 88
1, 136360, Control_c, 0, 64, 90
1, 136363, Note_off_c, 0, 50, 63
1, 136382, Control_c, 0, 64, 92
1, 136382, Control_c, 0, 67, 8
1, 136397, Control_c, 0, 64, 94
1, 136412, Control_c, 0, 64, 96
1, 136412, Control_c, 0, 67, 9
1, 136427, Control_c, 0, 64, 98
1, 136427, Control_c, 0, 67, 10
1, 136442, Control_c, 0, 64, 99
1, 136442, Control_c, 0, 67, 13
1, 136457, Control_c, 0, 64, 100
1, 136457, Control_c, 0, 67, 15
1, 136472, Control_c, 0, 64, 101
1, 136472, Control_c, 0, 67, 17
1, 136487, Control_c, 0, 64, 102
1, 136487, Control_c, 0, 67, 20
1, 136501, Note_off_c, 0, 95, 36
1, 136502, Control_c, 0, 64, 103
1, 136502, Control_c, 0, 67, 23
1, 136516, Control_c, 0, 67, 26
1, 136531, Control_c, 0, 64, 103
1, 136531, Control_c, 0, 67, 29
1, 136546, Control_c, 0, 67, 30
1, 136561, Control_c, 0, 67, 32
1, 136563, Note_off_c, 0, 83, 55
1, 136576, Control_c, 0, 64, 104
1, 136576, Control_c, 0, 67, 35
1, 136591, Control_c, 0, 67, 38
1, 136605, Control_c, 0, 67, 42
1, 136620, Control_c, 0, 67, 46
1, 136635, Control_c, 0, 67, 50
1, 136650, Control_c, 0, 67, 54
1, 136665, Control_c, 0, 67, 58
1, 136679, Control_c, 0, 67, 61
1, 136694, Control_c, 0, 67, 64
1, 136709, Control_c, 0, 67, 65
1, 136723, Control_c, 0, 67, 67
1, 136738, Control_c, 0, 67, 68
1, 136740, Note_on_c, 0, 93, 85
1, 136753, Control_c, 0, 67, 69
1, 136754, Note_on_c, 0, 81, 64
1, 136768, Control_c, 0, 67, 71
1, 136775, Note_on_c, 0, 68, 40
1, 136779, Note_on_c, 0, 71, 40
1, 136782, Note_on_c, 0, 62, 33
1, 136783, Control_c, 0, 67, 72
1, 136797, Control_c, 0, 67, 73
1, 136812, Control_c, 0, 67, 73
1, 136842, Control_c, 0, 67, 74
1, 136857, Control_c, 0, 67, 74
1, 136886, Control_c, 0, 67, 75
1, 136901, Control_c, 0, 67, 77
1, 136916, Control_c, 0, 67, 80
1, 136931, Control_c, 0, 67, 82
1, 136946, Control_c, 0, 67, 85
1, 136961, Control_c, 0, 67, 87
1, 136976, Control_c, 0, 67, 89
1, 136990, Control_c, 0, 67, 92
1, 136993, Note_off_c, 0, 68, 35
1, 137005, Control_c, 0, 67, 94
1, 137008, Note_off_c, 0, 81, 54
1, 137011, Note_off_c, 0, 62, 35
1, 137020, Control_c, 0, 67, 96
1, 137035, Control_c, 0, 67, 98
1, 137047, Note_off_c, 0, 71, 27
1, 137050, Control_c, 0, 67, 100
1, 137064, Control_c, 0, 67, 102
1, 137079, Control_c, 0, 67, 104
1, 137094, Control_c, 0, 67, 107
1, 137109, Control_c, 0, 67, 108
1, 137131, Control_c, 0, 67, 110
1, 137145, Control_c, 0, 67, 111
1, 137160, Control_c, 0, 67, 112
1, 137175, Control_c, 0, 67, 113
1, 137190, Control_c, 0, 67, 113
1, 137206, Control_c, 0, 67, 114
1, 137220, Control_c, 0, 67, 115
1, 137235, Control_c, 0, 67, 115
1, 137250, Control_c, 0, 67, 116
1, 137265, Control_c, 0, 67, 116
1, 137280, Control_c, 0, 67, 117
1, 137294, Control_c, 0, 67, 117
1, 137311, Note_on_c, 0, 92, 67
1, 137318, Note_on_c, 0, 68, 37
1, 137321, Note_on_c, 0, 80, 49
1, 137339, Control_c, 0, 67, 118
1, 137339, Note_on_c, 0, 59, 40
1, 137341, Note_on_c, 0, 62, 20
1, 137354, Control_c, 0, 67, 119
1, 137369, Control_c, 0, 67, 120
1, 137372, Note_off_c, 0, 93, 35
1, 137384, Control_c, 0, 67, 120
1, 137385, Note_off_c, 0, 68, 53
1, 137388, Note_off_c, 0, 62, 47
1, 137399, Control_c, 0, 67, 121
1, 137413, Control_c, 0, 67, 122
1, 137427, Note_off_c, 0, 92, 56
1, 137428, Control_c, 0, 67, 122
1, 137443, Control_c, 0, 67, 123
1, 137446, Note_off_c, 0, 59, 36
1, 137458, Control_c, 0, 67, 123
1, 137473, Control_c, 0, 67, 124
1, 137502, Control_c, 0, 67, 125
1, 137579, Note_off_c, 0, 80, 57
1, 137747, Note_on_c, 0, 37, 40
1, 137768, Control_c, 0, 67, 124
1, 137780, Note_off_c, 0, 37, 61
1, 137813, Control_c, 0, 67, 124
1, 137843, Control_c, 0, 67, 123
1, 137909, Control_c, 0, 64, 103
1, 137921, Note_on_c, 0, 87, 60
1, 137923, Note_on_c, 0, 75, 43
1, 137924, Control_c, 0, 64, 100
1, 137938, Note_on_c, 0, 52, 59
1, 137939, Control_c, 0, 64, 89
1, 137939, Control_c, 0, 67, 124
1, 137953, Control_c, 0, 64, 75
1, 137968, Control_c, 0, 64, 54
1, 137983, Control_c, 0, 64, 0
1, 137999, Control_c, 0, 67, 123
1, 138014, Control_c, 0, 64, 60
1, 138029, Control_c, 0, 64, 66
1, 138043, Control_c, 0, 64, 71
1, 138043, Control_c, 0, 67, 123
1, 138058, Control_c, 0, 64, 77
1, 138073, Control_c, 0, 64, 84
1, 138073, Control_c, 0, 67, 122
1, 138088, Control_c, 0, 64, 87
1, 138088, Control_c, 0, 67, 122
1, 138103, Control_c, 0, 64, 89
1, 138117, Control_c, 0, 64, 90
1, 138117, Control_c, 0, 67, 121
1, 138129, Note_off_c, 0, 52, 63
1, 138132, Control_c, 0, 64, 92
1, 138132, Control_c, 0, 67, 121
1, 138147, Control_c, 0, 64, 93
1, 138147, Control_c, 0, 67, 120
1, 138162, Control_c, 0, 64, 94
1, 138177, Control_c, 0, 64, 95
1, 138192, Control_c, 0, 64, 96
1, 138192, Control_c, 0, 67, 120
1, 138207, Control_c, 0, 64, 97
1, 138222, Control_c, 0, 64, 97
1, 138222, Control_c, 0, 67, 119
1, 138236, Control_c, 0, 64, 98
1, 138236, Control_c, 0, 67, 118
1, 138239, Note_off_c, 0, 75, 38
1, 138251, Control_c, 0, 64, 98
1, 138266, Control_c, 0, 64, 99
1, 138266, Control_c, 0, 67, 118
1, 138281, Control_c, 0, 64, 99
1, 138281, Control_c, 0, 67, 117
1, 138310, Control_c, 0, 64, 100
1, 138325, Control_c, 0, 67, 117
1, 138340, Control_c, 0, 64, 100
1, 138340, Control_c, 0, 67, 116
1, 138355, Control_c, 0, 67, 116
1, 138369, Control_c, 0, 67, 115
1, 138384, Control_c, 0, 67, 114
1, 138399, Control_c, 0, 67, 114
1, 138429, Control_c, 0, 67, 113
1, 138458, Control_c, 0, 64, 101
1, 138458, Control_c, 0, 67, 112
1, 138474, Control_c, 0, 67, 112
1, 138488, Control_c, 0, 67, 111
1, 138518, Control_c, 0, 67, 109
1, 138533, Control_c, 0, 67, 107
1, 138538, Note_on_c, 0, 61, 32
1, 138543, Note_on_c, 0, 68, 42
1, 138548, Control_c, 0, 67, 104
1, 138552, Note_on_c, 0, 64, 27
1, 138562, Control_c, 0, 67, 102
1, 138577, Control_c, 0, 67, 101
1, 138592, Control_c, 0, 67, 99
1, 138607, Control_c, 0, 67, 97
1, 138630, Control_c, 0, 67, 94
1, 138644, Control_c, 0, 67, 90
1, 138659, Control_c, 0, 67, 87
1, 138674, Control_c, 0, 67, 85
1, 138681, Note_off_c, 0, 61, 32
1, 138689, Control_c, 0, 67, 82
1, 138703, Control_c, 0, 67, 79
1, 138718, Control_c, 0, 67, 75
1, 138733, Control_c, 0, 67, 71
1, 138748, Note_off_c, 0, 87, 18
1, 138748, Control_c, 0, 67, 66
1, 138763, Control_c, 0, 67, 61
1, 138765, Note_off_c, 0, 64, 35
1, 138774, Note_off_c, 0, 68, 37
1, 138777, Control_c, 0, 67, 56
1, 138784, Note_on_c, 0, 88, 61
1, 138793, Control_c, 0, 67, 51
1, 138808, Control_c, 0, 67, 46
1, 138812, Note_on_c, 0, 76, 32
1, 138823, Control_c, 0, 67, 42
1, 138838, Control_c, 0, 67, 38
1, 138853, Control_c, 0, 67, 34
1, 138867, Control_c, 0, 67, 30
1, 138882, Control_c, 0, 67, 27
1, 138897, Control_c, 0, 67, 23
1, 138912, Control_c, 0, 67, 19
1, 138926, Control_c, 0, 67, 14
1, 138941, Control_c, 0, 67, 8
1, 138956, Control_c, 0, 67, 0
1, 138964, Note_off_c, 0, 88, 35
1, 138979, Note_off_c, 0, 76, 32
1, 139095, Note_on_c, 0, 56, 35
1, 139116, Note_on_c, 0, 88, 55
1, 139120, Note_on_c, 0, 61, 39
1, 139137, Note_on_c, 0, 76, 34
1, 139184, Poly_aftertouch_c, 0, 64, 0
1, 139193, Note_off_c, 0, 76, 54
1, 139205, Note_off_c, 0, 61, 57
1, 139232, Note_off_c, 0, 56, 35
1, 139303, Note_off_c, 0, 88, 55
1, 139809, Control_c, 0, 64, 100
1, 139816, Note_on_c, 0, 30, 35
1, 139823, Control_c, 0, 64, 95
1, 139833, Note_on_c, 0, 42, 29
1, 139833, Note_on_c, 0, 93, 60
1, 139838, Control_c, 0, 64, 84
1, 139849, Note_on_c, 0, 81, 47
1, 139853, Control_c, 0, 64, 71
1, 139868, Control_c, 0, 64, 41
1, 139883, Control_c, 0, 64, 0
1, 139912, Control_c, 0, 64, 60
1, 139927, Control_c, 0, 64, 65
1, 139942, Control_c, 0, 64, 68
1, 139949, Note_off_c, 0, 30, 56
1, 139956, Control_c, 0, 64, 73
1, 139971, Control_c, 0, 64, 79
1, 139986, Control_c, 0, 64, 83
1, 139994, Note_off_c, 0, 93, 60
1, 140001, Control_c, 0, 64, 85
1, 140008, Note_off_c, 0, 42, 38
1, 140015, Control_c, 0, 64, 87
1, 140020, Note_off_c, 0, 81, 35
1, 140030, Control_c, 0, 64, 89
1, 140045, Control_c, 0, 64, 91
1, 140059, Control_c, 0, 64, 93
1, 140074, Control_c, 0, 64, 95
1, 140089, Control_c, 0, 64, 96
1, 140104, Control_c, 0, 64, 97
1, 140126, Control_c, 0, 64, 98
1, 140156, Control_c, 0, 64, 98
1, 140230, Control_c, 0, 64, 99
1, 140353, Note_on_c, 0, 69, 57
1, 140356, Note_on_c, 0, 57, 44
1, 140359, Note_on_c, 0, 66, 52
1, 140377, Note_on_c, 0, 61, 41
1, 140398, Note_off_c, 0, 69, 64
1, 140408, Note_off_c, 0, 66, 65
1, 140411, Note_off_c, 0, 61, 63
1, 140425, Note_off_c, 0, 57, 59
1, 140561, Note_on_c, 0, 85, 82
1, 140577, Note_on_c, 0, 73, 52
1, 140715, Note_off_c, 0, 73, 55
1, 140786, Note_off_c, 0, 85, 63
1, 140824, Control_c, 0, 67, 8
1, 140838, Control_c, 0, 64, 98
1, 140838, Control_c, 0, 67, 8
1, 140853, Control_c, 0, 64, 93
1, 140853, Control_c, 0, 67, 10
1, 140872, Note_on_c, 0, 86, 70
1, 140875, Control_c, 0, 64, 79
1, 140875, Control_c, 0, 67, 13
1, 140878, Note_on_c, 0, 35, 37
1, 140882, Note_on_c, 0, 47, 31
1, 140888, Note_on_c, 0, 74, 44
1, 140889, Control_c, 0, 64, 63
1, 140889, Control_c, 0, 67, 15
1, 140904, Control_c, 0, 64, 0
1, 140904, Control_c, 0, 67, 18
1, 140919, Control_c, 0, 67, 22
1, 140934, Control_c, 0, 67, 26
1, 140949, Control_c, 0, 64, 47
1, 140949, Control_c, 0, 67, 31
1, 140964, Control_c, 0, 64, 64
1, 140964, Control_c, 0, 67, 38
1, 140979, Control_c, 0, 64, 68
1, 140979, Control_c, 0, 67, 45
1, 140994, Control_c, 0, 64, 73
1, 140994, Control_c, 0, 67, 51
1, 141003, Note_off_c, 0, 74, 63
1, 141009, Control_c, 0, 64, 78
1, 141009, Control_c, 0, 67, 55
1, 141011, Note_off_c, 0, 47, 40
1, 141024, Control_c, 0, 64, 82
1, 141024, Control_c, 0, 67, 58
1, 141036, Note_off_c, 0, 86, 62
1, 141038, Control_c, 0, 64, 83
1, 141038, Control_c, 0, 67, 60
1, 141053, Control_c, 0, 64, 84
1, 141053, Control_c, 0, 67, 62
1, 141054, Note_off_c, 0, 35, 51
1, 141068, Control_c, 0, 64, 86
1, 141068, Control_c, 0, 67, 63
1, 141083, Control_c, 0, 64, 87
1, 141083, Control_c, 0, 67, 65
1, 141097, Control_c, 0, 64, 88
1, 141097, Control_c, 0, 67, 68
1, 141112, Control_c, 0, 64, 89
1, 141112, Control_c, 0, 67, 71
1, 141127, Control_c, 0, 64, 90
1, 141127, Control_c, 0, 67, 74
1, 141142, Control_c, 0, 64, 91
1, 141142, Control_c, 0, 67, 75
1, 141157, Control_c, 0, 64, 92
1, 141171, Control_c, 0, 64, 92
1, 141202, Control_c, 0, 64, 93
1, 141232, Control_c, 0, 64, 93
1, 141261, Control_c, 0, 67, 76
1, 141276, Control_c, 0, 64, 94
1, 141306, Control_c, 0, 67, 75
1, 141409, Control_c, 0, 64, 91
1, 141411, Note_on_c, 0, 28, 44
1, 141421, Note_on_c, 0, 40, 44
1, 141423, Note_on_c, 0, 92, 82
1, 141424, Control_c, 0, 64, 81
1, 141424, Control_c, 0, 67, 75
1, 141431, Note_on_c, 0, 80, 65
1, 141439, Control_c, 0, 64, 62
1, 141454, Control_c, 0, 64, 0
1, 141499, Control_c, 0, 64, 38
1, 141513, Control_c, 0, 64, 61
1, 141513, Control_c, 0, 67, 75
1, 141528, Control_c, 0, 64, 66
1, 141536, Note_off_c, 0, 28, 57
1, 141539, Note_off_c, 0, 40, 55
1, 141543, Control_c, 0, 64, 72
1, 141543, Control_c, 0, 67, 76
1, 141558, Control_c, 0, 64, 78
1, 141567, Note_off_c, 0, 80, 64
1, 141571, Note_off_c, 0, 92, 66
1, 141573, Control_c, 0, 64, 84
1, 141573, Control_c, 0, 67, 76
1, 141587, Control_c, 0, 64, 87
1, 141602, Control_c, 0, 64, 88
1, 141625, Control_c, 0, 64, 90
1, 141640, Control_c, 0, 64, 92
1, 141655, Control_c, 0, 64, 93
1, 141669, Control_c, 0, 64, 94
1, 141684, Control_c, 0, 64, 96
1, 141699, Control_c, 0, 64, 96
1, 141713, Control_c, 0, 64, 97
1, 141728, Control_c, 0, 64, 97
1, 141728, Control_c, 0, 67, 75
1, 141773, Control_c, 0, 64, 98
1, 141832, Control_c, 0, 64, 98
1, 141847, Control_c, 0, 67, 75
1, 141906, Control_c, 0, 67, 75
1, 141926, Note_on_c, 0, 68, 53
1, 141932, Note_on_c, 0, 61, 47
1, 141935, Note_on_c, 0, 56, 44
1, 141968, Note_off_c, 0, 68, 64
1, 141977, Note_off_c, 0, 61, 59
1, 141991, Note_off_c, 0, 56, 58
1, 141996, Control_c, 0, 67, 76
1, 142025, Control_c, 0, 67, 76
1, 142055, Control_c, 0, 67, 77
1, 142070, Control_c, 0, 67, 77
1, 142085, Control_c, 0, 67, 78
1, 142115, Control_c, 0, 67, 80
1, 142129, Control_c, 0, 67, 84
1, 142135, Note_on_c, 0, 84, 86
1, 142141, Note_on_c, 0, 72, 69
1, 142144, Control_c, 0, 67, 87
1, 142159, Control_c, 0, 67, 89
1, 142174, Control_c, 0, 67, 91
1, 142182, Note_off_c, 0, 72, 53
1, 142189, Control_c, 0, 67, 93
1, 142204, Control_c, 0, 67, 96
1, 142218, Control_c, 0, 67, 100
1, 142233, Control_c, 0, 67, 106
1, 142248, Control_c, 0, 67, 112
1, 142256, Note_off_c, 0, 84, 59
1, 142263, Control_c, 0, 67, 117
1, 142278, Control_c, 0, 67, 120
1, 142292, Control_c, 0, 67, 123
1, 142307, Control_c, 0, 67, 125
1, 142322, Control_c, 0, 67, 127
1, 142433, Control_c, 0, 64, 98
1, 142448, Control_c, 0, 64, 96
1, 142462, Control_c, 0, 64, 90
1, 142475, Note_on_c, 0, 45, 35
1, 142475, Note_on_c, 0, 33, 36
1, 142477, Control_c, 0, 64, 76
1, 142485, Note_on_c, 0, 85, 56
1, 142492, Control_c, 0, 64, 32
1, 142501, Note_on_c, 0, 73, 35
1, 142507, Control_c, 0, 64, 0
1, 142566, Control_c, 0, 64, 26
1, 142581, Control_c, 0, 64, 63
1, 142596, Control_c, 0, 64, 68
1, 142609, Note_off_c, 0, 45, 49
1, 142610, Control_c, 0, 64, 72
1, 142625, Control_c, 0, 64, 76
1, 142640, Control_c, 0, 64, 80
1, 142655, Control_c, 0, 64, 82
1, 142657, Note_off_c, 0, 73, 39
1, 142669, Control_c, 0, 64, 83
1, 142673, Note_off_c, 0, 33, 39
1, 142684, Control_c, 0, 64, 84
1, 142699, Control_c, 0, 64, 85
1, 142714, Control_c, 0, 64, 86
1, 142729, Note_off_c, 0, 85, 60
1, 142729, Control_c, 0, 64, 86
1, 142744, Control_c, 0, 64, 87
1, 143026, Control_c, 0, 64, 86
1, 143041, Control_c, 0, 64, 80
1, 143050, Note_on_c, 0, 90, 60
1, 143056, Control_c, 0, 64, 68
1, 143057, Note_on_c, 0, 26, 39
1, 143060, Note_on_c, 0, 78, 42
1, 143065, Note_on_c, 0, 38, 21
1, 143071, Control_c, 0, 64, 0
1, 143134, Note_off_c, 0, 26, 63
1, 143137, Control_c, 0, 64, 59
1, 143152, Control_c, 0, 64, 67
1, 143167, Control_c, 0, 64, 74
1, 143170, Note_off_c, 0, 38, 47
1, 143181, Note_off_c, 0, 90, 63
1, 143182, Control_c, 0, 64, 80
1, 143197, Control_c, 0, 64, 83
1, 143212, Control_c, 0, 64, 84
1, 143226, Note_off_c, 0, 78, 63
1, 143226, Control_c, 0, 64, 85
1, 143241, Control_c, 0, 64, 87
1, 143256, Control_c, 0, 64, 88
1, 143271, Control_c, 0, 64, 90
1, 143285, Control_c, 0, 64, 91
1, 143300, Control_c, 0, 64, 91
1, 143315, Control_c, 0, 64, 92
1, 143330, Control_c, 0, 64, 93
1, 143345, Control_c, 0, 64, 93
1, 143359, Control_c, 0, 64, 94
1, 143389, Control_c, 0, 64, 94
1, 143419, Control_c, 0, 64, 95
1, 143563, Note_on_c, 0, 59, 37
1, 143569, Note_on_c, 0, 66, 51
1, 143581, Note_on_c, 0, 54, 44
1, 143597, Note_off_c, 0, 66, 66
1, 143605, Note_off_c, 0, 59, 52
1, 143624, Note_off_c, 0, 54, 60
1, 143805, Note_on_c, 0, 83, 70
1, 143820, Note_on_c, 0, 71, 50
1, 143841, Note_off_c, 0, 71, 57
1, 143861, Note_off_c, 0, 83, 61
1, 144049, Control_c, 0, 64, 93
1, 144064, Control_c, 0, 64, 85
1, 144079, Control_c, 0, 64, 70
1, 144093, Note_on_c, 0, 88, 65
1, 144094, Control_c, 0, 64, 0
1, 144094, Note_on_c, 0, 28, 34
1, 144098, Note_on_c, 0, 76, 48
1, 144101, Note_on_c, 0, 40, 32
1, 144123, Control_c, 0, 64, 54
1, 144138, Control_c, 0, 64, 63
1, 144150, Note_off_c, 0, 40, 57
1, 144153, Control_c, 0, 64, 67
1, 144155, Note_off_c, 0, 28, 59
1, 144168, Control_c, 0, 64, 71
1, 144182, Control_c, 0, 64, 76
1, 144197, Control_c, 0, 64, 80
1, 144212, Control_c, 0, 64, 82
1, 144227, Control_c, 0, 64, 84
1, 144241, Control_c, 0, 64, 86
1, 144256, Control_c, 0, 64, 87
1, 144259, Note_off_c, 0, 88, 47
1, 144271, Control_c, 0, 64, 88
1, 144286, Control_c, 0, 64, 89
1, 144289, Note_off_c, 0, 76, 49
1, 144315, Control_c, 0, 64, 89
1, 144405, Control_c, 0, 64, 90
1, 144620, Control_c, 0, 64, 89
1, 144635, Control_c, 0, 64, 86
1, 144650, Control_c, 0, 64, 77
1, 144651, Note_on_c, 0, 83, 43
1, 144654, Note_on_c, 0, 86, 59
1, 144657, Note_on_c, 0, 45, 32
1, 144660, Note_on_c, 0, 33, 37
1, 144664, Control_c, 0, 64, 58
1, 144672, Note_on_c, 0, 74, 36
1, 144679, Control_c, 0, 64, 0
1, 144738, Control_c, 0, 64, 62
1, 144753, Control_c, 0, 64, 68
1, 144765, Note_off_c, 0, 33, 57
1, 144768, Control_c, 0, 64, 73
1, 144783, Control_c, 0, 64, 79
1, 144786, Note_off_c, 0, 45, 42
1, 144798, Control_c, 0, 64, 83
1, 144812, Control_c, 0, 64, 86
1, 144827, Control_c, 0, 64, 88
1, 144842, Control_c, 0, 64, 90
1, 144857, Control_c, 0, 64, 91
1, 144872, Control_c, 0, 64, 92
1, 144887, Control_c, 0, 64, 93
1, 144902, Control_c, 0, 64, 94
1, 144917, Note_off_c, 0, 83, 55
1, 144917, Control_c, 0, 64, 95
1, 144931, Control_c, 0, 64, 95
1, 144946, Control_c, 0, 64, 96
1, 144976, Control_c, 0, 64, 96
1, 145020, Control_c, 0, 64, 97
1, 145131, Note_off_c, 0, 86, 29
1, 145228, Control_c, 0, 67, 127
1, 145232, Note_on_c, 0, 52, 37
1, 145232, Note_on_c, 0, 64, 33
1, 145239, Note_on_c, 0, 57, 35
1, 145243, Control_c, 0, 67, 122
1, 145244, Note_off_c, 0, 74, 37
1, 145258, Control_c, 0, 67, 116
1, 145273, Control_c, 0, 67, 111
1, 145287, Control_c, 0, 67, 105
1, 145302, Control_c, 0, 67, 100
1, 145317, Control_c, 0, 67, 94
1, 145332, Control_c, 0, 67, 88
1, 145347, Control_c, 0, 67, 82
1, 145369, Control_c, 0, 67, 75
1, 145384, Control_c, 0, 67, 68
1, 145399, Control_c, 0, 67, 61
1, 145414, Control_c, 0, 64, 97
1, 145414, Control_c, 0, 67, 54
1, 145429, Control_c, 0, 67, 47
1, 145443, Control_c, 0, 67, 41
1, 145448, Note_off_c, 0, 64, 42
1, 145451, Note_off_c, 0, 57, 35
1, 145458, Control_c, 0, 67, 37
1, 145473, Control_c, 0, 67, 33
1, 145487, Control_c, 0, 67, 29
1, 145502, Control_c, 0, 67, 24
1, 145510, Note_off_c, 0, 52, 42
1, 145517, Control_c, 0, 67, 20
1, 145532, Control_c, 0, 67, 16
1, 145547, Control_c, 0, 67, 13
1, 145561, Control_c, 0, 67, 10
1, 145576, Control_c, 0, 67, 8
1, 145591, Control_c, 0, 67, 0
1, 145754, Control_c, 0, 64, 98
1, 145827, Note_on_c, 0, 85, 58
1, 145828, Note_on_c, 0, 81, 44
1, 145829, Note_on_c, 0, 73, 42
1, 145873, Note_off_c, 0, 73, 62
1, 145898, Note_off_c, 0, 81, 58
1, 145913, Note_off_c, 0, 85, 63
1, 145961, Control_c, 0, 64, 98
1, 146007, Control_c, 0, 64, 99
1, 146037, Control_c, 0, 64, 99
1, 146051, Control_c, 0, 64, 100
1, 146081, Control_c, 0, 64, 100
1, 146118, Control_c, 0, 64, 101
1, 146195, Note_on_c, 0, 33, 49
1, 146229, Note_off_c, 0, 33, 62
1, 146325, Control_c, 0, 64, 101
1, 146355, Control_c, 0, 64, 102
1, 146370, Control_c, 0, 64, 102
1, 146384, Control_c, 0, 64, 103
1, 146414, Note_on_c, 0, 49, 57
1, 146414, Control_c, 0, 64, 103
1, 146429, Control_c, 0, 64, 103
1, 146435, Note_on_c, 0, 97, 85
1, 146438, Note_on_c, 0, 85, 62
1, 146444, Control_c, 0, 64, 100
1, 146458, Control_c, 0, 64, 89
1, 146473, Control_c, 0, 64, 73
1, 146488, Control_c, 0, 64, 36
1, 146502, Control_c, 0, 64, 0
1, 146517, Control_c, 0, 64, 39
1, 146532, Control_c, 0, 64, 63
1, 146547, Control_c, 0, 64, 72
1, 146562, Control_c, 0, 64, 83
1, 146577, Control_c, 0, 64, 95
1, 146592, Control_c, 0, 64, 101
1, 146604, Note_off_c, 0, 49, 61
1, 146607, Control_c, 0, 64, 104
1, 146622, Control_c, 0, 64, 109
1, 146636, Control_c, 0, 64, 116
1, 146651, Control_c, 0, 64, 126
1, 146666, Control_c, 0, 64, 127
1, 146702, Note_off_c, 0, 97, 65
1, 146789, Note_off_c, 0, 85, 59
1, 147013, Note_on_c, 0, 69, 41
1, 147025, Note_on_c, 0, 95, 90
1, 147032, Note_on_c, 0, 73, 38
1, 147032, Note_on_c, 0, 83, 65
1, 147042, Note_on_c, 0, 64, 44
1, 147215, Note_off_c, 0, 69, 34
1, 147269, Note_off_c, 0, 64, 37
1, 147294, Note_off_c, 0, 95, 54
1, 147372, Note_off_c, 0, 83, 56
1, 147486, Note_off_c, 0, 73, 37
1, 147574, Note_on_c, 0, 69, 31
1, 147584, Note_on_c, 0, 61, 40
1, 147605, Note_on_c, 0, 93, 86
1, 147617, Note_on_c, 0, 81, 54
1, 147626, Note_off_c, 0, 69, 58
1, 147665, Note_off_c, 0, 61, 62
1, 147668, Poly_aftertouch_c, 0, 64, 0
1, 147731, Note_off_c, 0, 93, 53
1, 147812, Note_off_c, 0, 81, 59
1, 148007, Note_on_c, 0, 38, 61
1, 148053, Note_off_c, 0, 38, 62
1, 148156, Note_on_c, 0, 54, 72
1, 148163, Note_on_c, 0, 89, 77
1, 148169, Note_on_c, 0, 77, 55
1, 148193, Control_c, 0, 64, 107
1, 148208, Note_off_c, 0, 77, 0
1, 148208, Note_on_c, 0, 77, 22
1, 148208, Control_c, 0, 64, 87
1, 148222, Control_c, 0, 64, 70
1, 148237, Control_c, 0, 64, 56
1, 148252, Control_c, 0, 64, 64
1, 148267, Control_c, 0, 64, 69
1, 148281, Control_c, 0, 64, 76
1, 148296, Control_c, 0, 64, 83
1, 148311, Control_c, 0, 64, 86
1, 148326, Control_c, 0, 64, 88
1, 148341, Control_c, 0, 64, 92
1, 148356, Note_off_c, 0, 54, 60
1, 148363, Control_c, 0, 64, 95
1, 148378, Control_c, 0, 64, 98
1, 148393, Control_c, 0, 64, 99
1, 148408, Control_c, 0, 64, 100
1, 148423, Control_c, 0, 64, 101
1, 148438, Control_c, 0, 64, 102
1, 148452, Control_c, 0, 64, 103
1, 148467, Control_c, 0, 64, 104
1, 148482, Control_c, 0, 64, 104
1, 148556, Note_off_c, 0, 77, 41
1, 148675, Control_c, 0, 64, 105
1, 148815, Note_on_c, 0, 66, 27
1, 148816, Note_on_c, 0, 62, 35
1, 148818, Note_on_c, 0, 71, 34
1, 149009, Note_on_c, 0, 90, 67
1, 149018, Note_on_c, 0, 78, 58
1, 149034, Note_off_c, 0, 89, 33
1, 149075, Note_off_c, 0, 66, 42
1, 149108, Note_off_c, 0, 62, 34
1, 149148, Note_off_c, 0, 71, 32
1, 149172, Control_c, 0, 64, 105
1, 149188, Note_off_c, 0, 90, 54
1, 149192, Note_off_c, 0, 78, 29
1, 149306, Control_c, 0, 64, 106
1, 149313, Note_on_c, 0, 90, 65
1, 149316, Note_on_c, 0, 66, 41
1, 149318, Note_on_c, 0, 62, 32
1, 149319, Note_on_c, 0, 59, 50
1, 149328, Note_on_c, 0, 78, 51
1, 149366, Note_off_c, 0, 62, 49
1, 149373, Note_off_c, 0, 66, 50
1, 149389, Note_off_c, 0, 78, 54
1, 149391, Note_off_c, 0, 59, 59
1, 149483, Control_c, 0, 64, 106
1, 149588, Control_c, 0, 64, 107
1, 149632, Control_c, 0, 64, 107
1, 149735, Note_on_c, 0, 35, 54
1, 149779, Note_off_c, 0, 35, 60
1, 149794, Control_c, 0, 64, 108
1, 149824, Control_c, 0, 64, 108
1, 149861, Control_c, 0, 64, 109
1, 149906, Control_c, 0, 64, 108
1, 149910, Note_on_c, 0, 50, 65
1, 149921, Control_c, 0, 64, 102
1, 149925, Note_on_c, 0, 95, 93
1, 149932, Note_on_c, 0, 83, 66
1, 149935, Control_c, 0, 64, 88
1, 149950, Control_c, 0, 64, 70
1, 149965, Control_c, 0, 64, 0
1, 149973, Note_off_c, 0, 90, 62
1, 149981, Control_c, 0, 64, 41
1, 149996, Control_c, 0, 64, 61
1, 150011, Control_c, 0, 64, 65
1, 150025, Control_c, 0, 64, 70
1, 150040, Control_c, 0, 64, 75
1, 150055, Control_c, 0, 64, 81
1, 150070, Control_c, 0, 64, 85
1, 150084, Control_c, 0, 64, 88
1, 150094, Note_off_c, 0, 50, 62
1, 150099, Control_c, 0, 64, 89
1, 150114, Control_c, 0, 64, 91
1, 150129, Control_c, 0, 64, 93
1, 150144, Control_c, 0, 64, 95
1, 150144, Control_c, 0, 67, 8
1, 150158, Control_c, 0, 64, 97
1, 150158, Control_c, 0, 67, 9
1, 150173, Control_c, 0, 64, 98
1, 150173, Control_c, 0, 67, 11
1, 150188, Control_c, 0, 64, 99
1, 150188, Control_c, 0, 67, 14
1, 150203, Control_c, 0, 64, 99
1, 150203, Control_c, 0, 67, 17
1, 150218, Control_c, 0, 64, 100
1, 150218, Control_c, 0, 67, 20
1, 150232, Control_c, 0, 64, 100
1, 150232, Control_c, 0, 67, 23
1, 150247, Control_c, 0, 64, 101
1, 150247, Control_c, 0, 67, 26
1, 150251, Note_off_c, 0, 95, 55
1, 150262, Control_c, 0, 64, 101
1, 150262, Control_c, 0, 67, 30
1, 150276, Control_c, 0, 64, 102
1, 150276, Control_c, 0, 67, 33
1, 150291, Control_c, 0, 64, 102
1, 150291, Control_c, 0, 67, 35
1, 150306, Control_c, 0, 67, 37
1, 150321, Control_c, 0, 64, 103
1, 150321, Control_c, 0, 67, 37
1, 150335, Note_off_c, 0, 83, 55
1, 150336, Control_c, 0, 67, 38
1, 150351, Control_c, 0, 64, 103
1, 150351, Control_c, 0, 67, 38
1, 150381, Control_c, 0, 64, 104
1, 150381, Control_c, 0, 67, 39
1, 150396, Control_c, 0, 67, 39
1, 150425, Control_c, 0, 67, 40
1, 150440, Control_c, 0, 67, 42
1, 150454, Control_c, 0, 67, 43
1, 150468, Control_c, 0, 67, 44
1, 150483, Control_c, 0, 67, 45
1, 150491, Note_on_c, 0, 93, 94
1, 150498, Note_on_c, 0, 71, 41
1, 150498, Control_c, 0, 67, 47
1, 150499, Note_on_c, 0, 62, 42
1, 150504, Note_on_c, 0, 81, 70
1, 150506, Note_on_c, 0, 68, 39
1, 150513, Control_c, 0, 67, 49
1, 150528, Control_c, 0, 67, 51
1, 150542, Control_c, 0, 67, 51
1, 150557, Control_c, 0, 67, 52
1, 150572, Control_c, 0, 67, 52
1, 150587, Control_c, 0, 67, 53
1, 150610, Control_c, 0, 67, 53
1, 150624, Control_c, 0, 67, 55
1, 150639, Control_c, 0, 67, 57
1, 150654, Control_c, 0, 67, 58
1, 150669, Control_c, 0, 67, 60
1, 150683, Control_c, 0, 67, 62
1, 150698, Control_c, 0, 64, 104
1, 150698, Control_c, 0, 67, 65
1, 150713, Control_c, 0, 67, 66
1, 150721, Note_off_c, 0, 68, 40
1, 150728, Control_c, 0, 67, 68
1, 150730, Note_off_c, 0, 62, 33
1, 150743, Control_c, 0, 67, 70
1, 150747, Note_off_c, 0, 81, 56
1, 150757, Control_c, 0, 67, 73
1, 150773, Control_c, 0, 67, 75
1, 150788, Control_c, 0, 67, 79
1, 150803, Control_c, 0, 67, 82
1, 150810, Note_off_c, 0, 71, 29
1, 150818, Control_c, 0, 67, 85
1, 150833, Control_c, 0, 64, 105
1, 150833, Control_c, 0, 67, 87
1, 150847, Control_c, 0, 67, 89
1, 150862, Control_c, 0, 67, 92
1, 150877, Control_c, 0, 64, 105
1, 150877, Control_c, 0, 67, 94
1, 150892, Control_c, 0, 67, 99
1, 150906, Control_c, 0, 67, 103
1, 150921, Control_c, 0, 67, 108
1, 150936, Control_c, 0, 67, 111
1, 150951, Control_c, 0, 67, 115
1, 150966, Control_c, 0, 64, 106
1, 150966, Control_c, 0, 67, 117
1, 150980, Control_c, 0, 67, 120
1, 150995, Control_c, 0, 67, 123
1, 151010, Control_c, 0, 67, 127
1, 151025, Control_c, 0, 67, 127
1, 151039, Note_on_c, 0, 68, 35
1, 151045, Note_on_c, 0, 62, 27
1, 151052, Note_on_c, 0, 92, 68
1, 151057, Note_on_c, 0, 59, 42
1, 151060, Note_on_c, 0, 80, 54
1, 151096, Note_off_c, 0, 62, 49
1, 151096, Note_off_c, 0, 68, 49
1, 151101, Note_off_c, 0, 93, 28
1, 151132, Note_off_c, 0, 59, 59
1, 151170, Note_off_c, 0, 92, 57
1, 151358, Note_off_c, 0, 80, 57
1, 151469, Note_on_c, 0, 37, 48
1, 151519, Note_off_c, 0, 37, 64
1, 151649, Note_on_c, 0, 52, 57
1, 151656, Control_c, 0, 64, 104
1, 151665, Note_on_c, 0, 87, 59
1, 151669, Note_on_c, 0, 75, 52
1, 151671, Control_c, 0, 64, 93
1, 151686, Control_c, 0, 64, 73
1, 151701, Control_c, 0, 64, 0
1, 151745, Control_c, 0, 64, 54
1, 151760, Control_c, 0, 64, 63
1, 151775, Control_c, 0, 64, 68
1, 151790, Control_c, 0, 64, 72
1, 151804, Control_c, 0, 64, 77
1, 151819, Control_c, 0, 64, 82
1, 151829, Note_off_c, 0, 52, 65
1, 151834, Control_c, 0, 64, 87
1, 151848, Control_c, 0, 64, 89
1, 151863, Control_c, 0, 64, 90
1, 151878, Control_c, 0, 64, 91
1, 151893, Control_c, 0, 64, 92
1, 151908, Control_c, 0, 64, 94
1, 151922, Control_c, 0, 64, 95
1, 151937, Control_c, 0, 64, 96
1, 151952, Control_c, 0, 64, 97
1, 151967, Control_c, 0, 64, 98
1, 151982, Control_c, 0, 64, 98
1, 151996, Control_c, 0, 64, 99
1, 152008, Note_off_c, 0, 75, 35
1, 152011, Control_c, 0, 64, 100
1, 152041, Control_c, 0, 64, 100
1, 152056, Control_c, 0, 64, 101
1, 152071, Control_c, 0, 64, 101
1, 152108, Control_c, 0, 64, 102
1, 152152, Control_c, 0, 64, 102
1, 152182, Control_c, 0, 64, 103
1, 152226, Control_c, 0, 64, 103
1, 152241, Control_c, 0, 64, 104
1, 152271, Control_c, 0, 64, 104
1, 152279, Note_on_c, 0, 61, 29
1, 152285, Control_c, 0, 64, 105
1, 152286, Note_on_c, 0, 68, 32
1, 152291, Note_on_c, 0, 64, 26
1, 152315, Control_c, 0, 64, 106
1, 152345, Control_c, 0, 64, 106
1, 152360, Control_c, 0, 64, 107
1, 152375, Control_c, 0, 64, 107
1, 152390, Control_c, 0, 64, 108
1, 152405, Control_c, 0, 64, 108
1, 152434, Control_c, 0, 64, 109
1, 152435, Note_off_c, 0, 87, 28
1, 152463, Note_off_c, 0, 61, 29
1, 152464, Control_c, 0, 64, 109
1, 152466, Note_off_c, 0, 68, 43
1, 152473, Note_off_c, 0, 64, 34
1, 152494, Control_c, 0, 64, 110
1, 152517, Note_on_c, 0, 88, 53
1, 152527, Note_on_c, 0, 76, 35
1, 152553, Control_c, 0, 64, 110
1, 152613, Control_c, 0, 67, 121
1, 152627, Control_c, 0, 67, 115
1, 152642, Control_c, 0, 67, 110
1, 152657, Control_c, 0, 67, 106
1, 152671, Control_c, 0, 67, 101
1, 152673, Note_off_c, 0, 76, 29
1, 152686, Control_c, 0, 67, 96
1, 152696, Note_off_c, 0, 88, 33
1, 152701, Control_c, 0, 67, 90
1, 152716, Control_c, 0, 67, 83
1, 152731, Control_c, 0, 64, 111
1, 152731, Control_c, 0, 67, 75
1, 152745, Control_c, 0, 67, 68
1, 152760, Control_c, 0, 67, 62
1, 152775, Control_c, 0, 67, 56
1, 152790, Control_c, 0, 67, 50
1, 152805, Control_c, 0, 67, 44
1, 152819, Control_c, 0, 67, 39
1, 152834, Control_c, 0, 67, 35
1, 152853, Note_on_c, 0, 88, 50
1, 152857, Control_c, 0, 67, 31
1, 152867, Note_on_c, 0, 61, 30
1, 152868, Note_on_c, 0, 56, 27
1, 152871, Control_c, 0, 67, 29
1, 152886, Note_on_c, 0, 76, 39
1, 152886, Control_c, 0, 67, 27
1, 152901, Control_c, 0, 67, 26
1, 152916, Control_c, 0, 67, 24
1, 152931, Control_c, 0, 67, 23
1, 152945, Note_off_c, 0, 61, 51
1, 152945, Control_c, 0, 67, 23
1, 152960, Control_c, 0, 67, 22
1, 152972, Note_off_c, 0, 76, 37
1, 152990, Note_off_c, 0, 56, 31
1, 153005, Control_c, 0, 67, 23
1, 153019, Control_c, 0, 67, 24
1, 153034, Control_c, 0, 67, 24
1, 153049, Control_c, 0, 67, 25
1, 153064, Control_c, 0, 67, 26
1, 153078, Control_c, 0, 67, 27
1, 153093, Control_c, 0, 67, 28
1, 153108, Control_c, 0, 67, 30
1, 153123, Control_c, 0, 67, 30
1, 153135, Note_off_c, 0, 88, 36
1, 153138, Control_c, 0, 67, 31
1, 153153, Control_c, 0, 67, 32
1, 153168, Control_c, 0, 67, 32
1, 153183, Control_c, 0, 67, 33
1, 153198, Control_c, 0, 67, 34
1, 153213, Control_c, 0, 67, 35
1, 153228, Control_c, 0, 67, 36
1, 153242, Control_c, 0, 67, 37
1, 153257, Control_c, 0, 67, 39
1, 153272, Control_c, 0, 67, 42
1, 153287, Control_c, 0, 67, 47
1, 153302, Control_c, 0, 67, 52
1, 153317, Control_c, 0, 67, 59
1, 153332, Control_c, 0, 67, 65
1, 153347, Control_c, 0, 67, 70
1, 153362, Control_c, 0, 67, 76
1, 153376, Control_c, 0, 67, 81
1, 153391, Control_c, 0, 67, 87
1, 153406, Control_c, 0, 67, 92
1, 153421, Control_c, 0, 67, 99
1, 153436, Control_c, 0, 67, 104
1, 153450, Control_c, 0, 67, 108
1, 153465, Control_c, 0, 67, 113
1, 153480, Control_c, 0, 67, 118
1, 153494, Control_c, 0, 67, 123
1, 153509, Control_c, 0, 67, 127
1, 153524, Control_c, 0, 67, 127
1, 153566, Note_on_c, 0, 42, 36
1, 153567, Note_on_c, 0, 30, 44
1, 153568, Control_c, 0, 64, 109
1, 153577, Note_on_c, 0, 93, 65
1, 153583, Control_c, 0, 64, 101
1, 153585, Note_on_c, 0, 81, 50
1, 153606, Control_c, 0, 64, 84
1, 153620, Control_c, 0, 64, 66
1, 153635, Control_c, 0, 64, 0
1, 153665, Control_c, 0, 64, 19
1, 153680, Control_c, 0, 64, 61
1, 153694, Control_c, 0, 64, 68
1, 153709, Control_c, 0, 64, 74
1, 153719, Note_off_c, 0, 30, 48
1, 153724, Control_c, 0, 64, 81
1, 153729, Note_off_c, 0, 93, 59
1, 153739, Control_c, 0, 64, 86
1, 153745, Note_off_c, 0, 81, 52
1, 153746, Note_off_c, 0, 42, 47
1, 153754, Control_c, 0, 64, 88
1, 153768, Control_c, 0, 64, 90
1, 153783, Control_c, 0, 64, 93
1, 153798, Control_c, 0, 64, 95
1, 153813, Control_c, 0, 64, 96
1, 153827, Control_c, 0, 64, 98
1, 153842, Control_c, 0, 64, 99
1, 153857, Control_c, 0, 64, 99
1, 153872, Control_c, 0, 64, 100
1, 153887, Control_c, 0, 64, 102
1, 153901, Control_c, 0, 64, 103
1, 153916, Control_c, 0, 64, 104
1, 153931, Control_c, 0, 64, 105
1, 153946, Control_c, 0, 64, 106
1, 153961, Control_c, 0, 64, 106
1, 153977, Control_c, 0, 64, 107
1, 153991, Control_c, 0, 64, 107
1, 154021, Control_c, 0, 64, 108
1, 154095, Control_c, 0, 64, 108
1, 154153, Note_on_c, 0, 69, 56
1, 154162, Note_on_c, 0, 57, 44
1, 154164, Note_on_c, 0, 66, 45
1, 154193, Note_on_c, 0, 61, 34
1, 154217, Note_off_c, 0, 66, 59
1, 154217, Note_off_c, 0, 69, 65
1, 154224, Note_off_c, 0, 61, 54
1, 154253, Note_off_c, 0, 57, 55
1, 154349, Note_on_c, 0, 85, 83
1, 154357, Note_on_c, 0, 73, 65
1, 154542, Note_off_c, 0, 73, 54
1, 154563, Control_c, 0, 64, 109
1, 154593, Note_off_c, 0, 85, 63
1, 154637, Control_c, 0, 64, 108
1, 154650, Note_on_c, 0, 47, 48
1, 154651, Control_c, 0, 64, 101
1, 154657, Note_on_c, 0, 86, 72
1, 154661, Note_on_c, 0, 35, 47
1, 154666, Control_c, 0, 64, 86
1, 154667, Note_on_c, 0, 74, 51
1, 154681, Control_c, 0, 64, 69
1, 154696, Control_c, 0, 64, 53
1, 154711, Control_c, 0, 64, 62
1, 154725, Control_c, 0, 64, 66
1, 154740, Control_c, 0, 64, 72
1, 154755, Control_c, 0, 64, 80
1, 154771, Control_c, 0, 64, 87
1, 154777, Note_off_c, 0, 47, 36
1, 154784, Note_off_c, 0, 74, 51
1, 154786, Control_c, 0, 64, 90
1, 154801, Control_c, 0, 64, 92
1, 154815, Control_c, 0, 64, 95
1, 154816, Note_off_c, 0, 86, 58
1, 154830, Control_c, 0, 64, 97
1, 154841, Note_off_c, 0, 35, 42
1, 154845, Control_c, 0, 64, 100
1, 154860, Control_c, 0, 64, 102
1, 154874, Control_c, 0, 64, 103
1, 154889, Control_c, 0, 64, 104
1, 154904, Control_c, 0, 64, 104
1, 154919, Control_c, 0, 64, 105
1, 154934, Control_c, 0, 64, 106
1, 154977, Control_c, 0, 64, 106
1, 154992, Control_c, 0, 67, 118
1, 155007, Control_c, 0, 67, 105
1, 155022, Control_c, 0, 64, 107
1, 155022, Control_c, 0, 67, 91
1, 155037, Control_c, 0, 64, 107
1, 155037, Control_c, 0, 67, 71
1, 155052, Control_c, 0, 67, 49
1, 155066, Control_c, 0, 64, 108
1, 155066, Control_c, 0, 67, 27
1, 155081, Control_c, 0, 67, 10
1, 155103, Control_c, 0, 67, 0
1, 155118, Control_c, 0, 64, 108
1, 155210, Note_on_c, 0, 40, 47
1, 155215, Note_on_c, 0, 28, 55
1, 155222, Control_c, 0, 64, 104
1, 155227, Note_on_c, 0, 92, 80
1, 155228, Note_on_c, 0, 80, 63
1, 155237, Control_c, 0, 64, 93
1, 155251, Control_c, 0, 64, 75
1, 155266, Control_c, 0, 64, 0
1, 155326, Control_c, 0, 64, 62
1, 155341, Control_c, 0, 64, 69
1, 155344, Note_off_c, 0, 28, 61
1, 155355, Control_c, 0, 64, 75
1, 155370, Control_c, 0, 64, 82
1, 155383, Note_off_c, 0, 80, 53
1, 155385, Control_c, 0, 64, 88
1, 155399, Note_off_c, 0, 92, 66
1, 155400, Control_c, 0, 64, 93
1, 155414, Control_c, 0, 64, 95
1, 155423, Note_off_c, 0, 40, 49
1, 155429, Control_c, 0, 64, 97
1, 155444, Control_c, 0, 64, 98
1, 155459, Control_c, 0, 64, 99
1, 155503, Control_c, 0, 64, 99
1, 155533, Control_c, 0, 64, 100
1, 155563, Control_c, 0, 64, 100
1, 155578, Control_c, 0, 64, 101
1, 155608, Control_c, 0, 64, 102
1, 155623, Control_c, 0, 64, 102
1, 155682, Control_c, 0, 64, 103
1, 155774, Note_on_c, 0, 61, 40
1, 155776, Note_on_c, 0, 68, 54
1, 155779, Note_on_c, 0, 56, 45
1, 155856, Note_off_c, 0, 68, 63
1, 155867, Control_c, 0, 67, 8
1, 155882, Control_c, 0, 67, 8
1, 155906, Note_off_c, 0, 61, 52
1, 155911, Control_c, 0, 67, 9
1, 155926, Control_c, 0, 67, 10
1, 155941, Control_c, 0, 67, 10
1, 155946, Note_off_c, 0, 56, 44
1, 155956, Control_c, 0, 67, 11
1, 155970, Control_c, 0, 67, 11
1, 155985, Control_c, 0, 67, 12
1, 156000, Control_c, 0, 67, 13
1, 156012, Note_on_c, 0, 84, 86
1, 156015, Control_c, 0, 67, 15
1, 156015, Note_on_c, 0, 72, 69
1, 156029, Control_c, 0, 67, 16
1, 156044, Control_c, 0, 67, 17
1, 156059, Control_c, 0, 67, 18
1, 156074, Control_c, 0, 67, 18
1, 156086, Note_off_c, 0, 72, 56
1, 156104, Control_c, 0, 67, 19
1, 156119, Control_c, 0, 67, 19
1, 156134, Control_c, 0, 67, 21
1, 156149, Control_c, 0, 67, 23
1, 156163, Control_c, 0, 67, 25
1, 156178, Control_c, 0, 67, 27
1, 156193, Control_c, 0, 67, 28
1, 156205, Note_off_c, 0, 84, 55
1, 156208, Control_c, 0, 67, 30
1, 156222, Control_c, 0, 67, 31
1, 156237, Control_c, 0, 67, 34
1, 156252, Control_c, 0, 67, 37
1, 156267, Control_c, 0, 67, 40
1, 156282, Control_c, 0, 67, 44
1, 156296, Control_c, 0, 67, 51
1, 156311, Control_c, 0, 64, 102
1, 156311, Control_c, 0, 67, 57
1, 156326, Control_c, 0, 64, 101
1, 156326, Control_c, 0, 67, 64
1, 156341, Control_c, 0, 64, 93
1, 156341, Control_c, 0, 67, 71
1, 156354, Note_on_c, 0, 85, 65
1, 156356, Control_c, 0, 64, 78
1, 156356, Control_c, 0, 67, 80
1, 156361, Note_on_c, 0, 73, 50
1, 156364, Note_on_c, 0, 33, 40
1, 156372, Control_c, 0, 64, 0
1, 156372, Control_c, 0, 67, 88
1, 156386, Control_c, 0, 67, 98
1, 156393, Note_on_c, 0, 45, 14
1, 156401, Control_c, 0, 67, 107
1, 156416, Control_c, 0, 67, 115
1, 156431, Control_c, 0, 67, 122
1, 156445, Control_c, 0, 67, 127
1, 156460, Control_c, 0, 64, 58
1, 156475, Control_c, 0, 64, 64
1, 156490, Control_c, 0, 64, 68
1, 156505, Control_c, 0, 64, 72
1, 156518, Note_off_c, 0, 73, 39
1, 156518, Note_off_c, 0, 45, 43
1, 156519, Control_c, 0, 64, 78
1, 156534, Control_c, 0, 64, 83
1, 156549, Control_c, 0, 64, 85
1, 156564, Control_c, 0, 64, 87
1, 156579, Control_c, 0, 64, 88
1, 156592, Note_off_c, 0, 33, 41
1, 156601, Control_c, 0, 64, 89
1, 156616, Control_c, 0, 64, 90
1, 156660, Control_c, 0, 64, 90
1, 156713, Note_off_c, 0, 85, 48
1, 157016, Control_c, 0, 64, 89
1, 157025, Note_on_c, 0, 90, 59
1, 157026, Note_on_c, 0, 78, 48
1, 157031, Control_c, 0, 64, 84
1, 157033, Note_on_c, 0, 38, 29
1, 157035, Note_on_c, 0, 26, 37
1, 157045, Control_c, 0, 64, 71
1, 157060, Control_c, 0, 64, 26
1, 157064, Note_off_c, 0, 78, 0
1, 157064, Note_on_c, 0, 78, 14
1, 157075, Control_c, 0, 64, 0
1, 157119, Control_c, 0, 64, 56
1, 157134, Control_c, 0, 64, 66
1, 157149, Control_c, 0, 64, 72
1, 157155, Note_off_c, 0, 26, 58
1, 157165, Control_c, 0, 64, 77
1, 157180, Control_c, 0, 64, 82
1, 157194, Note_off_c, 0, 38, 40
1, 157195, Control_c, 0, 64, 83
1, 157209, Control_c, 0, 64, 84
1, 157219, Note_off_c, 0, 90, 61
1, 157224, Control_c, 0, 64, 85
1, 157239, Control_c, 0, 64, 87
1, 157254, Control_c, 0, 64, 89
1, 157268, Control_c, 0, 64, 91
1, 157283, Control_c, 0, 64, 92
1, 157298, Control_c, 0, 64, 94
1, 157313, Control_c, 0, 64, 95
1, 157326, Note_off_c, 0, 78, 51
1, 157328, Control_c, 0, 64, 96
1, 157350, Control_c, 0, 64, 97
1, 157365, Control_c, 0, 64, 98
1, 157395, Control_c, 0, 64, 98
1, 157586, Note_on_c, 0, 66, 40
1, 157587, Note_on_c, 0, 59, 36
1, 157610, Note_on_c, 0, 54, 35
1, 157654, Note_off_c, 0, 66, 62
1, 157711, Note_off_c, 0, 59, 35
1, 157744, Note_off_c, 0, 54, 33
1, 157839, Note_on_c, 0, 83, 69
1, 157850, Note_on_c, 0, 71, 55
1, 157869, Note_off_c, 0, 71, 61
1, 157901, Note_off_c, 0, 83, 62
1, 158205, Note_on_c, 0, 88, 66
1, 158217, Control_c, 0, 64, 96
1, 158223, Note_on_c, 0, 40, 28
1, 158223, Note_on_c, 0, 76, 46
1, 158229, Note_on_c, 0, 28, 38
1, 158232, Control_c, 0, 64, 88
1, 158247, Control_c, 0, 64, 76
1, 158262, Control_c, 0, 64, 59
1, 158277, Control_c, 0, 64, 0
1, 158307, Control_c, 0, 64, 51
1, 158322, Control_c, 0, 64, 63
1, 158337, Control_c, 0, 64, 68
1, 158352, Control_c, 0, 64, 73
1, 158366, Control_c, 0, 64, 79
1, 158381, Control_c, 0, 64, 83
1, 158393, Note_off_c, 0, 28, 40
1, 158396, Control_c, 0, 64, 86
1, 158410, Control_c, 0, 64, 87
1, 158425, Control_c, 0, 64, 88
1, 158440, Control_c, 0, 64, 90
1, 158442, Note_off_c, 0, 40, 40
1, 158455, Control_c, 0, 64, 91
1, 158465, Note_off_c, 0, 88, 36
1, 158470, Control_c, 0, 64, 92
1, 158484, Control_c, 0, 64, 92
1, 158499, Control_c, 0, 64, 93
1, 158529, Control_c, 0, 64, 93
1, 158539, Note_off_c, 0, 76, 37
1, 158927, Note_on_c, 0, 83, 44
1, 158930, Note_on_c, 0, 86, 57
1, 158936, Control_c, 0, 64, 92
1, 158939, Note_on_c, 0, 74, 39
1, 158941, Note_on_c, 0, 33, 37
1, 158951, Control_c, 0, 64, 86
1, 158954, Note_on_c, 0, 45, 27
1, 158966, Control_c, 0, 64, 74
1, 158981, Control_c, 0, 64, 41
1, 158995, Control_c, 0, 64, 0
1, 159040, Control_c, 0, 64, 37
1, 159055, Control_c, 0, 64, 63
1, 159070, Control_c, 0, 64, 66
1, 159085, Control_c, 0, 64, 69
1, 159100, Control_c, 0, 64, 71
1, 159114, Control_c, 0, 64, 75
1, 159129, Control_c, 0, 64, 79
1, 159142, Note_off_c, 0, 33, 43
1, 159144, Control_c, 0, 64, 82
1, 159146, Note_off_c, 0, 45, 40
1, 159159, Control_c, 0, 64, 83
1, 159174, Control_c, 0, 64, 84
1, 159188, Control_c, 0, 64, 85
1, 159203, Control_c, 0, 64, 86
1, 159218, Control_c, 0, 64, 87
1, 159232, Control_c, 0, 64, 87
1, 159247, Control_c, 0, 64, 88
1, 159262, Control_c, 0, 64, 88
1, 159336, Control_c, 0, 67, 125
1, 159351, Control_c, 0, 67, 123
1, 159366, Control_c, 0, 67, 120
1, 159380, Control_c, 0, 67, 117
1, 159395, Control_c, 0, 67, 114
1, 159410, Control_c, 0, 67, 111
1, 159425, Control_c, 0, 67, 109
1, 159440, Control_c, 0, 67, 107
1, 159455, Control_c, 0, 67, 104
1, 159469, Control_c, 0, 67, 101
1, 159473, Note_off_c, 0, 83, 28
1, 159484, Control_c, 0, 67, 97
1, 159499, Control_c, 0, 67, 94
1, 159514, Control_c, 0, 67, 90
1, 159529, Control_c, 0, 67, 87
1, 159544, Control_c, 0, 67, 82
1, 159559, Control_c, 0, 67, 78
1, 159574, Control_c, 0, 67, 74
1, 159597, Control_c, 0, 67, 68
1, 159611, Control_c, 0, 67, 64
1, 159626, Control_c, 0, 67, 59
1, 159641, Control_c, 0, 67, 55
1, 159656, Control_c, 0, 67, 50
1, 159670, Control_c, 0, 67, 46
1, 159685, Control_c, 0, 67, 44
1, 159687, Note_off_c, 0, 86, 38
1, 159700, Control_c, 0, 67, 41
1, 159715, Control_c, 0, 67, 39
1, 159730, Control_c, 0, 67, 38
1, 159744, Control_c, 0, 67, 36
1, 159759, Control_c, 0, 67, 35
1, 159765, Note_on_c, 0, 52, 37
1, 159770, Note_on_c, 0, 64, 23
1, 159774, Control_c, 0, 67, 33
1, 159776, Note_on_c, 0, 57, 30
1, 159789, Control_c, 0, 67, 31
1, 159804, Control_c, 0, 67, 29
1, 159818, Control_c, 0, 67, 27
1, 159833, Control_c, 0, 67, 25
1, 159848, Control_c, 0, 67, 24
1, 159863, Control_c, 0, 67, 23
1, 159878, Control_c, 0, 67, 22
1, 159893, Control_c, 0, 67, 20
1, 159908, Control_c, 0, 67, 19
1, 159923, Control_c, 0, 67, 18
1, 159937, Control_c, 0, 67, 16
1, 159952, Control_c, 0, 67, 15
1, 159955, Note_off_c, 0, 74, 40
1, 159967, Control_c, 0, 67, 14
1, 159982, Control_c, 0, 67, 12
1, 159996, Control_c, 0, 67, 9
1, 160011, Control_c, 0, 67, 0
1, 160745, Note_on_c, 0, 81, 41
1, 160745, Note_on_c, 0, 85, 55
1, 160762, Note_on_c, 0, 73, 39
1, 160768, Note_off_c, 0, 57, 29
1, 160852, Note_off_c, 0, 64, 26
1, 160859, Note_off_c, 0, 52, 31
1, 160930, Note_off_c, 0, 73, 33
1, 160939, Note_off_c, 0, 81, 28
1, 160982, Note_off_c, 0, 85, 36
1, 161055, Control_c, 0, 64, 89
1, 162694, Control_c, 0, 64, 88
1, 162738, Control_c, 0, 64, 88
1, 162769, Control_c, 0, 64, 87
1, 162784, Control_c, 0, 64, 86
1, 162799, Control_c, 0, 64, 85
1, 162814, Control_c, 0, 64, 84
1, 162828, Control_c, 0, 64, 83
1, 162843, Control_c, 0, 64, 82
1, 162858, Control_c, 0, 64, 82
1, 162873, Control_c, 0, 64, 80
1, 162887, Control_c, 0, 64, 78
1, 162902, Control_c, 0, 64, 74
1, 162917, Control_c, 0, 64, 69
1, 162932, Control_c, 0, 64, 63
1, 162947, Control_c, 0, 64, 55
1, 162961, Control_c, 0, 64, 49
1, 162976, Control_c, 0, 64, 38
1, 162991, Control_c, 0, 64, 0
1, 163428, Control_c, 0, 64, 44
1, 163437, Note_on_c, 0, 45, 58
1, 163443, Control_c, 0, 64, 55
1, 163447, Note_on_c, 0, 81, 60
1, 163453, Note_on_c, 0, 72, 56
1, 163458, Control_c, 0, 64, 56
1, 163462, Note_off_c, 0, 45, 61
1, 163473, Control_c, 0, 64, 56
1, 163487, Control_c, 0, 64, 54
1, 163497, Note_off_c, 0, 81, 52
1, 163502, Control_c, 0, 64, 53
1, 163520, Note_off_c, 0, 72, 62
1, 163545, Note_on_c, 0, 71, 51
1, 163562, Control_c, 0, 64, 52
1, 163577, Control_c, 0, 64, 51
1, 163592, Control_c, 0, 64, 50
1, 163599, Note_off_c, 0, 71, 51
1, 163607, Control_c, 0, 64, 50
1, 163607, Control_c, 0, 67, 8
1, 163622, Control_c, 0, 64, 51
1, 163622, Control_c, 0, 67, 9
1, 163631, Note_on_c, 0, 69, 62
1, 163636, Control_c, 0, 67, 11
1, 163651, Control_c, 0, 67, 12
1, 163652, Note_off_c, 0, 69, 66
1, 163666, Control_c, 0, 67, 12
1, 163681, Control_c, 0, 67, 13
1, 163696, Control_c, 0, 67, 14
1, 163710, Control_c, 0, 67, 15
1, 163713, Note_on_c, 0, 60, 63
1, 163725, Control_c, 0, 67, 16
1, 163740, Control_c, 0, 64, 50
1, 163755, Control_c, 0, 64, 49
1, 163770, Control_c, 0, 64, 46
1, 163771, Note_off_c, 0, 60, 49
1, 163784, Control_c, 0, 64, 41
1, 163784, Control_c, 0, 67, 16
1, 163799, Control_c, 0, 64, 31
1, 163801, Note_on_c, 0, 59, 60
1, 163814, Control_c, 0, 64, 0
1, 163861, Note_off_c, 0, 59, 56
1, 163887, Note_on_c, 0, 69, 73
1, 163890, Note_on_c, 0, 81, 75
1, 163891, Note_on_c, 0, 57, 39
1, 163902, Control_c, 0, 67, 17
1, 163914, Note_off_c, 0, 69, 65
1, 163914, Note_off_c, 0, 81, 63
1, 163923, Note_off_c, 0, 57, 45
1, 163962, Control_c, 0, 64, 35
1, 163977, Control_c, 0, 64, 47
1, 163991, Control_c, 0, 64, 53
1, 163996, Note_on_c, 0, 48, 70
1, 164000, Note_on_c, 0, 81, 87
1, 164006, Note_on_c, 0, 69, 77
1, 164006, Control_c, 0, 64, 56
1, 164021, Control_c, 0, 64, 59
1, 164029, Note_off_c, 0, 69, 72
1, 164033, Note_off_c, 0, 81, 62
1, 164036, Control_c, 0, 64, 60
1, 164051, Control_c, 0, 64, 61
1, 164051, Control_c, 0, 67, 16
1, 164060, Note_off_c, 0, 48, 58
1, 164066, Control_c, 0, 64, 62
1, 164088, Control_c, 0, 64, 63
1, 164104, Note_on_c, 0, 47, 61
1, 164117, Control_c, 0, 64, 62
1, 164132, Control_c, 0, 64, 58
1, 164132, Control_c, 0, 67, 16
1, 164147, Control_c, 0, 64, 46
1, 164147, Control_c, 0, 67, 15
1, 164161, Note_off_c, 0, 47, 59
1, 164161, Control_c, 0, 64, 0
1, 164164, Note_on_c, 0, 45, 61
1, 164191, Control_c, 0, 67, 15
1, 164206, Control_c, 0, 67, 14
1, 164221, Control_c, 0, 64, 35
1, 164221, Control_c, 0, 67, 13
1, 164236, Control_c, 0, 64, 50
1, 164236, Control_c, 0, 67, 12
1, 164251, Control_c, 0, 64, 57
1, 164251, Control_c, 0, 67, 12
1, 164263, Note_off_c, 0, 45, 64
1, 164265, Note_on_c, 0, 40, 65
1, 164266, Note_on_c, 0, 80, 78
1, 164266, Control_c, 0, 64, 60
1, 164269, Note_on_c, 0, 88, 88
1, 164281, Control_c, 0, 64, 61
1, 164281, Control_c, 0, 67, 11
1, 164291, Note_off_c, 0, 40, 59
1, 164296, Control_c, 0, 64, 62
1, 164325, Control_c, 0, 64, 62
1, 164325, Control_c, 0, 67, 12
1, 164355, Control_c, 0, 67, 12
1, 164366, Note_off_c, 0, 88, 57
1, 164373, Note_on_c, 0, 78, 73
1, 164403, Note_off_c, 0, 80, 64
1, 164436, Note_off_c, 0, 78, 65
1, 164445, Note_on_c, 0, 76, 72
1, 164482, Note_off_c, 0, 76, 64
1, 164489, Control_c, 0, 67, 12
1, 164535, Note_on_c, 0, 68, 73
1, 164548, Control_c, 0, 64, 63
1, 164563, Control_c, 0, 67, 11
1, 164578, Control_c, 0, 64, 63
1, 164593, Control_c, 0, 64, 63
1, 164593, Control_c, 0, 67, 11
1, 164607, Note_off_c, 0, 68, 59
1, 164607, Control_c, 0, 64, 62
1, 164617, Note_on_c, 0, 66, 63
1, 164622, Control_c, 0, 64, 60
1, 164622, Control_c, 0, 67, 10
1, 164637, Control_c, 0, 64, 53
1, 164651, Control_c, 0, 64, 34
1, 164666, Control_c, 0, 64, 26
1, 164676, Note_on_c, 0, 64, 63
1, 164680, Note_off_c, 0, 66, 66
1, 164682, Control_c, 0, 64, 39
1, 164697, Control_c, 0, 64, 51
1, 164702, Note_on_c, 0, 88, 88
1, 164706, Note_on_c, 0, 76, 78
1, 164706, Note_off_c, 0, 64, 66
1, 164712, Control_c, 0, 64, 56
1, 164726, Control_c, 0, 64, 59
1, 164741, Note_off_c, 0, 76, 64
1, 164741, Control_c, 0, 64, 62
1, 164745, Note_off_c, 0, 88, 61
1, 164756, Control_c, 0, 64, 63
1, 164756, Control_c, 0, 67, 11
1, 164770, Control_c, 0, 64, 64
1, 164770, Control_c, 0, 67, 11
1, 164785, Control_c, 0, 64, 66
1, 164800, Control_c, 0, 64, 66
1, 164812, Note_on_c, 0, 88, 78
1, 164814, Note_on_c, 0, 76, 82
1, 164815, Control_c, 0, 64, 67
1, 164815, Control_c, 0, 67, 12
1, 164829, Note_on_c, 0, 56, 61
1, 164838, Control_c, 0, 64, 67
1, 164844, Note_off_c, 0, 88, 64
1, 164867, Control_c, 0, 64, 68
1, 164878, Note_off_c, 0, 56, 53
1, 164882, Control_c, 0, 64, 68
1, 164910, Note_on_c, 0, 54, 64
1, 164912, Control_c, 0, 64, 68
1, 164926, Control_c, 0, 64, 66
1, 164941, Control_c, 0, 64, 64
1, 164941, Control_c, 0, 67, 11
1, 164956, Note_off_c, 0, 76, 49
1, 164956, Control_c, 0, 64, 57
1, 164971, Control_c, 0, 64, 32
1, 164975, Note_on_c, 0, 52, 67
1, 164985, Control_c, 0, 64, 0
1, 164985, Control_c, 0, 67, 11
1, 165049, Note_off_c, 0, 54, 54
1, 165059, Control_c, 0, 64, 48
1, 165059, Control_c, 0, 67, 11
1, 165065, Note_on_c, 0, 45, 75
1, 165072, Note_off_c, 0, 52, 66
1, 165073, Note_on_c, 0, 81, 85
1, 165074, Control_c, 0, 64, 60
1, 165082, Note_on_c, 0, 72, 78
1, 165088, Note_off_c, 0, 45, 68
1, 165089, Control_c, 0, 64, 62
1, 165104, Control_c, 0, 64, 63
1, 165119, Control_c, 0, 64, 64
1, 165133, Control_c, 0, 64, 65
1, 165133, Control_c, 0, 67, 12
1, 165136, Note_off_c, 0, 81, 61
1, 165149, Control_c, 0, 64, 66
1, 165162, Note_off_c, 0, 72, 63
1, 165164, Control_c, 0, 64, 66
1, 165173, Note_on_c, 0, 71, 69
1, 165194, Control_c, 0, 64, 67
1, 165194, Control_c, 0, 67, 12
1, 165236, Note_off_c, 0, 71, 53
1, 165238, Control_c, 0, 67, 13
1, 165249, Note_on_c, 0, 69, 77
1, 165253, Control_c, 0, 64, 66
1, 165268, Control_c, 0, 64, 65
1, 165276, Note_off_c, 0, 69, 63
1, 165282, Control_c, 0, 64, 63
1, 165282, Control_c, 0, 67, 12
1, 165297, Control_c, 0, 64, 58
1, 165312, Control_c, 0, 64, 52
1, 165342, Control_c, 0, 64, 53
1, 165348, Note_on_c, 0, 60, 76
1, 165357, Control_c, 0, 64, 54
1, 165357, Control_c, 0, 67, 13
1, 165372, Control_c, 0, 64, 54
1, 165402, Note_off_c, 0, 60, 57
1, 165416, Control_c, 0, 64, 52
1, 165416, Control_c, 0, 67, 13
1, 165425, Note_on_c, 0, 59, 61
1, 165430, Control_c, 0, 64, 46
1, 165445, Control_c, 0, 64, 36
1, 165445, Control_c, 0, 67, 14
1, 165460, Control_c, 0, 64, 32
1, 165474, Control_c, 0, 64, 38
1, 165482, Note_off_c, 0, 59, 51
1, 165489, Control_c, 0, 64, 41
1, 165503, Note_on_c, 0, 57, 53
1, 165504, Control_c, 0, 64, 45
1, 165519, Control_c, 0, 64, 51
1, 165524, Note_on_c, 0, 69, 68
1, 165524, Note_on_c, 0, 81, 75
1, 165533, Note_off_c, 0, 57, 64
1, 165534, Control_c, 0, 64, 54
1, 165548, Control_c, 0, 64, 59
1, 165552, Note_off_c, 0, 81, 59
1, 165556, Note_off_c, 0, 69, 64
1, 165563, Control_c, 0, 64, 61
1, 165586, Control_c, 0, 64, 63
1, 165601, Control_c, 0, 64, 64
1, 165615, Control_c, 0, 64, 64
1, 165630, Control_c, 0, 64, 66
1, 165634, Note_on_c, 0, 81, 81
1, 165635, Note_on_c, 0, 48, 69
1, 165645, Control_c, 0, 64, 67
1, 165646, Note_on_c, 0, 69, 54
1, 165660, Control_c, 0, 64, 68
1, 165664, Note_off_c, 0, 69, 63
1, 165671, Note_off_c, 0, 81, 61
1, 165674, Control_c, 0, 64, 68
1, 165689, Control_c, 0, 64, 69
1, 165704, Note_off_c, 0, 48, 63
1, 165704, Control_c, 0, 64, 69
1, 165719, Control_c, 0, 64, 70
1, 165720, Note_on_c, 0, 47, 68
1, 165734, Control_c, 0, 64, 71
1, 165748, Control_c, 0, 64, 72
1, 165763, Control_c, 0, 64, 73
1, 165763, Control_c, 0, 67, 13
1, 165773, Note_on_c, 0, 45, 69
1, 165778, Control_c, 0, 64, 72
1, 165793, Control_c, 0, 64, 71
1, 165807, Control_c, 0, 64, 65
1, 165822, Control_c, 0, 64, 46
1, 165830, Note_off_c, 0, 47, 37
1, 165837, Control_c, 0, 64, 0
1, 165852, Control_c, 0, 64, 28
1, 165852, Control_c, 0, 67, 13
1, 165867, Control_c, 0, 64, 54
1, 165872, Note_on_c, 0, 88, 75
1, 165874, Note_on_c, 0, 36, 76
1, 165878, Note_off_c, 0, 45, 62
1, 165881, Control_c, 0, 64, 62
1, 165884, Note_on_c, 0, 79, 63
1, 165896, Control_c, 0, 64, 65
1, 165900, Note_off_c, 0, 36, 65
1, 165908, Note_off_c, 0, 88, 56
1, 165911, Control_c, 0, 64, 66
1, 165911, Control_c, 0, 67, 13
1, 165926, Control_c, 0, 64, 68
1, 165930, Note_off_c, 0, 79, 60
1, 165941, Control_c, 0, 64, 70
1, 165941, Control_c, 0, 67, 14
1, 165957, Control_c, 0, 64, 71
1, 165959, Note_on_c, 0, 76, 65
1, 165971, Control_c, 0, 64, 72
1, 165971, Control_c, 0, 67, 13
1, 165986, Control_c, 0, 64, 73
1, 165986, Control_c, 0, 67, 13
1, 165996, Note_off_c, 0, 76, 61
1, 166039, Note_on_c, 0, 72, 70
1, 166045, Control_c, 0, 64, 72
1, 166060, Control_c, 0, 64, 68
1, 166075, Control_c, 0, 64, 58
1, 166084, Note_off_c, 0, 72, 62
1, 166090, Control_c, 0, 64, 26
1, 166090, Control_c, 0, 67, 12
1, 166105, Control_c, 0, 64, 39
1, 166105, Control_c, 0, 67, 12
1, 166114, Note_on_c, 0, 79, 91
1, 166120, Control_c, 0, 64, 56
1, 166129, Note_on_c, 0, 43, 75
1, 166135, Control_c, 0, 64, 63
1, 166150, Control_c, 0, 64, 65
1, 166165, Control_c, 0, 64, 67
1, 166166, Note_off_c, 0, 79, 64
1, 166179, Control_c, 0, 64, 69
1, 166179, Control_c, 0, 67, 12
1, 166188, Note_on_c, 0, 67, 83
1, 166194, Control_c, 0, 64, 71
1, 166194, Control_c, 0, 67, 13
1, 166209, Control_c, 0, 64, 73
1, 166210, Note_on_c, 0, 55, 74
1, 166223, Control_c, 0, 64, 75
1, 166223, Control_c, 0, 67, 12
1, 166236, Note_off_c, 0, 43, 51
1, 166237, Note_off_c, 0, 55, 67
1, 166237, Note_off_c, 0, 67, 65
1, 166238, Control_c, 0, 64, 74
1, 166253, Control_c, 0, 64, 71
1, 166268, Control_c, 0, 64, 62
1, 166272, Note_on_c, 0, 64, 85
1, 166283, Control_c, 0, 64, 0
1, 166283, Control_c, 0, 67, 13
1, 166312, Control_c, 0, 64, 29
1, 166312, Control_c, 0, 67, 13
1, 166313, Note_off_c, 0, 64, 63
1, 166334, Control_c, 0, 64, 56
1, 166347, Note_on_c, 0, 36, 70
1, 166349, Control_c, 0, 64, 61
1, 166351, Note_on_c, 0, 72, 93
1, 166364, Control_c, 0, 64, 62
1, 166364, Control_c, 0, 67, 14
1, 166370, Note_off_c, 0, 36, 63
1, 166379, Control_c, 0, 64, 64
1, 166394, Control_c, 0, 64, 66
1, 166409, Control_c, 0, 64, 68
1, 166415, Note_on_c, 0, 60, 86
1, 166423, Control_c, 0, 64, 69
1, 166473, Note_off_c, 0, 60, 62
1, 166483, Control_c, 0, 67, 13
1, 166495, Note_on_c, 0, 68, 76
1, 166498, Control_c, 0, 64, 68
1, 166499, Note_off_c, 0, 72, 64
1, 166512, Control_c, 0, 64, 65
1, 166512, Control_c, 0, 67, 12
1, 166527, Control_c, 0, 64, 57
1, 166527, Control_c, 0, 67, 12
1, 166531, Note_off_c, 0, 68, 65
1, 166542, Control_c, 0, 64, 0
1, 166586, Control_c, 0, 67, 11
1, 166592, Note_on_c, 0, 45, 78
1, 166601, Control_c, 0, 64, 31
1, 166615, Note_on_c, 0, 81, 90
1, 166616, Control_c, 0, 64, 56
1, 166621, Note_off_c, 0, 45, 66
1, 166630, Control_c, 0, 64, 59
1, 166641, Note_on_c, 0, 72, 69
1, 166645, Control_c, 0, 64, 61
1, 166645, Control_c, 0, 67, 12
1, 166660, Control_c, 0, 64, 63
1, 166673, Note_off_c, 0, 81, 59
1, 166675, Control_c, 0, 64, 63
1, 166693, Note_off_c, 0, 72, 64
1, 166697, Note_on_c, 0, 71, 71
1, 166704, Control_c, 0, 64, 63
1, 166734, Control_c, 0, 64, 62
1, 166750, Note_off_c, 0, 71, 61
1, 166750, Control_c, 0, 64, 63
1, 166765, Control_c, 0, 64, 62
1, 166776, Note_on_c, 0, 69, 71
1, 166780, Control_c, 0, 64, 62
1, 166801, Note_off_c, 0, 69, 69
1, 166839, Control_c, 0, 64, 62
1, 166861, Note_on_c, 0, 60, 48
1, 166883, Control_c, 0, 67, 12
1, 166911, Note_off_c, 0, 60, 56
1, 166913, Control_c, 0, 64, 63
1, 166913, Control_c, 0, 67, 13
1, 166943, Control_c, 0, 64, 62
1, 166944, Note_on_c, 0, 59, 63
1, 166957, Control_c, 0, 64, 62
1, 166972, Control_c, 0, 64, 60
1, 166987, Control_c, 0, 64, 53
1, 166988, Note_off_c, 0, 59, 56
1, 167002, Control_c, 0, 64, 39
1, 167017, Control_c, 0, 64, 13
1, 167022, Note_on_c, 0, 57, 50
1, 167032, Control_c, 0, 64, 18
1, 167041, Note_on_c, 0, 81, 81
1, 167045, Note_on_c, 0, 69, 74
1, 167046, Control_c, 0, 64, 32
1, 167048, Note_off_c, 0, 57, 52
1, 167061, Control_c, 0, 64, 40
1, 167061, Control_c, 0, 67, 13
1, 167066, Note_off_c, 0, 81, 60
1, 167071, Note_off_c, 0, 69, 69
1, 167083, Control_c, 0, 64, 47
1, 167098, Control_c, 0, 64, 53
1, 167113, Control_c, 0, 64, 56
1, 167127, Control_c, 0, 64, 59
1, 167127, Control_c, 0, 67, 13
1, 167142, Control_c, 0, 64, 61
1, 167142, Control_c, 0, 67, 13
1, 167145, Note_on_c, 0, 48, 71
1, 167155, Note_on_c, 0, 81, 95
1, 167157, Control_c, 0, 64, 62
1, 167164, Note_on_c, 0, 69, 77
1, 167172, Control_c, 0, 64, 63
1, 167172, Control_c, 0, 67, 14
1, 167187, Note_off_c, 0, 69, 70
1, 167187, Control_c, 0, 64, 64
1, 167202, Control_c, 0, 64, 65
1, 167209, Note_off_c, 0, 48, 61
1, 167214, Note_off_c, 0, 81, 61
1, 167217, Control_c, 0, 64, 66
1, 167232, Control_c, 0, 64, 66
1, 167233, Note_on_c, 0, 47, 65
1, 167246, Control_c, 0, 67, 13
1, 167261, Control_c, 0, 67, 13
1, 167276, Control_c, 0, 64, 67
1, 167280, Note_on_c, 0, 45, 69
1, 167291, Control_c, 0, 67, 12
1, 167306, Control_c, 0, 64, 66
1, 167320, Control_c, 0, 64, 65
1, 167320, Control_c, 0, 67, 12
1, 167335, Control_c, 0, 64, 61
1, 167335, Control_c, 0, 67, 11
1, 167350, Control_c, 0, 64, 43
1, 167365, Control_c, 0, 64, 0
1, 167379, Control_c, 0, 67, 11
1, 167381, Note_off_c, 0, 47, 23
1, 167384, Note_on_c, 0, 40, 76
1, 167386, Note_off_c, 0, 45, 63
1, 167394, Control_c, 0, 64, 36
1, 167397, Note_on_c, 0, 80, 75
1, 167402, Note_on_c, 0, 88, 94
1, 167409, Control_c, 0, 64, 56
1, 167411, Note_off_c, 0, 40, 66
1, 167424, Control_c, 0, 64, 63
1, 167424, Control_c, 0, 67, 11
1, 167439, Control_c, 0, 64, 64
1, 167453, Control_c, 0, 64, 65
1, 167453, Control_c, 0, 67, 12
1, 167468, Control_c, 0, 64, 65
1, 167468, Control_c, 0, 67, 12
1, 167483, Control_c, 0, 64, 66
1, 167483, Control_c, 0, 67, 13
1, 167486, Note_on_c, 0, 78, 83
1, 167515, Note_off_c, 0, 88, 55
1, 167525, Note_off_c, 0, 80, 64
1, 167569, Note_off_c, 0, 78, 64
1, 167572, Note_on_c, 0, 76, 76
1, 167617, Control_c, 0, 64, 65
1, 167617, Control_c, 0, 67, 12
1, 167618, Note_off_c, 0, 76, 64
1, 167632, Control_c, 0, 64, 64
1, 167632, Control_c, 0, 67, 12
1, 167644, Note_on_c, 0, 68, 70
1, 167647, Control_c, 0, 64, 64
1, 167677, Control_c, 0, 64, 64
1, 167707, Control_c, 0, 64, 65
1, 167719, Note_off_c, 0, 68, 61
1, 167723, Note_on_c, 0, 66, 63
1, 167737, Control_c, 0, 64, 64
1, 167751, Control_c, 0, 64, 64
1, 167766, Control_c, 0, 64, 63
1, 167766, Control_c, 0, 67, 11
1, 167781, Control_c, 0, 64, 60
1, 167788, Note_off_c, 0, 66, 65
1, 167792, Note_on_c, 0, 64, 53
1, 167795, Control_c, 0, 64, 53
1, 167810, Control_c, 0, 64, 43
1, 167814, Note_on_c, 0, 88, 81
1, 167814, Note_off_c, 0, 64, 60
1, 167830, Note_on_c, 0, 76, 65
1, 167833, Control_c, 0, 64, 39
1, 167833, Control_c, 0, 67, 12
1, 167848, Control_c, 0, 64, 45
1, 167854, Note_off_c, 0, 76, 62
1, 167858, Note_off_c, 0, 88, 58
1, 167863, Control_c, 0, 64, 53
1, 167877, Control_c, 0, 64, 58
1, 167892, Control_c, 0, 64, 60
1, 167907, Control_c, 0, 64, 62
1, 167922, Control_c, 0, 64, 63
1, 167934, Note_on_c, 0, 56, 70
1, 167937, Control_c, 0, 64, 64
1, 167937, Control_c, 0, 67, 12
1, 167942, Note_on_c, 0, 88, 71
1, 167947, Note_on_c, 0, 76, 69
1, 167951, Control_c, 0, 64, 65
1, 167951, Control_c, 0, 67, 13
1, 167965, Note_off_c, 0, 88, 68
1, 167966, Control_c, 0, 64, 66
1, 168008, Note_on_c, 0, 54, 67
1, 168011, Note_off_c, 0, 56, 60
1, 168025, Control_c, 0, 67, 12
1, 168055, Control_c, 0, 64, 65
1, 168055, Control_c, 0, 67, 12
1, 168069, Note_off_c, 0, 76, 59
1, 168069, Control_c, 0, 64, 63
1, 168075, Note_on_c, 0, 52, 70
1, 168084, Control_c, 0, 64, 55
1, 168099, Control_c, 0, 64, 33
1, 168099, Control_c, 0, 67, 11
1, 168114, Control_c, 0, 64, 0
1, 168129, Control_c, 0, 67, 11
1, 168144, Note_off_c, 0, 54, 33
1, 168159, Control_c, 0, 64, 41
1, 168174, Note_on_c, 0, 45, 86
1, 168174, Control_c, 0, 64, 54
1, 168180, Note_on_c, 0, 81, 90
1, 168185, Note_off_c, 0, 52, 66
1, 168189, Control_c, 0, 64, 60
1, 168189, Control_c, 0, 67, 11
1, 168192, Note_on_c, 0, 72, 73
1, 168198, Note_off_c, 0, 45, 70
1, 168203, Control_c, 0, 64, 62
1, 168218, Control_c, 0, 64, 63
1, 168218, Control_c, 0, 67, 12
1, 168251, Note_off_c, 0, 81, 57
1, 168263, Control_c, 0, 67, 12
1, 168274, Note_off_c, 0, 72, 63
1, 168293, Poly_aftertouch_c, 0, 71, 127
1, 168307, Control_c, 0, 67, 13
1, 168340, Poly_aftertouch_c, 0, 71, 0
1, 168353, Control_c, 0, 64, 63
1, 168363, Note_on_c, 0, 69, 78
1, 168367, Control_c, 0, 64, 61
1, 168382, Control_c, 0, 64, 59
1, 168393, Note_off_c, 0, 69, 64
1, 168397, Control_c, 0, 64, 54
1, 168412, Control_c, 0, 64, 47
1, 168412, Control_c, 0, 67, 12
1, 168426, Control_c, 0, 64, 46
1, 168441, Control_c, 0, 64, 49
1, 168456, Control_c, 0, 64, 52
1, 168460, Note_on_c, 0, 60, 71
1, 168471, Control_c, 0, 64, 57
1, 168486, Control_c, 0, 64, 60
1, 168486, Control_c, 0, 67, 13
1, 168500, Control_c, 0, 64, 62
1, 168504, Note_off_c, 0, 60, 55
1, 168515, Control_c, 0, 64, 61
1, 168530, Control_c, 0, 64, 60
1, 168540, Note_on_c, 0, 59, 57
1, 168545, Control_c, 0, 64, 57
1, 168560, Control_c, 0, 64, 52
1, 168582, Control_c, 0, 64, 50
1, 168593, Note_off_c, 0, 59, 55
1, 168597, Control_c, 0, 64, 55
1, 168609, Note_on_c, 0, 57, 63
1, 168610, Note_on_c, 0, 69, 72
1, 168612, Note_on_c, 0, 81, 80
1, 168612, Control_c, 0, 64, 59
1, 168626, Control_c, 0, 64, 61
1, 168636, Note_off_c, 0, 57, 65
1, 168639, Note_off_c, 0, 69, 64
1, 168641, Control_c, 0, 64, 62
1, 168646, Note_off_c, 0, 81, 57
1, 168656, Control_c, 0, 64, 63
1, 168671, Control_c, 0, 64, 63
1, 168686, Control_c, 0, 64, 64
1, 168700, Control_c, 0, 64, 64
1, 168715, Control_c, 0, 64, 65
1, 168728, Note_on_c, 0, 81, 83
1, 168730, Control_c, 0, 64, 65
1, 168743, Note_on_c, 0, 69, 61
1, 168745, Control_c, 0, 64, 66
1, 168746, Note_on_c, 0, 48, 61
1, 168759, Note_off_c, 0, 69, 66
1, 168760, Control_c, 0, 64, 67
1, 168774, Control_c, 0, 64, 68
1, 168776, Note_off_c, 0, 81, 60
1, 168789, Control_c, 0, 64, 69
1, 168791, Note_off_c, 0, 48, 62
1, 168804, Control_c, 0, 64, 68
1, 168814, Note_on_c, 0, 47, 61
1, 168818, Control_c, 0, 64, 66
1, 168833, Control_c, 0, 64, 64
1, 168848, Control_c, 0, 64, 56
1, 168863, Control_c, 0, 64, 40
1, 168871, Note_on_c, 0, 45, 72
1, 168878, Control_c, 0, 64, 30
1, 168892, Control_c, 0, 64, 37
1, 168907, Control_c, 0, 64, 48
1, 168921, Note_off_c, 0, 47, 52
1, 168922, Control_c, 0, 64, 54
1, 168937, Control_c, 0, 64, 59
1, 168952, Control_c, 0, 64, 62
1, 168957, Note_on_c, 0, 88, 77
1, 168966, Note_off_c, 0, 45, 65
1, 168967, Control_c, 0, 64, 64
1, 168967, Note_on_c, 0, 79, 66
1, 168974, Note_on_c, 0, 36, 62
1, 168981, Control_c, 0, 64, 65
1, 168995, Note_off_c, 0, 88, 62
1, 168996, Control_c, 0, 64, 66
1, 168999, Note_off_c, 0, 36, 59
1, 169011, Control_c, 0, 64, 67
1, 169017, Note_off_c, 0, 79, 61
1, 169041, Control_c, 0, 64, 68
1, 169045, Note_on_c, 0, 76, 65
1, 169074, Note_off_c, 0, 76, 67
1, 169086, Control_c, 0, 64, 67
1, 169100, Control_c, 0, 64, 65
1, 169115, Control_c, 0, 64, 59
1, 169121, Note_on_c, 0, 72, 69
1, 169130, Control_c, 0, 64, 48
1, 169130, Control_c, 0, 67, 12
1, 169145, Control_c, 0, 64, 46
1, 169157, Note_off_c, 0, 72, 62
1, 169160, Control_c, 0, 64, 53
1, 169160, Control_c, 0, 67, 12
1, 169175, Control_c, 0, 64, 59
1, 169189, Control_c, 0, 64, 63
1, 169194, Note_on_c, 0, 79, 88
1, 169204, Control_c, 0, 64, 65
1, 169204, Control_c, 0, 67, 12
1, 169207, Note_on_c, 0, 43, 67
1, 169219, Control_c, 0, 64, 66
1, 169234, Control_c, 0, 64, 67
1, 169247, Note_off_c, 0, 79, 64
1, 169248, Control_c, 0, 64, 67
1, 169248, Control_c, 0, 67, 13
1, 169263, Control_c, 0, 64, 68
1, 169269, Note_on_c, 0, 67, 83
1, 169278, Control_c, 0, 64, 70
1, 169280, Note_on_c, 0, 55, 76
1, 169293, Control_c, 0, 64, 71
1, 169306, Note_off_c, 0, 43, 37
1, 169306, Note_off_c, 0, 55, 69
1, 169326, Note_off_c, 0, 67, 65
1, 169330, Control_c, 0, 64, 70
1, 169345, Control_c, 0, 64, 67
1, 169345, Control_c, 0, 67, 13
1, 169360, Control_c, 0, 64, 61
1, 169360, Control_c, 0, 67, 14
1, 169367, Note_on_c, 0, 64, 77
1, 169374, Control_c, 0, 64, 40
1, 169389, Control_c, 0, 64, 34
1, 169404, Control_c, 0, 64, 50
1, 169408, Note_on_c, 0, 36, 74
1, 169414, Note_off_c, 0, 64, 62
1, 169419, Control_c, 0, 64, 58
1, 169426, Note_on_c, 0, 72, 92
1, 169434, Control_c, 0, 64, 62
1, 169438, Note_off_c, 0, 36, 65
1, 169448, Control_c, 0, 64, 64
1, 169463, Control_c, 0, 64, 65
1, 169478, Control_c, 0, 64, 67
1, 169478, Control_c, 0, 67, 14
1, 169493, Control_c, 0, 64, 68
1, 169493, Control_c, 0, 67, 15
1, 169497, Note_on_c, 0, 60, 89
1, 169508, Control_c, 0, 64, 68
1, 169508, Control_c, 0, 67, 14
1, 169537, Control_c, 0, 64, 69
1, 169537, Control_c, 0, 67, 14
1, 169548, Note_off_c, 0, 60, 62
1, 169552, Control_c, 0, 64, 69
1, 169566, Note_on_c, 0, 68, 82
1, 169566, Control_c, 0, 64, 70
1, 169566, Control_c, 0, 67, 13
1, 169584, Note_off_c, 0, 72, 63
1, 169589, Note_on_c, 0, 70, 43
1, 169589, Note_off_c, 0, 68, 71
1, 169596, Control_c, 0, 64, 68
1, 169611, Control_c, 0, 64, 61
1, 169616, Note_off_c, 0, 70, 35
1, 169626, Control_c, 0, 64, 0
1, 169640, Control_c, 0, 67, 13
1, 169670, Note_on_c, 0, 45, 91
1, 169685, Control_c, 0, 64, 38
1, 169685, Control_c, 0, 67, 12
1, 169691, Note_off_c, 0, 45, 69
1, 169700, Control_c, 0, 64, 59
1, 169712, Note_on_c, 0, 93, 97
1, 169715, Control_c, 0, 64, 61
1, 169715, Control_c, 0, 67, 13
1, 169730, Control_c, 0, 67, 13
1, 169739, Note_on_c, 0, 85, 69
1, 169745, Control_c, 0, 67, 14
1, 169759, Control_c, 0, 64, 60
1, 169770, Note_off_c, 0, 93, 58
1, 169774, Control_c, 0, 64, 61
1, 169789, Control_c, 0, 64, 61
1, 169789, Control_c, 0, 67, 13
1, 169802, Note_off_c, 0, 85, 65
1, 169808, Note_on_c, 0, 83, 74
1, 169816, Poly_aftertouch_c, 0, 45, 0
1, 169819, Control_c, 0, 64, 61
1, 169834, Control_c, 0, 64, 60
1, 169848, Control_c, 0, 64, 59
1, 169848, Control_c, 0, 67, 14
1, 169855, Note_off_c, 0, 83, 55
1, 169863, Control_c, 0, 64, 59
1, 169873, Note_on_c, 0, 81, 80
1, 169897, Note_off_c, 0, 81, 61
1, 169908, Control_c, 0, 64, 58
1, 169922, Control_c, 0, 64, 57
1, 169938, Control_c, 0, 64, 54
1, 169953, Control_c, 0, 64, 52
1, 169971, Note_on_c, 0, 73, 60
1, 169983, Control_c, 0, 67, 14
1, 169997, Control_c, 0, 67, 15
1, 170028, Note_off_c, 0, 73, 62
1, 170042, Control_c, 0, 64, 52
1, 170047, Note_on_c, 0, 71, 55
1, 170057, Control_c, 0, 64, 49
1, 170057, Control_c, 0, 67, 14
1, 170078, Control_c, 0, 64, 44
1, 170093, Control_c, 0, 64, 41
1, 170093, Control_c, 0, 67, 14
1, 170094, Note_off_c, 0, 71, 62
1, 170113, Note_on_c, 0, 69, 44
1, 170123, Control_c, 0, 64, 44
1, 170123, Control_c, 0, 67, 14
1, 170138, Control_c, 0, 64, 46
1, 170138, Control_c, 0, 67, 15
1, 170139, Note_off_c, 0, 69, 49
1, 170143, Note_on_c, 0, 81, 65
1, 170143, Note_on_c, 0, 93, 72
1, 170153, Control_c, 0, 64, 49
1, 170168, Note_off_c, 0, 93, 67
1, 170168, Control_c, 0, 64, 53
1, 170176, Note_off_c, 0, 81, 59
1, 170183, Control_c, 0, 64, 56
1, 170183, Control_c, 0, 67, 14
1, 170197, Control_c, 0, 64, 59
1, 170212, Control_c, 0, 64, 60
1, 170227, Control_c, 0, 64, 61
1, 170227, Control_c, 0, 67, 15
1, 170242, Control_c, 0, 64, 61
1, 170254, Note_on_c, 0, 93, 80
1, 170256, Note_on_c, 0, 81, 74
1, 170257, Control_c, 0, 64, 62
1, 170257, Control_c, 0, 67, 15
1, 170260, Note_on_c, 0, 61, 57
1, 170271, Control_c, 0, 64, 63
1, 170275, Note_off_c, 0, 93, 64
1, 170286, Control_c, 0, 64, 63
1, 170299, Note_off_c, 0, 61, 60
1, 170301, Control_c, 0, 67, 15
1, 170331, Control_c, 0, 67, 14
1, 170332, Note_on_c, 0, 59, 62
1, 170360, Control_c, 0, 64, 63
1, 170375, Control_c, 0, 64, 62
1, 170375, Control_c, 0, 67, 13
1, 170384, Note_off_c, 0, 81, 50
1, 170386, Note_on_c, 0, 57, 59
1, 170389, Control_c, 0, 64, 58
1, 170389, Control_c, 0, 67, 13
1, 170404, Control_c, 0, 64, 51
1, 170404, Control_c, 0, 67, 12
1, 170419, Control_c, 0, 64, 39
1, 170419, Control_c, 0, 67, 12
1, 170434, Control_c, 0, 64, 37
1, 170449, Control_c, 0, 64, 42
1, 170449, Control_c, 0, 67, 11
1, 170463, Control_c, 0, 64, 48
1, 170478, Control_c, 0, 64, 55
1, 170478, Control_c, 0, 67, 12
1, 170481, Note_on_c, 0, 50, 88
1, 170485, Note_off_c, 0, 57, 62
1, 170486, Note_off_c, 0, 59, 61
1, 170493, Control_c, 0, 64, 59
1, 170502, Note_on_c, 0, 89, 79
1, 170502, Note_off_c, 0, 50, 71
1, 170508, Note_on_c, 0, 81, 80
1, 170508, Control_c, 0, 64, 60
1, 170508, Control_c, 0, 67, 12
1, 170523, Control_c, 0, 67, 13
1, 170538, Control_c, 0, 64, 60
1, 170552, Control_c, 0, 64, 60
1, 170559, Note_off_c, 0, 89, 64
1, 170567, Control_c, 0, 67, 13
1, 170580, Note_off_c, 0, 81, 59
1, 170582, Control_c, 0, 64, 61
1, 170582, Control_c, 0, 67, 14
1, 170590, Note_on_c, 0, 79, 74
1, 170612, Control_c, 0, 64, 60
1, 170612, Control_c, 0, 67, 14
1, 170642, Control_c, 0, 67, 15
1, 170648, Note_off_c, 0, 79, 61
1, 170657, Control_c, 0, 64, 60
1, 170674, Note_on_c, 0, 77, 75
1, 170687, Control_c, 0, 64, 59
1, 170701, Control_c, 0, 67, 14
1, 170710, Note_off_c, 0, 77, 62
1, 170716, Control_c, 0, 64, 59
1, 170759, Note_on_c, 0, 69, 84
1, 170776, Control_c, 0, 67, 15
1, 170828, Note_off_c, 0, 69, 59
1, 170843, Control_c, 0, 64, 58
1, 170844, Note_on_c, 0, 67, 82
1, 170902, Control_c, 0, 64, 59
1, 170912, Note_off_c, 0, 67, 61
1, 170917, Control_c, 0, 64, 59
1, 170917, Control_c, 0, 67, 15
1, 170922, Note_on_c, 0, 86, 75
1, 170923, Note_on_c, 0, 74, 69
1, 170934, Note_on_c, 0, 65, 52
1, 170947, Control_c, 0, 64, 60
1, 170959, Note_off_c, 0, 65, 37
1, 170962, Control_c, 0, 64, 60
1, 170962, Control_c, 0, 67, 15
1, 170964, Note_off_c, 0, 86, 63
1, 170965, Note_off_c, 0, 74, 65
1, 170976, Control_c, 0, 64, 61
1, 170991, Control_c, 0, 64, 61
1, 171020, Control_c, 0, 64, 62
1, 171020, Control_c, 0, 67, 15
1, 171035, Control_c, 0, 64, 63
1, 171038, Note_on_c, 0, 57, 72
1, 171038, Note_on_c, 0, 86, 79
1, 171048, Note_on_c, 0, 74, 57
1, 171050, Control_c, 0, 64, 63
1, 171080, Note_off_c, 0, 74, 57
1, 171080, Control_c, 0, 64, 64
1, 171098, Note_off_c, 0, 57, 61
1, 171110, Control_c, 0, 64, 64
1, 171113, Note_on_c, 0, 55, 68
1, 171125, Control_c, 0, 64, 65
1, 171125, Control_c, 0, 67, 15
1, 171133, Note_off_c, 0, 86, 58
1, 171154, Control_c, 0, 64, 66
1, 171167, Note_on_c, 0, 53, 73
1, 171199, Control_c, 0, 64, 65
1, 171199, Control_c, 0, 67, 14
1, 171208, Note_off_c, 0, 55, 61
1, 171214, Control_c, 0, 64, 63
1, 171214, Control_c, 0, 67, 14
1, 171228, Note_off_c, 0, 53, 64
1, 171228, Control_c, 0, 64, 53
1, 171228, Control_c, 0, 67, 13
1, 171243, Control_c, 0, 64, 16
1, 171243, Control_c, 0, 67, 13
1, 171258, Control_c, 0, 64, 0
1, 171258, Control_c, 0, 67, 13
1, 171273, Control_c, 0, 67, 14
1, 171286, Note_on_c, 0, 43, 85
1, 171287, Control_c, 0, 64, 16
1, 171291, Note_on_c, 0, 83, 76
1, 171292, Note_on_c, 0, 91, 88
1, 171302, Control_c, 0, 64, 47
1, 171306, Note_off_c, 0, 43, 65
1, 171317, Control_c, 0, 64, 58
1, 171332, Control_c, 0, 64, 61
1, 171332, Control_c, 0, 67, 14
1, 171346, Control_c, 0, 64, 62
1, 171346, Control_c, 0, 67, 15
1, 171351, Note_off_c, 0, 91, 57
1, 171361, Control_c, 0, 64, 62
1, 171369, Note_off_c, 0, 83, 59
1, 171377, Note_on_c, 0, 81, 76
1, 171391, Control_c, 0, 67, 15
1, 171406, Control_c, 0, 64, 63
1, 171435, Note_off_c, 0, 81, 61
1, 171450, Control_c, 0, 64, 62
1, 171453, Note_on_c, 0, 79, 74
1, 171465, Control_c, 0, 64, 62
1, 171488, Note_off_c, 0, 79, 57
1, 171575, Note_on_c, 0, 71, 63
1, 171592, Control_c, 0, 67, 15
1, 171627, Note_off_c, 0, 71, 55
1, 171649, Note_on_c, 0, 69, 65
1, 171666, Control_c, 0, 64, 61
1, 171681, Control_c, 0, 64, 60
1, 171696, Control_c, 0, 64, 56
1, 171696, Control_c, 0, 67, 15
1, 171700, Note_off_c, 0, 69, 53
1, 171711, Control_c, 0, 64, 52
1, 171725, Control_c, 0, 64, 50
1, 171727, Note_on_c, 0, 91, 72
1, 171733, Note_on_c, 0, 67, 44
1, 171736, Note_on_c, 0, 79, 54
1, 171740, Control_c, 0, 64, 51
1, 171751, Note_off_c, 0, 91, 62
1, 171755, Control_c, 0, 64, 53
1, 171761, Note_off_c, 0, 67, 52
1, 171762, Note_off_c, 0, 79, 54
1, 171769, Control_c, 0, 64, 55
1, 171784, Control_c, 0, 64, 57
1, 171799, Control_c, 0, 64, 60
1, 171814, Control_c, 0, 64, 62
1, 171829, Control_c, 0, 64, 63
1, 171843, Control_c, 0, 64, 64
1, 171856, Note_on_c, 0, 79, 62
1, 171857, Note_on_c, 0, 91, 64
1, 171870, Note_on_c, 0, 59, 50
1, 171873, Control_c, 0, 64, 64
1, 171883, Note_off_c, 0, 91, 64
1, 171888, Control_c, 0, 64, 65
1, 171903, Control_c, 0, 64, 65
1, 171918, Control_c, 0, 64, 66
1, 171918, Control_c, 0, 67, 15
1, 171923, Note_off_c, 0, 59, 56
1, 171936, Note_on_c, 0, 57, 55
1, 171962, Control_c, 0, 64, 65
1, 171977, Control_c, 0, 64, 64
1, 171992, Control_c, 0, 64, 61
1, 171992, Control_c, 0, 67, 14
1, 172007, Control_c, 0, 64, 53
1, 172007, Control_c, 0, 67, 14
1, 172011, Note_on_c, 0, 55, 59
1, 172022, Control_c, 0, 64, 42
1, 172036, Control_c, 0, 64, 39
1, 172042, Note_off_c, 0, 79, 33
1, 172043, Note_off_c, 0, 57, 38
1, 172051, Control_c, 0, 64, 42
1, 172066, Control_c, 0, 64, 48
1, 172081, Control_c, 0, 64, 54
1, 172088, Note_off_c, 0, 55, 64
1, 172096, Control_c, 0, 64, 59
1, 172097, Note_on_c, 0, 48, 72
1, 172111, Control_c, 0, 64, 62
1, 172117, Note_on_c, 0, 88, 71
1, 172123, Note_off_c, 0, 48, 67
1, 172125, Control_c, 0, 64, 64
1, 172132, Note_on_c, 0, 79, 67
1, 172169, Control_c, 0, 67, 14
1, 172171, Note_off_c, 0, 88, 61
1, 172184, Control_c, 0, 67, 15
1, 172185, Note_off_c, 0, 79, 59
1, 172206, Note_on_c, 0, 77, 70
1, 172229, Control_c, 0, 67, 15
1, 172243, Control_c, 0, 64, 63
1, 172249, Note_off_c, 0, 77, 61
1, 172281, Note_on_c, 0, 76, 72
1, 172303, Control_c, 0, 64, 63
1, 172303, Control_c, 0, 67, 15
1, 172324, Note_off_c, 0, 76, 62
1, 172340, Control_c, 0, 64, 62
1, 172371, Control_c, 0, 64, 63
1, 172373, Note_on_c, 0, 67, 81
1, 172400, Control_c, 0, 67, 14
1, 172430, Control_c, 0, 67, 14
1, 172434, Note_off_c, 0, 67, 59
1, 172442, Note_on_c, 0, 65, 80
1, 172460, Control_c, 0, 64, 63
1, 172474, Control_c, 0, 67, 13
1, 172516, Note_on_c, 0, 72, 87
1, 172517, Note_on_c, 0, 64, 71
1, 172517, Note_on_c, 0, 84, 90
1, 172517, Note_off_c, 0, 65, 65
1, 172534, Control_c, 0, 64, 64
1, 172540, Note_off_c, 0, 64, 69
1, 172549, Note_off_c, 0, 72, 67
1, 172558, Note_on_c, 0, 82, 26
1, 172561, Note_off_c, 0, 84, 64
1, 172562, Note_off_c, 0, 82, 48
1, 172563, Control_c, 0, 64, 63
1, 172563, Control_c, 0, 67, 13
1, 172592, Control_c, 0, 64, 64
1, 172592, Control_c, 0, 67, 13
1, 172607, Control_c, 0, 67, 14
1, 172622, Control_c, 0, 64, 64
1, 172622, Control_c, 0, 67, 15
1, 172626, Note_on_c, 0, 84, 103
1, 172628, Note_on_c, 0, 55, 89
1, 172628, Note_on_c, 0, 72, 102
1, 172637, Control_c, 0, 64, 65
1, 172637, Control_c, 0, 67, 15
1, 172652, Control_c, 0, 64, 66
1, 172652, Control_c, 0, 67, 16
1, 172666, Control_c, 0, 64, 67
1, 172666, Control_c, 0, 67, 16
1, 172668, Note_off_c, 0, 72, 61
1, 172681, Control_c, 0, 64, 68
1, 172681, Control_c, 0, 67, 17
1, 172683, Note_off_c, 0, 55, 65
1, 172696, Control_c, 0, 64, 69
1, 172696, Control_c, 0, 67, 17
1, 172703, Note_on_c, 0, 53, 63
1, 172711, Control_c, 0, 64, 70
1, 172711, Control_c, 0, 67, 18
1, 172712, Note_off_c, 0, 84, 56
1, 172726, Control_c, 0, 64, 70
1, 172726, Control_c, 0, 67, 18
1, 172740, Control_c, 0, 64, 71
1, 172745, Note_on_c, 0, 52, 73
1, 172749, Note_off_c, 0, 53, 63
1, 172755, Control_c, 0, 67, 18
1, 172770, Control_c, 0, 67, 17
1, 172773, Note_off_c, 0, 52, 69
1, 172785, Control_c, 0, 64, 70
1, 172785, Control_c, 0, 67, 16
1, 172800, Control_c, 0, 64, 68
1, 172800, Control_c, 0, 67, 15
1, 172815, Control_c, 0, 64, 65
1, 172815, Control_c, 0, 67, 15
1, 172830, Control_c, 0, 64, 51
1, 172845, Control_c, 0, 64, 0
1, 172845, Control_c, 0, 67, 14
1, 172874, Control_c, 0, 67, 15
1, 172875, Note_on_c, 0, 89, 76
1, 172880, Note_on_c, 0, 38, 75
1, 172889, Control_c, 0, 64, 10
1, 172893, Note_on_c, 0, 81, 61
1, 172903, Note_off_c, 0, 38, 64
1, 172904, Control_c, 0, 64, 45
1, 172917, Control_c, 0, 64, 56
1, 172917, Control_c, 0, 67, 15
1, 172928, Note_off_c, 0, 89, 63
1, 172932, Control_c, 0, 64, 59
1, 172946, Control_c, 0, 64, 61
1, 172958, Note_off_c, 0, 81, 61
1, 172961, Control_c, 0, 64, 62
1, 172969, Note_on_c, 0, 79, 62
1, 173006, Note_off_c, 0, 79, 58
1, 173036, Control_c, 0, 64, 62
1, 173044, Note_on_c, 0, 77, 74
1, 173087, Control_c, 0, 64, 62
1, 173094, Note_off_c, 0, 77, 60
1, 173102, Control_c, 0, 67, 15
1, 173148, Control_c, 0, 64, 62
1, 173148, Control_c, 0, 67, 14
1, 173152, Note_on_c, 0, 69, 75
1, 173162, Control_c, 0, 67, 14
1, 173177, Control_c, 0, 64, 63
1, 173210, Note_off_c, 0, 69, 61
1, 173215, Note_on_c, 0, 67, 73
1, 173236, Control_c, 0, 64, 62
1, 173251, Control_c, 0, 64, 62
1, 173285, Note_off_c, 0, 67, 59
1, 173295, Control_c, 0, 64, 62
1, 173296, Note_on_c, 0, 65, 66
1, 173301, Note_on_c, 0, 83, 94
1, 173302, Note_on_c, 0, 71, 93
1, 173310, Control_c, 0, 64, 63
1, 173310, Control_c, 0, 67, 14
1, 173316, Note_off_c, 0, 65, 67
1, 173335, Note_off_c, 0, 71, 64
1, 173342, Note_off_c, 0, 83, 63
1, 173369, Control_c, 0, 64, 63
1, 173369, Control_c, 0, 67, 15
1, 173384, Control_c, 0, 64, 64
1, 173399, Control_c, 0, 64, 64
1, 173399, Control_c, 0, 67, 15
1, 173410, Note_on_c, 0, 57, 83
1, 173411, Note_on_c, 0, 83, 99
1, 173414, Note_on_c, 0, 71, 100
1, 173414, Control_c, 0, 64, 65
1, 173414, Control_c, 0, 67, 16
1, 173429, Control_c, 0, 64, 66
1, 173429, Control_c, 0, 67, 17
1, 173442, Note_on_c, 0, 80, 51
1, 173444, Control_c, 0, 64, 66
1, 173444, Control_c, 0, 67, 17
1, 173459, Control_c, 0, 64, 67
1, 173462, Note_off_c, 0, 71, 58
1, 173466, Note_off_c, 0, 80, 38
1, 173468, Note_off_c, 0, 57, 61
1, 173474, Control_c, 0, 64, 67
1, 173480, Note_off_c, 0, 83, 62
1, 173484, Note_on_c, 0, 55, 73
1, 173488, Control_c, 0, 64, 68
1, 173503, Control_c, 0, 67, 17
1, 173515, Note_off_c, 0, 55, 67
1, 173518, Control_c, 0, 64, 68
1, 173518, Control_c, 0, 67, 16
1, 173525, Note_on_c, 0, 53, 71
1, 173532, Control_c, 0, 64, 69
1, 173545, Note_off_c, 0, 53, 68
1, 173547, Control_c, 0, 64, 69
1, 173547, Control_c, 0, 67, 16
1, 173559, Note_on_c, 0, 80, 32
1, 173562, Control_c, 0, 64, 70
1, 173577, Control_c, 0, 67, 15
1, 173592, Control_c, 0, 64, 69
1, 173593, Note_off_c, 0, 80, 52
1, 173606, Control_c, 0, 64, 67
1, 173621, Control_c, 0, 64, 63
1, 173636, Control_c, 0, 64, 50
1, 173651, Control_c, 0, 64, 32
1, 173657, Note_on_c, 0, 36, 80
1, 173661, Note_on_c, 0, 88, 82
1, 173666, Control_c, 0, 64, 44
1, 173666, Control_c, 0, 67, 15
1, 173678, Note_on_c, 0, 81, 73
1, 173680, Control_c, 0, 64, 56
1, 173685, Note_off_c, 0, 36, 66
1, 173695, Control_c, 0, 64, 61
1, 173695, Control_c, 0, 67, 15
1, 173710, Control_c, 0, 64, 63
1, 173718, Note_off_c, 0, 88, 63
1, 173725, Control_c, 0, 64, 64
1, 173730, Note_off_c, 0, 81, 56
1, 173739, Control_c, 0, 64, 64
1, 173739, Control_c, 0, 67, 16
1, 173754, Control_c, 0, 64, 65
1, 173754, Control_c, 0, 67, 16
1, 173755, Note_on_c, 0, 77, 69
1, 173784, Control_c, 0, 67, 16
1, 173793, Note_off_c, 0, 77, 56
1, 173834, Note_on_c, 0, 76, 74
1, 173836, Control_c, 0, 64, 65
1, 173836, Control_c, 0, 67, 15
1, 173851, Control_c, 0, 64, 66
1, 173859, Note_off_c, 0, 76, 68
1, 173881, Control_c, 0, 64, 65
1, 173895, Control_c, 0, 64, 64
1, 173895, Control_c, 0, 67, 15
1, 173910, Control_c, 0, 64, 60
1, 173924, Note_on_c, 0, 69, 79
1, 173925, Control_c, 0, 64, 55
1, 173925, Control_c, 0, 67, 14
1, 173941, Control_c, 0, 64, 49
1, 173941, Control_c, 0, 67, 14
1, 173956, Control_c, 0, 64, 44
1, 173971, Control_c, 0, 64, 43
1, 173976, Note_off_c, 0, 69, 61
1, 173995, Note_on_c, 0, 65, 68
1, 174000, Control_c, 0, 64, 43
1, 174000, Control_c, 0, 67, 14
1, 174015, Control_c, 0, 64, 42
1, 174015, Control_c, 0, 67, 15
1, 174030, Control_c, 0, 64, 41
1, 174036, Note_off_c, 0, 65, 56
1, 174059, Control_c, 0, 64, 42
1, 174063, Note_on_c, 0, 81, 79
1, 174070, Note_on_c, 0, 69, 65
1, 174070, Note_on_c, 0, 64, 60
1, 174074, Control_c, 0, 64, 46
1, 174089, Control_c, 0, 64, 50
1, 174091, Note_off_c, 0, 64, 64
1, 174095, Note_off_c, 0, 81, 55
1, 174103, Note_off_c, 0, 69, 65
1, 174104, Control_c, 0, 64, 54
1, 174118, Control_c, 0, 64, 57
1, 174133, Control_c, 0, 64, 60
1, 174148, Control_c, 0, 64, 62
1, 174162, Control_c, 0, 64, 63
1, 174177, Control_c, 0, 64, 64
1, 174186, Note_on_c, 0, 57, 67
1, 174192, Control_c, 0, 64, 64
1, 174194, Note_on_c, 0, 81, 74
1, 174207, Control_c, 0, 64, 65
1, 174210, Note_off_c, 0, 81, 66
1, 174222, Control_c, 0, 64, 66
1, 174237, Note_on_c, 0, 69, 13
1, 174237, Control_c, 0, 64, 67
1, 174252, Control_c, 0, 64, 67
1, 174253, Note_off_c, 0, 57, 58
1, 174267, Control_c, 0, 64, 68
1, 174274, Note_on_c, 0, 53, 59
1, 174286, Note_off_c, 0, 69, 34
1, 174311, Note_off_c, 0, 53, 67
1, 174311, Control_c, 0, 64, 66
1, 174326, Control_c, 0, 64, 63
1, 174326, Note_on_c, 0, 52, 59
1, 174341, Control_c, 0, 64, 52
1, 174349, Note_off_c, 0, 52, 62
1, 174355, Control_c, 0, 64, 0
1, 174355, Control_c, 0, 67, 15
1, 174416, Control_c, 0, 64, 41
1, 174430, Control_c, 0, 64, 57
1, 174438, Note_on_c, 0, 41, 81
1, 174445, Control_c, 0, 64, 63
1, 174448, Note_on_c, 0, 77, 77
1, 174460, Control_c, 0, 64, 64
1, 174475, Control_c, 0, 64, 65
1, 174478, Note_off_c, 0, 77, 57
1, 174480, Note_off_c, 0, 41, 66
1, 174490, Control_c, 0, 64, 66
1, 174504, Control_c, 0, 64, 66
1, 174509, Note_on_c, 0, 65, 62
1, 174531, Note_on_c, 0, 53, 56
1, 174534, Control_c, 0, 64, 66
1, 174534, Control_c, 0, 67, 15
1, 174549, Control_c, 0, 64, 65
1, 174565, Note_off_c, 0, 65, 64
1, 174571, Control_c, 0, 64, 64
1, 174585, Note_off_c, 0, 53, 63
1, 174586, Control_c, 0, 64, 59
1, 174600, Control_c, 0, 64, 45
1, 174611, Note_on_c, 0, 52, 51
1, 174612, Note_on_c, 0, 64, 63
1, 174615, Control_c, 0, 64, 13
1, 174615, Control_c, 0, 67, 15
1, 174630, Control_c, 0, 64, 0
1, 174637, Note_off_c, 0, 52, 52
1, 174642, Note_off_c, 0, 64, 67
1, 174660, Control_c, 0, 64, 16
1, 174660, Control_c, 0, 67, 15
1, 174675, Control_c, 0, 64, 45
1, 174690, Control_c, 0, 64, 59
1, 174705, Control_c, 0, 64, 64
1, 174707, Note_on_c, 0, 74, 84
1, 174710, Note_on_c, 0, 38, 77
1, 174719, Control_c, 0, 64, 66
1, 174735, Control_c, 0, 64, 67
1, 174735, Control_c, 0, 67, 15
1, 174745, Note_off_c, 0, 38, 62
1, 174750, Control_c, 0, 64, 68
1, 174764, Note_on_c, 0, 40, 12
1, 174764, Control_c, 0, 67, 15
1, 174769, Note_off_c, 0, 74, 57
1, 174773, Note_on_c, 0, 50, 63
1, 174777, Note_on_c, 0, 62, 78
1, 174794, Control_c, 0, 64, 67
1, 174803, Note_off_c, 0, 50, 65
1, 174812, Note_off_c, 0, 40, 38
1, 174839, Control_c, 0, 64, 66
1, 174845, Note_off_c, 0, 62, 57
1, 174854, Control_c, 0, 64, 64
1, 174854, Control_c, 0, 67, 15
1, 174857, Note_on_c, 0, 65, 74
1, 174868, Control_c, 0, 64, 57
1, 174869, Note_on_c, 0, 53, 48
1, 174883, Control_c, 0, 64, 34
1, 174884, Note_off_c, 0, 65, 69
1, 174898, Note_off_c, 0, 53, 35
1, 174898, Control_c, 0, 64, 0
1, 174913, Control_c, 0, 67, 15
1, 174942, Control_c, 0, 64, 46
1, 174957, Control_c, 0, 64, 60
1, 174964, Note_on_c, 0, 76, 87
1, 174971, Note_on_c, 0, 41, 51
1, 174972, Control_c, 0, 64, 64
1, 174972, Control_c, 0, 67, 15
1, 174973, Note_on_c, 0, 40, 64
1, 174986, Control_c, 0, 64, 66
1, 174997, Note_off_c, 0, 40, 59
1, 175001, Control_c, 0, 64, 67
1, 175004, Note_off_c, 0, 41, 65
1, 175016, Control_c, 0, 64, 68
1, 175025, Note_on_c, 0, 64, 76
1, 175031, Control_c, 0, 64, 68
1, 175034, Note_on_c, 0, 52, 37
1, 175060, Control_c, 0, 64, 68
1, 175068, Note_off_c, 0, 52, 33
1, 175075, Control_c, 0, 64, 66
1, 175090, Control_c, 0, 64, 63
1, 175097, Note_off_c, 0, 64, 62
1, 175098, Note_off_c, 0, 76, 59
1, 175103, Note_on_c, 0, 68, 71
1, 175105, Control_c, 0, 64, 51
1, 175105, Control_c, 0, 67, 16
1, 175120, Control_c, 0, 64, 0
1, 175125, Note_on_c, 0, 56, 27
1, 175129, Note_off_c, 0, 68, 68
1, 175149, Control_c, 0, 67, 15
1, 175161, Note_off_c, 0, 56, 31
1, 175164, Control_c, 0, 64, 42
1, 175179, Control_c, 0, 64, 58
1, 175194, Control_c, 0, 64, 63
1, 175204, Note_on_c, 0, 47, 86
1, 175206, Note_on_c, 0, 81, 97
1, 175209, Control_c, 0, 64, 66
1, 175223, Control_c, 0, 64, 67
1, 175238, Control_c, 0, 64, 69
1, 175241, Note_off_c, 0, 47, 66
1, 175253, Control_c, 0, 64, 70
1, 175268, Control_c, 0, 64, 71
1, 175271, Note_off_c, 0, 81, 59
1, 175276, Note_on_c, 0, 69, 75
1, 175279, Note_on_c, 0, 59, 43
1, 175298, Control_c, 0, 64, 70
1, 175298, Control_c, 0, 67, 15
1, 175315, Note_off_c, 0, 59, 52
1, 175320, Control_c, 0, 64, 68
1, 175334, Control_c, 0, 64, 65
1, 175344, Note_off_c, 0, 69, 64
1, 175349, Control_c, 0, 64, 55
1, 175362, Note_on_c, 0, 71, 71
1, 175364, Control_c, 0, 64, 16
1, 175379, Control_c, 0, 64, 0
1, 175379, Control_c, 0, 67, 15
1, 175385, Note_off_c, 0, 71, 67
1, 175408, Control_c, 0, 64, 38
1, 175408, Control_c, 0, 67, 15
1, 175423, Control_c, 0, 64, 56
1, 175438, Control_c, 0, 64, 62
1, 175453, Note_on_c, 0, 48, 84
1, 175453, Control_c, 0, 64, 64
1, 175459, Note_on_c, 0, 84, 92
1, 175468, Control_c, 0, 64, 66
1, 175477, Note_off_c, 0, 48, 70
1, 175483, Control_c, 0, 64, 68
1, 175498, Control_c, 0, 64, 70
1, 175512, Control_c, 0, 64, 72
1, 175525, Note_on_c, 0, 72, 72
1, 175527, Control_c, 0, 64, 72
1, 175543, Control_c, 0, 64, 73
1, 175600, Note_off_c, 0, 84, 34
1, 175602, Control_c, 0, 64, 71
1, 175603, Note_off_c, 0, 72, 63
1, 175604, Note_on_c, 0, 75, 76
1, 175617, Control_c, 0, 64, 66
1, 175626, Note_off_c, 0, 75, 71
1, 175632, Control_c, 0, 64, 52
1, 175647, Control_c, 0, 64, 0
1, 175662, Control_c, 0, 67, 14
1, 175677, Control_c, 0, 64, 46
1, 175677, Control_c, 0, 67, 14
1, 175691, Control_c, 0, 64, 61
1, 175692, Note_on_c, 0, 88, 79
1, 175693, Note_on_c, 0, 89, 88
1, 175700, Note_on_c, 0, 53, 69
1, 175706, Control_c, 0, 64, 65
1, 175721, Control_c, 0, 64, 67
1, 175726, Note_off_c, 0, 89, 66
1, 175727, Note_off_c, 0, 53, 68
1, 175736, Control_c, 0, 64, 69
1, 175736, Control_c, 0, 67, 14
1, 175751, Control_c, 0, 64, 70
1, 175757, Note_on_c, 0, 76, 79
1, 175765, Control_c, 0, 64, 72
1, 175765, Control_c, 0, 67, 15
1, 175780, Control_c, 0, 64, 73
1, 175795, Control_c, 0, 64, 74
1, 175809, Control_c, 0, 64, 75
1, 175824, Control_c, 0, 64, 76
1, 175826, Note_off_c, 0, 76, 62
1, 175832, Note_on_c, 0, 80, 68
1, 175839, Control_c, 0, 64, 76
1, 175842, Note_off_c, 0, 88, 58
1, 175849, Note_off_c, 0, 80, 65
1, 175854, Control_c, 0, 67, 15
1, 175885, Poly_aftertouch_c, 0, 68, 127
1, 175898, Control_c, 0, 64, 76
1, 175898, Control_c, 0, 67, 15
1, 175901, Poly_aftertouch_c, 0, 68, 0
1, 175912, Control_c, 0, 64, 73
1, 175927, Control_c, 0, 64, 64
1, 175942, Control_c, 0, 64, 0
1, 175977, Note_on_c, 0, 47, 93
1, 175987, Control_c, 0, 67, 15
1, 175987, Note_on_c, 0, 85, 85
1, 175990, Note_on_c, 0, 93, 84
1, 175996, Note_off_c, 0, 47, 69
1, 176006, Note_on_c, 0, 91, 65
1, 176016, Control_c, 0, 64, 60
1, 176031, Control_c, 0, 64, 64
1, 176031, Control_c, 0, 67, 16
1, 176031, Note_off_c, 0, 91, 38
1, 176046, Control_c, 0, 64, 64
1, 176061, Note_off_c, 0, 93, 54
1, 176065, Note_off_c, 0, 85, 65
1, 176069, Note_on_c, 0, 83, 77
1, 176112, Control_c, 0, 67, 16
1, 176118, Note_off_c, 0, 83, 63
1, 176127, Control_c, 0, 64, 64
1, 176127, Control_c, 0, 67, 15
1, 176154, Note_on_c, 0, 81, 73
1, 176157, Control_c, 0, 64, 63
1, 176157, Control_c, 0, 67, 15
1, 176179, Note_off_c, 0, 81, 67
1, 176186, Control_c, 0, 64, 63
1, 176231, Control_c, 0, 67, 14
1, 176240, Note_on_c, 0, 73, 74
1, 176261, Control_c, 0, 67, 14
1, 176276, Control_c, 0, 64, 62
1, 176281, Note_off_c, 0, 73, 58
1, 176290, Control_c, 0, 64, 62
1, 176320, Control_c, 0, 64, 61
1, 176320, Note_on_c, 0, 71, 54
1, 176335, Control_c, 0, 64, 61
1, 176350, Control_c, 0, 64, 59
1, 176364, Note_off_c, 0, 71, 64
1, 176365, Control_c, 0, 64, 56
1, 176373, Note_on_c, 0, 69, 51
1, 176380, Control_c, 0, 64, 47
1, 176380, Control_c, 0, 67, 14
1, 176394, Note_off_c, 0, 69, 59
1, 176395, Control_c, 0, 64, 25
1, 176395, Control_c, 0, 67, 15
1, 176405, Note_on_c, 0, 93, 78
1, 176410, Control_c, 0, 64, 0
1, 176410, Control_c, 0, 67, 15
1, 176413, Note_on_c, 0, 81, 61
1, 176425, Control_c, 0, 67, 16
1, 176431, Note_off_c, 0, 93, 61
1, 176439, Control_c, 0, 67, 16
1, 176440, Note_off_c, 0, 81, 53
1, 176454, Control_c, 0, 67, 17
1, 176469, Control_c, 0, 67, 17
1, 176499, Control_c, 0, 67, 18
1, 176508, Note_on_c, 0, 61, 65
1, 176517, Note_on_c, 0, 93, 84
1, 176520, Note_on_c, 0, 81, 72
1, 176543, Control_c, 0, 67, 17
1, 176559, Note_off_c, 0, 93, 53
1, 176572, Control_c, 0, 67, 17
1, 176574, Note_off_c, 0, 61, 61
1, 176583, Note_on_c, 0, 59, 61
1, 176587, Control_c, 0, 67, 16
1, 176602, Control_c, 0, 67, 15
1, 176617, Control_c, 0, 67, 15
1, 176646, Control_c, 0, 67, 14
1, 176651, Note_on_c, 0, 57, 57
1, 176661, Control_c, 0, 67, 14
1, 176669, Note_off_c, 0, 81, 56
1, 176734, Note_on_c, 0, 50, 82
1, 176735, Control_c, 0, 64, 50
1, 176738, Note_off_c, 0, 57, 62
1, 176738, Note_off_c, 0, 59, 63
1, 176750, Control_c, 0, 64, 59
1, 176753, Note_on_c, 0, 89, 84
1, 176756, Note_off_c, 0, 50, 69
1, 176765, Note_on_c, 0, 81, 84
1, 176765, Control_c, 0, 64, 59
1, 176765, Control_c, 0, 67, 14
1, 176780, Control_c, 0, 67, 15
1, 176817, Control_c, 0, 64, 58
1, 176817, Control_c, 0, 67, 15
1, 176821, Note_off_c, 0, 89, 64
1, 176832, Control_c, 0, 64, 58
1, 176845, Note_off_c, 0, 81, 60
1, 176846, Control_c, 0, 67, 16
1, 176853, Note_on_c, 0, 79, 70
1, 176876, Control_c, 0, 64, 57
1, 176891, Control_c, 0, 64, 56
1, 176905, Control_c, 0, 64, 55
1, 176913, Note_off_c, 0, 79, 61
1, 176920, Control_c, 0, 64, 54
1, 176929, Note_on_c, 0, 77, 72
1, 176935, Control_c, 0, 64, 54
1, 176935, Control_c, 0, 67, 15
1, 176950, Control_c, 0, 64, 54
1, 176960, Note_off_c, 0, 77, 59
1, 176964, Control_c, 0, 64, 56
1, 176964, Control_c, 0, 67, 15
1, 176979, Control_c, 0, 64, 56
1, 176994, Control_c, 0, 64, 57
1, 177006, Note_on_c, 0, 69, 64
1, 177009, Control_c, 0, 64, 58
1, 177024, Control_c, 0, 64, 59
1, 177024, Control_c, 0, 67, 14
1, 177039, Control_c, 0, 64, 60
1, 177039, Control_c, 0, 67, 14
1, 177054, Control_c, 0, 64, 61
1, 177069, Note_on_c, 0, 67, 69
1, 177069, Note_off_c, 0, 69, 65
1, 177069, Control_c, 0, 67, 13
1, 177083, Control_c, 0, 64, 60
1, 177083, Control_c, 0, 67, 13
1, 177098, Control_c, 0, 67, 12
1, 177113, Control_c, 0, 67, 12
1, 177120, Note_off_c, 0, 67, 58
1, 177128, Control_c, 0, 64, 61
1, 177128, Control_c, 0, 67, 11
1, 177143, Control_c, 0, 64, 61
1, 177155, Note_on_c, 0, 86, 80
1, 177157, Note_on_c, 0, 74, 68
1, 177158, Control_c, 0, 67, 11
1, 177159, Note_on_c, 0, 65, 34
1, 177173, Control_c, 0, 67, 10
1, 177188, Control_c, 0, 67, 9
1, 177192, Note_off_c, 0, 65, 33
1, 177196, Note_off_c, 0, 74, 66
1, 177202, Note_off_c, 0, 86, 63
1, 177203, Control_c, 0, 67, 9
1, 177218, Control_c, 0, 67, 8
1, 177233, Control_c, 0, 64, 62
1, 177233, Control_c, 0, 67, 0
1, 177248, Control_c, 0, 64, 62
1, 177262, Control_c, 0, 64, 63
1, 177268, Note_on_c, 0, 57, 69
1, 177273, Note_on_c, 0, 86, 91
1, 177277, Control_c, 0, 64, 63
1, 177283, Note_on_c, 0, 74, 76
1, 177292, Control_c, 0, 64, 64
1, 177307, Control_c, 0, 64, 64
1, 177307, Note_off_c, 0, 74, 64
1, 177322, Control_c, 0, 64, 65
1, 177328, Note_off_c, 0, 57, 62
1, 177336, Control_c, 0, 64, 65
1, 177337, Note_off_c, 0, 86, 62
1, 177347, Note_on_c, 0, 55, 64
1, 177351, Control_c, 0, 64, 66
1, 177366, Control_c, 0, 64, 67
1, 177380, Control_c, 0, 64, 68
1, 177393, Note_on_c, 0, 53, 74
1, 177395, Control_c, 0, 64, 68
1, 177429, Note_off_c, 0, 55, 61
1, 177441, Control_c, 0, 64, 66
1, 177455, Control_c, 0, 64, 61
1, 177462, Note_off_c, 0, 53, 64
1, 177470, Control_c, 0, 64, 32
1, 177485, Control_c, 0, 64, 0
1, 177522, Note_on_c, 0, 43, 87
1, 177524, Note_on_c, 0, 91, 95
1, 177525, Note_on_c, 0, 83, 83
1, 177544, Control_c, 0, 64, 36
1, 177549, Note_off_c, 0, 43, 63
1, 177566, Control_c, 0, 64, 57
1, 177581, Control_c, 0, 64, 61
1, 177596, Control_c, 0, 64, 62
1, 177598, Note_off_c, 0, 91, 57
1, 177611, Control_c, 0, 64, 63
1, 177614, Note_off_c, 0, 83, 60
1, 177617, Note_on_c, 0, 81, 80
1, 177626, Control_c, 0, 64, 64
1, 177677, Note_off_c, 0, 81, 62
1, 177685, Control_c, 0, 64, 63
1, 177693, Note_on_c, 0, 79, 73
1, 177700, Control_c, 0, 64, 63
1, 177714, Control_c, 0, 64, 62
1, 177727, Note_off_c, 0, 79, 57
1, 177744, Control_c, 0, 64, 63
1, 177784, Note_on_c, 0, 71, 66
1, 177818, Control_c, 0, 64, 62
1, 177841, Note_off_c, 0, 71, 49
1, 177862, Note_on_c, 0, 69, 65
1, 177903, Note_off_c, 0, 69, 53
1, 177906, Control_c, 0, 64, 62
1, 177935, Note_on_c, 0, 91, 76
1, 177948, Note_on_c, 0, 67, 41
1, 177948, Note_on_c, 0, 79, 55
1, 177952, Control_c, 0, 64, 62
1, 177965, Note_off_c, 0, 91, 55
1, 177968, Note_off_c, 0, 79, 58
1, 177975, Note_off_c, 0, 67, 34
1, 177997, Control_c, 0, 64, 63
1, 178064, Note_on_c, 0, 91, 76
1, 178064, Note_on_c, 0, 79, 66
1, 178075, Note_on_c, 0, 59, 59
1, 178085, Control_c, 0, 64, 63
1, 178106, Note_off_c, 0, 91, 54
1, 178115, Control_c, 0, 64, 64
1, 178138, Note_off_c, 0, 59, 60
1, 178149, Note_on_c, 0, 57, 57
1, 178192, Note_off_c, 0, 79, 57
1, 178212, Note_on_c, 0, 55, 60
1, 178234, Control_c, 0, 64, 63
1, 178249, Control_c, 0, 64, 59
1, 178264, Control_c, 0, 64, 29
1, 178270, Note_off_c, 0, 57, 34
1, 178278, Control_c, 0, 64, 0
1, 178325, Note_on_c, 0, 48, 75
1, 178333, Note_off_c, 0, 55, 64
1, 178347, Note_off_c, 0, 48, 68
1, 178349, Note_on_c, 0, 88, 71
1, 178356, Note_on_c, 0, 79, 69
1, 178359, Control_c, 0, 64, 53
1, 178374, Control_c, 0, 64, 62
1, 178389, Control_c, 0, 64, 63
1, 178398, Note_off_c, 0, 88, 58
1, 178404, Control_c, 0, 64, 64
1, 178407, Note_off_c, 0, 79, 61
1, 178437, Note_on_c, 0, 77, 61
1, 178477, Note_off_c, 0, 77, 52
1, 178493, Control_c, 0, 64, 64
1, 178511, Note_on_c, 0, 76, 59
1, 178530, Note_off_c, 0, 76, 66
1, 178537, Control_c, 0, 64, 64
1, 178581, Note_on_c, 0, 67, 70
1, 178644, Note_off_c, 0, 67, 58
1, 178649, Note_on_c, 0, 65, 71
1, 178671, Control_c, 0, 64, 63
1, 178685, Control_c, 0, 64, 61
1, 178700, Control_c, 0, 64, 59
1, 178705, Note_off_c, 0, 65, 60
1, 178715, Control_c, 0, 64, 59
1, 178720, Note_on_c, 0, 84, 99
1, 178723, Note_on_c, 0, 72, 92
1, 178724, Note_on_c, 0, 64, 60
1, 178731, Control_c, 0, 64, 60
1, 178744, Note_off_c, 0, 64, 61
1, 178746, Control_c, 0, 64, 61
1, 178753, Note_off_c, 0, 72, 67
1, 178760, Control_c, 0, 64, 62
1, 178764, Note_off_c, 0, 84, 66
1, 178775, Control_c, 0, 64, 63
1, 178790, Control_c, 0, 64, 64
1, 178805, Control_c, 0, 64, 65
1, 178818, Note_on_c, 0, 84, 100
1, 178820, Control_c, 0, 64, 66
1, 178823, Note_on_c, 0, 72, 100
1, 178831, Note_on_c, 0, 55, 82
1, 178834, Control_c, 0, 64, 67
1, 178849, Control_c, 0, 64, 68
1, 178853, Note_on_c, 0, 82, 52
1, 178864, Control_c, 0, 64, 69
1, 178868, Note_off_c, 0, 72, 61
1, 178876, Note_off_c, 0, 82, 37
1, 178879, Control_c, 0, 64, 70
1, 178886, Note_off_c, 0, 55, 62
1, 178894, Control_c, 0, 64, 71
1, 178907, Note_on_c, 0, 53, 66
1, 178907, Note_off_c, 0, 84, 55
1, 178923, Control_c, 0, 64, 71
1, 178937, Note_off_c, 0, 53, 67
1, 178953, Note_on_c, 0, 52, 60
1, 178953, Control_c, 0, 64, 72
1, 178974, Note_off_c, 0, 52, 61
1, 179042, Control_c, 0, 64, 70
1, 179064, Control_c, 0, 64, 64
1, 179079, Control_c, 0, 64, 44
1, 179089, Note_on_c, 0, 89, 76
1, 179094, Control_c, 0, 64, 0
1, 179098, Note_on_c, 0, 38, 61
1, 179104, Note_on_c, 0, 81, 61
1, 179125, Note_off_c, 0, 38, 61
1, 179138, Control_c, 0, 64, 38
1, 179143, Note_off_c, 0, 89, 63
1, 179152, Control_c, 0, 64, 54
1, 179167, Control_c, 0, 64, 60
1, 179171, Note_off_c, 0, 81, 60
1, 179182, Control_c, 0, 64, 62
1, 179192, Note_on_c, 0, 79, 55
1, 179197, Control_c, 0, 64, 63
1, 179212, Control_c, 0, 64, 64
1, 179227, Control_c, 0, 64, 64
1, 179229, Note_off_c, 0, 79, 57
1, 179242, Control_c, 0, 64, 65
1, 179257, Control_c, 0, 64, 65
1, 179263, Note_on_c, 0, 77, 71
1, 179292, Note_off_c, 0, 77, 61
1, 179316, Control_c, 0, 64, 66
1, 179359, Note_on_c, 0, 69, 71
1, 179360, Control_c, 0, 64, 66
1, 179375, Control_c, 0, 64, 67
1, 179390, Control_c, 0, 64, 67
1, 179418, Note_on_c, 0, 67, 72
1, 179418, Note_off_c, 0, 69, 64
1, 179420, Control_c, 0, 64, 67
1, 179434, Control_c, 0, 64, 65
1, 179449, Control_c, 0, 64, 61
1, 179464, Control_c, 0, 64, 53
1, 179478, Control_c, 0, 64, 52
1, 179483, Note_on_c, 0, 83, 95
1, 179486, Note_on_c, 0, 71, 96
1, 179488, Note_on_c, 0, 65, 71
1, 179490, Note_off_c, 0, 67, 63
1, 179493, Control_c, 0, 64, 57
1, 179508, Control_c, 0, 64, 61
1, 179513, Note_off_c, 0, 65, 69
1, 179523, Control_c, 0, 64, 64
1, 179526, Note_off_c, 0, 71, 61
1, 179532, Note_off_c, 0, 83, 63
1, 179554, Control_c, 0, 64, 64
1, 179583, Control_c, 0, 64, 65
1, 179598, Control_c, 0, 64, 66
1, 179600, Note_on_c, 0, 83, 105
1, 179605, Note_on_c, 0, 57, 79
1, 179607, Note_on_c, 0, 71, 97
1, 179613, Control_c, 0, 64, 68
1, 179628, Control_c, 0, 64, 69
1, 179643, Control_c, 0, 64, 70
1, 179648, Note_off_c, 0, 71, 58
1, 179667, Note_off_c, 0, 57, 60
1, 179669, Note_off_c, 0, 83, 62
1, 179677, Note_on_c, 0, 55, 74
1, 179716, Note_off_c, 0, 55, 64
1, 179719, Note_on_c, 0, 53, 70
1, 179746, Control_c, 0, 64, 70
1, 179747, Note_off_c, 0, 53, 68
1, 179812, Control_c, 0, 64, 70
1, 179827, Control_c, 0, 64, 66
1, 179842, Control_c, 0, 64, 59
1, 179857, Control_c, 0, 64, 32
1, 179867, Note_on_c, 0, 88, 76
1, 179871, Control_c, 0, 64, 0
1, 179874, Note_on_c, 0, 36, 69
1, 179874, Note_on_c, 0, 81, 65
1, 179886, Control_c, 0, 64, 29
1, 179898, Note_off_c, 0, 36, 61
1, 179901, Control_c, 0, 64, 48
1, 179915, Note_off_c, 0, 88, 59
1, 179916, Control_c, 0, 64, 60
1, 179926, Note_off_c, 0, 81, 58
1, 179930, Control_c, 0, 64, 63
1, 179945, Control_c, 0, 64, 64
1, 179952, Note_on_c, 0, 77, 62
1, 179960, Control_c, 0, 64, 65
1, 179975, Control_c, 0, 64, 65
1, 179984, Note_off_c, 0, 77, 63
1, 179990, Control_c, 0, 64, 66
1, 180005, Control_c, 0, 64, 67
1, 180020, Control_c, 0, 64, 67
1, 180022, Note_on_c, 0, 76, 70
1, 180035, Control_c, 0, 64, 68
1, 180048, Note_off_c, 0, 76, 68
1, 180064, Control_c, 0, 64, 68
1, 180079, Control_c, 0, 64, 69
1, 180094, Control_c, 0, 64, 70
1, 180108, Control_c, 0, 64, 71
1, 180118, Note_on_c, 0, 69, 65
1, 180123, Control_c, 0, 64, 71
1, 180168, Note_off_c, 0, 69, 61
1, 180182, Control_c, 0, 64, 72
1, 180188, Note_on_c, 0, 65, 60
1, 180231, Note_off_c, 0, 65, 58
1, 180242, Control_c, 0, 64, 71
1, 180246, Note_on_c, 0, 81, 80
1, 180254, Note_on_c, 0, 69, 61
1, 180256, Control_c, 0, 64, 70
1, 180260, Note_on_c, 0, 64, 59
1, 180271, Control_c, 0, 64, 65
1, 180280, Note_off_c, 0, 64, 61
1, 180280, Note_off_c, 0, 81, 59
1, 180280, Note_off_c, 0, 69, 61
1, 180286, Control_c, 0, 64, 52
1, 180300, Control_c, 0, 64, 32
1, 180315, Control_c, 0, 64, 34
1, 180332, Control_c, 0, 64, 45
1, 180346, Control_c, 0, 64, 56
1, 180361, Control_c, 0, 64, 62
1, 180376, Control_c, 0, 64, 65
1, 180377, Note_on_c, 0, 57, 65
1, 180377, Note_on_c, 0, 81, 71
1, 180391, Control_c, 0, 64, 67
1, 180394, Note_on_c, 0, 69, 47
1, 180401, Note_off_c, 0, 81, 68
1, 180406, Control_c, 0, 64, 68
1, 180421, Control_c, 0, 64, 70
1, 180422, Note_off_c, 0, 69, 63
1, 180436, Control_c, 0, 64, 71
1, 180451, Control_c, 0, 64, 72
1, 180458, Note_off_c, 0, 57, 60
1, 180466, Control_c, 0, 64, 73
1, 180467, Note_on_c, 0, 53, 62
1, 180480, Control_c, 0, 64, 74
1, 180495, Control_c, 0, 64, 74
1, 180497, Note_off_c, 0, 53, 66
1, 180510, Note_on_c, 0, 52, 52
1, 180510, Control_c, 0, 64, 75
1, 180534, Note_off_c, 0, 52, 58
1, 180539, Control_c, 0, 64, 73
1, 180562, Control_c, 0, 64, 68
1, 180577, Control_c, 0, 64, 47
1, 180592, Control_c, 0, 64, 0
1, 180621, Control_c, 0, 64, 44
1, 180634, Note_on_c, 0, 41, 70
1, 180636, Control_c, 0, 64, 60
1, 180638, Note_on_c, 0, 77, 72
1, 180651, Control_c, 0, 64, 64
1, 180665, Note_off_c, 0, 77, 60
1, 180666, Control_c, 0, 64, 67
1, 180670, Note_off_c, 0, 41, 67
1, 180680, Control_c, 0, 64, 69
1, 180695, Control_c, 0, 64, 70
1, 180706, Note_on_c, 0, 65, 63
1, 180710, Control_c, 0, 64, 72
1, 180724, Control_c, 0, 64, 73
1, 180726, Note_on_c, 0, 53, 53
1, 180739, Control_c, 0, 64, 74
1, 180757, Note_off_c, 0, 65, 63
1, 180763, Note_off_c, 0, 53, 56
1, 180769, Control_c, 0, 64, 73
1, 180784, Control_c, 0, 64, 68
1, 180798, Note_on_c, 0, 64, 65
1, 180798, Control_c, 0, 64, 56
1, 180810, Note_on_c, 0, 52, 27
1, 180813, Control_c, 0, 64, 0
1, 180827, Note_off_c, 0, 64, 67
1, 180848, Note_off_c, 0, 52, 32
1, 180872, Control_c, 0, 64, 52
1, 180884, Note_on_c, 0, 74, 89
1, 180885, Note_on_c, 0, 38, 78
1, 180887, Control_c, 0, 64, 62
1, 180902, Control_c, 0, 64, 65
1, 180917, Control_c, 0, 64, 66
1, 180918, Note_off_c, 0, 38, 62
1, 180932, Control_c, 0, 64, 68
1, 180941, Note_off_c, 0, 74, 59
1, 180947, Control_c, 0, 64, 69
1, 180951, Note_on_c, 0, 62, 81
1, 180961, Note_on_c, 0, 50, 44
1, 180962, Control_c, 0, 64, 71
1, 180991, Note_off_c, 0, 50, 48
1, 181021, Control_c, 0, 64, 70
1, 181026, Note_off_c, 0, 62, 62
1, 181035, Note_on_c, 0, 65, 75
1, 181036, Control_c, 0, 64, 67
1, 181051, Control_c, 0, 64, 55
1, 181060, Note_off_c, 0, 65, 70
1, 181066, Control_c, 0, 64, 0
1, 181134, Note_on_c, 0, 76, 90
1, 181137, Note_on_c, 0, 40, 66
1, 181141, Control_c, 0, 64, 56
1, 181155, Control_c, 0, 64, 64
1, 181161, Note_on_c, 0, 41, 35
1, 181161, Note_off_c, 0, 40, 58
1, 181170, Control_c, 0, 64, 66
1, 181185, Control_c, 0, 64, 67
1, 181198, Note_on_c, 0, 64, 77
1, 181200, Control_c, 0, 64, 68
1, 181203, Note_off_c, 0, 41, 44
1, 181203, Note_on_c, 0, 52, 33
1, 181215, Control_c, 0, 64, 70
1, 181229, Control_c, 0, 64, 71
1, 181241, Note_off_c, 0, 52, 31
1, 181259, Control_c, 0, 64, 70
1, 181267, Note_off_c, 0, 76, 58
1, 181272, Note_off_c, 0, 64, 62
1, 181274, Note_on_c, 0, 68, 74
1, 181274, Control_c, 0, 64, 67
1, 181289, Control_c, 0, 64, 56
1, 181307, Note_off_c, 0, 68, 69
1, 181310, Control_c, 0, 64, 0
1, 181370, Control_c, 0, 64, 40
1, 181380, Note_on_c, 0, 45, 75
1, 181382, Note_on_c, 0, 81, 87
1, 181385, Control_c, 0, 64, 61
1, 181400, Control_c, 0, 64, 64
1, 181415, Control_c, 0, 64, 66
1, 181420, Note_off_c, 0, 81, 63
1, 181422, Note_on_c, 0, 47, 37
1, 181429, Control_c, 0, 64, 67
1, 181444, Control_c, 0, 64, 68
1, 181448, Note_on_c, 0, 69, 72
1, 181459, Control_c, 0, 64, 69
1, 181474, Control_c, 0, 64, 71
1, 181476, Note_off_c, 0, 47, 43
1, 181489, Control_c, 0, 64, 72
1, 181503, Control_c, 0, 64, 73
1, 181506, Note_off_c, 0, 69, 66
1, 181508, Note_on_c, 0, 57, 4
1, 181520, Note_off_c, 0, 45, 30
1, 181533, Control_c, 0, 64, 72
1, 181544, Note_on_c, 0, 52, 8
1, 181544, Note_on_c, 0, 64, 74
1, 181547, Control_c, 0, 64, 67
1, 181562, Control_c, 0, 64, 51
1, 181567, Note_off_c, 0, 57, 25
1, 181575, Note_off_c, 0, 64, 64
1, 181577, Control_c, 0, 64, 0
1, 181593, Note_off_c, 0, 52, 34
1, 181607, Control_c, 0, 64, 45
1, 181619, Note_on_c, 0, 36, 76
1, 181621, Control_c, 0, 64, 61
1, 181626, Note_on_c, 0, 72, 85
1, 181636, Control_c, 0, 64, 66
1, 181649, Note_off_c, 0, 36, 63
1, 181651, Control_c, 0, 64, 70
1, 181666, Control_c, 0, 64, 72
1, 181678, Note_off_c, 0, 72, 63
1, 181681, Control_c, 0, 64, 73
1, 181694, Note_on_c, 0, 60, 75
1, 181749, Note_off_c, 0, 60, 59
1, 181757, Poly_aftertouch_c, 0, 48, 127
1, 181780, Note_on_c, 0, 59, 75
1, 181793, Poly_aftertouch_c, 0, 48, 0
1, 181813, Note_off_c, 0, 59, 63
1, 181814, Control_c, 0, 64, 73
1, 181829, Control_c, 0, 64, 70
1, 181844, Control_c, 0, 64, 64
1, 181859, Note_on_c, 0, 33, 66
1, 181859, Control_c, 0, 64, 0
1, 181883, Note_on_c, 0, 57, 72
1, 181928, Note_on_c, 0, 45, 99
1, 181940, Note_off_c, 0, 33, 66
1, 181947, Note_on_c, 0, 69, 104
1, 181948, Control_c, 0, 64, 47
1, 181952, Note_off_c, 0, 45, 70
1, 181963, Control_c, 0, 64, 65
1, 181964, Note_off_c, 0, 57, 64
1, 181978, Control_c, 0, 64, 68
1, 181987, Note_off_c, 0, 69, 70
1, 181993, Control_c, 0, 64, 70
1, 182008, Control_c, 0, 64, 71
1, 182023, Control_c, 0, 64, 72
1, 182104, Control_c, 0, 64, 72
1, 182119, Control_c, 0, 64, 73
1, 182193, Control_c, 0, 64, 73
1, 182503, Control_c, 0, 64, 73
1, 182518, Control_c, 0, 64, 70
1, 182533, Control_c, 0, 64, 65
1, 182548, Control_c, 0, 64, 43
1, 182563, Control_c, 0, 64, 0
1, 182652, Control_c, 0, 67, 8
1, 182667, Control_c, 0, 67, 10
1, 182682, Control_c, 0, 67, 10
1, 182696, Control_c, 0, 67, 11
1, 182711, Control_c, 0, 67, 12
1, 182727, Control_c, 0, 67, 14
1, 182741, Control_c, 0, 67, 19
1, 182756, Control_c, 0, 67, 28
1, 182771, Control_c, 0, 67, 35
1, 182786, Control_c, 0, 67, 41
1, 182808, Control_c, 0, 67, 47
1, 182823, Control_c, 0, 67, 52
1, 182838, Control_c, 0, 67, 57
1, 182853, Control_c, 0, 67, 61
1, 182868, Control_c, 0, 67, 65
1, 182882, Control_c, 0, 67, 71
1, 182897, Control_c, 0, 67, 76
1, 182908, Note_on_c, 0, 56, 62
1, 182912, Control_c, 0, 67, 81
1, 182921, Note_on_c, 0, 57, 76
1, 182926, Control_c, 0, 67, 86
1, 182935, Note_off_c, 0, 56, 66
1, 182941, Control_c, 0, 67, 91
1, 182942, Note_off_c, 0, 57, 67
1, 182956, Control_c, 0, 67, 96
1, 182971, Control_c, 0, 67, 101
1, 182986, Control_c, 0, 67, 106
1, 183001, Control_c, 0, 67, 111
1, 183016, Control_c, 0, 67, 115
1, 183017, Note_on_c, 0, 60, 47
1, 183030, Control_c, 0, 67, 120
1, 183045, Control_c, 0, 67, 123
1, 183060, Control_c, 0, 67, 126
1, 183069, Note_off_c, 0, 60, 57
1, 183075, Control_c, 0, 67, 127
1, 183093, Note_on_c, 0, 64, 55
1, 183123, Note_off_c, 0, 64, 66
1, 183189, Note_on_c, 0, 68, 58
1, 183206, Note_on_c, 0, 69, 80
1, 183218, Note_off_c, 0, 68, 66
1, 183225, Note_off_c, 0, 69, 73
1, 183314, Note_on_c, 0, 72, 57
1, 183370, Note_off_c, 0, 72, 54
1, 183396, Note_on_c, 0, 76, 57
1, 183428, Note_off_c, 0, 76, 60
1, 183470, Note_on_c, 0, 80, 64
1, 183491, Note_on_c, 0, 81, 84
1, 183511, Note_off_c, 0, 80, 65
1, 183512, Note_off_c, 0, 81, 67
1, 183606, Note_on_c, 0, 84, 57
1, 183682, Note_on_c, 0, 81, 65
1, 183684, Note_off_c, 0, 84, 62
1, 183750, Note_off_c, 0, 81, 55
1, 183767, Note_on_c, 0, 88, 101
1, 183767, Note_on_c, 0, 76, 75
1, 183775, Note_on_c, 0, 86, 67
1, 183797, Note_off_c, 0, 86, 58
1, 183798, Note_off_c, 0, 88, 66
1, 183853, Note_off_c, 0, 76, 61
1, 183866, Note_on_c, 0, 83, 56
1, 183944, Note_off_c, 0, 83, 60
1, 183951, Note_on_c, 0, 80, 58
1, 183978, Note_off_c, 0, 80, 63
1, 184040, Note_on_c, 0, 76, 78
1, 184059, Note_off_c, 0, 76, 74
1, 184139, Note_on_c, 0, 71, 65
1, 184224, Note_on_c, 0, 68, 65
1, 184230, Note_off_c, 0, 71, 57
1, 184265, Note_off_c, 0, 68, 63
1, 184321, Note_on_c, 0, 64, 75
1, 184328, Note_on_c, 0, 63, 62
1, 184343, Note_off_c, 0, 64, 70
1, 184347, Note_off_c, 0, 63, 63
1, 184401, Note_on_c, 0, 68, 58
1, 184501, Note_off_c, 0, 68, 61
1, 184502, Note_on_c, 0, 64, 61
1, 184542, Note_off_c, 0, 64, 65
1, 184572, Control_c, 0, 67, 127
1, 184586, Note_on_c, 0, 56, 75
1, 184599, Note_on_c, 0, 57, 94
1, 184617, Control_c, 0, 64, 54
1, 184617, Control_c, 0, 67, 127
1, 184630, Note_off_c, 0, 56, 64
1, 184632, Control_c, 0, 64, 0
1, 184636, Note_off_c, 0, 57, 67
1, 184661, Control_c, 0, 64, 25
1, 184676, Control_c, 0, 64, 31
1, 184691, Control_c, 0, 64, 27
1, 184695, Note_on_c, 0, 60, 55
1, 184706, Control_c, 0, 64, 18
1, 184721, Control_c, 0, 64, 16
1, 184750, Control_c, 0, 64, 19
1, 184766, Note_off_c, 0, 60, 54
1, 184780, Control_c, 0, 64, 24
1, 184780, Note_on_c, 0, 64, 61
1, 184795, Control_c, 0, 64, 28
1, 184810, Control_c, 0, 64, 36
1, 184820, Note_off_c, 0, 64, 66
1, 184825, Control_c, 0, 64, 38
1, 184839, Control_c, 0, 64, 19
1, 184854, Control_c, 0, 64, 0
1, 184869, Control_c, 0, 67, 127
1, 184876, Note_on_c, 0, 68, 67
1, 184896, Note_on_c, 0, 69, 85
1, 184905, Note_off_c, 0, 68, 67
1, 184917, Note_off_c, 0, 69, 70
1, 184928, Control_c, 0, 67, 127
1, 184999, Note_on_c, 0, 72, 58
1, 185069, Note_off_c, 0, 72, 52
1, 185093, Note_on_c, 0, 76, 62
1, 185126, Note_off_c, 0, 76, 59
1, 185129, Control_c, 0, 67, 127
1, 185189, Control_c, 0, 67, 126
1, 185191, Note_on_c, 0, 81, 90
1, 185224, Note_off_c, 0, 81, 66
1, 185284, Note_on_c, 0, 84, 58
1, 185364, Note_on_c, 0, 81, 64
1, 185370, Note_off_c, 0, 84, 60
1, 185424, Note_off_c, 0, 81, 55
1, 185432, Note_on_c, 0, 87, 59
1, 185446, Note_on_c, 0, 76, 74
1, 185453, Note_on_c, 0, 88, 95
1, 185455, Control_c, 0, 67, 127
1, 185469, Control_c, 0, 64, 60
1, 185469, Control_c, 0, 67, 127
1, 185477, Note_off_c, 0, 87, 64
1, 185481, Note_off_c, 0, 88, 68
1, 185484, Control_c, 0, 64, 0
1, 185537, Note_off_c, 0, 76, 62
1, 185543, Note_on_c, 0, 83, 58
1, 185627, Note_off_c, 0, 83, 60
1, 185637, Note_on_c, 0, 80, 58
1, 185663, Note_off_c, 0, 80, 62
1, 185723, Note_on_c, 0, 76, 68
1, 185739, Note_off_c, 0, 76, 68
1, 185752, Note_on_c, 0, 75, 25
1, 185794, Note_off_c, 0, 75, 31
1, 185850, Note_on_c, 0, 71, 47
1, 185899, Note_off_c, 0, 71, 58
1, 185917, Note_on_c, 0, 68, 60
1, 185965, Note_off_c, 0, 68, 59
1, 186016, Note_on_c, 0, 63, 65
1, 186026, Note_on_c, 0, 64, 58
1, 186037, Note_off_c, 0, 63, 66
1, 186295, Note_off_c, 0, 64, 37
1, 186300, Note_on_c, 0, 56, 61
1, 186315, Note_on_c, 0, 57, 90
1, 186321, Control_c, 0, 64, 62
1, 186325, Note_off_c, 0, 56, 65
1, 186336, Control_c, 0, 64, 54
1, 186342, Note_off_c, 0, 57, 67
1, 186351, Control_c, 0, 64, 47
1, 186366, Control_c, 0, 64, 53
1, 186381, Control_c, 0, 64, 55
1, 186395, Control_c, 0, 64, 53
1, 186409, Control_c, 0, 64, 49
1, 186416, Note_on_c, 0, 61, 55
1, 186424, Control_c, 0, 64, 45
1, 186439, Control_c, 0, 64, 44
1, 186454, Control_c, 0, 64, 44
1, 186459, Note_off_c, 0, 61, 64
1, 186483, Control_c, 0, 64, 44
1, 186495, Note_on_c, 0, 64, 63
1, 186498, Control_c, 0, 64, 42
1, 186513, Control_c, 0, 64, 38
1, 186521, Note_off_c, 0, 64, 65
1, 186528, Control_c, 0, 64, 34
1, 186565, Control_c, 0, 64, 35
1, 186580, Control_c, 0, 64, 36
1, 186593, Note_on_c, 0, 68, 62
1, 186610, Control_c, 0, 64, 35
1, 186619, Note_on_c, 0, 69, 85
1, 186624, Control_c, 0, 64, 33
1, 186628, Note_off_c, 0, 68, 65
1, 186639, Control_c, 0, 64, 32
1, 186640, Note_off_c, 0, 69, 70
1, 186668, Control_c, 0, 64, 34
1, 186683, Control_c, 0, 64, 36
1, 186698, Control_c, 0, 64, 38
1, 186714, Control_c, 0, 64, 39
1, 186804, Note_on_c, 0, 76, 56
1, 186818, Control_c, 0, 64, 38
1, 186827, Note_off_c, 0, 76, 61
1, 186833, Control_c, 0, 64, 38
1, 186847, Control_c, 0, 64, 36
1, 186862, Control_c, 0, 64, 36
1, 186874, Note_on_c, 0, 80, 63
1, 186877, Control_c, 0, 64, 35
1, 186877, Control_c, 0, 67, 127
1, 186891, Control_c, 0, 64, 34
1, 186891, Control_c, 0, 67, 126
1, 186897, Note_on_c, 0, 81, 89
1, 186906, Control_c, 0, 64, 34
1, 186906, Control_c, 0, 67, 125
1, 186918, Note_off_c, 0, 80, 64
1, 186919, Note_off_c, 0, 81, 65
1, 186936, Control_c, 0, 64, 33
1, 186980, Control_c, 0, 64, 32
1, 186988, Note_on_c, 0, 85, 64
1, 187010, Control_c, 0, 64, 33
1, 187070, Note_on_c, 0, 88, 68
1, 187085, Control_c, 0, 67, 126
1, 187090, Note_off_c, 0, 85, 48
1, 187099, Control_c, 0, 67, 126
1, 187114, Control_c, 0, 64, 34
1, 187129, Control_c, 0, 64, 36
1, 187141, Note_on_c, 0, 92, 85
1, 187144, Control_c, 0, 64, 38
1, 187146, Note_off_c, 0, 88, 62
1, 187159, Control_c, 0, 64, 38
1, 187159, Control_c, 0, 67, 127
1, 187161, Note_on_c, 0, 93, 101
1, 187169, Note_on_c, 0, 81, 82
1, 187174, Control_c, 0, 64, 39
1, 187175, Note_off_c, 0, 92, 67
1, 187189, Control_c, 0, 64, 40
1, 187189, Note_off_c, 0, 93, 68
1, 187204, Control_c, 0, 64, 44
1, 187219, Control_c, 0, 64, 46
1, 187233, Control_c, 0, 64, 48
1, 187233, Control_c, 0, 67, 127
1, 187248, Control_c, 0, 64, 49
1, 187258, Note_off_c, 0, 81, 57
1, 187263, Control_c, 0, 64, 50
1, 187278, Control_c, 0, 64, 49
1, 187291, Note_on_c, 0, 89, 63
1, 187299, Control_c, 0, 64, 49
1, 187344, Control_c, 0, 64, 49
1, 187371, Note_on_c, 0, 86, 64
1, 187385, Note_off_c, 0, 89, 58
1, 187405, Note_off_c, 0, 86, 60
1, 187433, Control_c, 0, 64, 50
1, 187448, Note_on_c, 0, 81, 80
1, 187455, Note_on_c, 0, 80, 61
1, 187463, Control_c, 0, 64, 50
1, 187466, Note_off_c, 0, 81, 70
1, 187472, Note_off_c, 0, 80, 65
1, 187538, Control_c, 0, 64, 50
1, 187564, Note_on_c, 0, 77, 47
1, 187567, Control_c, 0, 64, 49
1, 187591, Note_on_c, 0, 76, 35
1, 187612, Control_c, 0, 64, 50
1, 187626, Note_off_c, 0, 76, 33
1, 187639, Note_on_c, 0, 74, 59
1, 187642, Control_c, 0, 64, 50
1, 187647, Note_off_c, 0, 77, 52
1, 187671, Control_c, 0, 64, 51
1, 187674, Note_off_c, 0, 74, 63
1, 187701, Control_c, 0, 64, 52
1, 187715, Control_c, 0, 64, 53
1, 187716, Note_on_c, 0, 68, 73
1, 187716, Note_on_c, 0, 69, 85
1, 187730, Control_c, 0, 64, 55
1, 187738, Note_off_c, 0, 69, 72
1, 187739, Note_off_c, 0, 68, 70
1, 187745, Control_c, 0, 64, 56
1, 187760, Control_c, 0, 64, 57
1, 187775, Control_c, 0, 64, 57
1, 187827, Note_on_c, 0, 65, 74
1, 187834, Control_c, 0, 64, 58
1, 187893, Control_c, 0, 64, 57
1, 187901, Note_off_c, 0, 65, 60
1, 187910, Note_on_c, 0, 62, 66
1, 187922, Control_c, 0, 64, 56
1, 187937, Control_c, 0, 64, 54
1, 187952, Control_c, 0, 64, 52
1, 187956, Note_off_c, 0, 62, 61
1, 187967, Control_c, 0, 64, 46
1, 187982, Control_c, 0, 64, 39
1, 187987, Note_on_c, 0, 54, 76
1, 187997, Control_c, 0, 64, 31
1, 187997, Note_on_c, 0, 55, 95
1, 188010, Note_off_c, 0, 54, 66
1, 188012, Control_c, 0, 64, 19
1, 188026, Control_c, 0, 64, 0
1, 188029, Note_off_c, 0, 55, 69
1, 188090, Note_on_c, 0, 59, 49
1, 188170, Note_off_c, 0, 59, 57
1, 188185, Note_on_c, 0, 62, 58
1, 188238, Note_off_c, 0, 62, 61
1, 188289, Note_on_c, 0, 66, 63
1, 188304, Note_on_c, 0, 67, 92
1, 188321, Note_off_c, 0, 66, 67
1, 188332, Note_off_c, 0, 67, 66
1, 188402, Note_on_c, 0, 71, 64
1, 188473, Note_off_c, 0, 71, 59
1, 188491, Note_on_c, 0, 74, 56
1, 188494, Control_c, 0, 67, 127
1, 188509, Control_c, 0, 67, 126
1, 188518, Note_off_c, 0, 74, 65
1, 188538, Control_c, 0, 67, 126
1, 188568, Note_on_c, 0, 78, 74
1, 188568, Control_c, 0, 67, 125
1, 188586, Note_on_c, 0, 79, 87
1, 188597, Note_off_c, 0, 78, 63
1, 188598, Control_c, 0, 67, 125
1, 188608, Note_off_c, 0, 79, 66
1, 188657, Control_c, 0, 67, 125
1, 188682, Note_on_c, 0, 83, 60
1, 188764, Note_off_c, 0, 83, 54
1, 188775, Control_c, 0, 67, 126
1, 188780, Note_on_c, 0, 86, 56
1, 188813, Control_c, 0, 67, 126
1, 188827, Note_on_c, 0, 90, 80
1, 188842, Control_c, 0, 67, 127
1, 188846, Note_off_c, 0, 86, 58
1, 188849, Note_on_c, 0, 91, 99
1, 188860, Note_on_c, 0, 79, 75
1, 188862, Note_off_c, 0, 90, 65
1, 188879, Note_off_c, 0, 91, 63
1, 188941, Note_off_c, 0, 79, 57
1, 188945, Control_c, 0, 64, 10
1, 188945, Control_c, 0, 67, 126
1, 188960, Control_c, 0, 67, 126
1, 188965, Note_on_c, 0, 88, 63
1, 188975, Control_c, 0, 67, 125
1, 189019, Control_c, 0, 64, 13
1, 189034, Control_c, 0, 64, 16
1, 189047, Note_on_c, 0, 84, 63
1, 189049, Control_c, 0, 64, 19
1, 189053, Note_off_c, 0, 88, 57
1, 189064, Control_c, 0, 64, 24
1, 189079, Control_c, 0, 64, 25
1, 189079, Note_off_c, 0, 84, 63
1, 189094, Control_c, 0, 64, 26
1, 189109, Control_c, 0, 64, 28
1, 189124, Control_c, 0, 64, 32
1, 189131, Note_on_c, 0, 79, 81
1, 189136, Note_on_c, 0, 78, 71
1, 189139, Control_c, 0, 64, 35
1, 189150, Note_off_c, 0, 79, 70
1, 189154, Control_c, 0, 64, 38
1, 189159, Note_off_c, 0, 78, 66
1, 189168, Control_c, 0, 64, 39
1, 189183, Control_c, 0, 67, 125
1, 189198, Control_c, 0, 64, 38
1, 189198, Control_c, 0, 67, 124
1, 189213, Control_c, 0, 64, 38
1, 189226, Note_on_c, 0, 76, 63
1, 189243, Control_c, 0, 64, 37
1, 189287, Control_c, 0, 64, 38
1, 189302, Control_c, 0, 64, 39
1, 189314, Note_on_c, 0, 72, 59
1, 189317, Control_c, 0, 64, 41
1, 189320, Note_off_c, 0, 76, 63
1, 189332, Control_c, 0, 64, 43
1, 189332, Control_c, 0, 67, 125
1, 189347, Control_c, 0, 64, 46
1, 189354, Note_off_c, 0, 72, 62
1, 189361, Control_c, 0, 64, 48
1, 189376, Control_c, 0, 64, 51
1, 189386, Note_on_c, 0, 67, 87
1, 189387, Note_on_c, 0, 66, 76
1, 189402, Note_off_c, 0, 66, 68
1, 189405, Note_off_c, 0, 67, 70
1, 189406, Control_c, 0, 64, 49
1, 189406, Control_c, 0, 67, 125
1, 189421, Control_c, 0, 64, 48
1, 189435, Control_c, 0, 64, 47
1, 189435, Control_c, 0, 67, 126
1, 189450, Control_c, 0, 64, 46
1, 189465, Control_c, 0, 64, 47
1, 189488, Note_on_c, 0, 64, 69
1, 189509, Control_c, 0, 64, 46
1, 189509, Control_c, 0, 67, 126
1, 189524, Control_c, 0, 64, 45
1, 189524, Control_c, 0, 67, 125
1, 189547, Control_c, 0, 64, 44
1, 189583, Note_off_c, 0, 64, 61
1, 189584, Note_on_c, 0, 60, 63
1, 189591, Control_c, 0, 64, 44
1, 189606, Control_c, 0, 64, 43
1, 189621, Control_c, 0, 64, 40
1, 189635, Control_c, 0, 64, 36
1, 189638, Note_off_c, 0, 60, 59
1, 189650, Control_c, 0, 64, 34
1, 189654, Note_on_c, 0, 53, 81
1, 189665, Control_c, 0, 64, 33
1, 189680, Control_c, 0, 64, 34
1, 189681, Note_on_c, 0, 65, 69
1, 189704, Note_off_c, 0, 53, 67
1, 189709, Control_c, 0, 64, 35
1, 189709, Control_c, 0, 67, 126
1, 189722, Note_off_c, 0, 65, 63
1, 189724, Control_c, 0, 64, 36
1, 189739, Control_c, 0, 64, 37
1, 189754, Note_on_c, 0, 57, 64
1, 189754, Control_c, 0, 64, 38
1, 189768, Control_c, 0, 67, 126
1, 189805, Note_off_c, 0, 57, 61
1, 189822, Note_on_c, 0, 60, 73
1, 189842, Control_c, 0, 67, 126
1, 189846, Note_off_c, 0, 60, 68
1, 189872, Control_c, 0, 67, 125
1, 189887, Control_c, 0, 64, 37
1, 189909, Note_on_c, 0, 64, 74
1, 189917, Control_c, 0, 64, 36
1, 189917, Control_c, 0, 67, 125
1, 189931, Note_on_c, 0, 65, 91
1, 189942, Note_off_c, 0, 64, 67
1, 189947, Control_c, 0, 67, 124
1, 189955, Note_on_c, 0, 77, 72
1, 189960, Note_off_c, 0, 65, 68
1, 189962, Control_c, 0, 64, 36
1, 189989, Note_off_c, 0, 77, 53
1, 189991, Control_c, 0, 64, 36
1, 190006, Control_c, 0, 64, 37
1, 190008, Note_on_c, 0, 69, 73
1, 190021, Control_c, 0, 64, 38
1, 190051, Control_c, 0, 64, 39
1, 190059, Note_off_c, 0, 69, 63
1, 190065, Control_c, 0, 64, 39
1, 190078, Note_on_c, 0, 72, 56
1, 190080, Control_c, 0, 67, 123
1, 190095, Note_off_c, 0, 72, 62
1, 190125, Control_c, 0, 64, 40
1, 190140, Control_c, 0, 64, 42
1, 190155, Control_c, 0, 64, 44
1, 190167, Note_on_c, 0, 76, 84
1, 190170, Control_c, 0, 64, 47
1, 190177, Note_on_c, 0, 77, 99
1, 190183, Note_on_c, 0, 89, 86
1, 190184, Control_c, 0, 64, 50
1, 190184, Control_c, 0, 67, 124
1, 190199, Control_c, 0, 64, 52
1, 190199, Control_c, 0, 67, 124
1, 190203, Note_off_c, 0, 76, 71
1, 190206, Note_off_c, 0, 77, 69
1, 190214, Control_c, 0, 64, 54
1, 190229, Control_c, 0, 64, 55
1, 190229, Control_c, 0, 67, 125
1, 190244, Control_c, 0, 64, 55
1, 190244, Control_c, 0, 67, 126
1, 190258, Control_c, 0, 64, 56
1, 190258, Control_c, 0, 67, 127
1, 190259, Note_on_c, 0, 86, 72
1, 190273, Control_c, 0, 67, 127
1, 190289, Note_off_c, 0, 89, 63
1, 190295, Control_c, 0, 64, 56
1, 190322, Note_off_c, 0, 86, 64
1, 190325, Note_on_c, 0, 82, 58
1, 190343, Note_off_c, 0, 82, 65
1, 190355, Control_c, 0, 64, 56
1, 190369, Control_c, 0, 64, 55
1, 190384, Control_c, 0, 64, 55
1, 190399, Control_c, 0, 64, 54
1, 190414, Control_c, 0, 64, 54
1, 190429, Control_c, 0, 64, 53
1, 190444, Control_c, 0, 64, 53
1, 190450, Note_on_c, 0, 51, 71
1, 190453, Note_on_c, 0, 52, 79
1, 190458, Control_c, 0, 64, 52
1, 190474, Note_off_c, 0, 52, 70
1, 190478, Note_off_c, 0, 51, 64
1, 190484, Note_on_c, 0, 64, 55
1, 190488, Control_c, 0, 64, 53
1, 190527, Note_off_c, 0, 64, 65
1, 190555, Note_on_c, 0, 57, 46
1, 190587, Note_off_c, 0, 57, 59
1, 190596, Note_on_c, 0, 59, 64
1, 190606, Control_c, 0, 64, 53
1, 190620, Note_off_c, 0, 59, 65
1, 190665, Control_c, 0, 64, 53
1, 190707, Note_on_c, 0, 63, 72
1, 190712, Note_on_c, 0, 64, 74
1, 190727, Note_on_c, 0, 76, 71
1, 190731, Note_off_c, 0, 63, 68
1, 190736, Note_off_c, 0, 64, 70
1, 190755, Control_c, 0, 67, 127
1, 190780, Note_on_c, 0, 68, 64
1, 190785, Note_off_c, 0, 76, 55
1, 190814, Control_c, 0, 67, 126
1, 190829, Control_c, 0, 64, 53
1, 190836, Note_off_c, 0, 68, 65
1, 190844, Control_c, 0, 64, 54
1, 190844, Control_c, 0, 67, 126
1, 190859, Control_c, 0, 67, 125
1, 190863, Note_on_c, 0, 71, 60
1, 190874, Control_c, 0, 64, 54
1, 190874, Control_c, 0, 67, 124
1, 190881, Note_off_c, 0, 71, 62
1, 190888, Control_c, 0, 67, 123
1, 190918, Control_c, 0, 67, 123
1, 190933, Control_c, 0, 64, 55
1, 190948, Control_c, 0, 64, 56
1, 190952, Note_on_c, 0, 75, 69
1, 190962, Note_on_c, 0, 76, 86
1, 190963, Control_c, 0, 64, 57
1, 190966, Note_on_c, 0, 88, 88
1, 190970, Note_off_c, 0, 75, 44
1, 190971, Note_on_c, 0, 74, 54
1, 190978, Control_c, 0, 64, 58
1, 190982, Note_off_c, 0, 76, 73
1, 190990, Note_off_c, 0, 74, 63
1, 190992, Control_c, 0, 64, 59
1, 190992, Control_c, 0, 67, 123
1, 191007, Control_c, 0, 64, 60
1, 191022, Control_c, 0, 64, 60
1, 191022, Control_c, 0, 67, 124
1, 191044, Note_on_c, 0, 84, 75
1, 191044, Control_c, 0, 67, 125
1, 191059, Control_c, 0, 67, 125
1, 191074, Control_c, 0, 64, 60
1, 191077, Note_off_c, 0, 88, 61
1, 191088, Control_c, 0, 67, 126
1, 191108, Note_on_c, 0, 81, 71
1, 191113, Note_off_c, 0, 84, 66
1, 191118, Control_c, 0, 67, 126
1, 191130, Note_off_c, 0, 81, 68
1, 191133, Control_c, 0, 64, 59
1, 191133, Control_c, 0, 67, 127
1, 191147, Control_c, 0, 67, 127
1, 191177, Control_c, 0, 64, 59
1, 191222, Control_c, 0, 64, 58
1, 191231, Note_on_c, 0, 50, 60
1, 191240, Note_on_c, 0, 49, 57
1, 191258, Note_on_c, 0, 62, 77
1, 191260, Note_off_c, 0, 50, 66
1, 191267, Control_c, 0, 64, 58
1, 191270, Note_off_c, 0, 49, 64
1, 191297, Control_c, 0, 64, 57
1, 191313, Note_off_c, 0, 62, 58
1, 191326, Control_c, 0, 64, 58
1, 191332, Note_on_c, 0, 55, 47
1, 191339, Note_on_c, 0, 53, 52
1, 191363, Note_off_c, 0, 53, 61
1, 191371, Control_c, 0, 64, 57
1, 191374, Note_off_c, 0, 55, 66
1, 191474, Control_c, 0, 64, 57
1, 191479, Note_on_c, 0, 62, 66
1, 191481, Note_on_c, 0, 61, 56
1, 191502, Note_off_c, 0, 61, 61
1, 191510, Note_off_c, 0, 62, 64
1, 191512, Note_on_c, 0, 74, 66
1, 191544, Note_off_c, 0, 74, 59
1, 191557, Note_on_c, 0, 65, 73
1, 191588, Note_off_c, 0, 65, 69
1, 191594, Control_c, 0, 67, 127
1, 191609, Control_c, 0, 67, 126
1, 191618, Note_on_c, 0, 69, 66
1, 191638, Control_c, 0, 67, 125
1, 191646, Note_off_c, 0, 69, 69
1, 191712, Control_c, 0, 64, 57
1, 191720, Note_on_c, 0, 75, 62
1, 191721, Note_on_c, 0, 76, 75
1, 191727, Control_c, 0, 64, 58
1, 191736, Note_off_c, 0, 76, 71
1, 191737, Note_on_c, 0, 88, 81
1, 191738, Note_off_c, 0, 75, 59
1, 191756, Control_c, 0, 67, 126
1, 191771, Control_c, 0, 67, 127
1, 191794, Control_c, 0, 67, 127
1, 191796, Note_on_c, 0, 80, 69
1, 191838, Control_c, 0, 64, 57
1, 191841, Note_off_c, 0, 88, 60
1, 191852, Note_on_c, 0, 83, 69
1, 191853, Control_c, 0, 64, 57
1, 191868, Control_c, 0, 64, 56
1, 191880, Note_off_c, 0, 80, 63
1, 191883, Note_off_c, 0, 83, 62
1, 191883, Control_c, 0, 64, 56
1, 191912, Control_c, 0, 64, 55
1, 191927, Control_c, 0, 64, 55
1, 191942, Control_c, 0, 64, 54
1, 191956, Control_c, 0, 64, 54
1, 191971, Control_c, 0, 64, 53
1, 191973, Note_on_c, 0, 57, 54
1, 191995, Note_off_c, 0, 57, 60
1, 192016, Control_c, 0, 64, 54
1, 192026, Note_on_c, 0, 69, 44
1, 192030, Control_c, 0, 64, 54
1, 192039, Note_on_c, 0, 67, 33
1, 192060, Note_off_c, 0, 69, 53
1, 192060, Control_c, 0, 64, 55
1, 192062, Note_on_c, 0, 60, 69
1, 192072, Note_off_c, 0, 67, 43
1, 192089, Control_c, 0, 64, 54
1, 192107, Note_off_c, 0, 60, 62
1, 192119, Control_c, 0, 64, 55
1, 192122, Note_on_c, 0, 64, 64
1, 192152, Note_off_c, 0, 64, 65
1, 192179, Control_c, 0, 64, 54
1, 192222, Note_on_c, 0, 68, 50
1, 192224, Note_on_c, 0, 69, 59
1, 192242, Note_off_c, 0, 69, 65
1, 192244, Note_off_c, 0, 68, 58
1, 192252, Note_on_c, 0, 81, 65
1, 192292, Note_off_c, 0, 81, 53
1, 192308, Note_on_c, 0, 72, 67
1, 192356, Note_off_c, 0, 72, 65
1, 192376, Note_on_c, 0, 76, 59
1, 192396, Note_off_c, 0, 76, 68
1, 192417, Control_c, 0, 67, 127
1, 192447, Control_c, 0, 64, 55
1, 192461, Control_c, 0, 64, 55
1, 192476, Control_c, 0, 64, 56
1, 192476, Control_c, 0, 67, 126
1, 192490, Note_on_c, 0, 80, 47
1, 192505, Control_c, 0, 64, 56
1, 192543, Control_c, 0, 64, 57
1, 192543, Control_c, 0, 67, 126
1, 192550, Note_on_c, 0, 81, 63
1, 192557, Control_c, 0, 64, 58
1, 192557, Control_c, 0, 67, 125
1, 192572, Control_c, 0, 64, 60
1, 192572, Control_c, 0, 67, 124
1, 192580, Note_off_c, 0, 81, 63
1, 192584, Note_off_c, 0, 80, 63
1, 192587, Control_c, 0, 64, 62
1, 192587, Control_c, 0, 67, 124
1, 192599, Note_on_c, 0, 93, 74
1, 192602, Control_c, 0, 64, 63
1, 192602, Control_c, 0, 67, 123
1, 192617, Control_c, 0, 64, 65
1, 192617, Control_c, 0, 67, 123
1, 192632, Control_c, 0, 64, 66
1, 192647, Control_c, 0, 64, 68
1, 192661, Control_c, 0, 64, 71
1, 192676, Control_c, 0, 64, 74
1, 192676, Control_c, 0, 67, 123
1, 192677, Note_off_c, 0, 93, 62
1, 192691, Control_c, 0, 64, 76
1, 192706, Control_c, 0, 64, 77
1, 192706, Control_c, 0, 67, 124
1, 192720, Control_c, 0, 64, 78
1, 192720, Control_c, 0, 67, 125
1, 192735, Control_c, 0, 67, 126
1, 192750, Control_c, 0, 67, 126
1, 192765, Control_c, 0, 67, 127
1, 192809, Control_c, 0, 67, 127
1, 192868, Control_c, 0, 64, 77
1, 192883, Control_c, 0, 64, 76
1, 192898, Control_c, 0, 64, 73
1, 192908, Note_on_c, 0, 56, 51
1, 192908, Note_on_c, 0, 57, 61
1, 192912, Control_c, 0, 64, 68
1, 192927, Control_c, 0, 64, 64
1, 192929, Note_off_c, 0, 57, 60
1, 192933, Note_off_c, 0, 56, 54
1, 192942, Control_c, 0, 64, 64
1, 192957, Control_c, 0, 64, 64
1, 192987, Note_on_c, 0, 61, 67
1, 193002, Control_c, 0, 64, 65
1, 193027, Note_off_c, 0, 61, 64
1, 193064, Note_on_c, 0, 64, 71
1, 193091, Note_off_c, 0, 64, 68
1, 193121, Control_c, 0, 64, 64
1, 193136, Control_c, 0, 64, 64
1, 193147, Note_on_c, 0, 68, 68
1, 193151, Control_c, 0, 64, 63
1, 193166, Control_c, 0, 64, 63
1, 193167, Note_on_c, 0, 69, 77
1, 193174, Note_off_c, 0, 68, 68
1, 193189, Note_off_c, 0, 69, 73
1, 193235, Note_on_c, 0, 73, 64
1, 193240, Control_c, 0, 64, 63
1, 193294, Note_off_c, 0, 73, 63
1, 193321, Control_c, 0, 64, 63
1, 193323, Note_on_c, 0, 76, 70
1, 193335, Control_c, 0, 64, 62
1, 193344, Note_off_c, 0, 76, 72
1, 193350, Control_c, 0, 64, 62
1, 193350, Control_c, 0, 67, 127
1, 193365, Control_c, 0, 64, 61
1, 193365, Control_c, 0, 67, 126
1, 193380, Control_c, 0, 64, 60
1, 193380, Control_c, 0, 67, 124
1, 193395, Note_on_c, 0, 80, 69
1, 193395, Control_c, 0, 64, 59
1, 193395, Control_c, 0, 67, 122
1, 193408, Note_on_c, 0, 81, 87
1, 193410, Control_c, 0, 67, 119
1, 193419, Note_off_c, 0, 80, 68
1, 193425, Control_c, 0, 67, 115
1, 193426, Note_off_c, 0, 81, 70
1, 193440, Control_c, 0, 64, 59
1, 193440, Control_c, 0, 67, 108
1, 193455, Control_c, 0, 67, 97
1, 193469, Control_c, 0, 67, 84
1, 193476, Note_on_c, 0, 85, 65
1, 193484, Control_c, 0, 67, 70
1, 193499, Control_c, 0, 64, 59
1, 193499, Control_c, 0, 67, 53
1, 193514, Control_c, 0, 67, 39
1, 193529, Control_c, 0, 67, 27
1, 193543, Control_c, 0, 67, 17
1, 193558, Control_c, 0, 64, 60
1, 193558, Control_c, 0, 67, 9
1, 193560, Note_on_c, 0, 88, 69
1, 193573, Control_c, 0, 64, 60
1, 193573, Control_c, 0, 67, 0
1, 193588, Control_c, 0, 64, 61
1, 193595, Note_off_c, 0, 85, 52
1, 193628, Note_off_c, 0, 88, 60
1, 193628, Note_on_c, 0, 92, 72
1, 193645, Note_on_c, 0, 93, 103
1, 193645, Note_on_c, 0, 81, 86
1, 193652, Note_off_c, 0, 92, 69
1, 193661, Control_c, 0, 64, 61
1, 193676, Note_off_c, 0, 93, 66
1, 193691, Control_c, 0, 64, 61
1, 193721, Control_c, 0, 64, 60
1, 193726, Note_off_c, 0, 81, 60
1, 193738, Note_on_c, 0, 89, 67
1, 193818, Note_on_c, 0, 86, 67
1, 193827, Note_off_c, 0, 89, 64
1, 193847, Note_off_c, 0, 86, 64
1, 193854, Control_c, 0, 64, 61
1, 193915, Control_c, 0, 64, 61
1, 193916, Note_on_c, 0, 81, 74
1, 193923, Note_on_c, 0, 80, 56
1, 193938, Note_off_c, 0, 81, 68
1, 193942, Note_off_c, 0, 80, 62
1, 193945, Control_c, 0, 64, 62
1, 193945, Control_c, 0, 67, 8
1, 193959, Control_c, 0, 67, 8
1, 193974, Control_c, 0, 67, 9
1, 193989, Control_c, 0, 67, 9
1, 193992, Note_on_c, 0, 77, 68
1, 194019, Control_c, 0, 64, 61
1, 194071, Control_c, 0, 67, 9
1, 194081, Note_off_c, 0, 77, 60
1, 194085, Control_c, 0, 64, 62
1, 194088, Note_on_c, 0, 74, 65
1, 194115, Control_c, 0, 64, 62
1, 194128, Note_off_c, 0, 74, 65
1, 194179, Note_on_c, 0, 68, 73
1, 194181, Note_on_c, 0, 69, 79
1, 194189, Control_c, 0, 64, 62
1, 194202, Note_off_c, 0, 69, 72
1, 194204, Control_c, 0, 67, 9
1, 194205, Note_off_c, 0, 68, 67
1, 194233, Control_c, 0, 67, 10
1, 194248, Control_c, 0, 67, 10
1, 194268, Note_on_c, 0, 65, 73
1, 194292, Control_c, 0, 67, 10
1, 194307, Control_c, 0, 67, 9
1, 194340, Note_off_c, 0, 65, 63
1, 194345, Note_on_c, 0, 62, 59
1, 194352, Control_c, 0, 64, 61
1, 194367, Control_c, 0, 67, 10
1, 194382, Control_c, 0, 67, 10
1, 194388, Note_off_c, 0, 62, 63
1, 194397, Control_c, 0, 64, 61
1, 194412, Control_c, 0, 64, 60
1, 194412, Control_c, 0, 67, 11
1, 194426, Control_c, 0, 67, 11
1, 194434, Note_on_c, 0, 55, 96
1, 194436, Note_on_c, 0, 54, 58
1, 194441, Control_c, 0, 67, 12
1, 194456, Control_c, 0, 67, 12
1, 194460, Note_off_c, 0, 54, 37
1, 194471, Control_c, 0, 67, 13
1, 194472, Note_off_c, 0, 55, 68
1, 194473, Note_on_c, 0, 53, 39
1, 194485, Control_c, 0, 64, 60
1, 194489, Note_on_c, 0, 59, 63
1, 194505, Note_off_c, 0, 53, 35
1, 194530, Control_c, 0, 67, 13
1, 194559, Note_off_c, 0, 59, 55
1, 194574, Control_c, 0, 64, 60
1, 194585, Note_on_c, 0, 62, 65
1, 194589, Control_c, 0, 67, 13
1, 194622, Note_off_c, 0, 62, 62
1, 194647, Control_c, 0, 67, 12
1, 194662, Control_c, 0, 67, 12
1, 194692, Control_c, 0, 67, 11
1, 194707, Control_c, 0, 67, 11
1, 194713, Note_on_c, 0, 66, 53
1, 194722, Note_on_c, 0, 67, 83
1, 194722, Control_c, 0, 67, 10
1, 194742, Note_off_c, 0, 66, 67
1, 194751, Note_off_c, 0, 67, 67
1, 194805, Note_on_c, 0, 71, 61
1, 194834, Control_c, 0, 64, 60
1, 194862, Note_off_c, 0, 71, 56
1, 194891, Note_on_c, 0, 74, 57
1, 194920, Note_off_c, 0, 74, 69
1, 194922, Control_c, 0, 67, 10
1, 194937, Control_c, 0, 67, 9
1, 194967, Control_c, 0, 67, 8
1, 194996, Note_on_c, 0, 78, 70
1, 195004, Note_on_c, 0, 79, 83
1, 195011, Control_c, 0, 67, 8
1, 195020, Note_off_c, 0, 78, 68
1, 195025, Note_off_c, 0, 79, 68
1, 195041, Control_c, 0, 64, 60
1, 195055, Control_c, 0, 64, 60
1, 195087, Note_on_c, 0, 83, 48
1, 195145, Control_c, 0, 67, 8
1, 195156, Note_on_c, 0, 86, 61
1, 195168, Note_off_c, 0, 83, 59
1, 195228, Note_off_c, 0, 86, 61
1, 195234, Note_on_c, 0, 90, 59
1, 195255, Note_on_c, 0, 91, 99
1, 195263, Control_c, 0, 67, 9
1, 195265, Note_off_c, 0, 90, 67
1, 195268, Note_on_c, 0, 79, 67
1, 195289, Note_off_c, 0, 91, 64
1, 195293, Control_c, 0, 64, 61
1, 195322, Control_c, 0, 67, 9
1, 195337, Note_off_c, 0, 79, 60
1, 195367, Note_on_c, 0, 88, 55
1, 195381, Control_c, 0, 67, 9
1, 195449, Note_on_c, 0, 84, 54
1, 195451, Note_off_c, 0, 88, 62
1, 195473, Note_off_c, 0, 84, 65
1, 195538, Control_c, 0, 64, 61
1, 195542, Note_on_c, 0, 78, 54
1, 195547, Note_on_c, 0, 79, 68
1, 195562, Note_off_c, 0, 78, 61
1, 195563, Note_off_c, 0, 79, 65
1, 195628, Note_on_c, 0, 76, 63
1, 195716, Note_on_c, 0, 72, 60
1, 195727, Note_off_c, 0, 76, 59
1, 195757, Note_off_c, 0, 72, 65
1, 195760, Control_c, 0, 67, 9
1, 195775, Control_c, 0, 64, 62
1, 195790, Control_c, 0, 67, 10
1, 195791, Note_on_c, 0, 66, 70
1, 195797, Note_on_c, 0, 67, 72
1, 195804, Control_c, 0, 67, 10
1, 195816, Note_off_c, 0, 66, 68
1, 195816, Note_off_c, 0, 67, 66
1, 195819, Control_c, 0, 67, 11
1, 195834, Control_c, 0, 64, 61
1, 195883, Note_on_c, 0, 64, 66
1, 195908, Control_c, 0, 64, 61
1, 195908, Control_c, 0, 67, 11
1, 195923, Control_c, 0, 67, 10
1, 195953, Note_on_c, 0, 60, 64
1, 195957, Note_off_c, 0, 64, 62
1, 195983, Control_c, 0, 64, 60
1, 195997, Control_c, 0, 64, 60
1, 196002, Note_off_c, 0, 60, 59
1, 196012, Control_c, 0, 67, 11
1, 196025, Note_on_c, 0, 52, 83
1, 196027, Control_c, 0, 67, 11
1, 196035, Note_on_c, 0, 53, 100
1, 196048, Note_on_c, 0, 65, 73
1, 196053, Note_off_c, 0, 52, 69
1, 196069, Note_off_c, 0, 53, 69
1, 196071, Control_c, 0, 64, 60
1, 196086, Control_c, 0, 64, 61
1, 196086, Control_c, 0, 67, 12
1, 196095, Note_off_c, 0, 65, 54
1, 196116, Control_c, 0, 64, 61
1, 196117, Note_on_c, 0, 57, 70
1, 196160, Control_c, 0, 64, 61
1, 196160, Control_c, 0, 67, 11
1, 196181, Note_off_c, 0, 57, 61
1, 196190, Control_c, 0, 67, 11
1, 196204, Control_c, 0, 67, 10
1, 196206, Note_on_c, 0, 60, 42
1, 196233, Note_off_c, 0, 60, 35
1, 196286, Control_c, 0, 67, 10
1, 196301, Control_c, 0, 67, 9
1, 196310, Note_on_c, 0, 64, 62
1, 196331, Control_c, 0, 67, 9
1, 196334, Note_on_c, 0, 65, 79
1, 196338, Note_off_c, 0, 64, 67
1, 196346, Control_c, 0, 64, 60
1, 196351, Note_on_c, 0, 77, 49
1, 196355, Note_off_c, 0, 65, 71
1, 196374, Note_off_c, 0, 77, 52
1, 196388, Note_on_c, 0, 69, 70
1, 196427, Note_off_c, 0, 69, 65
1, 196435, Control_c, 0, 67, 8
1, 196460, Note_on_c, 0, 72, 48
1, 196481, Note_off_c, 0, 72, 58
1, 196509, Control_c, 0, 64, 61
1, 196509, Control_c, 0, 67, 8
1, 196524, Control_c, 0, 67, 0
1, 196549, Note_on_c, 0, 76, 84
1, 196553, Control_c, 0, 64, 62
1, 196554, Note_on_c, 0, 77, 98
1, 196568, Control_c, 0, 64, 63
1, 196572, Note_on_c, 0, 89, 81
1, 196577, Note_off_c, 0, 77, 68
1, 196579, Note_off_c, 0, 76, 66
1, 196583, Control_c, 0, 64, 63
1, 196598, Control_c, 0, 64, 64
1, 196598, Control_c, 0, 67, 8
1, 196613, Control_c, 0, 67, 8
1, 196627, Control_c, 0, 64, 63
1, 196627, Control_c, 0, 67, 9
1, 196641, Note_on_c, 0, 86, 72
1, 196642, Control_c, 0, 67, 10
1, 196647, Note_off_c, 0, 89, 62
1, 196657, Control_c, 0, 64, 63
1, 196671, Control_c, 0, 64, 62
1, 196671, Control_c, 0, 67, 11
1, 196679, Note_on_c, 0, 82, 59
1, 196679, Note_off_c, 0, 86, 62
1, 196704, Note_off_c, 0, 82, 66
1, 196716, Control_c, 0, 64, 62
1, 196731, Control_c, 0, 64, 61
1, 196746, Control_c, 0, 64, 61
1, 196761, Control_c, 0, 64, 60
1, 196775, Control_c, 0, 64, 60
1, 196775, Control_c, 0, 67, 11
1, 196790, Control_c, 0, 64, 59
1, 196804, Note_on_c, 0, 51, 78
1, 196804, Note_on_c, 0, 52, 85
1, 196805, Control_c, 0, 64, 59
1, 196805, Control_c, 0, 67, 12
1, 196820, Note_on_c, 0, 64, 75
1, 196825, Note_off_c, 0, 52, 72
1, 196830, Note_off_c, 0, 51, 67
1, 196835, Control_c, 0, 64, 59
1, 196835, Control_c, 0, 67, 12
1, 196864, Note_off_c, 0, 64, 63
1, 196877, Note_on_c, 0, 56, 67
1, 196880, Control_c, 0, 64, 60
1, 196880, Control_c, 0, 67, 13
1, 196910, Control_c, 0, 64, 60
1, 196913, Note_off_c, 0, 56, 65
1, 196945, Note_on_c, 0, 59, 64
1, 196969, Control_c, 0, 67, 12
1, 196972, Note_off_c, 0, 59, 64
1, 196984, Control_c, 0, 67, 12
1, 196999, Control_c, 0, 67, 11
1, 197035, Control_c, 0, 64, 60
1, 197035, Control_c, 0, 67, 11
1, 197050, Control_c, 0, 67, 10
1, 197065, Control_c, 0, 67, 10
1, 197076, Note_on_c, 0, 64, 77
1, 197078, Note_on_c, 0, 63, 59
1, 197079, Control_c, 0, 64, 59
1, 197079, Control_c, 0, 67, 9
1, 197085, Note_on_c, 0, 76, 68
1, 197094, Control_c, 0, 67, 9
1, 197100, Note_off_c, 0, 63, 39
1, 197101, Note_off_c, 0, 64, 70
1, 197134, Note_off_c, 0, 76, 60
1, 197154, Note_on_c, 0, 68, 60
1, 197170, Control_c, 0, 64, 60
1, 197175, Note_off_c, 0, 68, 60
1, 197214, Control_c, 0, 67, 8
1, 197219, Note_on_c, 0, 71, 64
1, 197229, Control_c, 0, 67, 8
1, 197239, Note_off_c, 0, 71, 64
1, 197244, Control_c, 0, 67, 0
1, 197288, Control_c, 0, 64, 60
1, 197303, Control_c, 0, 64, 61
1, 197312, Note_on_c, 0, 76, 86
1, 197312, Note_on_c, 0, 75, 77
1, 197318, Control_c, 0, 64, 61
1, 197328, Note_off_c, 0, 76, 76
1, 197331, Note_on_c, 0, 88, 84
1, 197333, Control_c, 0, 64, 62
1, 197333, Note_off_c, 0, 75, 72
1, 197363, Control_c, 0, 64, 63
1, 197363, Control_c, 0, 67, 8
1, 197377, Control_c, 0, 67, 8
1, 197392, Control_c, 0, 67, 9
1, 197398, Note_on_c, 0, 84, 77
1, 197407, Control_c, 0, 67, 10
1, 197422, Control_c, 0, 64, 62
1, 197422, Control_c, 0, 67, 10
1, 197428, Note_off_c, 0, 88, 61
1, 197437, Control_c, 0, 67, 11
1, 197451, Control_c, 0, 64, 62
1, 197458, Note_on_c, 0, 81, 68
1, 197464, Note_off_c, 0, 84, 65
1, 197466, Control_c, 0, 64, 61
1, 197466, Control_c, 0, 67, 11
1, 197481, Control_c, 0, 64, 61
1, 197482, Note_off_c, 0, 81, 68
1, 197495, Control_c, 0, 64, 60
1, 197510, Control_c, 0, 64, 59
1, 197510, Control_c, 0, 67, 12
1, 197525, Control_c, 0, 67, 12
1, 197540, Control_c, 0, 64, 59
1, 197540, Control_c, 0, 67, 13
1, 197555, Note_on_c, 0, 50, 79
1, 197569, Control_c, 0, 64, 59
1, 197577, Note_off_c, 0, 50, 67
1, 197592, Note_on_c, 0, 62, 84
1, 197627, Control_c, 0, 67, 13
1, 197633, Note_off_c, 0, 62, 55
1, 197642, Control_c, 0, 67, 14
1, 197652, Note_on_c, 0, 53, 72
1, 197701, Control_c, 0, 67, 14
1, 197704, Note_off_c, 0, 53, 66
1, 197714, Note_on_c, 0, 57, 67
1, 197741, Note_off_c, 0, 57, 65
1, 197783, Control_c, 0, 64, 59
1, 197783, Control_c, 0, 67, 15
1, 197804, Note_on_c, 0, 61, 75
1, 197812, Note_on_c, 0, 62, 73
1, 197827, Note_off_c, 0, 61, 66
1, 197830, Note_off_c, 0, 62, 66
1, 197846, Note_on_c, 0, 74, 73
1, 197890, Note_off_c, 0, 74, 60
1, 197910, Note_on_c, 0, 65, 57
1, 197929, Note_on_c, 0, 67, 27
1, 197936, Note_off_c, 0, 65, 67
1, 197960, Note_on_c, 0, 69, 65
1, 197964, Note_off_c, 0, 67, 41
1, 197977, Note_off_c, 0, 69, 67
1, 198051, Control_c, 0, 64, 59
1, 198051, Control_c, 0, 67, 15
1, 198057, Note_on_c, 0, 76, 57
1, 198064, Note_on_c, 0, 74, 50
1, 198066, Control_c, 0, 67, 16
1, 198077, Note_off_c, 0, 76, 40
1, 198078, Note_on_c, 0, 88, 80
1, 198080, Control_c, 0, 67, 17
1, 198087, Note_off_c, 0, 74, 40
1, 198095, Control_c, 0, 67, 20
1, 198110, Control_c, 0, 67, 22
1, 198124, Control_c, 0, 64, 59
1, 198124, Control_c, 0, 67, 24
1, 198132, Note_on_c, 0, 80, 72
1, 198139, Control_c, 0, 67, 26
1, 198154, Control_c, 0, 67, 28
1, 198168, Note_off_c, 0, 88, 55
1, 198169, Control_c, 0, 67, 31
1, 198179, Note_on_c, 0, 83, 69
1, 198184, Control_c, 0, 64, 58
1, 198184, Control_c, 0, 67, 34
1, 198198, Control_c, 0, 67, 38
1, 198207, Note_off_c, 0, 83, 62
1, 198208, Note_off_c, 0, 80, 63
1, 198213, Control_c, 0, 67, 41
1, 198228, Control_c, 0, 64, 58
1, 198228, Control_c, 0, 67, 46
1, 198243, Control_c, 0, 64, 57
1, 198243, Control_c, 0, 67, 53
1, 198257, Control_c, 0, 64, 57
1, 198257, Control_c, 0, 67, 60
1, 198272, Control_c, 0, 64, 56
1, 198272, Control_c, 0, 67, 67
1, 198279, Note_on_c, 0, 56, 71
1, 198280, Note_on_c, 0, 57, 66
1, 198287, Control_c, 0, 64, 55
1, 198287, Control_c, 0, 67, 73
1, 198302, Note_off_c, 0, 56, 66
1, 198302, Control_c, 0, 64, 54
1, 198302, Control_c, 0, 67, 80
1, 198308, Note_off_c, 0, 57, 64
1, 198317, Control_c, 0, 67, 87
1, 198331, Control_c, 0, 67, 95
1, 198346, Control_c, 0, 67, 105
1, 198355, Note_on_c, 0, 67, 37
1, 198361, Note_on_c, 0, 69, 29
1, 198361, Control_c, 0, 64, 55
1, 198361, Control_c, 0, 67, 112
1, 198376, Note_on_c, 0, 60, 70
1, 198376, Control_c, 0, 67, 118
1, 198385, Note_off_c, 0, 67, 49
1, 198391, Control_c, 0, 67, 124
1, 198394, Note_off_c, 0, 69, 53
1, 198406, Control_c, 0, 67, 127
1, 198421, Control_c, 0, 64, 55
1, 198432, Note_off_c, 0, 60, 62
1, 198439, Note_on_c, 0, 64, 61
1, 198461, Note_off_c, 0, 64, 65
1, 198531, Control_c, 0, 64, 55
1, 198540, Note_on_c, 0, 68, 62
1, 198542, Note_on_c, 0, 69, 68
1, 198559, Note_off_c, 0, 68, 65
1, 198565, Note_off_c, 0, 69, 67
1, 198597, Note_on_c, 0, 81, 61
1, 198660, Note_on_c, 0, 72, 61
1, 198680, Control_c, 0, 64, 55
1, 198698, Note_off_c, 0, 81, 36
1, 198713, Note_off_c, 0, 72, 63
1, 198729, Note_on_c, 0, 76, 63
1, 198767, Note_off_c, 0, 76, 62
1, 198770, Control_c, 0, 64, 56
1, 198799, Control_c, 0, 64, 56
1, 198888, Control_c, 0, 64, 57
1, 198915, Note_on_c, 0, 80, 32
1, 198918, Control_c, 0, 64, 57
1, 198933, Control_c, 0, 64, 58
1, 198947, Control_c, 0, 64, 58
1, 198962, Control_c, 0, 64, 59
1, 198977, Control_c, 0, 64, 59
1, 198978, Note_off_c, 0, 80, 0
1, 198978, Note_on_c, 0, 80, 3
1, 198984, Note_on_c, 0, 81, 37
1, 199007, Control_c, 0, 64, 60
1, 199007, Control_c, 0, 67, 127
1, 199021, Control_c, 0, 64, 60
1, 199021, Control_c, 0, 67, 124
1, 199029, Note_on_c, 0, 93, 64
1, 199036, Control_c, 0, 64, 61
1, 199036, Control_c, 0, 67, 122
1, 199051, Control_c, 0, 64, 62
1, 199051, Control_c, 0, 67, 119
1, 199066, Control_c, 0, 64, 62
1, 199066, Control_c, 0, 67, 116
1, 199080, Control_c, 0, 64, 63
1, 199080, Control_c, 0, 67, 114
1, 199095, Control_c, 0, 64, 63
1, 199095, Control_c, 0, 67, 110
1, 199110, Control_c, 0, 67, 107
1, 199124, Note_off_c, 0, 80, 41
1, 199125, Control_c, 0, 67, 103
1, 199130, Note_off_c, 0, 81, 42
1, 199140, Control_c, 0, 67, 100
1, 199154, Control_c, 0, 67, 94
1, 199169, Control_c, 0, 67, 87
1, 199184, Control_c, 0, 67, 80
1, 199199, Control_c, 0, 64, 64
1, 199199, Control_c, 0, 67, 73
1, 199214, Control_c, 0, 67, 65
1, 199229, Control_c, 0, 67, 58
1, 199244, Control_c, 0, 67, 51
1, 199259, Control_c, 0, 67, 45
1, 199280, Control_c, 0, 67, 40
1, 199295, Control_c, 0, 67, 36
1, 199310, Control_c, 0, 67, 33
1, 199325, Control_c, 0, 67, 29
1, 199340, Control_c, 0, 67, 25
1, 199354, Control_c, 0, 67, 20
1, 199369, Control_c, 0, 64, 64
1, 199369, Control_c, 0, 67, 14
1, 199384, Control_c, 0, 67, 9
1, 199399, Control_c, 0, 67, 0
1, 199443, Control_c, 0, 64, 65
1, 199473, Control_c, 0, 64, 65
1, 199577, Control_c, 0, 64, 65
1, 199830, Control_c, 0, 64, 65
1, 199874, Control_c, 0, 64, 66
1, 199888, Control_c, 0, 64, 66
1, 199903, Control_c, 0, 64, 67
1, 199918, Control_c, 0, 64, 67
1, 199933, Control_c, 0, 64, 68
1, 199948, Control_c, 0, 64, 69
1, 199963, Control_c, 0, 64, 70
1, 199977, Control_c, 0, 64, 72
1, 199992, Control_c, 0, 64, 73
1, 200007, Control_c, 0, 64, 75
1, 200030, Control_c, 0, 64, 75
1, 200045, Control_c, 0, 64, 76
1, 200059, Control_c, 0, 64, 77
1, 200074, Control_c, 0, 64, 78
1, 200074, Control_c, 0, 67, 8
1, 200089, Control_c, 0, 64, 79
1, 200089, Control_c, 0, 67, 11
1, 200103, Control_c, 0, 64, 80
1, 200103, Control_c, 0, 67, 17
1, 200118, Control_c, 0, 64, 80
1, 200118, Control_c, 0, 67, 26
1, 200128, Note_on_c, 0, 57, 40
1, 200133, Control_c, 0, 67, 36
1, 200148, Control_c, 0, 67, 47
1, 200163, Control_c, 0, 67, 59
1, 200177, Control_c, 0, 67, 68
1, 200192, Control_c, 0, 67, 75
1, 200194, Note_off_c, 0, 57, 60
1, 200207, Control_c, 0, 67, 80
1, 200221, Control_c, 0, 67, 85
1, 200236, Control_c, 0, 67, 88
1, 200251, Control_c, 0, 67, 91
1, 200266, Control_c, 0, 67, 94
1, 200281, Control_c, 0, 67, 95
1, 200297, Control_c, 0, 67, 96
1, 200310, Note_off_c, 0, 93, 35
1, 200312, Control_c, 0, 67, 97
1, 200326, Control_c, 0, 67, 99
1, 200341, Control_c, 0, 64, 79
1, 200341, Control_c, 0, 67, 100
1, 200356, Control_c, 0, 64, 75
1, 200356, Control_c, 0, 67, 102
1, 200367, Note_on_c, 0, 93, 81
1, 200370, Note_on_c, 0, 72, 51
1, 200371, Control_c, 0, 64, 70
1, 200371, Control_c, 0, 67, 105
1, 200380, Note_on_c, 0, 81, 56
1, 200386, Control_c, 0, 64, 61
1, 200386, Control_c, 0, 67, 108
1, 200400, Note_off_c, 0, 81, 38
1, 200400, Control_c, 0, 64, 43
1, 200400, Control_c, 0, 67, 113
1, 200403, Note_off_c, 0, 72, 55
1, 200406, Note_off_c, 0, 93, 62
1, 200415, Control_c, 0, 64, 40
1, 200415, Control_c, 0, 67, 116
1, 200430, Control_c, 0, 64, 40
1, 200430, Control_c, 0, 67, 121
1, 200436, Note_on_c, 0, 64, 59
1, 200445, Control_c, 0, 64, 39
1, 200445, Control_c, 0, 67, 124
1, 200460, Control_c, 0, 64, 38
1, 200460, Control_c, 0, 67, 127
1, 200468, Note_off_c, 0, 64, 66
1, 200475, Control_c, 0, 64, 34
1, 200475, Control_c, 0, 67, 127
1, 200490, Control_c, 0, 64, 31
1, 200549, Control_c, 0, 64, 32
1, 200552, Note_on_c, 0, 57, 37
1, 200558, Note_on_c, 0, 96, 94
1, 200564, Control_c, 0, 64, 34
1, 200569, Note_on_c, 0, 84, 84
1, 200579, Control_c, 0, 64, 36
1, 200585, Note_off_c, 0, 57, 46
1, 200587, Note_off_c, 0, 84, 73
1, 200593, Control_c, 0, 64, 38
1, 200603, Note_off_c, 0, 96, 64
1, 200608, Control_c, 0, 64, 40
1, 200623, Control_c, 0, 64, 41
1, 200637, Note_on_c, 0, 74, 62
1, 200652, Control_c, 0, 64, 41
1, 200664, Note_off_c, 0, 74, 68
1, 200667, Control_c, 0, 64, 40
1, 200682, Control_c, 0, 64, 39
1, 200712, Note_on_c, 0, 65, 45
1, 200742, Note_off_c, 0, 65, 35
1, 200743, Note_on_c, 0, 95, 99
1, 200748, Note_on_c, 0, 83, 89
1, 200776, Note_off_c, 0, 83, 66
1, 200779, Control_c, 0, 64, 39
1, 200794, Control_c, 0, 64, 40
1, 200797, Note_off_c, 0, 95, 65
1, 200802, Note_on_c, 0, 59, 42
1, 200808, Control_c, 0, 64, 40
1, 200823, Control_c, 0, 64, 42
1, 200831, Note_off_c, 0, 59, 52
1, 200838, Control_c, 0, 64, 43
1, 200852, Control_c, 0, 64, 44
1, 200867, Control_c, 0, 64, 45
1, 200882, Control_c, 0, 64, 47
1, 200897, Control_c, 0, 64, 48
1, 200898, Note_on_c, 0, 75, 72
1, 200912, Control_c, 0, 64, 50
1, 200922, Note_on_c, 0, 93, 107
1, 200925, Note_on_c, 0, 81, 90
1, 200926, Control_c, 0, 64, 51
1, 200937, Note_off_c, 0, 75, 66
1, 200941, Control_c, 0, 64, 52
1, 200944, Note_off_c, 0, 81, 67
1, 200948, Note_on_c, 0, 66, 63
1, 200967, Note_off_c, 0, 93, 61
1, 200984, Note_off_c, 0, 66, 67
1, 200986, Control_c, 0, 67, 127
1, 201000, Control_c, 0, 64, 52
1, 201030, Control_c, 0, 64, 53
1, 201041, Note_on_c, 0, 59, 80
1, 201044, Control_c, 0, 64, 54
1, 201044, Control_c, 0, 67, 127
1, 201063, Note_off_c, 0, 59, 70
1, 201074, Control_c, 0, 64, 55
1, 201090, Control_c, 0, 64, 55
1, 201092, Note_on_c, 0, 92, 99
1, 201100, Note_on_c, 0, 80, 92
1, 201105, Control_c, 0, 64, 56
1, 201127, Note_on_c, 0, 76, 86
1, 201132, Note_off_c, 0, 80, 64
1, 201136, Note_off_c, 0, 92, 66
1, 201164, Control_c, 0, 64, 56
1, 201175, Note_off_c, 0, 76, 65
1, 201194, Control_c, 0, 64, 55
1, 201209, Control_c, 0, 64, 54
1, 201223, Control_c, 0, 64, 54
1, 201225, Note_on_c, 0, 64, 67
1, 201238, Control_c, 0, 64, 53
1, 201272, Note_off_c, 0, 64, 63
1, 201283, Control_c, 0, 64, 54
1, 201286, Note_on_c, 0, 88, 77
1, 201295, Note_on_c, 0, 76, 66
1, 201312, Note_off_c, 0, 76, 68
1, 201312, Note_off_c, 0, 88, 62
1, 201312, Control_c, 0, 64, 54
1, 201342, Control_c, 0, 64, 55
1, 201357, Control_c, 0, 64, 55
1, 201363, Note_on_c, 0, 74, 64
1, 201372, Control_c, 0, 64, 56
1, 201393, Note_off_c, 0, 74, 63
1, 201416, Control_c, 0, 64, 56
1, 201455, Note_on_c, 0, 90, 78
1, 201458, Note_on_c, 0, 64, 50
1, 201461, Note_on_c, 0, 78, 70
1, 201485, Note_off_c, 0, 78, 58
1, 201490, Control_c, 0, 64, 57
1, 201498, Note_off_c, 0, 64, 66
1, 201498, Note_off_c, 0, 90, 48
1, 201505, Control_c, 0, 67, 127
1, 201527, Control_c, 0, 64, 58
1, 201557, Control_c, 0, 64, 58
1, 201572, Control_c, 0, 64, 59
1, 201572, Control_c, 0, 67, 126
1, 201578, Note_on_c, 0, 71, 61
1, 201587, Control_c, 0, 64, 60
1, 201587, Control_c, 0, 67, 126
1, 201602, Control_c, 0, 64, 60
1, 201602, Control_c, 0, 67, 125
1, 201610, Poly_aftertouch_c, 0, 59, 0
1, 201616, Control_c, 0, 64, 61
1, 201616, Control_c, 0, 67, 124
1, 201624, Note_off_c, 0, 71, 59
1, 201631, Control_c, 0, 64, 62
1, 201631, Control_c, 0, 67, 123
1, 201638, Note_on_c, 0, 92, 76
1, 201646, Control_c, 0, 64, 63
1, 201646, Control_c, 0, 67, 121
1, 201647, Note_on_c, 0, 80, 60
1, 201652, Note_on_c, 0, 64, 60
1, 201661, Control_c, 0, 64, 63
1, 201661, Control_c, 0, 67, 120
1, 201675, Control_c, 0, 67, 118
1, 201688, Note_off_c, 0, 64, 64
1, 201690, Control_c, 0, 67, 115
1, 201696, Note_off_c, 0, 80, 48
1, 201705, Note_off_c, 0, 92, 62
1, 201705, Control_c, 0, 64, 64
1, 201705, Control_c, 0, 67, 111
1, 201720, Control_c, 0, 67, 106
1, 201735, Control_c, 0, 67, 100
1, 201742, Note_on_c, 0, 57, 66
1, 201749, Control_c, 0, 64, 64
1, 201749, Control_c, 0, 67, 92
1, 201764, Control_c, 0, 67, 83
1, 201770, Note_off_c, 0, 57, 64
1, 201779, Control_c, 0, 67, 73
1, 201793, Control_c, 0, 67, 63
1, 201808, Control_c, 0, 67, 58
1, 201818, Note_on_c, 0, 72, 87
1, 201819, Note_on_c, 0, 81, 100
1, 201819, Note_on_c, 0, 93, 106
1, 201823, Control_c, 0, 67, 57
1, 201838, Control_c, 0, 67, 57
1, 201843, Note_on_c, 0, 90, 56
1, 201849, Note_off_c, 0, 81, 64
1, 201853, Control_c, 0, 64, 64
1, 201862, Note_off_c, 0, 90, 59
1, 201863, Note_off_c, 0, 72, 65
1, 201867, Control_c, 0, 64, 63
1, 201879, Note_off_c, 0, 93, 63
1, 201882, Control_c, 0, 64, 61
1, 201882, Control_c, 0, 67, 57
1, 201898, Control_c, 0, 64, 60
1, 201898, Control_c, 0, 67, 58
1, 201910, Note_on_c, 0, 62, 62
1, 201913, Control_c, 0, 64, 59
1, 201913, Control_c, 0, 67, 58
1, 201928, Control_c, 0, 64, 59
1, 201930, Note_off_c, 0, 62, 60
1, 201943, Control_c, 0, 67, 59
1, 201958, Control_c, 0, 67, 60
1, 201963, Note_on_c, 0, 57, 71
1, 201972, Control_c, 0, 64, 59
1, 201972, Control_c, 0, 67, 60
1, 201986, Note_off_c, 0, 57, 65
1, 201987, Control_c, 0, 64, 60
1, 201987, Control_c, 0, 67, 61
1, 202002, Control_c, 0, 64, 60
1, 202002, Control_c, 0, 67, 62
1, 202008, Note_on_c, 0, 96, 90
1, 202009, Note_on_c, 0, 84, 77
1, 202017, Control_c, 0, 64, 60
1, 202028, Note_off_c, 0, 84, 64
1, 202032, Control_c, 0, 67, 62
1, 202050, Note_on_c, 0, 74, 71
1, 202052, Note_off_c, 0, 96, 62
1, 202076, Control_c, 0, 67, 62
1, 202096, Note_off_c, 0, 74, 61
1, 202120, Control_c, 0, 67, 61
1, 202125, Note_on_c, 0, 65, 56
1, 202135, Control_c, 0, 64, 59
1, 202149, Note_off_c, 0, 65, 38
1, 202150, Control_c, 0, 64, 59
1, 202150, Control_c, 0, 67, 60
1, 202178, Note_on_c, 0, 59, 76
1, 202183, Note_on_c, 0, 95, 91
1, 202189, Note_on_c, 0, 83, 78
1, 202210, Control_c, 0, 67, 61
1, 202213, Note_off_c, 0, 59, 65
1, 202214, Note_off_c, 0, 83, 62
1, 202225, Control_c, 0, 64, 59
1, 202225, Control_c, 0, 67, 61
1, 202229, Note_off_c, 0, 95, 63
1, 202239, Control_c, 0, 64, 60
1, 202239, Control_c, 0, 67, 62
1, 202276, Control_c, 0, 64, 60
1, 202276, Control_c, 0, 67, 62
1, 202290, Control_c, 0, 67, 62
1, 202303, Note_on_c, 0, 75, 77
1, 202305, Control_c, 0, 64, 61
1, 202320, Control_c, 0, 67, 61
1, 202335, Note_off_c, 0, 75, 66
1, 202335, Control_c, 0, 67, 61
1, 202338, Note_on_c, 0, 66, 67
1, 202350, Control_c, 0, 67, 60
1, 202355, Note_on_c, 0, 93, 102
1, 202363, Note_on_c, 0, 81, 87
1, 202365, Control_c, 0, 67, 59
1, 202380, Control_c, 0, 64, 60
1, 202380, Control_c, 0, 67, 58
1, 202383, Note_off_c, 0, 81, 66
1, 202392, Note_off_c, 0, 66, 63
1, 202394, Control_c, 0, 67, 57
1, 202407, Note_off_c, 0, 93, 62
1, 202409, Control_c, 0, 64, 60
1, 202409, Control_c, 0, 67, 57
1, 202437, Note_on_c, 0, 59, 85
1, 202454, Control_c, 0, 64, 60
1, 202454, Control_c, 0, 67, 57
1, 202466, Note_off_c, 0, 59, 67
1, 202469, Control_c, 0, 64, 61
1, 202469, Control_c, 0, 67, 59
1, 202484, Control_c, 0, 64, 62
1, 202484, Control_c, 0, 67, 61
1, 202498, Control_c, 0, 64, 62
1, 202498, Control_c, 0, 67, 63
1, 202513, Control_c, 0, 64, 63
1, 202513, Control_c, 0, 67, 63
1, 202525, Note_on_c, 0, 76, 101
1, 202526, Note_on_c, 0, 92, 103
1, 202528, Control_c, 0, 64, 64
1, 202528, Control_c, 0, 67, 64
1, 202529, Note_on_c, 0, 80, 96
1, 202543, Control_c, 0, 67, 63
1, 202558, Control_c, 0, 64, 63
1, 202558, Control_c, 0, 67, 63
1, 202568, Note_off_c, 0, 92, 66
1, 202569, Note_off_c, 0, 80, 65
1, 202572, Note_off_c, 0, 76, 66
1, 202587, Control_c, 0, 64, 63
1, 202602, Control_c, 0, 64, 62
1, 202616, Control_c, 0, 64, 61
1, 202618, Note_on_c, 0, 64, 61
1, 202631, Control_c, 0, 64, 60
1, 202631, Control_c, 0, 67, 63
1, 202646, Control_c, 0, 64, 60
1, 202646, Control_c, 0, 67, 64
1, 202657, Note_off_c, 0, 64, 62
1, 202661, Control_c, 0, 64, 59
1, 202661, Control_c, 0, 67, 65
1, 202676, Control_c, 0, 64, 60
1, 202676, Control_c, 0, 67, 65
1, 202678, Note_on_c, 0, 59, 68
1, 202692, Control_c, 0, 67, 66
1, 202696, Note_off_c, 0, 59, 65
1, 202707, Control_c, 0, 64, 60
1, 202707, Control_c, 0, 67, 67
1, 202718, Note_on_c, 0, 88, 84
1, 202721, Control_c, 0, 64, 61
1, 202721, Control_c, 0, 67, 67
1, 202725, Note_on_c, 0, 76, 74
1, 202736, Control_c, 0, 67, 68
1, 202740, Note_off_c, 0, 76, 71
1, 202740, Note_off_c, 0, 88, 63
1, 202751, Control_c, 0, 67, 70
1, 202762, Note_on_c, 0, 74, 68
1, 202766, Control_c, 0, 67, 72
1, 202781, Control_c, 0, 67, 73
1, 202795, Note_off_c, 0, 74, 60
1, 202795, Control_c, 0, 67, 76
1, 202810, Control_c, 0, 64, 61
1, 202810, Control_c, 0, 67, 79
1, 202825, Control_c, 0, 67, 81
1, 202839, Control_c, 0, 67, 83
1, 202854, Control_c, 0, 64, 62
1, 202854, Control_c, 0, 67, 84
1, 202856, Note_on_c, 0, 64, 47
1, 202869, Control_c, 0, 67, 85
1, 202885, Note_on_c, 0, 90, 80
1, 202893, Note_off_c, 0, 64, 65
1, 202898, Note_on_c, 0, 78, 68
1, 202909, Note_on_c, 0, 59, 48
1, 202915, Note_off_c, 0, 78, 62
1, 202928, Control_c, 0, 64, 62
1, 202933, Note_off_c, 0, 90, 50
1, 202934, Note_off_c, 0, 59, 55
1, 202958, Control_c, 0, 67, 84
1, 202961, Note_on_c, 0, 71, 66
1, 202973, Control_c, 0, 67, 83
1, 202988, Control_c, 0, 64, 63
1, 202995, Note_off_c, 0, 71, 59
1, 203003, Control_c, 0, 64, 63
1, 203003, Control_c, 0, 67, 82
1, 203025, Control_c, 0, 67, 81
1, 203030, Note_on_c, 0, 64, 64
1, 203039, Control_c, 0, 64, 64
1, 203039, Control_c, 0, 67, 81
1, 203054, Control_c, 0, 67, 80
1, 203057, Note_on_c, 0, 92, 84
1, 203058, Note_off_c, 0, 64, 67
1, 203069, Note_on_c, 0, 80, 55
1, 203069, Control_c, 0, 64, 64
1, 203069, Control_c, 0, 67, 80
1, 203113, Note_off_c, 0, 80, 47
1, 203114, Control_c, 0, 64, 64
1, 203118, Note_off_c, 0, 92, 62
1, 203158, Note_on_c, 0, 45, 68
1, 203158, Control_c, 0, 67, 79
1, 203173, Control_c, 0, 67, 79
1, 203179, Note_off_c, 0, 45, 65
1, 203187, Control_c, 0, 67, 78
1, 203202, Control_c, 0, 67, 78
1, 203217, Control_c, 0, 67, 77
1, 203229, Note_on_c, 0, 93, 75
1, 203232, Control_c, 0, 64, 64
1, 203232, Control_c, 0, 67, 75
1, 203241, Note_on_c, 0, 60, 72
1, 203247, Control_c, 0, 67, 74
1, 203262, Control_c, 0, 67, 73
1, 203277, Control_c, 0, 64, 64
1, 203277, Control_c, 0, 67, 72
1, 203283, Note_off_c, 0, 60, 61
1, 203292, Control_c, 0, 67, 69
1, 203307, Control_c, 0, 67, 65
1, 203310, Note_on_c, 0, 52, 71
1, 203319, Note_on_c, 0, 81, 77
1, 203321, Control_c, 0, 67, 62
1, 203321, Note_off_c, 0, 93, 50
1, 203336, Control_c, 0, 67, 58
1, 203338, Note_off_c, 0, 52, 69
1, 203351, Control_c, 0, 67, 56
1, 203360, Note_off_c, 0, 81, 61
1, 203366, Control_c, 0, 67, 53
1, 203381, Control_c, 0, 67, 49
1, 203381, Note_on_c, 0, 45, 76
1, 203395, Control_c, 0, 67, 47
1, 203401, Note_off_c, 0, 45, 66
1, 203410, Note_on_c, 0, 96, 100
1, 203410, Control_c, 0, 67, 45
1, 203425, Control_c, 0, 67, 44
1, 203439, Control_c, 0, 67, 43
1, 203454, Control_c, 0, 64, 64
1, 203454, Control_c, 0, 67, 42
1, 203457, Note_on_c, 0, 62, 80
1, 203469, Control_c, 0, 67, 38
1, 203476, Note_off_c, 0, 96, 63
1, 203482, Note_on_c, 0, 84, 92
1, 203485, Control_c, 0, 64, 64
1, 203485, Control_c, 0, 67, 31
1, 203500, Control_c, 0, 67, 22
1, 203502, Note_off_c, 0, 62, 56
1, 203515, Control_c, 0, 67, 15
1, 203518, Note_on_c, 0, 53, 62
1, 203530, Control_c, 0, 67, 0
1, 203538, Note_off_c, 0, 53, 64
1, 203543, Note_off_c, 0, 84, 63
1, 203559, Control_c, 0, 64, 63
1, 203575, Note_on_c, 0, 95, 103
1, 203584, Note_on_c, 0, 47, 78
1, 203614, Note_off_c, 0, 47, 69
1, 203639, Note_off_c, 0, 95, 63
1, 203655, Note_on_c, 0, 83, 89
1, 203693, Control_c, 0, 64, 64
1, 203697, Note_on_c, 0, 63, 78
1, 203724, Note_off_c, 0, 83, 60
1, 203731, Note_on_c, 0, 54, 62
1, 203733, Note_on_c, 0, 93, 100
1, 203738, Note_off_c, 0, 63, 65
1, 203782, Note_off_c, 0, 54, 64
1, 203800, Note_off_c, 0, 93, 61
1, 203819, Note_on_c, 0, 81, 87
1, 203826, Note_on_c, 0, 48, 73
1, 203834, Note_on_c, 0, 47, 76
1, 203849, Control_c, 0, 64, 63
1, 203855, Note_off_c, 0, 47, 65
1, 203861, Note_off_c, 0, 48, 67
1, 203874, Note_off_c, 0, 81, 63
1, 203878, Control_c, 0, 64, 62
1, 203893, Control_c, 0, 64, 62
1, 203908, Note_on_c, 0, 92, 101
1, 203908, Control_c, 0, 64, 61
1, 203912, Note_on_c, 0, 64, 106
1, 203953, Note_on_c, 0, 52, 32
1, 203953, Note_on_c, 0, 53, 35
1, 203957, Note_on_c, 0, 88, 19
1, 203974, Note_off_c, 0, 64, 60
1, 203983, Note_on_c, 0, 80, 75
1, 203983, Note_off_c, 0, 92, 63
1, 203987, Note_off_c, 0, 53, 33
1, 203998, Note_off_c, 0, 88, 29
1, 204016, Note_off_c, 0, 52, 0
1, 204016, Note_on_c, 0, 52, 55
1, 204045, Note_off_c, 0, 80, 63
1, 204065, Note_off_c, 0, 52, 63
1, 204076, Note_on_c, 0, 48, 69
1, 204088, Note_on_c, 0, 88, 75
1, 204105, Note_off_c, 0, 48, 64
1, 204115, Control_c, 0, 64, 62
1, 204144, Control_c, 0, 64, 62
1, 204167, Note_on_c, 0, 62, 69
1, 204172, Note_off_c, 0, 88, 37
1, 204174, Control_c, 0, 64, 63
1, 204176, Note_on_c, 0, 76, 51
1, 204196, Note_off_c, 0, 76, 62
1, 204204, Note_off_c, 0, 62, 63
1, 204267, Note_on_c, 0, 52, 44
1, 204274, Note_on_c, 0, 90, 86
1, 204297, Note_off_c, 0, 52, 63
1, 204321, Note_on_c, 0, 47, 44
1, 204338, Note_off_c, 0, 90, 60
1, 204356, Note_off_c, 0, 47, 55
1, 204369, Note_on_c, 0, 59, 64
1, 204371, Note_on_c, 0, 78, 73
1, 204408, Note_off_c, 0, 59, 60
1, 204413, Note_off_c, 0, 78, 63
1, 204413, Control_c, 0, 64, 62
1, 204452, Note_on_c, 0, 52, 50
1, 204458, Note_on_c, 0, 92, 80
1, 204493, Note_off_c, 0, 52, 65
1, 204501, Control_c, 0, 64, 63
1, 204522, Note_off_c, 0, 92, 61
1, 204523, Control_c, 0, 64, 62
1, 204533, Note_on_c, 0, 45, 68
1, 204553, Note_on_c, 0, 80, 68
1, 204562, Note_off_c, 0, 45, 64
1, 204568, Control_c, 0, 64, 63
1, 204592, Note_off_c, 0, 80, 64
1, 204634, Note_on_c, 0, 60, 80
1, 204646, Note_on_c, 0, 93, 82
1, 204689, Note_off_c, 0, 60, 60
1, 204713, Note_on_c, 0, 52, 64
1, 204715, Note_off_c, 0, 93, 59
1, 204716, Control_c, 0, 64, 62
1, 204743, Note_off_c, 0, 52, 67
1, 204743, Note_on_c, 0, 81, 71
1, 204775, Note_off_c, 0, 81, 60
1, 204789, Note_on_c, 0, 47, 68
1, 204812, Note_off_c, 0, 47, 67
1, 204819, Control_c, 0, 64, 63
1, 204839, Note_on_c, 0, 96, 100
1, 204872, Note_on_c, 0, 62, 80
1, 204907, Note_off_c, 0, 96, 61
1, 204911, Note_on_c, 0, 84, 87
1, 204919, Note_off_c, 0, 62, 60
1, 204946, Note_on_c, 0, 53, 52
1, 204953, Control_c, 0, 64, 62
1, 204971, Note_off_c, 0, 53, 37
1, 204972, Note_off_c, 0, 84, 63
1, 205002, Note_on_c, 0, 95, 99
1, 205003, Note_on_c, 0, 47, 87
1, 205031, Note_off_c, 0, 47, 66
1, 205065, Note_off_c, 0, 95, 59
1, 205077, Note_on_c, 0, 83, 86
1, 205087, Control_c, 0, 64, 63
1, 205116, Note_on_c, 0, 63, 76
1, 205131, Control_c, 0, 64, 62
1, 205146, Note_off_c, 0, 83, 60
1, 205147, Note_off_c, 0, 63, 67
1, 205158, Note_on_c, 0, 93, 105
1, 205222, Note_off_c, 0, 93, 58
1, 205226, Note_on_c, 0, 48, 91
1, 205236, Note_on_c, 0, 81, 87
1, 205273, Note_off_c, 0, 48, 66
1, 205300, Note_off_c, 0, 81, 63
1, 205334, Note_on_c, 0, 64, 101
1, 205335, Note_on_c, 0, 92, 99
1, 205346, Control_c, 0, 64, 63
1, 205372, Note_on_c, 0, 88, 42
1, 205387, Note_on_c, 0, 52, 9
1, 205390, Note_off_c, 0, 64, 56
1, 205401, Note_off_c, 0, 88, 53
1, 205405, Control_c, 0, 64, 62
1, 205414, Note_off_c, 0, 92, 64
1, 205423, Note_on_c, 0, 80, 60
1, 205435, Control_c, 0, 64, 62
1, 205447, Note_off_c, 0, 52, 0
1, 205447, Note_on_c, 0, 52, 8
1, 205481, Note_off_c, 0, 80, 63
1, 205496, Note_off_c, 0, 52, 63
1, 205505, Note_on_c, 0, 47, 61
1, 205517, Note_on_c, 0, 48, 52
1, 205526, Note_on_c, 0, 88, 72
1, 205529, Note_off_c, 0, 47, 61
1, 205542, Note_off_c, 0, 48, 60
1, 205553, Control_c, 0, 64, 62
1, 205585, Note_on_c, 0, 62, 73
1, 205592, Note_on_c, 0, 76, 71
1, 205599, Note_off_c, 0, 88, 40
1, 205623, Note_off_c, 0, 62, 63
1, 205627, Control_c, 0, 64, 63
1, 205631, Note_off_c, 0, 76, 64
1, 205673, Note_on_c, 0, 52, 58
1, 205686, Control_c, 0, 64, 63
1, 205697, Note_on_c, 0, 90, 91
1, 205714, Note_off_c, 0, 52, 60
1, 205715, Control_c, 0, 64, 64
1, 205745, Control_c, 0, 64, 64
1, 205761, Note_off_c, 0, 90, 62
1, 205782, Note_on_c, 0, 78, 77
1, 205784, Note_on_c, 0, 59, 66
1, 205819, Control_c, 0, 64, 65
1, 205829, Note_off_c, 0, 59, 59
1, 205831, Note_off_c, 0, 78, 62
1, 205849, Control_c, 0, 64, 65
1, 205864, Control_c, 0, 64, 66
1, 205873, Note_on_c, 0, 92, 84
1, 205879, Note_on_c, 0, 45, 78
1, 205894, Control_c, 0, 64, 66
1, 205930, Note_off_c, 0, 92, 58
1, 205939, Control_c, 0, 64, 66
1, 205944, Note_on_c, 0, 80, 73
1, 205954, Control_c, 0, 64, 65
1, 205969, Control_c, 0, 64, 63
1, 205983, Control_c, 0, 64, 59
1, 205998, Control_c, 0, 64, 49
1, 206003, Note_off_c, 0, 80, 64
1, 206020, Control_c, 0, 64, 38
1, 206035, Control_c, 0, 64, 30
1, 206038, Note_on_c, 0, 57, 112
1, 206050, Control_c, 0, 64, 27
1, 206052, Note_on_c, 0, 93, 89
1, 206079, Control_c, 0, 64, 28
1, 206094, Control_c, 0, 64, 30
1, 206107, Note_off_c, 0, 45, 65
1, 206109, Control_c, 0, 64, 32
1, 206115, Note_off_c, 0, 57, 65
1, 206124, Control_c, 0, 64, 34
1, 206138, Poly_aftertouch_c, 0, 47, 0
1, 206138, Control_c, 0, 64, 37
1, 206148, Note_on_c, 0, 85, 65
1, 206148, Note_off_c, 0, 93, 46
1, 206153, Control_c, 0, 64, 40
1, 206168, Control_c, 0, 64, 42
1, 206183, Control_c, 0, 64, 44
1, 206198, Control_c, 0, 64, 45
1, 206229, Note_on_c, 0, 81, 63
1, 206243, Control_c, 0, 64, 45
1, 206254, Note_on_c, 0, 61, 91
1, 206255, Note_off_c, 0, 85, 56
1, 206257, Control_c, 0, 64, 46
1, 206258, Note_on_c, 0, 49, 90
1, 206272, Control_c, 0, 64, 48
1, 206273, Note_off_c, 0, 61, 68
1, 206285, Note_off_c, 0, 49, 64
1, 206287, Control_c, 0, 64, 49
1, 206302, Control_c, 0, 64, 49
1, 206317, Note_on_c, 0, 91, 71
1, 206326, Note_off_c, 0, 81, 37
1, 206331, Control_c, 0, 64, 49
1, 206346, Control_c, 0, 64, 48
1, 206376, Control_c, 0, 64, 48
1, 206391, Control_c, 0, 64, 47
1, 206406, Control_c, 0, 64, 47
1, 206411, Note_on_c, 0, 86, 63
1, 206420, Control_c, 0, 64, 46
1, 206435, Control_c, 0, 64, 46
1, 206438, Note_on_c, 0, 59, 94
1, 206442, Note_on_c, 0, 47, 92
1, 206447, Note_off_c, 0, 91, 35
1, 206450, Control_c, 0, 64, 45
1, 206460, Note_off_c, 0, 59, 67
1, 206464, Control_c, 0, 64, 44
1, 206471, Note_off_c, 0, 47, 64
1, 206490, Note_off_c, 0, 86, 57
1, 206494, Control_c, 0, 64, 44
1, 206505, Note_on_c, 0, 81, 60
1, 206581, Note_off_c, 0, 81, 52
1, 206590, Note_on_c, 0, 88, 66
1, 206622, Note_on_c, 0, 57, 102
1, 206626, Note_on_c, 0, 45, 97
1, 206628, Control_c, 0, 64, 45
1, 206643, Control_c, 0, 64, 46
1, 206647, Note_off_c, 0, 45, 73
1, 206652, Note_off_c, 0, 57, 65
1, 206657, Control_c, 0, 64, 46
1, 206666, Note_on_c, 0, 85, 66
1, 206672, Control_c, 0, 64, 47
1, 206683, Note_off_c, 0, 88, 57
1, 206688, Control_c, 0, 64, 49
1, 206703, Control_c, 0, 64, 51
1, 206718, Control_c, 0, 64, 52
1, 206733, Control_c, 0, 64, 52
1, 206744, Note_off_c, 0, 85, 63
1, 206748, Note_on_c, 0, 79, 60
1, 206770, Control_c, 0, 64, 53
1, 206825, Note_off_c, 0, 79, 59
1, 206829, Note_on_c, 0, 62, 109
1, 206833, Note_on_c, 0, 50, 97
1, 206844, Note_on_c, 0, 89, 69
1, 206844, Control_c, 0, 64, 53
1, 206859, Control_c, 0, 64, 54
1, 206874, Control_c, 0, 64, 54
1, 206887, Note_on_c, 0, 88, 24
1, 206889, Note_off_c, 0, 62, 61
1, 206913, Note_off_c, 0, 50, 61
1, 206939, Note_off_c, 0, 88, 41
1, 206946, Note_off_c, 0, 89, 38
1, 206948, Control_c, 0, 64, 55
1, 206968, Note_on_c, 0, 81, 30
1, 207015, Note_off_c, 0, 81, 47
1, 207015, Note_on_c, 0, 57, 91
1, 207020, Note_on_c, 0, 45, 89
1, 207024, Note_on_c, 0, 77, 59
1, 207042, Note_off_c, 0, 57, 66
1, 207051, Control_c, 0, 64, 54
1, 207056, Note_off_c, 0, 45, 66
1, 207080, Control_c, 0, 64, 55
1, 207092, Note_on_c, 0, 85, 60
1, 207096, Note_off_c, 0, 77, 56
1, 207206, Note_on_c, 0, 53, 87
1, 207207, Note_on_c, 0, 79, 58
1, 207208, Note_on_c, 0, 41, 89
1, 207210, Note_off_c, 0, 85, 57
1, 207229, Note_off_c, 0, 53, 70
1, 207229, Control_c, 0, 64, 54
1, 207245, Note_off_c, 0, 41, 65
1, 207274, Note_off_c, 0, 79, 54
1, 207283, Note_on_c, 0, 76, 55
1, 207318, Note_off_c, 0, 76, 59
1, 207368, Note_on_c, 0, 86, 72
1, 207385, Note_on_c, 0, 50, 81
1, 207387, Note_on_c, 0, 38, 77
1, 207409, Note_off_c, 0, 50, 69
1, 207414, Note_off_c, 0, 38, 63
1, 207432, Note_off_c, 0, 86, 58
1, 207438, Note_on_c, 0, 77, 63
1, 207451, Control_c, 0, 64, 55
1, 207483, Note_off_c, 0, 77, 62
1, 207493, Note_on_c, 0, 74, 62
1, 207526, Note_off_c, 0, 74, 70
1, 207534, Control_c, 0, 64, 54
1, 207563, Control_c, 0, 64, 53
1, 207578, Control_c, 0, 64, 52
1, 207592, Note_on_c, 0, 55, 100
1, 207593, Control_c, 0, 64, 50
1, 207594, Note_on_c, 0, 43, 99
1, 207602, Note_on_c, 0, 91, 87
1, 207608, Control_c, 0, 64, 48
1, 207623, Control_c, 0, 64, 46
1, 207637, Control_c, 0, 64, 45
1, 207652, Control_c, 0, 64, 44
1, 207667, Control_c, 0, 64, 44
1, 207674, Note_on_c, 0, 83, 63
1, 207700, Note_off_c, 0, 91, 44
1, 207700, Note_off_c, 0, 43, 61
1, 207710, Note_off_c, 0, 55, 61
1, 207711, Control_c, 0, 64, 44
1, 207755, Note_off_c, 0, 83, 53
1, 207756, Control_c, 0, 64, 44
1, 207762, Note_on_c, 0, 79, 66
1, 207801, Note_on_c, 0, 59, 87
1, 207805, Note_on_c, 0, 47, 87
1, 207816, Note_off_c, 0, 79, 55
1, 207829, Note_off_c, 0, 59, 64
1, 207838, Note_on_c, 0, 89, 75
1, 207839, Note_off_c, 0, 47, 63
1, 207933, Control_c, 0, 64, 43
1, 207948, Control_c, 0, 64, 42
1, 207963, Control_c, 0, 64, 41
1, 207972, Note_on_c, 0, 84, 55
1, 207978, Control_c, 0, 64, 40
1, 207988, Note_on_c, 0, 57, 86
1, 207992, Note_on_c, 0, 45, 85
1, 207993, Control_c, 0, 64, 38
1, 207999, Note_off_c, 0, 89, 35
1, 208007, Control_c, 0, 64, 36
1, 208017, Note_off_c, 0, 57, 63
1, 208022, Control_c, 0, 64, 35
1, 208028, Note_off_c, 0, 45, 66
1, 208037, Control_c, 0, 64, 32
1, 208043, Note_off_c, 0, 84, 60
1, 208049, Note_on_c, 0, 79, 50
1, 208052, Control_c, 0, 64, 28
1, 208067, Control_c, 0, 64, 26
1, 208082, Control_c, 0, 64, 24
1, 208084, Note_off_c, 0, 79, 53
1, 208126, Control_c, 0, 64, 22
1, 208127, Note_on_c, 0, 86, 67
1, 208170, Note_on_c, 0, 55, 88
1, 208171, Control_c, 0, 64, 24
1, 208175, Note_on_c, 0, 43, 84
1, 208192, Note_off_c, 0, 55, 69
1, 208202, Note_off_c, 0, 86, 62
1, 208202, Note_off_c, 0, 43, 64
1, 208204, Note_on_c, 0, 83, 61
1, 208215, Control_c, 0, 64, 25
1, 208258, Note_on_c, 0, 77, 59
1, 208258, Note_off_c, 0, 83, 57
1, 208267, Control_c, 0, 64, 26
1, 208282, Control_c, 0, 64, 27
1, 208297, Control_c, 0, 64, 29
1, 208312, Control_c, 0, 64, 30
1, 208317, Note_off_c, 0, 77, 53
1, 208327, Control_c, 0, 64, 32
1, 208338, Note_on_c, 0, 88, 79
1, 208356, Control_c, 0, 64, 32
1, 208364, Note_on_c, 0, 60, 103
1, 208370, Note_on_c, 0, 48, 96
1, 208371, Control_c, 0, 64, 34
1, 208386, Control_c, 0, 64, 34
1, 208401, Note_off_c, 0, 60, 66
1, 208401, Control_c, 0, 64, 35
1, 208416, Control_c, 0, 64, 36
1, 208422, Note_off_c, 0, 48, 63
1, 208431, Control_c, 0, 64, 37
1, 208434, Note_on_c, 0, 79, 62
1, 208446, Note_off_c, 0, 88, 37
1, 208460, Control_c, 0, 64, 38
1, 208475, Control_c, 0, 64, 38
1, 208490, Control_c, 0, 64, 39
1, 208505, Control_c, 0, 64, 39
1, 208519, Note_off_c, 0, 79, 56
1, 208520, Control_c, 0, 64, 40
1, 208526, Note_on_c, 0, 76, 57
1, 208534, Control_c, 0, 64, 40
1, 208553, Note_on_c, 0, 43, 81
1, 208554, Note_on_c, 0, 55, 73
1, 208564, Control_c, 0, 64, 41
1, 208571, Note_off_c, 0, 55, 68
1, 208583, Note_off_c, 0, 43, 64
1, 208597, Note_off_c, 0, 76, 58
1, 208626, Note_on_c, 0, 83, 59
1, 208712, Note_on_c, 0, 77, 66
1, 208723, Note_on_c, 0, 40, 74
1, 208730, Note_on_c, 0, 52, 54
1, 208739, Note_off_c, 0, 83, 59
1, 208754, Note_off_c, 0, 40, 65
1, 208756, Control_c, 0, 64, 40
1, 208759, Note_off_c, 0, 52, 36
1, 208771, Control_c, 0, 64, 40
1, 208783, Note_on_c, 0, 74, 62
1, 208793, Note_off_c, 0, 77, 58
1, 208800, Control_c, 0, 64, 39
1, 208828, Note_off_c, 0, 74, 64
1, 208860, Note_on_c, 0, 84, 85
1, 208881, Note_on_c, 0, 36, 76
1, 208881, Note_on_c, 0, 48, 75
1, 208899, Note_off_c, 0, 48, 67
1, 208908, Note_off_c, 0, 36, 66
1, 208929, Note_on_c, 0, 76, 76
1, 208933, Control_c, 0, 64, 40
1, 208958, Note_off_c, 0, 84, 61
1, 208985, Note_off_c, 0, 76, 66
1, 208994, Note_on_c, 0, 72, 63
1, 209015, Control_c, 0, 64, 40
1, 209024, Note_off_c, 0, 72, 66
1, 209086, Note_on_c, 0, 50, 93
1, 209088, Note_on_c, 0, 38, 92
1, 209097, Note_on_c, 0, 89, 93
1, 209114, Note_off_c, 0, 38, 65
1, 209116, Note_off_c, 0, 50, 63
1, 209149, Control_c, 0, 64, 40
1, 209181, Note_on_c, 0, 82, 66
1, 209217, Note_off_c, 0, 89, 58
1, 209285, Note_on_c, 0, 53, 72
1, 209286, Note_on_c, 0, 77, 57
1, 209289, Note_on_c, 0, 41, 68
1, 209293, Note_off_c, 0, 82, 59
1, 209312, Control_c, 0, 64, 39
1, 209314, Note_off_c, 0, 41, 62
1, 209315, Note_off_c, 0, 53, 69
1, 209331, Note_off_c, 0, 77, 52
1, 209352, Note_on_c, 0, 88, 81
1, 209356, Control_c, 0, 64, 39
1, 209415, Control_c, 0, 64, 38
1, 209429, Note_on_c, 0, 84, 62
1, 209459, Note_on_c, 0, 57, 61
1, 209462, Note_on_c, 0, 45, 64
1, 209462, Note_off_c, 0, 88, 55
1, 209480, Note_off_c, 0, 57, 62
1, 209483, Note_off_c, 0, 45, 62
1, 209489, Control_c, 0, 64, 38
1, 209518, Note_off_c, 0, 84, 59
1, 209526, Note_on_c, 0, 76, 61
1, 209572, Note_off_c, 0, 76, 64
1, 209578, Control_c, 0, 64, 38
1, 209593, Control_c, 0, 64, 39
1, 209596, Note_on_c, 0, 86, 87
1, 209608, Note_on_c, 0, 46, 74
1, 209615, Note_on_c, 0, 58, 49
1, 209623, Control_c, 0, 64, 39
1, 209632, Note_off_c, 0, 46, 66
1, 209640, Note_off_c, 0, 58, 55
1, 209666, Note_on_c, 0, 83, 63
1, 209705, Note_off_c, 0, 86, 58
1, 209721, Note_on_c, 0, 74, 67
1, 209742, Control_c, 0, 64, 40
1, 209775, Note_off_c, 0, 74, 65
1, 209778, Note_off_c, 0, 83, 59
1, 209811, Note_on_c, 0, 48, 94
1, 209812, Note_on_c, 0, 36, 90
1, 209815, Note_on_c, 0, 88, 96
1, 209836, Note_off_c, 0, 48, 65
1, 209838, Note_off_c, 0, 36, 66
1, 209868, Control_c, 0, 64, 40
1, 209900, Note_on_c, 0, 84, 70
1, 209933, Note_off_c, 0, 88, 60
1, 209980, Note_off_c, 0, 84, 59
1, 209987, Control_c, 0, 64, 41
1, 209993, Note_on_c, 0, 52, 68
1, 209996, Note_on_c, 0, 40, 65
1, 209996, Note_on_c, 0, 76, 57
1, 210013, Note_off_c, 0, 52, 65
1, 210017, Control_c, 0, 64, 40
1, 210022, Note_off_c, 0, 40, 59
1, 210034, Note_off_c, 0, 76, 55
1, 210046, Control_c, 0, 64, 40
1, 210067, Note_on_c, 0, 86, 79
1, 210135, Control_c, 0, 64, 40
1, 210153, Note_on_c, 0, 83, 62
1, 210160, Note_off_c, 0, 86, 51
1, 210163, Note_on_c, 0, 44, 65
1, 210165, Note_on_c, 0, 56, 65
1, 210193, Note_off_c, 0, 44, 65
1, 210198, Note_off_c, 0, 56, 64
1, 210226, Note_off_c, 0, 83, 46
1, 210236, Note_on_c, 0, 74, 57
1, 210294, Note_off_c, 0, 74, 60
1, 210318, Note_on_c, 0, 84, 80
1, 210327, Note_on_c, 0, 45, 73
1, 210327, Control_c, 0, 64, 40
1, 210334, Note_on_c, 0, 57, 55
1, 210354, Note_off_c, 0, 45, 66
1, 210359, Note_off_c, 0, 57, 56
1, 210393, Note_on_c, 0, 81, 68
1, 210429, Note_off_c, 0, 84, 59
1, 210461, Control_c, 0, 64, 40
1, 210467, Note_on_c, 0, 72, 63
1, 210481, Note_off_c, 0, 81, 56
1, 210491, Control_c, 0, 64, 41
1, 210512, Control_c, 0, 64, 41
1, 210518, Note_on_c, 0, 53, 85
1, 210520, Note_on_c, 0, 41, 87
1, 210527, Control_c, 0, 64, 42
1, 210530, Note_off_c, 0, 72, 60
1, 210540, Note_off_c, 0, 53, 72
1, 210544, Note_off_c, 0, 41, 70
1, 210550, Note_on_c, 0, 83, 80
1, 210557, Control_c, 0, 64, 42
1, 210572, Control_c, 0, 64, 43
1, 210586, Control_c, 0, 64, 44
1, 210601, Control_c, 0, 64, 46
1, 210616, Control_c, 0, 64, 48
1, 210631, Control_c, 0, 64, 51
1, 210635, Note_on_c, 0, 81, 68
1, 210646, Control_c, 0, 64, 52
1, 210660, Control_c, 0, 64, 54
1, 210675, Note_off_c, 0, 83, 59
1, 210676, Control_c, 0, 64, 54
1, 210721, Control_c, 0, 64, 55
1, 210723, Note_on_c, 0, 63, 72
1, 210723, Note_on_c, 0, 71, 63
1, 210732, Note_on_c, 0, 51, 56
1, 210748, Note_off_c, 0, 63, 67
1, 210751, Note_off_c, 0, 81, 54
1, 210756, Note_off_c, 0, 51, 58
1, 210758, Note_off_c, 0, 71, 57
1, 210765, Control_c, 0, 64, 54
1, 210806, Note_on_c, 0, 84, 77
1, 210875, Note_on_c, 0, 52, 66
1, 210879, Note_on_c, 0, 81, 66
1, 210884, Control_c, 0, 64, 55
1, 210899, Control_c, 0, 64, 56
1, 210900, Note_off_c, 0, 52, 67
1, 210907, Note_off_c, 0, 84, 62
1, 210914, Control_c, 0, 64, 57
1, 210922, Note_off_c, 0, 81, 56
1, 210928, Control_c, 0, 64, 57
1, 210943, Control_c, 0, 64, 58
1, 210952, Note_on_c, 0, 72, 58
1, 211002, Control_c, 0, 64, 57
1, 211003, Note_off_c, 0, 72, 56
1, 211017, Control_c, 0, 64, 57
1, 211022, Note_on_c, 0, 40, 88
1, 211031, Note_on_c, 0, 80, 77
1, 211033, Note_on_c, 0, 52, 51
1, 211045, Note_off_c, 0, 40, 67
1, 211047, Control_c, 0, 64, 56
1, 211061, Control_c, 0, 64, 54
1, 211062, Note_off_c, 0, 52, 35
1, 211076, Control_c, 0, 64, 54
1, 211090, Note_on_c, 0, 74, 62
1, 211091, Control_c, 0, 64, 53
1, 211105, Control_c, 0, 64, 52
1, 211120, Control_c, 0, 64, 52
1, 211134, Control_c, 0, 64, 51
1, 211149, Control_c, 0, 64, 50
1, 211158, Note_on_c, 0, 71, 65
1, 211164, Control_c, 0, 64, 48
1, 211164, Control_c, 0, 67, 9
1, 211167, Note_off_c, 0, 80, 62
1, 211179, Control_c, 0, 64, 46
1, 211179, Control_c, 0, 67, 12
1, 211182, Note_off_c, 0, 74, 61
1, 211194, Control_c, 0, 64, 46
1, 211194, Control_c, 0, 67, 18
1, 211207, Note_on_c, 0, 33, 82
1, 211207, Note_off_c, 0, 71, 57
1, 211209, Control_c, 0, 67, 23
1, 211213, Note_on_c, 0, 45, 70
1, 211224, Control_c, 0, 67, 32
1, 211234, Note_off_c, 0, 33, 67
1, 211234, Note_off_c, 0, 45, 64
1, 211236, Note_on_c, 0, 83, 84
1, 211239, Control_c, 0, 67, 39
1, 211260, Control_c, 0, 67, 44
1, 211275, Control_c, 0, 64, 45
1, 211275, Control_c, 0, 67, 47
1, 211290, Control_c, 0, 67, 50
1, 211305, Control_c, 0, 67, 53
1, 211309, Note_on_c, 0, 74, 62
1, 211320, Control_c, 0, 67, 57
1, 211334, Control_c, 0, 64, 46
1, 211334, Control_c, 0, 67, 62
1, 211349, Control_c, 0, 64, 46
1, 211349, Control_c, 0, 67, 70
1, 211357, Note_off_c, 0, 83, 55
1, 211364, Control_c, 0, 67, 79
1, 211379, Control_c, 0, 64, 47
1, 211379, Control_c, 0, 67, 89
1, 211394, Control_c, 0, 67, 99
1, 211403, Note_on_c, 0, 71, 62
1, 211409, Control_c, 0, 64, 47
1, 211409, Control_c, 0, 67, 109
1, 211416, Note_on_c, 0, 56, 67
1, 211421, Note_off_c, 0, 74, 61
1, 211424, Control_c, 0, 67, 118
1, 211434, Note_on_c, 0, 44, 46
1, 211438, Control_c, 0, 67, 126
1, 211453, Control_c, 0, 67, 127
1, 211465, Note_off_c, 0, 44, 57
1, 211479, Note_off_c, 0, 71, 47
1, 211480, Note_on_c, 0, 81, 79
1, 211483, Control_c, 0, 64, 48
1, 211494, Note_off_c, 0, 56, 60
1, 211513, Control_c, 0, 64, 48
1, 211543, Control_c, 0, 64, 49
1, 211558, Control_c, 0, 64, 50
1, 211563, Note_on_c, 0, 72, 64
1, 211573, Control_c, 0, 64, 52
1, 211578, Note_on_c, 0, 45, 64
1, 211588, Note_on_c, 0, 57, 55
1, 211588, Control_c, 0, 64, 54
1, 211602, Control_c, 0, 64, 56
1, 211607, Note_off_c, 0, 45, 64
1, 211617, Control_c, 0, 64, 58
1, 211632, Control_c, 0, 64, 60
1, 211638, Note_on_c, 0, 69, 67
1, 211643, Note_off_c, 0, 57, 62
1, 211643, Note_off_c, 0, 72, 61
1, 211647, Control_c, 0, 64, 61
1, 211662, Control_c, 0, 64, 63
1, 211676, Control_c, 0, 64, 64
1, 211691, Control_c, 0, 64, 65
1, 211706, Control_c, 0, 64, 66
1, 211721, Control_c, 0, 64, 67
1, 211727, Note_off_c, 0, 69, 62
1, 211728, Note_on_c, 0, 76, 58
1, 211736, Control_c, 0, 64, 68
1, 211749, Note_off_c, 0, 81, 30
1, 211750, Control_c, 0, 64, 69
1, 211765, Control_c, 0, 64, 70
1, 211780, Control_c, 0, 64, 70
1, 211787, Note_on_c, 0, 72, 61
1, 211809, Control_c, 0, 64, 71
1, 211817, Note_off_c, 0, 72, 68
1, 211841, Note_off_c, 0, 76, 67
1, 211898, Note_on_c, 0, 57, 46
1, 211972, Control_c, 0, 64, 70
1, 212026, Note_on_c, 0, 93, 68
1, 212029, Note_on_c, 0, 69, 45
1, 212059, Note_on_c, 0, 81, 22
1, 212069, Control_c, 0, 67, 126
1, 212076, Note_off_c, 0, 69, 60
1, 212083, Control_c, 0, 67, 116
1, 212087, Note_off_c, 0, 57, 31
1, 212097, Note_off_c, 0, 81, 37
1, 212098, Control_c, 0, 67, 105
1, 212105, Note_off_c, 0, 93, 60
1, 212113, Control_c, 0, 67, 94
1, 212128, Control_c, 0, 67, 85
1, 212134, Note_on_c, 0, 90, 28
1, 212143, Control_c, 0, 67, 76
1, 212157, Control_c, 0, 67, 70
1, 212159, Note_off_c, 0, 90, 46
1, 212164, Note_on_c, 0, 64, 18
1, 212172, Control_c, 0, 67, 64
1, 212187, Control_c, 0, 67, 60
1, 212202, Control_c, 0, 67, 56
1, 212208, Note_on_c, 0, 57, 49
1, 212211, Note_off_c, 0, 64, 46
1, 212217, Control_c, 0, 67, 51
1, 212221, Note_on_c, 0, 97, 85
1, 212228, Note_on_c, 0, 85, 75
1, 212231, Control_c, 0, 67, 47
1, 212246, Control_c, 0, 67, 42
1, 212261, Control_c, 0, 67, 37
1, 212263, Note_off_c, 0, 97, 64
1, 212265, Note_off_c, 0, 85, 46
1, 212277, Control_c, 0, 67, 32
1, 212284, Note_on_c, 0, 67, 37
1, 212292, Control_c, 0, 67, 29
1, 212294, Note_on_c, 0, 92, 30
1, 212306, Control_c, 0, 67, 25
1, 212321, Control_c, 0, 64, 70
1, 212321, Control_c, 0, 67, 23
1, 212323, Note_off_c, 0, 57, 38
1, 212327, Note_off_c, 0, 67, 46
1, 212334, Note_off_c, 0, 92, 56
1, 212336, Control_c, 0, 67, 22
1, 212351, Control_c, 0, 64, 69
1, 212351, Control_c, 0, 67, 20
1, 212353, Note_on_c, 0, 64, 44
1, 212366, Control_c, 0, 64, 69
1, 212366, Control_c, 0, 67, 19
1, 212380, Control_c, 0, 67, 19
1, 212394, Note_off_c, 0, 64, 63
1, 212395, Control_c, 0, 64, 68
1, 212398, Note_on_c, 0, 95, 102
1, 212404, Note_on_c, 0, 83, 91
1, 212455, Control_c, 0, 64, 69
1, 212458, Note_on_c, 0, 55, 51
1, 212470, Control_c, 0, 67, 19
1, 212485, Control_c, 0, 67, 20
1, 212499, Control_c, 0, 67, 20
1, 212501, Note_off_c, 0, 83, 57
1, 212504, Note_off_c, 0, 95, 62
1, 212514, Control_c, 0, 67, 21
1, 212529, Control_c, 0, 67, 21
1, 212544, Control_c, 0, 67, 22
1, 212545, Note_on_c, 0, 64, 51
1, 212547, Note_off_c, 0, 55, 54
1, 212559, Control_c, 0, 67, 22
1, 212573, Control_c, 0, 67, 23
1, 212588, Control_c, 0, 67, 24
1, 212590, Note_on_c, 0, 93, 101
1, 212594, Note_on_c, 0, 81, 90
1, 212603, Control_c, 0, 67, 25
1, 212607, Note_off_c, 0, 64, 58
1, 212617, Control_c, 0, 67, 25
1, 212626, Note_off_c, 0, 81, 61
1, 212632, Control_c, 0, 67, 26
1, 212646, Note_on_c, 0, 61, 35
1, 212647, Control_c, 0, 67, 26
1, 212662, Control_c, 0, 64, 69
1, 212662, Control_c, 0, 67, 27
1, 212677, Control_c, 0, 67, 28
1, 212690, Note_off_c, 0, 93, 63
1, 212691, Control_c, 0, 67, 29
1, 212704, Note_on_c, 0, 53, 50
1, 212706, Control_c, 0, 67, 30
1, 212721, Control_c, 0, 67, 31
1, 212736, Control_c, 0, 64, 69
1, 212736, Control_c, 0, 67, 33
1, 212759, Control_c, 0, 64, 66
1, 212759, Control_c, 0, 67, 37
1, 212773, Control_c, 0, 64, 62
1, 212773, Control_c, 0, 67, 39
1, 212788, Control_c, 0, 64, 50
1, 212788, Control_c, 0, 67, 44
1, 212803, Control_c, 0, 64, 31
1, 212803, Control_c, 0, 67, 50
1, 212815, Note_off_c, 0, 61, 30
1, 212818, Control_c, 0, 64, 18
1, 212818, Control_c, 0, 67, 58
1, 212819, Note_on_c, 0, 98, 90
1, 212832, Control_c, 0, 64, 31
1, 212832, Control_c, 0, 67, 68
1, 212834, Note_on_c, 0, 65, 36
1, 212835, Note_on_c, 0, 86, 60
1, 212847, Control_c, 0, 64, 50
1, 212847, Control_c, 0, 67, 78
1, 212862, Control_c, 0, 64, 62
1, 212862, Control_c, 0, 67, 86
1, 212872, Note_off_c, 0, 65, 52
1, 212877, Note_off_c, 0, 53, 33
1, 212877, Control_c, 0, 64, 65
1, 212877, Control_c, 0, 67, 94
1, 212884, Note_off_c, 0, 98, 65
1, 212892, Control_c, 0, 64, 67
1, 212892, Control_c, 0, 67, 101
1, 212906, Control_c, 0, 64, 69
1, 212906, Control_c, 0, 67, 108
1, 212916, Note_off_c, 0, 86, 63
1, 212919, Note_on_c, 0, 57, 44
1, 212921, Control_c, 0, 64, 70
1, 212921, Control_c, 0, 67, 114
1, 212936, Control_c, 0, 64, 71
1, 212936, Control_c, 0, 67, 117
1, 212950, Control_c, 0, 64, 72
1, 212950, Control_c, 0, 67, 119
1, 212965, Control_c, 0, 64, 73
1, 212965, Control_c, 0, 67, 121
1, 212968, Note_off_c, 0, 57, 59
1, 212980, Control_c, 0, 67, 123
1, 212995, Control_c, 0, 67, 124
1, 213007, Note_on_c, 0, 52, 55
1, 213010, Control_c, 0, 67, 125
1, 213024, Control_c, 0, 67, 127
1, 213026, Note_on_c, 0, 93, 95
1, 213033, Note_on_c, 0, 81, 80
1, 213082, Note_off_c, 0, 52, 63
1, 213096, Note_on_c, 0, 61, 59
1, 213106, Note_off_c, 0, 93, 55
1, 213126, Note_off_c, 0, 81, 37
1, 213166, Note_off_c, 0, 61, 58
1, 213207, Note_on_c, 0, 57, 43
1, 213210, Note_on_c, 0, 91, 101
1, 213212, Note_on_c, 0, 79, 94
1, 213222, Note_on_c, 0, 50, 61
1, 213305, Note_off_c, 0, 91, 58
1, 213309, Note_off_c, 0, 79, 56
1, 213322, Note_off_c, 0, 50, 60
1, 213344, Note_off_c, 0, 57, 61
1, 213347, Note_on_c, 0, 62, 65
1, 213400, Note_on_c, 0, 89, 96
1, 213400, Note_off_c, 0, 62, 54
1, 213406, Note_on_c, 0, 77, 79
1, 213429, Note_off_c, 0, 77, 55
1, 213506, Note_off_c, 0, 89, 65
1, 213513, Note_on_c, 0, 55, 49
1, 213537, Control_c, 0, 64, 71
1, 213552, Control_c, 0, 64, 66
1, 213567, Control_c, 0, 64, 47
1, 213582, Control_c, 0, 64, 0
1, 213621, Note_on_c, 0, 67, 55
1, 213626, Control_c, 0, 64, 46
1, 213631, Note_on_c, 0, 91, 75
1, 213633, Note_on_c, 0, 79, 63
1, 213641, Control_c, 0, 64, 61
1, 213656, Control_c, 0, 64, 65
1, 213664, Note_off_c, 0, 79, 48
1, 213671, Control_c, 0, 64, 67
1, 213686, Control_c, 0, 64, 69
1, 213696, Note_off_c, 0, 67, 57
1, 213701, Control_c, 0, 64, 72
1, 213705, Note_off_c, 0, 55, 40
1, 213716, Control_c, 0, 64, 73
1, 213725, Note_on_c, 0, 62, 49
1, 213730, Control_c, 0, 64, 74
1, 213740, Note_off_c, 0, 91, 56
1, 213806, Note_off_c, 0, 62, 53
1, 213825, Note_on_c, 0, 95, 86
1, 213829, Note_on_c, 0, 55, 47
1, 213844, Note_on_c, 0, 83, 52
1, 213863, Note_on_c, 0, 60, 15
1, 213877, Note_off_c, 0, 83, 47
1, 213886, Note_off_c, 0, 95, 63
1, 213904, Note_off_c, 0, 60, 40
1, 213931, Note_on_c, 0, 65, 49
1, 213976, Note_off_c, 0, 65, 49
1, 213999, Note_on_c, 0, 93, 83
1, 214002, Note_off_c, 0, 55, 43
1, 214005, Note_on_c, 0, 60, 54
1, 214011, Note_on_c, 0, 81, 58
1, 214014, Note_on_c, 0, 95, 54
1, 214015, Note_off_c, 0, 95, 127
1, 214034, Note_off_c, 0, 60, 55
1, 214056, Note_off_c, 0, 81, 39
1, 214065, Note_off_c, 0, 93, 60
1, 214154, Note_on_c, 0, 52, 24
1, 214160, Note_on_c, 0, 62, 53
1, 214186, Note_on_c, 0, 91, 87
1, 214192, Note_on_c, 0, 79, 70
1, 214203, Note_off_c, 0, 52, 46
1, 214211, Note_off_c, 0, 79, 58
1, 214222, Note_off_c, 0, 62, 55
1, 214249, Note_on_c, 0, 59, 49
1, 214267, Note_off_c, 0, 91, 60
1, 214301, Control_c, 0, 64, 73
1, 214311, Note_on_c, 0, 52, 77
1, 214316, Control_c, 0, 64, 68
1, 214331, Control_c, 0, 64, 57
1, 214346, Control_c, 0, 64, 0
1, 214357, Note_off_c, 0, 59, 0
1, 214380, Note_on_c, 0, 96, 91
1, 214388, Note_on_c, 0, 84, 81
1, 214390, Control_c, 0, 64, 42
1, 214394, Poly_aftertouch_c, 0, 59, 0
1, 214404, Control_c, 0, 64, 58
1, 214407, Note_on_c, 0, 64, 81
1, 214419, Control_c, 0, 64, 63
1, 214423, Note_off_c, 0, 96, 64
1, 214432, Note_off_c, 0, 84, 52
1, 214434, Control_c, 0, 64, 65
1, 214449, Control_c, 0, 64, 66
1, 214452, Poly_aftertouch_c, 0, 59, 0
1, 214464, Control_c, 0, 64, 67
1, 214479, Control_c, 0, 64, 68
1, 214484, Note_off_c, 0, 52, 63
1, 214486, Note_off_c, 0, 64, 56
1, 214494, Control_c, 0, 64, 68
1, 214536, Note_on_c, 0, 55, 44
1, 214539, Control_c, 0, 64, 69
1, 214568, Control_c, 0, 64, 69
1, 214579, Note_off_c, 0, 55, 49
1, 214582, Note_on_c, 0, 91, 82
1, 214591, Note_on_c, 0, 79, 67
1, 214597, Control_c, 0, 64, 70
1, 214627, Control_c, 0, 64, 70
1, 214628, Note_on_c, 0, 50, 41
1, 214634, Note_off_c, 0, 79, 54
1, 214640, Note_off_c, 0, 91, 57
1, 214694, Note_on_c, 0, 59, 49
1, 214702, Control_c, 0, 64, 71
1, 214715, Note_off_c, 0, 50, 37
1, 214775, Note_on_c, 0, 89, 86
1, 214776, Control_c, 0, 64, 71
1, 214777, Note_off_c, 0, 59, 52
1, 214781, Note_on_c, 0, 77, 72
1, 214789, Note_on_c, 0, 55, 52
1, 214820, Control_c, 0, 64, 72
1, 214834, Note_off_c, 0, 77, 51
1, 214837, Note_off_c, 0, 89, 59
1, 214839, Note_on_c, 0, 48, 62
1, 214850, Control_c, 0, 64, 72
1, 214855, Note_off_c, 0, 55, 63
1, 214909, Control_c, 0, 64, 73
1, 214914, Note_on_c, 0, 60, 58
1, 214917, Note_off_c, 0, 48, 55
1, 214939, Control_c, 0, 64, 73
1, 214954, Note_on_c, 0, 88, 87
1, 214954, Control_c, 0, 64, 74
1, 214956, Note_off_c, 0, 60, 62
1, 214959, Note_on_c, 0, 76, 74
1, 214966, Note_on_c, 0, 55, 57
1, 214968, Control_c, 0, 64, 75
1, 214983, Control_c, 0, 64, 75
1, 215013, Note_off_c, 0, 55, 66
1, 215021, Control_c, 0, 64, 76
1, 215030, Note_off_c, 0, 76, 58
1, 215044, Note_off_c, 0, 88, 53
1, 215060, Note_on_c, 0, 46, 86
1, 215065, Control_c, 0, 64, 75
1, 215080, Control_c, 0, 64, 70
1, 215093, Note_off_c, 0, 46, 64
1, 215095, Control_c, 0, 64, 60
1, 215109, Control_c, 0, 64, 13
1, 215124, Control_c, 0, 64, 37
1, 215139, Control_c, 0, 64, 49
1, 215154, Control_c, 0, 64, 57
1, 215169, Control_c, 0, 64, 63
1, 215171, Note_on_c, 0, 65, 92
1, 215175, Note_on_c, 0, 86, 90
1, 215176, Note_on_c, 0, 74, 80
1, 215183, Control_c, 0, 64, 65
1, 215198, Control_c, 0, 64, 66
1, 215213, Control_c, 0, 64, 67
1, 215218, Note_off_c, 0, 74, 63
1, 215223, Note_off_c, 0, 65, 65
1, 215227, Control_c, 0, 64, 68
1, 215272, Note_off_c, 0, 86, 63
1, 215287, Control_c, 0, 64, 68
1, 215302, Control_c, 0, 64, 69
1, 215317, Control_c, 0, 64, 70
1, 215318, Note_on_c, 0, 53, 55
1, 215332, Control_c, 0, 64, 70
1, 215346, Control_c, 0, 64, 71
1, 215364, Note_off_c, 0, 53, 66
1, 215376, Control_c, 0, 64, 72
1, 215383, Note_on_c, 0, 89, 87
1, 215388, Note_on_c, 0, 50, 49
1, 215388, Note_on_c, 0, 77, 69
1, 215406, Control_c, 0, 64, 72
1, 215413, Note_off_c, 0, 50, 57
1, 215414, Note_off_c, 0, 77, 55
1, 215435, Control_c, 0, 64, 73
1, 215455, Note_off_c, 0, 89, 62
1, 215466, Control_c, 0, 64, 73
1, 215555, Control_c, 0, 64, 74
1, 215559, Note_on_c, 0, 93, 86
1, 215561, Note_on_c, 0, 53, 55
1, 215572, Note_on_c, 0, 81, 54
1, 215591, Note_off_c, 0, 81, 56
1, 215613, Note_off_c, 0, 53, 62
1, 215619, Note_off_c, 0, 93, 61
1, 215671, Note_on_c, 0, 62, 59
1, 215702, Control_c, 0, 64, 74
1, 215712, Note_off_c, 0, 62, 59
1, 215722, Note_on_c, 0, 94, 87
1, 215731, Note_on_c, 0, 82, 75
1, 215731, Control_c, 0, 64, 75
1, 215738, Note_on_c, 0, 53, 69
1, 215754, Control_c, 0, 64, 75
1, 215758, Note_off_c, 0, 94, 61
1, 215765, Note_off_c, 0, 82, 56
1, 215773, Note_off_c, 0, 53, 67
1, 215784, Control_c, 0, 64, 76
1, 215833, Note_on_c, 0, 45, 87
1, 215843, Control_c, 0, 64, 73
1, 215857, Control_c, 0, 64, 66
1, 215862, Note_off_c, 0, 45, 69
1, 215872, Control_c, 0, 64, 19
1, 215887, Control_c, 0, 64, 0
1, 215917, Control_c, 0, 64, 31
1, 215930, Note_on_c, 0, 64, 91
1, 215931, Control_c, 0, 64, 54
1, 215946, Control_c, 0, 64, 62
1, 215949, Note_on_c, 0, 84, 90
1, 215949, Note_on_c, 0, 72, 85
1, 215961, Control_c, 0, 64, 64
1, 215967, Note_off_c, 0, 72, 72
1, 215975, Control_c, 0, 64, 65
1, 215977, Note_off_c, 0, 64, 62
1, 216003, Note_off_c, 0, 84, 62
1, 216005, Control_c, 0, 64, 65
1, 216020, Control_c, 0, 64, 66
1, 216050, Control_c, 0, 64, 66
1, 216052, Note_on_c, 0, 52, 32
1, 216065, Control_c, 0, 64, 67
1, 216080, Control_c, 0, 64, 68
1, 216095, Control_c, 0, 64, 69
1, 216105, Note_off_c, 0, 52, 65
1, 216110, Control_c, 0, 64, 69
1, 216114, Note_on_c, 0, 48, 58
1, 216124, Control_c, 0, 64, 70
1, 216138, Note_on_c, 0, 88, 85
1, 216138, Note_off_c, 0, 48, 59
1, 216139, Control_c, 0, 64, 70
1, 216149, Note_on_c, 0, 76, 61
1, 216154, Control_c, 0, 64, 71
1, 216167, Note_off_c, 0, 76, 63
1, 216168, Control_c, 0, 64, 72
1, 216193, Note_off_c, 0, 88, 62
1, 216193, Note_on_c, 0, 62, 60
1, 216213, Control_c, 0, 64, 72
1, 216228, Control_c, 0, 64, 73
1, 216241, Note_off_c, 0, 62, 53
1, 216257, Control_c, 0, 64, 73
1, 216288, Control_c, 0, 64, 74
1, 216318, Control_c, 0, 64, 74
1, 216321, Note_on_c, 0, 92, 88
1, 216329, Note_on_c, 0, 80, 70
1, 216338, Note_on_c, 0, 52, 26
1, 216345, Note_on_c, 0, 48, 60
1, 216348, Control_c, 0, 64, 75
1, 216363, Control_c, 0, 64, 75
1, 216387, Note_off_c, 0, 52, 45
1, 216407, Note_off_c, 0, 92, 63
1, 216409, Note_off_c, 0, 80, 32
1, 216423, Note_on_c, 0, 59, 56
1, 216470, Note_off_c, 0, 59, 56
1, 216481, Control_c, 0, 64, 76
1, 216503, Control_c, 0, 64, 76
1, 216505, Note_on_c, 0, 93, 85
1, 216506, Note_off_c, 0, 48, 32
1, 216515, Note_on_c, 0, 81, 72
1, 216522, Note_off_c, 0, 93, 70
1, 216533, Control_c, 0, 64, 77
1, 216541, Note_off_c, 0, 81, 66
1, 216548, Control_c, 0, 64, 77
1, 216563, Control_c, 0, 64, 78
1, 216601, Note_on_c, 0, 53, 102
1, 216607, Control_c, 0, 64, 77
1, 216622, Control_c, 0, 64, 73
1, 216637, Control_c, 0, 64, 60
1, 216652, Control_c, 0, 64, 0
1, 216696, Control_c, 0, 64, 31
1, 216711, Control_c, 0, 64, 56
1, 216715, Note_on_c, 0, 59, 71
1, 216721, Note_off_c, 0, 53, 62
1, 216726, Control_c, 0, 64, 63
1, 216732, Note_on_c, 0, 74, 83
1, 216733, Note_on_c, 0, 86, 93
1, 216741, Control_c, 0, 64, 65
1, 216755, Control_c, 0, 64, 66
1, 216763, Note_off_c, 0, 59, 47
1, 216768, Note_off_c, 0, 74, 67
1, 216770, Control_c, 0, 64, 67
1, 216785, Control_c, 0, 64, 68
1, 216787, Note_on_c, 0, 57, 69
1, 216799, Control_c, 0, 64, 68
1, 216813, Note_off_c, 0, 86, 62
1, 216814, Control_c, 0, 64, 69
1, 216845, Note_off_c, 0, 57, 62
1, 216873, Control_c, 0, 64, 69
1, 216877, Note_on_c, 0, 52, 62
1, 216885, Note_on_c, 0, 60, 65
1, 216888, Control_c, 0, 64, 70
1, 216902, Note_off_c, 0, 60, 64
1, 216903, Control_c, 0, 64, 71
1, 216906, Note_on_c, 0, 87, 97
1, 216911, Note_on_c, 0, 75, 86
1, 216918, Control_c, 0, 64, 71
1, 216919, Note_off_c, 0, 52, 68
1, 216933, Control_c, 0, 64, 72
1, 216978, Note_on_c, 0, 43, 74
1, 216984, Note_off_c, 0, 75, 62
1, 216989, Note_off_c, 0, 87, 63
1, 217007, Control_c, 0, 64, 71
1, 217025, Note_off_c, 0, 43, 58
1, 217052, Control_c, 0, 64, 71
1, 217081, Note_on_c, 0, 56, 82
1, 217084, Note_on_c, 0, 88, 99
1, 217086, Note_on_c, 0, 76, 92
1, 217114, Note_off_c, 0, 88, 64
1, 217117, Note_off_c, 0, 76, 68
1, 217123, Note_off_c, 0, 56, 57
1, 217185, Note_on_c, 0, 45, 69
1, 217218, Note_off_c, 0, 45, 65
1, 217253, Control_c, 0, 64, 71
1, 217258, Note_on_c, 0, 83, 88
1, 217263, Note_on_c, 0, 71, 77
1, 217272, Note_on_c, 0, 59, 61
1, 217278, Note_off_c, 0, 71, 67
1, 217280, Note_off_c, 0, 83, 60
1, 217290, Note_off_c, 0, 59, 63
1, 217297, Control_c, 0, 64, 72
1, 217327, Control_c, 0, 64, 71
1, 217342, Control_c, 0, 64, 70
1, 217357, Control_c, 0, 64, 65
1, 217362, Note_on_c, 0, 45, 62
1, 217371, Control_c, 0, 64, 32
1, 217386, Control_c, 0, 64, 0
1, 217436, Note_on_c, 0, 84, 85
1, 217439, Note_on_c, 0, 57, 62
1, 217440, Note_on_c, 0, 72, 73
1, 217455, Note_off_c, 0, 72, 69
1, 217460, Control_c, 0, 64, 25
1, 217472, Note_off_c, 0, 84, 62
1, 217475, Control_c, 0, 64, 54
1, 217490, Control_c, 0, 64, 59
1, 217505, Control_c, 0, 64, 61
1, 217505, Note_off_c, 0, 57, 48
1, 217517, Note_off_c, 0, 45, 27
1, 217520, Control_c, 0, 64, 62
1, 217534, Control_c, 0, 64, 63
1, 217539, Note_on_c, 0, 52, 52
1, 217549, Control_c, 0, 64, 64
1, 217564, Control_c, 0, 64, 64
1, 217579, Control_c, 0, 64, 65
1, 217609, Control_c, 0, 64, 66
1, 217610, Note_on_c, 0, 88, 86
1, 217621, Note_on_c, 0, 76, 59
1, 217638, Control_c, 0, 64, 66
1, 217639, Note_off_c, 0, 76, 62
1, 217648, Note_off_c, 0, 88, 62
1, 217653, Control_c, 0, 64, 67
1, 217662, Note_off_c, 0, 52, 53
1, 217667, Note_on_c, 0, 48, 52
1, 217668, Control_c, 0, 64, 67
1, 217712, Control_c, 0, 64, 68
1, 217729, Note_off_c, 0, 48, 61
1, 217824, Note_on_c, 0, 92, 80
1, 217840, Note_on_c, 0, 80, 54
1, 217845, Control_c, 0, 64, 67
1, 217891, Control_c, 0, 64, 67
1, 217940, Note_off_c, 0, 92, 61
1, 217946, Note_on_c, 0, 45, 44
1, 217950, Control_c, 0, 64, 66
1, 217957, Note_off_c, 0, 80, 37
1, 217965, Control_c, 0, 64, 66
1, 218001, Note_off_c, 0, 45, 51
1, 218002, Control_c, 0, 64, 65
1, 218032, Control_c, 0, 64, 65
1, 218076, Control_c, 0, 64, 64
1, 218120, Control_c, 0, 64, 64
1, 218150, Control_c, 0, 64, 63
1, 218164, Control_c, 0, 64, 63
1, 218179, Control_c, 0, 64, 62
1, 218181, Note_on_c, 0, 81, 38
1, 218181, Note_on_c, 0, 93, 59
1, 218194, Control_c, 0, 64, 61
1, 218209, Control_c, 0, 64, 59
1, 218224, Control_c, 0, 64, 55
1, 218238, Control_c, 0, 64, 50
1, 218253, Control_c, 0, 64, 44
1, 218268, Control_c, 0, 64, 35
1, 218283, Control_c, 0, 64, 19
1, 218298, Control_c, 0, 64, 0
1, 218342, Note_on_c, 0, 33, 28
1, 218446, Control_c, 0, 64, 19
1, 218461, Control_c, 0, 64, 50
1, 218476, Control_c, 0, 64, 56
1, 218491, Control_c, 0, 64, 59
1, 218506, Control_c, 0, 64, 61
1, 218520, Control_c, 0, 64, 63
1, 218535, Control_c, 0, 64, 64
1, 218536, Note_off_c, 0, 81, 32
1, 218549, Note_off_c, 0, 33, 53
1, 218550, Control_c, 0, 64, 64
1, 218552, Note_off_c, 0, 93, 37
1, 218564, Control_c, 0, 64, 65
1, 218579, Control_c, 0, 64, 66
1, 218594, Control_c, 0, 64, 67
1, 218609, Control_c, 0, 64, 67
1, 218624, Control_c, 0, 64, 68
1, 218638, Control_c, 0, 64, 68
1, 218869, Control_c, 0, 64, 68
1, 218944, Control_c, 0, 64, 67
1, 218988, Control_c, 0, 64, 67
1, 219240, Control_c, 0, 64, 66
1, 219299, Control_c, 0, 64, 66
1, 219329, Control_c, 0, 64, 65
1, 219357, Control_c, 0, 64, 65
1, 219372, Control_c, 0, 64, 64
1, 219386, Control_c, 0, 64, 64
1, 219401, Control_c, 0, 64, 63
1, 219416, Control_c, 0, 64, 61
1, 219431, Control_c, 0, 64, 59
1, 219446, Control_c, 0, 64, 57
1, 219462, Control_c, 0, 64, 54
1, 219477, Control_c, 0, 64, 51
1, 219499, Control_c, 0, 64, 46
1, 219514, Control_c, 0, 64, 40
1, 219529, Control_c, 0, 64, 33
1, 219544, Control_c, 0, 64, 26
1, 219558, Control_c, 0, 64, 13
1, 219573, Control_c, 0, 64, 0
1, 219573, Control_c, 0, 67, 124
1, 219588, Control_c, 0, 67, 116
1, 219603, Control_c, 0, 67, 106
1, 219617, Control_c, 0, 67, 96
1, 219632, Control_c, 0, 67, 86
1, 219647, Control_c, 0, 67, 76
1, 219662, Control_c, 0, 67, 67
1, 219677, Control_c, 0, 67, 59
1, 219691, Control_c, 0, 67, 51
1, 219706, Control_c, 0, 67, 42
1, 219721, Control_c, 0, 67, 35
1, 219736, Control_c, 0, 67, 30
1, 219751, Control_c, 0, 67, 27
1, 219765, Control_c, 0, 67, 24
1, 219780, Control_c, 0, 67, 24
1, 219824, Control_c, 0, 67, 25
1, 219839, Control_c, 0, 67, 26
1, 219854, Control_c, 0, 67, 28
1, 219869, Control_c, 0, 67, 29
1, 219884, Control_c, 0, 67, 30
1, 219898, Control_c, 0, 67, 32
1, 219913, Control_c, 0, 67, 33
1, 219926, Note_on_c, 0, 72, 36
1, 219928, Control_c, 0, 67, 34
1, 219931, Note_on_c, 0, 76, 49
1, 219943, Control_c, 0, 67, 35
1, 219954, Note_off_c, 0, 76, 56
1, 219955, Note_off_c, 0, 72, 45
1, 219958, Control_c, 0, 67, 37
1, 219973, Control_c, 0, 67, 40
1, 219978, Note_on_c, 0, 81, 57
1, 219988, Control_c, 0, 67, 43
1, 219994, Note_on_c, 0, 69, 19
1, 220003, Control_c, 0, 67, 46
1, 220009, Note_off_c, 0, 81, 64
1, 220013, Note_on_c, 0, 84, 50
1, 220017, Control_c, 0, 67, 49
1, 220020, Note_on_c, 0, 64, 44
1, 220032, Control_c, 0, 67, 51
1, 220032, Note_off_c, 0, 69, 30
1, 220035, Note_off_c, 0, 84, 60
1, 220047, Note_off_c, 0, 64, 50
1, 220047, Control_c, 0, 67, 54
1, 220062, Control_c, 0, 67, 56
1, 220077, Control_c, 0, 67, 59
1, 220081, Note_on_c, 0, 88, 85
1, 220092, Control_c, 0, 67, 63
1, 220107, Control_c, 0, 67, 67
1, 220111, Note_off_c, 0, 88, 54
1, 220119, Note_on_c, 0, 57, 37
1, 220122, Control_c, 0, 67, 70
1, 220134, Note_on_c, 0, 100, 85
1, 220136, Control_c, 0, 67, 73
1, 220148, Note_on_c, 0, 45, 57
1, 220151, Control_c, 0, 67, 75
1, 220156, Note_off_c, 0, 57, 61
1, 220166, Control_c, 0, 67, 78
1, 220176, Note_off_c, 0, 45, 55
1, 220181, Control_c, 0, 67, 80
1, 220196, Control_c, 0, 67, 81
1, 220210, Control_c, 0, 67, 83
1, 220225, Control_c, 0, 67, 86
1, 220244, Note_off_c, 0, 100, 50
1, 220247, Control_c, 0, 67, 89
1, 220263, Control_c, 0, 67, 93
1, 220278, Control_c, 0, 67, 97
1, 220293, Control_c, 0, 67, 102
1, 220308, Control_c, 0, 67, 108
1, 220322, Control_c, 0, 67, 111
1, 220337, Note_on_c, 0, 48, 50
1, 220337, Note_on_c, 0, 52, 45
1, 220337, Control_c, 0, 67, 113
1, 220342, Note_on_c, 0, 93, 58
1, 220342, Note_on_c, 0, 96, 60
1, 220352, Control_c, 0, 67, 114
1, 220367, Control_c, 0, 67, 115
1, 220368, Note_off_c, 0, 52, 55
1, 220369, Note_off_c, 0, 93, 57
1, 220379, Note_off_c, 0, 96, 58
1, 220380, Note_off_c, 0, 48, 61
1, 220382, Control_c, 0, 67, 116
1, 220411, Control_c, 0, 67, 116
1, 220492, Note_on_c, 0, 88, 66
1, 220497, Note_on_c, 0, 57, 43
1, 220500, Control_c, 0, 67, 117
1, 220523, Note_off_c, 0, 57, 59
1, 220542, Note_off_c, 0, 88, 58
1, 220641, Note_on_c, 0, 60, 44
1, 220647, Note_on_c, 0, 64, 42
1, 220649, Note_on_c, 0, 81, 49
1, 220652, Note_on_c, 0, 84, 46
1, 220667, Note_off_c, 0, 60, 56
1, 220682, Note_off_c, 0, 64, 49
1, 220691, Note_off_c, 0, 81, 45
1, 220726, Note_off_c, 0, 84, 51
1, 220752, Control_c, 0, 64, 18
1, 220766, Control_c, 0, 64, 26
1, 220781, Control_c, 0, 64, 33
1, 220781, Control_c, 0, 67, 117
1, 220788, Note_on_c, 0, 76, 57
1, 220790, Note_on_c, 0, 69, 60
1, 220796, Control_c, 0, 64, 39
1, 220810, Note_off_c, 0, 76, 64
1, 220811, Control_c, 0, 64, 43
1, 220811, Control_c, 0, 67, 118
1, 220819, Note_off_c, 0, 69, 63
1, 220826, Control_c, 0, 64, 46
1, 220826, Control_c, 0, 67, 118
1, 220840, Control_c, 0, 64, 47
1, 220855, Control_c, 0, 67, 121
1, 220870, Control_c, 0, 64, 48
1, 220870, Control_c, 0, 67, 125
1, 220885, Control_c, 0, 67, 127
1, 220936, Note_on_c, 0, 68, 73
1, 220945, Control_c, 0, 64, 47
1, 220951, Note_on_c, 0, 71, 24
1, 220964, Note_on_c, 0, 76, 55
1, 220966, Note_off_c, 0, 68, 67
1, 220974, Control_c, 0, 64, 46
1, 220993, Note_off_c, 0, 71, 39
1, 220996, Control_c, 0, 64, 46
1, 221010, Note_on_c, 0, 59, 47
1, 221011, Control_c, 0, 64, 45
1, 221024, Note_off_c, 0, 76, 66
1, 221026, Control_c, 0, 64, 44
1, 221030, Note_on_c, 0, 80, 62
1, 221034, Note_off_c, 0, 59, 56
1, 221052, Note_off_c, 0, 80, 64
1, 221055, Control_c, 0, 64, 44
1, 221071, Control_c, 0, 64, 43
1, 221086, Control_c, 0, 64, 42
1, 221097, Note_on_c, 0, 83, 78
1, 221101, Control_c, 0, 64, 41
1, 221116, Control_c, 0, 64, 40
1, 221138, Note_on_c, 0, 40, 64
1, 221138, Note_on_c, 0, 95, 89
1, 221138, Note_off_c, 0, 83, 43
1, 221145, Control_c, 0, 64, 40
1, 221182, Note_off_c, 0, 40, 51
1, 221204, Control_c, 0, 64, 40
1, 221234, Control_c, 0, 64, 41
1, 221237, Note_off_c, 0, 95, 50
1, 221249, Control_c, 0, 64, 41
1, 221264, Control_c, 0, 64, 42
1, 221278, Control_c, 0, 64, 42
1, 221293, Control_c, 0, 64, 43
1, 221294, Note_on_c, 0, 92, 68
1, 221299, Note_on_c, 0, 88, 56
1, 221307, Note_on_c, 0, 47, 39
1, 221311, Note_on_c, 0, 44, 33
1, 221323, Control_c, 0, 64, 43
1, 221326, Note_off_c, 0, 88, 58
1, 221331, Note_off_c, 0, 92, 53
1, 221344, Note_off_c, 0, 47, 51
1, 221352, Note_off_c, 0, 44, 49
1, 221455, Note_on_c, 0, 52, 56
1, 221462, Note_on_c, 0, 83, 61
1, 221489, Note_off_c, 0, 52, 66
1, 221496, Note_off_c, 0, 83, 57
1, 221595, Note_on_c, 0, 56, 56
1, 221609, Note_on_c, 0, 80, 42
1, 221619, Note_on_c, 0, 59, 23
1, 221622, Note_on_c, 0, 76, 17
1, 221658, Note_off_c, 0, 56, 45
1, 221659, Note_off_c, 0, 80, 46
1, 221663, Note_off_c, 0, 59, 47
1, 221663, Note_off_c, 0, 76, 48
1, 221663, Control_c, 0, 64, 44
1, 221678, Control_c, 0, 64, 44
1, 221708, Control_c, 0, 64, 45
1, 221723, Control_c, 0, 64, 45
1, 221743, Note_on_c, 0, 64, 64
1, 221745, Control_c, 0, 64, 46
1, 221779, Note_off_c, 0, 64, 64
1, 221804, Control_c, 0, 64, 46
1, 221891, Note_on_c, 0, 64, 62
1, 221896, Note_on_c, 0, 60, 60
1, 221909, Control_c, 0, 64, 46
1, 221915, Note_off_c, 0, 60, 61
1, 221920, Note_off_c, 0, 64, 66
1, 221935, Note_on_c, 0, 69, 67
1, 221954, Control_c, 0, 64, 45
1, 221956, Note_on_c, 0, 57, 4
1, 221957, Note_off_c, 0, 57, 127
1, 221958, Note_on_c, 0, 72, 71
1, 221959, Note_on_c, 0, 52, 65
1, 221967, Note_off_c, 0, 69, 68
1, 221970, Note_on_c, 0, 54, 32
1, 221981, Note_off_c, 0, 52, 67
1, 221982, Note_off_c, 0, 72, 69
1, 221998, Control_c, 0, 64, 45
1, 222005, Note_off_c, 0, 54, 32
1, 222028, Note_on_c, 0, 76, 85
1, 222042, Control_c, 0, 64, 44
1, 222068, Note_on_c, 0, 88, 87
1, 222072, Control_c, 0, 64, 45
1, 222076, Note_on_c, 0, 33, 68
1, 222099, Note_off_c, 0, 76, 55
1, 222111, Note_off_c, 0, 33, 61
1, 222116, Control_c, 0, 64, 45
1, 222161, Note_off_c, 0, 88, 53
1, 222237, Note_on_c, 0, 81, 52
1, 222237, Note_on_c, 0, 84, 58
1, 222249, Note_on_c, 0, 40, 34
1, 222250, Note_on_c, 0, 36, 35
1, 222259, Note_off_c, 0, 81, 58
1, 222280, Note_off_c, 0, 84, 57
1, 222297, Note_off_c, 0, 36, 47
1, 222297, Note_off_c, 0, 40, 45
1, 222381, Control_c, 0, 64, 46
1, 222388, Note_on_c, 0, 45, 41
1, 222395, Note_on_c, 0, 76, 53
1, 222417, Note_off_c, 0, 45, 59
1, 222420, Note_off_c, 0, 76, 61
1, 222426, Control_c, 0, 64, 47
1, 222507, Control_c, 0, 64, 47
1, 222522, Control_c, 0, 64, 48
1, 222533, Note_on_c, 0, 72, 48
1, 222536, Control_c, 0, 64, 48
1, 222542, Note_on_c, 0, 48, 42
1, 222551, Note_on_c, 0, 52, 33
1, 222551, Control_c, 0, 64, 49
1, 222554, Note_on_c, 0, 69, 25
1, 222566, Control_c, 0, 64, 50
1, 222581, Control_c, 0, 64, 51
1, 222586, Note_off_c, 0, 48, 51
1, 222590, Note_off_c, 0, 69, 47
1, 222596, Control_c, 0, 64, 51
1, 222602, Note_off_c, 0, 52, 54
1, 222611, Control_c, 0, 64, 52
1, 222623, Note_off_c, 0, 72, 55
1, 222626, Control_c, 0, 64, 52
1, 222641, Control_c, 0, 64, 53
1, 222641, Control_c, 0, 67, 126
1, 222656, Control_c, 0, 64, 54
1, 222656, Control_c, 0, 67, 123
1, 222668, Note_on_c, 0, 64, 61
1, 222671, Control_c, 0, 64, 54
1, 222671, Control_c, 0, 67, 120
1, 222672, Note_on_c, 0, 57, 54
1, 222686, Control_c, 0, 64, 55
1, 222686, Control_c, 0, 67, 116
1, 222688, Note_off_c, 0, 64, 63
1, 222700, Note_off_c, 0, 57, 63
1, 222701, Control_c, 0, 64, 55
1, 222701, Control_c, 0, 67, 112
1, 222715, Control_c, 0, 67, 110
1, 222730, Control_c, 0, 64, 56
1, 222730, Control_c, 0, 67, 108
1, 222745, Control_c, 0, 67, 106
1, 222760, Control_c, 0, 67, 106
1, 222775, Control_c, 0, 67, 105
1, 222790, Control_c, 0, 67, 105
1, 222824, Note_on_c, 0, 59, 30
1, 222830, Note_on_c, 0, 56, 61
1, 222834, Control_c, 0, 67, 105
1, 222854, Note_off_c, 0, 56, 64
1, 222855, Note_off_c, 0, 59, 45
1, 222859, Note_on_c, 0, 64, 49
1, 222864, Control_c, 0, 67, 106
1, 222879, Control_c, 0, 64, 55
1, 222882, Note_on_c, 0, 47, 57
1, 222882, Note_on_c, 0, 52, 3
1, 222903, Note_on_c, 0, 68, 66
1, 222906, Note_off_c, 0, 64, 65
1, 222908, Control_c, 0, 64, 55
1, 222909, Note_off_c, 0, 47, 66
1, 222916, Note_off_c, 0, 52, 27
1, 222923, Control_c, 0, 64, 54
1, 222933, Note_off_c, 0, 68, 54
1, 222967, Control_c, 0, 64, 54
1, 222982, Note_on_c, 0, 71, 75
1, 222982, Control_c, 0, 64, 53
1, 223012, Control_c, 0, 64, 53
1, 223026, Control_c, 0, 64, 52
1, 223056, Control_c, 0, 64, 52
1, 223071, Control_c, 0, 64, 51
1, 223087, Control_c, 0, 64, 51
1, 223102, Control_c, 0, 64, 49
1, 223102, Control_c, 0, 67, 106
1, 223104, Note_on_c, 0, 80, 73
1, 223105, Note_on_c, 0, 83, 78
1, 223116, Control_c, 0, 64, 47
1, 223118, Note_on_c, 0, 28, 56
1, 223131, Control_c, 0, 64, 43
1, 223131, Control_c, 0, 67, 107
1, 223146, Control_c, 0, 64, 38
1, 223156, Note_off_c, 0, 71, 24
1, 223160, Control_c, 0, 64, 32
1, 223175, Control_c, 0, 64, 24
1, 223190, Control_c, 0, 64, 10
1, 223205, Control_c, 0, 64, 0
1, 223272, Control_c, 0, 67, 107
1, 223316, Control_c, 0, 67, 108
1, 223405, Control_c, 0, 67, 108
1, 223480, Control_c, 0, 64, 27
1, 223495, Control_c, 0, 64, 34
1, 223510, Control_c, 0, 64, 37
1, 223525, Control_c, 0, 64, 39
1, 223539, Control_c, 0, 64, 41
1, 223554, Control_c, 0, 64, 43
1, 223569, Control_c, 0, 64, 44
1, 223583, Control_c, 0, 64, 44
1, 223598, Control_c, 0, 64, 46
1, 223613, Control_c, 0, 64, 46
1, 223628, Control_c, 0, 64, 48
1, 223628, Control_c, 0, 67, 108
1, 223643, Control_c, 0, 64, 50
1, 223657, Control_c, 0, 64, 52
1, 223672, Control_c, 0, 64, 54
1, 223672, Control_c, 0, 67, 107
1, 223687, Control_c, 0, 64, 56
1, 223687, Control_c, 0, 67, 107
1, 223702, Control_c, 0, 64, 58
1, 223702, Control_c, 0, 67, 106
1, 223717, Control_c, 0, 64, 60
1, 223717, Control_c, 0, 67, 106
1, 223732, Control_c, 0, 64, 61
1, 223747, Control_c, 0, 64, 62
1, 223747, Control_c, 0, 67, 105
1, 223762, Control_c, 0, 64, 62
1, 223762, Control_c, 0, 67, 104
1, 223776, Control_c, 0, 64, 63
1, 223776, Control_c, 0, 67, 103
1, 223791, Control_c, 0, 64, 63
1, 223791, Control_c, 0, 67, 99
1, 223806, Control_c, 0, 64, 64
1, 223806, Control_c, 0, 67, 90
1, 223809, Note_off_c, 0, 28, 51
1, 223818, Note_on_c, 0, 40, 71
1, 223821, Control_c, 0, 67, 76
1, 223825, Note_on_c, 0, 76, 66
1, 223836, Note_off_c, 0, 80, 64
1, 223836, Control_c, 0, 67, 54
1, 223842, Note_off_c, 0, 83, 60
1, 223848, Note_off_c, 0, 40, 65
1, 223848, Note_off_c, 0, 76, 72
1, 223850, Control_c, 0, 67, 35
1, 223865, Control_c, 0, 67, 21
1, 223880, Control_c, 0, 64, 63
1, 223880, Control_c, 0, 67, 14
1, 223895, Control_c, 0, 64, 63
1, 223895, Control_c, 0, 67, 13
1, 223910, Control_c, 0, 64, 62
1, 223910, Control_c, 0, 67, 13
1, 223924, Control_c, 0, 64, 62
1, 223924, Control_c, 0, 67, 15
1, 223939, Control_c, 0, 67, 17
1, 223954, Control_c, 0, 64, 61
1, 223954, Control_c, 0, 67, 18
1, 223969, Control_c, 0, 67, 19
1, 223991, Control_c, 0, 64, 61
1, 223991, Control_c, 0, 67, 20
1, 224006, Control_c, 0, 64, 60
1, 224006, Control_c, 0, 67, 20
1, 224021, Control_c, 0, 64, 60
1, 224021, Control_c, 0, 67, 21
1, 224036, Control_c, 0, 64, 59
1, 224036, Control_c, 0, 67, 21
1, 224051, Control_c, 0, 64, 58
1, 224051, Control_c, 0, 67, 22
1, 224065, Control_c, 0, 64, 57
1, 224065, Control_c, 0, 67, 24
1, 224080, Control_c, 0, 64, 56
1, 224080, Control_c, 0, 67, 26
1, 224095, Control_c, 0, 64, 56
1, 224095, Control_c, 0, 67, 29
1, 224100, Note_on_c, 0, 72, 38
1, 224110, Control_c, 0, 64, 54
1, 224110, Control_c, 0, 67, 33
1, 224123, Note_on_c, 0, 76, 54
1, 224125, Note_off_c, 0, 72, 50
1, 224125, Control_c, 0, 64, 53
1, 224125, Control_c, 0, 67, 36
1, 224139, Control_c, 0, 64, 51
1, 224139, Control_c, 0, 67, 39
1, 224143, Note_off_c, 0, 76, 64
1, 224152, Note_on_c, 0, 81, 54
1, 224154, Control_c, 0, 64, 51
1, 224154, Control_c, 0, 67, 43
1, 224169, Control_c, 0, 64, 49
1, 224169, Control_c, 0, 67, 45
1, 224174, Note_off_c, 0, 81, 61
1, 224176, Note_on_c, 0, 84, 57
1, 224176, Note_on_c, 0, 64, 57
1, 224183, Control_c, 0, 64, 48
1, 224183, Control_c, 0, 67, 48
1, 224195, Note_off_c, 0, 84, 64
1, 224196, Note_off_c, 0, 64, 61
1, 224198, Control_c, 0, 64, 47
1, 224198, Control_c, 0, 67, 50
1, 224213, Control_c, 0, 64, 45
1, 224213, Control_c, 0, 67, 51
1, 224228, Control_c, 0, 64, 44
1, 224228, Control_c, 0, 67, 51
1, 224243, Control_c, 0, 64, 43
1, 224248, Note_on_c, 0, 88, 70
1, 224259, Control_c, 0, 67, 52
1, 224266, Note_off_c, 0, 88, 62
1, 224274, Control_c, 0, 64, 42
1, 224274, Control_c, 0, 67, 53
1, 224288, Control_c, 0, 64, 41
1, 224288, Control_c, 0, 67, 54
1, 224289, Note_on_c, 0, 100, 83
1, 224297, Note_on_c, 0, 45, 68
1, 224303, Control_c, 0, 64, 37
1, 224303, Control_c, 0, 67, 55
1, 224318, Control_c, 0, 64, 32
1, 224318, Control_c, 0, 67, 56
1, 224333, Control_c, 0, 64, 18
1, 224333, Control_c, 0, 67, 56
1, 224338, Note_off_c, 0, 45, 60
1, 224348, Control_c, 0, 64, 0
1, 224377, Control_c, 0, 67, 56
1, 224392, Control_c, 0, 67, 55
1, 224396, Note_off_c, 0, 100, 38
1, 224421, Control_c, 0, 67, 55
1, 224466, Note_on_c, 0, 93, 63
1, 224479, Note_on_c, 0, 96, 51
1, 224480, Note_on_c, 0, 48, 41
1, 224480, Control_c, 0, 67, 55
1, 224500, Note_off_c, 0, 93, 61
1, 224525, Note_off_c, 0, 48, 46
1, 224547, Note_off_c, 0, 96, 37
1, 224554, Control_c, 0, 67, 55
1, 224614, Control_c, 0, 67, 54
1, 224614, Note_on_c, 0, 88, 53
1, 224617, Note_on_c, 0, 57, 41
1, 224645, Note_off_c, 0, 57, 54
1, 224656, Note_off_c, 0, 88, 61
1, 224659, Control_c, 0, 67, 55
1, 224739, Control_c, 0, 67, 54
1, 224757, Note_on_c, 0, 84, 58
1, 224760, Note_on_c, 0, 81, 56
1, 224766, Note_on_c, 0, 60, 36
1, 224769, Note_on_c, 0, 64, 43
1, 224794, Note_off_c, 0, 60, 50
1, 224799, Note_off_c, 0, 64, 53
1, 224804, Note_off_c, 0, 81, 56
1, 224828, Note_off_c, 0, 84, 49
1, 224894, Note_on_c, 0, 76, 59
1, 224912, Note_on_c, 0, 69, 49
1, 224913, Note_off_c, 0, 76, 65
1, 224932, Control_c, 0, 67, 55
1, 224935, Note_off_c, 0, 69, 58
1, 225038, Note_on_c, 0, 68, 70
1, 225038, Note_on_c, 0, 71, 55
1, 225060, Note_off_c, 0, 71, 58
1, 225064, Note_off_c, 0, 68, 67
1, 225067, Note_on_c, 0, 64, 40
1, 225071, Note_on_c, 0, 76, 53
1, 225095, Note_off_c, 0, 64, 48
1, 225103, Note_on_c, 0, 59, 53
1, 225112, Note_off_c, 0, 76, 66
1, 225113, Note_on_c, 0, 80, 65
1, 225125, Note_off_c, 0, 59, 57
1, 225126, Control_c, 0, 67, 54
1, 225140, Note_off_c, 0, 80, 67
1, 225155, Control_c, 0, 67, 54
1, 225181, Note_on_c, 0, 83, 74
1, 225200, Control_c, 0, 67, 54
1, 225212, Note_on_c, 0, 95, 95
1, 225213, Note_on_c, 0, 40, 80
1, 225229, Control_c, 0, 67, 55
1, 225244, Control_c, 0, 67, 55
1, 225249, Note_off_c, 0, 83, 53
1, 225250, Note_off_c, 0, 40, 63
1, 225274, Control_c, 0, 67, 56
1, 225291, Note_off_c, 0, 95, 58
1, 225318, Control_c, 0, 67, 56
1, 225333, Control_c, 0, 67, 57
1, 225387, Note_on_c, 0, 88, 51
1, 225388, Note_on_c, 0, 44, 40
1, 225391, Note_on_c, 0, 47, 28
1, 225392, Control_c, 0, 67, 57
1, 225404, Note_on_c, 0, 92, 42
1, 225407, Control_c, 0, 67, 58
1, 225410, Note_off_c, 0, 88, 55
1, 225425, Note_off_c, 0, 44, 51
1, 225432, Note_off_c, 0, 47, 50
1, 225437, Control_c, 0, 67, 59
1, 225443, Note_off_c, 0, 92, 46
1, 225452, Control_c, 0, 67, 63
1, 225467, Control_c, 0, 67, 64
1, 225489, Control_c, 0, 67, 65
1, 225504, Control_c, 0, 67, 65
1, 225533, Control_c, 0, 67, 66
1, 225541, Note_on_c, 0, 52, 52
1, 225547, Note_on_c, 0, 83, 64
1, 225548, Control_c, 0, 67, 66
1, 225562, Control_c, 0, 67, 67
1, 225570, Note_off_c, 0, 52, 66
1, 225577, Control_c, 0, 67, 68
1, 225586, Note_off_c, 0, 83, 53
1, 225592, Control_c, 0, 67, 70
1, 225607, Control_c, 0, 67, 71
1, 225622, Control_c, 0, 67, 73
1, 225637, Control_c, 0, 67, 73
1, 225651, Control_c, 0, 67, 75
1, 225666, Control_c, 0, 67, 76
1, 225675, Note_on_c, 0, 56, 56
1, 225681, Control_c, 0, 67, 79
1, 225683, Note_on_c, 0, 80, 54
1, 225688, Note_on_c, 0, 59, 37
1, 225694, Note_on_c, 0, 76, 43
1, 225696, Control_c, 0, 67, 83
1, 225711, Control_c, 0, 67, 88
1, 225717, Note_off_c, 0, 59, 47
1, 225721, Note_off_c, 0, 56, 54
1, 225726, Control_c, 0, 67, 93
1, 225736, Note_off_c, 0, 76, 50
1, 225741, Control_c, 0, 67, 96
1, 225755, Control_c, 0, 67, 99
1, 225758, Note_off_c, 0, 80, 63
1, 225770, Control_c, 0, 67, 101
1, 225785, Control_c, 0, 67, 103
1, 225800, Control_c, 0, 67, 105
1, 225809, Note_on_c, 0, 71, 56
1, 225815, Control_c, 0, 67, 107
1, 225823, Note_on_c, 0, 64, 52
1, 225829, Note_off_c, 0, 71, 63
1, 225829, Control_c, 0, 67, 108
1, 225844, Control_c, 0, 67, 111
1, 225845, Note_off_c, 0, 64, 59
1, 225860, Control_c, 0, 67, 112
1, 225875, Control_c, 0, 67, 114
1, 225890, Control_c, 0, 67, 116
1, 225905, Control_c, 0, 67, 117
1, 225920, Control_c, 0, 67, 120
1, 225934, Control_c, 0, 67, 123
1, 225940, Note_on_c, 0, 64, 49
1, 225949, Control_c, 0, 67, 127
1, 225952, Note_on_c, 0, 60, 58
1, 225964, Note_on_c, 0, 56, 48
1, 225965, Note_off_c, 0, 64, 57
1, 225981, Note_off_c, 0, 60, 65
1, 225988, Note_off_c, 0, 56, 53
1, 226006, Note_on_c, 0, 69, 63
1, 226021, Note_on_c, 0, 52, 52
1, 226024, Note_on_c, 0, 72, 68
1, 226032, Note_off_c, 0, 69, 69
1, 226045, Note_off_c, 0, 52, 55
1, 226048, Note_off_c, 0, 72, 70
1, 226096, Note_on_c, 0, 76, 78
1, 226113, Note_off_c, 0, 76, 66
1, 226127, Note_on_c, 0, 33, 82
1, 226130, Note_on_c, 0, 88, 90
1, 226170, Note_off_c, 0, 33, 60
1, 226228, Note_off_c, 0, 88, 50
1, 226308, Note_on_c, 0, 81, 50
1, 226317, Note_on_c, 0, 84, 48
1, 226331, Note_off_c, 0, 81, 56
1, 226340, Note_on_c, 0, 36, 23
1, 226349, Note_off_c, 0, 84, 52
1, 226385, Note_off_c, 0, 36, 51
1, 226392, Poly_aftertouch_c, 0, 40, 0
1, 226430, Control_c, 0, 64, 10
1, 226441, Note_on_c, 0, 76, 58
1, 226445, Note_on_c, 0, 45, 46
1, 226445, Control_c, 0, 64, 25
1, 226459, Control_c, 0, 64, 34
1, 226474, Note_off_c, 0, 45, 60
1, 226474, Control_c, 0, 64, 41
1, 226480, Note_off_c, 0, 76, 60
1, 226489, Control_c, 0, 64, 46
1, 226504, Control_c, 0, 64, 50
1, 226519, Control_c, 0, 64, 53
1, 226534, Control_c, 0, 64, 54
1, 226549, Control_c, 0, 64, 56
1, 226564, Control_c, 0, 64, 57
1, 226576, Note_on_c, 0, 72, 55
1, 226577, Note_on_c, 0, 48, 44
1, 226577, Note_on_c, 0, 69, 52
1, 226578, Control_c, 0, 64, 59
1, 226593, Control_c, 0, 64, 60
1, 226602, Note_on_c, 0, 52, 13
1, 226606, Note_off_c, 0, 48, 57
1, 226608, Control_c, 0, 64, 62
1, 226614, Note_off_c, 0, 69, 56
1, 226623, Control_c, 0, 64, 63
1, 226623, Note_off_c, 0, 72, 60
1, 226638, Control_c, 0, 64, 63
1, 226648, Note_off_c, 0, 52, 44
1, 226653, Control_c, 0, 64, 64
1, 226698, Control_c, 0, 67, 123
1, 226701, Note_on_c, 0, 64, 53
1, 226706, Note_on_c, 0, 57, 53
1, 226713, Control_c, 0, 67, 119
1, 226728, Control_c, 0, 64, 63
1, 226728, Control_c, 0, 67, 115
1, 226728, Note_off_c, 0, 64, 51
1, 226731, Note_off_c, 0, 57, 60
1, 226742, Control_c, 0, 64, 63
1, 226742, Control_c, 0, 67, 112
1, 226757, Control_c, 0, 64, 62
1, 226757, Control_c, 0, 67, 109
1, 226772, Control_c, 0, 64, 61
1, 226772, Control_c, 0, 67, 107
1, 226787, Control_c, 0, 67, 102
1, 226801, Control_c, 0, 67, 98
1, 226816, Control_c, 0, 67, 93
1, 226831, Control_c, 0, 67, 90
1, 226846, Control_c, 0, 67, 87
1, 226849, Note_on_c, 0, 59, 42
1, 226853, Note_on_c, 0, 56, 55
1, 226861, Control_c, 0, 67, 85
1, 226874, Note_off_c, 0, 56, 63
1, 226875, Control_c, 0, 67, 83
1, 226876, Note_off_c, 0, 59, 51
1, 226880, Note_on_c, 0, 64, 41
1, 226889, Note_on_c, 0, 52, 5
1, 226890, Control_c, 0, 67, 81
1, 226902, Note_on_c, 0, 47, 58
1, 226905, Control_c, 0, 67, 79
1, 226915, Note_on_c, 0, 68, 68
1, 226919, Note_off_c, 0, 64, 63
1, 226920, Control_c, 0, 67, 77
1, 226930, Note_off_c, 0, 47, 64
1, 226935, Control_c, 0, 67, 73
1, 226939, Note_off_c, 0, 52, 27
1, 226944, Note_off_c, 0, 68, 62
1, 226949, Control_c, 0, 67, 70
1, 226964, Control_c, 0, 67, 65
1, 226987, Control_c, 0, 67, 60
1, 227001, Note_on_c, 0, 71, 72
1, 227002, Control_c, 0, 64, 62
1, 227002, Control_c, 0, 67, 56
1, 227016, Control_c, 0, 67, 53
1, 227031, Control_c, 0, 64, 62
1, 227031, Control_c, 0, 67, 51
1, 227046, Control_c, 0, 67, 47
1, 227061, Control_c, 0, 67, 43
1, 227076, Control_c, 0, 67, 36
1, 227090, Control_c, 0, 64, 61
1, 227090, Control_c, 0, 67, 12
1, 227105, Control_c, 0, 64, 48
1, 227105, Control_c, 0, 67, 0
1, 227120, Control_c, 0, 64, 0
1, 227125, Note_off_c, 0, 71, 0
1, 227130, Note_on_c, 0, 83, 90
1, 227131, Note_on_c, 0, 80, 87
1, 227132, Note_on_c, 0, 28, 87
1, 227163, Poly_aftertouch_c, 0, 71, 127
1, 227177, Note_on_c, 0, 71, 3
1, 227219, Note_off_c, 0, 71, 35
1, 227860, Note_off_c, 0, 28, 63
1, 227863, Note_on_c, 0, 40, 82
1, 227864, Note_on_c, 0, 76, 87
1, 227887, Note_off_c, 0, 40, 68
1, 227887, Note_off_c, 0, 83, 63
1, 227896, Note_off_c, 0, 76, 71
1, 227896, Note_off_c, 0, 80, 66
1, 227973, Control_c, 0, 67, 8
1, 227988, Control_c, 0, 67, 10
1, 228003, Control_c, 0, 67, 12
1, 228018, Control_c, 0, 67, 15
1, 228032, Control_c, 0, 67, 17
1, 228047, Control_c, 0, 67, 21
1, 228062, Control_c, 0, 67, 27
1, 228077, Control_c, 0, 67, 34
1, 228092, Control_c, 0, 67, 44
1, 228106, Control_c, 0, 67, 53
1, 228121, Control_c, 0, 67, 61
1, 228136, Control_c, 0, 67, 68
1, 228150, Control_c, 0, 67, 75
1, 228162, Note_on_c, 0, 73, 60
1, 228165, Control_c, 0, 67, 83
1, 228167, Note_on_c, 0, 76, 48
1, 228180, Control_c, 0, 67, 94
1, 228183, Note_off_c, 0, 73, 67
1, 228189, Note_off_c, 0, 76, 52
1, 228195, Note_on_c, 0, 81, 63
1, 228195, Control_c, 0, 67, 108
1, 228210, Control_c, 0, 67, 119
1, 228224, Note_on_c, 0, 64, 31
1, 228224, Note_off_c, 0, 81, 65
1, 228224, Control_c, 0, 67, 127
1, 228247, Note_on_c, 0, 85, 54
1, 228260, Note_off_c, 0, 64, 33
1, 228268, Note_off_c, 0, 85, 60
1, 228303, Note_on_c, 0, 88, 78
1, 228324, Note_off_c, 0, 88, 58
1, 228330, Note_on_c, 0, 45, 73
1, 228337, Note_on_c, 0, 100, 91
1, 228368, Note_off_c, 0, 45, 58
1, 228510, Note_off_c, 0, 100, 34
1, 228510, Note_on_c, 0, 93, 67
1, 228511, Note_on_c, 0, 97, 59
1, 228516, Note_on_c, 0, 52, 20
1, 228519, Note_on_c, 0, 49, 36
1, 228544, Note_off_c, 0, 93, 57
1, 228549, Note_off_c, 0, 97, 57
1, 228557, Note_off_c, 0, 52, 37
1, 228561, Note_off_c, 0, 49, 46
1, 228640, Note_on_c, 0, 57, 40
1, 228650, Note_on_c, 0, 88, 63
1, 228674, Note_off_c, 0, 57, 62
1, 228683, Note_off_c, 0, 88, 58
1, 228781, Note_on_c, 0, 61, 53
1, 228785, Note_on_c, 0, 85, 53
1, 228791, Note_on_c, 0, 64, 38
1, 228797, Note_on_c, 0, 81, 41
1, 228808, Note_off_c, 0, 85, 58
1, 228821, Note_off_c, 0, 64, 48
1, 228826, Note_off_c, 0, 81, 48
1, 228831, Note_off_c, 0, 61, 52
1, 228919, Note_on_c, 0, 69, 47
1, 228928, Note_on_c, 0, 76, 60
1, 228942, Note_off_c, 0, 69, 59
1, 228975, Note_off_c, 0, 76, 59
1, 229039, Note_on_c, 0, 89, 80
1, 229050, Note_on_c, 0, 50, 56
1, 229065, Note_on_c, 0, 53, 81
1, 229073, Note_off_c, 0, 89, 68
1, 229074, Note_off_c, 0, 50, 60
1, 229075, Note_on_c, 0, 86, 80
1, 229101, Note_off_c, 0, 53, 67
1, 229110, Note_on_c, 0, 81, 82
1, 229119, Note_off_c, 0, 86, 63
1, 229142, Note_off_c, 0, 81, 62
1, 229186, Note_on_c, 0, 74, 75
1, 229187, Note_on_c, 0, 69, 73
1, 229228, Note_off_c, 0, 74, 65
1, 229235, Note_off_c, 0, 69, 60
1, 229351, Note_on_c, 0, 77, 62
1, 229393, Note_off_c, 0, 77, 55
1, 229395, Poly_aftertouch_c, 0, 65, 127
1, 229452, Poly_aftertouch_c, 0, 65, 0
1, 229463, Note_on_c, 0, 62, 63
1, 229465, Note_on_c, 0, 81, 70
1, 229490, Note_off_c, 0, 62, 64
1, 229499, Note_off_c, 0, 81, 60
1, 229611, Note_on_c, 0, 50, 52
1, 229625, Note_on_c, 0, 86, 49
1, 229645, Note_off_c, 0, 50, 51
1, 229659, Note_off_c, 0, 86, 58
1, 229736, Note_on_c, 0, 98, 90
1, 229738, Note_on_c, 0, 89, 64
1, 229743, Note_on_c, 0, 38, 80
1, 229746, Note_on_c, 0, 93, 64
1, 229756, Note_off_c, 0, 89, 65
1, 229756, Note_off_c, 0, 98, 67
1, 229762, Note_off_c, 0, 93, 62
1, 229766, Note_off_c, 0, 38, 66
1, 229767, Control_c, 0, 64, 81
1, 229782, Control_c, 0, 64, 94
1, 229796, Control_c, 0, 64, 99
1, 229826, Control_c, 0, 64, 100
1, 229999, Note_on_c, 0, 74, 59
1, 230019, Note_off_c, 0, 74, 66
1, 230039, Note_on_c, 0, 79, 63
1, 230049, Note_on_c, 0, 83, 68
1, 230065, Note_on_c, 0, 62, 62
1, 230067, Note_off_c, 0, 79, 66
1, 230085, Note_off_c, 0, 62, 61
1, 230088, Note_off_c, 0, 83, 58
1, 230135, Note_on_c, 0, 86, 81
1, 230160, Control_c, 0, 64, 99
1, 230171, Note_on_c, 0, 43, 77
1, 230171, Note_on_c, 0, 98, 88
1, 230175, Control_c, 0, 64, 95
1, 230190, Control_c, 0, 64, 86
1, 230205, Control_c, 0, 64, 71
1, 230208, Note_off_c, 0, 43, 60
1, 230220, Control_c, 0, 64, 0
1, 230234, Note_off_c, 0, 98, 57
1, 230263, Note_off_c, 0, 86, 22
1, 230314, Note_on_c, 0, 95, 72
1, 230317, Note_on_c, 0, 91, 55
1, 230325, Note_on_c, 0, 47, 56
1, 230335, Note_on_c, 0, 50, 34
1, 230343, Note_off_c, 0, 91, 54
1, 230370, Note_off_c, 0, 47, 59
1, 230370, Note_off_c, 0, 50, 51
1, 230377, Note_off_c, 0, 95, 57
1, 230445, Note_on_c, 0, 86, 68
1, 230446, Note_on_c, 0, 55, 35
1, 230475, Note_off_c, 0, 55, 52
1, 230481, Note_off_c, 0, 86, 57
1, 230570, Note_on_c, 0, 83, 64
1, 230575, Note_on_c, 0, 62, 58
1, 230585, Note_on_c, 0, 79, 39
1, 230588, Note_on_c, 0, 59, 31
1, 230612, Note_off_c, 0, 83, 52
1, 230612, Note_off_c, 0, 79, 49
1, 230616, Note_off_c, 0, 62, 60
1, 230620, Note_off_c, 0, 59, 46
1, 230698, Note_on_c, 0, 67, 59
1, 230712, Note_on_c, 0, 74, 55
1, 230730, Note_off_c, 0, 67, 65
1, 230762, Note_off_c, 0, 74, 58
1, 230817, Note_on_c, 0, 88, 78
1, 230838, Note_on_c, 0, 48, 65
1, 230854, Note_on_c, 0, 52, 76
1, 230857, Note_off_c, 0, 88, 65
1, 230859, Note_on_c, 0, 84, 77
1, 230866, Note_off_c, 0, 48, 66
1, 230881, Note_off_c, 0, 52, 69
1, 230894, Note_on_c, 0, 79, 78
1, 230898, Note_off_c, 0, 84, 66
1, 230910, Note_on_c, 0, 55, 34
1, 230916, Note_off_c, 0, 79, 69
1, 230948, Note_off_c, 0, 55, 33
1, 230961, Note_on_c, 0, 64, 71
1, 230972, Note_on_c, 0, 72, 71
1, 231000, Note_off_c, 0, 64, 60
1, 231014, Note_off_c, 0, 72, 64
1, 231117, Note_on_c, 0, 76, 51
1, 231146, Note_off_c, 0, 76, 58
1, 231232, Note_on_c, 0, 79, 66
1, 231243, Note_on_c, 0, 55, 61
1, 231259, Note_off_c, 0, 79, 66
1, 231270, Note_off_c, 0, 55, 67
1, 231397, Note_on_c, 0, 84, 42
1, 231400, Note_on_c, 0, 48, 20
1, 231434, Note_off_c, 0, 84, 49
1, 231445, Note_off_c, 0, 48, 30
1, 231506, Note_on_c, 0, 96, 95
1, 231509, Note_on_c, 0, 88, 63
1, 231510, Note_on_c, 0, 36, 90
1, 231514, Note_on_c, 0, 91, 63
1, 231524, Control_c, 0, 64, 67
1, 231527, Note_off_c, 0, 88, 64
1, 231528, Note_off_c, 0, 96, 60
1, 231529, Note_off_c, 0, 91, 61
1, 231536, Note_off_c, 0, 36, 66
1, 231539, Control_c, 0, 64, 80
1, 231554, Control_c, 0, 64, 81
1, 231569, Control_c, 0, 64, 81
1, 231756, Note_on_c, 0, 65, 62
1, 231760, Note_on_c, 0, 70, 61
1, 231779, Note_off_c, 0, 70, 65
1, 231780, Note_on_c, 0, 78, 72
1, 231784, Note_off_c, 0, 65, 57
1, 231794, Note_on_c, 0, 58, 44
1, 231811, Note_off_c, 0, 78, 60
1, 231814, Note_on_c, 0, 53, 60
1, 231819, Note_off_c, 0, 58, 62
1, 231828, Note_on_c, 0, 82, 55
1, 231837, Note_off_c, 0, 53, 65
1, 231849, Note_off_c, 0, 82, 60
1, 231880, Control_c, 0, 64, 80
1, 231895, Control_c, 0, 64, 78
1, 231896, Note_on_c, 0, 86, 83
1, 231910, Control_c, 0, 64, 74
1, 231924, Control_c, 0, 64, 66
1, 231930, Note_on_c, 0, 38, 76
1, 231936, Note_on_c, 0, 98, 86
1, 231939, Control_c, 0, 64, 48
1, 231954, Control_c, 0, 64, 0
1, 231970, Note_off_c, 0, 38, 54
1, 231998, Note_off_c, 0, 98, 57
1, 232027, Note_off_c, 0, 86, 23
1, 232075, Note_on_c, 0, 94, 76
1, 232083, Note_on_c, 0, 41, 55
1, 232087, Note_on_c, 0, 46, 54
1, 232090, Note_on_c, 0, 89, 59
1, 232130, Note_off_c, 0, 41, 60
1, 232144, Note_off_c, 0, 89, 52
1, 232159, Note_off_c, 0, 46, 55
1, 232161, Note_off_c, 0, 94, 62
1, 232209, Note_on_c, 0, 86, 72
1, 232210, Note_on_c, 0, 50, 47
1, 232245, Note_off_c, 0, 50, 53
1, 232247, Note_off_c, 0, 86, 59
1, 232329, Note_on_c, 0, 82, 73
1, 232338, Note_on_c, 0, 53, 58
1, 232349, Note_on_c, 0, 58, 61
1, 232353, Note_on_c, 0, 77, 50
1, 232378, Note_off_c, 0, 53, 63
1, 232379, Note_off_c, 0, 77, 55
1, 232385, Note_off_c, 0, 82, 51
1, 232421, Note_off_c, 0, 58, 60
1, 232461, Note_on_c, 0, 74, 67
1, 232472, Note_on_c, 0, 62, 58
1, 232494, Note_off_c, 0, 74, 64
1, 232500, Note_off_c, 0, 62, 55
1, 232594, Note_on_c, 0, 64, 56
1, 232600, Note_on_c, 0, 69, 60
1, 232615, Note_off_c, 0, 64, 63
1, 232622, Note_off_c, 0, 69, 67
1, 232630, Note_on_c, 0, 76, 66
1, 232650, Note_on_c, 0, 52, 61
1, 232654, Note_off_c, 0, 76, 71
1, 232672, Note_on_c, 0, 81, 48
1, 232673, Note_off_c, 0, 52, 66
1, 232695, Note_off_c, 0, 81, 52
1, 232728, Note_on_c, 0, 84, 74
1, 232743, Note_off_c, 0, 84, 63
1, 232757, Note_on_c, 0, 45, 34
1, 232762, Control_c, 0, 64, 13
1, 232767, Note_on_c, 0, 33, 81
1, 232767, Note_on_c, 0, 96, 90
1, 232777, Control_c, 0, 64, 19
1, 232789, Note_off_c, 0, 45, 57
1, 232792, Control_c, 0, 64, 24
1, 232807, Control_c, 0, 64, 25
1, 232812, Note_off_c, 0, 33, 58
1, 232826, Note_off_c, 0, 96, 57
1, 232867, Control_c, 0, 64, 26
1, 232896, Control_c, 0, 64, 27
1, 232911, Control_c, 0, 64, 30
1, 232918, Note_on_c, 0, 93, 62
1, 232919, Note_on_c, 0, 88, 49
1, 232926, Control_c, 0, 64, 32
1, 232934, Note_on_c, 0, 40, 42
1, 232940, Control_c, 0, 64, 35
1, 232953, Note_on_c, 0, 36, 23
1, 232955, Control_c, 0, 64, 36
1, 232976, Note_off_c, 0, 88, 54
1, 232978, Control_c, 0, 64, 37
1, 232993, Note_off_c, 0, 93, 53
1, 233003, Note_off_c, 0, 36, 50
1, 233008, Control_c, 0, 64, 38
1, 233021, Note_off_c, 0, 40, 58
1, 233022, Control_c, 0, 64, 39
1, 233037, Control_c, 0, 64, 40
1, 233051, Note_on_c, 0, 45, 50
1, 233053, Control_c, 0, 64, 41
1, 233056, Note_on_c, 0, 84, 65
1, 233068, Control_c, 0, 64, 42
1, 233084, Note_off_c, 0, 45, 65
1, 233091, Note_off_c, 0, 84, 62
1, 233127, Control_c, 0, 64, 43
1, 233142, Control_c, 0, 64, 44
1, 233157, Control_c, 0, 64, 44
1, 233171, Control_c, 0, 64, 46
1, 233180, Note_on_c, 0, 81, 67
1, 233186, Control_c, 0, 64, 48
1, 233187, Note_on_c, 0, 48, 50
1, 233191, Note_on_c, 0, 52, 48
1, 233201, Control_c, 0, 64, 49
1, 233206, Note_on_c, 0, 76, 44
1, 233229, Note_off_c, 0, 48, 61
1, 233229, Note_off_c, 0, 52, 50
1, 233236, Note_off_c, 0, 76, 58
1, 233236, Note_off_c, 0, 81, 52
1, 233245, Control_c, 0, 64, 50
1, 233260, Control_c, 0, 64, 50
1, 233290, Control_c, 0, 64, 47
1, 233305, Control_c, 0, 64, 33
1, 233306, Note_on_c, 0, 57, 51
1, 233319, Control_c, 0, 64, 0
1, 233327, Note_on_c, 0, 72, 51
1, 233331, Note_off_c, 0, 57, 60
1, 233348, Note_off_c, 0, 72, 59
1, 233443, Note_on_c, 0, 58, 10
1, 233447, Note_on_c, 0, 65, 62
1, 233455, Note_on_c, 0, 62, 58
1, 233461, Note_off_c, 0, 58, 50
1, 233464, Note_off_c, 0, 65, 66
1, 233477, Note_on_c, 0, 71, 62
1, 233477, Note_off_c, 0, 62, 61
1, 233503, Note_on_c, 0, 53, 56
1, 233503, Note_off_c, 0, 71, 65
1, 233512, Note_on_c, 0, 74, 58
1, 233525, Note_off_c, 0, 53, 63
1, 233528, Note_off_c, 0, 74, 66
1, 233579, Note_on_c, 0, 81, 87
1, 233605, Note_on_c, 0, 47, 54
1, 233624, Note_off_c, 0, 81, 57
1, 233638, Note_on_c, 0, 93, 100
1, 233638, Note_off_c, 0, 47, 64
1, 233648, Note_on_c, 0, 35, 89
1, 233689, Control_c, 0, 64, 84
1, 233704, Control_c, 0, 64, 102
1, 233727, Control_c, 0, 64, 112
1, 233762, Note_off_c, 0, 35, 62
1, 233768, Note_off_c, 0, 93, 62
1, 233771, Control_c, 0, 64, 112
1, 233772, Note_on_c, 0, 89, 72
1, 233773, Note_on_c, 0, 47, 78
1, 233783, Note_on_c, 0, 86, 66
1, 233796, Note_off_c, 0, 89, 70
1, 233799, Note_off_c, 0, 47, 66
1, 233799, Note_off_c, 0, 86, 65
1, 233950, Control_c, 0, 64, 112
1, 233954, Note_on_c, 0, 62, 67
1, 233965, Control_c, 0, 64, 109
1, 233977, Note_on_c, 0, 56, 47
1, 233978, Note_on_c, 0, 59, 34
1, 233980, Control_c, 0, 64, 105
1, 233980, Note_off_c, 0, 62, 63
1, 233992, Note_on_c, 0, 65, 34
1, 233994, Control_c, 0, 64, 98
1, 233996, Note_on_c, 0, 68, 71
1, 234007, Note_off_c, 0, 59, 61
1, 234009, Control_c, 0, 64, 90
1, 234016, Note_off_c, 0, 56, 64
1, 234021, Note_off_c, 0, 68, 68
1, 234024, Control_c, 0, 64, 80
1, 234025, Note_off_c, 0, 65, 51
1, 234028, Note_on_c, 0, 71, 62
1, 234039, Control_c, 0, 64, 69
1, 234045, Note_off_c, 0, 71, 62
1, 234054, Control_c, 0, 64, 38
1, 234068, Control_c, 0, 64, 0
1, 234112, Control_c, 0, 64, 45
1, 234116, Note_on_c, 0, 76, 46
1, 234119, Note_on_c, 0, 77, 51
1, 234127, Control_c, 0, 64, 62
1, 234138, Note_on_c, 0, 40, 80
1, 234138, Note_off_c, 0, 76, 53
1, 234142, Control_c, 0, 64, 66
1, 234144, Note_on_c, 0, 89, 83
1, 234150, Note_on_c, 0, 88, 71
1, 234157, Control_c, 0, 64, 68
1, 234172, Control_c, 0, 64, 70
1, 234186, Control_c, 0, 64, 72
1, 234191, Note_off_c, 0, 77, 35
1, 234201, Control_c, 0, 64, 74
1, 234216, Control_c, 0, 64, 75
1, 234231, Control_c, 0, 64, 77
1, 234243, Note_off_c, 0, 88, 61
1, 234246, Control_c, 0, 64, 78
1, 234251, Note_off_c, 0, 89, 62
1, 234262, Note_off_c, 0, 40, 63
1, 234277, Note_on_c, 0, 86, 74
1, 234281, Note_on_c, 0, 52, 69
1, 234290, Note_on_c, 0, 83, 72
1, 234290, Control_c, 0, 64, 78
1, 234299, Note_off_c, 0, 52, 66
1, 234299, Note_off_c, 0, 86, 69
1, 234313, Note_off_c, 0, 83, 66
1, 234320, Control_c, 0, 64, 79
1, 234350, Control_c, 0, 64, 79
1, 234394, Control_c, 0, 64, 80
1, 234409, Control_c, 0, 64, 80
1, 234424, Control_c, 0, 64, 81
1, 234439, Control_c, 0, 64, 82
1, 234454, Control_c, 0, 64, 83
1, 234458, Note_on_c, 0, 62, 72
1, 234470, Note_on_c, 0, 59, 68
1, 234474, Note_on_c, 0, 52, 54
1, 234475, Control_c, 0, 64, 84
1, 234483, Note_off_c, 0, 62, 63
1, 234500, Note_off_c, 0, 59, 66
1, 234505, Control_c, 0, 64, 84
1, 234506, Note_off_c, 0, 52, 67
1, 234514, Note_on_c, 0, 64, 65
1, 234519, Poly_aftertouch_c, 0, 68, 0
1, 234532, Note_on_c, 0, 68, 54
1, 234535, Control_c, 0, 64, 85
1, 234537, Note_off_c, 0, 64, 66
1, 234549, Control_c, 0, 64, 85
1, 234561, Note_off_c, 0, 68, 66
1, 234564, Control_c, 0, 64, 86
1, 234609, Note_on_c, 0, 74, 78
1, 234624, Control_c, 0, 64, 84
1, 234639, Control_c, 0, 64, 73
1, 234646, Note_on_c, 0, 33, 70
1, 234654, Note_on_c, 0, 86, 90
1, 234654, Control_c, 0, 64, 0
1, 234659, Note_off_c, 0, 74, 60
1, 234673, Note_on_c, 0, 77, 54
1, 234693, Note_off_c, 0, 77, 39
1, 234697, Note_off_c, 0, 86, 59
1, 234737, Note_off_c, 0, 33, 56
1, 234807, Note_on_c, 0, 40, 55
1, 234818, Note_on_c, 0, 74, 48
1, 234819, Note_on_c, 0, 83, 61
1, 234842, Note_off_c, 0, 74, 61
1, 234844, Note_off_c, 0, 83, 58
1, 234845, Note_off_c, 0, 40, 63
1, 234957, Note_on_c, 0, 45, 47
1, 234969, Note_on_c, 0, 80, 67
1, 234984, Note_off_c, 0, 45, 59
1, 234998, Note_off_c, 0, 80, 62
1, 234999, Note_on_c, 0, 71, 29
1, 235031, Note_off_c, 0, 71, 32
1, 235146, Note_on_c, 0, 52, 42
1, 235157, Control_c, 0, 64, 64
1, 235158, Note_on_c, 0, 81, 70
1, 235161, Note_on_c, 0, 72, 59
1, 235172, Control_c, 0, 64, 75
1, 235187, Control_c, 0, 64, 82
1, 235196, Note_off_c, 0, 72, 65
1, 235202, Control_c, 0, 64, 90
1, 235221, Note_off_c, 0, 81, 63
1, 235223, Control_c, 0, 64, 94
1, 235238, Control_c, 0, 64, 97
1, 235253, Control_c, 0, 64, 99
1, 235259, Note_off_c, 0, 52, 61
1, 235268, Control_c, 0, 64, 101
1, 235283, Note_on_c, 0, 57, 62
1, 235283, Control_c, 0, 64, 103
1, 235309, Note_off_c, 0, 57, 65
1, 235313, Control_c, 0, 64, 103
1, 235435, Note_on_c, 0, 73, 58
1, 235460, Note_on_c, 0, 76, 61
1, 235462, Note_off_c, 0, 73, 67
1, 235473, Note_on_c, 0, 81, 63
1, 235483, Note_off_c, 0, 76, 68
1, 235503, Note_off_c, 0, 81, 65
1, 235505, Note_on_c, 0, 85, 70
1, 235524, Note_on_c, 0, 64, 48
1, 235527, Note_off_c, 0, 85, 65
1, 235548, Poly_aftertouch_c, 0, 69, 0
1, 235548, Note_off_c, 0, 64, 56
1, 235582, Note_on_c, 0, 88, 69
1, 235610, Control_c, 0, 64, 103
1, 235614, Note_on_c, 0, 100, 89
1, 235619, Note_on_c, 0, 45, 78
1, 235625, Control_c, 0, 64, 102
1, 235639, Control_c, 0, 64, 96
1, 235654, Control_c, 0, 64, 82
1, 235669, Control_c, 0, 64, 64
1, 235684, Note_off_c, 0, 45, 49
1, 235684, Control_c, 0, 64, 0
1, 235724, Note_off_c, 0, 88, 29
1, 235726, Note_off_c, 0, 100, 38
1, 235770, Note_on_c, 0, 97, 65
1, 235781, Note_on_c, 0, 49, 37
1, 235781, Note_on_c, 0, 93, 50
1, 235812, Note_off_c, 0, 93, 58
1, 235831, Note_off_c, 0, 49, 42
1, 235833, Note_off_c, 0, 97, 62
1, 235876, Note_on_c, 0, 57, 32
1, 235893, Note_on_c, 0, 88, 65
1, 235911, Note_off_c, 0, 57, 61
1, 235934, Note_off_c, 0, 88, 48
1, 236022, Note_on_c, 0, 61, 53
1, 236028, Note_on_c, 0, 64, 48
1, 236034, Note_on_c, 0, 81, 55
1, 236035, Note_on_c, 0, 85, 52
1, 236067, Note_off_c, 0, 61, 57
1, 236068, Note_off_c, 0, 85, 58
1, 236070, Note_off_c, 0, 64, 60
1, 236070, Note_off_c, 0, 81, 59
1, 236148, Note_on_c, 0, 69, 61
1, 236167, Note_off_c, 0, 69, 67
1, 236174, Note_on_c, 0, 76, 52
1, 236206, Note_off_c, 0, 76, 60
1, 236271, Note_on_c, 0, 89, 82
1, 236287, Note_on_c, 0, 53, 82
1, 236291, Note_off_c, 0, 89, 72
1, 236296, Note_on_c, 0, 86, 82
1, 236310, Note_off_c, 0, 53, 71
1, 236328, Note_on_c, 0, 57, 45
1, 236329, Note_off_c, 0, 57, 127
1, 236333, Note_on_c, 0, 81, 83
1, 236341, Note_off_c, 0, 86, 63
1, 236355, Note_off_c, 0, 81, 67
1, 236399, Note_on_c, 0, 69, 78
1, 236409, Note_on_c, 0, 74, 68
1, 236439, Note_off_c, 0, 69, 57
1, 236455, Note_off_c, 0, 74, 61
1, 236564, Note_on_c, 0, 77, 49
1, 236594, Note_off_c, 0, 77, 52
1, 236605, Poly_aftertouch_c, 0, 65, 127
1, 236667, Poly_aftertouch_c, 0, 65, 0
1, 236669, Note_on_c, 0, 62, 64
1, 236672, Note_on_c, 0, 81, 70
1, 236692, Note_off_c, 0, 62, 64
1, 236702, Note_off_c, 0, 81, 64
1, 236820, Note_on_c, 0, 86, 62
1, 236840, Note_on_c, 0, 50, 33
1, 236882, Note_off_c, 0, 50, 48
1, 236882, Note_off_c, 0, 86, 54
1, 236944, Note_on_c, 0, 89, 68
1, 236946, Note_on_c, 0, 98, 97
1, 236949, Note_on_c, 0, 38, 82
1, 236958, Control_c, 0, 67, 81
1, 236964, Note_on_c, 0, 93, 51
1, 236967, Note_off_c, 0, 98, 64
1, 236969, Note_off_c, 0, 89, 66
1, 236973, Control_c, 0, 64, 76
1, 236973, Control_c, 0, 67, 0
1, 236981, Note_off_c, 0, 38, 63
1, 236988, Control_c, 0, 64, 86
1, 236991, Note_off_c, 0, 93, 37
1, 237003, Control_c, 0, 64, 90
1, 237018, Control_c, 0, 64, 90
1, 237214, Note_on_c, 0, 71, 48
1, 237221, Note_on_c, 0, 74, 59
1, 237238, Note_off_c, 0, 71, 56
1, 237240, Note_off_c, 0, 74, 65
1, 237255, Note_on_c, 0, 79, 65
1, 237273, Note_on_c, 0, 83, 55
1, 237279, Note_on_c, 0, 62, 63
1, 237283, Note_off_c, 0, 79, 65
1, 237299, Note_off_c, 0, 62, 62
1, 237303, Note_off_c, 0, 83, 64
1, 237347, Note_on_c, 0, 86, 74
1, 237359, Control_c, 0, 64, 89
1, 237363, Note_off_c, 0, 86, 68
1, 237374, Control_c, 0, 64, 84
1, 237377, Note_on_c, 0, 98, 92
1, 237380, Note_on_c, 0, 43, 83
1, 237389, Control_c, 0, 64, 73
1, 237404, Control_c, 0, 64, 0
1, 237423, Note_off_c, 0, 43, 56
1, 237440, Note_off_c, 0, 98, 56
1, 237531, Note_on_c, 0, 95, 68
1, 237536, Note_on_c, 0, 91, 50
1, 237548, Note_on_c, 0, 47, 53
1, 237556, Note_on_c, 0, 50, 37
1, 237570, Note_off_c, 0, 91, 53
1, 237584, Note_off_c, 0, 95, 59
1, 237593, Note_off_c, 0, 47, 59
1, 237597, Note_off_c, 0, 50, 49
1, 237667, Note_on_c, 0, 86, 69
1, 237673, Note_on_c, 0, 55, 42
1, 237700, Note_off_c, 0, 55, 56
1, 237710, Note_off_c, 0, 86, 59
1, 237790, Note_on_c, 0, 83, 65
1, 237807, Note_on_c, 0, 62, 47
1, 237809, Note_on_c, 0, 79, 38
1, 237814, Note_on_c, 0, 59, 13
1, 237821, Note_off_c, 0, 83, 58
1, 237834, Note_off_c, 0, 62, 55
1, 237838, Note_off_c, 0, 79, 50
1, 237855, Note_off_c, 0, 59, 40
1, 237924, Note_on_c, 0, 74, 64
1, 237975, Note_off_c, 0, 74, 62
1, 238031, Note_on_c, 0, 88, 82
1, 238044, Note_on_c, 0, 48, 55
1, 238053, Note_on_c, 0, 52, 79
1, 238065, Note_on_c, 0, 84, 79
1, 238068, Note_off_c, 0, 88, 66
1, 238069, Note_off_c, 0, 48, 59
1, 238094, Note_off_c, 0, 52, 67
1, 238106, Note_on_c, 0, 79, 72
1, 238108, Note_off_c, 0, 84, 65
1, 238121, Note_on_c, 0, 55, 34
1, 238125, Note_on_c, 0, 82, 34
1, 238129, Note_off_c, 0, 79, 68
1, 238129, Note_off_c, 0, 82, 46
1, 238160, Note_off_c, 0, 55, 32
1, 238175, Note_on_c, 0, 72, 80
1, 238178, Note_on_c, 0, 64, 68
1, 238197, Control_c, 0, 67, 8
1, 238219, Note_off_c, 0, 64, 62
1, 238219, Control_c, 0, 67, 9
1, 238230, Note_off_c, 0, 72, 62
1, 238234, Control_c, 0, 67, 10
1, 238249, Control_c, 0, 67, 11
1, 238264, Control_c, 0, 67, 12
1, 238279, Control_c, 0, 67, 13
1, 238293, Control_c, 0, 67, 15
1, 238308, Control_c, 0, 67, 16
1, 238323, Control_c, 0, 67, 18
1, 238334, Note_on_c, 0, 76, 62
1, 238338, Control_c, 0, 67, 20
1, 238353, Control_c, 0, 67, 22
1, 238367, Control_c, 0, 67, 25
1, 238374, Note_on_c, 0, 60, 16
1, 238382, Control_c, 0, 67, 30
1, 238393, Note_off_c, 0, 76, 59
1, 238397, Control_c, 0, 67, 35
1, 238412, Control_c, 0, 67, 38
1, 238427, Control_c, 0, 67, 43
1, 238432, Note_off_c, 0, 60, 45
1, 238441, Control_c, 0, 67, 48
1, 238451, Note_on_c, 0, 79, 67
1, 238456, Control_c, 0, 67, 53
1, 238466, Note_on_c, 0, 55, 53
1, 238471, Control_c, 0, 67, 59
1, 238481, Note_off_c, 0, 79, 65
1, 238485, Control_c, 0, 67, 64
1, 238489, Note_off_c, 0, 55, 62
1, 238500, Control_c, 0, 67, 69
1, 238515, Control_c, 0, 67, 74
1, 238530, Control_c, 0, 67, 78
1, 238545, Control_c, 0, 67, 82
1, 238559, Control_c, 0, 67, 86
1, 238574, Control_c, 0, 67, 88
1, 238589, Control_c, 0, 67, 91
1, 238593, Note_on_c, 0, 84, 46
1, 238595, Note_on_c, 0, 48, 50
1, 238604, Control_c, 0, 67, 93
1, 238619, Control_c, 0, 67, 94
1, 238626, Note_off_c, 0, 84, 50
1, 238630, Note_off_c, 0, 48, 54
1, 238635, Control_c, 0, 67, 95
1, 238694, Control_c, 0, 64, 42
1, 238708, Control_c, 0, 64, 59
1, 238708, Control_c, 0, 67, 96
1, 238717, Note_on_c, 0, 96, 93
1, 238720, Note_on_c, 0, 88, 66
1, 238720, Note_on_c, 0, 36, 79
1, 238723, Control_c, 0, 64, 64
1, 238724, Note_on_c, 0, 91, 71
1, 238735, Note_off_c, 0, 96, 67
1, 238738, Control_c, 0, 64, 68
1, 238738, Control_c, 0, 67, 96
1, 238740, Note_off_c, 0, 88, 65
1, 238742, Note_off_c, 0, 36, 68
1, 238742, Note_off_c, 0, 91, 63
1, 238753, Control_c, 0, 64, 71
1, 238768, Control_c, 0, 64, 74
1, 238782, Control_c, 0, 64, 76
1, 238797, Control_c, 0, 64, 76
1, 238797, Control_c, 0, 67, 97
1, 238812, Control_c, 0, 64, 77
1, 238812, Control_c, 0, 67, 97
1, 238857, Control_c, 0, 67, 98
1, 238902, Control_c, 0, 64, 77
1, 238952, Note_on_c, 0, 65, 61
1, 238968, Control_c, 0, 67, 98
1, 238972, Note_on_c, 0, 70, 65
1, 238983, Control_c, 0, 67, 99
1, 238990, Note_off_c, 0, 70, 66
1, 238997, Note_on_c, 0, 58, 47
1, 239002, Note_off_c, 0, 65, 65
1, 239007, Note_on_c, 0, 77, 64
1, 239024, Note_on_c, 0, 53, 59
1, 239030, Note_off_c, 0, 58, 65
1, 239036, Note_off_c, 0, 77, 63
1, 239038, Note_on_c, 0, 82, 66
1, 239054, Note_off_c, 0, 53, 68
1, 239068, Note_off_c, 0, 82, 66
1, 239100, Poly_aftertouch_c, 0, 56, 0
1, 239119, Note_on_c, 0, 86, 78
1, 239131, Control_c, 0, 64, 77
1, 239146, Control_c, 0, 64, 76
1, 239146, Control_c, 0, 67, 99
1, 239146, Note_on_c, 0, 38, 68
1, 239160, Note_on_c, 0, 98, 86
1, 239161, Control_c, 0, 64, 74
1, 239176, Control_c, 0, 64, 70
1, 239176, Control_c, 0, 67, 100
1, 239190, Control_c, 0, 64, 62
1, 239194, Note_off_c, 0, 38, 59
1, 239205, Control_c, 0, 64, 27
1, 239220, Control_c, 0, 64, 0
1, 239220, Control_c, 0, 67, 100
1, 239223, Note_off_c, 0, 98, 53
1, 239261, Note_off_c, 0, 86, 35
1, 239264, Control_c, 0, 67, 101
1, 239294, Control_c, 0, 67, 101
1, 239296, Note_on_c, 0, 94, 71
1, 239306, Note_on_c, 0, 41, 50
1, 239306, Note_on_c, 0, 46, 54
1, 239308, Control_c, 0, 67, 102
1, 239309, Note_on_c, 0, 89, 59
1, 239323, Control_c, 0, 67, 103
1, 239338, Control_c, 0, 67, 105
1, 239351, Note_off_c, 0, 41, 59
1, 239353, Control_c, 0, 67, 106
1, 239357, Note_off_c, 0, 89, 57
1, 239367, Note_off_c, 0, 94, 60
1, 239368, Control_c, 0, 67, 107
1, 239370, Note_off_c, 0, 46, 55
1, 239382, Control_c, 0, 67, 107
1, 239423, Note_on_c, 0, 86, 72
1, 239426, Note_on_c, 0, 50, 47
1, 239428, Control_c, 0, 64, 16
1, 239443, Control_c, 0, 64, 18
1, 239451, Note_off_c, 0, 50, 59
1, 239452, Note_off_c, 0, 86, 58
1, 239473, Control_c, 0, 64, 19
1, 239546, Note_on_c, 0, 82, 65
1, 239559, Note_on_c, 0, 77, 51
1, 239562, Control_c, 0, 64, 21
1, 239563, Note_on_c, 0, 58, 54
1, 239564, Note_on_c, 0, 53, 37
1, 239577, Control_c, 0, 64, 24
1, 239586, Note_off_c, 0, 77, 55
1, 239592, Control_c, 0, 64, 26
1, 239597, Note_off_c, 0, 53, 54
1, 239606, Control_c, 0, 64, 28
1, 239621, Control_c, 0, 64, 30
1, 239623, Note_off_c, 0, 82, 54
1, 239633, Note_off_c, 0, 58, 59
1, 239636, Control_c, 0, 64, 32
1, 239651, Control_c, 0, 64, 35
1, 239651, Control_c, 0, 67, 108
1, 239663, Note_on_c, 0, 74, 67
1, 239666, Control_c, 0, 64, 38
1, 239675, Note_on_c, 0, 62, 55
1, 239680, Control_c, 0, 64, 40
1, 239695, Control_c, 0, 64, 41
1, 239695, Control_c, 0, 67, 108
1, 239697, Note_off_c, 0, 74, 62
1, 239698, Note_off_c, 0, 62, 58
1, 239718, Control_c, 0, 64, 42
1, 239718, Control_c, 0, 67, 109
1, 239732, Control_c, 0, 67, 109
1, 239747, Control_c, 0, 67, 113
1, 239762, Control_c, 0, 67, 117
1, 239777, Control_c, 0, 67, 121
1, 239787, Note_on_c, 0, 64, 62
1, 239792, Control_c, 0, 67, 122
1, 239802, Note_on_c, 0, 69, 62
1, 239807, Control_c, 0, 64, 41
1, 239807, Control_c, 0, 67, 122
1, 239809, Note_off_c, 0, 64, 65
1, 239811, Note_on_c, 0, 57, 41
1, 239821, Control_c, 0, 64, 41
1, 239821, Control_c, 0, 67, 123
1, 239822, Note_off_c, 0, 69, 67
1, 239830, Note_on_c, 0, 76, 64
1, 239836, Control_c, 0, 64, 40
1, 239836, Control_c, 0, 67, 124
1, 239843, Note_off_c, 0, 57, 46
1, 239848, Note_on_c, 0, 52, 55
1, 239851, Control_c, 0, 67, 124
1, 239855, Note_off_c, 0, 76, 70
1, 239858, Note_on_c, 0, 81, 62
1, 239865, Control_c, 0, 64, 40
1, 239865, Control_c, 0, 67, 125
1, 239872, Note_off_c, 0, 52, 57
1, 239880, Control_c, 0, 64, 39
1, 239885, Note_off_c, 0, 81, 66
1, 239895, Control_c, 0, 64, 39
1, 239910, Control_c, 0, 67, 125
1, 239921, Note_on_c, 0, 84, 88
1, 239947, Note_on_c, 0, 45, 41
1, 239954, Control_c, 0, 64, 39
1, 239963, Note_on_c, 0, 96, 89
1, 239965, Note_on_c, 0, 33, 78
1, 239969, Control_c, 0, 64, 40
1, 239969, Control_c, 0, 67, 126
1, 239978, Note_off_c, 0, 45, 52
1, 239999, Control_c, 0, 67, 126
1, 240016, Note_off_c, 0, 33, 56
1, 240028, Note_off_c, 0, 96, 50
1, 240078, Note_off_c, 0, 84, 43
1, 240103, Control_c, 0, 67, 126
1, 240109, Note_on_c, 0, 88, 62
1, 240112, Note_on_c, 0, 40, 49
1, 240117, Note_on_c, 0, 93, 64
1, 240118, Control_c, 0, 67, 125
1, 240125, Note_on_c, 0, 36, 52
1, 240132, Control_c, 0, 64, 39
1, 240160, Note_off_c, 0, 88, 53
1, 240177, Control_c, 0, 67, 125
1, 240183, Note_off_c, 0, 93, 59
1, 240184, Note_off_c, 0, 40, 49
1, 240188, Note_off_c, 0, 36, 55
1, 240206, Control_c, 0, 67, 124
1, 240221, Control_c, 0, 64, 39
1, 240237, Control_c, 0, 67, 123
1, 240239, Note_on_c, 0, 45, 52
1, 240250, Note_on_c, 0, 84, 64
1, 240271, Note_off_c, 0, 45, 65
1, 240279, Note_off_c, 0, 84, 67
1, 240282, Control_c, 0, 67, 123
1, 240359, Note_on_c, 0, 81, 68
1, 240368, Note_on_c, 0, 48, 53
1, 240369, Control_c, 0, 64, 38
1, 240369, Control_c, 0, 67, 122
1, 240377, Note_on_c, 0, 52, 50
1, 240383, Note_on_c, 0, 76, 47
1, 240411, Note_off_c, 0, 48, 59
1, 240414, Control_c, 0, 64, 39
1, 240422, Note_off_c, 0, 81, 55
1, 240422, Note_off_c, 0, 52, 61
1, 240428, Control_c, 0, 64, 39
1, 240431, Note_off_c, 0, 76, 52
1, 240443, Control_c, 0, 64, 40
1, 240481, Control_c, 0, 64, 40
1, 240495, Control_c, 0, 64, 41
1, 240510, Control_c, 0, 64, 41
1, 240520, Note_on_c, 0, 72, 46
1, 240525, Control_c, 0, 64, 42
1, 240540, Control_c, 0, 64, 43
1, 240543, Note_off_c, 0, 72, 54
1, 240554, Control_c, 0, 67, 123
1, 240569, Control_c, 0, 64, 42
1, 240584, Control_c, 0, 64, 29
1, 240584, Control_c, 0, 67, 123
1, 240599, Control_c, 0, 64, 0
1, 240599, Control_c, 0, 67, 124
1, 240614, Control_c, 0, 67, 124
1, 240633, Note_on_c, 0, 62, 59
1, 240640, Note_on_c, 0, 65, 55
1, 240654, Note_off_c, 0, 62, 64
1, 240663, Note_off_c, 0, 65, 65
1, 240666, Note_on_c, 0, 71, 59
1, 240674, Note_on_c, 0, 53, 55
1, 240696, Note_on_c, 0, 74, 58
1, 240696, Note_off_c, 0, 53, 60
1, 240696, Note_off_c, 0, 71, 64
1, 240716, Note_off_c, 0, 74, 67
1, 240732, Control_c, 0, 67, 124
1, 240747, Control_c, 0, 67, 123
1, 240803, Note_on_c, 0, 81, 38
1, 240835, Note_on_c, 0, 93, 87
1, 240851, Control_c, 0, 67, 123
1, 240856, Note_on_c, 0, 35, 59
1, 240862, Note_off_c, 0, 81, 36
1, 240880, Control_c, 0, 67, 122
1, 240895, Control_c, 0, 64, 54
1, 240895, Control_c, 0, 67, 121
1, 240910, Control_c, 0, 64, 79
1, 240910, Control_c, 0, 67, 122
1, 240925, Control_c, 0, 64, 84
1, 240940, Control_c, 0, 64, 88
1, 240954, Control_c, 0, 64, 88
1, 240962, Note_off_c, 0, 35, 63
1, 240969, Control_c, 0, 64, 89
1, 240975, Note_off_c, 0, 93, 62
1, 240984, Note_on_c, 0, 89, 58
1, 240984, Control_c, 0, 64, 90
1, 240990, Note_on_c, 0, 47, 64
1, 240999, Control_c, 0, 64, 90
1, 240999, Control_c, 0, 67, 121
1, 241003, Note_off_c, 0, 89, 61
1, 241003, Note_on_c, 0, 86, 34
1, 241014, Control_c, 0, 67, 121
1, 241015, Note_off_c, 0, 47, 60
1, 241036, Note_off_c, 0, 86, 53
1, 241059, Control_c, 0, 67, 121
1, 241074, Control_c, 0, 67, 122
1, 241167, Note_on_c, 0, 62, 55
1, 241205, Note_off_c, 0, 62, 63
1, 241218, Note_on_c, 0, 68, 65
1, 241219, Note_on_c, 0, 56, 60
1, 241221, Note_on_c, 0, 59, 45
1, 241236, Note_off_c, 0, 68, 65
1, 241242, Note_off_c, 0, 56, 63
1, 241248, Note_off_c, 0, 59, 55
1, 241256, Note_on_c, 0, 71, 40
1, 241274, Control_c, 0, 67, 121
1, 241280, Poly_aftertouch_c, 0, 65, 0
1, 241284, Note_off_c, 0, 71, 49
1, 241304, Control_c, 0, 64, 89
1, 241318, Control_c, 0, 64, 85
1, 241322, Note_on_c, 0, 77, 70
1, 241333, Control_c, 0, 64, 77
1, 241348, Control_c, 0, 64, 68
1, 241363, Control_c, 0, 64, 51
1, 241368, Note_on_c, 0, 89, 79
1, 241377, Control_c, 0, 64, 29
1, 241385, Note_off_c, 0, 77, 35
1, 241388, Note_on_c, 0, 40, 45
1, 241392, Control_c, 0, 64, 49
1, 241407, Control_c, 0, 64, 60
1, 241422, Control_c, 0, 64, 65
1, 241437, Control_c, 0, 64, 68
1, 241452, Control_c, 0, 64, 71
1, 241466, Control_c, 0, 64, 74
1, 241481, Control_c, 0, 64, 77
1, 241490, Note_off_c, 0, 89, 65
1, 241492, Note_on_c, 0, 86, 71
1, 241496, Control_c, 0, 64, 78
1, 241500, Note_off_c, 0, 40, 57
1, 241501, Note_on_c, 0, 83, 58
1, 241501, Poly_aftertouch_c, 0, 41, 0
1, 241510, Control_c, 0, 64, 79
1, 241513, Note_off_c, 0, 86, 69
1, 241522, Note_on_c, 0, 52, 51
1, 241525, Note_off_c, 0, 83, 63
1, 241525, Control_c, 0, 64, 80
1, 241540, Control_c, 0, 64, 80
1, 241547, Note_off_c, 0, 52, 57
1, 241555, Control_c, 0, 64, 81
1, 241570, Control_c, 0, 64, 81
1, 241570, Control_c, 0, 67, 122
1, 241599, Control_c, 0, 67, 122
1, 241614, Control_c, 0, 64, 82
1, 241644, Control_c, 0, 67, 123
1, 241689, Control_c, 0, 67, 123
1, 241690, Note_on_c, 0, 59, 68
1, 241694, Note_on_c, 0, 62, 55
1, 241710, Note_on_c, 0, 52, 48
1, 241712, Note_off_c, 0, 59, 66
1, 241716, Note_off_c, 0, 62, 57
1, 241718, Control_c, 0, 67, 124
1, 241734, Note_on_c, 0, 64, 66
1, 241742, Note_off_c, 0, 52, 66
1, 241761, Note_off_c, 0, 64, 67
1, 241763, Note_on_c, 0, 68, 62
1, 241777, Control_c, 0, 67, 123
1, 241782, Note_off_c, 0, 68, 65
1, 241847, Note_on_c, 0, 74, 65
1, 241868, Control_c, 0, 64, 81
1, 241882, Control_c, 0, 64, 79
1, 241882, Note_on_c, 0, 33, 59
1, 241892, Note_on_c, 0, 86, 87
1, 241894, Note_on_c, 0, 77, 74
1, 241897, Control_c, 0, 64, 71
1, 241897, Note_off_c, 0, 74, 60
1, 241912, Control_c, 0, 64, 25
1, 241918, Note_off_c, 0, 77, 67
1, 241926, Control_c, 0, 64, 0
1, 241945, Note_off_c, 0, 86, 60
1, 241975, Note_off_c, 0, 33, 56
1, 242107, Note_on_c, 0, 40, 56
1, 242112, Note_on_c, 0, 74, 34
1, 242115, Note_on_c, 0, 83, 69
1, 242140, Note_off_c, 0, 40, 64
1, 242142, Note_off_c, 0, 83, 60
1, 242153, Note_off_c, 0, 74, 65
1, 242319, Note_on_c, 0, 45, 47
1, 242321, Note_on_c, 0, 80, 62
1, 242333, Note_on_c, 0, 71, 40
1, 242333, Control_c, 0, 67, 123
1, 242346, Note_off_c, 0, 45, 60
1, 242358, Note_off_c, 0, 80, 61
1, 242360, Note_off_c, 0, 71, 47
1, 242625, Note_on_c, 0, 52, 33
1, 242634, Note_on_c, 0, 81, 52
1, 242637, Note_on_c, 0, 72, 39
1, 242691, Control_c, 0, 64, 32
1, 242691, Control_c, 0, 67, 122
1, 242713, Control_c, 0, 64, 57
1, 242713, Control_c, 0, 67, 122
1, 242728, Control_c, 0, 64, 62
1, 242728, Control_c, 0, 67, 121
1, 242743, Control_c, 0, 64, 65
1, 242743, Control_c, 0, 67, 121
1, 242757, Control_c, 0, 64, 67
1, 242772, Control_c, 0, 64, 72
1, 242772, Control_c, 0, 67, 120
1, 242787, Control_c, 0, 64, 77
1, 242787, Control_c, 0, 67, 120
1, 242802, Control_c, 0, 64, 80
1, 242817, Control_c, 0, 64, 81
1, 242817, Control_c, 0, 67, 119
1, 242830, Note_off_c, 0, 52, 40
1, 242831, Control_c, 0, 64, 82
1, 242831, Control_c, 0, 67, 119
1, 242846, Control_c, 0, 64, 83
1, 242846, Control_c, 0, 67, 118
1, 242861, Control_c, 0, 64, 83
1, 242876, Control_c, 0, 64, 84
1, 242890, Control_c, 0, 64, 85
1, 242901, Note_off_c, 0, 81, 37
1, 242902, Note_off_c, 0, 72, 35
1, 242905, Control_c, 0, 67, 118
1, 242920, Control_c, 0, 64, 85
1, 242935, Control_c, 0, 67, 117
1, 242965, Control_c, 0, 67, 117
1, 242979, Control_c, 0, 67, 116
1, 243083, Control_c, 0, 67, 116
1, 243118, Note_on_c, 0, 57, 34
1, 243266, Note_off_c, 0, 57, 36
1, 243320, Control_c, 0, 64, 85
1, 243320, Control_c, 0, 67, 115
1, 243349, Control_c, 0, 67, 115
1, 243477, Control_c, 0, 67, 114
1, 243492, Control_c, 0, 67, 114
1, 243521, Control_c, 0, 67, 113
1, 243536, Control_c, 0, 67, 112
1, 243551, Control_c, 0, 67, 111
1, 243566, Control_c, 0, 67, 110
1, 243580, Control_c, 0, 67, 109
1, 243595, Control_c, 0, 67, 107
1, 243610, Control_c, 0, 67, 106
1, 243625, Control_c, 0, 67, 104
1, 243640, Control_c, 0, 67, 103
1, 243654, Control_c, 0, 67, 102
1, 243669, Control_c, 0, 67, 101
1, 243684, Control_c, 0, 67, 101
1, 243699, Control_c, 0, 64, 84
1, 243699, Control_c, 0, 67, 100
1, 243713, Control_c, 0, 67, 99
1, 243728, Control_c, 0, 67, 98
1, 243743, Control_c, 0, 67, 97
1, 243758, Control_c, 0, 67, 96
1, 243773, Control_c, 0, 67, 95
1, 243787, Control_c, 0, 67, 95
1, 243802, Control_c, 0, 64, 84
1, 243847, Control_c, 0, 64, 83
1, 243892, Control_c, 0, 64, 83
1, 243921, Control_c, 0, 64, 82
1, 243921, Control_c, 0, 67, 95
1, 243951, Control_c, 0, 64, 82
1, 243980, Control_c, 0, 64, 81
1, 243995, Control_c, 0, 64, 81
1, 243995, Control_c, 0, 67, 96
1, 244010, Control_c, 0, 64, 80
1, 244024, Control_c, 0, 64, 80
1, 244024, Control_c, 0, 67, 96
1, 244054, Control_c, 0, 64, 79
1, 244069, Control_c, 0, 64, 78
1, 244084, Control_c, 0, 64, 78
1, 244098, Control_c, 0, 64, 77
1, 244113, Control_c, 0, 64, 76
1, 244128, Control_c, 0, 64, 75
1, 244128, Control_c, 0, 67, 97
1, 244143, Control_c, 0, 64, 73
1, 244158, Control_c, 0, 64, 71
1, 244172, Control_c, 0, 64, 68
1, 244187, Control_c, 0, 64, 64
1, 244187, Control_c, 0, 67, 96
1, 244210, Control_c, 0, 64, 60
1, 244225, Control_c, 0, 64, 57
1, 244240, Control_c, 0, 64, 55
1, 244255, Control_c, 0, 64, 52
1, 244270, Control_c, 0, 64, 47
1, 244285, Control_c, 0, 64, 38
1, 244300, Control_c, 0, 64, 21
1, 244315, Control_c, 0, 64, 10
1, 244329, Control_c, 0, 64, 0
1, 244344, Control_c, 0, 67, 96
1, 244389, Control_c, 0, 67, 95
1, 244403, Control_c, 0, 64, 13
1, 244418, Control_c, 0, 64, 29
1, 244433, Control_c, 0, 64, 42
1, 244433, Control_c, 0, 67, 95
1, 244448, Control_c, 0, 64, 52
1, 244463, Control_c, 0, 64, 58
1, 244463, Control_c, 0, 67, 94
1, 244477, Control_c, 0, 64, 61
1, 244492, Control_c, 0, 64, 63
1, 244492, Control_c, 0, 67, 94
1, 244507, Control_c, 0, 64, 64
1, 244507, Control_c, 0, 67, 93
1, 244522, Control_c, 0, 64, 66
1, 244522, Control_c, 0, 67, 93
1, 244534, Note_on_c, 0, 33, 25
1, 244536, Control_c, 0, 64, 67
1, 244536, Control_c, 0, 67, 87
1, 244540, Note_on_c, 0, 57, 39
1, 244551, Control_c, 0, 64, 69
1, 244551, Control_c, 0, 67, 81
1, 244566, Control_c, 0, 64, 71
1, 244566, Control_c, 0, 67, 76
1, 244581, Control_c, 0, 64, 73
1, 244581, Control_c, 0, 67, 72
1, 244596, Control_c, 0, 64, 75
1, 244596, Control_c, 0, 67, 67
1, 244610, Control_c, 0, 64, 77
1, 244610, Control_c, 0, 67, 64
1, 244625, Control_c, 0, 64, 79
1, 244625, Control_c, 0, 67, 61
1, 244640, Control_c, 0, 64, 80
1, 244640, Control_c, 0, 67, 58
1, 244655, Control_c, 0, 64, 82
1, 244655, Control_c, 0, 67, 56
1, 244670, Control_c, 0, 64, 84
1, 244670, Control_c, 0, 67, 53
1, 244685, Control_c, 0, 64, 86
1, 244685, Control_c, 0, 67, 51
1, 244699, Control_c, 0, 64, 88
1, 244699, Control_c, 0, 67, 48
1, 244702, Note_off_c, 0, 33, 41
1, 244714, Control_c, 0, 64, 89
1, 244714, Control_c, 0, 67, 46
1, 244729, Control_c, 0, 64, 92
1, 244729, Control_c, 0, 67, 44
1, 244744, Control_c, 0, 64, 94
1, 244744, Control_c, 0, 67, 41
1, 244747, Note_off_c, 0, 57, 34
1, 244759, Control_c, 0, 64, 96
1, 244759, Control_c, 0, 67, 37
1, 244774, Control_c, 0, 64, 99
1, 244774, Control_c, 0, 67, 33
1, 244789, Control_c, 0, 64, 102
1, 244789, Control_c, 0, 67, 28
1, 244802, Control_c, 0, 64, 104
1, 244802, Control_c, 0, 67, 25
1, 244817, Control_c, 0, 64, 107
1, 244817, Control_c, 0, 67, 22
1, 244832, Control_c, 0, 64, 108
1, 244832, Control_c, 0, 67, 18
1, 244837, Note_on_c, 0, 68, 49
1, 244846, Control_c, 0, 64, 110
1, 244846, Control_c, 0, 67, 14
1, 244861, Control_c, 0, 64, 112
1, 244861, Control_c, 0, 67, 9
1, 244869, Note_on_c, 0, 44, 39
1, 244876, Control_c, 0, 64, 114
1, 244876, Control_c, 0, 67, 0
1, 244891, Control_c, 0, 64, 116
1, 244906, Control_c, 0, 64, 119
1, 244920, Control_c, 0, 64, 121
1, 244935, Control_c, 0, 64, 122
1, 244942, Note_off_c, 0, 68, 62
1, 244958, Control_c, 0, 64, 123
1, 244970, Note_off_c, 0, 44, 51
1, 244988, Control_c, 0, 64, 123
1, 245017, Control_c, 0, 64, 124
1, 245024, Note_on_c, 0, 45, 43
1, 245028, Note_on_c, 0, 69, 69
1, 245056, Note_off_c, 0, 45, 53
1, 245063, Control_c, 0, 64, 124
1, 245122, Control_c, 0, 64, 125
1, 245181, Control_c, 0, 64, 125
1, 245197, Note_on_c, 0, 56, 59
1, 245200, Note_on_c, 0, 80, 72
1, 245221, Note_off_c, 0, 69, 49
1, 245225, Control_c, 0, 64, 126
1, 245226, Note_off_c, 0, 56, 65
1, 245240, Control_c, 0, 64, 126
1, 245255, Control_c, 0, 64, 127
1, 245269, Control_c, 0, 64, 127
1, 245279, Note_off_c, 0, 80, 59
1, 245406, Note_on_c, 0, 57, 72
1, 245409, Note_on_c, 0, 81, 89
1, 245412, Note_on_c, 0, 45, 66
1, 245418, Note_on_c, 0, 69, 71
1, 245519, Note_off_c, 0, 45, 63
1, 245528, Note_off_c, 0, 57, 60
1, 245531, Note_off_c, 0, 69, 62
1, 245555, Note_off_c, 0, 81, 60
1, 245620, Note_on_c, 0, 59, 95
1, 245621, Note_on_c, 0, 83, 99
1, 245622, Note_on_c, 0, 71, 92
1, 245626, Note_on_c, 0, 47, 91
1, 245722, Note_off_c, 0, 47, 62
1, 245728, Note_off_c, 0, 71, 59
1, 245730, Note_off_c, 0, 59, 60
1, 245737, Note_off_c, 0, 83, 59
1, 245805, Note_on_c, 0, 60, 106
1, 245810, Note_on_c, 0, 48, 95
1, 245811, Note_on_c, 0, 72, 96
1, 245811, Note_on_c, 0, 84, 103
1, 245833, Note_on_c, 0, 74, 63
1, 245834, Note_off_c, 0, 74, 127
1, 245860, Note_off_c, 0, 84, 67
1, 245874, Note_off_c, 0, 60, 56
1, 245876, Note_off_c, 0, 48, 61
1, 245883, Note_off_c, 0, 72, 65
1, 245922, Poly_aftertouch_c, 0, 51, 0
1, 245971, Note_on_c, 0, 45, 82
1, 245978, Note_on_c, 0, 69, 92
1, 245986, Note_on_c, 0, 81, 72
1, 245995, Note_off_c, 0, 45, 68
1, 245995, Note_off_c, 0, 69, 73
1, 246002, Note_off_c, 0, 81, 66
1, 246005, Note_on_c, 0, 79, 45
1, 246030, Note_off_c, 0, 79, 38
1, 246190, Note_on_c, 0, 28, 74
1, 246203, Note_on_c, 0, 52, 82
1, 246211, Control_c, 0, 64, 100
1, 246226, Control_c, 0, 64, 81
1, 246241, Control_c, 0, 64, 62
1, 246255, Control_c, 0, 64, 0
1, 246285, Control_c, 0, 64, 60
1, 246300, Control_c, 0, 64, 68
1, 246315, Control_c, 0, 64, 74
1, 246330, Control_c, 0, 64, 82
1, 246345, Control_c, 0, 64, 87
1, 246359, Note_off_c, 0, 52, 60
1, 246360, Control_c, 0, 64, 89
1, 246375, Control_c, 0, 64, 91
1, 246388, Note_off_c, 0, 28, 35
1, 246390, Control_c, 0, 64, 94
1, 246404, Control_c, 0, 64, 97
1, 246413, Note_on_c, 0, 63, 64
1, 246419, Control_c, 0, 64, 99
1, 246434, Control_c, 0, 64, 101
1, 246456, Control_c, 0, 64, 103
1, 246471, Control_c, 0, 64, 104
1, 246486, Control_c, 0, 64, 105
1, 246500, Control_c, 0, 64, 106
1, 246515, Control_c, 0, 64, 107
1, 246530, Control_c, 0, 64, 108
1, 246534, Note_off_c, 0, 63, 64
1, 246555, Note_on_c, 0, 40, 17
1, 246560, Control_c, 0, 64, 109
1, 246574, Control_c, 0, 64, 109
1, 246590, Note_on_c, 0, 64, 68
1, 246592, Note_off_c, 0, 40, 55
1, 246604, Control_c, 0, 64, 110
1, 246619, Control_c, 0, 64, 110
1, 246664, Note_off_c, 0, 64, 57
1, 246665, Control_c, 0, 64, 111
1, 246694, Control_c, 0, 64, 111
1, 246720, Note_on_c, 0, 51, 35
1, 246723, Control_c, 0, 64, 112
1, 246729, Note_on_c, 0, 75, 61
1, 246753, Control_c, 0, 64, 112
1, 246755, Note_off_c, 0, 51, 44
1, 246795, Note_off_c, 0, 75, 63
1, 246871, Note_on_c, 0, 52, 60
1, 246875, Note_on_c, 0, 76, 69
1, 246923, Note_on_c, 0, 64, 81
1, 246935, Note_on_c, 0, 88, 94
1, 246961, Control_c, 0, 64, 113
1, 246976, Control_c, 0, 64, 113
1, 246991, Control_c, 0, 64, 114
1, 247005, Control_c, 0, 64, 114
1, 247011, Note_off_c, 0, 64, 62
1, 247020, Control_c, 0, 64, 115
1, 247028, Note_off_c, 0, 52, 66
1, 247035, Note_off_c, 0, 76, 62
1, 247035, Control_c, 0, 64, 116
1, 247039, Note_off_c, 0, 88, 60
1, 247049, Control_c, 0, 64, 116
1, 247064, Control_c, 0, 64, 117
1, 247079, Control_c, 0, 64, 117
1, 247094, Control_c, 0, 64, 118
1, 247123, Control_c, 0, 64, 118
1, 247134, Note_on_c, 0, 62, 103
1, 247134, Note_on_c, 0, 86, 104
1, 247135, Note_on_c, 0, 74, 97
1, 247138, Note_on_c, 0, 50, 99
1, 247153, Control_c, 0, 64, 119
1, 247168, Control_c, 0, 64, 119
1, 247183, Control_c, 0, 64, 120
1, 247205, Control_c, 0, 64, 121
1, 247220, Control_c, 0, 64, 121
1, 247231, Note_off_c, 0, 62, 62
1, 247235, Control_c, 0, 64, 123
1, 247239, Note_off_c, 0, 74, 64
1, 247239, Note_off_c, 0, 50, 63
1, 247243, Note_off_c, 0, 86, 61
1, 247249, Control_c, 0, 64, 124
1, 247264, Control_c, 0, 64, 126
1, 247279, Control_c, 0, 64, 126
1, 247294, Control_c, 0, 64, 127
1, 247315, Note_on_c, 0, 60, 108
1, 247319, Note_on_c, 0, 48, 102
1, 247320, Note_on_c, 0, 72, 103
1, 247320, Note_on_c, 0, 84, 105
1, 247337, Note_on_c, 0, 74, 70
1, 247338, Control_c, 0, 64, 127
1, 247350, Note_on_c, 0, 51, 51
1, 247352, Note_off_c, 0, 74, 70
1, 247376, Note_off_c, 0, 51, 57
1, 247396, Note_off_c, 0, 48, 64
1, 247400, Note_off_c, 0, 84, 60
1, 247402, Note_off_c, 0, 72, 65
1, 247409, Note_off_c, 0, 60, 53
1, 247475, Note_on_c, 0, 47, 93
1, 247477, Note_on_c, 0, 83, 97
1, 247478, Note_on_c, 0, 71, 102
1, 247500, Note_off_c, 0, 47, 70
1, 247505, Note_off_c, 0, 83, 65
1, 247516, Note_off_c, 0, 71, 65
1, 247708, Note_on_c, 0, 33, 73
1, 247710, Control_c, 0, 64, 110
1, 247725, Control_c, 0, 64, 88
1, 247730, Note_on_c, 0, 57, 72
1, 247740, Control_c, 0, 64, 65
1, 247754, Control_c, 0, 64, 0
1, 247797, Control_c, 0, 64, 43
1, 247812, Control_c, 0, 64, 65
1, 247826, Control_c, 0, 64, 71
1, 247841, Control_c, 0, 64, 75
1, 247856, Control_c, 0, 64, 77
1, 247871, Control_c, 0, 64, 80
1, 247886, Control_c, 0, 64, 82
1, 247892, Note_off_c, 0, 57, 55
1, 247898, Note_off_c, 0, 33, 39
1, 247901, Control_c, 0, 64, 85
1, 247916, Control_c, 0, 64, 88
1, 247931, Control_c, 0, 64, 93
1, 247933, Note_on_c, 0, 68, 67
1, 247952, Control_c, 0, 64, 96
1, 247967, Control_c, 0, 64, 98
1, 247974, Note_on_c, 0, 44, 49
1, 247982, Control_c, 0, 64, 100
1, 247997, Control_c, 0, 64, 101
1, 248012, Control_c, 0, 64, 102
1, 248026, Control_c, 0, 64, 103
1, 248041, Control_c, 0, 64, 103
1, 248056, Control_c, 0, 64, 104
1, 248060, Note_off_c, 0, 44, 62
1, 248061, Note_off_c, 0, 68, 64
1, 248071, Control_c, 0, 64, 104
1, 248078, Note_on_c, 0, 45, 52
1, 248086, Control_c, 0, 64, 105
1, 248101, Control_c, 0, 64, 105
1, 248110, Note_off_c, 0, 45, 65
1, 248113, Note_on_c, 0, 69, 77
1, 248116, Control_c, 0, 64, 106
1, 248145, Control_c, 0, 64, 106
1, 248175, Control_c, 0, 64, 107
1, 248220, Control_c, 0, 64, 107
1, 248260, Note_on_c, 0, 56, 60
1, 248265, Control_c, 0, 64, 108
1, 248274, Note_on_c, 0, 80, 73
1, 248279, Control_c, 0, 64, 108
1, 248289, Note_off_c, 0, 56, 65
1, 248294, Control_c, 0, 64, 109
1, 248296, Note_off_c, 0, 69, 58
1, 248309, Control_c, 0, 64, 109
1, 248324, Control_c, 0, 64, 110
1, 248341, Note_off_c, 0, 80, 61
1, 248354, Control_c, 0, 64, 110
1, 248413, Control_c, 0, 64, 111
1, 248446, Note_on_c, 0, 81, 90
1, 248447, Note_on_c, 0, 57, 75
1, 248450, Note_on_c, 0, 69, 81
1, 248454, Note_on_c, 0, 45, 71
1, 248553, Note_off_c, 0, 45, 62
1, 248563, Note_off_c, 0, 69, 62
1, 248566, Note_off_c, 0, 57, 59
1, 248582, Note_off_c, 0, 81, 60
1, 248643, Note_on_c, 0, 59, 96
1, 248643, Note_on_c, 0, 71, 97
1, 248644, Note_on_c, 0, 83, 102
1, 248647, Note_on_c, 0, 47, 95
1, 248704, Note_on_c, 0, 49, 27
1, 248742, Note_off_c, 0, 49, 43
1, 248744, Note_off_c, 0, 47, 63
1, 248745, Note_off_c, 0, 71, 60
1, 248746, Note_off_c, 0, 59, 63
1, 248751, Note_off_c, 0, 83, 60
1, 248763, Poly_aftertouch_c, 0, 80, 0
1, 248805, Control_c, 0, 64, 111
1, 248816, Note_on_c, 0, 60, 103
1, 248819, Note_on_c, 0, 72, 105
1, 248821, Note_on_c, 0, 48, 98
1, 248822, Note_on_c, 0, 84, 105
1, 248849, Control_c, 0, 64, 112
1, 248863, Note_off_c, 0, 84, 65
1, 248864, Control_c, 0, 64, 112
1, 248879, Note_off_c, 0, 60, 55
1, 248879, Control_c, 0, 64, 114
1, 248880, Note_off_c, 0, 48, 63
1, 248885, Note_off_c, 0, 72, 65
1, 248894, Control_c, 0, 64, 115
1, 248908, Control_c, 0, 64, 116
1, 248923, Control_c, 0, 64, 117
1, 248938, Control_c, 0, 64, 118
1, 248953, Control_c, 0, 64, 120
1, 248967, Note_on_c, 0, 45, 81
1, 248968, Control_c, 0, 64, 121
1, 248979, Note_on_c, 0, 69, 98
1, 248979, Note_on_c, 0, 81, 87
1, 248983, Control_c, 0, 64, 123
1, 248990, Note_off_c, 0, 45, 70
1, 248997, Note_off_c, 0, 81, 70
1, 248998, Control_c, 0, 64, 125
1, 249001, Note_off_c, 0, 69, 68
1, 249013, Control_c, 0, 64, 127
1, 249028, Control_c, 0, 64, 127
1, 249177, Control_c, 0, 64, 111
1, 249191, Control_c, 0, 64, 91
1, 249206, Control_c, 0, 64, 72
1, 249211, Note_on_c, 0, 26, 59
1, 249213, Note_on_c, 0, 52, 72
1, 249214, Note_on_c, 0, 28, 56
1, 249221, Control_c, 0, 64, 0
1, 249265, Control_c, 0, 64, 48
1, 249266, Note_off_c, 0, 26, 60
1, 249280, Control_c, 0, 64, 64
1, 249296, Control_c, 0, 64, 69
1, 249311, Control_c, 0, 64, 73
1, 249325, Control_c, 0, 64, 76
1, 249340, Control_c, 0, 64, 79
1, 249341, Note_off_c, 0, 52, 58
1, 249355, Control_c, 0, 64, 81
1, 249370, Control_c, 0, 64, 83
1, 249385, Control_c, 0, 64, 84
1, 249397, Note_on_c, 0, 63, 68
1, 249399, Control_c, 0, 64, 85
1, 249400, Note_off_c, 0, 28, 33
1, 249414, Control_c, 0, 64, 87
1, 249429, Control_c, 0, 64, 89
1, 249451, Control_c, 0, 64, 91
1, 249466, Control_c, 0, 64, 93
1, 249467, Note_on_c, 0, 39, 42
1, 249481, Control_c, 0, 64, 95
1, 249496, Control_c, 0, 64, 96
1, 249511, Control_c, 0, 64, 96
1, 249520, Note_off_c, 0, 39, 61
1, 249522, Note_off_c, 0, 63, 62
1, 249525, Control_c, 0, 64, 97
1, 249540, Control_c, 0, 64, 98
1, 249555, Control_c, 0, 64, 99
1, 249555, Note_on_c, 0, 40, 38
1, 249570, Control_c, 0, 64, 100
1, 249570, Note_on_c, 0, 64, 77
1, 249585, Control_c, 0, 64, 101
1, 249591, Note_off_c, 0, 40, 52
1, 249599, Control_c, 0, 64, 102
1, 249614, Control_c, 0, 64, 102
1, 249629, Control_c, 0, 64, 103
1, 249650, Note_off_c, 0, 64, 61
1, 249658, Control_c, 0, 64, 104
1, 249673, Control_c, 0, 64, 104
1, 249688, Control_c, 0, 64, 105
1, 249703, Control_c, 0, 64, 106
1, 249717, Note_on_c, 0, 51, 63
1, 249717, Control_c, 0, 64, 107
1, 249725, Note_on_c, 0, 75, 66
1, 249732, Control_c, 0, 64, 107
1, 249747, Control_c, 0, 64, 109
1, 249762, Control_c, 0, 64, 109
1, 249777, Control_c, 0, 64, 110
1, 249791, Control_c, 0, 64, 111
1, 249806, Control_c, 0, 64, 111
1, 249822, Control_c, 0, 64, 112
1, 249837, Control_c, 0, 64, 113
1, 249847, Note_off_c, 0, 75, 64
1, 249852, Control_c, 0, 64, 114
1, 249859, Note_off_c, 0, 51, 63
1, 249866, Control_c, 0, 64, 114
1, 249876, Note_on_c, 0, 52, 69
1, 249881, Control_c, 0, 64, 115
1, 249895, Note_on_c, 0, 76, 80
1, 249896, Control_c, 0, 64, 116
1, 249906, Note_off_c, 0, 52, 67
1, 249926, Control_c, 0, 64, 116
1, 249955, Control_c, 0, 64, 117
1, 249970, Control_c, 0, 64, 118
1, 249985, Control_c, 0, 64, 118
1, 249988, Note_off_c, 0, 76, 61
1, 250000, Control_c, 0, 64, 119
1, 250029, Control_c, 0, 64, 119
1, 250040, Note_on_c, 0, 87, 75
1, 250044, Control_c, 0, 64, 120
1, 250059, Control_c, 0, 64, 120
1, 250074, Control_c, 0, 64, 121
1, 250089, Control_c, 0, 64, 121
1, 250094, Note_off_c, 0, 87, 59
1, 250104, Control_c, 0, 64, 122
1, 250119, Control_c, 0, 64, 123
1, 250148, Control_c, 0, 64, 123
1, 250178, Control_c, 0, 64, 124
1, 250202, Note_on_c, 0, 88, 73
1, 250215, Control_c, 0, 64, 124
1, 250229, Control_c, 0, 64, 125
1, 250244, Control_c, 0, 64, 125
1, 250245, Note_on_c, 0, 100, 104
1, 250250, Note_on_c, 0, 74, 69
1, 250250, Note_off_c, 0, 88, 64
1, 250259, Control_c, 0, 64, 127
1, 250260, Note_on_c, 0, 64, 39
1, 250272, Note_off_c, 0, 100, 69
1, 250273, Note_off_c, 0, 74, 70
1, 250274, Control_c, 0, 64, 127
1, 250288, Note_off_c, 0, 64, 50
1, 250675, Note_on_c, 0, 35, 57
1, 250680, Note_on_c, 0, 57, 74
1, 250689, Control_c, 0, 64, 108
1, 250704, Control_c, 0, 64, 86
1, 250719, Control_c, 0, 64, 68
1, 250734, Control_c, 0, 64, 0
1, 250778, Control_c, 0, 64, 58
1, 250792, Control_c, 0, 64, 67
1, 250807, Control_c, 0, 64, 73
1, 250822, Control_c, 0, 64, 79
1, 250837, Control_c, 0, 64, 84
1, 250852, Control_c, 0, 64, 87
1, 250867, Control_c, 0, 64, 88
1, 250876, Note_off_c, 0, 57, 58
1, 250881, Control_c, 0, 64, 91
1, 250896, Control_c, 0, 64, 94
1, 250911, Control_c, 0, 64, 96
1, 250915, Note_on_c, 0, 68, 61
1, 250924, Note_off_c, 0, 35, 34
1, 250926, Control_c, 0, 64, 98
1, 250945, Note_on_c, 0, 44, 31
1, 250948, Control_c, 0, 64, 100
1, 250962, Control_c, 0, 64, 101
1, 250977, Control_c, 0, 64, 102
1, 250992, Control_c, 0, 64, 103
1, 250999, Note_off_c, 0, 44, 56
1, 251007, Control_c, 0, 64, 103
1, 251022, Control_c, 0, 64, 104
1, 251029, Note_off_c, 0, 68, 64
1, 251050, Note_on_c, 0, 45, 46
1, 251052, Control_c, 0, 64, 104
1, 251080, Note_on_c, 0, 69, 75
1, 251082, Control_c, 0, 64, 105
1, 251085, Note_off_c, 0, 45, 65
1, 251111, Control_c, 0, 64, 105
1, 251141, Control_c, 0, 64, 106
1, 251156, Control_c, 0, 64, 106
1, 251185, Control_c, 0, 64, 107
1, 251200, Control_c, 0, 64, 107
1, 251214, Control_c, 0, 64, 108
1, 251229, Control_c, 0, 64, 108
1, 251243, Note_on_c, 0, 56, 52
1, 251244, Control_c, 0, 64, 109
1, 251245, Note_on_c, 0, 80, 72
1, 251259, Control_c, 0, 64, 110
1, 251268, Note_off_c, 0, 56, 60
1, 251269, Note_off_c, 0, 69, 60
1, 251274, Control_c, 0, 64, 111
1, 251288, Control_c, 0, 64, 112
1, 251303, Control_c, 0, 64, 113
1, 251318, Control_c, 0, 64, 114
1, 251319, Note_off_c, 0, 80, 61
1, 251333, Control_c, 0, 64, 116
1, 251348, Control_c, 0, 64, 117
1, 251362, Control_c, 0, 64, 118
1, 251377, Control_c, 0, 64, 119
1, 251392, Control_c, 0, 64, 120
1, 251407, Control_c, 0, 64, 121
1, 251413, Note_on_c, 0, 57, 69
1, 251418, Note_on_c, 0, 81, 88
1, 251421, Note_on_c, 0, 69, 74
1, 251423, Control_c, 0, 64, 124
1, 251425, Note_on_c, 0, 45, 61
1, 251438, Control_c, 0, 64, 127
1, 251499, Note_off_c, 0, 45, 60
1, 251509, Note_off_c, 0, 69, 62
1, 251515, Note_off_c, 0, 57, 58
1, 251535, Note_off_c, 0, 81, 58
1, 251601, Note_on_c, 0, 59, 101
1, 251603, Note_on_c, 0, 71, 92
1, 251603, Note_on_c, 0, 83, 100
1, 251605, Note_on_c, 0, 47, 92
1, 251661, Note_on_c, 0, 49, 16
1, 251693, Note_off_c, 0, 47, 63
1, 251695, Note_off_c, 0, 71, 60
1, 251697, Note_off_c, 0, 59, 62
1, 251702, Note_off_c, 0, 83, 61
1, 251714, Note_off_c, 0, 49, 39
1, 251767, Note_on_c, 0, 60, 102
1, 251773, Note_on_c, 0, 48, 95
1, 251773, Note_on_c, 0, 72, 101
1, 251775, Note_on_c, 0, 84, 104
1, 251813, Note_off_c, 0, 84, 68
1, 251820, Note_off_c, 0, 48, 61
1, 251825, Note_off_c, 0, 60, 56
1, 251835, Note_off_c, 0, 72, 61
1, 251883, Poly_aftertouch_c, 0, 51, 0
1, 251929, Note_on_c, 0, 45, 72
1, 251937, Note_on_c, 0, 81, 84
1, 251938, Note_on_c, 0, 69, 85
1, 251950, Note_off_c, 0, 45, 64
1, 251957, Note_off_c, 0, 81, 70
1, 251959, Note_off_c, 0, 69, 72
1, 252141, Control_c, 0, 64, 108
1, 252154, Note_on_c, 0, 28, 71
1, 252156, Control_c, 0, 64, 86
1, 252166, Note_on_c, 0, 52, 72
1, 252171, Control_c, 0, 64, 65
1, 252185, Control_c, 0, 64, 0
1, 252231, Control_c, 0, 64, 59
1, 252246, Control_c, 0, 64, 68
1, 252260, Control_c, 0, 64, 74
1, 252275, Control_c, 0, 64, 82
1, 252286, Note_off_c, 0, 52, 50
1, 252291, Control_c, 0, 64, 88
1, 252306, Control_c, 0, 64, 91
1, 252313, Note_off_c, 0, 28, 47
1, 252321, Control_c, 0, 64, 94
1, 252335, Control_c, 0, 64, 97
1, 252346, Note_on_c, 0, 63, 62
1, 252350, Control_c, 0, 64, 100
1, 252365, Control_c, 0, 64, 103
1, 252380, Control_c, 0, 64, 106
1, 252395, Control_c, 0, 64, 108
1, 252409, Control_c, 0, 64, 109
1, 252420, Note_on_c, 0, 39, 6
1, 252424, Control_c, 0, 64, 111
1, 252447, Control_c, 0, 64, 113
1, 252453, Note_off_c, 0, 63, 63
1, 252462, Control_c, 0, 64, 115
1, 252476, Control_c, 0, 64, 116
1, 252477, Note_on_c, 0, 40, 46
1, 252480, Note_off_c, 0, 39, 35
1, 252491, Control_c, 0, 64, 117
1, 252506, Control_c, 0, 64, 118
1, 252509, Note_off_c, 0, 40, 53
1, 252513, Note_on_c, 0, 64, 66
1, 252521, Control_c, 0, 64, 118
1, 252536, Control_c, 0, 64, 119
1, 252550, Control_c, 0, 64, 119
1, 252580, Control_c, 0, 64, 120
1, 252596, Note_off_c, 0, 64, 59
1, 252654, Note_on_c, 0, 75, 61
1, 252654, Control_c, 0, 64, 120
1, 252661, Note_on_c, 0, 51, 37
1, 252694, Note_off_c, 0, 51, 45
1, 252698, Control_c, 0, 64, 121
1, 252724, Note_off_c, 0, 75, 64
1, 252814, Note_on_c, 0, 76, 61
1, 252827, Note_on_c, 0, 52, 54
1, 252874, Note_on_c, 0, 64, 76
1, 252876, Note_on_c, 0, 88, 83
1, 252938, Note_off_c, 0, 64, 62
1, 252938, Note_off_c, 0, 76, 64
1, 252949, Note_off_c, 0, 88, 62
1, 252952, Note_off_c, 0, 52, 64
1, 252980, Control_c, 0, 64, 121
1, 253058, Note_on_c, 0, 86, 96
1, 253059, Note_on_c, 0, 62, 103
1, 253060, Note_on_c, 0, 74, 95
1, 253066, Note_on_c, 0, 50, 93
1, 253132, Note_off_c, 0, 62, 59
1, 253143, Note_off_c, 0, 50, 61
1, 253144, Note_off_c, 0, 86, 62
1, 253144, Note_off_c, 0, 74, 62
1, 253173, Control_c, 0, 64, 122
1, 253195, Control_c, 0, 64, 122
1, 253225, Control_c, 0, 64, 123
1, 253228, Note_on_c, 0, 60, 107
1, 253230, Note_on_c, 0, 72, 103
1, 253230, Note_on_c, 0, 84, 105
1, 253233, Note_on_c, 0, 48, 99
1, 253252, Note_on_c, 0, 51, 66
1, 253255, Note_on_c, 0, 74, 61
1, 253255, Control_c, 0, 64, 124
1, 253270, Control_c, 0, 64, 126
1, 253272, Note_off_c, 0, 74, 68
1, 253274, Note_off_c, 0, 51, 61
1, 253284, Control_c, 0, 64, 127
1, 253300, Note_off_c, 0, 84, 66
1, 253301, Note_off_c, 0, 48, 64
1, 253307, Note_off_c, 0, 72, 61
1, 253316, Note_off_c, 0, 60, 52
1, 253380, Note_on_c, 0, 47, 83
1, 253384, Note_on_c, 0, 83, 94
1, 253385, Note_on_c, 0, 71, 95
1, 253399, Note_off_c, 0, 83, 71
1, 253403, Note_off_c, 0, 47, 67
1, 253420, Note_off_c, 0, 71, 64
1, 253565, Control_c, 0, 64, 117
1, 253580, Control_c, 0, 64, 95
1, 253595, Control_c, 0, 64, 76
1, 253603, Note_on_c, 0, 33, 72
1, 253609, Control_c, 0, 64, 21
1, 253613, Note_on_c, 0, 57, 58
1, 253624, Control_c, 0, 64, 0
1, 253669, Control_c, 0, 64, 64
1, 253684, Control_c, 0, 64, 71
1, 253699, Control_c, 0, 64, 78
1, 253714, Control_c, 0, 64, 86
1, 253729, Control_c, 0, 64, 91
1, 253735, Note_off_c, 0, 33, 52
1, 253743, Control_c, 0, 64, 93
1, 253752, Note_off_c, 0, 57, 48
1, 253758, Control_c, 0, 64, 96
1, 253773, Control_c, 0, 64, 98
1, 253788, Control_c, 0, 64, 101
1, 253799, Note_on_c, 0, 68, 62
1, 253803, Control_c, 0, 64, 104
1, 253818, Control_c, 0, 64, 107
1, 253833, Control_c, 0, 64, 109
1, 253836, Note_on_c, 0, 44, 43
1, 253848, Control_c, 0, 64, 110
1, 253863, Control_c, 0, 64, 112
1, 253878, Control_c, 0, 64, 113
1, 253893, Control_c, 0, 64, 114
1, 253905, Note_off_c, 0, 44, 62
1, 253907, Control_c, 0, 64, 114
1, 253910, Note_off_c, 0, 68, 63
1, 253945, Note_on_c, 0, 45, 42
1, 253959, Control_c, 0, 64, 115
1, 253975, Note_off_c, 0, 45, 55
1, 253981, Note_on_c, 0, 69, 69
1, 254048, Control_c, 0, 64, 115
1, 254126, Note_on_c, 0, 56, 60
1, 254134, Note_on_c, 0, 80, 69
1, 254149, Note_off_c, 0, 69, 32
1, 254152, Control_c, 0, 64, 116
1, 254156, Note_off_c, 0, 56, 65
1, 254197, Note_off_c, 0, 80, 52
1, 254310, Note_on_c, 0, 57, 75
1, 254313, Note_on_c, 0, 81, 85
1, 254318, Note_on_c, 0, 69, 73
1, 254319, Note_on_c, 0, 45, 67
1, 254344, Control_c, 0, 64, 116
1, 254390, Note_off_c, 0, 69, 61
1, 254392, Note_off_c, 0, 45, 62
1, 254398, Note_off_c, 0, 57, 55
1, 254403, Control_c, 0, 64, 117
1, 254419, Note_off_c, 0, 81, 58
1, 254432, Control_c, 0, 64, 117
1, 254492, Note_on_c, 0, 59, 97
1, 254496, Note_on_c, 0, 71, 95
1, 254497, Note_on_c, 0, 83, 98
1, 254498, Note_on_c, 0, 47, 87
1, 254536, Control_c, 0, 64, 118
1, 254540, Note_on_c, 0, 49, 36
1, 254564, Note_off_c, 0, 47, 63
1, 254570, Note_off_c, 0, 59, 62
1, 254575, Note_off_c, 0, 49, 49
1, 254579, Note_off_c, 0, 71, 58
1, 254584, Note_off_c, 0, 83, 60
1, 254650, Note_on_c, 0, 60, 106
1, 254656, Note_on_c, 0, 48, 101
1, 254656, Note_on_c, 0, 72, 104
1, 254659, Note_on_c, 0, 84, 104
1, 254693, Control_c, 0, 64, 118
1, 254708, Control_c, 0, 64, 119
1, 254709, Note_off_c, 0, 84, 60
1, 254709, Note_on_c, 0, 82, 29
1, 254710, Note_off_c, 0, 82, 127
1, 254715, Note_off_c, 0, 48, 61
1, 254721, Note_off_c, 0, 60, 54
1, 254723, Control_c, 0, 64, 122
1, 254730, Note_off_c, 0, 72, 58
1, 254737, Control_c, 0, 64, 126
1, 254752, Control_c, 0, 64, 127
1, 254814, Note_on_c, 0, 45, 70
1, 254826, Note_on_c, 0, 69, 87
1, 254826, Note_on_c, 0, 81, 83
1, 254833, Note_off_c, 0, 45, 68
1, 254837, Note_off_c, 0, 81, 70
1, 254846, Note_off_c, 0, 69, 70
1, 255019, Control_c, 0, 64, 116
1, 255034, Control_c, 0, 64, 94
1, 255048, Note_on_c, 0, 28, 72
1, 255049, Control_c, 0, 64, 73
1, 255063, Note_on_c, 0, 52, 63
1, 255063, Control_c, 0, 64, 0
1, 255108, Control_c, 0, 64, 22
1, 255123, Control_c, 0, 64, 63
1, 255137, Control_c, 0, 64, 71
1, 255152, Control_c, 0, 64, 78
1, 255165, Note_off_c, 0, 52, 59
1, 255167, Control_c, 0, 64, 85
1, 255182, Control_c, 0, 64, 88
1, 255193, Note_off_c, 0, 28, 37
1, 255197, Control_c, 0, 64, 90
1, 255211, Control_c, 0, 64, 92
1, 255226, Control_c, 0, 64, 95
1, 255239, Note_on_c, 0, 63, 64
1, 255241, Control_c, 0, 64, 98
1, 255255, Control_c, 0, 64, 101
1, 255270, Control_c, 0, 64, 103
1, 255281, Note_on_c, 0, 39, 38
1, 255285, Control_c, 0, 64, 106
1, 255300, Control_c, 0, 64, 107
1, 255314, Control_c, 0, 64, 108
1, 255329, Control_c, 0, 64, 110
1, 255334, Note_off_c, 0, 39, 61
1, 255344, Control_c, 0, 64, 111
1, 255347, Note_off_c, 0, 63, 62
1, 255359, Control_c, 0, 64, 112
1, 255370, Note_on_c, 0, 40, 37
1, 255374, Control_c, 0, 64, 112
1, 255388, Control_c, 0, 64, 113
1, 255403, Note_on_c, 0, 64, 71
1, 255404, Control_c, 0, 64, 113
1, 255408, Note_off_c, 0, 40, 49
1, 255419, Control_c, 0, 64, 114
1, 255441, Control_c, 0, 64, 114
1, 255471, Control_c, 0, 64, 115
1, 255475, Note_off_c, 0, 64, 57
1, 255485, Control_c, 0, 64, 115
1, 255530, Control_c, 0, 64, 116
1, 255552, Note_on_c, 0, 51, 60
1, 255569, Note_on_c, 0, 75, 58
1, 255633, Control_c, 0, 64, 116
1, 255681, Note_off_c, 0, 75, 62
1, 255682, Note_off_c, 0, 51, 62
1, 255707, Note_on_c, 0, 52, 61
1, 255729, Note_on_c, 0, 76, 77
1, 255737, Note_off_c, 0, 52, 68
1, 255812, Note_off_c, 0, 76, 62
1, 255826, Control_c, 0, 64, 117
1, 255856, Control_c, 0, 64, 117
1, 255864, Note_on_c, 0, 87, 70
1, 255871, Control_c, 0, 64, 118
1, 255885, Control_c, 0, 64, 120
1, 255900, Control_c, 0, 64, 121
1, 255915, Control_c, 0, 64, 121
1, 255916, Note_off_c, 0, 87, 61
1, 255930, Control_c, 0, 64, 123
1, 255959, Control_c, 0, 64, 124
1, 255974, Control_c, 0, 64, 125
1, 255989, Control_c, 0, 64, 125
1, 256003, Control_c, 0, 64, 126
1, 256015, Note_on_c, 0, 88, 61
1, 256018, Control_c, 0, 64, 126
1, 256034, Control_c, 0, 64, 127
1, 256049, Control_c, 0, 64, 127
1, 256069, Note_on_c, 0, 100, 102
1, 256086, Note_on_c, 0, 76, 45
1, 256099, Note_off_c, 0, 100, 67
1, 256103, Note_off_c, 0, 88, 65
1, 256113, Note_off_c, 0, 76, 52
1, 256434, Note_on_c, 0, 33, 32
1, 256489, Note_on_c, 0, 57, 69
1, 256502, Control_c, 0, 64, 107
1, 256516, Control_c, 0, 64, 88
1, 256531, Control_c, 0, 64, 71
1, 256546, Control_c, 0, 64, 52
1, 256561, Control_c, 0, 64, 62
1, 256575, Control_c, 0, 64, 68
1, 256590, Control_c, 0, 64, 74
1, 256605, Control_c, 0, 64, 84
1, 256620, Control_c, 0, 64, 92
1, 256635, Control_c, 0, 64, 97
1, 256637, Note_off_c, 0, 57, 56
1, 256650, Control_c, 0, 64, 99
1, 256653, Note_off_c, 0, 33, 44
1, 256665, Control_c, 0, 64, 102
1, 256680, Control_c, 0, 64, 105
1, 256686, Note_on_c, 0, 68, 59
1, 256695, Control_c, 0, 64, 108
1, 256709, Control_c, 0, 64, 110
1, 256724, Control_c, 0, 64, 112
1, 256739, Control_c, 0, 64, 113
1, 256742, Note_on_c, 0, 44, 38
1, 256754, Control_c, 0, 64, 115
1, 256769, Control_c, 0, 64, 117
1, 256781, Note_off_c, 0, 44, 60
1, 256783, Control_c, 0, 64, 119
1, 256790, Note_off_c, 0, 68, 64
1, 256798, Control_c, 0, 64, 121
1, 256813, Control_c, 0, 64, 122
1, 256827, Control_c, 0, 64, 123
1, 256848, Note_on_c, 0, 69, 70
1, 256857, Control_c, 0, 64, 124
1, 256864, Poly_aftertouch_c, 0, 45, 127
1, 256872, Control_c, 0, 64, 125
1, 256887, Control_c, 0, 64, 125
1, 256892, Poly_aftertouch_c, 0, 45, 0
1, 256901, Control_c, 0, 64, 126
1, 256917, Note_off_c, 0, 69, 59
1, 256954, Control_c, 0, 64, 126
1, 256992, Note_on_c, 0, 80, 61
1, 257006, Note_on_c, 0, 56, 31
1, 257046, Note_off_c, 0, 56, 42
1, 257059, Note_off_c, 0, 80, 63
1, 257147, Note_on_c, 0, 81, 67
1, 257154, Note_on_c, 0, 57, 51
1, 257206, Note_on_c, 0, 69, 79
1, 257207, Note_on_c, 0, 93, 89
1, 257278, Note_off_c, 0, 81, 58
1, 257282, Note_off_c, 0, 69, 62
1, 257289, Note_off_c, 0, 93, 60
1, 257295, Control_c, 0, 64, 127
1, 257301, Note_off_c, 0, 57, 62
1, 257369, Control_c, 0, 64, 127
1, 257418, Note_on_c, 0, 67, 96
1, 257419, Note_on_c, 0, 91, 98
1, 257420, Note_on_c, 0, 79, 101
1, 257422, Note_on_c, 0, 55, 97
1, 257500, Note_off_c, 0, 67, 58
1, 257508, Note_off_c, 0, 79, 60
1, 257508, Note_off_c, 0, 55, 63
1, 257511, Note_off_c, 0, 91, 60
1, 257577, Note_on_c, 0, 65, 102
1, 257581, Note_on_c, 0, 53, 95
1, 257584, Note_on_c, 0, 77, 106
1, 257584, Note_on_c, 0, 89, 104
1, 257604, Note_on_c, 0, 56, 63
1, 257629, Note_off_c, 0, 56, 54
1, 257651, Note_off_c, 0, 53, 64
1, 257659, Note_off_c, 0, 89, 62
1, 257666, Note_off_c, 0, 77, 61
1, 257686, Note_off_c, 0, 65, 57
1, 257735, Note_on_c, 0, 52, 86
1, 257744, Note_on_c, 0, 88, 88
1, 257747, Note_on_c, 0, 76, 93
1, 257756, Note_off_c, 0, 52, 74
1, 257760, Note_off_c, 0, 88, 73
1, 257781, Note_off_c, 0, 76, 70
1, 257956, Control_c, 0, 64, 107
1, 257971, Note_on_c, 0, 26, 71
1, 257971, Control_c, 0, 64, 82
1, 257986, Control_c, 0, 64, 58
1, 257993, Note_on_c, 0, 50, 64
1, 258001, Control_c, 0, 64, 0
1, 258045, Control_c, 0, 64, 61
1, 258060, Control_c, 0, 64, 68
1, 258075, Control_c, 0, 64, 76
1, 258090, Control_c, 0, 64, 83
1, 258096, Note_off_c, 0, 50, 51
1, 258105, Control_c, 0, 64, 87
1, 258119, Control_c, 0, 64, 90
1, 258134, Control_c, 0, 64, 93
1, 258148, Note_off_c, 0, 26, 33
1, 258149, Control_c, 0, 64, 96
1, 258152, Note_on_c, 0, 61, 65
1, 258164, Control_c, 0, 64, 100
1, 258179, Control_c, 0, 64, 103
1, 258194, Control_c, 0, 64, 105
1, 258202, Note_on_c, 0, 37, 42
1, 258208, Control_c, 0, 64, 107
1, 258223, Control_c, 0, 64, 110
1, 258238, Control_c, 0, 64, 112
1, 258253, Control_c, 0, 64, 114
1, 258257, Note_off_c, 0, 37, 62
1, 258264, Note_off_c, 0, 61, 61
1, 258268, Control_c, 0, 64, 115
1, 258282, Control_c, 0, 64, 116
1, 258297, Control_c, 0, 64, 117
1, 258304, Note_on_c, 0, 38, 21
1, 258312, Control_c, 0, 64, 118
1, 258327, Note_on_c, 0, 62, 67
1, 258327, Control_c, 0, 64, 118
1, 258342, Control_c, 0, 64, 119
1, 258356, Note_off_c, 0, 38, 50
1, 258356, Control_c, 0, 64, 121
1, 258371, Control_c, 0, 64, 121
1, 258386, Control_c, 0, 64, 122
1, 258400, Control_c, 0, 64, 123
1, 258415, Control_c, 0, 64, 124
1, 258419, Note_off_c, 0, 62, 57
1, 258438, Control_c, 0, 64, 125
1, 258453, Control_c, 0, 64, 126
1, 258468, Control_c, 0, 64, 127
1, 258474, Note_on_c, 0, 49, 57
1, 258482, Control_c, 0, 64, 127
1, 258489, Note_on_c, 0, 73, 58
1, 258499, Note_off_c, 0, 49, 58
1, 258549, Note_off_c, 0, 73, 63
1, 258701, Note_on_c, 0, 86, 77
1, 258702, Note_on_c, 0, 50, 64
1, 258702, Note_on_c, 0, 74, 64
1, 258703, Note_on_c, 0, 62, 66
1, 258777, Note_off_c, 0, 74, 56
1, 258781, Note_off_c, 0, 50, 60
1, 258793, Note_off_c, 0, 62, 59
1, 258808, Note_off_c, 0, 86, 61
1, 258894, Note_on_c, 0, 64, 100
1, 258900, Note_on_c, 0, 88, 102
1, 258901, Note_on_c, 0, 76, 98
1, 258902, Note_on_c, 0, 52, 92
1, 258963, Note_off_c, 0, 52, 64
1, 258971, Note_off_c, 0, 76, 61
1, 258972, Note_off_c, 0, 64, 61
1, 258986, Note_off_c, 0, 88, 61
1, 259009, Poly_aftertouch_c, 0, 54, 0
1, 259046, Note_on_c, 0, 65, 109
1, 259048, Note_on_c, 0, 77, 105
1, 259049, Note_on_c, 0, 89, 111
1, 259050, Note_on_c, 0, 53, 100
1, 259070, Note_on_c, 0, 56, 71
1, 259088, Note_off_c, 0, 56, 65
1, 259100, Note_off_c, 0, 89, 64
1, 259118, Note_off_c, 0, 53, 65
1, 259122, Note_off_c, 0, 65, 58
1, 259122, Note_off_c, 0, 77, 62
1, 259214, Note_on_c, 0, 50, 82
1, 259217, Note_on_c, 0, 74, 92
1, 259218, Note_on_c, 0, 86, 91
1, 259233, Note_off_c, 0, 86, 73
1, 259239, Note_off_c, 0, 50, 69
1, 259254, Note_off_c, 0, 74, 65
1, 259425, Control_c, 0, 64, 103
1, 259437, Note_on_c, 0, 29, 68
1, 259440, Control_c, 0, 64, 81
1, 259446, Note_on_c, 0, 55, 70
1, 259452, Note_on_c, 0, 31, 59
1, 259454, Control_c, 0, 64, 56
1, 259469, Control_c, 0, 64, 0
1, 259499, Control_c, 0, 64, 39
1, 259514, Control_c, 0, 64, 64
1, 259528, Control_c, 0, 64, 71
1, 259543, Control_c, 0, 64, 79
1, 259557, Note_off_c, 0, 55, 58
1, 259558, Control_c, 0, 64, 84
1, 259573, Note_off_c, 0, 29, 38
1, 259573, Control_c, 0, 64, 86
1, 259588, Control_c, 0, 64, 87
1, 259602, Control_c, 0, 64, 91
1, 259610, Note_on_c, 0, 66, 65
1, 259617, Control_c, 0, 64, 94
1, 259622, Note_off_c, 0, 31, 40
1, 259632, Control_c, 0, 64, 96
1, 259647, Control_c, 0, 64, 98
1, 259661, Control_c, 0, 64, 99
1, 259676, Control_c, 0, 64, 100
1, 259691, Control_c, 0, 64, 101
1, 259706, Control_c, 0, 64, 103
1, 259716, Note_off_c, 0, 66, 64
1, 259721, Control_c, 0, 64, 104
1, 259735, Control_c, 0, 64, 105
1, 259741, Note_on_c, 0, 43, 52
1, 259750, Control_c, 0, 64, 105
1, 259765, Control_c, 0, 64, 106
1, 259773, Note_on_c, 0, 67, 76
1, 259777, Note_off_c, 0, 43, 49
1, 259780, Control_c, 0, 64, 107
1, 259795, Control_c, 0, 64, 108
1, 259809, Control_c, 0, 64, 109
1, 259824, Control_c, 0, 64, 110
1, 259839, Control_c, 0, 64, 110
1, 259848, Note_off_c, 0, 67, 55
1, 259853, Control_c, 0, 64, 111
1, 259868, Control_c, 0, 64, 112
1, 259883, Control_c, 0, 64, 112
1, 259898, Control_c, 0, 64, 113
1, 259913, Note_on_c, 0, 78, 65
1, 259913, Control_c, 0, 64, 114
1, 259917, Note_on_c, 0, 54, 47
1, 259949, Note_off_c, 0, 54, 55
1, 259950, Control_c, 0, 64, 114
1, 259970, Note_off_c, 0, 78, 57
1, 259979, Control_c, 0, 64, 115
1, 259994, Control_c, 0, 64, 115
1, 260053, Control_c, 0, 64, 116
1, 260063, Note_on_c, 0, 79, 67
1, 260076, Note_on_c, 0, 55, 58
1, 260113, Control_c, 0, 64, 116
1, 260117, Note_on_c, 0, 91, 94
1, 260119, Note_on_c, 0, 67, 83
1, 260157, Control_c, 0, 64, 117
1, 260172, Control_c, 0, 64, 117
1, 260182, Note_off_c, 0, 91, 60
1, 260182, Note_off_c, 0, 67, 62
1, 260186, Control_c, 0, 64, 118
1, 260191, Note_off_c, 0, 79, 58
1, 260203, Control_c, 0, 64, 119
1, 260206, Note_off_c, 0, 55, 63
1, 260218, Control_c, 0, 64, 120
1, 260232, Control_c, 0, 64, 121
1, 260247, Control_c, 0, 64, 123
1, 260262, Control_c, 0, 64, 125
1, 260276, Control_c, 0, 64, 127
1, 260293, Note_on_c, 0, 77, 97
1, 260293, Note_on_c, 0, 89, 103
1, 260296, Note_on_c, 0, 65, 107
1, 260301, Note_on_c, 0, 53, 92
1, 260367, Note_off_c, 0, 65, 62
1, 260376, Note_off_c, 0, 89, 64
1, 260378, Note_off_c, 0, 53, 65
1, 260379, Note_off_c, 0, 77, 61
1, 260410, Poly_aftertouch_c, 0, 56, 0
1, 260451, Note_on_c, 0, 64, 105
1, 260459, Note_on_c, 0, 76, 110
1, 260459, Note_on_c, 0, 52, 97
1, 260459, Note_on_c, 0, 88, 105
1, 260482, Note_on_c, 0, 54, 54
1, 260510, Note_off_c, 0, 54, 52
1, 260522, Note_off_c, 0, 88, 58
1, 260526, Note_off_c, 0, 52, 64
1, 260534, Note_off_c, 0, 76, 64
1, 260546, Note_off_c, 0, 64, 57
1, 260597, Note_on_c, 0, 50, 86
1, 260608, Note_on_c, 0, 86, 87
1, 260609, Note_on_c, 0, 74, 94
1, 260619, Note_off_c, 0, 50, 70
1, 260626, Note_off_c, 0, 86, 74
1, 260644, Note_off_c, 0, 74, 69
1, 260817, Control_c, 0, 64, 113
1, 260832, Control_c, 0, 64, 90
1, 260847, Control_c, 0, 64, 65
1, 260859, Note_on_c, 0, 23, 59
1, 260862, Control_c, 0, 64, 0
1, 260862, Note_on_c, 0, 48, 66
1, 260888, Note_on_c, 0, 24, 31
1, 260906, Control_c, 0, 64, 53
1, 260913, Poly_aftertouch_c, 0, 27, 127
1, 260921, Control_c, 0, 64, 66
1, 260936, Control_c, 0, 64, 71
1, 260948, Note_off_c, 0, 48, 56
1, 260950, Control_c, 0, 64, 78
1, 260965, Control_c, 0, 64, 82
1, 260980, Control_c, 0, 64, 84
1, 260990, Poly_aftertouch_c, 0, 27, 0
1, 260995, Control_c, 0, 64, 86
1, 261011, Control_c, 0, 64, 88
1, 261023, Note_off_c, 0, 23, 31
1, 261025, Control_c, 0, 64, 91
1, 261040, Control_c, 0, 64, 93
1, 261044, Note_on_c, 0, 59, 65
1, 261053, Note_off_c, 0, 24, 37
1, 261055, Control_c, 0, 64, 95
1, 261070, Control_c, 0, 64, 97
1, 261085, Control_c, 0, 64, 99
1, 261099, Control_c, 0, 64, 101
1, 261114, Control_c, 0, 64, 103
1, 261129, Control_c, 0, 64, 106
1, 261135, Note_off_c, 0, 59, 62
1, 261144, Control_c, 0, 64, 109
1, 261159, Control_c, 0, 64, 111
1, 261168, Note_on_c, 0, 36, 49
1, 261173, Control_c, 0, 64, 113
1, 261188, Control_c, 0, 64, 115
1, 261196, Note_off_c, 0, 36, 59
1, 261202, Note_on_c, 0, 60, 74
1, 261203, Control_c, 0, 64, 116
1, 261218, Control_c, 0, 64, 118
1, 261232, Control_c, 0, 64, 120
1, 261247, Control_c, 0, 64, 122
1, 261262, Control_c, 0, 64, 124
1, 261276, Control_c, 0, 64, 127
1, 261291, Note_off_c, 0, 60, 59
1, 261291, Control_c, 0, 64, 127
1, 261350, Note_on_c, 0, 71, 69
1, 261363, Note_on_c, 0, 47, 20
1, 261393, Note_off_c, 0, 71, 60
1, 261408, Note_off_c, 0, 47, 44
1, 261555, Note_on_c, 0, 60, 67
1, 261555, Note_on_c, 0, 72, 76
1, 261556, Note_on_c, 0, 48, 68
1, 261557, Note_on_c, 0, 84, 80
1, 261621, Note_off_c, 0, 72, 61
1, 261632, Note_off_c, 0, 48, 61
1, 261636, Note_off_c, 0, 60, 59
1, 261654, Note_off_c, 0, 84, 63
1, 261738, Note_on_c, 0, 62, 103
1, 261738, Note_on_c, 0, 74, 93
1, 261741, Note_on_c, 0, 86, 104
1, 261745, Note_on_c, 0, 50, 89
1, 261768, Note_on_c, 0, 52, 61
1, 261796, Note_off_c, 0, 52, 39
1, 261807, Note_off_c, 0, 50, 61
1, 261815, Note_off_c, 0, 62, 61
1, 261818, Note_off_c, 0, 74, 61
1, 261826, Note_off_c, 0, 86, 63
1, 261890, Note_on_c, 0, 64, 105
1, 261895, Note_on_c, 0, 52, 93
1, 261896, Note_on_c, 0, 76, 108
1, 261897, Note_on_c, 0, 88, 108
1, 261935, Note_on_c, 0, 54, 31
1, 261943, Note_off_c, 0, 88, 64
1, 261957, Note_off_c, 0, 52, 64
1, 261960, Note_off_c, 0, 64, 57
1, 261963, Note_off_c, 0, 76, 65
1, 261966, Note_off_c, 0, 54, 53
1, 262045, Note_on_c, 0, 48, 82
1, 262053, Note_on_c, 0, 72, 93
1, 262055, Note_on_c, 0, 84, 87
1, 262072, Note_off_c, 0, 48, 67
1, 262073, Note_off_c, 0, 84, 72
1, 262083, Note_off_c, 0, 72, 63
1, 262254, Control_c, 0, 64, 112
1, 262269, Control_c, 0, 64, 89
1, 262276, Note_on_c, 0, 26, 73
1, 262284, Control_c, 0, 64, 64
1, 262290, Note_on_c, 0, 50, 71
1, 262299, Control_c, 0, 64, 0
1, 262328, Control_c, 0, 64, 10
1, 262343, Control_c, 0, 64, 61
1, 262358, Control_c, 0, 64, 68
1, 262373, Control_c, 0, 64, 73
1, 262388, Control_c, 0, 64, 77
1, 262396, Note_off_c, 0, 50, 59
1, 262403, Control_c, 0, 64, 81
1, 262418, Control_c, 0, 64, 85
1, 262433, Control_c, 0, 64, 90
1, 262447, Control_c, 0, 64, 93
1, 262451, Note_on_c, 0, 61, 63
1, 262462, Control_c, 0, 64, 96
1, 262468, Note_off_c, 0, 26, 31
1, 262477, Control_c, 0, 64, 98
1, 262492, Control_c, 0, 64, 101
1, 262506, Note_on_c, 0, 37, 29
1, 262507, Control_c, 0, 64, 103
1, 262521, Control_c, 0, 64, 104
1, 262536, Control_c, 0, 64, 106
1, 262547, Note_off_c, 0, 37, 54
1, 262551, Control_c, 0, 64, 107
1, 262566, Control_c, 0, 64, 109
1, 262567, Note_off_c, 0, 61, 63
1, 262575, Note_on_c, 0, 38, 37
1, 262580, Control_c, 0, 64, 110
1, 262597, Control_c, 0, 64, 112
1, 262612, Control_c, 0, 64, 113
1, 262614, Note_off_c, 0, 38, 44
1, 262626, Control_c, 0, 64, 114
1, 262629, Note_on_c, 0, 62, 73
1, 262641, Control_c, 0, 64, 115
1, 262656, Control_c, 0, 64, 117
1, 262670, Control_c, 0, 64, 118
1, 262685, Control_c, 0, 64, 120
1, 262700, Control_c, 0, 64, 122
1, 262714, Note_off_c, 0, 62, 56
1, 262715, Control_c, 0, 64, 124
1, 262730, Control_c, 0, 64, 127
1, 262744, Control_c, 0, 64, 127
1, 262748, Note_on_c, 0, 49, 47
1, 262771, Note_on_c, 0, 73, 65
1, 262779, Note_off_c, 0, 49, 51
1, 262828, Note_off_c, 0, 73, 62
1, 262954, Note_on_c, 0, 53, 52
1, 262961, Note_on_c, 0, 77, 64
1, 263023, Note_on_c, 0, 89, 83
1, 263029, Note_on_c, 0, 65, 82
1, 263094, Note_off_c, 0, 65, 64
1, 263095, Note_off_c, 0, 89, 64
1, 263104, Note_off_c, 0, 77, 52
1, 263120, Note_off_c, 0, 53, 65
1, 263221, Note_on_c, 0, 74, 94
1, 263223, Note_on_c, 0, 62, 102
1, 263223, Note_on_c, 0, 86, 94
1, 263228, Note_on_c, 0, 50, 96
1, 263271, Note_off_c, 0, 62, 62
1, 263273, Note_off_c, 0, 86, 63
1, 263277, Note_off_c, 0, 74, 62
1, 263287, Note_off_c, 0, 50, 61
1, 263370, Note_on_c, 0, 72, 105
1, 263372, Note_on_c, 0, 84, 108
1, 263373, Note_on_c, 0, 60, 103
1, 263376, Note_on_c, 0, 48, 98
1, 263392, Note_on_c, 0, 82, 68
1, 263408, Note_off_c, 0, 82, 67
1, 263409, Note_off_c, 0, 48, 61
1, 263410, Note_off_c, 0, 60, 61
1, 263411, Note_off_c, 0, 72, 64
1, 263417, Note_off_c, 0, 84, 63
1, 263517, Note_on_c, 0, 46, 101
1, 263517, Note_on_c, 0, 82, 79
1, 263521, Note_on_c, 0, 70, 100
1, 263537, Note_off_c, 0, 82, 72
1, 263542, Note_off_c, 0, 46, 67
1, 263563, Note_off_c, 0, 70, 57
1, 263724, Control_c, 0, 64, 101
1, 263738, Note_on_c, 0, 23, 88
1, 263738, Control_c, 0, 64, 82
1, 263753, Control_c, 0, 64, 64
1, 263756, Note_on_c, 0, 48, 71
1, 263768, Control_c, 0, 64, 0
1, 263798, Control_c, 0, 64, 34
1, 263813, Control_c, 0, 64, 65
1, 263820, Note_off_c, 0, 48, 55
1, 263827, Control_c, 0, 64, 71
1, 263842, Control_c, 0, 64, 78
1, 263857, Control_c, 0, 64, 84
1, 263872, Control_c, 0, 64, 88
1, 263887, Control_c, 0, 64, 91
1, 263901, Control_c, 0, 64, 94
1, 263908, Note_off_c, 0, 23, 32
1, 263916, Control_c, 0, 64, 97
1, 263931, Control_c, 0, 64, 99
1, 263936, Note_on_c, 0, 59, 62
1, 263945, Control_c, 0, 64, 102
1, 263960, Control_c, 0, 64, 105
1, 263975, Control_c, 0, 64, 107
1, 263990, Control_c, 0, 64, 110
1, 264001, Note_off_c, 0, 59, 63
1, 264002, Note_on_c, 0, 35, 45
1, 264005, Control_c, 0, 64, 112
1, 264019, Control_c, 0, 64, 114
1, 264034, Control_c, 0, 64, 116
1, 264037, Note_off_c, 0, 35, 53
1, 264049, Control_c, 0, 64, 118
1, 264064, Control_c, 0, 64, 119
1, 264072, Note_on_c, 0, 60, 71
1, 264079, Control_c, 0, 64, 121
1, 264093, Control_c, 0, 64, 123
1, 264108, Control_c, 0, 64, 125
1, 264123, Control_c, 0, 64, 126
1, 264138, Control_c, 0, 64, 127
1, 264144, Note_off_c, 0, 60, 59
1, 264186, Note_on_c, 0, 43, 41
1, 264203, Note_on_c, 0, 71, 65
1, 264224, Note_off_c, 0, 43, 49
1, 264245, Note_off_c, 0, 71, 60
1, 264386, Note_on_c, 0, 76, 65
1, 264397, Note_on_c, 0, 52, 62
1, 264458, Note_on_c, 0, 64, 77
1, 264464, Note_on_c, 0, 88, 81
1, 264519, Note_off_c, 0, 64, 64
1, 264522, Note_off_c, 0, 76, 64
1, 264525, Note_off_c, 0, 88, 62
1, 264536, Note_off_c, 0, 52, 64
1, 264655, Note_on_c, 0, 60, 101
1, 264657, Note_on_c, 0, 72, 99
1, 264659, Note_on_c, 0, 48, 97
1, 264659, Note_on_c, 0, 84, 96
1, 264704, Note_off_c, 0, 60, 60
1, 264713, Note_off_c, 0, 84, 63
1, 264721, Note_off_c, 0, 48, 59
1, 264724, Note_off_c, 0, 72, 59
1, 264806, Note_on_c, 0, 59, 107
1, 264809, Note_on_c, 0, 71, 104
1, 264810, Note_on_c, 0, 83, 98
1, 264811, Note_on_c, 0, 47, 103
1, 264839, Note_on_c, 0, 80, 56
1, 264859, Note_off_c, 0, 80, 63
1, 264879, Note_off_c, 0, 83, 57
1, 264886, Note_off_c, 0, 71, 58
1, 264887, Note_off_c, 0, 47, 62
1, 264899, Note_off_c, 0, 59, 54
1, 264919, Poly_aftertouch_c, 0, 49, 0
1, 264958, Note_on_c, 0, 45, 95
1, 264964, Note_on_c, 0, 69, 103
1, 264966, Note_on_c, 0, 81, 99
1, 264980, Note_off_c, 0, 45, 72
1, 264989, Note_off_c, 0, 81, 63
1, 265005, Note_off_c, 0, 69, 68
1, 265155, Control_c, 0, 64, 117
1, 265175, Note_on_c, 0, 29, 79
1, 265178, Control_c, 0, 64, 93
1, 265193, Control_c, 0, 64, 73
1, 265196, Note_on_c, 0, 53, 67
1, 265207, Control_c, 0, 64, 0
1, 265252, Control_c, 0, 64, 46
1, 265267, Control_c, 0, 64, 65
1, 265281, Control_c, 0, 64, 72
1, 265284, Note_off_c, 0, 53, 64
1, 265296, Control_c, 0, 64, 80
1, 265311, Control_c, 0, 64, 87
1, 265326, Control_c, 0, 64, 91
1, 265341, Control_c, 0, 64, 95
1, 265354, Note_on_c, 0, 64, 66
1, 265355, Control_c, 0, 64, 98
1, 265357, Note_on_c, 0, 40, 49
1, 265364, Note_off_c, 0, 29, 38
1, 265370, Control_c, 0, 64, 101
1, 265385, Control_c, 0, 64, 104
1, 265399, Control_c, 0, 64, 107
1, 265414, Control_c, 0, 64, 109
1, 265429, Control_c, 0, 64, 110
1, 265444, Control_c, 0, 64, 112
1, 265446, Note_off_c, 0, 64, 64
1, 265447, Note_off_c, 0, 40, 55
1, 265459, Control_c, 0, 64, 113
1, 265460, Note_on_c, 0, 41, 63
1, 265473, Control_c, 0, 64, 114
1, 265488, Control_c, 0, 64, 116
1, 265491, Note_off_c, 0, 41, 67
1, 265496, Note_on_c, 0, 65, 81
1, 265503, Control_c, 0, 64, 119
1, 265518, Control_c, 0, 64, 122
1, 265519, Note_off_c, 0, 65, 71
1, 265533, Control_c, 0, 64, 125
1, 265548, Control_c, 0, 64, 127
1, 265653, Note_on_c, 0, 87, 99
1, 265658, Note_on_c, 0, 63, 79
1, 265659, Note_on_c, 0, 51, 88
1, 265661, Note_on_c, 0, 75, 87
1, 265679, Note_off_c, 0, 63, 71
1, 265682, Note_off_c, 0, 51, 68
1, 265691, Note_off_c, 0, 87, 64
1, 265695, Note_off_c, 0, 75, 62
1, 265904, Control_c, 0, 64, 118
1, 265907, Note_on_c, 0, 28, 78
1, 265926, Note_on_c, 0, 52, 76
1, 265926, Control_c, 0, 64, 89
1, 265941, Control_c, 0, 64, 69
1, 265956, Control_c, 0, 64, 0
1, 265986, Control_c, 0, 64, 50
1, 266001, Control_c, 0, 64, 64
1, 266016, Control_c, 0, 64, 69
1, 266027, Note_off_c, 0, 52, 61
1, 266030, Control_c, 0, 64, 73
1, 266045, Control_c, 0, 64, 76
1, 266060, Control_c, 0, 64, 80
1, 266075, Control_c, 0, 64, 84
1, 266084, Note_on_c, 0, 63, 73
1, 266086, Note_off_c, 0, 28, 35
1, 266090, Control_c, 0, 64, 87
1, 266104, Control_c, 0, 64, 91
1, 266119, Control_c, 0, 64, 94
1, 266134, Control_c, 0, 64, 96
1, 266149, Note_on_c, 0, 39, 38
1, 266149, Control_c, 0, 64, 98
1, 266164, Control_c, 0, 64, 100
1, 266178, Control_c, 0, 64, 102
1, 266193, Control_c, 0, 64, 104
1, 266198, Note_off_c, 0, 39, 60
1, 266198, Note_on_c, 0, 40, 61
1, 266198, Note_off_c, 0, 63, 62
1, 266208, Control_c, 0, 64, 106
1, 266222, Control_c, 0, 64, 108
1, 266223, Note_off_c, 0, 40, 60
1, 266231, Note_on_c, 0, 64, 81
1, 266237, Control_c, 0, 64, 110
1, 266252, Control_c, 0, 64, 113
1, 266254, Note_off_c, 0, 64, 70
1, 266267, Control_c, 0, 64, 117
1, 266282, Control_c, 0, 64, 122
1, 266296, Control_c, 0, 64, 127
1, 266432, Note_on_c, 0, 68, 77
1, 266433, Note_on_c, 0, 56, 75
1, 266438, Note_on_c, 0, 92, 96
1, 266442, Note_on_c, 0, 80, 89
1, 266454, Note_off_c, 0, 68, 70
1, 266465, Note_off_c, 0, 56, 64
1, 266473, Note_off_c, 0, 92, 66
1, 266486, Note_off_c, 0, 80, 64
1, 266749, Control_c, 0, 64, 114
1, 266761, Note_on_c, 0, 57, 72
1, 266764, Note_on_c, 0, 33, 55
1, 266764, Control_c, 0, 64, 91
1, 266779, Control_c, 0, 64, 67
1, 266794, Control_c, 0, 64, 0
1, 266824, Control_c, 0, 64, 58
1, 266839, Control_c, 0, 64, 66
1, 266853, Control_c, 0, 64, 73
1, 266868, Control_c, 0, 64, 80
1, 266883, Control_c, 0, 64, 86
1, 266898, Control_c, 0, 64, 89
1, 266906, Note_off_c, 0, 57, 56
1, 266913, Control_c, 0, 64, 92
1, 266927, Control_c, 0, 64, 96
1, 266934, Note_off_c, 0, 33, 35
1, 266942, Control_c, 0, 64, 99
1, 266957, Control_c, 0, 64, 103
1, 266966, Note_on_c, 0, 68, 62
1, 266971, Control_c, 0, 64, 106
1, 266985, Note_on_c, 0, 44, 52
1, 266986, Control_c, 0, 64, 109
1, 267001, Control_c, 0, 64, 111
1, 267016, Control_c, 0, 64, 112
1, 267031, Control_c, 0, 64, 113
1, 267045, Control_c, 0, 64, 114
1, 267060, Control_c, 0, 64, 116
1, 267068, Note_off_c, 0, 68, 63
1, 267075, Control_c, 0, 64, 117
1, 267076, Note_off_c, 0, 44, 62
1, 267090, Control_c, 0, 64, 117
1, 267100, Note_on_c, 0, 45, 53
1, 267105, Control_c, 0, 64, 118
1, 267119, Control_c, 0, 64, 118
1, 267126, Note_off_c, 0, 45, 60
1, 267127, Note_on_c, 0, 69, 78
1, 267134, Control_c, 0, 64, 119
1, 267149, Control_c, 0, 64, 119
1, 267164, Control_c, 0, 64, 120
1, 267178, Control_c, 0, 64, 120
1, 267193, Control_c, 0, 64, 121
1, 267196, Note_off_c, 0, 69, 58
1, 267268, Note_on_c, 0, 56, 67
1, 267268, Control_c, 0, 64, 121
1, 267271, Note_on_c, 0, 80, 66
1, 267397, Note_off_c, 0, 80, 64
1, 267403, Note_off_c, 0, 56, 64
1, 267426, Note_on_c, 0, 57, 66
1, 267441, Note_on_c, 0, 81, 90
1, 267455, Note_off_c, 0, 57, 65
1, 267537, Note_off_c, 0, 81, 57
1, 267557, Control_c, 0, 64, 122
1, 267572, Control_c, 0, 64, 123
1, 267587, Control_c, 0, 64, 124
1, 267588, Note_on_c, 0, 92, 65
1, 267602, Control_c, 0, 64, 127
1, 267611, Note_off_c, 0, 92, 60
1, 267617, Control_c, 0, 64, 127
1, 267727, Note_on_c, 0, 67, 37
1, 267735, Note_on_c, 0, 93, 65
1, 267780, Note_on_c, 0, 79, 79
1, 267782, Note_off_c, 0, 67, 42
1, 267786, Note_on_c, 0, 105, 102
1, 267800, Note_off_c, 0, 79, 70
1, 267801, Note_on_c, 0, 69, 5
1, 267807, Note_off_c, 0, 93, 63
1, 267816, Note_off_c, 0, 105, 67
1, 267835, Note_off_c, 0, 69, 0
1, 267855, Poly_aftertouch_c, 0, 69, 0
1, 268228, Note_on_c, 0, 57, 86
1, 268236, Note_on_c, 0, 33, 73
1, 268247, Control_c, 0, 64, 101
1, 268262, Control_c, 0, 64, 81
1, 268277, Control_c, 0, 64, 63
1, 268291, Control_c, 0, 64, 0
1, 268306, Control_c, 0, 64, 57
1, 268321, Control_c, 0, 64, 66
1, 268336, Control_c, 0, 64, 72
1, 268351, Control_c, 0, 64, 81
1, 268365, Control_c, 0, 64, 88
1, 268380, Control_c, 0, 64, 91
1, 268390, Note_off_c, 0, 33, 52
1, 268392, Note_off_c, 0, 57, 58
1, 268395, Control_c, 0, 64, 92
1, 268410, Control_c, 0, 64, 95
1, 268424, Control_c, 0, 64, 98
1, 268439, Control_c, 0, 64, 101
1, 268441, Note_on_c, 0, 68, 58
1, 268454, Control_c, 0, 64, 103
1, 268469, Control_c, 0, 64, 105
1, 268484, Control_c, 0, 64, 107
1, 268491, Note_on_c, 0, 44, 28
1, 268499, Control_c, 0, 64, 108
1, 268514, Control_c, 0, 64, 109
1, 268529, Note_off_c, 0, 44, 56
1, 268529, Control_c, 0, 64, 111
1, 268535, Note_off_c, 0, 68, 65
1, 268544, Control_c, 0, 64, 112
1, 268545, Note_on_c, 0, 45, 51
1, 268559, Control_c, 0, 64, 112
1, 268570, Note_off_c, 0, 45, 62
1, 268573, Control_c, 0, 64, 113
1, 268588, Control_c, 0, 64, 113
1, 268590, Note_on_c, 0, 69, 74
1, 268603, Control_c, 0, 64, 114
1, 268617, Control_c, 0, 64, 114
1, 268632, Control_c, 0, 64, 115
1, 268647, Control_c, 0, 64, 116
1, 268650, Note_off_c, 0, 69, 60
1, 268662, Control_c, 0, 64, 116
1, 268691, Control_c, 0, 64, 117
1, 268714, Note_on_c, 0, 80, 65
1, 268720, Note_on_c, 0, 56, 46
1, 268721, Control_c, 0, 64, 117
1, 268735, Control_c, 0, 64, 118
1, 268750, Note_off_c, 0, 56, 51
1, 268751, Note_off_c, 0, 80, 57
1, 268766, Control_c, 0, 64, 118
1, 268796, Control_c, 0, 64, 119
1, 268825, Control_c, 0, 64, 119
1, 268840, Control_c, 0, 64, 120
1, 268866, Note_on_c, 0, 81, 74
1, 268866, Note_on_c, 0, 57, 61
1, 268870, Control_c, 0, 64, 121
1, 268884, Control_c, 0, 64, 122
1, 268899, Control_c, 0, 64, 124
1, 268922, Control_c, 0, 64, 127
1, 268924, Note_on_c, 0, 69, 89
1, 268931, Note_on_c, 0, 93, 99
1, 269012, Note_off_c, 0, 69, 63
1, 269031, Note_off_c, 0, 57, 63
1, 269038, Note_off_c, 0, 81, 60
1, 269038, Note_off_c, 0, 93, 58
1, 269134, Note_on_c, 0, 67, 104
1, 269134, Note_on_c, 0, 91, 108
1, 269134, Note_on_c, 0, 79, 102
1, 269139, Note_on_c, 0, 55, 95
1, 269178, Note_on_c, 0, 58, 35
1, 269207, Note_off_c, 0, 58, 56
1, 269214, Note_off_c, 0, 67, 59
1, 269220, Note_off_c, 0, 55, 63
1, 269223, Note_off_c, 0, 79, 61
1, 269224, Note_off_c, 0, 91, 61
1, 269292, Note_on_c, 0, 65, 100
1, 269298, Note_on_c, 0, 89, 107
1, 269299, Note_on_c, 0, 77, 104
1, 269301, Note_on_c, 0, 53, 88
1, 269340, Note_on_c, 0, 79, 33
1, 269341, Note_off_c, 0, 79, 127
1, 269357, Note_off_c, 0, 53, 62
1, 269358, Note_off_c, 0, 89, 61
1, 269364, Note_off_c, 0, 65, 57
1, 269369, Note_off_c, 0, 77, 60
1, 269396, Poly_aftertouch_c, 0, 55, 0
1, 269424, Note_on_c, 0, 52, 78
1, 269437, Note_on_c, 0, 88, 86
1, 269438, Note_on_c, 0, 76, 88
1, 269447, Note_off_c, 0, 52, 72
1, 269455, Note_off_c, 0, 88, 72
1, 269471, Note_off_c, 0, 76, 66
1, 269664, Note_on_c, 0, 26, 60
1, 269670, Note_on_c, 0, 24, 64
1, 269670, Note_on_c, 0, 50, 70
1, 269700, Control_c, 0, 64, 95
1, 269714, Control_c, 0, 64, 72
1, 269719, Note_off_c, 0, 24, 59
1, 269729, Control_c, 0, 64, 0
1, 269759, Control_c, 0, 64, 48
1, 269773, Control_c, 0, 64, 65
1, 269789, Control_c, 0, 64, 71
1, 269799, Note_off_c, 0, 50, 60
1, 269804, Control_c, 0, 64, 77
1, 269819, Control_c, 0, 64, 84
1, 269834, Control_c, 0, 64, 87
1, 269846, Note_on_c, 0, 61, 68
1, 269849, Control_c, 0, 64, 90
1, 269852, Note_off_c, 0, 26, 32
1, 269863, Control_c, 0, 64, 94
1, 269878, Control_c, 0, 64, 98
1, 269893, Control_c, 0, 64, 101
1, 269899, Note_on_c, 0, 37, 27
1, 269908, Control_c, 0, 64, 104
1, 269923, Control_c, 0, 64, 106
1, 269937, Control_c, 0, 64, 109
1, 269943, Note_off_c, 0, 37, 62
1, 269948, Note_off_c, 0, 61, 64
1, 269952, Control_c, 0, 64, 111
1, 269967, Control_c, 0, 64, 113
1, 269972, Note_on_c, 0, 38, 33
1, 269982, Control_c, 0, 64, 114
1, 269996, Control_c, 0, 64, 116
1, 270009, Note_on_c, 0, 62, 75
1, 270011, Note_off_c, 0, 38, 42
1, 270011, Control_c, 0, 64, 117
1, 270026, Control_c, 0, 64, 119
1, 270041, Control_c, 0, 64, 123
1, 270056, Control_c, 0, 64, 127
1, 270099, Note_off_c, 0, 62, 57
1, 270121, Note_on_c, 0, 49, 56
1, 270152, Note_on_c, 0, 73, 67
1, 270156, Note_off_c, 0, 49, 61
1, 270212, Note_off_c, 0, 73, 63
1, 270351, Note_on_c, 0, 62, 76
1, 270353, Note_on_c, 0, 50, 69
1, 270353, Note_on_c, 0, 86, 89
1, 270360, Note_on_c, 0, 74, 62
1, 270413, Note_on_c, 0, 76, 9
1, 270414, Note_off_c, 0, 76, 127
1, 270454, Note_off_c, 0, 50, 62
1, 270462, Note_off_c, 0, 62, 59
1, 270474, Note_off_c, 0, 86, 62
1, 270475, Note_off_c, 0, 74, 34
1, 270551, Note_on_c, 0, 76, 91
1, 270553, Note_on_c, 0, 64, 95
1, 270556, Note_on_c, 0, 88, 101
1, 270559, Note_on_c, 0, 52, 95
1, 270633, Note_off_c, 0, 52, 65
1, 270637, Note_off_c, 0, 64, 62
1, 270637, Note_off_c, 0, 76, 64
1, 270648, Note_off_c, 0, 88, 63
1, 270708, Note_on_c, 0, 65, 106
1, 270709, Note_on_c, 0, 77, 104
1, 270710, Note_on_c, 0, 89, 106
1, 270711, Note_on_c, 0, 53, 103
1, 270736, Note_on_c, 0, 87, 63
1, 270737, Note_on_c, 0, 56, 61
1, 270755, Note_off_c, 0, 87, 61
1, 270758, Note_off_c, 0, 56, 62
1, 270766, Note_off_c, 0, 89, 64
1, 270775, Note_off_c, 0, 53, 63
1, 270785, Note_off_c, 0, 77, 61
1, 270791, Note_off_c, 0, 65, 58
1, 270872, Note_on_c, 0, 50, 62
1, 270872, Note_on_c, 0, 52, 55
1, 270872, Note_on_c, 0, 86, 84
1, 270872, Note_on_c, 0, 74, 89
1, 270890, Note_off_c, 0, 86, 71
1, 270893, Note_off_c, 0, 50, 61
1, 270895, Note_off_c, 0, 52, 60
1, 270895, Note_off_c, 0, 74, 67
1, 271065, Note_on_c, 0, 31, 84
1, 271071, Control_c, 0, 64, 95
1, 271079, Note_on_c, 0, 55, 76
1, 271086, Control_c, 0, 64, 69
1, 271101, Control_c, 0, 64, 0
1, 271145, Control_c, 0, 64, 59
1, 271167, Control_c, 0, 64, 67
1, 271182, Control_c, 0, 64, 74
1, 271197, Control_c, 0, 64, 79
1, 271207, Note_off_c, 0, 55, 59
1, 271212, Control_c, 0, 64, 84
1, 271226, Control_c, 0, 64, 89
1, 271241, Control_c, 0, 64, 93
1, 271256, Control_c, 0, 64, 97
1, 271260, Note_on_c, 0, 66, 64
1, 271265, Note_off_c, 0, 31, 36
1, 271271, Control_c, 0, 64, 100
1, 271286, Control_c, 0, 64, 104
1, 271295, Note_on_c, 0, 42, 46
1, 271301, Control_c, 0, 64, 108
1, 271316, Control_c, 0, 64, 112
1, 271331, Control_c, 0, 64, 115
1, 271345, Control_c, 0, 64, 118
1, 271358, Note_off_c, 0, 42, 62
1, 271360, Control_c, 0, 64, 119
1, 271367, Note_off_c, 0, 66, 65
1, 271375, Control_c, 0, 64, 121
1, 271376, Note_on_c, 0, 43, 52
1, 271390, Control_c, 0, 64, 123
1, 271405, Control_c, 0, 64, 125
1, 271411, Note_off_c, 0, 43, 52
1, 271420, Control_c, 0, 64, 127
1, 271423, Note_on_c, 0, 67, 67
1, 271499, Note_off_c, 0, 67, 57
1, 271552, Note_on_c, 0, 78, 64
1, 271561, Note_on_c, 0, 54, 43
1, 271587, Note_off_c, 0, 54, 54
1, 271620, Note_off_c, 0, 78, 62
1, 271700, Note_on_c, 0, 55, 63
1, 271700, Note_on_c, 0, 79, 74
1, 271756, Note_on_c, 0, 91, 95
1, 271760, Note_on_c, 0, 67, 96
1, 271838, Note_off_c, 0, 67, 60
1, 271841, Note_off_c, 0, 91, 58
1, 271845, Note_off_c, 0, 79, 62
1, 271854, Note_off_c, 0, 55, 64
1, 271865, Poly_aftertouch_c, 0, 58, 0
1, 271948, Note_on_c, 0, 65, 109
1, 271948, Note_on_c, 0, 77, 103
1, 271949, Note_on_c, 0, 89, 104
1, 271953, Note_on_c, 0, 53, 99
1, 271975, Note_on_c, 0, 56, 62
1, 271996, Note_off_c, 0, 56, 62
1, 271998, Note_on_c, 0, 87, 24
1, 272025, Note_off_c, 0, 65, 62
1, 272028, Note_off_c, 0, 53, 66
1, 272033, Note_off_c, 0, 77, 62
1, 272034, Note_off_c, 0, 87, 32
1, 272034, Note_off_c, 0, 89, 63
1, 272102, Note_on_c, 0, 64, 108
1, 272106, Note_on_c, 0, 88, 108
1, 272107, Note_on_c, 0, 76, 107
1, 272108, Note_on_c, 0, 52, 107
1, 272126, Note_on_c, 0, 54, 67
1, 272137, Note_on_c, 0, 77, 49
1, 272145, Note_off_c, 0, 54, 63
1, 272156, Note_off_c, 0, 77, 63
1, 272168, Note_off_c, 0, 88, 62
1, 272174, Note_off_c, 0, 52, 65
1, 272179, Note_off_c, 0, 76, 65
1, 272187, Note_off_c, 0, 64, 57
1, 272242, Note_on_c, 0, 50, 88
1, 272252, Note_on_c, 0, 86, 90
1, 272253, Note_on_c, 0, 74, 97
1, 272262, Note_off_c, 0, 50, 71
1, 272267, Note_off_c, 0, 86, 74
1, 272284, Note_off_c, 0, 74, 71
1, 272436, Control_c, 0, 64, 107
1, 272451, Control_c, 0, 64, 84
1, 272456, Note_on_c, 0, 23, 85
1, 272465, Control_c, 0, 64, 61
1, 272479, Note_on_c, 0, 48, 63
1, 272480, Control_c, 0, 64, 0
1, 272509, Control_c, 0, 64, 13
1, 272524, Control_c, 0, 64, 63
1, 272538, Control_c, 0, 64, 70
1, 272550, Note_off_c, 0, 48, 53
1, 272553, Control_c, 0, 64, 79
1, 272558, Poly_aftertouch_c, 0, 24, 127
1, 272568, Control_c, 0, 64, 87
1, 272583, Control_c, 0, 64, 91
1, 272598, Control_c, 0, 64, 94
1, 272613, Control_c, 0, 64, 98
1, 272627, Control_c, 0, 64, 101
1, 272642, Control_c, 0, 64, 104
1, 272648, Note_on_c, 0, 59, 60
1, 272651, Note_off_c, 0, 23, 33
1, 272664, Control_c, 0, 64, 107
1, 272679, Control_c, 0, 64, 110
1, 272694, Control_c, 0, 64, 113
1, 272700, Poly_aftertouch_c, 0, 24, 0
1, 272709, Control_c, 0, 64, 116
1, 272724, Control_c, 0, 64, 119
1, 272738, Control_c, 0, 64, 121
1, 272744, Note_off_c, 0, 59, 62
1, 272753, Control_c, 0, 64, 126
1, 272768, Control_c, 0, 64, 127
1, 272771, Note_on_c, 0, 36, 42
1, 272806, Note_off_c, 0, 36, 51
1, 272809, Note_on_c, 0, 60, 69
1, 272813, Poly_aftertouch_c, 0, 35, 0
1, 272886, Note_off_c, 0, 60, 60
1, 272952, Note_on_c, 0, 71, 63
1, 272955, Note_on_c, 0, 47, 48
1, 272988, Note_off_c, 0, 47, 54
1, 273006, Note_off_c, 0, 71, 61
1, 273165, Note_on_c, 0, 84, 77
1, 273167, Note_on_c, 0, 72, 65
1, 273168, Note_on_c, 0, 60, 72
1, 273172, Note_on_c, 0, 48, 56
1, 273241, Note_off_c, 0, 72, 58
1, 273250, Note_off_c, 0, 60, 59
1, 273268, Note_off_c, 0, 84, 61
1, 273283, Note_off_c, 0, 48, 44
1, 273352, Note_on_c, 0, 62, 102
1, 273356, Note_on_c, 0, 74, 101
1, 273358, Note_on_c, 0, 50, 96
1, 273359, Note_on_c, 0, 86, 101
1, 273426, Note_off_c, 0, 74, 63
1, 273430, Note_off_c, 0, 50, 61
1, 273434, Note_off_c, 0, 62, 62
1, 273442, Note_off_c, 0, 86, 62
1, 273507, Note_on_c, 0, 64, 108
1, 273510, Note_on_c, 0, 76, 107
1, 273511, Note_on_c, 0, 88, 113
1, 273512, Note_on_c, 0, 52, 100
1, 273534, Note_on_c, 0, 54, 67
1, 273552, Note_off_c, 0, 54, 62
1, 273563, Note_off_c, 0, 88, 66
1, 273579, Note_off_c, 0, 76, 68
1, 273579, Note_off_c, 0, 52, 65
1, 273579, Note_off_c, 0, 64, 61
1, 273653, Note_on_c, 0, 48, 86
1, 273665, Note_on_c, 0, 72, 102
1, 273668, Note_on_c, 0, 84, 88
1, 273674, Note_off_c, 0, 48, 68
1, 273683, Note_off_c, 0, 84, 76
1, 273701, Note_off_c, 0, 72, 64
1, 273844, Control_c, 0, 64, 112
1, 273859, Control_c, 0, 64, 85
1, 273862, Note_on_c, 0, 26, 83
1, 273874, Control_c, 0, 64, 63
1, 273881, Note_on_c, 0, 50, 73
1, 273889, Control_c, 0, 64, 0
1, 273933, Control_c, 0, 64, 59
1, 273948, Control_c, 0, 64, 69
1, 273963, Control_c, 0, 64, 77
1, 273975, Note_off_c, 0, 50, 58
1, 273978, Control_c, 0, 64, 86
1, 273993, Control_c, 0, 64, 91
1, 274008, Control_c, 0, 64, 94
1, 274023, Control_c, 0, 64, 98
1, 274032, Note_off_c, 0, 26, 38
1, 274037, Control_c, 0, 64, 102
1, 274037, Note_on_c, 0, 61, 63
1, 274052, Control_c, 0, 64, 106
1, 274067, Control_c, 0, 64, 109
1, 274082, Control_c, 0, 64, 111
1, 274094, Note_on_c, 0, 37, 30
1, 274097, Control_c, 0, 64, 112
1, 274111, Control_c, 0, 64, 113
1, 274126, Control_c, 0, 64, 115
1, 274131, Note_off_c, 0, 37, 57
1, 274135, Note_off_c, 0, 61, 63
1, 274141, Control_c, 0, 64, 117
1, 274163, Control_c, 0, 64, 119
1, 274173, Note_on_c, 0, 38, 27
1, 274178, Control_c, 0, 64, 121
1, 274192, Control_c, 0, 64, 123
1, 274197, Note_on_c, 0, 62, 75
1, 274207, Control_c, 0, 64, 126
1, 274215, Note_off_c, 0, 38, 43
1, 274222, Control_c, 0, 64, 127
1, 274275, Note_off_c, 0, 62, 57
1, 274331, Note_on_c, 0, 73, 63
1, 274391, Note_off_c, 0, 73, 63
1, 274503, Note_on_c, 0, 77, 68
1, 274507, Note_on_c, 0, 53, 63
1, 274571, Note_on_c, 0, 89, 87
1, 274579, Note_on_c, 0, 65, 82
1, 274634, Note_off_c, 0, 89, 66
1, 274636, Note_off_c, 0, 65, 63
1, 274646, Note_off_c, 0, 77, 57
1, 274653, Note_off_c, 0, 53, 65
1, 274757, Note_on_c, 0, 74, 100
1, 274758, Note_on_c, 0, 62, 106
1, 274759, Note_on_c, 0, 86, 100
1, 274762, Note_on_c, 0, 50, 99
1, 274810, Note_off_c, 0, 62, 59
1, 274816, Note_off_c, 0, 86, 58
1, 274821, Note_off_c, 0, 74, 59
1, 274827, Note_off_c, 0, 50, 59
1, 274868, Poly_aftertouch_c, 0, 56, 0
1, 274917, Note_on_c, 0, 60, 101
1, 274920, Note_on_c, 0, 48, 102
1, 274920, Note_on_c, 0, 72, 103
1, 274922, Note_on_c, 0, 84, 101
1, 274947, Note_on_c, 0, 82, 55
1, 274953, Note_off_c, 0, 48, 62
1, 274954, Note_off_c, 0, 72, 67
1, 274956, Note_off_c, 0, 60, 62
1, 274959, Note_off_c, 0, 84, 65
1, 274970, Note_on_c, 0, 54, 11
1, 274970, Note_off_c, 0, 82, 62
1, 275011, Note_off_c, 0, 54, 39
1, 275051, Note_on_c, 0, 46, 96
1, 275055, Note_on_c, 0, 82, 88
1, 275056, Note_on_c, 0, 70, 103
1, 275078, Note_off_c, 0, 46, 67
1, 275089, Note_off_c, 0, 82, 63
1, 275096, Note_off_c, 0, 70, 62
1, 275223, Control_c, 0, 64, 109
1, 275238, Control_c, 0, 64, 85
1, 275251, Note_on_c, 0, 23, 91
1, 275253, Control_c, 0, 64, 64
1, 275267, Control_c, 0, 64, 0
1, 275268, Note_on_c, 0, 48, 81
1, 275297, Control_c, 0, 64, 49
1, 275311, Control_c, 0, 64, 64
1, 275326, Control_c, 0, 64, 71
1, 275338, Note_off_c, 0, 48, 59
1, 275341, Control_c, 0, 64, 81
1, 275356, Control_c, 0, 64, 90
1, 275371, Control_c, 0, 64, 93
1, 275387, Control_c, 0, 64, 95
1, 275401, Control_c, 0, 64, 97
1, 275416, Control_c, 0, 64, 99
1, 275431, Control_c, 0, 64, 102
1, 275433, Note_off_c, 0, 23, 35
1, 275439, Note_on_c, 0, 59, 67
1, 275446, Control_c, 0, 64, 105
1, 275461, Control_c, 0, 64, 108
1, 275475, Control_c, 0, 64, 110
1, 275490, Control_c, 0, 64, 114
1, 275506, Control_c, 0, 64, 116
1, 275508, Note_off_c, 0, 59, 62
1, 275512, Poly_aftertouch_c, 0, 33, 127
1, 275521, Control_c, 0, 64, 118
1, 275536, Control_c, 0, 64, 121
1, 275550, Control_c, 0, 64, 126
1, 275558, Poly_aftertouch_c, 0, 33, 0
1, 275565, Control_c, 0, 64, 127
1, 275574, Note_on_c, 0, 60, 75
1, 275585, Poly_aftertouch_c, 0, 36, 127
1, 275617, Poly_aftertouch_c, 0, 36, 0
1, 275647, Note_off_c, 0, 60, 59
1, 275691, Note_on_c, 0, 43, 44
1, 275710, Note_on_c, 0, 71, 65
1, 275728, Note_off_c, 0, 43, 50
1, 275746, Note_off_c, 0, 71, 61
1, 275881, Note_on_c, 0, 76, 71
1, 275882, Note_on_c, 0, 52, 69
1, 275931, Note_on_c, 0, 64, 82
1, 275937, Note_on_c, 0, 88, 86
1, 275985, Note_off_c, 0, 64, 64
1, 275994, Note_off_c, 0, 76, 66
1, 275997, Note_off_c, 0, 88, 63
1, 276007, Note_off_c, 0, 52, 65
1, 276114, Note_on_c, 0, 72, 102
1, 276117, Note_on_c, 0, 60, 104
1, 276118, Note_on_c, 0, 84, 100
1, 276121, Note_on_c, 0, 48, 102
1, 276167, Note_off_c, 0, 60, 61
1, 276178, Note_off_c, 0, 84, 57
1, 276188, Note_off_c, 0, 72, 59
1, 276189, Note_off_c, 0, 48, 62
1, 276261, Note_on_c, 0, 59, 110
1, 276264, Note_on_c, 0, 71, 105
1, 276266, Note_on_c, 0, 47, 100
1, 276267, Note_on_c, 0, 83, 102
1, 276286, Note_on_c, 0, 49, 68
1, 276307, Note_off_c, 0, 49, 61
1, 276322, Note_off_c, 0, 83, 63
1, 276329, Note_off_c, 0, 71, 54
1, 276330, Note_off_c, 0, 47, 64
1, 276346, Note_off_c, 0, 59, 55
1, 276418, Note_on_c, 0, 45, 98
1, 276419, Note_on_c, 0, 69, 106
1, 276421, Note_on_c, 0, 81, 103
1, 276440, Note_off_c, 0, 45, 72
1, 276448, Note_off_c, 0, 81, 69
1, 276460, Note_off_c, 0, 69, 64
1, 276637, Note_on_c, 0, 29, 69
1, 276642, Note_on_c, 0, 53, 79
1, 276644, Note_on_c, 0, 28, 79
1, 276646, Control_c, 0, 64, 97
1, 276661, Control_c, 0, 64, 75
1, 276676, Control_c, 0, 64, 0
1, 276711, Note_off_c, 0, 28, 58
1, 276720, Control_c, 0, 64, 52
1, 276735, Control_c, 0, 64, 66
1, 276739, Note_off_c, 0, 53, 62
1, 276750, Control_c, 0, 64, 73
1, 276765, Control_c, 0, 64, 81
1, 276780, Control_c, 0, 64, 88
1, 276795, Control_c, 0, 64, 91
1, 276804, Note_on_c, 0, 64, 69
1, 276810, Control_c, 0, 64, 93
1, 276823, Note_on_c, 0, 40, 53
1, 276825, Control_c, 0, 64, 97
1, 276836, Note_off_c, 0, 29, 35
1, 276839, Control_c, 0, 64, 101
1, 276854, Control_c, 0, 64, 104
1, 276869, Control_c, 0, 64, 107
1, 276884, Control_c, 0, 64, 109
1, 276890, Note_off_c, 0, 64, 64
1, 276898, Control_c, 0, 64, 112
1, 276913, Note_off_c, 0, 40, 56
1, 276913, Control_c, 0, 64, 115
1, 276918, Note_on_c, 0, 41, 66
1, 276928, Control_c, 0, 64, 118
1, 276936, Note_on_c, 0, 65, 86
1, 276943, Control_c, 0, 64, 122
1, 276944, Note_off_c, 0, 41, 63
1, 276957, Control_c, 0, 64, 127
1, 276959, Note_off_c, 0, 65, 71
1, 277091, Note_on_c, 0, 87, 103
1, 277092, Note_on_c, 0, 63, 92
1, 277092, Note_on_c, 0, 75, 103
1, 277095, Note_on_c, 0, 51, 99
1, 277109, Note_off_c, 0, 63, 74
1, 277115, Note_off_c, 0, 51, 71
1, 277123, Note_off_c, 0, 87, 64
1, 277128, Note_off_c, 0, 75, 64
1, 277322, Control_c, 0, 64, 123
1, 277324, Note_on_c, 0, 28, 89
1, 277324, Note_on_c, 0, 52, 85
1, 277336, Control_c, 0, 64, 94
1, 277351, Control_c, 0, 64, 73
1, 277366, Control_c, 0, 64, 0
1, 277395, Control_c, 0, 64, 45
1, 277410, Control_c, 0, 64, 65
1, 277425, Control_c, 0, 64, 72
1, 277430, Note_off_c, 0, 52, 61
1, 277440, Control_c, 0, 64, 80
1, 277454, Control_c, 0, 64, 85
1, 277469, Control_c, 0, 64, 87
1, 277484, Control_c, 0, 64, 90
1, 277491, Note_on_c, 0, 63, 71
1, 277498, Control_c, 0, 64, 94
1, 277504, Note_off_c, 0, 28, 34
1, 277513, Control_c, 0, 64, 97
1, 277528, Control_c, 0, 64, 99
1, 277543, Control_c, 0, 64, 101
1, 277555, Note_on_c, 0, 39, 31
1, 277558, Control_c, 0, 64, 103
1, 277573, Control_c, 0, 64, 106
1, 277588, Control_c, 0, 64, 109
1, 277600, Note_on_c, 0, 40, 56
1, 277600, Note_off_c, 0, 63, 62
1, 277601, Note_off_c, 0, 39, 60
1, 277603, Control_c, 0, 64, 111
1, 277618, Control_c, 0, 64, 114
1, 277626, Note_on_c, 0, 64, 82
1, 277628, Note_off_c, 0, 40, 57
1, 277632, Control_c, 0, 64, 116
1, 277647, Control_c, 0, 64, 119
1, 277650, Note_off_c, 0, 64, 70
1, 277662, Control_c, 0, 64, 126
1, 277677, Control_c, 0, 64, 127
1, 277828, Note_on_c, 0, 68, 82
1, 277832, Note_on_c, 0, 56, 75
1, 277833, Note_on_c, 0, 92, 92
1, 277837, Note_on_c, 0, 80, 95
1, 277848, Note_off_c, 0, 68, 71
1, 277865, Note_off_c, 0, 56, 66
1, 277865, Note_off_c, 0, 92, 69
1, 277877, Note_off_c, 0, 80, 65
1, 278145, Note_on_c, 0, 31, 62
1, 278148, Note_on_c, 0, 33, 56
1, 278159, Control_c, 0, 64, 97
1, 278163, Note_on_c, 0, 57, 62
1, 278166, Note_on_c, 0, 55, 65
1, 278174, Control_c, 0, 64, 76
1, 278189, Control_c, 0, 64, 38
1, 278201, Note_off_c, 0, 31, 62
1, 278203, Control_c, 0, 64, 0
1, 278226, Note_off_c, 0, 55, 58
1, 278233, Control_c, 0, 64, 59
1, 278248, Control_c, 0, 64, 67
1, 278263, Control_c, 0, 64, 75
1, 278277, Control_c, 0, 64, 86
1, 278292, Control_c, 0, 64, 93
1, 278307, Control_c, 0, 64, 95
1, 278321, Control_c, 0, 64, 96
1, 278324, Note_off_c, 0, 57, 58
1, 278336, Control_c, 0, 64, 98
1, 278348, Note_off_c, 0, 33, 38
1, 278351, Control_c, 0, 64, 101
1, 278366, Control_c, 0, 64, 104
1, 278368, Note_on_c, 0, 68, 65
1, 278381, Control_c, 0, 64, 107
1, 278396, Control_c, 0, 64, 110
1, 278410, Note_on_c, 0, 44, 41
1, 278410, Control_c, 0, 64, 112
1, 278425, Control_c, 0, 64, 114
1, 278440, Control_c, 0, 64, 116
1, 278455, Control_c, 0, 64, 118
1, 278470, Control_c, 0, 64, 119
1, 278479, Note_off_c, 0, 44, 62
1, 278484, Note_off_c, 0, 68, 60
1, 278485, Control_c, 0, 64, 121
1, 278500, Control_c, 0, 64, 122
1, 278503, Note_on_c, 0, 45, 54
1, 278515, Control_c, 0, 64, 123
1, 278529, Note_off_c, 0, 45, 58
1, 278530, Control_c, 0, 64, 124
1, 278532, Note_on_c, 0, 69, 74
1, 278545, Control_c, 0, 64, 125
1, 278559, Control_c, 0, 64, 126
1, 278590, Control_c, 0, 64, 126
1, 278604, Note_off_c, 0, 69, 56
1, 278619, Control_c, 0, 64, 127
1, 278634, Control_c, 0, 64, 127
1, 278670, Note_on_c, 0, 56, 73
1, 278675, Note_on_c, 0, 80, 67
1, 278810, Note_off_c, 0, 80, 63
1, 278825, Note_off_c, 0, 56, 65
1, 278840, Note_on_c, 0, 57, 73
1, 278849, Note_on_c, 0, 81, 93
1, 278867, Note_off_c, 0, 57, 66
1, 278983, Note_off_c, 0, 81, 52
1, 279019, Note_on_c, 0, 92, 84
1, 279035, Note_on_c, 0, 68, 48
1, 279059, Note_off_c, 0, 68, 58
1, 279066, Note_off_c, 0, 92, 67
1, 279228, Note_on_c, 0, 69, 39
1, 279240, Note_on_c, 0, 93, 72
1, 279274, Note_off_c, 0, 69, 66
1, 279277, Note_on_c, 0, 81, 83
1, 279281, Note_on_c, 0, 105, 105
1, 279297, Note_off_c, 0, 93, 64
1, 279308, Note_off_c, 0, 81, 61
1, 279319, Note_off_c, 0, 105, 67
1, 280746, Control_c, 0, 64, 115
1, 280761, Control_c, 0, 64, 102
1, 280776, Control_c, 0, 64, 85
1, 280790, Control_c, 0, 64, 62
1, 280805, Control_c, 0, 64, 0
1, 280807, Note_on_c, 0, 57, 107
1, 280808, Note_on_c, 0, 45, 111
1, 280808, Note_on_c, 0, 69, 104
1, 280813, Note_on_c, 0, 33, 101
1, 280845, Note_on_c, 0, 36, 40
1, 280858, Note_on_c, 0, 62, 15
1, 280866, Note_off_c, 0, 62, 42
1, 280882, Note_off_c, 0, 36, 54
1, 280882, Note_on_c, 0, 67, 3
1, 280902, Control_c, 0, 64, 60
1, 280917, Control_c, 0, 64, 74
1, 280931, Control_c, 0, 64, 87
1, 280938, Note_off_c, 0, 67, 25
1, 280946, Control_c, 0, 64, 97
1, 280961, Control_c, 0, 64, 100
1, 280977, Control_c, 0, 64, 102
1, 280992, Control_c, 0, 64, 104
1, 281007, Control_c, 0, 64, 107
1, 281016, Note_off_c, 0, 45, 50
1, 281021, Control_c, 0, 64, 110
1, 281030, Note_off_c, 0, 33, 51
1, 281036, Control_c, 0, 64, 112
1, 281040, Note_off_c, 0, 57, 52
1, 281045, Note_off_c, 0, 69, 56
1, 281051, Control_c, 0, 64, 113
1, 281066, Control_c, 0, 64, 114
1, 281081, Control_c, 0, 64, 116
1, 281095, Control_c, 0, 64, 118
1, 281110, Control_c, 0, 64, 124
1, 281113, Note_on_c, 0, 60, 55
1, 281125, Control_c, 0, 64, 127
1, 281132, Note_on_c, 0, 39, 49
1, 281146, Note_off_c, 0, 60, 64
1, 281147, Note_on_c, 0, 63, 66
1, 281169, Note_on_c, 0, 66, 68
1, 281169, Note_off_c, 0, 39, 62
1, 281189, Note_off_c, 0, 63, 65
1, 281198, Note_on_c, 0, 45, 50
1, 281200, Note_off_c, 0, 66, 68
1, 281216, Note_off_c, 0, 45, 68
1, 281270, Note_on_c, 0, 69, 45
1, 281272, Note_on_c, 0, 71, 38
1, 281290, Note_off_c, 0, 69, 60
1, 281293, Note_on_c, 0, 48, 42
1, 281299, Note_off_c, 0, 71, 49
1, 281322, Note_on_c, 0, 51, 52
1, 281322, Note_on_c, 0, 74, 50
1, 281325, Note_off_c, 0, 48, 55
1, 281344, Note_off_c, 0, 74, 65
1, 281344, Note_on_c, 0, 79, 57
1, 281345, Note_on_c, 0, 76, 45
1, 281346, Note_off_c, 0, 51, 58
1, 281365, Note_off_c, 0, 79, 62
1, 281366, Note_on_c, 0, 57, 72
1, 281368, Note_off_c, 0, 76, 52
1, 281398, Note_off_c, 0, 57, 57
1, 281412, Note_on_c, 0, 79, 79
1, 281448, Note_on_c, 0, 60, 73
1, 281451, Note_off_c, 0, 79, 63
1, 281453, Note_on_c, 0, 83, 81
1, 281464, Note_off_c, 0, 60, 64
1, 281478, Note_off_c, 0, 83, 61
1, 281630, Note_on_c, 0, 36, 99
1, 281634, Note_on_c, 0, 48, 93
1, 281648, Note_on_c, 0, 72, 79
1, 281651, Control_c, 0, 64, 98
1, 281657, Note_off_c, 0, 48, 69
1, 281659, Note_off_c, 0, 36, 70
1, 281661, Note_off_c, 0, 72, 72
1, 281666, Control_c, 0, 64, 73
1, 281666, Note_on_c, 0, 59, 53
1, 281670, Note_on_c, 0, 60, 47
1, 281680, Control_c, 0, 64, 0
1, 281688, Note_off_c, 0, 59, 57
1, 281693, Note_off_c, 0, 60, 36
1, 281809, Note_on_c, 0, 45, 95
1, 281809, Note_on_c, 0, 57, 94
1, 281813, Note_on_c, 0, 69, 91
1, 281818, Note_on_c, 0, 33, 88
1, 281827, Note_off_c, 0, 57, 72
1, 281833, Note_off_c, 0, 45, 70
1, 281833, Note_off_c, 0, 69, 71
1, 281846, Note_off_c, 0, 33, 66
1, 282011, Note_on_c, 0, 63, 107
1, 282014, Note_on_c, 0, 51, 97
1, 282014, Note_on_c, 0, 75, 107
1, 282019, Note_on_c, 0, 39, 95
1, 282022, Control_c, 0, 64, 81
1, 282037, Control_c, 0, 64, 127
1, 282044, Note_on_c, 0, 68, 49
1, 282078, Note_off_c, 0, 68, 49
1, 282103, Note_off_c, 0, 51, 58
1, 282131, Note_off_c, 0, 63, 59
1, 282219, Note_on_c, 0, 44, 50
1, 282230, Note_off_c, 0, 39, 57
1, 282240, Note_on_c, 0, 68, 50
1, 282243, Note_off_c, 0, 75, 54
1, 282257, Note_off_c, 0, 44, 61
1, 282262, Note_off_c, 0, 68, 60
1, 282312, Note_on_c, 0, 71, 72
1, 282355, Poly_aftertouch_c, 0, 47, 127
1, 282369, Note_off_c, 0, 71, 55
1, 282384, Note_on_c, 0, 75, 68
1, 282393, Poly_aftertouch_c, 0, 47, 0
1, 282400, Note_on_c, 0, 51, 39
1, 282420, Note_off_c, 0, 51, 60
1, 282438, Note_on_c, 0, 80, 77
1, 282447, Note_off_c, 0, 75, 65
1, 282463, Note_off_c, 0, 80, 67
1, 282496, Poly_aftertouch_c, 0, 56, 0
1, 282516, Poly_aftertouch_c, 0, 56, 0
1, 282519, Poly_aftertouch_c, 0, 59, 0
1, 282526, Note_on_c, 0, 83, 74
1, 282545, Poly_aftertouch_c, 0, 59, 0
1, 282572, Note_on_c, 0, 87, 76
1, 282583, Note_on_c, 0, 92, 82
1, 282586, Note_on_c, 0, 68, 81
1, 282595, Note_off_c, 0, 87, 66
1, 282600, Note_off_c, 0, 68, 71
1, 282601, Note_on_c, 0, 93, 67
1, 282605, Note_off_c, 0, 83, 60
1, 282617, Note_off_c, 0, 93, 61
1, 282622, Note_off_c, 0, 92, 62
1, 282764, Note_on_c, 0, 40, 94
1, 282766, Note_on_c, 0, 52, 79
1, 282766, Note_on_c, 0, 64, 96
1, 282769, Note_on_c, 0, 76, 94
1, 282783, Note_off_c, 0, 52, 67
1, 282784, Note_off_c, 0, 76, 75
1, 282787, Note_off_c, 0, 40, 67
1, 282789, Note_off_c, 0, 64, 67
1, 282831, Control_c, 0, 64, 105
1, 282846, Control_c, 0, 64, 75
1, 282861, Control_c, 0, 64, 0
1, 282952, Note_on_c, 0, 64, 97
1, 282953, Note_on_c, 0, 40, 85
1, 282953, Note_on_c, 0, 52, 96
1, 282960, Note_on_c, 0, 28, 83
1, 282974, Note_off_c, 0, 52, 74
1, 282983, Note_off_c, 0, 40, 66
1, 282984, Note_off_c, 0, 64, 65
1, 282986, Note_off_c, 0, 28, 63
1, 283174, Note_on_c, 0, 57, 106
1, 283174, Note_on_c, 0, 45, 101
1, 283177, Note_on_c, 0, 33, 100
1, 283177, Note_on_c, 0, 69, 108
1, 283179, Control_c, 0, 64, 47
1, 283193, Control_c, 0, 64, 127
1, 283203, Note_on_c, 0, 66, 45
1, 283222, Note_off_c, 0, 66, 63
1, 283296, Note_off_c, 0, 45, 54
1, 283310, Note_off_c, 0, 69, 55
1, 283327, Note_off_c, 0, 57, 48
1, 283365, Note_off_c, 0, 33, 54
1, 283400, Note_on_c, 0, 36, 39
1, 283418, Note_on_c, 0, 60, 56
1, 283457, Note_on_c, 0, 39, 54
1, 283472, Note_on_c, 0, 63, 65
1, 283475, Note_off_c, 0, 60, 57
1, 283481, Note_off_c, 0, 36, 59
1, 283493, Note_off_c, 0, 39, 61
1, 283496, Note_on_c, 0, 66, 66
1, 283498, Note_on_c, 0, 42, 43
1, 283503, Note_off_c, 0, 63, 67
1, 283523, Note_on_c, 0, 45, 60
1, 283524, Note_off_c, 0, 66, 67
1, 283529, Note_off_c, 0, 42, 53
1, 283543, Note_off_c, 0, 45, 66
1, 283570, Note_on_c, 0, 69, 80
1, 283595, Note_off_c, 0, 69, 63
1, 283608, Note_on_c, 0, 48, 61
1, 283624, Note_on_c, 0, 72, 79
1, 283644, Note_on_c, 0, 51, 69
1, 283654, Note_on_c, 0, 78, 75
1, 283666, Note_on_c, 0, 75, 37
1, 283667, Note_off_c, 0, 72, 64
1, 283680, Note_off_c, 0, 51, 63
1, 283681, Note_off_c, 0, 48, 58
1, 283694, Note_off_c, 0, 75, 47
1, 283701, Note_on_c, 0, 57, 77
1, 283701, Note_off_c, 0, 78, 59
1, 283739, Note_on_c, 0, 81, 86
1, 283758, Note_off_c, 0, 57, 61
1, 283770, Note_on_c, 0, 60, 83
1, 283777, Note_on_c, 0, 84, 89
1, 283782, Note_off_c, 0, 81, 65
1, 283791, Note_off_c, 0, 60, 72
1, 283812, Note_off_c, 0, 84, 64
1, 283952, Note_on_c, 0, 36, 95
1, 283952, Note_on_c, 0, 48, 90
1, 283957, Control_c, 0, 64, 98
1, 283960, Note_on_c, 0, 60, 89
1, 283961, Note_on_c, 0, 72, 88
1, 283972, Note_off_c, 0, 48, 72
1, 283972, Control_c, 0, 64, 72
1, 283978, Note_off_c, 0, 36, 68
1, 283981, Note_off_c, 0, 60, 68
1, 283981, Note_off_c, 0, 72, 73
1, 283987, Control_c, 0, 64, 0
1, 284117, Note_on_c, 0, 45, 96
1, 284119, Note_on_c, 0, 57, 89
1, 284120, Note_on_c, 0, 69, 92
1, 284123, Note_on_c, 0, 33, 89
1, 284138, Note_off_c, 0, 57, 72
1, 284144, Note_off_c, 0, 45, 69
1, 284147, Note_off_c, 0, 69, 64
1, 284149, Note_off_c, 0, 33, 67
1, 284299, Control_c, 0, 64, 94
1, 284304, Note_on_c, 0, 63, 106
1, 284307, Note_on_c, 0, 51, 115
1, 284308, Note_on_c, 0, 39, 95
1, 284308, Note_on_c, 0, 75, 105
1, 284313, Control_c, 0, 64, 127
1, 284329, Note_on_c, 0, 47, 32
1, 284329, Note_on_c, 0, 68, 34
1, 284348, Note_on_c, 0, 44, 28
1, 284357, Note_off_c, 0, 68, 57
1, 284361, Note_on_c, 0, 76, 24
1, 284361, Note_off_c, 0, 47, 54
1, 284393, Note_off_c, 0, 44, 40
1, 284407, Note_off_c, 0, 76, 38
1, 284417, Note_off_c, 0, 63, 61
1, 284419, Note_off_c, 0, 51, 57
1, 284430, Poly_aftertouch_c, 0, 53, 0
1, 284441, Poly_aftertouch_c, 0, 71, 0
1, 284468, Note_on_c, 0, 44, 58
1, 284470, Note_on_c, 0, 68, 69
1, 284479, Note_on_c, 0, 47, 49
1, 284479, Note_off_c, 0, 75, 59
1, 284482, Note_off_c, 0, 39, 60
1, 284496, Note_off_c, 0, 68, 66
1, 284503, Note_on_c, 0, 71, 49
1, 284512, Note_off_c, 0, 47, 60
1, 284512, Note_off_c, 0, 44, 62
1, 284524, Note_off_c, 0, 71, 58
1, 284526, Note_on_c, 0, 51, 46
1, 284542, Note_off_c, 0, 51, 65
1, 284600, Note_on_c, 0, 75, 56
1, 284616, Note_on_c, 0, 80, 73
1, 284655, Note_off_c, 0, 75, 65
1, 284660, Note_on_c, 0, 87, 90
1, 284661, Note_on_c, 0, 63, 79
1, 284670, Note_off_c, 0, 80, 65
1, 284677, Note_off_c, 0, 87, 73
1, 284690, Note_off_c, 0, 63, 66
1, 284694, Note_on_c, 0, 85, 49
1, 284720, Note_off_c, 0, 85, 48
1, 284852, Control_c, 0, 64, 118
1, 284867, Control_c, 0, 64, 86
1, 284870, Note_on_c, 0, 52, 104
1, 284870, Note_on_c, 0, 64, 115
1, 284873, Note_on_c, 0, 40, 104
1, 284873, Note_on_c, 0, 76, 100
1, 284882, Control_c, 0, 64, 61
1, 284896, Note_on_c, 0, 47, 54
1, 284897, Control_c, 0, 64, 0
1, 284898, Note_on_c, 0, 74, 56
1, 284899, Note_off_c, 0, 74, 127
1, 284910, Note_on_c, 0, 68, 34
1, 284911, Note_off_c, 0, 68, 127
1, 284927, Note_off_c, 0, 47, 56
1, 284942, Control_c, 0, 64, 51
1, 284957, Control_c, 0, 64, 71
1, 284972, Control_c, 0, 64, 83
1, 284986, Control_c, 0, 64, 97
1, 285001, Note_off_c, 0, 64, 48
1, 285001, Control_c, 0, 64, 108
1, 285010, Note_on_c, 0, 68, 81
1, 285016, Control_c, 0, 64, 125
1, 285017, Note_off_c, 0, 52, 54
1, 285031, Note_on_c, 0, 47, 41
1, 285031, Control_c, 0, 64, 127
1, 285034, Note_on_c, 0, 44, 56
1, 285051, Note_off_c, 0, 40, 56
1, 285059, Note_off_c, 0, 68, 64
1, 285064, Note_on_c, 0, 71, 59
1, 285065, Note_off_c, 0, 76, 60
1, 285076, Note_off_c, 0, 47, 63
1, 285081, Note_off_c, 0, 44, 61
1, 285082, Note_off_c, 0, 71, 62
1, 285095, Note_on_c, 0, 52, 53
1, 285122, Note_off_c, 0, 52, 57
1, 285138, Note_on_c, 0, 76, 76
1, 285183, Note_on_c, 0, 80, 81
1, 285207, Note_on_c, 0, 83, 79
1, 285209, Note_on_c, 0, 56, 51
1, 285216, Note_off_c, 0, 76, 66
1, 285226, Note_on_c, 0, 88, 89
1, 285233, Note_off_c, 0, 83, 63
1, 285236, Note_off_c, 0, 56, 60
1, 285240, Note_on_c, 0, 59, 48
1, 285240, Note_off_c, 0, 80, 66
1, 285245, Note_off_c, 0, 88, 72
1, 285246, Note_on_c, 0, 64, 55
1, 285264, Note_off_c, 0, 59, 56
1, 285264, Note_off_c, 0, 64, 63
1, 285469, Control_c, 0, 64, 108
1, 285481, Note_on_c, 0, 45, 101
1, 285483, Note_on_c, 0, 57, 102
1, 285484, Control_c, 0, 64, 86
1, 285485, Note_on_c, 0, 69, 107
1, 285487, Note_on_c, 0, 33, 102
1, 285499, Control_c, 0, 64, 64
1, 285513, Control_c, 0, 64, 0
1, 285558, Control_c, 0, 64, 55
1, 285573, Control_c, 0, 64, 69
1, 285588, Control_c, 0, 64, 79
1, 285602, Control_c, 0, 64, 89
1, 285617, Control_c, 0, 64, 96
1, 285624, Note_off_c, 0, 45, 50
1, 285632, Control_c, 0, 64, 103
1, 285636, Note_off_c, 0, 69, 54
1, 285638, Note_off_c, 0, 57, 53
1, 285647, Control_c, 0, 64, 110
1, 285662, Control_c, 0, 64, 121
1, 285674, Note_off_c, 0, 33, 56
1, 285676, Control_c, 0, 64, 127
1, 285683, Note_on_c, 0, 60, 68
1, 285709, Note_on_c, 0, 36, 29
1, 285735, Note_on_c, 0, 39, 49
1, 285737, Note_off_c, 0, 60, 60
1, 285740, Note_on_c, 0, 63, 64
1, 285752, Note_off_c, 0, 36, 50
1, 285767, Note_on_c, 0, 66, 57
1, 285768, Note_off_c, 0, 39, 61
1, 285771, Note_off_c, 0, 63, 67
1, 285788, Note_off_c, 0, 66, 64
1, 285806, Note_on_c, 0, 45, 24
1, 285833, Note_on_c, 0, 69, 78
1, 285848, Note_off_c, 0, 45, 46
1, 285866, Note_off_c, 0, 69, 65
1, 285882, Note_on_c, 0, 72, 69
1, 285888, Note_on_c, 0, 48, 41
1, 285898, Note_on_c, 0, 47, 30
1, 285904, Note_on_c, 0, 75, 71
1, 285913, Note_off_c, 0, 72, 65
1, 285915, Note_on_c, 0, 78, 72
1, 285922, Note_off_c, 0, 48, 54
1, 285935, Note_off_c, 0, 75, 67
1, 285939, Note_off_c, 0, 47, 55
1, 285940, Note_off_c, 0, 78, 65
1, 285966, Note_on_c, 0, 57, 59
1, 285991, Note_on_c, 0, 81, 85
1, 285993, Note_off_c, 0, 57, 64
1, 286033, Note_on_c, 0, 84, 92
1, 286035, Note_on_c, 0, 60, 83
1, 286036, Note_off_c, 0, 81, 64
1, 286054, Note_off_c, 0, 60, 71
1, 286070, Note_off_c, 0, 84, 66
1, 286222, Note_on_c, 0, 72, 97
1, 286223, Note_on_c, 0, 60, 96
1, 286224, Note_on_c, 0, 36, 89
1, 286226, Note_on_c, 0, 48, 80
1, 286232, Control_c, 0, 64, 117
1, 286233, Note_on_c, 0, 50, 67
1, 286239, Note_off_c, 0, 60, 71
1, 286244, Note_off_c, 0, 72, 64
1, 286245, Note_off_c, 0, 48, 66
1, 286247, Control_c, 0, 64, 89
1, 286248, Note_off_c, 0, 36, 66
1, 286250, Note_on_c, 0, 38, 39
1, 286254, Note_off_c, 0, 50, 64
1, 286262, Control_c, 0, 64, 60
1, 286277, Control_c, 0, 64, 0
1, 286283, Note_off_c, 0, 38, 52
1, 286381, Note_on_c, 0, 57, 93
1, 286383, Note_on_c, 0, 45, 100
1, 286384, Note_on_c, 0, 69, 95
1, 286388, Note_on_c, 0, 33, 89
1, 286402, Note_off_c, 0, 57, 68
1, 286405, Note_on_c, 0, 34, 53
1, 286406, Note_off_c, 0, 34, 127
1, 286409, Note_off_c, 0, 45, 69
1, 286410, Note_off_c, 0, 69, 66
1, 286411, Note_off_c, 0, 33, 67
1, 286423, Note_on_c, 0, 39, 27
1, 286424, Note_off_c, 0, 39, 127
1, 286466, Poly_aftertouch_c, 0, 39, 0
1, 286574, Note_on_c, 0, 63, 93
1, 286574, Control_c, 0, 64, 127
1, 286575, Note_on_c, 0, 51, 93
1, 286578, Note_on_c, 0, 39, 87
1, 286578, Note_on_c, 0, 75, 108
1, 286583, Note_on_c, 0, 46, 61
1, 286658, Poly_aftertouch_c, 0, 68, 127
1, 286668, Poly_aftertouch_c, 0, 44, 0
1, 286671, Note_off_c, 0, 51, 56
1, 286677, Note_off_c, 0, 46, 28
1, 286681, Poly_aftertouch_c, 0, 68, 0
1, 286693, Note_off_c, 0, 63, 61
1, 286766, Note_on_c, 0, 44, 61
1, 286769, Note_on_c, 0, 68, 69
1, 286770, Note_off_c, 0, 39, 57
1, 286785, Note_off_c, 0, 75, 57
1, 286798, Note_off_c, 0, 68, 66
1, 286801, Note_off_c, 0, 44, 62
1, 286852, Note_on_c, 0, 71, 69
1, 286916, Note_off_c, 0, 71, 57
1, 286918, Note_on_c, 0, 75, 75
1, 286977, Note_on_c, 0, 80, 75
1, 286984, Note_off_c, 0, 75, 66
1, 287004, Note_off_c, 0, 80, 67
1, 287065, Note_on_c, 0, 83, 74
1, 287117, Note_on_c, 0, 92, 89
1, 287121, Note_on_c, 0, 68, 77
1, 287131, Note_off_c, 0, 83, 58
1, 287134, Note_off_c, 0, 92, 74
1, 287141, Note_on_c, 0, 86, 23
1, 287143, Note_off_c, 0, 68, 71
1, 287187, Note_off_c, 0, 86, 50
1, 287288, Note_on_c, 0, 64, 95
1, 287291, Note_on_c, 0, 40, 87
1, 287292, Note_on_c, 0, 76, 90
1, 287294, Note_on_c, 0, 52, 74
1, 287309, Note_on_c, 0, 38, 58
1, 287310, Note_off_c, 0, 38, 127
1, 287310, Note_off_c, 0, 76, 73
1, 287313, Note_off_c, 0, 52, 68
1, 287315, Note_off_c, 0, 64, 65
1, 287317, Note_off_c, 0, 40, 67
1, 287336, Control_c, 0, 64, 113
1, 287341, Poly_aftertouch_c, 0, 38, 0
1, 287351, Control_c, 0, 64, 84
1, 287367, Control_c, 0, 64, 49
1, 287374, Poly_aftertouch_c, 0, 50, 0
1, 287382, Control_c, 0, 64, 0
1, 287460, Note_on_c, 0, 40, 87
1, 287464, Note_on_c, 0, 52, 95
1, 287464, Note_on_c, 0, 64, 97
1, 287471, Note_on_c, 0, 28, 85
1, 287486, Note_off_c, 0, 52, 74
1, 287487, Note_off_c, 0, 40, 70
1, 287497, Note_off_c, 0, 64, 65
1, 287502, Note_off_c, 0, 28, 62
1, 287676, Note_on_c, 0, 57, 108
1, 287678, Note_on_c, 0, 45, 105
1, 287680, Note_on_c, 0, 69, 109
1, 287681, Note_on_c, 0, 33, 96
1, 287685, Control_c, 0, 64, 100
1, 287700, Control_c, 0, 64, 127
1, 287725, Note_on_c, 0, 64, 28
1, 287777, Note_off_c, 0, 64, 38
1, 287794, Note_off_c, 0, 45, 53
1, 287812, Poly_aftertouch_c, 0, 36, 0
1, 287812, Note_off_c, 0, 57, 48
1, 287813, Note_off_c, 0, 69, 51
1, 287848, Note_off_c, 0, 33, 52
1, 287879, Note_on_c, 0, 36, 36
1, 287902, Note_on_c, 0, 60, 59
1, 287929, Note_on_c, 0, 39, 54
1, 287941, Note_on_c, 0, 63, 66
1, 287943, Note_off_c, 0, 60, 57
1, 287967, Note_off_c, 0, 36, 49
1, 287970, Note_off_c, 0, 39, 60
1, 287973, Note_on_c, 0, 66, 67
1, 287982, Note_off_c, 0, 63, 65
1, 287987, Note_on_c, 0, 45, 70
1, 287990, Note_on_c, 0, 42, 22
1, 288000, Note_off_c, 0, 66, 68
1, 288015, Note_off_c, 0, 45, 67
1, 288034, Note_off_c, 0, 42, 41
1, 288039, Note_on_c, 0, 69, 77
1, 288078, Note_off_c, 0, 69, 62
1, 288101, Note_on_c, 0, 48, 38
1, 288102, Note_on_c, 0, 47, 34
1, 288108, Note_on_c, 0, 72, 53
1, 288115, Note_on_c, 0, 75, 69
1, 288120, Note_on_c, 0, 78, 77
1, 288128, Note_on_c, 0, 50, 58
1, 288130, Note_off_c, 0, 72, 62
1, 288140, Note_off_c, 0, 48, 50
1, 288143, Note_off_c, 0, 47, 48
1, 288152, Note_off_c, 0, 50, 63
1, 288154, Note_off_c, 0, 75, 64
1, 288165, Note_off_c, 0, 78, 60
1, 288183, Note_on_c, 0, 57, 59
1, 288206, Note_on_c, 0, 81, 87
1, 288218, Note_off_c, 0, 57, 53
1, 288245, Note_on_c, 0, 84, 84
1, 288247, Note_off_c, 0, 81, 64
1, 288247, Note_on_c, 0, 60, 81
1, 288262, Note_on_c, 0, 83, 59
1, 288263, Note_off_c, 0, 60, 69
1, 288269, Poly_aftertouch_c, 0, 55, 0
1, 288279, Note_off_c, 0, 84, 65
1, 288281, Note_off_c, 0, 83, 39
1, 288335, Poly_aftertouch_c, 0, 59, 0
1, 288429, Note_on_c, 0, 60, 86
1, 288432, Note_on_c, 0, 36, 97
1, 288432, Note_on_c, 0, 48, 99
1, 288433, Note_on_c, 0, 72, 90
1, 288450, Note_off_c, 0, 48, 75
1, 288456, Note_off_c, 0, 36, 71
1, 288457, Note_off_c, 0, 72, 64
1, 288458, Note_off_c, 0, 60, 63
1, 288464, Control_c, 0, 64, 94
1, 288479, Control_c, 0, 64, 69
1, 288493, Control_c, 0, 64, 0
1, 288598, Note_on_c, 0, 57, 92
1, 288600, Note_on_c, 0, 69, 93
1, 288602, Note_on_c, 0, 45, 93
1, 288607, Note_on_c, 0, 33, 86
1, 288615, Note_off_c, 0, 57, 72
1, 288623, Note_off_c, 0, 45, 71
1, 288625, Note_off_c, 0, 69, 66
1, 288630, Note_off_c, 0, 33, 67
1, 288787, Note_on_c, 0, 63, 108
1, 288788, Note_on_c, 0, 51, 104
1, 288790, Control_c, 0, 64, 83
1, 288790, Note_on_c, 0, 39, 96
1, 288792, Note_on_c, 0, 75, 104
1, 288804, Control_c, 0, 64, 127
1, 288805, Note_on_c, 0, 47, 43
1, 288824, Note_on_c, 0, 44, 32
1, 288839, Note_off_c, 0, 47, 51
1, 288860, Note_off_c, 0, 44, 50
1, 288897, Note_off_c, 0, 51, 53
1, 288897, Note_off_c, 0, 63, 60
1, 288948, Note_off_c, 0, 75, 47
1, 288948, Note_on_c, 0, 44, 64
1, 288956, Note_on_c, 0, 68, 57
1, 288968, Note_on_c, 0, 71, 49
1, 288968, Note_off_c, 0, 39, 61
1, 288977, Note_off_c, 0, 68, 62
1, 288990, Note_off_c, 0, 71, 61
1, 288998, Note_off_c, 0, 44, 61
1, 289015, Note_on_c, 0, 51, 51
1, 289040, Note_off_c, 0, 51, 55
1, 289071, Note_on_c, 0, 75, 67
1, 289091, Note_on_c, 0, 80, 75
1, 289140, Note_off_c, 0, 75, 66
1, 289145, Note_on_c, 0, 87, 94
1, 289146, Note_on_c, 0, 63, 92
1, 289159, Note_off_c, 0, 80, 66
1, 289169, Note_off_c, 0, 63, 69
1, 289169, Note_off_c, 0, 87, 64
1, 289361, Control_c, 0, 64, 105
1, 289366, Note_on_c, 0, 64, 107
1, 289371, Note_on_c, 0, 76, 104
1, 289372, Note_on_c, 0, 52, 103
1, 289375, Note_on_c, 0, 40, 99
1, 289376, Control_c, 0, 64, 80
1, 289391, Control_c, 0, 64, 0
1, 289397, Note_on_c, 0, 47, 58
1, 289409, Note_on_c, 0, 71, 32
1, 289416, Note_on_c, 0, 68, 18
1, 289417, Note_off_c, 0, 68, 127
1, 289428, Note_off_c, 0, 47, 57
1, 289443, Note_off_c, 0, 71, 33
1, 289450, Control_c, 0, 64, 65
1, 289465, Control_c, 0, 64, 78
1, 289469, Poly_aftertouch_c, 0, 41, 127
1, 289479, Control_c, 0, 64, 92
1, 289485, Note_off_c, 0, 52, 56
1, 289486, Note_off_c, 0, 64, 42
1, 289494, Control_c, 0, 64, 104
1, 289506, Note_on_c, 0, 68, 68
1, 289509, Control_c, 0, 64, 111
1, 289524, Control_c, 0, 64, 122
1, 289534, Note_on_c, 0, 44, 60
1, 289539, Control_c, 0, 64, 127
1, 289540, Note_off_c, 0, 40, 59
1, 289545, Note_on_c, 0, 71, 59
1, 289556, Note_off_c, 0, 68, 64
1, 289557, Poly_aftertouch_c, 0, 41, 0
1, 289566, Note_off_c, 0, 76, 59
1, 289570, Note_off_c, 0, 44, 60
1, 289573, Note_off_c, 0, 71, 64
1, 289600, Note_on_c, 0, 52, 45
1, 289614, Note_off_c, 0, 52, 72
1, 289631, Note_on_c, 0, 76, 74
1, 289681, Note_on_c, 0, 80, 84
1, 289700, Note_on_c, 0, 83, 79
1, 289705, Note_off_c, 0, 76, 65
1, 289718, Note_on_c, 0, 88, 85
1, 289723, Note_off_c, 0, 83, 63
1, 289728, Note_off_c, 0, 80, 67
1, 289733, Poly_aftertouch_c, 0, 52, 127
1, 289743, Note_off_c, 0, 88, 64
1, 289750, Poly_aftertouch_c, 0, 52, 0
1, 289806, Poly_aftertouch_c, 0, 59, 0
1, 289818, Poly_aftertouch_c, 0, 64, 0
1, 289932, Control_c, 0, 64, 98
1, 289947, Control_c, 0, 64, 78
1, 289949, Note_on_c, 0, 68, 107
1, 289950, Note_on_c, 0, 56, 102
1, 289953, Note_on_c, 0, 44, 99
1, 289953, Note_on_c, 0, 80, 102
1, 289962, Control_c, 0, 64, 34
1, 289977, Control_c, 0, 64, 0
1, 289977, Control_c, 0, 67, 8
1, 290006, Control_c, 0, 64, 60
1, 290006, Control_c, 0, 67, 8
1, 290012, Note_on_c, 0, 43, 12
1, 290021, Control_c, 0, 64, 67
1, 290021, Control_c, 0, 67, 9
1, 290031, Note_off_c, 0, 56, 64
1, 290036, Control_c, 0, 64, 77
1, 290036, Control_c, 0, 67, 10
1, 290051, Control_c, 0, 64, 88
1, 290051, Control_c, 0, 67, 11
1, 290063, Note_off_c, 0, 68, 58
1, 290066, Control_c, 0, 64, 96
1, 290066, Control_c, 0, 67, 10
1, 290066, Note_off_c, 0, 43, 52
1, 290081, Control_c, 0, 64, 98
1, 290096, Control_c, 0, 64, 102
1, 290096, Control_c, 0, 67, 9
1, 290110, Control_c, 0, 64, 107
1, 290125, Control_c, 0, 64, 112
1, 290133, Note_on_c, 0, 73, 55
1, 290137, Note_on_c, 0, 49, 56
1, 290137, Note_off_c, 0, 44, 59
1, 290140, Control_c, 0, 64, 115
1, 290151, Note_off_c, 0, 80, 60
1, 290153, Note_off_c, 0, 73, 59
1, 290155, Control_c, 0, 64, 117
1, 290155, Control_c, 0, 67, 10
1, 290167, Note_off_c, 0, 49, 64
1, 290170, Control_c, 0, 64, 119
1, 290170, Control_c, 0, 67, 10
1, 290184, Control_c, 0, 64, 123
1, 290199, Control_c, 0, 64, 127
1, 290200, Note_on_c, 0, 76, 74
1, 290214, Control_c, 0, 67, 9
1, 290244, Control_c, 0, 67, 9
1, 290253, Note_off_c, 0, 76, 63
1, 290257, Note_on_c, 0, 80, 79
1, 290288, Control_c, 0, 67, 9
1, 290310, Note_on_c, 0, 85, 74
1, 290315, Note_off_c, 0, 80, 64
1, 290332, Control_c, 0, 67, 8
1, 290343, Note_on_c, 0, 64, 58
1, 290346, Note_off_c, 0, 85, 64
1, 290347, Control_c, 0, 67, 8
1, 290362, Control_c, 0, 67, 0
1, 290364, Note_off_c, 0, 64, 60
1, 290397, Note_on_c, 0, 88, 76
1, 290447, Note_on_c, 0, 97, 90
1, 290448, Note_on_c, 0, 91, 65
1, 290456, Note_on_c, 0, 73, 84
1, 290465, Note_off_c, 0, 91, 62
1, 290465, Control_c, 0, 67, 8
1, 290468, Note_off_c, 0, 88, 62
1, 290475, Note_off_c, 0, 73, 72
1, 290480, Note_off_c, 0, 97, 64
1, 290509, Control_c, 0, 67, 8
1, 290570, Control_c, 0, 67, 9
1, 290599, Control_c, 0, 67, 8
1, 290640, Note_on_c, 0, 81, 93
1, 290641, Note_on_c, 0, 69, 92
1, 290647, Note_on_c, 0, 45, 71
1, 290648, Note_on_c, 0, 43, 76
1, 290650, Note_on_c, 0, 55, 68
1, 290651, Note_on_c, 0, 57, 67
1, 290656, Note_off_c, 0, 81, 68
1, 290660, Note_off_c, 0, 69, 72
1, 290668, Note_off_c, 0, 45, 64
1, 290669, Note_off_c, 0, 43, 62
1, 290671, Note_off_c, 0, 55, 65
1, 290673, Note_off_c, 0, 57, 63
1, 290695, Control_c, 0, 64, 104
1, 290710, Control_c, 0, 64, 82
1, 290725, Control_c, 0, 64, 0
1, 290739, Control_c, 0, 67, 8
1, 290754, Control_c, 0, 67, 8
1, 290799, Control_c, 0, 67, 9
1, 290805, Note_on_c, 0, 76, 96
1, 290806, Note_on_c, 0, 64, 90
1, 290808, Note_on_c, 0, 52, 83
1, 290814, Control_c, 0, 67, 9
1, 290828, Note_on_c, 0, 65, 49
1, 290829, Note_off_c, 0, 65, 127
1, 290829, Note_off_c, 0, 64, 70
1, 290829, Note_on_c, 0, 40, 46
1, 290829, Note_off_c, 0, 76, 65
1, 290830, Note_on_c, 0, 38, 52
1, 290831, Note_off_c, 0, 38, 127
1, 290832, Note_off_c, 0, 52, 73
1, 290859, Control_c, 0, 67, 9
1, 290865, Note_off_c, 0, 40, 54
1, 290888, Control_c, 0, 67, 8
1, 290947, Control_c, 0, 67, 8
1, 290962, Control_c, 0, 67, 0
1, 290991, Note_on_c, 0, 61, 100
1, 290995, Note_on_c, 0, 49, 99
1, 290995, Note_on_c, 0, 73, 99
1, 290996, Note_on_c, 0, 37, 94
1, 291006, Control_c, 0, 64, 85
1, 291015, Note_on_c, 0, 69, 54
1, 291021, Control_c, 0, 64, 127
1, 291033, Note_on_c, 0, 66, 31
1, 291082, Note_off_c, 0, 49, 59
1, 291089, Note_off_c, 0, 66, 53
1, 291092, Poly_aftertouch_c, 0, 36, 127
1, 291093, Note_off_c, 0, 61, 59
1, 291122, Note_off_c, 0, 69, 25
1, 291124, Poly_aftertouch_c, 0, 36, 0
1, 291179, Note_on_c, 0, 66, 68
1, 291184, Note_off_c, 0, 37, 58
1, 291195, Note_on_c, 0, 42, 54
1, 291199, Note_off_c, 0, 73, 51
1, 291207, Note_off_c, 0, 66, 68
1, 291234, Note_off_c, 0, 42, 63
1, 291265, Note_on_c, 0, 69, 66
1, 291318, Note_off_c, 0, 69, 52
1, 291333, Note_on_c, 0, 73, 71
1, 291340, Note_on_c, 0, 49, 52
1, 291383, Note_off_c, 0, 49, 62
1, 291392, Note_on_c, 0, 54, 53
1, 291394, Note_on_c, 0, 78, 76
1, 291406, Note_off_c, 0, 73, 62
1, 291417, Note_off_c, 0, 54, 59
1, 291436, Note_off_c, 0, 78, 64
1, 291487, Note_on_c, 0, 81, 79
1, 291536, Note_on_c, 0, 85, 73
1, 291538, Note_on_c, 0, 61, 44
1, 291549, Note_on_c, 0, 90, 96
1, 291560, Note_on_c, 0, 66, 84
1, 291562, Note_off_c, 0, 61, 62
1, 291577, Note_off_c, 0, 81, 61
1, 291578, Note_off_c, 0, 85, 65
1, 291579, Note_off_c, 0, 66, 72
1, 291589, Note_off_c, 0, 90, 65
1, 291732, Note_on_c, 0, 74, 98
1, 291733, Note_on_c, 0, 50, 97
1, 291733, Note_on_c, 0, 62, 97
1, 291737, Note_on_c, 0, 38, 96
1, 291750, Note_off_c, 0, 50, 72
1, 291753, Note_off_c, 0, 62, 68
1, 291755, Control_c, 0, 64, 90
1, 291756, Note_off_c, 0, 38, 67
1, 291763, Note_off_c, 0, 74, 69
1, 291770, Control_c, 0, 64, 60
1, 291785, Control_c, 0, 64, 0
1, 291859, Control_c, 0, 67, 8
1, 291897, Note_on_c, 0, 54, 98
1, 291899, Note_on_c, 0, 66, 101
1, 291899, Note_on_c, 0, 78, 103
1, 291901, Note_on_c, 0, 42, 93
1, 291920, Note_off_c, 0, 54, 63
1, 291932, Note_off_c, 0, 66, 58
1, 291933, Control_c, 0, 67, 0
1, 291939, Note_off_c, 0, 42, 57
1, 291979, Note_off_c, 0, 78, 59
1, 292091, Note_on_c, 0, 66, 113
1, 292092, Note_on_c, 0, 78, 110
1, 292093, Note_on_c, 0, 54, 106
1, 292096, Note_on_c, 0, 42, 100
1, 292096, Control_c, 0, 64, 56
1, 292111, Control_c, 0, 64, 127
1, 292144, Note_on_c, 0, 74, 25
1, 292149, Note_on_c, 0, 71, 23
1, 292179, Note_off_c, 0, 74, 51
1, 292180, Poly_aftertouch_c, 0, 47, 127
1, 292182, Poly_aftertouch_c, 0, 45, 127
1, 292196, Note_off_c, 0, 54, 58
1, 292198, Note_off_c, 0, 66, 60
1, 292205, Note_off_c, 0, 71, 35
1, 292221, Poly_aftertouch_c, 0, 45, 0
1, 292281, Poly_aftertouch_c, 0, 47, 0
1, 292288, Note_on_c, 0, 71, 48
1, 292310, Note_off_c, 0, 71, 58
1, 292313, Note_off_c, 0, 42, 58
1, 292314, Note_off_c, 0, 78, 49
1, 292317, Poly_aftertouch_c, 0, 47, 127
1, 292368, Note_on_c, 0, 74, 68
1, 292370, Poly_aftertouch_c, 0, 47, 0
1, 292426, Note_off_c, 0, 74, 48
1, 292433, Note_on_c, 0, 78, 73
1, 292483, Note_on_c, 0, 83, 70
1, 292492, Note_off_c, 0, 78, 64
1, 292521, Note_off_c, 0, 83, 59
1, 292536, Note_on_c, 0, 60, 39
1, 292564, Note_off_c, 0, 60, 48
1, 292575, Note_on_c, 0, 86, 75
1, 292615, Note_on_c, 0, 90, 84
1, 292641, Note_on_c, 0, 95, 86
1, 292647, Note_off_c, 0, 86, 60
1, 292649, Note_on_c, 0, 71, 80
1, 292664, Note_off_c, 0, 71, 67
1, 292667, Note_off_c, 0, 90, 65
1, 292673, Note_off_c, 0, 95, 63
1, 292821, Note_on_c, 0, 67, 97
1, 292823, Note_on_c, 0, 79, 93
1, 292826, Note_on_c, 0, 55, 90
1, 292829, Note_on_c, 0, 43, 91
1, 292846, Note_off_c, 0, 55, 72
1, 292853, Note_off_c, 0, 43, 65
1, 292853, Note_off_c, 0, 79, 62
1, 292856, Note_off_c, 0, 67, 61
1, 292860, Control_c, 0, 64, 108
1, 292883, Control_c, 0, 64, 82
1, 292898, Control_c, 0, 64, 0
1, 292901, Poly_aftertouch_c, 0, 46, 0
1, 293007, Note_on_c, 0, 62, 98
1, 293008, Note_on_c, 0, 74, 93
1, 293011, Note_on_c, 0, 50, 75
1, 293011, Note_on_c, 0, 38, 83
1, 293015, Note_on_c, 0, 52, 67
1, 293035, Note_off_c, 0, 52, 64
1, 293035, Note_off_c, 0, 50, 67
1, 293035, Note_off_c, 0, 74, 67
1, 293037, Note_off_c, 0, 38, 66
1, 293041, Note_off_c, 0, 62, 64
1, 293196, Note_on_c, 0, 59, 104
1, 293197, Note_on_c, 0, 47, 103
1, 293199, Note_on_c, 0, 71, 104
1, 293203, Note_on_c, 0, 35, 94
1, 293209, Control_c, 0, 64, 91
1, 293224, Control_c, 0, 64, 127
1, 293234, Note_on_c, 0, 36, 49
1, 293248, Note_on_c, 0, 64, 32
1, 293276, Note_off_c, 0, 64, 44
1, 293279, Note_off_c, 0, 36, 47
1, 293284, Note_off_c, 0, 47, 56
1, 293285, Note_off_c, 0, 59, 52
1, 293381, Note_on_c, 0, 64, 63
1, 293393, Note_on_c, 0, 40, 15
1, 293395, Note_off_c, 0, 35, 59
1, 293428, Note_off_c, 0, 64, 63
1, 293440, Note_off_c, 0, 40, 57
1, 293440, Note_off_c, 0, 71, 49
1, 293472, Note_on_c, 0, 43, 48
1, 293491, Note_on_c, 0, 67, 69
1, 293506, Note_off_c, 0, 43, 50
1, 293532, Note_off_c, 0, 67, 56
1, 293554, Note_on_c, 0, 71, 72
1, 293591, Note_on_c, 0, 47, 24
1, 293595, Note_off_c, 0, 71, 59
1, 293598, Note_on_c, 0, 76, 68
1, 293613, Note_off_c, 0, 47, 60
1, 293649, Note_off_c, 0, 76, 62
1, 293652, Poly_aftertouch_c, 0, 48, 127
1, 293676, Note_on_c, 0, 55, 62
1, 293683, Poly_aftertouch_c, 0, 48, 0
1, 293694, Note_on_c, 0, 79, 74
1, 293705, Note_off_c, 0, 55, 66
1, 293738, Note_on_c, 0, 83, 86
1, 293752, Note_off_c, 0, 79, 61
1, 293765, Note_on_c, 0, 88, 83
1, 293770, Note_on_c, 0, 64, 80
1, 293777, Note_on_c, 0, 59, 50
1, 293788, Note_off_c, 0, 83, 64
1, 293792, Note_off_c, 0, 88, 63
1, 293794, Note_off_c, 0, 64, 70
1, 293800, Note_off_c, 0, 59, 58
1, 293944, Control_c, 0, 64, 120
1, 293949, Note_on_c, 0, 60, 99
1, 293950, Note_on_c, 0, 48, 98
1, 293953, Note_on_c, 0, 72, 96
1, 293953, Note_on_c, 0, 36, 96
1, 293958, Control_c, 0, 64, 86
1, 293971, Note_off_c, 0, 48, 71
1, 293973, Control_c, 0, 64, 0
1, 293977, Note_off_c, 0, 60, 65
1, 293978, Note_off_c, 0, 36, 67
1, 293980, Note_off_c, 0, 72, 65
1, 294132, Note_on_c, 0, 52, 106
1, 294133, Note_on_c, 0, 64, 104
1, 294135, Note_on_c, 0, 76, 101
1, 294139, Note_on_c, 0, 40, 94
1, 294155, Note_off_c, 0, 52, 69
1, 294158, Note_off_c, 0, 64, 67
1, 294163, Note_off_c, 0, 40, 67
1, 294165, Note_on_c, 0, 42, 42
1, 294171, Note_off_c, 0, 76, 64
1, 294181, Note_on_c, 0, 44, 12
1, 294200, Note_off_c, 0, 42, 50
1, 294234, Note_off_c, 0, 44, 28
1, 294351, Note_on_c, 0, 52, 116
1, 294351, Note_on_c, 0, 64, 107
1, 294353, Note_on_c, 0, 76, 100
1, 294358, Control_c, 0, 64, 65
1, 294359, Note_on_c, 0, 40, 107
1, 294380, Control_c, 0, 64, 127
1, 294382, Note_on_c, 0, 69, 66
1, 294392, Note_on_c, 0, 48, 43
1, 294401, Note_off_c, 0, 69, 63
1, 294423, Note_off_c, 0, 48, 55
1, 294493, Note_off_c, 0, 52, 47
1, 294506, Note_off_c, 0, 64, 53
1, 294559, Note_off_c, 0, 40, 49
1, 294622, Note_on_c, 0, 69, 56
1, 294634, Note_off_c, 0, 76, 46
1, 294653, Note_off_c, 0, 69, 66
1, 294680, Note_on_c, 0, 72, 49
1, 294696, Note_on_c, 0, 52, 49
1, 294701, Note_off_c, 0, 72, 58
1, 294719, Note_off_c, 0, 52, 62
1, 294755, Note_on_c, 0, 76, 73
1, 294805, Note_on_c, 0, 81, 77
1, 294808, Note_off_c, 0, 76, 61
1, 294823, Note_on_c, 0, 57, 44
1, 294843, Note_on_c, 0, 84, 81
1, 294853, Note_off_c, 0, 57, 60
1, 294865, Note_on_c, 0, 60, 61
1, 294865, Note_off_c, 0, 81, 60
1, 294874, Note_on_c, 0, 89, 97
1, 294882, Note_off_c, 0, 84, 68
1, 294889, Note_off_c, 0, 60, 64
1, 294901, Note_on_c, 0, 65, 68
1, 294910, Note_off_c, 0, 89, 64
1, 294919, Note_off_c, 0, 65, 65
1, 295068, Note_on_c, 0, 46, 97
1, 295071, Note_on_c, 0, 58, 96
1, 295071, Note_on_c, 0, 70, 100
1, 295071, Note_on_c, 0, 34, 89
1, 295077, Control_c, 0, 64, 114
1, 295077, Control_c, 0, 67, 9
1, 295089, Note_off_c, 0, 46, 68
1, 295090, Note_off_c, 0, 58, 70
1, 295092, Control_c, 0, 64, 82
1, 295092, Control_c, 0, 67, 10
1, 295095, Note_off_c, 0, 70, 58
1, 295098, Note_off_c, 0, 34, 65
1, 295106, Control_c, 0, 64, 0
1, 295106, Control_c, 0, 67, 9
1, 295129, Control_c, 0, 67, 9
1, 295144, Control_c, 0, 67, 9
1, 295159, Control_c, 0, 67, 9
1, 295188, Control_c, 0, 67, 9
1, 295241, Note_on_c, 0, 62, 95
1, 295242, Note_on_c, 0, 74, 97
1, 295244, Note_on_c, 0, 50, 95
1, 295247, Control_c, 0, 67, 8
1, 295251, Note_on_c, 0, 38, 86
1, 295262, Control_c, 0, 67, 8
1, 295267, Note_off_c, 0, 62, 64
1, 295269, Note_off_c, 0, 50, 65
1, 295274, Note_off_c, 0, 74, 64
1, 295277, Control_c, 0, 67, 0
1, 295279, Note_off_c, 0, 38, 65
1, 295430, Note_on_c, 0, 51, 105
1, 295430, Note_on_c, 0, 63, 107
1, 295432, Note_on_c, 0, 39, 97
1, 295433, Note_on_c, 0, 75, 104
1, 295441, Control_c, 0, 64, 99
1, 295456, Control_c, 0, 64, 127
1, 295470, Note_on_c, 0, 68, 16
1, 295475, Note_on_c, 0, 44, 36
1, 295504, Note_off_c, 0, 68, 54
1, 295516, Poly_aftertouch_c, 0, 49, 127
1, 295517, Note_off_c, 0, 44, 42
1, 295550, Poly_aftertouch_c, 0, 49, 0
1, 295586, Note_off_c, 0, 51, 44
1, 295606, Note_off_c, 0, 63, 56
1, 295679, Note_off_c, 0, 39, 60
1, 295690, Note_off_c, 0, 75, 55
1, 295723, Note_on_c, 0, 68, 52
1, 295746, Note_off_c, 0, 68, 64
1, 295767, Note_on_c, 0, 71, 24
1, 295770, Note_on_c, 0, 51, 41
1, 295790, Note_off_c, 0, 51, 59
1, 295802, Note_off_c, 0, 71, 42
1, 295858, Note_on_c, 0, 75, 60
1, 295885, Note_on_c, 0, 56, 50
1, 295899, Note_off_c, 0, 75, 65
1, 295904, Note_on_c, 0, 80, 74
1, 295946, Note_on_c, 0, 59, 78
1, 295946, Note_on_c, 0, 83, 73
1, 295950, Note_off_c, 0, 56, 61
1, 295968, Note_on_c, 0, 64, 79
1, 295968, Note_on_c, 0, 88, 96
1, 295973, Note_off_c, 0, 80, 67
1, 295986, Note_off_c, 0, 83, 64
1, 295990, Note_off_c, 0, 64, 71
1, 295993, Note_off_c, 0, 59, 65
1, 296005, Note_off_c, 0, 88, 64
1, 296151, Note_on_c, 0, 45, 88
1, 296156, Note_on_c, 0, 33, 84
1, 296170, Note_on_c, 0, 69, 92
1, 296171, Note_on_c, 0, 57, 85
1, 296174, Note_off_c, 0, 45, 68
1, 296175, Control_c, 0, 64, 92
1, 296186, Note_off_c, 0, 33, 65
1, 296190, Control_c, 0, 64, 68
1, 296192, Note_off_c, 0, 57, 70
1, 296194, Note_off_c, 0, 69, 62
1, 296205, Control_c, 0, 64, 0
1, 296293, Control_c, 0, 67, 8
1, 296308, Control_c, 0, 67, 0
1, 296326, Note_on_c, 0, 48, 97
1, 296330, Note_on_c, 0, 60, 101
1, 296331, Note_on_c, 0, 72, 95
1, 296333, Note_on_c, 0, 36, 87
1, 296350, Note_off_c, 0, 48, 67
1, 296353, Note_off_c, 0, 60, 63
1, 296357, Note_off_c, 0, 36, 66
1, 296363, Note_on_c, 0, 44, 35
1, 296364, Note_off_c, 0, 44, 127
1, 296373, Note_off_c, 0, 72, 61
1, 296382, Control_c, 0, 67, 8
1, 296394, Note_on_c, 0, 39, 3
1, 296412, Control_c, 0, 67, 0
1, 296429, Note_off_c, 0, 39, 28
1, 296516, Note_on_c, 0, 62, 108
1, 296518, Note_on_c, 0, 50, 113
1, 296519, Note_on_c, 0, 74, 107
1, 296521, Note_on_c, 0, 38, 93
1, 296531, Control_c, 0, 64, 127
1, 296534, Note_on_c, 0, 69, 68
1, 296552, Note_off_c, 0, 69, 65
1, 296598, Poly_aftertouch_c, 0, 66, 127
1, 296603, Note_off_c, 0, 62, 64
1, 296620, Poly_aftertouch_c, 0, 41, 127
1, 296623, Note_off_c, 0, 50, 53
1, 296636, Poly_aftertouch_c, 0, 66, 0
1, 296655, Note_off_c, 0, 38, 55
1, 296663, Poly_aftertouch_c, 0, 41, 0
1, 296678, Note_on_c, 0, 65, 53
1, 296688, Note_on_c, 0, 69, 55
1, 296693, Note_on_c, 0, 41, 14
1, 296701, Note_off_c, 0, 65, 61
1, 296716, Note_off_c, 0, 69, 69
1, 296720, Note_off_c, 0, 74, 55
1, 296733, Note_off_c, 0, 41, 54
1, 296782, Note_on_c, 0, 74, 68
1, 296829, Note_on_c, 0, 77, 83
1, 296833, Note_off_c, 0, 74, 66
1, 296838, Poly_aftertouch_c, 0, 50, 0
1, 296851, Note_on_c, 0, 81, 86
1, 296858, Note_on_c, 0, 53, 39
1, 296859, Note_on_c, 0, 57, 59
1, 296869, Note_on_c, 0, 86, 93
1, 296878, Note_off_c, 0, 77, 63
1, 296885, Note_off_c, 0, 57, 65
1, 296886, Note_off_c, 0, 81, 64
1, 296888, Note_off_c, 0, 53, 56
1, 296890, Note_on_c, 0, 62, 55
1, 296907, Note_off_c, 0, 86, 60
1, 296911, Note_off_c, 0, 62, 62
1, 297057, Control_c, 0, 64, 115
1, 297072, Control_c, 0, 64, 87
1, 297087, Control_c, 0, 64, 63
1, 297101, Note_on_c, 0, 52, 106
1, 297101, Control_c, 0, 64, 0
1, 297102, Note_on_c, 0, 64, 115
1, 297105, Note_on_c, 0, 76, 102
1, 297106, Note_on_c, 0, 40, 95
1, 297116, Control_c, 0, 67, 8
1, 297131, Control_c, 0, 67, 0
1, 297134, Note_on_c, 0, 41, 52
1, 297139, Note_on_c, 0, 68, 42
1, 297142, Note_on_c, 0, 47, 36
1, 297156, Note_on_c, 0, 71, 8
1, 297161, Control_c, 0, 64, 57
1, 297169, Note_off_c, 0, 68, 35
1, 297173, Note_off_c, 0, 41, 48
1, 297175, Control_c, 0, 64, 69
1, 297187, Note_off_c, 0, 47, 30
1, 297190, Control_c, 0, 64, 80
1, 297204, Note_off_c, 0, 71, 28
1, 297205, Control_c, 0, 64, 93
1, 297219, Control_c, 0, 64, 100
1, 297223, Note_off_c, 0, 64, 54
1, 297234, Note_off_c, 0, 52, 54
1, 297234, Control_c, 0, 64, 107
1, 297247, Note_on_c, 0, 68, 68
1, 297248, Control_c, 0, 64, 118
1, 297263, Note_on_c, 0, 44, 50
1, 297263, Control_c, 0, 64, 127
1, 297278, Note_off_c, 0, 40, 58
1, 297291, Note_on_c, 0, 47, 45
1, 297291, Note_on_c, 0, 71, 64
1, 297307, Note_off_c, 0, 68, 64
1, 297313, Note_off_c, 0, 76, 48
1, 297319, Note_off_c, 0, 71, 66
1, 297321, Note_on_c, 0, 52, 54
1, 297321, Note_off_c, 0, 44, 63
1, 297324, Note_off_c, 0, 47, 54
1, 297345, Note_off_c, 0, 52, 66
1, 297395, Note_on_c, 0, 76, 76
1, 297438, Note_on_c, 0, 80, 85
1, 297459, Note_on_c, 0, 83, 76
1, 297461, Note_off_c, 0, 76, 61
1, 297468, Note_on_c, 0, 88, 89
1, 297469, Note_on_c, 0, 59, 58
1, 297476, Note_on_c, 0, 56, 31
1, 297478, Control_c, 0, 67, 8
1, 297480, Note_on_c, 0, 64, 57
1, 297480, Note_off_c, 0, 83, 66
1, 297488, Note_off_c, 0, 80, 66
1, 297491, Note_off_c, 0, 88, 65
1, 297491, Note_off_c, 0, 59, 64
1, 297493, Control_c, 0, 67, 8
1, 297497, Note_off_c, 0, 64, 65
1, 297507, Control_c, 0, 67, 9
1, 297515, Note_off_c, 0, 56, 40
1, 297522, Control_c, 0, 67, 9
1, 297537, Control_c, 0, 67, 9
1, 297552, Control_c, 0, 67, 8
1, 297566, Control_c, 0, 67, 8
1, 297581, Control_c, 0, 67, 0
1, 297715, Control_c, 0, 64, 102
1, 297724, Note_on_c, 0, 45, 102
1, 297727, Note_on_c, 0, 57, 109
1, 297729, Note_on_c, 0, 33, 105
1, 297730, Note_on_c, 0, 69, 106
1, 297730, Control_c, 0, 64, 80
1, 297745, Control_c, 0, 64, 40
1, 297760, Control_c, 0, 64, 0
1, 297762, Note_on_c, 0, 40, 43
1, 297775, Control_c, 0, 67, 8
1, 297777, Note_on_c, 0, 37, 12
1, 297778, Note_off_c, 0, 37, 127
1, 297778, Note_on_c, 0, 66, 24
1, 297779, Note_off_c, 0, 66, 127
1, 297789, Note_off_c, 0, 40, 59
1, 297789, Control_c, 0, 67, 8
1, 297804, Control_c, 0, 64, 63
1, 297819, Control_c, 0, 64, 74
1, 297834, Control_c, 0, 64, 84
1, 297849, Control_c, 0, 64, 92
1, 297852, Note_off_c, 0, 45, 49
1, 297864, Control_c, 0, 64, 96
1, 297867, Note_off_c, 0, 57, 55
1, 297879, Control_c, 0, 64, 101
1, 297894, Control_c, 0, 64, 107
1, 297894, Control_c, 0, 67, 8
1, 297909, Control_c, 0, 64, 114
1, 297915, Note_off_c, 0, 33, 55
1, 297923, Note_on_c, 0, 40, 35
1, 297923, Control_c, 0, 64, 121
1, 297926, Note_on_c, 0, 60, 56
1, 297928, Note_off_c, 0, 69, 0
1, 297938, Control_c, 0, 64, 127
1, 297947, Note_off_c, 0, 60, 59
1, 297958, Note_on_c, 0, 64, 43
1, 297959, Note_off_c, 0, 40, 59
1, 297974, Poly_aftertouch_c, 0, 69, 0
1, 297980, Note_on_c, 0, 45, 60
1, 297982, Note_off_c, 0, 64, 57
1, 297983, Control_c, 0, 67, 8
1, 298007, Note_off_c, 0, 45, 68
1, 298047, Note_on_c, 0, 69, 62
1, 298074, Note_off_c, 0, 69, 69
1, 298094, Note_on_c, 0, 48, 50
1, 298099, Note_on_c, 0, 72, 71
1, 298140, Note_off_c, 0, 72, 64
1, 298144, Note_on_c, 0, 76, 66
1, 298149, Note_off_c, 0, 48, 56
1, 298168, Note_off_c, 0, 76, 71
1, 298204, Note_on_c, 0, 57, 44
1, 298220, Note_on_c, 0, 81, 84
1, 298225, Note_off_c, 0, 57, 60
1, 298227, Control_c, 0, 67, 8
1, 298271, Control_c, 0, 67, 0
1, 298277, Note_on_c, 0, 84, 74
1, 298281, Note_on_c, 0, 60, 55
1, 298285, Note_off_c, 0, 81, 55
1, 298302, Note_on_c, 0, 88, 83
1, 298314, Note_on_c, 0, 64, 69
1, 298318, Note_off_c, 0, 60, 64
1, 298319, Note_on_c, 0, 93, 103
1, 298321, Note_off_c, 0, 84, 65
1, 298337, Note_off_c, 0, 88, 63
1, 298346, Note_off_c, 0, 64, 65
1, 298347, Note_on_c, 0, 69, 66
1, 298353, Note_off_c, 0, 93, 63
1, 298366, Note_off_c, 0, 69, 64
1, 298389, Control_c, 0, 67, 8
1, 298523, Control_c, 0, 67, 8
1, 298541, Note_on_c, 0, 73, 99
1, 298543, Note_on_c, 0, 61, 96
1, 298544, Note_on_c, 0, 49, 97
1, 298545, Note_on_c, 0, 37, 90
1, 298562, Note_off_c, 0, 49, 72
1, 298569, Note_off_c, 0, 61, 63
1, 298572, Note_off_c, 0, 37, 70
1, 298582, Note_off_c, 0, 73, 62
1, 298598, Control_c, 0, 64, 110
1, 298598, Control_c, 0, 67, 8
1, 298613, Control_c, 0, 64, 93
1, 298627, Control_c, 0, 64, 70
1, 298642, Control_c, 0, 64, 0
1, 298642, Control_c, 0, 67, 0
1, 298650, Poly_aftertouch_c, 0, 74, 0
1, 298734, Note_on_c, 0, 52, 94
1, 298735, Note_on_c, 0, 64, 93
1, 298735, Note_on_c, 0, 76, 94
1, 298743, Note_on_c, 0, 40, 76
1, 298755, Note_off_c, 0, 64, 67
1, 298762, Note_off_c, 0, 52, 69
1, 298764, Note_off_c, 0, 40, 65
1, 298767, Note_off_c, 0, 76, 67
1, 298767, Note_on_c, 0, 42, 39
1, 298775, Note_on_c, 0, 65, 34
1, 298776, Note_off_c, 0, 65, 127
1, 298805, Note_off_c, 0, 42, 34
1, 298943, Note_on_c, 0, 68, 99
1, 298944, Note_on_c, 0, 56, 98
1, 298946, Note_on_c, 0, 80, 99
1, 298948, Note_on_c, 0, 44, 93
1, 298961, Control_c, 0, 64, 127
1, 299045, Note_off_c, 0, 56, 61
1, 299074, Note_off_c, 0, 68, 58
1, 299150, Note_off_c, 0, 44, 57
1, 299152, Note_on_c, 0, 73, 52
1, 299169, Note_on_c, 0, 49, 39
1, 299173, Note_off_c, 0, 80, 57
1, 299176, Note_off_c, 0, 73, 65
1, 299204, Note_off_c, 0, 49, 47
1, 299235, Note_on_c, 0, 76, 70
1, 299292, Note_off_c, 0, 76, 60
1, 299303, Note_on_c, 0, 80, 73
1, 299304, Note_on_c, 0, 56, 50
1, 299344, Note_off_c, 0, 56, 63
1, 299359, Note_on_c, 0, 85, 74
1, 299366, Note_off_c, 0, 80, 63
1, 299383, Note_on_c, 0, 64, 45
1, 299395, Note_off_c, 0, 85, 64
1, 299407, Control_c, 0, 67, 8
1, 299410, Note_off_c, 0, 64, 52
1, 299459, Note_on_c, 0, 88, 71
1, 299477, Note_on_c, 0, 68, 54
1, 299500, Note_on_c, 0, 92, 73
1, 299502, Note_on_c, 0, 97, 100
1, 299505, Note_off_c, 0, 68, 53
1, 299510, Control_c, 0, 67, 9
1, 299513, Note_on_c, 0, 73, 75
1, 299523, Note_off_c, 0, 88, 64
1, 299523, Note_off_c, 0, 92, 70
1, 299525, Control_c, 0, 67, 10
1, 299535, Note_off_c, 0, 73, 70
1, 299539, Note_off_c, 0, 97, 66
1, 299540, Control_c, 0, 67, 12
1, 299555, Control_c, 0, 67, 13
1, 299569, Control_c, 0, 67, 14
1, 299651, Control_c, 0, 67, 13
1, 299697, Note_on_c, 0, 45, 93
1, 299698, Note_on_c, 0, 57, 80
1, 299698, Note_on_c, 0, 81, 96
1, 299700, Note_on_c, 0, 69, 91
1, 299710, Control_c, 0, 67, 13
1, 299714, Note_off_c, 0, 57, 68
1, 299715, Note_off_c, 0, 81, 68
1, 299718, Note_off_c, 0, 45, 69
1, 299718, Note_off_c, 0, 69, 72
1, 299740, Control_c, 0, 67, 12
1, 299755, Control_c, 0, 64, 113
1, 299769, Control_c, 0, 64, 87
1, 299784, Control_c, 0, 64, 13
1, 299799, Control_c, 0, 64, 0
1, 299799, Control_c, 0, 67, 12
1, 299813, Control_c, 0, 67, 12
1, 299828, Control_c, 0, 67, 12
1, 299843, Control_c, 0, 67, 12
1, 299858, Control_c, 0, 67, 12
1, 299866, Note_on_c, 0, 52, 97
1, 299867, Note_on_c, 0, 64, 95
1, 299868, Note_on_c, 0, 76, 95
1, 299873, Note_on_c, 0, 40, 78
1, 299873, Control_c, 0, 67, 12
1, 299885, Note_off_c, 0, 52, 74
1, 299888, Note_off_c, 0, 76, 65
1, 299888, Control_c, 0, 67, 12
1, 299895, Note_off_c, 0, 64, 67
1, 299899, Note_off_c, 0, 40, 67
1, 299947, Control_c, 0, 67, 11
1, 299962, Control_c, 0, 67, 10
1, 299977, Control_c, 0, 67, 10
1, 299992, Control_c, 0, 67, 9
1, 300021, Control_c, 0, 67, 9
1, 300036, Control_c, 0, 67, 8
1, 300051, Control_c, 0, 67, 0
1, 300061, Note_on_c, 0, 61, 105
1, 300062, Note_on_c, 0, 73, 100
1, 300063, Note_on_c, 0, 49, 99
1, 300067, Note_on_c, 0, 37, 93
1, 300081, Control_c, 0, 64, 127
1, 300094, Note_on_c, 0, 69, 37
1, 300126, Note_off_c, 0, 69, 48
1, 300156, Note_off_c, 0, 61, 56
1, 300163, Note_off_c, 0, 49, 58
1, 300168, Poly_aftertouch_c, 0, 66, 0
1, 300257, Note_on_c, 0, 66, 53
1, 300260, Note_off_c, 0, 37, 59
1, 300260, Note_off_c, 0, 73, 53
1, 300272, Note_on_c, 0, 42, 49
1, 300277, Note_off_c, 0, 66, 66
1, 300307, Note_off_c, 0, 42, 63
1, 300341, Note_on_c, 0, 69, 68
1, 300406, Note_off_c, 0, 69, 60
1, 300415, Note_on_c, 0, 73, 70
1, 300429, Note_on_c, 0, 49, 44
1, 300454, Note_off_c, 0, 49, 61
1, 300478, Note_off_c, 0, 73, 64
1, 300484, Note_on_c, 0, 54, 25
1, 300499, Note_on_c, 0, 78, 25
1, 300502, Note_on_c, 0, 79, 49
1, 300509, Note_on_c, 0, 57, 48
1, 300517, Note_off_c, 0, 54, 44
1, 300526, Note_off_c, 0, 79, 53
1, 300534, Note_off_c, 0, 57, 56
1, 300535, Note_off_c, 0, 78, 38
1, 300567, Note_on_c, 0, 81, 75
1, 300608, Note_on_c, 0, 61, 40
1, 300626, Note_on_c, 0, 86, 70
1, 300626, Note_on_c, 0, 90, 78
1, 300627, Note_on_c, 0, 66, 80
1, 300633, Note_on_c, 0, 91, 73
1, 300639, Note_off_c, 0, 61, 55
1, 300643, Note_off_c, 0, 81, 63
1, 300643, Note_off_c, 0, 90, 60
1, 300646, Note_off_c, 0, 66, 70
1, 300646, Note_off_c, 0, 86, 65
1, 300648, Note_off_c, 0, 91, 65
1, 300802, Note_on_c, 0, 50, 96
1, 300804, Note_on_c, 0, 74, 98
1, 300806, Note_on_c, 0, 62, 99
1, 300806, Note_on_c, 0, 38, 92
1, 300815, Control_c, 0, 64, 92
1, 300821, Note_off_c, 0, 50, 72
1, 300827, Note_off_c, 0, 62, 67
1, 300830, Note_off_c, 0, 38, 66
1, 300830, Control_c, 0, 64, 66
1, 300835, Note_off_c, 0, 74, 71
1, 300844, Control_c, 0, 64, 0
1, 300972, Note_on_c, 0, 66, 100
1, 300973, Note_on_c, 0, 78, 97
1, 300976, Note_on_c, 0, 54, 97
1, 300977, Note_on_c, 0, 42, 87
1, 300994, Note_off_c, 0, 54, 70
1, 300997, Note_off_c, 0, 66, 66
1, 301003, Note_on_c, 0, 44, 41
1, 301003, Note_on_c, 0, 46, 45
1, 301006, Note_off_c, 0, 42, 66
1, 301039, Note_off_c, 0, 46, 32
1, 301040, Note_off_c, 0, 78, 53
1, 301041, Note_off_c, 0, 44, 46
1, 301173, Note_on_c, 0, 66, 114
1, 301174, Note_on_c, 0, 78, 109
1, 301175, Note_on_c, 0, 54, 101
1, 301178, Note_on_c, 0, 42, 96
1, 301178, Control_c, 0, 64, 78
1, 301193, Control_c, 0, 64, 127
1, 301196, Note_on_c, 0, 74, 39
1, 301197, Note_on_c, 0, 46, 47
1, 301223, Note_off_c, 0, 74, 52
1, 301226, Note_off_c, 0, 46, 39
1, 301254, Note_off_c, 0, 54, 60
1, 301261, Note_off_c, 0, 66, 62
1, 301346, Note_on_c, 0, 71, 42
1, 301367, Note_off_c, 0, 78, 48
1, 301368, Note_off_c, 0, 71, 60
1, 301375, Note_off_c, 0, 42, 58
1, 301392, Note_on_c, 0, 47, 18
1, 301428, Note_on_c, 0, 74, 66
1, 301435, Note_on_c, 0, 50, 25
1, 301442, Note_off_c, 0, 47, 52
1, 301475, Note_off_c, 0, 50, 41
1, 301489, Note_off_c, 0, 74, 61
1, 301493, Note_on_c, 0, 78, 71
1, 301503, Note_on_c, 0, 54, 63
1, 301544, Note_on_c, 0, 83, 71
1, 301551, Note_off_c, 0, 78, 64
1, 301563, Note_off_c, 0, 54, 62
1, 301587, Note_off_c, 0, 83, 63
1, 301599, Note_on_c, 0, 62, 61
1, 301620, Note_off_c, 0, 62, 62
1, 301641, Note_on_c, 0, 86, 74
1, 301679, Note_on_c, 0, 90, 89
1, 301696, Note_on_c, 0, 95, 92
1, 301697, Note_on_c, 0, 66, 56
1, 301706, Note_on_c, 0, 71, 71
1, 301712, Note_off_c, 0, 86, 62
1, 301714, Note_off_c, 0, 66, 67
1, 301723, Note_off_c, 0, 71, 62
1, 301724, Note_off_c, 0, 90, 64
1, 301727, Control_c, 0, 67, 8
1, 301734, Note_off_c, 0, 95, 64
1, 301742, Control_c, 0, 67, 9
1, 301757, Control_c, 0, 67, 9
1, 301787, Control_c, 0, 67, 9
1, 301802, Control_c, 0, 67, 8
1, 301817, Control_c, 0, 67, 8
1, 301868, Control_c, 0, 67, 8
1, 301887, Note_on_c, 0, 55, 86
1, 301888, Note_on_c, 0, 43, 91
1, 301888, Note_on_c, 0, 67, 95
1, 301890, Note_on_c, 0, 79, 94
1, 301906, Note_off_c, 0, 79, 73
1, 301909, Note_off_c, 0, 67, 67
1, 301909, Note_off_c, 0, 55, 71
1, 301911, Note_off_c, 0, 43, 65
1, 301912, Control_c, 0, 64, 110
1, 301927, Control_c, 0, 64, 84
1, 301927, Control_c, 0, 67, 8
1, 301942, Control_c, 0, 64, 35
1, 301942, Control_c, 0, 67, 0
1, 301957, Control_c, 0, 64, 0
1, 301986, Control_c, 0, 67, 8
1, 302001, Control_c, 0, 67, 8
1, 302031, Control_c, 0, 67, 9
1, 302046, Control_c, 0, 67, 8
1, 302056, Note_on_c, 0, 50, 92
1, 302056, Note_on_c, 0, 74, 97
1, 302058, Note_on_c, 0, 62, 97
1, 302061, Note_on_c, 0, 38, 90
1, 302076, Control_c, 0, 67, 8
1, 302076, Note_off_c, 0, 50, 72
1, 302083, Note_off_c, 0, 74, 68
1, 302083, Note_off_c, 0, 38, 66
1, 302083, Note_off_c, 0, 62, 66
1, 302150, Control_c, 0, 67, 0
1, 302249, Note_on_c, 0, 59, 104
1, 302251, Note_on_c, 0, 71, 103
1, 302253, Note_on_c, 0, 47, 102
1, 302261, Note_on_c, 0, 35, 94
1, 302268, Control_c, 0, 64, 83
1, 302283, Note_on_c, 0, 64, 36
1, 302283, Control_c, 0, 64, 127
1, 302303, Note_on_c, 0, 36, 26
1, 302303, Note_on_c, 0, 40, 20
1, 302308, Note_off_c, 0, 64, 57
1, 302334, Note_off_c, 0, 47, 56
1, 302335, Note_off_c, 0, 59, 54
1, 302349, Note_off_c, 0, 36, 45
1, 302349, Note_off_c, 0, 40, 41
1, 302434, Note_on_c, 0, 64, 55
1, 302452, Note_off_c, 0, 35, 58
1, 302473, Note_on_c, 0, 40, 45
1, 302481, Note_off_c, 0, 64, 63
1, 302487, Note_off_c, 0, 71, 47
1, 302505, Note_off_c, 0, 40, 57
1, 302532, Note_on_c, 0, 43, 44
1, 302549, Note_on_c, 0, 67, 65
1, 302569, Note_off_c, 0, 43, 50
1, 302580, Note_off_c, 0, 67, 64
1, 302617, Note_on_c, 0, 71, 71
1, 302618, Note_on_c, 0, 47, 62
1, 302651, Note_off_c, 0, 71, 61
1, 302661, Note_on_c, 0, 76, 69
1, 302680, Note_off_c, 0, 47, 62
1, 302690, Note_off_c, 0, 76, 66
1, 302696, Note_on_c, 0, 52, 39
1, 302726, Note_on_c, 0, 55, 64
1, 302728, Note_off_c, 0, 52, 48
1, 302741, Note_on_c, 0, 79, 84
1, 302755, Note_off_c, 0, 55, 67
1, 302788, Note_on_c, 0, 83, 87
1, 302801, Note_on_c, 0, 59, 70
1, 302801, Note_off_c, 0, 79, 62
1, 302807, Note_on_c, 0, 64, 90
1, 302807, Note_on_c, 0, 88, 92
1, 302822, Note_off_c, 0, 59, 70
1, 302826, Note_off_c, 0, 64, 73
1, 302830, Note_off_c, 0, 83, 64
1, 302845, Note_off_c, 0, 88, 63
1, 302973, Control_c, 0, 64, 116
1, 302985, Note_on_c, 0, 48, 99
1, 302987, Note_on_c, 0, 60, 98
1, 302987, Control_c, 0, 64, 85
1, 302988, Note_on_c, 0, 72, 103
1, 302991, Note_on_c, 0, 36, 95
1, 303002, Control_c, 0, 64, 0
1, 303003, Note_off_c, 0, 48, 76
1, 303006, Note_off_c, 0, 60, 68
1, 303015, Note_off_c, 0, 72, 67
1, 303015, Note_off_c, 0, 36, 64
1, 303021, Note_on_c, 0, 39, 32
1, 303022, Note_off_c, 0, 39, 127
1, 303025, Note_on_c, 0, 38, 30
1, 303026, Note_off_c, 0, 38, 127
1, 303167, Note_on_c, 0, 64, 102
1, 303168, Note_on_c, 0, 76, 105
1, 303170, Note_on_c, 0, 52, 96
1, 303176, Note_on_c, 0, 40, 94
1, 303191, Note_off_c, 0, 64, 68
1, 303193, Note_off_c, 0, 52, 69
1, 303201, Note_off_c, 0, 40, 66
1, 303202, Note_off_c, 0, 76, 64
1, 303376, Note_on_c, 0, 64, 110
1, 303378, Note_on_c, 0, 52, 105
1, 303380, Note_on_c, 0, 76, 103
1, 303381, Control_c, 0, 64, 70
1, 303385, Note_on_c, 0, 40, 98
1, 303396, Control_c, 0, 64, 127
1, 303405, Note_on_c, 0, 69, 50
1, 303417, Note_on_c, 0, 48, 25
1, 303428, Note_off_c, 0, 69, 59
1, 303456, Note_off_c, 0, 48, 51
1, 303465, Poly_aftertouch_c, 0, 74, 0
1, 303489, Poly_aftertouch_c, 0, 74, 0
1, 303501, Note_off_c, 0, 52, 53
1, 303522, Note_off_c, 0, 64, 52
1, 303574, Note_off_c, 0, 40, 52
1, 303665, Note_off_c, 0, 76, 45
1, 303674, Note_on_c, 0, 69, 44
1, 303696, Note_on_c, 0, 52, 51
1, 303698, Note_off_c, 0, 69, 62
1, 303729, Note_off_c, 0, 52, 68
1, 303786, Note_on_c, 0, 76, 66
1, 303791, Poly_aftertouch_c, 0, 72, 0
1, 303811, Note_on_c, 0, 57, 51
1, 303841, Note_on_c, 0, 81, 81
1, 303846, Note_off_c, 0, 76, 62
1, 303854, Note_off_c, 0, 57, 63
1, 303861, Note_on_c, 0, 60, 62
1, 303875, Note_on_c, 0, 84, 84
1, 303897, Note_off_c, 0, 81, 61
1, 303901, Note_on_c, 0, 89, 95
1, 303905, Note_on_c, 0, 65, 83
1, 303909, Note_off_c, 0, 84, 69
1, 303918, Note_off_c, 0, 60, 40
1, 303923, Note_off_c, 0, 89, 65
1, 303925, Note_off_c, 0, 65, 73
1, 303934, Note_on_c, 0, 87, 33
1, 303974, Note_off_c, 0, 87, 49
1, 304085, Note_on_c, 0, 46, 100
1, 304087, Note_on_c, 0, 34, 96
1, 304091, Note_on_c, 0, 58, 97
1, 304091, Note_on_c, 0, 70, 99
1, 304091, Control_c, 0, 64, 113
1, 304113, Note_off_c, 0, 46, 70
1, 304114, Control_c, 0, 64, 87
1, 304118, Note_off_c, 0, 58, 72
1, 304119, Note_off_c, 0, 70, 64
1, 304121, Note_off_c, 0, 34, 67
1, 304129, Control_c, 0, 64, 62
1, 304145, Control_c, 0, 64, 0
1, 304266, Note_on_c, 0, 50, 98
1, 304266, Note_on_c, 0, 62, 101
1, 304266, Note_on_c, 0, 74, 96
1, 304271, Note_on_c, 0, 38, 96
1, 304288, Note_off_c, 0, 50, 66
1, 304291, Note_off_c, 0, 62, 65
1, 304295, Note_off_c, 0, 38, 66
1, 304296, Note_off_c, 0, 74, 67
1, 304452, Note_on_c, 0, 63, 112
1, 304455, Note_on_c, 0, 51, 102
1, 304456, Note_on_c, 0, 75, 99
1, 304457, Note_on_c, 0, 39, 97
1, 304470, Control_c, 0, 64, 87
1, 304484, Control_c, 0, 64, 127
1, 304487, Note_on_c, 0, 44, 38
1, 304488, Note_on_c, 0, 47, 23
1, 304489, Note_on_c, 0, 68, 24
1, 304518, Note_off_c, 0, 68, 55
1, 304520, Note_off_c, 0, 44, 52
1, 304526, Note_off_c, 0, 47, 51
1, 304604, Note_off_c, 0, 51, 45
1, 304609, Note_off_c, 0, 63, 58
1, 304683, Note_off_c, 0, 75, 55
1, 304691, Note_off_c, 0, 39, 57
1, 304705, Note_on_c, 0, 68, 54
1, 304729, Note_off_c, 0, 68, 65
1, 304783, Note_on_c, 0, 51, 48
1, 304802, Note_off_c, 0, 51, 62
1, 304872, Note_on_c, 0, 75, 59
1, 304891, Note_off_c, 0, 75, 67
1, 304903, Note_on_c, 0, 56, 46
1, 304906, Note_on_c, 0, 80, 67
1, 304952, Note_on_c, 0, 83, 74
1, 304956, Note_on_c, 0, 59, 68
1, 304970, Note_on_c, 0, 88, 93
1, 304976, Note_on_c, 0, 64, 78
1, 304982, Note_off_c, 0, 56, 62
1, 304983, Note_off_c, 0, 80, 66
1, 304997, Note_off_c, 0, 83, 63
1, 304999, Note_off_c, 0, 64, 69
1, 305003, Note_off_c, 0, 59, 63
1, 305009, Note_off_c, 0, 88, 62
1, 305164, Note_on_c, 0, 45, 97
1, 305167, Note_on_c, 0, 69, 98
1, 305167, Note_on_c, 0, 57, 96
1, 305168, Note_on_c, 0, 33, 94
1, 305182, Note_off_c, 0, 45, 72
1, 305186, Note_off_c, 0, 57, 69
1, 305192, Note_off_c, 0, 33, 66
1, 305203, Note_off_c, 0, 69, 61
1, 305204, Control_c, 0, 64, 98
1, 305219, Control_c, 0, 64, 76
1, 305233, Control_c, 0, 64, 0
1, 305336, Note_on_c, 0, 48, 103
1, 305336, Note_on_c, 0, 60, 102
1, 305337, Note_on_c, 0, 72, 99
1, 305346, Note_on_c, 0, 36, 79
1, 305358, Note_off_c, 0, 60, 66
1, 305360, Note_on_c, 0, 38, 58
1, 305361, Note_off_c, 0, 48, 68
1, 305368, Note_off_c, 0, 36, 66
1, 305372, Note_on_c, 0, 68, 34
1, 305372, Note_off_c, 0, 72, 63
1, 305388, Note_off_c, 0, 38, 57
1, 305403, Note_off_c, 0, 68, 33
1, 305426, Poly_aftertouch_c, 0, 42, 0
1, 305464, Poly_aftertouch_c, 0, 42, 127
1, 305501, Poly_aftertouch_c, 0, 42, 0
1, 305558, Note_on_c, 0, 50, 115
1, 305558, Note_on_c, 0, 62, 108
1, 305561, Note_on_c, 0, 74, 101
1, 305564, Note_on_c, 0, 38, 96
1, 305574, Control_c, 0, 64, 74
1, 305584, Note_on_c, 0, 42, 58
1, 305589, Control_c, 0, 64, 127
1, 305593, Note_on_c, 0, 45, 39
1, 305595, Note_on_c, 0, 69, 38
1, 305627, Note_off_c, 0, 42, 48
1, 305631, Note_off_c, 0, 69, 55
1, 305635, Note_off_c, 0, 45, 52
1, 305665, Poly_aftertouch_c, 0, 40, 127
1, 305673, Poly_aftertouch_c, 0, 66, 0
1, 305686, Note_off_c, 0, 50, 50
1, 305693, Note_off_c, 0, 62, 50
1, 305740, Note_off_c, 0, 38, 53
1, 305747, Note_on_c, 0, 65, 54
1, 305763, Note_on_c, 0, 69, 58
1, 305766, Note_on_c, 0, 45, 33
1, 305769, Note_on_c, 0, 41, 34
1, 305769, Note_off_c, 0, 65, 62
1, 305791, Note_off_c, 0, 69, 70
1, 305793, Note_off_c, 0, 74, 55
1, 305797, Poly_aftertouch_c, 0, 40, 0
1, 305802, Note_off_c, 0, 45, 53
1, 305807, Note_off_c, 0, 41, 51
1, 305811, Note_on_c, 0, 50, 44
1, 305832, Note_off_c, 0, 50, 61
1, 305854, Note_on_c, 0, 74, 62
1, 305903, Note_on_c, 0, 77, 77
1, 305921, Note_on_c, 0, 81, 88
1, 305921, Note_off_c, 0, 74, 64
1, 305934, Note_on_c, 0, 86, 94
1, 305935, Note_on_c, 0, 57, 55
1, 305939, Note_on_c, 0, 62, 77
1, 305945, Note_off_c, 0, 77, 64
1, 305954, Note_off_c, 0, 81, 61
1, 305959, Note_off_c, 0, 57, 63
1, 305966, Note_off_c, 0, 62, 66
1, 305975, Note_off_c, 0, 86, 62
1, 306003, Poly_aftertouch_c, 0, 53, 0
1, 306101, Control_c, 0, 64, 118
1, 306116, Control_c, 0, 64, 90
1, 306130, Control_c, 0, 64, 70
1, 306145, Control_c, 0, 64, 0
1, 306155, Note_on_c, 0, 52, 106
1, 306155, Note_on_c, 0, 64, 111
1, 306160, Note_on_c, 0, 76, 96
1, 306163, Note_on_c, 0, 40, 103
1, 306179, Note_on_c, 0, 74, 69
1, 306185, Note_on_c, 0, 71, 50
1, 306189, Note_on_c, 0, 68, 38
1, 306192, Note_on_c, 0, 47, 43
1, 306198, Note_off_c, 0, 74, 43
1, 306204, Control_c, 0, 64, 61
1, 306208, Note_off_c, 0, 71, 55
1, 306219, Control_c, 0, 64, 68
1, 306220, Note_off_c, 0, 68, 35
1, 306232, Note_off_c, 0, 47, 32
1, 306234, Control_c, 0, 64, 76
1, 306249, Control_c, 0, 64, 84
1, 306264, Control_c, 0, 64, 88
1, 306266, Note_off_c, 0, 64, 50
1, 306275, Note_off_c, 0, 52, 56
1, 306278, Poly_aftertouch_c, 0, 41, 0
1, 306279, Control_c, 0, 64, 92
1, 306294, Control_c, 0, 64, 99
1, 306301, Note_on_c, 0, 68, 65
1, 306304, Note_on_c, 0, 44, 31
1, 306309, Control_c, 0, 64, 109
1, 306323, Control_c, 0, 64, 125
1, 306333, Note_off_c, 0, 40, 60
1, 306337, Note_on_c, 0, 71, 57
1, 306338, Control_c, 0, 64, 127
1, 306358, Note_off_c, 0, 68, 65
1, 306373, Note_off_c, 0, 71, 64
1, 306375, Note_off_c, 0, 76, 59
1, 306380, Note_off_c, 0, 44, 61
1, 306412, Note_on_c, 0, 52, 32
1, 306412, Poly_aftertouch_c, 0, 47, 127
1, 306431, Note_off_c, 0, 52, 64
1, 306439, Note_on_c, 0, 76, 74
1, 306441, Poly_aftertouch_c, 0, 47, 0
1, 306485, Note_on_c, 0, 80, 82
1, 306514, Note_on_c, 0, 83, 78
1, 306515, Note_off_c, 0, 76, 64
1, 306524, Note_on_c, 0, 88, 87
1, 306540, Note_off_c, 0, 83, 63
1, 306544, Note_off_c, 0, 80, 66
1, 306547, Note_on_c, 0, 64, 44
1, 306551, Note_on_c, 0, 59, 10
1, 306551, Note_off_c, 0, 88, 62
1, 306574, Note_off_c, 0, 64, 55
1, 306585, Poly_aftertouch_c, 0, 56, 0
1, 306592, Note_off_c, 0, 59, 53
1, 306761, Control_c, 0, 64, 108
1, 306775, Note_on_c, 0, 45, 104
1, 306775, Note_on_c, 0, 57, 107
1, 306776, Control_c, 0, 64, 82
1, 306777, Note_on_c, 0, 69, 107
1, 306782, Note_on_c, 0, 33, 106
1, 306791, Control_c, 0, 64, 59
1, 306805, Control_c, 0, 64, 0
1, 306814, Note_on_c, 0, 40, 39
1, 306823, Note_on_c, 0, 64, 17
1, 306827, Note_on_c, 0, 37, 8
1, 306828, Note_off_c, 0, 37, 127
1, 306841, Note_off_c, 0, 40, 56
1, 306863, Note_off_c, 0, 64, 31
1, 306865, Control_c, 0, 64, 63
1, 306879, Control_c, 0, 64, 72
1, 306894, Control_c, 0, 64, 82
1, 306905, Note_off_c, 0, 45, 47
1, 306909, Control_c, 0, 64, 90
1, 306910, Note_off_c, 0, 57, 46
1, 306924, Control_c, 0, 64, 94
1, 306939, Control_c, 0, 64, 99
1, 306953, Control_c, 0, 64, 107
1, 306966, Note_off_c, 0, 33, 55
1, 306968, Control_c, 0, 64, 115
1, 306971, Note_on_c, 0, 60, 62
1, 306983, Control_c, 0, 64, 124
1, 306998, Control_c, 0, 64, 127
1, 307000, Note_on_c, 0, 40, 13
1, 307002, Note_off_c, 0, 60, 65
1, 307009, Note_on_c, 0, 64, 56
1, 307028, Note_off_c, 0, 69, 25
1, 307035, Note_on_c, 0, 45, 48
1, 307038, Note_off_c, 0, 64, 67
1, 307042, Note_off_c, 0, 40, 55
1, 307060, Note_off_c, 0, 45, 68
1, 307133, Note_on_c, 0, 69, 55
1, 307154, Note_off_c, 0, 69, 68
1, 307164, Note_on_c, 0, 48, 48
1, 307177, Note_on_c, 0, 72, 72
1, 307197, Note_off_c, 0, 48, 53
1, 307207, Note_off_c, 0, 72, 62
1, 307214, Note_on_c, 0, 76, 67
1, 307242, Note_off_c, 0, 76, 67
1, 307278, Note_on_c, 0, 57, 22
1, 307311, Note_on_c, 0, 81, 71
1, 307315, Note_off_c, 0, 57, 43
1, 307361, Note_on_c, 0, 84, 80
1, 307361, Note_off_c, 0, 81, 62
1, 307377, Note_on_c, 0, 60, 34
1, 307400, Note_on_c, 0, 88, 84
1, 307422, Note_off_c, 0, 60, 60
1, 307428, Note_on_c, 0, 93, 105
1, 307429, Note_off_c, 0, 84, 63
1, 307437, Note_on_c, 0, 69, 80
1, 307441, Note_off_c, 0, 88, 66
1, 307458, Note_off_c, 0, 69, 70
1, 307462, Note_off_c, 0, 93, 68
1, 307490, Poly_aftertouch_c, 0, 64, 0
1, 308318, Control_c, 0, 64, 125
1, 308333, Control_c, 0, 64, 104
1, 308348, Control_c, 0, 64, 90
1, 308363, Control_c, 0, 64, 77
1, 308377, Control_c, 0, 64, 63
1, 308392, Control_c, 0, 64, 0
1, 308422, Control_c, 0, 67, 10
1, 308437, Control_c, 0, 67, 16
1, 308452, Control_c, 0, 67, 23
1, 308467, Control_c, 0, 67, 30
1, 308482, Control_c, 0, 67, 36
1, 308497, Control_c, 0, 67, 42
1, 308512, Control_c, 0, 67, 48
1, 308526, Control_c, 0, 67, 52
1, 308541, Control_c, 0, 67, 58
1, 308556, Control_c, 0, 67, 61
1, 308570, Control_c, 0, 67, 65
1, 308585, Control_c, 0, 67, 70
1, 308607, Control_c, 0, 67, 74
1, 308622, Control_c, 0, 67, 79
1, 308637, Control_c, 0, 67, 84
1, 308652, Control_c, 0, 67, 91
1, 308667, Control_c, 0, 67, 97
1, 308682, Control_c, 0, 67, 104
1, 308696, Control_c, 0, 67, 111
1, 308711, Control_c, 0, 67, 118
1, 308726, Control_c, 0, 67, 125
1, 308741, Control_c, 0, 67, 127
1, 308864, Note_on_c, 0, 96, 44
1, 308872, Note_on_c, 0, 33, 38
1, 308877, Note_on_c, 0, 84, 37
1, 308887, Note_off_c, 0, 96, 49
1, 308909, Note_off_c, 0, 33, 53
1, 308912, Note_off_c, 0, 84, 53
1, 308950, Poly_aftertouch_c, 0, 45, 0
1, 309002, Note_on_c, 0, 47, 51
1, 309006, Note_on_c, 0, 83, 51
1, 309030, Note_off_c, 0, 83, 56
1, 309030, Note_off_c, 0, 47, 62
1, 309123, Note_on_c, 0, 36, 45
1, 309123, Note_on_c, 0, 81, 64
1, 309125, Note_on_c, 0, 93, 49
1, 309126, Note_on_c, 0, 48, 48
1, 309148, Note_off_c, 0, 93, 39
1, 309153, Note_off_c, 0, 81, 61
1, 309154, Note_off_c, 0, 48, 55
1, 309157, Note_off_c, 0, 36, 54
1, 309242, Note_on_c, 0, 76, 62
1, 309267, Note_off_c, 0, 76, 65
1, 309370, Note_on_c, 0, 57, 56
1, 309374, Note_on_c, 0, 45, 42
1, 309375, Note_on_c, 0, 84, 43
1, 309377, Note_on_c, 0, 72, 61
1, 309401, Note_off_c, 0, 84, 35
1, 309402, Note_off_c, 0, 57, 63
1, 309409, Note_off_c, 0, 45, 33
1, 309409, Note_off_c, 0, 72, 65
1, 309493, Note_on_c, 0, 71, 58
1, 309510, Note_on_c, 0, 59, 33
1, 309517, Note_off_c, 0, 71, 61
1, 309541, Note_off_c, 0, 59, 45
1, 309612, Note_on_c, 0, 69, 59
1, 309617, Note_on_c, 0, 81, 39
1, 309618, Note_on_c, 0, 60, 56
1, 309635, Note_off_c, 0, 69, 64
1, 309638, Note_off_c, 0, 60, 58
1, 309646, Note_off_c, 0, 81, 37
1, 309739, Note_on_c, 0, 63, 60
1, 309749, Note_on_c, 0, 66, 21
1, 309756, Note_off_c, 0, 66, 40
1, 309764, Note_off_c, 0, 63, 64
1, 309857, Note_on_c, 0, 80, 71
1, 309860, Note_on_c, 0, 68, 68
1, 309863, Note_on_c, 0, 64, 62
1, 309875, Note_on_c, 0, 52, 57
1, 309889, Note_off_c, 0, 68, 67
1, 309901, Note_off_c, 0, 80, 49
1, 309902, Note_off_c, 0, 64, 60
1, 309939, Note_off_c, 0, 52, 42
1, 309980, Note_on_c, 0, 59, 37
1, 309980, Note_on_c, 0, 71, 56
1, 309999, Note_off_c, 0, 71, 61
1, 310010, Note_off_c, 0, 59, 52
1, 310110, Note_on_c, 0, 88, 81
1, 310118, Note_on_c, 0, 44, 65
1, 310118, Note_on_c, 0, 56, 69
1, 310121, Note_on_c, 0, 76, 68
1, 310142, Note_off_c, 0, 44, 58
1, 310145, Note_off_c, 0, 88, 57
1, 310146, Note_off_c, 0, 56, 65
1, 310148, Note_off_c, 0, 76, 58
1, 310238, Note_on_c, 0, 78, 65
1, 310240, Note_on_c, 0, 54, 52
1, 310258, Note_off_c, 0, 78, 65
1, 310263, Note_off_c, 0, 54, 56
1, 310351, Note_on_c, 0, 92, 83
1, 310360, Note_on_c, 0, 40, 65
1, 310360, Note_on_c, 0, 80, 69
1, 310361, Note_on_c, 0, 52, 57
1, 310384, Note_off_c, 0, 80, 69
1, 310384, Note_off_c, 0, 52, 61
1, 310416, Note_off_c, 0, 92, 54
1, 310446, Note_on_c, 0, 47, 57
1, 310465, Note_off_c, 0, 40, 60
1, 310467, Note_on_c, 0, 83, 54
1, 310471, Note_off_c, 0, 47, 59
1, 310485, Note_off_c, 0, 83, 60
1, 310577, Note_on_c, 0, 40, 88
1, 310581, Note_on_c, 0, 28, 78
1, 310581, Note_on_c, 0, 100, 94
1, 310588, Note_on_c, 0, 88, 81
1, 310598, Note_off_c, 0, 40, 67
1, 310604, Note_off_c, 0, 28, 60
1, 310607, Note_on_c, 0, 98, 59
1, 310607, Note_off_c, 0, 100, 56
1, 310619, Note_off_c, 0, 88, 59
1, 310625, Note_off_c, 0, 98, 65
1, 310712, Note_on_c, 0, 86, 68
1, 310738, Note_off_c, 0, 86, 66
1, 310834, Note_on_c, 0, 45, 75
1, 310839, Note_on_c, 0, 33, 71
1, 310839, Note_on_c, 0, 96, 72
1, 310852, Note_on_c, 0, 84, 72
1, 310862, Note_off_c, 0, 96, 67
1, 310870, Note_off_c, 0, 33, 64
1, 310871, Note_off_c, 0, 45, 66
1, 310886, Note_off_c, 0, 84, 57
1, 310972, Note_on_c, 0, 83, 61
1, 310977, Note_on_c, 0, 47, 51
1, 311001, Note_off_c, 0, 83, 63
1, 311006, Note_off_c, 0, 47, 56
1, 311085, Note_on_c, 0, 48, 71
1, 311093, Note_on_c, 0, 36, 55
1, 311097, Note_on_c, 0, 81, 71
1, 311113, Note_off_c, 0, 48, 67
1, 311123, Note_off_c, 0, 36, 58
1, 311132, Note_off_c, 0, 81, 56
1, 311215, Note_on_c, 0, 52, 63
1, 311222, Note_on_c, 0, 76, 57
1, 311245, Note_off_c, 0, 76, 64
1, 311248, Note_off_c, 0, 52, 64
1, 311334, Note_on_c, 0, 57, 68
1, 311343, Note_on_c, 0, 45, 52
1, 311348, Note_on_c, 0, 72, 66
1, 311352, Note_on_c, 0, 84, 44
1, 311364, Note_off_c, 0, 57, 62
1, 311373, Note_off_c, 0, 45, 58
1, 311376, Note_off_c, 0, 84, 36
1, 311385, Note_off_c, 0, 72, 60
1, 311461, Note_on_c, 0, 59, 56
1, 311469, Note_on_c, 0, 71, 58
1, 311481, Note_off_c, 0, 59, 61
1, 311494, Note_off_c, 0, 71, 62
1, 311579, Note_on_c, 0, 81, 68
1, 311582, Note_on_c, 0, 48, 71
1, 311584, Note_on_c, 0, 60, 66
1, 311585, Note_on_c, 0, 69, 63
1, 311602, Note_off_c, 0, 81, 63
1, 311611, Note_off_c, 0, 48, 63
1, 311619, Note_off_c, 0, 60, 67
1, 311627, Note_off_c, 0, 69, 63
1, 311710, Note_on_c, 0, 66, 63
1, 311722, Note_on_c, 0, 63, 63
1, 311734, Note_off_c, 0, 66, 68
1, 311747, Note_off_c, 0, 63, 66
1, 311830, Note_on_c, 0, 64, 68
1, 311831, Note_on_c, 0, 80, 75
1, 311835, Note_on_c, 0, 68, 71
1, 311846, Note_on_c, 0, 52, 55
1, 311862, Note_off_c, 0, 68, 68
1, 311871, Note_off_c, 0, 64, 55
1, 311875, Note_off_c, 0, 80, 48
1, 311877, Note_off_c, 0, 52, 51
1, 311935, Note_on_c, 0, 59, 59
1, 311946, Note_on_c, 0, 71, 56
1, 311955, Note_off_c, 0, 59, 59
1, 311966, Note_off_c, 0, 71, 59
1, 312068, Note_on_c, 0, 88, 79
1, 312077, Note_on_c, 0, 44, 57
1, 312081, Note_on_c, 0, 76, 60
1, 312083, Note_on_c, 0, 56, 51
1, 312095, Note_off_c, 0, 88, 59
1, 312103, Note_off_c, 0, 44, 58
1, 312105, Note_off_c, 0, 76, 55
1, 312107, Note_off_c, 0, 56, 55
1, 312189, Note_on_c, 0, 78, 64
1, 312206, Note_on_c, 0, 53, 27
1, 312207, Note_off_c, 0, 53, 48
1, 312207, Note_off_c, 0, 78, 65
1, 312303, Note_on_c, 0, 92, 74
1, 312309, Note_on_c, 0, 52, 56
1, 312318, Note_on_c, 0, 80, 57
1, 312329, Note_on_c, 0, 40, 38
1, 312335, Note_off_c, 0, 92, 57
1, 312346, Note_off_c, 0, 80, 62
1, 312363, Note_off_c, 0, 52, 62
1, 312397, Note_on_c, 0, 47, 57
1, 312420, Note_on_c, 0, 83, 62
1, 312423, Note_off_c, 0, 47, 61
1, 312429, Note_off_c, 0, 40, 52
1, 312438, Note_off_c, 0, 83, 64
1, 312539, Note_on_c, 0, 40, 67
1, 312544, Note_on_c, 0, 28, 81
1, 312548, Note_on_c, 0, 100, 86
1, 312555, Note_on_c, 0, 88, 66
1, 312566, Note_off_c, 0, 28, 65
1, 312569, Note_off_c, 0, 40, 65
1, 312587, Note_off_c, 0, 100, 63
1, 312589, Note_off_c, 0, 88, 61
1, 312819, Note_on_c, 0, 45, 95
1, 312821, Note_on_c, 0, 96, 73
1, 312824, Note_on_c, 0, 33, 84
1, 312831, Note_on_c, 0, 84, 63
1, 312846, Note_off_c, 0, 96, 62
1, 312847, Note_off_c, 0, 45, 67
1, 312854, Note_off_c, 0, 33, 65
1, 312878, Note_off_c, 0, 84, 62
1, 312950, Note_on_c, 0, 47, 60
1, 312952, Note_on_c, 0, 83, 64
1, 312976, Note_off_c, 0, 47, 59
1, 312980, Note_off_c, 0, 83, 65
1, 313057, Note_on_c, 0, 48, 73
1, 313063, Note_on_c, 0, 93, 67
1, 313064, Note_on_c, 0, 36, 58
1, 313067, Note_on_c, 0, 81, 71
1, 313079, Note_off_c, 0, 93, 61
1, 313083, Note_off_c, 0, 48, 67
1, 313100, Note_off_c, 0, 36, 58
1, 313108, Note_off_c, 0, 81, 58
1, 313192, Note_on_c, 0, 76, 69
1, 313195, Note_on_c, 0, 52, 64
1, 313221, Note_off_c, 0, 76, 64
1, 313225, Note_off_c, 0, 52, 67
1, 313304, Note_on_c, 0, 57, 71
1, 313312, Note_on_c, 0, 45, 53
1, 313316, Note_on_c, 0, 84, 58
1, 313320, Note_on_c, 0, 72, 64
1, 313333, Note_off_c, 0, 57, 65
1, 313334, Note_off_c, 0, 84, 64
1, 313338, Note_off_c, 0, 45, 59
1, 313353, Note_off_c, 0, 72, 64
1, 313425, Note_on_c, 0, 59, 63
1, 313430, Note_on_c, 0, 71, 63
1, 313445, Note_off_c, 0, 59, 63
1, 313459, Note_off_c, 0, 71, 66
1, 313545, Note_on_c, 0, 69, 64
1, 313545, Note_on_c, 0, 81, 53
1, 313549, Note_on_c, 0, 60, 60
1, 313562, Note_on_c, 0, 48, 36
1, 313563, Note_off_c, 0, 48, 127
1, 313568, Note_off_c, 0, 60, 64
1, 313568, Note_off_c, 0, 81, 39
1, 313576, Note_off_c, 0, 69, 66
1, 313658, Note_on_c, 0, 66, 65
1, 313667, Note_on_c, 0, 63, 74
1, 313684, Note_off_c, 0, 66, 68
1, 313701, Note_off_c, 0, 63, 62
1, 313777, Note_on_c, 0, 80, 80
1, 313785, Note_on_c, 0, 64, 71
1, 313785, Note_on_c, 0, 68, 65
1, 313798, Note_on_c, 0, 52, 56
1, 313809, Note_off_c, 0, 68, 66
1, 313813, Note_off_c, 0, 80, 47
1, 313824, Note_off_c, 0, 64, 56
1, 313833, Note_off_c, 0, 52, 49
1, 313886, Note_on_c, 0, 59, 60
1, 313906, Note_off_c, 0, 59, 62
1, 313907, Note_on_c, 0, 71, 62
1, 313925, Note_off_c, 0, 71, 60
1, 314024, Note_on_c, 0, 88, 81
1, 314026, Note_on_c, 0, 44, 67
1, 314028, Note_on_c, 0, 56, 65
1, 314032, Note_on_c, 0, 76, 63
1, 314049, Note_off_c, 0, 56, 64
1, 314055, Note_off_c, 0, 88, 57
1, 314058, Note_off_c, 0, 76, 54
1, 314059, Note_off_c, 0, 44, 65
1, 314132, Note_on_c, 0, 54, 64
1, 314147, Note_on_c, 0, 78, 66
1, 314158, Note_off_c, 0, 54, 65
1, 314164, Note_off_c, 0, 78, 66
1, 314255, Note_on_c, 0, 52, 73
1, 314256, Note_on_c, 0, 92, 80
1, 314263, Note_on_c, 0, 40, 67
1, 314265, Note_on_c, 0, 80, 66
1, 314283, Note_off_c, 0, 80, 67
1, 314290, Note_off_c, 0, 52, 61
1, 314306, Note_off_c, 0, 92, 40
1, 314352, Note_on_c, 0, 47, 37
1, 314354, Note_off_c, 0, 40, 62
1, 314362, Note_on_c, 0, 83, 57
1, 314380, Note_off_c, 0, 83, 63
1, 314393, Note_off_c, 0, 47, 30
1, 314470, Note_on_c, 0, 28, 89
1, 314471, Note_on_c, 0, 40, 83
1, 314472, Note_on_c, 0, 100, 92
1, 314485, Note_on_c, 0, 88, 72
1, 314494, Note_off_c, 0, 28, 65
1, 314497, Note_off_c, 0, 40, 67
1, 314506, Note_off_c, 0, 100, 63
1, 314523, Note_off_c, 0, 88, 58
1, 314611, Note_on_c, 0, 86, 72
1, 314615, Note_on_c, 0, 44, 64
1, 314645, Note_off_c, 0, 44, 65
1, 314647, Note_off_c, 0, 86, 61
1, 314726, Note_on_c, 0, 33, 72
1, 314729, Note_on_c, 0, 45, 72
1, 314730, Note_on_c, 0, 96, 73
1, 314737, Note_on_c, 0, 84, 72
1, 314750, Note_off_c, 0, 96, 71
1, 314756, Note_off_c, 0, 33, 66
1, 314763, Note_off_c, 0, 45, 66
1, 314779, Note_off_c, 0, 84, 63
1, 314851, Note_on_c, 0, 83, 71
1, 314853, Note_on_c, 0, 47, 62
1, 314877, Note_off_c, 0, 47, 61
1, 314877, Note_off_c, 0, 83, 63
1, 314966, Note_on_c, 0, 48, 70
1, 314966, Note_on_c, 0, 81, 75
1, 314969, Note_on_c, 0, 93, 60
1, 314987, Note_off_c, 0, 93, 59
1, 314992, Note_off_c, 0, 48, 68
1, 315001, Note_off_c, 0, 81, 56
1, 315081, Note_on_c, 0, 76, 72
1, 315090, Note_on_c, 0, 52, 69
1, 315108, Note_off_c, 0, 76, 66
1, 315120, Note_off_c, 0, 52, 67
1, 315200, Note_on_c, 0, 57, 69
1, 315200, Note_on_c, 0, 72, 74
1, 315204, Note_on_c, 0, 84, 61
1, 315214, Note_on_c, 0, 45, 39
1, 315215, Note_off_c, 0, 45, 127
1, 315222, Note_off_c, 0, 84, 63
1, 315228, Note_off_c, 0, 57, 64
1, 315240, Note_off_c, 0, 72, 65
1, 315314, Note_on_c, 0, 59, 61
1, 315314, Note_on_c, 0, 71, 69
1, 315333, Note_off_c, 0, 59, 62
1, 315350, Note_off_c, 0, 71, 62
1, 315435, Note_on_c, 0, 81, 60
1, 315439, Note_on_c, 0, 69, 61
1, 315439, Note_on_c, 0, 60, 66
1, 315445, Note_on_c, 0, 48, 53
1, 315448, Note_off_c, 0, 48, 49
1, 315454, Note_off_c, 0, 81, 40
1, 315468, Note_off_c, 0, 60, 66
1, 315470, Note_off_c, 0, 69, 66
1, 315550, Note_on_c, 0, 66, 67
1, 315563, Note_on_c, 0, 63, 60
1, 315578, Note_off_c, 0, 66, 67
1, 315590, Note_off_c, 0, 63, 52
1, 315667, Note_on_c, 0, 80, 78
1, 315668, Note_on_c, 0, 64, 70
1, 315669, Note_on_c, 0, 68, 69
1, 315695, Note_off_c, 0, 68, 69
1, 315712, Note_off_c, 0, 80, 62
1, 315716, Note_off_c, 0, 64, 57
1, 315732, Note_on_c, 0, 52, 3
1, 315734, Note_off_c, 0, 52, 37
1, 315766, Note_on_c, 0, 59, 65
1, 315773, Note_on_c, 0, 71, 63
1, 315785, Note_off_c, 0, 59, 64
1, 315793, Note_off_c, 0, 71, 65
1, 315898, Note_on_c, 0, 88, 80
1, 315901, Note_on_c, 0, 56, 68
1, 315908, Note_on_c, 0, 44, 55
1, 315913, Note_on_c, 0, 76, 54
1, 315929, Note_off_c, 0, 56, 65
1, 315931, Note_off_c, 0, 88, 55
1, 315933, Note_off_c, 0, 44, 57
1, 315951, Note_off_c, 0, 76, 45
1, 316005, Note_on_c, 0, 54, 58
1, 316011, Note_on_c, 0, 78, 67
1, 316027, Note_off_c, 0, 54, 63
1, 316033, Note_off_c, 0, 78, 65
1, 316125, Note_on_c, 0, 52, 72
1, 316134, Note_on_c, 0, 92, 76
1, 316137, Note_on_c, 0, 40, 64
1, 316144, Note_on_c, 0, 80, 64
1, 316161, Note_off_c, 0, 80, 67
1, 316170, Note_off_c, 0, 52, 56
1, 316183, Note_off_c, 0, 92, 54
1, 316222, Note_on_c, 0, 47, 54
1, 316241, Note_on_c, 0, 83, 58
1, 316243, Control_c, 0, 64, 33
1, 316246, Note_off_c, 0, 40, 62
1, 316250, Note_off_c, 0, 47, 57
1, 316258, Control_c, 0, 64, 50
1, 316259, Note_off_c, 0, 83, 62
1, 316272, Control_c, 0, 64, 55
1, 316287, Control_c, 0, 64, 57
1, 316302, Control_c, 0, 64, 58
1, 316317, Control_c, 0, 64, 59
1, 316332, Control_c, 0, 64, 60
1, 316346, Control_c, 0, 64, 62
1, 316361, Note_on_c, 0, 100, 87
1, 316361, Control_c, 0, 64, 63
1, 316364, Note_on_c, 0, 28, 80
1, 316367, Note_on_c, 0, 40, 69
1, 316367, Note_on_c, 0, 88, 65
1, 316376, Control_c, 0, 64, 63
1, 316390, Note_off_c, 0, 28, 64
1, 316390, Note_off_c, 0, 40, 60
1, 316390, Control_c, 0, 64, 64
1, 316396, Note_off_c, 0, 88, 64
1, 316399, Note_off_c, 0, 100, 64
1, 316405, Control_c, 0, 64, 65
1, 316420, Control_c, 0, 64, 65
1, 316435, Control_c, 0, 64, 66
1, 316450, Control_c, 0, 64, 66
1, 316465, Control_c, 0, 64, 67
1, 316494, Control_c, 0, 64, 67
1, 316584, Control_c, 0, 64, 67
1, 316598, Control_c, 0, 64, 66
1, 316611, Note_on_c, 0, 45, 97
1, 316613, Control_c, 0, 64, 65
1, 316617, Note_on_c, 0, 33, 90
1, 316626, Note_on_c, 0, 97, 72
1, 316628, Control_c, 0, 64, 64
1, 316630, Note_on_c, 0, 85, 66
1, 316639, Note_off_c, 0, 33, 68
1, 316643, Control_c, 0, 64, 63
1, 316646, Note_off_c, 0, 45, 66
1, 316648, Note_off_c, 0, 97, 70
1, 316655, Note_off_c, 0, 85, 67
1, 316657, Control_c, 0, 64, 60
1, 316672, Control_c, 0, 64, 57
1, 316687, Control_c, 0, 64, 55
1, 316702, Control_c, 0, 64, 54
1, 316717, Control_c, 0, 64, 52
1, 316731, Control_c, 0, 64, 51
1, 316742, Note_on_c, 0, 83, 64
1, 316746, Note_on_c, 0, 47, 62
1, 316746, Control_c, 0, 64, 48
1, 316761, Control_c, 0, 64, 44
1, 316772, Note_off_c, 0, 47, 60
1, 316775, Note_off_c, 0, 83, 59
1, 316776, Control_c, 0, 64, 39
1, 316790, Control_c, 0, 64, 33
1, 316805, Control_c, 0, 64, 30
1, 316820, Control_c, 0, 64, 29
1, 316843, Control_c, 0, 64, 28
1, 316858, Control_c, 0, 64, 27
1, 316859, Note_on_c, 0, 37, 74
1, 316859, Note_on_c, 0, 49, 75
1, 316863, Note_on_c, 0, 93, 69
1, 316873, Note_on_c, 0, 81, 69
1, 316877, Note_off_c, 0, 93, 63
1, 316885, Note_off_c, 0, 37, 66
1, 316887, Note_off_c, 0, 49, 65
1, 316902, Control_c, 0, 64, 25
1, 316904, Note_off_c, 0, 81, 60
1, 316918, Control_c, 0, 64, 18
1, 316933, Control_c, 0, 64, 13
1, 316948, Control_c, 0, 64, 10
1, 316962, Control_c, 0, 64, 0
1, 316989, Note_on_c, 0, 77, 72
1, 317007, Note_on_c, 0, 48, 29
1, 317020, Note_off_c, 0, 77, 61
1, 317049, Note_off_c, 0, 48, 30
1, 317096, Note_on_c, 0, 52, 72
1, 317100, Note_on_c, 0, 88, 64
1, 317103, Note_on_c, 0, 76, 68
1, 317117, Note_off_c, 0, 88, 63
1, 317123, Note_off_c, 0, 52, 69
1, 317132, Note_off_c, 0, 76, 66
1, 317207, Note_on_c, 0, 74, 64
1, 317214, Note_on_c, 0, 56, 67
1, 317232, Note_off_c, 0, 74, 70
1, 317240, Note_off_c, 0, 56, 64
1, 317319, Note_on_c, 0, 57, 77
1, 317332, Note_on_c, 0, 73, 64
1, 317332, Note_on_c, 0, 85, 61
1, 317344, Note_on_c, 0, 47, 44
1, 317346, Note_off_c, 0, 57, 66
1, 317350, Note_off_c, 0, 85, 62
1, 317357, Note_off_c, 0, 73, 66
1, 317378, Note_off_c, 0, 47, 55
1, 317441, Note_on_c, 0, 61, 75
1, 317450, Note_on_c, 0, 71, 64
1, 317474, Note_off_c, 0, 61, 61
1, 317475, Note_off_c, 0, 71, 66
1, 317551, Note_on_c, 0, 66, 88
1, 317555, Note_on_c, 0, 81, 77
1, 317560, Note_on_c, 0, 54, 78
1, 317562, Note_on_c, 0, 69, 69
1, 317580, Note_off_c, 0, 81, 60
1, 317592, Note_off_c, 0, 66, 66
1, 317595, Note_off_c, 0, 54, 65
1, 317602, Note_off_c, 0, 69, 62
1, 317663, Note_on_c, 0, 61, 74
1, 317684, Note_on_c, 0, 73, 55
1, 317686, Note_off_c, 0, 61, 66
1, 317703, Note_off_c, 0, 73, 58
1, 317799, Note_on_c, 0, 90, 77
1, 317804, Note_on_c, 0, 57, 72
1, 317812, Note_on_c, 0, 78, 66
1, 317812, Note_on_c, 0, 45, 61
1, 317829, Note_off_c, 0, 90, 59
1, 317830, Note_off_c, 0, 57, 66
1, 317836, Note_off_c, 0, 78, 60
1, 317836, Note_off_c, 0, 45, 61
1, 317908, Note_on_c, 0, 56, 59
1, 317924, Note_on_c, 0, 80, 65
1, 317929, Note_off_c, 0, 56, 62
1, 317946, Note_off_c, 0, 80, 67
1, 318026, Note_on_c, 0, 54, 74
1, 318032, Note_on_c, 0, 93, 87
1, 318036, Note_on_c, 0, 81, 73
1, 318042, Note_on_c, 0, 42, 54
1, 318062, Note_off_c, 0, 54, 56
1, 318083, Note_off_c, 0, 42, 59
1, 318083, Note_off_c, 0, 93, 61
1, 318088, Note_off_c, 0, 81, 55
1, 318113, Note_on_c, 0, 49, 62
1, 318142, Note_off_c, 0, 49, 65
1, 318152, Note_on_c, 0, 85, 68
1, 318175, Note_off_c, 0, 85, 69
1, 318239, Note_on_c, 0, 38, 90
1, 318248, Note_on_c, 0, 98, 94
1, 318250, Note_on_c, 0, 26, 71
1, 318256, Note_on_c, 0, 28, 68
1, 318257, Note_on_c, 0, 86, 80
1, 318268, Note_off_c, 0, 38, 66
1, 318271, Note_off_c, 0, 98, 58
1, 318278, Note_off_c, 0, 26, 58
1, 318286, Note_off_c, 0, 28, 62
1, 318297, Note_on_c, 0, 96, 32
1, 318306, Note_off_c, 0, 86, 54
1, 318328, Note_off_c, 0, 96, 33
1, 318372, Note_on_c, 0, 42, 67
1, 318381, Note_on_c, 0, 84, 73
1, 318402, Note_off_c, 0, 42, 65
1, 318417, Note_off_c, 0, 84, 62
1, 318491, Note_on_c, 0, 31, 83
1, 318493, Note_on_c, 0, 43, 82
1, 318495, Note_on_c, 0, 95, 82
1, 318500, Note_on_c, 0, 83, 76
1, 318515, Note_off_c, 0, 31, 66
1, 318516, Note_off_c, 0, 95, 71
1, 318524, Note_off_c, 0, 43, 62
1, 318541, Note_off_c, 0, 83, 58
1, 318621, Note_on_c, 0, 45, 64
1, 318638, Note_on_c, 0, 81, 45
1, 318642, Note_on_c, 0, 83, 26
1, 318650, Note_off_c, 0, 45, 65
1, 318663, Note_off_c, 0, 81, 35
1, 318669, Note_off_c, 0, 83, 33
1, 318737, Note_on_c, 0, 91, 68
1, 318745, Note_on_c, 0, 47, 58
1, 318751, Note_on_c, 0, 79, 62
1, 318751, Note_off_c, 0, 91, 63
1, 318763, Note_on_c, 0, 48, 45
1, 318767, Note_on_c, 0, 35, 32
1, 318769, Note_off_c, 0, 79, 63
1, 318773, Note_off_c, 0, 47, 59
1, 318796, Note_off_c, 0, 48, 35
1, 318808, Note_off_c, 0, 35, 33
1, 318857, Note_on_c, 0, 48, 70
1, 318861, Note_on_c, 0, 78, 66
1, 318885, Note_off_c, 0, 48, 67
1, 318897, Note_off_c, 0, 78, 57
1, 318971, Note_on_c, 0, 50, 75
1, 318974, Note_on_c, 0, 86, 65
1, 318980, Note_on_c, 0, 74, 65
1, 318987, Note_on_c, 0, 40, 49
1, 318994, Note_off_c, 0, 86, 63
1, 318995, Note_off_c, 0, 50, 66
1, 319017, Note_off_c, 0, 40, 55
1, 319019, Note_off_c, 0, 74, 65
1, 319098, Note_on_c, 0, 54, 64
1, 319105, Note_on_c, 0, 72, 66
1, 319124, Note_off_c, 0, 54, 65
1, 319133, Note_off_c, 0, 72, 68
1, 319219, Note_on_c, 0, 55, 70
1, 319220, Note_on_c, 0, 83, 61
1, 319225, Note_on_c, 0, 71, 65
1, 319237, Note_off_c, 0, 83, 41
1, 319246, Note_off_c, 0, 55, 66
1, 319254, Note_on_c, 0, 43, 4
1, 319255, Note_off_c, 0, 43, 127
1, 319255, Note_off_c, 0, 71, 64
1, 319341, Note_on_c, 0, 69, 66
1, 319359, Note_on_c, 0, 59, 38
1, 319368, Note_off_c, 0, 69, 68
1, 319388, Note_off_c, 0, 59, 49
1, 319457, Note_on_c, 0, 64, 68
1, 319461, Note_on_c, 0, 79, 69
1, 319466, Note_on_c, 0, 67, 57
1, 319477, Note_on_c, 0, 52, 48
1, 319481, Note_off_c, 0, 79, 61
1, 319492, Note_off_c, 0, 64, 64
1, 319498, Note_off_c, 0, 67, 65
1, 319517, Note_off_c, 0, 52, 45
1, 319544, Note_on_c, 0, 59, 54
1, 319565, Note_on_c, 0, 71, 57
1, 319571, Note_off_c, 0, 59, 65
1, 319583, Note_off_c, 0, 71, 62
1, 319684, Note_on_c, 0, 55, 65
1, 319694, Note_on_c, 0, 88, 74
1, 319701, Note_on_c, 0, 43, 38
1, 319702, Note_on_c, 0, 76, 53
1, 319714, Note_off_c, 0, 55, 66
1, 319717, Note_off_c, 0, 88, 65
1, 319730, Note_off_c, 0, 76, 53
1, 319741, Note_off_c, 0, 43, 31
1, 319792, Note_on_c, 0, 54, 56
1, 319808, Note_on_c, 0, 78, 62
1, 319813, Note_off_c, 0, 54, 60
1, 319833, Note_off_c, 0, 78, 64
1, 319919, Note_on_c, 0, 52, 73
1, 319923, Note_on_c, 0, 91, 80
1, 319928, Note_on_c, 0, 79, 73
1, 319929, Note_on_c, 0, 40, 64
1, 319965, Note_off_c, 0, 52, 56
1, 319970, Note_off_c, 0, 91, 48
1, 319990, Note_off_c, 0, 79, 49
1, 320031, Note_on_c, 0, 47, 35
1, 320034, Note_off_c, 0, 40, 62
1, 320044, Note_on_c, 0, 83, 65
1, 320069, Note_off_c, 0, 83, 66
1, 320072, Note_off_c, 0, 47, 30
1, 320146, Note_on_c, 0, 24, 83
1, 320150, Note_on_c, 0, 36, 78
1, 320150, Note_on_c, 0, 96, 85
1, 320159, Note_on_c, 0, 84, 76
1, 320167, Note_off_c, 0, 96, 71
1, 320172, Note_off_c, 0, 24, 64
1, 320173, Note_off_c, 0, 36, 67
1, 320184, Note_off_c, 0, 84, 65
1, 320276, Note_on_c, 0, 82, 71
1, 320284, Note_on_c, 0, 40, 55
1, 320304, Note_off_c, 0, 82, 62
1, 320312, Note_off_c, 0, 40, 55
1, 320389, Note_on_c, 0, 93, 68
1, 320396, Note_on_c, 0, 41, 74
1, 320398, Note_on_c, 0, 29, 69
1, 320399, Note_on_c, 0, 81, 73
1, 320404, Note_off_c, 0, 93, 63
1, 320425, Note_off_c, 0, 41, 67
1, 320429, Note_off_c, 0, 29, 55
1, 320442, Note_off_c, 0, 81, 57
1, 320517, Note_on_c, 0, 79, 67
1, 320528, Note_on_c, 0, 43, 54
1, 320546, Note_off_c, 0, 79, 62
1, 320557, Note_off_c, 0, 43, 55
1, 320641, Note_on_c, 0, 89, 67
1, 320647, Note_on_c, 0, 45, 67
1, 320647, Note_on_c, 0, 77, 71
1, 320656, Note_off_c, 0, 89, 68
1, 320674, Note_off_c, 0, 45, 67
1, 320681, Note_off_c, 0, 77, 58
1, 320754, Note_on_c, 0, 48, 59
1, 320759, Note_on_c, 0, 76, 70
1, 320778, Note_off_c, 0, 48, 60
1, 320787, Note_off_c, 0, 76, 64
1, 320877, Note_on_c, 0, 34, 73
1, 320878, Note_on_c, 0, 46, 74
1, 320884, Note_on_c, 0, 86, 62
1, 320889, Note_on_c, 0, 74, 59
1, 320901, Note_off_c, 0, 34, 68
1, 320906, Note_off_c, 0, 46, 65
1, 320906, Note_off_c, 0, 86, 63
1, 320921, Note_off_c, 0, 74, 67
1, 320993, Note_on_c, 0, 72, 71
1, 321004, Note_on_c, 0, 48, 63
1, 321020, Note_off_c, 0, 72, 66
1, 321034, Note_off_c, 0, 48, 65
1, 321115, Note_on_c, 0, 70, 73
1, 321122, Note_on_c, 0, 82, 67
1, 321126, Note_on_c, 0, 52, 58
1, 321138, Note_off_c, 0, 70, 69
1, 321145, Note_off_c, 0, 82, 66
1, 321157, Note_off_c, 0, 52, 67
1, 321207, Note_on_c, 0, 53, 65
1, 321228, Note_off_c, 0, 53, 66
1, 321231, Note_on_c, 0, 69, 63
1, 321249, Note_off_c, 0, 69, 65
1, 321363, Note_on_c, 0, 40, 77
1, 321368, Note_on_c, 0, 91, 76
1, 321371, Note_on_c, 0, 28, 55
1, 321372, Note_on_c, 0, 79, 75
1, 321383, Note_off_c, 0, 91, 64
1, 321389, Note_off_c, 0, 40, 66
1, 321395, Note_on_c, 0, 29, 28
1, 321404, Note_off_c, 0, 28, 53
1, 321410, Note_off_c, 0, 79, 51
1, 321440, Note_off_c, 0, 29, 50
1, 321487, Note_on_c, 0, 77, 72
1, 321493, Note_on_c, 0, 41, 57
1, 321516, Note_off_c, 0, 77, 62
1, 321521, Note_off_c, 0, 41, 59
1, 321602, Note_on_c, 0, 88, 71
1, 321604, Note_on_c, 0, 43, 56
1, 321607, Note_on_c, 0, 76, 70
1, 321618, Note_off_c, 0, 88, 67
1, 321631, Note_off_c, 0, 43, 58
1, 321644, Note_off_c, 0, 76, 62
1, 321726, Note_on_c, 0, 74, 65
1, 321750, Note_off_c, 0, 74, 68
1, 321836, Note_on_c, 0, 84, 75
1, 321843, Note_on_c, 0, 72, 64
1, 321845, Note_on_c, 0, 35, 62
1, 321850, Note_off_c, 0, 84, 69
1, 321871, Note_on_c, 0, 45, 11
1, 321872, Note_off_c, 0, 45, 127
1, 321872, Note_off_c, 0, 35, 60
1, 321872, Note_off_c, 0, 72, 67
1, 321953, Note_on_c, 0, 70, 68
1, 321980, Note_off_c, 0, 70, 68
1, 322051, Note_on_c, 0, 81, 74
1, 322060, Note_on_c, 0, 69, 70
1, 322066, Note_on_c, 0, 48, 58
1, 322081, Note_off_c, 0, 81, 68
1, 322107, Note_off_c, 0, 48, 64
1, 322109, Note_off_c, 0, 69, 67
1, 322168, Note_on_c, 0, 52, 67
1, 322175, Note_on_c, 0, 67, 68
1, 322188, Note_off_c, 0, 52, 64
1, 322192, Note_off_c, 0, 67, 66
1, 322294, Note_on_c, 0, 89, 84
1, 322307, Note_on_c, 0, 26, 56
1, 322307, Note_on_c, 0, 77, 73
1, 322309, Note_on_c, 0, 28, 62
1, 322313, Note_on_c, 0, 38, 45
1, 322314, Note_off_c, 0, 89, 67
1, 322316, Note_on_c, 0, 40, 53
1, 322339, Note_off_c, 0, 28, 61
1, 322342, Note_off_c, 0, 26, 35
1, 322343, Note_off_c, 0, 77, 54
1, 322345, Note_off_c, 0, 40, 55
1, 322346, Note_off_c, 0, 38, 48
1, 322420, Note_on_c, 0, 76, 71
1, 322421, Note_on_c, 0, 40, 69
1, 322448, Note_off_c, 0, 76, 65
1, 322453, Note_off_c, 0, 40, 65
1, 322537, Note_on_c, 0, 74, 72
1, 322538, Note_on_c, 0, 86, 73
1, 322541, Note_on_c, 0, 31, 59
1, 322549, Note_on_c, 0, 43, 40
1, 322555, Note_off_c, 0, 86, 67
1, 322571, Note_off_c, 0, 31, 55
1, 322574, Note_off_c, 0, 74, 65
1, 322584, Note_off_c, 0, 43, 52
1, 322652, Note_on_c, 0, 72, 69
1, 322653, Note_on_c, 0, 45, 57
1, 322671, Note_off_c, 0, 72, 66
1, 322679, Note_off_c, 0, 45, 58
1, 322755, Note_on_c, 0, 82, 70
1, 322763, Note_on_c, 0, 70, 67
1, 322767, Note_on_c, 0, 46, 46
1, 322768, Note_off_c, 0, 46, 127
1, 322778, Note_off_c, 0, 82, 68
1, 322789, Note_off_c, 0, 70, 67
1, 322877, Note_on_c, 0, 69, 69
1, 322883, Note_on_c, 0, 50, 65
1, 322901, Note_off_c, 0, 69, 71
1, 322911, Note_off_c, 0, 50, 66
1, 322984, Note_on_c, 0, 43, 60
1, 322987, Note_on_c, 0, 53, 52
1, 322990, Note_on_c, 0, 68, 70
1, 323002, Note_on_c, 0, 80, 50
1, 323012, Note_off_c, 0, 43, 57
1, 323012, Note_off_c, 0, 53, 57
1, 323016, Note_off_c, 0, 68, 69
1, 323025, Note_off_c, 0, 80, 37
1, 323099, Note_on_c, 0, 56, 69
1, 323105, Note_on_c, 0, 65, 53
1, 323127, Note_off_c, 0, 56, 64
1, 323127, Note_off_c, 0, 65, 60
1, 323219, Note_on_c, 0, 81, 76
1, 323220, Note_on_c, 0, 60, 65
1, 323227, Note_on_c, 0, 69, 68
1, 323241, Note_off_c, 0, 81, 65
1, 323249, Note_off_c, 0, 60, 66
1, 323251, Note_off_c, 0, 69, 67
1, 323318, Note_on_c, 0, 59, 62
1, 323330, Note_on_c, 0, 71, 68
1, 323336, Note_off_c, 0, 59, 62
1, 323348, Note_off_c, 0, 71, 66
1, 323441, Note_on_c, 0, 84, 79
1, 323445, Note_on_c, 0, 57, 63
1, 323447, Note_on_c, 0, 45, 63
1, 323462, Note_on_c, 0, 72, 51
1, 323478, Note_off_c, 0, 57, 50
1, 323479, Note_off_c, 0, 84, 50
1, 323483, Note_off_c, 0, 72, 63
1, 323528, Note_on_c, 0, 52, 54
1, 323538, Note_on_c, 0, 76, 66
1, 323550, Note_off_c, 0, 45, 63
1, 323552, Note_off_c, 0, 52, 61
1, 323556, Note_off_c, 0, 76, 68
1, 323662, Note_on_c, 0, 93, 81
1, 323667, Note_on_c, 0, 36, 57
1, 323672, Note_on_c, 0, 81, 66
1, 323687, Note_off_c, 0, 93, 60
1, 323693, Note_off_c, 0, 36, 58
1, 323708, Note_off_c, 0, 81, 52
1, 323771, Note_on_c, 0, 88, 69
1, 323789, Control_c, 0, 64, 19
1, 323792, Note_off_c, 0, 88, 69
1, 323804, Control_c, 0, 64, 32
1, 323819, Control_c, 0, 64, 41
1, 323833, Control_c, 0, 64, 49
1, 323848, Control_c, 0, 64, 56
1, 323863, Control_c, 0, 64, 59
1, 323878, Control_c, 0, 64, 61
1, 323893, Control_c, 0, 64, 62
1, 323894, Note_on_c, 0, 105, 89
1, 323902, Note_on_c, 0, 93, 52
1, 323905, Note_on_c, 0, 33, 69
1, 323913, Note_on_c, 0, 45, 54
1, 323914, Note_off_c, 0, 105, 68
1, 323922, Control_c, 0, 64, 62
1, 323924, Note_off_c, 0, 93, 52
1, 323935, Note_off_c, 0, 33, 65
1, 323939, Note_off_c, 0, 45, 58
1, 323952, Control_c, 0, 64, 63
1, 323981, Control_c, 0, 64, 64
1, 323996, Control_c, 0, 64, 64
1, 324011, Control_c, 0, 64, 66
1, 324026, Control_c, 0, 64, 67
1, 324041, Control_c, 0, 64, 68
1, 324055, Control_c, 0, 64, 68
1, 324116, Control_c, 0, 64, 68
1, 324131, Control_c, 0, 64, 67
1, 324145, Control_c, 0, 64, 65
1, 324151, Note_on_c, 0, 45, 69
1, 324155, Note_on_c, 0, 33, 69
1, 324160, Control_c, 0, 64, 61
1, 324165, Note_on_c, 0, 97, 78
1, 324170, Note_on_c, 0, 85, 72
1, 324175, Control_c, 0, 64, 49
1, 324179, Note_off_c, 0, 33, 63
1, 324179, Note_off_c, 0, 45, 66
1, 324185, Note_off_c, 0, 97, 71
1, 324190, Control_c, 0, 64, 36
1, 324192, Note_off_c, 0, 85, 70
1, 324204, Control_c, 0, 64, 21
1, 324219, Control_c, 0, 64, 0
1, 324268, Note_on_c, 0, 47, 64
1, 324278, Note_on_c, 0, 83, 61
1, 324292, Note_off_c, 0, 47, 61
1, 324304, Note_off_c, 0, 83, 65
1, 324387, Note_on_c, 0, 93, 78
1, 324389, Note_on_c, 0, 37, 68
1, 324397, Note_on_c, 0, 49, 62
1, 324398, Note_on_c, 0, 81, 67
1, 324400, Note_off_c, 0, 93, 67
1, 324419, Note_off_c, 0, 37, 66
1, 324419, Note_off_c, 0, 49, 58
1, 324425, Note_off_c, 0, 81, 65
1, 324512, Note_on_c, 0, 50, 66
1, 324516, Note_on_c, 0, 77, 70
1, 324543, Note_off_c, 0, 50, 64
1, 324544, Note_off_c, 0, 77, 62
1, 324626, Note_on_c, 0, 88, 68
1, 324627, Note_on_c, 0, 52, 49
1, 324628, Note_on_c, 0, 76, 70
1, 324630, Note_on_c, 0, 41, 50
1, 324643, Note_off_c, 0, 88, 64
1, 324656, Note_off_c, 0, 52, 50
1, 324659, Note_off_c, 0, 76, 65
1, 324665, Note_off_c, 0, 41, 58
1, 324734, Note_on_c, 0, 74, 70
1, 324745, Note_on_c, 0, 56, 66
1, 324761, Note_off_c, 0, 74, 66
1, 324778, Note_off_c, 0, 56, 64
1, 324845, Note_on_c, 0, 57, 74
1, 324855, Note_on_c, 0, 85, 69
1, 324859, Note_on_c, 0, 73, 67
1, 324860, Note_on_c, 0, 47, 57
1, 324871, Note_off_c, 0, 57, 67
1, 324877, Note_off_c, 0, 85, 67
1, 324884, Note_off_c, 0, 73, 66
1, 324892, Note_off_c, 0, 47, 35
1, 324964, Note_on_c, 0, 61, 74
1, 324984, Note_on_c, 0, 71, 57
1, 324993, Note_off_c, 0, 61, 62
1, 325002, Note_off_c, 0, 71, 60
1, 325068, Note_on_c, 0, 66, 93
1, 325083, Note_on_c, 0, 54, 82
1, 325087, Note_on_c, 0, 81, 77
1, 325091, Note_on_c, 0, 69, 68
1, 325112, Note_off_c, 0, 54, 63
1, 325115, Note_off_c, 0, 66, 65
1, 325116, Note_off_c, 0, 81, 55
1, 325122, Note_off_c, 0, 69, 63
1, 325181, Note_on_c, 0, 61, 75
1, 325206, Note_off_c, 0, 61, 67
1, 325209, Note_on_c, 0, 73, 33
1, 325240, Note_off_c, 0, 73, 33
1, 325310, Note_on_c, 0, 90, 79
1, 325312, Note_on_c, 0, 57, 77
1, 325318, Note_on_c, 0, 45, 64
1, 325320, Note_on_c, 0, 78, 66
1, 325335, Note_off_c, 0, 90, 63
1, 325339, Note_off_c, 0, 57, 66
1, 325340, Note_off_c, 0, 45, 62
1, 325345, Note_off_c, 0, 78, 59
1, 325428, Note_on_c, 0, 80, 66
1, 325449, Note_off_c, 0, 80, 67
1, 325532, Note_on_c, 0, 54, 75
1, 325541, Note_on_c, 0, 93, 85
1, 325544, Note_on_c, 0, 42, 54
1, 325547, Note_on_c, 0, 81, 67
1, 325562, Note_off_c, 0, 54, 61
1, 325575, Note_off_c, 0, 42, 53
1, 325581, Note_off_c, 0, 81, 53
1, 325589, Note_off_c, 0, 93, 57
1, 325625, Note_on_c, 0, 49, 63
1, 325650, Note_off_c, 0, 49, 63
1, 325658, Note_on_c, 0, 85, 64
1, 325677, Note_off_c, 0, 85, 67
1, 325759, Note_on_c, 0, 38, 86
1, 325761, Note_on_c, 0, 98, 96
1, 325762, Note_on_c, 0, 26, 78
1, 325768, Note_on_c, 0, 86, 83
1, 325776, Note_on_c, 0, 28, 62
1, 325781, Note_off_c, 0, 38, 67
1, 325789, Note_off_c, 0, 26, 60
1, 325796, Note_off_c, 0, 98, 63
1, 325806, Note_off_c, 0, 28, 57
1, 325816, Note_off_c, 0, 86, 59
1, 325896, Note_on_c, 0, 42, 56
1, 325922, Note_on_c, 0, 84, 28
1, 325928, Note_off_c, 0, 42, 63
1, 325951, Note_off_c, 0, 84, 33
1, 326004, Note_on_c, 0, 95, 79
1, 326015, Note_on_c, 0, 43, 66
1, 326015, Note_on_c, 0, 31, 61
1, 326021, Note_on_c, 0, 83, 68
1, 326024, Note_off_c, 0, 95, 71
1, 326045, Note_off_c, 0, 43, 63
1, 326046, Note_off_c, 0, 31, 55
1, 326052, Note_off_c, 0, 83, 59
1, 326133, Note_on_c, 0, 45, 56
1, 326144, Note_on_c, 0, 81, 52
1, 326159, Note_off_c, 0, 45, 63
1, 326166, Note_off_c, 0, 81, 56
1, 326246, Note_on_c, 0, 47, 73
1, 326246, Note_on_c, 0, 91, 62
1, 326248, Note_on_c, 0, 79, 67
1, 326263, Note_off_c, 0, 91, 42
1, 326269, Note_off_c, 0, 79, 63
1, 326272, Note_off_c, 0, 47, 67
1, 326359, Note_on_c, 0, 78, 71
1, 326364, Note_on_c, 0, 48, 65
1, 326385, Note_off_c, 0, 78, 67
1, 326394, Note_off_c, 0, 48, 66
1, 326471, Note_on_c, 0, 50, 66
1, 326485, Note_on_c, 0, 74, 55
1, 326486, Note_on_c, 0, 86, 50
1, 326486, Note_on_c, 0, 38, 39
1, 326487, Note_off_c, 0, 38, 127
1, 326499, Note_off_c, 0, 50, 66
1, 326513, Note_off_c, 0, 86, 56
1, 326517, Note_off_c, 0, 74, 63
1, 326601, Note_on_c, 0, 72, 58
1, 326612, Note_on_c, 0, 54, 55
1, 326624, Note_off_c, 0, 72, 63
1, 326635, Note_off_c, 0, 54, 63
1, 326716, Note_on_c, 0, 83, 66
1, 326722, Note_on_c, 0, 55, 69
1, 326727, Note_on_c, 0, 71, 60
1, 326731, Note_off_c, 0, 83, 63
1, 326749, Note_off_c, 0, 55, 66
1, 326758, Note_off_c, 0, 71, 62
1, 326845, Note_on_c, 0, 69, 59
1, 326850, Note_on_c, 0, 59, 59
1, 326870, Note_off_c, 0, 69, 66
1, 326877, Note_off_c, 0, 59, 58
1, 326952, Note_on_c, 0, 64, 71
1, 326960, Note_on_c, 0, 79, 71
1, 326960, Note_on_c, 0, 67, 66
1, 326966, Note_on_c, 0, 52, 61
1, 326993, Note_off_c, 0, 67, 61
1, 326994, Note_off_c, 0, 64, 54
1, 327015, Note_off_c, 0, 52, 43
1, 327017, Note_off_c, 0, 79, 43
1, 327051, Note_on_c, 0, 59, 45
1, 327068, Note_on_c, 0, 71, 51
1, 327074, Note_off_c, 0, 59, 58
1, 327090, Note_off_c, 0, 71, 55
1, 327186, Note_on_c, 0, 88, 82
1, 327189, Note_on_c, 0, 55, 61
1, 327190, Note_on_c, 0, 43, 62
1, 327195, Note_on_c, 0, 76, 62
1, 327209, Note_off_c, 0, 55, 61
1, 327216, Note_off_c, 0, 43, 55
1, 327218, Note_off_c, 0, 88, 58
1, 327223, Note_off_c, 0, 76, 52
1, 327308, Note_on_c, 0, 54, 34
1, 327308, Note_on_c, 0, 78, 62
1, 327333, Note_off_c, 0, 78, 64
1, 327341, Note_off_c, 0, 54, 35
1, 327419, Note_on_c, 0, 79, 71
1, 327419, Note_on_c, 0, 91, 76
1, 327428, Note_on_c, 0, 52, 53
1, 327429, Note_on_c, 0, 40, 60
1, 327451, Note_off_c, 0, 52, 63
1, 327464, Note_off_c, 0, 91, 52
1, 327482, Note_off_c, 0, 79, 50
1, 327526, Note_off_c, 0, 40, 62
1, 327534, Note_on_c, 0, 83, 68
1, 327557, Note_off_c, 0, 83, 66
1, 327634, Note_on_c, 0, 24, 87
1, 327637, Note_on_c, 0, 36, 80
1, 327641, Note_on_c, 0, 96, 87
1, 327649, Note_on_c, 0, 84, 77
1, 327657, Note_off_c, 0, 96, 73
1, 327659, Note_off_c, 0, 24, 64
1, 327659, Note_off_c, 0, 36, 67
1, 327676, Note_off_c, 0, 84, 65
1, 327763, Note_on_c, 0, 82, 70
1, 327787, Note_off_c, 0, 82, 68
1, 327869, Note_on_c, 0, 93, 73
1, 327878, Note_on_c, 0, 41, 75
1, 327879, Note_on_c, 0, 29, 71
1, 327879, Note_on_c, 0, 81, 72
1, 327884, Note_off_c, 0, 93, 64
1, 327903, Note_off_c, 0, 41, 68
1, 327907, Note_off_c, 0, 29, 57
1, 327920, Note_off_c, 0, 81, 55
1, 327998, Note_on_c, 0, 79, 64
1, 328007, Note_on_c, 0, 43, 57
1, 328019, Note_off_c, 0, 79, 61
1, 328034, Note_off_c, 0, 43, 58
1, 328108, Note_on_c, 0, 89, 79
1, 328120, Note_on_c, 0, 77, 66
1, 328126, Note_on_c, 0, 45, 64
1, 328127, Note_off_c, 0, 89, 68
1, 328150, Note_off_c, 0, 45, 65
1, 328157, Note_off_c, 0, 77, 59
1, 328225, Note_on_c, 0, 76, 70
1, 328230, Note_on_c, 0, 48, 59
1, 328253, Note_off_c, 0, 76, 66
1, 328254, Note_off_c, 0, 48, 59
1, 328338, Note_on_c, 0, 86, 72
1, 328341, Note_on_c, 0, 34, 74
1, 328345, Note_on_c, 0, 74, 69
1, 328351, Note_on_c, 0, 46, 64
1, 328358, Note_off_c, 0, 86, 66
1, 328363, Note_off_c, 0, 34, 68
1, 328373, Note_off_c, 0, 46, 59
1, 328376, Note_off_c, 0, 74, 64
1, 328458, Note_on_c, 0, 48, 69
1, 328460, Note_on_c, 0, 72, 48
1, 328481, Note_off_c, 0, 72, 60
1, 328488, Note_off_c, 0, 48, 65
1, 328563, Note_on_c, 0, 70, 75
1, 328564, Note_on_c, 0, 50, 69
1, 328566, Note_on_c, 0, 82, 74
1, 328585, Note_off_c, 0, 70, 69
1, 328586, Note_off_c, 0, 82, 68
1, 328599, Note_off_c, 0, 50, 63
1, 328671, Note_on_c, 0, 69, 67
1, 328686, Note_off_c, 0, 69, 67
1, 328797, Note_on_c, 0, 91, 84
1, 328806, Note_on_c, 0, 28, 63
1, 328806, Note_on_c, 0, 40, 67
1, 328812, Note_on_c, 0, 79, 59
1, 328832, Note_off_c, 0, 91, 56
1, 328838, Note_off_c, 0, 40, 63
1, 328843, Note_off_c, 0, 28, 55
1, 328854, Note_off_c, 0, 79, 49
1, 328934, Note_on_c, 0, 41, 55
1, 328937, Note_on_c, 0, 77, 60
1, 328955, Note_off_c, 0, 77, 60
1, 328961, Note_off_c, 0, 41, 58
1, 329038, Note_on_c, 0, 88, 59
1, 329044, Note_on_c, 0, 76, 70
1, 329047, Note_on_c, 0, 43, 55
1, 329059, Note_off_c, 0, 88, 39
1, 329062, Note_on_c, 0, 31, 31
1, 329071, Note_off_c, 0, 76, 66
1, 329074, Note_off_c, 0, 43, 55
1, 329105, Note_off_c, 0, 31, 35
1, 329150, Note_on_c, 0, 74, 68
1, 329155, Note_on_c, 0, 46, 64
1, 329175, Note_off_c, 0, 74, 69
1, 329184, Note_off_c, 0, 46, 64
1, 329259, Note_on_c, 0, 84, 69
1, 329265, Note_on_c, 0, 72, 69
1, 329272, Note_on_c, 0, 45, 70
1, 329274, Note_off_c, 0, 84, 67
1, 329293, Note_off_c, 0, 72, 65
1, 329294, Note_on_c, 0, 35, 42
1, 329299, Note_off_c, 0, 45, 66
1, 329327, Note_off_c, 0, 35, 53
1, 329373, Note_on_c, 0, 70, 74
1, 329383, Note_on_c, 0, 46, 64
1, 329411, Note_off_c, 0, 70, 58
1, 329415, Note_off_c, 0, 46, 61
1, 329485, Note_on_c, 0, 69, 75
1, 329485, Note_on_c, 0, 50, 72
1, 329494, Note_on_c, 0, 81, 44
1, 329511, Note_off_c, 0, 50, 64
1, 329518, Note_off_c, 0, 69, 65
1, 329520, Note_off_c, 0, 81, 37
1, 329597, Note_on_c, 0, 67, 48
1, 329623, Note_off_c, 0, 67, 36
1, 329708, Note_on_c, 0, 89, 90
1, 329711, Note_on_c, 0, 26, 59
1, 329711, Note_on_c, 0, 38, 66
1, 329720, Note_on_c, 0, 77, 71
1, 329723, Note_on_c, 0, 28, 48
1, 329739, Note_off_c, 0, 89, 65
1, 329742, Note_off_c, 0, 38, 64
1, 329744, Note_off_c, 0, 26, 54
1, 329756, Note_off_c, 0, 28, 46
1, 329766, Note_off_c, 0, 77, 60
1, 329829, Note_on_c, 0, 40, 66
1, 329833, Note_on_c, 0, 76, 69
1, 329858, Note_off_c, 0, 76, 70
1, 329861, Note_off_c, 0, 40, 65
1, 329935, Note_on_c, 0, 41, 77
1, 329935, Note_on_c, 0, 86, 78
1, 329947, Note_on_c, 0, 74, 63
1, 329952, Note_on_c, 0, 31, 49
1, 329956, Note_off_c, 0, 86, 70
1, 329968, Note_off_c, 0, 41, 69
1, 329976, Note_off_c, 0, 74, 68
1, 329986, Note_off_c, 0, 31, 52
1, 330044, Note_on_c, 0, 45, 68
1, 330049, Note_on_c, 0, 72, 75
1, 330071, Note_off_c, 0, 45, 66
1, 330076, Note_off_c, 0, 72, 65
1, 330150, Note_on_c, 0, 46, 79
1, 330153, Note_on_c, 0, 34, 76
1, 330153, Note_on_c, 0, 82, 76
1, 330159, Note_on_c, 0, 70, 72
1, 330173, Note_off_c, 0, 46, 65
1, 330174, Note_off_c, 0, 82, 70
1, 330177, Note_off_c, 0, 34, 66
1, 330183, Note_off_c, 0, 70, 69
1, 330263, Note_on_c, 0, 69, 72
1, 330284, Note_on_c, 0, 48, 37
1, 330287, Note_off_c, 0, 69, 72
1, 330329, Note_off_c, 0, 48, 54
1, 330331, Note_on_c, 0, 50, 3
1, 330332, Note_off_c, 0, 50, 127
1, 330374, Note_on_c, 0, 52, 56
1, 330381, Note_on_c, 0, 41, 54
1, 330383, Note_on_c, 0, 68, 71
1, 330383, Note_on_c, 0, 80, 65
1, 330397, Note_off_c, 0, 52, 62
1, 330400, Note_off_c, 0, 80, 67
1, 330409, Note_off_c, 0, 68, 69
1, 330412, Note_off_c, 0, 41, 58
1, 330487, Note_on_c, 0, 56, 71
1, 330495, Note_on_c, 0, 64, 60
1, 330514, Note_off_c, 0, 64, 62
1, 330517, Note_off_c, 0, 56, 63
1, 330602, Note_on_c, 0, 81, 83
1, 330606, Note_on_c, 0, 69, 77
1, 330610, Note_on_c, 0, 60, 64
1, 330623, Note_off_c, 0, 81, 65
1, 330641, Note_off_c, 0, 60, 64
1, 330645, Note_off_c, 0, 69, 61
1, 330695, Note_on_c, 0, 59, 67
1, 330711, Note_on_c, 0, 71, 71
1, 330719, Note_off_c, 0, 59, 64
1, 330728, Note_off_c, 0, 71, 66
1, 330821, Note_on_c, 0, 57, 64
1, 330821, Note_on_c, 0, 45, 65
1, 330837, Note_on_c, 0, 84, 56
1, 330850, Note_on_c, 0, 86, 33
1, 330859, Note_off_c, 0, 84, 58
1, 330874, Note_off_c, 0, 57, 50
1, 330890, Note_off_c, 0, 86, 30
1, 330905, Note_on_c, 0, 52, 55
1, 330925, Note_on_c, 0, 76, 68
1, 330930, Note_off_c, 0, 52, 60
1, 330931, Note_off_c, 0, 45, 24
1, 330943, Note_off_c, 0, 76, 69
1, 331035, Note_on_c, 0, 36, 62
1, 331043, Note_on_c, 0, 93, 80
1, 331056, Note_on_c, 0, 81, 64
1, 331068, Note_off_c, 0, 36, 60
1, 331092, Note_off_c, 0, 81, 49
1, 331093, Note_off_c, 0, 93, 45
1, 331146, Note_on_c, 0, 88, 65
1, 331168, Note_off_c, 0, 88, 65
1, 331316, Note_on_c, 0, 33, 67
1, 331319, Note_on_c, 0, 105, 92
1, 331339, Note_on_c, 0, 45, 28
1, 331340, Note_off_c, 0, 45, 127
1, 331343, Note_off_c, 0, 33, 65
1, 331355, Note_off_c, 0, 105, 63
1, 332716, Control_c, 0, 64, 16
1, 332731, Control_c, 0, 64, 24
1, 332745, Control_c, 0, 64, 29
1, 332760, Control_c, 0, 64, 34
1, 332775, Control_c, 0, 64, 37
1, 332790, Control_c, 0, 64, 41
1, 332805, Control_c, 0, 64, 44
1, 332819, Control_c, 0, 64, 46
1, 332834, Control_c, 0, 64, 49
1, 332849, Control_c, 0, 64, 51
1, 332863, Control_c, 0, 64, 53
1, 332878, Control_c, 0, 64, 54
1, 332895, Control_c, 0, 64, 56
1, 332909, Control_c, 0, 64, 56
1, 332924, Control_c, 0, 64, 57
1, 332939, Control_c, 0, 64, 58
1, 332954, Control_c, 0, 64, 58
1, 332968, Control_c, 0, 64, 59
1, 332983, Control_c, 0, 64, 59
1, 333013, Control_c, 0, 64, 60
1, 333042, Control_c, 0, 64, 60
1, 333057, Control_c, 0, 64, 61
1, 333072, Control_c, 0, 64, 61
1, 333087, Control_c, 0, 64, 62
1, 333116, Control_c, 0, 64, 62
1, 333131, Control_c, 0, 64, 63
1, 333146, Control_c, 0, 64, 63
1, 333176, Control_c, 0, 64, 64
1, 333205, Control_c, 0, 64, 64
1, 333205, Control_c, 0, 67, 127
1, 333220, Control_c, 0, 67, 124
1, 333235, Control_c, 0, 64, 65
1, 333235, Control_c, 0, 67, 121
1, 333250, Control_c, 0, 67, 118
1, 333265, Control_c, 0, 64, 65
1, 333265, Control_c, 0, 67, 115
1, 333280, Control_c, 0, 67, 112
1, 333294, Control_c, 0, 64, 66
1, 333294, Control_c, 0, 67, 109
1, 333316, Control_c, 0, 67, 106
1, 333331, Control_c, 0, 64, 66
1, 333331, Control_c, 0, 67, 103
1, 333346, Control_c, 0, 64, 67
1, 333346, Control_c, 0, 67, 99
1, 333361, Control_c, 0, 64, 68
1, 333361, Control_c, 0, 67, 94
1, 333375, Control_c, 0, 64, 69
1, 333375, Control_c, 0, 67, 90
1, 333390, Control_c, 0, 64, 69
1, 333390, Control_c, 0, 67, 87
1, 333405, Control_c, 0, 64, 70
1, 333405, Control_c, 0, 67, 84
1, 333420, Control_c, 0, 64, 71
1, 333420, Control_c, 0, 67, 80
1, 333435, Control_c, 0, 64, 72
1, 333435, Control_c, 0, 67, 76
1, 333450, Control_c, 0, 64, 73
1, 333450, Control_c, 0, 67, 72
1, 333465, Control_c, 0, 64, 74
1, 333465, Control_c, 0, 67, 67
1, 333480, Control_c, 0, 64, 75
1, 333480, Control_c, 0, 67, 62
1, 333494, Control_c, 0, 64, 75
1, 333494, Control_c, 0, 67, 58
1, 333509, Control_c, 0, 64, 76
1, 333509, Control_c, 0, 67, 53
1, 333524, Control_c, 0, 64, 77
1, 333524, Control_c, 0, 67, 49
1, 333539, Control_c, 0, 64, 77
1, 333539, Control_c, 0, 67, 44
1, 333554, Control_c, 0, 64, 78
1, 333554, Control_c, 0, 67, 40
1, 333568, Control_c, 0, 64, 78
1, 333568, Control_c, 0, 67, 36
1, 333572, Note_on_c, 0, 41, 33
1, 333583, Control_c, 0, 64, 79
1, 333583, Control_c, 0, 67, 32
1, 333598, Control_c, 0, 67, 29
1, 333613, Note_on_c, 0, 84, 51
1, 333613, Control_c, 0, 64, 79
1, 333613, Control_c, 0, 67, 26
1, 333621, Note_on_c, 0, 72, 39
1, 333628, Control_c, 0, 67, 23
1, 333642, Control_c, 0, 64, 80
1, 333642, Control_c, 0, 67, 19
1, 333644, Note_on_c, 0, 81, 30
1, 333657, Control_c, 0, 64, 80
1, 333657, Control_c, 0, 67, 16
1, 333672, Control_c, 0, 64, 81
1, 333672, Control_c, 0, 67, 13
1, 333688, Control_c, 0, 64, 81
1, 333688, Control_c, 0, 67, 9
1, 333703, Control_c, 0, 64, 82
1, 333703, Control_c, 0, 67, 0
1, 333718, Control_c, 0, 64, 83
1, 333732, Control_c, 0, 64, 83
1, 333747, Control_c, 0, 64, 84
1, 333762, Control_c, 0, 64, 84
1, 333777, Control_c, 0, 64, 85
1, 333791, Control_c, 0, 64, 85
1, 333806, Control_c, 0, 64, 86
1, 333809, Note_off_c, 0, 72, 41
1, 333821, Control_c, 0, 64, 87
1, 333836, Control_c, 0, 64, 87
1, 333846, Note_off_c, 0, 84, 51
1, 333851, Control_c, 0, 64, 88
1, 333857, Note_off_c, 0, 41, 43
1, 333880, Control_c, 0, 64, 88
1, 333910, Note_on_c, 0, 48, 26
1, 333910, Note_off_c, 0, 81, 28
1, 333924, Control_c, 0, 64, 89
1, 333969, Note_off_c, 0, 48, 45
1, 334079, Note_on_c, 0, 86, 64
1, 334091, Note_on_c, 0, 53, 29
1, 334096, Note_on_c, 0, 74, 42
1, 334128, Note_off_c, 0, 53, 43
1, 334210, Note_off_c, 0, 86, 54
1, 334216, Note_on_c, 0, 57, 47
1, 334218, Note_off_c, 0, 74, 38
1, 334280, Note_off_c, 0, 57, 57
1, 334332, Note_on_c, 0, 60, 31
1, 334347, Note_on_c, 0, 84, 82
1, 334356, Note_on_c, 0, 72, 65
1, 334370, Note_off_c, 0, 60, 51
1, 334398, Note_off_c, 0, 72, 59
1, 334475, Note_on_c, 0, 65, 34
1, 334478, Note_off_c, 0, 84, 62
1, 334526, Control_c, 0, 64, 89
1, 334541, Note_off_c, 0, 65, 42
1, 334581, Note_on_c, 0, 89, 88
1, 334592, Note_on_c, 0, 77, 68
1, 334602, Note_on_c, 0, 69, 39
1, 334641, Note_off_c, 0, 89, 66
1, 334642, Note_off_c, 0, 69, 54
1, 334653, Note_off_c, 0, 77, 38
1, 334704, Note_on_c, 0, 65, 43
1, 334751, Note_off_c, 0, 65, 47
1, 334827, Note_on_c, 0, 81, 93
1, 334832, Note_on_c, 0, 60, 45
1, 334834, Note_on_c, 0, 69, 76
1, 334863, Note_off_c, 0, 69, 61
1, 334879, Note_off_c, 0, 60, 59
1, 334910, Note_on_c, 0, 57, 37
1, 334934, Note_off_c, 0, 81, 57
1, 334947, Note_off_c, 0, 57, 44
1, 335049, Note_on_c, 0, 53, 47
1, 335060, Note_on_c, 0, 86, 91
1, 335064, Note_on_c, 0, 74, 76
1, 335099, Note_off_c, 0, 53, 59
1, 335114, Note_off_c, 0, 86, 56
1, 335118, Note_off_c, 0, 74, 54
1, 335184, Control_c, 0, 64, 90
1, 335301, Note_on_c, 0, 40, 51
1, 335348, Control_c, 0, 64, 89
1, 335353, Note_on_c, 0, 83, 82
1, 335362, Note_on_c, 0, 79, 65
1, 335362, Control_c, 0, 64, 88
1, 335367, Note_on_c, 0, 71, 52
1, 335377, Control_c, 0, 64, 80
1, 335392, Control_c, 0, 64, 67
1, 335407, Control_c, 0, 64, 0
1, 335456, Note_off_c, 0, 40, 44
1, 335466, Control_c, 0, 64, 53
1, 335481, Control_c, 0, 64, 64
1, 335496, Control_c, 0, 64, 66
1, 335510, Control_c, 0, 64, 69
1, 335524, Note_on_c, 0, 52, 31
1, 335525, Control_c, 0, 64, 72
1, 335536, Note_off_c, 0, 71, 54
1, 335540, Control_c, 0, 64, 76
1, 335557, Note_off_c, 0, 83, 61
1, 335562, Control_c, 0, 64, 78
1, 335564, Note_off_c, 0, 52, 57
1, 335577, Control_c, 0, 64, 78
1, 335592, Control_c, 0, 64, 79
1, 335607, Control_c, 0, 64, 79
1, 335622, Control_c, 0, 64, 80
1, 335651, Control_c, 0, 64, 80
1, 335658, Note_on_c, 0, 84, 89
1, 335664, Note_on_c, 0, 55, 26
1, 335666, Control_c, 0, 64, 81
1, 335677, Note_on_c, 0, 72, 69
1, 335710, Control_c, 0, 64, 81
1, 335723, Note_off_c, 0, 55, 43
1, 335742, Note_off_c, 0, 79, 60
1, 335793, Note_on_c, 0, 60, 40
1, 335945, Note_off_c, 0, 60, 20
1, 335969, Note_on_c, 0, 50, 44
1, 335977, Control_c, 0, 64, 81
1, 335992, Control_c, 0, 64, 77
1, 336007, Control_c, 0, 64, 68
1, 336022, Control_c, 0, 64, 0
1, 336022, Note_on_c, 0, 77, 79
1, 336097, Control_c, 0, 64, 27
1, 336112, Control_c, 0, 64, 58
1, 336127, Control_c, 0, 64, 63
1, 336141, Control_c, 0, 64, 65
1, 336156, Control_c, 0, 64, 68
1, 336171, Control_c, 0, 64, 70
1, 336185, Control_c, 0, 64, 72
1, 336186, Note_on_c, 0, 55, 39
1, 336200, Control_c, 0, 64, 74
1, 336204, Note_off_c, 0, 50, 37
1, 336215, Control_c, 0, 64, 75
1, 336230, Control_c, 0, 64, 75
1, 336245, Control_c, 0, 64, 76
1, 336259, Control_c, 0, 64, 77
1, 336274, Control_c, 0, 64, 77
1, 336289, Control_c, 0, 64, 78
1, 336311, Control_c, 0, 64, 78
1, 336326, Control_c, 0, 64, 79
1, 336341, Control_c, 0, 64, 79
1, 336342, Note_on_c, 0, 59, 42
1, 336374, Note_off_c, 0, 55, 39
1, 336400, Control_c, 0, 64, 80
1, 336443, Note_on_c, 0, 65, 42
1, 336445, Control_c, 0, 64, 80
1, 336472, Note_off_c, 0, 65, 55
1, 336491, Note_off_c, 0, 77, 55
1, 336513, Note_off_c, 0, 59, 39
1, 336666, Note_on_c, 0, 48, 48
1, 336696, Control_c, 0, 64, 78
1, 336711, Control_c, 0, 64, 71
1, 336726, Control_c, 0, 64, 60
1, 336741, Control_c, 0, 64, 0
1, 336745, Note_on_c, 0, 76, 59
1, 336800, Control_c, 0, 64, 13
1, 336815, Control_c, 0, 64, 53
1, 336830, Control_c, 0, 64, 60
1, 336845, Control_c, 0, 64, 63
1, 336859, Control_c, 0, 64, 65
1, 336860, Note_off_c, 0, 84, 34
1, 336873, Note_off_c, 0, 48, 36
1, 336874, Control_c, 0, 64, 67
1, 336890, Control_c, 0, 64, 70
1, 336904, Note_on_c, 0, 55, 35
1, 336904, Control_c, 0, 64, 72
1, 336919, Control_c, 0, 64, 74
1, 336933, Control_c, 0, 64, 75
1, 336948, Control_c, 0, 64, 76
1, 336959, Note_off_c, 0, 72, 51
1, 336963, Control_c, 0, 64, 77
1, 336978, Control_c, 0, 64, 77
1, 336993, Control_c, 0, 64, 78
1, 337046, Note_on_c, 0, 60, 47
1, 337104, Control_c, 0, 64, 78
1, 337104, Control_c, 0, 67, 11
1, 337119, Control_c, 0, 67, 18
1, 337133, Control_c, 0, 67, 28
1, 337148, Control_c, 0, 67, 41
1, 337158, Note_off_c, 0, 60, 51
1, 337163, Control_c, 0, 67, 57
1, 337178, Control_c, 0, 67, 75
1, 337190, Note_on_c, 0, 64, 45
1, 337193, Control_c, 0, 67, 89
1, 337207, Control_c, 0, 67, 102
1, 337215, Note_off_c, 0, 64, 58
1, 337222, Control_c, 0, 67, 113
1, 337237, Control_c, 0, 67, 123
1, 337248, Note_off_c, 0, 55, 40
1, 337252, Control_c, 0, 67, 127
1, 337292, Note_off_c, 0, 76, 38
1, 337510, Note_on_c, 0, 38, 47
1, 337533, Control_c, 0, 64, 78
1, 337548, Control_c, 0, 64, 77
1, 337563, Control_c, 0, 64, 72
1, 337575, Note_on_c, 0, 69, 54
1, 337575, Note_on_c, 0, 77, 48
1, 337576, Note_on_c, 0, 81, 67
1, 337578, Control_c, 0, 64, 61
1, 337593, Control_c, 0, 64, 0
1, 337683, Control_c, 0, 64, 19
1, 337698, Control_c, 0, 64, 52
1, 337713, Control_c, 0, 64, 59
1, 337727, Control_c, 0, 64, 62
1, 337740, Note_off_c, 0, 38, 40
1, 337742, Control_c, 0, 64, 64
1, 337757, Control_c, 0, 64, 66
1, 337772, Control_c, 0, 64, 68
1, 337787, Control_c, 0, 64, 70
1, 337791, Note_off_c, 0, 81, 60
1, 337809, Control_c, 0, 64, 72
1, 337810, Note_off_c, 0, 69, 62
1, 337817, Note_on_c, 0, 45, 31
1, 337824, Control_c, 0, 64, 74
1, 337838, Control_c, 0, 64, 75
1, 337853, Control_c, 0, 64, 76
1, 337868, Control_c, 0, 64, 77
1, 337883, Control_c, 0, 64, 77
1, 337885, Note_off_c, 0, 45, 42
1, 337898, Control_c, 0, 64, 78
1, 337912, Control_c, 0, 64, 79
1, 337927, Control_c, 0, 64, 79
1, 337939, Note_on_c, 0, 50, 49
1, 337942, Control_c, 0, 64, 80
1, 337957, Control_c, 0, 64, 81
1, 337958, Note_on_c, 0, 82, 85
1, 337969, Note_on_c, 0, 70, 64
1, 337972, Control_c, 0, 64, 82
1, 337979, Note_off_c, 0, 50, 62
1, 337987, Control_c, 0, 64, 82
1, 338002, Control_c, 0, 64, 83
1, 338017, Control_c, 0, 64, 83
1, 338031, Control_c, 0, 64, 84
1, 338046, Control_c, 0, 64, 84
1, 338061, Control_c, 0, 64, 85
1, 338069, Note_on_c, 0, 53, 58
1, 338076, Control_c, 0, 64, 86
1, 338090, Control_c, 0, 64, 86
1, 338105, Control_c, 0, 64, 87
1, 338109, Note_off_c, 0, 70, 62
1, 338120, Control_c, 0, 64, 87
1, 338121, Note_off_c, 0, 82, 63
1, 338135, Control_c, 0, 64, 88
1, 338149, Note_off_c, 0, 53, 59
1, 338149, Control_c, 0, 64, 88
1, 338175, Note_on_c, 0, 57, 41
1, 338179, Control_c, 0, 64, 89
1, 338190, Note_on_c, 0, 81, 92
1, 338194, Control_c, 0, 64, 89
1, 338195, Note_on_c, 0, 69, 75
1, 338209, Control_c, 0, 64, 90
1, 338215, Note_off_c, 0, 57, 54
1, 338217, Note_off_c, 0, 77, 61
1, 338235, Note_off_c, 0, 69, 60
1, 338238, Control_c, 0, 64, 90
1, 338268, Control_c, 0, 64, 91
1, 338294, Note_off_c, 0, 81, 61
1, 338312, Control_c, 0, 64, 91
1, 338317, Note_on_c, 0, 62, 40
1, 338342, Control_c, 0, 64, 92
1, 338386, Control_c, 0, 64, 92
1, 338393, Note_off_c, 0, 62, 49
1, 338410, Note_on_c, 0, 86, 94
1, 338422, Note_on_c, 0, 74, 69
1, 338426, Note_on_c, 0, 65, 49
1, 338431, Control_c, 0, 64, 93
1, 338461, Control_c, 0, 64, 93
1, 338463, Note_off_c, 0, 86, 64
1, 338470, Note_off_c, 0, 65, 63
1, 338479, Note_off_c, 0, 74, 53
1, 338520, Control_c, 0, 64, 94
1, 338537, Note_on_c, 0, 62, 44
1, 338589, Note_off_c, 0, 62, 49
1, 338649, Note_on_c, 0, 77, 93
1, 338650, Note_on_c, 0, 57, 52
1, 338657, Note_on_c, 0, 65, 72
1, 338672, Note_off_c, 0, 65, 70
1, 338700, Note_off_c, 0, 57, 53
1, 338703, Note_off_c, 0, 77, 63
1, 338735, Note_on_c, 0, 53, 43
1, 338750, Control_c, 0, 67, 122
1, 338765, Control_c, 0, 67, 117
1, 338769, Note_off_c, 0, 53, 46
1, 338780, Control_c, 0, 67, 112
1, 338795, Control_c, 0, 67, 108
1, 338810, Control_c, 0, 67, 104
1, 338824, Control_c, 0, 67, 101
1, 338839, Control_c, 0, 67, 97
1, 338854, Control_c, 0, 67, 92
1, 338861, Note_on_c, 0, 50, 52
1, 338868, Note_on_c, 0, 82, 91
1, 338869, Control_c, 0, 67, 87
1, 338881, Note_on_c, 0, 70, 80
1, 338884, Control_c, 0, 67, 80
1, 338899, Control_c, 0, 64, 94
1, 338899, Control_c, 0, 67, 71
1, 338905, Note_off_c, 0, 50, 59
1, 338909, Note_off_c, 0, 70, 56
1, 338913, Control_c, 0, 67, 62
1, 338928, Control_c, 0, 67, 54
1, 338943, Control_c, 0, 67, 48
1, 338953, Note_off_c, 0, 82, 53
1, 338958, Control_c, 0, 67, 45
1, 338973, Control_c, 0, 67, 42
1, 338987, Control_c, 0, 67, 39
1, 339002, Control_c, 0, 67, 35
1, 339017, Control_c, 0, 67, 30
1, 339032, Control_c, 0, 67, 26
1, 339047, Control_c, 0, 67, 22
1, 339061, Control_c, 0, 67, 21
1, 339093, Note_on_c, 0, 36, 53
1, 339120, Control_c, 0, 64, 93
1, 339125, Note_on_c, 0, 76, 52
1, 339135, Control_c, 0, 64, 89
1, 339135, Control_c, 0, 67, 22
1, 339144, Note_on_c, 0, 80, 91
1, 339147, Note_on_c, 0, 68, 78
1, 339150, Control_c, 0, 64, 78
1, 339150, Control_c, 0, 67, 23
1, 339165, Control_c, 0, 64, 63
1, 339165, Control_c, 0, 67, 24
1, 339179, Control_c, 0, 64, 0
1, 339179, Control_c, 0, 67, 24
1, 339194, Control_c, 0, 67, 25
1, 339209, Control_c, 0, 67, 26
1, 339224, Control_c, 0, 64, 30
1, 339224, Control_c, 0, 67, 26
1, 339233, Note_off_c, 0, 36, 61
1, 339239, Control_c, 0, 64, 60
1, 339239, Control_c, 0, 67, 27
1, 339254, Control_c, 0, 64, 65
1, 339254, Control_c, 0, 67, 28
1, 339269, Control_c, 0, 64, 68
1, 339269, Control_c, 0, 67, 28
1, 339284, Control_c, 0, 64, 70
1, 339284, Control_c, 0, 67, 29
1, 339307, Control_c, 0, 64, 73
1, 339316, Note_on_c, 0, 48, 35
1, 339319, Note_off_c, 0, 68, 56
1, 339322, Control_c, 0, 64, 75
1, 339322, Control_c, 0, 67, 30
1, 339335, Note_off_c, 0, 80, 61
1, 339336, Control_c, 0, 64, 78
1, 339350, Note_off_c, 0, 48, 47
1, 339351, Control_c, 0, 64, 78
1, 339366, Control_c, 0, 64, 79
1, 339366, Control_c, 0, 67, 30
1, 339381, Control_c, 0, 64, 79
1, 339396, Control_c, 0, 67, 31
1, 339410, Control_c, 0, 67, 31
1, 339425, Control_c, 0, 67, 32
1, 339432, Note_on_c, 0, 52, 44
1, 339440, Control_c, 0, 67, 32
1, 339444, Note_on_c, 0, 81, 99
1, 339454, Note_on_c, 0, 69, 77
1, 339470, Control_c, 0, 67, 33
1, 339486, Note_off_c, 0, 76, 65
1, 339492, Note_off_c, 0, 52, 53
1, 339499, Control_c, 0, 67, 34
1, 339514, Control_c, 0, 67, 34
1, 339528, Control_c, 0, 67, 35
1, 339543, Control_c, 0, 67, 35
1, 339558, Control_c, 0, 67, 37
1, 339573, Control_c, 0, 67, 39
1, 339585, Note_on_c, 0, 57, 4
1, 339588, Control_c, 0, 67, 43
1, 339602, Control_c, 0, 67, 49
1, 339617, Control_c, 0, 67, 54
1, 339632, Control_c, 0, 64, 80
1, 339632, Control_c, 0, 67, 57
1, 339647, Control_c, 0, 67, 60
1, 339660, Note_off_c, 0, 57, 40
1, 339662, Control_c, 0, 67, 62
1, 339677, Control_c, 0, 67, 66
1, 339683, Note_on_c, 0, 46, 65
1, 339692, Control_c, 0, 67, 70
1, 339707, Control_c, 0, 67, 76
1, 339722, Control_c, 0, 67, 80
1, 339736, Control_c, 0, 67, 84
1, 339751, Control_c, 0, 64, 78
1, 339751, Control_c, 0, 67, 87
1, 339766, Control_c, 0, 64, 70
1, 339766, Control_c, 0, 67, 88
1, 339779, Note_on_c, 0, 74, 83
1, 339781, Control_c, 0, 64, 0
1, 339781, Control_c, 0, 67, 91
1, 339796, Control_c, 0, 67, 95
1, 339810, Control_c, 0, 67, 100
1, 339825, Control_c, 0, 67, 105
1, 339840, Control_c, 0, 67, 111
1, 339854, Control_c, 0, 67, 117
1, 339869, Control_c, 0, 67, 123
1, 339884, Control_c, 0, 64, 50
1, 339884, Control_c, 0, 67, 127
1, 339899, Control_c, 0, 64, 61
1, 339914, Control_c, 0, 64, 63
1, 339921, Note_on_c, 0, 52, 58
1, 339928, Control_c, 0, 64, 65
1, 339943, Control_c, 0, 64, 66
1, 339958, Control_c, 0, 64, 69
1, 339973, Control_c, 0, 64, 71
1, 339988, Control_c, 0, 64, 73
1, 340002, Control_c, 0, 64, 75
1, 340014, Note_off_c, 0, 46, 58
1, 340017, Control_c, 0, 64, 75
1, 340032, Control_c, 0, 64, 76
1, 340054, Control_c, 0, 64, 76
1, 340069, Control_c, 0, 64, 77
1, 340085, Note_on_c, 0, 56, 70
1, 340085, Control_c, 0, 64, 77
1, 340100, Control_c, 0, 64, 78
1, 340115, Control_c, 0, 64, 78
1, 340145, Control_c, 0, 64, 79
1, 340172, Note_off_c, 0, 52, 60
1, 340189, Control_c, 0, 64, 79
1, 340211, Note_on_c, 0, 62, 76
1, 340234, Note_off_c, 0, 56, 60
1, 340245, Note_off_c, 0, 62, 54
1, 340324, Note_off_c, 0, 74, 61
1, 340431, Note_on_c, 0, 45, 59
1, 340440, Control_c, 0, 64, 75
1, 340455, Control_c, 0, 64, 65
1, 340460, Note_on_c, 0, 73, 67
1, 340470, Control_c, 0, 64, 0
1, 340559, Control_c, 0, 64, 51
1, 340565, Note_off_c, 0, 45, 56
1, 340574, Control_c, 0, 64, 64
1, 340589, Control_c, 0, 64, 66
1, 340604, Control_c, 0, 64, 68
1, 340619, Control_c, 0, 64, 71
1, 340633, Control_c, 0, 64, 75
1, 340638, Note_on_c, 0, 52, 48
1, 340648, Control_c, 0, 64, 77
1, 340663, Control_c, 0, 64, 79
1, 340677, Control_c, 0, 64, 79
1, 340682, Note_off_c, 0, 69, 46
1, 340692, Control_c, 0, 64, 80
1, 340707, Control_c, 0, 64, 80
1, 340722, Control_c, 0, 64, 81
1, 340741, Note_off_c, 0, 52, 60
1, 340766, Control_c, 0, 64, 81
1, 340767, Note_on_c, 0, 57, 53
1, 340777, Note_off_c, 0, 81, 57
1, 340786, Note_off_c, 0, 73, 37
1, 340869, Note_off_c, 0, 57, 55
1, 340932, Note_on_c, 0, 61, 58
1, 340968, Note_off_c, 0, 61, 63
1, 341267, Note_on_c, 0, 41, 42
1, 341337, Control_c, 0, 64, 79
1, 341350, Note_on_c, 0, 84, 61
1, 341352, Control_c, 0, 64, 73
1, 341360, Note_on_c, 0, 81, 42
1, 341361, Note_on_c, 0, 72, 34
1, 341367, Control_c, 0, 64, 60
1, 341382, Control_c, 0, 64, 0
1, 341456, Control_c, 0, 67, 126
1, 341471, Control_c, 0, 64, 54
1, 341471, Control_c, 0, 67, 125
1, 341486, Control_c, 0, 64, 62
1, 341486, Control_c, 0, 67, 124
1, 341500, Control_c, 0, 64, 64
1, 341500, Control_c, 0, 67, 123
1, 341515, Control_c, 0, 64, 66
1, 341515, Control_c, 0, 67, 121
1, 341530, Control_c, 0, 64, 68
1, 341530, Control_c, 0, 67, 116
1, 341552, Control_c, 0, 64, 71
1, 341552, Control_c, 0, 67, 112
1, 341567, Control_c, 0, 64, 73
1, 341567, Control_c, 0, 67, 108
1, 341571, Note_off_c, 0, 41, 40
1, 341582, Control_c, 0, 64, 75
1, 341582, Control_c, 0, 67, 103
1, 341597, Control_c, 0, 64, 76
1, 341597, Control_c, 0, 67, 98
1, 341609, Note_off_c, 0, 72, 41
1, 341612, Control_c, 0, 64, 77
1, 341612, Control_c, 0, 67, 91
1, 341626, Control_c, 0, 64, 77
1, 341626, Control_c, 0, 67, 84
1, 341629, Note_off_c, 0, 84, 51
1, 341641, Control_c, 0, 64, 78
1, 341641, Control_c, 0, 67, 77
1, 341647, Note_on_c, 0, 48, 36
1, 341656, Control_c, 0, 64, 78
1, 341656, Control_c, 0, 67, 71
1, 341671, Control_c, 0, 64, 79
1, 341671, Control_c, 0, 67, 63
1, 341686, Control_c, 0, 64, 80
1, 341686, Control_c, 0, 67, 54
1, 341701, Control_c, 0, 67, 45
1, 341716, Control_c, 0, 64, 80
1, 341716, Control_c, 0, 67, 36
1, 341717, Note_off_c, 0, 48, 41
1, 341731, Control_c, 0, 64, 81
1, 341731, Control_c, 0, 67, 27
1, 341746, Control_c, 0, 67, 20
1, 341761, Control_c, 0, 64, 81
1, 341761, Control_c, 0, 67, 13
1, 341776, Control_c, 0, 67, 0
1, 341790, Control_c, 0, 64, 82
1, 341810, Note_on_c, 0, 53, 39
1, 341820, Control_c, 0, 64, 82
1, 341821, Note_on_c, 0, 86, 71
1, 341844, Note_on_c, 0, 74, 44
1, 341850, Control_c, 0, 64, 83
1, 341851, Note_off_c, 0, 53, 53
1, 341854, Note_off_c, 0, 81, 29
1, 341879, Control_c, 0, 64, 83
1, 341909, Control_c, 0, 64, 84
1, 341929, Note_off_c, 0, 74, 54
1, 341944, Note_off_c, 0, 86, 50
1, 341948, Note_on_c, 0, 57, 48
1, 341953, Control_c, 0, 64, 84
1, 342012, Control_c, 0, 64, 85
1, 342027, Note_off_c, 0, 57, 54
1, 342075, Note_on_c, 0, 60, 27
1, 342077, Note_on_c, 0, 84, 75
1, 342089, Note_on_c, 0, 72, 58
1, 342114, Note_off_c, 0, 60, 49
1, 342124, Note_off_c, 0, 72, 49
1, 342130, Control_c, 0, 64, 85
1, 342207, Note_off_c, 0, 84, 59
1, 342208, Note_on_c, 0, 65, 37
1, 342264, Control_c, 0, 64, 86
1, 342319, Note_off_c, 0, 65, 33
1, 342324, Note_on_c, 0, 89, 83
1, 342339, Note_on_c, 0, 77, 58
1, 342354, Note_on_c, 0, 69, 37
1, 342370, Note_off_c, 0, 89, 63
1, 342375, Control_c, 0, 64, 86
1, 342393, Note_off_c, 0, 69, 51
1, 342396, Note_off_c, 0, 77, 43
1, 342458, Note_on_c, 0, 65, 41
1, 342495, Control_c, 0, 64, 87
1, 342497, Note_off_c, 0, 65, 51
1, 342562, Note_on_c, 0, 81, 90
1, 342572, Note_on_c, 0, 69, 70
1, 342578, Note_on_c, 0, 60, 44
1, 342593, Note_off_c, 0, 69, 65
1, 342615, Note_off_c, 0, 60, 51
1, 342637, Note_on_c, 0, 57, 41
1, 342659, Note_off_c, 0, 81, 58
1, 342665, Note_off_c, 0, 57, 57
1, 342776, Note_on_c, 0, 53, 53
1, 342789, Note_on_c, 0, 86, 85
1, 342799, Note_on_c, 0, 74, 68
1, 342825, Note_off_c, 0, 53, 58
1, 342839, Note_off_c, 0, 86, 60
1, 342863, Note_off_c, 0, 74, 58
1, 343057, Note_on_c, 0, 40, 73
1, 343079, Control_c, 0, 64, 86
1, 343094, Control_c, 0, 64, 82
1, 343099, Note_on_c, 0, 83, 85
1, 343104, Note_on_c, 0, 79, 67
1, 343109, Control_c, 0, 64, 71
1, 343111, Note_on_c, 0, 71, 57
1, 343124, Control_c, 0, 64, 0
1, 343198, Control_c, 0, 64, 57
1, 343213, Control_c, 0, 64, 65
1, 343215, Note_off_c, 0, 40, 60
1, 343227, Control_c, 0, 64, 68
1, 343242, Control_c, 0, 64, 71
1, 343257, Control_c, 0, 64, 74
1, 343273, Control_c, 0, 64, 77
1, 343288, Note_off_c, 0, 71, 43
1, 343288, Control_c, 0, 64, 79
1, 343293, Note_on_c, 0, 52, 42
1, 343302, Control_c, 0, 64, 79
1, 343308, Note_off_c, 0, 83, 57
1, 343317, Control_c, 0, 64, 80
1, 343321, Note_off_c, 0, 52, 57
1, 343332, Control_c, 0, 64, 80
1, 343347, Control_c, 0, 64, 81
1, 343362, Control_c, 0, 64, 81
1, 343391, Control_c, 0, 64, 82
1, 343412, Note_on_c, 0, 84, 91
1, 343425, Note_on_c, 0, 72, 70
1, 343433, Note_on_c, 0, 55, 35
1, 343464, Note_off_c, 0, 79, 61
1, 343472, Note_off_c, 0, 55, 49
1, 343688, Control_c, 0, 64, 81
1, 343700, Note_on_c, 0, 50, 52
1, 343702, Control_c, 0, 64, 77
1, 343717, Control_c, 0, 64, 67
1, 343732, Control_c, 0, 64, 0
1, 343761, Note_on_c, 0, 77, 82
1, 343829, Control_c, 0, 64, 57
1, 343843, Control_c, 0, 64, 63
1, 343858, Control_c, 0, 64, 65
1, 343873, Control_c, 0, 64, 66
1, 343888, Control_c, 0, 64, 68
1, 343902, Control_c, 0, 64, 70
1, 343917, Control_c, 0, 64, 71
1, 343932, Control_c, 0, 64, 73
1, 343947, Control_c, 0, 64, 74
1, 343949, Note_on_c, 0, 55, 37
1, 343962, Control_c, 0, 64, 75
1, 343976, Control_c, 0, 64, 77
1, 343980, Note_off_c, 0, 50, 32
1, 343991, Control_c, 0, 64, 77
1, 344006, Control_c, 0, 64, 78
1, 344020, Control_c, 0, 64, 78
1, 344035, Control_c, 0, 64, 79
1, 344089, Note_on_c, 0, 59, 45
1, 344096, Note_off_c, 0, 55, 40
1, 344207, Note_on_c, 0, 65, 55
1, 344232, Note_off_c, 0, 65, 64
1, 344246, Note_off_c, 0, 59, 54
1, 344247, Note_off_c, 0, 77, 56
1, 344274, Control_c, 0, 64, 79
1, 344378, Control_c, 0, 64, 79
1, 344393, Control_c, 0, 64, 77
1, 344408, Control_c, 0, 64, 71
1, 344423, Control_c, 0, 64, 57
1, 344431, Note_on_c, 0, 48, 46
1, 344437, Control_c, 0, 64, 0
1, 344452, Note_on_c, 0, 76, 62
1, 344482, Control_c, 0, 64, 44
1, 344497, Control_c, 0, 64, 60
1, 344512, Control_c, 0, 64, 64
1, 344526, Control_c, 0, 64, 66
1, 344548, Control_c, 0, 64, 68
1, 344563, Control_c, 0, 64, 70
1, 344578, Control_c, 0, 64, 72
1, 344593, Control_c, 0, 64, 74
1, 344607, Control_c, 0, 64, 76
1, 344611, Note_off_c, 0, 48, 49
1, 344613, Note_off_c, 0, 84, 52
1, 344622, Control_c, 0, 64, 77
1, 344637, Control_c, 0, 64, 77
1, 344640, Note_on_c, 0, 55, 37
1, 344652, Control_c, 0, 64, 78
1, 344667, Control_c, 0, 64, 79
1, 344673, Note_off_c, 0, 72, 50
1, 344682, Control_c, 0, 64, 80
1, 344712, Control_c, 0, 64, 80
1, 344741, Control_c, 0, 64, 81
1, 344771, Control_c, 0, 64, 81
1, 344782, Note_on_c, 0, 60, 53
1, 344815, Control_c, 0, 64, 82
1, 344892, Note_off_c, 0, 60, 57
1, 344927, Note_on_c, 0, 64, 55
1, 344948, Note_off_c, 0, 64, 62
1, 344996, Note_off_c, 0, 55, 40
1, 345007, Note_off_c, 0, 76, 41
1, 345221, Note_on_c, 0, 38, 41
1, 345260, Control_c, 0, 64, 81
1, 345260, Control_c, 0, 67, 8
1, 345260, Note_on_c, 0, 81, 72
1, 345269, Note_on_c, 0, 69, 54
1, 345271, Note_on_c, 0, 77, 58
1, 345274, Control_c, 0, 64, 77
1, 345274, Control_c, 0, 67, 10
1, 345296, Control_c, 0, 64, 67
1, 345296, Control_c, 0, 67, 12
1, 345311, Control_c, 0, 64, 0
1, 345311, Control_c, 0, 67, 14
1, 345326, Control_c, 0, 67, 16
1, 345341, Control_c, 0, 67, 18
1, 345356, Control_c, 0, 67, 20
1, 345370, Control_c, 0, 67, 23
1, 345385, Control_c, 0, 67, 27
1, 345400, Control_c, 0, 64, 50
1, 345400, Control_c, 0, 67, 30
1, 345415, Control_c, 0, 64, 60
1, 345415, Control_c, 0, 67, 33
1, 345430, Control_c, 0, 64, 63
1, 345430, Control_c, 0, 67, 35
1, 345445, Control_c, 0, 64, 64
1, 345445, Control_c, 0, 67, 38
1, 345460, Control_c, 0, 64, 66
1, 345460, Control_c, 0, 67, 41
1, 345464, Note_off_c, 0, 38, 40
1, 345474, Control_c, 0, 64, 68
1, 345474, Control_c, 0, 67, 44
1, 345489, Control_c, 0, 64, 71
1, 345489, Control_c, 0, 67, 48
1, 345504, Control_c, 0, 64, 73
1, 345504, Control_c, 0, 67, 52
1, 345506, Note_on_c, 0, 45, 41
1, 345508, Note_off_c, 0, 81, 60
1, 345519, Control_c, 0, 64, 75
1, 345519, Control_c, 0, 67, 56
1, 345531, Note_off_c, 0, 69, 62
1, 345534, Control_c, 0, 64, 75
1, 345534, Control_c, 0, 67, 58
1, 345548, Control_c, 0, 64, 76
1, 345548, Control_c, 0, 67, 61
1, 345563, Control_c, 0, 64, 77
1, 345563, Control_c, 0, 67, 64
1, 345578, Control_c, 0, 64, 77
1, 345578, Control_c, 0, 67, 66
1, 345585, Note_off_c, 0, 45, 52
1, 345593, Control_c, 0, 64, 78
1, 345593, Control_c, 0, 67, 68
1, 345608, Control_c, 0, 64, 78
1, 345608, Control_c, 0, 67, 71
1, 345622, Control_c, 0, 64, 79
1, 345622, Control_c, 0, 67, 73
1, 345637, Control_c, 0, 64, 79
1, 345637, Control_c, 0, 67, 75
1, 345652, Control_c, 0, 67, 78
1, 345668, Control_c, 0, 64, 80
1, 345668, Control_c, 0, 67, 80
1, 345669, Note_on_c, 0, 50, 39
1, 345683, Control_c, 0, 67, 82
1, 345686, Note_on_c, 0, 82, 86
1, 345697, Control_c, 0, 64, 80
1, 345697, Control_c, 0, 67, 85
1, 345698, Note_on_c, 0, 70, 72
1, 345712, Control_c, 0, 67, 88
1, 345719, Note_off_c, 0, 50, 45
1, 345727, Control_c, 0, 64, 81
1, 345727, Control_c, 0, 67, 91
1, 345742, Control_c, 0, 67, 95
1, 345757, Control_c, 0, 67, 101
1, 345771, Control_c, 0, 64, 81
1, 345771, Control_c, 0, 67, 108
1, 345786, Control_c, 0, 67, 117
1, 345800, Note_on_c, 0, 53, 56
1, 345801, Control_c, 0, 67, 123
1, 345816, Control_c, 0, 67, 127
1, 345833, Note_off_c, 0, 82, 62
1, 345839, Note_off_c, 0, 70, 60
1, 345883, Note_off_c, 0, 53, 62
1, 345913, Note_on_c, 0, 57, 44
1, 345922, Note_on_c, 0, 81, 95
1, 345926, Note_on_c, 0, 69, 79
1, 345937, Note_off_c, 0, 77, 61
1, 345967, Note_off_c, 0, 69, 62
1, 345974, Note_off_c, 0, 57, 57
1, 346049, Note_off_c, 0, 81, 59
1, 346056, Note_on_c, 0, 62, 43
1, 346157, Note_on_c, 0, 86, 92
1, 346165, Note_on_c, 0, 74, 79
1, 346170, Note_off_c, 0, 62, 33
1, 346173, Note_on_c, 0, 65, 56
1, 346202, Note_off_c, 0, 86, 62
1, 346223, Note_off_c, 0, 74, 62
1, 346225, Note_off_c, 0, 65, 58
1, 346286, Note_on_c, 0, 62, 51
1, 346334, Note_off_c, 0, 62, 43
1, 346387, Note_on_c, 0, 57, 56
1, 346387, Note_on_c, 0, 77, 93
1, 346396, Note_on_c, 0, 65, 80
1, 346418, Note_off_c, 0, 65, 68
1, 346453, Note_off_c, 0, 77, 60
1, 346456, Note_off_c, 0, 57, 61
1, 346478, Note_on_c, 0, 53, 48
1, 346500, Note_off_c, 0, 53, 62
1, 346506, Control_c, 0, 64, 82
1, 346608, Note_on_c, 0, 50, 59
1, 346617, Note_on_c, 0, 82, 91
1, 346626, Note_on_c, 0, 70, 83
1, 346652, Note_off_c, 0, 50, 57
1, 346667, Control_c, 0, 64, 82
1, 346670, Note_off_c, 0, 70, 44
1, 346689, Note_off_c, 0, 82, 56
1, 346697, Control_c, 0, 67, 127
1, 346712, Control_c, 0, 67, 121
1, 346727, Control_c, 0, 67, 114
1, 346742, Control_c, 0, 64, 83
1, 346742, Control_c, 0, 67, 106
1, 346757, Control_c, 0, 67, 98
1, 346772, Control_c, 0, 67, 88
1, 346793, Control_c, 0, 67, 77
1, 346808, Control_c, 0, 67, 67
1, 346823, Control_c, 0, 67, 58
1, 346831, Note_on_c, 0, 36, 63
1, 346838, Control_c, 0, 67, 50
1, 346852, Control_c, 0, 67, 44
1, 346867, Control_c, 0, 64, 82
1, 346867, Control_c, 0, 67, 42
1, 346882, Control_c, 0, 64, 78
1, 346891, Note_on_c, 0, 76, 68
1, 346897, Note_on_c, 0, 80, 96
1, 346897, Control_c, 0, 64, 68
1, 346899, Note_on_c, 0, 68, 81
1, 346912, Control_c, 0, 64, 0
1, 346927, Control_c, 0, 67, 43
1, 346956, Control_c, 0, 67, 43
1, 346971, Control_c, 0, 67, 44
1, 346986, Control_c, 0, 64, 59
1, 346986, Control_c, 0, 67, 44
1, 347001, Control_c, 0, 64, 65
1, 347001, Control_c, 0, 67, 45
1, 347016, Control_c, 0, 64, 68
1, 347016, Control_c, 0, 67, 45
1, 347022, Note_off_c, 0, 36, 63
1, 347031, Control_c, 0, 64, 71
1, 347045, Control_c, 0, 64, 74
1, 347045, Control_c, 0, 67, 46
1, 347060, Control_c, 0, 64, 77
1, 347060, Control_c, 0, 67, 46
1, 347064, Note_on_c, 0, 48, 51
1, 347075, Control_c, 0, 64, 78
1, 347090, Control_c, 0, 64, 79
1, 347093, Note_off_c, 0, 48, 57
1, 347103, Note_off_c, 0, 68, 59
1, 347105, Control_c, 0, 64, 79
1, 347105, Control_c, 0, 67, 47
1, 347108, Note_off_c, 0, 80, 62
1, 347119, Control_c, 0, 64, 80
1, 347134, Control_c, 0, 67, 48
1, 347149, Control_c, 0, 67, 48
1, 347164, Control_c, 0, 67, 49
1, 347179, Control_c, 0, 64, 80
1, 347193, Control_c, 0, 67, 50
1, 347198, Note_on_c, 0, 81, 99
1, 347203, Note_on_c, 0, 69, 82
1, 347208, Control_c, 0, 67, 50
1, 347210, Note_on_c, 0, 52, 33
1, 347223, Control_c, 0, 67, 51
1, 347236, Note_off_c, 0, 76, 64
1, 347237, Control_c, 0, 67, 51
1, 347247, Note_off_c, 0, 52, 53
1, 347269, Control_c, 0, 67, 52
1, 347284, Control_c, 0, 67, 52
1, 347298, Control_c, 0, 67, 53
1, 347326, Note_on_c, 0, 57, 29
1, 347328, Control_c, 0, 67, 54
1, 347342, Control_c, 0, 67, 55
1, 347357, Control_c, 0, 67, 57
1, 347372, Control_c, 0, 67, 61
1, 347387, Control_c, 0, 67, 65
1, 347402, Control_c, 0, 67, 68
1, 347416, Control_c, 0, 67, 71
1, 347431, Control_c, 0, 67, 73
1, 347446, Control_c, 0, 67, 75
1, 347452, Note_on_c, 0, 46, 79
1, 347457, Note_off_c, 0, 57, 37
1, 347460, Control_c, 0, 67, 77
1, 347475, Control_c, 0, 67, 79
1, 347490, Control_c, 0, 64, 77
1, 347490, Control_c, 0, 67, 82
1, 347504, Note_on_c, 0, 74, 77
1, 347505, Control_c, 0, 64, 67
1, 347505, Control_c, 0, 67, 85
1, 347520, Control_c, 0, 64, 0
1, 347520, Control_c, 0, 67, 88
1, 347542, Control_c, 0, 67, 91
1, 347557, Control_c, 0, 67, 93
1, 347572, Control_c, 0, 67, 95
1, 347587, Control_c, 0, 67, 97
1, 347602, Control_c, 0, 67, 101
1, 347616, Control_c, 0, 64, 62
1, 347616, Control_c, 0, 67, 105
1, 347631, Control_c, 0, 64, 66
1, 347631, Control_c, 0, 67, 109
1, 347646, Control_c, 0, 64, 69
1, 347646, Control_c, 0, 67, 113
1, 347661, Control_c, 0, 64, 71
1, 347661, Control_c, 0, 67, 116
1, 347669, Note_on_c, 0, 52, 63
1, 347675, Control_c, 0, 64, 74
1, 347675, Control_c, 0, 67, 118
1, 347690, Control_c, 0, 64, 77
1, 347690, Control_c, 0, 67, 121
1, 347705, Control_c, 0, 64, 79
1, 347705, Control_c, 0, 67, 124
1, 347720, Control_c, 0, 64, 79
1, 347720, Control_c, 0, 67, 126
1, 347735, Control_c, 0, 64, 80
1, 347735, Control_c, 0, 67, 127
1, 347749, Control_c, 0, 64, 80
1, 347755, Note_off_c, 0, 46, 60
1, 347764, Control_c, 0, 64, 81
1, 347794, Control_c, 0, 64, 81
1, 347812, Note_on_c, 0, 56, 74
1, 347839, Control_c, 0, 64, 82
1, 347904, Note_off_c, 0, 52, 49
1, 347937, Note_on_c, 0, 62, 75
1, 347968, Note_off_c, 0, 56, 60
1, 347978, Note_off_c, 0, 62, 55
1, 348014, Note_off_c, 0, 74, 60
1, 348151, Control_c, 0, 64, 80
1, 348165, Control_c, 0, 64, 74
1, 348171, Note_on_c, 0, 45, 63
1, 348180, Control_c, 0, 64, 61
1, 348195, Note_on_c, 0, 73, 73
1, 348195, Control_c, 0, 64, 0
1, 348269, Control_c, 0, 64, 46
1, 348291, Control_c, 0, 64, 64
1, 348306, Control_c, 0, 64, 66
1, 348321, Control_c, 0, 64, 68
1, 348323, Note_off_c, 0, 45, 57
1, 348336, Control_c, 0, 64, 70
1, 348351, Control_c, 0, 64, 72
1, 348365, Control_c, 0, 64, 75
1, 348380, Control_c, 0, 64, 77
1, 348387, Note_on_c, 0, 52, 53
1, 348395, Control_c, 0, 64, 78
1, 348405, Note_off_c, 0, 69, 41
1, 348410, Control_c, 0, 64, 79
1, 348425, Control_c, 0, 64, 79
1, 348454, Control_c, 0, 64, 80
1, 348511, Note_off_c, 0, 81, 58
1, 348520, Note_off_c, 0, 73, 58
1, 348535, Note_on_c, 0, 57, 55
1, 348572, Control_c, 0, 64, 80
1, 348591, Note_off_c, 0, 52, 36
1, 348665, Note_off_c, 0, 57, 59
1, 348696, Note_on_c, 0, 61, 60
1, 348730, Note_off_c, 0, 61, 64
1, 349001, Note_on_c, 0, 41, 47
1, 349018, Control_c, 0, 64, 80
1, 349040, Control_c, 0, 64, 78
1, 349055, Control_c, 0, 64, 68
1, 349070, Note_on_c, 0, 84, 60
1, 349070, Control_c, 0, 64, 0
1, 349075, Note_on_c, 0, 72, 46
1, 349083, Note_on_c, 0, 81, 45
1, 349159, Control_c, 0, 64, 52
1, 349174, Control_c, 0, 64, 64
1, 349188, Control_c, 0, 64, 66
1, 349200, Note_off_c, 0, 41, 42
1, 349203, Control_c, 0, 64, 68
1, 349218, Control_c, 0, 64, 70
1, 349233, Control_c, 0, 64, 73
1, 349247, Control_c, 0, 64, 76
1, 349249, Note_off_c, 0, 72, 37
1, 349262, Control_c, 0, 64, 78
1, 349275, Note_off_c, 0, 84, 51
1, 349277, Control_c, 0, 64, 78
1, 349292, Control_c, 0, 64, 79
1, 349308, Note_on_c, 0, 53, 42
1, 349321, Control_c, 0, 64, 79
1, 349336, Control_c, 0, 64, 80
1, 349349, Note_off_c, 0, 53, 64
1, 349351, Control_c, 0, 64, 80
1, 349395, Control_c, 0, 64, 81
1, 349454, Control_c, 0, 64, 81
1, 349472, Note_off_c, 0, 81, 29
1, 349482, Note_on_c, 0, 57, 51
1, 349491, Note_on_c, 0, 86, 74
1, 349499, Control_c, 0, 64, 82
1, 349501, Note_on_c, 0, 74, 52
1, 349529, Control_c, 0, 64, 82
1, 349574, Control_c, 0, 64, 83
1, 349600, Note_off_c, 0, 86, 51
1, 349618, Control_c, 0, 64, 83
1, 349618, Note_off_c, 0, 74, 36
1, 349626, Note_on_c, 0, 63, 44
1, 349663, Control_c, 0, 64, 84
1, 349663, Control_c, 0, 67, 123
1, 349668, Note_off_c, 0, 57, 36
1, 349678, Control_c, 0, 67, 120
1, 349693, Control_c, 0, 67, 118
1, 349708, Control_c, 0, 67, 115
1, 349723, Note_off_c, 0, 63, 38
1, 349723, Control_c, 0, 67, 112
1, 349737, Control_c, 0, 67, 108
1, 349745, Note_on_c, 0, 84, 78
1, 349746, Note_on_c, 0, 65, 39
1, 349752, Control_c, 0, 67, 105
1, 349754, Note_on_c, 0, 72, 64
1, 349767, Control_c, 0, 67, 102
1, 349776, Note_off_c, 0, 65, 50
1, 349789, Control_c, 0, 67, 100
1, 349792, Note_off_c, 0, 72, 54
1, 349804, Control_c, 0, 67, 97
1, 349818, Control_c, 0, 67, 96
1, 349833, Control_c, 0, 67, 96
1, 349878, Note_on_c, 0, 69, 50
1, 349879, Note_off_c, 0, 84, 59
1, 349907, Control_c, 0, 67, 96
1, 349967, Control_c, 0, 67, 97
1, 349987, Note_off_c, 0, 69, 52
1, 349988, Note_on_c, 0, 89, 86
1, 349997, Control_c, 0, 67, 97
1, 350000, Note_on_c, 0, 77, 66
1, 350024, Note_on_c, 0, 75, 55
1, 350045, Note_off_c, 0, 89, 63
1, 350050, Note_off_c, 0, 75, 54
1, 350065, Note_off_c, 0, 77, 36
1, 350113, Note_on_c, 0, 69, 58
1, 350115, Control_c, 0, 67, 98
1, 350187, Note_off_c, 0, 69, 62
1, 350222, Note_on_c, 0, 84, 84
1, 350227, Note_on_c, 0, 72, 75
1, 350228, Note_on_c, 0, 65, 46
1, 350233, Control_c, 0, 67, 98
1, 350253, Note_off_c, 0, 65, 56
1, 350255, Note_off_c, 0, 72, 65
1, 350262, Control_c, 0, 67, 99
1, 350301, Note_off_c, 0, 84, 61
1, 350322, Control_c, 0, 67, 99
1, 350337, Control_c, 0, 67, 100
1, 350360, Note_on_c, 0, 60, 59
1, 350366, Control_c, 0, 67, 100
1, 350423, Note_off_c, 0, 60, 49
1, 350465, Note_on_c, 0, 87, 86
1, 350470, Note_on_c, 0, 57, 50
1, 350471, Control_c, 0, 67, 101
1, 350480, Note_on_c, 0, 75, 73
1, 350509, Note_off_c, 0, 57, 63
1, 350539, Note_off_c, 0, 87, 59
1, 350556, Note_on_c, 0, 53, 30
1, 350562, Note_off_c, 0, 75, 46
1, 350602, Note_off_c, 0, 53, 43
1, 350685, Control_c, 0, 67, 101
1, 350700, Control_c, 0, 67, 102
1, 350715, Control_c, 0, 67, 102
1, 350727, Note_on_c, 0, 41, 58
1, 350730, Control_c, 0, 64, 83
1, 350730, Control_c, 0, 67, 103
1, 350745, Control_c, 0, 64, 77
1, 350760, Note_on_c, 0, 85, 76
1, 350760, Control_c, 0, 64, 64
1, 350760, Control_c, 0, 67, 104
1, 350762, Note_on_c, 0, 81, 64
1, 350771, Note_on_c, 0, 73, 58
1, 350775, Control_c, 0, 64, 0
1, 350820, Control_c, 0, 67, 103
1, 350845, Note_off_c, 0, 41, 58
1, 350849, Control_c, 0, 64, 59
1, 350864, Control_c, 0, 64, 65
1, 350879, Control_c, 0, 64, 68
1, 350893, Control_c, 0, 64, 71
1, 350903, Note_on_c, 0, 53, 47
1, 350908, Control_c, 0, 64, 74
1, 350908, Control_c, 0, 67, 103
1, 350923, Control_c, 0, 64, 77
1, 350923, Control_c, 0, 67, 102
1, 350933, Note_off_c, 0, 53, 59
1, 350938, Control_c, 0, 64, 79
1, 350948, Note_off_c, 0, 85, 63
1, 350964, Note_off_c, 0, 73, 53
1, 350967, Control_c, 0, 64, 79
1, 350967, Control_c, 0, 67, 102
1, 350997, Control_c, 0, 64, 80
1, 351037, Note_on_c, 0, 57, 48
1, 351041, Control_c, 0, 67, 101
1, 351055, Note_on_c, 0, 86, 92
1, 351064, Note_on_c, 0, 74, 71
1, 351089, Note_off_c, 0, 57, 57
1, 351090, Note_off_c, 0, 81, 59
1, 351130, Control_c, 0, 64, 80
1, 351163, Note_on_c, 0, 62, 40
1, 351287, Control_c, 0, 67, 102
1, 351302, Control_c, 0, 67, 102
1, 351315, Note_on_c, 0, 53, 56
1, 351316, Control_c, 0, 64, 79
1, 351331, Control_c, 0, 64, 74
1, 351331, Control_c, 0, 67, 103
1, 351336, Note_off_c, 0, 62, 38
1, 351346, Control_c, 0, 64, 60
1, 351346, Control_c, 0, 67, 103
1, 351361, Control_c, 0, 64, 0
1, 351376, Control_c, 0, 67, 104
1, 351379, Note_on_c, 0, 82, 88
1, 351390, Control_c, 0, 67, 104
1, 351405, Control_c, 0, 64, 48
1, 351405, Control_c, 0, 67, 105
1, 351420, Control_c, 0, 64, 61
1, 351420, Control_c, 0, 67, 105
1, 351435, Control_c, 0, 64, 65
1, 351435, Control_c, 0, 67, 106
1, 351450, Control_c, 0, 64, 69
1, 351450, Control_c, 0, 67, 106
1, 351457, Note_off_c, 0, 53, 63
1, 351464, Control_c, 0, 64, 72
1, 351464, Control_c, 0, 67, 107
1, 351479, Control_c, 0, 64, 75
1, 351479, Control_c, 0, 67, 107
1, 351490, Note_on_c, 0, 58, 53
1, 351494, Control_c, 0, 64, 77
1, 351494, Control_c, 0, 67, 108
1, 351508, Control_c, 0, 64, 78
1, 351508, Control_c, 0, 67, 108
1, 351523, Control_c, 0, 64, 79
1, 351523, Control_c, 0, 67, 109
1, 351538, Control_c, 0, 64, 80
1, 351538, Control_c, 0, 67, 112
1, 351553, Control_c, 0, 64, 80
1, 351553, Control_c, 0, 67, 117
1, 351563, Note_off_c, 0, 58, 64
1, 351568, Control_c, 0, 67, 121
1, 351583, Control_c, 0, 64, 81
1, 351583, Control_c, 0, 67, 126
1, 351598, Control_c, 0, 64, 81
1, 351598, Control_c, 0, 67, 127
1, 351642, Control_c, 0, 64, 82
1, 351654, Note_on_c, 0, 70, 62
1, 351691, Note_off_c, 0, 70, 62
1, 351794, Note_on_c, 0, 62, 43
1, 351865, Note_off_c, 0, 82, 28
1, 351866, Note_off_c, 0, 62, 34
1, 351953, Control_c, 0, 64, 78
1, 351966, Note_on_c, 0, 53, 48
1, 351968, Control_c, 0, 64, 69
1, 351982, Control_c, 0, 64, 0
1, 351983, Note_on_c, 0, 81, 68
1, 352065, Control_c, 0, 64, 47
1, 352080, Control_c, 0, 64, 63
1, 352095, Control_c, 0, 64, 65
1, 352110, Control_c, 0, 64, 67
1, 352125, Control_c, 0, 64, 69
1, 352134, Note_off_c, 0, 53, 48
1, 352139, Control_c, 0, 64, 71
1, 352149, Note_on_c, 0, 57, 41
1, 352154, Control_c, 0, 64, 73
1, 352169, Control_c, 0, 64, 75
1, 352184, Control_c, 0, 64, 77
1, 352190, Note_off_c, 0, 57, 60
1, 352199, Control_c, 0, 64, 77
1, 352213, Control_c, 0, 64, 78
1, 352218, Note_off_c, 0, 86, 32
1, 352228, Control_c, 0, 64, 78
1, 352243, Control_c, 0, 64, 79
1, 352257, Control_c, 0, 64, 79
1, 352287, Control_c, 0, 64, 80
1, 352298, Note_on_c, 0, 69, 54
1, 352312, Note_off_c, 0, 81, 55
1, 352346, Control_c, 0, 64, 80
1, 352356, Note_off_c, 0, 69, 51
1, 352411, Note_off_c, 0, 74, 42
1, 352455, Note_on_c, 0, 62, 39
1, 352484, Note_off_c, 0, 62, 50
1, 352724, Note_on_c, 0, 40, 45
1, 352731, Control_c, 0, 64, 78
1, 352746, Control_c, 0, 64, 72
1, 352761, Control_c, 0, 64, 54
1, 352781, Note_on_c, 0, 83, 62
1, 352783, Control_c, 0, 64, 0
1, 352784, Note_on_c, 0, 80, 51
1, 352793, Note_on_c, 0, 71, 41
1, 352859, Control_c, 0, 64, 55
1, 352873, Control_c, 0, 64, 64
1, 352888, Control_c, 0, 64, 67
1, 352903, Control_c, 0, 64, 69
1, 352918, Control_c, 0, 64, 71
1, 352920, Note_off_c, 0, 40, 43
1, 352933, Control_c, 0, 64, 74
1, 352948, Control_c, 0, 64, 77
1, 352956, Note_off_c, 0, 71, 54
1, 352962, Control_c, 0, 64, 79
1, 352977, Control_c, 0, 64, 80
1, 352992, Control_c, 0, 64, 81
1, 352994, Note_off_c, 0, 83, 54
1, 353007, Control_c, 0, 64, 82
1, 353022, Control_c, 0, 64, 83
1, 353027, Note_on_c, 0, 52, 32
1, 353036, Control_c, 0, 64, 83
1, 353051, Control_c, 0, 64, 84
1, 353058, Note_off_c, 0, 52, 53
1, 353080, Control_c, 0, 64, 84
1, 353154, Control_c, 0, 64, 85
1, 353160, Note_on_c, 0, 56, 45
1, 353177, Note_on_c, 0, 84, 69
1, 353192, Note_on_c, 0, 72, 44
1, 353243, Control_c, 0, 64, 85
1, 353279, Note_off_c, 0, 56, 35
1, 353282, Note_off_c, 0, 84, 53
1, 353303, Note_on_c, 0, 62, 49
1, 353303, Control_c, 0, 64, 86
1, 353324, Note_off_c, 0, 72, 39
1, 353348, Note_off_c, 0, 62, 56
1, 353362, Control_c, 0, 64, 86
1, 353400, Note_off_c, 0, 80, 62
1, 353406, Control_c, 0, 67, 127
1, 353421, Control_c, 0, 64, 87
1, 353421, Control_c, 0, 67, 123
1, 353422, Note_on_c, 0, 83, 79
1, 353435, Note_on_c, 0, 71, 60
1, 353436, Control_c, 0, 67, 119
1, 353437, Note_on_c, 0, 64, 51
1, 353451, Control_c, 0, 67, 115
1, 353462, Note_off_c, 0, 71, 56
1, 353466, Control_c, 0, 67, 111
1, 353480, Control_c, 0, 64, 87
1, 353480, Control_c, 0, 67, 107
1, 353495, Control_c, 0, 67, 102
1, 353505, Note_off_c, 0, 64, 58
1, 353510, Control_c, 0, 67, 98
1, 353532, Control_c, 0, 67, 95
1, 353545, Note_off_c, 0, 83, 56
1, 353547, Control_c, 0, 64, 88
1, 353547, Control_c, 0, 67, 92
1, 353562, Control_c, 0, 67, 89
1, 353577, Control_c, 0, 67, 86
1, 353592, Control_c, 0, 67, 84
1, 353606, Control_c, 0, 64, 88
1, 353606, Control_c, 0, 67, 81
1, 353621, Control_c, 0, 67, 78
1, 353636, Control_c, 0, 67, 76
1, 353651, Control_c, 0, 67, 75
1, 353666, Control_c, 0, 67, 73
1, 353670, Note_on_c, 0, 88, 88
1, 353681, Control_c, 0, 64, 89
1, 353681, Control_c, 0, 67, 72
1, 353685, Note_on_c, 0, 76, 68
1, 353696, Control_c, 0, 67, 70
1, 353703, Note_on_c, 0, 74, 35
1, 353711, Control_c, 0, 67, 67
1, 353726, Control_c, 0, 67, 64
1, 353735, Note_off_c, 0, 74, 53
1, 353739, Note_off_c, 0, 88, 57
1, 353741, Control_c, 0, 64, 89
1, 353741, Control_c, 0, 67, 61
1, 353756, Control_c, 0, 67, 58
1, 353771, Control_c, 0, 67, 56
1, 353774, Note_off_c, 0, 76, 56
1, 353785, Control_c, 0, 64, 90
1, 353785, Control_c, 0, 67, 54
1, 353794, Note_on_c, 0, 68, 49
1, 353800, Control_c, 0, 67, 51
1, 353815, Control_c, 0, 67, 48
1, 353829, Control_c, 0, 67, 44
1, 353844, Control_c, 0, 67, 40
1, 353859, Control_c, 0, 67, 35
1, 353874, Control_c, 0, 67, 29
1, 353888, Note_off_c, 0, 68, 60
1, 353889, Control_c, 0, 67, 24
1, 353903, Control_c, 0, 67, 20
1, 353918, Control_c, 0, 67, 15
1, 353923, Note_on_c, 0, 83, 86
1, 353929, Note_on_c, 0, 64, 33
1, 353933, Control_c, 0, 67, 10
1, 353934, Note_on_c, 0, 71, 66
1, 353948, Control_c, 0, 67, 0
1, 353960, Note_off_c, 0, 64, 44
1, 353965, Note_off_c, 0, 71, 47
1, 354038, Note_off_c, 0, 83, 58
1, 354041, Note_on_c, 0, 62, 54
1, 354081, Control_c, 0, 64, 90
1, 354093, Note_off_c, 0, 62, 54
1, 354165, Note_on_c, 0, 56, 44
1, 354176, Note_on_c, 0, 86, 89
1, 354179, Note_on_c, 0, 74, 77
1, 354224, Note_off_c, 0, 56, 52
1, 354248, Note_on_c, 0, 52, 45
1, 354256, Note_off_c, 0, 86, 45
1, 354283, Note_off_c, 0, 52, 63
1, 354290, Note_off_c, 0, 74, 57
1, 354444, Control_c, 0, 64, 88
1, 354449, Note_on_c, 0, 40, 57
1, 354460, Control_c, 0, 64, 82
1, 354466, Note_on_c, 0, 83, 85
1, 354471, Note_on_c, 0, 80, 75
1, 354475, Control_c, 0, 64, 70
1, 354483, Note_on_c, 0, 71, 63
1, 354490, Control_c, 0, 64, 0
1, 354549, Control_c, 0, 64, 55
1, 354564, Note_off_c, 0, 40, 63
1, 354564, Control_c, 0, 64, 65
1, 354579, Control_c, 0, 64, 68
1, 354594, Control_c, 0, 64, 72
1, 354599, Note_off_c, 0, 71, 50
1, 354609, Control_c, 0, 64, 76
1, 354622, Note_on_c, 0, 52, 41
1, 354624, Control_c, 0, 64, 79
1, 354635, Note_off_c, 0, 83, 57
1, 354639, Control_c, 0, 64, 81
1, 354651, Note_off_c, 0, 52, 50
1, 354653, Control_c, 0, 64, 82
1, 354683, Control_c, 0, 64, 82
1, 354698, Control_c, 0, 64, 83
1, 354748, Note_on_c, 0, 84, 97
1, 354757, Control_c, 0, 64, 83
1, 354759, Note_on_c, 0, 72, 79
1, 354760, Note_on_c, 0, 56, 27
1, 354774, Note_off_c, 0, 80, 64
1, 354798, Note_off_c, 0, 56, 49
1, 354840, Note_on_c, 0, 60, 49
1, 354943, Note_off_c, 0, 60, 48
1, 354988, Note_on_c, 0, 52, 63
1, 355061, Control_c, 0, 64, 82
1, 355076, Control_c, 0, 64, 76
1, 355091, Control_c, 0, 64, 61
1, 355092, Note_on_c, 0, 81, 87
1, 355106, Control_c, 0, 64, 0
1, 355165, Control_c, 0, 64, 50
1, 355179, Control_c, 0, 64, 62
1, 355194, Control_c, 0, 64, 65
1, 355209, Control_c, 0, 64, 67
1, 355224, Control_c, 0, 64, 70
1, 355239, Control_c, 0, 64, 74
1, 355246, Note_on_c, 0, 57, 56
1, 355255, Control_c, 0, 64, 78
1, 355267, Note_off_c, 0, 52, 65
1, 355270, Control_c, 0, 64, 80
1, 355284, Control_c, 0, 64, 81
1, 355299, Control_c, 0, 64, 82
1, 355312, Note_off_c, 0, 57, 62
1, 355314, Control_c, 0, 64, 82
1, 355329, Control_c, 0, 64, 83
1, 355344, Control_c, 0, 64, 83
1, 355388, Control_c, 0, 64, 84
1, 355398, Note_on_c, 0, 69, 73
1, 355478, Note_off_c, 0, 69, 54
1, 355523, Note_on_c, 0, 60, 56
1, 355557, Note_off_c, 0, 60, 64
1, 355610, Control_c, 0, 64, 84
1, 355654, Control_c, 0, 64, 85
1, 355683, Control_c, 0, 64, 86
1, 355713, Control_c, 0, 64, 85
1, 355728, Control_c, 0, 64, 83
1, 355736, Note_on_c, 0, 52, 54
1, 355743, Control_c, 0, 64, 74
1, 355751, Note_on_c, 0, 79, 85
1, 355757, Control_c, 0, 64, 59
1, 355780, Control_c, 0, 64, 0
1, 355824, Control_c, 0, 64, 52
1, 355839, Control_c, 0, 64, 63
1, 355854, Control_c, 0, 64, 67
1, 355869, Control_c, 0, 64, 70
1, 355883, Control_c, 0, 64, 73
1, 355891, Note_off_c, 0, 81, 39
1, 355898, Control_c, 0, 64, 76
1, 355913, Control_c, 0, 64, 78
1, 355928, Control_c, 0, 64, 78
1, 355943, Control_c, 0, 64, 79
1, 355944, Note_on_c, 0, 55, 43
1, 355957, Control_c, 0, 64, 80
1, 355972, Control_c, 0, 64, 80
1, 355981, Note_off_c, 0, 52, 64
1, 355985, Note_off_c, 0, 84, 57
1, 355987, Control_c, 0, 64, 81
1, 355994, Note_off_c, 0, 55, 64
1, 356001, Control_c, 0, 64, 81
1, 356016, Control_c, 0, 64, 82
1, 356031, Control_c, 0, 64, 82
1, 356062, Control_c, 0, 64, 83
1, 356093, Note_off_c, 0, 79, 61
1, 356104, Note_on_c, 0, 67, 59
1, 356106, Control_c, 0, 64, 83
1, 356136, Control_c, 0, 64, 84
1, 356183, Note_off_c, 0, 67, 57
1, 356233, Note_on_c, 0, 60, 51
1, 356260, Note_off_c, 0, 72, 52
1, 356269, Note_off_c, 0, 60, 64
1, 356514, Note_on_c, 0, 38, 49
1, 356588, Control_c, 0, 64, 83
1, 356603, Control_c, 0, 64, 78
1, 356613, Note_on_c, 0, 77, 56
1, 356614, Note_on_c, 0, 81, 79
1, 356617, Control_c, 0, 64, 63
1, 356629, Note_on_c, 0, 69, 52
1, 356632, Control_c, 0, 64, 0
1, 356706, Control_c, 0, 64, 56
1, 356721, Control_c, 0, 64, 63
1, 356736, Control_c, 0, 64, 65
1, 356750, Note_off_c, 0, 77, 60
1, 356751, Control_c, 0, 64, 66
1, 356766, Control_c, 0, 64, 68
1, 356780, Control_c, 0, 64, 71
1, 356795, Control_c, 0, 64, 74
1, 356805, Note_off_c, 0, 69, 62
1, 356810, Control_c, 0, 64, 76
1, 356818, Note_off_c, 0, 38, 39
1, 356824, Control_c, 0, 64, 76
1, 356839, Control_c, 0, 64, 77
1, 356855, Control_c, 0, 64, 78
1, 356859, Note_on_c, 0, 45, 42
1, 356870, Control_c, 0, 64, 78
1, 356885, Control_c, 0, 64, 79
1, 356900, Control_c, 0, 64, 80
1, 356929, Control_c, 0, 64, 80
1, 356931, Note_off_c, 0, 81, 51
1, 356940, Note_off_c, 0, 45, 53
1, 357037, Note_on_c, 0, 50, 40
1, 357047, Note_on_c, 0, 82, 84
1, 357062, Note_on_c, 0, 70, 64
1, 357062, Control_c, 0, 64, 81
1, 357074, Note_off_c, 0, 50, 50
1, 357113, Note_off_c, 0, 70, 55
1, 357181, Note_on_c, 0, 53, 53
1, 357318, Note_on_c, 0, 57, 53
1, 357321, Note_on_c, 0, 86, 90
1, 357326, Note_on_c, 0, 74, 69
1, 357330, Note_off_c, 0, 82, 63
1, 357372, Note_off_c, 0, 53, 37
1, 357381, Note_off_c, 0, 57, 60
1, 357459, Note_on_c, 0, 62, 46
1, 357488, Note_off_c, 0, 86, 33
1, 357568, Note_on_c, 0, 77, 90
1, 357580, Note_on_c, 0, 56, 46
1, 357582, Note_off_c, 0, 62, 36
1, 357634, Note_off_c, 0, 74, 59
1, 357697, Note_on_c, 0, 50, 59
1, 357705, Note_off_c, 0, 56, 36
1, 357810, Note_on_c, 0, 56, 50
1, 357816, Note_on_c, 0, 84, 95
1, 357826, Note_off_c, 0, 50, 37
1, 357827, Note_on_c, 0, 72, 78
1, 357842, Control_c, 0, 64, 81
1, 357901, Control_c, 0, 64, 82
1, 357944, Note_off_c, 0, 56, 64
1, 357960, Note_on_c, 0, 59, 56
1, 357960, Note_off_c, 0, 84, 57
1, 357971, Note_off_c, 0, 72, 60
1, 357975, Control_c, 0, 64, 82
1, 358062, Note_off_c, 0, 59, 59
1, 358078, Note_on_c, 0, 83, 101
1, 358085, Note_on_c, 0, 71, 87
1, 358090, Note_on_c, 0, 65, 64
1, 358103, Note_off_c, 0, 77, 61
1, 358126, Note_off_c, 0, 65, 67
1, 358169, Note_on_c, 0, 59, 46
1, 358197, Note_off_c, 0, 59, 52
1, 358233, Note_off_c, 0, 71, 59
1, 358238, Note_off_c, 0, 83, 53
1, 358264, Control_c, 0, 67, 8
1, 358278, Control_c, 0, 67, 9
1, 358293, Control_c, 0, 67, 11
1, 358308, Control_c, 0, 67, 14
1, 358323, Control_c, 0, 67, 17
1, 358338, Control_c, 0, 67, 23
1, 358352, Control_c, 0, 67, 29
1, 358367, Control_c, 0, 67, 34
1, 358382, Control_c, 0, 67, 39
1, 358397, Control_c, 0, 67, 43
1, 358406, Note_on_c, 0, 36, 52
1, 358412, Control_c, 0, 67, 46
1, 358427, Control_c, 0, 64, 77
1, 358427, Control_c, 0, 67, 50
1, 358437, Note_on_c, 0, 80, 88
1, 358442, Note_on_c, 0, 68, 77
1, 358442, Note_on_c, 0, 76, 67
1, 358442, Control_c, 0, 64, 64
1, 358442, Control_c, 0, 67, 52
1, 358457, Control_c, 0, 64, 0
1, 358457, Control_c, 0, 67, 55
1, 358472, Control_c, 0, 67, 58
1, 358487, Control_c, 0, 67, 61
1, 358501, Control_c, 0, 67, 65
1, 358516, Control_c, 0, 67, 68
1, 358531, Control_c, 0, 64, 44
1, 358531, Control_c, 0, 67, 73
1, 358546, Control_c, 0, 64, 64
1, 358546, Control_c, 0, 67, 78
1, 358561, Control_c, 0, 64, 67
1, 358561, Control_c, 0, 67, 83
1, 358570, Note_off_c, 0, 36, 59
1, 358576, Control_c, 0, 64, 70
1, 358576, Control_c, 0, 67, 87
1, 358591, Control_c, 0, 64, 72
1, 358591, Control_c, 0, 67, 89
1, 358606, Control_c, 0, 64, 74
1, 358606, Control_c, 0, 67, 90
1, 358620, Control_c, 0, 64, 77
1, 358620, Control_c, 0, 67, 91
1, 358635, Control_c, 0, 64, 79
1, 358635, Control_c, 0, 67, 93
1, 358650, Control_c, 0, 64, 79
1, 358650, Control_c, 0, 67, 95
1, 358656, Note_on_c, 0, 48, 46
1, 358665, Control_c, 0, 64, 80
1, 358665, Control_c, 0, 67, 97
1, 358680, Control_c, 0, 64, 80
1, 358680, Control_c, 0, 67, 98
1, 358689, Note_off_c, 0, 48, 56
1, 358694, Control_c, 0, 64, 81
1, 358694, Control_c, 0, 67, 99
1, 358695, Note_off_c, 0, 68, 61
1, 358724, Control_c, 0, 64, 81
1, 358740, Note_off_c, 0, 80, 61
1, 358754, Control_c, 0, 67, 98
1, 358776, Control_c, 0, 67, 98
1, 358796, Note_off_c, 0, 76, 38
1, 358823, Note_on_c, 0, 52, 52
1, 358826, Note_on_c, 0, 81, 94
1, 358837, Note_on_c, 0, 69, 73
1, 358850, Control_c, 0, 67, 97
1, 358865, Control_c, 0, 64, 82
1, 358865, Control_c, 0, 67, 97
1, 358880, Control_c, 0, 67, 96
1, 358895, Control_c, 0, 67, 96
1, 358904, Note_off_c, 0, 69, 51
1, 358909, Control_c, 0, 67, 95
1, 358939, Control_c, 0, 64, 82
1, 358939, Control_c, 0, 67, 95
1, 358949, Note_off_c, 0, 81, 60
1, 358964, Note_on_c, 0, 57, 53
1, 358969, Control_c, 0, 67, 94
1, 358983, Control_c, 0, 64, 83
1, 358998, Control_c, 0, 67, 94
1, 359027, Control_c, 0, 67, 93
1, 359067, Note_off_c, 0, 52, 35
1, 359070, Note_off_c, 0, 57, 54
1, 359086, Note_on_c, 0, 84, 94
1, 359092, Note_on_c, 0, 72, 80
1, 359095, Note_on_c, 0, 60, 56
1, 359101, Control_c, 0, 67, 94
1, 359175, Control_c, 0, 67, 94
1, 359186, Note_off_c, 0, 60, 50
1, 359190, Control_c, 0, 67, 95
1, 359196, Note_on_c, 0, 57, 55
1, 359205, Control_c, 0, 67, 95
1, 359235, Control_c, 0, 67, 96
1, 359265, Control_c, 0, 67, 96
1, 359310, Control_c, 0, 67, 97
1, 359324, Control_c, 0, 67, 97
1, 359326, Note_off_c, 0, 84, 37
1, 359338, Note_on_c, 0, 75, 85
1, 359343, Note_on_c, 0, 54, 54
1, 359347, Note_off_c, 0, 57, 37
1, 359354, Control_c, 0, 67, 98
1, 359396, Note_off_c, 0, 72, 59
1, 359412, Control_c, 0, 67, 98
1, 359427, Control_c, 0, 67, 99
1, 359471, Control_c, 0, 67, 99
1, 359478, Note_on_c, 0, 48, 52
1, 359500, Note_off_c, 0, 54, 32
1, 359501, Control_c, 0, 64, 83
1, 359523, Control_c, 0, 67, 100
1, 359553, Control_c, 0, 67, 101
1, 359568, Control_c, 0, 67, 102
1, 359575, Note_off_c, 0, 48, 62
1, 359583, Control_c, 0, 67, 108
1, 359591, Note_on_c, 0, 82, 97
1, 359596, Note_on_c, 0, 70, 81
1, 359598, Control_c, 0, 67, 112
1, 359610, Note_on_c, 0, 54, 51
1, 359613, Control_c, 0, 64, 84
1, 359613, Control_c, 0, 67, 116
1, 359618, Note_off_c, 0, 75, 64
1, 359628, Control_c, 0, 67, 118
1, 359642, Control_c, 0, 67, 122
1, 359657, Control_c, 0, 67, 125
1, 359672, Control_c, 0, 64, 84
1, 359672, Control_c, 0, 67, 127
1, 359718, Note_on_c, 0, 57, 57
1, 359724, Note_off_c, 0, 54, 55
1, 359733, Note_off_c, 0, 70, 54
1, 359741, Note_off_c, 0, 82, 61
1, 359746, Control_c, 0, 64, 85
1, 359804, Note_off_c, 0, 57, 60
1, 359864, Note_on_c, 0, 81, 93
1, 359868, Note_on_c, 0, 69, 82
1, 359873, Note_on_c, 0, 63, 41
1, 359900, Note_off_c, 0, 63, 53
1, 359934, Note_on_c, 0, 57, 52
1, 359961, Note_off_c, 0, 57, 54
1, 359971, Note_off_c, 0, 81, 56
1, 359986, Note_off_c, 0, 69, 58
1, 360187, Note_on_c, 0, 34, 47
1, 360191, Control_c, 0, 64, 81
1, 360206, Control_c, 0, 64, 71
1, 360221, Control_c, 0, 64, 0
1, 360226, Note_on_c, 0, 78, 79
1, 360239, Note_on_c, 0, 66, 59
1, 360240, Note_on_c, 0, 74, 55
1, 360302, Control_c, 0, 64, 63
1, 360317, Control_c, 0, 64, 68
1, 360332, Control_c, 0, 64, 72
1, 360347, Control_c, 0, 64, 76
1, 360360, Note_off_c, 0, 34, 47
1, 360361, Control_c, 0, 64, 79
1, 360376, Control_c, 0, 64, 81
1, 360391, Control_c, 0, 64, 82
1, 360406, Control_c, 0, 64, 83
1, 360418, Note_on_c, 0, 46, 56
1, 360421, Control_c, 0, 64, 84
1, 360424, Note_off_c, 0, 66, 50
1, 360436, Control_c, 0, 64, 85
1, 360451, Control_c, 0, 64, 85
1, 360451, Note_off_c, 0, 46, 63
1, 360475, Note_off_c, 0, 78, 61
1, 360480, Control_c, 0, 64, 86
1, 360525, Control_c, 0, 64, 86
1, 360579, Note_on_c, 0, 79, 80
1, 360589, Note_on_c, 0, 67, 63
1, 360591, Note_on_c, 0, 50, 48
1, 360616, Note_off_c, 0, 67, 59
1, 360644, Note_off_c, 0, 74, 38
1, 360653, Note_off_c, 0, 79, 62
1, 360708, Note_on_c, 0, 55, 53
1, 360790, Note_off_c, 0, 55, 59
1, 360834, Note_on_c, 0, 82, 87
1, 360836, Note_on_c, 0, 58, 46
1, 360843, Note_on_c, 0, 70, 70
1, 360868, Note_off_c, 0, 70, 65
1, 360889, Note_off_c, 0, 58, 64
1, 360893, Note_off_c, 0, 82, 63
1, 360904, Note_on_c, 0, 55, 60
1, 360924, Note_off_c, 0, 55, 62
1, 360928, Note_off_c, 0, 50, 37
1, 361052, Control_c, 0, 64, 82
1, 361067, Control_c, 0, 64, 71
1, 361082, Control_c, 0, 64, 0
1, 361093, Note_on_c, 0, 34, 54
1, 361097, Note_on_c, 0, 85, 83
1, 361098, Note_on_c, 0, 82, 70
1, 361098, Note_on_c, 0, 73, 75
1, 361126, Control_c, 0, 64, 44
1, 361141, Control_c, 0, 64, 63
1, 361150, Note_off_c, 0, 73, 62
1, 361156, Control_c, 0, 64, 68
1, 361170, Control_c, 0, 64, 73
1, 361185, Control_c, 0, 64, 78
1, 361186, Note_off_c, 0, 82, 62
1, 361194, Note_off_c, 0, 85, 64
1, 361200, Control_c, 0, 64, 81
1, 361209, Note_off_c, 0, 34, 62
1, 361215, Control_c, 0, 64, 83
1, 361229, Control_c, 0, 64, 85
1, 361241, Note_on_c, 0, 46, 55
1, 361244, Control_c, 0, 64, 87
1, 361259, Control_c, 0, 64, 89
1, 361270, Note_off_c, 0, 46, 57
1, 361274, Control_c, 0, 64, 91
1, 361289, Control_c, 0, 64, 92
1, 361303, Control_c, 0, 64, 94
1, 361318, Control_c, 0, 64, 95
1, 361348, Control_c, 0, 64, 95
1, 361378, Control_c, 0, 64, 96
1, 361417, Note_on_c, 0, 49, 55
1, 361418, Note_on_c, 0, 93, 96
1, 361422, Control_c, 0, 64, 96
1, 361424, Note_on_c, 0, 81, 70
1, 361437, Control_c, 0, 67, 125
1, 361452, Control_c, 0, 67, 117
1, 361467, Control_c, 0, 67, 106
1, 361482, Control_c, 0, 67, 97
1, 361496, Control_c, 0, 67, 89
1, 361511, Control_c, 0, 67, 82
1, 361526, Control_c, 0, 67, 77
1, 361540, Control_c, 0, 67, 72
1, 361555, Control_c, 0, 64, 97
1, 361555, Control_c, 0, 67, 67
1, 361566, Note_on_c, 0, 55, 51
1, 361570, Control_c, 0, 67, 63
1, 361585, Note_off_c, 0, 93, 55
1, 361585, Control_c, 0, 67, 61
1, 361587, Note_off_c, 0, 81, 55
1, 361600, Control_c, 0, 64, 97
1, 361600, Control_c, 0, 67, 61
1, 361628, Control_c, 0, 67, 60
1, 361641, Note_off_c, 0, 55, 63
1, 361659, Control_c, 0, 67, 60
1, 361689, Control_c, 0, 67, 60
1, 361703, Note_on_c, 0, 91, 100
1, 361704, Control_c, 0, 67, 61
1, 361707, Note_on_c, 0, 79, 89
1, 361711, Note_on_c, 0, 61, 38
1, 361718, Control_c, 0, 67, 61
1, 361748, Control_c, 0, 67, 62
1, 361765, Note_off_c, 0, 61, 61
1, 361771, Control_c, 0, 67, 63
1, 361786, Control_c, 0, 67, 63
1, 361800, Control_c, 0, 67, 64
1, 361815, Control_c, 0, 67, 65
1, 361830, Control_c, 0, 67, 66
1, 361835, Note_on_c, 0, 58, 62
1, 361839, Note_off_c, 0, 91, 39
1, 361844, Control_c, 0, 67, 67
1, 361858, Note_off_c, 0, 79, 58
1, 361859, Control_c, 0, 67, 67
1, 361864, Note_off_c, 0, 58, 66
1, 361874, Control_c, 0, 67, 68
1, 361889, Control_c, 0, 67, 69
1, 361894, Note_off_c, 0, 49, 23
1, 361904, Control_c, 0, 67, 69
1, 361915, Poly_aftertouch_c, 0, 89, 0
1, 361918, Control_c, 0, 67, 70
1, 361933, Control_c, 0, 67, 70
1, 361948, Control_c, 0, 67, 71
1, 361963, Control_c, 0, 67, 72
1, 361978, Control_c, 0, 67, 73
1, 361992, Control_c, 0, 67, 76
1, 362007, Control_c, 0, 67, 79
1, 362022, Control_c, 0, 64, 97
1, 362022, Control_c, 0, 67, 82
1, 362030, Note_on_c, 0, 89, 81
1, 362037, Control_c, 0, 64, 91
1, 362037, Control_c, 0, 67, 88
1, 362040, Note_on_c, 0, 82, 62
1, 362045, Note_on_c, 0, 77, 68
1, 362052, Control_c, 0, 64, 79
1, 362052, Control_c, 0, 67, 95
1, 362067, Control_c, 0, 64, 50
1, 362067, Control_c, 0, 67, 102
1, 362081, Control_c, 0, 64, 0
1, 362081, Control_c, 0, 67, 107
1, 362096, Control_c, 0, 67, 111
1, 362108, Note_on_c, 0, 36, 29
1, 362111, Control_c, 0, 67, 113
1, 362126, Control_c, 0, 64, 48
1, 362126, Control_c, 0, 67, 115
1, 362141, Control_c, 0, 64, 66
1, 362141, Control_c, 0, 67, 116
1, 362156, Control_c, 0, 64, 71
1, 362156, Control_c, 0, 67, 118
1, 362170, Control_c, 0, 64, 76
1, 362170, Control_c, 0, 67, 121
1, 362180, Note_off_c, 0, 89, 59
1, 362185, Control_c, 0, 64, 79
1, 362185, Control_c, 0, 67, 124
1, 362200, Control_c, 0, 64, 81
1, 362200, Control_c, 0, 67, 127
1, 362213, Note_off_c, 0, 36, 55
1, 362213, Note_off_c, 0, 77, 61
1, 362215, Control_c, 0, 64, 83
1, 362230, Control_c, 0, 64, 84
1, 362244, Control_c, 0, 64, 85
1, 362259, Control_c, 0, 64, 86
1, 362263, Note_on_c, 0, 48, 39
1, 362274, Control_c, 0, 64, 86
1, 362297, Note_off_c, 0, 48, 50
1, 362304, Control_c, 0, 64, 87
1, 362421, Note_on_c, 0, 86, 90
1, 362422, Control_c, 0, 64, 87
1, 362424, Note_on_c, 0, 74, 66
1, 362430, Note_off_c, 0, 82, 38
1, 362443, Note_on_c, 0, 55, 53
1, 362583, Note_off_c, 0, 55, 59
1, 362615, Note_on_c, 0, 58, 43
1, 362649, Note_off_c, 0, 58, 53
1, 362660, Note_off_c, 0, 74, 38
1, 362675, Note_off_c, 0, 86, 60
1, 362799, Note_on_c, 0, 88, 94
1, 362811, Note_on_c, 0, 76, 68
1, 362812, Note_on_c, 0, 67, 47
1, 362870, Note_off_c, 0, 67, 50
1, 362986, Note_on_c, 0, 60, 43
1, 363011, Note_off_c, 0, 60, 57
1, 363027, Note_off_c, 0, 76, 37
1, 363030, Note_off_c, 0, 88, 58
1, 363284, Note_on_c, 0, 41, 44
1, 363313, Control_c, 0, 64, 86
1, 363327, Control_c, 0, 64, 82
1, 363329, Note_on_c, 0, 89, 68
1, 363342, Control_c, 0, 64, 73
1, 363348, Note_on_c, 0, 77, 47
1, 363348, Note_on_c, 0, 81, 46
1, 363357, Control_c, 0, 64, 49
1, 363372, Control_c, 0, 64, 0
1, 363446, Control_c, 0, 64, 40
1, 363461, Control_c, 0, 64, 60
1, 363476, Control_c, 0, 64, 64
1, 363490, Control_c, 0, 64, 65
1, 363505, Control_c, 0, 64, 68
1, 363520, Control_c, 0, 64, 70
1, 363535, Control_c, 0, 64, 74
1, 363550, Control_c, 0, 64, 78
1, 363564, Control_c, 0, 64, 80
1, 363579, Control_c, 0, 64, 81
1, 363594, Control_c, 0, 64, 82
1, 363598, Note_off_c, 0, 41, 45
1, 363609, Control_c, 0, 64, 83
1, 363623, Control_c, 0, 64, 84
1, 363634, Note_on_c, 0, 48, 37
1, 363638, Control_c, 0, 64, 84
1, 363653, Control_c, 0, 64, 85
1, 363668, Control_c, 0, 64, 85
1, 363678, Note_off_c, 0, 48, 49
1, 363683, Control_c, 0, 64, 86
1, 363697, Control_c, 0, 64, 86
1, 363706, Note_off_c, 0, 89, 29
1, 363712, Control_c, 0, 64, 87
1, 363724, Note_off_c, 0, 77, 30
1, 363727, Control_c, 0, 64, 87
1, 363742, Control_c, 0, 64, 88
1, 363757, Control_c, 0, 64, 88
1, 363787, Control_c, 0, 64, 89
1, 363791, Note_on_c, 0, 57, 46
1, 363831, Control_c, 0, 64, 89
1, 363834, Note_off_c, 0, 57, 61
1, 363861, Note_off_c, 0, 81, 39
1, 363969, Note_on_c, 0, 60, 60
1, 364197, Note_on_c, 0, 69, 80
1, 364299, Control_c, 0, 67, 125
1, 364314, Control_c, 0, 67, 121
1, 364329, Control_c, 0, 67, 118
1, 364344, Control_c, 0, 67, 116
1, 364356, Note_off_c, 0, 60, 53
1, 364359, Control_c, 0, 67, 114
1, 364373, Control_c, 0, 67, 111
1, 364388, Control_c, 0, 67, 106
1, 364399, Note_off_c, 0, 69, 62
1, 364403, Control_c, 0, 67, 100
1, 364418, Control_c, 0, 67, 94
1, 364433, Control_c, 0, 67, 88
1, 364438, Note_on_c, 0, 65, 59
1, 364447, Control_c, 0, 67, 83
1, 364462, Control_c, 0, 67, 78
1, 364468, Note_off_c, 0, 65, 67
1, 364477, Control_c, 0, 67, 72
1, 364492, Control_c, 0, 67, 65
1, 364507, Control_c, 0, 67, 56
1, 364521, Control_c, 0, 67, 49
1, 364536, Control_c, 0, 67, 43
1, 364551, Control_c, 0, 67, 39
1, 364565, Control_c, 0, 67, 36
1, 364580, Control_c, 0, 67, 33
1, 364595, Control_c, 0, 67, 30
1, 364610, Control_c, 0, 67, 27
1, 364625, Control_c, 0, 67, 24
1, 364639, Control_c, 0, 67, 21
1, 364654, Control_c, 0, 67, 19
1, 364669, Control_c, 0, 67, 17
1, 364684, Control_c, 0, 67, 16
1, 364699, Control_c, 0, 67, 16
1, 364728, Control_c, 0, 67, 15
1, 364776, Note_on_c, 0, 41, 46
1, 364810, Control_c, 0, 67, 16
1, 364825, Control_c, 0, 67, 16
1, 364841, Control_c, 0, 64, 88
1, 364841, Control_c, 0, 67, 17
1, 364850, Note_on_c, 0, 84, 67
1, 364856, Control_c, 0, 64, 84
1, 364856, Control_c, 0, 67, 17
1, 364860, Note_on_c, 0, 72, 42
1, 364863, Note_on_c, 0, 81, 46
1, 364870, Control_c, 0, 64, 75
1, 364870, Control_c, 0, 67, 18
1, 364885, Control_c, 0, 64, 63
1, 364885, Control_c, 0, 67, 19
1, 364900, Control_c, 0, 64, 0
1, 364900, Control_c, 0, 67, 20
1, 364915, Control_c, 0, 67, 21
1, 364930, Control_c, 0, 67, 22
1, 364944, Control_c, 0, 64, 59
1, 364944, Control_c, 0, 67, 23
1, 364959, Control_c, 0, 64, 64
1, 364959, Control_c, 0, 67, 24
1, 364974, Control_c, 0, 64, 66
1, 364974, Control_c, 0, 67, 26
1, 364988, Control_c, 0, 64, 68
1, 364988, Control_c, 0, 67, 27
1, 365002, Note_off_c, 0, 41, 45
1, 365003, Control_c, 0, 64, 71
1, 365003, Control_c, 0, 67, 28
1, 365018, Control_c, 0, 64, 74
1, 365018, Control_c, 0, 67, 30
1, 365033, Control_c, 0, 64, 76
1, 365033, Control_c, 0, 67, 33
1, 365048, Control_c, 0, 64, 78
1, 365048, Control_c, 0, 67, 38
1, 365062, Control_c, 0, 64, 79
1, 365062, Control_c, 0, 67, 45
1, 365077, Control_c, 0, 64, 80
1, 365077, Control_c, 0, 67, 53
1, 365092, Note_off_c, 0, 84, 54
1, 365092, Control_c, 0, 64, 81
1, 365092, Control_c, 0, 67, 61
1, 365096, Note_off_c, 0, 72, 40
1, 365107, Control_c, 0, 64, 82
1, 365107, Control_c, 0, 67, 71
1, 365122, Control_c, 0, 64, 82
1, 365122, Control_c, 0, 67, 78
1, 365132, Note_on_c, 0, 53, 45
1, 365137, Control_c, 0, 64, 83
1, 365137, Control_c, 0, 67, 84
1, 365152, Control_c, 0, 64, 84
1, 365152, Control_c, 0, 67, 90
1, 365167, Control_c, 0, 67, 95
1, 365182, Control_c, 0, 64, 84
1, 365182, Control_c, 0, 67, 101
1, 365182, Note_off_c, 0, 53, 61
1, 365196, Control_c, 0, 67, 106
1, 365211, Control_c, 0, 64, 85
1, 365211, Control_c, 0, 67, 112
1, 365226, Control_c, 0, 67, 115
1, 365241, Control_c, 0, 67, 117
1, 365255, Control_c, 0, 64, 85
1, 365255, Control_c, 0, 67, 119
1, 365270, Control_c, 0, 67, 119
1, 365313, Note_on_c, 0, 86, 74
1, 365315, Control_c, 0, 67, 120
1, 365326, Note_on_c, 0, 74, 55
1, 365331, Note_on_c, 0, 57, 36
1, 365374, Control_c, 0, 64, 86
1, 365426, Note_off_c, 0, 86, 45
1, 365435, Note_off_c, 0, 74, 48
1, 365459, Note_on_c, 0, 63, 43
1, 365535, Note_off_c, 0, 57, 35
1, 365569, Note_off_c, 0, 63, 38
1, 365571, Note_on_c, 0, 84, 85
1, 365572, Note_off_c, 0, 81, 38
1, 365581, Note_on_c, 0, 72, 74
1, 365588, Control_c, 0, 67, 119
1, 365591, Note_on_c, 0, 65, 44
1, 365617, Note_off_c, 0, 65, 57
1, 365620, Note_off_c, 0, 72, 53
1, 365664, Control_c, 0, 67, 119
1, 365701, Note_on_c, 0, 69, 59
1, 365709, Note_off_c, 0, 84, 60
1, 365723, Control_c, 0, 64, 86
1, 365723, Control_c, 0, 67, 118
1, 365797, Note_off_c, 0, 69, 63
1, 365813, Note_on_c, 0, 89, 91
1, 365824, Note_on_c, 0, 77, 78
1, 365836, Note_on_c, 0, 75, 67
1, 365892, Note_off_c, 0, 75, 50
1, 365898, Note_off_c, 0, 89, 59
1, 365900, Control_c, 0, 67, 119
1, 365932, Note_off_c, 0, 77, 60
1, 365936, Note_on_c, 0, 69, 59
1, 365989, Control_c, 0, 67, 118
1, 366024, Note_off_c, 0, 69, 65
1, 366060, Note_on_c, 0, 84, 91
1, 366061, Note_on_c, 0, 65, 43
1, 366065, Note_on_c, 0, 72, 82
1, 366087, Note_off_c, 0, 65, 56
1, 366092, Note_off_c, 0, 72, 63
1, 366122, Control_c, 0, 67, 118
1, 366150, Note_off_c, 0, 84, 61
1, 366166, Control_c, 0, 67, 117
1, 366180, Note_on_c, 0, 60, 63
1, 366196, Control_c, 0, 67, 117
1, 366210, Control_c, 0, 67, 116
1, 366225, Control_c, 0, 67, 115
1, 366240, Control_c, 0, 67, 115
1, 366252, Note_off_c, 0, 60, 46
1, 366263, Control_c, 0, 67, 114
1, 366278, Control_c, 0, 67, 113
1, 366292, Note_on_c, 0, 57, 53
1, 366292, Control_c, 0, 67, 112
1, 366307, Control_c, 0, 67, 111
1, 366308, Note_on_c, 0, 87, 97
1, 366316, Note_on_c, 0, 75, 85
1, 366322, Control_c, 0, 67, 110
1, 366336, Note_off_c, 0, 57, 62
1, 366336, Control_c, 0, 67, 109
1, 366351, Control_c, 0, 67, 108
1, 366363, Note_on_c, 0, 53, 42
1, 366366, Control_c, 0, 67, 107
1, 366381, Control_c, 0, 67, 105
1, 366394, Note_off_c, 0, 53, 53
1, 366396, Control_c, 0, 67, 101
1, 366403, Note_off_c, 0, 87, 59
1, 366411, Note_off_c, 0, 75, 43
1, 366411, Control_c, 0, 67, 97
1, 366425, Control_c, 0, 67, 91
1, 366441, Control_c, 0, 67, 84
1, 366456, Control_c, 0, 67, 77
1, 366471, Control_c, 0, 64, 87
1, 366471, Control_c, 0, 67, 70
1, 366486, Control_c, 0, 67, 63
1, 366501, Control_c, 0, 67, 55
1, 366515, Control_c, 0, 67, 46
1, 366530, Control_c, 0, 67, 36
1, 366535, Note_on_c, 0, 41, 61
1, 366545, Control_c, 0, 67, 30
1, 366560, Control_c, 0, 64, 86
1, 366560, Control_c, 0, 67, 26
1, 366575, Control_c, 0, 64, 86
1, 366575, Control_c, 0, 67, 25
1, 366589, Control_c, 0, 64, 82
1, 366589, Control_c, 0, 67, 25
1, 366604, Control_c, 0, 64, 72
1, 366604, Control_c, 0, 67, 24
1, 366617, Note_on_c, 0, 81, 69
1, 366618, Note_on_c, 0, 73, 74
1, 366618, Note_on_c, 0, 85, 84
1, 366619, Control_c, 0, 64, 51
1, 366633, Control_c, 0, 64, 0
1, 366663, Control_c, 0, 64, 54
1, 366678, Control_c, 0, 64, 64
1, 366693, Note_off_c, 0, 41, 65
1, 366693, Control_c, 0, 64, 67
1, 366693, Control_c, 0, 67, 25
1, 366708, Control_c, 0, 64, 70
1, 366708, Control_c, 0, 67, 25
1, 366723, Control_c, 0, 64, 72
1, 366723, Control_c, 0, 67, 26
1, 366734, Note_on_c, 0, 53, 55
1, 366738, Control_c, 0, 64, 75
1, 366738, Control_c, 0, 67, 26
1, 366753, Control_c, 0, 64, 77
1, 366756, Note_off_c, 0, 73, 58
1, 366762, Note_off_c, 0, 53, 63
1, 366767, Control_c, 0, 64, 78
1, 366773, Note_off_c, 0, 85, 65
1, 366782, Control_c, 0, 64, 78
1, 366812, Control_c, 0, 64, 79
1, 366841, Control_c, 0, 67, 27
1, 366857, Control_c, 0, 64, 79
1, 366860, Note_on_c, 0, 57, 53
1, 366864, Note_on_c, 0, 86, 98
1, 366871, Note_on_c, 0, 74, 79
1, 366883, Note_off_c, 0, 81, 62
1, 366919, Note_off_c, 0, 57, 57
1, 366985, Note_on_c, 0, 62, 38
1, 366990, Control_c, 0, 64, 80
1, 366990, Control_c, 0, 67, 27
1, 367012, Control_c, 0, 67, 28
1, 367042, Note_off_c, 0, 62, 40
1, 367057, Control_c, 0, 64, 80
1, 367057, Control_c, 0, 67, 28
1, 367071, Control_c, 0, 67, 29
1, 367086, Control_c, 0, 67, 29
1, 367101, Control_c, 0, 64, 81
1, 367101, Control_c, 0, 67, 30
1, 367116, Control_c, 0, 67, 30
1, 367120, Note_on_c, 0, 53, 60
1, 367131, Control_c, 0, 67, 31
1, 367146, Control_c, 0, 64, 80
1, 367160, Control_c, 0, 64, 78
1, 367160, Control_c, 0, 67, 32
1, 367175, Control_c, 0, 64, 72
1, 367175, Control_c, 0, 67, 33
1, 367190, Control_c, 0, 64, 57
1, 367190, Control_c, 0, 67, 34
1, 367205, Control_c, 0, 64, 0
1, 367205, Control_c, 0, 67, 34
1, 367220, Control_c, 0, 67, 35
1, 367226, Note_on_c, 0, 82, 84
1, 367235, Control_c, 0, 67, 36
1, 367250, Control_c, 0, 64, 27
1, 367250, Control_c, 0, 67, 37
1, 367265, Control_c, 0, 64, 59
1, 367265, Control_c, 0, 67, 40
1, 367280, Control_c, 0, 64, 65
1, 367280, Control_c, 0, 67, 45
1, 367295, Control_c, 0, 64, 68
1, 367295, Control_c, 0, 67, 52
1, 367310, Control_c, 0, 64, 71
1, 367310, Control_c, 0, 67, 59
1, 367325, Control_c, 0, 64, 74
1, 367325, Control_c, 0, 67, 66
1, 367339, Control_c, 0, 64, 78
1, 367339, Control_c, 0, 67, 75
1, 367350, Note_off_c, 0, 53, 64
1, 367354, Control_c, 0, 64, 80
1, 367354, Control_c, 0, 67, 83
1, 367360, Note_on_c, 0, 58, 66
1, 367369, Control_c, 0, 64, 81
1, 367369, Control_c, 0, 67, 90
1, 367383, Control_c, 0, 64, 82
1, 367383, Control_c, 0, 67, 98
1, 367398, Control_c, 0, 64, 83
1, 367398, Control_c, 0, 67, 105
1, 367413, Control_c, 0, 64, 84
1, 367413, Control_c, 0, 67, 112
1, 367428, Control_c, 0, 64, 85
1, 367428, Control_c, 0, 67, 119
1, 367443, Control_c, 0, 67, 123
1, 367449, Note_off_c, 0, 58, 62
1, 367457, Control_c, 0, 64, 85
1, 367457, Control_c, 0, 67, 126
1, 367472, Control_c, 0, 67, 127
1, 367517, Note_on_c, 0, 70, 73
1, 367517, Control_c, 0, 64, 86
1, 367584, Note_off_c, 0, 70, 57
1, 367612, Note_off_c, 0, 82, 56
1, 367644, Note_on_c, 0, 62, 53
1, 367691, Note_off_c, 0, 62, 58
1, 367810, Note_on_c, 0, 53, 54
1, 367835, Control_c, 0, 64, 84
1, 367850, Control_c, 0, 64, 77
1, 367852, Note_on_c, 0, 81, 67
1, 367864, Control_c, 0, 64, 63
1, 367879, Control_c, 0, 64, 0
1, 367939, Control_c, 0, 64, 59
1, 367954, Control_c, 0, 64, 66
1, 367969, Control_c, 0, 64, 69
1, 367983, Control_c, 0, 64, 72
1, 367994, Note_on_c, 0, 57, 45
1, 367998, Control_c, 0, 64, 76
1, 368003, Note_off_c, 0, 53, 36
1, 368013, Note_off_c, 0, 86, 30
1, 368013, Control_c, 0, 64, 79
1, 368028, Control_c, 0, 64, 81
1, 368041, Note_off_c, 0, 57, 60
1, 368043, Control_c, 0, 64, 82
1, 368058, Control_c, 0, 64, 83
1, 368073, Control_c, 0, 64, 84
1, 368088, Control_c, 0, 64, 85
1, 368103, Control_c, 0, 64, 86
1, 368118, Control_c, 0, 64, 87
1, 368133, Control_c, 0, 64, 88
1, 368138, Note_off_c, 0, 81, 57
1, 368147, Note_on_c, 0, 69, 57
1, 368177, Control_c, 0, 64, 88
1, 368208, Note_off_c, 0, 69, 50
1, 368234, Note_off_c, 0, 74, 43
1, 368324, Note_on_c, 0, 62, 38
1, 368353, Note_off_c, 0, 62, 54
1, 368607, Note_on_c, 0, 40, 47
1, 368643, Control_c, 0, 64, 88
1, 368658, Control_c, 0, 64, 85
1, 368673, Control_c, 0, 64, 77
1, 368675, Note_on_c, 0, 83, 62
1, 368686, Note_on_c, 0, 80, 49
1, 368687, Control_c, 0, 64, 64
1, 368700, Note_on_c, 0, 71, 40
1, 368702, Control_c, 0, 64, 0
1, 368762, Control_c, 0, 64, 30
1, 368777, Control_c, 0, 64, 62
1, 368791, Control_c, 0, 64, 66
1, 368806, Control_c, 0, 64, 68
1, 368821, Control_c, 0, 64, 70
1, 368825, Note_off_c, 0, 40, 43
1, 368836, Control_c, 0, 64, 73
1, 368851, Control_c, 0, 64, 77
1, 368866, Control_c, 0, 64, 79
1, 368881, Control_c, 0, 64, 80
1, 368883, Note_off_c, 0, 71, 36
1, 368895, Note_off_c, 0, 83, 49
1, 368896, Control_c, 0, 64, 80
1, 368911, Control_c, 0, 64, 81
1, 368935, Note_on_c, 0, 52, 43
1, 368940, Control_c, 0, 64, 81
1, 368970, Control_c, 0, 64, 82
1, 368973, Note_off_c, 0, 52, 56
1, 369074, Control_c, 0, 64, 82
1, 369093, Note_on_c, 0, 56, 46
1, 369096, Note_on_c, 0, 84, 67
1, 369103, Note_on_c, 0, 72, 57
1, 369200, Note_off_c, 0, 84, 56
1, 369209, Note_off_c, 0, 56, 36
1, 369221, Note_off_c, 0, 72, 42
1, 369224, Note_on_c, 0, 62, 55
1, 369277, Note_off_c, 0, 62, 57
1, 369328, Note_off_c, 0, 80, 42
1, 369352, Note_on_c, 0, 83, 76
1, 369363, Note_on_c, 0, 64, 56
1, 369363, Note_on_c, 0, 71, 59
1, 369391, Note_off_c, 0, 71, 51
1, 369449, Note_off_c, 0, 64, 59
1, 369484, Note_off_c, 0, 83, 55
1, 369501, Note_on_c, 0, 68, 46
1, 369587, Note_off_c, 0, 68, 37
1, 369596, Note_on_c, 0, 88, 87
1, 369613, Note_on_c, 0, 76, 65
1, 369623, Note_on_c, 0, 74, 48
1, 369653, Note_off_c, 0, 74, 52
1, 369666, Note_off_c, 0, 88, 57
1, 369704, Note_off_c, 0, 76, 63
1, 369710, Note_on_c, 0, 68, 49
1, 369831, Note_off_c, 0, 68, 37
1, 369846, Note_on_c, 0, 83, 85
1, 369854, Note_on_c, 0, 71, 69
1, 369857, Note_on_c, 0, 64, 14
1, 369886, Note_off_c, 0, 71, 47
1, 369897, Note_off_c, 0, 64, 39
1, 369952, Note_on_c, 0, 62, 54
1, 369969, Note_off_c, 0, 83, 56
1, 369985, Note_off_c, 0, 62, 49
1, 370094, Note_on_c, 0, 56, 41
1, 370112, Note_on_c, 0, 86, 77
1, 370116, Note_on_c, 0, 74, 68
1, 370141, Note_off_c, 0, 56, 45
1, 370164, Note_on_c, 0, 52, 44
1, 370180, Note_off_c, 0, 86, 53
1, 370185, Control_c, 0, 67, 124
1, 370190, Note_off_c, 0, 52, 59
1, 370200, Control_c, 0, 67, 119
1, 370211, Note_off_c, 0, 74, 57
1, 370215, Control_c, 0, 67, 112
1, 370230, Control_c, 0, 67, 105
1, 370245, Control_c, 0, 67, 98
1, 370259, Control_c, 0, 67, 91
1, 370274, Control_c, 0, 67, 84
1, 370289, Control_c, 0, 67, 79
1, 370304, Control_c, 0, 67, 74
1, 370319, Control_c, 0, 67, 71
1, 370333, Control_c, 0, 67, 68
1, 370344, Note_on_c, 0, 40, 57
1, 370348, Control_c, 0, 67, 67
1, 370363, Control_c, 0, 64, 80
1, 370377, Control_c, 0, 64, 72
1, 370392, Control_c, 0, 64, 0
1, 370393, Note_on_c, 0, 83, 75
1, 370405, Note_on_c, 0, 80, 59
1, 370410, Note_on_c, 0, 71, 54
1, 370453, Control_c, 0, 64, 35
1, 370463, Note_off_c, 0, 40, 59
1, 370468, Control_c, 0, 64, 59
1, 370468, Control_c, 0, 67, 68
1, 370482, Control_c, 0, 64, 65
1, 370497, Control_c, 0, 64, 68
1, 370497, Control_c, 0, 67, 69
1, 370507, Note_off_c, 0, 71, 39
1, 370512, Control_c, 0, 64, 71
1, 370527, Control_c, 0, 64, 73
1, 370537, Note_on_c, 0, 52, 48
1, 370541, Note_off_c, 0, 83, 57
1, 370542, Control_c, 0, 64, 75
1, 370542, Control_c, 0, 67, 69
1, 370556, Control_c, 0, 64, 77
1, 370565, Note_off_c, 0, 52, 58
1, 370571, Control_c, 0, 64, 77
1, 370571, Control_c, 0, 67, 70
1, 370586, Control_c, 0, 64, 78
1, 370586, Control_c, 0, 67, 70
1, 370601, Control_c, 0, 64, 78
1, 370601, Control_c, 0, 67, 71
1, 370616, Control_c, 0, 64, 79
1, 370616, Control_c, 0, 67, 72
1, 370631, Control_c, 0, 67, 72
1, 370646, Control_c, 0, 67, 73
1, 370653, Note_on_c, 0, 84, 92
1, 370661, Control_c, 0, 67, 73
1, 370663, Note_on_c, 0, 72, 70
1, 370666, Note_on_c, 0, 56, 43
1, 370684, Note_off_c, 0, 80, 63
1, 370705, Control_c, 0, 67, 74
1, 370735, Control_c, 0, 67, 74
1, 370757, Control_c, 0, 67, 75
1, 370765, Note_off_c, 0, 56, 33
1, 370772, Control_c, 0, 67, 75
1, 370787, Control_c, 0, 67, 76
1, 370790, Note_on_c, 0, 60, 37
1, 370802, Control_c, 0, 67, 76
1, 370875, Control_c, 0, 67, 77
1, 370890, Control_c, 0, 64, 78
1, 370905, Control_c, 0, 64, 75
1, 370913, Note_on_c, 0, 52, 59
1, 370920, Control_c, 0, 64, 68
1, 370920, Control_c, 0, 67, 77
1, 370935, Control_c, 0, 64, 26
1, 370935, Control_c, 0, 67, 78
1, 370938, Note_off_c, 0, 60, 38
1, 370950, Control_c, 0, 64, 0
1, 370950, Control_c, 0, 67, 78
1, 370965, Control_c, 0, 67, 79
1, 370979, Control_c, 0, 64, 29
1, 370984, Note_on_c, 0, 81, 85
1, 370994, Control_c, 0, 64, 55
1, 370994, Control_c, 0, 67, 80
1, 371009, Control_c, 0, 64, 62
1, 371009, Control_c, 0, 67, 81
1, 371024, Control_c, 0, 64, 65
1, 371024, Control_c, 0, 67, 83
1, 371039, Control_c, 0, 64, 67
1, 371039, Control_c, 0, 67, 84
1, 371054, Control_c, 0, 64, 69
1, 371054, Control_c, 0, 67, 86
1, 371069, Control_c, 0, 64, 72
1, 371069, Control_c, 0, 67, 87
1, 371083, Control_c, 0, 64, 75
1, 371098, Control_c, 0, 64, 77
1, 371112, Note_on_c, 0, 57, 55
1, 371113, Note_off_c, 0, 52, 59
1, 371113, Control_c, 0, 64, 78
1, 371113, Control_c, 0, 67, 88
1, 371127, Control_c, 0, 64, 78
1, 371142, Control_c, 0, 64, 79
1, 371142, Control_c, 0, 67, 88
1, 371157, Control_c, 0, 64, 80
1, 371157, Control_c, 0, 67, 89
1, 371172, Control_c, 0, 64, 81
1, 371172, Control_c, 0, 67, 91
1, 371176, Note_off_c, 0, 57, 62
1, 371187, Control_c, 0, 64, 82
1, 371187, Control_c, 0, 67, 94
1, 371201, Control_c, 0, 64, 82
1, 371201, Control_c, 0, 67, 95
1, 371216, Control_c, 0, 64, 83
1, 371216, Control_c, 0, 67, 96
1, 371232, Control_c, 0, 64, 83
1, 371232, Control_c, 0, 67, 97
1, 371247, Control_c, 0, 64, 84
1, 371247, Control_c, 0, 67, 99
1, 371260, Note_on_c, 0, 69, 69
1, 371262, Control_c, 0, 67, 101
1, 371277, Control_c, 0, 64, 84
1, 371277, Control_c, 0, 67, 103
1, 371292, Control_c, 0, 67, 105
1, 371306, Control_c, 0, 67, 106
1, 371321, Control_c, 0, 67, 106
1, 371332, Note_off_c, 0, 69, 53
1, 371336, Control_c, 0, 67, 107
1, 371364, Control_c, 0, 64, 85
1, 371379, Control_c, 0, 67, 107
1, 371391, Note_on_c, 0, 60, 47
1, 371416, Note_off_c, 0, 60, 59
1, 371483, Control_c, 0, 67, 107
1, 371505, Control_c, 0, 64, 85
1, 371587, Note_on_c, 0, 52, 44
1, 371594, Control_c, 0, 64, 84
1, 371603, Note_on_c, 0, 79, 81
1, 371609, Control_c, 0, 64, 80
1, 371624, Control_c, 0, 64, 70
1, 371624, Control_c, 0, 67, 106
1, 371638, Control_c, 0, 64, 47
1, 371638, Control_c, 0, 67, 106
1, 371653, Control_c, 0, 64, 54
1, 371653, Control_c, 0, 67, 105
1, 371668, Control_c, 0, 64, 64
1, 371683, Control_c, 0, 64, 69
1, 371683, Control_c, 0, 67, 104
1, 371698, Control_c, 0, 64, 74
1, 371698, Control_c, 0, 67, 104
1, 371713, Control_c, 0, 64, 79
1, 371713, Control_c, 0, 67, 103
1, 371728, Control_c, 0, 64, 81
1, 371743, Control_c, 0, 64, 83
1, 371743, Control_c, 0, 67, 103
1, 371757, Control_c, 0, 64, 85
1, 371757, Control_c, 0, 67, 102
1, 371759, Note_on_c, 0, 55, 44
1, 371769, Note_off_c, 0, 52, 59
1, 371772, Control_c, 0, 64, 87
1, 371772, Control_c, 0, 67, 102
1, 371787, Control_c, 0, 64, 88
1, 371787, Control_c, 0, 67, 101
1, 371793, Note_off_c, 0, 84, 56
1, 371802, Control_c, 0, 64, 89
1, 371808, Note_off_c, 0, 55, 56
1, 371817, Control_c, 0, 64, 91
1, 371831, Control_c, 0, 64, 92
1, 371846, Control_c, 0, 64, 94
1, 371846, Control_c, 0, 67, 101
1, 371855, Note_off_c, 0, 81, 48
1, 371861, Control_c, 0, 64, 95
1, 371876, Control_c, 0, 64, 98
1, 371876, Control_c, 0, 67, 100
1, 371884, Note_off_c, 0, 79, 60
1, 371891, Control_c, 0, 64, 100
1, 371905, Control_c, 0, 64, 102
1, 371905, Control_c, 0, 67, 100
1, 371920, Control_c, 0, 64, 104
1, 371930, Note_on_c, 0, 67, 56
1, 371935, Control_c, 0, 64, 106
1, 371949, Control_c, 0, 64, 106
1, 371964, Control_c, 0, 64, 107
1, 371979, Control_c, 0, 64, 107
1, 371990, Note_off_c, 0, 72, 57
1, 371994, Control_c, 0, 64, 108
1, 372003, Note_off_c, 0, 67, 58
1, 372009, Control_c, 0, 64, 109
1, 372025, Control_c, 0, 64, 110
1, 372040, Control_c, 0, 64, 110
1, 372054, Control_c, 0, 64, 111
1, 372069, Control_c, 0, 64, 111
1, 372079, Note_on_c, 0, 60, 45
1, 372112, Note_off_c, 0, 60, 64
1, 372113, Control_c, 0, 64, 112
1, 372202, Control_c, 0, 64, 112
1, 372357, Control_c, 0, 67, 100
1, 372370, Note_on_c, 0, 38, 43
1, 372372, Control_c, 0, 67, 101
1, 372386, Control_c, 0, 64, 111
1, 372401, Control_c, 0, 64, 105
1, 372401, Control_c, 0, 67, 101
1, 372416, Control_c, 0, 64, 96
1, 372416, Control_c, 0, 67, 102
1, 372424, Note_on_c, 0, 77, 62
1, 372425, Note_on_c, 0, 81, 80
1, 372431, Note_on_c, 0, 69, 52
1, 372431, Control_c, 0, 64, 83
1, 372431, Control_c, 0, 67, 102
1, 372446, Control_c, 0, 64, 66
1, 372446, Control_c, 0, 67, 103
1, 372461, Control_c, 0, 64, 0
1, 372476, Control_c, 0, 67, 104
1, 372535, Control_c, 0, 67, 104
1, 372550, Control_c, 0, 67, 103
1, 372579, Control_c, 0, 64, 46
1, 372579, Control_c, 0, 67, 103
1, 372594, Control_c, 0, 64, 64
1, 372594, Control_c, 0, 67, 102
1, 372606, Note_off_c, 0, 77, 60
1, 372609, Control_c, 0, 64, 67
1, 372609, Control_c, 0, 67, 102
1, 372624, Control_c, 0, 64, 74
1, 372624, Control_c, 0, 67, 101
1, 372639, Control_c, 0, 64, 83
1, 372653, Control_c, 0, 64, 87
1, 372653, Control_c, 0, 67, 101
1, 372668, Control_c, 0, 64, 89
1, 372668, Control_c, 0, 67, 100
1, 372676, Note_off_c, 0, 69, 62
1, 372683, Control_c, 0, 64, 90
1, 372697, Control_c, 0, 64, 91
1, 372697, Control_c, 0, 67, 99
1, 372712, Control_c, 0, 64, 92
1, 372719, Note_on_c, 0, 45, 42
1, 372727, Control_c, 0, 64, 94
1, 372727, Control_c, 0, 67, 98
1, 372742, Control_c, 0, 64, 97
1, 372757, Control_c, 0, 64, 99
1, 372757, Control_c, 0, 67, 98
1, 372771, Control_c, 0, 64, 100
1, 372780, Note_off_c, 0, 38, 39
1, 372786, Control_c, 0, 64, 101
1, 372801, Control_c, 0, 64, 102
1, 372801, Control_c, 0, 67, 97
1, 372807, Note_off_c, 0, 81, 46
1, 372817, Control_c, 0, 64, 103
1, 372817, Control_c, 0, 67, 96
1, 372832, Control_c, 0, 64, 104
1, 372847, Control_c, 0, 64, 104
1, 372847, Control_c, 0, 67, 96
1, 372862, Control_c, 0, 64, 105
1, 372862, Control_c, 0, 67, 95
1, 372876, Control_c, 0, 67, 95
1, 372881, Note_off_c, 0, 45, 37
1, 372906, Control_c, 0, 64, 105
1, 372906, Control_c, 0, 67, 94
1, 372921, Control_c, 0, 67, 94
1, 372925, Note_on_c, 0, 82, 83
1, 372932, Note_on_c, 0, 50, 37
1, 372936, Control_c, 0, 67, 93
1, 372945, Note_on_c, 0, 70, 56
1, 372950, Control_c, 0, 64, 106
1, 372950, Control_c, 0, 67, 90
1, 372962, Note_off_c, 0, 50, 54
1, 372965, Control_c, 0, 67, 88
1, 372980, Control_c, 0, 67, 86
1, 373002, Control_c, 0, 67, 82
1, 373007, Note_off_c, 0, 70, 51
1, 373017, Control_c, 0, 67, 79
1, 373032, Control_c, 0, 64, 106
1, 373032, Control_c, 0, 67, 74
1, 373047, Control_c, 0, 67, 68
1, 373062, Control_c, 0, 67, 62
1, 373076, Control_c, 0, 67, 54
1, 373091, Control_c, 0, 67, 46
1, 373099, Note_on_c, 0, 53, 48
1, 373106, Control_c, 0, 67, 36
1, 373121, Control_c, 0, 67, 27
1, 373136, Control_c, 0, 67, 18
1, 373150, Control_c, 0, 67, 9
1, 373165, Control_c, 0, 67, 0
1, 373224, Note_off_c, 0, 53, 59
1, 373241, Note_on_c, 0, 86, 87
1, 373242, Note_on_c, 0, 57, 52
1, 373250, Note_on_c, 0, 74, 71
1, 373254, Note_off_c, 0, 82, 59
1, 373322, Note_off_c, 0, 57, 62
1, 373343, Control_c, 0, 64, 107
1, 373384, Note_on_c, 0, 62, 48
1, 373384, Note_off_c, 0, 86, 37
1, 373487, Note_on_c, 0, 56, 55
1, 373493, Note_on_c, 0, 77, 86
1, 373516, Note_off_c, 0, 62, 34
1, 373535, Control_c, 0, 64, 107
1, 373579, Note_off_c, 0, 74, 61
1, 373614, Note_off_c, 0, 56, 48
1, 373623, Note_on_c, 0, 50, 57
1, 373733, Note_off_c, 0, 50, 53
1, 373739, Note_on_c, 0, 56, 50
1, 373756, Note_on_c, 0, 84, 93
1, 373759, Note_on_c, 0, 72, 75
1, 373869, Note_off_c, 0, 56, 59
1, 373871, Control_c, 0, 64, 108
1, 373877, Note_on_c, 0, 59, 58
1, 373886, Control_c, 0, 64, 108
1, 373900, Control_c, 0, 64, 109
1, 373915, Note_off_c, 0, 84, 59
1, 373920, Note_off_c, 0, 72, 63
1, 373930, Control_c, 0, 64, 109
1, 373945, Control_c, 0, 64, 110
1, 373974, Control_c, 0, 64, 110
1, 373990, Note_off_c, 0, 59, 61
1, 374014, Note_on_c, 0, 83, 97
1, 374019, Control_c, 0, 64, 111
1, 374020, Note_on_c, 0, 65, 62
1, 374022, Note_on_c, 0, 71, 89
1, 374043, Note_off_c, 0, 77, 61
1, 374048, Control_c, 0, 64, 111
1, 374063, Control_c, 0, 64, 112
1, 374078, Control_c, 0, 64, 112
1, 374080, Note_off_c, 0, 65, 64
1, 374093, Control_c, 0, 64, 113
1, 374107, Control_c, 0, 64, 114
1, 374118, Note_on_c, 0, 59, 59
1, 374122, Control_c, 0, 64, 115
1, 374137, Control_c, 0, 64, 116
1, 374141, Note_off_c, 0, 59, 64
1, 374151, Control_c, 0, 64, 118
1, 374166, Control_c, 0, 64, 120
1, 374181, Control_c, 0, 64, 123
1, 374187, Note_off_c, 0, 83, 52
1, 374195, Note_off_c, 0, 71, 56
1, 374196, Control_c, 0, 64, 125
1, 374211, Control_c, 0, 64, 127
1, 374348, Note_on_c, 0, 36, 56
1, 374406, Note_on_c, 0, 80, 89
1, 374409, Note_on_c, 0, 76, 67
1, 374410, Note_on_c, 0, 68, 80
1, 374419, Control_c, 0, 64, 116
1, 374434, Control_c, 0, 64, 101
1, 374449, Control_c, 0, 64, 86
1, 374464, Control_c, 0, 64, 69
1, 374479, Control_c, 0, 64, 0
1, 374530, Control_c, 0, 64, 37
1, 374545, Control_c, 0, 64, 64
1, 374554, Note_off_c, 0, 36, 59
1, 374560, Control_c, 0, 64, 69
1, 374574, Control_c, 0, 64, 73
1, 374589, Control_c, 0, 64, 77
1, 374604, Control_c, 0, 64, 82
1, 374619, Control_c, 0, 64, 85
1, 374634, Control_c, 0, 64, 90
1, 374636, Note_on_c, 0, 48, 46
1, 374649, Control_c, 0, 64, 94
1, 374664, Control_c, 0, 64, 97
1, 374679, Control_c, 0, 64, 101
1, 374679, Note_off_c, 0, 48, 63
1, 374682, Note_off_c, 0, 68, 62
1, 374694, Control_c, 0, 64, 106
1, 374709, Control_c, 0, 64, 111
1, 374722, Note_off_c, 0, 80, 61
1, 374723, Control_c, 0, 64, 116
1, 374738, Control_c, 0, 64, 122
1, 374753, Control_c, 0, 64, 127
1, 374810, Note_on_c, 0, 52, 51
1, 374825, Note_on_c, 0, 81, 96
1, 374832, Note_on_c, 0, 69, 79
1, 374833, Note_off_c, 0, 76, 0
1, 374833, Note_on_c, 0, 76, 21
1, 374866, Note_off_c, 0, 76, 61
1, 374929, Note_off_c, 0, 69, 53
1, 374962, Note_on_c, 0, 57, 53
1, 374989, Note_off_c, 0, 81, 51
1, 375027, Note_off_c, 0, 52, 61
1, 375088, Note_on_c, 0, 60, 54
1, 375099, Note_on_c, 0, 84, 96
1, 375107, Note_off_c, 0, 57, 35
1, 375109, Note_on_c, 0, 72, 72
1, 375163, Note_on_c, 0, 74, 12
1, 375206, Note_off_c, 0, 60, 49
1, 375217, Note_on_c, 0, 57, 57
1, 375344, Note_off_c, 0, 84, 42
1, 375366, Note_off_c, 0, 57, 53
1, 375372, Note_on_c, 0, 75, 80
1, 375376, Note_on_c, 0, 54, 56
1, 375388, Note_off_c, 0, 74, 15
1, 375421, Note_off_c, 0, 72, 61
1, 375478, Note_off_c, 0, 54, 53
1, 375501, Note_on_c, 0, 48, 54
1, 375613, Note_off_c, 0, 48, 62
1, 375639, Note_on_c, 0, 54, 45
1, 375642, Note_on_c, 0, 82, 95
1, 375649, Note_on_c, 0, 70, 79
1, 375702, Note_off_c, 0, 75, 55
1, 375787, Note_off_c, 0, 54, 62
1, 375791, Note_on_c, 0, 57, 64
1, 375815, Note_off_c, 0, 82, 61
1, 375830, Note_off_c, 0, 70, 58
1, 375926, Note_off_c, 0, 57, 56
1, 375940, Note_on_c, 0, 63, 57
1, 375953, Note_on_c, 0, 81, 100
1, 375957, Note_on_c, 0, 69, 89
1, 376017, Note_off_c, 0, 63, 64
1, 376060, Note_on_c, 0, 57, 58
1, 376060, Poly_aftertouch_c, 0, 74, 0
1, 376080, Note_off_c, 0, 57, 61
1, 376119, Note_off_c, 0, 81, 54
1, 376148, Note_off_c, 0, 69, 60
1, 376281, Note_on_c, 0, 34, 61
1, 376375, Note_on_c, 0, 78, 93
1, 376380, Note_on_c, 0, 66, 83
1, 376380, Note_on_c, 0, 74, 70
1, 376384, Control_c, 0, 64, 98
1, 376399, Control_c, 0, 64, 78
1, 376414, Control_c, 0, 64, 0
1, 376458, Control_c, 0, 64, 44
1, 376473, Control_c, 0, 64, 66
1, 376488, Control_c, 0, 64, 72
1, 376502, Control_c, 0, 64, 76
1, 376517, Control_c, 0, 64, 80
1, 376532, Control_c, 0, 64, 83
1, 376546, Control_c, 0, 64, 86
1, 376561, Control_c, 0, 64, 89
1, 376572, Note_off_c, 0, 34, 62
1, 376576, Control_c, 0, 64, 92
1, 376590, Control_c, 0, 64, 94
1, 376605, Control_c, 0, 64, 97
1, 376615, Note_on_c, 0, 46, 63
1, 376619, Control_c, 0, 64, 99
1, 376634, Control_c, 0, 64, 101
1, 376649, Control_c, 0, 64, 103
1, 376651, Note_off_c, 0, 46, 62
1, 376664, Control_c, 0, 64, 104
1, 376679, Control_c, 0, 64, 105
1, 376694, Control_c, 0, 64, 106
1, 376709, Control_c, 0, 64, 107
1, 376710, Note_off_c, 0, 66, 62
1, 376724, Control_c, 0, 64, 108
1, 376745, Control_c, 0, 64, 109
1, 376760, Control_c, 0, 64, 110
1, 376766, Note_off_c, 0, 78, 59
1, 376775, Control_c, 0, 64, 110
1, 376790, Control_c, 0, 64, 111
1, 376804, Note_on_c, 0, 79, 91
1, 376805, Control_c, 0, 64, 111
1, 376807, Note_on_c, 0, 50, 60
1, 376807, Note_on_c, 0, 67, 81
1, 376820, Control_c, 0, 64, 112
1, 376836, Control_c, 0, 64, 112
1, 376850, Control_c, 0, 64, 113
1, 376865, Control_c, 0, 64, 113
1, 376866, Note_off_c, 0, 67, 57
1, 376880, Control_c, 0, 64, 114
1, 376895, Note_off_c, 0, 74, 33
1, 376895, Control_c, 0, 64, 115
1, 376907, Note_off_c, 0, 79, 63
1, 376910, Control_c, 0, 64, 116
1, 376924, Control_c, 0, 64, 117
1, 376939, Control_c, 0, 64, 118
1, 376954, Control_c, 0, 64, 118
1, 376955, Note_on_c, 0, 55, 71
1, 376968, Control_c, 0, 64, 119
1, 377013, Control_c, 0, 64, 119
1, 377043, Control_c, 0, 64, 120
1, 377087, Note_on_c, 0, 58, 79
1, 377087, Control_c, 0, 64, 120
1, 377090, Note_on_c, 0, 82, 97
1, 377096, Note_on_c, 0, 70, 90
1, 377102, Note_off_c, 0, 55, 59
1, 377102, Control_c, 0, 64, 121
1, 377120, Note_off_c, 0, 70, 62
1, 377132, Control_c, 0, 64, 121
1, 377153, Note_off_c, 0, 82, 60
1, 377186, Note_off_c, 0, 58, 63
1, 377195, Note_on_c, 0, 55, 64
1, 377211, Note_off_c, 0, 50, 58
1, 377211, Note_off_c, 0, 55, 67
1, 377221, Control_c, 0, 64, 122
1, 377236, Control_c, 0, 64, 122
1, 377250, Control_c, 0, 64, 123
1, 377265, Control_c, 0, 64, 124
1, 377280, Control_c, 0, 64, 127
1, 377324, Control_c, 0, 64, 120
1, 377340, Control_c, 0, 64, 105
1, 377355, Control_c, 0, 64, 88
1, 377369, Control_c, 0, 64, 69
1, 377373, Note_on_c, 0, 34, 64
1, 377381, Note_on_c, 0, 82, 75
1, 377381, Note_on_c, 0, 85, 93
1, 377384, Note_on_c, 0, 73, 80
1, 377384, Control_c, 0, 64, 0
1, 377399, Control_c, 0, 64, 28
1, 377414, Control_c, 0, 64, 63
1, 377429, Control_c, 0, 64, 70
1, 377443, Control_c, 0, 64, 79
1, 377458, Control_c, 0, 64, 88
1, 377473, Control_c, 0, 64, 92
1, 377485, Note_off_c, 0, 73, 61
1, 377488, Control_c, 0, 64, 95
1, 377510, Control_c, 0, 64, 99
1, 377525, Note_off_c, 0, 34, 60
1, 377525, Control_c, 0, 64, 103
1, 377531, Note_off_c, 0, 82, 62
1, 377540, Control_c, 0, 64, 106
1, 377540, Note_off_c, 0, 85, 65
1, 377555, Control_c, 0, 64, 107
1, 377570, Control_c, 0, 64, 108
1, 377582, Note_on_c, 0, 46, 46
1, 377614, Note_off_c, 0, 46, 50
1, 377614, Control_c, 0, 64, 109
1, 377630, Control_c, 0, 64, 109
1, 377645, Control_c, 0, 64, 110
1, 377734, Control_c, 0, 64, 110
1, 377767, Note_on_c, 0, 49, 50
1, 377772, Note_on_c, 0, 93, 95
1, 377773, Note_on_c, 0, 81, 72
1, 377852, Control_c, 0, 64, 111
1, 377866, Control_c, 0, 64, 111
1, 377881, Control_c, 0, 64, 112
1, 377911, Control_c, 0, 64, 112
1, 377925, Control_c, 0, 64, 113
1, 377934, Note_on_c, 0, 55, 50
1, 377985, Control_c, 0, 64, 113
1, 377993, Note_off_c, 0, 93, 52
1, 377994, Note_off_c, 0, 81, 56
1, 378028, Note_off_c, 0, 55, 60
1, 378044, Control_c, 0, 64, 114
1, 378092, Note_on_c, 0, 91, 97
1, 378095, Note_on_c, 0, 61, 44
1, 378100, Note_on_c, 0, 79, 84
1, 378171, Note_off_c, 0, 61, 61
1, 378206, Note_off_c, 0, 91, 52
1, 378226, Note_on_c, 0, 58, 62
1, 378258, Note_off_c, 0, 79, 61
1, 378262, Note_off_c, 0, 58, 66
1, 378305, Note_off_c, 0, 49, 40
1, 378363, Control_c, 0, 64, 114
1, 378453, Control_c, 0, 64, 111
1, 378467, Control_c, 0, 64, 99
1, 378469, Note_on_c, 0, 82, 54
1, 378472, Note_on_c, 0, 89, 80
1, 378479, Note_on_c, 0, 36, 50
1, 378482, Control_c, 0, 64, 83
1, 378485, Note_on_c, 0, 77, 62
1, 378497, Control_c, 0, 64, 65
1, 378512, Control_c, 0, 64, 0
1, 378556, Control_c, 0, 64, 52
1, 378571, Control_c, 0, 64, 64
1, 378586, Control_c, 0, 64, 67
1, 378601, Control_c, 0, 64, 69
1, 378615, Control_c, 0, 64, 73
1, 378630, Control_c, 0, 64, 76
1, 378643, Note_off_c, 0, 89, 58
1, 378645, Control_c, 0, 64, 79
1, 378657, Note_off_c, 0, 36, 37
1, 378660, Control_c, 0, 64, 80
1, 378660, Control_c, 0, 67, 11
1, 378675, Control_c, 0, 64, 81
1, 378675, Control_c, 0, 67, 18
1, 378689, Control_c, 0, 64, 81
1, 378689, Control_c, 0, 67, 27
1, 378691, Note_off_c, 0, 77, 60
1, 378704, Control_c, 0, 64, 82
1, 378704, Control_c, 0, 67, 37
1, 378719, Control_c, 0, 64, 83
1, 378719, Control_c, 0, 67, 46
1, 378726, Note_on_c, 0, 48, 48
1, 378734, Control_c, 0, 64, 83
1, 378734, Control_c, 0, 67, 53
1, 378748, Control_c, 0, 64, 84
1, 378748, Control_c, 0, 67, 58
1, 378757, Note_off_c, 0, 48, 60
1, 378763, Control_c, 0, 64, 84
1, 378763, Control_c, 0, 67, 63
1, 378778, Control_c, 0, 67, 67
1, 378793, Control_c, 0, 67, 72
1, 378808, Control_c, 0, 64, 85
1, 378808, Control_c, 0, 67, 77
1, 378822, Control_c, 0, 64, 85
1, 378822, Control_c, 0, 67, 83
1, 378837, Control_c, 0, 64, 86
1, 378837, Control_c, 0, 67, 87
1, 378852, Control_c, 0, 67, 91
1, 378867, Control_c, 0, 64, 86
1, 378867, Control_c, 0, 67, 95
1, 378882, Control_c, 0, 64, 87
1, 378882, Control_c, 0, 67, 97
1, 378897, Control_c, 0, 67, 100
1, 378912, Control_c, 0, 67, 105
1, 378914, Note_on_c, 0, 86, 82
1, 378926, Note_on_c, 0, 74, 58
1, 378927, Control_c, 0, 67, 112
1, 378941, Control_c, 0, 67, 119
1, 378956, Note_off_c, 0, 82, 37
1, 378956, Control_c, 0, 64, 87
1, 378956, Control_c, 0, 67, 127
1, 378968, Note_on_c, 0, 55, 37
1, 378971, Control_c, 0, 64, 88
1, 378971, Control_c, 0, 67, 127
1, 379008, Control_c, 0, 64, 88
1, 379022, Control_c, 0, 64, 89
1, 379052, Control_c, 0, 64, 89
1, 379082, Control_c, 0, 64, 90
1, 379126, Control_c, 0, 64, 90
1, 379128, Note_off_c, 0, 55, 38
1, 379139, Note_off_c, 0, 74, 35
1, 379144, Note_on_c, 0, 58, 43
1, 379149, Note_off_c, 0, 86, 52
1, 379186, Control_c, 0, 64, 91
1, 379206, Note_off_c, 0, 58, 51
1, 379395, Note_on_c, 0, 88, 69
1, 379420, Note_on_c, 0, 67, 34
1, 379422, Note_on_c, 0, 76, 42
1, 379541, Note_off_c, 0, 67, 35
1, 379624, Note_off_c, 0, 76, 34
1, 379654, Note_off_c, 0, 88, 36
1, 379712, Note_on_c, 0, 60, 34
1, 379764, Note_off_c, 0, 60, 51
1, 380114, Note_on_c, 0, 41, 37
1, 380173, Control_c, 0, 64, 90
1, 380182, Note_on_c, 0, 89, 51
1, 380187, Control_c, 0, 64, 88
1, 380195, Note_on_c, 0, 81, 38
1, 380202, Control_c, 0, 64, 82
1, 380205, Note_on_c, 0, 77, 38
1, 380217, Control_c, 0, 64, 73
1, 380232, Control_c, 0, 64, 57
1, 380247, Control_c, 0, 64, 0
1, 380380, Control_c, 0, 64, 44
1, 380394, Control_c, 0, 64, 55
1, 380409, Control_c, 0, 64, 60
1, 380424, Control_c, 0, 64, 63
1, 380439, Control_c, 0, 64, 65
1, 380454, Control_c, 0, 64, 67
1, 380468, Control_c, 0, 64, 70
1, 380491, Control_c, 0, 64, 74
1, 380506, Control_c, 0, 64, 77
1, 380520, Control_c, 0, 64, 79
1, 380535, Control_c, 0, 64, 80
1, 380550, Control_c, 0, 64, 81
1, 380565, Control_c, 0, 64, 82
1, 380580, Control_c, 0, 64, 82
1, 380594, Control_c, 0, 64, 83
1, 380603, Note_on_c, 0, 48, 37
1, 380609, Control_c, 0, 64, 84
1, 380629, Note_off_c, 0, 77, 24
1, 380639, Control_c, 0, 64, 84
1, 380643, Note_off_c, 0, 41, 42
1, 380664, Note_off_c, 0, 89, 30
1, 380691, Note_off_c, 0, 48, 38
1, 380774, Note_off_c, 0, 81, 30
1, 380914, Note_on_c, 0, 57, 44
1, 381028, Note_off_c, 0, 57, 57
1, 381549, Note_on_c, 0, 65, 51
1, 381988, Control_c, 0, 67, 127
1, 381999, Note_off_c, 0, 65, 26
1, 382003, Control_c, 0, 67, 123
1, 382018, Control_c, 0, 67, 120
1, 382033, Control_c, 0, 67, 116
1, 382048, Control_c, 0, 67, 112
1, 382062, Control_c, 0, 64, 84
1, 382062, Control_c, 0, 67, 107
1, 382077, Control_c, 0, 67, 102
1, 382092, Control_c, 0, 67, 98
1, 382107, Control_c, 0, 67, 95
1, 382122, Control_c, 0, 67, 92
1, 382137, Control_c, 0, 67, 89
1, 382152, Control_c, 0, 67, 85
1, 382166, Control_c, 0, 67, 81
1, 382181, Control_c, 0, 67, 77
1, 382196, Control_c, 0, 67, 74
1, 382211, Control_c, 0, 67, 72
1, 382226, Control_c, 0, 67, 70
1, 382240, Control_c, 0, 67, 67
1, 382255, Control_c, 0, 67, 65
1, 382270, Control_c, 0, 67, 62
1, 382285, Control_c, 0, 67, 58
1, 382299, Control_c, 0, 67, 55
1, 382314, Control_c, 0, 67, 52
1, 382329, Control_c, 0, 67, 51
1, 382344, Control_c, 0, 67, 50
1, 382358, Control_c, 0, 67, 49
1, 382373, Control_c, 0, 67, 48
1, 382388, Control_c, 0, 67, 48
1, 382403, Control_c, 0, 67, 47
1, 382449, Control_c, 0, 67, 47
1, 382641, Control_c, 0, 67, 47
1, 382685, Control_c, 0, 64, 83
1, 382811, Control_c, 0, 67, 48
1, 382841, Control_c, 0, 64, 83
1, 382870, Control_c, 0, 67, 48
1, 382885, Control_c, 0, 67, 49
1, 382915, Control_c, 0, 67, 49
1, 382930, Control_c, 0, 64, 82
1, 382930, Control_c, 0, 67, 50
1, 382960, Control_c, 0, 64, 82
1, 382960, Control_c, 0, 67, 50
1, 382975, Control_c, 0, 67, 51
1, 382989, Control_c, 0, 64, 81
1, 383004, Control_c, 0, 67, 51
1, 383019, Control_c, 0, 64, 81
1, 383034, Control_c, 0, 64, 80
1, 383034, Control_c, 0, 67, 52
1, 383049, Control_c, 0, 67, 52
1, 383063, Control_c, 0, 64, 80
1, 383078, Control_c, 0, 67, 53
1, 383093, Control_c, 0, 64, 79
1, 383093, Control_c, 0, 67, 53
1, 383107, Control_c, 0, 64, 79
1, 383122, Control_c, 0, 64, 78
1, 383122, Control_c, 0, 67, 54
1, 383137, Control_c, 0, 64, 77
1, 383152, Control_c, 0, 64, 77
1, 383152, Control_c, 0, 67, 55
1, 383167, Control_c, 0, 64, 76
1, 383182, Control_c, 0, 64, 76
1, 383196, Control_c, 0, 64, 75
1, 383196, Control_c, 0, 67, 55
1, 383212, Control_c, 0, 64, 74
1, 383212, Control_c, 0, 67, 56
1, 383227, Control_c, 0, 64, 74
1, 383227, Control_c, 0, 67, 56
1, 383242, Control_c, 0, 64, 73
1, 383242, Control_c, 0, 67, 57
1, 383257, Control_c, 0, 64, 72
1, 383272, Control_c, 0, 64, 72
1, 383272, Control_c, 0, 67, 57
1, 383286, Control_c, 0, 64, 71
1, 383301, Control_c, 0, 64, 71
1, 383301, Control_c, 0, 67, 58
1, 383316, Control_c, 0, 64, 70
1, 383331, Control_c, 0, 64, 70
1, 383331, Control_c, 0, 67, 58
1, 383346, Control_c, 0, 64, 69
1, 383361, Control_c, 0, 64, 68
1, 383361, Control_c, 0, 67, 59
1, 383376, Control_c, 0, 64, 67
1, 383376, Control_c, 0, 67, 59
1, 383391, Control_c, 0, 64, 66
1, 383405, Control_c, 0, 67, 60
1, 383420, Control_c, 0, 64, 66
1, 383420, Control_c, 0, 67, 60
1, 383450, Control_c, 0, 64, 65
1, 383450, Control_c, 0, 67, 61
1, 383465, Control_c, 0, 67, 63
1, 383487, Control_c, 0, 64, 65
1, 383487, Control_c, 0, 67, 65
1, 383502, Control_c, 0, 64, 64
1, 383502, Control_c, 0, 67, 66
1, 383517, Control_c, 0, 64, 64
1, 383517, Control_c, 0, 67, 67
1, 383532, Control_c, 0, 67, 67
1, 383591, Control_c, 0, 67, 68
1, 383620, Control_c, 0, 67, 68
1, 383680, Control_c, 0, 67, 69
1, 383694, Control_c, 0, 64, 63
1, 383694, Control_c, 0, 67, 70
1, 383709, Control_c, 0, 67, 72
1, 383724, Control_c, 0, 67, 73
1, 383738, Control_c, 0, 67, 73
1, 383872, Control_c, 0, 64, 64
1, 383887, Control_c, 0, 67, 74
1, 383902, Control_c, 0, 64, 64
1, 383917, Control_c, 0, 64, 65
1, 383917, Control_c, 0, 67, 74
1, 383961, Control_c, 0, 67, 75
1, 383976, Control_c, 0, 64, 65
1, 383976, Control_c, 0, 67, 77
1, 383991, Control_c, 0, 67, 80
1, 384006, Control_c, 0, 64, 66
1, 384006, Control_c, 0, 67, 83
1, 384021, Control_c, 0, 64, 66
1, 384021, Control_c, 0, 67, 87
1, 384036, Control_c, 0, 64, 67
1, 384036, Control_c, 0, 67, 91
1, 384051, Control_c, 0, 64, 67
1, 384051, Control_c, 0, 67, 96
1, 384066, Control_c, 0, 64, 68
1, 384066, Control_c, 0, 67, 101
1, 384079, Control_c, 0, 64, 69
1, 384079, Control_c, 0, 67, 105
1, 384094, Control_c, 0, 64, 70
1, 384094, Control_c, 0, 67, 109
1, 384108, Control_c, 0, 64, 71
1, 384108, Control_c, 0, 67, 113
1, 384123, Control_c, 0, 64, 71
1, 384123, Control_c, 0, 67, 116
1, 384138, Control_c, 0, 64, 72
1, 384138, Control_c, 0, 67, 121
1, 384152, Control_c, 0, 64, 72
1, 384152, Control_c, 0, 67, 125
1, 384167, Control_c, 0, 64, 73
1, 384167, Control_c, 0, 67, 127
1, 384182, Control_c, 0, 64, 74
1, 384197, Control_c, 0, 64, 75
1, 384212, Control_c, 0, 64, 76
1, 384234, Control_c, 0, 64, 76
1, 384249, Control_c, 0, 64, 77
1, 384279, Control_c, 0, 64, 77
1, 384294, Control_c, 0, 64, 78
1, 384308, Control_c, 0, 64, 78
1, 384323, Control_c, 0, 64, 79
1, 384338, Control_c, 0, 64, 79
1, 384353, Control_c, 0, 64, 80
1, 384367, Control_c, 0, 64, 80
1, 384382, Control_c, 0, 64, 81
1, 384397, Control_c, 0, 64, 82
1, 384408, Note_on_c, 0, 88, 48
1, 384412, Control_c, 0, 64, 82
1, 384424, Note_on_c, 0, 84, 27
1, 384427, Note_on_c, 0, 72, 31
1, 384427, Control_c, 0, 64, 83
1, 384441, Control_c, 0, 64, 83
1, 384456, Control_c, 0, 64, 84
1, 384471, Control_c, 0, 64, 85
1, 384486, Control_c, 0, 64, 86
1, 384501, Control_c, 0, 64, 87
1, 384516, Control_c, 0, 64, 88
1, 384531, Control_c, 0, 64, 89
1, 384546, Control_c, 0, 64, 90
1, 384560, Control_c, 0, 64, 90
1, 384575, Control_c, 0, 64, 91
1, 384590, Control_c, 0, 64, 92
1, 384605, Control_c, 0, 64, 92
1, 384620, Control_c, 0, 64, 93
1, 384634, Note_off_c, 0, 72, 36
1, 384634, Control_c, 0, 64, 94
1, 384649, Control_c, 0, 64, 94
1, 384678, Control_c, 0, 64, 95
1, 384693, Control_c, 0, 64, 95
1, 384723, Control_c, 0, 64, 96
1, 384738, Control_c, 0, 64, 96
1, 384758, Note_off_c, 0, 84, 20
1, 384767, Control_c, 0, 64, 97
1, 384798, Control_c, 0, 64, 97
1, 384837, Note_off_c, 0, 88, 35
1, 384843, Control_c, 0, 64, 98
1, 384857, Note_on_c, 0, 83, 35
1, 384902, Control_c, 0, 64, 98
1, 384972, Note_off_c, 0, 83, 36
1, 385179, Note_on_c, 0, 71, 32
1, 385180, Note_on_c, 0, 87, 52
1, 385186, Note_on_c, 0, 57, 32
1, 385188, Note_on_c, 0, 83, 35
1, 385431, Note_off_c, 0, 87, 28
1, 385446, Note_off_c, 0, 71, 32
1, 385495, Note_off_c, 0, 83, 24
1, 385508, Note_on_c, 0, 81, 34
1, 385613, Note_off_c, 0, 81, 32
1, 385764, Note_on_c, 0, 81, 37
1, 385765, Note_on_c, 0, 69, 49
1, 385768, Note_on_c, 0, 84, 52
1, 385956, Note_off_c, 0, 69, 53
1, 385973, Note_off_c, 0, 84, 54
1, 386005, Note_off_c, 0, 81, 36
1, 386025, Note_on_c, 0, 79, 37
1, 386093, Note_off_c, 0, 79, 39
1, 386117, Control_c, 0, 67, 127
1, 386131, Control_c, 0, 67, 126
1, 386146, Control_c, 0, 67, 125
1, 386161, Control_c, 0, 67, 124
1, 386176, Control_c, 0, 67, 123
1, 386191, Control_c, 0, 67, 121
1, 386206, Control_c, 0, 67, 119
1, 386221, Control_c, 0, 67, 118
1, 386236, Control_c, 0, 67, 116
1, 386250, Control_c, 0, 67, 115
1, 386254, Note_on_c, 0, 83, 52
1, 386260, Note_on_c, 0, 79, 38
1, 386262, Note_on_c, 0, 67, 42
1, 386265, Control_c, 0, 67, 114
1, 386280, Control_c, 0, 67, 113
1, 386295, Control_c, 0, 67, 112
1, 386310, Control_c, 0, 67, 110
1, 386324, Control_c, 0, 67, 108
1, 386339, Control_c, 0, 67, 106
1, 386354, Control_c, 0, 67, 104
1, 386369, Control_c, 0, 67, 103
1, 386384, Control_c, 0, 67, 101
1, 386400, Control_c, 0, 67, 100
1, 386403, Note_off_c, 0, 67, 38
1, 386415, Control_c, 0, 67, 97
1, 386418, Note_off_c, 0, 83, 54
1, 386429, Control_c, 0, 67, 94
1, 386444, Control_c, 0, 67, 89
1, 386450, Note_off_c, 0, 79, 39
1, 386459, Control_c, 0, 67, 84
1, 386481, Control_c, 0, 67, 81
1, 386489, Note_on_c, 0, 77, 40
1, 386496, Control_c, 0, 67, 78
1, 386510, Control_c, 0, 67, 74
1, 386525, Control_c, 0, 67, 71
1, 386540, Control_c, 0, 67, 66
1, 386555, Control_c, 0, 67, 62
1, 386570, Control_c, 0, 67, 56
1, 386572, Note_off_c, 0, 77, 33
1, 386584, Control_c, 0, 67, 51
1, 386599, Control_c, 0, 67, 46
1, 386614, Control_c, 0, 67, 41
1, 386629, Control_c, 0, 67, 36
1, 386644, Control_c, 0, 67, 31
1, 386659, Control_c, 0, 67, 26
1, 386674, Control_c, 0, 67, 21
1, 386689, Control_c, 0, 67, 16
1, 386703, Control_c, 0, 67, 11
1, 386718, Control_c, 0, 67, 0
1, 386719, Note_on_c, 0, 81, 54
1, 386736, Note_on_c, 0, 65, 32
1, 386746, Note_on_c, 0, 77, 10
1, 386844, Note_off_c, 0, 57, 40
1, 386844, Note_off_c, 0, 65, 37
1, 386860, Note_off_c, 0, 81, 55
1, 386930, Note_off_c, 0, 77, 44
1, 386938, Note_on_c, 0, 75, 38
1, 387005, Note_off_c, 0, 75, 40
1, 387206, Note_on_c, 0, 52, 37
1, 387230, Control_c, 0, 64, 98
1, 387236, Note_on_c, 0, 64, 12
1, 387241, Note_on_c, 0, 80, 51
1, 387245, Control_c, 0, 64, 94
1, 387247, Note_on_c, 0, 76, 40
1, 387259, Control_c, 0, 64, 88
1, 387274, Control_c, 0, 64, 79
1, 387289, Control_c, 0, 64, 69
1, 387303, Control_c, 0, 64, 46
1, 387318, Control_c, 0, 64, 0
1, 387333, Control_c, 0, 64, 28
1, 387348, Control_c, 0, 64, 59
1, 387363, Control_c, 0, 64, 64
1, 387377, Control_c, 0, 64, 67
1, 387392, Control_c, 0, 64, 71
1, 387407, Control_c, 0, 64, 75
1, 387422, Control_c, 0, 64, 78
1, 387437, Control_c, 0, 64, 79
1, 387452, Control_c, 0, 64, 80
1, 387467, Control_c, 0, 64, 81
1, 387469, Note_off_c, 0, 76, 51
1, 387482, Control_c, 0, 64, 82
1, 387492, Note_off_c, 0, 80, 51
1, 387497, Control_c, 0, 64, 84
1, 387511, Control_c, 0, 64, 85
1, 387526, Control_c, 0, 64, 86
1, 387541, Control_c, 0, 64, 86
1, 387548, Note_on_c, 0, 71, 27
1, 387556, Control_c, 0, 64, 87
1, 387571, Control_c, 0, 64, 88
1, 387585, Control_c, 0, 64, 88
1, 387600, Control_c, 0, 64, 89
1, 387615, Control_c, 0, 64, 89
1, 387625, Note_off_c, 0, 71, 34
1, 387630, Control_c, 0, 64, 90
1, 387645, Control_c, 0, 64, 91
1, 387674, Control_c, 0, 64, 91
1, 387703, Control_c, 0, 64, 92
1, 387748, Control_c, 0, 64, 92
1, 387783, Note_on_c, 0, 71, 38
1, 387783, Note_on_c, 0, 77, 52
1, 387795, Note_on_c, 0, 59, 31
1, 387881, Control_c, 0, 64, 93
1, 387935, Note_off_c, 0, 64, 33
1, 387969, Note_off_c, 0, 71, 38
1, 387995, Note_on_c, 0, 68, 45
1, 388020, Note_off_c, 0, 77, 36
1, 388135, Note_off_c, 0, 68, 41
1, 388237, Note_on_c, 0, 76, 54
1, 388248, Note_on_c, 0, 56, 39
1, 388252, Note_on_c, 0, 68, 47
1, 388415, Note_off_c, 0, 68, 55
1, 388427, Note_off_c, 0, 59, 19
1, 388442, Note_on_c, 0, 64, 45
1, 388480, Note_off_c, 0, 64, 51
1, 388649, Note_off_c, 0, 76, 0
1, 388686, Poly_aftertouch_c, 0, 76, 127
1, 388698, Note_on_c, 0, 60, 62
1, 388737, Note_on_c, 0, 72, 27
1, 388780, Note_off_c, 0, 56, 41
1, 388799, Note_off_c, 0, 52, 48
1, 388880, Note_off_c, 0, 60, 51
1, 388916, Note_off_c, 0, 72, 20
1, 388966, Poly_aftertouch_c, 0, 76, 0
1, 388969, Note_on_c, 0, 71, 42
1, 389052, Note_off_c, 0, 71, 47
1, 389246, Control_c, 0, 64, 92
1, 389254, Note_on_c, 0, 71, 48
1, 389255, Note_on_c, 0, 45, 44
1, 389255, Note_on_c, 0, 59, 40
1, 389258, Note_on_c, 0, 75, 55
1, 389261, Control_c, 0, 64, 91
1, 389275, Control_c, 0, 64, 86
1, 389290, Control_c, 0, 64, 78
1, 389305, Control_c, 0, 64, 66
1, 389320, Control_c, 0, 64, 0
1, 389394, Control_c, 0, 64, 38
1, 389409, Control_c, 0, 64, 62
1, 389423, Control_c, 0, 64, 66
1, 389438, Control_c, 0, 64, 67
1, 389453, Control_c, 0, 64, 69
1, 389475, Control_c, 0, 64, 71
1, 389490, Control_c, 0, 64, 73
1, 389505, Control_c, 0, 64, 76
1, 389520, Control_c, 0, 64, 78
1, 389535, Control_c, 0, 64, 79
1, 389549, Control_c, 0, 64, 79
1, 389564, Control_c, 0, 64, 80
1, 389574, Note_off_c, 0, 75, 51
1, 389579, Control_c, 0, 64, 81
1, 389589, Note_off_c, 0, 71, 36
1, 389594, Control_c, 0, 64, 82
1, 389596, Note_on_c, 0, 69, 42
1, 389610, Control_c, 0, 64, 83
1, 389625, Control_c, 0, 64, 83
1, 389640, Control_c, 0, 64, 84
1, 389647, Note_off_c, 0, 59, 41
1, 389654, Control_c, 0, 64, 84
1, 389669, Control_c, 0, 64, 85
1, 389673, Note_off_c, 0, 69, 53
1, 389713, Control_c, 0, 64, 85
1, 389773, Control_c, 0, 64, 86
1, 389821, Note_on_c, 0, 57, 57
1, 389829, Note_on_c, 0, 72, 54
1, 389831, Note_on_c, 0, 69, 39
1, 389905, Control_c, 0, 64, 86
1, 390032, Note_off_c, 0, 72, 55
1, 390061, Note_on_c, 0, 67, 40
1, 390069, Control_c, 0, 64, 87
1, 390072, Note_off_c, 0, 69, 38
1, 390107, Note_off_c, 0, 57, 37
1, 390169, Note_off_c, 0, 67, 34
1, 390305, Note_on_c, 0, 55, 58
1, 390316, Note_on_c, 0, 67, 46
1, 390319, Note_on_c, 0, 71, 54
1, 390486, Note_off_c, 0, 71, 57
1, 390532, Note_off_c, 0, 67, 38
1, 390544, Note_on_c, 0, 65, 44
1, 390564, Note_off_c, 0, 55, 37
1, 390600, Note_off_c, 0, 65, 43
1, 390772, Note_on_c, 0, 69, 63
1, 390773, Note_on_c, 0, 65, 51
1, 390785, Note_on_c, 0, 53, 49
1, 390895, Note_off_c, 0, 53, 54
1, 390898, Note_off_c, 0, 45, 42
1, 390972, Note_off_c, 0, 69, 61
1, 390992, Note_off_c, 0, 65, 53
1, 391025, Note_on_c, 0, 63, 34
1, 391062, Note_off_c, 0, 63, 49
1, 391256, Control_c, 0, 64, 84
1, 391270, Control_c, 0, 64, 77
1, 391276, Note_on_c, 0, 40, 36
1, 391276, Note_on_c, 0, 68, 59
1, 391279, Note_on_c, 0, 52, 38
1, 391285, Control_c, 0, 64, 63
1, 391294, Note_on_c, 0, 64, 42
1, 391300, Control_c, 0, 64, 0
1, 391359, Control_c, 0, 67, 8
1, 391374, Control_c, 0, 64, 52
1, 391374, Control_c, 0, 67, 10
1, 391389, Control_c, 0, 64, 64
1, 391389, Control_c, 0, 67, 12
1, 391404, Control_c, 0, 64, 67
1, 391404, Control_c, 0, 67, 15
1, 391418, Control_c, 0, 64, 69
1, 391418, Control_c, 0, 67, 17
1, 391433, Control_c, 0, 64, 72
1, 391433, Control_c, 0, 67, 21
1, 391448, Control_c, 0, 64, 75
1, 391448, Control_c, 0, 67, 25
1, 391463, Control_c, 0, 64, 77
1, 391463, Control_c, 0, 67, 30
1, 391477, Control_c, 0, 64, 79
1, 391477, Control_c, 0, 67, 35
1, 391492, Control_c, 0, 64, 80
1, 391492, Control_c, 0, 67, 41
1, 391499, Note_off_c, 0, 64, 43
1, 391502, Note_off_c, 0, 68, 55
1, 391507, Control_c, 0, 64, 81
1, 391507, Control_c, 0, 67, 46
1, 391522, Control_c, 0, 64, 82
1, 391522, Control_c, 0, 67, 52
1, 391537, Control_c, 0, 64, 83
1, 391537, Control_c, 0, 67, 57
1, 391551, Control_c, 0, 64, 83
1, 391551, Control_c, 0, 67, 61
1, 391559, Note_on_c, 0, 59, 37
1, 391566, Control_c, 0, 64, 84
1, 391566, Control_c, 0, 67, 64
1, 391581, Control_c, 0, 64, 84
1, 391581, Control_c, 0, 67, 67
1, 391596, Control_c, 0, 67, 70
1, 391611, Control_c, 0, 67, 73
1, 391625, Control_c, 0, 64, 85
1, 391625, Control_c, 0, 67, 77
1, 391640, Control_c, 0, 67, 80
1, 391650, Note_off_c, 0, 59, 33
1, 391655, Control_c, 0, 67, 81
1, 391670, Control_c, 0, 67, 82
1, 391766, Control_c, 0, 67, 83
1, 391782, Note_off_c, 0, 52, 37
1, 391792, Note_on_c, 0, 59, 40
1, 391792, Note_on_c, 0, 65, 54
1, 391796, Control_c, 0, 64, 85
1, 391811, Control_c, 0, 67, 83
1, 391825, Note_on_c, 0, 47, 29
1, 391914, Control_c, 0, 64, 86
1, 392004, Note_off_c, 0, 59, 36
1, 392018, Note_on_c, 0, 56, 34
1, 392019, Control_c, 0, 64, 86
1, 392019, Control_c, 0, 67, 83
1, 392049, Note_off_c, 0, 65, 36
1, 392063, Control_c, 0, 64, 87
1, 392108, Control_c, 0, 67, 82
1, 392116, Note_off_c, 0, 56, 34
1, 392156, Note_off_c, 0, 47, 37
1, 392182, Control_c, 0, 64, 87
1, 392241, Control_c, 0, 67, 82
1, 392256, Note_on_c, 0, 56, 43
1, 392264, Note_on_c, 0, 64, 50
1, 392306, Note_off_c, 0, 40, 40
1, 392329, Poly_aftertouch_c, 0, 44, 0
1, 392434, Control_c, 0, 67, 82
1, 392451, Note_off_c, 0, 64, 37
1, 392463, Control_c, 0, 67, 83
1, 392545, Note_on_c, 0, 52, 38
1, 392573, Note_off_c, 0, 52, 58
1, 392579, Note_off_c, 0, 56, 40
1, 392604, Control_c, 0, 67, 82
1, 392648, Control_c, 0, 67, 82
1, 392737, Control_c, 0, 64, 88
1, 392767, Control_c, 0, 67, 81
1, 392931, Control_c, 0, 67, 81
1, 392943, Note_on_c, 0, 33, 35
1, 392996, Note_on_c, 0, 88, 77
1, 392999, Note_on_c, 0, 84, 57
1, 393005, Control_c, 0, 64, 87
1, 393020, Control_c, 0, 64, 85
1, 393035, Control_c, 0, 64, 78
1, 393050, Control_c, 0, 64, 67
1, 393050, Control_c, 0, 67, 81
1, 393065, Control_c, 0, 64, 0
1, 393095, Control_c, 0, 67, 82
1, 393110, Control_c, 0, 67, 82
1, 393124, Control_c, 0, 64, 37
1, 393139, Control_c, 0, 64, 59
1, 393139, Control_c, 0, 67, 83
1, 393154, Control_c, 0, 64, 65
1, 393154, Control_c, 0, 67, 83
1, 393169, Control_c, 0, 64, 68
1, 393184, Control_c, 0, 64, 70
1, 393198, Control_c, 0, 64, 73
1, 393220, Control_c, 0, 64, 76
1, 393235, Control_c, 0, 64, 78
1, 393250, Control_c, 0, 64, 80
1, 393256, Note_off_c, 0, 33, 51
1, 393265, Control_c, 0, 64, 80
1, 393280, Control_c, 0, 64, 81
1, 393294, Control_c, 0, 64, 83
1, 393309, Control_c, 0, 64, 84
1, 393324, Control_c, 0, 64, 86
1, 393324, Control_c, 0, 67, 83
1, 393339, Control_c, 0, 64, 87
1, 393339, Control_c, 0, 67, 82
1, 393354, Control_c, 0, 64, 88
1, 393369, Control_c, 0, 64, 88
1, 393369, Control_c, 0, 67, 82
1, 393378, Note_off_c, 0, 84, 61
1, 393384, Control_c, 0, 64, 89
1, 393384, Note_on_c, 0, 83, 51
1, 393398, Control_c, 0, 67, 81
1, 393413, Control_c, 0, 64, 89
1, 393442, Note_off_c, 0, 83, 50
1, 393447, Note_off_c, 0, 88, 59
1, 393576, Control_c, 0, 67, 82
1, 393665, Control_c, 0, 67, 82
1, 393675, Note_on_c, 0, 83, 47
1, 393679, Note_on_c, 0, 87, 59
1, 393680, Control_c, 0, 64, 89
1, 393691, Note_on_c, 0, 71, 42
1, 393695, Control_c, 0, 64, 86
1, 393697, Note_on_c, 0, 57, 43
1, 393710, Control_c, 0, 64, 78
1, 393725, Control_c, 0, 64, 64
1, 393739, Control_c, 0, 64, 0
1, 393754, Control_c, 0, 67, 82
1, 393769, Control_c, 0, 67, 81
1, 393784, Control_c, 0, 64, 28
1, 393799, Control_c, 0, 64, 56
1, 393813, Control_c, 0, 64, 63
1, 393828, Control_c, 0, 64, 66
1, 393843, Control_c, 0, 64, 69
1, 393858, Control_c, 0, 64, 72
1, 393873, Control_c, 0, 64, 75
1, 393873, Control_c, 0, 67, 81
1, 393888, Control_c, 0, 64, 77
1, 393888, Control_c, 0, 67, 80
1, 393903, Control_c, 0, 64, 78
1, 393917, Control_c, 0, 64, 79
1, 393932, Control_c, 0, 64, 80
1, 393947, Control_c, 0, 64, 81
1, 393969, Control_c, 0, 64, 82
1, 393984, Control_c, 0, 64, 82
1, 393984, Control_c, 0, 67, 80
1, 393999, Control_c, 0, 64, 83
1, 394014, Control_c, 0, 64, 83
1, 394028, Control_c, 0, 64, 84
1, 394028, Control_c, 0, 67, 79
1, 394029, Note_on_c, 0, 81, 38
1, 394041, Note_off_c, 0, 83, 23
1, 394056, Note_off_c, 0, 87, 28
1, 394058, Control_c, 0, 64, 84
1, 394072, Note_off_c, 0, 71, 36
1, 394072, Control_c, 0, 64, 85
1, 394102, Control_c, 0, 64, 85
1, 394132, Control_c, 0, 67, 79
1, 394163, Note_off_c, 0, 81, 38
1, 394177, Control_c, 0, 64, 86
1, 394266, Control_c, 0, 67, 78
1, 394280, Control_c, 0, 67, 78
1, 394282, Note_on_c, 0, 69, 59
1, 394293, Note_on_c, 0, 84, 50
1, 394297, Note_on_c, 0, 81, 36
1, 394415, Control_c, 0, 64, 86
1, 394511, Note_off_c, 0, 84, 54
1, 394533, Control_c, 0, 64, 87
1, 394535, Note_on_c, 0, 79, 38
1, 394564, Note_off_c, 0, 81, 33
1, 394607, Control_c, 0, 67, 78
1, 394611, Note_off_c, 0, 69, 39
1, 394663, Note_off_c, 0, 79, 38
1, 394666, Control_c, 0, 64, 87
1, 394718, Control_c, 0, 67, 79
1, 394779, Note_on_c, 0, 67, 62
1, 394806, Note_on_c, 0, 83, 46
1, 394808, Note_on_c, 0, 79, 31
1, 394837, Control_c, 0, 67, 79
1, 394866, Control_c, 0, 67, 80
1, 394959, Note_off_c, 0, 83, 53
1, 394998, Note_off_c, 0, 79, 36
1, 395000, Control_c, 0, 67, 80
1, 395021, Note_off_c, 0, 67, 49
1, 395022, Note_on_c, 0, 77, 40
1, 395091, Note_off_c, 0, 77, 33
1, 395118, Control_c, 0, 67, 81
1, 395256, Note_on_c, 0, 65, 61
1, 395259, Note_on_c, 0, 77, 20
1, 395268, Note_on_c, 0, 81, 53
1, 395384, Note_off_c, 0, 57, 39
1, 395409, Note_off_c, 0, 81, 52
1, 395434, Note_off_c, 0, 65, 49
1, 395497, Note_off_c, 0, 77, 37
1, 395516, Note_on_c, 0, 75, 31
1, 395525, Control_c, 0, 67, 81
1, 395560, Note_off_c, 0, 75, 46
1, 395658, Control_c, 0, 67, 81
1, 395778, Control_c, 0, 64, 86
1, 395792, Control_c, 0, 64, 81
1, 395807, Control_c, 0, 64, 70
1, 395807, Note_on_c, 0, 64, 39
1, 395810, Note_on_c, 0, 80, 49
1, 395811, Note_on_c, 0, 52, 43
1, 395822, Control_c, 0, 64, 24
1, 395831, Note_on_c, 0, 76, 30
1, 395836, Control_c, 0, 64, 0
1, 395896, Control_c, 0, 64, 45
1, 395910, Control_c, 0, 64, 63
1, 395925, Control_c, 0, 64, 67
1, 395940, Control_c, 0, 64, 70
1, 395955, Control_c, 0, 64, 73
1, 395955, Control_c, 0, 67, 80
1, 395970, Control_c, 0, 64, 77
1, 395986, Control_c, 0, 64, 79
1, 395986, Control_c, 0, 67, 80
1, 396001, Control_c, 0, 64, 80
1, 396015, Control_c, 0, 64, 81
1, 396030, Control_c, 0, 64, 82
1, 396045, Control_c, 0, 64, 83
1, 396058, Note_off_c, 0, 76, 40
1, 396058, Control_c, 0, 64, 83
1, 396073, Control_c, 0, 64, 84
1, 396088, Control_c, 0, 67, 79
1, 396091, Note_off_c, 0, 80, 38
1, 396103, Control_c, 0, 64, 85
1, 396103, Control_c, 0, 67, 79
1, 396118, Control_c, 0, 64, 85
1, 396137, Note_on_c, 0, 71, 22
1, 396147, Control_c, 0, 64, 86
1, 396191, Note_off_c, 0, 71, 41
1, 396192, Control_c, 0, 64, 86
1, 396192, Control_c, 0, 67, 78
1, 396207, Control_c, 0, 67, 78
1, 396244, Control_c, 0, 67, 77
1, 396259, Control_c, 0, 67, 77
1, 396318, Control_c, 0, 67, 76
1, 396353, Note_on_c, 0, 59, 38
1, 396362, Note_on_c, 0, 77, 50
1, 396362, Control_c, 0, 67, 76
1, 396366, Note_on_c, 0, 71, 39
1, 396377, Control_c, 0, 67, 75
1, 396406, Note_off_c, 0, 64, 34
1, 396407, Control_c, 0, 64, 87
1, 396407, Control_c, 0, 67, 75
1, 396466, Control_c, 0, 67, 74
1, 396496, Control_c, 0, 67, 74
1, 396511, Control_c, 0, 67, 73
1, 396526, Control_c, 0, 64, 87
1, 396540, Control_c, 0, 67, 73
1, 396585, Control_c, 0, 67, 72
1, 396590, Note_off_c, 0, 71, 36
1, 396600, Control_c, 0, 67, 72
1, 396603, Note_on_c, 0, 68, 45
1, 396629, Control_c, 0, 67, 71
1, 396648, Note_off_c, 0, 77, 34
1, 396658, Control_c, 0, 67, 70
1, 396678, Note_off_c, 0, 68, 35
1, 396688, Control_c, 0, 67, 68
1, 396703, Control_c, 0, 67, 67
1, 396718, Control_c, 0, 67, 65
1, 396732, Control_c, 0, 67, 63
1, 396747, Control_c, 0, 67, 61
1, 396762, Control_c, 0, 67, 59
1, 396777, Control_c, 0, 67, 57
1, 396793, Control_c, 0, 67, 54
1, 396809, Control_c, 0, 67, 52
1, 396824, Control_c, 0, 67, 51
1, 396831, Note_on_c, 0, 68, 45
1, 396831, Note_on_c, 0, 76, 54
1, 396835, Note_on_c, 0, 56, 50
1, 396838, Control_c, 0, 67, 49
1, 396853, Control_c, 0, 67, 46
1, 396868, Control_c, 0, 67, 44
1, 396882, Control_c, 0, 67, 41
1, 396889, Note_off_c, 0, 59, 34
1, 396897, Control_c, 0, 67, 38
1, 396912, Control_c, 0, 67, 35
1, 396927, Control_c, 0, 67, 33
1, 396942, Control_c, 0, 67, 30
1, 396964, Control_c, 0, 67, 28
1, 396979, Control_c, 0, 67, 26
1, 396994, Control_c, 0, 67, 22
1, 397009, Control_c, 0, 67, 19
1, 397021, Note_off_c, 0, 76, 35
1, 397024, Control_c, 0, 67, 16
1, 397038, Control_c, 0, 67, 13
1, 397053, Control_c, 0, 67, 10
1, 397054, Note_on_c, 0, 64, 48
1, 397057, Note_off_c, 0, 68, 43
1, 397068, Control_c, 0, 67, 8
1, 397079, Note_off_c, 0, 64, 60
1, 397083, Control_c, 0, 67, 0
1, 397303, Note_on_c, 0, 60, 69
1, 397313, Note_on_c, 0, 76, 52
1, 397315, Note_on_c, 0, 72, 46
1, 397448, Note_off_c, 0, 52, 41
1, 397456, Note_off_c, 0, 56, 35
1, 397530, Note_off_c, 0, 60, 38
1, 397541, Note_off_c, 0, 72, 37
1, 397566, Note_off_c, 0, 76, 54
1, 397585, Note_on_c, 0, 71, 40
1, 397700, Note_off_c, 0, 71, 33
1, 397870, Note_on_c, 0, 71, 43
1, 397870, Note_on_c, 0, 59, 56
1, 397883, Note_on_c, 0, 75, 50
1, 397887, Note_on_c, 0, 45, 49
1, 397890, Control_c, 0, 64, 86
1, 397905, Control_c, 0, 64, 81
1, 397919, Control_c, 0, 64, 71
1, 397934, Control_c, 0, 64, 51
1, 397949, Control_c, 0, 64, 0
1, 398023, Control_c, 0, 64, 47
1, 398037, Control_c, 0, 64, 63
1, 398052, Control_c, 0, 64, 65
1, 398067, Control_c, 0, 64, 67
1, 398082, Control_c, 0, 64, 69
1, 398097, Control_c, 0, 64, 72
1, 398112, Control_c, 0, 64, 75
1, 398127, Control_c, 0, 64, 78
1, 398141, Control_c, 0, 64, 79
1, 398156, Control_c, 0, 64, 80
1, 398171, Control_c, 0, 64, 80
1, 398186, Control_c, 0, 64, 81
1, 398201, Control_c, 0, 64, 82
1, 398216, Control_c, 0, 64, 84
1, 398219, Note_off_c, 0, 75, 32
1, 398230, Control_c, 0, 64, 84
1, 398245, Control_c, 0, 64, 85
1, 398247, Note_on_c, 0, 69, 44
1, 398260, Control_c, 0, 64, 85
1, 398268, Note_off_c, 0, 71, 33
1, 398344, Note_off_c, 0, 59, 35
1, 398374, Note_off_c, 0, 69, 39
1, 398502, Note_on_c, 0, 57, 64
1, 398517, Note_on_c, 0, 72, 49
1, 398518, Note_on_c, 0, 69, 41
1, 398720, Note_off_c, 0, 72, 53
1, 398764, Note_off_c, 0, 69, 42
1, 398769, Note_on_c, 0, 67, 40
1, 398890, Note_off_c, 0, 67, 33
1, 398890, Control_c, 0, 64, 86
1, 398913, Note_off_c, 0, 57, 54
1, 398979, Control_c, 0, 64, 86
1, 398994, Control_c, 0, 64, 87
1, 399004, Note_on_c, 0, 55, 71
1, 399033, Note_on_c, 0, 67, 41
1, 399039, Control_c, 0, 64, 87
1, 399044, Note_on_c, 0, 71, 42
1, 399083, Control_c, 0, 64, 88
1, 399142, Control_c, 0, 64, 88
1, 399208, Note_off_c, 0, 71, 57
1, 399225, Control_c, 0, 64, 89
1, 399261, Note_off_c, 0, 67, 41
1, 399273, Note_on_c, 0, 65, 47
1, 399381, Note_off_c, 0, 65, 34
1, 399397, Note_off_c, 0, 55, 51
1, 399519, Note_on_c, 0, 53, 79
1, 399542, Note_on_c, 0, 65, 34
1, 399542, Note_on_c, 0, 69, 41
1, 399697, Note_off_c, 0, 69, 54
1, 399735, Note_off_c, 0, 45, 51
1, 399757, Control_c, 0, 67, 8
1, 399772, Control_c, 0, 67, 9
1, 399787, Control_c, 0, 67, 10
1, 399801, Note_off_c, 0, 65, 41
1, 399803, Control_c, 0, 67, 11
1, 399804, Note_on_c, 0, 63, 42
1, 399817, Control_c, 0, 67, 12
1, 399830, Note_off_c, 0, 53, 39
1, 399832, Control_c, 0, 67, 13
1, 399847, Control_c, 0, 67, 15
1, 399862, Control_c, 0, 67, 16
1, 399877, Control_c, 0, 67, 17
1, 399891, Control_c, 0, 67, 18
1, 399906, Control_c, 0, 67, 19
1, 399921, Control_c, 0, 67, 20
1, 399936, Control_c, 0, 67, 21
1, 399941, Note_off_c, 0, 63, 40
1, 399951, Control_c, 0, 67, 22
1, 399973, Control_c, 0, 67, 24
1, 399989, Control_c, 0, 67, 25
1, 400004, Control_c, 0, 67, 26
1, 400019, Control_c, 0, 67, 26
1, 400049, Control_c, 0, 67, 27
1, 400107, Control_c, 0, 64, 88
1, 400122, Control_c, 0, 64, 83
1, 400136, Note_on_c, 0, 40, 43
1, 400136, Note_on_c, 0, 68, 51
1, 400137, Control_c, 0, 64, 72
1, 400140, Note_on_c, 0, 52, 37
1, 400145, Note_on_c, 0, 64, 44
1, 400152, Control_c, 0, 64, 0
1, 400196, Control_c, 0, 67, 26
1, 400240, Control_c, 0, 64, 40
1, 400255, Control_c, 0, 64, 60
1, 400270, Control_c, 0, 64, 64
1, 400285, Control_c, 0, 64, 65
1, 400300, Control_c, 0, 64, 67
1, 400315, Control_c, 0, 64, 69
1, 400315, Control_c, 0, 67, 26
1, 400329, Control_c, 0, 64, 71
1, 400329, Control_c, 0, 67, 25
1, 400344, Control_c, 0, 64, 73
1, 400359, Control_c, 0, 64, 75
1, 400374, Control_c, 0, 64, 77
1, 400389, Control_c, 0, 64, 78
1, 400404, Control_c, 0, 64, 78
1, 400404, Control_c, 0, 67, 25
1, 400419, Control_c, 0, 64, 79
1, 400419, Control_c, 0, 67, 24
1, 400433, Control_c, 0, 64, 79
1, 400448, Control_c, 0, 67, 24
1, 400450, Note_off_c, 0, 64, 37
1, 400468, Note_off_c, 0, 68, 51
1, 400478, Control_c, 0, 67, 23
1, 400492, Note_on_c, 0, 59, 39
1, 400493, Control_c, 0, 64, 80
1, 400537, Control_c, 0, 64, 80
1, 400567, Control_c, 0, 67, 22
1, 400596, Control_c, 0, 64, 81
1, 400596, Control_c, 0, 67, 22
1, 400598, Note_off_c, 0, 59, 36
1, 400625, Control_c, 0, 64, 81
1, 400655, Control_c, 0, 64, 82
1, 400655, Control_c, 0, 67, 21
1, 400670, Control_c, 0, 67, 21
1, 400685, Control_c, 0, 64, 82
1, 400685, Control_c, 0, 67, 20
1, 400707, Control_c, 0, 67, 19
1, 400722, Control_c, 0, 64, 83
1, 400722, Control_c, 0, 67, 19
1, 400737, Note_on_c, 0, 59, 46
1, 400737, Control_c, 0, 64, 84
1, 400739, Note_on_c, 0, 65, 57
1, 400751, Note_on_c, 0, 47, 42
1, 400752, Control_c, 0, 64, 84
1, 400767, Control_c, 0, 64, 85
1, 400767, Control_c, 0, 67, 18
1, 400783, Control_c, 0, 64, 85
1, 400797, Control_c, 0, 64, 86
1, 400797, Control_c, 0, 67, 18
1, 400812, Control_c, 0, 64, 86
1, 400812, Control_c, 0, 67, 17
1, 400827, Control_c, 0, 67, 16
1, 400842, Control_c, 0, 64, 87
1, 400842, Control_c, 0, 67, 16
1, 400857, Control_c, 0, 67, 15
1, 400871, Control_c, 0, 64, 87
1, 400871, Control_c, 0, 67, 15
1, 400886, Control_c, 0, 67, 14
1, 400901, Control_c, 0, 64, 88
1, 400901, Control_c, 0, 67, 14
1, 400916, Control_c, 0, 67, 12
1, 400930, Control_c, 0, 64, 88
1, 400930, Control_c, 0, 67, 9
1, 400945, Control_c, 0, 67, 0
1, 400960, Control_c, 0, 64, 89
1, 400976, Note_on_c, 0, 56, 45
1, 400995, Note_off_c, 0, 59, 41
1, 401005, Control_c, 0, 64, 89
1, 401019, Control_c, 0, 64, 90
1, 401056, Note_off_c, 0, 52, 37
1, 401063, Control_c, 0, 64, 90
1, 401067, Note_off_c, 0, 65, 37
1, 401093, Note_off_c, 0, 56, 33
1, 401108, Control_c, 0, 64, 91
1, 401152, Control_c, 0, 64, 91
1, 401182, Control_c, 0, 64, 92
1, 401220, Note_off_c, 0, 40, 39
1, 401222, Note_on_c, 0, 44, 39
1, 401227, Note_on_c, 0, 56, 46
1, 401231, Note_off_c, 0, 47, 42
1, 401232, Note_on_c, 0, 64, 61
1, 401242, Control_c, 0, 64, 92
1, 401485, Note_on_c, 0, 52, 61
1, 401506, Note_off_c, 0, 64, 24
1, 401518, Note_off_c, 0, 52, 66
1, 401531, Note_off_c, 0, 56, 52
1, 401571, Note_off_c, 0, 44, 38
1, 401843, Note_on_c, 0, 38, 52
1, 401915, Control_c, 0, 64, 92
1, 401916, Note_on_c, 0, 93, 90
1, 401926, Note_on_c, 0, 89, 75
1, 401930, Control_c, 0, 64, 87
1, 401945, Control_c, 0, 64, 78
1, 401960, Control_c, 0, 64, 58
1, 401975, Control_c, 0, 64, 0
1, 402049, Control_c, 0, 64, 57
1, 402064, Control_c, 0, 64, 64
1, 402064, Control_c, 0, 67, 8
1, 402078, Control_c, 0, 64, 66
1, 402078, Control_c, 0, 67, 10
1, 402093, Control_c, 0, 64, 68
1, 402093, Control_c, 0, 67, 13
1, 402108, Control_c, 0, 64, 72
1, 402108, Control_c, 0, 67, 15
1, 402122, Note_off_c, 0, 38, 62
1, 402123, Control_c, 0, 64, 76
1, 402123, Control_c, 0, 67, 17
1, 402138, Control_c, 0, 64, 80
1, 402138, Control_c, 0, 67, 20
1, 402152, Control_c, 0, 64, 81
1, 402152, Control_c, 0, 67, 21
1, 402167, Control_c, 0, 64, 82
1, 402167, Control_c, 0, 67, 23
1, 402182, Control_c, 0, 64, 82
1, 402182, Control_c, 0, 67, 24
1, 402204, Control_c, 0, 64, 83
1, 402204, Control_c, 0, 67, 27
1, 402219, Control_c, 0, 64, 84
1, 402219, Control_c, 0, 67, 29
1, 402234, Control_c, 0, 64, 86
1, 402234, Control_c, 0, 67, 31
1, 402249, Control_c, 0, 64, 87
1, 402249, Control_c, 0, 67, 34
1, 402264, Control_c, 0, 64, 88
1, 402264, Control_c, 0, 67, 35
1, 402278, Control_c, 0, 64, 88
1, 402278, Control_c, 0, 67, 37
1, 402293, Control_c, 0, 64, 89
1, 402293, Control_c, 0, 67, 38
1, 402308, Control_c, 0, 67, 39
1, 402323, Control_c, 0, 64, 89
1, 402323, Control_c, 0, 67, 41
1, 402333, Note_on_c, 0, 88, 84
1, 402338, Control_c, 0, 64, 90
1, 402352, Control_c, 0, 64, 91
1, 402383, Control_c, 0, 67, 40
1, 402383, Note_off_c, 0, 89, 65
1, 402428, Control_c, 0, 64, 91
1, 402452, Note_off_c, 0, 88, 54
1, 402457, Control_c, 0, 67, 41
1, 402487, Control_c, 0, 67, 40
1, 402531, Control_c, 0, 67, 40
1, 402621, Note_on_c, 0, 76, 56
1, 402630, Note_on_c, 0, 62, 53
1, 402633, Note_on_c, 0, 92, 70
1, 402635, Control_c, 0, 64, 91
1, 402643, Note_on_c, 0, 88, 50
1, 402650, Control_c, 0, 64, 89
1, 402650, Control_c, 0, 67, 39
1, 402665, Control_c, 0, 64, 83
1, 402665, Control_c, 0, 67, 39
1, 402680, Control_c, 0, 64, 72
1, 402680, Control_c, 0, 67, 38
1, 402695, Control_c, 0, 64, 41
1, 402709, Control_c, 0, 64, 0
1, 402724, Control_c, 0, 67, 38
1, 402739, Control_c, 0, 67, 37
1, 402769, Control_c, 0, 64, 39
1, 402769, Control_c, 0, 67, 37
1, 402783, Control_c, 0, 64, 58
1, 402783, Control_c, 0, 67, 36
1, 402798, Control_c, 0, 64, 64
1, 402798, Control_c, 0, 67, 36
1, 402813, Control_c, 0, 64, 68
1, 402827, Control_c, 0, 64, 70
1, 402827, Control_c, 0, 67, 35
1, 402842, Control_c, 0, 64, 71
1, 402857, Control_c, 0, 64, 73
1, 402857, Control_c, 0, 67, 34
1, 402872, Control_c, 0, 64, 75
1, 402887, Control_c, 0, 64, 77
1, 402887, Control_c, 0, 67, 33
1, 402902, Control_c, 0, 64, 79
1, 402917, Control_c, 0, 64, 80
1, 402932, Control_c, 0, 64, 81
1, 402932, Control_c, 0, 67, 33
1, 402954, Control_c, 0, 64, 82
1, 402954, Control_c, 0, 67, 32
1, 402969, Control_c, 0, 64, 83
1, 402970, Note_off_c, 0, 92, 54
1, 402972, Note_on_c, 0, 86, 48
1, 402983, Control_c, 0, 64, 84
1, 402983, Control_c, 0, 67, 32
1, 402996, Note_off_c, 0, 88, 36
1, 402998, Control_c, 0, 64, 85
1, 402998, Control_c, 0, 67, 31
1, 403013, Control_c, 0, 64, 86
1, 403030, Note_off_c, 0, 93, 34
1, 403036, Note_off_c, 0, 76, 38
1, 403042, Control_c, 0, 64, 86
1, 403104, Note_off_c, 0, 86, 36
1, 403242, Note_on_c, 0, 86, 41
1, 403246, Note_on_c, 0, 89, 54
1, 403249, Note_on_c, 0, 74, 66
1, 403444, Control_c, 0, 67, 32
1, 403453, Note_off_c, 0, 89, 59
1, 403475, Note_off_c, 0, 86, 44
1, 403490, Note_on_c, 0, 84, 48
1, 403532, Control_c, 0, 67, 32
1, 403540, Note_off_c, 0, 84, 46
1, 403570, Note_off_c, 0, 74, 39
1, 403651, Control_c, 0, 67, 33
1, 403696, Control_c, 0, 67, 33
1, 403749, Note_on_c, 0, 72, 68
1, 403753, Note_on_c, 0, 88, 55
1, 403786, Note_on_c, 0, 84, 37
1, 403822, Control_c, 0, 67, 34
1, 403932, Note_off_c, 0, 88, 57
1, 403994, Note_off_c, 0, 84, 44
1, 404001, Control_c, 0, 67, 34
1, 404013, Note_on_c, 0, 82, 42
1, 404074, Control_c, 0, 67, 35
1, 404097, Note_off_c, 0, 82, 34
1, 404193, Control_c, 0, 67, 35
1, 404243, Note_on_c, 0, 70, 61
1, 404245, Note_on_c, 0, 82, 42
1, 404245, Note_on_c, 0, 86, 54
1, 404252, Control_c, 0, 64, 87
1, 404252, Control_c, 0, 67, 36
1, 404331, Note_off_c, 0, 72, 52
1, 404347, Note_off_c, 0, 62, 35
1, 404374, Note_off_c, 0, 70, 58
1, 404473, Note_off_c, 0, 86, 49
1, 404518, Note_on_c, 0, 80, 41
1, 404561, Note_off_c, 0, 82, 39
1, 404638, Note_off_c, 0, 80, 42
1, 404719, Control_c, 0, 67, 36
1, 404749, Control_c, 0, 67, 37
1, 404763, Control_c, 0, 64, 86
1, 404770, Note_on_c, 0, 69, 41
1, 404779, Control_c, 0, 64, 80
1, 404782, Note_on_c, 0, 57, 40
1, 404792, Note_on_c, 0, 85, 51
1, 404794, Control_c, 0, 64, 69
1, 404799, Note_on_c, 0, 81, 41
1, 404809, Control_c, 0, 64, 0
1, 404809, Control_c, 0, 67, 37
1, 404838, Control_c, 0, 67, 37
1, 404868, Control_c, 0, 64, 30
1, 404883, Control_c, 0, 64, 62
1, 404897, Control_c, 0, 64, 66
1, 404912, Control_c, 0, 64, 69
1, 404927, Control_c, 0, 64, 73
1, 404942, Control_c, 0, 64, 76
1, 404957, Control_c, 0, 64, 79
1, 404957, Control_c, 0, 67, 36
1, 404971, Control_c, 0, 64, 81
1, 404971, Control_c, 0, 67, 36
1, 404986, Control_c, 0, 64, 83
1, 405001, Control_c, 0, 64, 84
1, 405016, Control_c, 0, 64, 85
1, 405030, Control_c, 0, 64, 85
1, 405045, Control_c, 0, 64, 86
1, 405060, Control_c, 0, 64, 87
1, 405067, Note_off_c, 0, 81, 51
1, 405075, Control_c, 0, 64, 87
1, 405104, Note_off_c, 0, 85, 44
1, 405105, Control_c, 0, 64, 88
1, 405105, Control_c, 0, 67, 35
1, 405115, Note_on_c, 0, 76, 41
1, 405135, Control_c, 0, 64, 88
1, 405165, Note_off_c, 0, 76, 48
1, 405216, Control_c, 0, 64, 89
1, 405305, Control_c, 0, 67, 36
1, 405338, Note_on_c, 0, 82, 61
1, 405354, Note_on_c, 0, 64, 36
1, 405364, Note_on_c, 0, 76, 36
1, 405471, Note_off_c, 0, 69, 34
1, 405507, Note_off_c, 0, 76, 46
1, 405558, Note_on_c, 0, 73, 42
1, 405673, Note_off_c, 0, 73, 35
1, 405716, Note_off_c, 0, 82, 40
1, 405779, Note_on_c, 0, 81, 63
1, 405791, Note_on_c, 0, 73, 50
1, 405793, Note_on_c, 0, 61, 38
1, 405799, Note_off_c, 0, 64, 37
1, 405808, Control_c, 0, 67, 36
1, 405856, Note_off_c, 0, 61, 56
1, 405864, Note_off_c, 0, 57, 40
1, 406015, Note_off_c, 0, 81, 34
1, 406047, Note_on_c, 0, 69, 53
1, 406083, Control_c, 0, 67, 36
1, 406083, Note_off_c, 0, 69, 67
1, 406087, Note_off_c, 0, 73, 47
1, 406157, Control_c, 0, 67, 35
1, 406319, Note_on_c, 0, 50, 41
1, 406320, Control_c, 0, 67, 36
1, 406334, Control_c, 0, 64, 88
1, 406349, Control_c, 0, 64, 83
1, 406364, Control_c, 0, 64, 70
1, 406380, Control_c, 0, 64, 19
1, 406381, Note_on_c, 0, 91, 64
1, 406395, Control_c, 0, 64, 0
1, 406396, Note_on_c, 0, 87, 52
1, 406410, Control_c, 0, 67, 35
1, 406454, Control_c, 0, 64, 60
1, 406469, Control_c, 0, 64, 67
1, 406483, Control_c, 0, 64, 71
1, 406498, Control_c, 0, 64, 75
1, 406498, Control_c, 0, 67, 35
1, 406513, Control_c, 0, 64, 78
1, 406528, Control_c, 0, 64, 80
1, 406543, Control_c, 0, 64, 82
1, 406543, Control_c, 0, 67, 34
1, 406558, Control_c, 0, 64, 84
1, 406558, Control_c, 0, 67, 34
1, 406569, Note_off_c, 0, 50, 40
1, 406573, Control_c, 0, 64, 85
1, 406588, Control_c, 0, 64, 86
1, 406603, Control_c, 0, 64, 87
1, 406617, Control_c, 0, 64, 88
1, 406617, Control_c, 0, 67, 33
1, 406632, Control_c, 0, 64, 88
1, 406647, Control_c, 0, 64, 89
1, 406662, Control_c, 0, 67, 32
1, 406676, Control_c, 0, 64, 89
1, 406699, Control_c, 0, 67, 32
1, 406704, Note_off_c, 0, 87, 50
1, 406706, Note_on_c, 0, 86, 48
1, 406714, Control_c, 0, 67, 31
1, 406729, Control_c, 0, 64, 90
1, 406744, Control_c, 0, 67, 31
1, 406772, Note_off_c, 0, 86, 50
1, 406773, Control_c, 0, 67, 30
1, 406788, Control_c, 0, 64, 90
1, 406802, Control_c, 0, 67, 30
1, 406832, Control_c, 0, 67, 29
1, 406965, Control_c, 0, 67, 30
1, 406980, Control_c, 0, 64, 90
1, 406988, Note_on_c, 0, 90, 55
1, 406993, Note_on_c, 0, 74, 63
1, 406995, Control_c, 0, 64, 87
1, 406995, Note_on_c, 0, 86, 40
1, 407008, Note_on_c, 0, 62, 50
1, 407010, Control_c, 0, 64, 80
1, 407025, Control_c, 0, 64, 68
1, 407025, Control_c, 0, 67, 30
1, 407039, Control_c, 0, 64, 0
1, 407069, Control_c, 0, 64, 24
1, 407069, Control_c, 0, 67, 30
1, 407084, Control_c, 0, 64, 49
1, 407099, Control_c, 0, 64, 59
1, 407114, Control_c, 0, 64, 63
1, 407129, Control_c, 0, 64, 66
1, 407129, Control_c, 0, 67, 30
1, 407143, Control_c, 0, 64, 69
1, 407158, Control_c, 0, 64, 72
1, 407174, Control_c, 0, 64, 75
1, 407188, Control_c, 0, 64, 78
1, 407203, Control_c, 0, 64, 79
1, 407203, Control_c, 0, 67, 30
1, 407218, Control_c, 0, 64, 80
1, 407233, Control_c, 0, 64, 81
1, 407248, Control_c, 0, 64, 82
1, 407260, Note_off_c, 0, 86, 52
1, 407263, Control_c, 0, 64, 84
1, 407275, Note_off_c, 0, 91, 24
1, 407278, Control_c, 0, 64, 84
1, 407284, Note_off_c, 0, 90, 36
1, 407293, Control_c, 0, 64, 85
1, 407296, Note_on_c, 0, 84, 54
1, 407307, Control_c, 0, 64, 86
1, 407322, Control_c, 0, 64, 87
1, 407352, Control_c, 0, 64, 87
1, 407352, Control_c, 0, 67, 29
1, 407354, Note_off_c, 0, 74, 39
1, 407363, Note_off_c, 0, 84, 55
1, 407367, Control_c, 0, 64, 88
1, 407381, Control_c, 0, 67, 30
1, 407396, Control_c, 0, 64, 88
1, 407463, Control_c, 0, 67, 29
1, 407522, Control_c, 0, 64, 89
1, 407545, Note_on_c, 0, 72, 73
1, 407553, Note_on_c, 0, 87, 45
1, 407557, Note_on_c, 0, 84, 34
1, 407567, Control_c, 0, 67, 29
1, 407670, Control_c, 0, 67, 28
1, 407699, Control_c, 0, 67, 28
1, 407714, Control_c, 0, 67, 27
1, 407727, Note_off_c, 0, 87, 58
1, 407729, Control_c, 0, 67, 26
1, 407744, Control_c, 0, 67, 24
1, 407754, Note_off_c, 0, 84, 39
1, 407759, Control_c, 0, 67, 23
1, 407773, Note_on_c, 0, 82, 49
1, 407773, Control_c, 0, 67, 23
1, 407788, Control_c, 0, 67, 22
1, 407817, Control_c, 0, 67, 22
1, 407818, Note_off_c, 0, 82, 44
1, 407832, Control_c, 0, 67, 20
1, 407847, Control_c, 0, 67, 17
1, 407862, Control_c, 0, 67, 15
1, 407877, Control_c, 0, 67, 14
1, 407892, Control_c, 0, 67, 13
1, 407907, Control_c, 0, 67, 12
1, 407922, Control_c, 0, 67, 12
1, 407937, Control_c, 0, 67, 11
1, 407951, Control_c, 0, 67, 9
1, 407967, Control_c, 0, 67, 0
1, 408019, Note_on_c, 0, 86, 54
1, 408040, Note_on_c, 0, 82, 41
1, 408041, Note_on_c, 0, 70, 73
1, 408179, Note_off_c, 0, 86, 53
1, 408266, Note_off_c, 0, 82, 42
1, 408276, Note_on_c, 0, 80, 35
1, 408339, Note_off_c, 0, 80, 40
1, 408510, Note_off_c, 0, 72, 26
1, 408528, Note_on_c, 0, 68, 68
1, 408533, Note_on_c, 0, 84, 52
1, 408542, Note_off_c, 0, 62, 39
1, 408545, Note_on_c, 0, 80, 44
1, 408556, Note_off_c, 0, 70, 58
1, 408595, Note_off_c, 0, 68, 62
1, 408709, Note_off_c, 0, 84, 55
1, 408779, Note_on_c, 0, 78, 42
1, 408793, Note_off_c, 0, 80, 39
1, 408827, Note_off_c, 0, 78, 43
1, 409027, Note_on_c, 0, 67, 38
1, 409033, Control_c, 0, 64, 88
1, 409033, Control_c, 0, 67, 8
1, 409038, Note_on_c, 0, 55, 40
1, 409048, Control_c, 0, 64, 87
1, 409048, Control_c, 0, 67, 8
1, 409053, Note_on_c, 0, 79, 45
1, 409055, Note_on_c, 0, 83, 46
1, 409063, Control_c, 0, 64, 80
1, 409063, Control_c, 0, 67, 9
1, 409077, Control_c, 0, 64, 67
1, 409077, Control_c, 0, 67, 10
1, 409092, Control_c, 0, 64, 0
1, 409092, Control_c, 0, 67, 10
1, 409166, Control_c, 0, 64, 56
1, 409166, Control_c, 0, 67, 10
1, 409181, Control_c, 0, 64, 65
1, 409195, Control_c, 0, 64, 68
1, 409210, Control_c, 0, 64, 71
1, 409225, Control_c, 0, 64, 75
1, 409240, Control_c, 0, 64, 77
1, 409240, Control_c, 0, 67, 9
1, 409255, Control_c, 0, 64, 79
1, 409269, Control_c, 0, 64, 80
1, 409284, Control_c, 0, 64, 81
1, 409284, Control_c, 0, 67, 9
1, 409299, Control_c, 0, 64, 82
1, 409314, Control_c, 0, 64, 83
1, 409316, Note_off_c, 0, 83, 49
1, 409326, Note_off_c, 0, 79, 43
1, 409329, Control_c, 0, 64, 84
1, 409344, Control_c, 0, 64, 84
1, 409359, Control_c, 0, 64, 85
1, 409365, Note_on_c, 0, 74, 41
1, 409373, Control_c, 0, 64, 85
1, 409388, Control_c, 0, 64, 86
1, 409403, Control_c, 0, 67, 8
1, 409418, Control_c, 0, 64, 86
1, 409433, Control_c, 0, 64, 87
1, 409444, Note_off_c, 0, 74, 51
1, 409477, Control_c, 0, 64, 87
1, 409522, Control_c, 0, 64, 88
1, 409522, Control_c, 0, 67, 8
1, 409567, Control_c, 0, 64, 88
1, 409584, Note_on_c, 0, 80, 60
1, 409598, Note_on_c, 0, 62, 40
1, 409604, Note_on_c, 0, 74, 32
1, 409627, Control_c, 0, 64, 89
1, 409642, Control_c, 0, 67, 0
1, 409657, Control_c, 0, 64, 89
1, 409706, Note_off_c, 0, 67, 34
1, 409708, Control_c, 0, 64, 90
1, 409763, Note_off_c, 0, 74, 55
1, 409767, Control_c, 0, 64, 90
1, 409819, Note_on_c, 0, 71, 38
1, 409832, Note_off_c, 0, 80, 57
1, 409921, Note_off_c, 0, 71, 30
1, 410005, Note_off_c, 0, 62, 35
1, 410042, Note_on_c, 0, 79, 55
1, 410050, Note_on_c, 0, 71, 44
1, 410065, Note_on_c, 0, 59, 26
1, 410075, Note_off_c, 0, 55, 39
1, 410101, Note_off_c, 0, 59, 49
1, 410212, Control_c, 0, 67, 8
1, 410224, Note_off_c, 0, 79, 33
1, 410285, Note_on_c, 0, 67, 49
1, 410286, Control_c, 0, 67, 8
1, 410325, Note_off_c, 0, 71, 46
1, 410333, Note_off_c, 0, 67, 61
1, 410561, Control_c, 0, 67, 9
1, 410576, Control_c, 0, 67, 9
1, 410586, Note_on_c, 0, 48, 44
1, 410605, Control_c, 0, 64, 88
1, 410620, Control_c, 0, 64, 82
1, 410635, Control_c, 0, 64, 71
1, 410635, Control_c, 0, 67, 10
1, 410649, Control_c, 0, 64, 33
1, 410652, Note_on_c, 0, 86, 50
1, 410656, Note_on_c, 0, 89, 56
1, 410664, Control_c, 0, 64, 0
1, 410709, Control_c, 0, 64, 35
1, 410724, Control_c, 0, 64, 62
1, 410739, Control_c, 0, 64, 67
1, 410754, Control_c, 0, 64, 70
1, 410769, Control_c, 0, 64, 74
1, 410783, Control_c, 0, 64, 77
1, 410798, Control_c, 0, 64, 80
1, 410813, Control_c, 0, 64, 82
1, 410815, Note_off_c, 0, 48, 40
1, 410828, Control_c, 0, 64, 84
1, 410842, Control_c, 0, 64, 85
1, 410842, Control_c, 0, 67, 10
1, 410857, Control_c, 0, 64, 87
1, 410872, Control_c, 0, 64, 88
1, 410887, Control_c, 0, 64, 89
1, 410902, Control_c, 0, 64, 89
1, 410916, Control_c, 0, 64, 90
1, 410945, Note_on_c, 0, 83, 45
1, 410975, Control_c, 0, 67, 9
1, 410999, Note_off_c, 0, 83, 53
1, 411008, Note_off_c, 0, 86, 37
1, 411113, Note_off_c, 0, 89, 40
1, 411153, Control_c, 0, 67, 10
1, 411184, Control_c, 0, 64, 89
1, 411207, Control_c, 0, 64, 85
1, 411212, Note_on_c, 0, 88, 61
1, 411220, Note_on_c, 0, 70, 41
1, 411221, Control_c, 0, 64, 76
1, 411231, Note_on_c, 0, 60, 38
1, 411231, Note_on_c, 0, 84, 42
1, 411236, Control_c, 0, 64, 63
1, 411251, Control_c, 0, 64, 0
1, 411280, Control_c, 0, 67, 9
1, 411295, Control_c, 0, 64, 55
1, 411310, Control_c, 0, 64, 64
1, 411325, Control_c, 0, 64, 66
1, 411339, Control_c, 0, 64, 69
1, 411339, Control_c, 0, 67, 9
1, 411354, Control_c, 0, 64, 71
1, 411354, Control_c, 0, 67, 8
1, 411369, Control_c, 0, 64, 74
1, 411384, Control_c, 0, 64, 77
1, 411398, Control_c, 0, 64, 79
1, 411413, Control_c, 0, 64, 80
1, 411413, Control_c, 0, 67, 8
1, 411428, Control_c, 0, 64, 82
1, 411443, Note_off_c, 0, 88, 61
1, 411443, Control_c, 0, 64, 84
1, 411458, Control_c, 0, 64, 85
1, 411458, Control_c, 0, 67, 0
1, 411472, Control_c, 0, 64, 86
1, 411476, Note_off_c, 0, 84, 43
1, 411479, Note_on_c, 0, 82, 48
1, 411487, Control_c, 0, 64, 87
1, 411502, Control_c, 0, 64, 87
1, 411517, Control_c, 0, 64, 88
1, 411532, Control_c, 0, 64, 88
1, 411535, Note_off_c, 0, 82, 43
1, 411561, Control_c, 0, 64, 89
1, 411588, Note_off_c, 0, 70, 38
1, 411606, Control_c, 0, 64, 89
1, 411708, Note_on_c, 0, 85, 73
1, 411716, Note_on_c, 0, 82, 58
1, 411726, Note_on_c, 0, 67, 39
1, 411757, Note_off_c, 0, 60, 17
1, 411973, Note_on_c, 0, 79, 50
1, 411986, Note_off_c, 0, 82, 50
1, 412063, Note_off_c, 0, 85, 43
1, 412088, Note_off_c, 0, 79, 35
1, 412105, Note_off_c, 0, 67, 33
1, 412198, Note_on_c, 0, 64, 34
1, 412205, Note_on_c, 0, 84, 71
1, 412208, Note_on_c, 0, 79, 55
1, 412253, Note_off_c, 0, 64, 57
1, 412333, Note_off_c, 0, 79, 35
1, 412465, Note_on_c, 0, 76, 47
1, 412562, Note_off_c, 0, 84, 58
1, 412667, Note_on_c, 0, 47, 44
1, 412687, Control_c, 0, 64, 88
1, 412702, Control_c, 0, 64, 81
1, 412717, Note_off_c, 0, 76, 37
1, 412717, Control_c, 0, 64, 67
1, 412724, Note_on_c, 0, 88, 65
1, 412732, Control_c, 0, 64, 0
1, 412757, Note_on_c, 0, 81, 38
1, 412792, Control_c, 0, 64, 41
1, 412807, Control_c, 0, 64, 63
1, 412822, Control_c, 0, 64, 67
1, 412836, Control_c, 0, 64, 71
1, 412845, Note_off_c, 0, 47, 53
1, 412851, Control_c, 0, 64, 75
1, 412866, Control_c, 0, 64, 78
1, 412881, Control_c, 0, 64, 80
1, 412896, Control_c, 0, 64, 80
1, 412910, Control_c, 0, 64, 81
1, 412925, Control_c, 0, 64, 82
1, 412940, Control_c, 0, 64, 82
1, 412955, Control_c, 0, 64, 83
1, 412970, Control_c, 0, 64, 83
1, 412985, Control_c, 0, 64, 84
1, 412999, Control_c, 0, 67, 8
1, 413014, Control_c, 0, 64, 84
1, 413029, Control_c, 0, 64, 85
1, 413030, Note_off_c, 0, 81, 34
1, 413033, Note_on_c, 0, 78, 34
1, 413058, Control_c, 0, 64, 85
1, 413073, Control_c, 0, 67, 8
1, 413093, Note_off_c, 0, 78, 38
1, 413103, Control_c, 0, 67, 9
1, 413117, Control_c, 0, 67, 9
1, 413207, Control_c, 0, 67, 10
1, 413222, Control_c, 0, 64, 85
1, 413222, Control_c, 0, 67, 10
1, 413236, Note_on_c, 0, 87, 61
1, 413236, Control_c, 0, 64, 80
1, 413236, Control_c, 0, 67, 11
1, 413245, Note_off_c, 0, 88, 33
1, 413251, Control_c, 0, 64, 70
1, 413251, Control_c, 0, 67, 11
1, 413255, Note_on_c, 0, 81, 44
1, 413266, Control_c, 0, 64, 47
1, 413266, Control_c, 0, 67, 14
1, 413267, Note_on_c, 0, 59, 30
1, 413281, Control_c, 0, 64, 0
1, 413281, Control_c, 0, 67, 15
1, 413287, Note_on_c, 0, 69, 17
1, 413296, Control_c, 0, 64, 24
1, 413296, Control_c, 0, 67, 15
1, 413311, Control_c, 0, 64, 56
1, 413311, Control_c, 0, 67, 16
1, 413326, Control_c, 0, 64, 63
1, 413326, Control_c, 0, 67, 17
1, 413341, Control_c, 0, 64, 67
1, 413341, Control_c, 0, 67, 19
1, 413355, Control_c, 0, 64, 69
1, 413355, Control_c, 0, 67, 21
1, 413370, Control_c, 0, 64, 72
1, 413370, Control_c, 0, 67, 24
1, 413385, Control_c, 0, 64, 75
1, 413385, Control_c, 0, 67, 27
1, 413400, Control_c, 0, 64, 77
1, 413400, Control_c, 0, 67, 31
1, 413415, Control_c, 0, 64, 79
1, 413415, Control_c, 0, 67, 34
1, 413436, Control_c, 0, 64, 80
1, 413436, Control_c, 0, 67, 37
1, 413451, Control_c, 0, 64, 81
1, 413451, Control_c, 0, 67, 39
1, 413466, Control_c, 0, 64, 81
1, 413466, Control_c, 0, 67, 42
1, 413481, Control_c, 0, 64, 82
1, 413481, Control_c, 0, 67, 45
1, 413482, Note_off_c, 0, 87, 53
1, 413496, Control_c, 0, 64, 83
1, 413496, Control_c, 0, 67, 47
1, 413511, Control_c, 0, 64, 84
1, 413511, Control_c, 0, 67, 50
1, 413526, Control_c, 0, 64, 84
1, 413526, Control_c, 0, 67, 52
1, 413529, Note_on_c, 0, 78, 34
1, 413529, Note_off_c, 0, 81, 33
1, 413541, Control_c, 0, 64, 85
1, 413541, Control_c, 0, 67, 53
1, 413556, Control_c, 0, 67, 54
1, 413571, Control_c, 0, 64, 85
1, 413571, Control_c, 0, 67, 55
1, 413586, Control_c, 0, 67, 56
1, 413601, Control_c, 0, 64, 86
1, 413601, Control_c, 0, 67, 58
1, 413615, Control_c, 0, 67, 59
1, 413630, Control_c, 0, 64, 86
1, 413630, Control_c, 0, 67, 61
1, 413645, Control_c, 0, 67, 62
1, 413660, Control_c, 0, 67, 64
1, 413675, Control_c, 0, 67, 66
1, 413680, Note_off_c, 0, 78, 36
1, 413690, Control_c, 0, 67, 69
1, 413705, Control_c, 0, 67, 72
1, 413720, Control_c, 0, 67, 75
1, 413734, Control_c, 0, 64, 87
1, 413734, Control_c, 0, 67, 78
1, 413749, Control_c, 0, 67, 79
1, 413764, Control_c, 0, 67, 80
1, 413767, Note_on_c, 0, 84, 54
1, 413775, Note_on_c, 0, 81, 43
1, 413779, Control_c, 0, 67, 81
1, 413785, Note_on_c, 0, 66, 34
1, 413793, Control_c, 0, 67, 82
1, 413808, Control_c, 0, 67, 82
1, 413833, Note_off_c, 0, 69, 29
1, 413838, Control_c, 0, 67, 83
1, 413853, Control_c, 0, 67, 83
1, 413867, Control_c, 0, 67, 84
1, 413882, Control_c, 0, 67, 84
1, 413897, Control_c, 0, 67, 85
1, 413912, Control_c, 0, 67, 85
1, 413949, Note_off_c, 0, 81, 37
1, 414012, Note_on_c, 0, 78, 33
1, 414119, Note_off_c, 0, 78, 27
1, 414175, Note_off_c, 0, 84, 34
1, 414243, Note_off_c, 0, 66, 39
1, 414269, Note_on_c, 0, 83, 45
1, 414271, Note_on_c, 0, 78, 43
1, 414312, Note_on_c, 0, 63, 34
1, 414324, Note_off_c, 0, 59, 35
1, 414349, Control_c, 0, 67, 85
1, 414374, Note_off_c, 0, 63, 46
1, 414466, Note_off_c, 0, 78, 46
1, 414524, Note_on_c, 0, 75, 24
1, 414527, Control_c, 0, 67, 84
1, 414602, Control_c, 0, 67, 84
1, 414620, Note_off_c, 0, 75, 29
1, 414661, Control_c, 0, 67, 83
1, 414712, Note_off_c, 0, 83, 22
1, 414779, Control_c, 0, 64, 86
1, 414781, Note_on_c, 0, 86, 53
1, 414785, Note_on_c, 0, 52, 33
1, 414790, Note_on_c, 0, 80, 45
1, 414794, Control_c, 0, 64, 86
1, 414838, Control_c, 0, 64, 84
1, 414853, Control_c, 0, 64, 80
1, 414868, Control_c, 0, 64, 68
1, 414882, Control_c, 0, 64, 0
1, 414927, Control_c, 0, 64, 53
1, 414950, Control_c, 0, 64, 63
1, 414964, Control_c, 0, 64, 67
1, 414979, Control_c, 0, 64, 71
1, 414994, Control_c, 0, 64, 75
1, 414994, Control_c, 0, 67, 83
1, 415009, Control_c, 0, 64, 77
1, 415009, Control_c, 0, 67, 82
1, 415023, Control_c, 0, 64, 79
1, 415038, Control_c, 0, 64, 80
1, 415049, Note_on_c, 0, 45, 41
1, 415053, Control_c, 0, 64, 81
1, 415068, Control_c, 0, 64, 82
1, 415068, Control_c, 0, 67, 82
1, 415080, Note_on_c, 0, 76, 47
1, 415082, Control_c, 0, 64, 83
1, 415093, Note_off_c, 0, 45, 61
1, 415097, Control_c, 0, 64, 84
1, 415112, Note_off_c, 0, 52, 42
1, 415112, Control_c, 0, 64, 85
1, 415112, Control_c, 0, 67, 81
1, 415127, Control_c, 0, 64, 85
1, 415140, Note_off_c, 0, 80, 39
1, 415142, Control_c, 0, 64, 86
1, 415158, Control_c, 0, 64, 86
1, 415173, Control_c, 0, 67, 81
1, 415217, Control_c, 0, 64, 87
1, 415311, Note_off_c, 0, 76, 31
1, 415425, Control_c, 0, 67, 81
1, 415439, Control_c, 0, 64, 86
1, 415441, Note_on_c, 0, 69, 67
1, 415450, Note_on_c, 0, 85, 51
1, 415454, Control_c, 0, 64, 83
1, 415459, Note_on_c, 0, 57, 50
1, 415463, Note_on_c, 0, 81, 26
1, 415469, Control_c, 0, 64, 76
1, 415484, Control_c, 0, 64, 65
1, 415499, Control_c, 0, 64, 0
1, 415528, Control_c, 0, 64, 18
1, 415528, Control_c, 0, 67, 81
1, 415543, Control_c, 0, 64, 58
1, 415543, Control_c, 0, 67, 80
1, 415557, Control_c, 0, 64, 64
1, 415572, Control_c, 0, 64, 67
1, 415572, Control_c, 0, 67, 80
1, 415587, Control_c, 0, 64, 70
1, 415587, Control_c, 0, 67, 79
1, 415602, Control_c, 0, 64, 73
1, 415617, Control_c, 0, 64, 76
1, 415631, Control_c, 0, 64, 78
1, 415631, Control_c, 0, 67, 79
1, 415646, Control_c, 0, 64, 79
1, 415654, Note_off_c, 0, 81, 17
1, 415661, Control_c, 0, 64, 80
1, 415661, Control_c, 0, 67, 78
1, 415676, Control_c, 0, 64, 81
1, 415676, Control_c, 0, 67, 77
1, 415699, Control_c, 0, 64, 81
1, 415699, Control_c, 0, 67, 77
1, 415713, Control_c, 0, 64, 82
1, 415723, Note_on_c, 0, 76, 33
1, 415728, Control_c, 0, 64, 82
1, 415728, Control_c, 0, 67, 76
1, 415734, Note_off_c, 0, 86, 37
1, 415743, Control_c, 0, 64, 83
1, 415743, Control_c, 0, 67, 76
1, 415758, Control_c, 0, 67, 75
1, 415772, Control_c, 0, 67, 74
1, 415787, Control_c, 0, 64, 83
1, 415787, Control_c, 0, 67, 73
1, 415794, Note_off_c, 0, 69, 39
1, 415802, Control_c, 0, 67, 73
1, 415815, Note_off_c, 0, 85, 39
1, 415817, Control_c, 0, 64, 84
1, 415817, Control_c, 0, 67, 72
1, 415832, Control_c, 0, 67, 72
1, 415846, Control_c, 0, 67, 69
1, 415861, Control_c, 0, 67, 67
1, 415876, Control_c, 0, 67, 65
1, 415891, Control_c, 0, 67, 64
1, 415905, Note_off_c, 0, 57, 33
1, 415906, Control_c, 0, 64, 84
1, 415906, Control_c, 0, 67, 62
1, 415920, Control_c, 0, 67, 61
1, 415931, Note_on_c, 0, 64, 47
1, 415935, Control_c, 0, 67, 59
1, 415943, Note_on_c, 0, 81, 53
1, 415946, Note_on_c, 0, 84, 62
1, 415950, Control_c, 0, 67, 57
1, 415953, Note_off_c, 0, 76, 36
1, 415958, Note_off_c, 0, 64, 62
1, 415966, Control_c, 0, 67, 54
1, 415980, Control_c, 0, 67, 52
1, 415995, Control_c, 0, 67, 50
1, 416010, Control_c, 0, 67, 48
1, 416025, Control_c, 0, 67, 46
1, 416040, Control_c, 0, 67, 43
1, 416054, Control_c, 0, 67, 40
1, 416069, Control_c, 0, 67, 36
1, 416084, Control_c, 0, 67, 31
1, 416099, Control_c, 0, 67, 28
1, 416114, Control_c, 0, 67, 24
1, 416128, Control_c, 0, 67, 22
1, 416133, Note_off_c, 0, 81, 35
1, 416143, Control_c, 0, 67, 21
1, 416158, Control_c, 0, 67, 19
1, 416167, Note_on_c, 0, 50, 54
1, 416173, Control_c, 0, 67, 18
1, 416188, Control_c, 0, 67, 18
1, 416194, Note_on_c, 0, 76, 23
1, 416204, Note_off_c, 0, 50, 61
1, 416218, Control_c, 0, 67, 17
1, 416239, Note_off_c, 0, 76, 48
1, 416317, Note_off_c, 0, 84, 35
1, 416336, Control_c, 0, 67, 18
1, 416366, Control_c, 0, 67, 18
1, 416380, Control_c, 0, 67, 19
1, 416395, Control_c, 0, 64, 84
1, 416395, Control_c, 0, 67, 19
1, 416410, Control_c, 0, 64, 80
1, 416410, Control_c, 0, 67, 21
1, 416419, Note_on_c, 0, 65, 65
1, 416432, Control_c, 0, 64, 71
1, 416432, Control_c, 0, 67, 22
1, 416440, Note_on_c, 0, 83, 53
1, 416447, Control_c, 0, 64, 27
1, 416447, Control_c, 0, 67, 23
1, 416450, Note_on_c, 0, 77, 35
1, 416462, Control_c, 0, 64, 0
1, 416462, Control_c, 0, 67, 24
1, 416492, Control_c, 0, 67, 25
1, 416507, Control_c, 0, 67, 26
1, 416522, Control_c, 0, 64, 40
1, 416522, Control_c, 0, 67, 27
1, 416536, Control_c, 0, 64, 63
1, 416536, Control_c, 0, 67, 27
1, 416551, Control_c, 0, 64, 67
1, 416551, Control_c, 0, 67, 28
1, 416566, Control_c, 0, 64, 69
1, 416566, Control_c, 0, 67, 29
1, 416580, Control_c, 0, 64, 71
1, 416580, Control_c, 0, 67, 30
1, 416595, Control_c, 0, 64, 73
1, 416595, Control_c, 0, 67, 30
1, 416610, Control_c, 0, 64, 76
1, 416610, Control_c, 0, 67, 31
1, 416625, Control_c, 0, 64, 78
1, 416625, Control_c, 0, 67, 32
1, 416640, Control_c, 0, 64, 80
1, 416640, Control_c, 0, 67, 34
1, 416655, Control_c, 0, 64, 81
1, 416655, Control_c, 0, 67, 36
1, 416669, Control_c, 0, 64, 81
1, 416669, Control_c, 0, 67, 37
1, 416684, Control_c, 0, 67, 40
1, 416694, Note_on_c, 0, 74, 31
1, 416699, Control_c, 0, 64, 82
1, 416699, Control_c, 0, 67, 42
1, 416714, Control_c, 0, 67, 44
1, 416729, Control_c, 0, 64, 82
1, 416729, Control_c, 0, 67, 46
1, 416743, Control_c, 0, 67, 47
1, 416759, Control_c, 0, 67, 48
1, 416774, Control_c, 0, 64, 83
1, 416774, Control_c, 0, 67, 50
1, 416789, Control_c, 0, 67, 52
1, 416803, Control_c, 0, 67, 55
1, 416818, Control_c, 0, 67, 59
1, 416820, Note_off_c, 0, 77, 16
1, 416833, Control_c, 0, 67, 62
1, 416848, Control_c, 0, 67, 65
1, 416863, Control_c, 0, 67, 67
1, 416877, Control_c, 0, 67, 69
1, 416892, Control_c, 0, 67, 72
1, 416898, Note_off_c, 0, 74, 35
1, 416899, Note_off_c, 0, 83, 29
1, 416907, Control_c, 0, 67, 74
1, 416922, Control_c, 0, 67, 76
1, 416933, Note_on_c, 0, 82, 58
1, 416937, Control_c, 0, 67, 78
1, 416942, Note_on_c, 0, 77, 31
1, 416951, Control_c, 0, 67, 79
1, 416963, Note_off_c, 0, 65, 38
1, 416966, Control_c, 0, 67, 80
1, 416980, Note_on_c, 0, 62, 32
1, 416981, Control_c, 0, 67, 80
1, 416996, Control_c, 0, 67, 81
1, 417011, Control_c, 0, 67, 83
1, 417025, Control_c, 0, 67, 84
1, 417040, Control_c, 0, 67, 85
1, 417055, Control_c, 0, 67, 86
1, 417070, Control_c, 0, 67, 86
1, 417085, Control_c, 0, 67, 87
1, 417108, Note_off_c, 0, 82, 53
1, 417152, Note_off_c, 0, 62, 36
1, 417159, Control_c, 0, 67, 87
1, 417187, Note_off_c, 0, 77, 39
1, 417207, Note_on_c, 0, 74, 37
1, 417251, Note_off_c, 0, 74, 45
1, 417389, Control_c, 0, 67, 87
1, 417478, Note_on_c, 0, 77, 45
1, 417479, Note_on_c, 0, 80, 48
1, 417507, Control_c, 0, 64, 82
1, 417511, Note_on_c, 0, 74, 29
1, 417522, Control_c, 0, 64, 79
1, 417536, Control_c, 0, 64, 71
1, 417553, Control_c, 0, 64, 41
1, 417568, Control_c, 0, 64, 0
1, 417582, Control_c, 0, 67, 86
1, 417597, Control_c, 0, 64, 21
1, 417612, Control_c, 0, 64, 59
1, 417627, Control_c, 0, 64, 65
1, 417641, Control_c, 0, 64, 68
1, 417656, Control_c, 0, 64, 71
1, 417656, Control_c, 0, 67, 86
1, 417671, Control_c, 0, 64, 74
1, 417686, Control_c, 0, 64, 76
1, 417701, Control_c, 0, 64, 77
1, 417701, Control_c, 0, 67, 85
1, 417715, Control_c, 0, 64, 78
1, 417715, Control_c, 0, 67, 85
1, 417724, Note_on_c, 0, 52, 36
1, 417730, Control_c, 0, 64, 79
1, 417738, Note_off_c, 0, 74, 40
1, 417745, Control_c, 0, 64, 79
1, 417760, Control_c, 0, 64, 80
1, 417774, Control_c, 0, 64, 80
1, 417789, Control_c, 0, 64, 81
1, 417789, Control_c, 0, 67, 84
1, 417804, Control_c, 0, 64, 82
1, 417819, Control_c, 0, 67, 84
1, 417833, Control_c, 0, 64, 82
1, 417848, Control_c, 0, 67, 83
1, 417863, Control_c, 0, 67, 83
1, 417878, Control_c, 0, 64, 83
1, 417893, Control_c, 0, 67, 82
1, 417908, Control_c, 0, 64, 83
1, 417930, Control_c, 0, 67, 81
1, 417952, Note_off_c, 0, 52, 40
1, 417959, Control_c, 0, 67, 80
1, 417974, Control_c, 0, 67, 80
1, 418004, Control_c, 0, 67, 79
1, 418015, Note_on_c, 0, 76, 45
1, 418019, Control_c, 0, 67, 79
1, 418033, Control_c, 0, 64, 84
1, 418033, Control_c, 0, 67, 78
1, 418034, Note_off_c, 0, 80, 32
1, 418039, Note_on_c, 0, 72, 27
1, 418048, Control_c, 0, 67, 78
1, 418063, Control_c, 0, 67, 77
1, 418078, Control_c, 0, 67, 76
1, 418093, Control_c, 0, 67, 76
1, 418108, Control_c, 0, 67, 75
1, 418122, Control_c, 0, 67, 74
1, 418137, Control_c, 0, 67, 73
1, 418152, Control_c, 0, 67, 71
1, 418165, Note_off_c, 0, 76, 34
1, 418167, Control_c, 0, 67, 67
1, 418182, Control_c, 0, 67, 64
1, 418197, Control_c, 0, 67, 61
1, 418212, Control_c, 0, 67, 58
1, 418224, Note_off_c, 0, 77, 16
1, 418226, Control_c, 0, 67, 55
1, 418227, Note_off_c, 0, 72, 35
1, 418241, Control_c, 0, 67, 51
1, 418256, Control_c, 0, 67, 47
1, 418257, Note_on_c, 0, 64, 29
1, 418271, Control_c, 0, 67, 43
1, 418286, Control_c, 0, 67, 39
1, 418300, Control_c, 0, 67, 36
1, 418315, Control_c, 0, 67, 34
1, 418330, Control_c, 0, 67, 32
1, 418345, Control_c, 0, 67, 30
1, 418361, Control_c, 0, 67, 30
1, 418375, Control_c, 0, 67, 29
1, 418421, Note_off_c, 0, 64, 37
1, 418435, Control_c, 0, 67, 30
1, 418450, Control_c, 0, 67, 30
1, 418464, Control_c, 0, 67, 31
1, 418479, Control_c, 0, 67, 32
1, 418494, Control_c, 0, 67, 33
1, 418509, Control_c, 0, 67, 35
1, 418524, Control_c, 0, 67, 36
1, 418538, Control_c, 0, 67, 38
1, 418553, Control_c, 0, 67, 39
1, 418556, Note_on_c, 0, 57, 33
1, 418568, Control_c, 0, 64, 83
1, 418568, Control_c, 0, 67, 40
1, 418582, Control_c, 0, 64, 78
1, 418582, Control_c, 0, 67, 41
1, 418597, Control_c, 0, 64, 69
1, 418597, Control_c, 0, 67, 44
1, 418612, Control_c, 0, 64, 21
1, 418612, Control_c, 0, 67, 47
1, 418627, Control_c, 0, 64, 0
1, 418627, Control_c, 0, 67, 50
1, 418641, Note_on_c, 0, 74, 37
1, 418642, Control_c, 0, 64, 48
1, 418642, Control_c, 0, 67, 52
1, 418656, Control_c, 0, 64, 60
1, 418656, Control_c, 0, 67, 54
1, 418657, Note_on_c, 0, 71, 28
1, 418671, Control_c, 0, 64, 65
1, 418671, Control_c, 0, 67, 55
1, 418682, Note_off_c, 0, 57, 52
1, 418694, Control_c, 0, 64, 69
1, 418694, Control_c, 0, 67, 56
1, 418709, Control_c, 0, 64, 75
1, 418709, Control_c, 0, 67, 58
1, 418724, Control_c, 0, 64, 79
1, 418724, Control_c, 0, 67, 59
1, 418738, Control_c, 0, 64, 81
1, 418738, Control_c, 0, 67, 60
1, 418753, Control_c, 0, 64, 82
1, 418753, Control_c, 0, 67, 61
1, 418768, Control_c, 0, 64, 83
1, 418768, Control_c, 0, 67, 62
1, 418782, Control_c, 0, 64, 85
1, 418797, Control_c, 0, 64, 86
1, 418797, Control_c, 0, 67, 62
1, 418801, Note_off_c, 0, 71, 33
1, 418812, Control_c, 0, 64, 88
1, 418812, Control_c, 0, 67, 63
1, 418827, Control_c, 0, 64, 89
1, 418827, Control_c, 0, 67, 63
1, 418832, Note_off_c, 0, 74, 32
1, 418842, Control_c, 0, 64, 90
1, 418842, Control_c, 0, 67, 65
1, 418856, Control_c, 0, 64, 91
1, 418856, Control_c, 0, 67, 66
1, 418871, Control_c, 0, 64, 91
1, 418871, Control_c, 0, 67, 66
1, 418886, Control_c, 0, 64, 92
1, 418916, Control_c, 0, 64, 92
1, 418916, Control_c, 0, 67, 66
1, 418930, Control_c, 0, 64, 93
1, 418960, Control_c, 0, 64, 93
1, 419005, Note_on_c, 0, 64, 34
1, 419020, Control_c, 0, 64, 94
1, 419020, Control_c, 0, 67, 65
1, 419049, Control_c, 0, 67, 65
1, 419169, Control_c, 0, 64, 94
1, 419169, Control_c, 0, 67, 64
1, 419184, Control_c, 0, 67, 64
1, 419288, Note_on_c, 0, 81, 47
1, 419303, Control_c, 0, 67, 63
1, 419318, Control_c, 0, 67, 63
1, 419390, Note_off_c, 0, 64, 39
1, 419392, Control_c, 0, 67, 62
1, 419406, Control_c, 0, 67, 62
1, 419488, Control_c, 0, 67, 61
1, 419532, Control_c, 0, 67, 61
1, 419562, Control_c, 0, 67, 60
1, 419592, Control_c, 0, 67, 60
1, 419606, Control_c, 0, 67, 59
1, 419621, Control_c, 0, 67, 59
1, 419636, Control_c, 0, 67, 58
1, 419666, Control_c, 0, 67, 58
1, 419680, Control_c, 0, 67, 57
1, 419695, Control_c, 0, 67, 56
1, 419710, Control_c, 0, 67, 55
1, 419724, Control_c, 0, 67, 55
1, 419739, Control_c, 0, 67, 54
1, 419754, Control_c, 0, 67, 53
1, 419769, Control_c, 0, 67, 53
1, 419778, Note_on_c, 0, 93, 58
1, 419784, Control_c, 0, 67, 51
1, 419799, Control_c, 0, 67, 47
1, 419813, Control_c, 0, 67, 43
1, 419828, Control_c, 0, 67, 40
1, 419843, Control_c, 0, 67, 36
1, 419858, Control_c, 0, 67, 33
1, 419872, Control_c, 0, 67, 30
1, 419887, Control_c, 0, 67, 27
1, 419896, Note_off_c, 0, 81, 47
1, 419902, Control_c, 0, 67, 24
1, 419917, Control_c, 0, 67, 20
1, 419932, Control_c, 0, 67, 16
1, 419948, Control_c, 0, 67, 11
1, 419963, Control_c, 0, 67, 0
1, 419992, Note_off_c, 0, 93, 28
1, 420266, Note_on_c, 0, 38, 28
1, 420310, Control_c, 0, 64, 94
1, 420312, Note_on_c, 0, 92, 56
1, 420313, Note_on_c, 0, 80, 37
1, 420340, Control_c, 0, 64, 90
1, 420354, Control_c, 0, 64, 82
1, 420369, Control_c, 0, 64, 71
1, 420384, Control_c, 0, 64, 43
1, 420399, Control_c, 0, 64, 0
1, 420428, Control_c, 0, 64, 48
1, 420443, Control_c, 0, 64, 62
1, 420458, Control_c, 0, 64, 66
1, 420473, Control_c, 0, 64, 68
1, 420488, Control_c, 0, 64, 71
1, 420502, Control_c, 0, 64, 75
1, 420517, Control_c, 0, 64, 78
1, 420532, Control_c, 0, 64, 81
1, 420547, Control_c, 0, 64, 82
1, 420561, Control_c, 0, 64, 83
1, 420576, Control_c, 0, 64, 85
1, 420584, Note_off_c, 0, 92, 35
1, 420591, Control_c, 0, 64, 86
1, 420606, Control_c, 0, 64, 88
1, 420621, Control_c, 0, 64, 89
1, 420635, Control_c, 0, 64, 90
1, 420650, Control_c, 0, 64, 91
1, 420665, Control_c, 0, 64, 92
1, 420680, Control_c, 0, 64, 93
1, 420692, Note_off_c, 0, 80, 43
1, 420695, Control_c, 0, 64, 94
1, 420710, Control_c, 0, 64, 95
1, 420725, Control_c, 0, 64, 97
1, 420737, Note_off_c, 0, 38, 31
1, 420740, Control_c, 0, 64, 98
1, 420755, Control_c, 0, 64, 99
1, 420769, Control_c, 0, 64, 100
1, 420784, Control_c, 0, 64, 100
1, 420796, Note_on_c, 0, 46, 31
1, 420799, Control_c, 0, 64, 101
1, 420814, Control_c, 0, 64, 103
1, 420829, Control_c, 0, 64, 104
1, 420844, Control_c, 0, 64, 105
1, 420859, Control_c, 0, 64, 107
1, 420874, Control_c, 0, 64, 108
1, 420889, Control_c, 0, 64, 109
1, 420904, Control_c, 0, 64, 111
1, 420925, Control_c, 0, 64, 112
1, 420940, Control_c, 0, 64, 114
1, 420955, Control_c, 0, 64, 115
1, 420960, Note_off_c, 0, 46, 41
1, 420970, Control_c, 0, 64, 117
1, 420984, Control_c, 0, 64, 119
1, 420999, Control_c, 0, 64, 121
1, 421014, Control_c, 0, 64, 123
1, 421029, Control_c, 0, 64, 126
1, 421044, Control_c, 0, 64, 127
1, 421071, Note_on_c, 0, 50, 26
1, 421120, Note_off_c, 0, 50, 46
1, 421130, Note_on_c, 0, 89, 61
1, 421139, Note_on_c, 0, 77, 43
1, 421321, Note_off_c, 0, 89, 38
1, 421378, Note_on_c, 0, 53, 43
1, 421422, Note_off_c, 0, 77, 41
1, 421644, Note_on_c, 0, 58, 37
1, 421698, Note_on_c, 0, 88, 77
1, 421708, Note_on_c, 0, 76, 57
1, 421795, Note_off_c, 0, 53, 41
1, 421869, Note_off_c, 0, 58, 56
1, 421924, Note_on_c, 0, 62, 47
1, 421979, Note_off_c, 0, 62, 54
1, 422027, Note_off_c, 0, 88, 33
1, 422030, Note_off_c, 0, 76, 56
1, 422176, Note_on_c, 0, 65, 37
1, 422200, Note_on_c, 0, 86, 86
1, 422210, Note_on_c, 0, 74, 69
1, 422439, Note_on_c, 0, 68, 54
1, 422445, Note_off_c, 0, 65, 50
1, 422472, Note_off_c, 0, 68, 66
1, 422519, Note_off_c, 0, 74, 57
1, 422668, Note_off_c, 0, 86, 34
1, 422743, Note_on_c, 0, 45, 49
1, 422811, Note_on_c, 0, 73, 58
1, 422811, Note_on_c, 0, 85, 73
1, 422851, Control_c, 0, 64, 111
1, 422866, Control_c, 0, 64, 96
1, 422866, Control_c, 0, 67, 8
1, 422881, Control_c, 0, 64, 81
1, 422895, Control_c, 0, 64, 65
1, 422895, Control_c, 0, 67, 8
1, 422910, Control_c, 0, 64, 0
1, 422940, Control_c, 0, 64, 47
1, 422954, Control_c, 0, 64, 63
1, 422969, Control_c, 0, 64, 66
1, 422969, Control_c, 0, 67, 9
1, 422984, Control_c, 0, 64, 69
1, 422999, Control_c, 0, 64, 73
1, 423015, Control_c, 0, 64, 77
1, 423030, Control_c, 0, 64, 80
1, 423030, Control_c, 0, 67, 8
1, 423045, Control_c, 0, 64, 82
1, 423049, Note_off_c, 0, 45, 39
1, 423060, Control_c, 0, 64, 84
1, 423075, Control_c, 0, 64, 87
1, 423090, Control_c, 0, 64, 88
1, 423101, Note_off_c, 0, 85, 62
1, 423104, Control_c, 0, 64, 90
1, 423119, Control_c, 0, 64, 92
1, 423134, Control_c, 0, 64, 93
1, 423150, Control_c, 0, 64, 94
1, 423165, Control_c, 0, 64, 94
1, 423165, Control_c, 0, 67, 8
1, 423187, Control_c, 0, 64, 95
1, 423192, Note_on_c, 0, 52, 32
1, 423202, Control_c, 0, 64, 96
1, 423202, Control_c, 0, 67, 0
1, 423205, Note_off_c, 0, 73, 55
1, 423217, Control_c, 0, 64, 96
1, 423232, Control_c, 0, 64, 97
1, 423247, Control_c, 0, 64, 97
1, 423276, Control_c, 0, 64, 98
1, 423291, Control_c, 0, 64, 98
1, 423321, Control_c, 0, 64, 99
1, 423350, Control_c, 0, 64, 99
1, 423394, Control_c, 0, 64, 100
1, 423449, Note_on_c, 0, 56, 33
1, 423454, Note_on_c, 0, 82, 73
1, 423464, Note_on_c, 0, 70, 51
1, 423494, Note_off_c, 0, 52, 41
1, 423513, Control_c, 0, 64, 100
1, 423637, Note_off_c, 0, 56, 52
1, 423684, Note_on_c, 0, 62, 47
1, 423720, Control_c, 0, 64, 101
1, 423744, Note_off_c, 0, 82, 53
1, 423772, Note_off_c, 0, 70, 56
1, 423920, Note_off_c, 0, 62, 37
1, 423943, Note_on_c, 0, 61, 42
1, 423957, Note_on_c, 0, 81, 79
1, 423974, Note_on_c, 0, 69, 56
1, 424047, Note_off_c, 0, 69, 60
1, 424138, Note_off_c, 0, 81, 61
1, 424216, Note_on_c, 0, 64, 44
1, 424245, Note_off_c, 0, 61, 23
1, 424365, Control_c, 0, 67, 8
1, 424376, Note_off_c, 0, 64, 35
1, 424406, Note_on_c, 0, 57, 46
1, 424409, Control_c, 0, 67, 8
1, 424424, Control_c, 0, 67, 9
1, 424439, Control_c, 0, 67, 9
1, 424454, Control_c, 0, 67, 10
1, 424469, Control_c, 0, 67, 10
1, 424491, Note_on_c, 0, 91, 97
1, 424499, Control_c, 0, 67, 12
1, 424501, Note_on_c, 0, 79, 69
1, 424513, Control_c, 0, 67, 14
1, 424528, Control_c, 0, 67, 15
1, 424558, Control_c, 0, 67, 16
1, 424573, Control_c, 0, 67, 17
1, 424587, Control_c, 0, 67, 19
1, 424602, Control_c, 0, 67, 22
1, 424617, Control_c, 0, 67, 25
1, 424632, Control_c, 0, 67, 29
1, 424647, Control_c, 0, 67, 33
1, 424668, Control_c, 0, 67, 37
1, 424683, Note_off_c, 0, 57, 32
1, 424683, Control_c, 0, 67, 43
1, 424698, Control_c, 0, 67, 49
1, 424703, Note_on_c, 0, 67, 44
1, 424713, Control_c, 0, 67, 57
1, 424728, Control_c, 0, 67, 64
1, 424729, Note_off_c, 0, 67, 61
1, 424744, Control_c, 0, 67, 71
1, 424759, Control_c, 0, 67, 76
1, 424773, Control_c, 0, 67, 81
1, 424788, Control_c, 0, 67, 86
1, 424803, Control_c, 0, 67, 90
1, 424818, Control_c, 0, 67, 94
1, 424832, Control_c, 0, 67, 98
1, 424847, Control_c, 0, 67, 101
1, 424862, Control_c, 0, 67, 104
1, 424877, Note_off_c, 0, 91, 53
1, 424877, Control_c, 0, 67, 106
1, 424880, Note_off_c, 0, 79, 59
1, 424892, Control_c, 0, 67, 108
1, 424907, Control_c, 0, 67, 109
1, 424922, Control_c, 0, 67, 111
1, 424937, Control_c, 0, 67, 113
1, 424951, Control_c, 0, 67, 115
1, 424966, Control_c, 0, 67, 116
1, 424981, Control_c, 0, 67, 117
1, 425048, Note_on_c, 0, 38, 41
1, 425055, Control_c, 0, 67, 117
1, 425070, Control_c, 0, 67, 116
1, 425111, Note_on_c, 0, 90, 88
1, 425122, Note_on_c, 0, 78, 63
1, 425143, Control_c, 0, 64, 99
1, 425158, Control_c, 0, 64, 92
1, 425173, Control_c, 0, 64, 80
1, 425188, Control_c, 0, 64, 64
1, 425203, Control_c, 0, 64, 0
1, 425232, Control_c, 0, 67, 116
1, 425262, Control_c, 0, 64, 42
1, 425277, Control_c, 0, 64, 63
1, 425291, Control_c, 0, 64, 66
1, 425306, Control_c, 0, 64, 70
1, 425321, Control_c, 0, 64, 73
1, 425336, Control_c, 0, 64, 76
1, 425336, Control_c, 0, 67, 115
1, 425351, Control_c, 0, 64, 80
1, 425351, Control_c, 0, 67, 115
1, 425366, Control_c, 0, 64, 83
1, 425381, Control_c, 0, 64, 85
1, 425396, Control_c, 0, 64, 86
1, 425411, Control_c, 0, 64, 88
1, 425432, Control_c, 0, 64, 89
1, 425435, Poly_aftertouch_c, 0, 86, 0
1, 425447, Control_c, 0, 64, 91
1, 425450, Note_off_c, 0, 90, 58
1, 425462, Control_c, 0, 64, 92
1, 425477, Control_c, 0, 64, 93
1, 425491, Control_c, 0, 64, 93
1, 425506, Control_c, 0, 64, 94
1, 425506, Control_c, 0, 67, 114
1, 425521, Control_c, 0, 64, 95
1, 425521, Control_c, 0, 67, 114
1, 425536, Control_c, 0, 64, 96
1, 425545, Note_on_c, 0, 45, 34
1, 425552, Control_c, 0, 64, 96
1, 425566, Control_c, 0, 64, 97
1, 425572, Note_off_c, 0, 78, 54
1, 425596, Control_c, 0, 64, 98
1, 425596, Control_c, 0, 67, 113
1, 425611, Control_c, 0, 67, 113
1, 425621, Note_off_c, 0, 38, 37
1, 425626, Control_c, 0, 64, 98
1, 425626, Control_c, 0, 67, 112
1, 425640, Control_c, 0, 67, 112
1, 425670, Control_c, 0, 64, 99
1, 425715, Control_c, 0, 67, 111
1, 425721, Note_off_c, 0, 45, 40
1, 425730, Control_c, 0, 67, 111
1, 425745, Control_c, 0, 64, 99
1, 425745, Control_c, 0, 67, 110
1, 425774, Control_c, 0, 67, 110
1, 425782, Note_on_c, 0, 50, 35
1, 425789, Note_on_c, 0, 87, 83
1, 425789, Control_c, 0, 67, 109
1, 425798, Note_on_c, 0, 75, 59
1, 425819, Control_c, 0, 67, 108
1, 425848, Control_c, 0, 67, 108
1, 425852, Note_off_c, 0, 50, 40
1, 425863, Control_c, 0, 67, 107
1, 425878, Control_c, 0, 67, 107
1, 425966, Control_c, 0, 67, 106
1, 425996, Control_c, 0, 67, 106
1, 426012, Control_c, 0, 64, 100
1, 426040, Note_on_c, 0, 54, 45
1, 426041, Control_c, 0, 67, 105
1, 426097, Note_off_c, 0, 75, 53
1, 426101, Control_c, 0, 67, 105
1, 426111, Note_off_c, 0, 87, 55
1, 426130, Control_c, 0, 67, 104
1, 426160, Control_c, 0, 67, 103
1, 426182, Control_c, 0, 67, 99
1, 426197, Control_c, 0, 67, 96
1, 426212, Control_c, 0, 67, 94
1, 426227, Control_c, 0, 67, 91
1, 426241, Note_off_c, 0, 54, 60
1, 426242, Control_c, 0, 67, 88
1, 426256, Control_c, 0, 67, 85
1, 426257, Note_on_c, 0, 57, 56
1, 426271, Control_c, 0, 67, 82
1, 426276, Note_on_c, 0, 86, 85
1, 426286, Control_c, 0, 67, 79
1, 426287, Note_on_c, 0, 74, 57
1, 426300, Control_c, 0, 67, 75
1, 426315, Control_c, 0, 67, 71
1, 426330, Control_c, 0, 67, 65
1, 426346, Control_c, 0, 67, 58
1, 426361, Control_c, 0, 67, 50
1, 426376, Control_c, 0, 67, 42
1, 426390, Control_c, 0, 67, 36
1, 426405, Control_c, 0, 67, 31
1, 426420, Control_c, 0, 67, 28
1, 426427, Note_off_c, 0, 57, 35
1, 426435, Control_c, 0, 67, 24
1, 426450, Control_c, 0, 67, 22
1, 426464, Control_c, 0, 67, 19
1, 426479, Control_c, 0, 67, 16
1, 426480, Note_off_c, 0, 86, 40
1, 426494, Control_c, 0, 67, 14
1, 426502, Note_on_c, 0, 60, 65
1, 426509, Control_c, 0, 67, 12
1, 426524, Control_c, 0, 67, 10
1, 426529, Note_off_c, 0, 74, 58
1, 426538, Control_c, 0, 67, 9
1, 426553, Control_c, 0, 67, 8
1, 426568, Control_c, 0, 67, 8
1, 426583, Control_c, 0, 67, 0
1, 426749, Note_on_c, 0, 62, 65
1, 426757, Note_on_c, 0, 84, 95
1, 426763, Note_on_c, 0, 72, 75
1, 426945, Control_c, 0, 67, 8
1, 426975, Control_c, 0, 67, 8
1, 426981, Note_off_c, 0, 60, 36
1, 426990, Control_c, 0, 67, 9
1, 426998, Note_off_c, 0, 62, 60
1, 427004, Control_c, 0, 67, 10
1, 427006, Note_off_c, 0, 84, 47
1, 427007, Note_on_c, 0, 66, 68
1, 427019, Control_c, 0, 67, 10
1, 427034, Control_c, 0, 67, 11
1, 427049, Control_c, 0, 67, 12
1, 427050, Note_off_c, 0, 66, 62
1, 427064, Control_c, 0, 67, 12
1, 427078, Control_c, 0, 67, 13
1, 427089, Note_off_c, 0, 72, 58
1, 427093, Control_c, 0, 67, 14
1, 427108, Control_c, 0, 67, 15
1, 427300, Note_on_c, 0, 43, 47
1, 427316, Control_c, 0, 67, 16
1, 427317, Note_on_c, 0, 83, 80
1, 427331, Control_c, 0, 67, 16
1, 427335, Note_on_c, 0, 71, 61
1, 427345, Control_c, 0, 64, 99
1, 427360, Control_c, 0, 64, 96
1, 427360, Control_c, 0, 67, 17
1, 427375, Control_c, 0, 64, 87
1, 427375, Control_c, 0, 67, 17
1, 427390, Control_c, 0, 64, 73
1, 427390, Control_c, 0, 67, 18
1, 427405, Control_c, 0, 64, 0
1, 427405, Control_c, 0, 67, 18
1, 427465, Control_c, 0, 64, 39
1, 427479, Control_c, 0, 64, 63
1, 427494, Control_c, 0, 64, 67
1, 427509, Control_c, 0, 64, 73
1, 427524, Control_c, 0, 64, 80
1, 427538, Control_c, 0, 64, 85
1, 427538, Control_c, 0, 67, 18
1, 427553, Control_c, 0, 64, 89
1, 427568, Control_c, 0, 64, 92
1, 427568, Control_c, 0, 67, 17
1, 427583, Control_c, 0, 64, 94
1, 427598, Control_c, 0, 64, 97
1, 427612, Control_c, 0, 64, 99
1, 427627, Control_c, 0, 64, 101
1, 427634, Note_off_c, 0, 43, 36
1, 427642, Control_c, 0, 64, 102
1, 427664, Control_c, 0, 64, 102
1, 427679, Control_c, 0, 64, 103
1, 427685, Note_on_c, 0, 50, 44
1, 427730, Note_off_c, 0, 83, 34
1, 427740, Note_off_c, 0, 71, 57
1, 427753, Control_c, 0, 64, 103
1, 427813, Control_c, 0, 67, 17
1, 427827, Control_c, 0, 67, 16
1, 427872, Control_c, 0, 67, 16
1, 427941, Note_on_c, 0, 53, 41
1, 427958, Note_on_c, 0, 80, 84
1, 427962, Note_on_c, 0, 68, 68
1, 427962, Control_c, 0, 67, 15
1, 428056, Note_off_c, 0, 50, 38
1, 428111, Note_off_c, 0, 53, 49
1, 428188, Note_off_c, 0, 80, 62
1, 428190, Note_on_c, 0, 60, 55
1, 428261, Note_off_c, 0, 68, 60
1, 428272, Control_c, 0, 67, 15
1, 428332, Control_c, 0, 67, 14
1, 428361, Control_c, 0, 64, 104
1, 428361, Control_c, 0, 67, 14
1, 428413, Control_c, 0, 64, 103
1, 428428, Control_c, 0, 64, 99
1, 428432, Note_on_c, 0, 79, 87
1, 428436, Note_off_c, 0, 60, 51
1, 428442, Control_c, 0, 64, 90
1, 428442, Control_c, 0, 67, 14
1, 428445, Note_on_c, 0, 67, 72
1, 428446, Note_on_c, 0, 59, 53
1, 428457, Control_c, 0, 64, 78
1, 428472, Control_c, 0, 64, 66
1, 428487, Control_c, 0, 64, 63
1, 428502, Control_c, 0, 64, 66
1, 428502, Control_c, 0, 67, 14
1, 428517, Control_c, 0, 64, 69
1, 428532, Control_c, 0, 64, 73
1, 428547, Control_c, 0, 64, 78
1, 428553, Note_off_c, 0, 67, 57
1, 428561, Control_c, 0, 64, 84
1, 428576, Control_c, 0, 64, 88
1, 428591, Control_c, 0, 64, 90
1, 428606, Control_c, 0, 64, 93
1, 428618, Note_off_c, 0, 79, 63
1, 428621, Control_c, 0, 64, 94
1, 428635, Control_c, 0, 64, 95
1, 428650, Control_c, 0, 64, 96
1, 428665, Control_c, 0, 64, 96
1, 428680, Control_c, 0, 64, 97
1, 428692, Note_off_c, 0, 59, 60
1, 428694, Control_c, 0, 64, 97
1, 428700, Note_on_c, 0, 62, 60
1, 428724, Control_c, 0, 64, 98
1, 428755, Control_c, 0, 64, 98
1, 428755, Control_c, 0, 67, 13
1, 428785, Control_c, 0, 64, 99
1, 428799, Control_c, 0, 67, 13
1, 428829, Control_c, 0, 64, 99
1, 428870, Note_off_c, 0, 62, 52
1, 428911, Note_on_c, 0, 55, 52
1, 428917, Control_c, 0, 67, 13
1, 428947, Control_c, 0, 67, 14
1, 428951, Note_on_c, 0, 89, 94
1, 428955, Note_on_c, 0, 77, 78
1, 429051, Control_c, 0, 67, 14
1, 429080, Control_c, 0, 67, 15
1, 429174, Note_off_c, 0, 55, 56
1, 429177, Control_c, 0, 67, 15
1, 429181, Note_on_c, 0, 65, 72
1, 429191, Control_c, 0, 64, 100
1, 429191, Control_c, 0, 67, 16
1, 429206, Control_c, 0, 67, 16
1, 429208, Note_off_c, 0, 65, 68
1, 429221, Control_c, 0, 67, 17
1, 429236, Control_c, 0, 67, 17
1, 429265, Note_off_c, 0, 89, 54
1, 429295, Control_c, 0, 67, 18
1, 429325, Note_off_c, 0, 77, 58
1, 429325, Control_c, 0, 67, 18
1, 429399, Control_c, 0, 67, 18
1, 429447, Note_on_c, 0, 36, 64
1, 429488, Control_c, 0, 67, 17
1, 429514, Note_on_c, 0, 88, 89
1, 429525, Note_on_c, 0, 76, 68
1, 429548, Control_c, 0, 64, 99
1, 429548, Control_c, 0, 67, 17
1, 429563, Control_c, 0, 64, 94
1, 429563, Control_c, 0, 67, 16
1, 429578, Control_c, 0, 64, 83
1, 429593, Control_c, 0, 64, 68
1, 429607, Control_c, 0, 64, 0
1, 429607, Control_c, 0, 67, 16
1, 429622, Control_c, 0, 67, 15
1, 429652, Control_c, 0, 67, 15
1, 429667, Control_c, 0, 64, 42
1, 429667, Control_c, 0, 67, 14
1, 429682, Control_c, 0, 64, 60
1, 429682, Control_c, 0, 67, 14
1, 429696, Control_c, 0, 64, 65
1, 429711, Control_c, 0, 64, 68
1, 429726, Control_c, 0, 64, 72
1, 429726, Control_c, 0, 67, 13
1, 429740, Control_c, 0, 64, 76
1, 429740, Control_c, 0, 67, 13
1, 429756, Control_c, 0, 64, 80
1, 429771, Control_c, 0, 64, 83
1, 429771, Control_c, 0, 67, 12
1, 429786, Control_c, 0, 64, 84
1, 429786, Control_c, 0, 67, 12
1, 429801, Control_c, 0, 64, 86
1, 429815, Control_c, 0, 64, 87
1, 429830, Control_c, 0, 64, 88
1, 429845, Control_c, 0, 64, 90
1, 429853, Note_on_c, 0, 43, 61
1, 429860, Control_c, 0, 64, 90
1, 429875, Control_c, 0, 64, 91
1, 429875, Control_c, 0, 67, 11
1, 429882, Note_off_c, 0, 36, 52
1, 429889, Control_c, 0, 64, 91
1, 429904, Control_c, 0, 67, 10
1, 429926, Note_off_c, 0, 88, 33
1, 429927, Control_c, 0, 64, 92
1, 429942, Note_off_c, 0, 76, 62
1, 429956, Control_c, 0, 64, 92
1, 430001, Control_c, 0, 67, 10
1, 430015, Control_c, 0, 67, 9
1, 430030, Control_c, 0, 64, 93
1, 430045, Control_c, 0, 67, 9
1, 430075, Control_c, 0, 67, 8
1, 430110, Note_on_c, 0, 46, 58
1, 430122, Note_on_c, 0, 85, 87
1, 430134, Note_on_c, 0, 73, 66
1, 430148, Control_c, 0, 67, 8
1, 430163, Control_c, 0, 67, 0
1, 430302, Note_off_c, 0, 43, 33
1, 430312, Note_off_c, 0, 46, 59
1, 430335, Note_off_c, 0, 85, 63
1, 430353, Note_on_c, 0, 52, 58
1, 430396, Note_off_c, 0, 52, 61
1, 430401, Control_c, 0, 64, 93
1, 430403, Note_off_c, 0, 73, 55
1, 430505, Control_c, 0, 64, 94
1, 430534, Control_c, 0, 64, 94
1, 430582, Note_on_c, 0, 55, 65
1, 430598, Note_on_c, 0, 84, 91
1, 430603, Note_on_c, 0, 72, 73
1, 430608, Control_c, 0, 64, 94
1, 430623, Control_c, 0, 64, 89
1, 430637, Control_c, 0, 64, 79
1, 430652, Control_c, 0, 64, 60
1, 430652, Control_c, 0, 67, 8
1, 430675, Control_c, 0, 64, 0
1, 430705, Control_c, 0, 64, 58
1, 430705, Control_c, 0, 67, 8
1, 430719, Control_c, 0, 64, 65
1, 430734, Control_c, 0, 64, 68
1, 430734, Control_c, 0, 67, 9
1, 430749, Control_c, 0, 64, 71
1, 430749, Control_c, 0, 67, 10
1, 430763, Control_c, 0, 64, 76
1, 430763, Control_c, 0, 67, 10
1, 430778, Control_c, 0, 64, 80
1, 430778, Control_c, 0, 67, 11
1, 430793, Control_c, 0, 64, 83
1, 430793, Control_c, 0, 67, 11
1, 430796, Note_off_c, 0, 72, 60
1, 430808, Control_c, 0, 64, 85
1, 430819, Note_on_c, 0, 58, 76
1, 430823, Control_c, 0, 64, 86
1, 430823, Control_c, 0, 67, 12
1, 430837, Note_off_c, 0, 84, 64
1, 430837, Control_c, 0, 64, 87
1, 430837, Control_c, 0, 67, 14
1, 430852, Control_c, 0, 64, 89
1, 430852, Control_c, 0, 67, 14
1, 430867, Control_c, 0, 64, 90
1, 430867, Control_c, 0, 67, 15
1, 430882, Control_c, 0, 64, 91
1, 430882, Control_c, 0, 67, 16
1, 430896, Control_c, 0, 64, 92
1, 430896, Control_c, 0, 67, 17
1, 430911, Control_c, 0, 64, 92
1, 430926, Control_c, 0, 64, 93
1, 430926, Control_c, 0, 67, 18
1, 430941, Control_c, 0, 64, 93
1, 430941, Control_c, 0, 67, 19
1, 430956, Control_c, 0, 67, 21
1, 430970, Control_c, 0, 64, 94
1, 430970, Control_c, 0, 67, 28
1, 430985, Control_c, 0, 67, 36
1, 431000, Control_c, 0, 64, 94
1, 431000, Control_c, 0, 67, 42
1, 431015, Control_c, 0, 67, 46
1, 431030, Control_c, 0, 67, 51
1, 431045, Control_c, 0, 67, 57
1, 431051, Note_on_c, 0, 54, 60
1, 431060, Control_c, 0, 67, 62
1, 431074, Control_c, 0, 64, 94
1, 431074, Control_c, 0, 67, 65
1, 431089, Control_c, 0, 64, 90
1, 431089, Control_c, 0, 67, 70
1, 431104, Control_c, 0, 64, 80
1, 431104, Control_c, 0, 67, 73
1, 431111, Note_on_c, 0, 88, 99
1, 431119, Control_c, 0, 64, 67
1, 431119, Control_c, 0, 67, 76
1, 431121, Note_on_c, 0, 76, 72
1, 431134, Control_c, 0, 64, 27
1, 431134, Control_c, 0, 67, 78
1, 431149, Control_c, 0, 64, 44
1, 431149, Control_c, 0, 67, 79
1, 431164, Control_c, 0, 64, 60
1, 431164, Control_c, 0, 67, 80
1, 431179, Control_c, 0, 64, 64
1, 431179, Control_c, 0, 67, 81
1, 431194, Control_c, 0, 64, 67
1, 431194, Control_c, 0, 67, 83
1, 431209, Control_c, 0, 64, 71
1, 431209, Control_c, 0, 67, 87
1, 431213, Note_off_c, 0, 55, 36
1, 431223, Control_c, 0, 64, 75
1, 431223, Control_c, 0, 67, 94
1, 431238, Control_c, 0, 64, 80
1, 431238, Control_c, 0, 67, 100
1, 431253, Control_c, 0, 64, 83
1, 431253, Control_c, 0, 67, 105
1, 431268, Control_c, 0, 64, 86
1, 431268, Control_c, 0, 67, 110
1, 431283, Control_c, 0, 64, 88
1, 431283, Control_c, 0, 67, 116
1, 431291, Note_on_c, 0, 66, 70
1, 431298, Control_c, 0, 64, 91
1, 431298, Control_c, 0, 67, 121
1, 431307, Note_off_c, 0, 58, 58
1, 431313, Control_c, 0, 64, 92
1, 431313, Control_c, 0, 67, 125
1, 431318, Note_off_c, 0, 66, 68
1, 431327, Control_c, 0, 64, 93
1, 431327, Control_c, 0, 67, 127
1, 431342, Control_c, 0, 64, 94
1, 431361, Note_off_c, 0, 54, 62
1, 431368, Note_off_c, 0, 76, 62
1, 431651, Note_on_c, 0, 87, 77
1, 431653, Note_on_c, 0, 75, 62
1, 431653, Note_on_c, 0, 35, 47
1, 431660, Control_c, 0, 64, 92
1, 431675, Control_c, 0, 64, 85
1, 431690, Control_c, 0, 64, 71
1, 431705, Control_c, 0, 64, 0
1, 431764, Control_c, 0, 64, 59
1, 431774, Note_off_c, 0, 88, 32
1, 431779, Control_c, 0, 64, 66
1, 431793, Control_c, 0, 64, 69
1, 431808, Control_c, 0, 64, 72
1, 431823, Control_c, 0, 64, 75
1, 431838, Control_c, 0, 64, 78
1, 431853, Control_c, 0, 64, 82
1, 431867, Control_c, 0, 64, 84
1, 431882, Control_c, 0, 64, 84
1, 431885, Note_off_c, 0, 87, 57
1, 431897, Control_c, 0, 64, 85
1, 431912, Control_c, 0, 64, 87
1, 431927, Control_c, 0, 64, 88
1, 431942, Control_c, 0, 64, 89
1, 431957, Control_c, 0, 64, 89
1, 431972, Control_c, 0, 64, 90
1, 431981, Note_on_c, 0, 42, 36
1, 432001, Note_off_c, 0, 75, 53
1, 432016, Control_c, 0, 64, 90
1, 432026, Note_off_c, 0, 35, 34
1, 432171, Note_off_c, 0, 42, 39
1, 432219, Note_on_c, 0, 45, 35
1, 432255, Note_on_c, 0, 72, 56
1, 432257, Note_on_c, 0, 84, 68
1, 432272, Note_off_c, 0, 45, 51
1, 432430, Note_off_c, 0, 84, 51
1, 432470, Note_on_c, 0, 51, 46
1, 432474, Note_off_c, 0, 72, 35
1, 432616, Control_c, 0, 64, 91
1, 432690, Control_c, 0, 64, 90
1, 432705, Control_c, 0, 64, 85
1, 432720, Control_c, 0, 64, 75
1, 432736, Control_c, 0, 64, 61
1, 432738, Note_on_c, 0, 83, 63
1, 432746, Note_on_c, 0, 54, 31
1, 432751, Control_c, 0, 64, 0
1, 432764, Note_on_c, 0, 71, 37
1, 432781, Control_c, 0, 64, 53
1, 432796, Control_c, 0, 64, 62
1, 432811, Control_c, 0, 64, 66
1, 432825, Control_c, 0, 64, 69
1, 432840, Control_c, 0, 64, 71
1, 432855, Control_c, 0, 64, 74
1, 432870, Control_c, 0, 64, 78
1, 432885, Control_c, 0, 64, 80
1, 432886, Note_off_c, 0, 51, 35
1, 432907, Control_c, 0, 64, 82
1, 432922, Control_c, 0, 64, 83
1, 432926, Note_off_c, 0, 71, 36
1, 432937, Control_c, 0, 64, 84
1, 432952, Control_c, 0, 64, 85
1, 432966, Control_c, 0, 64, 87
1, 432981, Control_c, 0, 64, 88
1, 432983, Note_off_c, 0, 54, 37
1, 432996, Control_c, 0, 64, 89
1, 433000, Note_off_c, 0, 83, 55
1, 433006, Note_on_c, 0, 57, 33
1, 433011, Control_c, 0, 64, 90
1, 433026, Control_c, 0, 64, 90
1, 433040, Control_c, 0, 64, 91
1, 433055, Control_c, 0, 64, 92
1, 433070, Control_c, 0, 64, 92
1, 433084, Control_c, 0, 64, 93
1, 433106, Note_off_c, 0, 57, 34
1, 433114, Control_c, 0, 64, 93
1, 433158, Control_c, 0, 64, 94
1, 433173, Control_c, 0, 64, 94
1, 433218, Control_c, 0, 64, 95
1, 433292, Control_c, 0, 64, 94
1, 433292, Note_on_c, 0, 52, 30
1, 433301, Note_on_c, 0, 56, 36
1, 433307, Control_c, 0, 64, 89
1, 433322, Control_c, 0, 64, 80
1, 433323, Note_on_c, 0, 86, 63
1, 433336, Note_on_c, 0, 74, 40
1, 433337, Control_c, 0, 64, 65
1, 433352, Control_c, 0, 64, 0
1, 433381, Control_c, 0, 64, 48
1, 433396, Control_c, 0, 64, 64
1, 433411, Control_c, 0, 64, 69
1, 433426, Control_c, 0, 64, 75
1, 433440, Control_c, 0, 64, 81
1, 433455, Control_c, 0, 64, 84
1, 433470, Control_c, 0, 64, 85
1, 433480, Note_off_c, 0, 52, 42
1, 433484, Control_c, 0, 64, 86
1, 433498, Control_c, 0, 64, 88
1, 433513, Control_c, 0, 64, 89
1, 433528, Control_c, 0, 64, 90
1, 433543, Control_c, 0, 64, 91
1, 433558, Control_c, 0, 64, 91
1, 433581, Note_off_c, 0, 56, 39
1, 433587, Control_c, 0, 64, 92
1, 433602, Control_c, 0, 64, 92
1, 433617, Control_c, 0, 64, 93
1, 433629, Note_on_c, 0, 64, 38
1, 433631, Note_off_c, 0, 74, 38
1, 433632, Control_c, 0, 64, 93
1, 433647, Control_c, 0, 64, 94
1, 433665, Note_off_c, 0, 64, 48
1, 433667, Note_off_c, 0, 86, 27
1, 433684, Control_c, 0, 64, 94
1, 433999, Note_on_c, 0, 33, 40
1, 434025, Control_c, 0, 64, 94
1, 434026, Note_on_c, 0, 85, 58
1, 434034, Note_on_c, 0, 73, 37
1, 434040, Control_c, 0, 64, 91
1, 434054, Control_c, 0, 64, 84
1, 434069, Control_c, 0, 64, 71
1, 434084, Control_c, 0, 64, 41
1, 434098, Control_c, 0, 64, 0
1, 434128, Control_c, 0, 64, 55
1, 434143, Control_c, 0, 64, 63
1, 434158, Control_c, 0, 64, 66
1, 434172, Control_c, 0, 64, 68
1, 434187, Control_c, 0, 64, 71
1, 434202, Control_c, 0, 64, 75
1, 434217, Control_c, 0, 64, 78
1, 434232, Control_c, 0, 64, 81
1, 434247, Control_c, 0, 64, 83
1, 434261, Control_c, 0, 64, 84
1, 434274, Note_off_c, 0, 33, 39
1, 434276, Control_c, 0, 64, 85
1, 434291, Control_c, 0, 64, 86
1, 434306, Control_c, 0, 64, 88
1, 434321, Control_c, 0, 64, 88
1, 434336, Control_c, 0, 64, 89
1, 434341, Note_off_c, 0, 85, 29
1, 434381, Control_c, 0, 64, 90
1, 434418, Control_c, 0, 64, 90
1, 434451, Note_on_c, 0, 45, 23
1, 434492, Control_c, 0, 64, 91
1, 434495, Note_off_c, 0, 45, 49
1, 434538, Note_off_c, 0, 73, 38
1, 434702, Note_on_c, 0, 84, 62
1, 434711, Note_on_c, 0, 52, 35
1, 434714, Note_on_c, 0, 72, 47
1, 434818, Control_c, 0, 67, 126
1, 434822, Note_off_c, 0, 52, 37
1, 434833, Control_c, 0, 67, 123
1, 434847, Control_c, 0, 67, 121
1, 434862, Control_c, 0, 67, 119
1, 434864, Note_off_c, 0, 84, 37
1, 434877, Control_c, 0, 67, 116
1, 434892, Control_c, 0, 67, 114
1, 434907, Control_c, 0, 67, 112
1, 434921, Control_c, 0, 67, 113
1, 434936, Control_c, 0, 67, 113
1, 434951, Control_c, 0, 67, 114
1, 434962, Note_off_c, 0, 72, 35
1, 434966, Control_c, 0, 67, 116
1, 434973, Note_on_c, 0, 57, 40
1, 434981, Control_c, 0, 67, 117
1, 434995, Control_c, 0, 67, 118
1, 435003, Note_off_c, 0, 57, 57
1, 435010, Control_c, 0, 67, 119
1, 435025, Control_c, 0, 67, 120
1, 435040, Control_c, 0, 67, 121
1, 435054, Control_c, 0, 67, 121
1, 435069, Control_c, 0, 67, 122
1, 435084, Control_c, 0, 67, 123
1, 435099, Control_c, 0, 67, 123
1, 435130, Control_c, 0, 67, 124
1, 435167, Control_c, 0, 67, 125
1, 435182, Control_c, 0, 67, 127
1, 435197, Control_c, 0, 67, 127
1, 435256, Control_c, 0, 64, 87
1, 435271, Note_on_c, 0, 70, 48
1, 435271, Note_on_c, 0, 82, 60
1, 435271, Control_c, 0, 64, 79
1, 435280, Note_on_c, 0, 77, 50
1, 435285, Note_on_c, 0, 38, 37
1, 435286, Control_c, 0, 64, 66
1, 435301, Control_c, 0, 64, 0
1, 435313, Note_off_c, 0, 70, 0
1, 435313, Note_on_c, 0, 70, 12
1, 435359, Control_c, 0, 64, 52
1, 435374, Control_c, 0, 64, 64
1, 435389, Control_c, 0, 64, 68
1, 435404, Control_c, 0, 64, 72
1, 435419, Control_c, 0, 64, 76
1, 435433, Control_c, 0, 64, 80
1, 435448, Control_c, 0, 64, 82
1, 435463, Control_c, 0, 64, 84
1, 435477, Control_c, 0, 64, 86
1, 435481, Note_off_c, 0, 38, 39
1, 435492, Control_c, 0, 64, 87
1, 435502, Note_off_c, 0, 82, 54
1, 435507, Control_c, 0, 64, 88
1, 435516, Note_off_c, 0, 77, 33
1, 435522, Control_c, 0, 64, 90
1, 435537, Control_c, 0, 64, 91
1, 435552, Control_c, 0, 64, 92
1, 435567, Control_c, 0, 64, 92
1, 435582, Control_c, 0, 64, 93
1, 435585, Note_on_c, 0, 50, 30
1, 435611, Control_c, 0, 64, 93
1, 435634, Note_off_c, 0, 70, 42
1, 435635, Note_off_c, 0, 50, 45
1, 435824, Note_on_c, 0, 77, 61
1, 435825, Note_on_c, 0, 53, 35
1, 435844, Note_on_c, 0, 65, 43
1, 436029, Note_off_c, 0, 53, 36
1, 436029, Note_off_c, 0, 65, 40
1, 436080, Note_off_c, 0, 77, 36
1, 436084, Note_on_c, 0, 58, 37
1, 436112, Note_off_c, 0, 58, 56
1, 436427, Note_on_c, 0, 40, 43
1, 436445, Note_on_c, 0, 81, 58
1, 436449, Control_c, 0, 64, 90
1, 436464, Control_c, 0, 64, 83
1, 436468, Note_on_c, 0, 74, 38
1, 436474, Note_on_c, 0, 71, 36
1, 436479, Control_c, 0, 64, 72
1, 436480, Note_on_c, 0, 69, 32
1, 436494, Control_c, 0, 64, 45
1, 436509, Control_c, 0, 64, 0
1, 436538, Control_c, 0, 64, 40
1, 436553, Control_c, 0, 64, 58
1, 436568, Control_c, 0, 64, 64
1, 436583, Control_c, 0, 64, 66
1, 436598, Control_c, 0, 64, 69
1, 436613, Control_c, 0, 64, 73
1, 436628, Control_c, 0, 64, 76
1, 436643, Control_c, 0, 64, 79
1, 436664, Control_c, 0, 64, 81
1, 436679, Control_c, 0, 64, 82
1, 436694, Control_c, 0, 64, 83
1, 436708, Control_c, 0, 64, 84
1, 436724, Note_off_c, 0, 40, 38
1, 436724, Control_c, 0, 64, 86
1, 436739, Control_c, 0, 64, 87
1, 436754, Control_c, 0, 64, 87
1, 436769, Control_c, 0, 64, 88
1, 436780, Note_off_c, 0, 81, 36
1, 436784, Control_c, 0, 64, 88
1, 436828, Control_c, 0, 64, 89
1, 436858, Note_on_c, 0, 52, 36
1, 436858, Control_c, 0, 64, 89
1, 436870, Note_off_c, 0, 69, 41
1, 436923, Note_off_c, 0, 52, 58
1, 436932, Control_c, 0, 64, 90
1, 437080, Control_c, 0, 64, 90
1, 437191, Note_on_c, 0, 80, 61
1, 437193, Note_on_c, 0, 68, 39
1, 437221, Note_on_c, 0, 59, 9
1, 437224, Note_off_c, 0, 71, 32
1, 437346, Control_c, 0, 67, 126
1, 437361, Control_c, 0, 67, 125
1, 437376, Control_c, 0, 67, 123
1, 437385, Note_off_c, 0, 59, 21
1, 437391, Control_c, 0, 67, 120
1, 437412, Control_c, 0, 67, 117
1, 437427, Control_c, 0, 67, 114
1, 437442, Control_c, 0, 67, 111
1, 437457, Control_c, 0, 67, 108
1, 437466, Note_off_c, 0, 68, 41
1, 437471, Control_c, 0, 67, 105
1, 437486, Control_c, 0, 67, 101
1, 437501, Control_c, 0, 67, 96
1, 437510, Note_off_c, 0, 80, 56
1, 437516, Control_c, 0, 67, 91
1, 437532, Control_c, 0, 67, 85
1, 437546, Control_c, 0, 67, 78
1, 437561, Control_c, 0, 67, 70
1, 437576, Control_c, 0, 67, 62
1, 437578, Note_on_c, 0, 62, 5
1, 437585, Note_off_c, 0, 74, 39
1, 437591, Control_c, 0, 67, 56
1, 437606, Control_c, 0, 67, 50
1, 437621, Control_c, 0, 67, 44
1, 437635, Control_c, 0, 67, 39
1, 437649, Note_off_c, 0, 62, 42
1, 437650, Control_c, 0, 67, 34
1, 437665, Control_c, 0, 67, 29
1, 437680, Control_c, 0, 67, 23
1, 437695, Control_c, 0, 67, 18
1, 437710, Control_c, 0, 67, 13
1, 437725, Control_c, 0, 67, 8
1, 437740, Control_c, 0, 67, 0
1, 438250, Control_c, 0, 64, 90
1, 438312, Note_on_c, 0, 45, 26
1, 438325, Control_c, 0, 64, 89
1, 438340, Control_c, 0, 64, 88
1, 438355, Control_c, 0, 64, 86
1, 438369, Control_c, 0, 64, 84
1, 438379, Note_on_c, 0, 81, 49
1, 438384, Note_on_c, 0, 72, 31
1, 438384, Control_c, 0, 64, 81
1, 438396, Note_on_c, 0, 69, 37
1, 438399, Control_c, 0, 64, 76
1, 438414, Control_c, 0, 64, 67
1, 438429, Control_c, 0, 64, 56
1, 438443, Control_c, 0, 64, 24
1, 438458, Control_c, 0, 64, 0
1, 438577, Control_c, 0, 64, 47
1, 438592, Control_c, 0, 64, 57
1, 438607, Control_c, 0, 64, 60
1, 438622, Control_c, 0, 64, 62
1, 438637, Control_c, 0, 64, 64
1, 438651, Control_c, 0, 64, 66
1, 438666, Control_c, 0, 64, 68
1, 438681, Control_c, 0, 64, 69
1, 438695, Control_c, 0, 64, 70
1, 438710, Control_c, 0, 64, 72
1, 438725, Control_c, 0, 64, 73
1, 438740, Control_c, 0, 64, 76
1, 438755, Control_c, 0, 64, 78
1, 438769, Control_c, 0, 64, 79
1, 438799, Control_c, 0, 64, 80
1, 438814, Control_c, 0, 64, 81
1, 438829, Control_c, 0, 64, 81
1, 438843, Control_c, 0, 64, 82
1, 438937, Note_on_c, 0, 52, 31
1, 438976, Note_off_c, 0, 45, 30
1, 439014, Control_c, 0, 64, 82
1, 439222, Control_c, 0, 64, 83
1, 439245, Note_off_c, 0, 69, 34
1, 439340, Control_c, 0, 64, 83
1, 439368, Note_off_c, 0, 52, 33
1, 439519, Control_c, 0, 64, 84
1, 439533, Note_off_c, 0, 72, 21
1, 439684, Note_off_c, 0, 81, 16
1, 439801, Note_on_c, 0, 60, 29
1, 440258, Note_off_c, 0, 60, 28
1, 441824, Control_c, 0, 64, 83
1, 441950, Control_c, 0, 64, 83
1, 441994, Control_c, 0, 64, 82
1, 442024, Control_c, 0, 64, 82
1, 442039, Control_c, 0, 64, 81
1, 442053, Control_c, 0, 64, 81
1, 442068, Control_c, 0, 64, 80
1, 442083, Control_c, 0, 64, 79
1, 442098, Control_c, 0, 64, 78
1, 442113, Control_c, 0, 64, 77
1, 442128, Control_c, 0, 64, 75
1, 442143, Control_c, 0, 64, 72
1, 442157, Control_c, 0, 64, 68
1, 442172, Control_c, 0, 64, 64
1, 442187, Control_c, 0, 64, 61
1, 442202, Control_c, 0, 64, 59
1, 442217, Control_c, 0, 64, 58
1, 442232, Control_c, 0, 64, 56
1, 442246, Control_c, 0, 64, 49
1, 442261, Control_c, 0, 64, 41
1, 442276, Control_c, 0, 64, 34
1, 442291, Control_c, 0, 64, 27
1, 442306, Control_c, 0, 64, 10
1, 442321, Control_c, 0, 64, 0
1, 443859, Note_on_c, 0, 88, 55
1, 443943, Note_on_c, 0, 100, 62
1, 443950, Note_off_c, 0, 88, 53
1, 444037, Note_on_c, 0, 81, 92
1, 444047, Note_on_c, 0, 69, 78
1, 444053, Note_on_c, 0, 99, 75
1, 444069, Note_off_c, 0, 81, 64
1, 444072, Note_off_c, 0, 69, 67
1, 444098, Note_off_c, 0, 100, 57
1, 444157, Note_on_c, 0, 96, 65
1, 444159, Note_off_c, 0, 99, 58
1, 444252, Note_off_c, 0, 96, 59
1, 444256, Note_on_c, 0, 75, 61
1, 444259, Note_on_c, 0, 95, 65
1, 444262, Note_on_c, 0, 72, 46
1, 444275, Note_off_c, 0, 75, 65
1, 444286, Note_off_c, 0, 72, 56
1, 444310, Note_off_c, 0, 95, 61
1, 444351, Note_on_c, 0, 93, 68
1, 444406, Note_off_c, 0, 93, 56
1, 444444, Note_on_c, 0, 76, 85
1, 444446, Note_on_c, 0, 92, 80
1, 444452, Note_on_c, 0, 64, 77
1, 444467, Note_off_c, 0, 76, 66
1, 444527, Note_off_c, 0, 92, 65
1, 444534, Note_on_c, 0, 89, 74
1, 444593, Note_off_c, 0, 89, 64
1, 444600, Note_off_c, 0, 64, 38
1, 444623, Note_on_c, 0, 68, 65
1, 444626, Note_on_c, 0, 88, 71
1, 444629, Note_on_c, 0, 71, 46
1, 444647, Note_off_c, 0, 68, 66
1, 444653, Note_off_c, 0, 71, 36
1, 444675, Note_off_c, 0, 88, 61
1, 444721, Note_on_c, 0, 88, 60
1, 444816, Note_on_c, 0, 69, 91
1, 444817, Note_on_c, 0, 87, 72
1, 444818, Note_on_c, 0, 57, 87
1, 444862, Note_off_c, 0, 88, 58
1, 444871, Note_off_c, 0, 69, 52
1, 444925, Note_off_c, 0, 87, 40
1, 444934, Note_on_c, 0, 84, 69
1, 444986, Note_off_c, 0, 57, 30
1, 445011, Note_off_c, 0, 84, 64
1, 445019, Note_on_c, 0, 83, 67
1, 445028, Note_on_c, 0, 63, 60
1, 445048, Note_off_c, 0, 63, 63
1, 445074, Note_off_c, 0, 83, 58
1, 445110, Note_on_c, 0, 81, 70
1, 445166, Note_off_c, 0, 81, 56
1, 445208, Note_on_c, 0, 52, 75
1, 445214, Note_on_c, 0, 80, 71
1, 445243, Control_c, 0, 64, 46
1, 445257, Control_c, 0, 64, 62
1, 445272, Control_c, 0, 64, 0
1, 445293, Note_on_c, 0, 77, 70
1, 445300, Note_off_c, 0, 80, 61
1, 445353, Note_off_c, 0, 77, 59
1, 445376, Note_off_c, 0, 52, 61
1, 445392, Note_on_c, 0, 76, 66
1, 445419, Note_on_c, 0, 64, 66
1, 445426, Note_off_c, 0, 76, 61
1, 445437, Note_off_c, 0, 64, 65
1, 445493, Note_on_c, 0, 88, 71
1, 445598, Note_on_c, 0, 87, 71
1, 445601, Note_on_c, 0, 81, 92
1, 445608, Note_on_c, 0, 69, 82
1, 445638, Note_on_c, 0, 79, 44
1, 445639, Note_off_c, 0, 79, 127
1, 445654, Note_off_c, 0, 81, 59
1, 445654, Note_off_c, 0, 88, 53
1, 445666, Note_off_c, 0, 69, 50
1, 445672, Note_off_c, 0, 87, 56
1, 445711, Note_on_c, 0, 84, 70
1, 445791, Note_off_c, 0, 84, 63
1, 445795, Note_on_c, 0, 83, 68
1, 445798, Note_on_c, 0, 75, 62
1, 445806, Note_on_c, 0, 72, 53
1, 445818, Note_off_c, 0, 75, 66
1, 445825, Note_off_c, 0, 72, 60
1, 445846, Note_off_c, 0, 83, 58
1, 445885, Note_on_c, 0, 81, 71
1, 445937, Note_off_c, 0, 81, 57
1, 445982, Note_on_c, 0, 76, 83
1, 445986, Note_on_c, 0, 80, 67
1, 445988, Note_on_c, 0, 64, 79
1, 446036, Note_off_c, 0, 76, 60
1, 446074, Note_off_c, 0, 80, 63
1, 446079, Note_on_c, 0, 77, 65
1, 446128, Note_off_c, 0, 77, 59
1, 446131, Note_off_c, 0, 64, 47
1, 446164, Note_on_c, 0, 76, 69
1, 446175, Note_on_c, 0, 68, 62
1, 446188, Note_on_c, 0, 71, 31
1, 446194, Note_off_c, 0, 68, 64
1, 446220, Note_off_c, 0, 76, 62
1, 446220, Note_off_c, 0, 71, 33
1, 446262, Note_on_c, 0, 76, 58
1, 446375, Note_on_c, 0, 69, 95
1, 446376, Note_on_c, 0, 75, 64
1, 446379, Note_on_c, 0, 57, 84
1, 446418, Note_off_c, 0, 69, 64
1, 446420, Note_off_c, 0, 76, 59
1, 446450, Note_off_c, 0, 57, 46
1, 446481, Note_on_c, 0, 72, 65
1, 446489, Note_off_c, 0, 75, 56
1, 446569, Note_off_c, 0, 72, 62
1, 446580, Note_on_c, 0, 71, 61
1, 446582, Note_on_c, 0, 63, 62
1, 446602, Note_off_c, 0, 63, 64
1, 446632, Note_off_c, 0, 71, 57
1, 446677, Note_on_c, 0, 69, 63
1, 446740, Note_off_c, 0, 69, 58
1, 446775, Note_on_c, 0, 52, 89
1, 446786, Note_on_c, 0, 68, 67
1, 446879, Note_off_c, 0, 68, 62
1, 446881, Note_on_c, 0, 65, 62
1, 446900, Note_off_c, 0, 65, 64
1, 446966, Note_off_c, 0, 52, 61
1, 446992, Note_on_c, 0, 64, 68
1, 447011, Note_off_c, 0, 64, 67
1, 447100, Note_on_c, 0, 88, 68
1, 447145, Note_off_c, 0, 88, 55
1, 447187, Note_on_c, 0, 69, 97
1, 447193, Note_on_c, 0, 57, 85
1, 447206, Note_on_c, 0, 86, 79
1, 447297, Note_off_c, 0, 57, 55
1, 447311, Note_on_c, 0, 85, 62
1, 447338, Note_off_c, 0, 86, 38
1, 447382, Note_on_c, 0, 61, 80
1, 447395, Note_on_c, 0, 82, 64
1, 447402, Note_off_c, 0, 85, 64
1, 447413, Note_off_c, 0, 61, 57
1, 447460, Note_off_c, 0, 82, 60
1, 447486, Note_on_c, 0, 81, 64
1, 447538, Note_off_c, 0, 81, 55
1, 447571, Note_on_c, 0, 62, 82
1, 447580, Note_on_c, 0, 80, 65
1, 447598, Note_off_c, 0, 62, 63
1, 447637, Note_on_c, 0, 77, 75
1, 447644, Note_off_c, 0, 80, 63
1, 447699, Note_off_c, 0, 77, 62
1, 447702, Note_on_c, 0, 76, 70
1, 447747, Note_off_c, 0, 76, 66
1, 447753, Note_on_c, 0, 65, 81
1, 447757, Note_off_c, 0, 69, 62
1, 447769, Note_on_c, 0, 74, 70
1, 447773, Note_off_c, 0, 65, 71
1, 447818, Note_off_c, 0, 74, 62
1, 447851, Note_on_c, 0, 86, 78
1, 447918, Note_off_c, 0, 86, 56
1, 447962, Note_on_c, 0, 67, 100
1, 447970, Note_on_c, 0, 55, 88
1, 447972, Note_on_c, 0, 84, 79
1, 448061, Note_on_c, 0, 83, 63
1, 448101, Note_off_c, 0, 84, 56
1, 448112, Note_off_c, 0, 55, 42
1, 448171, Note_on_c, 0, 80, 62
1, 448171, Note_off_c, 0, 83, 59
1, 448173, Note_on_c, 0, 59, 72
1, 448203, Note_off_c, 0, 59, 63
1, 448234, Note_off_c, 0, 80, 64
1, 448253, Note_on_c, 0, 79, 67
1, 448303, Note_off_c, 0, 79, 57
1, 448352, Note_on_c, 0, 60, 82
1, 448359, Note_on_c, 0, 77, 74
1, 448382, Note_off_c, 0, 60, 61
1, 448405, Note_on_c, 0, 76, 71
1, 448410, Note_off_c, 0, 77, 54
1, 448472, Note_off_c, 0, 76, 66
1, 448482, Note_on_c, 0, 73, 65
1, 448532, Note_off_c, 0, 73, 63
1, 448540, Note_on_c, 0, 64, 76
1, 448543, Note_on_c, 0, 72, 65
1, 448548, Note_off_c, 0, 67, 43
1, 448563, Note_off_c, 0, 64, 69
1, 448603, Note_off_c, 0, 72, 61
1, 448647, Note_on_c, 0, 84, 68
1, 448729, Note_on_c, 0, 65, 99
1, 448735, Note_on_c, 0, 53, 86
1, 448737, Note_on_c, 0, 82, 70
1, 448764, Control_c, 0, 64, 62
1, 448777, Note_off_c, 0, 84, 50
1, 448778, Control_c, 0, 64, 0
1, 448812, Note_off_c, 0, 82, 61
1, 448814, Note_off_c, 0, 65, 0
1, 448825, Note_on_c, 0, 81, 64
1, 448893, Poly_aftertouch_c, 0, 65, 0
1, 448905, Note_off_c, 0, 53, 38
1, 448913, Note_on_c, 0, 62, 67
1, 448917, Note_off_c, 0, 81, 58
1, 448918, Note_on_c, 0, 78, 65
1, 448921, Note_on_c, 0, 58, 65
1, 448942, Note_off_c, 0, 62, 64
1, 448948, Note_off_c, 0, 58, 67
1, 448981, Note_off_c, 0, 78, 54
1, 449011, Note_on_c, 0, 77, 66
1, 449056, Note_off_c, 0, 77, 60
1, 449119, Note_on_c, 0, 64, 98
1, 449121, Note_on_c, 0, 81, 79
1, 449124, Note_on_c, 0, 52, 91
1, 449134, Control_c, 0, 64, 53
1, 449149, Control_c, 0, 64, 57
1, 449164, Control_c, 0, 64, 0
1, 449217, Note_on_c, 0, 80, 69
1, 449240, Note_off_c, 0, 81, 51
1, 449263, Note_off_c, 0, 64, 45
1, 449264, Note_off_c, 0, 52, 38
1, 449287, Note_on_c, 0, 60, 61
1, 449295, Note_on_c, 0, 57, 60
1, 449304, Note_on_c, 0, 77, 69
1, 449316, Note_off_c, 0, 60, 64
1, 449318, Note_off_c, 0, 57, 63
1, 449330, Note_off_c, 0, 80, 61
1, 449396, Note_off_c, 0, 77, 55
1, 449404, Note_on_c, 0, 76, 65
1, 449454, Note_off_c, 0, 76, 62
1, 449494, Note_on_c, 0, 62, 99
1, 449500, Note_on_c, 0, 50, 90
1, 449506, Note_on_c, 0, 79, 77
1, 449514, Control_c, 0, 64, 68
1, 449528, Control_c, 0, 64, 66
1, 449535, Note_on_c, 0, 60, 34
1, 449536, Note_off_c, 0, 60, 127
1, 449543, Control_c, 0, 64, 59
1, 449558, Control_c, 0, 64, 47
1, 449573, Control_c, 0, 64, 47
1, 449588, Control_c, 0, 64, 49
1, 449595, Note_on_c, 0, 77, 70
1, 449603, Control_c, 0, 64, 48
1, 449611, Note_off_c, 0, 79, 49
1, 449617, Control_c, 0, 64, 47
1, 449624, Note_off_c, 0, 50, 53
1, 449632, Control_c, 0, 64, 44
1, 449647, Control_c, 0, 64, 19
1, 449657, Note_off_c, 0, 62, 35
1, 449661, Control_c, 0, 64, 0
1, 449681, Note_on_c, 0, 56, 67
1, 449687, Note_on_c, 0, 52, 64
1, 449689, Note_on_c, 0, 74, 68
1, 449693, Note_off_c, 0, 77, 61
1, 449709, Note_off_c, 0, 56, 65
1, 449717, Note_off_c, 0, 52, 67
1, 449741, Note_off_c, 0, 74, 61
1, 449786, Note_on_c, 0, 71, 64
1, 449826, Note_off_c, 0, 71, 54
1, 449879, Note_on_c, 0, 71, 60
1, 449880, Note_on_c, 0, 57, 101
1, 449884, Note_on_c, 0, 45, 99
1, 449914, Control_c, 0, 64, 32
1, 449928, Note_off_c, 0, 71, 55
1, 449928, Control_c, 0, 64, 69
1, 449943, Control_c, 0, 64, 65
1, 449958, Control_c, 0, 64, 50
1, 449973, Control_c, 0, 64, 0
1, 449980, Note_on_c, 0, 74, 67
1, 450047, Control_c, 0, 64, 21
1, 450048, Note_off_c, 0, 45, 64
1, 450057, Note_off_c, 0, 57, 62
1, 450059, Note_on_c, 0, 49, 71
1, 450061, Control_c, 0, 64, 26
1, 450075, Note_off_c, 0, 74, 63
1, 450078, Note_off_c, 0, 49, 62
1, 450084, Note_on_c, 0, 76, 61
1, 450091, Control_c, 0, 64, 25
1, 450102, Note_off_c, 0, 76, 67
1, 450106, Control_c, 0, 64, 22
1, 450121, Control_c, 0, 64, 19
1, 450158, Control_c, 0, 64, 24
1, 450173, Control_c, 0, 64, 19
1, 450187, Note_on_c, 0, 88, 82
1, 450188, Control_c, 0, 64, 0
1, 450275, Note_on_c, 0, 69, 102
1, 450284, Note_on_c, 0, 57, 92
1, 450288, Note_on_c, 0, 86, 78
1, 450314, Note_off_c, 0, 57, 61
1, 450322, Note_off_c, 0, 88, 56
1, 450389, Note_on_c, 0, 85, 68
1, 450434, Note_off_c, 0, 86, 56
1, 450478, Note_on_c, 0, 82, 71
1, 450489, Note_on_c, 0, 61, 78
1, 450504, Note_off_c, 0, 85, 63
1, 450514, Note_off_c, 0, 61, 65
1, 450535, Note_off_c, 0, 82, 60
1, 450561, Note_on_c, 0, 81, 70
1, 450615, Note_off_c, 0, 69, 0
1, 450615, Note_on_c, 0, 69, 4
1, 450641, Note_off_c, 0, 81, 40
1, 450659, Note_on_c, 0, 80, 65
1, 450671, Note_on_c, 0, 62, 79
1, 450675, Note_off_c, 0, 80, 65
1, 450699, Note_off_c, 0, 62, 61
1, 450717, Note_on_c, 0, 77, 74
1, 450786, Note_off_c, 0, 77, 61
1, 450791, Note_on_c, 0, 76, 64
1, 450803, Note_off_c, 0, 69, 42
1, 450832, Note_off_c, 0, 76, 61
1, 450843, Note_on_c, 0, 65, 71
1, 450860, Note_off_c, 0, 65, 68
1, 450866, Note_on_c, 0, 74, 63
1, 450923, Note_off_c, 0, 74, 63
1, 450957, Note_on_c, 0, 86, 72
1, 450999, Note_off_c, 0, 86, 59
1, 451046, Note_on_c, 0, 67, 100
1, 451054, Note_on_c, 0, 55, 85
1, 451055, Control_c, 0, 64, 29
1, 451057, Note_on_c, 0, 84, 83
1, 451070, Control_c, 0, 64, 64
1, 451084, Control_c, 0, 64, 33
1, 451088, Note_on_c, 0, 65, 34
1, 451089, Note_off_c, 0, 65, 127
1, 451099, Control_c, 0, 64, 0
1, 451140, Note_on_c, 0, 83, 68
1, 451145, Note_off_c, 0, 84, 56
1, 451210, Note_off_c, 0, 55, 51
1, 451234, Note_on_c, 0, 80, 67
1, 451243, Note_off_c, 0, 83, 57
1, 451245, Note_on_c, 0, 59, 61
1, 451277, Note_off_c, 0, 59, 63
1, 451297, Note_off_c, 0, 80, 63
1, 451319, Note_on_c, 0, 79, 65
1, 451366, Note_off_c, 0, 79, 60
1, 451422, Note_on_c, 0, 77, 72
1, 451428, Note_on_c, 0, 60, 63
1, 451464, Note_off_c, 0, 60, 58
1, 451473, Note_on_c, 0, 76, 69
1, 451481, Note_off_c, 0, 77, 56
1, 451532, Note_off_c, 0, 76, 67
1, 451545, Note_on_c, 0, 73, 59
1, 451575, Note_off_c, 0, 67, 35
1, 451587, Note_off_c, 0, 73, 55
1, 451592, Note_on_c, 0, 64, 69
1, 451601, Note_on_c, 0, 72, 68
1, 451628, Note_off_c, 0, 64, 66
1, 451663, Note_off_c, 0, 72, 58
1, 451708, Note_on_c, 0, 84, 68
1, 451759, Note_off_c, 0, 84, 52
1, 451792, Note_on_c, 0, 65, 101
1, 451796, Note_on_c, 0, 53, 90
1, 451801, Note_on_c, 0, 82, 73
1, 451861, Poly_aftertouch_c, 0, 84, 0
1, 451875, Note_off_c, 0, 82, 60
1, 451888, Note_on_c, 0, 81, 70
1, 451924, Note_off_c, 0, 53, 51
1, 451926, Note_off_c, 0, 65, 51
1, 451976, Note_on_c, 0, 78, 67
1, 451981, Note_off_c, 0, 81, 55
1, 451983, Note_on_c, 0, 62, 63
1, 451985, Note_on_c, 0, 58, 62
1, 452003, Note_off_c, 0, 62, 64
1, 452013, Note_off_c, 0, 58, 67
1, 452052, Note_off_c, 0, 78, 52
1, 452070, Note_on_c, 0, 77, 66
1, 452118, Note_off_c, 0, 77, 60
1, 452178, Note_on_c, 0, 81, 76
1, 452191, Note_on_c, 0, 64, 97
1, 452197, Note_on_c, 0, 52, 92
1, 452283, Note_on_c, 0, 80, 68
1, 452313, Note_off_c, 0, 81, 52
1, 452316, Note_off_c, 0, 52, 50
1, 452327, Note_off_c, 0, 64, 49
1, 452379, Note_on_c, 0, 77, 68
1, 452382, Note_on_c, 0, 60, 71
1, 452386, Note_on_c, 0, 57, 60
1, 452409, Note_off_c, 0, 60, 67
1, 452411, Note_off_c, 0, 80, 60
1, 452414, Note_off_c, 0, 57, 63
1, 452479, Note_off_c, 0, 77, 59
1, 452489, Note_on_c, 0, 76, 61
1, 452544, Note_off_c, 0, 76, 62
1, 452590, Note_on_c, 0, 62, 100
1, 452595, Note_on_c, 0, 50, 94
1, 452600, Note_on_c, 0, 79, 83
1, 452614, Note_off_c, 0, 50, 73
1, 452622, Note_off_c, 0, 62, 65
1, 452697, Note_on_c, 0, 77, 74
1, 452719, Note_off_c, 0, 79, 56
1, 452785, Note_on_c, 0, 74, 65
1, 452788, Note_off_c, 0, 77, 61
1, 452815, Note_off_c, 0, 74, 65
1, 452873, Note_on_c, 0, 71, 65
1, 452923, Note_off_c, 0, 71, 52
1, 452924, Control_c, 0, 67, 8
1, 452939, Control_c, 0, 67, 11
1, 452953, Control_c, 0, 67, 15
1, 452965, Note_on_c, 0, 52, 83
1, 452966, Note_on_c, 0, 59, 85
1, 452968, Control_c, 0, 67, 21
1, 452980, Note_on_c, 0, 68, 70
1, 452983, Control_c, 0, 67, 28
1, 452985, Note_off_c, 0, 59, 71
1, 452996, Note_off_c, 0, 52, 69
1, 452998, Control_c, 0, 67, 34
1, 453013, Control_c, 0, 67, 40
1, 453027, Control_c, 0, 67, 45
1, 453042, Control_c, 0, 67, 52
1, 453057, Note_on_c, 0, 65, 70
1, 453057, Control_c, 0, 67, 59
1, 453071, Control_c, 0, 67, 66
1, 453075, Note_off_c, 0, 68, 56
1, 453086, Control_c, 0, 67, 72
1, 453101, Control_c, 0, 67, 76
1, 453116, Control_c, 0, 67, 79
1, 453139, Control_c, 0, 67, 82
1, 453146, Note_off_c, 0, 65, 63
1, 453151, Note_on_c, 0, 62, 66
1, 453153, Control_c, 0, 67, 85
1, 453168, Control_c, 0, 67, 89
1, 453183, Control_c, 0, 67, 94
1, 453189, Note_off_c, 0, 62, 60
1, 453198, Control_c, 0, 67, 99
1, 453212, Control_c, 0, 67, 103
1, 453227, Control_c, 0, 67, 106
1, 453237, Note_on_c, 0, 59, 69
1, 453242, Control_c, 0, 67, 107
1, 453267, Note_off_c, 0, 59, 64
1, 453331, Control_c, 0, 67, 107
1, 453335, Note_on_c, 0, 52, 98
1, 453337, Note_on_c, 0, 45, 84
1, 453346, Control_c, 0, 67, 108
1, 453363, Note_off_c, 0, 45, 69
1, 453374, Note_off_c, 0, 52, 65
1, 453403, Note_on_c, 0, 59, 76
1, 453419, Control_c, 0, 67, 107
1, 453428, Note_off_c, 0, 59, 68
1, 453434, Control_c, 0, 67, 106
1, 453449, Control_c, 0, 67, 106
1, 453515, Note_on_c, 0, 59, 75
1, 453539, Note_on_c, 0, 62, 22
1, 453539, Note_off_c, 0, 59, 67
1, 453554, Control_c, 0, 67, 105
1, 453568, Control_c, 0, 67, 105
1, 453578, Note_off_c, 0, 62, 31
1, 453587, Note_on_c, 0, 57, 61
1, 453592, Note_on_c, 0, 63, 78
1, 453621, Note_off_c, 0, 57, 63
1, 453631, Note_off_c, 0, 63, 61
1, 453673, Control_c, 0, 67, 104
1, 453676, Note_on_c, 0, 59, 85
1, 453681, Note_on_c, 0, 64, 84
1, 453682, Note_on_c, 0, 52, 77
1, 453688, Control_c, 0, 67, 103
1, 453688, Note_on_c, 0, 56, 76
1, 453699, Note_off_c, 0, 52, 69
1, 453702, Control_c, 0, 64, 36
1, 453702, Control_c, 0, 67, 102
1, 453705, Note_off_c, 0, 59, 66
1, 453712, Note_off_c, 0, 56, 66
1, 453716, Note_off_c, 0, 64, 65
1, 453717, Control_c, 0, 64, 40
1, 453717, Control_c, 0, 67, 101
1, 453732, Control_c, 0, 64, 40
1, 453732, Control_c, 0, 67, 101
1, 453739, Note_on_c, 0, 54, 3
1, 453747, Control_c, 0, 64, 41
1, 453747, Control_c, 0, 67, 100
1, 453762, Control_c, 0, 64, 41
1, 453762, Control_c, 0, 67, 99
1, 453774, Note_off_c, 0, 54, 31
1, 453776, Control_c, 0, 64, 41
1, 453776, Control_c, 0, 67, 98
1, 453783, Note_on_c, 0, 68, 77
1, 453791, Control_c, 0, 64, 40
1, 453791, Control_c, 0, 67, 98
1, 453806, Control_c, 0, 64, 39
1, 453806, Control_c, 0, 67, 97
1, 453807, Note_off_c, 0, 68, 62
1, 453820, Control_c, 0, 64, 39
1, 453820, Control_c, 0, 67, 95
1, 453835, Control_c, 0, 67, 94
1, 453850, Control_c, 0, 64, 38
1, 453850, Control_c, 0, 67, 92
1, 453855, Note_on_c, 0, 69, 82
1, 453865, Control_c, 0, 64, 36
1, 453887, Control_c, 0, 64, 32
1, 453887, Control_c, 0, 67, 92
1, 453902, Control_c, 0, 64, 19
1, 453903, Note_on_c, 0, 68, 21
1, 453917, Control_c, 0, 64, 0
1, 453919, Note_off_c, 0, 69, 65
1, 453932, Note_on_c, 0, 62, 64
1, 453939, Note_off_c, 0, 68, 31
1, 453957, Note_off_c, 0, 62, 66
1, 453962, Control_c, 0, 67, 91
1, 453976, Control_c, 0, 67, 90
1, 453977, Note_on_c, 0, 71, 46
1, 453991, Control_c, 0, 67, 87
1, 454004, Note_off_c, 0, 71, 0
1, 454006, Control_c, 0, 67, 83
1, 454018, Note_on_c, 0, 71, 50
1, 454021, Control_c, 0, 67, 77
1, 454027, Note_on_c, 0, 57, 79
1, 454030, Note_on_c, 0, 64, 77
1, 454034, Note_on_c, 0, 69, 67
1, 454035, Control_c, 0, 67, 68
1, 454042, Note_off_c, 0, 71, 65
1, 454050, Control_c, 0, 64, 42
1, 454050, Control_c, 0, 67, 51
1, 454052, Note_off_c, 0, 69, 64
1, 454062, Note_off_c, 0, 57, 62
1, 454065, Control_c, 0, 64, 48
1, 454065, Control_c, 0, 67, 30
1, 454066, Note_off_c, 0, 64, 61
1, 454080, Control_c, 0, 64, 49
1, 454080, Control_c, 0, 67, 0
1, 454095, Control_c, 0, 64, 54
1, 454109, Control_c, 0, 64, 59
1, 454122, Note_on_c, 0, 72, 89
1, 454124, Control_c, 0, 64, 60
1, 454139, Control_c, 0, 64, 60
1, 454147, Note_off_c, 0, 72, 67
1, 454154, Control_c, 0, 64, 59
1, 454169, Control_c, 0, 64, 59
1, 454183, Control_c, 0, 64, 58
1, 454198, Control_c, 0, 64, 57
1, 454212, Note_on_c, 0, 74, 77
1, 454213, Control_c, 0, 64, 54
1, 454218, Note_on_c, 0, 71, 65
1, 454227, Control_c, 0, 64, 44
1, 454234, Note_off_c, 0, 74, 69
1, 454236, Note_off_c, 0, 71, 64
1, 454242, Control_c, 0, 64, 0
1, 454289, Note_on_c, 0, 69, 66
1, 454308, Note_on_c, 0, 75, 71
1, 454314, Note_off_c, 0, 69, 69
1, 454358, Note_on_c, 0, 76, 86
1, 454362, Control_c, 0, 64, 37
1, 454371, Note_on_c, 0, 64, 80
1, 454377, Control_c, 0, 64, 54
1, 454379, Note_off_c, 0, 75, 65
1, 454386, Note_on_c, 0, 71, 76
1, 454387, Note_off_c, 0, 76, 71
1, 454388, Note_on_c, 0, 68, 21
1, 454391, Control_c, 0, 64, 56
1, 454395, Note_off_c, 0, 64, 70
1, 454415, Note_off_c, 0, 71, 61
1, 454421, Control_c, 0, 64, 57
1, 454430, Note_off_c, 0, 68, 31
1, 454452, Note_on_c, 0, 80, 89
1, 454460, Note_on_c, 0, 66, 12
1, 454461, Note_off_c, 0, 66, 127
1, 454466, Control_c, 0, 64, 56
1, 454469, Note_off_c, 0, 80, 74
1, 454495, Control_c, 0, 64, 56
1, 454532, Note_on_c, 0, 81, 86
1, 454540, Note_on_c, 0, 75, 79
1, 454540, Control_c, 0, 64, 54
1, 454555, Control_c, 0, 64, 49
1, 454561, Note_off_c, 0, 75, 72
1, 454570, Control_c, 0, 64, 36
1, 454585, Control_c, 0, 64, 0
1, 454591, Note_on_c, 0, 83, 77
1, 454609, Note_on_c, 0, 74, 82
1, 454632, Note_off_c, 0, 81, 63
1, 454639, Note_off_c, 0, 74, 68
1, 454644, Note_off_c, 0, 83, 62
1, 454695, Note_on_c, 0, 57, 83
1, 454699, Note_on_c, 0, 64, 80
1, 454699, Note_on_c, 0, 84, 103
1, 454704, Note_on_c, 0, 81, 92
1, 454722, Note_off_c, 0, 57, 65
1, 454725, Control_c, 0, 64, 58
1, 454732, Note_off_c, 0, 84, 70
1, 454733, Note_off_c, 0, 81, 64
1, 454740, Note_off_c, 0, 64, 64
1, 454740, Control_c, 0, 64, 60
1, 454755, Control_c, 0, 64, 61
1, 454770, Control_c, 0, 64, 62
1, 454781, Note_on_c, 0, 72, 84
1, 454785, Control_c, 0, 64, 62
1, 454799, Control_c, 0, 64, 63
1, 454799, Note_off_c, 0, 72, 73
1, 454873, Control_c, 0, 64, 62
1, 454877, Note_on_c, 0, 71, 69
1, 454880, Note_on_c, 0, 74, 68
1, 454888, Control_c, 0, 64, 62
1, 454903, Control_c, 0, 64, 61
1, 454904, Note_off_c, 0, 71, 64
1, 454904, Note_off_c, 0, 74, 70
1, 454918, Control_c, 0, 64, 59
1, 454932, Control_c, 0, 64, 51
1, 454947, Control_c, 0, 64, 0
1, 454957, Note_on_c, 0, 69, 73
1, 454965, Note_on_c, 0, 75, 80
1, 454987, Note_off_c, 0, 69, 68
1, 454997, Note_off_c, 0, 75, 59
1, 455030, Note_on_c, 0, 64, 84
1, 455034, Note_on_c, 0, 71, 82
1, 455038, Note_on_c, 0, 76, 87
1, 455050, Control_c, 0, 64, 57
1, 455053, Note_off_c, 0, 64, 71
1, 455055, Note_off_c, 0, 76, 75
1, 455059, Note_off_c, 0, 71, 64
1, 455065, Control_c, 0, 64, 61
1, 455080, Control_c, 0, 64, 62
1, 455096, Control_c, 0, 64, 63
1, 455111, Control_c, 0, 64, 63
1, 455115, Note_on_c, 0, 80, 91
1, 455141, Control_c, 0, 64, 64
1, 455142, Note_off_c, 0, 80, 68
1, 455194, Note_on_c, 0, 81, 85
1, 455205, Note_on_c, 0, 75, 73
1, 455214, Control_c, 0, 64, 63
1, 455228, Note_off_c, 0, 75, 70
1, 455229, Control_c, 0, 64, 59
1, 455244, Control_c, 0, 64, 34
1, 455246, Note_off_c, 0, 81, 61
1, 455259, Control_c, 0, 64, 0
1, 455272, Note_on_c, 0, 74, 73
1, 455291, Note_off_c, 0, 74, 68
1, 455314, Note_on_c, 0, 84, 40
1, 455321, Note_on_c, 0, 83, 29
1, 455343, Note_off_c, 0, 84, 0
1, 455343, Note_on_c, 0, 84, 35
1, 455357, Note_on_c, 0, 81, 81
1, 455370, Note_off_c, 0, 83, 31
1, 455371, Note_on_c, 0, 69, 87
1, 455384, Note_on_c, 0, 76, 73
1, 455385, Control_c, 0, 64, 47
1, 455386, Note_off_c, 0, 84, 67
1, 455387, Note_off_c, 0, 81, 69
1, 455399, Control_c, 0, 64, 62
1, 455411, Note_off_c, 0, 69, 65
1, 455414, Control_c, 0, 64, 64
1, 455415, Note_off_c, 0, 76, 63
1, 455429, Control_c, 0, 64, 64
1, 455444, Control_c, 0, 64, 66
1, 455459, Control_c, 0, 64, 66
1, 455461, Note_on_c, 0, 84, 86
1, 455473, Control_c, 0, 64, 67
1, 455481, Note_off_c, 0, 84, 71
1, 455518, Control_c, 0, 64, 66
1, 455533, Control_c, 0, 64, 65
1, 455548, Control_c, 0, 64, 63
1, 455552, Note_on_c, 0, 86, 72
1, 455560, Note_on_c, 0, 83, 62
1, 455563, Control_c, 0, 64, 56
1, 455577, Control_c, 0, 64, 31
1, 455578, Note_off_c, 0, 83, 63
1, 455580, Note_off_c, 0, 86, 67
1, 455592, Control_c, 0, 64, 0
1, 455598, Note_on_c, 0, 81, 71
1, 455640, Note_on_c, 0, 87, 61
1, 455667, Note_off_c, 0, 81, 62
1, 455667, Note_off_c, 0, 87, 67
1, 455684, Note_on_c, 0, 86, 68
1, 455685, Note_on_c, 0, 88, 82
1, 455696, Control_c, 0, 64, 46
1, 455701, Note_on_c, 0, 76, 82
1, 455703, Note_off_c, 0, 88, 72
1, 455709, Note_off_c, 0, 86, 69
1, 455711, Control_c, 0, 64, 62
1, 455714, Note_on_c, 0, 83, 76
1, 455719, Note_off_c, 0, 76, 75
1, 455726, Control_c, 0, 64, 63
1, 455741, Control_c, 0, 64, 63
1, 455748, Note_off_c, 0, 83, 62
1, 455755, Control_c, 0, 64, 65
1, 455770, Control_c, 0, 64, 66
1, 455783, Note_on_c, 0, 92, 97
1, 455794, Note_on_c, 0, 82, 58
1, 455799, Note_off_c, 0, 92, 69
1, 455813, Note_off_c, 0, 82, 64
1, 455856, Note_on_c, 0, 93, 98
1, 455868, Note_on_c, 0, 87, 82
1, 455873, Control_c, 0, 64, 65
1, 455888, Control_c, 0, 64, 64
1, 455890, Note_off_c, 0, 87, 66
1, 455904, Control_c, 0, 64, 57
1, 455919, Control_c, 0, 64, 0
1, 455943, Note_on_c, 0, 86, 85
1, 456006, Note_on_c, 0, 76, 91
1, 456008, Control_c, 0, 64, 41
1, 456010, Note_on_c, 0, 69, 74
1, 456010, Note_on_c, 0, 97, 104
1, 456022, Control_c, 0, 64, 64
1, 456027, Note_off_c, 0, 86, 40
1, 456032, Note_off_c, 0, 93, 66
1, 456033, Note_off_c, 0, 69, 72
1, 456037, Control_c, 0, 64, 66
1, 456042, Note_off_c, 0, 76, 69
1, 456049, Note_off_c, 0, 97, 68
1, 456082, Control_c, 0, 64, 67
1, 456105, Note_on_c, 0, 85, 84
1, 456119, Control_c, 0, 64, 67
1, 456121, Note_on_c, 0, 73, 72
1, 456129, Note_off_c, 0, 85, 74
1, 456140, Note_off_c, 0, 73, 68
1, 456149, Control_c, 0, 64, 68
1, 456178, Control_c, 0, 64, 67
1, 456189, Note_on_c, 0, 86, 85
1, 456193, Control_c, 0, 64, 67
1, 456196, Note_on_c, 0, 80, 79
1, 456208, Control_c, 0, 64, 66
1, 456217, Note_off_c, 0, 80, 70
1, 456222, Control_c, 0, 64, 64
1, 456237, Control_c, 0, 64, 59
1, 456252, Control_c, 0, 64, 41
1, 456254, Note_on_c, 0, 88, 76
1, 456261, Note_on_c, 0, 79, 82
1, 456267, Control_c, 0, 64, 0
1, 456282, Note_off_c, 0, 86, 64
1, 456293, Note_off_c, 0, 88, 64
1, 456305, Note_off_c, 0, 79, 62
1, 456348, Note_on_c, 0, 69, 80
1, 456351, Note_on_c, 0, 62, 84
1, 456353, Note_on_c, 0, 89, 103
1, 456356, Note_on_c, 0, 86, 92
1, 456370, Control_c, 0, 64, 59
1, 456373, Note_off_c, 0, 62, 68
1, 456382, Note_off_c, 0, 69, 68
1, 456385, Control_c, 0, 64, 65
1, 456392, Note_off_c, 0, 89, 67
1, 456394, Note_off_c, 0, 86, 66
1, 456400, Control_c, 0, 64, 66
1, 456415, Control_c, 0, 64, 67
1, 456430, Control_c, 0, 64, 67
1, 456445, Note_on_c, 0, 77, 80
1, 456445, Control_c, 0, 64, 68
1, 456460, Control_c, 0, 64, 68
1, 456463, Note_off_c, 0, 77, 71
1, 456504, Control_c, 0, 64, 68
1, 456522, Note_on_c, 0, 81, 88
1, 456534, Control_c, 0, 64, 67
1, 456549, Control_c, 0, 64, 67
1, 456561, Note_off_c, 0, 81, 61
1, 456564, Control_c, 0, 64, 66
1, 456578, Control_c, 0, 64, 64
1, 456593, Control_c, 0, 64, 50
1, 456603, Note_on_c, 0, 80, 87
1, 456608, Control_c, 0, 64, 0
1, 456654, Note_off_c, 0, 80, 65
1, 456680, Note_on_c, 0, 67, 87
1, 456686, Note_on_c, 0, 79, 91
1, 456689, Note_on_c, 0, 74, 63
1, 456698, Control_c, 0, 64, 29
1, 456701, Note_off_c, 0, 79, 73
1, 456713, Control_c, 0, 64, 63
1, 456713, Note_off_c, 0, 67, 64
1, 456715, Note_off_c, 0, 74, 70
1, 456728, Control_c, 0, 64, 65
1, 456743, Control_c, 0, 64, 66
1, 456758, Control_c, 0, 64, 67
1, 456773, Control_c, 0, 64, 69
1, 456788, Control_c, 0, 64, 69
1, 456793, Note_on_c, 0, 83, 55
1, 456802, Control_c, 0, 64, 70
1, 456813, Note_off_c, 0, 83, 55
1, 456818, Note_on_c, 0, 84, 19
1, 456849, Note_off_c, 0, 84, 0
1, 456849, Note_on_c, 0, 84, 40
1, 456858, Note_on_c, 0, 78, 88
1, 456883, Control_c, 0, 64, 69
1, 456886, Note_off_c, 0, 78, 66
1, 456898, Control_c, 0, 64, 68
1, 456913, Control_c, 0, 64, 64
1, 456928, Control_c, 0, 64, 43
1, 456943, Control_c, 0, 64, 0
1, 456946, Note_on_c, 0, 88, 68
1, 456948, Note_on_c, 0, 86, 70
1, 456951, Note_on_c, 0, 77, 85
1, 456965, Note_off_c, 0, 88, 67
1, 456970, Note_off_c, 0, 84, 65
1, 456971, Note_off_c, 0, 86, 68
1, 456972, Note_off_c, 0, 77, 66
1, 457009, Note_on_c, 0, 67, 87
1, 457017, Note_on_c, 0, 60, 76
1, 457017, Note_on_c, 0, 88, 100
1, 457018, Note_on_c, 0, 84, 81
1, 457027, Note_on_c, 0, 79, 84
1, 457032, Control_c, 0, 64, 59
1, 457033, Note_off_c, 0, 60, 67
1, 457044, Note_off_c, 0, 67, 63
1, 457046, Control_c, 0, 64, 65
1, 457048, Note_off_c, 0, 88, 64
1, 457053, Note_off_c, 0, 79, 60
1, 457061, Control_c, 0, 64, 65
1, 457063, Note_off_c, 0, 84, 66
1, 457076, Control_c, 0, 64, 66
1, 457091, Control_c, 0, 64, 66
1, 457104, Note_on_c, 0, 76, 73
1, 457106, Control_c, 0, 64, 67
1, 457128, Note_off_c, 0, 76, 69
1, 457190, Note_on_c, 0, 79, 76
1, 457194, Control_c, 0, 64, 66
1, 457209, Control_c, 0, 64, 65
1, 457224, Control_c, 0, 64, 62
1, 457235, Note_off_c, 0, 79, 61
1, 457238, Control_c, 0, 64, 45
1, 457253, Control_c, 0, 64, 0
1, 457254, Note_on_c, 0, 78, 81
1, 457303, Note_off_c, 0, 78, 63
1, 457332, Note_on_c, 0, 62, 81
1, 457333, Note_on_c, 0, 70, 87
1, 457342, Note_on_c, 0, 79, 82
1, 457342, Control_c, 0, 64, 59
1, 457345, Note_on_c, 0, 74, 74
1, 457355, Note_off_c, 0, 62, 69
1, 457357, Control_c, 0, 64, 69
1, 457360, Note_off_c, 0, 79, 71
1, 457361, Note_off_c, 0, 74, 70
1, 457364, Note_off_c, 0, 70, 63
1, 457372, Control_c, 0, 64, 73
1, 457387, Control_c, 0, 64, 76
1, 457402, Control_c, 0, 64, 78
1, 457408, Note_on_c, 0, 77, 79
1, 457417, Control_c, 0, 64, 78
1, 457456, Note_off_c, 0, 77, 63
1, 457461, Control_c, 0, 64, 78
1, 457476, Control_c, 0, 64, 77
1, 457491, Control_c, 0, 64, 76
1, 457505, Note_on_c, 0, 77, 70
1, 457506, Control_c, 0, 64, 74
1, 457507, Note_on_c, 0, 84, 79
1, 457521, Control_c, 0, 64, 69
1, 457536, Control_c, 0, 64, 56
1, 457551, Control_c, 0, 64, 0
1, 457556, Note_off_c, 0, 77, 0
1, 457556, Note_on_c, 0, 77, 34
1, 457580, Note_on_c, 0, 74, 76
1, 457580, Note_on_c, 0, 82, 85
1, 457595, Note_off_c, 0, 84, 65
1, 457602, Note_off_c, 0, 74, 68
1, 457622, Note_off_c, 0, 77, 62
1, 457628, Note_off_c, 0, 82, 64
1, 457647, Control_c, 0, 64, 49
1, 457662, Control_c, 0, 64, 66
1, 457664, Note_on_c, 0, 69, 105
1, 457667, Note_on_c, 0, 60, 88
1, 457676, Control_c, 0, 64, 70
1, 457684, Note_off_c, 0, 60, 72
1, 457691, Control_c, 0, 64, 73
1, 457693, Note_off_c, 0, 69, 71
1, 457706, Control_c, 0, 64, 74
1, 457721, Control_c, 0, 64, 75
1, 457736, Control_c, 0, 64, 76
1, 457748, Note_on_c, 0, 76, 87
1, 457765, Control_c, 0, 64, 76
1, 457781, Note_off_c, 0, 76, 68
1, 457824, Note_on_c, 0, 77, 78
1, 457828, Note_on_c, 0, 82, 77
1, 457855, Control_c, 0, 64, 76
1, 457869, Control_c, 0, 64, 75
1, 457884, Control_c, 0, 64, 73
1, 457887, Note_off_c, 0, 82, 63
1, 457891, Note_on_c, 0, 74, 75
1, 457899, Control_c, 0, 64, 69
1, 457900, Note_off_c, 0, 77, 60
1, 457914, Control_c, 0, 64, 56
1, 457929, Control_c, 0, 64, 0
1, 457941, Note_off_c, 0, 74, 64
1, 457984, Note_on_c, 0, 65, 59
1, 457985, Note_on_c, 0, 81, 94
1, 457994, Note_on_c, 0, 77, 78
1, 457995, Note_on_c, 0, 59, 54
1, 458013, Note_off_c, 0, 65, 68
1, 458021, Note_off_c, 0, 77, 63
1, 458028, Note_off_c, 0, 59, 61
1, 458053, Note_off_c, 0, 81, 61
1, 458058, Note_on_c, 0, 69, 48
1, 458075, Note_on_c, 0, 74, 66
1, 458081, Note_off_c, 0, 69, 55
1, 458114, Note_off_c, 0, 74, 63
1, 458152, Note_on_c, 0, 52, 74
1, 458163, Note_on_c, 0, 80, 75
1, 458165, Note_on_c, 0, 76, 74
1, 458168, Note_on_c, 0, 59, 47
1, 458180, Note_off_c, 0, 52, 69
1, 458191, Note_off_c, 0, 76, 66
1, 458195, Note_off_c, 0, 59, 61
1, 458222, Note_on_c, 0, 64, 60
1, 458225, Note_off_c, 0, 80, 62
1, 458237, Note_on_c, 0, 71, 76
1, 458244, Note_off_c, 0, 64, 66
1, 458264, Note_off_c, 0, 71, 63
1, 458319, Note_on_c, 0, 64, 105
1, 458323, Note_on_c, 0, 81, 104
1, 458323, Note_on_c, 0, 57, 95
1, 458328, Control_c, 0, 64, 60
1, 458332, Note_on_c, 0, 72, 90
1, 458343, Control_c, 0, 64, 111
1, 458365, Control_c, 0, 64, 127
1, 458368, Note_off_c, 0, 72, 61
1, 458420, Note_on_c, 0, 76, 84
1, 458434, Note_off_c, 0, 81, 51
1, 458435, Note_off_c, 0, 64, 57
1, 458481, Note_on_c, 0, 69, 69
1, 458502, Note_off_c, 0, 57, 46
1, 458508, Note_on_c, 0, 72, 81
1, 458514, Note_off_c, 0, 76, 66
1, 458522, Note_off_c, 0, 69, 54
1, 458567, Note_off_c, 0, 72, 61
1, 458571, Note_on_c, 0, 69, 79
1, 458613, Note_off_c, 0, 69, 66
1, 458639, Note_on_c, 0, 64, 98
1, 458648, Note_on_c, 0, 57, 79
1, 458668, Note_on_c, 0, 59, 37
1, 458669, Note_off_c, 0, 57, 64
1, 458675, Note_off_c, 0, 64, 63
1, 458690, Control_c, 0, 64, 120
1, 458698, Note_off_c, 0, 59, 59
1, 458705, Control_c, 0, 64, 108
1, 458720, Control_c, 0, 64, 100
1, 458732, Note_on_c, 0, 73, 85
1, 458735, Control_c, 0, 64, 93
1, 458737, Note_on_c, 0, 61, 72
1, 458750, Note_off_c, 0, 73, 71
1, 458750, Control_c, 0, 64, 87
1, 458762, Note_off_c, 0, 61, 64
1, 458764, Control_c, 0, 64, 83
1, 458779, Control_c, 0, 64, 80
1, 458794, Control_c, 0, 64, 77
1, 458802, Note_on_c, 0, 74, 84
1, 458809, Control_c, 0, 64, 76
1, 458810, Note_on_c, 0, 68, 82
1, 458824, Control_c, 0, 64, 75
1, 458834, Poly_aftertouch_c, 0, 70, 0
1, 458839, Control_c, 0, 64, 75
1, 458842, Note_off_c, 0, 68, 61
1, 458853, Control_c, 0, 64, 73
1, 458868, Control_c, 0, 64, 69
1, 458883, Note_on_c, 0, 67, 88
1, 458883, Control_c, 0, 64, 53
1, 458898, Control_c, 0, 64, 0
1, 458908, Note_off_c, 0, 74, 65
1, 458920, Note_on_c, 0, 76, 13
1, 458924, Note_on_c, 0, 77, 6
1, 458926, Note_off_c, 0, 67, 64
1, 458946, Note_on_c, 0, 57, 38
1, 458955, Note_off_c, 0, 76, 31
1, 458958, Control_c, 0, 64, 41
1, 458964, Note_on_c, 0, 50, 84
1, 458967, Note_off_c, 0, 77, 0
1, 458967, Note_on_c, 0, 77, 46
1, 458971, Note_on_c, 0, 74, 90
1, 458973, Control_c, 0, 64, 67
1, 458986, Note_off_c, 0, 50, 67
1, 458988, Control_c, 0, 64, 71
1, 458998, Note_off_c, 0, 57, 64
1, 459003, Control_c, 0, 64, 72
1, 459013, Note_off_c, 0, 77, 62
1, 459017, Note_off_c, 0, 74, 68
1, 459032, Control_c, 0, 64, 73
1, 459054, Note_on_c, 0, 65, 81
1, 459062, Control_c, 0, 64, 73
1, 459077, Control_c, 0, 64, 74
1, 459085, Note_off_c, 0, 65, 67
1, 459092, Control_c, 0, 64, 75
1, 459114, Control_c, 0, 64, 76
1, 459174, Control_c, 0, 64, 76
1, 459176, Note_on_c, 0, 69, 72
1, 459188, Control_c, 0, 64, 73
1, 459202, Note_off_c, 0, 69, 68
1, 459203, Control_c, 0, 64, 67
1, 459217, Note_on_c, 0, 68, 79
1, 459218, Control_c, 0, 64, 26
1, 459233, Control_c, 0, 64, 0
1, 459283, Note_on_c, 0, 62, 79
1, 459285, Note_on_c, 0, 55, 81
1, 459289, Note_on_c, 0, 69, 89
1, 459292, Note_off_c, 0, 68, 59
1, 459292, Control_c, 0, 64, 52
1, 459307, Note_off_c, 0, 69, 76
1, 459307, Control_c, 0, 64, 65
1, 459313, Note_off_c, 0, 55, 66
1, 459315, Note_off_c, 0, 62, 66
1, 459320, Note_on_c, 0, 67, 30
1, 459321, Control_c, 0, 64, 68
1, 459336, Control_c, 0, 64, 70
1, 459351, Control_c, 0, 64, 72
1, 459354, Note_off_c, 0, 67, 38
1, 459366, Control_c, 0, 64, 73
1, 459369, Note_on_c, 0, 71, 83
1, 459381, Control_c, 0, 64, 74
1, 459388, Note_off_c, 0, 71, 70
1, 459396, Control_c, 0, 64, 75
1, 459409, Note_on_c, 0, 69, 44
1, 459411, Control_c, 0, 64, 75
1, 459426, Control_c, 0, 64, 76
1, 459429, Note_off_c, 0, 69, 59
1, 459440, Control_c, 0, 64, 77
1, 459445, Note_on_c, 0, 72, 93
1, 459447, Note_on_c, 0, 66, 87
1, 459455, Control_c, 0, 64, 77
1, 459471, Note_off_c, 0, 66, 69
1, 459514, Control_c, 0, 64, 77
1, 459522, Note_on_c, 0, 65, 95
1, 459529, Control_c, 0, 64, 75
1, 459541, Note_off_c, 0, 72, 65
1, 459544, Control_c, 0, 64, 68
1, 459552, Note_off_c, 0, 65, 67
1, 459559, Control_c, 0, 64, 0
1, 459593, Note_on_c, 0, 76, 12
1, 459595, Note_on_c, 0, 55, 81
1, 459600, Note_on_c, 0, 48, 86
1, 459602, Note_on_c, 0, 72, 92
1, 459605, Note_on_c, 0, 67, 98
1, 459622, Note_off_c, 0, 48, 68
1, 459633, Control_c, 0, 64, 61
1, 459637, Note_off_c, 0, 55, 65
1, 459639, Note_off_c, 0, 76, 66
1, 459647, Control_c, 0, 64, 68
1, 459648, Note_off_c, 0, 67, 64
1, 459649, Note_off_c, 0, 72, 65
1, 459662, Control_c, 0, 64, 72
1, 459677, Control_c, 0, 64, 75
1, 459690, Note_on_c, 0, 64, 76
1, 459692, Control_c, 0, 64, 77
1, 459707, Control_c, 0, 64, 77
1, 459715, Note_off_c, 0, 64, 67
1, 459770, Note_on_c, 0, 67, 80
1, 459810, Control_c, 0, 64, 75
1, 459814, Note_off_c, 0, 67, 50
1, 459825, Control_c, 0, 64, 69
1, 459840, Control_c, 0, 64, 22
1, 459852, Note_on_c, 0, 65, 75
1, 459855, Control_c, 0, 64, 0
1, 459888, Note_off_c, 0, 65, 67
1, 459923, Note_on_c, 0, 58, 86
1, 459925, Note_on_c, 0, 50, 84
1, 459933, Note_on_c, 0, 62, 86
1, 459937, Control_c, 0, 64, 64
1, 459938, Note_on_c, 0, 67, 84
1, 459950, Note_off_c, 0, 50, 69
1, 459952, Control_c, 0, 64, 68
1, 459953, Note_off_c, 0, 62, 70
1, 459956, Note_off_c, 0, 67, 71
1, 459967, Control_c, 0, 64, 71
1, 459968, Note_off_c, 0, 58, 65
1, 459982, Control_c, 0, 64, 74
1, 459997, Control_c, 0, 64, 77
1, 460001, Poly_aftertouch_c, 0, 55, 127
1, 460011, Control_c, 0, 64, 78
1, 460015, Note_on_c, 0, 65, 85
1, 460024, Poly_aftertouch_c, 0, 55, 0
1, 460046, Note_off_c, 0, 65, 67
1, 460087, Note_on_c, 0, 65, 76
1, 460096, Note_on_c, 0, 72, 79
1, 460144, Control_c, 0, 64, 77
1, 460159, Control_c, 0, 64, 75
1, 460165, Note_on_c, 0, 70, 87
1, 460169, Note_on_c, 0, 62, 83
1, 460174, Control_c, 0, 64, 67
1, 460186, Note_off_c, 0, 72, 63
1, 460187, Note_off_c, 0, 65, 61
1, 460189, Control_c, 0, 64, 0
1, 460205, Note_off_c, 0, 62, 60
1, 460226, Note_off_c, 0, 70, 61
1, 460244, Note_on_c, 0, 57, 95
1, 460247, Note_on_c, 0, 48, 91
1, 460269, Note_off_c, 0, 48, 69
1, 460278, Control_c, 0, 64, 62
1, 460284, Note_off_c, 0, 57, 66
1, 460293, Control_c, 0, 64, 67
1, 460308, Control_c, 0, 64, 69
1, 460323, Control_c, 0, 64, 70
1, 460337, Control_c, 0, 64, 72
1, 460343, Note_on_c, 0, 64, 78
1, 460352, Control_c, 0, 64, 74
1, 460367, Control_c, 0, 64, 75
1, 460368, Note_off_c, 0, 64, 70
1, 460382, Control_c, 0, 64, 76
1, 460410, Note_on_c, 0, 65, 72
1, 460413, Note_on_c, 0, 70, 73
1, 460426, Control_c, 0, 64, 77
1, 460456, Control_c, 0, 64, 77
1, 460475, Note_off_c, 0, 70, 62
1, 460484, Note_off_c, 0, 65, 62
1, 460491, Note_on_c, 0, 62, 76
1, 460500, Control_c, 0, 64, 77
1, 460515, Control_c, 0, 64, 71
1, 460528, Note_off_c, 0, 62, 62
1, 460530, Control_c, 0, 64, 59
1, 460544, Control_c, 0, 64, 0
1, 460573, Note_on_c, 0, 47, 63
1, 460584, Note_on_c, 0, 69, 82
1, 460590, Note_on_c, 0, 64, 65
1, 460591, Note_on_c, 0, 53, 55
1, 460604, Control_c, 0, 64, 48
1, 460624, Note_on_c, 0, 65, 40
1, 460627, Control_c, 0, 64, 63
1, 460633, Note_off_c, 0, 65, 42
1, 460642, Note_off_c, 0, 64, 65
1, 460642, Control_c, 0, 64, 67
1, 460654, Note_off_c, 0, 69, 63
1, 460656, Note_off_c, 0, 53, 61
1, 460657, Control_c, 0, 64, 70
1, 460671, Control_c, 0, 64, 73
1, 460673, Note_on_c, 0, 57, 56
1, 460685, Note_off_c, 0, 47, 37
1, 460686, Control_c, 0, 64, 76
1, 460692, Note_on_c, 0, 60, 63
1, 460699, Note_off_c, 0, 57, 55
1, 460702, Control_c, 0, 64, 78
1, 460717, Control_c, 0, 64, 79
1, 460720, Note_off_c, 0, 60, 66
1, 460731, Control_c, 0, 64, 80
1, 460746, Control_c, 0, 64, 81
1, 460761, Control_c, 0, 64, 82
1, 460776, Control_c, 0, 64, 83
1, 460776, Note_on_c, 0, 57, 53
1, 460776, Note_on_c, 0, 59, 65
1, 460791, Control_c, 0, 64, 84
1, 460799, Note_off_c, 0, 59, 61
1, 460800, Note_off_c, 0, 57, 63
1, 460806, Control_c, 0, 64, 85
1, 460820, Control_c, 0, 64, 86
1, 460835, Control_c, 0, 64, 87
1, 460850, Note_on_c, 0, 57, 70
1, 460878, Note_off_c, 0, 57, 61
1, 460894, Control_c, 0, 64, 84
1, 460909, Control_c, 0, 64, 78
1, 460910, Note_on_c, 0, 40, 102
1, 460924, Note_on_c, 0, 56, 77
1, 460924, Control_c, 0, 64, 69
1, 460928, Poly_aftertouch_c, 0, 55, 127
1, 460939, Control_c, 0, 64, 60
1, 460952, Poly_aftertouch_c, 0, 55, 0
1, 460954, Control_c, 0, 64, 56
1, 460968, Control_c, 0, 64, 63
1, 460976, Note_off_c, 0, 56, 55
1, 460983, Control_c, 0, 64, 67
1, 460998, Control_c, 0, 64, 71
1, 461006, Note_on_c, 0, 53, 77
1, 461012, Control_c, 0, 64, 75
1, 461017, Note_on_c, 0, 47, 75
1, 461027, Control_c, 0, 64, 77
1, 461042, Control_c, 0, 64, 79
1, 461056, Note_off_c, 0, 47, 67
1, 461057, Control_c, 0, 64, 80
1, 461072, Control_c, 0, 64, 81
1, 461083, Note_off_c, 0, 40, 61
1, 461086, Note_on_c, 0, 50, 79
1, 461086, Control_c, 0, 64, 82
1, 461096, Note_off_c, 0, 53, 63
1, 461101, Control_c, 0, 64, 82
1, 461116, Control_c, 0, 64, 84
1, 461131, Control_c, 0, 64, 85
1, 461138, Note_off_c, 0, 50, 53
1, 461146, Control_c, 0, 64, 86
1, 461157, Note_on_c, 0, 47, 82
1, 461190, Note_off_c, 0, 47, 65
1, 461191, Control_c, 0, 64, 83
1, 461205, Control_c, 0, 64, 75
1, 461220, Control_c, 0, 64, 64
1, 461235, Control_c, 0, 64, 33
1, 461237, Note_on_c, 0, 33, 106
1, 461250, Control_c, 0, 64, 52
1, 461253, Note_on_c, 0, 45, 80
1, 461265, Control_c, 0, 64, 64
1, 461267, Note_off_c, 0, 33, 68
1, 461280, Control_c, 0, 64, 67
1, 461281, Note_off_c, 0, 45, 68
1, 461294, Control_c, 0, 64, 71
1, 461309, Control_c, 0, 64, 75
1, 461324, Control_c, 0, 64, 77
1, 461339, Control_c, 0, 64, 78
1, 461351, Note_on_c, 0, 60, 81
1, 461375, Note_on_c, 0, 50, 69
1, 461375, Control_c, 0, 64, 79
1, 461390, Control_c, 0, 64, 79
1, 461405, Control_c, 0, 64, 80
1, 461420, Control_c, 0, 64, 81
1, 461426, Note_off_c, 0, 60, 61
1, 461433, Note_on_c, 0, 59, 76
1, 461434, Note_off_c, 0, 50, 39
1, 461435, Control_c, 0, 64, 82
1, 461450, Control_c, 0, 64, 83
1, 461457, Note_on_c, 0, 47, 53
1, 461468, Note_on_c, 0, 48, 35
1, 461480, Control_c, 0, 64, 82
1, 461482, Note_on_c, 0, 57, 81
1, 461495, Control_c, 0, 64, 76
1, 461500, Note_off_c, 0, 59, 59
1, 461506, Note_off_c, 0, 48, 54
1, 461510, Control_c, 0, 64, 65
1, 461513, Note_off_c, 0, 47, 63
1, 461524, Control_c, 0, 64, 0
1, 461533, Note_on_c, 0, 45, 66
1, 461540, Note_off_c, 0, 57, 56
1, 461558, Note_on_c, 0, 52, 81
1, 461569, Note_on_c, 0, 40, 78
1, 461569, Control_c, 0, 64, 63
1, 461570, Note_off_c, 0, 45, 65
1, 461584, Control_c, 0, 64, 68
1, 461585, Note_off_c, 0, 52, 68
1, 461599, Control_c, 0, 64, 72
1, 461599, Note_off_c, 0, 40, 66
1, 461614, Control_c, 0, 64, 77
1, 461629, Control_c, 0, 64, 80
1, 461643, Control_c, 0, 64, 82
1, 461658, Control_c, 0, 64, 84
1, 461662, Note_on_c, 0, 68, 90
1, 461673, Control_c, 0, 64, 85
1, 461680, Note_on_c, 0, 56, 80
1, 461688, Control_c, 0, 64, 87
1, 461703, Control_c, 0, 64, 88
1, 461717, Control_c, 0, 64, 89
1, 461732, Control_c, 0, 64, 90
1, 461743, Note_on_c, 0, 66, 75
1, 461747, Control_c, 0, 64, 90
1, 461757, Note_off_c, 0, 56, 61
1, 461762, Control_c, 0, 64, 91
1, 461771, Note_on_c, 0, 54, 66
1, 461799, Note_on_c, 0, 64, 80
1, 461817, Note_off_c, 0, 68, 56
1, 461821, Control_c, 0, 64, 88
1, 461830, Note_on_c, 0, 52, 59
1, 461835, Control_c, 0, 64, 81
1, 461845, Note_off_c, 0, 66, 64
1, 461850, Control_c, 0, 64, 66
1, 461865, Control_c, 0, 64, 0
1, 461879, Note_on_c, 0, 57, 76
1, 461880, Control_c, 0, 64, 16
1, 461888, Note_off_c, 0, 54, 61
1, 461890, Note_off_c, 0, 52, 65
1, 461894, Note_on_c, 0, 45, 58
1, 461894, Note_off_c, 0, 64, 62
1, 461895, Control_c, 0, 64, 61
1, 461909, Control_c, 0, 64, 67
1, 461915, Note_off_c, 0, 57, 60
1, 461921, Note_off_c, 0, 45, 57
1, 461924, Control_c, 0, 64, 72
1, 461939, Control_c, 0, 64, 78
1, 461954, Control_c, 0, 64, 81
1, 461969, Control_c, 0, 64, 83
1, 461973, Note_on_c, 0, 72, 87
1, 461983, Control_c, 0, 64, 84
1, 461993, Note_on_c, 0, 60, 68
1, 461998, Control_c, 0, 64, 85
1, 462013, Control_c, 0, 64, 86
1, 462028, Control_c, 0, 64, 87
1, 462043, Control_c, 0, 64, 88
1, 462044, Note_off_c, 0, 72, 62
1, 462052, Note_on_c, 0, 71, 72
1, 462052, Note_off_c, 0, 60, 44
1, 462058, Control_c, 0, 64, 89
1, 462073, Control_c, 0, 64, 91
1, 462079, Note_on_c, 0, 59, 53
1, 462088, Control_c, 0, 64, 92
1, 462101, Note_on_c, 0, 69, 83
1, 462103, Control_c, 0, 64, 94
1, 462112, Note_on_c, 0, 56, 51
1, 462114, Note_off_c, 0, 59, 57
1, 462124, Control_c, 0, 64, 96
1, 462129, Note_off_c, 0, 71, 60
1, 462139, Control_c, 0, 64, 99
1, 462140, Note_off_c, 0, 56, 56
1, 462150, Note_off_c, 0, 69, 67
1, 462154, Control_c, 0, 64, 101
1, 462168, Control_c, 0, 64, 103
1, 462170, Note_on_c, 0, 57, 8
1, 462183, Control_c, 0, 64, 104
1, 462198, Note_on_c, 0, 76, 97
1, 462198, Control_c, 0, 64, 105
1, 462206, Note_on_c, 0, 64, 74
1, 462213, Control_c, 0, 64, 106
1, 462223, Note_off_c, 0, 57, 35
1, 462228, Control_c, 0, 64, 107
1, 462243, Control_c, 0, 64, 108
1, 462245, Note_off_c, 0, 64, 61
1, 462258, Control_c, 0, 64, 110
1, 462266, Note_on_c, 0, 59, 62
1, 462273, Control_c, 0, 64, 111
1, 462276, Note_on_c, 0, 71, 81
1, 462287, Note_off_c, 0, 59, 64
1, 462288, Control_c, 0, 64, 111
1, 462292, Note_off_c, 0, 76, 61
1, 462333, Control_c, 0, 64, 112
1, 462335, Note_off_c, 0, 71, 60
1, 462338, Note_on_c, 0, 64, 83
1, 462377, Control_c, 0, 64, 112
1, 462383, Note_on_c, 0, 43, 56
1, 462387, Note_off_c, 0, 64, 66
1, 462392, Control_c, 0, 64, 113
1, 462407, Control_c, 0, 64, 115
1, 462413, Note_off_c, 0, 43, 54
1, 462422, Note_on_c, 0, 59, 82
1, 462422, Control_c, 0, 64, 118
1, 462437, Control_c, 0, 64, 120
1, 462461, Note_off_c, 0, 59, 66
1, 462466, Control_c, 0, 64, 119
1, 462481, Control_c, 0, 64, 107
1, 462496, Control_c, 0, 64, 90
1, 462511, Control_c, 0, 64, 73
1, 462517, Note_on_c, 0, 47, 111
1, 462526, Note_on_c, 0, 57, 88
1, 462526, Control_c, 0, 64, 16
1, 462540, Control_c, 0, 64, 39
1, 462555, Control_c, 0, 64, 63
1, 462556, Note_off_c, 0, 47, 68
1, 462565, Note_off_c, 0, 57, 66
1, 462570, Control_c, 0, 64, 68
1, 462584, Control_c, 0, 64, 74
1, 462599, Control_c, 0, 64, 81
1, 462614, Control_c, 0, 64, 85
1, 462629, Control_c, 0, 64, 86
1, 462632, Note_on_c, 0, 72, 86
1, 462642, Note_on_c, 0, 60, 73
1, 462644, Control_c, 0, 64, 87
1, 462658, Control_c, 0, 64, 88
1, 462673, Control_c, 0, 64, 89
1, 462688, Control_c, 0, 64, 90
1, 462703, Control_c, 0, 64, 90
1, 462711, Note_on_c, 0, 71, 80
1, 462711, Note_off_c, 0, 60, 52
1, 462712, Note_off_c, 0, 72, 62
1, 462718, Control_c, 0, 64, 91
1, 462720, Note_on_c, 0, 59, 66
1, 462732, Control_c, 0, 64, 91
1, 462747, Control_c, 0, 64, 92
1, 462762, Note_on_c, 0, 69, 84
1, 462762, Control_c, 0, 64, 93
1, 462777, Control_c, 0, 64, 93
1, 462780, Note_off_c, 0, 71, 60
1, 462800, Note_on_c, 0, 57, 60
1, 462806, Control_c, 0, 64, 89
1, 462809, Note_off_c, 0, 69, 64
1, 462818, Note_off_c, 0, 59, 56
1, 462821, Control_c, 0, 64, 77
1, 462836, Control_c, 0, 64, 57
1, 462845, Note_on_c, 0, 64, 80
1, 462848, Note_off_c, 0, 57, 57
1, 462849, Note_on_c, 0, 52, 92
1, 462851, Control_c, 0, 64, 0
1, 462874, Note_off_c, 0, 64, 70
1, 462878, Note_off_c, 0, 52, 73
1, 462888, Control_c, 0, 64, 60
1, 462903, Control_c, 0, 64, 69
1, 462918, Control_c, 0, 64, 76
1, 462932, Control_c, 0, 64, 84
1, 462947, Control_c, 0, 64, 88
1, 462952, Note_on_c, 0, 80, 95
1, 462962, Control_c, 0, 64, 90
1, 462973, Note_on_c, 0, 68, 84
1, 462977, Control_c, 0, 64, 93
1, 462991, Control_c, 0, 64, 96
1, 463006, Control_c, 0, 64, 100
1, 463021, Control_c, 0, 64, 102
1, 463036, Control_c, 0, 64, 105
1, 463039, Note_on_c, 0, 78, 81
1, 463051, Control_c, 0, 64, 108
1, 463059, Note_off_c, 0, 68, 62
1, 463063, Note_on_c, 0, 66, 74
1, 463066, Control_c, 0, 64, 111
1, 463080, Control_c, 0, 64, 113
1, 463096, Control_c, 0, 64, 115
1, 463104, Note_on_c, 0, 76, 79
1, 463110, Note_off_c, 0, 80, 58
1, 463126, Control_c, 0, 64, 114
1, 463128, Note_on_c, 0, 64, 56
1, 463141, Control_c, 0, 64, 105
1, 463156, Control_c, 0, 64, 92
1, 463158, Note_off_c, 0, 78, 52
1, 463170, Control_c, 0, 64, 79
1, 463177, Note_on_c, 0, 57, 80
1, 463181, Note_on_c, 0, 69, 90
1, 463185, Control_c, 0, 64, 70
1, 463192, Note_off_c, 0, 64, 62
1, 463193, Note_off_c, 0, 66, 64
1, 463205, Note_off_c, 0, 57, 67
1, 463209, Note_off_c, 0, 76, 64
1, 463212, Note_off_c, 0, 69, 68
1, 463215, Control_c, 0, 64, 75
1, 463229, Control_c, 0, 64, 80
1, 463244, Control_c, 0, 64, 85
1, 463259, Control_c, 0, 64, 88
1, 463274, Control_c, 0, 64, 90
1, 463276, Note_on_c, 0, 84, 93
1, 463281, Note_on_c, 0, 72, 79
1, 463289, Control_c, 0, 64, 92
1, 463304, Control_c, 0, 64, 94
1, 463319, Control_c, 0, 64, 96
1, 463334, Control_c, 0, 64, 97
1, 463346, Note_on_c, 0, 83, 79
1, 463349, Control_c, 0, 64, 98
1, 463352, Note_off_c, 0, 84, 66
1, 463356, Note_on_c, 0, 71, 59
1, 463363, Control_c, 0, 64, 98
1, 463364, Note_off_c, 0, 72, 60
1, 463378, Control_c, 0, 64, 99
1, 463396, Note_on_c, 0, 69, 65
1, 463405, Note_on_c, 0, 81, 89
1, 463422, Control_c, 0, 64, 99
1, 463424, Note_off_c, 0, 71, 53
1, 463425, Note_off_c, 0, 83, 62
1, 463443, Note_off_c, 0, 81, 65
1, 463444, Note_off_c, 0, 69, 62
1, 463452, Control_c, 0, 64, 100
1, 463481, Control_c, 0, 64, 100
1, 463486, Note_on_c, 0, 76, 78
1, 463486, Note_on_c, 0, 88, 96
1, 463496, Control_c, 0, 64, 101
1, 463525, Note_off_c, 0, 76, 61
1, 463526, Control_c, 0, 64, 101
1, 463541, Control_c, 0, 64, 102
1, 463547, Note_on_c, 0, 71, 67
1, 463563, Note_on_c, 0, 83, 86
1, 463570, Control_c, 0, 64, 102
1, 463577, Note_off_c, 0, 88, 55
1, 463583, Note_off_c, 0, 71, 62
1, 463622, Control_c, 0, 64, 103
1, 463626, Note_off_c, 0, 83, 60
1, 463634, Note_on_c, 0, 76, 83
1, 463637, Control_c, 0, 64, 103
1, 463652, Control_c, 0, 64, 104
1, 463667, Control_c, 0, 64, 106
1, 463679, Note_off_c, 0, 76, 67
1, 463682, Control_c, 0, 64, 108
1, 463696, Control_c, 0, 64, 109
1, 463711, Control_c, 0, 64, 110
1, 463717, Note_on_c, 0, 71, 86
1, 463741, Control_c, 0, 64, 108
1, 463755, Note_off_c, 0, 71, 62
1, 463756, Control_c, 0, 64, 96
1, 463770, Control_c, 0, 64, 75
1, 463785, Control_c, 0, 64, 41
1, 463788, Note_on_c, 0, 59, 90
1, 463795, Note_on_c, 0, 57, 76
1, 463800, Control_c, 0, 64, 0
1, 463802, Note_on_c, 0, 69, 93
1, 463805, Note_off_c, 0, 59, 73
1, 463813, Note_off_c, 0, 57, 63
1, 463814, Control_c, 0, 64, 63
1, 463829, Control_c, 0, 64, 70
1, 463844, Note_off_c, 0, 69, 68
1, 463844, Control_c, 0, 64, 78
1, 463859, Control_c, 0, 64, 89
1, 463874, Control_c, 0, 64, 94
1, 463889, Note_on_c, 0, 82, 89
1, 463890, Control_c, 0, 64, 96
1, 463904, Note_on_c, 0, 70, 78
1, 463905, Control_c, 0, 64, 97
1, 463919, Control_c, 0, 64, 99
1, 463933, Note_off_c, 0, 82, 63
1, 463934, Control_c, 0, 64, 100
1, 463949, Control_c, 0, 64, 100
1, 463962, Note_on_c, 0, 83, 42
1, 463969, Note_off_c, 0, 70, 61
1, 463971, Note_on_c, 0, 81, 85
1, 463987, Note_off_c, 0, 83, 48
1, 463989, Note_on_c, 0, 69, 68
1, 463993, Control_c, 0, 64, 101
1, 464022, Note_on_c, 0, 79, 78
1, 464023, Control_c, 0, 64, 101
1, 464025, Note_on_c, 0, 67, 73
1, 464037, Control_c, 0, 64, 102
1, 464042, Note_off_c, 0, 69, 66
1, 464043, Note_off_c, 0, 81, 61
1, 464046, Note_off_c, 0, 67, 67
1, 464052, Control_c, 0, 64, 104
1, 464054, Note_off_c, 0, 79, 61
1, 464067, Control_c, 0, 64, 104
1, 464097, Control_c, 0, 64, 103
1, 464112, Control_c, 0, 64, 98
1, 464122, Note_on_c, 0, 50, 82
1, 464127, Control_c, 0, 64, 95
1, 464127, Note_on_c, 0, 62, 85
1, 464142, Control_c, 0, 64, 95
1, 464147, Note_off_c, 0, 50, 69
1, 464148, Note_off_c, 0, 62, 68
1, 464171, Control_c, 0, 64, 96
1, 464186, Control_c, 0, 64, 100
1, 464201, Control_c, 0, 64, 105
1, 464206, Note_on_c, 0, 77, 86
1, 464216, Control_c, 0, 64, 110
1, 464216, Note_on_c, 0, 65, 77
1, 464230, Control_c, 0, 64, 113
1, 464245, Control_c, 0, 64, 116
1, 464260, Control_c, 0, 64, 118
1, 464275, Control_c, 0, 64, 119
1, 464279, Note_off_c, 0, 77, 60
1, 464285, Note_on_c, 0, 76, 73
1, 464290, Control_c, 0, 64, 120
1, 464301, Note_on_c, 0, 64, 66
1, 464302, Note_off_c, 0, 65, 54
1, 464304, Control_c, 0, 64, 122
1, 464319, Control_c, 0, 64, 123
1, 464334, Control_c, 0, 64, 124
1, 464349, Note_on_c, 0, 74, 80
1, 464349, Control_c, 0, 64, 123
1, 464371, Control_c, 0, 64, 116
1, 464372, Note_on_c, 0, 62, 74
1, 464377, Note_off_c, 0, 64, 64
1, 464386, Control_c, 0, 64, 99
1, 464389, Note_off_c, 0, 76, 65
1, 464401, Control_c, 0, 64, 81
1, 464404, Note_off_c, 0, 62, 64
1, 464416, Control_c, 0, 64, 64
1, 464422, Note_off_c, 0, 74, 65
1, 464431, Control_c, 0, 64, 52
1, 464440, Note_on_c, 0, 55, 78
1, 464441, Note_on_c, 0, 67, 86
1, 464445, Control_c, 0, 64, 68
1, 464460, Control_c, 0, 64, 77
1, 464465, Note_off_c, 0, 55, 69
1, 464475, Control_c, 0, 64, 87
1, 464490, Control_c, 0, 64, 96
1, 464491, Note_off_c, 0, 67, 61
1, 464505, Control_c, 0, 64, 102
1, 464519, Control_c, 0, 64, 105
1, 464523, Note_on_c, 0, 81, 92
1, 464534, Control_c, 0, 64, 107
1, 464549, Control_c, 0, 64, 109
1, 464557, Note_on_c, 0, 69, 48
1, 464563, Control_c, 0, 64, 109
1, 464566, Note_on_c, 0, 71, 33
1, 464578, Control_c, 0, 64, 110
1, 464580, Note_off_c, 0, 81, 67
1, 464597, Note_on_c, 0, 79, 82
1, 464598, Note_off_c, 0, 71, 47
1, 464615, Note_on_c, 0, 67, 73
1, 464621, Note_off_c, 0, 69, 64
1, 464654, Note_on_c, 0, 77, 80
1, 464670, Note_on_c, 0, 65, 75
1, 464673, Note_off_c, 0, 67, 65
1, 464690, Note_off_c, 0, 79, 60
1, 464695, Note_off_c, 0, 65, 69
1, 464699, Note_off_c, 0, 77, 61
1, 464727, Control_c, 0, 64, 112
1, 464742, Control_c, 0, 64, 117
1, 464757, Control_c, 0, 64, 127
1, 464760, Note_on_c, 0, 50, 90
1, 464768, Note_on_c, 0, 60, 82
1, 464783, Note_off_c, 0, 50, 67
1, 464789, Note_off_c, 0, 60, 68
1, 464854, Note_on_c, 0, 76, 81
1, 464854, Note_on_c, 0, 64, 74
1, 464921, Note_on_c, 0, 74, 70
1, 464921, Note_off_c, 0, 76, 64
1, 464933, Note_on_c, 0, 62, 62
1, 464938, Note_off_c, 0, 64, 58
1, 464964, Control_c, 0, 64, 104
1, 464979, Control_c, 0, 64, 86
1, 464988, Note_on_c, 0, 72, 68
1, 464994, Control_c, 0, 64, 71
1, 465009, Control_c, 0, 64, 61
1, 465015, Note_off_c, 0, 62, 55
1, 465017, Note_on_c, 0, 60, 56
1, 465024, Control_c, 0, 64, 65
1, 465024, Note_off_c, 0, 74, 58
1, 465039, Control_c, 0, 64, 72
1, 465053, Control_c, 0, 64, 82
1, 465058, Note_off_c, 0, 60, 60
1, 465060, Note_off_c, 0, 72, 62
1, 465068, Control_c, 0, 64, 91
1, 465071, Note_on_c, 0, 65, 79
1, 465083, Control_c, 0, 64, 97
1, 465098, Control_c, 0, 64, 103
1, 465113, Note_on_c, 0, 53, 47
1, 465120, Control_c, 0, 64, 106
1, 465134, Control_c, 0, 64, 110
1, 465136, Note_off_c, 0, 65, 61
1, 465141, Note_off_c, 0, 53, 54
1, 465149, Control_c, 0, 64, 114
1, 465160, Note_on_c, 0, 76, 74
1, 465161, Note_on_c, 0, 64, 63
1, 465164, Control_c, 0, 64, 119
1, 465179, Control_c, 0, 64, 124
1, 465194, Control_c, 0, 64, 127
1, 465198, Note_off_c, 0, 64, 65
1, 465210, Note_on_c, 0, 62, 69
1, 465214, Note_off_c, 0, 76, 66
1, 465216, Note_on_c, 0, 74, 71
1, 465230, Note_off_c, 0, 62, 64
1, 465261, Note_off_c, 0, 74, 62
1, 465300, Note_on_c, 0, 47, 79
1, 465301, Note_on_c, 0, 59, 84
1, 465332, Note_off_c, 0, 47, 63
1, 465368, Note_on_c, 0, 52, 69
1, 465371, Note_off_c, 0, 59, 60
1, 465373, Note_on_c, 0, 64, 98
1, 465410, Note_off_c, 0, 64, 68
1, 465411, Note_off_c, 0, 52, 66
1, 465442, Note_on_c, 0, 62, 71
1, 465453, Note_on_c, 0, 74, 78
1, 465466, Note_off_c, 0, 62, 66
1, 465483, Note_on_c, 0, 60, 76
1, 465498, Note_off_c, 0, 74, 66
1, 465499, Note_on_c, 0, 72, 81
1, 465506, Note_off_c, 0, 60, 69
1, 465543, Note_on_c, 0, 73, 24
1, 465545, Note_off_c, 0, 72, 66
1, 465576, Note_on_c, 0, 45, 79
1, 465582, Note_off_c, 0, 73, 32
1, 465587, Note_on_c, 0, 57, 89
1, 465609, Note_off_c, 0, 45, 54
1, 465662, Note_on_c, 0, 62, 89
1, 465666, Note_on_c, 0, 50, 42
1, 465668, Note_off_c, 0, 57, 66
1, 465680, Note_on_c, 0, 59, 78
1, 465714, Note_off_c, 0, 59, 65
1, 465725, Note_off_c, 0, 62, 64
1, 465727, Note_on_c, 0, 71, 76
1, 465738, Note_off_c, 0, 50, 62
1, 465742, Note_on_c, 0, 56, 39
1, 465773, Note_off_c, 0, 56, 48
1, 465791, Note_on_c, 0, 68, 81
1, 465805, Note_off_c, 0, 71, 58
1, 465805, Poly_aftertouch_c, 0, 69, 127
1, 465832, Note_off_c, 0, 68, 65
1, 465834, Note_on_c, 0, 38, 88
1, 465835, Poly_aftertouch_c, 0, 69, 0
1, 465871, Note_off_c, 0, 38, 63
1, 465894, Note_on_c, 0, 52, 81
1, 465921, Note_off_c, 0, 52, 69
1, 466019, Note_on_c, 0, 45, 100
1, 466032, Note_on_c, 0, 55, 87
1, 466032, Control_c, 0, 64, 106
1, 466034, Note_on_c, 0, 57, 92
1, 466047, Control_c, 0, 64, 84
1, 466061, Note_on_c, 0, 63, 49
1, 466062, Control_c, 0, 64, 59
1, 466077, Control_c, 0, 64, 0
1, 466086, Note_off_c, 0, 63, 56
1, 466096, Note_off_c, 0, 55, 63
1, 466106, Control_c, 0, 64, 61
1, 466121, Control_c, 0, 64, 69
1, 466135, Note_off_c, 0, 57, 60
1, 466136, Control_c, 0, 64, 76
1, 466151, Control_c, 0, 64, 85
1, 466165, Note_on_c, 0, 52, 76
1, 466166, Control_c, 0, 64, 92
1, 466174, Note_on_c, 0, 64, 80
1, 466181, Control_c, 0, 64, 95
1, 466195, Control_c, 0, 64, 97
1, 466210, Control_c, 0, 64, 99
1, 466219, Note_off_c, 0, 45, 58
1, 466222, Note_off_c, 0, 64, 65
1, 466225, Control_c, 0, 64, 101
1, 466240, Control_c, 0, 64, 102
1, 466255, Control_c, 0, 64, 104
1, 466262, Note_on_c, 0, 57, 80
1, 466263, Note_off_c, 0, 52, 66
1, 466270, Control_c, 0, 64, 105
1, 466285, Note_on_c, 0, 69, 107
1, 466285, Control_c, 0, 64, 106
1, 466300, Control_c, 0, 64, 107
1, 466315, Control_c, 0, 64, 109
1, 466315, Note_off_c, 0, 57, 64
1, 466330, Control_c, 0, 64, 110
1, 466345, Control_c, 0, 64, 112
1, 466356, Note_off_c, 0, 69, 62
1, 466359, Control_c, 0, 64, 113
1, 466374, Control_c, 0, 64, 114
1, 466383, Note_on_c, 0, 76, 100
1, 466387, Note_on_c, 0, 64, 82
1, 466389, Control_c, 0, 64, 116
1, 466404, Control_c, 0, 64, 117
1, 466419, Control_c, 0, 64, 119
1, 466423, Note_off_c, 0, 76, 71
1, 466433, Control_c, 0, 64, 121
1, 466447, Control_c, 0, 64, 125
1, 466462, Control_c, 0, 64, 127
1, 466521, Control_c, 0, 64, 122
1, 466536, Control_c, 0, 64, 97
1, 466543, Note_on_c, 0, 57, 96
1, 466550, Control_c, 0, 64, 79
1, 466565, Note_off_c, 0, 64, 66
1, 466565, Control_c, 0, 64, 62
1, 466574, Note_on_c, 0, 81, 113
1, 466580, Control_c, 0, 64, 52
1, 466603, Control_c, 0, 64, 67
1, 466618, Control_c, 0, 64, 76
1, 466632, Control_c, 0, 64, 87
1, 466647, Control_c, 0, 64, 94
1, 466650, Note_off_c, 0, 57, 63
1, 466662, Control_c, 0, 64, 98
1, 466677, Control_c, 0, 64, 102
1, 466681, Note_off_c, 0, 81, 58
1, 466692, Control_c, 0, 64, 106
1, 466706, Control_c, 0, 64, 111
1, 466721, Control_c, 0, 64, 114
1, 466736, Control_c, 0, 64, 118
1, 466751, Control_c, 0, 64, 120
1, 466752, Note_on_c, 0, 70, 94
1, 466753, Note_on_c, 0, 94, 93
1, 466765, Control_c, 0, 64, 122
1, 466780, Control_c, 0, 64, 123
1, 466795, Control_c, 0, 64, 124
1, 466798, Note_off_c, 0, 94, 61
1, 466804, Note_off_c, 0, 70, 57
1, 466810, Control_c, 0, 64, 124
1, 466836, Note_on_c, 0, 93, 89
1, 466842, Note_on_c, 0, 69, 67
1, 466878, Note_on_c, 0, 67, 75
1, 466893, Note_off_c, 0, 69, 67
1, 466903, Note_off_c, 0, 67, 67
1, 466905, Note_on_c, 0, 91, 75
1, 466923, Note_off_c, 0, 93, 59
1, 466926, Note_off_c, 0, 91, 66
1, 466929, Control_c, 0, 64, 125
1, 466944, Control_c, 0, 64, 125
1, 466973, Control_c, 0, 64, 121
1, 466988, Control_c, 0, 64, 106
1, 466996, Note_on_c, 0, 50, 76
1, 466999, Note_on_c, 0, 74, 86
1, 467003, Control_c, 0, 64, 92
1, 467018, Control_c, 0, 64, 80
1, 467021, Note_off_c, 0, 50, 65
1, 467032, Control_c, 0, 64, 78
1, 467038, Note_off_c, 0, 74, 69
1, 467047, Control_c, 0, 64, 79
1, 467062, Control_c, 0, 64, 84
1, 467078, Control_c, 0, 64, 93
1, 467081, Note_on_c, 0, 65, 76
1, 467087, Note_on_c, 0, 89, 89
1, 467093, Control_c, 0, 64, 103
1, 467108, Control_c, 0, 64, 107
1, 467123, Control_c, 0, 64, 109
1, 467137, Control_c, 0, 64, 111
1, 467152, Control_c, 0, 64, 113
1, 467158, Note_on_c, 0, 88, 77
1, 467158, Note_off_c, 0, 65, 61
1, 467159, Note_on_c, 0, 64, 64
1, 467164, Note_off_c, 0, 89, 64
1, 467167, Control_c, 0, 64, 117
1, 467181, Control_c, 0, 64, 123
1, 467196, Control_c, 0, 64, 127
1, 467224, Note_off_c, 0, 64, 63
1, 467224, Note_on_c, 0, 86, 81
1, 467226, Note_on_c, 0, 62, 69
1, 467241, Control_c, 0, 64, 118
1, 467251, Note_off_c, 0, 62, 65
1, 467255, Control_c, 0, 64, 101
1, 467260, Note_off_c, 0, 88, 61
1, 467270, Control_c, 0, 64, 87
1, 467282, Note_off_c, 0, 86, 63
1, 467285, Control_c, 0, 64, 81
1, 467303, Note_on_c, 0, 79, 89
1, 467305, Note_on_c, 0, 55, 68
1, 467315, Control_c, 0, 64, 84
1, 467329, Control_c, 0, 64, 92
1, 467334, Note_off_c, 0, 55, 66
1, 467352, Control_c, 0, 64, 102
1, 467355, Note_off_c, 0, 79, 65
1, 467367, Control_c, 0, 64, 108
1, 467381, Control_c, 0, 64, 111
1, 467389, Note_on_c, 0, 69, 73
1, 467391, Note_on_c, 0, 93, 95
1, 467396, Control_c, 0, 64, 112
1, 467411, Control_c, 0, 64, 113
1, 467426, Control_c, 0, 64, 114
1, 467441, Control_c, 0, 64, 114
1, 467453, Note_off_c, 0, 69, 64
1, 467455, Control_c, 0, 64, 115
1, 467459, Note_on_c, 0, 67, 69
1, 467467, Note_on_c, 0, 91, 85
1, 467470, Control_c, 0, 64, 115
1, 467474, Note_off_c, 0, 93, 62
1, 467507, Note_off_c, 0, 67, 60
1, 467515, Note_on_c, 0, 65, 73
1, 467515, Control_c, 0, 64, 116
1, 467520, Note_on_c, 0, 89, 78
1, 467531, Note_off_c, 0, 65, 66
1, 467546, Note_off_c, 0, 91, 57
1, 467552, Note_off_c, 0, 89, 62
1, 467573, Control_c, 0, 64, 116
1, 467588, Control_c, 0, 64, 118
1, 467603, Control_c, 0, 64, 125
1, 467618, Control_c, 0, 64, 127
1, 467620, Note_on_c, 0, 48, 79
1, 467625, Note_on_c, 0, 72, 82
1, 467641, Note_off_c, 0, 48, 68
1, 467663, Note_off_c, 0, 72, 65
1, 467708, Note_on_c, 0, 64, 69
1, 467708, Note_on_c, 0, 88, 86
1, 467774, Note_off_c, 0, 64, 59
1, 467777, Note_on_c, 0, 62, 59
1, 467784, Note_on_c, 0, 86, 80
1, 467786, Note_off_c, 0, 88, 58
1, 467850, Note_on_c, 0, 60, 65
1, 467851, Note_off_c, 0, 62, 61
1, 467855, Control_c, 0, 64, 121
1, 467868, Note_on_c, 0, 84, 66
1, 467870, Control_c, 0, 64, 92
1, 467883, Note_off_c, 0, 60, 61
1, 467886, Control_c, 0, 64, 74
1, 467901, Control_c, 0, 64, 59
1, 467908, Note_off_c, 0, 86, 54
1, 467910, Note_on_c, 0, 53, 99
1, 467915, Control_c, 0, 64, 61
1, 467916, Note_on_c, 0, 77, 97
1, 467930, Control_c, 0, 64, 70
1, 467945, Note_off_c, 0, 84, 64
1, 467945, Control_c, 0, 64, 80
1, 467960, Control_c, 0, 64, 91
1, 467975, Control_c, 0, 64, 99
1, 467990, Control_c, 0, 64, 103
1, 468004, Control_c, 0, 64, 106
1, 468008, Note_on_c, 0, 88, 88
1, 468008, Note_off_c, 0, 53, 61
1, 468011, Note_on_c, 0, 64, 67
1, 468018, Note_off_c, 0, 77, 37
1, 468019, Control_c, 0, 64, 108
1, 468034, Control_c, 0, 64, 109
1, 468049, Control_c, 0, 64, 110
1, 468056, Note_off_c, 0, 64, 64
1, 468064, Note_on_c, 0, 62, 73
1, 468064, Note_on_c, 0, 86, 71
1, 468078, Control_c, 0, 64, 111
1, 468079, Note_off_c, 0, 88, 61
1, 468091, Note_off_c, 0, 62, 66
1, 468117, Note_off_c, 0, 86, 62
1, 468130, Control_c, 0, 64, 111
1, 468145, Control_c, 0, 64, 113
1, 468159, Note_on_c, 0, 71, 85
1, 468160, Control_c, 0, 64, 115
1, 468160, Note_on_c, 0, 48, 90
1, 468175, Control_c, 0, 64, 119
1, 468190, Control_c, 0, 64, 124
1, 468196, Note_off_c, 0, 48, 63
1, 468204, Control_c, 0, 64, 127
1, 468235, Note_off_c, 0, 71, 63
1, 468237, Note_on_c, 0, 52, 84
1, 468240, Note_on_c, 0, 76, 85
1, 468242, Note_on_c, 0, 74, 78
1, 468261, Note_off_c, 0, 74, 74
1, 468277, Note_off_c, 0, 76, 69
1, 468290, Note_off_c, 0, 52, 66
1, 468333, Note_on_c, 0, 62, 69
1, 468333, Note_on_c, 0, 86, 78
1, 468365, Note_off_c, 0, 62, 65
1, 468377, Note_on_c, 0, 60, 77
1, 468386, Note_on_c, 0, 84, 78
1, 468396, Note_off_c, 0, 60, 69
1, 468401, Note_off_c, 0, 86, 61
1, 468431, Note_off_c, 0, 84, 66
1, 468472, Note_on_c, 0, 45, 84
1, 468475, Note_on_c, 0, 69, 92
1, 468513, Note_off_c, 0, 45, 55
1, 468515, Control_c, 0, 64, 104
1, 468530, Control_c, 0, 64, 89
1, 468539, Note_on_c, 0, 50, 81
1, 468544, Control_c, 0, 64, 79
1, 468550, Note_off_c, 0, 69, 58
1, 468550, Note_on_c, 0, 74, 96
1, 468559, Control_c, 0, 64, 77
1, 468574, Control_c, 0, 64, 78
1, 468589, Control_c, 0, 64, 81
1, 468601, Note_off_c, 0, 74, 67
1, 468604, Control_c, 0, 64, 88
1, 468615, Note_off_c, 0, 50, 62
1, 468619, Control_c, 0, 64, 95
1, 468634, Control_c, 0, 64, 101
1, 468649, Control_c, 0, 64, 105
1, 468649, Note_on_c, 0, 84, 78
1, 468651, Note_on_c, 0, 60, 57
1, 468664, Control_c, 0, 64, 109
1, 468679, Control_c, 0, 64, 116
1, 468682, Note_off_c, 0, 60, 65
1, 468692, Note_on_c, 0, 59, 64
1, 468695, Control_c, 0, 64, 126
1, 468697, Note_on_c, 0, 83, 76
1, 468709, Note_off_c, 0, 59, 63
1, 468709, Control_c, 0, 64, 127
1, 468716, Note_off_c, 0, 84, 63
1, 468744, Note_off_c, 0, 83, 62
1, 468786, Note_on_c, 0, 67, 95
1, 468787, Note_on_c, 0, 43, 91
1, 468798, Control_c, 0, 64, 120
1, 468813, Control_c, 0, 64, 99
1, 468828, Control_c, 0, 64, 83
1, 468842, Control_c, 0, 64, 77
1, 468857, Note_off_c, 0, 43, 62
1, 468863, Note_on_c, 0, 48, 79
1, 468874, Note_off_c, 0, 67, 40
1, 468875, Note_on_c, 0, 72, 96
1, 468880, Control_c, 0, 64, 81
1, 468895, Control_c, 0, 64, 90
1, 468909, Control_c, 0, 64, 102
1, 468921, Note_off_c, 0, 72, 66
1, 468924, Control_c, 0, 64, 109
1, 468935, Note_off_c, 0, 48, 65
1, 468939, Control_c, 0, 64, 113
1, 468953, Control_c, 0, 64, 117
1, 468968, Note_on_c, 0, 83, 78
1, 468968, Control_c, 0, 64, 123
1, 468981, Note_on_c, 0, 59, 60
1, 468983, Control_c, 0, 64, 127
1, 469009, Note_off_c, 0, 59, 64
1, 469013, Note_on_c, 0, 57, 57
1, 469024, Note_on_c, 0, 81, 73
1, 469033, Note_off_c, 0, 57, 60
1, 469036, Note_off_c, 0, 83, 56
1, 469057, Note_off_c, 0, 81, 58
1, 469131, Note_on_c, 0, 41, 100
1, 469132, Control_c, 0, 64, 114
1, 469135, Note_on_c, 0, 65, 101
1, 469147, Control_c, 0, 64, 91
1, 469161, Control_c, 0, 64, 73
1, 469176, Control_c, 0, 64, 22
1, 469191, Control_c, 0, 64, 0
1, 469206, Control_c, 0, 64, 56
1, 469221, Control_c, 0, 64, 70
1, 469235, Control_c, 0, 64, 79
1, 469238, Note_off_c, 0, 41, 60
1, 469250, Control_c, 0, 64, 87
1, 469265, Control_c, 0, 64, 93
1, 469271, Note_on_c, 0, 50, 32
1, 469280, Control_c, 0, 64, 96
1, 469282, Note_off_c, 0, 65, 56
1, 469287, Poly_aftertouch_c, 0, 75, 0
1, 469295, Control_c, 0, 64, 102
1, 469296, Note_on_c, 0, 74, 65
1, 469309, Control_c, 0, 64, 111
1, 469324, Control_c, 0, 64, 120
1, 469339, Note_off_c, 0, 74, 63
1, 469339, Control_c, 0, 64, 127
1, 469342, Note_on_c, 0, 57, 62
1, 469370, Note_off_c, 0, 57, 64
1, 469376, Note_on_c, 0, 81, 82
1, 469391, Note_off_c, 0, 50, 25
1, 469397, Note_off_c, 0, 81, 69
1, 469460, Note_on_c, 0, 40, 96
1, 469474, Note_on_c, 0, 64, 104
1, 469503, Control_c, 0, 64, 111
1, 469518, Control_c, 0, 64, 93
1, 469532, Control_c, 0, 64, 81
1, 469547, Control_c, 0, 64, 78
1, 469561, Note_off_c, 0, 40, 64
1, 469562, Control_c, 0, 64, 79
1, 469576, Control_c, 0, 64, 85
1, 469582, Poly_aftertouch_c, 0, 76, 0
1, 469591, Control_c, 0, 64, 98
1, 469603, Note_on_c, 0, 71, 68
1, 469610, Note_on_c, 0, 47, 46
1, 469613, Note_off_c, 0, 64, 59
1, 469614, Control_c, 0, 64, 111
1, 469629, Control_c, 0, 64, 120
1, 469644, Control_c, 0, 64, 127
1, 469656, Note_off_c, 0, 47, 48
1, 469674, Note_on_c, 0, 55, 53
1, 469683, Note_on_c, 0, 79, 78
1, 469690, Note_off_c, 0, 71, 39
1, 469698, Note_off_c, 0, 55, 59
1, 469701, Note_off_c, 0, 79, 63
1, 469764, Note_on_c, 0, 40, 104
1, 469781, Note_on_c, 0, 64, 83
1, 469782, Note_on_c, 0, 62, 98
1, 469791, Control_c, 0, 64, 120
1, 469806, Control_c, 0, 64, 98
1, 469821, Control_c, 0, 64, 88
1, 469822, Note_on_c, 0, 74, 31
1, 469836, Control_c, 0, 64, 86
1, 469847, Note_off_c, 0, 62, 60
1, 469850, Note_off_c, 0, 74, 55
1, 469850, Control_c, 0, 64, 87
1, 469856, Note_on_c, 0, 45, 42
1, 469859, Note_off_c, 0, 40, 64
1, 469865, Control_c, 0, 64, 93
1, 469879, Note_on_c, 0, 69, 82
1, 469880, Control_c, 0, 64, 108
1, 469895, Control_c, 0, 64, 127
1, 469898, Note_off_c, 0, 64, 64
1, 469898, Note_off_c, 0, 45, 52
1, 469963, Note_on_c, 0, 55, 52
1, 469971, Note_on_c, 0, 79, 80
1, 469977, Note_off_c, 0, 69, 59
1, 469984, Note_off_c, 0, 55, 61
1, 469990, Note_off_c, 0, 79, 69
1, 470060, Note_on_c, 0, 38, 96
1, 470066, Note_on_c, 0, 62, 105
1, 470088, Control_c, 0, 64, 101
1, 470103, Control_c, 0, 64, 84
1, 470104, Note_on_c, 0, 70, 42
1, 470118, Control_c, 0, 64, 76
1, 470122, Poly_aftertouch_c, 0, 71, 127
1, 470132, Control_c, 0, 64, 77
1, 470134, Note_off_c, 0, 70, 35
1, 470143, Note_off_c, 0, 38, 63
1, 470147, Control_c, 0, 64, 85
1, 470151, Note_on_c, 0, 45, 55
1, 470162, Control_c, 0, 64, 100
1, 470168, Poly_aftertouch_c, 0, 42, 0
1, 470170, Note_on_c, 0, 69, 75
1, 470172, Note_off_c, 0, 62, 56
1, 470176, Control_c, 0, 64, 127
1, 470177, Poly_aftertouch_c, 0, 71, 0
1, 470226, Note_on_c, 0, 53, 73
1, 470232, Poly_aftertouch_c, 0, 40, 127
1, 470241, Note_off_c, 0, 45, 44
1, 470246, Note_on_c, 0, 77, 86
1, 470252, Note_off_c, 0, 53, 67
1, 470259, Note_off_c, 0, 69, 63
1, 470261, Poly_aftertouch_c, 0, 40, 0
1, 470279, Note_off_c, 0, 77, 57
1, 470299, Note_on_c, 0, 70, 3
1, 470336, Note_on_c, 0, 38, 95
1, 470340, Note_off_c, 0, 70, 0
1, 470354, Note_on_c, 0, 62, 101
1, 470362, Control_c, 0, 64, 106
1, 470363, Note_on_c, 0, 70, 41
1, 470377, Control_c, 0, 64, 95
1, 470392, Control_c, 0, 64, 93
1, 470396, Note_on_c, 0, 43, 48
1, 470406, Control_c, 0, 64, 94
1, 470415, Note_off_c, 0, 70, 53
1, 470421, Control_c, 0, 64, 102
1, 470424, Note_off_c, 0, 38, 60
1, 470436, Control_c, 0, 64, 127
1, 470455, Note_on_c, 0, 67, 79
1, 470455, Note_off_c, 0, 62, 60
1, 470470, Poly_aftertouch_c, 0, 72, 0
1, 470470, Note_off_c, 0, 43, 60
1, 470488, Poly_aftertouch_c, 0, 40, 127
1, 470510, Note_on_c, 0, 53, 64
1, 470516, Note_off_c, 0, 67, 63
1, 470524, Poly_aftertouch_c, 0, 40, 0
1, 470530, Note_on_c, 0, 77, 82
1, 470530, Note_off_c, 0, 53, 64
1, 470554, Note_off_c, 0, 77, 60
1, 470555, Note_on_c, 0, 70, 32
1, 470604, Note_off_c, 0, 70, 42
1, 470618, Note_on_c, 0, 36, 97
1, 470628, Control_c, 0, 64, 116
1, 470631, Note_on_c, 0, 60, 110
1, 470632, Note_on_c, 0, 69, 28
1, 470643, Control_c, 0, 64, 94
1, 470658, Control_c, 0, 64, 82
1, 470687, Poly_aftertouch_c, 0, 43, 127
1, 470688, Control_c, 0, 64, 92
1, 470703, Control_c, 0, 64, 118
1, 470703, Note_off_c, 0, 36, 62
1, 470715, Poly_aftertouch_c, 0, 72, 127
1, 470717, Control_c, 0, 64, 127
1, 470718, Note_off_c, 0, 69, 33
1, 470726, Note_on_c, 0, 67, 80
1, 470735, Note_off_c, 0, 60, 58
1, 470737, Poly_aftertouch_c, 0, 70, 0
1, 470741, Poly_aftertouch_c, 0, 72, 0
1, 470791, Note_on_c, 0, 52, 69
1, 470810, Note_off_c, 0, 52, 67
1, 470811, Note_on_c, 0, 76, 82
1, 470819, Note_off_c, 0, 67, 61
1, 470831, Note_on_c, 0, 69, 14
1, 470846, Poly_aftertouch_c, 0, 43, 0
1, 470846, Note_off_c, 0, 76, 63
1, 470848, Note_on_c, 0, 70, 29
1, 470875, Note_off_c, 0, 69, 43
1, 470884, Note_off_c, 0, 70, 46
1, 470886, Note_on_c, 0, 36, 97
1, 470895, Control_c, 0, 64, 100
1, 470899, Note_on_c, 0, 60, 105
1, 470910, Control_c, 0, 64, 86
1, 470919, Note_on_c, 0, 68, 61
1, 470924, Control_c, 0, 64, 81
1, 470938, Control_c, 0, 64, 84
1, 470953, Control_c, 0, 64, 97
1, 470965, Note_off_c, 0, 68, 44
1, 470968, Control_c, 0, 64, 127
1, 470975, Note_off_c, 0, 36, 59
1, 470977, Note_on_c, 0, 41, 64
1, 470996, Note_on_c, 0, 65, 80
1, 471008, Note_off_c, 0, 60, 62
1, 471025, Note_off_c, 0, 41, 66
1, 471067, Note_off_c, 0, 65, 64
1, 471094, Note_on_c, 0, 52, 54
1, 471114, Note_on_c, 0, 75, 69
1, 471126, Note_off_c, 0, 52, 57
1, 471132, Note_off_c, 0, 75, 65
1, 471185, Note_on_c, 0, 35, 95
1, 471215, Note_on_c, 0, 59, 90
1, 471234, Note_on_c, 0, 57, 54
1, 471235, Note_off_c, 0, 57, 127
1, 471249, Note_off_c, 0, 35, 55
1, 471284, Note_on_c, 0, 36, 27
1, 471311, Note_off_c, 0, 36, 57
1, 471311, Note_off_c, 0, 59, 54
1, 471320, Note_on_c, 0, 66, 82
1, 471364, Note_off_c, 0, 66, 66
1, 471412, Note_on_c, 0, 75, 90
1, 471460, Poly_aftertouch_c, 0, 51, 0
1, 471476, Note_off_c, 0, 75, 64
1, 471562, Note_on_c, 0, 28, 102
1, 471569, Control_c, 0, 64, 95
1, 471570, Poly_aftertouch_c, 0, 32, 0
1, 471572, Note_on_c, 0, 60, 109
1, 471582, Note_on_c, 0, 30, 69
1, 471584, Control_c, 0, 64, 71
1, 471598, Note_on_c, 0, 70, 58
1, 471599, Control_c, 0, 64, 0
1, 471603, Note_on_c, 0, 72, 51
1, 471618, Note_off_c, 0, 70, 58
1, 471628, Control_c, 0, 64, 47
1, 471630, Note_off_c, 0, 72, 51
1, 471643, Control_c, 0, 64, 66
1, 471658, Control_c, 0, 64, 77
1, 471673, Control_c, 0, 64, 93
1, 471674, Note_off_c, 0, 28, 62
1, 471674, Note_off_c, 0, 60, 48
1, 471677, Note_off_c, 0, 30, 60
1, 471689, Control_c, 0, 64, 112
1, 471703, Control_c, 0, 64, 127
1, 471710, Note_on_c, 0, 40, 60
1, 471720, Note_on_c, 0, 69, 60
1, 471736, Note_off_c, 0, 40, 60
1, 471751, Note_off_c, 0, 69, 68
1, 471808, Note_on_c, 0, 76, 72
1, 471888, Note_on_c, 0, 40, 65
1, 471890, Note_on_c, 0, 64, 89
1, 471913, Note_off_c, 0, 40, 64
1, 471930, Note_on_c, 0, 48, 42
1, 471934, Note_off_c, 0, 76, 62
1, 471950, Note_off_c, 0, 64, 61
1, 471961, Note_off_c, 0, 48, 53
1, 471974, Note_on_c, 0, 72, 70
1, 471999, Note_off_c, 0, 72, 69
1, 472040, Note_on_c, 0, 57, 32
1, 472062, Note_on_c, 0, 81, 88
1, 472074, Note_off_c, 0, 57, 48
1, 472117, Note_on_c, 0, 45, 70
1, 472133, Note_on_c, 0, 69, 86
1, 472135, Note_off_c, 0, 81, 47
1, 472146, Note_off_c, 0, 45, 63
1, 472154, Note_on_c, 0, 52, 59
1, 472189, Note_off_c, 0, 52, 66
1, 472196, Note_off_c, 0, 69, 64
1, 472203, Note_on_c, 0, 76, 73
1, 472227, Note_off_c, 0, 76, 71
1, 472257, Note_on_c, 0, 60, 41
1, 472288, Note_off_c, 0, 60, 52
1, 472295, Note_on_c, 0, 84, 82
1, 472342, Note_on_c, 0, 48, 74
1, 472356, Note_off_c, 0, 84, 56
1, 472363, Note_on_c, 0, 72, 90
1, 472378, Note_off_c, 0, 48, 66
1, 472393, Note_on_c, 0, 57, 56
1, 472415, Note_off_c, 0, 57, 63
1, 472423, Note_off_c, 0, 72, 63
1, 472440, Note_on_c, 0, 81, 84
1, 472474, Note_off_c, 0, 81, 60
1, 472486, Note_on_c, 0, 64, 48
1, 472514, Note_off_c, 0, 64, 59
1, 472530, Note_on_c, 0, 88, 82
1, 472580, Note_on_c, 0, 52, 67
1, 472595, Note_on_c, 0, 76, 90
1, 472599, Note_on_c, 0, 60, 59
1, 472608, Note_off_c, 0, 52, 66
1, 472637, Note_off_c, 0, 88, 61
1, 472638, Note_off_c, 0, 60, 60
1, 472655, Note_off_c, 0, 76, 64
1, 472673, Note_on_c, 0, 84, 74
1, 472695, Note_off_c, 0, 84, 71
1, 472696, Poly_aftertouch_c, 0, 86, 0
1, 472753, Note_on_c, 0, 93, 91
1, 472772, Poly_aftertouch_c, 0, 69, 127
1, 472803, Poly_aftertouch_c, 0, 69, 0
1, 472804, Note_on_c, 0, 57, 63
1, 472809, Note_off_c, 0, 93, 58
1, 472828, Note_on_c, 0, 81, 88
1, 472834, Note_off_c, 0, 57, 65
1, 472837, Note_on_c, 0, 64, 50
1, 472861, Note_off_c, 0, 64, 62
1, 472885, Note_on_c, 0, 88, 73
1, 472897, Note_off_c, 0, 81, 62
1, 472928, Note_on_c, 0, 87, 16
1, 472937, Note_off_c, 0, 88, 64
1, 472962, Note_on_c, 0, 96, 87
1, 472972, Note_off_c, 0, 87, 29
1, 473008, Note_off_c, 0, 96, 61
1, 473066, Control_c, 0, 64, 110
1, 473081, Control_c, 0, 64, 83
1, 473096, Control_c, 0, 64, 39
1, 473111, Control_c, 0, 64, 0
1, 473132, Note_on_c, 0, 60, 87
1, 473138, Note_on_c, 0, 84, 91
1, 473141, Control_c, 0, 64, 66
1, 473156, Control_c, 0, 64, 80
1, 473171, Control_c, 0, 64, 110
1, 473186, Control_c, 0, 64, 127
1, 473186, Note_off_c, 0, 84, 66
1, 473225, Note_off_c, 0, 60, 54
1, 473302, Note_on_c, 0, 93, 82
1, 473313, Note_on_c, 0, 69, 46
1, 473317, Note_on_c, 0, 100, 106
1, 473331, Note_on_c, 0, 76, 76
1, 473343, Note_off_c, 0, 93, 64
1, 473346, Note_off_c, 0, 69, 53
1, 473356, Note_off_c, 0, 100, 68
1, 473362, Note_off_c, 0, 76, 72
1, 473979, Control_c, 0, 64, 116
1, 473993, Control_c, 0, 64, 81
1, 474008, Control_c, 0, 64, 0
1, 474249, Note_on_c, 0, 68, 114
1, 474253, Note_on_c, 0, 52, 82
1, 474268, Control_c, 0, 64, 127
1, 474274, Note_on_c, 0, 56, 72
1, 474310, Note_off_c, 0, 52, 62
1, 474379, Note_off_c, 0, 56, 0
1, 474379, Note_on_c, 0, 56, 15
1, 474418, Note_off_c, 0, 68, 54
1, 474435, Note_on_c, 0, 71, 79
1, 474443, Note_on_c, 0, 64, 96
1, 474448, Note_on_c, 0, 80, 101
1, 474453, Note_on_c, 0, 59, 53
1, 474465, Note_off_c, 0, 71, 64
1, 474469, Note_off_c, 0, 56, 57
1, 474476, Note_off_c, 0, 59, 57
1, 474479, Note_off_c, 0, 64, 70
1, 474492, Note_off_c, 0, 80, 68
1, 474551, Poly_aftertouch_c, 0, 74, 0
1, 475240, Control_c, 0, 64, 121
1, 475254, Control_c, 0, 64, 102
1, 475269, Control_c, 0, 64, 89
1, 475284, Control_c, 0, 64, 76
1, 475299, Control_c, 0, 64, 63
1, 475313, Control_c, 0, 64, 0
1, 475433, Control_c, 0, 64, 18
1, 475448, Control_c, 0, 64, 56
1, 475462, Control_c, 0, 64, 65
1, 475477, Control_c, 0, 64, 70
1, 475484, Note_on_c, 0, 69, 70
1, 475492, Control_c, 0, 64, 76
1, 475507, Control_c, 0, 64, 83
1, 475521, Control_c, 0, 64, 87
1, 475536, Control_c, 0, 64, 90
1, 475551, Note_off_c, 0, 69, 64
1, 475551, Control_c, 0, 64, 94
1, 475566, Control_c, 0, 64, 98
1, 475581, Control_c, 0, 64, 104
1, 475603, Control_c, 0, 64, 112
1, 475606, Note_on_c, 0, 81, 81
1, 475606, Note_on_c, 0, 72, 61
1, 475618, Control_c, 0, 64, 126
1, 475626, Note_off_c, 0, 72, 65
1, 475633, Control_c, 0, 64, 127
1, 475654, Note_off_c, 0, 81, 61
1, 475708, Note_on_c, 0, 81, 82
1, 475736, Control_c, 0, 64, 106
1, 475751, Control_c, 0, 64, 91
1, 475766, Control_c, 0, 64, 79
1, 475780, Note_on_c, 0, 45, 102
1, 475781, Control_c, 0, 64, 75
1, 475786, Note_on_c, 0, 33, 78
1, 475786, Note_on_c, 0, 84, 97
1, 475787, Note_on_c, 0, 93, 106
1, 475789, Note_off_c, 0, 81, 64
1, 475795, Control_c, 0, 64, 76
1, 475802, Note_off_c, 0, 84, 73
1, 475808, Note_off_c, 0, 33, 65
1, 475808, Note_off_c, 0, 45, 70
1, 475810, Control_c, 0, 64, 82
1, 475817, Note_off_c, 0, 93, 66
1, 475825, Control_c, 0, 64, 97
1, 475830, Note_on_c, 0, 90, 18
1, 475831, Note_off_c, 0, 90, 127
1, 475840, Control_c, 0, 64, 113
1, 475855, Control_c, 0, 64, 127
1, 476016, Note_on_c, 0, 60, 90
1, 476017, Note_on_c, 0, 72, 99
1, 476031, Note_off_c, 0, 72, 77
1, 476049, Note_off_c, 0, 60, 63
1, 476124, Note_on_c, 0, 75, 104
1, 476124, Note_on_c, 0, 87, 95
1, 476137, Note_on_c, 0, 80, 70
1, 476150, Note_on_c, 0, 83, 58
1, 476186, Note_off_c, 0, 75, 61
1, 476190, Note_off_c, 0, 80, 0
1, 476190, Note_off_c, 0, 87, 61
1, 476210, Note_off_c, 0, 83, 46
1, 476211, Control_c, 0, 64, 98
1, 476226, Control_c, 0, 64, 81
1, 476233, Poly_aftertouch_c, 0, 80, 0
1, 476241, Control_c, 0, 64, 68
1, 476251, Note_on_c, 0, 52, 100
1, 476256, Control_c, 0, 64, 66
1, 476258, Note_on_c, 0, 76, 101
1, 476259, Note_on_c, 0, 88, 101
1, 476262, Note_on_c, 0, 40, 78
1, 476270, Note_on_c, 0, 42, 60
1, 476271, Poly_aftertouch_c, 0, 80, 127
1, 476271, Control_c, 0, 64, 73
1, 476274, Note_off_c, 0, 52, 71
1, 476276, Note_off_c, 0, 88, 65
1, 476278, Poly_aftertouch_c, 0, 80, 0
1, 476282, Note_off_c, 0, 40, 64
1, 476285, Control_c, 0, 64, 84
1, 476294, Note_off_c, 0, 42, 58
1, 476298, Note_off_c, 0, 76, 70
1, 476300, Note_on_c, 0, 86, 49
1, 476300, Control_c, 0, 64, 98
1, 476302, Note_on_c, 0, 41, 23
1, 476315, Control_c, 0, 64, 108
1, 476325, Note_off_c, 0, 86, 57
1, 476330, Control_c, 0, 64, 113
1, 476351, Control_c, 0, 64, 117
1, 476355, Note_off_c, 0, 41, 45
1, 476366, Control_c, 0, 64, 122
1, 476381, Control_c, 0, 64, 127
1, 476406, Note_on_c, 0, 66, 84
1, 476408, Note_on_c, 0, 54, 90
1, 476424, Note_off_c, 0, 66, 74
1, 476429, Note_off_c, 0, 54, 67
1, 476508, Note_on_c, 0, 68, 108
1, 476511, Note_on_c, 0, 80, 104
1, 476521, Note_on_c, 0, 72, 69
1, 476541, Note_on_c, 0, 76, 37
1, 476541, Note_off_c, 0, 72, 62
1, 476566, Note_off_c, 0, 68, 62
1, 476572, Note_off_c, 0, 76, 49
1, 476575, Note_off_c, 0, 80, 63
1, 476589, Control_c, 0, 64, 105
1, 476604, Control_c, 0, 64, 84
1, 476618, Control_c, 0, 64, 66
1, 476620, Note_on_c, 0, 45, 100
1, 476623, Note_on_c, 0, 33, 94
1, 476627, Note_on_c, 0, 69, 106
1, 476631, Note_on_c, 0, 81, 97
1, 476633, Control_c, 0, 64, 58
1, 476644, Note_off_c, 0, 33, 68
1, 476645, Note_off_c, 0, 45, 68
1, 476648, Control_c, 0, 64, 69
1, 476661, Note_on_c, 0, 78, 49
1, 476661, Note_off_c, 0, 81, 62
1, 476664, Control_c, 0, 64, 81
1, 476664, Note_on_c, 0, 39, 15
1, 476679, Control_c, 0, 64, 100
1, 476681, Note_off_c, 0, 69, 68
1, 476685, Note_off_c, 0, 78, 37
1, 476694, Control_c, 0, 64, 127
1, 476711, Note_off_c, 0, 39, 40
1, 476751, Poly_aftertouch_c, 0, 33, 127
1, 476771, Note_on_c, 0, 50, 81
1, 476778, Note_on_c, 0, 62, 59
1, 476787, Poly_aftertouch_c, 0, 33, 0
1, 476788, Note_off_c, 0, 50, 66
1, 476799, Note_off_c, 0, 62, 62
1, 476864, Note_on_c, 0, 60, 101
1, 476866, Note_on_c, 0, 72, 90
1, 476902, Note_on_c, 0, 64, 43
1, 476907, Note_off_c, 0, 72, 64
1, 476919, Note_off_c, 0, 60, 57
1, 476936, Note_off_c, 0, 64, 53
1, 476937, Poly_aftertouch_c, 0, 68, 127
1, 476959, Control_c, 0, 64, 125
1, 476974, Control_c, 0, 64, 100
1, 476975, Poly_aftertouch_c, 0, 68, 0
1, 476989, Note_on_c, 0, 40, 101
1, 476989, Note_on_c, 0, 59, 86
1, 476989, Control_c, 0, 64, 89
1, 476989, Note_on_c, 0, 71, 89
1, 476992, Note_on_c, 0, 68, 56
1, 476994, Note_on_c, 0, 28, 92
1, 477004, Control_c, 0, 64, 87
1, 477007, Note_off_c, 0, 59, 63
1, 477009, Note_on_c, 0, 64, 55
1, 477010, Note_on_c, 0, 30, 56
1, 477014, Note_off_c, 0, 28, 63
1, 477016, Note_off_c, 0, 40, 68
1, 477019, Control_c, 0, 64, 87
1, 477025, Note_off_c, 0, 68, 65
1, 477031, Note_off_c, 0, 64, 58
1, 477032, Note_off_c, 0, 71, 64
1, 477033, Control_c, 0, 64, 93
1, 477042, Note_off_c, 0, 30, 52
1, 477048, Control_c, 0, 64, 109
1, 477063, Control_c, 0, 64, 127
1, 477075, Poly_aftertouch_c, 0, 29, 127
1, 477125, Poly_aftertouch_c, 0, 29, 0
1, 477126, Note_on_c, 0, 52, 92
1, 477135, Note_on_c, 0, 40, 84
1, 477145, Note_off_c, 0, 52, 74
1, 477165, Note_off_c, 0, 40, 65
1, 477167, Note_on_c, 0, 73, 36
1, 477171, Note_on_c, 0, 42, 23
1, 477195, Note_off_c, 0, 73, 54
1, 477212, Note_off_c, 0, 42, 41
1, 477225, Note_on_c, 0, 80, 101
1, 477226, Note_on_c, 0, 68, 103
1, 477240, Note_on_c, 0, 73, 58
1, 477262, Note_off_c, 0, 73, 63
1, 477276, Note_on_c, 0, 81, 26
1, 477293, Note_off_c, 0, 68, 65
1, 477294, Note_off_c, 0, 80, 64
1, 477315, Note_off_c, 0, 81, 38
1, 477322, Control_c, 0, 64, 97
1, 477337, Control_c, 0, 64, 78
1, 477350, Note_on_c, 0, 45, 107
1, 477352, Control_c, 0, 64, 60
1, 477354, Note_on_c, 0, 33, 102
1, 477355, Note_on_c, 0, 69, 103
1, 477356, Note_on_c, 0, 81, 97
1, 477364, Note_on_c, 0, 76, 36
1, 477366, Control_c, 0, 64, 63
1, 477373, Note_on_c, 0, 72, 57
1, 477373, Note_on_c, 0, 78, 64
1, 477373, Note_off_c, 0, 33, 70
1, 477380, Note_off_c, 0, 45, 68
1, 477381, Control_c, 0, 64, 75
1, 477382, Note_off_c, 0, 76, 52
1, 477390, Note_off_c, 0, 78, 64
1, 477392, Note_off_c, 0, 81, 62
1, 477396, Control_c, 0, 64, 91
1, 477400, Note_off_c, 0, 72, 65
1, 477406, Note_on_c, 0, 35, 20
1, 477411, Control_c, 0, 64, 117
1, 477413, Note_off_c, 0, 69, 70
1, 477426, Control_c, 0, 64, 127
1, 477434, Poly_aftertouch_c, 0, 37, 0
1, 477452, Note_off_c, 0, 35, 44
1, 477474, Poly_aftertouch_c, 0, 37, 0
1, 477489, Poly_aftertouch_c, 0, 33, 127
1, 477500, Note_on_c, 0, 48, 73
1, 477502, Note_on_c, 0, 59, 61
1, 477509, Note_on_c, 0, 47, 63
1, 477516, Poly_aftertouch_c, 0, 33, 0
1, 477517, Note_on_c, 0, 60, 37
1, 477524, Note_off_c, 0, 59, 59
1, 477528, Note_off_c, 0, 48, 67
1, 477533, Note_off_c, 0, 47, 64
1, 477547, Note_off_c, 0, 60, 55
1, 477580, Note_on_c, 0, 63, 103
1, 477587, Note_on_c, 0, 75, 98
1, 477600, Note_on_c, 0, 68, 66
1, 477600, Note_on_c, 0, 71, 60
1, 477626, Note_off_c, 0, 63, 64
1, 477637, Note_off_c, 0, 75, 64
1, 477658, Note_off_c, 0, 68, 37
1, 477661, Note_off_c, 0, 71, 52
1, 477663, Control_c, 0, 64, 107
1, 477678, Control_c, 0, 64, 87
1, 477690, Note_on_c, 0, 64, 105
1, 477691, Note_on_c, 0, 76, 103
1, 477693, Control_c, 0, 64, 71
1, 477696, Note_on_c, 0, 68, 59
1, 477697, Note_on_c, 0, 40, 91
1, 477698, Note_on_c, 0, 41, 92
1, 477699, Note_on_c, 0, 28, 93
1, 477700, Note_on_c, 0, 71, 44
1, 477708, Control_c, 0, 64, 67
1, 477708, Note_on_c, 0, 30, 62
1, 477709, Note_off_c, 0, 30, 127
1, 477710, Note_on_c, 0, 29, 67
1, 477715, Note_off_c, 0, 68, 64
1, 477718, Note_off_c, 0, 40, 68
1, 477720, Note_off_c, 0, 41, 70
1, 477721, Note_off_c, 0, 28, 63
1, 477721, Note_off_c, 0, 71, 56
1, 477722, Note_off_c, 0, 76, 69
1, 477723, Control_c, 0, 64, 77
1, 477735, Note_on_c, 0, 32, 10
1, 477736, Note_on_c, 0, 74, 64
1, 477738, Control_c, 0, 64, 93
1, 477741, Note_off_c, 0, 29, 54
1, 477746, Note_off_c, 0, 64, 64
1, 477752, Note_off_c, 0, 74, 66
1, 477752, Control_c, 0, 64, 123
1, 477767, Control_c, 0, 64, 127
1, 477785, Note_off_c, 0, 32, 46
1, 477818, Note_on_c, 0, 54, 98
1, 477823, Note_on_c, 0, 42, 88
1, 477843, Note_off_c, 0, 54, 71
1, 477855, Note_off_c, 0, 42, 67
1, 477856, Note_on_c, 0, 44, 43
1, 477857, Note_off_c, 0, 44, 127
1, 477914, Note_on_c, 0, 56, 102
1, 477917, Note_on_c, 0, 68, 101
1, 477932, Note_on_c, 0, 64, 52
1, 477944, Note_on_c, 0, 60, 42
1, 477962, Note_off_c, 0, 56, 63
1, 477973, Note_off_c, 0, 68, 63
1, 477978, Note_off_c, 0, 64, 53
1, 477996, Note_off_c, 0, 60, 46
1, 478012, Control_c, 0, 64, 106
1, 478027, Control_c, 0, 64, 86
1, 478036, Note_on_c, 0, 57, 102
1, 478037, Note_on_c, 0, 45, 106
1, 478040, Note_on_c, 0, 69, 100
1, 478042, Control_c, 0, 64, 70
1, 478043, Note_on_c, 0, 33, 105
1, 478056, Note_on_c, 0, 66, 72
1, 478056, Control_c, 0, 64, 62
1, 478063, Note_off_c, 0, 33, 68
1, 478069, Note_off_c, 0, 45, 63
1, 478071, Control_c, 0, 64, 68
1, 478072, Note_off_c, 0, 66, 68
1, 478076, Note_off_c, 0, 69, 64
1, 478082, Note_on_c, 0, 61, 11
1, 478083, Note_on_c, 0, 67, 58
1, 478086, Control_c, 0, 64, 79
1, 478088, Note_on_c, 0, 35, 17
1, 478101, Control_c, 0, 64, 92
1, 478101, Note_off_c, 0, 57, 59
1, 478104, Note_off_c, 0, 67, 60
1, 478115, Control_c, 0, 64, 108
1, 478120, Poly_aftertouch_c, 0, 37, 0
1, 478120, Note_off_c, 0, 61, 54
1, 478130, Control_c, 0, 64, 119
1, 478131, Note_off_c, 0, 35, 53
1, 478145, Control_c, 0, 64, 127
1, 478152, Note_on_c, 0, 33, 3
1, 478158, Note_on_c, 0, 52, 94
1, 478162, Poly_aftertouch_c, 0, 37, 0
1, 478165, Note_on_c, 0, 40, 85
1, 478165, Note_off_c, 0, 33, 65
1, 478175, Note_off_c, 0, 52, 75
1, 478191, Note_off_c, 0, 40, 66
1, 478258, Poly_aftertouch_c, 0, 56, 0
1, 478265, Note_on_c, 0, 48, 101
1, 478265, Note_on_c, 0, 60, 89
1, 478286, Note_on_c, 0, 58, 57
1, 478293, Note_on_c, 0, 52, 56
1, 478295, Poly_aftertouch_c, 0, 56, 127
1, 478307, Note_off_c, 0, 60, 61
1, 478307, Note_off_c, 0, 58, 39
1, 478310, Note_off_c, 0, 48, 62
1, 478332, Note_off_c, 0, 52, 65
1, 478355, Poly_aftertouch_c, 0, 56, 0
1, 478368, Control_c, 0, 64, 103
1, 478377, Note_on_c, 0, 47, 101
1, 478378, Note_on_c, 0, 56, 35
1, 478378, Note_on_c, 0, 40, 109
1, 478383, Control_c, 0, 64, 84
1, 478384, Note_on_c, 0, 28, 93
1, 478384, Note_on_c, 0, 59, 80
1, 478396, Note_on_c, 0, 52, 69
1, 478398, Control_c, 0, 64, 74
1, 478399, Note_off_c, 0, 47, 69
1, 478403, Note_off_c, 0, 40, 66
1, 478405, Note_off_c, 0, 28, 64
1, 478406, Note_on_c, 0, 30, 46
1, 478407, Note_off_c, 0, 30, 127
1, 478412, Control_c, 0, 64, 75
1, 478423, Note_off_c, 0, 52, 67
1, 478428, Control_c, 0, 64, 82
1, 478439, Note_off_c, 0, 59, 65
1, 478441, Poly_aftertouch_c, 0, 30, 0
1, 478443, Control_c, 0, 64, 96
1, 478444, Note_off_c, 0, 56, 62
1, 478458, Control_c, 0, 64, 122
1, 478473, Control_c, 0, 64, 127
1, 478542, Note_on_c, 0, 38, 62
1, 478560, Note_on_c, 0, 50, 28
1, 478566, Note_off_c, 0, 38, 61
1, 478606, Note_off_c, 0, 50, 43
1, 478620, Poly_aftertouch_c, 0, 52, 0
1, 478629, Note_on_c, 0, 85, 37
1, 478655, Note_off_c, 0, 85, 48
1, 478675, Note_on_c, 0, 80, 106
1, 478676, Note_on_c, 0, 92, 109
1, 478697, Note_on_c, 0, 85, 42
1, 478703, Poly_aftertouch_c, 0, 88, 127
1, 478724, Note_off_c, 0, 85, 47
1, 478748, Note_off_c, 0, 92, 64
1, 478754, Note_off_c, 0, 80, 61
1, 478791, Control_c, 0, 64, 90
1, 478805, Poly_aftertouch_c, 0, 88, 0
1, 478806, Note_on_c, 0, 45, 104
1, 478806, Control_c, 0, 64, 75
1, 478813, Note_on_c, 0, 81, 107
1, 478816, Note_on_c, 0, 33, 75
1, 478817, Note_on_c, 0, 88, 46
1, 478817, Note_on_c, 0, 93, 101
1, 478818, Note_on_c, 0, 85, 58
1, 478820, Control_c, 0, 64, 72
1, 478827, Note_off_c, 0, 45, 70
1, 478831, Note_off_c, 0, 93, 71
1, 478835, Control_c, 0, 64, 84
1, 478836, Note_off_c, 0, 85, 65
1, 478840, Note_off_c, 0, 33, 63
1, 478843, Note_off_c, 0, 88, 66
1, 478850, Control_c, 0, 64, 106
1, 478860, Note_off_c, 0, 81, 67
1, 478863, Note_on_c, 0, 35, 9
1, 478865, Control_c, 0, 64, 127
1, 478877, Note_on_c, 0, 91, 19
1, 478878, Note_off_c, 0, 91, 127
1, 478901, Note_off_c, 0, 35, 50
1, 478981, Note_on_c, 0, 64, 95
1, 478987, Note_on_c, 0, 76, 69
1, 478989, Note_on_c, 0, 78, 49
1, 478995, Note_on_c, 0, 74, 55
1, 478998, Note_off_c, 0, 64, 74
1, 479003, Note_off_c, 0, 76, 68
1, 479010, Note_off_c, 0, 78, 61
1, 479014, Note_off_c, 0, 74, 65
1, 479042, Note_on_c, 0, 73, 101
1, 479047, Note_on_c, 0, 85, 85
1, 479074, Note_off_c, 0, 85, 67
1, 479095, Note_off_c, 0, 73, 64
1, 479162, Control_c, 0, 64, 110
1, 479174, Note_on_c, 0, 50, 102
1, 479177, Control_c, 0, 64, 86
1, 479177, Note_on_c, 0, 69, 103
1, 479177, Note_on_c, 0, 74, 66
1, 479179, Note_on_c, 0, 38, 99
1, 479180, Note_on_c, 0, 81, 103
1, 479190, Note_on_c, 0, 77, 73
1, 479192, Control_c, 0, 64, 71
1, 479202, Note_off_c, 0, 38, 69
1, 479205, Note_off_c, 0, 50, 65
1, 479207, Control_c, 0, 64, 69
1, 479221, Note_off_c, 0, 81, 64
1, 479222, Control_c, 0, 64, 78
1, 479222, Note_on_c, 0, 40, 35
1, 479234, Note_off_c, 0, 77, 60
1, 479236, Control_c, 0, 64, 93
1, 479248, Note_off_c, 0, 74, 63
1, 479251, Control_c, 0, 64, 118
1, 479253, Note_off_c, 0, 40, 54
1, 479259, Note_off_c, 0, 69, 58
1, 479266, Control_c, 0, 64, 127
1, 479305, Note_on_c, 0, 65, 94
1, 479308, Note_on_c, 0, 53, 88
1, 479324, Note_off_c, 0, 65, 73
1, 479338, Note_off_c, 0, 53, 72
1, 479396, Note_on_c, 0, 62, 98
1, 479400, Note_on_c, 0, 74, 77
1, 479411, Note_on_c, 0, 72, 75
1, 479412, Poly_aftertouch_c, 0, 56, 0
1, 479416, Note_off_c, 0, 74, 72
1, 479434, Note_off_c, 0, 72, 71
1, 479435, Note_off_c, 0, 62, 62
1, 479510, Control_c, 0, 64, 116
1, 479516, Note_on_c, 0, 43, 103
1, 479520, Note_on_c, 0, 31, 95
1, 479525, Control_c, 0, 64, 92
1, 479528, Note_on_c, 0, 59, 98
1, 479529, Note_on_c, 0, 71, 95
1, 479532, Note_on_c, 0, 62, 78
1, 479540, Control_c, 0, 64, 79
1, 479542, Note_on_c, 0, 67, 70
1, 479542, Note_off_c, 0, 31, 67
1, 479553, Note_off_c, 0, 43, 64
1, 479554, Note_on_c, 0, 34, 30
1, 479555, Note_off_c, 0, 34, 127
1, 479555, Control_c, 0, 64, 75
1, 479559, Note_on_c, 0, 33, 36
1, 479569, Control_c, 0, 64, 79
1, 479579, Note_off_c, 0, 67, 52
1, 479580, Note_off_c, 0, 71, 56
1, 479584, Control_c, 0, 64, 87
1, 479591, Note_off_c, 0, 33, 59
1, 479599, Control_c, 0, 64, 102
1, 479604, Note_on_c, 0, 69, 31
1, 479612, Note_off_c, 0, 59, 55
1, 479614, Control_c, 0, 64, 127
1, 479621, Note_off_c, 0, 62, 60
1, 479629, Note_off_c, 0, 69, 55
1, 479641, Note_on_c, 0, 55, 97
1, 479647, Note_on_c, 0, 43, 92
1, 479657, Note_off_c, 0, 55, 74
1, 479671, Note_off_c, 0, 43, 67
1, 479722, Note_on_c, 0, 53, 104
1, 479724, Note_on_c, 0, 65, 101
1, 479752, Note_on_c, 0, 63, 49
1, 479762, Note_off_c, 0, 65, 67
1, 479767, Note_off_c, 0, 53, 61
1, 479776, Note_off_c, 0, 63, 59
1, 479851, Control_c, 0, 64, 115
1, 479854, Note_on_c, 0, 36, 110
1, 479857, Note_on_c, 0, 52, 100
1, 479858, Note_on_c, 0, 64, 94
1, 479859, Note_on_c, 0, 55, 78
1, 479862, Note_on_c, 0, 24, 94
1, 479866, Control_c, 0, 64, 89
1, 479868, Note_on_c, 0, 26, 75
1, 479868, Note_on_c, 0, 27, 68
1, 479872, Note_on_c, 0, 60, 79
1, 479877, Note_off_c, 0, 36, 72
1, 479881, Control_c, 0, 64, 71
1, 479884, Note_on_c, 0, 53, 51
1, 479889, Note_off_c, 0, 24, 61
1, 479895, Note_off_c, 0, 26, 59
1, 479896, Note_off_c, 0, 27, 56
1, 479896, Control_c, 0, 64, 62
1, 479905, Note_off_c, 0, 53, 68
1, 479911, Control_c, 0, 64, 66
1, 479921, Note_off_c, 0, 64, 63
1, 479926, Control_c, 0, 64, 75
1, 479937, Note_off_c, 0, 60, 60
1, 479940, Control_c, 0, 64, 88
1, 479955, Note_off_c, 0, 55, 62
1, 479955, Control_c, 0, 64, 98
1, 479956, Note_off_c, 0, 52, 63
1, 479970, Control_c, 0, 64, 104
1, 479977, Note_on_c, 0, 47, 96
1, 479984, Note_on_c, 0, 36, 82
1, 479985, Control_c, 0, 64, 107
1, 479996, Note_off_c, 0, 47, 70
1, 480000, Control_c, 0, 64, 108
1, 480005, Note_off_c, 0, 36, 66
1, 480015, Control_c, 0, 64, 110
1, 480030, Control_c, 0, 64, 114
1, 480045, Control_c, 0, 64, 121
1, 480055, Poly_aftertouch_c, 0, 42, 127
1, 480057, Note_on_c, 0, 47, 63
1, 480059, Control_c, 0, 64, 127
1, 480064, Note_on_c, 0, 59, 96
1, 480090, Note_on_c, 0, 51, 63
1, 480097, Note_on_c, 0, 48, 46
1, 480097, Poly_aftertouch_c, 0, 42, 0
1, 480111, Note_off_c, 0, 51, 61
1, 480125, Note_off_c, 0, 48, 56
1, 480170, Control_c, 0, 64, 105
1, 480182, Note_off_c, 0, 59, 54
1, 480185, Control_c, 0, 64, 83
1, 480194, Note_on_c, 0, 41, 113
1, 480197, Note_on_c, 0, 29, 95
1, 480200, Control_c, 0, 64, 65
1, 480215, Control_c, 0, 64, 13
1, 480230, Control_c, 0, 64, 60
1, 480240, Note_on_c, 0, 31, 46
1, 480244, Note_off_c, 0, 47, 37
1, 480244, Control_c, 0, 64, 68
1, 480246, Note_on_c, 0, 32, 17
1, 480259, Control_c, 0, 64, 76
1, 480274, Control_c, 0, 64, 86
1, 480280, Note_off_c, 0, 31, 60
1, 480284, Note_off_c, 0, 41, 65
1, 480289, Control_c, 0, 64, 93
1, 480290, Note_on_c, 0, 57, 76
1, 480293, Note_on_c, 0, 53, 76
1, 480295, Note_off_c, 0, 32, 50
1, 480299, Note_off_c, 0, 29, 63
1, 480304, Control_c, 0, 64, 96
1, 480314, Note_off_c, 0, 57, 68
1, 480318, Control_c, 0, 64, 100
1, 480320, Note_off_c, 0, 53, 70
1, 480333, Control_c, 0, 64, 104
1, 480348, Control_c, 0, 64, 110
1, 480363, Control_c, 0, 64, 118
1, 480376, Note_on_c, 0, 38, 92
1, 480378, Control_c, 0, 64, 127
1, 480388, Note_on_c, 0, 26, 66
1, 480397, Note_off_c, 0, 38, 66
1, 480403, Note_on_c, 0, 27, 44
1, 480404, Note_off_c, 0, 27, 127
1, 480420, Note_on_c, 0, 71, 99
1, 480420, Note_off_c, 0, 26, 57
1, 480423, Note_on_c, 0, 59, 92
1, 480444, Poly_aftertouch_c, 0, 27, 0
1, 480444, Note_off_c, 0, 59, 63
1, 480466, Note_on_c, 0, 68, 15
1, 480510, Control_c, 0, 64, 117
1, 480513, Note_off_c, 0, 68, 49
1, 480517, Note_off_c, 0, 71, 53
1, 480524, Note_on_c, 0, 55, 113
1, 480525, Control_c, 0, 64, 93
1, 480528, Note_on_c, 0, 43, 101
1, 480540, Control_c, 0, 64, 79
1, 480555, Control_c, 0, 64, 72
1, 480558, Note_on_c, 0, 46, 46
1, 480559, Note_off_c, 0, 46, 127
1, 480584, Control_c, 0, 64, 76
1, 480599, Control_c, 0, 64, 84
1, 480614, Control_c, 0, 64, 91
1, 480616, Note_off_c, 0, 55, 60
1, 480617, Note_on_c, 0, 59, 81
1, 480624, Note_on_c, 0, 71, 82
1, 480625, Note_on_c, 0, 67, 78
1, 480626, Note_off_c, 0, 43, 62
1, 480629, Control_c, 0, 64, 95
1, 480635, Note_off_c, 0, 59, 72
1, 480644, Control_c, 0, 64, 98
1, 480653, Note_on_c, 0, 68, 32
1, 480656, Poly_aftertouch_c, 0, 45, 0
1, 480660, Control_c, 0, 64, 100
1, 480662, Note_off_c, 0, 67, 63
1, 480665, Note_off_c, 0, 71, 60
1, 480674, Control_c, 0, 64, 103
1, 480686, Note_off_c, 0, 68, 54
1, 480689, Control_c, 0, 64, 108
1, 480704, Control_c, 0, 64, 116
1, 480706, Note_on_c, 0, 52, 98
1, 480718, Control_c, 0, 64, 127
1, 480723, Note_on_c, 0, 40, 66
1, 480726, Note_off_c, 0, 52, 73
1, 480745, Note_off_c, 0, 40, 64
1, 480753, Note_on_c, 0, 42, 15
1, 480771, Note_on_c, 0, 84, 101
1, 480772, Note_on_c, 0, 72, 93
1, 480795, Note_off_c, 0, 42, 45
1, 480801, Note_on_c, 0, 82, 48
1, 480833, Note_off_c, 0, 82, 58
1, 480874, Control_c, 0, 64, 122
1, 480878, Note_off_c, 0, 84, 58
1, 480883, Note_on_c, 0, 69, 112
1, 480885, Note_on_c, 0, 57, 104
1, 480888, Control_c, 0, 64, 89
1, 480903, Control_c, 0, 64, 70
1, 480911, Note_off_c, 0, 72, 22
1, 480916, Note_on_c, 0, 67, 41
1, 480918, Control_c, 0, 64, 53
1, 480933, Control_c, 0, 64, 64
1, 480948, Control_c, 0, 64, 74
1, 480957, Note_off_c, 0, 67, 33
1, 480963, Control_c, 0, 64, 86
1, 480964, Note_off_c, 0, 69, 62
1, 480969, Note_off_c, 0, 57, 63
1, 480973, Note_on_c, 0, 72, 89
1, 480978, Note_on_c, 0, 84, 92
1, 480978, Control_c, 0, 64, 104
1, 480981, Note_on_c, 0, 81, 83
1, 480990, Note_off_c, 0, 72, 75
1, 480993, Control_c, 0, 64, 123
1, 481007, Control_c, 0, 64, 127
1, 481019, Note_off_c, 0, 81, 60
1, 481019, Note_off_c, 0, 84, 67
1, 481067, Note_on_c, 0, 65, 90
1, 481079, Note_on_c, 0, 53, 64
1, 481088, Note_off_c, 0, 65, 70
1, 481102, Note_off_c, 0, 53, 63
1, 481155, Note_on_c, 0, 98, 106
1, 481159, Note_on_c, 0, 86, 101
1, 481263, Note_off_c, 0, 86, 58
1, 481286, Note_off_c, 0, 98, 57
1, 481300, Note_on_c, 0, 71, 86
1, 481300, Note_on_c, 0, 83, 108
1, 481302, Note_on_c, 0, 74, 83
1, 481332, Control_c, 0, 64, 101
1, 481341, Note_on_c, 0, 72, 41
1, 481347, Control_c, 0, 64, 83
1, 481362, Control_c, 0, 64, 72
1, 481377, Control_c, 0, 64, 74
1, 481385, Note_off_c, 0, 83, 57
1, 481392, Note_off_c, 0, 71, 59
1, 481392, Control_c, 0, 64, 81
1, 481407, Control_c, 0, 64, 91
1, 481416, Note_on_c, 0, 95, 94
1, 481416, Note_on_c, 0, 98, 101
1, 481417, Note_on_c, 0, 86, 109
1, 481418, Note_off_c, 0, 72, 37
1, 481422, Note_off_c, 0, 74, 60
1, 481422, Control_c, 0, 64, 106
1, 481437, Control_c, 0, 64, 127
1, 481447, Note_on_c, 0, 91, 50
1, 481452, Note_on_c, 0, 94, 44
1, 481471, Note_off_c, 0, 91, 39
1, 481482, Note_off_c, 0, 94, 35
1, 481568, Note_off_c, 0, 98, 60
1, 481617, Note_off_c, 0, 95, 56
1, 481657, Note_off_c, 0, 86, 58
1, 482063, Note_on_c, 0, 47, 112
1, 482068, Control_c, 0, 64, 106
1, 482069, Note_on_c, 0, 35, 103
1, 482082, Control_c, 0, 64, 88
1, 482097, Control_c, 0, 64, 74
1, 482102, Note_on_c, 0, 37, 39
1, 482103, Note_off_c, 0, 37, 127
1, 482112, Control_c, 0, 64, 64
1, 482127, Control_c, 0, 64, 64
1, 482142, Control_c, 0, 64, 70
1, 482156, Control_c, 0, 64, 75
1, 482171, Control_c, 0, 64, 82
1, 482176, Note_on_c, 0, 62, 62
1, 482185, Poly_aftertouch_c, 0, 36, 0
1, 482186, Control_c, 0, 64, 88
1, 482194, Note_off_c, 0, 47, 57
1, 482196, Note_on_c, 0, 59, 59
1, 482201, Note_off_c, 0, 35, 63
1, 482201, Control_c, 0, 64, 92
1, 482210, Note_off_c, 0, 62, 63
1, 482216, Control_c, 0, 64, 95
1, 482217, Note_off_c, 0, 59, 62
1, 482230, Control_c, 0, 64, 98
1, 482245, Control_c, 0, 64, 102
1, 482261, Control_c, 0, 64, 108
1, 482276, Control_c, 0, 64, 115
1, 482284, Note_on_c, 0, 45, 63
1, 482286, Note_on_c, 0, 33, 61
1, 482291, Control_c, 0, 64, 127
1, 482306, Note_on_c, 0, 43, 34
1, 482309, Note_off_c, 0, 45, 61
1, 482316, Note_off_c, 0, 33, 56
1, 482325, Note_on_c, 0, 76, 92
1, 482337, Note_on_c, 0, 64, 89
1, 482355, Note_off_c, 0, 43, 47
1, 482382, Note_off_c, 0, 64, 59
1, 482423, Note_on_c, 0, 60, 109
1, 482429, Note_on_c, 0, 48, 102
1, 482432, Control_c, 0, 64, 114
1, 482447, Control_c, 0, 64, 96
1, 482461, Control_c, 0, 64, 86
1, 482474, Note_off_c, 0, 76, 58
1, 482476, Control_c, 0, 64, 83
1, 482505, Control_c, 0, 64, 84
1, 482510, Note_on_c, 0, 64, 71
1, 482517, Note_off_c, 0, 60, 54
1, 482520, Control_c, 0, 64, 89
1, 482525, Note_on_c, 0, 76, 48
1, 482528, Note_on_c, 0, 72, 76
1, 482534, Note_off_c, 0, 48, 60
1, 482534, Note_off_c, 0, 64, 70
1, 482535, Control_c, 0, 64, 96
1, 482550, Control_c, 0, 64, 101
1, 482565, Control_c, 0, 64, 104
1, 482570, Note_off_c, 0, 72, 63
1, 482571, Note_off_c, 0, 76, 65
1, 482579, Control_c, 0, 64, 108
1, 482594, Control_c, 0, 64, 112
1, 482608, Note_on_c, 0, 57, 89
1, 482609, Control_c, 0, 64, 119
1, 482617, Note_on_c, 0, 45, 76
1, 482624, Control_c, 0, 64, 127
1, 482635, Note_off_c, 0, 45, 67
1, 482635, Note_off_c, 0, 57, 66
1, 482673, Note_on_c, 0, 89, 96
1, 482678, Note_on_c, 0, 77, 92
1, 482689, Note_on_c, 0, 88, 62
1, 482706, Note_off_c, 0, 77, 56
1, 482710, Note_off_c, 0, 88, 38
1, 482772, Note_off_c, 0, 89, 35
1, 482772, Control_c, 0, 64, 117
1, 482773, Note_on_c, 0, 74, 100
1, 482777, Note_on_c, 0, 62, 102
1, 482787, Control_c, 0, 64, 93
1, 482802, Control_c, 0, 64, 76
1, 482817, Control_c, 0, 64, 72
1, 482832, Control_c, 0, 64, 76
1, 482847, Control_c, 0, 64, 86
1, 482861, Control_c, 0, 64, 99
1, 482862, Note_on_c, 0, 77, 70
1, 482869, Note_off_c, 0, 74, 59
1, 482875, Note_on_c, 0, 89, 88
1, 482876, Note_on_c, 0, 86, 77
1, 482876, Control_c, 0, 64, 115
1, 482877, Note_off_c, 0, 62, 58
1, 482886, Note_off_c, 0, 77, 67
1, 482891, Control_c, 0, 64, 127
1, 482918, Note_off_c, 0, 86, 64
1, 482921, Note_off_c, 0, 89, 67
1, 482954, Note_on_c, 0, 71, 87
1, 482981, Note_on_c, 0, 59, 43
1, 482987, Note_off_c, 0, 71, 60
1, 483008, Note_off_c, 0, 59, 55
1, 483038, Note_on_c, 0, 103, 106
1, 483040, Note_on_c, 0, 91, 98
1, 483064, Note_on_c, 0, 101, 59
1, 483065, Note_off_c, 0, 101, 127
1, 483187, Note_on_c, 0, 79, 43
1, 483193, Note_on_c, 0, 76, 79
1, 483196, Note_off_c, 0, 91, 49
1, 483199, Note_on_c, 0, 88, 108
1, 483204, Note_off_c, 0, 103, 52
1, 483223, Control_c, 0, 64, 126
1, 483228, Note_on_c, 0, 77, 59
1, 483238, Control_c, 0, 64, 101
1, 483253, Control_c, 0, 64, 91
1, 483264, Note_off_c, 0, 76, 67
1, 483268, Note_off_c, 0, 88, 63
1, 483268, Control_c, 0, 64, 90
1, 483282, Control_c, 0, 64, 91
1, 483285, Note_off_c, 0, 77, 47
1, 483297, Control_c, 0, 64, 96
1, 483311, Note_off_c, 0, 79, 61
1, 483312, Control_c, 0, 64, 109
1, 483327, Control_c, 0, 64, 127
1, 483332, Note_on_c, 0, 103, 109
1, 483333, Note_on_c, 0, 91, 107
1, 483333, Note_on_c, 0, 95, 96
1, 483367, Note_on_c, 0, 99, 38
1, 483368, Note_off_c, 0, 99, 127
1, 483368, Note_on_c, 0, 100, 47
1, 483371, Note_on_c, 0, 101, 46
1, 483393, Note_off_c, 0, 100, 54
1, 483396, Note_off_c, 0, 101, 50
1, 483494, Note_off_c, 0, 103, 57
1, 483544, Note_off_c, 0, 91, 52
1, 483578, Note_off_c, 0, 95, 60
1, 484316, Note_on_c, 0, 64, 103
1, 484319, Note_on_c, 0, 52, 88
1, 484343, Control_c, 0, 64, 96
1, 484357, Control_c, 0, 64, 74
1, 484372, Control_c, 0, 64, 0
1, 484417, Control_c, 0, 64, 64
1, 484431, Control_c, 0, 64, 74
1, 484446, Control_c, 0, 64, 87
1, 484461, Control_c, 0, 64, 102
1, 484475, Control_c, 0, 64, 113
1, 484490, Control_c, 0, 64, 121
1, 484493, Note_off_c, 0, 64, 62
1, 484505, Control_c, 0, 64, 127
1, 484510, Note_on_c, 0, 79, 102
1, 484512, Note_on_c, 0, 67, 103
1, 484549, Note_off_c, 0, 52, 65
1, 484614, Poly_aftertouch_c, 0, 74, 127
1, 484643, Note_off_c, 0, 67, 61
1, 484643, Note_off_c, 0, 79, 63
1, 484656, Note_on_c, 0, 52, 97
1, 484659, Note_on_c, 0, 40, 98
1, 484673, Note_on_c, 0, 76, 13
1, 484677, Note_on_c, 0, 42, 64
1, 484692, Note_off_c, 0, 40, 67
1, 484698, Poly_aftertouch_c, 0, 74, 0
1, 484701, Note_off_c, 0, 42, 59
1, 484709, Note_off_c, 0, 52, 63
1, 484715, Note_off_c, 0, 76, 0
1, 484716, Note_on_c, 0, 80, 99
1, 484718, Note_on_c, 0, 68, 108
1, 484727, Poly_aftertouch_c, 0, 76, 0
1, 484796, Note_off_c, 0, 68, 61
1, 484798, Note_on_c, 0, 76, 29
1, 484808, Note_off_c, 0, 80, 59
1, 484834, Poly_aftertouch_c, 0, 78, 0
1, 484840, Note_on_c, 0, 64, 101
1, 484844, Note_on_c, 0, 52, 94
1, 484850, Note_off_c, 0, 76, 56
1, 484877, Note_off_c, 0, 64, 68
1, 484878, Note_on_c, 0, 54, 37
1, 484907, Note_off_c, 0, 52, 67
1, 484912, Note_off_c, 0, 54, 47
1, 484924, Note_on_c, 0, 68, 105
1, 484926, Note_on_c, 0, 80, 98
1, 484961, Note_off_c, 0, 68, 66
1, 484965, Note_on_c, 0, 76, 43
1, 484975, Note_off_c, 0, 80, 65
1, 484993, Note_off_c, 0, 76, 55
1, 485017, Control_c, 0, 64, 115
1, 485023, Note_on_c, 0, 54, 95
1, 485026, Note_on_c, 0, 42, 101
1, 485032, Control_c, 0, 64, 90
1, 485038, Note_on_c, 0, 69, 109
1, 485038, Note_on_c, 0, 81, 106
1, 485045, Note_on_c, 0, 76, 87
1, 485047, Control_c, 0, 64, 75
1, 485058, Note_on_c, 0, 41, 53
1, 485062, Control_c, 0, 64, 70
1, 485067, Note_off_c, 0, 54, 62
1, 485070, Note_off_c, 0, 42, 64
1, 485076, Control_c, 0, 64, 74
1, 485088, Note_off_c, 0, 41, 61
1, 485091, Control_c, 0, 64, 85
1, 485106, Control_c, 0, 64, 97
1, 485121, Control_c, 0, 64, 112
1, 485123, Poly_aftertouch_c, 0, 74, 127
1, 485136, Control_c, 0, 64, 127
1, 485145, Note_off_c, 0, 69, 60
1, 485148, Note_off_c, 0, 81, 60
1, 485153, Poly_aftertouch_c, 0, 74, 0
1, 485173, Note_on_c, 0, 64, 99
1, 485178, Note_on_c, 0, 52, 90
1, 485191, Note_off_c, 0, 64, 72
1, 485198, Note_off_c, 0, 76, 60
1, 485207, Note_off_c, 0, 52, 67
1, 485241, Note_on_c, 0, 69, 104
1, 485241, Note_on_c, 0, 81, 102
1, 485258, Note_on_c, 0, 76, 53
1, 485269, Note_off_c, 0, 69, 67
1, 485270, Control_c, 0, 64, 107
1, 485277, Note_off_c, 0, 76, 66
1, 485279, Note_off_c, 0, 81, 63
1, 485280, Poly_aftertouch_c, 0, 53, 0
1, 485285, Control_c, 0, 64, 88
1, 485299, Control_c, 0, 64, 83
1, 485314, Control_c, 0, 64, 84
1, 485327, Note_on_c, 0, 56, 97
1, 485331, Note_on_c, 0, 44, 96
1, 485336, Control_c, 0, 64, 95
1, 485345, Note_on_c, 0, 71, 107
1, 485345, Note_on_c, 0, 83, 102
1, 485351, Control_c, 0, 64, 123
1, 485357, Note_off_c, 0, 56, 62
1, 485360, Note_off_c, 0, 44, 66
1, 485366, Control_c, 0, 64, 127
1, 485369, Note_on_c, 0, 80, 66
1, 485377, Note_on_c, 0, 43, 18
1, 485378, Note_off_c, 0, 43, 127
1, 485379, Note_on_c, 0, 76, 36
1, 485396, Note_off_c, 0, 80, 51
1, 485419, Poly_aftertouch_c, 0, 43, 0
1, 485428, Note_off_c, 0, 71, 55
1, 485437, Note_off_c, 0, 83, 57
1, 485458, Note_on_c, 0, 64, 100
1, 485464, Note_on_c, 0, 52, 100
1, 485488, Note_off_c, 0, 64, 64
1, 485491, Note_off_c, 0, 52, 65
1, 485495, Note_off_c, 0, 76, 23
1, 485529, Note_on_c, 0, 71, 106
1, 485530, Control_c, 0, 64, 100
1, 485530, Note_on_c, 0, 83, 106
1, 485539, Note_on_c, 0, 76, 67
1, 485545, Control_c, 0, 64, 85
1, 485552, Note_on_c, 0, 80, 63
1, 485559, Control_c, 0, 64, 81
1, 485562, Note_off_c, 0, 71, 63
1, 485568, Note_off_c, 0, 80, 65
1, 485573, Note_off_c, 0, 83, 62
1, 485574, Control_c, 0, 64, 84
1, 485582, Note_off_c, 0, 76, 62
1, 485589, Control_c, 0, 64, 95
1, 485602, Note_on_c, 0, 57, 108
1, 485604, Control_c, 0, 64, 127
1, 485606, Note_on_c, 0, 45, 102
1, 485625, Note_off_c, 0, 45, 74
1, 485628, Note_on_c, 0, 72, 102
1, 485629, Note_on_c, 0, 84, 101
1, 485631, Note_off_c, 0, 57, 69
1, 485633, Note_on_c, 0, 76, 76
1, 485640, Note_on_c, 0, 49, 41
1, 485643, Note_on_c, 0, 47, 41
1, 485648, Note_on_c, 0, 82, 73
1, 485652, Note_on_c, 0, 74, 57
1, 485672, Note_off_c, 0, 74, 44
1, 485673, Note_off_c, 0, 49, 55
1, 485674, Note_off_c, 0, 82, 62
1, 485679, Note_off_c, 0, 47, 50
1, 485717, Note_off_c, 0, 84, 63
1, 485719, Note_off_c, 0, 72, 58
1, 485730, Note_on_c, 0, 64, 101
1, 485736, Note_on_c, 0, 52, 81
1, 485749, Note_off_c, 0, 76, 64
1, 485750, Note_off_c, 0, 64, 72
1, 485753, Note_on_c, 0, 54, 60
1, 485757, Note_off_c, 0, 52, 68
1, 485767, Control_c, 0, 64, 111
1, 485777, Note_off_c, 0, 54, 56
1, 485782, Control_c, 0, 64, 99
1, 485793, Poly_aftertouch_c, 0, 76, 0
1, 485796, Control_c, 0, 64, 97
1, 485799, Note_on_c, 0, 76, 77
1, 485802, Note_on_c, 0, 72, 96
1, 485811, Control_c, 0, 64, 98
1, 485812, Note_on_c, 0, 84, 80
1, 485816, Note_off_c, 0, 72, 77
1, 485826, Note_off_c, 0, 84, 70
1, 485826, Control_c, 0, 64, 102
1, 485827, Note_on_c, 0, 80, 48
1, 485840, Note_off_c, 0, 76, 67
1, 485841, Control_c, 0, 64, 122
1, 485850, Note_off_c, 0, 80, 58
1, 485856, Control_c, 0, 64, 127
1, 485866, Note_on_c, 0, 58, 112
1, 485868, Note_on_c, 0, 46, 108
1, 485887, Note_on_c, 0, 73, 105
1, 485888, Note_on_c, 0, 85, 106
1, 485889, Note_off_c, 0, 58, 65
1, 485893, Note_off_c, 0, 46, 66
1, 485904, Note_on_c, 0, 78, 71
1, 485922, Note_off_c, 0, 78, 40
1, 485925, Note_on_c, 0, 86, 46
1, 485950, Note_off_c, 0, 73, 61
1, 485952, Note_off_c, 0, 86, 57
1, 485956, Note_off_c, 0, 85, 65
1, 485992, Note_on_c, 0, 64, 107
1, 485996, Note_on_c, 0, 52, 96
1, 486006, Note_off_c, 0, 64, 75
1, 486013, Note_on_c, 0, 54, 60
1, 486018, Note_off_c, 0, 52, 69
1, 486038, Note_off_c, 0, 54, 58
1, 486039, Note_on_c, 0, 56, 13
1, 486040, Note_off_c, 0, 56, 127
1, 486051, Note_on_c, 0, 73, 97
1, 486051, Note_on_c, 0, 85, 97
1, 486075, Note_off_c, 0, 73, 73
1, 486077, Note_off_c, 0, 85, 67
1, 486083, Note_on_c, 0, 80, 50
1, 486087, Poly_aftertouch_c, 0, 56, 0
1, 486105, Note_off_c, 0, 80, 60
1, 486118, Note_on_c, 0, 59, 108
1, 486123, Note_on_c, 0, 47, 106
1, 486129, Note_on_c, 0, 54, 77
1, 486133, Note_on_c, 0, 49, 74
1, 486137, Note_on_c, 0, 74, 104
1, 486137, Note_on_c, 0, 86, 104
1, 486139, Note_off_c, 0, 47, 76
1, 486141, Note_off_c, 0, 59, 67
1, 486149, Note_off_c, 0, 54, 39
1, 486153, Note_off_c, 0, 49, 66
1, 486155, Note_on_c, 0, 51, 38
1, 486156, Note_off_c, 0, 51, 127
1, 486159, Control_c, 0, 64, 107
1, 486163, Note_on_c, 0, 82, 56
1, 486174, Note_on_c, 0, 84, 41
1, 486174, Control_c, 0, 64, 106
1, 486181, Note_off_c, 0, 74, 67
1, 486183, Note_off_c, 0, 82, 62
1, 486185, Poly_aftertouch_c, 0, 51, 0
1, 486188, Note_off_c, 0, 86, 63
1, 486189, Control_c, 0, 64, 108
1, 486200, Note_off_c, 0, 84, 54
1, 486203, Control_c, 0, 64, 127
1, 486243, Note_on_c, 0, 64, 110
1, 486249, Note_on_c, 0, 52, 107
1, 486261, Note_on_c, 0, 54, 54
1, 486266, Note_off_c, 0, 64, 70
1, 486269, Note_off_c, 0, 52, 71
1, 486278, Note_off_c, 0, 54, 63
1, 486308, Note_on_c, 0, 74, 103
1, 486311, Note_on_c, 0, 86, 102
1, 486327, Note_off_c, 0, 74, 70
1, 486327, Note_off_c, 0, 86, 69
1, 486338, Control_c, 0, 64, 124
1, 486352, Control_c, 0, 64, 98
1, 486367, Control_c, 0, 64, 89
1, 486368, Note_on_c, 0, 60, 108
1, 486372, Note_on_c, 0, 48, 104
1, 486380, Note_on_c, 0, 56, 66
1, 486388, Note_off_c, 0, 48, 77
1, 486391, Note_on_c, 0, 75, 107
1, 486391, Note_off_c, 0, 60, 69
1, 486392, Note_on_c, 0, 51, 60
1, 486393, Note_off_c, 0, 51, 127
1, 486394, Note_on_c, 0, 87, 107
1, 486397, Control_c, 0, 64, 95
1, 486403, Note_off_c, 0, 56, 38
1, 486412, Note_on_c, 0, 85, 68
1, 486413, Note_off_c, 0, 85, 127
1, 486413, Control_c, 0, 64, 111
1, 486428, Control_c, 0, 64, 127
1, 486449, Note_on_c, 0, 74, 12
1, 486458, Note_off_c, 0, 75, 60
1, 486459, Note_off_c, 0, 87, 62
1, 486493, Note_off_c, 0, 74, 38
1, 486497, Note_on_c, 0, 64, 113
1, 486502, Note_on_c, 0, 52, 97
1, 486514, Note_off_c, 0, 64, 73
1, 486514, Note_on_c, 0, 50, 65
1, 486516, Note_on_c, 0, 54, 68
1, 486520, Poly_aftertouch_c, 0, 80, 0
1, 486523, Note_off_c, 0, 52, 73
1, 486530, Poly_aftertouch_c, 0, 83, 0
1, 486535, Note_off_c, 0, 54, 63
1, 486539, Note_off_c, 0, 50, 39
1, 486541, Note_on_c, 0, 56, 14
1, 486542, Note_off_c, 0, 56, 127
1, 486565, Note_on_c, 0, 75, 104
1, 486569, Note_on_c, 0, 87, 89
1, 486573, Note_on_c, 0, 80, 79
1, 486585, Note_on_c, 0, 88, 75
1, 486590, Poly_aftertouch_c, 0, 56, 0
1, 486595, Note_off_c, 0, 75, 64
1, 486595, Note_off_c, 0, 80, 70
1, 486598, Note_off_c, 0, 87, 61
1, 486599, Note_off_c, 0, 88, 67
1, 486606, Control_c, 0, 64, 100
1, 486620, Control_c, 0, 64, 71
1, 486635, Control_c, 0, 64, 0
1, 486654, Note_on_c, 0, 61, 106
1, 486657, Note_on_c, 0, 49, 105
1, 486660, Note_on_c, 0, 88, 99
1, 486661, Note_on_c, 0, 76, 114
1, 486665, Control_c, 0, 64, 63
1, 486669, Note_on_c, 0, 80, 86
1, 486672, Note_on_c, 0, 56, 63
1, 486673, Note_off_c, 0, 56, 127
1, 486673, Note_on_c, 0, 51, 64
1, 486674, Note_off_c, 0, 51, 127
1, 486679, Control_c, 0, 64, 79
1, 486681, Note_on_c, 0, 58, 61
1, 486682, Note_off_c, 0, 58, 127
1, 486682, Note_off_c, 0, 61, 68
1, 486685, Note_on_c, 0, 86, 56
1, 486694, Control_c, 0, 64, 111
1, 486697, Note_off_c, 0, 49, 58
1, 486698, Note_on_c, 0, 48, 39
1, 486709, Control_c, 0, 64, 127
1, 486711, Note_off_c, 0, 86, 52
1, 486718, Note_off_c, 0, 48, 67
1, 486842, Note_off_c, 0, 76, 56
1, 486847, Note_off_c, 0, 88, 57
1, 486873, Note_on_c, 0, 64, 111
1, 486875, Note_on_c, 0, 52, 99
1, 486901, Note_off_c, 0, 64, 72
1, 486902, Note_on_c, 0, 54, 47
1, 486903, Note_off_c, 0, 54, 127
1, 486914, Note_off_c, 0, 80, 58
1, 486917, Note_off_c, 0, 52, 69
1, 486969, Note_on_c, 0, 76, 114
1, 486970, Note_on_c, 0, 88, 102
1, 486987, Note_on_c, 0, 86, 75
1, 486992, Note_on_c, 0, 80, 54
1, 486993, Note_off_c, 0, 80, 127
1, 487003, Note_off_c, 0, 86, 69
1, 487053, Note_off_c, 0, 76, 53
1, 487065, Note_off_c, 0, 88, 55
1, 487132, Control_c, 0, 64, 116
1, 487147, Control_c, 0, 64, 84
1, 487162, Control_c, 0, 64, 54
1, 487173, Note_on_c, 0, 77, 107
1, 487173, Note_on_c, 0, 80, 104
1, 487175, Note_on_c, 0, 89, 106
1, 487176, Control_c, 0, 64, 0
1, 487177, Note_on_c, 0, 83, 84
1, 487179, Note_on_c, 0, 40, 106
1, 487182, Note_on_c, 0, 28, 108
1, 487183, Note_on_c, 0, 38, 88
1, 487190, Note_on_c, 0, 34, 78
1, 487191, Control_c, 0, 64, 68
1, 487195, Note_on_c, 0, 86, 68
1, 487197, Note_on_c, 0, 29, 67
1, 487206, Note_on_c, 0, 30, 49
1, 487207, Note_off_c, 0, 30, 127
1, 487207, Control_c, 0, 64, 83
1, 487209, Note_off_c, 0, 28, 70
1, 487213, Note_off_c, 0, 38, 52
1, 487213, Note_off_c, 0, 34, 63
1, 487216, Note_on_c, 0, 88, 36
1, 487222, Control_c, 0, 64, 102
1, 487232, Note_off_c, 0, 29, 54
1, 487234, Note_off_c, 0, 86, 57
1, 487234, Note_off_c, 0, 40, 65
1, 487237, Note_off_c, 0, 77, 65
1, 487237, Control_c, 0, 64, 127
1, 487246, Note_on_c, 0, 84, 2
1, 487247, Note_off_c, 0, 84, 127
1, 487252, Note_off_c, 0, 89, 66
1, 487255, Note_off_c, 0, 88, 47
1, 487266, Note_off_c, 0, 83, 58
1, 487272, Note_off_c, 0, 80, 61
1, 487620, Note_on_c, 0, 64, 106
1, 487625, Note_on_c, 0, 56, 86
1, 487626, Note_on_c, 0, 59, 87
1, 487628, Note_on_c, 0, 62, 90
1, 487654, Note_off_c, 0, 64, 71
1, 487663, Note_off_c, 0, 62, 65
1, 487669, Note_off_c, 0, 59, 66
1, 487671, Note_off_c, 0, 56, 65
1, 488591, Note_on_c, 0, 71, 104
1, 488593, Note_on_c, 0, 83, 103
1, 488594, Note_on_c, 0, 80, 97
1, 488691, Poly_aftertouch_c, 0, 49, 127
1, 488778, Note_off_c, 0, 71, 51
1, 488783, Note_off_c, 0, 83, 56
1, 488851, Poly_aftertouch_c, 0, 49, 0
1, 488855, Note_off_c, 0, 80, 61
1, 488867, Control_c, 0, 64, 106
1, 488873, Note_on_c, 0, 57, 111
1, 488874, Note_on_c, 0, 45, 103
1, 488882, Control_c, 0, 64, 81
1, 488888, Note_on_c, 0, 72, 114
1, 488892, Note_on_c, 0, 81, 94
1, 488895, Note_on_c, 0, 84, 104
1, 488897, Control_c, 0, 64, 51
1, 488900, Note_on_c, 0, 80, 58
1, 488903, Note_on_c, 0, 48, 53
1, 488912, Note_on_c, 0, 83, 61
1, 488913, Note_off_c, 0, 83, 127
1, 488913, Control_c, 0, 64, 0
1, 488928, Control_c, 0, 64, 57
1, 488929, Note_off_c, 0, 48, 58
1, 488943, Control_c, 0, 64, 70
1, 488954, Note_off_c, 0, 45, 67
1, 488958, Control_c, 0, 64, 80
1, 488973, Control_c, 0, 64, 94
1, 488975, Note_off_c, 0, 57, 63
1, 488987, Control_c, 0, 64, 108
1, 489002, Control_c, 0, 64, 120
1, 489017, Control_c, 0, 64, 127
1, 489059, Note_off_c, 0, 84, 62
1, 489084, Note_off_c, 0, 72, 58
1, 489101, Note_off_c, 0, 80, 15
1, 489138, Note_on_c, 0, 69, 105
1, 489143, Note_on_c, 0, 57, 90
1, 489178, Note_off_c, 0, 69, 66
1, 489184, Note_off_c, 0, 57, 57
1, 489187, Note_on_c, 0, 73, 103
1, 489189, Note_on_c, 0, 85, 108
1, 489208, Note_on_c, 0, 78, 64
1, 489234, Note_off_c, 0, 78, 51
1, 489248, Note_on_c, 0, 55, 88
1, 489258, Note_on_c, 0, 67, 52
1, 489280, Note_off_c, 0, 73, 61
1, 489281, Note_off_c, 0, 67, 58
1, 489293, Note_off_c, 0, 85, 62
1, 489294, Note_off_c, 0, 55, 65
1, 489344, Note_off_c, 0, 81, 57
1, 489365, Control_c, 0, 64, 118
1, 489380, Control_c, 0, 64, 92
1, 489381, Note_on_c, 0, 74, 104
1, 489381, Note_on_c, 0, 86, 99
1, 489386, Note_on_c, 0, 53, 106
1, 489387, Note_on_c, 0, 83, 88
1, 489393, Note_on_c, 0, 43, 93
1, 489395, Control_c, 0, 64, 76
1, 489400, Note_on_c, 0, 44, 73
1, 489406, Note_on_c, 0, 78, 55
1, 489410, Control_c, 0, 64, 69
1, 489411, Note_on_c, 0, 41, 50
1, 489412, Note_off_c, 0, 41, 127
1, 489413, Note_on_c, 0, 49, 47
1, 489414, Note_off_c, 0, 49, 127
1, 489417, Note_off_c, 0, 43, 68
1, 489420, Note_off_c, 0, 44, 63
1, 489424, Control_c, 0, 64, 76
1, 489429, Note_off_c, 0, 78, 36
1, 489439, Control_c, 0, 64, 87
1, 489440, Note_off_c, 0, 53, 60
1, 489448, Poly_aftertouch_c, 0, 41, 0
1, 489455, Control_c, 0, 64, 100
1, 489470, Control_c, 0, 64, 114
1, 489485, Control_c, 0, 64, 127
1, 489503, Note_off_c, 0, 74, 55
1, 489515, Note_off_c, 0, 83, 55
1, 489522, Note_off_c, 0, 86, 58
1, 489555, Note_on_c, 0, 65, 88
1, 489566, Note_on_c, 0, 53, 72
1, 489576, Note_off_c, 0, 65, 69
1, 489581, Note_off_c, 0, 53, 72
1, 489609, Note_on_c, 0, 88, 108
1, 489610, Note_on_c, 0, 76, 104
1, 489634, Note_on_c, 0, 53, 86
1, 489661, Note_on_c, 0, 86, 15
1, 489663, Note_off_c, 0, 76, 57
1, 489673, Note_off_c, 0, 53, 68
1, 489700, Note_off_c, 0, 88, 60
1, 489707, Note_off_c, 0, 86, 38
1, 489751, Control_c, 0, 64, 115
1, 489765, Control_c, 0, 64, 91
1, 489774, Note_on_c, 0, 50, 105
1, 489777, Note_on_c, 0, 77, 114
1, 489778, Note_on_c, 0, 89, 108
1, 489780, Control_c, 0, 64, 71
1, 489781, Note_on_c, 0, 40, 92
1, 489787, Note_on_c, 0, 86, 83
1, 489788, Note_on_c, 0, 38, 71
1, 489789, Note_off_c, 0, 38, 127
1, 489795, Control_c, 0, 64, 64
1, 489798, Note_off_c, 0, 50, 68
1, 489804, Note_off_c, 0, 40, 67
1, 489805, Note_on_c, 0, 42, 45
1, 489806, Note_off_c, 0, 42, 127
1, 489806, Note_on_c, 0, 88, 63
1, 489810, Control_c, 0, 64, 71
1, 489833, Control_c, 0, 64, 82
1, 489840, Note_off_c, 0, 88, 38
1, 489845, Poly_aftertouch_c, 0, 42, 0
1, 489847, Control_c, 0, 64, 95
1, 489862, Control_c, 0, 64, 106
1, 489877, Control_c, 0, 64, 117
1, 489892, Control_c, 0, 64, 126
1, 489894, Note_off_c, 0, 89, 65
1, 489897, Note_off_c, 0, 77, 62
1, 489906, Control_c, 0, 64, 127
1, 489939, Note_on_c, 0, 62, 80
1, 489961, Note_off_c, 0, 86, 59
1, 489964, Note_on_c, 0, 50, 47
1, 489964, Note_off_c, 0, 62, 64
1, 489989, Note_off_c, 0, 50, 58
1, 489993, Note_on_c, 0, 78, 101
1, 489995, Note_on_c, 0, 90, 99
1, 490001, Poly_aftertouch_c, 0, 86, 0
1, 490002, Note_on_c, 0, 86, 69
1, 490010, Note_on_c, 0, 50, 76
1, 490019, Note_on_c, 0, 91, 70
1, 490036, Note_off_c, 0, 91, 58
1, 490052, Note_off_c, 0, 50, 64
1, 490058, Note_off_c, 0, 78, 65
1, 490071, Note_off_c, 0, 90, 62
1, 490126, Note_off_c, 0, 86, 60
1, 490129, Control_c, 0, 64, 101
1, 490144, Control_c, 0, 64, 81
1, 490159, Control_c, 0, 64, 67
1, 490161, Note_on_c, 0, 48, 97
1, 490163, Note_on_c, 0, 79, 110
1, 490163, Note_on_c, 0, 91, 105
1, 490165, Note_on_c, 0, 36, 83
1, 490168, Poly_aftertouch_c, 0, 86, 0
1, 490172, Note_on_c, 0, 86, 69
1, 490173, Note_on_c, 0, 47, 68
1, 490174, Note_on_c, 0, 37, 61
1, 490175, Note_off_c, 0, 37, 127
1, 490183, Note_on_c, 0, 35, 48
1, 490184, Note_off_c, 0, 35, 127
1, 490184, Note_off_c, 0, 48, 67
1, 490185, Note_off_c, 0, 36, 69
1, 490186, Note_on_c, 0, 88, 60
1, 490188, Control_c, 0, 64, 76
1, 490192, Note_on_c, 0, 42, 35
1, 490193, Note_off_c, 0, 42, 127
1, 490197, Note_off_c, 0, 47, 61
1, 490202, Note_on_c, 0, 39, 10
1, 490203, Control_c, 0, 64, 87
1, 490213, Note_on_c, 0, 84, 14
1, 490215, Note_off_c, 0, 88, 49
1, 490217, Control_c, 0, 64, 99
1, 490219, Poly_aftertouch_c, 0, 35, 0
1, 490225, Note_off_c, 0, 86, 0
1, 490228, Poly_aftertouch_c, 0, 42, 0
1, 490232, Control_c, 0, 64, 111
1, 490248, Control_c, 0, 64, 119
1, 490251, Note_off_c, 0, 39, 40
1, 490263, Control_c, 0, 64, 124
1, 490264, Note_off_c, 0, 84, 35
1, 490264, Poly_aftertouch_c, 0, 86, 127
1, 490271, Note_off_c, 0, 91, 59
1, 490278, Control_c, 0, 64, 127
1, 490279, Note_off_c, 0, 79, 56
1, 490305, Note_on_c, 0, 59, 83
1, 490317, Note_on_c, 0, 47, 50
1, 490323, Note_off_c, 0, 59, 67
1, 490330, Poly_aftertouch_c, 0, 86, 0
1, 490350, Note_off_c, 0, 47, 56
1, 490372, Note_on_c, 0, 84, 45
1, 490378, Note_on_c, 0, 80, 105
1, 490380, Note_on_c, 0, 92, 111
1, 490394, Note_on_c, 0, 87, 67
1, 490405, Note_on_c, 0, 43, 90
1, 490412, Note_off_c, 0, 87, 65
1, 490433, Note_off_c, 0, 43, 67
1, 490444, Note_off_c, 0, 80, 63
1, 490460, Note_off_c, 0, 92, 65
1, 490507, Note_off_c, 0, 84, 58
1, 490514, Control_c, 0, 64, 100
1, 490529, Note_on_c, 0, 45, 113
1, 490529, Control_c, 0, 64, 79
1, 490533, Note_on_c, 0, 33, 101
1, 490533, Note_on_c, 0, 81, 102
1, 490535, Note_on_c, 0, 93, 106
1, 490543, Note_on_c, 0, 90, 88
1, 490544, Control_c, 0, 64, 59
1, 490546, Note_on_c, 0, 84, 55
1, 490555, Note_off_c, 0, 33, 69
1, 490559, Control_c, 0, 64, 63
1, 490560, Note_off_c, 0, 45, 64
1, 490561, Note_off_c, 0, 90, 72
1, 490573, Note_on_c, 0, 85, 32
1, 490582, Control_c, 0, 64, 74
1, 490586, Note_on_c, 0, 35, 24
1, 490596, Control_c, 0, 64, 86
1, 490607, Note_off_c, 0, 93, 62
1, 490611, Control_c, 0, 64, 100
1, 490615, Note_off_c, 0, 85, 31
1, 490626, Control_c, 0, 64, 113
1, 490627, Note_off_c, 0, 35, 52
1, 490628, Note_off_c, 0, 81, 64
1, 490640, Note_on_c, 0, 33, 14
1, 490641, Control_c, 0, 64, 127
1, 490665, Note_off_c, 0, 33, 62
1, 490695, Note_on_c, 0, 57, 82
1, 490700, Note_on_c, 0, 45, 77
1, 490719, Note_off_c, 0, 57, 68
1, 490722, Note_off_c, 0, 84, 59
1, 490725, Note_off_c, 0, 45, 70
1, 490743, Note_on_c, 0, 78, 104
1, 490746, Note_on_c, 0, 90, 100
1, 490757, Note_on_c, 0, 87, 78
1, 490778, Note_off_c, 0, 87, 69
1, 490783, Note_on_c, 0, 41, 90
1, 490806, Note_off_c, 0, 41, 70
1, 490810, Note_off_c, 0, 78, 62
1, 490821, Note_off_c, 0, 90, 64
1, 490862, Control_c, 0, 64, 96
1, 490877, Control_c, 0, 64, 74
1, 490892, Note_on_c, 0, 91, 103
1, 490892, Control_c, 0, 64, 56
1, 490894, Note_on_c, 0, 43, 103
1, 490894, Note_on_c, 0, 79, 108
1, 490898, Note_on_c, 0, 31, 85
1, 490907, Control_c, 0, 64, 65
1, 490916, Note_off_c, 0, 43, 67
1, 490922, Control_c, 0, 64, 77
1, 490925, Note_off_c, 0, 31, 65
1, 490931, Note_off_c, 0, 91, 65
1, 490937, Control_c, 0, 64, 96
1, 490941, Note_on_c, 0, 89, 60
1, 490952, Control_c, 0, 64, 127
1, 490960, Note_off_c, 0, 89, 64
1, 490982, Note_off_c, 0, 79, 58
1, 490999, Poly_aftertouch_c, 0, 34, 0
1, 491031, Note_on_c, 0, 55, 74
1, 491034, Note_on_c, 0, 43, 72
1, 491038, Note_on_c, 0, 57, 66
1, 491056, Note_off_c, 0, 55, 67
1, 491059, Note_off_c, 0, 57, 63
1, 491061, Note_off_c, 0, 43, 67
1, 491102, Note_on_c, 0, 76, 105
1, 491102, Note_on_c, 0, 79, 59
1, 491105, Note_on_c, 0, 88, 106
1, 491105, Poly_aftertouch_c, 0, 45, 127
1, 491116, Note_on_c, 0, 85, 78
1, 491129, Note_off_c, 0, 79, 66
1, 491135, Note_off_c, 0, 85, 72
1, 491136, Poly_aftertouch_c, 0, 46, 0
1, 491139, Poly_aftertouch_c, 0, 45, 0
1, 491140, Note_on_c, 0, 38, 84
1, 491159, Note_off_c, 0, 76, 59
1, 491160, Note_off_c, 0, 38, 65
1, 491174, Note_off_c, 0, 88, 59
1, 491218, Control_c, 0, 64, 121
1, 491233, Control_c, 0, 64, 87
1, 491248, Note_on_c, 0, 41, 108
1, 491248, Control_c, 0, 64, 62
1, 491250, Note_on_c, 0, 29, 100
1, 491253, Note_on_c, 0, 77, 106
1, 491254, Note_on_c, 0, 89, 109
1, 491259, Note_on_c, 0, 81, 77
1, 491262, Control_c, 0, 64, 0
1, 491280, Note_off_c, 0, 29, 66
1, 491283, Note_off_c, 0, 41, 66
1, 491292, Control_c, 0, 64, 70
1, 491295, Note_on_c, 0, 37, 10
1, 491296, Note_off_c, 0, 37, 127
1, 491297, Note_on_c, 0, 86, 33
1, 491299, Note_on_c, 0, 31, 27
1, 491299, Note_on_c, 0, 88, 21
1, 491300, Note_off_c, 0, 88, 127
1, 491307, Control_c, 0, 64, 88
1, 491330, Control_c, 0, 64, 127
1, 491340, Note_off_c, 0, 86, 32
1, 491346, Note_off_c, 0, 31, 54
1, 491347, Note_off_c, 0, 89, 60
1, 491354, Poly_aftertouch_c, 0, 37, 0
1, 491358, Note_on_c, 0, 88, 12
1, 491369, Poly_aftertouch_c, 0, 32, 0
1, 491372, Note_off_c, 0, 77, 56
1, 491378, Note_off_c, 0, 88, 48
1, 491408, Note_on_c, 0, 53, 86
1, 491426, Note_on_c, 0, 41, 55
1, 491426, Note_off_c, 0, 81, 59
1, 491428, Note_off_c, 0, 53, 73
1, 491448, Note_off_c, 0, 41, 65
1, 491471, Note_on_c, 0, 74, 104
1, 491472, Note_on_c, 0, 86, 104
1, 491497, Note_on_c, 0, 40, 90
1, 491519, Note_off_c, 0, 40, 67
1, 491554, Note_off_c, 0, 74, 62
1, 491554, Note_off_c, 0, 86, 59
1, 491584, Poly_aftertouch_c, 0, 82, 0
1, 491596, Control_c, 0, 64, 118
1, 491611, Control_c, 0, 64, 86
1, 491624, Note_on_c, 0, 28, 103
1, 491626, Control_c, 0, 64, 65
1, 491630, Note_on_c, 0, 29, 83
1, 491631, Note_off_c, 0, 29, 127
1, 491633, Note_on_c, 0, 81, 78
1, 491635, Note_on_c, 0, 84, 102
1, 491636, Note_on_c, 0, 72, 98
1, 491640, Control_c, 0, 64, 0
1, 491644, Note_on_c, 0, 30, 67
1, 491650, Note_on_c, 0, 74, 75
1, 491655, Control_c, 0, 64, 65
1, 491665, Note_off_c, 0, 74, 45
1, 491670, Control_c, 0, 64, 78
1, 491670, Note_off_c, 0, 30, 62
1, 491673, Note_on_c, 0, 29, 56
1, 491677, Note_on_c, 0, 83, 32
1, 491683, Note_on_c, 0, 78, 15
1, 491684, Note_off_c, 0, 78, 127
1, 491685, Control_c, 0, 64, 92
1, 491700, Control_c, 0, 64, 114
1, 491715, Control_c, 0, 64, 127
1, 491718, Poly_aftertouch_c, 0, 32, 127
1, 491735, Note_off_c, 0, 84, 60
1, 491739, Note_off_c, 0, 72, 62
1, 491740, Note_off_c, 0, 28, 63
1, 491745, Note_off_c, 0, 83, 30
1, 491747, Poly_aftertouch_c, 0, 32, 0
1, 491754, Note_off_c, 0, 81, 59
1, 491759, Note_on_c, 0, 40, 82
1, 491759, Note_off_c, 0, 29, 62
1, 491782, Note_off_c, 0, 40, 68
1, 491787, Poly_aftertouch_c, 0, 78, 0
1, 491827, Note_on_c, 0, 71, 98
1, 491828, Note_on_c, 0, 80, 96
1, 491831, Note_on_c, 0, 83, 103
1, 491913, Note_off_c, 0, 71, 50
1, 491928, Note_on_c, 0, 52, 80
1, 491931, Note_off_c, 0, 83, 57
1, 491941, Note_on_c, 0, 40, 60
1, 491951, Note_off_c, 0, 52, 69
1, 491969, Note_off_c, 0, 40, 63
1, 491977, Note_off_c, 0, 80, 53
1, 491992, Poly_aftertouch_c, 0, 41, 127
1, 491998, Control_c, 0, 64, 110
1, 492013, Control_c, 0, 64, 86
1, 492028, Control_c, 0, 64, 69
1, 492032, Poly_aftertouch_c, 0, 41, 0
1, 492042, Control_c, 0, 64, 66
1, 492045, Note_on_c, 0, 72, 103
1, 492047, Note_on_c, 0, 81, 88
1, 492049, Note_on_c, 0, 84, 101
1, 492050, Note_on_c, 0, 45, 114
1, 492054, Note_on_c, 0, 33, 96
1, 492057, Control_c, 0, 64, 77
1, 492079, Control_c, 0, 64, 93
1, 492083, Note_off_c, 0, 33, 71
1, 492091, Note_off_c, 0, 45, 63
1, 492094, Control_c, 0, 64, 126
1, 492108, Control_c, 0, 64, 127
1, 492141, Poly_aftertouch_c, 0, 40, 0
1, 492156, Poly_aftertouch_c, 0, 35, 0
1, 492159, Note_off_c, 0, 72, 58
1, 492164, Poly_aftertouch_c, 0, 37, 0
1, 492168, Note_off_c, 0, 81, 52
1, 492177, Poly_aftertouch_c, 0, 35, 0
1, 492183, Note_off_c, 0, 84, 61
1, 492224, Note_on_c, 0, 57, 86
1, 492231, Note_on_c, 0, 45, 82
1, 492243, Note_off_c, 0, 57, 69
1, 492247, Note_off_c, 0, 45, 76
1, 492278, Note_on_c, 0, 86, 108
1, 492278, Note_on_c, 0, 74, 102
1, 492318, Note_off_c, 0, 74, 64
1, 492323, Note_on_c, 0, 43, 74
1, 492328, Note_on_c, 0, 55, 55
1, 492353, Note_off_c, 0, 43, 63
1, 492353, Note_off_c, 0, 55, 61
1, 492365, Note_off_c, 0, 86, 59
1, 492405, Control_c, 0, 64, 101
1, 492420, Control_c, 0, 64, 82
1, 492423, Poly_aftertouch_c, 0, 46, 0
1, 492430, Note_on_c, 0, 48, 113
1, 492431, Note_on_c, 0, 84, 56
1, 492434, Note_on_c, 0, 76, 108
1, 492435, Note_on_c, 0, 36, 98
1, 492435, Control_c, 0, 64, 71
1, 492436, Note_on_c, 0, 88, 98
1, 492448, Note_off_c, 0, 88, 51
1, 492449, Control_c, 0, 64, 71
1, 492457, Note_off_c, 0, 36, 70
1, 492464, Note_off_c, 0, 48, 65
1, 492464, Control_c, 0, 64, 84
1, 492468, Note_on_c, 0, 86, 58
1, 492472, Note_on_c, 0, 38, 31
1, 492475, Note_on_c, 0, 82, 27
1, 492479, Control_c, 0, 64, 98
1, 492493, Control_c, 0, 64, 120
1, 492499, Note_off_c, 0, 86, 47
1, 492508, Note_off_c, 0, 38, 48
1, 492508, Control_c, 0, 64, 127
1, 492522, Note_off_c, 0, 76, 65
1, 492567, Note_off_c, 0, 84, 66
1, 492571, Note_off_c, 0, 82, 41
1, 492594, Note_on_c, 0, 60, 81
1, 492597, Note_on_c, 0, 48, 75
1, 492609, Note_off_c, 0, 48, 76
1, 492615, Note_off_c, 0, 60, 69
1, 492633, Note_on_c, 0, 78, 97
1, 492643, Note_on_c, 0, 90, 81
1, 492646, Note_on_c, 0, 87, 77
1, 492650, Note_on_c, 0, 91, 86
1, 492669, Note_on_c, 0, 48, 38
1, 492677, Note_on_c, 0, 47, 81
1, 492677, Note_off_c, 0, 87, 0
1, 492686, Note_off_c, 0, 91, 42
1, 492687, Note_off_c, 0, 48, 45
1, 492694, Note_off_c, 0, 78, 64
1, 492700, Note_off_c, 0, 47, 69
1, 492711, Poly_aftertouch_c, 0, 87, 0
1, 492750, Note_off_c, 0, 90, 33
1, 492761, Control_c, 0, 64, 114
1, 492776, Control_c, 0, 64, 92
1, 492779, Note_on_c, 0, 52, 103
1, 492782, Note_on_c, 0, 40, 99
1, 492782, Note_on_c, 0, 91, 103
1, 492783, Note_on_c, 0, 86, 73
1, 492784, Note_on_c, 0, 79, 102
1, 492791, Control_c, 0, 64, 78
1, 492813, Control_c, 0, 64, 73
1, 492814, Note_off_c, 0, 40, 70
1, 492818, Note_off_c, 0, 52, 68
1, 492824, Note_on_c, 0, 42, 29
1, 492828, Control_c, 0, 64, 77
1, 492842, Control_c, 0, 64, 87
1, 492853, Note_on_c, 0, 46, 3
1, 492857, Control_c, 0, 64, 102
1, 492865, Note_off_c, 0, 42, 43
1, 492872, Control_c, 0, 64, 117
1, 492883, Note_off_c, 0, 79, 58
1, 492887, Control_c, 0, 64, 125
1, 492890, Note_off_c, 0, 46, 46
1, 492894, Note_off_c, 0, 91, 58
1, 492899, Note_off_c, 0, 86, 62
1, 492902, Control_c, 0, 64, 126
1, 492916, Control_c, 0, 64, 127
1, 492924, Note_on_c, 0, 64, 97
1, 492934, Note_on_c, 0, 52, 75
1, 492946, Control_c, 0, 64, 127
1, 492947, Note_off_c, 0, 64, 67
1, 492955, Note_off_c, 0, 52, 74
1, 492973, Note_on_c, 0, 93, 104
1, 492973, Note_on_c, 0, 81, 105
1, 493024, Note_on_c, 0, 50, 81
1, 493036, Note_on_c, 0, 86, 47
1, 493043, Note_on_c, 0, 62, 39
1, 493048, Note_off_c, 0, 50, 69
1, 493048, Note_off_c, 0, 81, 56
1, 493054, Note_off_c, 0, 93, 62
1, 493074, Note_off_c, 0, 62, 54
1, 493095, Control_c, 0, 64, 112
1, 493097, Note_off_c, 0, 86, 64
1, 493110, Control_c, 0, 64, 88
1, 493124, Control_c, 0, 64, 70
1, 493134, Note_on_c, 0, 55, 106
1, 493135, Note_on_c, 0, 43, 97
1, 493137, Note_on_c, 0, 94, 114
1, 493137, Note_on_c, 0, 86, 85
1, 493138, Note_on_c, 0, 82, 111
1, 493139, Control_c, 0, 64, 64
1, 493154, Control_c, 0, 64, 76
1, 493158, Note_off_c, 0, 43, 67
1, 493161, Note_on_c, 0, 92, 66
1, 493161, Note_off_c, 0, 55, 65
1, 493162, Note_on_c, 0, 89, 39
1, 493169, Control_c, 0, 64, 93
1, 493178, Note_off_c, 0, 92, 64
1, 493184, Control_c, 0, 64, 122
1, 493193, Note_off_c, 0, 89, 45
1, 493198, Control_c, 0, 64, 127
1, 493229, Note_off_c, 0, 82, 63
1, 493233, Note_off_c, 0, 94, 66
1, 493265, Poly_aftertouch_c, 0, 45, 0
1, 493271, Note_on_c, 0, 67, 89
1, 493279, Note_off_c, 0, 86, 58
1, 493281, Note_on_c, 0, 55, 75
1, 493290, Note_off_c, 0, 67, 71
1, 493298, Note_off_c, 0, 55, 71
1, 493307, Note_on_c, 0, 65, 37
1, 493307, Note_on_c, 0, 86, 59
1, 493312, Note_on_c, 0, 83, 107
1, 493316, Note_on_c, 0, 95, 103
1, 493337, Note_off_c, 0, 65, 58
1, 493343, Note_off_c, 0, 86, 65
1, 493364, Note_on_c, 0, 50, 85
1, 493365, Note_off_c, 0, 83, 51
1, 493375, Note_off_c, 0, 95, 63
1, 493381, Note_off_c, 0, 50, 70
1, 493451, Control_c, 0, 64, 114
1, 493466, Control_c, 0, 64, 89
1, 493481, Control_c, 0, 64, 71
1, 493495, Note_on_c, 0, 84, 100
1, 493495, Note_on_c, 0, 96, 107
1, 493495, Control_c, 0, 64, 62
1, 493496, Note_on_c, 0, 87, 99
1, 493497, Note_on_c, 0, 48, 114
1, 493500, Note_on_c, 0, 36, 102
1, 493510, Control_c, 0, 64, 73
1, 493513, Note_on_c, 0, 39, 66
1, 493518, Note_on_c, 0, 93, 72
1, 493518, Note_on_c, 0, 38, 63
1, 493520, Note_off_c, 0, 36, 72
1, 493525, Control_c, 0, 64, 87
1, 493530, Note_on_c, 0, 86, 44
1, 493536, Note_off_c, 0, 48, 58
1, 493537, Note_off_c, 0, 39, 39
1, 493539, Control_c, 0, 64, 105
1, 493548, Note_off_c, 0, 93, 59
1, 493562, Note_off_c, 0, 38, 64
1, 493562, Control_c, 0, 64, 127
1, 493565, Note_off_c, 0, 86, 56
1, 493586, Note_off_c, 0, 96, 61
1, 493593, Poly_aftertouch_c, 0, 43, 0
1, 493611, Note_off_c, 0, 84, 59
1, 493632, Poly_aftertouch_c, 0, 43, 0
1, 493657, Note_on_c, 0, 60, 88
1, 493667, Note_on_c, 0, 48, 76
1, 493673, Note_off_c, 0, 60, 71
1, 493689, Note_off_c, 0, 48, 74
1, 493703, Note_off_c, 0, 87, 51
1, 493705, Note_on_c, 0, 81, 93
1, 493705, Note_on_c, 0, 93, 106
1, 493721, Note_on_c, 0, 83, 67
1, 493739, Note_off_c, 0, 83, 40
1, 493753, Note_on_c, 0, 86, 48
1, 493757, Note_off_c, 0, 81, 58
1, 493769, Note_off_c, 0, 93, 61
1, 493781, Note_on_c, 0, 41, 53
1, 493782, Note_off_c, 0, 41, 127
1, 493799, Note_off_c, 0, 86, 65
1, 493811, Poly_aftertouch_c, 0, 41, 0
1, 493828, Control_c, 0, 64, 96
1, 493843, Control_c, 0, 64, 79
1, 493847, Note_on_c, 0, 82, 105
1, 493848, Note_on_c, 0, 94, 105
1, 493852, Note_on_c, 0, 34, 95
1, 493856, Note_on_c, 0, 46, 97
1, 493856, Note_on_c, 0, 86, 76
1, 493858, Control_c, 0, 64, 72
1, 493868, Poly_aftertouch_c, 0, 43, 0
1, 493871, Note_off_c, 0, 34, 69
1, 493873, Note_on_c, 0, 89, 55
1, 493873, Control_c, 0, 64, 78
1, 493877, Note_off_c, 0, 46, 67
1, 493880, Note_on_c, 0, 92, 45
1, 493881, Note_off_c, 0, 92, 127
1, 493888, Control_c, 0, 64, 91
1, 493903, Control_c, 0, 64, 121
1, 493904, Note_off_c, 0, 89, 49
1, 493918, Control_c, 0, 64, 127
1, 493925, Note_off_c, 0, 82, 60
1, 493929, Note_off_c, 0, 94, 65
1, 493947, Note_on_c, 0, 46, 18
1, 493966, Note_off_c, 0, 46, 58
1, 493989, Note_on_c, 0, 58, 94
1, 493994, Note_on_c, 0, 46, 94
1, 494007, Note_off_c, 0, 58, 74
1, 494012, Poly_aftertouch_c, 0, 34, 0
1, 494015, Note_off_c, 0, 46, 69
1, 494030, Note_on_c, 0, 80, 95
1, 494034, Note_on_c, 0, 92, 98
1, 494047, Note_on_c, 0, 88, 50
1, 494079, Note_off_c, 0, 80, 60
1, 494099, Note_on_c, 0, 40, 76
1, 494101, Note_on_c, 0, 52, 74
1, 494103, Note_off_c, 0, 92, 65
1, 494112, Note_on_c, 0, 42, 54
1, 494120, Note_off_c, 0, 52, 68
1, 494124, Note_off_c, 0, 40, 66
1, 494138, Note_off_c, 0, 42, 56
1, 494145, Note_off_c, 0, 88, 57
1, 494154, Control_c, 0, 64, 116
1, 494157, Note_off_c, 0, 86, 64
1, 494169, Control_c, 0, 64, 90
1, 494184, Control_c, 0, 64, 71
1, 494189, Poly_aftertouch_c, 0, 44, 0
1, 494190, Note_on_c, 0, 81, 108
1, 494192, Note_on_c, 0, 93, 109
1, 494198, Note_on_c, 0, 90, 91
1, 494199, Note_on_c, 0, 45, 106
1, 494199, Control_c, 0, 64, 68
1, 494201, Note_on_c, 0, 35, 93
1, 494213, Control_c, 0, 64, 81
1, 494215, Note_off_c, 0, 90, 73
1, 494221, Note_off_c, 0, 93, 60
1, 494224, Note_off_c, 0, 35, 67
1, 494228, Control_c, 0, 64, 102
1, 494229, Note_off_c, 0, 45, 63
1, 494242, Note_on_c, 0, 33, 22
1, 494244, Control_c, 0, 64, 127
1, 494246, Note_on_c, 0, 91, 48
1, 494261, Note_off_c, 0, 81, 54
1, 494270, Note_off_c, 0, 91, 39
1, 494279, Note_off_c, 0, 33, 58
1, 494321, Note_on_c, 0, 80, 49
1, 494338, Note_on_c, 0, 57, 93
1, 494344, Note_on_c, 0, 45, 85
1, 494346, Note_off_c, 0, 80, 58
1, 494353, Poly_aftertouch_c, 0, 35, 127
1, 494361, Note_off_c, 0, 57, 64
1, 494373, Note_off_c, 0, 45, 68
1, 494386, Poly_aftertouch_c, 0, 35, 0
1, 494400, Note_on_c, 0, 89, 107
1, 494401, Note_on_c, 0, 77, 103
1, 494404, Note_on_c, 0, 81, 74
1, 494427, Note_off_c, 0, 81, 69
1, 494458, Note_on_c, 0, 40, 74
1, 494484, Note_off_c, 0, 40, 61
1, 494487, Note_off_c, 0, 89, 60
1, 494490, Note_off_c, 0, 77, 59
1, 494505, Poly_aftertouch_c, 0, 86, 0
1, 494525, Poly_aftertouch_c, 0, 38, 127
1, 494562, Control_c, 0, 64, 92
1, 494563, Poly_aftertouch_c, 0, 38, 0
1, 494577, Control_c, 0, 64, 66
1, 494580, Note_on_c, 0, 88, 104
1, 494581, Note_on_c, 0, 28, 104
1, 494582, Note_on_c, 0, 76, 104
1, 494586, Note_on_c, 0, 80, 94
1, 494592, Control_c, 0, 64, 0
1, 494593, Note_on_c, 0, 85, 80
1, 494607, Note_on_c, 0, 32, 52
1, 494607, Control_c, 0, 64, 33
1, 494618, Note_on_c, 0, 35, 40
1, 494622, Control_c, 0, 64, 70
1, 494626, Note_on_c, 0, 29, 31
1, 494630, Note_off_c, 0, 85, 61
1, 494631, Note_off_c, 0, 88, 59
1, 494637, Control_c, 0, 64, 82
1, 494638, Note_off_c, 0, 80, 64
1, 494650, Note_on_c, 0, 86, 43
1, 494652, Control_c, 0, 64, 98
1, 494657, Note_on_c, 0, 79, 29
1, 494658, Note_off_c, 0, 35, 51
1, 494666, Note_off_c, 0, 29, 52
1, 494667, Control_c, 0, 64, 115
1, 494670, Note_off_c, 0, 76, 64
1, 494678, Note_off_c, 0, 86, 53
1, 494682, Control_c, 0, 64, 123
1, 494693, Note_off_c, 0, 79, 31
1, 494696, Control_c, 0, 64, 127
1, 494724, Note_off_c, 0, 28, 62
1, 494729, Note_on_c, 0, 40, 91
1, 494732, Note_off_c, 0, 32, 24
1, 494757, Note_off_c, 0, 40, 70
1, 494843, Note_on_c, 0, 68, 105
1, 494844, Note_on_c, 0, 80, 103
1, 494849, Note_on_c, 0, 72, 75
1, 494869, Note_on_c, 0, 76, 42
1, 494883, Note_on_c, 0, 78, 46
1, 494904, Note_off_c, 0, 76, 45
1, 494910, Note_off_c, 0, 78, 51
1, 494935, Note_off_c, 0, 72, 53
1, 494936, Note_off_c, 0, 68, 59
1, 494945, Poly_aftertouch_c, 0, 44, 127
1, 494955, Poly_aftertouch_c, 0, 46, 127
1, 494961, Note_off_c, 0, 80, 59
1, 494976, Poly_aftertouch_c, 0, 49, 0
1, 494986, Note_on_c, 0, 52, 112
1, 494987, Poly_aftertouch_c, 0, 44, 0
1, 494988, Note_on_c, 0, 40, 103
1, 494995, Poly_aftertouch_c, 0, 44, 0
1, 494995, Poly_aftertouch_c, 0, 46, 0
1, 495011, Poly_aftertouch_c, 0, 76, 127
1, 495022, Note_on_c, 0, 48, 44
1, 495045, Note_on_c, 0, 43, 14
1, 495069, Note_off_c, 0, 48, 46
1, 495091, Control_c, 0, 64, 107
1, 495101, Poly_aftertouch_c, 0, 76, 0
1, 495106, Control_c, 0, 64, 79
1, 495120, Control_c, 0, 64, 0
1, 495137, Note_off_c, 0, 40, 66
1, 495140, Note_off_c, 0, 43, 32
1, 495143, Note_on_c, 0, 69, 106
1, 495146, Note_on_c, 0, 81, 100
1, 495149, Note_on_c, 0, 76, 75
1, 495149, Note_on_c, 0, 72, 81
1, 495157, Note_off_c, 0, 52, 69
1, 495165, Control_c, 0, 64, 63
1, 495180, Control_c, 0, 64, 84
1, 495186, Note_on_c, 0, 79, 39
1, 495194, Control_c, 0, 64, 127
1, 495197, Note_off_c, 0, 72, 62
1, 495197, Note_off_c, 0, 76, 64
1, 495198, Note_off_c, 0, 69, 61
1, 495215, Note_off_c, 0, 79, 51
1, 495220, Note_off_c, 0, 81, 65
1, 495320, Note_on_c, 0, 57, 97
1, 495324, Note_on_c, 0, 45, 84
1, 495343, Note_off_c, 0, 57, 66
1, 495355, Note_off_c, 0, 45, 67
1, 495414, Note_on_c, 0, 88, 102
1, 495415, Note_on_c, 0, 76, 104
1, 495420, Note_on_c, 0, 80, 70
1, 495438, Note_off_c, 0, 80, 68
1, 495447, Note_off_c, 0, 88, 63
1, 495449, Note_on_c, 0, 86, 60
1, 495459, Note_off_c, 0, 76, 70
1, 495468, Note_off_c, 0, 86, 63
1, 495536, Note_on_c, 0, 52, 76
1, 495542, Note_on_c, 0, 40, 67
1, 495550, Note_on_c, 0, 50, 52
1, 495564, Note_off_c, 0, 40, 66
1, 495565, Note_off_c, 0, 52, 64
1, 495578, Note_off_c, 0, 50, 53
1, 495607, Note_on_c, 0, 76, 36
1, 495610, Note_on_c, 0, 69, 92
1, 495611, Note_on_c, 0, 72, 78
1, 495615, Note_on_c, 0, 81, 91
1, 495627, Note_off_c, 0, 69, 74
1, 495632, Note_off_c, 0, 72, 72
1, 495641, Note_off_c, 0, 76, 66
1, 495654, Note_off_c, 0, 81, 64
1, 495718, Note_on_c, 0, 57, 93
1, 495727, Note_on_c, 0, 45, 78
1, 495738, Note_off_c, 0, 57, 70
1, 495761, Note_off_c, 0, 45, 63
1, 495794, Note_on_c, 0, 83, 46
1, 495795, Note_on_c, 0, 76, 99
1, 495797, Note_on_c, 0, 88, 105
1, 495801, Note_on_c, 0, 80, 79
1, 495827, Note_off_c, 0, 83, 64
1, 495828, Note_off_c, 0, 80, 72
1, 495839, Note_on_c, 0, 86, 64
1, 495841, Note_off_c, 0, 88, 64
1, 495858, Note_off_c, 0, 76, 60
1, 495865, Note_off_c, 0, 86, 67
1, 495912, Note_on_c, 0, 52, 83
1, 495920, Note_on_c, 0, 40, 83
1, 495944, Note_on_c, 0, 50, 44
1, 495952, Note_off_c, 0, 40, 64
1, 495961, Note_off_c, 0, 52, 66
1, 495976, Note_off_c, 0, 50, 56
1, 495983, Note_on_c, 0, 69, 106
1, 495985, Note_on_c, 0, 76, 66
1, 495988, Note_on_c, 0, 81, 96
1, 495989, Note_on_c, 0, 72, 81
1, 496005, Note_off_c, 0, 69, 64
1, 496007, Note_off_c, 0, 76, 72
1, 496010, Note_off_c, 0, 72, 67
1, 496029, Note_off_c, 0, 81, 64
1, 496083, Note_on_c, 0, 57, 88
1, 496090, Note_on_c, 0, 45, 77
1, 496104, Note_off_c, 0, 57, 70
1, 496121, Note_off_c, 0, 45, 67
1, 496127, Note_on_c, 0, 83, 42
1, 496165, Note_on_c, 0, 76, 105
1, 496165, Note_off_c, 0, 83, 0
1, 496165, Note_on_c, 0, 83, 41
1, 496165, Note_on_c, 0, 88, 98
1, 496166, Note_on_c, 0, 80, 61
1, 496191, Note_off_c, 0, 83, 65
1, 496197, Note_off_c, 0, 80, 66
1, 496199, Note_off_c, 0, 88, 64
1, 496201, Note_on_c, 0, 86, 67
1, 496215, Note_off_c, 0, 76, 68
1, 496226, Note_off_c, 0, 86, 66
1, 496267, Note_on_c, 0, 52, 96
1, 496275, Note_on_c, 0, 40, 83
1, 496299, Note_off_c, 0, 40, 69
1, 496303, Note_off_c, 0, 52, 67
1, 496340, Note_on_c, 0, 76, 56
1, 496343, Note_on_c, 0, 69, 100
1, 496345, Note_on_c, 0, 72, 85
1, 496347, Note_on_c, 0, 81, 93
1, 496363, Note_off_c, 0, 72, 74
1, 496365, Note_off_c, 0, 69, 67
1, 496378, Note_off_c, 0, 76, 66
1, 496392, Note_off_c, 0, 81, 64
1, 496395, Note_on_c, 0, 78, 15
1, 496437, Note_off_c, 0, 78, 31
1, 496440, Note_on_c, 0, 57, 98
1, 496449, Note_on_c, 0, 45, 85
1, 496464, Note_off_c, 0, 57, 67
1, 496473, Note_off_c, 0, 45, 70
1, 496497, Note_on_c, 0, 83, 30
1, 496518, Note_off_c, 0, 83, 0
1, 496532, Note_on_c, 0, 80, 33
1, 496537, Note_on_c, 0, 76, 99
1, 496538, Note_on_c, 0, 88, 104
1, 496539, Note_on_c, 0, 83, 36
1, 496576, Note_off_c, 0, 80, 64
1, 496577, Note_off_c, 0, 83, 62
1, 496578, Note_off_c, 0, 88, 65
1, 496591, Note_on_c, 0, 86, 59
1, 496594, Note_off_c, 0, 76, 71
1, 496610, Note_off_c, 0, 86, 61
1, 496622, Note_on_c, 0, 52, 98
1, 496636, Note_on_c, 0, 40, 69
1, 496659, Note_off_c, 0, 40, 62
1, 496667, Note_off_c, 0, 52, 62
1, 496708, Poly_aftertouch_c, 0, 41, 127
1, 496735, Control_c, 0, 64, 108
1, 496750, Control_c, 0, 64, 74
1, 496751, Poly_aftertouch_c, 0, 41, 0
1, 496765, Control_c, 0, 64, 0
1, 496796, Note_on_c, 0, 69, 114
1, 496797, Note_on_c, 0, 57, 106
1, 496797, Note_on_c, 0, 81, 108
1, 496799, Note_on_c, 0, 72, 95
1, 496800, Note_on_c, 0, 52, 92
1, 496800, Note_on_c, 0, 76, 94
1, 496806, Note_on_c, 0, 48, 86
1, 496809, Note_on_c, 0, 45, 85
1, 496824, Note_on_c, 0, 77, 65
1, 496824, Control_c, 0, 64, 70
1, 496839, Control_c, 0, 64, 127
1, 496851, Note_off_c, 0, 69, 73
1, 496851, Note_off_c, 0, 77, 66
1, 496858, Note_off_c, 0, 57, 66
1, 496866, Note_off_c, 0, 72, 66
1, 496866, Note_off_c, 0, 81, 69
1, 496869, Note_off_c, 0, 52, 66
1, 496872, Note_off_c, 0, 76, 69
1, 496878, Note_off_c, 0, 48, 65
1, 496880, Note_on_c, 0, 50, 2
1, 496892, Note_off_c, 0, 45, 65
1, 496920, Note_off_c, 0, 50, 32
1, 497164, Control_c, 0, 64, 90
1, 497179, Control_c, 0, 64, 42
1, 497194, Control_c, 0, 64, 0
1, 497422, Note_on_c, 0, 52, 103
1, 497423, Note_on_c, 0, 76, 109
1, 497423, Note_on_c, 0, 80, 103
1, 497423, Note_on_c, 0, 88, 110
1, 497425, Note_on_c, 0, 40, 86
1, 497426, Note_on_c, 0, 44, 85
1, 497429, Note_on_c, 0, 47, 83
1, 497429, Note_on_c, 0, 83, 87
1, 497440, Control_c, 0, 64, 86
1, 497455, Control_c, 0, 64, 127
1, 497467, Note_on_c, 0, 41, 39
1, 497467, Note_on_c, 0, 86, 40
1, 497481, Note_off_c, 0, 47, 65
1, 497483, Note_off_c, 0, 52, 65
1, 497498, Note_off_c, 0, 76, 64
1, 497499, Note_off_c, 0, 86, 50
1, 497503, Note_off_c, 0, 44, 64
1, 497505, Note_off_c, 0, 41, 53
1, 497510, Note_off_c, 0, 40, 63
1, 497520, Note_off_c, 0, 80, 57
1, 497530, Note_off_c, 0, 83, 47
1, 497532, Note_off_c, 0, 88, 55
1, 497869, Control_c, 0, 64, 100
1, 497884, Control_c, 0, 64, 71
1, 497899, Control_c, 0, 64, 0
1, 497920, Note_on_c, 0, 33, 98
1, 497973, Control_c, 0, 64, 69
1, 497987, Control_c, 0, 64, 90
1, 498002, Control_c, 0, 64, 127
1, 498085, Note_off_c, 0, 33, 65
1, 498089, Note_on_c, 0, 45, 99
1, 498109, Note_off_c, 0, 45, 72
1, 498323, Note_on_c, 0, 93, 102
1, 498324, Note_on_c, 0, 60, 101
1, 498324, Note_on_c, 0, 57, 90
1, 498325, Note_on_c, 0, 81, 107
1, 498328, Note_on_c, 0, 88, 96
1, 498330, Note_on_c, 0, 52, 86
1, 498333, Note_on_c, 0, 84, 83
1, 498349, Note_on_c, 0, 89, 65
1, 498368, Note_on_c, 0, 85, 34
1, 498369, Note_off_c, 0, 85, 127
1, 498398, Note_off_c, 0, 89, 50
1, 500100, Note_off_c, 0, 93, 61
1, 500115, Note_off_c, 0, 81, 59
1, 500127, Note_off_c, 0, 84, 65
1, 500127, Note_off_c, 0, 88, 61
1, 500156, Note_off_c, 0, 57, 63
1, 500159, Note_off_c, 0, 52, 65
1, 500167, Note_off_c, 0, 60, 59
1, 500330, Control_c, 0, 64, 114
1, 500345, Control_c, 0, 64, 87
1, 500360, Control_c, 0, 64, 53
1, 500375, Control_c, 0, 64, 0
1, 500375, End_track
0, 0, End_of_file
