0, 0, Header, 0, 1, 384
1, 0, Start_track
1, 0, Title_t, "Sonata Hob. XVI:31--Yang Song   "
1, 0, Text_t, "2008 e-Piano Junior Competition recital round"
1, 0, Text_t, "recorded July 2008"
1, 0, Text_t, "http://www.piano-e-competition.com/"
1, 0, Text_t, "File processed for distribution by software from Zenph Studios, Inc., http://www.zenph.com"
1, 0, Instrument_name_t, "Yamaha Disklavier Pro Mark IV concert grand piano, model DCFIIISM4PRO"
1, 0, Sequencer_specific, 39, 67, 113, 0, 1, 0, 1, 0, 83, 111, 110, 97, 116, 97, 32, 72, 111, 98, 88, 86, 73, 58, 51, 49, 89, 97, 110, 103, 32, 83, 111, 110, 103, 32, 32, 32, 32, 32, 32, 32
1, 0, Sequencer_specific, 6, 67, 113, 0, 0, 0, 69
1, 0, System_exclusive, 21, 67, 113, 126, 21, 0, 2, 2, 0, 3, 14, 1, 4, 1, 13, 13, 10, 11, 9, 2, 7, 247
1, 0, Sequencer_specific, 5, 67, 123, 12, 2, 1
1, 0, Tempo, 512820
1, 0, Time_signature, 4, 2, 24, 8
1, 0, System_exclusive, 5, 126, 127, 9, 1, 247
1, 1, System_exclusive, 8, 67, 16, 76, 0, 0, 126, 0, 247
1, 2, System_exclusive, 8, 67, 16, 76, 8, 9, 7, 1, 247
1, 3, Control_c, 0, 0, 0
1, 3, Control_c, 1, 0, 0
1, 3, Control_c, 2, 0, 0
1, 3, Control_c, 3, 0, 0
1, 3, Control_c, 4, 0, 0
1, 3, Control_c, 5, 0, 0
1, 3, Control_c, 6, 0, 0
1, 3, Control_c, 7, 0, 0
1, 3, Control_c, 8, 0, 0
1, 3, Control_c, 9, 0, 127
1, 3, Control_c, 10, 0, 0
1, 3, Control_c, 11, 0, 0
1, 3, Control_c, 12, 0, 0
1, 3, Control_c, 13, 0, 0
1, 3, Control_c, 14, 0, 0
1, 3, Control_c, 15, 0, 0
1, 4, Control_c, 0, 32, 0
1, 4, Control_c, 1, 32, 0
1, 4, Control_c, 2, 32, 0
1, 4, Control_c, 3, 32, 0
1, 4, Control_c, 4, 32, 0
1, 4, Control_c, 5, 32, 0
1, 4, Control_c, 6, 32, 0
1, 4, Control_c, 7, 32, 0
1, 4, Control_c, 8, 32, 0
1, 4, Control_c, 9, 32, 0
1, 4, Control_c, 10, 32, 0
1, 4, Control_c, 11, 32, 0
1, 4, Control_c, 12, 32, 0
1, 4, Control_c, 13, 32, 0
1, 4, Control_c, 14, 32, 0
1, 4, Control_c, 15, 32, 0
1, 5, Program_c, 0, 0
1, 5, Program_c, 1, 0
1, 5, Program_c, 2, 0
1, 5, Program_c, 3, 0
1, 5, Program_c, 4, 0
1, 5, Program_c, 5, 0
1, 5, Program_c, 6, 0
1, 5, Program_c, 7, 0
1, 5, Program_c, 8, 0
1, 5, Program_c, 9, 0
1, 5, Program_c, 10, 0
1, 5, Program_c, 11, 0
1, 5, Program_c, 12, 0
1, 5, Program_c, 13, 0
1, 5, Program_c, 14, 0
1, 5, Program_c, 15, 0
1, 6, Control_c, 0, 7, 100
1, 6, Control_c, 1, 7, 100
1, 6, Control_c, 2, 7, 100
1, 6, Control_c, 3, 7, 100
1, 6, Control_c, 4, 7, 100
1, 6, Control_c, 5, 7, 100
1, 6, Control_c, 6, 7, 100
1, 6, Control_c, 7, 7, 100
1, 6, Control_c, 8, 7, 100
1, 6, Control_c, 9, 7, 100
1, 6, Control_c, 10, 7, 100
1, 6, Control_c, 11, 7, 100
1, 6, Control_c, 12, 7, 100
1, 6, Control_c, 13, 7, 100
1, 6, Control_c, 14, 7, 100
1, 6, Control_c, 15, 7, 100
1, 117, Control_c, 0, 67, 7
1, 229, Control_c, 0, 67, 15
1, 341, Control_c, 0, 67, 22
1, 452, Control_c, 0, 67, 30
1, 564, Control_c, 0, 67, 37
1, 676, Control_c, 0, 67, 45
1, 787, Control_c, 0, 67, 52
1, 899, Control_c, 0, 67, 60
1, 1127, Note_on_c, 0, 83, 60
1, 1134, Note_on_c, 0, 80, 52
1, 1134, Control_c, 0, 67, 60
1, 1208, Control_c, 0, 67, 59
1, 1326, Control_c, 0, 67, 59
1, 1358, Note_on_c, 0, 64, 51
1, 1372, Control_c, 0, 67, 58
1, 1396, Note_off_c, 0, 64, 65
1, 1460, Control_c, 0, 67, 59
1, 1490, Control_c, 0, 67, 59
1, 1520, Control_c, 0, 67, 60
1, 1572, Control_c, 0, 67, 60
1, 1614, Note_on_c, 0, 71, 53
1, 1616, Control_c, 0, 67, 61
1, 1646, Control_c, 0, 67, 62
1, 1661, Control_c, 0, 67, 66
1, 1675, Control_c, 0, 67, 73
1, 1690, Control_c, 0, 67, 77
1, 1705, Control_c, 0, 67, 80
1, 1720, Control_c, 0, 67, 82
1, 1735, Control_c, 0, 67, 83
1, 1749, Control_c, 0, 67, 83
1, 1764, Control_c, 0, 67, 84
1, 1779, Control_c, 0, 67, 84
1, 1794, Control_c, 0, 67, 85
1, 1805, Note_off_c, 0, 80, 58
1, 1809, Control_c, 0, 67, 86
1, 1823, Control_c, 0, 67, 86
1, 1850, Note_on_c, 0, 78, 60
1, 1853, Note_on_c, 0, 81, 68
1, 1957, Control_c, 0, 67, 87
1, 2002, Control_c, 0, 67, 87
1, 2031, Control_c, 0, 67, 88
1, 2046, Control_c, 0, 67, 88
1, 2060, Control_c, 0, 67, 91
1, 2075, Control_c, 0, 67, 92
1, 2090, Control_c, 0, 67, 93
1, 2106, Note_on_c, 0, 80, 79
1, 2108, Note_on_c, 0, 76, 48
1, 2150, Control_c, 0, 67, 93
1, 2157, Note_off_c, 0, 83, 53
1, 2157, Note_off_c, 0, 78, 58
1, 2181, Control_c, 0, 67, 94
1, 2196, Note_off_c, 0, 81, 53
1, 2336, Note_on_c, 0, 73, 48
1, 2351, Control_c, 0, 67, 94
1, 2377, Note_off_c, 0, 71, 45
1, 2410, Control_c, 0, 67, 95
1, 2425, Control_c, 0, 67, 95
1, 2440, Control_c, 0, 67, 97
1, 2455, Control_c, 0, 67, 100
1, 2470, Control_c, 0, 67, 101
1, 2485, Control_c, 0, 67, 102
1, 2499, Control_c, 0, 67, 102
1, 2544, Control_c, 0, 67, 103
1, 2559, Control_c, 0, 67, 103
1, 2588, Control_c, 0, 67, 104
1, 2598, Note_on_c, 0, 78, 70
1, 2602, Note_on_c, 0, 70, 46
1, 2603, Control_c, 0, 67, 106
1, 2605, Note_off_c, 0, 73, 50
1, 2617, Control_c, 0, 67, 107
1, 2632, Control_c, 0, 67, 108
1, 2643, Note_off_c, 0, 76, 48
1, 2758, Note_off_c, 0, 80, 56
1, 2786, Note_off_c, 0, 70, 49
1, 2832, Note_on_c, 0, 71, 42
1, 2837, Note_on_c, 0, 75, 52
1, 2840, Control_c, 0, 67, 107
1, 2959, Control_c, 0, 67, 107
1, 3103, Note_on_c, 0, 68, 46
1, 3114, Note_on_c, 0, 76, 78
1, 3150, Note_off_c, 0, 78, 62
1, 3164, Note_off_c, 0, 75, 65
1, 3232, Control_c, 0, 67, 107
1, 3333, Note_off_c, 0, 68, 54
1, 3357, Note_on_c, 0, 64, 48
1, 3381, Control_c, 0, 67, 107
1, 3410, Control_c, 0, 67, 106
1, 3425, Control_c, 0, 67, 106
1, 3439, Control_c, 0, 67, 105
1, 3446, Note_off_c, 0, 64, 55
1, 3454, Control_c, 0, 67, 105
1, 3469, Control_c, 0, 67, 104
1, 3484, Control_c, 0, 67, 103
1, 3494, Note_on_c, 0, 78, 59
1, 3498, Note_off_c, 0, 76, 39
1, 3499, Control_c, 0, 67, 101
1, 3513, Control_c, 0, 67, 97
1, 3528, Note_on_c, 0, 80, 68
1, 3528, Control_c, 0, 67, 93
1, 3539, Note_off_c, 0, 78, 65
1, 3543, Control_c, 0, 67, 84
1, 3558, Control_c, 0, 67, 70
1, 3570, Note_on_c, 0, 81, 78
1, 3573, Control_c, 0, 67, 45
1, 3577, Note_on_c, 0, 63, 45
1, 3588, Control_c, 0, 67, 0
1, 3591, Note_off_c, 0, 80, 64
1, 3614, Note_off_c, 0, 81, 59
1, 3635, Note_off_c, 0, 63, 54
1, 3798, Note_off_c, 0, 71, 41
1, 3826, Note_on_c, 0, 64, 57
1, 3836, Note_on_c, 0, 80, 72
1, 3862, Note_off_c, 0, 80, 65
1, 3984, Note_off_c, 0, 64, 24
1, 4077, Note_on_c, 0, 69, 53
1, 4078, Note_on_c, 0, 73, 49
1, 4089, Note_on_c, 0, 78, 66
1, 4112, Note_off_c, 0, 78, 61
1, 4117, Note_off_c, 0, 73, 50
1, 4140, Note_on_c, 0, 80, 73
1, 4141, Note_off_c, 0, 69, 49
1, 4172, Note_off_c, 0, 80, 62
1, 4179, Note_on_c, 0, 78, 72
1, 4223, Note_off_c, 0, 78, 63
1, 4229, Note_on_c, 0, 80, 70
1, 4272, Note_on_c, 0, 78, 64
1, 4279, Note_off_c, 0, 80, 64
1, 4352, Note_off_c, 0, 78, 59
1, 4391, Note_on_c, 0, 76, 52
1, 4400, Note_on_c, 0, 71, 28
1, 4418, Note_on_c, 0, 68, 34
1, 4603, Note_off_c, 0, 68, 40
1, 4650, Note_off_c, 0, 71, 32
1, 4715, Note_off_c, 0, 76, 35
1, 5843, Note_on_c, 0, 71, 59
1, 5850, Note_on_c, 0, 68, 49
1, 6077, Note_on_c, 0, 52, 44
1, 6143, Note_off_c, 0, 52, 59
1, 6332, Note_on_c, 0, 59, 43
1, 6522, Note_off_c, 0, 68, 60
1, 6570, Note_on_c, 0, 66, 56
1, 6574, Note_on_c, 0, 69, 65
1, 6834, Note_on_c, 0, 68, 81
1, 6838, Note_on_c, 0, 64, 54
1, 6872, Note_off_c, 0, 66, 65
1, 6879, Note_off_c, 0, 71, 54
1, 6913, Note_off_c, 0, 69, 58
1, 7072, Note_on_c, 0, 61, 53
1, 7139, Note_off_c, 0, 59, 35
1, 7334, Note_off_c, 0, 61, 53
1, 7336, Note_on_c, 0, 66, 80
1, 7341, Note_on_c, 0, 58, 42
1, 7405, Note_off_c, 0, 64, 55
1, 7460, Note_off_c, 0, 68, 51
1, 7561, Note_off_c, 0, 58, 47
1, 7591, Note_on_c, 0, 59, 40
1, 7591, Note_on_c, 0, 63, 53
1, 7841, Note_on_c, 0, 56, 43
1, 7842, Note_on_c, 0, 64, 81
1, 7854, Note_off_c, 0, 66, 55
1, 7912, Note_off_c, 0, 63, 65
1, 8092, Note_on_c, 0, 52, 45
1, 8152, Note_off_c, 0, 56, 38
1, 8214, Note_on_c, 0, 66, 52
1, 8249, Note_off_c, 0, 64, 54
1, 8250, Note_on_c, 0, 68, 69
1, 8261, Note_off_c, 0, 52, 59
1, 8286, Note_on_c, 0, 51, 64
1, 8288, Note_on_c, 0, 69, 78
1, 8295, Note_off_c, 0, 66, 65
1, 8319, Note_off_c, 0, 68, 65
1, 8342, Note_off_c, 0, 69, 62
1, 8395, Note_off_c, 0, 51, 32
1, 8538, Note_off_c, 0, 59, 36
1, 8539, Note_on_c, 0, 68, 83
1, 8539, Note_on_c, 0, 52, 71
1, 8564, Note_off_c, 0, 52, 69
1, 8573, Note_off_c, 0, 68, 65
1, 8763, Note_on_c, 0, 73, 90
1, 8765, Note_on_c, 0, 45, 69
1, 8766, Note_on_c, 0, 69, 74
1, 8770, Note_on_c, 0, 64, 74
1, 8786, Control_c, 0, 64, 64
1, 8788, Note_off_c, 0, 69, 72
1, 8796, Note_off_c, 0, 64, 66
1, 8800, Control_c, 0, 64, 57
1, 8804, Note_off_c, 0, 45, 63
1, 8815, Control_c, 0, 64, 30
1, 8816, Note_off_c, 0, 73, 62
1, 8830, Control_c, 0, 64, 16
1, 8844, Control_c, 0, 64, 0
1, 9028, Note_on_c, 0, 71, 74
1, 9031, Note_on_c, 0, 68, 61
1, 9032, Note_on_c, 0, 52, 57
1, 9034, Note_on_c, 0, 64, 57
1, 9073, Note_off_c, 0, 52, 64
1, 9084, Note_off_c, 0, 64, 59
1, 9090, Note_off_c, 0, 68, 58
1, 9109, Note_off_c, 0, 71, 58
1, 9918, Note_on_c, 0, 64, 50
1, 9969, Note_on_c, 0, 76, 66
1, 9972, Note_off_c, 0, 64, 55
1, 10172, Note_on_c, 0, 44, 64
1, 10176, Note_on_c, 0, 32, 65
1, 10203, Note_off_c, 0, 44, 65
1, 10212, Note_off_c, 0, 32, 61
1, 10428, Note_on_c, 0, 44, 69
1, 10432, Note_on_c, 0, 32, 72
1, 10461, Note_off_c, 0, 44, 64
1, 10471, Note_off_c, 0, 32, 65
1, 10551, Note_on_c, 0, 75, 64
1, 10613, Note_off_c, 0, 76, 27
1, 10626, Note_on_c, 0, 73, 69
1, 10670, Note_off_c, 0, 75, 60
1, 10697, Note_on_c, 0, 71, 75
1, 10721, Note_off_c, 0, 73, 61
1, 10742, Note_off_c, 0, 71, 59
1, 10761, Note_on_c, 0, 69, 79
1, 10840, Note_on_c, 0, 68, 72
1, 10841, Note_off_c, 0, 69, 61
1, 10912, Note_off_c, 0, 68, 64
1, 10924, Note_on_c, 0, 66, 73
1, 10963, Note_off_c, 0, 66, 63
1, 11185, Note_on_c, 0, 45, 47
1, 11193, Note_on_c, 0, 33, 45
1, 11234, Note_off_c, 0, 45, 57
1, 11241, Note_off_c, 0, 33, 60
1, 11465, Note_on_c, 0, 33, 41
1, 11465, Note_on_c, 0, 45, 38
1, 11576, Note_on_c, 0, 85, 60
1, 11584, Note_off_c, 0, 33, 42
1, 11615, Note_off_c, 0, 45, 37
1, 11669, Note_on_c, 0, 83, 67
1, 11686, Note_off_c, 0, 85, 62
1, 11719, Note_off_c, 0, 83, 59
1, 11747, Note_on_c, 0, 81, 75
1, 11819, Note_on_c, 0, 80, 76
1, 11820, Note_off_c, 0, 81, 55
1, 11898, Note_on_c, 0, 78, 82
1, 11905, Note_off_c, 0, 80, 65
1, 11957, Note_off_c, 0, 78, 63
1, 11974, Note_on_c, 0, 76, 75
1, 12053, Note_on_c, 0, 75, 78
1, 12060, Note_off_c, 0, 76, 64
1, 12135, Note_on_c, 0, 73, 76
1, 12174, Note_off_c, 0, 75, 60
1, 12190, Note_on_c, 0, 47, 52
1, 12194, Note_on_c, 0, 35, 49
1, 12204, Note_on_c, 0, 71, 75
1, 12218, Note_off_c, 0, 73, 58
1, 12253, Note_off_c, 0, 47, 56
1, 12261, Note_off_c, 0, 71, 61
1, 12262, Note_off_c, 0, 35, 52
1, 12277, Note_on_c, 0, 69, 82
1, 12331, Note_off_c, 0, 69, 52
1, 12353, Note_on_c, 0, 68, 77
1, 12415, Note_on_c, 0, 47, 51
1, 12423, Note_on_c, 0, 66, 78
1, 12426, Note_on_c, 0, 35, 43
1, 12447, Note_off_c, 0, 68, 62
1, 12476, Note_off_c, 0, 47, 52
1, 12480, Note_off_c, 0, 66, 66
1, 12483, Note_off_c, 0, 35, 46
1, 12498, Note_on_c, 0, 64, 75
1, 12562, Note_off_c, 0, 64, 41
1, 12579, Note_on_c, 0, 63, 66
1, 12610, Note_off_c, 0, 63, 50
1, 12637, Note_on_c, 0, 47, 45
1, 12647, Note_on_c, 0, 35, 30
1, 12647, Note_on_c, 0, 61, 69
1, 12671, Note_off_c, 0, 47, 65
1, 12680, Note_off_c, 0, 35, 49
1, 12727, Note_off_c, 0, 61, 63
1, 12729, Note_on_c, 0, 59, 70
1, 12769, Note_off_c, 0, 59, 64
1, 12792, Note_on_c, 0, 57, 57
1, 12827, Note_off_c, 0, 57, 59
1, 12855, Note_on_c, 0, 59, 60
1, 12893, Note_off_c, 0, 59, 62
1, 12911, Note_on_c, 0, 57, 59
1, 12941, Note_off_c, 0, 57, 63
1, 12965, Note_on_c, 0, 59, 57
1, 13000, Note_off_c, 0, 59, 64
1, 13009, Note_on_c, 0, 57, 64
1, 13026, Note_on_c, 0, 52, 51
1, 13028, Note_on_c, 0, 40, 53
1, 13042, Note_off_c, 0, 57, 64
1, 13053, Note_on_c, 0, 59, 72
1, 13067, Note_off_c, 0, 52, 59
1, 13073, Note_off_c, 0, 40, 60
1, 13103, Note_on_c, 0, 57, 67
1, 13115, Note_off_c, 0, 59, 62
1, 13290, Note_off_c, 0, 57, 57
1, 13306, Note_on_c, 0, 40, 47
1, 13309, Note_on_c, 0, 56, 56
1, 13315, Note_on_c, 0, 52, 31
1, 13374, Note_off_c, 0, 52, 46
1, 13382, Note_off_c, 0, 40, 56
1, 13426, Control_c, 0, 64, 13
1, 13440, Control_c, 0, 64, 39
1, 13455, Control_c, 0, 64, 47
1, 13470, Control_c, 0, 64, 52
1, 13485, Control_c, 0, 64, 56
1, 13493, Note_off_c, 0, 56, 61
1, 13500, Control_c, 0, 64, 59
1, 13522, Control_c, 0, 64, 60
1, 13537, Control_c, 0, 64, 60
1, 13610, Note_on_c, 0, 52, 47
1, 13617, Note_on_c, 0, 40, 46
1, 13641, Control_c, 0, 64, 61
1, 13660, Note_off_c, 0, 52, 62
1, 13670, Control_c, 0, 64, 61
1, 13693, Note_off_c, 0, 40, 59
1, 13715, Control_c, 0, 64, 61
1, 13744, Control_c, 0, 64, 60
1, 13759, Control_c, 0, 64, 60
1, 13774, Control_c, 0, 64, 59
1, 13789, Control_c, 0, 64, 58
1, 13803, Control_c, 0, 64, 57
1, 13806, Note_on_c, 0, 64, 81
1, 13818, Control_c, 0, 64, 54
1, 13833, Control_c, 0, 64, 50
1, 13848, Control_c, 0, 64, 43
1, 13863, Control_c, 0, 64, 36
1, 13878, Control_c, 0, 64, 28
1, 13893, Note_on_c, 0, 76, 91
1, 13893, Control_c, 0, 64, 22
1, 13908, Control_c, 0, 64, 0
1, 13922, Control_c, 0, 67, 9
1, 13937, Control_c, 0, 67, 9
1, 14067, Note_off_c, 0, 64, 50
1, 14070, Control_c, 0, 67, 9
1, 14085, Control_c, 0, 67, 8
1, 14114, Control_c, 0, 67, 8
1, 14129, Note_on_c, 0, 44, 75
1, 14131, Note_on_c, 0, 32, 76
1, 14163, Note_off_c, 0, 44, 65
1, 14170, Note_off_c, 0, 32, 65
1, 14175, Control_c, 0, 67, 0
1, 14396, Note_on_c, 0, 44, 75
1, 14397, Note_on_c, 0, 32, 73
1, 14430, Note_off_c, 0, 44, 68
1, 14441, Note_off_c, 0, 32, 63
1, 14492, Note_on_c, 0, 75, 76
1, 14590, Note_on_c, 0, 73, 82
1, 14659, Note_on_c, 0, 71, 79
1, 14662, Note_off_c, 0, 76, 52
1, 14667, Note_off_c, 0, 75, 62
1, 14702, Note_off_c, 0, 73, 64
1, 14731, Note_off_c, 0, 71, 62
1, 14739, Note_on_c, 0, 69, 82
1, 14811, Note_on_c, 0, 68, 82
1, 14823, Note_off_c, 0, 69, 62
1, 14893, Note_off_c, 0, 68, 64
1, 14906, Note_on_c, 0, 66, 76
1, 14923, Control_c, 0, 67, 8
1, 14954, Control_c, 0, 67, 8
1, 14957, Note_off_c, 0, 66, 65
1, 15187, Note_on_c, 0, 45, 47
1, 15190, Note_on_c, 0, 33, 46
1, 15233, Note_off_c, 0, 45, 58
1, 15237, Note_off_c, 0, 33, 59
1, 15242, Control_c, 0, 67, 9
1, 15316, Control_c, 0, 67, 9
1, 15405, Control_c, 0, 67, 10
1, 15419, Control_c, 0, 67, 10
1, 15476, Note_on_c, 0, 45, 35
1, 15484, Note_on_c, 0, 33, 34
1, 15538, Control_c, 0, 67, 11
1, 15617, Note_on_c, 0, 88, 67
1, 15658, Control_c, 0, 67, 11
1, 15678, Note_off_c, 0, 33, 45
1, 15713, Note_on_c, 0, 87, 74
1, 15744, Note_off_c, 0, 45, 44
1, 15822, Note_on_c, 0, 85, 80
1, 15858, Control_c, 0, 67, 12
1, 15888, Control_c, 0, 67, 12
1, 15889, Note_on_c, 0, 83, 81
1, 15912, Note_off_c, 0, 87, 59
1, 15917, Control_c, 0, 67, 13
1, 15935, Note_off_c, 0, 88, 36
1, 15946, Note_off_c, 0, 85, 64
1, 15970, Note_off_c, 0, 83, 60
1, 15975, Note_on_c, 0, 81, 89
1, 15991, Control_c, 0, 67, 13
1, 16021, Control_c, 0, 67, 14
1, 16051, Note_on_c, 0, 80, 85
1, 16066, Control_c, 0, 67, 14
1, 16067, Note_off_c, 0, 81, 55
1, 16081, Control_c, 0, 67, 15
1, 16111, Control_c, 0, 67, 15
1, 16125, Control_c, 0, 67, 16
1, 16129, Note_on_c, 0, 78, 85
1, 16140, Control_c, 0, 67, 17
1, 16155, Control_c, 0, 67, 18
1, 16159, Note_off_c, 0, 80, 63
1, 16184, Control_c, 0, 67, 19
1, 16193, Note_off_c, 0, 78, 64
1, 16199, Control_c, 0, 67, 19
1, 16214, Note_on_c, 0, 76, 76
1, 16229, Control_c, 0, 67, 20
1, 16287, Note_on_c, 0, 75, 78
1, 16287, Note_off_c, 0, 76, 62
1, 16298, Note_on_c, 0, 47, 52
1, 16304, Note_on_c, 0, 35, 45
1, 16349, Note_off_c, 0, 47, 56
1, 16351, Note_off_c, 0, 35, 58
1, 16369, Note_on_c, 0, 73, 78
1, 16391, Control_c, 0, 67, 20
1, 16426, Note_off_c, 0, 75, 57
1, 16436, Control_c, 0, 67, 21
1, 16446, Note_on_c, 0, 71, 78
1, 16471, Note_off_c, 0, 73, 62
1, 16510, Note_off_c, 0, 71, 61
1, 16532, Note_on_c, 0, 69, 82
1, 16536, Note_on_c, 0, 47, 59
1, 16548, Control_c, 0, 67, 21
1, 16549, Note_on_c, 0, 35, 47
1, 16590, Note_off_c, 0, 47, 53
1, 16593, Control_c, 0, 67, 22
1, 16599, Note_off_c, 0, 35, 56
1, 16611, Note_on_c, 0, 68, 80
1, 16619, Note_off_c, 0, 69, 61
1, 16622, Control_c, 0, 67, 22
1, 16652, Control_c, 0, 67, 23
1, 16666, Control_c, 0, 67, 24
1, 16681, Control_c, 0, 67, 24
1, 16687, Note_on_c, 0, 66, 81
1, 16696, Control_c, 0, 67, 25
1, 16704, Note_off_c, 0, 68, 60
1, 16711, Control_c, 0, 67, 25
1, 16726, Control_c, 0, 67, 26
1, 16740, Control_c, 0, 67, 26
1, 16755, Note_off_c, 0, 66, 65
1, 16769, Note_on_c, 0, 64, 78
1, 16772, Note_on_c, 0, 35, 56
1, 16775, Note_on_c, 0, 47, 52
1, 16799, Note_off_c, 0, 35, 57
1, 16802, Note_off_c, 0, 47, 56
1, 16814, Control_c, 0, 67, 27
1, 16844, Control_c, 0, 67, 27
1, 16850, Note_on_c, 0, 63, 79
1, 16859, Control_c, 0, 67, 28
1, 16874, Control_c, 0, 67, 28
1, 16877, Note_off_c, 0, 64, 60
1, 16889, Control_c, 0, 67, 29
1, 16904, Control_c, 0, 67, 29
1, 16919, Control_c, 0, 67, 30
1, 16924, Note_on_c, 0, 69, 76
1, 16927, Note_off_c, 0, 63, 65
1, 16933, Control_c, 0, 67, 32
1, 16948, Control_c, 0, 67, 34
1, 16963, Control_c, 0, 67, 37
1, 16978, Control_c, 0, 67, 38
1, 16992, Control_c, 0, 67, 39
1, 17003, Note_on_c, 0, 68, 78
1, 17007, Control_c, 0, 67, 39
1, 17022, Control_c, 0, 67, 40
1, 17037, Control_c, 0, 67, 41
1, 17052, Control_c, 0, 67, 43
1, 17066, Control_c, 0, 67, 44
1, 17081, Control_c, 0, 67, 46
1, 17088, Note_on_c, 0, 66, 80
1, 17091, Note_off_c, 0, 69, 59
1, 17096, Control_c, 0, 67, 48
1, 17111, Control_c, 0, 67, 49
1, 17126, Control_c, 0, 67, 50
1, 17140, Control_c, 0, 67, 51
1, 17155, Control_c, 0, 67, 53
1, 17166, Note_on_c, 0, 64, 76
1, 17168, Note_off_c, 0, 68, 63
1, 17170, Control_c, 0, 67, 55
1, 17184, Control_c, 0, 67, 57
1, 17185, Note_off_c, 0, 66, 65
1, 17196, Note_off_c, 0, 64, 64
1, 17199, Control_c, 0, 67, 58
1, 17214, Control_c, 0, 67, 59
1, 17229, Control_c, 0, 67, 61
1, 17244, Control_c, 0, 67, 62
1, 17252, Note_on_c, 0, 52, 51
1, 17252, Note_on_c, 0, 64, 75
1, 17266, Control_c, 0, 67, 64
1, 17281, Control_c, 0, 67, 65
1, 17296, Control_c, 0, 67, 67
1, 17311, Control_c, 0, 67, 70
1, 17325, Note_off_c, 0, 52, 54
1, 17326, Control_c, 0, 67, 73
1, 17342, Control_c, 0, 67, 75
1, 17345, Note_on_c, 0, 47, 56
1, 17357, Control_c, 0, 67, 77
1, 17371, Control_c, 0, 67, 79
1, 17386, Control_c, 0, 67, 80
1, 17401, Control_c, 0, 67, 82
1, 17415, Control_c, 0, 67, 83
1, 17422, Note_off_c, 0, 47, 59
1, 17430, Control_c, 0, 67, 85
1, 17435, Note_on_c, 0, 44, 45
1, 17445, Control_c, 0, 67, 88
1, 17460, Control_c, 0, 67, 90
1, 17464, Note_off_c, 0, 64, 53
1, 17475, Control_c, 0, 67, 92
1, 17489, Control_c, 0, 67, 93
1, 17504, Control_c, 0, 67, 94
1, 17515, Note_off_c, 0, 44, 61
1, 17519, Control_c, 0, 67, 96
1, 17534, Control_c, 0, 67, 98
1, 17549, Control_c, 0, 67, 99
1, 17559, Note_on_c, 0, 40, 34
1, 17563, Control_c, 0, 67, 101
1, 17578, Control_c, 0, 67, 101
1, 17593, Control_c, 0, 67, 102
1, 17622, Control_c, 0, 67, 103
1, 17637, Control_c, 0, 67, 105
1, 17652, Control_c, 0, 67, 108
1, 17667, Control_c, 0, 67, 110
1, 17682, Control_c, 0, 67, 112
1, 17697, Control_c, 0, 67, 114
1, 17711, Control_c, 0, 67, 117
1, 17726, Control_c, 0, 67, 119
1, 17741, Control_c, 0, 67, 122
1, 17756, Control_c, 0, 67, 124
1, 17771, Control_c, 0, 67, 127
1, 17898, Note_off_c, 0, 40, 42
1, 18285, Note_on_c, 0, 80, 55
1, 18341, Control_c, 0, 64, 10
1, 18356, Control_c, 0, 64, 21
1, 18371, Control_c, 0, 64, 28
1, 18385, Control_c, 0, 64, 35
1, 18400, Control_c, 0, 64, 42
1, 18415, Control_c, 0, 64, 47
1, 18430, Control_c, 0, 64, 51
1, 18445, Control_c, 0, 64, 53
1, 18460, Control_c, 0, 64, 55
1, 18475, Control_c, 0, 64, 56
1, 18489, Control_c, 0, 64, 58
1, 18504, Control_c, 0, 64, 59
1, 18519, Control_c, 0, 64, 60
1, 18534, Control_c, 0, 64, 61
1, 18546, Note_on_c, 0, 61, 36
1, 18549, Control_c, 0, 64, 62
1, 18558, Note_on_c, 0, 64, 27
1, 18563, Control_c, 0, 64, 63
1, 18578, Control_c, 0, 64, 65
1, 18593, Control_c, 0, 64, 66
1, 18609, Control_c, 0, 64, 67
1, 18624, Control_c, 0, 64, 67
1, 18638, Control_c, 0, 64, 68
1, 18653, Control_c, 0, 64, 68
1, 18667, Note_off_c, 0, 61, 47
1, 18712, Control_c, 0, 64, 69
1, 18776, Note_off_c, 0, 64, 41
1, 18821, Note_on_c, 0, 63, 41
1, 18822, Note_on_c, 0, 60, 47
1, 18823, Note_off_c, 0, 80, 62
1, 18853, Control_c, 0, 64, 68
1, 18868, Control_c, 0, 67, 126
1, 18874, Note_off_c, 0, 60, 57
1, 18874, Note_off_c, 0, 63, 59
1, 18883, Control_c, 0, 67, 123
1, 18889, Note_on_c, 0, 81, 61
1, 18898, Control_c, 0, 64, 68
1, 18898, Control_c, 0, 67, 121
1, 18912, Control_c, 0, 67, 120
1, 18927, Control_c, 0, 67, 118
1, 18943, Note_on_c, 0, 80, 68
1, 18943, Control_c, 0, 67, 117
1, 18948, Note_off_c, 0, 81, 60
1, 18957, Control_c, 0, 64, 67
1, 18957, Control_c, 0, 67, 116
1, 18972, Note_off_c, 0, 80, 66
1, 18984, Note_on_c, 0, 78, 69
1, 18987, Control_c, 0, 64, 67
1, 18987, Control_c, 0, 67, 116
1, 19002, Control_c, 0, 64, 66
1, 19002, Control_c, 0, 67, 116
1, 19017, Control_c, 0, 64, 65
1, 19023, Note_off_c, 0, 78, 60
1, 19026, Note_on_c, 0, 80, 66
1, 19032, Control_c, 0, 64, 64
1, 19032, Control_c, 0, 67, 117
1, 19047, Control_c, 0, 64, 63
1, 19047, Control_c, 0, 67, 117
1, 19061, Control_c, 0, 64, 60
1, 19076, Control_c, 0, 64, 49
1, 19076, Control_c, 0, 67, 118
1, 19091, Control_c, 0, 64, 18
1, 19091, Control_c, 0, 67, 118
1, 19095, Note_on_c, 0, 72, 46
1, 19097, Note_off_c, 0, 80, 63
1, 19105, Note_on_c, 0, 81, 69
1, 19106, Control_c, 0, 64, 0
1, 19112, Note_on_c, 0, 75, 35
1, 19135, Control_c, 0, 67, 119
1, 19165, Control_c, 0, 67, 120
1, 19194, Control_c, 0, 67, 121
1, 19239, Control_c, 0, 67, 121
1, 19254, Control_c, 0, 67, 122
1, 19268, Control_c, 0, 67, 122
1, 19288, Note_on_c, 0, 78, 72
1, 19290, Note_off_c, 0, 75, 58
1, 19294, Note_off_c, 0, 81, 60
1, 19298, Control_c, 0, 64, 27
1, 19298, Control_c, 0, 67, 123
1, 19312, Note_off_c, 0, 72, 63
1, 19313, Control_c, 0, 64, 38
1, 19318, Note_off_c, 0, 78, 62
1, 19328, Control_c, 0, 64, 44
1, 19342, Control_c, 0, 64, 49
1, 19357, Control_c, 0, 64, 54
1, 19367, Note_on_c, 0, 78, 73
1, 19372, Control_c, 0, 64, 57
1, 19387, Control_c, 0, 64, 59
1, 19402, Control_c, 0, 64, 62
1, 19417, Control_c, 0, 64, 63
1, 19431, Control_c, 0, 64, 64
1, 19446, Control_c, 0, 64, 65
1, 19461, Control_c, 0, 64, 66
1, 19476, Control_c, 0, 64, 67
1, 19491, Control_c, 0, 64, 68
1, 19513, Control_c, 0, 64, 69
1, 19528, Control_c, 0, 64, 69
1, 19542, Control_c, 0, 64, 70
1, 19572, Control_c, 0, 64, 70
1, 19633, Note_on_c, 0, 68, 48
1, 19637, Note_on_c, 0, 61, 48
1, 19676, Control_c, 0, 67, 123
1, 19702, Note_off_c, 0, 68, 55
1, 19705, Note_off_c, 0, 61, 53
1, 19842, Note_off_c, 0, 78, 10
1, 19884, Control_c, 0, 64, 69
1, 19899, Control_c, 0, 64, 68
1, 19908, Note_on_c, 0, 76, 58
1, 19914, Control_c, 0, 64, 64
1, 19916, Note_on_c, 0, 61, 43
1, 19920, Note_on_c, 0, 68, 36
1, 19929, Control_c, 0, 64, 60
1, 19944, Control_c, 0, 64, 52
1, 19944, Control_c, 0, 67, 124
1, 19947, Note_off_c, 0, 76, 65
1, 19958, Control_c, 0, 64, 46
1, 19958, Control_c, 0, 67, 124
1, 19962, Note_on_c, 0, 78, 59
1, 19972, Note_off_c, 0, 68, 42
1, 19973, Control_c, 0, 64, 36
1, 19988, Control_c, 0, 64, 16
1, 19998, Note_off_c, 0, 78, 60
1, 20001, Note_on_c, 0, 76, 62
1, 20001, Note_off_c, 0, 61, 44
1, 20003, Control_c, 0, 64, 0
1, 20003, Control_c, 0, 67, 125
1, 20017, Control_c, 0, 67, 125
1, 20036, Note_off_c, 0, 76, 65
1, 20047, Note_on_c, 0, 75, 69
1, 20047, Control_c, 0, 67, 126
1, 20072, Note_off_c, 0, 75, 69
1, 20077, Control_c, 0, 67, 126
1, 20091, Note_on_c, 0, 76, 60
1, 20165, Note_off_c, 0, 76, 66
1, 20170, Note_on_c, 0, 80, 72
1, 20171, Note_on_c, 0, 64, 46
1, 20359, Note_on_c, 0, 73, 72
1, 20400, Note_off_c, 0, 73, 60
1, 20409, Control_c, 0, 67, 126
1, 20422, Note_off_c, 0, 64, 48
1, 20457, Note_on_c, 0, 73, 70
1, 20459, Note_on_c, 0, 75, 78
1, 20461, Note_on_c, 0, 66, 71
1, 20488, Note_off_c, 0, 66, 69
1, 20594, Note_off_c, 0, 80, 33
1, 20677, Control_c, 0, 67, 125
1, 20734, Note_on_c, 0, 66, 85
1, 20786, Note_off_c, 0, 66, 66
1, 20984, Note_off_c, 0, 73, 55
1, 21031, Note_on_c, 0, 68, 70
1, 21035, Note_on_c, 0, 72, 56
1, 21086, Note_off_c, 0, 68, 58
1, 21114, Control_c, 0, 67, 125
1, 21173, Control_c, 0, 67, 124
1, 21293, Note_off_c, 0, 75, 60
1, 21298, Note_on_c, 0, 68, 56
1, 21303, Note_on_c, 0, 76, 62
1, 21318, Note_off_c, 0, 72, 27
1, 21352, Control_c, 0, 67, 124
1, 21369, Note_off_c, 0, 68, 48
1, 21426, Control_c, 0, 67, 123
1, 21500, Control_c, 0, 67, 123
1, 21508, Note_off_c, 0, 76, 64
1, 21527, Note_on_c, 0, 78, 53
1, 21545, Control_c, 0, 67, 122
1, 21560, Control_c, 0, 67, 122
1, 21594, Note_off_c, 0, 78, 48
1, 21604, Control_c, 0, 67, 121
1, 21610, Note_on_c, 0, 76, 52
1, 21616, Note_on_c, 0, 61, 46
1, 21619, Control_c, 0, 67, 121
1, 21649, Control_c, 0, 67, 120
1, 21663, Control_c, 0, 67, 120
1, 21685, Note_on_c, 0, 75, 55
1, 21685, Note_off_c, 0, 76, 57
1, 21693, Control_c, 0, 67, 119
1, 21737, Control_c, 0, 67, 119
1, 21759, Control_c, 0, 67, 118
1, 21765, Note_off_c, 0, 75, 63
1, 21777, Note_off_c, 0, 61, 57
1, 21780, Note_on_c, 0, 73, 54
1, 21804, Control_c, 0, 67, 118
1, 21874, Note_off_c, 0, 73, 63
1, 21908, Control_c, 0, 67, 117
1, 21923, Control_c, 0, 67, 117
1, 21937, Control_c, 0, 67, 116
1, 21952, Control_c, 0, 67, 114
1, 21967, Control_c, 0, 67, 101
1, 21981, Control_c, 0, 67, 72
1, 21996, Control_c, 0, 67, 9
1, 22011, Control_c, 0, 67, 0
1, 22159, Note_on_c, 0, 61, 61
1, 22163, Note_on_c, 0, 49, 65
1, 22219, Note_off_c, 0, 61, 61
1, 22235, Note_on_c, 0, 63, 73
1, 22245, Note_on_c, 0, 51, 70
1, 22250, Note_off_c, 0, 49, 60
1, 22290, Note_off_c, 0, 63, 63
1, 22306, Note_off_c, 0, 51, 62
1, 22316, Note_on_c, 0, 52, 82
1, 22316, Note_on_c, 0, 64, 82
1, 22391, Note_off_c, 0, 52, 64
1, 22392, Note_on_c, 0, 51, 79
1, 22400, Note_on_c, 0, 63, 87
1, 22439, Note_off_c, 0, 64, 63
1, 22470, Note_on_c, 0, 61, 80
1, 22481, Note_on_c, 0, 49, 71
1, 22484, Note_off_c, 0, 51, 63
1, 22506, Note_off_c, 0, 63, 64
1, 22522, Note_off_c, 0, 49, 64
1, 22538, Note_off_c, 0, 61, 63
1, 22558, Note_on_c, 0, 59, 86
1, 22564, Note_on_c, 0, 47, 76
1, 22615, Note_off_c, 0, 47, 58
1, 22633, Note_on_c, 0, 58, 77
1, 22633, Note_off_c, 0, 59, 52
1, 22654, Note_on_c, 0, 46, 57
1, 22693, Note_off_c, 0, 46, 61
1, 22704, Note_on_c, 0, 44, 62
1, 22708, Note_on_c, 0, 56, 71
1, 22715, Note_off_c, 0, 58, 62
1, 22785, Note_off_c, 0, 56, 64
1, 22798, Note_off_c, 0, 44, 64
1, 22803, Note_on_c, 0, 54, 77
1, 22812, Note_on_c, 0, 42, 72
1, 22819, Control_c, 0, 64, 59
1, 22834, Control_c, 0, 64, 65
1, 22849, Control_c, 0, 64, 67
1, 22850, Note_off_c, 0, 42, 66
1, 22859, Note_off_c, 0, 54, 63
1, 22864, Control_c, 0, 64, 70
1, 22878, Control_c, 0, 64, 74
1, 22893, Control_c, 0, 64, 78
1, 22908, Control_c, 0, 64, 79
1, 22923, Control_c, 0, 64, 80
1, 22998, Control_c, 0, 64, 80
1, 23042, Control_c, 0, 64, 80
1, 23101, Control_c, 0, 64, 79
1, 23116, Control_c, 0, 64, 78
1, 23131, Control_c, 0, 64, 76
1, 23132, Note_on_c, 0, 78, 87
1, 23146, Control_c, 0, 64, 74
1, 23161, Control_c, 0, 64, 73
1, 23175, Control_c, 0, 64, 72
1, 23190, Control_c, 0, 64, 71
1, 23205, Control_c, 0, 64, 70
1, 23220, Control_c, 0, 64, 69
1, 23235, Control_c, 0, 64, 68
1, 23257, Control_c, 0, 64, 68
1, 23302, Control_c, 0, 64, 67
1, 23346, Control_c, 0, 64, 66
1, 23360, Control_c, 0, 64, 65
1, 23375, Control_c, 0, 64, 64
1, 23390, Control_c, 0, 64, 63
1, 23405, Control_c, 0, 64, 62
1, 23415, Note_on_c, 0, 58, 42
1, 23416, Note_on_c, 0, 61, 41
1, 23420, Control_c, 0, 64, 61
1, 23435, Control_c, 0, 64, 59
1, 23450, Control_c, 0, 64, 56
1, 23450, Note_off_c, 0, 78, 60
1, 23465, Control_c, 0, 64, 52
1, 23479, Control_c, 0, 64, 47
1, 23494, Control_c, 0, 64, 46
1, 23500, Note_on_c, 0, 80, 58
1, 23509, Control_c, 0, 64, 45
1, 23524, Control_c, 0, 64, 44
1, 23552, Note_on_c, 0, 78, 81
1, 23553, Control_c, 0, 64, 43
1, 23557, Note_off_c, 0, 80, 63
1, 23568, Control_c, 0, 64, 42
1, 23581, Note_off_c, 0, 58, 54
1, 23583, Control_c, 0, 64, 41
1, 23585, Note_off_c, 0, 78, 63
1, 23598, Control_c, 0, 64, 40
1, 23604, Note_on_c, 0, 76, 69
1, 23613, Control_c, 0, 64, 39
1, 23627, Control_c, 0, 64, 38
1, 23642, Control_c, 0, 64, 37
1, 23643, Note_on_c, 0, 78, 72
1, 23657, Control_c, 0, 64, 34
1, 23670, Note_off_c, 0, 76, 60
1, 23672, Control_c, 0, 64, 32
1, 23687, Control_c, 0, 64, 29
1, 23697, Note_off_c, 0, 78, 65
1, 23698, Note_on_c, 0, 80, 69
1, 23716, Control_c, 0, 64, 28
1, 23791, Control_c, 0, 64, 27
1, 23806, Control_c, 0, 64, 26
1, 23821, Control_c, 0, 64, 24
1, 23836, Control_c, 0, 64, 19
1, 23850, Control_c, 0, 64, 16
1, 23865, Control_c, 0, 64, 10
1, 23880, Control_c, 0, 64, 0
1, 23888, Note_off_c, 0, 80, 62
1, 23896, Note_on_c, 0, 76, 59
1, 23915, Note_off_c, 0, 76, 67
1, 23931, Note_off_c, 0, 61, 33
1, 23985, Note_on_c, 0, 76, 70
1, 24243, Control_c, 0, 64, 22
1, 24257, Note_on_c, 0, 59, 43
1, 24257, Note_on_c, 0, 66, 39
1, 24257, Control_c, 0, 64, 29
1, 24272, Control_c, 0, 64, 34
1, 24287, Control_c, 0, 64, 39
1, 24296, Note_off_c, 0, 66, 51
1, 24302, Control_c, 0, 64, 44
1, 24310, Note_off_c, 0, 59, 54
1, 24317, Control_c, 0, 64, 48
1, 24332, Control_c, 0, 64, 50
1, 24347, Control_c, 0, 64, 50
1, 24362, Control_c, 0, 64, 51
1, 24391, Control_c, 0, 64, 52
1, 24465, Control_c, 0, 64, 51
1, 24494, Note_off_c, 0, 76, 58
1, 24495, Control_c, 0, 64, 50
1, 24509, Control_c, 0, 64, 50
1, 24520, Note_on_c, 0, 66, 36
1, 24521, Note_on_c, 0, 59, 27
1, 24523, Note_on_c, 0, 75, 60
1, 24526, Control_c, 0, 64, 48
1, 24541, Control_c, 0, 64, 48
1, 24555, Control_c, 0, 64, 47
1, 24570, Control_c, 0, 64, 46
1, 24571, Note_off_c, 0, 75, 61
1, 24585, Control_c, 0, 64, 44
1, 24596, Note_on_c, 0, 76, 57
1, 24597, Control_c, 0, 64, 42
1, 24612, Control_c, 0, 64, 40
1, 24627, Control_c, 0, 64, 38
1, 24633, Note_off_c, 0, 66, 32
1, 24635, Note_off_c, 0, 59, 28
1, 24639, Note_on_c, 0, 75, 51
1, 24642, Control_c, 0, 64, 36
1, 24657, Control_c, 0, 64, 34
1, 24658, Note_off_c, 0, 76, 53
1, 24672, Control_c, 0, 64, 31
1, 24683, Note_on_c, 0, 73, 51
1, 24687, Control_c, 0, 64, 25
1, 24702, Control_c, 0, 64, 0
1, 24741, Note_off_c, 0, 75, 59
1, 24764, Note_on_c, 0, 61, 40
1, 24776, Note_on_c, 0, 64, 41
1, 24779, Note_off_c, 0, 73, 53
1, 24788, Note_on_c, 0, 76, 59
1, 24992, Note_off_c, 0, 76, 58
1, 24994, Note_on_c, 0, 73, 52
1, 25029, Note_off_c, 0, 61, 29
1, 25033, Note_off_c, 0, 64, 30
1, 25075, Note_off_c, 0, 73, 57
1, 25080, Note_on_c, 0, 63, 41
1, 25087, Note_on_c, 0, 66, 35
1, 25096, Note_on_c, 0, 71, 54
1, 25183, Note_on_c, 0, 75, 50
1, 25191, Note_off_c, 0, 71, 50
1, 25246, Note_off_c, 0, 66, 54
1, 25248, Note_off_c, 0, 63, 47
1, 25259, Note_off_c, 0, 75, 64
1, 25265, Note_on_c, 0, 73, 59
1, 25310, Note_off_c, 0, 73, 63
1, 25346, Note_on_c, 0, 71, 58
1, 25423, Note_on_c, 0, 75, 65
1, 25428, Note_off_c, 0, 71, 46
1, 25509, Note_on_c, 0, 78, 68
1, 25514, Note_off_c, 0, 75, 63
1, 25575, Note_off_c, 0, 78, 63
1, 25587, Note_on_c, 0, 83, 71
1, 25671, Note_on_c, 0, 82, 72
1, 25713, Note_off_c, 0, 83, 53
1, 25748, Note_on_c, 0, 80, 74
1, 25800, Note_on_c, 0, 71, 52
1, 25803, Note_on_c, 0, 64, 51
1, 25811, Note_off_c, 0, 82, 56
1, 25817, Note_on_c, 0, 78, 82
1, 25826, Note_off_c, 0, 71, 57
1, 25849, Note_off_c, 0, 64, 59
1, 25852, Note_off_c, 0, 80, 63
1, 25877, Note_off_c, 0, 78, 65
1, 25894, Note_on_c, 0, 76, 76
1, 25972, Note_off_c, 0, 76, 57
1, 25974, Note_on_c, 0, 75, 67
1, 26002, Note_off_c, 0, 75, 67
1, 26064, Note_on_c, 0, 66, 46
1, 26090, Note_on_c, 0, 71, 28
1, 26090, Note_on_c, 0, 75, 62
1, 26112, Note_off_c, 0, 75, 66
1, 26147, Note_on_c, 0, 76, 66
1, 26192, Note_off_c, 0, 76, 66
1, 26195, Note_on_c, 0, 75, 69
1, 26226, Note_off_c, 0, 75, 64
1, 26258, Note_on_c, 0, 76, 51
1, 26290, Note_on_c, 0, 75, 68
1, 26302, Note_off_c, 0, 71, 39
1, 26308, Note_off_c, 0, 66, 58
1, 26318, Note_off_c, 0, 76, 64
1, 26323, Note_on_c, 0, 70, 56
1, 26334, Note_on_c, 0, 73, 71
1, 26353, Note_off_c, 0, 70, 66
1, 26368, Note_off_c, 0, 75, 62
1, 26653, Note_on_c, 0, 54, 62
1, 26737, Note_on_c, 0, 56, 78
1, 26738, Note_off_c, 0, 54, 62
1, 26783, Note_off_c, 0, 73, 62
1, 26824, Note_on_c, 0, 54, 77
1, 26827, Note_off_c, 0, 56, 66
1, 26884, Note_off_c, 0, 54, 62
1, 26905, Note_on_c, 0, 52, 76
1, 26999, Note_off_c, 0, 52, 61
1, 27003, Note_on_c, 0, 51, 64
1, 27075, Note_on_c, 0, 49, 57
1, 27079, Note_off_c, 0, 51, 58
1, 27167, Note_off_c, 0, 49, 61
1, 27188, Note_on_c, 0, 47, 57
1, 27297, Note_on_c, 0, 71, 57
1, 27327, Control_c, 0, 64, 16
1, 27342, Control_c, 0, 64, 19
1, 27370, Note_on_c, 0, 70, 74
1, 27400, Control_c, 0, 64, 18
1, 27415, Control_c, 0, 64, 16
1, 27430, Control_c, 0, 64, 10
1, 27445, Control_c, 0, 64, 0
1, 27451, Note_on_c, 0, 68, 81
1, 27495, Note_off_c, 0, 71, 53
1, 27524, Note_on_c, 0, 66, 83
1, 27552, Note_off_c, 0, 70, 61
1, 27574, Note_off_c, 0, 68, 65
1, 27596, Note_on_c, 0, 64, 84
1, 27598, Note_off_c, 0, 66, 67
1, 27680, Note_on_c, 0, 63, 81
1, 27686, Note_off_c, 0, 64, 61
1, 27737, Note_off_c, 0, 47, 36
1, 27769, Note_on_c, 0, 61, 76
1, 27790, Note_off_c, 0, 63, 62
1, 27823, Note_off_c, 0, 61, 64
1, 27846, Note_on_c, 0, 59, 63
1, 27906, Poly_aftertouch_c, 0, 66, 127
1, 27914, Note_off_c, 0, 59, 48
1, 27936, Note_on_c, 0, 52, 51
1, 27945, Note_on_c, 0, 58, 57
1, 27961, Note_off_c, 0, 52, 65
1, 27978, Poly_aftertouch_c, 0, 66, 0
1, 28002, Note_off_c, 0, 58, 62
1, 28014, Note_on_c, 0, 61, 61
1, 28097, Note_off_c, 0, 61, 57
1, 28101, Note_on_c, 0, 66, 61
1, 28174, Note_on_c, 0, 51, 49
1, 28178, Note_on_c, 0, 59, 61
1, 28192, Note_off_c, 0, 66, 56
1, 28213, Note_off_c, 0, 51, 61
1, 28248, Note_off_c, 0, 59, 50
1, 28261, Note_on_c, 0, 63, 57
1, 28321, Note_off_c, 0, 63, 59
1, 28341, Note_on_c, 0, 66, 63
1, 28402, Note_on_c, 0, 46, 51
1, 28404, Note_off_c, 0, 66, 48
1, 28419, Note_on_c, 0, 61, 65
1, 28446, Note_off_c, 0, 46, 58
1, 28468, Note_off_c, 0, 61, 59
1, 28503, Note_on_c, 0, 64, 61
1, 28583, Note_off_c, 0, 64, 61
1, 28592, Note_on_c, 0, 66, 66
1, 28651, Note_on_c, 0, 47, 49
1, 28665, Note_on_c, 0, 63, 62
1, 28681, Note_off_c, 0, 66, 57
1, 28686, Note_off_c, 0, 47, 62
1, 28741, Note_on_c, 0, 64, 59
1, 28742, Note_off_c, 0, 63, 58
1, 28814, Note_off_c, 0, 64, 63
1, 28821, Note_on_c, 0, 66, 64
1, 28884, Note_off_c, 0, 66, 65
1, 28908, Note_on_c, 0, 49, 54
1, 28915, Note_on_c, 0, 64, 63
1, 28944, Note_off_c, 0, 49, 61
1, 29002, Note_on_c, 0, 66, 65
1, 29012, Note_off_c, 0, 64, 54
1, 29059, Note_off_c, 0, 66, 60
1, 29078, Note_on_c, 0, 68, 61
1, 29158, Note_on_c, 0, 51, 42
1, 29171, Note_on_c, 0, 66, 66
1, 29176, Note_off_c, 0, 68, 59
1, 29252, Note_off_c, 0, 66, 62
1, 29267, Note_on_c, 0, 71, 59
1, 29351, Note_on_c, 0, 70, 64
1, 29417, Note_off_c, 0, 71, 44
1, 29438, Note_on_c, 0, 68, 69
1, 29508, Note_off_c, 0, 70, 62
1, 29510, Note_on_c, 0, 66, 76
1, 29541, Note_off_c, 0, 68, 64
1, 29567, Note_off_c, 0, 66, 66
1, 29586, Note_on_c, 0, 64, 67
1, 29638, Note_off_c, 0, 51, 51
1, 29665, Note_on_c, 0, 63, 72
1, 29669, Note_off_c, 0, 64, 64
1, 29746, Note_on_c, 0, 61, 72
1, 29762, Note_off_c, 0, 63, 60
1, 29805, Note_off_c, 0, 61, 62
1, 29831, Note_on_c, 0, 59, 62
1, 29913, Note_on_c, 0, 52, 66
1, 29918, Note_off_c, 0, 59, 54
1, 29920, Note_on_c, 0, 58, 64
1, 29941, Note_off_c, 0, 52, 68
1, 29993, Note_off_c, 0, 58, 62
1, 30005, Note_on_c, 0, 61, 58
1, 30084, Note_off_c, 0, 61, 59
1, 30100, Note_on_c, 0, 66, 51
1, 30174, Note_on_c, 0, 51, 74
1, 30191, Note_on_c, 0, 59, 56
1, 30204, Note_off_c, 0, 51, 63
1, 30258, Note_off_c, 0, 66, 37
1, 30271, Note_off_c, 0, 59, 51
1, 30272, Note_on_c, 0, 63, 51
1, 30356, Note_off_c, 0, 63, 60
1, 30368, Note_on_c, 0, 66, 56
1, 30431, Note_on_c, 0, 46, 70
1, 30437, Note_off_c, 0, 66, 53
1, 30454, Note_on_c, 0, 61, 65
1, 30464, Note_off_c, 0, 46, 60
1, 30508, Note_off_c, 0, 61, 60
1, 30544, Note_on_c, 0, 64, 57
1, 30622, Note_off_c, 0, 64, 60
1, 30628, Note_on_c, 0, 66, 63
1, 30701, Note_on_c, 0, 47, 74
1, 30705, Note_on_c, 0, 63, 65
1, 30720, Note_off_c, 0, 66, 56
1, 30732, Note_off_c, 0, 47, 65
1, 30786, Note_off_c, 0, 63, 60
1, 30793, Note_on_c, 0, 64, 58
1, 30867, Note_off_c, 0, 64, 60
1, 30872, Note_on_c, 0, 66, 63
1, 30948, Note_off_c, 0, 66, 64
1, 30967, Note_on_c, 0, 49, 79
1, 30976, Note_on_c, 0, 64, 70
1, 31008, Note_off_c, 0, 49, 63
1, 31064, Note_on_c, 0, 66, 68
1, 31108, Note_off_c, 0, 64, 46
1, 31140, Note_off_c, 0, 66, 63
1, 31149, Note_on_c, 0, 68, 58
1, 31238, Note_on_c, 0, 51, 86
1, 31243, Note_on_c, 0, 66, 71
1, 31268, Note_off_c, 0, 68, 59
1, 31337, Note_off_c, 0, 66, 64
1, 31346, Note_on_c, 0, 71, 57
1, 31433, Note_on_c, 0, 70, 70
1, 31528, Note_on_c, 0, 68, 75
1, 31588, Note_off_c, 0, 71, 34
1, 31605, Note_on_c, 0, 66, 83
1, 31639, Note_off_c, 0, 70, 62
1, 31658, Note_off_c, 0, 68, 64
1, 31687, Note_off_c, 0, 66, 66
1, 31689, Note_on_c, 0, 64, 78
1, 31750, Note_off_c, 0, 51, 53
1, 31767, Note_on_c, 0, 63, 79
1, 31781, Note_off_c, 0, 64, 62
1, 31847, Note_on_c, 0, 61, 79
1, 31879, Note_off_c, 0, 63, 64
1, 31920, Note_on_c, 0, 59, 73
1, 31938, Note_off_c, 0, 61, 61
1, 32011, Note_on_c, 0, 69, 67
1, 32026, Note_off_c, 0, 59, 52
1, 32042, Control_c, 0, 67, 8
1, 32092, Note_on_c, 0, 68, 69
1, 32101, Control_c, 0, 67, 8
1, 32148, Note_off_c, 0, 69, 63
1, 32159, Note_on_c, 0, 66, 73
1, 32175, Control_c, 0, 67, 9
1, 32191, Note_off_c, 0, 68, 63
1, 32205, Control_c, 0, 67, 9
1, 32219, Control_c, 0, 67, 10
1, 32234, Control_c, 0, 67, 10
1, 32255, Note_on_c, 0, 67, 77
1, 32257, Control_c, 0, 67, 11
1, 32271, Control_c, 0, 67, 12
1, 32286, Control_c, 0, 67, 14
1, 32300, Note_off_c, 0, 66, 66
1, 32301, Control_c, 0, 67, 14
1, 32315, Control_c, 0, 67, 15
1, 32345, Control_c, 0, 67, 15
1, 32404, Control_c, 0, 67, 16
1, 32419, Control_c, 0, 67, 16
1, 32449, Control_c, 0, 67, 18
1, 32464, Control_c, 0, 67, 21
1, 32479, Control_c, 0, 67, 22
1, 32494, Control_c, 0, 67, 24
1, 32509, Control_c, 0, 67, 25
1, 32524, Control_c, 0, 67, 25
1, 32538, Control_c, 0, 67, 26
1, 32553, Control_c, 0, 67, 27
1, 32555, Note_on_c, 0, 59, 44
1, 32556, Note_on_c, 0, 52, 47
1, 32568, Control_c, 0, 67, 28
1, 32583, Control_c, 0, 67, 29
1, 32598, Note_off_c, 0, 59, 57
1, 32598, Control_c, 0, 67, 30
1, 32601, Note_off_c, 0, 52, 61
1, 32613, Control_c, 0, 67, 32
1, 32628, Control_c, 0, 67, 34
1, 32643, Control_c, 0, 67, 35
1, 32658, Control_c, 0, 67, 37
1, 32673, Control_c, 0, 67, 37
1, 32687, Control_c, 0, 67, 38
1, 32717, Control_c, 0, 67, 38
1, 32820, Control_c, 0, 67, 38
1, 32838, Note_on_c, 0, 59, 39
1, 32839, Note_on_c, 0, 68, 55
1, 32839, Note_off_c, 0, 67, 58
1, 32841, Note_on_c, 0, 52, 39
1, 32893, Note_off_c, 0, 68, 62
1, 32894, Control_c, 0, 67, 37
1, 32924, Control_c, 0, 67, 37
1, 33065, Control_c, 0, 67, 36
1, 33108, Note_off_c, 0, 52, 54
1, 33138, Note_off_c, 0, 59, 46
1, 33153, Note_on_c, 0, 76, 52
1, 33183, Control_c, 0, 67, 36
1, 33224, Note_on_c, 0, 75, 55
1, 33260, Note_off_c, 0, 76, 55
1, 33272, Control_c, 0, 67, 35
1, 33316, Note_off_c, 0, 75, 62
1, 33317, Control_c, 0, 67, 35
1, 33318, Note_on_c, 0, 73, 59
1, 33347, Control_c, 0, 67, 34
1, 33361, Control_c, 0, 67, 34
1, 33406, Note_off_c, 0, 73, 59
1, 33419, Note_on_c, 0, 72, 51
1, 33436, Control_c, 0, 67, 33
1, 33510, Control_c, 0, 67, 33
1, 33540, Control_c, 0, 67, 32
1, 33614, Control_c, 0, 67, 32
1, 33643, Control_c, 0, 67, 31
1, 33688, Control_c, 0, 67, 31
1, 33701, Note_on_c, 0, 66, 42
1, 33707, Note_on_c, 0, 63, 40
1, 33717, Control_c, 0, 67, 30
1, 33755, Control_c, 0, 67, 30
1, 33784, Control_c, 0, 67, 29
1, 33814, Control_c, 0, 67, 29
1, 33843, Control_c, 0, 67, 28
1, 33858, Control_c, 0, 67, 28
1, 33887, Control_c, 0, 67, 27
1, 33917, Control_c, 0, 67, 27
1, 34005, Note_off_c, 0, 66, 42
1, 34011, Note_on_c, 0, 68, 43
1, 34016, Note_off_c, 0, 63, 38
1, 34018, Note_on_c, 0, 64, 42
1, 34021, Note_on_c, 0, 73, 43
1, 34021, Control_c, 0, 67, 26
1, 34032, Note_off_c, 0, 72, 36
1, 34050, Control_c, 0, 67, 26
1, 34065, Control_c, 0, 67, 25
1, 34080, Control_c, 0, 67, 24
1, 34094, Control_c, 0, 67, 22
1, 34111, Control_c, 0, 67, 15
1, 34115, Note_off_c, 0, 73, 58
1, 34126, Control_c, 0, 67, 9
1, 34140, Control_c, 0, 67, 0
1, 34334, Note_on_c, 0, 80, 70
1, 34414, Note_off_c, 0, 64, 34
1, 34425, Note_on_c, 0, 78, 74
1, 34526, Note_off_c, 0, 68, 35
1, 34534, Note_on_c, 0, 76, 77
1, 34579, Note_off_c, 0, 80, 58
1, 34643, Note_off_c, 0, 78, 54
1, 34660, Note_on_c, 0, 75, 73
1, 34686, Note_on_c, 0, 71, 40
1, 34698, Note_off_c, 0, 76, 62
1, 35016, Note_on_c, 0, 65, 44
1, 35406, Note_off_c, 0, 75, 51
1, 35427, Note_on_c, 0, 73, 39
1, 35448, Note_on_c, 0, 70, 36
1, 35456, Note_off_c, 0, 65, 35
1, 35462, Note_off_c, 0, 71, 30
1, 35466, Note_on_c, 0, 66, 32
1, 35666, Note_off_c, 0, 70, 37
1, 35711, Note_off_c, 0, 73, 41
1, 35743, Note_off_c, 0, 66, 46
1, 35757, Control_c, 0, 64, 13
1, 35772, Control_c, 0, 64, 19
1, 35787, Control_c, 0, 64, 22
1, 35832, Control_c, 0, 64, 18
1, 35846, Control_c, 0, 64, 0
1, 36135, Control_c, 0, 64, 16
1, 36150, Control_c, 0, 64, 33
1, 36164, Control_c, 0, 64, 42
1, 36179, Control_c, 0, 64, 47
1, 36194, Control_c, 0, 64, 52
1, 36209, Control_c, 0, 64, 57
1, 36224, Control_c, 0, 64, 60
1, 36226, Note_on_c, 0, 47, 54
1, 36238, Control_c, 0, 64, 62
1, 36252, Note_on_c, 0, 83, 93
1, 36253, Control_c, 0, 64, 64
1, 36265, Note_on_c, 0, 71, 75
1, 36265, Note_on_c, 0, 75, 71
1, 36268, Control_c, 0, 64, 66
1, 36271, Note_on_c, 0, 78, 62
1, 36282, Control_c, 0, 64, 67
1, 36297, Control_c, 0, 64, 70
1, 36300, Note_off_c, 0, 78, 66
1, 36312, Control_c, 0, 64, 71
1, 36327, Control_c, 0, 64, 72
1, 36342, Control_c, 0, 64, 72
1, 36351, Note_off_c, 0, 47, 63
1, 36357, Control_c, 0, 64, 73
1, 36372, Control_c, 0, 64, 74
1, 36373, Note_on_c, 0, 51, 61
1, 36387, Control_c, 0, 64, 76
1, 36402, Control_c, 0, 64, 77
1, 36403, Note_off_c, 0, 71, 59
1, 36414, Note_off_c, 0, 75, 41
1, 36414, Note_off_c, 0, 83, 60
1, 36415, Note_off_c, 0, 51, 65
1, 36417, Control_c, 0, 64, 78
1, 36431, Control_c, 0, 64, 79
1, 36446, Control_c, 0, 64, 80
1, 36454, Note_on_c, 0, 52, 61
1, 36461, Control_c, 0, 64, 80
1, 36476, Control_c, 0, 64, 81
1, 36521, Note_off_c, 0, 52, 41
1, 36522, Note_on_c, 0, 54, 70
1, 36551, Control_c, 0, 64, 80
1, 36593, Control_c, 0, 64, 80
1, 36610, Note_on_c, 0, 56, 77
1, 36623, Control_c, 0, 64, 79
1, 36626, Note_off_c, 0, 54, 60
1, 36652, Control_c, 0, 64, 79
1, 36667, Control_c, 0, 64, 78
1, 36682, Control_c, 0, 64, 78
1, 36686, Note_on_c, 0, 58, 82
1, 36697, Control_c, 0, 64, 77
1, 36701, Note_off_c, 0, 56, 61
1, 36712, Control_c, 0, 64, 75
1, 36734, Control_c, 0, 64, 73
1, 36749, Control_c, 0, 64, 69
1, 36762, Note_off_c, 0, 58, 66
1, 36764, Control_c, 0, 64, 64
1, 36769, Note_on_c, 0, 59, 82
1, 36779, Control_c, 0, 64, 58
1, 36793, Control_c, 0, 64, 54
1, 36808, Control_c, 0, 64, 53
1, 36823, Control_c, 0, 64, 50
1, 36838, Control_c, 0, 64, 46
1, 36846, Note_on_c, 0, 61, 82
1, 36853, Control_c, 0, 64, 39
1, 36858, Note_off_c, 0, 59, 61
1, 36867, Control_c, 0, 64, 30
1, 36882, Control_c, 0, 64, 24
1, 36897, Control_c, 0, 64, 19
1, 36911, Control_c, 0, 64, 16
1, 36920, Note_on_c, 0, 63, 82
1, 36926, Control_c, 0, 64, 0
1, 36969, Note_off_c, 0, 61, 61
1, 37013, Note_on_c, 0, 64, 87
1, 37019, Note_on_c, 0, 66, 61
1, 37034, Note_off_c, 0, 63, 58
1, 37099, Note_off_c, 0, 66, 57
1, 37118, Note_on_c, 0, 68, 59
1, 37199, Note_off_c, 0, 68, 61
1, 37204, Note_on_c, 0, 70, 57
1, 37258, Note_off_c, 0, 70, 61
1, 37273, Note_off_c, 0, 64, 53
1, 37296, Note_on_c, 0, 63, 42
1, 37314, Note_on_c, 0, 71, 65
1, 37394, Note_on_c, 0, 75, 65
1, 37398, Note_off_c, 0, 71, 49
1, 37433, Note_off_c, 0, 63, 50
1, 37471, Note_off_c, 0, 75, 64
1, 37475, Note_on_c, 0, 78, 74
1, 37555, Note_off_c, 0, 78, 64
1, 37561, Note_on_c, 0, 83, 73
1, 37647, Note_on_c, 0, 82, 73
1, 37712, Note_off_c, 0, 83, 49
1, 37721, Note_on_c, 0, 80, 78
1, 37799, Note_on_c, 0, 78, 82
1, 37802, Note_off_c, 0, 82, 62
1, 37839, Note_off_c, 0, 80, 64
1, 37870, Note_off_c, 0, 78, 64
1, 37874, Note_on_c, 0, 76, 79
1, 37955, Note_on_c, 0, 75, 76
1, 37962, Note_off_c, 0, 76, 59
1, 38011, Note_on_c, 0, 54, 44
1, 38012, Note_on_c, 0, 58, 52
1, 38024, Note_off_c, 0, 75, 63
1, 38026, Note_on_c, 0, 73, 78
1, 38034, Note_off_c, 0, 58, 63
1, 38039, Note_off_c, 0, 54, 61
1, 38105, Note_on_c, 0, 75, 68
1, 38105, Note_off_c, 0, 73, 61
1, 38173, Note_off_c, 0, 75, 62
1, 38193, Note_on_c, 0, 76, 67
1, 38293, Note_on_c, 0, 47, 50
1, 38304, Note_on_c, 0, 75, 64
1, 38306, Control_c, 0, 64, 19
1, 38321, Note_off_c, 0, 76, 48
1, 38321, Control_c, 0, 64, 39
1, 38336, Control_c, 0, 64, 44
1, 38351, Control_c, 0, 64, 46
1, 38366, Control_c, 0, 64, 49
1, 38378, Note_off_c, 0, 47, 62
1, 38381, Control_c, 0, 64, 52
1, 38391, Note_on_c, 0, 51, 55
1, 38396, Control_c, 0, 64, 55
1, 38411, Control_c, 0, 64, 57
1, 38426, Control_c, 0, 64, 58
1, 38442, Note_off_c, 0, 51, 60
1, 38485, Control_c, 0, 64, 57
1, 38488, Note_on_c, 0, 52, 61
1, 38500, Control_c, 0, 64, 57
1, 38514, Control_c, 0, 64, 56
1, 38529, Control_c, 0, 64, 54
1, 38535, Note_off_c, 0, 52, 60
1, 38544, Control_c, 0, 64, 53
1, 38558, Control_c, 0, 64, 51
1, 38569, Note_on_c, 0, 54, 69
1, 38573, Control_c, 0, 64, 48
1, 38588, Control_c, 0, 64, 45
1, 38603, Control_c, 0, 64, 41
1, 38618, Control_c, 0, 64, 36
1, 38625, Note_off_c, 0, 75, 64
1, 38632, Control_c, 0, 64, 31
1, 38647, Control_c, 0, 64, 22
1, 38648, Note_on_c, 0, 56, 76
1, 38662, Control_c, 0, 64, 10
1, 38676, Control_c, 0, 64, 0
1, 38682, Note_off_c, 0, 54, 62
1, 38735, Note_on_c, 0, 58, 84
1, 38768, Note_off_c, 0, 56, 63
1, 38780, Control_c, 0, 67, 8
1, 38795, Control_c, 0, 67, 9
1, 38810, Control_c, 0, 67, 11
1, 38822, Note_on_c, 0, 59, 83
1, 38822, Note_off_c, 0, 58, 62
1, 38825, Control_c, 0, 67, 14
1, 38839, Control_c, 0, 67, 17
1, 38854, Control_c, 0, 67, 21
1, 38869, Control_c, 0, 67, 25
1, 38883, Control_c, 0, 67, 29
1, 38898, Note_on_c, 0, 61, 84
1, 38900, Control_c, 0, 67, 32
1, 38910, Note_off_c, 0, 59, 61
1, 38915, Control_c, 0, 67, 34
1, 38929, Control_c, 0, 67, 35
1, 38992, Note_on_c, 0, 63, 86
1, 39032, Note_off_c, 0, 61, 62
1, 39040, Control_c, 0, 67, 36
1, 39080, Note_on_c, 0, 64, 87
1, 39094, Note_on_c, 0, 66, 60
1, 39103, Note_off_c, 0, 63, 46
1, 39114, Control_c, 0, 67, 36
1, 39144, Control_c, 0, 67, 36
1, 39174, Control_c, 0, 67, 36
1, 39187, Note_on_c, 0, 68, 60
1, 39193, Note_off_c, 0, 66, 63
1, 39203, Control_c, 0, 67, 37
1, 39248, Control_c, 0, 67, 37
1, 39270, Note_off_c, 0, 68, 62
1, 39274, Note_on_c, 0, 70, 58
1, 39333, Note_off_c, 0, 70, 61
1, 39336, Control_c, 0, 67, 38
1, 39347, Note_off_c, 0, 64, 60
1, 39361, Note_on_c, 0, 63, 56
1, 39366, Control_c, 0, 67, 38
1, 39385, Note_on_c, 0, 71, 62
1, 39395, Control_c, 0, 67, 40
1, 39410, Control_c, 0, 67, 42
1, 39425, Control_c, 0, 67, 43
1, 39456, Note_off_c, 0, 71, 42
1, 39469, Note_on_c, 0, 75, 60
1, 39542, Note_off_c, 0, 75, 63
1, 39547, Note_on_c, 0, 78, 67
1, 39547, Note_off_c, 0, 63, 50
1, 39588, Control_c, 0, 67, 43
1, 39615, Note_off_c, 0, 78, 63
1, 39628, Note_on_c, 0, 83, 61
1, 39633, Control_c, 0, 67, 44
1, 39677, Control_c, 0, 67, 44
1, 39708, Control_c, 0, 67, 45
1, 39713, Note_on_c, 0, 82, 61
1, 39729, Control_c, 0, 67, 47
1, 39744, Control_c, 0, 67, 50
1, 39749, Note_off_c, 0, 83, 52
1, 39759, Control_c, 0, 67, 53
1, 39774, Control_c, 0, 67, 54
1, 39788, Note_on_c, 0, 80, 57
1, 39789, Control_c, 0, 67, 56
1, 39803, Control_c, 0, 67, 58
1, 39818, Control_c, 0, 67, 59
1, 39825, Note_off_c, 0, 82, 58
1, 39833, Control_c, 0, 67, 61
1, 39848, Control_c, 0, 67, 62
1, 39877, Control_c, 0, 67, 63
1, 39884, Note_on_c, 0, 78, 57
1, 39903, Note_off_c, 0, 80, 47
1, 39907, Control_c, 0, 67, 65
1, 39922, Control_c, 0, 67, 67
1, 39937, Control_c, 0, 67, 69
1, 39940, Note_off_c, 0, 78, 62
1, 39952, Control_c, 0, 67, 70
1, 39982, Control_c, 0, 67, 70
1, 40026, Control_c, 0, 67, 71
1, 40144, Control_c, 0, 67, 70
1, 40174, Control_c, 0, 67, 70
1, 40204, Note_on_c, 0, 68, 38
1, 40204, Note_on_c, 0, 83, 51
1, 40218, Control_c, 0, 67, 69
1, 40248, Control_c, 0, 67, 69
1, 40253, Note_off_c, 0, 68, 47
1, 40281, Note_off_c, 0, 83, 53
1, 40294, Note_on_c, 0, 82, 45
1, 40301, Note_on_c, 0, 66, 37
1, 40307, Control_c, 0, 67, 68
1, 40331, Note_off_c, 0, 66, 58
1, 40336, Control_c, 0, 67, 68
1, 40349, Note_off_c, 0, 82, 60
1, 40351, Control_c, 0, 67, 64
1, 40355, Note_on_c, 0, 80, 60
1, 40357, Note_on_c, 0, 64, 45
1, 40366, Control_c, 0, 67, 52
1, 40381, Control_c, 0, 67, 19
1, 40396, Control_c, 0, 67, 0
1, 40399, Note_off_c, 0, 64, 57
1, 40407, Note_off_c, 0, 80, 63
1, 40446, Note_on_c, 0, 78, 58
1, 40447, Note_on_c, 0, 63, 47
1, 40483, Note_off_c, 0, 78, 51
1, 40491, Note_off_c, 0, 63, 57
1, 40523, Note_on_c, 0, 64, 44
1, 40542, Note_on_c, 0, 80, 53
1, 40572, Note_off_c, 0, 80, 53
1, 40584, Note_off_c, 0, 64, 54
1, 40597, Note_on_c, 0, 82, 62
1, 40616, Note_on_c, 0, 66, 52
1, 40655, Note_off_c, 0, 82, 56
1, 40661, Note_off_c, 0, 66, 64
1, 40677, Note_on_c, 0, 83, 68
1, 40688, Note_on_c, 0, 68, 55
1, 40734, Note_off_c, 0, 68, 60
1, 40763, Note_on_c, 0, 82, 71
1, 40764, Note_on_c, 0, 66, 55
1, 40774, Note_off_c, 0, 83, 55
1, 40814, Note_off_c, 0, 66, 62
1, 40836, Note_on_c, 0, 64, 56
1, 40837, Note_on_c, 0, 80, 73
1, 40846, Note_off_c, 0, 82, 60
1, 40893, Note_off_c, 0, 64, 57
1, 40894, Note_off_c, 0, 80, 64
1, 40912, Note_on_c, 0, 78, 78
1, 40915, Note_on_c, 0, 63, 66
1, 40982, Note_off_c, 0, 78, 56
1, 40990, Note_off_c, 0, 63, 55
1, 40997, Note_on_c, 0, 80, 71
1, 40999, Note_on_c, 0, 64, 58
1, 41058, Note_off_c, 0, 80, 58
1, 41064, Note_on_c, 0, 82, 69
1, 41068, Note_off_c, 0, 64, 62
1, 41072, Note_on_c, 0, 66, 66
1, 41115, Note_off_c, 0, 82, 56
1, 41123, Note_off_c, 0, 66, 64
1, 41137, Note_on_c, 0, 83, 79
1, 41146, Note_on_c, 0, 68, 69
1, 41197, Note_off_c, 0, 68, 60
1, 41214, Note_on_c, 0, 82, 86
1, 41218, Note_on_c, 0, 66, 62
1, 41251, Note_off_c, 0, 83, 57
1, 41288, Note_off_c, 0, 66, 63
1, 41295, Note_on_c, 0, 80, 88
1, 41299, Note_on_c, 0, 64, 55
1, 41319, Note_off_c, 0, 82, 63
1, 41357, Note_off_c, 0, 64, 56
1, 41377, Note_on_c, 0, 78, 90
1, 41384, Note_off_c, 0, 80, 63
1, 41389, Note_on_c, 0, 63, 56
1, 41422, Note_off_c, 0, 63, 65
1, 41453, Note_off_c, 0, 78, 56
1, 41460, Note_on_c, 0, 80, 78
1, 41528, Note_off_c, 0, 80, 63
1, 41532, Note_on_c, 0, 81, 75
1, 41600, Note_off_c, 0, 81, 55
1, 41612, Note_on_c, 0, 80, 87
1, 41626, Note_on_c, 0, 64, 50
1, 41666, Note_off_c, 0, 80, 66
1, 41666, Note_off_c, 0, 64, 61
1, 41690, Note_on_c, 0, 81, 78
1, 41763, Note_off_c, 0, 81, 50
1, 41776, Note_on_c, 0, 83, 70
1, 41878, Note_on_c, 0, 81, 76
1, 41886, Note_on_c, 0, 66, 46
1, 41898, Note_off_c, 0, 83, 53
1, 41939, Control_c, 0, 64, 54
1, 41954, Control_c, 0, 64, 61
1, 41976, Control_c, 0, 64, 64
1, 41991, Control_c, 0, 64, 66
1, 42006, Control_c, 0, 64, 68
1, 42021, Control_c, 0, 64, 72
1, 42036, Control_c, 0, 64, 75
1, 42050, Control_c, 0, 64, 77
1, 42065, Control_c, 0, 64, 78
1, 42080, Control_c, 0, 64, 78
1, 42095, Control_c, 0, 64, 79
1, 42110, Control_c, 0, 64, 80
1, 42116, Note_off_c, 0, 81, 59
1, 42140, Control_c, 0, 64, 81
1, 42173, Note_on_c, 0, 59, 43
1, 42229, Control_c, 0, 67, 8
1, 42233, Note_off_c, 0, 66, 39
1, 42259, Control_c, 0, 64, 80
1, 42332, Control_c, 0, 64, 80
1, 42332, Control_c, 0, 67, 8
1, 42347, Control_c, 0, 64, 79
1, 42362, Control_c, 0, 64, 79
1, 42377, Control_c, 0, 64, 78
1, 42392, Control_c, 0, 64, 77
1, 42406, Control_c, 0, 64, 76
1, 42421, Control_c, 0, 64, 74
1, 42436, Control_c, 0, 64, 70
1, 42451, Control_c, 0, 64, 65
1, 42451, Control_c, 0, 67, 9
1, 42454, Note_off_c, 0, 59, 32
1, 42466, Control_c, 0, 64, 56
1, 42466, Control_c, 0, 67, 9
1, 42471, Note_on_c, 0, 64, 42
1, 42480, Control_c, 0, 64, 31
1, 42489, Note_on_c, 0, 80, 55
1, 42495, Control_c, 0, 64, 0
1, 42524, Control_c, 0, 67, 11
1, 42539, Control_c, 0, 67, 14
1, 42545, Note_off_c, 0, 80, 61
1, 42554, Control_c, 0, 67, 16
1, 42563, Note_on_c, 0, 82, 63
1, 42569, Control_c, 0, 67, 19
1, 42584, Control_c, 0, 67, 20
1, 42598, Control_c, 0, 67, 22
1, 42613, Control_c, 0, 67, 22
1, 42628, Control_c, 0, 67, 24
1, 42634, Note_off_c, 0, 82, 63
1, 42642, Control_c, 0, 67, 26
1, 42649, Note_on_c, 0, 83, 66
1, 42657, Control_c, 0, 64, 13
1, 42657, Control_c, 0, 67, 28
1, 42672, Control_c, 0, 64, 19
1, 42672, Control_c, 0, 67, 29
1, 42687, Control_c, 0, 64, 21
1, 42687, Control_c, 0, 67, 30
1, 42739, Note_on_c, 0, 82, 73
1, 42754, Control_c, 0, 67, 31
1, 42769, Control_c, 0, 64, 19
1, 42769, Control_c, 0, 67, 31
1, 42778, Note_off_c, 0, 83, 56
1, 42798, Control_c, 0, 64, 18
1, 42813, Note_on_c, 0, 80, 74
1, 42813, Note_off_c, 0, 64, 38
1, 42813, Control_c, 0, 64, 16
1, 42813, Control_c, 0, 67, 32
1, 42828, Control_c, 0, 64, 13
1, 42828, Control_c, 0, 67, 31
1, 42843, Control_c, 0, 64, 10
1, 42855, Note_off_c, 0, 82, 58
1, 42857, Control_c, 0, 64, 0
1, 42888, Note_on_c, 0, 78, 76
1, 42918, Note_off_c, 0, 80, 64
1, 42947, Note_off_c, 0, 78, 64
1, 42968, Note_on_c, 0, 76, 75
1, 43040, Note_on_c, 0, 75, 74
1, 43046, Note_off_c, 0, 76, 60
1, 43112, Note_on_c, 0, 73, 74
1, 43130, Note_off_c, 0, 75, 64
1, 43171, Note_off_c, 0, 73, 63
1, 43185, Note_on_c, 0, 71, 74
1, 43199, Control_c, 0, 67, 32
1, 43256, Note_on_c, 0, 70, 76
1, 43264, Note_off_c, 0, 71, 58
1, 43288, Control_c, 0, 67, 32
1, 43339, Note_on_c, 0, 68, 67
1, 43340, Note_off_c, 0, 70, 61
1, 43417, Note_off_c, 0, 68, 62
1, 43434, Note_on_c, 0, 66, 66
1, 43451, Control_c, 0, 67, 33
1, 43562, Control_c, 0, 64, 49
1, 43577, Control_c, 0, 64, 60
1, 43592, Control_c, 0, 64, 64
1, 43607, Control_c, 0, 64, 66
1, 43607, Control_c, 0, 67, 32
1, 43612, Note_off_c, 0, 66, 61
1, 43621, Control_c, 0, 64, 69
1, 43636, Control_c, 0, 64, 71
1, 43651, Control_c, 0, 64, 73
1, 43651, Control_c, 0, 67, 32
1, 43666, Control_c, 0, 64, 75
1, 43680, Control_c, 0, 64, 75
1, 43680, Control_c, 0, 67, 31
1, 43696, Control_c, 0, 64, 76
1, 43716, Note_on_c, 0, 51, 56
1, 43768, Note_off_c, 0, 51, 55
1, 43770, Control_c, 0, 67, 31
1, 43785, Control_c, 0, 67, 30
1, 43830, Control_c, 0, 67, 30
1, 43903, Control_c, 0, 67, 29
1, 43918, Control_c, 0, 64, 75
1, 43933, Control_c, 0, 64, 74
1, 43948, Control_c, 0, 64, 72
1, 43963, Control_c, 0, 64, 70
1, 43977, Control_c, 0, 64, 66
1, 43992, Control_c, 0, 64, 64
1, 44007, Control_c, 0, 64, 63
1, 44007, Control_c, 0, 67, 29
1, 44009, Note_on_c, 0, 52, 44
1, 44022, Control_c, 0, 64, 64
1, 44031, Note_on_c, 0, 75, 50
1, 44037, Control_c, 0, 64, 64
1, 44051, Control_c, 0, 64, 65
1, 44066, Control_c, 0, 64, 65
1, 44066, Control_c, 0, 67, 28
1, 44074, Note_off_c, 0, 75, 65
1, 44081, Control_c, 0, 64, 66
1, 44090, Note_on_c, 0, 73, 66
1, 44095, Control_c, 0, 64, 67
1, 44110, Control_c, 0, 64, 67
1, 44119, Note_off_c, 0, 73, 64
1, 44125, Control_c, 0, 64, 68
1, 44140, Control_c, 0, 64, 68
1, 44155, Control_c, 0, 67, 28
1, 44162, Note_on_c, 0, 75, 66
1, 44191, Note_off_c, 0, 52, 58
1, 44191, Note_off_c, 0, 75, 68
1, 44203, Note_on_c, 0, 73, 66
1, 44229, Note_on_c, 0, 54, 49
1, 44241, Note_off_c, 0, 73, 62
1, 44265, Note_on_c, 0, 75, 73
1, 44281, Control_c, 0, 67, 27
1, 44285, Note_off_c, 0, 54, 48
1, 44295, Control_c, 0, 67, 27
1, 44300, Note_off_c, 0, 75, 63
1, 44310, Note_on_c, 0, 73, 69
1, 44340, Note_off_c, 0, 73, 57
1, 44351, Note_on_c, 0, 75, 69
1, 44385, Control_c, 0, 64, 68
1, 44405, Note_off_c, 0, 75, 65
1, 44406, Note_on_c, 0, 73, 80
1, 44414, Control_c, 0, 64, 67
1, 44429, Control_c, 0, 64, 66
1, 44444, Control_c, 0, 64, 64
1, 44444, Control_c, 0, 67, 26
1, 44459, Control_c, 0, 64, 58
1, 44474, Control_c, 0, 64, 27
1, 44489, Control_c, 0, 64, 0
1, 44500, Note_off_c, 0, 73, 62
1, 44521, Note_on_c, 0, 47, 57
1, 44528, Note_on_c, 0, 71, 63
1, 44563, Control_c, 0, 67, 26
1, 44578, Control_c, 0, 64, 42
1, 44593, Control_c, 0, 64, 54
1, 44593, Control_c, 0, 67, 26
1, 44599, Note_off_c, 0, 47, 62
1, 44608, Control_c, 0, 64, 58
1, 44622, Note_on_c, 0, 51, 52
1, 44623, Control_c, 0, 64, 61
1, 44623, Control_c, 0, 67, 27
1, 44638, Control_c, 0, 64, 62
1, 44653, Control_c, 0, 64, 64
1, 44668, Control_c, 0, 64, 65
1, 44668, Control_c, 0, 67, 27
1, 44682, Control_c, 0, 64, 66
1, 44684, Note_off_c, 0, 71, 60
1, 44697, Note_off_c, 0, 51, 56
1, 44697, Control_c, 0, 64, 66
1, 44709, Note_on_c, 0, 54, 58
1, 44712, Control_c, 0, 64, 67
1, 44712, Control_c, 0, 67, 28
1, 44764, Note_off_c, 0, 54, 61
1, 44786, Control_c, 0, 67, 27
1, 44792, Note_on_c, 0, 59, 66
1, 44816, Control_c, 0, 67, 27
1, 44831, Control_c, 0, 64, 66
1, 44846, Control_c, 0, 64, 66
1, 44854, Note_off_c, 0, 59, 55
1, 44861, Control_c, 0, 64, 64
1, 44870, Note_on_c, 0, 54, 70
1, 44875, Control_c, 0, 64, 61
1, 44890, Control_c, 0, 64, 49
1, 44905, Control_c, 0, 64, 0
1, 44907, Note_off_c, 0, 54, 56
1, 44960, Note_on_c, 0, 51, 58
1, 45020, Note_off_c, 0, 51, 56
1, 45031, Control_c, 0, 67, 26
1, 45045, Control_c, 0, 64, 46
1, 45053, Note_on_c, 0, 47, 72
1, 45060, Control_c, 0, 64, 54
1, 45075, Control_c, 0, 64, 58
1, 45078, Note_off_c, 0, 47, 67
1, 45090, Control_c, 0, 64, 60
1, 45105, Control_c, 0, 64, 63
1, 45119, Control_c, 0, 64, 64
1, 45134, Control_c, 0, 64, 64
1, 45134, Control_c, 0, 67, 27
1, 45238, Control_c, 0, 64, 64
1, 45252, Control_c, 0, 64, 63
1, 45267, Control_c, 0, 64, 62
1, 45282, Control_c, 0, 64, 57
1, 45298, Control_c, 0, 64, 47
1, 45313, Control_c, 0, 64, 30
1, 45313, Control_c, 0, 67, 27
1, 45328, Control_c, 0, 64, 0
1, 45354, Note_on_c, 0, 75, 66
1, 45357, Control_c, 0, 67, 28
1, 45358, Note_on_c, 0, 78, 56
1, 45371, Note_off_c, 0, 75, 66
1, 45413, Note_off_c, 0, 78, 55
1, 45440, Note_on_c, 0, 80, 58
1, 45490, Control_c, 0, 67, 28
1, 45507, Note_off_c, 0, 80, 58
1, 45520, Control_c, 0, 67, 29
1, 45528, Note_on_c, 0, 78, 60
1, 45583, Note_off_c, 0, 78, 49
1, 45617, Note_on_c, 0, 72, 84
1, 45622, Note_on_c, 0, 81, 63
1, 45728, Note_on_c, 0, 80, 57
1, 45735, Control_c, 0, 67, 28
1, 45759, Note_off_c, 0, 81, 50
1, 45804, Note_off_c, 0, 80, 59
1, 45809, Note_on_c, 0, 78, 60
1, 45883, Note_off_c, 0, 78, 61
1, 45889, Note_off_c, 0, 72, 62
1, 45893, Note_on_c, 0, 73, 71
1, 45905, Note_on_c, 0, 76, 58
1, 45917, Note_off_c, 0, 73, 67
1, 45970, Note_off_c, 0, 76, 51
1, 46012, Note_on_c, 0, 78, 55
1, 46054, Note_off_c, 0, 78, 53
1, 46061, Control_c, 0, 67, 29
1, 46094, Note_on_c, 0, 76, 55
1, 46106, Control_c, 0, 67, 28
1, 46170, Note_on_c, 0, 70, 84
1, 46182, Note_on_c, 0, 80, 58
1, 46197, Note_off_c, 0, 76, 38
1, 46283, Note_on_c, 0, 78, 61
1, 46285, Note_off_c, 0, 80, 60
1, 46358, Control_c, 0, 67, 28
1, 46361, Note_off_c, 0, 78, 61
1, 46387, Note_on_c, 0, 76, 56
1, 46397, Note_off_c, 0, 70, 59
1, 46430, Note_on_c, 0, 71, 70
1, 46432, Control_c, 0, 67, 27
1, 46456, Note_off_c, 0, 71, 63
1, 46458, Note_off_c, 0, 76, 54
1, 46469, Control_c, 0, 67, 27
1, 46480, Note_on_c, 0, 75, 62
1, 46550, Note_off_c, 0, 75, 63
1, 46558, Note_on_c, 0, 78, 63
1, 46614, Note_off_c, 0, 78, 61
1, 46636, Note_on_c, 0, 83, 59
1, 46677, Control_c, 0, 67, 26
1, 46706, Control_c, 0, 67, 27
1, 46718, Note_on_c, 0, 64, 60
1, 46725, Note_on_c, 0, 80, 65
1, 46772, Note_off_c, 0, 83, 46
1, 46811, Note_on_c, 0, 78, 67
1, 46824, Control_c, 0, 67, 26
1, 46830, Note_off_c, 0, 80, 63
1, 46839, Control_c, 0, 67, 27
1, 46877, Note_off_c, 0, 78, 63
1, 46893, Note_on_c, 0, 76, 71
1, 46929, Control_c, 0, 67, 26
1, 46935, Note_off_c, 0, 64, 58
1, 46966, Note_on_c, 0, 65, 65
1, 46972, Note_off_c, 0, 76, 52
1, 46973, Note_on_c, 0, 75, 74
1, 46988, Control_c, 0, 67, 27
1, 47033, Control_c, 0, 67, 26
1, 47040, Note_off_c, 0, 75, 60
1, 47056, Note_on_c, 0, 76, 72
1, 47061, Note_off_c, 0, 65, 47
1, 47076, Control_c, 0, 67, 26
1, 47091, Control_c, 0, 67, 25
1, 47121, Control_c, 0, 67, 25
1, 47134, Note_off_c, 0, 76, 65
1, 47136, Control_c, 0, 67, 24
1, 47142, Note_on_c, 0, 73, 73
1, 47151, Control_c, 0, 67, 23
1, 47166, Control_c, 0, 67, 22
1, 47181, Control_c, 0, 67, 21
1, 47195, Control_c, 0, 64, 27
1, 47195, Control_c, 0, 67, 20
1, 47217, Control_c, 0, 64, 47
1, 47217, Control_c, 0, 67, 19
1, 47220, Note_on_c, 0, 66, 58
1, 47221, Note_off_c, 0, 73, 59
1, 47232, Control_c, 0, 64, 52
1, 47232, Control_c, 0, 67, 15
1, 47237, Note_on_c, 0, 71, 69
1, 47246, Control_c, 0, 64, 55
1, 47246, Control_c, 0, 67, 9
1, 47261, Control_c, 0, 64, 58
1, 47261, Control_c, 0, 67, 0
1, 47276, Control_c, 0, 64, 61
1, 47291, Control_c, 0, 64, 62
1, 47306, Control_c, 0, 64, 63
1, 47321, Control_c, 0, 64, 64
1, 47336, Control_c, 0, 64, 66
1, 47351, Control_c, 0, 64, 67
1, 47365, Control_c, 0, 64, 67
1, 47380, Control_c, 0, 64, 68
1, 47395, Control_c, 0, 64, 68
1, 47410, Control_c, 0, 64, 69
1, 47419, Note_off_c, 0, 71, 46
1, 47425, Control_c, 0, 64, 69
1, 47454, Control_c, 0, 64, 70
1, 47456, Note_off_c, 0, 66, 42
1, 47514, Note_on_c, 0, 54, 49
1, 47531, Note_on_c, 0, 73, 67
1, 47537, Note_off_c, 0, 54, 60
1, 47560, Note_off_c, 0, 73, 63
1, 47589, Note_on_c, 0, 75, 71
1, 47628, Note_off_c, 0, 75, 63
1, 47629, Note_on_c, 0, 73, 76
1, 47674, Note_off_c, 0, 73, 62
1, 47683, Note_on_c, 0, 75, 64
1, 47692, Control_c, 0, 64, 69
1, 47707, Control_c, 0, 64, 68
1, 47718, Note_on_c, 0, 73, 63
1, 47718, Note_off_c, 0, 75, 66
1, 47722, Control_c, 0, 64, 65
1, 47736, Control_c, 0, 64, 55
1, 47751, Control_c, 0, 64, 0
1, 47789, Note_off_c, 0, 73, 62
1, 47799, Note_on_c, 0, 71, 68
1, 47811, Note_on_c, 0, 59, 58
1, 47872, Note_off_c, 0, 59, 55
1, 47885, Control_c, 0, 64, 34
1, 47895, Note_on_c, 0, 54, 54
1, 47900, Control_c, 0, 64, 47
1, 47915, Control_c, 0, 64, 51
1, 47930, Control_c, 0, 64, 54
1, 47944, Control_c, 0, 64, 58
1, 47947, Note_off_c, 0, 54, 59
1, 47959, Control_c, 0, 64, 60
1, 47970, Note_on_c, 0, 51, 57
1, 47982, Control_c, 0, 64, 62
1, 47997, Control_c, 0, 64, 64
1, 48012, Control_c, 0, 64, 64
1, 48023, Note_off_c, 0, 71, 59
1, 48027, Note_off_c, 0, 51, 58
1, 48041, Control_c, 0, 64, 65
1, 48057, Note_on_c, 0, 47, 68
1, 48070, Control_c, 0, 64, 65
1, 48100, Control_c, 0, 64, 66
1, 48144, Control_c, 0, 64, 65
1, 48146, Note_off_c, 0, 47, 62
1, 48148, Note_on_c, 0, 51, 60
1, 48174, Control_c, 0, 64, 65
1, 48233, Note_on_c, 0, 54, 70
1, 48238, Note_off_c, 0, 51, 63
1, 48248, Control_c, 0, 64, 64
1, 48293, Control_c, 0, 64, 64
1, 48319, Note_off_c, 0, 54, 63
1, 48322, Control_c, 0, 64, 63
1, 48333, Note_on_c, 0, 59, 78
1, 48352, Control_c, 0, 64, 63
1, 48419, Note_off_c, 0, 59, 62
1, 48629, Note_on_c, 0, 69, 85
1, 48635, Note_on_c, 0, 66, 71
1, 48641, Note_on_c, 0, 63, 45
1, 48679, Control_c, 0, 64, 62
1, 48761, Control_c, 0, 64, 62
1, 48790, Control_c, 0, 64, 61
1, 48908, Control_c, 0, 64, 61
1, 48923, Control_c, 0, 64, 59
1, 48934, Note_on_c, 0, 68, 86
1, 48934, Note_off_c, 0, 63, 58
1, 48938, Control_c, 0, 64, 53
1, 48945, Note_on_c, 0, 60, 51
1, 48953, Control_c, 0, 64, 16
1, 48962, Note_off_c, 0, 66, 65
1, 48967, Control_c, 0, 64, 0
1, 49001, Note_off_c, 0, 69, 58
1, 49186, Note_off_c, 0, 60, 56
1, 49223, Note_on_c, 0, 64, 49
1, 49232, Note_on_c, 0, 61, 42
1, 49521, Note_on_c, 0, 58, 44
1, 49528, Note_on_c, 0, 66, 78
1, 49544, Note_off_c, 0, 64, 58
1, 49547, Note_off_c, 0, 61, 41
1, 49568, Note_off_c, 0, 68, 61
1, 49714, Control_c, 0, 64, 22
1, 49729, Control_c, 0, 64, 30
1, 49744, Control_c, 0, 64, 36
1, 49759, Control_c, 0, 64, 42
1, 49774, Control_c, 0, 64, 49
1, 49788, Note_off_c, 0, 58, 48
1, 49789, Control_c, 0, 64, 54
1, 49804, Control_c, 0, 64, 56
1, 49810, Note_on_c, 0, 63, 60
1, 49819, Control_c, 0, 64, 58
1, 49824, Note_on_c, 0, 59, 31
1, 49830, Note_off_c, 0, 66, 64
1, 49834, Control_c, 0, 64, 59
1, 49848, Control_c, 0, 64, 61
1, 49863, Control_c, 0, 64, 62
1, 49878, Control_c, 0, 64, 63
1, 49893, Control_c, 0, 64, 63
1, 49907, Control_c, 0, 64, 64
1, 49922, Control_c, 0, 64, 65
1, 49937, Control_c, 0, 64, 65
1, 49967, Control_c, 0, 64, 66
1, 49982, Control_c, 0, 64, 65
1, 49989, Note_off_c, 0, 63, 39
1, 49996, Control_c, 0, 64, 64
1, 50011, Control_c, 0, 64, 58
1, 50014, Note_on_c, 0, 52, 51
1, 50026, Control_c, 0, 64, 0
1, 50053, Note_off_c, 0, 59, 53
1, 50073, Note_on_c, 0, 64, 52
1, 50089, Note_on_c, 0, 56, 54
1, 50101, Control_c, 0, 64, 42
1, 50105, Note_on_c, 0, 68, 65
1, 50116, Control_c, 0, 64, 58
1, 50121, Note_off_c, 0, 52, 66
1, 50130, Control_c, 0, 64, 62
1, 50132, Note_on_c, 0, 73, 86
1, 50134, Note_on_c, 0, 61, 77
1, 50143, Note_off_c, 0, 56, 64
1, 50145, Control_c, 0, 64, 64
1, 50156, Note_off_c, 0, 61, 67
1, 50160, Control_c, 0, 64, 65
1, 50165, Note_off_c, 0, 68, 65
1, 50175, Control_c, 0, 64, 66
1, 50190, Control_c, 0, 64, 66
1, 50212, Control_c, 0, 64, 67
1, 50257, Control_c, 0, 64, 66
1, 50263, Note_off_c, 0, 73, 61
1, 50286, Control_c, 0, 64, 66
1, 50333, Note_off_c, 0, 64, 59
1, 50403, Note_on_c, 0, 68, 67
1, 50484, Note_on_c, 0, 64, 68
1, 50493, Control_c, 0, 64, 66
1, 50520, Note_off_c, 0, 68, 63
1, 50546, Note_off_c, 0, 64, 64
1, 50557, Note_on_c, 0, 61, 77
1, 50567, Control_c, 0, 64, 64
1, 50576, Note_on_c, 0, 42, 49
1, 50582, Control_c, 0, 64, 57
1, 50587, Note_off_c, 0, 61, 63
1, 50597, Control_c, 0, 64, 0
1, 50597, Control_c, 0, 67, 8
1, 50612, Control_c, 0, 67, 11
1, 50627, Control_c, 0, 67, 15
1, 50641, Control_c, 0, 67, 19
1, 50650, Note_on_c, 0, 51, 55
1, 50656, Control_c, 0, 67, 24
1, 50659, Note_on_c, 0, 59, 73
1, 50671, Control_c, 0, 67, 30
1, 50686, Control_c, 0, 64, 42
1, 50686, Control_c, 0, 67, 36
1, 50701, Control_c, 0, 64, 47
1, 50701, Control_c, 0, 67, 43
1, 50716, Control_c, 0, 64, 48
1, 50716, Control_c, 0, 67, 49
1, 50731, Control_c, 0, 64, 50
1, 50731, Control_c, 0, 67, 55
1, 50746, Control_c, 0, 64, 51
1, 50746, Control_c, 0, 67, 60
1, 50761, Control_c, 0, 64, 52
1, 50761, Control_c, 0, 67, 65
1, 50776, Control_c, 0, 64, 54
1, 50776, Control_c, 0, 67, 69
1, 50791, Control_c, 0, 64, 56
1, 50791, Control_c, 0, 67, 74
1, 50805, Control_c, 0, 64, 57
1, 50805, Control_c, 0, 67, 78
1, 50820, Control_c, 0, 67, 81
1, 50835, Control_c, 0, 64, 55
1, 50835, Control_c, 0, 67, 85
1, 50850, Control_c, 0, 64, 54
1, 50850, Control_c, 0, 67, 92
1, 50864, Control_c, 0, 64, 54
1, 50864, Control_c, 0, 67, 99
1, 50880, Control_c, 0, 64, 53
1, 50880, Control_c, 0, 67, 105
1, 50891, Note_off_c, 0, 59, 54
1, 50895, Control_c, 0, 64, 52
1, 50895, Control_c, 0, 67, 108
1, 50910, Control_c, 0, 64, 51
1, 50910, Control_c, 0, 67, 109
1, 50924, Note_off_c, 0, 51, 52
1, 50925, Control_c, 0, 64, 50
1, 50931, Note_on_c, 0, 49, 50
1, 50934, Note_on_c, 0, 58, 58
1, 50940, Control_c, 0, 64, 49
1, 50940, Control_c, 0, 67, 110
1, 50961, Control_c, 0, 64, 48
1, 50975, Note_off_c, 0, 58, 66
1, 50976, Control_c, 0, 64, 46
1, 50991, Control_c, 0, 64, 37
1, 51006, Control_c, 0, 64, 21
1, 51006, Control_c, 0, 67, 110
1, 51008, Note_on_c, 0, 59, 59
1, 51021, Control_c, 0, 64, 0
1, 51021, Control_c, 0, 67, 111
1, 51022, Note_off_c, 0, 42, 36
1, 51035, Control_c, 0, 67, 111
1, 51037, Note_on_c, 0, 58, 81
1, 51037, Note_off_c, 0, 59, 63
1, 51050, Control_c, 0, 67, 112
1, 51065, Control_c, 0, 67, 114
1, 51080, Control_c, 0, 67, 116
1, 51088, Note_off_c, 0, 58, 62
1, 51091, Note_on_c, 0, 56, 70
1, 51095, Control_c, 0, 67, 119
1, 51109, Control_c, 0, 67, 123
1, 51124, Control_c, 0, 67, 125
1, 51139, Control_c, 0, 67, 127
1, 51168, Note_on_c, 0, 58, 69
1, 51171, Note_off_c, 0, 56, 60
1, 51250, Note_off_c, 0, 49, 34
1, 51255, Note_off_c, 0, 58, 62
1, 51276, Note_on_c, 0, 47, 46
1, 51303, Note_on_c, 0, 59, 59
1, 51392, Note_on_c, 0, 63, 64
1, 51414, Note_off_c, 0, 59, 52
1, 51460, Note_off_c, 0, 63, 64
1, 51461, Note_on_c, 0, 66, 68
1, 51532, Note_off_c, 0, 66, 65
1, 51536, Note_on_c, 0, 71, 75
1, 51611, Note_on_c, 0, 66, 68
1, 51643, Note_off_c, 0, 71, 56
1, 51689, Note_on_c, 0, 63, 72
1, 51716, Note_off_c, 0, 66, 67
1, 51752, Note_off_c, 0, 63, 63
1, 51762, Note_off_c, 0, 47, 40
1, 51777, Note_on_c, 0, 59, 67
1, 51813, Note_off_c, 0, 59, 58
1, 51855, Note_on_c, 0, 54, 71
1, 51928, Note_on_c, 0, 51, 75
1, 51933, Note_off_c, 0, 54, 62
1, 51956, Note_off_c, 0, 51, 70
1, 52012, Note_on_c, 0, 47, 61
1, 52079, Note_off_c, 0, 47, 61
1, 52091, Note_on_c, 0, 42, 55
1, 52153, Note_off_c, 0, 42, 60
1, 52177, Note_on_c, 0, 39, 49
1, 52304, Note_off_c, 0, 39, 46
1, 52349, Note_on_c, 0, 35, 34
1, 52490, Control_c, 0, 64, 36
1, 52505, Control_c, 0, 64, 45
1, 52519, Control_c, 0, 64, 50
1, 52534, Control_c, 0, 64, 54
1, 52549, Control_c, 0, 64, 57
1, 52564, Control_c, 0, 64, 61
1, 52579, Control_c, 0, 64, 64
1, 52594, Control_c, 0, 64, 65
1, 52608, Control_c, 0, 64, 65
1, 52638, Control_c, 0, 64, 66
1, 52653, Control_c, 0, 64, 66
1, 52667, Control_c, 0, 64, 68
1, 52682, Control_c, 0, 64, 69
1, 52697, Control_c, 0, 64, 70
1, 52712, Control_c, 0, 64, 70
1, 52727, Control_c, 0, 64, 71
1, 52751, Note_off_c, 0, 35, 42
1, 52830, Control_c, 0, 64, 70
1, 52859, Control_c, 0, 64, 70
1, 52889, Control_c, 0, 64, 69
1, 52934, Control_c, 0, 64, 69
1, 52949, Control_c, 0, 64, 68
1, 52964, Control_c, 0, 64, 67
1, 52979, Control_c, 0, 64, 66
1, 52993, Control_c, 0, 64, 64
1, 53008, Control_c, 0, 64, 63
1, 53023, Control_c, 0, 64, 62
1, 53038, Control_c, 0, 64, 61
1, 53051, Control_c, 0, 64, 61
1, 53066, Control_c, 0, 64, 60
1, 53081, Control_c, 0, 64, 59
1, 53096, Control_c, 0, 64, 57
1, 53111, Control_c, 0, 64, 56
1, 53125, Control_c, 0, 64, 54
1, 53140, Control_c, 0, 64, 53
1, 53170, Control_c, 0, 64, 53
1, 53207, Control_c, 0, 64, 52
1, 53416, Control_c, 0, 64, 52
1, 53460, Control_c, 0, 64, 51
1, 53534, Control_c, 0, 64, 51
1, 53578, Control_c, 0, 67, 118
1, 53593, Control_c, 0, 67, 105
1, 53608, Control_c, 0, 67, 91
1, 53623, Control_c, 0, 64, 50
1, 53623, Control_c, 0, 67, 76
1, 53637, Control_c, 0, 64, 50
1, 53637, Control_c, 0, 67, 58
1, 53652, Control_c, 0, 64, 49
1, 53652, Control_c, 0, 67, 42
1, 53667, Control_c, 0, 64, 49
1, 53667, Control_c, 0, 67, 26
1, 53682, Control_c, 0, 67, 10
1, 53697, Control_c, 0, 64, 48
1, 53697, Control_c, 0, 67, 0
1, 53712, Control_c, 0, 64, 48
1, 53727, Control_c, 0, 64, 46
1, 53742, Control_c, 0, 64, 45
1, 53756, Control_c, 0, 64, 44
1, 53771, Control_c, 0, 64, 43
1, 53778, Note_on_c, 0, 78, 60
1, 53794, Note_on_c, 0, 75, 41
1, 53801, Control_c, 0, 64, 43
1, 53815, Control_c, 0, 64, 42
1, 53830, Control_c, 0, 64, 40
1, 53845, Control_c, 0, 64, 39
1, 53860, Control_c, 0, 64, 39
1, 53874, Control_c, 0, 64, 38
1, 53889, Control_c, 0, 64, 38
1, 53904, Control_c, 0, 64, 34
1, 53919, Control_c, 0, 64, 30
1, 53934, Control_c, 0, 64, 25
1, 53956, Control_c, 0, 64, 21
1, 53971, Control_c, 0, 64, 16
1, 53986, Control_c, 0, 64, 0
1, 54032, Note_on_c, 0, 59, 46
1, 54081, Note_off_c, 0, 59, 57
1, 54194, Control_c, 0, 64, 34
1, 54209, Control_c, 0, 64, 45
1, 54224, Control_c, 0, 64, 52
1, 54239, Control_c, 0, 64, 57
1, 54253, Control_c, 0, 64, 60
1, 54268, Control_c, 0, 64, 62
1, 54283, Control_c, 0, 64, 63
1, 54298, Control_c, 0, 64, 64
1, 54299, Note_on_c, 0, 66, 48
1, 54312, Control_c, 0, 64, 64
1, 54327, Control_c, 0, 64, 65
1, 54342, Control_c, 0, 64, 66
1, 54357, Control_c, 0, 64, 67
1, 54372, Control_c, 0, 64, 68
1, 54386, Control_c, 0, 64, 69
1, 54401, Control_c, 0, 64, 70
1, 54416, Control_c, 0, 64, 70
1, 54430, Control_c, 0, 64, 71
1, 54445, Control_c, 0, 64, 71
1, 54460, Control_c, 0, 64, 72
1, 54475, Control_c, 0, 64, 72
1, 54490, Note_off_c, 0, 78, 57
1, 54519, Note_off_c, 0, 75, 37
1, 54570, Note_on_c, 0, 76, 73
1, 54572, Note_on_c, 0, 73, 59
1, 54579, Control_c, 0, 64, 72
1, 54609, Control_c, 0, 64, 71
1, 54639, Control_c, 0, 64, 71
1, 54654, Control_c, 0, 64, 70
1, 54669, Control_c, 0, 64, 70
1, 54684, Control_c, 0, 64, 69
1, 54698, Control_c, 0, 64, 68
1, 54720, Control_c, 0, 64, 67
1, 54735, Control_c, 0, 64, 66
1, 54750, Control_c, 0, 64, 64
1, 54765, Control_c, 0, 64, 63
1, 54779, Control_c, 0, 64, 62
1, 54794, Control_c, 0, 64, 61
1, 54809, Control_c, 0, 64, 59
1, 54824, Control_c, 0, 64, 57
1, 54837, Note_on_c, 0, 75, 77
1, 54839, Control_c, 0, 64, 53
1, 54846, Note_on_c, 0, 71, 38
1, 54853, Control_c, 0, 64, 48
1, 54868, Control_c, 0, 64, 41
1, 54884, Control_c, 0, 64, 32
1, 54887, Note_off_c, 0, 73, 62
1, 54899, Control_c, 0, 64, 16
1, 54910, Note_off_c, 0, 76, 59
1, 54914, Control_c, 0, 64, 0
1, 55064, Note_off_c, 0, 66, 39
1, 55098, Note_on_c, 0, 68, 41
1, 55351, Note_off_c, 0, 68, 46
1, 55355, Note_on_c, 0, 65, 39
1, 55363, Note_on_c, 0, 73, 67
1, 55370, Note_off_c, 0, 71, 50
1, 55404, Note_off_c, 0, 75, 60
1, 55585, Note_off_c, 0, 65, 42
1, 55613, Note_on_c, 0, 70, 49
1, 55626, Note_on_c, 0, 66, 39
1, 55906, Note_on_c, 0, 63, 38
1, 55912, Note_off_c, 0, 73, 54
1, 55916, Note_on_c, 0, 71, 78
1, 55940, Note_off_c, 0, 70, 63
1, 56170, Note_on_c, 0, 59, 36
1, 56171, Note_off_c, 0, 63, 42
1, 56300, Note_off_c, 0, 71, 43
1, 56302, Note_on_c, 0, 73, 49
1, 56328, Note_off_c, 0, 59, 47
1, 56341, Note_on_c, 0, 75, 58
1, 56350, Note_off_c, 0, 73, 64
1, 56387, Note_on_c, 0, 76, 73
1, 56388, Note_on_c, 0, 58, 44
1, 56401, Note_off_c, 0, 75, 64
1, 56427, Note_off_c, 0, 76, 66
1, 56548, Note_off_c, 0, 58, 30
1, 56663, Note_on_c, 0, 59, 48
1, 56666, Note_on_c, 0, 75, 67
1, 56666, Note_off_c, 0, 66, 53
1, 56693, Note_off_c, 0, 75, 69
1, 56889, Note_off_c, 0, 59, 36
1, 56928, Note_on_c, 0, 64, 45
1, 56935, Note_on_c, 0, 73, 61
1, 56939, Note_on_c, 0, 68, 28
1, 56968, Note_off_c, 0, 73, 62
1, 56977, Note_off_c, 0, 68, 46
1, 56994, Note_on_c, 0, 75, 66
1, 57026, Note_off_c, 0, 75, 66
1, 57041, Note_on_c, 0, 73, 65
1, 57079, Note_on_c, 0, 75, 66
1, 57088, Note_off_c, 0, 64, 39
1, 57107, Note_off_c, 0, 73, 0
1, 57120, Note_on_c, 0, 73, 48
1, 57120, Note_off_c, 0, 75, 62
1, 57253, Note_on_c, 0, 66, 30
1, 57254, Note_on_c, 0, 71, 51
1, 57272, Note_on_c, 0, 63, 30
1, 57300, Note_off_c, 0, 73, 36
1, 57516, Control_c, 0, 64, 19
1, 57530, Control_c, 0, 64, 33
1, 57545, Control_c, 0, 64, 40
1, 57560, Control_c, 0, 64, 46
1, 57575, Control_c, 0, 64, 51
1, 57590, Control_c, 0, 64, 55
1, 57605, Control_c, 0, 64, 58
1, 57617, Note_off_c, 0, 66, 49
1, 57620, Control_c, 0, 64, 60
1, 57635, Control_c, 0, 64, 62
1, 57649, Control_c, 0, 64, 62
1, 57664, Control_c, 0, 64, 63
1, 57678, Note_off_c, 0, 63, 47
1, 57679, Control_c, 0, 64, 63
1, 57701, Control_c, 0, 64, 64
1, 57793, Note_off_c, 0, 71, 37
1, 57827, Note_on_c, 0, 73, 52
1, 57834, Control_c, 0, 64, 63
1, 57849, Control_c, 0, 64, 62
1, 57864, Control_c, 0, 64, 60
1, 57879, Control_c, 0, 64, 58
1, 57885, Note_on_c, 0, 75, 56
1, 57885, Note_off_c, 0, 73, 61
1, 57894, Control_c, 0, 64, 55
1, 57909, Control_c, 0, 64, 52
1, 57922, Note_off_c, 0, 75, 66
1, 57923, Control_c, 0, 64, 45
1, 57938, Control_c, 0, 64, 35
1, 57953, Control_c, 0, 64, 22
1, 57956, Note_on_c, 0, 76, 70
1, 57968, Control_c, 0, 64, 0
1, 58019, Note_on_c, 0, 78, 74
1, 58057, Note_on_c, 0, 79, 54
1, 58089, Note_on_c, 0, 80, 80
1, 58122, Note_off_c, 0, 79, 47
1, 58129, Note_off_c, 0, 78, 60
1, 58141, Note_on_c, 0, 81, 71
1, 58228, Note_on_c, 0, 83, 83
1, 58266, Note_off_c, 0, 81, 58
1, 58283, Note_off_c, 0, 76, 43
1, 58500, Note_on_c, 0, 64, 68
1, 58546, Note_off_c, 0, 64, 63
1, 58784, Note_on_c, 0, 71, 52
1, 58987, Note_off_c, 0, 80, 62
1, 59045, Note_on_c, 0, 78, 45
1, 59054, Note_on_c, 0, 81, 79
1, 59288, Control_c, 0, 67, 8
1, 59302, Control_c, 0, 67, 8
1, 59317, Control_c, 0, 67, 9
1, 59319, Note_on_c, 0, 80, 85
1, 59332, Control_c, 0, 67, 10
1, 59334, Note_on_c, 0, 76, 46
1, 59336, Note_off_c, 0, 83, 57
1, 59347, Control_c, 0, 67, 12
1, 59352, Note_off_c, 0, 78, 63
1, 59362, Control_c, 0, 67, 13
1, 59376, Control_c, 0, 67, 15
1, 59380, Note_off_c, 0, 81, 55
1, 59391, Control_c, 0, 67, 18
1, 59406, Control_c, 0, 67, 21
1, 59420, Control_c, 0, 67, 24
1, 59435, Control_c, 0, 67, 26
1, 59450, Control_c, 0, 67, 27
1, 59465, Control_c, 0, 67, 28
1, 59480, Control_c, 0, 67, 30
1, 59495, Control_c, 0, 67, 32
1, 59510, Control_c, 0, 67, 34
1, 59525, Control_c, 0, 67, 36
1, 59539, Control_c, 0, 67, 38
1, 59554, Control_c, 0, 67, 40
1, 59569, Control_c, 0, 67, 42
1, 59584, Control_c, 0, 67, 46
1, 59593, Note_off_c, 0, 71, 47
1, 59597, Note_on_c, 0, 73, 45
1, 59599, Control_c, 0, 67, 50
1, 59614, Control_c, 0, 67, 54
1, 59628, Control_c, 0, 67, 58
1, 59643, Control_c, 0, 67, 62
1, 59658, Control_c, 0, 67, 64
1, 59674, Control_c, 0, 67, 66
1, 59689, Control_c, 0, 67, 68
1, 59703, Control_c, 0, 67, 70
1, 59718, Control_c, 0, 67, 72
1, 59733, Control_c, 0, 67, 74
1, 59748, Control_c, 0, 67, 77
1, 59763, Control_c, 0, 67, 80
1, 59778, Control_c, 0, 67, 83
1, 59792, Control_c, 0, 67, 86
1, 59807, Control_c, 0, 67, 88
1, 59822, Control_c, 0, 67, 90
1, 59837, Control_c, 0, 67, 91
1, 59851, Control_c, 0, 67, 93
1, 59857, Note_off_c, 0, 76, 35
1, 59864, Note_on_c, 0, 78, 65
1, 59866, Control_c, 0, 67, 96
1, 59869, Note_off_c, 0, 73, 37
1, 59870, Note_on_c, 0, 70, 40
1, 59876, Note_off_c, 0, 80, 56
1, 59881, Control_c, 0, 67, 99
1, 59896, Control_c, 0, 67, 102
1, 59911, Control_c, 0, 67, 106
1, 59925, Control_c, 0, 67, 108
1, 59948, Control_c, 0, 67, 111
1, 59963, Control_c, 0, 67, 112
1, 59978, Control_c, 0, 67, 114
1, 59993, Control_c, 0, 67, 115
1, 60007, Control_c, 0, 64, 32
1, 60007, Control_c, 0, 67, 116
1, 60022, Control_c, 0, 64, 45
1, 60022, Control_c, 0, 67, 118
1, 60037, Control_c, 0, 64, 57
1, 60037, Control_c, 0, 67, 121
1, 60051, Control_c, 0, 64, 61
1, 60051, Control_c, 0, 67, 125
1, 60066, Control_c, 0, 64, 63
1, 60066, Control_c, 0, 67, 127
1, 60081, Control_c, 0, 64, 64
1, 60096, Control_c, 0, 64, 65
1, 60111, Control_c, 0, 64, 66
1, 60114, Note_off_c, 0, 70, 41
1, 60125, Control_c, 0, 64, 68
1, 60131, Note_on_c, 0, 75, 46
1, 60136, Note_on_c, 0, 71, 34
1, 60140, Control_c, 0, 64, 69
1, 60155, Control_c, 0, 64, 70
1, 60170, Control_c, 0, 64, 70
1, 60185, Control_c, 0, 64, 71
1, 60261, Note_off_c, 0, 75, 31
1, 60318, Control_c, 0, 64, 70
1, 60362, Control_c, 0, 64, 69
1, 60377, Control_c, 0, 64, 67
1, 60378, Note_off_c, 0, 71, 35
1, 60392, Control_c, 0, 64, 60
1, 60407, Control_c, 0, 64, 0
1, 60411, Note_on_c, 0, 76, 59
1, 60429, Note_on_c, 0, 68, 33
1, 60435, Note_off_c, 0, 78, 41
1, 60511, Control_c, 0, 64, 40
1, 60526, Control_c, 0, 64, 51
1, 60541, Control_c, 0, 64, 55
1, 60556, Control_c, 0, 64, 58
1, 60571, Control_c, 0, 64, 60
1, 60586, Control_c, 0, 64, 62
1, 60601, Control_c, 0, 64, 63
1, 60615, Control_c, 0, 64, 65
1, 60630, Control_c, 0, 64, 65
1, 60645, Control_c, 0, 64, 66
1, 60649, Note_off_c, 0, 68, 44
1, 60660, Control_c, 0, 64, 66
1, 60674, Control_c, 0, 64, 67
1, 60677, Note_on_c, 0, 73, 37
1, 60696, Control_c, 0, 64, 68
1, 60701, Note_on_c, 0, 69, 33
1, 60711, Control_c, 0, 64, 68
1, 60726, Control_c, 0, 64, 69
1, 60741, Control_c, 0, 64, 70
1, 60770, Note_off_c, 0, 76, 55
1, 60918, Note_off_c, 0, 69, 41
1, 60919, Control_c, 0, 64, 69
1, 60934, Control_c, 0, 64, 68
1, 60948, Control_c, 0, 64, 66
1, 60963, Control_c, 0, 64, 60
1, 60964, Note_on_c, 0, 75, 57
1, 60966, Note_on_c, 0, 66, 37
1, 60978, Control_c, 0, 64, 37
1, 60992, Control_c, 0, 64, 26
1, 61007, Control_c, 0, 64, 36
1, 61021, Note_off_c, 0, 73, 39
1, 61022, Control_c, 0, 64, 44
1, 61037, Control_c, 0, 64, 51
1, 61052, Control_c, 0, 64, 55
1, 61067, Control_c, 0, 64, 57
1, 61081, Control_c, 0, 64, 59
1, 61096, Control_c, 0, 64, 60
1, 61111, Control_c, 0, 64, 61
1, 61126, Control_c, 0, 64, 62
1, 61170, Control_c, 0, 64, 61
1, 61185, Control_c, 0, 64, 61
1, 61191, Note_off_c, 0, 66, 50
1, 61200, Control_c, 0, 64, 60
1, 61215, Control_c, 0, 64, 60
1, 61236, Note_on_c, 0, 68, 30
1, 61236, Note_on_c, 0, 72, 43
1, 61259, Control_c, 0, 64, 59
1, 61289, Control_c, 0, 64, 59
1, 61304, Control_c, 0, 64, 58
1, 61319, Control_c, 0, 64, 58
1, 61349, Control_c, 0, 64, 57
1, 61364, Control_c, 0, 64, 57
1, 61379, Control_c, 0, 64, 56
1, 61394, Control_c, 0, 64, 56
1, 61408, Control_c, 0, 64, 55
1, 61423, Control_c, 0, 64, 55
1, 61445, Control_c, 0, 64, 54
1, 61460, Control_c, 0, 64, 53
1, 61475, Control_c, 0, 64, 50
1, 61490, Control_c, 0, 64, 46
1, 61504, Control_c, 0, 64, 39
1, 61519, Control_c, 0, 64, 26
1, 61530, Note_on_c, 0, 73, 68
1, 61534, Control_c, 0, 64, 0
1, 61543, Note_on_c, 0, 64, 36
1, 61573, Note_off_c, 0, 75, 59
1, 61588, Note_off_c, 0, 72, 45
1, 61768, Note_off_c, 0, 64, 40
1, 61797, Note_on_c, 0, 61, 41
1, 61920, Note_on_c, 0, 75, 21
1, 61928, Note_off_c, 0, 73, 40
1, 61950, Note_off_c, 0, 61, 51
1, 61957, Note_on_c, 0, 76, 58
1, 61989, Note_off_c, 0, 75, 40
1, 62014, Note_on_c, 0, 78, 72
1, 62021, Note_on_c, 0, 60, 39
1, 62023, Note_off_c, 0, 76, 65
1, 62060, Note_off_c, 0, 78, 56
1, 62210, Note_off_c, 0, 60, 23
1, 62296, Note_on_c, 0, 61, 53
1, 62298, Note_on_c, 0, 76, 66
1, 62300, Note_off_c, 0, 68, 55
1, 62326, Note_off_c, 0, 61, 64
1, 62340, Note_off_c, 0, 76, 64
1, 62576, Note_on_c, 0, 56, 45
1, 62583, Note_on_c, 0, 72, 57
1, 62586, Note_on_c, 0, 75, 62
1, 62590, Note_on_c, 0, 68, 46
1, 62631, Note_off_c, 0, 56, 57
1, 62670, Note_on_c, 0, 60, 43
1, 62738, Note_off_c, 0, 60, 52
1, 62789, Note_on_c, 0, 63, 14
1, 62798, Note_off_c, 0, 68, 42
1, 62833, Note_off_c, 0, 63, 47
1, 62833, Note_off_c, 0, 72, 63
1, 62833, Note_on_c, 0, 80, 72
1, 62837, Note_on_c, 0, 56, 47
1, 62837, Note_off_c, 0, 75, 64
1, 62855, Note_off_c, 0, 80, 71
1, 62886, Note_off_c, 0, 56, 58
1, 62935, Note_on_c, 0, 60, 33
1, 62997, Note_off_c, 0, 60, 43
1, 62998, Note_on_c, 0, 63, 30
1, 63081, Note_on_c, 0, 56, 52
1, 63088, Note_on_c, 0, 80, 82
1, 63090, Note_off_c, 0, 63, 44
1, 63110, Note_off_c, 0, 80, 67
1, 63145, Note_off_c, 0, 56, 57
1, 63189, Note_on_c, 0, 60, 38
1, 63249, Note_on_c, 0, 63, 41
1, 63253, Note_off_c, 0, 60, 52
1, 63335, Note_on_c, 0, 80, 86
1, 63339, Note_off_c, 0, 63, 58
1, 63343, Note_on_c, 0, 56, 50
1, 63371, Note_off_c, 0, 80, 61
1, 63400, Note_off_c, 0, 56, 59
1, 63430, Note_on_c, 0, 60, 34
1, 63471, Note_off_c, 0, 60, 51
1, 63505, Note_on_c, 0, 63, 38
1, 63586, Note_off_c, 0, 63, 58
1, 63596, Note_on_c, 0, 81, 64
1, 63602, Note_on_c, 0, 56, 50
1, 63608, Control_c, 0, 64, 52
1, 63623, Control_c, 0, 64, 54
1, 63637, Note_on_c, 0, 80, 73
1, 63638, Control_c, 0, 64, 0
1, 63650, Note_off_c, 0, 81, 59
1, 63662, Note_off_c, 0, 56, 57
1, 63697, Note_on_c, 0, 79, 73
1, 63698, Note_off_c, 0, 80, 64
1, 63710, Note_on_c, 0, 61, 39
1, 63743, Note_off_c, 0, 61, 58
1, 63746, Note_off_c, 0, 79, 58
1, 63751, Note_on_c, 0, 80, 68
1, 63778, Note_on_c, 0, 64, 35
1, 63779, Control_c, 0, 64, 16
1, 63794, Control_c, 0, 64, 19
1, 63809, Control_c, 0, 64, 22
1, 63823, Control_c, 0, 64, 25
1, 63826, Note_off_c, 0, 64, 48
1, 63838, Control_c, 0, 64, 28
1, 63847, Note_on_c, 0, 56, 46
1, 63853, Control_c, 0, 64, 31
1, 63868, Control_c, 0, 64, 32
1, 63883, Control_c, 0, 64, 34
1, 63898, Control_c, 0, 64, 37
1, 63912, Control_c, 0, 64, 42
1, 63915, Note_off_c, 0, 56, 57
1, 63927, Control_c, 0, 64, 46
1, 63942, Control_c, 0, 64, 51
1, 63945, Note_on_c, 0, 61, 44
1, 63957, Control_c, 0, 64, 54
1, 63972, Control_c, 0, 64, 56
1, 63987, Control_c, 0, 64, 57
1, 63990, Note_off_c, 0, 61, 59
1, 64002, Control_c, 0, 64, 59
1, 64016, Control_c, 0, 64, 61
1, 64029, Note_on_c, 0, 64, 34
1, 64031, Control_c, 0, 64, 62
1, 64046, Control_c, 0, 64, 64
1, 64061, Control_c, 0, 64, 64
1, 64061, Control_c, 0, 67, 127
1, 64076, Control_c, 0, 64, 65
1, 64076, Control_c, 0, 67, 119
1, 64090, Control_c, 0, 64, 66
1, 64090, Control_c, 0, 67, 110
1, 64105, Control_c, 0, 64, 67
1, 64105, Control_c, 0, 67, 100
1, 64112, Note_off_c, 0, 64, 36
1, 64118, Note_on_c, 0, 56, 48
1, 64120, Control_c, 0, 64, 68
1, 64120, Control_c, 0, 67, 88
1, 64130, Note_on_c, 0, 68, 73
1, 64135, Control_c, 0, 64, 70
1, 64135, Control_c, 0, 67, 74
1, 64150, Control_c, 0, 64, 72
1, 64150, Control_c, 0, 67, 58
1, 64164, Control_c, 0, 64, 74
1, 64164, Control_c, 0, 67, 46
1, 64179, Control_c, 0, 64, 75
1, 64179, Control_c, 0, 67, 39
1, 64194, Control_c, 0, 64, 76
1, 64194, Control_c, 0, 67, 35
1, 64199, Note_off_c, 0, 68, 62
1, 64199, Note_off_c, 0, 56, 57
1, 64208, Note_off_c, 0, 80, 63
1, 64208, Control_c, 0, 64, 76
1, 64208, Control_c, 0, 67, 34
1, 64223, Control_c, 0, 64, 77
1, 64223, Control_c, 0, 67, 33
1, 64227, Note_on_c, 0, 61, 39
1, 64238, Control_c, 0, 64, 77
1, 64262, Note_off_c, 0, 61, 54
1, 64306, Note_on_c, 0, 64, 36
1, 64313, Control_c, 0, 67, 34
1, 64357, Control_c, 0, 67, 34
1, 64360, Note_off_c, 0, 64, 42
1, 64372, Control_c, 0, 67, 35
1, 64377, Note_on_c, 0, 56, 51
1, 64402, Control_c, 0, 67, 36
1, 64416, Control_c, 0, 67, 36
1, 64439, Control_c, 0, 67, 37
1, 64454, Control_c, 0, 67, 37
1, 64466, Note_off_c, 0, 56, 57
1, 64470, Control_c, 0, 64, 77
1, 64470, Control_c, 0, 67, 38
1, 64481, Note_on_c, 0, 61, 51
1, 64485, Control_c, 0, 67, 39
1, 64500, Control_c, 0, 67, 40
1, 64514, Control_c, 0, 67, 41
1, 64529, Control_c, 0, 64, 76
1, 64529, Control_c, 0, 67, 42
1, 64544, Control_c, 0, 67, 42
1, 64548, Note_off_c, 0, 61, 57
1, 64559, Control_c, 0, 64, 75
1, 64559, Control_c, 0, 67, 44
1, 64571, Note_on_c, 0, 64, 49
1, 64574, Control_c, 0, 64, 74
1, 64574, Control_c, 0, 67, 44
1, 64588, Control_c, 0, 64, 73
1, 64588, Control_c, 0, 67, 45
1, 64603, Control_c, 0, 64, 70
1, 64603, Control_c, 0, 67, 46
1, 64617, Note_off_c, 0, 64, 54
1, 64618, Control_c, 0, 64, 65
1, 64618, Control_c, 0, 67, 48
1, 64633, Control_c, 0, 64, 60
1, 64633, Control_c, 0, 67, 51
1, 64644, Note_on_c, 0, 56, 56
1, 64647, Control_c, 0, 64, 57
1, 64647, Control_c, 0, 67, 53
1, 64662, Control_c, 0, 67, 55
1, 64677, Control_c, 0, 64, 56
1, 64677, Control_c, 0, 67, 57
1, 64692, Control_c, 0, 64, 53
1, 64692, Control_c, 0, 67, 58
1, 64707, Control_c, 0, 64, 47
1, 64707, Control_c, 0, 67, 60
1, 64716, Note_off_c, 0, 56, 56
1, 64721, Control_c, 0, 64, 38
1, 64721, Control_c, 0, 67, 62
1, 64732, Note_on_c, 0, 63, 51
1, 64736, Control_c, 0, 64, 28
1, 64736, Control_c, 0, 67, 63
1, 64751, Control_c, 0, 64, 25
1, 64751, Control_c, 0, 67, 63
1, 64766, Control_c, 0, 67, 64
1, 64801, Note_off_c, 0, 63, 57
1, 64810, Control_c, 0, 64, 24
1, 64810, Control_c, 0, 67, 64
1, 64813, Note_on_c, 0, 66, 48
1, 64840, Control_c, 0, 64, 22
1, 64840, Control_c, 0, 67, 65
1, 64854, Control_c, 0, 64, 21
1, 64857, Note_off_c, 0, 66, 58
1, 64865, Note_on_c, 0, 80, 72
1, 64869, Control_c, 0, 64, 18
1, 64875, Note_on_c, 0, 56, 53
1, 64884, Control_c, 0, 64, 13
1, 64890, Note_off_c, 0, 80, 68
1, 64899, Control_c, 0, 64, 0
1, 64929, Control_c, 0, 67, 65
1, 64948, Note_off_c, 0, 56, 59
1, 64986, Note_on_c, 0, 63, 43
1, 65038, Note_off_c, 0, 63, 57
1, 65047, Control_c, 0, 67, 65
1, 65060, Note_on_c, 0, 66, 35
1, 65108, Note_on_c, 0, 56, 51
1, 65108, Note_on_c, 0, 80, 86
1, 65110, Note_off_c, 0, 66, 48
1, 65136, Control_c, 0, 67, 65
1, 65138, Note_off_c, 0, 80, 64
1, 65176, Note_off_c, 0, 56, 57
1, 65212, Note_on_c, 0, 63, 48
1, 65269, Note_off_c, 0, 63, 58
1, 65290, Note_on_c, 0, 66, 46
1, 65355, Note_off_c, 0, 66, 56
1, 65361, Note_on_c, 0, 80, 84
1, 65366, Note_on_c, 0, 56, 47
1, 65388, Note_off_c, 0, 80, 63
1, 65424, Note_off_c, 0, 56, 59
1, 65426, Control_c, 0, 67, 66
1, 65446, Note_on_c, 0, 63, 22
1, 65484, Note_off_c, 0, 63, 46
1, 65494, Note_on_c, 0, 66, 48
1, 65559, Control_c, 0, 67, 65
1, 65567, Note_off_c, 0, 66, 57
1, 65590, Note_on_c, 0, 56, 51
1, 65615, Note_on_c, 0, 81, 68
1, 65618, Control_c, 0, 67, 65
1, 65657, Note_on_c, 0, 80, 69
1, 65663, Note_off_c, 0, 56, 57
1, 65663, Note_off_c, 0, 81, 58
1, 65698, Note_on_c, 0, 61, 42
1, 65701, Note_off_c, 0, 80, 64
1, 65702, Note_on_c, 0, 79, 74
1, 65707, Control_c, 0, 67, 64
1, 65728, Note_off_c, 0, 61, 58
1, 65755, Note_off_c, 0, 79, 60
1, 65757, Note_on_c, 0, 80, 73
1, 65758, Note_on_c, 0, 64, 53
1, 65781, Control_c, 0, 64, 26
1, 65796, Control_c, 0, 64, 38
1, 65811, Control_c, 0, 64, 45
1, 65818, Note_off_c, 0, 64, 50
1, 65826, Control_c, 0, 64, 50
1, 65826, Control_c, 0, 67, 64
1, 65841, Control_c, 0, 64, 54
1, 65856, Control_c, 0, 64, 56
1, 65859, Note_on_c, 0, 56, 44
1, 65870, Control_c, 0, 64, 58
1, 65870, Control_c, 0, 67, 63
1, 65885, Control_c, 0, 64, 59
1, 65900, Control_c, 0, 64, 61
1, 65900, Control_c, 0, 67, 62
1, 65915, Control_c, 0, 64, 62
1, 65915, Control_c, 0, 67, 62
1, 65923, Note_off_c, 0, 56, 59
1, 65936, Control_c, 0, 64, 63
1, 65936, Control_c, 0, 67, 61
1, 65951, Control_c, 0, 64, 64
1, 65951, Control_c, 0, 67, 60
1, 65957, Note_on_c, 0, 61, 44
1, 65966, Control_c, 0, 67, 60
1, 65981, Control_c, 0, 64, 64
1, 65981, Control_c, 0, 67, 59
1, 65996, Control_c, 0, 67, 58
1, 66011, Control_c, 0, 67, 58
1, 66020, Note_off_c, 0, 61, 54
1, 66041, Control_c, 0, 67, 57
1, 66043, Note_on_c, 0, 64, 43
1, 66056, Control_c, 0, 64, 65
1, 66071, Control_c, 0, 67, 56
1, 66086, Control_c, 0, 64, 65
1, 66086, Control_c, 0, 67, 56
1, 66100, Control_c, 0, 64, 66
1, 66100, Control_c, 0, 67, 55
1, 66103, Note_off_c, 0, 64, 39
1, 66115, Control_c, 0, 64, 67
1, 66115, Control_c, 0, 67, 55
1, 66130, Note_on_c, 0, 56, 49
1, 66130, Control_c, 0, 64, 68
1, 66139, Note_on_c, 0, 68, 66
1, 66145, Control_c, 0, 64, 69
1, 66145, Control_c, 0, 67, 54
1, 66160, Control_c, 0, 64, 71
1, 66175, Control_c, 0, 64, 72
1, 66190, Control_c, 0, 64, 73
1, 66198, Note_off_c, 0, 68, 62
1, 66205, Control_c, 0, 64, 74
1, 66210, Note_off_c, 0, 56, 54
1, 66217, Note_off_c, 0, 80, 61
1, 66219, Control_c, 0, 64, 74
1, 66235, Note_on_c, 0, 61, 46
1, 66249, Control_c, 0, 64, 75
1, 66284, Note_off_c, 0, 61, 59
1, 66293, Control_c, 0, 67, 54
1, 66306, Note_on_c, 0, 64, 53
1, 66323, Control_c, 0, 67, 53
1, 66357, Note_off_c, 0, 64, 56
1, 66367, Control_c, 0, 67, 53
1, 66394, Note_on_c, 0, 56, 59
1, 66456, Control_c, 0, 64, 74
1, 66457, Note_off_c, 0, 56, 57
1, 66468, Note_on_c, 0, 61, 60
1, 66471, Control_c, 0, 64, 74
1, 66485, Control_c, 0, 64, 73
1, 66485, Control_c, 0, 67, 52
1, 66515, Control_c, 0, 64, 73
1, 66530, Control_c, 0, 64, 72
1, 66530, Control_c, 0, 67, 53
1, 66539, Note_off_c, 0, 61, 60
1, 66545, Control_c, 0, 64, 72
1, 66559, Control_c, 0, 64, 71
1, 66562, Note_on_c, 0, 64, 54
1, 66574, Control_c, 0, 64, 69
1, 66589, Control_c, 0, 64, 67
1, 66604, Control_c, 0, 64, 64
1, 66612, Note_off_c, 0, 64, 58
1, 66619, Control_c, 0, 64, 60
1, 66634, Control_c, 0, 64, 58
1, 66637, Note_on_c, 0, 56, 58
1, 66649, Control_c, 0, 64, 58
1, 66649, Control_c, 0, 67, 52
1, 66664, Control_c, 0, 64, 59
1, 66679, Control_c, 0, 64, 60
1, 66679, Control_c, 0, 67, 52
1, 66700, Control_c, 0, 64, 61
1, 66700, Control_c, 0, 67, 50
1, 66715, Control_c, 0, 64, 62
1, 66715, Control_c, 0, 67, 45
1, 66730, Control_c, 0, 64, 62
1, 66730, Control_c, 0, 67, 38
1, 66739, Note_off_c, 0, 56, 59
1, 66745, Control_c, 0, 64, 62
1, 66745, Control_c, 0, 67, 32
1, 66747, Note_on_c, 0, 59, 48
1, 66760, Control_c, 0, 67, 25
1, 66774, Control_c, 0, 67, 18
1, 66789, Control_c, 0, 64, 62
1, 66789, Control_c, 0, 67, 12
1, 66796, Note_off_c, 0, 59, 57
1, 66804, Control_c, 0, 67, 8
1, 66810, Note_on_c, 0, 65, 50
1, 66819, Control_c, 0, 64, 63
1, 66819, Control_c, 0, 67, 0
1, 66834, Control_c, 0, 64, 63
1, 66849, Control_c, 0, 64, 64
1, 66862, Note_off_c, 0, 65, 60
1, 66864, Control_c, 0, 64, 64
1, 66883, Note_on_c, 0, 86, 78
1, 66887, Note_on_c, 0, 56, 56
1, 66894, Control_c, 0, 64, 65
1, 66908, Note_off_c, 0, 86, 65
1, 66908, Control_c, 0, 64, 65
1, 66923, Control_c, 0, 64, 66
1, 66953, Control_c, 0, 64, 66
1, 66962, Note_off_c, 0, 56, 59
1, 66995, Note_on_c, 0, 59, 44
1, 67032, Note_on_c, 0, 65, 58
1, 67037, Note_off_c, 0, 59, 55
1, 67057, Control_c, 0, 64, 66
1, 67087, Control_c, 0, 64, 65
1, 67108, Note_off_c, 0, 65, 53
1, 67114, Note_on_c, 0, 86, 94
1, 67119, Note_on_c, 0, 56, 58
1, 67131, Control_c, 0, 64, 66
1, 67157, Note_off_c, 0, 86, 66
1, 67176, Control_c, 0, 64, 66
1, 67200, Note_off_c, 0, 56, 58
1, 67205, Control_c, 0, 64, 67
1, 67220, Control_c, 0, 64, 67
1, 67221, Note_on_c, 0, 59, 49
1, 67234, Control_c, 0, 64, 68
1, 67249, Control_c, 0, 64, 69
1, 67264, Control_c, 0, 64, 69
1, 67279, Control_c, 0, 64, 70
1, 67286, Note_off_c, 0, 59, 51
1, 67287, Note_on_c, 0, 65, 52
1, 67308, Control_c, 0, 64, 70
1, 67338, Control_c, 0, 64, 71
1, 67366, Note_off_c, 0, 65, 54
1, 67368, Note_on_c, 0, 56, 62
1, 67375, Note_on_c, 0, 86, 98
1, 67382, Control_c, 0, 64, 71
1, 67397, Control_c, 0, 64, 72
1, 67418, Note_off_c, 0, 86, 66
1, 67434, Control_c, 0, 64, 72
1, 67456, Note_off_c, 0, 56, 58
1, 67474, Note_on_c, 0, 59, 49
1, 67538, Note_on_c, 0, 65, 57
1, 67553, Control_c, 0, 64, 73
1, 67555, Note_off_c, 0, 59, 49
1, 67634, Note_on_c, 0, 56, 61
1, 67648, Note_off_c, 0, 65, 38
1, 67656, Control_c, 0, 64, 70
1, 67665, Note_on_c, 0, 86, 99
1, 67672, Control_c, 0, 64, 64
1, 67687, Control_c, 0, 64, 49
1, 67702, Control_c, 0, 64, 56
1, 67717, Control_c, 0, 64, 61
1, 67731, Control_c, 0, 64, 64
1, 67746, Control_c, 0, 64, 66
1, 67749, Note_off_c, 0, 56, 58
1, 67761, Control_c, 0, 64, 68
1, 67767, Note_on_c, 0, 59, 51
1, 67776, Control_c, 0, 64, 70
1, 67791, Control_c, 0, 64, 70
1, 67852, Note_on_c, 0, 65, 53
1, 67862, Note_off_c, 0, 59, 56
1, 67865, Control_c, 0, 64, 71
1, 67880, Control_c, 0, 64, 71
1, 67910, Control_c, 0, 64, 72
1, 67924, Note_on_c, 0, 56, 59
1, 67924, Note_off_c, 0, 65, 58
1, 67925, Control_c, 0, 64, 73
1, 67954, Control_c, 0, 64, 73
1, 67969, Control_c, 0, 64, 74
1, 67983, Control_c, 0, 64, 74
1, 67998, Control_c, 0, 64, 75
1, 68005, Note_off_c, 0, 56, 59
1, 68007, Note_on_c, 0, 59, 50
1, 68013, Control_c, 0, 64, 75
1, 68028, Control_c, 0, 64, 76
1, 68057, Control_c, 0, 64, 76
1, 68071, Note_on_c, 0, 65, 59
1, 68131, Control_c, 0, 64, 77
1, 68145, Note_off_c, 0, 59, 35
1, 68156, Note_off_c, 0, 65, 56
1, 68160, Note_on_c, 0, 56, 58
1, 68202, Note_on_c, 0, 77, 86
1, 68213, Control_c, 0, 64, 77
1, 68253, Note_off_c, 0, 86, 63
1, 68260, Note_off_c, 0, 77, 63
1, 68273, Note_off_c, 0, 56, 57
1, 68283, Note_on_c, 0, 59, 48
1, 68287, Control_c, 0, 64, 78
1, 68355, Note_on_c, 0, 65, 56
1, 68368, Note_off_c, 0, 59, 55
1, 68412, Note_off_c, 0, 65, 56
1, 68434, Note_on_c, 0, 56, 54
1, 68506, Note_on_c, 0, 59, 49
1, 68510, Note_off_c, 0, 56, 57
1, 68556, Note_off_c, 0, 59, 48
1, 68570, Note_on_c, 0, 65, 54
1, 68594, Note_off_c, 0, 65, 62
1, 68643, Control_c, 0, 64, 77
1, 68658, Control_c, 0, 64, 76
1, 68673, Control_c, 0, 64, 73
1, 68688, Control_c, 0, 64, 67
1, 68703, Control_c, 0, 64, 52
1, 68718, Control_c, 0, 64, 0
1, 68728, Note_on_c, 0, 61, 58
1, 68733, Note_on_c, 0, 66, 59
1, 68734, Note_on_c, 0, 57, 58
1, 68751, Note_off_c, 0, 66, 64
1, 68758, Note_off_c, 0, 61, 64
1, 68765, Note_off_c, 0, 57, 64
1, 68831, Note_on_c, 0, 85, 51
1, 68920, Note_off_c, 0, 85, 64
1, 68922, Note_on_c, 0, 83, 59
1, 68962, Note_off_c, 0, 83, 61
1, 68998, Note_on_c, 0, 81, 67
1, 69077, Note_off_c, 0, 81, 51
1, 69078, Note_on_c, 0, 80, 67
1, 69141, Note_on_c, 0, 78, 79
1, 69145, Note_off_c, 0, 80, 63
1, 69171, Note_off_c, 0, 78, 61
1, 69243, Note_on_c, 0, 66, 81
1, 69250, Note_on_c, 0, 61, 68
1, 69252, Note_on_c, 0, 57, 68
1, 69266, Note_off_c, 0, 66, 71
1, 69279, Note_off_c, 0, 57, 64
1, 69279, Note_off_c, 0, 61, 65
1, 69345, Note_on_c, 0, 85, 66
1, 69433, Note_on_c, 0, 83, 79
1, 69473, Note_off_c, 0, 85, 65
1, 69505, Note_off_c, 0, 83, 60
1, 69508, Note_on_c, 0, 81, 88
1, 69585, Note_on_c, 0, 80, 88
1, 69609, Note_off_c, 0, 81, 60
1, 69667, Note_on_c, 0, 78, 86
1, 69686, Note_off_c, 0, 80, 64
1, 69725, Note_off_c, 0, 78, 65
1, 69819, Note_on_c, 0, 57, 55
1, 69823, Note_on_c, 0, 61, 57
1, 69964, Note_on_c, 0, 88, 72
1, 70126, Control_c, 0, 64, 38
1, 70127, Note_on_c, 0, 87, 74
1, 70141, Control_c, 0, 64, 48
1, 70156, Control_c, 0, 64, 52
1, 70171, Control_c, 0, 64, 53
1, 70215, Control_c, 0, 64, 54
1, 70230, Control_c, 0, 64, 55
1, 70245, Control_c, 0, 64, 56
1, 70247, Note_on_c, 0, 85, 76
1, 70259, Control_c, 0, 64, 57
1, 70291, Note_off_c, 0, 88, 54
1, 70304, Control_c, 0, 64, 57
1, 70341, Note_on_c, 0, 83, 81
1, 70348, Note_off_c, 0, 87, 61
1, 70390, Note_off_c, 0, 85, 65
1, 70403, Note_off_c, 0, 61, 48
1, 70408, Note_on_c, 0, 81, 88
1, 70409, Note_off_c, 0, 83, 62
1, 70450, Note_off_c, 0, 57, 30
1, 70496, Note_on_c, 0, 80, 83
1, 70532, Note_off_c, 0, 81, 57
1, 70578, Control_c, 0, 64, 57
1, 70608, Control_c, 0, 64, 56
1, 70622, Control_c, 0, 64, 55
1, 70637, Control_c, 0, 64, 54
1, 70652, Control_c, 0, 64, 54
1, 70667, Control_c, 0, 64, 53
1, 70682, Control_c, 0, 64, 53
1, 70697, Control_c, 0, 64, 52
1, 70712, Control_c, 0, 64, 52
1, 70727, Control_c, 0, 64, 50
1, 70741, Control_c, 0, 64, 48
1, 70756, Control_c, 0, 64, 44
1, 70771, Control_c, 0, 64, 36
1, 70785, Control_c, 0, 64, 16
1, 70800, Control_c, 0, 64, 0
1, 70853, Note_on_c, 0, 79, 64
1, 70854, Note_on_c, 0, 57, 34
1, 70864, Note_on_c, 0, 61, 32
1, 70866, Note_off_c, 0, 80, 58
1, 70949, Control_c, 0, 64, 10
1, 70964, Control_c, 0, 64, 52
1, 70979, Control_c, 0, 64, 56
1, 70994, Control_c, 0, 64, 58
1, 71008, Control_c, 0, 64, 61
1, 71024, Control_c, 0, 64, 64
1, 71039, Control_c, 0, 64, 65
1, 71054, Control_c, 0, 64, 67
1, 71064, Note_off_c, 0, 57, 46
1, 71069, Control_c, 0, 64, 68
1, 71083, Control_c, 0, 64, 69
1, 71098, Control_c, 0, 64, 70
1, 71113, Control_c, 0, 64, 71
1, 71128, Note_off_c, 0, 61, 42
1, 71128, Control_c, 0, 64, 72
1, 71157, Control_c, 0, 64, 72
1, 71187, Note_off_c, 0, 79, 34
1, 71402, Control_c, 0, 64, 71
1, 71409, Note_on_c, 0, 56, 32
1, 71412, Note_on_c, 0, 79, 53
1, 71416, Control_c, 0, 64, 67
1, 71421, Note_on_c, 0, 61, 32
1, 71431, Control_c, 0, 64, 59
1, 71446, Control_c, 0, 64, 34
1, 71461, Control_c, 0, 64, 0
1, 71550, Control_c, 0, 64, 30
1, 71564, Control_c, 0, 64, 48
1, 71579, Control_c, 0, 64, 56
1, 71594, Control_c, 0, 64, 61
1, 71609, Control_c, 0, 64, 63
1, 71624, Control_c, 0, 64, 64
1, 71639, Control_c, 0, 64, 65
1, 71654, Control_c, 0, 64, 66
1, 71669, Control_c, 0, 64, 66
1, 71684, Control_c, 0, 64, 67
1, 71699, Control_c, 0, 64, 67
1, 71713, Control_c, 0, 64, 68
1, 71728, Control_c, 0, 64, 68
1, 71815, Note_off_c, 0, 79, 23
1, 72017, Control_c, 0, 64, 68
1, 72061, Control_c, 0, 64, 67
1, 72091, Control_c, 0, 64, 67
1, 72105, Control_c, 0, 64, 66
1, 72120, Control_c, 0, 64, 65
1, 72135, Control_c, 0, 64, 65
1, 72149, Control_c, 0, 64, 64
1, 72164, Control_c, 0, 64, 64
1, 72179, Note_on_c, 0, 60, 23
1, 72179, Control_c, 0, 64, 63
1, 72194, Control_c, 0, 64, 60
1, 72209, Control_c, 0, 64, 56
1, 72211, Note_off_c, 0, 61, 30
1, 72224, Control_c, 0, 64, 51
1, 72227, Note_on_c, 0, 81, 44
1, 72238, Control_c, 0, 64, 47
1, 72253, Control_c, 0, 64, 39
1, 72268, Control_c, 0, 64, 19
1, 72283, Control_c, 0, 64, 0
1, 72308, Note_on_c, 0, 80, 55
1, 72348, Note_off_c, 0, 81, 36
1, 72376, Note_off_c, 0, 80, 60
1, 72390, Note_on_c, 0, 79, 54
1, 72438, Note_off_c, 0, 79, 55
1, 72466, Note_on_c, 0, 80, 45
1, 72676, Control_c, 0, 64, 44
1, 72691, Control_c, 0, 64, 55
1, 72706, Control_c, 0, 64, 60
1, 72721, Control_c, 0, 64, 62
1, 72736, Control_c, 0, 64, 64
1, 72751, Control_c, 0, 64, 65
1, 72766, Control_c, 0, 64, 66
1, 72780, Control_c, 0, 64, 67
1, 72795, Control_c, 0, 64, 68
1, 72810, Control_c, 0, 64, 68
1, 72825, Control_c, 0, 64, 69
1, 72840, Control_c, 0, 64, 70
1, 72854, Control_c, 0, 64, 71
1, 72868, Note_off_c, 0, 60, 29
1, 72869, Control_c, 0, 64, 71
1, 72884, Note_off_c, 0, 80, 34
1, 72884, Control_c, 0, 64, 72
1, 72891, Note_off_c, 0, 56, 25
1, 72899, Control_c, 0, 64, 73
1, 72914, Control_c, 0, 64, 73
1, 72928, Control_c, 0, 64, 74
1, 72943, Control_c, 0, 64, 74
1, 72987, Control_c, 0, 64, 75
1, 73359, Control_c, 0, 64, 74
1, 73403, Control_c, 0, 64, 74
1, 73425, Control_c, 0, 64, 73
1, 73440, Control_c, 0, 64, 72
1, 73455, Control_c, 0, 64, 71
1, 73470, Control_c, 0, 64, 70
1, 73484, Control_c, 0, 64, 67
1, 73499, Control_c, 0, 64, 64
1, 73514, Control_c, 0, 64, 61
1, 73529, Control_c, 0, 64, 59
1, 73559, Control_c, 0, 64, 58
1, 73574, Control_c, 0, 64, 54
1, 73588, Control_c, 0, 64, 42
1, 73603, Control_c, 0, 64, 19
1, 73618, Control_c, 0, 64, 0
1, 73766, Control_c, 0, 64, 40
1, 73781, Control_c, 0, 64, 60
1, 73795, Control_c, 0, 64, 63
1, 73810, Control_c, 0, 64, 64
1, 73825, Note_on_c, 0, 49, 93
1, 73825, Control_c, 0, 64, 65
1, 73827, Note_on_c, 0, 37, 82
1, 73840, Control_c, 0, 64, 67
1, 73855, Control_c, 0, 64, 68
1, 73866, Note_off_c, 0, 49, 62
1, 73869, Note_off_c, 0, 37, 64
1, 73870, Control_c, 0, 64, 69
1, 73884, Control_c, 0, 64, 69
1, 73899, Control_c, 0, 64, 70
1, 73928, Control_c, 0, 64, 70
1, 73943, Note_on_c, 0, 73, 64
1, 73958, Control_c, 0, 64, 71
1, 73973, Control_c, 0, 64, 72
1, 73988, Control_c, 0, 64, 72
1, 74021, Note_on_c, 0, 71, 65
1, 74032, Control_c, 0, 64, 73
1, 74039, Note_off_c, 0, 73, 61
1, 74056, Note_off_c, 0, 71, 57
1, 74094, Note_on_c, 0, 69, 75
1, 74152, Control_c, 0, 64, 72
1, 74167, Control_c, 0, 64, 71
1, 74176, Note_on_c, 0, 68, 76
1, 74179, Note_off_c, 0, 69, 57
1, 74188, Control_c, 0, 64, 69
1, 74203, Control_c, 0, 64, 67
1, 74218, Control_c, 0, 64, 64
1, 74232, Control_c, 0, 64, 62
1, 74246, Note_on_c, 0, 66, 78
1, 74247, Control_c, 0, 64, 61
1, 74261, Note_off_c, 0, 68, 63
1, 74277, Control_c, 0, 64, 61
1, 74292, Control_c, 0, 64, 58
1, 74300, Note_off_c, 0, 66, 65
1, 74307, Control_c, 0, 64, 53
1, 74319, Note_on_c, 0, 64, 69
1, 74322, Control_c, 0, 64, 47
1, 74337, Control_c, 0, 64, 46
1, 74366, Control_c, 0, 64, 44
1, 74374, Note_off_c, 0, 64, 59
1, 74381, Note_on_c, 0, 63, 66
1, 74381, Control_c, 0, 64, 38
1, 74396, Control_c, 0, 64, 32
1, 74411, Control_c, 0, 64, 24
1, 74425, Control_c, 0, 64, 0
1, 74459, Note_on_c, 0, 61, 64
1, 74461, Note_off_c, 0, 63, 60
1, 74493, Note_off_c, 0, 61, 65
1, 74514, Note_on_c, 0, 54, 68
1, 74519, Note_on_c, 0, 60, 65
1, 74542, Note_off_c, 0, 54, 65
1, 74599, Note_on_c, 0, 63, 55
1, 74602, Note_off_c, 0, 60, 56
1, 74668, Note_on_c, 0, 68, 63
1, 74668, Note_off_c, 0, 63, 62
1, 74742, Note_on_c, 0, 52, 55
1, 74746, Note_on_c, 0, 61, 60
1, 74766, Note_off_c, 0, 52, 62
1, 74766, Note_off_c, 0, 68, 56
1, 74805, Note_off_c, 0, 61, 60
1, 74825, Note_on_c, 0, 64, 56
1, 74879, Note_off_c, 0, 64, 62
1, 74899, Note_on_c, 0, 68, 66
1, 74981, Note_off_c, 0, 68, 61
1, 74984, Note_on_c, 0, 48, 60
1, 75000, Note_on_c, 0, 63, 59
1, 75013, Note_off_c, 0, 48, 66
1, 75048, Note_off_c, 0, 63, 60
1, 75067, Note_on_c, 0, 66, 63
1, 75151, Note_on_c, 0, 68, 69
1, 75156, Note_off_c, 0, 66, 61
1, 75201, Note_off_c, 0, 68, 60
1, 75218, Note_on_c, 0, 49, 62
1, 75240, Note_on_c, 0, 64, 69
1, 75249, Note_off_c, 0, 49, 63
1, 75305, Note_on_c, 0, 66, 68
1, 75342, Note_off_c, 0, 64, 55
1, 75382, Note_off_c, 0, 66, 63
1, 75395, Note_on_c, 0, 68, 69
1, 75444, Note_off_c, 0, 68, 59
1, 75466, Note_on_c, 0, 51, 60
1, 75475, Note_on_c, 0, 66, 76
1, 75494, Note_off_c, 0, 51, 63
1, 75554, Note_on_c, 0, 68, 69
1, 75561, Note_off_c, 0, 66, 57
1, 75623, Note_off_c, 0, 68, 63
1, 75627, Note_on_c, 0, 69, 63
1, 75684, Note_off_c, 0, 69, 63
1, 75726, Note_on_c, 0, 52, 55
1, 75747, Note_on_c, 0, 68, 63
1, 75820, Note_off_c, 0, 68, 63
1, 75827, Note_on_c, 0, 73, 58
1, 75910, Note_on_c, 0, 71, 63
1, 75911, Note_off_c, 0, 73, 61
1, 75959, Note_off_c, 0, 71, 61
1, 75982, Note_on_c, 0, 69, 71
1, 76057, Note_on_c, 0, 68, 77
1, 76061, Note_off_c, 0, 69, 64
1, 76135, Note_on_c, 0, 66, 83
1, 76167, Note_off_c, 0, 68, 64
1, 76194, Note_off_c, 0, 66, 67
1, 76207, Note_on_c, 0, 64, 77
1, 76273, Note_on_c, 0, 63, 77
1, 76280, Note_off_c, 0, 64, 64
1, 76351, Note_on_c, 0, 61, 72
1, 76352, Note_off_c, 0, 52, 34
1, 76373, Note_off_c, 0, 63, 61
1, 76400, Note_off_c, 0, 61, 63
1, 76419, Note_on_c, 0, 54, 60
1, 76427, Note_on_c, 0, 60, 69
1, 76450, Note_off_c, 0, 54, 64
1, 76503, Note_on_c, 0, 63, 65
1, 76505, Note_off_c, 0, 60, 56
1, 76569, Note_off_c, 0, 63, 61
1, 76587, Note_on_c, 0, 68, 58
1, 76656, Note_on_c, 0, 52, 55
1, 76659, Note_on_c, 0, 61, 63
1, 76680, Note_off_c, 0, 52, 61
1, 76683, Note_off_c, 0, 68, 50
1, 76723, Note_off_c, 0, 61, 62
1, 76738, Note_on_c, 0, 64, 60
1, 76794, Note_off_c, 0, 64, 61
1, 76832, Note_on_c, 0, 68, 60
1, 76895, Note_off_c, 0, 68, 58
1, 76900, Note_on_c, 0, 48, 48
1, 76914, Note_on_c, 0, 63, 67
1, 76930, Note_off_c, 0, 48, 63
1, 76976, Note_off_c, 0, 63, 62
1, 76997, Note_on_c, 0, 66, 63
1, 77065, Note_on_c, 0, 68, 65
1, 77074, Note_off_c, 0, 66, 59
1, 77124, Note_off_c, 0, 68, 62
1, 77147, Note_on_c, 0, 49, 57
1, 77159, Note_on_c, 0, 64, 68
1, 77192, Note_off_c, 0, 49, 61
1, 77235, Note_on_c, 0, 66, 67
1, 77261, Note_off_c, 0, 64, 57
1, 77310, Note_off_c, 0, 66, 62
1, 77324, Note_on_c, 0, 68, 65
1, 77380, Note_off_c, 0, 68, 55
1, 77402, Note_on_c, 0, 51, 58
1, 77413, Note_on_c, 0, 66, 70
1, 77433, Note_off_c, 0, 51, 63
1, 77497, Note_on_c, 0, 68, 60
1, 77511, Note_off_c, 0, 66, 53
1, 77575, Note_on_c, 0, 69, 56
1, 77579, Note_off_c, 0, 68, 60
1, 77625, Note_off_c, 0, 69, 63
1, 77682, Note_on_c, 0, 52, 55
1, 77683, Note_on_c, 0, 68, 63
1, 77763, Note_off_c, 0, 68, 61
1, 77767, Note_on_c, 0, 73, 55
1, 77838, Note_off_c, 0, 73, 62
1, 77857, Note_on_c, 0, 71, 58
1, 77896, Note_off_c, 0, 71, 62
1, 77940, Note_on_c, 0, 69, 68
1, 78011, Note_on_c, 0, 68, 69
1, 78012, Note_off_c, 0, 69, 62
1, 78088, Note_on_c, 0, 66, 73
1, 78106, Note_off_c, 0, 68, 63
1, 78143, Note_off_c, 0, 66, 65
1, 78164, Note_on_c, 0, 64, 66
1, 78228, Note_on_c, 0, 63, 66
1, 78228, Note_off_c, 0, 64, 61
1, 78307, Note_on_c, 0, 61, 68
1, 78322, Note_off_c, 0, 63, 60
1, 78328, Note_off_c, 0, 52, 48
1, 78361, Note_off_c, 0, 61, 62
1, 78370, Note_on_c, 0, 54, 68
1, 78385, Note_on_c, 0, 60, 66
1, 78403, Note_off_c, 0, 54, 59
1, 78444, Note_off_c, 0, 60, 49
1, 78463, Note_on_c, 0, 63, 62
1, 78522, Note_off_c, 0, 63, 58
1, 78543, Note_on_c, 0, 68, 64
1, 78614, Note_on_c, 0, 52, 81
1, 78629, Note_on_c, 0, 61, 63
1, 78651, Note_off_c, 0, 68, 50
1, 78708, Note_off_c, 0, 61, 60
1, 78710, Control_c, 0, 64, 28
1, 78722, Note_on_c, 0, 64, 59
1, 78725, Control_c, 0, 64, 39
1, 78739, Control_c, 0, 64, 44
1, 78754, Control_c, 0, 64, 47
1, 78769, Control_c, 0, 64, 49
1, 78784, Control_c, 0, 64, 51
1, 78799, Control_c, 0, 64, 53
1, 78800, Note_off_c, 0, 64, 59
1, 78805, Note_on_c, 0, 68, 64
1, 78814, Control_c, 0, 64, 54
1, 78829, Control_c, 0, 64, 56
1, 78844, Control_c, 0, 64, 56
1, 78874, Control_c, 0, 64, 57
1, 78879, Note_off_c, 0, 68, 60
1, 78884, Note_on_c, 0, 61, 65
1, 78903, Control_c, 0, 64, 57
1, 78918, Control_c, 0, 64, 58
1, 78933, Control_c, 0, 64, 59
1, 78948, Control_c, 0, 64, 59
1, 78953, Note_off_c, 0, 61, 62
1, 78963, Control_c, 0, 64, 60
1, 78978, Control_c, 0, 64, 61
1, 78980, Note_on_c, 0, 64, 54
1, 79008, Control_c, 0, 64, 61
1, 79052, Note_on_c, 0, 68, 65
1, 79054, Note_off_c, 0, 64, 59
1, 79111, Control_c, 0, 64, 59
1, 79126, Control_c, 0, 64, 54
1, 79140, Control_c, 0, 64, 41
1, 79148, Note_on_c, 0, 40, 65
1, 79151, Note_on_c, 0, 59, 68
1, 79155, Control_c, 0, 64, 0
1, 79170, Note_off_c, 0, 68, 54
1, 79200, Control_c, 0, 64, 25
1, 79214, Control_c, 0, 64, 39
1, 79225, Note_on_c, 0, 62, 66
1, 79229, Control_c, 0, 64, 49
1, 79230, Note_off_c, 0, 59, 60
1, 79244, Control_c, 0, 64, 54
1, 79259, Control_c, 0, 64, 57
1, 79274, Control_c, 0, 64, 59
1, 79288, Control_c, 0, 64, 60
1, 79303, Control_c, 0, 64, 61
1, 79313, Note_off_c, 0, 62, 60
1, 79316, Note_on_c, 0, 68, 61
1, 79318, Control_c, 0, 64, 61
1, 79333, Control_c, 0, 64, 62
1, 79348, Control_c, 0, 64, 62
1, 79377, Control_c, 0, 64, 63
1, 79392, Note_on_c, 0, 59, 73
1, 79392, Control_c, 0, 64, 63
1, 79427, Note_off_c, 0, 68, 55
1, 79429, Control_c, 0, 64, 64
1, 79459, Control_c, 0, 64, 64
1, 79472, Note_on_c, 0, 62, 70
1, 79485, Note_off_c, 0, 59, 60
1, 79489, Control_c, 0, 64, 65
1, 79559, Note_on_c, 0, 68, 70
1, 79562, Note_off_c, 0, 62, 60
1, 79649, Note_on_c, 0, 61, 86
1, 79682, Control_c, 0, 64, 65
1, 79712, Note_off_c, 0, 68, 57
1, 79730, Note_on_c, 0, 64, 73
1, 79740, Note_off_c, 0, 61, 60
1, 79741, Control_c, 0, 64, 66
1, 79821, Note_on_c, 0, 69, 78
1, 79839, Note_off_c, 0, 64, 58
1, 79878, Note_off_c, 0, 40, 30
1, 79894, Note_on_c, 0, 61, 85
1, 79919, Control_c, 0, 64, 66
1, 79941, Note_off_c, 0, 69, 61
1, 79963, Control_c, 0, 64, 67
1, 79966, Note_off_c, 0, 61, 63
1, 79976, Note_on_c, 0, 64, 70
1, 79993, Control_c, 0, 64, 67
1, 80048, Note_on_c, 0, 69, 77
1, 80053, Note_off_c, 0, 64, 64
1, 80105, Note_off_c, 0, 69, 64
1, 80111, Control_c, 0, 64, 65
1, 80126, Control_c, 0, 64, 59
1, 80141, Control_c, 0, 64, 0
1, 80145, Note_on_c, 0, 64, 89
1, 80147, Note_on_c, 0, 44, 77
1, 80237, Control_c, 0, 64, 48
1, 80242, Note_on_c, 0, 71, 72
1, 80252, Control_c, 0, 64, 59
1, 80264, Note_off_c, 0, 64, 58
1, 80267, Control_c, 0, 64, 62
1, 80282, Control_c, 0, 64, 63
1, 80296, Control_c, 0, 64, 64
1, 80311, Control_c, 0, 64, 65
1, 80326, Control_c, 0, 64, 65
1, 80334, Note_on_c, 0, 74, 77
1, 80341, Control_c, 0, 64, 66
1, 80351, Note_off_c, 0, 71, 55
1, 80356, Control_c, 0, 64, 67
1, 80370, Control_c, 0, 64, 67
1, 80385, Control_c, 0, 64, 68
1, 80404, Note_on_c, 0, 64, 85
1, 80415, Control_c, 0, 64, 68
1, 80427, Note_off_c, 0, 74, 64
1, 80446, Control_c, 0, 64, 69
1, 80460, Control_c, 0, 64, 69
1, 80489, Note_on_c, 0, 71, 74
1, 80490, Control_c, 0, 64, 70
1, 80505, Control_c, 0, 64, 70
1, 80532, Note_off_c, 0, 64, 62
1, 80549, Control_c, 0, 64, 71
1, 80569, Note_on_c, 0, 74, 79
1, 80575, Note_off_c, 0, 71, 62
1, 80608, Control_c, 0, 64, 70
1, 80623, Control_c, 0, 64, 68
1, 80629, Note_off_c, 0, 74, 64
1, 80631, Note_off_c, 0, 44, 63
1, 80638, Control_c, 0, 64, 59
1, 80653, Control_c, 0, 64, 0
1, 80656, Note_on_c, 0, 45, 80
1, 80664, Note_on_c, 0, 64, 88
1, 80742, Control_c, 0, 64, 49
1, 80750, Note_on_c, 0, 69, 74
1, 80758, Control_c, 0, 64, 58
1, 80772, Control_c, 0, 64, 61
1, 80783, Note_off_c, 0, 64, 63
1, 80787, Control_c, 0, 64, 63
1, 80802, Control_c, 0, 64, 64
1, 80817, Control_c, 0, 64, 64
1, 80832, Control_c, 0, 64, 65
1, 80847, Note_on_c, 0, 73, 84
1, 80847, Control_c, 0, 64, 65
1, 80861, Control_c, 0, 64, 66
1, 80886, Note_off_c, 0, 69, 57
1, 80891, Control_c, 0, 64, 66
1, 80906, Control_c, 0, 64, 67
1, 80927, Control_c, 0, 64, 67
1, 80931, Note_on_c, 0, 64, 80
1, 80942, Control_c, 0, 64, 68
1, 80955, Note_off_c, 0, 73, 58
1, 80972, Control_c, 0, 64, 68
1, 81011, Note_on_c, 0, 69, 73
1, 81032, Control_c, 0, 64, 69
1, 81045, Note_off_c, 0, 64, 62
1, 81061, Control_c, 0, 64, 69
1, 81099, Note_on_c, 0, 73, 69
1, 81133, Note_off_c, 0, 69, 59
1, 81135, Control_c, 0, 64, 68
1, 81150, Control_c, 0, 64, 63
1, 81165, Control_c, 0, 64, 0
1, 81181, Note_on_c, 0, 49, 91
1, 81193, Note_on_c, 0, 61, 78
1, 81199, Note_on_c, 0, 41, 45
1, 81212, Note_off_c, 0, 73, 50
1, 81237, Note_off_c, 0, 41, 51
1, 81270, Control_c, 0, 64, 49
1, 81284, Control_c, 0, 64, 55
1, 81286, Note_off_c, 0, 52, 39
1, 81289, Note_on_c, 0, 68, 60
1, 81299, Control_c, 0, 64, 57
1, 81314, Control_c, 0, 64, 59
1, 81322, Note_off_c, 0, 61, 57
1, 81329, Control_c, 0, 64, 61
1, 81343, Control_c, 0, 64, 62
1, 81358, Control_c, 0, 64, 62
1, 81373, Control_c, 0, 64, 63
1, 81381, Note_on_c, 0, 71, 67
1, 81388, Control_c, 0, 64, 63
1, 81390, Note_off_c, 0, 68, 60
1, 81417, Control_c, 0, 64, 64
1, 81432, Control_c, 0, 64, 64
1, 81458, Note_on_c, 0, 61, 65
1, 81462, Control_c, 0, 64, 65
1, 81478, Note_off_c, 0, 71, 60
1, 81521, Note_on_c, 0, 68, 55
1, 81536, Control_c, 0, 64, 65
1, 81561, Note_off_c, 0, 61, 59
1, 81580, Control_c, 0, 64, 66
1, 81607, Note_on_c, 0, 71, 58
1, 81610, Control_c, 0, 64, 65
1, 81640, Control_c, 0, 64, 64
1, 81651, Note_off_c, 0, 68, 34
1, 81655, Control_c, 0, 64, 59
1, 81677, Control_c, 0, 64, 0
1, 81722, Note_on_c, 0, 61, 73
1, 81723, Note_on_c, 0, 54, 87
1, 81732, Note_on_c, 0, 42, 74
1, 81744, Note_off_c, 0, 49, 53
1, 81768, Note_off_c, 0, 71, 54
1, 81819, Note_on_c, 0, 66, 67
1, 81825, Control_c, 0, 64, 10
1, 81840, Control_c, 0, 64, 40
1, 81843, Note_off_c, 0, 61, 59
1, 81855, Control_c, 0, 64, 46
1, 81869, Control_c, 0, 64, 50
1, 81884, Control_c, 0, 64, 53
1, 81899, Control_c, 0, 64, 55
1, 81905, Note_on_c, 0, 70, 75
1, 81914, Control_c, 0, 64, 56
1, 81920, Note_off_c, 0, 66, 61
1, 81929, Control_c, 0, 64, 58
1, 81943, Control_c, 0, 64, 59
1, 81958, Control_c, 0, 64, 60
1, 81973, Control_c, 0, 64, 60
1, 81987, Note_on_c, 0, 61, 75
1, 81988, Control_c, 0, 64, 61
1, 82003, Control_c, 0, 64, 61
1, 82017, Control_c, 0, 64, 62
1, 82033, Control_c, 0, 64, 62
1, 82048, Control_c, 0, 64, 63
1, 82052, Note_off_c, 0, 70, 60
1, 82063, Note_on_c, 0, 67, 76
1, 82075, Note_off_c, 0, 54, 53
1, 82078, Control_c, 0, 64, 63
1, 82081, Note_off_c, 0, 61, 60
1, 82087, Note_off_c, 0, 42, 56
1, 82102, Note_off_c, 0, 45, 44
1, 82142, Note_on_c, 0, 70, 82
1, 82152, Note_off_c, 0, 67, 61
1, 82181, Control_c, 0, 64, 64
1, 82214, Note_on_c, 0, 61, 82
1, 82240, Control_c, 0, 64, 64
1, 82269, Control_c, 0, 64, 64
1, 82274, Note_off_c, 0, 70, 56
1, 82287, Note_on_c, 0, 66, 80
1, 82319, Note_off_c, 0, 61, 61
1, 82373, Note_on_c, 0, 70, 82
1, 82388, Note_off_c, 0, 66, 62
1, 82451, Note_on_c, 0, 61, 79
1, 82493, Note_off_c, 0, 70, 55
1, 82529, Note_on_c, 0, 64, 68
1, 82545, Note_off_c, 0, 61, 61
1, 82605, Note_on_c, 0, 70, 67
1, 82618, Control_c, 0, 64, 63
1, 82633, Control_c, 0, 64, 57
1, 82636, Note_off_c, 0, 64, 61
1, 82647, Control_c, 0, 64, 13
1, 82662, Control_c, 0, 64, 0
1, 82671, Note_off_c, 0, 70, 62
1, 82697, Note_on_c, 0, 47, 87
1, 82697, Note_on_c, 0, 59, 78
1, 82706, Note_on_c, 0, 35, 75
1, 82796, Note_on_c, 0, 63, 64
1, 82820, Note_off_c, 0, 59, 58
1, 82892, Note_on_c, 0, 69, 62
1, 82902, Note_off_c, 0, 63, 60
1, 82972, Note_on_c, 0, 60, 80
1, 83010, Note_off_c, 0, 69, 56
1, 83062, Note_on_c, 0, 63, 64
1, 83074, Note_off_c, 0, 60, 58
1, 83122, Control_c, 0, 64, 25
1, 83133, Note_on_c, 0, 69, 69
1, 83136, Control_c, 0, 64, 34
1, 83159, Control_c, 0, 64, 40
1, 83164, Note_off_c, 0, 63, 59
1, 83174, Control_c, 0, 64, 44
1, 83188, Control_c, 0, 64, 47
1, 83203, Control_c, 0, 64, 48
1, 83218, Control_c, 0, 64, 49
1, 83231, Note_on_c, 0, 59, 78
1, 83233, Control_c, 0, 64, 50
1, 83259, Note_off_c, 0, 69, 57
1, 83262, Control_c, 0, 64, 51
1, 83318, Note_on_c, 0, 63, 69
1, 83342, Note_off_c, 0, 59, 60
1, 83389, Note_on_c, 0, 69, 68
1, 83411, Control_c, 0, 64, 50
1, 83417, Note_off_c, 0, 63, 65
1, 83425, Control_c, 0, 64, 47
1, 83430, Note_off_c, 0, 47, 54
1, 83440, Control_c, 0, 64, 41
1, 83446, Note_off_c, 0, 35, 40
1, 83455, Control_c, 0, 64, 24
1, 83470, Control_c, 0, 64, 0
1, 83475, Note_on_c, 0, 57, 74
1, 83495, Note_off_c, 0, 69, 33
1, 83554, Note_on_c, 0, 63, 63
1, 83564, Note_off_c, 0, 57, 59
1, 83640, Note_on_c, 0, 69, 45
1, 83676, Note_off_c, 0, 63, 58
1, 83722, Note_on_c, 0, 59, 67
1, 83724, Note_on_c, 0, 52, 88
1, 83730, Note_on_c, 0, 40, 75
1, 83744, Note_off_c, 0, 52, 74
1, 83752, Note_off_c, 0, 40, 64
1, 83762, Note_off_c, 0, 69, 27
1, 83801, Note_on_c, 0, 64, 64
1, 83819, Note_off_c, 0, 59, 55
1, 83913, Note_on_c, 0, 68, 63
1, 83914, Note_off_c, 0, 64, 61
1, 83989, Note_on_c, 0, 53, 94
1, 83993, Note_on_c, 0, 59, 73
1, 83995, Note_on_c, 0, 41, 86
1, 84013, Note_off_c, 0, 53, 67
1, 84022, Note_off_c, 0, 41, 69
1, 84039, Note_off_c, 0, 68, 57
1, 84077, Note_on_c, 0, 64, 67
1, 84096, Note_off_c, 0, 59, 59
1, 84162, Note_on_c, 0, 68, 69
1, 84189, Note_off_c, 0, 64, 54
1, 84246, Note_on_c, 0, 52, 95
1, 84248, Note_on_c, 0, 59, 75
1, 84250, Note_on_c, 0, 40, 89
1, 84266, Note_off_c, 0, 52, 73
1, 84277, Note_off_c, 0, 40, 65
1, 84294, Note_off_c, 0, 68, 62
1, 84341, Note_on_c, 0, 64, 65
1, 84367, Note_off_c, 0, 59, 58
1, 84426, Note_on_c, 0, 68, 69
1, 84449, Note_off_c, 0, 64, 58
1, 84510, Note_on_c, 0, 50, 92
1, 84511, Note_on_c, 0, 38, 88
1, 84514, Note_on_c, 0, 59, 70
1, 84531, Note_off_c, 0, 50, 72
1, 84541, Note_off_c, 0, 38, 66
1, 84555, Note_off_c, 0, 68, 61
1, 84561, Control_c, 0, 64, 10
1, 84576, Control_c, 0, 64, 26
1, 84591, Note_on_c, 0, 64, 64
1, 84591, Control_c, 0, 64, 34
1, 84606, Control_c, 0, 64, 40
1, 84621, Control_c, 0, 64, 43
1, 84625, Note_off_c, 0, 59, 60
1, 84636, Control_c, 0, 64, 45
1, 84651, Control_c, 0, 64, 46
1, 84681, Note_on_c, 0, 68, 64
1, 84699, Note_off_c, 0, 64, 55
1, 84703, Control_c, 0, 64, 42
1, 84717, Control_c, 0, 64, 19
1, 84732, Control_c, 0, 64, 0
1, 84788, Note_on_c, 0, 49, 90
1, 84792, Note_on_c, 0, 37, 81
1, 84792, Note_on_c, 0, 57, 75
1, 84813, Note_off_c, 0, 68, 51
1, 84850, Control_c, 0, 64, 25
1, 84865, Control_c, 0, 64, 48
1, 84874, Note_off_c, 0, 49, 63
1, 84878, Note_off_c, 0, 37, 65
1, 84880, Control_c, 0, 64, 55
1, 84895, Control_c, 0, 64, 59
1, 84898, Note_on_c, 0, 64, 63
1, 84910, Control_c, 0, 64, 62
1, 84915, Note_off_c, 0, 57, 55
1, 84925, Control_c, 0, 64, 63
1, 84940, Control_c, 0, 64, 64
1, 84954, Control_c, 0, 64, 65
1, 84969, Control_c, 0, 64, 66
1, 84973, Note_on_c, 0, 69, 66
1, 84984, Control_c, 0, 64, 66
1, 84990, Note_off_c, 0, 64, 63
1, 84999, Control_c, 0, 64, 67
1, 85014, Control_c, 0, 64, 67
1, 85041, Note_on_c, 0, 57, 79
1, 85043, Control_c, 0, 64, 68
1, 85073, Control_c, 0, 64, 68
1, 85080, Note_off_c, 0, 69, 64
1, 85087, Control_c, 0, 64, 69
1, 85102, Control_c, 0, 64, 69
1, 85117, Control_c, 0, 64, 70
1, 85124, Note_on_c, 0, 64, 72
1, 85132, Control_c, 0, 64, 70
1, 85142, Note_off_c, 0, 57, 60
1, 85161, Control_c, 0, 64, 71
1, 85176, Control_c, 0, 64, 71
1, 85191, Control_c, 0, 64, 72
1, 85196, Note_on_c, 0, 69, 78
1, 85206, Control_c, 0, 64, 72
1, 85221, Control_c, 0, 64, 73
1, 85242, Note_off_c, 0, 64, 59
1, 85266, Control_c, 0, 64, 72
1, 85281, Control_c, 0, 64, 67
1, 85296, Control_c, 0, 64, 58
1, 85301, Note_on_c, 0, 61, 91
1, 85307, Note_on_c, 0, 54, 84
1, 85311, Note_on_c, 0, 42, 79
1, 85311, Control_c, 0, 64, 0
1, 85339, Note_off_c, 0, 69, 54
1, 85370, Control_c, 0, 64, 38
1, 85384, Control_c, 0, 64, 57
1, 85395, Note_off_c, 0, 54, 63
1, 85399, Control_c, 0, 64, 62
1, 85418, Note_on_c, 0, 64, 64
1, 85422, Control_c, 0, 64, 64
1, 85424, Note_off_c, 0, 42, 63
1, 85437, Control_c, 0, 64, 64
1, 85452, Control_c, 0, 64, 65
1, 85460, Note_off_c, 0, 61, 61
1, 85466, Control_c, 0, 64, 66
1, 85481, Control_c, 0, 64, 67
1, 85510, Control_c, 0, 64, 67
1, 85514, Note_on_c, 0, 70, 72
1, 85520, Note_off_c, 0, 64, 63
1, 85581, Note_on_c, 0, 61, 72
1, 85639, Note_off_c, 0, 70, 56
1, 85669, Note_on_c, 0, 64, 58
1, 85675, Note_off_c, 0, 61, 59
1, 85703, Control_c, 0, 64, 67
1, 85718, Control_c, 0, 64, 66
1, 85733, Control_c, 0, 64, 65
1, 85748, Control_c, 0, 64, 61
1, 85762, Note_on_c, 0, 70, 55
1, 85762, Control_c, 0, 64, 41
1, 85768, Note_off_c, 0, 64, 59
1, 85777, Control_c, 0, 64, 0
1, 85846, Note_on_c, 0, 47, 48
1, 85848, Note_on_c, 0, 35, 56
1, 85864, Note_on_c, 0, 59, 51
1, 85879, Note_off_c, 0, 70, 56
1, 85896, Note_off_c, 0, 47, 65
1, 85896, Control_c, 0, 64, 38
1, 85898, Note_off_c, 0, 35, 64
1, 85910, Control_c, 0, 64, 44
1, 85925, Control_c, 0, 64, 45
1, 85935, Note_on_c, 0, 63, 60
1, 85940, Control_c, 0, 64, 46
1, 85955, Control_c, 0, 64, 46
1, 85970, Control_c, 0, 64, 47
1, 85980, Note_off_c, 0, 59, 38
1, 85984, Control_c, 0, 64, 48
1, 85999, Control_c, 0, 64, 50
1, 86014, Control_c, 0, 64, 51
1, 86030, Control_c, 0, 64, 52
1, 86031, Note_on_c, 0, 66, 55
1, 86034, Note_off_c, 0, 63, 61
1, 86045, Control_c, 0, 64, 54
1, 86060, Control_c, 0, 64, 55
1, 86074, Control_c, 0, 64, 56
1, 86089, Control_c, 0, 64, 57
1, 86092, Note_off_c, 0, 66, 66
1, 86102, Note_on_c, 0, 71, 63
1, 86104, Control_c, 0, 64, 57
1, 86133, Control_c, 0, 64, 57
1, 86148, Control_c, 0, 64, 56
1, 86171, Control_c, 0, 64, 55
1, 86186, Control_c, 0, 64, 53
1, 86187, Note_on_c, 0, 66, 61
1, 86201, Control_c, 0, 64, 50
1, 86215, Control_c, 0, 64, 46
1, 86230, Control_c, 0, 64, 39
1, 86245, Control_c, 0, 64, 22
1, 86246, Note_off_c, 0, 71, 31
1, 86251, Note_on_c, 0, 63, 73
1, 86260, Control_c, 0, 64, 0
1, 86281, Note_off_c, 0, 66, 64
1, 86311, Note_off_c, 0, 63, 65
1, 86329, Note_on_c, 0, 59, 69
1, 86405, Note_off_c, 0, 59, 61
1, 86406, Note_on_c, 0, 63, 64
1, 86477, Note_on_c, 0, 66, 66
1, 86489, Note_off_c, 0, 63, 63
1, 86519, Note_on_c, 0, 54, 69
1, 86525, Note_on_c, 0, 42, 62
1, 86530, Note_on_c, 0, 61, 84
1, 86545, Note_off_c, 0, 54, 65
1, 86557, Note_off_c, 0, 42, 65
1, 86557, Note_off_c, 0, 66, 63
1, 86620, Note_on_c, 0, 64, 68
1, 86643, Note_off_c, 0, 61, 61
1, 86696, Note_off_c, 0, 64, 61
1, 86700, Note_on_c, 0, 70, 56
1, 86791, Control_c, 0, 64, 51
1, 86794, Note_off_c, 0, 70, 61
1, 86797, Note_on_c, 0, 47, 68
1, 86801, Note_on_c, 0, 35, 64
1, 86806, Control_c, 0, 64, 62
1, 86818, Note_on_c, 0, 59, 67
1, 86820, Note_off_c, 0, 47, 67
1, 86821, Control_c, 0, 64, 64
1, 86831, Note_off_c, 0, 35, 63
1, 86836, Control_c, 0, 64, 66
1, 86851, Control_c, 0, 64, 68
1, 86866, Control_c, 0, 64, 70
1, 86881, Control_c, 0, 64, 72
1, 86904, Note_on_c, 0, 63, 61
1, 86925, Note_off_c, 0, 59, 55
1, 86977, Control_c, 0, 64, 72
1, 86989, Note_on_c, 0, 66, 63
1, 87008, Note_off_c, 0, 63, 56
1, 87060, Note_off_c, 0, 66, 66
1, 87065, Note_on_c, 0, 71, 62
1, 87066, Control_c, 0, 64, 72
1, 87081, Control_c, 0, 64, 71
1, 87096, Control_c, 0, 64, 70
1, 87110, Control_c, 0, 64, 66
1, 87125, Control_c, 0, 64, 61
1, 87140, Control_c, 0, 64, 49
1, 87150, Note_on_c, 0, 66, 64
1, 87155, Control_c, 0, 64, 42
1, 87165, Note_off_c, 0, 71, 50
1, 87169, Control_c, 0, 64, 38
1, 87184, Control_c, 0, 64, 36
1, 87220, Note_on_c, 0, 63, 68
1, 87229, Control_c, 0, 64, 34
1, 87244, Control_c, 0, 64, 29
1, 87250, Note_off_c, 0, 66, 65
1, 87259, Control_c, 0, 64, 21
1, 87271, Note_off_c, 0, 63, 64
1, 87274, Control_c, 0, 64, 0
1, 87287, Note_on_c, 0, 59, 71
1, 87357, Note_on_c, 0, 63, 71
1, 87363, Note_off_c, 0, 59, 55
1, 87441, Note_on_c, 0, 66, 70
1, 87446, Note_off_c, 0, 63, 62
1, 87503, Note_on_c, 0, 54, 59
1, 87505, Note_on_c, 0, 42, 63
1, 87510, Note_on_c, 0, 61, 78
1, 87525, Note_off_c, 0, 54, 58
1, 87533, Note_off_c, 0, 66, 63
1, 87536, Note_off_c, 0, 42, 65
1, 87599, Note_off_c, 0, 61, 57
1, 87600, Note_on_c, 0, 64, 53
1, 87686, Note_off_c, 0, 64, 64
1, 87697, Note_on_c, 0, 70, 63
1, 87797, Note_on_c, 0, 59, 58
1, 87801, Note_off_c, 0, 70, 56
1, 87813, Note_on_c, 0, 35, 46
1, 87817, Note_on_c, 0, 47, 37
1, 87831, Control_c, 0, 67, 10
1, 87846, Control_c, 0, 67, 14
1, 87860, Control_c, 0, 64, 18
1, 87860, Control_c, 0, 67, 20
1, 87875, Control_c, 0, 64, 34
1, 87875, Control_c, 0, 67, 28
1, 87890, Control_c, 0, 64, 43
1, 87890, Control_c, 0, 67, 38
1, 87897, Note_on_c, 0, 63, 54
1, 87904, Control_c, 0, 64, 49
1, 87904, Control_c, 0, 67, 51
1, 87913, Note_off_c, 0, 59, 50
1, 87919, Control_c, 0, 64, 53
1, 87919, Control_c, 0, 67, 63
1, 87934, Control_c, 0, 64, 56
1, 87934, Control_c, 0, 67, 73
1, 87949, Control_c, 0, 64, 58
1, 87949, Control_c, 0, 67, 80
1, 87964, Control_c, 0, 64, 59
1, 87964, Control_c, 0, 67, 85
1, 87978, Control_c, 0, 64, 60
1, 87978, Control_c, 0, 67, 89
1, 87983, Note_off_c, 0, 63, 62
1, 87986, Note_on_c, 0, 66, 58
1, 87993, Control_c, 0, 64, 61
1, 87993, Control_c, 0, 67, 91
1, 88008, Control_c, 0, 64, 61
1, 88008, Control_c, 0, 67, 93
1, 88023, Control_c, 0, 67, 93
1, 88038, Control_c, 0, 67, 94
1, 88046, Note_off_c, 0, 47, 45
1, 88048, Note_off_c, 0, 66, 64
1, 88052, Control_c, 0, 67, 95
1, 88061, Note_on_c, 0, 71, 69
1, 88067, Control_c, 0, 67, 100
1, 88082, Control_c, 0, 64, 61
1, 88082, Control_c, 0, 67, 105
1, 88097, Control_c, 0, 67, 110
1, 88111, Control_c, 0, 64, 60
1, 88111, Control_c, 0, 67, 112
1, 88126, Control_c, 0, 64, 60
1, 88137, Note_on_c, 0, 66, 63
1, 88137, Note_off_c, 0, 71, 55
1, 88141, Control_c, 0, 64, 59
1, 88156, Control_c, 0, 64, 59
1, 88171, Control_c, 0, 64, 58
1, 88186, Control_c, 0, 64, 58
1, 88198, Note_on_c, 0, 63, 66
1, 88201, Control_c, 0, 64, 57
1, 88213, Note_off_c, 0, 66, 65
1, 88216, Control_c, 0, 67, 112
1, 88231, Control_c, 0, 64, 57
1, 88231, Control_c, 0, 67, 113
1, 88238, Note_off_c, 0, 63, 61
1, 88246, Control_c, 0, 64, 56
1, 88260, Control_c, 0, 67, 113
1, 88270, Note_on_c, 0, 59, 63
1, 88275, Control_c, 0, 67, 115
1, 88290, Control_c, 0, 64, 56
1, 88290, Control_c, 0, 67, 119
1, 88304, Control_c, 0, 67, 124
1, 88305, Note_off_c, 0, 59, 60
1, 88319, Control_c, 0, 64, 55
1, 88319, Control_c, 0, 67, 127
1, 88334, Control_c, 0, 64, 54
1, 88334, Control_c, 0, 67, 127
1, 88349, Control_c, 0, 64, 54
1, 88351, Note_on_c, 0, 54, 66
1, 88408, Note_off_c, 0, 35, 37
1, 88415, Control_c, 0, 64, 53
1, 88431, Control_c, 0, 64, 53
1, 88433, Note_on_c, 0, 51, 71
1, 88439, Note_off_c, 0, 54, 62
1, 88446, Control_c, 0, 64, 50
1, 88461, Control_c, 0, 64, 46
1, 88462, Note_off_c, 0, 51, 65
1, 88475, Control_c, 0, 64, 41
1, 88490, Control_c, 0, 64, 36
1, 88505, Control_c, 0, 64, 32
1, 88508, Note_on_c, 0, 47, 64
1, 88520, Control_c, 0, 64, 10
1, 88535, Control_c, 0, 64, 0
1, 88584, Note_off_c, 0, 47, 62
1, 88595, Note_on_c, 0, 42, 56
1, 88654, Note_off_c, 0, 42, 61
1, 88687, Note_on_c, 0, 39, 43
1, 88777, Note_off_c, 0, 39, 51
1, 88833, Note_on_c, 0, 35, 33
1, 88979, Control_c, 0, 64, 39
1, 88994, Control_c, 0, 64, 52
1, 89008, Control_c, 0, 64, 59
1, 89023, Control_c, 0, 64, 62
1, 89038, Control_c, 0, 64, 63
1, 89053, Control_c, 0, 64, 64
1, 89068, Control_c, 0, 64, 64
1, 89082, Control_c, 0, 64, 65
1, 89097, Control_c, 0, 64, 66
1, 89112, Control_c, 0, 64, 67
1, 89126, Control_c, 0, 64, 68
1, 89141, Control_c, 0, 64, 70
1, 89164, Control_c, 0, 64, 71
1, 89265, Note_off_c, 0, 35, 41
1, 89328, Control_c, 0, 64, 70
1, 89357, Control_c, 0, 64, 70
1, 89372, Control_c, 0, 64, 69
1, 89387, Control_c, 0, 64, 69
1, 89402, Control_c, 0, 64, 68
1, 89417, Control_c, 0, 64, 67
1, 89431, Control_c, 0, 64, 66
1, 89446, Control_c, 0, 64, 66
1, 89476, Control_c, 0, 64, 65
1, 89505, Control_c, 0, 64, 65
1, 89535, Control_c, 0, 64, 64
1, 89549, Control_c, 0, 64, 64
1, 89564, Control_c, 0, 64, 63
1, 89579, Control_c, 0, 64, 63
1, 89638, Control_c, 0, 64, 62
1, 89653, Control_c, 0, 64, 62
1, 89712, Control_c, 0, 64, 62
1, 89757, Control_c, 0, 64, 63
1, 89772, Control_c, 0, 64, 63
1, 89802, Control_c, 0, 64, 64
1, 89831, Control_c, 0, 64, 64
1, 89846, Control_c, 0, 64, 65
1, 89875, Control_c, 0, 64, 65
1, 89885, Note_on_c, 0, 75, 42
1, 89967, Note_off_c, 0, 75, 64
1, 89983, Note_on_c, 0, 76, 51
1, 90073, Note_on_c, 0, 78, 73
1, 90091, Control_c, 0, 64, 65
1, 90150, Control_c, 0, 64, 64
1, 90152, Note_on_c, 0, 80, 78
1, 90180, Control_c, 0, 64, 64
1, 90195, Control_c, 0, 64, 63
1, 90223, Note_on_c, 0, 81, 76
1, 90225, Control_c, 0, 64, 63
1, 90243, Note_off_c, 0, 78, 56
1, 90254, Control_c, 0, 64, 62
1, 90269, Control_c, 0, 64, 61
1, 90284, Control_c, 0, 64, 60
1, 90298, Control_c, 0, 64, 60
1, 90313, Control_c, 0, 64, 59
1, 90321, Note_on_c, 0, 83, 81
1, 90328, Control_c, 0, 64, 58
1, 90343, Control_c, 0, 64, 56
1, 90358, Control_c, 0, 64, 55
1, 90372, Control_c, 0, 64, 55
1, 90387, Control_c, 0, 67, 123
1, 90389, Note_off_c, 0, 81, 53
1, 90402, Control_c, 0, 64, 55
1, 90402, Control_c, 0, 67, 114
1, 90407, Note_on_c, 0, 63, 59
1, 90417, Control_c, 0, 67, 104
1, 90432, Control_c, 0, 67, 94
1, 90446, Control_c, 0, 67, 84
1, 90461, Control_c, 0, 67, 74
1, 90476, Control_c, 0, 64, 56
1, 90476, Control_c, 0, 67, 68
1, 90484, Note_off_c, 0, 63, 65
1, 90491, Control_c, 0, 67, 65
1, 90497, Note_on_c, 0, 64, 61
1, 90506, Control_c, 0, 67, 63
1, 90521, Control_c, 0, 64, 56
1, 90521, Control_c, 0, 67, 62
1, 90536, Control_c, 0, 67, 61
1, 90551, Control_c, 0, 64, 57
1, 90580, Note_on_c, 0, 66, 72
1, 90581, Note_off_c, 0, 64, 62
1, 90595, Control_c, 0, 64, 56
1, 90610, Control_c, 0, 67, 62
1, 90625, Control_c, 0, 67, 63
1, 90640, Control_c, 0, 67, 63
1, 90651, Note_on_c, 0, 68, 73
1, 90662, Control_c, 0, 64, 56
1, 90662, Control_c, 0, 67, 64
1, 90677, Control_c, 0, 64, 55
1, 90677, Control_c, 0, 67, 65
1, 90687, Note_off_c, 0, 66, 65
1, 90692, Control_c, 0, 64, 54
1, 90692, Control_c, 0, 67, 65
1, 90706, Control_c, 0, 64, 53
1, 90706, Control_c, 0, 67, 66
1, 90721, Control_c, 0, 64, 51
1, 90721, Control_c, 0, 67, 66
1, 90736, Note_on_c, 0, 69, 69
1, 90736, Control_c, 0, 64, 50
1, 90736, Control_c, 0, 67, 67
1, 90751, Control_c, 0, 64, 49
1, 90766, Control_c, 0, 64, 47
1, 90766, Control_c, 0, 67, 68
1, 90780, Control_c, 0, 64, 42
1, 90780, Control_c, 0, 67, 69
1, 90795, Control_c, 0, 64, 30
1, 90801, Note_off_c, 0, 68, 33
1, 90810, Control_c, 0, 64, 0
1, 90823, Note_off_c, 0, 69, 65
1, 90826, Control_c, 0, 67, 69
1, 90856, Control_c, 0, 67, 70
1, 90857, Note_on_c, 0, 71, 57
1, 90929, Control_c, 0, 67, 70
1, 90974, Control_c, 0, 67, 71
1, 91033, Control_c, 0, 67, 71
1, 91048, Control_c, 0, 67, 72
1, 91063, Control_c, 0, 67, 72
1, 91077, Control_c, 0, 67, 73
1, 91083, Note_off_c, 0, 80, 60
1, 91092, Control_c, 0, 67, 73
1, 91107, Control_c, 0, 67, 74
1, 91122, Control_c, 0, 67, 74
1, 91137, Control_c, 0, 67, 76
1, 91143, Note_on_c, 0, 78, 62
1, 91148, Note_on_c, 0, 81, 76
1, 91152, Control_c, 0, 67, 77
1, 91167, Control_c, 0, 67, 79
1, 91182, Control_c, 0, 67, 81
1, 91196, Control_c, 0, 67, 82
1, 91211, Control_c, 0, 67, 84
1, 91219, Note_off_c, 0, 76, 44
1, 91226, Control_c, 0, 67, 85
1, 91241, Control_c, 0, 67, 86
1, 91256, Control_c, 0, 67, 87
1, 91270, Control_c, 0, 67, 89
1, 91285, Control_c, 0, 67, 90
1, 91300, Control_c, 0, 67, 92
1, 91314, Control_c, 0, 67, 94
1, 91329, Control_c, 0, 67, 96
1, 91344, Control_c, 0, 67, 99
1, 91359, Control_c, 0, 67, 102
1, 91374, Control_c, 0, 67, 106
1, 91396, Control_c, 0, 67, 109
1, 91411, Control_c, 0, 67, 113
1, 91426, Control_c, 0, 67, 116
1, 91432, Note_on_c, 0, 80, 82
1, 91434, Note_on_c, 0, 76, 53
1, 91441, Control_c, 0, 67, 118
1, 91455, Control_c, 0, 67, 121
1, 91470, Note_off_c, 0, 78, 62
1, 91470, Control_c, 0, 67, 123
1, 91474, Note_off_c, 0, 83, 59
1, 91485, Control_c, 0, 67, 124
1, 91500, Control_c, 0, 67, 124
1, 91508, Note_off_c, 0, 81, 56
1, 91529, Control_c, 0, 67, 125
1, 91544, Control_c, 0, 67, 125
1, 91574, Control_c, 0, 67, 126
1, 91589, Control_c, 0, 67, 127
1, 91700, Note_on_c, 0, 73, 40
1, 91741, Note_off_c, 0, 71, 34
1, 91956, Note_on_c, 0, 78, 76
1, 91960, Note_on_c, 0, 70, 44
1, 91978, Note_off_c, 0, 73, 36
1, 91995, Note_off_c, 0, 76, 61
1, 92048, Note_off_c, 0, 80, 59
1, 92224, Note_off_c, 0, 70, 34
1, 92229, Note_on_c, 0, 75, 43
1, 92241, Note_on_c, 0, 71, 35
1, 92505, Note_on_c, 0, 76, 76
1, 92511, Note_on_c, 0, 68, 39
1, 92535, Note_off_c, 0, 78, 59
1, 92567, Note_off_c, 0, 75, 65
1, 92764, Note_on_c, 0, 64, 46
1, 92771, Note_off_c, 0, 68, 37
1, 92837, Note_off_c, 0, 64, 54
1, 92887, Note_on_c, 0, 78, 58
1, 92932, Note_off_c, 0, 76, 38
1, 92932, Note_on_c, 0, 80, 72
1, 92944, Note_off_c, 0, 78, 63
1, 92977, Note_on_c, 0, 63, 50
1, 92982, Note_on_c, 0, 81, 76
1, 92999, Note_off_c, 0, 80, 64
1, 93033, Note_off_c, 0, 81, 58
1, 93047, Note_off_c, 0, 63, 55
1, 93221, Note_off_c, 0, 71, 51
1, 93251, Note_on_c, 0, 64, 49
1, 93253, Note_on_c, 0, 80, 63
1, 93282, Note_off_c, 0, 80, 65
1, 93295, Note_off_c, 0, 64, 61
1, 93501, Note_on_c, 0, 78, 62
1, 93507, Note_on_c, 0, 73, 42
1, 93510, Note_on_c, 0, 69, 47
1, 93524, Note_off_c, 0, 78, 60
1, 93549, Note_off_c, 0, 73, 47
1, 93560, Note_on_c, 0, 80, 65
1, 93565, Note_off_c, 0, 69, 54
1, 93587, Note_off_c, 0, 80, 68
1, 93598, Note_on_c, 0, 78, 69
1, 93632, Note_off_c, 0, 78, 61
1, 93658, Note_on_c, 0, 80, 65
1, 93694, Note_off_c, 0, 80, 62
1, 93704, Note_on_c, 0, 78, 58
1, 93793, Note_off_c, 0, 78, 39
1, 93814, Note_on_c, 0, 76, 43
1, 93829, Note_on_c, 0, 71, 24
1, 93843, Note_on_c, 0, 68, 7
1, 94069, Note_off_c, 0, 71, 35
1, 94078, Note_off_c, 0, 68, 41
1, 94115, Note_off_c, 0, 76, 37
1, 95074, Control_c, 0, 67, 123
1, 95088, Control_c, 0, 67, 118
1, 95103, Control_c, 0, 67, 113
1, 95118, Control_c, 0, 67, 106
1, 95123, Note_on_c, 0, 68, 44
1, 95124, Note_on_c, 0, 71, 59
1, 95140, Control_c, 0, 67, 101
1, 95155, Control_c, 0, 67, 94
1, 95170, Control_c, 0, 67, 86
1, 95185, Control_c, 0, 67, 77
1, 95200, Control_c, 0, 67, 69
1, 95215, Control_c, 0, 67, 62
1, 95230, Control_c, 0, 67, 57
1, 95244, Control_c, 0, 67, 51
1, 95259, Control_c, 0, 67, 42
1, 95274, Control_c, 0, 67, 29
1, 95288, Control_c, 0, 67, 14
1, 95303, Control_c, 0, 67, 0
1, 95371, Note_on_c, 0, 52, 44
1, 95430, Note_off_c, 0, 52, 58
1, 95599, Control_c, 0, 64, 37
1, 95615, Control_c, 0, 64, 48
1, 95629, Note_on_c, 0, 59, 39
1, 95630, Control_c, 0, 64, 53
1, 95645, Control_c, 0, 64, 57
1, 95660, Control_c, 0, 64, 60
1, 95674, Control_c, 0, 64, 61
1, 95689, Control_c, 0, 64, 63
1, 95704, Control_c, 0, 64, 64
1, 95719, Control_c, 0, 64, 64
1, 95734, Control_c, 0, 64, 65
1, 95749, Control_c, 0, 64, 65
1, 95763, Control_c, 0, 64, 66
1, 95814, Note_off_c, 0, 68, 52
1, 95873, Note_on_c, 0, 70, 63
1, 95895, Note_on_c, 0, 67, 42
1, 96002, Note_off_c, 0, 71, 27
1, 96022, Note_off_c, 0, 67, 36
1, 96059, Note_off_c, 0, 70, 53
1, 96143, Note_on_c, 0, 69, 67
1, 96156, Note_on_c, 0, 66, 56
1, 96185, Control_c, 0, 64, 65
1, 96259, Control_c, 0, 64, 65
1, 96274, Control_c, 0, 64, 64
1, 96289, Control_c, 0, 64, 62
1, 96304, Control_c, 0, 64, 56
1, 96318, Control_c, 0, 64, 52
1, 96333, Control_c, 0, 64, 53
1, 96348, Control_c, 0, 64, 54
1, 96363, Control_c, 0, 64, 55
1, 96378, Control_c, 0, 64, 58
1, 96382, Note_on_c, 0, 68, 76
1, 96389, Note_on_c, 0, 61, 38
1, 96389, Note_on_c, 0, 65, 56
1, 96392, Control_c, 0, 64, 60
1, 96407, Control_c, 0, 64, 62
1, 96419, Note_off_c, 0, 69, 60
1, 96423, Control_c, 0, 64, 63
1, 96438, Control_c, 0, 64, 63
1, 96447, Note_off_c, 0, 66, 59
1, 96453, Control_c, 0, 64, 64
1, 96468, Control_c, 0, 64, 64
1, 96482, Note_off_c, 0, 59, 33
1, 96512, Control_c, 0, 64, 65
1, 96550, Note_off_c, 0, 68, 61
1, 96606, Note_off_c, 0, 61, 53
1, 96652, Note_on_c, 0, 67, 75
1, 96653, Note_on_c, 0, 58, 33
1, 96661, Note_on_c, 0, 64, 67
1, 96682, Control_c, 0, 64, 64
1, 96692, Note_off_c, 0, 65, 55
1, 96697, Control_c, 0, 64, 65
1, 96828, Note_off_c, 0, 64, 64
1, 96896, Note_on_c, 0, 59, 43
1, 96896, Note_off_c, 0, 58, 42
1, 96905, Note_on_c, 0, 66, 81
1, 96908, Note_on_c, 0, 63, 75
1, 96920, Control_c, 0, 64, 64
1, 96964, Control_c, 0, 64, 64
1, 96968, Note_off_c, 0, 67, 54
1, 97008, Control_c, 0, 64, 63
1, 97023, Control_c, 0, 64, 63
1, 97038, Control_c, 0, 64, 62
1, 97053, Control_c, 0, 64, 61
1, 97067, Control_c, 0, 64, 59
1, 97082, Control_c, 0, 64, 58
1, 97097, Control_c, 0, 64, 56
1, 97112, Control_c, 0, 64, 53
1, 97127, Control_c, 0, 64, 48
1, 97141, Control_c, 0, 64, 34
1, 97156, Control_c, 0, 64, 0
1, 97167, Note_on_c, 0, 56, 42
1, 97199, Note_on_c, 0, 64, 89
1, 97205, Note_off_c, 0, 66, 60
1, 97260, Note_off_c, 0, 63, 64
1, 97458, Note_on_c, 0, 52, 50
1, 97474, Note_off_c, 0, 56, 37
1, 97603, Note_on_c, 0, 66, 55
1, 97630, Note_off_c, 0, 64, 49
1, 97643, Note_off_c, 0, 52, 55
1, 97647, Note_on_c, 0, 68, 69
1, 97669, Note_off_c, 0, 66, 66
1, 97684, Note_on_c, 0, 51, 56
1, 97690, Note_on_c, 0, 69, 77
1, 97719, Note_off_c, 0, 68, 64
1, 97743, Note_off_c, 0, 69, 62
1, 97856, Note_off_c, 0, 51, 26
1, 97951, Note_on_c, 0, 68, 74
1, 97951, Note_on_c, 0, 52, 67
1, 97956, Note_off_c, 0, 59, 50
1, 97976, Note_off_c, 0, 52, 69
1, 97978, Note_off_c, 0, 68, 65
1, 98196, Note_on_c, 0, 73, 86
1, 98201, Note_on_c, 0, 45, 68
1, 98205, Note_on_c, 0, 69, 67
1, 98207, Note_on_c, 0, 64, 68
1, 98223, Note_off_c, 0, 69, 67
1, 98234, Note_off_c, 0, 64, 68
1, 98241, Note_off_c, 0, 45, 61
1, 98241, Note_off_c, 0, 73, 60
1, 98473, Note_on_c, 0, 68, 46
1, 98475, Note_on_c, 0, 71, 52
1, 98477, Note_on_c, 0, 52, 41
1, 98481, Note_on_c, 0, 64, 35
1, 98528, Note_off_c, 0, 52, 61
1, 98587, Note_off_c, 0, 68, 52
1, 98607, Note_off_c, 0, 64, 37
1, 98613, Note_off_c, 0, 71, 55
1, 99336, Note_on_c, 0, 64, 57
1, 99391, Note_on_c, 0, 76, 71
1, 99402, Note_off_c, 0, 64, 60
1, 99622, Note_on_c, 0, 44, 64
1, 99632, Note_on_c, 0, 32, 70
1, 99653, Note_off_c, 0, 44, 62
1, 99659, Note_off_c, 0, 32, 65
1, 99880, Note_on_c, 0, 44, 79
1, 99883, Note_on_c, 0, 32, 80
1, 99903, Note_off_c, 0, 44, 68
1, 99907, Note_off_c, 0, 32, 65
1, 99990, Note_on_c, 0, 75, 59
1, 100053, Note_off_c, 0, 76, 46
1, 100064, Note_on_c, 0, 73, 69
1, 100104, Note_off_c, 0, 75, 61
1, 100138, Note_on_c, 0, 71, 71
1, 100151, Note_off_c, 0, 73, 63
1, 100169, Note_off_c, 0, 71, 60
1, 100201, Note_on_c, 0, 69, 73
1, 100274, Note_on_c, 0, 68, 74
1, 100276, Note_off_c, 0, 69, 61
1, 100342, Note_off_c, 0, 68, 63
1, 100354, Note_on_c, 0, 66, 78
1, 100387, Note_off_c, 0, 66, 69
1, 100660, Note_on_c, 0, 45, 47
1, 100664, Note_on_c, 0, 33, 44
1, 100700, Note_off_c, 0, 45, 61
1, 100703, Note_off_c, 0, 33, 58
1, 100923, Note_on_c, 0, 45, 37
1, 100929, Note_on_c, 0, 33, 35
1, 101034, Note_on_c, 0, 85, 56
1, 101061, Note_off_c, 0, 45, 41
1, 101065, Note_off_c, 0, 33, 38
1, 101119, Note_on_c, 0, 83, 68
1, 101151, Note_off_c, 0, 85, 60
1, 101174, Control_c, 0, 67, 8
1, 101183, Note_off_c, 0, 83, 60
1, 101189, Control_c, 0, 67, 9
1, 101204, Control_c, 0, 67, 12
1, 101210, Note_on_c, 0, 81, 79
1, 101219, Control_c, 0, 67, 15
1, 101234, Control_c, 0, 67, 21
1, 101249, Control_c, 0, 67, 29
1, 101263, Control_c, 0, 67, 35
1, 101277, Note_on_c, 0, 80, 82
1, 101278, Control_c, 0, 67, 40
1, 101283, Note_off_c, 0, 81, 57
1, 101293, Control_c, 0, 67, 44
1, 101308, Control_c, 0, 67, 46
1, 101323, Control_c, 0, 67, 48
1, 101355, Note_on_c, 0, 78, 84
1, 101379, Note_off_c, 0, 80, 63
1, 101397, Control_c, 0, 67, 48
1, 101413, Note_off_c, 0, 78, 63
1, 101420, Note_on_c, 0, 76, 82
1, 101442, Control_c, 0, 67, 49
1, 101471, Control_c, 0, 67, 49
1, 101486, Control_c, 0, 67, 49
1, 101496, Note_on_c, 0, 75, 83
1, 101504, Note_off_c, 0, 76, 61
1, 101516, Control_c, 0, 67, 48
1, 101572, Note_on_c, 0, 73, 79
1, 101575, Control_c, 0, 67, 49
1, 101618, Note_off_c, 0, 75, 59
1, 101619, Control_c, 0, 67, 49
1, 101624, Note_on_c, 0, 47, 48
1, 101626, Note_on_c, 0, 35, 40
1, 101634, Control_c, 0, 67, 50
1, 101644, Note_on_c, 0, 71, 83
1, 101663, Control_c, 0, 67, 50
1, 101672, Note_off_c, 0, 73, 64
1, 101678, Control_c, 0, 67, 51
1, 101687, Note_off_c, 0, 47, 57
1, 101693, Control_c, 0, 67, 53
1, 101696, Note_off_c, 0, 35, 53
1, 101702, Note_off_c, 0, 71, 62
1, 101708, Control_c, 0, 67, 55
1, 101715, Note_on_c, 0, 69, 84
1, 101722, Control_c, 0, 67, 57
1, 101737, Control_c, 0, 67, 58
1, 101752, Control_c, 0, 67, 60
1, 101767, Control_c, 0, 67, 62
1, 101782, Control_c, 0, 67, 63
1, 101790, Note_on_c, 0, 68, 80
1, 101790, Note_off_c, 0, 69, 56
1, 101797, Control_c, 0, 67, 64
1, 101812, Control_c, 0, 67, 65
1, 101827, Control_c, 0, 67, 66
1, 101841, Control_c, 0, 67, 67
1, 101856, Control_c, 0, 67, 69
1, 101859, Note_on_c, 0, 66, 77
1, 101870, Note_on_c, 0, 47, 49
1, 101871, Note_off_c, 0, 68, 62
1, 101871, Control_c, 0, 67, 72
1, 101880, Note_on_c, 0, 35, 41
1, 101893, Control_c, 0, 67, 76
1, 101908, Control_c, 0, 67, 81
1, 101923, Note_off_c, 0, 66, 66
1, 101923, Control_c, 0, 67, 86
1, 101936, Note_on_c, 0, 64, 74
1, 101937, Note_off_c, 0, 35, 54
1, 101937, Control_c, 0, 67, 90
1, 101939, Note_off_c, 0, 47, 55
1, 101952, Control_c, 0, 67, 94
1, 101967, Control_c, 0, 67, 98
1, 101982, Control_c, 0, 67, 100
1, 101997, Control_c, 0, 67, 100
1, 102005, Note_off_c, 0, 64, 53
1, 102013, Control_c, 0, 67, 101
1, 102017, Note_on_c, 0, 63, 69
1, 102090, Note_on_c, 0, 61, 69
1, 102093, Note_on_c, 0, 35, 51
1, 102093, Note_on_c, 0, 47, 52
1, 102116, Note_off_c, 0, 63, 57
1, 102125, Note_off_c, 0, 35, 63
1, 102128, Note_off_c, 0, 47, 62
1, 102131, Control_c, 0, 64, 13
1, 102146, Control_c, 0, 64, 30
1, 102160, Control_c, 0, 64, 36
1, 102160, Control_c, 0, 67, 100
1, 102164, Note_on_c, 0, 59, 69
1, 102166, Note_off_c, 0, 61, 63
1, 102175, Control_c, 0, 64, 40
1, 102190, Control_c, 0, 64, 42
1, 102190, Control_c, 0, 67, 99
1, 102205, Control_c, 0, 67, 98
1, 102206, Note_off_c, 0, 59, 62
1, 102220, Control_c, 0, 67, 98
1, 102230, Note_on_c, 0, 57, 65
1, 102261, Note_off_c, 0, 57, 61
1, 102265, Control_c, 0, 67, 97
1, 102279, Control_c, 0, 64, 43
1, 102279, Control_c, 0, 67, 97
1, 102294, Control_c, 0, 64, 44
1, 102294, Control_c, 0, 67, 96
1, 102295, Note_on_c, 0, 59, 66
1, 102309, Control_c, 0, 64, 46
1, 102309, Control_c, 0, 67, 95
1, 102324, Control_c, 0, 64, 47
1, 102324, Control_c, 0, 67, 95
1, 102331, Note_off_c, 0, 59, 63
1, 102339, Control_c, 0, 64, 48
1, 102339, Control_c, 0, 67, 94
1, 102348, Note_on_c, 0, 57, 58
1, 102353, Control_c, 0, 64, 50
1, 102353, Control_c, 0, 67, 94
1, 102368, Control_c, 0, 64, 51
1, 102368, Control_c, 0, 67, 93
1, 102370, Note_off_c, 0, 57, 63
1, 102383, Control_c, 0, 64, 53
1, 102383, Control_c, 0, 67, 92
1, 102398, Control_c, 0, 64, 54
1, 102398, Control_c, 0, 67, 90
1, 102401, Note_on_c, 0, 59, 68
1, 102413, Control_c, 0, 64, 55
1, 102413, Control_c, 0, 67, 88
1, 102427, Control_c, 0, 64, 55
1, 102427, Control_c, 0, 67, 83
1, 102435, Note_off_c, 0, 59, 64
1, 102442, Control_c, 0, 64, 56
1, 102442, Control_c, 0, 67, 76
1, 102443, Note_on_c, 0, 57, 73
1, 102457, Control_c, 0, 64, 56
1, 102457, Control_c, 0, 67, 68
1, 102472, Control_c, 0, 64, 56
1, 102472, Control_c, 0, 67, 56
1, 102486, Control_c, 0, 64, 55
1, 102486, Control_c, 0, 67, 42
1, 102491, Note_on_c, 0, 59, 76
1, 102494, Note_off_c, 0, 57, 60
1, 102501, Control_c, 0, 64, 53
1, 102501, Control_c, 0, 67, 20
1, 102507, Note_on_c, 0, 40, 52
1, 102507, Note_on_c, 0, 52, 50
1, 102516, Control_c, 0, 64, 48
1, 102516, Control_c, 0, 67, 0
1, 102531, Control_c, 0, 64, 37
1, 102532, Note_off_c, 0, 52, 57
1, 102539, Note_on_c, 0, 57, 59
1, 102545, Note_off_c, 0, 59, 63
1, 102546, Note_off_c, 0, 40, 61
1, 102546, Control_c, 0, 64, 18
1, 102560, Control_c, 0, 64, 0
1, 102577, Note_on_c, 0, 59, 58
1, 102588, Note_off_c, 0, 57, 63
1, 102635, Note_on_c, 0, 57, 61
1, 102638, Note_off_c, 0, 59, 62
1, 102778, Note_off_c, 0, 57, 61
1, 102789, Note_on_c, 0, 56, 58
1, 102794, Note_on_c, 0, 52, 42
1, 102801, Note_on_c, 0, 40, 40
1, 102847, Note_off_c, 0, 52, 54
1, 102855, Note_off_c, 0, 40, 47
1, 102895, Control_c, 0, 64, 16
1, 102909, Control_c, 0, 64, 43
1, 102924, Control_c, 0, 64, 54
1, 102939, Control_c, 0, 64, 59
1, 102954, Control_c, 0, 64, 62
1, 102969, Control_c, 0, 64, 62
1, 102973, Note_off_c, 0, 56, 59
1, 102983, Control_c, 0, 64, 63
1, 103028, Control_c, 0, 64, 62
1, 103058, Control_c, 0, 64, 63
1, 103077, Note_on_c, 0, 40, 50
1, 103085, Note_on_c, 0, 52, 48
1, 103125, Note_off_c, 0, 52, 61
1, 103147, Control_c, 0, 64, 62
1, 103162, Control_c, 0, 64, 62
1, 103167, Note_off_c, 0, 40, 56
1, 103176, Control_c, 0, 64, 61
1, 103191, Control_c, 0, 64, 61
1, 103206, Control_c, 0, 64, 60
1, 103221, Control_c, 0, 64, 60
1, 103234, Control_c, 0, 64, 58
1, 103249, Control_c, 0, 64, 57
1, 103264, Control_c, 0, 64, 56
1, 103279, Control_c, 0, 64, 54
1, 103282, Note_on_c, 0, 64, 76
1, 103294, Control_c, 0, 64, 50
1, 103308, Control_c, 0, 64, 41
1, 103323, Control_c, 0, 64, 21
1, 103338, Control_c, 0, 64, 0
1, 103362, Note_on_c, 0, 76, 91
1, 103567, Note_off_c, 0, 64, 54
1, 103598, Control_c, 0, 67, 8
1, 103613, Control_c, 0, 67, 8
1, 103614, Note_on_c, 0, 44, 78
1, 103621, Note_on_c, 0, 32, 67
1, 103628, Control_c, 0, 67, 9
1, 103638, Note_off_c, 0, 44, 67
1, 103649, Note_off_c, 0, 32, 64
1, 103657, Control_c, 0, 67, 9
1, 103702, Control_c, 0, 67, 10
1, 103717, Control_c, 0, 67, 10
1, 103731, Control_c, 0, 67, 11
1, 103746, Control_c, 0, 67, 12
1, 103761, Control_c, 0, 67, 14
1, 103791, Control_c, 0, 67, 14
1, 103806, Control_c, 0, 67, 15
1, 103836, Control_c, 0, 67, 15
1, 103882, Note_on_c, 0, 44, 72
1, 103884, Note_on_c, 0, 32, 75
1, 103908, Note_off_c, 0, 44, 67
1, 103918, Note_off_c, 0, 32, 62
1, 103969, Control_c, 0, 67, 16
1, 103993, Note_on_c, 0, 75, 68
1, 104014, Control_c, 0, 67, 16
1, 104069, Note_on_c, 0, 73, 75
1, 104083, Note_off_c, 0, 76, 53
1, 104088, Control_c, 0, 67, 17
1, 104103, Control_c, 0, 67, 17
1, 104151, Note_on_c, 0, 71, 79
1, 104155, Control_c, 0, 67, 18
1, 104155, Note_off_c, 0, 75, 63
1, 104170, Control_c, 0, 67, 18
1, 104184, Note_off_c, 0, 73, 63
1, 104199, Control_c, 0, 67, 19
1, 104214, Note_off_c, 0, 71, 60
1, 104220, Note_on_c, 0, 69, 81
1, 104229, Control_c, 0, 67, 20
1, 104244, Control_c, 0, 67, 21
1, 104258, Control_c, 0, 67, 22
1, 104273, Control_c, 0, 67, 22
1, 104288, Control_c, 0, 67, 23
1, 104295, Note_off_c, 0, 69, 54
1, 104296, Note_on_c, 0, 68, 79
1, 104303, Control_c, 0, 67, 25
1, 104318, Control_c, 0, 67, 28
1, 104332, Control_c, 0, 67, 30
1, 104347, Control_c, 0, 67, 33
1, 104362, Control_c, 0, 67, 35
1, 104372, Note_off_c, 0, 68, 63
1, 104376, Control_c, 0, 67, 36
1, 104382, Note_on_c, 0, 66, 76
1, 104391, Control_c, 0, 67, 37
1, 104408, Control_c, 0, 67, 39
1, 104411, Note_off_c, 0, 66, 67
1, 104422, Control_c, 0, 67, 42
1, 104437, Control_c, 0, 67, 46
1, 104452, Control_c, 0, 67, 50
1, 104467, Control_c, 0, 67, 54
1, 104481, Control_c, 0, 67, 57
1, 104496, Control_c, 0, 67, 61
1, 104511, Control_c, 0, 67, 64
1, 104526, Control_c, 0, 67, 66
1, 104541, Control_c, 0, 67, 68
1, 104555, Control_c, 0, 67, 70
1, 104585, Control_c, 0, 67, 70
1, 104600, Control_c, 0, 67, 71
1, 104615, Control_c, 0, 67, 72
1, 104629, Control_c, 0, 67, 75
1, 104644, Control_c, 0, 67, 77
1, 104659, Control_c, 0, 67, 80
1, 104661, Note_on_c, 0, 45, 49
1, 104670, Note_on_c, 0, 33, 43
1, 104673, Control_c, 0, 67, 81
1, 104688, Control_c, 0, 67, 82
1, 104700, Note_off_c, 0, 45, 61
1, 104703, Control_c, 0, 67, 84
1, 104715, Note_off_c, 0, 33, 50
1, 104718, Control_c, 0, 67, 85
1, 104733, Control_c, 0, 67, 88
1, 104748, Control_c, 0, 67, 92
1, 104763, Control_c, 0, 67, 96
1, 104778, Control_c, 0, 67, 101
1, 104793, Control_c, 0, 67, 104
1, 104807, Control_c, 0, 67, 106
1, 104822, Control_c, 0, 67, 108
1, 104837, Control_c, 0, 67, 109
1, 104852, Control_c, 0, 67, 111
1, 104867, Control_c, 0, 67, 114
1, 104888, Control_c, 0, 67, 117
1, 104903, Control_c, 0, 67, 119
1, 104918, Control_c, 0, 67, 122
1, 104933, Control_c, 0, 67, 124
1, 104948, Control_c, 0, 67, 127
1, 104965, Note_on_c, 0, 45, 37
1, 104971, Note_on_c, 0, 33, 36
1, 105109, Note_on_c, 0, 88, 65
1, 105170, Control_c, 0, 64, 10
1, 105185, Control_c, 0, 64, 18
1, 105192, Note_off_c, 0, 33, 45
1, 105201, Control_c, 0, 64, 21
1, 105215, Note_on_c, 0, 87, 71
1, 105215, Note_off_c, 0, 45, 50
1, 105216, Control_c, 0, 64, 24
1, 105231, Control_c, 0, 64, 25
1, 105245, Control_c, 0, 64, 26
1, 105260, Control_c, 0, 64, 27
1, 105290, Control_c, 0, 64, 28
1, 105308, Note_on_c, 0, 85, 77
1, 105382, Note_on_c, 0, 83, 81
1, 105393, Control_c, 0, 64, 27
1, 105401, Note_off_c, 0, 87, 61
1, 105408, Control_c, 0, 64, 25
1, 105422, Control_c, 0, 64, 24
1, 105428, Note_off_c, 0, 88, 35
1, 105431, Note_off_c, 0, 85, 65
1, 105437, Control_c, 0, 64, 19
1, 105449, Note_off_c, 0, 83, 62
1, 105450, Note_on_c, 0, 81, 87
1, 105452, Control_c, 0, 64, 13
1, 105467, Control_c, 0, 64, 0
1, 105522, Note_on_c, 0, 80, 89
1, 105541, Note_off_c, 0, 81, 59
1, 105597, Note_on_c, 0, 78, 87
1, 105638, Note_off_c, 0, 80, 65
1, 105670, Note_off_c, 0, 78, 66
1, 105678, Note_on_c, 0, 76, 84
1, 105755, Note_on_c, 0, 75, 86
1, 105764, Note_on_c, 0, 47, 52
1, 105767, Note_off_c, 0, 76, 64
1, 105774, Note_on_c, 0, 35, 39
1, 105812, Note_off_c, 0, 47, 57
1, 105824, Note_off_c, 0, 35, 47
1, 105837, Note_on_c, 0, 73, 83
1, 105909, Note_off_c, 0, 75, 59
1, 105910, Note_on_c, 0, 71, 84
1, 105955, Note_off_c, 0, 73, 62
1, 105981, Note_off_c, 0, 71, 62
1, 105987, Note_on_c, 0, 47, 63
1, 105989, Note_on_c, 0, 69, 87
1, 105999, Note_on_c, 0, 35, 50
1, 106009, Control_c, 0, 67, 124
1, 106024, Control_c, 0, 67, 121
1, 106039, Control_c, 0, 67, 118
1, 106042, Note_off_c, 0, 35, 59
1, 106042, Note_off_c, 0, 47, 57
1, 106053, Control_c, 0, 67, 113
1, 106062, Note_on_c, 0, 68, 84
1, 106068, Control_c, 0, 67, 107
1, 106071, Note_off_c, 0, 69, 62
1, 106083, Control_c, 0, 67, 100
1, 106098, Control_c, 0, 67, 92
1, 106113, Control_c, 0, 67, 86
1, 106127, Control_c, 0, 67, 80
1, 106136, Note_on_c, 0, 66, 85
1, 106142, Control_c, 0, 67, 75
1, 106157, Control_c, 0, 67, 68
1, 106164, Note_off_c, 0, 68, 62
1, 106172, Control_c, 0, 67, 63
1, 106187, Control_c, 0, 67, 57
1, 106201, Control_c, 0, 67, 51
1, 106206, Note_off_c, 0, 66, 65
1, 106216, Control_c, 0, 67, 46
1, 106218, Note_on_c, 0, 64, 75
1, 106231, Control_c, 0, 67, 42
1, 106239, Note_on_c, 0, 47, 61
1, 106243, Note_on_c, 0, 35, 50
1, 106245, Control_c, 0, 67, 38
1, 106260, Control_c, 0, 67, 37
1, 106274, Note_off_c, 0, 35, 53
1, 106276, Note_off_c, 0, 47, 65
1, 106304, Note_on_c, 0, 63, 78
1, 106305, Control_c, 0, 67, 39
1, 106319, Control_c, 0, 67, 40
1, 106322, Note_off_c, 0, 64, 58
1, 106334, Control_c, 0, 67, 41
1, 106349, Control_c, 0, 67, 43
1, 106372, Control_c, 0, 67, 44
1, 106387, Control_c, 0, 67, 46
1, 106390, Note_on_c, 0, 69, 77
1, 106392, Note_off_c, 0, 63, 64
1, 106401, Control_c, 0, 67, 47
1, 106416, Control_c, 0, 67, 49
1, 106431, Control_c, 0, 67, 51
1, 106445, Control_c, 0, 67, 53
1, 106460, Control_c, 0, 67, 56
1, 106470, Note_on_c, 0, 68, 77
1, 106475, Control_c, 0, 67, 58
1, 106490, Control_c, 0, 67, 61
1, 106505, Control_c, 0, 67, 64
1, 106519, Control_c, 0, 67, 67
1, 106534, Control_c, 0, 67, 71
1, 106549, Control_c, 0, 67, 74
1, 106554, Note_on_c, 0, 66, 77
1, 106564, Control_c, 0, 67, 76
1, 106578, Note_off_c, 0, 69, 57
1, 106579, Control_c, 0, 67, 78
1, 106593, Control_c, 0, 67, 79
1, 106608, Control_c, 0, 67, 80
1, 106623, Control_c, 0, 67, 81
1, 106638, Note_on_c, 0, 64, 78
1, 106638, Control_c, 0, 67, 84
1, 106645, Note_off_c, 0, 68, 63
1, 106653, Control_c, 0, 67, 88
1, 106660, Note_off_c, 0, 66, 66
1, 106668, Control_c, 0, 67, 94
1, 106668, Note_off_c, 0, 64, 64
1, 106682, Control_c, 0, 67, 100
1, 106697, Control_c, 0, 67, 103
1, 106712, Control_c, 0, 67, 104
1, 106721, Note_on_c, 0, 52, 54
1, 106727, Note_on_c, 0, 64, 81
1, 106727, Control_c, 0, 67, 106
1, 106742, Control_c, 0, 67, 108
1, 106757, Control_c, 0, 67, 112
1, 106771, Control_c, 0, 67, 116
1, 106786, Control_c, 0, 67, 119
1, 106802, Control_c, 0, 67, 122
1, 106816, Note_off_c, 0, 52, 53
1, 106817, Control_c, 0, 67, 123
1, 106818, Note_on_c, 0, 56, 58
1, 106832, Control_c, 0, 64, 21
1, 106846, Control_c, 0, 64, 29
1, 106861, Control_c, 0, 64, 34
1, 106876, Control_c, 0, 64, 39
1, 106891, Control_c, 0, 64, 42
1, 106892, Note_on_c, 0, 59, 66
1, 106905, Note_off_c, 0, 64, 59
1, 106906, Control_c, 0, 64, 46
1, 106912, Note_off_c, 0, 56, 63
1, 106921, Control_c, 0, 64, 50
1, 106936, Control_c, 0, 64, 52
1, 106950, Control_c, 0, 64, 53
1, 106980, Note_on_c, 0, 64, 78
1, 106989, Note_off_c, 0, 59, 62
1, 107025, Control_c, 0, 64, 52
1, 107040, Control_c, 0, 64, 51
1, 107055, Control_c, 0, 64, 50
1, 107056, Note_on_c, 0, 59, 73
1, 107069, Control_c, 0, 64, 48
1, 107073, Note_off_c, 0, 64, 63
1, 107084, Control_c, 0, 64, 47
1, 107099, Control_c, 0, 64, 46
1, 107114, Control_c, 0, 64, 45
1, 107145, Note_on_c, 0, 56, 70
1, 107150, Control_c, 0, 64, 45
1, 107165, Control_c, 0, 64, 44
1, 107180, Control_c, 0, 64, 44
1, 107180, Control_c, 0, 67, 123
1, 107182, Note_off_c, 0, 59, 62
1, 107195, Control_c, 0, 64, 42
1, 107210, Control_c, 0, 64, 40
1, 107210, Control_c, 0, 67, 124
1, 107225, Control_c, 0, 64, 39
1, 107225, Control_c, 0, 67, 125
1, 107233, Note_on_c, 0, 62, 68
1, 107240, Control_c, 0, 64, 37
1, 107240, Control_c, 0, 67, 126
1, 107246, Note_off_c, 0, 56, 61
1, 107255, Control_c, 0, 64, 33
1, 107255, Control_c, 0, 67, 127
1, 107269, Control_c, 0, 64, 27
1, 107284, Control_c, 0, 64, 19
1, 107299, Note_off_c, 0, 62, 60
1, 107299, Control_c, 0, 64, 10
1, 107300, Note_on_c, 0, 59, 69
1, 107314, Control_c, 0, 64, 0
1, 107383, Note_off_c, 0, 59, 59
1, 107422, Note_on_c, 0, 56, 47
1, 107520, Note_off_c, 0, 56, 50
1, 107530, Note_on_c, 0, 53, 44
1, 107548, Note_on_c, 0, 73, 66
1, 107626, Control_c, 0, 64, 35
1, 107635, Note_off_c, 0, 53, 64
1, 107641, Control_c, 0, 64, 44
1, 107655, Control_c, 0, 64, 51
1, 107670, Control_c, 0, 64, 58
1, 107685, Control_c, 0, 64, 61
1, 107699, Control_c, 0, 64, 63
1, 107714, Control_c, 0, 64, 64
1, 107729, Control_c, 0, 64, 65
1, 107803, Control_c, 0, 64, 65
1, 107817, Control_c, 0, 64, 66
1, 107832, Control_c, 0, 64, 66
1, 107835, Note_on_c, 0, 69, 50
1, 107836, Note_on_c, 0, 66, 48
1, 107847, Control_c, 0, 64, 67
1, 107862, Control_c, 0, 64, 68
1, 107884, Control_c, 0, 64, 68
1, 107890, Note_off_c, 0, 69, 59
1, 107896, Note_off_c, 0, 66, 57
1, 107899, Control_c, 0, 64, 69
1, 107902, Note_off_c, 0, 73, 62
1, 107973, Control_c, 0, 64, 69
1, 108003, Control_c, 0, 64, 70
1, 108032, Control_c, 0, 64, 70
1, 108047, Control_c, 0, 64, 71
1, 108077, Control_c, 0, 64, 71
1, 108091, Note_on_c, 0, 65, 46
1, 108103, Note_on_c, 0, 68, 36
1, 108121, Control_c, 0, 64, 72
1, 108140, Note_off_c, 0, 65, 64
1, 108146, Note_off_c, 0, 68, 51
1, 108183, Note_on_c, 0, 86, 63
1, 108210, Control_c, 0, 64, 71
1, 108223, Note_on_c, 0, 85, 70
1, 108232, Note_off_c, 0, 86, 56
1, 108239, Control_c, 0, 64, 71
1, 108254, Control_c, 0, 64, 70
1, 108260, Note_off_c, 0, 85, 63
1, 108269, Control_c, 0, 64, 70
1, 108274, Note_on_c, 0, 83, 70
1, 108284, Control_c, 0, 64, 69
1, 108298, Control_c, 0, 64, 69
1, 108313, Note_on_c, 0, 85, 64
1, 108313, Control_c, 0, 64, 68
1, 108328, Note_off_c, 0, 83, 57
1, 108328, Control_c, 0, 64, 66
1, 108343, Control_c, 0, 64, 64
1, 108358, Control_c, 0, 64, 60
1, 108373, Control_c, 0, 64, 54
1, 108376, Note_on_c, 0, 86, 73
1, 108377, Note_on_c, 0, 77, 37
1, 108383, Note_off_c, 0, 85, 65
1, 108388, Control_c, 0, 64, 48
1, 108403, Note_on_c, 0, 80, 44
1, 108403, Control_c, 0, 64, 32
1, 108418, Control_c, 0, 64, 0
1, 108567, Note_on_c, 0, 83, 76
1, 108569, Note_off_c, 0, 77, 59
1, 108581, Note_off_c, 0, 80, 58
1, 108581, Note_off_c, 0, 86, 63
1, 108581, Control_c, 0, 64, 32
1, 108589, Note_off_c, 0, 83, 65
1, 108596, Control_c, 0, 64, 48
1, 108611, Control_c, 0, 64, 55
1, 108633, Control_c, 0, 64, 59
1, 108647, Control_c, 0, 64, 61
1, 108648, Note_on_c, 0, 83, 83
1, 108662, Control_c, 0, 64, 62
1, 108677, Control_c, 0, 64, 63
1, 108692, Control_c, 0, 64, 65
1, 108707, Control_c, 0, 64, 66
1, 108721, Control_c, 0, 64, 68
1, 108736, Control_c, 0, 64, 69
1, 108751, Control_c, 0, 64, 70
1, 108766, Control_c, 0, 64, 71
1, 108781, Control_c, 0, 64, 71
1, 108811, Control_c, 0, 64, 72
1, 108855, Control_c, 0, 64, 72
1, 108885, Control_c, 0, 64, 73
1, 108900, Note_on_c, 0, 66, 50
1, 108910, Note_on_c, 0, 73, 40
1, 108915, Control_c, 0, 64, 73
1, 108942, Note_off_c, 0, 83, 59
1, 108962, Note_off_c, 0, 73, 57
1, 108972, Note_off_c, 0, 66, 56
1, 109151, Control_c, 0, 64, 73
1, 109166, Control_c, 0, 64, 71
1, 109180, Control_c, 0, 64, 67
1, 109197, Control_c, 0, 64, 55
1, 109198, Note_on_c, 0, 66, 42
1, 109204, Note_on_c, 0, 73, 23
1, 109206, Note_on_c, 0, 81, 51
1, 109211, Control_c, 0, 64, 26
1, 109226, Note_off_c, 0, 81, 59
1, 109226, Control_c, 0, 64, 0
1, 109249, Note_off_c, 0, 73, 46
1, 109252, Note_on_c, 0, 83, 57
1, 109273, Note_off_c, 0, 83, 61
1, 109290, Note_on_c, 0, 81, 74
1, 109315, Note_off_c, 0, 81, 64
1, 109331, Note_on_c, 0, 80, 61
1, 109349, Note_off_c, 0, 80, 64
1, 109382, Note_off_c, 0, 66, 38
1, 109383, Note_on_c, 0, 81, 64
1, 109453, Note_off_c, 0, 81, 61
1, 109466, Note_on_c, 0, 69, 41
1, 109468, Note_on_c, 0, 85, 68
1, 109630, Note_off_c, 0, 69, 30
1, 109666, Note_on_c, 0, 78, 65
1, 109689, Note_off_c, 0, 78, 63
1, 109746, Note_on_c, 0, 80, 75
1, 109753, Note_on_c, 0, 71, 58
1, 109756, Note_on_c, 0, 78, 73
1, 109784, Note_off_c, 0, 85, 35
1, 109786, Note_off_c, 0, 71, 61
1, 110030, Note_on_c, 0, 71, 62
1, 110061, Note_off_c, 0, 71, 61
1, 110323, Note_off_c, 0, 78, 47
1, 110328, Note_on_c, 0, 73, 44
1, 110328, Note_on_c, 0, 77, 47
1, 110356, Note_off_c, 0, 73, 55
1, 110587, Note_off_c, 0, 80, 53
1, 110600, Note_on_c, 0, 81, 55
1, 110602, Note_off_c, 0, 77, 37
1, 110605, Note_on_c, 0, 73, 38
1, 110640, Note_off_c, 0, 73, 52
1, 110768, Note_off_c, 0, 81, 55
1, 110808, Note_on_c, 0, 83, 45
1, 110901, Note_on_c, 0, 66, 32
1, 110903, Note_off_c, 0, 83, 53
1, 110910, Note_on_c, 0, 81, 52
1, 110981, Note_on_c, 0, 80, 51
1, 111005, Note_off_c, 0, 81, 45
1, 111062, Note_off_c, 0, 80, 58
1, 111066, Note_on_c, 0, 78, 52
1, 111073, Note_off_c, 0, 66, 50
1, 111173, Note_off_c, 0, 78, 62
1, 111191, Control_c, 0, 67, 124
1, 111206, Control_c, 0, 64, 18
1, 111206, Control_c, 0, 67, 108
1, 111221, Control_c, 0, 64, 33
1, 111221, Control_c, 0, 67, 64
1, 111235, Control_c, 0, 64, 37
1, 111235, Control_c, 0, 67, 0
1, 111250, Control_c, 0, 64, 36
1, 111265, Control_c, 0, 64, 34
1, 111280, Control_c, 0, 64, 31
1, 111295, Control_c, 0, 64, 22
1, 111310, Control_c, 0, 64, 16
1, 111324, Control_c, 0, 64, 10
1, 111339, Control_c, 0, 64, 0
1, 111421, Note_on_c, 0, 66, 72
1, 111430, Note_on_c, 0, 54, 61
1, 111478, Note_off_c, 0, 66, 63
1, 111495, Note_on_c, 0, 68, 78
1, 111500, Note_off_c, 0, 54, 59
1, 111505, Note_on_c, 0, 56, 77
1, 111554, Note_off_c, 0, 68, 59
1, 111561, Note_off_c, 0, 56, 64
1, 111570, Note_on_c, 0, 69, 82
1, 111576, Note_on_c, 0, 57, 78
1, 111655, Note_on_c, 0, 68, 87
1, 111658, Note_on_c, 0, 56, 77
1, 111658, Note_off_c, 0, 57, 59
1, 111698, Note_off_c, 0, 69, 59
1, 111723, Note_on_c, 0, 66, 83
1, 111732, Note_off_c, 0, 56, 63
1, 111741, Note_on_c, 0, 54, 68
1, 111751, Note_off_c, 0, 68, 65
1, 111767, Note_off_c, 0, 54, 64
1, 111787, Note_off_c, 0, 66, 66
1, 111797, Note_on_c, 0, 64, 83
1, 111813, Note_on_c, 0, 52, 73
1, 111851, Note_off_c, 0, 52, 55
1, 111864, Note_off_c, 0, 64, 58
1, 111866, Note_on_c, 0, 63, 78
1, 111904, Note_on_c, 0, 51, 45
1, 111941, Note_off_c, 0, 51, 58
1, 111947, Note_on_c, 0, 49, 51
1, 111950, Note_on_c, 0, 61, 76
1, 111959, Note_off_c, 0, 63, 65
1, 112003, Note_off_c, 0, 49, 62
1, 112005, Note_off_c, 0, 61, 64
1, 112040, Note_on_c, 0, 59, 79
1, 112042, Control_c, 0, 64, 40
1, 112052, Note_on_c, 0, 47, 74
1, 112057, Control_c, 0, 64, 59
1, 112072, Control_c, 0, 64, 63
1, 112085, Note_off_c, 0, 59, 66
1, 112087, Control_c, 0, 64, 65
1, 112091, Note_off_c, 0, 47, 67
1, 112102, Control_c, 0, 64, 67
1, 112117, Control_c, 0, 64, 69
1, 112132, Control_c, 0, 64, 70
1, 112146, Control_c, 0, 64, 70
1, 112190, Control_c, 0, 64, 71
1, 112220, Control_c, 0, 64, 72
1, 112235, Control_c, 0, 64, 72
1, 112324, Control_c, 0, 64, 72
1, 112338, Control_c, 0, 64, 71
1, 112353, Control_c, 0, 64, 71
1, 112365, Note_on_c, 0, 83, 86
1, 112376, Control_c, 0, 64, 70
1, 112391, Control_c, 0, 64, 69
1, 112406, Control_c, 0, 64, 68
1, 112421, Control_c, 0, 64, 67
1, 112436, Control_c, 0, 64, 67
1, 112451, Control_c, 0, 64, 66
1, 112480, Control_c, 0, 64, 66
1, 112525, Control_c, 0, 64, 65
1, 112569, Control_c, 0, 64, 65
1, 112599, Control_c, 0, 64, 64
1, 112613, Control_c, 0, 64, 64
1, 112643, Note_on_c, 0, 66, 41
1, 112643, Control_c, 0, 64, 63
1, 112646, Note_on_c, 0, 59, 36
1, 112647, Note_off_c, 0, 83, 57
1, 112687, Control_c, 0, 64, 63
1, 112702, Control_c, 0, 64, 62
1, 112704, Note_on_c, 0, 85, 51
1, 112717, Control_c, 0, 64, 62
1, 112731, Note_off_c, 0, 85, 67
1, 112732, Control_c, 0, 64, 61
1, 112761, Control_c, 0, 64, 61
1, 112763, Note_on_c, 0, 83, 60
1, 112775, Note_off_c, 0, 59, 50
1, 112776, Control_c, 0, 64, 60
1, 112791, Note_off_c, 0, 83, 64
1, 112791, Control_c, 0, 64, 59
1, 112804, Note_on_c, 0, 81, 61
1, 112805, Control_c, 0, 64, 58
1, 112820, Control_c, 0, 64, 57
1, 112821, Note_off_c, 0, 81, 62
1, 112835, Control_c, 0, 64, 57
1, 112839, Note_on_c, 0, 83, 77
1, 112850, Control_c, 0, 64, 56
1, 112880, Control_c, 0, 64, 55
1, 112895, Control_c, 0, 64, 54
1, 112898, Note_off_c, 0, 83, 59
1, 112910, Control_c, 0, 64, 52
1, 112916, Note_on_c, 0, 85, 68
1, 112924, Control_c, 0, 64, 51
1, 112939, Control_c, 0, 64, 51
1, 112969, Control_c, 0, 64, 50
1, 112984, Control_c, 0, 64, 50
1, 113013, Control_c, 0, 64, 49
1, 113028, Control_c, 0, 64, 47
1, 113043, Control_c, 0, 64, 45
1, 113058, Control_c, 0, 64, 43
1, 113073, Control_c, 0, 64, 41
1, 113087, Control_c, 0, 64, 40
1, 113100, Note_off_c, 0, 85, 60
1, 113101, Note_on_c, 0, 81, 67
1, 113102, Control_c, 0, 64, 39
1, 113113, Note_off_c, 0, 66, 44
1, 113124, Control_c, 0, 64, 38
1, 113134, Note_off_c, 0, 81, 67
1, 113139, Control_c, 0, 64, 36
1, 113154, Control_c, 0, 64, 36
1, 113198, Note_on_c, 0, 81, 67
1, 113199, Control_c, 0, 64, 36
1, 113214, Control_c, 0, 64, 38
1, 113229, Control_c, 0, 64, 40
1, 113243, Control_c, 0, 64, 43
1, 113258, Control_c, 0, 64, 46
1, 113273, Control_c, 0, 64, 49
1, 113288, Control_c, 0, 64, 52
1, 113303, Control_c, 0, 64, 55
1, 113318, Control_c, 0, 64, 56
1, 113333, Control_c, 0, 64, 58
1, 113348, Control_c, 0, 64, 59
1, 113363, Control_c, 0, 64, 59
1, 113378, Control_c, 0, 64, 60
1, 113392, Control_c, 0, 64, 61
1, 113422, Control_c, 0, 64, 61
1, 113466, Control_c, 0, 64, 62
1, 113478, Note_on_c, 0, 71, 32
1, 113479, Note_on_c, 0, 64, 37
1, 113496, Control_c, 0, 64, 62
1, 113511, Note_off_c, 0, 71, 50
1, 113514, Note_off_c, 0, 64, 52
1, 113688, Control_c, 0, 64, 62
1, 113704, Note_off_c, 0, 81, 44
1, 113717, Control_c, 0, 64, 61
1, 113726, Note_on_c, 0, 80, 58
1, 113732, Control_c, 0, 64, 61
1, 113736, Note_on_c, 0, 71, 17
1, 113741, Note_on_c, 0, 64, 30
1, 113747, Control_c, 0, 64, 59
1, 113762, Control_c, 0, 64, 51
1, 113777, Control_c, 0, 64, 0
1, 113783, Note_off_c, 0, 80, 62
1, 113793, Note_on_c, 0, 81, 64
1, 113849, Note_on_c, 0, 80, 58
1, 113877, Note_off_c, 0, 81, 51
1, 113921, Note_on_c, 0, 78, 56
1, 113938, Note_off_c, 0, 71, 20
1, 113947, Note_off_c, 0, 64, 35
1, 113970, Note_off_c, 0, 80, 62
1, 113992, Note_on_c, 0, 69, 47
1, 114000, Note_on_c, 0, 66, 44
1, 114001, Note_off_c, 0, 78, 61
1, 114004, Note_on_c, 0, 81, 64
1, 114197, Note_off_c, 0, 81, 55
1, 114212, Note_on_c, 0, 78, 53
1, 114264, Note_off_c, 0, 69, 41
1, 114297, Note_off_c, 0, 78, 59
1, 114301, Note_off_c, 0, 66, 35
1, 114315, Note_on_c, 0, 76, 55
1, 114317, Note_on_c, 0, 68, 46
1, 114340, Note_on_c, 0, 71, 31
1, 114397, Note_on_c, 0, 80, 55
1, 114420, Note_off_c, 0, 76, 59
1, 114472, Note_off_c, 0, 80, 63
1, 114478, Note_on_c, 0, 78, 67
1, 114518, Note_off_c, 0, 68, 53
1, 114534, Note_off_c, 0, 78, 60
1, 114538, Note_off_c, 0, 71, 40
1, 114561, Note_on_c, 0, 76, 61
1, 114657, Note_on_c, 0, 80, 64
1, 114663, Note_off_c, 0, 76, 59
1, 114721, Note_off_c, 0, 80, 64
1, 114730, Note_on_c, 0, 83, 62
1, 114791, Note_off_c, 0, 83, 60
1, 114807, Note_on_c, 0, 88, 73
1, 114892, Note_on_c, 0, 87, 71
1, 114965, Note_on_c, 0, 85, 75
1, 115014, Note_off_c, 0, 88, 32
1, 115033, Note_off_c, 0, 87, 57
1, 115041, Note_on_c, 0, 83, 76
1, 115054, Note_on_c, 0, 69, 44
1, 115065, Note_on_c, 0, 76, 39
1, 115080, Note_off_c, 0, 85, 64
1, 115095, Note_off_c, 0, 76, 56
1, 115103, Note_off_c, 0, 83, 62
1, 115104, Note_on_c, 0, 81, 84
1, 115132, Note_off_c, 0, 69, 55
1, 115156, Control_c, 0, 67, 10
1, 115171, Control_c, 0, 67, 12
1, 115186, Control_c, 0, 67, 15
1, 115196, Note_on_c, 0, 80, 71
1, 115200, Note_off_c, 0, 81, 37
1, 115201, Control_c, 0, 67, 20
1, 115215, Control_c, 0, 67, 27
1, 115230, Control_c, 0, 67, 33
1, 115236, Note_off_c, 0, 80, 64
1, 115245, Control_c, 0, 67, 40
1, 115260, Control_c, 0, 67, 47
1, 115275, Control_c, 0, 67, 51
1, 115289, Control_c, 0, 67, 55
1, 115300, Note_on_c, 0, 71, 42
1, 115304, Control_c, 0, 67, 56
1, 115308, Note_on_c, 0, 76, 31
1, 115330, Note_on_c, 0, 80, 56
1, 115334, Control_c, 0, 67, 56
1, 115360, Note_off_c, 0, 80, 59
1, 115390, Note_on_c, 0, 81, 68
1, 115401, Control_c, 0, 67, 56
1, 115436, Note_on_c, 0, 80, 74
1, 115446, Note_off_c, 0, 81, 60
1, 115497, Note_on_c, 0, 81, 61
1, 115519, Control_c, 0, 67, 55
1, 115525, Note_off_c, 0, 71, 44
1, 115540, Note_off_c, 0, 76, 55
1, 115553, Note_off_c, 0, 81, 60
1, 115557, Note_on_c, 0, 75, 57
1, 115559, Note_on_c, 0, 78, 74
1, 115563, Control_c, 0, 67, 56
1, 115589, Note_off_c, 0, 75, 68
1, 115589, Note_off_c, 0, 80, 64
1, 115638, Control_c, 0, 67, 56
1, 115698, Control_c, 0, 67, 56
1, 115772, Control_c, 0, 67, 55
1, 115786, Control_c, 0, 67, 55
1, 115816, Control_c, 0, 64, 10
1, 115816, Control_c, 0, 67, 54
1, 115831, Control_c, 0, 64, 16
1, 115846, Control_c, 0, 64, 21
1, 115861, Control_c, 0, 64, 24
1, 115874, Note_on_c, 0, 59, 73
1, 115876, Control_c, 0, 64, 26
1, 115876, Control_c, 0, 67, 54
1, 115890, Control_c, 0, 67, 53
1, 115905, Control_c, 0, 64, 28
1, 115920, Control_c, 0, 64, 31
1, 115935, Control_c, 0, 64, 34
1, 115945, Note_off_c, 0, 59, 59
1, 115950, Control_c, 0, 64, 37
1, 115961, Note_on_c, 0, 61, 72
1, 115965, Control_c, 0, 64, 38
1, 115979, Control_c, 0, 64, 39
1, 115994, Control_c, 0, 64, 38
1, 116007, Note_off_c, 0, 78, 63
1, 116009, Control_c, 0, 64, 38
1, 116024, Control_c, 0, 64, 36
1, 116028, Note_off_c, 0, 61, 59
1, 116037, Note_on_c, 0, 59, 88
1, 116038, Control_c, 0, 64, 35
1, 116038, Control_c, 0, 67, 52
1, 116053, Control_c, 0, 64, 34
1, 116068, Control_c, 0, 64, 32
1, 116068, Control_c, 0, 67, 51
1, 116083, Control_c, 0, 64, 31
1, 116098, Control_c, 0, 64, 29
1, 116133, Note_on_c, 0, 57, 83
1, 116135, Control_c, 0, 64, 28
1, 116138, Note_off_c, 0, 59, 63
1, 116164, Control_c, 0, 64, 27
1, 116164, Control_c, 0, 67, 51
1, 116179, Control_c, 0, 64, 26
1, 116194, Control_c, 0, 64, 25
1, 116206, Note_on_c, 0, 56, 67
1, 116209, Control_c, 0, 64, 24
1, 116224, Control_c, 0, 64, 22
1, 116232, Note_off_c, 0, 57, 54
1, 116238, Control_c, 0, 67, 50
1, 116253, Control_c, 0, 64, 21
1, 116283, Control_c, 0, 64, 19
1, 116283, Control_c, 0, 67, 50
1, 116284, Note_off_c, 0, 56, 64
1, 116298, Control_c, 0, 64, 18
1, 116306, Note_on_c, 0, 54, 54
1, 116327, Control_c, 0, 64, 19
1, 116327, Control_c, 0, 67, 49
1, 116342, Control_c, 0, 67, 49
1, 116356, Control_c, 0, 64, 22
1, 116371, Note_off_c, 0, 54, 61
1, 116371, Control_c, 0, 64, 24
1, 116388, Control_c, 0, 64, 27
1, 116403, Control_c, 0, 64, 29
1, 116412, Note_on_c, 0, 52, 56
1, 116417, Control_c, 0, 64, 32
1, 116432, Control_c, 0, 64, 33
1, 116432, Control_c, 0, 67, 48
1, 116447, Control_c, 0, 64, 34
1, 116461, Control_c, 0, 64, 35
1, 116476, Control_c, 0, 64, 36
1, 116476, Control_c, 0, 67, 48
1, 116505, Note_on_c, 0, 76, 67
1, 116550, Control_c, 0, 67, 47
1, 116594, Note_on_c, 0, 75, 68
1, 116609, Control_c, 0, 64, 35
1, 116609, Control_c, 0, 67, 47
1, 116654, Control_c, 0, 67, 46
1, 116683, Control_c, 0, 64, 34
1, 116686, Note_on_c, 0, 73, 76
1, 116698, Control_c, 0, 64, 34
1, 116714, Control_c, 0, 64, 33
1, 116714, Control_c, 0, 67, 46
1, 116743, Control_c, 0, 67, 45
1, 116760, Note_on_c, 0, 71, 78
1, 116773, Control_c, 0, 64, 32
1, 116773, Control_c, 0, 67, 45
1, 116779, Note_off_c, 0, 76, 40
1, 116781, Note_off_c, 0, 75, 61
1, 116788, Control_c, 0, 64, 31
1, 116788, Control_c, 0, 67, 44
1, 116803, Control_c, 0, 64, 30
1, 116803, Control_c, 0, 67, 44
1, 116803, Note_off_c, 0, 73, 63
1, 116818, Control_c, 0, 64, 28
1, 116818, Control_c, 0, 67, 43
1, 116820, Note_off_c, 0, 71, 63
1, 116821, Note_on_c, 0, 69, 85
1, 116832, Control_c, 0, 64, 27
1, 116832, Control_c, 0, 67, 41
1, 116847, Control_c, 0, 64, 26
1, 116847, Control_c, 0, 67, 40
1, 116869, Control_c, 0, 67, 39
1, 116884, Control_c, 0, 67, 38
1, 116899, Control_c, 0, 67, 37
1, 116906, Note_on_c, 0, 68, 81
1, 116914, Control_c, 0, 64, 25
1, 116914, Control_c, 0, 67, 36
1, 116916, Note_off_c, 0, 69, 60
1, 116929, Control_c, 0, 64, 24
1, 116929, Control_c, 0, 67, 34
1, 116943, Control_c, 0, 67, 32
1, 116958, Control_c, 0, 64, 22
1, 116958, Control_c, 0, 67, 30
1, 116973, Control_c, 0, 64, 21
1, 116973, Control_c, 0, 67, 29
1, 116987, Note_on_c, 0, 66, 75
1, 116987, Control_c, 0, 64, 19
1, 116991, Note_off_c, 0, 52, 32
1, 117002, Control_c, 0, 64, 18
1, 117012, Note_off_c, 0, 68, 61
1, 117017, Control_c, 0, 64, 16
1, 117017, Control_c, 0, 67, 28
1, 117032, Control_c, 0, 64, 13
1, 117046, Note_off_c, 0, 66, 65
1, 117047, Control_c, 0, 67, 28
1, 117065, Note_on_c, 0, 64, 61
1, 117092, Control_c, 0, 64, 0
1, 117132, Note_off_c, 0, 64, 50
1, 117141, Note_on_c, 0, 57, 50
1, 117150, Note_on_c, 0, 63, 60
1, 117151, Control_c, 0, 67, 28
1, 117185, Note_off_c, 0, 57, 57
1, 117223, Note_off_c, 0, 63, 64
1, 117239, Note_on_c, 0, 66, 57
1, 117256, Control_c, 0, 67, 29
1, 117303, Note_off_c, 0, 66, 58
1, 117318, Note_on_c, 0, 71, 54
1, 117330, Control_c, 0, 67, 28
1, 117375, Note_on_c, 0, 56, 51
1, 117389, Control_c, 0, 67, 29
1, 117399, Note_off_c, 0, 71, 43
1, 117401, Note_on_c, 0, 64, 66
1, 117414, Note_off_c, 0, 56, 61
1, 117470, Note_off_c, 0, 64, 48
1, 117477, Note_on_c, 0, 68, 60
1, 117492, Control_c, 0, 67, 29
1, 117541, Note_off_c, 0, 68, 62
1, 117569, Note_on_c, 0, 71, 55
1, 117581, Control_c, 0, 67, 30
1, 117618, Control_c, 0, 67, 29
1, 117641, Note_off_c, 0, 71, 52
1, 117655, Note_on_c, 0, 51, 52
1, 117661, Note_on_c, 0, 66, 69
1, 117692, Control_c, 0, 67, 30
1, 117696, Note_off_c, 0, 51, 61
1, 117728, Note_off_c, 0, 66, 64
1, 117752, Note_on_c, 0, 69, 60
1, 117815, Note_off_c, 0, 69, 62
1, 117836, Note_on_c, 0, 71, 53
1, 117900, Control_c, 0, 67, 29
1, 117905, Note_on_c, 0, 52, 57
1, 117905, Note_off_c, 0, 71, 55
1, 117907, Note_on_c, 0, 68, 63
1, 117937, Note_off_c, 0, 52, 67
1, 117978, Note_off_c, 0, 68, 64
1, 117996, Note_on_c, 0, 69, 56
1, 118058, Note_off_c, 0, 69, 62
1, 118076, Note_on_c, 0, 71, 60
1, 118135, Note_off_c, 0, 71, 57
1, 118151, Note_on_c, 0, 54, 60
1, 118153, Control_c, 0, 67, 29
1, 118168, Note_on_c, 0, 69, 75
1, 118180, Note_off_c, 0, 54, 63
1, 118182, Control_c, 0, 67, 29
1, 118260, Note_on_c, 0, 71, 62
1, 118263, Note_off_c, 0, 69, 55
1, 118270, Control_c, 0, 67, 29
1, 118328, Note_off_c, 0, 71, 57
1, 118347, Note_on_c, 0, 73, 61
1, 118367, Control_c, 0, 67, 28
1, 118396, Control_c, 0, 67, 28
1, 118425, Control_c, 0, 67, 27
1, 118436, Note_on_c, 0, 56, 75
1, 118440, Control_c, 0, 67, 27
1, 118451, Note_off_c, 0, 73, 59
1, 118454, Note_on_c, 0, 71, 64
1, 118455, Control_c, 0, 64, 18
1, 118455, Control_c, 0, 67, 26
1, 118470, Control_c, 0, 64, 34
1, 118470, Control_c, 0, 67, 25
1, 118485, Control_c, 0, 64, 42
1, 118485, Control_c, 0, 67, 22
1, 118499, Control_c, 0, 64, 46
1, 118499, Control_c, 0, 67, 16
1, 118514, Control_c, 0, 64, 49
1, 118514, Control_c, 0, 67, 12
1, 118529, Control_c, 0, 64, 51
1, 118529, Control_c, 0, 67, 8
1, 118530, Note_off_c, 0, 71, 56
1, 118544, Control_c, 0, 64, 52
1, 118544, Control_c, 0, 67, 0
1, 118546, Note_on_c, 0, 76, 56
1, 118558, Control_c, 0, 64, 53
1, 118573, Control_c, 0, 64, 54
1, 118588, Control_c, 0, 64, 55
1, 118636, Note_on_c, 0, 75, 62
1, 118716, Note_on_c, 0, 73, 68
1, 118761, Note_off_c, 0, 76, 35
1, 118794, Note_off_c, 0, 75, 62
1, 118796, Note_on_c, 0, 71, 73
1, 118827, Control_c, 0, 64, 55
1, 118828, Note_off_c, 0, 73, 63
1, 118854, Note_off_c, 0, 71, 58
1, 118866, Note_on_c, 0, 69, 79
1, 118871, Control_c, 0, 64, 54
1, 118886, Control_c, 0, 64, 54
1, 118901, Control_c, 0, 64, 53
1, 118916, Control_c, 0, 64, 53
1, 118930, Control_c, 0, 64, 52
1, 118943, Note_off_c, 0, 69, 56
1, 118945, Control_c, 0, 64, 51
1, 118947, Note_on_c, 0, 68, 76
1, 118960, Control_c, 0, 64, 49
1, 118974, Control_c, 0, 64, 48
1, 118983, Note_off_c, 0, 56, 48
1, 118989, Control_c, 0, 64, 47
1, 119004, Control_c, 0, 64, 46
1, 119019, Control_c, 0, 64, 44
1, 119029, Note_on_c, 0, 66, 74
1, 119032, Note_off_c, 0, 68, 63
1, 119034, Control_c, 0, 64, 41
1, 119048, Control_c, 0, 64, 35
1, 119063, Control_c, 0, 64, 28
1, 119078, Control_c, 0, 64, 18
1, 119091, Note_off_c, 0, 66, 65
1, 119093, Control_c, 0, 64, 0
1, 119128, Note_on_c, 0, 64, 63
1, 119195, Note_off_c, 0, 64, 52
1, 119214, Note_on_c, 0, 63, 64
1, 119222, Note_on_c, 0, 57, 74
1, 119244, Note_off_c, 0, 57, 66
1, 119290, Note_off_c, 0, 63, 63
1, 119307, Note_on_c, 0, 66, 62
1, 119382, Note_off_c, 0, 66, 61
1, 119398, Note_on_c, 0, 71, 56
1, 119471, Note_on_c, 0, 56, 85
1, 119479, Note_on_c, 0, 64, 66
1, 119497, Note_off_c, 0, 56, 67
1, 119509, Note_off_c, 0, 71, 48
1, 119561, Note_on_c, 0, 68, 61
1, 119563, Note_off_c, 0, 64, 51
1, 119646, Note_off_c, 0, 68, 62
1, 119661, Note_on_c, 0, 71, 58
1, 119733, Note_on_c, 0, 51, 84
1, 119742, Note_off_c, 0, 71, 57
1, 119751, Note_on_c, 0, 66, 69
1, 119762, Note_off_c, 0, 51, 67
1, 119812, Note_off_c, 0, 66, 64
1, 119833, Note_on_c, 0, 69, 57
1, 119915, Note_off_c, 0, 69, 58
1, 119946, Note_on_c, 0, 71, 46
1, 120001, Note_on_c, 0, 52, 83
1, 120015, Note_off_c, 0, 71, 55
1, 120019, Note_on_c, 0, 68, 58
1, 120027, Note_off_c, 0, 52, 69
1, 120089, Note_off_c, 0, 68, 64
1, 120102, Note_on_c, 0, 69, 66
1, 120157, Note_off_c, 0, 69, 61
1, 120180, Note_on_c, 0, 71, 58
1, 120237, Note_off_c, 0, 71, 57
1, 120269, Note_on_c, 0, 54, 85
1, 120270, Note_on_c, 0, 69, 66
1, 120293, Note_off_c, 0, 54, 66
1, 120354, Note_off_c, 0, 69, 56
1, 120357, Note_on_c, 0, 71, 60
1, 120420, Note_off_c, 0, 71, 58
1, 120442, Note_on_c, 0, 73, 55
1, 120540, Note_on_c, 0, 71, 66
1, 120546, Note_on_c, 0, 56, 79
1, 120547, Control_c, 0, 64, 10
1, 120550, Note_off_c, 0, 73, 53
1, 120562, Control_c, 0, 64, 29
1, 120576, Control_c, 0, 64, 34
1, 120591, Control_c, 0, 64, 39
1, 120614, Control_c, 0, 64, 42
1, 120628, Control_c, 0, 64, 46
1, 120643, Control_c, 0, 64, 50
1, 120645, Note_off_c, 0, 71, 59
1, 120658, Control_c, 0, 64, 53
1, 120660, Note_on_c, 0, 76, 58
1, 120673, Control_c, 0, 64, 55
1, 120688, Control_c, 0, 64, 57
1, 120702, Control_c, 0, 64, 58
1, 120717, Control_c, 0, 64, 59
1, 120732, Control_c, 0, 64, 59
1, 120747, Control_c, 0, 64, 60
1, 120749, Note_on_c, 0, 75, 67
1, 120761, Control_c, 0, 64, 60
1, 120791, Control_c, 0, 64, 61
1, 120821, Control_c, 0, 64, 61
1, 120830, Note_on_c, 0, 73, 74
1, 120866, Control_c, 0, 64, 62
1, 120901, Note_on_c, 0, 71, 78
1, 120923, Note_off_c, 0, 75, 61
1, 120946, Note_off_c, 0, 76, 38
1, 120948, Note_off_c, 0, 73, 61
1, 120969, Note_off_c, 0, 71, 61
1, 120976, Note_on_c, 0, 69, 83
1, 120984, Control_c, 0, 64, 61
1, 121028, Control_c, 0, 64, 61
1, 121056, Note_on_c, 0, 68, 82
1, 121058, Control_c, 0, 64, 60
1, 121068, Note_off_c, 0, 69, 62
1, 121073, Control_c, 0, 64, 59
1, 121079, Note_off_c, 0, 56, 50
1, 121088, Control_c, 0, 64, 59
1, 121102, Control_c, 0, 64, 57
1, 121117, Control_c, 0, 64, 54
1, 121132, Control_c, 0, 64, 51
1, 121134, Note_on_c, 0, 66, 83
1, 121146, Control_c, 0, 64, 46
1, 121161, Control_c, 0, 64, 37
1, 121164, Note_off_c, 0, 68, 63
1, 121177, Control_c, 0, 64, 19
1, 121192, Control_c, 0, 64, 0
1, 121209, Note_on_c, 0, 64, 73
1, 121213, Note_off_c, 0, 66, 66
1, 121292, Note_on_c, 0, 74, 74
1, 121331, Note_off_c, 0, 64, 40
1, 121374, Note_on_c, 0, 73, 66
1, 121429, Note_off_c, 0, 74, 61
1, 121450, Note_on_c, 0, 71, 68
1, 121471, Note_off_c, 0, 73, 57
1, 121545, Note_on_c, 0, 72, 76
1, 121590, Note_off_c, 0, 71, 57
1, 121834, Note_on_c, 0, 64, 45
1, 121848, Note_on_c, 0, 57, 36
1, 121879, Note_off_c, 0, 64, 61
1, 121899, Note_off_c, 0, 57, 57
1, 122096, Note_off_c, 0, 72, 61
1, 122125, Note_on_c, 0, 73, 55
1, 122127, Note_on_c, 0, 64, 37
1, 122133, Note_on_c, 0, 57, 30
1, 122174, Note_off_c, 0, 73, 63
1, 122392, Note_off_c, 0, 57, 49
1, 122410, Note_off_c, 0, 64, 53
1, 122432, Note_on_c, 0, 81, 55
1, 122513, Note_on_c, 0, 80, 51
1, 122550, Note_off_c, 0, 81, 54
1, 122595, Note_off_c, 0, 80, 61
1, 122599, Note_on_c, 0, 78, 57
1, 122689, Note_off_c, 0, 78, 58
1, 122701, Note_on_c, 0, 77, 51
1, 123012, Note_on_c, 0, 68, 37
1, 123015, Note_on_c, 0, 71, 38
1, 123201, Control_c, 0, 64, 13
1, 123215, Control_c, 0, 64, 37
1, 123230, Control_c, 0, 64, 48
1, 123245, Control_c, 0, 64, 54
1, 123260, Control_c, 0, 64, 58
1, 123275, Control_c, 0, 64, 61
1, 123290, Control_c, 0, 64, 63
1, 123303, Note_off_c, 0, 77, 50
1, 123304, Control_c, 0, 64, 63
1, 123316, Note_on_c, 0, 78, 49
1, 123318, Note_on_c, 0, 73, 39
1, 123319, Note_on_c, 0, 69, 40
1, 123319, Note_off_c, 0, 71, 35
1, 123319, Control_c, 0, 64, 64
1, 123326, Note_off_c, 0, 68, 41
1, 123334, Control_c, 0, 64, 65
1, 123349, Control_c, 0, 64, 66
1, 123379, Control_c, 0, 64, 66
1, 123408, Control_c, 0, 64, 67
1, 123423, Control_c, 0, 64, 68
1, 123438, Control_c, 0, 64, 69
1, 123453, Control_c, 0, 64, 70
1, 123459, Note_off_c, 0, 73, 51
1, 123468, Note_off_c, 0, 69, 61
1, 123468, Control_c, 0, 64, 71
1, 123471, Note_off_c, 0, 78, 36
1, 123483, Control_c, 0, 64, 71
1, 123497, Control_c, 0, 64, 72
1, 123609, Control_c, 0, 64, 71
1, 123648, Note_on_c, 0, 85, 71
1, 123683, Control_c, 0, 64, 71
1, 123753, Note_on_c, 0, 81, 80
1, 123757, Control_c, 0, 64, 70
1, 123832, Control_c, 0, 64, 70
1, 123844, Note_on_c, 0, 78, 85
1, 123906, Control_c, 0, 64, 69
1, 123935, Control_c, 0, 64, 69
1, 123950, Control_c, 0, 64, 68
1, 123965, Control_c, 0, 64, 66
1, 123979, Control_c, 0, 64, 64
1, 123994, Control_c, 0, 64, 62
1, 123996, Note_off_c, 0, 81, 53
1, 123998, Note_off_c, 0, 85, 34
1, 124009, Control_c, 0, 64, 59
1, 124024, Control_c, 0, 64, 51
1, 124025, Note_on_c, 0, 59, 34
1, 124030, Note_on_c, 0, 76, 82
1, 124036, Note_on_c, 0, 68, 38
1, 124038, Control_c, 0, 64, 19
1, 124053, Control_c, 0, 64, 0
1, 124122, Note_off_c, 0, 78, 59
1, 124797, Note_off_c, 0, 68, 40
1, 124805, Note_on_c, 0, 66, 28
1, 124817, Note_off_c, 0, 76, 39
1, 124822, Note_on_c, 0, 75, 31
1, 124899, Note_off_c, 0, 59, 30
1, 124992, Note_off_c, 0, 66, 42
1, 125011, Note_off_c, 0, 75, 46
1, 125506, Control_c, 0, 64, 32
1, 125521, Control_c, 0, 64, 41
1, 125529, Note_on_c, 0, 52, 56
1, 125536, Control_c, 0, 64, 53
1, 125539, Note_on_c, 0, 88, 93
1, 125544, Note_on_c, 0, 80, 76
1, 125550, Note_on_c, 0, 76, 78
1, 125550, Control_c, 0, 64, 62
1, 125565, Control_c, 0, 64, 65
1, 125580, Control_c, 0, 64, 67
1, 125595, Control_c, 0, 64, 68
1, 125610, Control_c, 0, 64, 69
1, 125624, Control_c, 0, 64, 71
1, 125639, Note_off_c, 0, 52, 65
1, 125639, Control_c, 0, 64, 73
1, 125639, Control_c, 0, 67, 8
1, 125654, Control_c, 0, 64, 77
1, 125654, Control_c, 0, 67, 9
1, 125660, Note_on_c, 0, 56, 51
1, 125669, Control_c, 0, 64, 79
1, 125675, Note_off_c, 0, 76, 65
1, 125684, Control_c, 0, 64, 80
1, 125684, Control_c, 0, 67, 8
1, 125686, Note_off_c, 0, 56, 59
1, 125698, Note_off_c, 0, 80, 61
1, 125698, Note_off_c, 0, 88, 64
1, 125698, Control_c, 0, 64, 80
1, 125698, Control_c, 0, 67, 9
1, 125713, Control_c, 0, 67, 9
1, 125717, Note_on_c, 0, 57, 59
1, 125742, Control_c, 0, 67, 10
1, 125755, Note_off_c, 0, 57, 59
1, 125757, Control_c, 0, 67, 10
1, 125772, Control_c, 0, 67, 11
1, 125787, Control_c, 0, 64, 80
1, 125787, Control_c, 0, 67, 16
1, 125802, Note_on_c, 0, 59, 62
1, 125802, Control_c, 0, 64, 79
1, 125802, Control_c, 0, 67, 20
1, 125817, Control_c, 0, 64, 79
1, 125817, Control_c, 0, 67, 21
1, 125832, Control_c, 0, 64, 78
1, 125832, Control_c, 0, 67, 21
1, 125869, Control_c, 0, 64, 77
1, 125869, Control_c, 0, 67, 20
1, 125879, Note_off_c, 0, 59, 57
1, 125882, Note_on_c, 0, 61, 72
1, 125884, Control_c, 0, 64, 76
1, 125884, Control_c, 0, 67, 20
1, 125898, Control_c, 0, 64, 74
1, 125913, Control_c, 0, 64, 72
1, 125928, Control_c, 0, 64, 69
1, 125942, Control_c, 0, 64, 66
1, 125957, Control_c, 0, 64, 65
1, 125957, Control_c, 0, 67, 19
1, 125966, Note_on_c, 0, 63, 71
1, 125969, Note_off_c, 0, 61, 61
1, 125973, Control_c, 0, 64, 64
1, 125988, Control_c, 0, 64, 64
1, 125988, Control_c, 0, 67, 19
1, 126003, Control_c, 0, 64, 62
1, 126018, Control_c, 0, 64, 59
1, 126026, Note_off_c, 0, 63, 64
1, 126033, Control_c, 0, 64, 55
1, 126038, Note_on_c, 0, 64, 78
1, 126047, Control_c, 0, 64, 52
1, 126062, Control_c, 0, 64, 50
1, 126062, Control_c, 0, 67, 18
1, 126077, Control_c, 0, 64, 47
1, 126092, Control_c, 0, 64, 42
1, 126092, Control_c, 0, 67, 18
1, 126107, Control_c, 0, 64, 36
1, 126112, Note_on_c, 0, 66, 79
1, 126121, Note_off_c, 0, 64, 63
1, 126121, Control_c, 0, 64, 30
1, 126121, Control_c, 0, 67, 17
1, 126136, Control_c, 0, 64, 22
1, 126151, Control_c, 0, 64, 18
1, 126166, Control_c, 0, 64, 16
1, 126181, Control_c, 0, 64, 0
1, 126181, Control_c, 0, 67, 17
1, 126195, Control_c, 0, 67, 16
1, 126206, Note_on_c, 0, 68, 67
1, 126212, Note_off_c, 0, 66, 58
1, 126225, Control_c, 0, 67, 16
1, 126240, Control_c, 0, 67, 15
1, 126270, Control_c, 0, 67, 15
1, 126272, Note_off_c, 0, 68, 63
1, 126284, Note_on_c, 0, 69, 69
1, 126288, Note_on_c, 0, 71, 55
1, 126300, Control_c, 0, 67, 14
1, 126314, Control_c, 0, 67, 13
1, 126329, Control_c, 0, 67, 13
1, 126344, Control_c, 0, 67, 12
1, 126356, Note_off_c, 0, 71, 55
1, 126359, Control_c, 0, 67, 12
1, 126373, Control_c, 0, 67, 11
1, 126376, Note_on_c, 0, 73, 50
1, 126403, Control_c, 0, 67, 10
1, 126433, Control_c, 0, 67, 9
1, 126448, Control_c, 0, 67, 9
1, 126463, Note_off_c, 0, 73, 58
1, 126463, Control_c, 0, 67, 0
1, 126469, Note_on_c, 0, 75, 48
1, 126513, Note_off_c, 0, 69, 57
1, 126518, Note_off_c, 0, 75, 64
1, 126547, Note_on_c, 0, 68, 49
1, 126565, Note_on_c, 0, 76, 66
1, 126657, Note_on_c, 0, 80, 64
1, 126661, Note_off_c, 0, 76, 59
1, 126664, Note_off_c, 0, 68, 61
1, 126721, Note_off_c, 0, 80, 64
1, 126728, Note_on_c, 0, 83, 68
1, 126787, Note_off_c, 0, 83, 60
1, 126798, Note_on_c, 0, 88, 75
1, 126887, Note_on_c, 0, 87, 73
1, 126957, Note_on_c, 0, 85, 79
1, 127004, Note_off_c, 0, 88, 35
1, 127039, Note_on_c, 0, 83, 79
1, 127047, Note_off_c, 0, 87, 61
1, 127080, Note_off_c, 0, 85, 65
1, 127105, Note_off_c, 0, 83, 62
1, 127110, Note_on_c, 0, 81, 82
1, 127190, Note_off_c, 0, 81, 55
1, 127191, Note_on_c, 0, 80, 75
1, 127256, Note_off_c, 0, 80, 64
1, 127258, Note_on_c, 0, 78, 76
1, 127259, Note_on_c, 0, 63, 52
1, 127281, Note_on_c, 0, 59, 18
1, 127281, Note_off_c, 0, 63, 62
1, 127317, Note_off_c, 0, 59, 39
1, 127349, Note_off_c, 0, 78, 60
1, 127350, Note_on_c, 0, 80, 72
1, 127421, Note_off_c, 0, 80, 60
1, 127435, Note_on_c, 0, 81, 66
1, 127531, Note_on_c, 0, 52, 51
1, 127537, Note_off_c, 0, 81, 55
1, 127541, Note_on_c, 0, 80, 62
1, 127591, Control_c, 0, 64, 46
1, 127605, Control_c, 0, 64, 54
1, 127607, Note_off_c, 0, 52, 63
1, 127620, Control_c, 0, 64, 57
1, 127625, Note_on_c, 0, 56, 49
1, 127635, Control_c, 0, 64, 59
1, 127650, Control_c, 0, 64, 60
1, 127665, Control_c, 0, 64, 61
1, 127670, Note_off_c, 0, 56, 60
1, 127694, Control_c, 0, 64, 60
1, 127704, Note_on_c, 0, 57, 61
1, 127709, Control_c, 0, 64, 60
1, 127724, Control_c, 0, 64, 59
1, 127753, Control_c, 0, 64, 59
1, 127755, Note_off_c, 0, 57, 56
1, 127768, Control_c, 0, 64, 58
1, 127778, Note_off_c, 0, 80, 61
1, 127798, Note_on_c, 0, 59, 61
1, 127812, Control_c, 0, 64, 58
1, 127827, Control_c, 0, 64, 57
1, 127842, Control_c, 0, 64, 57
1, 127857, Control_c, 0, 64, 55
1, 127863, Note_on_c, 0, 61, 76
1, 127872, Control_c, 0, 64, 52
1, 127875, Note_off_c, 0, 59, 61
1, 127886, Control_c, 0, 64, 49
1, 127901, Control_c, 0, 64, 46
1, 127916, Control_c, 0, 64, 43
1, 127931, Control_c, 0, 64, 40
1, 127945, Control_c, 0, 64, 36
1, 127950, Note_on_c, 0, 63, 80
1, 127958, Note_off_c, 0, 61, 64
1, 127960, Control_c, 0, 64, 34
1, 127975, Control_c, 0, 64, 30
1, 127990, Control_c, 0, 64, 25
1, 128005, Control_c, 0, 64, 18
1, 128015, Note_off_c, 0, 63, 66
1, 128020, Control_c, 0, 64, 0
1, 128032, Note_on_c, 0, 64, 79
1, 128100, Note_off_c, 0, 64, 58
1, 128114, Note_on_c, 0, 66, 76
1, 128202, Note_off_c, 0, 66, 63
1, 128206, Note_on_c, 0, 68, 74
1, 128234, Control_c, 0, 67, 8
1, 128249, Control_c, 0, 67, 8
1, 128264, Control_c, 0, 67, 9
1, 128266, Note_off_c, 0, 68, 64
1, 128279, Control_c, 0, 67, 10
1, 128289, Note_on_c, 0, 69, 71
1, 128294, Control_c, 0, 67, 11
1, 128302, Note_on_c, 0, 71, 46
1, 128309, Control_c, 0, 67, 11
1, 128324, Control_c, 0, 67, 12
1, 128338, Control_c, 0, 67, 12
1, 128353, Control_c, 0, 67, 13
1, 128377, Note_off_c, 0, 71, 55
1, 128383, Control_c, 0, 67, 13
1, 128384, Note_on_c, 0, 73, 49
1, 128413, Control_c, 0, 67, 14
1, 128428, Control_c, 0, 67, 15
1, 128443, Control_c, 0, 67, 15
1, 128458, Control_c, 0, 67, 17
1, 128469, Note_off_c, 0, 73, 52
1, 128473, Control_c, 0, 67, 18
1, 128476, Note_on_c, 0, 75, 50
1, 128488, Control_c, 0, 67, 19
1, 128503, Control_c, 0, 67, 21
1, 128515, Note_off_c, 0, 69, 57
1, 128517, Control_c, 0, 67, 22
1, 128521, Note_off_c, 0, 75, 65
1, 128532, Control_c, 0, 67, 23
1, 128547, Control_c, 0, 67, 24
1, 128550, Note_on_c, 0, 68, 50
1, 128561, Control_c, 0, 67, 25
1, 128572, Note_on_c, 0, 76, 64
1, 128576, Control_c, 0, 67, 26
1, 128591, Control_c, 0, 67, 27
1, 128606, Control_c, 0, 67, 28
1, 128621, Control_c, 0, 67, 29
1, 128635, Control_c, 0, 67, 30
1, 128650, Note_on_c, 0, 80, 68
1, 128650, Control_c, 0, 67, 30
1, 128665, Control_c, 0, 67, 31
1, 128673, Note_off_c, 0, 76, 54
1, 128680, Control_c, 0, 67, 32
1, 128694, Control_c, 0, 67, 34
1, 128708, Control_c, 0, 67, 35
1, 128713, Note_off_c, 0, 80, 64
1, 128715, Note_on_c, 0, 83, 62
1, 128723, Control_c, 0, 67, 36
1, 128726, Note_off_c, 0, 68, 52
1, 128738, Control_c, 0, 67, 37
1, 128753, Control_c, 0, 67, 37
1, 128768, Control_c, 0, 67, 38
1, 128779, Note_off_c, 0, 83, 60
1, 128783, Control_c, 0, 67, 40
1, 128792, Note_on_c, 0, 88, 67
1, 128798, Control_c, 0, 67, 41
1, 128813, Control_c, 0, 67, 43
1, 128834, Control_c, 0, 67, 45
1, 128849, Control_c, 0, 67, 46
1, 128864, Control_c, 0, 67, 48
1, 128879, Control_c, 0, 67, 49
1, 128887, Note_on_c, 0, 87, 63
1, 128909, Control_c, 0, 67, 50
1, 128938, Note_off_c, 0, 88, 55
1, 128938, Control_c, 0, 67, 51
1, 128953, Control_c, 0, 67, 52
1, 128961, Note_on_c, 0, 85, 59
1, 128968, Control_c, 0, 67, 53
1, 128983, Control_c, 0, 67, 54
1, 128998, Control_c, 0, 67, 55
1, 129002, Note_off_c, 0, 87, 47
1, 129012, Control_c, 0, 67, 57
1, 129027, Control_c, 0, 67, 58
1, 129042, Control_c, 0, 67, 60
1, 129046, Note_off_c, 0, 85, 60
1, 129053, Note_on_c, 0, 83, 56
1, 129057, Control_c, 0, 67, 62
1, 129072, Control_c, 0, 67, 64
1, 129086, Control_c, 0, 67, 66
1, 129092, Note_off_c, 0, 83, 58
1, 129101, Control_c, 0, 67, 67
1, 129116, Control_c, 0, 67, 69
1, 129131, Control_c, 0, 67, 70
1, 129146, Control_c, 0, 67, 71
1, 129161, Control_c, 0, 67, 72
1, 129176, Control_c, 0, 67, 73
1, 129191, Control_c, 0, 67, 73
1, 129206, Control_c, 0, 67, 74
1, 129221, Control_c, 0, 67, 74
1, 129251, Control_c, 0, 67, 75
1, 129265, Control_c, 0, 67, 76
1, 129280, Control_c, 0, 67, 78
1, 129295, Control_c, 0, 67, 80
1, 129310, Control_c, 0, 67, 82
1, 129325, Control_c, 0, 67, 85
1, 129339, Control_c, 0, 67, 87
1, 129354, Control_c, 0, 67, 89
1, 129369, Control_c, 0, 67, 90
1, 129378, Note_on_c, 0, 73, 37
1, 129383, Control_c, 0, 67, 92
1, 129388, Note_on_c, 0, 88, 47
1, 129398, Control_c, 0, 67, 93
1, 129413, Control_c, 0, 67, 95
1, 129417, Note_off_c, 0, 73, 52
1, 129428, Control_c, 0, 67, 97
1, 129443, Control_c, 0, 67, 100
1, 129457, Control_c, 0, 67, 102
1, 129463, Note_on_c, 0, 87, 47
1, 129471, Note_on_c, 0, 71, 42
1, 129472, Control_c, 0, 67, 104
1, 129487, Control_c, 0, 67, 105
1, 129489, Note_off_c, 0, 88, 37
1, 129502, Control_c, 0, 67, 106
1, 129516, Control_c, 0, 67, 107
1, 129520, Note_off_c, 0, 71, 57
1, 129531, Control_c, 0, 67, 107
1, 129533, Note_off_c, 0, 87, 58
1, 129537, Note_on_c, 0, 85, 56
1, 129543, Note_on_c, 0, 69, 33
1, 129546, Control_c, 0, 67, 108
1, 129561, Control_c, 0, 67, 108
1, 129576, Control_c, 0, 67, 110
1, 129578, Note_off_c, 0, 69, 55
1, 129578, Note_off_c, 0, 85, 62
1, 129598, Control_c, 0, 67, 111
1, 129613, Control_c, 0, 67, 113
1, 129617, Note_on_c, 0, 68, 46
1, 129628, Control_c, 0, 67, 115
1, 129635, Note_on_c, 0, 83, 42
1, 129643, Control_c, 0, 67, 116
1, 129655, Note_off_c, 0, 68, 53
1, 129658, Control_c, 0, 67, 117
1, 129672, Control_c, 0, 67, 117
1, 129681, Note_on_c, 0, 69, 55
1, 129687, Control_c, 0, 67, 118
1, 129695, Note_off_c, 0, 83, 35
1, 129698, Note_on_c, 0, 85, 55
1, 129702, Control_c, 0, 67, 118
1, 129716, Control_c, 0, 67, 119
1, 129728, Note_off_c, 0, 69, 62
1, 129731, Control_c, 0, 67, 119
1, 129742, Note_off_c, 0, 85, 56
1, 129746, Control_c, 0, 67, 120
1, 129767, Note_on_c, 0, 71, 50
1, 129770, Note_on_c, 0, 87, 59
1, 129776, Control_c, 0, 67, 120
1, 129790, Control_c, 0, 67, 121
1, 129805, Note_off_c, 0, 71, 63
1, 129812, Note_off_c, 0, 87, 60
1, 129832, Note_on_c, 0, 73, 56
1, 129847, Note_on_c, 0, 88, 64
1, 129870, Note_off_c, 0, 73, 62
1, 129880, Control_c, 0, 67, 121
1, 129905, Note_on_c, 0, 71, 43
1, 129920, Note_on_c, 0, 87, 68
1, 129932, Note_off_c, 0, 88, 51
1, 129939, Control_c, 0, 67, 122
1, 129957, Note_off_c, 0, 71, 59
1, 129969, Note_on_c, 0, 69, 52
1, 129991, Note_on_c, 0, 85, 68
1, 129998, Note_off_c, 0, 87, 62
1, 130020, Note_off_c, 0, 69, 62
1, 130029, Control_c, 0, 67, 123
1, 130031, Note_off_c, 0, 85, 64
1, 130041, Note_on_c, 0, 68, 63
1, 130053, Note_on_c, 0, 83, 70
1, 130059, Control_c, 0, 67, 124
1, 130074, Control_c, 0, 67, 125
1, 130088, Control_c, 0, 67, 126
1, 130103, Control_c, 0, 67, 127
1, 130106, Note_off_c, 0, 68, 62
1, 130126, Note_on_c, 0, 69, 59
1, 130130, Note_on_c, 0, 85, 67
1, 130132, Control_c, 0, 67, 127
1, 130142, Note_off_c, 0, 83, 53
1, 130185, Note_off_c, 0, 69, 62
1, 130190, Note_off_c, 0, 85, 64
1, 130194, Note_on_c, 0, 87, 67
1, 130203, Note_on_c, 0, 71, 58
1, 130252, Note_off_c, 0, 71, 62
1, 130255, Note_off_c, 0, 87, 62
1, 130270, Note_on_c, 0, 73, 62
1, 130274, Note_on_c, 0, 88, 70
1, 130315, Note_off_c, 0, 73, 61
1, 130344, Note_on_c, 0, 71, 42
1, 130360, Note_on_c, 0, 87, 70
1, 130397, Note_off_c, 0, 71, 59
1, 130402, Note_on_c, 0, 69, 61
1, 130402, Note_off_c, 0, 88, 48
1, 130431, Note_on_c, 0, 85, 75
1, 130446, Note_off_c, 0, 87, 65
1, 130465, Note_off_c, 0, 69, 61
1, 130485, Note_on_c, 0, 68, 62
1, 130486, Note_off_c, 0, 85, 65
1, 130497, Note_on_c, 0, 83, 78
1, 130518, Note_off_c, 0, 68, 64
1, 130579, Note_on_c, 0, 85, 72
1, 130592, Note_off_c, 0, 83, 52
1, 130634, Note_off_c, 0, 85, 60
1, 130655, Note_on_c, 0, 86, 70
1, 130705, Note_off_c, 0, 86, 60
1, 130720, Note_on_c, 0, 69, 50
1, 130726, Note_on_c, 0, 85, 71
1, 130750, Note_off_c, 0, 69, 60
1, 130783, Note_off_c, 0, 85, 63
1, 130804, Note_on_c, 0, 86, 68
1, 130871, Note_off_c, 0, 86, 57
1, 130895, Note_on_c, 0, 88, 65
1, 130986, Note_on_c, 0, 86, 64
1, 130986, Note_off_c, 0, 88, 57
1, 130998, Note_on_c, 0, 71, 40
1, 131030, Control_c, 0, 64, 29
1, 131045, Control_c, 0, 64, 57
1, 131060, Control_c, 0, 64, 62
1, 131075, Control_c, 0, 64, 63
1, 131097, Control_c, 0, 64, 64
1, 131111, Control_c, 0, 64, 65
1, 131126, Control_c, 0, 64, 65
1, 131141, Control_c, 0, 64, 66
1, 131156, Control_c, 0, 64, 66
1, 131185, Note_off_c, 0, 86, 58
1, 131230, Control_c, 0, 64, 67
1, 131275, Control_c, 0, 64, 67
1, 131289, Control_c, 0, 64, 68
1, 131303, Note_on_c, 0, 64, 36
1, 131304, Control_c, 0, 64, 69
1, 131305, Note_off_c, 0, 71, 24
1, 131319, Control_c, 0, 64, 70
1, 131334, Control_c, 0, 64, 70
1, 131349, Control_c, 0, 64, 71
1, 131452, Control_c, 0, 64, 70
1, 131467, Control_c, 0, 64, 70
1, 131481, Control_c, 0, 64, 69
1, 131496, Control_c, 0, 64, 68
1, 131511, Control_c, 0, 64, 67
1, 131513, Note_off_c, 0, 64, 21
1, 131526, Control_c, 0, 64, 65
1, 131541, Control_c, 0, 64, 64
1, 131557, Control_c, 0, 64, 63
1, 131572, Control_c, 0, 64, 63
1, 131585, Note_on_c, 0, 69, 35
1, 131586, Control_c, 0, 64, 62
1, 131601, Control_c, 0, 64, 62
1, 131605, Note_on_c, 0, 85, 43
1, 131631, Control_c, 0, 64, 61
1, 131655, Note_off_c, 0, 85, 57
1, 131670, Note_on_c, 0, 87, 51
1, 131690, Control_c, 0, 64, 62
1, 131715, Note_off_c, 0, 87, 60
1, 131734, Control_c, 0, 64, 62
1, 131756, Note_on_c, 0, 88, 60
1, 131764, Control_c, 0, 64, 62
1, 131809, Note_off_c, 0, 69, 37
1, 131841, Note_on_c, 0, 87, 64
1, 131855, Note_off_c, 0, 88, 52
1, 131922, Note_off_c, 0, 87, 64
1, 131930, Note_on_c, 0, 85, 57
1, 131964, Note_off_c, 0, 85, 65
1, 131986, Note_on_c, 0, 83, 67
1, 132023, Control_c, 0, 64, 61
1, 132041, Note_off_c, 0, 83, 47
1, 132068, Control_c, 0, 64, 61
1, 132070, Note_on_c, 0, 81, 71
1, 132098, Control_c, 0, 64, 60
1, 132112, Control_c, 0, 64, 60
1, 132127, Control_c, 0, 64, 59
1, 132145, Note_on_c, 0, 80, 67
1, 132157, Control_c, 0, 64, 59
1, 132169, Note_off_c, 0, 81, 51
1, 132186, Control_c, 0, 64, 58
1, 132201, Control_c, 0, 64, 58
1, 132223, Note_off_c, 0, 80, 64
1, 132226, Note_on_c, 0, 78, 69
1, 132231, Control_c, 0, 64, 57
1, 132246, Control_c, 0, 64, 57
1, 132260, Control_c, 0, 64, 56
1, 132273, Note_off_c, 0, 78, 63
1, 132275, Control_c, 0, 64, 55
1, 132290, Control_c, 0, 64, 55
1, 132292, Note_on_c, 0, 76, 66
1, 132304, Control_c, 0, 64, 54
1, 132334, Control_c, 0, 64, 54
1, 132350, Control_c, 0, 64, 53
1, 132362, Note_on_c, 0, 75, 64
1, 132363, Note_off_c, 0, 76, 64
1, 132365, Control_c, 0, 64, 51
1, 132380, Control_c, 0, 64, 47
1, 132395, Control_c, 0, 64, 39
1, 132409, Control_c, 0, 64, 10
1, 132424, Control_c, 0, 64, 0
1, 132430, Note_off_c, 0, 75, 64
1, 132432, Note_on_c, 0, 73, 68
1, 132488, Note_off_c, 0, 73, 59
1, 132512, Control_c, 0, 67, 127
1, 132524, Note_on_c, 0, 71, 59
1, 132542, Control_c, 0, 67, 126
1, 132557, Control_c, 0, 67, 125
1, 132572, Control_c, 0, 67, 124
1, 132594, Control_c, 0, 67, 124
1, 132608, Control_c, 0, 67, 123
1, 132623, Control_c, 0, 64, 41
1, 132623, Control_c, 0, 67, 123
1, 132638, Control_c, 0, 64, 51
1, 132638, Control_c, 0, 67, 122
1, 132653, Control_c, 0, 64, 57
1, 132653, Control_c, 0, 67, 120
1, 132668, Control_c, 0, 64, 61
1, 132668, Control_c, 0, 67, 119
1, 132682, Control_c, 0, 64, 63
1, 132682, Control_c, 0, 67, 118
1, 132697, Control_c, 0, 64, 65
1, 132697, Control_c, 0, 67, 116
1, 132712, Control_c, 0, 64, 66
1, 132712, Control_c, 0, 67, 114
1, 132727, Control_c, 0, 64, 68
1, 132727, Control_c, 0, 67, 111
1, 132733, Note_off_c, 0, 71, 58
1, 132742, Control_c, 0, 64, 70
1, 132742, Control_c, 0, 67, 107
1, 132756, Control_c, 0, 64, 72
1, 132756, Control_c, 0, 67, 100
1, 132771, Control_c, 0, 64, 73
1, 132771, Control_c, 0, 67, 95
1, 132786, Control_c, 0, 64, 74
1, 132786, Control_c, 0, 67, 90
1, 132801, Control_c, 0, 64, 75
1, 132801, Control_c, 0, 67, 84
1, 132816, Control_c, 0, 64, 76
1, 132816, Control_c, 0, 67, 77
1, 132829, Note_on_c, 0, 56, 48
1, 132831, Control_c, 0, 67, 69
1, 132846, Control_c, 0, 67, 60
1, 132861, Control_c, 0, 67, 49
1, 132876, Control_c, 0, 67, 39
1, 132890, Control_c, 0, 67, 29
1, 132905, Control_c, 0, 67, 19
1, 132920, Control_c, 0, 67, 9
1, 132934, Control_c, 0, 67, 0
1, 132949, Control_c, 0, 64, 75
1, 132950, Note_off_c, 0, 56, 34
1, 132979, Control_c, 0, 64, 75
1, 133008, Control_c, 0, 64, 74
1, 133023, Control_c, 0, 64, 73
1, 133038, Control_c, 0, 64, 72
1, 133053, Control_c, 0, 64, 72
1, 133068, Control_c, 0, 64, 71
1, 133082, Control_c, 0, 64, 70
1, 133093, Note_on_c, 0, 57, 39
1, 133097, Control_c, 0, 64, 70
1, 133115, Note_on_c, 0, 78, 48
1, 133126, Control_c, 0, 64, 69
1, 133138, Note_off_c, 0, 78, 59
1, 133141, Control_c, 0, 64, 69
1, 133157, Control_c, 0, 64, 68
1, 133172, Control_c, 0, 64, 68
1, 133177, Note_on_c, 0, 80, 54
1, 133206, Note_off_c, 0, 80, 62
1, 133227, Note_on_c, 0, 78, 66
1, 133257, Note_off_c, 0, 78, 64
1, 133272, Note_off_c, 0, 57, 34
1, 133287, Note_on_c, 0, 80, 74
1, 133317, Note_on_c, 0, 59, 32
1, 133329, Note_off_c, 0, 80, 64
1, 133347, Note_on_c, 0, 78, 71
1, 133360, Note_off_c, 0, 59, 49
1, 133365, Note_off_c, 0, 78, 61
1, 133394, Note_on_c, 0, 80, 70
1, 133428, Note_off_c, 0, 80, 61
1, 133429, Note_on_c, 0, 78, 74
1, 133466, Note_off_c, 0, 78, 57
1, 133469, Note_on_c, 0, 80, 70
1, 133519, Note_off_c, 0, 80, 65
1, 133521, Control_c, 0, 64, 67
1, 133525, Note_on_c, 0, 78, 76
1, 133536, Control_c, 0, 64, 66
1, 133551, Control_c, 0, 64, 61
1, 133565, Control_c, 0, 64, 40
1, 133580, Control_c, 0, 64, 0
1, 133593, Note_off_c, 0, 78, 62
1, 133623, Note_on_c, 0, 52, 51
1, 133624, Note_on_c, 0, 76, 65
1, 133669, Control_c, 0, 64, 50
1, 133683, Control_c, 0, 64, 58
1, 133692, Note_off_c, 0, 52, 58
1, 133698, Control_c, 0, 64, 60
1, 133711, Note_on_c, 0, 56, 51
1, 133713, Control_c, 0, 64, 62
1, 133728, Control_c, 0, 64, 63
1, 133743, Control_c, 0, 64, 63
1, 133758, Control_c, 0, 64, 64
1, 133773, Control_c, 0, 64, 64
1, 133788, Control_c, 0, 64, 65
1, 133791, Note_off_c, 0, 56, 54
1, 133791, Note_on_c, 0, 59, 55
1, 133803, Control_c, 0, 64, 65
1, 133807, Note_off_c, 0, 76, 64
1, 133847, Control_c, 0, 64, 66
1, 133856, Note_off_c, 0, 59, 63
1, 133874, Note_on_c, 0, 64, 63
1, 133876, Control_c, 0, 64, 66
1, 133891, Control_c, 0, 64, 67
1, 133906, Control_c, 0, 64, 67
1, 133925, Note_off_c, 0, 64, 56
1, 133953, Note_on_c, 0, 59, 61
1, 133981, Control_c, 0, 64, 66
1, 133991, Note_off_c, 0, 59, 58
1, 133996, Control_c, 0, 64, 65
1, 134011, Control_c, 0, 64, 61
1, 134026, Control_c, 0, 64, 24
1, 134032, Note_on_c, 0, 56, 60
1, 134041, Control_c, 0, 64, 0
1, 134096, Note_off_c, 0, 56, 57
1, 134107, Control_c, 0, 64, 28
1, 134122, Control_c, 0, 64, 53
1, 134137, Control_c, 0, 64, 59
1, 134141, Note_on_c, 0, 52, 68
1, 134151, Control_c, 0, 64, 61
1, 134166, Control_c, 0, 64, 63
1, 134168, Note_off_c, 0, 52, 69
1, 134181, Control_c, 0, 64, 64
1, 134196, Control_c, 0, 64, 64
1, 134226, Control_c, 0, 64, 65
1, 134344, Control_c, 0, 64, 64
1, 134359, Control_c, 0, 64, 64
1, 134374, Control_c, 0, 64, 63
1, 134388, Control_c, 0, 64, 60
1, 134403, Control_c, 0, 64, 57
1, 134418, Control_c, 0, 64, 54
1, 134429, Note_on_c, 0, 68, 75
1, 134433, Control_c, 0, 64, 51
1, 134447, Control_c, 0, 64, 47
1, 134452, Note_off_c, 0, 68, 70
1, 134455, Note_on_c, 0, 71, 44
1, 134462, Control_c, 0, 64, 40
1, 134477, Control_c, 0, 64, 33
1, 134492, Control_c, 0, 64, 30
1, 134504, Note_off_c, 0, 71, 60
1, 134536, Note_on_c, 0, 73, 48
1, 134566, Control_c, 0, 64, 29
1, 134591, Note_off_c, 0, 73, 58
1, 134611, Control_c, 0, 64, 28
1, 134620, Note_on_c, 0, 71, 54
1, 134625, Control_c, 0, 64, 26
1, 134640, Control_c, 0, 64, 25
1, 134655, Control_c, 0, 64, 24
1, 134700, Note_off_c, 0, 71, 47
1, 134716, Note_on_c, 0, 65, 83
1, 134728, Note_on_c, 0, 74, 54
1, 134820, Note_on_c, 0, 73, 54
1, 134858, Note_off_c, 0, 74, 52
1, 134901, Note_off_c, 0, 73, 59
1, 134909, Note_on_c, 0, 71, 56
1, 134960, Note_off_c, 0, 71, 56
1, 134996, Note_on_c, 0, 69, 59
1, 135003, Note_off_c, 0, 65, 61
1, 135008, Note_on_c, 0, 66, 72
1, 135019, Control_c, 0, 64, 22
1, 135034, Note_off_c, 0, 66, 69
1, 135034, Control_c, 0, 64, 21
1, 135049, Control_c, 0, 64, 18
1, 135054, Note_off_c, 0, 69, 51
1, 135064, Control_c, 0, 64, 13
1, 135078, Control_c, 0, 64, 10
1, 135085, Note_on_c, 0, 71, 59
1, 135137, Note_off_c, 0, 71, 51
1, 135167, Control_c, 0, 64, 13
1, 135172, Note_on_c, 0, 69, 60
1, 135182, Control_c, 0, 64, 16
1, 135197, Control_c, 0, 64, 19
1, 135211, Control_c, 0, 64, 21
1, 135226, Control_c, 0, 64, 24
1, 135241, Control_c, 0, 64, 25
1, 135256, Control_c, 0, 64, 26
1, 135266, Note_off_c, 0, 69, 49
1, 135271, Control_c, 0, 64, 28
1, 135277, Note_on_c, 0, 73, 49
1, 135280, Note_on_c, 0, 63, 75
1, 135285, Control_c, 0, 64, 29
1, 135300, Control_c, 0, 64, 30
1, 135315, Control_c, 0, 64, 31
1, 135329, Control_c, 0, 64, 32
1, 135358, Note_off_c, 0, 73, 61
1, 135359, Control_c, 0, 64, 32
1, 135364, Note_on_c, 0, 71, 57
1, 135411, Note_off_c, 0, 71, 58
1, 135433, Control_c, 0, 64, 32
1, 135459, Note_on_c, 0, 69, 59
1, 135463, Control_c, 0, 64, 31
1, 135478, Control_c, 0, 64, 30
1, 135505, Note_off_c, 0, 63, 59
1, 135508, Control_c, 0, 64, 29
1, 135522, Control_c, 0, 64, 28
1, 135532, Note_off_c, 0, 69, 58
1, 135534, Note_on_c, 0, 64, 60
1, 135537, Control_c, 0, 64, 27
1, 135540, Note_on_c, 0, 68, 66
1, 135567, Control_c, 0, 64, 26
1, 135582, Note_off_c, 0, 64, 60
1, 135590, Control_c, 0, 64, 25
1, 135605, Control_c, 0, 64, 22
1, 135609, Note_off_c, 0, 68, 64
1, 135620, Control_c, 0, 64, 21
1, 135630, Note_on_c, 0, 71, 55
1, 135634, Control_c, 0, 64, 18
1, 135649, Control_c, 0, 64, 13
1, 135664, Control_c, 0, 64, 0
1, 135686, Note_off_c, 0, 71, 60
1, 135714, Note_on_c, 0, 76, 56
1, 135779, Note_off_c, 0, 76, 0
1, 135779, Note_on_c, 0, 76, 24
1, 135797, Control_c, 0, 64, 10
1, 135803, Note_on_c, 0, 57, 47
1, 135808, Note_on_c, 0, 73, 60
1, 135812, Control_c, 0, 64, 25
1, 135827, Control_c, 0, 64, 30
1, 135842, Control_c, 0, 64, 32
1, 135845, Note_off_c, 0, 76, 56
1, 135898, Note_on_c, 0, 71, 59
1, 135901, Control_c, 0, 64, 32
1, 135901, Note_off_c, 0, 73, 60
1, 135916, Control_c, 0, 64, 33
1, 135931, Control_c, 0, 64, 36
1, 135936, Note_off_c, 0, 71, 62
1, 135946, Control_c, 0, 64, 40
1, 135960, Control_c, 0, 64, 44
1, 135966, Note_on_c, 0, 69, 70
1, 135975, Control_c, 0, 64, 48
1, 135990, Control_c, 0, 64, 50
1, 136005, Control_c, 0, 64, 52
1, 136020, Control_c, 0, 64, 53
1, 136025, Note_off_c, 0, 69, 50
1, 136034, Note_off_c, 0, 57, 52
1, 136034, Control_c, 0, 64, 55
1, 136046, Note_on_c, 0, 68, 71
1, 136049, Control_c, 0, 64, 56
1, 136055, Note_on_c, 0, 58, 54
1, 136064, Control_c, 0, 64, 57
1, 136108, Control_c, 0, 64, 57
1, 136120, Note_off_c, 0, 68, 62
1, 136127, Note_on_c, 0, 69, 75
1, 136131, Note_off_c, 0, 58, 40
1, 136181, Control_c, 0, 64, 56
1, 136196, Control_c, 0, 64, 54
1, 136202, Note_off_c, 0, 69, 63
1, 136211, Control_c, 0, 64, 46
1, 136213, Note_on_c, 0, 66, 68
1, 136226, Control_c, 0, 64, 0
1, 136295, Note_off_c, 0, 66, 60
1, 136310, Note_on_c, 0, 59, 49
1, 136316, Note_on_c, 0, 64, 64
1, 136337, Control_c, 0, 64, 50
1, 136353, Control_c, 0, 64, 58
1, 136368, Control_c, 0, 64, 61
1, 136382, Control_c, 0, 64, 62
1, 136397, Control_c, 0, 64, 63
1, 136412, Control_c, 0, 64, 63
1, 136427, Control_c, 0, 64, 64
1, 136456, Control_c, 0, 64, 64
1, 136471, Control_c, 0, 64, 65
1, 136481, Note_off_c, 0, 64, 37
1, 136500, Control_c, 0, 64, 65
1, 136530, Control_c, 0, 64, 66
1, 136568, Note_off_c, 0, 59, 37
1, 136575, Control_c, 0, 64, 66
1, 136604, Note_on_c, 0, 47, 52
1, 136605, Control_c, 0, 64, 67
1, 136616, Note_on_c, 0, 66, 58
1, 136620, Control_c, 0, 64, 68
1, 136632, Note_off_c, 0, 47, 60
1, 136635, Control_c, 0, 64, 68
1, 136638, Note_off_c, 0, 66, 66
1, 136649, Control_c, 0, 64, 69
1, 136670, Note_on_c, 0, 68, 64
1, 136679, Control_c, 0, 64, 69
1, 136699, Note_off_c, 0, 68, 66
1, 136706, Note_on_c, 0, 66, 81
1, 136743, Note_off_c, 0, 66, 66
1, 136754, Note_on_c, 0, 68, 83
1, 136768, Control_c, 0, 64, 69
1, 136782, Control_c, 0, 64, 66
1, 136793, Note_off_c, 0, 68, 60
1, 136794, Note_on_c, 0, 66, 77
1, 136797, Control_c, 0, 64, 59
1, 136812, Control_c, 0, 64, 0
1, 136874, Note_on_c, 0, 64, 75
1, 136877, Note_on_c, 0, 52, 55
1, 136877, Note_off_c, 0, 66, 61
1, 136900, Control_c, 0, 64, 29
1, 136915, Control_c, 0, 64, 49
1, 136930, Control_c, 0, 64, 56
1, 136945, Control_c, 0, 64, 60
1, 136946, Note_off_c, 0, 52, 60
1, 136960, Control_c, 0, 64, 62
1, 136961, Note_on_c, 0, 47, 59
1, 136974, Control_c, 0, 64, 63
1, 136989, Control_c, 0, 64, 64
1, 137004, Control_c, 0, 64, 65
1, 137018, Note_off_c, 0, 47, 56
1, 137019, Control_c, 0, 64, 65
1, 137034, Control_c, 0, 64, 66
1, 137037, Note_on_c, 0, 44, 58
1, 137049, Control_c, 0, 64, 67
1, 137064, Control_c, 0, 64, 67
1, 137092, Note_off_c, 0, 64, 63
1, 137100, Note_off_c, 0, 44, 63
1, 137117, Note_on_c, 0, 40, 63
1, 137217, Note_on_c, 0, 44, 64
1, 137222, Note_off_c, 0, 40, 59
1, 137235, Control_c, 0, 64, 67
1, 137279, Control_c, 0, 64, 66
1, 137295, Note_on_c, 0, 47, 73
1, 137304, Note_off_c, 0, 44, 64
1, 137323, Control_c, 0, 64, 66
1, 137384, Note_off_c, 0, 47, 64
1, 137386, Note_on_c, 0, 52, 78
1, 137413, Control_c, 0, 64, 65
1, 137468, Note_off_c, 0, 52, 61
1, 137531, Control_c, 0, 64, 66
1, 137694, Note_on_c, 0, 56, 49
1, 137694, Note_on_c, 0, 62, 83
1, 137705, Note_on_c, 0, 59, 74
1, 137938, Control_c, 0, 64, 65
1, 137969, Control_c, 0, 64, 65
1, 137984, Control_c, 0, 64, 64
1, 137994, Note_off_c, 0, 56, 54
1, 137999, Control_c, 0, 64, 62
1, 138014, Control_c, 0, 64, 59
1, 138015, Note_on_c, 0, 61, 87
1, 138022, Note_on_c, 0, 53, 48
1, 138028, Control_c, 0, 64, 49
1, 138032, Note_off_c, 0, 59, 60
1, 138043, Control_c, 0, 64, 0
1, 138073, Note_off_c, 0, 62, 61
1, 138285, Note_off_c, 0, 53, 54
1, 138313, Note_on_c, 0, 57, 39
1, 138325, Note_on_c, 0, 54, 37
1, 138609, Note_on_c, 0, 51, 36
1, 138611, Note_on_c, 0, 59, 69
1, 138624, Note_off_c, 0, 54, 39
1, 138641, Note_off_c, 0, 57, 34
1, 138643, Note_off_c, 0, 61, 60
1, 138732, Control_c, 0, 64, 50
1, 138748, Control_c, 0, 64, 59
1, 138763, Control_c, 0, 64, 61
1, 138777, Control_c, 0, 64, 63
1, 138792, Control_c, 0, 64, 64
1, 138807, Control_c, 0, 64, 66
1, 138822, Control_c, 0, 64, 68
1, 138837, Control_c, 0, 64, 70
1, 138851, Control_c, 0, 64, 73
1, 138866, Control_c, 0, 64, 76
1, 138881, Control_c, 0, 64, 77
1, 138885, Note_off_c, 0, 59, 62
1, 138891, Note_on_c, 0, 56, 63
1, 138895, Control_c, 0, 64, 78
1, 138901, Note_on_c, 0, 52, 50
1, 138906, Note_off_c, 0, 51, 37
1, 138910, Control_c, 0, 64, 79
1, 138925, Control_c, 0, 64, 80
1, 138940, Control_c, 0, 64, 81
1, 138945, Note_off_c, 0, 56, 57
1, 138955, Control_c, 0, 64, 81
1, 138969, Control_c, 0, 64, 82
1, 139058, Control_c, 0, 64, 81
1, 139072, Note_on_c, 0, 45, 51
1, 139073, Control_c, 0, 64, 75
1, 139088, Control_c, 0, 64, 64
1, 139092, Note_off_c, 0, 52, 42
1, 139103, Control_c, 0, 64, 0
1, 139136, Note_on_c, 0, 57, 57
1, 139147, Control_c, 0, 64, 46
1, 139157, Note_on_c, 0, 49, 47
1, 139159, Note_on_c, 0, 61, 63
1, 139162, Control_c, 0, 64, 60
1, 139176, Control_c, 0, 64, 64
1, 139178, Note_off_c, 0, 45, 63
1, 139183, Note_on_c, 0, 66, 83
1, 139189, Note_on_c, 0, 54, 73
1, 139191, Control_c, 0, 64, 66
1, 139194, Note_off_c, 0, 61, 64
1, 139198, Note_off_c, 0, 49, 65
1, 139201, Note_off_c, 0, 57, 63
1, 139206, Control_c, 0, 64, 67
1, 139216, Note_off_c, 0, 66, 68
1, 139217, Note_off_c, 0, 54, 64
1, 139221, Control_c, 0, 64, 68
1, 139236, Control_c, 0, 64, 68
1, 139250, Control_c, 0, 64, 69
1, 139347, Control_c, 0, 64, 68
1, 139436, Control_c, 0, 64, 67
1, 139450, Control_c, 0, 64, 66
1, 139465, Control_c, 0, 64, 63
1, 139473, Note_on_c, 0, 73, 76
1, 139480, Control_c, 0, 64, 58
1, 139494, Control_c, 0, 64, 53
1, 139509, Control_c, 0, 64, 53
1, 139524, Control_c, 0, 64, 54
1, 139555, Control_c, 0, 64, 53
1, 139556, Note_on_c, 0, 69, 70
1, 139557, Note_off_c, 0, 73, 58
1, 139570, Control_c, 0, 64, 53
1, 139585, Control_c, 0, 64, 52
1, 139599, Control_c, 0, 64, 51
1, 139614, Control_c, 0, 64, 43
1, 139629, Control_c, 0, 64, 0
1, 139646, Note_on_c, 0, 66, 75
1, 139654, Note_on_c, 0, 47, 49
1, 139680, Note_off_c, 0, 69, 62
1, 139740, Note_on_c, 0, 64, 79
1, 139745, Note_off_c, 0, 66, 66
1, 139751, Note_on_c, 0, 56, 48
1, 139791, Control_c, 0, 64, 19
1, 139806, Control_c, 0, 64, 30
1, 139821, Control_c, 0, 64, 41
1, 139836, Control_c, 0, 64, 50
1, 139851, Control_c, 0, 64, 56
1, 139866, Control_c, 0, 64, 59
1, 139881, Control_c, 0, 64, 60
1, 139896, Control_c, 0, 64, 61
1, 139910, Control_c, 0, 64, 62
1, 139925, Control_c, 0, 64, 63
1, 139940, Control_c, 0, 64, 63
1, 139955, Note_off_c, 0, 64, 32
1, 139955, Control_c, 0, 64, 64
1, 139970, Control_c, 0, 64, 64
1, 139970, Control_c, 0, 67, 8
1, 139985, Control_c, 0, 64, 65
1, 139985, Control_c, 0, 67, 15
1, 140000, Control_c, 0, 67, 26
1, 140015, Control_c, 0, 64, 64
1, 140015, Control_c, 0, 67, 39
1, 140019, Note_off_c, 0, 56, 50
1, 140023, Note_on_c, 0, 63, 67
1, 140030, Note_on_c, 0, 54, 45
1, 140030, Control_c, 0, 64, 64
1, 140030, Control_c, 0, 67, 51
1, 140045, Control_c, 0, 64, 63
1, 140045, Control_c, 0, 67, 62
1, 140060, Control_c, 0, 64, 63
1, 140060, Control_c, 0, 67, 72
1, 140069, Note_off_c, 0, 63, 63
1, 140078, Note_on_c, 0, 64, 72
1, 140081, Control_c, 0, 64, 61
1, 140081, Control_c, 0, 67, 82
1, 140096, Control_c, 0, 64, 60
1, 140096, Control_c, 0, 67, 92
1, 140111, Control_c, 0, 64, 58
1, 140111, Control_c, 0, 67, 100
1, 140125, Control_c, 0, 64, 57
1, 140125, Control_c, 0, 67, 106
1, 140127, Note_on_c, 0, 63, 71
1, 140129, Note_off_c, 0, 64, 65
1, 140140, Control_c, 0, 64, 54
1, 140140, Control_c, 0, 67, 111
1, 140155, Control_c, 0, 64, 51
1, 140155, Control_c, 0, 67, 114
1, 140161, Note_off_c, 0, 47, 30
1, 140164, Note_off_c, 0, 63, 63
1, 140170, Control_c, 0, 64, 46
1, 140170, Control_c, 0, 67, 116
1, 140176, Note_on_c, 0, 61, 71
1, 140185, Control_c, 0, 64, 42
1, 140185, Control_c, 0, 67, 119
1, 140200, Control_c, 0, 64, 39
1, 140200, Control_c, 0, 67, 122
1, 140215, Control_c, 0, 64, 38
1, 140215, Control_c, 0, 67, 125
1, 140230, Control_c, 0, 64, 35
1, 140230, Control_c, 0, 67, 127
1, 140244, Control_c, 0, 64, 32
1, 140248, Note_on_c, 0, 63, 73
1, 140250, Note_off_c, 0, 61, 58
1, 140259, Control_c, 0, 64, 29
1, 140274, Control_c, 0, 64, 25
1, 140289, Control_c, 0, 64, 21
1, 140304, Control_c, 0, 64, 16
1, 140318, Control_c, 0, 64, 0
1, 140319, Note_off_c, 0, 54, 45
1, 140331, Note_off_c, 0, 63, 60
1, 140373, Note_on_c, 0, 52, 46
1, 140388, Note_on_c, 0, 64, 61
1, 140476, Note_on_c, 0, 68, 63
1, 140495, Note_off_c, 0, 64, 57
1, 140529, Note_off_c, 0, 68, 64
1, 140540, Note_on_c, 0, 71, 73
1, 140613, Note_off_c, 0, 71, 59
1, 140621, Note_on_c, 0, 76, 82
1, 140695, Note_on_c, 0, 71, 74
1, 140726, Note_off_c, 0, 76, 60
1, 140774, Note_on_c, 0, 68, 79
1, 140801, Note_off_c, 0, 71, 58
1, 140847, Note_off_c, 0, 68, 64
1, 140862, Note_on_c, 0, 64, 80
1, 140921, Note_off_c, 0, 64, 64
1, 140933, Note_off_c, 0, 52, 42
1, 140954, Note_on_c, 0, 59, 76
1, 141026, Note_off_c, 0, 59, 64
1, 141028, Note_on_c, 0, 56, 73
1, 141072, Note_off_c, 0, 56, 62
1, 141121, Note_on_c, 0, 52, 60
1, 141195, Note_off_c, 0, 52, 60
1, 141204, Note_on_c, 0, 47, 57
1, 141286, Note_off_c, 0, 47, 57
1, 141313, Note_on_c, 0, 44, 43
1, 141481, Note_off_c, 0, 44, 36
1, 141513, Note_on_c, 0, 40, 35
1, 142704, Note_off_c, 0, 40, 36
1, 144493, Control_c, 0, 67, 126
1, 144507, Control_c, 0, 67, 111
1, 144522, Control_c, 0, 67, 95
1, 144537, Control_c, 0, 67, 80
1, 144560, Control_c, 0, 67, 67
1, 144575, Control_c, 0, 67, 53
1, 144589, Control_c, 0, 67, 41
1, 144604, Control_c, 0, 67, 30
1, 144619, Control_c, 0, 67, 25
1, 144634, Control_c, 0, 67, 21
1, 144649, Control_c, 0, 67, 18
1, 144663, Control_c, 0, 67, 14
1, 144678, Control_c, 0, 67, 9
1, 144693, Control_c, 0, 67, 0
1, 144693, End_track
0, 0, End_of_file
