0, 0, Header, 0, 1, 384
1, 0, Start_track
1, 0, Title_t, "Dumka, Op.59--Soukhovetski      "
1, 0, Text_t, "2009 International Piano-e-Competition finals"
1, 0, Text_t, "captured June-July 2009"
1, 0, Text_t, "http://www.piano-e-competition.com/"
1, 0, Text_t, "standard-resolution version"
1, 0, Text_t, "File processed for distribution by software from Zenph Studios, Inc., http://www.zenph.com"
1, 0, Instrument_name_t, "Yamaha Disklavier Pro Mark IV concert grand piano, model DCFIIISM4PRO"
1, 0, Sequencer_specific, 39, 67, 113, 0, 1, 0, 1, 0, 68, 117, 109, 107, 97, 44, 32, 79, 112, 46, 53, 57, 32, 32, 32, 32, 75, 83, 111, 117, 107, 104, 111, 118, 101, 116, 115, 107, 105, 32, 32, 32
1, 0, Sequencer_specific, 6, 67, 113, 0, 0, 0, 69
1, 0, System_exclusive, 21, 67, 113, 126, 21, 0, 2, 2, 2, 3, 12, 8, 4, 10, 4, 14, 9, 4, 11, 4, 4, 247
1, 0, Sequencer_specific, 5, 67, 123, 12, 2, 1
1, 0, Tempo, 512820
1, 0, Time_signature, 4, 2, 24, 8
1, 0, System_exclusive, 5, 126, 127, 9, 1, 247
1, 1, System_exclusive, 8, 67, 16, 76, 0, 0, 126, 0, 247
1, 2, System_exclusive, 8, 67, 16, 76, 8, 9, 7, 1, 247
1, 3, Control_c, 0, 0, 0
1, 3, Control_c, 1, 0, 0
1, 3, Control_c, 2, 0, 0
1, 3, Control_c, 3, 0, 0
1, 3, Control_c, 4, 0, 0
1, 3, Control_c, 5, 0, 0
1, 3, Control_c, 6, 0, 0
1, 3, Control_c, 7, 0, 0
1, 3, Control_c, 8, 0, 0
1, 3, Control_c, 9, 0, 127
1, 3, Control_c, 10, 0, 0
1, 3, Control_c, 11, 0, 0
1, 3, Control_c, 12, 0, 0
1, 3, Control_c, 13, 0, 0
1, 3, Control_c, 14, 0, 0
1, 3, Control_c, 15, 0, 0
1, 4, Control_c, 0, 32, 0
1, 4, Control_c, 1, 32, 0
1, 4, Control_c, 2, 32, 0
1, 4, Control_c, 3, 32, 0
1, 4, Control_c, 4, 32, 0
1, 4, Control_c, 5, 32, 0
1, 4, Control_c, 6, 32, 0
1, 4, Control_c, 7, 32, 0
1, 4, Control_c, 8, 32, 0
1, 4, Control_c, 9, 32, 0
1, 4, Control_c, 10, 32, 0
1, 4, Control_c, 11, 32, 0
1, 4, Control_c, 12, 32, 0
1, 4, Control_c, 13, 32, 0
1, 4, Control_c, 14, 32, 0
1, 4, Control_c, 15, 32, 0
1, 5, Program_c, 0, 0
1, 5, Program_c, 1, 0
1, 5, Program_c, 2, 0
1, 5, Program_c, 3, 0
1, 5, Program_c, 4, 0
1, 5, Program_c, 5, 0
1, 5, Program_c, 6, 0
1, 5, Program_c, 7, 0
1, 5, Program_c, 8, 0
1, 5, Program_c, 9, 0
1, 5, Program_c, 10, 0
1, 5, Program_c, 11, 0
1, 5, Program_c, 12, 0
1, 5, Program_c, 13, 0
1, 5, Program_c, 14, 0
1, 5, Program_c, 15, 0
1, 6, Control_c, 0, 7, 100
1, 6, Control_c, 1, 7, 100
1, 6, Control_c, 2, 7, 100
1, 6, Control_c, 3, 7, 100
1, 6, Control_c, 4, 7, 100
1, 6, Control_c, 5, 7, 100
1, 6, Control_c, 6, 7, 100
1, 6, Control_c, 7, 7, 100
1, 6, Control_c, 8, 7, 100
1, 6, Control_c, 9, 7, 100
1, 6, Control_c, 10, 7, 100
1, 6, Control_c, 11, 7, 100
1, 6, Control_c, 12, 7, 100
1, 6, Control_c, 13, 7, 100
1, 6, Control_c, 14, 7, 100
1, 6, Control_c, 15, 7, 100
1, 117, Control_c, 0, 64, 15
1, 117, Control_c, 0, 67, 15
1, 229, Control_c, 0, 64, 31
1, 229, Control_c, 0, 67, 31
1, 341, Control_c, 0, 64, 46
1, 341, Control_c, 0, 67, 46
1, 452, Control_c, 0, 64, 63
1, 452, Control_c, 0, 67, 63
1, 564, Control_c, 0, 64, 77
1, 564, Control_c, 0, 67, 77
1, 676, Control_c, 0, 64, 94
1, 676, Control_c, 0, 67, 94
1, 787, Control_c, 0, 64, 108
1, 787, Control_c, 0, 67, 108
1, 899, Control_c, 0, 64, 127
1, 899, Control_c, 0, 67, 127
1, 1139, Note_on_c, 0, 48, 32
1, 1256, Note_on_c, 0, 55, 41
1, 1354, Note_on_c, 0, 60, 37
1, 1464, Control_c, 0, 67, 126
1, 1479, Control_c, 0, 67, 125
1, 1494, Control_c, 0, 67, 123
1, 1509, Control_c, 0, 67, 122
1, 1524, Control_c, 0, 67, 120
1, 1538, Control_c, 0, 67, 118
1, 1553, Control_c, 0, 67, 117
1, 1568, Control_c, 0, 67, 115
1, 1583, Control_c, 0, 67, 113
1, 1598, Control_c, 0, 67, 112
1, 1608, Note_on_c, 0, 72, 61
1, 1612, Control_c, 0, 67, 110
1, 1627, Control_c, 0, 67, 109
1, 1642, Control_c, 0, 67, 108
1, 1656, Control_c, 0, 67, 107
1, 1662, Note_on_c, 0, 63, 38
1, 1671, Control_c, 0, 67, 106
1, 1686, Control_c, 0, 67, 105
1, 1692, Note_on_c, 0, 67, 40
1, 1701, Control_c, 0, 67, 105
1, 1716, Control_c, 0, 67, 104
1, 1730, Control_c, 0, 67, 102
1, 1745, Control_c, 0, 67, 102
1, 1760, Control_c, 0, 67, 101
1, 1782, Control_c, 0, 67, 100
1, 1797, Control_c, 0, 67, 99
1, 1812, Control_c, 0, 67, 98
1, 1827, Control_c, 0, 67, 96
1, 1842, Control_c, 0, 67, 94
1, 1855, Note_off_c, 0, 60, 42
1, 1857, Control_c, 0, 67, 93
1, 1861, Note_off_c, 0, 48, 38
1, 1864, Note_off_c, 0, 55, 39
1, 1871, Control_c, 0, 67, 91
1, 1886, Control_c, 0, 67, 89
1, 1901, Control_c, 0, 67, 87
1, 1917, Control_c, 0, 67, 84
1, 1932, Control_c, 0, 67, 80
1, 1946, Control_c, 0, 67, 77
1, 1962, Control_c, 0, 67, 74
1, 1977, Control_c, 0, 67, 71
1, 1980, Note_off_c, 0, 67, 53
1, 1992, Control_c, 0, 67, 69
1, 2007, Control_c, 0, 67, 66
1, 2010, Note_off_c, 0, 63, 37
1, 2022, Control_c, 0, 67, 65
1, 2036, Control_c, 0, 67, 62
1, 2051, Control_c, 0, 67, 58
1, 2066, Control_c, 0, 67, 55
1, 2081, Control_c, 0, 67, 52
1, 2095, Control_c, 0, 67, 49
1, 2110, Control_c, 0, 67, 47
1, 2125, Control_c, 0, 67, 45
1, 2140, Control_c, 0, 67, 43
1, 2155, Control_c, 0, 67, 40
1, 2169, Control_c, 0, 67, 38
1, 2184, Control_c, 0, 67, 37
1, 2199, Control_c, 0, 67, 34
1, 2213, Control_c, 0, 67, 32
1, 2228, Control_c, 0, 67, 29
1, 2243, Control_c, 0, 67, 27
1, 2258, Control_c, 0, 67, 24
1, 2273, Control_c, 0, 67, 22
1, 2288, Control_c, 0, 67, 20
1, 2302, Control_c, 0, 67, 18
1, 2317, Control_c, 0, 67, 17
1, 2332, Control_c, 0, 67, 15
1, 2347, Control_c, 0, 67, 13
1, 2362, Control_c, 0, 67, 12
1, 2377, Control_c, 0, 67, 11
1, 2392, Control_c, 0, 67, 9
1, 2406, Control_c, 0, 67, 8
1, 2421, Control_c, 0, 67, 8
1, 2436, Control_c, 0, 67, 0
1, 2466, Control_c, 0, 64, 111
1, 2480, Control_c, 0, 64, 103
1, 2495, Control_c, 0, 64, 97
1, 2510, Control_c, 0, 64, 91
1, 2525, Control_c, 0, 64, 86
1, 2547, Control_c, 0, 64, 79
1, 2562, Control_c, 0, 64, 72
1, 2577, Control_c, 0, 64, 66
1, 2592, Control_c, 0, 64, 61
1, 2607, Control_c, 0, 64, 55
1, 2621, Control_c, 0, 64, 50
1, 2636, Control_c, 0, 64, 43
1, 2651, Control_c, 0, 64, 24
1, 2666, Control_c, 0, 64, 0
1, 3009, Note_on_c, 0, 75, 56
1, 3161, Note_off_c, 0, 72, 63
1, 3515, Note_on_c, 0, 72, 56
1, 3674, Note_off_c, 0, 75, 53
1, 3755, Control_c, 0, 64, 23
1, 3770, Note_on_c, 0, 48, 28
1, 3770, Control_c, 0, 64, 64
1, 3785, Control_c, 0, 64, 71
1, 3800, Control_c, 0, 64, 76
1, 3814, Control_c, 0, 64, 81
1, 3829, Control_c, 0, 64, 88
1, 3844, Control_c, 0, 64, 96
1, 3858, Control_c, 0, 64, 103
1, 3873, Control_c, 0, 64, 110
1, 3885, Note_on_c, 0, 56, 40
1, 3888, Control_c, 0, 64, 124
1, 3903, Control_c, 0, 64, 127
1, 3913, Note_off_c, 0, 72, 55
1, 4175, Note_on_c, 0, 77, 68
1, 4222, Note_on_c, 0, 60, 33
1, 4261, Note_on_c, 0, 72, 29
1, 4288, Poly_aftertouch_c, 0, 65, 127
1, 4430, Control_c, 0, 64, 104
1, 4445, Control_c, 0, 64, 84
1, 4460, Control_c, 0, 64, 68
1, 4474, Control_c, 0, 64, 62
1, 4489, Control_c, 0, 64, 63
1, 4504, Control_c, 0, 64, 67
1, 4519, Control_c, 0, 64, 76
1, 4534, Control_c, 0, 64, 93
1, 4548, Control_c, 0, 64, 127
1, 4759, Note_off_c, 0, 60, 46
1, 4998, Note_on_c, 0, 62, 46
1, 5082, Note_off_c, 0, 62, 56
1, 5242, Note_on_c, 0, 60, 48
1, 5312, Control_c, 0, 64, 110
1, 5327, Control_c, 0, 64, 82
1, 5342, Control_c, 0, 64, 64
1, 5357, Control_c, 0, 64, 0
1, 5401, Control_c, 0, 64, 60
1, 5416, Control_c, 0, 64, 70
1, 5430, Control_c, 0, 64, 83
1, 5445, Control_c, 0, 64, 105
1, 5460, Control_c, 0, 64, 127
1, 5544, Note_off_c, 0, 60, 56
1, 5704, Note_on_c, 0, 62, 63
1, 5863, Note_off_c, 0, 48, 41
1, 5871, Note_off_c, 0, 56, 42
1, 5918, Note_off_c, 0, 62, 52
1, 5978, Note_on_c, 0, 48, 45
1, 6041, Poly_aftertouch_c, 0, 65, 0
1, 6062, Note_on_c, 0, 55, 52
1, 6067, Note_off_c, 0, 72, 37
1, 6359, Note_on_c, 0, 79, 75
1, 6377, Note_on_c, 0, 63, 49
1, 6404, Note_on_c, 0, 72, 44
1, 6414, Note_on_c, 0, 67, 38
1, 6497, Control_c, 0, 64, 92
1, 6512, Control_c, 0, 64, 72
1, 6514, Note_off_c, 0, 77, 52
1, 6526, Control_c, 0, 64, 0
1, 6631, Control_c, 0, 64, 64
1, 6646, Control_c, 0, 64, 73
1, 6660, Control_c, 0, 64, 81
1, 6675, Control_c, 0, 64, 92
1, 6690, Control_c, 0, 64, 105
1, 6705, Control_c, 0, 64, 127
1, 6738, Note_off_c, 0, 67, 44
1, 6758, Note_off_c, 0, 48, 41
1, 6762, Note_off_c, 0, 55, 60
1, 6804, Note_off_c, 0, 72, 56
1, 6918, Note_off_c, 0, 63, 34
1, 6928, Control_c, 0, 67, 8
1, 6943, Control_c, 0, 67, 8
1, 6957, Control_c, 0, 67, 10
1, 6972, Control_c, 0, 67, 11
1, 6987, Control_c, 0, 67, 13
1, 7001, Control_c, 0, 67, 15
1, 7016, Control_c, 0, 67, 17
1, 7039, Control_c, 0, 67, 19
1, 7054, Control_c, 0, 67, 20
1, 7069, Control_c, 0, 67, 21
1, 7083, Control_c, 0, 67, 22
1, 7098, Control_c, 0, 67, 22
1, 7113, Control_c, 0, 67, 23
1, 7157, Control_c, 0, 64, 102
1, 7157, Control_c, 0, 67, 23
1, 7172, Control_c, 0, 64, 88
1, 7187, Control_c, 0, 64, 78
1, 7187, Control_c, 0, 67, 24
1, 7201, Control_c, 0, 64, 71
1, 7201, Control_c, 0, 67, 24
1, 7216, Control_c, 0, 64, 64
1, 7231, Control_c, 0, 64, 44
1, 7231, Control_c, 0, 67, 25
1, 7246, Control_c, 0, 64, 0
1, 7275, Control_c, 0, 67, 25
1, 7290, Control_c, 0, 67, 26
1, 7305, Control_c, 0, 67, 27
1, 7320, Control_c, 0, 67, 29
1, 7335, Control_c, 0, 67, 32
1, 7349, Control_c, 0, 67, 34
1, 7364, Control_c, 0, 67, 37
1, 7379, Control_c, 0, 64, 56
1, 7379, Control_c, 0, 67, 40
1, 7394, Control_c, 0, 64, 67
1, 7394, Control_c, 0, 67, 43
1, 7409, Control_c, 0, 64, 76
1, 7409, Control_c, 0, 67, 46
1, 7424, Control_c, 0, 64, 84
1, 7424, Control_c, 0, 67, 48
1, 7430, Note_on_c, 0, 77, 52
1, 7439, Control_c, 0, 64, 93
1, 7439, Control_c, 0, 67, 50
1, 7453, Control_c, 0, 64, 101
1, 7453, Control_c, 0, 67, 53
1, 7468, Control_c, 0, 64, 111
1, 7468, Control_c, 0, 67, 56
1, 7483, Control_c, 0, 64, 120
1, 7483, Control_c, 0, 67, 60
1, 7498, Control_c, 0, 64, 127
1, 7498, Control_c, 0, 67, 64
1, 7507, Note_off_c, 0, 79, 48
1, 7513, Control_c, 0, 67, 69
1, 7519, Note_on_c, 0, 75, 55
1, 7527, Control_c, 0, 67, 72
1, 7542, Control_c, 0, 67, 76
1, 7558, Control_c, 0, 67, 78
1, 7573, Control_c, 0, 67, 81
1, 7588, Control_c, 0, 67, 83
1, 7602, Control_c, 0, 67, 86
1, 7607, Note_on_c, 0, 74, 58
1, 7617, Control_c, 0, 67, 89
1, 7618, Note_off_c, 0, 77, 36
1, 7632, Control_c, 0, 67, 91
1, 7647, Control_c, 0, 67, 94
1, 7650, Note_off_c, 0, 74, 59
1, 7662, Control_c, 0, 67, 96
1, 7677, Control_c, 0, 67, 98
1, 7692, Control_c, 0, 67, 101
1, 7706, Control_c, 0, 67, 102
1, 7721, Control_c, 0, 67, 104
1, 7731, Note_off_c, 0, 75, 35
1, 7736, Control_c, 0, 67, 105
1, 7751, Control_c, 0, 67, 106
1, 7783, Note_on_c, 0, 72, 54
1, 7787, Control_c, 0, 67, 106
1, 7835, Note_on_c, 0, 60, 30
1, 7838, Note_on_c, 0, 67, 39
1, 7863, Note_on_c, 0, 51, 31
1, 7877, Control_c, 0, 64, 116
1, 7892, Control_c, 0, 64, 105
1, 7906, Control_c, 0, 64, 93
1, 7921, Control_c, 0, 64, 79
1, 7936, Control_c, 0, 64, 66
1, 7951, Control_c, 0, 64, 11
1, 7966, Control_c, 0, 64, 0
1, 8039, Control_c, 0, 64, 43
1, 8054, Control_c, 0, 64, 66
1, 8069, Control_c, 0, 64, 76
1, 8084, Control_c, 0, 64, 88
1, 8098, Control_c, 0, 64, 104
1, 8113, Control_c, 0, 64, 127
1, 8178, Note_off_c, 0, 60, 44
1, 8183, Note_off_c, 0, 72, 61
1, 8187, Note_off_c, 0, 51, 46
1, 8366, Control_c, 0, 67, 107
1, 8392, Note_on_c, 0, 72, 49
1, 8455, Control_c, 0, 64, 104
1, 8466, Note_off_c, 0, 67, 46
1, 8470, Control_c, 0, 64, 91
1, 8485, Control_c, 0, 64, 79
1, 8500, Control_c, 0, 64, 68
1, 8515, Control_c, 0, 64, 52
1, 8536, Control_c, 0, 64, 0
1, 8580, Control_c, 0, 67, 107
1, 8625, Control_c, 0, 64, 11
1, 8625, Control_c, 0, 67, 108
1, 8640, Control_c, 0, 64, 60
1, 8655, Control_c, 0, 64, 66
1, 8655, Control_c, 0, 67, 108
1, 8670, Control_c, 0, 64, 70
1, 8685, Control_c, 0, 64, 75
1, 8685, Control_c, 0, 67, 109
1, 8700, Control_c, 0, 64, 81
1, 8700, Control_c, 0, 67, 113
1, 8715, Control_c, 0, 64, 87
1, 8715, Control_c, 0, 67, 115
1, 8729, Control_c, 0, 64, 94
1, 8729, Control_c, 0, 67, 117
1, 8744, Control_c, 0, 64, 98
1, 8744, Control_c, 0, 67, 119
1, 8759, Control_c, 0, 64, 102
1, 8759, Control_c, 0, 67, 120
1, 8774, Control_c, 0, 64, 105
1, 8774, Control_c, 0, 67, 122
1, 8789, Control_c, 0, 64, 112
1, 8789, Control_c, 0, 67, 124
1, 8804, Control_c, 0, 64, 126
1, 8804, Control_c, 0, 67, 126
1, 8819, Control_c, 0, 64, 127
1, 8819, Control_c, 0, 67, 127
1, 9150, Note_on_c, 0, 70, 37
1, 9177, Note_on_c, 0, 55, 25
1, 9180, Note_on_c, 0, 67, 32
1, 9188, Note_on_c, 0, 62, 25
1, 9301, Control_c, 0, 64, 111
1, 9316, Control_c, 0, 64, 95
1, 9331, Control_c, 0, 64, 78
1, 9346, Control_c, 0, 64, 66
1, 9349, Note_off_c, 0, 72, 42
1, 9360, Control_c, 0, 64, 31
1, 9375, Control_c, 0, 64, 0
1, 9464, Control_c, 0, 64, 59
1, 9478, Control_c, 0, 64, 66
1, 9493, Control_c, 0, 64, 72
1, 9508, Control_c, 0, 64, 78
1, 9523, Control_c, 0, 64, 85
1, 9538, Control_c, 0, 64, 92
1, 9552, Control_c, 0, 64, 99
1, 9567, Control_c, 0, 64, 105
1, 9582, Control_c, 0, 64, 109
1, 9597, Control_c, 0, 64, 114
1, 9612, Control_c, 0, 64, 122
1, 9627, Control_c, 0, 64, 127
1, 9701, Note_off_c, 0, 67, 39
1, 10062, Note_on_c, 0, 67, 35
1, 10202, Note_off_c, 0, 62, 38
1, 10211, Note_off_c, 0, 55, 42
1, 10246, Note_off_c, 0, 70, 48
1, 10286, Control_c, 0, 64, 121
1, 10300, Control_c, 0, 64, 113
1, 10315, Control_c, 0, 64, 107
1, 10330, Control_c, 0, 64, 103
1, 10345, Control_c, 0, 64, 98
1, 10360, Control_c, 0, 64, 92
1, 10375, Control_c, 0, 64, 86
1, 10390, Control_c, 0, 64, 80
1, 10405, Control_c, 0, 64, 74
1, 10419, Control_c, 0, 64, 68
1, 10434, Control_c, 0, 64, 64
1, 10449, Control_c, 0, 64, 58
1, 10464, Control_c, 0, 64, 50
1, 10479, Control_c, 0, 64, 33
1, 10493, Control_c, 0, 64, 0
1, 10813, Control_c, 0, 64, 41
1, 10828, Control_c, 0, 64, 56
1, 10843, Control_c, 0, 64, 63
1, 10857, Control_c, 0, 64, 64
1, 10872, Control_c, 0, 64, 66
1, 10887, Control_c, 0, 64, 67
1, 10902, Control_c, 0, 64, 68
1, 10917, Control_c, 0, 64, 70
1, 10931, Control_c, 0, 64, 74
1, 10946, Control_c, 0, 64, 77
1, 10961, Control_c, 0, 64, 81
1, 10975, Control_c, 0, 64, 83
1, 10990, Control_c, 0, 64, 86
1, 11005, Control_c, 0, 64, 88
1, 11020, Control_c, 0, 64, 90
1, 11035, Control_c, 0, 64, 92
1, 11049, Control_c, 0, 64, 93
1, 11064, Control_c, 0, 64, 94
1, 11079, Control_c, 0, 64, 95
1, 11094, Control_c, 0, 64, 96
1, 11103, Note_on_c, 0, 55, 39
1, 11109, Control_c, 0, 64, 96
1, 11123, Control_c, 0, 64, 98
1, 11138, Control_c, 0, 64, 100
1, 11153, Control_c, 0, 64, 102
1, 11168, Control_c, 0, 64, 104
1, 11183, Control_c, 0, 64, 105
1, 11197, Control_c, 0, 64, 105
1, 11212, Control_c, 0, 64, 106
1, 11331, Control_c, 0, 64, 105
1, 11361, Control_c, 0, 64, 103
1, 11362, Note_on_c, 0, 57, 51
1, 11375, Control_c, 0, 64, 98
1, 11390, Control_c, 0, 64, 90
1, 11405, Control_c, 0, 64, 78
1, 11420, Control_c, 0, 64, 67
1, 11432, Note_off_c, 0, 55, 44
1, 11435, Control_c, 0, 64, 23
1, 11449, Control_c, 0, 64, 0
1, 11611, Note_on_c, 0, 58, 61
1, 11657, Note_off_c, 0, 57, 61
1, 11710, Control_c, 0, 64, 27
1, 11725, Control_c, 0, 64, 59
1, 11740, Control_c, 0, 64, 66
1, 11755, Control_c, 0, 64, 71
1, 11766, Note_off_c, 0, 67, 50
1, 11770, Control_c, 0, 64, 75
1, 11785, Control_c, 0, 64, 80
1, 11785, Control_c, 0, 67, 126
1, 11799, Control_c, 0, 64, 82
1, 11799, Control_c, 0, 67, 121
1, 11814, Control_c, 0, 64, 84
1, 11814, Control_c, 0, 67, 116
1, 11829, Control_c, 0, 64, 86
1, 11829, Control_c, 0, 67, 112
1, 11844, Control_c, 0, 64, 88
1, 11844, Control_c, 0, 67, 108
1, 11859, Control_c, 0, 64, 89
1, 11859, Control_c, 0, 67, 103
1, 11873, Control_c, 0, 64, 90
1, 11873, Control_c, 0, 67, 98
1, 11888, Control_c, 0, 64, 91
1, 11888, Control_c, 0, 67, 94
1, 11903, Control_c, 0, 67, 89
1, 11918, Control_c, 0, 67, 86
1, 11922, Note_on_c, 0, 72, 69
1, 11933, Control_c, 0, 67, 83
1, 11945, Note_on_c, 0, 67, 36
1, 11947, Note_on_c, 0, 55, 47
1, 11947, Control_c, 0, 67, 81
1, 11952, Note_on_c, 0, 51, 48
1, 11954, Note_on_c, 0, 60, 46
1, 11962, Control_c, 0, 64, 90
1, 11962, Control_c, 0, 67, 79
1, 11977, Control_c, 0, 64, 86
1, 11977, Control_c, 0, 67, 78
1, 11991, Control_c, 0, 64, 79
1, 11991, Control_c, 0, 67, 76
1, 12006, Control_c, 0, 64, 69
1, 12006, Control_c, 0, 67, 72
1, 12007, Note_off_c, 0, 58, 39
1, 12021, Control_c, 0, 64, 45
1, 12021, Control_c, 0, 67, 69
1, 12036, Control_c, 0, 64, 0
1, 12036, Control_c, 0, 67, 66
1, 12051, Control_c, 0, 67, 63
1, 12065, Control_c, 0, 67, 60
1, 12080, Control_c, 0, 67, 56
1, 12095, Control_c, 0, 67, 52
1, 12110, Control_c, 0, 67, 47
1, 12125, Control_c, 0, 67, 43
1, 12139, Control_c, 0, 67, 38
1, 12154, Control_c, 0, 67, 33
1, 12169, Control_c, 0, 64, 51
1, 12169, Control_c, 0, 67, 26
1, 12184, Control_c, 0, 64, 69
1, 12184, Control_c, 0, 67, 19
1, 12199, Control_c, 0, 64, 81
1, 12199, Control_c, 0, 67, 9
1, 12214, Control_c, 0, 64, 102
1, 12214, Control_c, 0, 67, 0
1, 12229, Control_c, 0, 64, 127
1, 12321, Note_off_c, 0, 55, 51
1, 12331, Note_off_c, 0, 72, 59
1, 12351, Note_off_c, 0, 51, 52
1, 12495, Note_on_c, 0, 72, 74
1, 12571, Note_off_c, 0, 60, 38
1, 12581, Note_off_c, 0, 67, 61
1, 12750, Note_on_c, 0, 48, 46
1, 12778, Note_off_c, 0, 72, 59
1, 12808, Note_on_c, 0, 55, 52
1, 12871, Note_on_c, 0, 60, 49
1, 12933, Note_on_c, 0, 63, 63
1, 12973, Note_on_c, 0, 67, 62
1, 13004, Note_on_c, 0, 72, 68
1, 13081, Note_on_c, 0, 75, 78
1, 13091, Note_off_c, 0, 55, 57
1, 13091, Note_off_c, 0, 60, 60
1, 13092, Note_off_c, 0, 48, 49
1, 13180, Note_off_c, 0, 63, 51
1, 13235, Note_off_c, 0, 67, 55
1, 13286, Note_off_c, 0, 72, 56
1, 13312, Control_c, 0, 64, 115
1, 13326, Control_c, 0, 64, 107
1, 13341, Control_c, 0, 64, 101
1, 13356, Control_c, 0, 64, 97
1, 13371, Control_c, 0, 64, 92
1, 13385, Control_c, 0, 64, 88
1, 13400, Control_c, 0, 64, 84
1, 13415, Control_c, 0, 64, 79
1, 13430, Control_c, 0, 64, 75
1, 13445, Control_c, 0, 64, 71
1, 13460, Control_c, 0, 64, 69
1, 13475, Control_c, 0, 64, 67
1, 13490, Control_c, 0, 64, 66
1, 13505, Control_c, 0, 64, 64
1, 13519, Control_c, 0, 64, 62
1, 13534, Control_c, 0, 64, 59
1, 13549, Control_c, 0, 64, 55
1, 13563, Control_c, 0, 64, 53
1, 13578, Control_c, 0, 64, 51
1, 13578, Control_c, 0, 67, 8
1, 13593, Control_c, 0, 64, 48
1, 13593, Control_c, 0, 67, 10
1, 13608, Control_c, 0, 64, 42
1, 13608, Control_c, 0, 67, 12
1, 13623, Control_c, 0, 64, 34
1, 13623, Control_c, 0, 67, 13
1, 13637, Control_c, 0, 64, 28
1, 13637, Control_c, 0, 67, 15
1, 13652, Control_c, 0, 64, 27
1, 13652, Control_c, 0, 67, 17
1, 13667, Control_c, 0, 64, 26
1, 13667, Control_c, 0, 67, 19
1, 13682, Control_c, 0, 64, 24
1, 13682, Control_c, 0, 67, 22
1, 13697, Control_c, 0, 67, 24
1, 13711, Control_c, 0, 67, 27
1, 13726, Control_c, 0, 67, 30
1, 13741, Control_c, 0, 64, 27
1, 13741, Control_c, 0, 67, 34
1, 13756, Control_c, 0, 64, 33
1, 13756, Control_c, 0, 67, 38
1, 13778, Control_c, 0, 64, 41
1, 13778, Control_c, 0, 67, 41
1, 13793, Control_c, 0, 64, 50
1, 13793, Control_c, 0, 67, 44
1, 13808, Control_c, 0, 64, 56
1, 13808, Control_c, 0, 67, 48
1, 13823, Control_c, 0, 64, 60
1, 13823, Control_c, 0, 67, 51
1, 13838, Control_c, 0, 64, 63
1, 13838, Control_c, 0, 67, 54
1, 13852, Control_c, 0, 64, 64
1, 13852, Control_c, 0, 67, 57
1, 13867, Control_c, 0, 64, 66
1, 13867, Control_c, 0, 67, 58
1, 13882, Control_c, 0, 64, 67
1, 13882, Control_c, 0, 67, 60
1, 13896, Control_c, 0, 64, 68
1, 13896, Control_c, 0, 67, 62
1, 13910, Control_c, 0, 64, 69
1, 13910, Control_c, 0, 67, 65
1, 13925, Control_c, 0, 64, 70
1, 13925, Control_c, 0, 67, 69
1, 13941, Control_c, 0, 64, 71
1, 13941, Control_c, 0, 67, 72
1, 13956, Control_c, 0, 64, 72
1, 13956, Control_c, 0, 67, 75
1, 13971, Control_c, 0, 64, 73
1, 13971, Control_c, 0, 67, 78
1, 13986, Control_c, 0, 64, 75
1, 13986, Control_c, 0, 67, 81
1, 14000, Control_c, 0, 64, 76
1, 14000, Control_c, 0, 67, 85
1, 14015, Control_c, 0, 64, 77
1, 14015, Control_c, 0, 67, 88
1, 14030, Control_c, 0, 67, 90
1, 14045, Control_c, 0, 67, 92
1, 14060, Control_c, 0, 67, 94
1, 14074, Control_c, 0, 67, 97
1, 14089, Control_c, 0, 67, 99
1, 14095, Note_on_c, 0, 74, 60
1, 14104, Control_c, 0, 67, 101
1, 14119, Control_c, 0, 67, 102
1, 14134, Control_c, 0, 67, 104
1, 14149, Control_c, 0, 67, 106
1, 14163, Control_c, 0, 64, 76
1, 14163, Control_c, 0, 67, 108
1, 14178, Control_c, 0, 67, 110
1, 14193, Control_c, 0, 64, 76
1, 14193, Control_c, 0, 67, 111
1, 14208, Control_c, 0, 67, 112
1, 14223, Control_c, 0, 67, 114
1, 14238, Control_c, 0, 64, 75
1, 14238, Control_c, 0, 67, 115
1, 14241, Note_on_c, 0, 72, 55
1, 14253, Control_c, 0, 67, 117
1, 14267, Control_c, 0, 67, 118
1, 14282, Control_c, 0, 64, 75
1, 14282, Control_c, 0, 67, 120
1, 14292, Note_off_c, 0, 75, 25
1, 14297, Control_c, 0, 67, 121
1, 14312, Control_c, 0, 67, 123
1, 14327, Control_c, 0, 64, 74
1, 14327, Control_c, 0, 67, 124
1, 14341, Control_c, 0, 67, 125
1, 14356, Control_c, 0, 64, 74
1, 14356, Control_c, 0, 67, 125
1, 14384, Note_off_c, 0, 74, 33
1, 14385, Control_c, 0, 64, 73
1, 14385, Control_c, 0, 67, 126
1, 14400, Control_c, 0, 64, 73
1, 14430, Control_c, 0, 64, 72
1, 14445, Note_on_c, 0, 70, 51
1, 14445, Control_c, 0, 64, 72
1, 14459, Control_c, 0, 64, 71
1, 14465, Note_on_c, 0, 50, 35
1, 14468, Note_on_c, 0, 65, 41
1, 14474, Note_on_c, 0, 53, 36
1, 14474, Control_c, 0, 64, 70
1, 14482, Note_on_c, 0, 58, 33
1, 14489, Control_c, 0, 64, 70
1, 14504, Control_c, 0, 64, 69
1, 14526, Control_c, 0, 64, 68
1, 14541, Control_c, 0, 64, 67
1, 14556, Control_c, 0, 64, 66
1, 14571, Control_c, 0, 64, 66
1, 14586, Control_c, 0, 64, 65
1, 14600, Control_c, 0, 64, 64
1, 14615, Control_c, 0, 64, 64
1, 14630, Control_c, 0, 64, 62
1, 14645, Control_c, 0, 64, 58
1, 14661, Control_c, 0, 64, 51
1, 14675, Control_c, 0, 64, 36
1, 14690, Control_c, 0, 64, 0
1, 14691, Note_off_c, 0, 72, 38
1, 14869, Control_c, 0, 64, 23
1, 14869, Control_c, 0, 67, 125
1, 14884, Control_c, 0, 64, 58
1, 14898, Control_c, 0, 64, 65
1, 14898, Control_c, 0, 67, 125
1, 14913, Control_c, 0, 64, 68
1, 14913, Control_c, 0, 67, 124
1, 14928, Control_c, 0, 64, 72
1, 14928, Control_c, 0, 67, 123
1, 14942, Control_c, 0, 64, 75
1, 14942, Control_c, 0, 67, 123
1, 14957, Control_c, 0, 64, 78
1, 14957, Control_c, 0, 67, 122
1, 14972, Control_c, 0, 64, 81
1, 14972, Control_c, 0, 67, 121
1, 14987, Control_c, 0, 64, 84
1, 14987, Control_c, 0, 67, 120
1, 15002, Control_c, 0, 64, 87
1, 15002, Control_c, 0, 67, 119
1, 15016, Control_c, 0, 64, 90
1, 15016, Control_c, 0, 67, 119
1, 15031, Control_c, 0, 64, 92
1, 15031, Control_c, 0, 67, 118
1, 15046, Control_c, 0, 64, 93
1, 15046, Control_c, 0, 67, 118
1, 15061, Control_c, 0, 64, 94
1, 15061, Control_c, 0, 67, 117
1, 15076, Control_c, 0, 64, 95
1, 15076, Control_c, 0, 67, 117
1, 15091, Control_c, 0, 67, 116
1, 15105, Control_c, 0, 67, 115
1, 15120, Control_c, 0, 67, 115
1, 15135, Control_c, 0, 67, 114
1, 15150, Control_c, 0, 67, 113
1, 15165, Control_c, 0, 67, 112
1, 15180, Control_c, 0, 67, 111
1, 15195, Control_c, 0, 67, 110
1, 15209, Control_c, 0, 67, 109
1, 15224, Control_c, 0, 67, 108
1, 15239, Control_c, 0, 67, 106
1, 15254, Control_c, 0, 67, 105
1, 15276, Control_c, 0, 67, 104
1, 15290, Control_c, 0, 67, 104
1, 15305, Control_c, 0, 67, 103
1, 15311, Note_on_c, 0, 51, 55
1, 15319, Note_off_c, 0, 50, 53
1, 15335, Control_c, 0, 67, 102
1, 15350, Control_c, 0, 67, 101
1, 15365, Control_c, 0, 67, 100
1, 15380, Control_c, 0, 67, 99
1, 15395, Control_c, 0, 67, 97
1, 15409, Control_c, 0, 67, 96
1, 15424, Control_c, 0, 67, 94
1, 15439, Control_c, 0, 67, 93
1, 15454, Control_c, 0, 67, 92
1, 15469, Control_c, 0, 64, 94
1, 15469, Control_c, 0, 67, 92
1, 15498, Control_c, 0, 64, 94
1, 15528, Control_c, 0, 64, 93
1, 15544, Control_c, 0, 67, 92
1, 15559, Control_c, 0, 64, 93
1, 15573, Control_c, 0, 64, 92
1, 15588, Control_c, 0, 64, 91
1, 15603, Control_c, 0, 64, 89
1, 15618, Control_c, 0, 64, 87
1, 15632, Control_c, 0, 64, 82
1, 15647, Control_c, 0, 64, 76
1, 15652, Note_on_c, 0, 50, 52
1, 15662, Control_c, 0, 64, 68
1, 15677, Control_c, 0, 64, 54
1, 15677, Control_c, 0, 67, 93
1, 15692, Control_c, 0, 64, 0
1, 15713, Note_off_c, 0, 51, 57
1, 15736, Control_c, 0, 67, 93
1, 15765, Control_c, 0, 67, 94
1, 15795, Control_c, 0, 67, 94
1, 15825, Control_c, 0, 64, 61
1, 15839, Control_c, 0, 64, 69
1, 15854, Control_c, 0, 64, 75
1, 15869, Control_c, 0, 64, 82
1, 15884, Control_c, 0, 64, 87
1, 15899, Control_c, 0, 64, 90
1, 15913, Control_c, 0, 64, 92
1, 15928, Note_off_c, 0, 50, 63
1, 15928, Control_c, 0, 64, 93
1, 15943, Control_c, 0, 64, 94
1, 15943, Control_c, 0, 67, 95
1, 15988, Control_c, 0, 67, 95
1, 16003, Control_c, 0, 67, 96
1, 16076, Note_on_c, 0, 51, 59
1, 16084, Control_c, 0, 67, 96
1, 16128, Control_c, 0, 64, 93
1, 16143, Control_c, 0, 64, 93
1, 16154, Note_off_c, 0, 53, 44
1, 16156, Note_on_c, 0, 50, 58
1, 16158, Control_c, 0, 64, 92
1, 16173, Control_c, 0, 64, 90
1, 16183, Note_off_c, 0, 51, 58
1, 16187, Control_c, 0, 64, 88
1, 16202, Control_c, 0, 64, 84
1, 16217, Control_c, 0, 64, 81
1, 16232, Control_c, 0, 64, 76
1, 16247, Control_c, 0, 64, 69
1, 16258, Note_on_c, 0, 48, 56
1, 16258, Note_off_c, 0, 50, 60
1, 16262, Control_c, 0, 64, 64
1, 16277, Control_c, 0, 64, 56
1, 16291, Control_c, 0, 64, 35
1, 16306, Control_c, 0, 64, 0
1, 16337, Control_c, 0, 67, 97
1, 16366, Control_c, 0, 67, 97
1, 16396, Control_c, 0, 67, 98
1, 16520, Note_on_c, 0, 50, 56
1, 16554, Note_off_c, 0, 48, 59
1, 16574, Control_c, 0, 64, 27
1, 16588, Control_c, 0, 64, 59
1, 16603, Control_c, 0, 64, 65
1, 16618, Control_c, 0, 64, 69
1, 16633, Control_c, 0, 64, 74
1, 16641, Note_off_c, 0, 58, 61
1, 16648, Control_c, 0, 64, 78
1, 16662, Control_c, 0, 64, 83
1, 16677, Control_c, 0, 64, 87
1, 16692, Control_c, 0, 64, 90
1, 16706, Control_c, 0, 64, 93
1, 16721, Control_c, 0, 64, 95
1, 16736, Control_c, 0, 64, 96
1, 16736, Control_c, 0, 67, 98
1, 16803, Control_c, 0, 67, 99
1, 16862, Control_c, 0, 67, 99
1, 16907, Control_c, 0, 67, 100
1, 16924, Note_on_c, 0, 67, 57
1, 16936, Control_c, 0, 64, 95
1, 16938, Note_on_c, 0, 60, 44
1, 16948, Note_on_c, 0, 51, 46
1, 16951, Control_c, 0, 64, 94
1, 16966, Control_c, 0, 64, 92
1, 16981, Control_c, 0, 64, 88
1, 16995, Control_c, 0, 64, 82
1, 17010, Control_c, 0, 64, 73
1, 17025, Control_c, 0, 64, 64
1, 17040, Control_c, 0, 64, 38
1, 17055, Control_c, 0, 64, 0
1, 17070, Note_off_c, 0, 65, 50
1, 17097, Note_off_c, 0, 50, 54
1, 17100, Control_c, 0, 67, 99
1, 17109, Note_off_c, 0, 70, 61
1, 17114, Control_c, 0, 67, 99
1, 17145, Control_c, 0, 67, 98
1, 17189, Control_c, 0, 67, 98
1, 17293, Note_on_c, 0, 72, 64
1, 17485, Control_c, 0, 67, 97
1, 17582, Control_c, 0, 67, 97
1, 17583, Note_on_c, 0, 71, 66
1, 17656, Control_c, 0, 67, 96
1, 17668, Note_off_c, 0, 72, 54
1, 17729, Control_c, 0, 64, 35
1, 17729, Control_c, 0, 67, 96
1, 17744, Control_c, 0, 64, 49
1, 17759, Control_c, 0, 64, 58
1, 17759, Control_c, 0, 67, 95
1, 17774, Control_c, 0, 64, 63
1, 17789, Control_c, 0, 64, 64
1, 17789, Control_c, 0, 67, 95
1, 17804, Control_c, 0, 64, 66
1, 17818, Control_c, 0, 64, 68
1, 17818, Control_c, 0, 67, 94
1, 17833, Control_c, 0, 64, 69
1, 17848, Control_c, 0, 64, 70
1, 17852, Note_on_c, 0, 72, 71
1, 17863, Control_c, 0, 64, 71
1, 17878, Control_c, 0, 64, 72
1, 17893, Control_c, 0, 64, 72
1, 17893, Control_c, 0, 67, 94
1, 17907, Control_c, 0, 67, 93
1, 17922, Control_c, 0, 64, 73
1, 17923, Note_off_c, 0, 71, 56
1, 17938, Control_c, 0, 64, 73
1, 17938, Control_c, 0, 67, 93
1, 17953, Control_c, 0, 64, 74
1, 17967, Control_c, 0, 64, 74
1, 17981, Note_off_c, 0, 67, 63
1, 18042, Control_c, 0, 67, 93
1, 18071, Control_c, 0, 67, 94
1, 18190, Note_on_c, 0, 67, 67
1, 18205, Control_c, 0, 64, 74
1, 18205, Control_c, 0, 67, 94
1, 18220, Control_c, 0, 64, 72
1, 18234, Control_c, 0, 64, 70
1, 18249, Control_c, 0, 64, 64
1, 18271, Control_c, 0, 64, 49
1, 18286, Control_c, 0, 64, 0
1, 18333, Note_off_c, 0, 72, 61
1, 18346, Control_c, 0, 67, 95
1, 18404, Control_c, 0, 64, 60
1, 18404, Control_c, 0, 67, 95
1, 18419, Control_c, 0, 64, 67
1, 18433, Control_c, 0, 64, 72
1, 18448, Control_c, 0, 64, 78
1, 18448, Control_c, 0, 67, 96
1, 18463, Control_c, 0, 64, 82
1, 18478, Control_c, 0, 64, 86
1, 18493, Control_c, 0, 64, 92
1, 18507, Control_c, 0, 64, 97
1, 18522, Control_c, 0, 64, 101
1, 18522, Control_c, 0, 67, 96
1, 18528, Note_off_c, 0, 60, 36
1, 18537, Control_c, 0, 64, 104
1, 18537, Control_c, 0, 67, 97
1, 18551, Control_c, 0, 64, 108
1, 18551, Control_c, 0, 67, 97
1, 18566, Control_c, 0, 64, 111
1, 18566, Control_c, 0, 67, 98
1, 18581, Control_c, 0, 64, 115
1, 18581, Control_c, 0, 67, 98
1, 18596, Control_c, 0, 64, 122
1, 18596, Control_c, 0, 67, 99
1, 18611, Control_c, 0, 64, 127
1, 18611, Control_c, 0, 67, 99
1, 18626, Control_c, 0, 67, 100
1, 18641, Control_c, 0, 67, 100
1, 18656, Control_c, 0, 67, 101
1, 18684, Note_off_c, 0, 51, 34
1, 18685, Control_c, 0, 67, 101
1, 18700, Control_c, 0, 67, 102
1, 18745, Control_c, 0, 67, 102
1, 18781, Note_on_c, 0, 65, 56
1, 18832, Note_on_c, 0, 56, 41
1, 18835, Note_on_c, 0, 60, 37
1, 18849, Control_c, 0, 64, 120
1, 18864, Control_c, 0, 64, 103
1, 18879, Control_c, 0, 64, 87
1, 18894, Control_c, 0, 64, 73
1, 18894, Control_c, 0, 67, 103
1, 18909, Control_c, 0, 64, 51
1, 18924, Control_c, 0, 64, 0
1, 18924, Control_c, 0, 67, 103
1, 18961, Note_off_c, 0, 67, 62
1, 18982, Control_c, 0, 67, 104
1, 19034, Control_c, 0, 67, 104
1, 19049, Control_c, 0, 64, 42
1, 19064, Control_c, 0, 64, 62
1, 19079, Control_c, 0, 64, 67
1, 19094, Control_c, 0, 64, 71
1, 19094, Control_c, 0, 67, 105
1, 19108, Control_c, 0, 64, 77
1, 19123, Control_c, 0, 64, 82
1, 19123, Control_c, 0, 67, 105
1, 19138, Control_c, 0, 64, 87
1, 19138, Control_c, 0, 67, 106
1, 19153, Control_c, 0, 64, 92
1, 19153, Control_c, 0, 67, 107
1, 19168, Control_c, 0, 64, 96
1, 19168, Control_c, 0, 67, 109
1, 19182, Control_c, 0, 64, 99
1, 19182, Control_c, 0, 67, 112
1, 19197, Control_c, 0, 64, 102
1, 19197, Control_c, 0, 67, 114
1, 19212, Control_c, 0, 64, 103
1, 19212, Control_c, 0, 67, 117
1, 19227, Control_c, 0, 64, 103
1, 19227, Control_c, 0, 67, 118
1, 19242, Control_c, 0, 67, 120
1, 19256, Control_c, 0, 64, 104
1, 19256, Control_c, 0, 67, 122
1, 19271, Control_c, 0, 67, 124
1, 19286, Control_c, 0, 67, 125
1, 19301, Control_c, 0, 67, 126
1, 19315, Control_c, 0, 67, 127
1, 19330, Control_c, 0, 67, 127
1, 19335, Note_off_c, 0, 65, 58
1, 19353, Note_on_c, 0, 63, 56
1, 19455, Note_on_c, 0, 65, 58
1, 19493, Control_c, 0, 64, 103
1, 19505, Note_off_c, 0, 63, 34
1, 19627, Control_c, 0, 64, 103
1, 19630, Note_on_c, 0, 67, 55
1, 19642, Control_c, 0, 64, 102
1, 19657, Control_c, 0, 64, 101
1, 19666, Note_on_c, 0, 62, 47
1, 19668, Note_on_c, 0, 59, 36
1, 19672, Control_c, 0, 64, 99
1, 19675, Note_on_c, 0, 55, 34
1, 19687, Control_c, 0, 64, 98
1, 19702, Control_c, 0, 64, 95
1, 19717, Control_c, 0, 64, 92
1, 19731, Control_c, 0, 64, 86
1, 19746, Control_c, 0, 64, 78
1, 19768, Control_c, 0, 64, 70
1, 19782, Note_off_c, 0, 56, 40
1, 19783, Control_c, 0, 64, 56
1, 19798, Control_c, 0, 64, 0
1, 19798, Control_c, 0, 67, 127
1, 19800, Note_off_c, 0, 65, 61
1, 19806, Note_off_c, 0, 60, 43
1, 19812, Control_c, 0, 67, 126
1, 19827, Control_c, 0, 67, 125
1, 19842, Control_c, 0, 67, 124
1, 19857, Control_c, 0, 67, 124
1, 19872, Control_c, 0, 67, 123
1, 19887, Control_c, 0, 67, 123
1, 19902, Control_c, 0, 67, 122
1, 19917, Control_c, 0, 67, 121
1, 19931, Control_c, 0, 67, 119
1, 19946, Control_c, 0, 67, 118
1, 19961, Control_c, 0, 67, 118
1, 19976, Control_c, 0, 67, 117
1, 19991, Control_c, 0, 67, 116
1, 20005, Control_c, 0, 67, 115
1, 20020, Control_c, 0, 67, 114
1, 20035, Control_c, 0, 67, 113
1, 20050, Control_c, 0, 67, 111
1, 20065, Control_c, 0, 67, 110
1, 20079, Control_c, 0, 67, 108
1, 20094, Control_c, 0, 67, 106
1, 20109, Control_c, 0, 67, 104
1, 20124, Control_c, 0, 64, 17
1, 20124, Control_c, 0, 67, 102
1, 20138, Control_c, 0, 64, 43
1, 20138, Control_c, 0, 67, 100
1, 20153, Control_c, 0, 64, 56
1, 20153, Control_c, 0, 67, 98
1, 20168, Control_c, 0, 64, 62
1, 20168, Control_c, 0, 67, 97
1, 20183, Control_c, 0, 64, 64
1, 20183, Control_c, 0, 67, 95
1, 20198, Control_c, 0, 64, 66
1, 20198, Control_c, 0, 67, 93
1, 20212, Control_c, 0, 64, 68
1, 20212, Control_c, 0, 67, 90
1, 20227, Control_c, 0, 64, 70
1, 20227, Control_c, 0, 67, 88
1, 20242, Control_c, 0, 64, 72
1, 20242, Control_c, 0, 67, 86
1, 20257, Control_c, 0, 64, 75
1, 20257, Control_c, 0, 67, 84
1, 20272, Control_c, 0, 64, 77
1, 20272, Control_c, 0, 67, 82
1, 20286, Control_c, 0, 64, 80
1, 20286, Control_c, 0, 67, 80
1, 20301, Control_c, 0, 64, 82
1, 20301, Control_c, 0, 67, 78
1, 20316, Control_c, 0, 64, 84
1, 20316, Control_c, 0, 67, 76
1, 20332, Control_c, 0, 64, 86
1, 20332, Control_c, 0, 67, 74
1, 20346, Control_c, 0, 64, 88
1, 20346, Control_c, 0, 67, 71
1, 20361, Control_c, 0, 64, 91
1, 20361, Control_c, 0, 67, 69
1, 20376, Control_c, 0, 64, 93
1, 20376, Control_c, 0, 67, 66
1, 20391, Control_c, 0, 64, 95
1, 20391, Control_c, 0, 67, 65
1, 20406, Control_c, 0, 64, 97
1, 20406, Control_c, 0, 67, 63
1, 20420, Control_c, 0, 64, 100
1, 20420, Control_c, 0, 67, 61
1, 20435, Control_c, 0, 64, 104
1, 20435, Control_c, 0, 67, 59
1, 20450, Control_c, 0, 64, 109
1, 20450, Control_c, 0, 67, 57
1, 20465, Control_c, 0, 64, 116
1, 20465, Control_c, 0, 67, 54
1, 20480, Control_c, 0, 64, 127
1, 20480, Control_c, 0, 67, 50
1, 20495, Control_c, 0, 67, 46
1, 20517, Control_c, 0, 67, 42
1, 20532, Control_c, 0, 67, 38
1, 20547, Control_c, 0, 67, 34
1, 20561, Control_c, 0, 67, 29
1, 20576, Control_c, 0, 67, 23
1, 20591, Control_c, 0, 67, 17
1, 20606, Control_c, 0, 67, 11
1, 20621, Control_c, 0, 67, 0
1, 20760, Note_on_c, 0, 63, 49
1, 20775, Note_on_c, 0, 60, 36
1, 20827, Control_c, 0, 64, 96
1, 20842, Control_c, 0, 64, 79
1, 20857, Control_c, 0, 64, 66
1, 20872, Control_c, 0, 64, 0
1, 20877, Note_off_c, 0, 59, 52
1, 20962, Note_off_c, 0, 62, 49
1, 21020, Control_c, 0, 64, 56
1, 21034, Control_c, 0, 64, 65
1, 21049, Control_c, 0, 64, 69
1, 21064, Control_c, 0, 64, 74
1, 21079, Control_c, 0, 64, 80
1, 21094, Control_c, 0, 64, 88
1, 21109, Control_c, 0, 64, 95
1, 21124, Control_c, 0, 64, 102
1, 21139, Control_c, 0, 64, 111
1, 21154, Control_c, 0, 64, 127
1, 21371, Note_on_c, 0, 65, 56
1, 21386, Note_on_c, 0, 62, 42
1, 21399, Control_c, 0, 64, 98
1, 21414, Control_c, 0, 64, 78
1, 21428, Note_off_c, 0, 60, 58
1, 21429, Control_c, 0, 64, 62
1, 21444, Control_c, 0, 64, 0
1, 21502, Note_off_c, 0, 63, 59
1, 21517, Control_c, 0, 64, 37
1, 21532, Control_c, 0, 64, 66
1, 21547, Control_c, 0, 64, 76
1, 21562, Control_c, 0, 64, 88
1, 21577, Control_c, 0, 64, 105
1, 21592, Control_c, 0, 64, 127
1, 21604, Note_off_c, 0, 55, 54
1, 21696, Note_off_c, 0, 65, 61
1, 21718, Note_off_c, 0, 67, 62
1, 21790, Note_off_c, 0, 62, 39
1, 22096, Note_on_c, 0, 79, 83
1, 22126, Note_on_c, 0, 67, 60
1, 22134, Note_on_c, 0, 60, 42
1, 22134, Note_on_c, 0, 72, 53
1, 22135, Note_on_c, 0, 51, 44
1, 22137, Note_on_c, 0, 55, 44
1, 22222, Control_c, 0, 64, 106
1, 22237, Control_c, 0, 64, 82
1, 22252, Control_c, 0, 64, 63
1, 22267, Control_c, 0, 64, 0
1, 22340, Control_c, 0, 64, 60
1, 22355, Control_c, 0, 64, 72
1, 22370, Control_c, 0, 64, 88
1, 22385, Control_c, 0, 64, 127
1, 22483, Note_off_c, 0, 60, 56
1, 22555, Note_off_c, 0, 67, 54
1, 22567, Note_off_c, 0, 79, 58
1, 22571, Note_off_c, 0, 55, 51
1, 22601, Note_off_c, 0, 51, 41
1, 22702, Note_on_c, 0, 79, 86
1, 22716, Note_on_c, 0, 67, 73
1, 22978, Note_on_c, 0, 50, 72
1, 22986, Control_c, 0, 64, 121
1, 23001, Control_c, 0, 64, 79
1, 23016, Control_c, 0, 64, 58
1, 23030, Control_c, 0, 64, 0
1, 23045, Control_c, 0, 64, 44
1, 23060, Control_c, 0, 64, 62
1, 23075, Control_c, 0, 64, 68
1, 23076, Note_on_c, 0, 56, 76
1, 23090, Control_c, 0, 64, 76
1, 23104, Control_c, 0, 64, 93
1, 23118, Note_off_c, 0, 50, 61
1, 23119, Control_c, 0, 64, 127
1, 23172, Note_on_c, 0, 60, 73
1, 23178, Note_off_c, 0, 56, 64
1, 23241, Note_off_c, 0, 67, 57
1, 23282, Note_off_c, 0, 72, 49
1, 23321, Note_off_c, 0, 79, 35
1, 23391, Note_off_c, 0, 60, 48
1, 23446, Note_on_c, 0, 79, 85
1, 23452, Note_on_c, 0, 67, 75
1, 23459, Note_on_c, 0, 72, 74
1, 23470, Note_on_c, 0, 68, 69
1, 23794, Control_c, 0, 64, 112
1, 23809, Control_c, 0, 64, 107
1, 23824, Control_c, 0, 64, 104
1, 23839, Control_c, 0, 64, 101
1, 23853, Control_c, 0, 64, 98
1, 23868, Control_c, 0, 64, 95
1, 23883, Control_c, 0, 64, 92
1, 23897, Control_c, 0, 64, 89
1, 23912, Control_c, 0, 64, 86
1, 23927, Control_c, 0, 64, 84
1, 23942, Control_c, 0, 64, 82
1, 23957, Control_c, 0, 64, 79
1, 23971, Control_c, 0, 64, 76
1, 23986, Control_c, 0, 64, 74
1, 24001, Control_c, 0, 64, 70
1, 24016, Control_c, 0, 64, 68
1, 24031, Control_c, 0, 64, 66
1, 24045, Control_c, 0, 64, 64
1, 24060, Control_c, 0, 64, 64
1, 24075, Control_c, 0, 64, 63
1, 24090, Control_c, 0, 64, 62
1, 24105, Control_c, 0, 64, 61
1, 24120, Control_c, 0, 64, 59
1, 24135, Control_c, 0, 64, 55
1, 24149, Control_c, 0, 64, 45
1, 24164, Control_c, 0, 64, 30
1, 24179, Control_c, 0, 64, 0
1, 24260, Control_c, 0, 67, 8
1, 24275, Control_c, 0, 67, 11
1, 24290, Control_c, 0, 64, 45
1, 24290, Control_c, 0, 67, 14
1, 24304, Control_c, 0, 64, 63
1, 24304, Control_c, 0, 67, 18
1, 24319, Control_c, 0, 64, 69
1, 24319, Control_c, 0, 67, 23
1, 24335, Control_c, 0, 64, 76
1, 24335, Control_c, 0, 67, 27
1, 24350, Control_c, 0, 64, 83
1, 24350, Control_c, 0, 67, 31
1, 24365, Control_c, 0, 64, 91
1, 24365, Control_c, 0, 67, 35
1, 24380, Control_c, 0, 64, 97
1, 24380, Control_c, 0, 67, 38
1, 24395, Control_c, 0, 64, 100
1, 24395, Control_c, 0, 67, 40
1, 24409, Control_c, 0, 64, 101
1, 24409, Control_c, 0, 67, 41
1, 24424, Control_c, 0, 64, 102
1, 24424, Control_c, 0, 67, 43
1, 24439, Control_c, 0, 64, 104
1, 24439, Control_c, 0, 67, 45
1, 24454, Control_c, 0, 64, 107
1, 24454, Control_c, 0, 67, 47
1, 24469, Control_c, 0, 64, 110
1, 24469, Control_c, 0, 67, 50
1, 24483, Control_c, 0, 64, 111
1, 24483, Control_c, 0, 67, 52
1, 24498, Control_c, 0, 67, 53
1, 24513, Control_c, 0, 67, 54
1, 24528, Control_c, 0, 64, 112
1, 24528, Control_c, 0, 67, 56
1, 24531, Note_on_c, 0, 77, 72
1, 24538, Note_on_c, 0, 65, 53
1, 24543, Control_c, 0, 64, 112
1, 24543, Control_c, 0, 67, 57
1, 24558, Note_off_c, 0, 67, 44
1, 24558, Control_c, 0, 64, 113
1, 24558, Control_c, 0, 67, 58
1, 24573, Control_c, 0, 67, 60
1, 24588, Control_c, 0, 64, 113
1, 24588, Control_c, 0, 67, 61
1, 24602, Control_c, 0, 64, 114
1, 24602, Control_c, 0, 67, 62
1, 24617, Control_c, 0, 64, 114
1, 24617, Control_c, 0, 67, 64
1, 24632, Control_c, 0, 64, 115
1, 24632, Control_c, 0, 67, 64
1, 24647, Control_c, 0, 67, 65
1, 24662, Control_c, 0, 67, 66
1, 24667, Note_on_c, 0, 75, 74
1, 24671, Note_off_c, 0, 65, 54
1, 24672, Note_on_c, 0, 63, 56
1, 24676, Control_c, 0, 67, 66
1, 24691, Control_c, 0, 67, 67
1, 24706, Control_c, 0, 67, 69
1, 24720, Control_c, 0, 64, 115
1, 24720, Control_c, 0, 67, 71
1, 24735, Control_c, 0, 67, 72
1, 24750, Control_c, 0, 67, 73
1, 24765, Control_c, 0, 67, 73
1, 24839, Control_c, 0, 64, 115
1, 24856, Note_on_c, 0, 74, 74
1, 24861, Note_off_c, 0, 79, 18
1, 24862, Note_off_c, 0, 75, 35
1, 24884, Note_on_c, 0, 62, 45
1, 24898, Control_c, 0, 64, 114
1, 24913, Control_c, 0, 64, 111
1, 24928, Control_c, 0, 64, 107
1, 24941, Note_off_c, 0, 63, 37
1, 24942, Control_c, 0, 64, 101
1, 24957, Control_c, 0, 64, 95
1, 24966, Note_off_c, 0, 77, 49
1, 24972, Control_c, 0, 64, 87
1, 24987, Control_c, 0, 64, 76
1, 24987, Control_c, 0, 67, 74
1, 25008, Note_off_c, 0, 68, 48
1, 25009, Control_c, 0, 64, 67
1, 25009, Control_c, 0, 67, 75
1, 25020, Note_off_c, 0, 72, 58
1, 25024, Control_c, 0, 64, 56
1, 25024, Control_c, 0, 67, 77
1, 25039, Control_c, 0, 64, 17
1, 25039, Control_c, 0, 67, 78
1, 25053, Control_c, 0, 64, 0
1, 25068, Control_c, 0, 67, 79
1, 25083, Control_c, 0, 67, 80
1, 25098, Control_c, 0, 67, 81
1, 25113, Control_c, 0, 67, 82
1, 25129, Control_c, 0, 67, 84
1, 25144, Control_c, 0, 67, 84
1, 25158, Control_c, 0, 67, 85
1, 25173, Control_c, 0, 67, 86
1, 25188, Control_c, 0, 67, 88
1, 25203, Control_c, 0, 64, 33
1, 25203, Control_c, 0, 67, 89
1, 25218, Control_c, 0, 64, 62
1, 25218, Control_c, 0, 67, 90
1, 25232, Control_c, 0, 64, 67
1, 25232, Control_c, 0, 67, 92
1, 25247, Control_c, 0, 64, 70
1, 25247, Control_c, 0, 67, 93
1, 25262, Control_c, 0, 64, 73
1, 25262, Control_c, 0, 67, 95
1, 25277, Control_c, 0, 64, 76
1, 25277, Control_c, 0, 67, 97
1, 25292, Control_c, 0, 64, 80
1, 25292, Control_c, 0, 67, 99
1, 25306, Control_c, 0, 64, 85
1, 25306, Control_c, 0, 67, 100
1, 25321, Control_c, 0, 64, 89
1, 25321, Control_c, 0, 67, 102
1, 25336, Control_c, 0, 64, 92
1, 25336, Control_c, 0, 67, 104
1, 25351, Control_c, 0, 64, 95
1, 25351, Control_c, 0, 67, 106
1, 25366, Control_c, 0, 64, 97
1, 25366, Control_c, 0, 67, 107
1, 25381, Control_c, 0, 64, 100
1, 25381, Control_c, 0, 67, 108
1, 25396, Control_c, 0, 64, 103
1, 25396, Control_c, 0, 67, 109
1, 25410, Control_c, 0, 64, 106
1, 25410, Control_c, 0, 67, 110
1, 25425, Control_c, 0, 64, 109
1, 25425, Control_c, 0, 67, 111
1, 25440, Control_c, 0, 64, 112
1, 25440, Control_c, 0, 67, 112
1, 25455, Control_c, 0, 64, 114
1, 25455, Control_c, 0, 67, 112
1, 25469, Control_c, 0, 64, 115
1, 25469, Control_c, 0, 67, 113
1, 25484, Control_c, 0, 64, 117
1, 25484, Control_c, 0, 67, 113
1, 25499, Control_c, 0, 64, 120
1, 25514, Control_c, 0, 64, 123
1, 25514, Control_c, 0, 67, 114
1, 25529, Control_c, 0, 64, 124
1, 25529, Control_c, 0, 67, 114
1, 25573, Control_c, 0, 67, 115
1, 25588, Control_c, 0, 64, 126
1, 25603, Control_c, 0, 64, 127
1, 25617, Control_c, 0, 67, 115
1, 25629, Note_on_c, 0, 72, 45
1, 25654, Note_on_c, 0, 60, 29
1, 25656, Note_on_c, 0, 56, 33
1, 25656, Note_on_c, 0, 65, 35
1, 25662, Control_c, 0, 67, 116
1, 25676, Control_c, 0, 67, 117
1, 25691, Control_c, 0, 67, 117
1, 25706, Control_c, 0, 67, 118
1, 25721, Control_c, 0, 67, 119
1, 25736, Control_c, 0, 67, 120
1, 25758, Control_c, 0, 67, 121
1, 25773, Control_c, 0, 67, 122
1, 25788, Control_c, 0, 67, 122
1, 25803, Control_c, 0, 67, 123
1, 25818, Control_c, 0, 67, 124
1, 25832, Control_c, 0, 67, 125
1, 25847, Control_c, 0, 67, 125
1, 25862, Control_c, 0, 67, 126
1, 25876, Control_c, 0, 67, 127
1, 25891, Control_c, 0, 67, 127
1, 26012, Note_off_c, 0, 60, 41
1, 26044, Note_off_c, 0, 65, 38
1, 26141, Note_off_c, 0, 56, 27
1, 27067, Note_on_c, 0, 71, 37
1, 27077, Note_on_c, 0, 55, 28
1, 27078, Note_on_c, 0, 59, 24
1, 27086, Control_c, 0, 64, 124
1, 27099, Note_on_c, 0, 67, 20
1, 27101, Control_c, 0, 64, 115
1, 27115, Control_c, 0, 64, 104
1, 27130, Control_c, 0, 64, 91
1, 27144, Note_off_c, 0, 72, 50
1, 27145, Control_c, 0, 64, 78
1, 27160, Control_c, 0, 64, 65
1, 27175, Control_c, 0, 64, 0
1, 27270, Control_c, 0, 64, 23
1, 27285, Control_c, 0, 64, 65
1, 27300, Control_c, 0, 64, 71
1, 27315, Control_c, 0, 64, 77
1, 27330, Control_c, 0, 64, 85
1, 27340, Note_off_c, 0, 55, 41
1, 27345, Control_c, 0, 64, 92
1, 27360, Control_c, 0, 64, 100
1, 27365, Note_off_c, 0, 62, 37
1, 27375, Control_c, 0, 64, 114
1, 27383, Note_off_c, 0, 59, 39
1, 27390, Control_c, 0, 64, 127
1, 27461, Note_off_c, 0, 71, 38
1, 27485, Note_off_c, 0, 67, 37
1, 27494, Control_c, 0, 67, 124
1, 27509, Control_c, 0, 67, 121
1, 27524, Control_c, 0, 67, 119
1, 27539, Control_c, 0, 67, 118
1, 27554, Control_c, 0, 67, 116
1, 27569, Control_c, 0, 67, 113
1, 27583, Control_c, 0, 67, 109
1, 27598, Control_c, 0, 67, 105
1, 27613, Control_c, 0, 67, 100
1, 27628, Control_c, 0, 67, 94
1, 27643, Control_c, 0, 67, 87
1, 27658, Control_c, 0, 67, 82
1, 27673, Control_c, 0, 67, 81
1, 27688, Control_c, 0, 67, 80
1, 27702, Control_c, 0, 67, 80
1, 27746, Control_c, 0, 67, 80
1, 27761, Control_c, 0, 67, 81
1, 27791, Control_c, 0, 67, 81
1, 27806, Control_c, 0, 67, 82
1, 27825, Note_on_c, 0, 79, 63
1, 27835, Control_c, 0, 67, 82
1, 27864, Note_on_c, 0, 67, 38
1, 27864, Control_c, 0, 67, 83
1, 27867, Note_on_c, 0, 51, 35
1, 27867, Note_on_c, 0, 60, 32
1, 27870, Note_on_c, 0, 55, 34
1, 27873, Note_on_c, 0, 72, 41
1, 27879, Control_c, 0, 67, 84
1, 27894, Control_c, 0, 67, 85
1, 27909, Control_c, 0, 64, 110
1, 27909, Control_c, 0, 67, 85
1, 27924, Control_c, 0, 64, 88
1, 27924, Control_c, 0, 67, 86
1, 27938, Control_c, 0, 64, 73
1, 27938, Control_c, 0, 67, 86
1, 27953, Control_c, 0, 64, 47
1, 27968, Control_c, 0, 64, 0
1, 27968, Control_c, 0, 67, 87
1, 27995, Note_off_c, 0, 74, 38
1, 28035, Control_c, 0, 64, 51
1, 28050, Control_c, 0, 64, 66
1, 28050, Control_c, 0, 67, 86
1, 28065, Control_c, 0, 64, 74
1, 28079, Control_c, 0, 64, 82
1, 28094, Control_c, 0, 64, 91
1, 28094, Control_c, 0, 67, 86
1, 28109, Control_c, 0, 64, 97
1, 28109, Control_c, 0, 67, 85
1, 28124, Control_c, 0, 64, 103
1, 28139, Control_c, 0, 64, 110
1, 28153, Control_c, 0, 64, 120
1, 28153, Control_c, 0, 67, 85
1, 28168, Control_c, 0, 64, 127
1, 28198, Control_c, 0, 67, 84
1, 28259, Note_off_c, 0, 60, 43
1, 28265, Note_off_c, 0, 55, 42
1, 28302, Control_c, 0, 67, 85
1, 28308, Note_off_c, 0, 51, 43
1, 28362, Control_c, 0, 67, 85
1, 28376, Control_c, 0, 67, 86
1, 28400, Note_off_c, 0, 67, 37
1, 28422, Note_off_c, 0, 79, 58
1, 28451, Control_c, 0, 67, 86
1, 28542, Note_on_c, 0, 79, 75
1, 28579, Note_on_c, 0, 67, 40
1, 28769, Control_c, 0, 67, 87
1, 28799, Control_c, 0, 64, 104
1, 28799, Control_c, 0, 67, 88
1, 28814, Control_c, 0, 64, 80
1, 28829, Control_c, 0, 64, 65
1, 28829, Control_c, 0, 67, 88
1, 28843, Control_c, 0, 64, 0
1, 28858, Control_c, 0, 67, 89
1, 28873, Control_c, 0, 67, 89
1, 28874, Note_on_c, 0, 50, 41
1, 28901, Control_c, 0, 64, 40
1, 28901, Control_c, 0, 67, 90
1, 28916, Control_c, 0, 64, 61
1, 28916, Control_c, 0, 67, 90
1, 28931, Control_c, 0, 64, 68
1, 28931, Control_c, 0, 67, 91
1, 28946, Control_c, 0, 64, 76
1, 28946, Control_c, 0, 67, 91
1, 28961, Control_c, 0, 64, 85
1, 28976, Control_c, 0, 64, 93
1, 28976, Control_c, 0, 67, 92
1, 28987, Note_off_c, 0, 50, 55
1, 28990, Control_c, 0, 64, 99
1, 28994, Note_on_c, 0, 56, 49
1, 29005, Control_c, 0, 64, 103
1, 29020, Control_c, 0, 64, 108
1, 29020, Control_c, 0, 67, 92
1, 29035, Control_c, 0, 64, 114
1, 29050, Control_c, 0, 64, 120
1, 29050, Control_c, 0, 67, 93
1, 29056, Note_off_c, 0, 56, 60
1, 29065, Control_c, 0, 64, 127
1, 29065, Control_c, 0, 67, 94
1, 29089, Note_off_c, 0, 72, 38
1, 29094, Control_c, 0, 67, 94
1, 29117, Note_off_c, 0, 67, 48
1, 29120, Note_on_c, 0, 60, 49
1, 29125, Control_c, 0, 67, 95
1, 29140, Control_c, 0, 67, 96
1, 29147, Note_off_c, 0, 79, 42
1, 29154, Control_c, 0, 67, 97
1, 29169, Control_c, 0, 67, 98
1, 29184, Control_c, 0, 67, 100
1, 29187, Note_off_c, 0, 60, 62
1, 29199, Control_c, 0, 67, 101
1, 29214, Control_c, 0, 67, 102
1, 29229, Control_c, 0, 67, 104
1, 29244, Control_c, 0, 67, 105
1, 29259, Control_c, 0, 67, 106
1, 29273, Control_c, 0, 67, 107
1, 29288, Control_c, 0, 67, 108
1, 29303, Control_c, 0, 67, 109
1, 29332, Control_c, 0, 67, 109
1, 29391, Control_c, 0, 67, 110
1, 29465, Control_c, 0, 67, 110
1, 29500, Note_on_c, 0, 79, 60
1, 29515, Note_on_c, 0, 72, 55
1, 29521, Note_on_c, 0, 68, 54
1, 29525, Note_on_c, 0, 67, 46
1, 29591, Control_c, 0, 64, 112
1, 29606, Control_c, 0, 64, 100
1, 29606, Control_c, 0, 67, 110
1, 29621, Control_c, 0, 64, 91
1, 29636, Control_c, 0, 64, 83
1, 29650, Control_c, 0, 64, 77
1, 29650, Control_c, 0, 67, 109
1, 29665, Control_c, 0, 64, 70
1, 29680, Control_c, 0, 64, 67
1, 29695, Control_c, 0, 64, 66
1, 29710, Control_c, 0, 64, 66
1, 29724, Control_c, 0, 64, 65
1, 29739, Control_c, 0, 64, 64
1, 29754, Control_c, 0, 64, 64
1, 29769, Control_c, 0, 64, 63
1, 29903, Control_c, 0, 64, 63
1, 29933, Control_c, 0, 64, 62
1, 29933, Control_c, 0, 67, 110
1, 29947, Control_c, 0, 64, 62
1, 29962, Control_c, 0, 64, 61
1, 29977, Control_c, 0, 64, 61
1, 29992, Control_c, 0, 64, 60
1, 30007, Control_c, 0, 64, 60
1, 30037, Control_c, 0, 67, 110
1, 30066, Control_c, 0, 67, 111
1, 30096, Control_c, 0, 64, 61
1, 30096, Control_c, 0, 67, 111
1, 30111, Control_c, 0, 64, 62
1, 30126, Control_c, 0, 64, 64
1, 30126, Control_c, 0, 67, 112
1, 30140, Control_c, 0, 64, 67
1, 30140, Control_c, 0, 67, 115
1, 30155, Control_c, 0, 64, 69
1, 30155, Control_c, 0, 67, 117
1, 30170, Control_c, 0, 64, 72
1, 30170, Control_c, 0, 67, 118
1, 30185, Control_c, 0, 64, 75
1, 30185, Control_c, 0, 67, 119
1, 30200, Control_c, 0, 64, 78
1, 30200, Control_c, 0, 67, 119
1, 30214, Control_c, 0, 64, 80
1, 30214, Control_c, 0, 67, 120
1, 30229, Control_c, 0, 64, 83
1, 30229, Control_c, 0, 67, 121
1, 30251, Control_c, 0, 64, 85
1, 30251, Control_c, 0, 67, 122
1, 30266, Control_c, 0, 64, 88
1, 30266, Control_c, 0, 67, 123
1, 30281, Control_c, 0, 64, 92
1, 30281, Control_c, 0, 67, 123
1, 30296, Control_c, 0, 64, 95
1, 30296, Control_c, 0, 67, 124
1, 30311, Control_c, 0, 64, 98
1, 30311, Control_c, 0, 67, 125
1, 30326, Control_c, 0, 64, 100
1, 30326, Control_c, 0, 67, 126
1, 30340, Control_c, 0, 64, 102
1, 30340, Control_c, 0, 67, 127
1, 30355, Control_c, 0, 64, 106
1, 30370, Control_c, 0, 64, 110
1, 30385, Control_c, 0, 64, 115
1, 30400, Control_c, 0, 64, 123
1, 30414, Control_c, 0, 64, 127
1, 30787, Note_on_c, 0, 77, 50
1, 30792, Note_off_c, 0, 67, 37
1, 30797, Note_on_c, 0, 65, 41
1, 30925, Note_off_c, 0, 65, 50
1, 30937, Note_on_c, 0, 75, 55
1, 30958, Note_on_c, 0, 63, 37
1, 31097, Note_off_c, 0, 75, 28
1, 31139, Note_off_c, 0, 79, 30
1, 31154, Note_on_c, 0, 74, 59
1, 31179, Note_on_c, 0, 62, 39
1, 31190, Note_off_c, 0, 63, 44
1, 31217, Note_off_c, 0, 68, 51
1, 31233, Note_off_c, 0, 77, 34
1, 31251, Control_c, 0, 64, 106
1, 31256, Note_off_c, 0, 72, 48
1, 31266, Control_c, 0, 64, 90
1, 31281, Control_c, 0, 64, 76
1, 31295, Control_c, 0, 64, 65
1, 31310, Control_c, 0, 64, 43
1, 31325, Control_c, 0, 64, 0
1, 31474, Control_c, 0, 64, 21
1, 31488, Control_c, 0, 64, 56
1, 31503, Control_c, 0, 64, 64
1, 31518, Control_c, 0, 64, 68
1, 31533, Control_c, 0, 64, 71
1, 31548, Control_c, 0, 64, 75
1, 31563, Control_c, 0, 64, 79
1, 31578, Control_c, 0, 64, 83
1, 31593, Control_c, 0, 64, 87
1, 31608, Control_c, 0, 64, 91
1, 31623, Control_c, 0, 64, 95
1, 31638, Control_c, 0, 64, 99
1, 31652, Control_c, 0, 64, 104
1, 31667, Control_c, 0, 64, 109
1, 31682, Control_c, 0, 64, 118
1, 31697, Control_c, 0, 64, 127
1, 31886, Note_on_c, 0, 72, 34
1, 31900, Note_on_c, 0, 56, 28
1, 31906, Note_on_c, 0, 60, 25
1, 31918, Note_on_c, 0, 65, 27
1, 31945, Note_off_c, 0, 72, 0
1, 31945, Note_on_c, 0, 72, 4
1, 32205, Note_off_c, 0, 60, 40
1, 32278, Note_off_c, 0, 56, 35
1, 32646, Note_off_c, 0, 65, 39
1, 33173, Note_on_c, 0, 71, 38
1, 33184, Note_on_c, 0, 59, 29
1, 33195, Note_on_c, 0, 55, 29
1, 33214, Note_on_c, 0, 67, 23
1, 33261, Control_c, 0, 64, 100
1, 33276, Control_c, 0, 64, 78
1, 33290, Control_c, 0, 64, 63
1, 33305, Control_c, 0, 64, 0
1, 33319, Note_off_c, 0, 72, 44
1, 33379, Control_c, 0, 64, 51
1, 33394, Control_c, 0, 64, 66
1, 33409, Control_c, 0, 64, 74
1, 33424, Control_c, 0, 64, 83
1, 33435, Note_off_c, 0, 59, 43
1, 33438, Control_c, 0, 64, 95
1, 33447, Note_off_c, 0, 62, 36
1, 33453, Control_c, 0, 64, 108
1, 33459, Note_off_c, 0, 71, 58
1, 33468, Control_c, 0, 64, 127
1, 33491, Note_off_c, 0, 55, 39
1, 33558, Note_off_c, 0, 67, 41
1, 33794, Note_on_c, 0, 48, 40
1, 33841, Note_on_c, 0, 55, 36
1, 33885, Note_on_c, 0, 60, 43
1, 33911, Note_on_c, 0, 63, 44
1, 33958, Note_on_c, 0, 67, 53
1, 34022, Note_on_c, 0, 72, 72
1, 34069, Control_c, 0, 64, 96
1, 34084, Control_c, 0, 64, 77
1, 34099, Control_c, 0, 64, 59
1, 34113, Control_c, 0, 64, 0
1, 34127, Note_off_c, 0, 74, 59
1, 34203, Control_c, 0, 64, 24
1, 34218, Control_c, 0, 64, 65
1, 34232, Control_c, 0, 64, 71
1, 34247, Control_c, 0, 64, 79
1, 34247, Control_c, 0, 67, 126
1, 34262, Control_c, 0, 64, 89
1, 34262, Control_c, 0, 67, 121
1, 34277, Control_c, 0, 64, 99
1, 34277, Control_c, 0, 67, 115
1, 34283, Note_off_c, 0, 48, 41
1, 34291, Note_off_c, 0, 55, 52
1, 34292, Control_c, 0, 64, 114
1, 34292, Control_c, 0, 67, 109
1, 34306, Control_c, 0, 64, 127
1, 34306, Control_c, 0, 67, 103
1, 34321, Control_c, 0, 67, 97
1, 34336, Control_c, 0, 67, 93
1, 34351, Control_c, 0, 67, 88
1, 34366, Control_c, 0, 67, 83
1, 34372, Note_off_c, 0, 63, 38
1, 34380, Control_c, 0, 67, 79
1, 34395, Control_c, 0, 67, 74
1, 34410, Control_c, 0, 67, 71
1, 34425, Control_c, 0, 67, 69
1, 34426, Note_off_c, 0, 67, 38
1, 34440, Control_c, 0, 67, 66
1, 34454, Control_c, 0, 67, 64
1, 34469, Control_c, 0, 67, 61
1, 34484, Control_c, 0, 67, 58
1, 34499, Control_c, 0, 67, 55
1, 34514, Control_c, 0, 67, 52
1, 34519, Note_off_c, 0, 60, 37
1, 34529, Control_c, 0, 67, 49
1, 34544, Control_c, 0, 67, 45
1, 34559, Control_c, 0, 67, 41
1, 34574, Control_c, 0, 67, 37
1, 34588, Control_c, 0, 67, 33
1, 34603, Control_c, 0, 67, 30
1, 34618, Control_c, 0, 67, 27
1, 34632, Control_c, 0, 67, 25
1, 34647, Control_c, 0, 67, 22
1, 34662, Control_c, 0, 67, 20
1, 34667, Note_off_c, 0, 72, 63
1, 34677, Control_c, 0, 67, 17
1, 34692, Control_c, 0, 67, 15
1, 34708, Control_c, 0, 67, 13
1, 34723, Control_c, 0, 67, 12
1, 34744, Control_c, 0, 67, 11
1, 34759, Control_c, 0, 67, 11
1, 34789, Control_c, 0, 67, 10
1, 34802, Note_on_c, 0, 72, 60
1, 34804, Control_c, 0, 67, 10
1, 34824, Note_on_c, 0, 60, 45
1, 34833, Control_c, 0, 67, 9
1, 34863, Control_c, 0, 67, 9
1, 34877, Control_c, 0, 67, 8
1, 34907, Control_c, 0, 64, 121
1, 34907, Control_c, 0, 67, 8
1, 34922, Control_c, 0, 64, 113
1, 34922, Control_c, 0, 67, 0
1, 34936, Control_c, 0, 64, 108
1, 34951, Control_c, 0, 64, 103
1, 34966, Control_c, 0, 64, 99
1, 34981, Control_c, 0, 64, 95
1, 34996, Control_c, 0, 64, 93
1, 35010, Control_c, 0, 64, 91
1, 35025, Control_c, 0, 64, 90
1, 35040, Control_c, 0, 64, 89
1, 35054, Control_c, 0, 64, 88
1, 35069, Control_c, 0, 64, 87
1, 35084, Control_c, 0, 64, 84
1, 35099, Control_c, 0, 64, 83
1, 35114, Control_c, 0, 64, 81
1, 35124, Note_on_c, 0, 74, 72
1, 35128, Control_c, 0, 64, 79
1, 35143, Note_on_c, 0, 62, 49
1, 35143, Control_c, 0, 64, 78
1, 35158, Control_c, 0, 64, 77
1, 35173, Control_c, 0, 64, 75
1, 35188, Control_c, 0, 64, 72
1, 35203, Control_c, 0, 64, 68
1, 35218, Control_c, 0, 64, 65
1, 35232, Control_c, 0, 64, 63
1, 35234, Note_off_c, 0, 72, 56
1, 35247, Control_c, 0, 64, 62
1, 35262, Control_c, 0, 64, 58
1, 35269, Note_off_c, 0, 60, 38
1, 35277, Control_c, 0, 64, 49
1, 35292, Control_c, 0, 64, 26
1, 35307, Control_c, 0, 64, 0
1, 35434, Note_on_c, 0, 77, 73
1, 35450, Note_on_c, 0, 65, 46
1, 35566, Note_off_c, 0, 74, 64
1, 35590, Note_off_c, 0, 62, 51
1, 35721, Note_on_c, 0, 75, 71
1, 35733, Note_on_c, 0, 63, 45
1, 35773, Note_off_c, 0, 65, 49
1, 35811, Note_off_c, 0, 77, 58
1, 35991, Note_on_c, 0, 74, 72
1, 35996, Note_on_c, 0, 62, 44
1, 36058, Note_off_c, 0, 63, 50
1, 36097, Note_off_c, 0, 75, 61
1, 36252, Note_on_c, 0, 72, 63
1, 36266, Note_on_c, 0, 60, 45
1, 36344, Note_off_c, 0, 62, 48
1, 36353, Note_off_c, 0, 74, 65
1, 36649, Note_on_c, 0, 75, 59
1, 36660, Note_on_c, 0, 63, 39
1, 36762, Note_off_c, 0, 60, 50
1, 36794, Note_off_c, 0, 72, 53
1, 36923, Control_c, 0, 64, 33
1, 36938, Control_c, 0, 64, 61
1, 36952, Control_c, 0, 64, 67
1, 36967, Control_c, 0, 64, 73
1, 36989, Control_c, 0, 64, 79
1, 37004, Control_c, 0, 64, 84
1, 37019, Control_c, 0, 64, 90
1, 37033, Control_c, 0, 64, 100
1, 37033, Control_c, 0, 67, 9
1, 37048, Control_c, 0, 64, 127
1, 37048, Control_c, 0, 67, 13
1, 37063, Control_c, 0, 67, 19
1, 37078, Control_c, 0, 67, 24
1, 37093, Control_c, 0, 67, 27
1, 37109, Control_c, 0, 67, 29
1, 37124, Control_c, 0, 67, 32
1, 37139, Control_c, 0, 67, 36
1, 37154, Control_c, 0, 67, 40
1, 37169, Control_c, 0, 67, 46
1, 37184, Control_c, 0, 67, 52
1, 37199, Control_c, 0, 67, 58
1, 37213, Control_c, 0, 67, 62
1, 37222, Note_off_c, 0, 63, 37
1, 37228, Control_c, 0, 67, 66
1, 37243, Control_c, 0, 67, 74
1, 37257, Control_c, 0, 67, 82
1, 37272, Control_c, 0, 67, 90
1, 37287, Control_c, 0, 67, 97
1, 37302, Control_c, 0, 67, 104
1, 37317, Control_c, 0, 67, 111
1, 37331, Control_c, 0, 67, 120
1, 37346, Control_c, 0, 67, 127
1, 37713, Note_on_c, 0, 43, 36
1, 37853, Note_on_c, 0, 51, 42
1, 38142, Note_on_c, 0, 70, 41
1, 38160, Note_on_c, 0, 58, 35
1, 38168, Note_on_c, 0, 63, 33
1, 38174, Note_off_c, 0, 43, 32
1, 38297, Note_off_c, 0, 51, 42
1, 38348, Note_off_c, 0, 75, 41
1, 38435, Note_off_c, 0, 63, 37
1, 38515, Note_off_c, 0, 58, 41
1, 38810, Note_on_c, 0, 75, 55
1, 38815, Control_c, 0, 64, 108
1, 38826, Note_on_c, 0, 63, 35
1, 38829, Control_c, 0, 64, 86
1, 38844, Control_c, 0, 64, 71
1, 38859, Control_c, 0, 64, 55
1, 38874, Control_c, 0, 64, 0
1, 38911, Note_off_c, 0, 70, 38
1, 38933, Control_c, 0, 64, 17
1, 38948, Control_c, 0, 64, 62
1, 38963, Control_c, 0, 64, 70
1, 38977, Control_c, 0, 64, 82
1, 38992, Control_c, 0, 64, 98
1, 39007, Control_c, 0, 64, 127
1, 39048, Note_off_c, 0, 63, 57
1, 39251, Note_off_c, 0, 75, 59
1, 39340, Note_on_c, 0, 46, 40
1, 39389, Note_on_c, 0, 53, 43
1, 39389, Note_off_c, 0, 46, 52
1, 39430, Note_off_c, 0, 53, 63
1, 39442, Note_on_c, 0, 58, 41
1, 39475, Note_on_c, 0, 62, 48
1, 39476, Note_off_c, 0, 58, 58
1, 39506, Note_on_c, 0, 65, 57
1, 39529, Note_off_c, 0, 62, 53
1, 39552, Note_on_c, 0, 70, 64
1, 39573, Note_off_c, 0, 65, 62
1, 39600, Note_on_c, 0, 74, 60
1, 39607, Control_c, 0, 64, 95
1, 39622, Control_c, 0, 64, 78
1, 39630, Note_off_c, 0, 70, 62
1, 39637, Control_c, 0, 64, 62
1, 39651, Control_c, 0, 64, 0
1, 39814, Control_c, 0, 64, 48
1, 39829, Control_c, 0, 64, 63
1, 39844, Control_c, 0, 64, 67
1, 39859, Control_c, 0, 64, 71
1, 39874, Control_c, 0, 64, 75
1, 39889, Control_c, 0, 64, 81
1, 39904, Control_c, 0, 64, 87
1, 39918, Control_c, 0, 64, 96
1, 39933, Control_c, 0, 64, 103
1, 39939, Note_on_c, 0, 48, 41
1, 39948, Control_c, 0, 64, 109
1, 39963, Control_c, 0, 64, 120
1, 39984, Control_c, 0, 64, 127
1, 39988, Note_on_c, 0, 55, 41
1, 40014, Note_off_c, 0, 48, 46
1, 40032, Note_on_c, 0, 60, 40
1, 40051, Note_off_c, 0, 55, 58
1, 40063, Note_on_c, 0, 63, 45
1, 40072, Note_off_c, 0, 60, 62
1, 40119, Note_on_c, 0, 67, 48
1, 40129, Note_off_c, 0, 63, 52
1, 40148, Control_c, 0, 64, 98
1, 40154, Note_on_c, 0, 72, 59
1, 40163, Control_c, 0, 64, 79
1, 40178, Control_c, 0, 64, 65
1, 40184, Note_off_c, 0, 67, 53
1, 40193, Control_c, 0, 64, 0
1, 40218, Note_off_c, 0, 74, 56
1, 40401, Control_c, 0, 64, 51
1, 40416, Control_c, 0, 64, 62
1, 40431, Control_c, 0, 64, 65
1, 40446, Control_c, 0, 64, 69
1, 40461, Control_c, 0, 64, 72
1, 40475, Control_c, 0, 64, 77
1, 40490, Control_c, 0, 64, 83
1, 40505, Control_c, 0, 64, 87
1, 40520, Control_c, 0, 64, 92
1, 40534, Note_on_c, 0, 55, 35
1, 40535, Control_c, 0, 64, 95
1, 40549, Control_c, 0, 64, 99
1, 40564, Control_c, 0, 64, 103
1, 40578, Note_on_c, 0, 59, 44
1, 40579, Control_c, 0, 64, 108
1, 40593, Control_c, 0, 64, 112
1, 40608, Control_c, 0, 64, 113
1, 40617, Note_on_c, 0, 62, 43
1, 40623, Control_c, 0, 64, 114
1, 40629, Note_off_c, 0, 55, 48
1, 40631, Note_off_c, 0, 59, 58
1, 40682, Control_c, 0, 64, 113
1, 40695, Note_on_c, 0, 67, 52
1, 40697, Control_c, 0, 64, 113
1, 40712, Control_c, 0, 64, 105
1, 40731, Note_off_c, 0, 62, 37
1, 40735, Control_c, 0, 64, 93
1, 40749, Control_c, 0, 64, 79
1, 40764, Control_c, 0, 64, 66
1, 40779, Control_c, 0, 64, 0
1, 40792, Note_off_c, 0, 72, 38
1, 40912, Control_c, 0, 64, 32
1, 40927, Control_c, 0, 64, 63
1, 40942, Control_c, 0, 64, 69
1, 40956, Control_c, 0, 64, 75
1, 40971, Control_c, 0, 64, 83
1, 40986, Control_c, 0, 64, 90
1, 41001, Control_c, 0, 64, 97
1, 41015, Control_c, 0, 64, 102
1, 41030, Control_c, 0, 64, 108
1, 41045, Control_c, 0, 64, 115
1, 41060, Control_c, 0, 64, 127
1, 41098, Note_on_c, 0, 48, 37
1, 41135, Note_off_c, 0, 67, 51
1, 41143, Note_on_c, 0, 55, 37
1, 41155, Note_off_c, 0, 48, 49
1, 41171, Note_on_c, 0, 60, 45
1, 41207, Note_off_c, 0, 55, 51
1, 41218, Note_on_c, 0, 63, 49
1, 41218, Note_off_c, 0, 60, 62
1, 41263, Note_on_c, 0, 67, 59
1, 41314, Note_on_c, 0, 72, 60
1, 41323, Note_off_c, 0, 63, 55
1, 41358, Control_c, 0, 64, 99
1, 41372, Control_c, 0, 64, 81
1, 41376, Note_off_c, 0, 67, 56
1, 41387, Control_c, 0, 64, 65
1, 41402, Control_c, 0, 64, 0
1, 41528, Control_c, 0, 64, 61
1, 41543, Control_c, 0, 64, 69
1, 41558, Control_c, 0, 64, 75
1, 41572, Control_c, 0, 64, 83
1, 41587, Control_c, 0, 64, 92
1, 41602, Control_c, 0, 64, 101
1, 41617, Control_c, 0, 64, 110
1, 41631, Control_c, 0, 64, 127
1, 41754, Note_off_c, 0, 72, 60
1, 41768, Note_on_c, 0, 74, 61
1, 41779, Control_c, 0, 67, 125
1, 41794, Control_c, 0, 67, 122
1, 41809, Control_c, 0, 67, 116
1, 41823, Control_c, 0, 67, 110
1, 41838, Control_c, 0, 67, 102
1, 41853, Control_c, 0, 67, 96
1, 41865, Note_on_c, 0, 72, 64
1, 41868, Control_c, 0, 67, 90
1, 41883, Control_c, 0, 67, 84
1, 41899, Control_c, 0, 67, 78
1, 41914, Control_c, 0, 67, 72
1, 41928, Control_c, 0, 67, 66
1, 41943, Control_c, 0, 67, 63
1, 41977, Note_off_c, 0, 74, 40
1, 42032, Control_c, 0, 67, 64
1, 42047, Control_c, 0, 67, 65
1, 42056, Note_on_c, 0, 67, 60
1, 42062, Control_c, 0, 67, 66
1, 42091, Note_on_c, 0, 55, 37
1, 42092, Control_c, 0, 67, 66
1, 42095, Note_on_c, 0, 59, 38
1, 42100, Note_on_c, 0, 62, 43
1, 42106, Control_c, 0, 67, 67
1, 42121, Control_c, 0, 67, 67
1, 42151, Control_c, 0, 67, 68
1, 42181, Control_c, 0, 64, 119
1, 42195, Control_c, 0, 64, 105
1, 42210, Control_c, 0, 64, 92
1, 42210, Control_c, 0, 67, 68
1, 42232, Control_c, 0, 64, 80
1, 42232, Control_c, 0, 67, 69
1, 42247, Control_c, 0, 64, 69
1, 42261, Control_c, 0, 64, 55
1, 42273, Note_off_c, 0, 72, 57
1, 42276, Control_c, 0, 64, 0
1, 42395, Control_c, 0, 67, 68
1, 42410, Control_c, 0, 67, 68
1, 42617, Control_c, 0, 64, 23
1, 42632, Control_c, 0, 64, 57
1, 42646, Control_c, 0, 64, 64
1, 42661, Control_c, 0, 64, 67
1, 42676, Control_c, 0, 64, 70
1, 42692, Control_c, 0, 64, 73
1, 42707, Control_c, 0, 64, 76
1, 42722, Control_c, 0, 64, 79
1, 42736, Control_c, 0, 64, 82
1, 42751, Control_c, 0, 64, 85
1, 42766, Control_c, 0, 64, 88
1, 42766, Control_c, 0, 67, 68
1, 42781, Control_c, 0, 64, 91
1, 42795, Control_c, 0, 64, 94
1, 42810, Control_c, 0, 64, 98
1, 42825, Control_c, 0, 64, 102
1, 42840, Control_c, 0, 64, 108
1, 42855, Control_c, 0, 64, 115
1, 42870, Control_c, 0, 64, 127
1, 43055, Control_c, 0, 67, 69
1, 43084, Control_c, 0, 67, 69
1, 43129, Control_c, 0, 67, 70
1, 43139, Note_off_c, 0, 62, 40
1, 43143, Control_c, 0, 67, 70
1, 43158, Control_c, 0, 67, 71
1, 43173, Control_c, 0, 67, 72
1, 43188, Control_c, 0, 67, 73
1, 43202, Control_c, 0, 67, 74
1, 43217, Control_c, 0, 67, 74
1, 43232, Control_c, 0, 67, 76
1, 43247, Control_c, 0, 67, 77
1, 43262, Control_c, 0, 67, 80
1, 43276, Control_c, 0, 67, 83
1, 43291, Control_c, 0, 67, 88
1, 43306, Control_c, 0, 67, 92
1, 43321, Control_c, 0, 67, 97
1, 43336, Control_c, 0, 67, 100
1, 43341, Note_off_c, 0, 59, 56
1, 43350, Control_c, 0, 67, 103
1, 43365, Control_c, 0, 67, 106
1, 43380, Control_c, 0, 67, 110
1, 43394, Control_c, 0, 67, 114
1, 43409, Control_c, 0, 67, 117
1, 43424, Control_c, 0, 67, 120
1, 43439, Control_c, 0, 67, 123
1, 43454, Control_c, 0, 67, 126
1, 43469, Control_c, 0, 67, 127
1, 43546, Note_off_c, 0, 55, 41
1, 44258, Note_on_c, 0, 68, 37
1, 44265, Note_on_c, 0, 53, 30
1, 44272, Note_on_c, 0, 60, 28
1, 44283, Note_on_c, 0, 65, 31
1, 44396, Control_c, 0, 64, 114
1, 44411, Control_c, 0, 64, 97
1, 44426, Control_c, 0, 64, 85
1, 44441, Control_c, 0, 64, 75
1, 44455, Control_c, 0, 64, 66
1, 44478, Control_c, 0, 64, 59
1, 44493, Control_c, 0, 64, 40
1, 44508, Control_c, 0, 64, 0
1, 44542, Note_off_c, 0, 67, 51
1, 44834, Control_c, 0, 64, 44
1, 44848, Control_c, 0, 64, 59
1, 44863, Control_c, 0, 64, 64
1, 44878, Control_c, 0, 64, 66
1, 44893, Control_c, 0, 64, 68
1, 44908, Control_c, 0, 64, 70
1, 44922, Control_c, 0, 64, 72
1, 44937, Control_c, 0, 64, 75
1, 44952, Control_c, 0, 64, 77
1, 44967, Control_c, 0, 64, 78
1, 44981, Control_c, 0, 64, 79
1, 44996, Control_c, 0, 64, 81
1, 45011, Control_c, 0, 64, 82
1, 45026, Control_c, 0, 64, 84
1, 45040, Control_c, 0, 64, 86
1, 45055, Control_c, 0, 64, 89
1, 45070, Control_c, 0, 64, 91
1, 45086, Control_c, 0, 64, 93
1, 45101, Control_c, 0, 64, 94
1, 45116, Control_c, 0, 64, 95
1, 45131, Control_c, 0, 64, 96
1, 45145, Control_c, 0, 64, 98
1, 45160, Control_c, 0, 64, 100
1, 45175, Control_c, 0, 64, 103
1, 45189, Control_c, 0, 64, 105
1, 45204, Control_c, 0, 64, 107
1, 45227, Control_c, 0, 64, 109
1, 45242, Control_c, 0, 64, 111
1, 45257, Control_c, 0, 64, 116
1, 45271, Control_c, 0, 64, 126
1, 45286, Control_c, 0, 64, 127
1, 45509, Note_off_c, 0, 53, 35
1, 45524, Note_off_c, 0, 60, 40
1, 45660, Note_off_c, 0, 65, 41
1, 45877, Control_c, 0, 64, 113
1, 45893, Control_c, 0, 64, 106
1, 45908, Control_c, 0, 64, 99
1, 45923, Control_c, 0, 64, 94
1, 45938, Control_c, 0, 64, 91
1, 45953, Control_c, 0, 64, 89
1, 45975, Control_c, 0, 64, 87
1, 45990, Control_c, 0, 64, 84
1, 46005, Control_c, 0, 64, 81
1, 46019, Control_c, 0, 64, 79
1, 46034, Control_c, 0, 64, 78
1, 46064, Control_c, 0, 64, 77
1, 46079, Control_c, 0, 64, 76
1, 46093, Control_c, 0, 64, 75
1, 46108, Control_c, 0, 64, 73
1, 46123, Control_c, 0, 64, 72
1, 46138, Control_c, 0, 64, 70
1, 46153, Control_c, 0, 64, 69
1, 46167, Control_c, 0, 64, 67
1, 46182, Control_c, 0, 64, 66
1, 46197, Control_c, 0, 64, 65
1, 46212, Control_c, 0, 64, 64
1, 46226, Control_c, 0, 64, 63
1, 46241, Control_c, 0, 64, 61
1, 46243, Note_on_c, 0, 71, 40
1, 46256, Control_c, 0, 64, 60
1, 46271, Control_c, 0, 64, 58
1, 46286, Control_c, 0, 64, 56
1, 46301, Control_c, 0, 64, 54
1, 46315, Control_c, 0, 64, 52
1, 46330, Control_c, 0, 64, 49
1, 46345, Control_c, 0, 64, 46
1, 46360, Control_c, 0, 64, 44
1, 46375, Control_c, 0, 64, 42
1, 46390, Control_c, 0, 64, 41
1, 46393, Note_off_c, 0, 68, 54
1, 46405, Control_c, 0, 64, 40
1, 46419, Control_c, 0, 64, 38
1, 46434, Control_c, 0, 64, 36
1, 46449, Control_c, 0, 64, 34
1, 46464, Control_c, 0, 64, 32
1, 46464, Control_c, 0, 67, 127
1, 46479, Control_c, 0, 64, 30
1, 46493, Control_c, 0, 64, 29
1, 46508, Control_c, 0, 67, 126
1, 46523, Control_c, 0, 64, 28
1, 46537, Control_c, 0, 64, 27
1, 46543, Note_on_c, 0, 72, 43
1, 46552, Control_c, 0, 64, 26
1, 46567, Control_c, 0, 67, 126
1, 46582, Control_c, 0, 64, 23
1, 46597, Control_c, 0, 64, 19
1, 46597, Control_c, 0, 67, 125
1, 46601, Note_off_c, 0, 71, 64
1, 46611, Control_c, 0, 64, 14
1, 46611, Control_c, 0, 67, 123
1, 46626, Control_c, 0, 64, 0
1, 46626, Control_c, 0, 67, 122
1, 46641, Control_c, 0, 67, 120
1, 46656, Control_c, 0, 67, 118
1, 46671, Control_c, 0, 67, 117
1, 46687, Control_c, 0, 67, 116
1, 46702, Control_c, 0, 67, 115
1, 46739, Control_c, 0, 67, 114
1, 46754, Control_c, 0, 67, 114
1, 46783, Control_c, 0, 67, 113
1, 46798, Control_c, 0, 67, 112
1, 46802, Note_on_c, 0, 74, 51
1, 46813, Control_c, 0, 67, 110
1, 46828, Control_c, 0, 67, 106
1, 46842, Control_c, 0, 67, 103
1, 46858, Control_c, 0, 67, 99
1, 46873, Note_off_c, 0, 72, 59
1, 46873, Control_c, 0, 67, 94
1, 46888, Control_c, 0, 67, 89
1, 46903, Control_c, 0, 67, 84
1, 46917, Control_c, 0, 67, 78
1, 46932, Control_c, 0, 67, 74
1, 46947, Control_c, 0, 67, 70
1, 46961, Control_c, 0, 67, 68
1, 46976, Control_c, 0, 67, 66
1, 46991, Control_c, 0, 67, 65
1, 47006, Control_c, 0, 67, 63
1, 47021, Control_c, 0, 67, 61
1, 47022, Note_on_c, 0, 75, 59
1, 47035, Control_c, 0, 67, 60
1, 47050, Control_c, 0, 67, 58
1, 47065, Control_c, 0, 67, 55
1, 47080, Control_c, 0, 67, 51
1, 47095, Control_c, 0, 67, 46
1, 47109, Control_c, 0, 67, 39
1, 47120, Note_off_c, 0, 74, 60
1, 47124, Control_c, 0, 67, 31
1, 47139, Control_c, 0, 67, 21
1, 47154, Control_c, 0, 67, 10
1, 47168, Control_c, 0, 67, 0
1, 47237, Note_on_c, 0, 76, 64
1, 47286, Note_off_c, 0, 75, 63
1, 47492, Note_on_c, 0, 77, 65
1, 47551, Note_off_c, 0, 76, 60
1, 47751, Note_on_c, 0, 79, 72
1, 47812, Note_off_c, 0, 77, 63
1, 47932, Control_c, 0, 64, 39
1, 47947, Control_c, 0, 64, 57
1, 47962, Control_c, 0, 64, 63
1, 47977, Control_c, 0, 64, 66
1, 47991, Control_c, 0, 64, 69
1, 48006, Control_c, 0, 64, 73
1, 48021, Control_c, 0, 64, 77
1, 48036, Control_c, 0, 64, 82
1, 48051, Control_c, 0, 64, 88
1, 48065, Control_c, 0, 64, 92
1, 48080, Control_c, 0, 64, 96
1, 48095, Control_c, 0, 64, 101
1, 48110, Control_c, 0, 64, 105
1, 48125, Control_c, 0, 64, 108
1, 48182, Note_on_c, 0, 82, 62
1, 48184, Control_c, 0, 64, 105
1, 48199, Control_c, 0, 64, 101
1, 48221, Control_c, 0, 64, 96
1, 48236, Control_c, 0, 64, 90
1, 48251, Control_c, 0, 64, 83
1, 48255, Note_off_c, 0, 79, 50
1, 48265, Control_c, 0, 64, 75
1, 48280, Control_c, 0, 64, 67
1, 48296, Control_c, 0, 64, 58
1, 48296, Control_c, 0, 67, 8
1, 48311, Control_c, 0, 64, 51
1, 48311, Control_c, 0, 67, 9
1, 48326, Control_c, 0, 64, 36
1, 48326, Control_c, 0, 67, 9
1, 48341, Control_c, 0, 64, 0
1, 48356, Control_c, 0, 67, 10
1, 48370, Control_c, 0, 67, 11
1, 48385, Control_c, 0, 64, 43
1, 48385, Control_c, 0, 67, 12
1, 48400, Control_c, 0, 64, 58
1, 48400, Control_c, 0, 67, 14
1, 48414, Control_c, 0, 64, 64
1, 48414, Control_c, 0, 67, 16
1, 48429, Control_c, 0, 64, 67
1, 48429, Control_c, 0, 67, 18
1, 48444, Control_c, 0, 64, 70
1, 48444, Control_c, 0, 67, 21
1, 48459, Control_c, 0, 64, 74
1, 48459, Control_c, 0, 67, 25
1, 48474, Control_c, 0, 64, 79
1, 48474, Control_c, 0, 67, 29
1, 48489, Control_c, 0, 64, 85
1, 48489, Control_c, 0, 67, 32
1, 48503, Control_c, 0, 64, 92
1, 48503, Control_c, 0, 67, 35
1, 48518, Control_c, 0, 64, 98
1, 48518, Control_c, 0, 67, 37
1, 48533, Control_c, 0, 64, 106
1, 48533, Control_c, 0, 67, 40
1, 48548, Control_c, 0, 64, 115
1, 48548, Control_c, 0, 67, 42
1, 48563, Control_c, 0, 64, 127
1, 48563, Control_c, 0, 67, 45
1, 48578, Control_c, 0, 67, 49
1, 48593, Control_c, 0, 67, 52
1, 48607, Control_c, 0, 67, 55
1, 48622, Control_c, 0, 67, 58
1, 48637, Control_c, 0, 67, 61
1, 48652, Control_c, 0, 67, 64
1, 48667, Control_c, 0, 67, 67
1, 48681, Control_c, 0, 67, 70
1, 48696, Control_c, 0, 67, 74
1, 48711, Control_c, 0, 67, 78
1, 48726, Control_c, 0, 67, 83
1, 48740, Control_c, 0, 67, 87
1, 48755, Control_c, 0, 67, 91
1, 48770, Control_c, 0, 67, 96
1, 48785, Control_c, 0, 67, 103
1, 48800, Control_c, 0, 67, 110
1, 48814, Control_c, 0, 67, 114
1, 48829, Control_c, 0, 67, 118
1, 48844, Control_c, 0, 67, 121
1, 48859, Control_c, 0, 67, 125
1, 48874, Control_c, 0, 67, 127
1, 48964, Note_on_c, 0, 74, 35
1, 48972, Note_on_c, 0, 68, 34
1, 48976, Note_on_c, 0, 65, 30
1, 49589, Note_on_c, 0, 80, 43
1, 49930, Note_on_c, 0, 79, 49
1, 50032, Note_off_c, 0, 82, 36
1, 50176, Note_off_c, 0, 80, 27
1, 50203, Note_on_c, 0, 77, 55
1, 50236, Note_off_c, 0, 79, 59
1, 50416, Control_c, 0, 64, 117
1, 50431, Control_c, 0, 64, 108
1, 50446, Control_c, 0, 64, 100
1, 50468, Control_c, 0, 64, 93
1, 50468, Note_on_c, 0, 82, 62
1, 50483, Control_c, 0, 64, 86
1, 50498, Control_c, 0, 64, 82
1, 50512, Control_c, 0, 64, 79
1, 50524, Note_off_c, 0, 77, 30
1, 50527, Control_c, 0, 64, 76
1, 50542, Control_c, 0, 64, 73
1, 50557, Control_c, 0, 64, 70
1, 50572, Control_c, 0, 64, 68
1, 50586, Control_c, 0, 64, 67
1, 50601, Control_c, 0, 64, 66
1, 50660, Control_c, 0, 64, 67
1, 50675, Control_c, 0, 64, 67
1, 50691, Control_c, 0, 64, 68
1, 50706, Control_c, 0, 64, 69
1, 50718, Note_on_c, 0, 80, 62
1, 50721, Control_c, 0, 64, 70
1, 50736, Control_c, 0, 64, 72
1, 50751, Control_c, 0, 64, 74
1, 50765, Control_c, 0, 64, 76
1, 50780, Control_c, 0, 64, 77
1, 50795, Control_c, 0, 64, 78
1, 50809, Control_c, 0, 64, 80
1, 50824, Control_c, 0, 64, 81
1, 50839, Control_c, 0, 64, 82
1, 50943, Control_c, 0, 64, 81
1, 50957, Control_c, 0, 64, 81
1, 50967, Note_on_c, 0, 79, 58
1, 50987, Control_c, 0, 64, 80
1, 51001, Control_c, 0, 64, 79
1, 51016, Control_c, 0, 64, 78
1, 51031, Control_c, 0, 64, 76
1, 51046, Control_c, 0, 64, 74
1, 51061, Control_c, 0, 64, 73
1, 51076, Control_c, 0, 64, 72
1, 51091, Control_c, 0, 64, 70
1, 51106, Control_c, 0, 64, 68
1, 51121, Control_c, 0, 64, 65
1, 51131, Note_off_c, 0, 82, 31
1, 51135, Control_c, 0, 64, 63
1, 51150, Control_c, 0, 64, 61
1, 51165, Control_c, 0, 64, 53
1, 51180, Control_c, 0, 64, 36
1, 51201, Control_c, 0, 64, 0
1, 51204, Note_off_c, 0, 80, 35
1, 51204, Note_on_c, 0, 77, 54
1, 51272, Note_off_c, 0, 79, 59
1, 51276, Control_c, 0, 64, 44
1, 51291, Control_c, 0, 64, 61
1, 51306, Control_c, 0, 64, 66
1, 51320, Control_c, 0, 64, 70
1, 51335, Control_c, 0, 64, 72
1, 51350, Control_c, 0, 64, 74
1, 51365, Control_c, 0, 64, 76
1, 51380, Control_c, 0, 64, 78
1, 51395, Control_c, 0, 64, 79
1, 51439, Control_c, 0, 64, 78
1, 51454, Control_c, 0, 64, 77
1, 51469, Control_c, 0, 64, 76
1, 51472, Note_on_c, 0, 82, 51
1, 51484, Control_c, 0, 64, 75
1, 51499, Control_c, 0, 64, 74
1, 51514, Control_c, 0, 64, 72
1, 51529, Control_c, 0, 64, 71
1, 51537, Note_off_c, 0, 77, 40
1, 51544, Control_c, 0, 64, 69
1, 51558, Control_c, 0, 64, 68
1, 51573, Control_c, 0, 64, 67
1, 51632, Control_c, 0, 64, 67
1, 51749, Note_on_c, 0, 80, 47
1, 51750, Control_c, 0, 64, 66
1, 51854, Control_c, 0, 64, 66
1, 51872, Note_off_c, 0, 82, 37
1, 51995, Control_c, 0, 64, 65
1, 52050, Note_on_c, 0, 79, 42
1, 52128, Control_c, 0, 64, 65
1, 52146, Note_off_c, 0, 80, 51
1, 52188, Control_c, 0, 64, 64
1, 52232, Control_c, 0, 64, 64
1, 52394, Note_on_c, 0, 77, 34
1, 52485, Control_c, 0, 64, 63
1, 52515, Control_c, 0, 64, 63
1, 52529, Control_c, 0, 64, 62
1, 52544, Control_c, 0, 64, 61
1, 52549, Note_off_c, 0, 79, 37
1, 52559, Control_c, 0, 64, 61
1, 52573, Control_c, 0, 64, 60
1, 52588, Control_c, 0, 64, 58
1, 52603, Control_c, 0, 64, 55
1, 52618, Control_c, 0, 64, 49
1, 52633, Control_c, 0, 64, 40
1, 52647, Control_c, 0, 64, 29
1, 52662, Control_c, 0, 64, 21
1, 52692, Control_c, 0, 64, 23
1, 52715, Control_c, 0, 64, 31
1, 52729, Control_c, 0, 64, 42
1, 52744, Control_c, 0, 64, 53
1, 52759, Control_c, 0, 64, 61
1, 52774, Control_c, 0, 64, 64
1, 52788, Control_c, 0, 64, 66
1, 52803, Control_c, 0, 64, 68
1, 52818, Control_c, 0, 64, 70
1, 52833, Control_c, 0, 64, 72
1, 52848, Control_c, 0, 64, 74
1, 52862, Control_c, 0, 64, 76
1, 52877, Control_c, 0, 64, 77
1, 52892, Control_c, 0, 64, 77
1, 52906, Control_c, 0, 64, 78
1, 52921, Control_c, 0, 64, 78
1, 52936, Control_c, 0, 64, 79
1, 52951, Control_c, 0, 64, 81
1, 52966, Control_c, 0, 64, 84
1, 52981, Control_c, 0, 64, 86
1, 52996, Control_c, 0, 64, 88
1, 53011, Control_c, 0, 64, 91
1, 53026, Control_c, 0, 64, 95
1, 53040, Control_c, 0, 64, 98
1, 53055, Control_c, 0, 64, 101
1, 53070, Control_c, 0, 64, 103
1, 53085, Control_c, 0, 64, 105
1, 53100, Control_c, 0, 64, 108
1, 53115, Control_c, 0, 64, 113
1, 53130, Control_c, 0, 64, 120
1, 53145, Control_c, 0, 64, 127
1, 53175, Note_on_c, 0, 84, 36
1, 53461, Note_on_c, 0, 83, 57
1, 53529, Note_off_c, 0, 84, 43
1, 53702, Note_on_c, 0, 84, 66
1, 53739, Note_off_c, 0, 83, 61
1, 53848, Note_off_c, 0, 77, 43
1, 53894, Control_c, 0, 64, 126
1, 53908, Control_c, 0, 64, 119
1, 53923, Control_c, 0, 64, 115
1, 53938, Control_c, 0, 64, 112
1, 53953, Control_c, 0, 64, 109
1, 53959, Note_on_c, 0, 82, 59
1, 53967, Control_c, 0, 64, 106
1, 53982, Control_c, 0, 64, 102
1, 53997, Control_c, 0, 64, 96
1, 54012, Control_c, 0, 64, 91
1, 54019, Note_off_c, 0, 84, 49
1, 54027, Control_c, 0, 64, 86
1, 54042, Control_c, 0, 64, 82
1, 54057, Control_c, 0, 64, 78
1, 54072, Control_c, 0, 64, 74
1, 54087, Control_c, 0, 64, 70
1, 54101, Control_c, 0, 64, 68
1, 54116, Control_c, 0, 64, 67
1, 54131, Control_c, 0, 64, 67
1, 54160, Control_c, 0, 64, 66
1, 54175, Control_c, 0, 64, 65
1, 54190, Control_c, 0, 64, 65
1, 54215, Note_on_c, 0, 80, 53
1, 54227, Control_c, 0, 64, 64
1, 54257, Control_c, 0, 64, 64
1, 54272, Control_c, 0, 64, 63
1, 54286, Control_c, 0, 64, 63
1, 54301, Control_c, 0, 64, 62
1, 54316, Control_c, 0, 64, 62
1, 54331, Control_c, 0, 64, 61
1, 54334, Note_off_c, 0, 82, 36
1, 54346, Control_c, 0, 64, 60
1, 54360, Control_c, 0, 64, 60
1, 54375, Control_c, 0, 64, 59
1, 54390, Control_c, 0, 64, 59
1, 54405, Control_c, 0, 64, 58
1, 54420, Control_c, 0, 64, 58
1, 54434, Control_c, 0, 64, 57
1, 54449, Control_c, 0, 64, 57
1, 54464, Control_c, 0, 64, 56
1, 54469, Note_on_c, 0, 79, 46
1, 54478, Control_c, 0, 64, 55
1, 54493, Control_c, 0, 64, 54
1, 54508, Control_c, 0, 64, 52
1, 54523, Control_c, 0, 64, 51
1, 54538, Control_c, 0, 64, 49
1, 54552, Control_c, 0, 64, 48
1, 54567, Control_c, 0, 64, 46
1, 54582, Control_c, 0, 64, 44
1, 54589, Note_off_c, 0, 80, 45
1, 54597, Control_c, 0, 64, 42
1, 54612, Control_c, 0, 64, 40
1, 54626, Control_c, 0, 64, 39
1, 54641, Control_c, 0, 64, 37
1, 54656, Control_c, 0, 64, 34
1, 54672, Control_c, 0, 64, 32
1, 54687, Control_c, 0, 64, 30
1, 54702, Control_c, 0, 64, 29
1, 54717, Control_c, 0, 64, 27
1, 54731, Control_c, 0, 64, 24
1, 54737, Note_on_c, 0, 77, 38
1, 54746, Control_c, 0, 64, 19
1, 54761, Control_c, 0, 64, 11
1, 54775, Control_c, 0, 64, 0
1, 54879, Note_off_c, 0, 79, 38
1, 54990, Control_c, 0, 64, 46
1, 55005, Control_c, 0, 64, 60
1, 55020, Control_c, 0, 64, 64
1, 55035, Control_c, 0, 64, 65
1, 55050, Control_c, 0, 64, 67
1, 55064, Control_c, 0, 64, 70
1, 55079, Control_c, 0, 64, 72
1, 55094, Control_c, 0, 64, 75
1, 55109, Control_c, 0, 64, 77
1, 55124, Control_c, 0, 64, 79
1, 55139, Control_c, 0, 64, 81
1, 55154, Control_c, 0, 64, 84
1, 55169, Control_c, 0, 64, 86
1, 55183, Control_c, 0, 64, 88
1, 55198, Control_c, 0, 64, 89
1, 55213, Control_c, 0, 64, 91
1, 55228, Control_c, 0, 64, 93
1, 55243, Control_c, 0, 64, 94
1, 55252, Note_on_c, 0, 84, 37
1, 55257, Control_c, 0, 64, 96
1, 55272, Control_c, 0, 64, 97
1, 55287, Control_c, 0, 64, 98
1, 55316, Control_c, 0, 64, 98
1, 55346, Control_c, 0, 64, 99
1, 55491, Note_on_c, 0, 83, 46
1, 55509, Note_off_c, 0, 84, 41
1, 55623, Note_off_c, 0, 65, 37
1, 55658, Control_c, 0, 64, 98
1, 55687, Control_c, 0, 64, 98
1, 55701, Note_off_c, 0, 83, 57
1, 55705, Note_off_c, 0, 74, 39
1, 55710, Control_c, 0, 64, 97
1, 55719, Note_on_c, 0, 84, 50
1, 55739, Control_c, 0, 64, 97
1, 55756, Note_off_c, 0, 68, 34
1, 55784, Control_c, 0, 64, 96
1, 55798, Control_c, 0, 64, 96
1, 55813, Control_c, 0, 64, 95
1, 55828, Control_c, 0, 64, 95
1, 55843, Control_c, 0, 64, 94
1, 55858, Control_c, 0, 64, 93
1, 55872, Control_c, 0, 64, 92
1, 55887, Control_c, 0, 64, 91
1, 55902, Control_c, 0, 64, 91
1, 55917, Control_c, 0, 64, 90
1, 55932, Control_c, 0, 64, 89
1, 55947, Control_c, 0, 64, 88
1, 55948, Note_on_c, 0, 82, 53
1, 55962, Control_c, 0, 64, 87
1, 55977, Control_c, 0, 64, 87
1, 55992, Control_c, 0, 64, 86
1, 55994, Note_off_c, 0, 84, 38
1, 56006, Control_c, 0, 64, 85
1, 56021, Control_c, 0, 64, 84
1, 56036, Control_c, 0, 64, 83
1, 56051, Control_c, 0, 64, 82
1, 56066, Control_c, 0, 64, 81
1, 56080, Control_c, 0, 64, 79
1, 56095, Control_c, 0, 64, 79
1, 56110, Control_c, 0, 64, 78
1, 56124, Control_c, 0, 64, 77
1, 56139, Control_c, 0, 64, 76
1, 56147, Note_off_c, 0, 77, 31
1, 56154, Control_c, 0, 64, 75
1, 56163, Note_on_c, 0, 80, 45
1, 56169, Control_c, 0, 64, 75
1, 56184, Control_c, 0, 64, 74
1, 56198, Control_c, 0, 64, 73
1, 56213, Control_c, 0, 64, 72
1, 56228, Control_c, 0, 64, 70
1, 56243, Control_c, 0, 64, 70
1, 56258, Control_c, 0, 64, 69
1, 56263, Note_off_c, 0, 82, 34
1, 56274, Control_c, 0, 64, 68
1, 56289, Control_c, 0, 64, 67
1, 56303, Control_c, 0, 64, 67
1, 56318, Control_c, 0, 64, 66
1, 56347, Control_c, 0, 64, 66
1, 56362, Control_c, 0, 64, 65
1, 56377, Control_c, 0, 64, 65
1, 56392, Control_c, 0, 64, 64
1, 56407, Control_c, 0, 64, 64
1, 56409, Note_on_c, 0, 79, 42
1, 56421, Control_c, 0, 64, 63
1, 56436, Control_c, 0, 64, 62
1, 56459, Control_c, 0, 64, 61
1, 56474, Control_c, 0, 64, 60
1, 56489, Control_c, 0, 64, 57
1, 56503, Control_c, 0, 64, 54
1, 56509, Note_off_c, 0, 80, 49
1, 56518, Control_c, 0, 64, 51
1, 56533, Control_c, 0, 64, 47
1, 56547, Control_c, 0, 64, 43
1, 56562, Control_c, 0, 64, 36
1, 56577, Control_c, 0, 64, 29
1, 56591, Control_c, 0, 64, 23
1, 56606, Control_c, 0, 64, 19
1, 56620, Control_c, 0, 64, 17
1, 56665, Control_c, 0, 64, 14
1, 56680, Control_c, 0, 64, 0
1, 56692, Note_on_c, 0, 77, 34
1, 56805, Note_off_c, 0, 79, 35
1, 56932, Control_c, 0, 64, 56
1, 56946, Control_c, 0, 64, 64
1, 56961, Control_c, 0, 64, 67
1, 56976, Control_c, 0, 64, 70
1, 56991, Control_c, 0, 64, 74
1, 57006, Control_c, 0, 64, 77
1, 57020, Control_c, 0, 64, 81
1, 57035, Control_c, 0, 64, 85
1, 57050, Control_c, 0, 64, 88
1, 57066, Control_c, 0, 64, 92
1, 57081, Control_c, 0, 64, 95
1, 57096, Control_c, 0, 64, 98
1, 57111, Control_c, 0, 64, 102
1, 57125, Control_c, 0, 64, 105
1, 57140, Control_c, 0, 64, 108
1, 57155, Control_c, 0, 64, 112
1, 57169, Control_c, 0, 64, 115
1, 57175, Note_on_c, 0, 84, 33
1, 57184, Control_c, 0, 64, 119
1, 57207, Control_c, 0, 64, 124
1, 57222, Control_c, 0, 64, 127
1, 57313, Note_off_c, 0, 84, 43
1, 57322, Note_on_c, 0, 83, 44
1, 57399, Note_off_c, 0, 83, 54
1, 57424, Note_on_c, 0, 84, 46
1, 57542, Note_on_c, 0, 82, 55
1, 57543, Note_off_c, 0, 84, 49
1, 57572, Note_off_c, 0, 77, 41
1, 57655, Note_on_c, 0, 80, 41
1, 57695, Note_off_c, 0, 80, 0
1, 57695, Note_on_c, 0, 80, 9
1, 57727, Note_off_c, 0, 82, 36
1, 57767, Note_on_c, 0, 79, 45
1, 57822, Note_off_c, 0, 80, 44
1, 57829, Control_c, 0, 64, 126
1, 57843, Control_c, 0, 64, 124
1, 57858, Control_c, 0, 64, 122
1, 57874, Control_c, 0, 64, 120
1, 57878, Note_on_c, 0, 77, 38
1, 57889, Control_c, 0, 64, 118
1, 57904, Control_c, 0, 64, 115
1, 57918, Control_c, 0, 64, 109
1, 57923, Note_off_c, 0, 79, 58
1, 57933, Control_c, 0, 64, 99
1, 57956, Control_c, 0, 64, 86
1, 57971, Control_c, 0, 64, 73
1, 57986, Control_c, 0, 64, 59
1, 58000, Control_c, 0, 64, 38
1, 58030, Control_c, 0, 64, 49
1, 58045, Control_c, 0, 64, 59
1, 58060, Control_c, 0, 64, 64
1, 58074, Control_c, 0, 64, 68
1, 58089, Control_c, 0, 64, 73
1, 58104, Control_c, 0, 64, 77
1, 58118, Control_c, 0, 64, 81
1, 58129, Note_on_c, 0, 84, 36
1, 58133, Control_c, 0, 64, 83
1, 58148, Control_c, 0, 64, 85
1, 58163, Control_c, 0, 64, 87
1, 58178, Control_c, 0, 64, 90
1, 58192, Control_c, 0, 64, 92
1, 58207, Control_c, 0, 64, 93
1, 58222, Control_c, 0, 64, 94
1, 58237, Control_c, 0, 64, 94
1, 58242, Note_off_c, 0, 84, 46
1, 58247, Note_on_c, 0, 83, 48
1, 58252, Control_c, 0, 64, 95
1, 58266, Control_c, 0, 64, 96
1, 58281, Control_c, 0, 64, 97
1, 58296, Control_c, 0, 64, 98
1, 58311, Control_c, 0, 64, 99
1, 58315, Note_off_c, 0, 83, 65
1, 58326, Control_c, 0, 64, 100
1, 58340, Control_c, 0, 64, 100
1, 58343, Note_on_c, 0, 84, 47
1, 58355, Control_c, 0, 64, 101
1, 58370, Control_c, 0, 64, 101
1, 58385, Control_c, 0, 64, 102
1, 58400, Control_c, 0, 64, 102
1, 58430, Control_c, 0, 64, 103
1, 58469, Note_on_c, 0, 82, 57
1, 58490, Note_off_c, 0, 84, 40
1, 58523, Note_off_c, 0, 77, 37
1, 58586, Note_on_c, 0, 80, 44
1, 58671, Note_off_c, 0, 82, 35
1, 58734, Note_on_c, 0, 79, 44
1, 58779, Control_c, 0, 64, 102
1, 58802, Note_off_c, 0, 80, 34
1, 58866, Note_on_c, 0, 77, 37
1, 58868, Control_c, 0, 64, 102
1, 58883, Control_c, 0, 64, 101
1, 58897, Control_c, 0, 64, 100
1, 58912, Control_c, 0, 64, 99
1, 58913, Note_off_c, 0, 79, 59
1, 58927, Control_c, 0, 64, 98
1, 58941, Control_c, 0, 64, 94
1, 58956, Control_c, 0, 64, 88
1, 58971, Control_c, 0, 64, 80
1, 58986, Control_c, 0, 64, 72
1, 59001, Control_c, 0, 64, 65
1, 59015, Control_c, 0, 64, 57
1, 59030, Control_c, 0, 64, 44
1, 59045, Control_c, 0, 64, 32
1, 59060, Control_c, 0, 64, 30
1, 59075, Control_c, 0, 64, 38
1, 59089, Control_c, 0, 64, 53
1, 59104, Control_c, 0, 64, 62
1, 59119, Control_c, 0, 64, 66
1, 59134, Control_c, 0, 64, 72
1, 59148, Control_c, 0, 64, 76
1, 59163, Control_c, 0, 64, 80
1, 59178, Control_c, 0, 64, 83
1, 59181, Note_on_c, 0, 84, 18
1, 59193, Control_c, 0, 64, 86
1, 59208, Control_c, 0, 64, 89
1, 59223, Control_c, 0, 64, 94
1, 59238, Control_c, 0, 64, 97
1, 59253, Control_c, 0, 64, 100
1, 59267, Control_c, 0, 64, 101
1, 59297, Control_c, 0, 64, 102
1, 59300, Note_off_c, 0, 84, 43
1, 59306, Note_on_c, 0, 83, 46
1, 59356, Control_c, 0, 64, 102
1, 59392, Note_off_c, 0, 83, 54
1, 59414, Note_on_c, 0, 84, 46
1, 59553, Note_on_c, 0, 82, 55
1, 59564, Note_off_c, 0, 84, 43
1, 59572, Control_c, 0, 64, 102
1, 59625, Note_off_c, 0, 77, 40
1, 59649, Note_on_c, 0, 80, 44
1, 59750, Note_off_c, 0, 82, 43
1, 59758, Note_off_c, 0, 80, 50
1, 59769, Note_on_c, 0, 79, 54
1, 59795, Control_c, 0, 64, 102
1, 59869, Note_off_c, 0, 79, 37
1, 59876, Note_on_c, 0, 77, 44
1, 59928, Control_c, 0, 64, 97
1, 59943, Control_c, 0, 64, 87
1, 59958, Control_c, 0, 64, 75
1, 59972, Control_c, 0, 64, 64
1, 59987, Control_c, 0, 64, 52
1, 59992, Note_off_c, 0, 77, 57
1, 60002, Control_c, 0, 64, 51
1, 60007, Note_on_c, 0, 75, 55
1, 60017, Control_c, 0, 64, 58
1, 60032, Control_c, 0, 64, 64
1, 60046, Control_c, 0, 64, 70
1, 60061, Control_c, 0, 64, 78
1, 60076, Control_c, 0, 64, 87
1, 60090, Control_c, 0, 64, 93
1, 60103, Note_off_c, 0, 75, 61
1, 60105, Control_c, 0, 64, 96
1, 60120, Control_c, 0, 64, 98
1, 60135, Control_c, 0, 64, 100
1, 60150, Control_c, 0, 64, 102
1, 60160, Note_on_c, 0, 84, 42
1, 60165, Control_c, 0, 64, 105
1, 60180, Control_c, 0, 64, 106
1, 60232, Control_c, 0, 64, 106
1, 60237, Note_off_c, 0, 84, 38
1, 60246, Control_c, 0, 64, 107
1, 60261, Control_c, 0, 64, 108
1, 60272, Note_on_c, 0, 83, 50
1, 60277, Control_c, 0, 64, 110
1, 60292, Control_c, 0, 64, 111
1, 60307, Control_c, 0, 64, 113
1, 60321, Control_c, 0, 64, 114
1, 60335, Control_c, 0, 64, 116
1, 60350, Control_c, 0, 64, 117
1, 60365, Control_c, 0, 64, 117
1, 60387, Note_on_c, 0, 84, 49
1, 60388, Note_off_c, 0, 83, 40
1, 60515, Note_on_c, 0, 80, 52
1, 60522, Note_off_c, 0, 84, 41
1, 60625, Note_off_c, 0, 80, 47
1, 60633, Note_on_c, 0, 79, 52
1, 60743, Note_on_c, 0, 77, 47
1, 60751, Note_off_c, 0, 79, 36
1, 60840, Note_off_c, 0, 77, 57
1, 60859, Note_on_c, 0, 75, 48
1, 60980, Control_c, 0, 64, 111
1, 60994, Control_c, 0, 64, 97
1, 61009, Control_c, 0, 64, 80
1, 61011, Note_on_c, 0, 74, 56
1, 61013, Note_off_c, 0, 75, 48
1, 61024, Control_c, 0, 64, 65
1, 61038, Control_c, 0, 64, 0
1, 61085, Control_c, 0, 64, 36
1, 61099, Control_c, 0, 64, 59
1, 61114, Control_c, 0, 64, 66
1, 61129, Control_c, 0, 64, 74
1, 61143, Control_c, 0, 64, 81
1, 61151, Note_on_c, 0, 84, 42
1, 61158, Control_c, 0, 64, 89
1, 61173, Control_c, 0, 64, 95
1, 61188, Control_c, 0, 64, 100
1, 61203, Control_c, 0, 64, 105
1, 61217, Control_c, 0, 64, 112
1, 61229, Note_off_c, 0, 84, 38
1, 61232, Control_c, 0, 64, 122
1, 61247, Control_c, 0, 64, 127
1, 61302, Note_on_c, 0, 83, 36
1, 61387, Note_off_c, 0, 83, 39
1, 61393, Note_on_c, 0, 84, 43
1, 61438, Note_off_c, 0, 74, 39
1, 61534, Note_on_c, 0, 79, 46
1, 61544, Note_off_c, 0, 84, 42
1, 61611, Note_off_c, 0, 79, 54
1, 61642, Note_on_c, 0, 77, 47
1, 61764, Note_off_c, 0, 77, 58
1, 61781, Note_on_c, 0, 75, 52
1, 61921, Note_off_c, 0, 75, 49
1, 61932, Note_on_c, 0, 48, 37
1, 61935, Note_on_c, 0, 74, 51
1, 62003, Note_on_c, 0, 51, 43
1, 62093, Note_on_c, 0, 55, 43
1, 62210, Note_off_c, 0, 74, 57
1, 62242, Note_on_c, 0, 72, 45
1, 62269, Note_on_c, 0, 60, 71
1, 62307, Control_c, 0, 64, 94
1, 62322, Control_c, 0, 64, 76
1, 62337, Control_c, 0, 64, 64
1, 62352, Control_c, 0, 64, 44
1, 62366, Control_c, 0, 64, 49
1, 62381, Control_c, 0, 64, 60
1, 62396, Control_c, 0, 64, 66
1, 62411, Control_c, 0, 64, 73
1, 62426, Control_c, 0, 64, 83
1, 62448, Control_c, 0, 64, 99
1, 62463, Control_c, 0, 64, 127
1, 62478, Note_on_c, 0, 84, 38
1, 62594, Note_off_c, 0, 84, 42
1, 62633, Note_on_c, 0, 83, 39
1, 62657, Note_off_c, 0, 48, 39
1, 62658, Note_off_c, 0, 55, 54
1, 62722, Note_off_c, 0, 72, 38
1, 62725, Note_off_c, 0, 51, 36
1, 62746, Note_off_c, 0, 83, 48
1, 62752, Note_on_c, 0, 84, 48
1, 62873, Note_off_c, 0, 84, 55
1, 62891, Note_on_c, 0, 79, 48
1, 62971, Note_off_c, 0, 79, 60
1, 62994, Note_on_c, 0, 77, 51
1, 62997, Control_c, 0, 67, 127
1, 63012, Control_c, 0, 67, 125
1, 63027, Control_c, 0, 67, 124
1, 63042, Control_c, 0, 67, 123
1, 63056, Control_c, 0, 67, 122
1, 63071, Control_c, 0, 67, 121
1, 63086, Control_c, 0, 67, 120
1, 63101, Control_c, 0, 67, 119
1, 63110, Note_off_c, 0, 77, 59
1, 63116, Control_c, 0, 67, 119
1, 63131, Note_on_c, 0, 75, 46
1, 63131, Control_c, 0, 67, 118
1, 63146, Control_c, 0, 67, 117
1, 63161, Control_c, 0, 67, 117
1, 63175, Control_c, 0, 67, 116
1, 63197, Control_c, 0, 67, 115
1, 63212, Control_c, 0, 67, 114
1, 63227, Control_c, 0, 67, 114
1, 63238, Note_off_c, 0, 75, 52
1, 63241, Control_c, 0, 67, 113
1, 63256, Control_c, 0, 67, 113
1, 63268, Note_on_c, 0, 74, 44
1, 63271, Control_c, 0, 67, 112
1, 63345, Control_c, 0, 67, 113
1, 63360, Control_c, 0, 67, 114
1, 63375, Control_c, 0, 67, 115
1, 63387, Note_off_c, 0, 74, 60
1, 63390, Control_c, 0, 67, 116
1, 63405, Control_c, 0, 67, 117
1, 63418, Note_on_c, 0, 63, 62
1, 63420, Control_c, 0, 67, 118
1, 63435, Control_c, 0, 67, 118
1, 63447, Note_on_c, 0, 72, 44
1, 63449, Control_c, 0, 67, 119
1, 63465, Control_c, 0, 67, 120
1, 63480, Control_c, 0, 64, 93
1, 63480, Control_c, 0, 67, 121
1, 63494, Control_c, 0, 64, 72
1, 63494, Control_c, 0, 67, 121
1, 63509, Control_c, 0, 64, 58
1, 63509, Control_c, 0, 67, 122
1, 63524, Control_c, 0, 64, 35
1, 63554, Control_c, 0, 64, 36
1, 63569, Control_c, 0, 64, 46
1, 63584, Control_c, 0, 64, 59
1, 63599, Control_c, 0, 64, 67
1, 63613, Control_c, 0, 64, 74
1, 63626, Note_off_c, 0, 60, 39
1, 63626, Note_on_c, 0, 84, 24
1, 63628, Control_c, 0, 64, 82
1, 63643, Control_c, 0, 64, 92
1, 63658, Control_c, 0, 64, 101
1, 63673, Control_c, 0, 64, 113
1, 63685, Note_off_c, 0, 84, 42
1, 63687, Control_c, 0, 64, 127
1, 63687, Control_c, 0, 67, 122
1, 63745, Note_on_c, 0, 83, 45
1, 63776, Control_c, 0, 67, 122
1, 63835, Control_c, 0, 67, 122
1, 63848, Note_off_c, 0, 83, 59
1, 63853, Note_off_c, 0, 72, 35
1, 63864, Note_on_c, 0, 84, 52
1, 63864, Control_c, 0, 67, 123
1, 63894, Control_c, 0, 67, 123
1, 63924, Control_c, 0, 67, 124
1, 63961, Control_c, 0, 67, 125
1, 63972, Note_on_c, 0, 60, 67
1, 63976, Control_c, 0, 67, 125
1, 63991, Control_c, 0, 67, 127
1, 64006, Control_c, 0, 67, 127
1, 64008, Note_on_c, 0, 55, 40
1, 64010, Note_off_c, 0, 84, 55
1, 64019, Note_on_c, 0, 79, 48
1, 64029, Note_on_c, 0, 51, 45
1, 64035, Control_c, 0, 64, 90
1, 64050, Control_c, 0, 64, 70
1, 64057, Note_off_c, 0, 63, 50
1, 64064, Control_c, 0, 64, 0
1, 64112, Note_off_c, 0, 79, 57
1, 64138, Control_c, 0, 64, 56
1, 64146, Note_on_c, 0, 77, 48
1, 64153, Control_c, 0, 64, 69
1, 64168, Control_c, 0, 64, 81
1, 64183, Control_c, 0, 64, 95
1, 64198, Control_c, 0, 64, 116
1, 64212, Control_c, 0, 64, 127
1, 64234, Note_off_c, 0, 55, 42
1, 64252, Note_off_c, 0, 51, 41
1, 64254, Note_off_c, 0, 77, 61
1, 64275, Note_on_c, 0, 75, 48
1, 64313, Note_off_c, 0, 60, 35
1, 64373, Note_off_c, 0, 75, 59
1, 64397, Note_on_c, 0, 74, 50
1, 64553, Note_off_c, 0, 74, 63
1, 64585, Note_on_c, 0, 65, 61
1, 64617, Note_on_c, 0, 60, 43
1, 64621, Note_on_c, 0, 72, 35
1, 64624, Note_on_c, 0, 56, 45
1, 64724, Control_c, 0, 64, 110
1, 64739, Control_c, 0, 64, 88
1, 64754, Control_c, 0, 64, 73
1, 64768, Control_c, 0, 64, 56
1, 64783, Control_c, 0, 64, 0
1, 64788, Note_on_c, 0, 84, 42
1, 64887, Control_c, 0, 64, 29
1, 64901, Control_c, 0, 64, 63
1, 64904, Note_off_c, 0, 84, 61
1, 64916, Note_on_c, 0, 83, 56
1, 64916, Control_c, 0, 64, 70
1, 64931, Control_c, 0, 64, 78
1, 64946, Control_c, 0, 64, 86
1, 64961, Control_c, 0, 64, 93
1, 64973, Note_off_c, 0, 72, 43
1, 64976, Control_c, 0, 64, 101
1, 64991, Control_c, 0, 64, 109
1, 65006, Control_c, 0, 64, 117
1, 65021, Control_c, 0, 64, 127
1, 65028, Note_off_c, 0, 83, 59
1, 65040, Note_on_c, 0, 84, 58
1, 65134, Note_off_c, 0, 84, 51
1, 65175, Note_on_c, 0, 77, 56
1, 65283, Note_off_c, 0, 77, 58
1, 65301, Note_on_c, 0, 75, 56
1, 65404, Note_off_c, 0, 75, 51
1, 65421, Control_c, 0, 64, 124
1, 65438, Note_on_c, 0, 74, 57
1, 65444, Control_c, 0, 64, 121
1, 65458, Control_c, 0, 64, 119
1, 65473, Control_c, 0, 64, 119
1, 65488, Control_c, 0, 64, 118
1, 65532, Control_c, 0, 64, 118
1, 65544, Note_off_c, 0, 74, 54
1, 65547, Control_c, 0, 64, 116
1, 65556, Note_on_c, 0, 75, 49
1, 65562, Control_c, 0, 64, 114
1, 65577, Control_c, 0, 64, 112
1, 65591, Control_c, 0, 64, 106
1, 65606, Control_c, 0, 64, 96
1, 65621, Control_c, 0, 64, 82
1, 65635, Control_c, 0, 64, 69
1, 65642, Note_off_c, 0, 75, 61
1, 65650, Control_c, 0, 64, 48
1, 65665, Control_c, 0, 64, 0
1, 65680, Note_on_c, 0, 72, 52
1, 65709, Control_c, 0, 64, 11
1, 65724, Control_c, 0, 64, 52
1, 65739, Control_c, 0, 64, 64
1, 65754, Control_c, 0, 64, 69
1, 65769, Control_c, 0, 64, 74
1, 65784, Control_c, 0, 64, 80
1, 65799, Control_c, 0, 64, 84
1, 65809, Note_on_c, 0, 84, 44
1, 65814, Control_c, 0, 64, 88
1, 65828, Control_c, 0, 64, 93
1, 65843, Control_c, 0, 64, 97
1, 65859, Control_c, 0, 64, 100
1, 65874, Control_c, 0, 64, 103
1, 65888, Control_c, 0, 64, 107
1, 65903, Control_c, 0, 64, 110
1, 65913, Note_off_c, 0, 84, 59
1, 65918, Control_c, 0, 64, 114
1, 65933, Control_c, 0, 64, 117
1, 65946, Note_off_c, 0, 72, 42
1, 65947, Note_on_c, 0, 83, 49
1, 65948, Control_c, 0, 64, 119
1, 65963, Control_c, 0, 64, 121
1, 65978, Control_c, 0, 64, 123
1, 65992, Control_c, 0, 64, 124
1, 66007, Control_c, 0, 64, 126
1, 66022, Control_c, 0, 64, 127
1, 66035, Note_off_c, 0, 83, 60
1, 66049, Note_on_c, 0, 84, 53
1, 66145, Note_off_c, 0, 84, 56
1, 66200, Note_on_c, 0, 77, 51
1, 66273, Note_off_c, 0, 65, 56
1, 66274, Note_off_c, 0, 60, 38
1, 66294, Note_off_c, 0, 77, 60
1, 66309, Note_on_c, 0, 75, 56
1, 66406, Note_off_c, 0, 75, 46
1, 66422, Note_off_c, 0, 56, 38
1, 66432, Note_on_c, 0, 74, 53
1, 66489, Note_on_c, 0, 51, 58
1, 66489, Control_c, 0, 64, 90
1, 66504, Control_c, 0, 64, 69
1, 66519, Control_c, 0, 64, 0
1, 66540, Note_on_c, 0, 75, 44
1, 66542, Note_off_c, 0, 74, 50
1, 66584, Note_off_c, 0, 51, 62
1, 66593, Control_c, 0, 64, 59
1, 66598, Note_on_c, 0, 60, 52
1, 66607, Control_c, 0, 64, 69
1, 66622, Control_c, 0, 64, 78
1, 66637, Control_c, 0, 64, 90
1, 66653, Control_c, 0, 64, 97
1, 66668, Control_c, 0, 64, 103
1, 66680, Note_off_c, 0, 60, 63
1, 66682, Control_c, 0, 64, 111
1, 66697, Control_c, 0, 64, 127
1, 66737, Note_off_c, 0, 75, 61
1, 66792, Note_on_c, 0, 67, 68
1, 66797, Note_on_c, 0, 72, 38
1, 66948, Note_on_c, 0, 84, 35
1, 67035, Note_off_c, 0, 84, 37
1, 67074, Note_on_c, 0, 83, 40
1, 67134, Note_off_c, 0, 72, 44
1, 67158, Note_on_c, 0, 84, 55
1, 67187, Note_off_c, 0, 83, 43
1, 67291, Note_off_c, 0, 84, 56
1, 67306, Note_on_c, 0, 79, 49
1, 67409, Note_off_c, 0, 79, 37
1, 67423, Note_on_c, 0, 77, 49
1, 67533, Note_off_c, 0, 77, 59
1, 67551, Note_on_c, 0, 75, 45
1, 67587, Note_on_c, 0, 65, 57
1, 67593, Note_off_c, 0, 67, 54
1, 67671, Note_on_c, 0, 63, 60
1, 67685, Note_off_c, 0, 65, 60
1, 67712, Note_off_c, 0, 75, 56
1, 67730, Note_on_c, 0, 74, 50
1, 67743, Note_on_c, 0, 62, 57
1, 67746, Note_off_c, 0, 63, 55
1, 67817, Note_off_c, 0, 74, 50
1, 67824, Control_c, 0, 64, 116
1, 67838, Note_off_c, 0, 62, 59
1, 67838, Control_c, 0, 64, 99
1, 67853, Control_c, 0, 64, 83
1, 67856, Note_on_c, 0, 60, 54
1, 67867, Note_on_c, 0, 75, 50
1, 67868, Control_c, 0, 64, 65
1, 67883, Control_c, 0, 64, 0
1, 67972, Control_c, 0, 64, 60
1, 67987, Control_c, 0, 64, 70
1, 68002, Control_c, 0, 64, 80
1, 68016, Control_c, 0, 64, 95
1, 68031, Control_c, 0, 64, 116
1, 68043, Note_on_c, 0, 87, 53
1, 68046, Control_c, 0, 64, 127
1, 68073, Note_off_c, 0, 60, 63
1, 68148, Note_off_c, 0, 75, 56
1, 68156, Note_off_c, 0, 87, 39
1, 68162, Note_on_c, 0, 86, 56
1, 68279, Note_off_c, 0, 86, 63
1, 68283, Note_on_c, 0, 87, 62
1, 68384, Note_on_c, 0, 60, 61
1, 68407, Note_on_c, 0, 55, 41
1, 68415, Note_on_c, 0, 86, 55
1, 68417, Control_c, 0, 67, 127
1, 68438, Note_on_c, 0, 51, 26
1, 68440, Control_c, 0, 67, 125
1, 68444, Note_off_c, 0, 55, 55
1, 68454, Control_c, 0, 67, 124
1, 68456, Note_off_c, 0, 87, 56
1, 68469, Control_c, 0, 67, 123
1, 68473, Note_off_c, 0, 60, 60
1, 68484, Control_c, 0, 67, 121
1, 68494, Note_off_c, 0, 51, 44
1, 68499, Control_c, 0, 67, 117
1, 68503, Note_off_c, 0, 86, 63
1, 68511, Poly_aftertouch_c, 0, 48, 0
1, 68514, Control_c, 0, 67, 111
1, 68528, Control_c, 0, 67, 107
1, 68543, Control_c, 0, 67, 105
1, 68558, Control_c, 0, 67, 104
1, 68559, Note_on_c, 0, 84, 49
1, 68571, Control_c, 0, 67, 102
1, 68586, Control_c, 0, 67, 102
1, 68616, Control_c, 0, 67, 103
1, 68631, Control_c, 0, 67, 105
1, 68645, Control_c, 0, 67, 107
1, 68660, Control_c, 0, 67, 109
1, 68671, Note_off_c, 0, 84, 57
1, 68675, Control_c, 0, 67, 112
1, 68686, Note_on_c, 0, 82, 55
1, 68690, Control_c, 0, 67, 114
1, 68705, Control_c, 0, 67, 118
1, 68720, Control_c, 0, 67, 123
1, 68734, Control_c, 0, 67, 127
1, 68805, Note_off_c, 0, 82, 59
1, 68819, Note_on_c, 0, 81, 55
1, 68969, Note_off_c, 0, 81, 56
1, 69049, Note_on_c, 0, 58, 53
1, 69056, Note_on_c, 0, 79, 54
1, 69090, Note_on_c, 0, 43, 31
1, 69095, Note_on_c, 0, 50, 31
1, 69135, Control_c, 0, 64, 105
1, 69149, Control_c, 0, 64, 87
1, 69164, Control_c, 0, 64, 71
1, 69187, Control_c, 0, 64, 51
1, 69202, Control_c, 0, 64, 0
1, 69275, Control_c, 0, 64, 47
1, 69290, Control_c, 0, 64, 65
1, 69301, Note_on_c, 0, 91, 45
1, 69305, Control_c, 0, 64, 75
1, 69321, Control_c, 0, 64, 86
1, 69336, Control_c, 0, 64, 99
1, 69350, Control_c, 0, 64, 112
1, 69365, Control_c, 0, 64, 127
1, 69418, Note_off_c, 0, 91, 52
1, 69435, Note_on_c, 0, 90, 55
1, 69448, Note_off_c, 0, 58, 58
1, 69531, Note_off_c, 0, 79, 39
1, 69560, Note_on_c, 0, 91, 56
1, 69599, Note_off_c, 0, 90, 54
1, 69674, Note_on_c, 0, 55, 49
1, 69686, Note_off_c, 0, 91, 54
1, 69695, Note_on_c, 0, 46, 43
1, 69698, Note_on_c, 0, 86, 45
1, 69807, Note_off_c, 0, 86, 43
1, 69821, Note_on_c, 0, 84, 51
1, 69937, Note_off_c, 0, 84, 60
1, 69944, Note_on_c, 0, 82, 60
1, 69945, Note_off_c, 0, 50, 43
1, 70047, Note_off_c, 0, 82, 57
1, 70056, Note_on_c, 0, 81, 53
1, 70152, Note_off_c, 0, 81, 62
1, 70174, Control_c, 0, 64, 101
1, 70188, Control_c, 0, 64, 81
1, 70190, Note_on_c, 0, 79, 57
1, 70203, Control_c, 0, 64, 66
1, 70218, Control_c, 0, 64, 46
1, 70232, Control_c, 0, 64, 40
1, 70247, Control_c, 0, 64, 50
1, 70262, Control_c, 0, 64, 58
1, 70277, Control_c, 0, 64, 64
1, 70292, Control_c, 0, 64, 68
1, 70306, Note_on_c, 0, 91, 59
1, 70306, Control_c, 0, 64, 74
1, 70321, Control_c, 0, 64, 81
1, 70336, Control_c, 0, 64, 90
1, 70351, Control_c, 0, 64, 98
1, 70366, Control_c, 0, 64, 105
1, 70380, Control_c, 0, 64, 113
1, 70395, Control_c, 0, 64, 127
1, 70412, Note_off_c, 0, 91, 60
1, 70420, Note_on_c, 0, 90, 63
1, 70527, Note_on_c, 0, 91, 68
1, 70530, Note_off_c, 0, 79, 43
1, 70608, Note_off_c, 0, 90, 38
1, 70658, Note_off_c, 0, 91, 59
1, 70662, Note_on_c, 0, 86, 51
1, 70750, Note_off_c, 0, 43, 41
1, 70756, Note_off_c, 0, 46, 48
1, 70759, Note_off_c, 0, 86, 64
1, 70774, Control_c, 0, 67, 126
1, 70777, Note_on_c, 0, 84, 54
1, 70789, Control_c, 0, 67, 124
1, 70804, Control_c, 0, 67, 121
1, 70818, Control_c, 0, 67, 119
1, 70833, Control_c, 0, 67, 117
1, 70847, Control_c, 0, 67, 114
1, 70851, Note_off_c, 0, 55, 58
1, 70862, Control_c, 0, 67, 111
1, 70877, Control_c, 0, 67, 108
1, 70892, Control_c, 0, 67, 106
1, 70902, Note_on_c, 0, 82, 62
1, 70906, Note_off_c, 0, 84, 56
1, 70907, Control_c, 0, 67, 104
1, 70922, Control_c, 0, 67, 103
1, 70936, Control_c, 0, 67, 102
1, 70951, Control_c, 0, 67, 100
1, 70966, Control_c, 0, 67, 99
1, 71021, Note_off_c, 0, 82, 60
1, 71022, Note_on_c, 0, 81, 61
1, 71025, Control_c, 0, 67, 99
1, 71040, Control_c, 0, 67, 100
1, 71054, Control_c, 0, 67, 101
1, 71069, Control_c, 0, 67, 101
1, 71084, Control_c, 0, 67, 102
1, 71099, Control_c, 0, 67, 103
1, 71114, Control_c, 0, 67, 103
1, 71129, Control_c, 0, 67, 104
1, 71143, Control_c, 0, 67, 104
1, 71158, Control_c, 0, 67, 105
1, 71167, Note_off_c, 0, 81, 61
1, 71182, Note_on_c, 0, 60, 64
1, 71188, Control_c, 0, 67, 105
1, 71195, Note_on_c, 0, 79, 61
1, 71209, Note_on_c, 0, 55, 45
1, 71239, Note_on_c, 0, 51, 44
1, 71247, Control_c, 0, 64, 108
1, 71247, Control_c, 0, 67, 106
1, 71262, Control_c, 0, 64, 82
1, 71277, Control_c, 0, 64, 64
1, 71277, Control_c, 0, 67, 106
1, 71292, Control_c, 0, 64, 0
1, 71336, Control_c, 0, 64, 58
1, 71336, Control_c, 0, 67, 106
1, 71340, Note_on_c, 0, 91, 58
1, 71351, Control_c, 0, 64, 66
1, 71366, Control_c, 0, 64, 74
1, 71381, Control_c, 0, 64, 85
1, 71395, Control_c, 0, 64, 98
1, 71410, Control_c, 0, 64, 110
1, 71433, Control_c, 0, 64, 127
1, 71471, Note_on_c, 0, 90, 68
1, 71479, Note_off_c, 0, 91, 58
1, 71587, Note_on_c, 0, 91, 70
1, 71591, Note_off_c, 0, 60, 61
1, 71597, Control_c, 0, 67, 106
1, 71597, Note_off_c, 0, 90, 65
1, 71611, Control_c, 0, 67, 107
1, 71641, Control_c, 0, 67, 107
1, 71660, Note_off_c, 0, 79, 54
1, 71697, Note_on_c, 0, 60, 75
1, 71715, Control_c, 0, 67, 108
1, 71716, Note_on_c, 0, 87, 67
1, 71730, Control_c, 0, 67, 108
1, 71768, Note_off_c, 0, 91, 53
1, 71769, Note_off_c, 0, 55, 60
1, 71804, Control_c, 0, 67, 109
1, 71845, Note_on_c, 0, 86, 62
1, 71848, Control_c, 0, 67, 109
1, 71877, Control_c, 0, 67, 110
1, 71880, Note_off_c, 0, 87, 48
1, 71934, Note_off_c, 0, 86, 62
1, 71937, Control_c, 0, 67, 110
1, 71959, Note_on_c, 0, 84, 60
1, 71966, Control_c, 0, 67, 111
1, 72025, Note_off_c, 0, 60, 62
1, 72036, Note_on_c, 0, 48, 50
1, 72041, Control_c, 0, 67, 111
1, 72061, Note_off_c, 0, 84, 63
1, 72065, Note_on_c, 0, 55, 54
1, 72073, Note_on_c, 0, 82, 59
1, 72092, Note_off_c, 0, 51, 34
1, 72100, Control_c, 0, 67, 112
1, 72144, Control_c, 0, 67, 112
1, 72300, Control_c, 0, 67, 113
1, 72307, Note_on_c, 0, 63, 72
1, 72337, Note_on_c, 0, 81, 57
1, 72341, Note_off_c, 0, 82, 55
1, 72346, Control_c, 0, 67, 113
1, 72361, Control_c, 0, 67, 114
1, 72375, Control_c, 0, 67, 114
1, 72390, Control_c, 0, 67, 115
1, 72435, Control_c, 0, 67, 115
1, 72449, Control_c, 0, 67, 116
1, 72479, Control_c, 0, 67, 116
1, 72494, Control_c, 0, 64, 105
1, 72509, Control_c, 0, 64, 83
1, 72509, Control_c, 0, 67, 117
1, 72511, Note_on_c, 0, 91, 58
1, 72524, Control_c, 0, 64, 66
1, 72524, Control_c, 0, 67, 117
1, 72539, Control_c, 0, 64, 0
1, 72539, Control_c, 0, 67, 118
1, 72559, Note_off_c, 0, 91, 0
1, 72559, Note_on_c, 0, 91, 16
1, 72568, Control_c, 0, 67, 118
1, 72583, Control_c, 0, 64, 56
1, 72583, Control_c, 0, 67, 119
1, 72598, Control_c, 0, 64, 65
1, 72598, Control_c, 0, 67, 119
1, 72613, Control_c, 0, 64, 71
1, 72613, Control_c, 0, 67, 120
1, 72626, Note_off_c, 0, 91, 57
1, 72627, Control_c, 0, 64, 80
1, 72627, Control_c, 0, 67, 121
1, 72634, Note_on_c, 0, 90, 60
1, 72642, Control_c, 0, 64, 89
1, 72642, Control_c, 0, 67, 121
1, 72657, Control_c, 0, 64, 97
1, 72657, Control_c, 0, 67, 122
1, 72672, Control_c, 0, 64, 104
1, 72672, Control_c, 0, 67, 122
1, 72687, Control_c, 0, 64, 110
1, 72687, Control_c, 0, 67, 123
1, 72701, Control_c, 0, 64, 113
1, 72701, Control_c, 0, 67, 123
1, 72716, Control_c, 0, 64, 119
1, 72716, Control_c, 0, 67, 124
1, 72731, Control_c, 0, 64, 124
1, 72731, Control_c, 0, 67, 125
1, 72746, Control_c, 0, 64, 127
1, 72746, Control_c, 0, 67, 125
1, 72756, Note_on_c, 0, 91, 63
1, 72761, Control_c, 0, 67, 126
1, 72790, Control_c, 0, 67, 126
1, 72805, Control_c, 0, 67, 127
1, 72813, Note_off_c, 0, 90, 38
1, 72819, Control_c, 0, 67, 127
1, 72827, Note_off_c, 0, 81, 41
1, 72892, Note_on_c, 0, 86, 53
1, 72934, Note_off_c, 0, 63, 56
1, 72935, Note_off_c, 0, 91, 51
1, 72997, Note_off_c, 0, 55, 57
1, 73004, Note_off_c, 0, 48, 32
1, 73006, Note_off_c, 0, 86, 61
1, 73030, Note_on_c, 0, 84, 50
1, 73167, Note_on_c, 0, 62, 52
1, 73170, Note_off_c, 0, 84, 57
1, 73180, Note_on_c, 0, 82, 56
1, 73314, Note_on_c, 0, 60, 55
1, 73325, Note_off_c, 0, 82, 51
1, 73325, Note_on_c, 0, 81, 51
1, 73380, Note_off_c, 0, 62, 36
1, 73551, Note_on_c, 0, 58, 50
1, 73557, Note_on_c, 0, 79, 51
1, 73569, Control_c, 0, 64, 124
1, 73584, Control_c, 0, 64, 115
1, 73585, Note_off_c, 0, 81, 38
1, 73598, Control_c, 0, 64, 109
1, 73599, Note_on_c, 0, 55, 37
1, 73613, Control_c, 0, 64, 104
1, 73628, Control_c, 0, 64, 98
1, 73642, Control_c, 0, 64, 92
1, 73657, Control_c, 0, 64, 85
1, 73680, Control_c, 0, 64, 74
1, 73684, Note_off_c, 0, 60, 38
1, 73695, Control_c, 0, 64, 64
1, 73710, Control_c, 0, 64, 14
1, 73719, Note_on_c, 0, 86, 43
1, 73724, Control_c, 0, 64, 0
1, 73828, Control_c, 0, 64, 56
1, 73841, Note_off_c, 0, 86, 56
1, 73844, Control_c, 0, 64, 65
1, 73859, Note_on_c, 0, 85, 53
1, 73859, Control_c, 0, 64, 70
1, 73873, Control_c, 0, 64, 74
1, 73888, Control_c, 0, 64, 78
1, 73903, Control_c, 0, 64, 82
1, 73918, Control_c, 0, 64, 85
1, 73933, Control_c, 0, 64, 86
1, 73947, Control_c, 0, 64, 87
1, 73972, Note_off_c, 0, 85, 62
1, 73986, Note_on_c, 0, 86, 48
1, 73992, Control_c, 0, 64, 88
1, 74080, Control_c, 0, 64, 88
1, 74109, Note_on_c, 0, 82, 58
1, 74139, Note_off_c, 0, 79, 37
1, 74141, Note_off_c, 0, 86, 45
1, 74229, Note_off_c, 0, 82, 61
1, 74241, Note_on_c, 0, 79, 60
1, 74332, Note_off_c, 0, 79, 58
1, 74354, Note_on_c, 0, 77, 58
1, 74464, Note_off_c, 0, 77, 59
1, 74473, Note_on_c, 0, 75, 57
1, 74518, Control_c, 0, 64, 87
1, 74533, Control_c, 0, 64, 84
1, 74547, Control_c, 0, 64, 78
1, 74561, Control_c, 0, 64, 70
1, 74576, Control_c, 0, 64, 61
1, 74582, Note_off_c, 0, 75, 61
1, 74590, Control_c, 0, 64, 31
1, 74601, Note_on_c, 0, 74, 66
1, 74605, Control_c, 0, 64, 0
1, 74666, Control_c, 0, 64, 49
1, 74681, Control_c, 0, 64, 63
1, 74695, Control_c, 0, 64, 67
1, 74710, Control_c, 0, 64, 71
1, 74720, Note_on_c, 0, 82, 56
1, 74725, Control_c, 0, 64, 76
1, 74740, Control_c, 0, 64, 79
1, 74755, Control_c, 0, 64, 82
1, 74769, Control_c, 0, 64, 84
1, 74784, Control_c, 0, 64, 86
1, 74799, Control_c, 0, 64, 87
1, 74828, Note_off_c, 0, 82, 59
1, 74849, Note_on_c, 0, 81, 52
1, 74931, Note_off_c, 0, 81, 61
1, 74940, Note_on_c, 0, 82, 66
1, 74947, Control_c, 0, 64, 86
1, 74962, Control_c, 0, 64, 84
1, 74977, Control_c, 0, 64, 81
1, 74992, Control_c, 0, 64, 76
1, 75002, Note_off_c, 0, 74, 54
1, 75007, Control_c, 0, 64, 68
1, 75021, Control_c, 0, 64, 55
1, 75036, Control_c, 0, 64, 0
1, 75076, Note_on_c, 0, 79, 53
1, 75110, Control_c, 0, 64, 49
1, 75117, Note_off_c, 0, 82, 61
1, 75125, Control_c, 0, 64, 63
1, 75140, Control_c, 0, 64, 68
1, 75155, Control_c, 0, 64, 72
1, 75177, Control_c, 0, 64, 74
1, 75184, Note_off_c, 0, 79, 60
1, 75192, Control_c, 0, 64, 76
1, 75204, Note_on_c, 0, 77, 54
1, 75206, Control_c, 0, 64, 78
1, 75221, Control_c, 0, 64, 81
1, 75236, Control_c, 0, 64, 83
1, 75251, Control_c, 0, 64, 85
1, 75266, Control_c, 0, 64, 85
1, 75311, Control_c, 0, 64, 87
1, 75314, Note_on_c, 0, 75, 58
1, 75314, Note_off_c, 0, 77, 60
1, 75326, Control_c, 0, 64, 88
1, 75339, Note_off_c, 0, 55, 41
1, 75341, Control_c, 0, 64, 90
1, 75355, Control_c, 0, 64, 92
1, 75370, Control_c, 0, 64, 93
1, 75385, Control_c, 0, 64, 95
1, 75400, Control_c, 0, 64, 97
1, 75414, Control_c, 0, 64, 100
1, 75424, Note_off_c, 0, 75, 56
1, 75429, Control_c, 0, 64, 102
1, 75433, Note_on_c, 0, 74, 64
1, 75445, Control_c, 0, 64, 103
1, 75460, Control_c, 0, 64, 104
1, 75475, Control_c, 0, 64, 105
1, 75490, Control_c, 0, 64, 106
1, 75504, Control_c, 0, 64, 106
1, 75519, Control_c, 0, 64, 107
1, 75534, Control_c, 0, 64, 107
1, 75587, Note_on_c, 0, 55, 58
1, 75600, Note_on_c, 0, 72, 56
1, 75614, Note_on_c, 0, 51, 47
1, 75619, Note_off_c, 0, 74, 38
1, 75623, Control_c, 0, 64, 107
1, 75638, Control_c, 0, 64, 106
1, 75652, Control_c, 0, 64, 102
1, 75667, Control_c, 0, 64, 97
1, 75682, Control_c, 0, 64, 89
1, 75697, Control_c, 0, 64, 80
1, 75711, Control_c, 0, 64, 70
1, 75726, Control_c, 0, 64, 61
1, 75741, Note_on_c, 0, 79, 52
1, 75741, Control_c, 0, 64, 0
1, 75819, Note_off_c, 0, 58, 48
1, 75861, Note_off_c, 0, 79, 59
1, 75862, Note_on_c, 0, 60, 63
1, 75876, Note_on_c, 0, 78, 60
1, 76013, Note_off_c, 0, 78, 61
1, 76015, Note_on_c, 0, 79, 59
1, 76116, Note_on_c, 0, 75, 59
1, 76119, Note_off_c, 0, 72, 50
1, 76120, Note_on_c, 0, 59, 62
1, 76136, Note_off_c, 0, 60, 61
1, 76141, Note_off_c, 0, 79, 51
1, 76152, Note_on_c, 0, 58, 23
1, 76163, Control_c, 0, 64, 47
1, 76178, Control_c, 0, 64, 62
1, 76193, Control_c, 0, 64, 66
1, 76199, Note_off_c, 0, 58, 28
1, 76208, Control_c, 0, 64, 69
1, 76223, Control_c, 0, 64, 71
1, 76238, Note_off_c, 0, 75, 61
1, 76238, Control_c, 0, 64, 74
1, 76246, Note_on_c, 0, 74, 68
1, 76253, Control_c, 0, 64, 77
1, 76268, Control_c, 0, 64, 79
1, 76283, Control_c, 0, 64, 81
1, 76297, Control_c, 0, 64, 83
1, 76312, Control_c, 0, 64, 86
1, 76327, Control_c, 0, 64, 90
1, 76335, Note_off_c, 0, 74, 62
1, 76342, Control_c, 0, 64, 93
1, 76348, Note_on_c, 0, 60, 74
1, 76357, Control_c, 0, 64, 96
1, 76357, Note_on_c, 0, 72, 66
1, 76372, Control_c, 0, 64, 98
1, 76385, Note_off_c, 0, 59, 61
1, 76387, Control_c, 0, 64, 99
1, 76402, Control_c, 0, 64, 100
1, 76402, Note_off_c, 0, 55, 58
1, 76416, Control_c, 0, 64, 101
1, 76431, Control_c, 0, 64, 104
1, 76446, Control_c, 0, 64, 107
1, 76454, Note_off_c, 0, 51, 63
1, 76457, Note_off_c, 0, 72, 62
1, 76461, Control_c, 0, 64, 109
1, 76474, Note_on_c, 0, 70, 55
1, 76475, Control_c, 0, 64, 111
1, 76490, Control_c, 0, 64, 112
1, 76505, Control_c, 0, 64, 114
1, 76520, Control_c, 0, 64, 116
1, 76535, Control_c, 0, 64, 117
1, 76549, Control_c, 0, 64, 118
1, 76649, Note_on_c, 0, 55, 72
1, 76682, Note_off_c, 0, 70, 54
1, 76690, Control_c, 0, 64, 115
1, 76697, Note_on_c, 0, 69, 53
1, 76705, Control_c, 0, 64, 112
1, 76713, Note_off_c, 0, 60, 49
1, 76716, Note_on_c, 0, 48, 42
1, 76720, Control_c, 0, 64, 108
1, 76735, Control_c, 0, 64, 102
1, 76742, Note_on_c, 0, 51, 46
1, 76749, Control_c, 0, 64, 95
1, 76764, Control_c, 0, 64, 86
1, 76779, Control_c, 0, 64, 76
1, 76793, Control_c, 0, 64, 67
1, 76808, Control_c, 0, 64, 37
1, 76823, Control_c, 0, 64, 0
1, 76839, Note_on_c, 0, 75, 58
1, 76941, Control_c, 0, 64, 46
1, 76956, Control_c, 0, 64, 62
1, 76967, Note_off_c, 0, 75, 59
1, 76971, Control_c, 0, 64, 67
1, 76976, Note_on_c, 0, 74, 59
1, 76986, Control_c, 0, 64, 71
1, 77001, Control_c, 0, 64, 77
1, 77016, Control_c, 0, 64, 82
1, 77031, Control_c, 0, 64, 86
1, 77046, Control_c, 0, 64, 89
1, 77061, Control_c, 0, 64, 92
1, 77076, Control_c, 0, 64, 94
1, 77090, Control_c, 0, 64, 96
1, 77099, Note_off_c, 0, 74, 61
1, 77105, Control_c, 0, 64, 97
1, 77107, Note_on_c, 0, 75, 59
1, 77120, Control_c, 0, 64, 99
1, 77135, Control_c, 0, 64, 100
1, 77150, Control_c, 0, 64, 101
1, 77165, Control_c, 0, 64, 102
1, 77195, Control_c, 0, 64, 102
1, 77210, Note_off_c, 0, 69, 35
1, 77245, Note_on_c, 0, 57, 59
1, 77254, Note_on_c, 0, 74, 59
1, 77296, Note_off_c, 0, 55, 64
1, 77325, Note_off_c, 0, 75, 38
1, 77328, Control_c, 0, 64, 101
1, 77343, Control_c, 0, 64, 99
1, 77358, Control_c, 0, 64, 94
1, 77371, Note_off_c, 0, 74, 63
1, 77372, Control_c, 0, 64, 82
1, 77387, Control_c, 0, 64, 69
1, 77401, Note_on_c, 0, 72, 54
1, 77402, Control_c, 0, 64, 50
1, 77424, Control_c, 0, 64, 0
1, 77513, Control_c, 0, 64, 53
1, 77528, Control_c, 0, 64, 64
1, 77543, Control_c, 0, 64, 68
1, 77556, Note_on_c, 0, 55, 59
1, 77558, Control_c, 0, 64, 72
1, 77567, Note_on_c, 0, 70, 52
1, 77571, Note_off_c, 0, 72, 56
1, 77572, Control_c, 0, 64, 76
1, 77587, Control_c, 0, 64, 78
1, 77591, Note_off_c, 0, 57, 61
1, 77602, Control_c, 0, 64, 80
1, 77616, Control_c, 0, 64, 82
1, 77631, Control_c, 0, 64, 84
1, 77646, Control_c, 0, 64, 87
1, 77661, Control_c, 0, 64, 90
1, 77676, Control_c, 0, 64, 93
1, 77685, Note_off_c, 0, 55, 63
1, 77690, Control_c, 0, 64, 96
1, 77703, Note_on_c, 0, 57, 64
1, 77704, Note_on_c, 0, 69, 61
1, 77705, Control_c, 0, 64, 99
1, 77708, Note_off_c, 0, 70, 58
1, 77711, Note_off_c, 0, 48, 49
1, 77720, Control_c, 0, 64, 101
1, 77726, Note_off_c, 0, 51, 62
1, 77735, Control_c, 0, 64, 104
1, 77750, Control_c, 0, 64, 107
1, 77764, Control_c, 0, 64, 111
1, 77779, Note_off_c, 0, 57, 55
1, 77779, Control_c, 0, 64, 114
1, 77794, Control_c, 0, 64, 116
1, 77809, Control_c, 0, 64, 118
1, 77824, Control_c, 0, 64, 119
1, 77839, Control_c, 0, 64, 121
1, 77854, Control_c, 0, 64, 123
1, 77869, Control_c, 0, 64, 124
1, 77884, Control_c, 0, 64, 126
1, 77973, Note_on_c, 0, 58, 57
1, 77982, Note_on_c, 0, 67, 52
1, 77988, Control_c, 0, 64, 124
1, 77995, Note_on_c, 0, 43, 34
1, 77997, Note_on_c, 0, 50, 39
1, 78003, Note_off_c, 0, 69, 56
1, 78017, Control_c, 0, 64, 118
1, 78032, Control_c, 0, 64, 114
1, 78047, Control_c, 0, 64, 110
1, 78062, Control_c, 0, 64, 106
1, 78077, Control_c, 0, 64, 102
1, 78092, Control_c, 0, 64, 96
1, 78106, Control_c, 0, 64, 88
1, 78121, Control_c, 0, 64, 78
1, 78136, Control_c, 0, 64, 67
1, 78151, Control_c, 0, 64, 53
1, 78173, Control_c, 0, 64, 0
1, 78205, Note_on_c, 0, 74, 51
1, 78336, Control_c, 0, 64, 57
1, 78351, Control_c, 0, 64, 65
1, 78365, Note_off_c, 0, 74, 60
1, 78365, Control_c, 0, 64, 69
1, 78369, Note_on_c, 0, 73, 58
1, 78380, Control_c, 0, 64, 72
1, 78395, Control_c, 0, 64, 75
1, 78410, Control_c, 0, 64, 78
1, 78425, Control_c, 0, 64, 80
1, 78439, Control_c, 0, 64, 81
1, 78454, Control_c, 0, 64, 83
1, 78460, Note_off_c, 0, 73, 60
1, 78469, Control_c, 0, 64, 83
1, 78482, Note_on_c, 0, 74, 59
1, 78602, Control_c, 0, 67, 127
1, 78608, Note_on_c, 0, 70, 60
1, 78617, Control_c, 0, 67, 125
1, 78625, Note_off_c, 0, 67, 37
1, 78633, Control_c, 0, 67, 122
1, 78646, Note_off_c, 0, 74, 54
1, 78648, Control_c, 0, 67, 120
1, 78662, Control_c, 0, 67, 118
1, 78677, Control_c, 0, 67, 115
1, 78692, Control_c, 0, 64, 83
1, 78692, Control_c, 0, 67, 111
1, 78707, Control_c, 0, 64, 82
1, 78707, Control_c, 0, 67, 108
1, 78722, Control_c, 0, 64, 82
1, 78722, Control_c, 0, 67, 106
1, 78727, Note_on_c, 0, 67, 68
1, 78728, Note_off_c, 0, 70, 61
1, 78736, Control_c, 0, 64, 81
1, 78736, Control_c, 0, 67, 105
1, 78751, Control_c, 0, 64, 80
1, 78751, Control_c, 0, 67, 105
1, 78766, Control_c, 0, 64, 79
1, 78781, Control_c, 0, 64, 77
1, 78781, Control_c, 0, 67, 104
1, 78796, Control_c, 0, 64, 76
1, 78796, Control_c, 0, 67, 104
1, 78810, Control_c, 0, 64, 74
1, 78810, Control_c, 0, 67, 103
1, 78825, Control_c, 0, 64, 72
1, 78825, Control_c, 0, 67, 103
1, 78840, Control_c, 0, 64, 71
1, 78841, Note_off_c, 0, 67, 62
1, 78849, Note_on_c, 0, 65, 65
1, 78855, Control_c, 0, 64, 69
1, 78870, Control_c, 0, 64, 68
1, 78885, Control_c, 0, 64, 67
1, 78900, Control_c, 0, 64, 66
1, 78922, Control_c, 0, 64, 65
1, 78936, Control_c, 0, 64, 65
1, 78962, Note_on_c, 0, 63, 67
1, 78966, Control_c, 0, 64, 64
1, 78981, Control_c, 0, 64, 63
1, 78995, Note_off_c, 0, 65, 59
1, 78995, Control_c, 0, 64, 62
1, 79010, Control_c, 0, 64, 57
1, 79025, Control_c, 0, 64, 41
1, 79040, Control_c, 0, 64, 0
1, 79097, Note_on_c, 0, 62, 63
1, 79141, Note_off_c, 0, 63, 57
1, 79203, Control_c, 0, 67, 102
1, 79214, Note_on_c, 0, 67, 61
1, 79233, Control_c, 0, 67, 102
1, 79248, Control_c, 0, 67, 101
1, 79262, Control_c, 0, 67, 101
1, 79277, Control_c, 0, 64, 42
1, 79277, Control_c, 0, 67, 100
1, 79292, Control_c, 0, 64, 60
1, 79292, Control_c, 0, 67, 96
1, 79307, Control_c, 0, 64, 65
1, 79307, Control_c, 0, 67, 93
1, 79322, Control_c, 0, 64, 67
1, 79322, Control_c, 0, 67, 90
1, 79329, Note_on_c, 0, 66, 65
1, 79336, Control_c, 0, 64, 69
1, 79336, Control_c, 0, 67, 88
1, 79340, Note_off_c, 0, 67, 56
1, 79351, Control_c, 0, 64, 71
1, 79351, Control_c, 0, 67, 86
1, 79366, Control_c, 0, 64, 72
1, 79366, Control_c, 0, 67, 85
1, 79381, Control_c, 0, 64, 72
1, 79381, Control_c, 0, 67, 83
1, 79395, Control_c, 0, 67, 82
1, 79410, Control_c, 0, 67, 80
1, 79425, Control_c, 0, 67, 77
1, 79430, Note_off_c, 0, 62, 58
1, 79441, Control_c, 0, 67, 75
1, 79447, Note_on_c, 0, 67, 71
1, 79448, Note_off_c, 0, 58, 57
1, 79456, Control_c, 0, 67, 72
1, 79471, Control_c, 0, 64, 72
1, 79471, Control_c, 0, 67, 70
1, 79485, Control_c, 0, 67, 68
1, 79500, Control_c, 0, 64, 71
1, 79500, Control_c, 0, 67, 66
1, 79515, Control_c, 0, 64, 71
1, 79515, Control_c, 0, 67, 65
1, 79528, Note_off_c, 0, 66, 39
1, 79530, Control_c, 0, 64, 70
1, 79530, Control_c, 0, 67, 63
1, 79545, Control_c, 0, 64, 70
1, 79545, Control_c, 0, 67, 62
1, 79559, Control_c, 0, 64, 69
1, 79559, Control_c, 0, 67, 60
1, 79572, Note_on_c, 0, 62, 67
1, 79574, Control_c, 0, 64, 68
1, 79574, Control_c, 0, 67, 58
1, 79589, Control_c, 0, 64, 67
1, 79589, Control_c, 0, 67, 56
1, 79596, Note_off_c, 0, 67, 54
1, 79603, Control_c, 0, 64, 67
1, 79603, Control_c, 0, 67, 54
1, 79618, Control_c, 0, 67, 52
1, 79625, Note_off_c, 0, 43, 38
1, 79633, Control_c, 0, 67, 51
1, 79648, Control_c, 0, 64, 67
1, 79648, Control_c, 0, 67, 50
1, 79671, Control_c, 0, 67, 48
1, 79685, Control_c, 0, 67, 47
1, 79693, Note_on_c, 0, 60, 67
1, 79695, Note_off_c, 0, 50, 44
1, 79698, Note_off_c, 0, 62, 62
1, 79700, Control_c, 0, 67, 45
1, 79715, Control_c, 0, 67, 44
1, 79730, Control_c, 0, 67, 41
1, 79745, Control_c, 0, 67, 40
1, 79759, Control_c, 0, 64, 67
1, 79759, Control_c, 0, 67, 39
1, 79774, Control_c, 0, 67, 38
1, 79789, Control_c, 0, 67, 38
1, 79804, Control_c, 0, 67, 37
1, 79814, Note_on_c, 0, 58, 69
1, 79833, Control_c, 0, 64, 66
1, 79833, Control_c, 0, 67, 37
1, 79848, Control_c, 0, 67, 36
1, 79856, Note_off_c, 0, 60, 60
1, 79863, Control_c, 0, 67, 36
1, 79892, Control_c, 0, 64, 66
1, 79892, Control_c, 0, 67, 35
1, 79907, Control_c, 0, 64, 64
1, 79922, Control_c, 0, 64, 62
1, 79930, Note_on_c, 0, 57, 70
1, 79937, Control_c, 0, 64, 58
1, 79937, Control_c, 0, 67, 35
1, 79952, Control_c, 0, 64, 47
1, 79967, Control_c, 0, 64, 27
1, 79967, Control_c, 0, 67, 34
1, 79982, Control_c, 0, 64, 0
1, 79982, Control_c, 0, 67, 33
1, 79997, Control_c, 0, 67, 32
1, 80011, Control_c, 0, 67, 30
1, 80016, Note_off_c, 0, 58, 37
1, 80026, Control_c, 0, 67, 28
1, 80041, Control_c, 0, 67, 27
1, 80056, Control_c, 0, 67, 24
1, 80068, Note_on_c, 0, 55, 65
1, 80071, Control_c, 0, 67, 21
1, 80085, Control_c, 0, 67, 17
1, 80100, Control_c, 0, 67, 14
1, 80115, Control_c, 0, 67, 10
1, 80129, Control_c, 0, 67, 0
1, 80135, Note_off_c, 0, 57, 56
1, 80185, Note_on_c, 0, 62, 69
1, 80234, Control_c, 0, 64, 38
1, 80249, Control_c, 0, 64, 58
1, 80264, Control_c, 0, 64, 63
1, 80279, Control_c, 0, 64, 64
1, 80308, Note_on_c, 0, 61, 70
1, 80308, Control_c, 0, 64, 65
1, 80319, Note_off_c, 0, 62, 58
1, 80323, Control_c, 0, 64, 65
1, 80397, Control_c, 0, 64, 66
1, 80432, Note_on_c, 0, 62, 74
1, 80438, Note_off_c, 0, 61, 62
1, 80449, Control_c, 0, 64, 65
1, 80508, Control_c, 0, 64, 65
1, 80551, Note_on_c, 0, 58, 74
1, 80560, Note_off_c, 0, 55, 50
1, 80602, Note_off_c, 0, 62, 59
1, 80662, Note_on_c, 0, 55, 78
1, 80694, Note_off_c, 0, 58, 63
1, 80781, Note_on_c, 0, 53, 76
1, 80788, Note_off_c, 0, 55, 64
1, 80894, Note_on_c, 0, 51, 75
1, 80929, Note_off_c, 0, 53, 63
1, 80952, Control_c, 0, 64, 64
1, 80967, Control_c, 0, 64, 64
1, 80982, Control_c, 0, 64, 63
1, 80997, Control_c, 0, 64, 62
1, 81012, Control_c, 0, 64, 61
1, 81016, Note_on_c, 0, 50, 73
1, 81028, Control_c, 0, 64, 60
1, 81043, Control_c, 0, 64, 58
1, 81057, Control_c, 0, 64, 56
1, 81071, Note_off_c, 0, 51, 59
1, 81072, Control_c, 0, 64, 54
1, 81087, Control_c, 0, 64, 54
1, 81131, Control_c, 0, 64, 53
1, 81135, Note_on_c, 0, 55, 73
1, 81146, Control_c, 0, 64, 52
1, 81168, Control_c, 0, 64, 51
1, 81171, Note_off_c, 0, 50, 62
1, 81183, Control_c, 0, 64, 50
1, 81264, Note_on_c, 0, 50, 77
1, 81281, Note_off_c, 0, 55, 63
1, 81287, Control_c, 0, 64, 51
1, 81330, Control_c, 0, 64, 51
1, 81374, Control_c, 0, 64, 52
1, 81375, Note_on_c, 0, 48, 77
1, 81379, Note_off_c, 0, 50, 66
1, 81434, Control_c, 0, 64, 51
1, 81448, Control_c, 0, 64, 51
1, 81478, Control_c, 0, 64, 50
1, 81493, Control_c, 0, 64, 49
1, 81493, Note_on_c, 0, 46, 77
1, 81508, Control_c, 0, 64, 47
1, 81523, Control_c, 0, 64, 45
1, 81530, Note_off_c, 0, 48, 62
1, 81537, Control_c, 0, 64, 43
1, 81552, Control_c, 0, 64, 42
1, 81567, Control_c, 0, 64, 41
1, 81581, Control_c, 0, 64, 39
1, 81596, Control_c, 0, 64, 38
1, 81600, Note_on_c, 0, 45, 78
1, 81611, Control_c, 0, 64, 38
1, 81641, Control_c, 0, 64, 38
1, 81654, Note_off_c, 0, 46, 58
1, 81655, Control_c, 0, 64, 42
1, 81670, Control_c, 0, 64, 45
1, 81685, Control_c, 0, 64, 49
1, 81700, Control_c, 0, 64, 54
1, 81711, Note_on_c, 0, 43, 76
1, 81715, Control_c, 0, 64, 59
1, 81729, Control_c, 0, 64, 62
1, 81744, Control_c, 0, 64, 65
1, 81757, Note_off_c, 0, 45, 66
1, 81759, Control_c, 0, 64, 68
1, 81773, Control_c, 0, 64, 72
1, 81788, Control_c, 0, 64, 77
1, 81803, Control_c, 0, 64, 81
1, 81818, Control_c, 0, 64, 82
1, 81830, Note_on_c, 0, 41, 83
1, 81849, Control_c, 0, 64, 83
1, 81864, Control_c, 0, 64, 83
1, 81866, Note_off_c, 0, 43, 62
1, 81878, Control_c, 0, 64, 85
1, 81893, Control_c, 0, 64, 87
1, 81916, Control_c, 0, 64, 89
1, 81931, Control_c, 0, 64, 91
1, 81946, Control_c, 0, 64, 94
1, 81960, Control_c, 0, 64, 97
1, 81975, Control_c, 0, 64, 102
1, 81990, Control_c, 0, 64, 107
1, 82004, Control_c, 0, 64, 110
1, 82019, Control_c, 0, 64, 112
1, 82034, Control_c, 0, 64, 113
1, 82050, Control_c, 0, 64, 115
1, 82065, Control_c, 0, 64, 116
1, 82097, Note_on_c, 0, 67, 90
1, 82113, Note_on_c, 0, 39, 74
1, 82114, Note_on_c, 0, 55, 74
1, 82124, Control_c, 0, 64, 115
1, 82139, Control_c, 0, 64, 104
1, 82154, Control_c, 0, 64, 92
1, 82161, Note_off_c, 0, 41, 59
1, 82168, Control_c, 0, 64, 77
1, 82183, Control_c, 0, 64, 64
1, 82198, Control_c, 0, 64, 0
1, 82301, Control_c, 0, 64, 45
1, 82316, Control_c, 0, 64, 73
1, 82331, Control_c, 0, 64, 96
1, 82346, Control_c, 0, 64, 127
1, 82352, Note_on_c, 0, 59, 64
1, 82410, Note_off_c, 0, 55, 58
1, 82423, Note_off_c, 0, 39, 59
1, 82449, Note_off_c, 0, 67, 54
1, 82488, Note_on_c, 0, 60, 80
1, 82528, Note_off_c, 0, 59, 57
1, 82584, Note_on_c, 0, 67, 80
1, 82594, Note_off_c, 0, 60, 67
1, 82643, Note_off_c, 0, 67, 66
1, 82721, Note_on_c, 0, 67, 93
1, 82727, Note_on_c, 0, 55, 79
1, 82855, Note_on_c, 0, 71, 76
1, 82942, Note_off_c, 0, 67, 60
1, 82953, Note_on_c, 0, 72, 79
1, 82994, Note_off_c, 0, 55, 64
1, 83061, Note_on_c, 0, 79, 75
1, 83073, Note_off_c, 0, 72, 62
1, 83076, Note_on_c, 0, 75, 70
1, 83089, Note_off_c, 0, 79, 59
1, 83094, Note_off_c, 0, 71, 60
1, 83099, Note_off_c, 0, 75, 70
1, 83238, Note_on_c, 0, 55, 63
1, 83249, Note_on_c, 0, 67, 87
1, 83380, Note_on_c, 0, 59, 68
1, 83473, Control_c, 0, 64, 97
1, 83488, Control_c, 0, 64, 68
1, 83503, Control_c, 0, 64, 0
1, 83506, Note_on_c, 0, 60, 66
1, 83514, Note_on_c, 0, 48, 61
1, 83520, Note_on_c, 0, 44, 55
1, 83535, Note_off_c, 0, 59, 54
1, 83562, Control_c, 0, 64, 17
1, 83577, Control_c, 0, 64, 65
1, 83592, Control_c, 0, 64, 78
1, 83607, Control_c, 0, 64, 98
1, 83622, Control_c, 0, 64, 127
1, 83624, Note_on_c, 0, 63, 67
1, 83626, Note_off_c, 0, 60, 63
1, 83630, Note_off_c, 0, 55, 54
1, 83659, Note_off_c, 0, 63, 63
1, 83662, Note_off_c, 0, 67, 62
1, 83687, Note_off_c, 0, 48, 62
1, 83720, Note_off_c, 0, 44, 62
1, 83752, Note_on_c, 0, 67, 76
1, 83860, Note_on_c, 0, 72, 68
1, 83861, Note_on_c, 0, 79, 71
1, 83867, Note_off_c, 0, 67, 60
1, 83932, Note_off_c, 0, 79, 59
1, 83960, Note_off_c, 0, 72, 63
1, 83984, Note_on_c, 0, 53, 63
1, 83986, Note_on_c, 0, 65, 80
1, 84096, Note_on_c, 0, 51, 64
1, 84096, Note_off_c, 0, 53, 60
1, 84107, Note_on_c, 0, 63, 85
1, 84116, Note_off_c, 0, 65, 60
1, 84123, Note_off_c, 0, 51, 64
1, 84343, Note_on_c, 0, 62, 84
1, 84371, Note_on_c, 0, 53, 63
1, 84376, Note_off_c, 0, 63, 59
1, 84382, Note_on_c, 0, 50, 47
1, 84578, Control_c, 0, 64, 94
1, 84592, Note_on_c, 0, 56, 67
1, 84593, Control_c, 0, 64, 71
1, 84607, Control_c, 0, 64, 0
1, 84681, Control_c, 0, 64, 28
1, 84696, Control_c, 0, 64, 68
1, 84711, Control_c, 0, 64, 80
1, 84725, Control_c, 0, 64, 98
1, 84740, Control_c, 0, 64, 127
1, 84745, Note_on_c, 0, 60, 66
1, 84853, Note_on_c, 0, 68, 67
1, 84859, Note_on_c, 0, 65, 58
1, 84895, Note_off_c, 0, 68, 52
1, 84897, Note_off_c, 0, 65, 60
1, 84943, Note_off_c, 0, 62, 56
1, 84987, Note_on_c, 0, 68, 72
1, 84995, Note_off_c, 0, 60, 31
1, 85000, Note_on_c, 0, 65, 65
1, 85000, Note_off_c, 0, 56, 61
1, 85065, Note_off_c, 0, 53, 51
1, 85094, Note_on_c, 0, 60, 67
1, 85097, Note_off_c, 0, 50, 46
1, 85213, Note_on_c, 0, 56, 72
1, 85221, Note_off_c, 0, 60, 63
1, 85330, Note_on_c, 0, 60, 71
1, 85361, Note_off_c, 0, 68, 63
1, 85381, Note_off_c, 0, 65, 62
1, 85419, Note_off_c, 0, 60, 61
1, 85455, Note_off_c, 0, 56, 62
1, 85479, Note_on_c, 0, 44, 79
1, 85488, Note_on_c, 0, 32, 68
1, 85693, Note_off_c, 0, 44, 58
1, 85695, Note_on_c, 0, 50, 58
1, 85809, Note_on_c, 0, 53, 58
1, 85913, Note_on_c, 0, 62, 57
1, 85922, Note_on_c, 0, 60, 50
1, 86028, Note_off_c, 0, 50, 43
1, 86054, Note_on_c, 0, 43, 77
1, 86057, Note_on_c, 0, 31, 75
1, 86105, Control_c, 0, 64, 91
1, 86111, Note_off_c, 0, 32, 54
1, 86119, Control_c, 0, 64, 66
1, 86134, Control_c, 0, 64, 0
1, 86149, Control_c, 0, 64, 36
1, 86164, Control_c, 0, 64, 63
1, 86167, Note_on_c, 0, 50, 70
1, 86179, Note_off_c, 0, 53, 42
1, 86179, Control_c, 0, 64, 70
1, 86194, Control_c, 0, 64, 81
1, 86209, Control_c, 0, 64, 101
1, 86218, Note_off_c, 0, 60, 38
1, 86224, Control_c, 0, 64, 127
1, 86233, Note_off_c, 0, 62, 52
1, 86253, Note_off_c, 0, 31, 61
1, 86280, Note_on_c, 0, 53, 78
1, 86295, Note_off_c, 0, 43, 62
1, 86324, Note_off_c, 0, 50, 64
1, 86405, Note_on_c, 0, 59, 80
1, 86410, Note_on_c, 0, 62, 80
1, 86418, Note_off_c, 0, 53, 67
1, 86453, Note_off_c, 0, 59, 63
1, 86459, Note_off_c, 0, 62, 62
1, 86673, Note_on_c, 0, 67, 91
1, 86677, Note_on_c, 0, 55, 89
1, 86701, Note_on_c, 0, 51, 80
1, 86702, Note_on_c, 0, 39, 78
1, 86765, Control_c, 0, 64, 115
1, 86780, Control_c, 0, 64, 78
1, 86795, Control_c, 0, 64, 0
1, 86854, Control_c, 0, 64, 54
1, 86869, Control_c, 0, 64, 69
1, 86883, Control_c, 0, 64, 91
1, 86898, Control_c, 0, 64, 127
1, 86953, Note_on_c, 0, 59, 71
1, 87017, Note_off_c, 0, 67, 52
1, 87032, Note_off_c, 0, 39, 58
1, 87035, Note_off_c, 0, 55, 61
1, 87058, Note_off_c, 0, 51, 63
1, 87088, Note_on_c, 0, 60, 78
1, 87151, Note_off_c, 0, 59, 56
1, 87210, Note_on_c, 0, 67, 81
1, 87230, Note_off_c, 0, 60, 67
1, 87288, Note_off_c, 0, 67, 66
1, 87348, Note_on_c, 0, 55, 94
1, 87350, Note_on_c, 0, 67, 94
1, 87487, Note_on_c, 0, 71, 79
1, 87562, Note_off_c, 0, 67, 63
1, 87603, Note_on_c, 0, 72, 67
1, 87681, Note_off_c, 0, 55, 65
1, 87710, Note_on_c, 0, 79, 48
1, 87714, Note_on_c, 0, 75, 69
1, 87730, Note_off_c, 0, 72, 62
1, 87735, Note_off_c, 0, 79, 57
1, 87735, Note_off_c, 0, 71, 51
1, 87740, Note_off_c, 0, 75, 66
1, 87875, Note_on_c, 0, 67, 90
1, 87877, Note_on_c, 0, 55, 67
1, 88015, Note_on_c, 0, 59, 71
1, 88129, Control_c, 0, 64, 101
1, 88144, Control_c, 0, 64, 70
1, 88144, Note_on_c, 0, 48, 63
1, 88146, Note_on_c, 0, 60, 65
1, 88155, Note_on_c, 0, 44, 58
1, 88158, Control_c, 0, 64, 0
1, 88197, Note_off_c, 0, 59, 56
1, 88219, Control_c, 0, 64, 61
1, 88234, Control_c, 0, 64, 71
1, 88248, Control_c, 0, 64, 83
1, 88261, Note_on_c, 0, 63, 72
1, 88263, Control_c, 0, 64, 108
1, 88278, Control_c, 0, 64, 127
1, 88285, Note_off_c, 0, 60, 64
1, 88319, Note_off_c, 0, 55, 56
1, 88326, Note_off_c, 0, 67, 62
1, 88327, Note_off_c, 0, 63, 63
1, 88378, Note_off_c, 0, 48, 63
1, 88415, Note_off_c, 0, 44, 60
1, 88420, Note_on_c, 0, 67, 74
1, 88546, Note_on_c, 0, 79, 65
1, 88547, Note_on_c, 0, 72, 66
1, 88565, Note_off_c, 0, 67, 56
1, 88633, Note_off_c, 0, 79, 58
1, 88697, Note_off_c, 0, 72, 63
1, 88715, Note_on_c, 0, 65, 77
1, 88718, Note_on_c, 0, 53, 59
1, 88827, Note_off_c, 0, 53, 63
1, 88833, Note_on_c, 0, 51, 61
1, 88849, Note_on_c, 0, 63, 79
1, 88849, Note_off_c, 0, 65, 63
1, 88859, Note_off_c, 0, 51, 63
1, 89054, Note_on_c, 0, 62, 79
1, 89086, Note_on_c, 0, 53, 52
1, 89086, Note_off_c, 0, 63, 58
1, 89101, Note_on_c, 0, 50, 36
1, 89235, Control_c, 0, 64, 113
1, 89249, Control_c, 0, 64, 84
1, 89264, Control_c, 0, 64, 62
1, 89279, Control_c, 0, 64, 0
1, 89292, Note_on_c, 0, 56, 68
1, 89353, Control_c, 0, 64, 61
1, 89368, Control_c, 0, 64, 73
1, 89383, Control_c, 0, 64, 91
1, 89404, Control_c, 0, 64, 127
1, 89428, Note_on_c, 0, 60, 66
1, 89542, Note_on_c, 0, 68, 67
1, 89553, Note_on_c, 0, 65, 52
1, 89586, Note_off_c, 0, 65, 62
1, 89594, Note_off_c, 0, 68, 51
1, 89664, Note_on_c, 0, 68, 66
1, 89670, Note_on_c, 0, 65, 61
1, 89684, Note_off_c, 0, 62, 56
1, 89720, Note_off_c, 0, 56, 56
1, 89726, Note_off_c, 0, 60, 45
1, 89804, Note_on_c, 0, 60, 64
1, 89855, Note_off_c, 0, 53, 63
1, 89876, Note_off_c, 0, 50, 64
1, 89914, Note_on_c, 0, 56, 65
1, 89922, Note_off_c, 0, 60, 61
1, 90036, Note_on_c, 0, 60, 61
1, 90056, Note_off_c, 0, 68, 62
1, 90075, Note_off_c, 0, 65, 60
1, 90107, Note_off_c, 0, 60, 60
1, 90144, Note_off_c, 0, 56, 62
1, 90150, Note_on_c, 0, 44, 79
1, 90163, Note_on_c, 0, 32, 70
1, 90316, Note_on_c, 0, 50, 64
1, 90414, Note_on_c, 0, 53, 64
1, 90482, Note_off_c, 0, 44, 49
1, 90528, Note_on_c, 0, 60, 58
1, 90529, Note_on_c, 0, 62, 66
1, 90630, Note_off_c, 0, 50, 45
1, 90679, Note_on_c, 0, 43, 86
1, 90687, Note_on_c, 0, 31, 74
1, 90725, Note_off_c, 0, 32, 60
1, 90746, Control_c, 0, 64, 103
1, 90761, Control_c, 0, 64, 72
1, 90776, Control_c, 0, 64, 0
1, 90811, Note_on_c, 0, 50, 72
1, 90820, Control_c, 0, 64, 57
1, 90835, Control_c, 0, 64, 68
1, 90849, Note_off_c, 0, 60, 39
1, 90850, Control_c, 0, 64, 79
1, 90851, Note_off_c, 0, 53, 49
1, 90865, Control_c, 0, 64, 101
1, 90874, Note_off_c, 0, 62, 31
1, 90880, Control_c, 0, 64, 127
1, 90956, Note_on_c, 0, 53, 85
1, 91005, Note_off_c, 0, 50, 60
1, 91011, Note_off_c, 0, 31, 60
1, 91047, Note_off_c, 0, 43, 61
1, 91080, Note_on_c, 0, 62, 81
1, 91091, Note_on_c, 0, 59, 76
1, 91133, Note_off_c, 0, 53, 59
1, 91186, Note_off_c, 0, 62, 57
1, 91353, Note_on_c, 0, 48, 78
1, 91354, Note_on_c, 0, 60, 84
1, 91381, Note_off_c, 0, 59, 60
1, 91465, Control_c, 0, 64, 109
1, 91480, Control_c, 0, 64, 77
1, 91495, Control_c, 0, 64, 0
1, 91545, Note_on_c, 0, 51, 61
1, 91584, Control_c, 0, 64, 61
1, 91598, Control_c, 0, 64, 72
1, 91613, Control_c, 0, 64, 86
1, 91628, Control_c, 0, 64, 117
1, 91651, Control_c, 0, 64, 127
1, 91680, Note_on_c, 0, 43, 80
1, 91694, Note_on_c, 0, 36, 67
1, 91695, Note_on_c, 0, 39, 73
1, 91696, Note_off_c, 0, 51, 57
1, 91710, Note_off_c, 0, 48, 64
1, 91732, Note_off_c, 0, 43, 64
1, 91733, Note_on_c, 0, 55, 53
1, 91740, Note_off_c, 0, 36, 61
1, 91756, Note_off_c, 0, 39, 59
1, 91844, Note_on_c, 0, 51, 61
1, 91865, Note_off_c, 0, 55, 62
1, 91873, Note_off_c, 0, 51, 61
1, 91898, Note_off_c, 0, 60, 66
1, 92048, Note_on_c, 0, 60, 90
1, 92063, Note_on_c, 0, 48, 77
1, 92237, Note_on_c, 0, 63, 65
1, 92257, Note_off_c, 0, 48, 57
1, 92296, Note_off_c, 0, 60, 60
1, 92394, Note_on_c, 0, 62, 87
1, 92405, Note_off_c, 0, 63, 52
1, 92406, Note_on_c, 0, 72, 72
1, 92408, Note_on_c, 0, 50, 79
1, 92425, Note_on_c, 0, 67, 60
1, 92499, Note_off_c, 0, 50, 63
1, 92537, Note_off_c, 0, 67, 56
1, 92543, Note_on_c, 0, 63, 70
1, 92546, Note_off_c, 0, 62, 60
1, 92583, Note_off_c, 0, 63, 57
1, 92615, Note_off_c, 0, 72, 62
1, 92663, Note_on_c, 0, 65, 92
1, 92674, Note_on_c, 0, 53, 83
1, 92682, Control_c, 0, 64, 99
1, 92696, Control_c, 0, 64, 70
1, 92711, Control_c, 0, 64, 0
1, 92740, Control_c, 0, 64, 56
1, 92755, Control_c, 0, 64, 68
1, 92770, Control_c, 0, 64, 80
1, 92785, Control_c, 0, 64, 111
1, 92792, Note_on_c, 0, 67, 71
1, 92797, Note_off_c, 0, 65, 61
1, 92800, Control_c, 0, 64, 127
1, 92859, Note_off_c, 0, 53, 64
1, 92876, Note_off_c, 0, 67, 54
1, 92912, Note_on_c, 0, 63, 85
1, 92915, Note_on_c, 0, 51, 83
1, 92928, Note_on_c, 0, 75, 72
1, 92930, Note_on_c, 0, 72, 69
1, 93043, Note_on_c, 0, 67, 66
1, 93093, Note_off_c, 0, 63, 59
1, 93114, Note_off_c, 0, 72, 33
1, 93124, Note_off_c, 0, 75, 51
1, 93128, Note_off_c, 0, 51, 61
1, 93169, Note_on_c, 0, 62, 86
1, 93179, Note_on_c, 0, 50, 77
1, 93193, Control_c, 0, 64, 78
1, 93208, Control_c, 0, 64, 33
1, 93223, Control_c, 0, 64, 0
1, 93238, Control_c, 0, 64, 55
1, 93253, Control_c, 0, 64, 69
1, 93268, Control_c, 0, 64, 78
1, 93268, Poly_aftertouch_c, 0, 51, 0
1, 93280, Note_on_c, 0, 72, 76
1, 93282, Control_c, 0, 64, 93
1, 93297, Control_c, 0, 64, 127
1, 93300, Note_off_c, 0, 62, 59
1, 93389, Note_on_c, 0, 60, 95
1, 93405, Note_on_c, 0, 48, 77
1, 93408, Note_on_c, 0, 79, 71
1, 93414, Note_off_c, 0, 50, 65
1, 93417, Note_on_c, 0, 75, 69
1, 93426, Note_off_c, 0, 72, 56
1, 93501, Note_off_c, 0, 67, 37
1, 93516, Note_off_c, 0, 60, 64
1, 93532, Note_on_c, 0, 72, 66
1, 93557, Note_off_c, 0, 72, 68
1, 93605, Note_off_c, 0, 79, 61
1, 93608, Note_off_c, 0, 75, 63
1, 93696, Note_on_c, 0, 63, 87
1, 93700, Note_on_c, 0, 51, 79
1, 93770, Control_c, 0, 64, 83
1, 93785, Control_c, 0, 64, 50
1, 93799, Note_off_c, 0, 48, 45
1, 93800, Control_c, 0, 64, 0
1, 93848, Note_on_c, 0, 75, 75
1, 93897, Control_c, 0, 64, 55
1, 93912, Control_c, 0, 64, 69
1, 93927, Control_c, 0, 64, 80
1, 93941, Control_c, 0, 64, 95
1, 93956, Control_c, 0, 64, 127
1, 93960, Note_off_c, 0, 63, 62
1, 93968, Note_on_c, 0, 82, 96
1, 93986, Note_on_c, 0, 79, 68
1, 93992, Note_off_c, 0, 75, 63
1, 93996, Note_off_c, 0, 51, 62
1, 94102, Note_on_c, 0, 75, 78
1, 94105, Note_off_c, 0, 82, 63
1, 94245, Note_off_c, 0, 75, 58
1, 94274, Note_on_c, 0, 87, 89
1, 94293, Note_on_c, 0, 82, 77
1, 94299, Note_on_c, 0, 51, 56
1, 94304, Note_on_c, 0, 55, 53
1, 94308, Note_on_c, 0, 43, 48
1, 94308, Note_on_c, 0, 46, 52
1, 94355, Note_off_c, 0, 79, 52
1, 94421, Note_on_c, 0, 75, 68
1, 94428, Note_off_c, 0, 82, 60
1, 94437, Note_off_c, 0, 87, 62
1, 94531, Note_on_c, 0, 82, 82
1, 94537, Note_on_c, 0, 79, 74
1, 94560, Note_off_c, 0, 75, 32
1, 94621, Note_off_c, 0, 82, 60
1, 94622, Note_off_c, 0, 79, 59
1, 94652, Note_on_c, 0, 75, 63
1, 94677, Note_off_c, 0, 75, 68
1, 94779, Note_on_c, 0, 79, 64
1, 94794, Note_on_c, 0, 75, 58
1, 94809, Control_c, 0, 67, 8
1, 94824, Control_c, 0, 67, 9
1, 94839, Control_c, 0, 67, 11
1, 94854, Control_c, 0, 67, 13
1, 94868, Control_c, 0, 67, 16
1, 94874, Note_off_c, 0, 75, 49
1, 94883, Control_c, 0, 67, 18
1, 94888, Note_on_c, 0, 70, 60
1, 94898, Control_c, 0, 67, 21
1, 94900, Note_off_c, 0, 79, 31
1, 94913, Control_c, 0, 67, 23
1, 94920, Note_off_c, 0, 70, 63
1, 94928, Control_c, 0, 67, 24
1, 94942, Control_c, 0, 67, 25
1, 94943, Note_off_c, 0, 46, 57
1, 94953, Note_off_c, 0, 43, 61
1, 94957, Control_c, 0, 67, 27
1, 94972, Control_c, 0, 67, 28
1, 94975, Note_off_c, 0, 51, 61
1, 94987, Control_c, 0, 67, 28
1, 95002, Control_c, 0, 67, 29
1, 95006, Note_on_c, 0, 75, 62
1, 95016, Control_c, 0, 67, 29
1, 95019, Note_on_c, 0, 70, 54
1, 95053, Note_off_c, 0, 55, 61
1, 95069, Note_off_c, 0, 75, 61
1, 95076, Control_c, 0, 67, 30
1, 95093, Note_off_c, 0, 70, 61
1, 95121, Note_on_c, 0, 67, 60
1, 95134, Control_c, 0, 67, 30
1, 95150, Note_off_c, 0, 67, 64
1, 95179, Control_c, 0, 67, 30
1, 95223, Control_c, 0, 67, 29
1, 95283, Note_on_c, 0, 63, 81
1, 95283, Control_c, 0, 67, 29
1, 95299, Note_on_c, 0, 55, 61
1, 95319, Note_on_c, 0, 51, 49
1, 95372, Control_c, 0, 64, 110
1, 95394, Control_c, 0, 64, 84
1, 95410, Control_c, 0, 64, 69
1, 95425, Note_on_c, 0, 58, 65
1, 95425, Control_c, 0, 64, 62
1, 95439, Control_c, 0, 64, 61
1, 95454, Control_c, 0, 64, 63
1, 95469, Control_c, 0, 64, 65
1, 95484, Control_c, 0, 64, 69
1, 95499, Control_c, 0, 64, 75
1, 95513, Control_c, 0, 64, 85
1, 95527, Control_c, 0, 64, 98
1, 95542, Control_c, 0, 64, 113
1, 95557, Control_c, 0, 64, 127
1, 95558, Note_off_c, 0, 58, 52
1, 95564, Note_on_c, 0, 70, 60
1, 95572, Control_c, 0, 67, 29
1, 95576, Note_on_c, 0, 67, 50
1, 95587, Control_c, 0, 67, 30
1, 95602, Control_c, 0, 67, 30
1, 95617, Control_c, 0, 67, 31
1, 95631, Control_c, 0, 67, 32
1, 95646, Control_c, 0, 67, 35
1, 95661, Control_c, 0, 67, 39
1, 95670, Note_off_c, 0, 51, 37
1, 95671, Note_off_c, 0, 63, 59
1, 95676, Control_c, 0, 67, 42
1, 95690, Control_c, 0, 67, 44
1, 95705, Control_c, 0, 67, 45
1, 95712, Note_on_c, 0, 58, 30
1, 95720, Control_c, 0, 67, 45
1, 95729, Note_off_c, 0, 70, 37
1, 95735, Control_c, 0, 67, 46
1, 95779, Control_c, 0, 67, 45
1, 95784, Note_off_c, 0, 58, 41
1, 95794, Control_c, 0, 67, 45
1, 95809, Control_c, 0, 67, 44
1, 95824, Control_c, 0, 67, 44
1, 95838, Control_c, 0, 67, 43
1, 95861, Note_on_c, 0, 62, 75
1, 95871, Note_off_c, 0, 55, 63
1, 95882, Control_c, 0, 64, 102
1, 95882, Control_c, 0, 67, 43
1, 95888, Note_on_c, 0, 53, 55
1, 95894, Note_on_c, 0, 50, 52
1, 95897, Control_c, 0, 64, 80
1, 95912, Control_c, 0, 64, 59
1, 95927, Control_c, 0, 64, 0
1, 95986, Control_c, 0, 64, 44
1, 96001, Control_c, 0, 64, 65
1, 96016, Control_c, 0, 64, 71
1, 96026, Note_on_c, 0, 58, 60
1, 96031, Control_c, 0, 64, 79
1, 96046, Control_c, 0, 64, 88
1, 96046, Control_c, 0, 67, 43
1, 96061, Control_c, 0, 64, 96
1, 96076, Control_c, 0, 64, 104
1, 96090, Control_c, 0, 64, 113
1, 96105, Control_c, 0, 64, 127
1, 96120, Control_c, 0, 67, 44
1, 96126, Note_off_c, 0, 67, 40
1, 96142, Control_c, 0, 67, 44
1, 96153, Note_off_c, 0, 53, 62
1, 96157, Control_c, 0, 67, 45
1, 96159, Note_on_c, 0, 65, 52
1, 96169, Note_on_c, 0, 70, 51
1, 96180, Note_off_c, 0, 58, 37
1, 96186, Control_c, 0, 67, 45
1, 96194, Note_off_c, 0, 62, 48
1, 96198, Note_off_c, 0, 50, 61
1, 96201, Control_c, 0, 67, 46
1, 96217, Control_c, 0, 67, 46
1, 96232, Control_c, 0, 67, 47
1, 96247, Control_c, 0, 67, 47
1, 96261, Control_c, 0, 67, 48
1, 96273, Note_on_c, 0, 58, 60
1, 96276, Control_c, 0, 67, 51
1, 96291, Control_c, 0, 67, 51
1, 96305, Note_off_c, 0, 58, 62
1, 96306, Control_c, 0, 67, 52
1, 96320, Note_off_c, 0, 65, 60
1, 96365, Note_off_c, 0, 70, 61
1, 96401, Note_on_c, 0, 60, 69
1, 96410, Control_c, 0, 67, 52
1, 96422, Note_on_c, 0, 55, 55
1, 96424, Note_on_c, 0, 48, 51
1, 96429, Note_on_c, 0, 51, 50
1, 96439, Control_c, 0, 64, 103
1, 96454, Control_c, 0, 64, 81
1, 96454, Control_c, 0, 67, 53
1, 96469, Control_c, 0, 64, 66
1, 96484, Control_c, 0, 64, 31
1, 96499, Control_c, 0, 64, 21
1, 96513, Control_c, 0, 64, 42
1, 96528, Control_c, 0, 64, 58
1, 96543, Control_c, 0, 64, 65
1, 96547, Note_on_c, 0, 63, 56
1, 96558, Control_c, 0, 64, 71
1, 96573, Control_c, 0, 64, 78
1, 96587, Control_c, 0, 64, 91
1, 96602, Control_c, 0, 64, 103
1, 96617, Control_c, 0, 64, 118
1, 96632, Control_c, 0, 64, 127
1, 96632, Control_c, 0, 67, 53
1, 96642, Note_off_c, 0, 55, 63
1, 96642, Note_off_c, 0, 60, 62
1, 96647, Control_c, 0, 67, 54
1, 96661, Control_c, 0, 67, 54
1, 96662, Note_off_c, 0, 63, 55
1, 96673, Note_on_c, 0, 75, 52
1, 96676, Control_c, 0, 67, 55
1, 96681, Note_off_c, 0, 51, 62
1, 96686, Note_on_c, 0, 72, 43
1, 96691, Control_c, 0, 67, 57
1, 96696, Note_off_c, 0, 48, 63
1, 96705, Note_on_c, 0, 67, 30
1, 96705, Control_c, 0, 67, 58
1, 96720, Control_c, 0, 67, 59
1, 96735, Control_c, 0, 67, 60
1, 96750, Control_c, 0, 67, 61
1, 96765, Control_c, 0, 67, 62
1, 96779, Control_c, 0, 67, 63
1, 96794, Control_c, 0, 67, 64
1, 96808, Note_on_c, 0, 63, 55
1, 96809, Control_c, 0, 67, 64
1, 96824, Control_c, 0, 67, 65
1, 96831, Note_off_c, 0, 67, 40
1, 96839, Control_c, 0, 67, 65
1, 96841, Note_off_c, 0, 63, 64
1, 96851, Note_off_c, 0, 72, 60
1, 96896, Note_off_c, 0, 75, 61
1, 96950, Note_on_c, 0, 55, 56
1, 96963, Note_on_c, 0, 50, 48
1, 96973, Note_on_c, 0, 43, 42
1, 96973, Note_on_c, 0, 46, 49
1, 96994, Control_c, 0, 64, 116
1, 97010, Control_c, 0, 64, 89
1, 97025, Control_c, 0, 64, 71
1, 97040, Control_c, 0, 64, 36
1, 97055, Control_c, 0, 64, 0
1, 97100, Note_on_c, 0, 67, 57
1, 97143, Control_c, 0, 64, 61
1, 97158, Control_c, 0, 64, 71
1, 97173, Control_c, 0, 64, 81
1, 97188, Control_c, 0, 64, 93
1, 97202, Control_c, 0, 64, 107
1, 97214, Note_off_c, 0, 55, 62
1, 97214, Note_off_c, 0, 67, 51
1, 97217, Note_on_c, 0, 79, 67
1, 97217, Control_c, 0, 64, 127
1, 97217, Control_c, 0, 67, 66
1, 97226, Note_on_c, 0, 74, 62
1, 97228, Note_on_c, 0, 70, 54
1, 97240, Note_off_c, 0, 50, 64
1, 97247, Control_c, 0, 67, 66
1, 97250, Note_off_c, 0, 43, 52
1, 97262, Control_c, 0, 67, 67
1, 97277, Control_c, 0, 67, 67
1, 97281, Note_off_c, 0, 46, 59
1, 97281, Note_off_c, 0, 79, 60
1, 97292, Control_c, 0, 67, 69
1, 97302, Note_off_c, 0, 74, 61
1, 97307, Control_c, 0, 67, 72
1, 97322, Control_c, 0, 67, 75
1, 97326, Note_off_c, 0, 70, 63
1, 97336, Control_c, 0, 67, 77
1, 97339, Note_on_c, 0, 67, 59
1, 97351, Control_c, 0, 67, 80
1, 97366, Control_c, 0, 67, 82
1, 97367, Note_off_c, 0, 67, 64
1, 97381, Control_c, 0, 67, 84
1, 97396, Control_c, 0, 67, 86
1, 97410, Control_c, 0, 67, 88
1, 97425, Control_c, 0, 67, 89
1, 97440, Control_c, 0, 67, 90
1, 97454, Control_c, 0, 67, 90
1, 97469, Control_c, 0, 67, 91
1, 97568, Note_on_c, 0, 60, 62
1, 97584, Note_on_c, 0, 39, 50
1, 97588, Control_c, 0, 67, 90
1, 97617, Control_c, 0, 64, 97
1, 97640, Control_c, 0, 64, 78
1, 97654, Control_c, 0, 64, 63
1, 97669, Control_c, 0, 64, 0
1, 97728, Control_c, 0, 64, 46
1, 97743, Control_c, 0, 64, 62
1, 97750, Note_on_c, 0, 48, 46
1, 97758, Control_c, 0, 64, 66
1, 97774, Control_c, 0, 64, 71
1, 97774, Control_c, 0, 67, 91
1, 97789, Control_c, 0, 64, 77
1, 97805, Control_c, 0, 64, 82
1, 97805, Control_c, 0, 67, 91
1, 97820, Control_c, 0, 64, 87
1, 97820, Control_c, 0, 67, 92
1, 97834, Control_c, 0, 64, 89
1, 97834, Control_c, 0, 67, 92
1, 97849, Control_c, 0, 64, 91
1, 97864, Control_c, 0, 64, 92
1, 97864, Control_c, 0, 67, 93
1, 97879, Control_c, 0, 64, 93
1, 97879, Control_c, 0, 67, 94
1, 97894, Control_c, 0, 64, 94
1, 97894, Control_c, 0, 67, 96
1, 97908, Control_c, 0, 64, 95
1, 97908, Control_c, 0, 67, 97
1, 97913, Note_off_c, 0, 48, 41
1, 97923, Control_c, 0, 67, 98
1, 97938, Control_c, 0, 67, 100
1, 97940, Note_on_c, 0, 51, 42
1, 97953, Control_c, 0, 67, 102
1, 97956, Note_on_c, 0, 55, 47
1, 97967, Control_c, 0, 67, 104
1, 97982, Control_c, 0, 67, 107
1, 97997, Control_c, 0, 67, 110
1, 98001, Note_off_c, 0, 51, 57
1, 98011, Note_off_c, 0, 55, 60
1, 98012, Control_c, 0, 67, 113
1, 98027, Control_c, 0, 67, 116
1, 98041, Control_c, 0, 67, 119
1, 98056, Control_c, 0, 67, 123
1, 98071, Control_c, 0, 67, 126
1, 98085, Control_c, 0, 67, 127
1, 98171, Note_off_c, 0, 60, 59
1, 98210, Note_on_c, 0, 62, 50
1, 98279, Note_off_c, 0, 62, 54
1, 98282, Note_on_c, 0, 60, 61
1, 98352, Control_c, 0, 64, 94
1, 98389, Control_c, 0, 64, 94
1, 98404, Control_c, 0, 64, 93
1, 98419, Control_c, 0, 64, 93
1, 98434, Control_c, 0, 64, 92
1, 98449, Control_c, 0, 64, 90
1, 98452, Note_on_c, 0, 34, 45
1, 98455, Note_on_c, 0, 55, 55
1, 98460, Note_off_c, 0, 60, 56
1, 98463, Control_c, 0, 64, 86
1, 98478, Control_c, 0, 64, 78
1, 98481, Note_off_c, 0, 39, 35
1, 98493, Control_c, 0, 64, 64
1, 98508, Control_c, 0, 64, 0
1, 98627, Control_c, 0, 64, 37
1, 98642, Control_c, 0, 64, 64
1, 98657, Control_c, 0, 64, 71
1, 98672, Control_c, 0, 64, 79
1, 98687, Control_c, 0, 64, 88
1, 98702, Control_c, 0, 64, 98
1, 98715, Note_on_c, 0, 50, 40
1, 98716, Control_c, 0, 64, 109
1, 98731, Control_c, 0, 64, 127
1, 98767, Note_off_c, 0, 55, 58
1, 98811, Note_off_c, 0, 50, 43
1, 98826, Note_off_c, 0, 34, 56
1, 98841, Note_on_c, 0, 46, 48
1, 98881, Note_off_c, 0, 46, 58
1, 98956, Note_on_c, 0, 50, 45
1, 98967, Note_on_c, 0, 55, 49
1, 98968, Control_c, 0, 67, 126
1, 98982, Control_c, 0, 67, 126
1, 98997, Control_c, 0, 67, 125
1, 99000, Note_off_c, 0, 50, 60
1, 99012, Control_c, 0, 67, 125
1, 99042, Control_c, 0, 67, 124
1, 99045, Note_off_c, 0, 55, 60
1, 99072, Control_c, 0, 67, 124
1, 99083, Note_on_c, 0, 50, 57
1, 99086, Control_c, 0, 67, 123
1, 99101, Control_c, 0, 67, 122
1, 99116, Control_c, 0, 67, 121
1, 99116, Note_off_c, 0, 50, 65
1, 99138, Control_c, 0, 67, 119
1, 99153, Control_c, 0, 67, 118
1, 99168, Control_c, 0, 67, 117
1, 99195, Note_on_c, 0, 58, 61
1, 99197, Control_c, 0, 67, 116
1, 99211, Note_on_c, 0, 55, 29
1, 99227, Control_c, 0, 67, 116
1, 99242, Control_c, 0, 67, 115
1, 99248, Note_off_c, 0, 58, 51
1, 99250, Note_off_c, 0, 55, 48
1, 99256, Control_c, 0, 67, 115
1, 99286, Control_c, 0, 67, 114
1, 99301, Control_c, 0, 67, 114
1, 99316, Note_on_c, 0, 55, 62
1, 99316, Control_c, 0, 67, 113
1, 99331, Control_c, 0, 67, 111
1, 99344, Note_off_c, 0, 55, 66
1, 99346, Control_c, 0, 67, 109
1, 99361, Control_c, 0, 67, 106
1, 99375, Control_c, 0, 67, 101
1, 99390, Control_c, 0, 67, 96
1, 99405, Control_c, 0, 67, 92
1, 99418, Note_on_c, 0, 62, 57
1, 99420, Control_c, 0, 67, 89
1, 99428, Note_on_c, 0, 58, 47
1, 99435, Control_c, 0, 67, 88
1, 99447, Note_off_c, 0, 62, 63
1, 99456, Note_off_c, 0, 58, 57
1, 99480, Control_c, 0, 67, 89
1, 99495, Control_c, 0, 67, 89
1, 99510, Control_c, 0, 67, 90
1, 99524, Control_c, 0, 67, 90
1, 99531, Note_on_c, 0, 58, 66
1, 99539, Control_c, 0, 67, 91
1, 99554, Control_c, 0, 67, 91
1, 99554, Note_off_c, 0, 58, 67
1, 99569, Control_c, 0, 67, 92
1, 99584, Control_c, 0, 67, 92
1, 99598, Control_c, 0, 67, 93
1, 99613, Control_c, 0, 67, 93
1, 99628, Control_c, 0, 67, 94
1, 99643, Control_c, 0, 67, 95
1, 99644, Note_on_c, 0, 67, 62
1, 99653, Note_on_c, 0, 62, 45
1, 99672, Note_off_c, 0, 67, 63
1, 99673, Control_c, 0, 67, 95
1, 99677, Note_off_c, 0, 62, 58
1, 99687, Control_c, 0, 67, 96
1, 99702, Control_c, 0, 67, 96
1, 99717, Control_c, 0, 67, 97
1, 99731, Control_c, 0, 67, 97
1, 99746, Control_c, 0, 67, 98
1, 99756, Note_on_c, 0, 62, 57
1, 99776, Control_c, 0, 67, 98
1, 99790, Note_off_c, 0, 62, 61
1, 99805, Control_c, 0, 67, 99
1, 99835, Control_c, 0, 67, 99
1, 99876, Note_on_c, 0, 70, 71
1, 99887, Control_c, 0, 67, 99
1, 99902, Control_c, 0, 67, 98
1, 99915, Note_off_c, 0, 70, 53
1, 99917, Control_c, 0, 67, 98
1, 100053, Note_on_c, 0, 72, 63
1, 100064, Control_c, 0, 67, 98
1, 100076, Note_on_c, 0, 51, 50
1, 100079, Control_c, 0, 64, 96
1, 100079, Control_c, 0, 67, 99
1, 100094, Control_c, 0, 64, 78
1, 100094, Control_c, 0, 67, 99
1, 100109, Control_c, 0, 64, 63
1, 100109, Control_c, 0, 67, 100
1, 100124, Control_c, 0, 64, 0
1, 100124, Control_c, 0, 67, 100
1, 100168, Control_c, 0, 67, 101
1, 100183, Control_c, 0, 67, 101
1, 100198, Control_c, 0, 67, 103
1, 100213, Control_c, 0, 64, 54
1, 100213, Control_c, 0, 67, 104
1, 100219, Note_on_c, 0, 60, 38
1, 100228, Control_c, 0, 64, 65
1, 100228, Control_c, 0, 67, 105
1, 100243, Control_c, 0, 64, 70
1, 100243, Control_c, 0, 67, 106
1, 100258, Control_c, 0, 64, 75
1, 100258, Control_c, 0, 67, 107
1, 100273, Control_c, 0, 64, 81
1, 100273, Control_c, 0, 67, 108
1, 100288, Control_c, 0, 64, 86
1, 100288, Control_c, 0, 67, 110
1, 100288, Note_off_c, 0, 60, 46
1, 100302, Control_c, 0, 64, 89
1, 100302, Control_c, 0, 67, 111
1, 100317, Control_c, 0, 64, 93
1, 100317, Control_c, 0, 67, 111
1, 100332, Control_c, 0, 64, 97
1, 100332, Control_c, 0, 67, 112
1, 100346, Control_c, 0, 64, 100
1, 100346, Control_c, 0, 67, 113
1, 100361, Control_c, 0, 64, 102
1, 100361, Control_c, 0, 67, 114
1, 100376, Control_c, 0, 64, 105
1, 100376, Control_c, 0, 67, 115
1, 100379, Note_on_c, 0, 67, 43
1, 100391, Control_c, 0, 64, 108
1, 100391, Control_c, 0, 67, 116
1, 100395, Note_on_c, 0, 63, 41
1, 100406, Control_c, 0, 64, 111
1, 100406, Control_c, 0, 67, 117
1, 100420, Control_c, 0, 64, 114
1, 100420, Control_c, 0, 67, 118
1, 100433, Note_off_c, 0, 63, 51
1, 100435, Control_c, 0, 64, 115
1, 100435, Control_c, 0, 67, 119
1, 100437, Note_off_c, 0, 67, 57
1, 100450, Control_c, 0, 64, 117
1, 100450, Control_c, 0, 67, 122
1, 100465, Control_c, 0, 64, 119
1, 100465, Control_c, 0, 67, 125
1, 100479, Control_c, 0, 64, 127
1, 100479, Control_c, 0, 67, 127
1, 100557, Note_off_c, 0, 72, 60
1, 100584, Note_on_c, 0, 74, 60
1, 100684, Note_off_c, 0, 74, 52
1, 100685, Note_on_c, 0, 72, 53
1, 100863, Note_on_c, 0, 46, 40
1, 100875, Note_on_c, 0, 67, 52
1, 100888, Note_off_c, 0, 72, 54
1, 100902, Control_c, 0, 64, 116
1, 100917, Control_c, 0, 64, 100
1, 100932, Note_off_c, 0, 51, 44
1, 100932, Control_c, 0, 64, 83
1, 100947, Control_c, 0, 64, 67
1, 100961, Control_c, 0, 64, 0
1, 101051, Control_c, 0, 64, 55
1, 101066, Control_c, 0, 64, 67
1, 101074, Note_on_c, 0, 62, 37
1, 101081, Control_c, 0, 64, 76
1, 101096, Control_c, 0, 64, 88
1, 101110, Control_c, 0, 64, 106
1, 101125, Control_c, 0, 64, 127
1, 101146, Note_off_c, 0, 67, 52
1, 101158, Note_off_c, 0, 62, 47
1, 101191, Note_on_c, 0, 58, 52
1, 101216, Note_off_c, 0, 46, 46
1, 101271, Note_off_c, 0, 58, 54
1, 101300, Note_on_c, 0, 62, 38
1, 101301, Note_on_c, 0, 67, 49
1, 101333, Note_off_c, 0, 62, 53
1, 101376, Note_off_c, 0, 67, 46
1, 101423, Note_on_c, 0, 62, 56
1, 101455, Note_off_c, 0, 62, 64
1, 101489, Control_c, 0, 67, 126
1, 101503, Control_c, 0, 67, 126
1, 101518, Control_c, 0, 67, 125
1, 101530, Note_on_c, 0, 70, 63
1, 101533, Control_c, 0, 67, 124
1, 101548, Control_c, 0, 67, 124
1, 101563, Control_c, 0, 67, 123
1, 101565, Note_off_c, 0, 70, 59
1, 101577, Control_c, 0, 67, 122
1, 101592, Control_c, 0, 67, 122
1, 101606, Poly_aftertouch_c, 0, 67, 0
1, 101607, Control_c, 0, 67, 121
1, 101622, Control_c, 0, 67, 120
1, 101632, Note_on_c, 0, 67, 35
1, 101636, Control_c, 0, 67, 119
1, 101651, Control_c, 0, 67, 118
1, 101666, Control_c, 0, 67, 117
1, 101680, Note_off_c, 0, 67, 62
1, 101681, Control_c, 0, 67, 115
1, 101696, Control_c, 0, 67, 114
1, 101710, Control_c, 0, 67, 112
1, 101725, Control_c, 0, 67, 111
1, 101740, Control_c, 0, 67, 109
1, 101748, Note_on_c, 0, 74, 61
1, 101755, Control_c, 0, 67, 107
1, 101770, Control_c, 0, 67, 104
1, 101773, Note_on_c, 0, 70, 18
1, 101778, Note_off_c, 0, 74, 67
1, 101784, Control_c, 0, 67, 103
1, 101800, Control_c, 0, 67, 101
1, 101810, Note_off_c, 0, 70, 52
1, 101815, Control_c, 0, 67, 99
1, 101830, Control_c, 0, 67, 97
1, 101845, Control_c, 0, 67, 95
1, 101860, Control_c, 0, 67, 93
1, 101874, Control_c, 0, 67, 92
1, 101882, Note_on_c, 0, 70, 17
1, 101889, Control_c, 0, 67, 90
1, 101904, Control_c, 0, 67, 89
1, 101919, Control_c, 0, 67, 88
1, 101924, Note_off_c, 0, 70, 52
1, 101964, Note_on_c, 0, 79, 58
1, 101973, Note_on_c, 0, 74, 49
1, 101984, Note_off_c, 0, 79, 63
1, 101993, Control_c, 0, 67, 89
1, 101996, Note_off_c, 0, 74, 60
1, 102008, Control_c, 0, 67, 89
1, 102023, Control_c, 0, 67, 90
1, 102038, Control_c, 0, 67, 90
1, 102052, Control_c, 0, 67, 91
1, 102067, Control_c, 0, 67, 91
1, 102073, Note_on_c, 0, 74, 63
1, 102082, Control_c, 0, 67, 92
1, 102097, Control_c, 0, 67, 92
1, 102101, Note_off_c, 0, 74, 68
1, 102112, Control_c, 0, 67, 93
1, 102133, Control_c, 0, 67, 93
1, 102148, Control_c, 0, 67, 94
1, 102163, Control_c, 0, 67, 94
1, 102178, Control_c, 0, 67, 95
1, 102196, Note_on_c, 0, 82, 56
1, 102199, Note_on_c, 0, 79, 39
1, 102207, Control_c, 0, 67, 96
1, 102222, Control_c, 0, 67, 96
1, 102229, Note_off_c, 0, 79, 54
1, 102234, Note_off_c, 0, 82, 60
1, 102252, Control_c, 0, 67, 97
1, 102267, Control_c, 0, 67, 97
1, 102297, Control_c, 0, 67, 98
1, 102341, Control_c, 0, 67, 98
1, 102353, Note_on_c, 0, 84, 69
1, 102356, Control_c, 0, 67, 99
1, 102371, Control_c, 0, 64, 100
1, 102371, Control_c, 0, 67, 100
1, 102375, Note_on_c, 0, 63, 44
1, 102386, Control_c, 0, 64, 78
1, 102386, Control_c, 0, 67, 100
1, 102400, Control_c, 0, 64, 64
1, 102415, Control_c, 0, 64, 0
1, 102415, Control_c, 0, 67, 101
1, 102489, Control_c, 0, 64, 56
1, 102489, Control_c, 0, 67, 101
1, 102501, Note_on_c, 0, 72, 43
1, 102504, Control_c, 0, 64, 66
1, 102519, Control_c, 0, 64, 72
1, 102519, Control_c, 0, 67, 102
1, 102533, Control_c, 0, 64, 78
1, 102548, Control_c, 0, 64, 84
1, 102548, Control_c, 0, 67, 103
1, 102553, Note_off_c, 0, 72, 46
1, 102563, Control_c, 0, 64, 89
1, 102563, Control_c, 0, 67, 103
1, 102578, Control_c, 0, 64, 95
1, 102578, Control_c, 0, 67, 104
1, 102593, Control_c, 0, 64, 101
1, 102593, Control_c, 0, 67, 104
1, 102609, Control_c, 0, 64, 106
1, 102609, Control_c, 0, 67, 105
1, 102613, Note_on_c, 0, 79, 47
1, 102623, Control_c, 0, 64, 110
1, 102628, Note_on_c, 0, 75, 51
1, 102638, Control_c, 0, 64, 112
1, 102638, Control_c, 0, 67, 105
1, 102651, Note_off_c, 0, 75, 61
1, 102653, Control_c, 0, 64, 114
1, 102661, Note_off_c, 0, 79, 61
1, 102668, Control_c, 0, 64, 115
1, 102668, Control_c, 0, 67, 106
1, 102682, Control_c, 0, 64, 116
1, 102697, Control_c, 0, 64, 116
1, 102712, Control_c, 0, 64, 117
1, 102727, Control_c, 0, 64, 117
1, 102745, Note_off_c, 0, 84, 60
1, 102756, Control_c, 0, 67, 106
1, 102781, Note_on_c, 0, 86, 61
1, 102786, Control_c, 0, 67, 107
1, 102801, Control_c, 0, 67, 107
1, 102816, Control_c, 0, 67, 109
1, 102830, Control_c, 0, 67, 110
1, 102845, Control_c, 0, 64, 115
1, 102845, Control_c, 0, 67, 111
1, 102852, Note_on_c, 0, 84, 63
1, 102860, Control_c, 0, 64, 106
1, 102860, Control_c, 0, 67, 112
1, 102861, Note_off_c, 0, 86, 49
1, 102882, Control_c, 0, 64, 93
1, 102882, Control_c, 0, 67, 113
1, 102897, Control_c, 0, 64, 79
1, 102897, Control_c, 0, 67, 113
1, 102912, Control_c, 0, 64, 65
1, 102912, Control_c, 0, 67, 114
1, 102925, Note_off_c, 0, 63, 57
1, 102927, Control_c, 0, 64, 0
1, 102927, Control_c, 0, 67, 115
1, 102935, Note_on_c, 0, 79, 59
1, 102942, Control_c, 0, 67, 117
1, 102951, Note_on_c, 0, 58, 42
1, 102956, Control_c, 0, 67, 117
1, 102960, Note_off_c, 0, 84, 57
1, 102971, Control_c, 0, 67, 118
1, 102986, Control_c, 0, 67, 118
1, 103045, Control_c, 0, 64, 36
1, 103060, Control_c, 0, 64, 63
1, 103075, Control_c, 0, 64, 69
1, 103075, Control_c, 0, 67, 118
1, 103090, Control_c, 0, 64, 75
1, 103105, Control_c, 0, 64, 82
1, 103120, Control_c, 0, 64, 91
1, 103120, Control_c, 0, 67, 117
1, 103121, Note_on_c, 0, 74, 45
1, 103134, Control_c, 0, 64, 105
1, 103149, Control_c, 0, 64, 127
1, 103149, Control_c, 0, 67, 117
1, 103209, Control_c, 0, 67, 116
1, 103216, Note_off_c, 0, 79, 53
1, 103226, Note_off_c, 0, 58, 58
1, 103237, Note_off_c, 0, 74, 56
1, 103243, Note_on_c, 0, 70, 49
1, 103253, Control_c, 0, 67, 116
1, 103267, Control_c, 0, 67, 115
1, 103292, Note_off_c, 0, 70, 57
1, 103349, Note_on_c, 0, 79, 54
1, 103368, Note_on_c, 0, 74, 34
1, 103400, Note_off_c, 0, 74, 55
1, 103402, Control_c, 0, 67, 115
1, 103430, Note_off_c, 0, 79, 42
1, 103432, Control_c, 0, 67, 114
1, 103446, Control_c, 0, 67, 113
1, 103461, Control_c, 0, 67, 113
1, 103476, Control_c, 0, 67, 112
1, 103491, Control_c, 0, 67, 111
1, 103505, Control_c, 0, 67, 110
1, 103520, Control_c, 0, 67, 109
1, 103527, Poly_aftertouch_c, 0, 74, 127
1, 103535, Control_c, 0, 67, 109
1, 103550, Control_c, 0, 67, 108
1, 103564, Note_on_c, 0, 82, 68
1, 103565, Control_c, 0, 67, 107
1, 103567, Poly_aftertouch_c, 0, 74, 0
1, 103579, Control_c, 0, 67, 106
1, 103594, Control_c, 0, 67, 106
1, 103603, Note_off_c, 0, 82, 52
1, 103609, Control_c, 0, 67, 105
1, 103630, Poly_aftertouch_c, 0, 79, 127
1, 103632, Control_c, 0, 67, 104
1, 103647, Control_c, 0, 67, 102
1, 103659, Note_on_c, 0, 79, 23
1, 103661, Control_c, 0, 67, 100
1, 103676, Control_c, 0, 67, 98
1, 103691, Control_c, 0, 67, 96
1, 103705, Control_c, 0, 67, 93
1, 103707, Note_off_c, 0, 79, 61
1, 103720, Control_c, 0, 67, 90
1, 103735, Control_c, 0, 67, 88
1, 103750, Control_c, 0, 67, 84
1, 103763, Note_on_c, 0, 86, 70
1, 103764, Control_c, 0, 67, 81
1, 103778, Control_c, 0, 67, 78
1, 103790, Note_off_c, 0, 86, 63
1, 103793, Control_c, 0, 67, 76
1, 103798, Note_on_c, 0, 82, 21
1, 103808, Control_c, 0, 67, 74
1, 103823, Control_c, 0, 67, 72
1, 103838, Note_off_c, 0, 82, 52
1, 103838, Control_c, 0, 67, 71
1, 103853, Control_c, 0, 67, 70
1, 103868, Control_c, 0, 67, 69
1, 103876, Note_on_c, 0, 82, 57
1, 103883, Control_c, 0, 67, 69
1, 103897, Control_c, 0, 67, 68
1, 103904, Note_off_c, 0, 82, 55
1, 103912, Control_c, 0, 67, 67
1, 103927, Control_c, 0, 67, 67
1, 103942, Control_c, 0, 67, 66
1, 103957, Control_c, 0, 67, 66
1, 103961, Note_on_c, 0, 91, 79
1, 103971, Control_c, 0, 67, 65
1, 103973, Note_on_c, 0, 86, 63
1, 103986, Control_c, 0, 67, 64
1, 103993, Note_off_c, 0, 86, 66
1, 104001, Control_c, 0, 67, 63
1, 104006, Note_off_c, 0, 91, 62
1, 104015, Control_c, 0, 67, 62
1, 104030, Control_c, 0, 67, 61
1, 104045, Control_c, 0, 67, 60
1, 104060, Control_c, 0, 67, 59
1, 104066, Note_on_c, 0, 86, 78
1, 104075, Control_c, 0, 67, 58
1, 104089, Control_c, 0, 67, 57
1, 104097, Note_off_c, 0, 86, 64
1, 104104, Control_c, 0, 67, 56
1, 104119, Control_c, 0, 67, 55
1, 104134, Control_c, 0, 67, 54
1, 104149, Control_c, 0, 67, 52
1, 104164, Control_c, 0, 67, 50
1, 104167, Note_on_c, 0, 94, 74
1, 104169, Note_on_c, 0, 91, 65
1, 104178, Control_c, 0, 67, 49
1, 104187, Note_off_c, 0, 91, 64
1, 104194, Control_c, 0, 67, 48
1, 104202, Note_off_c, 0, 94, 55
1, 104209, Control_c, 0, 67, 47
1, 104224, Control_c, 0, 67, 46
1, 104254, Control_c, 0, 67, 46
1, 104261, Note_on_c, 0, 91, 76
1, 104282, Note_off_c, 0, 91, 70
1, 104356, Note_on_c, 0, 98, 81
1, 104368, Note_on_c, 0, 94, 69
1, 104384, Note_off_c, 0, 94, 67
1, 104390, Note_off_c, 0, 98, 62
1, 104466, Note_on_c, 0, 94, 72
1, 104487, Note_off_c, 0, 94, 71
1, 104543, Control_c, 0, 67, 45
1, 104553, Note_on_c, 0, 103, 88
1, 104565, Note_on_c, 0, 98, 75
1, 104573, Control_c, 0, 67, 45
1, 104583, Note_off_c, 0, 98, 68
1, 104586, Note_off_c, 0, 103, 63
1, 104588, Control_c, 0, 67, 44
1, 104602, Control_c, 0, 67, 42
1, 104617, Control_c, 0, 67, 39
1, 104632, Control_c, 0, 67, 37
1, 104646, Note_on_c, 0, 91, 87
1, 104646, Control_c, 0, 67, 36
1, 104661, Control_c, 0, 67, 35
1, 104676, Control_c, 0, 67, 35
1, 104686, Note_off_c, 0, 91, 61
1, 104738, Note_on_c, 0, 98, 89
1, 104744, Note_on_c, 0, 94, 76
1, 104765, Control_c, 0, 67, 35
1, 104768, Note_off_c, 0, 94, 66
1, 104773, Note_off_c, 0, 98, 64
1, 104795, Control_c, 0, 67, 36
1, 104810, Control_c, 0, 67, 37
1, 104825, Control_c, 0, 67, 38
1, 104840, Control_c, 0, 67, 39
1, 104843, Note_on_c, 0, 94, 85
1, 104854, Control_c, 0, 67, 40
1, 104869, Control_c, 0, 67, 41
1, 104881, Note_off_c, 0, 94, 63
1, 104884, Control_c, 0, 67, 41
1, 104913, Control_c, 0, 67, 42
1, 104935, Note_on_c, 0, 103, 79
1, 104935, Note_on_c, 0, 98, 82
1, 104943, Control_c, 0, 67, 42
1, 104958, Control_c, 0, 67, 43
1, 104973, Control_c, 0, 67, 44
1, 104977, Note_off_c, 0, 98, 59
1, 105004, Control_c, 0, 67, 45
1, 105018, Control_c, 0, 64, 97
1, 105026, Note_on_c, 0, 91, 80
1, 105033, Control_c, 0, 64, 82
1, 105033, Control_c, 0, 67, 45
1, 105048, Control_c, 0, 64, 81
1, 105058, Note_off_c, 0, 91, 60
1, 105062, Control_c, 0, 64, 91
1, 105077, Control_c, 0, 64, 104
1, 105092, Control_c, 0, 64, 127
1, 105124, Note_on_c, 0, 98, 72
1, 105136, Note_on_c, 0, 94, 66
1, 105159, Control_c, 0, 67, 46
1, 105162, Note_off_c, 0, 94, 66
1, 105185, Note_off_c, 0, 98, 61
1, 105202, Note_off_c, 0, 103, 48
1, 105240, Note_on_c, 0, 94, 64
1, 105257, Note_off_c, 0, 94, 68
1, 105263, Control_c, 0, 67, 46
1, 105322, Note_on_c, 0, 98, 72
1, 105324, Note_on_c, 0, 103, 69
1, 105364, Note_off_c, 0, 98, 59
1, 105366, Control_c, 0, 67, 47
1, 105381, Control_c, 0, 67, 47
1, 105396, Control_c, 0, 67, 48
1, 105411, Control_c, 0, 67, 49
1, 105425, Control_c, 0, 67, 52
1, 105429, Note_on_c, 0, 91, 57
1, 105440, Control_c, 0, 64, 105
1, 105440, Control_c, 0, 67, 54
1, 105448, Note_off_c, 0, 91, 62
1, 105455, Control_c, 0, 64, 83
1, 105455, Control_c, 0, 67, 57
1, 105469, Control_c, 0, 64, 77
1, 105469, Control_c, 0, 67, 58
1, 105484, Control_c, 0, 64, 82
1, 105484, Control_c, 0, 67, 59
1, 105499, Control_c, 0, 64, 93
1, 105504, Note_on_c, 0, 98, 70
1, 105514, Control_c, 0, 64, 117
1, 105528, Note_on_c, 0, 94, 47
1, 105529, Control_c, 0, 64, 127
1, 105555, Note_off_c, 0, 94, 54
1, 105567, Note_off_c, 0, 98, 58
1, 105576, Note_off_c, 0, 103, 46
1, 105588, Control_c, 0, 67, 59
1, 105618, Note_on_c, 0, 94, 62
1, 105618, Control_c, 0, 67, 58
1, 105634, Note_off_c, 0, 94, 67
1, 105709, Note_on_c, 0, 98, 64
1, 105715, Note_on_c, 0, 103, 71
1, 105735, Note_off_c, 0, 98, 68
1, 105832, Note_on_c, 0, 91, 59
1, 105907, Control_c, 0, 64, 98
1, 105922, Control_c, 0, 64, 79
1, 105937, Control_c, 0, 64, 69
1, 105943, Note_on_c, 0, 94, 59
1, 105944, Note_on_c, 0, 98, 58
1, 105952, Control_c, 0, 64, 67
1, 105962, Note_off_c, 0, 103, 48
1, 105966, Control_c, 0, 64, 70
1, 105981, Control_c, 0, 64, 75
1, 105996, Control_c, 0, 64, 88
1, 106011, Control_c, 0, 64, 123
1, 106026, Control_c, 0, 64, 127
1, 106026, Control_c, 0, 67, 58
1, 106041, Note_off_c, 0, 94, 63
1, 106047, Note_off_c, 0, 98, 65
1, 106061, Note_off_c, 0, 91, 53
1, 106065, Note_on_c, 0, 103, 67
1, 106068, Note_on_c, 0, 87, 55
1, 106068, Note_on_c, 0, 96, 61
1, 106130, Control_c, 0, 67, 58
1, 106145, Note_off_c, 0, 87, 54
1, 106160, Note_off_c, 0, 96, 61
1, 106160, Control_c, 0, 67, 59
1, 106172, Note_off_c, 0, 103, 63
1, 106174, Control_c, 0, 67, 60
1, 106175, Note_on_c, 0, 98, 60
1, 106177, Note_on_c, 0, 94, 57
1, 106180, Note_on_c, 0, 91, 55
1, 106189, Control_c, 0, 67, 60
1, 106204, Control_c, 0, 67, 61
1, 106218, Control_c, 0, 67, 63
1, 106233, Control_c, 0, 67, 68
1, 106237, Note_off_c, 0, 94, 52
1, 106248, Control_c, 0, 67, 72
1, 106254, Note_off_c, 0, 98, 61
1, 106263, Control_c, 0, 67, 76
1, 106269, Note_off_c, 0, 91, 46
1, 106278, Control_c, 0, 67, 78
1, 106280, Note_on_c, 0, 103, 78
1, 106286, Note_on_c, 0, 96, 63
1, 106292, Control_c, 0, 67, 80
1, 106303, Note_on_c, 0, 87, 51
1, 106307, Control_c, 0, 67, 82
1, 106322, Control_c, 0, 67, 84
1, 106337, Control_c, 0, 67, 87
1, 106349, Note_off_c, 0, 87, 44
1, 106352, Control_c, 0, 67, 91
1, 106366, Control_c, 0, 67, 96
1, 106373, Note_off_c, 0, 96, 56
1, 106380, Note_off_c, 0, 103, 61
1, 106381, Control_c, 0, 67, 99
1, 106384, Note_on_c, 0, 98, 63
1, 106396, Control_c, 0, 67, 102
1, 106398, Note_on_c, 0, 94, 50
1, 106399, Note_on_c, 0, 91, 56
1, 106411, Control_c, 0, 67, 105
1, 106425, Control_c, 0, 67, 109
1, 106440, Control_c, 0, 67, 114
1, 106442, Note_off_c, 0, 94, 48
1, 106455, Control_c, 0, 67, 117
1, 106468, Note_off_c, 0, 98, 62
1, 106470, Control_c, 0, 67, 119
1, 106479, Note_off_c, 0, 91, 45
1, 106485, Control_c, 0, 67, 122
1, 106487, Note_on_c, 0, 103, 83
1, 106488, Note_on_c, 0, 96, 69
1, 106496, Note_on_c, 0, 87, 62
1, 106500, Control_c, 0, 67, 123
1, 106515, Control_c, 0, 67, 125
1, 106560, Note_off_c, 0, 87, 61
1, 106574, Control_c, 0, 67, 125
1, 106577, Note_off_c, 0, 96, 65
1, 106580, Note_on_c, 0, 98, 71
1, 106586, Note_off_c, 0, 103, 63
1, 106594, Note_on_c, 0, 91, 64
1, 106598, Note_on_c, 0, 94, 61
1, 106604, Control_c, 0, 67, 126
1, 106662, Note_off_c, 0, 94, 63
1, 106683, Note_off_c, 0, 98, 65
1, 106686, Control_c, 0, 67, 126
1, 106695, Note_off_c, 0, 91, 50
1, 106698, Note_on_c, 0, 87, 65
1, 106706, Note_on_c, 0, 96, 77
1, 106706, Note_on_c, 0, 103, 83
1, 106759, Control_c, 0, 67, 127
1, 106763, Note_off_c, 0, 87, 59
1, 106787, Note_off_c, 0, 96, 63
1, 106789, Note_off_c, 0, 103, 62
1, 106791, Note_on_c, 0, 98, 71
1, 106809, Note_on_c, 0, 91, 60
1, 106810, Note_on_c, 0, 94, 58
1, 106853, Note_off_c, 0, 94, 60
1, 106879, Note_off_c, 0, 98, 66
1, 106902, Note_on_c, 0, 87, 64
1, 106905, Note_off_c, 0, 91, 41
1, 106910, Note_on_c, 0, 96, 71
1, 106911, Note_on_c, 0, 103, 75
1, 106972, Note_off_c, 0, 87, 56
1, 106993, Note_off_c, 0, 96, 55
1, 106999, Note_off_c, 0, 103, 62
1, 107005, Note_on_c, 0, 98, 66
1, 107010, Note_on_c, 0, 91, 63
1, 107020, Note_on_c, 0, 94, 57
1, 107057, Note_off_c, 0, 94, 54
1, 107096, Note_off_c, 0, 91, 49
1, 107105, Note_off_c, 0, 98, 64
1, 107117, Note_on_c, 0, 103, 75
1, 107122, Note_on_c, 0, 87, 55
1, 107123, Note_on_c, 0, 96, 60
1, 107187, Note_off_c, 0, 87, 58
1, 107208, Note_off_c, 0, 96, 53
1, 107217, Note_off_c, 0, 103, 59
1, 107220, Note_on_c, 0, 91, 54
1, 107228, Note_on_c, 0, 98, 53
1, 107238, Note_on_c, 0, 94, 55
1, 107299, Note_off_c, 0, 94, 63
1, 107316, Note_off_c, 0, 98, 65
1, 107332, Note_off_c, 0, 91, 38
1, 107333, Note_on_c, 0, 87, 56
1, 107349, Note_on_c, 0, 103, 66
1, 107361, Note_on_c, 0, 96, 51
1, 107421, Note_off_c, 0, 87, 64
1, 107438, Note_off_c, 0, 103, 62
1, 107445, Note_on_c, 0, 98, 61
1, 107446, Note_on_c, 0, 91, 50
1, 107450, Note_on_c, 0, 94, 56
1, 107451, Note_off_c, 0, 96, 45
1, 107503, Note_off_c, 0, 94, 59
1, 107521, Note_off_c, 0, 98, 61
1, 107552, Note_on_c, 0, 87, 62
1, 107554, Note_on_c, 0, 96, 52
1, 107554, Note_on_c, 0, 103, 67
1, 107558, Note_off_c, 0, 91, 38
1, 107589, Note_off_c, 0, 87, 61
1, 107621, Note_off_c, 0, 103, 61
1, 107635, Note_on_c, 0, 98, 61
1, 107637, Note_off_c, 0, 96, 45
1, 107652, Note_on_c, 0, 91, 47
1, 107654, Note_on_c, 0, 94, 41
1, 107671, Note_off_c, 0, 98, 61
1, 107679, Note_off_c, 0, 94, 57
1, 107698, Note_off_c, 0, 91, 47
1, 107713, Note_on_c, 0, 87, 59
1, 107716, Note_on_c, 0, 96, 53
1, 107716, Note_on_c, 0, 103, 60
1, 107743, Note_off_c, 0, 87, 67
1, 107764, Note_off_c, 0, 96, 48
1, 107769, Note_off_c, 0, 103, 54
1, 107779, Note_on_c, 0, 98, 67
1, 107794, Note_on_c, 0, 94, 28
1, 107798, Note_on_c, 0, 91, 54
1, 107807, Note_off_c, 0, 98, 67
1, 107826, Note_off_c, 0, 94, 52
1, 107831, Note_off_c, 0, 91, 50
1, 107835, Note_on_c, 0, 96, 62
1, 107847, Note_on_c, 0, 103, 58
1, 107854, Note_on_c, 0, 87, 56
1, 107873, Note_off_c, 0, 87, 66
1, 107886, Note_off_c, 0, 96, 63
1, 107893, Note_on_c, 0, 98, 71
1, 107898, Note_off_c, 0, 103, 64
1, 107910, Note_on_c, 0, 94, 50
1, 107919, Note_on_c, 0, 91, 59
1, 107928, Note_off_c, 0, 98, 61
1, 107931, Note_off_c, 0, 94, 61
1, 107958, Note_on_c, 0, 96, 71
1, 107968, Note_on_c, 0, 103, 58
1, 107970, Note_off_c, 0, 91, 51
1, 107984, Note_on_c, 0, 87, 56
1, 108004, Note_off_c, 0, 87, 65
1, 108011, Note_off_c, 0, 96, 65
1, 108020, Note_off_c, 0, 103, 65
1, 108020, Note_on_c, 0, 98, 78
1, 108025, Note_on_c, 0, 94, 43
1, 108050, Note_off_c, 0, 94, 58
1, 108051, Note_off_c, 0, 98, 61
1, 108053, Note_on_c, 0, 91, 56
1, 108079, Note_on_c, 0, 96, 72
1, 108088, Note_on_c, 0, 103, 58
1, 108089, Note_off_c, 0, 91, 48
1, 108116, Note_on_c, 0, 87, 57
1, 108136, Note_off_c, 0, 87, 66
1, 108139, Note_off_c, 0, 96, 64
1, 108143, Note_off_c, 0, 103, 64
1, 108145, Note_on_c, 0, 98, 78
1, 108175, Note_on_c, 0, 94, 12
1, 108181, Note_on_c, 0, 91, 68
1, 108189, Note_off_c, 0, 98, 64
1, 108211, Note_on_c, 0, 96, 72
1, 108216, Note_on_c, 0, 103, 65
1, 108220, Note_off_c, 0, 94, 50
1, 108226, Note_off_c, 0, 91, 51
1, 108241, Note_on_c, 0, 87, 62
1, 108264, Note_off_c, 0, 96, 65
1, 108267, Note_off_c, 0, 87, 68
1, 108274, Note_off_c, 0, 103, 66
1, 108275, Note_on_c, 0, 98, 75
1, 108314, Note_off_c, 0, 98, 64
1, 108318, Note_on_c, 0, 91, 62
1, 108340, Note_on_c, 0, 96, 75
1, 108345, Note_off_c, 0, 91, 54
1, 108345, Note_on_c, 0, 103, 71
1, 108370, Poly_aftertouch_c, 0, 94, 0
1, 108377, Note_on_c, 0, 87, 59
1, 108398, Note_off_c, 0, 87, 66
1, 108402, Note_off_c, 0, 96, 64
1, 108406, Note_off_c, 0, 103, 66
1, 108410, Note_on_c, 0, 98, 76
1, 108443, Note_on_c, 0, 91, 58
1, 108448, Note_off_c, 0, 98, 63
1, 108473, Note_on_c, 0, 96, 73
1, 108478, Note_on_c, 0, 103, 69
1, 108486, Note_off_c, 0, 91, 52
1, 108501, Note_on_c, 0, 87, 61
1, 108528, Note_off_c, 0, 96, 65
1, 108530, Note_off_c, 0, 87, 69
1, 108536, Note_on_c, 0, 98, 78
1, 108536, Note_off_c, 0, 103, 65
1, 108573, Note_on_c, 0, 91, 69
1, 108581, Note_on_c, 0, 94, 26
1, 108619, Note_off_c, 0, 98, 0
1, 108619, Note_off_c, 0, 94, 52
1, 108631, Note_on_c, 0, 96, 66
1, 108632, Note_on_c, 0, 103, 60
1, 108635, Note_off_c, 0, 91, 49
1, 108652, Note_on_c, 0, 87, 61
1, 108656, Poly_aftertouch_c, 0, 98, 127
1, 108672, Poly_aftertouch_c, 0, 98, 0
1, 108682, Note_off_c, 0, 87, 67
1, 108694, Note_off_c, 0, 96, 65
1, 108903, Note_off_c, 0, 103, 44
1, 108973, Note_on_c, 0, 98, 63
1, 108974, Note_on_c, 0, 87, 62
1, 108993, Note_on_c, 0, 94, 37
1, 108995, Note_off_c, 0, 87, 68
1, 109001, Note_off_c, 0, 98, 69
1, 109019, Note_on_c, 0, 103, 69
1, 109021, Note_on_c, 0, 96, 68
1, 109023, Note_off_c, 0, 94, 55
1, 109039, Note_on_c, 0, 91, 57
1, 109064, Note_off_c, 0, 96, 66
1, 109069, Note_on_c, 0, 98, 71
1, 109073, Note_off_c, 0, 91, 47
1, 109073, Note_off_c, 0, 103, 65
1, 109105, Note_on_c, 0, 94, 38
1, 109120, Note_on_c, 0, 91, 45
1, 109144, Note_off_c, 0, 94, 0
1, 109144, Note_on_c, 0, 94, 3
1, 109169, Control_c, 0, 64, 96
1, 109184, Control_c, 0, 64, 82
1, 109198, Control_c, 0, 64, 72
1, 109213, Control_c, 0, 64, 67
1, 109228, Control_c, 0, 64, 66
1, 109272, Control_c, 0, 64, 67
1, 109287, Control_c, 0, 64, 69
1, 109302, Control_c, 0, 64, 71
1, 109317, Control_c, 0, 64, 76
1, 109332, Control_c, 0, 64, 81
1, 109347, Control_c, 0, 64, 85
1, 109362, Control_c, 0, 64, 88
1, 109377, Control_c, 0, 64, 91
1, 109391, Control_c, 0, 64, 95
1, 109406, Control_c, 0, 64, 100
1, 109421, Control_c, 0, 64, 104
1, 109435, Control_c, 0, 64, 111
1, 109450, Control_c, 0, 64, 123
1, 109465, Control_c, 0, 64, 127
1, 109539, Note_off_c, 0, 91, 43
1, 109556, Note_off_c, 0, 98, 49
1, 109584, Note_off_c, 0, 94, 46
1, 109754, Control_c, 0, 67, 124
1, 109768, Control_c, 0, 67, 121
1, 109785, Control_c, 0, 67, 118
1, 109800, Control_c, 0, 67, 114
1, 109814, Control_c, 0, 67, 111
1, 109829, Control_c, 0, 67, 107
1, 109844, Control_c, 0, 67, 103
1, 109858, Control_c, 0, 67, 98
1, 109873, Control_c, 0, 67, 96
1, 109888, Control_c, 0, 67, 93
1, 109903, Control_c, 0, 67, 90
1, 109918, Control_c, 0, 67, 89
1, 109933, Control_c, 0, 67, 87
1, 109947, Control_c, 0, 67, 85
1, 109962, Control_c, 0, 67, 84
1, 109977, Control_c, 0, 67, 82
1, 109992, Control_c, 0, 67, 81
1, 110007, Control_c, 0, 67, 79
1, 110021, Control_c, 0, 67, 78
1, 110036, Control_c, 0, 67, 76
1, 110051, Control_c, 0, 67, 74
1, 110065, Control_c, 0, 67, 72
1, 110080, Control_c, 0, 67, 70
1, 110095, Control_c, 0, 67, 69
1, 110110, Control_c, 0, 67, 68
1, 110125, Control_c, 0, 67, 66
1, 110140, Control_c, 0, 67, 64
1, 110155, Control_c, 0, 67, 61
1, 110169, Control_c, 0, 67, 59
1, 110184, Control_c, 0, 67, 56
1, 110199, Control_c, 0, 67, 54
1, 110214, Control_c, 0, 67, 52
1, 110229, Control_c, 0, 67, 50
1, 110244, Control_c, 0, 67, 48
1, 110258, Control_c, 0, 67, 45
1, 110273, Control_c, 0, 67, 43
1, 110288, Control_c, 0, 67, 41
1, 110303, Control_c, 0, 67, 38
1, 110318, Control_c, 0, 67, 35
1, 110332, Control_c, 0, 67, 32
1, 110347, Control_c, 0, 67, 29
1, 110369, Control_c, 0, 67, 28
1, 110384, Control_c, 0, 67, 26
1, 110399, Control_c, 0, 67, 25
1, 110414, Control_c, 0, 67, 24
1, 110429, Control_c, 0, 67, 23
1, 110444, Control_c, 0, 67, 22
1, 110459, Control_c, 0, 67, 22
1, 110473, Control_c, 0, 67, 21
1, 110488, Control_c, 0, 67, 21
1, 110503, Control_c, 0, 67, 20
1, 110518, Control_c, 0, 67, 20
1, 110532, Control_c, 0, 67, 19
1, 110547, Control_c, 0, 67, 19
1, 110562, Control_c, 0, 67, 18
1, 110577, Control_c, 0, 67, 17
1, 110593, Control_c, 0, 67, 16
1, 110608, Control_c, 0, 67, 15
1, 110623, Control_c, 0, 67, 14
1, 110637, Control_c, 0, 67, 13
1, 110652, Control_c, 0, 67, 12
1, 110667, Control_c, 0, 67, 11
1, 110681, Control_c, 0, 67, 9
1, 110696, Control_c, 0, 67, 8
1, 110711, Control_c, 0, 67, 0
1, 110977, Control_c, 0, 64, 110
1, 110992, Control_c, 0, 64, 92
1, 111007, Control_c, 0, 64, 78
1, 111022, Control_c, 0, 64, 66
1, 111037, Control_c, 0, 64, 0
1, 111177, Control_c, 0, 64, 30
1, 111192, Control_c, 0, 64, 61
1, 111207, Control_c, 0, 64, 68
1, 111222, Control_c, 0, 64, 75
1, 111237, Control_c, 0, 64, 82
1, 111240, Note_on_c, 0, 51, 58
1, 111251, Control_c, 0, 64, 90
1, 111266, Control_c, 0, 64, 99
1, 111276, Note_on_c, 0, 58, 62
1, 111281, Note_off_c, 0, 51, 64
1, 111281, Control_c, 0, 64, 110
1, 111296, Control_c, 0, 64, 127
1, 111302, Note_on_c, 0, 63, 68
1, 111304, Note_off_c, 0, 58, 67
1, 111308, Note_on_c, 0, 67, 75
1, 111329, Note_off_c, 0, 63, 68
1, 111333, Note_on_c, 0, 70, 80
1, 111364, Note_on_c, 0, 75, 90
1, 111383, Note_on_c, 0, 79, 93
1, 111418, Note_off_c, 0, 70, 62
1, 111439, Note_off_c, 0, 75, 64
1, 111442, Note_off_c, 0, 67, 60
1, 111785, Control_c, 0, 67, 8
1, 111800, Control_c, 0, 67, 9
1, 111815, Control_c, 0, 67, 11
1, 111830, Control_c, 0, 67, 12
1, 111845, Control_c, 0, 67, 13
1, 111867, Control_c, 0, 67, 14
1, 111882, Control_c, 0, 67, 14
1, 111897, Control_c, 0, 67, 15
1, 111907, Note_off_c, 0, 79, 56
1, 111934, Note_on_c, 0, 77, 69
1, 111941, Control_c, 0, 67, 14
1, 111956, Control_c, 0, 67, 14
1, 111971, Control_c, 0, 67, 13
1, 111975, Note_off_c, 0, 77, 57
1, 111979, Note_on_c, 0, 79, 70
1, 111985, Control_c, 0, 67, 12
1, 112000, Control_c, 0, 64, 110
1, 112000, Control_c, 0, 67, 12
1, 112012, Note_off_c, 0, 79, 58
1, 112015, Control_c, 0, 64, 79
1, 112015, Control_c, 0, 67, 11
1, 112024, Note_on_c, 0, 77, 67
1, 112030, Control_c, 0, 64, 49
1, 112030, Control_c, 0, 67, 11
1, 112044, Control_c, 0, 64, 0
1, 112059, Control_c, 0, 67, 10
1, 112066, Note_off_c, 0, 77, 66
1, 112074, Control_c, 0, 67, 10
1, 112152, Note_on_c, 0, 75, 80
1, 112163, Control_c, 0, 67, 10
1, 112178, Note_off_c, 0, 75, 64
1, 112223, Control_c, 0, 67, 10
1, 112238, Control_c, 0, 67, 9
1, 112253, Control_c, 0, 67, 8
1, 112268, Control_c, 0, 64, 63
1, 112268, Control_c, 0, 67, 0
1, 112280, Note_on_c, 0, 74, 81
1, 112283, Control_c, 0, 64, 75
1, 112298, Control_c, 0, 64, 89
1, 112313, Control_c, 0, 64, 127
1, 112372, Control_c, 0, 64, 99
1, 112377, Note_on_c, 0, 75, 78
1, 112383, Note_off_c, 0, 74, 62
1, 112387, Control_c, 0, 64, 75
1, 112401, Control_c, 0, 64, 34
1, 112416, Control_c, 0, 64, 0
1, 112426, Note_off_c, 0, 75, 61
1, 112481, Note_on_c, 0, 72, 79
1, 112515, Note_off_c, 0, 72, 62
1, 112584, Note_on_c, 0, 74, 79
1, 112622, Note_off_c, 0, 74, 62
1, 112719, Note_on_c, 0, 70, 81
1, 112753, Note_off_c, 0, 70, 58
1, 112942, Control_c, 0, 64, 52
1, 112957, Control_c, 0, 64, 66
1, 112971, Control_c, 0, 64, 73
1, 112974, Note_on_c, 0, 72, 72
1, 112987, Control_c, 0, 64, 82
1, 112989, Note_on_c, 0, 65, 49
1, 112994, Note_on_c, 0, 63, 48
1, 112996, Note_off_c, 0, 72, 70
1, 112997, Note_on_c, 0, 56, 45
1, 113002, Control_c, 0, 64, 95
1, 113016, Note_off_c, 0, 65, 59
1, 113016, Control_c, 0, 64, 110
1, 113022, Note_off_c, 0, 63, 57
1, 113026, Note_off_c, 0, 56, 54
1, 113031, Control_c, 0, 64, 127
1, 113220, Note_on_c, 0, 51, 50
1, 113241, Note_on_c, 0, 58, 60
1, 113267, Note_on_c, 0, 63, 58
1, 113271, Note_on_c, 0, 67, 70
1, 113283, Control_c, 0, 64, 118
1, 113287, Note_on_c, 0, 70, 83
1, 113298, Control_c, 0, 64, 91
1, 113313, Control_c, 0, 64, 71
1, 113314, Note_on_c, 0, 75, 85
1, 113328, Control_c, 0, 64, 36
1, 113341, Note_on_c, 0, 79, 91
1, 113343, Control_c, 0, 64, 0
1, 113513, Control_c, 0, 64, 23
1, 113528, Control_c, 0, 64, 62
1, 113543, Control_c, 0, 64, 68
1, 113557, Control_c, 0, 64, 75
1, 113572, Control_c, 0, 64, 82
1, 113587, Control_c, 0, 64, 90
1, 113601, Control_c, 0, 64, 102
1, 113616, Control_c, 0, 64, 123
1, 113618, Note_off_c, 0, 70, 62
1, 113631, Control_c, 0, 64, 127
1, 113640, Note_off_c, 0, 67, 58
1, 113649, Note_off_c, 0, 75, 61
1, 113799, Note_off_c, 0, 79, 58
1, 113841, Note_on_c, 0, 77, 68
1, 113872, Note_off_c, 0, 77, 61
1, 113884, Control_c, 0, 64, 89
1, 113887, Note_on_c, 0, 79, 74
1, 113899, Control_c, 0, 64, 69
1, 113913, Control_c, 0, 64, 0
1, 113928, Note_off_c, 0, 79, 53
1, 113939, Note_on_c, 0, 77, 74
1, 113969, Note_off_c, 0, 77, 63
1, 114054, Note_on_c, 0, 75, 70
1, 114080, Note_off_c, 0, 75, 64
1, 114177, Note_on_c, 0, 74, 76
1, 114179, Note_off_c, 0, 58, 62
1, 114181, Note_off_c, 0, 63, 60
1, 114194, Note_off_c, 0, 51, 63
1, 114239, Note_off_c, 0, 74, 62
1, 114284, Note_on_c, 0, 75, 72
1, 114331, Note_off_c, 0, 75, 58
1, 114404, Note_on_c, 0, 72, 69
1, 114426, Note_off_c, 0, 72, 69
1, 114504, Note_on_c, 0, 74, 70
1, 114528, Note_off_c, 0, 74, 69
1, 114642, Note_on_c, 0, 70, 55
1, 114663, Note_off_c, 0, 70, 61
1, 114877, Control_c, 0, 64, 23
1, 114888, Note_on_c, 0, 72, 60
1, 114892, Control_c, 0, 64, 63
1, 114897, Note_on_c, 0, 65, 55
1, 114899, Note_on_c, 0, 56, 54
1, 114905, Note_on_c, 0, 63, 44
1, 114907, Control_c, 0, 64, 69
1, 114914, Note_off_c, 0, 72, 66
1, 114920, Note_off_c, 0, 65, 60
1, 114922, Control_c, 0, 64, 77
1, 114927, Note_off_c, 0, 56, 65
1, 114934, Note_off_c, 0, 63, 58
1, 114936, Control_c, 0, 64, 87
1, 114951, Control_c, 0, 64, 97
1, 114966, Control_c, 0, 64, 110
1, 114981, Control_c, 0, 64, 127
1, 115159, Control_c, 0, 64, 99
1, 115162, Note_on_c, 0, 79, 74
1, 115173, Control_c, 0, 64, 75
1, 115177, Note_on_c, 0, 67, 54
1, 115181, Note_on_c, 0, 63, 42
1, 115185, Note_on_c, 0, 70, 49
1, 115188, Control_c, 0, 64, 0
1, 115191, Note_on_c, 0, 58, 41
1, 115199, Note_on_c, 0, 51, 40
1, 115207, Note_on_c, 0, 75, 50
1, 115247, Control_c, 0, 64, 33
1, 115262, Control_c, 0, 64, 67
1, 115277, Control_c, 0, 64, 83
1, 115292, Control_c, 0, 64, 127
1, 115339, Note_off_c, 0, 79, 61
1, 115340, Note_off_c, 0, 67, 59
1, 115344, Note_off_c, 0, 70, 62
1, 115352, Note_off_c, 0, 63, 56
1, 115365, Note_off_c, 0, 58, 60
1, 115378, Note_off_c, 0, 51, 44
1, 115426, Control_c, 0, 64, 94
1, 115434, Note_on_c, 0, 79, 91
1, 115441, Control_c, 0, 64, 67
1, 115444, Note_on_c, 0, 67, 70
1, 115447, Note_on_c, 0, 51, 55
1, 115449, Note_on_c, 0, 70, 75
1, 115453, Note_on_c, 0, 58, 53
1, 115454, Note_off_c, 0, 75, 63
1, 115455, Note_on_c, 0, 63, 57
1, 115456, Control_c, 0, 64, 0
1, 115470, Control_c, 0, 64, 37
1, 115485, Control_c, 0, 64, 66
1, 115500, Control_c, 0, 64, 85
1, 115515, Control_c, 0, 64, 127
1, 115523, Note_off_c, 0, 67, 59
1, 115536, Note_off_c, 0, 58, 59
1, 115540, Note_off_c, 0, 51, 61
1, 115544, Note_off_c, 0, 79, 62
1, 115560, Note_off_c, 0, 63, 60
1, 115561, Note_off_c, 0, 70, 62
1, 115700, Control_c, 0, 64, 106
1, 115705, Note_on_c, 0, 80, 90
1, 115709, Note_on_c, 0, 70, 78
1, 115715, Control_c, 0, 64, 76
1, 115716, Note_on_c, 0, 65, 70
1, 115720, Note_on_c, 0, 58, 61
1, 115723, Note_on_c, 0, 68, 61
1, 115728, Note_on_c, 0, 53, 57
1, 115730, Control_c, 0, 64, 53
1, 115745, Control_c, 0, 64, 44
1, 115759, Control_c, 0, 64, 64
1, 115774, Control_c, 0, 64, 75
1, 115789, Control_c, 0, 64, 100
1, 115793, Note_off_c, 0, 65, 63
1, 115795, Note_off_c, 0, 58, 60
1, 115803, Control_c, 0, 64, 127
1, 115815, Note_off_c, 0, 53, 65
1, 115850, Note_off_c, 0, 68, 62
1, 115872, Note_off_c, 0, 80, 61
1, 115883, Note_off_c, 0, 70, 56
1, 115961, Note_on_c, 0, 79, 91
1, 115967, Control_c, 0, 64, 88
1, 115967, Note_on_c, 0, 70, 73
1, 115972, Note_on_c, 0, 67, 70
1, 115973, Note_on_c, 0, 58, 68
1, 115973, Note_on_c, 0, 63, 69
1, 115982, Control_c, 0, 64, 63
1, 115986, Note_on_c, 0, 51, 59
1, 115996, Control_c, 0, 64, 0
1, 116041, Control_c, 0, 64, 50
1, 116056, Control_c, 0, 64, 70
1, 116071, Control_c, 0, 64, 93
1, 116083, Note_off_c, 0, 79, 59
1, 116085, Control_c, 0, 64, 127
1, 116105, Note_off_c, 0, 67, 57
1, 116111, Note_off_c, 0, 63, 52
1, 116119, Note_off_c, 0, 70, 62
1, 116128, Note_off_c, 0, 58, 55
1, 116134, Note_off_c, 0, 51, 62
1, 116219, Control_c, 0, 64, 95
1, 116220, Note_on_c, 0, 77, 88
1, 116226, Note_on_c, 0, 70, 78
1, 116227, Note_on_c, 0, 50, 66
1, 116227, Note_on_c, 0, 62, 63
1, 116232, Note_on_c, 0, 65, 72
1, 116234, Control_c, 0, 64, 65
1, 116236, Note_on_c, 0, 58, 58
1, 116249, Control_c, 0, 64, 0
1, 116293, Control_c, 0, 64, 60
1, 116308, Control_c, 0, 64, 74
1, 116323, Control_c, 0, 64, 96
1, 116334, Note_off_c, 0, 62, 60
1, 116338, Control_c, 0, 64, 127
1, 116342, Note_off_c, 0, 50, 64
1, 116369, Note_off_c, 0, 65, 59
1, 116377, Note_off_c, 0, 58, 61
1, 116382, Note_off_c, 0, 77, 62
1, 116417, Note_off_c, 0, 70, 63
1, 116464, Control_c, 0, 64, 117
1, 116477, Note_on_c, 0, 79, 100
1, 116479, Control_c, 0, 64, 78
1, 116480, Note_on_c, 0, 70, 75
1, 116482, Note_on_c, 0, 51, 71
1, 116482, Note_on_c, 0, 67, 82
1, 116484, Note_on_c, 0, 63, 68
1, 116486, Note_on_c, 0, 58, 66
1, 116494, Control_c, 0, 64, 0
1, 116538, Control_c, 0, 64, 66
1, 116553, Control_c, 0, 64, 86
1, 116554, Note_off_c, 0, 63, 61
1, 116568, Control_c, 0, 64, 127
1, 116573, Note_off_c, 0, 58, 55
1, 116578, Note_off_c, 0, 67, 59
1, 116578, Note_off_c, 0, 79, 61
1, 116611, Note_off_c, 0, 51, 59
1, 116614, Note_off_c, 0, 70, 57
1, 116730, Control_c, 0, 64, 91
1, 116731, Note_on_c, 0, 75, 88
1, 116739, Note_on_c, 0, 60, 75
1, 116745, Note_on_c, 0, 48, 68
1, 116745, Control_c, 0, 64, 62
1, 116748, Note_on_c, 0, 58, 65
1, 116748, Note_on_c, 0, 63, 76
1, 116748, Note_on_c, 0, 70, 66
1, 116760, Control_c, 0, 64, 0
1, 116805, Control_c, 0, 64, 65
1, 116820, Control_c, 0, 64, 82
1, 116834, Control_c, 0, 64, 127
1, 116851, Note_off_c, 0, 63, 60
1, 116873, Note_off_c, 0, 48, 60
1, 116896, Note_off_c, 0, 58, 59
1, 116898, Note_off_c, 0, 60, 57
1, 116900, Note_off_c, 0, 70, 61
1, 116925, Note_off_c, 0, 75, 62
1, 116969, Control_c, 0, 64, 105
1, 116984, Control_c, 0, 64, 73
1, 116988, Note_on_c, 0, 77, 96
1, 116993, Note_on_c, 0, 70, 84
1, 116996, Note_on_c, 0, 62, 70
1, 116998, Control_c, 0, 64, 0
1, 116999, Note_on_c, 0, 50, 62
1, 116999, Note_on_c, 0, 58, 71
1, 117000, Note_on_c, 0, 65, 74
1, 117042, Control_c, 0, 64, 64
1, 117057, Control_c, 0, 64, 84
1, 117072, Control_c, 0, 64, 127
1, 117087, Note_off_c, 0, 50, 63
1, 117113, Note_off_c, 0, 62, 62
1, 117130, Note_off_c, 0, 65, 57
1, 117149, Note_off_c, 0, 58, 57
1, 117159, Note_off_c, 0, 77, 62
1, 117186, Note_off_c, 0, 70, 63
1, 117228, Control_c, 0, 64, 109
1, 117243, Control_c, 0, 64, 74
1, 117258, Control_c, 0, 64, 0
1, 117261, Note_on_c, 0, 79, 100
1, 117264, Note_on_c, 0, 58, 70
1, 117264, Note_on_c, 0, 63, 70
1, 117267, Note_on_c, 0, 51, 66
1, 117268, Note_on_c, 0, 67, 84
1, 117268, Note_on_c, 0, 70, 85
1, 117303, Control_c, 0, 64, 59
1, 117318, Control_c, 0, 64, 76
1, 117324, Note_off_c, 0, 67, 54
1, 117332, Control_c, 0, 64, 108
1, 117337, Note_off_c, 0, 51, 62
1, 117344, Note_off_c, 0, 58, 61
1, 117347, Control_c, 0, 64, 127
1, 117353, Note_off_c, 0, 70, 63
1, 117369, Note_off_c, 0, 63, 59
1, 117379, Note_off_c, 0, 79, 62
1, 117591, Note_on_c, 0, 82, 104
1, 117606, Note_on_c, 0, 70, 87
1, 117610, Note_on_c, 0, 75, 78
1, 117610, Note_on_c, 0, 63, 58
1, 117612, Note_on_c, 0, 67, 62
1, 117616, Note_on_c, 0, 55, 61
1, 117643, Control_c, 0, 64, 95
1, 117657, Control_c, 0, 64, 73
1, 117672, Control_c, 0, 64, 0
1, 117747, Control_c, 0, 64, 47
1, 117762, Control_c, 0, 64, 67
1, 117777, Control_c, 0, 64, 82
1, 117792, Control_c, 0, 64, 108
1, 117807, Control_c, 0, 64, 127
1, 117891, Note_off_c, 0, 70, 60
1, 117926, Note_off_c, 0, 67, 58
1, 117997, Note_off_c, 0, 75, 37
1, 118075, Note_off_c, 0, 82, 60
1, 118097, Note_off_c, 0, 63, 0
1, 118111, Note_on_c, 0, 63, 50
1, 118120, Note_on_c, 0, 84, 96
1, 118127, Note_on_c, 0, 68, 75
1, 118127, Note_on_c, 0, 75, 83
1, 118131, Note_on_c, 0, 72, 81
1, 118138, Note_on_c, 0, 56, 67
1, 118155, Control_c, 0, 64, 106
1, 118158, Note_off_c, 0, 55, 60
1, 118170, Control_c, 0, 64, 78
1, 118185, Control_c, 0, 64, 57
1, 118199, Control_c, 0, 64, 0
1, 118303, Control_c, 0, 64, 64
1, 118318, Control_c, 0, 64, 74
1, 118333, Control_c, 0, 64, 85
1, 118347, Control_c, 0, 64, 111
1, 118362, Control_c, 0, 64, 127
1, 118432, Note_off_c, 0, 68, 59
1, 118462, Note_off_c, 0, 84, 58
1, 118463, Note_off_c, 0, 72, 60
1, 118479, Note_off_c, 0, 75, 58
1, 118508, Note_off_c, 0, 63, 37
1, 118611, Note_off_c, 0, 56, 55
1, 118667, Control_c, 0, 64, 85
1, 118673, Note_on_c, 0, 82, 84
1, 118680, Note_on_c, 0, 63, 52
1, 118682, Control_c, 0, 64, 55
1, 118685, Note_on_c, 0, 55, 54
1, 118686, Note_on_c, 0, 75, 68
1, 118687, Note_on_c, 0, 67, 52
1, 118696, Note_on_c, 0, 70, 66
1, 118696, Control_c, 0, 64, 0
1, 118722, Note_off_c, 0, 67, 63
1, 118726, Control_c, 0, 64, 56
1, 118740, Note_off_c, 0, 63, 58
1, 118740, Control_c, 0, 64, 75
1, 118746, Note_off_c, 0, 82, 64
1, 118755, Control_c, 0, 64, 98
1, 118755, Control_c, 0, 67, 8
1, 118760, Note_off_c, 0, 55, 61
1, 118768, Note_off_c, 0, 75, 58
1, 118769, Control_c, 0, 64, 127
1, 118769, Control_c, 0, 67, 9
1, 118784, Control_c, 0, 67, 10
1, 118793, Note_off_c, 0, 70, 62
1, 118799, Control_c, 0, 67, 10
1, 118814, Control_c, 0, 67, 11
1, 118880, Note_on_c, 0, 78, 14
1, 118930, Note_off_c, 0, 78, 51
1, 118933, Control_c, 0, 67, 11
1, 118947, Control_c, 0, 67, 12
1, 118962, Control_c, 0, 64, 91
1, 118962, Control_c, 0, 67, 13
1, 118977, Control_c, 0, 64, 64
1, 118977, Control_c, 0, 67, 16
1, 118990, Note_on_c, 0, 65, 63
1, 118990, Note_on_c, 0, 77, 65
1, 118992, Control_c, 0, 64, 0
1, 118992, Control_c, 0, 67, 20
1, 118994, Note_on_c, 0, 70, 51
1, 119002, Note_on_c, 0, 50, 53
1, 119002, Note_on_c, 0, 58, 57
1, 119005, Note_on_c, 0, 62, 49
1, 119007, Control_c, 0, 67, 23
1, 119021, Control_c, 0, 67, 25
1, 119036, Control_c, 0, 64, 66
1, 119036, Control_c, 0, 67, 28
1, 119041, Note_off_c, 0, 65, 61
1, 119051, Control_c, 0, 64, 78
1, 119051, Control_c, 0, 67, 30
1, 119064, Note_off_c, 0, 62, 55
1, 119066, Control_c, 0, 64, 100
1, 119066, Control_c, 0, 67, 34
1, 119067, Note_off_c, 0, 58, 58
1, 119069, Note_off_c, 0, 70, 61
1, 119081, Control_c, 0, 64, 127
1, 119081, Control_c, 0, 67, 36
1, 119088, Note_off_c, 0, 50, 54
1, 119095, Control_c, 0, 67, 38
1, 119110, Control_c, 0, 67, 39
1, 119125, Control_c, 0, 67, 40
1, 119169, Control_c, 0, 67, 39
1, 119184, Control_c, 0, 67, 38
1, 119199, Control_c, 0, 67, 38
1, 119213, Control_c, 0, 67, 37
1, 119228, Control_c, 0, 67, 36
1, 119243, Control_c, 0, 67, 35
1, 119244, Note_off_c, 0, 77, 61
1, 119258, Control_c, 0, 67, 33
1, 119264, Note_on_c, 0, 69, 71
1, 119273, Control_c, 0, 67, 33
1, 119288, Control_c, 0, 64, 102
1, 119288, Control_c, 0, 67, 32
1, 119303, Control_c, 0, 64, 74
1, 119311, Note_on_c, 0, 70, 66
1, 119318, Control_c, 0, 64, 36
1, 119324, Note_off_c, 0, 69, 54
1, 119333, Control_c, 0, 64, 0
1, 119333, Control_c, 0, 67, 33
1, 119365, Note_on_c, 0, 74, 80
1, 119369, Control_c, 0, 67, 33
1, 119399, Note_off_c, 0, 70, 63
1, 119400, Control_c, 0, 67, 34
1, 119409, Note_on_c, 0, 77, 60
1, 119415, Control_c, 0, 67, 34
1, 119422, Note_off_c, 0, 74, 65
1, 119430, Note_off_c, 0, 77, 62
1, 119445, Control_c, 0, 67, 35
1, 119474, Control_c, 0, 67, 36
1, 119482, Note_on_c, 0, 79, 89
1, 119485, Note_on_c, 0, 67, 70
1, 119485, Note_on_c, 0, 70, 71
1, 119488, Control_c, 0, 67, 37
1, 119491, Note_on_c, 0, 51, 72
1, 119494, Note_on_c, 0, 39, 62
1, 119497, Note_on_c, 0, 75, 64
1, 119500, Note_on_c, 0, 46, 59
1, 119503, Control_c, 0, 67, 37
1, 119509, Note_off_c, 0, 70, 63
1, 119515, Note_off_c, 0, 51, 67
1, 119518, Control_c, 0, 67, 38
1, 119524, Note_off_c, 0, 39, 62
1, 119526, Note_off_c, 0, 46, 58
1, 119526, Note_off_c, 0, 75, 61
1, 119532, Control_c, 0, 67, 39
1, 119541, Note_off_c, 0, 67, 48
1, 119562, Control_c, 0, 67, 40
1, 119607, Control_c, 0, 67, 39
1, 119616, Note_on_c, 0, 45, 59
1, 119626, Note_on_c, 0, 43, 54
1, 119637, Control_c, 0, 67, 39
1, 119649, Note_off_c, 0, 45, 65
1, 119655, Note_off_c, 0, 43, 54
1, 119666, Control_c, 0, 67, 38
1, 119720, Note_on_c, 0, 46, 71
1, 119764, Note_off_c, 0, 46, 58
1, 119769, Control_c, 0, 67, 38
1, 119784, Control_c, 0, 67, 37
1, 119814, Control_c, 0, 67, 37
1, 119837, Note_on_c, 0, 51, 70
1, 119843, Control_c, 0, 67, 36
1, 119858, Control_c, 0, 67, 36
1, 119870, Note_off_c, 0, 51, 67
1, 119873, Control_c, 0, 67, 35
1, 119903, Control_c, 0, 67, 34
1, 119932, Control_c, 0, 67, 34
1, 119938, Note_on_c, 0, 55, 58
1, 119947, Control_c, 0, 67, 33
1, 119962, Control_c, 0, 67, 32
1, 119965, Note_off_c, 0, 55, 65
1, 119977, Control_c, 0, 67, 32
1, 119984, Note_off_c, 0, 79, 57
1, 120006, Control_c, 0, 67, 31
1, 120021, Control_c, 0, 67, 31
1, 120034, Note_on_c, 0, 77, 51
1, 120036, Control_c, 0, 67, 30
1, 120041, Note_on_c, 0, 58, 63
1, 120051, Control_c, 0, 67, 30
1, 120057, Note_off_c, 0, 77, 61
1, 120066, Control_c, 0, 67, 29
1, 120071, Note_off_c, 0, 58, 65
1, 120072, Note_on_c, 0, 79, 76
1, 120081, Control_c, 0, 67, 29
1, 120117, Control_c, 0, 67, 28
1, 120121, Note_off_c, 0, 79, 63
1, 120126, Note_on_c, 0, 77, 81
1, 120138, Note_on_c, 0, 63, 62
1, 120152, Note_off_c, 0, 77, 64
1, 120161, Note_off_c, 0, 63, 62
1, 120207, Control_c, 0, 67, 29
1, 120238, Control_c, 0, 67, 29
1, 120243, Note_on_c, 0, 75, 79
1, 120245, Note_on_c, 0, 67, 69
1, 120253, Control_c, 0, 67, 30
1, 120268, Control_c, 0, 67, 30
1, 120269, Note_off_c, 0, 67, 67
1, 120282, Control_c, 0, 67, 31
1, 120285, Note_off_c, 0, 75, 61
1, 120297, Control_c, 0, 67, 31
1, 120327, Control_c, 0, 67, 32
1, 120342, Control_c, 0, 67, 32
1, 120360, Note_on_c, 0, 74, 80
1, 120370, Note_on_c, 0, 70, 55
1, 120371, Control_c, 0, 67, 33
1, 120386, Control_c, 0, 67, 34
1, 120391, Note_off_c, 0, 70, 61
1, 120400, Control_c, 0, 67, 34
1, 120414, Note_off_c, 0, 74, 62
1, 120415, Control_c, 0, 67, 35
1, 120430, Control_c, 0, 67, 36
1, 120460, Control_c, 0, 67, 36
1, 120461, Note_on_c, 0, 75, 70
1, 120525, Note_off_c, 0, 75, 60
1, 120549, Control_c, 0, 67, 36
1, 120579, Note_on_c, 0, 63, 70
1, 120579, Note_on_c, 0, 72, 75
1, 120589, Note_on_c, 0, 66, 69
1, 120591, Note_on_c, 0, 69, 60
1, 120593, Control_c, 0, 67, 35
1, 120605, Note_off_c, 0, 63, 68
1, 120623, Control_c, 0, 67, 35
1, 120625, Note_off_c, 0, 69, 58
1, 120638, Control_c, 0, 67, 34
1, 120653, Control_c, 0, 67, 33
1, 120659, Note_off_c, 0, 72, 56
1, 120667, Control_c, 0, 67, 32
1, 120681, Note_on_c, 0, 74, 68
1, 120682, Control_c, 0, 67, 30
1, 120697, Control_c, 0, 67, 30
1, 120712, Control_c, 0, 67, 29
1, 120727, Control_c, 0, 67, 28
1, 120741, Control_c, 0, 67, 27
1, 120756, Control_c, 0, 67, 26
1, 120762, Note_off_c, 0, 74, 57
1, 120771, Control_c, 0, 67, 24
1, 120785, Control_c, 0, 67, 21
1, 120799, Note_on_c, 0, 70, 73
1, 120800, Control_c, 0, 67, 16
1, 120810, Note_on_c, 0, 67, 61
1, 120811, Note_off_c, 0, 66, 62
1, 120815, Control_c, 0, 67, 10
1, 120823, Note_off_c, 0, 70, 70
1, 120830, Note_off_c, 0, 67, 63
1, 120830, Control_c, 0, 67, 0
1, 121059, Note_on_c, 0, 44, 74
1, 121059, Note_on_c, 0, 65, 75
1, 121059, Note_on_c, 0, 72, 85
1, 121062, Note_on_c, 0, 60, 71
1, 121069, Note_on_c, 0, 56, 56
1, 121072, Note_on_c, 0, 51, 57
1, 121080, Note_off_c, 0, 65, 70
1, 121081, Note_off_c, 0, 60, 67
1, 121088, Note_off_c, 0, 72, 62
1, 121091, Note_off_c, 0, 44, 67
1, 121092, Note_off_c, 0, 56, 60
1, 121097, Note_off_c, 0, 51, 60
1, 121282, Control_c, 0, 64, 54
1, 121297, Control_c, 0, 64, 66
1, 121312, Control_c, 0, 64, 72
1, 121327, Control_c, 0, 64, 81
1, 121327, Control_c, 0, 67, 8
1, 121327, Note_on_c, 0, 51, 71
1, 121328, Note_on_c, 0, 39, 68
1, 121328, Note_on_c, 0, 79, 99
1, 121330, Note_on_c, 0, 46, 73
1, 121334, Note_on_c, 0, 70, 88
1, 121338, Note_on_c, 0, 67, 77
1, 121341, Control_c, 0, 64, 95
1, 121341, Control_c, 0, 67, 9
1, 121351, Note_on_c, 0, 75, 64
1, 121356, Note_off_c, 0, 39, 63
1, 121356, Control_c, 0, 64, 124
1, 121356, Control_c, 0, 67, 11
1, 121357, Note_off_c, 0, 70, 61
1, 121359, Note_off_c, 0, 46, 65
1, 121361, Note_off_c, 0, 67, 69
1, 121363, Note_off_c, 0, 51, 63
1, 121371, Control_c, 0, 64, 127
1, 121371, Control_c, 0, 67, 13
1, 121386, Control_c, 0, 67, 15
1, 121390, Note_off_c, 0, 75, 44
1, 121401, Control_c, 0, 67, 17
1, 121415, Control_c, 0, 67, 17
1, 121430, Control_c, 0, 67, 18
1, 121464, Note_on_c, 0, 45, 70
1, 121475, Control_c, 0, 64, 113
1, 121489, Control_c, 0, 64, 80
1, 121489, Control_c, 0, 67, 18
1, 121503, Note_off_c, 0, 45, 66
1, 121504, Control_c, 0, 64, 59
1, 121504, Control_c, 0, 67, 19
1, 121519, Control_c, 0, 64, 0
1, 121519, Control_c, 0, 67, 20
1, 121534, Control_c, 0, 67, 21
1, 121548, Control_c, 0, 67, 22
1, 121563, Control_c, 0, 67, 23
1, 121578, Control_c, 0, 67, 25
1, 121601, Control_c, 0, 67, 26
1, 121616, Control_c, 0, 67, 28
1, 121630, Control_c, 0, 67, 30
1, 121645, Control_c, 0, 67, 30
1, 121660, Control_c, 0, 67, 31
1, 121694, Note_on_c, 0, 51, 66
1, 121729, Note_off_c, 0, 51, 63
1, 121734, Control_c, 0, 67, 31
1, 121794, Note_on_c, 0, 55, 63
1, 121822, Note_off_c, 0, 55, 65
1, 121857, Note_off_c, 0, 79, 55
1, 121868, Control_c, 0, 67, 30
1, 121882, Note_on_c, 0, 77, 67
1, 121894, Note_on_c, 0, 58, 68
1, 121898, Control_c, 0, 67, 30
1, 121912, Control_c, 0, 67, 29
1, 121919, Note_off_c, 0, 77, 60
1, 121927, Note_off_c, 0, 58, 62
1, 121935, Note_on_c, 0, 79, 72
1, 121942, Control_c, 0, 67, 29
1, 121973, Note_off_c, 0, 79, 63
1, 121975, Note_on_c, 0, 77, 69
1, 121980, Note_on_c, 0, 63, 73
1, 121986, Control_c, 0, 67, 28
1, 122001, Control_c, 0, 67, 28
1, 122005, Note_off_c, 0, 63, 68
1, 122010, Note_off_c, 0, 77, 62
1, 122080, Note_on_c, 0, 67, 71
1, 122090, Note_on_c, 0, 75, 76
1, 122114, Note_off_c, 0, 67, 62
1, 122120, Note_off_c, 0, 75, 60
1, 122150, Control_c, 0, 67, 28
1, 122194, Note_on_c, 0, 74, 77
1, 122194, Control_c, 0, 67, 29
1, 122202, Note_on_c, 0, 70, 61
1, 122227, Note_off_c, 0, 70, 65
1, 122233, Note_off_c, 0, 74, 65
1, 122238, Control_c, 0, 67, 29
1, 122294, Note_on_c, 0, 75, 74
1, 122346, Note_off_c, 0, 75, 60
1, 122364, Control_c, 0, 67, 29
1, 122415, Note_on_c, 0, 63, 69
1, 122416, Note_on_c, 0, 72, 71
1, 122424, Control_c, 0, 67, 29
1, 122429, Note_on_c, 0, 69, 56
1, 122431, Note_on_c, 0, 66, 64
1, 122439, Control_c, 0, 67, 30
1, 122442, Note_off_c, 0, 63, 67
1, 122468, Control_c, 0, 67, 30
1, 122477, Note_off_c, 0, 69, 60
1, 122498, Control_c, 0, 67, 30
1, 122508, Note_off_c, 0, 72, 60
1, 122513, Control_c, 0, 67, 29
1, 122527, Note_on_c, 0, 74, 65
1, 122527, Control_c, 0, 67, 27
1, 122542, Control_c, 0, 67, 26
1, 122557, Control_c, 0, 67, 24
1, 122573, Control_c, 0, 67, 23
1, 122587, Control_c, 0, 67, 21
1, 122602, Control_c, 0, 67, 19
1, 122617, Control_c, 0, 67, 14
1, 122627, Note_off_c, 0, 74, 45
1, 122632, Control_c, 0, 67, 8
1, 122645, Note_on_c, 0, 70, 76
1, 122647, Control_c, 0, 67, 0
1, 122662, Note_off_c, 0, 66, 63
1, 122663, Note_on_c, 0, 67, 53
1, 122668, Note_off_c, 0, 70, 68
1, 122687, Note_off_c, 0, 67, 58
1, 122898, Control_c, 0, 64, 62
1, 122907, Note_on_c, 0, 44, 64
1, 122907, Note_on_c, 0, 72, 79
1, 122910, Note_on_c, 0, 56, 53
1, 122910, Note_on_c, 0, 65, 63
1, 122912, Note_on_c, 0, 60, 62
1, 122913, Note_on_c, 0, 51, 55
1, 122913, Control_c, 0, 64, 71
1, 122928, Note_off_c, 0, 72, 70
1, 122928, Control_c, 0, 64, 79
1, 122930, Note_off_c, 0, 65, 65
1, 122932, Note_off_c, 0, 60, 63
1, 122935, Note_off_c, 0, 56, 60
1, 122940, Note_off_c, 0, 44, 65
1, 122940, Note_off_c, 0, 51, 64
1, 122943, Control_c, 0, 64, 89
1, 122958, Control_c, 0, 64, 100
1, 122972, Control_c, 0, 64, 121
1, 122987, Control_c, 0, 64, 127
1, 123215, Note_on_c, 0, 79, 90
1, 123217, Control_c, 0, 64, 84
1, 123226, Note_on_c, 0, 39, 64
1, 123229, Note_on_c, 0, 46, 65
1, 123229, Note_on_c, 0, 51, 63
1, 123231, Note_on_c, 0, 70, 66
1, 123232, Note_on_c, 0, 67, 63
1, 123232, Control_c, 0, 64, 50
1, 123241, Note_on_c, 0, 75, 59
1, 123247, Control_c, 0, 64, 0
1, 123306, Control_c, 0, 64, 59
1, 123321, Control_c, 0, 64, 75
1, 123336, Control_c, 0, 64, 99
1, 123336, Note_off_c, 0, 39, 61
1, 123351, Control_c, 0, 64, 127
1, 123352, Note_off_c, 0, 46, 63
1, 123365, Note_off_c, 0, 51, 64
1, 123417, Note_off_c, 0, 70, 57
1, 123423, Note_off_c, 0, 67, 54
1, 123428, Note_off_c, 0, 79, 59
1, 123530, Control_c, 0, 64, 102
1, 123542, Note_on_c, 0, 79, 82
1, 123545, Control_c, 0, 64, 70
1, 123550, Note_on_c, 0, 63, 71
1, 123551, Note_on_c, 0, 67, 72
1, 123554, Note_on_c, 0, 70, 71
1, 123555, Note_on_c, 0, 58, 68
1, 123559, Control_c, 0, 64, 0
1, 123563, Note_on_c, 0, 51, 58
1, 123568, Note_off_c, 0, 75, 63
1, 123604, Control_c, 0, 64, 19
1, 123618, Control_c, 0, 64, 66
1, 123633, Control_c, 0, 64, 82
1, 123648, Control_c, 0, 64, 119
1, 123663, Note_off_c, 0, 79, 62
1, 123663, Control_c, 0, 64, 127
1, 123664, Note_off_c, 0, 67, 61
1, 123698, Note_off_c, 0, 70, 61
1, 123709, Note_off_c, 0, 51, 63
1, 123709, Note_off_c, 0, 58, 61
1, 123723, Note_off_c, 0, 63, 58
1, 123805, Note_on_c, 0, 80, 93
1, 123807, Note_on_c, 0, 70, 81
1, 123810, Control_c, 0, 64, 91
1, 123815, Note_on_c, 0, 68, 78
1, 123820, Note_on_c, 0, 65, 77
1, 123822, Note_on_c, 0, 58, 68
1, 123825, Note_on_c, 0, 53, 70
1, 123825, Control_c, 0, 64, 63
1, 123848, Control_c, 0, 64, 0
1, 123878, Control_c, 0, 64, 67
1, 123892, Control_c, 0, 64, 87
1, 123907, Control_c, 0, 64, 127
1, 123930, Note_off_c, 0, 65, 63
1, 123940, Note_off_c, 0, 53, 64
1, 123944, Note_off_c, 0, 58, 63
1, 123950, Note_off_c, 0, 68, 62
1, 123976, Note_off_c, 0, 70, 60
1, 123987, Note_off_c, 0, 80, 59
1, 124061, Note_on_c, 0, 79, 98
1, 124065, Note_on_c, 0, 58, 80
1, 124069, Note_on_c, 0, 70, 88
1, 124069, Note_on_c, 0, 67, 81
1, 124070, Control_c, 0, 64, 91
1, 124072, Note_on_c, 0, 63, 77
1, 124079, Note_on_c, 0, 51, 67
1, 124085, Control_c, 0, 64, 62
1, 124099, Control_c, 0, 64, 0
1, 124144, Control_c, 0, 64, 72
1, 124159, Control_c, 0, 64, 94
1, 124174, Control_c, 0, 64, 127
1, 124192, Note_off_c, 0, 79, 57
1, 124201, Note_off_c, 0, 67, 62
1, 124209, Note_off_c, 0, 63, 56
1, 124216, Note_off_c, 0, 58, 59
1, 124227, Note_off_c, 0, 51, 65
1, 124232, Note_off_c, 0, 70, 63
1, 124314, Note_on_c, 0, 77, 94
1, 124318, Note_on_c, 0, 50, 75
1, 124323, Control_c, 0, 64, 75
1, 124324, Note_on_c, 0, 62, 66
1, 124324, Note_on_c, 0, 70, 83
1, 124326, Note_on_c, 0, 65, 75
1, 124326, Note_on_c, 0, 58, 59
1, 124338, Control_c, 0, 64, 0
1, 124382, Control_c, 0, 64, 54
1, 124397, Control_c, 0, 64, 73
1, 124412, Control_c, 0, 64, 95
1, 124427, Control_c, 0, 64, 127
1, 124439, Note_off_c, 0, 62, 60
1, 124447, Note_off_c, 0, 50, 63
1, 124463, Note_off_c, 0, 58, 61
1, 124467, Note_off_c, 0, 65, 60
1, 124473, Note_off_c, 0, 77, 62
1, 124501, Note_off_c, 0, 70, 62
1, 124559, Control_c, 0, 64, 99
1, 124574, Control_c, 0, 64, 69
1, 124577, Note_on_c, 0, 79, 89
1, 124578, Note_on_c, 0, 58, 67
1, 124591, Note_on_c, 0, 63, 67
1, 124593, Note_on_c, 0, 67, 77
1, 124595, Note_on_c, 0, 70, 78
1, 124596, Note_on_c, 0, 51, 64
1, 124597, Control_c, 0, 64, 0
1, 124627, Control_c, 0, 64, 54
1, 124641, Control_c, 0, 64, 73
1, 124642, Note_off_c, 0, 58, 57
1, 124645, Note_off_c, 0, 63, 53
1, 124656, Control_c, 0, 64, 93
1, 124657, Note_off_c, 0, 79, 61
1, 124671, Control_c, 0, 64, 127
1, 124678, Note_off_c, 0, 51, 61
1, 124680, Note_off_c, 0, 67, 59
1, 124691, Note_off_c, 0, 70, 61
1, 124818, Control_c, 0, 67, 8
1, 124832, Control_c, 0, 67, 9
1, 124847, Control_c, 0, 64, 101
1, 124847, Control_c, 0, 67, 10
1, 124851, Note_on_c, 0, 75, 81
1, 124856, Note_on_c, 0, 60, 57
1, 124859, Note_on_c, 0, 55, 50
1, 124861, Note_on_c, 0, 48, 57
1, 124862, Control_c, 0, 64, 76
1, 124862, Control_c, 0, 67, 12
1, 124863, Note_on_c, 0, 67, 62
1, 124867, Note_on_c, 0, 63, 60
1, 124877, Control_c, 0, 64, 53
1, 124877, Control_c, 0, 67, 15
1, 124892, Control_c, 0, 64, 0
1, 124892, Control_c, 0, 67, 18
1, 124907, Control_c, 0, 64, 59
1, 124907, Control_c, 0, 67, 21
1, 124922, Control_c, 0, 64, 70
1, 124922, Control_c, 0, 67, 25
1, 124937, Control_c, 0, 64, 84
1, 124937, Control_c, 0, 67, 27
1, 124952, Control_c, 0, 64, 127
1, 124952, Control_c, 0, 67, 29
1, 124965, Note_off_c, 0, 48, 61
1, 124967, Control_c, 0, 67, 30
1, 124968, Note_off_c, 0, 60, 56
1, 124978, Note_off_c, 0, 55, 59
1, 124979, Note_off_c, 0, 63, 59
1, 124982, Control_c, 0, 67, 30
1, 124996, Control_c, 0, 67, 31
1, 125002, Note_off_c, 0, 67, 50
1, 125014, Note_off_c, 0, 75, 60
1, 125041, Control_c, 0, 67, 32
1, 125123, Note_on_c, 0, 77, 80
1, 125131, Note_on_c, 0, 62, 60
1, 125131, Control_c, 0, 64, 89
1, 125134, Note_on_c, 0, 67, 58
1, 125137, Note_on_c, 0, 65, 58
1, 125145, Note_on_c, 0, 50, 49
1, 125145, Note_on_c, 0, 55, 50
1, 125145, Control_c, 0, 64, 66
1, 125151, Note_on_c, 0, 68, 34
1, 125160, Control_c, 0, 64, 0
1, 125160, Control_c, 0, 67, 32
1, 125189, Control_c, 0, 67, 33
1, 125208, Note_off_c, 0, 62, 57
1, 125219, Control_c, 0, 64, 59
1, 125219, Control_c, 0, 67, 33
1, 125231, Note_off_c, 0, 77, 60
1, 125234, Control_c, 0, 64, 70
1, 125234, Control_c, 0, 67, 34
1, 125249, Control_c, 0, 64, 84
1, 125249, Control_c, 0, 67, 35
1, 125250, Note_off_c, 0, 50, 63
1, 125255, Note_off_c, 0, 65, 61
1, 125263, Control_c, 0, 64, 114
1, 125263, Control_c, 0, 67, 37
1, 125268, Note_off_c, 0, 55, 57
1, 125278, Control_c, 0, 64, 127
1, 125278, Control_c, 0, 67, 40
1, 125283, Note_off_c, 0, 68, 22
1, 125293, Control_c, 0, 67, 41
1, 125308, Control_c, 0, 67, 44
1, 125323, Control_c, 0, 67, 45
1, 125345, Control_c, 0, 67, 46
1, 125354, Note_off_c, 0, 67, 37
1, 125360, Control_c, 0, 67, 46
1, 125389, Control_c, 0, 67, 47
1, 125419, Control_c, 0, 67, 48
1, 125458, Note_on_c, 0, 55, 45
1, 125461, Note_on_c, 0, 74, 71
1, 125463, Control_c, 0, 67, 47
1, 125468, Note_on_c, 0, 46, 55
1, 125471, Note_on_c, 0, 67, 49
1, 125472, Note_on_c, 0, 58, 51
1, 125476, Note_on_c, 0, 62, 51
1, 125478, Control_c, 0, 64, 85
1, 125478, Control_c, 0, 67, 46
1, 125493, Control_c, 0, 64, 63
1, 125493, Control_c, 0, 67, 45
1, 125507, Control_c, 0, 64, 0
1, 125507, Control_c, 0, 67, 44
1, 125522, Control_c, 0, 67, 42
1, 125537, Control_c, 0, 67, 41
1, 125552, Control_c, 0, 64, 59
1, 125552, Control_c, 0, 67, 39
1, 125567, Control_c, 0, 64, 73
1, 125567, Control_c, 0, 67, 37
1, 125581, Control_c, 0, 64, 95
1, 125581, Control_c, 0, 67, 36
1, 125596, Control_c, 0, 64, 127
1, 125596, Control_c, 0, 67, 33
1, 125611, Control_c, 0, 67, 30
1, 125626, Control_c, 0, 67, 27
1, 125641, Control_c, 0, 67, 26
1, 125643, Note_off_c, 0, 58, 57
1, 125652, Note_off_c, 0, 62, 56
1, 125652, Note_off_c, 0, 46, 55
1, 125655, Note_off_c, 0, 74, 60
1, 125657, Note_off_c, 0, 55, 60
1, 125667, Note_off_c, 0, 67, 59
1, 125686, Control_c, 0, 67, 26
1, 125701, Control_c, 0, 67, 27
1, 125730, Control_c, 0, 64, 93
1, 125733, Note_on_c, 0, 74, 79
1, 125733, Note_on_c, 0, 46, 54
1, 125739, Note_on_c, 0, 55, 47
1, 125743, Note_on_c, 0, 58, 59
1, 125745, Note_on_c, 0, 62, 56
1, 125745, Control_c, 0, 64, 69
1, 125748, Note_on_c, 0, 67, 54
1, 125761, Control_c, 0, 64, 0
1, 125776, Control_c, 0, 64, 49
1, 125791, Control_c, 0, 64, 65
1, 125791, Control_c, 0, 67, 26
1, 125806, Control_c, 0, 64, 76
1, 125820, Control_c, 0, 64, 95
1, 125835, Control_c, 0, 64, 127
1, 125849, Note_off_c, 0, 46, 61
1, 125861, Note_off_c, 0, 62, 59
1, 125865, Control_c, 0, 67, 26
1, 125868, Note_off_c, 0, 58, 61
1, 125880, Control_c, 0, 67, 25
1, 125881, Note_off_c, 0, 74, 61
1, 125895, Note_off_c, 0, 55, 43
1, 125909, Control_c, 0, 67, 25
1, 125910, Note_off_c, 0, 67, 58
1, 125983, Control_c, 0, 67, 24
1, 125989, Note_on_c, 0, 55, 65
1, 125992, Note_on_c, 0, 75, 80
1, 125995, Note_on_c, 0, 60, 72
1, 125998, Control_c, 0, 64, 93
1, 125998, Control_c, 0, 67, 24
1, 126001, Note_on_c, 0, 67, 67
1, 126003, Note_on_c, 0, 48, 67
1, 126004, Note_on_c, 0, 63, 61
1, 126013, Control_c, 0, 64, 69
1, 126028, Control_c, 0, 64, 27
1, 126028, Control_c, 0, 67, 23
1, 126043, Control_c, 0, 64, 60
1, 126043, Control_c, 0, 67, 23
1, 126058, Control_c, 0, 64, 74
1, 126058, Control_c, 0, 67, 22
1, 126073, Control_c, 0, 64, 95
1, 126073, Control_c, 0, 67, 21
1, 126089, Note_off_c, 0, 60, 61
1, 126094, Control_c, 0, 64, 127
1, 126094, Control_c, 0, 67, 20
1, 126096, Note_off_c, 0, 48, 61
1, 126109, Control_c, 0, 67, 19
1, 126124, Control_c, 0, 67, 15
1, 126126, Note_off_c, 0, 63, 60
1, 126138, Control_c, 0, 67, 12
1, 126145, Note_off_c, 0, 55, 63
1, 126153, Control_c, 0, 67, 9
1, 126157, Note_off_c, 0, 67, 49
1, 126163, Note_off_c, 0, 75, 61
1, 126168, Control_c, 0, 67, 8
1, 126213, Control_c, 0, 67, 8
1, 126242, Control_c, 0, 64, 93
1, 126243, Note_on_c, 0, 55, 70
1, 126245, Note_on_c, 0, 46, 74
1, 126245, Note_on_c, 0, 74, 85
1, 126246, Note_on_c, 0, 58, 71
1, 126251, Note_on_c, 0, 67, 63
1, 126257, Note_on_c, 0, 62, 69
1, 126257, Control_c, 0, 64, 65
1, 126257, Control_c, 0, 67, 0
1, 126272, Control_c, 0, 64, 0
1, 126317, Control_c, 0, 64, 68
1, 126332, Control_c, 0, 64, 87
1, 126346, Control_c, 0, 64, 127
1, 126359, Note_off_c, 0, 58, 61
1, 126370, Note_off_c, 0, 55, 55
1, 126372, Note_off_c, 0, 62, 55
1, 126375, Note_off_c, 0, 46, 59
1, 126387, Note_off_c, 0, 74, 61
1, 126397, Note_off_c, 0, 67, 52
1, 126487, Note_on_c, 0, 72, 85
1, 126494, Note_on_c, 0, 55, 56
1, 126494, Note_on_c, 0, 57, 68
1, 126494, Control_c, 0, 64, 79
1, 126495, Note_on_c, 0, 45, 67
1, 126496, Note_on_c, 0, 60, 75
1, 126502, Note_on_c, 0, 67, 71
1, 126509, Control_c, 0, 64, 0
1, 126512, Note_on_c, 0, 54, 43
1, 126553, Note_off_c, 0, 54, 49
1, 126554, Control_c, 0, 64, 64
1, 126569, Control_c, 0, 64, 83
1, 126584, Control_c, 0, 64, 127
1, 126585, Note_off_c, 0, 45, 63
1, 126617, Note_off_c, 0, 57, 58
1, 126621, Note_off_c, 0, 60, 58
1, 126636, Note_off_c, 0, 67, 55
1, 126639, Note_off_c, 0, 55, 61
1, 126675, Note_off_c, 0, 72, 62
1, 126732, Control_c, 0, 64, 76
1, 126743, Note_on_c, 0, 74, 88
1, 126747, Control_c, 0, 64, 0
1, 126749, Note_on_c, 0, 55, 69
1, 126753, Note_on_c, 0, 62, 76
1, 126753, Note_on_c, 0, 67, 75
1, 126755, Note_on_c, 0, 58, 69
1, 126764, Note_on_c, 0, 46, 65
1, 126791, Control_c, 0, 64, 60
1, 126794, Note_off_c, 0, 55, 64
1, 126806, Note_off_c, 0, 74, 64
1, 126806, Note_off_c, 0, 58, 57
1, 126806, Control_c, 0, 64, 78
1, 126821, Control_c, 0, 64, 127
1, 126827, Note_off_c, 0, 62, 60
1, 126862, Note_off_c, 0, 46, 59
1, 126866, Note_off_c, 0, 67, 59
1, 127009, Note_on_c, 0, 70, 85
1, 127022, Note_on_c, 0, 67, 72
1, 127022, Control_c, 0, 64, 77
1, 127023, Note_on_c, 0, 43, 69
1, 127023, Note_on_c, 0, 55, 68
1, 127024, Note_on_c, 0, 50, 65
1, 127025, Note_on_c, 0, 58, 73
1, 127036, Control_c, 0, 64, 0
1, 127081, Control_c, 0, 64, 55
1, 127096, Control_c, 0, 64, 82
1, 127110, Control_c, 0, 64, 127
1, 127136, Note_off_c, 0, 43, 62
1, 127137, Note_off_c, 0, 67, 50
1, 127144, Note_off_c, 0, 58, 60
1, 127162, Note_off_c, 0, 55, 59
1, 127175, Note_off_c, 0, 50, 63
1, 127202, Note_off_c, 0, 70, 59
1, 127274, Control_c, 0, 64, 94
1, 127277, Note_on_c, 0, 72, 89
1, 127284, Note_on_c, 0, 50, 68
1, 127285, Note_on_c, 0, 57, 76
1, 127287, Note_on_c, 0, 67, 68
1, 127288, Control_c, 0, 64, 63
1, 127290, Note_on_c, 0, 45, 67
1, 127290, Note_on_c, 0, 60, 74
1, 127303, Control_c, 0, 64, 0
1, 127348, Control_c, 0, 64, 66
1, 127363, Control_c, 0, 64, 83
1, 127378, Control_c, 0, 64, 127
1, 127391, Note_off_c, 0, 60, 58
1, 127394, Note_off_c, 0, 57, 57
1, 127413, Note_off_c, 0, 45, 62
1, 127417, Note_off_c, 0, 67, 57
1, 127428, Note_off_c, 0, 50, 54
1, 127571, Control_c, 0, 64, 88
1, 127575, Note_on_c, 0, 50, 65
1, 127575, Note_on_c, 0, 74, 90
1, 127578, Note_off_c, 0, 72, 47
1, 127586, Note_on_c, 0, 58, 75
1, 127587, Note_on_c, 0, 46, 73
1, 127592, Note_on_c, 0, 62, 71
1, 127593, Control_c, 0, 64, 48
1, 127596, Note_on_c, 0, 67, 69
1, 127608, Control_c, 0, 64, 0
1, 127652, Control_c, 0, 64, 56
1, 127667, Control_c, 0, 64, 77
1, 127682, Note_off_c, 0, 58, 56
1, 127682, Control_c, 0, 64, 103
1, 127691, Note_off_c, 0, 74, 64
1, 127697, Control_c, 0, 64, 127
1, 127713, Note_off_c, 0, 62, 59
1, 127716, Note_off_c, 0, 50, 60
1, 127769, Note_off_c, 0, 67, 58
1, 127819, Note_off_c, 0, 46, 56
1, 127879, Note_on_c, 0, 70, 82
1, 127883, Note_on_c, 0, 55, 70
1, 127884, Note_on_c, 0, 50, 63
1, 127889, Note_on_c, 0, 67, 69
1, 127893, Note_on_c, 0, 43, 64
1, 127901, Note_on_c, 0, 58, 73
1, 127918, Control_c, 0, 64, 102
1, 127933, Control_c, 0, 64, 71
1, 127948, Control_c, 0, 64, 0
1, 128007, Control_c, 0, 64, 66
1, 128022, Control_c, 0, 64, 78
1, 128037, Control_c, 0, 64, 101
1, 128052, Control_c, 0, 64, 127
1, 128134, Note_off_c, 0, 58, 60
1, 128155, Note_off_c, 0, 43, 54
1, 128158, Note_off_c, 0, 67, 48
1, 128189, Note_off_c, 0, 55, 56
1, 128264, Note_off_c, 0, 50, 36
1, 128314, Note_off_c, 0, 70, 61
1, 128356, Control_c, 0, 64, 90
1, 128362, Note_on_c, 0, 45, 77
1, 128364, Note_on_c, 0, 57, 79
1, 128365, Note_on_c, 0, 50, 76
1, 128369, Note_on_c, 0, 72, 86
1, 128370, Note_on_c, 0, 67, 75
1, 128371, Note_on_c, 0, 60, 79
1, 128371, Control_c, 0, 64, 63
1, 128386, Control_c, 0, 64, 0
1, 128416, Control_c, 0, 64, 31
1, 128430, Control_c, 0, 64, 74
1, 128445, Control_c, 0, 64, 98
1, 128460, Control_c, 0, 64, 127
1, 128465, Note_off_c, 0, 57, 60
1, 128498, Note_off_c, 0, 60, 55
1, 128504, Note_off_c, 0, 72, 60
1, 128506, Note_off_c, 0, 45, 62
1, 128514, Note_off_c, 0, 50, 59
1, 128594, Note_off_c, 0, 67, 37
1, 128623, Control_c, 0, 64, 77
1, 128638, Control_c, 0, 64, 0
1, 128639, Note_on_c, 0, 58, 86
1, 128639, Note_on_c, 0, 74, 95
1, 128641, Note_on_c, 0, 50, 78
1, 128641, Note_on_c, 0, 62, 88
1, 128642, Note_on_c, 0, 46, 81
1, 128645, Note_on_c, 0, 67, 70
1, 128668, Control_c, 0, 64, 47
1, 128682, Control_c, 0, 64, 73
1, 128697, Note_off_c, 0, 58, 61
1, 128697, Control_c, 0, 64, 100
1, 128712, Control_c, 0, 64, 127
1, 128716, Note_off_c, 0, 74, 62
1, 128729, Note_off_c, 0, 62, 61
1, 128744, Note_off_c, 0, 50, 60
1, 128764, Note_off_c, 0, 46, 60
1, 128765, Note_off_c, 0, 67, 57
1, 128924, Note_on_c, 0, 67, 62
1, 128924, Note_on_c, 0, 70, 84
1, 128925, Note_on_c, 0, 50, 71
1, 128927, Note_on_c, 0, 55, 75
1, 128931, Note_on_c, 0, 43, 73
1, 128937, Note_on_c, 0, 58, 83
1, 128949, Control_c, 0, 64, 109
1, 128964, Control_c, 0, 64, 75
1, 128979, Control_c, 0, 64, 0
1, 129053, Control_c, 0, 64, 51
1, 129068, Control_c, 0, 64, 70
1, 129091, Control_c, 0, 64, 85
1, 129105, Control_c, 0, 64, 127
1, 129204, Note_off_c, 0, 58, 61
1, 129216, Note_off_c, 0, 43, 59
1, 129247, Note_off_c, 0, 55, 60
1, 129247, Note_off_c, 0, 67, 36
1, 129266, Note_off_c, 0, 50, 55
1, 129319, Note_off_c, 0, 70, 52
1, 129416, Control_c, 0, 64, 120
1, 129430, Control_c, 0, 64, 78
1, 129439, Note_on_c, 0, 57, 68
1, 129442, Note_on_c, 0, 50, 59
1, 129443, Note_on_c, 0, 45, 62
1, 129444, Note_on_c, 0, 60, 69
1, 129444, Note_on_c, 0, 72, 74
1, 129445, Control_c, 0, 64, 0
1, 129447, Note_on_c, 0, 67, 62
1, 129489, Control_c, 0, 64, 50
1, 129504, Control_c, 0, 64, 70
1, 129519, Control_c, 0, 64, 88
1, 129534, Control_c, 0, 64, 127
1, 129554, Note_off_c, 0, 57, 58
1, 129565, Note_off_c, 0, 60, 57
1, 129579, Note_off_c, 0, 72, 59
1, 129581, Note_off_c, 0, 45, 61
1, 129607, Note_off_c, 0, 50, 57
1, 129626, Note_off_c, 0, 67, 54
1, 129697, Control_c, 0, 64, 92
1, 129711, Note_on_c, 0, 74, 87
1, 129712, Control_c, 0, 64, 64
1, 129715, Note_on_c, 0, 50, 69
1, 129716, Note_on_c, 0, 58, 74
1, 129717, Note_on_c, 0, 62, 74
1, 129720, Note_on_c, 0, 67, 76
1, 129721, Note_on_c, 0, 46, 66
1, 129727, Control_c, 0, 64, 0
1, 129757, Control_c, 0, 64, 57
1, 129771, Note_off_c, 0, 74, 63
1, 129772, Control_c, 0, 64, 76
1, 129787, Control_c, 0, 64, 106
1, 129796, Note_off_c, 0, 62, 60
1, 129798, Note_off_c, 0, 58, 58
1, 129802, Control_c, 0, 64, 127
1, 129840, Note_off_c, 0, 50, 61
1, 129840, Note_off_c, 0, 67, 61
1, 129870, Note_off_c, 0, 46, 59
1, 129987, Control_c, 0, 64, 82
1, 129991, Note_on_c, 0, 67, 77
1, 129991, Note_on_c, 0, 70, 92
1, 129992, Note_on_c, 0, 50, 73
1, 129993, Note_on_c, 0, 55, 83
1, 129995, Note_on_c, 0, 43, 80
1, 129996, Note_on_c, 0, 58, 82
1, 130002, Control_c, 0, 64, 0
1, 130046, Note_off_c, 0, 43, 63
1, 130047, Control_c, 0, 64, 67
1, 130049, Note_off_c, 0, 50, 65
1, 130056, Note_off_c, 0, 58, 61
1, 130061, Control_c, 0, 64, 85
1, 130067, Note_off_c, 0, 55, 61
1, 130069, Note_off_c, 0, 67, 47
1, 130076, Control_c, 0, 64, 127
1, 130112, Note_off_c, 0, 70, 61
1, 130254, Control_c, 0, 64, 100
1, 130266, Note_on_c, 0, 55, 84
1, 130269, Control_c, 0, 64, 66
1, 130270, Note_on_c, 0, 74, 103
1, 130271, Note_on_c, 0, 62, 91
1, 130273, Note_on_c, 0, 46, 81
1, 130273, Note_on_c, 0, 58, 81
1, 130274, Note_on_c, 0, 67, 85
1, 130284, Control_c, 0, 64, 0
1, 130328, Control_c, 0, 64, 60
1, 130343, Control_c, 0, 64, 83
1, 130358, Control_c, 0, 64, 127
1, 130383, Note_off_c, 0, 46, 61
1, 130387, Note_off_c, 0, 62, 61
1, 130389, Note_off_c, 0, 74, 60
1, 130392, Note_off_c, 0, 55, 62
1, 130409, Note_off_c, 0, 58, 59
1, 130431, Note_off_c, 0, 67, 59
1, 130566, Control_c, 0, 64, 88
1, 130588, Note_on_c, 0, 75, 95
1, 130589, Note_on_c, 0, 60, 81
1, 130589, Control_c, 0, 64, 46
1, 130592, Note_on_c, 0, 48, 77
1, 130592, Note_on_c, 0, 55, 79
1, 130592, Note_on_c, 0, 67, 87
1, 130595, Note_on_c, 0, 63, 91
1, 130604, Control_c, 0, 64, 0
1, 130633, Control_c, 0, 64, 62
1, 130648, Control_c, 0, 64, 77
1, 130648, Note_off_c, 0, 60, 63
1, 130657, Note_off_c, 0, 55, 64
1, 130663, Control_c, 0, 64, 109
1, 130678, Control_c, 0, 64, 127
1, 130679, Note_off_c, 0, 63, 59
1, 130685, Note_off_c, 0, 48, 61
1, 130699, Note_off_c, 0, 75, 67
1, 130716, Note_off_c, 0, 67, 60
1, 130987, Note_on_c, 0, 43, 81
1, 130990, Note_on_c, 0, 46, 87
1, 131000, Note_on_c, 0, 55, 90
1, 131003, Control_c, 0, 64, 102
1, 131018, Control_c, 0, 64, 69
1, 131033, Control_c, 0, 64, 0
1, 131121, Control_c, 0, 64, 62
1, 131136, Control_c, 0, 64, 73
1, 131151, Control_c, 0, 64, 89
1, 131166, Control_c, 0, 64, 127
1, 131210, Note_on_c, 0, 50, 77
1, 131211, Note_on_c, 0, 58, 74
1, 131212, Note_off_c, 0, 55, 60
1, 131238, Note_off_c, 0, 43, 60
1, 131238, Note_off_c, 0, 46, 61
1, 131256, Note_off_c, 0, 58, 66
1, 131264, Note_off_c, 0, 50, 65
1, 131285, Note_on_c, 0, 55, 60
1, 131286, Note_on_c, 0, 62, 71
1, 131310, Note_off_c, 0, 55, 66
1, 131313, Note_off_c, 0, 62, 67
1, 131395, Note_on_c, 0, 67, 78
1, 131414, Note_on_c, 0, 58, 59
1, 131456, Note_on_c, 0, 62, 73
1, 131458, Note_off_c, 0, 58, 62
1, 131464, Note_on_c, 0, 70, 74
1, 131465, Note_off_c, 0, 67, 58
1, 131486, Note_off_c, 0, 62, 63
1, 131514, Note_off_c, 0, 70, 64
1, 131516, Note_on_c, 0, 67, 58
1, 131529, Note_on_c, 0, 74, 87
1, 131557, Note_off_c, 0, 67, 61
1, 131588, Note_off_c, 0, 74, 62
1, 131596, Note_on_c, 0, 79, 107
1, 131604, Note_on_c, 0, 70, 95
1, 131614, Note_off_c, 0, 79, 69
1, 131622, Note_off_c, 0, 70, 71
1, 132175, Control_c, 0, 64, 100
1, 132189, Control_c, 0, 64, 66
1, 132204, Control_c, 0, 64, 0
1, 132529, Control_c, 0, 67, 8
1, 132544, Control_c, 0, 67, 8
1, 132607, Note_on_c, 0, 67, 72
1, 132618, Control_c, 0, 67, 9
1, 132620, Note_on_c, 0, 55, 56
1, 132622, Note_on_c, 0, 46, 48
1, 132625, Note_on_c, 0, 39, 42
1, 132631, Note_on_c, 0, 51, 33
1, 132633, Note_on_c, 0, 63, 50
1, 132633, Control_c, 0, 64, 35
1, 132642, Note_on_c, 0, 58, 34
1, 132647, Control_c, 0, 64, 45
1, 132662, Control_c, 0, 64, 52
1, 132662, Control_c, 0, 67, 9
1, 132677, Control_c, 0, 64, 59
1, 132692, Control_c, 0, 64, 63
1, 132706, Control_c, 0, 64, 67
1, 132706, Control_c, 0, 67, 10
1, 132721, Control_c, 0, 64, 69
1, 132721, Control_c, 0, 67, 11
1, 132736, Control_c, 0, 64, 71
1, 132736, Control_c, 0, 67, 12
1, 132751, Control_c, 0, 64, 73
1, 132751, Control_c, 0, 67, 13
1, 132766, Control_c, 0, 64, 77
1, 132766, Control_c, 0, 67, 15
1, 132780, Control_c, 0, 64, 81
1, 132780, Control_c, 0, 67, 16
1, 132795, Control_c, 0, 64, 87
1, 132795, Control_c, 0, 67, 17
1, 132810, Control_c, 0, 64, 92
1, 132810, Control_c, 0, 67, 18
1, 132833, Control_c, 0, 64, 97
1, 132833, Control_c, 0, 67, 18
1, 132848, Control_c, 0, 64, 103
1, 132848, Control_c, 0, 67, 19
1, 132862, Control_c, 0, 64, 111
1, 132862, Control_c, 0, 67, 21
1, 132877, Control_c, 0, 64, 127
1, 132877, Control_c, 0, 67, 23
1, 132892, Control_c, 0, 67, 26
1, 132906, Control_c, 0, 67, 28
1, 132921, Control_c, 0, 67, 31
1, 132936, Control_c, 0, 67, 34
1, 132952, Control_c, 0, 67, 37
1, 132967, Control_c, 0, 67, 40
1, 132982, Control_c, 0, 67, 43
1, 132997, Control_c, 0, 67, 47
1, 133012, Control_c, 0, 67, 51
1, 133027, Control_c, 0, 67, 54
1, 133042, Control_c, 0, 67, 58
1, 133057, Control_c, 0, 67, 62
1, 133057, Note_off_c, 0, 58, 60
1, 133071, Control_c, 0, 67, 65
1, 133077, Note_off_c, 0, 55, 53
1, 133086, Control_c, 0, 67, 69
1, 133101, Control_c, 0, 67, 73
1, 133104, Note_off_c, 0, 63, 59
1, 133116, Control_c, 0, 67, 76
1, 133130, Control_c, 0, 67, 79
1, 133145, Control_c, 0, 67, 82
1, 133160, Control_c, 0, 67, 83
1, 133175, Control_c, 0, 67, 84
1, 133190, Control_c, 0, 67, 84
1, 133216, Note_off_c, 0, 67, 58
1, 133219, Control_c, 0, 67, 84
1, 133234, Control_c, 0, 67, 82
1, 133249, Control_c, 0, 64, 114
1, 133249, Control_c, 0, 67, 81
1, 133252, Note_on_c, 0, 65, 71
1, 133264, Control_c, 0, 64, 85
1, 133264, Control_c, 0, 67, 81
1, 133278, Control_c, 0, 64, 63
1, 133278, Control_c, 0, 67, 80
1, 133283, Note_off_c, 0, 65, 63
1, 133293, Control_c, 0, 64, 0
1, 133293, Control_c, 0, 67, 80
1, 133298, Note_on_c, 0, 67, 68
1, 133308, Control_c, 0, 67, 79
1, 133322, Control_c, 0, 67, 79
1, 133337, Control_c, 0, 67, 78
1, 133355, Note_off_c, 0, 67, 60
1, 133358, Note_on_c, 0, 65, 73
1, 133383, Note_off_c, 0, 65, 68
1, 133412, Control_c, 0, 67, 79
1, 133426, Control_c, 0, 67, 79
1, 133441, Control_c, 0, 67, 80
1, 133486, Control_c, 0, 67, 80
1, 133487, Note_on_c, 0, 63, 65
1, 133514, Note_off_c, 0, 63, 67
1, 133620, Note_on_c, 0, 62, 71
1, 133641, Control_c, 0, 67, 80
1, 133656, Control_c, 0, 67, 79
1, 133671, Control_c, 0, 67, 77
1, 133680, Note_off_c, 0, 46, 61
1, 133686, Control_c, 0, 67, 75
1, 133694, Note_off_c, 0, 51, 58
1, 133695, Note_off_c, 0, 62, 52
1, 133698, Note_off_c, 0, 39, 56
1, 133701, Control_c, 0, 67, 72
1, 133716, Control_c, 0, 67, 68
1, 133721, Note_on_c, 0, 63, 70
1, 133730, Control_c, 0, 67, 63
1, 133745, Control_c, 0, 67, 58
1, 133760, Control_c, 0, 67, 52
1, 133768, Note_off_c, 0, 63, 55
1, 133775, Control_c, 0, 67, 48
1, 133790, Control_c, 0, 67, 44
1, 133805, Control_c, 0, 67, 43
1, 133835, Control_c, 0, 67, 44
1, 133844, Note_on_c, 0, 60, 77
1, 133850, Control_c, 0, 67, 44
1, 133871, Note_off_c, 0, 60, 66
1, 133880, Control_c, 0, 67, 45
1, 133924, Control_c, 0, 67, 45
1, 133939, Control_c, 0, 67, 46
1, 133949, Note_on_c, 0, 62, 73
1, 133968, Control_c, 0, 67, 46
1, 133976, Note_off_c, 0, 62, 63
1, 133983, Control_c, 0, 67, 47
1, 133998, Control_c, 0, 67, 48
1, 134013, Control_c, 0, 67, 48
1, 134027, Control_c, 0, 67, 49
1, 134042, Control_c, 0, 67, 50
1, 134057, Control_c, 0, 67, 50
1, 134072, Control_c, 0, 67, 51
1, 134083, Note_on_c, 0, 58, 75
1, 134087, Control_c, 0, 67, 52
1, 134101, Control_c, 0, 67, 53
1, 134104, Note_off_c, 0, 58, 69
1, 134116, Control_c, 0, 67, 54
1, 134131, Control_c, 0, 67, 55
1, 134145, Control_c, 0, 67, 56
1, 134160, Control_c, 0, 67, 58
1, 134175, Control_c, 0, 67, 60
1, 134190, Control_c, 0, 67, 61
1, 134205, Control_c, 0, 67, 62
1, 134219, Control_c, 0, 67, 64
1, 134234, Control_c, 0, 67, 65
1, 134249, Control_c, 0, 67, 66
1, 134264, Control_c, 0, 67, 67
1, 134279, Control_c, 0, 67, 68
1, 134294, Control_c, 0, 67, 68
1, 134309, Control_c, 0, 67, 69
1, 134359, Note_on_c, 0, 60, 76
1, 134371, Note_on_c, 0, 44, 54
1, 134371, Note_on_c, 0, 53, 57
1, 134377, Note_on_c, 0, 51, 46
1, 134382, Note_off_c, 0, 60, 71
1, 134390, Control_c, 0, 67, 69
1, 134395, Note_off_c, 0, 53, 61
1, 134399, Note_off_c, 0, 44, 58
1, 134405, Control_c, 0, 67, 70
1, 134407, Note_off_c, 0, 51, 56
1, 134434, Control_c, 0, 67, 70
1, 134449, Control_c, 0, 67, 71
1, 134464, Control_c, 0, 67, 71
1, 134479, Control_c, 0, 67, 72
1, 134494, Control_c, 0, 67, 74
1, 134509, Control_c, 0, 67, 75
1, 134523, Control_c, 0, 67, 76
1, 134538, Control_c, 0, 67, 77
1, 134554, Control_c, 0, 67, 78
1, 134569, Control_c, 0, 67, 80
1, 134583, Control_c, 0, 67, 83
1, 134598, Control_c, 0, 67, 86
1, 134613, Control_c, 0, 67, 89
1, 134628, Control_c, 0, 67, 91
1, 134643, Control_c, 0, 67, 92
1, 134658, Control_c, 0, 64, 31
1, 134658, Control_c, 0, 67, 94
1, 134672, Control_c, 0, 64, 50
1, 134672, Control_c, 0, 67, 96
1, 134687, Control_c, 0, 64, 60
1, 134687, Control_c, 0, 67, 97
1, 134702, Control_c, 0, 64, 65
1, 134702, Control_c, 0, 67, 99
1, 134717, Control_c, 0, 64, 68
1, 134717, Control_c, 0, 67, 101
1, 134731, Note_on_c, 0, 67, 68
1, 134732, Control_c, 0, 64, 71
1, 134732, Control_c, 0, 67, 101
1, 134747, Note_on_c, 0, 46, 40
1, 134747, Control_c, 0, 64, 75
1, 134747, Control_c, 0, 67, 102
1, 134753, Note_on_c, 0, 51, 41
1, 134756, Note_on_c, 0, 39, 34
1, 134761, Note_on_c, 0, 55, 48
1, 134762, Control_c, 0, 64, 79
1, 134762, Control_c, 0, 67, 104
1, 134763, Note_on_c, 0, 58, 51
1, 134767, Note_on_c, 0, 63, 48
1, 134776, Control_c, 0, 64, 83
1, 134776, Control_c, 0, 67, 104
1, 134791, Control_c, 0, 64, 87
1, 134791, Control_c, 0, 67, 105
1, 134806, Control_c, 0, 64, 91
1, 134806, Control_c, 0, 67, 106
1, 134821, Control_c, 0, 64, 94
1, 134821, Control_c, 0, 67, 106
1, 134836, Control_c, 0, 64, 99
1, 134836, Control_c, 0, 67, 107
1, 134850, Control_c, 0, 64, 105
1, 134850, Control_c, 0, 67, 107
1, 134865, Control_c, 0, 64, 113
1, 134865, Control_c, 0, 67, 108
1, 134880, Control_c, 0, 64, 127
1, 134880, Control_c, 0, 67, 109
1, 134924, Control_c, 0, 67, 109
1, 134998, Control_c, 0, 67, 110
1, 135000, Note_off_c, 0, 58, 59
1, 135034, Note_off_c, 0, 55, 36
1, 135048, Note_off_c, 0, 63, 60
1, 135242, Control_c, 0, 67, 109
1, 135247, Note_off_c, 0, 67, 57
1, 135257, Control_c, 0, 67, 109
1, 135287, Control_c, 0, 67, 108
1, 135295, Note_on_c, 0, 65, 61
1, 135328, Note_off_c, 0, 65, 64
1, 135331, Control_c, 0, 67, 108
1, 135344, Note_on_c, 0, 67, 74
1, 135346, Control_c, 0, 64, 91
1, 135361, Control_c, 0, 64, 70
1, 135376, Control_c, 0, 64, 0
1, 135397, Note_off_c, 0, 67, 59
1, 135406, Control_c, 0, 67, 107
1, 135410, Note_on_c, 0, 65, 57
1, 135421, Control_c, 0, 67, 106
1, 135433, Note_off_c, 0, 65, 64
1, 135436, Control_c, 0, 67, 106
1, 135450, Control_c, 0, 67, 105
1, 135510, Control_c, 0, 67, 106
1, 135513, Note_on_c, 0, 63, 71
1, 135524, Control_c, 0, 67, 106
1, 135538, Note_off_c, 0, 63, 67
1, 135554, Control_c, 0, 67, 107
1, 135647, Note_on_c, 0, 62, 77
1, 135658, Control_c, 0, 67, 106
1, 135754, Note_on_c, 0, 63, 74
1, 135760, Note_off_c, 0, 62, 58
1, 135791, Control_c, 0, 67, 106
1, 135804, Note_off_c, 0, 63, 59
1, 135805, Control_c, 0, 67, 105
1, 135828, Control_c, 0, 67, 104
1, 135843, Control_c, 0, 67, 103
1, 135858, Control_c, 0, 67, 102
1, 135872, Control_c, 0, 67, 101
1, 135876, Note_on_c, 0, 60, 73
1, 135887, Control_c, 0, 67, 99
1, 135902, Control_c, 0, 67, 98
1, 135903, Note_off_c, 0, 46, 55
1, 135904, Note_off_c, 0, 51, 49
1, 135904, Note_off_c, 0, 60, 63
1, 135916, Control_c, 0, 67, 97
1, 135931, Control_c, 0, 67, 96
1, 135938, Note_off_c, 0, 39, 47
1, 135946, Control_c, 0, 67, 94
1, 135962, Control_c, 0, 67, 92
1, 135977, Control_c, 0, 67, 88
1, 135982, Note_on_c, 0, 62, 64
1, 135992, Control_c, 0, 67, 85
1, 136004, Note_off_c, 0, 62, 64
1, 136006, Control_c, 0, 67, 83
1, 136021, Control_c, 0, 67, 82
1, 136036, Control_c, 0, 67, 81
1, 136050, Control_c, 0, 67, 79
1, 136065, Control_c, 0, 67, 77
1, 136080, Control_c, 0, 67, 75
1, 136095, Control_c, 0, 67, 73
1, 136102, Note_on_c, 0, 58, 76
1, 136110, Control_c, 0, 67, 72
1, 136124, Control_c, 0, 67, 72
1, 136126, Note_off_c, 0, 58, 69
1, 136139, Control_c, 0, 67, 71
1, 136170, Control_c, 0, 67, 73
1, 136185, Control_c, 0, 67, 75
1, 136200, Control_c, 0, 67, 76
1, 136215, Control_c, 0, 67, 77
1, 136274, Control_c, 0, 67, 78
1, 136303, Control_c, 0, 67, 79
1, 136318, Control_c, 0, 67, 79
1, 136333, Control_c, 0, 67, 80
1, 136369, Note_on_c, 0, 60, 72
1, 136378, Note_on_c, 0, 53, 60
1, 136384, Note_on_c, 0, 44, 52
1, 136386, Note_on_c, 0, 51, 51
1, 136394, Note_off_c, 0, 60, 68
1, 136401, Note_off_c, 0, 53, 62
1, 136413, Note_off_c, 0, 44, 56
1, 136415, Note_off_c, 0, 51, 61
1, 136437, Control_c, 0, 67, 80
1, 136452, Control_c, 0, 67, 81
1, 136481, Control_c, 0, 67, 81
1, 136511, Control_c, 0, 67, 82
1, 136622, Control_c, 0, 64, 26
1, 136637, Control_c, 0, 64, 44
1, 136652, Control_c, 0, 64, 55
1, 136666, Control_c, 0, 64, 62
1, 136681, Control_c, 0, 64, 65
1, 136681, Control_c, 0, 67, 81
1, 136696, Control_c, 0, 64, 68
1, 136701, Note_on_c, 0, 67, 64
1, 136711, Control_c, 0, 64, 71
1, 136711, Note_on_c, 0, 55, 49
1, 136720, Note_on_c, 0, 58, 43
1, 136720, Note_on_c, 0, 46, 43
1, 136725, Note_on_c, 0, 51, 42
1, 136726, Note_on_c, 0, 39, 41
1, 136726, Note_on_c, 0, 63, 47
1, 136726, Control_c, 0, 64, 75
1, 136740, Control_c, 0, 64, 79
1, 136740, Control_c, 0, 67, 82
1, 136755, Control_c, 0, 64, 83
1, 136755, Control_c, 0, 67, 83
1, 136770, Control_c, 0, 64, 87
1, 136770, Control_c, 0, 67, 84
1, 136785, Control_c, 0, 64, 93
1, 136785, Control_c, 0, 67, 85
1, 136800, Control_c, 0, 64, 100
1, 136800, Control_c, 0, 67, 88
1, 136814, Control_c, 0, 64, 107
1, 136814, Control_c, 0, 67, 89
1, 136829, Control_c, 0, 64, 115
1, 136829, Control_c, 0, 67, 90
1, 136844, Control_c, 0, 64, 127
1, 136844, Control_c, 0, 67, 90
1, 136859, Control_c, 0, 67, 91
1, 136873, Control_c, 0, 67, 91
1, 136903, Control_c, 0, 67, 92
1, 136933, Control_c, 0, 67, 92
1, 136964, Control_c, 0, 67, 93
1, 136978, Control_c, 0, 67, 94
1, 136993, Control_c, 0, 67, 94
1, 137008, Control_c, 0, 67, 95
1, 137023, Control_c, 0, 67, 95
1, 137038, Control_c, 0, 67, 96
1, 137052, Control_c, 0, 67, 96
1, 137067, Control_c, 0, 67, 97
1, 137102, Note_off_c, 0, 58, 37
1, 137164, Note_off_c, 0, 55, 51
1, 137221, Note_off_c, 0, 51, 60
1, 137228, Note_off_c, 0, 63, 56
1, 137234, Note_off_c, 0, 46, 50
1, 137278, Note_off_c, 0, 67, 46
1, 137299, Note_off_c, 0, 39, 41
1, 137415, Control_c, 0, 64, 93
1, 137430, Control_c, 0, 64, 75
1, 137430, Control_c, 0, 67, 96
1, 137445, Control_c, 0, 64, 57
1, 137460, Control_c, 0, 64, 0
1, 137460, Control_c, 0, 67, 96
1, 137503, Note_on_c, 0, 60, 71
1, 137504, Control_c, 0, 67, 95
1, 137505, Note_on_c, 0, 44, 66
1, 137507, Note_on_c, 0, 53, 66
1, 137510, Note_on_c, 0, 51, 64
1, 137519, Control_c, 0, 67, 95
1, 137529, Note_off_c, 0, 60, 69
1, 137531, Note_off_c, 0, 44, 65
1, 137533, Note_off_c, 0, 53, 66
1, 137537, Note_off_c, 0, 51, 66
1, 137742, Control_c, 0, 67, 96
1, 137757, Control_c, 0, 67, 96
1, 137787, Control_c, 0, 67, 97
1, 137801, Control_c, 0, 67, 97
1, 137808, Note_on_c, 0, 67, 66
1, 137817, Note_on_c, 0, 55, 52
1, 137817, Note_on_c, 0, 58, 55
1, 137823, Note_on_c, 0, 63, 55
1, 137824, Note_on_c, 0, 46, 48
1, 137830, Note_on_c, 0, 39, 41
1, 137831, Control_c, 0, 67, 98
1, 137833, Note_on_c, 0, 51, 39
1, 137846, Control_c, 0, 67, 98
1, 137861, Control_c, 0, 67, 99
1, 137875, Control_c, 0, 67, 101
1, 137890, Control_c, 0, 67, 104
1, 137905, Control_c, 0, 67, 106
1, 137919, Control_c, 0, 67, 107
1, 137934, Control_c, 0, 67, 108
1, 137949, Control_c, 0, 64, 47
1, 137949, Control_c, 0, 67, 108
1, 137964, Control_c, 0, 64, 63
1, 137979, Control_c, 0, 64, 67
1, 137979, Control_c, 0, 67, 109
1, 137993, Control_c, 0, 64, 71
1, 138008, Control_c, 0, 64, 75
1, 138023, Control_c, 0, 64, 82
1, 138023, Control_c, 0, 67, 109
1, 138038, Control_c, 0, 64, 89
1, 138053, Control_c, 0, 64, 97
1, 138053, Control_c, 0, 67, 110
1, 138075, Control_c, 0, 64, 105
1, 138075, Control_c, 0, 67, 111
1, 138090, Control_c, 0, 64, 114
1, 138090, Control_c, 0, 67, 113
1, 138105, Control_c, 0, 64, 127
1, 138105, Control_c, 0, 67, 115
1, 138119, Control_c, 0, 67, 117
1, 138134, Control_c, 0, 67, 119
1, 138149, Control_c, 0, 67, 121
1, 138164, Control_c, 0, 67, 123
1, 138179, Control_c, 0, 67, 125
1, 138193, Note_off_c, 0, 58, 33
1, 138193, Control_c, 0, 67, 127
1, 138208, Control_c, 0, 67, 127
1, 138229, Note_off_c, 0, 55, 36
1, 138259, Note_off_c, 0, 51, 45
1, 138261, Note_off_c, 0, 67, 36
1, 138267, Note_off_c, 0, 46, 54
1, 138275, Note_off_c, 0, 63, 38
1, 138321, Note_off_c, 0, 39, 40
1, 138595, Control_c, 0, 64, 99
1, 138610, Control_c, 0, 64, 80
1, 138616, Note_on_c, 0, 60, 61
1, 138619, Note_on_c, 0, 44, 55
1, 138620, Note_on_c, 0, 51, 53
1, 138622, Note_on_c, 0, 53, 54
1, 138625, Control_c, 0, 64, 65
1, 138640, Control_c, 0, 64, 0
1, 138645, Note_off_c, 0, 60, 66
1, 138646, Note_off_c, 0, 53, 62
1, 138647, Note_off_c, 0, 44, 59
1, 138652, Note_off_c, 0, 51, 65
1, 138877, Note_on_c, 0, 67, 66
1, 138879, Note_on_c, 0, 55, 64
1, 138881, Note_on_c, 0, 58, 64
1, 138883, Note_on_c, 0, 51, 56
1, 138887, Note_on_c, 0, 46, 54
1, 138892, Note_on_c, 0, 39, 45
1, 138897, Note_on_c, 0, 63, 45
1, 138909, Note_off_c, 0, 58, 66
1, 138911, Note_off_c, 0, 55, 63
1, 138911, Note_off_c, 0, 67, 57
1, 138913, Note_off_c, 0, 51, 65
1, 138914, Note_off_c, 0, 46, 57
1, 138924, Note_off_c, 0, 39, 52
1, 138925, Note_off_c, 0, 63, 59
1, 139141, Note_on_c, 0, 60, 47
1, 139142, Note_on_c, 0, 44, 54
1, 139147, Note_on_c, 0, 53, 46
1, 139152, Note_on_c, 0, 51, 44
1, 139166, Note_off_c, 0, 60, 60
1, 139170, Note_off_c, 0, 44, 57
1, 139177, Note_off_c, 0, 53, 56
1, 139183, Note_off_c, 0, 51, 55
1, 139385, Note_on_c, 0, 67, 66
1, 139391, Note_on_c, 0, 55, 58
1, 139392, Note_on_c, 0, 58, 49
1, 139394, Note_on_c, 0, 46, 52
1, 139396, Note_on_c, 0, 51, 53
1, 139405, Note_on_c, 0, 63, 44
1, 139407, Note_on_c, 0, 39, 35
1, 139413, Note_off_c, 0, 67, 65
1, 139414, Note_off_c, 0, 55, 63
1, 139418, Note_off_c, 0, 58, 58
1, 139422, Note_off_c, 0, 46, 55
1, 139424, Note_off_c, 0, 51, 61
1, 139432, Note_off_c, 0, 63, 58
1, 139445, Note_off_c, 0, 39, 48
1, 139648, Note_on_c, 0, 60, 62
1, 139656, Note_on_c, 0, 53, 54
1, 139660, Note_on_c, 0, 44, 49
1, 139664, Note_on_c, 0, 51, 42
1, 139676, Note_off_c, 0, 60, 66
1, 139681, Note_off_c, 0, 53, 60
1, 139689, Note_off_c, 0, 44, 54
1, 139694, Note_off_c, 0, 51, 60
1, 139908, Note_on_c, 0, 58, 62
1, 139914, Note_on_c, 0, 55, 55
1, 139915, Note_on_c, 0, 67, 59
1, 139917, Note_on_c, 0, 51, 51
1, 139918, Note_on_c, 0, 46, 52
1, 139928, Note_on_c, 0, 39, 39
1, 139935, Note_off_c, 0, 58, 66
1, 139937, Note_off_c, 0, 67, 62
1, 139937, Note_on_c, 0, 63, 28
1, 139938, Note_off_c, 0, 55, 59
1, 139946, Note_off_c, 0, 46, 55
1, 139946, Note_off_c, 0, 51, 60
1, 139962, Note_off_c, 0, 39, 50
1, 139975, Note_off_c, 0, 63, 48
1, 140181, Note_on_c, 0, 60, 59
1, 140185, Note_on_c, 0, 51, 47
1, 140187, Note_on_c, 0, 44, 55
1, 140188, Note_on_c, 0, 53, 54
1, 140211, Note_off_c, 0, 60, 67
1, 140214, Note_off_c, 0, 44, 59
1, 140214, Note_off_c, 0, 53, 60
1, 140219, Note_off_c, 0, 51, 63
1, 140446, Note_on_c, 0, 67, 64
1, 140449, Note_on_c, 0, 55, 61
1, 140452, Note_on_c, 0, 58, 49
1, 140455, Note_on_c, 0, 46, 49
1, 140458, Note_on_c, 0, 51, 47
1, 140464, Note_on_c, 0, 63, 48
1, 140469, Note_on_c, 0, 39, 29
1, 140476, Note_off_c, 0, 67, 64
1, 140477, Note_off_c, 0, 55, 65
1, 140479, Note_off_c, 0, 58, 57
1, 140484, Note_off_c, 0, 46, 52
1, 140488, Note_off_c, 0, 51, 56
1, 140491, Note_off_c, 0, 63, 59
1, 140509, Note_off_c, 0, 39, 49
1, 140701, Note_on_c, 0, 44, 61
1, 140701, Note_on_c, 0, 60, 61
1, 140705, Note_on_c, 0, 51, 48
1, 140713, Note_on_c, 0, 53, 42
1, 140728, Note_off_c, 0, 60, 66
1, 140730, Note_off_c, 0, 44, 64
1, 140736, Note_off_c, 0, 51, 63
1, 140745, Note_off_c, 0, 53, 55
1, 140914, Control_c, 0, 64, 39
1, 140929, Control_c, 0, 64, 65
1, 140945, Control_c, 0, 64, 71
1, 140960, Note_on_c, 0, 67, 65
1, 140960, Control_c, 0, 64, 78
1, 140962, Note_on_c, 0, 55, 65
1, 140963, Note_on_c, 0, 51, 56
1, 140966, Note_on_c, 0, 39, 49
1, 140966, Note_on_c, 0, 46, 52
1, 140975, Note_on_c, 0, 63, 46
1, 140975, Control_c, 0, 64, 88
1, 140987, Note_off_c, 0, 55, 64
1, 140988, Note_off_c, 0, 67, 66
1, 140990, Control_c, 0, 64, 93
1, 140995, Note_off_c, 0, 46, 54
1, 140997, Note_off_c, 0, 51, 64
1, 140998, Note_off_c, 0, 39, 53
1, 141003, Note_off_c, 0, 63, 56
1, 141005, Control_c, 0, 64, 94
1, 141034, Control_c, 0, 64, 91
1, 141049, Control_c, 0, 64, 83
1, 141071, Control_c, 0, 64, 69
1, 141086, Control_c, 0, 64, 0
1, 141117, Note_on_c, 0, 65, 47
1, 141129, Note_on_c, 0, 67, 38
1, 141149, Note_on_c, 0, 63, 60
1, 141162, Note_off_c, 0, 67, 53
1, 141186, Note_on_c, 0, 58, 63
1, 141194, Note_off_c, 0, 65, 62
1, 141203, Note_on_c, 0, 62, 68
1, 141206, Note_off_c, 0, 63, 62
1, 141216, Note_off_c, 0, 58, 64
1, 141227, Note_off_c, 0, 62, 66
1, 141320, Note_on_c, 0, 63, 80
1, 141333, Note_on_c, 0, 55, 60
1, 141364, Note_off_c, 0, 55, 64
1, 141368, Note_off_c, 0, 63, 61
1, 141448, Note_on_c, 0, 58, 80
1, 141457, Note_on_c, 0, 54, 67
1, 141482, Note_off_c, 0, 58, 59
1, 141485, Note_off_c, 0, 54, 65
1, 141580, Note_on_c, 0, 55, 43
1, 141608, Note_off_c, 0, 55, 55
1, 141663, Control_c, 0, 64, 47
1, 141678, Control_c, 0, 64, 69
1, 141693, Control_c, 0, 64, 80
1, 141697, Note_on_c, 0, 60, 76
1, 141698, Note_on_c, 0, 56, 72
1, 141708, Control_c, 0, 64, 97
1, 141709, Note_on_c, 0, 53, 63
1, 141720, Note_off_c, 0, 60, 70
1, 141721, Note_off_c, 0, 56, 68
1, 141723, Control_c, 0, 64, 127
1, 141733, Note_off_c, 0, 53, 65
1, 141783, Control_c, 0, 64, 112
1, 141798, Control_c, 0, 64, 90
1, 141821, Control_c, 0, 64, 75
1, 141836, Control_c, 0, 64, 46
1, 141850, Control_c, 0, 64, 0
1, 141939, Control_c, 0, 64, 29
1, 141954, Control_c, 0, 64, 69
1, 141958, Note_on_c, 0, 46, 66
1, 141961, Note_on_c, 0, 51, 63
1, 141962, Note_on_c, 0, 67, 73
1, 141968, Control_c, 0, 64, 82
1, 141971, Note_on_c, 0, 39, 44
1, 141973, Note_on_c, 0, 55, 59
1, 141983, Note_off_c, 0, 46, 64
1, 141983, Control_c, 0, 64, 104
1, 141986, Note_off_c, 0, 67, 67
1, 141988, Note_off_c, 0, 51, 66
1, 141995, Note_off_c, 0, 55, 62
1, 141998, Control_c, 0, 64, 127
1, 142006, Note_off_c, 0, 39, 51
1, 142090, Note_on_c, 0, 65, 83
1, 142101, Control_c, 0, 64, 98
1, 142116, Control_c, 0, 64, 73
1, 142131, Control_c, 0, 64, 0
1, 142144, Note_on_c, 0, 63, 69
1, 142170, Note_off_c, 0, 65, 62
1, 142173, Note_on_c, 0, 58, 67
1, 142190, Note_on_c, 0, 62, 74
1, 142193, Note_off_c, 0, 63, 62
1, 142201, Note_off_c, 0, 58, 67
1, 142213, Note_off_c, 0, 62, 67
1, 142304, Note_on_c, 0, 55, 69
1, 142310, Note_on_c, 0, 63, 76
1, 142336, Note_off_c, 0, 55, 65
1, 142348, Note_off_c, 0, 63, 60
1, 142429, Note_on_c, 0, 54, 79
1, 142435, Note_on_c, 0, 58, 75
1, 142460, Note_off_c, 0, 54, 65
1, 142462, Note_off_c, 0, 58, 64
1, 142553, Note_on_c, 0, 55, 64
1, 142601, Note_off_c, 0, 55, 63
1, 142684, Note_on_c, 0, 60, 71
1, 142686, Note_on_c, 0, 56, 78
1, 142688, Control_c, 0, 64, 67
1, 142691, Note_on_c, 0, 53, 70
1, 142703, Control_c, 0, 64, 76
1, 142709, Note_off_c, 0, 56, 68
1, 142709, Note_off_c, 0, 60, 68
1, 142718, Control_c, 0, 64, 88
1, 142720, Note_off_c, 0, 53, 67
1, 142733, Control_c, 0, 64, 98
1, 142748, Control_c, 0, 64, 102
1, 142763, Control_c, 0, 64, 101
1, 142778, Control_c, 0, 64, 96
1, 142792, Control_c, 0, 64, 83
1, 142807, Control_c, 0, 64, 70
1, 142822, Control_c, 0, 64, 28
1, 142823, Poly_aftertouch_c, 0, 56, 0
1, 142836, Control_c, 0, 64, 0
1, 142946, Note_on_c, 0, 63, 70
1, 142947, Note_on_c, 0, 46, 67
1, 142948, Note_on_c, 0, 67, 75
1, 142949, Note_on_c, 0, 51, 66
1, 142953, Note_on_c, 0, 55, 60
1, 142955, Control_c, 0, 64, 65
1, 142956, Note_on_c, 0, 39, 44
1, 142970, Control_c, 0, 64, 77
1, 142973, Note_off_c, 0, 46, 64
1, 142974, Note_off_c, 0, 51, 66
1, 142974, Note_off_c, 0, 55, 62
1, 142974, Note_off_c, 0, 63, 64
1, 142978, Note_off_c, 0, 67, 59
1, 142984, Control_c, 0, 64, 90
1, 142988, Note_off_c, 0, 39, 52
1, 142999, Control_c, 0, 64, 108
1, 143014, Control_c, 0, 64, 127
1, 143073, Control_c, 0, 64, 103
1, 143076, Note_on_c, 0, 67, 77
1, 143087, Note_on_c, 0, 58, 71
1, 143088, Control_c, 0, 64, 80
1, 143096, Note_on_c, 0, 63, 56
1, 143102, Control_c, 0, 64, 61
1, 143117, Control_c, 0, 64, 0
1, 143177, Control_c, 0, 64, 51
1, 143177, Control_c, 0, 67, 125
1, 143192, Control_c, 0, 64, 67
1, 143192, Control_c, 0, 67, 123
1, 143206, Note_on_c, 0, 51, 67
1, 143207, Control_c, 0, 64, 78
1, 143207, Control_c, 0, 67, 119
1, 143222, Control_c, 0, 64, 94
1, 143222, Control_c, 0, 67, 115
1, 143231, Note_off_c, 0, 63, 59
1, 143236, Control_c, 0, 64, 127
1, 143236, Control_c, 0, 67, 110
1, 143237, Note_off_c, 0, 58, 37
1, 143251, Control_c, 0, 67, 103
1, 143256, Note_off_c, 0, 67, 61
1, 143262, Note_off_c, 0, 51, 57
1, 143266, Control_c, 0, 67, 96
1, 143281, Control_c, 0, 67, 91
1, 143296, Control_c, 0, 67, 88
1, 143317, Control_c, 0, 67, 86
1, 143333, Control_c, 0, 67, 85
1, 143340, Note_on_c, 0, 67, 89
1, 143347, Note_on_c, 0, 59, 73
1, 143348, Control_c, 0, 64, 87
1, 143348, Control_c, 0, 67, 84
1, 143351, Note_on_c, 0, 65, 84
1, 143363, Control_c, 0, 64, 52
1, 143363, Control_c, 0, 67, 82
1, 143378, Control_c, 0, 64, 0
1, 143378, Control_c, 0, 67, 78
1, 143393, Control_c, 0, 67, 76
1, 143408, Control_c, 0, 67, 73
1, 143422, Control_c, 0, 67, 70
1, 143437, Control_c, 0, 64, 66
1, 143437, Control_c, 0, 67, 68
1, 143451, Control_c, 0, 64, 82
1, 143451, Control_c, 0, 67, 66
1, 143466, Control_c, 0, 64, 112
1, 143466, Control_c, 0, 67, 64
1, 143469, Note_on_c, 0, 50, 73
1, 143470, Note_off_c, 0, 59, 59
1, 143481, Control_c, 0, 64, 127
1, 143481, Control_c, 0, 67, 62
1, 143496, Control_c, 0, 67, 59
1, 143505, Note_off_c, 0, 67, 59
1, 143511, Control_c, 0, 67, 57
1, 143514, Note_off_c, 0, 50, 63
1, 143522, Note_off_c, 0, 65, 64
1, 143526, Control_c, 0, 67, 55
1, 143540, Control_c, 0, 67, 53
1, 143555, Control_c, 0, 67, 52
1, 143570, Control_c, 0, 67, 52
1, 143585, Control_c, 0, 64, 104
1, 143585, Control_c, 0, 67, 51
1, 143591, Note_on_c, 0, 67, 90
1, 143594, Note_on_c, 0, 63, 80
1, 143596, Note_on_c, 0, 60, 77
1, 143600, Control_c, 0, 64, 74
1, 143600, Control_c, 0, 67, 51
1, 143614, Control_c, 0, 64, 0
1, 143614, Control_c, 0, 67, 50
1, 143629, Control_c, 0, 67, 49
1, 143644, Control_c, 0, 67, 48
1, 143658, Control_c, 0, 67, 47
1, 143673, Control_c, 0, 64, 51
1, 143673, Control_c, 0, 67, 46
1, 143688, Control_c, 0, 64, 72
1, 143688, Control_c, 0, 67, 45
1, 143703, Control_c, 0, 64, 91
1, 143703, Control_c, 0, 67, 44
1, 143711, Note_on_c, 0, 48, 71
1, 143712, Note_off_c, 0, 60, 64
1, 143718, Control_c, 0, 64, 127
1, 143718, Control_c, 0, 67, 42
1, 143732, Control_c, 0, 67, 41
1, 143744, Note_off_c, 0, 48, 65
1, 143747, Control_c, 0, 67, 40
1, 143761, Note_off_c, 0, 67, 58
1, 143762, Control_c, 0, 67, 39
1, 143777, Control_c, 0, 67, 38
1, 143780, Note_off_c, 0, 63, 60
1, 143792, Control_c, 0, 67, 38
1, 143836, Control_c, 0, 64, 113
1, 143843, Note_on_c, 0, 67, 91
1, 143845, Note_on_c, 0, 62, 81
1, 143846, Note_on_c, 0, 58, 83
1, 143851, Control_c, 0, 64, 75
1, 143866, Control_c, 0, 64, 0
1, 143880, Control_c, 0, 67, 37
1, 143940, Control_c, 0, 64, 64
1, 143955, Control_c, 0, 64, 83
1, 143965, Note_on_c, 0, 46, 74
1, 143966, Note_off_c, 0, 58, 61
1, 143970, Note_on_c, 0, 50, 73
1, 143970, Control_c, 0, 64, 127
1, 144006, Note_off_c, 0, 67, 58
1, 144024, Note_off_c, 0, 46, 59
1, 144029, Control_c, 0, 67, 37
1, 144039, Note_off_c, 0, 62, 59
1, 144041, Note_off_c, 0, 50, 64
1, 144044, Control_c, 0, 67, 36
1, 144065, Control_c, 0, 67, 36
1, 144080, Control_c, 0, 64, 91
1, 144080, Control_c, 0, 67, 35
1, 144095, Control_c, 0, 64, 0
1, 144095, Control_c, 0, 67, 33
1, 144098, Note_on_c, 0, 56, 82
1, 144101, Note_on_c, 0, 60, 91
1, 144104, Note_on_c, 0, 67, 97
1, 144110, Control_c, 0, 67, 31
1, 144125, Control_c, 0, 67, 27
1, 144141, Control_c, 0, 67, 22
1, 144155, Control_c, 0, 67, 17
1, 144170, Control_c, 0, 67, 13
1, 144185, Control_c, 0, 64, 61
1, 144185, Control_c, 0, 67, 9
1, 144200, Control_c, 0, 64, 80
1, 144200, Control_c, 0, 67, 0
1, 144211, Note_off_c, 0, 60, 62
1, 144211, Note_on_c, 0, 50, 71
1, 144215, Note_on_c, 0, 44, 77
1, 144215, Control_c, 0, 64, 127
1, 144252, Note_off_c, 0, 67, 59
1, 144307, Note_off_c, 0, 56, 61
1, 144339, Note_on_c, 0, 62, 85
1, 144341, Note_on_c, 0, 67, 96
1, 144342, Note_on_c, 0, 58, 90
1, 144347, Note_on_c, 0, 55, 84
1, 144378, Control_c, 0, 64, 86
1, 144389, Note_off_c, 0, 44, 33
1, 144393, Control_c, 0, 64, 0
1, 144393, Note_off_c, 0, 50, 46
1, 144397, Note_off_c, 0, 58, 63
1, 144422, Note_off_c, 0, 62, 60
1, 144461, Note_off_c, 0, 67, 55
1, 144468, Note_on_c, 0, 43, 90
1, 144471, Note_on_c, 0, 50, 88
1, 144511, Control_c, 0, 64, 64
1, 144526, Control_c, 0, 64, 80
1, 144531, Note_off_c, 0, 43, 64
1, 144541, Control_c, 0, 64, 112
1, 144545, Note_off_c, 0, 50, 66
1, 144556, Control_c, 0, 64, 127
1, 144569, Note_off_c, 0, 55, 65
1, 144581, Note_on_c, 0, 67, 83
1, 144726, Note_on_c, 0, 70, 92
1, 144726, Note_on_c, 0, 79, 98
1, 144727, Note_on_c, 0, 55, 83
1, 144730, Note_on_c, 0, 62, 89
1, 144733, Note_on_c, 0, 58, 88
1, 144737, Note_on_c, 0, 74, 77
1, 144748, Note_off_c, 0, 62, 72
1, 144751, Note_off_c, 0, 67, 64
1, 144754, Note_off_c, 0, 55, 63
1, 144756, Note_off_c, 0, 58, 67
1, 144759, Note_off_c, 0, 79, 64
1, 144760, Note_off_c, 0, 70, 68
1, 144760, Note_off_c, 0, 74, 71
1, 144977, Control_c, 0, 64, 97
1, 144992, Control_c, 0, 64, 71
1, 144992, Control_c, 0, 67, 9
1, 145005, Note_on_c, 0, 39, 78
1, 145005, Note_on_c, 0, 46, 81
1, 145007, Note_on_c, 0, 51, 77
1, 145007, Note_on_c, 0, 67, 84
1, 145007, Control_c, 0, 64, 0
1, 145007, Control_c, 0, 67, 12
1, 145008, Note_on_c, 0, 55, 79
1, 145022, Control_c, 0, 67, 17
1, 145025, Note_on_c, 0, 63, 57
1, 145031, Note_off_c, 0, 39, 64
1, 145032, Note_off_c, 0, 46, 65
1, 145034, Note_off_c, 0, 51, 68
1, 145034, Note_off_c, 0, 55, 67
1, 145037, Control_c, 0, 67, 23
1, 145043, Note_off_c, 0, 67, 61
1, 145047, Note_off_c, 0, 63, 61
1, 145052, Control_c, 0, 67, 28
1, 145067, Control_c, 0, 67, 33
1, 145082, Control_c, 0, 67, 37
1, 145097, Control_c, 0, 67, 41
1, 145111, Control_c, 0, 67, 44
1, 145126, Control_c, 0, 67, 47
1, 145141, Control_c, 0, 67, 49
1, 145150, Note_on_c, 0, 65, 84
1, 145156, Control_c, 0, 67, 50
1, 145171, Control_c, 0, 67, 52
1, 145185, Control_c, 0, 67, 54
1, 145189, Note_on_c, 0, 63, 64
1, 145200, Control_c, 0, 67, 57
1, 145215, Control_c, 0, 67, 60
1, 145225, Note_off_c, 0, 65, 61
1, 145229, Control_c, 0, 67, 62
1, 145232, Note_on_c, 0, 58, 70
1, 145243, Note_on_c, 0, 62, 83
1, 145244, Control_c, 0, 67, 64
1, 145255, Note_off_c, 0, 63, 63
1, 145259, Control_c, 0, 67, 66
1, 145274, Control_c, 0, 67, 67
1, 145276, Note_off_c, 0, 58, 59
1, 145285, Note_off_c, 0, 62, 60
1, 145289, Control_c, 0, 67, 69
1, 145303, Control_c, 0, 67, 70
1, 145318, Control_c, 0, 67, 72
1, 145333, Control_c, 0, 67, 73
1, 145348, Control_c, 0, 67, 73
1, 145363, Control_c, 0, 67, 74
1, 145367, Note_on_c, 0, 63, 80
1, 145377, Note_on_c, 0, 55, 59
1, 145377, Control_c, 0, 67, 75
1, 145392, Control_c, 0, 67, 76
1, 145407, Note_off_c, 0, 55, 66
1, 145407, Control_c, 0, 67, 78
1, 145418, Note_off_c, 0, 63, 61
1, 145422, Control_c, 0, 67, 80
1, 145436, Control_c, 0, 67, 82
1, 145451, Control_c, 0, 67, 84
1, 145466, Control_c, 0, 67, 87
1, 145481, Control_c, 0, 67, 89
1, 145496, Control_c, 0, 67, 90
1, 145499, Note_on_c, 0, 54, 74
1, 145505, Note_on_c, 0, 58, 81
1, 145511, Control_c, 0, 64, 36
1, 145511, Control_c, 0, 67, 92
1, 145526, Control_c, 0, 64, 40
1, 145526, Control_c, 0, 67, 93
1, 145532, Note_off_c, 0, 54, 66
1, 145536, Note_off_c, 0, 58, 61
1, 145541, Control_c, 0, 64, 0
1, 145541, Control_c, 0, 67, 94
1, 145556, Control_c, 0, 67, 95
1, 145578, Control_c, 0, 67, 96
1, 145592, Control_c, 0, 67, 96
1, 145630, Note_on_c, 0, 55, 69
1, 145661, Note_off_c, 0, 55, 65
1, 145766, Note_on_c, 0, 56, 82
1, 145770, Note_on_c, 0, 60, 72
1, 145771, Control_c, 0, 64, 57
1, 145782, Note_on_c, 0, 53, 62
1, 145786, Control_c, 0, 64, 73
1, 145788, Note_off_c, 0, 56, 70
1, 145797, Note_off_c, 0, 60, 69
1, 145801, Control_c, 0, 64, 83
1, 145810, Note_off_c, 0, 53, 66
1, 145815, Control_c, 0, 64, 96
1, 145830, Control_c, 0, 64, 107
1, 145845, Control_c, 0, 64, 109
1, 145845, Control_c, 0, 67, 96
1, 145860, Control_c, 0, 64, 108
1, 145875, Control_c, 0, 64, 100
1, 145875, Control_c, 0, 67, 95
1, 145890, Control_c, 0, 64, 87
1, 145890, Control_c, 0, 67, 95
1, 145904, Control_c, 0, 64, 71
1, 145919, Control_c, 0, 64, 0
1, 146023, Control_c, 0, 64, 57
1, 146023, Control_c, 0, 67, 94
1, 146027, Note_on_c, 0, 67, 76
1, 146027, Note_on_c, 0, 46, 68
1, 146027, Note_on_c, 0, 51, 69
1, 146030, Note_on_c, 0, 55, 65
1, 146035, Note_on_c, 0, 39, 52
1, 146038, Control_c, 0, 64, 73
1, 146051, Note_off_c, 0, 67, 66
1, 146051, Note_off_c, 0, 46, 65
1, 146052, Control_c, 0, 64, 88
1, 146052, Control_c, 0, 67, 94
1, 146057, Note_off_c, 0, 51, 64
1, 146058, Note_off_c, 0, 55, 65
1, 146065, Note_off_c, 0, 39, 53
1, 146067, Control_c, 0, 64, 127
1, 146067, Control_c, 0, 67, 93
1, 146097, Control_c, 0, 67, 93
1, 146112, Control_c, 0, 67, 92
1, 146126, Control_c, 0, 67, 92
1, 146167, Note_on_c, 0, 65, 80
1, 146171, Control_c, 0, 64, 123
1, 146186, Control_c, 0, 64, 88
1, 146200, Control_c, 0, 64, 65
1, 146200, Control_c, 0, 67, 93
1, 146207, Note_on_c, 0, 63, 72
1, 146215, Control_c, 0, 64, 0
1, 146215, Control_c, 0, 67, 93
1, 146230, Control_c, 0, 67, 94
1, 146244, Note_off_c, 0, 65, 57
1, 146245, Control_c, 0, 67, 95
1, 146256, Note_on_c, 0, 58, 70
1, 146259, Control_c, 0, 67, 95
1, 146265, Note_on_c, 0, 62, 80
1, 146272, Note_off_c, 0, 63, 64
1, 146274, Control_c, 0, 67, 96
1, 146306, Note_off_c, 0, 58, 58
1, 146306, Note_off_c, 0, 62, 60
1, 146403, Note_on_c, 0, 55, 63
1, 146405, Note_on_c, 0, 63, 78
1, 146435, Note_off_c, 0, 55, 64
1, 146459, Note_off_c, 0, 63, 60
1, 146533, Note_on_c, 0, 58, 88
1, 146539, Note_on_c, 0, 54, 69
1, 146569, Note_off_c, 0, 54, 65
1, 146579, Control_c, 0, 67, 96
1, 146580, Note_off_c, 0, 58, 64
1, 146657, Note_on_c, 0, 55, 61
1, 146686, Note_off_c, 0, 55, 65
1, 146787, Note_on_c, 0, 60, 75
1, 146793, Note_on_c, 0, 56, 76
1, 146802, Control_c, 0, 67, 97
1, 146809, Note_on_c, 0, 53, 48
1, 146812, Note_off_c, 0, 60, 70
1, 146818, Note_off_c, 0, 56, 68
1, 146838, Note_off_c, 0, 53, 58
1, 146846, Control_c, 0, 67, 97
1, 146890, Control_c, 0, 67, 98
1, 146964, Control_c, 0, 67, 97
1, 146979, Control_c, 0, 67, 96
1, 146993, Control_c, 0, 67, 94
1, 147008, Control_c, 0, 67, 93
1, 147023, Control_c, 0, 64, 63
1, 147023, Control_c, 0, 67, 92
1, 147038, Control_c, 0, 64, 72
1, 147038, Control_c, 0, 67, 91
1, 147046, Note_on_c, 0, 51, 62
1, 147047, Note_on_c, 0, 46, 61
1, 147047, Note_on_c, 0, 63, 66
1, 147049, Note_on_c, 0, 67, 69
1, 147058, Note_on_c, 0, 55, 57
1, 147061, Control_c, 0, 64, 83
1, 147061, Control_c, 0, 67, 90
1, 147075, Control_c, 0, 64, 97
1, 147075, Control_c, 0, 67, 90
1, 147078, Note_on_c, 0, 39, 12
1, 147079, Note_off_c, 0, 55, 61
1, 147081, Note_off_c, 0, 46, 64
1, 147082, Note_off_c, 0, 51, 66
1, 147086, Note_off_c, 0, 63, 61
1, 147090, Control_c, 0, 64, 109
1, 147105, Control_c, 0, 64, 118
1, 147109, Note_off_c, 0, 67, 55
1, 147120, Control_c, 0, 64, 120
1, 147131, Note_off_c, 0, 39, 47
1, 147150, Control_c, 0, 67, 90
1, 147179, Control_c, 0, 64, 105
1, 147179, Control_c, 0, 67, 91
1, 147194, Control_c, 0, 64, 86
1, 147195, Note_on_c, 0, 67, 82
1, 147206, Note_on_c, 0, 58, 69
1, 147206, Note_on_c, 0, 63, 62
1, 147208, Control_c, 0, 64, 67
1, 147223, Control_c, 0, 64, 0
1, 147253, Control_c, 0, 67, 90
1, 147282, Control_c, 0, 64, 19
1, 147282, Control_c, 0, 67, 90
1, 147297, Control_c, 0, 64, 64
1, 147312, Control_c, 0, 64, 75
1, 147312, Control_c, 0, 67, 89
1, 147328, Control_c, 0, 64, 91
1, 147328, Control_c, 0, 67, 89
1, 147330, Note_on_c, 0, 51, 63
1, 147340, Note_off_c, 0, 58, 49
1, 147343, Control_c, 0, 64, 127
1, 147343, Control_c, 0, 67, 88
1, 147358, Note_off_c, 0, 63, 58
1, 147358, Control_c, 0, 67, 86
1, 147367, Note_off_c, 0, 67, 57
1, 147373, Control_c, 0, 67, 85
1, 147383, Note_off_c, 0, 51, 57
1, 147387, Control_c, 0, 67, 85
1, 147402, Control_c, 0, 67, 84
1, 147417, Control_c, 0, 67, 83
1, 147431, Control_c, 0, 67, 82
1, 147446, Control_c, 0, 67, 80
1, 147451, Note_on_c, 0, 67, 92
1, 147461, Control_c, 0, 64, 99
1, 147461, Control_c, 0, 67, 77
1, 147464, Note_on_c, 0, 65, 79
1, 147464, Note_on_c, 0, 59, 66
1, 147476, Control_c, 0, 64, 73
1, 147476, Control_c, 0, 67, 74
1, 147491, Control_c, 0, 64, 0
1, 147491, Control_c, 0, 67, 70
1, 147505, Control_c, 0, 67, 66
1, 147520, Control_c, 0, 67, 62
1, 147535, Control_c, 0, 67, 58
1, 147550, Control_c, 0, 64, 64
1, 147550, Control_c, 0, 67, 54
1, 147565, Control_c, 0, 64, 74
1, 147565, Control_c, 0, 67, 51
1, 147580, Control_c, 0, 64, 91
1, 147580, Control_c, 0, 67, 48
1, 147589, Note_off_c, 0, 59, 57
1, 147589, Note_on_c, 0, 50, 64
1, 147595, Control_c, 0, 64, 127
1, 147595, Control_c, 0, 67, 44
1, 147610, Control_c, 0, 67, 41
1, 147624, Control_c, 0, 67, 39
1, 147633, Note_off_c, 0, 67, 56
1, 147639, Control_c, 0, 67, 37
1, 147643, Note_off_c, 0, 65, 63
1, 147654, Control_c, 0, 67, 35
1, 147658, Note_off_c, 0, 50, 63
1, 147684, Control_c, 0, 67, 35
1, 147713, Control_c, 0, 67, 34
1, 147718, Note_on_c, 0, 67, 89
1, 147721, Note_on_c, 0, 63, 84
1, 147728, Control_c, 0, 64, 78
1, 147730, Note_on_c, 0, 60, 74
1, 147743, Control_c, 0, 64, 0
1, 147743, Control_c, 0, 67, 34
1, 147758, Control_c, 0, 67, 33
1, 147772, Control_c, 0, 67, 33
1, 147787, Control_c, 0, 67, 32
1, 147824, Control_c, 0, 64, 66
1, 147839, Control_c, 0, 64, 79
1, 147839, Control_c, 0, 67, 32
1, 147843, Note_off_c, 0, 60, 63
1, 147849, Note_on_c, 0, 48, 64
1, 147854, Control_c, 0, 64, 106
1, 147869, Control_c, 0, 64, 127
1, 147869, Control_c, 0, 67, 31
1, 147885, Note_off_c, 0, 48, 63
1, 147898, Note_off_c, 0, 67, 57
1, 147898, Control_c, 0, 67, 31
1, 147925, Note_off_c, 0, 63, 60
1, 147978, Note_on_c, 0, 58, 80
1, 147980, Note_on_c, 0, 67, 91
1, 147985, Note_on_c, 0, 62, 82
1, 147987, Control_c, 0, 64, 119
1, 148002, Control_c, 0, 64, 80
1, 148017, Control_c, 0, 64, 0
1, 148031, Control_c, 0, 67, 30
1, 148061, Control_c, 0, 67, 30
1, 148076, Control_c, 0, 64, 31
1, 148091, Control_c, 0, 64, 70
1, 148091, Control_c, 0, 67, 29
1, 148103, Note_on_c, 0, 50, 72
1, 148104, Note_off_c, 0, 58, 61
1, 148105, Control_c, 0, 64, 96
1, 148107, Note_on_c, 0, 46, 69
1, 148120, Control_c, 0, 64, 127
1, 148136, Control_c, 0, 67, 29
1, 148153, Note_off_c, 0, 67, 54
1, 148179, Note_off_c, 0, 46, 61
1, 148181, Control_c, 0, 67, 28
1, 148189, Note_off_c, 0, 50, 62
1, 148192, Note_off_c, 0, 62, 54
1, 148210, Control_c, 0, 67, 27
1, 148225, Control_c, 0, 64, 75
1, 148225, Control_c, 0, 67, 25
1, 148239, Note_on_c, 0, 56, 78
1, 148239, Note_on_c, 0, 60, 83
1, 148239, Note_on_c, 0, 67, 87
1, 148240, Control_c, 0, 64, 0
1, 148240, Control_c, 0, 67, 21
1, 148254, Control_c, 0, 67, 12
1, 148269, Control_c, 0, 67, 0
1, 148314, Control_c, 0, 64, 40
1, 148328, Control_c, 0, 64, 73
1, 148343, Control_c, 0, 64, 94
1, 148344, Note_on_c, 0, 44, 70
1, 148346, Note_on_c, 0, 50, 74
1, 148358, Control_c, 0, 64, 127
1, 148376, Note_off_c, 0, 60, 62
1, 148412, Note_off_c, 0, 56, 59
1, 148420, Note_off_c, 0, 67, 56
1, 148460, Note_off_c, 0, 44, 62
1, 148476, Note_on_c, 0, 55, 81
1, 148481, Note_on_c, 0, 62, 82
1, 148481, Note_on_c, 0, 67, 84
1, 148486, Note_on_c, 0, 58, 84
1, 148498, Note_off_c, 0, 50, 37
1, 148537, Note_off_c, 0, 58, 62
1, 148552, Note_off_c, 0, 62, 58
1, 148573, Control_c, 0, 64, 82
1, 148580, Note_off_c, 0, 67, 64
1, 148588, Control_c, 0, 64, 0
1, 148611, Note_on_c, 0, 50, 79
1, 148612, Note_on_c, 0, 43, 86
1, 148677, Control_c, 0, 64, 67
1, 148692, Control_c, 0, 64, 78
1, 148707, Control_c, 0, 64, 98
1, 148710, Note_off_c, 0, 43, 64
1, 148714, Note_off_c, 0, 50, 65
1, 148721, Control_c, 0, 64, 127
1, 148732, Note_on_c, 0, 67, 80
1, 148762, Note_off_c, 0, 55, 65
1, 148856, Note_on_c, 0, 70, 78
1, 148856, Note_on_c, 0, 79, 88
1, 148856, Note_off_c, 0, 67, 48
1, 148862, Note_on_c, 0, 62, 88
1, 148866, Note_on_c, 0, 55, 73
1, 148866, Note_on_c, 0, 58, 84
1, 148876, Note_off_c, 0, 70, 71
1, 148882, Note_off_c, 0, 62, 70
1, 148885, Note_off_c, 0, 58, 72
1, 148888, Note_off_c, 0, 55, 65
1, 148893, Note_off_c, 0, 79, 61
1, 148899, Control_c, 0, 64, 114
1, 148914, Control_c, 0, 64, 75
1, 148930, Control_c, 0, 64, 0
1, 149004, Control_c, 0, 67, 8
1, 149014, Note_on_c, 0, 82, 99
1, 149019, Control_c, 0, 67, 12
1, 149025, Note_on_c, 0, 70, 70
1, 149033, Control_c, 0, 67, 16
1, 149040, Note_off_c, 0, 82, 65
1, 149042, Note_off_c, 0, 70, 67
1, 149048, Control_c, 0, 67, 23
1, 149063, Control_c, 0, 67, 31
1, 149077, Control_c, 0, 67, 38
1, 149092, Control_c, 0, 67, 44
1, 149107, Control_c, 0, 67, 49
1, 149122, Control_c, 0, 67, 53
1, 149137, Control_c, 0, 67, 58
1, 149151, Control_c, 0, 67, 61
1, 149166, Control_c, 0, 67, 65
1, 149181, Control_c, 0, 64, 49
1, 149181, Control_c, 0, 67, 68
1, 149196, Control_c, 0, 64, 62
1, 149196, Control_c, 0, 67, 70
1, 149211, Control_c, 0, 64, 66
1, 149211, Control_c, 0, 67, 74
1, 149225, Control_c, 0, 64, 70
1, 149225, Control_c, 0, 67, 77
1, 149236, Note_on_c, 0, 84, 79
1, 149240, Control_c, 0, 64, 76
1, 149240, Control_c, 0, 67, 80
1, 149252, Note_on_c, 0, 72, 60
1, 149255, Control_c, 0, 64, 83
1, 149255, Control_c, 0, 67, 83
1, 149270, Control_c, 0, 64, 88
1, 149270, Control_c, 0, 67, 84
1, 149285, Control_c, 0, 64, 93
1, 149285, Control_c, 0, 67, 86
1, 149307, Control_c, 0, 64, 97
1, 149307, Control_c, 0, 67, 87
1, 149322, Control_c, 0, 64, 103
1, 149322, Control_c, 0, 67, 88
1, 149337, Control_c, 0, 64, 118
1, 149337, Control_c, 0, 67, 90
1, 149351, Control_c, 0, 64, 127
1, 149351, Control_c, 0, 67, 92
1, 149366, Control_c, 0, 67, 95
1, 149381, Control_c, 0, 67, 97
1, 149383, Note_on_c, 0, 44, 46
1, 149393, Note_on_c, 0, 50, 46
1, 149396, Control_c, 0, 67, 99
1, 149410, Control_c, 0, 67, 100
1, 149417, Note_off_c, 0, 72, 58
1, 149423, Note_on_c, 0, 46, 30
1, 149425, Note_off_c, 0, 84, 59
1, 149425, Control_c, 0, 67, 101
1, 149441, Control_c, 0, 67, 101
1, 149471, Control_c, 0, 67, 102
1, 149484, Note_off_c, 0, 44, 52
1, 149500, Note_off_c, 0, 50, 62
1, 149500, Control_c, 0, 67, 102
1, 149515, Control_c, 0, 67, 103
1, 149518, Note_off_c, 0, 46, 37
1, 149535, Note_on_c, 0, 84, 75
1, 149537, Note_on_c, 0, 56, 61
1, 149545, Control_c, 0, 67, 104
1, 149549, Note_on_c, 0, 72, 62
1, 149559, Control_c, 0, 67, 105
1, 149571, Note_off_c, 0, 56, 64
1, 149574, Control_c, 0, 67, 105
1, 149584, Note_off_c, 0, 72, 60
1, 149589, Control_c, 0, 67, 106
1, 149599, Note_off_c, 0, 84, 62
1, 149634, Control_c, 0, 67, 105
1, 149663, Control_c, 0, 67, 104
1, 149666, Note_on_c, 0, 62, 46
1, 149668, Note_on_c, 0, 56, 36
1, 149672, Note_on_c, 0, 58, 49
1, 149678, Control_c, 0, 67, 104
1, 149693, Control_c, 0, 67, 103
1, 149708, Control_c, 0, 67, 102
1, 149723, Control_c, 0, 67, 101
1, 149738, Control_c, 0, 67, 101
1, 149753, Control_c, 0, 67, 100
1, 149758, Note_off_c, 0, 62, 59
1, 149760, Note_off_c, 0, 58, 58
1, 149765, Note_off_c, 0, 56, 39
1, 149768, Control_c, 0, 67, 100
1, 149781, Note_on_c, 0, 84, 76
1, 149783, Control_c, 0, 67, 99
1, 149792, Note_on_c, 0, 72, 61
1, 149797, Note_on_c, 0, 68, 65
1, 149798, Control_c, 0, 67, 99
1, 149812, Control_c, 0, 67, 98
1, 149824, Note_off_c, 0, 72, 60
1, 149827, Control_c, 0, 67, 97
1, 149842, Control_c, 0, 67, 97
1, 149857, Control_c, 0, 67, 96
1, 149869, Note_off_c, 0, 68, 54
1, 149872, Control_c, 0, 67, 96
1, 149913, Note_on_c, 0, 82, 79
1, 149927, Note_on_c, 0, 56, 43
1, 149931, Note_on_c, 0, 62, 44
1, 149938, Note_off_c, 0, 84, 56
1, 149955, Note_on_c, 0, 80, 80
1, 149966, Note_off_c, 0, 62, 62
1, 149970, Note_off_c, 0, 56, 61
1, 149975, Control_c, 0, 67, 95
1, 149985, Poly_aftertouch_c, 0, 58, 127
1, 149988, Note_off_c, 0, 82, 60
1, 149990, Control_c, 0, 64, 85
1, 149990, Control_c, 0, 67, 94
1, 150005, Control_c, 0, 64, 0
1, 150012, Poly_aftertouch_c, 0, 58, 0
1, 150014, Note_on_c, 0, 79, 83
1, 150023, Note_off_c, 0, 80, 64
1, 150060, Note_off_c, 0, 79, 63
1, 150072, Control_c, 0, 67, 95
1, 150087, Control_c, 0, 67, 96
1, 150101, Control_c, 0, 67, 96
1, 150116, Control_c, 0, 67, 97
1, 150131, Control_c, 0, 67, 98
1, 150146, Control_c, 0, 67, 98
1, 150148, Note_on_c, 0, 77, 80
1, 150161, Control_c, 0, 67, 100
1, 150169, Note_off_c, 0, 77, 69
1, 150175, Control_c, 0, 67, 100
1, 150189, Control_c, 0, 67, 101
1, 150204, Control_c, 0, 67, 102
1, 150219, Control_c, 0, 67, 103
1, 150248, Control_c, 0, 67, 103
1, 150263, Control_c, 0, 64, 49
1, 150263, Control_c, 0, 67, 104
1, 150278, Control_c, 0, 64, 65
1, 150293, Control_c, 0, 64, 73
1, 150298, Note_on_c, 0, 82, 78
1, 150307, Control_c, 0, 64, 81
1, 150307, Control_c, 0, 67, 104
1, 150311, Note_on_c, 0, 70, 53
1, 150316, Note_off_c, 0, 82, 72
1, 150322, Control_c, 0, 64, 91
1, 150334, Note_off_c, 0, 70, 61
1, 150337, Control_c, 0, 64, 101
1, 150337, Control_c, 0, 67, 105
1, 150352, Control_c, 0, 64, 109
1, 150352, Control_c, 0, 67, 105
1, 150367, Control_c, 0, 64, 117
1, 150382, Control_c, 0, 64, 127
1, 150417, Note_on_c, 0, 43, 44
1, 150420, Note_on_c, 0, 51, 45
1, 150447, Note_on_c, 0, 46, 38
1, 150510, Note_off_c, 0, 43, 56
1, 150531, Control_c, 0, 67, 105
1, 150531, Note_off_c, 0, 46, 50
1, 150537, Note_off_c, 0, 51, 63
1, 150546, Control_c, 0, 67, 104
1, 150561, Control_c, 0, 67, 104
1, 150562, Note_on_c, 0, 82, 82
1, 150568, Note_on_c, 0, 55, 54
1, 150576, Control_c, 0, 67, 103
1, 150582, Note_on_c, 0, 70, 52
1, 150596, Note_off_c, 0, 55, 65
1, 150602, Note_off_c, 0, 70, 62
1, 150604, Note_off_c, 0, 82, 58
1, 150605, Control_c, 0, 67, 102
1, 150635, Control_c, 0, 67, 102
1, 150664, Control_c, 0, 67, 101
1, 150679, Control_c, 0, 67, 101
1, 150692, Note_on_c, 0, 55, 43
1, 150694, Control_c, 0, 67, 100
1, 150697, Note_on_c, 0, 63, 51
1, 150698, Note_on_c, 0, 58, 43
1, 150709, Control_c, 0, 67, 99
1, 150723, Control_c, 0, 67, 98
1, 150738, Control_c, 0, 67, 97
1, 150753, Control_c, 0, 67, 96
1, 150768, Control_c, 0, 67, 95
1, 150775, Note_off_c, 0, 63, 54
1, 150783, Control_c, 0, 67, 94
1, 150802, Note_off_c, 0, 55, 34
1, 150805, Control_c, 0, 67, 93
1, 150820, Control_c, 0, 67, 92
1, 150823, Note_on_c, 0, 82, 84
1, 150827, Note_off_c, 0, 58, 43
1, 150835, Control_c, 0, 67, 91
1, 150841, Note_on_c, 0, 67, 57
1, 150844, Note_on_c, 0, 70, 42
1, 150849, Control_c, 0, 67, 88
1, 150864, Control_c, 0, 67, 86
1, 150874, Note_off_c, 0, 70, 54
1, 150879, Control_c, 0, 67, 85
1, 150894, Control_c, 0, 67, 83
1, 150905, Note_off_c, 0, 67, 51
1, 150909, Control_c, 0, 67, 80
1, 150923, Control_c, 0, 67, 78
1, 150938, Control_c, 0, 67, 77
1, 150945, Note_on_c, 0, 55, 54
1, 150951, Note_on_c, 0, 63, 58
1, 150953, Control_c, 0, 67, 77
1, 150955, Note_on_c, 0, 58, 47
1, 150968, Control_c, 0, 67, 77
1, 150981, Note_off_c, 0, 63, 64
1, 150982, Control_c, 0, 67, 78
1, 150983, Note_off_c, 0, 55, 60
1, 150991, Note_off_c, 0, 58, 61
1, 150997, Control_c, 0, 67, 79
1, 151012, Control_c, 0, 67, 80
1, 151027, Control_c, 0, 67, 80
1, 151042, Control_c, 0, 67, 81
1, 151056, Control_c, 0, 64, 122
1, 151063, Note_off_c, 0, 82, 63
1, 151071, Control_c, 0, 64, 80
1, 151071, Control_c, 0, 67, 82
1, 151077, Note_on_c, 0, 87, 85
1, 151086, Control_c, 0, 64, 0
1, 151086, Control_c, 0, 67, 83
1, 151092, Note_on_c, 0, 75, 60
1, 151101, Control_c, 0, 67, 84
1, 151104, Note_off_c, 0, 87, 67
1, 151111, Note_off_c, 0, 75, 65
1, 151116, Control_c, 0, 67, 85
1, 151130, Control_c, 0, 67, 86
1, 151145, Control_c, 0, 67, 88
1, 151160, Control_c, 0, 67, 89
1, 151175, Control_c, 0, 67, 92
1, 151190, Control_c, 0, 67, 93
1, 151205, Control_c, 0, 67, 96
1, 151210, Note_on_c, 0, 86, 83
1, 151219, Control_c, 0, 67, 98
1, 151225, Note_on_c, 0, 74, 59
1, 151228, Note_off_c, 0, 86, 70
1, 151234, Control_c, 0, 67, 100
1, 151245, Note_off_c, 0, 74, 63
1, 151249, Control_c, 0, 67, 102
1, 151264, Control_c, 0, 67, 105
1, 151279, Control_c, 0, 67, 106
1, 151294, Control_c, 0, 67, 108
1, 151309, Control_c, 0, 67, 108
1, 151324, Control_c, 0, 64, 43
1, 151339, Control_c, 0, 64, 67
1, 151354, Control_c, 0, 64, 76
1, 151356, Note_on_c, 0, 84, 81
1, 151366, Note_on_c, 0, 72, 66
1, 151368, Control_c, 0, 64, 89
1, 151374, Note_off_c, 0, 84, 72
1, 151383, Note_off_c, 0, 72, 65
1, 151383, Control_c, 0, 64, 115
1, 151398, Control_c, 0, 64, 127
1, 151476, Note_on_c, 0, 50, 55
1, 151488, Note_on_c, 0, 44, 48
1, 151491, Note_on_c, 0, 46, 48
1, 151502, Control_c, 0, 67, 109
1, 151517, Control_c, 0, 67, 110
1, 151532, Control_c, 0, 67, 113
1, 151553, Control_c, 0, 67, 116
1, 151556, Note_off_c, 0, 44, 55
1, 151558, Note_off_c, 0, 46, 53
1, 151568, Note_off_c, 0, 50, 63
1, 151568, Control_c, 0, 67, 118
1, 151583, Control_c, 0, 67, 119
1, 151598, Control_c, 0, 67, 119
1, 151613, Control_c, 0, 67, 120
1, 151617, Note_on_c, 0, 84, 75
1, 151621, Note_on_c, 0, 56, 58
1, 151628, Control_c, 0, 67, 121
1, 151629, Note_on_c, 0, 72, 56
1, 151643, Control_c, 0, 67, 121
1, 151643, Note_off_c, 0, 84, 62
1, 151649, Note_off_c, 0, 56, 66
1, 151651, Note_off_c, 0, 72, 60
1, 151735, Note_on_c, 0, 56, 44
1, 151743, Note_on_c, 0, 62, 53
1, 151746, Control_c, 0, 67, 121
1, 151750, Note_on_c, 0, 58, 46
1, 151776, Control_c, 0, 67, 120
1, 151778, Note_off_c, 0, 56, 50
1, 151804, Note_off_c, 0, 58, 50
1, 151805, Control_c, 0, 67, 119
1, 151835, Control_c, 0, 67, 119
1, 151843, Note_off_c, 0, 62, 33
1, 151850, Control_c, 0, 67, 118
1, 151865, Control_c, 0, 67, 118
1, 151875, Note_on_c, 0, 84, 72
1, 151879, Control_c, 0, 67, 117
1, 151894, Note_on_c, 0, 68, 55
1, 151894, Control_c, 0, 67, 116
1, 151899, Note_on_c, 0, 72, 39
1, 151909, Control_c, 0, 67, 115
1, 151924, Control_c, 0, 67, 114
1, 151926, Note_off_c, 0, 72, 55
1, 151939, Control_c, 0, 67, 114
1, 151953, Control_c, 0, 67, 113
1, 151968, Control_c, 0, 67, 113
1, 151985, Note_off_c, 0, 68, 56
1, 151997, Control_c, 0, 67, 112
1, 152015, Note_on_c, 0, 56, 38
1, 152023, Note_on_c, 0, 62, 37
1, 152024, Note_on_c, 0, 82, 71
1, 152051, Note_off_c, 0, 84, 54
1, 152066, Note_on_c, 0, 58, 17
1, 152066, Note_off_c, 0, 62, 59
1, 152067, Note_on_c, 0, 80, 73
1, 152075, Note_off_c, 0, 56, 54
1, 152087, Control_c, 0, 67, 113
1, 152095, Note_off_c, 0, 82, 54
1, 152112, Note_off_c, 0, 58, 45
1, 152116, Note_on_c, 0, 79, 80
1, 152117, Control_c, 0, 64, 115
1, 152117, Control_c, 0, 67, 113
1, 152125, Note_off_c, 0, 80, 63
1, 152132, Control_c, 0, 64, 81
1, 152132, Control_c, 0, 67, 114
1, 152141, Note_off_c, 0, 79, 65
1, 152147, Control_c, 0, 64, 44
1, 152162, Control_c, 0, 64, 0
1, 152162, Control_c, 0, 67, 114
1, 152176, Control_c, 0, 67, 115
1, 152191, Control_c, 0, 67, 115
1, 152206, Control_c, 0, 67, 116
1, 152221, Control_c, 0, 67, 117
1, 152236, Control_c, 0, 67, 118
1, 152251, Note_on_c, 0, 77, 75
1, 152251, Control_c, 0, 67, 118
1, 152266, Control_c, 0, 67, 119
1, 152272, Note_off_c, 0, 77, 71
1, 152376, Control_c, 0, 64, 54
1, 152376, Control_c, 0, 67, 118
1, 152391, Control_c, 0, 64, 68
1, 152400, Note_on_c, 0, 82, 81
1, 152406, Control_c, 0, 64, 77
1, 152406, Control_c, 0, 67, 118
1, 152407, Note_on_c, 0, 70, 65
1, 152418, Note_off_c, 0, 82, 72
1, 152421, Control_c, 0, 64, 88
1, 152424, Note_off_c, 0, 70, 65
1, 152436, Control_c, 0, 64, 103
1, 152436, Control_c, 0, 67, 117
1, 152451, Control_c, 0, 64, 127
1, 152451, Control_c, 0, 67, 117
1, 152481, Control_c, 0, 67, 116
1, 152495, Control_c, 0, 67, 116
1, 152507, Note_on_c, 0, 43, 47
1, 152510, Control_c, 0, 67, 115
1, 152523, Note_on_c, 0, 51, 46
1, 152540, Note_on_c, 0, 46, 44
1, 152540, Control_c, 0, 67, 115
1, 152570, Control_c, 0, 67, 114
1, 152585, Control_c, 0, 67, 114
1, 152597, Note_off_c, 0, 43, 59
1, 152614, Note_off_c, 0, 46, 57
1, 152615, Control_c, 0, 67, 113
1, 152627, Note_off_c, 0, 51, 64
1, 152644, Control_c, 0, 67, 113
1, 152650, Note_on_c, 0, 82, 84
1, 152659, Note_on_c, 0, 70, 66
1, 152659, Control_c, 0, 67, 112
1, 152662, Note_on_c, 0, 55, 56
1, 152674, Control_c, 0, 67, 111
1, 152685, Note_off_c, 0, 82, 56
1, 152686, Note_off_c, 0, 70, 67
1, 152689, Control_c, 0, 67, 111
1, 152691, Note_off_c, 0, 55, 66
1, 152703, Control_c, 0, 67, 110
1, 152718, Control_c, 0, 67, 110
1, 152733, Control_c, 0, 67, 109
1, 152747, Control_c, 0, 67, 108
1, 152762, Control_c, 0, 67, 106
1, 152774, Note_on_c, 0, 55, 54
1, 152775, Note_on_c, 0, 63, 64
1, 152777, Control_c, 0, 67, 104
1, 152780, Note_on_c, 0, 58, 50
1, 152792, Control_c, 0, 67, 102
1, 152807, Control_c, 0, 67, 98
1, 152821, Control_c, 0, 67, 95
1, 152836, Control_c, 0, 67, 89
1, 152850, Note_off_c, 0, 55, 49
1, 152851, Control_c, 0, 67, 85
1, 152865, Note_off_c, 0, 58, 56
1, 152865, Note_off_c, 0, 63, 58
1, 152866, Control_c, 0, 67, 79
1, 152881, Control_c, 0, 67, 73
1, 152894, Note_on_c, 0, 82, 83
1, 152895, Control_c, 0, 67, 66
1, 152907, Note_on_c, 0, 70, 74
1, 152910, Control_c, 0, 67, 58
1, 152916, Note_off_c, 0, 82, 68
1, 152920, Note_on_c, 0, 67, 61
1, 152926, Control_c, 0, 67, 50
1, 152933, Note_off_c, 0, 70, 65
1, 152941, Control_c, 0, 67, 43
1, 152956, Control_c, 0, 67, 37
1, 152966, Note_off_c, 0, 67, 56
1, 152971, Control_c, 0, 67, 33
1, 152986, Control_c, 0, 67, 30
1, 153000, Control_c, 0, 67, 28
1, 153015, Control_c, 0, 67, 26
1, 153029, Note_on_c, 0, 63, 57
1, 153030, Note_on_c, 0, 55, 56
1, 153030, Control_c, 0, 67, 25
1, 153051, Note_on_c, 0, 58, 31
1, 153064, Note_off_c, 0, 63, 64
1, 153067, Note_off_c, 0, 55, 65
1, 153090, Note_off_c, 0, 58, 53
1, 153169, Note_on_c, 0, 63, 69
1, 153170, Note_on_c, 0, 67, 84
1, 153200, Control_c, 0, 67, 24
1, 153208, Note_off_c, 0, 67, 61
1, 153215, Control_c, 0, 67, 23
1, 153219, Note_off_c, 0, 63, 58
1, 153230, Control_c, 0, 67, 21
1, 153244, Control_c, 0, 67, 16
1, 153259, Control_c, 0, 67, 10
1, 153274, Control_c, 0, 67, 0
1, 153287, Note_on_c, 0, 70, 91
1, 153299, Note_on_c, 0, 67, 78
1, 153316, Note_off_c, 0, 67, 69
1, 153349, Note_off_c, 0, 70, 63
1, 153440, Note_on_c, 0, 72, 89
1, 153440, Note_on_c, 0, 44, 68
1, 153452, Control_c, 0, 64, 108
1, 153454, Note_on_c, 0, 68, 79
1, 153467, Control_c, 0, 64, 77
1, 153482, Control_c, 0, 64, 0
1, 153556, Control_c, 0, 64, 61
1, 153570, Control_c, 0, 64, 73
1, 153575, Note_on_c, 0, 60, 68
1, 153577, Note_on_c, 0, 50, 63
1, 153577, Note_on_c, 0, 65, 72
1, 153585, Control_c, 0, 64, 88
1, 153600, Control_c, 0, 64, 127
1, 153613, Note_off_c, 0, 68, 60
1, 153618, Note_off_c, 0, 60, 61
1, 153618, Note_off_c, 0, 72, 61
1, 153637, Note_off_c, 0, 65, 63
1, 153700, Note_on_c, 0, 72, 96
1, 153703, Note_on_c, 0, 68, 92
1, 153704, Control_c, 0, 64, 95
1, 153720, Control_c, 0, 64, 61
1, 153735, Control_c, 0, 64, 0
1, 153779, Control_c, 0, 64, 61
1, 153801, Control_c, 0, 64, 71
1, 153815, Note_off_c, 0, 68, 55
1, 153816, Control_c, 0, 64, 85
1, 153819, Note_on_c, 0, 67, 73
1, 153819, Note_on_c, 0, 60, 70
1, 153828, Note_on_c, 0, 52, 67
1, 153831, Control_c, 0, 64, 107
1, 153846, Control_c, 0, 64, 127
1, 153849, Note_off_c, 0, 60, 65
1, 153864, Note_off_c, 0, 72, 61
1, 153881, Note_off_c, 0, 67, 62
1, 153896, Note_off_c, 0, 50, 53
1, 153920, Control_c, 0, 64, 110
1, 153920, Control_c, 0, 67, 8
1, 153934, Control_c, 0, 64, 88
1, 153934, Control_c, 0, 67, 10
1, 153948, Control_c, 0, 64, 71
1, 153948, Control_c, 0, 67, 11
1, 153959, Note_on_c, 0, 68, 79
1, 153959, Note_on_c, 0, 72, 83
1, 153959, Note_off_c, 0, 52, 59
1, 153963, Control_c, 0, 64, 41
1, 153963, Control_c, 0, 67, 13
1, 153965, Note_on_c, 0, 53, 61
1, 153978, Control_c, 0, 64, 0
1, 153978, Control_c, 0, 67, 16
1, 153992, Note_off_c, 0, 68, 64
1, 153992, Control_c, 0, 67, 19
1, 154007, Control_c, 0, 67, 22
1, 154022, Control_c, 0, 67, 25
1, 154035, Note_off_c, 0, 53, 64
1, 154037, Control_c, 0, 67, 28
1, 154052, Control_c, 0, 67, 29
1, 154066, Control_c, 0, 67, 30
1, 154096, Control_c, 0, 67, 31
1, 154098, Note_on_c, 0, 70, 78
1, 154111, Control_c, 0, 67, 31
1, 154125, Note_off_c, 0, 72, 62
1, 154126, Control_c, 0, 67, 32
1, 154141, Note_on_c, 0, 68, 79
1, 154141, Control_c, 0, 67, 32
1, 154156, Control_c, 0, 67, 33
1, 154171, Control_c, 0, 67, 35
1, 154182, Note_off_c, 0, 70, 59
1, 154185, Control_c, 0, 67, 36
1, 154188, Note_off_c, 0, 44, 61
1, 154200, Control_c, 0, 67, 36
1, 154204, Note_on_c, 0, 67, 83
1, 154212, Note_off_c, 0, 68, 63
1, 154230, Note_off_c, 0, 67, 65
1, 154304, Control_c, 0, 67, 37
1, 154327, Note_on_c, 0, 65, 73
1, 154334, Control_c, 0, 67, 37
1, 154355, Note_off_c, 0, 65, 66
1, 154422, Control_c, 0, 67, 37
1, 154437, Control_c, 0, 67, 36
1, 154452, Control_c, 0, 67, 35
1, 154462, Note_on_c, 0, 70, 72
1, 154466, Control_c, 0, 67, 34
1, 154477, Note_on_c, 0, 43, 54
1, 154481, Control_c, 0, 67, 34
1, 154484, Note_on_c, 0, 67, 54
1, 154496, Control_c, 0, 64, 62
1, 154496, Control_c, 0, 67, 33
1, 154512, Control_c, 0, 64, 71
1, 154512, Control_c, 0, 67, 31
1, 154527, Control_c, 0, 64, 82
1, 154527, Control_c, 0, 67, 30
1, 154549, Control_c, 0, 64, 100
1, 154549, Control_c, 0, 67, 29
1, 154564, Control_c, 0, 64, 127
1, 154564, Control_c, 0, 67, 27
1, 154579, Control_c, 0, 67, 26
1, 154594, Control_c, 0, 67, 24
1, 154594, Note_on_c, 0, 48, 63
1, 154609, Control_c, 0, 67, 23
1, 154611, Note_on_c, 0, 63, 63
1, 154623, Control_c, 0, 67, 21
1, 154635, Note_off_c, 0, 70, 60
1, 154638, Note_on_c, 0, 58, 36
1, 154652, Note_off_c, 0, 67, 50
1, 154668, Control_c, 0, 67, 21
1, 154674, Note_off_c, 0, 58, 51
1, 154697, Control_c, 0, 64, 97
1, 154712, Control_c, 0, 64, 69
1, 154718, Note_off_c, 0, 63, 55
1, 154722, Note_on_c, 0, 67, 61
1, 154725, Note_on_c, 0, 70, 73
1, 154727, Control_c, 0, 64, 0
1, 154727, Control_c, 0, 67, 20
1, 154786, Control_c, 0, 64, 43
1, 154801, Control_c, 0, 64, 65
1, 154815, Control_c, 0, 64, 74
1, 154824, Note_on_c, 0, 50, 68
1, 154826, Note_on_c, 0, 58, 58
1, 154826, Note_on_c, 0, 65, 71
1, 154829, Note_off_c, 0, 70, 60
1, 154830, Control_c, 0, 64, 87
1, 154845, Control_c, 0, 64, 110
1, 154853, Note_off_c, 0, 67, 56
1, 154858, Note_off_c, 0, 58, 63
1, 154860, Control_c, 0, 64, 127
1, 154869, Note_off_c, 0, 48, 56
1, 154875, Control_c, 0, 67, 20
1, 154876, Note_off_c, 0, 43, 51
1, 154902, Note_off_c, 0, 65, 61
1, 154919, Control_c, 0, 67, 19
1, 154945, Note_on_c, 0, 67, 60
1, 154946, Note_on_c, 0, 70, 61
1, 154949, Control_c, 0, 67, 19
1, 154959, Note_on_c, 0, 51, 72
1, 154960, Note_off_c, 0, 50, 64
1, 154963, Control_c, 0, 67, 18
1, 154978, Control_c, 0, 67, 17
1, 154982, Note_off_c, 0, 67, 58
1, 154992, Note_on_c, 0, 66, 83
1, 155005, Note_off_c, 0, 70, 61
1, 155038, Control_c, 0, 67, 18
1, 155052, Note_off_c, 0, 66, 63
1, 155053, Control_c, 0, 64, 103
1, 155065, Note_on_c, 0, 67, 75
1, 155068, Control_c, 0, 64, 79
1, 155068, Control_c, 0, 67, 19
1, 155081, Note_off_c, 0, 51, 39
1, 155083, Control_c, 0, 64, 59
1, 155083, Control_c, 0, 67, 19
1, 155097, Control_c, 0, 64, 0
1, 155127, Note_on_c, 0, 70, 79
1, 155127, Control_c, 0, 67, 20
1, 155145, Note_off_c, 0, 67, 56
1, 155171, Control_c, 0, 67, 20
1, 155177, Note_on_c, 0, 75, 88
1, 155190, Note_off_c, 0, 70, 65
1, 155211, Note_off_c, 0, 75, 65
1, 155215, Control_c, 0, 67, 21
1, 155312, Control_c, 0, 67, 21
1, 155332, Note_on_c, 0, 74, 87
1, 155351, Note_off_c, 0, 74, 74
1, 155446, Control_c, 0, 67, 21
1, 155461, Control_c, 0, 67, 20
1, 155476, Control_c, 0, 67, 20
1, 155482, Note_on_c, 0, 72, 87
1, 155489, Note_on_c, 0, 44, 56
1, 155491, Control_c, 0, 67, 19
1, 155506, Note_on_c, 0, 68, 68
1, 155506, Control_c, 0, 67, 19
1, 155521, Control_c, 0, 64, 63
1, 155521, Control_c, 0, 67, 18
1, 155536, Control_c, 0, 64, 71
1, 155536, Control_c, 0, 67, 18
1, 155551, Control_c, 0, 64, 80
1, 155551, Control_c, 0, 67, 17
1, 155566, Control_c, 0, 64, 93
1, 155566, Control_c, 0, 67, 16
1, 155581, Control_c, 0, 64, 115
1, 155581, Control_c, 0, 67, 13
1, 155595, Control_c, 0, 64, 127
1, 155595, Control_c, 0, 67, 9
1, 155610, Control_c, 0, 67, 0
1, 155614, Note_on_c, 0, 65, 70
1, 155615, Note_on_c, 0, 60, 65
1, 155617, Note_on_c, 0, 50, 64
1, 155641, Note_off_c, 0, 72, 61
1, 155641, Note_off_c, 0, 68, 61
1, 155644, Note_off_c, 0, 60, 67
1, 155666, Note_off_c, 0, 65, 62
1, 155728, Control_c, 0, 64, 116
1, 155739, Note_on_c, 0, 72, 87
1, 155743, Control_c, 0, 64, 80
1, 155751, Note_on_c, 0, 68, 76
1, 155758, Control_c, 0, 64, 55
1, 155772, Control_c, 0, 64, 48
1, 155787, Control_c, 0, 64, 65
1, 155802, Control_c, 0, 64, 74
1, 155817, Control_c, 0, 64, 87
1, 155832, Control_c, 0, 64, 118
1, 155832, Control_c, 0, 67, 8
1, 155846, Control_c, 0, 64, 127
1, 155846, Control_c, 0, 67, 8
1, 155859, Note_on_c, 0, 60, 64
1, 155861, Control_c, 0, 67, 9
1, 155863, Note_on_c, 0, 52, 70
1, 155866, Note_on_c, 0, 67, 68
1, 155872, Note_off_c, 0, 68, 59
1, 155876, Control_c, 0, 67, 9
1, 155889, Note_off_c, 0, 60, 67
1, 155904, Note_off_c, 0, 72, 61
1, 155906, Control_c, 0, 67, 10
1, 155916, Note_off_c, 0, 67, 60
1, 155920, Control_c, 0, 64, 89
1, 155920, Control_c, 0, 67, 11
1, 155935, Control_c, 0, 64, 67
1, 155935, Control_c, 0, 67, 11
1, 155944, Note_off_c, 0, 50, 41
1, 155950, Control_c, 0, 64, 0
1, 155950, Control_c, 0, 67, 12
1, 155965, Control_c, 0, 67, 13
1, 155980, Control_c, 0, 67, 14
1, 155995, Control_c, 0, 67, 16
1, 156000, Note_on_c, 0, 72, 83
1, 156004, Note_on_c, 0, 68, 75
1, 156007, Note_on_c, 0, 53, 68
1, 156010, Control_c, 0, 67, 17
1, 156016, Note_off_c, 0, 52, 60
1, 156025, Control_c, 0, 67, 20
1, 156030, Note_off_c, 0, 68, 67
1, 156046, Control_c, 0, 67, 22
1, 156061, Control_c, 0, 67, 24
1, 156076, Control_c, 0, 67, 26
1, 156091, Control_c, 0, 67, 27
1, 156097, Note_off_c, 0, 53, 62
1, 156152, Note_on_c, 0, 70, 80
1, 156166, Control_c, 0, 67, 27
1, 156189, Note_off_c, 0, 72, 61
1, 156192, Note_on_c, 0, 68, 82
1, 156195, Control_c, 0, 67, 28
1, 156207, Note_off_c, 0, 44, 62
1, 156210, Control_c, 0, 67, 29
1, 156225, Control_c, 0, 67, 30
1, 156234, Note_off_c, 0, 70, 62
1, 156240, Control_c, 0, 67, 31
1, 156264, Note_off_c, 0, 68, 64
1, 156268, Note_on_c, 0, 67, 68
1, 156293, Note_off_c, 0, 67, 63
1, 156314, Control_c, 0, 67, 30
1, 156359, Control_c, 0, 67, 31
1, 156373, Control_c, 0, 67, 31
1, 156388, Control_c, 0, 67, 32
1, 156394, Note_on_c, 0, 65, 77
1, 156418, Control_c, 0, 67, 32
1, 156424, Note_off_c, 0, 65, 64
1, 156492, Control_c, 0, 67, 32
1, 156507, Control_c, 0, 67, 31
1, 156525, Note_on_c, 0, 43, 63
1, 156535, Note_on_c, 0, 66, 68
1, 156566, Control_c, 0, 64, 65
1, 156576, Note_on_c, 0, 69, 41
1, 156581, Control_c, 0, 64, 74
1, 156581, Control_c, 0, 67, 31
1, 156595, Control_c, 0, 64, 85
1, 156595, Control_c, 0, 67, 30
1, 156610, Control_c, 0, 64, 100
1, 156610, Control_c, 0, 67, 29
1, 156618, Note_off_c, 0, 69, 50
1, 156625, Control_c, 0, 64, 118
1, 156625, Control_c, 0, 67, 29
1, 156640, Control_c, 0, 64, 127
1, 156640, Control_c, 0, 67, 28
1, 156655, Poly_aftertouch_c, 0, 68, 0
1, 156655, Control_c, 0, 67, 27
1, 156656, Note_on_c, 0, 63, 70
1, 156658, Note_on_c, 0, 48, 74
1, 156659, Note_off_c, 0, 66, 53
1, 156669, Control_c, 0, 67, 26
1, 156684, Control_c, 0, 67, 26
1, 156714, Control_c, 0, 67, 26
1, 156715, Note_on_c, 0, 58, 26
1, 156729, Control_c, 0, 64, 126
1, 156743, Control_c, 0, 64, 102
1, 156755, Note_off_c, 0, 58, 49
1, 156758, Control_c, 0, 64, 80
1, 156773, Control_c, 0, 64, 64
1, 156773, Control_c, 0, 67, 27
1, 156795, Control_c, 0, 64, 0
1, 156796, Note_on_c, 0, 70, 80
1, 156802, Note_on_c, 0, 67, 69
1, 156806, Note_off_c, 0, 63, 58
1, 156810, Control_c, 0, 67, 28
1, 156825, Control_c, 0, 67, 28
1, 156840, Control_c, 0, 67, 29
1, 156855, Control_c, 0, 67, 29
1, 156903, Note_on_c, 0, 50, 74
1, 156905, Note_off_c, 0, 43, 61
1, 156906, Note_on_c, 0, 65, 73
1, 156910, Note_off_c, 0, 70, 61
1, 156913, Note_on_c, 0, 58, 55
1, 156927, Note_off_c, 0, 67, 53
1, 156930, Control_c, 0, 64, 43
1, 156940, Note_off_c, 0, 48, 61
1, 156945, Control_c, 0, 64, 65
1, 156948, Note_off_c, 0, 58, 65
1, 156960, Control_c, 0, 64, 75
1, 156974, Control_c, 0, 64, 85
1, 156974, Control_c, 0, 67, 29
1, 156989, Control_c, 0, 64, 100
1, 156989, Control_c, 0, 67, 28
1, 156991, Note_off_c, 0, 65, 59
1, 157002, Note_off_c, 0, 50, 65
1, 157004, Control_c, 0, 64, 120
1, 157004, Control_c, 0, 67, 28
1, 157009, Note_on_c, 0, 67, 64
1, 157014, Note_on_c, 0, 70, 69
1, 157018, Control_c, 0, 64, 127
1, 157018, Control_c, 0, 67, 27
1, 157020, Note_on_c, 0, 51, 78
1, 157033, Control_c, 0, 64, 117
1, 157033, Control_c, 0, 67, 27
1, 157035, Note_off_c, 0, 67, 67
1, 157044, Note_off_c, 0, 51, 67
1, 157048, Control_c, 0, 64, 91
1, 157053, Note_off_c, 0, 70, 55
1, 157063, Control_c, 0, 64, 71
1, 157078, Control_c, 0, 64, 0
1, 157088, Note_on_c, 0, 65, 61
1, 157107, Control_c, 0, 67, 26
1, 157122, Control_c, 0, 67, 25
1, 157128, Note_off_c, 0, 65, 53
1, 157137, Control_c, 0, 67, 24
1, 157145, Note_on_c, 0, 63, 75
1, 157152, Control_c, 0, 67, 23
1, 157166, Control_c, 0, 67, 22
1, 157181, Control_c, 0, 67, 21
1, 157184, Note_off_c, 0, 63, 62
1, 157193, Note_on_c, 0, 62, 76
1, 157196, Control_c, 0, 67, 20
1, 157211, Control_c, 0, 67, 18
1, 157226, Control_c, 0, 67, 17
1, 157241, Control_c, 0, 67, 15
1, 157242, Note_on_c, 0, 63, 95
1, 157249, Note_off_c, 0, 62, 64
1, 157251, Note_on_c, 0, 55, 87
1, 157256, Control_c, 0, 67, 13
1, 157264, Note_off_c, 0, 63, 70
1, 157271, Control_c, 0, 67, 10
1, 157285, Note_off_c, 0, 55, 66
1, 157285, Control_c, 0, 67, 0
1, 157382, Note_on_c, 0, 58, 84
1, 157404, Note_off_c, 0, 58, 70
1, 157512, Note_on_c, 0, 60, 84
1, 157522, Control_c, 0, 64, 72
1, 157544, Control_c, 0, 64, 94
1, 157558, Note_off_c, 0, 60, 62
1, 157559, Control_c, 0, 64, 127
1, 157628, Note_on_c, 0, 71, 72
1, 157634, Note_on_c, 0, 65, 55
1, 157646, Note_on_c, 0, 44, 72
1, 157649, Note_on_c, 0, 51, 72
1, 157651, Note_off_c, 0, 71, 71
1, 157652, Note_on_c, 0, 72, 87
1, 157663, Control_c, 0, 64, 98
1, 157664, Note_off_c, 0, 65, 65
1, 157670, Note_off_c, 0, 72, 69
1, 157671, Note_off_c, 0, 51, 64
1, 157673, Note_off_c, 0, 44, 64
1, 157676, Control_c, 0, 64, 67
1, 157691, Control_c, 0, 64, 0
1, 157773, Note_on_c, 0, 60, 84
1, 157781, Control_c, 0, 64, 74
1, 157795, Control_c, 0, 64, 102
1, 157809, Note_off_c, 0, 60, 62
1, 157810, Control_c, 0, 64, 127
1, 157889, Note_on_c, 0, 83, 79
1, 157900, Control_c, 0, 64, 79
1, 157903, Note_on_c, 0, 51, 76
1, 157908, Note_off_c, 0, 83, 71
1, 157909, Note_on_c, 0, 77, 45
1, 157909, Note_on_c, 0, 44, 59
1, 157909, Note_on_c, 0, 84, 88
1, 157914, Control_c, 0, 64, 0
1, 157929, Note_off_c, 0, 51, 67
1, 157932, Note_off_c, 0, 84, 69
1, 157936, Note_off_c, 0, 77, 50
1, 157938, Note_off_c, 0, 44, 56
1, 158018, Control_c, 0, 64, 34
1, 158030, Note_on_c, 0, 60, 76
1, 158032, Control_c, 0, 64, 79
1, 158047, Control_c, 0, 64, 127
1, 158054, Note_off_c, 0, 60, 68
1, 158143, Note_on_c, 0, 51, 75
1, 158144, Note_on_c, 0, 95, 89
1, 158156, Note_on_c, 0, 89, 72
1, 158156, Note_on_c, 0, 44, 53
1, 158162, Note_on_c, 0, 96, 86
1, 158177, Note_off_c, 0, 89, 70
1, 158178, Note_off_c, 0, 51, 64
1, 158180, Note_off_c, 0, 95, 67
1, 158187, Note_off_c, 0, 44, 56
1, 158201, Note_off_c, 0, 96, 64
1, 158210, Control_c, 0, 64, 90
1, 158225, Control_c, 0, 64, 70
1, 158239, Control_c, 0, 64, 0
1, 158290, Note_on_c, 0, 58, 76
1, 158334, Note_off_c, 0, 58, 59
1, 158359, Note_on_c, 0, 56, 70
1, 158398, Note_off_c, 0, 56, 65
1, 158401, Note_on_c, 0, 55, 74
1, 158454, Note_off_c, 0, 55, 65
1, 158455, Note_on_c, 0, 53, 88
1, 158487, Note_off_c, 0, 53, 67
1, 158531, Control_c, 0, 64, 49
1, 158545, Control_c, 0, 64, 82
1, 158558, Note_on_c, 0, 58, 74
1, 158560, Control_c, 0, 64, 127
1, 158582, Note_off_c, 0, 58, 68
1, 158663, Note_on_c, 0, 69, 69
1, 158663, Control_c, 0, 64, 84
1, 158664, Note_on_c, 0, 63, 68
1, 158677, Note_on_c, 0, 70, 77
1, 158678, Control_c, 0, 64, 34
1, 158688, Note_off_c, 0, 69, 66
1, 158690, Note_on_c, 0, 43, 53
1, 158692, Note_on_c, 0, 51, 51
1, 158693, Note_off_c, 0, 51, 127
1, 158693, Note_off_c, 0, 63, 67
1, 158693, Control_c, 0, 64, 0
1, 158698, Note_off_c, 0, 70, 70
1, 158722, Note_off_c, 0, 43, 56
1, 158797, Control_c, 0, 64, 60
1, 158804, Note_on_c, 0, 58, 80
1, 158812, Control_c, 0, 64, 86
1, 158827, Control_c, 0, 64, 127
1, 158830, Note_off_c, 0, 58, 66
1, 158928, Note_on_c, 0, 81, 66
1, 158934, Note_on_c, 0, 51, 80
1, 158935, Note_on_c, 0, 43, 68
1, 158935, Note_on_c, 0, 82, 92
1, 158943, Note_off_c, 0, 81, 66
1, 158945, Control_c, 0, 64, 74
1, 158951, Note_off_c, 0, 82, 74
1, 158960, Control_c, 0, 64, 0
1, 158961, Note_off_c, 0, 43, 63
1, 158961, Note_off_c, 0, 51, 68
1, 159069, Note_on_c, 0, 58, 83
1, 159086, Control_c, 0, 64, 71
1, 159095, Note_off_c, 0, 58, 67
1, 159101, Control_c, 0, 64, 97
1, 159116, Control_c, 0, 64, 127
1, 159191, Note_on_c, 0, 94, 93
1, 159194, Note_on_c, 0, 51, 81
1, 159196, Note_on_c, 0, 93, 87
1, 159196, Note_on_c, 0, 87, 86
1, 159202, Note_on_c, 0, 43, 69
1, 159215, Note_off_c, 0, 93, 69
1, 159222, Note_off_c, 0, 51, 69
1, 159227, Note_off_c, 0, 94, 67
1, 159229, Note_off_c, 0, 43, 63
1, 159232, Note_off_c, 0, 87, 61
1, 159263, Control_c, 0, 64, 81
1, 159278, Control_c, 0, 64, 0
1, 159332, Note_on_c, 0, 63, 93
1, 159372, Note_off_c, 0, 63, 65
1, 159462, Note_on_c, 0, 62, 89
1, 159491, Note_off_c, 0, 62, 67
1, 159590, Control_c, 0, 64, 34
1, 159593, Note_on_c, 0, 60, 88
1, 159605, Control_c, 0, 64, 86
1, 159620, Control_c, 0, 64, 127
1, 159632, Note_off_c, 0, 60, 65
1, 159718, Note_on_c, 0, 71, 71
1, 159720, Note_on_c, 0, 72, 85
1, 159724, Control_c, 0, 64, 102
1, 159731, Note_on_c, 0, 65, 48
1, 159733, Note_off_c, 0, 71, 69
1, 159736, Note_on_c, 0, 51, 53
1, 159738, Control_c, 0, 64, 70
1, 159740, Note_off_c, 0, 72, 68
1, 159745, Note_on_c, 0, 44, 41
1, 159753, Control_c, 0, 64, 0
1, 159758, Note_off_c, 0, 65, 59
1, 159763, Note_off_c, 0, 51, 59
1, 159790, Note_off_c, 0, 44, 33
1, 159855, Note_on_c, 0, 60, 88
1, 159864, Control_c, 0, 64, 62
1, 159879, Control_c, 0, 64, 99
1, 159894, Control_c, 0, 64, 127
1, 159898, Note_off_c, 0, 60, 65
1, 159978, Note_on_c, 0, 83, 85
1, 159987, Note_on_c, 0, 51, 80
1, 159990, Note_on_c, 0, 44, 79
1, 159992, Note_on_c, 0, 77, 59
1, 159992, Note_on_c, 0, 84, 84
1, 159996, Note_off_c, 0, 83, 73
1, 159998, Control_c, 0, 64, 77
1, 160010, Note_off_c, 0, 77, 62
1, 160012, Note_off_c, 0, 51, 69
1, 160012, Control_c, 0, 64, 0
1, 160019, Note_off_c, 0, 84, 67
1, 160020, Note_off_c, 0, 44, 65
1, 160117, Control_c, 0, 64, 51
1, 160132, Control_c, 0, 64, 82
1, 160132, Note_on_c, 0, 60, 63
1, 160141, Note_on_c, 0, 59, 68
1, 160147, Control_c, 0, 64, 127
1, 160162, Note_off_c, 0, 60, 67
1, 160168, Note_off_c, 0, 59, 66
1, 160231, Note_on_c, 0, 95, 88
1, 160249, Note_on_c, 0, 51, 76
1, 160253, Note_on_c, 0, 96, 91
1, 160257, Note_on_c, 0, 89, 53
1, 160265, Note_off_c, 0, 95, 65
1, 160266, Note_on_c, 0, 44, 44
1, 160279, Note_off_c, 0, 89, 56
1, 160281, Note_off_c, 0, 51, 64
1, 160287, Note_off_c, 0, 96, 68
1, 160299, Note_off_c, 0, 44, 54
1, 160324, Control_c, 0, 64, 100
1, 160339, Control_c, 0, 64, 71
1, 160353, Control_c, 0, 64, 0
1, 160375, Note_on_c, 0, 58, 79
1, 160423, Note_off_c, 0, 58, 61
1, 160439, Note_on_c, 0, 56, 74
1, 160483, Note_off_c, 0, 56, 68
1, 160487, Note_on_c, 0, 55, 71
1, 160514, Note_on_c, 0, 57, 50
1, 160547, Note_off_c, 0, 57, 58
1, 160549, Note_on_c, 0, 53, 90
1, 160553, Note_off_c, 0, 55, 66
1, 160583, Note_off_c, 0, 53, 66
1, 160636, Note_on_c, 0, 58, 85
1, 160642, Control_c, 0, 64, 67
1, 160657, Control_c, 0, 64, 92
1, 160668, Note_off_c, 0, 58, 63
1, 160672, Control_c, 0, 64, 127
1, 160746, Control_c, 0, 64, 109
1, 160760, Control_c, 0, 64, 76
1, 160766, Note_on_c, 0, 69, 61
1, 160768, Note_on_c, 0, 63, 66
1, 160770, Note_on_c, 0, 51, 82
1, 160773, Note_on_c, 0, 43, 63
1, 160775, Control_c, 0, 64, 0
1, 160776, Note_on_c, 0, 70, 79
1, 160788, Note_off_c, 0, 69, 64
1, 160792, Note_off_c, 0, 51, 67
1, 160794, Note_off_c, 0, 63, 65
1, 160798, Note_off_c, 0, 70, 69
1, 160799, Note_off_c, 0, 43, 59
1, 160894, Control_c, 0, 64, 66
1, 160897, Note_on_c, 0, 58, 77
1, 160910, Control_c, 0, 64, 93
1, 160919, Note_off_c, 0, 58, 70
1, 160924, Control_c, 0, 64, 127
1, 160979, Note_on_c, 0, 82, 11
1, 161013, Control_c, 0, 64, 107
1, 161020, Note_on_c, 0, 81, 86
1, 161028, Control_c, 0, 64, 67
1, 161032, Note_on_c, 0, 51, 75
1, 161034, Note_on_c, 0, 43, 62
1, 161036, Note_off_c, 0, 82, 0
1, 161036, Note_on_c, 0, 82, 4
1, 161037, Note_off_c, 0, 81, 72
1, 161043, Control_c, 0, 64, 0
1, 161055, Note_off_c, 0, 51, 67
1, 161059, Note_off_c, 0, 43, 59
1, 161059, Note_off_c, 0, 82, 61
1, 161146, Control_c, 0, 64, 64
1, 161149, Note_on_c, 0, 58, 76
1, 161161, Control_c, 0, 64, 86
1, 161170, Note_off_c, 0, 58, 70
1, 161176, Control_c, 0, 64, 127
1, 161265, Note_on_c, 0, 51, 81
1, 161266, Note_on_c, 0, 43, 77
1, 161282, Note_on_c, 0, 94, 80
1, 161294, Note_off_c, 0, 51, 68
1, 161298, Note_off_c, 0, 43, 66
1, 161302, Control_c, 0, 64, 118
1, 161309, Note_on_c, 0, 87, 42
1, 161317, Control_c, 0, 64, 80
1, 161332, Control_c, 0, 64, 0
1, 161334, Note_off_c, 0, 87, 52
1, 161343, Note_off_c, 0, 94, 61
1, 161352, Poly_aftertouch_c, 0, 93, 127
1, 161375, Poly_aftertouch_c, 0, 93, 0
1, 161411, Note_on_c, 0, 86, 69
1, 161450, Control_c, 0, 67, 10
1, 161465, Control_c, 0, 67, 13
1, 161470, Note_on_c, 0, 87, 70
1, 161474, Note_off_c, 0, 86, 60
1, 161480, Control_c, 0, 67, 15
1, 161495, Control_c, 0, 67, 16
1, 161508, Note_on_c, 0, 91, 70
1, 161510, Control_c, 0, 67, 17
1, 161524, Control_c, 0, 67, 18
1, 161539, Note_off_c, 0, 87, 64
1, 161539, Control_c, 0, 67, 19
1, 161549, Note_on_c, 0, 94, 75
1, 161565, Note_off_c, 0, 94, 68
1, 161579, Note_off_c, 0, 91, 65
1, 161583, Control_c, 0, 67, 19
1, 161596, Note_on_c, 0, 93, 36
1, 161598, Control_c, 0, 67, 20
1, 161602, Note_on_c, 0, 50, 77
1, 161606, Note_on_c, 0, 44, 75
1, 161610, Note_on_c, 0, 96, 83
1, 161613, Control_c, 0, 67, 20
1, 161628, Note_off_c, 0, 93, 54
1, 161628, Control_c, 0, 67, 22
1, 161633, Note_off_c, 0, 50, 69
1, 161643, Control_c, 0, 67, 23
1, 161648, Note_off_c, 0, 44, 62
1, 161657, Control_c, 0, 67, 24
1, 161687, Control_c, 0, 67, 23
1, 161696, Note_on_c, 0, 92, 77
1, 161703, Control_c, 0, 67, 23
1, 161715, Note_on_c, 0, 51, 82
1, 161718, Control_c, 0, 67, 21
1, 161728, Note_on_c, 0, 91, 79
1, 161731, Note_off_c, 0, 96, 39
1, 161733, Control_c, 0, 67, 20
1, 161748, Control_c, 0, 67, 19
1, 161754, Note_off_c, 0, 92, 65
1, 161755, Note_off_c, 0, 51, 64
1, 161762, Control_c, 0, 67, 18
1, 161777, Control_c, 0, 67, 16
1, 161792, Control_c, 0, 67, 15
1, 161793, Note_off_c, 0, 91, 64
1, 161793, Note_on_c, 0, 89, 71
1, 161806, Control_c, 0, 67, 13
1, 161821, Control_c, 0, 67, 10
1, 161832, Note_off_c, 0, 89, 62
1, 161833, Note_on_c, 0, 84, 74
1, 161834, Note_on_c, 0, 52, 87
1, 161836, Control_c, 0, 67, 8
1, 161851, Control_c, 0, 67, 0
1, 161863, Note_off_c, 0, 52, 66
1, 161863, Note_off_c, 0, 84, 59
1, 161916, Note_on_c, 0, 80, 67
1, 161942, Note_on_c, 0, 53, 86
1, 161950, Note_off_c, 0, 80, 51
1, 161961, Note_on_c, 0, 79, 75
1, 161966, Note_off_c, 0, 53, 71
1, 162001, Note_off_c, 0, 79, 63
1, 162015, Note_on_c, 0, 77, 57
1, 162052, Note_off_c, 0, 77, 65
1, 162067, Note_on_c, 0, 55, 84
1, 162069, Note_on_c, 0, 72, 67
1, 162091, Note_off_c, 0, 55, 70
1, 162093, Note_off_c, 0, 72, 68
1, 162176, Note_on_c, 0, 69, 29
1, 162184, Note_on_c, 0, 68, 30
1, 162185, Note_off_c, 0, 68, 127
1, 162189, Note_on_c, 0, 56, 67
1, 162191, Note_on_c, 0, 67, 63
1, 162208, Note_off_c, 0, 56, 63
1, 162211, Note_off_c, 0, 69, 52
1, 162218, Note_on_c, 0, 65, 82
1, 162240, Note_off_c, 0, 65, 70
1, 162244, Note_off_c, 0, 67, 51
1, 162294, Note_on_c, 0, 60, 95
1, 162317, Note_off_c, 0, 60, 69
1, 162360, Note_on_c, 0, 88, 85
1, 162415, Note_off_c, 0, 88, 64
1, 162426, Note_on_c, 0, 89, 69
1, 162455, Note_on_c, 0, 92, 85
1, 162475, Note_off_c, 0, 89, 62
1, 162510, Note_off_c, 0, 92, 66
1, 162523, Note_on_c, 0, 50, 84
1, 162538, Note_on_c, 0, 94, 89
1, 162542, Note_on_c, 0, 43, 54
1, 162550, Note_off_c, 0, 50, 69
1, 162571, Note_off_c, 0, 43, 55
1, 162592, Note_on_c, 0, 91, 73
1, 162628, Note_on_c, 0, 51, 88
1, 162639, Note_on_c, 0, 89, 81
1, 162639, Note_off_c, 0, 94, 64
1, 162648, Note_off_c, 0, 91, 65
1, 162677, Note_off_c, 0, 89, 64
1, 162678, Note_off_c, 0, 51, 63
1, 162682, Note_on_c, 0, 87, 61
1, 162700, Note_off_c, 0, 87, 64
1, 162750, Note_on_c, 0, 54, 98
1, 162764, Note_on_c, 0, 82, 73
1, 162788, Note_on_c, 0, 78, 83
1, 162797, Note_off_c, 0, 54, 67
1, 162828, Note_off_c, 0, 82, 48
1, 162865, Note_on_c, 0, 76, 75
1, 162866, Note_on_c, 0, 55, 89
1, 162882, Note_off_c, 0, 78, 61
1, 162893, Note_off_c, 0, 76, 65
1, 162895, Note_off_c, 0, 55, 65
1, 162912, Note_on_c, 0, 73, 54
1, 162936, Note_off_c, 0, 73, 59
1, 162977, Note_on_c, 0, 57, 88
1, 162997, Note_off_c, 0, 57, 71
1, 162998, Note_on_c, 0, 70, 71
1, 163036, Note_on_c, 0, 67, 51
1, 163040, Note_on_c, 0, 68, 33
1, 163070, Note_off_c, 0, 68, 53
1, 163076, Note_off_c, 0, 70, 62
1, 163077, Note_on_c, 0, 65, 76
1, 163086, Note_off_c, 0, 67, 60
1, 163090, Note_on_c, 0, 59, 77
1, 163113, Note_off_c, 0, 59, 68
1, 163116, Note_on_c, 0, 63, 66
1, 163128, Note_off_c, 0, 65, 65
1, 163142, Note_off_c, 0, 63, 66
1, 163185, Control_c, 0, 64, 29
1, 163198, Note_on_c, 0, 63, 91
1, 163200, Control_c, 0, 64, 66
1, 163215, Control_c, 0, 64, 78
1, 163230, Control_c, 0, 64, 98
1, 163230, Note_off_c, 0, 63, 65
1, 163244, Control_c, 0, 64, 117
1, 163259, Control_c, 0, 64, 119
1, 163268, Note_on_c, 0, 89, 78
1, 163305, Control_c, 0, 64, 118
1, 163306, Note_on_c, 0, 91, 32
1, 163307, Note_off_c, 0, 91, 127
1, 163338, Note_off_c, 0, 89, 58
1, 163348, Note_on_c, 0, 90, 59
1, 163355, Note_on_c, 0, 91, 43
1, 163369, Note_off_c, 0, 90, 59
1, 163377, Note_on_c, 0, 94, 84
1, 163379, Control_c, 0, 64, 118
1, 163382, Note_off_c, 0, 91, 57
1, 163393, Control_c, 0, 64, 110
1, 163408, Control_c, 0, 64, 92
1, 163418, Note_off_c, 0, 94, 66
1, 163423, Control_c, 0, 64, 72
1, 163438, Control_c, 0, 64, 0
1, 163444, Note_on_c, 0, 50, 94
1, 163447, Note_on_c, 0, 96, 80
1, 163477, Note_on_c, 0, 43, 46
1, 163486, Note_off_c, 0, 50, 67
1, 163489, Note_on_c, 0, 95, 35
1, 163490, Note_off_c, 0, 95, 127
1, 163493, Note_on_c, 0, 44, 7
1, 163494, Note_off_c, 0, 44, 127
1, 163511, Note_off_c, 0, 43, 49
1, 163528, Note_on_c, 0, 92, 83
1, 163531, Note_off_c, 0, 96, 42
1, 163559, Note_on_c, 0, 91, 88
1, 163566, Note_on_c, 0, 51, 89
1, 163590, Note_off_c, 0, 92, 65
1, 163611, Note_off_c, 0, 51, 64
1, 163624, Note_on_c, 0, 89, 68
1, 163624, Note_off_c, 0, 91, 64
1, 163662, Note_off_c, 0, 89, 61
1, 163664, Note_on_c, 0, 84, 74
1, 163679, Note_on_c, 0, 52, 96
1, 163688, Note_off_c, 0, 84, 66
1, 163716, Note_off_c, 0, 52, 64
1, 163750, Note_on_c, 0, 80, 70
1, 163786, Note_on_c, 0, 53, 95
1, 163788, Note_on_c, 0, 79, 73
1, 163794, Note_off_c, 0, 80, 60
1, 163817, Note_off_c, 0, 53, 67
1, 163841, Note_on_c, 0, 77, 63
1, 163843, Note_off_c, 0, 79, 62
1, 163873, Note_off_c, 0, 77, 64
1, 163902, Note_on_c, 0, 55, 93
1, 163902, Note_on_c, 0, 74, 35
1, 163927, Note_on_c, 0, 72, 13
1, 163933, Note_off_c, 0, 55, 67
1, 163936, Note_off_c, 0, 74, 54
1, 163967, Note_off_c, 0, 72, 30
1, 163976, Note_on_c, 0, 68, 57
1, 164013, Note_on_c, 0, 67, 66
1, 164013, Note_off_c, 0, 68, 61
1, 164017, Note_on_c, 0, 56, 95
1, 164039, Note_on_c, 0, 65, 84
1, 164040, Note_off_c, 0, 56, 70
1, 164055, Note_off_c, 0, 67, 63
1, 164068, Note_off_c, 0, 65, 66
1, 164144, Note_on_c, 0, 60, 92
1, 164148, Note_on_c, 0, 59, 75
1, 164157, Control_c, 0, 64, 31
1, 164168, Note_off_c, 0, 60, 68
1, 164171, Note_off_c, 0, 59, 69
1, 164172, Control_c, 0, 64, 74
1, 164187, Control_c, 0, 64, 91
1, 164199, Note_on_c, 0, 88, 79
1, 164201, Control_c, 0, 64, 127
1, 164255, Note_off_c, 0, 88, 62
1, 164265, Note_on_c, 0, 89, 74
1, 164309, Note_on_c, 0, 92, 80
1, 164318, Note_off_c, 0, 89, 63
1, 164357, Note_off_c, 0, 92, 67
1, 164376, Note_on_c, 0, 50, 91
1, 164381, Note_on_c, 0, 43, 82
1, 164386, Note_on_c, 0, 94, 85
1, 164387, Control_c, 0, 64, 93
1, 164401, Control_c, 0, 64, 62
1, 164410, Note_off_c, 0, 43, 67
1, 164416, Control_c, 0, 64, 0
1, 164416, Note_off_c, 0, 50, 67
1, 164433, Note_on_c, 0, 91, 71
1, 164485, Note_off_c, 0, 94, 65
1, 164488, Note_on_c, 0, 89, 76
1, 164490, Note_on_c, 0, 51, 91
1, 164499, Note_off_c, 0, 91, 64
1, 164527, Note_off_c, 0, 89, 64
1, 164533, Note_on_c, 0, 87, 62
1, 164533, Note_off_c, 0, 51, 66
1, 164553, Note_off_c, 0, 87, 62
1, 164601, Note_on_c, 0, 54, 82
1, 164616, Note_on_c, 0, 53, 85
1, 164619, Note_on_c, 0, 82, 81
1, 164620, Note_off_c, 0, 54, 66
1, 164640, Note_off_c, 0, 53, 69
1, 164650, Note_on_c, 0, 79, 68
1, 164698, Note_off_c, 0, 82, 57
1, 164702, Note_on_c, 0, 55, 89
1, 164711, Note_on_c, 0, 77, 75
1, 164714, Note_off_c, 0, 79, 63
1, 164742, Note_off_c, 0, 55, 66
1, 164742, Note_off_c, 0, 77, 63
1, 164751, Note_on_c, 0, 75, 66
1, 164770, Note_off_c, 0, 75, 67
1, 164806, Note_on_c, 0, 57, 92
1, 164840, Note_on_c, 0, 70, 69
1, 164845, Note_off_c, 0, 57, 66
1, 164885, Note_on_c, 0, 67, 54
1, 164911, Note_off_c, 0, 70, 57
1, 164913, Note_on_c, 0, 58, 96
1, 164914, Note_on_c, 0, 65, 75
1, 164923, Note_off_c, 0, 67, 63
1, 164932, Note_off_c, 0, 58, 70
1, 164967, Note_off_c, 0, 65, 66
1, 164970, Note_on_c, 0, 63, 68
1, 164998, Note_off_c, 0, 63, 64
1, 165051, Note_on_c, 0, 63, 98
1, 165074, Note_off_c, 0, 63, 67
1, 165180, Control_c, 0, 67, 8
1, 165186, Note_on_c, 0, 67, 75
1, 165195, Control_c, 0, 67, 12
1, 165210, Control_c, 0, 67, 17
1, 165224, Control_c, 0, 67, 21
1, 165239, Control_c, 0, 67, 25
1, 165242, Note_off_c, 0, 67, 62
1, 165254, Control_c, 0, 67, 29
1, 165269, Control_c, 0, 67, 31
1, 165284, Control_c, 0, 67, 33
1, 165298, Control_c, 0, 67, 35
1, 165312, Note_on_c, 0, 66, 80
1, 165313, Control_c, 0, 67, 37
1, 165316, Note_on_c, 0, 51, 75
1, 165321, Note_on_c, 0, 44, 67
1, 165328, Control_c, 0, 67, 38
1, 165340, Note_off_c, 0, 51, 67
1, 165343, Control_c, 0, 67, 39
1, 165350, Note_off_c, 0, 44, 65
1, 165359, Note_off_c, 0, 66, 62
1, 165388, Control_c, 0, 67, 38
1, 165403, Control_c, 0, 67, 37
1, 165417, Control_c, 0, 67, 36
1, 165432, Control_c, 0, 67, 35
1, 165437, Note_on_c, 0, 52, 72
1, 165440, Note_on_c, 0, 72, 76
1, 165441, Note_on_c, 0, 60, 74
1, 165445, Note_on_c, 0, 67, 67
1, 165447, Control_c, 0, 67, 34
1, 165462, Control_c, 0, 67, 33
1, 165465, Note_off_c, 0, 60, 70
1, 165465, Note_off_c, 0, 67, 65
1, 165466, Note_off_c, 0, 72, 61
1, 165472, Note_off_c, 0, 52, 65
1, 165477, Control_c, 0, 67, 32
1, 165492, Control_c, 0, 67, 30
1, 165506, Control_c, 0, 67, 28
1, 165521, Control_c, 0, 67, 27
1, 165536, Control_c, 0, 67, 26
1, 165550, Control_c, 0, 67, 25
1, 165565, Control_c, 0, 67, 24
1, 165568, Note_on_c, 0, 66, 78
1, 165569, Note_on_c, 0, 51, 72
1, 165580, Control_c, 0, 67, 22
1, 165581, Note_on_c, 0, 44, 58
1, 165595, Control_c, 0, 67, 18
1, 165598, Note_off_c, 0, 51, 66
1, 165610, Control_c, 0, 67, 14
1, 165611, Note_off_c, 0, 66, 60
1, 165612, Note_off_c, 0, 44, 64
1, 165624, Control_c, 0, 67, 10
1, 165639, Control_c, 0, 67, 0
1, 165692, Note_on_c, 0, 52, 70
1, 165697, Note_on_c, 0, 60, 78
1, 165697, Note_on_c, 0, 67, 75
1, 165700, Note_on_c, 0, 72, 76
1, 165718, Note_off_c, 0, 60, 70
1, 165719, Note_off_c, 0, 67, 68
1, 165728, Note_off_c, 0, 72, 59
1, 165732, Note_off_c, 0, 52, 63
1, 165828, Note_on_c, 0, 66, 88
1, 165832, Note_on_c, 0, 51, 84
1, 165842, Note_on_c, 0, 44, 68
1, 165871, Note_off_c, 0, 51, 60
1, 165874, Note_off_c, 0, 44, 62
1, 165875, Note_off_c, 0, 66, 62
1, 165950, Note_on_c, 0, 52, 78
1, 165954, Note_on_c, 0, 72, 88
1, 165956, Note_on_c, 0, 60, 84
1, 165963, Note_on_c, 0, 67, 65
1, 165978, Note_off_c, 0, 60, 67
1, 165982, Note_off_c, 0, 67, 62
1, 165991, Note_off_c, 0, 72, 63
1, 166002, Note_off_c, 0, 52, 63
1, 166077, Note_on_c, 0, 49, 89
1, 166077, Control_c, 0, 67, 9
1, 166084, Note_on_c, 0, 64, 94
1, 166085, Note_on_c, 0, 44, 76
1, 166092, Control_c, 0, 67, 11
1, 166106, Control_c, 0, 67, 14
1, 166121, Note_off_c, 0, 44, 63
1, 166121, Control_c, 0, 67, 15
1, 166123, Note_off_c, 0, 49, 64
1, 166136, Control_c, 0, 67, 16
1, 166140, Note_off_c, 0, 64, 65
1, 166196, Control_c, 0, 67, 15
1, 166198, Note_on_c, 0, 50, 77
1, 166210, Note_on_c, 0, 70, 77
1, 166210, Control_c, 0, 67, 14
1, 166220, Note_on_c, 0, 58, 69
1, 166223, Note_on_c, 0, 65, 50
1, 166225, Control_c, 0, 67, 13
1, 166235, Note_off_c, 0, 70, 68
1, 166240, Note_off_c, 0, 58, 66
1, 166240, Control_c, 0, 67, 12
1, 166247, Note_off_c, 0, 65, 59
1, 166253, Note_off_c, 0, 50, 64
1, 166255, Control_c, 0, 67, 11
1, 166270, Control_c, 0, 67, 10
1, 166285, Control_c, 0, 67, 9
1, 166299, Control_c, 0, 67, 8
1, 166314, Control_c, 0, 67, 0
1, 166337, Note_on_c, 0, 50, 75
1, 166339, Note_on_c, 0, 43, 70
1, 166342, Note_on_c, 0, 65, 64
1, 166365, Note_off_c, 0, 43, 65
1, 166366, Note_off_c, 0, 50, 67
1, 166388, Note_off_c, 0, 65, 62
1, 166466, Note_on_c, 0, 58, 70
1, 166467, Note_on_c, 0, 51, 73
1, 166476, Note_on_c, 0, 67, 54
1, 166478, Note_on_c, 0, 70, 56
1, 166494, Note_off_c, 0, 58, 67
1, 166500, Note_off_c, 0, 51, 65
1, 166500, Note_off_c, 0, 70, 61
1, 166507, Note_off_c, 0, 67, 64
1, 166605, Note_on_c, 0, 50, 70
1, 166607, Note_on_c, 0, 65, 73
1, 166616, Note_on_c, 0, 43, 58
1, 166640, Note_off_c, 0, 50, 68
1, 166648, Note_off_c, 0, 43, 59
1, 166649, Note_off_c, 0, 65, 62
1, 166733, Note_on_c, 0, 51, 77
1, 166735, Note_on_c, 0, 67, 68
1, 166738, Note_on_c, 0, 58, 69
1, 166747, Note_on_c, 0, 70, 55
1, 166761, Note_off_c, 0, 58, 64
1, 166768, Note_off_c, 0, 51, 66
1, 166770, Note_off_c, 0, 70, 60
1, 166778, Note_off_c, 0, 67, 60
1, 166854, Note_on_c, 0, 50, 80
1, 166860, Note_on_c, 0, 65, 81
1, 166866, Note_on_c, 0, 43, 60
1, 166896, Note_off_c, 0, 43, 64
1, 166899, Note_off_c, 0, 50, 63
1, 166913, Note_off_c, 0, 65, 64
1, 166982, Note_on_c, 0, 51, 78
1, 166986, Note_on_c, 0, 70, 83
1, 166989, Note_on_c, 0, 58, 76
1, 167009, Note_off_c, 0, 58, 71
1, 167009, Note_off_c, 0, 70, 66
1, 167015, Note_off_c, 0, 51, 67
1, 167107, Note_on_c, 0, 47, 80
1, 167111, Note_on_c, 0, 43, 76
1, 167112, Note_on_c, 0, 62, 94
1, 167154, Note_off_c, 0, 47, 64
1, 167164, Note_off_c, 0, 62, 63
1, 167164, Note_off_c, 0, 43, 61
1, 167239, Note_on_c, 0, 63, 73
1, 167240, Note_on_c, 0, 48, 74
1, 167247, Note_on_c, 0, 67, 73
1, 167248, Note_on_c, 0, 55, 64
1, 167269, Note_off_c, 0, 63, 67
1, 167276, Note_off_c, 0, 55, 62
1, 167278, Note_off_c, 0, 67, 68
1, 167284, Note_off_c, 0, 48, 63
1, 167379, Note_on_c, 0, 51, 81
1, 167381, Note_on_c, 0, 66, 89
1, 167383, Note_on_c, 0, 44, 72
1, 167435, Note_off_c, 0, 51, 65
1, 167436, Note_off_c, 0, 66, 62
1, 167443, Note_off_c, 0, 44, 61
1, 167498, Note_on_c, 0, 67, 85
1, 167498, Note_on_c, 0, 52, 73
1, 167501, Note_on_c, 0, 60, 78
1, 167501, Note_on_c, 0, 72, 82
1, 167520, Note_off_c, 0, 67, 67
1, 167522, Note_off_c, 0, 60, 71
1, 167528, Note_off_c, 0, 72, 62
1, 167544, Note_off_c, 0, 52, 61
1, 167627, Note_on_c, 0, 51, 87
1, 167627, Note_on_c, 0, 66, 98
1, 167642, Note_on_c, 0, 44, 65
1, 167671, Note_off_c, 0, 44, 65
1, 167674, Note_off_c, 0, 51, 63
1, 167675, Note_off_c, 0, 66, 65
1, 167752, Note_on_c, 0, 52, 81
1, 167752, Note_on_c, 0, 72, 91
1, 167754, Note_on_c, 0, 60, 85
1, 167755, Note_on_c, 0, 67, 83
1, 167775, Note_off_c, 0, 67, 70
1, 167775, Note_off_c, 0, 60, 70
1, 167790, Note_off_c, 0, 72, 63
1, 167794, Note_on_c, 0, 44, 15
1, 167797, Note_off_c, 0, 52, 61
1, 167842, Note_off_c, 0, 44, 38
1, 167875, Note_on_c, 0, 66, 97
1, 167880, Note_on_c, 0, 51, 87
1, 167895, Note_on_c, 0, 44, 66
1, 167923, Note_off_c, 0, 44, 65
1, 167923, Note_off_c, 0, 66, 63
1, 167924, Note_off_c, 0, 51, 62
1, 167999, Note_on_c, 0, 52, 87
1, 168002, Note_on_c, 0, 72, 92
1, 168005, Note_on_c, 0, 60, 87
1, 168008, Note_on_c, 0, 67, 77
1, 168036, Note_off_c, 0, 67, 70
1, 168038, Note_on_c, 0, 44, 36
1, 168038, Note_off_c, 0, 60, 64
1, 168047, Note_off_c, 0, 72, 63
1, 168052, Note_off_c, 0, 52, 65
1, 168075, Note_off_c, 0, 44, 46
1, 168139, Note_on_c, 0, 63, 92
1, 168139, Note_on_c, 0, 44, 84
1, 168141, Note_on_c, 0, 49, 76
1, 168146, Control_c, 0, 64, 64
1, 168153, Note_on_c, 0, 64, 95
1, 168156, Note_on_c, 0, 48, 77
1, 168162, Control_c, 0, 64, 71
1, 168172, Note_off_c, 0, 49, 65
1, 168176, Control_c, 0, 64, 70
1, 168179, Note_off_c, 0, 48, 66
1, 168191, Control_c, 0, 64, 48
1, 168195, Note_off_c, 0, 44, 64
1, 168199, Note_off_c, 0, 64, 63
1, 168201, Note_off_c, 0, 63, 61
1, 168206, Control_c, 0, 64, 0
1, 168254, Note_on_c, 0, 50, 81
1, 168258, Note_on_c, 0, 65, 82
1, 168269, Note_on_c, 0, 70, 82
1, 168270, Note_on_c, 0, 58, 80
1, 168294, Note_off_c, 0, 58, 65
1, 168295, Note_on_c, 0, 66, 41
1, 168296, Note_off_c, 0, 66, 127
1, 168297, Note_off_c, 0, 65, 62
1, 168303, Note_off_c, 0, 50, 65
1, 168317, Note_off_c, 0, 70, 61
1, 168386, Note_on_c, 0, 50, 88
1, 168389, Note_on_c, 0, 43, 79
1, 168398, Note_on_c, 0, 65, 89
1, 168419, Note_off_c, 0, 50, 67
1, 168419, Note_off_c, 0, 43, 66
1, 168442, Note_off_c, 0, 65, 67
1, 168515, Note_on_c, 0, 51, 87
1, 168518, Note_on_c, 0, 58, 85
1, 168518, Note_on_c, 0, 67, 76
1, 168519, Note_on_c, 0, 70, 82
1, 168547, Note_off_c, 0, 58, 62
1, 168553, Note_off_c, 0, 70, 61
1, 168560, Note_off_c, 0, 51, 62
1, 168560, Note_off_c, 0, 67, 63
1, 168643, Note_on_c, 0, 50, 88
1, 168652, Note_on_c, 0, 43, 80
1, 168653, Note_on_c, 0, 65, 90
1, 168684, Note_off_c, 0, 43, 66
1, 168685, Note_off_c, 0, 50, 66
1, 168698, Note_off_c, 0, 65, 68
1, 168779, Note_on_c, 0, 51, 88
1, 168783, Note_on_c, 0, 67, 77
1, 168786, Note_on_c, 0, 58, 86
1, 168791, Note_on_c, 0, 70, 76
1, 168811, Note_off_c, 0, 58, 61
1, 168815, Note_off_c, 0, 51, 62
1, 168816, Note_off_c, 0, 70, 64
1, 168831, Note_off_c, 0, 67, 62
1, 168900, Note_on_c, 0, 50, 94
1, 168904, Note_on_c, 0, 65, 94
1, 168915, Note_on_c, 0, 43, 67
1, 168944, Note_off_c, 0, 50, 67
1, 168945, Note_off_c, 0, 43, 64
1, 168959, Note_off_c, 0, 65, 64
1, 169030, Note_on_c, 0, 51, 85
1, 169033, Note_on_c, 0, 70, 88
1, 169035, Note_on_c, 0, 58, 87
1, 169059, Note_off_c, 0, 58, 67
1, 169064, Note_off_c, 0, 70, 64
1, 169073, Note_on_c, 0, 43, 5
1, 169081, Note_off_c, 0, 51, 66
1, 169129, Note_off_c, 0, 43, 33
1, 169156, Note_on_c, 0, 47, 83
1, 169159, Note_on_c, 0, 62, 96
1, 169162, Note_on_c, 0, 43, 65
1, 169176, Control_c, 0, 64, 56
1, 169191, Control_c, 0, 64, 74
1, 169206, Control_c, 0, 64, 84
1, 169221, Control_c, 0, 64, 94
1, 169236, Control_c, 0, 64, 101
1, 169251, Control_c, 0, 64, 104
1, 169254, Note_off_c, 0, 47, 65
1, 169275, Note_off_c, 0, 62, 60
1, 169279, Note_off_c, 0, 43, 63
1, 169280, Control_c, 0, 64, 98
1, 169282, Note_on_c, 0, 50, 78
1, 169284, Note_on_c, 0, 67, 88
1, 169286, Note_on_c, 0, 63, 86
1, 169288, Note_on_c, 0, 55, 75
1, 169295, Control_c, 0, 64, 83
1, 169310, Control_c, 0, 64, 63
1, 169311, Note_off_c, 0, 55, 65
1, 169313, Note_off_c, 0, 50, 68
1, 169314, Note_off_c, 0, 63, 62
1, 169324, Control_c, 0, 64, 0
1, 169325, Note_off_c, 0, 67, 59
1, 169463, Note_on_c, 0, 38, 78
1, 169466, Note_on_c, 0, 44, 89
1, 169468, Note_on_c, 0, 32, 84
1, 169472, Control_c, 0, 64, 44
1, 169487, Control_c, 0, 64, 63
1, 169502, Control_c, 0, 64, 66
1, 169524, Control_c, 0, 64, 71
1, 169539, Control_c, 0, 64, 81
1, 169551, Note_off_c, 0, 32, 63
1, 169554, Control_c, 0, 64, 106
1, 169555, Note_off_c, 0, 38, 63
1, 169569, Control_c, 0, 64, 127
1, 169578, Note_off_c, 0, 44, 64
1, 169626, Note_on_c, 0, 72, 99
1, 169630, Note_on_c, 0, 60, 93
1, 169649, Note_off_c, 0, 60, 72
1, 169665, Note_off_c, 0, 72, 68
1, 169780, Note_on_c, 0, 50, 78
1, 169785, Note_on_c, 0, 56, 97
1, 169787, Note_on_c, 0, 44, 87
1, 169832, Note_off_c, 0, 44, 65
1, 169847, Note_off_c, 0, 50, 68
1, 169853, Note_off_c, 0, 56, 57
1, 169922, Note_on_c, 0, 72, 98
1, 169922, Note_on_c, 0, 84, 103
1, 170068, Note_on_c, 0, 62, 89
1, 170068, Note_off_c, 0, 84, 61
1, 170070, Note_on_c, 0, 68, 94
1, 170074, Note_on_c, 0, 56, 85
1, 170086, Note_off_c, 0, 72, 61
1, 170105, Note_off_c, 0, 68, 61
1, 170106, Note_off_c, 0, 56, 67
1, 170114, Note_off_c, 0, 62, 65
1, 170258, Note_on_c, 0, 80, 98
1, 170268, Note_on_c, 0, 68, 91
1, 170288, Note_off_c, 0, 68, 62
1, 170300, Note_off_c, 0, 80, 66
1, 170342, Note_on_c, 0, 79, 95
1, 170345, Note_on_c, 0, 67, 85
1, 170362, Note_on_c, 0, 78, 49
1, 170365, Note_off_c, 0, 67, 70
1, 170377, Note_off_c, 0, 79, 67
1, 170386, Note_off_c, 0, 78, 61
1, 170406, Control_c, 0, 64, 103
1, 170420, Control_c, 0, 64, 75
1, 170435, Control_c, 0, 64, 0
1, 170492, Note_on_c, 0, 65, 94
1, 170494, Note_on_c, 0, 77, 93
1, 170509, Note_off_c, 0, 77, 75
1, 170510, Note_off_c, 0, 65, 73
1, 170614, Control_c, 0, 64, 64
1, 170618, Note_on_c, 0, 31, 85
1, 170622, Note_on_c, 0, 43, 87
1, 170622, Note_on_c, 0, 39, 87
1, 170629, Control_c, 0, 64, 77
1, 170643, Control_c, 0, 64, 110
1, 170652, Note_off_c, 0, 31, 66
1, 170658, Control_c, 0, 64, 127
1, 170663, Note_off_c, 0, 39, 64
1, 170670, Note_off_c, 0, 43, 63
1, 170757, Note_on_c, 0, 70, 104
1, 170768, Note_on_c, 0, 58, 84
1, 170787, Note_off_c, 0, 58, 71
1, 170803, Note_on_c, 0, 71, 33
1, 170810, Note_off_c, 0, 70, 66
1, 170835, Note_off_c, 0, 71, 53
1, 170887, Note_on_c, 0, 55, 88
1, 170890, Note_on_c, 0, 43, 84
1, 170891, Note_on_c, 0, 51, 87
1, 170921, Note_off_c, 0, 43, 65
1, 170923, Note_off_c, 0, 51, 65
1, 170933, Note_off_c, 0, 55, 63
1, 171031, Note_on_c, 0, 82, 103
1, 171037, Note_on_c, 0, 70, 94
1, 171175, Note_on_c, 0, 67, 96
1, 171176, Note_on_c, 0, 63, 95
1, 171179, Note_on_c, 0, 55, 88
1, 171198, Note_off_c, 0, 67, 65
1, 171202, Note_off_c, 0, 55, 70
1, 171209, Note_off_c, 0, 63, 68
1, 171220, Note_off_c, 0, 82, 61
1, 171235, Note_off_c, 0, 70, 61
1, 171379, Note_on_c, 0, 67, 85
1, 171390, Note_on_c, 0, 79, 69
1, 171390, Note_on_c, 0, 81, 65
1, 171398, Note_off_c, 0, 67, 69
1, 171406, Note_off_c, 0, 79, 66
1, 171407, Note_off_c, 0, 81, 66
1, 171456, Note_on_c, 0, 77, 95
1, 171461, Note_on_c, 0, 65, 84
1, 171481, Control_c, 0, 64, 105
1, 171485, Note_off_c, 0, 65, 68
1, 171496, Note_off_c, 0, 77, 62
1, 171496, Control_c, 0, 64, 70
1, 171510, Control_c, 0, 64, 0
1, 171607, Note_on_c, 0, 75, 95
1, 171610, Note_on_c, 0, 63, 96
1, 171631, Note_off_c, 0, 63, 68
1, 171639, Note_off_c, 0, 75, 66
1, 171745, Note_on_c, 0, 32, 79
1, 171745, Note_on_c, 0, 38, 87
1, 171745, Note_on_c, 0, 44, 85
1, 171748, Control_c, 0, 64, 62
1, 171770, Control_c, 0, 64, 77
1, 171785, Note_off_c, 0, 32, 66
1, 171785, Control_c, 0, 64, 110
1, 171800, Control_c, 0, 64, 127
1, 171800, Note_off_c, 0, 38, 62
1, 171813, Note_off_c, 0, 44, 62
1, 171897, Note_on_c, 0, 72, 99
1, 171900, Note_on_c, 0, 60, 89
1, 171918, Note_off_c, 0, 60, 73
1, 171926, Note_off_c, 0, 72, 68
1, 172041, Note_on_c, 0, 50, 83
1, 172042, Note_on_c, 0, 56, 89
1, 172045, Note_on_c, 0, 44, 84
1, 172085, Note_off_c, 0, 44, 64
1, 172093, Note_off_c, 0, 50, 66
1, 172112, Note_off_c, 0, 56, 61
1, 172184, Note_on_c, 0, 84, 98
1, 172187, Note_on_c, 0, 72, 97
1, 172335, Note_off_c, 0, 84, 62
1, 172338, Note_on_c, 0, 62, 93
1, 172338, Note_on_c, 0, 68, 97
1, 172339, Note_off_c, 0, 72, 66
1, 172342, Note_on_c, 0, 56, 88
1, 172363, Note_off_c, 0, 56, 67
1, 172367, Note_off_c, 0, 68, 60
1, 172376, Note_off_c, 0, 62, 66
1, 172536, Note_on_c, 0, 80, 86
1, 172541, Note_on_c, 0, 68, 79
1, 172560, Note_off_c, 0, 80, 62
1, 172560, Note_off_c, 0, 68, 70
1, 172610, Note_on_c, 0, 67, 95
1, 172610, Note_on_c, 0, 79, 97
1, 172616, Note_on_c, 0, 78, 71
1, 172634, Note_off_c, 0, 67, 64
1, 172637, Note_off_c, 0, 78, 67
1, 172647, Note_off_c, 0, 79, 66
1, 172652, Control_c, 0, 64, 86
1, 172667, Control_c, 0, 64, 61
1, 172682, Control_c, 0, 64, 0
1, 172758, Note_on_c, 0, 65, 91
1, 172758, Note_on_c, 0, 77, 97
1, 172776, Note_off_c, 0, 65, 71
1, 172777, Note_off_c, 0, 77, 66
1, 172845, Control_c, 0, 64, 65
1, 172859, Control_c, 0, 64, 76
1, 172874, Control_c, 0, 64, 95
1, 172883, Note_on_c, 0, 31, 80
1, 172883, Note_on_c, 0, 43, 90
1, 172886, Note_on_c, 0, 39, 81
1, 172891, Control_c, 0, 64, 127
1, 172909, Note_off_c, 0, 31, 65
1, 172917, Note_off_c, 0, 39, 64
1, 172929, Note_off_c, 0, 43, 65
1, 173022, Note_on_c, 0, 70, 96
1, 173030, Note_on_c, 0, 58, 79
1, 173049, Note_off_c, 0, 58, 69
1, 173063, Note_off_c, 0, 70, 70
1, 173145, Note_on_c, 0, 55, 93
1, 173148, Note_on_c, 0, 51, 94
1, 173151, Note_on_c, 0, 43, 85
1, 173180, Note_off_c, 0, 43, 67
1, 173186, Note_off_c, 0, 51, 67
1, 173190, Note_off_c, 0, 55, 63
1, 173311, Note_on_c, 0, 82, 105
1, 173317, Note_on_c, 0, 70, 98
1, 173353, Note_off_c, 0, 70, 61
1, 173365, Note_off_c, 0, 82, 66
1, 173440, Note_on_c, 0, 67, 96
1, 173441, Note_on_c, 0, 63, 86
1, 173442, Note_on_c, 0, 55, 85
1, 173473, Note_off_c, 0, 67, 61
1, 173480, Note_off_c, 0, 63, 66
1, 173482, Note_off_c, 0, 55, 65
1, 173634, Note_on_c, 0, 67, 90
1, 173634, Note_on_c, 0, 79, 90
1, 173651, Note_off_c, 0, 67, 69
1, 173652, Note_off_c, 0, 79, 69
1, 173698, Control_c, 0, 64, 85
1, 173700, Note_on_c, 0, 55, 86
1, 173704, Note_on_c, 0, 51, 84
1, 173713, Control_c, 0, 64, 0
1, 173719, Note_on_c, 0, 77, 87
1, 173724, Note_on_c, 0, 65, 86
1, 173737, Note_off_c, 0, 55, 66
1, 173739, Note_off_c, 0, 51, 63
1, 173741, Note_off_c, 0, 77, 66
1, 173743, Note_off_c, 0, 65, 72
1, 173871, Note_on_c, 0, 58, 94
1, 173874, Note_on_c, 0, 55, 87
1, 173880, Note_on_c, 0, 63, 81
1, 173880, Note_on_c, 0, 75, 82
1, 173899, Note_off_c, 0, 75, 72
1, 173900, Note_off_c, 0, 55, 68
1, 173902, Note_off_c, 0, 63, 69
1, 173910, Note_off_c, 0, 58, 65
1, 173994, Control_c, 0, 64, 38
1, 174017, Control_c, 0, 64, 66
1, 174028, Note_on_c, 0, 60, 95
1, 174032, Control_c, 0, 64, 76
1, 174033, Note_on_c, 0, 56, 93
1, 174047, Control_c, 0, 64, 87
1, 174056, Note_off_c, 0, 56, 67
1, 174062, Control_c, 0, 64, 101
1, 174065, Note_off_c, 0, 60, 62
1, 174076, Control_c, 0, 64, 106
1, 174076, Control_c, 0, 67, 8
1, 174091, Control_c, 0, 64, 107
1, 174091, Control_c, 0, 67, 10
1, 174106, Control_c, 0, 64, 108
1, 174106, Control_c, 0, 67, 12
1, 174120, Control_c, 0, 67, 13
1, 174135, Control_c, 0, 67, 14
1, 174149, Note_on_c, 0, 62, 73
1, 174150, Control_c, 0, 67, 15
1, 174165, Control_c, 0, 67, 17
1, 174180, Control_c, 0, 67, 19
1, 174194, Control_c, 0, 67, 21
1, 174208, Note_on_c, 0, 64, 79
1, 174209, Control_c, 0, 67, 23
1, 174214, Note_off_c, 0, 62, 62
1, 174224, Control_c, 0, 67, 24
1, 174239, Control_c, 0, 67, 26
1, 174254, Control_c, 0, 67, 29
1, 174256, Note_off_c, 0, 64, 63
1, 174268, Control_c, 0, 64, 107
1, 174268, Control_c, 0, 67, 31
1, 174283, Control_c, 0, 64, 107
1, 174283, Control_c, 0, 67, 33
1, 174298, Control_c, 0, 64, 101
1, 174298, Control_c, 0, 67, 33
1, 174300, Note_on_c, 0, 65, 71
1, 174313, Control_c, 0, 64, 89
1, 174313, Control_c, 0, 67, 34
1, 174325, Note_on_c, 0, 48, 81
1, 174327, Control_c, 0, 64, 75
1, 174327, Control_c, 0, 67, 36
1, 174328, Note_on_c, 0, 44, 79
1, 174330, Note_on_c, 0, 53, 77
1, 174342, Control_c, 0, 64, 42
1, 174342, Control_c, 0, 67, 37
1, 174351, Note_on_c, 0, 55, 39
1, 174356, Note_on_c, 0, 67, 68
1, 174356, Note_off_c, 0, 65, 59
1, 174357, Control_c, 0, 64, 0
1, 174357, Control_c, 0, 67, 37
1, 174387, Note_on_c, 0, 68, 72
1, 174390, Note_off_c, 0, 55, 32
1, 174414, Note_off_c, 0, 67, 62
1, 174417, Control_c, 0, 67, 37
1, 174431, Control_c, 0, 64, 32
1, 174431, Control_c, 0, 67, 36
1, 174432, Note_off_c, 0, 68, 65
1, 174446, Control_c, 0, 64, 60
1, 174446, Control_c, 0, 67, 36
1, 174459, Note_on_c, 0, 70, 21
1, 174460, Note_off_c, 0, 70, 127
1, 174461, Control_c, 0, 64, 66
1, 174461, Control_c, 0, 67, 35
1, 174476, Control_c, 0, 64, 72
1, 174476, Control_c, 0, 67, 35
1, 174491, Control_c, 0, 64, 78
1, 174491, Control_c, 0, 67, 34
1, 174497, Note_on_c, 0, 71, 65
1, 174503, Note_on_c, 0, 72, 56
1, 174506, Control_c, 0, 64, 85
1, 174506, Control_c, 0, 67, 34
1, 174521, Control_c, 0, 64, 92
1, 174523, Note_off_c, 0, 71, 69
1, 174536, Control_c, 0, 64, 101
1, 174536, Control_c, 0, 67, 33
1, 174551, Control_c, 0, 64, 109
1, 174563, Note_on_c, 0, 74, 82
1, 174565, Note_off_c, 0, 72, 60
1, 174566, Control_c, 0, 64, 122
1, 174566, Control_c, 0, 67, 34
1, 174581, Control_c, 0, 64, 127
1, 174583, Note_off_c, 0, 74, 73
1, 174596, Control_c, 0, 67, 34
1, 174598, Note_off_c, 0, 48, 62
1, 174611, Note_off_c, 0, 44, 62
1, 174640, Control_c, 0, 67, 35
1, 174646, Note_on_c, 0, 77, 74
1, 174668, Note_off_c, 0, 53, 59
1, 174670, Control_c, 0, 67, 35
1, 174682, Note_on_c, 0, 79, 82
1, 174692, Note_off_c, 0, 77, 47
1, 174724, Note_on_c, 0, 80, 84
1, 174728, Control_c, 0, 67, 35
1, 174743, Control_c, 0, 67, 34
1, 174758, Note_on_c, 0, 82, 77
1, 174760, Note_off_c, 0, 79, 62
1, 174766, Control_c, 0, 67, 34
1, 174781, Control_c, 0, 67, 33
1, 174793, Note_off_c, 0, 80, 66
1, 174795, Control_c, 0, 67, 32
1, 174803, Note_on_c, 0, 84, 100
1, 174810, Control_c, 0, 64, 112
1, 174810, Control_c, 0, 67, 32
1, 174810, Note_on_c, 0, 53, 97
1, 174817, Note_on_c, 0, 50, 83
1, 174825, Control_c, 0, 64, 73
1, 174825, Control_c, 0, 67, 31
1, 174829, Note_off_c, 0, 84, 73
1, 174830, Note_off_c, 0, 82, 67
1, 174840, Control_c, 0, 64, 0
1, 174847, Note_off_c, 0, 50, 67
1, 174850, Note_off_c, 0, 53, 68
1, 174869, Control_c, 0, 67, 31
1, 174884, Control_c, 0, 67, 29
1, 174899, Control_c, 0, 67, 28
1, 174914, Control_c, 0, 67, 26
1, 174929, Control_c, 0, 67, 26
1, 174957, Note_on_c, 0, 56, 98
1, 174962, Note_on_c, 0, 53, 82
1, 174973, Control_c, 0, 67, 27
1, 174988, Note_off_c, 0, 53, 69
1, 174988, Control_c, 0, 67, 29
1, 175000, Note_off_c, 0, 56, 66
1, 175003, Control_c, 0, 67, 29
1, 175047, Control_c, 0, 67, 29
1, 175061, Control_c, 0, 67, 28
1, 175076, Control_c, 0, 67, 27
1, 175091, Control_c, 0, 67, 26
1, 175106, Control_c, 0, 67, 25
1, 175114, Note_on_c, 0, 58, 95
1, 175118, Note_on_c, 0, 55, 91
1, 175135, Control_c, 0, 64, 61
1, 175140, Note_off_c, 0, 55, 71
1, 175150, Note_off_c, 0, 58, 62
1, 175150, Control_c, 0, 64, 72
1, 175150, Control_c, 0, 67, 26
1, 175165, Control_c, 0, 64, 84
1, 175180, Control_c, 0, 64, 101
1, 175195, Control_c, 0, 64, 127
1, 175225, Control_c, 0, 67, 26
1, 175240, Note_on_c, 0, 60, 68
1, 175240, Control_c, 0, 67, 27
1, 175297, Note_on_c, 0, 62, 69
1, 175299, Control_c, 0, 67, 26
1, 175304, Note_off_c, 0, 60, 63
1, 175314, Control_c, 0, 67, 26
1, 175329, Control_c, 0, 67, 25
1, 175346, Note_on_c, 0, 63, 76
1, 175355, Note_off_c, 0, 62, 59
1, 175377, Note_off_c, 0, 63, 63
1, 175389, Control_c, 0, 67, 26
1, 175404, Control_c, 0, 67, 27
1, 175418, Control_c, 0, 64, 102
1, 175429, Note_on_c, 0, 51, 90
1, 175430, Note_on_c, 0, 65, 67
1, 175433, Note_on_c, 0, 46, 82
1, 175433, Control_c, 0, 64, 83
1, 175433, Control_c, 0, 67, 27
1, 175438, Note_on_c, 0, 43, 74
1, 175448, Control_c, 0, 64, 66
1, 175448, Control_c, 0, 67, 28
1, 175463, Control_c, 0, 64, 0
1, 175476, Note_off_c, 0, 65, 58
1, 175484, Note_on_c, 0, 67, 68
1, 175538, Note_on_c, 0, 68, 75
1, 175541, Note_off_c, 0, 67, 61
1, 175559, Control_c, 0, 67, 27
1, 175566, Note_off_c, 0, 68, 65
1, 175572, Note_on_c, 0, 70, 68
1, 175573, Control_c, 0, 64, 51
1, 175588, Control_c, 0, 64, 66
1, 175597, Note_off_c, 0, 70, 66
1, 175603, Control_c, 0, 64, 71
1, 175603, Control_c, 0, 67, 27
1, 175618, Control_c, 0, 64, 75
1, 175630, Note_on_c, 0, 72, 72
1, 175633, Control_c, 0, 64, 79
1, 175633, Control_c, 0, 67, 26
1, 175648, Control_c, 0, 64, 82
1, 175648, Control_c, 0, 67, 25
1, 175663, Control_c, 0, 64, 87
1, 175663, Control_c, 0, 67, 24
1, 175678, Note_off_c, 0, 72, 55
1, 175678, Control_c, 0, 64, 95
1, 175678, Control_c, 0, 67, 22
1, 175683, Note_on_c, 0, 74, 60
1, 175692, Control_c, 0, 64, 104
1, 175692, Control_c, 0, 67, 17
1, 175707, Note_off_c, 0, 46, 63
1, 175707, Control_c, 0, 64, 123
1, 175707, Control_c, 0, 67, 11
1, 175715, Note_on_c, 0, 75, 86
1, 175715, Note_off_c, 0, 74, 67
1, 175722, Control_c, 0, 64, 127
1, 175722, Control_c, 0, 67, 0
1, 175725, Note_off_c, 0, 43, 63
1, 175744, Note_off_c, 0, 51, 64
1, 175744, Note_off_c, 0, 75, 63
1, 175787, Note_on_c, 0, 77, 77
1, 175830, Note_on_c, 0, 79, 73
1, 175840, Note_off_c, 0, 77, 61
1, 175872, Note_on_c, 0, 80, 85
1, 175892, Note_off_c, 0, 79, 63
1, 175899, Control_c, 0, 64, 115
1, 175914, Control_c, 0, 64, 83
1, 175915, Note_on_c, 0, 81, 66
1, 175915, Note_on_c, 0, 82, 103
1, 175915, Note_off_c, 0, 80, 66
1, 175916, Note_on_c, 0, 55, 88
1, 175921, Note_on_c, 0, 51, 81
1, 175929, Control_c, 0, 64, 11
1, 175931, Note_off_c, 0, 81, 65
1, 175944, Control_c, 0, 64, 0
1, 175946, Note_off_c, 0, 82, 69
1, 175949, Note_off_c, 0, 51, 68
1, 175949, Note_off_c, 0, 55, 66
1, 176072, Note_on_c, 0, 58, 89
1, 176074, Note_on_c, 0, 55, 78
1, 176098, Note_off_c, 0, 55, 67
1, 176106, Note_off_c, 0, 58, 62
1, 176236, Note_on_c, 0, 60, 88
1, 176241, Note_on_c, 0, 56, 88
1, 176241, Control_c, 0, 64, 35
1, 176263, Note_off_c, 0, 60, 70
1, 176263, Control_c, 0, 64, 64
1, 176268, Note_off_c, 0, 56, 72
1, 176278, Control_c, 0, 64, 70
1, 176293, Control_c, 0, 64, 77
1, 176307, Control_c, 0, 64, 87
1, 176322, Control_c, 0, 64, 96
1, 176337, Control_c, 0, 64, 101
1, 176352, Control_c, 0, 64, 103
1, 176381, Control_c, 0, 64, 103
1, 176396, Control_c, 0, 64, 104
1, 176402, Note_on_c, 0, 62, 69
1, 176411, Control_c, 0, 64, 104
1, 176471, Note_on_c, 0, 64, 79
1, 176473, Note_off_c, 0, 62, 59
1, 176515, Control_c, 0, 64, 104
1, 176526, Note_off_c, 0, 64, 63
1, 176530, Control_c, 0, 64, 99
1, 176545, Control_c, 0, 64, 89
1, 176560, Control_c, 0, 64, 76
1, 176560, Note_on_c, 0, 48, 86
1, 176560, Note_on_c, 0, 53, 92
1, 176560, Note_on_c, 0, 65, 70
1, 176563, Note_on_c, 0, 44, 86
1, 176575, Control_c, 0, 64, 62
1, 176575, Control_c, 0, 67, 8
1, 176589, Control_c, 0, 64, 0
1, 176589, Control_c, 0, 67, 8
1, 176620, Note_off_c, 0, 65, 60
1, 176629, Note_on_c, 0, 67, 68
1, 176634, Control_c, 0, 67, 9
1, 176663, Control_c, 0, 64, 51
1, 176668, Note_on_c, 0, 68, 73
1, 176678, Control_c, 0, 64, 65
1, 176680, Note_off_c, 0, 67, 60
1, 176693, Control_c, 0, 64, 71
1, 176700, Note_off_c, 0, 68, 65
1, 176700, Note_on_c, 0, 70, 74
1, 176707, Control_c, 0, 64, 76
1, 176707, Control_c, 0, 67, 8
1, 176722, Control_c, 0, 64, 80
1, 176723, Note_off_c, 0, 70, 69
1, 176737, Control_c, 0, 64, 81
1, 176752, Control_c, 0, 67, 8
1, 176755, Note_on_c, 0, 72, 72
1, 176781, Control_c, 0, 67, 0
1, 176796, Note_off_c, 0, 72, 62
1, 176796, Control_c, 0, 64, 82
1, 176806, Note_on_c, 0, 74, 59
1, 176811, Control_c, 0, 64, 83
1, 176825, Control_c, 0, 64, 84
1, 176835, Note_off_c, 0, 74, 68
1, 176837, Note_on_c, 0, 76, 76
1, 176840, Control_c, 0, 64, 86
1, 176853, Note_off_c, 0, 76, 69
1, 176855, Control_c, 0, 64, 88
1, 176870, Control_c, 0, 64, 90
1, 176873, Note_off_c, 0, 48, 63
1, 176885, Note_off_c, 0, 44, 63
1, 176886, Control_c, 0, 64, 93
1, 176901, Control_c, 0, 64, 96
1, 176911, Note_on_c, 0, 77, 65
1, 176916, Control_c, 0, 64, 99
1, 176930, Control_c, 0, 64, 100
1, 176939, Note_off_c, 0, 53, 61
1, 176944, Note_on_c, 0, 79, 82
1, 176945, Control_c, 0, 64, 101
1, 176946, Note_off_c, 0, 77, 48
1, 176960, Control_c, 0, 64, 102
1, 176975, Control_c, 0, 64, 102
1, 176991, Note_on_c, 0, 80, 77
1, 177023, Note_off_c, 0, 79, 63
1, 177026, Note_on_c, 0, 82, 79
1, 177057, Control_c, 0, 64, 97
1, 177062, Note_off_c, 0, 80, 64
1, 177072, Control_c, 0, 64, 83
1, 177077, Note_on_c, 0, 84, 97
1, 177086, Note_on_c, 0, 53, 89
1, 177086, Control_c, 0, 64, 65
1, 177090, Note_on_c, 0, 50, 83
1, 177100, Note_off_c, 0, 82, 67
1, 177101, Control_c, 0, 64, 0
1, 177104, Note_off_c, 0, 84, 69
1, 177117, Note_off_c, 0, 50, 71
1, 177119, Note_off_c, 0, 53, 67
1, 177246, Note_on_c, 0, 56, 88
1, 177261, Note_on_c, 0, 53, 57
1, 177264, Control_c, 0, 67, 10
1, 177279, Control_c, 0, 67, 14
1, 177285, Note_off_c, 0, 56, 61
1, 177287, Note_off_c, 0, 53, 61
1, 177293, Control_c, 0, 67, 16
1, 177308, Control_c, 0, 67, 17
1, 177368, Control_c, 0, 67, 18
1, 177383, Control_c, 0, 67, 19
1, 177398, Control_c, 0, 67, 21
1, 177410, Note_on_c, 0, 58, 88
1, 177412, Control_c, 0, 64, 57
1, 177412, Control_c, 0, 67, 25
1, 177417, Note_on_c, 0, 55, 90
1, 177427, Control_c, 0, 64, 67
1, 177427, Control_c, 0, 67, 28
1, 177434, Note_off_c, 0, 58, 67
1, 177436, Poly_aftertouch_c, 0, 54, 0
1, 177437, Note_off_c, 0, 55, 71
1, 177442, Control_c, 0, 64, 74
1, 177442, Control_c, 0, 67, 32
1, 177456, Control_c, 0, 64, 81
1, 177456, Control_c, 0, 67, 33
1, 177471, Control_c, 0, 64, 87
1, 177486, Control_c, 0, 64, 90
1, 177501, Control_c, 0, 64, 91
1, 177516, Control_c, 0, 64, 92
1, 177516, Control_c, 0, 67, 34
1, 177530, Control_c, 0, 64, 93
1, 177530, Control_c, 0, 67, 34
1, 177545, Control_c, 0, 64, 96
1, 177545, Control_c, 0, 67, 35
1, 177560, Control_c, 0, 64, 98
1, 177560, Control_c, 0, 67, 37
1, 177571, Note_on_c, 0, 60, 66
1, 177575, Control_c, 0, 64, 99
1, 177575, Control_c, 0, 67, 40
1, 177590, Control_c, 0, 67, 41
1, 177604, Control_c, 0, 67, 41
1, 177619, Control_c, 0, 67, 42
1, 177648, Note_on_c, 0, 62, 69
1, 177654, Note_off_c, 0, 60, 59
1, 177699, Note_on_c, 0, 63, 74
1, 177704, Note_off_c, 0, 62, 60
1, 177709, Control_c, 0, 64, 98
1, 177723, Note_off_c, 0, 63, 70
1, 177724, Control_c, 0, 64, 98
1, 177739, Control_c, 0, 64, 97
1, 177739, Control_c, 0, 67, 42
1, 177761, Control_c, 0, 64, 95
1, 177761, Control_c, 0, 67, 43
1, 177770, Note_on_c, 0, 51, 75
1, 177776, Control_c, 0, 64, 91
1, 177776, Control_c, 0, 67, 44
1, 177781, Note_on_c, 0, 46, 61
1, 177791, Control_c, 0, 64, 86
1, 177791, Control_c, 0, 67, 46
1, 177793, Note_on_c, 0, 43, 58
1, 177799, Note_on_c, 0, 65, 62
1, 177806, Control_c, 0, 64, 80
1, 177806, Control_c, 0, 67, 48
1, 177821, Control_c, 0, 64, 73
1, 177821, Control_c, 0, 67, 50
1, 177835, Control_c, 0, 64, 66
1, 177835, Control_c, 0, 67, 51
1, 177850, Control_c, 0, 64, 55
1, 177850, Control_c, 0, 67, 52
1, 177851, Note_off_c, 0, 65, 56
1, 177859, Note_on_c, 0, 67, 64
1, 177865, Control_c, 0, 64, 17
1, 177879, Control_c, 0, 64, 0
1, 177879, Control_c, 0, 67, 53
1, 177898, Note_on_c, 0, 68, 71
1, 177913, Note_off_c, 0, 67, 59
1, 177945, Note_on_c, 0, 70, 62
1, 177946, Note_off_c, 0, 68, 65
1, 177970, Note_off_c, 0, 70, 67
1, 177984, Control_c, 0, 64, 11
1, 177999, Control_c, 0, 64, 23
1, 178014, Control_c, 0, 64, 29
1, 178024, Note_on_c, 0, 72, 52
1, 178024, Note_on_c, 0, 71, 33
1, 178028, Control_c, 0, 64, 31
1, 178028, Control_c, 0, 67, 53
1, 178053, Note_off_c, 0, 71, 53
1, 178058, Control_c, 0, 64, 30
1, 178065, Note_on_c, 0, 74, 66
1, 178073, Control_c, 0, 64, 29
1, 178075, Note_off_c, 0, 72, 45
1, 178087, Control_c, 0, 64, 28
1, 178099, Note_on_c, 0, 75, 77
1, 178103, Note_off_c, 0, 74, 65
1, 178117, Control_c, 0, 64, 32
1, 178117, Control_c, 0, 67, 54
1, 178132, Control_c, 0, 64, 45
1, 178133, Note_off_c, 0, 75, 64
1, 178147, Control_c, 0, 64, 59
1, 178161, Control_c, 0, 64, 65
1, 178161, Control_c, 0, 67, 55
1, 178176, Control_c, 0, 64, 70
1, 178176, Control_c, 0, 67, 57
1, 178179, Note_on_c, 0, 77, 77
1, 178191, Control_c, 0, 64, 74
1, 178191, Control_c, 0, 67, 60
1, 178206, Note_off_c, 0, 43, 64
1, 178206, Control_c, 0, 64, 78
1, 178206, Control_c, 0, 67, 62
1, 178221, Note_off_c, 0, 46, 62
1, 178221, Control_c, 0, 64, 81
1, 178221, Control_c, 0, 67, 64
1, 178234, Note_off_c, 0, 77, 60
1, 178235, Control_c, 0, 64, 84
1, 178235, Control_c, 0, 67, 65
1, 178238, Note_on_c, 0, 79, 73
1, 178248, Note_off_c, 0, 51, 65
1, 178250, Control_c, 0, 64, 87
1, 178265, Control_c, 0, 64, 89
1, 178280, Control_c, 0, 64, 91
1, 178292, Note_on_c, 0, 80, 82
1, 178293, Note_off_c, 0, 79, 65
1, 178295, Control_c, 0, 64, 92
1, 178295, Control_c, 0, 67, 66
1, 178310, Control_c, 0, 67, 67
1, 178325, Control_c, 0, 67, 68
1, 178340, Control_c, 0, 67, 68
1, 178369, Control_c, 0, 67, 69
1, 178384, Control_c, 0, 67, 69
1, 178399, Control_c, 0, 67, 70
1, 178414, Control_c, 0, 67, 73
1, 178428, Control_c, 0, 67, 74
1, 178443, Control_c, 0, 67, 75
1, 178458, Control_c, 0, 64, 89
1, 178458, Control_c, 0, 67, 76
1, 178469, Note_on_c, 0, 82, 73
1, 178474, Control_c, 0, 64, 81
1, 178474, Note_on_c, 0, 67, 54
1, 178475, Note_on_c, 0, 70, 58
1, 178489, Control_c, 0, 64, 69
1, 178490, Note_off_c, 0, 80, 59
1, 178510, Control_c, 0, 64, 36
1, 178513, Note_on_c, 0, 75, 51
1, 178525, Control_c, 0, 64, 0
1, 178540, Control_c, 0, 67, 75
1, 178555, Control_c, 0, 67, 74
1, 178570, Control_c, 0, 67, 73
1, 178584, Control_c, 0, 67, 71
1, 178599, Control_c, 0, 64, 62
1, 178599, Control_c, 0, 67, 70
1, 178614, Control_c, 0, 64, 72
1, 178614, Control_c, 0, 67, 69
1, 178629, Control_c, 0, 64, 83
1, 178629, Control_c, 0, 67, 69
1, 178644, Control_c, 0, 64, 96
1, 178644, Control_c, 0, 67, 68
1, 178659, Control_c, 0, 64, 107
1, 178659, Control_c, 0, 67, 67
1, 178674, Control_c, 0, 64, 117
1, 178674, Control_c, 0, 67, 66
1, 178681, Note_off_c, 0, 75, 52
1, 178688, Control_c, 0, 64, 121
1, 178702, Note_off_c, 0, 67, 53
1, 178703, Control_c, 0, 64, 123
1, 178703, Note_off_c, 0, 70, 59
1, 178718, Control_c, 0, 64, 126
1, 178763, Control_c, 0, 67, 66
1, 178783, Note_on_c, 0, 84, 73
1, 178805, Note_off_c, 0, 82, 65
1, 178813, Note_on_c, 0, 75, 49
1, 178837, Control_c, 0, 67, 66
1, 178839, Note_on_c, 0, 67, 11
1, 178841, Note_on_c, 0, 70, 38
1, 178849, Note_off_c, 0, 75, 51
1, 178866, Control_c, 0, 67, 67
1, 178881, Control_c, 0, 67, 68
1, 178896, Control_c, 0, 67, 69
1, 178903, Note_off_c, 0, 67, 41
1, 178910, Control_c, 0, 67, 69
1, 178912, Note_off_c, 0, 70, 36
1, 178925, Control_c, 0, 67, 70
1, 178940, Control_c, 0, 67, 70
1, 178955, Control_c, 0, 67, 71
1, 178970, Control_c, 0, 67, 71
1, 178984, Control_c, 0, 67, 72
1, 179043, Control_c, 0, 67, 72
1, 179153, Note_off_c, 0, 84, 63
1, 179160, Note_on_c, 0, 86, 71
1, 179177, Control_c, 0, 64, 121
1, 179192, Control_c, 0, 64, 106
1, 179207, Control_c, 0, 64, 91
1, 179212, Note_on_c, 0, 82, 43
1, 179221, Control_c, 0, 64, 76
1, 179223, Note_on_c, 0, 74, 36
1, 179226, Note_on_c, 0, 79, 27
1, 179228, Note_on_c, 0, 70, 28
1, 179236, Note_on_c, 0, 67, 31
1, 179236, Control_c, 0, 64, 62
1, 179236, Control_c, 0, 67, 73
1, 179258, Control_c, 0, 64, 0
1, 179289, Control_c, 0, 64, 21
1, 179289, Control_c, 0, 67, 73
1, 179304, Control_c, 0, 64, 62
1, 179304, Control_c, 0, 67, 74
1, 179319, Control_c, 0, 64, 68
1, 179333, Control_c, 0, 64, 76
1, 179333, Control_c, 0, 67, 74
1, 179348, Control_c, 0, 64, 86
1, 179363, Control_c, 0, 64, 98
1, 179378, Control_c, 0, 64, 108
1, 179378, Control_c, 0, 67, 75
1, 179392, Control_c, 0, 64, 114
1, 179407, Control_c, 0, 64, 116
1, 179407, Control_c, 0, 67, 75
1, 179413, Note_off_c, 0, 82, 45
1, 179422, Control_c, 0, 67, 76
1, 179425, Note_off_c, 0, 79, 40
1, 179431, Note_off_c, 0, 67, 39
1, 179450, Note_off_c, 0, 70, 45
1, 179451, Control_c, 0, 64, 117
1, 179453, Note_off_c, 0, 74, 35
1, 179466, Control_c, 0, 67, 76
1, 179496, Control_c, 0, 64, 117
1, 179496, Control_c, 0, 67, 77
1, 179511, Control_c, 0, 64, 118
1, 179525, Control_c, 0, 67, 77
1, 179540, Control_c, 0, 64, 118
1, 179540, Control_c, 0, 67, 78
1, 179555, Control_c, 0, 67, 80
1, 179570, Control_c, 0, 67, 82
1, 179585, Control_c, 0, 67, 84
1, 179598, Note_on_c, 0, 70, 25
1, 179599, Control_c, 0, 67, 86
1, 179602, Note_on_c, 0, 74, 40
1, 179614, Control_c, 0, 67, 87
1, 179617, Note_on_c, 0, 67, 24
1, 179624, Note_on_c, 0, 82, 36
1, 179629, Control_c, 0, 67, 88
1, 179644, Note_on_c, 0, 79, 13
1, 179644, Control_c, 0, 67, 88
1, 179658, Control_c, 0, 67, 89
1, 179673, Control_c, 0, 64, 118
1, 179673, Control_c, 0, 67, 90
1, 179685, Note_off_c, 0, 82, 45
1, 179688, Control_c, 0, 67, 91
1, 179689, Note_off_c, 0, 67, 40
1, 179691, Note_off_c, 0, 79, 50
1, 179701, Note_off_c, 0, 86, 58
1, 179703, Control_c, 0, 67, 92
1, 179718, Control_c, 0, 67, 93
1, 179726, Note_off_c, 0, 70, 44
1, 179726, Note_off_c, 0, 74, 36
1, 179732, Control_c, 0, 67, 94
1, 179747, Control_c, 0, 67, 95
1, 179762, Control_c, 0, 67, 96
1, 179777, Control_c, 0, 67, 98
1, 179792, Control_c, 0, 67, 100
1, 179806, Control_c, 0, 67, 101
1, 179821, Control_c, 0, 67, 103
1, 179835, Note_on_c, 0, 86, 66
1, 179836, Control_c, 0, 67, 104
1, 179848, Note_on_c, 0, 70, 36
1, 179851, Control_c, 0, 67, 106
1, 179859, Note_on_c, 0, 74, 42
1, 179866, Control_c, 0, 67, 108
1, 179881, Control_c, 0, 67, 109
1, 179896, Poly_aftertouch_c, 0, 67, 127
1, 179896, Control_c, 0, 67, 111
1, 179911, Control_c, 0, 67, 113
1, 179912, Note_off_c, 0, 70, 41
1, 179919, Note_off_c, 0, 74, 42
1, 179925, Control_c, 0, 67, 115
1, 179940, Poly_aftertouch_c, 0, 67, 0
1, 179940, Control_c, 0, 67, 117
1, 179955, Control_c, 0, 67, 120
1, 179970, Control_c, 0, 67, 122
1, 179985, Control_c, 0, 67, 125
1, 180006, Control_c, 0, 67, 126
1, 180021, Control_c, 0, 67, 127
1, 180051, Note_on_c, 0, 79, 48
1, 180066, Note_on_c, 0, 67, 36
1, 180070, Note_on_c, 0, 82, 40
1, 180072, Note_on_c, 0, 70, 33
1, 180074, Note_on_c, 0, 74, 36
1, 180107, Note_off_c, 0, 67, 47
1, 180107, Note_off_c, 0, 70, 51
1, 180108, Note_off_c, 0, 79, 45
1, 180109, Note_off_c, 0, 82, 50
1, 180116, Note_off_c, 0, 74, 48
1, 180254, Note_on_c, 0, 79, 42
1, 180256, Note_on_c, 0, 67, 41
1, 180259, Note_on_c, 0, 74, 40
1, 180262, Note_on_c, 0, 82, 42
1, 180271, Note_on_c, 0, 70, 33
1, 180303, Note_off_c, 0, 79, 45
1, 180304, Note_off_c, 0, 82, 47
1, 180310, Note_off_c, 0, 70, 49
1, 180310, Note_off_c, 0, 74, 45
1, 180310, Note_off_c, 0, 67, 43
1, 180462, Note_on_c, 0, 74, 39
1, 180467, Note_on_c, 0, 82, 45
1, 180478, Note_on_c, 0, 70, 12
1, 180492, Note_off_c, 0, 74, 55
1, 180494, Note_off_c, 0, 82, 56
1, 180522, Note_off_c, 0, 70, 53
1, 180526, Control_c, 0, 64, 118
1, 180541, Control_c, 0, 64, 120
1, 180555, Control_c, 0, 64, 121
1, 180570, Control_c, 0, 64, 122
1, 180629, Control_c, 0, 64, 116
1, 180644, Control_c, 0, 64, 100
1, 180659, Control_c, 0, 64, 84
1, 180674, Control_c, 0, 64, 69
1, 180686, Note_on_c, 0, 84, 58
1, 180689, Control_c, 0, 64, 43
1, 180697, Note_off_c, 0, 86, 59
1, 180698, Note_on_c, 0, 72, 41
1, 180701, Note_on_c, 0, 67, 34
1, 180702, Note_on_c, 0, 79, 36
1, 180704, Control_c, 0, 64, 0
1, 180710, Note_on_c, 0, 63, 36
1, 180718, Control_c, 0, 64, 44
1, 180733, Control_c, 0, 64, 63
1, 180755, Control_c, 0, 64, 69
1, 180770, Control_c, 0, 64, 74
1, 180777, Note_off_c, 0, 79, 39
1, 180778, Note_off_c, 0, 63, 54
1, 180784, Note_off_c, 0, 72, 54
1, 180785, Control_c, 0, 64, 81
1, 180787, Note_off_c, 0, 84, 63
1, 180794, Note_off_c, 0, 67, 43
1, 180799, Note_on_c, 0, 86, 67
1, 180800, Control_c, 0, 64, 88
1, 180814, Control_c, 0, 64, 92
1, 180829, Control_c, 0, 64, 94
1, 180844, Control_c, 0, 64, 94
1, 180879, Note_off_c, 0, 86, 61
1, 180885, Note_on_c, 0, 84, 66
1, 180891, Control_c, 0, 64, 95
1, 180893, Note_on_c, 0, 63, 17
1, 180894, Note_on_c, 0, 72, 38
1, 180905, Control_c, 0, 64, 95
1, 180915, Note_on_c, 0, 67, 9
1, 180920, Control_c, 0, 64, 96
1, 180936, Note_off_c, 0, 63, 53
1, 180950, Control_c, 0, 64, 96
1, 180951, Note_off_c, 0, 72, 56
1, 180954, Note_off_c, 0, 84, 64
1, 180966, Note_off_c, 0, 67, 50
1, 180967, Note_on_c, 0, 91, 78
1, 180979, Control_c, 0, 64, 97
1, 180994, Control_c, 0, 64, 98
1, 181024, Control_c, 0, 64, 98
1, 181053, Control_c, 0, 64, 98
1, 181083, Control_c, 0, 64, 94
1, 181097, Control_c, 0, 64, 83
1, 181104, Note_on_c, 0, 86, 73
1, 181112, Control_c, 0, 64, 70
1, 181127, Note_on_c, 0, 70, 40
1, 181127, Note_on_c, 0, 74, 45
1, 181127, Control_c, 0, 64, 48
1, 181140, Note_on_c, 0, 67, 29
1, 181142, Control_c, 0, 64, 0
1, 181148, Note_on_c, 0, 79, 29
1, 181156, Note_on_c, 0, 82, 29
1, 181186, Control_c, 0, 64, 34
1, 181189, Note_off_c, 0, 79, 49
1, 181193, Note_off_c, 0, 82, 52
1, 181201, Control_c, 0, 64, 60
1, 181208, Note_off_c, 0, 91, 31
1, 181216, Control_c, 0, 64, 67
1, 181231, Control_c, 0, 64, 76
1, 181246, Control_c, 0, 64, 85
1, 181261, Control_c, 0, 64, 96
1, 181272, Note_off_c, 0, 67, 37
1, 181273, Note_off_c, 0, 70, 38
1, 181273, Note_off_c, 0, 74, 40
1, 181276, Control_c, 0, 64, 102
1, 181291, Control_c, 0, 64, 105
1, 181305, Control_c, 0, 64, 106
1, 181392, Note_on_c, 0, 67, 23
1, 181394, Control_c, 0, 64, 106
1, 181398, Note_on_c, 0, 70, 37
1, 181399, Note_on_c, 0, 82, 53
1, 181401, Note_on_c, 0, 74, 40
1, 181409, Control_c, 0, 64, 107
1, 181423, Control_c, 0, 64, 108
1, 181431, Note_on_c, 0, 79, 24
1, 181439, Note_off_c, 0, 70, 47
1, 181461, Note_off_c, 0, 86, 55
1, 181463, Note_off_c, 0, 67, 39
1, 181463, Note_off_c, 0, 74, 44
1, 181476, Note_off_c, 0, 79, 49
1, 181482, Note_off_c, 0, 82, 54
1, 181597, Note_on_c, 0, 86, 61
1, 181609, Control_c, 0, 64, 108
1, 181611, Note_on_c, 0, 67, 39
1, 181613, Note_on_c, 0, 74, 45
1, 181613, Note_on_c, 0, 82, 55
1, 181622, Note_on_c, 0, 79, 39
1, 181622, Note_on_c, 0, 70, 41
1, 181624, Control_c, 0, 64, 109
1, 181651, Note_off_c, 0, 82, 48
1, 181661, Note_off_c, 0, 70, 53
1, 181663, Note_off_c, 0, 79, 47
1, 181671, Note_off_c, 0, 67, 44
1, 181675, Note_off_c, 0, 74, 55
1, 181684, Control_c, 0, 64, 109
1, 181758, Control_c, 0, 64, 110
1, 181788, Control_c, 0, 64, 110
1, 181802, Control_c, 0, 64, 111
1, 181810, Note_on_c, 0, 82, 50
1, 181812, Note_on_c, 0, 67, 36
1, 181815, Note_on_c, 0, 74, 47
1, 181816, Note_on_c, 0, 70, 34
1, 181817, Control_c, 0, 64, 113
1, 181830, Note_on_c, 0, 79, 26
1, 181832, Control_c, 0, 64, 116
1, 181846, Control_c, 0, 64, 117
1, 181860, Note_off_c, 0, 67, 46
1, 181861, Control_c, 0, 64, 118
1, 181862, Note_off_c, 0, 70, 47
1, 181862, Note_off_c, 0, 82, 47
1, 181863, Note_off_c, 0, 74, 51
1, 181870, Note_off_c, 0, 79, 50
1, 181876, Control_c, 0, 64, 118
1, 181906, Control_c, 0, 64, 119
1, 181920, Control_c, 0, 64, 119
1, 181935, Control_c, 0, 64, 120
1, 181950, Control_c, 0, 64, 121
1, 182008, Note_on_c, 0, 74, 42
1, 182008, Note_on_c, 0, 79, 24
1, 182009, Note_on_c, 0, 82, 42
1, 182009, Control_c, 0, 64, 122
1, 182015, Note_on_c, 0, 67, 35
1, 182015, Note_on_c, 0, 70, 33
1, 182051, Note_off_c, 0, 82, 48
1, 182054, Control_c, 0, 64, 123
1, 182057, Note_off_c, 0, 67, 47
1, 182060, Note_off_c, 0, 79, 45
1, 182062, Note_off_c, 0, 70, 47
1, 182066, Note_off_c, 0, 74, 48
1, 182069, Control_c, 0, 64, 124
1, 182099, Control_c, 0, 64, 126
1, 182114, Control_c, 0, 64, 127
1, 182203, Note_on_c, 0, 74, 47
1, 182218, Note_on_c, 0, 70, 34
1, 182218, Note_on_c, 0, 82, 38
1, 182256, Note_off_c, 0, 74, 60
1, 182260, Note_off_c, 0, 70, 52
1, 182260, Note_off_c, 0, 82, 51
1, 182269, Poly_aftertouch_c, 0, 79, 127
1, 182313, Poly_aftertouch_c, 0, 79, 0
1, 182373, Control_c, 0, 64, 114
1, 182386, Control_c, 0, 64, 93
1, 182400, Control_c, 0, 64, 77
1, 182415, Control_c, 0, 64, 65
1, 182416, Note_off_c, 0, 86, 61
1, 182425, Note_on_c, 0, 84, 62
1, 182430, Control_c, 0, 64, 56
1, 182432, Note_on_c, 0, 67, 41
1, 182438, Note_on_c, 0, 72, 42
1, 182444, Control_c, 0, 64, 59
1, 182446, Note_on_c, 0, 63, 39
1, 182459, Control_c, 0, 64, 63
1, 182462, Note_on_c, 0, 79, 19
1, 182475, Control_c, 0, 64, 66
1, 182490, Control_c, 0, 64, 69
1, 182505, Control_c, 0, 64, 73
1, 182509, Note_off_c, 0, 63, 53
1, 182510, Note_off_c, 0, 84, 64
1, 182515, Note_off_c, 0, 67, 57
1, 182516, Note_off_c, 0, 72, 55
1, 182520, Control_c, 0, 64, 80
1, 182525, Note_on_c, 0, 86, 66
1, 182535, Control_c, 0, 64, 85
1, 182549, Control_c, 0, 64, 89
1, 182564, Control_c, 0, 64, 92
1, 182579, Control_c, 0, 64, 94
1, 182594, Control_c, 0, 64, 95
1, 182603, Note_off_c, 0, 86, 64
1, 182609, Control_c, 0, 64, 96
1, 182611, Note_on_c, 0, 84, 71
1, 182623, Control_c, 0, 64, 97
1, 182626, Note_on_c, 0, 63, 18
1, 182627, Note_on_c, 0, 72, 37
1, 182638, Control_c, 0, 64, 97
1, 182653, Control_c, 0, 64, 98
1, 182663, Note_off_c, 0, 79, 43
1, 182665, Note_off_c, 0, 63, 55
1, 182667, Note_off_c, 0, 72, 47
1, 182668, Control_c, 0, 64, 98
1, 182681, Note_off_c, 0, 84, 64
1, 182683, Control_c, 0, 64, 100
1, 182689, Note_on_c, 0, 86, 79
1, 182698, Control_c, 0, 64, 101
1, 182713, Control_c, 0, 64, 102
1, 182728, Control_c, 0, 64, 102
1, 182787, Control_c, 0, 64, 102
1, 182802, Control_c, 0, 64, 94
1, 182816, Control_c, 0, 64, 82
1, 182824, Note_on_c, 0, 79, 63
1, 182831, Control_c, 0, 64, 68
1, 182835, Note_on_c, 0, 67, 36
1, 182846, Note_on_c, 0, 74, 48
1, 182846, Control_c, 0, 64, 37
1, 182853, Note_on_c, 0, 70, 34
1, 182861, Control_c, 0, 64, 0
1, 182905, Note_off_c, 0, 86, 54
1, 182905, Control_c, 0, 64, 38
1, 182920, Control_c, 0, 64, 62
1, 182935, Control_c, 0, 64, 69
1, 182939, Note_off_c, 0, 70, 59
1, 182949, Control_c, 0, 64, 76
1, 182951, Note_off_c, 0, 67, 57
1, 182955, Note_off_c, 0, 74, 58
1, 182964, Control_c, 0, 64, 83
1, 182979, Control_c, 0, 64, 91
1, 183002, Control_c, 0, 64, 97
1, 183017, Control_c, 0, 64, 102
1, 183031, Control_c, 0, 64, 106
1, 183046, Control_c, 0, 64, 109
1, 183055, Note_on_c, 0, 74, 53
1, 183061, Control_c, 0, 64, 111
1, 183061, Note_off_c, 0, 79, 35
1, 183071, Note_on_c, 0, 70, 50
1, 183075, Control_c, 0, 64, 112
1, 183090, Control_c, 0, 64, 114
1, 183105, Control_c, 0, 64, 117
1, 183118, Poly_aftertouch_c, 0, 67, 127
1, 183120, Control_c, 0, 64, 122
1, 183124, Note_off_c, 0, 74, 62
1, 183134, Note_off_c, 0, 70, 49
1, 183135, Control_c, 0, 64, 127
1, 183142, Poly_aftertouch_c, 0, 67, 0
1, 183148, Note_on_c, 0, 82, 78
1, 183152, Poly_aftertouch_c, 0, 79, 127
1, 183166, Poly_aftertouch_c, 0, 67, 0
1, 183201, Poly_aftertouch_c, 0, 79, 0
1, 183223, Control_c, 0, 64, 122
1, 183238, Control_c, 0, 64, 102
1, 183253, Control_c, 0, 64, 84
1, 183258, Note_on_c, 0, 81, 75
1, 183259, Note_on_c, 0, 67, 34
1, 183261, Note_on_c, 0, 72, 48
1, 183269, Control_c, 0, 64, 69
1, 183275, Note_on_c, 0, 75, 48
1, 183284, Control_c, 0, 64, 34
1, 183298, Control_c, 0, 64, 0
1, 183313, Control_c, 0, 64, 23
1, 183328, Control_c, 0, 64, 57
1, 183329, Note_off_c, 0, 82, 61
1, 183343, Control_c, 0, 64, 65
1, 183345, Note_off_c, 0, 75, 58
1, 183358, Control_c, 0, 64, 71
1, 183361, Note_off_c, 0, 72, 58
1, 183372, Control_c, 0, 64, 79
1, 183381, Note_off_c, 0, 67, 45
1, 183387, Control_c, 0, 64, 88
1, 183402, Control_c, 0, 64, 93
1, 183416, Control_c, 0, 64, 96
1, 183431, Control_c, 0, 64, 98
1, 183446, Control_c, 0, 64, 98
1, 183461, Control_c, 0, 64, 99
1, 183473, Note_on_c, 0, 75, 54
1, 183482, Note_on_c, 0, 67, 38
1, 183486, Note_on_c, 0, 72, 50
1, 183553, Note_off_c, 0, 72, 40
1, 183563, Note_on_c, 0, 82, 82
1, 183565, Note_off_c, 0, 75, 51
1, 183599, Note_off_c, 0, 67, 26
1, 183600, Note_off_c, 0, 81, 64
1, 183610, Control_c, 0, 64, 98
1, 183624, Control_c, 0, 64, 93
1, 183639, Control_c, 0, 64, 82
1, 183654, Control_c, 0, 64, 66
1, 183669, Control_c, 0, 64, 0
1, 183674, Note_on_c, 0, 79, 73
1, 183683, Note_on_c, 0, 74, 56
1, 183684, Note_on_c, 0, 67, 22
1, 183687, Note_on_c, 0, 70, 49
1, 183714, Note_off_c, 0, 82, 63
1, 183728, Control_c, 0, 64, 54
1, 183750, Control_c, 0, 64, 64
1, 183765, Control_c, 0, 64, 71
1, 183780, Control_c, 0, 64, 79
1, 183781, Note_off_c, 0, 70, 41
1, 183785, Note_off_c, 0, 74, 54
1, 183795, Control_c, 0, 64, 86
1, 183810, Control_c, 0, 64, 92
1, 183824, Control_c, 0, 64, 94
1, 183839, Control_c, 0, 64, 95
1, 183854, Control_c, 0, 64, 96
1, 183869, Control_c, 0, 64, 97
1, 183877, Note_off_c, 0, 67, 0
1, 183902, Note_on_c, 0, 70, 49
1, 183903, Note_on_c, 0, 74, 51
1, 183914, Poly_aftertouch_c, 0, 67, 127
1, 183914, Control_c, 0, 64, 97
1, 183928, Note_off_c, 0, 70, 58
1, 183929, Control_c, 0, 64, 98
1, 183944, Control_c, 0, 64, 99
1, 183949, Note_off_c, 0, 74, 52
1, 183959, Control_c, 0, 64, 100
1, 183959, Poly_aftertouch_c, 0, 67, 0
1, 183973, Control_c, 0, 64, 101
1, 183994, Note_on_c, 0, 82, 73
1, 184003, Control_c, 0, 64, 101
1, 184017, Control_c, 0, 64, 102
1, 184040, Note_off_c, 0, 79, 61
1, 184062, Control_c, 0, 64, 102
1, 184093, Control_c, 0, 64, 103
1, 184137, Control_c, 0, 64, 102
1, 184167, Control_c, 0, 64, 101
1, 184176, Note_on_c, 0, 84, 65
1, 184182, Control_c, 0, 64, 95
1, 184196, Control_c, 0, 64, 82
1, 184211, Control_c, 0, 64, 69
1, 184221, Note_on_c, 0, 63, 23
1, 184222, Note_on_c, 0, 72, 29
1, 184226, Note_on_c, 0, 79, 48
1, 184226, Control_c, 0, 64, 27
1, 184232, Note_on_c, 0, 67, 23
1, 184240, Control_c, 0, 64, 0
1, 184245, Note_off_c, 0, 82, 48
1, 184270, Control_c, 0, 64, 40
1, 184285, Control_c, 0, 64, 59
1, 184300, Control_c, 0, 64, 65
1, 184314, Control_c, 0, 64, 70
1, 184322, Note_off_c, 0, 79, 50
1, 184329, Control_c, 0, 64, 77
1, 184344, Control_c, 0, 64, 83
1, 184359, Control_c, 0, 64, 88
1, 184374, Control_c, 0, 64, 92
1, 184380, Note_off_c, 0, 67, 38
1, 184385, Note_off_c, 0, 72, 42
1, 184389, Control_c, 0, 64, 94
1, 184403, Control_c, 0, 64, 95
1, 184418, Control_c, 0, 64, 96
1, 184419, Note_off_c, 0, 63, 0
1, 184433, Control_c, 0, 64, 97
1, 184443, Note_on_c, 0, 63, 6
1, 184448, Control_c, 0, 64, 97
1, 184451, Note_on_c, 0, 79, 48
1, 184456, Note_on_c, 0, 72, 30
1, 184480, Poly_aftertouch_c, 0, 67, 127
1, 184500, Control_c, 0, 64, 98
1, 184529, Note_off_c, 0, 63, 43
1, 184536, Poly_aftertouch_c, 0, 67, 0
1, 184576, Note_on_c, 0, 82, 66
1, 184580, Note_off_c, 0, 79, 37
1, 184603, Note_off_c, 0, 72, 38
1, 184611, Note_off_c, 0, 84, 51
1, 184767, Control_c, 0, 64, 95
1, 184781, Control_c, 0, 64, 87
1, 184782, Note_on_c, 0, 79, 59
1, 184796, Control_c, 0, 64, 72
1, 184804, Note_on_c, 0, 70, 30
1, 184804, Note_on_c, 0, 74, 35
1, 184808, Note_off_c, 0, 82, 62
1, 184811, Control_c, 0, 64, 53
1, 184826, Control_c, 0, 64, 0
1, 184827, Note_on_c, 0, 67, 17
1, 184871, Control_c, 0, 64, 52
1, 184886, Control_c, 0, 64, 64
1, 184901, Control_c, 0, 64, 73
1, 184916, Control_c, 0, 64, 83
1, 184930, Control_c, 0, 64, 101
1, 184933, Note_off_c, 0, 74, 55
1, 184943, Note_off_c, 0, 67, 46
1, 184945, Control_c, 0, 64, 127
1, 184972, Note_off_c, 0, 70, 35
1, 185004, Note_off_c, 0, 79, 0
1, 185041, Poly_aftertouch_c, 0, 79, 127
1, 185064, Note_on_c, 0, 67, 32
1, 185064, Note_on_c, 0, 70, 36
1, 185064, Note_on_c, 0, 74, 37
1, 185072, Poly_aftertouch_c, 0, 79, 0
1, 185092, Note_off_c, 0, 74, 59
1, 185095, Note_off_c, 0, 70, 63
1, 185106, Note_off_c, 0, 67, 49
1, 185268, Note_on_c, 0, 79, 58
1, 185282, Note_on_c, 0, 74, 39
1, 185291, Note_on_c, 0, 70, 44
1, 185311, Note_on_c, 0, 67, 35
1, 185350, Note_off_c, 0, 67, 53
1, 185354, Note_off_c, 0, 70, 57
1, 185374, Note_off_c, 0, 74, 58
1, 185496, Note_on_c, 0, 74, 55
1, 185513, Note_on_c, 0, 70, 36
1, 185525, Note_on_c, 0, 67, 24
1, 185542, Note_off_c, 0, 74, 53
1, 185545, Note_off_c, 0, 70, 51
1, 185572, Note_off_c, 0, 67, 45
1, 185700, Note_on_c, 0, 98, 62
1, 185705, Note_on_c, 0, 91, 57
1, 185717, Note_on_c, 0, 74, 51
1, 185727, Note_on_c, 0, 70, 40
1, 185727, Note_off_c, 0, 91, 65
1, 185728, Note_off_c, 0, 98, 69
1, 185758, Poly_aftertouch_c, 0, 67, 127
1, 185771, Note_off_c, 0, 70, 46
1, 185771, Note_off_c, 0, 74, 53
1, 185803, Poly_aftertouch_c, 0, 67, 0
1, 185936, Note_on_c, 0, 70, 45
1, 185938, Note_on_c, 0, 67, 25
1, 185950, Note_on_c, 0, 74, 31
1, 185959, Note_off_c, 0, 70, 59
1, 185975, Note_off_c, 0, 67, 49
1, 185992, Note_off_c, 0, 74, 55
1, 185994, Note_off_c, 0, 79, 62
1, 186145, Control_c, 0, 64, 104
1, 186160, Control_c, 0, 64, 82
1, 186173, Note_on_c, 0, 82, 73
1, 186174, Control_c, 0, 64, 68
1, 186189, Note_on_c, 0, 75, 56
1, 186189, Control_c, 0, 64, 62
1, 186192, Note_on_c, 0, 67, 43
1, 186194, Note_on_c, 0, 70, 47
1, 186204, Control_c, 0, 64, 63
1, 186218, Control_c, 0, 64, 65
1, 186233, Control_c, 0, 64, 70
1, 186248, Control_c, 0, 64, 75
1, 186263, Control_c, 0, 64, 83
1, 186278, Control_c, 0, 64, 94
1, 186278, Control_c, 0, 67, 126
1, 186293, Control_c, 0, 64, 106
1, 186293, Control_c, 0, 67, 123
1, 186302, Note_off_c, 0, 70, 51
1, 186308, Note_off_c, 0, 75, 36
1, 186308, Control_c, 0, 64, 116
1, 186308, Control_c, 0, 67, 120
1, 186323, Control_c, 0, 64, 124
1, 186323, Control_c, 0, 67, 118
1, 186332, Note_off_c, 0, 67, 37
1, 186337, Control_c, 0, 64, 126
1, 186337, Control_c, 0, 67, 116
1, 186352, Control_c, 0, 67, 114
1, 186367, Control_c, 0, 67, 110
1, 186382, Control_c, 0, 67, 106
1, 186397, Control_c, 0, 67, 104
1, 186412, Control_c, 0, 67, 102
1, 186414, Note_off_c, 0, 82, 61
1, 186426, Control_c, 0, 67, 100
1, 186430, Note_on_c, 0, 84, 79
1, 186441, Control_c, 0, 67, 97
1, 186442, Note_on_c, 0, 70, 43
1, 186456, Control_c, 0, 67, 96
1, 186457, Note_on_c, 0, 75, 48
1, 186471, Note_on_c, 0, 67, 34
1, 186472, Control_c, 0, 67, 94
1, 186484, Note_off_c, 0, 75, 57
1, 186487, Control_c, 0, 67, 93
1, 186501, Control_c, 0, 67, 92
1, 186516, Control_c, 0, 67, 91
1, 186546, Control_c, 0, 67, 92
1, 186551, Note_off_c, 0, 70, 31
1, 186552, Note_off_c, 0, 67, 33
1, 186561, Control_c, 0, 67, 94
1, 186576, Control_c, 0, 67, 95
1, 186590, Control_c, 0, 67, 96
1, 186605, Control_c, 0, 67, 97
1, 186620, Control_c, 0, 67, 98
1, 186634, Control_c, 0, 67, 99
1, 186649, Control_c, 0, 67, 100
1, 186664, Control_c, 0, 67, 101
1, 186679, Control_c, 0, 67, 101
1, 186694, Control_c, 0, 67, 102
1, 186708, Control_c, 0, 67, 102
1, 186746, Control_c, 0, 67, 103
1, 186752, Note_off_c, 0, 84, 65
1, 186761, Control_c, 0, 64, 116
1, 186761, Control_c, 0, 67, 104
1, 186763, Note_on_c, 0, 86, 77
1, 186776, Control_c, 0, 64, 100
1, 186776, Control_c, 0, 67, 105
1, 186790, Control_c, 0, 64, 83
1, 186790, Control_c, 0, 67, 106
1, 186800, Note_on_c, 0, 79, 50
1, 186800, Note_on_c, 0, 82, 52
1, 186804, Note_on_c, 0, 67, 32
1, 186804, Note_on_c, 0, 70, 39
1, 186805, Control_c, 0, 64, 66
1, 186805, Control_c, 0, 67, 108
1, 186807, Note_on_c, 0, 74, 40
1, 186820, Control_c, 0, 64, 23
1, 186820, Control_c, 0, 67, 109
1, 186835, Control_c, 0, 64, 0
1, 186835, Control_c, 0, 67, 111
1, 186849, Control_c, 0, 64, 46
1, 186849, Control_c, 0, 67, 111
1, 186864, Control_c, 0, 64, 63
1, 186864, Control_c, 0, 67, 113
1, 186879, Control_c, 0, 64, 68
1, 186879, Control_c, 0, 67, 114
1, 186894, Control_c, 0, 64, 77
1, 186894, Control_c, 0, 67, 115
1, 186909, Control_c, 0, 64, 86
1, 186909, Control_c, 0, 67, 116
1, 186923, Control_c, 0, 64, 94
1, 186923, Control_c, 0, 67, 118
1, 186938, Control_c, 0, 64, 100
1, 186938, Control_c, 0, 67, 119
1, 186953, Control_c, 0, 64, 103
1, 186953, Control_c, 0, 67, 121
1, 186968, Control_c, 0, 64, 104
1, 186968, Control_c, 0, 67, 123
1, 186972, Note_off_c, 0, 82, 37
1, 186978, Note_off_c, 0, 79, 43
1, 186983, Control_c, 0, 67, 125
1, 186997, Control_c, 0, 64, 104
1, 186997, Control_c, 0, 67, 127
1, 187001, Note_off_c, 0, 70, 32
1, 187012, Control_c, 0, 67, 127
1, 187013, Note_off_c, 0, 74, 32
1, 187040, Note_off_c, 0, 67, 27
1, 187041, Control_c, 0, 64, 106
1, 187056, Control_c, 0, 64, 107
1, 187071, Control_c, 0, 64, 109
1, 187086, Control_c, 0, 64, 109
1, 187170, Note_on_c, 0, 67, 22
1, 187180, Note_on_c, 0, 74, 39
1, 187181, Note_on_c, 0, 70, 31
1, 187186, Note_on_c, 0, 82, 47
1, 187190, Control_c, 0, 64, 110
1, 187196, Note_on_c, 0, 79, 40
1, 187270, Note_off_c, 0, 70, 37
1, 187272, Note_off_c, 0, 79, 40
1, 187285, Note_off_c, 0, 74, 35
1, 187298, Note_off_c, 0, 67, 40
1, 187300, Note_off_c, 0, 82, 44
1, 187306, Note_off_c, 0, 86, 52
1, 187440, Note_on_c, 0, 86, 60
1, 187452, Note_on_c, 0, 74, 39
1, 187458, Note_on_c, 0, 67, 28
1, 187459, Note_on_c, 0, 82, 49
1, 187462, Note_on_c, 0, 79, 47
1, 187467, Note_on_c, 0, 70, 27
1, 187497, Note_off_c, 0, 86, 0
1, 187497, Note_on_c, 0, 86, 21
1, 187509, Note_off_c, 0, 82, 47
1, 187518, Note_off_c, 0, 79, 44
1, 187522, Note_off_c, 0, 70, 46
1, 187539, Note_off_c, 0, 67, 39
1, 187553, Note_off_c, 0, 74, 37
1, 187658, Control_c, 0, 64, 110
1, 187689, Note_on_c, 0, 67, 35
1, 187691, Note_on_c, 0, 74, 37
1, 187693, Note_on_c, 0, 70, 30
1, 187698, Note_on_c, 0, 82, 45
1, 187709, Note_on_c, 0, 79, 32
1, 187735, Note_off_c, 0, 70, 48
1, 187737, Note_off_c, 0, 82, 48
1, 187738, Note_off_c, 0, 67, 44
1, 187746, Note_off_c, 0, 79, 51
1, 187748, Note_off_c, 0, 74, 45
1, 187907, Note_on_c, 0, 74, 36
1, 187908, Note_on_c, 0, 70, 40
1, 187914, Note_on_c, 0, 79, 31
1, 187916, Note_on_c, 0, 82, 40
1, 187917, Note_on_c, 0, 67, 30
1, 187955, Note_off_c, 0, 82, 49
1, 187959, Note_off_c, 0, 70, 59
1, 187972, Note_off_c, 0, 79, 43
1, 187974, Note_off_c, 0, 67, 43
1, 187988, Note_off_c, 0, 74, 41
1, 188120, Note_on_c, 0, 82, 51
1, 188123, Note_on_c, 0, 74, 36
1, 188132, Note_on_c, 0, 67, 5
1, 188147, Note_on_c, 0, 79, 6
1, 188148, Control_c, 0, 64, 111
1, 188151, Note_off_c, 0, 82, 53
1, 188159, Poly_aftertouch_c, 0, 70, 127
1, 188162, Note_off_c, 0, 67, 0
1, 188162, Control_c, 0, 64, 112
1, 188177, Control_c, 0, 64, 112
1, 188183, Poly_aftertouch_c, 0, 67, 0
1, 188191, Poly_aftertouch_c, 0, 70, 0
1, 188192, Control_c, 0, 64, 114
1, 188207, Control_c, 0, 64, 114
1, 188209, Note_off_c, 0, 79, 49
1, 188212, Note_off_c, 0, 74, 39
1, 188221, Control_c, 0, 64, 115
1, 188244, Control_c, 0, 64, 116
1, 188348, Control_c, 0, 64, 115
1, 188362, Control_c, 0, 64, 113
1, 188377, Control_c, 0, 64, 101
1, 188392, Control_c, 0, 64, 86
1, 188407, Control_c, 0, 64, 71
1, 188417, Note_on_c, 0, 84, 50
1, 188421, Control_c, 0, 64, 52
1, 188427, Note_on_c, 0, 63, 29
1, 188427, Note_on_c, 0, 67, 8
1, 188432, Note_on_c, 0, 72, 34
1, 188433, Note_on_c, 0, 79, 32
1, 188436, Control_c, 0, 64, 32
1, 188451, Control_c, 0, 64, 39
1, 188453, Note_off_c, 0, 86, 47
1, 188466, Control_c, 0, 64, 56
1, 188481, Control_c, 0, 64, 63
1, 188496, Control_c, 0, 64, 67
1, 188511, Control_c, 0, 64, 72
1, 188514, Note_off_c, 0, 84, 62
1, 188525, Control_c, 0, 64, 77
1, 188531, Note_on_c, 0, 86, 58
1, 188534, Note_off_c, 0, 67, 43
1, 188535, Note_off_c, 0, 63, 37
1, 188535, Note_off_c, 0, 72, 38
1, 188540, Control_c, 0, 64, 83
1, 188555, Control_c, 0, 64, 87
1, 188570, Control_c, 0, 64, 89
1, 188585, Control_c, 0, 64, 91
1, 188600, Control_c, 0, 64, 92
1, 188600, Note_off_c, 0, 79, 0
1, 188603, Note_off_c, 0, 86, 63
1, 188614, Control_c, 0, 64, 93
1, 188619, Note_on_c, 0, 84, 64
1, 188621, Note_on_c, 0, 63, 28
1, 188629, Control_c, 0, 64, 94
1, 188633, Note_on_c, 0, 72, 38
1, 188637, Poly_aftertouch_c, 0, 79, 127
1, 188641, Note_on_c, 0, 67, 18
1, 188644, Control_c, 0, 64, 94
1, 188659, Control_c, 0, 64, 95
1, 188667, Note_off_c, 0, 63, 48
1, 188674, Control_c, 0, 64, 96
1, 188683, Note_off_c, 0, 67, 41
1, 188688, Control_c, 0, 64, 96
1, 188690, Note_off_c, 0, 72, 56
1, 188697, Note_off_c, 0, 84, 62
1, 188703, Control_c, 0, 64, 97
1, 188705, Poly_aftertouch_c, 0, 79, 0
1, 188718, Note_on_c, 0, 91, 65
1, 188718, Control_c, 0, 64, 98
1, 188748, Control_c, 0, 64, 99
1, 188806, Control_c, 0, 64, 98
1, 188821, Control_c, 0, 64, 93
1, 188836, Control_c, 0, 64, 83
1, 188844, Note_on_c, 0, 86, 70
1, 188852, Control_c, 0, 64, 70
1, 188858, Note_on_c, 0, 70, 33
1, 188866, Note_on_c, 0, 74, 41
1, 188867, Control_c, 0, 64, 50
1, 188882, Control_c, 0, 64, 0
1, 188883, Note_on_c, 0, 67, 26
1, 188891, Note_on_c, 0, 82, 48
1, 188892, Note_off_c, 0, 91, 40
1, 188907, Note_on_c, 0, 79, 10
1, 188926, Control_c, 0, 64, 29
1, 188941, Control_c, 0, 64, 63
1, 188952, Note_off_c, 0, 82, 55
1, 188956, Control_c, 0, 64, 70
1, 188971, Control_c, 0, 64, 79
1, 188978, Note_off_c, 0, 79, 45
1, 188990, Note_off_c, 0, 70, 53
1, 188993, Control_c, 0, 64, 93
1, 188993, Note_off_c, 0, 74, 51
1, 189008, Control_c, 0, 64, 103
1, 189011, Note_off_c, 0, 67, 36
1, 189023, Control_c, 0, 64, 112
1, 189037, Control_c, 0, 64, 121
1, 189052, Control_c, 0, 64, 127
1, 189135, Note_on_c, 0, 70, 42
1, 189140, Note_on_c, 0, 74, 41
1, 189140, Note_on_c, 0, 67, 32
1, 189143, Note_on_c, 0, 79, 34
1, 189143, Note_on_c, 0, 82, 45
1, 189181, Note_off_c, 0, 70, 52
1, 189185, Note_off_c, 0, 86, 63
1, 189189, Note_off_c, 0, 67, 45
1, 189190, Note_off_c, 0, 82, 46
1, 189190, Note_off_c, 0, 74, 50
1, 189197, Note_off_c, 0, 79, 44
1, 189318, Control_c, 0, 67, 127
1, 189328, Note_on_c, 0, 86, 64
1, 189333, Note_on_c, 0, 74, 48
1, 189339, Note_on_c, 0, 70, 42
1, 189342, Note_on_c, 0, 67, 39
1, 189354, Note_on_c, 0, 79, 42
1, 189355, Note_on_c, 0, 82, 49
1, 189363, Control_c, 0, 67, 126
1, 189381, Note_off_c, 0, 82, 56
1, 189392, Note_off_c, 0, 79, 48
1, 189393, Note_off_c, 0, 67, 55
1, 189395, Note_off_c, 0, 70, 52
1, 189408, Control_c, 0, 67, 127
1, 189414, Note_off_c, 0, 74, 50
1, 189437, Control_c, 0, 67, 127
1, 189536, Note_on_c, 0, 67, 41
1, 189536, Note_on_c, 0, 70, 43
1, 189548, Note_on_c, 0, 82, 43
1, 189551, Note_on_c, 0, 74, 48
1, 189559, Note_on_c, 0, 79, 29
1, 189587, Note_off_c, 0, 82, 48
1, 189589, Note_off_c, 0, 67, 54
1, 189590, Note_off_c, 0, 70, 55
1, 189598, Note_off_c, 0, 74, 58
1, 189598, Note_off_c, 0, 79, 51
1, 189755, Note_on_c, 0, 74, 43
1, 189757, Note_on_c, 0, 70, 43
1, 189760, Note_on_c, 0, 82, 56
1, 189761, Note_on_c, 0, 67, 41
1, 189766, Note_on_c, 0, 79, 41
1, 189792, Note_off_c, 0, 82, 59
1, 189799, Note_off_c, 0, 67, 57
1, 189801, Note_off_c, 0, 79, 52
1, 189804, Note_off_c, 0, 70, 57
1, 189810, Note_off_c, 0, 74, 56
1, 189965, Note_on_c, 0, 74, 45
1, 189977, Note_on_c, 0, 82, 52
1, 189981, Note_on_c, 0, 70, 42
1, 189989, Note_on_c, 0, 79, 33
1, 190000, Note_off_c, 0, 82, 60
1, 190009, Note_off_c, 0, 74, 62
1, 190013, Note_off_c, 0, 70, 59
1, 190031, Note_off_c, 0, 79, 48
1, 190141, Control_c, 0, 64, 114
1, 190156, Control_c, 0, 64, 86
1, 190171, Control_c, 0, 64, 70
1, 190182, Note_on_c, 0, 84, 63
1, 190185, Control_c, 0, 64, 57
1, 190191, Note_off_c, 0, 86, 59
1, 190197, Note_on_c, 0, 67, 37
1, 190200, Control_c, 0, 64, 55
1, 190201, Note_on_c, 0, 72, 43
1, 190212, Note_on_c, 0, 63, 39
1, 190215, Control_c, 0, 64, 61
1, 190230, Control_c, 0, 64, 65
1, 190241, Note_on_c, 0, 79, 34
1, 190245, Control_c, 0, 64, 68
1, 190259, Control_c, 0, 64, 73
1, 190274, Control_c, 0, 64, 80
1, 190281, Note_off_c, 0, 84, 65
1, 190283, Note_off_c, 0, 67, 53
1, 190289, Note_off_c, 0, 63, 47
1, 190289, Control_c, 0, 64, 89
1, 190290, Note_on_c, 0, 86, 70
1, 190295, Note_off_c, 0, 72, 38
1, 190304, Control_c, 0, 64, 98
1, 190319, Control_c, 0, 64, 106
1, 190333, Control_c, 0, 64, 109
1, 190348, Control_c, 0, 64, 111
1, 190363, Control_c, 0, 64, 112
1, 190377, Control_c, 0, 64, 114
1, 190381, Note_on_c, 0, 84, 79
1, 190387, Note_off_c, 0, 86, 62
1, 190391, Note_on_c, 0, 63, 29
1, 190392, Control_c, 0, 64, 114
1, 190407, Control_c, 0, 64, 115
1, 190409, Note_on_c, 0, 72, 42
1, 190422, Control_c, 0, 64, 115
1, 190424, Note_off_c, 0, 63, 55
1, 190437, Control_c, 0, 64, 116
1, 190443, Note_off_c, 0, 72, 51
1, 190453, Control_c, 0, 64, 119
1, 190459, Note_off_c, 0, 79, 43
1, 190468, Control_c, 0, 64, 121
1, 190487, Poly_aftertouch_c, 0, 67, 0
1, 190489, Note_on_c, 0, 86, 83
1, 190490, Control_c, 0, 64, 122
1, 190493, Note_off_c, 0, 84, 65
1, 190594, Control_c, 0, 64, 121
1, 190608, Control_c, 0, 64, 117
1, 190624, Control_c, 0, 64, 103
1, 190639, Control_c, 0, 64, 87
1, 190640, Note_on_c, 0, 79, 70
1, 190654, Control_c, 0, 64, 71
1, 190657, Note_on_c, 0, 67, 26
1, 190659, Note_on_c, 0, 74, 42
1, 190666, Note_on_c, 0, 70, 35
1, 190669, Control_c, 0, 64, 47
1, 190683, Control_c, 0, 64, 0
1, 190743, Control_c, 0, 64, 56
1, 190752, Note_off_c, 0, 70, 61
1, 190757, Control_c, 0, 64, 67
1, 190759, Note_off_c, 0, 86, 57
1, 190766, Note_off_c, 0, 74, 57
1, 190772, Control_c, 0, 64, 75
1, 190776, Note_off_c, 0, 67, 53
1, 190787, Control_c, 0, 64, 87
1, 190802, Control_c, 0, 64, 98
1, 190816, Control_c, 0, 64, 106
1, 190816, Control_c, 0, 67, 125
1, 190831, Control_c, 0, 64, 112
1, 190831, Control_c, 0, 67, 122
1, 190846, Control_c, 0, 64, 117
1, 190846, Control_c, 0, 67, 118
1, 190861, Control_c, 0, 64, 126
1, 190861, Control_c, 0, 67, 113
1, 190863, Note_on_c, 0, 74, 56
1, 190876, Control_c, 0, 64, 127
1, 190876, Control_c, 0, 67, 109
1, 190887, Note_on_c, 0, 70, 41
1, 190890, Control_c, 0, 67, 106
1, 190892, Note_on_c, 0, 67, 26
1, 190905, Control_c, 0, 67, 105
1, 190920, Control_c, 0, 67, 104
1, 190927, Note_off_c, 0, 74, 57
1, 190935, Control_c, 0, 67, 103
1, 190940, Note_off_c, 0, 67, 44
1, 190943, Note_off_c, 0, 70, 43
1, 190950, Control_c, 0, 67, 102
1, 190959, Note_on_c, 0, 82, 80
1, 191009, Control_c, 0, 67, 103
1, 191019, Note_off_c, 0, 79, 44
1, 191053, Control_c, 0, 64, 126
1, 191068, Control_c, 0, 64, 93
1, 191077, Note_on_c, 0, 81, 75
1, 191082, Note_on_c, 0, 72, 52
1, 191083, Control_c, 0, 64, 72
1, 191098, Note_on_c, 0, 67, 40
1, 191098, Control_c, 0, 64, 52
1, 191098, Control_c, 0, 67, 102
1, 191105, Note_on_c, 0, 75, 43
1, 191113, Control_c, 0, 64, 0
1, 191113, Control_c, 0, 67, 102
1, 191128, Control_c, 0, 64, 11
1, 191128, Control_c, 0, 67, 101
1, 191143, Control_c, 0, 64, 49
1, 191143, Control_c, 0, 67, 100
1, 191157, Control_c, 0, 64, 62
1, 191157, Control_c, 0, 67, 97
1, 191167, Note_off_c, 0, 82, 59
1, 191172, Control_c, 0, 64, 68
1, 191172, Control_c, 0, 67, 95
1, 191180, Note_off_c, 0, 75, 59
1, 191187, Control_c, 0, 64, 75
1, 191187, Control_c, 0, 67, 94
1, 191193, Note_off_c, 0, 67, 53
1, 191197, Note_off_c, 0, 72, 57
1, 191202, Control_c, 0, 64, 83
1, 191202, Control_c, 0, 67, 93
1, 191216, Control_c, 0, 64, 91
1, 191216, Control_c, 0, 67, 92
1, 191238, Control_c, 0, 64, 96
1, 191253, Control_c, 0, 64, 99
1, 191269, Control_c, 0, 64, 101
1, 191284, Control_c, 0, 64, 103
1, 191284, Control_c, 0, 67, 92
1, 191299, Control_c, 0, 64, 104
1, 191299, Control_c, 0, 67, 93
1, 191313, Note_on_c, 0, 75, 52
1, 191313, Control_c, 0, 64, 107
1, 191313, Control_c, 0, 67, 94
1, 191316, Note_on_c, 0, 72, 43
1, 191322, Note_on_c, 0, 67, 32
1, 191328, Control_c, 0, 64, 108
1, 191328, Control_c, 0, 67, 96
1, 191343, Control_c, 0, 67, 98
1, 191358, Control_c, 0, 67, 99
1, 191371, Note_off_c, 0, 67, 46
1, 191373, Control_c, 0, 67, 100
1, 191387, Control_c, 0, 67, 101
1, 191391, Note_off_c, 0, 72, 39
1, 191401, Note_on_c, 0, 82, 79
1, 191402, Control_c, 0, 67, 101
1, 191405, Note_off_c, 0, 75, 47
1, 191417, Control_c, 0, 67, 103
1, 191429, Note_off_c, 0, 81, 61
1, 191432, Control_c, 0, 67, 104
1, 191447, Control_c, 0, 67, 105
1, 191462, Control_c, 0, 67, 107
1, 191477, Control_c, 0, 64, 108
1, 191477, Control_c, 0, 67, 109
1, 191491, Control_c, 0, 64, 101
1, 191491, Control_c, 0, 67, 111
1, 191506, Control_c, 0, 64, 88
1, 191506, Control_c, 0, 67, 113
1, 191521, Control_c, 0, 64, 73
1, 191521, Control_c, 0, 67, 115
1, 191528, Note_on_c, 0, 79, 73
1, 191533, Note_on_c, 0, 74, 48
1, 191535, Note_on_c, 0, 70, 42
1, 191536, Control_c, 0, 64, 53
1, 191536, Control_c, 0, 67, 117
1, 191537, Note_on_c, 0, 67, 34
1, 191551, Control_c, 0, 64, 0
1, 191551, Control_c, 0, 67, 119
1, 191566, Control_c, 0, 67, 121
1, 191580, Control_c, 0, 67, 122
1, 191595, Control_c, 0, 67, 123
1, 191609, Note_off_c, 0, 82, 62
1, 191610, Control_c, 0, 64, 47
1, 191610, Control_c, 0, 67, 125
1, 191625, Control_c, 0, 64, 65
1, 191625, Control_c, 0, 67, 126
1, 191639, Control_c, 0, 64, 73
1, 191639, Control_c, 0, 67, 127
1, 191654, Control_c, 0, 64, 84
1, 191655, Note_off_c, 0, 70, 55
1, 191664, Note_off_c, 0, 67, 49
1, 191668, Note_off_c, 0, 74, 52
1, 191669, Control_c, 0, 64, 93
1, 191684, Control_c, 0, 64, 99
1, 191699, Control_c, 0, 64, 101
1, 191713, Control_c, 0, 64, 102
1, 191728, Control_c, 0, 64, 103
1, 191760, Note_on_c, 0, 74, 47
1, 191761, Note_on_c, 0, 67, 36
1, 191761, Note_on_c, 0, 70, 53
1, 191794, Note_off_c, 0, 70, 65
1, 191801, Note_off_c, 0, 67, 49
1, 191802, Control_c, 0, 64, 103
1, 191813, Note_off_c, 0, 74, 57
1, 191817, Control_c, 0, 64, 104
1, 191831, Control_c, 0, 64, 105
1, 191864, Note_on_c, 0, 82, 77
1, 191876, Control_c, 0, 64, 105
1, 191902, Note_off_c, 0, 79, 59
1, 191906, Control_c, 0, 64, 106
1, 191921, Control_c, 0, 64, 106
1, 191936, Control_c, 0, 64, 107
1, 192046, Control_c, 0, 64, 106
1, 192061, Note_on_c, 0, 84, 61
1, 192062, Control_c, 0, 64, 101
1, 192077, Control_c, 0, 64, 90
1, 192092, Control_c, 0, 64, 75
1, 192107, Control_c, 0, 64, 61
1, 192111, Note_on_c, 0, 72, 35
1, 192114, Note_on_c, 0, 63, 31
1, 192118, Note_on_c, 0, 79, 43
1, 192122, Control_c, 0, 64, 0
1, 192126, Note_off_c, 0, 82, 62
1, 192132, Note_on_c, 0, 67, 25
1, 192166, Control_c, 0, 64, 21
1, 192180, Control_c, 0, 64, 57
1, 192195, Control_c, 0, 64, 65
1, 192210, Control_c, 0, 64, 74
1, 192225, Note_off_c, 0, 79, 44
1, 192225, Control_c, 0, 64, 82
1, 192240, Control_c, 0, 64, 90
1, 192255, Control_c, 0, 64, 96
1, 192258, Note_off_c, 0, 72, 37
1, 192261, Note_off_c, 0, 67, 40
1, 192269, Control_c, 0, 64, 99
1, 192284, Control_c, 0, 64, 101
1, 192299, Control_c, 0, 64, 102
1, 192327, Note_off_c, 0, 63, 0
1, 192344, Control_c, 0, 64, 102
1, 192359, Control_c, 0, 64, 103
1, 192359, Note_on_c, 0, 79, 47
1, 192365, Poly_aftertouch_c, 0, 63, 127
1, 192374, Control_c, 0, 64, 103
1, 192388, Control_c, 0, 64, 104
1, 192391, Note_on_c, 0, 72, 41
1, 192403, Control_c, 0, 64, 105
1, 192418, Control_c, 0, 64, 106
1, 192430, Poly_aftertouch_c, 0, 67, 127
1, 192433, Control_c, 0, 64, 106
1, 192448, Control_c, 0, 64, 107
1, 192453, Poly_aftertouch_c, 0, 63, 0
1, 192462, Control_c, 0, 64, 108
1, 192470, Poly_aftertouch_c, 0, 67, 0
1, 192471, Note_off_c, 0, 79, 36
1, 192474, Note_off_c, 0, 72, 54
1, 192477, Control_c, 0, 64, 109
1, 192490, Note_on_c, 0, 82, 63
1, 192492, Control_c, 0, 64, 111
1, 192507, Control_c, 0, 64, 112
1, 192523, Note_off_c, 0, 84, 54
1, 192536, Control_c, 0, 64, 113
1, 192566, Control_c, 0, 64, 113
1, 192699, Control_c, 0, 64, 113
1, 192714, Control_c, 0, 64, 112
1, 192730, Note_on_c, 0, 79, 55
1, 192736, Control_c, 0, 64, 103
1, 192747, Note_on_c, 0, 74, 41
1, 192749, Note_on_c, 0, 70, 37
1, 192751, Control_c, 0, 64, 90
1, 192766, Control_c, 0, 64, 75
1, 192768, Note_off_c, 0, 82, 61
1, 192781, Control_c, 0, 64, 62
1, 192795, Control_c, 0, 64, 0
1, 192808, Poly_aftertouch_c, 0, 67, 127
1, 192825, Control_c, 0, 64, 17
1, 192840, Control_c, 0, 64, 55
1, 192856, Control_c, 0, 64, 65
1, 192871, Control_c, 0, 64, 72
1, 192885, Control_c, 0, 64, 86
1, 192900, Control_c, 0, 64, 107
1, 192904, Note_off_c, 0, 74, 59
1, 192915, Control_c, 0, 64, 127
1, 192919, Note_off_c, 0, 70, 58
1, 192933, Poly_aftertouch_c, 0, 67, 0
1, 192991, Note_off_c, 0, 79, 43
1, 193013, Note_on_c, 0, 67, 43
1, 193032, Note_on_c, 0, 70, 35
1, 193033, Note_on_c, 0, 74, 40
1, 193062, Note_off_c, 0, 67, 51
1, 193068, Note_off_c, 0, 70, 60
1, 193072, Note_off_c, 0, 74, 56
1, 193213, Note_on_c, 0, 79, 59
1, 193228, Note_on_c, 0, 74, 48
1, 193247, Note_on_c, 0, 70, 52
1, 193260, Note_on_c, 0, 67, 40
1, 193313, Note_off_c, 0, 67, 42
1, 193317, Note_off_c, 0, 70, 47
1, 193321, Note_off_c, 0, 74, 57
1, 193456, Note_on_c, 0, 74, 54
1, 193460, Note_on_c, 0, 70, 46
1, 193486, Note_on_c, 0, 67, 28
1, 193502, Note_off_c, 0, 74, 59
1, 193507, Note_off_c, 0, 70, 56
1, 193534, Note_off_c, 0, 67, 45
1, 193673, Note_on_c, 0, 98, 75
1, 193687, Note_on_c, 0, 70, 51
1, 193687, Note_on_c, 0, 91, 57
1, 193688, Note_on_c, 0, 74, 56
1, 193702, Note_on_c, 0, 67, 29
1, 193710, Note_off_c, 0, 91, 62
1, 193719, Note_off_c, 0, 98, 63
1, 193736, Note_off_c, 0, 70, 51
1, 193738, Control_c, 0, 67, 127
1, 193753, Control_c, 0, 67, 125
1, 193759, Note_off_c, 0, 67, 44
1, 193762, Note_off_c, 0, 74, 50
1, 193768, Control_c, 0, 67, 122
1, 193782, Control_c, 0, 67, 119
1, 193797, Control_c, 0, 67, 116
1, 193812, Control_c, 0, 67, 113
1, 193826, Control_c, 0, 67, 111
1, 193841, Control_c, 0, 67, 110
1, 193856, Control_c, 0, 67, 109
1, 193871, Control_c, 0, 67, 108
1, 193886, Control_c, 0, 67, 108
1, 193900, Note_on_c, 0, 74, 55
1, 193900, Control_c, 0, 67, 107
1, 193915, Control_c, 0, 67, 107
1, 193918, Note_on_c, 0, 70, 43
1, 193920, Note_on_c, 0, 67, 27
1, 193930, Control_c, 0, 67, 106
1, 193931, Note_off_c, 0, 74, 67
1, 193942, Note_off_c, 0, 70, 59
1, 193945, Control_c, 0, 67, 106
1, 193957, Note_off_c, 0, 67, 49
1, 193975, Note_off_c, 0, 79, 63
1, 194004, Control_c, 0, 67, 106
1, 194019, Control_c, 0, 67, 107
1, 194034, Control_c, 0, 67, 108
1, 194049, Control_c, 0, 67, 108
1, 194064, Control_c, 0, 67, 109
1, 194079, Control_c, 0, 67, 109
1, 194094, Control_c, 0, 67, 110
1, 194108, Control_c, 0, 67, 110
1, 194123, Control_c, 0, 64, 100
1, 194138, Control_c, 0, 64, 79
1, 194147, Note_on_c, 0, 82, 70
1, 194152, Control_c, 0, 64, 65
1, 194167, Control_c, 0, 64, 56
1, 194171, Note_on_c, 0, 70, 39
1, 194179, Note_on_c, 0, 75, 44
1, 194182, Control_c, 0, 64, 59
1, 194182, Control_c, 0, 67, 110
1, 194197, Control_c, 0, 64, 64
1, 194197, Control_c, 0, 67, 109
1, 194212, Control_c, 0, 64, 68
1, 194212, Control_c, 0, 67, 109
1, 194231, Note_on_c, 0, 67, 5
1, 194234, Control_c, 0, 64, 73
1, 194234, Control_c, 0, 67, 107
1, 194249, Control_c, 0, 64, 80
1, 194249, Control_c, 0, 67, 106
1, 194264, Control_c, 0, 64, 89
1, 194264, Control_c, 0, 67, 104
1, 194273, Note_off_c, 0, 75, 47
1, 194279, Control_c, 0, 64, 97
1, 194279, Control_c, 0, 67, 100
1, 194294, Control_c, 0, 64, 103
1, 194294, Control_c, 0, 67, 93
1, 194304, Note_off_c, 0, 70, 58
1, 194308, Control_c, 0, 64, 106
1, 194308, Control_c, 0, 67, 88
1, 194323, Control_c, 0, 64, 109
1, 194323, Control_c, 0, 67, 86
1, 194338, Control_c, 0, 64, 113
1, 194352, Control_c, 0, 64, 118
1, 194352, Control_c, 0, 67, 87
1, 194356, Note_off_c, 0, 67, 37
1, 194367, Control_c, 0, 64, 124
1, 194367, Control_c, 0, 67, 88
1, 194382, Control_c, 0, 64, 127
1, 194397, Control_c, 0, 67, 89
1, 194405, Note_on_c, 0, 84, 78
1, 194412, Control_c, 0, 67, 90
1, 194424, Note_on_c, 0, 75, 50
1, 194425, Note_off_c, 0, 82, 49
1, 194426, Control_c, 0, 67, 93
1, 194430, Note_on_c, 0, 70, 46
1, 194434, Note_on_c, 0, 67, 33
1, 194441, Control_c, 0, 67, 94
1, 194450, Note_off_c, 0, 75, 58
1, 194457, Control_c, 0, 67, 95
1, 194472, Control_c, 0, 67, 96
1, 194484, Note_off_c, 0, 70, 54
1, 194487, Control_c, 0, 67, 97
1, 194497, Note_off_c, 0, 67, 52
1, 194502, Control_c, 0, 67, 99
1, 194517, Control_c, 0, 67, 101
1, 194531, Control_c, 0, 67, 102
1, 194546, Control_c, 0, 67, 105
1, 194561, Control_c, 0, 67, 107
1, 194575, Control_c, 0, 67, 110
1, 194590, Control_c, 0, 67, 113
1, 194605, Control_c, 0, 67, 117
1, 194620, Control_c, 0, 67, 119
1, 194635, Control_c, 0, 67, 122
1, 194649, Control_c, 0, 67, 124
1, 194664, Control_c, 0, 67, 125
1, 194679, Control_c, 0, 67, 126
1, 194694, Control_c, 0, 67, 127
1, 194709, Control_c, 0, 67, 127
1, 194797, Control_c, 0, 64, 112
1, 194809, Note_on_c, 0, 86, 65
1, 194812, Control_c, 0, 64, 98
1, 194822, Note_on_c, 0, 66, 36
1, 194827, Control_c, 0, 64, 84
1, 194830, Note_off_c, 0, 84, 55
1, 194831, Note_on_c, 0, 70, 38
1, 194842, Control_c, 0, 64, 70
1, 194845, Note_on_c, 0, 82, 43
1, 194849, Note_on_c, 0, 76, 32
1, 194851, Note_on_c, 0, 74, 34
1, 194857, Control_c, 0, 64, 43
1, 194872, Control_c, 0, 64, 0
1, 194931, Control_c, 0, 64, 50
1, 194946, Control_c, 0, 64, 66
1, 194961, Control_c, 0, 64, 75
1, 194982, Control_c, 0, 64, 89
1, 194997, Control_c, 0, 64, 107
1, 195012, Control_c, 0, 64, 127
1, 195069, Note_off_c, 0, 70, 51
1, 195081, Note_off_c, 0, 82, 55
1, 195095, Note_off_c, 0, 66, 43
1, 195105, Note_off_c, 0, 76, 42
1, 195116, Note_off_c, 0, 74, 46
1, 195224, Note_on_c, 0, 66, 36
1, 195226, Note_on_c, 0, 82, 46
1, 195227, Note_on_c, 0, 74, 40
1, 195228, Note_on_c, 0, 70, 26
1, 195229, Note_on_c, 0, 76, 45
1, 195322, Note_off_c, 0, 70, 38
1, 195346, Note_off_c, 0, 76, 36
1, 195348, Note_off_c, 0, 66, 35
1, 195349, Note_off_c, 0, 86, 59
1, 195358, Note_off_c, 0, 74, 44
1, 195360, Note_off_c, 0, 82, 36
1, 195456, Note_on_c, 0, 86, 70
1, 195473, Note_on_c, 0, 74, 49
1, 195474, Note_on_c, 0, 82, 53
1, 195476, Note_on_c, 0, 70, 28
1, 195477, Note_on_c, 0, 66, 38
1, 195479, Note_on_c, 0, 76, 42
1, 195516, Note_off_c, 0, 82, 60
1, 195527, Note_off_c, 0, 74, 56
1, 195543, Note_off_c, 0, 76, 50
1, 195547, Note_off_c, 0, 70, 44
1, 195572, Note_off_c, 0, 66, 37
1, 195682, Note_on_c, 0, 66, 38
1, 195684, Note_on_c, 0, 70, 37
1, 195689, Note_on_c, 0, 76, 46
1, 195694, Note_on_c, 0, 82, 53
1, 195711, Note_on_c, 0, 74, 40
1, 195731, Note_off_c, 0, 82, 58
1, 195733, Note_off_c, 0, 66, 47
1, 195739, Note_off_c, 0, 70, 60
1, 195748, Note_off_c, 0, 74, 56
1, 195749, Note_off_c, 0, 76, 55
1, 195878, Control_c, 0, 64, 98
1, 195893, Control_c, 0, 64, 76
1, 195908, Control_c, 0, 64, 62
1, 195909, Note_on_c, 0, 77, 44
1, 195914, Note_on_c, 0, 65, 48
1, 195915, Note_on_c, 0, 70, 43
1, 195920, Note_on_c, 0, 82, 54
1, 195921, Note_on_c, 0, 74, 31
1, 195922, Control_c, 0, 64, 60
1, 195937, Control_c, 0, 64, 65
1, 195952, Control_c, 0, 64, 69
1, 195967, Control_c, 0, 64, 76
1, 195982, Control_c, 0, 64, 85
1, 195990, Note_off_c, 0, 82, 54
1, 195996, Control_c, 0, 64, 100
1, 196003, Note_off_c, 0, 70, 59
1, 196005, Note_off_c, 0, 77, 53
1, 196005, Note_off_c, 0, 65, 56
1, 196005, Note_off_c, 0, 74, 41
1, 196011, Control_c, 0, 64, 116
1, 196026, Control_c, 0, 64, 127
1, 196125, Note_on_c, 0, 82, 51
1, 196126, Note_on_c, 0, 70, 50
1, 196127, Note_on_c, 0, 77, 52
1, 196141, Note_on_c, 0, 65, 48
1, 196151, Note_off_c, 0, 82, 60
1, 196154, Note_on_c, 0, 74, 49
1, 196154, Note_off_c, 0, 70, 61
1, 196155, Note_off_c, 0, 86, 56
1, 196171, Note_off_c, 0, 65, 60
1, 196187, Note_off_c, 0, 77, 54
1, 196216, Note_off_c, 0, 74, 55
1, 196338, Control_c, 0, 64, 91
1, 196353, Control_c, 0, 64, 73
1, 196354, Note_on_c, 0, 79, 61
1, 196359, Note_on_c, 0, 67, 43
1, 196368, Control_c, 0, 64, 64
1, 196371, Note_on_c, 0, 64, 39
1, 196374, Note_on_c, 0, 72, 51
1, 196383, Control_c, 0, 64, 65
1, 196398, Control_c, 0, 64, 68
1, 196413, Control_c, 0, 64, 73
1, 196427, Control_c, 0, 64, 78
1, 196442, Control_c, 0, 64, 85
1, 196443, Note_off_c, 0, 72, 55
1, 196446, Note_off_c, 0, 67, 58
1, 196452, Note_on_c, 0, 81, 67
1, 196454, Note_off_c, 0, 79, 57
1, 196457, Control_c, 0, 64, 90
1, 196463, Note_off_c, 0, 64, 57
1, 196479, Control_c, 0, 64, 93
1, 196494, Control_c, 0, 64, 94
1, 196546, Note_off_c, 0, 81, 63
1, 196553, Control_c, 0, 64, 95
1, 196568, Note_on_c, 0, 79, 69
1, 196568, Control_c, 0, 64, 95
1, 196577, Note_on_c, 0, 64, 27
1, 196577, Note_on_c, 0, 72, 38
1, 196580, Note_on_c, 0, 67, 43
1, 196583, Control_c, 0, 64, 96
1, 196598, Control_c, 0, 64, 98
1, 196607, Note_off_c, 0, 72, 55
1, 196613, Control_c, 0, 64, 99
1, 196616, Note_off_c, 0, 67, 50
1, 196617, Note_off_c, 0, 64, 52
1, 196628, Control_c, 0, 64, 100
1, 196642, Control_c, 0, 64, 100
1, 196650, Note_on_c, 0, 81, 79
1, 196657, Control_c, 0, 64, 101
1, 196659, Note_off_c, 0, 79, 57
1, 196672, Control_c, 0, 64, 103
1, 196687, Control_c, 0, 64, 104
1, 196702, Control_c, 0, 64, 105
1, 196717, Control_c, 0, 64, 106
1, 196732, Control_c, 0, 64, 107
1, 196806, Control_c, 0, 64, 104
1, 196820, Control_c, 0, 64, 97
1, 196825, Note_on_c, 0, 82, 74
1, 196835, Control_c, 0, 64, 83
1, 196838, Note_off_c, 0, 81, 52
1, 196851, Control_c, 0, 64, 67
1, 196857, Note_on_c, 0, 79, 48
1, 196864, Note_on_c, 0, 63, 42
1, 196865, Note_on_c, 0, 70, 43
1, 196866, Note_on_c, 0, 67, 35
1, 196866, Control_c, 0, 64, 0
1, 196878, Note_on_c, 0, 73, 38
1, 196925, Control_c, 0, 64, 47
1, 196940, Control_c, 0, 64, 65
1, 196955, Control_c, 0, 64, 74
1, 196969, Control_c, 0, 64, 84
1, 196984, Control_c, 0, 64, 94
1, 196999, Control_c, 0, 64, 104
1, 197009, Note_off_c, 0, 79, 46
1, 197014, Control_c, 0, 64, 115
1, 197019, Note_off_c, 0, 70, 38
1, 197029, Control_c, 0, 64, 127
1, 197049, Note_off_c, 0, 63, 35
1, 197052, Note_off_c, 0, 73, 46
1, 197083, Note_off_c, 0, 67, 32
1, 197153, Note_on_c, 0, 70, 43
1, 197153, Note_on_c, 0, 79, 50
1, 197158, Note_on_c, 0, 67, 24
1, 197158, Note_on_c, 0, 73, 41
1, 197165, Note_on_c, 0, 63, 29
1, 197246, Note_off_c, 0, 73, 38
1, 197274, Note_off_c, 0, 79, 35
1, 197283, Note_off_c, 0, 82, 39
1, 197293, Note_off_c, 0, 70, 34
1, 197301, Note_off_c, 0, 63, 28
1, 197320, Note_off_c, 0, 67, 36
1, 197382, Note_on_c, 0, 82, 68
1, 197393, Note_on_c, 0, 79, 58
1, 197399, Note_on_c, 0, 63, 32
1, 197401, Note_on_c, 0, 67, 37
1, 197412, Note_on_c, 0, 73, 27
1, 197462, Note_off_c, 0, 79, 52
1, 197480, Note_off_c, 0, 73, 44
1, 197504, Note_off_c, 0, 67, 47
1, 197570, Note_off_c, 0, 63, 0
1, 197588, Note_on_c, 0, 63, 33
1, 197605, Note_on_c, 0, 79, 58
1, 197617, Note_on_c, 0, 73, 39
1, 197634, Note_off_c, 0, 79, 64
1, 197644, Note_on_c, 0, 67, 30
1, 197655, Note_off_c, 0, 63, 49
1, 197676, Note_off_c, 0, 73, 52
1, 197680, Note_off_c, 0, 67, 48
1, 197792, Control_c, 0, 64, 106
1, 197807, Note_on_c, 0, 79, 60
1, 197807, Control_c, 0, 64, 83
1, 197814, Note_on_c, 0, 67, 35
1, 197822, Note_on_c, 0, 74, 45
1, 197822, Control_c, 0, 64, 64
1, 197824, Note_on_c, 0, 62, 47
1, 197837, Control_c, 0, 64, 44
1, 197844, Note_on_c, 0, 70, 42
1, 197852, Control_c, 0, 64, 53
1, 197866, Control_c, 0, 64, 63
1, 197881, Control_c, 0, 64, 67
1, 197896, Control_c, 0, 64, 73
1, 197899, Note_off_c, 0, 79, 59
1, 197911, Control_c, 0, 64, 84
1, 197914, Note_off_c, 0, 74, 58
1, 197915, Note_off_c, 0, 62, 54
1, 197926, Control_c, 0, 64, 95
1, 197927, Note_off_c, 0, 67, 60
1, 197940, Control_c, 0, 64, 104
1, 197946, Note_off_c, 0, 70, 39
1, 197955, Control_c, 0, 64, 113
1, 197978, Control_c, 0, 64, 119
1, 197993, Control_c, 0, 64, 124
1, 198007, Control_c, 0, 64, 127
1, 198035, Note_on_c, 0, 79, 57
1, 198038, Note_on_c, 0, 74, 55
1, 198049, Note_on_c, 0, 62, 46
1, 198053, Note_on_c, 0, 70, 50
1, 198067, Note_off_c, 0, 82, 56
1, 198070, Note_off_c, 0, 74, 61
1, 198094, Note_off_c, 0, 79, 47
1, 198126, Note_off_c, 0, 70, 57
1, 198182, Note_off_c, 0, 62, 33
1, 198229, Control_c, 0, 64, 92
1, 198244, Control_c, 0, 64, 71
1, 198258, Note_on_c, 0, 76, 61
1, 198259, Control_c, 0, 64, 46
1, 198261, Note_on_c, 0, 61, 53
1, 198263, Note_on_c, 0, 69, 51
1, 198264, Note_on_c, 0, 64, 50
1, 198273, Control_c, 0, 64, 29
1, 198288, Control_c, 0, 64, 49
1, 198303, Control_c, 0, 64, 64
1, 198318, Control_c, 0, 64, 69
1, 198333, Control_c, 0, 64, 76
1, 198338, Note_on_c, 0, 78, 73
1, 198347, Note_off_c, 0, 69, 54
1, 198348, Control_c, 0, 64, 84
1, 198351, Note_off_c, 0, 61, 47
1, 198357, Note_off_c, 0, 76, 57
1, 198362, Control_c, 0, 64, 92
1, 198377, Control_c, 0, 64, 97
1, 198392, Control_c, 0, 64, 99
1, 198416, Note_off_c, 0, 64, 0
1, 198422, Control_c, 0, 64, 99
1, 198431, Note_on_c, 0, 64, 42
1, 198436, Note_on_c, 0, 61, 51
1, 198437, Control_c, 0, 64, 100
1, 198443, Note_off_c, 0, 78, 62
1, 198452, Control_c, 0, 64, 100
1, 198453, Note_on_c, 0, 76, 74
1, 198467, Control_c, 0, 64, 101
1, 198473, Note_on_c, 0, 69, 29
1, 198478, Note_off_c, 0, 61, 60
1, 198488, Note_off_c, 0, 64, 62
1, 198497, Control_c, 0, 64, 102
1, 198508, Note_off_c, 0, 69, 53
1, 198511, Control_c, 0, 64, 103
1, 198526, Control_c, 0, 64, 105
1, 198541, Note_on_c, 0, 78, 78
1, 198541, Control_c, 0, 64, 106
1, 198543, Note_off_c, 0, 76, 57
1, 198556, Control_c, 0, 64, 106
1, 198571, Control_c, 0, 64, 107
1, 198586, Control_c, 0, 64, 108
1, 198645, Control_c, 0, 64, 103
1, 198660, Control_c, 0, 64, 90
1, 198661, Note_on_c, 0, 76, 68
1, 198668, Note_on_c, 0, 79, 78
1, 198670, Note_on_c, 0, 60, 48
1, 198672, Note_on_c, 0, 64, 43
1, 198675, Control_c, 0, 64, 71
1, 198687, Note_on_c, 0, 70, 44
1, 198689, Control_c, 0, 64, 23
1, 198690, Note_on_c, 0, 67, 51
1, 198697, Note_off_c, 0, 78, 57
1, 198704, Control_c, 0, 64, 0
1, 198761, Note_off_c, 0, 76, 57
1, 198771, Note_off_c, 0, 67, 51
1, 198787, Note_off_c, 0, 70, 46
1, 198800, Note_off_c, 0, 64, 56
1, 198801, Control_c, 0, 64, 64
1, 198816, Control_c, 0, 64, 71
1, 198820, Note_off_c, 0, 60, 53
1, 198830, Control_c, 0, 64, 79
1, 198845, Control_c, 0, 64, 88
1, 198860, Control_c, 0, 64, 98
1, 198875, Control_c, 0, 64, 112
1, 198890, Control_c, 0, 64, 127
1, 198890, Note_on_c, 0, 60, 41
1, 198902, Note_on_c, 0, 70, 50
1, 198921, Note_on_c, 0, 76, 46
1, 198928, Note_on_c, 0, 67, 42
1, 198929, Note_on_c, 0, 64, 48
1, 198969, Note_off_c, 0, 60, 58
1, 198976, Note_off_c, 0, 64, 57
1, 198993, Note_off_c, 0, 70, 54
1, 198997, Note_off_c, 0, 79, 57
1, 199024, Note_off_c, 0, 76, 37
1, 199030, Note_off_c, 0, 67, 38
1, 199111, Control_c, 0, 64, 91
1, 199115, Note_on_c, 0, 73, 69
1, 199126, Note_on_c, 0, 64, 43
1, 199126, Control_c, 0, 64, 68
1, 199128, Note_on_c, 0, 71, 48
1, 199139, Note_on_c, 0, 59, 45
1, 199141, Control_c, 0, 64, 0
1, 199143, Note_on_c, 0, 67, 48
1, 199185, Control_c, 0, 64, 59
1, 199200, Control_c, 0, 64, 67
1, 199205, Note_on_c, 0, 75, 75
1, 199215, Control_c, 0, 64, 75
1, 199216, Note_off_c, 0, 59, 56
1, 199220, Note_off_c, 0, 64, 61
1, 199220, Note_off_c, 0, 73, 59
1, 199222, Note_off_c, 0, 71, 43
1, 199230, Control_c, 0, 64, 83
1, 199244, Note_off_c, 0, 67, 47
1, 199245, Control_c, 0, 64, 93
1, 199260, Control_c, 0, 64, 98
1, 199275, Control_c, 0, 64, 100
1, 199290, Control_c, 0, 64, 101
1, 199303, Note_off_c, 0, 75, 61
1, 199305, Control_c, 0, 64, 102
1, 199314, Note_on_c, 0, 71, 53
1, 199317, Note_on_c, 0, 73, 81
1, 199319, Control_c, 0, 64, 102
1, 199330, Note_on_c, 0, 67, 37
1, 199331, Note_on_c, 0, 59, 58
1, 199334, Control_c, 0, 64, 103
1, 199346, Note_off_c, 0, 71, 51
1, 199349, Control_c, 0, 64, 106
1, 199364, Control_c, 0, 64, 109
1, 199379, Control_c, 0, 64, 111
1, 199394, Control_c, 0, 64, 112
1, 199409, Control_c, 0, 64, 113
1, 199415, Note_on_c, 0, 75, 74
1, 199424, Control_c, 0, 64, 113
1, 199428, Note_off_c, 0, 59, 52
1, 199438, Note_off_c, 0, 73, 61
1, 199438, Control_c, 0, 64, 115
1, 199450, Note_off_c, 0, 67, 36
1, 199453, Control_c, 0, 64, 116
1, 199475, Control_c, 0, 64, 118
1, 199490, Control_c, 0, 64, 119
1, 199564, Control_c, 0, 64, 119
1, 199579, Control_c, 0, 64, 111
1, 199587, Note_on_c, 0, 76, 72
1, 199594, Control_c, 0, 64, 97
1, 199608, Control_c, 0, 64, 79
1, 199609, Note_on_c, 0, 58, 45
1, 199623, Note_on_c, 0, 72, 47
1, 199623, Control_c, 0, 64, 63
1, 199632, Note_off_c, 0, 75, 51
1, 199638, Note_on_c, 0, 60, 37
1, 199638, Control_c, 0, 64, 0
1, 199641, Note_on_c, 0, 64, 47
1, 199642, Note_on_c, 0, 67, 37
1, 199725, Note_off_c, 0, 72, 60
1, 199727, Control_c, 0, 64, 65
1, 199728, Note_off_c, 0, 67, 49
1, 199742, Control_c, 0, 64, 74
1, 199750, Note_off_c, 0, 58, 58
1, 199751, Note_off_c, 0, 64, 55
1, 199757, Control_c, 0, 64, 84
1, 199759, Note_off_c, 0, 60, 56
1, 199771, Control_c, 0, 64, 95
1, 199786, Control_c, 0, 64, 102
1, 199801, Control_c, 0, 64, 106
1, 199816, Control_c, 0, 64, 107
1, 199831, Control_c, 0, 64, 108
1, 199853, Note_on_c, 0, 58, 39
1, 199856, Note_on_c, 0, 72, 52
1, 199858, Note_on_c, 0, 64, 39
1, 199870, Note_on_c, 0, 60, 17
1, 199875, Control_c, 0, 64, 108
1, 199889, Note_on_c, 0, 67, 34
1, 199889, Control_c, 0, 64, 110
1, 199892, Note_off_c, 0, 72, 63
1, 199904, Control_c, 0, 64, 113
1, 199919, Control_c, 0, 64, 124
1, 199922, Note_off_c, 0, 67, 53
1, 199934, Control_c, 0, 64, 127
1, 199988, Note_off_c, 0, 60, 32
1, 200020, Note_off_c, 0, 64, 34
1, 200036, Note_off_c, 0, 58, 44
1, 200098, Control_c, 0, 64, 102
1, 200099, Note_on_c, 0, 67, 58
1, 200100, Note_on_c, 0, 60, 36
1, 200105, Note_on_c, 0, 57, 48
1, 200113, Control_c, 0, 64, 78
1, 200124, Note_on_c, 0, 64, 28
1, 200128, Control_c, 0, 64, 63
1, 200142, Control_c, 0, 64, 38
1, 200157, Control_c, 0, 64, 43
1, 200172, Control_c, 0, 64, 56
1, 200187, Control_c, 0, 64, 63
1, 200194, Note_off_c, 0, 64, 42
1, 200202, Control_c, 0, 64, 68
1, 200224, Control_c, 0, 64, 74
1, 200229, Note_on_c, 0, 69, 63
1, 200237, Note_off_c, 0, 60, 58
1, 200239, Control_c, 0, 64, 80
1, 200240, Note_off_c, 0, 67, 53
1, 200250, Note_off_c, 0, 57, 58
1, 200254, Control_c, 0, 64, 86
1, 200269, Control_c, 0, 64, 89
1, 200283, Control_c, 0, 64, 91
1, 200298, Control_c, 0, 64, 91
1, 200328, Control_c, 0, 64, 92
1, 200343, Control_c, 0, 64, 93
1, 200353, Note_on_c, 0, 57, 46
1, 200357, Note_off_c, 0, 69, 50
1, 200357, Control_c, 0, 64, 93
1, 200359, Note_on_c, 0, 67, 64
1, 200370, Note_on_c, 0, 60, 42
1, 200372, Note_off_c, 0, 76, 36
1, 200372, Control_c, 0, 64, 94
1, 200378, Note_on_c, 0, 64, 21
1, 200434, Note_off_c, 0, 64, 46
1, 200475, Note_off_c, 0, 67, 62
1, 200476, Note_on_c, 0, 69, 71
1, 200717, Note_on_c, 0, 70, 67
1, 200720, Note_off_c, 0, 57, 36
1, 200727, Control_c, 0, 64, 93
1, 200731, Note_off_c, 0, 69, 58
1, 200742, Control_c, 0, 64, 88
1, 200744, Note_off_c, 0, 60, 34
1, 200757, Control_c, 0, 64, 77
1, 200765, Note_on_c, 0, 58, 36
1, 200769, Note_on_c, 0, 55, 32
1, 200772, Control_c, 0, 64, 59
1, 200786, Control_c, 0, 64, 0
1, 200793, Note_on_c, 0, 63, 34
1, 200798, Note_on_c, 0, 67, 34
1, 200862, Control_c, 0, 64, 47
1, 200877, Control_c, 0, 64, 68
1, 200891, Control_c, 0, 64, 80
1, 200901, Note_off_c, 0, 63, 54
1, 200906, Control_c, 0, 64, 101
1, 200921, Control_c, 0, 64, 127
1, 200926, Note_off_c, 0, 58, 61
1, 200934, Note_off_c, 0, 67, 45
1, 200965, Note_off_c, 0, 55, 55
1, 201054, Note_on_c, 0, 63, 40
1, 201061, Note_on_c, 0, 67, 46
1, 201138, Note_off_c, 0, 67, 58
1, 201142, Note_off_c, 0, 63, 51
1, 201261, Note_on_c, 0, 34, 54
1, 201302, Note_on_c, 0, 67, 28
1, 201304, Note_on_c, 0, 63, 16
1, 201316, Note_off_c, 0, 34, 58
1, 201334, Note_on_c, 0, 39, 51
1, 201367, Note_off_c, 0, 39, 51
1, 201400, Note_on_c, 0, 43, 43
1, 201434, Note_off_c, 0, 43, 51
1, 201479, Note_on_c, 0, 46, 58
1, 201508, Note_off_c, 0, 63, 17
1, 201524, Note_off_c, 0, 67, 40
1, 201540, Note_off_c, 0, 46, 61
1, 201550, Note_on_c, 0, 51, 58
1, 201584, Note_off_c, 0, 51, 63
1, 201618, Note_on_c, 0, 55, 62
1, 201701, Note_off_c, 0, 55, 57
1, 201752, Note_on_c, 0, 58, 56
1, 201758, Note_on_c, 0, 67, 45
1, 201767, Note_on_c, 0, 63, 36
1, 201811, Control_c, 0, 64, 96
1, 201826, Control_c, 0, 64, 75
1, 201840, Control_c, 0, 64, 64
1, 201855, Control_c, 0, 64, 62
1, 201870, Control_c, 0, 64, 64
1, 201885, Control_c, 0, 64, 67
1, 201900, Control_c, 0, 64, 70
1, 201914, Control_c, 0, 64, 77
1, 201929, Control_c, 0, 64, 87
1, 201944, Control_c, 0, 64, 98
1, 201950, Note_off_c, 0, 63, 51
1, 201959, Control_c, 0, 64, 107
1, 201973, Control_c, 0, 64, 113
1, 201987, Note_off_c, 0, 67, 38
1, 201988, Control_c, 0, 64, 117
1, 202003, Control_c, 0, 64, 121
1, 202018, Control_c, 0, 64, 127
1, 202110, Note_on_c, 0, 63, 35
1, 202116, Note_off_c, 0, 58, 47
1, 202127, Note_on_c, 0, 67, 44
1, 202235, Note_off_c, 0, 70, 57
1, 202275, Note_off_c, 0, 63, 37
1, 202413, Note_on_c, 0, 70, 69
1, 202423, Note_on_c, 0, 55, 39
1, 202431, Note_on_c, 0, 58, 39
1, 202436, Note_on_c, 0, 63, 36
1, 202565, Note_off_c, 0, 63, 35
1, 202587, Note_off_c, 0, 55, 53
1, 202609, Note_off_c, 0, 58, 42
1, 202737, Control_c, 0, 67, 127
1, 202757, Note_on_c, 0, 72, 65
1, 202767, Control_c, 0, 67, 126
1, 202787, Note_on_c, 0, 58, 37
1, 202795, Note_on_c, 0, 55, 23
1, 202796, Note_on_c, 0, 63, 29
1, 202796, Control_c, 0, 67, 127
1, 202811, Control_c, 0, 67, 127
1, 202820, Note_off_c, 0, 70, 31
1, 202834, Note_off_c, 0, 55, 51
1, 202840, Note_off_c, 0, 63, 48
1, 202865, Note_off_c, 0, 67, 56
1, 202866, Note_off_c, 0, 58, 47
1, 203255, Note_on_c, 0, 74, 56
1, 203280, Note_off_c, 0, 72, 45
1, 203308, Note_on_c, 0, 64, 35
1, 203311, Note_on_c, 0, 54, 28
1, 203313, Note_on_c, 0, 58, 33
1, 203313, Note_on_c, 0, 62, 26
1, 203313, Note_on_c, 0, 70, 36
1, 203323, Control_c, 0, 64, 103
1, 203338, Control_c, 0, 64, 83
1, 203353, Control_c, 0, 64, 68
1, 203368, Control_c, 0, 64, 0
1, 203457, Control_c, 0, 64, 54
1, 203472, Control_c, 0, 64, 67
1, 203487, Control_c, 0, 64, 76
1, 203502, Control_c, 0, 64, 88
1, 203516, Control_c, 0, 64, 109
1, 203531, Control_c, 0, 64, 127
1, 203560, Note_off_c, 0, 70, 57
1, 203589, Note_off_c, 0, 62, 39
1, 203612, Note_off_c, 0, 54, 46
1, 203619, Note_off_c, 0, 58, 42
1, 203621, Note_off_c, 0, 64, 42
1, 203788, Note_on_c, 0, 64, 28
1, 203797, Note_on_c, 0, 70, 41
1, 203798, Note_on_c, 0, 58, 26
1, 203805, Note_on_c, 0, 54, 25
1, 203810, Note_on_c, 0, 62, 32
1, 203879, Note_off_c, 0, 62, 47
1, 203882, Note_off_c, 0, 54, 41
1, 203891, Note_off_c, 0, 58, 37
1, 203924, Note_off_c, 0, 70, 36
1, 203925, Note_off_c, 0, 64, 42
1, 203952, Note_off_c, 0, 74, 34
1, 204038, Note_on_c, 0, 74, 58
1, 204059, Note_on_c, 0, 70, 44
1, 204067, Note_on_c, 0, 58, 35
1, 204068, Note_on_c, 0, 62, 44
1, 204075, Note_on_c, 0, 64, 41
1, 204083, Note_on_c, 0, 54, 29
1, 204111, Note_off_c, 0, 62, 55
1, 204122, Note_off_c, 0, 70, 50
1, 204131, Note_off_c, 0, 64, 54
1, 204133, Note_off_c, 0, 54, 47
1, 204134, Note_off_c, 0, 58, 50
1, 204280, Note_on_c, 0, 58, 43
1, 204285, Note_on_c, 0, 54, 34
1, 204287, Note_on_c, 0, 64, 42
1, 204294, Note_on_c, 0, 70, 45
1, 204304, Note_on_c, 0, 62, 36
1, 204315, Note_off_c, 0, 58, 60
1, 204324, Note_off_c, 0, 54, 52
1, 204333, Note_off_c, 0, 70, 61
1, 204336, Note_off_c, 0, 64, 56
1, 204348, Note_off_c, 0, 62, 46
1, 204472, Control_c, 0, 64, 102
1, 204486, Control_c, 0, 64, 74
1, 204501, Control_c, 0, 64, 51
1, 204506, Note_on_c, 0, 53, 46
1, 204506, Note_on_c, 0, 65, 47
1, 204511, Note_on_c, 0, 58, 43
1, 204516, Control_c, 0, 64, 11
1, 204518, Note_on_c, 0, 62, 35
1, 204518, Note_on_c, 0, 70, 48
1, 204531, Control_c, 0, 64, 29
1, 204546, Control_c, 0, 64, 56
1, 204560, Control_c, 0, 64, 64
1, 204575, Note_off_c, 0, 62, 53
1, 204575, Control_c, 0, 64, 70
1, 204588, Note_off_c, 0, 70, 58
1, 204590, Control_c, 0, 64, 78
1, 204599, Note_off_c, 0, 53, 58
1, 204603, Note_off_c, 0, 58, 55
1, 204604, Note_off_c, 0, 65, 54
1, 204605, Control_c, 0, 64, 90
1, 204620, Control_c, 0, 64, 108
1, 204634, Control_c, 0, 64, 127
1, 204726, Note_on_c, 0, 70, 47
1, 204730, Note_off_c, 0, 74, 63
1, 204736, Note_on_c, 0, 65, 51
1, 204748, Note_on_c, 0, 58, 26
1, 204751, Note_off_c, 0, 70, 58
1, 204753, Note_on_c, 0, 53, 31
1, 204756, Note_on_c, 0, 62, 43
1, 204766, Note_off_c, 0, 65, 60
1, 204783, Note_off_c, 0, 53, 58
1, 204785, Note_off_c, 0, 58, 53
1, 204806, Note_off_c, 0, 62, 56
1, 204925, Control_c, 0, 64, 96
1, 204939, Control_c, 0, 64, 74
1, 204941, Note_on_c, 0, 67, 62
1, 204953, Note_on_c, 0, 55, 46
1, 204954, Control_c, 0, 64, 56
1, 204959, Note_on_c, 0, 52, 41
1, 204969, Control_c, 0, 64, 53
1, 204970, Note_on_c, 0, 60, 34
1, 204984, Control_c, 0, 64, 59
1, 204998, Control_c, 0, 64, 64
1, 205013, Control_c, 0, 64, 69
1, 205016, Note_off_c, 0, 60, 48
1, 205026, Note_off_c, 0, 55, 55
1, 205028, Note_off_c, 0, 52, 52
1, 205028, Control_c, 0, 64, 74
1, 205041, Note_on_c, 0, 69, 65
1, 205043, Note_off_c, 0, 67, 57
1, 205043, Control_c, 0, 64, 83
1, 205058, Control_c, 0, 64, 92
1, 205072, Control_c, 0, 64, 100
1, 205087, Control_c, 0, 64, 104
1, 205102, Control_c, 0, 64, 105
1, 205117, Control_c, 0, 64, 105
1, 205129, Note_off_c, 0, 69, 60
1, 205132, Control_c, 0, 64, 107
1, 205138, Note_on_c, 0, 67, 70
1, 205147, Control_c, 0, 64, 110
1, 205159, Note_on_c, 0, 55, 50
1, 205161, Note_on_c, 0, 52, 42
1, 205162, Control_c, 0, 64, 111
1, 205177, Control_c, 0, 64, 112
1, 205191, Control_c, 0, 64, 114
1, 205195, Note_off_c, 0, 55, 61
1, 205202, Note_off_c, 0, 52, 47
1, 205206, Control_c, 0, 64, 119
1, 205221, Control_c, 0, 64, 127
1, 205227, Note_on_c, 0, 69, 78
1, 205239, Note_off_c, 0, 67, 57
1, 205407, Note_on_c, 0, 70, 82
1, 205428, Control_c, 0, 64, 91
1, 205437, Note_on_c, 0, 61, 52
1, 205438, Note_off_c, 0, 69, 58
1, 205443, Control_c, 0, 64, 72
1, 205444, Note_on_c, 0, 67, 49
1, 205445, Note_on_c, 0, 55, 45
1, 205449, Note_on_c, 0, 58, 43
1, 205465, Control_c, 0, 64, 32
1, 205466, Note_on_c, 0, 51, 43
1, 205480, Control_c, 0, 64, 0
1, 205554, Control_c, 0, 64, 31
1, 205569, Control_c, 0, 64, 66
1, 205584, Control_c, 0, 64, 77
1, 205598, Control_c, 0, 64, 93
1, 205613, Control_c, 0, 64, 127
1, 205616, Note_off_c, 0, 61, 52
1, 205623, Note_off_c, 0, 58, 38
1, 205637, Note_off_c, 0, 55, 56
1, 205642, Note_off_c, 0, 51, 37
1, 205644, Note_off_c, 0, 67, 39
1, 205758, Note_on_c, 0, 61, 45
1, 205768, Note_on_c, 0, 58, 41
1, 205774, Note_on_c, 0, 51, 37
1, 205778, Note_on_c, 0, 67, 50
1, 205779, Note_on_c, 0, 55, 48
1, 205827, Note_off_c, 0, 51, 56
1, 205827, Note_off_c, 0, 55, 57
1, 205844, Note_off_c, 0, 67, 46
1, 205847, Note_off_c, 0, 58, 49
1, 205859, Note_off_c, 0, 70, 57
1, 205868, Note_off_c, 0, 61, 36
1, 205965, Note_on_c, 0, 70, 70
1, 205985, Note_on_c, 0, 61, 53
1, 205986, Note_on_c, 0, 67, 63
1, 205999, Note_on_c, 0, 51, 41
1, 206002, Note_on_c, 0, 55, 47
1, 206061, Note_off_c, 0, 51, 50
1, 206061, Note_off_c, 0, 55, 55
1, 206064, Note_off_c, 0, 67, 49
1, 206072, Note_off_c, 0, 61, 51
1, 206190, Note_on_c, 0, 67, 61
1, 206193, Note_on_c, 0, 51, 52
1, 206218, Note_on_c, 0, 61, 43
1, 206220, Note_on_c, 0, 55, 40
1, 206232, Note_off_c, 0, 67, 62
1, 206250, Note_off_c, 0, 51, 54
1, 206256, Note_off_c, 0, 61, 62
1, 206256, Note_off_c, 0, 55, 55
1, 206407, Control_c, 0, 64, 99
1, 206415, Note_on_c, 0, 62, 61
1, 206415, Note_on_c, 0, 67, 61
1, 206422, Note_on_c, 0, 55, 55
1, 206422, Control_c, 0, 64, 75
1, 206424, Note_on_c, 0, 50, 55
1, 206438, Control_c, 0, 64, 27
1, 206441, Note_on_c, 0, 58, 43
1, 206453, Control_c, 0, 64, 0
1, 206497, Control_c, 0, 64, 52
1, 206509, Note_off_c, 0, 58, 52
1, 206512, Control_c, 0, 64, 65
1, 206513, Note_off_c, 0, 67, 57
1, 206524, Note_off_c, 0, 50, 58
1, 206527, Control_c, 0, 64, 72
1, 206531, Note_off_c, 0, 62, 53
1, 206542, Note_off_c, 0, 55, 60
1, 206542, Control_c, 0, 64, 81
1, 206556, Control_c, 0, 64, 92
1, 206571, Control_c, 0, 64, 107
1, 206586, Control_c, 0, 64, 127
1, 206634, Note_on_c, 0, 50, 62
1, 206642, Note_on_c, 0, 67, 62
1, 206645, Note_on_c, 0, 62, 50
1, 206653, Note_on_c, 0, 58, 46
1, 206680, Note_off_c, 0, 62, 61
1, 206686, Note_off_c, 0, 70, 58
1, 206704, Note_off_c, 0, 58, 53
1, 206767, Note_off_c, 0, 67, 32
1, 206770, Note_off_c, 0, 50, 50
1, 206852, Note_on_c, 0, 52, 65
1, 206852, Control_c, 0, 64, 82
1, 206860, Note_on_c, 0, 64, 64
1, 206861, Note_on_c, 0, 49, 57
1, 206867, Control_c, 0, 64, 57
1, 206876, Note_on_c, 0, 57, 47
1, 206882, Control_c, 0, 64, 0
1, 206927, Control_c, 0, 64, 60
1, 206941, Control_c, 0, 64, 68
1, 206947, Note_on_c, 0, 66, 71
1, 206951, Note_off_c, 0, 57, 57
1, 206963, Control_c, 0, 64, 75
1, 206974, Note_off_c, 0, 49, 56
1, 206977, Note_off_c, 0, 64, 61
1, 206978, Control_c, 0, 64, 83
1, 206982, Note_off_c, 0, 52, 53
1, 206993, Control_c, 0, 64, 92
1, 207008, Control_c, 0, 64, 98
1, 207023, Control_c, 0, 64, 103
1, 207037, Control_c, 0, 64, 106
1, 207044, Note_on_c, 0, 52, 51
1, 207049, Note_on_c, 0, 49, 56
1, 207052, Control_c, 0, 64, 109
1, 207058, Note_off_c, 0, 66, 60
1, 207067, Note_on_c, 0, 64, 71
1, 207067, Control_c, 0, 64, 111
1, 207076, Note_on_c, 0, 57, 51
1, 207082, Control_c, 0, 64, 114
1, 207091, Note_off_c, 0, 49, 62
1, 207096, Control_c, 0, 64, 115
1, 207100, Note_off_c, 0, 52, 61
1, 207111, Control_c, 0, 64, 118
1, 207121, Note_off_c, 0, 57, 55
1, 207126, Control_c, 0, 64, 126
1, 207141, Control_c, 0, 64, 127
1, 207160, Note_on_c, 0, 66, 77
1, 207183, Note_off_c, 0, 64, 60
1, 207275, Control_c, 0, 64, 113
1, 207290, Control_c, 0, 64, 90
1, 207292, Note_on_c, 0, 48, 58
1, 207293, Note_on_c, 0, 52, 56
1, 207293, Note_on_c, 0, 64, 70
1, 207296, Note_on_c, 0, 58, 58
1, 207296, Note_on_c, 0, 67, 79
1, 207305, Control_c, 0, 64, 70
1, 207320, Control_c, 0, 64, 0
1, 207320, Note_on_c, 0, 55, 50
1, 207336, Note_off_c, 0, 66, 52
1, 207385, Note_off_c, 0, 64, 56
1, 207415, Note_off_c, 0, 55, 55
1, 207424, Note_off_c, 0, 58, 54
1, 207424, Control_c, 0, 64, 55
1, 207425, Note_off_c, 0, 48, 55
1, 207430, Note_off_c, 0, 52, 56
1, 207439, Control_c, 0, 64, 67
1, 207453, Control_c, 0, 64, 74
1, 207468, Control_c, 0, 64, 83
1, 207483, Control_c, 0, 64, 94
1, 207498, Control_c, 0, 64, 107
1, 207512, Control_c, 0, 64, 127
1, 207534, Note_on_c, 0, 64, 61
1, 207541, Note_on_c, 0, 58, 54
1, 207547, Note_on_c, 0, 48, 47
1, 207553, Note_on_c, 0, 55, 50
1, 207563, Note_on_c, 0, 52, 50
1, 207608, Note_off_c, 0, 48, 53
1, 207617, Note_off_c, 0, 52, 55
1, 207631, Note_off_c, 0, 55, 59
1, 207633, Note_off_c, 0, 58, 57
1, 207636, Note_off_c, 0, 64, 58
1, 207742, Control_c, 0, 64, 104
1, 207757, Control_c, 0, 64, 76
1, 207761, Note_on_c, 0, 61, 71
1, 207771, Note_on_c, 0, 59, 51
1, 207772, Control_c, 0, 64, 0
1, 207773, Note_on_c, 0, 47, 47
1, 207773, Note_on_c, 0, 55, 49
1, 207775, Note_on_c, 0, 52, 49
1, 207779, Note_off_c, 0, 67, 56
1, 207831, Control_c, 0, 64, 63
1, 207845, Control_c, 0, 64, 71
1, 207859, Control_c, 0, 64, 79
1, 207861, Note_on_c, 0, 63, 78
1, 207863, Note_off_c, 0, 47, 58
1, 207863, Note_off_c, 0, 59, 53
1, 207874, Control_c, 0, 64, 89
1, 207880, Note_off_c, 0, 55, 51
1, 207881, Note_off_c, 0, 52, 59
1, 207886, Note_off_c, 0, 61, 61
1, 207889, Control_c, 0, 64, 97
1, 207904, Control_c, 0, 64, 104
1, 207918, Control_c, 0, 64, 108
1, 207933, Control_c, 0, 64, 110
1, 207948, Control_c, 0, 64, 113
1, 207962, Note_off_c, 0, 63, 61
1, 207963, Control_c, 0, 64, 117
1, 207968, Note_on_c, 0, 61, 79
1, 207970, Note_on_c, 0, 59, 60
1, 207978, Control_c, 0, 64, 121
1, 207982, Note_on_c, 0, 55, 47
1, 207985, Note_on_c, 0, 47, 56
1, 207992, Control_c, 0, 64, 127
1, 207994, Note_off_c, 0, 59, 60
1, 208047, Note_off_c, 0, 55, 44
1, 208058, Note_on_c, 0, 63, 83
1, 208071, Note_off_c, 0, 47, 58
1, 208073, Note_off_c, 0, 61, 60
1, 208215, Control_c, 0, 64, 97
1, 208222, Note_on_c, 0, 64, 82
1, 208226, Note_on_c, 0, 46, 59
1, 208230, Control_c, 0, 64, 74
1, 208239, Note_on_c, 0, 52, 47
1, 208241, Note_on_c, 0, 48, 44
1, 208245, Note_on_c, 0, 60, 56
1, 208245, Control_c, 0, 64, 0
1, 208259, Note_on_c, 0, 55, 42
1, 208261, Note_off_c, 0, 63, 58
1, 208319, Control_c, 0, 64, 11
1, 208334, Control_c, 0, 64, 62
1, 208348, Control_c, 0, 64, 69
1, 208354, Note_off_c, 0, 60, 58
1, 208358, Note_off_c, 0, 55, 48
1, 208363, Control_c, 0, 64, 76
1, 208373, Note_off_c, 0, 46, 58
1, 208376, Note_off_c, 0, 52, 55
1, 208378, Control_c, 0, 64, 86
1, 208393, Control_c, 0, 64, 94
1, 208405, Note_off_c, 0, 48, 42
1, 208408, Control_c, 0, 64, 102
1, 208423, Control_c, 0, 64, 108
1, 208438, Control_c, 0, 64, 111
1, 208460, Control_c, 0, 64, 113
1, 208475, Control_c, 0, 64, 116
1, 208489, Control_c, 0, 64, 120
1, 208493, Note_on_c, 0, 60, 53
1, 208504, Control_c, 0, 64, 127
1, 208509, Note_on_c, 0, 46, 53
1, 208515, Note_on_c, 0, 52, 44
1, 208515, Note_on_c, 0, 55, 37
1, 208542, Note_on_c, 0, 48, 23
1, 208544, Note_off_c, 0, 60, 62
1, 208551, Note_off_c, 0, 55, 61
1, 208588, Note_off_c, 0, 48, 49
1, 208598, Note_off_c, 0, 52, 49
1, 208652, Note_off_c, 0, 46, 32
1, 208753, Note_on_c, 0, 55, 66
1, 208756, Control_c, 0, 64, 89
1, 208768, Note_on_c, 0, 48, 54
1, 208771, Control_c, 0, 64, 67
1, 208776, Note_on_c, 0, 45, 47
1, 208776, Note_on_c, 0, 52, 40
1, 208786, Control_c, 0, 64, 0
1, 208831, Control_c, 0, 64, 57
1, 208846, Control_c, 0, 64, 67
1, 208861, Control_c, 0, 64, 77
1, 208876, Control_c, 0, 64, 88
1, 208882, Note_on_c, 0, 57, 63
1, 208882, Note_off_c, 0, 52, 35
1, 208891, Control_c, 0, 64, 102
1, 208898, Note_off_c, 0, 48, 51
1, 208904, Note_off_c, 0, 55, 59
1, 208905, Control_c, 0, 64, 121
1, 208920, Control_c, 0, 64, 127
1, 208946, Note_off_c, 0, 45, 47
1, 209019, Note_on_c, 0, 55, 71
1, 209020, Note_on_c, 0, 45, 37
1, 209021, Note_off_c, 0, 64, 55
1, 209028, Note_on_c, 0, 52, 48
1, 209034, Note_on_c, 0, 48, 50
1, 209040, Note_off_c, 0, 57, 49
1, 209053, Control_c, 0, 64, 95
1, 209068, Control_c, 0, 64, 77
1, 209082, Control_c, 0, 64, 63
1, 209097, Control_c, 0, 64, 0
1, 209119, Note_off_c, 0, 52, 51
1, 209147, Note_on_c, 0, 57, 74
1, 209162, Note_off_c, 0, 55, 63
1, 209171, Control_c, 0, 64, 48
1, 209186, Control_c, 0, 64, 65
1, 209209, Control_c, 0, 64, 72
1, 209224, Control_c, 0, 64, 81
1, 209238, Control_c, 0, 64, 94
1, 209253, Control_c, 0, 64, 103
1, 209268, Control_c, 0, 64, 113
1, 209282, Control_c, 0, 64, 127
1, 209419, Note_on_c, 0, 58, 78
1, 209452, Note_off_c, 0, 48, 41
1, 209470, Note_on_c, 0, 46, 45
1, 209470, Note_off_c, 0, 57, 60
1, 209472, Note_on_c, 0, 43, 41
1, 209475, Control_c, 0, 64, 119
1, 209478, Note_off_c, 0, 45, 45
1, 209490, Control_c, 0, 64, 93
1, 209494, Note_on_c, 0, 55, 41
1, 209499, Note_on_c, 0, 51, 42
1, 209505, Control_c, 0, 64, 73
1, 209520, Control_c, 0, 64, 0
1, 209609, Control_c, 0, 64, 38
1, 209624, Control_c, 0, 64, 68
1, 209639, Control_c, 0, 64, 82
1, 209654, Control_c, 0, 64, 111
1, 209669, Control_c, 0, 64, 127
1, 209711, Note_off_c, 0, 55, 62
1, 209714, Note_off_c, 0, 51, 56
1, 209718, Note_off_c, 0, 46, 53
1, 209750, Note_off_c, 0, 43, 53
1, 209849, Note_on_c, 0, 51, 46
1, 209853, Note_on_c, 0, 55, 53
1, 209920, Note_off_c, 0, 51, 56
1, 209925, Note_off_c, 0, 55, 60
1, 210024, Note_on_c, 0, 22, 64
1, 210097, Note_off_c, 0, 22, 58
1, 210100, Note_on_c, 0, 27, 59
1, 210101, Note_on_c, 0, 55, 34
1, 210137, Note_off_c, 0, 27, 60
1, 210147, Note_on_c, 0, 31, 54
1, 210181, Note_off_c, 0, 31, 56
1, 210291, Note_off_c, 0, 55, 42
1, 210314, Poly_aftertouch_c, 0, 35, 127
1, 210356, Poly_aftertouch_c, 0, 35, 0
1, 210363, Note_on_c, 0, 43, 58
1, 210440, Note_off_c, 0, 43, 45
1, 210471, Note_on_c, 0, 55, 47
1, 210472, Note_on_c, 0, 46, 59
1, 210477, Control_c, 0, 64, 104
1, 210492, Control_c, 0, 64, 76
1, 210501, Note_on_c, 0, 51, 26
1, 210507, Control_c, 0, 64, 55
1, 210522, Control_c, 0, 64, 45
1, 210536, Control_c, 0, 64, 56
1, 210551, Control_c, 0, 64, 65
1, 210566, Control_c, 0, 64, 72
1, 210581, Control_c, 0, 64, 82
1, 210596, Control_c, 0, 64, 98
1, 210611, Control_c, 0, 64, 127
1, 210616, Note_off_c, 0, 55, 57
1, 210643, Note_off_c, 0, 46, 62
1, 210647, Note_off_c, 0, 51, 43
1, 210776, Note_on_c, 0, 51, 43
1, 210787, Note_on_c, 0, 55, 41
1, 210881, Note_off_c, 0, 55, 57
1, 210899, Note_off_c, 0, 51, 36
1, 211040, Note_on_c, 0, 63, 42
1, 211040, Note_on_c, 0, 70, 43
1, 211047, Note_on_c, 0, 55, 36
1, 211069, Note_on_c, 0, 67, 45
1, 211072, Note_on_c, 0, 51, 8
1, 211122, Note_off_c, 0, 55, 54
1, 211122, Note_off_c, 0, 67, 55
1, 211130, Note_off_c, 0, 51, 50
1, 211135, Note_off_c, 0, 70, 58
1, 211139, Note_off_c, 0, 63, 54
1, 211324, Note_on_c, 0, 60, 65
1, 211364, Note_on_c, 0, 51, 35
1, 211366, Note_on_c, 0, 55, 43
1, 211407, Note_off_c, 0, 58, 35
1, 211459, Note_off_c, 0, 55, 56
1, 211472, Note_off_c, 0, 51, 36
1, 211694, Note_on_c, 0, 58, 64
1, 211736, Note_on_c, 0, 55, 49
1, 211751, Note_on_c, 0, 51, 41
1, 211796, Control_c, 0, 64, 109
1, 211803, Note_off_c, 0, 60, 52
1, 211811, Control_c, 0, 64, 79
1, 211825, Control_c, 0, 64, 62
1, 211840, Control_c, 0, 64, 56
1, 211855, Control_c, 0, 64, 64
1, 211869, Control_c, 0, 64, 68
1, 211884, Control_c, 0, 64, 74
1, 211899, Control_c, 0, 64, 85
1, 211914, Control_c, 0, 64, 99
1, 211921, Note_off_c, 0, 55, 59
1, 211923, Note_off_c, 0, 51, 56
1, 211929, Control_c, 0, 64, 127
1, 212046, Note_on_c, 0, 51, 39
1, 212048, Note_on_c, 0, 55, 50
1, 212111, Note_off_c, 0, 55, 58
1, 212123, Note_off_c, 0, 51, 55
1, 212166, Note_on_c, 0, 22, 46
1, 212238, Note_off_c, 0, 22, 55
1, 212248, Note_on_c, 0, 27, 52
1, 212265, Note_on_c, 0, 55, 47
1, 212275, Note_on_c, 0, 51, 34
1, 212286, Note_off_c, 0, 27, 59
1, 212311, Note_on_c, 0, 31, 43
1, 212331, Note_off_c, 0, 51, 54
1, 212343, Note_off_c, 0, 55, 58
1, 212352, Note_off_c, 0, 31, 48
1, 212402, Note_on_c, 0, 34, 56
1, 212447, Note_off_c, 0, 34, 60
1, 212456, Note_on_c, 0, 39, 63
1, 212491, Note_off_c, 0, 39, 61
1, 212527, Note_on_c, 0, 43, 57
1, 212588, Note_off_c, 0, 43, 52
1, 212619, Note_on_c, 0, 46, 63
1, 212634, Control_c, 0, 64, 116
1, 212636, Note_on_c, 0, 55, 48
1, 212644, Note_on_c, 0, 51, 42
1, 212648, Control_c, 0, 64, 82
1, 212663, Control_c, 0, 64, 66
1, 212678, Control_c, 0, 64, 52
1, 212692, Control_c, 0, 64, 56
1, 212707, Control_c, 0, 64, 64
1, 212722, Control_c, 0, 64, 70
1, 212737, Control_c, 0, 64, 78
1, 212749, Note_off_c, 0, 55, 52
1, 212752, Control_c, 0, 64, 94
1, 212753, Note_off_c, 0, 51, 47
1, 212766, Control_c, 0, 64, 127
1, 212776, Note_off_c, 0, 46, 60
1, 212897, Note_on_c, 0, 55, 47
1, 212900, Note_on_c, 0, 51, 39
1, 212966, Note_off_c, 0, 51, 53
1, 212974, Note_off_c, 0, 55, 53
1, 213138, Note_on_c, 0, 55, 43
1, 213156, Note_on_c, 0, 67, 44
1, 213157, Note_on_c, 0, 70, 39
1, 213161, Note_on_c, 0, 51, 35
1, 213167, Note_on_c, 0, 63, 28
1, 213198, Note_off_c, 0, 55, 48
1, 213207, Note_off_c, 0, 51, 50
1, 213347, Note_on_c, 0, 60, 65
1, 213374, Note_on_c, 0, 55, 47
1, 213392, Note_on_c, 0, 51, 21
1, 213424, Note_off_c, 0, 58, 39
1, 213428, Note_off_c, 0, 55, 56
1, 213433, Note_off_c, 0, 51, 52
1, 213610, Note_on_c, 0, 58, 72
1, 213621, Control_c, 0, 64, 112
1, 213636, Control_c, 0, 64, 83
1, 213640, Note_on_c, 0, 55, 57
1, 213647, Note_on_c, 0, 51, 43
1, 213651, Control_c, 0, 64, 65
1, 213665, Control_c, 0, 64, 36
1, 213680, Control_c, 0, 64, 46
1, 213687, Note_off_c, 0, 60, 57
1, 213702, Control_c, 0, 64, 63
1, 213717, Control_c, 0, 64, 68
1, 213732, Control_c, 0, 64, 76
1, 213747, Control_c, 0, 64, 88
1, 213760, Note_off_c, 0, 51, 52
1, 213762, Control_c, 0, 64, 108
1, 213768, Note_off_c, 0, 55, 59
1, 213777, Control_c, 0, 64, 127
1, 213855, Note_on_c, 0, 55, 45
1, 213863, Note_on_c, 0, 51, 43
1, 213932, Note_off_c, 0, 70, 38
1, 213937, Note_off_c, 0, 55, 57
1, 213938, Note_off_c, 0, 63, 43
1, 213947, Note_off_c, 0, 67, 37
1, 213954, Note_off_c, 0, 51, 39
1, 214083, Note_on_c, 0, 63, 41
1, 214084, Note_on_c, 0, 70, 45
1, 214089, Note_on_c, 0, 67, 49
1, 214092, Note_on_c, 0, 55, 40
1, 214093, Note_on_c, 0, 51, 35
1, 214145, Note_off_c, 0, 51, 57
1, 214147, Note_off_c, 0, 55, 58
1, 214298, Note_on_c, 0, 60, 66
1, 214326, Note_on_c, 0, 51, 40
1, 214332, Note_on_c, 0, 55, 46
1, 214365, Note_off_c, 0, 51, 52
1, 214370, Note_off_c, 0, 55, 60
1, 214380, Note_off_c, 0, 58, 53
1, 214570, Note_on_c, 0, 58, 70
1, 214584, Control_c, 0, 64, 92
1, 214597, Note_on_c, 0, 55, 49
1, 214599, Control_c, 0, 64, 72
1, 214605, Note_on_c, 0, 51, 36
1, 214614, Control_c, 0, 64, 60
1, 214629, Control_c, 0, 64, 57
1, 214643, Note_off_c, 0, 60, 56
1, 214643, Control_c, 0, 64, 62
1, 214658, Control_c, 0, 64, 65
1, 214673, Control_c, 0, 64, 69
1, 214688, Control_c, 0, 64, 76
1, 214702, Control_c, 0, 64, 86
1, 214717, Control_c, 0, 64, 99
1, 214725, Note_off_c, 0, 55, 58
1, 214732, Control_c, 0, 64, 114
1, 214747, Control_c, 0, 64, 127
1, 214753, Note_off_c, 0, 51, 50
1, 214847, Note_on_c, 0, 51, 34
1, 214847, Note_on_c, 0, 55, 49
1, 214877, Note_off_c, 0, 67, 52
1, 214879, Note_off_c, 0, 70, 49
1, 214894, Note_off_c, 0, 63, 38
1, 214918, Note_off_c, 0, 55, 52
1, 214947, Note_off_c, 0, 51, 39
1, 215069, Note_on_c, 0, 70, 33
1, 215070, Note_on_c, 0, 55, 45
1, 215078, Note_on_c, 0, 51, 36
1, 215078, Note_on_c, 0, 67, 43
1, 215085, Note_on_c, 0, 63, 36
1, 215127, Note_off_c, 0, 55, 56
1, 215128, Note_off_c, 0, 51, 56
1, 215312, Note_on_c, 0, 60, 65
1, 215333, Note_on_c, 0, 51, 45
1, 215336, Note_on_c, 0, 55, 49
1, 215374, Note_off_c, 0, 58, 39
1, 215376, Note_off_c, 0, 51, 55
1, 215376, Note_off_c, 0, 55, 59
1, 215654, Note_on_c, 0, 58, 54
1, 215672, Note_on_c, 0, 51, 40
1, 215673, Control_c, 0, 64, 96
1, 215675, Note_on_c, 0, 55, 45
1, 215680, Note_off_c, 0, 60, 52
1, 215688, Control_c, 0, 64, 77
1, 215703, Control_c, 0, 64, 58
1, 215717, Control_c, 0, 64, 0
1, 215777, Control_c, 0, 64, 48
1, 215792, Control_c, 0, 64, 65
1, 215807, Control_c, 0, 64, 73
1, 215822, Control_c, 0, 64, 83
1, 215836, Control_c, 0, 64, 98
1, 215851, Control_c, 0, 64, 117
1, 215866, Control_c, 0, 64, 127
1, 215880, Note_off_c, 0, 55, 52
1, 215893, Note_off_c, 0, 51, 44
1, 216022, Note_on_c, 0, 51, 38
1, 216035, Note_on_c, 0, 55, 35
1, 216096, Note_off_c, 0, 51, 49
1, 216096, Note_off_c, 0, 67, 37
1, 216097, Note_off_c, 0, 63, 37
1, 216102, Note_off_c, 0, 70, 35
1, 216102, Note_off_c, 0, 55, 51
1, 216273, Note_on_c, 0, 70, 37
1, 216287, Note_on_c, 0, 63, 38
1, 216290, Note_on_c, 0, 67, 47
1, 216294, Note_on_c, 0, 55, 32
1, 216306, Note_on_c, 0, 51, 25
1, 216344, Note_off_c, 0, 55, 50
1, 216352, Note_off_c, 0, 67, 49
1, 216358, Note_off_c, 0, 51, 46
1, 216359, Note_off_c, 0, 63, 53
1, 216376, Note_off_c, 0, 70, 38
1, 216537, Note_on_c, 0, 51, 33
1, 216543, Note_on_c, 0, 55, 37
1, 216611, Note_off_c, 0, 55, 53
1, 216612, Note_off_c, 0, 51, 49
1, 216777, Note_on_c, 0, 51, 40
1, 216782, Note_on_c, 0, 55, 38
1, 216842, Note_off_c, 0, 55, 54
1, 216850, Note_off_c, 0, 51, 46
1, 217020, Note_on_c, 0, 55, 42
1, 217022, Note_on_c, 0, 51, 35
1, 217078, Note_off_c, 0, 55, 56
1, 217083, Note_off_c, 0, 51, 53
1, 217235, Note_on_c, 0, 22, 44
1, 217254, Note_on_c, 0, 55, 40
1, 217291, Note_off_c, 0, 22, 55
1, 217294, Poly_aftertouch_c, 0, 51, 127
1, 217309, Note_on_c, 0, 27, 49
1, 217352, Note_off_c, 0, 27, 50
1, 217379, Note_on_c, 0, 31, 42
1, 217419, Note_off_c, 0, 31, 49
1, 217482, Note_on_c, 0, 34, 49
1, 217512, Poly_aftertouch_c, 0, 51, 0
1, 217528, Note_off_c, 0, 34, 60
1, 217539, Note_on_c, 0, 39, 61
1, 217548, Note_off_c, 0, 55, 40
1, 217583, Note_off_c, 0, 39, 59
1, 217631, Note_on_c, 0, 43, 54
1, 217747, Note_on_c, 0, 46, 69
1, 217773, Control_c, 0, 64, 126
1, 217781, Note_on_c, 0, 55, 40
1, 217785, Note_off_c, 0, 43, 53
1, 217788, Control_c, 0, 64, 94
1, 217802, Control_c, 0, 64, 80
1, 217817, Control_c, 0, 64, 70
1, 217820, Note_on_c, 0, 51, 12
1, 217832, Control_c, 0, 64, 64
1, 217846, Control_c, 0, 64, 63
1, 217876, Control_c, 0, 64, 64
1, 217891, Control_c, 0, 64, 65
1, 217906, Control_c, 0, 64, 66
1, 217920, Control_c, 0, 64, 68
1, 217923, Note_off_c, 0, 51, 40
1, 217929, Note_off_c, 0, 55, 57
1, 217935, Control_c, 0, 64, 71
1, 217950, Control_c, 0, 64, 75
1, 217965, Control_c, 0, 64, 79
1, 217980, Control_c, 0, 64, 84
1, 217995, Control_c, 0, 64, 87
1, 218010, Control_c, 0, 64, 90
1, 218024, Control_c, 0, 64, 91
1, 218039, Control_c, 0, 64, 93
1, 218054, Control_c, 0, 64, 94
1, 218069, Control_c, 0, 64, 96
1, 218076, Note_on_c, 0, 55, 44
1, 218084, Control_c, 0, 64, 97
1, 218099, Control_c, 0, 64, 98
1, 218105, Note_on_c, 0, 51, 30
1, 218113, Control_c, 0, 64, 101
1, 218128, Control_c, 0, 64, 104
1, 218143, Control_c, 0, 64, 107
1, 218158, Control_c, 0, 64, 111
1, 218173, Control_c, 0, 64, 114
1, 218181, Note_off_c, 0, 51, 42
1, 218194, Control_c, 0, 64, 117
1, 218197, Note_off_c, 0, 55, 55
1, 218209, Control_c, 0, 64, 119
1, 218224, Control_c, 0, 64, 120
1, 218239, Control_c, 0, 64, 121
1, 218254, Control_c, 0, 64, 122
1, 218388, Note_on_c, 0, 55, 35
1, 218409, Note_on_c, 0, 51, 34
1, 218478, Note_off_c, 0, 51, 51
1, 218537, Note_off_c, 0, 55, 35
1, 218684, Control_c, 0, 64, 121
1, 218699, Control_c, 0, 64, 120
1, 218714, Control_c, 0, 64, 112
1, 218717, Note_on_c, 0, 48, 57
1, 218729, Control_c, 0, 64, 104
1, 218734, Note_on_c, 0, 55, 38
1, 218743, Control_c, 0, 64, 91
1, 218752, Note_on_c, 0, 51, 31
1, 218758, Control_c, 0, 64, 78
1, 218761, Note_off_c, 0, 46, 53
1, 218773, Control_c, 0, 64, 67
1, 218788, Control_c, 0, 64, 58
1, 218803, Control_c, 0, 64, 56
1, 218817, Control_c, 0, 64, 59
1, 218832, Control_c, 0, 64, 64
1, 218847, Control_c, 0, 64, 66
1, 218862, Control_c, 0, 64, 70
1, 218877, Control_c, 0, 64, 74
1, 218892, Control_c, 0, 64, 78
1, 218907, Control_c, 0, 64, 82
1, 218922, Control_c, 0, 64, 85
1, 218943, Control_c, 0, 64, 89
1, 218958, Note_off_c, 0, 55, 42
1, 218958, Control_c, 0, 64, 91
1, 218967, Note_off_c, 0, 51, 47
1, 218973, Control_c, 0, 64, 93
1, 218988, Control_c, 0, 64, 95
1, 219003, Control_c, 0, 64, 97
1, 219017, Control_c, 0, 64, 98
1, 219047, Control_c, 0, 64, 99
1, 219077, Control_c, 0, 64, 99
1, 219092, Control_c, 0, 64, 100
1, 219107, Control_c, 0, 64, 100
1, 219211, Note_on_c, 0, 46, 55
1, 219226, Note_on_c, 0, 55, 39
1, 219247, Note_on_c, 0, 51, 37
1, 219256, Control_c, 0, 64, 99
1, 219263, Note_off_c, 0, 48, 57
1, 219270, Control_c, 0, 64, 93
1, 219285, Control_c, 0, 64, 82
1, 219300, Control_c, 0, 64, 70
1, 219315, Control_c, 0, 64, 52
1, 219330, Control_c, 0, 64, 0
1, 219419, Control_c, 0, 64, 57
1, 219433, Control_c, 0, 64, 67
1, 219448, Control_c, 0, 64, 74
1, 219463, Control_c, 0, 64, 80
1, 219478, Control_c, 0, 64, 86
1, 219492, Control_c, 0, 64, 91
1, 219507, Control_c, 0, 64, 97
1, 219518, Note_off_c, 0, 51, 47
1, 219522, Control_c, 0, 64, 103
1, 219524, Note_off_c, 0, 55, 42
1, 219537, Control_c, 0, 64, 110
1, 219552, Control_c, 0, 64, 123
1, 219566, Control_c, 0, 64, 127
1, 219664, Note_on_c, 0, 55, 29
1, 219671, Note_on_c, 0, 51, 25
1, 219779, Note_off_c, 0, 51, 38
1, 219804, Note_off_c, 0, 55, 42
1, 219944, Note_on_c, 0, 55, 34
1, 219980, Note_on_c, 0, 51, 27
1, 220035, Note_off_c, 0, 51, 46
1, 220046, Note_off_c, 0, 55, 37
1, 220224, Note_on_c, 0, 55, 28
1, 220275, Poly_aftertouch_c, 0, 51, 127
1, 220320, Note_off_c, 0, 55, 33
1, 220343, Poly_aftertouch_c, 0, 51, 0
1, 220534, Note_on_c, 0, 55, 35
1, 220535, Note_on_c, 0, 51, 33
1, 220624, Note_off_c, 0, 51, 39
1, 220648, Note_off_c, 0, 55, 34
1, 220895, Note_on_c, 0, 55, 35
1, 220903, Note_on_c, 0, 51, 35
1, 221315, Note_off_c, 0, 55, 32
1, 221350, Note_off_c, 0, 51, 34
1, 221906, Note_on_c, 0, 55, 34
1, 221935, Note_on_c, 0, 51, 31
1, 222115, Control_c, 0, 64, 115
1, 222130, Control_c, 0, 64, 109
1, 222145, Control_c, 0, 64, 104
1, 222159, Control_c, 0, 64, 100
1, 222174, Control_c, 0, 64, 96
1, 222189, Control_c, 0, 64, 92
1, 222204, Control_c, 0, 64, 89
1, 222219, Control_c, 0, 64, 87
1, 222234, Control_c, 0, 64, 85
1, 222248, Control_c, 0, 64, 84
1, 222263, Control_c, 0, 64, 84
1, 222278, Control_c, 0, 64, 83
1, 222293, Control_c, 0, 64, 82
1, 222308, Control_c, 0, 64, 80
1, 222323, Control_c, 0, 64, 79
1, 222338, Control_c, 0, 64, 78
1, 222382, Control_c, 0, 64, 77
1, 222412, Control_c, 0, 64, 77
1, 222427, Control_c, 0, 64, 76
1, 222442, Control_c, 0, 64, 76
1, 222472, Control_c, 0, 64, 75
1, 222516, Control_c, 0, 64, 75
1, 222531, Control_c, 0, 64, 74
1, 222561, Control_c, 0, 64, 74
1, 222576, Control_c, 0, 64, 73
1, 222590, Control_c, 0, 64, 72
1, 222605, Control_c, 0, 64, 72
1, 222634, Control_c, 0, 64, 71
1, 222649, Control_c, 0, 64, 71
1, 222687, Control_c, 0, 64, 70
1, 222716, Control_c, 0, 64, 70
1, 222761, Control_c, 0, 64, 69
1, 222790, Control_c, 0, 64, 69
1, 222805, Control_c, 0, 64, 68
1, 222850, Control_c, 0, 64, 68
1, 222895, Control_c, 0, 64, 67
1, 222924, Control_c, 0, 64, 67
1, 222969, Control_c, 0, 64, 66
1, 222998, Control_c, 0, 64, 66
1, 223042, Control_c, 0, 64, 65
1, 223072, Control_c, 0, 64, 65
1, 223116, Control_c, 0, 64, 64
1, 223221, Control_c, 0, 64, 65
1, 223250, Control_c, 0, 64, 65
1, 223265, Control_c, 0, 64, 66
1, 223295, Control_c, 0, 64, 67
1, 223310, Control_c, 0, 64, 68
1, 223325, Control_c, 0, 64, 69
1, 223339, Control_c, 0, 64, 70
1, 223354, Control_c, 0, 64, 71
1, 223369, Control_c, 0, 64, 72
1, 223384, Control_c, 0, 64, 74
1, 223399, Control_c, 0, 64, 75
1, 223414, Control_c, 0, 64, 77
1, 223436, Control_c, 0, 64, 78
1, 223451, Control_c, 0, 64, 79
1, 223465, Control_c, 0, 64, 80
1, 223480, Control_c, 0, 64, 82
1, 223495, Control_c, 0, 64, 84
1, 223510, Control_c, 0, 64, 85
1, 223525, Control_c, 0, 64, 87
1, 223539, Control_c, 0, 64, 89
1, 223554, Control_c, 0, 64, 91
1, 223569, Control_c, 0, 64, 93
1, 223584, Control_c, 0, 64, 95
1, 223599, Control_c, 0, 64, 97
1, 223614, Control_c, 0, 64, 100
1, 223629, Control_c, 0, 64, 102
1, 223643, Control_c, 0, 64, 104
1, 223658, Control_c, 0, 64, 106
1, 223673, Control_c, 0, 64, 109
1, 223688, Control_c, 0, 64, 111
1, 223703, Control_c, 0, 64, 112
1, 223718, Control_c, 0, 64, 114
1, 223732, Control_c, 0, 64, 116
1, 223747, Control_c, 0, 64, 119
1, 223762, Control_c, 0, 64, 127
1, 224163, Note_off_c, 0, 51, 39
1, 224395, Note_off_c, 0, 46, 37
1, 224565, Note_off_c, 0, 55, 34
1, 224690, Note_off_c, 0, 58, 40
1, 224852, Control_c, 0, 64, 116
1, 224867, Control_c, 0, 64, 110
1, 224882, Control_c, 0, 64, 106
1, 224896, Control_c, 0, 64, 102
1, 224911, Control_c, 0, 64, 99
1, 224934, Control_c, 0, 64, 97
1, 224949, Control_c, 0, 64, 94
1, 224964, Control_c, 0, 64, 92
1, 224978, Control_c, 0, 64, 90
1, 224993, Control_c, 0, 64, 88
1, 225008, Control_c, 0, 64, 87
1, 225023, Control_c, 0, 64, 85
1, 225037, Control_c, 0, 64, 83
1, 225052, Control_c, 0, 64, 82
1, 225066, Control_c, 0, 64, 80
1, 225081, Control_c, 0, 64, 79
1, 225096, Control_c, 0, 64, 78
1, 225110, Control_c, 0, 64, 76
1, 225125, Control_c, 0, 64, 73
1, 225140, Control_c, 0, 64, 71
1, 225155, Control_c, 0, 64, 68
1, 225170, Control_c, 0, 64, 67
1, 225185, Control_c, 0, 64, 66
1, 225200, Control_c, 0, 64, 64
1, 225214, Control_c, 0, 64, 62
1, 225229, Control_c, 0, 64, 55
1, 225244, Control_c, 0, 64, 42
1, 225259, Control_c, 0, 64, 26
1, 225274, Control_c, 0, 64, 14
1, 225289, Control_c, 0, 64, 0
1, 225436, Control_c, 0, 64, 11
1, 225451, Control_c, 0, 64, 38
1, 225466, Control_c, 0, 64, 51
1, 225481, Control_c, 0, 64, 59
1, 225496, Control_c, 0, 64, 63
1, 225510, Control_c, 0, 64, 65
1, 225525, Control_c, 0, 64, 66
1, 225540, Control_c, 0, 64, 68
1, 225554, Control_c, 0, 64, 69
1, 225569, Control_c, 0, 64, 70
1, 225584, Control_c, 0, 64, 71
1, 225600, Control_c, 0, 64, 72
1, 225615, Control_c, 0, 64, 72
1, 225630, Control_c, 0, 64, 73
1, 225644, Control_c, 0, 64, 73
1, 225659, Control_c, 0, 64, 74
1, 225682, Control_c, 0, 64, 75
1, 225697, Control_c, 0, 64, 76
1, 225712, Control_c, 0, 64, 77
1, 225726, Control_c, 0, 64, 78
1, 225741, Control_c, 0, 64, 79
1, 225751, Note_on_c, 0, 33, 31
1, 225756, Control_c, 0, 64, 80
1, 225786, Control_c, 0, 64, 80
1, 225800, Control_c, 0, 64, 81
1, 225816, Control_c, 0, 64, 82
1, 225831, Control_c, 0, 64, 82
1, 225846, Control_c, 0, 64, 83
1, 225897, Note_on_c, 0, 34, 43
1, 225908, Note_off_c, 0, 33, 36
1, 225948, Note_off_c, 0, 34, 61
1, 226007, Note_on_c, 0, 38, 39
1, 226038, Control_c, 0, 64, 82
1, 226052, Control_c, 0, 64, 82
1, 226067, Note_off_c, 0, 38, 56
1, 226067, Control_c, 0, 64, 81
1, 226081, Note_on_c, 0, 39, 52
1, 226082, Control_c, 0, 64, 81
1, 226127, Control_c, 0, 64, 80
1, 226138, Note_off_c, 0, 39, 62
1, 226156, Note_on_c, 0, 42, 50
1, 226171, Control_c, 0, 64, 80
1, 226186, Note_off_c, 0, 42, 64
1, 226231, Control_c, 0, 64, 79
1, 226237, Note_on_c, 0, 43, 54
1, 226260, Control_c, 0, 64, 79
1, 226275, Control_c, 0, 64, 78
1, 226286, Note_off_c, 0, 43, 57
1, 226287, Note_on_c, 0, 45, 56
1, 226290, Control_c, 0, 64, 78
1, 226305, Control_c, 0, 64, 77
1, 226320, Control_c, 0, 64, 76
1, 226334, Note_on_c, 0, 46, 65
1, 226334, Control_c, 0, 64, 75
1, 226349, Control_c, 0, 64, 74
1, 226354, Note_off_c, 0, 45, 62
1, 226364, Control_c, 0, 64, 74
1, 226378, Control_c, 0, 64, 73
1, 226381, Note_off_c, 0, 46, 63
1, 226389, Note_on_c, 0, 50, 63
1, 226393, Control_c, 0, 64, 73
1, 226409, Control_c, 0, 64, 72
1, 226430, Note_off_c, 0, 50, 65
1, 226431, Note_on_c, 0, 51, 61
1, 226431, Control_c, 0, 64, 71
1, 226446, Control_c, 0, 64, 70
1, 226461, Control_c, 0, 64, 69
1, 226476, Control_c, 0, 64, 69
1, 226484, Note_off_c, 0, 51, 63
1, 226487, Note_on_c, 0, 54, 63
1, 226490, Control_c, 0, 64, 68
1, 226505, Control_c, 0, 64, 68
1, 226520, Control_c, 0, 64, 67
1, 226523, Note_off_c, 0, 54, 67
1, 226535, Control_c, 0, 64, 67
1, 226536, Note_on_c, 0, 55, 65
1, 226580, Control_c, 0, 64, 66
1, 226596, Note_on_c, 0, 57, 59
1, 226598, Note_off_c, 0, 55, 62
1, 226622, Note_on_c, 0, 58, 73
1, 226624, Control_c, 0, 64, 66
1, 226647, Note_off_c, 0, 57, 59
1, 226670, Note_on_c, 0, 62, 70
1, 226673, Note_off_c, 0, 58, 63
1, 226699, Note_off_c, 0, 62, 65
1, 226713, Control_c, 0, 64, 65
1, 226723, Note_on_c, 0, 63, 65
1, 226728, Control_c, 0, 64, 65
1, 226743, Control_c, 0, 64, 64
1, 226757, Control_c, 0, 64, 64
1, 226765, Note_on_c, 0, 66, 71
1, 226772, Note_off_c, 0, 63, 62
1, 226772, Control_c, 0, 64, 63
1, 226787, Control_c, 0, 64, 62
1, 226788, Note_off_c, 0, 66, 64
1, 226801, Control_c, 0, 64, 61
1, 226805, Note_on_c, 0, 67, 66
1, 226816, Control_c, 0, 64, 60
1, 226831, Control_c, 0, 64, 60
1, 226846, Control_c, 0, 64, 59
1, 226851, Note_on_c, 0, 69, 68
1, 226866, Note_off_c, 0, 67, 59
1, 226878, Note_on_c, 0, 70, 79
1, 226906, Note_off_c, 0, 69, 63
1, 226930, Note_on_c, 0, 74, 77
1, 226931, Note_off_c, 0, 70, 65
1, 226957, Note_off_c, 0, 74, 64
1, 226965, Note_on_c, 0, 75, 72
1, 227013, Note_on_c, 0, 78, 78
1, 227015, Note_off_c, 0, 75, 61
1, 227050, Note_off_c, 0, 78, 63
1, 227054, Control_c, 0, 64, 60
1, 227055, Note_on_c, 0, 79, 66
1, 227068, Control_c, 0, 64, 60
1, 227092, Note_on_c, 0, 81, 80
1, 227110, Note_off_c, 0, 79, 61
1, 227113, Control_c, 0, 64, 61
1, 227123, Note_on_c, 0, 82, 86
1, 227149, Note_off_c, 0, 81, 64
1, 227157, Control_c, 0, 64, 61
1, 227178, Note_on_c, 0, 86, 82
1, 227179, Note_off_c, 0, 82, 65
1, 227208, Note_on_c, 0, 87, 81
1, 227214, Note_off_c, 0, 86, 66
1, 227239, Control_c, 0, 64, 62
1, 227253, Note_off_c, 0, 87, 63
1, 227263, Note_on_c, 0, 90, 82
1, 227269, Control_c, 0, 64, 62
1, 227284, Note_off_c, 0, 90, 69
1, 227284, Control_c, 0, 64, 63
1, 227297, Note_on_c, 0, 91, 80
1, 227299, Control_c, 0, 64, 63
1, 227320, Note_on_c, 0, 93, 87
1, 227328, Control_c, 0, 64, 64
1, 227343, Control_c, 0, 64, 64
1, 227349, Note_off_c, 0, 91, 64
1, 227358, Control_c, 0, 64, 65
1, 227361, Note_on_c, 0, 94, 68
1, 227373, Control_c, 0, 64, 65
1, 227385, Note_off_c, 0, 93, 64
1, 227387, Note_on_c, 0, 98, 92
1, 227387, Control_c, 0, 64, 66
1, 227396, Note_off_c, 0, 94, 64
1, 227417, Control_c, 0, 64, 67
1, 227431, Note_off_c, 0, 98, 68
1, 227432, Control_c, 0, 64, 67
1, 227447, Control_c, 0, 64, 68
1, 227448, Note_on_c, 0, 99, 76
1, 227462, Control_c, 0, 64, 68
1, 227467, Note_off_c, 0, 99, 59
1, 227476, Note_on_c, 0, 100, 53
1, 227489, Note_on_c, 0, 102, 67
1, 227492, Control_c, 0, 64, 69
1, 227497, Note_off_c, 0, 100, 39
1, 227514, Note_off_c, 0, 102, 64
1, 227521, Note_on_c, 0, 103, 81
1, 227521, Control_c, 0, 64, 69
1, 227566, Note_on_c, 0, 95, 83
1, 227572, Note_off_c, 0, 103, 63
1, 227580, Control_c, 0, 64, 70
1, 227595, Control_c, 0, 64, 71
1, 227610, Control_c, 0, 64, 73
1, 227615, Note_on_c, 0, 96, 75
1, 227617, Note_off_c, 0, 95, 65
1, 227624, Control_c, 0, 64, 75
1, 227639, Control_c, 0, 64, 78
1, 227644, Note_on_c, 0, 101, 89
1, 227654, Control_c, 0, 64, 82
1, 227659, Note_off_c, 0, 96, 65
1, 227669, Control_c, 0, 64, 86
1, 227684, Control_c, 0, 64, 93
1, 227698, Control_c, 0, 64, 100
1, 227703, Note_off_c, 0, 101, 65
1, 227713, Control_c, 0, 64, 109
1, 227719, Note_on_c, 0, 98, 60
1, 227728, Control_c, 0, 64, 121
1, 227730, Note_on_c, 0, 97, 49
1, 227743, Control_c, 0, 64, 127
1, 227752, Note_off_c, 0, 97, 61
1, 227760, Note_on_c, 0, 99, 77
1, 227766, Note_off_c, 0, 98, 65
1, 227805, Note_on_c, 0, 103, 74
1, 227809, Note_off_c, 0, 99, 65
1, 227817, Control_c, 0, 67, 126
1, 227832, Control_c, 0, 67, 124
1, 227835, Note_off_c, 0, 103, 62
1, 227847, Note_on_c, 0, 95, 81
1, 227847, Control_c, 0, 67, 122
1, 227861, Control_c, 0, 67, 119
1, 227876, Control_c, 0, 67, 117
1, 227890, Note_on_c, 0, 96, 79
1, 227891, Control_c, 0, 67, 114
1, 227899, Note_off_c, 0, 95, 63
1, 227906, Control_c, 0, 67, 110
1, 227928, Control_c, 0, 67, 106
1, 227942, Note_on_c, 0, 101, 87
1, 227943, Control_c, 0, 67, 103
1, 227950, Note_off_c, 0, 96, 66
1, 227957, Control_c, 0, 67, 99
1, 227972, Control_c, 0, 67, 94
1, 227987, Control_c, 0, 67, 91
1, 227989, Note_on_c, 0, 98, 76
1, 227990, Note_off_c, 0, 101, 65
1, 228003, Control_c, 0, 67, 88
1, 228018, Control_c, 0, 67, 86
1, 228024, Note_on_c, 0, 99, 81
1, 228033, Control_c, 0, 67, 85
1, 228034, Note_off_c, 0, 98, 66
1, 228047, Control_c, 0, 67, 84
1, 228062, Control_c, 0, 67, 83
1, 228077, Control_c, 0, 67, 82
1, 228079, Note_on_c, 0, 103, 83
1, 228081, Note_off_c, 0, 99, 65
1, 228092, Control_c, 0, 67, 82
1, 228107, Control_c, 0, 67, 81
1, 228118, Note_on_c, 0, 95, 86
1, 228122, Control_c, 0, 67, 80
1, 228124, Note_off_c, 0, 103, 64
1, 228136, Control_c, 0, 67, 79
1, 228151, Control_c, 0, 67, 78
1, 228172, Note_off_c, 0, 95, 66
1, 228174, Note_on_c, 0, 96, 78
1, 228202, Note_on_c, 0, 101, 95
1, 228217, Note_off_c, 0, 96, 66
1, 228253, Note_off_c, 0, 101, 65
1, 228263, Note_on_c, 0, 98, 75
1, 228296, Note_on_c, 0, 99, 87
1, 228315, Note_off_c, 0, 98, 66
1, 228344, Note_on_c, 0, 103, 88
1, 228354, Note_off_c, 0, 99, 65
1, 228359, Control_c, 0, 67, 78
1, 228389, Note_on_c, 0, 95, 84
1, 228393, Note_off_c, 0, 103, 66
1, 228443, Note_on_c, 0, 96, 81
1, 228449, Note_off_c, 0, 95, 62
1, 228479, Note_on_c, 0, 101, 83
1, 228490, Note_off_c, 0, 96, 66
1, 228533, Note_on_c, 0, 98, 65
1, 228535, Note_off_c, 0, 101, 64
1, 228566, Control_c, 0, 67, 78
1, 228580, Control_c, 0, 67, 79
1, 228583, Note_on_c, 0, 99, 77
1, 228593, Note_off_c, 0, 98, 65
1, 228595, Control_c, 0, 67, 80
1, 228610, Control_c, 0, 67, 80
1, 228625, Control_c, 0, 67, 81
1, 228639, Control_c, 0, 67, 81
1, 228642, Note_off_c, 0, 99, 65
1, 228654, Control_c, 0, 67, 82
1, 228687, Note_on_c, 0, 103, 84
1, 228692, Control_c, 0, 67, 83
1, 228721, Control_c, 0, 67, 83
1, 228736, Control_c, 0, 67, 84
1, 228766, Control_c, 0, 67, 84
1, 228871, Control_c, 0, 67, 84
1, 228901, Control_c, 0, 64, 100
1, 228916, Control_c, 0, 64, 83
1, 228931, Control_c, 0, 64, 72
1, 228945, Control_c, 0, 64, 63
1, 228960, Control_c, 0, 64, 43
1, 228975, Control_c, 0, 64, 0
1, 229093, Control_c, 0, 64, 61
1, 229108, Control_c, 0, 64, 69
1, 229123, Control_c, 0, 64, 75
1, 229138, Control_c, 0, 64, 83
1, 229152, Control_c, 0, 64, 93
1, 229167, Control_c, 0, 64, 108
1, 229182, Control_c, 0, 64, 127
1, 229350, Note_on_c, 0, 98, 61
1, 229396, Note_off_c, 0, 103, 62
1, 229501, Control_c, 0, 67, 84
1, 229516, Note_on_c, 0, 101, 66
1, 229531, Control_c, 0, 67, 85
1, 229584, Note_off_c, 0, 98, 61
1, 229605, Control_c, 0, 67, 85
1, 229617, Note_on_c, 0, 99, 71
1, 229641, Note_off_c, 0, 101, 55
1, 229649, Control_c, 0, 67, 86
1, 229679, Control_c, 0, 67, 86
1, 229691, Note_off_c, 0, 99, 64
1, 229704, Note_on_c, 0, 93, 71
1, 229758, Note_off_c, 0, 93, 60
1, 229765, Note_on_c, 0, 96, 75
1, 229838, Note_on_c, 0, 94, 73
1, 229860, Note_off_c, 0, 96, 60
1, 229886, Note_off_c, 0, 94, 63
1, 229896, Note_on_c, 0, 90, 80
1, 229959, Note_off_c, 0, 90, 65
1, 229966, Note_on_c, 0, 92, 77
1, 230020, Note_on_c, 0, 91, 82
1, 230033, Note_off_c, 0, 92, 65
1, 230070, Note_off_c, 0, 91, 63
1, 230095, Note_on_c, 0, 86, 75
1, 230139, Note_off_c, 0, 86, 62
1, 230153, Note_on_c, 0, 89, 72
1, 230175, Control_c, 0, 67, 86
1, 230213, Note_on_c, 0, 87, 77
1, 230223, Note_off_c, 0, 89, 57
1, 230264, Note_off_c, 0, 87, 63
1, 230274, Note_on_c, 0, 81, 74
1, 230330, Note_off_c, 0, 81, 53
1, 230343, Note_on_c, 0, 84, 66
1, 230392, Note_on_c, 0, 82, 70
1, 230402, Note_off_c, 0, 84, 63
1, 230424, Note_off_c, 0, 82, 64
1, 230442, Control_c, 0, 67, 85
1, 230457, Control_c, 0, 67, 85
1, 230460, Note_on_c, 0, 78, 78
1, 230511, Note_off_c, 0, 78, 62
1, 230516, Control_c, 0, 64, 89
1, 230520, Note_on_c, 0, 80, 70
1, 230531, Control_c, 0, 64, 69
1, 230546, Control_c, 0, 64, 62
1, 230567, Note_on_c, 0, 79, 73
1, 230577, Note_off_c, 0, 80, 63
1, 230590, Control_c, 0, 64, 61
1, 230613, Note_off_c, 0, 79, 58
1, 230620, Control_c, 0, 64, 62
1, 230628, Note_on_c, 0, 74, 79
1, 230635, Control_c, 0, 64, 64
1, 230649, Control_c, 0, 64, 66
1, 230664, Control_c, 0, 64, 68
1, 230678, Note_off_c, 0, 74, 63
1, 230679, Control_c, 0, 64, 70
1, 230691, Note_on_c, 0, 77, 68
1, 230694, Control_c, 0, 64, 71
1, 230709, Control_c, 0, 64, 73
1, 230709, Control_c, 0, 67, 85
1, 230723, Control_c, 0, 64, 75
1, 230729, Note_on_c, 0, 75, 78
1, 230738, Control_c, 0, 64, 77
1, 230738, Control_c, 0, 67, 86
1, 230740, Note_off_c, 0, 77, 60
1, 230753, Control_c, 0, 64, 77
1, 230768, Control_c, 0, 67, 86
1, 230782, Note_off_c, 0, 75, 63
1, 230797, Note_on_c, 0, 69, 74
1, 230842, Control_c, 0, 64, 77
1, 230842, Control_c, 0, 67, 87
1, 230851, Note_on_c, 0, 72, 72
1, 230856, Note_off_c, 0, 69, 57
1, 230857, Control_c, 0, 64, 76
1, 230857, Control_c, 0, 67, 88
1, 230872, Control_c, 0, 64, 76
1, 230872, Control_c, 0, 67, 88
1, 230887, Control_c, 0, 64, 75
1, 230887, Control_c, 0, 67, 89
1, 230902, Control_c, 0, 64, 74
1, 230902, Control_c, 0, 67, 89
1, 230905, Note_on_c, 0, 70, 63
1, 230923, Control_c, 0, 64, 74
1, 230923, Control_c, 0, 67, 90
1, 230934, Note_off_c, 0, 72, 58
1, 230938, Control_c, 0, 64, 73
1, 230938, Control_c, 0, 67, 90
1, 230942, Note_off_c, 0, 70, 65
1, 230953, Control_c, 0, 64, 73
1, 230953, Control_c, 0, 67, 91
1, 230968, Control_c, 0, 64, 72
1, 230968, Control_c, 0, 67, 92
1, 230974, Note_on_c, 0, 66, 75
1, 230982, Control_c, 0, 64, 71
1, 230982, Control_c, 0, 67, 95
1, 230997, Control_c, 0, 64, 70
1, 230997, Control_c, 0, 67, 98
1, 231012, Control_c, 0, 64, 69
1, 231012, Control_c, 0, 67, 101
1, 231027, Control_c, 0, 64, 68
1, 231027, Control_c, 0, 67, 102
1, 231033, Note_off_c, 0, 66, 62
1, 231035, Note_on_c, 0, 68, 72
1, 231042, Control_c, 0, 64, 67
1, 231042, Control_c, 0, 67, 104
1, 231057, Control_c, 0, 64, 66
1, 231057, Control_c, 0, 67, 104
1, 231072, Control_c, 0, 64, 65
1, 231087, Control_c, 0, 64, 64
1, 231090, Note_on_c, 0, 67, 70
1, 231100, Note_off_c, 0, 68, 58
1, 231102, Control_c, 0, 64, 63
1, 231102, Control_c, 0, 67, 104
1, 231117, Control_c, 0, 64, 62
1, 231131, Control_c, 0, 64, 60
1, 231131, Control_c, 0, 67, 103
1, 231132, Note_off_c, 0, 67, 61
1, 231146, Control_c, 0, 64, 56
1, 231146, Control_c, 0, 67, 103
1, 231152, Note_on_c, 0, 62, 72
1, 231161, Control_c, 0, 64, 51
1, 231161, Control_c, 0, 67, 102
1, 231175, Control_c, 0, 64, 44
1, 231175, Control_c, 0, 67, 101
1, 231191, Control_c, 0, 64, 36
1, 231191, Control_c, 0, 67, 101
1, 231191, Note_off_c, 0, 62, 58
1, 231206, Control_c, 0, 64, 34
1, 231206, Control_c, 0, 67, 100
1, 231221, Control_c, 0, 64, 33
1, 231221, Control_c, 0, 67, 99
1, 231224, Note_on_c, 0, 65, 65
1, 231236, Control_c, 0, 64, 32
1, 231236, Control_c, 0, 67, 98
1, 231251, Control_c, 0, 67, 97
1, 231254, Note_on_c, 0, 63, 76
1, 231265, Control_c, 0, 64, 31
1, 231265, Control_c, 0, 67, 97
1, 231280, Control_c, 0, 67, 96
1, 231281, Note_off_c, 0, 65, 58
1, 231313, Note_off_c, 0, 63, 61
1, 231321, Note_on_c, 0, 57, 71
1, 231384, Control_c, 0, 64, 32
1, 231386, Note_on_c, 0, 60, 77
1, 231388, Note_off_c, 0, 57, 62
1, 231428, Control_c, 0, 64, 33
1, 231446, Note_off_c, 0, 60, 63
1, 231450, Note_on_c, 0, 58, 78
1, 231458, Control_c, 0, 67, 96
1, 231472, Control_c, 0, 67, 95
1, 231487, Control_c, 0, 67, 95
1, 231501, Note_on_c, 0, 62, 68
1, 231502, Control_c, 0, 67, 94
1, 231517, Control_c, 0, 67, 93
1, 231518, Note_off_c, 0, 58, 62
1, 231532, Control_c, 0, 67, 92
1, 231546, Control_c, 0, 67, 90
1, 231558, Note_on_c, 0, 65, 78
1, 231558, Note_off_c, 0, 62, 61
1, 231561, Control_c, 0, 67, 89
1, 231576, Control_c, 0, 67, 88
1, 231591, Control_c, 0, 67, 87
1, 231605, Control_c, 0, 67, 86
1, 231620, Control_c, 0, 67, 84
1, 231634, Note_on_c, 0, 63, 78
1, 231635, Control_c, 0, 67, 82
1, 231650, Control_c, 0, 64, 34
1, 231650, Control_c, 0, 67, 78
1, 231667, Note_off_c, 0, 65, 64
1, 231672, Control_c, 0, 67, 75
1, 231687, Control_c, 0, 67, 73
1, 231702, Note_on_c, 0, 57, 75
1, 231702, Control_c, 0, 67, 72
1, 231711, Note_off_c, 0, 63, 61
1, 231717, Control_c, 0, 67, 72
1, 231768, Note_on_c, 0, 60, 79
1, 231776, Note_off_c, 0, 57, 61
1, 231821, Control_c, 0, 67, 71
1, 231828, Note_on_c, 0, 58, 82
1, 231836, Control_c, 0, 67, 70
1, 231839, Note_off_c, 0, 60, 64
1, 231851, Control_c, 0, 64, 33
1, 231851, Control_c, 0, 67, 70
1, 231894, Note_on_c, 0, 62, 74
1, 231913, Note_off_c, 0, 58, 62
1, 231956, Note_on_c, 0, 65, 80
1, 231957, Note_off_c, 0, 62, 62
1, 231984, Control_c, 0, 64, 34
1, 232033, Note_on_c, 0, 63, 83
1, 232065, Note_off_c, 0, 65, 64
1, 232074, Control_c, 0, 64, 35
1, 232107, Note_on_c, 0, 57, 80
1, 232118, Control_c, 0, 64, 36
1, 232118, Control_c, 0, 67, 69
1, 232123, Note_off_c, 0, 63, 62
1, 232133, Control_c, 0, 64, 36
1, 232133, Control_c, 0, 67, 69
1, 232148, Control_c, 0, 64, 37
1, 232148, Control_c, 0, 67, 68
1, 232180, Note_on_c, 0, 60, 85
1, 232193, Control_c, 0, 67, 68
1, 232204, Note_off_c, 0, 57, 61
1, 232208, Control_c, 0, 64, 38
1, 232208, Control_c, 0, 67, 67
1, 232222, Control_c, 0, 67, 66
1, 232237, Control_c, 0, 64, 38
1, 232248, Note_on_c, 0, 58, 87
1, 232267, Control_c, 0, 67, 65
1, 232267, Note_off_c, 0, 60, 63
1, 232296, Control_c, 0, 67, 65
1, 232330, Note_on_c, 0, 62, 80
1, 232360, Note_off_c, 0, 58, 61
1, 232404, Note_on_c, 0, 65, 82
1, 232421, Note_off_c, 0, 62, 62
1, 232498, Note_on_c, 0, 63, 85
1, 232526, Control_c, 0, 64, 39
1, 232539, Note_off_c, 0, 65, 61
1, 232540, Control_c, 0, 64, 40
1, 232555, Control_c, 0, 64, 40
1, 232570, Control_c, 0, 64, 42
1, 232584, Note_on_c, 0, 57, 81
1, 232585, Control_c, 0, 64, 42
1, 232600, Control_c, 0, 64, 43
1, 232611, Note_off_c, 0, 63, 61
1, 232615, Control_c, 0, 64, 43
1, 232615, Control_c, 0, 67, 64
1, 232629, Control_c, 0, 64, 44
1, 232629, Control_c, 0, 67, 64
1, 232644, Control_c, 0, 67, 63
1, 232659, Control_c, 0, 64, 44
1, 232659, Control_c, 0, 67, 61
1, 232673, Note_on_c, 0, 60, 84
1, 232674, Control_c, 0, 67, 58
1, 232688, Control_c, 0, 67, 54
1, 232703, Control_c, 0, 67, 50
1, 232717, Note_off_c, 0, 57, 60
1, 232718, Control_c, 0, 67, 46
1, 232733, Control_c, 0, 67, 43
1, 232747, Control_c, 0, 67, 40
1, 232762, Control_c, 0, 67, 37
1, 232763, Note_on_c, 0, 58, 93
1, 232777, Control_c, 0, 67, 34
1, 232788, Note_off_c, 0, 60, 64
1, 232793, Control_c, 0, 67, 32
1, 232808, Control_c, 0, 67, 29
1, 232823, Control_c, 0, 67, 27
1, 232838, Control_c, 0, 64, 45
1, 232838, Control_c, 0, 67, 24
1, 232852, Control_c, 0, 67, 20
1, 232867, Control_c, 0, 67, 16
1, 232882, Control_c, 0, 64, 45
1, 232882, Control_c, 0, 67, 13
1, 232897, Control_c, 0, 67, 9
1, 232912, Control_c, 0, 64, 46
1, 232912, Control_c, 0, 67, 0
1, 232965, Note_on_c, 0, 62, 87
1, 233030, Control_c, 0, 64, 45
1, 233045, Control_c, 0, 64, 45
1, 233047, Note_off_c, 0, 58, 59
1, 233060, Control_c, 0, 64, 43
1, 233075, Control_c, 0, 64, 40
1, 233090, Control_c, 0, 64, 35
1, 233105, Control_c, 0, 64, 30
1, 233119, Control_c, 0, 64, 26
1, 233134, Control_c, 0, 64, 17
1, 233149, Control_c, 0, 64, 0
1, 233391, Control_c, 0, 64, 17
1, 233406, Control_c, 0, 64, 35
1, 233421, Control_c, 0, 64, 45
1, 233436, Control_c, 0, 64, 53
1, 233451, Control_c, 0, 64, 59
1, 233466, Control_c, 0, 64, 63
1, 233480, Control_c, 0, 64, 66
1, 233495, Control_c, 0, 64, 68
1, 233510, Control_c, 0, 64, 70
1, 233525, Control_c, 0, 64, 72
1, 233540, Control_c, 0, 64, 73
1, 233555, Control_c, 0, 64, 73
1, 233585, Control_c, 0, 64, 73
1, 233600, Control_c, 0, 64, 72
1, 233615, Control_c, 0, 64, 72
1, 233659, Control_c, 0, 64, 72
1, 233674, Control_c, 0, 64, 73
1, 233689, Control_c, 0, 64, 74
1, 233704, Control_c, 0, 64, 76
1, 233719, Control_c, 0, 64, 82
1, 233721, Note_on_c, 0, 63, 73
1, 233734, Control_c, 0, 64, 90
1, 233748, Control_c, 0, 64, 100
1, 233763, Control_c, 0, 64, 114
1, 233778, Control_c, 0, 64, 127
1, 233834, Note_off_c, 0, 62, 57
1, 233876, Note_on_c, 0, 66, 78
1, 233897, Note_off_c, 0, 63, 60
1, 233953, Note_off_c, 0, 66, 63
1, 233987, Note_on_c, 0, 67, 76
1, 234056, Note_off_c, 0, 67, 59
1, 234062, Note_on_c, 0, 69, 76
1, 234126, Note_off_c, 0, 69, 61
1, 234137, Note_on_c, 0, 70, 79
1, 234174, Note_off_c, 0, 70, 64
1, 234218, Note_on_c, 0, 74, 86
1, 234283, Note_on_c, 0, 75, 85
1, 234291, Note_off_c, 0, 74, 62
1, 234360, Note_on_c, 0, 78, 89
1, 234372, Note_off_c, 0, 75, 65
1, 234413, Note_off_c, 0, 78, 65
1, 234429, Note_on_c, 0, 79, 94
1, 234541, Note_on_c, 0, 82, 99
1, 234571, Note_off_c, 0, 79, 63
1, 234571, Control_c, 0, 64, 123
1, 234586, Control_c, 0, 64, 88
1, 234601, Control_c, 0, 64, 65
1, 234615, Control_c, 0, 64, 0
1, 234889, Control_c, 0, 64, 50
1, 234904, Control_c, 0, 64, 61
1, 234919, Control_c, 0, 64, 62
1, 234934, Control_c, 0, 64, 63
1, 234948, Control_c, 0, 64, 65
1, 234963, Control_c, 0, 64, 69
1, 234978, Control_c, 0, 64, 75
1, 234993, Control_c, 0, 64, 87
1, 235008, Control_c, 0, 64, 110
1, 235022, Control_c, 0, 64, 127
1, 235164, Note_on_c, 0, 79, 86
1, 235211, Note_off_c, 0, 82, 54
1, 235326, Note_on_c, 0, 75, 90
1, 235354, Note_off_c, 0, 79, 59
1, 235454, Note_on_c, 0, 72, 85
1, 235460, Note_off_c, 0, 75, 65
1, 235507, Note_off_c, 0, 72, 64
1, 235567, Note_on_c, 0, 70, 89
1, 235635, Note_off_c, 0, 70, 57
1, 235662, Note_on_c, 0, 67, 83
1, 235717, Note_off_c, 0, 67, 62
1, 235761, Note_on_c, 0, 63, 86
1, 235822, Note_off_c, 0, 63, 60
1, 235838, Note_on_c, 0, 60, 85
1, 235886, Note_off_c, 0, 60, 65
1, 235934, Note_on_c, 0, 58, 89
1, 236007, Note_off_c, 0, 58, 46
1, 236012, Note_on_c, 0, 55, 83
1, 236064, Note_off_c, 0, 55, 64
1, 236114, Note_on_c, 0, 51, 87
1, 236173, Note_off_c, 0, 51, 67
1, 236202, Note_on_c, 0, 48, 88
1, 236248, Note_off_c, 0, 48, 65
1, 236303, Note_on_c, 0, 46, 91
1, 236361, Note_off_c, 0, 46, 59
1, 236396, Note_on_c, 0, 43, 90
1, 236455, Note_off_c, 0, 43, 63
1, 236521, Note_on_c, 0, 39, 94
1, 236577, Note_off_c, 0, 39, 62
1, 236629, Note_on_c, 0, 36, 94
1, 236682, Note_off_c, 0, 36, 64
1, 236895, Note_on_c, 0, 27, 117
1, 236930, Note_off_c, 0, 27, 66
1, 238248, Note_on_c, 0, 39, 100
1, 238257, Note_on_c, 0, 31, 91
1, 238314, Control_c, 0, 64, 83
1, 238329, Control_c, 0, 64, 45
1, 238344, Control_c, 0, 64, 49
1, 238358, Control_c, 0, 64, 67
1, 238373, Control_c, 0, 64, 81
1, 238389, Control_c, 0, 64, 127
1, 238620, Note_off_c, 0, 39, 58
1, 238667, Note_on_c, 0, 43, 93
1, 238673, Note_on_c, 0, 34, 86
1, 238934, Note_on_c, 0, 46, 100
1, 238936, Note_on_c, 0, 39, 86
1, 238963, Note_off_c, 0, 43, 61
1, 239108, Note_off_c, 0, 31, 61
1, 239120, Note_off_c, 0, 34, 61
1, 239121, Note_on_c, 0, 51, 90
1, 239122, Note_on_c, 0, 43, 90
1, 239135, Note_off_c, 0, 46, 60
1, 239135, Note_off_c, 0, 39, 60
1, 239186, Note_off_c, 0, 43, 64
1, 239210, Note_off_c, 0, 51, 66
1, 239275, Note_on_c, 0, 55, 89
1, 239289, Note_on_c, 0, 46, 72
1, 239318, Note_on_c, 0, 45, 58
1, 239354, Note_off_c, 0, 45, 49
1, 239382, Note_off_c, 0, 46, 57
1, 239388, Note_on_c, 0, 58, 88
1, 239392, Note_off_c, 0, 55, 61
1, 239396, Note_on_c, 0, 51, 79
1, 239445, Note_off_c, 0, 58, 65
1, 239460, Note_off_c, 0, 51, 64
1, 239481, Note_on_c, 0, 63, 86
1, 239483, Note_on_c, 0, 55, 65
1, 239510, Note_off_c, 0, 55, 66
1, 239517, Note_off_c, 0, 63, 67
1, 239567, Note_on_c, 0, 58, 79
1, 239575, Note_on_c, 0, 67, 87
1, 239646, Note_off_c, 0, 67, 48
1, 239654, Note_off_c, 0, 58, 58
1, 239655, Note_on_c, 0, 70, 90
1, 239657, Note_on_c, 0, 63, 70
1, 239713, Note_off_c, 0, 63, 63
1, 239722, Note_off_c, 0, 70, 64
1, 239729, Note_on_c, 0, 67, 72
1, 239731, Note_on_c, 0, 75, 85
1, 239760, Note_off_c, 0, 67, 65
1, 239766, Note_off_c, 0, 75, 66
1, 239818, Note_on_c, 0, 79, 87
1, 239819, Note_on_c, 0, 70, 78
1, 239881, Note_off_c, 0, 70, 64
1, 239885, Note_off_c, 0, 79, 42
1, 239886, Note_on_c, 0, 82, 88
1, 239886, Note_on_c, 0, 75, 76
1, 239938, Note_off_c, 0, 75, 64
1, 239948, Note_on_c, 0, 87, 86
1, 239949, Note_off_c, 0, 82, 65
1, 239962, Note_on_c, 0, 79, 55
1, 239985, Note_off_c, 0, 87, 66
1, 239990, Note_off_c, 0, 79, 65
1, 240030, Note_on_c, 0, 91, 90
1, 240044, Note_on_c, 0, 82, 77
1, 240071, Note_off_c, 0, 82, 63
1, 240095, Note_on_c, 0, 94, 85
1, 240099, Note_on_c, 0, 87, 67
1, 240104, Note_off_c, 0, 91, 60
1, 240116, Note_off_c, 0, 87, 66
1, 240143, Note_on_c, 0, 99, 97
1, 240161, Note_off_c, 0, 94, 66
1, 240185, Note_off_c, 0, 99, 67
1, 240202, Note_on_c, 0, 94, 102
1, 240205, Note_on_c, 0, 103, 103
1, 240227, Note_off_c, 0, 94, 69
1, 240228, Note_off_c, 0, 103, 68
1, 241206, Control_c, 0, 67, 8
1, 241221, Control_c, 0, 67, 11
1, 241236, Control_c, 0, 67, 14
1, 241250, Control_c, 0, 67, 17
1, 241265, Control_c, 0, 67, 20
1, 241280, Control_c, 0, 67, 22
1, 241295, Control_c, 0, 67, 23
1, 241309, Control_c, 0, 67, 23
1, 241324, Control_c, 0, 67, 24
1, 241339, Control_c, 0, 67, 25
1, 241354, Control_c, 0, 67, 27
1, 241369, Control_c, 0, 67, 31
1, 241383, Control_c, 0, 67, 35
1, 241406, Control_c, 0, 67, 40
1, 241421, Control_c, 0, 67, 44
1, 241436, Control_c, 0, 67, 49
1, 241451, Control_c, 0, 67, 52
1, 241465, Control_c, 0, 67, 55
1, 241480, Control_c, 0, 67, 58
1, 241495, Control_c, 0, 67, 60
1, 241509, Control_c, 0, 67, 62
1, 241524, Control_c, 0, 67, 63
1, 241540, Control_c, 0, 67, 64
1, 241645, Control_c, 0, 67, 64
1, 241660, Control_c, 0, 67, 65
1, 241689, Control_c, 0, 67, 65
1, 241704, Control_c, 0, 67, 66
1, 241719, Control_c, 0, 67, 68
1, 241733, Control_c, 0, 67, 70
1, 241748, Control_c, 0, 67, 72
1, 241763, Control_c, 0, 67, 74
1, 241778, Control_c, 0, 67, 76
1, 241793, Control_c, 0, 67, 77
1, 241807, Control_c, 0, 67, 78
1, 241822, Control_c, 0, 67, 78
1, 241837, Control_c, 0, 67, 79
1, 241881, Control_c, 0, 67, 79
1, 241896, Control_c, 0, 67, 80
1, 241911, Control_c, 0, 67, 80
1, 241925, Control_c, 0, 67, 81
1, 241940, Control_c, 0, 67, 82
1, 241955, Control_c, 0, 67, 83
1, 241970, Control_c, 0, 67, 84
1, 241985, Control_c, 0, 67, 85
1, 242000, Control_c, 0, 67, 86
1, 242015, Control_c, 0, 67, 88
1, 242030, Control_c, 0, 67, 90
1, 242045, Control_c, 0, 67, 92
1, 242060, Control_c, 0, 67, 94
1, 242074, Control_c, 0, 67, 96
1, 242089, Control_c, 0, 67, 96
1, 242104, Control_c, 0, 67, 97
1, 242119, Control_c, 0, 67, 98
1, 242133, Control_c, 0, 67, 99
1, 242155, Control_c, 0, 67, 100
1, 242170, Control_c, 0, 67, 100
1, 242185, Control_c, 0, 67, 101
1, 242200, Control_c, 0, 67, 102
1, 242215, Control_c, 0, 67, 103
1, 242229, Control_c, 0, 67, 104
1, 242244, Control_c, 0, 67, 104
1, 242259, Control_c, 0, 67, 105
1, 242274, Control_c, 0, 67, 106
1, 242289, Control_c, 0, 67, 106
1, 242304, Control_c, 0, 67, 107
1, 242319, Control_c, 0, 67, 108
1, 242333, Control_c, 0, 67, 109
1, 242348, Control_c, 0, 67, 111
1, 242363, Control_c, 0, 67, 113
1, 242378, Control_c, 0, 67, 114
1, 242393, Control_c, 0, 67, 117
1, 242408, Control_c, 0, 67, 119
1, 242423, Control_c, 0, 67, 121
1, 242438, Control_c, 0, 67, 123
1, 242453, Control_c, 0, 67, 126
1, 242468, Control_c, 0, 67, 127
1, 242527, Control_c, 0, 64, 109
1, 242542, Control_c, 0, 64, 100
1, 242556, Control_c, 0, 64, 93
1, 242571, Control_c, 0, 64, 87
1, 242586, Control_c, 0, 64, 80
1, 242601, Control_c, 0, 64, 73
1, 242616, Control_c, 0, 64, 68
1, 242630, Control_c, 0, 64, 64
1, 242645, Control_c, 0, 64, 62
1, 242660, Control_c, 0, 64, 60
1, 242675, Control_c, 0, 64, 55
1, 242690, Control_c, 0, 64, 44
1, 242704, Control_c, 0, 64, 0
1, 243186, Note_on_c, 0, 55, 58
1, 243187, Note_on_c, 0, 31, 57
1, 243214, Note_on_c, 0, 43, 11
1, 243216, Note_off_c, 0, 55, 65
1, 243221, Note_off_c, 0, 31, 62
1, 243264, Note_off_c, 0, 43, 35
1, 243414, Note_on_c, 0, 58, 69
1, 243428, Note_on_c, 0, 34, 54
1, 243444, Note_off_c, 0, 58, 64
1, 243458, Note_off_c, 0, 34, 57
1, 243613, Note_on_c, 0, 60, 76
1, 243616, Note_on_c, 0, 36, 59
1, 243623, Note_on_c, 0, 48, 61
1, 243637, Note_off_c, 0, 60, 68
1, 243653, Note_off_c, 0, 48, 59
1, 243654, Note_off_c, 0, 36, 59
1, 243794, Note_on_c, 0, 56, 78
1, 243800, Note_on_c, 0, 32, 58
1, 243810, Note_on_c, 0, 44, 54
1, 243824, Note_off_c, 0, 56, 64
1, 243839, Note_off_c, 0, 44, 57
1, 243853, Note_off_c, 0, 32, 58
1, 243952, Note_on_c, 0, 58, 82
1, 243960, Note_on_c, 0, 34, 64
1, 243970, Note_on_c, 0, 46, 51
1, 243996, Note_off_c, 0, 58, 57
1, 243999, Note_off_c, 0, 34, 64
1, 244000, Note_off_c, 0, 46, 53
1, 244102, Note_on_c, 0, 62, 79
1, 244104, Note_on_c, 0, 38, 61
1, 244104, Note_on_c, 0, 50, 68
1, 244128, Note_off_c, 0, 62, 64
1, 244132, Note_off_c, 0, 50, 66
1, 244155, Note_off_c, 0, 38, 57
1, 244254, Note_on_c, 0, 63, 85
1, 244259, Note_on_c, 0, 39, 70
1, 244264, Note_on_c, 0, 51, 69
1, 244280, Note_off_c, 0, 63, 63
1, 244290, Note_off_c, 0, 51, 64
1, 244294, Note_off_c, 0, 39, 63
1, 244401, Note_on_c, 0, 36, 64
1, 244409, Note_on_c, 0, 60, 75
1, 244415, Note_on_c, 0, 48, 52
1, 244434, Note_off_c, 0, 60, 69
1, 244441, Note_off_c, 0, 36, 61
1, 244441, Note_off_c, 0, 48, 57
1, 244543, Note_on_c, 0, 64, 81
1, 244545, Note_on_c, 0, 40, 64
1, 244546, Note_on_c, 0, 52, 75
1, 244564, Note_off_c, 0, 64, 72
1, 244576, Note_off_c, 0, 52, 64
1, 244581, Note_off_c, 0, 40, 66
1, 244683, Note_on_c, 0, 37, 62
1, 244685, Note_on_c, 0, 61, 78
1, 244705, Note_on_c, 0, 49, 43
1, 244710, Note_off_c, 0, 61, 66
1, 244718, Note_off_c, 0, 37, 65
1, 244738, Note_off_c, 0, 49, 54
1, 244816, Note_on_c, 0, 41, 69
1, 244817, Note_on_c, 0, 65, 79
1, 244821, Note_on_c, 0, 53, 69
1, 244838, Note_off_c, 0, 65, 71
1, 244844, Note_off_c, 0, 53, 67
1, 244847, Note_off_c, 0, 41, 64
1, 244949, Note_on_c, 0, 62, 78
1, 244951, Note_on_c, 0, 50, 66
1, 244954, Note_on_c, 0, 38, 64
1, 244972, Note_off_c, 0, 62, 68
1, 244975, Note_off_c, 0, 50, 64
1, 244984, Note_off_c, 0, 38, 64
1, 245079, Note_on_c, 0, 43, 68
1, 245082, Note_on_c, 0, 67, 84
1, 245084, Note_on_c, 0, 55, 73
1, 245100, Note_off_c, 0, 67, 70
1, 245109, Note_off_c, 0, 55, 67
1, 245121, Note_off_c, 0, 43, 62
1, 245210, Note_on_c, 0, 63, 84
1, 245213, Note_on_c, 0, 39, 74
1, 245214, Note_on_c, 0, 51, 72
1, 245228, Note_off_c, 0, 63, 71
1, 245236, Note_off_c, 0, 51, 67
1, 245252, Note_off_c, 0, 39, 60
1, 245333, Note_on_c, 0, 44, 83
1, 245339, Note_on_c, 0, 68, 93
1, 245347, Note_on_c, 0, 56, 76
1, 245361, Note_off_c, 0, 68, 64
1, 245368, Note_off_c, 0, 44, 59
1, 245371, Note_off_c, 0, 56, 68
1, 245461, Note_on_c, 0, 41, 71
1, 245461, Note_on_c, 0, 65, 76
1, 245467, Note_on_c, 0, 53, 66
1, 245473, Note_on_c, 0, 67, 65
1, 245478, Note_on_c, 0, 55, 54
1, 245483, Note_off_c, 0, 65, 70
1, 245488, Note_off_c, 0, 53, 64
1, 245491, Note_off_c, 0, 67, 64
1, 245495, Note_off_c, 0, 41, 64
1, 245511, Note_off_c, 0, 55, 34
1, 245550, Control_c, 0, 67, 127
1, 245566, Control_c, 0, 67, 125
1, 245581, Control_c, 0, 67, 123
1, 245582, Note_on_c, 0, 43, 74
1, 245587, Note_on_c, 0, 67, 83
1, 245588, Note_on_c, 0, 55, 77
1, 245596, Control_c, 0, 67, 122
1, 245611, Note_off_c, 0, 67, 66
1, 245611, Control_c, 0, 67, 121
1, 245612, Note_off_c, 0, 55, 68
1, 245615, Note_off_c, 0, 43, 65
1, 245626, Control_c, 0, 67, 119
1, 245640, Control_c, 0, 67, 119
1, 245685, Control_c, 0, 67, 118
1, 245708, Note_on_c, 0, 46, 81
1, 245710, Note_on_c, 0, 70, 91
1, 245715, Control_c, 0, 67, 118
1, 245717, Note_on_c, 0, 58, 71
1, 245740, Note_off_c, 0, 58, 68
1, 245741, Note_off_c, 0, 70, 62
1, 245744, Control_c, 0, 67, 117
1, 245748, Note_off_c, 0, 46, 59
1, 245759, Control_c, 0, 67, 117
1, 245774, Control_c, 0, 67, 115
1, 245789, Control_c, 0, 67, 114
1, 245804, Control_c, 0, 67, 113
1, 245818, Control_c, 0, 67, 111
1, 245832, Note_on_c, 0, 72, 93
1, 245833, Control_c, 0, 67, 110
1, 245835, Note_on_c, 0, 60, 87
1, 245838, Note_on_c, 0, 48, 70
1, 245848, Control_c, 0, 67, 108
1, 245852, Note_off_c, 0, 72, 66
1, 245855, Note_off_c, 0, 60, 71
1, 245863, Control_c, 0, 67, 105
1, 245872, Note_off_c, 0, 48, 65
1, 245878, Control_c, 0, 67, 101
1, 245899, Control_c, 0, 67, 100
1, 245902, Note_on_c, 0, 47, 3
1, 245914, Control_c, 0, 67, 98
1, 245929, Control_c, 0, 67, 98
1, 245944, Note_off_c, 0, 47, 26
1, 245953, Note_on_c, 0, 44, 78
1, 245962, Note_on_c, 0, 68, 82
1, 245967, Note_on_c, 0, 56, 70
1, 245980, Note_off_c, 0, 68, 70
1, 245985, Note_off_c, 0, 56, 65
1, 246000, Note_off_c, 0, 44, 60
1, 246018, Control_c, 0, 67, 98
1, 246046, Control_c, 0, 67, 99
1, 246074, Note_on_c, 0, 46, 73
1, 246078, Note_on_c, 0, 70, 83
1, 246084, Note_on_c, 0, 58, 66
1, 246098, Note_off_c, 0, 70, 68
1, 246103, Note_off_c, 0, 58, 66
1, 246106, Note_off_c, 0, 46, 67
1, 246165, Control_c, 0, 67, 99
1, 246184, Note_on_c, 0, 50, 75
1, 246185, Note_on_c, 0, 74, 94
1, 246189, Note_on_c, 0, 62, 78
1, 246206, Note_off_c, 0, 74, 69
1, 246209, Control_c, 0, 67, 99
1, 246212, Note_off_c, 0, 62, 68
1, 246221, Note_off_c, 0, 50, 64
1, 246269, Control_c, 0, 67, 100
1, 246283, Control_c, 0, 67, 100
1, 246307, Note_on_c, 0, 51, 81
1, 246308, Note_on_c, 0, 75, 88
1, 246310, Note_on_c, 0, 63, 76
1, 246313, Control_c, 0, 67, 101
1, 246324, Note_off_c, 0, 75, 74
1, 246332, Note_off_c, 0, 63, 69
1, 246343, Note_off_c, 0, 51, 63
1, 246343, Control_c, 0, 67, 101
1, 246403, Control_c, 0, 67, 100
1, 246418, Note_on_c, 0, 48, 77
1, 246418, Control_c, 0, 67, 99
1, 246424, Note_on_c, 0, 72, 86
1, 246432, Control_c, 0, 67, 98
1, 246433, Note_on_c, 0, 60, 60
1, 246441, Note_off_c, 0, 72, 72
1, 246447, Control_c, 0, 67, 98
1, 246453, Note_off_c, 0, 48, 62
1, 246455, Note_off_c, 0, 60, 62
1, 246462, Control_c, 0, 67, 97
1, 246521, Control_c, 0, 67, 98
1, 246536, Note_on_c, 0, 76, 94
1, 246537, Note_on_c, 0, 52, 77
1, 246543, Note_on_c, 0, 64, 79
1, 246553, Note_off_c, 0, 76, 72
1, 246566, Note_off_c, 0, 64, 71
1, 246569, Note_off_c, 0, 52, 66
1, 246581, Control_c, 0, 67, 98
1, 246595, Control_c, 0, 67, 99
1, 246656, Note_on_c, 0, 73, 91
1, 246659, Note_on_c, 0, 49, 75
1, 246665, Note_on_c, 0, 61, 63
1, 246674, Note_off_c, 0, 73, 71
1, 246685, Note_off_c, 0, 61, 63
1, 246686, Note_off_c, 0, 49, 65
1, 246766, Note_on_c, 0, 53, 83
1, 246766, Note_on_c, 0, 77, 91
1, 246771, Note_on_c, 0, 65, 84
1, 246781, Control_c, 0, 67, 98
1, 246782, Note_off_c, 0, 77, 74
1, 246789, Note_off_c, 0, 65, 73
1, 246795, Note_off_c, 0, 53, 67
1, 246795, Control_c, 0, 67, 97
1, 246855, Control_c, 0, 67, 96
1, 246874, Note_on_c, 0, 50, 82
1, 246879, Note_on_c, 0, 74, 95
1, 246884, Note_on_c, 0, 62, 65
1, 246895, Note_off_c, 0, 74, 76
1, 246899, Control_c, 0, 67, 96
1, 246903, Note_off_c, 0, 50, 70
1, 246903, Note_off_c, 0, 62, 65
1, 246914, Control_c, 0, 67, 95
1, 246943, Control_c, 0, 67, 94
1, 246984, Note_on_c, 0, 55, 82
1, 246988, Note_on_c, 0, 79, 99
1, 246993, Note_on_c, 0, 67, 87
1, 247002, Control_c, 0, 67, 94
1, 247004, Note_off_c, 0, 79, 71
1, 247010, Note_off_c, 0, 67, 71
1, 247023, Note_off_c, 0, 55, 65
1, 247047, Control_c, 0, 67, 95
1, 247061, Control_c, 0, 67, 96
1, 247076, Control_c, 0, 67, 97
1, 247091, Control_c, 0, 67, 97
1, 247095, Note_on_c, 0, 51, 78
1, 247100, Note_on_c, 0, 75, 92
1, 247103, Note_on_c, 0, 63, 80
1, 247106, Control_c, 0, 67, 98
1, 247115, Note_off_c, 0, 75, 73
1, 247121, Control_c, 0, 67, 98
1, 247124, Note_off_c, 0, 63, 71
1, 247124, Note_off_c, 0, 51, 68
1, 247208, Note_on_c, 0, 56, 90
1, 247211, Control_c, 0, 67, 98
1, 247211, Note_on_c, 0, 80, 98
1, 247217, Note_on_c, 0, 68, 88
1, 247225, Control_c, 0, 67, 97
1, 247234, Note_off_c, 0, 68, 73
1, 247237, Note_off_c, 0, 80, 62
1, 247240, Control_c, 0, 67, 97
1, 247252, Note_off_c, 0, 56, 61
1, 247255, Control_c, 0, 67, 96
1, 247270, Control_c, 0, 67, 95
1, 247285, Control_c, 0, 67, 95
1, 247300, Control_c, 0, 67, 94
1, 247315, Control_c, 0, 67, 94
1, 247320, Note_on_c, 0, 53, 81
1, 247324, Note_on_c, 0, 77, 97
1, 247326, Note_on_c, 0, 65, 85
1, 247330, Control_c, 0, 67, 93
1, 247344, Control_c, 0, 67, 92
1, 247345, Note_off_c, 0, 77, 65
1, 247345, Note_off_c, 0, 65, 72
1, 247349, Note_off_c, 0, 53, 68
1, 247359, Control_c, 0, 67, 91
1, 247374, Control_c, 0, 67, 91
1, 247425, Control_c, 0, 67, 90
1, 247438, Note_on_c, 0, 58, 92
1, 247438, Note_on_c, 0, 82, 101
1, 247443, Note_on_c, 0, 70, 90
1, 247455, Note_off_c, 0, 82, 71
1, 247461, Note_off_c, 0, 70, 73
1, 247470, Control_c, 0, 67, 90
1, 247485, Note_off_c, 0, 58, 60
1, 247515, Control_c, 0, 67, 89
1, 247529, Control_c, 0, 67, 88
1, 247537, Note_on_c, 0, 55, 84
1, 247544, Control_c, 0, 67, 87
1, 247548, Note_on_c, 0, 79, 93
1, 247555, Note_on_c, 0, 67, 66
1, 247559, Control_c, 0, 67, 84
1, 247564, Note_off_c, 0, 79, 74
1, 247573, Note_off_c, 0, 55, 66
1, 247574, Control_c, 0, 67, 80
1, 247574, Note_off_c, 0, 67, 64
1, 247589, Control_c, 0, 67, 75
1, 247604, Control_c, 0, 67, 71
1, 247618, Control_c, 0, 67, 65
1, 247633, Control_c, 0, 67, 59
1, 247648, Control_c, 0, 67, 53
1, 247654, Note_on_c, 0, 60, 90
1, 247663, Control_c, 0, 67, 46
1, 247664, Note_on_c, 0, 84, 96
1, 247674, Note_on_c, 0, 72, 77
1, 247677, Control_c, 0, 67, 39
1, 247679, Note_off_c, 0, 84, 76
1, 247688, Note_off_c, 0, 72, 71
1, 247692, Control_c, 0, 67, 28
1, 247697, Note_off_c, 0, 60, 66
1, 247707, Control_c, 0, 67, 16
1, 247722, Control_c, 0, 67, 0
1, 247759, Note_on_c, 0, 56, 92
1, 247771, Note_on_c, 0, 80, 98
1, 247787, Note_off_c, 0, 80, 70
1, 247790, Note_on_c, 0, 68, 59
1, 247791, Note_off_c, 0, 68, 127
1, 247797, Note_off_c, 0, 56, 66
1, 247878, Note_on_c, 0, 58, 79
1, 247879, Note_on_c, 0, 82, 95
1, 247883, Note_on_c, 0, 70, 81
1, 247896, Note_off_c, 0, 82, 70
1, 247902, Note_off_c, 0, 58, 68
1, 247903, Note_off_c, 0, 70, 71
1, 247975, Note_on_c, 0, 62, 82
1, 247982, Note_on_c, 0, 86, 99
1, 247983, Note_on_c, 0, 74, 91
1, 248000, Note_off_c, 0, 74, 75
1, 248002, Note_off_c, 0, 86, 67
1, 248021, Note_off_c, 0, 62, 61
1, 248085, Note_on_c, 0, 87, 99
1, 248086, Note_on_c, 0, 63, 94
1, 248092, Note_on_c, 0, 75, 85
1, 248108, Note_off_c, 0, 75, 75
1, 248121, Note_off_c, 0, 87, 64
1, 248131, Note_off_c, 0, 63, 60
1, 248200, Note_on_c, 0, 60, 87
1, 248207, Note_on_c, 0, 84, 101
1, 248215, Note_on_c, 0, 72, 76
1, 248224, Note_off_c, 0, 60, 67
1, 248224, Note_off_c, 0, 84, 69
1, 248232, Note_off_c, 0, 72, 69
1, 248299, Note_on_c, 0, 62, 90
1, 248314, Note_on_c, 0, 88, 92
1, 248319, Note_on_c, 0, 76, 82
1, 248319, Note_on_c, 0, 86, 87
1, 248327, Note_off_c, 0, 62, 66
1, 248333, Note_off_c, 0, 88, 69
1, 248337, Note_off_c, 0, 86, 74
1, 248340, Note_off_c, 0, 76, 70
1, 248409, Note_on_c, 0, 65, 91
1, 248422, Note_on_c, 0, 89, 83
1, 248425, Note_on_c, 0, 91, 89
1, 248433, Note_on_c, 0, 79, 67
1, 248434, Note_on_c, 0, 77, 65
1, 248436, Note_off_c, 0, 65, 67
1, 248439, Note_off_c, 0, 91, 70
1, 248439, Note_off_c, 0, 89, 72
1, 248450, Note_off_c, 0, 79, 65
1, 248453, Note_off_c, 0, 77, 65
1, 248517, Note_on_c, 0, 67, 95
1, 248521, Note_on_c, 0, 89, 97
1, 248523, Note_on_c, 0, 91, 55
1, 248530, Note_on_c, 0, 77, 83
1, 248530, Note_on_c, 0, 79, 75
1, 248547, Note_off_c, 0, 91, 71
1, 248549, Note_off_c, 0, 77, 72
1, 248549, Note_off_c, 0, 79, 70
1, 248554, Note_off_c, 0, 67, 64
1, 248555, Note_off_c, 0, 89, 66
1, 248621, Note_on_c, 0, 63, 91
1, 248634, Note_on_c, 0, 87, 98
1, 248641, Note_on_c, 0, 75, 82
1, 248656, Note_off_c, 0, 75, 71
1, 248657, Note_off_c, 0, 63, 60
1, 248668, Note_on_c, 0, 64, 29
1, 248669, Note_off_c, 0, 64, 127
1, 248669, Note_off_c, 0, 87, 62
1, 248735, Note_on_c, 0, 89, 99
1, 248737, Note_on_c, 0, 65, 82
1, 248738, Note_on_c, 0, 77, 98
1, 248751, Note_on_c, 0, 88, 69
1, 248755, Note_off_c, 0, 77, 74
1, 248758, Note_off_c, 0, 65, 72
1, 248767, Note_off_c, 0, 89, 68
1, 248770, Note_off_c, 0, 88, 43
1, 248839, Note_on_c, 0, 68, 92
1, 248841, Note_on_c, 0, 92, 104
1, 248844, Note_on_c, 0, 80, 94
1, 248859, Note_off_c, 0, 80, 75
1, 248867, Note_off_c, 0, 68, 63
1, 248870, Note_off_c, 0, 92, 61
1, 248951, Note_on_c, 0, 70, 91
1, 248962, Note_on_c, 0, 94, 103
1, 248966, Note_on_c, 0, 82, 98
1, 248980, Note_off_c, 0, 82, 76
1, 248984, Note_off_c, 0, 70, 65
1, 248988, Note_off_c, 0, 94, 62
1, 249056, Note_on_c, 0, 66, 91
1, 249070, Note_on_c, 0, 90, 105
1, 249076, Note_on_c, 0, 78, 82
1, 249094, Note_off_c, 0, 66, 61
1, 249094, Note_off_c, 0, 78, 69
1, 249106, Note_off_c, 0, 90, 62
1, 249163, Note_on_c, 0, 67, 98
1, 249174, Note_on_c, 0, 91, 97
1, 249184, Note_on_c, 0, 79, 79
1, 249188, Note_off_c, 0, 67, 67
1, 249192, Note_off_c, 0, 91, 69
1, 249198, Note_off_c, 0, 79, 71
1, 249269, Note_on_c, 0, 70, 98
1, 249276, Note_on_c, 0, 94, 104
1, 249290, Note_on_c, 0, 82, 70
1, 249301, Note_off_c, 0, 94, 60
1, 249303, Note_off_c, 0, 70, 63
1, 249308, Note_off_c, 0, 82, 66
1, 249383, Control_c, 0, 64, 61
1, 249393, Note_on_c, 0, 72, 95
1, 249396, Note_on_c, 0, 84, 99
1, 249397, Note_on_c, 0, 96, 92
1, 249398, Control_c, 0, 64, 87
1, 249403, Note_on_c, 0, 98, 82
1, 249404, Note_off_c, 0, 98, 127
1, 249404, Note_on_c, 0, 97, 73
1, 249409, Note_off_c, 0, 84, 78
1, 249410, Note_off_c, 0, 72, 73
1, 249411, Note_off_c, 0, 96, 77
1, 249413, Control_c, 0, 64, 127
1, 249419, Note_off_c, 0, 97, 70
1, 249691, Note_on_c, 0, 44, 84
1, 249691, Note_on_c, 0, 53, 89
1, 249694, Note_on_c, 0, 50, 82
1, 249697, Note_on_c, 0, 56, 92
1, 249698, Note_on_c, 0, 72, 86
1, 249706, Note_on_c, 0, 60, 79
1, 249706, Note_on_c, 0, 65, 83
1, 249717, Note_off_c, 0, 56, 73
1, 249720, Note_off_c, 0, 44, 68
1, 249728, Note_off_c, 0, 50, 68
1, 249728, Note_off_c, 0, 60, 71
1, 249729, Note_off_c, 0, 53, 67
1, 249742, Note_off_c, 0, 65, 64
1, 249744, Note_off_c, 0, 72, 67
1, 250147, Note_on_c, 0, 65, 78
1, 250158, Note_on_c, 0, 89, 96
1, 250167, Note_on_c, 0, 77, 73
1, 250170, Note_on_c, 0, 76, 71
1, 250178, Note_off_c, 0, 89, 67
1, 250186, Note_off_c, 0, 77, 68
1, 250188, Note_off_c, 0, 76, 66
1, 250194, Note_off_c, 0, 65, 66
1, 250251, Note_on_c, 0, 68, 96
1, 250254, Note_on_c, 0, 92, 104
1, 250257, Note_on_c, 0, 80, 92
1, 250275, Note_off_c, 0, 80, 68
1, 250282, Note_off_c, 0, 68, 68
1, 250292, Note_off_c, 0, 92, 66
1, 250295, Control_c, 0, 64, 83
1, 250310, Control_c, 0, 64, 0
1, 250366, Note_on_c, 0, 70, 99
1, 250370, Control_c, 0, 64, 68
1, 250373, Note_on_c, 0, 94, 112
1, 250376, Note_on_c, 0, 82, 112
1, 250392, Control_c, 0, 64, 127
1, 250397, Note_off_c, 0, 70, 67
1, 250400, Note_off_c, 0, 82, 69
1, 250406, Note_off_c, 0, 94, 69
1, 250670, Note_on_c, 0, 51, 97
1, 250674, Note_on_c, 0, 55, 88
1, 250674, Note_on_c, 0, 43, 83
1, 250674, Note_on_c, 0, 46, 86
1, 250676, Note_on_c, 0, 70, 99
1, 250681, Note_on_c, 0, 58, 93
1, 250683, Note_on_c, 0, 63, 86
1, 250695, Note_off_c, 0, 55, 69
1, 250698, Note_off_c, 0, 58, 73
1, 250703, Note_off_c, 0, 43, 64
1, 250704, Note_off_c, 0, 51, 64
1, 250706, Note_off_c, 0, 63, 68
1, 250708, Note_off_c, 0, 46, 63
1, 250721, Note_off_c, 0, 70, 69
1, 250725, Note_on_c, 0, 68, 20
1, 250764, Note_off_c, 0, 68, 49
1, 250774, Poly_aftertouch_c, 0, 64, 127
1, 250803, Poly_aftertouch_c, 0, 64, 0
1, 251166, Note_on_c, 0, 67, 90
1, 251173, Note_on_c, 0, 91, 106
1, 251175, Note_on_c, 0, 79, 94
1, 251198, Note_off_c, 0, 79, 64
1, 251203, Note_off_c, 0, 91, 70
1, 251218, Note_off_c, 0, 67, 63
1, 251271, Note_on_c, 0, 70, 94
1, 251280, Note_on_c, 0, 94, 106
1, 251283, Note_on_c, 0, 82, 96
1, 251302, Note_off_c, 0, 82, 69
1, 251312, Note_off_c, 0, 70, 68
1, 251326, Note_off_c, 0, 94, 65
1, 251378, Control_c, 0, 64, 76
1, 251393, Control_c, 0, 64, 0
1, 251408, Note_on_c, 0, 72, 108
1, 251417, Note_on_c, 0, 96, 106
1, 251418, Note_on_c, 0, 84, 99
1, 251439, Note_on_c, 0, 83, 51
1, 251440, Note_off_c, 0, 83, 127
1, 251451, Note_off_c, 0, 96, 72
1, 251452, Control_c, 0, 64, 64
1, 251455, Note_off_c, 0, 72, 66
1, 251462, Note_off_c, 0, 84, 61
1, 251467, Control_c, 0, 64, 90
1, 251482, Control_c, 0, 64, 127
1, 251728, Note_on_c, 0, 44, 89
1, 251730, Note_on_c, 0, 53, 95
1, 251732, Note_on_c, 0, 72, 94
1, 251733, Note_on_c, 0, 50, 85
1, 251733, Note_on_c, 0, 60, 93
1, 251733, Note_on_c, 0, 56, 92
1, 251736, Note_on_c, 0, 65, 93
1, 251762, Note_off_c, 0, 56, 64
1, 251768, Note_off_c, 0, 60, 68
1, 251770, Note_off_c, 0, 44, 63
1, 251775, Note_on_c, 0, 70, 38
1, 251777, Note_off_c, 0, 53, 67
1, 251786, Note_off_c, 0, 50, 67
1, 251786, Note_off_c, 0, 65, 67
1, 251792, Note_off_c, 0, 72, 65
1, 251805, Note_off_c, 0, 70, 58
1, 252235, Note_on_c, 0, 65, 86
1, 252242, Note_on_c, 0, 89, 102
1, 252243, Note_on_c, 0, 77, 94
1, 252267, Note_off_c, 0, 77, 63
1, 252274, Note_off_c, 0, 89, 65
1, 252282, Note_off_c, 0, 65, 64
1, 252341, Note_on_c, 0, 68, 95
1, 252348, Note_on_c, 0, 92, 108
1, 252352, Note_on_c, 0, 80, 95
1, 252367, Note_off_c, 0, 80, 71
1, 252376, Note_off_c, 0, 68, 67
1, 252393, Note_off_c, 0, 92, 67
1, 252423, Control_c, 0, 64, 100
1, 252438, Control_c, 0, 64, 66
1, 252453, Control_c, 0, 64, 0
1, 252472, Note_on_c, 0, 70, 106
1, 252481, Note_on_c, 0, 94, 108
1, 252484, Note_on_c, 0, 82, 112
1, 252502, Note_off_c, 0, 70, 69
1, 252504, Note_off_c, 0, 82, 66
1, 252505, Note_off_c, 0, 94, 74
1, 252512, Control_c, 0, 64, 57
1, 252527, Control_c, 0, 64, 76
1, 252541, Control_c, 0, 64, 127
1, 252806, Note_on_c, 0, 43, 84
1, 252806, Note_on_c, 0, 55, 89
1, 252807, Note_on_c, 0, 51, 90
1, 252809, Note_on_c, 0, 46, 88
1, 252810, Note_on_c, 0, 70, 87
1, 252813, Note_on_c, 0, 58, 89
1, 252815, Note_on_c, 0, 63, 87
1, 252827, Note_off_c, 0, 55, 71
1, 252830, Note_off_c, 0, 51, 71
1, 252830, Note_off_c, 0, 58, 73
1, 252832, Note_off_c, 0, 43, 66
1, 252834, Note_off_c, 0, 46, 68
1, 252842, Note_off_c, 0, 63, 62
1, 252850, Note_off_c, 0, 70, 69
1, 253335, Note_on_c, 0, 79, 87
1, 253350, Control_c, 0, 67, 9
1, 253364, Control_c, 0, 67, 10
1, 253371, Note_off_c, 0, 79, 62
1, 253387, Control_c, 0, 67, 11
1, 253402, Control_c, 0, 67, 12
1, 253416, Control_c, 0, 64, 110
1, 253416, Control_c, 0, 67, 13
1, 253431, Control_c, 0, 64, 81
1, 253431, Control_c, 0, 67, 15
1, 253446, Control_c, 0, 64, 52
1, 253446, Control_c, 0, 67, 16
1, 253461, Control_c, 0, 64, 0
1, 253461, Control_c, 0, 67, 19
1, 253461, Note_on_c, 0, 82, 87
1, 253476, Control_c, 0, 67, 20
1, 253490, Control_c, 0, 67, 21
1, 253505, Control_c, 0, 67, 23
1, 253517, Note_off_c, 0, 82, 64
1, 253520, Control_c, 0, 67, 25
1, 253535, Control_c, 0, 67, 28
1, 253550, Control_c, 0, 67, 32
1, 253566, Control_c, 0, 67, 34
1, 253581, Control_c, 0, 64, 62
1, 253581, Control_c, 0, 67, 37
1, 253583, Note_on_c, 0, 44, 70
1, 253595, Control_c, 0, 64, 73
1, 253595, Control_c, 0, 67, 39
1, 253596, Note_on_c, 0, 84, 80
1, 253610, Control_c, 0, 64, 87
1, 253610, Control_c, 0, 67, 41
1, 253611, Note_off_c, 0, 44, 65
1, 253625, Control_c, 0, 64, 104
1, 253625, Control_c, 0, 67, 42
1, 253640, Control_c, 0, 64, 127
1, 253699, Control_c, 0, 67, 41
1, 253707, Note_off_c, 0, 84, 59
1, 253713, Note_on_c, 0, 79, 72
1, 253713, Control_c, 0, 67, 41
1, 253733, Note_on_c, 0, 72, 43
1, 253758, Note_off_c, 0, 72, 56
1, 253769, Note_off_c, 0, 79, 60
1, 253827, Note_on_c, 0, 56, 64
1, 253827, Note_on_c, 0, 60, 65
1, 253828, Note_on_c, 0, 84, 82
1, 253829, Note_on_c, 0, 64, 67
1, 253847, Control_c, 0, 67, 41
1, 253876, Control_c, 0, 67, 42
1, 253936, Note_on_c, 0, 79, 76
1, 253950, Note_off_c, 0, 84, 61
1, 253975, Note_off_c, 0, 79, 59
1, 253980, Control_c, 0, 67, 41
1, 253983, Note_on_c, 0, 72, 39
1, 254010, Note_off_c, 0, 72, 56
1, 254058, Note_on_c, 0, 77, 95
1, 254061, Note_on_c, 0, 68, 78
1, 254075, Note_on_c, 0, 72, 76
1, 254105, Note_off_c, 0, 64, 63
1, 254108, Note_off_c, 0, 68, 60
1, 254117, Note_off_c, 0, 60, 60
1, 254143, Note_off_c, 0, 72, 66
1, 254169, Note_off_c, 0, 56, 64
1, 254180, Control_c, 0, 67, 41
1, 254182, Note_on_c, 0, 65, 77
1, 254207, Note_off_c, 0, 65, 68
1, 254210, Control_c, 0, 64, 83
1, 254220, Note_off_c, 0, 77, 64
1, 254225, Control_c, 0, 64, 53
1, 254239, Control_c, 0, 64, 0
1, 254254, Control_c, 0, 67, 41
1, 254269, Control_c, 0, 67, 42
1, 254284, Control_c, 0, 67, 43
1, 254299, Control_c, 0, 67, 44
1, 254314, Control_c, 0, 67, 45
1, 254315, Note_on_c, 0, 77, 64
1, 254315, Note_on_c, 0, 79, 58
1, 254329, Control_c, 0, 67, 47
1, 254334, Note_off_c, 0, 77, 66
1, 254335, Note_off_c, 0, 79, 63
1, 254344, Control_c, 0, 67, 49
1, 254359, Control_c, 0, 67, 49
1, 254374, Control_c, 0, 67, 50
1, 254411, Note_on_c, 0, 80, 68
1, 254468, Note_off_c, 0, 80, 56
1, 254508, Control_c, 0, 64, 44
1, 254523, Control_c, 0, 64, 67
1, 254529, Note_on_c, 0, 43, 70
1, 254537, Note_on_c, 0, 82, 80
1, 254537, Control_c, 0, 64, 78
1, 254552, Control_c, 0, 64, 95
1, 254552, Control_c, 0, 67, 49
1, 254554, Note_off_c, 0, 43, 65
1, 254567, Control_c, 0, 64, 127
1, 254567, Control_c, 0, 67, 49
1, 254582, Control_c, 0, 67, 48
1, 254597, Control_c, 0, 67, 48
1, 254611, Control_c, 0, 67, 47
1, 254626, Control_c, 0, 67, 46
1, 254645, Note_off_c, 0, 82, 61
1, 254649, Note_on_c, 0, 77, 72
1, 254655, Control_c, 0, 67, 45
1, 254660, Note_on_c, 0, 70, 56
1, 254670, Control_c, 0, 67, 45
1, 254685, Control_c, 0, 67, 44
1, 254686, Note_off_c, 0, 70, 64
1, 254696, Note_off_c, 0, 77, 54
1, 254700, Control_c, 0, 67, 43
1, 254715, Control_c, 0, 67, 42
1, 254729, Control_c, 0, 67, 41
1, 254744, Control_c, 0, 67, 40
1, 254759, Control_c, 0, 67, 39
1, 254760, Note_on_c, 0, 82, 90
1, 254761, Note_on_c, 0, 62, 67
1, 254762, Note_on_c, 0, 58, 76
1, 254775, Note_on_c, 0, 55, 68
1, 254789, Control_c, 0, 67, 39
1, 254803, Control_c, 0, 67, 38
1, 254855, Note_off_c, 0, 82, 63
1, 254867, Note_on_c, 0, 70, 78
1, 254901, Note_off_c, 0, 70, 63
1, 254988, Note_on_c, 0, 75, 93
1, 254991, Note_on_c, 0, 67, 76
1, 254998, Note_on_c, 0, 70, 81
1, 255011, Note_off_c, 0, 67, 69
1, 255018, Control_c, 0, 67, 39
1, 255023, Note_off_c, 0, 62, 61
1, 255033, Control_c, 0, 67, 39
1, 255035, Note_off_c, 0, 58, 60
1, 255048, Control_c, 0, 67, 40
1, 255053, Note_off_c, 0, 55, 63
1, 255062, Control_c, 0, 67, 41
1, 255069, Note_off_c, 0, 70, 59
1, 255077, Control_c, 0, 67, 41
1, 255092, Control_c, 0, 67, 42
1, 255110, Note_on_c, 0, 63, 57
1, 255127, Note_off_c, 0, 75, 65
1, 255134, Note_off_c, 0, 63, 60
1, 255137, Control_c, 0, 67, 43
1, 255152, Control_c, 0, 64, 79
1, 255152, Control_c, 0, 67, 44
1, 255167, Control_c, 0, 64, 0
1, 255167, Control_c, 0, 67, 45
1, 255182, Control_c, 0, 67, 46
1, 255197, Control_c, 0, 67, 47
1, 255212, Control_c, 0, 67, 48
1, 255219, Note_on_c, 0, 79, 78
1, 255227, Control_c, 0, 67, 49
1, 255239, Note_off_c, 0, 79, 68
1, 255241, Control_c, 0, 67, 49
1, 255256, Control_c, 0, 67, 50
1, 255271, Control_c, 0, 67, 52
1, 255286, Control_c, 0, 67, 53
1, 255301, Control_c, 0, 67, 54
1, 255316, Control_c, 0, 67, 56
1, 255325, Note_on_c, 0, 82, 79
1, 255330, Control_c, 0, 67, 56
1, 255344, Note_off_c, 0, 82, 71
1, 255345, Control_c, 0, 67, 57
1, 255390, Control_c, 0, 67, 56
1, 255405, Control_c, 0, 67, 55
1, 255420, Control_c, 0, 64, 57
1, 255420, Control_c, 0, 67, 54
1, 255434, Control_c, 0, 64, 74
1, 255434, Control_c, 0, 67, 53
1, 255444, Note_on_c, 0, 44, 55
1, 255449, Control_c, 0, 64, 90
1, 255449, Control_c, 0, 67, 52
1, 255456, Note_on_c, 0, 84, 76
1, 255464, Control_c, 0, 64, 127
1, 255464, Control_c, 0, 67, 51
1, 255473, Note_off_c, 0, 44, 56
1, 255478, Control_c, 0, 67, 50
1, 255493, Control_c, 0, 67, 49
1, 255508, Control_c, 0, 67, 48
1, 255523, Control_c, 0, 67, 47
1, 255548, Note_off_c, 0, 84, 55
1, 255579, Note_on_c, 0, 79, 59
1, 255588, Note_on_c, 0, 72, 30
1, 255597, Control_c, 0, 67, 48
1, 255620, Note_off_c, 0, 79, 57
1, 255621, Note_off_c, 0, 72, 53
1, 255686, Note_on_c, 0, 64, 64
1, 255687, Note_on_c, 0, 56, 59
1, 255689, Note_on_c, 0, 60, 64
1, 255691, Note_on_c, 0, 84, 85
1, 255796, Note_on_c, 0, 79, 71
1, 255797, Control_c, 0, 67, 47
1, 255798, Note_off_c, 0, 84, 62
1, 255816, Note_off_c, 0, 79, 69
1, 255909, Note_on_c, 0, 77, 91
1, 255910, Note_on_c, 0, 68, 70
1, 255939, Note_off_c, 0, 68, 64
1, 255945, Note_on_c, 0, 72, 65
1, 255946, Note_off_c, 0, 64, 63
1, 255957, Note_off_c, 0, 60, 59
1, 255961, Control_c, 0, 67, 48
1, 255990, Note_off_c, 0, 72, 60
1, 256016, Note_off_c, 0, 56, 63
1, 256020, Control_c, 0, 67, 48
1, 256029, Note_on_c, 0, 65, 70
1, 256034, Control_c, 0, 67, 49
1, 256049, Control_c, 0, 67, 49
1, 256054, Note_off_c, 0, 65, 69
1, 256061, Note_off_c, 0, 77, 61
1, 256064, Control_c, 0, 67, 50
1, 256079, Control_c, 0, 67, 51
1, 256094, Control_c, 0, 64, 100
1, 256094, Control_c, 0, 67, 52
1, 256109, Control_c, 0, 64, 66
1, 256109, Control_c, 0, 67, 53
1, 256123, Control_c, 0, 64, 0
1, 256123, Control_c, 0, 67, 54
1, 256138, Control_c, 0, 67, 54
1, 256153, Note_on_c, 0, 79, 77
1, 256153, Control_c, 0, 67, 55
1, 256168, Control_c, 0, 67, 56
1, 256177, Note_off_c, 0, 79, 66
1, 256257, Control_c, 0, 67, 56
1, 256331, Control_c, 0, 67, 57
1, 256358, Note_on_c, 0, 43, 70
1, 256361, Control_c, 0, 64, 62
1, 256368, Note_on_c, 0, 82, 86
1, 256383, Control_c, 0, 64, 73
1, 256393, Note_off_c, 0, 43, 65
1, 256398, Control_c, 0, 64, 91
1, 256398, Control_c, 0, 67, 56
1, 256413, Control_c, 0, 64, 127
1, 256427, Control_c, 0, 67, 56
1, 256472, Control_c, 0, 67, 55
1, 256491, Note_off_c, 0, 82, 63
1, 256496, Note_on_c, 0, 77, 71
1, 256502, Note_on_c, 0, 70, 50
1, 256516, Control_c, 0, 67, 55
1, 256523, Note_off_c, 0, 70, 60
1, 256531, Control_c, 0, 67, 54
1, 256533, Note_off_c, 0, 77, 58
1, 256546, Control_c, 0, 67, 54
1, 256576, Control_c, 0, 67, 53
1, 256584, Note_on_c, 0, 62, 46
1, 256590, Control_c, 0, 67, 53
1, 256594, Note_on_c, 0, 58, 80
1, 256600, Note_on_c, 0, 82, 91
1, 256605, Note_on_c, 0, 55, 71
1, 256605, Control_c, 0, 67, 52
1, 256620, Control_c, 0, 67, 52
1, 256634, Control_c, 0, 67, 51
1, 256649, Control_c, 0, 67, 49
1, 256664, Control_c, 0, 67, 48
1, 256679, Control_c, 0, 67, 47
1, 256694, Control_c, 0, 67, 46
1, 256705, Note_on_c, 0, 77, 65
1, 256706, Note_off_c, 0, 82, 62
1, 256708, Control_c, 0, 67, 45
1, 256717, Note_on_c, 0, 70, 71
1, 256723, Note_off_c, 0, 77, 65
1, 256723, Control_c, 0, 67, 44
1, 256738, Control_c, 0, 67, 42
1, 256740, Note_off_c, 0, 70, 69
1, 256754, Control_c, 0, 67, 38
1, 256769, Control_c, 0, 67, 33
1, 256784, Control_c, 0, 67, 28
1, 256798, Control_c, 0, 67, 21
1, 256813, Control_c, 0, 67, 14
1, 256815, Note_on_c, 0, 67, 81
1, 256822, Note_on_c, 0, 75, 88
1, 256828, Control_c, 0, 67, 0
1, 256836, Note_off_c, 0, 67, 70
1, 256839, Note_on_c, 0, 70, 83
1, 256847, Note_off_c, 0, 62, 61
1, 256854, Note_off_c, 0, 55, 63
1, 256854, Note_off_c, 0, 58, 65
1, 256932, Note_off_c, 0, 70, 60
1, 256935, Note_on_c, 0, 63, 80
1, 257034, Note_on_c, 0, 43, 93
1, 257041, Note_on_c, 0, 31, 81
1, 257058, Note_off_c, 0, 43, 69
1, 257068, Note_off_c, 0, 31, 62
1, 257135, Note_off_c, 0, 63, 31
1, 257146, Note_on_c, 0, 46, 93
1, 257152, Note_on_c, 0, 34, 87
1, 257177, Note_off_c, 0, 46, 63
1, 257179, Note_off_c, 0, 34, 66
1, 257251, Note_off_c, 0, 75, 38
1, 257280, Note_on_c, 0, 48, 103
1, 257286, Note_on_c, 0, 36, 96
1, 257295, Note_on_c, 0, 68, 85
1, 257298, Note_on_c, 0, 63, 83
1, 257312, Note_off_c, 0, 48, 69
1, 257312, Note_off_c, 0, 36, 68
1, 257325, Control_c, 0, 64, 86
1, 257339, Control_c, 0, 64, 0
1, 257340, Note_off_c, 0, 68, 64
1, 257355, Note_off_c, 0, 63, 54
1, 257517, Control_c, 0, 64, 56
1, 257531, Control_c, 0, 64, 81
1, 257536, Note_on_c, 0, 48, 104
1, 257539, Note_on_c, 0, 75, 88
1, 257540, Note_on_c, 0, 36, 92
1, 257542, Note_on_c, 0, 63, 89
1, 257547, Control_c, 0, 64, 106
1, 257562, Control_c, 0, 64, 127
1, 257565, Note_off_c, 0, 36, 68
1, 257566, Note_off_c, 0, 48, 65
1, 257578, Note_off_c, 0, 75, 68
1, 257592, Control_c, 0, 64, 103
1, 257607, Control_c, 0, 64, 76
1, 257621, Control_c, 0, 64, 0
1, 257641, Note_off_c, 0, 63, 32
1, 257784, Control_c, 0, 64, 71
1, 257787, Note_on_c, 0, 48, 98
1, 257790, Note_on_c, 0, 36, 88
1, 257796, Note_on_c, 0, 68, 85
1, 257799, Note_on_c, 0, 63, 77
1, 257799, Control_c, 0, 64, 89
1, 257811, Note_off_c, 0, 48, 67
1, 257814, Control_c, 0, 64, 127
1, 257817, Note_off_c, 0, 36, 67
1, 257882, Note_off_c, 0, 63, 54
1, 257973, Note_on_c, 0, 65, 81
1, 257985, Note_on_c, 0, 70, 82
1, 257992, Note_off_c, 0, 68, 54
1, 258018, Note_on_c, 0, 43, 93
1, 258019, Note_on_c, 0, 31, 90
1, 258037, Note_on_c, 0, 63, 48
1, 258045, Note_off_c, 0, 43, 68
1, 258046, Note_off_c, 0, 31, 68
1, 258074, Note_off_c, 0, 63, 61
1, 258096, Note_off_c, 0, 65, 55
1, 258097, Poly_aftertouch_c, 0, 32, 127
1, 258125, Note_on_c, 0, 73, 94
1, 258133, Note_on_c, 0, 68, 76
1, 258136, Note_on_c, 0, 32, 56
1, 258136, Note_on_c, 0, 63, 84
1, 258139, Note_on_c, 0, 44, 92
1, 258150, Note_off_c, 0, 70, 59
1, 258162, Note_off_c, 0, 44, 70
1, 258178, Note_off_c, 0, 32, 64
1, 258192, Control_c, 0, 64, 91
1, 258199, Note_off_c, 0, 63, 54
1, 258202, Note_off_c, 0, 73, 61
1, 258207, Control_c, 0, 64, 73
1, 258222, Control_c, 0, 64, 31
1, 258233, Note_off_c, 0, 68, 62
1, 258237, Control_c, 0, 64, 0
1, 258266, Note_on_c, 0, 46, 96
1, 258268, Note_on_c, 0, 34, 95
1, 258273, Note_on_c, 0, 67, 87
1, 258274, Note_on_c, 0, 63, 82
1, 258285, Note_off_c, 0, 46, 71
1, 258288, Note_off_c, 0, 34, 69
1, 258324, Note_off_c, 0, 63, 58
1, 258326, Note_off_c, 0, 67, 58
1, 258524, Note_on_c, 0, 67, 77
1, 258526, Note_on_c, 0, 34, 92
1, 258526, Note_on_c, 0, 46, 94
1, 258527, Note_on_c, 0, 63, 83
1, 258527, Note_on_c, 0, 75, 78
1, 258546, Note_off_c, 0, 67, 69
1, 258546, Note_off_c, 0, 75, 72
1, 258549, Note_off_c, 0, 46, 70
1, 258553, Note_off_c, 0, 34, 68
1, 258555, Note_off_c, 0, 63, 64
1, 258777, Note_on_c, 0, 63, 93
1, 258777, Control_c, 0, 64, 70
1, 258778, Note_on_c, 0, 34, 86
1, 258779, Note_on_c, 0, 46, 88
1, 258786, Note_on_c, 0, 67, 84
1, 258791, Control_c, 0, 64, 93
1, 258803, Note_off_c, 0, 46, 69
1, 258806, Note_off_c, 0, 34, 67
1, 258806, Control_c, 0, 64, 127
1, 258848, Note_off_c, 0, 63, 61
1, 258851, Note_off_c, 0, 67, 54
1, 258970, Note_on_c, 0, 62, 77
1, 259005, Note_on_c, 0, 51, 91
1, 259008, Note_on_c, 0, 39, 86
1, 259011, Note_on_c, 0, 60, 89
1, 259013, Note_on_c, 0, 67, 88
1, 259019, Note_off_c, 0, 62, 63
1, 259030, Note_off_c, 0, 51, 68
1, 259039, Note_off_c, 0, 39, 64
1, 259040, Note_off_c, 0, 67, 63
1, 259049, Note_off_c, 0, 60, 68
1, 259136, Note_on_c, 0, 67, 91
1, 259137, Note_on_c, 0, 50, 94
1, 259138, Note_on_c, 0, 58, 95
1, 259142, Note_on_c, 0, 38, 90
1, 259165, Note_off_c, 0, 50, 67
1, 259168, Note_off_c, 0, 38, 69
1, 259168, Note_off_c, 0, 58, 65
1, 259178, Note_off_c, 0, 67, 64
1, 259271, Note_on_c, 0, 68, 118
1, 259272, Note_on_c, 0, 48, 99
1, 259274, Note_on_c, 0, 63, 100
1, 259277, Note_on_c, 0, 36, 93
1, 259281, Control_c, 0, 64, 89
1, 259294, Note_off_c, 0, 48, 69
1, 259296, Control_c, 0, 64, 0
1, 259297, Note_off_c, 0, 63, 66
1, 259301, Note_off_c, 0, 68, 69
1, 259302, Note_off_c, 0, 36, 67
1, 259337, Note_on_c, 0, 38, 3
1, 259362, Note_off_c, 0, 38, 40
1, 259540, Note_on_c, 0, 48, 98
1, 259542, Note_on_c, 0, 36, 90
1, 259544, Note_on_c, 0, 63, 100
1, 259544, Note_on_c, 0, 75, 98
1, 259562, Note_off_c, 0, 48, 71
1, 259569, Note_off_c, 0, 36, 68
1, 259572, Note_off_c, 0, 63, 63
1, 259572, Note_off_c, 0, 75, 68
1, 259798, Note_on_c, 0, 48, 88
1, 259801, Note_on_c, 0, 36, 85
1, 259801, Note_on_c, 0, 68, 91
1, 259807, Control_c, 0, 64, 71
1, 259808, Note_on_c, 0, 63, 76
1, 259821, Note_off_c, 0, 48, 70
1, 259822, Control_c, 0, 64, 91
1, 259830, Note_off_c, 0, 36, 67
1, 259833, Note_off_c, 0, 63, 65
1, 259837, Control_c, 0, 64, 127
1, 259867, Note_off_c, 0, 68, 59
1, 259975, Note_on_c, 0, 65, 83
1, 260005, Note_on_c, 0, 70, 80
1, 260013, Note_on_c, 0, 43, 90
1, 260016, Note_on_c, 0, 31, 82
1, 260032, Note_on_c, 0, 63, 81
1, 260040, Note_off_c, 0, 43, 67
1, 260043, Note_off_c, 0, 31, 64
1, 260046, Note_off_c, 0, 65, 63
1, 260081, Note_off_c, 0, 63, 62
1, 260094, Note_off_c, 0, 70, 64
1, 260151, Note_on_c, 0, 68, 84
1, 260151, Note_on_c, 0, 72, 84
1, 260153, Note_on_c, 0, 44, 92
1, 260154, Note_on_c, 0, 32, 87
1, 260155, Note_on_c, 0, 63, 76
1, 260177, Note_off_c, 0, 44, 67
1, 260178, Note_off_c, 0, 32, 65
1, 260202, Note_off_c, 0, 63, 52
1, 260204, Note_off_c, 0, 72, 62
1, 260217, Note_off_c, 0, 68, 57
1, 260284, Note_on_c, 0, 46, 98
1, 260285, Note_on_c, 0, 34, 98
1, 260289, Control_c, 0, 64, 118
1, 260296, Note_on_c, 0, 63, 81
1, 260296, Note_on_c, 0, 67, 87
1, 260304, Note_off_c, 0, 46, 70
1, 260304, Control_c, 0, 64, 71
1, 260309, Note_off_c, 0, 34, 69
1, 260312, Poly_aftertouch_c, 0, 44, 0
1, 260319, Control_c, 0, 64, 0
1, 260321, Poly_aftertouch_c, 0, 32, 0
1, 260344, Note_off_c, 0, 63, 57
1, 260344, Note_off_c, 0, 67, 61
1, 260556, Note_on_c, 0, 34, 97
1, 260557, Note_on_c, 0, 46, 90
1, 260559, Note_on_c, 0, 67, 82
1, 260560, Note_on_c, 0, 75, 85
1, 260561, Note_on_c, 0, 63, 85
1, 260578, Note_off_c, 0, 75, 72
1, 260580, Note_off_c, 0, 46, 68
1, 260580, Note_off_c, 0, 67, 69
1, 260580, Note_off_c, 0, 34, 70
1, 260592, Note_off_c, 0, 63, 62
1, 260809, Control_c, 0, 64, 59
1, 260823, Control_c, 0, 64, 68
1, 260838, Control_c, 0, 64, 76
1, 260838, Control_c, 0, 67, 8
1, 260843, Note_on_c, 0, 63, 74
1, 260848, Note_on_c, 0, 67, 69
1, 260851, Note_on_c, 0, 46, 64
1, 260851, Note_on_c, 0, 34, 63
1, 260853, Control_c, 0, 64, 90
1, 260853, Control_c, 0, 67, 12
1, 260875, Control_c, 0, 64, 111
1, 260875, Control_c, 0, 67, 17
1, 260884, Note_off_c, 0, 46, 58
1, 260888, Note_off_c, 0, 34, 56
1, 260890, Control_c, 0, 64, 127
1, 260890, Control_c, 0, 67, 22
1, 260893, Note_off_c, 0, 67, 59
1, 260902, Note_off_c, 0, 63, 56
1, 260905, Control_c, 0, 67, 27
1, 260920, Control_c, 0, 67, 31
1, 260935, Control_c, 0, 67, 34
1, 260949, Control_c, 0, 67, 38
1, 260964, Control_c, 0, 67, 41
1, 260979, Control_c, 0, 67, 45
1, 260994, Control_c, 0, 67, 47
1, 261009, Control_c, 0, 67, 49
1, 261023, Control_c, 0, 67, 50
1, 261038, Control_c, 0, 67, 52
1, 261053, Control_c, 0, 67, 52
1, 261068, Control_c, 0, 67, 53
1, 261081, Note_on_c, 0, 62, 68
1, 261083, Control_c, 0, 67, 53
1, 261097, Control_c, 0, 64, 106
1, 261097, Control_c, 0, 67, 54
1, 261112, Control_c, 0, 64, 77
1, 261112, Control_c, 0, 67, 55
1, 261121, Note_on_c, 0, 67, 56
1, 261127, Control_c, 0, 64, 50
1, 261127, Control_c, 0, 67, 55
1, 261142, Control_c, 0, 64, 29
1, 261142, Control_c, 0, 67, 56
1, 261150, Note_on_c, 0, 51, 54
1, 261157, Control_c, 0, 64, 60
1, 261157, Control_c, 0, 67, 56
1, 261160, Note_on_c, 0, 39, 43
1, 261171, Control_c, 0, 64, 69
1, 261171, Control_c, 0, 67, 57
1, 261186, Control_c, 0, 64, 77
1, 261186, Control_c, 0, 67, 58
1, 261187, Note_on_c, 0, 60, 57
1, 261188, Note_off_c, 0, 62, 52
1, 261201, Control_c, 0, 64, 92
1, 261201, Control_c, 0, 67, 60
1, 261216, Control_c, 0, 64, 127
1, 261216, Control_c, 0, 67, 62
1, 261230, Note_off_c, 0, 67, 58
1, 261230, Control_c, 0, 67, 64
1, 261237, Note_off_c, 0, 51, 61
1, 261245, Control_c, 0, 67, 67
1, 261249, Note_off_c, 0, 39, 51
1, 261254, Note_off_c, 0, 60, 58
1, 261260, Control_c, 0, 67, 70
1, 261275, Control_c, 0, 67, 73
1, 261290, Control_c, 0, 67, 76
1, 261304, Control_c, 0, 67, 78
1, 261319, Control_c, 0, 67, 79
1, 261328, Note_on_c, 0, 69, 72
1, 261334, Control_c, 0, 67, 80
1, 261349, Note_on_c, 0, 39, 53
1, 261349, Note_on_c, 0, 60, 59
1, 261355, Note_on_c, 0, 51, 53
1, 261364, Control_c, 0, 67, 80
1, 261391, Note_off_c, 0, 60, 59
1, 261394, Note_off_c, 0, 51, 61
1, 261423, Control_c, 0, 67, 80
1, 261431, Poly_aftertouch_c, 0, 67, 127
1, 261437, Note_off_c, 0, 69, 60
1, 261438, Control_c, 0, 67, 79
1, 261447, Note_on_c, 0, 38, 67
1, 261453, Control_c, 0, 67, 78
1, 261463, Poly_aftertouch_c, 0, 67, 0
1, 261468, Control_c, 0, 67, 78
1, 261474, Note_off_c, 0, 39, 55
1, 261483, Control_c, 0, 67, 77
1, 261512, Control_c, 0, 67, 77
1, 261587, Control_c, 0, 64, 91
1, 261602, Control_c, 0, 64, 65
1, 261623, Note_on_c, 0, 58, 68
1, 261624, Control_c, 0, 64, 0
1, 261646, Note_on_c, 0, 50, 65
1, 261668, Control_c, 0, 64, 62
1, 261683, Control_c, 0, 64, 72
1, 261683, Control_c, 0, 67, 76
1, 261698, Control_c, 0, 64, 87
1, 261698, Control_c, 0, 67, 75
1, 261713, Control_c, 0, 64, 127
1, 261713, Control_c, 0, 67, 74
1, 261728, Control_c, 0, 67, 73
1, 261739, Note_off_c, 0, 38, 58
1, 261739, Note_on_c, 0, 70, 62
1, 261742, Control_c, 0, 67, 72
1, 261757, Control_c, 0, 67, 71
1, 261772, Control_c, 0, 67, 70
1, 261778, Note_off_c, 0, 58, 61
1, 261787, Control_c, 0, 67, 70
1, 261802, Note_on_c, 0, 62, 57
1, 261802, Control_c, 0, 67, 69
1, 261821, Note_off_c, 0, 70, 55
1, 261851, Note_off_c, 0, 62, 56
1, 261861, Control_c, 0, 67, 69
1, 261875, Note_on_c, 0, 67, 65
1, 261891, Control_c, 0, 67, 68
1, 261904, Note_off_c, 0, 67, 64
1, 261935, Control_c, 0, 67, 68
1, 261942, Note_on_c, 0, 60, 71
1, 261951, Note_on_c, 0, 51, 74
1, 261954, Note_off_c, 0, 50, 64
1, 261965, Control_c, 0, 67, 67
1, 261994, Control_c, 0, 67, 67
1, 262022, Note_on_c, 0, 72, 75
1, 262049, Note_off_c, 0, 60, 52
1, 262053, Control_c, 0, 67, 67
1, 262083, Note_on_c, 0, 67, 69
1, 262083, Control_c, 0, 67, 68
1, 262127, Note_off_c, 0, 72, 60
1, 262127, Control_c, 0, 67, 68
1, 262142, Control_c, 0, 67, 69
1, 262156, Note_on_c, 0, 70, 76
1, 262157, Control_c, 0, 67, 70
1, 262161, Note_off_c, 0, 67, 61
1, 262172, Control_c, 0, 64, 89
1, 262172, Control_c, 0, 67, 70
1, 262187, Control_c, 0, 64, 32
1, 262187, Control_c, 0, 67, 71
1, 262188, Note_off_c, 0, 51, 64
1, 262201, Control_c, 0, 64, 0
1, 262205, Note_off_c, 0, 70, 61
1, 262207, Note_on_c, 0, 52, 73
1, 262211, Note_on_c, 0, 61, 78
1, 262216, Control_c, 0, 64, 51
1, 262216, Control_c, 0, 67, 70
1, 262231, Control_c, 0, 64, 70
1, 262231, Control_c, 0, 67, 70
1, 262246, Control_c, 0, 64, 82
1, 262246, Control_c, 0, 67, 69
1, 262261, Control_c, 0, 64, 109
1, 262261, Control_c, 0, 67, 69
1, 262275, Note_off_c, 0, 61, 62
1, 262276, Control_c, 0, 64, 127
1, 262276, Control_c, 0, 67, 68
1, 262281, Note_on_c, 0, 73, 85
1, 262291, Control_c, 0, 67, 68
1, 262303, Note_on_c, 0, 67, 62
1, 262306, Control_c, 0, 67, 67
1, 262320, Control_c, 0, 67, 65
1, 262329, Note_off_c, 0, 67, 65
1, 262336, Control_c, 0, 67, 61
1, 262346, Note_on_c, 0, 54, 83
1, 262347, Note_off_c, 0, 52, 61
1, 262350, Note_off_c, 0, 73, 66
1, 262351, Control_c, 0, 67, 54
1, 262373, Control_c, 0, 67, 48
1, 262388, Control_c, 0, 67, 41
1, 262401, Note_on_c, 0, 64, 78
1, 262403, Control_c, 0, 67, 36
1, 262417, Control_c, 0, 67, 31
1, 262432, Control_c, 0, 67, 27
1, 262444, Note_off_c, 0, 54, 63
1, 262446, Note_on_c, 0, 55, 82
1, 262447, Control_c, 0, 67, 23
1, 262456, Note_on_c, 0, 76, 81
1, 262458, Note_off_c, 0, 64, 42
1, 262462, Control_c, 0, 67, 20
1, 262464, Note_on_c, 0, 70, 87
1, 262476, Control_c, 0, 67, 16
1, 262482, Note_off_c, 0, 76, 65
1, 262491, Control_c, 0, 67, 13
1, 262506, Control_c, 0, 67, 11
1, 262508, Note_off_c, 0, 70, 64
1, 262511, Note_off_c, 0, 55, 65
1, 262521, Control_c, 0, 67, 8
1, 262536, Control_c, 0, 67, 0
1, 262548, Note_on_c, 0, 66, 88
1, 262550, Note_on_c, 0, 57, 85
1, 262589, Note_on_c, 0, 78, 79
1, 262606, Note_on_c, 0, 72, 71
1, 262607, Note_off_c, 0, 66, 64
1, 262616, Note_off_c, 0, 57, 57
1, 262681, Note_off_c, 0, 78, 63
1, 262697, Note_off_c, 0, 72, 55
1, 262708, Note_on_c, 0, 58, 86
1, 262711, Note_on_c, 0, 55, 73
1, 262711, Note_on_c, 0, 50, 68
1, 262714, Control_c, 0, 64, 112
1, 262726, Note_on_c, 0, 67, 79
1, 262729, Control_c, 0, 64, 71
1, 262743, Control_c, 0, 64, 0
1, 262788, Control_c, 0, 64, 40
1, 262791, Note_on_c, 0, 79, 67
1, 262802, Control_c, 0, 64, 67
1, 262817, Control_c, 0, 64, 83
1, 262832, Control_c, 0, 64, 127
1, 262837, Note_off_c, 0, 67, 58
1, 262839, Note_on_c, 0, 70, 67
1, 262905, Note_on_c, 0, 74, 82
1, 262911, Note_off_c, 0, 70, 63
1, 262935, Note_off_c, 0, 79, 63
1, 262950, Note_off_c, 0, 74, 63
1, 262954, Note_off_c, 0, 50, 64
1, 262966, Note_off_c, 0, 55, 64
1, 262979, Note_on_c, 0, 69, 73
1, 262982, Note_on_c, 0, 60, 92
1, 262984, Note_off_c, 0, 58, 61
1, 263045, Note_on_c, 0, 81, 81
1, 263090, Note_off_c, 0, 69, 62
1, 263099, Note_on_c, 0, 75, 66
1, 263150, Note_off_c, 0, 81, 62
1, 263158, Note_on_c, 0, 79, 73
1, 263164, Note_off_c, 0, 75, 60
1, 263209, Note_off_c, 0, 79, 60
1, 263224, Note_on_c, 0, 70, 79
1, 263232, Note_on_c, 0, 62, 91
1, 263240, Control_c, 0, 64, 76
1, 263246, Note_off_c, 0, 60, 62
1, 263255, Control_c, 0, 64, 19
1, 263270, Control_c, 0, 64, 32
1, 263285, Control_c, 0, 64, 65
1, 263296, Note_off_c, 0, 70, 61
1, 263299, Control_c, 0, 64, 76
1, 263304, Note_on_c, 0, 82, 82
1, 263314, Control_c, 0, 64, 94
1, 263329, Control_c, 0, 64, 127
1, 263333, Note_on_c, 0, 74, 63
1, 263368, Note_off_c, 0, 74, 60
1, 263372, Note_on_c, 0, 79, 65
1, 263375, Note_off_c, 0, 82, 64
1, 263395, Note_on_c, 0, 64, 89
1, 263398, Note_off_c, 0, 79, 66
1, 263412, Note_off_c, 0, 62, 61
1, 263452, Note_on_c, 0, 74, 83
1, 263465, Note_on_c, 0, 66, 96
1, 263469, Note_off_c, 0, 64, 67
1, 263488, Note_off_c, 0, 74, 66
1, 263504, Note_on_c, 0, 86, 74
1, 263519, Note_on_c, 0, 82, 81
1, 263529, Note_off_c, 0, 86, 67
1, 263543, Note_off_c, 0, 82, 65
1, 263568, Note_off_c, 0, 66, 60
1, 263591, Note_on_c, 0, 75, 79
1, 263594, Note_on_c, 0, 67, 85
1, 263619, Note_off_c, 0, 67, 62
1, 263636, Note_on_c, 0, 87, 88
1, 263654, Note_off_c, 0, 75, 64
1, 263665, Note_off_c, 0, 87, 62
1, 263668, Note_on_c, 0, 82, 62
1, 263687, Note_off_c, 0, 82, 64
1, 263699, Control_c, 0, 67, 10
1, 263714, Control_c, 0, 67, 12
1, 263729, Control_c, 0, 67, 15
1, 263744, Control_c, 0, 67, 16
1, 263759, Control_c, 0, 67, 18
1, 263773, Control_c, 0, 67, 19
1, 263788, Control_c, 0, 67, 20
1, 263803, Control_c, 0, 67, 22
1, 263817, Control_c, 0, 67, 23
1, 263832, Control_c, 0, 67, 24
1, 263835, Note_on_c, 0, 38, 67
1, 263847, Control_c, 0, 67, 24
1, 263883, Note_on_c, 0, 50, 78
1, 263899, Control_c, 0, 64, 71
1, 263914, Control_c, 0, 64, 0
1, 263939, Note_on_c, 0, 58, 73
1, 263945, Control_c, 0, 67, 24
1, 263960, Control_c, 0, 64, 61
1, 263960, Control_c, 0, 67, 23
1, 263975, Control_c, 0, 64, 73
1, 263975, Control_c, 0, 67, 22
1, 263990, Control_c, 0, 64, 96
1, 263990, Control_c, 0, 67, 20
1, 264005, Control_c, 0, 64, 127
1, 264005, Control_c, 0, 67, 19
1, 264012, Note_off_c, 0, 38, 60
1, 264018, Note_on_c, 0, 70, 70
1, 264020, Control_c, 0, 67, 17
1, 264035, Control_c, 0, 67, 15
1, 264042, Note_off_c, 0, 58, 58
1, 264049, Control_c, 0, 67, 14
1, 264064, Control_c, 0, 67, 13
1, 264079, Control_c, 0, 67, 11
1, 264094, Control_c, 0, 67, 9
1, 264104, Note_on_c, 0, 62, 61
1, 264109, Control_c, 0, 67, 8
1, 264112, Note_off_c, 0, 70, 54
1, 264123, Control_c, 0, 67, 0
1, 264143, Note_off_c, 0, 62, 60
1, 264146, Note_on_c, 0, 67, 74
1, 264185, Note_off_c, 0, 67, 58
1, 264217, Note_on_c, 0, 60, 76
1, 264220, Note_on_c, 0, 51, 77
1, 264224, Note_off_c, 0, 50, 62
1, 264227, Control_c, 0, 64, 103
1, 264241, Control_c, 0, 64, 76
1, 264256, Control_c, 0, 64, 66
1, 264271, Control_c, 0, 64, 72
1, 264281, Note_on_c, 0, 72, 77
1, 264286, Control_c, 0, 64, 85
1, 264301, Control_c, 0, 64, 121
1, 264315, Control_c, 0, 64, 127
1, 264332, Note_off_c, 0, 60, 62
1, 264336, Note_on_c, 0, 67, 71
1, 264391, Note_off_c, 0, 72, 63
1, 264402, Note_on_c, 0, 70, 78
1, 264414, Note_off_c, 0, 67, 61
1, 264439, Note_off_c, 0, 51, 64
1, 264447, Note_on_c, 0, 52, 80
1, 264449, Control_c, 0, 64, 92
1, 264449, Note_off_c, 0, 70, 60
1, 264457, Note_on_c, 0, 61, 78
1, 264464, Control_c, 0, 64, 66
1, 264479, Control_c, 0, 64, 62
1, 264494, Control_c, 0, 64, 71
1, 264509, Control_c, 0, 64, 81
1, 264523, Control_c, 0, 64, 100
1, 264527, Note_on_c, 0, 73, 87
1, 264531, Note_off_c, 0, 61, 62
1, 264538, Control_c, 0, 64, 127
1, 264554, Note_on_c, 0, 67, 65
1, 264583, Note_off_c, 0, 67, 62
1, 264599, Note_on_c, 0, 54, 85
1, 264604, Note_off_c, 0, 52, 58
1, 264606, Note_off_c, 0, 73, 65
1, 264623, Note_on_c, 0, 69, 52
1, 264646, Note_off_c, 0, 69, 59
1, 264652, Note_on_c, 0, 64, 78
1, 264691, Note_off_c, 0, 64, 63
1, 264692, Note_on_c, 0, 55, 88
1, 264699, Note_off_c, 0, 54, 64
1, 264717, Note_on_c, 0, 76, 81
1, 264720, Note_on_c, 0, 70, 87
1, 264736, Note_off_c, 0, 76, 71
1, 264764, Note_off_c, 0, 55, 63
1, 264764, Note_off_c, 0, 70, 63
1, 264801, Note_on_c, 0, 66, 92
1, 264808, Note_on_c, 0, 57, 86
1, 264836, Note_on_c, 0, 78, 87
1, 264862, Note_off_c, 0, 66, 64
1, 264864, Note_on_c, 0, 72, 70
1, 264881, Note_off_c, 0, 57, 56
1, 264935, Note_off_c, 0, 78, 62
1, 264947, Note_off_c, 0, 72, 57
1, 264970, Note_on_c, 0, 58, 85
1, 264971, Note_on_c, 0, 50, 77
1, 264972, Note_on_c, 0, 67, 83
1, 264973, Note_on_c, 0, 55, 83
1, 264975, Control_c, 0, 64, 95
1, 264989, Control_c, 0, 64, 61
1, 265004, Control_c, 0, 64, 0
1, 265034, Control_c, 0, 64, 40
1, 265049, Control_c, 0, 64, 68
1, 265050, Note_on_c, 0, 79, 66
1, 265063, Control_c, 0, 64, 85
1, 265074, Note_on_c, 0, 70, 69
1, 265078, Control_c, 0, 64, 127
1, 265105, Note_off_c, 0, 67, 53
1, 265150, Note_on_c, 0, 74, 79
1, 265156, Note_off_c, 0, 70, 62
1, 265186, Note_off_c, 0, 79, 63
1, 265193, Note_off_c, 0, 74, 64
1, 265223, Note_off_c, 0, 55, 64
1, 265229, Note_off_c, 0, 50, 65
1, 265231, Note_on_c, 0, 69, 72
1, 265241, Note_on_c, 0, 60, 99
1, 265257, Note_off_c, 0, 58, 64
1, 265296, Note_on_c, 0, 81, 82
1, 265337, Note_off_c, 0, 69, 57
1, 265349, Note_on_c, 0, 75, 68
1, 265391, Note_off_c, 0, 81, 64
1, 265396, Note_on_c, 0, 79, 73
1, 265424, Note_off_c, 0, 75, 60
1, 265446, Note_off_c, 0, 79, 61
1, 265460, Note_off_c, 0, 60, 60
1, 265470, Note_on_c, 0, 70, 80
1, 265491, Note_on_c, 0, 62, 97
1, 265516, Control_c, 0, 64, 90
1, 265528, Note_off_c, 0, 70, 62
1, 265531, Control_c, 0, 64, 68
1, 265546, Control_c, 0, 64, 65
1, 265548, Note_on_c, 0, 82, 81
1, 265561, Control_c, 0, 64, 74
1, 265567, Note_on_c, 0, 74, 71
1, 265576, Control_c, 0, 64, 88
1, 265591, Control_c, 0, 64, 127
1, 265606, Note_off_c, 0, 82, 64
1, 265610, Note_on_c, 0, 79, 74
1, 265620, Note_off_c, 0, 74, 63
1, 265663, Note_on_c, 0, 64, 93
1, 265667, Note_off_c, 0, 79, 59
1, 265673, Note_off_c, 0, 62, 61
1, 265701, Note_on_c, 0, 74, 76
1, 265738, Note_off_c, 0, 64, 64
1, 265740, Note_on_c, 0, 66, 89
1, 265745, Note_off_c, 0, 74, 67
1, 265767, Note_on_c, 0, 82, 93
1, 265777, Note_on_c, 0, 86, 58
1, 265782, Note_on_c, 0, 84, 44
1, 265796, Note_off_c, 0, 86, 65
1, 265806, Note_off_c, 0, 82, 64
1, 265811, Note_off_c, 0, 84, 54
1, 265838, Note_off_c, 0, 66, 62
1, 265865, Note_on_c, 0, 67, 96
1, 265865, Note_on_c, 0, 75, 78
1, 265901, Note_on_c, 0, 87, 94
1, 265910, Note_on_c, 0, 82, 87
1, 265928, Note_off_c, 0, 67, 63
1, 265933, Note_off_c, 0, 75, 67
1, 265951, Note_off_c, 0, 87, 67
1, 265963, Note_off_c, 0, 82, 63
1, 266056, Note_on_c, 0, 65, 97
1, 266060, Note_on_c, 0, 53, 85
1, 266068, Note_on_c, 0, 55, 82
1, 266079, Control_c, 0, 64, 75
1, 266094, Control_c, 0, 64, 0
1, 266146, Control_c, 0, 64, 57
1, 266160, Control_c, 0, 64, 71
1, 266169, Note_on_c, 0, 79, 81
1, 266175, Control_c, 0, 64, 92
1, 266190, Control_c, 0, 64, 127
1, 266216, Note_off_c, 0, 65, 59
1, 266238, Note_off_c, 0, 53, 64
1, 266247, Note_on_c, 0, 71, 76
1, 266309, Note_on_c, 0, 74, 87
1, 266332, Note_off_c, 0, 71, 62
1, 266369, Note_off_c, 0, 79, 62
1, 266385, Note_off_c, 0, 74, 61
1, 266390, Note_on_c, 0, 63, 97
1, 266393, Note_on_c, 0, 51, 87
1, 266396, Note_on_c, 0, 69, 82
1, 266413, Control_c, 0, 64, 99
1, 266428, Control_c, 0, 64, 72
1, 266443, Control_c, 0, 64, 65
1, 266458, Control_c, 0, 64, 75
1, 266473, Control_c, 0, 64, 101
1, 266479, Note_on_c, 0, 81, 84
1, 266488, Note_on_c, 0, 73, 82
1, 266488, Control_c, 0, 64, 127
1, 266505, Note_off_c, 0, 73, 66
1, 266513, Note_off_c, 0, 69, 56
1, 266517, Note_on_c, 0, 72, 68
1, 266561, Note_off_c, 0, 63, 59
1, 266568, Note_off_c, 0, 51, 61
1, 266580, Note_on_c, 0, 75, 85
1, 266593, Note_off_c, 0, 72, 64
1, 266629, Note_off_c, 0, 81, 63
1, 266633, Note_off_c, 0, 75, 66
1, 266639, Note_off_c, 0, 55, 0
1, 266646, Note_on_c, 0, 62, 94
1, 266650, Control_c, 0, 64, 82
1, 266655, Note_on_c, 0, 50, 90
1, 266665, Control_c, 0, 64, 59
1, 266667, Note_on_c, 0, 71, 65
1, 266680, Control_c, 0, 64, 62
1, 266684, Poly_aftertouch_c, 0, 55, 0
1, 266695, Control_c, 0, 64, 74
1, 266709, Control_c, 0, 64, 98
1, 266710, Note_off_c, 0, 62, 63
1, 266712, Note_off_c, 0, 50, 65
1, 266719, Note_off_c, 0, 71, 63
1, 266721, Note_on_c, 0, 83, 81
1, 266724, Control_c, 0, 64, 127
1, 266736, Note_on_c, 0, 77, 81
1, 266794, Note_on_c, 0, 79, 53
1, 266805, Note_on_c, 0, 61, 96
1, 266807, Note_on_c, 0, 49, 93
1, 266817, Note_off_c, 0, 77, 42
1, 266820, Note_off_c, 0, 79, 60
1, 266820, Note_off_c, 0, 83, 63
1, 266828, Note_off_c, 0, 61, 66
1, 266837, Note_off_c, 0, 49, 65
1, 266849, Note_on_c, 0, 72, 79
1, 266908, Note_on_c, 0, 60, 97
1, 266911, Note_on_c, 0, 48, 92
1, 266928, Note_on_c, 0, 75, 83
1, 266932, Note_on_c, 0, 84, 80
1, 266937, Note_off_c, 0, 72, 61
1, 266938, Note_off_c, 0, 60, 63
1, 266938, Note_off_c, 0, 48, 67
1, 266952, Note_off_c, 0, 75, 63
1, 266975, Note_off_c, 0, 84, 64
1, 267016, Note_on_c, 0, 74, 86
1, 267029, Note_on_c, 0, 59, 103
1, 267032, Note_on_c, 0, 47, 93
1, 267051, Note_on_c, 0, 86, 78
1, 267058, Note_off_c, 0, 59, 66
1, 267060, Note_off_c, 0, 47, 66
1, 267069, Note_on_c, 0, 48, 34
1, 267070, Note_off_c, 0, 48, 127
1, 267090, Note_off_c, 0, 74, 67
1, 267094, Note_on_c, 0, 79, 70
1, 267114, Note_off_c, 0, 86, 63
1, 267162, Note_off_c, 0, 79, 59
1, 267182, Note_on_c, 0, 57, 95
1, 267186, Note_on_c, 0, 48, 77
1, 267186, Note_on_c, 0, 45, 93
1, 267193, Control_c, 0, 64, 97
1, 267201, Note_on_c, 0, 75, 86
1, 267208, Control_c, 0, 64, 69
1, 267218, Note_on_c, 0, 87, 84
1, 267222, Control_c, 0, 64, 36
1, 267237, Control_c, 0, 64, 61
1, 267252, Control_c, 0, 64, 71
1, 267264, Note_off_c, 0, 75, 61
1, 267266, Control_c, 0, 64, 86
1, 267281, Control_c, 0, 64, 127
1, 267293, Note_on_c, 0, 79, 78
1, 267305, Note_off_c, 0, 87, 65
1, 267341, Note_off_c, 0, 57, 61
1, 267346, Note_off_c, 0, 45, 61
1, 267362, Note_on_c, 0, 84, 74
1, 267364, Note_off_c, 0, 79, 61
1, 267436, Note_on_c, 0, 77, 83
1, 267438, Note_off_c, 0, 84, 62
1, 267449, Note_on_c, 0, 56, 100
1, 267454, Note_on_c, 0, 44, 91
1, 267474, Control_c, 0, 64, 79
1, 267489, Control_c, 0, 64, 0
1, 267518, Note_on_c, 0, 89, 87
1, 267519, Control_c, 0, 64, 43
1, 267533, Control_c, 0, 64, 71
1, 267548, Control_c, 0, 64, 96
1, 267560, Note_on_c, 0, 80, 67
1, 267563, Control_c, 0, 64, 127
1, 267597, Note_off_c, 0, 77, 38
1, 267599, Note_off_c, 0, 56, 65
1, 267620, Note_off_c, 0, 44, 64
1, 267626, Note_on_c, 0, 84, 84
1, 267642, Note_off_c, 0, 80, 61
1, 267665, Note_off_c, 0, 89, 63
1, 267680, Note_off_c, 0, 84, 56
1, 267689, Control_c, 0, 64, 88
1, 267697, Note_on_c, 0, 55, 99
1, 267704, Note_on_c, 0, 43, 87
1, 267704, Control_c, 0, 64, 0
1, 267705, Note_on_c, 0, 79, 82
1, 267748, Control_c, 0, 64, 69
1, 267763, Control_c, 0, 64, 97
1, 267770, Note_off_c, 0, 55, 65
1, 267771, Note_off_c, 0, 43, 64
1, 267778, Control_c, 0, 64, 127
1, 267785, Note_on_c, 0, 91, 90
1, 267794, Note_off_c, 0, 48, 63
1, 267823, Note_off_c, 0, 79, 62
1, 267831, Note_on_c, 0, 84, 54
1, 267865, Note_on_c, 0, 87, 89
1, 267867, Note_on_c, 0, 54, 92
1, 267870, Note_on_c, 0, 42, 83
1, 267870, Note_off_c, 0, 91, 66
1, 267900, Note_off_c, 0, 54, 62
1, 267902, Note_off_c, 0, 42, 66
1, 267917, Note_off_c, 0, 84, 52
1, 267942, Control_c, 0, 64, 79
1, 267945, Note_on_c, 0, 80, 91
1, 267950, Note_off_c, 0, 87, 64
1, 267956, Control_c, 0, 64, 0
1, 267968, Note_on_c, 0, 53, 97
1, 267970, Note_on_c, 0, 41, 83
1, 267984, Note_on_c, 0, 92, 38
1, 267986, Control_c, 0, 64, 34
1, 268001, Control_c, 0, 64, 73
1, 268010, Note_off_c, 0, 53, 67
1, 268011, Note_off_c, 0, 92, 0
1, 268011, Note_on_c, 0, 92, 37
1, 268015, Control_c, 0, 64, 112
1, 268016, Note_off_c, 0, 41, 62
1, 268030, Control_c, 0, 64, 127
1, 268041, Note_on_c, 0, 84, 71
1, 268042, Note_on_c, 0, 87, 89
1, 268052, Note_off_c, 0, 80, 65
1, 268102, Note_off_c, 0, 92, 64
1, 268114, Note_off_c, 0, 87, 63
1, 268130, Note_on_c, 0, 51, 101
1, 268133, Note_on_c, 0, 39, 91
1, 268134, Note_on_c, 0, 79, 83
1, 268153, Note_off_c, 0, 84, 60
1, 268160, Note_off_c, 0, 39, 67
1, 268164, Note_off_c, 0, 51, 66
1, 268219, Note_on_c, 0, 91, 91
1, 268225, Note_on_c, 0, 84, 73
1, 268225, Note_on_c, 0, 87, 92
1, 268286, Note_off_c, 0, 84, 63
1, 268288, Note_off_c, 0, 91, 62
1, 268300, Note_off_c, 0, 87, 64
1, 268348, Note_off_c, 0, 79, 62
1, 268424, Note_on_c, 0, 65, 102
1, 268432, Note_on_c, 0, 53, 86
1, 268436, Note_on_c, 0, 55, 82
1, 268512, Control_c, 0, 64, 102
1, 268527, Control_c, 0, 64, 70
1, 268541, Control_c, 0, 64, 0
1, 268563, Note_on_c, 0, 79, 93
1, 268571, Control_c, 0, 64, 48
1, 268586, Control_c, 0, 64, 67
1, 268601, Control_c, 0, 64, 80
1, 268615, Control_c, 0, 64, 108
1, 268619, Note_off_c, 0, 65, 60
1, 268628, Note_off_c, 0, 53, 60
1, 268630, Control_c, 0, 64, 127
1, 268655, Note_on_c, 0, 71, 80
1, 268707, Note_on_c, 0, 74, 84
1, 268733, Note_off_c, 0, 71, 63
1, 268750, Note_off_c, 0, 79, 60
1, 268775, Note_off_c, 0, 74, 61
1, 268778, Note_on_c, 0, 63, 94
1, 268781, Note_on_c, 0, 51, 88
1, 268790, Note_on_c, 0, 69, 81
1, 268794, Control_c, 0, 64, 81
1, 268809, Control_c, 0, 64, 64
1, 268824, Control_c, 0, 64, 66
1, 268838, Control_c, 0, 64, 79
1, 268853, Control_c, 0, 64, 107
1, 268868, Control_c, 0, 64, 127
1, 268870, Note_on_c, 0, 81, 88
1, 268886, Note_on_c, 0, 72, 78
1, 268894, Note_off_c, 0, 69, 62
1, 268915, Note_off_c, 0, 63, 60
1, 268936, Note_off_c, 0, 51, 62
1, 268961, Note_on_c, 0, 75, 84
1, 268965, Note_off_c, 0, 72, 64
1, 268982, Note_off_c, 0, 55, 59
1, 269001, Control_c, 0, 64, 102
1, 269004, Note_off_c, 0, 81, 63
1, 269011, Note_off_c, 0, 75, 66
1, 269016, Control_c, 0, 64, 79
1, 269019, Note_on_c, 0, 62, 91
1, 269028, Note_on_c, 0, 50, 84
1, 269031, Control_c, 0, 64, 76
1, 269046, Control_c, 0, 64, 91
1, 269059, Note_on_c, 0, 72, 68
1, 269061, Control_c, 0, 64, 127
1, 269065, Note_off_c, 0, 62, 64
1, 269066, Note_off_c, 0, 50, 62
1, 269117, Note_on_c, 0, 84, 67
1, 269125, Note_off_c, 0, 72, 62
1, 269129, Note_on_c, 0, 77, 75
1, 269129, Note_on_c, 0, 83, 70
1, 269162, Note_on_c, 0, 79, 71
1, 269173, Note_on_c, 0, 61, 93
1, 269174, Note_on_c, 0, 49, 92
1, 269177, Note_off_c, 0, 77, 60
1, 269192, Note_off_c, 0, 84, 60
1, 269195, Note_off_c, 0, 61, 68
1, 269201, Note_off_c, 0, 49, 67
1, 269214, Note_off_c, 0, 79, 63
1, 269229, Note_off_c, 0, 83, 26
1, 269247, Note_on_c, 0, 72, 75
1, 269247, Note_on_c, 0, 74, 71
1, 269263, Note_on_c, 0, 60, 99
1, 269268, Note_on_c, 0, 48, 90
1, 269297, Note_off_c, 0, 48, 65
1, 269298, Note_off_c, 0, 60, 67
1, 269299, Note_off_c, 0, 72, 50
1, 269317, Note_on_c, 0, 84, 66
1, 269319, Note_on_c, 0, 86, 71
1, 269323, Note_off_c, 0, 74, 65
1, 269344, Note_off_c, 0, 84, 67
1, 269345, Note_off_c, 0, 86, 63
1, 269348, Note_on_c, 0, 76, 33
1, 269385, Note_on_c, 0, 59, 100
1, 269385, Note_off_c, 0, 76, 51
1, 269388, Note_on_c, 0, 47, 95
1, 269390, Note_on_c, 0, 74, 94
1, 269408, Note_on_c, 0, 86, 79
1, 269417, Note_off_c, 0, 59, 65
1, 269422, Note_off_c, 0, 47, 65
1, 269445, Note_off_c, 0, 74, 66
1, 269457, Note_off_c, 0, 86, 64
1, 269465, Note_on_c, 0, 77, 52
1, 269487, Note_off_c, 0, 77, 61
1, 269502, Note_on_c, 0, 80, 39
1, 269531, Note_off_c, 0, 80, 54
1, 269537, Note_on_c, 0, 57, 99
1, 269541, Note_on_c, 0, 45, 87
1, 269541, Note_on_c, 0, 48, 85
1, 269550, Note_on_c, 0, 75, 92
1, 269557, Control_c, 0, 64, 100
1, 269572, Control_c, 0, 64, 70
1, 269586, Control_c, 0, 64, 0
1, 269601, Control_c, 0, 64, 30
1, 269616, Control_c, 0, 64, 67
1, 269628, Note_on_c, 0, 87, 88
1, 269631, Control_c, 0, 64, 83
1, 269640, Note_off_c, 0, 75, 63
1, 269646, Control_c, 0, 64, 127
1, 269686, Note_off_c, 0, 45, 64
1, 269707, Note_on_c, 0, 79, 70
1, 269710, Note_off_c, 0, 87, 67
1, 269716, Note_off_c, 0, 57, 59
1, 269743, Note_on_c, 0, 84, 81
1, 269758, Note_off_c, 0, 79, 63
1, 269771, Note_on_c, 0, 82, 51
1, 269794, Note_off_c, 0, 82, 60
1, 269818, Note_off_c, 0, 84, 48
1, 269823, Note_on_c, 0, 56, 100
1, 269826, Note_on_c, 0, 44, 93
1, 269832, Note_on_c, 0, 77, 86
1, 269839, Control_c, 0, 64, 88
1, 269860, Control_c, 0, 64, 47
1, 269875, Control_c, 0, 64, 0
1, 269905, Control_c, 0, 64, 64
1, 269920, Control_c, 0, 64, 78
1, 269922, Note_on_c, 0, 89, 84
1, 269934, Control_c, 0, 64, 127
1, 269979, Note_on_c, 0, 80, 75
1, 270002, Note_off_c, 0, 44, 61
1, 270008, Note_off_c, 0, 56, 64
1, 270021, Note_off_c, 0, 77, 56
1, 270025, Note_on_c, 0, 84, 79
1, 270053, Note_off_c, 0, 80, 62
1, 270081, Note_off_c, 0, 89, 63
1, 270086, Note_off_c, 0, 48, 0
1, 270087, Note_off_c, 0, 84, 65
1, 270104, Note_on_c, 0, 55, 104
1, 270110, Note_on_c, 0, 43, 92
1, 270113, Control_c, 0, 64, 90
1, 270118, Note_on_c, 0, 79, 80
1, 270123, Poly_aftertouch_c, 0, 48, 127
1, 270128, Control_c, 0, 64, 46
1, 270142, Control_c, 0, 64, 0
1, 270172, Control_c, 0, 64, 62
1, 270186, Control_c, 0, 64, 77
1, 270201, Control_c, 0, 64, 127
1, 270213, Note_on_c, 0, 91, 95
1, 270215, Note_off_c, 0, 43, 64
1, 270218, Note_off_c, 0, 55, 64
1, 270242, Poly_aftertouch_c, 0, 48, 0
1, 270277, Note_on_c, 0, 84, 70
1, 270313, Note_off_c, 0, 79, 61
1, 270327, Note_on_c, 0, 54, 92
1, 270331, Note_on_c, 0, 42, 82
1, 270338, Note_on_c, 0, 87, 89
1, 270350, Note_off_c, 0, 91, 63
1, 270356, Note_off_c, 0, 54, 64
1, 270366, Note_off_c, 0, 42, 65
1, 270389, Note_off_c, 0, 84, 61
1, 270420, Note_off_c, 0, 87, 64
1, 270426, Note_on_c, 0, 80, 98
1, 270434, Note_on_c, 0, 41, 64
1, 270438, Note_on_c, 0, 53, 101
1, 270454, Control_c, 0, 64, 71
1, 270469, Control_c, 0, 64, 0
1, 270498, Control_c, 0, 64, 67
1, 270513, Control_c, 0, 64, 81
1, 270520, Note_on_c, 0, 92, 92
1, 270526, Note_on_c, 0, 87, 83
1, 270527, Note_off_c, 0, 53, 66
1, 270528, Control_c, 0, 64, 127
1, 270536, Note_on_c, 0, 84, 63
1, 270537, Note_off_c, 0, 41, 62
1, 270551, Note_off_c, 0, 80, 59
1, 270623, Note_off_c, 0, 87, 63
1, 270637, Note_off_c, 0, 92, 65
1, 270643, Note_on_c, 0, 79, 93
1, 270644, Note_on_c, 0, 51, 102
1, 270652, Note_on_c, 0, 39, 89
1, 270683, Note_off_c, 0, 84, 54
1, 270718, Note_on_c, 0, 84, 56
1, 270719, Note_on_c, 0, 91, 96
1, 270731, Note_on_c, 0, 87, 90
1, 270787, Note_off_c, 0, 79, 59
1, 270828, Note_off_c, 0, 91, 46
1, 270875, Note_off_c, 0, 87, 59
1, 270903, Note_off_c, 0, 84, 62
1, 270936, Control_c, 0, 64, 114
1, 270942, Note_on_c, 0, 84, 81
1, 270944, Note_off_c, 0, 39, 58
1, 270947, Note_on_c, 0, 92, 105
1, 270948, Note_on_c, 0, 80, 95
1, 270950, Control_c, 0, 64, 70
1, 270951, Note_on_c, 0, 87, 98
1, 270965, Control_c, 0, 64, 0
1, 270995, Control_c, 0, 64, 33
1, 271010, Control_c, 0, 64, 72
1, 271025, Control_c, 0, 64, 127
1, 271041, Note_on_c, 0, 39, 83
1, 271109, Note_on_c, 0, 48, 85
1, 271111, Note_off_c, 0, 51, 64
1, 271196, Note_on_c, 0, 44, 87
1, 271198, Note_off_c, 0, 80, 64
1, 271201, Note_off_c, 0, 92, 63
1, 271213, Note_off_c, 0, 39, 53
1, 271225, Note_off_c, 0, 48, 63
1, 271233, Note_off_c, 0, 87, 55
1, 271234, Note_off_c, 0, 84, 54
1, 271275, Note_on_c, 0, 51, 87
1, 271278, Note_on_c, 0, 84, 82
1, 271278, Note_on_c, 0, 91, 104
1, 271279, Note_on_c, 0, 87, 92
1, 271283, Note_on_c, 0, 79, 100
1, 271293, Note_off_c, 0, 44, 63
1, 271380, Note_on_c, 0, 48, 76
1, 271382, Note_off_c, 0, 91, 63
1, 271386, Note_on_c, 0, 47, 71
1, 271396, Poly_aftertouch_c, 0, 89, 0
1, 271405, Note_off_c, 0, 87, 65
1, 271418, Note_off_c, 0, 84, 61
1, 271462, Note_on_c, 0, 44, 85
1, 271482, Note_off_c, 0, 48, 62
1, 271487, Note_off_c, 0, 47, 62
1, 271533, Note_off_c, 0, 79, 57
1, 271547, Note_on_c, 0, 39, 84
1, 271564, Note_off_c, 0, 44, 64
1, 271628, Note_off_c, 0, 39, 61
1, 271684, Note_on_c, 0, 80, 90
1, 271685, Note_on_c, 0, 89, 101
1, 271687, Note_on_c, 0, 77, 95
1, 271688, Note_on_c, 0, 84, 94
1, 271755, Note_off_c, 0, 51, 63
1, 271776, Note_off_c, 0, 89, 59
1, 271782, Note_on_c, 0, 44, 65
1, 271804, Note_off_c, 0, 77, 63
1, 271875, Note_on_c, 0, 51, 76
1, 271928, Note_off_c, 0, 80, 59
1, 271957, Note_off_c, 0, 44, 58
1, 271971, Note_on_c, 0, 75, 97
1, 271979, Note_on_c, 0, 86, 78
1, 271980, Note_on_c, 0, 87, 74
1, 271985, Note_off_c, 0, 84, 63
1, 271986, Note_on_c, 0, 56, 80
1, 271992, Note_off_c, 0, 86, 72
1, 272003, Note_off_c, 0, 87, 71
1, 272009, Note_off_c, 0, 75, 64
1, 272027, Note_off_c, 0, 51, 63
1, 272063, Note_on_c, 0, 85, 93
1, 272065, Note_on_c, 0, 73, 97
1, 272087, Note_on_c, 0, 48, 76
1, 272143, Note_off_c, 0, 73, 58
1, 272167, Note_off_c, 0, 85, 62
1, 272176, Note_on_c, 0, 51, 85
1, 272211, Note_off_c, 0, 48, 55
1, 272228, Note_on_c, 0, 84, 97
1, 272232, Note_on_c, 0, 72, 99
1, 272267, Note_off_c, 0, 56, 61
1, 272271, Note_off_c, 0, 72, 63
1, 272282, Note_on_c, 0, 44, 92
1, 272294, Note_off_c, 0, 51, 62
1, 272319, Note_off_c, 0, 84, 58
1, 272325, Note_off_c, 0, 44, 68
1, 272423, Note_on_c, 0, 85, 55
1, 272491, Note_off_c, 0, 85, 0
1, 272497, Note_on_c, 0, 89, 103
1, 272500, Note_on_c, 0, 77, 95
1, 272501, Note_on_c, 0, 84, 81
1, 272507, Note_on_c, 0, 80, 82
1, 272527, Poly_aftertouch_c, 0, 85, 127
1, 272551, Control_c, 0, 64, 93
1, 272566, Control_c, 0, 64, 66
1, 272580, Control_c, 0, 64, 0
1, 272581, Poly_aftertouch_c, 0, 85, 0
1, 272595, Control_c, 0, 64, 62
1, 272610, Control_c, 0, 64, 75
1, 272620, Note_on_c, 0, 48, 79
1, 272625, Control_c, 0, 64, 104
1, 272640, Control_c, 0, 64, 127
1, 272690, Note_off_c, 0, 89, 61
1, 272700, Note_off_c, 0, 77, 56
1, 272718, Note_on_c, 0, 56, 82
1, 272739, Note_off_c, 0, 48, 61
1, 272777, Note_off_c, 0, 80, 58
1, 272805, Note_on_c, 0, 51, 84
1, 272810, Note_off_c, 0, 56, 65
1, 272874, Note_off_c, 0, 51, 63
1, 272881, Note_on_c, 0, 87, 101
1, 272882, Note_on_c, 0, 80, 95
1, 272882, Note_on_c, 0, 75, 97
1, 272894, Note_on_c, 0, 60, 78
1, 272913, Note_off_c, 0, 84, 62
1, 272938, Note_off_c, 0, 87, 67
1, 272959, Note_on_c, 0, 56, 79
1, 272991, Note_off_c, 0, 80, 60
1, 272992, Note_off_c, 0, 60, 59
1, 273016, Note_off_c, 0, 75, 57
1, 273037, Note_on_c, 0, 51, 82
1, 273054, Note_off_c, 0, 56, 63
1, 273077, Note_on_c, 0, 48, 76
1, 273109, Note_off_c, 0, 51, 63
1, 273131, Note_off_c, 0, 48, 63
1, 273164, Note_on_c, 0, 85, 104
1, 273165, Note_on_c, 0, 80, 90
1, 273168, Note_on_c, 0, 75, 89
1, 273169, Note_on_c, 0, 73, 93
1, 273242, Note_off_c, 0, 85, 66
1, 273244, Note_off_c, 0, 73, 60
1, 273246, Note_on_c, 0, 51, 77
1, 273267, Note_off_c, 0, 75, 58
1, 273286, Note_off_c, 0, 80, 58
1, 273308, Note_on_c, 0, 60, 55
1, 273338, Note_off_c, 0, 51, 57
1, 273388, Note_on_c, 0, 72, 91
1, 273391, Note_on_c, 0, 84, 95
1, 273396, Note_on_c, 0, 56, 77
1, 273401, Note_off_c, 0, 60, 64
1, 273406, Note_off_c, 0, 72, 70
1, 273407, Poly_aftertouch_c, 0, 59, 0
1, 273409, Note_off_c, 0, 84, 68
1, 273459, Note_on_c, 0, 63, 84
1, 273460, Note_off_c, 0, 56, 59
1, 273470, Note_on_c, 0, 82, 90
1, 273487, Note_on_c, 0, 70, 84
1, 273506, Note_off_c, 0, 70, 72
1, 273520, Note_off_c, 0, 82, 67
1, 273546, Note_on_c, 0, 60, 80
1, 273645, Note_on_c, 0, 56, 76
1, 273649, Note_on_c, 0, 80, 99
1, 273654, Note_off_c, 0, 60, 62
1, 273655, Note_on_c, 0, 68, 85
1, 273674, Note_off_c, 0, 68, 71
1, 273701, Note_off_c, 0, 80, 62
1, 273706, Note_off_c, 0, 56, 65
1, 273707, Note_on_c, 0, 51, 64
1, 273723, Note_off_c, 0, 63, 59
1, 273731, Note_off_c, 0, 51, 67
1, 273893, Note_on_c, 0, 85, 99
1, 273898, Note_on_c, 0, 75, 91
1, 273901, Control_c, 0, 64, 78
1, 273903, Note_on_c, 0, 73, 85
1, 273916, Control_c, 0, 64, 63
1, 273931, Control_c, 0, 64, 68
1, 273931, Note_on_c, 0, 80, 42
1, 273946, Control_c, 0, 64, 83
1, 273958, Note_off_c, 0, 80, 54
1, 273960, Control_c, 0, 64, 127
1, 274003, Note_off_c, 0, 73, 62
1, 274006, Note_on_c, 0, 63, 76
1, 274008, Note_on_c, 0, 56, 64
1, 274032, Note_off_c, 0, 85, 62
1, 274077, Note_off_c, 0, 56, 62
1, 274103, Note_off_c, 0, 63, 60
1, 274111, Note_on_c, 0, 84, 92
1, 274112, Note_on_c, 0, 72, 93
1, 274114, Note_on_c, 0, 68, 72
1, 274141, Note_off_c, 0, 75, 63
1, 274170, Note_off_c, 0, 84, 60
1, 274172, Note_off_c, 0, 72, 59
1, 274188, Note_on_c, 0, 56, 67
1, 274189, Note_off_c, 0, 68, 61
1, 274213, Note_on_c, 0, 63, 58
1, 274241, Note_off_c, 0, 56, 64
1, 274242, Note_off_c, 0, 63, 65
1, 274286, Note_on_c, 0, 82, 92
1, 274292, Note_on_c, 0, 70, 86
1, 274295, Note_on_c, 0, 75, 86
1, 274328, Note_on_c, 0, 60, 78
1, 274353, Note_on_c, 0, 51, 68
1, 274367, Note_off_c, 0, 70, 62
1, 274370, Note_off_c, 0, 82, 65
1, 274399, Note_off_c, 0, 51, 63
1, 274425, Note_off_c, 0, 60, 59
1, 274432, Note_on_c, 0, 63, 76
1, 274454, Note_on_c, 0, 80, 91
1, 274456, Note_on_c, 0, 68, 86
1, 274469, Note_off_c, 0, 75, 64
1, 274491, Note_off_c, 0, 63, 63
1, 274494, Note_off_c, 0, 80, 65
1, 274500, Note_on_c, 0, 60, 68
1, 274500, Note_off_c, 0, 68, 63
1, 274513, Note_on_c, 0, 51, 70
1, 274525, Note_off_c, 0, 60, 70
1, 274539, Note_off_c, 0, 51, 66
1, 274603, Note_on_c, 0, 77, 92
1, 274608, Note_on_c, 0, 65, 83
1, 274612, Note_on_c, 0, 68, 85
1, 274635, Note_off_c, 0, 65, 66
1, 274649, Note_off_c, 0, 77, 63
1, 274651, Note_on_c, 0, 48, 73
1, 274651, Note_on_c, 0, 56, 88
1, 274680, Note_off_c, 0, 68, 62
1, 274697, Note_off_c, 0, 48, 59
1, 274709, Note_off_c, 0, 56, 63
1, 274733, Note_on_c, 0, 60, 76
1, 274739, Note_on_c, 0, 75, 91
1, 274745, Note_on_c, 0, 63, 85
1, 274779, Note_on_c, 0, 48, 63
1, 274787, Note_off_c, 0, 60, 66
1, 274787, Note_off_c, 0, 63, 60
1, 274789, Note_off_c, 0, 75, 65
1, 274792, Note_on_c, 0, 56, 83
1, 274815, Note_off_c, 0, 56, 70
1, 274829, Note_off_c, 0, 48, 62
1, 274843, Control_c, 0, 64, 85
1, 274857, Control_c, 0, 64, 70
1, 274872, Control_c, 0, 64, 77
1, 274880, Note_on_c, 0, 73, 94
1, 274884, Note_on_c, 0, 61, 90
1, 274887, Control_c, 0, 64, 109
1, 274894, Note_on_c, 0, 68, 75
1, 274901, Control_c, 0, 64, 127
1, 274909, Note_off_c, 0, 61, 65
1, 274933, Note_on_c, 0, 44, 75
1, 274942, Note_off_c, 0, 68, 41
1, 274942, Note_on_c, 0, 51, 76
1, 274942, Note_off_c, 0, 73, 62
1, 274989, Note_off_c, 0, 51, 63
1, 274992, Note_off_c, 0, 44, 57
1, 274994, Note_on_c, 0, 60, 90
1, 274996, Note_on_c, 0, 72, 87
1, 275006, Note_on_c, 0, 56, 83
1, 275034, Note_off_c, 0, 60, 67
1, 275040, Note_off_c, 0, 72, 66
1, 275050, Note_off_c, 0, 56, 64
1, 275058, Note_on_c, 0, 51, 72
1, 275066, Note_on_c, 0, 44, 56
1, 275106, Note_off_c, 0, 51, 64
1, 275109, Note_off_c, 0, 44, 66
1, 275147, Note_on_c, 0, 70, 93
1, 275150, Note_on_c, 0, 58, 96
1, 275162, Note_on_c, 0, 63, 74
1, 275187, Note_off_c, 0, 63, 63
1, 275196, Note_off_c, 0, 58, 63
1, 275197, Note_on_c, 0, 48, 83
1, 275205, Note_off_c, 0, 70, 61
1, 275213, Note_on_c, 0, 39, 62
1, 275246, Note_off_c, 0, 39, 62
1, 275274, Note_off_c, 0, 48, 61
1, 275275, Note_on_c, 0, 51, 81
1, 275282, Note_on_c, 0, 68, 90
1, 275284, Note_on_c, 0, 56, 92
1, 275320, Note_off_c, 0, 68, 66
1, 275321, Note_off_c, 0, 56, 64
1, 275326, Note_on_c, 0, 39, 63
1, 275326, Note_on_c, 0, 48, 72
1, 275332, Note_off_c, 0, 51, 65
1, 275358, Note_off_c, 0, 48, 63
1, 275370, Note_off_c, 0, 39, 60
1, 275410, Note_on_c, 0, 65, 95
1, 275413, Note_on_c, 0, 53, 91
1, 275413, Control_c, 0, 64, 107
1, 275428, Control_c, 0, 64, 99
1, 275433, Note_on_c, 0, 57, 63
1, 275438, Note_off_c, 0, 53, 68
1, 275443, Control_c, 0, 64, 117
1, 275453, Note_off_c, 0, 65, 60
1, 275458, Control_c, 0, 64, 127
1, 275458, Note_off_c, 0, 57, 54
1, 275471, Note_on_c, 0, 44, 87
1, 275478, Note_on_c, 0, 36, 66
1, 275546, Note_on_c, 0, 48, 81
1, 275546, Note_off_c, 0, 44, 62
1, 275553, Note_on_c, 0, 63, 94
1, 275557, Note_on_c, 0, 51, 88
1, 275557, Note_off_c, 0, 36, 0
1, 275590, Note_off_c, 0, 51, 62
1, 275590, Note_off_c, 0, 63, 67
1, 275594, Poly_aftertouch_c, 0, 36, 127
1, 275612, Note_off_c, 0, 48, 57
1, 275614, Note_on_c, 0, 44, 83
1, 275627, Poly_aftertouch_c, 0, 56, 127
1, 275642, Note_off_c, 0, 44, 68
1, 275642, Poly_aftertouch_c, 0, 56, 0
1, 275650, Poly_aftertouch_c, 0, 36, 0
1, 275661, Poly_aftertouch_c, 0, 56, 0
1, 275695, Note_on_c, 0, 49, 99
1, 275696, Note_on_c, 0, 61, 98
1, 275748, Note_off_c, 0, 49, 65
1, 275750, Note_off_c, 0, 61, 67
1, 275762, Note_on_c, 0, 39, 93
1, 275780, Note_on_c, 0, 32, 64
1, 275818, Note_off_c, 0, 32, 63
1, 275832, Note_off_c, 0, 39, 61
1, 275847, Note_on_c, 0, 44, 77
1, 275859, Note_on_c, 0, 48, 95
1, 275859, Note_on_c, 0, 60, 105
1, 275884, Note_off_c, 0, 48, 66
1, 275890, Note_on_c, 0, 58, 48
1, 275903, Note_off_c, 0, 60, 66
1, 275913, Note_on_c, 0, 32, 85
1, 275913, Note_off_c, 0, 58, 62
1, 275918, Note_on_c, 0, 39, 95
1, 275926, Note_off_c, 0, 44, 64
1, 275953, Note_off_c, 0, 32, 66
1, 275959, Note_off_c, 0, 39, 64
1, 276223, Note_on_c, 0, 59, 100
1, 276224, Note_on_c, 0, 52, 100
1, 276224, Note_on_c, 0, 44, 96
1, 276224, Note_on_c, 0, 64, 95
1, 276224, Note_on_c, 0, 71, 105
1, 276227, Note_on_c, 0, 56, 96
1, 276279, Note_on_c, 0, 68, 31
1, 276280, Control_c, 0, 64, 104
1, 276295, Control_c, 0, 64, 66
1, 276310, Control_c, 0, 64, 0
1, 276310, Note_off_c, 0, 68, 49
1, 276473, Control_c, 0, 64, 87
1, 276488, Control_c, 0, 64, 127
1, 276530, Note_off_c, 0, 56, 67
1, 276534, Note_off_c, 0, 71, 61
1, 276554, Note_off_c, 0, 64, 64
1, 276566, Note_off_c, 0, 52, 61
1, 276579, Note_off_c, 0, 59, 62
1, 276602, Note_off_c, 0, 44, 66
1, 276837, Note_on_c, 0, 32, 88
1, 276841, Note_on_c, 0, 40, 92
1, 276841, Note_on_c, 0, 44, 89
1, 276841, Note_on_c, 0, 59, 88
1, 276844, Note_on_c, 0, 47, 78
1, 276864, Note_on_c, 0, 52, 58
1, 276874, Note_off_c, 0, 47, 67
1, 276877, Note_off_c, 0, 44, 64
1, 276878, Note_off_c, 0, 32, 63
1, 276882, Note_off_c, 0, 52, 67
1, 276885, Poly_aftertouch_c, 0, 51, 127
1, 276886, Note_off_c, 0, 40, 65
1, 276888, Note_off_c, 0, 59, 63
1, 276913, Poly_aftertouch_c, 0, 51, 0
1, 277124, Note_on_c, 0, 52, 99
1, 277126, Note_on_c, 0, 44, 92
1, 277126, Note_on_c, 0, 56, 96
1, 277130, Note_on_c, 0, 59, 94
1, 277132, Note_on_c, 0, 71, 93
1, 277138, Note_on_c, 0, 64, 84
1, 277160, Note_off_c, 0, 59, 67
1, 277165, Note_off_c, 0, 64, 67
1, 277166, Note_off_c, 0, 44, 65
1, 277166, Note_off_c, 0, 56, 64
1, 277173, Note_off_c, 0, 52, 64
1, 277183, Note_on_c, 0, 68, 21
1, 277183, Note_off_c, 0, 71, 68
1, 277222, Note_off_c, 0, 68, 51
1, 277240, Poly_aftertouch_c, 0, 63, 0
1, 277422, Note_on_c, 0, 64, 91
1, 277422, Note_on_c, 0, 71, 96
1, 277422, Note_on_c, 0, 83, 97
1, 277423, Note_on_c, 0, 68, 95
1, 277424, Note_on_c, 0, 56, 92
1, 277427, Note_on_c, 0, 76, 86
1, 277451, Note_off_c, 0, 56, 67
1, 277453, Note_off_c, 0, 71, 69
1, 277459, Note_off_c, 0, 68, 61
1, 277463, Note_off_c, 0, 76, 63
1, 277464, Note_off_c, 0, 64, 69
1, 277477, Note_off_c, 0, 83, 67
1, 277523, Poly_aftertouch_c, 0, 80, 127
1, 277544, Poly_aftertouch_c, 0, 80, 0
1, 277711, Note_on_c, 0, 76, 101
1, 277712, Note_on_c, 0, 80, 98
1, 277712, Note_on_c, 0, 88, 93
1, 277712, Note_on_c, 0, 95, 103
1, 277714, Note_on_c, 0, 83, 101
1, 277715, Note_on_c, 0, 68, 84
1, 277735, Note_off_c, 0, 80, 63
1, 277745, Note_off_c, 0, 83, 68
1, 277748, Note_off_c, 0, 76, 67
1, 277751, Note_off_c, 0, 88, 68
1, 277751, Note_off_c, 0, 95, 69
1, 277754, Note_off_c, 0, 68, 66
1, 277759, Note_on_c, 0, 92, 26
1, 277760, Note_off_c, 0, 92, 127
1, 277996, Note_on_c, 0, 83, 96
1, 277997, Note_on_c, 0, 56, 88
1, 277998, Note_on_c, 0, 64, 96
1, 277998, Note_on_c, 0, 68, 91
1, 277998, Note_on_c, 0, 71, 95
1, 277999, Note_on_c, 0, 76, 86
1, 278018, Note_off_c, 0, 68, 71
1, 278022, Note_on_c, 0, 80, 63
1, 278030, Note_off_c, 0, 71, 67
1, 278033, Note_off_c, 0, 64, 70
1, 278035, Note_off_c, 0, 83, 68
1, 278036, Note_off_c, 0, 76, 67
1, 278041, Note_off_c, 0, 80, 63
1, 278042, Note_off_c, 0, 56, 65
1, 278313, Note_on_c, 0, 44, 90
1, 278315, Note_on_c, 0, 52, 91
1, 278316, Note_on_c, 0, 56, 90
1, 278324, Note_on_c, 0, 71, 92
1, 278326, Note_on_c, 0, 59, 91
1, 278330, Note_on_c, 0, 64, 85
1, 278340, Note_off_c, 0, 56, 67
1, 278354, Note_off_c, 0, 44, 66
1, 278358, Note_off_c, 0, 52, 64
1, 278396, Note_off_c, 0, 59, 54
1, 278415, Note_off_c, 0, 71, 58
1, 278578, Note_on_c, 0, 68, 92
1, 278585, Note_on_c, 0, 56, 87
1, 278622, Note_off_c, 0, 56, 63
1, 278622, Note_off_c, 0, 64, 60
1, 278629, Note_on_c, 0, 66, 24
1, 278668, Note_off_c, 0, 66, 52
1, 278690, Note_off_c, 0, 68, 52
1, 278692, Note_on_c, 0, 59, 90
1, 278695, Note_on_c, 0, 71, 93
1, 278717, Note_on_c, 0, 69, 45
1, 278732, Note_off_c, 0, 59, 60
1, 278740, Note_off_c, 0, 71, 67
1, 278744, Note_off_c, 0, 69, 57
1, 278831, Note_on_c, 0, 45, 86
1, 278832, Note_on_c, 0, 54, 97
1, 278834, Note_on_c, 0, 57, 90
1, 278835, Note_on_c, 0, 73, 99
1, 278847, Note_on_c, 0, 61, 94
1, 278848, Note_on_c, 0, 63, 90
1, 278869, Note_off_c, 0, 61, 66
1, 278870, Note_off_c, 0, 57, 65
1, 278881, Note_off_c, 0, 45, 66
1, 278883, Note_off_c, 0, 54, 66
1, 278890, Note_off_c, 0, 63, 57
1, 278896, Note_off_c, 0, 73, 65
1, 278905, Control_c, 0, 64, 107
1, 278920, Control_c, 0, 64, 61
1, 278935, Control_c, 0, 64, 0
1, 279113, Control_c, 0, 64, 81
1, 279121, Note_on_c, 0, 57, 90
1, 279123, Note_on_c, 0, 45, 88
1, 279123, Note_on_c, 0, 52, 93
1, 279124, Note_on_c, 0, 73, 99
1, 279125, Note_on_c, 0, 61, 92
1, 279126, Note_on_c, 0, 64, 87
1, 279128, Control_c, 0, 64, 127
1, 279152, Note_off_c, 0, 45, 69
1, 279152, Note_off_c, 0, 57, 62
1, 279160, Note_off_c, 0, 61, 62
1, 279163, Note_off_c, 0, 52, 66
1, 279169, Note_off_c, 0, 64, 66
1, 279171, Note_off_c, 0, 73, 66
1, 279232, Control_c, 0, 64, 99
1, 279246, Control_c, 0, 64, 71
1, 279261, Control_c, 0, 64, 0
1, 279410, Control_c, 0, 64, 49
1, 279425, Control_c, 0, 64, 70
1, 279434, Note_on_c, 0, 51, 89
1, 279434, Note_on_c, 0, 45, 81
1, 279437, Note_on_c, 0, 57, 83
1, 279439, Note_on_c, 0, 73, 89
1, 279439, Control_c, 0, 64, 91
1, 279442, Note_on_c, 0, 61, 85
1, 279442, Note_on_c, 0, 66, 84
1, 279454, Control_c, 0, 64, 127
1, 279456, Note_off_c, 0, 51, 73
1, 279458, Note_off_c, 0, 57, 69
1, 279460, Note_off_c, 0, 45, 67
1, 279471, Note_off_c, 0, 61, 63
1, 279485, Note_off_c, 0, 73, 64
1, 279496, Note_off_c, 0, 66, 60
1, 279741, Note_on_c, 0, 66, 88
1, 279749, Note_on_c, 0, 54, 76
1, 279777, Note_off_c, 0, 54, 68
1, 279797, Note_off_c, 0, 66, 62
1, 279845, Note_on_c, 0, 57, 81
1, 279848, Note_on_c, 0, 69, 82
1, 279871, Note_off_c, 0, 57, 65
1, 279890, Note_off_c, 0, 69, 62
1, 279928, Poly_aftertouch_c, 0, 66, 0
1, 279973, Note_on_c, 0, 56, 94
1, 279974, Note_on_c, 0, 52, 91
1, 279974, Note_on_c, 0, 71, 98
1, 279975, Note_on_c, 0, 59, 88
1, 279977, Note_on_c, 0, 61, 90
1, 279980, Note_on_c, 0, 44, 82
1, 279993, Note_off_c, 0, 59, 71
1, 279994, Note_off_c, 0, 56, 70
1, 279996, Note_off_c, 0, 61, 71
1, 280006, Note_off_c, 0, 44, 66
1, 280007, Note_off_c, 0, 71, 65
1, 280009, Note_off_c, 0, 52, 62
1, 280025, Control_c, 0, 64, 93
1, 280040, Control_c, 0, 64, 60
1, 280055, Control_c, 0, 64, 0
1, 280227, Note_on_c, 0, 51, 91
1, 280229, Note_on_c, 0, 56, 90
1, 280233, Control_c, 0, 64, 65
1, 280236, Note_on_c, 0, 44, 77
1, 280236, Note_on_c, 0, 63, 98
1, 280239, Note_on_c, 0, 71, 96
1, 280240, Note_on_c, 0, 59, 88
1, 280248, Control_c, 0, 64, 79
1, 280250, Note_off_c, 0, 56, 71
1, 280260, Note_off_c, 0, 59, 68
1, 280262, Control_c, 0, 64, 103
1, 280269, Note_off_c, 0, 44, 66
1, 280270, Note_off_c, 0, 51, 65
1, 280276, Note_off_c, 0, 63, 65
1, 280277, Control_c, 0, 64, 127
1, 280284, Note_off_c, 0, 71, 63
1, 280321, Control_c, 0, 64, 94
1, 280343, Control_c, 0, 64, 62
1, 280348, Poly_aftertouch_c, 0, 60, 0
1, 280358, Control_c, 0, 64, 0
1, 280492, Control_c, 0, 64, 54
1, 280494, Note_on_c, 0, 64, 88
1, 280497, Note_on_c, 0, 44, 72
1, 280498, Note_on_c, 0, 49, 79
1, 280499, Note_on_c, 0, 56, 72
1, 280499, Note_on_c, 0, 71, 83
1, 280504, Note_on_c, 0, 59, 74
1, 280507, Control_c, 0, 64, 81
1, 280521, Control_c, 0, 64, 127
1, 280528, Note_off_c, 0, 56, 65
1, 280545, Note_off_c, 0, 59, 56
1, 280560, Note_off_c, 0, 71, 62
1, 280638, Note_off_c, 0, 64, 59
1, 280663, Note_on_c, 0, 51, 74
1, 280663, Note_on_c, 0, 66, 75
1, 280683, Note_off_c, 0, 49, 60
1, 280694, Note_off_c, 0, 44, 62
1, 280701, Note_on_c, 0, 68, 93
1, 280702, Note_on_c, 0, 56, 84
1, 280712, Note_on_c, 0, 52, 86
1, 280728, Note_off_c, 0, 51, 65
1, 280731, Note_off_c, 0, 56, 67
1, 280740, Note_off_c, 0, 66, 63
1, 280746, Note_off_c, 0, 52, 64
1, 280778, Note_off_c, 0, 68, 60
1, 280838, Note_on_c, 0, 59, 92
1, 280838, Note_on_c, 0, 71, 91
1, 280870, Note_off_c, 0, 59, 61
1, 280870, Note_off_c, 0, 71, 61
1, 280935, Poly_aftertouch_c, 0, 70, 0
1, 280972, Note_on_c, 0, 57, 94
1, 280974, Note_on_c, 0, 54, 97
1, 280975, Note_on_c, 0, 45, 87
1, 280975, Note_on_c, 0, 73, 105
1, 280978, Note_on_c, 0, 61, 94
1, 280978, Note_on_c, 0, 63, 94
1, 280995, Note_off_c, 0, 61, 73
1, 280996, Note_off_c, 0, 57, 68
1, 280996, Note_off_c, 0, 63, 72
1, 280998, Note_off_c, 0, 54, 70
1, 281004, Note_off_c, 0, 45, 70
1, 281009, Note_off_c, 0, 73, 66
1, 281011, Control_c, 0, 64, 105
1, 281026, Control_c, 0, 64, 67
1, 281041, Control_c, 0, 64, 0
1, 281241, Control_c, 0, 64, 33
1, 281252, Note_on_c, 0, 52, 95
1, 281253, Note_on_c, 0, 57, 91
1, 281255, Note_on_c, 0, 45, 87
1, 281255, Control_c, 0, 64, 82
1, 281256, Note_on_c, 0, 61, 95
1, 281256, Note_on_c, 0, 64, 91
1, 281258, Note_on_c, 0, 73, 97
1, 281270, Control_c, 0, 64, 127
1, 281279, Note_off_c, 0, 57, 64
1, 281282, Note_off_c, 0, 45, 70
1, 281288, Note_off_c, 0, 61, 62
1, 281291, Note_off_c, 0, 52, 66
1, 281291, Note_off_c, 0, 64, 68
1, 281297, Note_off_c, 0, 73, 66
1, 281330, Control_c, 0, 64, 84
1, 281344, Control_c, 0, 64, 62
1, 281359, Control_c, 0, 64, 0
1, 281538, Control_c, 0, 64, 66
1, 281545, Note_on_c, 0, 51, 89
1, 281548, Note_on_c, 0, 45, 72
1, 281550, Note_on_c, 0, 57, 80
1, 281551, Note_on_c, 0, 66, 92
1, 281551, Note_on_c, 0, 73, 90
1, 281553, Note_on_c, 0, 61, 89
1, 281553, Control_c, 0, 64, 88
1, 281567, Note_off_c, 0, 51, 71
1, 281567, Control_c, 0, 64, 127
1, 281570, Note_off_c, 0, 45, 65
1, 281571, Note_off_c, 0, 57, 68
1, 281574, Note_off_c, 0, 61, 68
1, 281590, Note_off_c, 0, 73, 60
1, 281593, Note_off_c, 0, 66, 65
1, 281811, Note_on_c, 0, 66, 88
1, 281814, Note_on_c, 0, 54, 78
1, 281853, Note_off_c, 0, 54, 66
1, 281876, Note_off_c, 0, 66, 63
1, 281932, Note_on_c, 0, 57, 79
1, 281935, Note_on_c, 0, 69, 82
1, 281953, Note_off_c, 0, 57, 70
1, 281975, Note_off_c, 0, 69, 61
1, 282069, Note_on_c, 0, 56, 91
1, 282071, Note_on_c, 0, 52, 81
1, 282074, Note_on_c, 0, 44, 84
1, 282076, Note_on_c, 0, 71, 95
1, 282077, Note_on_c, 0, 61, 96
1, 282079, Note_on_c, 0, 59, 81
1, 282092, Note_off_c, 0, 56, 69
1, 282096, Note_off_c, 0, 61, 69
1, 282098, Note_off_c, 0, 59, 71
1, 282104, Note_off_c, 0, 44, 67
1, 282105, Note_off_c, 0, 52, 63
1, 282111, Note_off_c, 0, 71, 60
1, 282138, Control_c, 0, 64, 74
1, 282153, Control_c, 0, 64, 0
1, 282356, Note_on_c, 0, 51, 91
1, 282356, Note_on_c, 0, 56, 91
1, 282361, Note_on_c, 0, 63, 96
1, 282361, Control_c, 0, 64, 66
1, 282361, Note_on_c, 0, 44, 76
1, 282364, Note_on_c, 0, 71, 90
1, 282367, Note_on_c, 0, 59, 81
1, 282376, Control_c, 0, 64, 87
1, 282376, Note_off_c, 0, 56, 73
1, 282385, Note_off_c, 0, 51, 68
1, 282386, Note_off_c, 0, 44, 66
1, 282388, Note_off_c, 0, 59, 69
1, 282390, Note_off_c, 0, 71, 62
1, 282390, Control_c, 0, 64, 91
1, 282396, Note_off_c, 0, 63, 60
1, 282405, Control_c, 0, 64, 75
1, 282420, Control_c, 0, 64, 0
1, 282633, Note_on_c, 0, 49, 90
1, 282633, Note_on_c, 0, 56, 89
1, 282635, Control_c, 0, 64, 52
1, 282636, Note_on_c, 0, 44, 84
1, 282645, Note_on_c, 0, 71, 88
1, 282646, Note_on_c, 0, 64, 87
1, 282647, Note_on_c, 0, 59, 88
1, 282650, Control_c, 0, 64, 98
1, 282653, Note_off_c, 0, 56, 72
1, 282655, Note_off_c, 0, 49, 72
1, 282662, Note_off_c, 0, 44, 67
1, 282664, Control_c, 0, 64, 127
1, 282668, Note_off_c, 0, 59, 64
1, 282680, Note_off_c, 0, 64, 62
1, 282686, Note_off_c, 0, 71, 62
1, 282925, Note_on_c, 0, 64, 88
1, 282927, Note_on_c, 0, 52, 87
1, 282956, Note_off_c, 0, 52, 65
1, 282962, Note_off_c, 0, 64, 67
1, 283058, Note_on_c, 0, 68, 86
1, 283059, Note_on_c, 0, 56, 82
1, 283089, Note_off_c, 0, 56, 65
1, 283110, Note_off_c, 0, 68, 55
1, 283207, Note_on_c, 0, 51, 92
1, 283207, Note_on_c, 0, 54, 90
1, 283208, Note_on_c, 0, 42, 83
1, 283212, Note_on_c, 0, 60, 89
1, 283214, Note_on_c, 0, 57, 89
1, 283214, Note_on_c, 0, 69, 90
1, 283243, Note_off_c, 0, 57, 64
1, 283247, Note_off_c, 0, 54, 67
1, 283251, Note_off_c, 0, 60, 68
1, 283252, Note_off_c, 0, 69, 67
1, 283253, Note_off_c, 0, 51, 67
1, 283256, Note_off_c, 0, 42, 63
1, 283258, Control_c, 0, 64, 98
1, 283273, Control_c, 0, 64, 65
1, 283287, Control_c, 0, 64, 0
1, 283501, Control_c, 0, 64, 45
1, 283505, Note_on_c, 0, 54, 85
1, 283507, Note_on_c, 0, 49, 88
1, 283509, Note_on_c, 0, 42, 78
1, 283510, Note_on_c, 0, 61, 95
1, 283513, Note_on_c, 0, 69, 89
1, 283515, Note_on_c, 0, 57, 81
1, 283516, Control_c, 0, 64, 76
1, 283531, Control_c, 0, 64, 111
1, 283536, Note_off_c, 0, 57, 69
1, 283543, Note_off_c, 0, 54, 63
1, 283545, Note_off_c, 0, 42, 66
1, 283545, Control_c, 0, 64, 127
1, 283552, Note_off_c, 0, 61, 65
1, 283554, Note_off_c, 0, 69, 62
1, 283554, Note_off_c, 0, 49, 65
1, 283593, Poly_aftertouch_c, 0, 63, 127
1, 283605, Control_c, 0, 64, 87
1, 283619, Control_c, 0, 64, 67
1, 283622, Poly_aftertouch_c, 0, 63, 0
1, 283634, Control_c, 0, 64, 0
1, 283798, Control_c, 0, 64, 63
1, 283807, Note_on_c, 0, 48, 87
1, 283808, Note_on_c, 0, 54, 89
1, 283810, Note_on_c, 0, 63, 84
1, 283810, Note_on_c, 0, 42, 81
1, 283812, Control_c, 0, 64, 74
1, 283813, Note_on_c, 0, 57, 88
1, 283816, Note_on_c, 0, 69, 80
1, 283827, Control_c, 0, 64, 91
1, 283830, Note_off_c, 0, 54, 73
1, 283837, Note_off_c, 0, 69, 70
1, 283837, Note_off_c, 0, 57, 67
1, 283840, Note_off_c, 0, 42, 65
1, 283842, Control_c, 0, 64, 127
1, 283845, Note_off_c, 0, 48, 63
1, 283857, Note_off_c, 0, 63, 65
1, 284142, Note_on_c, 0, 63, 94
1, 284144, Note_on_c, 0, 51, 85
1, 284169, Note_off_c, 0, 51, 70
1, 284194, Note_off_c, 0, 63, 60
1, 284269, Note_on_c, 0, 66, 99
1, 284274, Note_on_c, 0, 54, 86
1, 284318, Note_off_c, 0, 54, 58
1, 284354, Note_off_c, 0, 66, 59
1, 284386, Poly_aftertouch_c, 0, 56, 0
1, 284413, Control_c, 0, 64, 100
1, 284428, Control_c, 0, 64, 67
1, 284433, Note_on_c, 0, 49, 91
1, 284436, Note_on_c, 0, 40, 79
1, 284436, Note_on_c, 0, 58, 92
1, 284437, Note_on_c, 0, 52, 85
1, 284437, Note_on_c, 0, 68, 94
1, 284442, Note_on_c, 0, 56, 88
1, 284442, Control_c, 0, 64, 0
1, 284466, Note_off_c, 0, 52, 65
1, 284472, Note_on_c, 0, 66, 42
1, 284472, Note_off_c, 0, 56, 65
1, 284472, Control_c, 0, 64, 63
1, 284481, Note_off_c, 0, 40, 63
1, 284481, Note_off_c, 0, 49, 64
1, 284484, Note_off_c, 0, 68, 65
1, 284487, Control_c, 0, 64, 79
1, 284493, Note_off_c, 0, 66, 61
1, 284502, Control_c, 0, 64, 127
1, 284509, Note_off_c, 0, 58, 54
1, 284606, Control_c, 0, 64, 102
1, 284621, Control_c, 0, 64, 68
1, 284635, Control_c, 0, 64, 0
1, 284759, Note_on_c, 0, 40, 82
1, 284759, Note_on_c, 0, 48, 91
1, 284762, Note_on_c, 0, 52, 85
1, 284764, Note_on_c, 0, 56, 90
1, 284765, Note_on_c, 0, 60, 85
1, 284766, Note_on_c, 0, 68, 90
1, 284770, Control_c, 0, 64, 62
1, 284784, Control_c, 0, 64, 78
1, 284798, Note_off_c, 0, 52, 62
1, 284799, Control_c, 0, 64, 127
1, 284806, Note_off_c, 0, 56, 66
1, 284807, Note_off_c, 0, 40, 62
1, 284809, Note_off_c, 0, 48, 65
1, 284818, Note_off_c, 0, 68, 64
1, 284822, Note_off_c, 0, 60, 66
1, 284940, Control_c, 0, 64, 95
1, 284955, Control_c, 0, 64, 71
1, 284970, Control_c, 0, 64, 0
1, 285103, Control_c, 0, 64, 66
1, 285112, Note_on_c, 0, 46, 96
1, 285114, Note_on_c, 0, 52, 85
1, 285117, Control_c, 0, 64, 75
1, 285119, Note_on_c, 0, 40, 76
1, 285120, Note_on_c, 0, 61, 88
1, 285122, Note_on_c, 0, 68, 82
1, 285124, Note_on_c, 0, 56, 84
1, 285132, Control_c, 0, 64, 90
1, 285134, Note_off_c, 0, 46, 70
1, 285137, Note_on_c, 0, 49, 47
1, 285137, Note_off_c, 0, 52, 66
1, 285141, Note_off_c, 0, 40, 64
1, 285141, Note_off_c, 0, 68, 71
1, 285146, Note_off_c, 0, 56, 71
1, 285147, Control_c, 0, 64, 127
1, 285166, Note_off_c, 0, 61, 60
1, 285170, Note_off_c, 0, 49, 58
1, 285451, Note_on_c, 0, 61, 89
1, 285456, Note_on_c, 0, 49, 77
1, 285488, Note_off_c, 0, 49, 65
1, 285539, Note_off_c, 0, 61, 60
1, 285597, Note_on_c, 0, 52, 85
1, 285599, Note_on_c, 0, 64, 91
1, 285628, Note_on_c, 0, 61, 22
1, 285631, Note_off_c, 0, 52, 58
1, 285643, Note_off_c, 0, 64, 65
1, 285657, Note_off_c, 0, 61, 59
1, 285806, Control_c, 0, 64, 90
1, 285816, Note_on_c, 0, 51, 76
1, 285818, Note_on_c, 0, 66, 92
1, 285819, Note_on_c, 0, 44, 75
1, 285819, Note_on_c, 0, 56, 82
1, 285821, Control_c, 0, 64, 65
1, 285823, Note_on_c, 0, 39, 62
1, 285825, Note_on_c, 0, 54, 71
1, 285836, Control_c, 0, 64, 0
1, 285910, Control_c, 0, 64, 62
1, 285925, Control_c, 0, 64, 74
1, 285939, Control_c, 0, 64, 92
1, 285954, Control_c, 0, 64, 127
1, 285968, Note_off_c, 0, 66, 65
1, 285974, Note_off_c, 0, 51, 60
1, 286000, Note_off_c, 0, 54, 65
1, 286037, Note_off_c, 0, 56, 61
1, 286197, Note_on_c, 0, 60, 89
1, 286198, Note_on_c, 0, 48, 84
1, 286220, Note_off_c, 0, 48, 66
1, 286235, Note_off_c, 0, 60, 63
1, 286247, Note_off_c, 0, 39, 55
1, 286265, Note_off_c, 0, 44, 59
1, 286384, Note_on_c, 0, 63, 99
1, 286390, Note_on_c, 0, 51, 88
1, 286468, Note_off_c, 0, 51, 55
1, 286603, Note_off_c, 0, 63, 0
1, 286610, Note_on_c, 0, 56, 90
1, 286610, Note_on_c, 0, 64, 93
1, 286611, Note_on_c, 0, 44, 82
1, 286612, Note_on_c, 0, 49, 81
1, 286615, Note_on_c, 0, 37, 77
1, 286615, Control_c, 0, 64, 83
1, 286618, Note_on_c, 0, 52, 87
1, 286630, Control_c, 0, 64, 59
1, 286645, Control_c, 0, 64, 0
1, 286669, Poly_aftertouch_c, 0, 63, 0
1, 286704, Control_c, 0, 64, 57
1, 286719, Control_c, 0, 64, 70
1, 286734, Control_c, 0, 64, 82
1, 286749, Control_c, 0, 64, 104
1, 286754, Note_off_c, 0, 49, 59
1, 286763, Control_c, 0, 64, 127
1, 286784, Note_off_c, 0, 64, 59
1, 286818, Note_off_c, 0, 52, 62
1, 286878, Note_off_c, 0, 56, 66
1, 286959, Note_off_c, 0, 44, 49
1, 287059, Note_on_c, 0, 58, 88
1, 287065, Note_on_c, 0, 44, 88
1, 287070, Note_on_c, 0, 46, 74
1, 287104, Note_off_c, 0, 44, 65
1, 287113, Note_off_c, 0, 37, 63
1, 287120, Note_off_c, 0, 46, 55
1, 287313, Note_on_c, 0, 61, 95
1, 287326, Note_on_c, 0, 49, 81
1, 287339, Note_off_c, 0, 58, 62
1, 287349, Control_c, 0, 64, 91
1, 287364, Control_c, 0, 64, 68
1, 287378, Control_c, 0, 64, 0
1, 287393, Control_c, 0, 64, 51
1, 287407, Note_on_c, 0, 32, 88
1, 287408, Control_c, 0, 64, 64
1, 287423, Control_c, 0, 64, 70
1, 287438, Control_c, 0, 64, 79
1, 287441, Note_off_c, 0, 49, 55
1, 287451, Note_off_c, 0, 32, 63
1, 287453, Control_c, 0, 64, 90
1, 287468, Control_c, 0, 64, 108
1, 287483, Control_c, 0, 64, 127
1, 287697, Note_on_c, 0, 63, 87
1, 287711, Note_on_c, 0, 56, 80
1, 287714, Note_on_c, 0, 51, 81
1, 287734, Note_on_c, 0, 49, 89
1, 287743, Note_on_c, 0, 44, 76
1, 287764, Control_c, 0, 64, 103
1, 287775, Note_off_c, 0, 61, 54
1, 287778, Control_c, 0, 64, 78
1, 287793, Control_c, 0, 64, 57
1, 287808, Control_c, 0, 64, 0
1, 288125, Note_on_c, 0, 48, 76
1, 288162, Note_off_c, 0, 49, 59
1, 288483, Control_c, 0, 64, 50
1, 288498, Control_c, 0, 64, 64
1, 288513, Control_c, 0, 64, 70
1, 288527, Control_c, 0, 64, 77
1, 288542, Control_c, 0, 64, 86
1, 288557, Control_c, 0, 64, 97
1, 288579, Control_c, 0, 64, 110
1, 288594, Control_c, 0, 64, 127
1, 288660, Note_off_c, 0, 51, 59
1, 288692, Note_off_c, 0, 56, 58
1, 289026, Note_on_c, 0, 66, 81
1, 289032, Note_on_c, 0, 54, 74
1, 289034, Note_on_c, 0, 49, 70
1, 289035, Note_on_c, 0, 57, 67
1, 289039, Note_on_c, 0, 42, 64
1, 289069, Control_c, 0, 64, 115
1, 289083, Note_off_c, 0, 44, 57
1, 289083, Control_c, 0, 64, 79
1, 289092, Note_off_c, 0, 48, 57
1, 289098, Control_c, 0, 64, 59
1, 289107, Note_off_c, 0, 63, 52
1, 289113, Control_c, 0, 64, 0
1, 289134, Poly_aftertouch_c, 0, 61, 0
1, 289173, Control_c, 0, 64, 51
1, 289188, Control_c, 0, 64, 69
1, 289202, Control_c, 0, 64, 83
1, 289217, Control_c, 0, 64, 113
1, 289232, Control_c, 0, 64, 127
1, 289260, Note_off_c, 0, 57, 59
1, 289310, Note_off_c, 0, 54, 62
1, 289548, Note_on_c, 0, 63, 79
1, 289557, Note_on_c, 0, 56, 73
1, 289558, Note_on_c, 0, 51, 72
1, 289570, Note_on_c, 0, 48, 63
1, 289575, Note_on_c, 0, 44, 65
1, 289611, Control_c, 0, 64, 84
1, 289626, Note_off_c, 0, 49, 52
1, 289626, Control_c, 0, 64, 62
1, 289641, Control_c, 0, 64, 0
1, 289649, Note_off_c, 0, 42, 56
1, 289677, Note_off_c, 0, 66, 55
1, 289700, Control_c, 0, 64, 44
1, 289715, Control_c, 0, 64, 68
1, 289730, Control_c, 0, 64, 82
1, 289745, Control_c, 0, 64, 117
1, 289760, Control_c, 0, 64, 127
1, 289814, Note_off_c, 0, 51, 62
1, 289840, Note_off_c, 0, 56, 60
1, 289947, Note_on_c, 0, 66, 85
1, 289950, Note_on_c, 0, 57, 75
1, 289954, Note_on_c, 0, 54, 76
1, 289955, Note_on_c, 0, 49, 65
1, 289958, Note_on_c, 0, 42, 66
1, 289981, Control_c, 0, 64, 99
1, 289996, Control_c, 0, 64, 71
1, 290002, Note_off_c, 0, 44, 59
1, 290007, Note_off_c, 0, 48, 59
1, 290011, Control_c, 0, 64, 0
1, 290031, Note_off_c, 0, 63, 37
1, 290093, Control_c, 0, 64, 55
1, 290107, Control_c, 0, 64, 70
1, 290122, Control_c, 0, 64, 82
1, 290137, Control_c, 0, 64, 98
1, 290152, Control_c, 0, 64, 113
1, 290156, Note_off_c, 0, 57, 60
1, 290167, Control_c, 0, 64, 127
1, 290197, Note_off_c, 0, 54, 63
1, 290334, Note_on_c, 0, 63, 79
1, 290345, Note_on_c, 0, 56, 73
1, 290359, Note_on_c, 0, 48, 56
1, 290362, Note_on_c, 0, 51, 68
1, 290363, Note_on_c, 0, 44, 60
1, 290374, Control_c, 0, 64, 98
1, 290389, Control_c, 0, 64, 74
1, 290389, Control_c, 0, 67, 8
1, 290404, Control_c, 0, 64, 0
1, 290404, Control_c, 0, 67, 8
1, 290406, Note_off_c, 0, 49, 56
1, 290422, Note_off_c, 0, 42, 57
1, 290434, Control_c, 0, 67, 9
1, 290446, Note_off_c, 0, 66, 54
1, 290493, Control_c, 0, 64, 39
1, 290508, Control_c, 0, 64, 66
1, 290522, Control_c, 0, 64, 76
1, 290537, Control_c, 0, 64, 86
1, 290552, Control_c, 0, 64, 103
1, 290567, Control_c, 0, 64, 127
1, 290582, Control_c, 0, 67, 9
1, 290590, Note_off_c, 0, 51, 62
1, 290596, Control_c, 0, 67, 11
1, 290611, Control_c, 0, 67, 13
1, 290616, Note_off_c, 0, 56, 61
1, 290626, Control_c, 0, 67, 17
1, 290641, Control_c, 0, 67, 20
1, 290655, Control_c, 0, 67, 22
1, 290670, Control_c, 0, 67, 25
1, 290685, Control_c, 0, 67, 28
1, 290700, Control_c, 0, 67, 30
1, 290715, Control_c, 0, 67, 31
1, 290729, Control_c, 0, 67, 31
1, 290744, Control_c, 0, 67, 32
1, 290749, Note_off_c, 0, 48, 61
1, 290753, Note_on_c, 0, 49, 64
1, 290753, Note_on_c, 0, 66, 76
1, 290759, Note_on_c, 0, 54, 66
1, 290759, Control_c, 0, 64, 85
1, 290759, Control_c, 0, 67, 33
1, 290760, Note_on_c, 0, 42, 65
1, 290764, Note_on_c, 0, 57, 63
1, 290774, Control_c, 0, 64, 60
1, 290774, Control_c, 0, 67, 36
1, 290786, Note_off_c, 0, 44, 53
1, 290789, Control_c, 0, 64, 0
1, 290789, Control_c, 0, 67, 38
1, 290803, Control_c, 0, 67, 40
1, 290826, Control_c, 0, 67, 42
1, 290839, Note_off_c, 0, 63, 47
1, 290841, Control_c, 0, 67, 44
1, 290855, Control_c, 0, 67, 46
1, 290870, Control_c, 0, 64, 59
1, 290870, Control_c, 0, 67, 49
1, 290878, Note_off_c, 0, 49, 63
1, 290885, Control_c, 0, 64, 72
1, 290885, Control_c, 0, 67, 51
1, 290900, Control_c, 0, 64, 86
1, 290900, Control_c, 0, 67, 53
1, 290902, Note_off_c, 0, 42, 64
1, 290915, Control_c, 0, 64, 103
1, 290915, Control_c, 0, 67, 57
1, 290929, Control_c, 0, 64, 127
1, 290929, Control_c, 0, 67, 61
1, 290944, Control_c, 0, 67, 64
1, 290959, Control_c, 0, 67, 67
1, 290974, Control_c, 0, 67, 69
1, 290989, Control_c, 0, 67, 71
1, 291003, Control_c, 0, 67, 73
1, 291018, Control_c, 0, 67, 74
1, 291023, Note_on_c, 0, 32, 76
1, 291033, Control_c, 0, 67, 76
1, 291048, Control_c, 0, 67, 76
1, 291050, Note_off_c, 0, 32, 64
1, 291063, Control_c, 0, 67, 77
1, 291077, Control_c, 0, 67, 78
1, 291092, Control_c, 0, 67, 81
1, 291095, Note_off_c, 0, 66, 63
1, 291108, Control_c, 0, 67, 82
1, 291123, Control_c, 0, 67, 84
1, 291138, Control_c, 0, 67, 85
1, 291152, Control_c, 0, 67, 86
1, 291167, Control_c, 0, 67, 88
1, 291169, Note_off_c, 0, 57, 58
1, 291182, Control_c, 0, 67, 91
1, 291183, Note_off_c, 0, 54, 62
1, 291197, Control_c, 0, 67, 93
1, 291212, Control_c, 0, 67, 96
1, 291227, Control_c, 0, 67, 97
1, 291241, Control_c, 0, 67, 100
1, 291256, Control_c, 0, 67, 102
1, 291271, Control_c, 0, 67, 105
1, 291286, Control_c, 0, 67, 108
1, 291301, Control_c, 0, 67, 110
1, 291316, Control_c, 0, 67, 114
1, 291331, Control_c, 0, 67, 118
1, 291345, Control_c, 0, 67, 121
1, 291360, Control_c, 0, 67, 124
1, 291375, Control_c, 0, 67, 127
1, 291383, Note_on_c, 0, 63, 76
1, 291390, Control_c, 0, 67, 127
1, 291399, Note_on_c, 0, 49, 72
1, 291401, Note_on_c, 0, 56, 64
1, 291405, Note_on_c, 0, 51, 59
1, 291429, Note_on_c, 0, 44, 52
1, 291552, Control_c, 0, 64, 101
1, 291575, Control_c, 0, 64, 80
1, 291590, Control_c, 0, 64, 68
1, 291605, Control_c, 0, 64, 56
1, 291620, Control_c, 0, 64, 0
1, 291933, Note_on_c, 0, 48, 58
1, 291964, Note_off_c, 0, 49, 57
1, 292368, Control_c, 0, 64, 23
1, 292383, Control_c, 0, 64, 52
1, 292398, Control_c, 0, 64, 61
1, 292413, Control_c, 0, 64, 64
1, 292427, Control_c, 0, 64, 67
1, 292442, Control_c, 0, 64, 69
1, 292458, Control_c, 0, 64, 72
1, 292473, Control_c, 0, 64, 74
1, 292487, Control_c, 0, 64, 77
1, 292502, Control_c, 0, 64, 80
1, 292517, Control_c, 0, 64, 83
1, 292532, Control_c, 0, 64, 86
1, 292547, Control_c, 0, 64, 90
1, 292562, Control_c, 0, 64, 93
1, 292576, Control_c, 0, 64, 97
1, 292591, Control_c, 0, 64, 101
1, 292606, Control_c, 0, 64, 108
1, 292620, Control_c, 0, 64, 116
1, 292635, Control_c, 0, 64, 127
1, 292803, Note_off_c, 0, 51, 49
1, 292884, Note_off_c, 0, 56, 52
1, 293465, Note_on_c, 0, 66, 48
1, 293472, Note_on_c, 0, 54, 36
1, 293474, Note_on_c, 0, 49, 40
1, 293480, Note_on_c, 0, 57, 39
1, 293486, Note_on_c, 0, 42, 34
1, 293548, Control_c, 0, 64, 110
1, 293563, Control_c, 0, 64, 83
1, 293575, Note_off_c, 0, 44, 41
1, 293578, Note_off_c, 0, 63, 45
1, 293578, Control_c, 0, 64, 68
1, 293584, Note_off_c, 0, 48, 48
1, 293593, Control_c, 0, 64, 0
1, 293681, Control_c, 0, 64, 40
1, 293696, Control_c, 0, 64, 64
1, 293711, Control_c, 0, 64, 70
1, 293726, Control_c, 0, 64, 78
1, 293740, Control_c, 0, 64, 90
1, 293755, Control_c, 0, 64, 105
1, 293770, Control_c, 0, 64, 127
1, 293806, Note_off_c, 0, 66, 56
1, 293915, Note_off_c, 0, 57, 35
1, 293954, Note_off_c, 0, 54, 43
1, 294224, Note_on_c, 0, 63, 43
1, 294246, Note_on_c, 0, 56, 39
1, 294256, Note_on_c, 0, 44, 33
1, 294257, Note_on_c, 0, 48, 36
1, 294265, Note_on_c, 0, 51, 38
1, 294280, Control_c, 0, 64, 124
1, 294296, Control_c, 0, 64, 91
1, 294311, Control_c, 0, 64, 74
1, 294326, Control_c, 0, 64, 59
1, 294341, Control_c, 0, 64, 36
1, 294356, Control_c, 0, 64, 44
1, 294370, Control_c, 0, 64, 59
1, 294372, Note_off_c, 0, 49, 42
1, 294380, Note_off_c, 0, 42, 43
1, 294385, Control_c, 0, 64, 64
1, 294400, Control_c, 0, 64, 68
1, 294415, Control_c, 0, 64, 73
1, 294430, Control_c, 0, 64, 79
1, 294444, Control_c, 0, 64, 87
1, 294459, Control_c, 0, 64, 95
1, 294474, Control_c, 0, 64, 106
1, 294488, Control_c, 0, 64, 127
1, 294497, Note_off_c, 0, 56, 58
1, 294513, Note_off_c, 0, 51, 44
1, 294729, Note_off_c, 0, 63, 54
1, 294741, Note_on_c, 0, 66, 49
1, 294747, Note_on_c, 0, 49, 42
1, 294753, Note_on_c, 0, 42, 37
1, 294753, Note_on_c, 0, 57, 36
1, 294763, Control_c, 0, 64, 98
1, 294768, Note_on_c, 0, 54, 37
1, 294774, Note_off_c, 0, 44, 39
1, 294777, Control_c, 0, 64, 77
1, 294792, Control_c, 0, 64, 56
1, 294805, Note_off_c, 0, 48, 42
1, 294807, Control_c, 0, 64, 0
1, 294851, Control_c, 0, 64, 40
1, 294866, Control_c, 0, 64, 61
1, 294881, Control_c, 0, 64, 67
1, 294896, Control_c, 0, 64, 77
1, 294911, Control_c, 0, 64, 88
1, 294926, Control_c, 0, 64, 104
1, 294941, Control_c, 0, 64, 127
1, 294968, Note_off_c, 0, 57, 56
1, 295032, Note_off_c, 0, 54, 50
1, 295229, Note_on_c, 0, 63, 54
1, 295245, Note_on_c, 0, 56, 45
1, 295248, Note_on_c, 0, 44, 40
1, 295258, Note_on_c, 0, 48, 40
1, 295273, Note_on_c, 0, 51, 43
1, 295282, Control_c, 0, 64, 110
1, 295297, Control_c, 0, 64, 87
1, 295319, Control_c, 0, 64, 72
1, 295331, Note_off_c, 0, 49, 44
1, 295334, Control_c, 0, 64, 60
1, 295335, Note_off_c, 0, 42, 42
1, 295349, Control_c, 0, 64, 27
1, 295364, Control_c, 0, 64, 0
1, 295408, Control_c, 0, 64, 31
1, 295423, Control_c, 0, 64, 59
1, 295438, Control_c, 0, 64, 67
1, 295452, Control_c, 0, 64, 75
1, 295453, Note_off_c, 0, 66, 37
1, 295467, Control_c, 0, 64, 85
1, 295482, Control_c, 0, 64, 96
1, 295497, Control_c, 0, 64, 107
1, 295512, Control_c, 0, 64, 127
1, 295556, Note_off_c, 0, 51, 52
1, 295611, Note_off_c, 0, 56, 37
1, 295861, Note_on_c, 0, 66, 49
1, 295868, Note_on_c, 0, 49, 40
1, 295877, Note_on_c, 0, 54, 33
1, 295880, Note_on_c, 0, 57, 36
1, 295882, Note_on_c, 0, 42, 35
1, 295898, Control_c, 0, 64, 109
1, 295909, Note_off_c, 0, 48, 42
1, 295913, Control_c, 0, 64, 84
1, 295925, Note_off_c, 0, 44, 42
1, 295927, Control_c, 0, 64, 64
1, 295942, Control_c, 0, 64, 0
1, 295963, Note_off_c, 0, 63, 38
1, 296031, Control_c, 0, 64, 34
1, 296046, Control_c, 0, 64, 65
1, 296068, Control_c, 0, 64, 74
1, 296082, Control_c, 0, 64, 85
1, 296097, Control_c, 0, 64, 101
1, 296103, Note_off_c, 0, 49, 58
1, 296112, Control_c, 0, 64, 127
1, 296166, Note_off_c, 0, 42, 41
1, 296358, Note_on_c, 0, 32, 53
1, 296410, Note_off_c, 0, 32, 62
1, 296450, Note_off_c, 0, 57, 51
1, 296512, Note_off_c, 0, 54, 42
1, 296804, Note_on_c, 0, 49, 55
1, 296840, Note_on_c, 0, 56, 39
1, 296840, Note_on_c, 0, 63, 47
1, 296841, Note_on_c, 0, 44, 48
1, 296866, Note_on_c, 0, 51, 40
1, 296979, Control_c, 0, 64, 107
1, 296994, Control_c, 0, 64, 99
1, 297009, Control_c, 0, 64, 92
1, 297023, Control_c, 0, 64, 87
1, 297038, Control_c, 0, 64, 83
1, 297053, Control_c, 0, 64, 79
1, 297068, Control_c, 0, 64, 76
1, 297083, Control_c, 0, 64, 74
1, 297094, Note_off_c, 0, 66, 50
1, 297097, Control_c, 0, 64, 72
1, 297112, Control_c, 0, 64, 69
1, 297127, Control_c, 0, 64, 68
1, 297142, Control_c, 0, 64, 67
1, 297157, Control_c, 0, 64, 67
1, 297186, Control_c, 0, 64, 66
1, 297201, Control_c, 0, 64, 66
1, 297215, Control_c, 0, 64, 65
1, 297230, Control_c, 0, 64, 65
1, 297245, Control_c, 0, 64, 64
1, 297275, Control_c, 0, 64, 64
1, 297290, Control_c, 0, 64, 63
1, 297305, Control_c, 0, 64, 63
1, 297319, Control_c, 0, 64, 62
1, 297334, Control_c, 0, 64, 60
1, 297349, Control_c, 0, 64, 57
1, 297364, Control_c, 0, 64, 50
1, 297379, Control_c, 0, 64, 38
1, 297394, Control_c, 0, 64, 11
1, 297408, Control_c, 0, 64, 0
1, 297433, Note_on_c, 0, 48, 48
1, 297516, Note_off_c, 0, 49, 49
1, 297832, Control_c, 0, 64, 30
1, 297846, Control_c, 0, 64, 52
1, 297861, Control_c, 0, 64, 61
1, 297876, Control_c, 0, 64, 64
1, 297891, Control_c, 0, 64, 66
1, 297906, Control_c, 0, 64, 67
1, 297920, Control_c, 0, 64, 69
1, 297935, Control_c, 0, 64, 70
1, 297950, Control_c, 0, 64, 72
1, 297965, Control_c, 0, 64, 73
1, 297980, Control_c, 0, 64, 74
1, 297994, Control_c, 0, 64, 76
1, 298009, Control_c, 0, 64, 77
1, 298024, Control_c, 0, 64, 79
1, 298038, Control_c, 0, 64, 80
1, 298053, Control_c, 0, 64, 82
1, 298068, Control_c, 0, 64, 84
1, 298083, Control_c, 0, 64, 87
1, 298098, Control_c, 0, 64, 89
1, 298112, Control_c, 0, 64, 91
1, 298127, Control_c, 0, 64, 93
1, 298142, Control_c, 0, 64, 96
1, 298157, Control_c, 0, 64, 97
1, 298172, Control_c, 0, 64, 99
1, 298187, Control_c, 0, 64, 99
1, 298202, Control_c, 0, 64, 100
1, 298217, Control_c, 0, 64, 101
1, 298231, Control_c, 0, 64, 102
1, 298246, Control_c, 0, 64, 103
1, 298261, Control_c, 0, 64, 105
1, 298276, Control_c, 0, 64, 106
1, 298291, Control_c, 0, 64, 107
1, 298314, Control_c, 0, 64, 108
1, 298329, Control_c, 0, 64, 109
1, 298343, Control_c, 0, 64, 110
1, 298358, Control_c, 0, 64, 111
1, 298373, Control_c, 0, 64, 112
1, 298388, Control_c, 0, 64, 113
1, 298403, Control_c, 0, 64, 114
1, 298417, Control_c, 0, 64, 114
1, 298432, Control_c, 0, 64, 115
1, 298447, Control_c, 0, 64, 116
1, 298461, Control_c, 0, 64, 117
1, 298476, Control_c, 0, 64, 118
1, 298491, Control_c, 0, 64, 119
1, 298506, Control_c, 0, 64, 121
1, 298521, Control_c, 0, 64, 122
1, 298536, Control_c, 0, 64, 124
1, 298551, Control_c, 0, 64, 126
1, 298580, Control_c, 0, 64, 127
1, 298714, Control_c, 0, 64, 126
1, 298995, Control_c, 0, 64, 122
1, 299010, Control_c, 0, 64, 119
1, 299025, Control_c, 0, 64, 117
1, 299039, Control_c, 0, 64, 114
1, 299059, Note_on_c, 0, 47, 38
1, 299061, Control_c, 0, 64, 112
1, 299076, Control_c, 0, 64, 108
1, 299092, Control_c, 0, 64, 104
1, 299107, Control_c, 0, 64, 99
1, 299122, Control_c, 0, 64, 90
1, 299137, Control_c, 0, 64, 80
1, 299152, Control_c, 0, 64, 70
1, 299166, Control_c, 0, 64, 61
1, 299178, Note_off_c, 0, 48, 35
1, 299181, Control_c, 0, 64, 53
1, 299197, Control_c, 0, 64, 49
1, 299211, Control_c, 0, 64, 44
1, 299226, Control_c, 0, 64, 29
1, 299241, Control_c, 0, 64, 0
1, 299374, Control_c, 0, 64, 28
1, 299389, Control_c, 0, 64, 42
1, 299404, Control_c, 0, 64, 50
1, 299418, Control_c, 0, 64, 56
1, 299433, Control_c, 0, 64, 61
1, 299448, Control_c, 0, 64, 63
1, 299463, Control_c, 0, 64, 65
1, 299478, Control_c, 0, 64, 67
1, 299493, Control_c, 0, 64, 68
1, 299507, Control_c, 0, 64, 70
1, 299522, Control_c, 0, 64, 72
1, 299537, Control_c, 0, 64, 74
1, 299552, Control_c, 0, 64, 76
1, 299567, Control_c, 0, 64, 78
1, 299582, Control_c, 0, 64, 79
1, 299597, Control_c, 0, 64, 80
1, 299611, Control_c, 0, 64, 81
1, 299626, Control_c, 0, 64, 83
1, 299641, Control_c, 0, 64, 84
1, 299656, Control_c, 0, 64, 85
1, 299671, Control_c, 0, 64, 86
1, 299685, Control_c, 0, 64, 88
1, 299700, Control_c, 0, 64, 91
1, 299715, Control_c, 0, 64, 94
1, 299730, Control_c, 0, 64, 97
1, 299745, Control_c, 0, 64, 100
1, 299759, Control_c, 0, 64, 103
1, 299774, Control_c, 0, 64, 106
1, 299789, Control_c, 0, 64, 110
1, 299811, Control_c, 0, 64, 115
1, 299826, Control_c, 0, 64, 126
1, 299841, Control_c, 0, 64, 127
1, 300057, Note_on_c, 0, 48, 36
1, 300182, Control_c, 0, 64, 109
1, 300197, Control_c, 0, 64, 98
1, 300212, Control_c, 0, 64, 87
1, 300215, Note_off_c, 0, 47, 44
1, 300227, Control_c, 0, 64, 81
1, 300241, Control_c, 0, 64, 76
1, 300256, Control_c, 0, 64, 72
1, 300271, Control_c, 0, 64, 68
1, 300286, Control_c, 0, 64, 65
1, 300301, Control_c, 0, 64, 64
1, 300345, Control_c, 0, 64, 63
1, 300538, Control_c, 0, 64, 64
1, 300560, Control_c, 0, 64, 64
1, 300575, Control_c, 0, 64, 65
1, 300590, Control_c, 0, 64, 66
1, 300604, Control_c, 0, 64, 68
1, 300619, Control_c, 0, 64, 70
1, 300634, Control_c, 0, 64, 72
1, 300649, Control_c, 0, 64, 73
1, 300664, Control_c, 0, 64, 75
1, 300679, Control_c, 0, 64, 76
1, 300694, Control_c, 0, 64, 78
1, 300709, Control_c, 0, 64, 80
1, 300724, Control_c, 0, 64, 82
1, 300738, Control_c, 0, 64, 83
1, 300753, Control_c, 0, 64, 85
1, 300768, Control_c, 0, 64, 86
1, 300783, Control_c, 0, 64, 88
1, 300798, Control_c, 0, 64, 90
1, 300812, Control_c, 0, 64, 92
1, 300827, Control_c, 0, 64, 93
1, 300842, Control_c, 0, 64, 94
1, 300856, Control_c, 0, 64, 95
1, 300871, Control_c, 0, 64, 97
1, 300886, Control_c, 0, 64, 99
1, 300901, Control_c, 0, 64, 101
1, 300916, Control_c, 0, 64, 104
1, 300930, Control_c, 0, 64, 106
1, 300945, Control_c, 0, 64, 109
1, 300960, Control_c, 0, 64, 112
1, 300975, Control_c, 0, 64, 119
1, 300990, Control_c, 0, 64, 127
1, 301525, Note_off_c, 0, 51, 42
1, 301758, Note_off_c, 0, 48, 29
1, 301835, Note_off_c, 0, 44, 32
1, 302175, Control_c, 0, 64, 122
1, 302191, Control_c, 0, 64, 119
1, 302205, Control_c, 0, 64, 116
1, 302220, Control_c, 0, 64, 113
1, 302235, Control_c, 0, 64, 111
1, 302250, Control_c, 0, 64, 109
1, 302265, Control_c, 0, 64, 108
1, 302281, Control_c, 0, 64, 106
1, 302296, Control_c, 0, 64, 104
1, 302310, Control_c, 0, 64, 101
1, 302325, Control_c, 0, 64, 99
1, 302340, Control_c, 0, 64, 97
1, 302355, Note_off_c, 0, 56, 31
1, 302355, Control_c, 0, 64, 95
1, 302370, Control_c, 0, 64, 92
1, 302384, Control_c, 0, 64, 90
1, 302399, Control_c, 0, 64, 88
1, 302414, Control_c, 0, 64, 86
1, 302429, Control_c, 0, 64, 84
1, 302444, Control_c, 0, 64, 82
1, 302459, Control_c, 0, 64, 81
1, 302473, Control_c, 0, 64, 79
1, 302488, Control_c, 0, 64, 77
1, 302503, Control_c, 0, 64, 76
1, 302518, Control_c, 0, 64, 75
1, 302533, Control_c, 0, 64, 74
1, 302548, Control_c, 0, 64, 72
1, 302563, Control_c, 0, 64, 71
1, 302577, Control_c, 0, 64, 71
1, 302592, Control_c, 0, 64, 70
1, 302607, Control_c, 0, 64, 69
1, 302622, Control_c, 0, 64, 69
1, 302636, Control_c, 0, 64, 68
1, 302651, Control_c, 0, 64, 68
1, 302666, Control_c, 0, 64, 67
1, 302681, Control_c, 0, 64, 67
1, 302696, Control_c, 0, 64, 66
1, 302710, Control_c, 0, 64, 66
1, 302725, Control_c, 0, 64, 65
1, 302740, Control_c, 0, 64, 65
1, 302770, Control_c, 0, 64, 64
1, 302807, Control_c, 0, 64, 64
1, 302836, Control_c, 0, 64, 63
1, 302866, Control_c, 0, 64, 63
1, 302881, Control_c, 0, 64, 62
1, 302910, Control_c, 0, 64, 61
1, 302925, Control_c, 0, 64, 61
1, 302954, Control_c, 0, 64, 60
1, 302969, Control_c, 0, 64, 60
1, 303104, Control_c, 0, 64, 60
1, 303148, Control_c, 0, 64, 61
1, 303178, Control_c, 0, 64, 61
1, 303207, Control_c, 0, 64, 62
1, 303237, Control_c, 0, 64, 63
1, 303251, Control_c, 0, 64, 64
1, 303266, Control_c, 0, 64, 65
1, 303281, Control_c, 0, 64, 67
1, 303296, Control_c, 0, 64, 68
1, 303311, Control_c, 0, 64, 69
1, 303326, Control_c, 0, 64, 70
1, 303341, Control_c, 0, 64, 71
1, 303356, Control_c, 0, 64, 72
1, 303371, Control_c, 0, 64, 74
1, 303385, Control_c, 0, 64, 75
1, 303400, Control_c, 0, 64, 76
1, 303415, Control_c, 0, 64, 77
1, 303430, Control_c, 0, 64, 78
1, 303445, Control_c, 0, 64, 79
1, 303459, Control_c, 0, 64, 80
1, 303474, Control_c, 0, 64, 81
1, 303489, Control_c, 0, 64, 81
1, 303504, Control_c, 0, 64, 82
1, 303519, Control_c, 0, 64, 82
1, 303533, Control_c, 0, 64, 83
1, 303548, Control_c, 0, 64, 84
1, 303570, Control_c, 0, 64, 85
1, 303585, Control_c, 0, 64, 85
1, 303600, Control_c, 0, 64, 86
1, 303615, Control_c, 0, 64, 87
1, 303630, Control_c, 0, 64, 88
1, 303645, Control_c, 0, 64, 90
1, 303659, Control_c, 0, 64, 91
1, 303674, Control_c, 0, 64, 91
1, 303689, Control_c, 0, 64, 92
1, 303748, Control_c, 0, 64, 92
1, 303777, Control_c, 0, 64, 93
1, 303792, Control_c, 0, 64, 94
1, 303807, Control_c, 0, 64, 95
1, 303822, Control_c, 0, 64, 96
1, 303837, Control_c, 0, 64, 97
1, 303851, Control_c, 0, 64, 98
1, 303866, Control_c, 0, 64, 99
1, 303882, Control_c, 0, 64, 100
1, 303897, Control_c, 0, 64, 101
1, 303912, Control_c, 0, 64, 102
1, 303927, Control_c, 0, 64, 103
1, 303942, Control_c, 0, 64, 105
1, 303956, Control_c, 0, 64, 106
1, 303971, Control_c, 0, 64, 107
1, 303986, Control_c, 0, 64, 109
1, 304000, Control_c, 0, 64, 110
1, 304015, Control_c, 0, 64, 111
1, 304030, Control_c, 0, 64, 112
1, 304045, Control_c, 0, 64, 113
1, 304349, Control_c, 0, 64, 112
1, 304363, Control_c, 0, 64, 112
1, 304378, Control_c, 0, 64, 111
1, 304393, Control_c, 0, 64, 110
1, 304408, Control_c, 0, 64, 110
1, 304423, Control_c, 0, 64, 109
1, 304437, Control_c, 0, 64, 109
1, 304450, Note_off_c, 0, 63, 33
1, 304452, Control_c, 0, 64, 108
1, 304467, Control_c, 0, 64, 108
1, 304481, Control_c, 0, 64, 107
1, 304496, Control_c, 0, 64, 106
1, 304511, Control_c, 0, 64, 105
1, 304526, Control_c, 0, 64, 104
1, 304540, Control_c, 0, 64, 103
1, 304555, Control_c, 0, 64, 103
1, 304570, Control_c, 0, 64, 102
1, 304585, Control_c, 0, 64, 101
1, 304599, Control_c, 0, 64, 100
1, 304614, Control_c, 0, 64, 98
1, 304629, Control_c, 0, 64, 95
1, 304644, Control_c, 0, 64, 93
1, 304659, Control_c, 0, 64, 91
1, 304675, Control_c, 0, 64, 89
1, 304690, Control_c, 0, 64, 86
1, 304704, Control_c, 0, 64, 84
1, 304719, Control_c, 0, 64, 81
1, 304734, Control_c, 0, 64, 80
1, 304749, Control_c, 0, 64, 78
1, 304764, Control_c, 0, 64, 78
1, 304778, Control_c, 0, 64, 77
1, 304793, Control_c, 0, 64, 76
1, 304808, Control_c, 0, 64, 75
1, 304822, Control_c, 0, 64, 74
1, 304837, Control_c, 0, 64, 73
1, 304852, Control_c, 0, 64, 72
1, 304867, Control_c, 0, 64, 71
1, 304882, Control_c, 0, 64, 70
1, 304897, Control_c, 0, 64, 70
1, 304912, Control_c, 0, 64, 69
1, 304927, Control_c, 0, 64, 69
1, 304957, Control_c, 0, 64, 68
1, 304986, Control_c, 0, 64, 68
1, 305016, Control_c, 0, 64, 67
1, 305052, Control_c, 0, 64, 67
1, 305067, Control_c, 0, 64, 66
1, 305082, Control_c, 0, 64, 66
1, 305097, Control_c, 0, 64, 65
1, 305112, Control_c, 0, 64, 65
1, 305141, Control_c, 0, 64, 64
1, 305156, Control_c, 0, 64, 64
1, 305171, Control_c, 0, 64, 63
1, 305201, Control_c, 0, 64, 63
1, 305216, Control_c, 0, 64, 62
1, 305231, Control_c, 0, 64, 62
1, 305246, Control_c, 0, 64, 61
1, 305261, Control_c, 0, 64, 61
1, 305290, Control_c, 0, 64, 60
1, 305320, Control_c, 0, 64, 60
1, 305409, Control_c, 0, 64, 60
1, 305438, Control_c, 0, 64, 61
1, 305453, Control_c, 0, 64, 62
1, 305468, Control_c, 0, 64, 63
1, 305484, Control_c, 0, 64, 63
1, 305499, Control_c, 0, 64, 64
1, 305514, Control_c, 0, 64, 64
1, 305528, Control_c, 0, 64, 65
1, 305543, Control_c, 0, 64, 66
1, 305558, Control_c, 0, 64, 66
1, 305573, Control_c, 0, 64, 67
1, 305588, Control_c, 0, 64, 68
1, 305602, Control_c, 0, 64, 69
1, 305617, Control_c, 0, 64, 71
1, 305632, Control_c, 0, 64, 73
1, 305646, Control_c, 0, 64, 74
1, 305661, Control_c, 0, 64, 75
1, 305676, Control_c, 0, 64, 76
1, 305691, Control_c, 0, 64, 78
1, 305706, Control_c, 0, 64, 79
1, 305720, Control_c, 0, 64, 81
1, 305735, Control_c, 0, 64, 83
1, 305750, Control_c, 0, 64, 84
1, 305765, Control_c, 0, 64, 86
1, 305779, Control_c, 0, 64, 87
1, 305802, Control_c, 0, 64, 88
1, 305817, Control_c, 0, 64, 90
1, 305832, Control_c, 0, 64, 92
1, 305847, Control_c, 0, 64, 94
1, 305861, Control_c, 0, 64, 96
1, 305876, Control_c, 0, 64, 98
1, 305891, Control_c, 0, 64, 99
1, 305906, Control_c, 0, 64, 100
1, 305921, Control_c, 0, 64, 101
1, 305935, Control_c, 0, 64, 103
1, 305939, Note_on_c, 0, 48, 35
1, 305939, Note_on_c, 0, 60, 34
1, 305940, Note_on_c, 0, 43, 34
1, 305945, Note_on_c, 0, 36, 30
1, 305950, Note_on_c, 0, 51, 35
1, 305950, Note_on_c, 0, 55, 35
1, 305950, Control_c, 0, 64, 105
1, 305965, Control_c, 0, 64, 108
1, 305979, Control_c, 0, 64, 110
1, 305994, Control_c, 0, 64, 111
1, 306032, Note_off_c, 0, 43, 51
1, 306037, Note_off_c, 0, 48, 46
1, 306076, Note_off_c, 0, 36, 34
1, 306098, Control_c, 0, 64, 111
1, 306107, Note_off_c, 0, 55, 37
1, 306113, Control_c, 0, 64, 107
1, 306119, Note_off_c, 0, 51, 46
1, 306128, Control_c, 0, 64, 101
1, 306143, Control_c, 0, 64, 94
1, 306158, Control_c, 0, 64, 86
1, 306172, Control_c, 0, 64, 79
1, 306187, Control_c, 0, 64, 74
1, 306202, Control_c, 0, 64, 68
1, 306217, Control_c, 0, 64, 65
1, 306232, Control_c, 0, 64, 63
1, 306246, Control_c, 0, 64, 62
1, 306261, Control_c, 0, 64, 60
1, 306277, Control_c, 0, 64, 57
1, 306292, Control_c, 0, 64, 54
1, 306307, Control_c, 0, 64, 52
1, 306581, Control_c, 0, 64, 51
1, 306596, Control_c, 0, 64, 51
1, 306655, Control_c, 0, 64, 50
1, 306684, Control_c, 0, 64, 50
1, 306744, Control_c, 0, 64, 49
1, 306773, Control_c, 0, 64, 49
1, 307233, Note_on_c, 0, 63, 42
1, 307374, Control_c, 0, 64, 47
1, 307383, Note_off_c, 0, 60, 62
1, 307389, Control_c, 0, 64, 45
1, 307404, Control_c, 0, 64, 41
1, 307419, Control_c, 0, 64, 36
1, 307433, Control_c, 0, 64, 27
1, 307448, Control_c, 0, 64, 11
1, 307463, Control_c, 0, 64, 0
1, 307788, Note_on_c, 0, 60, 46
1, 307887, Note_off_c, 0, 63, 54
1, 307982, Control_c, 0, 64, 58
1, 307997, Control_c, 0, 64, 66
1, 308012, Control_c, 0, 64, 72
1, 308027, Control_c, 0, 64, 76
1, 308048, Control_c, 0, 64, 81
1, 308063, Control_c, 0, 64, 86
1, 308078, Control_c, 0, 64, 93
1, 308093, Control_c, 0, 64, 100
1, 308108, Control_c, 0, 64, 110
1, 308122, Control_c, 0, 64, 124
1, 308137, Control_c, 0, 64, 127
1, 308182, Note_off_c, 0, 60, 35
1, 308472, Note_on_c, 0, 65, 52
1, 308483, Note_on_c, 0, 60, 45
1, 308492, Note_on_c, 0, 44, 37
1, 308499, Note_on_c, 0, 48, 34
1, 308508, Note_on_c, 0, 53, 36
1, 308626, Control_c, 0, 64, 118
1, 308641, Control_c, 0, 64, 98
1, 308656, Control_c, 0, 64, 86
1, 308659, Note_off_c, 0, 44, 45
1, 308663, Note_off_c, 0, 48, 44
1, 308671, Control_c, 0, 64, 76
1, 308683, Note_off_c, 0, 60, 38
1, 308686, Control_c, 0, 64, 70
1, 308688, Note_off_c, 0, 53, 45
1, 308701, Control_c, 0, 64, 66
1, 308716, Control_c, 0, 64, 64
1, 308731, Control_c, 0, 64, 63
1, 308745, Control_c, 0, 64, 59
1, 308760, Control_c, 0, 64, 52
1, 308775, Control_c, 0, 64, 42
1, 308797, Control_c, 0, 64, 33
1, 308812, Control_c, 0, 64, 26
1, 308827, Control_c, 0, 64, 17
1, 308842, Control_c, 0, 64, 0
1, 309508, Control_c, 0, 64, 14
1, 309523, Control_c, 0, 64, 19
1, 309546, Control_c, 0, 64, 24
1, 309561, Control_c, 0, 64, 28
1, 309575, Control_c, 0, 64, 31
1, 309590, Control_c, 0, 64, 35
1, 309605, Control_c, 0, 64, 38
1, 309619, Control_c, 0, 64, 40
1, 309634, Control_c, 0, 64, 42
1, 309649, Control_c, 0, 64, 44
1, 309664, Control_c, 0, 64, 45
1, 309679, Control_c, 0, 64, 47
1, 309693, Control_c, 0, 64, 50
1, 309708, Control_c, 0, 64, 52
1, 309723, Control_c, 0, 64, 55
1, 309738, Control_c, 0, 64, 57
1, 309753, Control_c, 0, 64, 58
1, 309768, Control_c, 0, 64, 59
1, 309783, Control_c, 0, 64, 61
1, 309798, Control_c, 0, 64, 62
1, 309812, Control_c, 0, 64, 63
1, 309827, Control_c, 0, 64, 64
1, 309842, Control_c, 0, 64, 64
1, 309857, Control_c, 0, 64, 65
1, 309872, Control_c, 0, 64, 66
1, 309887, Control_c, 0, 64, 66
1, 309901, Control_c, 0, 64, 67
1, 309916, Control_c, 0, 64, 68
1, 309931, Control_c, 0, 64, 70
1, 309945, Control_c, 0, 64, 71
1, 309960, Control_c, 0, 64, 72
1, 309975, Control_c, 0, 64, 72
1, 309990, Control_c, 0, 64, 73
1, 310005, Control_c, 0, 64, 74
1, 310019, Control_c, 0, 64, 75
1, 310034, Control_c, 0, 64, 76
1, 310049, Control_c, 0, 64, 78
1, 310064, Control_c, 0, 64, 79
1, 310079, Control_c, 0, 64, 81
1, 310093, Control_c, 0, 64, 83
1, 310108, Control_c, 0, 64, 85
1, 310123, Control_c, 0, 64, 86
1, 310138, Control_c, 0, 64, 88
1, 310152, Control_c, 0, 64, 89
1, 310167, Control_c, 0, 64, 91
1, 310182, Control_c, 0, 64, 92
1, 310197, Control_c, 0, 64, 93
1, 310212, Control_c, 0, 64, 95
1, 310227, Control_c, 0, 64, 96
1, 310242, Control_c, 0, 64, 97
1, 310257, Control_c, 0, 64, 99
1, 310272, Control_c, 0, 64, 100
1, 310295, Control_c, 0, 64, 103
1, 310310, Control_c, 0, 64, 105
1, 310324, Control_c, 0, 64, 107
1, 310339, Control_c, 0, 64, 109
1, 310354, Control_c, 0, 64, 112
1, 310368, Control_c, 0, 64, 114
1, 310383, Control_c, 0, 64, 117
1, 310398, Control_c, 0, 64, 122
1, 310413, Control_c, 0, 64, 127
1, 311383, Note_on_c, 0, 67, 63
1, 311431, Note_on_c, 0, 39, 27
1, 311434, Note_on_c, 0, 48, 30
1, 311446, Note_on_c, 0, 51, 32
1, 311462, Note_on_c, 0, 43, 27
1, 311482, Note_on_c, 0, 55, 35
1, 311482, Note_on_c, 0, 60, 37
1, 311502, Control_c, 0, 64, 113
1, 311516, Control_c, 0, 64, 99
1, 311531, Control_c, 0, 64, 89
1, 311546, Control_c, 0, 64, 80
1, 311561, Control_c, 0, 64, 73
1, 311576, Control_c, 0, 64, 67
1, 311584, Note_off_c, 0, 65, 54
1, 311590, Control_c, 0, 64, 64
1, 311605, Control_c, 0, 64, 63
1, 311635, Control_c, 0, 64, 62
1, 311679, Control_c, 0, 64, 64
1, 311680, Note_off_c, 0, 48, 47
1, 311691, Note_off_c, 0, 51, 45
1, 311694, Control_c, 0, 64, 66
1, 311703, Note_off_c, 0, 60, 53
1, 311708, Control_c, 0, 64, 69
1, 311712, Note_off_c, 0, 43, 43
1, 311719, Note_off_c, 0, 39, 43
1, 311723, Control_c, 0, 64, 72
1, 311728, Note_off_c, 0, 55, 42
1, 311738, Control_c, 0, 64, 72
1, 311753, Control_c, 0, 64, 71
1, 311768, Control_c, 0, 64, 70
1, 311790, Control_c, 0, 64, 69
1, 311805, Control_c, 0, 64, 67
1, 311820, Control_c, 0, 64, 66
1, 311835, Control_c, 0, 64, 65
1, 311850, Control_c, 0, 64, 63
1, 311866, Control_c, 0, 64, 60
1, 311881, Control_c, 0, 64, 54
1, 311895, Control_c, 0, 64, 46
1, 311910, Control_c, 0, 64, 34
1, 311926, Control_c, 0, 64, 14
1, 311941, Control_c, 0, 64, 0
1, 312429, Note_on_c, 0, 65, 42
1, 312475, Note_off_c, 0, 67, 54
1, 312501, Note_on_c, 0, 63, 50
1, 312549, Note_off_c, 0, 65, 49
1, 312597, Note_on_c, 0, 62, 48
1, 312629, Note_off_c, 0, 63, 48
1, 312698, Note_on_c, 0, 60, 42
1, 312709, Note_off_c, 0, 62, 60
1, 312867, Control_c, 0, 64, 36
1, 312882, Control_c, 0, 64, 63
1, 312897, Control_c, 0, 64, 69
1, 312911, Control_c, 0, 64, 73
1, 312926, Control_c, 0, 64, 78
1, 312941, Control_c, 0, 64, 83
1, 312956, Control_c, 0, 64, 89
1, 312970, Control_c, 0, 64, 95
1, 312985, Control_c, 0, 64, 100
1, 313000, Control_c, 0, 64, 105
1, 313015, Control_c, 0, 64, 110
1, 313030, Control_c, 0, 64, 115
1, 313044, Control_c, 0, 64, 122
1, 313045, Note_off_c, 0, 60, 0
1, 313059, Control_c, 0, 64, 127
1, 313148, Poly_aftertouch_c, 0, 60, 0
1, 313330, Note_on_c, 0, 60, 43
1, 314104, Note_on_c, 0, 58, 41
1, 314126, Note_on_c, 0, 50, 26
1, 314129, Note_on_c, 0, 43, 28
1, 314138, Note_on_c, 0, 55, 34
1, 314141, Control_c, 0, 64, 122
1, 314156, Control_c, 0, 64, 105
1, 314171, Control_c, 0, 64, 94
1, 314185, Control_c, 0, 64, 82
1, 314200, Control_c, 0, 64, 74
1, 314215, Control_c, 0, 64, 66
1, 314230, Control_c, 0, 64, 56
1, 314245, Control_c, 0, 64, 11
1, 314261, Control_c, 0, 64, 0
1, 314284, Note_off_c, 0, 60, 39
1, 314401, Note_off_c, 0, 43, 41
1, 314401, Note_off_c, 0, 50, 48
1, 314587, Control_c, 0, 64, 38
1, 314602, Control_c, 0, 64, 55
1, 314616, Control_c, 0, 64, 62
1, 314631, Control_c, 0, 64, 64
1, 314646, Control_c, 0, 64, 66
1, 314661, Control_c, 0, 64, 69
1, 314663, Note_off_c, 0, 55, 34
1, 314676, Control_c, 0, 64, 70
1, 314690, Control_c, 0, 64, 72
1, 314705, Control_c, 0, 64, 74
1, 314720, Control_c, 0, 64, 75
1, 314734, Control_c, 0, 64, 76
1, 314749, Control_c, 0, 64, 78
1, 314764, Control_c, 0, 64, 79
1, 314779, Control_c, 0, 64, 80
1, 314949, Control_c, 0, 64, 79
1, 314994, Control_c, 0, 64, 79
1, 315038, Control_c, 0, 64, 78
1, 315049, Note_on_c, 0, 55, 38
1, 315099, Control_c, 0, 64, 78
1, 315128, Control_c, 0, 64, 77
1, 315143, Control_c, 0, 64, 75
1, 315157, Control_c, 0, 64, 73
1, 315172, Control_c, 0, 64, 69
1, 315187, Control_c, 0, 64, 66
1, 315202, Control_c, 0, 64, 64
1, 315217, Control_c, 0, 64, 64
1, 315232, Control_c, 0, 64, 63
1, 315247, Control_c, 0, 64, 61
1, 315262, Control_c, 0, 64, 59
1, 315276, Control_c, 0, 64, 56
1, 315291, Control_c, 0, 64, 54
1, 315306, Control_c, 0, 64, 53
1, 315321, Control_c, 0, 64, 53
1, 315339, Note_off_c, 0, 58, 39
1, 315610, Control_c, 0, 64, 53
1, 315625, Control_c, 0, 64, 55
1, 315639, Control_c, 0, 64, 56
1, 315654, Control_c, 0, 64, 57
1, 315669, Control_c, 0, 64, 58
1, 315684, Control_c, 0, 64, 59
1, 315698, Control_c, 0, 64, 60
1, 315713, Control_c, 0, 64, 61
1, 315728, Control_c, 0, 64, 62
1, 315743, Control_c, 0, 64, 63
1, 315758, Control_c, 0, 64, 63
1, 315772, Control_c, 0, 64, 64
1, 315802, Control_c, 0, 64, 64
1, 315846, Control_c, 0, 64, 65
1, 315877, Control_c, 0, 64, 65
1, 315892, Control_c, 0, 64, 66
1, 315922, Control_c, 0, 64, 66
1, 315936, Control_c, 0, 64, 67
1, 315951, Control_c, 0, 64, 67
1, 315966, Control_c, 0, 64, 68
1, 315980, Control_c, 0, 64, 69
1, 315995, Control_c, 0, 64, 70
1, 316010, Control_c, 0, 64, 71
1, 316025, Control_c, 0, 64, 73
1, 316040, Control_c, 0, 64, 74
1, 316054, Control_c, 0, 64, 75
1, 316069, Control_c, 0, 64, 76
1, 316084, Control_c, 0, 64, 77
1, 316099, Control_c, 0, 64, 78
1, 316114, Control_c, 0, 64, 79
1, 316129, Control_c, 0, 64, 81
1, 316144, Control_c, 0, 64, 82
1, 316159, Control_c, 0, 64, 83
1, 316174, Control_c, 0, 64, 84
1, 316188, Control_c, 0, 64, 84
1, 316203, Control_c, 0, 64, 85
1, 316218, Control_c, 0, 64, 86
1, 316233, Control_c, 0, 64, 87
1, 316248, Control_c, 0, 64, 88
1, 316262, Control_c, 0, 64, 89
1, 316284, Control_c, 0, 64, 92
1, 316299, Control_c, 0, 64, 94
1, 316314, Control_c, 0, 64, 96
1, 316329, Control_c, 0, 64, 98
1, 316344, Control_c, 0, 64, 99
1, 316359, Control_c, 0, 64, 100
1, 316373, Control_c, 0, 64, 102
1, 316388, Control_c, 0, 64, 104
1, 316403, Control_c, 0, 64, 107
1, 316418, Control_c, 0, 64, 110
1, 316433, Control_c, 0, 64, 113
1, 316448, Control_c, 0, 64, 118
1, 316462, Control_c, 0, 64, 127
1, 316971, Note_off_c, 0, 55, 34
1, 317267, Note_on_c, 0, 60, 48
1, 317308, Note_on_c, 0, 48, 30
1, 317314, Note_on_c, 0, 39, 31
1, 317317, Note_on_c, 0, 55, 34
1, 317403, Control_c, 0, 64, 116
1, 317418, Control_c, 0, 64, 102
1, 317433, Control_c, 0, 64, 92
1, 317448, Control_c, 0, 64, 82
1, 317458, Note_off_c, 0, 39, 41
1, 317458, Note_off_c, 0, 48, 43
1, 317464, Control_c, 0, 64, 73
1, 317479, Control_c, 0, 64, 66
1, 317494, Control_c, 0, 64, 59
1, 317508, Note_off_c, 0, 55, 22
1, 317508, Control_c, 0, 64, 43
1, 317523, Control_c, 0, 64, 0
1, 317656, Control_c, 0, 64, 47
1, 317671, Control_c, 0, 64, 66
1, 317686, Control_c, 0, 64, 75
1, 317700, Control_c, 0, 64, 89
1, 317715, Control_c, 0, 64, 110
1, 317730, Control_c, 0, 64, 127
1, 317840, Note_off_c, 0, 60, 62
1, 317936, Note_on_c, 0, 60, 60
1, 318606, Note_on_c, 0, 63, 59
1, 318634, Note_on_c, 0, 36, 36
1, 318642, Note_on_c, 0, 48, 34
1, 318646, Note_on_c, 0, 43, 36
1, 318646, Note_on_c, 0, 51, 36
1, 318654, Note_on_c, 0, 55, 37
1, 318754, Control_c, 0, 64, 111
1, 318769, Control_c, 0, 64, 99
1, 318783, Control_c, 0, 64, 91
1, 318797, Note_off_c, 0, 48, 38
1, 318798, Control_c, 0, 64, 84
1, 318799, Note_off_c, 0, 43, 42
1, 318813, Control_c, 0, 64, 79
1, 318814, Note_off_c, 0, 36, 38
1, 318823, Note_off_c, 0, 55, 48
1, 318828, Control_c, 0, 64, 75
1, 318843, Control_c, 0, 64, 69
1, 318848, Note_off_c, 0, 51, 48
1, 318857, Control_c, 0, 64, 65
1, 318872, Control_c, 0, 64, 63
1, 318877, Note_off_c, 0, 60, 32
1, 318887, Control_c, 0, 64, 61
1, 318901, Control_c, 0, 64, 59
1, 318916, Control_c, 0, 64, 56
1, 318931, Control_c, 0, 64, 52
1, 318946, Control_c, 0, 64, 43
1, 318961, Control_c, 0, 64, 35
1, 318976, Control_c, 0, 64, 28
1, 318991, Control_c, 0, 64, 24
1, 319006, Control_c, 0, 64, 21
1, 319020, Control_c, 0, 64, 19
1, 319035, Control_c, 0, 64, 11
1, 319051, Control_c, 0, 64, 0
1, 319807, Note_on_c, 0, 62, 37
1, 319961, Note_on_c, 0, 60, 42
1, 320031, Note_off_c, 0, 63, 34
1, 320085, Note_off_c, 0, 62, 29
1, 320225, Note_on_c, 0, 58, 38
1, 320250, Note_on_c, 0, 53, 21
1, 320251, Note_on_c, 0, 38, 25
1, 320258, Note_on_c, 0, 46, 19
1, 320283, Note_on_c, 0, 41, 3
1, 320433, Note_off_c, 0, 60, 38
1, 320681, Control_c, 0, 64, 55
1, 320696, Control_c, 0, 64, 63
1, 320711, Control_c, 0, 64, 66
1, 320726, Control_c, 0, 64, 69
1, 320740, Control_c, 0, 64, 72
1, 320755, Control_c, 0, 64, 75
1, 320777, Control_c, 0, 64, 79
1, 320792, Control_c, 0, 64, 82
1, 320807, Control_c, 0, 64, 85
1, 320822, Control_c, 0, 64, 88
1, 320837, Control_c, 0, 64, 92
1, 320851, Control_c, 0, 64, 97
1, 320866, Control_c, 0, 64, 100
1, 320881, Control_c, 0, 64, 103
1, 320896, Control_c, 0, 64, 104
1, 320910, Control_c, 0, 64, 105
1, 320925, Control_c, 0, 64, 106
1, 321133, Control_c, 0, 64, 105
1, 321148, Control_c, 0, 64, 105
1, 321161, Note_on_c, 0, 39, 42
1, 321163, Control_c, 0, 64, 104
1, 321192, Control_c, 0, 64, 104
1, 321222, Control_c, 0, 64, 103
1, 321236, Note_off_c, 0, 38, 41
1, 321266, Control_c, 0, 64, 103
1, 321429, Control_c, 0, 64, 102
1, 321445, Control_c, 0, 64, 102
1, 321460, Control_c, 0, 64, 101
1, 321474, Control_c, 0, 64, 100
1, 321489, Control_c, 0, 64, 97
1, 321501, Note_on_c, 0, 38, 49
1, 321504, Control_c, 0, 64, 91
1, 321526, Control_c, 0, 64, 83
1, 321541, Control_c, 0, 64, 74
1, 321548, Note_off_c, 0, 39, 42
1, 321556, Control_c, 0, 64, 65
1, 321571, Control_c, 0, 64, 27
1, 321586, Control_c, 0, 64, 0
1, 321688, Control_c, 0, 64, 58
1, 321703, Control_c, 0, 64, 69
1, 321718, Control_c, 0, 64, 76
1, 321733, Control_c, 0, 64, 83
1, 321748, Control_c, 0, 64, 90
1, 321763, Control_c, 0, 64, 94
1, 321778, Control_c, 0, 64, 97
1, 321793, Control_c, 0, 64, 98
1, 321807, Control_c, 0, 64, 99
1, 321815, Note_off_c, 0, 38, 41
1, 321963, Note_on_c, 0, 39, 50
1, 321970, Control_c, 0, 64, 98
1, 322014, Control_c, 0, 64, 97
1, 322029, Control_c, 0, 64, 96
1, 322037, Note_on_c, 0, 38, 53
1, 322043, Control_c, 0, 64, 93
1, 322058, Control_c, 0, 64, 89
1, 322073, Control_c, 0, 64, 82
1, 322088, Control_c, 0, 64, 77
1, 322090, Note_off_c, 0, 39, 30
1, 322094, Note_off_c, 0, 41, 37
1, 322103, Control_c, 0, 64, 71
1, 322118, Control_c, 0, 64, 66
1, 322133, Control_c, 0, 64, 62
1, 322147, Control_c, 0, 64, 51
1, 322162, Note_on_c, 0, 36, 52
1, 322162, Control_c, 0, 64, 0
1, 322189, Note_off_c, 0, 38, 37
1, 322427, Note_on_c, 0, 38, 50
1, 322469, Note_off_c, 0, 36, 57
1, 322496, Control_c, 0, 64, 54
1, 322511, Control_c, 0, 64, 65
1, 322526, Control_c, 0, 64, 70
1, 322541, Control_c, 0, 64, 74
1, 322556, Control_c, 0, 64, 79
1, 322571, Control_c, 0, 64, 82
1, 322577, Note_off_c, 0, 46, 48
1, 322586, Control_c, 0, 64, 85
1, 322601, Control_c, 0, 64, 88
1, 322615, Control_c, 0, 64, 91
1, 322630, Control_c, 0, 64, 93
1, 322645, Control_c, 0, 64, 94
1, 322763, Control_c, 0, 64, 94
1, 322778, Control_c, 0, 64, 93
1, 322788, Note_on_c, 0, 55, 54
1, 322793, Control_c, 0, 64, 92
1, 322808, Control_c, 0, 64, 90
1, 322819, Note_on_c, 0, 39, 42
1, 322822, Control_c, 0, 64, 87
1, 322826, Note_on_c, 0, 48, 37
1, 322837, Control_c, 0, 64, 83
1, 322852, Control_c, 0, 64, 78
1, 322866, Control_c, 0, 64, 72
1, 322881, Control_c, 0, 64, 65
1, 322896, Control_c, 0, 64, 53
1, 322911, Control_c, 0, 64, 0
1, 322971, Note_off_c, 0, 53, 45
1, 322982, Note_off_c, 0, 38, 50
1, 323143, Note_off_c, 0, 58, 52
1, 323150, Note_on_c, 0, 60, 63
1, 323432, Note_on_c, 0, 59, 60
1, 323510, Note_off_c, 0, 60, 55
1, 323717, Note_on_c, 0, 60, 62
1, 323801, Control_c, 0, 64, 26
1, 323816, Control_c, 0, 64, 47
1, 323830, Control_c, 0, 64, 56
1, 323835, Note_off_c, 0, 59, 49
1, 323847, Control_c, 0, 64, 62
1, 323861, Control_c, 0, 64, 65
1, 323876, Control_c, 0, 64, 68
1, 323881, Note_off_c, 0, 55, 60
1, 323891, Control_c, 0, 64, 70
1, 323906, Control_c, 0, 64, 71
1, 323920, Control_c, 0, 64, 72
1, 323935, Control_c, 0, 64, 73
1, 323950, Control_c, 0, 64, 75
1, 323965, Control_c, 0, 64, 76
1, 323980, Control_c, 0, 64, 78
1, 324073, Note_on_c, 0, 55, 62
1, 324083, Control_c, 0, 64, 76
1, 324098, Control_c, 0, 64, 72
1, 324113, Control_c, 0, 64, 65
1, 324127, Control_c, 0, 64, 37
1, 324142, Control_c, 0, 64, 0
1, 324238, Note_off_c, 0, 60, 62
1, 324291, Control_c, 0, 64, 23
1, 324306, Control_c, 0, 64, 61
1, 324320, Control_c, 0, 64, 67
1, 324335, Control_c, 0, 64, 72
1, 324350, Control_c, 0, 64, 78
1, 324365, Control_c, 0, 64, 83
1, 324380, Control_c, 0, 64, 88
1, 324394, Control_c, 0, 64, 94
1, 324409, Control_c, 0, 64, 101
1, 324424, Control_c, 0, 64, 108
1, 324438, Control_c, 0, 64, 118
1, 324453, Control_c, 0, 64, 127
1, 324557, Note_off_c, 0, 48, 40
1, 324774, Note_on_c, 0, 53, 54
1, 324815, Note_on_c, 0, 48, 35
1, 324818, Note_on_c, 0, 44, 33
1, 324833, Control_c, 0, 64, 113
1, 324848, Control_c, 0, 64, 99
1, 324863, Control_c, 0, 64, 86
1, 324877, Control_c, 0, 64, 73
1, 324892, Control_c, 0, 64, 56
1, 324907, Control_c, 0, 64, 0
1, 324928, Note_off_c, 0, 39, 52
1, 324949, Note_off_c, 0, 55, 64
1, 325040, Control_c, 0, 64, 53
1, 325055, Control_c, 0, 64, 64
1, 325069, Control_c, 0, 64, 68
1, 325084, Control_c, 0, 64, 72
1, 325099, Control_c, 0, 64, 77
1, 325114, Control_c, 0, 64, 82
1, 325129, Control_c, 0, 64, 86
1, 325143, Control_c, 0, 64, 90
1, 325158, Control_c, 0, 64, 93
1, 325173, Control_c, 0, 64, 97
1, 325188, Control_c, 0, 64, 100
1, 325203, Control_c, 0, 64, 102
1, 325218, Control_c, 0, 64, 103
1, 325314, Control_c, 0, 64, 103
1, 325335, Note_off_c, 0, 53, 60
1, 325358, Note_on_c, 0, 51, 55
1, 325373, Control_c, 0, 64, 102
1, 325403, Control_c, 0, 64, 101
1, 325417, Control_c, 0, 64, 101
1, 325432, Control_c, 0, 64, 100
1, 325459, Note_off_c, 0, 51, 50
1, 325462, Control_c, 0, 64, 100
1, 325465, Note_on_c, 0, 53, 55
1, 325477, Control_c, 0, 64, 99
1, 325492, Control_c, 0, 64, 98
1, 325507, Control_c, 0, 64, 96
1, 325522, Control_c, 0, 64, 95
1, 325537, Control_c, 0, 64, 93
1, 325552, Control_c, 0, 64, 90
1, 325566, Control_c, 0, 64, 88
1, 325581, Control_c, 0, 64, 85
1, 325596, Control_c, 0, 64, 82
1, 325611, Control_c, 0, 64, 78
1, 325614, Note_on_c, 0, 55, 52
1, 325626, Control_c, 0, 64, 74
1, 325637, Note_on_c, 0, 50, 39
1, 325640, Control_c, 0, 64, 70
1, 325649, Note_on_c, 0, 43, 35
1, 325651, Note_on_c, 0, 47, 37
1, 325655, Control_c, 0, 64, 64
1, 325670, Control_c, 0, 64, 55
1, 325685, Control_c, 0, 64, 0
1, 325719, Note_off_c, 0, 44, 42
1, 325751, Note_off_c, 0, 53, 61
1, 325790, Note_off_c, 0, 48, 40
1, 326345, Control_c, 0, 64, 30
1, 326359, Control_c, 0, 64, 50
1, 326374, Control_c, 0, 64, 59
1, 326389, Control_c, 0, 64, 63
1, 326404, Control_c, 0, 64, 66
1, 326419, Control_c, 0, 64, 68
1, 326434, Control_c, 0, 64, 70
1, 326449, Control_c, 0, 64, 71
1, 326463, Control_c, 0, 64, 73
1, 326478, Control_c, 0, 64, 74
1, 326493, Control_c, 0, 64, 76
1, 326508, Control_c, 0, 64, 77
1, 326522, Control_c, 0, 64, 79
1, 326537, Control_c, 0, 64, 81
1, 326552, Control_c, 0, 64, 83
1, 326567, Control_c, 0, 64, 85
1, 326582, Control_c, 0, 64, 87
1, 326596, Control_c, 0, 64, 89
1, 326611, Control_c, 0, 64, 90
1, 326626, Control_c, 0, 64, 91
1, 326640, Control_c, 0, 64, 92
1, 326655, Control_c, 0, 64, 93
1, 326670, Control_c, 0, 64, 94
1, 326685, Control_c, 0, 64, 95
1, 326700, Control_c, 0, 64, 95
1, 326714, Control_c, 0, 64, 96
1, 326811, Control_c, 0, 64, 96
1, 326944, Control_c, 0, 64, 96
1, 326969, Note_on_c, 0, 48, 51
1, 326989, Control_c, 0, 64, 95
1, 327003, Control_c, 0, 64, 94
1, 327016, Note_on_c, 0, 45, 26
1, 327018, Control_c, 0, 64, 92
1, 327033, Control_c, 0, 64, 89
1, 327049, Control_c, 0, 64, 83
1, 327063, Control_c, 0, 64, 76
1, 327078, Control_c, 0, 64, 67
1, 327093, Control_c, 0, 64, 56
1, 327108, Control_c, 0, 64, 0
1, 327114, Note_off_c, 0, 47, 44
1, 327251, Note_off_c, 0, 50, 59
1, 327316, Control_c, 0, 64, 35
1, 327331, Control_c, 0, 64, 63
1, 327345, Control_c, 0, 64, 68
1, 327360, Control_c, 0, 64, 72
1, 327375, Control_c, 0, 64, 76
1, 327390, Control_c, 0, 64, 80
1, 327405, Control_c, 0, 64, 86
1, 327419, Control_c, 0, 64, 93
1, 327434, Control_c, 0, 64, 101
1, 327449, Control_c, 0, 64, 110
1, 327463, Control_c, 0, 64, 127
1, 327628, Note_on_c, 0, 50, 63
1, 327661, Note_on_c, 0, 47, 44
1, 327679, Control_c, 0, 64, 115
1, 327694, Control_c, 0, 64, 84
1, 327698, Note_off_c, 0, 45, 50
1, 327709, Control_c, 0, 64, 67
1, 327724, Control_c, 0, 64, 0
1, 327766, Note_off_c, 0, 48, 61
1, 327843, Control_c, 0, 64, 64
1, 327858, Control_c, 0, 64, 72
1, 327873, Control_c, 0, 64, 83
1, 327887, Control_c, 0, 64, 96
1, 327902, Control_c, 0, 64, 110
1, 327917, Control_c, 0, 64, 127
1, 327924, Note_off_c, 0, 47, 53
1, 327963, Note_off_c, 0, 43, 41
1, 328005, Note_off_c, 0, 50, 65
1, 328106, Note_off_c, 0, 55, 64
1, 328454, Note_on_c, 0, 67, 74
1, 328464, Note_on_c, 0, 48, 53
1, 328468, Note_on_c, 0, 60, 53
1, 328471, Note_on_c, 0, 39, 55
1, 328473, Note_on_c, 0, 51, 57
1, 328478, Note_on_c, 0, 55, 56
1, 328532, Control_c, 0, 64, 95
1, 328547, Control_c, 0, 64, 74
1, 328561, Control_c, 0, 64, 62
1, 328567, Note_off_c, 0, 48, 62
1, 328576, Control_c, 0, 64, 0
1, 328577, Note_off_c, 0, 51, 62
1, 328588, Note_off_c, 0, 39, 58
1, 328594, Note_off_c, 0, 60, 62
1, 328626, Note_off_c, 0, 55, 47
1, 328844, Control_c, 0, 64, 53
1, 328858, Control_c, 0, 64, 66
1, 328873, Control_c, 0, 64, 70
1, 328888, Control_c, 0, 64, 75
1, 328903, Control_c, 0, 64, 83
1, 328917, Control_c, 0, 64, 101
1, 328932, Control_c, 0, 64, 127
1, 329095, Note_off_c, 0, 67, 54
1, 329191, Note_on_c, 0, 67, 74
1, 329660, Note_off_c, 0, 67, 32
1, 329973, Note_on_c, 0, 67, 56
1, 329987, Note_on_c, 0, 60, 44
1, 329987, Note_on_c, 0, 38, 39
1, 329987, Note_on_c, 0, 56, 41
1, 329989, Note_on_c, 0, 50, 36
1, 330073, Control_c, 0, 64, 103
1, 330074, Note_off_c, 0, 50, 48
1, 330088, Control_c, 0, 64, 89
1, 330103, Control_c, 0, 64, 79
1, 330108, Note_off_c, 0, 38, 33
1, 330118, Control_c, 0, 64, 71
1, 330132, Control_c, 0, 64, 66
1, 330147, Control_c, 0, 64, 64
1, 330162, Control_c, 0, 64, 62
1, 330166, Note_off_c, 0, 56, 33
1, 330177, Control_c, 0, 64, 58
1, 330191, Control_c, 0, 64, 50
1, 330206, Control_c, 0, 64, 43
1, 330217, Note_off_c, 0, 60, 38
1, 330221, Control_c, 0, 64, 40
1, 330237, Control_c, 0, 64, 38
1, 330252, Control_c, 0, 64, 30
1, 330267, Control_c, 0, 64, 0
1, 331230, Note_on_c, 0, 65, 46
1, 331331, Note_off_c, 0, 67, 38
1, 331363, Note_on_c, 0, 63, 52
1, 331367, Note_off_c, 0, 65, 52
1, 331535, Note_on_c, 0, 62, 40
1, 331589, Note_off_c, 0, 63, 55
1, 331823, Control_c, 0, 64, 19
1, 331839, Control_c, 0, 64, 57
1, 331853, Control_c, 0, 64, 64
1, 331868, Control_c, 0, 64, 68
1, 331883, Control_c, 0, 64, 72
1, 331898, Control_c, 0, 64, 76
1, 331913, Control_c, 0, 64, 80
1, 331928, Control_c, 0, 64, 84
1, 331943, Control_c, 0, 64, 87
1, 331958, Control_c, 0, 64, 91
1, 331973, Control_c, 0, 64, 95
1, 331987, Control_c, 0, 64, 100
1, 332009, Control_c, 0, 64, 105
1, 332024, Control_c, 0, 64, 114
1, 332039, Control_c, 0, 64, 127
1, 332322, Note_on_c, 0, 44, 32
1, 332325, Note_on_c, 0, 60, 31
1, 332327, Note_on_c, 0, 50, 28
1, 332344, Note_on_c, 0, 53, 29
1, 333093, Note_off_c, 0, 44, 23
1, 333104, Note_off_c, 0, 53, 37
1, 333450, Poly_aftertouch_c, 0, 44, 127
1, 333979, Note_on_c, 0, 43, 24
1, 333985, Note_on_c, 0, 59, 33
1, 333997, Note_on_c, 0, 55, 21
1, 334054, Control_c, 0, 64, 94
1, 334069, Control_c, 0, 64, 80
1, 334077, Poly_aftertouch_c, 0, 44, 0
1, 334084, Control_c, 0, 64, 67
1, 334098, Control_c, 0, 64, 40
1, 334107, Note_off_c, 0, 60, 53
1, 334113, Control_c, 0, 64, 0
1, 334202, Control_c, 0, 64, 46
1, 334217, Control_c, 0, 64, 64
1, 334233, Control_c, 0, 64, 70
1, 334248, Control_c, 0, 64, 76
1, 334270, Control_c, 0, 64, 83
1, 334285, Control_c, 0, 64, 89
1, 334300, Control_c, 0, 64, 96
1, 334315, Control_c, 0, 64, 103
1, 334318, Note_off_c, 0, 43, 41
1, 334330, Control_c, 0, 64, 110
1, 334344, Control_c, 0, 64, 123
1, 334359, Control_c, 0, 64, 127
1, 334366, Note_off_c, 0, 50, 42
1, 334421, Note_off_c, 0, 59, 36
1, 334518, Note_off_c, 0, 55, 36
1, 334833, Control_c, 0, 64, 116
1, 334837, Note_on_c, 0, 67, 48
1, 334843, Note_on_c, 0, 48, 37
1, 334844, Note_on_c, 0, 39, 33
1, 334847, Control_c, 0, 64, 95
1, 334852, Note_on_c, 0, 60, 26
1, 334854, Note_on_c, 0, 51, 36
1, 334855, Note_on_c, 0, 55, 32
1, 334862, Control_c, 0, 64, 81
1, 334877, Control_c, 0, 64, 70
1, 334892, Control_c, 0, 64, 61
1, 334907, Control_c, 0, 64, 27
1, 334916, Note_off_c, 0, 62, 34
1, 334921, Control_c, 0, 64, 0
1, 334959, Note_off_c, 0, 48, 53
1, 334968, Note_off_c, 0, 51, 47
1, 334984, Note_off_c, 0, 39, 52
1, 334988, Note_off_c, 0, 60, 48
1, 335013, Note_off_c, 0, 55, 43
1, 335197, Control_c, 0, 64, 50
1, 335212, Control_c, 0, 64, 64
1, 335227, Control_c, 0, 64, 68
1, 335241, Control_c, 0, 64, 73
1, 335256, Control_c, 0, 64, 78
1, 335271, Control_c, 0, 64, 83
1, 335285, Control_c, 0, 64, 90
1, 335300, Control_c, 0, 64, 96
1, 335315, Control_c, 0, 64, 103
1, 335330, Control_c, 0, 64, 113
1, 335345, Control_c, 0, 64, 127
1, 335508, Note_off_c, 0, 67, 34
1, 335614, Note_on_c, 0, 67, 46
1, 335999, Note_off_c, 0, 67, 33
1, 336611, Note_on_c, 0, 67, 46
1, 336640, Note_on_c, 0, 50, 26
1, 336642, Note_on_c, 0, 56, 30
1, 336647, Note_on_c, 0, 60, 31
1, 336648, Note_on_c, 0, 38, 24
1, 336679, Control_c, 0, 64, 124
1, 336694, Control_c, 0, 64, 99
1, 336709, Control_c, 0, 64, 85
1, 336723, Control_c, 0, 64, 72
1, 336736, Note_off_c, 0, 50, 42
1, 336738, Control_c, 0, 64, 63
1, 336753, Control_c, 0, 64, 52
1, 336763, Note_off_c, 0, 38, 42
1, 336768, Control_c, 0, 64, 39
1, 336783, Control_c, 0, 64, 17
1, 336790, Note_off_c, 0, 60, 48
1, 336797, Control_c, 0, 64, 0
1, 336822, Note_off_c, 0, 56, 45
1, 337914, Note_on_c, 0, 65, 40
1, 338036, Note_off_c, 0, 67, 35
1, 338051, Note_on_c, 0, 63, 40
1, 338065, Note_off_c, 0, 65, 47
1, 338223, Note_on_c, 0, 62, 39
1, 338300, Note_off_c, 0, 63, 52
1, 338533, Control_c, 0, 64, 45
1, 338548, Control_c, 0, 64, 58
1, 338563, Control_c, 0, 64, 64
1, 338577, Control_c, 0, 64, 66
1, 338592, Control_c, 0, 64, 68
1, 338607, Control_c, 0, 64, 71
1, 338621, Control_c, 0, 64, 74
1, 338636, Control_c, 0, 64, 77
1, 338651, Control_c, 0, 64, 80
1, 338666, Control_c, 0, 64, 82
1, 338681, Control_c, 0, 64, 84
1, 338695, Control_c, 0, 64, 87
1, 338710, Control_c, 0, 64, 90
1, 338725, Control_c, 0, 64, 93
1, 338748, Control_c, 0, 64, 96
1, 338763, Control_c, 0, 64, 98
1, 338777, Control_c, 0, 64, 100
1, 338792, Control_c, 0, 64, 102
1, 338807, Control_c, 0, 64, 106
1, 338821, Control_c, 0, 64, 110
1, 338836, Control_c, 0, 64, 116
1, 338851, Control_c, 0, 64, 127
1, 339062, Note_on_c, 0, 60, 35
1, 339078, Note_on_c, 0, 44, 33
1, 339093, Note_on_c, 0, 53, 26
1, 339094, Note_on_c, 0, 50, 29
1, 339720, Note_off_c, 0, 53, 39
1, 340486, Note_on_c, 0, 59, 34
1, 340519, Note_on_c, 0, 43, 29
1, 340525, Note_on_c, 0, 55, 22
1, 340586, Control_c, 0, 64, 112
1, 340600, Control_c, 0, 64, 95
1, 340612, Note_off_c, 0, 44, 41
1, 340615, Control_c, 0, 64, 79
1, 340631, Control_c, 0, 64, 69
1, 340646, Control_c, 0, 64, 61
1, 340650, Note_off_c, 0, 60, 38
1, 340661, Control_c, 0, 64, 51
1, 340676, Control_c, 0, 64, 43
1, 340690, Control_c, 0, 64, 27
1, 340705, Control_c, 0, 64, 0
1, 340764, Control_c, 0, 64, 28
1, 340779, Control_c, 0, 64, 56
1, 340794, Control_c, 0, 64, 64
1, 340809, Control_c, 0, 64, 69
1, 340823, Control_c, 0, 64, 74
1, 340838, Control_c, 0, 64, 79
1, 340853, Control_c, 0, 64, 84
1, 340868, Control_c, 0, 64, 88
1, 340883, Control_c, 0, 64, 93
1, 340885, Note_off_c, 0, 50, 42
1, 340897, Control_c, 0, 64, 97
1, 340912, Control_c, 0, 64, 100
1, 340918, Note_off_c, 0, 43, 39
1, 340927, Control_c, 0, 64, 103
1, 340942, Control_c, 0, 64, 104
1, 340957, Control_c, 0, 64, 106
1, 340972, Control_c, 0, 64, 107
1, 340994, Note_off_c, 0, 55, 38
1, 340994, Control_c, 0, 64, 108
1, 341246, Control_c, 0, 64, 107
1, 341258, Note_off_c, 0, 59, 36
1, 341261, Control_c, 0, 64, 106
1, 341276, Control_c, 0, 64, 105
1, 341290, Control_c, 0, 64, 104
1, 341305, Control_c, 0, 64, 102
1, 341320, Control_c, 0, 64, 99
1, 341333, Note_on_c, 0, 60, 35
1, 341335, Control_c, 0, 64, 94
1, 341349, Control_c, 0, 64, 88
1, 341364, Control_c, 0, 64, 81
1, 341379, Control_c, 0, 64, 72
1, 341394, Control_c, 0, 64, 65
1, 341409, Control_c, 0, 64, 60
1, 341425, Control_c, 0, 64, 47
1, 341439, Control_c, 0, 64, 24
1, 341450, Note_off_c, 0, 62, 52
1, 341454, Control_c, 0, 64, 0
1, 341602, Control_c, 0, 64, 30
1, 341617, Control_c, 0, 64, 62
1, 341632, Control_c, 0, 64, 68
1, 341646, Control_c, 0, 64, 73
1, 341661, Control_c, 0, 64, 79
1, 341676, Control_c, 0, 64, 85
1, 341691, Control_c, 0, 64, 91
1, 341706, Control_c, 0, 64, 98
1, 341720, Control_c, 0, 64, 106
1, 341735, Control_c, 0, 64, 114
1, 341758, Control_c, 0, 64, 127
1, 341964, Note_off_c, 0, 60, 44
1, 342266, Note_on_c, 0, 60, 44
1, 342329, Note_on_c, 0, 39, 28
1, 342339, Note_on_c, 0, 48, 27
1, 342340, Note_on_c, 0, 55, 10
1, 342492, Note_off_c, 0, 48, 39
1, 342496, Note_off_c, 0, 39, 41
1, 342602, Note_off_c, 0, 55, 37
1, 342647, Note_on_c, 0, 62, 59
1, 342743, Control_c, 0, 64, 113
1, 342758, Control_c, 0, 64, 104
1, 342773, Control_c, 0, 64, 95
1, 342787, Note_off_c, 0, 60, 57
1, 342788, Control_c, 0, 64, 87
1, 342802, Control_c, 0, 64, 77
1, 342817, Control_c, 0, 64, 70
1, 342832, Control_c, 0, 64, 64
1, 342847, Control_c, 0, 64, 61
1, 342862, Control_c, 0, 64, 58
1, 342877, Control_c, 0, 64, 53
1, 342892, Control_c, 0, 64, 41
1, 342906, Control_c, 0, 64, 0
1, 342964, Note_on_c, 0, 65, 55
1, 343065, Note_off_c, 0, 62, 61
1, 343281, Note_on_c, 0, 63, 52
1, 343285, Control_c, 0, 64, 57
1, 343300, Control_c, 0, 64, 67
1, 343315, Control_c, 0, 64, 72
1, 343321, Note_off_c, 0, 65, 64
1, 343330, Control_c, 0, 64, 78
1, 343345, Control_c, 0, 64, 85
1, 343360, Control_c, 0, 64, 91
1, 343374, Control_c, 0, 64, 99
1, 343389, Control_c, 0, 64, 106
1, 343404, Control_c, 0, 64, 115
1, 343410, Note_off_c, 0, 63, 60
1, 343418, Control_c, 0, 64, 127
1, 343604, Note_on_c, 0, 62, 49
1, 343643, Note_on_c, 0, 36, 36
1, 343646, Note_on_c, 0, 55, 28
1, 343655, Note_on_c, 0, 48, 30
1, 343655, Control_c, 0, 64, 111
1, 343660, Note_on_c, 0, 51, 32
1, 343664, Note_on_c, 0, 43, 29
1, 343670, Control_c, 0, 64, 102
1, 343685, Control_c, 0, 64, 94
1, 343699, Control_c, 0, 64, 86
1, 343714, Control_c, 0, 64, 79
1, 343729, Control_c, 0, 64, 72
1, 343744, Control_c, 0, 64, 66
1, 343759, Control_c, 0, 64, 59
1, 343774, Control_c, 0, 64, 52
1, 343789, Control_c, 0, 64, 47
1, 343804, Control_c, 0, 64, 40
1, 343819, Control_c, 0, 64, 27
1, 343834, Control_c, 0, 64, 0
1, 343881, Note_off_c, 0, 43, 41
1, 343881, Note_off_c, 0, 48, 41
1, 343890, Note_off_c, 0, 36, 41
1, 343903, Note_on_c, 0, 60, 57
1, 344013, Note_off_c, 0, 62, 39
1, 344139, Note_off_c, 0, 51, 47
1, 344267, Note_on_c, 0, 63, 51
1, 344339, Note_off_c, 0, 55, 33
1, 344375, Note_off_c, 0, 60, 59
1, 344657, Control_c, 0, 64, 24
1, 344671, Control_c, 0, 64, 55
1, 344686, Control_c, 0, 64, 63
1, 344701, Control_c, 0, 64, 68
1, 344716, Control_c, 0, 64, 70
1, 344738, Control_c, 0, 64, 73
1, 344753, Control_c, 0, 64, 75
1, 344768, Control_c, 0, 64, 77
1, 344783, Control_c, 0, 64, 81
1, 344797, Control_c, 0, 64, 85
1, 344812, Control_c, 0, 64, 89
1, 344827, Control_c, 0, 64, 93
1, 344842, Control_c, 0, 64, 96
1, 344857, Control_c, 0, 64, 98
1, 344871, Control_c, 0, 64, 101
1, 344886, Control_c, 0, 64, 104
1, 344901, Control_c, 0, 64, 108
1, 344916, Control_c, 0, 64, 110
1, 344931, Control_c, 0, 64, 111
1, 344960, Control_c, 0, 64, 112
1, 344975, Control_c, 0, 64, 112
1, 344990, Control_c, 0, 64, 113
1, 345005, Control_c, 0, 64, 114
1, 345021, Note_on_c, 0, 58, 32
1, 345031, Note_on_c, 0, 51, 33
1, 345035, Control_c, 0, 64, 115
1, 345048, Note_on_c, 0, 43, 21
1, 345050, Control_c, 0, 64, 115
1, 345056, Note_on_c, 0, 46, 29
1, 345064, Control_c, 0, 64, 116
1, 345079, Control_c, 0, 64, 117
1, 345094, Control_c, 0, 64, 118
1, 345109, Control_c, 0, 64, 119
1, 345124, Control_c, 0, 64, 120
1, 345138, Control_c, 0, 64, 122
1, 345153, Control_c, 0, 64, 126
1, 345168, Control_c, 0, 64, 127
1, 345271, Note_off_c, 0, 46, 40
1, 345288, Note_off_c, 0, 43, 39
1, 345850, Note_off_c, 0, 51, 37
1, 346097, Note_off_c, 0, 63, 30
1, 346123, Note_off_c, 0, 58, 42
1, 346308, Note_on_c, 0, 63, 50
1, 346319, Note_on_c, 0, 31, 44
1, 346323, Note_on_c, 0, 43, 37
1, 346331, Note_on_c, 0, 58, 38
1, 346343, Note_on_c, 0, 51, 21
1, 346355, Control_c, 0, 64, 123
1, 346369, Control_c, 0, 64, 102
1, 346373, Note_off_c, 0, 43, 56
1, 346375, Note_off_c, 0, 31, 53
1, 346384, Control_c, 0, 64, 89
1, 346399, Control_c, 0, 64, 78
1, 346414, Control_c, 0, 64, 69
1, 346429, Control_c, 0, 64, 63
1, 346443, Control_c, 0, 64, 57
1, 346458, Control_c, 0, 64, 53
1, 346473, Control_c, 0, 64, 52
1, 346480, Note_off_c, 0, 58, 46
1, 346483, Note_off_c, 0, 51, 47
1, 346488, Control_c, 0, 64, 51
1, 346503, Control_c, 0, 64, 49
1, 346517, Control_c, 0, 64, 46
1, 346828, Control_c, 0, 64, 45
1, 346843, Control_c, 0, 64, 44
1, 346858, Control_c, 0, 64, 40
1, 346873, Control_c, 0, 64, 35
1, 346888, Control_c, 0, 64, 17
1, 346902, Note_on_c, 0, 62, 57
1, 346902, Control_c, 0, 64, 0
1, 346920, Note_on_c, 0, 46, 49
1, 346922, Note_on_c, 0, 58, 48
1, 346923, Note_on_c, 0, 53, 44
1, 346925, Note_on_c, 0, 34, 48
1, 346958, Note_off_c, 0, 46, 60
1, 346961, Note_off_c, 0, 63, 61
1, 346964, Note_off_c, 0, 34, 60
1, 347101, Note_off_c, 0, 53, 51
1, 347104, Note_off_c, 0, 58, 42
1, 347537, Note_on_c, 0, 60, 57
1, 347566, Note_on_c, 0, 55, 43
1, 347567, Note_on_c, 0, 36, 45
1, 347569, Note_on_c, 0, 51, 51
1, 347575, Note_on_c, 0, 48, 46
1, 347639, Note_off_c, 0, 48, 62
1, 347640, Note_off_c, 0, 62, 60
1, 347652, Note_off_c, 0, 36, 58
1, 347716, Note_off_c, 0, 55, 53
1, 347746, Note_off_c, 0, 51, 39
1, 348208, Note_on_c, 0, 55, 43
1, 348227, Note_on_c, 0, 47, 30
1, 348227, Note_on_c, 0, 43, 33
1, 348245, Note_on_c, 0, 50, 28
1, 348327, Note_off_c, 0, 43, 58
1, 348329, Note_off_c, 0, 47, 58
1, 348377, Note_off_c, 0, 60, 35
1, 348440, Note_off_c, 0, 50, 45
1, 348874, Note_on_c, 0, 60, 46
1, 348916, Note_on_c, 0, 48, 27
1, 348922, Note_on_c, 0, 51, 21
1, 348925, Note_on_c, 0, 36, 25
1, 348928, Note_on_c, 0, 43, 22
1, 349011, Note_off_c, 0, 43, 51
1, 349019, Note_off_c, 0, 48, 50
1, 349023, Note_off_c, 0, 55, 35
1, 349050, Note_off_c, 0, 36, 35
1, 349118, Note_off_c, 0, 51, 53
1, 349360, Note_off_c, 0, 60, 62
1, 349375, Note_on_c, 0, 62, 46
1, 349459, Note_off_c, 0, 62, 50
1, 349462, Note_on_c, 0, 60, 44
1, 349649, Note_on_c, 0, 55, 39
1, 349667, Note_on_c, 0, 50, 28
1, 349682, Note_on_c, 0, 43, 16
1, 349683, Note_on_c, 0, 47, 17
1, 349795, Note_off_c, 0, 60, 42
1, 350112, Control_c, 0, 64, 14
1, 350127, Control_c, 0, 64, 40
1, 350142, Control_c, 0, 64, 49
1, 350157, Control_c, 0, 64, 54
1, 350172, Control_c, 0, 64, 58
1, 350186, Control_c, 0, 64, 61
1, 350201, Control_c, 0, 64, 63
1, 350217, Control_c, 0, 64, 64
1, 350232, Control_c, 0, 64, 65
1, 350247, Control_c, 0, 64, 66
1, 350262, Control_c, 0, 64, 67
1, 350276, Control_c, 0, 64, 68
1, 350291, Control_c, 0, 64, 69
1, 350306, Control_c, 0, 64, 70
1, 350321, Control_c, 0, 64, 71
1, 350336, Control_c, 0, 64, 72
1, 350350, Control_c, 0, 64, 74
1, 350365, Control_c, 0, 64, 75
1, 350380, Control_c, 0, 64, 76
1, 350395, Control_c, 0, 64, 77
1, 350409, Control_c, 0, 64, 78
1, 350424, Control_c, 0, 64, 79
1, 350439, Control_c, 0, 64, 80
1, 350454, Control_c, 0, 64, 82
1, 350469, Control_c, 0, 64, 83
1, 350484, Control_c, 0, 64, 85
1, 350499, Control_c, 0, 64, 88
1, 350514, Control_c, 0, 64, 90
1, 350528, Control_c, 0, 64, 93
1, 350543, Control_c, 0, 64, 95
1, 350558, Control_c, 0, 64, 97
1, 350573, Control_c, 0, 64, 98
1, 350588, Control_c, 0, 64, 100
1, 350602, Control_c, 0, 64, 103
1, 350617, Control_c, 0, 64, 106
1, 350632, Control_c, 0, 64, 110
1, 350647, Control_c, 0, 64, 114
1, 350662, Control_c, 0, 64, 120
1, 350676, Control_c, 0, 64, 127
1, 351056, Note_off_c, 0, 50, 44
1, 351083, Note_off_c, 0, 43, 37
1, 351305, Note_off_c, 0, 47, 34
1, 351506, Note_off_c, 0, 55, 14
1, 351907, Note_on_c, 0, 63, 42
1, 351942, Note_on_c, 0, 46, 27
1, 351944, Note_on_c, 0, 43, 24
1, 351954, Note_on_c, 0, 58, 24
1, 351980, Note_on_c, 0, 51, 10
1, 352010, Control_c, 0, 64, 116
1, 352025, Control_c, 0, 64, 94
1, 352040, Control_c, 0, 64, 81
1, 352055, Control_c, 0, 64, 72
1, 352070, Control_c, 0, 64, 64
1, 352085, Control_c, 0, 64, 58
1, 352100, Control_c, 0, 64, 53
1, 352103, Note_off_c, 0, 43, 48
1, 352106, Note_off_c, 0, 46, 41
1, 352114, Control_c, 0, 64, 49
1, 352129, Control_c, 0, 64, 42
1, 352144, Control_c, 0, 64, 29
1, 352159, Control_c, 0, 64, 0
1, 352164, Note_off_c, 0, 51, 46
1, 352170, Note_off_c, 0, 58, 46
1, 352787, Note_on_c, 0, 62, 36
1, 352791, Note_on_c, 0, 46, 35
1, 352797, Note_on_c, 0, 34, 32
1, 352807, Note_on_c, 0, 58, 29
1, 352818, Note_on_c, 0, 53, 14
1, 352869, Note_off_c, 0, 46, 57
1, 352883, Note_off_c, 0, 34, 57
1, 352890, Note_off_c, 0, 63, 38
1, 353009, Note_off_c, 0, 58, 45
1, 353010, Note_off_c, 0, 53, 44
1, 353429, Note_on_c, 0, 60, 41
1, 353457, Note_on_c, 0, 36, 33
1, 353457, Note_on_c, 0, 48, 34
1, 353467, Note_on_c, 0, 51, 36
1, 353471, Note_on_c, 0, 55, 27
1, 353521, Note_off_c, 0, 48, 60
1, 353530, Note_off_c, 0, 36, 55
1, 353594, Note_off_c, 0, 62, 39
1, 353617, Note_off_c, 0, 55, 37
1, 353638, Note_off_c, 0, 51, 44
1, 354070, Note_on_c, 0, 55, 41
1, 354085, Note_on_c, 0, 47, 28
1, 354086, Note_on_c, 0, 43, 28
1, 354091, Note_on_c, 0, 50, 31
1, 354188, Note_off_c, 0, 43, 55
1, 354199, Note_off_c, 0, 47, 54
1, 354207, Note_off_c, 0, 60, 53
1, 354257, Note_off_c, 0, 50, 42
1, 354690, Note_on_c, 0, 60, 41
1, 354703, Note_on_c, 0, 36, 38
1, 354705, Note_on_c, 0, 48, 34
1, 354713, Note_on_c, 0, 43, 32
1, 354718, Note_on_c, 0, 51, 34
1, 354788, Note_off_c, 0, 48, 57
1, 354790, Note_off_c, 0, 43, 59
1, 354809, Note_off_c, 0, 36, 52
1, 354834, Note_off_c, 0, 55, 37
1, 354908, Note_off_c, 0, 51, 45
1, 355161, Note_off_c, 0, 60, 59
1, 355173, Note_on_c, 0, 62, 40
1, 355263, Note_off_c, 0, 62, 53
1, 355269, Note_on_c, 0, 60, 46
1, 355410, Note_on_c, 0, 55, 41
1, 355420, Note_on_c, 0, 43, 27
1, 355426, Note_on_c, 0, 47, 23
1, 355426, Note_on_c, 0, 50, 23
1, 355500, Note_off_c, 0, 60, 50
1, 355724, Control_c, 0, 64, 36
1, 355739, Control_c, 0, 64, 48
1, 355754, Control_c, 0, 64, 54
1, 355769, Control_c, 0, 64, 59
1, 355784, Control_c, 0, 64, 61
1, 355799, Control_c, 0, 64, 63
1, 355814, Control_c, 0, 64, 64
1, 355829, Control_c, 0, 64, 65
1, 355844, Control_c, 0, 64, 66
1, 355858, Control_c, 0, 64, 67
1, 355873, Control_c, 0, 64, 67
1, 355888, Control_c, 0, 64, 68
1, 355903, Control_c, 0, 64, 69
1, 355918, Control_c, 0, 64, 70
1, 355933, Control_c, 0, 64, 71
1, 355947, Control_c, 0, 64, 72
1, 355962, Control_c, 0, 64, 73
1, 355984, Control_c, 0, 64, 74
1, 355999, Control_c, 0, 64, 75
1, 356014, Control_c, 0, 64, 76
1, 356028, Control_c, 0, 64, 78
1, 356043, Control_c, 0, 64, 79
1, 356058, Control_c, 0, 64, 80
1, 356073, Control_c, 0, 64, 81
1, 356088, Control_c, 0, 64, 82
1, 356103, Control_c, 0, 64, 83
1, 356118, Control_c, 0, 64, 84
1, 356133, Control_c, 0, 64, 86
1, 356147, Control_c, 0, 64, 87
1, 356162, Control_c, 0, 64, 89
1, 356177, Control_c, 0, 64, 91
1, 356192, Control_c, 0, 64, 93
1, 356207, Control_c, 0, 64, 94
1, 356221, Control_c, 0, 64, 96
1, 356236, Control_c, 0, 64, 98
1, 356251, Control_c, 0, 64, 100
1, 356265, Control_c, 0, 64, 103
1, 356280, Control_c, 0, 64, 106
1, 356295, Control_c, 0, 64, 109
1, 356310, Control_c, 0, 64, 115
1, 356325, Control_c, 0, 64, 127
1, 356795, Note_off_c, 0, 47, 42
1, 356898, Note_off_c, 0, 50, 46
1, 357109, Note_on_c, 0, 60, 50
1, 357134, Note_on_c, 0, 48, 37
1, 357134, Note_on_c, 0, 51, 45
1, 357140, Note_on_c, 0, 36, 37
1, 357163, Control_c, 0, 64, 101
1, 357178, Control_c, 0, 64, 85
1, 357193, Control_c, 0, 64, 72
1, 357208, Control_c, 0, 64, 61
1, 357223, Control_c, 0, 64, 0
1, 357325, Note_off_c, 0, 43, 40
1, 357326, Control_c, 0, 64, 45
1, 357340, Note_off_c, 0, 55, 55
1, 357341, Control_c, 0, 64, 64
1, 357356, Control_c, 0, 64, 68
1, 357370, Control_c, 0, 64, 71
1, 357386, Control_c, 0, 64, 75
1, 357401, Control_c, 0, 64, 79
1, 357416, Control_c, 0, 64, 82
1, 357431, Control_c, 0, 64, 86
1, 357446, Control_c, 0, 64, 91
1, 357468, Control_c, 0, 64, 94
1, 357483, Control_c, 0, 64, 96
1, 357498, Control_c, 0, 64, 99
1, 357507, Note_off_c, 0, 48, 41
1, 357513, Control_c, 0, 64, 103
1, 357527, Control_c, 0, 64, 106
1, 357542, Control_c, 0, 64, 109
1, 357557, Control_c, 0, 64, 110
1, 357587, Control_c, 0, 64, 110
1, 357822, Note_on_c, 0, 55, 46
1, 357832, Note_on_c, 0, 50, 40
1, 357840, Note_on_c, 0, 43, 36
1, 357846, Note_on_c, 0, 47, 35
1, 357853, Control_c, 0, 64, 109
1, 357868, Control_c, 0, 64, 108
1, 357883, Control_c, 0, 64, 106
1, 357897, Control_c, 0, 64, 103
1, 357912, Control_c, 0, 64, 100
1, 357927, Control_c, 0, 64, 93
1, 357942, Control_c, 0, 64, 86
1, 357957, Control_c, 0, 64, 78
1, 357972, Control_c, 0, 64, 71
1, 357986, Control_c, 0, 64, 64
1, 358001, Control_c, 0, 64, 50
1, 358016, Control_c, 0, 64, 0
1, 358027, Note_off_c, 0, 60, 50
1, 358032, Note_off_c, 0, 51, 57
1, 358076, Note_off_c, 0, 36, 42
1, 359054, Control_c, 0, 64, 53
1, 359069, Control_c, 0, 64, 63
1, 359084, Control_c, 0, 64, 64
1, 359099, Control_c, 0, 64, 65
1, 359113, Control_c, 0, 64, 67
1, 359128, Control_c, 0, 64, 69
1, 359143, Control_c, 0, 64, 72
1, 359158, Control_c, 0, 64, 75
1, 359172, Control_c, 0, 64, 78
1, 359187, Control_c, 0, 64, 81
1, 359202, Control_c, 0, 64, 84
1, 359217, Control_c, 0, 64, 87
1, 359232, Control_c, 0, 64, 90
1, 359246, Control_c, 0, 64, 93
1, 359261, Control_c, 0, 64, 96
1, 359276, Control_c, 0, 64, 98
1, 359290, Control_c, 0, 64, 101
1, 359305, Control_c, 0, 64, 104
1, 359320, Control_c, 0, 64, 106
1, 359335, Control_c, 0, 64, 109
1, 359350, Control_c, 0, 64, 112
1, 359364, Control_c, 0, 64, 116
1, 359379, Control_c, 0, 64, 122
1, 359394, Control_c, 0, 64, 127
1, 359441, Note_off_c, 0, 47, 38
1, 359860, Note_on_c, 0, 60, 34
1, 359883, Note_on_c, 0, 51, 32
1, 359888, Note_on_c, 0, 36, 27
1, 359899, Note_on_c, 0, 48, 24
1, 359907, Control_c, 0, 64, 118
1, 359921, Control_c, 0, 64, 101
1, 359935, Note_off_c, 0, 50, 30
1, 359936, Control_c, 0, 64, 89
1, 359951, Control_c, 0, 64, 77
1, 359966, Control_c, 0, 64, 66
1, 359981, Control_c, 0, 64, 44
1, 359995, Control_c, 0, 64, 0
1, 360011, Note_off_c, 0, 43, 39
1, 360083, Note_off_c, 0, 55, 31
1, 360099, Control_c, 0, 64, 19
1, 360113, Control_c, 0, 64, 57
1, 360128, Control_c, 0, 64, 65
1, 360143, Control_c, 0, 64, 70
1, 360158, Control_c, 0, 64, 75
1, 360173, Control_c, 0, 64, 81
1, 360187, Control_c, 0, 64, 87
1, 360202, Control_c, 0, 64, 94
1, 360215, Note_off_c, 0, 48, 40
1, 360217, Control_c, 0, 64, 99
1, 360232, Control_c, 0, 64, 104
1, 360247, Control_c, 0, 64, 110
1, 360261, Control_c, 0, 64, 119
1, 360276, Control_c, 0, 64, 127
1, 360544, Note_on_c, 0, 55, 37
1, 360553, Note_on_c, 0, 50, 32
1, 360561, Note_on_c, 0, 43, 30
1, 360567, Note_on_c, 0, 47, 29
1, 360595, Note_off_c, 0, 36, 35
1, 360596, Control_c, 0, 64, 108
1, 360611, Control_c, 0, 64, 90
1, 360625, Control_c, 0, 64, 76
1, 360640, Control_c, 0, 64, 65
1, 360655, Control_c, 0, 64, 40
1, 360658, Note_off_c, 0, 51, 45
1, 360667, Note_off_c, 0, 60, 42
1, 360670, Control_c, 0, 64, 0
1, 360744, Control_c, 0, 64, 40
1, 360759, Control_c, 0, 64, 60
1, 360774, Control_c, 0, 64, 66
1, 360789, Control_c, 0, 64, 69
1, 360804, Control_c, 0, 64, 73
1, 360818, Control_c, 0, 64, 77
1, 360833, Control_c, 0, 64, 82
1, 360848, Control_c, 0, 64, 86
1, 360862, Control_c, 0, 64, 90
1, 360872, Note_off_c, 0, 47, 42
1, 360877, Control_c, 0, 64, 94
1, 360892, Control_c, 0, 64, 97
1, 360907, Control_c, 0, 64, 99
1, 360922, Control_c, 0, 64, 102
1, 360936, Control_c, 0, 64, 104
1, 360951, Control_c, 0, 64, 106
1, 360966, Control_c, 0, 64, 107
1, 360981, Control_c, 0, 64, 107
1, 360996, Control_c, 0, 64, 108
1, 361010, Control_c, 0, 64, 108
1, 361129, Note_off_c, 0, 50, 43
1, 361185, Note_on_c, 0, 60, 35
1, 361202, Note_on_c, 0, 36, 32
1, 361203, Control_c, 0, 64, 106
1, 361212, Note_on_c, 0, 51, 29
1, 361216, Note_on_c, 0, 48, 31
1, 361225, Control_c, 0, 64, 103
1, 361240, Control_c, 0, 64, 98
1, 361255, Control_c, 0, 64, 89
1, 361269, Control_c, 0, 64, 80
1, 361284, Control_c, 0, 64, 71
1, 361286, Note_off_c, 0, 43, 38
1, 361299, Control_c, 0, 64, 63
1, 361314, Control_c, 0, 64, 46
1, 361317, Note_off_c, 0, 55, 37
1, 361329, Control_c, 0, 64, 0
1, 361388, Control_c, 0, 64, 35
1, 361403, Control_c, 0, 64, 55
1, 361418, Control_c, 0, 64, 63
1, 361433, Control_c, 0, 64, 67
1, 361448, Control_c, 0, 64, 71
1, 361463, Control_c, 0, 64, 74
1, 361477, Control_c, 0, 64, 77
1, 361492, Note_off_c, 0, 48, 40
1, 361492, Control_c, 0, 64, 80
1, 361507, Control_c, 0, 64, 83
1, 361522, Control_c, 0, 64, 87
1, 361537, Control_c, 0, 64, 90
1, 361552, Control_c, 0, 64, 93
1, 361566, Control_c, 0, 64, 96
1, 361581, Control_c, 0, 64, 98
1, 361596, Control_c, 0, 64, 101
1, 361611, Control_c, 0, 64, 103
1, 361623, Note_off_c, 0, 36, 29
1, 361626, Control_c, 0, 64, 104
1, 361640, Control_c, 0, 64, 105
1, 361655, Control_c, 0, 64, 106
1, 361862, Control_c, 0, 64, 105
1, 361877, Control_c, 0, 64, 103
1, 361878, Note_on_c, 0, 55, 36
1, 361889, Note_on_c, 0, 50, 28
1, 361889, Note_on_c, 0, 47, 28
1, 361892, Control_c, 0, 64, 101
1, 361893, Note_on_c, 0, 43, 32
1, 361907, Control_c, 0, 64, 97
1, 361922, Control_c, 0, 64, 89
1, 361937, Control_c, 0, 64, 79
1, 361958, Control_c, 0, 64, 68
1, 361973, Control_c, 0, 64, 49
1, 361974, Note_off_c, 0, 51, 45
1, 361988, Control_c, 0, 64, 0
1, 361994, Note_off_c, 0, 60, 40
1, 362062, Control_c, 0, 64, 27
1, 362077, Control_c, 0, 64, 57
1, 362092, Control_c, 0, 64, 64
1, 362106, Control_c, 0, 64, 68
1, 362121, Control_c, 0, 64, 71
1, 362136, Control_c, 0, 64, 74
1, 362151, Control_c, 0, 64, 77
1, 362166, Control_c, 0, 64, 81
1, 362181, Control_c, 0, 64, 85
1, 362196, Control_c, 0, 64, 89
1, 362207, Note_off_c, 0, 47, 39
1, 362211, Control_c, 0, 64, 91
1, 362226, Control_c, 0, 64, 92
1, 362241, Control_c, 0, 64, 94
1, 362256, Control_c, 0, 64, 95
1, 362270, Control_c, 0, 64, 96
1, 362285, Control_c, 0, 64, 98
1, 362300, Control_c, 0, 64, 98
1, 362315, Control_c, 0, 64, 99
1, 362345, Control_c, 0, 64, 99
1, 362389, Control_c, 0, 64, 100
1, 362405, Note_off_c, 0, 50, 44
1, 362413, Note_off_c, 0, 43, 35
1, 362419, Control_c, 0, 64, 100
1, 362626, Control_c, 0, 64, 100
1, 362639, Note_on_c, 0, 60, 38
1, 362641, Control_c, 0, 64, 99
1, 362647, Note_on_c, 0, 43, 17
1, 362655, Control_c, 0, 64, 98
1, 362658, Note_on_c, 0, 51, 35
1, 362660, Note_on_c, 0, 36, 30
1, 362661, Note_on_c, 0, 48, 30
1, 362670, Control_c, 0, 64, 96
1, 362685, Control_c, 0, 64, 92
1, 362707, Control_c, 0, 64, 87
1, 362722, Control_c, 0, 64, 79
1, 362737, Control_c, 0, 64, 70
1, 362752, Control_c, 0, 64, 61
1, 362767, Control_c, 0, 64, 0
1, 362886, Control_c, 0, 64, 14
1, 362901, Control_c, 0, 64, 56
1, 362915, Control_c, 0, 64, 64
1, 362930, Control_c, 0, 64, 68
1, 362945, Control_c, 0, 64, 72
1, 362960, Control_c, 0, 64, 76
1, 362975, Control_c, 0, 64, 80
1, 362976, Note_off_c, 0, 55, 37
1, 362991, Control_c, 0, 64, 83
1, 363005, Control_c, 0, 64, 86
1, 363019, Note_off_c, 0, 48, 31
1, 363020, Control_c, 0, 64, 90
1, 363035, Control_c, 0, 64, 94
1, 363050, Control_c, 0, 64, 98
1, 363063, Note_off_c, 0, 43, 26
1, 363065, Control_c, 0, 64, 100
1, 363079, Control_c, 0, 64, 101
1, 363094, Control_c, 0, 64, 102
1, 363109, Control_c, 0, 64, 103
1, 363124, Control_c, 0, 64, 105
1, 363138, Control_c, 0, 64, 107
1, 363153, Control_c, 0, 64, 109
1, 363168, Control_c, 0, 64, 110
1, 363183, Control_c, 0, 64, 110
1, 363198, Control_c, 0, 64, 111
1, 363201, Note_off_c, 0, 36, 31
1, 363212, Control_c, 0, 64, 111
1, 363223, Note_off_c, 0, 51, 45
1, 363715, Note_on_c, 0, 55, 42
1, 363738, Control_c, 0, 64, 109
1, 363746, Note_on_c, 0, 50, 36
1, 363753, Control_c, 0, 64, 107
1, 363758, Note_on_c, 0, 43, 34
1, 363768, Control_c, 0, 64, 102
1, 363779, Note_on_c, 0, 47, 30
1, 363784, Control_c, 0, 64, 93
1, 363799, Control_c, 0, 64, 82
1, 363814, Control_c, 0, 64, 69
1, 363828, Control_c, 0, 64, 55
1, 363843, Control_c, 0, 64, 0
1, 363906, Note_off_c, 0, 60, 42
1, 364561, Control_c, 0, 64, 30
1, 364577, Control_c, 0, 64, 42
1, 364592, Control_c, 0, 64, 48
1, 364607, Control_c, 0, 64, 52
1, 364622, Control_c, 0, 64, 55
1, 364637, Control_c, 0, 64, 58
1, 364651, Control_c, 0, 64, 60
1, 364666, Control_c, 0, 64, 62
1, 364681, Control_c, 0, 64, 63
1, 364696, Control_c, 0, 64, 64
1, 364710, Control_c, 0, 64, 65
1, 364725, Control_c, 0, 64, 65
1, 364740, Control_c, 0, 64, 66
1, 364755, Control_c, 0, 64, 67
1, 364770, Control_c, 0, 64, 67
1, 364784, Control_c, 0, 64, 68
1, 364799, Control_c, 0, 64, 68
1, 364814, Control_c, 0, 64, 69
1, 364829, Control_c, 0, 64, 70
1, 364844, Control_c, 0, 64, 71
1, 364858, Control_c, 0, 64, 71
1, 364873, Control_c, 0, 64, 72
1, 364888, Control_c, 0, 64, 73
1, 364903, Control_c, 0, 64, 74
1, 364917, Control_c, 0, 64, 75
1, 364932, Control_c, 0, 64, 76
1, 364947, Control_c, 0, 64, 77
1, 364970, Control_c, 0, 64, 78
1, 364984, Control_c, 0, 64, 79
1, 364999, Control_c, 0, 64, 80
1, 365014, Control_c, 0, 64, 81
1, 365029, Control_c, 0, 64, 82
1, 365043, Control_c, 0, 64, 83
1, 365058, Control_c, 0, 64, 85
1, 365073, Control_c, 0, 64, 86
1, 365087, Control_c, 0, 64, 87
1, 365102, Control_c, 0, 64, 89
1, 365117, Control_c, 0, 64, 90
1, 365132, Control_c, 0, 64, 92
1, 365147, Control_c, 0, 64, 94
1, 365162, Control_c, 0, 64, 96
1, 365177, Control_c, 0, 64, 97
1, 365191, Control_c, 0, 64, 98
1, 365206, Control_c, 0, 64, 99
1, 365221, Control_c, 0, 64, 100
1, 365235, Control_c, 0, 64, 101
1, 365250, Control_c, 0, 64, 102
1, 365265, Control_c, 0, 64, 103
1, 365280, Control_c, 0, 64, 104
1, 365295, Control_c, 0, 64, 106
1, 365309, Control_c, 0, 64, 108
1, 365324, Control_c, 0, 64, 110
1, 365339, Control_c, 0, 64, 112
1, 365354, Control_c, 0, 64, 114
1, 365369, Control_c, 0, 64, 117
1, 365385, Control_c, 0, 64, 121
1, 365399, Control_c, 0, 64, 127
1, 366026, Note_off_c, 0, 43, 29
1, 366156, Note_off_c, 0, 47, 34
1, 366587, Note_off_c, 0, 55, 25
1, 366643, Note_off_c, 0, 50, 36
1, 367406, Note_on_c, 0, 55, 27
1, 367408, Note_on_c, 0, 51, 29
1, 367410, Note_on_c, 0, 36, 27
1, 367411, Note_on_c, 0, 43, 24
1, 367412, Note_on_c, 0, 48, 22
1, 367512, Control_c, 0, 64, 104
1, 367527, Control_c, 0, 64, 86
1, 367542, Control_c, 0, 64, 75
1, 367557, Control_c, 0, 64, 66
1, 367571, Control_c, 0, 64, 60
1, 367586, Control_c, 0, 64, 53
1, 367601, Control_c, 0, 64, 49
1, 367616, Control_c, 0, 64, 40
1, 367630, Control_c, 0, 64, 0
1, 367928, Control_c, 0, 64, 11
1, 367943, Control_c, 0, 64, 26
1, 367965, Control_c, 0, 64, 33
1, 367980, Control_c, 0, 64, 38
1, 367995, Control_c, 0, 64, 42
1, 368009, Control_c, 0, 64, 46
1, 368024, Control_c, 0, 64, 49
1, 368039, Control_c, 0, 64, 51
1, 368053, Control_c, 0, 64, 54
1, 368068, Control_c, 0, 64, 56
1, 368083, Control_c, 0, 64, 59
1, 368098, Control_c, 0, 64, 61
1, 368113, Control_c, 0, 64, 62
1, 368128, Control_c, 0, 64, 63
1, 368143, Control_c, 0, 64, 63
1, 368158, Control_c, 0, 64, 64
1, 368173, Control_c, 0, 64, 65
1, 368187, Control_c, 0, 64, 65
1, 368202, Control_c, 0, 64, 66
1, 368217, Control_c, 0, 64, 67
1, 368232, Control_c, 0, 64, 68
1, 368246, Control_c, 0, 64, 68
1, 368261, Control_c, 0, 64, 69
1, 368276, Control_c, 0, 64, 70
1, 368291, Control_c, 0, 64, 71
1, 368306, Control_c, 0, 64, 71
1, 368320, Control_c, 0, 64, 72
1, 368335, Control_c, 0, 64, 72
1, 368350, Control_c, 0, 64, 73
1, 368365, Control_c, 0, 64, 74
1, 368380, Control_c, 0, 64, 75
1, 368394, Control_c, 0, 64, 75
1, 368409, Control_c, 0, 64, 76
1, 368424, Control_c, 0, 64, 77
1, 368439, Control_c, 0, 64, 78
1, 368453, Control_c, 0, 64, 79
1, 368468, Control_c, 0, 64, 80
1, 368483, Control_c, 0, 64, 81
1, 368498, Control_c, 0, 64, 83
1, 368513, Control_c, 0, 64, 84
1, 368527, Control_c, 0, 64, 85
1, 368542, Control_c, 0, 64, 86
1, 368557, Control_c, 0, 64, 88
1, 368573, Control_c, 0, 64, 89
1, 368588, Control_c, 0, 64, 90
1, 368603, Control_c, 0, 64, 91
1, 368617, Control_c, 0, 64, 92
1, 368632, Control_c, 0, 64, 92
1, 368647, Control_c, 0, 64, 93
1, 368662, Control_c, 0, 64, 94
1, 368676, Control_c, 0, 64, 95
1, 368691, Control_c, 0, 64, 96
1, 368714, Control_c, 0, 64, 97
1, 368729, Control_c, 0, 64, 97
1, 368744, Control_c, 0, 64, 98
1, 368758, Control_c, 0, 64, 99
1, 368773, Control_c, 0, 64, 100
1, 368788, Control_c, 0, 64, 100
1, 368818, Control_c, 0, 64, 101
1, 368832, Control_c, 0, 64, 101
1, 368847, Control_c, 0, 64, 102
1, 368862, Control_c, 0, 64, 103
1, 368876, Control_c, 0, 64, 103
1, 368906, Control_c, 0, 64, 104
1, 368921, Control_c, 0, 64, 104
1, 368936, Control_c, 0, 64, 105
1, 368951, Control_c, 0, 64, 106
1, 368966, Control_c, 0, 64, 107
1, 368980, Control_c, 0, 64, 108
1, 368995, Control_c, 0, 64, 108
1, 369010, Control_c, 0, 64, 109
1, 369025, Control_c, 0, 64, 110
1, 369040, Control_c, 0, 64, 111
1, 369055, Control_c, 0, 64, 112
1, 369070, Control_c, 0, 64, 113
1, 369084, Control_c, 0, 64, 114
1, 369099, Control_c, 0, 64, 116
1, 369114, Control_c, 0, 64, 117
1, 369129, Control_c, 0, 64, 118
1, 369144, Control_c, 0, 64, 119
1, 369158, Control_c, 0, 64, 122
1, 369173, Control_c, 0, 64, 124
1, 369188, Control_c, 0, 64, 127
1, 371003, Note_off_c, 0, 51, 40
1, 371195, Note_off_c, 0, 36, 40
1, 371195, Note_off_c, 0, 43, 41
1, 371420, Note_off_c, 0, 48, 42
1, 371440, Note_off_c, 0, 55, 38
1, 372033, Control_c, 0, 67, 125
1, 372048, Control_c, 0, 67, 121
1, 372055, Note_on_c, 0, 48, 94
1, 372057, Note_on_c, 0, 60, 101
1, 372058, Note_on_c, 0, 51, 98
1, 372058, Note_on_c, 0, 84, 98
1, 372060, Note_on_c, 0, 55, 95
1, 372060, Note_on_c, 0, 72, 106
1, 372060, Note_on_c, 0, 75, 97
1, 372062, Note_on_c, 0, 79, 94
1, 372063, Control_c, 0, 67, 118
1, 372078, Control_c, 0, 67, 112
1, 372087, Note_off_c, 0, 60, 69
1, 372089, Note_off_c, 0, 84, 68
1, 372090, Note_off_c, 0, 48, 64
1, 372091, Note_off_c, 0, 55, 70
1, 372091, Note_off_c, 0, 72, 70
1, 372092, Control_c, 0, 67, 102
1, 372093, Note_off_c, 0, 79, 69
1, 372097, Note_off_c, 0, 75, 68
1, 372099, Note_off_c, 0, 51, 69
1, 372107, Control_c, 0, 67, 88
1, 372122, Control_c, 0, 67, 72
1, 372137, Control_c, 0, 67, 62
1, 372152, Control_c, 0, 67, 58
1, 372167, Control_c, 0, 67, 57
1, 372226, Control_c, 0, 67, 57
1, 372241, Control_c, 0, 67, 58
1, 372256, Control_c, 0, 67, 58
1, 372271, Control_c, 0, 67, 59
1, 372285, Control_c, 0, 67, 60
1, 372300, Control_c, 0, 67, 61
1, 372315, Control_c, 0, 67, 63
1, 372330, Control_c, 0, 67, 65
1, 372345, Control_c, 0, 67, 66
1, 372360, Control_c, 0, 67, 67
1, 372374, Control_c, 0, 67, 68
1, 372389, Control_c, 0, 67, 70
1, 372404, Control_c, 0, 67, 72
1, 372406, Note_on_c, 0, 48, 107
1, 372407, Note_on_c, 0, 60, 100
1, 372410, Note_on_c, 0, 36, 94
1, 372418, Control_c, 0, 67, 74
1, 372432, Note_off_c, 0, 36, 68
1, 372432, Note_off_c, 0, 48, 68
1, 372433, Note_on_c, 0, 38, 59
1, 372434, Note_off_c, 0, 38, 127
1, 372434, Control_c, 0, 67, 75
1, 372449, Note_off_c, 0, 60, 72
1, 372456, Control_c, 0, 67, 75
1, 372471, Control_c, 0, 64, 103
1, 372471, Control_c, 0, 67, 75
1, 372471, Poly_aftertouch_c, 0, 38, 0
1, 372486, Control_c, 0, 64, 70
1, 372500, Control_c, 0, 64, 0
1, 372500, Control_c, 0, 67, 74
1, 372515, Control_c, 0, 67, 74
1, 372545, Control_c, 0, 67, 75
1, 372560, Control_c, 0, 67, 75
1, 372605, Control_c, 0, 67, 74
1, 372620, Control_c, 0, 67, 73
1, 372635, Control_c, 0, 67, 73
1, 372650, Control_c, 0, 67, 72
1, 372695, Control_c, 0, 67, 73
1, 372710, Control_c, 0, 67, 74
1, 372724, Control_c, 0, 67, 74
1, 372739, Control_c, 0, 67, 75
1, 372754, Control_c, 0, 67, 76
1, 372769, Control_c, 0, 67, 77
1, 372784, Control_c, 0, 67, 77
1, 372813, Control_c, 0, 67, 78
1, 372828, Control_c, 0, 67, 78
1, 372990, Control_c, 0, 67, 79
1, 373414, Control_c, 0, 67, 78
1, 373502, Control_c, 0, 67, 78
1, 373621, Control_c, 0, 67, 77
1, 373798, Control_c, 0, 67, 77
1, 373984, Control_c, 0, 67, 76
1, 374058, Control_c, 0, 67, 76
1, 374192, Control_c, 0, 64, 23
1, 374207, Control_c, 0, 64, 32
1, 374222, Control_c, 0, 64, 38
1, 374222, Control_c, 0, 67, 75
1, 374236, Control_c, 0, 64, 44
1, 374236, Control_c, 0, 67, 75
1, 374251, Control_c, 0, 64, 47
1, 374266, Control_c, 0, 64, 51
1, 374281, Control_c, 0, 64, 54
1, 374295, Control_c, 0, 64, 57
1, 374295, Control_c, 0, 67, 74
1, 374310, Control_c, 0, 64, 60
1, 374325, Control_c, 0, 64, 62
1, 374340, Control_c, 0, 64, 64
1, 374355, Control_c, 0, 64, 66
1, 374370, Control_c, 0, 64, 69
1, 374370, Control_c, 0, 67, 75
1, 374385, Control_c, 0, 64, 71
1, 374400, Control_c, 0, 64, 75
1, 374414, Control_c, 0, 64, 80
1, 374414, Control_c, 0, 67, 75
1, 374429, Control_c, 0, 64, 86
1, 374444, Control_c, 0, 64, 95
1, 374459, Control_c, 0, 64, 122
1, 374459, Control_c, 0, 67, 76
1, 374474, Control_c, 0, 64, 127
1, 374474, Control_c, 0, 67, 78
1, 374480, Note_on_c, 0, 36, 83
1, 374484, Note_on_c, 0, 48, 92
1, 374484, Note_on_c, 0, 60, 94
1, 374484, Note_on_c, 0, 39, 88
1, 374484, Note_on_c, 0, 43, 94
1, 374488, Control_c, 0, 67, 81
1, 374489, Note_on_c, 0, 51, 91
1, 374490, Note_on_c, 0, 55, 88
1, 374503, Control_c, 0, 67, 91
1, 374518, Control_c, 0, 67, 105
1, 374527, Note_off_c, 0, 36, 63
1, 374527, Note_off_c, 0, 48, 64
1, 374531, Note_off_c, 0, 43, 65
1, 374533, Control_c, 0, 67, 123
1, 374542, Note_off_c, 0, 51, 66
1, 374543, Note_off_c, 0, 39, 63
1, 374548, Note_off_c, 0, 60, 67
1, 374548, Control_c, 0, 67, 127
1, 374549, Note_off_c, 0, 55, 66
1, 374607, Control_c, 0, 64, 97
1, 374607, Control_c, 0, 67, 127
1, 374621, Control_c, 0, 64, 70
1, 374621, Control_c, 0, 67, 126
1, 374636, Control_c, 0, 64, 0
1, 374636, Control_c, 0, 67, 125
1, 374651, Control_c, 0, 67, 124
1, 374681, Control_c, 0, 67, 123
1, 374703, Control_c, 0, 67, 122
1, 374718, Control_c, 0, 67, 120
1, 374763, Control_c, 0, 67, 121
1, 374777, Control_c, 0, 67, 122
1, 374792, Control_c, 0, 67, 122
1, 374807, Control_c, 0, 67, 123
1, 374821, Control_c, 0, 67, 124
1, 374836, Control_c, 0, 67, 125
1, 374851, Control_c, 0, 67, 126
1, 374866, Control_c, 0, 67, 127
1, 374881, Control_c, 0, 67, 127
1, 374985, Control_c, 0, 67, 127
1, 375000, Control_c, 0, 67, 126
1, 375104, Control_c, 0, 67, 126
1, 377573, Control_c, 0, 64, 11
1, 377617, Control_c, 0, 64, 14
1, 377661, Control_c, 0, 64, 17
1, 377699, Control_c, 0, 64, 19
1, 377743, Control_c, 0, 64, 21
1, 377773, Control_c, 0, 64, 23
1, 377802, Control_c, 0, 64, 24
1, 377817, Control_c, 0, 67, 126
1, 377846, Control_c, 0, 64, 26
1, 377876, Control_c, 0, 64, 27
1, 377891, Control_c, 0, 64, 28
1, 377905, Control_c, 0, 64, 29
1, 377920, Control_c, 0, 64, 30
1, 377935, Control_c, 0, 64, 31
1, 377950, Control_c, 0, 64, 32
1, 377965, Control_c, 0, 64, 33
1, 377980, Control_c, 0, 64, 34
1, 377995, Control_c, 0, 64, 35
1, 378010, Control_c, 0, 64, 36
1, 378024, Control_c, 0, 64, 37
1, 378039, Control_c, 0, 64, 38
1, 378054, Control_c, 0, 64, 40
1, 378069, Control_c, 0, 64, 42
1, 378084, Control_c, 0, 64, 43
1, 378099, Control_c, 0, 64, 43
1, 378113, Control_c, 0, 64, 44
1, 378143, Control_c, 0, 64, 44
1, 378159, Control_c, 0, 64, 45
1, 378188, Control_c, 0, 64, 45
1, 378203, Control_c, 0, 64, 46
1, 378233, Control_c, 0, 64, 46
1, 378262, Control_c, 0, 64, 47
1, 378307, Control_c, 0, 64, 47
1, 378322, Control_c, 0, 64, 48
1, 378336, Control_c, 0, 64, 48
1, 378366, Control_c, 0, 64, 49
1, 378477, Control_c, 0, 64, 49
1, 378522, Control_c, 0, 64, 50
1, 378551, Control_c, 0, 67, 126
1, 378595, Control_c, 0, 64, 50
1, 378669, Control_c, 0, 64, 51
1, 378802, Control_c, 0, 67, 126
1, 378892, Control_c, 0, 67, 127
1, 378922, Control_c, 0, 64, 51
1, 378951, Control_c, 0, 64, 52
1, 378981, Control_c, 0, 64, 52
1, 378996, Control_c, 0, 67, 127
1, 379011, Control_c, 0, 64, 53
1, 379145, Control_c, 0, 64, 53
1, 379174, Control_c, 0, 64, 54
1, 379196, Control_c, 0, 64, 54
1, 379196, Control_c, 0, 67, 127
1, 379211, Control_c, 0, 64, 55
1, 379211, Control_c, 0, 67, 126
1, 379226, Control_c, 0, 64, 56
1, 379226, Control_c, 0, 67, 125
1, 379241, Control_c, 0, 64, 56
1, 379241, Control_c, 0, 67, 125
1, 379256, Control_c, 0, 64, 57
1, 379256, Control_c, 0, 67, 123
1, 379270, Control_c, 0, 67, 122
1, 379285, Control_c, 0, 64, 57
1, 379285, Control_c, 0, 67, 122
1, 379300, Control_c, 0, 67, 121
1, 379315, Control_c, 0, 67, 119
1, 379330, Control_c, 0, 67, 118
1, 379345, Control_c, 0, 67, 117
1, 379360, Control_c, 0, 64, 58
1, 379360, Control_c, 0, 67, 114
1, 379375, Control_c, 0, 67, 109
1, 379390, Control_c, 0, 64, 58
1, 379390, Control_c, 0, 67, 104
1, 379405, Control_c, 0, 67, 99
1, 379419, Control_c, 0, 67, 96
1, 379434, Control_c, 0, 67, 94
1, 379449, Control_c, 0, 67, 91
1, 379464, Control_c, 0, 67, 88
1, 379478, Control_c, 0, 67, 85
1, 379493, Control_c, 0, 67, 82
1, 379508, Control_c, 0, 67, 77
1, 379523, Control_c, 0, 67, 72
1, 379538, Control_c, 0, 64, 58
1, 379538, Control_c, 0, 67, 66
1, 379552, Control_c, 0, 64, 57
1, 379552, Control_c, 0, 67, 60
1, 379567, Control_c, 0, 67, 54
1, 379582, Control_c, 0, 64, 57
1, 379582, Control_c, 0, 67, 50
1, 379597, Control_c, 0, 67, 44
1, 379611, Control_c, 0, 64, 56
1, 379611, Control_c, 0, 67, 38
1, 379626, Control_c, 0, 67, 29
1, 379641, Control_c, 0, 67, 15
1, 379656, Control_c, 0, 67, 0
1, 379731, End_track
0, 0, End_of_file
