0, 0, Header, 0, 1, 384
1, 0, Start_track
1, 0, Title_t, "Sonata Cm,Op.29--Soukhovetski   "
1, 0, Text_t, "2009 International Piano-e-Competition finals"
1, 0, Text_t, "captured June-July 2009"
1, 0, Text_t, "http://www.piano-e-competition.com/"
1, 0, Text_t, "standard-resolution version"
1, 0, Text_t, "File processed for distribution by software from Zenph Studios, Inc., http://www.zenph.com"
1, 0, Instrument_name_t, "Yamaha Disklavier Pro Mark IV concert grand piano, model DCFIIISM4PRO"
1, 0, Sequencer_specific, 39, 67, 113, 0, 1, 0, 1, 0, 83, 111, 110, 97, 116, 97, 32, 35, 52, 32, 44, 79, 112, 46, 50, 57, 75, 83, 111, 117, 107, 104, 111, 118, 101, 116, 115, 107, 105, 32, 32, 32
1, 0, Sequencer_specific, 6, 67, 113, 0, 0, 0, 69
1, 0, System_exclusive, 21, 67, 113, 126, 21, 0, 2, 2, 2, 3, 12, 8, 4, 10, 4, 14, 9, 4, 11, 4, 4, 247
1, 0, Sequencer_specific, 5, 67, 123, 12, 2, 1
1, 0, Tempo, 512820
1, 0, Time_signature, 4, 2, 24, 8
1, 0, System_exclusive, 5, 126, 127, 9, 1, 247
1, 1, System_exclusive, 8, 67, 16, 76, 0, 0, 126, 0, 247
1, 2, System_exclusive, 8, 67, 16, 76, 8, 9, 7, 1, 247
1, 3, Control_c, 0, 0, 0
1, 3, Control_c, 1, 0, 0
1, 3, Control_c, 2, 0, 0
1, 3, Control_c, 3, 0, 0
1, 3, Control_c, 4, 0, 0
1, 3, Control_c, 5, 0, 0
1, 3, Control_c, 6, 0, 0
1, 3, Control_c, 7, 0, 0
1, 3, Control_c, 8, 0, 0
1, 3, Control_c, 9, 0, 127
1, 3, Control_c, 10, 0, 0
1, 3, Control_c, 11, 0, 0
1, 3, Control_c, 12, 0, 0
1, 3, Control_c, 13, 0, 0
1, 3, Control_c, 14, 0, 0
1, 3, Control_c, 15, 0, 0
1, 4, Control_c, 0, 32, 0
1, 4, Control_c, 1, 32, 0
1, 4, Control_c, 2, 32, 0
1, 4, Control_c, 3, 32, 0
1, 4, Control_c, 4, 32, 0
1, 4, Control_c, 5, 32, 0
1, 4, Control_c, 6, 32, 0
1, 4, Control_c, 7, 32, 0
1, 4, Control_c, 8, 32, 0
1, 4, Control_c, 9, 32, 0
1, 4, Control_c, 10, 32, 0
1, 4, Control_c, 11, 32, 0
1, 4, Control_c, 12, 32, 0
1, 4, Control_c, 13, 32, 0
1, 4, Control_c, 14, 32, 0
1, 4, Control_c, 15, 32, 0
1, 5, Program_c, 0, 0
1, 5, Program_c, 1, 0
1, 5, Program_c, 2, 0
1, 5, Program_c, 3, 0
1, 5, Program_c, 4, 0
1, 5, Program_c, 5, 0
1, 5, Program_c, 6, 0
1, 5, Program_c, 7, 0
1, 5, Program_c, 8, 0
1, 5, Program_c, 9, 0
1, 5, Program_c, 10, 0
1, 5, Program_c, 11, 0
1, 5, Program_c, 12, 0
1, 5, Program_c, 13, 0
1, 5, Program_c, 14, 0
1, 5, Program_c, 15, 0
1, 6, Control_c, 0, 7, 100
1, 6, Control_c, 1, 7, 100
1, 6, Control_c, 2, 7, 100
1, 6, Control_c, 3, 7, 100
1, 6, Control_c, 4, 7, 100
1, 6, Control_c, 5, 7, 100
1, 6, Control_c, 6, 7, 100
1, 6, Control_c, 7, 7, 100
1, 6, Control_c, 8, 7, 100
1, 6, Control_c, 9, 7, 100
1, 6, Control_c, 10, 7, 100
1, 6, Control_c, 11, 7, 100
1, 6, Control_c, 12, 7, 100
1, 6, Control_c, 13, 7, 100
1, 6, Control_c, 14, 7, 100
1, 6, Control_c, 15, 7, 100
1, 117, Control_c, 0, 67, 15
1, 229, Control_c, 0, 67, 31
1, 341, Control_c, 0, 67, 46
1, 452, Control_c, 0, 67, 63
1, 564, Control_c, 0, 67, 77
1, 676, Control_c, 0, 67, 94
1, 787, Control_c, 0, 67, 108
1, 899, Control_c, 0, 67, 127
1, 1132, Note_on_c, 0, 42, 57
1, 1185, Note_off_c, 0, 42, 61
1, 1208, Note_on_c, 0, 31, 39
1, 1216, Note_on_c, 0, 43, 55
1, 1257, Note_off_c, 0, 43, 63
1, 1276, Note_on_c, 0, 42, 69
1, 1324, Note_off_c, 0, 42, 58
1, 1352, Note_on_c, 0, 43, 65
1, 1453, Note_off_c, 0, 43, 57
1, 1474, Note_on_c, 0, 36, 61
1, 1600, Note_off_c, 0, 36, 60
1, 1673, Note_on_c, 0, 36, 43
1, 1690, Note_on_c, 0, 24, 41
1, 1785, Note_off_c, 0, 31, 49
1, 1875, Note_on_c, 0, 54, 70
1, 1951, Control_c, 0, 64, 28
1, 1966, Control_c, 0, 64, 59
1, 1980, Control_c, 0, 64, 64
1, 1984, Note_off_c, 0, 24, 55
1, 1995, Control_c, 0, 64, 67
1, 2010, Control_c, 0, 64, 70
1, 2025, Control_c, 0, 64, 74
1, 2039, Note_on_c, 0, 55, 74
1, 2040, Control_c, 0, 64, 77
1, 2054, Control_c, 0, 64, 81
1, 2062, Note_off_c, 0, 54, 63
1, 2069, Control_c, 0, 64, 85
1, 2075, Note_off_c, 0, 36, 59
1, 2084, Control_c, 0, 64, 90
1, 2099, Control_c, 0, 64, 96
1, 2121, Control_c, 0, 64, 101
1, 2136, Control_c, 0, 64, 106
1, 2151, Control_c, 0, 64, 112
1, 2166, Control_c, 0, 64, 116
1, 2181, Control_c, 0, 64, 118
1, 2225, Control_c, 0, 64, 117
1, 2240, Control_c, 0, 64, 110
1, 2255, Control_c, 0, 64, 96
1, 2269, Control_c, 0, 64, 80
1, 2276, Note_on_c, 0, 60, 68
1, 2281, Note_on_c, 0, 43, 48
1, 2284, Control_c, 0, 64, 64
1, 2285, Note_on_c, 0, 36, 47
1, 2295, Note_on_c, 0, 51, 61
1, 2298, Note_off_c, 0, 55, 62
1, 2299, Control_c, 0, 64, 0
1, 2402, Control_c, 0, 64, 33
1, 2417, Control_c, 0, 64, 66
1, 2432, Note_off_c, 0, 36, 60
1, 2432, Control_c, 0, 64, 76
1, 2436, Note_off_c, 0, 43, 63
1, 2447, Note_off_c, 0, 51, 63
1, 2447, Control_c, 0, 64, 88
1, 2462, Control_c, 0, 64, 108
1, 2477, Control_c, 0, 64, 127
1, 2687, Note_on_c, 0, 58, 73
1, 2703, Note_on_c, 0, 51, 48
1, 2706, Note_on_c, 0, 55, 58
1, 2708, Note_off_c, 0, 60, 23
1, 2711, Note_on_c, 0, 39, 54
1, 2729, Control_c, 0, 64, 93
1, 2744, Control_c, 0, 64, 75
1, 2759, Control_c, 0, 64, 61
1, 2774, Control_c, 0, 64, 0
1, 3114, Note_on_c, 0, 60, 70
1, 3166, Control_c, 0, 64, 55
1, 3181, Control_c, 0, 64, 66
1, 3190, Note_off_c, 0, 51, 63
1, 3195, Note_off_c, 0, 58, 62
1, 3196, Control_c, 0, 64, 73
1, 3210, Control_c, 0, 64, 82
1, 3225, Control_c, 0, 64, 92
1, 3237, Note_off_c, 0, 55, 61
1, 3240, Control_c, 0, 64, 102
1, 3241, Note_off_c, 0, 39, 60
1, 3255, Control_c, 0, 64, 111
1, 3270, Control_c, 0, 64, 119
1, 3285, Control_c, 0, 64, 124
1, 3344, Control_c, 0, 64, 120
1, 3359, Control_c, 0, 64, 109
1, 3374, Control_c, 0, 64, 96
1, 3389, Control_c, 0, 64, 81
1, 3404, Control_c, 0, 64, 67
1, 3419, Control_c, 0, 64, 0
1, 3456, Note_on_c, 0, 62, 66
1, 3457, Note_on_c, 0, 38, 59
1, 3458, Note_on_c, 0, 45, 57
1, 3459, Note_off_c, 0, 60, 63
1, 3468, Note_on_c, 0, 54, 45
1, 3517, Note_off_c, 0, 45, 61
1, 3533, Note_off_c, 0, 38, 62
1, 3535, Note_on_c, 0, 44, 68
1, 3606, Note_off_c, 0, 44, 62
1, 3622, Note_off_c, 0, 54, 38
1, 3632, Note_on_c, 0, 45, 64
1, 3635, Note_off_c, 0, 62, 61
1, 3641, Note_on_c, 0, 63, 67
1, 3681, Note_on_c, 0, 38, 29
1, 3681, Note_off_c, 0, 45, 57
1, 3716, Note_on_c, 0, 44, 69
1, 3718, Note_off_c, 0, 38, 56
1, 3828, Note_off_c, 0, 44, 37
1, 3834, Note_on_c, 0, 62, 64
1, 3835, Note_on_c, 0, 38, 58
1, 3837, Note_on_c, 0, 45, 65
1, 3839, Note_off_c, 0, 63, 57
1, 3854, Note_on_c, 0, 54, 56
1, 3856, Control_c, 0, 64, 53
1, 3871, Control_c, 0, 64, 67
1, 3878, Note_off_c, 0, 45, 65
1, 3882, Note_off_c, 0, 38, 63
1, 3886, Control_c, 0, 64, 77
1, 3893, Note_off_c, 0, 54, 66
1, 3901, Control_c, 0, 64, 89
1, 3914, Note_off_c, 0, 62, 62
1, 3915, Control_c, 0, 64, 111
1, 3930, Control_c, 0, 64, 127
1, 4033, Control_c, 0, 64, 109
1, 4048, Control_c, 0, 64, 85
1, 4063, Control_c, 0, 64, 68
1, 4078, Control_c, 0, 64, 11
1, 4092, Control_c, 0, 64, 0
1, 4197, Control_c, 0, 64, 64
1, 4212, Control_c, 0, 64, 72
1, 4227, Note_on_c, 0, 74, 79
1, 4227, Control_c, 0, 64, 80
1, 4235, Note_on_c, 0, 55, 58
1, 4238, Note_on_c, 0, 60, 57
1, 4241, Note_on_c, 0, 65, 64
1, 4242, Control_c, 0, 64, 92
1, 4256, Control_c, 0, 64, 104
1, 4264, Note_off_c, 0, 55, 66
1, 4267, Note_off_c, 0, 60, 66
1, 4268, Note_off_c, 0, 65, 68
1, 4271, Control_c, 0, 64, 120
1, 4276, Note_off_c, 0, 74, 64
1, 4286, Control_c, 0, 64, 127
1, 4412, Control_c, 0, 67, 127
1, 4427, Control_c, 0, 67, 125
1, 4442, Control_c, 0, 67, 123
1, 4456, Control_c, 0, 67, 122
1, 4471, Control_c, 0, 67, 120
1, 4486, Control_c, 0, 67, 117
1, 4501, Control_c, 0, 67, 114
1, 4516, Control_c, 0, 67, 110
1, 4531, Control_c, 0, 67, 106
1, 4546, Control_c, 0, 67, 102
1, 4560, Control_c, 0, 67, 98
1, 4564, Note_on_c, 0, 42, 62
1, 4575, Control_c, 0, 64, 109
1, 4575, Control_c, 0, 67, 95
1, 4590, Control_c, 0, 64, 90
1, 4590, Control_c, 0, 67, 94
1, 4591, Note_on_c, 0, 63, 85
1, 4602, Note_on_c, 0, 58, 72
1, 4605, Control_c, 0, 64, 75
1, 4605, Control_c, 0, 67, 93
1, 4609, Note_on_c, 0, 53, 66
1, 4614, Note_on_c, 0, 43, 63
1, 4619, Note_off_c, 0, 42, 57
1, 4620, Control_c, 0, 64, 62
1, 4620, Control_c, 0, 67, 91
1, 4635, Control_c, 0, 64, 0
1, 4635, Control_c, 0, 67, 89
1, 4650, Control_c, 0, 67, 88
1, 4738, Control_c, 0, 67, 89
1, 4753, Control_c, 0, 67, 90
1, 4768, Control_c, 0, 67, 90
1, 4782, Control_c, 0, 67, 91
1, 4797, Control_c, 0, 64, 11
1, 4797, Control_c, 0, 67, 91
1, 4812, Control_c, 0, 64, 55
1, 4812, Control_c, 0, 67, 92
1, 4827, Control_c, 0, 64, 64
1, 4827, Control_c, 0, 67, 93
1, 4828, Note_on_c, 0, 56, 61
1, 4842, Control_c, 0, 64, 68
1, 4842, Control_c, 0, 67, 93
1, 4854, Note_off_c, 0, 53, 56
1, 4856, Control_c, 0, 64, 72
1, 4856, Control_c, 0, 67, 94
1, 4871, Control_c, 0, 64, 78
1, 4871, Control_c, 0, 67, 94
1, 4886, Control_c, 0, 64, 85
1, 4886, Control_c, 0, 67, 95
1, 4900, Control_c, 0, 64, 92
1, 4900, Control_c, 0, 67, 96
1, 4915, Control_c, 0, 64, 100
1, 4930, Control_c, 0, 64, 107
1, 4930, Control_c, 0, 67, 97
1, 4945, Control_c, 0, 64, 112
1, 4945, Control_c, 0, 67, 97
1, 4947, Note_off_c, 0, 56, 61
1, 4960, Control_c, 0, 64, 113
1, 4960, Control_c, 0, 67, 98
1, 4976, Control_c, 0, 64, 114
1, 4976, Control_c, 0, 67, 98
1, 4991, Control_c, 0, 67, 99
1, 5005, Control_c, 0, 67, 99
1, 5020, Control_c, 0, 64, 113
1, 5020, Control_c, 0, 67, 100
1, 5050, Control_c, 0, 67, 100
1, 5065, Control_c, 0, 64, 109
1, 5079, Control_c, 0, 64, 98
1, 5079, Control_c, 0, 67, 101
1, 5081, Note_on_c, 0, 60, 62
1, 5091, Note_on_c, 0, 36, 49
1, 5092, Note_on_c, 0, 55, 50
1, 5102, Control_c, 0, 64, 84
1, 5102, Control_c, 0, 67, 101
1, 5109, Note_on_c, 0, 51, 54
1, 5117, Control_c, 0, 64, 69
1, 5117, Control_c, 0, 67, 103
1, 5124, Note_off_c, 0, 43, 54
1, 5131, Control_c, 0, 64, 0
1, 5131, Control_c, 0, 67, 104
1, 5144, Note_off_c, 0, 58, 39
1, 5146, Control_c, 0, 67, 104
1, 5161, Control_c, 0, 67, 105
1, 5176, Control_c, 0, 67, 105
1, 5205, Note_off_c, 0, 63, 55
1, 5205, Control_c, 0, 67, 106
1, 5235, Control_c, 0, 67, 106
1, 5265, Control_c, 0, 64, 36
1, 5279, Control_c, 0, 64, 64
1, 5294, Control_c, 0, 64, 71
1, 5309, Control_c, 0, 64, 79
1, 5324, Control_c, 0, 64, 88
1, 5326, Note_off_c, 0, 55, 61
1, 5338, Control_c, 0, 64, 95
1, 5352, Note_off_c, 0, 51, 56
1, 5353, Control_c, 0, 64, 100
1, 5368, Control_c, 0, 64, 103
1, 5368, Control_c, 0, 67, 107
1, 5383, Control_c, 0, 64, 105
1, 5383, Control_c, 0, 67, 107
1, 5392, Note_off_c, 0, 36, 40
1, 5398, Control_c, 0, 64, 105
1, 5398, Control_c, 0, 67, 108
1, 5413, Control_c, 0, 67, 112
1, 5428, Control_c, 0, 67, 115
1, 5443, Control_c, 0, 67, 117
1, 5458, Control_c, 0, 64, 105
1, 5458, Control_c, 0, 67, 118
1, 5473, Control_c, 0, 67, 119
1, 5487, Control_c, 0, 64, 103
1, 5487, Control_c, 0, 67, 120
1, 5502, Control_c, 0, 64, 98
1, 5502, Control_c, 0, 67, 120
1, 5517, Control_c, 0, 64, 90
1, 5517, Control_c, 0, 67, 121
1, 5530, Note_on_c, 0, 54, 61
1, 5531, Control_c, 0, 64, 76
1, 5531, Control_c, 0, 67, 122
1, 5538, Note_on_c, 0, 36, 40
1, 5544, Note_on_c, 0, 51, 40
1, 5546, Control_c, 0, 64, 64
1, 5546, Control_c, 0, 67, 123
1, 5550, Note_on_c, 0, 42, 38
1, 5561, Control_c, 0, 64, 0
1, 5561, Control_c, 0, 67, 124
1, 5571, Note_off_c, 0, 60, 33
1, 5576, Control_c, 0, 67, 124
1, 5591, Control_c, 0, 67, 125
1, 5725, Note_on_c, 0, 55, 59
1, 5732, Note_off_c, 0, 42, 46
1, 5733, Note_off_c, 0, 54, 61
1, 5735, Note_on_c, 0, 43, 45
1, 5784, Control_c, 0, 67, 125
1, 5814, Control_c, 0, 67, 126
1, 5828, Control_c, 0, 67, 126
1, 5843, Control_c, 0, 67, 127
1, 5923, Note_off_c, 0, 55, 63
1, 5927, Note_on_c, 0, 60, 48
1, 5938, Note_off_c, 0, 43, 52
1, 5938, Note_on_c, 0, 44, 51
1, 5999, Control_c, 0, 64, 54
1, 6014, Control_c, 0, 64, 64
1, 6028, Control_c, 0, 64, 69
1, 6043, Control_c, 0, 64, 74
1, 6058, Control_c, 0, 64, 79
1, 6063, Note_off_c, 0, 51, 58
1, 6073, Control_c, 0, 64, 83
1, 6088, Control_c, 0, 64, 87
1, 6091, Note_off_c, 0, 44, 61
1, 6102, Control_c, 0, 64, 90
1, 6111, Note_on_c, 0, 43, 49
1, 6117, Control_c, 0, 64, 93
1, 6132, Control_c, 0, 64, 94
1, 6146, Control_c, 0, 64, 95
1, 6159, Note_off_c, 0, 43, 57
1, 6161, Control_c, 0, 64, 96
1, 6221, Control_c, 0, 64, 96
1, 6325, Control_c, 0, 64, 96
1, 6334, Note_on_c, 0, 58, 58
1, 6340, Control_c, 0, 64, 91
1, 6343, Note_on_c, 0, 43, 43
1, 6354, Control_c, 0, 64, 82
1, 6358, Note_on_c, 0, 39, 47
1, 6359, Note_on_c, 0, 55, 43
1, 6369, Control_c, 0, 64, 69
1, 6384, Control_c, 0, 64, 0
1, 6397, Note_off_c, 0, 60, 63
1, 6429, Note_off_c, 0, 36, 54
1, 6743, Note_on_c, 0, 60, 53
1, 6755, Note_on_c, 0, 44, 47
1, 6758, Note_off_c, 0, 43, 49
1, 6814, Note_off_c, 0, 58, 59
1, 6822, Note_off_c, 0, 55, 56
1, 6851, Control_c, 0, 64, 28
1, 6866, Control_c, 0, 64, 64
1, 6881, Control_c, 0, 64, 70
1, 6896, Control_c, 0, 64, 77
1, 6910, Control_c, 0, 64, 85
1, 6925, Control_c, 0, 64, 92
1, 6940, Control_c, 0, 64, 98
1, 6948, Note_off_c, 0, 44, 61
1, 6955, Control_c, 0, 64, 101
1, 6987, Note_off_c, 0, 39, 39
1, 7044, Control_c, 0, 64, 99
1, 7058, Control_c, 0, 64, 90
1, 7073, Control_c, 0, 64, 76
1, 7088, Control_c, 0, 64, 61
1, 7091, Note_off_c, 0, 60, 64
1, 7095, Note_on_c, 0, 45, 51
1, 7096, Note_on_c, 0, 62, 59
1, 7099, Note_on_c, 0, 38, 44
1, 7103, Control_c, 0, 64, 0
1, 7104, Note_on_c, 0, 54, 42
1, 7156, Note_off_c, 0, 45, 62
1, 7169, Note_off_c, 0, 38, 57
1, 7170, Note_on_c, 0, 44, 65
1, 7236, Note_off_c, 0, 44, 60
1, 7264, Note_off_c, 0, 54, 53
1, 7267, Note_on_c, 0, 45, 55
1, 7276, Note_off_c, 0, 62, 61
1, 7280, Note_on_c, 0, 63, 62
1, 7286, Note_on_c, 0, 38, 33
1, 7339, Note_off_c, 0, 45, 61
1, 7351, Note_off_c, 0, 38, 59
1, 7360, Note_on_c, 0, 44, 66
1, 7449, Note_off_c, 0, 44, 53
1, 7476, Note_on_c, 0, 62, 57
1, 7476, Note_on_c, 0, 38, 55
1, 7476, Note_off_c, 0, 63, 55
1, 7477, Note_on_c, 0, 45, 55
1, 7496, Note_on_c, 0, 54, 60
1, 7497, Control_c, 0, 64, 30
1, 7512, Control_c, 0, 64, 64
1, 7523, Note_off_c, 0, 38, 63
1, 7525, Note_off_c, 0, 45, 64
1, 7526, Control_c, 0, 64, 72
1, 7541, Control_c, 0, 64, 83
1, 7546, Note_off_c, 0, 54, 63
1, 7556, Control_c, 0, 64, 98
1, 7571, Control_c, 0, 64, 117
1, 7573, Note_off_c, 0, 62, 61
1, 7586, Control_c, 0, 64, 127
1, 7660, Control_c, 0, 64, 114
1, 7674, Control_c, 0, 64, 91
1, 7689, Control_c, 0, 64, 73
1, 7704, Control_c, 0, 64, 47
1, 7719, Control_c, 0, 64, 0
1, 7807, Control_c, 0, 67, 125
1, 7822, Control_c, 0, 64, 60
1, 7822, Control_c, 0, 67, 123
1, 7837, Control_c, 0, 64, 69
1, 7837, Control_c, 0, 67, 120
1, 7852, Control_c, 0, 64, 77
1, 7852, Control_c, 0, 67, 116
1, 7867, Control_c, 0, 64, 85
1, 7867, Control_c, 0, 67, 112
1, 7871, Note_on_c, 0, 74, 77
1, 7878, Note_on_c, 0, 55, 62
1, 7880, Note_on_c, 0, 60, 56
1, 7881, Note_on_c, 0, 65, 70
1, 7881, Control_c, 0, 64, 95
1, 7881, Control_c, 0, 67, 107
1, 7896, Control_c, 0, 64, 104
1, 7896, Control_c, 0, 67, 101
1, 7905, Note_off_c, 0, 74, 62
1, 7905, Note_off_c, 0, 55, 65
1, 7906, Note_off_c, 0, 65, 69
1, 7909, Note_off_c, 0, 60, 66
1, 7911, Control_c, 0, 64, 114
1, 7911, Control_c, 0, 67, 96
1, 7926, Control_c, 0, 64, 127
1, 7926, Control_c, 0, 67, 92
1, 7941, Control_c, 0, 67, 88
1, 7956, Control_c, 0, 67, 85
1, 7971, Control_c, 0, 67, 83
1, 7986, Control_c, 0, 67, 81
1, 8000, Control_c, 0, 67, 80
1, 8015, Control_c, 0, 67, 79
1, 8030, Control_c, 0, 67, 78
1, 8141, Control_c, 0, 67, 78
1, 8186, Control_c, 0, 67, 77
1, 8201, Control_c, 0, 67, 77
1, 8216, Control_c, 0, 64, 91
1, 8216, Control_c, 0, 67, 76
1, 8231, Control_c, 0, 64, 69
1, 8231, Control_c, 0, 67, 75
1, 8233, Note_on_c, 0, 58, 79
1, 8245, Note_on_c, 0, 67, 66
1, 8246, Control_c, 0, 64, 0
1, 8246, Control_c, 0, 67, 74
1, 8251, Note_on_c, 0, 43, 55
1, 8254, Note_on_c, 0, 63, 62
1, 8256, Note_on_c, 0, 53, 53
1, 8261, Control_c, 0, 67, 73
1, 8276, Control_c, 0, 67, 72
1, 8291, Control_c, 0, 67, 71
1, 8305, Control_c, 0, 67, 70
1, 8320, Control_c, 0, 64, 60
1, 8320, Control_c, 0, 67, 68
1, 8328, Note_off_c, 0, 53, 64
1, 8335, Control_c, 0, 64, 71
1, 8335, Control_c, 0, 67, 66
1, 8349, Control_c, 0, 64, 81
1, 8349, Control_c, 0, 67, 64
1, 8364, Control_c, 0, 64, 95
1, 8364, Control_c, 0, 67, 60
1, 8371, Note_off_c, 0, 43, 63
1, 8379, Control_c, 0, 64, 111
1, 8379, Control_c, 0, 67, 56
1, 8394, Control_c, 0, 64, 127
1, 8394, Control_c, 0, 67, 49
1, 8409, Control_c, 0, 67, 41
1, 8424, Control_c, 0, 67, 33
1, 8429, Note_on_c, 0, 59, 84
1, 8439, Control_c, 0, 67, 24
1, 8454, Control_c, 0, 67, 13
1, 8465, Note_off_c, 0, 58, 62
1, 8468, Control_c, 0, 67, 0
1, 8473, Note_off_c, 0, 63, 59
1, 8480, Note_off_c, 0, 67, 60
1, 8493, Note_on_c, 0, 51, 64
1, 8561, Note_on_c, 0, 43, 65
1, 8571, Note_off_c, 0, 51, 64
1, 8572, Control_c, 0, 64, 94
1, 8587, Control_c, 0, 64, 71
1, 8602, Control_c, 0, 64, 0
1, 8659, Note_on_c, 0, 36, 80
1, 8663, Note_off_c, 0, 43, 64
1, 8665, Note_on_c, 0, 60, 86
1, 8672, Note_on_c, 0, 67, 86
1, 8675, Note_on_c, 0, 63, 86
1, 8695, Note_off_c, 0, 59, 62
1, 8735, Control_c, 0, 64, 50
1, 8740, Note_off_c, 0, 36, 62
1, 8749, Control_c, 0, 64, 66
1, 8764, Control_c, 0, 64, 76
1, 8779, Control_c, 0, 64, 88
1, 8794, Control_c, 0, 64, 112
1, 8796, Note_off_c, 0, 60, 63
1, 8809, Control_c, 0, 64, 127
1, 8826, Note_off_c, 0, 63, 62
1, 8859, Note_off_c, 0, 67, 64
1, 9119, Note_on_c, 0, 51, 63
1, 9119, Note_on_c, 0, 55, 56
1, 9125, Note_on_c, 0, 60, 60
1, 9131, Note_on_c, 0, 67, 82
1, 9158, Control_c, 0, 64, 106
1, 9172, Control_c, 0, 64, 81
1, 9187, Control_c, 0, 64, 63
1, 9202, Control_c, 0, 64, 0
1, 9205, Note_on_c, 0, 68, 83
1, 9220, Note_off_c, 0, 67, 58
1, 9280, Note_on_c, 0, 71, 85
1, 9300, Note_off_c, 0, 68, 62
1, 9352, Note_on_c, 0, 72, 83
1, 9369, Note_off_c, 0, 71, 66
1, 9410, Note_off_c, 0, 72, 65
1, 9451, Note_on_c, 0, 77, 99
1, 9469, Control_c, 0, 64, 49
1, 9484, Control_c, 0, 64, 67
1, 9496, Note_off_c, 0, 77, 67
1, 9499, Control_c, 0, 64, 75
1, 9513, Control_c, 0, 64, 85
1, 9528, Control_c, 0, 64, 100
1, 9543, Control_c, 0, 64, 117
1, 9558, Control_c, 0, 64, 127
1, 9640, Control_c, 0, 67, 8
1, 9646, Note_off_c, 0, 55, 60
1, 9654, Control_c, 0, 67, 12
1, 9669, Control_c, 0, 67, 17
1, 9670, Note_off_c, 0, 51, 58
1, 9672, Note_off_c, 0, 60, 41
1, 9684, Control_c, 0, 67, 22
1, 9698, Control_c, 0, 67, 25
1, 9713, Control_c, 0, 67, 28
1, 9727, Control_c, 0, 67, 29
1, 9742, Control_c, 0, 67, 29
1, 9773, Control_c, 0, 67, 30
1, 9802, Control_c, 0, 67, 30
1, 9832, Control_c, 0, 67, 31
1, 9847, Control_c, 0, 67, 32
1, 9862, Control_c, 0, 67, 34
1, 9876, Control_c, 0, 67, 35
1, 9891, Control_c, 0, 67, 36
1, 9906, Control_c, 0, 67, 36
1, 9919, Note_on_c, 0, 75, 78
1, 9950, Control_c, 0, 67, 37
1, 9959, Note_on_c, 0, 54, 40
1, 9959, Note_on_c, 0, 60, 42
1, 9959, Note_on_c, 0, 68, 38
1, 9964, Note_on_c, 0, 50, 43
1, 9980, Control_c, 0, 67, 37
1, 9995, Control_c, 0, 64, 100
1, 9995, Control_c, 0, 67, 38
1, 10010, Control_c, 0, 64, 81
1, 10024, Control_c, 0, 64, 68
1, 10024, Control_c, 0, 67, 39
1, 10039, Control_c, 0, 64, 35
1, 10039, Control_c, 0, 67, 39
1, 10054, Control_c, 0, 64, 0
1, 10114, Control_c, 0, 67, 40
1, 10128, Control_c, 0, 67, 40
1, 10133, Note_on_c, 0, 77, 68
1, 10139, Note_off_c, 0, 75, 62
1, 10143, Control_c, 0, 67, 41
1, 10158, Control_c, 0, 67, 42
1, 10173, Control_c, 0, 67, 43
1, 10188, Control_c, 0, 67, 43
1, 10261, Control_c, 0, 67, 44
1, 10306, Control_c, 0, 67, 44
1, 10320, Control_c, 0, 64, 36
1, 10320, Control_c, 0, 67, 45
1, 10335, Note_on_c, 0, 75, 67
1, 10335, Control_c, 0, 64, 65
1, 10335, Control_c, 0, 67, 46
1, 10358, Control_c, 0, 64, 75
1, 10358, Control_c, 0, 67, 48
1, 10367, Note_off_c, 0, 77, 56
1, 10373, Control_c, 0, 64, 89
1, 10373, Control_c, 0, 67, 50
1, 10386, Note_off_c, 0, 60, 63
1, 10388, Control_c, 0, 64, 127
1, 10388, Control_c, 0, 67, 51
1, 10395, Note_off_c, 0, 54, 64
1, 10402, Control_c, 0, 67, 52
1, 10409, Note_off_c, 0, 50, 63
1, 10413, Note_off_c, 0, 68, 60
1, 10417, Control_c, 0, 67, 54
1, 10432, Control_c, 0, 67, 55
1, 10445, Note_off_c, 0, 75, 62
1, 10446, Control_c, 0, 67, 57
1, 10461, Control_c, 0, 67, 58
1, 10475, Control_c, 0, 67, 58
1, 10564, Control_c, 0, 67, 58
1, 10580, Control_c, 0, 67, 57
1, 10595, Control_c, 0, 67, 56
1, 10610, Control_c, 0, 67, 56
1, 10624, Control_c, 0, 67, 55
1, 10639, Control_c, 0, 64, 104
1, 10639, Control_c, 0, 67, 54
1, 10654, Control_c, 0, 64, 79
1, 10654, Control_c, 0, 67, 53
1, 10669, Control_c, 0, 64, 48
1, 10669, Control_c, 0, 67, 53
1, 10684, Control_c, 0, 64, 0
1, 10684, Control_c, 0, 67, 52
1, 10687, Note_on_c, 0, 43, 60
1, 10703, Note_on_c, 0, 74, 77
1, 10706, Note_on_c, 0, 60, 64
1, 10713, Control_c, 0, 67, 52
1, 10719, Note_on_c, 0, 68, 58
1, 10728, Control_c, 0, 67, 52
1, 10743, Control_c, 0, 64, 56
1, 10743, Control_c, 0, 67, 53
1, 10758, Control_c, 0, 64, 66
1, 10758, Control_c, 0, 67, 55
1, 10773, Note_on_c, 0, 49, 70
1, 10773, Control_c, 0, 64, 73
1, 10773, Control_c, 0, 67, 57
1, 10784, Note_off_c, 0, 43, 61
1, 10788, Control_c, 0, 64, 81
1, 10788, Control_c, 0, 67, 59
1, 10802, Control_c, 0, 64, 91
1, 10802, Control_c, 0, 67, 61
1, 10817, Note_off_c, 0, 74, 62
1, 10817, Control_c, 0, 64, 100
1, 10817, Control_c, 0, 67, 66
1, 10832, Control_c, 0, 64, 103
1, 10832, Control_c, 0, 67, 72
1, 10835, Note_off_c, 0, 68, 62
1, 10847, Control_c, 0, 67, 76
1, 10850, Note_on_c, 0, 50, 73
1, 10856, Note_off_c, 0, 49, 62
1, 10861, Control_c, 0, 67, 81
1, 10876, Control_c, 0, 67, 90
1, 10891, Control_c, 0, 67, 100
1, 10906, Note_off_c, 0, 50, 66
1, 10906, Control_c, 0, 64, 100
1, 10906, Control_c, 0, 67, 111
1, 10921, Control_c, 0, 64, 94
1, 10921, Control_c, 0, 67, 122
1, 10936, Control_c, 0, 64, 87
1, 10936, Control_c, 0, 67, 127
1, 10937, Note_on_c, 0, 53, 69
1, 10950, Control_c, 0, 64, 82
1, 10965, Control_c, 0, 64, 79
1, 10980, Control_c, 0, 64, 76
1, 10995, Control_c, 0, 64, 73
1, 11010, Control_c, 0, 64, 71
1, 11024, Control_c, 0, 64, 68
1, 11039, Control_c, 0, 64, 66
1, 11054, Control_c, 0, 64, 66
1, 11068, Control_c, 0, 64, 65
1, 11073, Note_on_c, 0, 67, 61
1, 11082, Note_on_c, 0, 59, 46
1, 11083, Control_c, 0, 64, 62
1, 11094, Note_on_c, 0, 48, 53
1, 11095, Note_off_c, 0, 53, 57
1, 11098, Note_on_c, 0, 63, 51
1, 11106, Control_c, 0, 64, 43
1, 11121, Control_c, 0, 64, 0
1, 11179, Note_off_c, 0, 60, 48
1, 11240, Control_c, 0, 64, 64
1, 11255, Control_c, 0, 64, 75
1, 11256, Note_off_c, 0, 48, 64
1, 11269, Control_c, 0, 64, 85
1, 11276, Note_off_c, 0, 67, 59
1, 11284, Control_c, 0, 64, 99
1, 11299, Control_c, 0, 64, 111
1, 11314, Note_off_c, 0, 63, 61
1, 11314, Control_c, 0, 64, 127
1, 11492, Control_c, 0, 64, 113
1, 11496, Note_on_c, 0, 60, 56
1, 11505, Note_on_c, 0, 48, 49
1, 11507, Control_c, 0, 64, 97
1, 11518, Note_on_c, 0, 39, 41
1, 11522, Control_c, 0, 64, 78
1, 11537, Control_c, 0, 64, 64
1, 11552, Control_c, 0, 64, 0
1, 11577, Note_off_c, 0, 59, 54
1, 11691, Note_on_c, 0, 54, 54
1, 11754, Note_off_c, 0, 60, 59
1, 11911, Note_on_c, 0, 55, 58
1, 11981, Note_off_c, 0, 54, 63
1, 12033, Control_c, 0, 64, 56
1, 12047, Control_c, 0, 64, 67
1, 12062, Control_c, 0, 64, 73
1, 12075, Note_off_c, 0, 48, 60
1, 12077, Control_c, 0, 64, 80
1, 12091, Control_c, 0, 64, 88
1, 12102, Note_off_c, 0, 39, 53
1, 12106, Control_c, 0, 64, 93
1, 12121, Control_c, 0, 64, 97
1, 12136, Control_c, 0, 64, 100
1, 12211, Control_c, 0, 64, 99
1, 12226, Control_c, 0, 64, 96
1, 12241, Control_c, 0, 64, 90
1, 12256, Control_c, 0, 64, 82
1, 12270, Control_c, 0, 64, 71
1, 12285, Note_on_c, 0, 38, 45
1, 12285, Control_c, 0, 64, 55
1, 12300, Control_c, 0, 64, 0
1, 12305, Note_on_c, 0, 58, 49
1, 12312, Note_on_c, 0, 48, 8
1, 12318, Note_on_c, 0, 54, 48
1, 12362, Note_off_c, 0, 38, 58
1, 12368, Note_off_c, 0, 55, 51
1, 12376, Note_on_c, 0, 39, 48
1, 12444, Note_off_c, 0, 39, 58
1, 12480, Note_on_c, 0, 38, 49
1, 12481, Note_off_c, 0, 58, 57
1, 12487, Note_on_c, 0, 60, 51
1, 12550, Note_off_c, 0, 38, 60
1, 12571, Note_on_c, 0, 39, 49
1, 12665, Note_off_c, 0, 39, 56
1, 12683, Note_off_c, 0, 60, 57
1, 12695, Note_on_c, 0, 38, 43
1, 12701, Note_on_c, 0, 58, 55
1, 12752, Control_c, 0, 64, 40
1, 12767, Control_c, 0, 64, 64
1, 12782, Control_c, 0, 64, 69
1, 12793, Note_off_c, 0, 54, 62
1, 12796, Control_c, 0, 64, 74
1, 12811, Control_c, 0, 64, 80
1, 12821, Note_off_c, 0, 58, 62
1, 12826, Control_c, 0, 64, 86
1, 12840, Control_c, 0, 64, 92
1, 12844, Note_off_c, 0, 48, 41
1, 12847, Note_off_c, 0, 38, 38
1, 12855, Control_c, 0, 64, 100
1, 12870, Control_c, 0, 64, 106
1, 12885, Control_c, 0, 64, 110
1, 12900, Control_c, 0, 64, 112
1, 12914, Control_c, 0, 64, 113
1, 13019, Control_c, 0, 64, 111
1, 13034, Control_c, 0, 64, 102
1, 13049, Control_c, 0, 64, 83
1, 13063, Control_c, 0, 64, 67
1, 13078, Control_c, 0, 64, 0
1, 13095, Note_on_c, 0, 63, 50
1, 13103, Note_on_c, 0, 43, 36
1, 13109, Note_on_c, 0, 48, 33
1, 13120, Note_on_c, 0, 53, 40
1, 13122, Note_on_c, 0, 57, 33
1, 13152, Control_c, 0, 64, 30
1, 13167, Control_c, 0, 64, 64
1, 13170, Note_off_c, 0, 43, 61
1, 13182, Control_c, 0, 64, 71
1, 13190, Note_off_c, 0, 48, 60
1, 13197, Control_c, 0, 64, 77
1, 13211, Control_c, 0, 64, 83
1, 13226, Control_c, 0, 64, 89
1, 13241, Control_c, 0, 64, 94
1, 13256, Control_c, 0, 64, 98
1, 13271, Control_c, 0, 64, 100
1, 13273, Note_off_c, 0, 53, 36
1, 13282, Note_on_c, 0, 65, 58
1, 13286, Control_c, 0, 64, 101
1, 13288, Note_off_c, 0, 63, 48
1, 13300, Control_c, 0, 64, 102
1, 13397, Control_c, 0, 64, 98
1, 13412, Control_c, 0, 64, 89
1, 13426, Control_c, 0, 64, 74
1, 13441, Control_c, 0, 64, 61
1, 13456, Control_c, 0, 64, 0
1, 13468, Note_off_c, 0, 65, 54
1, 13488, Note_off_c, 0, 57, 32
1, 13491, Note_on_c, 0, 63, 56
1, 13507, Note_on_c, 0, 55, 55
1, 13560, Control_c, 0, 64, 47
1, 13575, Control_c, 0, 64, 66
1, 13581, Note_off_c, 0, 55, 61
1, 13588, Note_on_c, 0, 60, 57
1, 13590, Control_c, 0, 64, 71
1, 13605, Control_c, 0, 64, 76
1, 13614, Note_off_c, 0, 63, 61
1, 13619, Control_c, 0, 64, 80
1, 13634, Control_c, 0, 64, 83
1, 13649, Control_c, 0, 64, 85
1, 13663, Control_c, 0, 64, 86
1, 13671, Note_off_c, 0, 60, 62
1, 13684, Note_on_c, 0, 62, 52
1, 13766, Note_on_c, 0, 68, 60
1, 13778, Note_off_c, 0, 62, 55
1, 13798, Control_c, 0, 64, 86
1, 13813, Control_c, 0, 64, 85
1, 13818, Note_off_c, 0, 68, 55
1, 13828, Control_c, 0, 64, 84
1, 13842, Control_c, 0, 64, 83
1, 13857, Control_c, 0, 64, 81
1, 13872, Control_c, 0, 64, 79
1, 13886, Control_c, 0, 64, 76
1, 13901, Control_c, 0, 64, 71
1, 13916, Control_c, 0, 64, 65
1, 13918, Note_on_c, 0, 75, 49
1, 13931, Control_c, 0, 64, 43
1, 13939, Note_on_c, 0, 65, 35
1, 13946, Control_c, 0, 64, 0
1, 14049, Control_c, 0, 64, 45
1, 14064, Control_c, 0, 64, 67
1, 14079, Control_c, 0, 64, 76
1, 14096, Note_off_c, 0, 75, 62
1, 14101, Control_c, 0, 64, 90
1, 14116, Control_c, 0, 64, 104
1, 14131, Control_c, 0, 64, 127
1, 14140, Note_off_c, 0, 65, 63
1, 14448, Note_on_c, 0, 59, 50
1, 14463, Note_on_c, 0, 51, 43
1, 14466, Note_on_c, 0, 43, 37
1, 14472, Control_c, 0, 64, 99
1, 14486, Control_c, 0, 64, 83
1, 14501, Control_c, 0, 64, 70
1, 14516, Control_c, 0, 64, 54
1, 14531, Control_c, 0, 64, 0
1, 14576, Control_c, 0, 64, 45
1, 14591, Control_c, 0, 64, 61
1, 14606, Control_c, 0, 64, 66
1, 14621, Control_c, 0, 64, 72
1, 14636, Control_c, 0, 64, 77
1, 14651, Control_c, 0, 64, 83
1, 14665, Control_c, 0, 64, 88
1, 14680, Control_c, 0, 64, 91
1, 14695, Control_c, 0, 64, 95
1, 14709, Control_c, 0, 64, 97
1, 14724, Control_c, 0, 64, 100
1, 14739, Control_c, 0, 64, 102
1, 14754, Control_c, 0, 64, 103
1, 14769, Control_c, 0, 64, 104
1, 14783, Control_c, 0, 64, 104
1, 14813, Control_c, 0, 64, 105
1, 14851, Control_c, 0, 64, 105
1, 14889, Note_on_c, 0, 50, 49
1, 14913, Note_on_c, 0, 42, 40
1, 14948, Note_off_c, 0, 43, 40
1, 14948, Note_off_c, 0, 59, 37
1, 14954, Note_off_c, 0, 51, 39
1, 15088, Control_c, 0, 64, 104
1, 15103, Control_c, 0, 64, 99
1, 15117, Control_c, 0, 64, 88
1, 15132, Control_c, 0, 64, 72
1, 15134, Note_on_c, 0, 32, 55
1, 15136, Note_off_c, 0, 42, 50
1, 15147, Control_c, 0, 64, 43
1, 15162, Control_c, 0, 64, 0
1, 15169, Note_on_c, 0, 60, 56
1, 15186, Note_on_c, 0, 51, 47
1, 15235, Control_c, 0, 64, 23
1, 15242, Note_on_c, 0, 39, 60
1, 15246, Note_off_c, 0, 50, 63
1, 15247, Note_off_c, 0, 32, 62
1, 15250, Control_c, 0, 64, 64
1, 15265, Control_c, 0, 64, 73
1, 15277, Note_off_c, 0, 51, 63
1, 15280, Control_c, 0, 64, 83
1, 15295, Control_c, 0, 64, 95
1, 15310, Control_c, 0, 64, 102
1, 15319, Note_on_c, 0, 44, 74
1, 15323, Note_off_c, 0, 39, 60
1, 15324, Control_c, 0, 64, 105
1, 15339, Control_c, 0, 64, 106
1, 15373, Note_off_c, 0, 44, 62
1, 15384, Note_on_c, 0, 48, 74
1, 15429, Control_c, 0, 64, 103
1, 15444, Control_c, 0, 64, 96
1, 15459, Control_c, 0, 64, 83
1, 15474, Control_c, 0, 64, 69
1, 15479, Note_on_c, 0, 50, 74
1, 15483, Note_off_c, 0, 48, 56
1, 15488, Note_on_c, 0, 55, 78
1, 15488, Control_c, 0, 64, 26
1, 15503, Control_c, 0, 64, 0
1, 15560, Note_off_c, 0, 60, 62
1, 15569, Note_on_c, 0, 56, 83
1, 15600, Control_c, 0, 67, 127
1, 15607, Note_off_c, 0, 55, 63
1, 15614, Control_c, 0, 67, 120
1, 15629, Control_c, 0, 67, 113
1, 15644, Control_c, 0, 67, 109
1, 15659, Note_on_c, 0, 59, 83
1, 15670, Note_off_c, 0, 56, 65
1, 15734, Note_on_c, 0, 60, 80
1, 15748, Note_off_c, 0, 59, 63
1, 15762, Control_c, 0, 67, 109
1, 15807, Control_c, 0, 67, 108
1, 15810, Note_off_c, 0, 60, 61
1, 15841, Note_on_c, 0, 65, 89
1, 15851, Control_c, 0, 67, 107
1, 15865, Control_c, 0, 67, 107
1, 15880, Control_c, 0, 67, 105
1, 15895, Control_c, 0, 64, 40
1, 15895, Control_c, 0, 67, 103
1, 15910, Control_c, 0, 64, 62
1, 15910, Control_c, 0, 67, 102
1, 15925, Control_c, 0, 64, 67
1, 15925, Control_c, 0, 67, 101
1, 15939, Control_c, 0, 64, 71
1, 15939, Control_c, 0, 67, 100
1, 15954, Control_c, 0, 64, 76
1, 15969, Control_c, 0, 64, 80
1, 15984, Control_c, 0, 64, 84
1, 15999, Control_c, 0, 64, 89
1, 15999, Control_c, 0, 67, 101
1, 16013, Control_c, 0, 64, 92
1, 16013, Control_c, 0, 67, 102
1, 16028, Control_c, 0, 64, 95
1, 16028, Control_c, 0, 67, 102
1, 16043, Control_c, 0, 64, 97
1, 16043, Control_c, 0, 67, 103
1, 16058, Control_c, 0, 64, 98
1, 16058, Control_c, 0, 67, 103
1, 16073, Control_c, 0, 64, 99
1, 16073, Control_c, 0, 67, 104
1, 16088, Control_c, 0, 64, 99
1, 16103, Control_c, 0, 64, 100
1, 16103, Control_c, 0, 67, 105
1, 16117, Control_c, 0, 64, 100
1, 16117, Control_c, 0, 67, 105
1, 16132, Control_c, 0, 64, 101
1, 16147, Control_c, 0, 64, 101
1, 16151, Note_off_c, 0, 50, 60
1, 16158, Note_on_c, 0, 38, 53
1, 16162, Control_c, 0, 67, 106
1, 16215, Note_on_c, 0, 46, 50
1, 16266, Control_c, 0, 67, 106
1, 16296, Control_c, 0, 64, 101
1, 16307, Note_on_c, 0, 63, 80
1, 16311, Control_c, 0, 64, 99
1, 16320, Note_on_c, 0, 56, 60
1, 16326, Control_c, 0, 64, 98
1, 16326, Control_c, 0, 67, 107
1, 16348, Control_c, 0, 64, 95
1, 16362, Control_c, 0, 64, 91
1, 16362, Control_c, 0, 67, 107
1, 16368, Note_off_c, 0, 65, 61
1, 16377, Control_c, 0, 64, 83
1, 16392, Control_c, 0, 64, 74
1, 16407, Control_c, 0, 64, 65
1, 16422, Control_c, 0, 64, 14
1, 16422, Control_c, 0, 67, 108
1, 16436, Control_c, 0, 64, 0
1, 16436, Control_c, 0, 67, 108
1, 16466, Control_c, 0, 67, 109
1, 16511, Control_c, 0, 67, 109
1, 16523, Note_on_c, 0, 65, 73
1, 16541, Control_c, 0, 67, 110
1, 16570, Control_c, 0, 67, 110
1, 16581, Note_off_c, 0, 63, 57
1, 16600, Control_c, 0, 64, 45
1, 16615, Control_c, 0, 64, 66
1, 16616, Note_on_c, 0, 54, 46
1, 16630, Control_c, 0, 64, 73
1, 16644, Control_c, 0, 64, 80
1, 16659, Control_c, 0, 64, 89
1, 16674, Control_c, 0, 64, 96
1, 16688, Control_c, 0, 64, 102
1, 16703, Control_c, 0, 64, 107
1, 16703, Control_c, 0, 67, 110
1, 16718, Control_c, 0, 64, 112
1, 16719, Note_off_c, 0, 54, 62
1, 16733, Control_c, 0, 64, 116
1, 16748, Control_c, 0, 64, 120
1, 16748, Control_c, 0, 67, 110
1, 16754, Note_on_c, 0, 63, 75
1, 16762, Control_c, 0, 64, 124
1, 16777, Control_c, 0, 64, 127
1, 16779, Note_off_c, 0, 46, 55
1, 16784, Note_off_c, 0, 65, 57
1, 16845, Note_off_c, 0, 56, 59
1, 16859, Note_off_c, 0, 38, 41
1, 16871, Note_off_c, 0, 63, 63
1, 16925, Control_c, 0, 67, 110
1, 16956, Control_c, 0, 67, 109
1, 16985, Control_c, 0, 67, 109
1, 17097, Control_c, 0, 64, 116
1, 17099, Note_on_c, 0, 62, 68
1, 17103, Note_on_c, 0, 31, 62
1, 17111, Control_c, 0, 64, 88
1, 17111, Control_c, 0, 67, 109
1, 17114, Note_on_c, 0, 48, 49
1, 17118, Note_on_c, 0, 56, 52
1, 17126, Control_c, 0, 64, 70
1, 17126, Control_c, 0, 67, 110
1, 17141, Control_c, 0, 64, 0
1, 17156, Control_c, 0, 67, 110
1, 17171, Control_c, 0, 67, 111
1, 17185, Control_c, 0, 64, 60
1, 17185, Control_c, 0, 67, 111
1, 17195, Note_on_c, 0, 37, 57
1, 17200, Control_c, 0, 64, 67
1, 17200, Control_c, 0, 67, 112
1, 17206, Note_off_c, 0, 31, 58
1, 17215, Control_c, 0, 64, 72
1, 17215, Control_c, 0, 67, 113
1, 17230, Control_c, 0, 64, 78
1, 17230, Control_c, 0, 67, 113
1, 17244, Control_c, 0, 64, 83
1, 17244, Control_c, 0, 67, 114
1, 17259, Control_c, 0, 64, 86
1, 17259, Control_c, 0, 67, 115
1, 17262, Note_off_c, 0, 62, 58
1, 17274, Control_c, 0, 64, 89
1, 17274, Control_c, 0, 67, 116
1, 17277, Note_on_c, 0, 38, 61
1, 17289, Control_c, 0, 64, 92
1, 17289, Control_c, 0, 67, 117
1, 17298, Note_off_c, 0, 56, 64
1, 17304, Control_c, 0, 64, 93
1, 17304, Control_c, 0, 67, 118
1, 17319, Control_c, 0, 64, 95
1, 17319, Control_c, 0, 67, 120
1, 17319, Note_off_c, 0, 37, 36
1, 17334, Control_c, 0, 67, 121
1, 17349, Control_c, 0, 64, 95
1, 17349, Control_c, 0, 67, 122
1, 17357, Note_off_c, 0, 38, 59
1, 17363, Control_c, 0, 67, 123
1, 17366, Note_on_c, 0, 41, 58
1, 17408, Control_c, 0, 67, 123
1, 17437, Control_c, 0, 67, 124
1, 17452, Control_c, 0, 67, 124
1, 17467, Control_c, 0, 67, 125
1, 17482, Control_c, 0, 67, 126
1, 17497, Control_c, 0, 64, 95
1, 17497, Control_c, 0, 67, 126
1, 17505, Note_on_c, 0, 55, 59
1, 17511, Control_c, 0, 64, 93
1, 17511, Control_c, 0, 67, 127
1, 17521, Note_off_c, 0, 41, 48
1, 17526, Control_c, 0, 64, 89
1, 17537, Note_on_c, 0, 51, 52
1, 17539, Note_on_c, 0, 36, 44
1, 17541, Control_c, 0, 64, 80
1, 17542, Note_on_c, 0, 47, 51
1, 17556, Control_c, 0, 64, 68
1, 17571, Control_c, 0, 64, 21
1, 17585, Control_c, 0, 64, 0
1, 17632, Note_off_c, 0, 48, 45
1, 17689, Control_c, 0, 64, 63
1, 17703, Control_c, 0, 64, 72
1, 17718, Control_c, 0, 64, 80
1, 17733, Control_c, 0, 64, 89
1, 17741, Note_off_c, 0, 55, 61
1, 17748, Control_c, 0, 64, 95
1, 17764, Control_c, 0, 64, 99
1, 17779, Control_c, 0, 64, 101
1, 17783, Note_off_c, 0, 51, 63
1, 17794, Control_c, 0, 64, 102
1, 17900, Note_off_c, 0, 36, 39
1, 17920, Control_c, 0, 64, 101
1, 17930, Note_on_c, 0, 48, 63
1, 17934, Control_c, 0, 64, 98
1, 17949, Control_c, 0, 64, 93
1, 17965, Control_c, 0, 64, 86
1, 17980, Control_c, 0, 64, 78
1, 17995, Control_c, 0, 64, 68
1, 18004, Note_off_c, 0, 47, 39
1, 18009, Control_c, 0, 64, 56
1, 18024, Control_c, 0, 64, 0
1, 18131, Note_on_c, 0, 42, 57
1, 18204, Note_off_c, 0, 48, 58
1, 18358, Note_on_c, 0, 43, 54
1, 18380, Note_on_c, 0, 27, 44
1, 18488, Note_off_c, 0, 42, 59
1, 18732, Note_off_c, 0, 43, 43
1, 18745, Note_on_c, 0, 46, 56
1, 18770, Note_on_c, 0, 26, 44
1, 18788, Note_on_c, 0, 42, 33
1, 18821, Note_off_c, 0, 27, 46
1, 18946, Note_off_c, 0, 46, 57
1, 18952, Note_on_c, 0, 48, 53
1, 19161, Note_off_c, 0, 48, 56
1, 19167, Note_on_c, 0, 46, 47
1, 19321, Control_c, 0, 64, 58
1, 19343, Control_c, 0, 64, 66
1, 19359, Control_c, 0, 64, 70
1, 19373, Note_off_c, 0, 42, 54
1, 19374, Control_c, 0, 64, 74
1, 19388, Control_c, 0, 64, 79
1, 19393, Note_off_c, 0, 46, 61
1, 19398, Note_on_c, 0, 28, 49
1, 19403, Control_c, 0, 64, 82
1, 19418, Control_c, 0, 64, 86
1, 19432, Control_c, 0, 64, 88
1, 19445, Note_off_c, 0, 26, 41
1, 19447, Control_c, 0, 64, 89
1, 19462, Control_c, 0, 64, 90
1, 19504, Note_on_c, 0, 30, 45
1, 19538, Note_off_c, 0, 28, 33
1, 19581, Control_c, 0, 64, 89
1, 19596, Control_c, 0, 64, 88
1, 19611, Control_c, 0, 64, 86
1, 19626, Control_c, 0, 64, 84
1, 19636, Note_on_c, 0, 51, 43
1, 19640, Control_c, 0, 64, 81
1, 19655, Control_c, 0, 64, 77
1, 19656, Note_on_c, 0, 45, 40
1, 19670, Control_c, 0, 64, 71
1, 19673, Note_on_c, 0, 41, 37
1, 19684, Note_on_c, 0, 31, 35
1, 19685, Control_c, 0, 64, 63
1, 19689, Note_off_c, 0, 30, 42
1, 19700, Control_c, 0, 64, 0
1, 19818, Control_c, 0, 64, 61
1, 19832, Control_c, 0, 64, 68
1, 19847, Control_c, 0, 64, 74
1, 19849, Note_off_c, 0, 31, 56
1, 19862, Control_c, 0, 64, 80
1, 19877, Control_c, 0, 64, 84
1, 19892, Control_c, 0, 64, 87
1, 19895, Note_off_c, 0, 41, 40
1, 19906, Control_c, 0, 64, 88
1, 19921, Control_c, 0, 64, 88
1, 19935, Note_on_c, 0, 53, 52
1, 19975, Note_off_c, 0, 51, 37
1, 20121, Control_c, 0, 64, 88
1, 20136, Control_c, 0, 64, 87
1, 20151, Control_c, 0, 64, 87
1, 20167, Control_c, 0, 64, 86
1, 20179, Note_off_c, 0, 45, 35
1, 20182, Control_c, 0, 64, 85
1, 20197, Control_c, 0, 64, 84
1, 20207, Note_on_c, 0, 43, 48
1, 20210, Control_c, 0, 64, 82
1, 20213, Note_on_c, 0, 51, 57
1, 20225, Control_c, 0, 64, 80
1, 20240, Control_c, 0, 64, 79
1, 20255, Control_c, 0, 64, 77
1, 20270, Control_c, 0, 64, 76
1, 20284, Note_on_c, 0, 48, 56
1, 20285, Control_c, 0, 64, 75
1, 20288, Note_off_c, 0, 43, 58
1, 20294, Note_off_c, 0, 53, 28
1, 20300, Control_c, 0, 64, 74
1, 20303, Note_off_c, 0, 51, 64
1, 20315, Control_c, 0, 64, 74
1, 20329, Control_c, 0, 64, 73
1, 20344, Control_c, 0, 64, 73
1, 20359, Control_c, 0, 64, 72
1, 20373, Note_on_c, 0, 50, 55
1, 20374, Control_c, 0, 64, 71
1, 20381, Note_off_c, 0, 48, 60
1, 20389, Control_c, 0, 64, 71
1, 20403, Control_c, 0, 64, 69
1, 20418, Control_c, 0, 64, 68
1, 20433, Control_c, 0, 64, 68
1, 20448, Control_c, 0, 64, 67
1, 20458, Note_on_c, 0, 56, 55
1, 20462, Control_c, 0, 64, 67
1, 20476, Note_off_c, 0, 50, 51
1, 20492, Control_c, 0, 64, 66
1, 20507, Control_c, 0, 64, 66
1, 20522, Control_c, 0, 64, 65
1, 20529, Note_off_c, 0, 56, 61
1, 20536, Control_c, 0, 64, 65
1, 20551, Control_c, 0, 64, 63
1, 20566, Control_c, 0, 64, 58
1, 20576, Note_on_c, 0, 63, 51
1, 20581, Control_c, 0, 64, 33
1, 20596, Control_c, 0, 64, 0
1, 20604, Note_on_c, 0, 53, 43
1, 20744, Control_c, 0, 64, 32
1, 20759, Control_c, 0, 64, 65
1, 20773, Control_c, 0, 64, 73
1, 20788, Control_c, 0, 64, 82
1, 20803, Control_c, 0, 64, 95
1, 20809, Note_off_c, 0, 63, 59
1, 20818, Control_c, 0, 64, 108
1, 20840, Control_c, 0, 64, 127
1, 21020, Control_c, 0, 64, 99
1, 21034, Control_c, 0, 64, 74
1, 21035, Note_on_c, 0, 67, 50
1, 21037, Note_on_c, 0, 63, 41
1, 21049, Control_c, 0, 64, 46
1, 21064, Control_c, 0, 64, 0
1, 21093, Control_c, 0, 64, 57
1, 21103, Note_off_c, 0, 53, 40
1, 21108, Control_c, 0, 64, 66
1, 21123, Control_c, 0, 64, 74
1, 21138, Control_c, 0, 64, 81
1, 21145, Note_off_c, 0, 67, 61
1, 21152, Control_c, 0, 64, 91
1, 21167, Control_c, 0, 64, 100
1, 21177, Note_off_c, 0, 63, 61
1, 21182, Control_c, 0, 64, 109
1, 21197, Control_c, 0, 64, 114
1, 21212, Control_c, 0, 64, 115
1, 21375, Control_c, 0, 64, 114
1, 21381, Note_on_c, 0, 32, 57
1, 21390, Control_c, 0, 64, 112
1, 21404, Control_c, 0, 64, 109
1, 21419, Control_c, 0, 64, 104
1, 21434, Control_c, 0, 64, 95
1, 21447, Note_off_c, 0, 32, 61
1, 21449, Control_c, 0, 64, 83
1, 21450, Note_on_c, 0, 31, 70
1, 21464, Control_c, 0, 64, 69
1, 21470, Note_on_c, 0, 47, 56
1, 21478, Control_c, 0, 64, 0
1, 21483, Note_off_c, 0, 31, 66
1, 21514, Note_on_c, 0, 39, 13
1, 21716, Note_off_c, 0, 39, 43
1, 21827, Note_on_c, 0, 30, 55
1, 21996, Note_on_c, 0, 48, 54
1, 22000, Note_off_c, 0, 30, 46
1, 22020, Note_on_c, 0, 24, 42
1, 22022, Note_on_c, 0, 31, 38
1, 22037, Note_on_c, 0, 39, 38
1, 22057, Note_off_c, 0, 47, 35
1, 22139, Control_c, 0, 64, 54
1, 22154, Control_c, 0, 64, 67
1, 22169, Control_c, 0, 64, 76
1, 22183, Control_c, 0, 64, 86
1, 22198, Control_c, 0, 64, 99
1, 22213, Note_off_c, 0, 39, 52
1, 22213, Control_c, 0, 64, 114
1, 22227, Control_c, 0, 64, 127
1, 22235, Note_off_c, 0, 48, 63
1, 22269, Note_off_c, 0, 31, 39
1, 22273, Note_off_c, 0, 24, 40
1, 22596, Note_on_c, 0, 75, 61
1, 22650, Control_c, 0, 64, 110
1, 22658, Note_on_c, 0, 63, 45
1, 22661, Note_on_c, 0, 72, 56
1, 22663, Note_on_c, 0, 67, 45
1, 22665, Control_c, 0, 64, 89
1, 22680, Control_c, 0, 64, 77
1, 22695, Control_c, 0, 64, 71
1, 22704, Note_off_c, 0, 75, 61
1, 22724, Control_c, 0, 64, 75
1, 22739, Control_c, 0, 64, 82
1, 22754, Control_c, 0, 64, 92
1, 22769, Control_c, 0, 64, 109
1, 22784, Control_c, 0, 64, 127
1, 22832, Note_off_c, 0, 63, 58
1, 22868, Note_on_c, 0, 55, 53
1, 22878, Note_off_c, 0, 67, 37
1, 22968, Note_on_c, 0, 74, 78
1, 22991, Control_c, 0, 64, 118
1, 22992, Note_off_c, 0, 55, 61
1, 23000, Note_off_c, 0, 72, 51
1, 23006, Control_c, 0, 64, 85
1, 23008, Note_on_c, 0, 71, 72
1, 23018, Note_on_c, 0, 62, 57
1, 23021, Control_c, 0, 64, 64
1, 23035, Note_on_c, 0, 65, 50
1, 23036, Control_c, 0, 64, 0
1, 23065, Control_c, 0, 64, 35
1, 23087, Note_off_c, 0, 74, 58
1, 23087, Control_c, 0, 64, 63
1, 23102, Control_c, 0, 64, 70
1, 23117, Control_c, 0, 64, 79
1, 23131, Control_c, 0, 64, 96
1, 23146, Control_c, 0, 64, 127
1, 23190, Note_off_c, 0, 65, 52
1, 23201, Note_on_c, 0, 56, 57
1, 23249, Note_off_c, 0, 56, 53
1, 23335, Note_on_c, 0, 72, 70
1, 23368, Control_c, 0, 64, 107
1, 23376, Note_on_c, 0, 69, 75
1, 23382, Note_on_c, 0, 60, 58
1, 23382, Note_on_c, 0, 64, 58
1, 23383, Control_c, 0, 64, 80
1, 23393, Note_off_c, 0, 62, 52
1, 23398, Control_c, 0, 64, 62
1, 23399, Note_off_c, 0, 71, 39
1, 23413, Control_c, 0, 64, 0
1, 23442, Control_c, 0, 64, 61
1, 23450, Note_off_c, 0, 72, 56
1, 23457, Control_c, 0, 64, 71
1, 23471, Control_c, 0, 64, 83
1, 23486, Control_c, 0, 64, 100
1, 23501, Control_c, 0, 64, 127
1, 23530, Note_off_c, 0, 64, 54
1, 23561, Note_on_c, 0, 57, 59
1, 23658, Note_off_c, 0, 57, 59
1, 23686, Note_on_c, 0, 74, 83
1, 23690, Note_off_c, 0, 69, 59
1, 23709, Control_c, 0, 64, 101
1, 23724, Note_on_c, 0, 71, 75
1, 23724, Control_c, 0, 64, 75
1, 23729, Note_on_c, 0, 65, 56
1, 23736, Note_on_c, 0, 62, 51
1, 23738, Control_c, 0, 64, 0
1, 23783, Control_c, 0, 64, 53
1, 23797, Control_c, 0, 64, 68
1, 23802, Note_off_c, 0, 74, 61
1, 23820, Control_c, 0, 64, 77
1, 23835, Control_c, 0, 64, 89
1, 23850, Control_c, 0, 64, 110
1, 23852, Note_off_c, 0, 60, 32
1, 23865, Control_c, 0, 64, 127
1, 23894, Note_off_c, 0, 62, 58
1, 23894, Note_off_c, 0, 65, 38
1, 23909, Note_on_c, 0, 56, 60
1, 24028, Note_on_c, 0, 75, 77
1, 24028, Control_c, 0, 64, 109
1, 24037, Note_off_c, 0, 71, 60
1, 24043, Control_c, 0, 64, 76
1, 24058, Control_c, 0, 64, 0
1, 24071, Note_on_c, 0, 67, 62
1, 24072, Note_on_c, 0, 72, 73
1, 24076, Note_on_c, 0, 63, 63
1, 24087, Note_off_c, 0, 56, 58
1, 24132, Control_c, 0, 64, 46
1, 24148, Control_c, 0, 64, 67
1, 24157, Note_off_c, 0, 75, 58
1, 24163, Control_c, 0, 64, 79
1, 24177, Control_c, 0, 64, 94
1, 24192, Control_c, 0, 64, 127
1, 24196, Note_off_c, 0, 67, 56
1, 24210, Note_off_c, 0, 63, 56
1, 24235, Note_on_c, 0, 55, 65
1, 24281, Control_c, 0, 64, 106
1, 24295, Control_c, 0, 64, 81
1, 24310, Control_c, 0, 64, 59
1, 24325, Control_c, 0, 64, 0
1, 24366, Note_on_c, 0, 77, 71
1, 24369, Note_off_c, 0, 72, 59
1, 24399, Control_c, 0, 67, 124
1, 24401, Note_on_c, 0, 68, 65
1, 24401, Note_on_c, 0, 74, 80
1, 24405, Note_on_c, 0, 65, 53
1, 24414, Control_c, 0, 67, 119
1, 24428, Control_c, 0, 64, 66
1, 24428, Control_c, 0, 67, 115
1, 24443, Control_c, 0, 64, 79
1, 24443, Control_c, 0, 67, 109
1, 24449, Note_off_c, 0, 77, 63
1, 24458, Control_c, 0, 64, 107
1, 24458, Control_c, 0, 67, 104
1, 24473, Note_off_c, 0, 68, 61
1, 24473, Control_c, 0, 64, 127
1, 24473, Control_c, 0, 67, 97
1, 24488, Control_c, 0, 67, 90
1, 24497, Note_off_c, 0, 55, 36
1, 24503, Control_c, 0, 67, 83
1, 24506, Note_off_c, 0, 65, 56
1, 24518, Control_c, 0, 67, 77
1, 24532, Control_c, 0, 67, 74
1, 24547, Control_c, 0, 67, 72
1, 24562, Control_c, 0, 67, 71
1, 24579, Note_on_c, 0, 55, 58
1, 24584, Control_c, 0, 67, 71
1, 24673, Control_c, 0, 67, 71
1, 24688, Control_c, 0, 67, 72
1, 24702, Control_c, 0, 67, 73
1, 24717, Control_c, 0, 67, 74
1, 24732, Control_c, 0, 64, 85
1, 24732, Control_c, 0, 67, 74
1, 24735, Note_off_c, 0, 55, 61
1, 24741, Note_off_c, 0, 74, 60
1, 24745, Note_on_c, 0, 84, 100
1, 24747, Control_c, 0, 64, 0
1, 24747, Control_c, 0, 67, 76
1, 24751, Note_on_c, 0, 80, 90
1, 24757, Note_on_c, 0, 63, 68
1, 24761, Note_on_c, 0, 67, 69
1, 24762, Control_c, 0, 67, 77
1, 24766, Note_off_c, 0, 80, 74
1, 24771, Note_off_c, 0, 84, 68
1, 24777, Control_c, 0, 67, 78
1, 24792, Control_c, 0, 67, 78
1, 24821, Control_c, 0, 67, 79
1, 24836, Control_c, 0, 67, 80
1, 24851, Control_c, 0, 67, 81
1, 24866, Control_c, 0, 67, 84
1, 24881, Control_c, 0, 67, 87
1, 24895, Control_c, 0, 67, 92
1, 24903, Note_off_c, 0, 67, 44
1, 24908, Note_off_c, 0, 63, 55
1, 24910, Control_c, 0, 67, 97
1, 24923, Note_on_c, 0, 55, 54
1, 24925, Control_c, 0, 67, 101
1, 24940, Control_c, 0, 67, 104
1, 24956, Control_c, 0, 67, 106
1, 25000, Control_c, 0, 67, 105
1, 25015, Control_c, 0, 67, 104
1, 25030, Control_c, 0, 67, 104
1, 25044, Control_c, 0, 67, 103
1, 25059, Control_c, 0, 67, 102
1, 25070, Note_on_c, 0, 74, 70
1, 25074, Control_c, 0, 67, 102
1, 25082, Note_off_c, 0, 55, 61
1, 25114, Note_on_c, 0, 70, 72
1, 25117, Note_on_c, 0, 62, 42
1, 25119, Note_on_c, 0, 65, 44
1, 25133, Control_c, 0, 67, 101
1, 25148, Control_c, 0, 64, 36
1, 25148, Control_c, 0, 67, 100
1, 25163, Control_c, 0, 64, 64
1, 25163, Control_c, 0, 67, 100
1, 25164, Note_off_c, 0, 74, 59
1, 25178, Control_c, 0, 64, 71
1, 25178, Control_c, 0, 67, 99
1, 25192, Control_c, 0, 64, 80
1, 25192, Control_c, 0, 67, 98
1, 25207, Control_c, 0, 64, 95
1, 25207, Control_c, 0, 67, 97
1, 25222, Control_c, 0, 64, 112
1, 25234, Note_off_c, 0, 65, 51
1, 25237, Control_c, 0, 64, 127
1, 25237, Control_c, 0, 67, 97
1, 25266, Note_off_c, 0, 62, 58
1, 25294, Note_on_c, 0, 55, 56
1, 25422, Control_c, 0, 67, 97
1, 25443, Note_off_c, 0, 55, 58
1, 25457, Note_on_c, 0, 79, 91
1, 25461, Note_on_c, 0, 75, 85
1, 25466, Control_c, 0, 64, 101
1, 25472, Note_off_c, 0, 70, 64
1, 25474, Note_off_c, 0, 79, 69
1, 25478, Note_off_c, 0, 75, 72
1, 25481, Control_c, 0, 64, 68
1, 25481, Control_c, 0, 67, 98
1, 25483, Note_on_c, 0, 63, 61
1, 25485, Note_on_c, 0, 60, 58
1, 25496, Control_c, 0, 64, 0
1, 25607, Note_off_c, 0, 63, 53
1, 25647, Note_on_c, 0, 55, 55
1, 25658, Note_off_c, 0, 60, 54
1, 25718, Control_c, 0, 67, 97
1, 25733, Control_c, 0, 67, 96
1, 25749, Control_c, 0, 67, 96
1, 25764, Control_c, 0, 67, 95
1, 25767, Note_off_c, 0, 55, 60
1, 25770, Note_on_c, 0, 72, 78
1, 25793, Control_c, 0, 67, 94
1, 25808, Note_on_c, 0, 58, 64
1, 25808, Note_on_c, 0, 68, 93
1, 25808, Control_c, 0, 67, 94
1, 25815, Note_on_c, 0, 62, 61
1, 25847, Note_off_c, 0, 72, 64
1, 25853, Control_c, 0, 67, 96
1, 25867, Control_c, 0, 64, 17
1, 25867, Control_c, 0, 67, 98
1, 25882, Control_c, 0, 64, 64
1, 25882, Control_c, 0, 67, 100
1, 25897, Control_c, 0, 64, 72
1, 25897, Control_c, 0, 67, 102
1, 25912, Control_c, 0, 64, 80
1, 25912, Control_c, 0, 67, 105
1, 25927, Control_c, 0, 64, 90
1, 25927, Control_c, 0, 67, 109
1, 25941, Control_c, 0, 64, 103
1, 25941, Control_c, 0, 67, 119
1, 25956, Control_c, 0, 64, 127
1, 25956, Control_c, 0, 67, 127
1, 25978, Note_off_c, 0, 62, 58
1, 26000, Note_on_c, 0, 53, 61
1, 26047, Note_off_c, 0, 53, 63
1, 26083, Note_off_c, 0, 58, 39
1, 26173, Note_on_c, 0, 74, 82
1, 26178, Note_on_c, 0, 70, 76
1, 26194, Note_on_c, 0, 60, 48
1, 26196, Note_off_c, 0, 68, 63
1, 26196, Note_on_c, 0, 63, 53
1, 26200, Control_c, 0, 64, 114
1, 26206, Note_off_c, 0, 70, 64
1, 26211, Note_off_c, 0, 74, 64
1, 26214, Control_c, 0, 64, 83
1, 26229, Control_c, 0, 64, 64
1, 26244, Control_c, 0, 64, 0
1, 26351, Note_on_c, 0, 54, 56
1, 26360, Note_off_c, 0, 60, 58
1, 26412, Note_off_c, 0, 63, 34
1, 26535, Note_on_c, 0, 67, 61
1, 26547, Note_on_c, 0, 62, 44
1, 26553, Note_off_c, 0, 54, 55
1, 26565, Note_on_c, 0, 59, 36
1, 26601, Control_c, 0, 64, 19
1, 26615, Control_c, 0, 64, 50
1, 26630, Control_c, 0, 64, 61
1, 26645, Control_c, 0, 64, 65
1, 26660, Control_c, 0, 64, 68
1, 26675, Control_c, 0, 64, 71
1, 26688, Note_off_c, 0, 62, 59
1, 26689, Control_c, 0, 64, 73
1, 26704, Control_c, 0, 64, 76
1, 26716, Note_on_c, 0, 55, 55
1, 26719, Control_c, 0, 64, 77
1, 26734, Control_c, 0, 64, 78
1, 26754, Note_off_c, 0, 67, 58
1, 26875, Control_c, 0, 64, 77
1, 26890, Control_c, 0, 64, 75
1, 26896, Note_on_c, 0, 60, 53
1, 26899, Note_on_c, 0, 67, 62
1, 26899, Note_off_c, 0, 59, 42
1, 26904, Control_c, 0, 64, 71
1, 26908, Note_on_c, 0, 63, 55
1, 26919, Control_c, 0, 64, 65
1, 26933, Note_off_c, 0, 55, 33
1, 26934, Control_c, 0, 64, 57
1, 26949, Control_c, 0, 64, 31
1, 26964, Note_off_c, 0, 67, 55
1, 26964, Control_c, 0, 64, 0
1, 26970, Note_on_c, 0, 68, 65
1, 27034, Note_off_c, 0, 68, 62
1, 27039, Note_off_c, 0, 60, 58
1, 27052, Note_on_c, 0, 55, 53
1, 27057, Note_off_c, 0, 63, 60
1, 27068, Note_on_c, 0, 67, 64
1, 27126, Note_off_c, 0, 67, 59
1, 27137, Note_on_c, 0, 68, 73
1, 27199, Note_off_c, 0, 68, 61
1, 27221, Note_off_c, 0, 55, 58
1, 27232, Note_on_c, 0, 64, 49
1, 27232, Note_on_c, 0, 67, 67
1, 27242, Note_on_c, 0, 61, 47
1, 27304, Control_c, 0, 64, 64
1, 27319, Control_c, 0, 64, 70
1, 27334, Control_c, 0, 64, 76
1, 27349, Control_c, 0, 64, 82
1, 27364, Control_c, 0, 64, 86
1, 27379, Control_c, 0, 64, 90
1, 27394, Control_c, 0, 64, 93
1, 27397, Note_off_c, 0, 61, 52
1, 27409, Control_c, 0, 64, 95
1, 27413, Note_off_c, 0, 64, 53
1, 27417, Note_on_c, 0, 55, 55
1, 27424, Control_c, 0, 64, 96
1, 27490, Note_off_c, 0, 67, 54
1, 27537, Note_on_c, 0, 72, 73
1, 27542, Control_c, 0, 64, 95
1, 27564, Control_c, 0, 64, 87
1, 27576, Note_on_c, 0, 68, 80
1, 27579, Note_off_c, 0, 55, 62
1, 27579, Control_c, 0, 64, 74
1, 27594, Control_c, 0, 64, 37
1, 27603, Note_on_c, 0, 65, 54
1, 27606, Note_on_c, 0, 62, 50
1, 27609, Control_c, 0, 64, 0
1, 27682, Note_off_c, 0, 72, 58
1, 27698, Control_c, 0, 64, 63
1, 27713, Control_c, 0, 64, 71
1, 27723, Note_off_c, 0, 62, 57
1, 27725, Note_off_c, 0, 65, 59
1, 27728, Control_c, 0, 64, 78
1, 27743, Control_c, 0, 64, 86
1, 27758, Control_c, 0, 64, 92
1, 27770, Note_on_c, 0, 53, 61
1, 27772, Control_c, 0, 64, 95
1, 27787, Control_c, 0, 64, 97
1, 27802, Control_c, 0, 64, 98
1, 27817, Control_c, 0, 64, 98
1, 27861, Control_c, 0, 64, 98
1, 27891, Control_c, 0, 64, 94
1, 27906, Control_c, 0, 64, 84
1, 27911, Note_on_c, 0, 74, 65
1, 27920, Control_c, 0, 64, 71
1, 27925, Note_off_c, 0, 53, 63
1, 27935, Control_c, 0, 64, 0
1, 27952, Note_on_c, 0, 60, 51
1, 27960, Note_on_c, 0, 63, 51
1, 27961, Note_on_c, 0, 70, 69
1, 28019, Note_off_c, 0, 74, 60
1, 28042, Note_off_c, 0, 68, 57
1, 28068, Control_c, 0, 64, 63
1, 28083, Control_c, 0, 64, 71
1, 28093, Note_off_c, 0, 70, 60
1, 28098, Control_c, 0, 64, 80
1, 28112, Note_off_c, 0, 60, 57
1, 28113, Control_c, 0, 64, 91
1, 28127, Control_c, 0, 64, 98
1, 28137, Note_on_c, 0, 54, 55
1, 28143, Control_c, 0, 64, 101
1, 28184, Note_off_c, 0, 63, 46
1, 28247, Control_c, 0, 64, 96
1, 28262, Control_c, 0, 64, 87
1, 28277, Control_c, 0, 64, 75
1, 28291, Control_c, 0, 64, 63
1, 28306, Control_c, 0, 64, 0
1, 28337, Note_off_c, 0, 54, 54
1, 28341, Note_on_c, 0, 67, 59
1, 28357, Note_on_c, 0, 62, 39
1, 28359, Note_on_c, 0, 59, 34
1, 28412, Note_off_c, 0, 67, 55
1, 28434, Note_on_c, 0, 68, 56
1, 28497, Note_off_c, 0, 68, 61
1, 28509, Note_on_c, 0, 55, 45
1, 28511, Note_off_c, 0, 59, 42
1, 28514, Note_off_c, 0, 62, 31
1, 28527, Note_on_c, 0, 67, 54
1, 28601, Note_off_c, 0, 67, 57
1, 28614, Note_on_c, 0, 68, 60
1, 28691, Note_off_c, 0, 68, 61
1, 28700, Note_off_c, 0, 55, 57
1, 28717, Note_on_c, 0, 67, 55
1, 28728, Note_on_c, 0, 59, 39
1, 28742, Note_on_c, 0, 62, 36
1, 28743, Control_c, 0, 64, 40
1, 28758, Control_c, 0, 64, 64
1, 28773, Control_c, 0, 64, 70
1, 28787, Control_c, 0, 64, 76
1, 28802, Control_c, 0, 64, 82
1, 28817, Control_c, 0, 64, 86
1, 28832, Control_c, 0, 64, 89
1, 28847, Control_c, 0, 64, 90
1, 28926, Note_off_c, 0, 59, 35
1, 28947, Note_on_c, 0, 55, 44
1, 29014, Note_off_c, 0, 67, 26
1, 29038, Note_on_c, 0, 72, 52
1, 29040, Control_c, 0, 64, 90
1, 29055, Control_c, 0, 64, 88
1, 29078, Control_c, 0, 64, 86
1, 29091, Note_off_c, 0, 62, 40
1, 29092, Control_c, 0, 64, 81
1, 29107, Control_c, 0, 64, 76
1, 29122, Control_c, 0, 64, 69
1, 29137, Control_c, 0, 64, 63
1, 29138, Note_off_c, 0, 72, 62
1, 29147, Note_on_c, 0, 75, 62
1, 29152, Control_c, 0, 64, 49
1, 29166, Control_c, 0, 64, 14
1, 29167, Note_on_c, 0, 63, 44
1, 29181, Control_c, 0, 64, 0
1, 29221, Note_off_c, 0, 75, 63
1, 29248, Note_on_c, 0, 74, 59
1, 29357, Note_on_c, 0, 75, 62
1, 29362, Note_off_c, 0, 63, 45
1, 29365, Note_off_c, 0, 74, 59
1, 29368, Note_on_c, 0, 67, 46
1, 29448, Note_off_c, 0, 75, 61
1, 29460, Note_on_c, 0, 83, 62
1, 29602, Note_on_c, 0, 74, 55
1, 29610, Note_off_c, 0, 55, 53
1, 29626, Note_on_c, 0, 56, 39
1, 29626, Note_on_c, 0, 62, 34
1, 29628, Note_off_c, 0, 67, 41
1, 29655, Control_c, 0, 64, 34
1, 29663, Note_off_c, 0, 83, 46
1, 29670, Control_c, 0, 64, 64
1, 29685, Control_c, 0, 64, 71
1, 29699, Control_c, 0, 64, 77
1, 29714, Control_c, 0, 64, 83
1, 29729, Control_c, 0, 64, 88
1, 29745, Control_c, 0, 64, 91
1, 29760, Control_c, 0, 64, 93
1, 29767, Note_off_c, 0, 56, 58
1, 29775, Control_c, 0, 64, 93
1, 29853, Note_on_c, 0, 65, 46
1, 29960, Note_on_c, 0, 81, 62
1, 29960, Control_c, 0, 64, 91
1, 29974, Control_c, 0, 64, 84
1, 29989, Control_c, 0, 64, 71
1, 29996, Note_off_c, 0, 65, 39
1, 30004, Control_c, 0, 64, 38
1, 30005, Note_off_c, 0, 74, 62
1, 30011, Note_off_c, 0, 62, 40
1, 30014, Note_on_c, 0, 57, 43
1, 30019, Control_c, 0, 64, 0
1, 30025, Note_off_c, 0, 81, 56
1, 30030, Note_on_c, 0, 72, 60
1, 30033, Note_on_c, 0, 60, 35
1, 30108, Control_c, 0, 64, 64
1, 30122, Control_c, 0, 64, 73
1, 30137, Control_c, 0, 64, 84
1, 30152, Control_c, 0, 64, 100
1, 30166, Control_c, 0, 64, 111
1, 30177, Note_off_c, 0, 57, 61
1, 30181, Control_c, 0, 64, 114
1, 30217, Note_on_c, 0, 64, 53
1, 30271, Control_c, 0, 64, 113
1, 30286, Control_c, 0, 64, 103
1, 30301, Control_c, 0, 64, 88
1, 30302, Note_on_c, 0, 74, 74
1, 30307, Note_off_c, 0, 72, 60
1, 30315, Control_c, 0, 64, 72
1, 30316, Note_off_c, 0, 64, 54
1, 30330, Control_c, 0, 64, 0
1, 30367, Note_off_c, 0, 60, 51
1, 30378, Note_on_c, 0, 71, 68
1, 30383, Note_on_c, 0, 56, 50
1, 30384, Note_on_c, 0, 62, 41
1, 30391, Note_off_c, 0, 74, 57
1, 30433, Control_c, 0, 64, 54
1, 30448, Control_c, 0, 64, 71
1, 30463, Control_c, 0, 64, 84
1, 30478, Control_c, 0, 64, 107
1, 30493, Control_c, 0, 64, 127
1, 30525, Note_off_c, 0, 62, 57
1, 30553, Note_on_c, 0, 65, 59
1, 30590, Control_c, 0, 64, 98
1, 30605, Control_c, 0, 64, 74
1, 30620, Control_c, 0, 64, 0
1, 30622, Note_off_c, 0, 71, 62
1, 30631, Note_off_c, 0, 56, 59
1, 30638, Note_on_c, 0, 72, 63
1, 30654, Note_off_c, 0, 65, 57
1, 30685, Note_off_c, 0, 72, 63
1, 30702, Note_on_c, 0, 75, 75
1, 30703, Note_on_c, 0, 55, 57
1, 30709, Control_c, 0, 64, 28
1, 30722, Note_off_c, 0, 75, 70
1, 30724, Control_c, 0, 64, 66
1, 30731, Note_on_c, 0, 63, 54
1, 30738, Control_c, 0, 64, 76
1, 30753, Control_c, 0, 64, 87
1, 30768, Control_c, 0, 64, 99
1, 30783, Control_c, 0, 64, 106
1, 30786, Note_on_c, 0, 79, 75
1, 30797, Control_c, 0, 64, 109
1, 30812, Control_c, 0, 64, 109
1, 30837, Note_on_c, 0, 80, 78
1, 30847, Note_off_c, 0, 79, 57
1, 30853, Note_off_c, 0, 63, 60
1, 30858, Note_off_c, 0, 55, 53
1, 30862, Note_on_c, 0, 67, 61
1, 30888, Note_on_c, 0, 84, 64
1, 30900, Note_off_c, 0, 67, 60
1, 30901, Control_c, 0, 64, 108
1, 30915, Note_off_c, 0, 80, 61
1, 30916, Control_c, 0, 64, 93
1, 30931, Control_c, 0, 64, 75
1, 30940, Note_on_c, 0, 86, 84
1, 30945, Control_c, 0, 64, 0
1, 30952, Note_off_c, 0, 84, 65
1, 31001, Note_on_c, 0, 55, 60
1, 31004, Note_on_c, 0, 77, 81
1, 31020, Note_off_c, 0, 86, 66
1, 31026, Note_on_c, 0, 65, 57
1, 31079, Control_c, 0, 64, 65
1, 31093, Control_c, 0, 64, 73
1, 31108, Control_c, 0, 64, 88
1, 31123, Control_c, 0, 64, 114
1, 31138, Control_c, 0, 64, 127
1, 31175, Note_off_c, 0, 65, 62
1, 31182, Control_c, 0, 67, 125
1, 31194, Note_on_c, 0, 68, 58
1, 31197, Control_c, 0, 67, 122
1, 31212, Control_c, 0, 67, 118
1, 31227, Control_c, 0, 67, 114
1, 31237, Note_off_c, 0, 68, 58
1, 31242, Control_c, 0, 67, 111
1, 31256, Control_c, 0, 67, 109
1, 31258, Note_off_c, 0, 55, 23
1, 31271, Control_c, 0, 67, 108
1, 31286, Control_c, 0, 67, 107
1, 31327, Note_on_c, 0, 84, 82
1, 31334, Note_off_c, 0, 77, 62
1, 31339, Control_c, 0, 67, 109
1, 31350, Note_on_c, 0, 92, 108
1, 31354, Control_c, 0, 67, 110
1, 31362, Note_off_c, 0, 84, 68
1, 31368, Control_c, 0, 64, 83
1, 31368, Control_c, 0, 67, 111
1, 31374, Note_on_c, 0, 63, 68
1, 31378, Note_off_c, 0, 92, 72
1, 31380, Note_on_c, 0, 55, 64
1, 31383, Control_c, 0, 64, 37
1, 31383, Control_c, 0, 67, 113
1, 31398, Control_c, 0, 64, 0
1, 31398, Control_c, 0, 67, 114
1, 31412, Control_c, 0, 67, 115
1, 31427, Control_c, 0, 67, 115
1, 31442, Control_c, 0, 67, 116
1, 31457, Control_c, 0, 67, 117
1, 31472, Control_c, 0, 67, 118
1, 31487, Control_c, 0, 67, 119
1, 31502, Control_c, 0, 67, 120
1, 31517, Control_c, 0, 67, 121
1, 31532, Control_c, 0, 67, 122
1, 31585, Note_off_c, 0, 63, 46
1, 31591, Note_on_c, 0, 67, 49
1, 31600, Note_off_c, 0, 55, 53
1, 31620, Control_c, 0, 67, 122
1, 31635, Control_c, 0, 67, 123
1, 31650, Control_c, 0, 67, 123
1, 31665, Control_c, 0, 67, 125
1, 31680, Control_c, 0, 67, 126
1, 31694, Control_c, 0, 67, 127
1, 31696, Note_on_c, 0, 82, 70
1, 31721, Note_off_c, 0, 67, 59
1, 31738, Note_on_c, 0, 74, 76
1, 31743, Note_on_c, 0, 55, 48
1, 31745, Note_on_c, 0, 62, 50
1, 31778, Note_off_c, 0, 82, 60
1, 31798, Control_c, 0, 64, 24
1, 31812, Control_c, 0, 64, 64
1, 31827, Control_c, 0, 64, 74
1, 31842, Control_c, 0, 64, 86
1, 31857, Control_c, 0, 64, 107
1, 31872, Control_c, 0, 64, 127
1, 31896, Note_off_c, 0, 55, 62
1, 31931, Note_on_c, 0, 65, 60
1, 31991, Control_c, 0, 64, 103
1, 31995, Note_off_c, 0, 62, 33
1, 32005, Control_c, 0, 64, 80
1, 32020, Control_c, 0, 64, 61
1, 32035, Control_c, 0, 64, 0
1, 32074, Note_on_c, 0, 79, 77
1, 32083, Note_off_c, 0, 65, 61
1, 32083, Note_off_c, 0, 74, 62
1, 32094, Note_on_c, 0, 87, 99
1, 32101, Note_off_c, 0, 79, 64
1, 32104, Note_on_c, 0, 55, 56
1, 32116, Control_c, 0, 64, 11
1, 32119, Note_on_c, 0, 60, 51
1, 32120, Note_off_c, 0, 87, 68
1, 32132, Control_c, 0, 64, 65
1, 32147, Control_c, 0, 64, 76
1, 32162, Control_c, 0, 64, 93
1, 32177, Control_c, 0, 64, 114
1, 32191, Control_c, 0, 64, 127
1, 32206, Note_off_c, 0, 55, 63
1, 32247, Note_off_c, 0, 60, 62
1, 32293, Note_on_c, 0, 63, 60
1, 32322, Note_off_c, 0, 63, 64
1, 32429, Control_c, 0, 64, 117
1, 32429, Note_on_c, 0, 80, 72
1, 32443, Control_c, 0, 64, 99
1, 32458, Control_c, 0, 64, 84
1, 32473, Control_c, 0, 64, 69
1, 32487, Note_on_c, 0, 72, 74
1, 32488, Control_c, 0, 64, 33
1, 32489, Note_off_c, 0, 80, 61
1, 32503, Control_c, 0, 64, 0
1, 32509, Note_on_c, 0, 46, 57
1, 32511, Note_on_c, 0, 50, 48
1, 32599, Note_on_c, 0, 73, 72
1, 32606, Note_off_c, 0, 72, 59
1, 32690, Note_on_c, 0, 56, 57
1, 32696, Note_on_c, 0, 74, 66
1, 32718, Note_off_c, 0, 73, 49
1, 32743, Note_on_c, 0, 75, 69
1, 32753, Note_off_c, 0, 74, 63
1, 32790, Note_off_c, 0, 75, 63
1, 32846, Note_on_c, 0, 77, 67
1, 32909, Control_c, 0, 64, 43
1, 32924, Control_c, 0, 64, 63
1, 32933, Note_off_c, 0, 77, 60
1, 32940, Control_c, 0, 64, 67
1, 32946, Note_on_c, 0, 86, 70
1, 32951, Note_off_c, 0, 56, 36
1, 32955, Control_c, 0, 64, 72
1, 32970, Control_c, 0, 64, 78
1, 32971, Note_on_c, 0, 60, 45
1, 32980, Note_off_c, 0, 86, 63
1, 32984, Control_c, 0, 64, 84
1, 32999, Control_c, 0, 64, 91
1, 33014, Control_c, 0, 64, 101
1, 33029, Control_c, 0, 64, 109
1, 33044, Control_c, 0, 64, 118
1, 33058, Control_c, 0, 64, 127
1, 33198, Note_off_c, 0, 46, 60
1, 33204, Note_off_c, 0, 50, 59
1, 33223, Note_on_c, 0, 56, 53
1, 33272, Note_off_c, 0, 56, 57
1, 33425, Note_on_c, 0, 79, 69
1, 33460, Note_off_c, 0, 60, 43
1, 33473, Control_c, 0, 64, 119
1, 33482, Note_on_c, 0, 67, 68
1, 33486, Note_on_c, 0, 51, 50
1, 33488, Control_c, 0, 64, 89
1, 33492, Note_off_c, 0, 79, 59
1, 33494, Note_on_c, 0, 55, 41
1, 33503, Control_c, 0, 64, 72
1, 33518, Control_c, 0, 64, 50
1, 33532, Control_c, 0, 64, 0
1, 33644, Control_c, 0, 64, 55
1, 33658, Control_c, 0, 64, 65
1, 33673, Control_c, 0, 64, 70
1, 33689, Note_on_c, 0, 58, 55
1, 33689, Control_c, 0, 64, 73
1, 33704, Control_c, 0, 64, 75
1, 33728, Note_off_c, 0, 67, 54
1, 33735, Control_c, 0, 64, 75
1, 33794, Control_c, 0, 64, 74
1, 33808, Control_c, 0, 64, 73
1, 33823, Control_c, 0, 64, 70
1, 33838, Control_c, 0, 64, 65
1, 33853, Control_c, 0, 64, 59
1, 33868, Control_c, 0, 64, 0
1, 33877, Note_on_c, 0, 62, 51
1, 33879, Note_on_c, 0, 67, 60
1, 33904, Note_off_c, 0, 58, 46
1, 33916, Note_off_c, 0, 55, 30
1, 33943, Note_off_c, 0, 67, 61
1, 33957, Note_on_c, 0, 68, 66
1, 34023, Note_off_c, 0, 68, 61
1, 34045, Note_on_c, 0, 58, 56
1, 34048, Note_on_c, 0, 67, 70
1, 34122, Note_on_c, 0, 68, 73
1, 34124, Note_off_c, 0, 67, 60
1, 34221, Note_on_c, 0, 67, 74
1, 34223, Note_off_c, 0, 68, 59
1, 34229, Note_on_c, 0, 55, 58
1, 34278, Note_off_c, 0, 51, 53
1, 34319, Control_c, 0, 64, 28
1, 34334, Control_c, 0, 64, 64
1, 34349, Control_c, 0, 64, 72
1, 34360, Note_off_c, 0, 58, 32
1, 34364, Control_c, 0, 64, 78
1, 34378, Control_c, 0, 64, 86
1, 34391, Note_off_c, 0, 62, 59
1, 34393, Control_c, 0, 64, 93
1, 34403, Note_on_c, 0, 51, 71
1, 34403, Note_off_c, 0, 55, 63
1, 34408, Control_c, 0, 64, 101
1, 34423, Control_c, 0, 64, 111
1, 34436, Note_off_c, 0, 51, 67
1, 34437, Control_c, 0, 64, 127
1, 34575, Note_on_c, 0, 72, 83
1, 34586, Control_c, 0, 64, 96
1, 34601, Control_c, 0, 64, 76
1, 34611, Note_on_c, 0, 68, 84
1, 34616, Control_c, 0, 64, 53
1, 34620, Note_off_c, 0, 67, 58
1, 34626, Note_on_c, 0, 47, 61
1, 34630, Control_c, 0, 64, 0
1, 34632, Note_on_c, 0, 43, 52
1, 34703, Note_off_c, 0, 72, 57
1, 34719, Control_c, 0, 64, 23
1, 34734, Control_c, 0, 64, 65
1, 34749, Control_c, 0, 64, 73
1, 34763, Note_off_c, 0, 43, 62
1, 34763, Control_c, 0, 64, 80
1, 34766, Note_off_c, 0, 47, 64
1, 34778, Control_c, 0, 64, 87
1, 34793, Control_c, 0, 64, 89
1, 34799, Note_on_c, 0, 53, 66
1, 34808, Control_c, 0, 64, 90
1, 34826, Note_off_c, 0, 53, 67
1, 34951, Note_on_c, 0, 74, 68
1, 34956, Control_c, 0, 64, 89
1, 34971, Control_c, 0, 64, 88
1, 34984, Note_on_c, 0, 62, 65
1, 34986, Control_c, 0, 64, 86
1, 34990, Note_on_c, 0, 70, 75
1, 35001, Control_c, 0, 64, 80
1, 35016, Control_c, 0, 64, 72
1, 35030, Control_c, 0, 64, 61
1, 35045, Control_c, 0, 64, 0
1, 35080, Note_off_c, 0, 68, 52
1, 35104, Note_off_c, 0, 74, 60
1, 35170, Note_on_c, 0, 53, 57
1, 35171, Control_c, 0, 64, 52
1, 35186, Control_c, 0, 64, 67
1, 35201, Control_c, 0, 64, 77
1, 35213, Note_off_c, 0, 70, 62
1, 35216, Control_c, 0, 64, 86
1, 35231, Control_c, 0, 64, 93
1, 35237, Note_off_c, 0, 62, 38
1, 35245, Control_c, 0, 64, 97
1, 35260, Control_c, 0, 64, 97
1, 35319, Control_c, 0, 64, 97
1, 35335, Control_c, 0, 64, 92
1, 35350, Control_c, 0, 64, 82
1, 35365, Control_c, 0, 64, 70
1, 35374, Note_on_c, 0, 67, 53
1, 35375, Note_on_c, 0, 48, 38
1, 35378, Note_off_c, 0, 53, 52
1, 35379, Control_c, 0, 64, 48
1, 35380, Note_on_c, 0, 51, 53
1, 35394, Control_c, 0, 64, 0
1, 35425, Note_off_c, 0, 67, 55
1, 35447, Note_on_c, 0, 68, 59
1, 35520, Note_off_c, 0, 68, 62
1, 35547, Note_on_c, 0, 67, 60
1, 35551, Note_on_c, 0, 55, 49
1, 35611, Note_off_c, 0, 67, 49
1, 35633, Note_on_c, 0, 68, 66
1, 35713, Note_off_c, 0, 55, 63
1, 35726, Note_off_c, 0, 68, 59
1, 35727, Note_off_c, 0, 48, 51
1, 35730, Note_on_c, 0, 67, 60
1, 35744, Note_on_c, 0, 60, 58
1, 35761, Note_off_c, 0, 51, 64
1, 35779, Control_c, 0, 64, 56
1, 35794, Control_c, 0, 64, 68
1, 35816, Control_c, 0, 64, 75
1, 35831, Control_c, 0, 64, 83
1, 35846, Control_c, 0, 64, 91
1, 35860, Control_c, 0, 64, 95
1, 35875, Control_c, 0, 64, 96
1, 35890, Control_c, 0, 64, 97
1, 35901, Note_off_c, 0, 60, 57
1, 35905, Control_c, 0, 64, 98
1, 35920, Control_c, 0, 64, 101
1, 35934, Control_c, 0, 64, 104
1, 35945, Note_on_c, 0, 63, 57
1, 35949, Control_c, 0, 64, 108
1, 35964, Control_c, 0, 64, 110
1, 35968, Note_off_c, 0, 63, 61
1, 35978, Control_c, 0, 64, 111
1, 36010, Note_off_c, 0, 67, 56
1, 36111, Control_c, 0, 64, 109
1, 36128, Control_c, 0, 64, 102
1, 36143, Control_c, 0, 64, 89
1, 36152, Note_on_c, 0, 42, 80
1, 36157, Control_c, 0, 64, 75
1, 36158, Note_on_c, 0, 60, 60
1, 36172, Control_c, 0, 64, 60
1, 36187, Control_c, 0, 64, 0
1, 36216, Control_c, 0, 67, 126
1, 36231, Control_c, 0, 67, 124
1, 36246, Control_c, 0, 67, 123
1, 36261, Control_c, 0, 67, 121
1, 36275, Control_c, 0, 64, 36
1, 36275, Control_c, 0, 67, 120
1, 36290, Control_c, 0, 64, 62
1, 36290, Control_c, 0, 67, 118
1, 36305, Control_c, 0, 64, 67
1, 36305, Control_c, 0, 67, 117
1, 36320, Control_c, 0, 64, 71
1, 36320, Control_c, 0, 67, 116
1, 36334, Note_on_c, 0, 43, 85
1, 36335, Control_c, 0, 64, 73
1, 36335, Control_c, 0, 67, 114
1, 36345, Note_on_c, 0, 63, 64
1, 36347, Note_off_c, 0, 60, 57
1, 36349, Control_c, 0, 67, 113
1, 36364, Note_off_c, 0, 42, 59
1, 36364, Control_c, 0, 67, 112
1, 36379, Control_c, 0, 67, 110
1, 36394, Control_c, 0, 67, 109
1, 36408, Control_c, 0, 67, 107
1, 36423, Control_c, 0, 67, 105
1, 36438, Control_c, 0, 67, 104
1, 36453, Control_c, 0, 67, 103
1, 36468, Control_c, 0, 67, 102
1, 36483, Control_c, 0, 64, 72
1, 36483, Control_c, 0, 67, 100
1, 36498, Control_c, 0, 64, 70
1, 36498, Control_c, 0, 67, 98
1, 36513, Control_c, 0, 64, 66
1, 36513, Control_c, 0, 67, 95
1, 36523, Note_on_c, 0, 48, 88
1, 36527, Control_c, 0, 64, 55
1, 36527, Control_c, 0, 67, 94
1, 36542, Control_c, 0, 64, 0
1, 36542, Control_c, 0, 67, 92
1, 36543, Note_on_c, 0, 39, 71
1, 36546, Note_on_c, 0, 67, 57
1, 36556, Note_off_c, 0, 63, 59
1, 36561, Note_off_c, 0, 43, 63
1, 36564, Control_c, 0, 67, 90
1, 36579, Control_c, 0, 67, 88
1, 36594, Control_c, 0, 67, 85
1, 36608, Control_c, 0, 67, 84
1, 36623, Control_c, 0, 67, 82
1, 36638, Control_c, 0, 67, 81
1, 36653, Control_c, 0, 67, 80
1, 36668, Control_c, 0, 67, 78
1, 36683, Control_c, 0, 67, 77
1, 36698, Control_c, 0, 67, 76
1, 36712, Control_c, 0, 64, 48
1, 36712, Control_c, 0, 67, 75
1, 36717, Note_on_c, 0, 60, 70
1, 36727, Control_c, 0, 64, 65
1, 36727, Control_c, 0, 67, 73
1, 36742, Control_c, 0, 64, 70
1, 36742, Control_c, 0, 67, 71
1, 36757, Control_c, 0, 64, 74
1, 36757, Control_c, 0, 67, 69
1, 36772, Control_c, 0, 64, 77
1, 36772, Control_c, 0, 67, 67
1, 36787, Control_c, 0, 64, 78
1, 36787, Control_c, 0, 67, 65
1, 36801, Control_c, 0, 67, 63
1, 36816, Control_c, 0, 67, 61
1, 36831, Control_c, 0, 67, 60
1, 36846, Control_c, 0, 67, 58
1, 36861, Control_c, 0, 67, 57
1, 36875, Note_on_c, 0, 64, 64
1, 36879, Note_off_c, 0, 60, 58
1, 36890, Control_c, 0, 67, 57
1, 36909, Note_off_c, 0, 67, 33
1, 36952, Note_on_c, 0, 46, 82
1, 36955, Note_on_c, 0, 72, 64
1, 36965, Control_c, 0, 64, 77
1, 36972, Note_off_c, 0, 39, 58
1, 36978, Note_off_c, 0, 64, 58
1, 36980, Control_c, 0, 64, 75
1, 36995, Control_c, 0, 64, 71
1, 37002, Note_on_c, 0, 38, 43
1, 37010, Control_c, 0, 64, 65
1, 37024, Control_c, 0, 64, 57
1, 37024, Control_c, 0, 67, 57
1, 37039, Control_c, 0, 64, 24
1, 37039, Control_c, 0, 67, 58
1, 37045, Note_off_c, 0, 48, 54
1, 37054, Control_c, 0, 64, 0
1, 37054, Control_c, 0, 67, 58
1, 37069, Control_c, 0, 67, 59
1, 37084, Control_c, 0, 67, 60
1, 37098, Control_c, 0, 67, 60
1, 37113, Control_c, 0, 67, 61
1, 37143, Control_c, 0, 67, 61
1, 37175, Note_on_c, 0, 70, 64
1, 37187, Control_c, 0, 67, 62
1, 37214, Note_off_c, 0, 72, 54
1, 37217, Control_c, 0, 67, 62
1, 37231, Control_c, 0, 67, 63
1, 37246, Control_c, 0, 67, 63
1, 37261, Control_c, 0, 67, 64
1, 37276, Control_c, 0, 67, 64
1, 37291, Control_c, 0, 64, 40
1, 37291, Control_c, 0, 67, 65
1, 37313, Control_c, 0, 64, 62
1, 37313, Control_c, 0, 67, 65
1, 37328, Control_c, 0, 64, 67
1, 37328, Control_c, 0, 67, 66
1, 37343, Control_c, 0, 64, 71
1, 37343, Control_c, 0, 67, 66
1, 37349, Note_on_c, 0, 68, 66
1, 37357, Control_c, 0, 64, 75
1, 37372, Control_c, 0, 64, 79
1, 37372, Control_c, 0, 67, 67
1, 37387, Control_c, 0, 64, 83
1, 37387, Control_c, 0, 67, 67
1, 37396, Note_off_c, 0, 70, 55
1, 37402, Control_c, 0, 64, 85
1, 37417, Control_c, 0, 64, 87
1, 37417, Control_c, 0, 67, 68
1, 37431, Control_c, 0, 64, 88
1, 37431, Control_c, 0, 67, 68
1, 37461, Control_c, 0, 64, 88
1, 37476, Control_c, 0, 67, 69
1, 37482, Note_off_c, 0, 68, 60
1, 37508, Note_on_c, 0, 59, 59
1, 37533, Note_on_c, 0, 67, 69
1, 37535, Control_c, 0, 67, 69
1, 37595, Control_c, 0, 67, 70
1, 37683, Control_c, 0, 64, 88
1, 37698, Control_c, 0, 64, 84
1, 37711, Note_on_c, 0, 48, 79
1, 37713, Control_c, 0, 64, 76
1, 37717, Note_off_c, 0, 67, 61
1, 37722, Note_on_c, 0, 63, 60
1, 37727, Note_on_c, 0, 39, 59
1, 37728, Note_off_c, 0, 59, 60
1, 37729, Control_c, 0, 64, 66
1, 37729, Control_c, 0, 67, 70
1, 37744, Control_c, 0, 64, 0
1, 37759, Control_c, 0, 67, 71
1, 37772, Note_off_c, 0, 38, 41
1, 37773, Control_c, 0, 67, 71
1, 37786, Note_off_c, 0, 46, 56
1, 37788, Control_c, 0, 67, 72
1, 37803, Control_c, 0, 67, 72
1, 37818, Control_c, 0, 67, 73
1, 37833, Control_c, 0, 67, 74
1, 37847, Control_c, 0, 67, 76
1, 37862, Control_c, 0, 64, 61
1, 37862, Control_c, 0, 67, 78
1, 37877, Control_c, 0, 64, 70
1, 37877, Control_c, 0, 67, 81
1, 37892, Control_c, 0, 64, 78
1, 37892, Control_c, 0, 67, 83
1, 37895, Note_off_c, 0, 39, 60
1, 37907, Control_c, 0, 64, 86
1, 37907, Control_c, 0, 67, 85
1, 37916, Note_off_c, 0, 63, 58
1, 37920, Note_on_c, 0, 60, 62
1, 37922, Control_c, 0, 64, 93
1, 37922, Control_c, 0, 67, 87
1, 37937, Control_c, 0, 64, 96
1, 37937, Control_c, 0, 67, 88
1, 37952, Control_c, 0, 64, 97
1, 37952, Control_c, 0, 67, 89
1, 38041, Control_c, 0, 64, 96
1, 38069, Note_on_c, 0, 56, 65
1, 38093, Control_c, 0, 64, 96
1, 38105, Note_off_c, 0, 60, 51
1, 38108, Control_c, 0, 64, 94
1, 38121, Note_on_c, 0, 50, 75
1, 38122, Control_c, 0, 64, 90
1, 38122, Control_c, 0, 67, 89
1, 38130, Note_off_c, 0, 48, 61
1, 38137, Note_on_c, 0, 41, 69
1, 38137, Control_c, 0, 64, 80
1, 38149, Note_on_c, 0, 68, 65
1, 38152, Control_c, 0, 64, 70
1, 38167, Control_c, 0, 64, 58
1, 38167, Control_c, 0, 67, 89
1, 38181, Control_c, 0, 64, 0
1, 38200, Note_off_c, 0, 56, 56
1, 38226, Control_c, 0, 67, 90
1, 38310, Note_on_c, 0, 51, 81
1, 38318, Note_on_c, 0, 43, 64
1, 38322, Note_on_c, 0, 67, 67
1, 38325, Note_off_c, 0, 41, 54
1, 38335, Note_off_c, 0, 50, 63
1, 38406, Note_off_c, 0, 68, 38
1, 38477, Control_c, 0, 67, 89
1, 38492, Control_c, 0, 67, 89
1, 38507, Control_c, 0, 67, 88
1, 38507, Note_on_c, 0, 50, 74
1, 38510, Note_on_c, 0, 65, 68
1, 38515, Note_on_c, 0, 41, 63
1, 38516, Note_off_c, 0, 51, 63
1, 38523, Control_c, 0, 67, 88
1, 38533, Note_off_c, 0, 67, 50
1, 38538, Control_c, 0, 67, 87
1, 38552, Control_c, 0, 67, 86
1, 38556, Note_off_c, 0, 43, 63
1, 38567, Control_c, 0, 67, 86
1, 38596, Control_c, 0, 67, 85
1, 38611, Control_c, 0, 67, 85
1, 38641, Control_c, 0, 64, 14
1, 38641, Control_c, 0, 67, 84
1, 38656, Control_c, 0, 64, 64
1, 38656, Control_c, 0, 67, 83
1, 38671, Control_c, 0, 64, 71
1, 38671, Control_c, 0, 67, 82
1, 38680, Note_off_c, 0, 65, 64
1, 38684, Note_on_c, 0, 60, 68
1, 38686, Control_c, 0, 64, 78
1, 38686, Control_c, 0, 67, 81
1, 38701, Control_c, 0, 64, 85
1, 38701, Control_c, 0, 67, 80
1, 38716, Control_c, 0, 64, 91
1, 38716, Control_c, 0, 67, 78
1, 38730, Control_c, 0, 64, 94
1, 38730, Control_c, 0, 67, 78
1, 38745, Control_c, 0, 64, 96
1, 38745, Control_c, 0, 67, 77
1, 38760, Control_c, 0, 64, 96
1, 38760, Control_c, 0, 67, 76
1, 38764, Note_off_c, 0, 60, 64
1, 38775, Control_c, 0, 64, 97
1, 38775, Control_c, 0, 67, 75
1, 38790, Control_c, 0, 67, 73
1, 38811, Control_c, 0, 67, 72
1, 38826, Control_c, 0, 67, 71
1, 38841, Control_c, 0, 67, 69
1, 38856, Control_c, 0, 67, 67
1, 38869, Note_on_c, 0, 53, 77
1, 38871, Control_c, 0, 67, 65
1, 38886, Control_c, 0, 67, 63
1, 38894, Note_off_c, 0, 50, 67
1, 38900, Control_c, 0, 67, 60
1, 38915, Control_c, 0, 67, 58
1, 38930, Control_c, 0, 67, 56
1, 38945, Control_c, 0, 67, 53
1, 38960, Control_c, 0, 67, 50
1, 38975, Control_c, 0, 67, 46
1, 38990, Control_c, 0, 67, 43
1, 38998, Note_off_c, 0, 41, 63
1, 39004, Control_c, 0, 67, 39
1, 39019, Control_c, 0, 67, 35
1, 39023, Note_off_c, 0, 53, 65
1, 39034, Control_c, 0, 67, 32
1, 39038, Note_on_c, 0, 48, 83
1, 39049, Control_c, 0, 67, 28
1, 39064, Control_c, 0, 67, 23
1, 39078, Control_c, 0, 67, 18
1, 39093, Control_c, 0, 67, 12
1, 39108, Control_c, 0, 67, 0
1, 39167, Control_c, 0, 64, 96
1, 39182, Control_c, 0, 64, 96
1, 39196, Control_c, 0, 64, 95
1, 39211, Control_c, 0, 64, 95
1, 39226, Control_c, 0, 64, 93
1, 39241, Control_c, 0, 64, 91
1, 39242, Note_on_c, 0, 44, 88
1, 39256, Control_c, 0, 64, 89
1, 39270, Note_off_c, 0, 48, 63
1, 39270, Control_c, 0, 64, 84
1, 39285, Control_c, 0, 64, 75
1, 39300, Control_c, 0, 64, 67
1, 39315, Control_c, 0, 64, 53
1, 39331, Control_c, 0, 64, 0
1, 39431, Note_on_c, 0, 34, 92
1, 39590, Control_c, 0, 64, 31
1, 39605, Control_c, 0, 64, 53
1, 39620, Control_c, 0, 64, 63
1, 39624, Note_on_c, 0, 43, 83
1, 39628, Note_off_c, 0, 44, 63
1, 39634, Control_c, 0, 64, 68
1, 39649, Control_c, 0, 64, 73
1, 39664, Control_c, 0, 64, 81
1, 39679, Control_c, 0, 64, 86
1, 39694, Control_c, 0, 64, 90
1, 39708, Control_c, 0, 64, 92
1, 39753, Control_c, 0, 64, 89
1, 39768, Control_c, 0, 64, 83
1, 39783, Control_c, 0, 64, 76
1, 39794, Note_on_c, 0, 47, 82
1, 39798, Control_c, 0, 64, 67
1, 39803, Note_off_c, 0, 43, 64
1, 39813, Control_c, 0, 64, 48
1, 39827, Control_c, 0, 64, 0
1, 39827, Control_c, 0, 67, 8
1, 39842, Control_c, 0, 67, 8
1, 39872, Control_c, 0, 67, 9
1, 39901, Control_c, 0, 67, 9
1, 39960, Control_c, 0, 67, 10
1, 39972, Note_on_c, 0, 44, 85
1, 39975, Note_on_c, 0, 50, 81
1, 39993, Note_off_c, 0, 47, 65
1, 39995, Note_off_c, 0, 34, 59
1, 40005, Control_c, 0, 64, 54
1, 40005, Control_c, 0, 67, 10
1, 40019, Control_c, 0, 64, 65
1, 40019, Control_c, 0, 67, 11
1, 40034, Control_c, 0, 64, 71
1, 40049, Control_c, 0, 64, 78
1, 40061, Note_off_c, 0, 50, 65
1, 40064, Control_c, 0, 64, 83
1, 40078, Control_c, 0, 64, 85
1, 40093, Control_c, 0, 64, 87
1, 40108, Control_c, 0, 64, 88
1, 40112, Note_off_c, 0, 44, 62
1, 40124, Control_c, 0, 64, 88
1, 40139, Control_c, 0, 64, 89
1, 40156, Note_on_c, 0, 53, 82
1, 40272, Control_c, 0, 64, 88
1, 40287, Control_c, 0, 64, 84
1, 40310, Control_c, 0, 64, 74
1, 40324, Control_c, 0, 64, 36
1, 40325, Note_on_c, 0, 56, 77
1, 40329, Note_on_c, 0, 52, 80
1, 40339, Control_c, 0, 64, 0
1, 40369, Note_off_c, 0, 53, 45
1, 40398, Control_c, 0, 67, 11
1, 40488, Control_c, 0, 64, 62
1, 40488, Control_c, 0, 67, 11
1, 40500, Note_on_c, 0, 60, 74
1, 40503, Control_c, 0, 64, 71
1, 40503, Control_c, 0, 67, 10
1, 40506, Note_off_c, 0, 56, 65
1, 40518, Control_c, 0, 64, 82
1, 40518, Control_c, 0, 67, 9
1, 40532, Control_c, 0, 64, 95
1, 40532, Control_c, 0, 67, 8
1, 40547, Control_c, 0, 64, 108
1, 40547, Control_c, 0, 67, 8
1, 40562, Control_c, 0, 64, 119
1, 40562, Control_c, 0, 67, 0
1, 40564, Note_off_c, 0, 60, 66
1, 40576, Control_c, 0, 64, 124
1, 40591, Control_c, 0, 64, 126
1, 40650, Control_c, 0, 64, 119
1, 40664, Note_on_c, 0, 59, 91
1, 40665, Control_c, 0, 64, 100
1, 40671, Note_on_c, 0, 64, 83
1, 40680, Control_c, 0, 64, 81
1, 40695, Control_c, 0, 64, 63
1, 40695, Note_off_c, 0, 52, 41
1, 40710, Control_c, 0, 64, 0
1, 40799, Control_c, 0, 64, 63
1, 40814, Control_c, 0, 64, 74
1, 40816, Note_off_c, 0, 59, 62
1, 40829, Control_c, 0, 64, 88
1, 40831, Note_on_c, 0, 67, 87
1, 40844, Control_c, 0, 64, 117
1, 40854, Note_off_c, 0, 64, 62
1, 40858, Control_c, 0, 64, 127
1, 40978, Control_c, 0, 64, 97
1, 40992, Control_c, 0, 64, 68
1, 40993, Note_on_c, 0, 65, 97
1, 40993, Note_on_c, 0, 71, 84
1, 40999, Note_off_c, 0, 67, 64
1, 41007, Control_c, 0, 64, 0
1, 41076, Note_off_c, 0, 71, 64
1, 41118, Control_c, 0, 64, 61
1, 41133, Control_c, 0, 64, 74
1, 41148, Control_c, 0, 64, 89
1, 41163, Control_c, 0, 64, 127
1, 41172, Note_on_c, 0, 74, 91
1, 41177, Note_off_c, 0, 65, 66
1, 41310, Control_c, 0, 64, 87
1, 41316, Note_on_c, 0, 72, 103
1, 41319, Note_on_c, 0, 77, 87
1, 41324, Control_c, 0, 64, 63
1, 41339, Control_c, 0, 64, 0
1, 41348, Note_off_c, 0, 74, 60
1, 41428, Control_c, 0, 64, 61
1, 41443, Control_c, 0, 64, 75
1, 41445, Note_on_c, 0, 80, 92
1, 41458, Control_c, 0, 64, 96
1, 41473, Control_c, 0, 64, 127
1, 41491, Note_off_c, 0, 77, 60
1, 41499, Note_off_c, 0, 72, 61
1, 41533, Note_on_c, 0, 84, 93
1, 41563, Note_off_c, 0, 80, 62
1, 41622, Note_on_c, 0, 76, 106
1, 41634, Note_off_c, 0, 84, 61
1, 41651, Control_c, 0, 64, 92
1, 41665, Control_c, 0, 64, 65
1, 41680, Control_c, 0, 64, 0
1, 41720, Note_on_c, 0, 84, 94
1, 41726, Control_c, 0, 64, 55
1, 41740, Control_c, 0, 64, 71
1, 41755, Control_c, 0, 64, 89
1, 41770, Control_c, 0, 64, 127
1, 41821, Note_on_c, 0, 80, 93
1, 41842, Note_off_c, 0, 84, 65
1, 41894, Note_off_c, 0, 76, 57
1, 41910, Note_on_c, 0, 77, 99
1, 41926, Control_c, 0, 64, 94
1, 41941, Control_c, 0, 64, 65
1, 41955, Control_c, 0, 64, 0
1, 42006, Note_off_c, 0, 80, 62
1, 42010, Note_on_c, 0, 84, 95
1, 42029, Control_c, 0, 64, 64
1, 42044, Control_c, 0, 64, 82
1, 42059, Control_c, 0, 64, 119
1, 42074, Control_c, 0, 64, 127
1, 42102, Note_on_c, 0, 80, 94
1, 42126, Note_off_c, 0, 84, 66
1, 42223, Note_on_c, 0, 79, 101
1, 42227, Note_on_c, 0, 84, 101
1, 42230, Note_off_c, 0, 80, 67
1, 42245, Note_off_c, 0, 77, 46
1, 42251, Control_c, 0, 64, 102
1, 42266, Control_c, 0, 64, 76
1, 42281, Control_c, 0, 64, 26
1, 42296, Control_c, 0, 64, 0
1, 42406, Note_on_c, 0, 80, 89
1, 42414, Control_c, 0, 64, 58
1, 42429, Control_c, 0, 64, 70
1, 42433, Note_off_c, 0, 84, 63
1, 42444, Control_c, 0, 64, 80
1, 42459, Control_c, 0, 64, 92
1, 42473, Control_c, 0, 64, 102
1, 42477, Note_off_c, 0, 79, 63
1, 42488, Control_c, 0, 64, 105
1, 42582, Note_on_c, 0, 76, 91
1, 42600, Control_c, 0, 64, 103
1, 42615, Note_off_c, 0, 80, 63
1, 42615, Control_c, 0, 64, 96
1, 42630, Control_c, 0, 64, 86
1, 42644, Control_c, 0, 64, 75
1, 42659, Control_c, 0, 64, 64
1, 42674, Control_c, 0, 64, 26
1, 42689, Control_c, 0, 64, 0
1, 42739, Note_on_c, 0, 72, 83
1, 42743, Note_off_c, 0, 76, 63
1, 42778, Control_c, 0, 67, 8
1, 42852, Control_c, 0, 67, 9
1, 42867, Control_c, 0, 67, 11
1, 42882, Control_c, 0, 67, 13
1, 42893, Note_on_c, 0, 68, 83
1, 42896, Control_c, 0, 67, 14
1, 42897, Note_off_c, 0, 72, 63
1, 42911, Control_c, 0, 67, 16
1, 42926, Control_c, 0, 67, 21
1, 42941, Control_c, 0, 67, 27
1, 42956, Control_c, 0, 67, 33
1, 42970, Control_c, 0, 67, 39
1, 42985, Control_c, 0, 67, 44
1, 43000, Control_c, 0, 67, 47
1, 43015, Control_c, 0, 67, 50
1, 43030, Control_c, 0, 67, 53
1, 43044, Control_c, 0, 67, 56
1, 43047, Note_on_c, 0, 64, 83
1, 43059, Control_c, 0, 67, 59
1, 43061, Note_off_c, 0, 68, 63
1, 43074, Control_c, 0, 67, 61
1, 43089, Control_c, 0, 67, 61
1, 43104, Control_c, 0, 67, 62
1, 43118, Control_c, 0, 67, 62
1, 43148, Control_c, 0, 67, 63
1, 43163, Control_c, 0, 67, 64
1, 43178, Control_c, 0, 67, 65
1, 43193, Control_c, 0, 67, 68
1, 43208, Control_c, 0, 67, 69
1, 43223, Control_c, 0, 67, 71
1, 43223, Note_on_c, 0, 67, 74
1, 43237, Control_c, 0, 67, 72
1, 43252, Control_c, 0, 67, 74
1, 43267, Control_c, 0, 67, 76
1, 43282, Control_c, 0, 67, 78
1, 43291, Note_off_c, 0, 64, 63
1, 43303, Control_c, 0, 67, 81
1, 43319, Control_c, 0, 67, 83
1, 43334, Control_c, 0, 67, 86
1, 43349, Control_c, 0, 67, 89
1, 43364, Control_c, 0, 67, 92
1, 43379, Control_c, 0, 67, 95
1, 43393, Control_c, 0, 67, 98
1, 43399, Note_on_c, 0, 63, 67
1, 43408, Control_c, 0, 67, 104
1, 43424, Control_c, 0, 67, 109
1, 43439, Control_c, 0, 67, 114
1, 43452, Note_off_c, 0, 67, 55
1, 43454, Control_c, 0, 67, 120
1, 43468, Control_c, 0, 67, 126
1, 43483, Control_c, 0, 67, 127
1, 43576, Note_on_c, 0, 59, 68
1, 43613, Note_off_c, 0, 63, 62
1, 43729, Note_off_c, 0, 59, 58
1, 43730, Note_on_c, 0, 55, 65
1, 43922, Note_on_c, 0, 52, 65
1, 43946, Note_off_c, 0, 55, 61
1, 44123, Note_on_c, 0, 48, 67
1, 44186, Note_off_c, 0, 52, 57
1, 44356, Note_on_c, 0, 43, 45
1, 44371, Note_on_c, 0, 47, 57
1, 44429, Note_on_c, 0, 35, 45
1, 44445, Note_on_c, 0, 51, 61
1, 44498, Note_off_c, 0, 43, 34
1, 44526, Note_off_c, 0, 48, 57
1, 44643, Note_off_c, 0, 47, 55
1, 44866, Note_on_c, 0, 32, 55
1, 44953, Note_off_c, 0, 35, 54
1, 45229, Note_on_c, 0, 31, 63
1, 45292, Note_off_c, 0, 32, 49
1, 45627, Note_off_c, 0, 31, 45
1, 45637, Note_on_c, 0, 34, 52
1, 45906, Note_on_c, 0, 42, 36
1, 45949, Note_on_c, 0, 46, 44
1, 46008, Note_on_c, 0, 50, 50
1, 46023, Note_off_c, 0, 42, 38
1, 46025, Note_on_c, 0, 30, 44
1, 46069, Note_off_c, 0, 34, 37
1, 46105, Note_off_c, 0, 51, 53
1, 46114, Note_off_c, 0, 46, 47
1, 46495, Note_on_c, 0, 29, 43
1, 46528, Note_off_c, 0, 30, 41
1, 46874, Note_on_c, 0, 32, 44
1, 46877, Note_off_c, 0, 29, 50
1, 47121, Note_on_c, 0, 54, 53
1, 47123, Note_off_c, 0, 50, 48
1, 47173, Note_off_c, 0, 54, 60
1, 47174, Note_on_c, 0, 58, 56
1, 47216, Note_on_c, 0, 61, 55
1, 47243, Note_off_c, 0, 58, 58
1, 47245, Note_off_c, 0, 32, 43
1, 47247, Note_on_c, 0, 28, 42
1, 47278, Note_on_c, 0, 62, 54
1, 47306, Note_off_c, 0, 61, 46
1, 47657, Control_c, 0, 64, 23
1, 47667, Note_on_c, 0, 30, 37
1, 47672, Control_c, 0, 64, 29
1, 47683, Note_off_c, 0, 28, 41
1, 47686, Control_c, 0, 64, 34
1, 47701, Control_c, 0, 64, 38
1, 47716, Control_c, 0, 64, 42
1, 47731, Control_c, 0, 64, 44
1, 47746, Control_c, 0, 64, 46
1, 47760, Control_c, 0, 64, 47
1, 47775, Control_c, 0, 64, 48
1, 47798, Control_c, 0, 64, 49
1, 47813, Control_c, 0, 64, 50
1, 47975, Control_c, 0, 64, 50
1, 47990, Control_c, 0, 64, 51
1, 48005, Control_c, 0, 64, 53
1, 48020, Control_c, 0, 64, 56
1, 48034, Control_c, 0, 64, 59
1, 48049, Control_c, 0, 64, 61
1, 48064, Control_c, 0, 64, 62
1, 48079, Control_c, 0, 64, 63
1, 48094, Control_c, 0, 64, 63
1, 48139, Control_c, 0, 64, 64
1, 48183, Control_c, 0, 64, 63
1, 48188, Note_on_c, 0, 26, 36
1, 48198, Control_c, 0, 64, 63
1, 48213, Control_c, 0, 64, 61
1, 48228, Control_c, 0, 64, 57
1, 48243, Control_c, 0, 64, 49
1, 48257, Note_off_c, 0, 30, 42
1, 48258, Control_c, 0, 64, 32
1, 48272, Control_c, 0, 64, 0
1, 48347, Control_c, 0, 64, 32
1, 48362, Control_c, 0, 64, 62
1, 48377, Control_c, 0, 64, 67
1, 48391, Control_c, 0, 64, 73
1, 48406, Control_c, 0, 64, 79
1, 48421, Control_c, 0, 64, 85
1, 48436, Control_c, 0, 64, 90
1, 48451, Control_c, 0, 64, 93
1, 48465, Control_c, 0, 64, 96
1, 48480, Control_c, 0, 64, 96
1, 48524, Control_c, 0, 64, 97
1, 48562, Control_c, 0, 64, 97
1, 48606, Note_on_c, 0, 67, 42
1, 48658, Note_off_c, 0, 67, 58
1, 48677, Note_on_c, 0, 70, 48
1, 48716, Note_off_c, 0, 70, 63
1, 48743, Note_on_c, 0, 73, 56
1, 48816, Note_off_c, 0, 73, 60
1, 48830, Note_on_c, 0, 74, 58
1, 48840, Note_on_c, 0, 31, 35
1, 48856, Control_c, 0, 64, 95
1, 48871, Control_c, 0, 64, 90
1, 48886, Control_c, 0, 64, 79
1, 48901, Control_c, 0, 64, 70
1, 48916, Control_c, 0, 64, 63
1, 48931, Control_c, 0, 64, 61
1, 48946, Control_c, 0, 64, 63
1, 48961, Control_c, 0, 64, 66
1, 48976, Control_c, 0, 64, 70
1, 48991, Control_c, 0, 64, 74
1, 49005, Control_c, 0, 64, 80
1, 49020, Control_c, 0, 64, 86
1, 49035, Control_c, 0, 64, 92
1, 49050, Control_c, 0, 64, 98
1, 49065, Control_c, 0, 64, 103
1, 49079, Control_c, 0, 64, 107
1, 49094, Control_c, 0, 64, 111
1, 49109, Control_c, 0, 64, 115
1, 49124, Control_c, 0, 64, 120
1, 49138, Control_c, 0, 64, 127
1, 49160, Note_off_c, 0, 62, 36
1, 49304, Note_on_c, 0, 32, 42
1, 49334, Note_on_c, 0, 62, 39
1, 49401, Note_off_c, 0, 31, 42
1, 49665, Note_off_c, 0, 62, 30
1, 49673, Note_on_c, 0, 33, 56
1, 49769, Note_off_c, 0, 32, 40
1, 49827, Note_on_c, 0, 62, 53
1, 49854, Note_off_c, 0, 74, 49
1, 49877, Note_on_c, 0, 67, 62
1, 49922, Note_on_c, 0, 70, 66
1, 49933, Control_c, 0, 64, 122
1, 49948, Control_c, 0, 64, 117
1, 49948, Note_on_c, 0, 73, 77
1, 49962, Control_c, 0, 64, 109
1, 49977, Control_c, 0, 64, 97
1, 49992, Note_on_c, 0, 34, 63
1, 49992, Note_off_c, 0, 67, 56
1, 49992, Control_c, 0, 64, 84
1, 49998, Note_on_c, 0, 74, 79
1, 50007, Control_c, 0, 64, 72
1, 50009, Note_off_c, 0, 33, 52
1, 50010, Note_off_c, 0, 70, 57
1, 50022, Control_c, 0, 64, 41
1, 50043, Control_c, 0, 64, 0
1, 50088, Note_off_c, 0, 73, 57
1, 50132, Control_c, 0, 64, 21
1, 50147, Control_c, 0, 64, 64
1, 50162, Control_c, 0, 64, 72
1, 50177, Control_c, 0, 64, 80
1, 50192, Control_c, 0, 64, 90
1, 50207, Control_c, 0, 64, 101
1, 50222, Control_c, 0, 64, 113
1, 50236, Control_c, 0, 64, 127
1, 50282, Note_off_c, 0, 62, 59
1, 50371, Note_on_c, 0, 62, 80
1, 50377, Note_on_c, 0, 35, 57
1, 50484, Note_off_c, 0, 26, 41
1, 50745, Note_off_c, 0, 34, 37
1, 50753, Note_on_c, 0, 68, 72
1, 50756, Control_c, 0, 64, 123
1, 50770, Note_on_c, 0, 36, 56
1, 50770, Control_c, 0, 64, 115
1, 50773, Note_on_c, 0, 29, 48
1, 50792, Control_c, 0, 64, 106
1, 50807, Control_c, 0, 64, 96
1, 50822, Control_c, 0, 64, 84
1, 50837, Control_c, 0, 64, 74
1, 50852, Control_c, 0, 64, 64
1, 50866, Control_c, 0, 64, 0
1, 50885, Note_off_c, 0, 62, 58
1, 50893, Note_off_c, 0, 74, 58
1, 50895, Note_off_c, 0, 35, 62
1, 51000, Control_c, 0, 64, 61
1, 51015, Control_c, 0, 64, 69
1, 51029, Control_c, 0, 64, 75
1, 51044, Control_c, 0, 64, 82
1, 51059, Control_c, 0, 64, 86
1, 51104, Control_c, 0, 64, 83
1, 51118, Control_c, 0, 64, 79
1, 51133, Control_c, 0, 64, 72
1, 51148, Control_c, 0, 64, 65
1, 51158, Note_on_c, 0, 37, 53
1, 51161, Note_on_c, 0, 72, 58
1, 51163, Control_c, 0, 64, 42
1, 51178, Control_c, 0, 64, 0
1, 51266, Note_off_c, 0, 36, 47
1, 51311, Note_off_c, 0, 68, 57
1, 51326, Control_c, 0, 64, 17
1, 51341, Control_c, 0, 64, 62
1, 51356, Control_c, 0, 64, 70
1, 51371, Control_c, 0, 64, 76
1, 51386, Control_c, 0, 64, 82
1, 51400, Control_c, 0, 64, 86
1, 51415, Control_c, 0, 64, 87
1, 51430, Control_c, 0, 64, 88
1, 51474, Control_c, 0, 64, 87
1, 51489, Control_c, 0, 64, 82
1, 51504, Control_c, 0, 64, 75
1, 51519, Control_c, 0, 64, 64
1, 51539, Note_on_c, 0, 70, 50
1, 51541, Control_c, 0, 64, 0
1, 51543, Note_on_c, 0, 38, 54
1, 51578, Note_off_c, 0, 72, 53
1, 51648, Note_off_c, 0, 37, 58
1, 51660, Note_off_c, 0, 29, 46
1, 51674, Control_c, 0, 64, 40
1, 51689, Control_c, 0, 64, 66
1, 51703, Control_c, 0, 64, 74
1, 51718, Control_c, 0, 64, 85
1, 51733, Control_c, 0, 64, 102
1, 51748, Control_c, 0, 64, 119
1, 51762, Note_off_c, 0, 70, 63
1, 51763, Control_c, 0, 64, 127
1, 51904, Note_on_c, 0, 39, 59
1, 51926, Control_c, 0, 64, 110
1, 51930, Note_on_c, 0, 31, 57
1, 51940, Control_c, 0, 64, 94
1, 51955, Control_c, 0, 64, 79
1, 51970, Control_c, 0, 64, 65
1, 51985, Control_c, 0, 64, 0
1, 51986, Note_off_c, 0, 38, 54
1, 52099, Note_on_c, 0, 68, 60
1, 52130, Note_on_c, 0, 74, 64
1, 52167, Note_on_c, 0, 77, 65
1, 52187, Note_on_c, 0, 79, 72
1, 52232, Note_off_c, 0, 77, 61
1, 52235, Note_off_c, 0, 74, 58
1, 52236, Note_on_c, 0, 80, 86
1, 52254, Note_on_c, 0, 40, 60
1, 52270, Note_off_c, 0, 39, 52
1, 52282, Note_off_c, 0, 79, 62
1, 52326, Note_off_c, 0, 68, 50
1, 52452, Control_c, 0, 64, 43
1, 52467, Control_c, 0, 64, 63
1, 52481, Control_c, 0, 64, 67
1, 52496, Control_c, 0, 64, 72
1, 52511, Control_c, 0, 64, 75
1, 52526, Control_c, 0, 64, 78
1, 52541, Control_c, 0, 64, 82
1, 52556, Control_c, 0, 64, 85
1, 52571, Control_c, 0, 64, 90
1, 52586, Control_c, 0, 64, 94
1, 52601, Control_c, 0, 64, 98
1, 52604, Note_on_c, 0, 41, 62
1, 52607, Note_on_c, 0, 68, 74
1, 52616, Control_c, 0, 64, 101
1, 52630, Control_c, 0, 64, 102
1, 52645, Control_c, 0, 64, 103
1, 52660, Control_c, 0, 64, 104
1, 52674, Control_c, 0, 64, 106
1, 52689, Control_c, 0, 64, 108
1, 52704, Control_c, 0, 64, 110
1, 52706, Note_off_c, 0, 31, 40
1, 52711, Note_off_c, 0, 40, 38
1, 52719, Control_c, 0, 64, 112
1, 52734, Control_c, 0, 64, 113
1, 52748, Control_c, 0, 64, 114
1, 52778, Control_c, 0, 64, 115
1, 52780, Note_off_c, 0, 80, 59
1, 52793, Control_c, 0, 64, 116
1, 52807, Control_c, 0, 64, 116
1, 52822, Control_c, 0, 64, 117
1, 52852, Control_c, 0, 64, 117
1, 52985, Note_on_c, 0, 79, 71
1, 52986, Control_c, 0, 64, 117
1, 53012, Note_on_c, 0, 35, 36
1, 53016, Note_on_c, 0, 43, 46
1, 53039, Control_c, 0, 64, 116
1, 53053, Control_c, 0, 64, 111
1, 53068, Control_c, 0, 64, 103
1, 53083, Control_c, 0, 64, 93
1, 53098, Control_c, 0, 64, 83
1, 53112, Control_c, 0, 64, 73
1, 53127, Control_c, 0, 64, 62
1, 53130, Note_off_c, 0, 41, 61
1, 53142, Control_c, 0, 64, 0
1, 53158, Note_off_c, 0, 68, 57
1, 53381, Note_on_c, 0, 44, 51
1, 53383, Note_on_c, 0, 65, 42
1, 53429, Note_off_c, 0, 43, 57
1, 53483, Control_c, 0, 64, 54
1, 53498, Control_c, 0, 64, 67
1, 53513, Control_c, 0, 64, 74
1, 53516, Note_off_c, 0, 79, 54
1, 53528, Control_c, 0, 64, 82
1, 53543, Control_c, 0, 64, 93
1, 53558, Control_c, 0, 64, 101
1, 53572, Control_c, 0, 64, 107
1, 53587, Control_c, 0, 64, 113
1, 53602, Control_c, 0, 64, 119
1, 53617, Control_c, 0, 64, 127
1, 53754, Note_on_c, 0, 45, 49
1, 53766, Note_on_c, 0, 67, 49
1, 53858, Note_off_c, 0, 65, 59
1, 53862, Note_off_c, 0, 44, 53
1, 53880, Note_off_c, 0, 35, 41
1, 54010, Control_c, 0, 64, 126
1, 54084, Control_c, 0, 64, 124
1, 54114, Control_c, 0, 64, 123
1, 54128, Control_c, 0, 64, 122
1, 54143, Control_c, 0, 64, 120
1, 54158, Control_c, 0, 64, 118
1, 54169, Note_on_c, 0, 46, 46
1, 54173, Control_c, 0, 64, 116
1, 54175, Note_on_c, 0, 63, 42
1, 54183, Note_on_c, 0, 36, 44
1, 54188, Control_c, 0, 64, 111
1, 54202, Control_c, 0, 64, 99
1, 54217, Control_c, 0, 64, 87
1, 54232, Control_c, 0, 64, 74
1, 54246, Control_c, 0, 64, 64
1, 54247, Note_off_c, 0, 45, 36
1, 54261, Control_c, 0, 64, 43
1, 54276, Control_c, 0, 64, 0
1, 54321, Control_c, 0, 64, 26
1, 54336, Control_c, 0, 64, 48
1, 54350, Control_c, 0, 64, 63
1, 54365, Control_c, 0, 64, 69
1, 54380, Control_c, 0, 64, 76
1, 54395, Control_c, 0, 64, 88
1, 54410, Control_c, 0, 64, 100
1, 54425, Control_c, 0, 64, 110
1, 54440, Control_c, 0, 64, 120
1, 54454, Control_c, 0, 64, 127
1, 54537, Control_c, 0, 64, 117
1, 54551, Control_c, 0, 64, 99
1, 54566, Control_c, 0, 64, 84
1, 54568, Note_on_c, 0, 75, 55
1, 54571, Note_on_c, 0, 48, 48
1, 54581, Control_c, 0, 64, 70
1, 54596, Control_c, 0, 64, 51
1, 54600, Note_off_c, 0, 67, 56
1, 54611, Control_c, 0, 64, 0
1, 54630, Note_off_c, 0, 46, 36
1, 54640, Control_c, 0, 64, 24
1, 54655, Control_c, 0, 64, 50
1, 54670, Control_c, 0, 64, 63
1, 54684, Control_c, 0, 64, 70
1, 54699, Control_c, 0, 64, 77
1, 54714, Control_c, 0, 64, 87
1, 54729, Control_c, 0, 64, 97
1, 54744, Control_c, 0, 64, 106
1, 54753, Note_off_c, 0, 48, 56
1, 54759, Control_c, 0, 64, 110
1, 54774, Control_c, 0, 64, 113
1, 54789, Control_c, 0, 64, 116
1, 54804, Control_c, 0, 64, 119
1, 54818, Control_c, 0, 64, 124
1, 54833, Control_c, 0, 64, 127
1, 54932, Note_on_c, 0, 74, 72
1, 54946, Note_on_c, 0, 50, 48
1, 54946, Note_off_c, 0, 75, 63
1, 54958, Note_off_c, 0, 36, 39
1, 55048, Note_off_c, 0, 50, 59
1, 55118, Note_off_c, 0, 63, 53
1, 55300, Control_c, 0, 64, 126
1, 55305, Note_on_c, 0, 72, 63
1, 55314, Note_on_c, 0, 51, 51
1, 55315, Control_c, 0, 64, 95
1, 55319, Note_on_c, 0, 38, 41
1, 55327, Note_on_c, 0, 63, 49
1, 55330, Control_c, 0, 64, 74
1, 55345, Control_c, 0, 64, 41
1, 55360, Control_c, 0, 64, 0
1, 55400, Note_off_c, 0, 74, 45
1, 55404, Control_c, 0, 64, 42
1, 55418, Control_c, 0, 64, 64
1, 55433, Control_c, 0, 64, 72
1, 55447, Control_c, 0, 64, 84
1, 55462, Control_c, 0, 64, 98
1, 55477, Control_c, 0, 64, 114
1, 55486, Note_off_c, 0, 63, 53
1, 55492, Control_c, 0, 64, 127
1, 55531, Note_off_c, 0, 38, 41
1, 55546, Note_off_c, 0, 51, 62
1, 55674, Note_on_c, 0, 70, 66
1, 55703, Note_on_c, 0, 53, 54
1, 55708, Note_off_c, 0, 72, 58
1, 55713, Note_on_c, 0, 62, 43
1, 55714, Control_c, 0, 64, 94
1, 55729, Control_c, 0, 64, 73
1, 55744, Control_c, 0, 64, 63
1, 55759, Control_c, 0, 64, 62
1, 55773, Control_c, 0, 64, 64
1, 55788, Control_c, 0, 64, 67
1, 55803, Control_c, 0, 64, 71
1, 55818, Note_off_c, 0, 62, 60
1, 55818, Control_c, 0, 64, 78
1, 55832, Control_c, 0, 64, 85
1, 55846, Note_off_c, 0, 53, 61
1, 55847, Control_c, 0, 64, 93
1, 55862, Control_c, 0, 64, 101
1, 55877, Control_c, 0, 64, 105
1, 55892, Control_c, 0, 64, 106
1, 55921, Control_c, 0, 64, 107
1, 55966, Control_c, 0, 64, 106
1, 56011, Control_c, 0, 64, 105
1, 56032, Control_c, 0, 64, 97
1, 56047, Control_c, 0, 64, 84
1, 56062, Control_c, 0, 64, 69
1, 56067, Note_on_c, 0, 69, 55
1, 56075, Note_on_c, 0, 54, 40
1, 56077, Control_c, 0, 64, 0
1, 56082, Note_on_c, 0, 61, 49
1, 56089, Note_on_c, 0, 43, 34
1, 56133, Note_off_c, 0, 70, 46
1, 56183, Control_c, 0, 64, 58
1, 56197, Control_c, 0, 64, 70
1, 56212, Control_c, 0, 64, 82
1, 56227, Control_c, 0, 64, 97
1, 56242, Control_c, 0, 64, 117
1, 56254, Note_off_c, 0, 54, 62
1, 56256, Control_c, 0, 64, 127
1, 56332, Note_off_c, 0, 61, 36
1, 56390, Control_c, 0, 64, 119
1, 56404, Control_c, 0, 64, 90
1, 56419, Control_c, 0, 64, 70
1, 56434, Control_c, 0, 64, 0
1, 56442, Note_on_c, 0, 70, 59
1, 56444, Note_off_c, 0, 69, 50
1, 56452, Note_on_c, 0, 55, 41
1, 56464, Control_c, 0, 64, 26
1, 56475, Note_on_c, 0, 62, 48
1, 56479, Control_c, 0, 64, 62
1, 56490, Note_off_c, 0, 70, 62
1, 56494, Control_c, 0, 64, 70
1, 56509, Control_c, 0, 64, 78
1, 56512, Note_off_c, 0, 62, 61
1, 56523, Note_off_c, 0, 55, 59
1, 56523, Control_c, 0, 64, 89
1, 56538, Control_c, 0, 64, 101
1, 56553, Control_c, 0, 64, 114
1, 56568, Control_c, 0, 64, 127
1, 56714, Note_on_c, 0, 50, 56
1, 56730, Control_c, 0, 64, 118
1, 56745, Control_c, 0, 64, 107
1, 56760, Control_c, 0, 64, 96
1, 56772, Note_on_c, 0, 55, 56
1, 56776, Note_off_c, 0, 50, 62
1, 56783, Control_c, 0, 64, 83
1, 56786, Note_on_c, 0, 58, 65
1, 56798, Control_c, 0, 64, 73
1, 56812, Control_c, 0, 64, 64
1, 56822, Note_on_c, 0, 61, 58
1, 56824, Note_on_c, 0, 41, 56
1, 56827, Control_c, 0, 64, 46
1, 56833, Note_off_c, 0, 43, 57
1, 56836, Note_off_c, 0, 55, 59
1, 56842, Control_c, 0, 64, 0
1, 56848, Note_on_c, 0, 62, 68
1, 56853, Note_off_c, 0, 58, 60
1, 56865, Note_off_c, 0, 61, 57
1, 57164, Note_on_c, 0, 50, 54
1, 57168, Control_c, 0, 64, 14
1, 57178, Note_on_c, 0, 40, 58
1, 57181, Note_off_c, 0, 41, 61
1, 57183, Control_c, 0, 64, 63
1, 57197, Note_off_c, 0, 50, 67
1, 57198, Control_c, 0, 64, 70
1, 57213, Control_c, 0, 64, 78
1, 57224, Note_off_c, 0, 62, 63
1, 57227, Control_c, 0, 64, 89
1, 57242, Control_c, 0, 64, 100
1, 57257, Control_c, 0, 64, 110
1, 57272, Control_c, 0, 64, 113
1, 57287, Control_c, 0, 64, 114
1, 57435, Note_on_c, 0, 62, 58
1, 57464, Note_on_c, 0, 67, 61
1, 57479, Control_c, 0, 64, 110
1, 57486, Note_off_c, 0, 62, 49
1, 57492, Note_on_c, 0, 70, 68
1, 57494, Control_c, 0, 64, 99
1, 57507, Note_off_c, 0, 40, 60
1, 57509, Control_c, 0, 64, 84
1, 57529, Note_on_c, 0, 73, 67
1, 57531, Note_off_c, 0, 67, 62
1, 57531, Control_c, 0, 64, 65
1, 57540, Note_on_c, 0, 39, 51
1, 57546, Control_c, 0, 64, 0
1, 57554, Note_off_c, 0, 70, 62
1, 57568, Note_on_c, 0, 74, 74
1, 57581, Note_off_c, 0, 73, 58
1, 57888, Control_c, 0, 64, 60
1, 57902, Control_c, 0, 64, 68
1, 57917, Control_c, 0, 64, 77
1, 57924, Note_on_c, 0, 43, 47
1, 57926, Note_on_c, 0, 62, 55
1, 57932, Control_c, 0, 64, 88
1, 57947, Control_c, 0, 64, 102
1, 57949, Note_off_c, 0, 62, 61
1, 57952, Note_off_c, 0, 74, 63
1, 57962, Control_c, 0, 64, 127
1, 58163, Note_on_c, 0, 85, 77
1, 58184, Control_c, 0, 64, 94
1, 58199, Control_c, 0, 64, 70
1, 58213, Control_c, 0, 64, 0
1, 58217, Note_off_c, 0, 43, 59
1, 58220, Note_on_c, 0, 44, 60
1, 58233, Note_on_c, 0, 86, 75
1, 58237, Note_off_c, 0, 85, 63
1, 58300, Note_off_c, 0, 86, 62
1, 58306, Note_on_c, 0, 82, 84
1, 58360, Note_off_c, 0, 82, 64
1, 58384, Note_on_c, 0, 86, 81
1, 58456, Note_on_c, 0, 79, 68
1, 58460, Note_off_c, 0, 86, 62
1, 58497, Note_off_c, 0, 79, 60
1, 58500, Note_off_c, 0, 44, 60
1, 58503, Control_c, 0, 64, 60
1, 58518, Control_c, 0, 64, 70
1, 58522, Note_on_c, 0, 74, 80
1, 58533, Control_c, 0, 64, 78
1, 58539, Note_on_c, 0, 45, 61
1, 58542, Note_off_c, 0, 74, 71
1, 58548, Control_c, 0, 64, 89
1, 58562, Control_c, 0, 64, 102
1, 58577, Control_c, 0, 64, 116
1, 58592, Control_c, 0, 64, 122
1, 58637, Control_c, 0, 64, 123
1, 58651, Control_c, 0, 64, 126
1, 58751, Note_on_c, 0, 62, 63
1, 58770, Control_c, 0, 64, 124
1, 58785, Control_c, 0, 64, 114
1, 58794, Note_on_c, 0, 67, 68
1, 58799, Control_c, 0, 64, 104
1, 58801, Note_off_c, 0, 62, 52
1, 58814, Control_c, 0, 64, 92
1, 58818, Note_on_c, 0, 70, 71
1, 58829, Control_c, 0, 64, 79
1, 58837, Note_on_c, 0, 73, 78
1, 58843, Control_c, 0, 64, 67
1, 58849, Note_off_c, 0, 67, 62
1, 58850, Note_off_c, 0, 45, 58
1, 58858, Control_c, 0, 64, 0
1, 58859, Note_on_c, 0, 46, 54
1, 58870, Note_off_c, 0, 70, 65
1, 58879, Note_on_c, 0, 74, 83
1, 58911, Note_off_c, 0, 73, 63
1, 59258, Note_on_c, 0, 62, 66
1, 59259, Note_on_c, 0, 47, 51
1, 59323, Note_off_c, 0, 46, 42
1, 59341, Control_c, 0, 64, 59
1, 59356, Control_c, 0, 64, 67
1, 59371, Control_c, 0, 64, 74
1, 59386, Control_c, 0, 64, 84
1, 59400, Note_off_c, 0, 39, 57
1, 59401, Control_c, 0, 64, 96
1, 59415, Control_c, 0, 64, 111
1, 59430, Control_c, 0, 64, 127
1, 59579, Control_c, 0, 64, 103
1, 59593, Control_c, 0, 64, 80
1, 59608, Control_c, 0, 64, 60
1, 59620, Note_on_c, 0, 68, 71
1, 59620, Note_off_c, 0, 47, 62
1, 59623, Control_c, 0, 64, 0
1, 59627, Note_on_c, 0, 41, 55
1, 59638, Note_on_c, 0, 48, 48
1, 59697, Control_c, 0, 64, 63
1, 59704, Note_off_c, 0, 41, 62
1, 59710, Note_off_c, 0, 62, 58
1, 59712, Control_c, 0, 64, 72
1, 59727, Control_c, 0, 64, 85
1, 59733, Note_off_c, 0, 74, 58
1, 59741, Control_c, 0, 64, 101
1, 59749, Note_off_c, 0, 48, 63
1, 59756, Control_c, 0, 64, 117
1, 59779, Control_c, 0, 64, 127
1, 59890, Note_on_c, 0, 57, 60
1, 59922, Note_on_c, 0, 58, 76
1, 59952, Note_off_c, 0, 57, 61
1, 59954, Note_on_c, 0, 61, 81
1, 59990, Note_off_c, 0, 58, 62
1, 60000, Note_on_c, 0, 72, 73
1, 60002, Note_on_c, 0, 62, 70
1, 60014, Control_c, 0, 64, 114
1, 60029, Control_c, 0, 64, 100
1, 60044, Control_c, 0, 64, 88
1, 60051, Note_off_c, 0, 61, 61
1, 60059, Control_c, 0, 64, 78
1, 60074, Control_c, 0, 64, 69
1, 60089, Control_c, 0, 64, 59
1, 60104, Control_c, 0, 64, 28
1, 60119, Control_c, 0, 64, 0
1, 60143, Note_off_c, 0, 68, 58
1, 60384, Note_on_c, 0, 50, 68
1, 60414, Note_on_c, 0, 70, 56
1, 60449, Note_off_c, 0, 62, 55
1, 60520, Note_off_c, 0, 72, 58
1, 60527, Control_c, 0, 64, 61
1, 60542, Control_c, 0, 64, 68
1, 60557, Control_c, 0, 64, 75
1, 60571, Control_c, 0, 64, 84
1, 60586, Control_c, 0, 64, 96
1, 60601, Control_c, 0, 64, 107
1, 60615, Control_c, 0, 64, 127
1, 60673, Note_off_c, 0, 70, 63
1, 60762, Note_on_c, 0, 51, 70
1, 60803, Note_on_c, 0, 43, 56
1, 60852, Note_off_c, 0, 50, 60
1, 60951, Note_on_c, 0, 68, 68
1, 60972, Control_c, 0, 64, 106
1, 60986, Control_c, 0, 64, 94
1, 60996, Note_on_c, 0, 74, 69
1, 61001, Control_c, 0, 64, 86
1, 61016, Control_c, 0, 64, 78
1, 61031, Note_on_c, 0, 77, 71
1, 61031, Control_c, 0, 64, 71
1, 61046, Control_c, 0, 64, 59
1, 61060, Control_c, 0, 64, 0
1, 61066, Note_on_c, 0, 79, 74
1, 61114, Note_on_c, 0, 80, 92
1, 61129, Note_on_c, 0, 52, 65
1, 61129, Note_off_c, 0, 51, 62
1, 61129, Note_off_c, 0, 77, 63
1, 61148, Note_off_c, 0, 74, 64
1, 61195, Note_off_c, 0, 79, 51
1, 61224, Note_off_c, 0, 68, 60
1, 61350, Control_c, 0, 64, 59
1, 61365, Control_c, 0, 64, 66
1, 61379, Control_c, 0, 64, 71
1, 61394, Control_c, 0, 64, 77
1, 61408, Control_c, 0, 64, 82
1, 61423, Control_c, 0, 64, 87
1, 61438, Control_c, 0, 64, 93
1, 61452, Control_c, 0, 64, 98
1, 61467, Control_c, 0, 64, 102
1, 61482, Control_c, 0, 64, 107
1, 61497, Control_c, 0, 64, 113
1, 61499, Note_on_c, 0, 68, 82
1, 61511, Note_on_c, 0, 53, 58
1, 61511, Control_c, 0, 64, 127
1, 61541, Control_c, 0, 67, 127
1, 61556, Control_c, 0, 67, 126
1, 61564, Note_off_c, 0, 52, 54
1, 61567, Note_off_c, 0, 43, 33
1, 61570, Control_c, 0, 67, 125
1, 61585, Control_c, 0, 67, 124
1, 61600, Control_c, 0, 67, 123
1, 61615, Control_c, 0, 67, 122
1, 61630, Control_c, 0, 67, 122
1, 61645, Control_c, 0, 67, 121
1, 61647, Note_off_c, 0, 80, 59
1, 61660, Control_c, 0, 67, 120
1, 61675, Control_c, 0, 67, 118
1, 61690, Control_c, 0, 67, 117
1, 61705, Control_c, 0, 67, 116
1, 61720, Control_c, 0, 67, 115
1, 61734, Control_c, 0, 67, 114
1, 61749, Control_c, 0, 67, 113
1, 61853, Control_c, 0, 67, 114
1, 61868, Control_c, 0, 67, 114
1, 61879, Note_on_c, 0, 79, 94
1, 61883, Control_c, 0, 67, 115
1, 61898, Control_c, 0, 64, 97
1, 61898, Control_c, 0, 67, 115
1, 61913, Control_c, 0, 64, 69
1, 61913, Control_c, 0, 67, 116
1, 61928, Control_c, 0, 64, 0
1, 61928, Control_c, 0, 67, 117
1, 61928, Note_off_c, 0, 53, 60
1, 61938, Note_on_c, 0, 47, 53
1, 61946, Note_on_c, 0, 55, 53
1, 61957, Control_c, 0, 67, 117
1, 61964, Note_off_c, 0, 68, 59
1, 61972, Control_c, 0, 67, 118
1, 62023, Control_c, 0, 64, 61
1, 62023, Control_c, 0, 67, 118
1, 62038, Note_off_c, 0, 47, 65
1, 62038, Control_c, 0, 64, 74
1, 62053, Control_c, 0, 64, 91
1, 62068, Control_c, 0, 64, 127
1, 62076, Note_off_c, 0, 55, 64
1, 62098, Control_c, 0, 67, 119
1, 62128, Control_c, 0, 67, 119
1, 62142, Control_c, 0, 67, 120
1, 62157, Control_c, 0, 67, 120
1, 62201, Control_c, 0, 67, 120
1, 62216, Control_c, 0, 67, 119
1, 62231, Control_c, 0, 67, 119
1, 62246, Note_on_c, 0, 70, 65
1, 62246, Control_c, 0, 67, 118
1, 62261, Control_c, 0, 67, 117
1, 62275, Control_c, 0, 67, 117
1, 62281, Note_on_c, 0, 73, 70
1, 62290, Note_off_c, 0, 70, 57
1, 62298, Note_on_c, 0, 65, 71
1, 62305, Control_c, 0, 67, 116
1, 62309, Note_off_c, 0, 73, 65
1, 62322, Note_on_c, 0, 74, 75
1, 62327, Note_off_c, 0, 79, 55
1, 62349, Control_c, 0, 67, 116
1, 62364, Control_c, 0, 67, 115
1, 62411, Note_off_c, 0, 74, 61
1, 62483, Control_c, 0, 67, 115
1, 62513, Control_c, 0, 67, 114
1, 62557, Control_c, 0, 67, 114
1, 62602, Control_c, 0, 67, 113
1, 62631, Control_c, 0, 67, 113
1, 62638, Note_on_c, 0, 67, 86
1, 62646, Note_on_c, 0, 62, 62
1, 62661, Control_c, 0, 67, 112
1, 62676, Control_c, 0, 67, 112
1, 62681, Note_off_c, 0, 62, 63
1, 62691, Control_c, 0, 67, 111
1, 62706, Control_c, 0, 67, 111
1, 62721, Control_c, 0, 67, 109
1, 62736, Control_c, 0, 67, 107
1, 62751, Control_c, 0, 67, 105
1, 62772, Control_c, 0, 67, 103
1, 62787, Control_c, 0, 67, 101
1, 62802, Control_c, 0, 67, 100
1, 62816, Control_c, 0, 67, 100
1, 62831, Control_c, 0, 67, 99
1, 62846, Control_c, 0, 67, 98
1, 62980, Control_c, 0, 64, 90
1, 62990, Note_on_c, 0, 48, 77
1, 62992, Note_off_c, 0, 65, 59
1, 62995, Control_c, 0, 64, 68
1, 63009, Note_on_c, 0, 58, 65
1, 63009, Note_on_c, 0, 63, 72
1, 63010, Control_c, 0, 64, 0
1, 63054, Control_c, 0, 64, 62
1, 63057, Note_off_c, 0, 63, 61
1, 63069, Note_off_c, 0, 67, 64
1, 63069, Control_c, 0, 64, 70
1, 63083, Control_c, 0, 64, 81
1, 63098, Control_c, 0, 64, 100
1, 63113, Control_c, 0, 64, 127
1, 63254, Note_on_c, 0, 73, 73
1, 63277, Note_on_c, 0, 79, 78
1, 63305, Note_on_c, 0, 82, 81
1, 63307, Control_c, 0, 67, 98
1, 63308, Note_off_c, 0, 58, 48
1, 63329, Note_on_c, 0, 84, 79
1, 63351, Control_c, 0, 67, 97
1, 63358, Note_on_c, 0, 57, 65
1, 63359, Note_on_c, 0, 85, 96
1, 63366, Control_c, 0, 67, 97
1, 63371, Note_off_c, 0, 79, 61
1, 63380, Control_c, 0, 64, 91
1, 63380, Control_c, 0, 67, 96
1, 63386, Note_off_c, 0, 82, 64
1, 63395, Control_c, 0, 64, 70
1, 63395, Control_c, 0, 67, 94
1, 63410, Control_c, 0, 64, 0
1, 63410, Control_c, 0, 67, 92
1, 63425, Control_c, 0, 67, 90
1, 63439, Control_c, 0, 67, 88
1, 63454, Control_c, 0, 67, 86
1, 63460, Note_off_c, 0, 84, 52
1, 63469, Control_c, 0, 67, 85
1, 63484, Control_c, 0, 67, 82
1, 63497, Note_off_c, 0, 73, 60
1, 63499, Control_c, 0, 67, 80
1, 63521, Control_c, 0, 67, 77
1, 63536, Control_c, 0, 67, 75
1, 63551, Control_c, 0, 67, 73
1, 63566, Control_c, 0, 64, 62
1, 63566, Control_c, 0, 67, 73
1, 63581, Control_c, 0, 64, 70
1, 63595, Control_c, 0, 64, 78
1, 63595, Control_c, 0, 67, 72
1, 63610, Control_c, 0, 64, 88
1, 63625, Control_c, 0, 64, 100
1, 63639, Control_c, 0, 64, 108
1, 63654, Control_c, 0, 64, 119
1, 63654, Control_c, 0, 67, 72
1, 63669, Control_c, 0, 64, 127
1, 63713, Control_c, 0, 67, 71
1, 63744, Note_on_c, 0, 73, 96
1, 63767, Note_on_c, 0, 58, 64
1, 63788, Control_c, 0, 67, 71
1, 63824, Note_off_c, 0, 57, 51
1, 63924, Note_off_c, 0, 85, 63
1, 63936, Control_c, 0, 67, 72
1, 63951, Control_c, 0, 67, 72
1, 63965, Control_c, 0, 67, 73
1, 63979, Note_off_c, 0, 48, 57
1, 63980, Control_c, 0, 67, 74
1, 63995, Control_c, 0, 67, 74
1, 64010, Control_c, 0, 67, 75
1, 64025, Control_c, 0, 67, 76
1, 64039, Control_c, 0, 67, 77
1, 64054, Control_c, 0, 67, 78
1, 64069, Control_c, 0, 67, 78
1, 64085, Control_c, 0, 67, 80
1, 64100, Control_c, 0, 67, 80
1, 64115, Control_c, 0, 67, 81
1, 64129, Note_on_c, 0, 84, 98
1, 64130, Control_c, 0, 64, 110
1, 64130, Control_c, 0, 67, 82
1, 64133, Note_off_c, 0, 58, 60
1, 64144, Control_c, 0, 64, 76
1, 64144, Control_c, 0, 67, 82
1, 64149, Note_on_c, 0, 59, 61
1, 64152, Note_on_c, 0, 52, 63
1, 64159, Control_c, 0, 64, 0
1, 64174, Control_c, 0, 67, 83
1, 64242, Note_off_c, 0, 73, 61
1, 64247, Note_off_c, 0, 52, 62
1, 64248, Control_c, 0, 64, 56
1, 64248, Control_c, 0, 67, 83
1, 64270, Control_c, 0, 64, 71
1, 64270, Control_c, 0, 67, 84
1, 64285, Control_c, 0, 64, 90
1, 64300, Note_off_c, 0, 59, 62
1, 64300, Control_c, 0, 64, 127
1, 64330, Control_c, 0, 67, 84
1, 64441, Note_on_c, 0, 65, 31
1, 64444, Note_on_c, 0, 67, 30
1, 64448, Note_on_c, 0, 68, 67
1, 64462, Control_c, 0, 67, 84
1, 64477, Note_off_c, 0, 65, 52
1, 64477, Control_c, 0, 67, 83
1, 64479, Note_off_c, 0, 67, 52
1, 64486, Note_on_c, 0, 71, 67
1, 64490, Note_on_c, 0, 70, 54
1, 64492, Note_off_c, 0, 68, 59
1, 64492, Control_c, 0, 67, 82
1, 64507, Control_c, 0, 67, 82
1, 64521, Note_off_c, 0, 84, 53
1, 64522, Control_c, 0, 67, 81
1, 64528, Note_on_c, 0, 72, 80
1, 64536, Note_off_c, 0, 71, 66
1, 64536, Control_c, 0, 67, 81
1, 64566, Control_c, 0, 67, 80
1, 64611, Control_c, 0, 67, 80
1, 64626, Control_c, 0, 67, 79
1, 64641, Control_c, 0, 67, 79
1, 64757, Note_off_c, 0, 72, 61
1, 64759, Control_c, 0, 67, 79
1, 64774, Control_c, 0, 67, 80
1, 64788, Control_c, 0, 67, 80
1, 64818, Control_c, 0, 67, 81
1, 64848, Control_c, 0, 67, 81
1, 64891, Note_on_c, 0, 60, 62
1, 64891, Note_on_c, 0, 72, 88
1, 64914, Note_off_c, 0, 70, 62
1, 65019, Control_c, 0, 67, 82
1, 65034, Control_c, 0, 67, 82
1, 65093, Control_c, 0, 67, 83
1, 65153, Control_c, 0, 67, 83
1, 65197, Control_c, 0, 67, 84
1, 65256, Control_c, 0, 67, 84
1, 65293, Note_on_c, 0, 68, 61
1, 65295, Note_on_c, 0, 53, 44
1, 65304, Note_on_c, 0, 62, 51
1, 65359, Control_c, 0, 67, 85
1, 65374, Note_off_c, 0, 60, 60
1, 65374, Control_c, 0, 64, 106
1, 65389, Control_c, 0, 64, 85
1, 65389, Control_c, 0, 67, 85
1, 65404, Control_c, 0, 64, 70
1, 65419, Control_c, 0, 64, 0
1, 65523, Control_c, 0, 64, 51
1, 65523, Control_c, 0, 67, 85
1, 65537, Control_c, 0, 64, 68
1, 65537, Control_c, 0, 67, 84
1, 65552, Control_c, 0, 64, 78
1, 65567, Control_c, 0, 64, 90
1, 65567, Control_c, 0, 67, 84
1, 65582, Control_c, 0, 64, 105
1, 65582, Control_c, 0, 67, 83
1, 65597, Control_c, 0, 64, 119
1, 65597, Control_c, 0, 67, 83
1, 65611, Control_c, 0, 64, 124
1, 65656, Control_c, 0, 64, 123
1, 65670, Note_on_c, 0, 80, 90
1, 65671, Control_c, 0, 64, 119
1, 65684, Note_on_c, 0, 61, 69
1, 65687, Control_c, 0, 64, 101
1, 65701, Control_c, 0, 64, 83
1, 65705, Note_off_c, 0, 62, 52
1, 65708, Note_off_c, 0, 72, 61
1, 65716, Control_c, 0, 64, 62
1, 65716, Control_c, 0, 67, 82
1, 65731, Control_c, 0, 64, 0
1, 65746, Control_c, 0, 67, 82
1, 65768, Control_c, 0, 67, 81
1, 65782, Control_c, 0, 67, 81
1, 65797, Control_c, 0, 64, 26
1, 65797, Control_c, 0, 67, 80
1, 65812, Control_c, 0, 64, 64
1, 65812, Control_c, 0, 67, 79
1, 65827, Control_c, 0, 64, 73
1, 65827, Control_c, 0, 67, 78
1, 65842, Control_c, 0, 64, 83
1, 65842, Control_c, 0, 67, 78
1, 65857, Control_c, 0, 64, 97
1, 65857, Control_c, 0, 67, 77
1, 65872, Control_c, 0, 64, 114
1, 65872, Control_c, 0, 67, 77
1, 65887, Control_c, 0, 64, 127
1, 65931, Control_c, 0, 67, 76
1, 66035, Note_on_c, 0, 79, 87
1, 66040, Note_off_c, 0, 53, 58
1, 66056, Note_on_c, 0, 65, 61
1, 66080, Note_on_c, 0, 73, 50
1, 66110, Note_off_c, 0, 80, 62
1, 66120, Note_off_c, 0, 68, 39
1, 66124, Note_off_c, 0, 73, 0
1, 66124, Note_on_c, 0, 73, 22
1, 66138, Control_c, 0, 67, 77
1, 66155, Note_off_c, 0, 65, 61
1, 66182, Control_c, 0, 67, 77
1, 66197, Control_c, 0, 67, 78
1, 66223, Note_on_c, 0, 55, 61
1, 66241, Control_c, 0, 67, 78
1, 66242, Note_off_c, 0, 61, 59
1, 66286, Control_c, 0, 67, 79
1, 66346, Control_c, 0, 67, 79
1, 66447, Note_on_c, 0, 77, 85
1, 66448, Note_on_c, 0, 68, 81
1, 66449, Control_c, 0, 64, 108
1, 66449, Control_c, 0, 67, 80
1, 66464, Control_c, 0, 64, 84
1, 66480, Control_c, 0, 64, 67
1, 66480, Control_c, 0, 67, 80
1, 66495, Control_c, 0, 64, 0
1, 66517, Control_c, 0, 67, 81
1, 66519, Note_off_c, 0, 79, 59
1, 66546, Control_c, 0, 67, 81
1, 66576, Control_c, 0, 64, 56
1, 66576, Control_c, 0, 67, 82
1, 66590, Control_c, 0, 64, 67
1, 66605, Control_c, 0, 64, 76
1, 66620, Control_c, 0, 64, 88
1, 66620, Control_c, 0, 67, 82
1, 66635, Control_c, 0, 64, 105
1, 66650, Control_c, 0, 64, 127
1, 66805, Note_off_c, 0, 68, 58
1, 66857, Control_c, 0, 64, 95
1, 66862, Note_on_c, 0, 67, 72
1, 66864, Note_on_c, 0, 75, 75
1, 66870, Note_on_c, 0, 72, 62
1, 66872, Control_c, 0, 64, 75
1, 66879, Note_off_c, 0, 77, 63
1, 66887, Control_c, 0, 64, 55
1, 66902, Control_c, 0, 64, 0
1, 66917, Control_c, 0, 64, 27
1, 66931, Control_c, 0, 64, 54
1, 66946, Control_c, 0, 64, 64
1, 66961, Control_c, 0, 64, 68
1, 66976, Control_c, 0, 64, 73
1, 66977, Note_off_c, 0, 73, 57
1, 66990, Control_c, 0, 64, 78
1, 67005, Control_c, 0, 64, 85
1, 67020, Control_c, 0, 64, 91
1, 67035, Control_c, 0, 64, 96
1, 67050, Control_c, 0, 64, 98
1, 67064, Control_c, 0, 64, 98
1, 67064, Control_c, 0, 67, 83
1, 67079, Control_c, 0, 64, 99
1, 67094, Control_c, 0, 64, 99
1, 67109, Control_c, 0, 64, 100
1, 67198, Control_c, 0, 64, 98
1, 67213, Control_c, 0, 64, 88
1, 67213, Control_c, 0, 67, 83
1, 67228, Control_c, 0, 64, 71
1, 67228, Control_c, 0, 67, 84
1, 67231, Note_on_c, 0, 74, 76
1, 67237, Note_off_c, 0, 67, 61
1, 67243, Control_c, 0, 64, 29
1, 67246, Note_on_c, 0, 65, 64
1, 67255, Note_on_c, 0, 70, 61
1, 67261, Note_off_c, 0, 72, 58
1, 67264, Control_c, 0, 64, 0
1, 67282, Note_off_c, 0, 75, 59
1, 67310, Control_c, 0, 64, 33
1, 67325, Control_c, 0, 64, 61
1, 67340, Control_c, 0, 64, 69
1, 67354, Control_c, 0, 64, 75
1, 67369, Control_c, 0, 64, 82
1, 67384, Control_c, 0, 64, 86
1, 67399, Control_c, 0, 64, 87
1, 67413, Control_c, 0, 64, 88
1, 67458, Control_c, 0, 67, 84
1, 67517, Control_c, 0, 67, 85
1, 67562, Control_c, 0, 64, 87
1, 67562, Control_c, 0, 67, 85
1, 67577, Control_c, 0, 64, 85
1, 67592, Control_c, 0, 64, 78
1, 67606, Control_c, 0, 64, 69
1, 67606, Control_c, 0, 67, 86
1, 67619, Note_on_c, 0, 75, 59
1, 67621, Control_c, 0, 64, 44
1, 67627, Note_off_c, 0, 65, 53
1, 67633, Note_on_c, 0, 60, 46
1, 67633, Note_on_c, 0, 63, 48
1, 67636, Control_c, 0, 64, 0
1, 67643, Note_on_c, 0, 69, 55
1, 67651, Control_c, 0, 67, 86
1, 67666, Control_c, 0, 67, 87
1, 67672, Note_off_c, 0, 70, 56
1, 67679, Note_off_c, 0, 74, 57
1, 67680, Control_c, 0, 67, 89
1, 67695, Control_c, 0, 67, 91
1, 67710, Control_c, 0, 67, 92
1, 67725, Control_c, 0, 67, 93
1, 67754, Control_c, 0, 64, 53
1, 67759, Note_off_c, 0, 55, 35
1, 67769, Control_c, 0, 64, 62
1, 67784, Control_c, 0, 64, 65
1, 67799, Control_c, 0, 64, 66
1, 67813, Control_c, 0, 64, 66
1, 67873, Control_c, 0, 64, 66
1, 67902, Control_c, 0, 67, 94
1, 67946, Control_c, 0, 67, 94
1, 67961, Control_c, 0, 64, 65
1, 67991, Control_c, 0, 64, 65
1, 68013, Control_c, 0, 64, 64
1, 68018, Note_off_c, 0, 69, 54
1, 68021, Note_off_c, 0, 63, 55
1, 68024, Note_on_c, 0, 77, 64
1, 68028, Control_c, 0, 64, 64
1, 68037, Note_on_c, 0, 62, 42
1, 68043, Control_c, 0, 64, 63
1, 68055, Note_on_c, 0, 68, 38
1, 68058, Note_off_c, 0, 75, 61
1, 68058, Control_c, 0, 67, 95
1, 68073, Control_c, 0, 64, 63
1, 68089, Control_c, 0, 67, 96
1, 68103, Control_c, 0, 64, 62
1, 68103, Control_c, 0, 67, 97
1, 68118, Control_c, 0, 67, 97
1, 68192, Control_c, 0, 67, 98
1, 68370, Control_c, 0, 64, 62
1, 68385, Control_c, 0, 67, 98
1, 68388, Note_off_c, 0, 77, 59
1, 68391, Note_on_c, 0, 75, 61
1, 68404, Note_on_c, 0, 63, 43
1, 68411, Note_off_c, 0, 62, 54
1, 68414, Control_c, 0, 64, 61
1, 68414, Control_c, 0, 67, 99
1, 68420, Note_on_c, 0, 67, 46
1, 68429, Control_c, 0, 67, 100
1, 68441, Note_off_c, 0, 68, 50
1, 68444, Control_c, 0, 67, 102
1, 68459, Control_c, 0, 67, 104
1, 68474, Control_c, 0, 67, 105
1, 68489, Control_c, 0, 67, 105
1, 68503, Control_c, 0, 67, 106
1, 68518, Control_c, 0, 67, 106
1, 68533, Control_c, 0, 67, 107
1, 68547, Control_c, 0, 67, 107
1, 68562, Control_c, 0, 67, 108
1, 68577, Control_c, 0, 67, 108
1, 68592, Control_c, 0, 67, 109
1, 68607, Control_c, 0, 67, 109
1, 68636, Control_c, 0, 67, 110
1, 68651, Control_c, 0, 67, 110
1, 68681, Control_c, 0, 67, 111
1, 68696, Control_c, 0, 67, 111
1, 68710, Control_c, 0, 67, 112
1, 68725, Control_c, 0, 67, 113
1, 68740, Control_c, 0, 67, 113
1, 68762, Control_c, 0, 67, 114
1, 68777, Control_c, 0, 67, 115
1, 68792, Control_c, 0, 67, 117
1, 68796, Note_on_c, 0, 73, 62
1, 68802, Note_off_c, 0, 60, 58
1, 68807, Note_on_c, 0, 65, 32
1, 68807, Control_c, 0, 67, 118
1, 68817, Note_on_c, 0, 68, 43
1, 68819, Note_off_c, 0, 67, 47
1, 68822, Control_c, 0, 67, 119
1, 68827, Note_on_c, 0, 58, 33
1, 68836, Note_off_c, 0, 63, 37
1, 68836, Control_c, 0, 67, 122
1, 68851, Note_off_c, 0, 75, 50
1, 68851, Control_c, 0, 64, 61
1, 68851, Control_c, 0, 67, 123
1, 68866, Control_c, 0, 64, 60
1, 68866, Control_c, 0, 67, 125
1, 68882, Control_c, 0, 67, 126
1, 68897, Control_c, 0, 64, 60
1, 68897, Control_c, 0, 67, 127
1, 68957, Control_c, 0, 64, 60
1, 68986, Control_c, 0, 64, 61
1, 69151, Note_on_c, 0, 63, 46
1, 69153, Note_off_c, 0, 65, 49
1, 69163, Note_on_c, 0, 72, 54
1, 69164, Control_c, 0, 64, 61
1, 69178, Control_c, 0, 64, 62
1, 69183, Note_on_c, 0, 67, 40
1, 69193, Control_c, 0, 64, 63
1, 69208, Control_c, 0, 64, 64
1, 69222, Note_off_c, 0, 73, 63
1, 69223, Control_c, 0, 64, 65
1, 69228, Note_off_c, 0, 68, 53
1, 69238, Control_c, 0, 64, 66
1, 69252, Control_c, 0, 64, 68
1, 69267, Control_c, 0, 64, 71
1, 69282, Control_c, 0, 64, 74
1, 69297, Control_c, 0, 64, 78
1, 69312, Control_c, 0, 64, 81
1, 69318, Note_off_c, 0, 63, 59
1, 69327, Control_c, 0, 64, 84
1, 69341, Control_c, 0, 64, 87
1, 69356, Control_c, 0, 64, 88
1, 69371, Control_c, 0, 64, 90
1, 69386, Control_c, 0, 64, 90
1, 69556, Control_c, 0, 64, 89
1, 69559, Note_on_c, 0, 65, 42
1, 69562, Note_on_c, 0, 70, 50
1, 69571, Control_c, 0, 64, 87
1, 69581, Note_on_c, 0, 62, 33
1, 69586, Note_on_c, 0, 51, 41
1, 69586, Control_c, 0, 64, 84
1, 69601, Control_c, 0, 64, 78
1, 69616, Control_c, 0, 64, 70
1, 69631, Control_c, 0, 64, 63
1, 69634, Note_off_c, 0, 67, 46
1, 69645, Control_c, 0, 64, 34
1, 69660, Control_c, 0, 64, 0
1, 69672, Note_off_c, 0, 72, 56
1, 69689, Note_off_c, 0, 58, 45
1, 69962, Note_on_c, 0, 56, 41
1, 69962, Note_on_c, 0, 72, 53
1, 69970, Note_on_c, 0, 67, 43
1, 69972, Note_on_c, 0, 60, 36
1, 69991, Note_off_c, 0, 62, 40
1, 70045, Note_off_c, 0, 65, 57
1, 70046, Note_off_c, 0, 70, 48
1, 70108, Note_off_c, 0, 51, 47
1, 70134, Control_c, 0, 67, 125
1, 70149, Control_c, 0, 67, 122
1, 70164, Control_c, 0, 67, 119
1, 70179, Control_c, 0, 67, 118
1, 70194, Control_c, 0, 67, 116
1, 70209, Control_c, 0, 67, 115
1, 70224, Control_c, 0, 67, 113
1, 70239, Control_c, 0, 67, 113
1, 70261, Control_c, 0, 67, 112
1, 70275, Control_c, 0, 67, 112
1, 70305, Control_c, 0, 67, 111
1, 70341, Note_on_c, 0, 71, 67
1, 70341, Note_off_c, 0, 67, 55
1, 70344, Note_on_c, 0, 65, 61
1, 70359, Note_off_c, 0, 60, 59
1, 70370, Note_on_c, 0, 62, 37
1, 70379, Control_c, 0, 67, 111
1, 70405, Note_off_c, 0, 72, 53
1, 70408, Control_c, 0, 67, 110
1, 70423, Control_c, 0, 67, 109
1, 70438, Control_c, 0, 67, 107
1, 70453, Control_c, 0, 67, 105
1, 70468, Control_c, 0, 67, 104
1, 70483, Control_c, 0, 67, 102
1, 70498, Control_c, 0, 67, 101
1, 70513, Control_c, 0, 67, 100
1, 70528, Control_c, 0, 67, 98
1, 70543, Control_c, 0, 67, 97
1, 70557, Control_c, 0, 67, 96
1, 70572, Control_c, 0, 67, 96
1, 70587, Control_c, 0, 67, 95
1, 70602, Control_c, 0, 67, 94
1, 70617, Control_c, 0, 67, 94
1, 70646, Control_c, 0, 67, 93
1, 70718, Note_on_c, 0, 72, 77
1, 70734, Note_on_c, 0, 63, 57
1, 70734, Note_off_c, 0, 62, 55
1, 70735, Control_c, 0, 67, 94
1, 70736, Note_on_c, 0, 68, 59
1, 70749, Note_off_c, 0, 71, 64
1, 70764, Control_c, 0, 67, 94
1, 70779, Control_c, 0, 67, 95
1, 70794, Control_c, 0, 67, 96
1, 70809, Control_c, 0, 67, 96
1, 70823, Control_c, 0, 67, 97
1, 70838, Control_c, 0, 67, 98
1, 70853, Control_c, 0, 67, 99
1, 70858, Note_off_c, 0, 65, 57
1, 70868, Control_c, 0, 67, 100
1, 70883, Control_c, 0, 67, 102
1, 70897, Control_c, 0, 67, 104
1, 70912, Control_c, 0, 67, 105
1, 70915, Note_off_c, 0, 63, 63
1, 70927, Control_c, 0, 67, 107
1, 70942, Control_c, 0, 67, 110
1, 70957, Control_c, 0, 67, 114
1, 70969, Note_off_c, 0, 56, 62
1, 70972, Control_c, 0, 67, 117
1, 70987, Control_c, 0, 67, 121
1, 71009, Control_c, 0, 67, 122
1, 71023, Control_c, 0, 67, 123
1, 71038, Control_c, 0, 67, 124
1, 71053, Control_c, 0, 67, 124
1, 71103, Note_on_c, 0, 75, 76
1, 71112, Control_c, 0, 67, 125
1, 71114, Note_on_c, 0, 70, 64
1, 71127, Control_c, 0, 67, 126
1, 71132, Note_on_c, 0, 67, 53
1, 71142, Control_c, 0, 67, 127
1, 71189, Note_off_c, 0, 68, 58
1, 71193, Note_off_c, 0, 72, 54
1, 71216, Control_c, 0, 64, 42
1, 71231, Control_c, 0, 64, 61
1, 71246, Control_c, 0, 64, 65
1, 71261, Control_c, 0, 64, 68
1, 71276, Control_c, 0, 64, 70
1, 71291, Control_c, 0, 64, 71
1, 71306, Control_c, 0, 64, 72
1, 71321, Control_c, 0, 64, 74
1, 71333, Note_on_c, 0, 47, 52
1, 71336, Control_c, 0, 64, 75
1, 71351, Control_c, 0, 64, 75
1, 71365, Control_c, 0, 64, 76
1, 71384, Note_off_c, 0, 67, 56
1, 71386, Note_off_c, 0, 75, 61
1, 71392, Note_off_c, 0, 47, 64
1, 71393, Note_on_c, 0, 48, 63
1, 71433, Note_off_c, 0, 48, 64
1, 71440, Control_c, 0, 64, 75
1, 71443, Note_on_c, 0, 52, 65
1, 71454, Control_c, 0, 64, 73
1, 71469, Control_c, 0, 64, 70
1, 71484, Control_c, 0, 64, 65
1, 71493, Note_on_c, 0, 74, 68
1, 71497, Note_on_c, 0, 68, 54
1, 71499, Note_off_c, 0, 52, 63
1, 71499, Control_c, 0, 64, 56
1, 71510, Note_on_c, 0, 65, 59
1, 71514, Control_c, 0, 64, 0
1, 71516, Note_on_c, 0, 53, 60
1, 71571, Note_off_c, 0, 70, 57
1, 71658, Note_off_c, 0, 65, 47
1, 71690, Note_off_c, 0, 68, 60
1, 71858, Note_off_c, 0, 53, 48
1, 71872, Note_on_c, 0, 72, 56
1, 71878, Note_on_c, 0, 41, 51
1, 71887, Note_on_c, 0, 67, 44
1, 71887, Note_on_c, 0, 63, 42
1, 71935, Note_off_c, 0, 74, 53
1, 71995, Note_off_c, 0, 67, 58
1, 72010, Control_c, 0, 64, 54
1, 72025, Control_c, 0, 64, 64
1, 72040, Control_c, 0, 64, 67
1, 72041, Note_off_c, 0, 41, 60
1, 72054, Control_c, 0, 64, 70
1, 72070, Control_c, 0, 64, 72
1, 72085, Control_c, 0, 64, 73
1, 72100, Control_c, 0, 64, 74
1, 72106, Note_off_c, 0, 63, 48
1, 72115, Control_c, 0, 64, 74
1, 72189, Control_c, 0, 64, 74
1, 72218, Control_c, 0, 64, 73
1, 72233, Control_c, 0, 64, 70
1, 72248, Control_c, 0, 64, 66
1, 72263, Control_c, 0, 64, 60
1, 72269, Note_on_c, 0, 58, 56
1, 72269, Note_on_c, 0, 70, 54
1, 72270, Note_on_c, 0, 65, 52
1, 72278, Control_c, 0, 64, 39
1, 72279, Note_on_c, 0, 62, 48
1, 72293, Control_c, 0, 64, 0
1, 72295, Note_off_c, 0, 72, 40
1, 72305, Note_off_c, 0, 58, 63
1, 72324, Note_off_c, 0, 62, 61
1, 72324, Note_off_c, 0, 65, 62
1, 72324, Note_off_c, 0, 70, 62
1, 72625, Note_on_c, 0, 60, 59
1, 72629, Note_on_c, 0, 46, 57
1, 72632, Note_on_c, 0, 53, 53
1, 72634, Note_on_c, 0, 56, 56
1, 72649, Note_off_c, 0, 60, 66
1, 72658, Note_off_c, 0, 46, 63
1, 72658, Note_off_c, 0, 53, 60
1, 72658, Note_off_c, 0, 56, 60
1, 73013, Note_on_c, 0, 62, 65
1, 73024, Note_on_c, 0, 39, 47
1, 73024, Note_on_c, 0, 56, 53
1, 73029, Note_on_c, 0, 53, 50
1, 73115, Control_c, 0, 64, 19
1, 73130, Control_c, 0, 64, 46
1, 73145, Control_c, 0, 64, 57
1, 73160, Control_c, 0, 64, 63
1, 73175, Control_c, 0, 64, 65
1, 73190, Control_c, 0, 64, 68
1, 73205, Control_c, 0, 64, 70
1, 73219, Control_c, 0, 64, 73
1, 73234, Control_c, 0, 64, 75
1, 73256, Control_c, 0, 64, 79
1, 73271, Control_c, 0, 64, 83
1, 73286, Control_c, 0, 64, 89
1, 73300, Control_c, 0, 64, 95
1, 73315, Control_c, 0, 64, 101
1, 73330, Control_c, 0, 64, 112
1, 73345, Control_c, 0, 64, 127
1, 73446, Note_off_c, 0, 53, 65
1, 73460, Note_off_c, 0, 56, 63
1, 73737, Note_on_c, 0, 63, 72
1, 73741, Note_on_c, 0, 50, 67
1, 73742, Note_on_c, 0, 60, 65
1, 73743, Note_on_c, 0, 56, 60
1, 73744, Control_c, 0, 64, 100
1, 73751, Note_off_c, 0, 62, 58
1, 73759, Control_c, 0, 64, 73
1, 73763, Note_off_c, 0, 63, 67
1, 73764, Note_off_c, 0, 56, 64
1, 73765, Note_off_c, 0, 60, 66
1, 73767, Note_off_c, 0, 39, 55
1, 73770, Note_off_c, 0, 50, 67
1, 73774, Control_c, 0, 64, 0
1, 74113, Note_on_c, 0, 65, 78
1, 74124, Note_on_c, 0, 43, 54
1, 74128, Note_on_c, 0, 60, 62
1, 74129, Note_on_c, 0, 56, 59
1, 74166, Control_c, 0, 64, 24
1, 74181, Control_c, 0, 64, 56
1, 74196, Control_c, 0, 64, 64
1, 74211, Control_c, 0, 64, 68
1, 74226, Control_c, 0, 64, 73
1, 74240, Control_c, 0, 64, 78
1, 74255, Control_c, 0, 64, 84
1, 74270, Control_c, 0, 64, 92
1, 74285, Control_c, 0, 64, 99
1, 74299, Control_c, 0, 64, 108
1, 74314, Control_c, 0, 64, 120
1, 74329, Control_c, 0, 64, 127
1, 74478, Control_c, 0, 67, 125
1, 74493, Control_c, 0, 67, 122
1, 74508, Control_c, 0, 67, 118
1, 74509, Note_off_c, 0, 60, 62
1, 74523, Control_c, 0, 67, 114
1, 74537, Control_c, 0, 67, 110
1, 74540, Note_off_c, 0, 56, 63
1, 74552, Control_c, 0, 67, 107
1, 74567, Control_c, 0, 67, 103
1, 74582, Control_c, 0, 67, 100
1, 74597, Control_c, 0, 67, 97
1, 74612, Control_c, 0, 67, 94
1, 74627, Control_c, 0, 67, 90
1, 74641, Control_c, 0, 67, 88
1, 74656, Control_c, 0, 67, 86
1, 74671, Control_c, 0, 67, 84
1, 74686, Control_c, 0, 67, 82
1, 74701, Control_c, 0, 67, 80
1, 74715, Control_c, 0, 67, 77
1, 74730, Control_c, 0, 67, 76
1, 74752, Control_c, 0, 67, 75
1, 74767, Control_c, 0, 67, 74
1, 74782, Control_c, 0, 67, 74
1, 74796, Control_c, 0, 67, 73
1, 74815, Note_on_c, 0, 67, 84
1, 74823, Note_on_c, 0, 63, 74
1, 74823, Note_on_c, 0, 41, 78
1, 74826, Note_off_c, 0, 65, 62
1, 74826, Control_c, 0, 64, 108
1, 74829, Note_on_c, 0, 60, 63
1, 74834, Note_off_c, 0, 43, 62
1, 74841, Control_c, 0, 64, 77
1, 74846, Note_off_c, 0, 63, 70
1, 74848, Note_off_c, 0, 67, 61
1, 74850, Note_off_c, 0, 41, 66
1, 74853, Note_off_c, 0, 60, 65
1, 74856, Control_c, 0, 64, 0
1, 74975, Control_c, 0, 67, 74
1, 75004, Control_c, 0, 67, 75
1, 75034, Control_c, 0, 67, 75
1, 75049, Control_c, 0, 67, 76
1, 75122, Control_c, 0, 67, 76
1, 75137, Control_c, 0, 67, 77
1, 75152, Control_c, 0, 67, 77
1, 75167, Control_c, 0, 67, 78
1, 75175, Note_on_c, 0, 68, 94
1, 75182, Control_c, 0, 67, 79
1, 75189, Note_on_c, 0, 34, 76
1, 75191, Note_on_c, 0, 63, 74
1, 75193, Note_on_c, 0, 60, 71
1, 75226, Control_c, 0, 67, 79
1, 75272, Control_c, 0, 67, 80
1, 75546, Note_on_c, 0, 33, 84
1, 75561, Note_off_c, 0, 34, 60
1, 75575, Control_c, 0, 67, 79
1, 75590, Control_c, 0, 67, 79
1, 75605, Control_c, 0, 64, 44
1, 75605, Control_c, 0, 67, 78
1, 75619, Control_c, 0, 64, 57
1, 75619, Control_c, 0, 67, 78
1, 75635, Control_c, 0, 64, 60
1, 75635, Control_c, 0, 67, 77
1, 75665, Control_c, 0, 64, 58
1, 75665, Control_c, 0, 67, 77
1, 75680, Control_c, 0, 64, 56
1, 75680, Control_c, 0, 67, 76
1, 75694, Control_c, 0, 64, 54
1, 75695, Note_on_c, 0, 34, 82
1, 75709, Control_c, 0, 64, 51
1, 75724, Control_c, 0, 64, 47
1, 75724, Control_c, 0, 67, 76
1, 75728, Note_off_c, 0, 33, 61
1, 75738, Control_c, 0, 64, 43
1, 75753, Control_c, 0, 64, 39
1, 75768, Control_c, 0, 64, 36
1, 75783, Control_c, 0, 64, 33
1, 75798, Control_c, 0, 64, 26
1, 75813, Control_c, 0, 64, 11
1, 75828, Control_c, 0, 64, 0
1, 75873, Note_on_c, 0, 46, 101
1, 75876, Note_off_c, 0, 34, 62
1, 75881, Note_off_c, 0, 60, 53
1, 75897, Note_off_c, 0, 68, 57
1, 75908, Note_off_c, 0, 46, 64
1, 75927, Note_off_c, 0, 63, 59
1, 76006, Control_c, 0, 67, 76
1, 76225, Note_on_c, 0, 46, 98
1, 76227, Note_on_c, 0, 34, 90
1, 76227, Note_on_c, 0, 70, 85
1, 76230, Note_on_c, 0, 61, 76
1, 76243, Note_on_c, 0, 57, 80
1, 76251, Note_on_c, 0, 65, 69
1, 76254, Note_off_c, 0, 46, 70
1, 76257, Note_off_c, 0, 34, 67
1, 76266, Control_c, 0, 67, 76
1, 76281, Control_c, 0, 67, 75
1, 76296, Control_c, 0, 67, 75
1, 76311, Control_c, 0, 67, 74
1, 76325, Control_c, 0, 67, 74
1, 76340, Control_c, 0, 67, 73
1, 76346, Note_off_c, 0, 61, 53
1, 76359, Note_off_c, 0, 57, 53
1, 76369, Control_c, 0, 67, 73
1, 76390, Note_on_c, 0, 62, 80
1, 76409, Note_off_c, 0, 70, 62
1, 76438, Note_off_c, 0, 62, 63
1, 76442, Control_c, 0, 67, 72
1, 76457, Control_c, 0, 67, 72
1, 76466, Note_off_c, 0, 65, 56
1, 76472, Control_c, 0, 67, 70
1, 76487, Control_c, 0, 67, 66
1, 76502, Control_c, 0, 67, 61
1, 76516, Control_c, 0, 67, 57
1, 76531, Control_c, 0, 67, 54
1, 76546, Control_c, 0, 67, 52
1, 76561, Control_c, 0, 67, 49
1, 76570, Note_on_c, 0, 39, 80
1, 76570, Note_on_c, 0, 67, 88
1, 76576, Control_c, 0, 67, 46
1, 76578, Note_on_c, 0, 58, 94
1, 76578, Note_on_c, 0, 63, 89
1, 76591, Control_c, 0, 64, 58
1, 76591, Control_c, 0, 67, 45
1, 76606, Control_c, 0, 64, 70
1, 76606, Control_c, 0, 67, 44
1, 76609, Note_off_c, 0, 58, 61
1, 76621, Control_c, 0, 64, 80
1, 76621, Control_c, 0, 67, 42
1, 76635, Control_c, 0, 64, 95
1, 76635, Control_c, 0, 67, 40
1, 76636, Note_off_c, 0, 63, 60
1, 76650, Control_c, 0, 64, 127
1, 76650, Control_c, 0, 67, 38
1, 76653, Note_off_c, 0, 67, 61
1, 76665, Control_c, 0, 67, 34
1, 76680, Control_c, 0, 67, 30
1, 76694, Control_c, 0, 67, 27
1, 76709, Control_c, 0, 67, 24
1, 76724, Control_c, 0, 67, 23
1, 76738, Note_on_c, 0, 51, 81
1, 76739, Control_c, 0, 67, 22
1, 76743, Note_off_c, 0, 39, 50
1, 76754, Control_c, 0, 67, 21
1, 76768, Control_c, 0, 67, 21
1, 76769, Note_off_c, 0, 51, 67
1, 76783, Control_c, 0, 67, 20
1, 76798, Control_c, 0, 67, 19
1, 76813, Control_c, 0, 67, 19
1, 76888, Control_c, 0, 64, 102
1, 76903, Control_c, 0, 64, 75
1, 76909, Note_on_c, 0, 72, 101
1, 76915, Note_on_c, 0, 46, 88
1, 76915, Note_on_c, 0, 58, 89
1, 76915, Note_on_c, 0, 68, 90
1, 76916, Note_on_c, 0, 65, 86
1, 76918, Control_c, 0, 64, 0
1, 76931, Note_off_c, 0, 58, 71
1, 76932, Control_c, 0, 67, 19
1, 76935, Note_off_c, 0, 65, 72
1, 76940, Note_off_c, 0, 46, 68
1, 76941, Note_off_c, 0, 68, 65
1, 76946, Note_off_c, 0, 72, 69
1, 76947, Control_c, 0, 67, 20
1, 76977, Control_c, 0, 67, 20
1, 77014, Control_c, 0, 67, 21
1, 77044, Control_c, 0, 67, 22
1, 77059, Control_c, 0, 67, 22
1, 77073, Control_c, 0, 67, 23
1, 77088, Control_c, 0, 67, 24
1, 77103, Control_c, 0, 67, 24
1, 77241, Note_on_c, 0, 39, 87
1, 77243, Note_on_c, 0, 51, 84
1, 77248, Note_on_c, 0, 74, 97
1, 77250, Note_on_c, 0, 65, 89
1, 77251, Note_on_c, 0, 68, 83
1, 77265, Control_c, 0, 64, 36
1, 77280, Control_c, 0, 64, 64
1, 77289, Note_off_c, 0, 65, 61
1, 77295, Control_c, 0, 64, 70
1, 77304, Note_off_c, 0, 68, 61
1, 77310, Control_c, 0, 64, 75
1, 77310, Control_c, 0, 67, 25
1, 77324, Control_c, 0, 64, 78
1, 77327, Note_on_c, 0, 64, 81
1, 77339, Control_c, 0, 64, 78
1, 77354, Control_c, 0, 67, 25
1, 77369, Control_c, 0, 64, 79
1, 77401, Note_on_c, 0, 68, 78
1, 77409, Note_off_c, 0, 64, 65
1, 77412, Note_on_c, 0, 65, 64
1, 77427, Note_off_c, 0, 51, 63
1, 77444, Note_off_c, 0, 65, 65
1, 77444, Control_c, 0, 64, 78
1, 77451, Note_off_c, 0, 39, 60
1, 77455, Note_off_c, 0, 68, 61
1, 77458, Control_c, 0, 67, 25
1, 77476, Note_on_c, 0, 64, 81
1, 77503, Control_c, 0, 64, 78
1, 77517, Control_c, 0, 64, 77
1, 77532, Control_c, 0, 64, 74
1, 77547, Control_c, 0, 64, 65
1, 77562, Control_c, 0, 64, 0
1, 77563, Note_on_c, 0, 55, 79
1, 77569, Note_on_c, 0, 65, 68
1, 77571, Note_on_c, 0, 68, 80
1, 77577, Control_c, 0, 67, 24
1, 77620, Note_off_c, 0, 65, 59
1, 77641, Note_off_c, 0, 64, 64
1, 77651, Control_c, 0, 64, 17
1, 77667, Control_c, 0, 64, 60
1, 77667, Control_c, 0, 67, 24
1, 77667, Note_off_c, 0, 68, 63
1, 77681, Control_c, 0, 64, 67
1, 77696, Control_c, 0, 64, 70
1, 77709, Note_off_c, 0, 55, 58
1, 77711, Control_c, 0, 64, 71
1, 77739, Note_on_c, 0, 43, 81
1, 77762, Control_c, 0, 64, 72
1, 77894, Note_on_c, 0, 75, 90
1, 77896, Control_c, 0, 64, 72
1, 77900, Note_on_c, 0, 50, 91
1, 77901, Note_on_c, 0, 38, 86
1, 77901, Note_off_c, 0, 74, 62
1, 77902, Note_on_c, 0, 72, 82
1, 77903, Note_on_c, 0, 68, 87
1, 77915, Note_off_c, 0, 43, 61
1, 77923, Note_off_c, 0, 50, 73
1, 77929, Note_off_c, 0, 38, 67
1, 77929, Note_off_c, 0, 68, 64
1, 77932, Note_off_c, 0, 72, 66
1, 77946, Note_off_c, 0, 75, 67
1, 77970, Control_c, 0, 64, 72
1, 77985, Control_c, 0, 64, 71
1, 78000, Control_c, 0, 64, 71
1, 78014, Control_c, 0, 64, 70
1, 78029, Control_c, 0, 64, 68
1, 78044, Control_c, 0, 64, 64
1, 78044, Control_c, 0, 67, 24
1, 78059, Control_c, 0, 64, 60
1, 78074, Control_c, 0, 64, 50
1, 78074, Control_c, 0, 67, 25
1, 78088, Control_c, 0, 64, 39
1, 78103, Control_c, 0, 64, 17
1, 78118, Control_c, 0, 64, 0
1, 78162, Control_c, 0, 67, 24
1, 78239, Note_on_c, 0, 31, 94
1, 78241, Note_on_c, 0, 43, 94
1, 78242, Note_on_c, 0, 73, 91
1, 78247, Note_on_c, 0, 68, 91
1, 78248, Note_on_c, 0, 77, 92
1, 78262, Note_on_c, 0, 72, 81
1, 78287, Note_off_c, 0, 73, 47
1, 78301, Note_off_c, 0, 72, 61
1, 78311, Control_c, 0, 67, 24
1, 78320, Note_on_c, 0, 67, 81
1, 78324, Note_off_c, 0, 68, 63
1, 78326, Control_c, 0, 67, 23
1, 78355, Control_c, 0, 67, 23
1, 78385, Control_c, 0, 67, 22
1, 78396, Note_on_c, 0, 72, 82
1, 78397, Note_off_c, 0, 43, 63
1, 78400, Control_c, 0, 67, 22
1, 78410, Note_off_c, 0, 67, 61
1, 78418, Note_on_c, 0, 68, 68
1, 78444, Control_c, 0, 67, 21
1, 78472, Note_on_c, 0, 67, 77
1, 78474, Note_off_c, 0, 72, 63
1, 78490, Note_off_c, 0, 68, 60
1, 78565, Note_on_c, 0, 46, 92
1, 78574, Note_on_c, 0, 72, 83
1, 78579, Note_on_c, 0, 68, 80
1, 78600, Control_c, 0, 67, 21
1, 78604, Note_off_c, 0, 67, 62
1, 78615, Control_c, 0, 67, 20
1, 78628, Note_off_c, 0, 68, 60
1, 78629, Note_off_c, 0, 72, 65
1, 78631, Control_c, 0, 67, 20
1, 78645, Control_c, 0, 64, 55
1, 78645, Control_c, 0, 67, 19
1, 78656, Note_off_c, 0, 46, 60
1, 78660, Control_c, 0, 64, 67
1, 78660, Control_c, 0, 67, 18
1, 78675, Control_c, 0, 64, 73
1, 78675, Control_c, 0, 67, 17
1, 78690, Control_c, 0, 64, 78
1, 78690, Control_c, 0, 67, 16
1, 78705, Control_c, 0, 64, 82
1, 78705, Control_c, 0, 67, 15
1, 78719, Control_c, 0, 64, 83
1, 78719, Control_c, 0, 67, 12
1, 78734, Control_c, 0, 64, 84
1, 78734, Control_c, 0, 67, 9
1, 78739, Note_on_c, 0, 34, 85
1, 78747, Note_off_c, 0, 31, 63
1, 78749, Control_c, 0, 64, 85
1, 78749, Control_c, 0, 67, 0
1, 78824, Control_c, 0, 64, 85
1, 78868, Control_c, 0, 64, 86
1, 78880, Note_off_c, 0, 34, 61
1, 78897, Control_c, 0, 64, 84
1, 78899, Note_on_c, 0, 79, 102
1, 78901, Note_on_c, 0, 29, 93
1, 78901, Note_on_c, 0, 41, 97
1, 78904, Note_on_c, 0, 72, 95
1, 78906, Note_on_c, 0, 75, 92
1, 78912, Control_c, 0, 64, 76
1, 78927, Note_off_c, 0, 77, 62
1, 78927, Control_c, 0, 64, 45
1, 78942, Control_c, 0, 64, 0
1, 78943, Note_off_c, 0, 41, 65
1, 78944, Note_off_c, 0, 72, 64
1, 78956, Note_off_c, 0, 29, 65
1, 78961, Note_off_c, 0, 79, 61
1, 78973, Note_off_c, 0, 75, 59
1, 79220, Note_on_c, 0, 22, 87
1, 79226, Note_on_c, 0, 72, 99
1, 79227, Note_on_c, 0, 34, 90
1, 79237, Note_on_c, 0, 80, 94
1, 79238, Note_on_c, 0, 75, 89
1, 79245, Control_c, 0, 64, 62
1, 79261, Control_c, 0, 64, 75
1, 79271, Note_off_c, 0, 22, 64
1, 79276, Note_off_c, 0, 34, 56
1, 79276, Control_c, 0, 64, 90
1, 79291, Control_c, 0, 64, 127
1, 79296, Note_off_c, 0, 75, 54
1, 79310, Note_off_c, 0, 72, 40
1, 79316, Note_on_c, 0, 71, 85
1, 79319, Poly_aftertouch_c, 0, 32, 127
1, 79354, Poly_aftertouch_c, 0, 32, 0
1, 79392, Note_on_c, 0, 75, 86
1, 79397, Note_off_c, 0, 71, 66
1, 79401, Note_on_c, 0, 72, 75
1, 79432, Note_off_c, 0, 80, 61
1, 79453, Note_on_c, 0, 71, 83
1, 79453, Note_off_c, 0, 75, 62
1, 79459, Note_off_c, 0, 72, 55
1, 79533, Note_on_c, 0, 75, 95
1, 79542, Note_on_c, 0, 33, 83
1, 79547, Note_off_c, 0, 71, 65
1, 79560, Note_on_c, 0, 72, 61
1, 79566, Note_on_c, 0, 73, 51
1, 79587, Control_c, 0, 64, 99
1, 79593, Note_off_c, 0, 33, 60
1, 79598, Note_on_c, 0, 76, 48
1, 79602, Control_c, 0, 64, 72
1, 79608, Note_off_c, 0, 75, 64
1, 79608, Note_off_c, 0, 73, 0
1, 79608, Note_on_c, 0, 73, 28
1, 79617, Control_c, 0, 64, 0
1, 79617, Note_on_c, 0, 71, 80
1, 79624, Note_off_c, 0, 76, 58
1, 79635, Note_off_c, 0, 72, 65
1, 79643, Note_off_c, 0, 73, 61
1, 79657, Note_off_c, 0, 71, 67
1, 79688, Note_on_c, 0, 46, 90
1, 79697, Note_on_c, 0, 76, 92
1, 79712, Note_on_c, 0, 72, 80
1, 79730, Note_off_c, 0, 46, 64
1, 79739, Note_on_c, 0, 73, 88
1, 79748, Note_off_c, 0, 72, 51
1, 79764, Note_off_c, 0, 76, 65
1, 79792, Note_off_c, 0, 73, 65
1, 79847, Note_on_c, 0, 74, 101
1, 79850, Note_on_c, 0, 46, 97
1, 79850, Note_on_c, 0, 58, 96
1, 79851, Note_on_c, 0, 77, 101
1, 79854, Note_on_c, 0, 79, 98
1, 79867, Note_off_c, 0, 58, 72
1, 79872, Note_off_c, 0, 46, 70
1, 79874, Note_off_c, 0, 74, 72
1, 79875, Note_off_c, 0, 79, 62
1, 79888, Note_off_c, 0, 77, 66
1, 80197, Note_on_c, 0, 73, 77
1, 80197, Note_on_c, 0, 82, 102
1, 80200, Note_on_c, 0, 46, 97
1, 80201, Note_on_c, 0, 34, 96
1, 80201, Note_on_c, 0, 69, 99
1, 80201, Note_on_c, 0, 77, 93
1, 80237, Note_off_c, 0, 46, 65
1, 80237, Note_off_c, 0, 34, 64
1, 80239, Note_on_c, 0, 80, 41
1, 80266, Note_off_c, 0, 80, 56
1, 80299, Note_off_c, 0, 73, 61
1, 80315, Note_off_c, 0, 69, 53
1, 80328, Note_off_c, 0, 82, 62
1, 80358, Note_on_c, 0, 74, 95
1, 80390, Note_off_c, 0, 77, 59
1, 80398, Note_off_c, 0, 74, 68
1, 80554, Note_on_c, 0, 39, 95
1, 80554, Note_on_c, 0, 51, 100
1, 80558, Note_on_c, 0, 79, 104
1, 80561, Note_on_c, 0, 70, 97
1, 80564, Note_on_c, 0, 75, 96
1, 80579, Note_on_c, 0, 49, 60
1, 80580, Note_off_c, 0, 49, 127
1, 80587, Note_off_c, 0, 51, 65
1, 80588, Control_c, 0, 64, 69
1, 80591, Note_off_c, 0, 39, 66
1, 80591, Note_off_c, 0, 70, 66
1, 80591, Note_off_c, 0, 79, 70
1, 80593, Note_on_c, 0, 38, 40
1, 80601, Note_off_c, 0, 75, 69
1, 80602, Control_c, 0, 64, 87
1, 80617, Control_c, 0, 64, 127
1, 80625, Note_off_c, 0, 38, 57
1, 80668, Poly_aftertouch_c, 0, 78, 0
1, 81010, Control_c, 0, 64, 90
1, 81025, Control_c, 0, 64, 56
1, 81039, Control_c, 0, 64, 0
1, 81554, Note_on_c, 0, 38, 73
1, 81597, Note_on_c, 0, 63, 96
1, 81599, Note_on_c, 0, 51, 94
1, 81599, Note_on_c, 0, 58, 100
1, 81602, Note_on_c, 0, 55, 90
1, 81602, Note_on_c, 0, 39, 84
1, 81637, Note_off_c, 0, 38, 62
1, 81907, Control_c, 0, 64, 51
1, 81922, Control_c, 0, 64, 64
1, 81937, Control_c, 0, 64, 70
1, 81952, Control_c, 0, 64, 75
1, 81967, Control_c, 0, 64, 83
1, 81981, Control_c, 0, 64, 91
1, 81996, Control_c, 0, 64, 103
1, 82011, Control_c, 0, 64, 127
1, 82105, Note_off_c, 0, 55, 62
1, 82115, Note_off_c, 0, 51, 65
1, 82120, Note_off_c, 0, 58, 68
1, 82130, Note_off_c, 0, 63, 65
1, 82135, Note_off_c, 0, 39, 61
1, 82285, Control_c, 0, 64, 116
1, 82300, Control_c, 0, 64, 87
1, 82314, Control_c, 0, 64, 70
1, 82329, Control_c, 0, 64, 17
1, 82344, Control_c, 0, 64, 0
1, 82344, Control_c, 0, 67, 9
1, 82359, Control_c, 0, 67, 11
1, 82374, Control_c, 0, 67, 14
1, 82389, Control_c, 0, 67, 18
1, 82404, Control_c, 0, 67, 24
1, 82419, Control_c, 0, 67, 30
1, 82434, Control_c, 0, 67, 36
1, 82448, Control_c, 0, 67, 41
1, 82464, Control_c, 0, 67, 45
1, 82478, Control_c, 0, 67, 48
1, 82493, Control_c, 0, 67, 50
1, 82508, Control_c, 0, 67, 54
1, 82523, Control_c, 0, 67, 57
1, 82538, Control_c, 0, 67, 60
1, 82553, Control_c, 0, 67, 62
1, 82568, Control_c, 0, 67, 63
1, 82583, Control_c, 0, 67, 65
1, 82598, Control_c, 0, 67, 67
1, 82612, Control_c, 0, 67, 70
1, 82627, Control_c, 0, 67, 74
1, 82642, Control_c, 0, 67, 77
1, 82657, Control_c, 0, 67, 81
1, 82672, Control_c, 0, 67, 85
1, 82686, Control_c, 0, 67, 90
1, 82701, Control_c, 0, 67, 97
1, 82716, Control_c, 0, 67, 106
1, 82730, Control_c, 0, 67, 117
1, 82745, Control_c, 0, 67, 127
1, 83355, Note_on_c, 0, 57, 34
1, 83533, Note_on_c, 0, 58, 41
1, 83561, Note_off_c, 0, 57, 45
1, 83745, Note_on_c, 0, 63, 53
1, 83769, Note_on_c, 0, 54, 37
1, 83773, Note_on_c, 0, 39, 29
1, 83778, Note_on_c, 0, 46, 28
1, 83790, Note_off_c, 0, 58, 43
1, 83842, Control_c, 0, 64, 61
1, 83857, Control_c, 0, 64, 67
1, 83872, Control_c, 0, 64, 73
1, 83886, Control_c, 0, 64, 78
1, 83892, Note_off_c, 0, 54, 52
1, 83901, Control_c, 0, 64, 84
1, 83914, Note_off_c, 0, 39, 51
1, 83916, Control_c, 0, 64, 92
1, 83923, Note_off_c, 0, 46, 46
1, 83931, Control_c, 0, 64, 100
1, 83946, Control_c, 0, 64, 109
1, 83960, Control_c, 0, 64, 127
1, 84133, Note_on_c, 0, 61, 65
1, 84149, Note_on_c, 0, 42, 55
1, 84152, Note_on_c, 0, 58, 57
1, 84153, Note_on_c, 0, 54, 49
1, 84198, Control_c, 0, 64, 119
1, 84213, Control_c, 0, 64, 100
1, 84228, Control_c, 0, 64, 88
1, 84234, Note_off_c, 0, 63, 60
1, 84243, Control_c, 0, 64, 74
1, 84258, Control_c, 0, 64, 64
1, 84273, Control_c, 0, 64, 0
1, 84546, Note_on_c, 0, 63, 66
1, 84591, Control_c, 0, 64, 36
1, 84606, Control_c, 0, 64, 64
1, 84621, Control_c, 0, 64, 70
1, 84636, Control_c, 0, 64, 79
1, 84651, Control_c, 0, 64, 87
1, 84652, Note_off_c, 0, 54, 64
1, 84665, Control_c, 0, 64, 93
1, 84674, Note_off_c, 0, 61, 60
1, 84680, Control_c, 0, 64, 96
1, 84693, Note_off_c, 0, 42, 63
1, 84695, Control_c, 0, 64, 98
1, 84708, Note_off_c, 0, 58, 38
1, 84709, Control_c, 0, 64, 99
1, 84724, Control_c, 0, 64, 99
1, 84813, Control_c, 0, 64, 97
1, 84827, Control_c, 0, 64, 91
1, 84842, Control_c, 0, 64, 82
1, 84859, Control_c, 0, 64, 71
1, 84873, Control_c, 0, 64, 50
1, 84888, Control_c, 0, 64, 0
1, 84908, Note_on_c, 0, 41, 53
1, 84916, Note_on_c, 0, 65, 59
1, 84922, Note_on_c, 0, 48, 47
1, 84926, Note_on_c, 0, 57, 45
1, 84943, Note_off_c, 0, 63, 60
1, 84976, Note_off_c, 0, 48, 62
1, 84997, Note_on_c, 0, 49, 61
1, 85045, Note_off_c, 0, 49, 62
1, 85052, Note_off_c, 0, 57, 48
1, 85075, Note_off_c, 0, 65, 60
1, 85084, Note_on_c, 0, 48, 52
1, 85085, Note_on_c, 0, 66, 55
1, 85126, Note_off_c, 0, 48, 59
1, 85149, Note_on_c, 0, 49, 59
1, 85152, Note_off_c, 0, 41, 50
1, 85273, Note_off_c, 0, 49, 52
1, 85293, Note_on_c, 0, 65, 51
1, 85295, Note_off_c, 0, 66, 58
1, 85302, Note_on_c, 0, 41, 42
1, 85303, Note_on_c, 0, 48, 47
1, 85325, Note_on_c, 0, 57, 38
1, 85355, Control_c, 0, 64, 53
1, 85370, Control_c, 0, 64, 66
1, 85385, Control_c, 0, 64, 72
1, 85400, Control_c, 0, 64, 81
1, 85412, Note_off_c, 0, 57, 61
1, 85414, Control_c, 0, 64, 88
1, 85426, Note_off_c, 0, 65, 63
1, 85429, Control_c, 0, 64, 95
1, 85431, Note_off_c, 0, 48, 62
1, 85438, Note_off_c, 0, 41, 55
1, 85444, Control_c, 0, 64, 97
1, 85458, Control_c, 0, 64, 96
1, 85473, Control_c, 0, 64, 89
1, 85488, Control_c, 0, 64, 74
1, 85503, Control_c, 0, 64, 43
1, 85518, Control_c, 0, 64, 0
1, 85692, Note_on_c, 0, 76, 52
1, 85870, Note_on_c, 0, 77, 52
1, 85911, Note_off_c, 0, 76, 53
1, 85985, Control_c, 0, 64, 21
1, 86000, Control_c, 0, 64, 56
1, 86015, Control_c, 0, 64, 64
1, 86029, Control_c, 0, 64, 68
1, 86044, Control_c, 0, 64, 71
1, 86049, Note_on_c, 0, 65, 40
1, 86051, Note_off_c, 0, 77, 62
1, 86057, Note_on_c, 0, 58, 42
1, 86057, Note_on_c, 0, 73, 46
1, 86059, Control_c, 0, 64, 75
1, 86073, Control_c, 0, 64, 79
1, 86088, Control_c, 0, 64, 83
1, 86103, Control_c, 0, 64, 87
1, 86118, Control_c, 0, 64, 91
1, 86133, Control_c, 0, 64, 94
1, 86138, Note_off_c, 0, 65, 61
1, 86144, Note_off_c, 0, 58, 61
1, 86147, Control_c, 0, 64, 95
1, 86162, Control_c, 0, 64, 96
1, 86192, Control_c, 0, 64, 97
1, 86207, Control_c, 0, 64, 97
1, 86218, Note_off_c, 0, 73, 62
1, 86221, Control_c, 0, 64, 98
1, 86230, Note_on_c, 0, 82, 59
1, 86251, Control_c, 0, 64, 99
1, 86399, Control_c, 0, 64, 98
1, 86413, Note_on_c, 0, 72, 60
1, 86413, Note_on_c, 0, 80, 60
1, 86414, Control_c, 0, 64, 96
1, 86426, Note_off_c, 0, 82, 52
1, 86428, Note_on_c, 0, 77, 44
1, 86428, Control_c, 0, 64, 92
1, 86437, Note_on_c, 0, 61, 40
1, 86443, Control_c, 0, 64, 87
1, 86459, Control_c, 0, 64, 80
1, 86474, Control_c, 0, 64, 73
1, 86489, Control_c, 0, 64, 63
1, 86497, Note_off_c, 0, 77, 39
1, 86503, Control_c, 0, 64, 0
1, 86583, Note_off_c, 0, 72, 59
1, 86591, Note_on_c, 0, 82, 69
1, 86595, Note_on_c, 0, 70, 55
1, 86605, Note_off_c, 0, 80, 58
1, 86755, Note_off_c, 0, 70, 60
1, 86770, Note_on_c, 0, 68, 51
1, 86777, Note_on_c, 0, 77, 54
1, 86778, Note_off_c, 0, 82, 62
1, 86788, Note_on_c, 0, 80, 65
1, 86884, Note_off_c, 0, 77, 48
1, 86917, Note_off_c, 0, 68, 60
1, 86936, Note_off_c, 0, 61, 47
1, 86949, Note_on_c, 0, 82, 68
1, 86953, Note_on_c, 0, 67, 48
1, 86983, Note_off_c, 0, 80, 56
1, 87099, Note_off_c, 0, 82, 64
1, 87106, Note_on_c, 0, 60, 49
1, 87109, Note_on_c, 0, 84, 69
1, 87117, Note_off_c, 0, 67, 41
1, 87139, Note_on_c, 0, 76, 27
1, 87184, Note_on_c, 0, 68, 50
1, 87196, Note_off_c, 0, 76, 41
1, 87241, Note_off_c, 0, 68, 58
1, 87282, Note_on_c, 0, 85, 71
1, 87282, Note_off_c, 0, 84, 62
1, 87287, Note_on_c, 0, 67, 51
1, 87338, Note_off_c, 0, 67, 55
1, 87345, Note_off_c, 0, 60, 49
1, 87369, Note_on_c, 0, 68, 47
1, 87511, Note_on_c, 0, 84, 59
1, 87537, Note_on_c, 0, 67, 38
1, 87540, Note_on_c, 0, 60, 22
1, 87545, Note_off_c, 0, 68, 49
1, 87559, Note_on_c, 0, 76, 45
1, 87607, Note_off_c, 0, 85, 62
1, 87644, Control_c, 0, 64, 39
1, 87659, Control_c, 0, 64, 62
1, 87674, Control_c, 0, 64, 68
1, 87689, Control_c, 0, 64, 73
1, 87704, Control_c, 0, 64, 79
1, 87719, Control_c, 0, 64, 86
1, 87733, Control_c, 0, 64, 93
1, 87743, Note_off_c, 0, 67, 61
1, 87748, Control_c, 0, 64, 99
1, 87749, Note_off_c, 0, 84, 64
1, 87751, Note_off_c, 0, 76, 56
1, 87763, Control_c, 0, 64, 106
1, 87778, Control_c, 0, 64, 110
1, 87792, Control_c, 0, 64, 113
1, 87800, Note_off_c, 0, 60, 42
1, 87807, Control_c, 0, 64, 116
1, 87822, Control_c, 0, 64, 119
1, 87837, Control_c, 0, 64, 127
1, 87985, Control_c, 0, 64, 91
1, 87999, Control_c, 0, 64, 67
1, 88014, Control_c, 0, 64, 0
1, 88258, Note_on_c, 0, 48, 50
1, 88263, Note_on_c, 0, 62, 51
1, 88270, Note_on_c, 0, 55, 40
1, 88274, Note_on_c, 0, 58, 38
1, 88327, Note_off_c, 0, 48, 60
1, 88349, Note_on_c, 0, 47, 54
1, 88360, Note_off_c, 0, 55, 50
1, 88370, Note_off_c, 0, 58, 46
1, 88398, Note_off_c, 0, 47, 65
1, 88434, Note_on_c, 0, 48, 55
1, 88490, Note_off_c, 0, 48, 58
1, 88499, Note_on_c, 0, 36, 58
1, 88583, Note_on_c, 0, 41, 85
1, 88586, Note_on_c, 0, 64, 75
1, 88586, Control_c, 0, 67, 123
1, 88591, Note_off_c, 0, 36, 60
1, 88593, Note_on_c, 0, 58, 73
1, 88595, Note_on_c, 0, 55, 64
1, 88601, Control_c, 0, 67, 120
1, 88602, Note_off_c, 0, 62, 62
1, 88608, Note_off_c, 0, 41, 66
1, 88613, Note_off_c, 0, 64, 69
1, 88616, Note_off_c, 0, 58, 70
1, 88616, Control_c, 0, 67, 117
1, 88621, Note_off_c, 0, 55, 64
1, 88646, Control_c, 0, 67, 120
1, 88661, Control_c, 0, 67, 123
1, 88675, Control_c, 0, 67, 127
1, 88949, Note_on_c, 0, 65, 67
1, 88950, Note_on_c, 0, 52, 58
1, 88953, Note_on_c, 0, 58, 60
1, 88972, Note_on_c, 0, 62, 51
1, 89028, Note_on_c, 0, 51, 70
1, 89030, Note_off_c, 0, 52, 62
1, 89047, Note_off_c, 0, 62, 52
1, 89057, Note_off_c, 0, 58, 48
1, 89084, Note_off_c, 0, 51, 64
1, 89112, Note_on_c, 0, 52, 79
1, 89166, Note_on_c, 0, 40, 73
1, 89198, Note_off_c, 0, 52, 60
1, 89217, Control_c, 0, 67, 124
1, 89232, Control_c, 0, 67, 119
1, 89246, Control_c, 0, 67, 113
1, 89251, Note_on_c, 0, 67, 93
1, 89256, Note_on_c, 0, 58, 84
1, 89257, Note_on_c, 0, 45, 97
1, 89257, Note_on_c, 0, 62, 79
1, 89261, Control_c, 0, 67, 105
1, 89273, Note_off_c, 0, 40, 63
1, 89275, Note_off_c, 0, 58, 71
1, 89276, Control_c, 0, 67, 94
1, 89278, Note_off_c, 0, 45, 73
1, 89278, Note_off_c, 0, 62, 70
1, 89278, Note_off_c, 0, 65, 65
1, 89286, Note_off_c, 0, 67, 66
1, 89291, Control_c, 0, 67, 85
1, 89305, Control_c, 0, 67, 82
1, 89335, Control_c, 0, 67, 84
1, 89350, Control_c, 0, 67, 86
1, 89365, Control_c, 0, 67, 89
1, 89379, Control_c, 0, 67, 94
1, 89394, Control_c, 0, 67, 99
1, 89409, Control_c, 0, 67, 107
1, 89424, Control_c, 0, 67, 117
1, 89439, Control_c, 0, 67, 123
1, 89454, Control_c, 0, 67, 127
1, 89593, Note_on_c, 0, 69, 88
1, 89595, Note_on_c, 0, 55, 72
1, 89600, Note_on_c, 0, 62, 79
1, 89604, Note_on_c, 0, 65, 80
1, 89662, Control_c, 0, 67, 126
1, 89677, Control_c, 0, 67, 124
1, 89682, Note_on_c, 0, 54, 78
1, 89683, Note_off_c, 0, 55, 63
1, 89692, Control_c, 0, 67, 123
1, 89707, Control_c, 0, 67, 121
1, 89710, Note_off_c, 0, 65, 53
1, 89728, Control_c, 0, 67, 120
1, 89743, Note_off_c, 0, 62, 52
1, 89743, Control_c, 0, 67, 118
1, 89748, Note_on_c, 0, 55, 77
1, 89748, Note_off_c, 0, 54, 64
1, 89758, Control_c, 0, 67, 116
1, 89773, Control_c, 0, 67, 113
1, 89788, Control_c, 0, 67, 109
1, 89802, Control_c, 0, 67, 104
1, 89817, Control_c, 0, 67, 100
1, 89827, Note_off_c, 0, 55, 65
1, 89832, Control_c, 0, 67, 96
1, 89836, Note_on_c, 0, 43, 74
1, 89847, Control_c, 0, 67, 91
1, 89862, Control_c, 0, 67, 86
1, 89877, Control_c, 0, 67, 81
1, 89892, Control_c, 0, 67, 72
1, 89907, Control_c, 0, 67, 63
1, 89910, Note_on_c, 0, 48, 99
1, 89910, Note_on_c, 0, 70, 100
1, 89913, Note_on_c, 0, 62, 98
1, 89914, Note_on_c, 0, 65, 95
1, 89921, Control_c, 0, 67, 57
1, 89934, Note_off_c, 0, 43, 63
1, 89936, Note_off_c, 0, 69, 64
1, 89936, Control_c, 0, 67, 50
1, 89940, Note_off_c, 0, 62, 65
1, 89942, Note_off_c, 0, 48, 68
1, 89945, Note_off_c, 0, 65, 69
1, 89948, Note_off_c, 0, 70, 70
1, 89951, Control_c, 0, 67, 42
1, 89966, Control_c, 0, 67, 36
1, 89981, Control_c, 0, 67, 31
1, 89995, Control_c, 0, 67, 28
1, 90010, Control_c, 0, 67, 27
1, 90039, Control_c, 0, 67, 28
1, 90054, Control_c, 0, 67, 30
1, 90069, Control_c, 0, 67, 31
1, 90084, Control_c, 0, 67, 32
1, 90128, Control_c, 0, 67, 32
1, 90143, Control_c, 0, 67, 30
1, 90158, Control_c, 0, 67, 29
1, 90173, Control_c, 0, 67, 29
1, 90188, Control_c, 0, 67, 28
1, 90202, Control_c, 0, 67, 28
1, 90381, Control_c, 0, 67, 27
1, 90395, Control_c, 0, 67, 26
1, 90410, Control_c, 0, 67, 26
1, 90422, Note_on_c, 0, 55, 67
1, 90425, Control_c, 0, 67, 25
1, 90440, Control_c, 0, 67, 25
1, 90447, Note_on_c, 0, 56, 80
1, 90455, Control_c, 0, 67, 24
1, 90477, Control_c, 0, 67, 23
1, 90479, Note_on_c, 0, 57, 77
1, 90492, Control_c, 0, 67, 21
1, 90498, Note_on_c, 0, 58, 88
1, 90504, Note_off_c, 0, 56, 65
1, 90506, Note_off_c, 0, 55, 65
1, 90507, Control_c, 0, 67, 19
1, 90516, Note_on_c, 0, 59, 104
1, 90521, Note_off_c, 0, 57, 64
1, 90522, Control_c, 0, 67, 16
1, 90537, Control_c, 0, 67, 10
1, 90539, Note_on_c, 0, 60, 117
1, 90542, Note_off_c, 0, 58, 62
1, 90551, Note_off_c, 0, 59, 69
1, 90551, Control_c, 0, 67, 0
1, 91009, Note_on_c, 0, 71, 87
1, 91012, Note_on_c, 0, 50, 73
1, 91013, Note_on_c, 0, 67, 84
1, 91017, Note_on_c, 0, 64, 79
1, 91038, Note_off_c, 0, 50, 69
1, 91038, Note_off_c, 0, 64, 72
1, 91038, Note_off_c, 0, 67, 65
1, 91054, Note_off_c, 0, 71, 65
1, 91129, Control_c, 0, 67, 8
1, 91144, Control_c, 0, 67, 12
1, 91159, Control_c, 0, 67, 17
1, 91174, Control_c, 0, 67, 23
1, 91188, Control_c, 0, 67, 28
1, 91203, Control_c, 0, 67, 34
1, 91225, Control_c, 0, 67, 39
1, 91240, Control_c, 0, 67, 43
1, 91256, Control_c, 0, 67, 47
1, 91271, Control_c, 0, 67, 49
1, 91286, Control_c, 0, 67, 52
1, 91300, Control_c, 0, 67, 54
1, 91315, Control_c, 0, 67, 55
1, 91330, Control_c, 0, 67, 56
1, 91345, Control_c, 0, 67, 57
1, 91360, Control_c, 0, 67, 57
1, 91374, Control_c, 0, 67, 58
1, 91383, Note_on_c, 0, 72, 92
1, 91389, Control_c, 0, 67, 60
1, 91391, Note_on_c, 0, 64, 78
1, 91391, Note_on_c, 0, 67, 82
1, 91396, Note_on_c, 0, 43, 78
1, 91404, Control_c, 0, 67, 64
1, 91412, Note_off_c, 0, 67, 70
1, 91412, Note_off_c, 0, 64, 72
1, 91419, Control_c, 0, 67, 68
1, 91420, Note_off_c, 0, 43, 66
1, 91427, Note_off_c, 0, 72, 63
1, 91434, Control_c, 0, 67, 71
1, 91448, Control_c, 0, 67, 73
1, 91463, Control_c, 0, 67, 74
1, 91522, Control_c, 0, 67, 74
1, 91537, Control_c, 0, 67, 75
1, 91552, Control_c, 0, 67, 76
1, 91567, Control_c, 0, 67, 80
1, 91582, Control_c, 0, 67, 86
1, 91597, Control_c, 0, 67, 90
1, 91612, Control_c, 0, 67, 93
1, 91627, Control_c, 0, 67, 95
1, 91641, Control_c, 0, 67, 97
1, 91656, Control_c, 0, 67, 98
1, 91671, Control_c, 0, 67, 102
1, 91685, Control_c, 0, 67, 107
1, 91700, Control_c, 0, 67, 114
1, 91715, Control_c, 0, 67, 122
1, 91730, Control_c, 0, 67, 127
1, 92080, Note_on_c, 0, 72, 68
1, 92092, Note_on_c, 0, 64, 61
1, 92098, Note_on_c, 0, 67, 48
1, 92104, Note_off_c, 0, 72, 68
1, 92105, Note_on_c, 0, 38, 50
1, 92115, Note_off_c, 0, 64, 66
1, 92122, Note_off_c, 0, 67, 58
1, 92277, Note_on_c, 0, 31, 53
1, 92290, Note_off_c, 0, 38, 46
1, 92446, Note_on_c, 0, 71, 66
1, 92450, Note_off_c, 0, 31, 52
1, 92456, Note_on_c, 0, 67, 58
1, 92458, Note_on_c, 0, 64, 51
1, 92467, Note_on_c, 0, 38, 45
1, 92472, Note_off_c, 0, 71, 67
1, 92481, Note_off_c, 0, 64, 61
1, 92482, Note_off_c, 0, 67, 63
1, 92638, Note_on_c, 0, 31, 46
1, 92641, Note_off_c, 0, 38, 42
1, 92840, Note_on_c, 0, 71, 64
1, 92852, Note_on_c, 0, 67, 53
1, 92854, Note_off_c, 0, 31, 51
1, 92855, Note_on_c, 0, 38, 50
1, 92858, Note_on_c, 0, 64, 44
1, 92870, Note_off_c, 0, 71, 64
1, 92875, Note_off_c, 0, 67, 60
1, 92884, Note_off_c, 0, 64, 56
1, 92888, Note_off_c, 0, 38, 62
1, 93233, Note_on_c, 0, 72, 60
1, 93236, Note_on_c, 0, 31, 42
1, 93242, Note_on_c, 0, 64, 51
1, 93248, Note_on_c, 0, 67, 44
1, 93263, Note_off_c, 0, 72, 63
1, 93268, Note_off_c, 0, 64, 63
1, 93273, Note_off_c, 0, 31, 62
1, 93274, Note_off_c, 0, 67, 57
1, 93843, Control_c, 0, 64, 23
1, 93858, Control_c, 0, 64, 32
1, 93873, Control_c, 0, 64, 38
1, 93887, Control_c, 0, 64, 43
1, 93902, Control_c, 0, 64, 47
1, 93917, Control_c, 0, 64, 51
1, 93932, Control_c, 0, 64, 56
1, 93947, Control_c, 0, 64, 60
1, 93961, Control_c, 0, 64, 63
1, 93976, Control_c, 0, 64, 64
1, 93991, Control_c, 0, 64, 65
1, 94006, Control_c, 0, 64, 66
1, 94020, Control_c, 0, 64, 67
1, 94035, Control_c, 0, 64, 68
1, 94050, Control_c, 0, 64, 70
1, 94065, Control_c, 0, 64, 71
1, 94080, Control_c, 0, 64, 72
1, 94095, Control_c, 0, 64, 73
1, 94110, Control_c, 0, 64, 75
1, 94125, Control_c, 0, 64, 76
1, 94140, Control_c, 0, 64, 78
1, 94154, Control_c, 0, 64, 80
1, 94169, Control_c, 0, 64, 81
1, 94184, Control_c, 0, 64, 83
1, 94199, Control_c, 0, 64, 84
1, 94220, Control_c, 0, 64, 85
1, 94235, Control_c, 0, 64, 87
1, 94250, Control_c, 0, 64, 88
1, 94265, Control_c, 0, 64, 89
1, 94280, Control_c, 0, 64, 91
1, 94295, Control_c, 0, 64, 92
1, 94309, Control_c, 0, 64, 92
1, 94324, Control_c, 0, 64, 93
1, 94339, Control_c, 0, 64, 94
1, 94355, Control_c, 0, 64, 94
1, 94369, Control_c, 0, 64, 95
1, 94384, Control_c, 0, 64, 95
1, 94399, Control_c, 0, 64, 96
1, 94429, Control_c, 0, 64, 96
1, 94710, Note_off_c, 0, 60, 17
1, 94756, Control_c, 0, 64, 95
1, 94771, Control_c, 0, 64, 93
1, 94785, Control_c, 0, 64, 91
1, 94800, Control_c, 0, 64, 86
1, 94815, Control_c, 0, 64, 80
1, 94830, Control_c, 0, 64, 74
1, 94844, Control_c, 0, 64, 69
1, 94859, Control_c, 0, 64, 64
1, 94874, Control_c, 0, 64, 62
1, 94889, Control_c, 0, 64, 61
1, 94904, Control_c, 0, 64, 59
1, 94918, Control_c, 0, 64, 57
1, 94933, Control_c, 0, 64, 51
1, 94948, Control_c, 0, 64, 43
1, 94971, Control_c, 0, 64, 35
1, 94986, Control_c, 0, 64, 32
1, 95000, Control_c, 0, 64, 31
1, 95015, Control_c, 0, 64, 30
1, 95030, Control_c, 0, 64, 29
1, 95044, Control_c, 0, 64, 28
1, 95074, Control_c, 0, 64, 27
1, 95083, Note_on_c, 0, 59, 37
1, 95103, Control_c, 0, 64, 26
1, 95117, Control_c, 0, 64, 21
1, 95132, Control_c, 0, 64, 0
1, 95273, Note_on_c, 0, 60, 43
1, 95303, Note_off_c, 0, 59, 48
1, 95491, Note_on_c, 0, 65, 47
1, 95508, Note_on_c, 0, 41, 35
1, 95508, Note_on_c, 0, 48, 35
1, 95511, Note_on_c, 0, 56, 35
1, 95568, Note_off_c, 0, 60, 35
1, 95622, Control_c, 0, 64, 61
1, 95637, Control_c, 0, 64, 68
1, 95639, Note_off_c, 0, 41, 55
1, 95645, Note_off_c, 0, 48, 56
1, 95652, Control_c, 0, 64, 74
1, 95660, Note_off_c, 0, 56, 57
1, 95666, Control_c, 0, 64, 80
1, 95681, Control_c, 0, 64, 85
1, 95696, Control_c, 0, 64, 90
1, 95719, Control_c, 0, 64, 95
1, 95734, Control_c, 0, 64, 99
1, 95748, Control_c, 0, 64, 104
1, 95763, Control_c, 0, 64, 109
1, 95778, Control_c, 0, 64, 114
1, 95792, Control_c, 0, 64, 123
1, 95807, Control_c, 0, 64, 127
1, 95907, Note_on_c, 0, 63, 61
1, 95928, Note_on_c, 0, 56, 50
1, 95929, Note_on_c, 0, 44, 54
1, 95937, Note_on_c, 0, 60, 49
1, 95940, Control_c, 0, 64, 118
1, 95955, Control_c, 0, 64, 104
1, 95970, Control_c, 0, 64, 92
1, 95978, Note_off_c, 0, 65, 61
1, 95985, Control_c, 0, 64, 80
1, 96000, Control_c, 0, 64, 69
1, 96015, Control_c, 0, 64, 57
1, 96030, Control_c, 0, 64, 0
1, 96329, Note_on_c, 0, 65, 65
1, 96400, Control_c, 0, 64, 53
1, 96415, Control_c, 0, 64, 66
1, 96430, Control_c, 0, 64, 72
1, 96442, Note_off_c, 0, 56, 63
1, 96442, Note_off_c, 0, 63, 59
1, 96445, Control_c, 0, 64, 77
1, 96468, Control_c, 0, 64, 82
1, 96482, Control_c, 0, 64, 85
1, 96497, Control_c, 0, 64, 88
1, 96508, Note_off_c, 0, 60, 61
1, 96512, Control_c, 0, 64, 91
1, 96527, Control_c, 0, 64, 92
1, 96532, Note_off_c, 0, 44, 59
1, 96542, Control_c, 0, 64, 93
1, 96615, Control_c, 0, 64, 92
1, 96630, Control_c, 0, 64, 91
1, 96645, Control_c, 0, 64, 89
1, 96660, Control_c, 0, 64, 83
1, 96675, Control_c, 0, 64, 75
1, 96682, Note_on_c, 0, 43, 50
1, 96686, Note_on_c, 0, 50, 49
1, 96689, Control_c, 0, 64, 66
1, 96693, Note_on_c, 0, 67, 63
1, 96704, Control_c, 0, 64, 21
1, 96708, Note_on_c, 0, 59, 42
1, 96719, Control_c, 0, 64, 0
1, 96729, Note_off_c, 0, 65, 62
1, 96753, Note_off_c, 0, 50, 66
1, 96765, Note_on_c, 0, 51, 61
1, 96816, Note_off_c, 0, 51, 61
1, 96860, Note_on_c, 0, 50, 52
1, 96861, Note_off_c, 0, 67, 59
1, 96862, Note_on_c, 0, 68, 65
1, 96875, Note_off_c, 0, 59, 47
1, 96906, Note_off_c, 0, 50, 63
1, 96921, Note_off_c, 0, 43, 62
1, 96924, Note_on_c, 0, 51, 62
1, 97027, Note_off_c, 0, 51, 31
1, 97053, Note_off_c, 0, 68, 57
1, 97057, Note_on_c, 0, 67, 59
1, 97070, Note_on_c, 0, 43, 55
1, 97075, Note_on_c, 0, 50, 53
1, 97083, Note_on_c, 0, 59, 53
1, 97120, Control_c, 0, 64, 61
1, 97135, Control_c, 0, 64, 68
1, 97150, Control_c, 0, 64, 75
1, 97153, Note_off_c, 0, 59, 61
1, 97158, Note_off_c, 0, 50, 64
1, 97165, Control_c, 0, 64, 81
1, 97165, Note_off_c, 0, 43, 63
1, 97178, Note_off_c, 0, 67, 62
1, 97179, Control_c, 0, 64, 88
1, 97194, Control_c, 0, 64, 91
1, 97216, Control_c, 0, 64, 92
1, 97246, Control_c, 0, 64, 91
1, 97261, Control_c, 0, 64, 85
1, 97275, Control_c, 0, 64, 73
1, 97290, Control_c, 0, 64, 59
1, 97305, Control_c, 0, 64, 0
1, 97461, Note_on_c, 0, 78, 59
1, 97634, Note_on_c, 0, 79, 58
1, 97636, Note_off_c, 0, 78, 55
1, 97810, Control_c, 0, 64, 51
1, 97812, Note_off_c, 0, 79, 60
1, 97814, Note_on_c, 0, 60, 48
1, 97814, Note_on_c, 0, 75, 52
1, 97825, Control_c, 0, 64, 63
1, 97836, Note_on_c, 0, 67, 34
1, 97840, Control_c, 0, 64, 67
1, 97854, Control_c, 0, 64, 71
1, 97869, Control_c, 0, 64, 73
1, 97873, Note_off_c, 0, 67, 61
1, 97883, Note_off_c, 0, 60, 63
1, 97884, Control_c, 0, 64, 76
1, 97899, Control_c, 0, 64, 78
1, 97914, Control_c, 0, 64, 80
1, 97928, Control_c, 0, 64, 83
1, 97943, Control_c, 0, 64, 85
1, 97966, Control_c, 0, 64, 88
1, 97981, Control_c, 0, 64, 91
1, 97985, Note_off_c, 0, 75, 59
1, 97995, Control_c, 0, 64, 92
1, 98003, Note_on_c, 0, 84, 62
1, 98010, Control_c, 0, 64, 93
1, 98025, Control_c, 0, 64, 94
1, 98173, Control_c, 0, 64, 93
1, 98179, Note_on_c, 0, 82, 73
1, 98188, Note_off_c, 0, 84, 61
1, 98188, Control_c, 0, 64, 92
1, 98190, Note_on_c, 0, 74, 52
1, 98203, Control_c, 0, 64, 91
1, 98213, Note_on_c, 0, 79, 44
1, 98215, Note_on_c, 0, 63, 41
1, 98217, Control_c, 0, 64, 88
1, 98232, Control_c, 0, 64, 82
1, 98247, Control_c, 0, 64, 75
1, 98262, Control_c, 0, 64, 66
1, 98277, Control_c, 0, 64, 14
1, 98292, Control_c, 0, 64, 0
1, 98347, Note_off_c, 0, 79, 44
1, 98357, Note_off_c, 0, 74, 63
1, 98365, Note_on_c, 0, 72, 55
1, 98366, Note_on_c, 0, 84, 66
1, 98391, Note_off_c, 0, 82, 60
1, 98511, Note_off_c, 0, 72, 61
1, 98527, Note_off_c, 0, 84, 64
1, 98534, Note_on_c, 0, 70, 51
1, 98535, Note_on_c, 0, 82, 67
1, 98554, Note_on_c, 0, 79, 39
1, 98643, Note_off_c, 0, 79, 33
1, 98683, Note_off_c, 0, 70, 58
1, 98712, Note_off_c, 0, 63, 53
1, 98715, Note_on_c, 0, 84, 65
1, 98715, Note_off_c, 0, 82, 59
1, 98721, Note_on_c, 0, 69, 49
1, 98861, Note_off_c, 0, 84, 64
1, 98869, Note_on_c, 0, 62, 54
1, 98873, Note_on_c, 0, 86, 66
1, 98882, Note_off_c, 0, 69, 56
1, 98892, Note_on_c, 0, 78, 43
1, 98953, Note_on_c, 0, 70, 49
1, 98995, Note_off_c, 0, 70, 62
1, 99035, Note_on_c, 0, 69, 44
1, 99036, Note_off_c, 0, 78, 44
1, 99044, Note_off_c, 0, 86, 63
1, 99046, Note_on_c, 0, 87, 74
1, 99087, Note_off_c, 0, 69, 58
1, 99106, Note_off_c, 0, 62, 39
1, 99118, Note_on_c, 0, 70, 50
1, 99284, Note_on_c, 0, 86, 63
1, 99295, Note_on_c, 0, 69, 40
1, 99306, Note_on_c, 0, 62, 30
1, 99311, Note_off_c, 0, 70, 37
1, 99340, Note_on_c, 0, 78, 39
1, 99380, Note_off_c, 0, 87, 61
1, 99492, Control_c, 0, 64, 63
1, 99506, Control_c, 0, 64, 70
1, 99521, Control_c, 0, 64, 78
1, 99532, Note_off_c, 0, 69, 63
1, 99536, Note_off_c, 0, 86, 66
1, 99536, Control_c, 0, 64, 88
1, 99551, Control_c, 0, 64, 96
1, 99558, Note_off_c, 0, 62, 54
1, 99560, Note_off_c, 0, 78, 62
1, 99566, Control_c, 0, 64, 101
1, 99580, Control_c, 0, 64, 102
1, 99684, Control_c, 0, 64, 100
1, 99699, Control_c, 0, 64, 92
1, 99714, Control_c, 0, 64, 79
1, 99729, Control_c, 0, 64, 64
1, 99744, Control_c, 0, 64, 0
1, 99995, Note_on_c, 0, 50, 50
1, 100000, Note_on_c, 0, 64, 59
1, 100006, Note_on_c, 0, 57, 45
1, 100007, Note_on_c, 0, 60, 47
1, 100063, Note_off_c, 0, 50, 62
1, 100077, Note_on_c, 0, 49, 61
1, 100098, Note_off_c, 0, 60, 58
1, 100106, Note_off_c, 0, 57, 52
1, 100116, Note_off_c, 0, 49, 63
1, 100162, Note_on_c, 0, 50, 61
1, 100221, Note_off_c, 0, 50, 62
1, 100227, Note_on_c, 0, 38, 67
1, 100311, Note_off_c, 0, 38, 61
1, 100320, Note_on_c, 0, 66, 81
1, 100322, Note_on_c, 0, 43, 80
1, 100327, Note_on_c, 0, 60, 71
1, 100328, Note_on_c, 0, 57, 67
1, 100343, Note_off_c, 0, 64, 65
1, 100345, Note_off_c, 0, 43, 67
1, 100352, Note_off_c, 0, 60, 69
1, 100354, Note_off_c, 0, 57, 66
1, 100368, Note_off_c, 0, 66, 64
1, 100673, Note_on_c, 0, 67, 69
1, 100677, Note_on_c, 0, 54, 59
1, 100682, Note_on_c, 0, 60, 57
1, 100685, Note_on_c, 0, 64, 56
1, 100745, Note_off_c, 0, 54, 63
1, 100755, Note_on_c, 0, 53, 71
1, 100761, Note_off_c, 0, 64, 58
1, 100810, Note_off_c, 0, 60, 53
1, 100816, Note_off_c, 0, 53, 64
1, 100838, Note_on_c, 0, 54, 73
1, 100911, Note_on_c, 0, 42, 65
1, 100991, Note_on_c, 0, 69, 89
1, 100995, Note_on_c, 0, 60, 86
1, 100996, Note_on_c, 0, 64, 80
1, 101001, Note_on_c, 0, 47, 86
1, 101014, Note_off_c, 0, 54, 64
1, 101015, Note_off_c, 0, 42, 64
1, 101018, Note_off_c, 0, 60, 69
1, 101024, Note_off_c, 0, 64, 67
1, 101027, Note_off_c, 0, 67, 55
1, 101036, Note_off_c, 0, 69, 67
1, 101043, Note_off_c, 0, 47, 68
1, 101329, Note_on_c, 0, 71, 90
1, 101335, Note_on_c, 0, 57, 74
1, 101338, Note_on_c, 0, 67, 79
1, 101341, Note_on_c, 0, 64, 75
1, 101413, Note_on_c, 0, 56, 84
1, 101422, Note_off_c, 0, 57, 61
1, 101477, Note_off_c, 0, 67, 57
1, 101489, Note_on_c, 0, 57, 81
1, 101490, Note_off_c, 0, 56, 64
1, 101492, Note_off_c, 0, 64, 56
1, 101571, Note_on_c, 0, 45, 78
1, 101586, Note_off_c, 0, 57, 63
1, 101655, Note_on_c, 0, 72, 94
1, 101656, Note_on_c, 0, 50, 95
1, 101662, Note_on_c, 0, 67, 97
1, 101663, Note_on_c, 0, 64, 96
1, 101672, Control_c, 0, 67, 122
1, 101679, Note_off_c, 0, 45, 65
1, 101687, Note_off_c, 0, 71, 65
1, 101687, Control_c, 0, 67, 109
1, 101709, Control_c, 0, 64, 61
1, 101709, Control_c, 0, 67, 89
1, 101715, Note_off_c, 0, 50, 70
1, 101724, Control_c, 0, 64, 69
1, 101724, Control_c, 0, 67, 65
1, 101725, Note_off_c, 0, 64, 64
1, 101730, Note_off_c, 0, 72, 68
1, 101733, Note_off_c, 0, 67, 64
1, 101739, Control_c, 0, 64, 76
1, 101739, Control_c, 0, 67, 40
1, 101754, Control_c, 0, 64, 82
1, 101754, Control_c, 0, 67, 13
1, 101769, Control_c, 0, 64, 82
1, 101769, Control_c, 0, 67, 0
1, 101783, Control_c, 0, 64, 80
1, 101798, Control_c, 0, 64, 74
1, 101813, Control_c, 0, 64, 65
1, 101827, Control_c, 0, 64, 0
1, 102064, Control_c, 0, 64, 28
1, 102079, Control_c, 0, 64, 34
1, 102093, Control_c, 0, 64, 37
1, 102108, Control_c, 0, 64, 38
1, 102123, Control_c, 0, 64, 37
1, 102138, Control_c, 0, 64, 36
1, 102152, Control_c, 0, 64, 32
1, 102167, Control_c, 0, 64, 29
1, 102182, Control_c, 0, 64, 27
1, 102212, Control_c, 0, 64, 26
1, 102214, Note_on_c, 0, 48, 84
1, 102220, Note_on_c, 0, 36, 78
1, 102286, Control_c, 0, 64, 23
1, 102287, Note_off_c, 0, 48, 62
1, 102301, Control_c, 0, 64, 19
1, 102307, Note_off_c, 0, 36, 62
1, 102316, Control_c, 0, 64, 11
1, 102331, Control_c, 0, 64, 0
1, 102399, Note_on_c, 0, 45, 91
1, 102402, Note_on_c, 0, 33, 83
1, 102496, Note_off_c, 0, 45, 64
1, 102512, Note_off_c, 0, 33, 60
1, 102583, Note_on_c, 0, 34, 91
1, 102583, Note_on_c, 0, 46, 90
1, 102678, Note_off_c, 0, 46, 61
1, 102686, Note_off_c, 0, 34, 62
1, 102754, Note_on_c, 0, 47, 95
1, 102757, Note_on_c, 0, 35, 90
1, 102849, Note_off_c, 0, 35, 65
1, 102856, Note_off_c, 0, 47, 65
1, 102925, Note_on_c, 0, 48, 98
1, 102926, Note_on_c, 0, 36, 94
1, 103018, Note_off_c, 0, 48, 64
1, 103021, Note_off_c, 0, 36, 62
1, 103110, Note_on_c, 0, 37, 96
1, 103111, Note_on_c, 0, 49, 99
1, 103214, Note_off_c, 0, 49, 63
1, 103220, Note_off_c, 0, 37, 64
1, 103297, Note_on_c, 0, 50, 105
1, 103300, Note_on_c, 0, 38, 94
1, 103397, Note_off_c, 0, 38, 64
1, 103403, Note_off_c, 0, 50, 64
1, 103568, Note_on_c, 0, 39, 104
1, 103568, Note_on_c, 0, 51, 105
1, 103636, Control_c, 0, 64, 28
1, 103651, Control_c, 0, 64, 64
1, 103665, Control_c, 0, 64, 77
1, 103680, Control_c, 0, 64, 117
1, 103695, Control_c, 0, 64, 127
1, 103807, Note_on_c, 0, 72, 65
1, 103824, Note_off_c, 0, 39, 65
1, 103848, Note_on_c, 0, 78, 80
1, 103869, Note_on_c, 0, 79, 81
1, 103883, Note_off_c, 0, 72, 62
1, 103885, Note_off_c, 0, 51, 61
1, 103909, Note_on_c, 0, 83, 69
1, 103958, Note_on_c, 0, 84, 95
1, 103961, Note_on_c, 0, 72, 90
1, 103964, Note_on_c, 0, 54, 95
1, 103988, Note_off_c, 0, 79, 61
1, 103992, Note_off_c, 0, 78, 62
1, 104046, Note_off_c, 0, 54, 60
1, 104122, Note_on_c, 0, 55, 101
1, 104123, Note_off_c, 0, 83, 37
1, 104182, Note_off_c, 0, 55, 65
1, 104203, Note_off_c, 0, 72, 56
1, 104309, Note_on_c, 0, 60, 109
1, 104328, Note_on_c, 0, 72, 75
1, 104631, Note_off_c, 0, 72, 32
1, 104682, Note_on_c, 0, 58, 101
1, 104711, Note_off_c, 0, 60, 65
1, 104719, Control_c, 0, 64, 83
1, 104734, Control_c, 0, 64, 64
1, 104748, Control_c, 0, 64, 27
1, 104763, Control_c, 0, 64, 56
1, 104778, Control_c, 0, 64, 67
1, 104793, Control_c, 0, 64, 75
1, 104808, Control_c, 0, 64, 86
1, 104823, Control_c, 0, 64, 110
1, 104838, Control_c, 0, 64, 127
1, 104878, Note_on_c, 0, 72, 63
1, 104883, Note_off_c, 0, 84, 55
1, 104927, Note_on_c, 0, 78, 81
1, 104962, Note_off_c, 0, 72, 62
1, 104969, Note_on_c, 0, 79, 86
1, 105011, Note_on_c, 0, 83, 74
1, 105053, Note_on_c, 0, 72, 92
1, 105054, Note_on_c, 0, 84, 95
1, 105061, Note_on_c, 0, 51, 81
1, 105077, Note_off_c, 0, 78, 62
1, 105080, Note_off_c, 0, 79, 60
1, 105166, Note_off_c, 0, 83, 58
1, 105235, Note_off_c, 0, 51, 53
1, 105260, Note_off_c, 0, 72, 33
1, 105424, Note_off_c, 0, 84, 59
1, 105429, Note_on_c, 0, 60, 97
1, 105442, Note_on_c, 0, 72, 84
1, 105445, Note_on_c, 0, 51, 73
1, 105486, Note_off_c, 0, 58, 57
1, 105553, Note_off_c, 0, 51, 64
1, 105764, Control_c, 0, 64, 94
1, 105777, Note_on_c, 0, 62, 92
1, 105779, Control_c, 0, 64, 72
1, 105781, Note_on_c, 0, 79, 91
1, 105783, Note_on_c, 0, 53, 85
1, 105786, Note_on_c, 0, 67, 86
1, 105788, Note_off_c, 0, 72, 66
1, 105793, Control_c, 0, 64, 39
1, 105795, Note_off_c, 0, 60, 57
1, 105808, Control_c, 0, 64, 0
1, 105838, Control_c, 0, 64, 34
1, 105853, Control_c, 0, 64, 59
1, 105867, Control_c, 0, 64, 66
1, 105882, Control_c, 0, 64, 71
1, 105897, Control_c, 0, 64, 78
1, 105899, Note_off_c, 0, 67, 61
1, 105912, Control_c, 0, 64, 87
1, 105927, Control_c, 0, 64, 99
1, 105941, Control_c, 0, 64, 119
1, 105945, Note_on_c, 0, 63, 97
1, 105956, Control_c, 0, 64, 127
1, 105977, Note_off_c, 0, 53, 63
1, 105983, Note_off_c, 0, 62, 61
1, 106138, Poly_aftertouch_c, 0, 80, 127
1, 106142, Note_on_c, 0, 82, 91
1, 106145, Note_on_c, 0, 62, 91
1, 106153, Note_on_c, 0, 53, 80
1, 106153, Note_on_c, 0, 70, 77
1, 106182, Poly_aftertouch_c, 0, 80, 0
1, 106196, Note_off_c, 0, 63, 61
1, 106215, Control_c, 0, 64, 79
1, 106223, Note_off_c, 0, 79, 37
1, 106230, Control_c, 0, 64, 0
1, 106319, Control_c, 0, 64, 36
1, 106334, Control_c, 0, 64, 67
1, 106349, Control_c, 0, 64, 80
1, 106364, Control_c, 0, 64, 103
1, 106379, Control_c, 0, 64, 127
1, 106388, Note_off_c, 0, 70, 62
1, 106406, Note_off_c, 0, 53, 62
1, 106513, Note_on_c, 0, 80, 89
1, 106513, Note_on_c, 0, 53, 78
1, 106526, Note_on_c, 0, 68, 82
1, 106579, Note_off_c, 0, 53, 63
1, 106582, Note_off_c, 0, 68, 61
1, 106632, Note_off_c, 0, 82, 62
1, 106636, Note_off_c, 0, 80, 64
1, 106794, Control_c, 0, 64, 122
1, 106801, Note_off_c, 0, 62, 57
1, 106809, Control_c, 0, 64, 74
1, 106821, Note_on_c, 0, 64, 92
1, 106823, Control_c, 0, 64, 0
1, 106825, Note_on_c, 0, 55, 84
1, 106883, Control_c, 0, 64, 65
1, 106898, Control_c, 0, 64, 78
1, 106913, Control_c, 0, 64, 105
1, 106928, Control_c, 0, 64, 127
1, 106970, Note_off_c, 0, 55, 64
1, 106984, Note_off_c, 0, 64, 66
1, 106987, Note_on_c, 0, 65, 88
1, 107038, Note_on_c, 0, 80, 81
1, 107059, Note_off_c, 0, 65, 65
1, 107068, Note_on_c, 0, 86, 78
1, 107083, Note_on_c, 0, 89, 83
1, 107102, Note_on_c, 0, 92, 30
1, 107104, Note_on_c, 0, 91, 81
1, 107114, Note_off_c, 0, 80, 63
1, 107126, Note_on_c, 0, 90, 58
1, 107144, Note_off_c, 0, 92, 0
1, 107146, Note_off_c, 0, 90, 39
1, 107157, Note_on_c, 0, 92, 73
1, 107165, Note_on_c, 0, 72, 105
1, 107173, Note_on_c, 0, 80, 80
1, 107178, Note_off_c, 0, 89, 59
1, 107188, Note_off_c, 0, 86, 64
1, 107197, Note_off_c, 0, 72, 73
1, 107271, Note_off_c, 0, 91, 40
1, 107351, Note_off_c, 0, 80, 59
1, 107507, Note_on_c, 0, 61, 89
1, 107520, Note_on_c, 0, 55, 84
1, 107527, Note_on_c, 0, 80, 86
1, 107579, Note_off_c, 0, 92, 66
1, 107619, Note_off_c, 0, 80, 62
1, 107895, Note_on_c, 0, 59, 88
1, 107902, Note_on_c, 0, 91, 109
1, 107904, Note_on_c, 0, 79, 107
1, 107908, Note_off_c, 0, 55, 63
1, 107951, Control_c, 0, 64, 107
1, 107965, Control_c, 0, 64, 76
1, 107980, Control_c, 0, 64, 0
1, 108056, Control_c, 0, 64, 19
1, 108070, Control_c, 0, 64, 66
1, 108085, Control_c, 0, 64, 80
1, 108100, Control_c, 0, 64, 112
1, 108115, Control_c, 0, 64, 127
1, 108151, Note_off_c, 0, 59, 56
1, 108177, Note_off_c, 0, 79, 56
1, 108267, Note_on_c, 0, 62, 97
1, 108272, Note_on_c, 0, 59, 82
1, 108288, Note_on_c, 0, 77, 86
1, 108299, Note_off_c, 0, 61, 64
1, 108311, Note_off_c, 0, 91, 59
1, 108400, Poly_aftertouch_c, 0, 89, 0
1, 108464, Note_off_c, 0, 59, 57
1, 108508, Note_off_c, 0, 62, 63
1, 108626, Note_on_c, 0, 67, 95
1, 108633, Note_on_c, 0, 59, 87
1, 108636, Note_on_c, 0, 79, 85
1, 108656, Control_c, 0, 64, 90
1, 108670, Control_c, 0, 64, 68
1, 108685, Control_c, 0, 64, 0
1, 108729, Control_c, 0, 64, 31
1, 108744, Control_c, 0, 64, 60
1, 108759, Control_c, 0, 64, 68
1, 108765, Note_off_c, 0, 77, 60
1, 108774, Control_c, 0, 64, 78
1, 108788, Control_c, 0, 64, 92
1, 108790, Note_on_c, 0, 68, 94
1, 108803, Control_c, 0, 64, 127
1, 108817, Note_off_c, 0, 67, 64
1, 108828, Note_off_c, 0, 59, 58
1, 109000, Note_on_c, 0, 67, 91
1, 109005, Note_on_c, 0, 60, 80
1, 109008, Note_on_c, 0, 75, 85
1, 109026, Note_off_c, 0, 68, 62
1, 109026, Control_c, 0, 64, 83
1, 109041, Control_c, 0, 64, 56
1, 109056, Control_c, 0, 64, 0
1, 109104, Note_off_c, 0, 79, 57
1, 109116, Control_c, 0, 64, 55
1, 109131, Control_c, 0, 64, 70
1, 109145, Control_c, 0, 64, 86
1, 109160, Control_c, 0, 64, 127
1, 109234, Note_off_c, 0, 60, 56
1, 109325, Note_off_c, 0, 67, 54
1, 109360, Control_c, 0, 64, 113
1, 109364, Note_on_c, 0, 66, 87
1, 109365, Note_on_c, 0, 60, 71
1, 109366, Note_on_c, 0, 87, 94
1, 109370, Note_on_c, 0, 78, 89
1, 109375, Control_c, 0, 64, 74
1, 109390, Control_c, 0, 64, 0
1, 109410, Note_off_c, 0, 75, 57
1, 109449, Control_c, 0, 64, 61
1, 109461, Note_off_c, 0, 78, 61
1, 109464, Control_c, 0, 64, 71
1, 109479, Control_c, 0, 64, 86
1, 109493, Control_c, 0, 64, 127
1, 109516, Note_off_c, 0, 60, 61
1, 109527, Note_off_c, 0, 66, 62
1, 109535, Note_on_c, 0, 67, 89
1, 109715, Note_on_c, 0, 86, 96
1, 109718, Note_on_c, 0, 71, 100
1, 109730, Note_on_c, 0, 77, 82
1, 109744, Note_off_c, 0, 67, 62
1, 109755, Note_off_c, 0, 87, 64
1, 109765, Note_off_c, 0, 71, 69
1, 109822, Note_off_c, 0, 77, 61
1, 110092, Note_on_c, 0, 84, 84
1, 110093, Note_on_c, 0, 69, 76
1, 110094, Control_c, 0, 64, 85
1, 110096, Note_on_c, 0, 62, 71
1, 110101, Note_on_c, 0, 75, 79
1, 110108, Control_c, 0, 64, 45
1, 110123, Control_c, 0, 64, 0
1, 110130, Note_off_c, 0, 86, 61
1, 110168, Control_c, 0, 64, 59
1, 110183, Control_c, 0, 64, 70
1, 110198, Control_c, 0, 64, 84
1, 110213, Control_c, 0, 64, 127
1, 110295, Note_off_c, 0, 69, 57
1, 110298, Note_off_c, 0, 75, 54
1, 110411, Note_off_c, 0, 62, 55
1, 110463, Note_on_c, 0, 67, 74
1, 110463, Note_on_c, 0, 82, 79
1, 110463, Note_on_c, 0, 60, 66
1, 110465, Control_c, 0, 64, 118
1, 110466, Note_off_c, 0, 84, 62
1, 110480, Control_c, 0, 64, 82
1, 110480, Control_c, 0, 67, 8
1, 110481, Note_on_c, 0, 76, 68
1, 110495, Control_c, 0, 64, 47
1, 110495, Control_c, 0, 67, 8
1, 110510, Control_c, 0, 64, 0
1, 110510, Control_c, 0, 67, 9
1, 110525, Control_c, 0, 67, 12
1, 110539, Control_c, 0, 67, 14
1, 110554, Control_c, 0, 67, 16
1, 110569, Control_c, 0, 64, 57
1, 110569, Control_c, 0, 67, 19
1, 110583, Control_c, 0, 64, 71
1, 110583, Control_c, 0, 67, 22
1, 110598, Control_c, 0, 64, 85
1, 110598, Control_c, 0, 67, 24
1, 110613, Control_c, 0, 64, 114
1, 110613, Control_c, 0, 67, 25
1, 110628, Control_c, 0, 64, 127
1, 110628, Control_c, 0, 67, 25
1, 110639, Note_off_c, 0, 60, 40
1, 110695, Control_c, 0, 67, 26
1, 110769, Control_c, 0, 67, 26
1, 110784, Control_c, 0, 67, 27
1, 110798, Control_c, 0, 67, 28
1, 110813, Control_c, 0, 67, 32
1, 110823, Note_off_c, 0, 67, 54
1, 110824, Note_on_c, 0, 81, 80
1, 110828, Control_c, 0, 64, 85
1, 110828, Control_c, 0, 67, 36
1, 110835, Note_off_c, 0, 76, 60
1, 110836, Note_on_c, 0, 75, 70
1, 110837, Note_on_c, 0, 66, 63
1, 110839, Note_on_c, 0, 59, 59
1, 110843, Control_c, 0, 64, 61
1, 110843, Control_c, 0, 67, 39
1, 110847, Note_off_c, 0, 82, 57
1, 110858, Control_c, 0, 64, 0
1, 110858, Control_c, 0, 67, 42
1, 110872, Control_c, 0, 67, 44
1, 110887, Control_c, 0, 67, 46
1, 110902, Control_c, 0, 64, 57
1, 110902, Control_c, 0, 67, 47
1, 110916, Control_c, 0, 64, 69
1, 110916, Control_c, 0, 67, 48
1, 110931, Control_c, 0, 64, 79
1, 110931, Control_c, 0, 67, 49
1, 110946, Control_c, 0, 64, 96
1, 110946, Control_c, 0, 67, 50
1, 110961, Control_c, 0, 64, 127
1, 110976, Control_c, 0, 67, 50
1, 111000, Note_off_c, 0, 66, 54
1, 111008, Note_off_c, 0, 59, 53
1, 111035, Control_c, 0, 67, 51
1, 111050, Control_c, 0, 67, 51
1, 111080, Control_c, 0, 67, 52
1, 111095, Control_c, 0, 67, 53
1, 111109, Control_c, 0, 67, 53
1, 111139, Control_c, 0, 67, 54
1, 111154, Control_c, 0, 64, 113
1, 111154, Control_c, 0, 67, 55
1, 111169, Control_c, 0, 64, 79
1, 111169, Control_c, 0, 67, 56
1, 111183, Control_c, 0, 64, 32
1, 111183, Control_c, 0, 67, 57
1, 111197, Note_on_c, 0, 82, 78
1, 111198, Control_c, 0, 64, 0
1, 111198, Control_c, 0, 67, 58
1, 111209, Note_on_c, 0, 58, 52
1, 111211, Note_on_c, 0, 74, 64
1, 111211, Note_off_c, 0, 81, 60
1, 111214, Control_c, 0, 67, 59
1, 111218, Note_on_c, 0, 65, 50
1, 111229, Control_c, 0, 67, 60
1, 111244, Control_c, 0, 64, 62
1, 111249, Note_off_c, 0, 75, 61
1, 111259, Control_c, 0, 64, 73
1, 111272, Note_off_c, 0, 65, 61
1, 111274, Control_c, 0, 64, 88
1, 111275, Note_off_c, 0, 82, 64
1, 111284, Note_off_c, 0, 74, 65
1, 111288, Control_c, 0, 64, 127
1, 111314, Note_off_c, 0, 58, 62
1, 111318, Control_c, 0, 67, 60
1, 111348, Control_c, 0, 67, 61
1, 111392, Control_c, 0, 67, 61
1, 111406, Control_c, 0, 67, 62
1, 111421, Control_c, 0, 67, 62
1, 111524, Poly_aftertouch_c, 0, 63, 127
1, 111533, Note_on_c, 0, 63, 23
1, 111547, Control_c, 0, 64, 97
1, 111555, Note_on_c, 0, 50, 66
1, 111556, Note_on_c, 0, 57, 62
1, 111562, Control_c, 0, 64, 73
1, 111576, Control_c, 0, 64, 0
1, 111591, Control_c, 0, 67, 63
1, 111634, Note_off_c, 0, 50, 61
1, 111638, Note_off_c, 0, 57, 55
1, 111646, Note_on_c, 0, 49, 68
1, 111650, Control_c, 0, 67, 63
1, 111683, Note_off_c, 0, 49, 64
1, 111712, Note_on_c, 0, 64, 75
1, 111718, Note_on_c, 0, 50, 63
1, 111730, Note_off_c, 0, 63, 60
1, 111754, Note_off_c, 0, 50, 68
1, 111769, Control_c, 0, 67, 63
1, 111776, Note_on_c, 0, 38, 66
1, 111784, Control_c, 0, 67, 62
1, 111798, Control_c, 0, 67, 60
1, 111813, Control_c, 0, 67, 58
1, 111828, Control_c, 0, 67, 54
1, 111843, Control_c, 0, 67, 51
1, 111849, Note_off_c, 0, 64, 57
1, 111858, Control_c, 0, 67, 46
1, 111864, Note_off_c, 0, 38, 59
1, 111873, Control_c, 0, 67, 39
1, 111877, Note_on_c, 0, 43, 74
1, 111877, Note_on_c, 0, 69, 83
1, 111881, Note_on_c, 0, 60, 75
1, 111887, Control_c, 0, 67, 29
1, 111894, Note_on_c, 0, 57, 56
1, 111902, Control_c, 0, 64, 48
1, 111902, Control_c, 0, 67, 17
1, 111903, Note_off_c, 0, 43, 66
1, 111917, Control_c, 0, 64, 65
1, 111917, Control_c, 0, 67, 0
1, 111919, Note_off_c, 0, 57, 59
1, 111931, Control_c, 0, 64, 71
1, 111946, Control_c, 0, 64, 76
1, 111960, Note_off_c, 0, 60, 54
1, 111961, Control_c, 0, 64, 81
1, 111976, Control_c, 0, 64, 84
1, 111991, Control_c, 0, 64, 84
1, 112055, Note_on_c, 0, 62, 67
1, 112057, Note_on_c, 0, 59, 74
1, 112082, Note_off_c, 0, 59, 66
1, 112085, Note_off_c, 0, 62, 65
1, 112096, Control_c, 0, 64, 84
1, 112110, Control_c, 0, 64, 83
1, 112125, Control_c, 0, 64, 82
1, 112140, Control_c, 0, 64, 80
1, 112154, Control_c, 0, 64, 77
1, 112169, Control_c, 0, 64, 71
1, 112192, Control_c, 0, 64, 61
1, 112207, Control_c, 0, 64, 0
1, 112232, Note_on_c, 0, 54, 69
1, 112232, Note_on_c, 0, 67, 85
1, 112249, Note_on_c, 0, 60, 61
1, 112252, Note_on_c, 0, 64, 65
1, 112276, Note_off_c, 0, 69, 60
1, 112323, Note_on_c, 0, 53, 69
1, 112323, Note_off_c, 0, 54, 55
1, 112392, Note_off_c, 0, 53, 65
1, 112410, Note_on_c, 0, 54, 70
1, 112483, Note_on_c, 0, 42, 69
1, 112569, Note_on_c, 0, 47, 81
1, 112572, Note_off_c, 0, 54, 62
1, 112574, Note_off_c, 0, 42, 63
1, 112587, Note_on_c, 0, 69, 86
1, 112595, Note_off_c, 0, 47, 69
1, 112596, Note_off_c, 0, 64, 65
1, 112613, Note_off_c, 0, 67, 62
1, 112621, Control_c, 0, 64, 50
1, 112635, Control_c, 0, 64, 67
1, 112638, Note_off_c, 0, 60, 59
1, 112650, Control_c, 0, 64, 76
1, 112665, Control_c, 0, 64, 86
1, 112679, Control_c, 0, 64, 101
1, 112694, Control_c, 0, 64, 115
1, 112709, Control_c, 0, 64, 127
1, 112735, Note_off_c, 0, 69, 62
1, 112903, Note_on_c, 0, 70, 84
1, 112907, Note_on_c, 0, 57, 69
1, 112919, Note_on_c, 0, 64, 72
1, 112922, Note_on_c, 0, 67, 62
1, 112963, Note_off_c, 0, 67, 61
1, 112970, Control_c, 0, 64, 119
1, 112984, Control_c, 0, 64, 101
1, 112999, Control_c, 0, 64, 85
1, 113001, Note_on_c, 0, 56, 79
1, 113003, Note_off_c, 0, 57, 60
1, 113014, Control_c, 0, 64, 71
1, 113029, Control_c, 0, 64, 47
1, 113044, Control_c, 0, 64, 0
1, 113048, Note_off_c, 0, 64, 56
1, 113052, Note_off_c, 0, 56, 64
1, 113077, Note_on_c, 0, 71, 84
1, 113077, Note_on_c, 0, 57, 69
1, 113114, Note_off_c, 0, 70, 62
1, 113115, Note_off_c, 0, 57, 65
1, 113122, Note_on_c, 0, 45, 80
1, 113216, Note_off_c, 0, 45, 56
1, 113218, Note_off_c, 0, 71, 62
1, 113235, Note_on_c, 0, 50, 87
1, 113239, Note_on_c, 0, 74, 93
1, 113250, Note_on_c, 0, 64, 83
1, 113280, Control_c, 0, 64, 62
1, 113295, Control_c, 0, 64, 74
1, 113301, Note_on_c, 0, 69, 6
1, 113310, Control_c, 0, 64, 84
1, 113314, Note_off_c, 0, 50, 61
1, 113325, Control_c, 0, 64, 101
1, 113334, Note_off_c, 0, 64, 59
1, 113340, Control_c, 0, 64, 127
1, 113357, Poly_aftertouch_c, 0, 66, 0
1, 113358, Note_off_c, 0, 69, 53
1, 113404, Note_on_c, 0, 66, 76
1, 113406, Note_on_c, 0, 69, 76
1, 113455, Note_off_c, 0, 69, 63
1, 113457, Note_off_c, 0, 66, 61
1, 113547, Control_c, 0, 64, 96
1, 113551, Note_on_c, 0, 60, 81
1, 113557, Note_on_c, 0, 73, 93
1, 113558, Note_on_c, 0, 67, 83
1, 113562, Control_c, 0, 64, 65
1, 113566, Note_off_c, 0, 74, 62
1, 113576, Control_c, 0, 64, 0
1, 113613, Note_off_c, 0, 67, 62
1, 113634, Note_on_c, 0, 59, 85
1, 113646, Note_off_c, 0, 60, 63
1, 113652, Control_c, 0, 64, 65
1, 113667, Control_c, 0, 64, 78
1, 113688, Control_c, 0, 64, 103
1, 113690, Note_off_c, 0, 73, 65
1, 113703, Control_c, 0, 64, 127
1, 113722, Note_on_c, 0, 60, 88
1, 113722, Note_on_c, 0, 74, 97
1, 113726, Note_on_c, 0, 73, 73
1, 113727, Note_on_c, 0, 66, 90
1, 113745, Note_on_c, 0, 69, 48
1, 113747, Note_off_c, 0, 59, 59
1, 113748, Note_on_c, 0, 48, 66
1, 113769, Note_off_c, 0, 60, 65
1, 113771, Note_off_c, 0, 66, 61
1, 113772, Note_off_c, 0, 69, 58
1, 113776, Note_off_c, 0, 48, 65
1, 113852, Control_c, 0, 64, 105
1, 113863, Poly_aftertouch_c, 0, 50, 0
1, 113867, Control_c, 0, 64, 68
1, 113868, Note_off_c, 0, 73, 55
1, 113876, Note_off_c, 0, 74, 57
1, 113882, Control_c, 0, 64, 0
1, 113911, Note_on_c, 0, 65, 105
1, 113912, Note_on_c, 0, 74, 80
1, 113914, Note_on_c, 0, 77, 98
1, 113915, Note_on_c, 0, 61, 101
1, 113916, Note_on_c, 0, 58, 94
1, 113918, Note_on_c, 0, 53, 91
1, 113918, Note_on_c, 0, 68, 98
1, 113940, Note_off_c, 0, 74, 66
1, 113941, Control_c, 0, 64, 70
1, 113956, Control_c, 0, 64, 91
1, 113965, Note_off_c, 0, 77, 66
1, 113971, Control_c, 0, 64, 127
1, 113977, Note_off_c, 0, 61, 64
1, 113983, Note_off_c, 0, 53, 66
1, 113986, Note_off_c, 0, 65, 66
1, 113998, Note_off_c, 0, 58, 62
1, 113998, Note_off_c, 0, 68, 67
1, 114234, Note_on_c, 0, 52, 111
1, 114311, Control_c, 0, 64, 105
1, 114326, Control_c, 0, 64, 67
1, 114333, Note_on_c, 0, 40, 112
1, 114338, Note_on_c, 0, 28, 99
1, 114341, Control_c, 0, 64, 0
1, 114375, Note_off_c, 0, 52, 68
1, 114377, Note_on_c, 0, 30, 42
1, 114378, Note_off_c, 0, 30, 127
1, 114386, Control_c, 0, 64, 72
1, 114401, Control_c, 0, 64, 103
1, 114416, Control_c, 0, 64, 127
1, 114522, Note_off_c, 0, 28, 61
1, 114555, Note_off_c, 0, 40, 66
1, 114624, Note_on_c, 0, 77, 86
1, 114642, Note_on_c, 0, 83, 81
1, 114666, Note_on_c, 0, 86, 89
1, 114685, Note_off_c, 0, 77, 63
1, 114705, Note_on_c, 0, 88, 82
1, 114734, Note_on_c, 0, 59, 101
1, 114735, Note_on_c, 0, 61, 100
1, 114737, Note_on_c, 0, 89, 104
1, 114741, Note_on_c, 0, 77, 88
1, 114761, Note_on_c, 0, 79, 52
1, 114762, Note_off_c, 0, 83, 62
1, 114769, Note_off_c, 0, 86, 66
1, 114785, Note_off_c, 0, 79, 61
1, 114819, Note_off_c, 0, 88, 59
1, 114833, Note_off_c, 0, 59, 55
1, 114836, Note_off_c, 0, 61, 63
1, 114895, Note_on_c, 0, 62, 103
1, 114951, Note_off_c, 0, 62, 67
1, 114980, Note_off_c, 0, 77, 54
1, 115077, Note_on_c, 0, 69, 114
1, 115088, Note_on_c, 0, 77, 81
1, 115114, Note_off_c, 0, 69, 71
1, 115369, Note_off_c, 0, 77, 48
1, 115434, Note_on_c, 0, 64, 107
1, 115639, Note_on_c, 0, 77, 76
1, 115646, Note_off_c, 0, 89, 58
1, 115684, Note_on_c, 0, 83, 69
1, 115713, Note_on_c, 0, 86, 89
1, 115719, Note_off_c, 0, 77, 61
1, 115761, Note_on_c, 0, 88, 73
1, 115787, Note_on_c, 0, 89, 105
1, 115790, Note_on_c, 0, 77, 98
1, 115794, Control_c, 0, 64, 87
1, 115803, Note_on_c, 0, 62, 66
1, 115806, Note_on_c, 0, 59, 73
1, 115809, Control_c, 0, 64, 62
1, 115817, Note_off_c, 0, 83, 63
1, 115817, Note_off_c, 0, 86, 66
1, 115824, Control_c, 0, 64, 53
1, 115839, Control_c, 0, 64, 70
1, 115853, Control_c, 0, 64, 92
1, 115856, Note_off_c, 0, 88, 60
1, 115868, Control_c, 0, 64, 127
1, 115915, Note_off_c, 0, 62, 59
1, 115937, Note_off_c, 0, 59, 60
1, 115942, Note_off_c, 0, 77, 58
1, 116043, Note_off_c, 0, 64, 51
1, 116078, Note_on_c, 0, 59, 68
1, 116084, Note_on_c, 0, 62, 91
1, 116116, Note_off_c, 0, 89, 59
1, 116124, Note_off_c, 0, 59, 59
1, 116127, Note_on_c, 0, 77, 85
1, 116136, Note_on_c, 0, 65, 102
1, 116160, Note_off_c, 0, 62, 67
1, 116183, Note_off_c, 0, 77, 63
1, 116184, Note_off_c, 0, 65, 70
1, 116469, Control_c, 0, 64, 83
1, 116483, Control_c, 0, 64, 0
1, 116496, Note_on_c, 0, 51, 101
1, 116497, Note_on_c, 0, 84, 100
1, 116498, Note_on_c, 0, 39, 96
1, 116504, Note_on_c, 0, 72, 95
1, 116520, Note_off_c, 0, 51, 65
1, 116522, Note_off_c, 0, 39, 66
1, 116527, Control_c, 0, 64, 65
1, 116538, Note_on_c, 0, 74, 37
1, 116539, Note_off_c, 0, 74, 127
1, 116542, Control_c, 0, 64, 85
1, 116557, Control_c, 0, 64, 127
1, 116613, Note_off_c, 0, 72, 60
1, 116678, Note_off_c, 0, 84, 59
1, 116850, Note_on_c, 0, 67, 96
1, 116854, Note_on_c, 0, 87, 97
1, 116856, Note_on_c, 0, 82, 96
1, 116863, Note_on_c, 0, 56, 82
1, 116863, Note_on_c, 0, 75, 94
1, 116863, Note_on_c, 0, 61, 80
1, 116887, Note_on_c, 0, 85, 61
1, 116919, Note_off_c, 0, 56, 62
1, 116921, Note_off_c, 0, 67, 62
1, 116963, Note_off_c, 0, 61, 61
1, 116966, Note_off_c, 0, 85, 52
1, 116968, Note_on_c, 0, 79, 80
1, 117002, Note_off_c, 0, 82, 61
1, 117006, Note_off_c, 0, 87, 62
1, 117014, Note_on_c, 0, 68, 96
1, 117043, Note_off_c, 0, 79, 60
1, 117085, Note_off_c, 0, 68, 60
1, 117101, Poly_aftertouch_c, 0, 56, 127
1, 117118, Note_off_c, 0, 75, 31
1, 117164, Poly_aftertouch_c, 0, 56, 0
1, 117197, Note_on_c, 0, 67, 100
1, 117198, Note_on_c, 0, 80, 67
1, 117200, Note_on_c, 0, 61, 95
1, 117200, Note_on_c, 0, 56, 76
1, 117203, Note_on_c, 0, 85, 97
1, 117203, Control_c, 0, 64, 105
1, 117209, Note_on_c, 0, 73, 94
1, 117217, Note_on_c, 0, 77, 80
1, 117218, Control_c, 0, 64, 74
1, 117233, Control_c, 0, 64, 55
1, 117248, Control_c, 0, 64, 63
1, 117262, Control_c, 0, 64, 71
1, 117277, Control_c, 0, 64, 83
1, 117292, Control_c, 0, 64, 117
1, 117307, Control_c, 0, 64, 127
1, 117331, Note_off_c, 0, 80, 57
1, 117407, Note_off_c, 0, 77, 58
1, 117453, Note_off_c, 0, 56, 59
1, 117455, Note_off_c, 0, 61, 55
1, 117543, Note_on_c, 0, 61, 89
1, 117548, Note_on_c, 0, 56, 83
1, 117549, Note_on_c, 0, 79, 89
1, 117617, Note_on_c, 0, 82, 7
1, 117627, Note_on_c, 0, 75, 74
1, 117667, Note_off_c, 0, 79, 59
1, 117668, Note_off_c, 0, 82, 53
1, 117710, Note_off_c, 0, 61, 58
1, 117710, Note_off_c, 0, 67, 48
1, 117766, Note_off_c, 0, 75, 59
1, 117803, Note_off_c, 0, 56, 55
1, 117879, Note_on_c, 0, 65, 94
1, 117883, Note_on_c, 0, 60, 90
1, 117889, Note_on_c, 0, 56, 89
1, 117890, Note_on_c, 0, 80, 87
1, 117893, Control_c, 0, 64, 93
1, 117907, Control_c, 0, 64, 68
1, 117922, Control_c, 0, 64, 26
1, 117937, Control_c, 0, 64, 58
1, 117952, Control_c, 0, 64, 68
1, 117967, Control_c, 0, 64, 78
1, 117981, Control_c, 0, 64, 99
1, 117983, Note_on_c, 0, 77, 66
1, 117996, Control_c, 0, 64, 127
1, 118030, Note_off_c, 0, 80, 60
1, 118047, Note_off_c, 0, 56, 54
1, 118061, Note_off_c, 0, 77, 63
1, 118177, Note_off_c, 0, 60, 60
1, 118229, Note_on_c, 0, 63, 102
1, 118234, Note_on_c, 0, 55, 90
1, 118237, Note_on_c, 0, 58, 93
1, 118249, Note_off_c, 0, 65, 60
1, 118250, Note_on_c, 0, 82, 84
1, 118267, Note_off_c, 0, 63, 67
1, 118273, Note_off_c, 0, 55, 67
1, 118275, Note_off_c, 0, 58, 67
1, 118345, Note_on_c, 0, 79, 71
1, 118413, Note_off_c, 0, 73, 58
1, 118449, Note_off_c, 0, 79, 60
1, 118485, Note_off_c, 0, 82, 61
1, 118500, Note_on_c, 0, 50, 97
1, 118534, Note_off_c, 0, 85, 58
1, 118538, Control_c, 0, 64, 75
1, 118553, Control_c, 0, 64, 0
1, 118577, Note_on_c, 0, 38, 94
1, 118597, Control_c, 0, 64, 38
1, 118612, Control_c, 0, 64, 71
1, 118627, Control_c, 0, 64, 100
1, 118642, Control_c, 0, 64, 127
1, 118687, Note_off_c, 0, 38, 61
1, 118743, Note_off_c, 0, 50, 62
1, 118761, Note_on_c, 0, 75, 77
1, 118786, Note_on_c, 0, 81, 80
1, 118807, Note_on_c, 0, 84, 78
1, 118830, Note_off_c, 0, 75, 62
1, 118835, Note_on_c, 0, 86, 70
1, 118890, Note_on_c, 0, 57, 100
1, 118894, Note_on_c, 0, 59, 98
1, 118899, Note_on_c, 0, 87, 98
1, 118906, Note_on_c, 0, 75, 90
1, 118939, Note_off_c, 0, 84, 57
1, 118948, Note_off_c, 0, 81, 56
1, 119016, Note_off_c, 0, 59, 61
1, 119030, Note_off_c, 0, 57, 58
1, 119048, Note_off_c, 0, 75, 57
1, 119073, Note_off_c, 0, 86, 34
1, 119081, Note_on_c, 0, 60, 102
1, 119153, Note_off_c, 0, 60, 57
1, 119289, Note_on_c, 0, 67, 109
1, 119310, Note_on_c, 0, 75, 78
1, 119322, Note_off_c, 0, 67, 70
1, 119613, Note_off_c, 0, 75, 47
1, 119623, Note_on_c, 0, 62, 114
1, 119854, Note_on_c, 0, 75, 64
1, 119890, Note_on_c, 0, 81, 75
1, 119900, Note_off_c, 0, 87, 63
1, 119926, Note_on_c, 0, 84, 72
1, 119934, Note_off_c, 0, 75, 62
1, 119972, Note_on_c, 0, 86, 79
1, 119988, Note_on_c, 0, 57, 79
1, 119991, Control_c, 0, 64, 95
1, 120001, Note_on_c, 0, 75, 79
1, 120007, Control_c, 0, 64, 64
1, 120016, Note_on_c, 0, 87, 87
1, 120022, Control_c, 0, 64, 0
1, 120037, Control_c, 0, 64, 55
1, 120041, Note_off_c, 0, 84, 61
1, 120051, Control_c, 0, 64, 71
1, 120066, Control_c, 0, 64, 91
1, 120081, Control_c, 0, 64, 127
1, 120106, Note_off_c, 0, 86, 60
1, 120120, Note_off_c, 0, 81, 28
1, 120137, Note_off_c, 0, 75, 61
1, 120143, Note_off_c, 0, 57, 57
1, 120237, Note_off_c, 0, 62, 54
1, 120246, Note_on_c, 0, 57, 74
1, 120247, Note_on_c, 0, 60, 87
1, 120294, Note_on_c, 0, 63, 98
1, 120303, Note_off_c, 0, 57, 63
1, 120322, Note_off_c, 0, 60, 67
1, 120341, Note_on_c, 0, 75, 95
1, 120348, Note_off_c, 0, 63, 67
1, 120363, Note_off_c, 0, 87, 64
1, 120392, Note_off_c, 0, 75, 65
1, 120643, Note_on_c, 0, 43, 93
1, 120648, Note_on_c, 0, 82, 105
1, 120650, Control_c, 0, 64, 93
1, 120652, Note_on_c, 0, 70, 91
1, 120665, Control_c, 0, 64, 67
1, 120680, Control_c, 0, 64, 0
1, 120724, Control_c, 0, 64, 63
1, 120739, Control_c, 0, 64, 76
1, 120744, Poly_aftertouch_c, 0, 37, 127
1, 120754, Control_c, 0, 64, 95
1, 120755, Note_off_c, 0, 70, 62
1, 120768, Control_c, 0, 64, 127
1, 120782, Poly_aftertouch_c, 0, 37, 0
1, 120801, Note_on_c, 0, 37, 58
1, 120813, Note_on_c, 0, 49, 95
1, 120831, Note_off_c, 0, 43, 61
1, 120843, Note_off_c, 0, 37, 65
1, 120869, Note_off_c, 0, 49, 65
1, 121010, Note_on_c, 0, 55, 96
1, 121012, Note_on_c, 0, 65, 98
1, 121013, Note_on_c, 0, 59, 89
1, 121013, Note_on_c, 0, 80, 80
1, 121016, Note_on_c, 0, 85, 86
1, 121024, Note_on_c, 0, 73, 85
1, 121100, Note_off_c, 0, 55, 57
1, 121117, Note_off_c, 0, 65, 62
1, 121136, Note_on_c, 0, 77, 75
1, 121137, Note_off_c, 0, 82, 56
1, 121147, Note_off_c, 0, 85, 62
1, 121158, Note_off_c, 0, 73, 63
1, 121171, Note_off_c, 0, 80, 59
1, 121172, Note_off_c, 0, 59, 56
1, 121210, Note_on_c, 0, 66, 104
1, 121242, Note_on_c, 0, 61, 48
1, 121250, Note_on_c, 0, 55, 33
1, 121269, Note_off_c, 0, 61, 58
1, 121271, Note_off_c, 0, 55, 62
1, 121320, Note_off_c, 0, 66, 58
1, 121331, Poly_aftertouch_c, 0, 59, 0
1, 121370, Note_on_c, 0, 55, 81
1, 121376, Note_on_c, 0, 59, 91
1, 121377, Note_on_c, 0, 65, 106
1, 121389, Note_on_c, 0, 79, 85
1, 121390, Note_on_c, 0, 83, 90
1, 121397, Note_on_c, 0, 71, 83
1, 121406, Note_off_c, 0, 77, 62
1, 121412, Note_off_c, 0, 65, 70
1, 121417, Note_off_c, 0, 55, 65
1, 121423, Note_off_c, 0, 59, 66
1, 121477, Note_off_c, 0, 79, 62
1, 121481, Note_on_c, 0, 75, 77
1, 121691, Note_off_c, 0, 75, 59
1, 121716, Note_on_c, 0, 43, 104
1, 121722, Note_on_c, 0, 31, 99
1, 121726, Control_c, 0, 64, 75
1, 121740, Control_c, 0, 64, 0
1, 121759, Note_on_c, 0, 77, 71
1, 121770, Control_c, 0, 64, 57
1, 121785, Control_c, 0, 64, 80
1, 121800, Control_c, 0, 64, 127
1, 121833, Note_off_c, 0, 31, 65
1, 121838, Poly_aftertouch_c, 0, 29, 0
1, 121851, Poly_aftertouch_c, 0, 32, 0
1, 121855, Note_off_c, 0, 43, 68
1, 121871, Note_on_c, 0, 73, 70
1, 121881, Note_off_c, 0, 77, 61
1, 121941, Note_off_c, 0, 73, 62
1, 122094, Note_on_c, 0, 63, 101
1, 122094, Note_on_c, 0, 57, 81
1, 122099, Note_on_c, 0, 53, 92
1, 122102, Note_on_c, 0, 79, 93
1, 122214, Note_on_c, 0, 75, 71
1, 122270, Note_off_c, 0, 57, 59
1, 122294, Note_off_c, 0, 63, 60
1, 122300, Note_off_c, 0, 53, 54
1, 122306, Note_off_c, 0, 75, 59
1, 122388, Note_off_c, 0, 79, 56
1, 122438, Note_on_c, 0, 52, 99
1, 122438, Note_on_c, 0, 62, 100
1, 122439, Note_on_c, 0, 56, 100
1, 122445, Control_c, 0, 64, 94
1, 122454, Note_on_c, 0, 80, 93
1, 122460, Control_c, 0, 64, 66
1, 122475, Control_c, 0, 64, 0
1, 122504, Control_c, 0, 64, 57
1, 122519, Control_c, 0, 64, 72
1, 122534, Control_c, 0, 64, 92
1, 122549, Control_c, 0, 64, 127
1, 122573, Note_on_c, 0, 76, 69
1, 122596, Note_off_c, 0, 83, 59
1, 122598, Note_off_c, 0, 71, 57
1, 122695, Note_off_c, 0, 62, 58
1, 122703, Note_off_c, 0, 76, 61
1, 122716, Note_off_c, 0, 80, 63
1, 122718, Note_off_c, 0, 52, 54
1, 122738, Note_off_c, 0, 56, 58
1, 122764, Control_c, 0, 64, 85
1, 122778, Control_c, 0, 64, 65
1, 122793, Control_c, 0, 64, 62
1, 122804, Note_on_c, 0, 56, 91
1, 122806, Note_on_c, 0, 60, 92
1, 122807, Note_on_c, 0, 52, 88
1, 122808, Control_c, 0, 64, 70
1, 122813, Note_on_c, 0, 83, 99
1, 122816, Note_on_c, 0, 71, 101
1, 122823, Control_c, 0, 64, 83
1, 122838, Control_c, 0, 64, 127
1, 122891, Note_off_c, 0, 60, 61
1, 122896, Note_off_c, 0, 71, 61
1, 122917, Note_off_c, 0, 56, 67
1, 122926, Note_off_c, 0, 52, 64
1, 122944, Note_off_c, 0, 83, 61
1, 122988, Note_on_c, 0, 84, 105
1, 122989, Note_on_c, 0, 72, 98
1, 122997, Note_on_c, 0, 83, 81
1, 123016, Note_off_c, 0, 83, 72
1, 123034, Note_off_c, 0, 72, 68
1, 123068, Note_off_c, 0, 84, 63
1, 123129, Poly_aftertouch_c, 0, 47, 0
1, 123163, Control_c, 0, 64, 108
1, 123168, Note_on_c, 0, 47, 88
1, 123170, Note_on_c, 0, 35, 91
1, 123176, Note_on_c, 0, 89, 108
1, 123177, Note_on_c, 0, 77, 101
1, 123178, Control_c, 0, 64, 71
1, 123194, Control_c, 0, 64, 0
1, 123239, Control_c, 0, 64, 69
1, 123254, Control_c, 0, 64, 84
1, 123268, Control_c, 0, 64, 127
1, 123279, Note_off_c, 0, 47, 65
1, 123333, Note_off_c, 0, 77, 0
1, 123347, Note_on_c, 0, 48, 100
1, 123349, Note_on_c, 0, 36, 89
1, 123350, Note_on_c, 0, 84, 90
1, 123353, Note_on_c, 0, 80, 87
1, 123361, Note_off_c, 0, 89, 62
1, 123363, Poly_aftertouch_c, 0, 77, 0
1, 123378, Note_off_c, 0, 35, 62
1, 123392, Note_off_c, 0, 84, 66
1, 123393, Note_off_c, 0, 36, 62
1, 123406, Note_off_c, 0, 48, 65
1, 123406, Note_off_c, 0, 80, 65
1, 123522, Note_on_c, 0, 53, 103
1, 123525, Note_on_c, 0, 41, 100
1, 123527, Control_c, 0, 64, 99
1, 123540, Note_on_c, 0, 67, 96
1, 123540, Note_on_c, 0, 79, 94
1, 123542, Control_c, 0, 64, 70
1, 123558, Control_c, 0, 64, 0
1, 123566, Note_on_c, 0, 77, 50
1, 123567, Note_off_c, 0, 77, 127
1, 123580, Note_off_c, 0, 67, 65
1, 123588, Note_off_c, 0, 79, 64
1, 123602, Control_c, 0, 64, 63
1, 123617, Control_c, 0, 64, 78
1, 123632, Control_c, 0, 64, 100
1, 123646, Control_c, 0, 64, 127
1, 123701, Note_on_c, 0, 80, 101
1, 123703, Note_on_c, 0, 68, 97
1, 123734, Note_off_c, 0, 68, 63
1, 123750, Note_off_c, 0, 80, 64
1, 123853, Control_c, 0, 64, 112
1, 123868, Control_c, 0, 64, 72
1, 123883, Note_on_c, 0, 84, 100
1, 123883, Control_c, 0, 64, 0
1, 123884, Note_on_c, 0, 72, 101
1, 123928, Control_c, 0, 64, 67
1, 123943, Control_c, 0, 64, 82
1, 123958, Control_c, 0, 64, 127
1, 124056, Note_on_c, 0, 80, 87
1, 124057, Note_off_c, 0, 84, 66
1, 124060, Note_on_c, 0, 77, 85
1, 124061, Note_off_c, 0, 72, 65
1, 124080, Note_off_c, 0, 53, 58
1, 124091, Note_off_c, 0, 77, 61
1, 124095, Note_off_c, 0, 80, 64
1, 124196, Note_off_c, 0, 41, 58
1, 124218, Note_on_c, 0, 40, 91
1, 124220, Note_on_c, 0, 52, 94
1, 124232, Note_on_c, 0, 73, 106
1, 124234, Note_on_c, 0, 61, 99
1, 124305, Control_c, 0, 64, 86
1, 124320, Note_off_c, 0, 61, 60
1, 124320, Control_c, 0, 64, 62
1, 124334, Control_c, 0, 64, 0
1, 124364, Control_c, 0, 64, 28
1, 124372, Note_off_c, 0, 73, 0
1, 124379, Control_c, 0, 64, 65
1, 124389, Note_on_c, 0, 74, 96
1, 124392, Note_on_c, 0, 62, 90
1, 124394, Control_c, 0, 64, 73
1, 124408, Poly_aftertouch_c, 0, 73, 127
1, 124408, Control_c, 0, 64, 87
1, 124423, Control_c, 0, 64, 127
1, 124426, Poly_aftertouch_c, 0, 73, 0
1, 124432, Note_off_c, 0, 62, 60
1, 124437, Note_off_c, 0, 52, 59
1, 124451, Note_off_c, 0, 74, 68
1, 124558, Note_on_c, 0, 53, 95
1, 124565, Note_on_c, 0, 41, 85
1, 124569, Note_on_c, 0, 80, 96
1, 124569, Note_on_c, 0, 68, 96
1, 124572, Control_c, 0, 64, 115
1, 124587, Control_c, 0, 64, 76
1, 124598, Note_off_c, 0, 40, 63
1, 124601, Control_c, 0, 64, 0
1, 124660, Control_c, 0, 64, 61
1, 124675, Control_c, 0, 64, 71
1, 124690, Control_c, 0, 64, 86
1, 124705, Control_c, 0, 64, 127
1, 124731, Note_on_c, 0, 77, 78
1, 124742, Note_on_c, 0, 72, 84
1, 124746, Note_off_c, 0, 68, 62
1, 124748, Note_off_c, 0, 80, 63
1, 124767, Note_off_c, 0, 41, 62
1, 124771, Note_off_c, 0, 77, 63
1, 124785, Note_off_c, 0, 72, 66
1, 124789, Note_off_c, 0, 53, 63
1, 124883, Control_c, 0, 64, 109
1, 124898, Control_c, 0, 64, 74
1, 124913, Note_on_c, 0, 55, 87
1, 124918, Note_on_c, 0, 43, 82
1, 124919, Note_on_c, 0, 70, 92
1, 124920, Control_c, 0, 64, 0
1, 124927, Note_on_c, 0, 58, 84
1, 124950, Control_c, 0, 64, 46
1, 124965, Control_c, 0, 64, 67
1, 124980, Control_c, 0, 64, 78
1, 124982, Note_off_c, 0, 58, 60
1, 124986, Note_off_c, 0, 55, 64
1, 124995, Control_c, 0, 64, 98
1, 125010, Control_c, 0, 64, 127
1, 125037, Note_off_c, 0, 70, 55
1, 125078, Note_off_c, 0, 43, 49
1, 125079, Note_on_c, 0, 71, 92
1, 125084, Note_on_c, 0, 59, 79
1, 125085, Note_on_c, 0, 44, 81
1, 125086, Note_on_c, 0, 56, 82
1, 125122, Note_off_c, 0, 59, 60
1, 125152, Note_off_c, 0, 71, 66
1, 125180, Note_off_c, 0, 56, 63
1, 125246, Control_c, 0, 64, 103
1, 125246, Control_c, 0, 67, 9
1, 125261, Control_c, 0, 64, 75
1, 125261, Control_c, 0, 67, 12
1, 125275, Note_on_c, 0, 55, 75
1, 125275, Note_on_c, 0, 75, 82
1, 125276, Control_c, 0, 64, 0
1, 125276, Control_c, 0, 67, 15
1, 125282, Note_on_c, 0, 43, 75
1, 125286, Note_on_c, 0, 63, 68
1, 125290, Control_c, 0, 67, 18
1, 125291, Note_off_c, 0, 44, 52
1, 125305, Control_c, 0, 67, 20
1, 125320, Control_c, 0, 67, 21
1, 125335, Control_c, 0, 64, 45
1, 125335, Control_c, 0, 67, 23
1, 125350, Note_off_c, 0, 43, 64
1, 125350, Control_c, 0, 64, 67
1, 125350, Control_c, 0, 67, 24
1, 125365, Control_c, 0, 64, 82
1, 125365, Control_c, 0, 67, 26
1, 125372, Note_off_c, 0, 55, 64
1, 125379, Control_c, 0, 64, 122
1, 125379, Control_c, 0, 67, 26
1, 125394, Control_c, 0, 64, 127
1, 125409, Control_c, 0, 67, 26
1, 125424, Control_c, 0, 67, 25
1, 125427, Note_off_c, 0, 63, 58
1, 125439, Control_c, 0, 67, 24
1, 125451, Note_off_c, 0, 75, 63
1, 125454, Note_on_c, 0, 65, 71
1, 125454, Control_c, 0, 67, 24
1, 125465, Note_on_c, 0, 71, 62
1, 125469, Control_c, 0, 67, 23
1, 125603, Control_c, 0, 67, 23
1, 125609, Note_off_c, 0, 65, 38
1, 125625, Note_on_c, 0, 86, 90
1, 125633, Control_c, 0, 64, 84
1, 125633, Control_c, 0, 67, 22
1, 125638, Note_off_c, 0, 71, 63
1, 125641, Note_on_c, 0, 62, 69
1, 125641, Note_on_c, 0, 74, 75
1, 125641, Note_on_c, 0, 83, 84
1, 125648, Control_c, 0, 64, 64
1, 125648, Control_c, 0, 67, 21
1, 125669, Control_c, 0, 64, 0
1, 125669, Control_c, 0, 67, 21
1, 125684, Control_c, 0, 67, 20
1, 125699, Control_c, 0, 67, 20
1, 125713, Control_c, 0, 64, 59
1, 125728, Control_c, 0, 64, 69
1, 125728, Control_c, 0, 67, 19
1, 125743, Control_c, 0, 64, 82
1, 125743, Control_c, 0, 67, 19
1, 125758, Control_c, 0, 64, 108
1, 125758, Control_c, 0, 67, 17
1, 125773, Note_off_c, 0, 86, 62
1, 125773, Control_c, 0, 64, 127
1, 125773, Control_c, 0, 67, 16
1, 125788, Control_c, 0, 67, 15
1, 125803, Control_c, 0, 67, 14
1, 125818, Control_c, 0, 67, 13
1, 125822, Note_off_c, 0, 83, 65
1, 125847, Control_c, 0, 67, 12
1, 125847, Note_off_c, 0, 62, 59
1, 125851, Note_off_c, 0, 74, 56
1, 125854, Note_on_c, 0, 71, 56
1, 125855, Note_on_c, 0, 65, 49
1, 125877, Control_c, 0, 67, 13
1, 125892, Control_c, 0, 67, 13
1, 125907, Control_c, 0, 67, 14
1, 125921, Control_c, 0, 67, 15
1, 125936, Control_c, 0, 67, 15
1, 125951, Control_c, 0, 67, 16
1, 125981, Control_c, 0, 64, 95
1, 125985, Note_on_c, 0, 84, 79
1, 125995, Control_c, 0, 64, 62
1, 125995, Control_c, 0, 67, 16
1, 126000, Note_on_c, 0, 80, 81
1, 126000, Note_off_c, 0, 71, 50
1, 126002, Note_off_c, 0, 65, 62
1, 126004, Note_on_c, 0, 72, 66
1, 126008, Note_on_c, 0, 60, 60
1, 126010, Control_c, 0, 64, 0
1, 126025, Control_c, 0, 67, 16
1, 126039, Control_c, 0, 64, 35
1, 126054, Control_c, 0, 64, 67
1, 126054, Control_c, 0, 67, 15
1, 126069, Control_c, 0, 64, 79
1, 126084, Control_c, 0, 64, 104
1, 126099, Control_c, 0, 64, 127
1, 126099, Control_c, 0, 67, 15
1, 126103, Note_off_c, 0, 84, 43
1, 126128, Control_c, 0, 67, 14
1, 126143, Control_c, 0, 67, 13
1, 126165, Note_off_c, 0, 80, 63
1, 126166, Note_off_c, 0, 72, 61
1, 126173, Control_c, 0, 67, 13
1, 126192, Note_on_c, 0, 68, 58
1, 126198, Note_off_c, 0, 60, 57
1, 126247, Control_c, 0, 67, 13
1, 126327, Note_on_c, 0, 86, 80
1, 126336, Control_c, 0, 64, 95
1, 126345, Note_off_c, 0, 68, 61
1, 126351, Control_c, 0, 64, 67
1, 126351, Control_c, 0, 67, 13
1, 126357, Note_on_c, 0, 83, 81
1, 126363, Note_on_c, 0, 74, 74
1, 126366, Control_c, 0, 64, 0
1, 126366, Control_c, 0, 67, 12
1, 126366, Note_on_c, 0, 62, 65
1, 126381, Control_c, 0, 67, 11
1, 126396, Control_c, 0, 67, 9
1, 126418, Control_c, 0, 64, 37
1, 126418, Control_c, 0, 67, 0
1, 126433, Control_c, 0, 64, 67
1, 126448, Control_c, 0, 64, 81
1, 126462, Control_c, 0, 64, 114
1, 126477, Control_c, 0, 64, 127
1, 126487, Note_off_c, 0, 86, 58
1, 126544, Note_off_c, 0, 62, 59
1, 126551, Note_off_c, 0, 83, 63
1, 126563, Note_on_c, 0, 67, 57
1, 126569, Note_off_c, 0, 74, 59
1, 126570, Note_on_c, 0, 71, 56
1, 126622, Note_off_c, 0, 67, 48
1, 126641, Note_off_c, 0, 71, 61
1, 126701, Note_on_c, 0, 87, 81
1, 126730, Control_c, 0, 64, 95
1, 126730, Note_on_c, 0, 84, 81
1, 126733, Note_on_c, 0, 63, 65
1, 126733, Note_on_c, 0, 75, 69
1, 126744, Control_c, 0, 64, 65
1, 126759, Control_c, 0, 64, 0
1, 126804, Control_c, 0, 64, 69
1, 126818, Control_c, 0, 64, 88
1, 126833, Control_c, 0, 64, 127
1, 126843, Note_off_c, 0, 63, 52
1, 126905, Note_off_c, 0, 84, 64
1, 126908, Note_on_c, 0, 68, 58
1, 126912, Note_off_c, 0, 87, 64
1, 126914, Note_off_c, 0, 75, 52
1, 126928, Note_on_c, 0, 72, 48
1, 127029, Note_on_c, 0, 89, 99
1, 127040, Control_c, 0, 64, 108
1, 127042, Note_on_c, 0, 86, 91
1, 127054, Note_off_c, 0, 68, 36
1, 127055, Control_c, 0, 64, 77
1, 127057, Note_on_c, 0, 65, 71
1, 127059, Note_off_c, 0, 72, 62
1, 127063, Note_on_c, 0, 77, 69
1, 127070, Control_c, 0, 64, 59
1, 127085, Control_c, 0, 64, 63
1, 127091, Note_off_c, 0, 89, 65
1, 127099, Control_c, 0, 64, 72
1, 127113, Note_off_c, 0, 86, 68
1, 127114, Control_c, 0, 64, 85
1, 127129, Control_c, 0, 64, 127
1, 127223, Note_off_c, 0, 65, 64
1, 127234, Note_on_c, 0, 72, 66
1, 127241, Note_on_c, 0, 68, 44
1, 127248, Note_off_c, 0, 77, 61
1, 127250, Note_off_c, 0, 72, 66
1, 127266, Note_off_c, 0, 68, 58
1, 127404, Control_c, 0, 64, 83
1, 127419, Control_c, 0, 64, 0
1, 127424, Note_on_c, 0, 47, 95
1, 127427, Note_on_c, 0, 35, 87
1, 127431, Note_on_c, 0, 84, 88
1, 127435, Note_on_c, 0, 72, 86
1, 127463, Control_c, 0, 64, 64
1, 127478, Control_c, 0, 64, 81
1, 127480, Note_on_c, 0, 37, 15
1, 127481, Note_off_c, 0, 37, 127
1, 127493, Control_c, 0, 64, 127
1, 127522, Note_off_c, 0, 35, 62
1, 127522, Note_off_c, 0, 47, 65
1, 127530, Poly_aftertouch_c, 0, 37, 0
1, 127601, Note_on_c, 0, 80, 90
1, 127605, Note_on_c, 0, 48, 108
1, 127606, Note_on_c, 0, 77, 80
1, 127608, Note_on_c, 0, 36, 95
1, 127609, Note_off_c, 0, 84, 64
1, 127621, Note_off_c, 0, 72, 62
1, 127628, Note_on_c, 0, 38, 62
1, 127633, Note_off_c, 0, 77, 63
1, 127642, Note_off_c, 0, 80, 66
1, 127655, Note_off_c, 0, 38, 39
1, 127661, Note_off_c, 0, 36, 61
1, 127675, Note_off_c, 0, 48, 57
1, 127785, Note_on_c, 0, 53, 105
1, 127788, Note_on_c, 0, 41, 99
1, 127789, Control_c, 0, 64, 88
1, 127794, Note_on_c, 0, 62, 94
1, 127797, Note_on_c, 0, 74, 97
1, 127803, Control_c, 0, 64, 59
1, 127818, Control_c, 0, 64, 0
1, 127829, Note_on_c, 0, 66, 42
1, 127860, Note_off_c, 0, 66, 36
1, 127892, Control_c, 0, 64, 63
1, 127915, Control_c, 0, 64, 73
1, 127930, Control_c, 0, 64, 89
1, 127945, Control_c, 0, 64, 127
1, 127947, Note_off_c, 0, 53, 66
1, 127958, Note_off_c, 0, 41, 62
1, 127961, Note_on_c, 0, 65, 63
1, 127961, Note_on_c, 0, 68, 87
1, 127966, Note_off_c, 0, 62, 62
1, 127980, Note_off_c, 0, 74, 62
1, 127982, Note_off_c, 0, 65, 64
1, 127998, Note_off_c, 0, 68, 66
1, 128150, Note_on_c, 0, 39, 94
1, 128150, Note_on_c, 0, 51, 100
1, 128169, Note_on_c, 0, 68, 96
1, 128170, Note_on_c, 0, 80, 95
1, 128271, Control_c, 0, 64, 82
1, 128286, Control_c, 0, 64, 0
1, 128350, Note_on_c, 0, 72, 68
1, 128355, Note_on_c, 0, 77, 79
1, 128375, Control_c, 0, 64, 71
1, 128388, Note_off_c, 0, 68, 61
1, 128388, Note_off_c, 0, 80, 62
1, 128390, Control_c, 0, 64, 93
1, 128405, Control_c, 0, 64, 127
1, 128406, Note_off_c, 0, 77, 64
1, 128417, Note_off_c, 0, 72, 63
1, 128533, Note_on_c, 0, 72, 96
1, 128536, Note_on_c, 0, 60, 95
1, 128597, Control_c, 0, 64, 84
1, 128612, Control_c, 0, 64, 62
1, 128626, Control_c, 0, 64, 0
1, 128664, Control_c, 0, 64, 64
1, 128679, Control_c, 0, 64, 75
1, 128694, Control_c, 0, 64, 94
1, 128708, Control_c, 0, 64, 127
1, 128716, Note_on_c, 0, 68, 75
1, 128737, Note_off_c, 0, 51, 61
1, 128745, Note_off_c, 0, 39, 59
1, 128746, Note_off_c, 0, 60, 59
1, 128751, Note_on_c, 0, 65, 45
1, 128766, Note_off_c, 0, 72, 55
1, 128882, Note_off_c, 0, 65, 60
1, 128894, Note_on_c, 0, 53, 100
1, 128897, Note_on_c, 0, 41, 92
1, 128902, Control_c, 0, 64, 101
1, 128904, Note_on_c, 0, 62, 82
1, 128906, Note_on_c, 0, 74, 88
1, 128913, Note_off_c, 0, 68, 59
1, 128917, Control_c, 0, 64, 74
1, 128931, Control_c, 0, 64, 0
1, 129005, Control_c, 0, 64, 58
1, 129020, Control_c, 0, 64, 72
1, 129035, Control_c, 0, 64, 94
1, 129049, Control_c, 0, 64, 127
1, 129071, Note_on_c, 0, 68, 71
1, 129073, Note_off_c, 0, 53, 65
1, 129073, Note_off_c, 0, 41, 62
1, 129074, Note_off_c, 0, 74, 61
1, 129076, Note_off_c, 0, 62, 61
1, 129089, Note_on_c, 0, 65, 55
1, 129213, Control_c, 0, 67, 8
1, 129228, Control_c, 0, 67, 10
1, 129243, Control_c, 0, 64, 89
1, 129243, Control_c, 0, 67, 12
1, 129252, Note_on_c, 0, 55, 84
1, 129253, Note_on_c, 0, 71, 73
1, 129255, Note_off_c, 0, 65, 57
1, 129255, Note_off_c, 0, 68, 55
1, 129257, Note_on_c, 0, 43, 77
1, 129257, Control_c, 0, 64, 65
1, 129257, Control_c, 0, 67, 16
1, 129267, Note_on_c, 0, 59, 66
1, 129272, Control_c, 0, 64, 0
1, 129272, Control_c, 0, 67, 20
1, 129287, Control_c, 0, 67, 23
1, 129302, Control_c, 0, 67, 25
1, 129317, Control_c, 0, 67, 25
1, 129327, Note_off_c, 0, 55, 64
1, 129331, Control_c, 0, 64, 59
1, 129331, Control_c, 0, 67, 26
1, 129346, Control_c, 0, 64, 70
1, 129346, Control_c, 0, 67, 26
1, 129361, Control_c, 0, 64, 82
1, 129376, Control_c, 0, 64, 108
1, 129391, Control_c, 0, 64, 127
1, 129428, Control_c, 0, 67, 26
1, 129442, Note_on_c, 0, 56, 82
1, 129442, Control_c, 0, 67, 25
1, 129454, Note_on_c, 0, 44, 72
1, 129454, Note_off_c, 0, 59, 56
1, 129454, Note_on_c, 0, 68, 65
1, 129457, Control_c, 0, 67, 25
1, 129458, Note_off_c, 0, 43, 63
1, 129463, Note_on_c, 0, 65, 61
1, 129463, Note_off_c, 0, 71, 60
1, 129472, Control_c, 0, 67, 24
1, 129487, Control_c, 0, 67, 24
1, 129517, Control_c, 0, 67, 23
1, 129530, Note_off_c, 0, 56, 63
1, 129562, Control_c, 0, 67, 23
1, 129577, Control_c, 0, 67, 22
1, 129592, Control_c, 0, 64, 84
1, 129607, Control_c, 0, 64, 0
1, 129607, Control_c, 0, 67, 21
1, 129621, Note_off_c, 0, 65, 59
1, 129625, Note_on_c, 0, 55, 74
1, 129631, Note_on_c, 0, 43, 73
1, 129634, Note_off_c, 0, 44, 47
1, 129634, Note_off_c, 0, 68, 58
1, 129637, Note_on_c, 0, 71, 71
1, 129645, Note_on_c, 0, 59, 66
1, 129666, Control_c, 0, 67, 21
1, 129720, Note_off_c, 0, 43, 64
1, 129726, Control_c, 0, 64, 52
1, 129726, Control_c, 0, 67, 20
1, 129741, Control_c, 0, 64, 68
1, 129755, Control_c, 0, 64, 79
1, 129760, Note_off_c, 0, 55, 64
1, 129770, Control_c, 0, 64, 101
1, 129785, Control_c, 0, 64, 127
1, 129800, Control_c, 0, 67, 20
1, 129833, Note_on_c, 0, 68, 56
1, 129841, Note_off_c, 0, 71, 51
1, 129843, Note_on_c, 0, 65, 51
1, 129855, Note_off_c, 0, 59, 38
1, 129962, Control_c, 0, 67, 19
1, 129970, Note_on_c, 0, 78, 95
1, 129979, Note_on_c, 0, 71, 78
1, 129982, Note_off_c, 0, 65, 56
1, 129983, Note_off_c, 0, 68, 59
1, 129984, Note_on_c, 0, 79, 98
1, 129992, Control_c, 0, 67, 19
1, 129993, Note_on_c, 0, 59, 65
1, 130005, Note_off_c, 0, 78, 68
1, 130023, Note_off_c, 0, 79, 70
1, 130051, Control_c, 0, 67, 18
1, 130066, Control_c, 0, 67, 18
1, 130080, Control_c, 0, 67, 17
1, 130095, Control_c, 0, 67, 16
1, 130110, Control_c, 0, 67, 16
1, 130162, Control_c, 0, 67, 15
1, 130179, Note_off_c, 0, 59, 56
1, 130194, Note_on_c, 0, 68, 61
1, 130206, Note_off_c, 0, 71, 61
1, 130222, Note_on_c, 0, 65, 34
1, 130236, Control_c, 0, 67, 16
1, 130251, Control_c, 0, 67, 16
1, 130266, Control_c, 0, 67, 17
1, 130280, Control_c, 0, 67, 19
1, 130286, Poly_aftertouch_c, 0, 64, 127
1, 130295, Control_c, 0, 67, 20
1, 130310, Control_c, 0, 67, 22
1, 130318, Poly_aftertouch_c, 0, 64, 0
1, 130325, Control_c, 0, 67, 23
1, 130340, Control_c, 0, 67, 24
1, 130355, Control_c, 0, 64, 96
1, 130355, Control_c, 0, 67, 25
1, 130362, Note_on_c, 0, 53, 72
1, 130367, Note_on_c, 0, 41, 71
1, 130369, Control_c, 0, 64, 69
1, 130369, Control_c, 0, 67, 25
1, 130371, Note_off_c, 0, 65, 50
1, 130372, Note_on_c, 0, 72, 72
1, 130378, Note_off_c, 0, 68, 59
1, 130379, Note_on_c, 0, 60, 67
1, 130385, Control_c, 0, 64, 0
1, 130385, Control_c, 0, 67, 26
1, 130474, Control_c, 0, 64, 39
1, 130489, Control_c, 0, 64, 65
1, 130504, Control_c, 0, 64, 75
1, 130519, Control_c, 0, 64, 88
1, 130533, Control_c, 0, 64, 109
1, 130548, Control_c, 0, 64, 127
1, 130563, Control_c, 0, 67, 26
1, 130569, Note_on_c, 0, 68, 72
1, 130573, Note_on_c, 0, 65, 64
1, 130589, Note_off_c, 0, 53, 63
1, 130592, Note_off_c, 0, 60, 59
1, 130593, Control_c, 0, 67, 26
1, 130597, Note_off_c, 0, 72, 62
1, 130599, Note_off_c, 0, 41, 60
1, 130652, Control_c, 0, 67, 26
1, 130726, Control_c, 0, 67, 27
1, 130745, Note_on_c, 0, 62, 81
1, 130746, Note_on_c, 0, 74, 90
1, 130748, Note_on_c, 0, 52, 89
1, 130751, Note_on_c, 0, 40, 81
1, 130756, Control_c, 0, 67, 27
1, 130770, Control_c, 0, 67, 28
1, 130779, Note_off_c, 0, 68, 61
1, 130785, Control_c, 0, 64, 97
1, 130787, Note_off_c, 0, 65, 62
1, 130800, Control_c, 0, 64, 69
1, 130800, Control_c, 0, 67, 28
1, 130815, Control_c, 0, 64, 0
1, 130859, Control_c, 0, 67, 28
1, 130874, Control_c, 0, 67, 27
1, 130889, Control_c, 0, 64, 65
1, 130889, Control_c, 0, 67, 27
1, 130911, Control_c, 0, 64, 79
1, 130911, Control_c, 0, 67, 26
1, 130926, Control_c, 0, 64, 106
1, 130926, Control_c, 0, 67, 26
1, 130941, Note_on_c, 0, 68, 69
1, 130941, Note_off_c, 0, 40, 63
1, 130941, Control_c, 0, 64, 127
1, 130941, Control_c, 0, 67, 25
1, 130943, Note_off_c, 0, 52, 62
1, 130953, Note_on_c, 0, 65, 58
1, 130966, Note_off_c, 0, 62, 60
1, 130971, Note_off_c, 0, 74, 62
1, 130971, Control_c, 0, 67, 25
1, 130985, Control_c, 0, 67, 24
1, 131029, Control_c, 0, 67, 24
1, 131058, Control_c, 0, 67, 23
1, 131105, Note_on_c, 0, 55, 70
1, 131110, Note_on_c, 0, 43, 67
1, 131118, Control_c, 0, 67, 24
1, 131124, Note_on_c, 0, 71, 73
1, 131133, Note_on_c, 0, 59, 67
1, 131133, Control_c, 0, 64, 91
1, 131133, Note_off_c, 0, 65, 61
1, 131136, Note_off_c, 0, 68, 55
1, 131147, Control_c, 0, 64, 68
1, 131162, Control_c, 0, 64, 0
1, 131207, Control_c, 0, 67, 23
1, 131222, Control_c, 0, 64, 51
1, 131237, Control_c, 0, 64, 67
1, 131252, Control_c, 0, 64, 79
1, 131252, Control_c, 0, 67, 23
1, 131267, Control_c, 0, 64, 99
1, 131267, Control_c, 0, 67, 22
1, 131282, Control_c, 0, 64, 127
1, 131282, Control_c, 0, 67, 22
1, 131297, Control_c, 0, 67, 21
1, 131311, Control_c, 0, 67, 21
1, 131314, Note_off_c, 0, 71, 58
1, 131315, Note_off_c, 0, 59, 56
1, 131317, Note_on_c, 0, 65, 56
1, 131319, Note_on_c, 0, 68, 50
1, 131337, Note_off_c, 0, 55, 62
1, 131341, Note_off_c, 0, 43, 62
1, 131386, Control_c, 0, 67, 21
1, 131400, Control_c, 0, 67, 22
1, 131415, Control_c, 0, 67, 23
1, 131445, Control_c, 0, 67, 23
1, 131459, Control_c, 0, 64, 122
1, 131459, Control_c, 0, 67, 24
1, 131474, Control_c, 0, 64, 82
1, 131480, Note_off_c, 0, 65, 59
1, 131485, Note_on_c, 0, 55, 64
1, 131487, Note_on_c, 0, 43, 64
1, 131487, Note_off_c, 0, 68, 58
1, 131489, Control_c, 0, 64, 54
1, 131494, Note_on_c, 0, 71, 66
1, 131496, Note_on_c, 0, 59, 59
1, 131504, Control_c, 0, 64, 0
1, 131533, Control_c, 0, 67, 23
1, 131575, Note_off_c, 0, 43, 63
1, 131578, Control_c, 0, 64, 36
1, 131578, Control_c, 0, 67, 23
1, 131593, Control_c, 0, 64, 63
1, 131607, Control_c, 0, 64, 72
1, 131618, Note_off_c, 0, 55, 64
1, 131622, Control_c, 0, 64, 82
1, 131637, Control_c, 0, 64, 97
1, 131659, Control_c, 0, 64, 127
1, 131674, Control_c, 0, 67, 23
1, 131689, Control_c, 0, 67, 24
1, 131690, Note_off_c, 0, 71, 55
1, 131704, Control_c, 0, 67, 24
1, 131706, Note_on_c, 0, 68, 46
1, 131709, Note_on_c, 0, 65, 48
1, 131719, Control_c, 0, 67, 25
1, 131721, Note_off_c, 0, 59, 37
1, 131733, Control_c, 0, 67, 25
1, 131763, Control_c, 0, 67, 26
1, 131778, Control_c, 0, 67, 26
1, 131807, Control_c, 0, 67, 26
1, 131822, Control_c, 0, 67, 25
1, 131837, Control_c, 0, 67, 25
1, 131839, Note_off_c, 0, 65, 60
1, 131842, Note_on_c, 0, 78, 89
1, 131845, Note_off_c, 0, 68, 61
1, 131850, Note_on_c, 0, 71, 73
1, 131851, Control_c, 0, 67, 24
1, 131859, Note_on_c, 0, 59, 59
1, 131863, Note_on_c, 0, 79, 92
1, 131866, Control_c, 0, 67, 24
1, 131881, Control_c, 0, 67, 23
1, 131883, Note_off_c, 0, 78, 61
1, 131895, Note_off_c, 0, 79, 68
1, 131896, Control_c, 0, 67, 23
1, 131911, Control_c, 0, 67, 22
1, 131926, Control_c, 0, 67, 21
1, 131940, Control_c, 0, 67, 21
1, 131955, Control_c, 0, 67, 20
1, 131970, Control_c, 0, 67, 20
1, 131986, Control_c, 0, 67, 19
1, 131989, Note_off_c, 0, 59, 51
1, 132016, Control_c, 0, 67, 19
1, 132039, Note_on_c, 0, 68, 57
1, 132044, Note_off_c, 0, 71, 61
1, 132048, Note_on_c, 0, 65, 54
1, 132089, Control_c, 0, 67, 20
1, 132104, Control_c, 0, 67, 20
1, 132119, Control_c, 0, 67, 21
1, 132134, Control_c, 0, 67, 22
1, 132149, Control_c, 0, 67, 23
1, 132164, Control_c, 0, 67, 24
1, 132179, Control_c, 0, 67, 25
1, 132194, Control_c, 0, 64, 102
1, 132194, Control_c, 0, 67, 26
1, 132209, Control_c, 0, 64, 75
1, 132209, Control_c, 0, 67, 27
1, 132223, Control_c, 0, 64, 0
1, 132223, Control_c, 0, 67, 28
1, 132229, Note_on_c, 0, 72, 77
1, 132230, Note_on_c, 0, 53, 67
1, 132231, Note_off_c, 0, 65, 58
1, 132232, Note_on_c, 0, 41, 65
1, 132238, Control_c, 0, 67, 29
1, 132241, Note_on_c, 0, 60, 70
1, 132245, Note_off_c, 0, 68, 58
1, 132253, Control_c, 0, 67, 30
1, 132268, Control_c, 0, 67, 34
1, 132282, Control_c, 0, 67, 41
1, 132297, Control_c, 0, 64, 55
1, 132297, Control_c, 0, 67, 46
1, 132312, Control_c, 0, 64, 66
1, 132312, Control_c, 0, 67, 52
1, 132327, Control_c, 0, 64, 74
1, 132327, Control_c, 0, 67, 57
1, 132337, Note_off_c, 0, 53, 64
1, 132342, Control_c, 0, 64, 81
1, 132342, Control_c, 0, 67, 63
1, 132343, Note_off_c, 0, 41, 62
1, 132356, Control_c, 0, 64, 91
1, 132356, Control_c, 0, 67, 67
1, 132371, Control_c, 0, 64, 96
1, 132371, Control_c, 0, 67, 71
1, 132386, Control_c, 0, 64, 100
1, 132386, Control_c, 0, 67, 72
1, 132408, Control_c, 0, 64, 105
1, 132417, Note_on_c, 0, 41, 70
1, 132417, Note_on_c, 0, 53, 77
1, 132422, Note_on_c, 0, 68, 78
1, 132423, Control_c, 0, 64, 112
1, 132426, Note_on_c, 0, 65, 71
1, 132438, Control_c, 0, 64, 127
1, 132440, Note_off_c, 0, 60, 62
1, 132444, Note_off_c, 0, 72, 63
1, 132453, Control_c, 0, 67, 70
1, 132467, Note_off_c, 0, 53, 66
1, 132468, Control_c, 0, 67, 65
1, 132471, Note_off_c, 0, 41, 62
1, 132482, Control_c, 0, 67, 61
1, 132497, Control_c, 0, 67, 57
1, 132512, Control_c, 0, 67, 52
1, 132527, Control_c, 0, 67, 44
1, 132543, Control_c, 0, 67, 36
1, 132557, Control_c, 0, 64, 122
1, 132557, Control_c, 0, 67, 32
1, 132572, Control_c, 0, 64, 84
1, 132572, Control_c, 0, 67, 31
1, 132587, Control_c, 0, 64, 64
1, 132587, Control_c, 0, 67, 30
1, 132588, Note_on_c, 0, 52, 89
1, 132592, Note_on_c, 0, 40, 79
1, 132593, Note_on_c, 0, 74, 95
1, 132595, Note_on_c, 0, 62, 85
1, 132601, Control_c, 0, 64, 0
1, 132608, Note_off_c, 0, 68, 63
1, 132616, Control_c, 0, 67, 30
1, 132625, Note_off_c, 0, 65, 65
1, 132631, Control_c, 0, 67, 31
1, 132646, Control_c, 0, 64, 63
1, 132646, Control_c, 0, 67, 33
1, 132661, Control_c, 0, 64, 78
1, 132661, Control_c, 0, 67, 35
1, 132675, Control_c, 0, 64, 99
1, 132675, Control_c, 0, 67, 37
1, 132690, Control_c, 0, 64, 127
1, 132690, Control_c, 0, 67, 39
1, 132698, Note_off_c, 0, 52, 61
1, 132705, Control_c, 0, 67, 41
1, 132707, Note_off_c, 0, 40, 63
1, 132720, Control_c, 0, 67, 44
1, 132735, Control_c, 0, 67, 50
1, 132749, Control_c, 0, 67, 57
1, 132764, Control_c, 0, 67, 62
1, 132777, Note_on_c, 0, 68, 88
1, 132779, Note_on_c, 0, 65, 77
1, 132780, Control_c, 0, 67, 67
1, 132781, Note_on_c, 0, 52, 84
1, 132787, Note_on_c, 0, 40, 69
1, 132795, Control_c, 0, 67, 72
1, 132808, Note_off_c, 0, 74, 62
1, 132810, Control_c, 0, 67, 75
1, 132811, Note_off_c, 0, 52, 64
1, 132812, Note_off_c, 0, 62, 62
1, 132815, Note_off_c, 0, 40, 66
1, 132825, Control_c, 0, 67, 76
1, 132840, Control_c, 0, 67, 77
1, 132928, Control_c, 0, 67, 76
1, 132943, Control_c, 0, 67, 75
1, 132958, Control_c, 0, 67, 74
1, 132984, Note_on_c, 0, 55, 72
1, 132987, Control_c, 0, 64, 104
1, 132991, Note_on_c, 0, 43, 69
1, 132993, Note_on_c, 0, 71, 80
1, 132999, Note_off_c, 0, 65, 62
1, 133000, Note_on_c, 0, 59, 71
1, 133002, Control_c, 0, 64, 84
1, 133002, Control_c, 0, 67, 74
1, 133014, Note_off_c, 0, 68, 55
1, 133017, Control_c, 0, 64, 66
1, 133031, Control_c, 0, 64, 0
1, 133046, Control_c, 0, 67, 73
1, 133076, Control_c, 0, 67, 73
1, 133091, Control_c, 0, 67, 72
1, 133106, Control_c, 0, 67, 72
1, 133121, Control_c, 0, 67, 70
1, 133136, Control_c, 0, 67, 70
1, 133158, Control_c, 0, 64, 56
1, 133158, Control_c, 0, 67, 69
1, 133168, Note_off_c, 0, 43, 64
1, 133173, Control_c, 0, 64, 69
1, 133173, Control_c, 0, 67, 68
1, 133187, Control_c, 0, 64, 79
1, 133187, Control_c, 0, 67, 68
1, 133201, Note_off_c, 0, 55, 65
1, 133202, Control_c, 0, 64, 92
1, 133202, Control_c, 0, 67, 67
1, 133215, Note_off_c, 0, 59, 52
1, 133217, Control_c, 0, 64, 110
1, 133226, Note_on_c, 0, 68, 54
1, 133227, Note_on_c, 0, 65, 51
1, 133231, Control_c, 0, 64, 127
1, 133248, Note_off_c, 0, 71, 57
1, 133261, Control_c, 0, 67, 68
1, 133276, Control_c, 0, 67, 69
1, 133291, Control_c, 0, 67, 70
1, 133306, Control_c, 0, 67, 72
1, 133321, Control_c, 0, 67, 73
1, 133335, Control_c, 0, 67, 74
1, 133350, Control_c, 0, 67, 75
1, 133365, Control_c, 0, 67, 76
1, 133380, Control_c, 0, 67, 76
1, 133395, Control_c, 0, 67, 77
1, 133401, Note_off_c, 0, 65, 54
1, 133424, Control_c, 0, 67, 77
1, 133426, Note_off_c, 0, 68, 60
1, 133440, Note_on_c, 0, 59, 46
1, 133443, Note_on_c, 0, 78, 74
1, 133445, Note_on_c, 0, 71, 63
1, 133469, Control_c, 0, 67, 78
1, 133470, Note_on_c, 0, 79, 81
1, 133484, Control_c, 0, 67, 78
1, 133490, Note_off_c, 0, 78, 60
1, 133498, Control_c, 0, 67, 80
1, 133499, Note_off_c, 0, 59, 53
1, 133509, Note_off_c, 0, 79, 61
1, 133513, Control_c, 0, 67, 81
1, 133528, Control_c, 0, 67, 82
1, 133589, Control_c, 0, 67, 81
1, 133603, Control_c, 0, 67, 81
1, 133618, Control_c, 0, 67, 80
1, 133721, Note_on_c, 0, 68, 52
1, 133721, Control_c, 0, 67, 81
1, 133727, Note_on_c, 0, 65, 46
1, 133751, Control_c, 0, 67, 81
1, 133758, Note_off_c, 0, 65, 62
1, 133765, Note_off_c, 0, 68, 58
1, 133781, Control_c, 0, 67, 82
1, 133879, Note_off_c, 0, 71, 35
1, 133951, Control_c, 0, 64, 109
1, 133951, Control_c, 0, 67, 82
1, 133966, Control_c, 0, 64, 82
1, 133966, Control_c, 0, 67, 83
1, 133981, Control_c, 0, 64, 56
1, 133981, Control_c, 0, 67, 84
1, 133990, Note_on_c, 0, 31, 53
1, 133996, Control_c, 0, 64, 0
1, 133996, Control_c, 0, 67, 85
1, 133997, Note_on_c, 0, 43, 43
1, 134010, Control_c, 0, 67, 87
1, 134025, Control_c, 0, 67, 88
1, 134033, Note_on_c, 0, 60, 60
1, 134040, Control_c, 0, 64, 29
1, 134040, Control_c, 0, 67, 89
1, 134054, Control_c, 0, 64, 63
1, 134054, Control_c, 0, 67, 89
1, 134069, Note_off_c, 0, 60, 66
1, 134069, Control_c, 0, 64, 72
1, 134080, Note_on_c, 0, 67, 71
1, 134084, Control_c, 0, 64, 84
1, 134099, Control_c, 0, 64, 98
1, 134114, Control_c, 0, 64, 110
1, 134128, Control_c, 0, 64, 117
1, 134128, Control_c, 0, 67, 89
1, 134130, Note_off_c, 0, 67, 63
1, 134134, Note_on_c, 0, 71, 74
1, 134143, Control_c, 0, 64, 118
1, 134143, Control_c, 0, 67, 88
1, 134157, Note_off_c, 0, 71, 69
1, 134158, Control_c, 0, 67, 87
1, 134159, Note_off_c, 0, 31, 37
1, 134173, Control_c, 0, 67, 86
1, 134188, Control_c, 0, 67, 86
1, 134191, Note_off_c, 0, 43, 59
1, 134203, Control_c, 0, 67, 85
1, 134209, Note_on_c, 0, 72, 66
1, 134218, Control_c, 0, 67, 85
1, 134233, Control_c, 0, 67, 84
1, 134242, Note_off_c, 0, 72, 62
1, 134247, Control_c, 0, 67, 84
1, 134254, Note_on_c, 0, 79, 76
1, 134292, Control_c, 0, 67, 84
1, 134307, Control_c, 0, 64, 118
1, 134307, Note_on_c, 0, 80, 70
1, 134331, Note_off_c, 0, 79, 58
1, 134336, Control_c, 0, 64, 118
1, 134336, Control_c, 0, 67, 85
1, 134351, Note_on_c, 0, 83, 72
1, 134351, Control_c, 0, 64, 112
1, 134351, Control_c, 0, 67, 85
1, 134355, Note_off_c, 0, 80, 64
1, 134367, Control_c, 0, 64, 95
1, 134367, Control_c, 0, 67, 87
1, 134382, Control_c, 0, 64, 78
1, 134382, Control_c, 0, 67, 88
1, 134397, Control_c, 0, 64, 62
1, 134397, Control_c, 0, 67, 89
1, 134412, Control_c, 0, 64, 0
1, 134412, Control_c, 0, 67, 89
1, 134415, Note_on_c, 0, 54, 51
1, 134421, Note_off_c, 0, 83, 65
1, 134424, Note_on_c, 0, 84, 73
1, 134435, Note_on_c, 0, 72, 56
1, 134439, Note_on_c, 0, 50, 40
1, 134441, Control_c, 0, 67, 90
1, 134456, Control_c, 0, 67, 92
1, 134470, Control_c, 0, 67, 98
1, 134485, Control_c, 0, 67, 103
1, 134500, Control_c, 0, 67, 106
1, 134515, Control_c, 0, 67, 108
1, 134530, Control_c, 0, 67, 110
1, 134544, Control_c, 0, 67, 111
1, 134559, Control_c, 0, 64, 47
1, 134559, Control_c, 0, 67, 113
1, 134574, Control_c, 0, 64, 64
1, 134574, Control_c, 0, 67, 113
1, 134582, Note_off_c, 0, 72, 49
1, 134589, Control_c, 0, 64, 70
1, 134589, Control_c, 0, 67, 114
1, 134602, Note_off_c, 0, 54, 61
1, 134604, Control_c, 0, 64, 76
1, 134605, Note_off_c, 0, 50, 62
1, 134611, Note_on_c, 0, 55, 58
1, 134618, Control_c, 0, 64, 85
1, 134618, Control_c, 0, 67, 114
1, 134619, Note_on_c, 0, 51, 52
1, 134633, Control_c, 0, 64, 96
1, 134656, Control_c, 0, 64, 112
1, 134671, Control_c, 0, 64, 127
1, 134678, Note_off_c, 0, 55, 61
1, 134685, Control_c, 0, 67, 115
1, 134700, Control_c, 0, 67, 115
1, 134715, Control_c, 0, 67, 116
1, 134730, Control_c, 0, 67, 117
1, 134745, Control_c, 0, 67, 117
1, 134826, Note_on_c, 0, 60, 58
1, 134857, Note_on_c, 0, 72, 54
1, 134858, Note_on_c, 0, 56, 49
1, 134877, Control_c, 0, 64, 93
1, 134892, Control_c, 0, 64, 73
1, 134906, Control_c, 0, 64, 52
1, 134906, Control_c, 0, 67, 117
1, 134921, Control_c, 0, 64, 0
1, 134921, Control_c, 0, 67, 116
1, 134936, Control_c, 0, 67, 115
1, 134951, Control_c, 0, 64, 30
1, 134951, Control_c, 0, 67, 114
1, 134966, Control_c, 0, 64, 60
1, 134966, Control_c, 0, 67, 113
1, 134981, Control_c, 0, 64, 69
1, 134981, Control_c, 0, 67, 113
1, 134990, Note_off_c, 0, 51, 63
1, 134995, Control_c, 0, 64, 80
1, 134995, Control_c, 0, 67, 112
1, 135010, Control_c, 0, 64, 105
1, 135010, Control_c, 0, 67, 111
1, 135025, Control_c, 0, 64, 127
1, 135040, Control_c, 0, 67, 111
1, 135049, Note_off_c, 0, 60, 59
1, 135205, Note_on_c, 0, 58, 78
1, 135207, Note_off_c, 0, 56, 64
1, 135208, Note_off_c, 0, 72, 59
1, 135220, Note_on_c, 0, 55, 51
1, 135233, Control_c, 0, 64, 87
1, 135248, Control_c, 0, 64, 58
1, 135263, Control_c, 0, 64, 0
1, 135292, Control_c, 0, 64, 11
1, 135292, Control_c, 0, 67, 110
1, 135307, Control_c, 0, 64, 66
1, 135322, Control_c, 0, 64, 80
1, 135322, Control_c, 0, 67, 109
1, 135337, Control_c, 0, 64, 107
1, 135352, Control_c, 0, 64, 127
1, 135352, Control_c, 0, 67, 109
1, 135371, Note_off_c, 0, 58, 64
1, 135378, Note_off_c, 0, 55, 64
1, 135433, Control_c, 0, 67, 109
1, 135441, Note_on_c, 0, 72, 48
1, 135485, Note_off_c, 0, 84, 59
1, 135496, Note_on_c, 0, 79, 63
1, 135500, Note_off_c, 0, 72, 55
1, 135545, Note_on_c, 0, 83, 66
1, 135557, Note_off_c, 0, 79, 61
1, 135597, Note_on_c, 0, 31, 62
1, 135610, Note_on_c, 0, 84, 62
1, 135619, Note_on_c, 0, 43, 34
1, 135619, Note_off_c, 0, 83, 64
1, 135634, Note_on_c, 0, 72, 23
1, 135637, Note_off_c, 0, 31, 61
1, 135658, Note_off_c, 0, 43, 51
1, 135670, Note_off_c, 0, 72, 51
1, 135699, Control_c, 0, 67, 110
1, 135714, Control_c, 0, 67, 110
1, 135729, Control_c, 0, 67, 111
1, 135759, Control_c, 0, 67, 111
1, 135922, Control_c, 0, 67, 111
1, 135968, Note_on_c, 0, 60, 68
1, 135977, Note_off_c, 0, 84, 53
1, 135980, Note_on_c, 0, 72, 60
1, 135997, Control_c, 0, 67, 110
1, 135997, Note_on_c, 0, 56, 52
1, 136027, Control_c, 0, 67, 110
1, 136046, Note_off_c, 0, 56, 59
1, 136056, Control_c, 0, 67, 109
1, 136115, Control_c, 0, 67, 109
1, 136167, Control_c, 0, 67, 108
1, 136332, Note_on_c, 0, 62, 72
1, 136348, Note_off_c, 0, 60, 59
1, 136355, Note_on_c, 0, 79, 73
1, 136358, Note_off_c, 0, 72, 62
1, 136361, Control_c, 0, 64, 94
1, 136364, Note_on_c, 0, 58, 55
1, 136376, Control_c, 0, 64, 73
1, 136378, Note_on_c, 0, 67, 45
1, 136390, Control_c, 0, 64, 60
1, 136405, Control_c, 0, 64, 53
1, 136420, Control_c, 0, 64, 61
1, 136435, Control_c, 0, 64, 66
1, 136449, Note_off_c, 0, 67, 52
1, 136449, Control_c, 0, 64, 71
1, 136464, Control_c, 0, 64, 79
1, 136479, Control_c, 0, 64, 92
1, 136494, Control_c, 0, 64, 122
1, 136495, Note_off_c, 0, 58, 56
1, 136508, Note_on_c, 0, 63, 83
1, 136509, Control_c, 0, 64, 127
1, 136524, Note_on_c, 0, 60, 63
1, 136532, Note_off_c, 0, 62, 60
1, 136553, Control_c, 0, 67, 108
1, 136701, Control_c, 0, 67, 108
1, 136714, Note_on_c, 0, 62, 72
1, 136727, Note_on_c, 0, 82, 68
1, 136731, Control_c, 0, 64, 86
1, 136746, Control_c, 0, 64, 63
1, 136748, Note_off_c, 0, 63, 58
1, 136755, Note_off_c, 0, 60, 58
1, 136761, Control_c, 0, 64, 0
1, 136770, Note_on_c, 0, 70, 25
1, 136782, Note_on_c, 0, 58, 39
1, 136820, Control_c, 0, 67, 108
1, 136822, Note_off_c, 0, 79, 58
1, 136835, Control_c, 0, 67, 107
1, 136850, Control_c, 0, 64, 48
1, 136850, Control_c, 0, 67, 106
1, 136865, Control_c, 0, 64, 71
1, 136865, Control_c, 0, 67, 105
1, 136880, Control_c, 0, 64, 89
1, 136880, Control_c, 0, 67, 104
1, 136880, Note_off_c, 0, 62, 63
1, 136902, Control_c, 0, 64, 127
1, 136902, Control_c, 0, 67, 103
1, 136917, Control_c, 0, 67, 102
1, 136923, Note_off_c, 0, 58, 61
1, 136932, Control_c, 0, 67, 102
1, 136961, Control_c, 0, 67, 102
1, 136973, Note_off_c, 0, 70, 45
1, 136991, Control_c, 0, 67, 103
1, 137049, Control_c, 0, 67, 103
1, 137064, Control_c, 0, 67, 104
1, 137078, Control_c, 0, 67, 104
1, 137098, Note_on_c, 0, 80, 75
1, 137113, Note_on_c, 0, 68, 52
1, 137123, Note_on_c, 0, 30, 62
1, 137138, Control_c, 0, 67, 105
1, 137156, Note_off_c, 0, 68, 57
1, 137168, Note_off_c, 0, 82, 54
1, 137182, Control_c, 0, 67, 104
1, 137196, Control_c, 0, 67, 104
1, 137211, Control_c, 0, 67, 103
1, 137226, Control_c, 0, 67, 103
1, 137241, Control_c, 0, 67, 102
1, 137270, Control_c, 0, 67, 102
1, 137276, Note_on_c, 0, 42, 59
1, 137315, Control_c, 0, 67, 101
1, 137318, Note_off_c, 0, 42, 62
1, 137330, Control_c, 0, 67, 101
1, 137353, Note_off_c, 0, 30, 39
1, 137353, Note_off_c, 0, 80, 58
1, 137360, Control_c, 0, 67, 100
1, 137375, Control_c, 0, 67, 99
1, 137389, Control_c, 0, 67, 98
1, 137404, Control_c, 0, 67, 97
1, 137419, Control_c, 0, 64, 89
1, 137419, Control_c, 0, 67, 97
1, 137434, Control_c, 0, 64, 62
1, 137448, Note_on_c, 0, 81, 86
1, 137449, Control_c, 0, 64, 0
1, 137449, Note_on_c, 0, 31, 72
1, 137451, Note_on_c, 0, 43, 75
1, 137452, Note_on_c, 0, 77, 88
1, 137457, Note_on_c, 0, 69, 77
1, 137463, Control_c, 0, 67, 96
1, 137478, Control_c, 0, 67, 94
1, 137493, Control_c, 0, 64, 64
1, 137493, Control_c, 0, 67, 92
1, 137508, Control_c, 0, 64, 74
1, 137508, Control_c, 0, 67, 91
1, 137509, Note_off_c, 0, 31, 63
1, 137511, Note_off_c, 0, 69, 61
1, 137521, Note_off_c, 0, 81, 63
1, 137523, Control_c, 0, 64, 92
1, 137523, Control_c, 0, 67, 89
1, 137537, Control_c, 0, 64, 127
1, 137537, Control_c, 0, 67, 87
1, 137552, Control_c, 0, 67, 84
1, 137558, Note_off_c, 0, 43, 63
1, 137565, Note_off_c, 0, 77, 64
1, 137568, Control_c, 0, 67, 81
1, 137583, Control_c, 0, 67, 78
1, 137598, Control_c, 0, 67, 74
1, 137609, Note_on_c, 0, 82, 98
1, 137610, Note_on_c, 0, 70, 87
1, 137612, Control_c, 0, 67, 72
1, 137614, Note_on_c, 0, 78, 88
1, 137627, Control_c, 0, 67, 69
1, 137629, Note_off_c, 0, 70, 70
1, 137649, Control_c, 0, 67, 67
1, 137662, Note_off_c, 0, 78, 62
1, 137664, Control_c, 0, 67, 65
1, 137670, Note_off_c, 0, 82, 66
1, 137694, Control_c, 0, 67, 65
1, 137723, Control_c, 0, 67, 64
1, 137731, Note_on_c, 0, 57, 71
1, 137738, Control_c, 0, 67, 64
1, 137753, Control_c, 0, 67, 63
1, 137757, Note_on_c, 0, 58, 74
1, 137762, Note_off_c, 0, 57, 60
1, 137768, Control_c, 0, 67, 62
1, 137783, Control_c, 0, 67, 61
1, 137798, Control_c, 0, 67, 58
1, 137806, Note_on_c, 0, 62, 77
1, 137809, Note_off_c, 0, 58, 65
1, 137813, Control_c, 0, 67, 55
1, 137827, Control_c, 0, 67, 52
1, 137842, Control_c, 0, 67, 47
1, 137849, Note_on_c, 0, 87, 105
1, 137851, Note_on_c, 0, 83, 94
1, 137853, Note_on_c, 0, 75, 94
1, 137857, Control_c, 0, 67, 43
1, 137862, Note_on_c, 0, 63, 82
1, 137872, Control_c, 0, 67, 40
1, 137879, Note_off_c, 0, 62, 62
1, 137887, Control_c, 0, 67, 38
1, 137901, Control_c, 0, 67, 37
1, 137916, Control_c, 0, 67, 36
1, 137931, Control_c, 0, 67, 33
1, 137946, Control_c, 0, 67, 30
1, 137961, Control_c, 0, 67, 25
1, 137975, Control_c, 0, 67, 20
1, 137990, Control_c, 0, 67, 16
1, 138005, Control_c, 0, 67, 10
1, 138019, Control_c, 0, 67, 0
1, 138138, Note_off_c, 0, 63, 54
1, 138241, Note_on_c, 0, 51, 63
1, 138282, Note_off_c, 0, 51, 61
1, 138352, Note_off_c, 0, 87, 60
1, 138439, Note_off_c, 0, 75, 55
1, 138528, Note_off_c, 0, 83, 61
1, 138576, Control_c, 0, 64, 84
1, 138581, Note_on_c, 0, 85, 107
1, 138586, Note_on_c, 0, 82, 103
1, 138590, Note_on_c, 0, 73, 100
1, 138591, Control_c, 0, 64, 51
1, 138606, Control_c, 0, 64, 0
1, 138607, Note_on_c, 0, 31, 74
1, 138609, Note_on_c, 0, 43, 73
1, 138621, Control_c, 0, 64, 60
1, 138636, Control_c, 0, 64, 74
1, 138649, Note_off_c, 0, 31, 63
1, 138650, Control_c, 0, 64, 99
1, 138665, Control_c, 0, 64, 127
1, 138700, Note_off_c, 0, 43, 63
1, 138892, Note_on_c, 0, 57, 59
1, 138910, Note_on_c, 0, 58, 70
1, 138929, Note_off_c, 0, 57, 61
1, 138955, Note_on_c, 0, 62, 62
1, 138968, Note_off_c, 0, 58, 63
1, 138999, Note_off_c, 0, 73, 55
1, 139014, Note_on_c, 0, 63, 72
1, 139045, Note_off_c, 0, 62, 60
1, 139181, Note_off_c, 0, 82, 63
1, 139327, Note_off_c, 0, 63, 58
1, 139342, Note_on_c, 0, 87, 101
1, 139343, Note_on_c, 0, 83, 96
1, 139350, Note_on_c, 0, 75, 92
1, 139351, Note_on_c, 0, 51, 65
1, 139379, Note_off_c, 0, 51, 65
1, 139391, Note_off_c, 0, 85, 54
1, 139446, Note_off_c, 0, 75, 61
1, 139497, Note_off_c, 0, 87, 65
1, 139560, Note_on_c, 0, 43, 69
1, 139601, Note_on_c, 0, 49, 61
1, 139607, Control_c, 0, 64, 90
1, 139622, Control_c, 0, 64, 61
1, 139627, Note_on_c, 0, 53, 56
1, 139637, Control_c, 0, 64, 0
1, 139647, Note_off_c, 0, 43, 58
1, 139664, Note_on_c, 0, 89, 103
1, 139666, Control_c, 0, 64, 50
1, 139670, Note_on_c, 0, 85, 98
1, 139671, Note_on_c, 0, 77, 95
1, 139681, Control_c, 0, 64, 73
1, 139685, Note_on_c, 0, 58, 79
1, 139696, Control_c, 0, 64, 95
1, 139711, Control_c, 0, 64, 127
1, 139733, Note_off_c, 0, 83, 51
1, 139755, Note_off_c, 0, 77, 63
1, 139767, Note_off_c, 0, 89, 61
1, 139778, Note_off_c, 0, 53, 65
1, 139795, Note_off_c, 0, 49, 62
1, 139814, Note_off_c, 0, 85, 64
1, 139833, Note_off_c, 0, 58, 62
1, 139858, Note_on_c, 0, 90, 99
1, 139859, Note_on_c, 0, 87, 93
1, 139861, Note_on_c, 0, 78, 98
1, 139866, Note_on_c, 0, 85, 73
1, 139896, Note_off_c, 0, 85, 68
1, 139974, Note_off_c, 0, 78, 59
1, 139989, Note_off_c, 0, 90, 62
1, 140020, Note_off_c, 0, 87, 64
1, 140048, Note_on_c, 0, 61, 86
1, 140051, Note_on_c, 0, 58, 76
1, 140056, Note_on_c, 0, 53, 79
1, 140057, Note_on_c, 0, 89, 101
1, 140058, Note_on_c, 0, 85, 94
1, 140061, Note_on_c, 0, 77, 88
1, 140069, Note_on_c, 0, 87, 59
1, 140096, Note_off_c, 0, 87, 67
1, 140104, Control_c, 0, 64, 83
1, 140119, Control_c, 0, 64, 58
1, 140134, Control_c, 0, 64, 0
1, 140149, Control_c, 0, 64, 60
1, 140163, Control_c, 0, 64, 74
1, 140178, Control_c, 0, 64, 95
1, 140193, Control_c, 0, 64, 127
1, 140218, Note_off_c, 0, 58, 59
1, 140221, Note_off_c, 0, 61, 51
1, 140346, Note_off_c, 0, 89, 61
1, 140350, Note_off_c, 0, 53, 60
1, 140390, Note_off_c, 0, 85, 65
1, 140397, Note_off_c, 0, 77, 60
1, 140412, Note_on_c, 0, 59, 87
1, 140413, Note_on_c, 0, 56, 86
1, 140415, Note_on_c, 0, 51, 85
1, 140432, Note_off_c, 0, 59, 71
1, 140444, Note_off_c, 0, 56, 66
1, 140462, Note_off_c, 0, 51, 63
1, 140591, Note_on_c, 0, 30, 93
1, 140591, Note_on_c, 0, 42, 88
1, 140615, Note_off_c, 0, 30, 65
1, 140617, Note_off_c, 0, 42, 66
1, 140748, Control_c, 0, 64, 102
1, 140758, Note_on_c, 0, 43, 97
1, 140762, Note_on_c, 0, 31, 90
1, 140764, Control_c, 0, 64, 68
1, 140766, Note_on_c, 0, 66, 62
1, 140779, Control_c, 0, 64, 0
1, 140795, Note_on_c, 0, 73, 85
1, 140818, Note_off_c, 0, 66, 64
1, 140824, Control_c, 0, 64, 63
1, 140838, Control_c, 0, 64, 76
1, 140846, Note_on_c, 0, 77, 87
1, 140853, Control_c, 0, 64, 102
1, 140862, Note_off_c, 0, 73, 65
1, 140868, Control_c, 0, 64, 127
1, 140877, Note_off_c, 0, 77, 67
1, 140892, Note_off_c, 0, 31, 63
1, 140921, Note_off_c, 0, 43, 65
1, 140947, Note_on_c, 0, 78, 75
1, 140967, Note_on_c, 0, 85, 95
1, 141000, Note_off_c, 0, 78, 62
1, 141023, Note_on_c, 0, 86, 84
1, 141052, Note_on_c, 0, 89, 77
1, 141053, Note_off_c, 0, 85, 64
1, 141062, Note_on_c, 0, 88, 72
1, 141079, Note_off_c, 0, 88, 65
1, 141081, Note_off_c, 0, 86, 65
1, 141090, Note_off_c, 0, 89, 66
1, 141127, Note_on_c, 0, 78, 100
1, 141128, Note_on_c, 0, 86, 93
1, 141128, Note_on_c, 0, 90, 104
1, 141129, Note_on_c, 0, 60, 95
1, 141134, Note_on_c, 0, 56, 87
1, 141139, Note_on_c, 0, 89, 76
1, 141150, Note_on_c, 0, 88, 59
1, 141170, Note_off_c, 0, 88, 59
1, 141194, Note_off_c, 0, 56, 61
1, 141197, Note_off_c, 0, 89, 57
1, 141201, Note_off_c, 0, 78, 62
1, 141257, Note_off_c, 0, 60, 62
1, 141307, Note_on_c, 0, 61, 100
1, 141314, Note_on_c, 0, 56, 72
1, 141324, Note_on_c, 0, 57, 80
1, 141334, Note_off_c, 0, 56, 68
1, 141447, Note_off_c, 0, 61, 60
1, 141530, Note_on_c, 0, 62, 92
1, 141533, Note_on_c, 0, 66, 103
1, 141541, Control_c, 0, 64, 110
1, 141549, Note_on_c, 0, 78, 93
1, 141556, Control_c, 0, 64, 72
1, 141572, Control_c, 0, 64, 0
1, 141601, Control_c, 0, 64, 64
1, 141616, Control_c, 0, 64, 79
1, 141631, Control_c, 0, 64, 118
1, 141646, Control_c, 0, 64, 127
1, 141742, Note_off_c, 0, 66, 57
1, 141761, Note_off_c, 0, 86, 56
1, 141808, Note_off_c, 0, 78, 39
1, 141848, Note_off_c, 0, 62, 55
1, 141893, Note_off_c, 0, 57, 58
1, 141899, Note_on_c, 0, 64, 106
1, 141903, Note_on_c, 0, 61, 99
1, 141935, Note_off_c, 0, 64, 68
1, 141947, Note_off_c, 0, 61, 66
1, 142104, Note_off_c, 0, 90, 55
1, 142105, Note_on_c, 0, 78, 75
1, 142135, Note_on_c, 0, 85, 73
1, 142186, Note_on_c, 0, 89, 75
1, 142219, Note_off_c, 0, 78, 60
1, 142236, Note_off_c, 0, 85, 64
1, 142257, Note_on_c, 0, 43, 108
1, 142263, Note_on_c, 0, 31, 89
1, 142272, Note_on_c, 0, 86, 80
1, 142273, Note_on_c, 0, 90, 93
1, 142280, Note_on_c, 0, 78, 80
1, 142289, Note_off_c, 0, 31, 64
1, 142290, Note_off_c, 0, 43, 68
1, 142300, Note_on_c, 0, 33, 41
1, 142304, Note_off_c, 0, 89, 55
1, 142357, Note_off_c, 0, 33, 41
1, 142387, Note_off_c, 0, 78, 51
1, 142639, Note_on_c, 0, 66, 100
1, 142648, Note_on_c, 0, 62, 91
1, 142669, Note_on_c, 0, 78, 94
1, 142683, Note_off_c, 0, 66, 69
1, 142684, Note_off_c, 0, 62, 63
1, 142688, Note_off_c, 0, 86, 65
1, 142693, Note_off_c, 0, 90, 60
1, 142755, Note_off_c, 0, 78, 54
1, 142995, Control_c, 0, 64, 95
1, 143009, Control_c, 0, 64, 65
1, 143020, Note_on_c, 0, 43, 102
1, 143021, Note_on_c, 0, 85, 103
1, 143023, Note_on_c, 0, 31, 93
1, 143024, Control_c, 0, 64, 0
1, 143026, Note_on_c, 0, 73, 99
1, 143029, Note_on_c, 0, 82, 94
1, 143050, Note_off_c, 0, 31, 70
1, 143054, Control_c, 0, 64, 65
1, 143060, Note_off_c, 0, 43, 67
1, 143069, Control_c, 0, 64, 82
1, 143071, Note_on_c, 0, 75, 25
1, 143083, Control_c, 0, 64, 127
1, 143122, Note_off_c, 0, 73, 58
1, 143160, Note_off_c, 0, 75, 37
1, 143186, Note_off_c, 0, 85, 59
1, 143354, Note_off_c, 0, 82, 61
1, 143366, Control_c, 0, 64, 100
1, 143369, Note_on_c, 0, 59, 85
1, 143373, Note_on_c, 0, 64, 86
1, 143378, Note_on_c, 0, 88, 102
1, 143378, Note_on_c, 0, 68, 97
1, 143381, Note_on_c, 0, 76, 98
1, 143381, Note_on_c, 0, 85, 97
1, 143381, Control_c, 0, 64, 72
1, 143396, Control_c, 0, 64, 62
1, 143411, Control_c, 0, 64, 69
1, 143426, Control_c, 0, 64, 78
1, 143435, Note_on_c, 0, 86, 26
1, 143440, Control_c, 0, 64, 98
1, 143455, Control_c, 0, 64, 127
1, 143460, Note_off_c, 0, 59, 53
1, 143473, Note_off_c, 0, 86, 31
1, 143479, Note_off_c, 0, 64, 59
1, 143487, Note_off_c, 0, 68, 59
1, 143519, Note_off_c, 0, 76, 53
1, 143523, Note_off_c, 0, 88, 55
1, 143548, Note_on_c, 0, 65, 90
1, 143551, Note_on_c, 0, 69, 91
1, 143557, Note_on_c, 0, 60, 74
1, 143607, Note_on_c, 0, 59, 4
1, 143647, Note_off_c, 0, 69, 65
1, 143649, Note_off_c, 0, 59, 0
1, 143672, Poly_aftertouch_c, 0, 59, 0
1, 143673, Note_off_c, 0, 85, 61
1, 143685, Note_off_c, 0, 65, 59
1, 143685, Control_c, 0, 64, 118
1, 143696, Note_off_c, 0, 60, 60
1, 143700, Control_c, 0, 64, 74
1, 143714, Control_c, 0, 64, 0
1, 143743, Note_on_c, 0, 86, 105
1, 143745, Note_on_c, 0, 64, 84
1, 143748, Note_on_c, 0, 68, 84
1, 143749, Note_on_c, 0, 59, 76
1, 143750, Note_on_c, 0, 83, 92
1, 143752, Note_on_c, 0, 74, 96
1, 143758, Control_c, 0, 64, 68
1, 143771, Note_off_c, 0, 59, 66
1, 143773, Control_c, 0, 64, 97
1, 143788, Control_c, 0, 64, 127
1, 143801, Note_off_c, 0, 64, 63
1, 143819, Note_off_c, 0, 68, 63
1, 143837, Note_off_c, 0, 74, 61
1, 143867, Note_off_c, 0, 83, 63
1, 143877, Control_c, 0, 64, 103
1, 143892, Control_c, 0, 64, 74
1, 143898, Note_off_c, 0, 86, 65
1, 143900, Note_on_c, 0, 62, 74
1, 143906, Control_c, 0, 64, 42
1, 143910, Note_on_c, 0, 68, 87
1, 143921, Control_c, 0, 64, 39
1, 143930, Note_off_c, 0, 62, 64
1, 143936, Control_c, 0, 64, 61
1, 143952, Control_c, 0, 64, 69
1, 143962, Note_on_c, 0, 72, 71
1, 143965, Note_on_c, 0, 76, 74
1, 143967, Control_c, 0, 64, 84
1, 143974, Note_off_c, 0, 68, 66
1, 143981, Control_c, 0, 64, 113
1, 143986, Note_off_c, 0, 72, 66
1, 143987, Note_on_c, 0, 83, 90
1, 143996, Control_c, 0, 64, 127
1, 144019, Note_on_c, 0, 84, 86
1, 144064, Note_on_c, 0, 89, 93
1, 144120, Note_on_c, 0, 96, 123
1, 144141, Note_off_c, 0, 96, 77
1, 144155, Note_on_c, 0, 88, 51
1, 144189, Note_off_c, 0, 88, 46
1, 144311, Note_off_c, 0, 89, 61
1, 144339, Note_off_c, 0, 76, 56
1, 144407, Note_on_c, 0, 57, 78
1, 144493, Control_c, 0, 64, 116
1, 144508, Control_c, 0, 64, 81
1, 144514, Note_on_c, 0, 53, 69
1, 144514, Note_off_c, 0, 57, 62
1, 144515, Note_on_c, 0, 58, 68
1, 144517, Note_off_c, 0, 84, 63
1, 144519, Note_on_c, 0, 50, 59
1, 144520, Note_on_c, 0, 86, 81
1, 144523, Control_c, 0, 64, 51
1, 144533, Note_on_c, 0, 74, 72
1, 144537, Control_c, 0, 64, 0
1, 144557, Note_off_c, 0, 83, 61
1, 144586, Note_off_c, 0, 74, 62
1, 144596, Control_c, 0, 64, 36
1, 144611, Control_c, 0, 64, 66
1, 144626, Control_c, 0, 64, 83
1, 144641, Control_c, 0, 64, 127
1, 144659, Note_off_c, 0, 50, 59
1, 144680, Note_off_c, 0, 53, 58
1, 144737, Note_off_c, 0, 58, 62
1, 144749, Note_off_c, 0, 86, 65
1, 144773, Note_on_c, 0, 59, 65
1, 144851, Note_off_c, 0, 59, 56
1, 144878, Note_on_c, 0, 60, 61
1, 144879, Note_on_c, 0, 51, 65
1, 144885, Note_on_c, 0, 92, 81
1, 144893, Control_c, 0, 64, 81
1, 144900, Note_on_c, 0, 80, 62
1, 144908, Control_c, 0, 64, 0
1, 144925, Note_on_c, 0, 55, 32
1, 144952, Control_c, 0, 64, 63
1, 144963, Note_off_c, 0, 80, 0
1, 144963, Note_on_c, 0, 80, 16
1, 144967, Control_c, 0, 64, 74
1, 144982, Control_c, 0, 64, 91
1, 144997, Control_c, 0, 64, 127
1, 145013, Note_off_c, 0, 51, 60
1, 145015, Note_off_c, 0, 55, 31
1, 145055, Note_off_c, 0, 92, 65
1, 145068, Note_off_c, 0, 80, 54
1, 145122, Note_off_c, 0, 60, 64
1, 145155, Note_on_c, 0, 61, 70
1, 145256, Note_on_c, 0, 62, 72
1, 145256, Note_on_c, 0, 84, 88
1, 145256, Control_c, 0, 64, 87
1, 145259, Note_off_c, 0, 61, 59
1, 145259, Note_on_c, 0, 53, 65
1, 145260, Note_on_c, 0, 56, 63
1, 145271, Note_on_c, 0, 72, 70
1, 145271, Control_c, 0, 64, 38
1, 145286, Control_c, 0, 64, 0
1, 145330, Control_c, 0, 64, 65
1, 145345, Control_c, 0, 64, 78
1, 145360, Control_c, 0, 64, 103
1, 145369, Note_off_c, 0, 72, 58
1, 145375, Control_c, 0, 64, 127
1, 145470, Note_off_c, 0, 53, 38
1, 145512, Note_off_c, 0, 56, 59
1, 145514, Note_on_c, 0, 63, 75
1, 145523, Note_off_c, 0, 62, 59
1, 145560, Note_off_c, 0, 84, 62
1, 145565, Note_off_c, 0, 63, 63
1, 145617, Note_on_c, 0, 91, 101
1, 145624, Note_on_c, 0, 64, 87
1, 145624, Note_on_c, 0, 79, 91
1, 145629, Note_on_c, 0, 55, 72
1, 145629, Note_on_c, 0, 58, 69
1, 145639, Note_on_c, 0, 63, 38
1, 145642, Control_c, 0, 64, 86
1, 145657, Control_c, 0, 64, 43
1, 145672, Control_c, 0, 64, 0
1, 145688, Note_off_c, 0, 63, 45
1, 145701, Control_c, 0, 64, 64
1, 145716, Control_c, 0, 64, 79
1, 145731, Control_c, 0, 64, 115
1, 145745, Control_c, 0, 64, 127
1, 145757, Note_off_c, 0, 91, 66
1, 145781, Note_off_c, 0, 55, 58
1, 145782, Note_off_c, 0, 79, 65
1, 145824, Note_off_c, 0, 58, 62
1, 145840, Note_off_c, 0, 64, 64
1, 145867, Note_on_c, 0, 65, 78
1, 145980, Note_on_c, 0, 60, 81
1, 145981, Note_on_c, 0, 82, 102
1, 145982, Note_on_c, 0, 66, 87
1, 145983, Note_on_c, 0, 56, 84
1, 145986, Note_on_c, 0, 70, 97
1, 145990, Control_c, 0, 64, 91
1, 146005, Control_c, 0, 64, 60
1, 146013, Note_off_c, 0, 65, 63
1, 146020, Control_c, 0, 64, 0
1, 146049, Control_c, 0, 64, 50
1, 146064, Control_c, 0, 64, 74
1, 146079, Control_c, 0, 64, 95
1, 146094, Control_c, 0, 64, 127
1, 146103, Note_off_c, 0, 70, 61
1, 146194, Note_off_c, 0, 56, 60
1, 146198, Note_off_c, 0, 82, 63
1, 146198, Note_off_c, 0, 60, 62
1, 146228, Note_on_c, 0, 67, 84
1, 146229, Note_off_c, 0, 66, 60
1, 146332, Note_on_c, 0, 68, 93
1, 146337, Note_on_c, 0, 62, 82
1, 146338, Note_on_c, 0, 58, 83
1, 146338, Note_on_c, 0, 89, 105
1, 146343, Note_on_c, 0, 77, 100
1, 146346, Control_c, 0, 64, 100
1, 146362, Control_c, 0, 64, 67
1, 146363, Note_off_c, 0, 67, 62
1, 146376, Control_c, 0, 64, 0
1, 146406, Control_c, 0, 64, 38
1, 146421, Control_c, 0, 64, 70
1, 146436, Control_c, 0, 64, 95
1, 146450, Control_c, 0, 64, 127
1, 146475, Note_off_c, 0, 89, 61
1, 146496, Note_off_c, 0, 77, 65
1, 146517, Note_off_c, 0, 58, 60
1, 146572, Note_on_c, 0, 69, 80
1, 146607, Note_off_c, 0, 62, 59
1, 146612, Note_off_c, 0, 68, 57
1, 146630, Note_off_c, 0, 69, 63
1, 146705, Note_on_c, 0, 60, 88
1, 146705, Note_on_c, 0, 80, 110
1, 146707, Note_on_c, 0, 63, 98
1, 146707, Note_on_c, 0, 68, 94
1, 146714, Note_on_c, 0, 70, 95
1, 146725, Control_c, 0, 64, 83
1, 146739, Control_c, 0, 64, 0
1, 146783, Control_c, 0, 64, 60
1, 146798, Control_c, 0, 64, 73
1, 146813, Control_c, 0, 64, 95
1, 146828, Control_c, 0, 64, 127
1, 146833, Note_off_c, 0, 68, 54
1, 146836, Note_off_c, 0, 70, 53
1, 146961, Note_on_c, 0, 71, 96
1, 146993, Note_off_c, 0, 60, 56
1, 146997, Note_off_c, 0, 71, 65
1, 147000, Note_off_c, 0, 80, 61
1, 147050, Note_off_c, 0, 63, 0
1, 147063, Note_on_c, 0, 64, 85
1, 147065, Note_on_c, 0, 70, 95
1, 147066, Note_on_c, 0, 82, 107
1, 147067, Note_on_c, 0, 72, 105
1, 147072, Note_on_c, 0, 61, 88
1, 147080, Control_c, 0, 64, 94
1, 147087, Poly_aftertouch_c, 0, 63, 127
1, 147095, Control_c, 0, 64, 54
1, 147109, Control_c, 0, 64, 0
1, 147112, Poly_aftertouch_c, 0, 63, 0
1, 147139, Control_c, 0, 64, 64
1, 147155, Control_c, 0, 64, 76
1, 147166, Note_off_c, 0, 82, 59
1, 147170, Control_c, 0, 64, 100
1, 147185, Control_c, 0, 64, 127
1, 147202, Note_off_c, 0, 70, 58
1, 147220, Note_off_c, 0, 64, 58
1, 147258, Note_off_c, 0, 72, 54
1, 147286, Note_off_c, 0, 61, 49
1, 147343, Note_on_c, 0, 73, 103
1, 147389, Note_off_c, 0, 73, 69
1, 147449, Note_on_c, 0, 62, 91
1, 147449, Note_on_c, 0, 79, 108
1, 147450, Note_on_c, 0, 67, 100
1, 147450, Note_on_c, 0, 65, 95
1, 147451, Note_on_c, 0, 74, 108
1, 147459, Control_c, 0, 64, 75
1, 147474, Control_c, 0, 64, 0
1, 147543, Note_off_c, 0, 67, 61
1, 147547, Control_c, 0, 64, 35
1, 147562, Note_off_c, 0, 65, 65
1, 147562, Control_c, 0, 64, 70
1, 147571, Note_off_c, 0, 74, 60
1, 147573, Note_off_c, 0, 62, 63
1, 147577, Control_c, 0, 64, 99
1, 147592, Control_c, 0, 64, 127
1, 147686, Note_off_c, 0, 79, 43
1, 147799, Control_c, 0, 64, 84
1, 147813, Note_on_c, 0, 52, 83
1, 147813, Note_on_c, 0, 79, 87
1, 147814, Note_on_c, 0, 49, 83
1, 147814, Control_c, 0, 64, 0
1, 147814, Note_on_c, 0, 71, 79
1, 147815, Note_on_c, 0, 67, 88
1, 147815, Note_on_c, 0, 74, 83
1, 147873, Control_c, 0, 64, 53
1, 147888, Control_c, 0, 64, 68
1, 147900, Note_on_c, 0, 50, 79
1, 147903, Control_c, 0, 64, 81
1, 147912, Note_off_c, 0, 49, 64
1, 147912, Note_on_c, 0, 53, 75
1, 147912, Note_off_c, 0, 52, 63
1, 147918, Control_c, 0, 64, 109
1, 147932, Control_c, 0, 64, 127
1, 147978, Note_on_c, 0, 49, 82
1, 147982, Note_off_c, 0, 53, 66
1, 147984, Note_on_c, 0, 52, 82
1, 147984, Note_off_c, 0, 50, 66
1, 148049, Note_on_c, 0, 53, 84
1, 148052, Note_on_c, 0, 50, 82
1, 148058, Note_off_c, 0, 49, 59
1, 148075, Note_off_c, 0, 53, 71
1, 148088, Note_off_c, 0, 52, 43
1, 148090, Note_off_c, 0, 50, 67
1, 148102, Note_off_c, 0, 79, 56
1, 148114, Note_off_c, 0, 71, 58
1, 148116, Note_off_c, 0, 74, 61
1, 148118, Note_off_c, 0, 67, 59
1, 148173, Note_on_c, 0, 43, 96
1, 148177, Control_c, 0, 64, 90
1, 148180, Note_on_c, 0, 74, 92
1, 148180, Note_on_c, 0, 31, 90
1, 148180, Note_on_c, 0, 67, 88
1, 148182, Note_on_c, 0, 71, 90
1, 148183, Note_on_c, 0, 79, 103
1, 148192, Control_c, 0, 64, 60
1, 148207, Control_c, 0, 64, 0
1, 148214, Note_on_c, 0, 34, 37
1, 148215, Note_off_c, 0, 34, 127
1, 148220, Note_on_c, 0, 36, 26
1, 148221, Note_off_c, 0, 36, 127
1, 148221, Note_on_c, 0, 35, 21
1, 148222, Note_off_c, 0, 35, 127
1, 148267, Control_c, 0, 64, 63
1, 148273, Poly_aftertouch_c, 0, 36, 0
1, 148282, Control_c, 0, 64, 75
1, 148297, Control_c, 0, 64, 95
1, 148303, Note_off_c, 0, 74, 63
1, 148311, Control_c, 0, 64, 127
1, 148315, Note_off_c, 0, 43, 62
1, 148316, Note_off_c, 0, 67, 47
1, 148318, Note_off_c, 0, 71, 62
1, 148327, Note_off_c, 0, 31, 61
1, 148371, Note_off_c, 0, 79, 50
1, 148479, Note_on_c, 0, 41, 97
1, 148484, Note_on_c, 0, 29, 87
1, 148502, Note_off_c, 0, 41, 69
1, 148509, Note_off_c, 0, 29, 65
1, 148518, Control_c, 0, 64, 89
1, 148533, Control_c, 0, 64, 17
1, 148543, Note_on_c, 0, 72, 94
1, 148544, Note_on_c, 0, 80, 101
1, 148544, Note_on_c, 0, 68, 99
1, 148544, Note_on_c, 0, 75, 92
1, 148547, Note_on_c, 0, 41, 105
1, 148547, Control_c, 0, 64, 0
1, 148550, Note_on_c, 0, 29, 100
1, 148592, Note_off_c, 0, 41, 65
1, 148592, Control_c, 0, 64, 64
1, 148598, Note_off_c, 0, 29, 64
1, 148607, Control_c, 0, 64, 78
1, 148622, Control_c, 0, 64, 119
1, 148636, Control_c, 0, 64, 127
1, 148726, Note_off_c, 0, 72, 57
1, 148745, Note_off_c, 0, 68, 54
1, 148780, Note_off_c, 0, 75, 60
1, 148818, Note_off_c, 0, 80, 57
1, 148832, Note_on_c, 0, 39, 96
1, 148833, Note_on_c, 0, 27, 99
1, 148854, Note_off_c, 0, 39, 69
1, 148859, Note_off_c, 0, 27, 69
1, 148860, Control_c, 0, 64, 113
1, 148882, Control_c, 0, 64, 72
1, 148884, Note_on_c, 0, 37, 25
1, 148896, Note_on_c, 0, 73, 101
1, 148897, Note_on_c, 0, 76, 94
1, 148897, Note_on_c, 0, 82, 102
1, 148897, Control_c, 0, 64, 0
1, 148898, Note_on_c, 0, 70, 99
1, 148909, Note_on_c, 0, 39, 102
1, 148910, Note_on_c, 0, 27, 103
1, 148930, Note_off_c, 0, 37, 55
1, 148941, Note_on_c, 0, 40, 52
1, 148941, Control_c, 0, 64, 66
1, 148952, Note_off_c, 0, 27, 67
1, 148954, Note_off_c, 0, 39, 62
1, 148956, Control_c, 0, 64, 82
1, 148971, Control_c, 0, 64, 127
1, 148973, Note_off_c, 0, 40, 58
1, 148999, Note_off_c, 0, 76, 61
1, 149004, Note_off_c, 0, 82, 67
1, 149072, Note_off_c, 0, 73, 56
1, 149096, Note_off_c, 0, 70, 60
1, 149181, Note_on_c, 0, 43, 99
1, 149186, Note_on_c, 0, 31, 90
1, 149206, Note_off_c, 0, 43, 69
1, 149209, Control_c, 0, 64, 106
1, 149214, Note_off_c, 0, 31, 63
1, 149224, Control_c, 0, 64, 69
1, 149236, Note_on_c, 0, 71, 101
1, 149238, Note_on_c, 0, 67, 103
1, 149238, Note_on_c, 0, 79, 98
1, 149239, Control_c, 0, 64, 0
1, 149239, Note_on_c, 0, 74, 96
1, 149242, Note_on_c, 0, 43, 102
1, 149247, Note_on_c, 0, 31, 95
1, 149292, Note_off_c, 0, 31, 63
1, 149294, Note_off_c, 0, 43, 66
1, 149297, Control_c, 0, 64, 64
1, 149312, Control_c, 0, 64, 78
1, 149327, Control_c, 0, 64, 110
1, 149342, Control_c, 0, 64, 127
1, 149501, Note_off_c, 0, 79, 53
1, 149513, Note_off_c, 0, 67, 54
1, 149522, Note_on_c, 0, 43, 102
1, 149528, Note_off_c, 0, 71, 55
1, 149529, Note_on_c, 0, 31, 86
1, 149540, Note_off_c, 0, 74, 55
1, 149546, Note_off_c, 0, 43, 70
1, 149550, Control_c, 0, 64, 87
1, 149551, Note_off_c, 0, 31, 72
1, 149565, Control_c, 0, 64, 0
1, 149584, Note_on_c, 0, 43, 99
1, 149587, Note_on_c, 0, 67, 99
1, 149587, Note_on_c, 0, 71, 90
1, 149588, Note_on_c, 0, 31, 95
1, 149589, Note_on_c, 0, 79, 98
1, 149592, Note_on_c, 0, 74, 87
1, 149632, Control_c, 0, 64, 63
1, 149647, Control_c, 0, 64, 79
1, 149647, Note_off_c, 0, 31, 62
1, 149649, Note_off_c, 0, 43, 65
1, 149662, Control_c, 0, 64, 127
1, 149689, Note_off_c, 0, 74, 62
1, 149689, Note_off_c, 0, 79, 64
1, 149703, Note_off_c, 0, 71, 62
1, 149727, Note_off_c, 0, 67, 55
1, 149911, Note_on_c, 0, 80, 89
1, 149912, Note_on_c, 0, 75, 89
1, 149921, Note_on_c, 0, 72, 88
1, 149939, Note_on_c, 0, 53, 107
1, 149941, Control_c, 0, 64, 79
1, 149942, Note_on_c, 0, 41, 102
1, 149952, Note_on_c, 0, 68, 86
1, 149956, Control_c, 0, 64, 0
1, 150015, Control_c, 0, 64, 62
1, 150030, Control_c, 0, 64, 78
1, 150040, Note_off_c, 0, 72, 64
1, 150045, Control_c, 0, 64, 127
1, 150062, Note_off_c, 0, 53, 63
1, 150064, Note_off_c, 0, 75, 57
1, 150068, Note_off_c, 0, 41, 61
1, 150079, Note_off_c, 0, 68, 59
1, 150092, Note_off_c, 0, 80, 61
1, 150279, Note_on_c, 0, 82, 96
1, 150283, Note_on_c, 0, 73, 91
1, 150287, Note_on_c, 0, 76, 85
1, 150297, Control_c, 0, 64, 85
1, 150310, Note_on_c, 0, 70, 97
1, 150312, Note_on_c, 0, 39, 97
1, 150312, Note_on_c, 0, 51, 103
1, 150312, Control_c, 0, 64, 0
1, 150348, Note_on_c, 0, 80, 25
1, 150377, Note_off_c, 0, 80, 35
1, 150379, Control_c, 0, 64, 67
1, 150394, Control_c, 0, 64, 87
1, 150398, Note_off_c, 0, 76, 60
1, 150406, Note_off_c, 0, 51, 61
1, 150409, Control_c, 0, 64, 127
1, 150415, Note_off_c, 0, 73, 63
1, 150419, Note_off_c, 0, 82, 68
1, 150428, Note_off_c, 0, 39, 59
1, 150496, Note_off_c, 0, 70, 58
1, 150654, Note_on_c, 0, 79, 97
1, 150655, Note_on_c, 0, 71, 91
1, 150655, Note_on_c, 0, 74, 90
1, 150660, Control_c, 0, 64, 109
1, 150675, Control_c, 0, 64, 70
1, 150678, Note_on_c, 0, 55, 107
1, 150681, Note_on_c, 0, 43, 98
1, 150690, Control_c, 0, 64, 0
1, 150692, Note_on_c, 0, 67, 97
1, 150764, Control_c, 0, 64, 61
1, 150779, Control_c, 0, 64, 77
1, 150794, Control_c, 0, 64, 111
1, 150809, Control_c, 0, 64, 127
1, 150830, Note_off_c, 0, 71, 46
1, 150877, Note_off_c, 0, 67, 43
1, 150881, Note_off_c, 0, 43, 61
1, 150882, Note_off_c, 0, 55, 58
1, 150917, Note_off_c, 0, 79, 46
1, 150940, Note_off_c, 0, 74, 38
1, 151043, Note_on_c, 0, 79, 95
1, 151044, Note_on_c, 0, 74, 88
1, 151048, Note_on_c, 0, 71, 89
1, 151072, Note_on_c, 0, 55, 105
1, 151075, Note_on_c, 0, 43, 103
1, 151079, Note_on_c, 0, 67, 98
1, 151090, Control_c, 0, 64, 96
1, 151105, Control_c, 0, 64, 65
1, 151127, Control_c, 0, 64, 0
1, 151217, Control_c, 0, 64, 11
1, 151232, Control_c, 0, 64, 61
1, 151246, Control_c, 0, 64, 69
1, 151261, Control_c, 0, 64, 80
1, 151276, Control_c, 0, 64, 102
1, 151291, Control_c, 0, 64, 127
1, 151379, Control_c, 0, 67, 8
1, 151386, Note_off_c, 0, 55, 61
1, 151394, Control_c, 0, 67, 14
1, 151403, Note_off_c, 0, 74, 63
1, 151403, Note_off_c, 0, 79, 56
1, 151409, Note_off_c, 0, 71, 61
1, 151409, Control_c, 0, 67, 20
1, 151418, Note_off_c, 0, 43, 65
1, 151421, Note_off_c, 0, 67, 60
1, 151424, Control_c, 0, 67, 27
1, 151439, Control_c, 0, 67, 30
1, 151453, Control_c, 0, 67, 31
1, 151498, Control_c, 0, 67, 30
1, 151513, Control_c, 0, 67, 29
1, 151528, Control_c, 0, 67, 29
1, 151543, Control_c, 0, 67, 28
1, 151558, Control_c, 0, 67, 28
1, 151587, Control_c, 0, 67, 29
1, 151602, Control_c, 0, 67, 30
1, 151617, Control_c, 0, 64, 112
1, 151617, Control_c, 0, 67, 31
1, 151632, Control_c, 0, 64, 75
1, 151632, Control_c, 0, 67, 33
1, 151646, Control_c, 0, 64, 0
1, 151646, Control_c, 0, 67, 36
1, 151661, Control_c, 0, 67, 43
1, 151676, Control_c, 0, 67, 49
1, 151690, Control_c, 0, 67, 54
1, 151705, Control_c, 0, 67, 59
1, 151720, Control_c, 0, 67, 65
1, 151735, Control_c, 0, 67, 71
1, 151750, Control_c, 0, 67, 77
1, 151764, Control_c, 0, 67, 83
1, 151779, Control_c, 0, 67, 88
1, 151794, Control_c, 0, 67, 92
1, 151809, Control_c, 0, 67, 95
1, 151824, Control_c, 0, 67, 100
1, 151838, Control_c, 0, 67, 104
1, 151853, Control_c, 0, 67, 109
1, 151876, Control_c, 0, 67, 114
1, 151891, Control_c, 0, 67, 120
1, 151905, Control_c, 0, 67, 127
1, 152714, Control_c, 0, 64, 28
1, 152728, Control_c, 0, 64, 37
1, 152744, Control_c, 0, 64, 43
1, 152759, Control_c, 0, 64, 48
1, 152774, Control_c, 0, 64, 52
1, 152789, Control_c, 0, 64, 55
1, 152804, Control_c, 0, 64, 59
1, 152818, Control_c, 0, 64, 61
1, 152833, Control_c, 0, 64, 63
1, 152848, Control_c, 0, 64, 64
1, 152863, Control_c, 0, 64, 66
1, 152878, Control_c, 0, 64, 67
1, 152893, Control_c, 0, 64, 68
1, 152907, Control_c, 0, 64, 69
1, 152922, Control_c, 0, 64, 70
1, 152937, Control_c, 0, 64, 70
1, 152951, Control_c, 0, 64, 72
1, 152966, Control_c, 0, 64, 73
1, 152981, Control_c, 0, 64, 75
1, 152996, Control_c, 0, 64, 77
1, 153011, Control_c, 0, 64, 78
1, 153055, Control_c, 0, 64, 78
1, 153070, Control_c, 0, 64, 79
1, 153085, Control_c, 0, 64, 80
1, 153099, Control_c, 0, 64, 82
1, 153114, Control_c, 0, 64, 83
1, 153129, Control_c, 0, 64, 84
1, 153144, Control_c, 0, 64, 86
1, 153158, Control_c, 0, 64, 88
1, 153173, Control_c, 0, 64, 90
1, 153188, Control_c, 0, 64, 93
1, 153203, Control_c, 0, 64, 95
1, 153218, Control_c, 0, 64, 96
1, 153233, Control_c, 0, 64, 97
1, 153248, Control_c, 0, 64, 99
1, 153262, Control_c, 0, 64, 100
1, 153277, Control_c, 0, 64, 101
1, 153292, Control_c, 0, 64, 102
1, 153307, Control_c, 0, 64, 103
1, 153322, Control_c, 0, 64, 104
1, 153336, Control_c, 0, 64, 105
1, 153351, Control_c, 0, 64, 106
1, 153355, Note_on_c, 0, 43, 27
1, 153373, Control_c, 0, 64, 107
1, 153388, Control_c, 0, 64, 108
1, 153403, Control_c, 0, 64, 109
1, 153418, Control_c, 0, 64, 110
1, 153433, Control_c, 0, 64, 112
1, 153448, Control_c, 0, 64, 114
1, 153463, Control_c, 0, 64, 118
1, 153477, Control_c, 0, 64, 127
1, 153745, Note_off_c, 0, 43, 39
1, 153879, Note_on_c, 0, 43, 43
1, 154156, Note_off_c, 0, 43, 39
1, 154405, Note_on_c, 0, 51, 64
1, 154451, Note_on_c, 0, 43, 34
1, 154457, Note_on_c, 0, 44, 37
1, 154471, Note_on_c, 0, 48, 32
1, 154674, Note_off_c, 0, 43, 32
1, 154950, Note_on_c, 0, 43, 49
1, 155209, Note_off_c, 0, 43, 36
1, 155510, Note_on_c, 0, 43, 48
1, 155578, Note_off_c, 0, 44, 43
1, 155794, Note_off_c, 0, 43, 27
1, 155840, Note_off_c, 0, 48, 41
1, 156214, Note_on_c, 0, 56, 46
1, 156228, Note_on_c, 0, 45, 34
1, 156230, Note_on_c, 0, 49, 44
1, 156239, Note_on_c, 0, 40, 28
1, 156243, Control_c, 0, 64, 114
1, 156258, Control_c, 0, 64, 92
1, 156273, Control_c, 0, 64, 77
1, 156287, Control_c, 0, 64, 66
1, 156302, Control_c, 0, 64, 38
1, 156309, Note_off_c, 0, 51, 39
1, 156317, Control_c, 0, 64, 0
1, 156429, Control_c, 0, 64, 49
1, 156443, Control_c, 0, 64, 64
1, 156458, Control_c, 0, 64, 69
1, 156473, Control_c, 0, 64, 73
1, 156487, Control_c, 0, 64, 78
1, 156502, Control_c, 0, 64, 81
1, 156517, Control_c, 0, 64, 86
1, 156532, Control_c, 0, 64, 92
1, 156547, Control_c, 0, 64, 98
1, 156561, Control_c, 0, 64, 105
1, 156576, Control_c, 0, 64, 112
1, 156591, Control_c, 0, 64, 126
1, 156606, Control_c, 0, 64, 127
1, 156664, Note_off_c, 0, 40, 38
1, 156903, Note_on_c, 0, 40, 38
1, 157027, Note_off_c, 0, 40, 0
1, 157053, Poly_aftertouch_c, 0, 40, 0
1, 157477, Note_on_c, 0, 50, 43
1, 157496, Note_on_c, 0, 39, 34
1, 157504, Note_on_c, 0, 46, 36
1, 157517, Control_c, 0, 64, 104
1, 157528, Note_off_c, 0, 45, 41
1, 157528, Note_off_c, 0, 49, 46
1, 157533, Control_c, 0, 64, 88
1, 157548, Control_c, 0, 64, 76
1, 157563, Control_c, 0, 64, 64
1, 157578, Control_c, 0, 64, 49
1, 157593, Control_c, 0, 64, 41
1, 157622, Control_c, 0, 64, 44
1, 157637, Control_c, 0, 64, 51
1, 157652, Control_c, 0, 64, 60
1, 157667, Control_c, 0, 64, 65
1, 157681, Control_c, 0, 64, 70
1, 157696, Control_c, 0, 64, 76
1, 157711, Control_c, 0, 64, 84
1, 157726, Control_c, 0, 64, 95
1, 157740, Control_c, 0, 64, 108
1, 157755, Control_c, 0, 64, 127
1, 157818, Note_off_c, 0, 39, 36
1, 157887, Note_off_c, 0, 46, 40
1, 157930, Note_off_c, 0, 50, 40
1, 158196, Note_on_c, 0, 50, 41
1, 158210, Note_on_c, 0, 43, 36
1, 158212, Note_on_c, 0, 47, 32
1, 158223, Control_c, 0, 64, 117
1, 158238, Control_c, 0, 64, 92
1, 158253, Control_c, 0, 64, 76
1, 158267, Control_c, 0, 64, 64
1, 158282, Control_c, 0, 64, 37
1, 158297, Control_c, 0, 64, 0
1, 158298, Note_off_c, 0, 56, 39
1, 158357, Control_c, 0, 64, 34
1, 158372, Control_c, 0, 64, 56
1, 158387, Control_c, 0, 64, 65
1, 158402, Control_c, 0, 64, 71
1, 158417, Control_c, 0, 64, 79
1, 158431, Control_c, 0, 64, 89
1, 158446, Control_c, 0, 64, 99
1, 158461, Control_c, 0, 64, 110
1, 158476, Control_c, 0, 64, 127
1, 158525, Note_off_c, 0, 43, 31
1, 158828, Note_on_c, 0, 43, 35
1, 159013, Note_off_c, 0, 43, 24
1, 159523, Note_on_c, 0, 43, 30
1, 160878, Note_off_c, 0, 50, 37
1, 161232, Control_c, 0, 64, 124
1, 161247, Control_c, 0, 64, 116
1, 161262, Control_c, 0, 64, 110
1, 161276, Control_c, 0, 64, 107
1, 161291, Control_c, 0, 64, 105
1, 161306, Control_c, 0, 64, 103
1, 161321, Control_c, 0, 64, 100
1, 161336, Control_c, 0, 64, 98
1, 161350, Control_c, 0, 64, 96
1, 161365, Control_c, 0, 64, 94
1, 161380, Control_c, 0, 64, 92
1, 161395, Control_c, 0, 64, 90
1, 161410, Control_c, 0, 64, 88
1, 161425, Control_c, 0, 64, 86
1, 161439, Control_c, 0, 64, 84
1, 161454, Control_c, 0, 64, 81
1, 161469, Control_c, 0, 64, 80
1, 161484, Control_c, 0, 64, 78
1, 161499, Control_c, 0, 64, 76
1, 161514, Control_c, 0, 64, 75
1, 161529, Control_c, 0, 64, 74
1, 161544, Control_c, 0, 64, 72
1, 161559, Control_c, 0, 64, 71
1, 161574, Control_c, 0, 64, 70
1, 161588, Control_c, 0, 64, 69
1, 161611, Control_c, 0, 64, 69
1, 161626, Control_c, 0, 64, 68
1, 161641, Control_c, 0, 64, 68
1, 161670, Control_c, 0, 64, 67
1, 161685, Control_c, 0, 64, 67
1, 161729, Control_c, 0, 64, 66
1, 161745, Control_c, 0, 64, 66
1, 161758, Note_off_c, 0, 47, 56
1, 161760, Control_c, 0, 64, 65
1, 161775, Control_c, 0, 64, 64
1, 161788, Note_off_c, 0, 43, 57
1, 161789, Control_c, 0, 64, 63
1, 161804, Control_c, 0, 64, 60
1, 161819, Control_c, 0, 64, 56
1, 161834, Control_c, 0, 64, 53
1, 161849, Control_c, 0, 64, 53
1, 161863, Control_c, 0, 64, 51
1, 161878, Control_c, 0, 64, 50
1, 161893, Control_c, 0, 64, 48
1, 161907, Control_c, 0, 64, 47
1, 161937, Control_c, 0, 64, 47
1, 161982, Control_c, 0, 64, 46
1, 161997, Control_c, 0, 64, 41
1, 162012, Control_c, 0, 64, 26
1, 162027, Control_c, 0, 64, 0
1, 162456, Note_on_c, 0, 42, 48
1, 162492, Note_off_c, 0, 42, 61
1, 162527, Note_on_c, 0, 43, 47
1, 162577, Note_off_c, 0, 43, 60
1, 162602, Note_on_c, 0, 42, 55
1, 162604, Note_on_c, 0, 31, 39
1, 162651, Note_off_c, 0, 42, 62
1, 162680, Note_on_c, 0, 43, 58
1, 162736, Note_off_c, 0, 43, 60
1, 162788, Note_on_c, 0, 36, 53
1, 162910, Note_off_c, 0, 36, 58
1, 162992, Note_on_c, 0, 24, 42
1, 163014, Note_on_c, 0, 36, 10
1, 163082, Note_off_c, 0, 31, 54
1, 163221, Note_on_c, 0, 54, 49
1, 163315, Control_c, 0, 64, 23
1, 163330, Control_c, 0, 64, 59
1, 163345, Control_c, 0, 64, 66
1, 163359, Control_c, 0, 64, 71
1, 163374, Control_c, 0, 64, 75
1, 163386, Note_on_c, 0, 55, 67
1, 163389, Control_c, 0, 64, 78
1, 163397, Note_off_c, 0, 24, 54
1, 163404, Control_c, 0, 64, 82
1, 163419, Control_c, 0, 64, 85
1, 163434, Control_c, 0, 64, 89
1, 163447, Note_off_c, 0, 54, 59
1, 163449, Control_c, 0, 64, 92
1, 163463, Control_c, 0, 64, 95
1, 163478, Control_c, 0, 64, 97
1, 163493, Control_c, 0, 64, 98
1, 163508, Control_c, 0, 64, 100
1, 163511, Note_off_c, 0, 36, 39
1, 163523, Control_c, 0, 64, 101
1, 163538, Control_c, 0, 64, 101
1, 163582, Control_c, 0, 64, 101
1, 163597, Control_c, 0, 64, 97
1, 163600, Note_on_c, 0, 60, 71
1, 163612, Control_c, 0, 64, 87
1, 163618, Note_on_c, 0, 51, 56
1, 163619, Note_on_c, 0, 43, 52
1, 163620, Note_on_c, 0, 36, 48
1, 163626, Control_c, 0, 64, 73
1, 163631, Note_off_c, 0, 55, 63
1, 163641, Control_c, 0, 64, 40
1, 163656, Control_c, 0, 64, 0
1, 163730, Control_c, 0, 64, 57
1, 163744, Control_c, 0, 64, 67
1, 163744, Control_c, 0, 67, 125
1, 163759, Control_c, 0, 64, 75
1, 163759, Control_c, 0, 67, 123
1, 163774, Control_c, 0, 64, 83
1, 163774, Control_c, 0, 67, 121
1, 163778, Note_off_c, 0, 36, 52
1, 163779, Note_off_c, 0, 51, 62
1, 163785, Note_off_c, 0, 43, 61
1, 163789, Control_c, 0, 64, 92
1, 163789, Control_c, 0, 67, 118
1, 163804, Control_c, 0, 64, 102
1, 163804, Control_c, 0, 67, 115
1, 163818, Control_c, 0, 64, 113
1, 163818, Control_c, 0, 67, 113
1, 163833, Control_c, 0, 64, 127
1, 163833, Control_c, 0, 67, 112
1, 163856, Control_c, 0, 67, 111
1, 164004, Note_on_c, 0, 58, 69
1, 164020, Control_c, 0, 67, 112
1, 164023, Note_on_c, 0, 39, 54
1, 164023, Note_on_c, 0, 55, 52
1, 164028, Note_on_c, 0, 51, 52
1, 164035, Control_c, 0, 64, 103
1, 164049, Control_c, 0, 64, 88
1, 164052, Note_off_c, 0, 60, 61
1, 164064, Control_c, 0, 64, 76
1, 164079, Control_c, 0, 64, 66
1, 164094, Control_c, 0, 64, 45
1, 164108, Control_c, 0, 64, 0
1, 164123, Control_c, 0, 67, 111
1, 164168, Control_c, 0, 67, 112
1, 164182, Control_c, 0, 67, 112
1, 164197, Control_c, 0, 67, 113
1, 164212, Control_c, 0, 67, 114
1, 164227, Control_c, 0, 67, 115
1, 164242, Control_c, 0, 67, 116
1, 164256, Control_c, 0, 67, 116
1, 164271, Control_c, 0, 67, 117
1, 164286, Control_c, 0, 67, 117
1, 164316, Control_c, 0, 67, 118
1, 164361, Control_c, 0, 67, 118
1, 164404, Note_on_c, 0, 60, 70
1, 164434, Control_c, 0, 67, 118
1, 164464, Control_c, 0, 64, 60
1, 164479, Note_off_c, 0, 51, 63
1, 164479, Control_c, 0, 64, 70
1, 164493, Control_c, 0, 64, 81
1, 164493, Control_c, 0, 67, 117
1, 164508, Control_c, 0, 64, 97
1, 164510, Note_off_c, 0, 58, 59
1, 164516, Note_off_c, 0, 55, 60
1, 164523, Control_c, 0, 64, 127
1, 164566, Note_off_c, 0, 39, 57
1, 164568, Control_c, 0, 67, 118
1, 164649, Control_c, 0, 67, 117
1, 164739, Control_c, 0, 67, 118
1, 164754, Control_c, 0, 64, 102
1, 164754, Control_c, 0, 67, 118
1, 164759, Note_on_c, 0, 62, 59
1, 164760, Note_on_c, 0, 38, 57
1, 164764, Note_on_c, 0, 45, 58
1, 164764, Note_on_c, 0, 54, 57
1, 164769, Control_c, 0, 64, 82
1, 164769, Control_c, 0, 67, 119
1, 164772, Note_off_c, 0, 60, 61
1, 164784, Control_c, 0, 64, 63
1, 164784, Control_c, 0, 67, 120
1, 164799, Control_c, 0, 64, 0
1, 164799, Control_c, 0, 67, 121
1, 164814, Control_c, 0, 67, 122
1, 164829, Control_c, 0, 67, 123
1, 164829, Note_off_c, 0, 45, 60
1, 164838, Note_off_c, 0, 38, 62
1, 164844, Control_c, 0, 67, 124
1, 164847, Note_on_c, 0, 44, 65
1, 164858, Control_c, 0, 67, 125
1, 164873, Control_c, 0, 67, 127
1, 164888, Control_c, 0, 67, 127
1, 164908, Note_off_c, 0, 54, 46
1, 164909, Note_off_c, 0, 44, 61
1, 164942, Note_on_c, 0, 45, 56
1, 164948, Note_off_c, 0, 62, 56
1, 164950, Note_on_c, 0, 63, 62
1, 164975, Note_on_c, 0, 38, 38
1, 164975, Note_off_c, 0, 45, 62
1, 165018, Note_off_c, 0, 38, 61
1, 165028, Note_on_c, 0, 44, 57
1, 165115, Note_off_c, 0, 44, 60
1, 165124, Control_c, 0, 67, 127
1, 165138, Note_off_c, 0, 63, 55
1, 165139, Note_on_c, 0, 38, 51
1, 165139, Control_c, 0, 67, 126
1, 165141, Note_on_c, 0, 62, 54
1, 165154, Control_c, 0, 67, 125
1, 165155, Note_on_c, 0, 45, 46
1, 165163, Note_on_c, 0, 54, 56
1, 165169, Control_c, 0, 64, 59
1, 165169, Control_c, 0, 67, 123
1, 165184, Control_c, 0, 64, 69
1, 165184, Control_c, 0, 67, 122
1, 165192, Note_off_c, 0, 38, 62
1, 165192, Note_off_c, 0, 45, 64
1, 165198, Control_c, 0, 64, 80
1, 165198, Control_c, 0, 67, 121
1, 165204, Note_off_c, 0, 54, 65
1, 165213, Control_c, 0, 64, 96
1, 165228, Note_off_c, 0, 62, 61
1, 165228, Control_c, 0, 64, 127
1, 165228, Control_c, 0, 67, 120
1, 165258, Control_c, 0, 67, 121
1, 165273, Control_c, 0, 67, 123
1, 165288, Control_c, 0, 67, 125
1, 165303, Control_c, 0, 67, 126
1, 165317, Control_c, 0, 67, 127
1, 165332, Control_c, 0, 64, 114
1, 165354, Control_c, 0, 64, 85
1, 165369, Control_c, 0, 64, 70
1, 165384, Control_c, 0, 64, 51
1, 165398, Control_c, 0, 64, 0
1, 165473, Control_c, 0, 64, 35
1, 165488, Control_c, 0, 64, 62
1, 165502, Control_c, 0, 64, 69
1, 165517, Control_c, 0, 64, 76
1, 165533, Control_c, 0, 64, 85
1, 165533, Control_c, 0, 67, 127
1, 165547, Control_c, 0, 64, 99
1, 165547, Control_c, 0, 67, 126
1, 165550, Note_on_c, 0, 74, 72
1, 165558, Note_on_c, 0, 55, 53
1, 165560, Note_on_c, 0, 60, 56
1, 165562, Control_c, 0, 64, 118
1, 165562, Control_c, 0, 67, 125
1, 165571, Note_on_c, 0, 65, 54
1, 165577, Control_c, 0, 64, 127
1, 165577, Control_c, 0, 67, 125
1, 165586, Note_off_c, 0, 55, 65
1, 165587, Note_off_c, 0, 74, 62
1, 165589, Note_off_c, 0, 60, 66
1, 165592, Control_c, 0, 67, 124
1, 165604, Note_off_c, 0, 65, 65
1, 165607, Control_c, 0, 67, 123
1, 165622, Control_c, 0, 67, 123
1, 165651, Control_c, 0, 67, 122
1, 165681, Control_c, 0, 67, 122
1, 165829, Control_c, 0, 67, 121
1, 165873, Control_c, 0, 67, 121
1, 165875, Note_on_c, 0, 42, 63
1, 165918, Control_c, 0, 64, 106
1, 165920, Note_on_c, 0, 63, 74
1, 165929, Note_on_c, 0, 43, 64
1, 165933, Control_c, 0, 64, 86
1, 165933, Control_c, 0, 67, 121
1, 165936, Note_on_c, 0, 53, 65
1, 165941, Note_on_c, 0, 58, 62
1, 165947, Control_c, 0, 64, 72
1, 165947, Control_c, 0, 67, 122
1, 165962, Control_c, 0, 64, 59
1, 165962, Control_c, 0, 67, 123
1, 165977, Control_c, 0, 64, 0
1, 165977, Control_c, 0, 67, 125
1, 165992, Control_c, 0, 67, 126
1, 166007, Control_c, 0, 67, 127
1, 166021, Control_c, 0, 67, 127
1, 166040, Note_off_c, 0, 42, 50
1, 166118, Control_c, 0, 64, 55
1, 166133, Control_c, 0, 64, 66
1, 166147, Control_c, 0, 64, 72
1, 166149, Note_on_c, 0, 56, 61
1, 166162, Control_c, 0, 64, 79
1, 166177, Control_c, 0, 64, 87
1, 166182, Note_off_c, 0, 53, 59
1, 166192, Control_c, 0, 64, 94
1, 166206, Control_c, 0, 64, 100
1, 166221, Control_c, 0, 64, 105
1, 166236, Control_c, 0, 64, 107
1, 166251, Control_c, 0, 64, 108
1, 166280, Control_c, 0, 64, 107
1, 166282, Note_off_c, 0, 56, 50
1, 166325, Control_c, 0, 64, 107
1, 166340, Control_c, 0, 64, 102
1, 166355, Control_c, 0, 64, 92
1, 166370, Control_c, 0, 64, 81
1, 166376, Note_on_c, 0, 56, 18
1, 166385, Control_c, 0, 64, 69
1, 166396, Note_on_c, 0, 60, 55
1, 166400, Control_c, 0, 64, 47
1, 166400, Note_on_c, 0, 36, 48
1, 166406, Note_off_c, 0, 56, 42
1, 166415, Control_c, 0, 64, 0
1, 166418, Note_on_c, 0, 55, 51
1, 166421, Note_on_c, 0, 51, 45
1, 166444, Note_off_c, 0, 43, 52
1, 166502, Note_off_c, 0, 58, 48
1, 166516, Note_off_c, 0, 63, 53
1, 166592, Control_c, 0, 64, 62
1, 166607, Control_c, 0, 64, 72
1, 166612, Note_off_c, 0, 55, 62
1, 166621, Control_c, 0, 64, 82
1, 166634, Note_off_c, 0, 51, 56
1, 166636, Control_c, 0, 64, 93
1, 166651, Control_c, 0, 64, 101
1, 166666, Control_c, 0, 64, 103
1, 166699, Note_off_c, 0, 36, 39
1, 166740, Control_c, 0, 64, 101
1, 166755, Control_c, 0, 64, 92
1, 166769, Control_c, 0, 64, 78
1, 166784, Control_c, 0, 64, 62
1, 166799, Control_c, 0, 64, 0
1, 166809, Note_on_c, 0, 54, 58
1, 166811, Note_on_c, 0, 42, 49
1, 166813, Note_off_c, 0, 60, 43
1, 166819, Note_on_c, 0, 36, 44
1, 166833, Note_on_c, 0, 51, 36
1, 166997, Note_off_c, 0, 42, 61
1, 167008, Note_on_c, 0, 55, 63
1, 167018, Note_on_c, 0, 43, 52
1, 167044, Note_off_c, 0, 54, 60
1, 167190, Note_off_c, 0, 43, 56
1, 167201, Note_on_c, 0, 44, 53
1, 167208, Note_on_c, 0, 60, 63
1, 167248, Note_off_c, 0, 55, 63
1, 167267, Control_c, 0, 64, 11
1, 167282, Control_c, 0, 64, 62
1, 167297, Control_c, 0, 64, 68
1, 167312, Control_c, 0, 64, 75
1, 167326, Control_c, 0, 64, 82
1, 167341, Control_c, 0, 64, 88
1, 167356, Control_c, 0, 64, 94
1, 167371, Control_c, 0, 64, 97
1, 167381, Note_off_c, 0, 51, 52
1, 167386, Control_c, 0, 64, 98
1, 167387, Note_off_c, 0, 44, 56
1, 167391, Note_on_c, 0, 43, 54
1, 167400, Control_c, 0, 64, 99
1, 167430, Control_c, 0, 64, 99
1, 167446, Note_off_c, 0, 43, 57
1, 167600, Control_c, 0, 64, 99
1, 167610, Note_on_c, 0, 58, 61
1, 167615, Control_c, 0, 64, 98
1, 167627, Note_on_c, 0, 55, 51
1, 167630, Control_c, 0, 64, 95
1, 167632, Note_on_c, 0, 39, 53
1, 167644, Control_c, 0, 64, 91
1, 167652, Note_on_c, 0, 43, 32
1, 167659, Control_c, 0, 64, 86
1, 167674, Control_c, 0, 64, 78
1, 167689, Control_c, 0, 64, 70
1, 167704, Control_c, 0, 64, 61
1, 167718, Control_c, 0, 64, 17
1, 167734, Note_off_c, 0, 60, 65
1, 167734, Control_c, 0, 64, 0
1, 167833, Note_off_c, 0, 36, 45
1, 168036, Note_on_c, 0, 60, 57
1, 168055, Note_on_c, 0, 44, 48
1, 168084, Note_off_c, 0, 43, 55
1, 168124, Note_off_c, 0, 55, 55
1, 168135, Control_c, 0, 64, 62
1, 168142, Note_off_c, 0, 58, 59
1, 168149, Control_c, 0, 64, 70
1, 168164, Control_c, 0, 64, 78
1, 168179, Control_c, 0, 64, 90
1, 168194, Control_c, 0, 64, 101
1, 168209, Control_c, 0, 64, 113
1, 168210, Note_off_c, 0, 44, 61
1, 168224, Control_c, 0, 64, 120
1, 168230, Note_off_c, 0, 39, 59
1, 168239, Control_c, 0, 64, 122
1, 168283, Control_c, 0, 64, 121
1, 168328, Control_c, 0, 64, 112
1, 168349, Control_c, 0, 64, 99
1, 168364, Control_c, 0, 64, 83
1, 168379, Control_c, 0, 64, 68
1, 168394, Control_c, 0, 64, 0
1, 168400, Note_on_c, 0, 45, 52
1, 168402, Note_on_c, 0, 38, 52
1, 168404, Note_on_c, 0, 54, 40
1, 168404, Note_on_c, 0, 62, 53
1, 168409, Note_off_c, 0, 60, 62
1, 168456, Note_off_c, 0, 45, 57
1, 168475, Note_off_c, 0, 38, 57
1, 168477, Note_on_c, 0, 44, 63
1, 168528, Note_off_c, 0, 54, 50
1, 168543, Note_off_c, 0, 44, 61
1, 168561, Note_on_c, 0, 45, 60
1, 168562, Note_on_c, 0, 63, 61
1, 168567, Note_off_c, 0, 62, 54
1, 168570, Note_on_c, 0, 38, 53
1, 168608, Note_off_c, 0, 45, 54
1, 168649, Note_off_c, 0, 38, 60
1, 168659, Note_on_c, 0, 44, 62
1, 168743, Note_off_c, 0, 44, 54
1, 168758, Note_on_c, 0, 62, 52
1, 168763, Note_off_c, 0, 63, 54
1, 168769, Note_on_c, 0, 38, 61
1, 168770, Note_on_c, 0, 45, 60
1, 168784, Note_on_c, 0, 54, 56
1, 168795, Control_c, 0, 64, 11
1, 168805, Note_off_c, 0, 38, 65
1, 168807, Note_off_c, 0, 45, 65
1, 168810, Control_c, 0, 64, 65
1, 168825, Control_c, 0, 64, 75
1, 168829, Note_off_c, 0, 54, 64
1, 168839, Control_c, 0, 64, 89
1, 168854, Control_c, 0, 64, 127
1, 168861, Note_off_c, 0, 62, 60
1, 168987, Control_c, 0, 64, 107
1, 169002, Control_c, 0, 64, 86
1, 169017, Control_c, 0, 64, 72
1, 169032, Control_c, 0, 64, 61
1, 169047, Control_c, 0, 64, 14
1, 169062, Control_c, 0, 64, 0
1, 169143, Control_c, 0, 64, 14
1, 169158, Control_c, 0, 64, 64
1, 169172, Control_c, 0, 64, 73
1, 169179, Note_on_c, 0, 74, 76
1, 169187, Control_c, 0, 64, 84
1, 169192, Note_on_c, 0, 55, 57
1, 169193, Note_on_c, 0, 65, 67
1, 169194, Note_on_c, 0, 60, 53
1, 169202, Control_c, 0, 64, 103
1, 169217, Control_c, 0, 64, 127
1, 169231, Note_off_c, 0, 60, 64
1, 169232, Note_off_c, 0, 55, 64
1, 169238, Note_off_c, 0, 74, 64
1, 169258, Note_off_c, 0, 65, 63
1, 169514, Control_c, 0, 64, 112
1, 169529, Control_c, 0, 64, 83
1, 169530, Note_on_c, 0, 58, 79
1, 169544, Control_c, 0, 64, 55
1, 169544, Control_c, 0, 67, 127
1, 169549, Note_on_c, 0, 67, 67
1, 169557, Note_on_c, 0, 63, 57
1, 169559, Control_c, 0, 64, 0
1, 169559, Control_c, 0, 67, 125
1, 169560, Note_on_c, 0, 43, 53
1, 169561, Note_on_c, 0, 53, 55
1, 169574, Control_c, 0, 67, 123
1, 169588, Control_c, 0, 67, 121
1, 169603, Control_c, 0, 67, 119
1, 169616, Note_off_c, 0, 53, 62
1, 169618, Control_c, 0, 64, 47
1, 169618, Control_c, 0, 67, 116
1, 169633, Control_c, 0, 64, 69
1, 169633, Control_c, 0, 67, 113
1, 169647, Control_c, 0, 64, 82
1, 169647, Control_c, 0, 67, 109
1, 169662, Control_c, 0, 64, 105
1, 169662, Control_c, 0, 67, 104
1, 169669, Note_off_c, 0, 43, 60
1, 169677, Control_c, 0, 64, 127
1, 169677, Control_c, 0, 67, 97
1, 169692, Control_c, 0, 67, 91
1, 169707, Control_c, 0, 67, 86
1, 169721, Control_c, 0, 67, 82
1, 169722, Note_on_c, 0, 59, 85
1, 169736, Control_c, 0, 67, 79
1, 169751, Control_c, 0, 67, 75
1, 169758, Note_off_c, 0, 58, 62
1, 169766, Control_c, 0, 67, 72
1, 169769, Note_off_c, 0, 63, 60
1, 169771, Note_off_c, 0, 67, 60
1, 169780, Note_on_c, 0, 51, 63
1, 169781, Control_c, 0, 67, 68
1, 169795, Control_c, 0, 67, 66
1, 169810, Control_c, 0, 67, 64
1, 169825, Control_c, 0, 67, 63
1, 169847, Control_c, 0, 67, 62
1, 169862, Control_c, 0, 64, 90
1, 169862, Control_c, 0, 67, 61
1, 169863, Note_off_c, 0, 51, 65
1, 169867, Note_on_c, 0, 43, 78
1, 169877, Control_c, 0, 64, 70
1, 169877, Control_c, 0, 67, 60
1, 169892, Control_c, 0, 64, 0
1, 169892, Control_c, 0, 67, 60
1, 169907, Control_c, 0, 67, 59
1, 169921, Control_c, 0, 67, 58
1, 169936, Control_c, 0, 67, 58
1, 169951, Control_c, 0, 67, 57
1, 169966, Control_c, 0, 67, 56
1, 169976, Note_on_c, 0, 36, 85
1, 169981, Control_c, 0, 67, 55
1, 169986, Note_off_c, 0, 43, 61
1, 169992, Note_on_c, 0, 60, 81
1, 169995, Control_c, 0, 67, 54
1, 169997, Note_on_c, 0, 67, 81
1, 170008, Note_on_c, 0, 63, 74
1, 170010, Control_c, 0, 67, 52
1, 170012, Note_off_c, 0, 59, 63
1, 170025, Control_c, 0, 67, 50
1, 170039, Control_c, 0, 64, 58
1, 170039, Control_c, 0, 67, 47
1, 170054, Control_c, 0, 64, 70
1, 170054, Control_c, 0, 67, 44
1, 170061, Note_off_c, 0, 36, 54
1, 170069, Control_c, 0, 64, 82
1, 170069, Control_c, 0, 67, 39
1, 170084, Control_c, 0, 64, 103
1, 170084, Control_c, 0, 67, 34
1, 170099, Control_c, 0, 64, 127
1, 170099, Control_c, 0, 67, 30
1, 170114, Control_c, 0, 67, 26
1, 170115, Note_off_c, 0, 60, 62
1, 170117, Note_off_c, 0, 63, 64
1, 170129, Control_c, 0, 67, 21
1, 170144, Control_c, 0, 67, 17
1, 170159, Control_c, 0, 67, 12
1, 170173, Control_c, 0, 67, 0
1, 170215, Note_off_c, 0, 67, 64
1, 170466, Note_on_c, 0, 51, 72
1, 170472, Note_on_c, 0, 60, 63
1, 170473, Note_on_c, 0, 55, 64
1, 170480, Note_on_c, 0, 67, 79
1, 170557, Note_on_c, 0, 68, 84
1, 170559, Control_c, 0, 64, 115
1, 170574, Control_c, 0, 64, 88
1, 170576, Note_off_c, 0, 67, 58
1, 170597, Control_c, 0, 64, 68
1, 170612, Control_c, 0, 64, 0
1, 170641, Note_on_c, 0, 71, 86
1, 170647, Note_off_c, 0, 68, 65
1, 170713, Note_on_c, 0, 72, 85
1, 170727, Note_off_c, 0, 71, 66
1, 170777, Note_off_c, 0, 72, 65
1, 170813, Note_on_c, 0, 77, 93
1, 170833, Control_c, 0, 64, 60
1, 170848, Control_c, 0, 64, 71
1, 170862, Control_c, 0, 64, 81
1, 170877, Control_c, 0, 64, 100
1, 170879, Note_off_c, 0, 77, 47
1, 170892, Control_c, 0, 64, 123
1, 170907, Control_c, 0, 64, 127
1, 171016, Note_off_c, 0, 55, 58
1, 171021, Note_off_c, 0, 51, 56
1, 171024, Note_off_c, 0, 60, 50
1, 171056, Control_c, 0, 67, 8
1, 171070, Control_c, 0, 67, 9
1, 171085, Control_c, 0, 67, 11
1, 171100, Control_c, 0, 67, 12
1, 171115, Control_c, 0, 67, 14
1, 171130, Control_c, 0, 67, 16
1, 171145, Control_c, 0, 67, 19
1, 171160, Control_c, 0, 67, 21
1, 171175, Control_c, 0, 67, 23
1, 171190, Control_c, 0, 67, 24
1, 171205, Control_c, 0, 67, 26
1, 171220, Control_c, 0, 67, 27
1, 171234, Control_c, 0, 67, 29
1, 171249, Control_c, 0, 67, 31
1, 171262, Note_on_c, 0, 75, 69
1, 171264, Control_c, 0, 67, 32
1, 171279, Control_c, 0, 67, 34
1, 171293, Control_c, 0, 67, 35
1, 171294, Note_on_c, 0, 60, 36
1, 171298, Note_on_c, 0, 50, 37
1, 171300, Note_on_c, 0, 54, 41
1, 171308, Control_c, 0, 67, 36
1, 171309, Note_on_c, 0, 68, 44
1, 171323, Control_c, 0, 67, 37
1, 171345, Control_c, 0, 64, 117
1, 171345, Control_c, 0, 67, 38
1, 171360, Control_c, 0, 64, 95
1, 171360, Control_c, 0, 67, 39
1, 171375, Control_c, 0, 64, 81
1, 171375, Control_c, 0, 67, 40
1, 171390, Control_c, 0, 64, 70
1, 171390, Control_c, 0, 67, 40
1, 171405, Control_c, 0, 64, 60
1, 171405, Control_c, 0, 67, 41
1, 171419, Control_c, 0, 64, 19
1, 171419, Control_c, 0, 67, 41
1, 171434, Control_c, 0, 64, 0
1, 171449, Control_c, 0, 67, 42
1, 171464, Control_c, 0, 67, 42
1, 171473, Note_on_c, 0, 77, 67
1, 171479, Control_c, 0, 67, 43
1, 171480, Note_off_c, 0, 75, 62
1, 171493, Control_c, 0, 67, 44
1, 171508, Control_c, 0, 67, 45
1, 171523, Control_c, 0, 67, 45
1, 171538, Control_c, 0, 67, 46
1, 171567, Control_c, 0, 67, 46
1, 171582, Control_c, 0, 67, 47
1, 171597, Control_c, 0, 67, 47
1, 171611, Control_c, 0, 67, 48
1, 171626, Control_c, 0, 67, 48
1, 171641, Control_c, 0, 67, 49
1, 171656, Control_c, 0, 67, 50
1, 171671, Control_c, 0, 67, 52
1, 171674, Note_on_c, 0, 75, 65
1, 171685, Control_c, 0, 67, 54
1, 171696, Note_off_c, 0, 77, 56
1, 171700, Control_c, 0, 64, 63
1, 171700, Control_c, 0, 67, 56
1, 171715, Control_c, 0, 64, 75
1, 171715, Control_c, 0, 67, 58
1, 171730, Control_c, 0, 64, 89
1, 171730, Control_c, 0, 67, 60
1, 171740, Note_off_c, 0, 60, 63
1, 171745, Control_c, 0, 64, 127
1, 171745, Control_c, 0, 67, 62
1, 171759, Control_c, 0, 67, 64
1, 171766, Note_off_c, 0, 54, 49
1, 171771, Note_off_c, 0, 50, 63
1, 171774, Control_c, 0, 67, 66
1, 171779, Note_off_c, 0, 68, 61
1, 171789, Control_c, 0, 67, 68
1, 171804, Control_c, 0, 67, 68
1, 171816, Note_off_c, 0, 75, 62
1, 171819, Control_c, 0, 67, 69
1, 171983, Control_c, 0, 67, 68
1, 172013, Control_c, 0, 64, 107
1, 172028, Control_c, 0, 64, 82
1, 172042, Control_c, 0, 64, 65
1, 172043, Note_on_c, 0, 43, 55
1, 172054, Note_on_c, 0, 74, 60
1, 172057, Control_c, 0, 64, 29
1, 172062, Note_on_c, 0, 60, 49
1, 172066, Note_on_c, 0, 68, 45
1, 172072, Control_c, 0, 64, 31
1, 172094, Control_c, 0, 64, 53
1, 172109, Control_c, 0, 64, 65
1, 172109, Control_c, 0, 67, 69
1, 172123, Control_c, 0, 64, 71
1, 172123, Control_c, 0, 67, 70
1, 172132, Note_on_c, 0, 49, 62
1, 172137, Note_off_c, 0, 43, 61
1, 172138, Control_c, 0, 64, 79
1, 172138, Control_c, 0, 67, 73
1, 172153, Control_c, 0, 64, 90
1, 172153, Control_c, 0, 67, 78
1, 172168, Control_c, 0, 64, 106
1, 172168, Control_c, 0, 67, 82
1, 172183, Control_c, 0, 64, 127
1, 172183, Control_c, 0, 67, 86
1, 172192, Note_off_c, 0, 74, 64
1, 172198, Control_c, 0, 67, 89
1, 172209, Note_on_c, 0, 50, 66
1, 172212, Note_off_c, 0, 49, 61
1, 172212, Note_off_c, 0, 68, 62
1, 172212, Control_c, 0, 67, 92
1, 172227, Control_c, 0, 67, 96
1, 172242, Control_c, 0, 67, 101
1, 172253, Note_off_c, 0, 50, 65
1, 172257, Control_c, 0, 67, 109
1, 172272, Control_c, 0, 67, 119
1, 172287, Control_c, 0, 67, 127
1, 172296, Note_on_c, 0, 53, 66
1, 172405, Note_off_c, 0, 53, 57
1, 172420, Control_c, 0, 64, 100
1, 172424, Note_on_c, 0, 67, 60
1, 172434, Control_c, 0, 64, 81
1, 172438, Note_on_c, 0, 59, 51
1, 172439, Note_on_c, 0, 48, 50
1, 172449, Control_c, 0, 64, 67
1, 172451, Note_on_c, 0, 63, 45
1, 172464, Control_c, 0, 64, 0
1, 172534, Note_off_c, 0, 60, 40
1, 172568, Control_c, 0, 64, 27
1, 172582, Control_c, 0, 64, 67
1, 172597, Control_c, 0, 64, 77
1, 172602, Note_off_c, 0, 48, 64
1, 172612, Control_c, 0, 64, 90
1, 172623, Note_off_c, 0, 67, 58
1, 172627, Control_c, 0, 64, 107
1, 172642, Control_c, 0, 64, 127
1, 172664, Note_off_c, 0, 63, 61
1, 172843, Control_c, 0, 64, 121
1, 172853, Note_on_c, 0, 60, 59
1, 172858, Control_c, 0, 64, 101
1, 172865, Note_on_c, 0, 48, 46
1, 172872, Control_c, 0, 64, 83
1, 172879, Note_on_c, 0, 39, 37
1, 172887, Control_c, 0, 64, 70
1, 172902, Control_c, 0, 64, 55
1, 172917, Control_c, 0, 64, 0
1, 172979, Note_off_c, 0, 59, 46
1, 173054, Note_on_c, 0, 54, 51
1, 173102, Note_off_c, 0, 60, 62
1, 173275, Note_on_c, 0, 55, 55
1, 173392, Note_off_c, 0, 54, 63
1, 173420, Control_c, 0, 64, 61
1, 173435, Control_c, 0, 64, 70
1, 173450, Control_c, 0, 64, 78
1, 173460, Note_off_c, 0, 55, 63
1, 173464, Control_c, 0, 64, 85
1, 173467, Note_off_c, 0, 48, 60
1, 173479, Control_c, 0, 64, 92
1, 173494, Control_c, 0, 64, 96
1, 173503, Note_off_c, 0, 39, 50
1, 173510, Control_c, 0, 64, 98
1, 173607, Control_c, 0, 64, 96
1, 173621, Control_c, 0, 64, 91
1, 173636, Control_c, 0, 64, 82
1, 173651, Control_c, 0, 64, 74
1, 173658, Note_on_c, 0, 38, 41
1, 173659, Note_on_c, 0, 48, 38
1, 173661, Note_on_c, 0, 58, 51
1, 173666, Control_c, 0, 64, 68
1, 173679, Note_on_c, 0, 54, 49
1, 173681, Control_c, 0, 64, 64
1, 173695, Control_c, 0, 64, 58
1, 173710, Control_c, 0, 64, 43
1, 173725, Control_c, 0, 64, 0
1, 173727, Note_off_c, 0, 38, 56
1, 173750, Note_on_c, 0, 39, 50
1, 173806, Note_off_c, 0, 39, 59
1, 173825, Note_off_c, 0, 58, 59
1, 173837, Note_on_c, 0, 60, 53
1, 173840, Note_on_c, 0, 38, 55
1, 173913, Note_off_c, 0, 38, 61
1, 173935, Note_on_c, 0, 39, 44
1, 174007, Note_off_c, 0, 39, 55
1, 174049, Note_on_c, 0, 58, 51
1, 174049, Note_off_c, 0, 60, 53
1, 174049, Note_on_c, 0, 38, 45
1, 174110, Control_c, 0, 64, 62
1, 174125, Control_c, 0, 64, 70
1, 174131, Note_off_c, 0, 54, 62
1, 174140, Control_c, 0, 64, 79
1, 174154, Control_c, 0, 64, 89
1, 174169, Control_c, 0, 64, 100
1, 174171, Note_off_c, 0, 58, 62
1, 174184, Control_c, 0, 64, 111
1, 174199, Control_c, 0, 64, 127
1, 174210, Note_off_c, 0, 38, 42
1, 174213, Note_off_c, 0, 48, 40
1, 174385, Control_c, 0, 64, 109
1, 174400, Control_c, 0, 64, 89
1, 174415, Control_c, 0, 64, 71
1, 174430, Control_c, 0, 64, 38
1, 174441, Note_on_c, 0, 63, 49
1, 174444, Control_c, 0, 64, 0
1, 174453, Note_on_c, 0, 43, 40
1, 174454, Note_on_c, 0, 48, 36
1, 174460, Note_on_c, 0, 53, 38
1, 174465, Note_on_c, 0, 57, 36
1, 174504, Control_c, 0, 64, 47
1, 174508, Note_off_c, 0, 43, 61
1, 174518, Control_c, 0, 64, 65
1, 174526, Note_off_c, 0, 48, 58
1, 174533, Control_c, 0, 64, 72
1, 174548, Control_c, 0, 64, 79
1, 174563, Control_c, 0, 64, 87
1, 174578, Control_c, 0, 64, 92
1, 174592, Control_c, 0, 64, 94
1, 174623, Note_off_c, 0, 53, 46
1, 174624, Note_off_c, 0, 63, 51
1, 174652, Note_on_c, 0, 65, 44
1, 174770, Control_c, 0, 64, 92
1, 174785, Control_c, 0, 64, 90
1, 174800, Control_c, 0, 64, 83
1, 174815, Control_c, 0, 64, 73
1, 174830, Control_c, 0, 64, 63
1, 174831, Note_off_c, 0, 65, 51
1, 174836, Note_on_c, 0, 63, 57
1, 174836, Note_on_c, 0, 55, 45
1, 174844, Control_c, 0, 64, 0
1, 174848, Note_off_c, 0, 57, 53
1, 174899, Note_on_c, 0, 60, 54
1, 174907, Note_off_c, 0, 55, 53
1, 174922, Note_off_c, 0, 63, 61
1, 175001, Note_on_c, 0, 62, 50
1, 175003, Note_off_c, 0, 60, 56
1, 175092, Note_on_c, 0, 68, 45
1, 175098, Note_off_c, 0, 62, 50
1, 175133, Note_off_c, 0, 68, 49
1, 175202, Note_on_c, 0, 75, 52
1, 175215, Note_on_c, 0, 65, 38
1, 175311, Control_c, 0, 64, 41
1, 175326, Control_c, 0, 64, 67
1, 175340, Control_c, 0, 64, 79
1, 175355, Control_c, 0, 64, 95
1, 175369, Note_off_c, 0, 75, 60
1, 175370, Control_c, 0, 64, 127
1, 175622, Control_c, 0, 64, 107
1, 175637, Control_c, 0, 64, 81
1, 175643, Note_on_c, 0, 79, 53
1, 175651, Control_c, 0, 64, 65
1, 175652, Note_on_c, 0, 75, 48
1, 175655, Note_off_c, 0, 65, 46
1, 175666, Control_c, 0, 64, 40
1, 175681, Control_c, 0, 64, 51
1, 175696, Control_c, 0, 64, 63
1, 175711, Control_c, 0, 64, 70
1, 175723, Note_off_c, 0, 79, 60
1, 175726, Control_c, 0, 64, 79
1, 175740, Control_c, 0, 64, 93
1, 175753, Note_off_c, 0, 75, 61
1, 175755, Control_c, 0, 64, 127
1, 175992, Note_on_c, 0, 44, 53
1, 176061, Note_off_c, 0, 44, 62
1, 176070, Note_on_c, 0, 43, 60
1, 176081, Note_on_c, 0, 59, 56
1, 176089, Control_c, 0, 64, 110
1, 176104, Control_c, 0, 64, 92
1, 176112, Note_off_c, 0, 43, 64
1, 176119, Control_c, 0, 64, 80
1, 176123, Note_on_c, 0, 51, 15
1, 176134, Control_c, 0, 64, 71
1, 176149, Control_c, 0, 64, 63
1, 176163, Control_c, 0, 64, 50
1, 176178, Control_c, 0, 64, 35
1, 176193, Control_c, 0, 64, 0
1, 176313, Note_off_c, 0, 51, 47
1, 176430, Note_on_c, 0, 42, 49
1, 176481, Note_off_c, 0, 42, 54
1, 176606, Note_on_c, 0, 60, 44
1, 176632, Note_on_c, 0, 51, 41
1, 176632, Note_off_c, 0, 59, 39
1, 176639, Note_on_c, 0, 43, 33
1, 176640, Note_on_c, 0, 36, 39
1, 176731, Note_off_c, 0, 36, 56
1, 176734, Control_c, 0, 64, 65
1, 176749, Control_c, 0, 64, 75
1, 176764, Control_c, 0, 64, 92
1, 176775, Note_off_c, 0, 43, 49
1, 176778, Control_c, 0, 64, 127
1, 176783, Note_off_c, 0, 51, 63
1, 176821, Note_off_c, 0, 60, 63
1, 177010, Note_on_c, 0, 56, 46
1, 177213, Note_on_c, 0, 75, 61
1, 177227, Note_off_c, 0, 56, 48
1, 177255, Note_on_c, 0, 72, 57
1, 177264, Note_on_c, 0, 55, 44
1, 177279, Note_on_c, 0, 48, 48
1, 177309, Note_off_c, 0, 75, 62
1, 177311, Control_c, 0, 64, 98
1, 177334, Control_c, 0, 64, 86
1, 177349, Control_c, 0, 64, 83
1, 177378, Control_c, 0, 64, 85
1, 177393, Control_c, 0, 64, 91
1, 177408, Control_c, 0, 64, 103
1, 177423, Control_c, 0, 64, 127
1, 177444, Note_off_c, 0, 55, 55
1, 177459, Note_on_c, 0, 56, 52
1, 177597, Note_on_c, 0, 74, 66
1, 177604, Note_off_c, 0, 72, 58
1, 177623, Note_off_c, 0, 56, 48
1, 177628, Note_on_c, 0, 55, 47
1, 177632, Control_c, 0, 64, 99
1, 177633, Note_on_c, 0, 70, 58
1, 177647, Control_c, 0, 64, 78
1, 177661, Control_c, 0, 64, 65
1, 177676, Control_c, 0, 64, 60
1, 177691, Control_c, 0, 64, 65
1, 177706, Control_c, 0, 64, 70
1, 177721, Control_c, 0, 64, 77
1, 177735, Control_c, 0, 64, 87
1, 177750, Control_c, 0, 64, 105
1, 177765, Control_c, 0, 64, 127
1, 177800, Note_off_c, 0, 55, 55
1, 177814, Note_on_c, 0, 56, 55
1, 177942, Note_on_c, 0, 72, 63
1, 177972, Control_c, 0, 64, 93
1, 177975, Note_on_c, 0, 68, 65
1, 177981, Note_on_c, 0, 55, 49
1, 177986, Note_off_c, 0, 56, 46
1, 177986, Control_c, 0, 64, 69
1, 177995, Note_off_c, 0, 70, 59
1, 178001, Control_c, 0, 64, 43
1, 178016, Control_c, 0, 64, 51
1, 178019, Note_off_c, 0, 74, 43
1, 178031, Control_c, 0, 64, 63
1, 178046, Control_c, 0, 64, 70
1, 178061, Control_c, 0, 64, 79
1, 178083, Control_c, 0, 64, 97
1, 178098, Control_c, 0, 64, 127
1, 178175, Note_off_c, 0, 55, 58
1, 178188, Note_on_c, 0, 56, 57
1, 178304, Note_on_c, 0, 74, 73
1, 178321, Control_c, 0, 64, 93
1, 178335, Note_on_c, 0, 55, 53
1, 178336, Control_c, 0, 64, 69
1, 178341, Note_on_c, 0, 73, 5
1, 178345, Note_on_c, 0, 70, 66
1, 178349, Note_off_c, 0, 56, 49
1, 178350, Control_c, 0, 64, 0
1, 178362, Note_off_c, 0, 72, 52
1, 178366, Note_off_c, 0, 68, 51
1, 178395, Control_c, 0, 64, 57
1, 178400, Note_off_c, 0, 73, 25
1, 178410, Control_c, 0, 64, 69
1, 178418, Note_off_c, 0, 74, 62
1, 178425, Control_c, 0, 64, 82
1, 178440, Control_c, 0, 64, 114
1, 178454, Control_c, 0, 64, 127
1, 178511, Note_off_c, 0, 55, 57
1, 178521, Note_on_c, 0, 56, 55
1, 178645, Note_on_c, 0, 75, 73
1, 178662, Control_c, 0, 64, 101
1, 178671, Note_off_c, 0, 56, 58
1, 178676, Control_c, 0, 64, 73
1, 178681, Note_on_c, 0, 55, 55
1, 178691, Control_c, 0, 64, 0
1, 178695, Note_off_c, 0, 70, 62
1, 178696, Note_on_c, 0, 72, 75
1, 178750, Control_c, 0, 64, 40
1, 178765, Control_c, 0, 64, 66
1, 178780, Control_c, 0, 64, 77
1, 178786, Note_off_c, 0, 75, 59
1, 178794, Control_c, 0, 64, 98
1, 178809, Control_c, 0, 64, 127
1, 178844, Note_off_c, 0, 48, 63
1, 178850, Note_off_c, 0, 55, 56
1, 178863, Note_on_c, 0, 54, 58
1, 178909, Note_off_c, 0, 54, 53
1, 179009, Note_on_c, 0, 77, 74
1, 179039, Control_c, 0, 64, 78
1, 179040, Note_on_c, 0, 53, 57
1, 179041, Note_on_c, 0, 43, 60
1, 179045, Note_off_c, 0, 72, 60
1, 179051, Note_on_c, 0, 73, 78
1, 179054, Control_c, 0, 64, 0
1, 179091, Note_off_c, 0, 77, 60
1, 179129, Control_c, 0, 64, 55
1, 179144, Control_c, 0, 64, 74
1, 179159, Control_c, 0, 64, 94
1, 179174, Control_c, 0, 64, 127
1, 179228, Note_off_c, 0, 53, 60
1, 179232, Note_on_c, 0, 54, 57
1, 179384, Note_on_c, 0, 84, 97
1, 179391, Note_on_c, 0, 80, 87
1, 179396, Control_c, 0, 64, 102
1, 179401, Note_off_c, 0, 73, 43
1, 179408, Note_off_c, 0, 80, 73
1, 179411, Note_off_c, 0, 54, 57
1, 179411, Control_c, 0, 64, 70
1, 179411, Note_on_c, 0, 53, 67
1, 179417, Note_off_c, 0, 84, 68
1, 179425, Control_c, 0, 64, 0
1, 179580, Note_on_c, 0, 54, 60
1, 179580, Note_off_c, 0, 53, 62
1, 179718, Note_on_c, 0, 73, 73
1, 179755, Note_on_c, 0, 53, 55
1, 179758, Note_off_c, 0, 54, 60
1, 179767, Note_on_c, 0, 70, 64
1, 179773, Control_c, 0, 64, 57
1, 179788, Control_c, 0, 64, 65
1, 179803, Control_c, 0, 64, 70
1, 179818, Control_c, 0, 64, 74
1, 179832, Control_c, 0, 64, 78
1, 179847, Control_c, 0, 64, 83
1, 179860, Note_off_c, 0, 73, 57
1, 179862, Control_c, 0, 64, 88
1, 179877, Control_c, 0, 64, 93
1, 179892, Control_c, 0, 64, 96
1, 179908, Control_c, 0, 64, 98
1, 179949, Note_off_c, 0, 53, 60
1, 179953, Note_on_c, 0, 52, 58
1, 179996, Control_c, 0, 64, 95
1, 180011, Control_c, 0, 64, 91
1, 180026, Control_c, 0, 64, 85
1, 180041, Control_c, 0, 64, 78
1, 180055, Control_c, 0, 64, 70
1, 180070, Control_c, 0, 64, 63
1, 180085, Control_c, 0, 64, 44
1, 180100, Control_c, 0, 64, 0
1, 180113, Note_on_c, 0, 79, 87
1, 180113, Note_off_c, 0, 52, 62
1, 180115, Note_on_c, 0, 75, 82
1, 180121, Note_on_c, 0, 51, 70
1, 180130, Note_off_c, 0, 70, 65
1, 180136, Note_off_c, 0, 79, 61
1, 180137, Note_off_c, 0, 75, 67
1, 180295, Note_on_c, 0, 52, 60
1, 180299, Note_off_c, 0, 51, 52
1, 180436, Note_on_c, 0, 72, 75
1, 180479, Note_on_c, 0, 68, 89
1, 180485, Note_on_c, 0, 53, 66
1, 180487, Note_off_c, 0, 52, 61
1, 180567, Note_off_c, 0, 72, 61
1, 180667, Note_on_c, 0, 54, 67
1, 180675, Note_off_c, 0, 53, 58
1, 180717, Control_c, 0, 64, 55
1, 180732, Control_c, 0, 64, 65
1, 180746, Control_c, 0, 64, 70
1, 180761, Control_c, 0, 64, 73
1, 180776, Control_c, 0, 64, 77
1, 180791, Control_c, 0, 64, 79
1, 180805, Control_c, 0, 64, 82
1, 180820, Control_c, 0, 64, 84
1, 180833, Note_off_c, 0, 43, 55
1, 180835, Control_c, 0, 64, 84
1, 180845, Note_on_c, 0, 74, 81
1, 180853, Note_on_c, 0, 70, 75
1, 180864, Note_on_c, 0, 55, 66
1, 180864, Note_off_c, 0, 68, 62
1, 180865, Control_c, 0, 64, 83
1, 180875, Note_off_c, 0, 70, 69
1, 180879, Control_c, 0, 64, 78
1, 180881, Note_off_c, 0, 54, 58
1, 180881, Note_off_c, 0, 74, 65
1, 180894, Control_c, 0, 64, 69
1, 180909, Control_c, 0, 64, 53
1, 180924, Control_c, 0, 64, 0
1, 181035, Note_on_c, 0, 56, 60
1, 181051, Note_off_c, 0, 55, 49
1, 181236, Note_on_c, 0, 48, 43
1, 181238, Note_on_c, 0, 67, 53
1, 181239, Note_on_c, 0, 57, 49
1, 181256, Note_on_c, 0, 63, 48
1, 181256, Control_c, 0, 64, 31
1, 181271, Note_off_c, 0, 56, 52
1, 181271, Control_c, 0, 64, 53
1, 181286, Control_c, 0, 64, 62
1, 181301, Control_c, 0, 64, 66
1, 181316, Control_c, 0, 64, 69
1, 181330, Control_c, 0, 64, 73
1, 181345, Control_c, 0, 64, 76
1, 181360, Control_c, 0, 64, 78
1, 181375, Control_c, 0, 64, 80
1, 181390, Control_c, 0, 64, 80
1, 181422, Note_off_c, 0, 57, 59
1, 181423, Note_on_c, 0, 56, 57
1, 181462, Note_off_c, 0, 67, 57
1, 181472, Note_off_c, 0, 63, 60
1, 181478, Control_c, 0, 64, 79
1, 181494, Control_c, 0, 64, 78
1, 181509, Control_c, 0, 64, 76
1, 181524, Control_c, 0, 64, 73
1, 181539, Control_c, 0, 64, 69
1, 181554, Control_c, 0, 64, 64
1, 181568, Control_c, 0, 64, 57
1, 181583, Control_c, 0, 64, 19
1, 181586, Note_off_c, 0, 56, 57
1, 181588, Note_on_c, 0, 67, 63
1, 181598, Control_c, 0, 64, 0
1, 181602, Note_on_c, 0, 63, 55
1, 181603, Note_on_c, 0, 57, 54
1, 181662, Note_off_c, 0, 63, 60
1, 181664, Note_off_c, 0, 67, 60
1, 181677, Note_on_c, 0, 68, 65
1, 181679, Note_on_c, 0, 62, 63
1, 181735, Note_off_c, 0, 57, 60
1, 181736, Note_off_c, 0, 62, 54
1, 181736, Note_off_c, 0, 68, 58
1, 181739, Note_on_c, 0, 67, 64
1, 181748, Note_on_c, 0, 56, 60
1, 181775, Note_on_c, 0, 63, 51
1, 181805, Note_off_c, 0, 67, 60
1, 181820, Note_off_c, 0, 63, 60
1, 181844, Note_on_c, 0, 62, 64
1, 181847, Note_on_c, 0, 68, 64
1, 181900, Note_off_c, 0, 56, 61
1, 181915, Note_on_c, 0, 55, 56
1, 181920, Note_off_c, 0, 68, 58
1, 181930, Note_on_c, 0, 67, 71
1, 181933, Note_off_c, 0, 62, 57
1, 181953, Note_on_c, 0, 63, 43
1, 181990, Control_c, 0, 64, 40
1, 182005, Control_c, 0, 64, 65
1, 182020, Control_c, 0, 64, 74
1, 182035, Control_c, 0, 64, 83
1, 182049, Control_c, 0, 64, 94
1, 182063, Note_off_c, 0, 63, 61
1, 182064, Control_c, 0, 64, 103
1, 182067, Note_off_c, 0, 67, 62
1, 182079, Control_c, 0, 64, 111
1, 182094, Control_c, 0, 64, 115
1, 182095, Note_off_c, 0, 55, 60
1, 182109, Control_c, 0, 64, 120
1, 182113, Note_off_c, 0, 48, 62
1, 182120, Note_on_c, 0, 54, 55
1, 182124, Control_c, 0, 64, 127
1, 182282, Note_on_c, 0, 72, 76
1, 182303, Control_c, 0, 64, 113
1, 182304, Note_on_c, 0, 53, 63
1, 182312, Note_on_c, 0, 68, 82
1, 182317, Control_c, 0, 64, 99
1, 182321, Note_off_c, 0, 54, 48
1, 182332, Control_c, 0, 64, 85
1, 182347, Control_c, 0, 64, 73
1, 182362, Control_c, 0, 64, 61
1, 182367, Note_on_c, 0, 47, 45
1, 182376, Control_c, 0, 64, 0
1, 182446, Note_off_c, 0, 72, 61
1, 182496, Note_off_c, 0, 53, 65
1, 182504, Note_on_c, 0, 52, 65
1, 182662, Note_on_c, 0, 74, 74
1, 182696, Note_off_c, 0, 52, 57
1, 182702, Note_on_c, 0, 53, 58
1, 182704, Note_on_c, 0, 70, 74
1, 182754, Control_c, 0, 64, 60
1, 182765, Note_off_c, 0, 74, 62
1, 182768, Control_c, 0, 64, 67
1, 182783, Control_c, 0, 64, 72
1, 182797, Note_off_c, 0, 68, 54
1, 182798, Control_c, 0, 64, 77
1, 182813, Control_c, 0, 64, 83
1, 182823, Note_off_c, 0, 70, 64
1, 182828, Control_c, 0, 64, 87
1, 182842, Control_c, 0, 64, 91
1, 182848, Note_off_c, 0, 53, 62
1, 182857, Control_c, 0, 64, 93
1, 182863, Note_on_c, 0, 54, 60
1, 182962, Control_c, 0, 64, 93
1, 182976, Control_c, 0, 64, 89
1, 182991, Control_c, 0, 64, 83
1, 183006, Control_c, 0, 64, 74
1, 183021, Control_c, 0, 64, 65
1, 183036, Control_c, 0, 64, 0
1, 183036, Note_on_c, 0, 67, 67
1, 183042, Note_on_c, 0, 55, 57
1, 183048, Note_on_c, 0, 63, 51
1, 183053, Note_off_c, 0, 54, 60
1, 183098, Note_off_c, 0, 67, 61
1, 183103, Note_off_c, 0, 63, 59
1, 183120, Note_on_c, 0, 68, 71
1, 183126, Note_on_c, 0, 62, 63
1, 183189, Note_on_c, 0, 56, 68
1, 183189, Note_off_c, 0, 62, 52
1, 183190, Note_off_c, 0, 68, 58
1, 183199, Note_off_c, 0, 55, 55
1, 183203, Note_on_c, 0, 67, 73
1, 183227, Note_on_c, 0, 63, 44
1, 183251, Note_off_c, 0, 47, 47
1, 183259, Note_off_c, 0, 63, 59
1, 183263, Note_off_c, 0, 67, 60
1, 183275, Note_on_c, 0, 62, 75
1, 183278, Note_on_c, 0, 68, 73
1, 183394, Note_on_c, 0, 67, 73
1, 183415, Note_on_c, 0, 57, 50
1, 183424, Note_off_c, 0, 56, 53
1, 183426, Note_on_c, 0, 48, 48
1, 183427, Note_on_c, 0, 63, 57
1, 183430, Note_off_c, 0, 68, 57
1, 183431, Note_off_c, 0, 62, 53
1, 183533, Control_c, 0, 64, 39
1, 183547, Control_c, 0, 64, 63
1, 183562, Control_c, 0, 64, 68
1, 183577, Control_c, 0, 64, 72
1, 183591, Note_off_c, 0, 57, 59
1, 183591, Control_c, 0, 64, 75
1, 183606, Control_c, 0, 64, 77
1, 183615, Note_on_c, 0, 56, 55
1, 183621, Control_c, 0, 64, 77
1, 183629, Note_off_c, 0, 63, 61
1, 183725, Control_c, 0, 64, 76
1, 183740, Control_c, 0, 64, 75
1, 183754, Control_c, 0, 64, 71
1, 183759, Note_on_c, 0, 65, 63
1, 183769, Control_c, 0, 64, 65
1, 183783, Note_off_c, 0, 56, 52
1, 183784, Control_c, 0, 64, 57
1, 183785, Note_on_c, 0, 61, 70
1, 183788, Note_on_c, 0, 55, 51
1, 183799, Control_c, 0, 64, 23
1, 183814, Control_c, 0, 64, 0
1, 183842, Note_off_c, 0, 65, 55
1, 183948, Control_c, 0, 64, 51
1, 183963, Control_c, 0, 64, 63
1, 183964, Note_off_c, 0, 55, 58
1, 183978, Control_c, 0, 64, 65
1, 183983, Note_on_c, 0, 56, 58
1, 183993, Control_c, 0, 64, 67
1, 184008, Control_c, 0, 64, 68
1, 184052, Control_c, 0, 64, 69
1, 184074, Control_c, 0, 64, 70
1, 184089, Control_c, 0, 64, 72
1, 184103, Control_c, 0, 64, 73
1, 184118, Control_c, 0, 64, 73
1, 184125, Note_on_c, 0, 63, 70
1, 184133, Control_c, 0, 64, 74
1, 184144, Note_off_c, 0, 56, 59
1, 184145, Note_on_c, 0, 55, 59
1, 184148, Control_c, 0, 64, 75
1, 184151, Note_on_c, 0, 60, 82
1, 184163, Control_c, 0, 64, 75
1, 184169, Note_off_c, 0, 61, 58
1, 184178, Control_c, 0, 64, 76
1, 184208, Control_c, 0, 64, 77
1, 184222, Control_c, 0, 64, 77
1, 184224, Note_off_c, 0, 63, 60
1, 184237, Control_c, 0, 64, 78
1, 184252, Control_c, 0, 64, 79
1, 184267, Control_c, 0, 64, 80
1, 184282, Control_c, 0, 64, 81
1, 184297, Control_c, 0, 64, 82
1, 184312, Control_c, 0, 64, 83
1, 184327, Control_c, 0, 64, 84
1, 184328, Note_off_c, 0, 48, 63
1, 184332, Note_off_c, 0, 55, 55
1, 184336, Note_on_c, 0, 54, 59
1, 184341, Control_c, 0, 64, 86
1, 184356, Control_c, 0, 64, 87
1, 184371, Control_c, 0, 64, 88
1, 184467, Note_off_c, 0, 54, 63
1, 184488, Note_on_c, 0, 61, 74
1, 184519, Control_c, 0, 64, 86
1, 184527, Note_on_c, 0, 58, 76
1, 184534, Control_c, 0, 64, 83
1, 184539, Note_on_c, 0, 53, 48
1, 184548, Control_c, 0, 64, 77
1, 184550, Note_off_c, 0, 60, 59
1, 184554, Note_on_c, 0, 43, 47
1, 184563, Control_c, 0, 64, 66
1, 184578, Control_c, 0, 64, 40
1, 184593, Control_c, 0, 64, 0
1, 184637, Note_off_c, 0, 61, 54
1, 184741, Note_off_c, 0, 53, 59
1, 184747, Note_on_c, 0, 52, 47
1, 184915, Note_off_c, 0, 52, 57
1, 184921, Note_on_c, 0, 63, 55
1, 184951, Note_on_c, 0, 51, 41
1, 184956, Note_on_c, 0, 60, 52
1, 184985, Note_off_c, 0, 58, 60
1, 185039, Note_off_c, 0, 63, 58
1, 185144, Note_on_c, 0, 52, 44
1, 185150, Note_off_c, 0, 51, 45
1, 185288, Note_on_c, 0, 65, 55
1, 185309, Note_off_c, 0, 52, 61
1, 185325, Note_on_c, 0, 53, 44
1, 185331, Note_on_c, 0, 61, 56
1, 185356, Control_c, 0, 64, 50
1, 185370, Control_c, 0, 64, 64
1, 185373, Note_off_c, 0, 60, 35
1, 185385, Control_c, 0, 64, 68
1, 185400, Control_c, 0, 64, 71
1, 185415, Control_c, 0, 64, 75
1, 185424, Note_off_c, 0, 67, 55
1, 185430, Control_c, 0, 64, 77
1, 185432, Note_off_c, 0, 65, 62
1, 185445, Control_c, 0, 64, 79
1, 185460, Control_c, 0, 64, 81
1, 185474, Control_c, 0, 64, 83
1, 185482, Note_off_c, 0, 43, 35
1, 185490, Control_c, 0, 64, 84
1, 185505, Control_c, 0, 64, 86
1, 185520, Control_c, 0, 64, 86
1, 185530, Note_on_c, 0, 54, 48
1, 185534, Control_c, 0, 64, 87
1, 185540, Note_off_c, 0, 53, 39
1, 185549, Control_c, 0, 64, 87
1, 185572, Control_c, 0, 64, 88
1, 185746, Note_on_c, 0, 68, 56
1, 185764, Control_c, 0, 64, 85
1, 185777, Note_on_c, 0, 67, 57
1, 185779, Control_c, 0, 64, 79
1, 185787, Note_on_c, 0, 55, 42
1, 185792, Note_on_c, 0, 48, 44
1, 185793, Control_c, 0, 64, 70
1, 185803, Note_off_c, 0, 68, 63
1, 185808, Control_c, 0, 64, 60
1, 185809, Note_off_c, 0, 54, 49
1, 185823, Control_c, 0, 64, 0
1, 185910, Note_off_c, 0, 61, 54
1, 185993, Note_off_c, 0, 55, 55
1, 186011, Note_on_c, 0, 56, 49
1, 186165, Note_on_c, 0, 65, 57
1, 186196, Note_on_c, 0, 61, 57
1, 186200, Note_off_c, 0, 56, 53
1, 186209, Note_on_c, 0, 55, 46
1, 186252, Note_off_c, 0, 65, 56
1, 186336, Control_c, 0, 64, 38
1, 186350, Control_c, 0, 64, 53
1, 186365, Control_c, 0, 64, 61
1, 186380, Control_c, 0, 64, 63
1, 186390, Note_off_c, 0, 55, 57
1, 186395, Control_c, 0, 64, 65
1, 186403, Note_on_c, 0, 56, 53
1, 186410, Control_c, 0, 64, 67
1, 186424, Control_c, 0, 64, 68
1, 186439, Control_c, 0, 64, 69
1, 186454, Control_c, 0, 64, 70
1, 186469, Control_c, 0, 64, 71
1, 186484, Control_c, 0, 64, 71
1, 186498, Control_c, 0, 64, 72
1, 186513, Control_c, 0, 64, 72
1, 186528, Control_c, 0, 64, 73
1, 186542, Note_on_c, 0, 63, 69
1, 186542, Control_c, 0, 64, 74
1, 186557, Control_c, 0, 64, 74
1, 186563, Note_off_c, 0, 56, 56
1, 186564, Note_on_c, 0, 55, 49
1, 186564, Note_on_c, 0, 60, 66
1, 186572, Control_c, 0, 64, 75
1, 186587, Control_c, 0, 64, 76
1, 186593, Note_off_c, 0, 61, 61
1, 186602, Control_c, 0, 64, 77
1, 186616, Control_c, 0, 64, 79
1, 186625, Note_off_c, 0, 63, 62
1, 186631, Control_c, 0, 64, 81
1, 186646, Control_c, 0, 64, 83
1, 186661, Control_c, 0, 64, 84
1, 186676, Control_c, 0, 64, 86
1, 186691, Control_c, 0, 64, 88
1, 186706, Control_c, 0, 64, 89
1, 186720, Control_c, 0, 64, 91
1, 186723, Note_off_c, 0, 48, 62
1, 186730, Note_off_c, 0, 55, 52
1, 186735, Control_c, 0, 64, 92
1, 186745, Note_on_c, 0, 54, 55
1, 186750, Control_c, 0, 64, 93
1, 186765, Control_c, 0, 64, 94
1, 186780, Control_c, 0, 64, 95
1, 186795, Control_c, 0, 64, 95
1, 186896, Note_off_c, 0, 54, 35
1, 186918, Note_on_c, 0, 61, 62
1, 186950, Note_on_c, 0, 53, 48
1, 186957, Control_c, 0, 64, 94
1, 186971, Note_on_c, 0, 58, 56
1, 186972, Control_c, 0, 64, 91
1, 186979, Note_on_c, 0, 43, 43
1, 186987, Control_c, 0, 64, 86
1, 187002, Control_c, 0, 64, 78
1, 187016, Control_c, 0, 64, 70
1, 187024, Note_off_c, 0, 60, 42
1, 187031, Control_c, 0, 64, 61
1, 187046, Control_c, 0, 64, 43
1, 187065, Note_off_c, 0, 61, 55
1, 187069, Control_c, 0, 64, 0
1, 187183, Note_on_c, 0, 52, 46
1, 187213, Note_off_c, 0, 53, 39
1, 187349, Note_on_c, 0, 63, 46
1, 187357, Note_off_c, 0, 52, 57
1, 187378, Note_on_c, 0, 60, 47
1, 187403, Note_on_c, 0, 51, 32
1, 187433, Note_off_c, 0, 58, 56
1, 187479, Note_off_c, 0, 63, 60
1, 187597, Note_off_c, 0, 51, 48
1, 187604, Note_on_c, 0, 52, 35
1, 187788, Note_on_c, 0, 65, 46
1, 187847, Note_off_c, 0, 52, 54
1, 187853, Note_on_c, 0, 53, 35
1, 187854, Note_on_c, 0, 61, 44
1, 187892, Note_off_c, 0, 60, 34
1, 187969, Note_off_c, 0, 65, 54
1, 188090, Note_off_c, 0, 53, 48
1, 188108, Note_on_c, 0, 54, 39
1, 188142, Note_off_c, 0, 61, 60
1, 188143, Control_c, 0, 64, 41
1, 188158, Control_c, 0, 64, 61
1, 188173, Control_c, 0, 64, 66
1, 188187, Control_c, 0, 64, 69
1, 188202, Control_c, 0, 64, 72
1, 188217, Control_c, 0, 64, 75
1, 188232, Control_c, 0, 64, 77
1, 188247, Control_c, 0, 64, 79
1, 188262, Control_c, 0, 64, 81
1, 188277, Control_c, 0, 64, 83
1, 188291, Control_c, 0, 64, 84
1, 188306, Control_c, 0, 64, 86
1, 188321, Control_c, 0, 64, 87
1, 188336, Control_c, 0, 64, 88
1, 188351, Control_c, 0, 64, 88
1, 188413, Note_off_c, 0, 43, 34
1, 188513, Control_c, 0, 64, 88
1, 188522, Note_on_c, 0, 66, 43
1, 188527, Note_on_c, 0, 61, 39
1, 188528, Control_c, 0, 64, 87
1, 188533, Note_on_c, 0, 57, 33
1, 188543, Control_c, 0, 64, 86
1, 188566, Control_c, 0, 64, 85
1, 188581, Control_c, 0, 64, 83
1, 188583, Note_off_c, 0, 54, 35
1, 188595, Control_c, 0, 64, 80
1, 188610, Control_c, 0, 64, 76
1, 188625, Control_c, 0, 64, 70
1, 188640, Control_c, 0, 64, 64
1, 188655, Control_c, 0, 64, 53
1, 188669, Control_c, 0, 64, 27
1, 188685, Control_c, 0, 64, 0
1, 188696, Note_off_c, 0, 67, 56
1, 188806, Note_on_c, 0, 54, 45
1, 188989, Note_off_c, 0, 54, 58
1, 189010, Note_on_c, 0, 52, 45
1, 189176, Note_off_c, 0, 52, 55
1, 189187, Note_on_c, 0, 50, 47
1, 189359, Control_c, 0, 64, 14
1, 189373, Control_c, 0, 64, 52
1, 189376, Note_off_c, 0, 50, 57
1, 189379, Note_on_c, 0, 49, 53
1, 189388, Control_c, 0, 64, 62
1, 189396, Note_off_c, 0, 66, 62
1, 189403, Control_c, 0, 64, 66
1, 189418, Control_c, 0, 64, 69
1, 189420, Note_off_c, 0, 61, 55
1, 189433, Control_c, 0, 64, 71
1, 189448, Control_c, 0, 64, 72
1, 189455, Note_off_c, 0, 57, 62
1, 189462, Control_c, 0, 64, 73
1, 189542, Note_off_c, 0, 49, 62
1, 189562, Note_on_c, 0, 47, 50
1, 189627, Control_c, 0, 64, 73
1, 189641, Control_c, 0, 64, 72
1, 189656, Control_c, 0, 64, 72
1, 189671, Control_c, 0, 64, 71
1, 189686, Control_c, 0, 64, 69
1, 189701, Control_c, 0, 64, 67
1, 189715, Control_c, 0, 64, 66
1, 189730, Control_c, 0, 64, 65
1, 189740, Note_on_c, 0, 54, 50
1, 189745, Control_c, 0, 64, 63
1, 189758, Note_on_c, 0, 45, 43
1, 189759, Control_c, 0, 64, 61
1, 189766, Note_on_c, 0, 49, 48
1, 189774, Control_c, 0, 64, 57
1, 189789, Control_c, 0, 64, 47
1, 189804, Control_c, 0, 64, 27
1, 189819, Control_c, 0, 64, 0
1, 189922, Note_off_c, 0, 47, 42
1, 189946, Note_on_c, 0, 44, 46
1, 190114, Note_off_c, 0, 44, 59
1, 190128, Note_on_c, 0, 42, 44
1, 190296, Note_off_c, 0, 42, 62
1, 190313, Note_on_c, 0, 41, 48
1, 190506, Note_off_c, 0, 41, 48
1, 190508, Note_on_c, 0, 40, 42
1, 190677, Note_off_c, 0, 40, 54
1, 190691, Note_on_c, 0, 38, 42
1, 190938, Note_off_c, 0, 38, 50
1, 190959, Note_on_c, 0, 37, 39
1, 191420, Note_on_c, 0, 38, 38
1, 191427, Note_off_c, 0, 37, 44
1, 191998, Note_off_c, 0, 38, 42
1, 191999, Note_on_c, 0, 37, 38
1, 192080, Control_c, 0, 64, 17
1, 192095, Control_c, 0, 64, 45
1, 192110, Control_c, 0, 64, 59
1, 192125, Control_c, 0, 64, 64
1, 192140, Control_c, 0, 64, 67
1, 192154, Control_c, 0, 64, 69
1, 192169, Control_c, 0, 64, 71
1, 192184, Control_c, 0, 64, 73
1, 192199, Control_c, 0, 64, 76
1, 192214, Control_c, 0, 64, 79
1, 192228, Control_c, 0, 64, 81
1, 192243, Control_c, 0, 64, 83
1, 192250, Note_off_c, 0, 45, 43
1, 192258, Control_c, 0, 64, 85
1, 192272, Control_c, 0, 64, 86
1, 192287, Control_c, 0, 64, 88
1, 192310, Control_c, 0, 64, 90
1, 192325, Control_c, 0, 64, 91
1, 192339, Control_c, 0, 64, 91
1, 192348, Note_off_c, 0, 49, 55
1, 192354, Control_c, 0, 64, 92
1, 192384, Control_c, 0, 64, 92
1, 192399, Control_c, 0, 64, 93
1, 192414, Control_c, 0, 64, 94
1, 192428, Control_c, 0, 64, 95
1, 192443, Control_c, 0, 64, 96
1, 192458, Control_c, 0, 64, 97
1, 192473, Control_c, 0, 64, 97
1, 192487, Control_c, 0, 64, 98
1, 192502, Control_c, 0, 64, 98
1, 192517, Control_c, 0, 64, 99
1, 192532, Control_c, 0, 64, 99
1, 192547, Control_c, 0, 64, 100
1, 192681, Control_c, 0, 64, 100
1, 192898, Note_on_c, 0, 36, 33
1, 192910, Note_on_c, 0, 55, 35
1, 192933, Control_c, 0, 64, 99
1, 192935, Note_on_c, 0, 48, 29
1, 192938, Note_on_c, 0, 52, 34
1, 192948, Control_c, 0, 64, 96
1, 192962, Control_c, 0, 64, 91
1, 192977, Control_c, 0, 64, 82
1, 192991, Note_off_c, 0, 37, 45
1, 192992, Control_c, 0, 64, 71
1, 193007, Control_c, 0, 64, 57
1, 193022, Control_c, 0, 64, 0
1, 193046, Note_off_c, 0, 54, 35
1, 193162, Control_c, 0, 64, 61
1, 193177, Control_c, 0, 64, 69
1, 193192, Control_c, 0, 64, 78
1, 193207, Control_c, 0, 64, 100
1, 193222, Control_c, 0, 64, 127
1, 193270, Note_off_c, 0, 48, 53
1, 193300, Note_off_c, 0, 52, 51
1, 193323, Note_off_c, 0, 55, 57
1, 193612, Note_on_c, 0, 71, 45
1, 193692, Note_on_c, 0, 76, 46
1, 193734, Note_off_c, 0, 76, 62
1, 193770, Note_on_c, 0, 79, 54
1, 193832, Note_off_c, 0, 79, 58
1, 193860, Note_on_c, 0, 81, 60
1, 193889, Note_off_c, 0, 81, 61
1, 194000, Note_on_c, 0, 83, 63
1, 194037, Note_on_c, 0, 43, 37
1, 194313, Note_off_c, 0, 71, 43
1, 194576, Note_on_c, 0, 45, 41
1, 194587, Note_on_c, 0, 71, 40
1, 194890, Note_off_c, 0, 71, 34
1, 194960, Note_on_c, 0, 47, 45
1, 195036, Note_off_c, 0, 45, 45
1, 195109, Note_off_c, 0, 43, 37
1, 195130, Note_on_c, 0, 71, 57
1, 195133, Note_off_c, 0, 83, 43
1, 195177, Note_on_c, 0, 76, 56
1, 195231, Note_on_c, 0, 79, 54
1, 195255, Note_on_c, 0, 81, 70
1, 195268, Note_off_c, 0, 76, 60
1, 195270, Note_off_c, 0, 79, 52
1, 195326, Note_on_c, 0, 83, 75
1, 195332, Note_on_c, 0, 45, 52
1, 195340, Note_off_c, 0, 81, 59
1, 195361, Note_off_c, 0, 47, 35
1, 195380, Control_c, 0, 64, 98
1, 195395, Control_c, 0, 64, 77
1, 195410, Control_c, 0, 64, 65
1, 195425, Control_c, 0, 64, 59
1, 195439, Control_c, 0, 64, 60
1, 195453, Control_c, 0, 64, 64
1, 195468, Control_c, 0, 64, 68
1, 195483, Control_c, 0, 64, 74
1, 195497, Control_c, 0, 64, 84
1, 195512, Control_c, 0, 64, 98
1, 195527, Control_c, 0, 64, 114
1, 195542, Control_c, 0, 64, 127
1, 195571, Note_off_c, 0, 71, 62
1, 195684, Note_on_c, 0, 71, 73
1, 195687, Note_on_c, 0, 43, 54
1, 195815, Note_off_c, 0, 36, 39
1, 195821, Note_off_c, 0, 45, 32
1, 196057, Note_on_c, 0, 77, 69
1, 196065, Note_on_c, 0, 45, 56
1, 196079, Note_on_c, 0, 38, 45
1, 196122, Note_off_c, 0, 43, 61
1, 196128, Control_c, 0, 64, 95
1, 196143, Control_c, 0, 64, 75
1, 196158, Control_c, 0, 64, 51
1, 196166, Note_off_c, 0, 71, 58
1, 196173, Control_c, 0, 64, 0
1, 196192, Note_off_c, 0, 83, 60
1, 196247, Control_c, 0, 64, 57
1, 196262, Control_c, 0, 64, 68
1, 196276, Control_c, 0, 64, 77
1, 196291, Control_c, 0, 64, 89
1, 196306, Control_c, 0, 64, 105
1, 196321, Control_c, 0, 64, 127
1, 196438, Note_on_c, 0, 46, 57
1, 196443, Note_on_c, 0, 81, 56
1, 196468, Control_c, 0, 64, 92
1, 196483, Control_c, 0, 64, 72
1, 196498, Control_c, 0, 64, 41
1, 196506, Note_off_c, 0, 45, 56
1, 196513, Control_c, 0, 64, 0
1, 196557, Control_c, 0, 64, 21
1, 196572, Control_c, 0, 64, 63
1, 196578, Note_off_c, 0, 77, 58
1, 196587, Control_c, 0, 64, 72
1, 196602, Control_c, 0, 64, 83
1, 196617, Control_c, 0, 64, 103
1, 196632, Control_c, 0, 64, 127
1, 196818, Control_c, 0, 64, 104
1, 196822, Note_on_c, 0, 47, 51
1, 196832, Control_c, 0, 64, 81
1, 196835, Note_on_c, 0, 79, 49
1, 196847, Control_c, 0, 64, 65
1, 196857, Note_off_c, 0, 81, 48
1, 196862, Control_c, 0, 64, 36
1, 196876, Control_c, 0, 64, 28
1, 196891, Control_c, 0, 64, 47
1, 196906, Control_c, 0, 64, 61
1, 196921, Control_c, 0, 64, 68
1, 196937, Control_c, 0, 64, 78
1, 196951, Control_c, 0, 64, 93
1, 196964, Note_off_c, 0, 38, 41
1, 196966, Control_c, 0, 64, 127
1, 197024, Note_off_c, 0, 46, 34
1, 197041, Note_off_c, 0, 79, 60
1, 197200, Note_on_c, 0, 48, 56
1, 197219, Control_c, 0, 64, 97
1, 197228, Note_on_c, 0, 40, 38
1, 197233, Control_c, 0, 64, 74
1, 197248, Control_c, 0, 64, 49
1, 197263, Control_c, 0, 64, 0
1, 197329, Note_off_c, 0, 47, 62
1, 197337, Control_c, 0, 64, 56
1, 197351, Control_c, 0, 64, 69
1, 197366, Control_c, 0, 64, 81
1, 197381, Note_on_c, 0, 77, 65
1, 197381, Control_c, 0, 64, 104
1, 197396, Control_c, 0, 64, 127
1, 197433, Note_on_c, 0, 83, 65
1, 197472, Note_on_c, 0, 86, 67
1, 197492, Note_off_c, 0, 83, 64
1, 197501, Note_on_c, 0, 88, 85
1, 197503, Note_off_c, 0, 86, 65
1, 197553, Note_on_c, 0, 89, 89
1, 197553, Control_c, 0, 64, 114
1, 197560, Note_on_c, 0, 49, 59
1, 197568, Note_off_c, 0, 88, 66
1, 197568, Control_c, 0, 64, 84
1, 197582, Control_c, 0, 64, 57
1, 197592, Note_off_c, 0, 48, 55
1, 197597, Control_c, 0, 64, 0
1, 197671, Control_c, 0, 64, 49
1, 197686, Control_c, 0, 64, 70
1, 197700, Control_c, 0, 64, 82
1, 197715, Control_c, 0, 64, 99
1, 197730, Control_c, 0, 64, 127
1, 197797, Note_off_c, 0, 77, 59
1, 197923, Note_on_c, 0, 77, 80
1, 197929, Note_on_c, 0, 50, 56
1, 197967, Note_off_c, 0, 40, 41
1, 197983, Note_off_c, 0, 49, 60
1, 198075, Note_off_c, 0, 89, 62
1, 198323, Note_on_c, 0, 88, 77
1, 198370, Note_on_c, 0, 44, 45
1, 198373, Note_on_c, 0, 52, 40
1, 198435, Control_c, 0, 64, 111
1, 198450, Control_c, 0, 64, 85
1, 198465, Control_c, 0, 64, 67
1, 198470, Note_off_c, 0, 50, 38
1, 198479, Control_c, 0, 64, 0
1, 198492, Note_off_c, 0, 77, 59
1, 198568, Control_c, 0, 64, 52
1, 198583, Control_c, 0, 64, 68
1, 198597, Control_c, 0, 64, 79
1, 198612, Control_c, 0, 64, 95
1, 198627, Control_c, 0, 64, 127
1, 198756, Note_on_c, 0, 74, 55
1, 198772, Note_on_c, 0, 53, 45
1, 198844, Note_off_c, 0, 88, 59
1, 198867, Note_off_c, 0, 52, 59
1, 199133, Note_on_c, 0, 76, 57
1, 199146, Note_on_c, 0, 54, 45
1, 199256, Note_off_c, 0, 44, 35
1, 199258, Note_off_c, 0, 53, 38
1, 199356, Note_off_c, 0, 74, 43
1, 199404, Note_on_c, 0, 73, 53
1, 199476, Note_off_c, 0, 73, 60
1, 199490, Note_on_c, 0, 55, 49
1, 199491, Note_on_c, 0, 72, 56
1, 199503, Note_on_c, 0, 45, 45
1, 199509, Control_c, 0, 64, 120
1, 199521, Note_off_c, 0, 54, 60
1, 199524, Control_c, 0, 64, 92
1, 199538, Control_c, 0, 64, 74
1, 199553, Control_c, 0, 64, 58
1, 199568, Control_c, 0, 64, 0
1, 199658, Control_c, 0, 64, 62
1, 199672, Control_c, 0, 64, 72
1, 199687, Control_c, 0, 64, 83
1, 199702, Control_c, 0, 64, 100
1, 199717, Control_c, 0, 64, 127
1, 199825, Note_off_c, 0, 76, 52
1, 199890, Note_off_c, 0, 55, 51
1, 199932, Note_on_c, 0, 84, 57
1, 199948, Note_on_c, 0, 57, 40
1, 199962, Control_c, 0, 64, 107
1, 199976, Control_c, 0, 64, 81
1, 199991, Control_c, 0, 64, 66
1, 200006, Control_c, 0, 64, 61
1, 200021, Control_c, 0, 64, 65
1, 200036, Control_c, 0, 64, 68
1, 200050, Control_c, 0, 64, 74
1, 200065, Control_c, 0, 64, 80
1, 200080, Control_c, 0, 64, 89
1, 200094, Control_c, 0, 64, 103
1, 200109, Control_c, 0, 64, 127
1, 200189, Note_off_c, 0, 57, 37
1, 200364, Note_on_c, 0, 83, 68
1, 200391, Note_on_c, 0, 59, 40
1, 200427, Note_off_c, 0, 84, 64
1, 200467, Note_off_c, 0, 45, 43
1, 200597, Note_off_c, 0, 72, 43
1, 200718, Note_on_c, 0, 81, 76
1, 200725, Control_c, 0, 64, 86
1, 200740, Control_c, 0, 64, 67
1, 200744, Note_on_c, 0, 72, 47
1, 200755, Control_c, 0, 64, 0
1, 200758, Note_on_c, 0, 47, 40
1, 200782, Note_off_c, 0, 83, 64
1, 200784, Control_c, 0, 64, 50
1, 200799, Control_c, 0, 64, 64
1, 200814, Control_c, 0, 64, 71
1, 200829, Control_c, 0, 64, 79
1, 200833, Note_off_c, 0, 59, 37
1, 200844, Control_c, 0, 64, 91
1, 200859, Control_c, 0, 64, 105
1, 200873, Control_c, 0, 64, 120
1, 200888, Control_c, 0, 64, 127
1, 200907, Note_off_c, 0, 72, 54
1, 200949, Note_off_c, 0, 47, 40
1, 200985, Note_on_c, 0, 60, 54
1, 201093, Note_off_c, 0, 60, 60
1, 201101, Note_on_c, 0, 79, 73
1, 201108, Note_on_c, 0, 61, 53
1, 201121, Note_on_c, 0, 71, 53
1, 201166, Note_off_c, 0, 81, 62
1, 201184, Note_off_c, 0, 71, 58
1, 201317, Note_off_c, 0, 61, 57
1, 201324, Control_c, 0, 64, 124
1, 201339, Control_c, 0, 64, 120
1, 201345, Note_on_c, 0, 62, 51
1, 201354, Control_c, 0, 64, 116
1, 201369, Control_c, 0, 64, 111
1, 201384, Control_c, 0, 64, 99
1, 201398, Control_c, 0, 64, 87
1, 201413, Control_c, 0, 64, 74
1, 201428, Control_c, 0, 64, 63
1, 201443, Control_c, 0, 64, 0
1, 201461, Note_on_c, 0, 78, 65
1, 201476, Note_on_c, 0, 52, 44
1, 201492, Note_off_c, 0, 79, 55
1, 201494, Note_on_c, 0, 70, 43
1, 201661, Note_off_c, 0, 70, 56
1, 201708, Note_off_c, 0, 62, 58
1, 201733, Note_on_c, 0, 63, 56
1, 201817, Note_on_c, 0, 79, 66
1, 201839, Note_off_c, 0, 78, 59
1, 201840, Note_on_c, 0, 71, 50
1, 201840, Note_off_c, 0, 63, 62
1, 201844, Note_on_c, 0, 64, 63
1, 201844, Control_c, 0, 64, 43
1, 201859, Control_c, 0, 64, 70
1, 201871, Note_off_c, 0, 79, 62
1, 201873, Control_c, 0, 64, 82
1, 201888, Control_c, 0, 64, 103
1, 201893, Note_off_c, 0, 71, 61
1, 201903, Control_c, 0, 64, 127
1, 201905, Note_off_c, 0, 64, 51
1, 202004, Note_off_c, 0, 52, 53
1, 202100, Note_on_c, 0, 59, 64
1, 202130, Note_off_c, 0, 59, 65
1, 202136, Note_on_c, 0, 64, 65
1, 202162, Control_c, 0, 64, 106
1, 202168, Note_on_c, 0, 67, 69
1, 202176, Control_c, 0, 64, 80
1, 202177, Note_off_c, 0, 64, 62
1, 202185, Note_on_c, 0, 69, 70
1, 202191, Control_c, 0, 64, 50
1, 202192, Note_off_c, 0, 67, 67
1, 202206, Control_c, 0, 64, 0
1, 202222, Note_on_c, 0, 40, 55
1, 202227, Note_on_c, 0, 71, 78
1, 202227, Note_off_c, 0, 69, 64
1, 202466, Note_off_c, 0, 71, 61
1, 202470, Note_on_c, 0, 67, 62
1, 202497, Note_on_c, 0, 64, 69
1, 202505, Note_off_c, 0, 67, 62
1, 202522, Note_off_c, 0, 40, 60
1, 202537, Note_off_c, 0, 64, 64
1, 202540, Note_on_c, 0, 38, 44
1, 202547, Note_on_c, 0, 59, 70
1, 202814, Note_on_c, 0, 64, 42
1, 202828, Note_on_c, 0, 67, 59
1, 202842, Note_off_c, 0, 64, 59
1, 202856, Note_on_c, 0, 69, 69
1, 202856, Note_off_c, 0, 67, 65
1, 202881, Note_off_c, 0, 69, 68
1, 202892, Note_off_c, 0, 38, 49
1, 202893, Note_on_c, 0, 71, 69
1, 202899, Note_on_c, 0, 36, 46
1, 203068, Note_off_c, 0, 59, 44
1, 203134, Control_c, 0, 64, 27
1, 203149, Control_c, 0, 64, 61
1, 203164, Control_c, 0, 64, 68
1, 203179, Control_c, 0, 64, 73
1, 203193, Control_c, 0, 64, 80
1, 203208, Control_c, 0, 64, 86
1, 203223, Control_c, 0, 64, 93
1, 203238, Control_c, 0, 64, 101
1, 203253, Control_c, 0, 64, 113
1, 203267, Control_c, 0, 64, 127
1, 203282, Note_on_c, 0, 59, 59
1, 203282, Note_on_c, 0, 43, 48
1, 203306, Note_off_c, 0, 59, 63
1, 203323, Note_off_c, 0, 71, 65
1, 203542, Note_on_c, 0, 81, 70
1, 203572, Control_c, 0, 64, 102
1, 203586, Control_c, 0, 64, 73
1, 203600, Note_off_c, 0, 81, 63
1, 203601, Control_c, 0, 64, 0
1, 203601, Note_on_c, 0, 45, 52
1, 203613, Note_on_c, 0, 83, 66
1, 203640, Note_off_c, 0, 83, 64
1, 203659, Note_off_c, 0, 43, 37
1, 203684, Note_on_c, 0, 79, 72
1, 203712, Note_off_c, 0, 79, 63
1, 203749, Note_on_c, 0, 83, 74
1, 203804, Note_off_c, 0, 83, 62
1, 203819, Note_on_c, 0, 76, 64
1, 203853, Note_off_c, 0, 76, 62
1, 203868, Control_c, 0, 64, 57
1, 203883, Control_c, 0, 64, 68
1, 203885, Note_off_c, 0, 45, 61
1, 203897, Note_on_c, 0, 71, 67
1, 203898, Control_c, 0, 64, 74
1, 203908, Note_on_c, 0, 47, 56
1, 203913, Control_c, 0, 64, 82
1, 203921, Note_off_c, 0, 71, 71
1, 203928, Control_c, 0, 64, 91
1, 203942, Control_c, 0, 64, 96
1, 203957, Control_c, 0, 64, 101
1, 203972, Control_c, 0, 64, 103
1, 203987, Control_c, 0, 64, 106
1, 204002, Control_c, 0, 64, 109
1, 204016, Control_c, 0, 64, 112
1, 204031, Control_c, 0, 64, 113
1, 204119, Note_on_c, 0, 59, 65
1, 204144, Note_off_c, 0, 59, 65
1, 204153, Note_on_c, 0, 64, 71
1, 204165, Control_c, 0, 64, 112
1, 204180, Control_c, 0, 64, 104
1, 204183, Note_on_c, 0, 67, 68
1, 204195, Control_c, 0, 64, 91
1, 204198, Note_on_c, 0, 69, 81
1, 204201, Note_off_c, 0, 64, 64
1, 204208, Note_off_c, 0, 67, 66
1, 204209, Control_c, 0, 64, 77
1, 204224, Control_c, 0, 64, 63
1, 204233, Note_off_c, 0, 47, 61
1, 204239, Control_c, 0, 64, 0
1, 204242, Note_on_c, 0, 45, 54
1, 204244, Note_on_c, 0, 71, 75
1, 204248, Note_off_c, 0, 69, 65
1, 204498, Control_c, 0, 64, 26
1, 204513, Control_c, 0, 64, 37
1, 204528, Control_c, 0, 64, 48
1, 204542, Control_c, 0, 64, 55
1, 204557, Control_c, 0, 64, 60
1, 204572, Control_c, 0, 64, 63
1, 204586, Control_c, 0, 64, 65
1, 204601, Control_c, 0, 64, 67
1, 204616, Control_c, 0, 64, 69
1, 204631, Control_c, 0, 64, 72
1, 204640, Note_on_c, 0, 43, 49
1, 204642, Note_on_c, 0, 59, 63
1, 204646, Control_c, 0, 64, 75
1, 204662, Control_c, 0, 64, 79
1, 204677, Note_off_c, 0, 45, 60
1, 204677, Control_c, 0, 64, 84
1, 204691, Control_c, 0, 64, 90
1, 204706, Control_c, 0, 64, 98
1, 204721, Control_c, 0, 64, 107
1, 204736, Control_c, 0, 64, 124
1, 204740, Note_off_c, 0, 36, 40
1, 204751, Control_c, 0, 64, 127
1, 204958, Control_c, 0, 64, 108
1, 204972, Note_off_c, 0, 43, 61
1, 204973, Control_c, 0, 64, 80
1, 204987, Control_c, 0, 64, 57
1, 204993, Note_on_c, 0, 65, 69
1, 204996, Note_on_c, 0, 38, 52
1, 205002, Note_on_c, 0, 45, 50
1, 205002, Control_c, 0, 64, 0
1, 205069, Control_c, 0, 64, 58
1, 205072, Note_off_c, 0, 38, 61
1, 205083, Control_c, 0, 64, 68
1, 205092, Note_off_c, 0, 59, 54
1, 205098, Control_c, 0, 64, 80
1, 205108, Note_off_c, 0, 45, 64
1, 205113, Control_c, 0, 64, 95
1, 205128, Control_c, 0, 64, 120
1, 205143, Control_c, 0, 64, 127
1, 205256, Note_on_c, 0, 50, 63
1, 205296, Note_on_c, 0, 53, 72
1, 205323, Note_on_c, 0, 57, 76
1, 205356, Note_off_c, 0, 50, 62
1, 205382, Note_on_c, 0, 59, 76
1, 205384, Note_on_c, 0, 69, 72
1, 205390, Note_off_c, 0, 53, 63
1, 205432, Note_off_c, 0, 57, 59
1, 205494, Note_off_c, 0, 71, 55
1, 205574, Control_c, 0, 64, 104
1, 205588, Control_c, 0, 64, 89
1, 205603, Control_c, 0, 64, 77
1, 205618, Control_c, 0, 64, 68
1, 205632, Control_c, 0, 64, 60
1, 205633, Note_off_c, 0, 65, 57
1, 205647, Control_c, 0, 64, 54
1, 205662, Control_c, 0, 64, 53
1, 205677, Control_c, 0, 64, 51
1, 205692, Control_c, 0, 64, 45
1, 205706, Control_c, 0, 64, 29
1, 205721, Control_c, 0, 64, 0
1, 205759, Note_on_c, 0, 47, 66
1, 205791, Note_on_c, 0, 67, 56
1, 205829, Note_off_c, 0, 59, 54
1, 205859, Note_off_c, 0, 69, 60
1, 205951, Control_c, 0, 64, 58
1, 205966, Control_c, 0, 64, 67
1, 205980, Control_c, 0, 64, 74
1, 205995, Control_c, 0, 64, 81
1, 206010, Control_c, 0, 64, 90
1, 206025, Control_c, 0, 64, 97
1, 206040, Control_c, 0, 64, 104
1, 206055, Control_c, 0, 64, 110
1, 206068, Note_off_c, 0, 67, 62
1, 206070, Control_c, 0, 64, 118
1, 206084, Control_c, 0, 64, 127
1, 206137, Note_on_c, 0, 48, 63
1, 206165, Note_on_c, 0, 40, 51
1, 206293, Control_c, 0, 64, 124
1, 206308, Control_c, 0, 64, 112
1, 206313, Note_off_c, 0, 47, 60
1, 206323, Control_c, 0, 64, 99
1, 206337, Control_c, 0, 64, 87
1, 206343, Note_on_c, 0, 65, 62
1, 206352, Control_c, 0, 64, 76
1, 206367, Control_c, 0, 64, 66
1, 206382, Control_c, 0, 64, 48
1, 206387, Note_on_c, 0, 71, 69
1, 206397, Control_c, 0, 64, 0
1, 206414, Note_on_c, 0, 74, 81
1, 206445, Note_on_c, 0, 76, 84
1, 206453, Note_off_c, 0, 71, 63
1, 206473, Note_off_c, 0, 74, 67
1, 206479, Note_on_c, 0, 77, 94
1, 206493, Note_on_c, 0, 49, 62
1, 206533, Note_off_c, 0, 76, 63
1, 206542, Note_off_c, 0, 48, 60
1, 206641, Control_c, 0, 64, 42
1, 206656, Control_c, 0, 64, 65
1, 206670, Control_c, 0, 64, 73
1, 206685, Control_c, 0, 64, 81
1, 206700, Control_c, 0, 64, 89
1, 206715, Control_c, 0, 64, 96
1, 206729, Control_c, 0, 64, 101
1, 206735, Note_off_c, 0, 65, 53
1, 206744, Control_c, 0, 64, 106
1, 206759, Control_c, 0, 64, 114
1, 206774, Control_c, 0, 64, 127
1, 206909, Note_on_c, 0, 65, 77
1, 206924, Note_off_c, 0, 40, 56
1, 206925, Note_on_c, 0, 50, 53
1, 206973, Note_off_c, 0, 49, 60
1, 207058, Note_off_c, 0, 77, 60
1, 207234, Control_c, 0, 64, 114
1, 207249, Control_c, 0, 64, 85
1, 207263, Note_on_c, 0, 44, 54
1, 207264, Control_c, 0, 64, 64
1, 207282, Note_on_c, 0, 52, 52
1, 207282, Note_off_c, 0, 50, 51
1, 207283, Note_on_c, 0, 76, 85
1, 207286, Control_c, 0, 64, 0
1, 207354, Note_off_c, 0, 44, 63
1, 207360, Control_c, 0, 64, 53
1, 207373, Note_off_c, 0, 52, 63
1, 207375, Control_c, 0, 64, 73
1, 207390, Control_c, 0, 64, 91
1, 207394, Note_off_c, 0, 65, 59
1, 207405, Control_c, 0, 64, 127
1, 207539, Note_on_c, 0, 66, 68
1, 207598, Note_off_c, 0, 66, 62
1, 207602, Note_on_c, 0, 70, 84
1, 207615, Note_on_c, 0, 67, 38
1, 207645, Note_on_c, 0, 71, 88
1, 207646, Note_off_c, 0, 67, 54
1, 207661, Note_off_c, 0, 76, 55
1, 207667, Note_on_c, 0, 62, 70
1, 207670, Note_off_c, 0, 70, 63
1, 207771, Note_off_c, 0, 71, 58
1, 207988, Note_off_c, 0, 62, 59
1, 208003, Note_on_c, 0, 59, 33
1, 208005, Note_on_c, 0, 64, 83
1, 208061, Note_off_c, 0, 59, 63
1, 208282, Note_on_c, 0, 61, 70
1, 208346, Control_c, 0, 64, 109
1, 208361, Control_c, 0, 64, 79
1, 208376, Control_c, 0, 64, 55
1, 208383, Note_on_c, 0, 45, 77
1, 208383, Note_on_c, 0, 55, 75
1, 208386, Note_on_c, 0, 60, 77
1, 208390, Control_c, 0, 64, 0
1, 208392, Note_off_c, 0, 61, 62
1, 208441, Note_off_c, 0, 60, 66
1, 208449, Control_c, 0, 64, 58
1, 208454, Note_off_c, 0, 64, 64
1, 208464, Control_c, 0, 64, 70
1, 208479, Control_c, 0, 64, 83
1, 208494, Control_c, 0, 64, 109
1, 208508, Control_c, 0, 64, 127
1, 208627, Control_c, 0, 67, 126
1, 208642, Control_c, 0, 67, 125
1, 208657, Control_c, 0, 67, 123
1, 208660, Note_on_c, 0, 70, 66
1, 208672, Control_c, 0, 67, 121
1, 208684, Note_on_c, 0, 76, 73
1, 208687, Control_c, 0, 67, 119
1, 208702, Control_c, 0, 67, 118
1, 208710, Note_on_c, 0, 79, 74
1, 208717, Control_c, 0, 67, 116
1, 208727, Note_on_c, 0, 81, 86
1, 208731, Control_c, 0, 67, 116
1, 208734, Note_on_c, 0, 80, 55
1, 208740, Note_off_c, 0, 55, 57
1, 208746, Control_c, 0, 67, 116
1, 208749, Note_on_c, 0, 82, 95
1, 208755, Note_on_c, 0, 54, 74
1, 208784, Control_c, 0, 64, 85
1, 208784, Control_c, 0, 67, 117
1, 208794, Note_off_c, 0, 79, 56
1, 208796, Note_off_c, 0, 80, 37
1, 208799, Control_c, 0, 64, 44
1, 208813, Control_c, 0, 64, 0
1, 208822, Note_off_c, 0, 70, 59
1, 208854, Note_off_c, 0, 76, 59
1, 208899, Note_off_c, 0, 81, 51
1, 208917, Control_c, 0, 64, 33
1, 208917, Control_c, 0, 67, 116
1, 208931, Control_c, 0, 64, 64
1, 208946, Control_c, 0, 64, 72
1, 208946, Control_c, 0, 67, 116
1, 208961, Control_c, 0, 64, 80
1, 208961, Control_c, 0, 67, 115
1, 208976, Control_c, 0, 64, 90
1, 208976, Control_c, 0, 67, 115
1, 208991, Control_c, 0, 64, 104
1, 209006, Control_c, 0, 64, 127
1, 209006, Control_c, 0, 67, 114
1, 209021, Control_c, 0, 67, 113
1, 209036, Control_c, 0, 67, 111
1, 209050, Control_c, 0, 67, 109
1, 209065, Control_c, 0, 67, 109
1, 209080, Control_c, 0, 67, 108
1, 209124, Control_c, 0, 67, 109
1, 209162, Note_on_c, 0, 55, 73
1, 209162, Note_on_c, 0, 70, 92
1, 209183, Control_c, 0, 67, 108
1, 209198, Control_c, 0, 67, 108
1, 209204, Note_off_c, 0, 45, 62
1, 209213, Control_c, 0, 67, 107
1, 209231, Note_off_c, 0, 54, 63
1, 209243, Control_c, 0, 67, 106
1, 209257, Control_c, 0, 67, 105
1, 209272, Control_c, 0, 67, 104
1, 209287, Control_c, 0, 67, 102
1, 209302, Control_c, 0, 67, 102
1, 209307, Note_off_c, 0, 82, 60
1, 209331, Control_c, 0, 67, 101
1, 209435, Control_c, 0, 67, 102
1, 209466, Control_c, 0, 67, 102
1, 209480, Control_c, 0, 67, 103
1, 209495, Control_c, 0, 67, 103
1, 209533, Control_c, 0, 64, 92
1, 209545, Note_on_c, 0, 49, 68
1, 209548, Control_c, 0, 64, 69
1, 209551, Note_on_c, 0, 56, 67
1, 209553, Note_on_c, 0, 81, 95
1, 209562, Control_c, 0, 64, 0
1, 209562, Control_c, 0, 67, 104
1, 209602, Note_off_c, 0, 55, 49
1, 209621, Control_c, 0, 64, 44
1, 209636, Control_c, 0, 64, 64
1, 209651, Control_c, 0, 64, 76
1, 209655, Note_off_c, 0, 70, 61
1, 209667, Control_c, 0, 64, 92
1, 209671, Note_off_c, 0, 49, 63
1, 209681, Control_c, 0, 64, 127
1, 209697, Note_off_c, 0, 56, 62
1, 209741, Control_c, 0, 67, 104
1, 209755, Control_c, 0, 67, 105
1, 209844, Control_c, 0, 67, 104
1, 209851, Note_on_c, 0, 64, 65
1, 209873, Note_on_c, 0, 65, 76
1, 209884, Note_off_c, 0, 64, 62
1, 209888, Control_c, 0, 67, 104
1, 209903, Control_c, 0, 67, 103
1, 209906, Note_on_c, 0, 68, 87
1, 209908, Note_off_c, 0, 65, 63
1, 209918, Control_c, 0, 67, 103
1, 209933, Control_c, 0, 67, 102
1, 209942, Note_on_c, 0, 67, 86
1, 209944, Note_on_c, 0, 69, 89
1, 209946, Note_off_c, 0, 68, 65
1, 209955, Note_off_c, 0, 81, 56
1, 209963, Control_c, 0, 67, 102
1, 209977, Control_c, 0, 67, 101
1, 209992, Control_c, 0, 67, 100
1, 210007, Control_c, 0, 67, 100
1, 210007, Poly_aftertouch_c, 0, 79, 127
1, 210022, Control_c, 0, 67, 96
1, 210031, Poly_aftertouch_c, 0, 79, 0
1, 210037, Control_c, 0, 67, 91
1, 210052, Control_c, 0, 67, 85
1, 210067, Control_c, 0, 67, 81
1, 210081, Control_c, 0, 67, 77
1, 210096, Control_c, 0, 67, 75
1, 210111, Control_c, 0, 67, 73
1, 210126, Control_c, 0, 67, 71
1, 210141, Control_c, 0, 67, 69
1, 210155, Control_c, 0, 67, 68
1, 210191, Note_off_c, 0, 69, 56
1, 210315, Note_on_c, 0, 69, 87
1, 210327, Note_on_c, 0, 57, 56
1, 210431, Note_off_c, 0, 67, 55
1, 210489, Control_c, 0, 67, 69
1, 210518, Control_c, 0, 67, 69
1, 210563, Control_c, 0, 67, 70
1, 210584, Note_on_c, 0, 66, 74
1, 210651, Control_c, 0, 67, 70
1, 210687, Note_on_c, 0, 59, 70
1, 210687, Note_on_c, 0, 50, 66
1, 210690, Note_on_c, 0, 65, 74
1, 210692, Note_off_c, 0, 66, 59
1, 210711, Control_c, 0, 67, 70
1, 210731, Note_off_c, 0, 57, 62
1, 210741, Control_c, 0, 64, 112
1, 210741, Control_c, 0, 67, 69
1, 210756, Control_c, 0, 64, 84
1, 210770, Control_c, 0, 64, 65
1, 210770, Control_c, 0, 67, 69
1, 210785, Control_c, 0, 64, 0
1, 210785, Control_c, 0, 67, 68
1, 210800, Control_c, 0, 67, 68
1, 210815, Control_c, 0, 67, 67
1, 210829, Control_c, 0, 67, 67
1, 210844, Control_c, 0, 67, 66
1, 210859, Control_c, 0, 67, 66
1, 210874, Control_c, 0, 64, 51
1, 210874, Control_c, 0, 67, 64
1, 210889, Control_c, 0, 64, 71
1, 210889, Control_c, 0, 67, 61
1, 210903, Control_c, 0, 64, 86
1, 210903, Control_c, 0, 67, 58
1, 210918, Control_c, 0, 64, 119
1, 210918, Control_c, 0, 67, 55
1, 210933, Control_c, 0, 64, 127
1, 210933, Control_c, 0, 67, 53
1, 210947, Control_c, 0, 67, 52
1, 210962, Control_c, 0, 67, 51
1, 210977, Control_c, 0, 67, 50
1, 211095, Note_on_c, 0, 77, 97
1, 211116, Note_on_c, 0, 58, 71
1, 211119, Control_c, 0, 67, 51
1, 211129, Note_off_c, 0, 69, 63
1, 211134, Control_c, 0, 67, 51
1, 211148, Note_off_c, 0, 59, 59
1, 211149, Control_c, 0, 64, 88
1, 211149, Control_c, 0, 67, 52
1, 211164, Control_c, 0, 64, 67
1, 211164, Control_c, 0, 67, 53
1, 211179, Control_c, 0, 64, 0
1, 211179, Control_c, 0, 67, 54
1, 211194, Control_c, 0, 67, 55
1, 211208, Control_c, 0, 67, 55
1, 211223, Control_c, 0, 67, 56
1, 211252, Control_c, 0, 67, 56
1, 211267, Control_c, 0, 64, 66
1, 211282, Control_c, 0, 64, 77
1, 211297, Control_c, 0, 64, 92
1, 211312, Control_c, 0, 64, 119
1, 211326, Control_c, 0, 64, 127
1, 211466, Note_on_c, 0, 76, 94
1, 211486, Note_on_c, 0, 62, 72
1, 211498, Note_on_c, 0, 70, 74
1, 211510, Note_off_c, 0, 65, 61
1, 211518, Note_off_c, 0, 50, 38
1, 211532, Note_off_c, 0, 77, 65
1, 211563, Control_c, 0, 67, 57
1, 211608, Control_c, 0, 67, 57
1, 211671, Note_off_c, 0, 62, 58
1, 211706, Note_on_c, 0, 52, 71
1, 211790, Note_off_c, 0, 58, 60
1, 211838, Control_c, 0, 67, 58
1, 211861, Note_on_c, 0, 65, 87
1, 211863, Note_on_c, 0, 74, 88
1, 211868, Control_c, 0, 64, 109
1, 211868, Control_c, 0, 67, 58
1, 211882, Control_c, 0, 64, 82
1, 211882, Control_c, 0, 67, 59
1, 211897, Control_c, 0, 64, 62
1, 211897, Control_c, 0, 67, 59
1, 211912, Control_c, 0, 64, 0
1, 211925, Note_off_c, 0, 76, 63
1, 211957, Control_c, 0, 64, 26
1, 211972, Control_c, 0, 64, 64
1, 211987, Control_c, 0, 64, 76
1, 212001, Control_c, 0, 64, 95
1, 212016, Control_c, 0, 64, 127
1, 212142, Note_off_c, 0, 70, 61
1, 212166, Note_off_c, 0, 65, 58
1, 212223, Control_c, 0, 67, 60
1, 212243, Note_on_c, 0, 72, 84
1, 212247, Note_on_c, 0, 64, 71
1, 212253, Control_c, 0, 64, 110
1, 212253, Control_c, 0, 67, 60
1, 212254, Note_on_c, 0, 69, 77
1, 212268, Control_c, 0, 64, 79
1, 212282, Control_c, 0, 64, 58
1, 212282, Control_c, 0, 67, 61
1, 212297, Control_c, 0, 64, 0
1, 212297, Control_c, 0, 67, 61
1, 212309, Note_off_c, 0, 74, 61
1, 212312, Control_c, 0, 64, 24
1, 212327, Control_c, 0, 64, 63
1, 212341, Control_c, 0, 64, 71
1, 212356, Control_c, 0, 64, 84
1, 212371, Control_c, 0, 64, 110
1, 212386, Control_c, 0, 64, 127
1, 212542, Control_c, 0, 67, 62
1, 212571, Control_c, 0, 67, 62
1, 212601, Control_c, 0, 67, 63
1, 212616, Control_c, 0, 64, 100
1, 212616, Control_c, 0, 67, 64
1, 212621, Note_on_c, 0, 62, 67
1, 212621, Note_off_c, 0, 64, 60
1, 212622, Note_on_c, 0, 71, 82
1, 212628, Note_on_c, 0, 67, 74
1, 212630, Control_c, 0, 64, 74
1, 212630, Control_c, 0, 67, 64
1, 212634, Note_off_c, 0, 69, 62
1, 212646, Control_c, 0, 64, 0
1, 212646, Control_c, 0, 67, 65
1, 212652, Note_off_c, 0, 72, 64
1, 212660, Control_c, 0, 67, 66
1, 212720, Control_c, 0, 64, 57
1, 212735, Control_c, 0, 64, 70
1, 212750, Control_c, 0, 64, 82
1, 212765, Control_c, 0, 64, 105
1, 212779, Control_c, 0, 64, 127
1, 212853, Control_c, 0, 67, 66
1, 212868, Control_c, 0, 67, 67
1, 212912, Control_c, 0, 67, 67
1, 212942, Control_c, 0, 67, 68
1, 212957, Control_c, 0, 67, 68
1, 212971, Control_c, 0, 67, 70
1, 212986, Control_c, 0, 67, 72
1, 212994, Note_on_c, 0, 72, 78
1, 212996, Note_off_c, 0, 52, 52
1, 213001, Control_c, 0, 64, 86
1, 213001, Control_c, 0, 67, 73
1, 213002, Note_off_c, 0, 62, 57
1, 213003, Note_off_c, 0, 67, 59
1, 213003, Note_on_c, 0, 57, 52
1, 213004, Note_on_c, 0, 66, 72
1, 213005, Note_on_c, 0, 60, 59
1, 213016, Control_c, 0, 64, 64
1, 213016, Control_c, 0, 67, 73
1, 213030, Control_c, 0, 64, 0
1, 213045, Note_off_c, 0, 71, 56
1, 213090, Control_c, 0, 64, 40
1, 213104, Control_c, 0, 64, 65
1, 213119, Control_c, 0, 64, 75
1, 213134, Control_c, 0, 64, 89
1, 213149, Control_c, 0, 64, 127
1, 213149, Control_c, 0, 67, 73
1, 213164, Control_c, 0, 67, 72
1, 213349, Control_c, 0, 67, 73
1, 213376, Note_off_c, 0, 60, 59
1, 213379, Control_c, 0, 64, 90
1, 213379, Control_c, 0, 67, 73
1, 213394, Control_c, 0, 64, 68
1, 213397, Note_on_c, 0, 74, 72
1, 213399, Note_off_c, 0, 66, 61
1, 213400, Note_on_c, 0, 59, 50
1, 213406, Note_on_c, 0, 65, 52
1, 213409, Control_c, 0, 64, 0
1, 213432, Note_off_c, 0, 72, 59
1, 213483, Control_c, 0, 64, 56
1, 213498, Control_c, 0, 64, 67
1, 213513, Control_c, 0, 64, 74
1, 213528, Control_c, 0, 64, 83
1, 213543, Control_c, 0, 64, 92
1, 213558, Control_c, 0, 64, 100
1, 213572, Control_c, 0, 64, 104
1, 213587, Control_c, 0, 64, 107
1, 213602, Control_c, 0, 64, 109
1, 213617, Control_c, 0, 64, 110
1, 213691, Control_c, 0, 67, 74
1, 213720, Control_c, 0, 64, 109
1, 213735, Control_c, 0, 64, 97
1, 213750, Control_c, 0, 64, 76
1, 213763, Note_on_c, 0, 72, 64
1, 213765, Control_c, 0, 64, 47
1, 213772, Note_off_c, 0, 59, 54
1, 213777, Note_on_c, 0, 60, 50
1, 213778, Note_off_c, 0, 74, 47
1, 213779, Control_c, 0, 64, 0
1, 213780, Note_off_c, 0, 65, 58
1, 213784, Note_on_c, 0, 64, 53
1, 213839, Control_c, 0, 64, 50
1, 213853, Control_c, 0, 64, 66
1, 213868, Control_c, 0, 64, 74
1, 213868, Control_c, 0, 67, 74
1, 213883, Control_c, 0, 64, 85
1, 213898, Control_c, 0, 64, 97
1, 213913, Control_c, 0, 64, 108
1, 213927, Control_c, 0, 64, 112
1, 213942, Control_c, 0, 64, 113
1, 214098, Control_c, 0, 64, 112
1, 214098, Control_c, 0, 67, 75
1, 214113, Control_c, 0, 64, 103
1, 214113, Control_c, 0, 67, 75
1, 214127, Control_c, 0, 64, 88
1, 214127, Control_c, 0, 67, 76
1, 214142, Control_c, 0, 64, 75
1, 214142, Control_c, 0, 67, 79
1, 214143, Note_off_c, 0, 57, 52
1, 214151, Note_on_c, 0, 70, 60
1, 214157, Control_c, 0, 64, 63
1, 214157, Control_c, 0, 67, 83
1, 214160, Note_off_c, 0, 64, 55
1, 214160, Note_off_c, 0, 72, 58
1, 214160, Note_on_c, 0, 65, 50
1, 214161, Note_off_c, 0, 60, 56
1, 214162, Note_on_c, 0, 55, 46
1, 214163, Note_on_c, 0, 62, 44
1, 214172, Control_c, 0, 64, 0
1, 214172, Control_c, 0, 67, 87
1, 214187, Control_c, 0, 67, 90
1, 214201, Control_c, 0, 67, 93
1, 214216, Control_c, 0, 67, 95
1, 214231, Control_c, 0, 67, 98
1, 214247, Control_c, 0, 67, 100
1, 214262, Control_c, 0, 64, 21
1, 214262, Control_c, 0, 67, 101
1, 214276, Control_c, 0, 64, 41
1, 214276, Control_c, 0, 67, 102
1, 214291, Control_c, 0, 64, 49
1, 214291, Control_c, 0, 67, 103
1, 214306, Control_c, 0, 64, 52
1, 214306, Control_c, 0, 67, 104
1, 214321, Control_c, 0, 64, 54
1, 214321, Control_c, 0, 67, 104
1, 214336, Control_c, 0, 64, 55
1, 214336, Control_c, 0, 67, 105
1, 214350, Control_c, 0, 64, 56
1, 214350, Control_c, 0, 67, 105
1, 214365, Control_c, 0, 64, 57
1, 214365, Control_c, 0, 67, 106
1, 214395, Control_c, 0, 67, 106
1, 214418, Note_off_c, 0, 62, 61
1, 214423, Note_on_c, 0, 61, 63
1, 214425, Control_c, 0, 67, 107
1, 214440, Control_c, 0, 64, 56
1, 214440, Control_c, 0, 67, 107
1, 214455, Control_c, 0, 64, 54
1, 214455, Control_c, 0, 67, 109
1, 214469, Control_c, 0, 64, 50
1, 214469, Control_c, 0, 67, 111
1, 214484, Control_c, 0, 64, 42
1, 214484, Control_c, 0, 67, 113
1, 214499, Control_c, 0, 64, 14
1, 214499, Control_c, 0, 67, 114
1, 214514, Control_c, 0, 64, 0
1, 214514, Control_c, 0, 67, 116
1, 214523, Note_off_c, 0, 70, 63
1, 214529, Control_c, 0, 67, 117
1, 214538, Note_off_c, 0, 61, 58
1, 214538, Note_on_c, 0, 69, 58
1, 214543, Control_c, 0, 67, 118
1, 214555, Note_on_c, 0, 60, 50
1, 214558, Control_c, 0, 67, 119
1, 214565, Note_on_c, 0, 64, 48
1, 214573, Control_c, 0, 67, 120
1, 214586, Note_off_c, 0, 65, 53
1, 214587, Control_c, 0, 67, 121
1, 214647, Control_c, 0, 64, 19
1, 214661, Control_c, 0, 64, 61
1, 214676, Control_c, 0, 64, 68
1, 214691, Control_c, 0, 64, 77
1, 214706, Control_c, 0, 64, 86
1, 214721, Control_c, 0, 64, 97
1, 214735, Control_c, 0, 64, 108
1, 214735, Control_c, 0, 67, 120
1, 214750, Control_c, 0, 64, 124
1, 214773, Control_c, 0, 64, 127
1, 214776, Note_off_c, 0, 60, 59
1, 214906, Control_c, 0, 67, 121
1, 214931, Note_on_c, 0, 67, 59
1, 214936, Control_c, 0, 64, 97
1, 214944, Note_on_c, 0, 48, 55
1, 214944, Note_on_c, 0, 59, 50
1, 214950, Note_on_c, 0, 62, 51
1, 214950, Control_c, 0, 64, 76
1, 214950, Control_c, 0, 67, 121
1, 214965, Control_c, 0, 64, 57
1, 214976, Note_off_c, 0, 55, 53
1, 214980, Control_c, 0, 64, 0
1, 215003, Note_off_c, 0, 64, 46
1, 215005, Note_off_c, 0, 69, 52
1, 215039, Control_c, 0, 64, 59
1, 215055, Control_c, 0, 64, 69
1, 215070, Control_c, 0, 64, 81
1, 215070, Control_c, 0, 67, 121
1, 215085, Control_c, 0, 64, 96
1, 215090, Note_off_c, 0, 48, 60
1, 215099, Control_c, 0, 64, 115
1, 215114, Control_c, 0, 64, 127
1, 215114, Control_c, 0, 67, 120
1, 215263, Control_c, 0, 64, 117
1, 215278, Control_c, 0, 64, 96
1, 215290, Note_off_c, 0, 62, 58
1, 215292, Control_c, 0, 64, 79
1, 215303, Note_on_c, 0, 64, 57
1, 215307, Control_c, 0, 64, 64
1, 215310, Note_on_c, 0, 69, 57
1, 215319, Note_on_c, 0, 53, 43
1, 215322, Control_c, 0, 64, 0
1, 215323, Note_on_c, 0, 57, 52
1, 215327, Note_off_c, 0, 67, 54
1, 215337, Control_c, 0, 67, 121
1, 215348, Note_off_c, 0, 59, 37
1, 215352, Control_c, 0, 67, 121
1, 215396, Control_c, 0, 67, 122
1, 215425, Control_c, 0, 67, 122
1, 215455, Control_c, 0, 67, 123
1, 215470, Control_c, 0, 67, 126
1, 215484, Control_c, 0, 67, 127
1, 215577, Note_off_c, 0, 57, 61
1, 215578, Note_on_c, 0, 58, 69
1, 215656, Note_off_c, 0, 58, 62
1, 215671, Note_on_c, 0, 59, 70
1, 215676, Note_on_c, 0, 68, 66
1, 215676, Note_off_c, 0, 64, 65
1, 215680, Note_on_c, 0, 62, 59
1, 215697, Note_off_c, 0, 69, 52
1, 215933, Note_on_c, 0, 60, 82
1, 215955, Note_off_c, 0, 59, 57
1, 216035, Note_on_c, 0, 61, 78
1, 216038, Note_on_c, 0, 69, 78
1, 216051, Note_off_c, 0, 60, 63
1, 216056, Note_on_c, 0, 65, 69
1, 216056, Note_off_c, 0, 62, 59
1, 216091, Note_off_c, 0, 68, 61
1, 216279, Note_off_c, 0, 53, 55
1, 216288, Note_on_c, 0, 62, 73
1, 216297, Note_off_c, 0, 61, 63
1, 216340, Note_off_c, 0, 62, 60
1, 216422, Note_on_c, 0, 72, 66
1, 216430, Note_on_c, 0, 64, 51
1, 216442, Note_on_c, 0, 67, 57
1, 216463, Note_off_c, 0, 65, 57
1, 216463, Note_off_c, 0, 69, 59
1, 216594, Note_off_c, 0, 64, 57
1, 216654, Note_on_c, 0, 44, 63
1, 216709, Note_off_c, 0, 44, 61
1, 216714, Note_on_c, 0, 45, 57
1, 216744, Note_on_c, 0, 49, 68
1, 216749, Note_off_c, 0, 45, 63
1, 216793, Note_on_c, 0, 71, 63
1, 216805, Note_on_c, 0, 65, 55
1, 216807, Note_on_c, 0, 50, 53
1, 216814, Note_off_c, 0, 49, 63
1, 216816, Note_on_c, 0, 62, 51
1, 216831, Note_off_c, 0, 72, 55
1, 216846, Note_off_c, 0, 67, 56
1, 216863, Control_c, 0, 64, 60
1, 216878, Control_c, 0, 64, 69
1, 216893, Control_c, 0, 64, 77
1, 216908, Control_c, 0, 64, 87
1, 216923, Note_off_c, 0, 71, 63
1, 216923, Control_c, 0, 64, 99
1, 216938, Control_c, 0, 64, 109
1, 216945, Note_off_c, 0, 65, 61
1, 216953, Control_c, 0, 64, 123
1, 216968, Control_c, 0, 64, 127
1, 217153, Control_c, 0, 64, 109
1, 217162, Note_off_c, 0, 50, 55
1, 217167, Control_c, 0, 64, 85
1, 217182, Control_c, 0, 64, 67
1, 217196, Note_on_c, 0, 69, 52
1, 217197, Control_c, 0, 64, 0
1, 217199, Note_off_c, 0, 62, 47
1, 217203, Note_on_c, 0, 64, 40
1, 217209, Note_on_c, 0, 38, 49
1, 217212, Note_on_c, 0, 61, 40
1, 217257, Control_c, 0, 64, 58
1, 217271, Control_c, 0, 64, 68
1, 217286, Control_c, 0, 64, 74
1, 217301, Control_c, 0, 64, 80
1, 217315, Control_c, 0, 64, 85
1, 217330, Control_c, 0, 64, 88
1, 217345, Control_c, 0, 64, 90
1, 217362, Note_off_c, 0, 38, 42
1, 217398, Note_off_c, 0, 69, 53
1, 217437, Note_off_c, 0, 64, 56
1, 217472, Note_on_c, 0, 60, 47
1, 217472, Note_off_c, 0, 61, 52
1, 217494, Control_c, 0, 64, 89
1, 217509, Control_c, 0, 64, 88
1, 217524, Control_c, 0, 64, 85
1, 217539, Control_c, 0, 64, 79
1, 217554, Control_c, 0, 64, 72
1, 217568, Control_c, 0, 64, 65
1, 217583, Control_c, 0, 64, 59
1, 217598, Control_c, 0, 64, 43
1, 217612, Control_c, 0, 64, 0
1, 217629, Note_on_c, 0, 62, 38
1, 217630, Note_on_c, 0, 55, 41
1, 217630, Note_on_c, 0, 67, 50
1, 217635, Note_on_c, 0, 59, 45
1, 217666, Note_off_c, 0, 60, 33
1, 217690, Note_off_c, 0, 67, 56
1, 217704, Note_off_c, 0, 55, 63
1, 217710, Note_off_c, 0, 62, 61
1, 217725, Note_off_c, 0, 59, 60
1, 217985, Note_on_c, 0, 57, 64
1, 217992, Note_on_c, 0, 50, 58
1, 217999, Note_on_c, 0, 53, 49
1, 218002, Note_on_c, 0, 43, 52
1, 218014, Note_off_c, 0, 57, 65
1, 218022, Note_off_c, 0, 50, 66
1, 218026, Note_off_c, 0, 53, 58
1, 218029, Note_off_c, 0, 43, 59
1, 218389, Note_on_c, 0, 59, 57
1, 218407, Note_on_c, 0, 50, 45
1, 218413, Note_on_c, 0, 36, 44
1, 218419, Note_on_c, 0, 53, 45
1, 218547, Control_c, 0, 64, 28
1, 218562, Control_c, 0, 64, 50
1, 218576, Control_c, 0, 64, 60
1, 218591, Control_c, 0, 64, 64
1, 218606, Control_c, 0, 64, 66
1, 218621, Control_c, 0, 64, 68
1, 218636, Control_c, 0, 64, 70
1, 218650, Control_c, 0, 64, 72
1, 218665, Control_c, 0, 64, 75
1, 218680, Control_c, 0, 64, 77
1, 218695, Control_c, 0, 64, 81
1, 218710, Control_c, 0, 64, 84
1, 218724, Control_c, 0, 64, 88
1, 218739, Control_c, 0, 64, 92
1, 218754, Control_c, 0, 64, 97
1, 218768, Control_c, 0, 64, 101
1, 218770, Note_off_c, 0, 50, 51
1, 218777, Note_off_c, 0, 53, 56
1, 218783, Control_c, 0, 64, 106
1, 218798, Control_c, 0, 64, 110
1, 218798, Control_c, 0, 67, 126
1, 218813, Control_c, 0, 64, 116
1, 218813, Control_c, 0, 67, 123
1, 218828, Control_c, 0, 64, 127
1, 218828, Control_c, 0, 67, 120
1, 218843, Control_c, 0, 67, 117
1, 218858, Control_c, 0, 67, 112
1, 218873, Control_c, 0, 67, 107
1, 218887, Control_c, 0, 67, 102
1, 218902, Control_c, 0, 67, 96
1, 218917, Control_c, 0, 67, 91
1, 218932, Control_c, 0, 67, 86
1, 218947, Control_c, 0, 67, 82
1, 218961, Control_c, 0, 67, 79
1, 218976, Control_c, 0, 67, 77
1, 218991, Control_c, 0, 67, 76
1, 219006, Control_c, 0, 67, 74
1, 219021, Control_c, 0, 67, 74
1, 219036, Control_c, 0, 67, 73
1, 219051, Control_c, 0, 67, 72
1, 219116, Note_on_c, 0, 46, 68
1, 219116, Note_on_c, 0, 60, 68
1, 219118, Note_off_c, 0, 59, 60
1, 219122, Note_on_c, 0, 56, 70
1, 219123, Note_on_c, 0, 53, 62
1, 219126, Control_c, 0, 64, 102
1, 219126, Control_c, 0, 67, 73
1, 219131, Note_off_c, 0, 36, 40
1, 219140, Control_c, 0, 64, 77
1, 219140, Control_c, 0, 67, 74
1, 219141, Note_off_c, 0, 56, 65
1, 219141, Note_off_c, 0, 46, 64
1, 219141, Note_off_c, 0, 60, 67
1, 219144, Note_off_c, 0, 53, 65
1, 219155, Control_c, 0, 64, 0
1, 219170, Control_c, 0, 67, 75
1, 219199, Control_c, 0, 67, 74
1, 219214, Control_c, 0, 67, 73
1, 219244, Control_c, 0, 67, 73
1, 219311, Control_c, 0, 67, 74
1, 219326, Control_c, 0, 67, 76
1, 219340, Control_c, 0, 67, 77
1, 219355, Control_c, 0, 67, 80
1, 219370, Control_c, 0, 67, 82
1, 219384, Control_c, 0, 67, 84
1, 219400, Control_c, 0, 67, 86
1, 219415, Control_c, 0, 67, 90
1, 219430, Control_c, 0, 67, 96
1, 219445, Control_c, 0, 67, 102
1, 219460, Control_c, 0, 67, 108
1, 219474, Control_c, 0, 67, 113
1, 219489, Control_c, 0, 64, 31
1, 219489, Control_c, 0, 67, 117
1, 219504, Control_c, 0, 64, 50
1, 219504, Control_c, 0, 67, 119
1, 219519, Control_c, 0, 64, 58
1, 219519, Control_c, 0, 67, 121
1, 219534, Control_c, 0, 64, 62
1, 219534, Control_c, 0, 67, 122
1, 219548, Control_c, 0, 64, 64
1, 219548, Control_c, 0, 67, 123
1, 219558, Note_on_c, 0, 62, 49
1, 219562, Note_on_c, 0, 56, 41
1, 219563, Control_c, 0, 64, 67
1, 219563, Control_c, 0, 67, 124
1, 219567, Note_on_c, 0, 39, 36
1, 219570, Note_on_c, 0, 53, 40
1, 219578, Control_c, 0, 64, 69
1, 219578, Control_c, 0, 67, 125
1, 219592, Control_c, 0, 64, 71
1, 219607, Control_c, 0, 64, 73
1, 219622, Control_c, 0, 64, 76
1, 219637, Control_c, 0, 64, 78
1, 219652, Control_c, 0, 64, 80
1, 219666, Control_c, 0, 64, 83
1, 219681, Control_c, 0, 64, 87
1, 219696, Control_c, 0, 64, 92
1, 219710, Control_c, 0, 64, 97
1, 219725, Control_c, 0, 64, 103
1, 219740, Control_c, 0, 64, 108
1, 219740, Control_c, 0, 67, 124
1, 219755, Control_c, 0, 64, 116
1, 219770, Control_c, 0, 64, 127
1, 219770, Control_c, 0, 67, 124
1, 219785, Control_c, 0, 67, 123
1, 219814, Control_c, 0, 67, 123
1, 219860, Control_c, 0, 67, 122
1, 219889, Control_c, 0, 67, 122
1, 219904, Control_c, 0, 67, 121
1, 219919, Control_c, 0, 67, 120
1, 219934, Control_c, 0, 67, 119
1, 219949, Control_c, 0, 67, 118
1, 219964, Control_c, 0, 67, 117
1, 219978, Control_c, 0, 67, 117
1, 219993, Control_c, 0, 67, 116
1, 220015, Control_c, 0, 67, 115
1, 220023, Note_off_c, 0, 53, 64
1, 220030, Control_c, 0, 67, 114
1, 220044, Note_off_c, 0, 56, 63
1, 220045, Control_c, 0, 67, 113
1, 220060, Control_c, 0, 67, 112
1, 220075, Control_c, 0, 67, 110
1, 220089, Control_c, 0, 67, 108
1, 220104, Control_c, 0, 67, 106
1, 220119, Control_c, 0, 67, 103
1, 220133, Control_c, 0, 67, 101
1, 220148, Control_c, 0, 67, 98
1, 220163, Control_c, 0, 67, 95
1, 220178, Control_c, 0, 67, 93
1, 220193, Control_c, 0, 67, 90
1, 220208, Control_c, 0, 67, 87
1, 220223, Control_c, 0, 67, 83
1, 220231, Note_on_c, 0, 63, 81
1, 220233, Note_on_c, 0, 60, 84
1, 220234, Note_on_c, 0, 56, 82
1, 220236, Note_on_c, 0, 50, 81
1, 220238, Control_c, 0, 67, 77
1, 220249, Note_off_c, 0, 62, 61
1, 220253, Note_off_c, 0, 60, 72
1, 220253, Control_c, 0, 64, 94
1, 220253, Control_c, 0, 67, 66
1, 220257, Note_off_c, 0, 56, 70
1, 220262, Note_off_c, 0, 50, 69
1, 220268, Control_c, 0, 64, 71
1, 220268, Control_c, 0, 67, 58
1, 220271, Note_off_c, 0, 39, 44
1, 220272, Note_off_c, 0, 63, 61
1, 220282, Control_c, 0, 64, 0
1, 220282, Control_c, 0, 67, 53
1, 220297, Control_c, 0, 67, 52
1, 220371, Control_c, 0, 67, 53
1, 220386, Control_c, 0, 67, 54
1, 220401, Control_c, 0, 67, 56
1, 220415, Control_c, 0, 67, 56
1, 220430, Control_c, 0, 67, 57
1, 220445, Control_c, 0, 67, 58
1, 220460, Control_c, 0, 67, 58
1, 220475, Control_c, 0, 67, 59
1, 220489, Control_c, 0, 67, 60
1, 220504, Control_c, 0, 67, 61
1, 220519, Control_c, 0, 67, 62
1, 220533, Control_c, 0, 67, 62
1, 220548, Control_c, 0, 67, 64
1, 220563, Control_c, 0, 67, 65
1, 220578, Control_c, 0, 67, 66
1, 220593, Control_c, 0, 67, 67
1, 220607, Control_c, 0, 64, 50
1, 220607, Control_c, 0, 67, 68
1, 220615, Note_on_c, 0, 43, 52
1, 220622, Note_on_c, 0, 65, 67
1, 220622, Control_c, 0, 64, 62
1, 220622, Control_c, 0, 67, 69
1, 220629, Note_on_c, 0, 60, 57
1, 220634, Note_on_c, 0, 56, 58
1, 220638, Control_c, 0, 64, 66
1, 220638, Control_c, 0, 67, 70
1, 220653, Control_c, 0, 64, 69
1, 220653, Control_c, 0, 67, 71
1, 220668, Control_c, 0, 64, 73
1, 220668, Control_c, 0, 67, 72
1, 220683, Control_c, 0, 64, 77
1, 220698, Control_c, 0, 64, 81
1, 220712, Control_c, 0, 64, 87
1, 220712, Control_c, 0, 67, 71
1, 220727, Control_c, 0, 64, 94
1, 220742, Control_c, 0, 64, 103
1, 220742, Control_c, 0, 67, 70
1, 220764, Control_c, 0, 64, 112
1, 220779, Control_c, 0, 64, 119
1, 220794, Control_c, 0, 64, 120
1, 220897, Control_c, 0, 64, 119
1, 220911, Control_c, 0, 64, 107
1, 220926, Control_c, 0, 64, 91
1, 220941, Control_c, 0, 64, 74
1, 220941, Control_c, 0, 67, 71
1, 220956, Control_c, 0, 64, 43
1, 220971, Control_c, 0, 64, 0
1, 220983, Note_on_c, 0, 42, 85
1, 221003, Note_off_c, 0, 43, 62
1, 221119, Control_c, 0, 64, 29
1, 221119, Control_c, 0, 67, 70
1, 221134, Control_c, 0, 64, 63
1, 221134, Control_c, 0, 67, 69
1, 221147, Note_off_c, 0, 56, 58
1, 221149, Control_c, 0, 64, 69
1, 221149, Control_c, 0, 67, 68
1, 221150, Note_on_c, 0, 43, 90
1, 221163, Control_c, 0, 64, 78
1, 221163, Control_c, 0, 67, 67
1, 221165, Note_off_c, 0, 42, 64
1, 221178, Control_c, 0, 64, 88
1, 221178, Control_c, 0, 67, 66
1, 221193, Control_c, 0, 64, 100
1, 221193, Control_c, 0, 67, 65
1, 221208, Control_c, 0, 64, 112
1, 221208, Control_c, 0, 67, 63
1, 221223, Control_c, 0, 64, 127
1, 221223, Control_c, 0, 67, 62
1, 221227, Note_off_c, 0, 43, 65
1, 221237, Control_c, 0, 67, 61
1, 221252, Control_c, 0, 67, 59
1, 221267, Control_c, 0, 67, 56
1, 221282, Control_c, 0, 67, 54
1, 221297, Control_c, 0, 67, 50
1, 221311, Control_c, 0, 67, 45
1, 221326, Control_c, 0, 67, 40
1, 221339, Note_on_c, 0, 55, 99
1, 221341, Control_c, 0, 67, 32
1, 221356, Control_c, 0, 67, 26
1, 221368, Note_off_c, 0, 60, 52
1, 221371, Control_c, 0, 67, 20
1, 221384, Note_off_c, 0, 55, 68
1, 221385, Control_c, 0, 64, 122
1, 221385, Control_c, 0, 67, 14
1, 221400, Control_c, 0, 64, 84
1, 221400, Control_c, 0, 67, 10
1, 221415, Note_off_c, 0, 65, 57
1, 221415, Control_c, 0, 64, 60
1, 221415, Control_c, 0, 67, 8
1, 221431, Control_c, 0, 64, 0
1, 221490, Control_c, 0, 67, 9
1, 221513, Control_c, 0, 67, 11
1, 221528, Control_c, 0, 67, 12
1, 221542, Control_c, 0, 67, 13
1, 221557, Control_c, 0, 67, 14
1, 221572, Control_c, 0, 67, 14
1, 221675, Control_c, 0, 67, 14
1, 221702, Note_on_c, 0, 58, 85
1, 221704, Note_on_c, 0, 54, 80
1, 221705, Control_c, 0, 67, 13
1, 221708, Note_on_c, 0, 43, 75
1, 221710, Note_on_c, 0, 67, 79
1, 221720, Note_on_c, 0, 62, 66
1, 221720, Control_c, 0, 64, 49
1, 221720, Control_c, 0, 67, 13
1, 221729, Note_off_c, 0, 54, 70
1, 221734, Control_c, 0, 64, 66
1, 221738, Note_off_c, 0, 43, 66
1, 221749, Control_c, 0, 64, 73
1, 221749, Control_c, 0, 67, 12
1, 221764, Control_c, 0, 64, 78
1, 221794, Control_c, 0, 64, 74
1, 221809, Control_c, 0, 64, 68
1, 221824, Control_c, 0, 64, 57
1, 221834, Note_off_c, 0, 62, 60
1, 221839, Control_c, 0, 64, 30
1, 221851, Note_off_c, 0, 58, 59
1, 221853, Control_c, 0, 64, 0
1, 221869, Note_on_c, 0, 59, 76
1, 221907, Note_off_c, 0, 59, 58
1, 221996, Note_off_c, 0, 67, 37
1, 222051, Note_on_c, 0, 36, 81
1, 222056, Note_on_c, 0, 63, 79
1, 222061, Note_on_c, 0, 55, 80
1, 222065, Note_on_c, 0, 60, 61
1, 222090, Control_c, 0, 67, 11
1, 222104, Control_c, 0, 64, 64
1, 222104, Control_c, 0, 67, 11
1, 222119, Control_c, 0, 64, 77
1, 222119, Control_c, 0, 67, 10
1, 222134, Control_c, 0, 64, 95
1, 222134, Control_c, 0, 67, 9
1, 222146, Note_off_c, 0, 55, 60
1, 222149, Control_c, 0, 64, 127
1, 222149, Control_c, 0, 67, 8
1, 222160, Note_off_c, 0, 60, 63
1, 222164, Control_c, 0, 67, 0
1, 222208, Note_off_c, 0, 63, 58
1, 222210, Note_off_c, 0, 36, 56
1, 222217, Note_on_c, 0, 48, 81
1, 222258, Note_off_c, 0, 48, 65
1, 222405, Note_on_c, 0, 55, 90
1, 222405, Note_on_c, 0, 69, 85
1, 222407, Note_on_c, 0, 62, 80
1, 222408, Note_on_c, 0, 43, 87
1, 222410, Note_on_c, 0, 65, 78
1, 222424, Note_off_c, 0, 55, 73
1, 222425, Control_c, 0, 64, 98
1, 222438, Note_off_c, 0, 43, 68
1, 222440, Control_c, 0, 64, 68
1, 222445, Note_off_c, 0, 62, 61
1, 222451, Note_off_c, 0, 65, 63
1, 222453, Note_off_c, 0, 69, 65
1, 222455, Control_c, 0, 64, 0
1, 222730, Note_on_c, 0, 48, 87
1, 222730, Note_on_c, 0, 36, 85
1, 222735, Note_on_c, 0, 62, 86
1, 222736, Note_on_c, 0, 65, 85
1, 222737, Note_on_c, 0, 71, 94
1, 222766, Control_c, 0, 64, 53
1, 222780, Control_c, 0, 64, 71
1, 222795, Control_c, 0, 64, 81
1, 222810, Control_c, 0, 64, 95
1, 222815, Note_off_c, 0, 65, 62
1, 222818, Note_on_c, 0, 61, 86
1, 222822, Note_off_c, 0, 62, 62
1, 222825, Control_c, 0, 64, 109
1, 222840, Control_c, 0, 64, 116
1, 222908, Note_on_c, 0, 65, 82
1, 222916, Note_off_c, 0, 61, 62
1, 222919, Note_on_c, 0, 62, 70
1, 222995, Note_off_c, 0, 65, 59
1, 223007, Note_on_c, 0, 61, 83
1, 223007, Note_off_c, 0, 36, 57
1, 223012, Note_off_c, 0, 62, 61
1, 223040, Control_c, 0, 64, 116
1, 223041, Note_off_c, 0, 48, 59
1, 223055, Control_c, 0, 64, 108
1, 223070, Control_c, 0, 64, 91
1, 223083, Note_on_c, 0, 47, 92
1, 223085, Control_c, 0, 64, 78
1, 223093, Note_on_c, 0, 65, 82
1, 223100, Control_c, 0, 64, 68
1, 223113, Note_on_c, 0, 62, 57
1, 223114, Control_c, 0, 64, 63
1, 223135, Note_off_c, 0, 61, 59
1, 223144, Note_off_c, 0, 62, 64
1, 223144, Control_c, 0, 64, 64
1, 223150, Note_off_c, 0, 65, 64
1, 223159, Control_c, 0, 64, 65
1, 223169, Note_off_c, 0, 47, 61
1, 223185, Note_on_c, 0, 48, 88
1, 223189, Control_c, 0, 64, 65
1, 223204, Control_c, 0, 64, 64
1, 223219, Control_c, 0, 64, 62
1, 223233, Control_c, 0, 64, 61
1, 223248, Control_c, 0, 64, 59
1, 223263, Control_c, 0, 64, 55
1, 223278, Control_c, 0, 64, 47
1, 223284, Note_on_c, 0, 47, 92
1, 223293, Control_c, 0, 64, 38
1, 223303, Note_off_c, 0, 48, 61
1, 223307, Control_c, 0, 64, 34
1, 223322, Control_c, 0, 64, 30
1, 223337, Control_c, 0, 64, 26
1, 223352, Control_c, 0, 64, 14
1, 223366, Control_c, 0, 64, 0
1, 223385, Note_off_c, 0, 47, 58
1, 223399, Note_on_c, 0, 46, 98
1, 223406, Note_on_c, 0, 72, 99
1, 223412, Note_on_c, 0, 68, 94
1, 223414, Note_on_c, 0, 65, 93
1, 223427, Note_off_c, 0, 71, 65
1, 223438, Note_off_c, 0, 65, 65
1, 223445, Note_off_c, 0, 46, 65
1, 223450, Note_off_c, 0, 68, 66
1, 223452, Note_off_c, 0, 72, 69
1, 223733, Note_on_c, 0, 39, 89
1, 223744, Note_on_c, 0, 74, 100
1, 223746, Note_on_c, 0, 65, 91
1, 223746, Note_on_c, 0, 68, 95
1, 223773, Control_c, 0, 64, 60
1, 223788, Control_c, 0, 64, 68
1, 223792, Note_off_c, 0, 65, 61
1, 223803, Control_c, 0, 64, 75
1, 223818, Control_c, 0, 64, 82
1, 223824, Note_off_c, 0, 68, 58
1, 223834, Control_c, 0, 64, 86
1, 223836, Note_on_c, 0, 64, 80
1, 223849, Control_c, 0, 64, 87
1, 223916, Note_on_c, 0, 68, 85
1, 223925, Note_off_c, 0, 64, 64
1, 223930, Note_on_c, 0, 65, 64
1, 223937, Control_c, 0, 64, 87
1, 223952, Control_c, 0, 64, 86
1, 223958, Note_off_c, 0, 39, 59
1, 223958, Note_off_c, 0, 65, 64
1, 223967, Control_c, 0, 64, 85
1, 223982, Control_c, 0, 64, 83
1, 223985, Note_off_c, 0, 68, 59
1, 223997, Note_on_c, 0, 64, 80
1, 223997, Control_c, 0, 64, 76
1, 224012, Control_c, 0, 64, 65
1, 224026, Control_c, 0, 64, 0
1, 224068, Note_on_c, 0, 39, 84
1, 224078, Note_on_c, 0, 68, 86
1, 224086, Note_on_c, 0, 65, 73
1, 224119, Note_off_c, 0, 64, 63
1, 224126, Note_off_c, 0, 65, 62
1, 224145, Control_c, 0, 64, 61
1, 224157, Note_off_c, 0, 68, 63
1, 224160, Control_c, 0, 64, 71
1, 224172, Note_on_c, 0, 40, 85
1, 224173, Note_off_c, 0, 39, 60
1, 224175, Control_c, 0, 64, 80
1, 224189, Control_c, 0, 64, 92
1, 224204, Control_c, 0, 64, 101
1, 224219, Control_c, 0, 64, 103
1, 224249, Control_c, 0, 64, 104
1, 224263, Control_c, 0, 64, 104
1, 224270, Note_on_c, 0, 39, 86
1, 224278, Control_c, 0, 64, 105
1, 224293, Control_c, 0, 64, 107
1, 224298, Note_off_c, 0, 40, 60
1, 224307, Control_c, 0, 64, 108
1, 224322, Control_c, 0, 64, 110
1, 224337, Control_c, 0, 64, 111
1, 224352, Control_c, 0, 64, 112
1, 224365, Note_off_c, 0, 39, 61
1, 224367, Control_c, 0, 64, 113
1, 224381, Control_c, 0, 64, 113
1, 224395, Note_on_c, 0, 75, 94
1, 224396, Control_c, 0, 64, 114
1, 224397, Note_off_c, 0, 74, 59
1, 224399, Note_on_c, 0, 38, 97
1, 224404, Note_on_c, 0, 68, 90
1, 224405, Note_on_c, 0, 72, 83
1, 224411, Control_c, 0, 64, 114
1, 224426, Control_c, 0, 64, 112
1, 224427, Note_off_c, 0, 72, 68
1, 224431, Note_off_c, 0, 68, 64
1, 224433, Note_off_c, 0, 38, 69
1, 224441, Control_c, 0, 64, 93
1, 224447, Note_off_c, 0, 75, 68
1, 224456, Control_c, 0, 64, 71
1, 224471, Control_c, 0, 64, 0
1, 224748, Note_on_c, 0, 43, 95
1, 224751, Note_on_c, 0, 31, 95
1, 224752, Note_on_c, 0, 68, 90
1, 224752, Note_on_c, 0, 72, 91
1, 224754, Note_on_c, 0, 77, 96
1, 224828, Note_off_c, 0, 72, 59
1, 224830, Note_on_c, 0, 67, 84
1, 224834, Note_off_c, 0, 68, 59
1, 224915, Note_on_c, 0, 72, 84
1, 224926, Note_off_c, 0, 67, 62
1, 224934, Note_on_c, 0, 68, 67
1, 224988, Note_on_c, 0, 67, 80
1, 224990, Note_off_c, 0, 72, 63
1, 224996, Note_off_c, 0, 68, 61
1, 225079, Note_on_c, 0, 68, 90
1, 225082, Note_on_c, 0, 72, 88
1, 225100, Control_c, 0, 64, 70
1, 225106, Note_off_c, 0, 67, 63
1, 225115, Control_c, 0, 64, 127
1, 225136, Note_off_c, 0, 77, 60
1, 225138, Note_off_c, 0, 68, 63
1, 225144, Note_off_c, 0, 72, 67
1, 225150, Note_off_c, 0, 43, 64
1, 225162, Note_off_c, 0, 31, 61
1, 225219, Control_c, 0, 64, 120
1, 225234, Control_c, 0, 64, 77
1, 225256, Control_c, 0, 64, 0
1, 225425, Note_on_c, 0, 30, 106
1, 225427, Note_on_c, 0, 42, 106
1, 225428, Note_on_c, 0, 78, 109
1, 225433, Note_on_c, 0, 69, 97
1, 225434, Note_on_c, 0, 73, 106
1, 225434, Control_c, 0, 64, 62
1, 225449, Control_c, 0, 64, 127
1, 225464, Note_off_c, 0, 42, 66
1, 225465, Note_off_c, 0, 69, 62
1, 225466, Note_on_c, 0, 29, 39
1, 225466, Note_off_c, 0, 30, 65
1, 225479, Note_off_c, 0, 73, 62
1, 225505, Note_off_c, 0, 78, 58
1, 225514, Note_off_c, 0, 29, 51
1, 225553, Control_c, 0, 64, 114
1, 225568, Control_c, 0, 64, 74
1, 225583, Control_c, 0, 64, 0
1, 225763, Note_on_c, 0, 37, 97
1, 225763, Note_on_c, 0, 49, 103
1, 225767, Note_on_c, 0, 79, 101
1, 225769, Note_on_c, 0, 70, 98
1, 225773, Note_on_c, 0, 75, 95
1, 225775, Control_c, 0, 64, 71
1, 225777, Note_on_c, 0, 36, 89
1, 225790, Control_c, 0, 64, 127
1, 225793, Note_on_c, 0, 78, 58
1, 225798, Note_off_c, 0, 49, 66
1, 225803, Note_off_c, 0, 37, 68
1, 225807, Note_off_c, 0, 36, 65
1, 225820, Note_off_c, 0, 70, 62
1, 225821, Note_off_c, 0, 78, 35
1, 225852, Note_off_c, 0, 79, 61
1, 225862, Note_off_c, 0, 75, 60
1, 225879, Control_c, 0, 64, 97
1, 225894, Control_c, 0, 64, 62
1, 225908, Control_c, 0, 64, 0
1, 226095, Note_on_c, 0, 59, 94
1, 226099, Note_on_c, 0, 47, 87
1, 226102, Note_on_c, 0, 80, 92
1, 226104, Note_on_c, 0, 76, 93
1, 226106, Note_on_c, 0, 73, 97
1, 226108, Control_c, 0, 64, 63
1, 226123, Control_c, 0, 64, 115
1, 226138, Control_c, 0, 64, 127
1, 226143, Note_off_c, 0, 47, 64
1, 226203, Note_on_c, 0, 58, 93
1, 226210, Note_off_c, 0, 59, 58
1, 226211, Note_off_c, 0, 76, 57
1, 226241, Note_off_c, 0, 73, 59
1, 226265, Note_off_c, 0, 80, 52
1, 226289, Note_on_c, 0, 56, 96
1, 226301, Note_off_c, 0, 58, 62
1, 226358, Note_off_c, 0, 56, 65
1, 226423, Note_on_c, 0, 67, 100
1, 226424, Note_on_c, 0, 55, 97
1, 226426, Note_on_c, 0, 81, 101
1, 226429, Note_on_c, 0, 74, 104
1, 226429, Note_on_c, 0, 77, 102
1, 226445, Note_on_c, 0, 58, 74
1, 226460, Note_off_c, 0, 67, 67
1, 226468, Note_off_c, 0, 58, 61
1, 226468, Note_off_c, 0, 55, 68
1, 226472, Note_off_c, 0, 74, 67
1, 226484, Note_off_c, 0, 77, 65
1, 226486, Note_off_c, 0, 81, 67
1, 226494, Control_c, 0, 64, 107
1, 226509, Control_c, 0, 64, 68
1, 226524, Control_c, 0, 64, 0
1, 226758, Note_on_c, 0, 48, 96
1, 226759, Note_on_c, 0, 60, 97
1, 226766, Note_on_c, 0, 83, 99
1, 226766, Note_on_c, 0, 74, 88
1, 226772, Note_on_c, 0, 77, 80
1, 226783, Control_c, 0, 64, 76
1, 226792, Note_on_c, 0, 76, 55
1, 226798, Control_c, 0, 64, 119
1, 226802, Note_off_c, 0, 60, 68
1, 226809, Note_off_c, 0, 48, 65
1, 226813, Control_c, 0, 64, 127
1, 226819, Note_off_c, 0, 76, 36
1, 226837, Note_off_c, 0, 77, 60
1, 226844, Note_on_c, 0, 73, 94
1, 226854, Note_off_c, 0, 74, 60
1, 226857, Poly_aftertouch_c, 0, 51, 127
1, 226872, Control_c, 0, 64, 112
1, 226883, Poly_aftertouch_c, 0, 51, 0
1, 226886, Control_c, 0, 64, 77
1, 226900, Control_c, 0, 64, 0
1, 226922, Note_on_c, 0, 77, 87
1, 226934, Note_off_c, 0, 73, 63
1, 226942, Note_on_c, 0, 74, 65
1, 226998, Note_off_c, 0, 77, 61
1, 227007, Note_on_c, 0, 73, 82
1, 227013, Note_off_c, 0, 74, 65
1, 227066, Note_on_c, 0, 59, 96
1, 227082, Note_on_c, 0, 77, 93
1, 227105, Note_off_c, 0, 73, 63
1, 227109, Control_c, 0, 64, 84
1, 227124, Control_c, 0, 64, 127
1, 227151, Note_off_c, 0, 77, 65
1, 227175, Note_off_c, 0, 59, 54
1, 227177, Note_off_c, 0, 83, 61
1, 227187, Poly_aftertouch_c, 0, 74, 0
1, 227194, Poly_aftertouch_c, 0, 47, 0
1, 227234, Note_on_c, 0, 47, 82
1, 227284, Note_off_c, 0, 47, 66
1, 227405, Note_on_c, 0, 58, 96
1, 227406, Note_on_c, 0, 46, 97
1, 227406, Note_on_c, 0, 84, 109
1, 227411, Poly_aftertouch_c, 0, 77, 0
1, 227413, Note_on_c, 0, 77, 107
1, 227415, Note_on_c, 0, 80, 97
1, 227424, Note_off_c, 0, 58, 69
1, 227424, Note_off_c, 0, 77, 81
1, 227428, Note_off_c, 0, 80, 76
1, 227429, Note_off_c, 0, 46, 69
1, 227434, Note_off_c, 0, 84, 72
1, 227442, Note_on_c, 0, 83, 36
1, 227443, Note_off_c, 0, 83, 127
1, 227482, Note_on_c, 0, 77, 39
1, 227514, Note_off_c, 0, 77, 64
1, 227561, Control_c, 0, 64, 76
1, 227576, Control_c, 0, 64, 0
1, 227724, Note_on_c, 0, 51, 96
1, 227726, Note_on_c, 0, 39, 94
1, 227730, Note_on_c, 0, 86, 104
1, 227732, Note_on_c, 0, 77, 104
1, 227732, Note_on_c, 0, 80, 97
1, 227738, Control_c, 0, 64, 64
1, 227753, Control_c, 0, 64, 68
1, 227766, Note_on_c, 0, 76, 33
1, 227767, Note_off_c, 0, 76, 127
1, 227768, Control_c, 0, 64, 66
1, 227770, Note_off_c, 0, 77, 63
1, 227783, Control_c, 0, 64, 56
1, 227792, Note_on_c, 0, 42, 12
1, 227793, Note_off_c, 0, 42, 127
1, 227797, Control_c, 0, 64, 0
1, 227801, Note_on_c, 0, 76, 65
1, 227811, Note_off_c, 0, 80, 61
1, 227895, Note_on_c, 0, 80, 87
1, 227902, Note_on_c, 0, 77, 73
1, 227911, Note_off_c, 0, 76, 64
1, 227932, Note_off_c, 0, 51, 58
1, 227940, Note_off_c, 0, 77, 57
1, 227964, Note_off_c, 0, 80, 63
1, 227965, Note_on_c, 0, 76, 84
1, 228057, Note_on_c, 0, 51, 98
1, 228058, Note_on_c, 0, 77, 88
1, 228060, Note_on_c, 0, 80, 94
1, 228078, Note_on_c, 0, 82, 65
1, 228095, Control_c, 0, 64, 90
1, 228109, Note_off_c, 0, 77, 58
1, 228110, Control_c, 0, 64, 127
1, 228116, Note_off_c, 0, 76, 62
1, 228137, Note_on_c, 0, 42, 6
1, 228139, Note_off_c, 0, 39, 37
1, 228158, Note_off_c, 0, 80, 66
1, 228164, Note_off_c, 0, 86, 63
1, 228173, Note_off_c, 0, 42, 40
1, 228188, Note_off_c, 0, 82, 26
1, 228232, Note_on_c, 0, 39, 90
1, 228349, Note_off_c, 0, 51, 61
1, 228374, Note_off_c, 0, 39, 60
1, 228405, Note_on_c, 0, 50, 102
1, 228405, Note_on_c, 0, 87, 107
1, 228407, Note_on_c, 0, 80, 104
1, 228409, Note_on_c, 0, 38, 96
1, 228409, Note_on_c, 0, 84, 97
1, 228422, Note_on_c, 0, 39, 70
1, 228448, Note_off_c, 0, 39, 62
1, 228452, Note_off_c, 0, 84, 61
1, 228456, Note_off_c, 0, 50, 68
1, 228456, Note_off_c, 0, 80, 60
1, 228463, Note_off_c, 0, 38, 66
1, 228488, Note_off_c, 0, 87, 64
1, 228607, Control_c, 0, 64, 108
1, 228623, Control_c, 0, 64, 79
1, 228638, Control_c, 0, 64, 19
1, 228652, Control_c, 0, 64, 0
1, 228722, Note_on_c, 0, 84, 98
1, 228722, Note_on_c, 0, 89, 103
1, 228723, Note_on_c, 0, 43, 100
1, 228723, Note_on_c, 0, 80, 97
1, 228724, Note_on_c, 0, 31, 93
1, 228741, Control_c, 0, 64, 11
1, 228742, Note_on_c, 0, 87, 70
1, 228756, Control_c, 0, 64, 83
1, 228759, Note_off_c, 0, 87, 65
1, 228770, Control_c, 0, 64, 127
1, 228803, Note_off_c, 0, 84, 61
1, 228809, Note_off_c, 0, 80, 60
1, 228815, Note_on_c, 0, 79, 82
1, 228862, Note_off_c, 0, 43, 55
1, 228876, Note_on_c, 0, 85, 70
1, 228891, Note_on_c, 0, 84, 87
1, 228892, Note_off_c, 0, 85, 41
1, 228894, Note_on_c, 0, 80, 71
1, 228900, Note_off_c, 0, 79, 61
1, 228933, Control_c, 0, 64, 112
1, 228937, Note_off_c, 0, 80, 47
1, 228939, Note_off_c, 0, 31, 60
1, 228948, Control_c, 0, 64, 75
1, 228949, Note_off_c, 0, 84, 62
1, 228963, Control_c, 0, 64, 0
1, 228964, Note_on_c, 0, 79, 68
1, 229002, Note_off_c, 0, 89, 53
1, 229034, Note_on_c, 0, 30, 97
1, 229037, Note_on_c, 0, 80, 88
1, 229040, Note_on_c, 0, 84, 90
1, 229045, Control_c, 0, 64, 64
1, 229053, Note_off_c, 0, 79, 64
1, 229059, Control_c, 0, 64, 87
1, 229074, Control_c, 0, 64, 127
1, 229098, Note_off_c, 0, 84, 61
1, 229109, Note_on_c, 0, 79, 86
1, 229118, Note_off_c, 0, 80, 63
1, 229163, Note_off_c, 0, 30, 58
1, 229166, Note_off_c, 0, 79, 58
1, 229189, Note_on_c, 0, 43, 84
1, 229194, Note_on_c, 0, 80, 101
1, 229195, Note_on_c, 0, 79, 55
1, 229196, Note_on_c, 0, 41, 70
1, 229201, Note_on_c, 0, 85, 81
1, 229213, Note_on_c, 0, 84, 83
1, 229213, Note_off_c, 0, 79, 63
1, 229219, Note_off_c, 0, 43, 67
1, 229222, Note_off_c, 0, 85, 56
1, 229224, Note_off_c, 0, 41, 63
1, 229234, Note_off_c, 0, 84, 65
1, 229237, Control_c, 0, 64, 76
1, 229240, Note_off_c, 0, 80, 68
1, 229252, Control_c, 0, 64, 0
1, 229273, Note_on_c, 0, 81, 85
1, 229304, Note_off_c, 0, 81, 69
1, 229330, Note_on_c, 0, 55, 106
1, 229332, Note_on_c, 0, 43, 94
1, 229345, Note_on_c, 0, 86, 106
1, 229347, Note_on_c, 0, 82, 104
1, 229348, Note_on_c, 0, 81, 87
1, 229359, Note_off_c, 0, 43, 69
1, 229361, Note_off_c, 0, 55, 69
1, 229365, Note_off_c, 0, 81, 73
1, 229370, Control_c, 0, 64, 70
1, 229382, Note_off_c, 0, 82, 70
1, 229385, Control_c, 0, 64, 127
1, 229386, Note_off_c, 0, 86, 73
1, 229505, Control_c, 0, 64, 92
1, 229519, Control_c, 0, 64, 52
1, 229534, Control_c, 0, 64, 0
1, 229672, Note_on_c, 0, 55, 92
1, 229672, Note_on_c, 0, 62, 104
1, 229672, Note_on_c, 0, 82, 94
1, 229673, Note_on_c, 0, 86, 98
1, 229675, Note_on_c, 0, 65, 96
1, 229675, Note_on_c, 0, 78, 98
1, 229675, Note_on_c, 0, 91, 103
1, 229683, Note_on_c, 0, 90, 53
1, 229700, Note_on_c, 0, 89, 63
1, 229711, Note_off_c, 0, 65, 63
1, 229712, Control_c, 0, 64, 87
1, 229713, Note_off_c, 0, 55, 65
1, 229716, Note_off_c, 0, 62, 69
1, 229719, Note_off_c, 0, 89, 61
1, 229726, Control_c, 0, 64, 127
1, 229759, Note_off_c, 0, 78, 65
1, 229759, Note_off_c, 0, 82, 54
1, 229786, Note_off_c, 0, 91, 56
1, 229803, Note_off_c, 0, 86, 58
1, 229806, Note_off_c, 0, 90, 22
1, 229838, Control_c, 0, 64, 94
1, 229847, Note_on_c, 0, 83, 93
1, 229853, Control_c, 0, 64, 62
1, 229868, Control_c, 0, 64, 0
1, 229891, Note_off_c, 0, 83, 68
1, 230036, Note_on_c, 0, 63, 98
1, 230040, Note_on_c, 0, 60, 89
1, 230042, Note_on_c, 0, 84, 121
1, 230045, Control_c, 0, 64, 71
1, 230047, Note_on_c, 0, 79, 104
1, 230060, Note_off_c, 0, 79, 79
1, 230060, Control_c, 0, 64, 115
1, 230066, Note_off_c, 0, 84, 75
1, 230070, Note_off_c, 0, 60, 69
1, 230071, Note_off_c, 0, 63, 66
1, 230075, Control_c, 0, 64, 127
1, 230416, Control_c, 0, 64, 93
1, 230431, Control_c, 0, 64, 68
1, 230446, Control_c, 0, 64, 0
1, 231031, Note_on_c, 0, 50, 114
1, 231033, Note_on_c, 0, 49, 116
1, 231035, Note_on_c, 0, 43, 102
1, 231037, Note_on_c, 0, 71, 109
1, 231038, Note_on_c, 0, 59, 95
1, 231038, Note_on_c, 0, 65, 102
1, 231038, Note_on_c, 0, 66, 110
1, 231048, Note_on_c, 0, 60, 85
1, 231062, Note_on_c, 0, 46, 46
1, 231063, Note_off_c, 0, 46, 127
1, 231067, Note_on_c, 0, 68, 52
1, 231067, Note_off_c, 0, 60, 59
1, 231091, Note_off_c, 0, 68, 57
1, 231130, Note_off_c, 0, 59, 57
1, 231132, Note_off_c, 0, 49, 62
1, 231139, Note_off_c, 0, 50, 60
1, 231143, Note_off_c, 0, 43, 61
1, 231145, Note_off_c, 0, 71, 61
1, 231154, Note_off_c, 0, 66, 59
1, 231160, Note_off_c, 0, 65, 58
1, 231219, Note_on_c, 0, 50, 111
1, 231219, Note_on_c, 0, 59, 105
1, 231219, Note_on_c, 0, 49, 110
1, 231219, Note_on_c, 0, 71, 101
1, 231222, Note_on_c, 0, 66, 95
1, 231223, Note_on_c, 0, 43, 97
1, 231223, Note_on_c, 0, 65, 96
1, 231270, Note_on_c, 0, 68, 51
1, 231292, Note_off_c, 0, 50, 65
1, 231293, Note_off_c, 0, 68, 58
1, 231303, Note_off_c, 0, 59, 65
1, 231306, Note_off_c, 0, 71, 67
1, 231306, Note_off_c, 0, 49, 66
1, 231309, Note_off_c, 0, 43, 66
1, 231312, Note_off_c, 0, 65, 68
1, 231316, Note_off_c, 0, 66, 67
1, 232023, Note_on_c, 0, 43, 109
1, 232026, Note_on_c, 0, 42, 110
1, 232030, Note_on_c, 0, 36, 95
1, 232031, Note_on_c, 0, 60, 101
1, 232031, Note_on_c, 0, 72, 99
1, 232032, Note_on_c, 0, 63, 110
1, 232032, Note_on_c, 0, 67, 99
1, 232064, Note_on_c, 0, 70, 35
1, 232065, Note_off_c, 0, 70, 127
1, 232067, Note_on_c, 0, 39, 24
1, 232068, Note_off_c, 0, 39, 127
1, 232117, Poly_aftertouch_c, 0, 39, 0
1, 232120, Note_off_c, 0, 43, 58
1, 232120, Note_off_c, 0, 60, 60
1, 232128, Note_off_c, 0, 42, 63
1, 232129, Note_off_c, 0, 36, 61
1, 232132, Note_off_c, 0, 72, 62
1, 232138, Note_off_c, 0, 63, 61
1, 232138, Note_off_c, 0, 67, 60
1, 232215, Note_on_c, 0, 43, 119
1, 232216, Note_on_c, 0, 42, 106
1, 232220, Note_on_c, 0, 36, 94
1, 232220, Note_on_c, 0, 60, 106
1, 232220, Note_on_c, 0, 63, 119
1, 232221, Note_on_c, 0, 72, 101
1, 232223, Note_on_c, 0, 67, 98
1, 232329, Note_off_c, 0, 72, 67
1, 232332, Note_off_c, 0, 43, 65
1, 232335, Note_off_c, 0, 60, 66
1, 232335, Note_off_c, 0, 67, 66
1, 232337, Note_off_c, 0, 42, 66
1, 232341, Note_off_c, 0, 36, 64
1, 232343, Note_off_c, 0, 63, 65
1, 232528, Control_c, 0, 67, 11
1, 232543, Control_c, 0, 67, 15
1, 232558, Control_c, 0, 67, 19
1, 232573, Control_c, 0, 67, 23
1, 232588, Control_c, 0, 67, 25
1, 232603, Control_c, 0, 67, 26
1, 232618, Control_c, 0, 67, 28
1, 232633, Control_c, 0, 67, 30
1, 232648, Control_c, 0, 67, 33
1, 232663, Control_c, 0, 67, 36
1, 232678, Control_c, 0, 67, 39
1, 232692, Control_c, 0, 67, 42
1, 232707, Control_c, 0, 67, 43
1, 232722, Control_c, 0, 67, 43
1, 232744, Control_c, 0, 67, 44
1, 232774, Control_c, 0, 67, 44
1, 232818, Control_c, 0, 67, 45
1, 232878, Control_c, 0, 67, 45
1, 232892, Control_c, 0, 67, 46
1, 232907, Control_c, 0, 67, 47
1, 232922, Control_c, 0, 67, 48
1, 232937, Control_c, 0, 67, 48
1, 232951, Control_c, 0, 67, 49
1, 232981, Control_c, 0, 67, 49
1, 233174, Control_c, 0, 67, 50
1, 233508, Control_c, 0, 67, 49
1, 233834, Control_c, 0, 67, 49
1, 236095, Control_c, 0, 67, 48
1, 236332, Control_c, 0, 64, 11
1, 236347, Control_c, 0, 64, 19
1, 236361, Control_c, 0, 64, 27
1, 236376, Control_c, 0, 64, 33
1, 236391, Control_c, 0, 64, 38
1, 236406, Control_c, 0, 64, 43
1, 236421, Control_c, 0, 64, 47
1, 236436, Control_c, 0, 64, 52
1, 236451, Control_c, 0, 64, 55
1, 236466, Control_c, 0, 64, 58
1, 236487, Control_c, 0, 64, 60
1, 236502, Control_c, 0, 64, 61
1, 236517, Control_c, 0, 64, 62
1, 236532, Control_c, 0, 64, 63
1, 236547, Control_c, 0, 64, 64
1, 236561, Control_c, 0, 64, 65
1, 236561, Control_c, 0, 67, 49
1, 236576, Control_c, 0, 64, 65
1, 236591, Control_c, 0, 64, 66
1, 236606, Control_c, 0, 64, 67
1, 236622, Control_c, 0, 64, 67
1, 236637, Control_c, 0, 64, 68
1, 236652, Control_c, 0, 64, 69
1, 236652, Control_c, 0, 67, 49
1, 236666, Control_c, 0, 64, 70
1, 236681, Control_c, 0, 64, 71
1, 236696, Control_c, 0, 64, 72
1, 236710, Control_c, 0, 64, 73
1, 236710, Control_c, 0, 67, 50
1, 236725, Control_c, 0, 64, 74
1, 236740, Control_c, 0, 64, 75
1, 236755, Control_c, 0, 64, 76
1, 236755, Control_c, 0, 67, 50
1, 236770, Control_c, 0, 64, 78
1, 236785, Control_c, 0, 64, 79
1, 236785, Control_c, 0, 67, 51
1, 236800, Control_c, 0, 64, 81
1, 236815, Control_c, 0, 64, 82
1, 236815, Control_c, 0, 67, 51
1, 236829, Control_c, 0, 64, 84
1, 236844, Control_c, 0, 64, 86
1, 236844, Control_c, 0, 67, 52
1, 236859, Control_c, 0, 64, 87
1, 236874, Control_c, 0, 64, 88
1, 236889, Control_c, 0, 64, 89
1, 236889, Control_c, 0, 67, 54
1, 236903, Control_c, 0, 64, 90
1, 236903, Control_c, 0, 67, 58
1, 236918, Control_c, 0, 64, 91
1, 236918, Control_c, 0, 67, 61
1, 236933, Control_c, 0, 64, 91
1, 236933, Control_c, 0, 67, 63
1, 236948, Control_c, 0, 64, 92
1, 236948, Control_c, 0, 67, 64
1, 236963, Control_c, 0, 67, 65
1, 236977, Control_c, 0, 64, 92
1, 236977, Control_c, 0, 67, 67
1, 236992, Control_c, 0, 64, 93
1, 236992, Control_c, 0, 67, 68
1, 237007, Control_c, 0, 67, 70
1, 237022, Control_c, 0, 64, 93
1, 237022, Control_c, 0, 67, 71
1, 237037, Control_c, 0, 67, 72
1, 237051, Control_c, 0, 64, 94
1, 237051, Control_c, 0, 67, 73
1, 237066, Control_c, 0, 67, 74
1, 237081, Control_c, 0, 67, 74
1, 237096, Control_c, 0, 67, 75
1, 237110, Control_c, 0, 67, 76
1, 237125, Control_c, 0, 67, 76
1, 237140, Control_c, 0, 67, 77
1, 237184, Control_c, 0, 67, 77
1, 237199, Control_c, 0, 64, 94
1, 237399, Control_c, 0, 67, 77
1, 237430, Control_c, 0, 64, 94
1, 237430, Control_c, 0, 67, 76
1, 237460, Control_c, 0, 67, 76
1, 237475, Control_c, 0, 67, 75
1, 237489, Control_c, 0, 67, 75
1, 237519, Control_c, 0, 67, 74
1, 237548, Control_c, 0, 67, 74
1, 237578, Control_c, 0, 67, 73
1, 237607, Control_c, 0, 67, 73
1, 237682, Control_c, 0, 67, 72
1, 238015, Control_c, 0, 64, 93
1, 238074, Control_c, 0, 64, 93
1, 238549, Control_c, 0, 67, 73
1, 238563, Control_c, 0, 67, 73
1, 238578, Control_c, 0, 67, 74
1, 238593, Control_c, 0, 67, 75
1, 238608, Control_c, 0, 64, 92
1, 238608, Control_c, 0, 67, 75
1, 238622, Control_c, 0, 67, 76
1, 238637, Control_c, 0, 67, 76
1, 238652, Control_c, 0, 64, 92
1, 238652, Control_c, 0, 67, 77
1, 238667, Control_c, 0, 67, 77
1, 238681, Control_c, 0, 67, 78
1, 238696, Control_c, 0, 64, 91
1, 238696, Control_c, 0, 67, 78
1, 238734, Control_c, 0, 67, 79
1, 238749, Control_c, 0, 67, 81
1, 238763, Control_c, 0, 64, 91
1, 238763, Control_c, 0, 67, 86
1, 238778, Control_c, 0, 64, 90
1, 238778, Control_c, 0, 67, 91
1, 238793, Control_c, 0, 67, 94
1, 238807, Control_c, 0, 64, 90
1, 238807, Control_c, 0, 67, 98
1, 238822, Control_c, 0, 64, 89
1, 238822, Control_c, 0, 67, 101
1, 238837, Control_c, 0, 64, 89
1, 238837, Control_c, 0, 67, 104
1, 238852, Control_c, 0, 64, 88
1, 238852, Control_c, 0, 67, 106
1, 238867, Control_c, 0, 67, 109
1, 238881, Control_c, 0, 64, 88
1, 238881, Control_c, 0, 67, 111
1, 238896, Control_c, 0, 67, 113
1, 238911, Control_c, 0, 67, 114
1, 238926, Control_c, 0, 67, 117
1, 238941, Control_c, 0, 67, 119
1, 238955, Control_c, 0, 67, 122
1, 238970, Control_c, 0, 67, 124
1, 238985, Control_c, 0, 67, 126
1, 239000, Control_c, 0, 67, 127
1, 239104, Control_c, 0, 64, 88
1, 239134, Control_c, 0, 64, 89
1, 239164, Control_c, 0, 64, 89
1, 239208, Control_c, 0, 64, 90
1, 239223, Control_c, 0, 64, 90
1, 239238, Control_c, 0, 64, 91
1, 239253, Control_c, 0, 64, 91
1, 239268, Control_c, 0, 64, 92
1, 239283, Control_c, 0, 64, 92
1, 239298, Control_c, 0, 64, 93
1, 239312, Control_c, 0, 64, 93
1, 239327, Control_c, 0, 64, 94
1, 239342, Control_c, 0, 64, 94
1, 239357, Control_c, 0, 64, 95
1, 239430, Control_c, 0, 64, 95
1, 239497, Control_c, 0, 64, 96
1, 239512, Control_c, 0, 64, 96
1, 239527, Control_c, 0, 64, 97
1, 239557, Control_c, 0, 64, 97
1, 239572, Control_c, 0, 64, 98
1, 239586, Control_c, 0, 64, 98
1, 239601, Control_c, 0, 64, 99
1, 239616, Control_c, 0, 64, 100
1, 239630, Control_c, 0, 64, 100
1, 239645, Control_c, 0, 64, 101
1, 239660, Control_c, 0, 64, 101
1, 239675, Control_c, 0, 64, 102
1, 239690, Control_c, 0, 64, 102
1, 239704, Control_c, 0, 64, 103
1, 239719, Control_c, 0, 64, 103
1, 239734, Control_c, 0, 64, 104
1, 239749, Control_c, 0, 64, 104
1, 239764, Control_c, 0, 64, 105
1, 239778, Control_c, 0, 64, 106
1, 239793, Control_c, 0, 64, 106
1, 239809, Control_c, 0, 64, 107
1, 239824, Control_c, 0, 64, 107
1, 239839, Control_c, 0, 64, 108
1, 239853, Control_c, 0, 64, 108
1, 239868, Control_c, 0, 64, 109
1, 239883, Control_c, 0, 64, 109
1, 239898, Control_c, 0, 64, 110
1, 239913, Control_c, 0, 64, 110
1, 239927, Control_c, 0, 64, 111
1, 239942, Control_c, 0, 64, 112
1, 239957, Control_c, 0, 64, 113
1, 239972, Control_c, 0, 64, 114
1, 239987, Control_c, 0, 64, 115
1, 240001, Control_c, 0, 64, 116
1, 240016, Control_c, 0, 64, 118
1, 240031, Control_c, 0, 64, 119
1, 240046, Control_c, 0, 64, 121
1, 240061, Control_c, 0, 64, 124
1, 240076, Control_c, 0, 64, 127
1, 243077, Note_on_c, 0, 36, 58
1, 243086, Note_on_c, 0, 33, 53
1, 243295, Note_off_c, 0, 36, 48
1, 243316, Note_off_c, 0, 33, 36
1, 243598, Note_on_c, 0, 36, 60
1, 243601, Note_on_c, 0, 33, 56
1, 243777, Note_off_c, 0, 33, 46
1, 243794, Note_off_c, 0, 36, 37
1, 244109, Note_on_c, 0, 36, 64
1, 244110, Note_on_c, 0, 33, 55
1, 244302, Note_off_c, 0, 36, 47
1, 244322, Note_off_c, 0, 33, 37
1, 244597, Note_on_c, 0, 36, 59
1, 244598, Note_on_c, 0, 33, 56
1, 244828, Note_off_c, 0, 36, 32
1, 244839, Note_off_c, 0, 33, 31
1, 245084, Note_on_c, 0, 36, 57
1, 245087, Note_on_c, 0, 33, 50
1, 245310, Note_off_c, 0, 36, 30
1, 245316, Note_off_c, 0, 33, 31
1, 245574, Note_on_c, 0, 36, 51
1, 245575, Note_on_c, 0, 33, 47
1, 245811, Note_off_c, 0, 36, 30
1, 245845, Note_off_c, 0, 33, 23
1, 246043, Note_on_c, 0, 33, 47
1, 246046, Note_on_c, 0, 36, 51
1, 246309, Note_off_c, 0, 36, 29
1, 246319, Note_off_c, 0, 33, 30
1, 246519, Note_on_c, 0, 33, 43
1, 246524, Note_on_c, 0, 36, 46
1, 246741, Note_off_c, 0, 33, 28
1, 246770, Note_off_c, 0, 36, 30
1, 247000, Control_c, 0, 64, 107
1, 247007, Note_on_c, 0, 40, 53
1, 247015, Control_c, 0, 64, 89
1, 247020, Note_on_c, 0, 33, 39
1, 247022, Note_on_c, 0, 36, 36
1, 247030, Control_c, 0, 64, 77
1, 247045, Control_c, 0, 64, 67
1, 247060, Control_c, 0, 64, 58
1, 247075, Control_c, 0, 64, 50
1, 247090, Control_c, 0, 64, 49
1, 247105, Control_c, 0, 64, 52
1, 247119, Control_c, 0, 64, 58
1, 247134, Control_c, 0, 64, 63
1, 247149, Control_c, 0, 64, 66
1, 247164, Control_c, 0, 64, 70
1, 247179, Control_c, 0, 64, 74
1, 247193, Control_c, 0, 64, 78
1, 247208, Control_c, 0, 64, 82
1, 247223, Control_c, 0, 64, 85
1, 247237, Control_c, 0, 64, 88
1, 247252, Control_c, 0, 64, 91
1, 247267, Control_c, 0, 64, 93
1, 247282, Control_c, 0, 64, 95
1, 247297, Control_c, 0, 64, 95
1, 247336, Note_off_c, 0, 36, 32
1, 247338, Note_off_c, 0, 33, 27
1, 247341, Control_c, 0, 64, 96
1, 247511, Note_on_c, 0, 36, 37
1, 247513, Note_on_c, 0, 33, 40
1, 247519, Control_c, 0, 64, 95
1, 247732, Note_off_c, 0, 33, 35
1, 247762, Note_off_c, 0, 36, 28
1, 247972, Control_c, 0, 64, 95
1, 248014, Note_on_c, 0, 33, 39
1, 248020, Note_on_c, 0, 36, 37
1, 248193, Note_off_c, 0, 33, 38
1, 248209, Note_off_c, 0, 36, 34
1, 248493, Note_on_c, 0, 33, 40
1, 248496, Note_on_c, 0, 36, 39
1, 248658, Note_off_c, 0, 33, 32
1, 248697, Note_off_c, 0, 36, 23
1, 248899, Control_c, 0, 64, 94
1, 248914, Control_c, 0, 64, 94
1, 248944, Control_c, 0, 64, 93
1, 248956, Note_on_c, 0, 41, 68
1, 248958, Control_c, 0, 64, 92
1, 248973, Control_c, 0, 64, 90
1, 248988, Control_c, 0, 64, 87
1, 248997, Note_on_c, 0, 36, 32
1, 248999, Note_on_c, 0, 33, 32
1, 249003, Control_c, 0, 64, 81
1, 249017, Control_c, 0, 64, 74
1, 249032, Control_c, 0, 64, 67
1, 249047, Control_c, 0, 64, 62
1, 249062, Control_c, 0, 64, 57
1, 249077, Control_c, 0, 64, 51
1, 249091, Control_c, 0, 64, 46
1, 249106, Control_c, 0, 64, 45
1, 249121, Control_c, 0, 64, 45
1, 249136, Control_c, 0, 64, 52
1, 249151, Control_c, 0, 64, 61
1, 249155, Note_off_c, 0, 40, 59
1, 249165, Control_c, 0, 64, 65
1, 249180, Control_c, 0, 64, 69
1, 249195, Control_c, 0, 64, 74
1, 249217, Control_c, 0, 64, 78
1, 249232, Control_c, 0, 64, 82
1, 249247, Control_c, 0, 64, 85
1, 249262, Control_c, 0, 64, 89
1, 249277, Control_c, 0, 64, 92
1, 249291, Control_c, 0, 64, 94
1, 249306, Control_c, 0, 64, 95
1, 249313, Note_off_c, 0, 33, 39
1, 249319, Note_off_c, 0, 36, 38
1, 249321, Control_c, 0, 64, 95
1, 249448, Note_on_c, 0, 33, 40
1, 249448, Note_on_c, 0, 36, 36
1, 249680, Note_off_c, 0, 36, 34
1, 249694, Note_off_c, 0, 33, 27
1, 249900, Control_c, 0, 64, 94
1, 249914, Control_c, 0, 64, 90
1, 249919, Note_on_c, 0, 33, 38
1, 249919, Note_on_c, 0, 36, 39
1, 249929, Control_c, 0, 64, 82
1, 249944, Control_c, 0, 64, 73
1, 249966, Control_c, 0, 64, 65
1, 249981, Control_c, 0, 64, 63
1, 250011, Control_c, 0, 64, 64
1, 250026, Control_c, 0, 64, 66
1, 250040, Control_c, 0, 64, 70
1, 250055, Control_c, 0, 64, 75
1, 250070, Control_c, 0, 64, 80
1, 250085, Control_c, 0, 64, 83
1, 250099, Control_c, 0, 64, 85
1, 250113, Control_c, 0, 64, 87
1, 250128, Control_c, 0, 64, 88
1, 250143, Control_c, 0, 64, 89
1, 250154, Note_off_c, 0, 33, 38
1, 250158, Control_c, 0, 64, 90
1, 250160, Note_off_c, 0, 36, 36
1, 250189, Control_c, 0, 64, 91
1, 250218, Control_c, 0, 64, 91
1, 250366, Control_c, 0, 64, 91
1, 250381, Control_c, 0, 64, 87
1, 250396, Control_c, 0, 64, 81
1, 250398, Note_on_c, 0, 33, 39
1, 250406, Note_on_c, 0, 36, 40
1, 250410, Control_c, 0, 64, 74
1, 250425, Control_c, 0, 64, 67
1, 250440, Control_c, 0, 64, 63
1, 250455, Control_c, 0, 64, 63
1, 250470, Control_c, 0, 64, 63
1, 250485, Control_c, 0, 64, 65
1, 250500, Control_c, 0, 64, 67
1, 250515, Control_c, 0, 64, 70
1, 250530, Control_c, 0, 64, 74
1, 250544, Control_c, 0, 64, 78
1, 250559, Control_c, 0, 64, 81
1, 250574, Control_c, 0, 64, 84
1, 250588, Control_c, 0, 64, 86
1, 250603, Control_c, 0, 64, 88
1, 250618, Control_c, 0, 64, 89
1, 250620, Note_off_c, 0, 33, 39
1, 250633, Control_c, 0, 64, 91
1, 250648, Control_c, 0, 64, 92
1, 250662, Control_c, 0, 64, 93
1, 250677, Control_c, 0, 64, 93
1, 250692, Control_c, 0, 64, 94
1, 250780, Note_off_c, 0, 36, 32
1, 250881, Note_on_c, 0, 42, 62
1, 250918, Note_on_c, 0, 34, 45
1, 250922, Control_c, 0, 64, 90
1, 250929, Note_on_c, 0, 38, 38
1, 250936, Control_c, 0, 64, 84
1, 250951, Control_c, 0, 64, 75
1, 250966, Control_c, 0, 64, 65
1, 250982, Control_c, 0, 64, 43
1, 250997, Control_c, 0, 64, 0
1, 251036, Note_off_c, 0, 41, 58
1, 251100, Control_c, 0, 64, 41
1, 251115, Control_c, 0, 64, 65
1, 251130, Control_c, 0, 64, 73
1, 251145, Control_c, 0, 64, 80
1, 251159, Control_c, 0, 64, 86
1, 251174, Control_c, 0, 64, 91
1, 251189, Control_c, 0, 64, 95
1, 251204, Control_c, 0, 64, 97
1, 251218, Control_c, 0, 64, 99
1, 251233, Control_c, 0, 64, 99
1, 251251, Note_off_c, 0, 38, 40
1, 251257, Note_off_c, 0, 34, 35
1, 251278, Control_c, 0, 64, 100
1, 251367, Control_c, 0, 64, 99
1, 251388, Note_on_c, 0, 34, 42
1, 251393, Note_on_c, 0, 38, 41
1, 251411, Control_c, 0, 64, 96
1, 251426, Control_c, 0, 64, 88
1, 251441, Control_c, 0, 64, 78
1, 251463, Control_c, 0, 64, 68
1, 251478, Control_c, 0, 64, 60
1, 251493, Control_c, 0, 64, 56
1, 251507, Control_c, 0, 64, 59
1, 251522, Control_c, 0, 64, 63
1, 251537, Control_c, 0, 64, 66
1, 251552, Control_c, 0, 64, 71
1, 251567, Control_c, 0, 64, 76
1, 251582, Control_c, 0, 64, 83
1, 251597, Control_c, 0, 64, 88
1, 251611, Control_c, 0, 64, 92
1, 251626, Control_c, 0, 64, 94
1, 251641, Control_c, 0, 64, 96
1, 251649, Note_off_c, 0, 34, 39
1, 251656, Control_c, 0, 64, 97
1, 251671, Control_c, 0, 64, 98
1, 251684, Note_off_c, 0, 38, 28
1, 251849, Control_c, 0, 64, 97
1, 251859, Note_on_c, 0, 38, 36
1, 251862, Note_on_c, 0, 34, 41
1, 251864, Control_c, 0, 64, 92
1, 251879, Control_c, 0, 64, 84
1, 251894, Control_c, 0, 64, 75
1, 251908, Control_c, 0, 64, 66
1, 251923, Control_c, 0, 64, 61
1, 251938, Control_c, 0, 64, 58
1, 251953, Control_c, 0, 64, 60
1, 251968, Control_c, 0, 64, 62
1, 251982, Control_c, 0, 64, 65
1, 251997, Control_c, 0, 64, 70
1, 252012, Control_c, 0, 64, 76
1, 252027, Control_c, 0, 64, 83
1, 252041, Control_c, 0, 64, 91
1, 252056, Control_c, 0, 64, 98
1, 252071, Control_c, 0, 64, 101
1, 252086, Control_c, 0, 64, 104
1, 252101, Note_off_c, 0, 34, 38
1, 252101, Control_c, 0, 64, 106
1, 252116, Control_c, 0, 64, 109
1, 252130, Control_c, 0, 64, 111
1, 252133, Note_off_c, 0, 38, 36
1, 252145, Control_c, 0, 64, 112
1, 252160, Control_c, 0, 64, 113
1, 252315, Control_c, 0, 64, 112
1, 252330, Note_on_c, 0, 34, 41
1, 252333, Note_on_c, 0, 38, 35
1, 252345, Control_c, 0, 64, 109
1, 252359, Control_c, 0, 64, 102
1, 252374, Control_c, 0, 64, 90
1, 252389, Control_c, 0, 64, 77
1, 252404, Control_c, 0, 64, 67
1, 252419, Control_c, 0, 64, 64
1, 252433, Control_c, 0, 64, 65
1, 252448, Control_c, 0, 64, 68
1, 252463, Control_c, 0, 64, 73
1, 252478, Control_c, 0, 64, 78
1, 252493, Control_c, 0, 64, 84
1, 252507, Control_c, 0, 64, 90
1, 252522, Control_c, 0, 64, 96
1, 252534, Note_off_c, 0, 34, 31
1, 252537, Control_c, 0, 64, 100
1, 252552, Control_c, 0, 64, 103
1, 252556, Note_off_c, 0, 38, 38
1, 252566, Control_c, 0, 64, 106
1, 252583, Control_c, 0, 64, 108
1, 252598, Control_c, 0, 64, 110
1, 252612, Control_c, 0, 64, 111
1, 252627, Control_c, 0, 64, 111
1, 252642, Control_c, 0, 64, 112
1, 252760, Control_c, 0, 64, 110
1, 252774, Control_c, 0, 64, 99
1, 252779, Note_on_c, 0, 38, 35
1, 252780, Note_on_c, 0, 34, 39
1, 252789, Control_c, 0, 64, 85
1, 252804, Control_c, 0, 64, 72
1, 252819, Control_c, 0, 64, 67
1, 252834, Control_c, 0, 64, 68
1, 252849, Control_c, 0, 64, 71
1, 252864, Control_c, 0, 64, 75
1, 252879, Control_c, 0, 64, 79
1, 252894, Control_c, 0, 64, 85
1, 252908, Control_c, 0, 64, 92
1, 252923, Control_c, 0, 64, 97
1, 252938, Control_c, 0, 64, 101
1, 252960, Control_c, 0, 64, 103
1, 252975, Control_c, 0, 64, 105
1, 252981, Note_off_c, 0, 42, 56
1, 252989, Control_c, 0, 64, 106
1, 253001, Note_off_c, 0, 34, 36
1, 253004, Control_c, 0, 64, 107
1, 253019, Control_c, 0, 64, 108
1, 253024, Note_off_c, 0, 38, 33
1, 253034, Control_c, 0, 64, 108
1, 253063, Control_c, 0, 64, 109
1, 253212, Control_c, 0, 64, 108
1, 253239, Note_on_c, 0, 42, 54
1, 253256, Control_c, 0, 64, 104
1, 253258, Note_on_c, 0, 34, 36
1, 253271, Control_c, 0, 64, 95
1, 253275, Note_on_c, 0, 38, 34
1, 253286, Control_c, 0, 64, 80
1, 253301, Control_c, 0, 64, 68
1, 253316, Control_c, 0, 64, 61
1, 253330, Control_c, 0, 64, 60
1, 253345, Control_c, 0, 64, 63
1, 253360, Control_c, 0, 64, 65
1, 253375, Control_c, 0, 64, 69
1, 253391, Control_c, 0, 64, 75
1, 253405, Control_c, 0, 64, 81
1, 253420, Control_c, 0, 64, 89
1, 253435, Control_c, 0, 64, 95
1, 253450, Control_c, 0, 64, 100
1, 253465, Control_c, 0, 64, 103
1, 253469, Note_off_c, 0, 34, 38
1, 253479, Note_off_c, 0, 38, 39
1, 253479, Control_c, 0, 64, 106
1, 253494, Control_c, 0, 64, 109
1, 253509, Control_c, 0, 64, 112
1, 253524, Control_c, 0, 64, 114
1, 253539, Control_c, 0, 64, 116
1, 253553, Control_c, 0, 64, 116
1, 253686, Control_c, 0, 64, 116
1, 253700, Note_on_c, 0, 43, 62
1, 253709, Control_c, 0, 64, 112
1, 253724, Control_c, 0, 64, 102
1, 253729, Note_on_c, 0, 34, 39
1, 253739, Control_c, 0, 64, 90
1, 253741, Note_on_c, 0, 38, 35
1, 253753, Control_c, 0, 64, 78
1, 253768, Control_c, 0, 64, 65
1, 253783, Control_c, 0, 64, 26
1, 253798, Control_c, 0, 64, 0
1, 253815, Note_off_c, 0, 42, 57
1, 253858, Control_c, 0, 64, 44
1, 253873, Control_c, 0, 64, 64
1, 253887, Control_c, 0, 64, 70
1, 253902, Control_c, 0, 64, 76
1, 253917, Control_c, 0, 64, 81
1, 253931, Control_c, 0, 64, 86
1, 253946, Control_c, 0, 64, 91
1, 253961, Control_c, 0, 64, 98
1, 253976, Control_c, 0, 64, 103
1, 253991, Control_c, 0, 64, 106
1, 254005, Control_c, 0, 64, 109
1, 254009, Note_off_c, 0, 34, 41
1, 254020, Control_c, 0, 64, 110
1, 254035, Control_c, 0, 64, 110
1, 254050, Control_c, 0, 64, 111
1, 254065, Control_c, 0, 64, 111
1, 254073, Note_off_c, 0, 38, 30
1, 254095, Control_c, 0, 64, 112
1, 254125, Control_c, 0, 64, 111
1, 254149, Note_on_c, 0, 44, 64
1, 254168, Note_on_c, 0, 38, 25
1, 254169, Control_c, 0, 64, 111
1, 254179, Note_on_c, 0, 34, 38
1, 254184, Control_c, 0, 64, 105
1, 254199, Control_c, 0, 64, 94
1, 254214, Control_c, 0, 64, 80
1, 254229, Control_c, 0, 64, 68
1, 254244, Control_c, 0, 64, 40
1, 254259, Control_c, 0, 64, 0
1, 254318, Control_c, 0, 64, 46
1, 254329, Note_off_c, 0, 43, 61
1, 254333, Control_c, 0, 64, 64
1, 254348, Control_c, 0, 64, 70
1, 254363, Control_c, 0, 64, 77
1, 254367, Note_off_c, 0, 34, 60
1, 254377, Control_c, 0, 64, 83
1, 254392, Control_c, 0, 64, 89
1, 254407, Control_c, 0, 64, 95
1, 254422, Control_c, 0, 64, 100
1, 254436, Control_c, 0, 64, 103
1, 254459, Control_c, 0, 64, 105
1, 254473, Control_c, 0, 64, 106
1, 254607, Control_c, 0, 64, 104
1, 254614, Note_off_c, 0, 38, 33
1, 254622, Control_c, 0, 64, 99
1, 254634, Note_on_c, 0, 45, 65
1, 254636, Control_c, 0, 64, 90
1, 254651, Control_c, 0, 64, 76
1, 254658, Note_on_c, 0, 36, 42
1, 254662, Note_on_c, 0, 40, 36
1, 254666, Control_c, 0, 64, 63
1, 254681, Control_c, 0, 64, 0
1, 254751, Note_off_c, 0, 44, 62
1, 254814, Control_c, 0, 64, 55
1, 254828, Control_c, 0, 64, 66
1, 254843, Control_c, 0, 64, 73
1, 254858, Control_c, 0, 64, 81
1, 254873, Control_c, 0, 64, 91
1, 254888, Control_c, 0, 64, 100
1, 254903, Control_c, 0, 64, 107
1, 254918, Control_c, 0, 64, 113
1, 254932, Control_c, 0, 64, 118
1, 254947, Control_c, 0, 64, 127
1, 254966, Note_off_c, 0, 40, 40
1, 254968, Note_off_c, 0, 36, 39
1, 255109, Note_on_c, 0, 40, 43
1, 255110, Note_on_c, 0, 36, 40
1, 255383, Note_off_c, 0, 40, 30
1, 255385, Note_off_c, 0, 36, 30
1, 255567, Note_on_c, 0, 40, 41
1, 255568, Note_on_c, 0, 36, 40
1, 255790, Note_off_c, 0, 40, 39
1, 255803, Note_off_c, 0, 36, 34
1, 256015, Note_on_c, 0, 48, 58
1, 256044, Note_on_c, 0, 36, 37
1, 256044, Note_on_c, 0, 40, 35
1, 256045, Control_c, 0, 64, 108
1, 256060, Control_c, 0, 64, 93
1, 256075, Control_c, 0, 64, 80
1, 256089, Control_c, 0, 64, 70
1, 256104, Control_c, 0, 64, 63
1, 256119, Control_c, 0, 64, 61
1, 256134, Control_c, 0, 64, 62
1, 256149, Control_c, 0, 64, 65
1, 256163, Control_c, 0, 64, 68
1, 256178, Control_c, 0, 64, 74
1, 256193, Control_c, 0, 64, 83
1, 256207, Control_c, 0, 64, 94
1, 256222, Control_c, 0, 64, 106
1, 256237, Control_c, 0, 64, 119
1, 256252, Control_c, 0, 64, 127
1, 256253, Note_off_c, 0, 45, 38
1, 256288, Note_off_c, 0, 40, 40
1, 256294, Note_off_c, 0, 36, 39
1, 256469, Note_on_c, 0, 52, 64
1, 256499, Note_on_c, 0, 36, 39
1, 256503, Note_on_c, 0, 40, 38
1, 256503, Control_c, 0, 64, 103
1, 256518, Control_c, 0, 64, 84
1, 256533, Control_c, 0, 64, 70
1, 256548, Control_c, 0, 64, 54
1, 256563, Control_c, 0, 64, 0
1, 256593, Control_c, 0, 64, 34
1, 256608, Control_c, 0, 64, 61
1, 256623, Control_c, 0, 64, 68
1, 256638, Control_c, 0, 64, 75
1, 256652, Control_c, 0, 64, 83
1, 256667, Control_c, 0, 64, 93
1, 256682, Control_c, 0, 64, 101
1, 256690, Note_off_c, 0, 48, 57
1, 256704, Control_c, 0, 64, 108
1, 256719, Control_c, 0, 64, 117
1, 256734, Control_c, 0, 64, 127
1, 256776, Note_off_c, 0, 40, 38
1, 256786, Note_off_c, 0, 36, 37
1, 256956, Control_c, 0, 64, 105
1, 256957, Note_on_c, 0, 40, 42
1, 256958, Note_on_c, 0, 36, 41
1, 256971, Control_c, 0, 64, 86
1, 256986, Control_c, 0, 64, 72
1, 257001, Control_c, 0, 64, 61
1, 257016, Control_c, 0, 64, 57
1, 257030, Control_c, 0, 64, 62
1, 257045, Control_c, 0, 64, 66
1, 257060, Control_c, 0, 64, 70
1, 257075, Control_c, 0, 64, 76
1, 257090, Control_c, 0, 64, 87
1, 257104, Control_c, 0, 64, 98
1, 257119, Control_c, 0, 64, 111
1, 257134, Control_c, 0, 64, 127
1, 257260, Note_off_c, 0, 36, 38
1, 257264, Note_off_c, 0, 40, 38
1, 257408, Note_on_c, 0, 57, 66
1, 257435, Note_on_c, 0, 40, 40
1, 257449, Note_on_c, 0, 36, 37
1, 257453, Control_c, 0, 64, 115
1, 257468, Control_c, 0, 64, 85
1, 257483, Control_c, 0, 64, 68
1, 257498, Control_c, 0, 64, 0
1, 257557, Control_c, 0, 64, 27
1, 257571, Control_c, 0, 64, 63
1, 257587, Control_c, 0, 64, 71
1, 257602, Control_c, 0, 64, 81
1, 257614, Note_off_c, 0, 52, 62
1, 257617, Control_c, 0, 64, 93
1, 257632, Control_c, 0, 64, 105
1, 257647, Control_c, 0, 64, 117
1, 257661, Control_c, 0, 64, 127
1, 257741, Note_off_c, 0, 40, 41
1, 257757, Note_off_c, 0, 36, 39
1, 257882, Note_on_c, 0, 40, 44
1, 257883, Note_on_c, 0, 36, 42
1, 258029, Note_off_c, 0, 40, 43
1, 258040, Note_off_c, 0, 36, 34
1, 258295, Note_on_c, 0, 38, 41
1, 258299, Note_off_c, 0, 57, 58
1, 258312, Note_on_c, 0, 41, 60
1, 258365, Note_on_c, 0, 46, 82
1, 258414, Note_on_c, 0, 57, 60
1, 258514, Control_c, 0, 64, 99
1, 258529, Control_c, 0, 64, 83
1, 258544, Control_c, 0, 64, 69
1, 258558, Control_c, 0, 64, 43
1, 258570, Note_off_c, 0, 41, 34
1, 258573, Control_c, 0, 64, 0
1, 258646, Note_off_c, 0, 38, 44
1, 258647, Control_c, 0, 64, 17
1, 258662, Control_c, 0, 64, 60
1, 258677, Control_c, 0, 64, 68
1, 258691, Control_c, 0, 64, 74
1, 258706, Control_c, 0, 64, 81
1, 258721, Control_c, 0, 64, 87
1, 258736, Control_c, 0, 64, 91
1, 258751, Control_c, 0, 64, 95
1, 258766, Control_c, 0, 64, 98
1, 258781, Control_c, 0, 64, 100
1, 258795, Control_c, 0, 64, 100
1, 258848, Note_on_c, 0, 41, 48
1, 258850, Note_on_c, 0, 38, 40
1, 258869, Control_c, 0, 64, 100
1, 259064, Note_off_c, 0, 41, 44
1, 259110, Note_off_c, 0, 38, 34
1, 259282, Note_on_c, 0, 41, 53
1, 259287, Note_on_c, 0, 38, 39
1, 259489, Note_off_c, 0, 41, 38
1, 259527, Note_off_c, 0, 38, 41
1, 259745, Note_on_c, 0, 41, 52
1, 259762, Note_on_c, 0, 38, 40
1, 259879, Note_off_c, 0, 41, 37
1, 259923, Control_c, 0, 64, 100
1, 259929, Note_off_c, 0, 38, 39
1, 260119, Note_off_c, 0, 46, 58
1, 260131, Note_on_c, 0, 38, 43
1, 260134, Note_on_c, 0, 41, 60
1, 260204, Control_c, 0, 64, 100
1, 260212, Note_on_c, 0, 47, 72
1, 260308, Control_c, 0, 64, 97
1, 260322, Control_c, 0, 64, 90
1, 260337, Control_c, 0, 64, 80
1, 260352, Control_c, 0, 64, 69
1, 260367, Control_c, 0, 64, 56
1, 260382, Control_c, 0, 64, 11
1, 260396, Control_c, 0, 64, 0
1, 260426, Control_c, 0, 64, 11
1, 260448, Control_c, 0, 64, 43
1, 260463, Control_c, 0, 64, 60
1, 260478, Control_c, 0, 64, 66
1, 260493, Control_c, 0, 64, 72
1, 260507, Control_c, 0, 64, 78
1, 260522, Control_c, 0, 64, 84
1, 260525, Note_off_c, 0, 41, 35
1, 260537, Control_c, 0, 64, 88
1, 260540, Note_off_c, 0, 38, 42
1, 260552, Control_c, 0, 64, 91
1, 260567, Control_c, 0, 64, 94
1, 260583, Control_c, 0, 64, 95
1, 260642, Control_c, 0, 64, 95
1, 260665, Note_on_c, 0, 41, 55
1, 260686, Note_on_c, 0, 38, 40
1, 260701, Control_c, 0, 64, 96
1, 260731, Control_c, 0, 64, 96
1, 260745, Control_c, 0, 64, 97
1, 260775, Control_c, 0, 64, 97
1, 260790, Control_c, 0, 64, 98
1, 260820, Control_c, 0, 64, 98
1, 260862, Note_off_c, 0, 41, 32
1, 260864, Control_c, 0, 64, 99
1, 260887, Note_off_c, 0, 38, 40
1, 260894, Control_c, 0, 64, 99
1, 260909, Control_c, 0, 64, 100
1, 260953, Control_c, 0, 64, 100
1, 261105, Note_on_c, 0, 56, 68
1, 261115, Control_c, 0, 64, 99
1, 261130, Control_c, 0, 64, 94
1, 261132, Note_on_c, 0, 38, 41
1, 261133, Note_on_c, 0, 41, 45
1, 261145, Control_c, 0, 64, 83
1, 261160, Control_c, 0, 64, 70
1, 261175, Control_c, 0, 64, 35
1, 261197, Control_c, 0, 64, 0
1, 261283, Note_off_c, 0, 57, 57
1, 261301, Control_c, 0, 64, 17
1, 261316, Control_c, 0, 64, 63
1, 261330, Control_c, 0, 64, 70
1, 261345, Control_c, 0, 64, 77
1, 261360, Control_c, 0, 64, 85
1, 261376, Control_c, 0, 64, 93
1, 261391, Control_c, 0, 64, 100
1, 261406, Control_c, 0, 64, 103
1, 261420, Note_off_c, 0, 38, 41
1, 261420, Control_c, 0, 64, 106
1, 261423, Note_off_c, 0, 41, 40
1, 261435, Control_c, 0, 64, 107
1, 261450, Control_c, 0, 64, 108
1, 261465, Control_c, 0, 64, 109
1, 261547, Note_on_c, 0, 41, 46
1, 261553, Note_on_c, 0, 38, 47
1, 261741, Note_off_c, 0, 38, 39
1, 261881, Note_off_c, 0, 47, 57
1, 261899, Note_on_c, 0, 40, 44
1, 261981, Note_on_c, 0, 43, 48
1, 262006, Control_c, 0, 64, 108
1, 262020, Control_c, 0, 64, 108
1, 262021, Note_on_c, 0, 48, 67
1, 262034, Note_on_c, 0, 55, 63
1, 262035, Control_c, 0, 64, 106
1, 262050, Control_c, 0, 64, 105
1, 262064, Control_c, 0, 64, 102
1, 262079, Control_c, 0, 64, 99
1, 262084, Note_off_c, 0, 41, 33
1, 262094, Control_c, 0, 64, 93
1, 262109, Control_c, 0, 64, 85
1, 262124, Control_c, 0, 64, 75
1, 262138, Control_c, 0, 64, 62
1, 262153, Control_c, 0, 64, 0
1, 262181, Note_off_c, 0, 56, 61
1, 262282, Note_off_c, 0, 43, 55
1, 262303, Control_c, 0, 64, 53
1, 262314, Note_off_c, 0, 40, 49
1, 262317, Control_c, 0, 64, 67
1, 262332, Control_c, 0, 64, 73
1, 262347, Control_c, 0, 64, 81
1, 262362, Control_c, 0, 64, 89
1, 262376, Control_c, 0, 64, 95
1, 262391, Control_c, 0, 64, 99
1, 262406, Control_c, 0, 64, 101
1, 262421, Control_c, 0, 64, 102
1, 262436, Control_c, 0, 64, 102
1, 262450, Control_c, 0, 64, 103
1, 262525, Control_c, 0, 64, 102
1, 262532, Note_on_c, 0, 40, 42
1, 262534, Note_on_c, 0, 43, 40
1, 262540, Control_c, 0, 64, 97
1, 262555, Control_c, 0, 64, 85
1, 262569, Control_c, 0, 64, 72
1, 262584, Control_c, 0, 64, 64
1, 262599, Control_c, 0, 64, 64
1, 262614, Control_c, 0, 64, 66
1, 262629, Control_c, 0, 64, 68
1, 262643, Control_c, 0, 64, 72
1, 262658, Control_c, 0, 64, 76
1, 262673, Control_c, 0, 64, 82
1, 262695, Control_c, 0, 64, 88
1, 262710, Control_c, 0, 64, 95
1, 262725, Control_c, 0, 64, 99
1, 262739, Control_c, 0, 64, 100
1, 262754, Control_c, 0, 64, 101
1, 262769, Control_c, 0, 64, 102
1, 262784, Control_c, 0, 64, 102
1, 262790, Note_off_c, 0, 43, 40
1, 262799, Control_c, 0, 64, 104
1, 262805, Note_off_c, 0, 40, 42
1, 262814, Control_c, 0, 64, 104
1, 262829, Control_c, 0, 64, 105
1, 262987, Note_on_c, 0, 43, 43
1, 262991, Note_on_c, 0, 40, 38
1, 262992, Control_c, 0, 64, 103
1, 263007, Control_c, 0, 64, 94
1, 263022, Control_c, 0, 64, 82
1, 263037, Control_c, 0, 64, 71
1, 263052, Control_c, 0, 64, 65
1, 263066, Control_c, 0, 64, 66
1, 263081, Control_c, 0, 64, 68
1, 263096, Control_c, 0, 64, 70
1, 263111, Control_c, 0, 64, 74
1, 263125, Control_c, 0, 64, 78
1, 263140, Control_c, 0, 64, 84
1, 263155, Control_c, 0, 64, 91
1, 263170, Control_c, 0, 64, 101
1, 263185, Control_c, 0, 64, 108
1, 263199, Control_c, 0, 64, 114
1, 263214, Control_c, 0, 64, 127
1, 263273, Note_off_c, 0, 40, 41
1, 263282, Note_off_c, 0, 43, 33
1, 263459, Control_c, 0, 64, 122
1, 263464, Note_on_c, 0, 43, 40
1, 263469, Note_on_c, 0, 40, 41
1, 263473, Control_c, 0, 64, 100
1, 263488, Control_c, 0, 64, 86
1, 263503, Control_c, 0, 64, 74
1, 263518, Control_c, 0, 64, 68
1, 263532, Control_c, 0, 64, 66
1, 263547, Control_c, 0, 64, 68
1, 263562, Control_c, 0, 64, 70
1, 263577, Control_c, 0, 64, 73
1, 263591, Control_c, 0, 64, 77
1, 263606, Control_c, 0, 64, 83
1, 263621, Control_c, 0, 64, 89
1, 263636, Control_c, 0, 64, 97
1, 263651, Control_c, 0, 64, 104
1, 263665, Control_c, 0, 64, 108
1, 263680, Control_c, 0, 64, 112
1, 263695, Control_c, 0, 64, 116
1, 263710, Control_c, 0, 64, 127
1, 263728, Note_off_c, 0, 43, 40
1, 263729, Note_off_c, 0, 40, 38
1, 263909, Note_on_c, 0, 54, 59
1, 263932, Control_c, 0, 64, 120
1, 263938, Note_on_c, 0, 40, 35
1, 263938, Note_on_c, 0, 43, 35
1, 263947, Control_c, 0, 64, 106
1, 263962, Control_c, 0, 64, 93
1, 263977, Control_c, 0, 64, 80
1, 263992, Control_c, 0, 64, 69
1, 264006, Control_c, 0, 64, 58
1, 264021, Control_c, 0, 64, 27
1, 264036, Control_c, 0, 64, 0
1, 264081, Control_c, 0, 64, 50
1, 264094, Note_off_c, 0, 55, 53
1, 264096, Control_c, 0, 64, 64
1, 264111, Control_c, 0, 64, 72
1, 264126, Control_c, 0, 64, 83
1, 264140, Control_c, 0, 64, 96
1, 264155, Note_off_c, 0, 43, 61
1, 264155, Control_c, 0, 64, 108
1, 264170, Control_c, 0, 64, 127
1, 264218, Note_off_c, 0, 40, 41
1, 264359, Note_on_c, 0, 47, 60
1, 264394, Note_on_c, 0, 40, 39
1, 264402, Note_on_c, 0, 43, 48
1, 264414, Control_c, 0, 64, 124
1, 264429, Control_c, 0, 64, 95
1, 264444, Control_c, 0, 64, 78
1, 264459, Control_c, 0, 64, 67
1, 264474, Control_c, 0, 64, 56
1, 264488, Control_c, 0, 64, 47
1, 264503, Control_c, 0, 64, 49
1, 264518, Control_c, 0, 64, 56
1, 264533, Control_c, 0, 64, 63
1, 264537, Note_off_c, 0, 48, 49
1, 264547, Control_c, 0, 64, 67
1, 264563, Control_c, 0, 64, 73
1, 264578, Control_c, 0, 64, 82
1, 264593, Control_c, 0, 64, 94
1, 264605, Note_off_c, 0, 43, 39
1, 264608, Control_c, 0, 64, 113
1, 264623, Control_c, 0, 64, 127
1, 264630, Note_off_c, 0, 40, 41
1, 264800, Note_on_c, 0, 48, 75
1, 264830, Note_on_c, 0, 43, 52
1, 264836, Note_on_c, 0, 40, 48
1, 264859, Control_c, 0, 64, 97
1, 264871, Note_off_c, 0, 47, 56
1, 264874, Control_c, 0, 64, 78
1, 264889, Control_c, 0, 64, 63
1, 264904, Control_c, 0, 64, 0
1, 264970, Control_c, 0, 64, 23
1, 264985, Control_c, 0, 64, 59
1, 265000, Control_c, 0, 64, 67
1, 265015, Control_c, 0, 64, 74
1, 265030, Control_c, 0, 64, 81
1, 265044, Control_c, 0, 64, 90
1, 265059, Control_c, 0, 64, 98
1, 265074, Control_c, 0, 64, 107
1, 265088, Note_off_c, 0, 43, 32
1, 265088, Control_c, 0, 64, 126
1, 265103, Control_c, 0, 64, 127
1, 265133, Note_off_c, 0, 40, 34
1, 265249, Note_on_c, 0, 49, 84
1, 265276, Note_on_c, 0, 40, 42
1, 265294, Note_on_c, 0, 43, 51
1, 265296, Control_c, 0, 64, 99
1, 265311, Control_c, 0, 64, 79
1, 265326, Control_c, 0, 64, 64
1, 265341, Control_c, 0, 64, 0
1, 265358, Note_off_c, 0, 48, 53
1, 265420, Note_off_c, 0, 40, 60
1, 265446, Control_c, 0, 64, 53
1, 265460, Control_c, 0, 64, 68
1, 265475, Control_c, 0, 64, 75
1, 265490, Control_c, 0, 64, 84
1, 265505, Control_c, 0, 64, 94
1, 265519, Control_c, 0, 64, 103
1, 265527, Note_off_c, 0, 43, 58
1, 265534, Control_c, 0, 64, 111
1, 265549, Control_c, 0, 64, 126
1, 265564, Control_c, 0, 64, 127
1, 265650, Note_on_c, 0, 41, 55
1, 265670, Note_on_c, 0, 45, 59
1, 265731, Note_on_c, 0, 53, 68
1, 265749, Control_c, 0, 64, 123
1, 265762, Note_on_c, 0, 50, 74
1, 265764, Control_c, 0, 64, 110
1, 265779, Control_c, 0, 64, 97
1, 265793, Control_c, 0, 64, 83
1, 265808, Control_c, 0, 64, 69
1, 265818, Note_off_c, 0, 54, 61
1, 265823, Control_c, 0, 64, 48
1, 265836, Note_off_c, 0, 49, 60
1, 265838, Control_c, 0, 64, 0
1, 265986, Control_c, 0, 64, 57
1, 266001, Control_c, 0, 64, 67
1, 266015, Control_c, 0, 64, 76
1, 266030, Control_c, 0, 64, 90
1, 266045, Control_c, 0, 64, 108
1, 266055, Note_off_c, 0, 45, 57
1, 266060, Control_c, 0, 64, 127
1, 266061, Note_off_c, 0, 41, 53
1, 266237, Note_on_c, 0, 45, 52
1, 266239, Note_on_c, 0, 41, 48
1, 266269, Control_c, 0, 64, 93
1, 266283, Control_c, 0, 64, 72
1, 266298, Control_c, 0, 64, 55
1, 266313, Control_c, 0, 64, 45
1, 266328, Control_c, 0, 64, 57
1, 266342, Control_c, 0, 64, 65
1, 266357, Control_c, 0, 64, 71
1, 266372, Control_c, 0, 64, 79
1, 266387, Control_c, 0, 64, 94
1, 266402, Control_c, 0, 64, 127
1, 266480, Note_off_c, 0, 45, 43
1, 266508, Note_off_c, 0, 41, 36
1, 266704, Note_on_c, 0, 45, 52
1, 266705, Note_on_c, 0, 52, 63
1, 266710, Note_on_c, 0, 41, 51
1, 266734, Control_c, 0, 64, 92
1, 266749, Control_c, 0, 64, 71
1, 266764, Control_c, 0, 64, 0
1, 266796, Note_off_c, 0, 53, 62
1, 266823, Control_c, 0, 64, 24
1, 266838, Control_c, 0, 64, 63
1, 266853, Control_c, 0, 64, 72
1, 266868, Control_c, 0, 64, 83
1, 266877, Note_off_c, 0, 45, 57
1, 266883, Control_c, 0, 64, 108
1, 266898, Control_c, 0, 64, 127
1, 266913, Note_off_c, 0, 41, 54
1, 266924, Note_off_c, 0, 50, 55
1, 267020, Note_on_c, 0, 41, 46
1, 267043, Note_on_c, 0, 45, 55
1, 267116, Note_on_c, 0, 53, 76
1, 267187, Control_c, 0, 64, 116
1, 267202, Control_c, 0, 64, 85
1, 267217, Control_c, 0, 64, 66
1, 267232, Control_c, 0, 64, 0
1, 267276, Control_c, 0, 64, 43
1, 267291, Control_c, 0, 64, 64
1, 267306, Control_c, 0, 64, 73
1, 267321, Control_c, 0, 64, 84
1, 267336, Control_c, 0, 64, 104
1, 267351, Control_c, 0, 64, 127
1, 267414, Note_off_c, 0, 45, 31
1, 267474, Note_off_c, 0, 52, 62
1, 267479, Note_off_c, 0, 41, 40
1, 267521, Note_off_c, 0, 53, 63
1, 267564, Note_on_c, 0, 57, 77
1, 267583, Note_on_c, 0, 52, 72
1, 267604, Note_on_c, 0, 45, 57
1, 267610, Note_on_c, 0, 41, 44
1, 267631, Control_c, 0, 64, 100
1, 267646, Control_c, 0, 64, 72
1, 267661, Control_c, 0, 64, 0
1, 267735, Control_c, 0, 64, 36
1, 267750, Control_c, 0, 64, 65
1, 267766, Control_c, 0, 64, 75
1, 267780, Control_c, 0, 64, 87
1, 267795, Control_c, 0, 64, 108
1, 267810, Control_c, 0, 64, 127
1, 267853, Note_off_c, 0, 45, 58
1, 267888, Note_off_c, 0, 41, 55
1, 268024, Note_on_c, 0, 41, 54
1, 268029, Note_on_c, 0, 45, 55
1, 268212, Note_off_c, 0, 52, 57
1, 268291, Note_off_c, 0, 45, 35
1, 268310, Note_off_c, 0, 41, 35
1, 268463, Note_on_c, 0, 62, 84
1, 268487, Note_on_c, 0, 41, 42
1, 268489, Note_on_c, 0, 45, 46
1, 268491, Note_on_c, 0, 50, 57
1, 268513, Control_c, 0, 64, 98
1, 268528, Control_c, 0, 64, 76
1, 268543, Control_c, 0, 64, 50
1, 268559, Control_c, 0, 64, 0
1, 268618, Control_c, 0, 64, 47
1, 268633, Control_c, 0, 64, 66
1, 268648, Control_c, 0, 64, 74
1, 268663, Control_c, 0, 64, 85
1, 268685, Control_c, 0, 64, 100
1, 268700, Control_c, 0, 64, 113
1, 268715, Control_c, 0, 64, 122
1, 268730, Control_c, 0, 64, 127
1, 268807, Note_off_c, 0, 45, 44
1, 268813, Note_off_c, 0, 41, 41
1, 268913, Note_on_c, 0, 41, 56
1, 268919, Note_on_c, 0, 45, 52
1, 269017, Note_off_c, 0, 45, 64
1, 269032, Note_off_c, 0, 41, 58
1, 269308, Note_off_c, 0, 62, 57
1, 269323, Note_on_c, 0, 43, 46
1, 269328, Note_off_c, 0, 50, 59
1, 269345, Note_on_c, 0, 46, 64
1, 269399, Note_on_c, 0, 51, 89
1, 269444, Note_on_c, 0, 62, 69
1, 269456, Note_on_c, 0, 50, 53
1, 269479, Control_c, 0, 64, 112
1, 269494, Control_c, 0, 64, 96
1, 269508, Control_c, 0, 64, 83
1, 269523, Control_c, 0, 64, 73
1, 269538, Control_c, 0, 64, 64
1, 269552, Control_c, 0, 64, 44
1, 269567, Control_c, 0, 64, 0
1, 269568, Note_off_c, 0, 46, 38
1, 269643, Note_off_c, 0, 43, 50
1, 269656, Control_c, 0, 64, 21
1, 269671, Control_c, 0, 64, 54
1, 269680, Note_off_c, 0, 57, 47
1, 269685, Control_c, 0, 64, 64
1, 269700, Control_c, 0, 64, 69
1, 269715, Control_c, 0, 64, 73
1, 269730, Control_c, 0, 64, 78
1, 269745, Control_c, 0, 64, 81
1, 269760, Control_c, 0, 64, 82
1, 269774, Control_c, 0, 64, 83
1, 269789, Control_c, 0, 64, 84
1, 269804, Control_c, 0, 64, 85
1, 269834, Control_c, 0, 64, 85
1, 269864, Control_c, 0, 64, 85
1, 269908, Control_c, 0, 64, 83
1, 269923, Control_c, 0, 64, 80
1, 269925, Note_on_c, 0, 46, 53
1, 269926, Note_on_c, 0, 43, 47
1, 269938, Control_c, 0, 64, 73
1, 269952, Control_c, 0, 64, 64
1, 269967, Control_c, 0, 64, 45
1, 269982, Control_c, 0, 64, 0
1, 270012, Control_c, 0, 64, 33
1, 270026, Control_c, 0, 64, 53
1, 270041, Control_c, 0, 64, 62
1, 270056, Control_c, 0, 64, 66
1, 270071, Control_c, 0, 64, 71
1, 270085, Control_c, 0, 64, 76
1, 270100, Control_c, 0, 64, 81
1, 270115, Control_c, 0, 64, 86
1, 270130, Control_c, 0, 64, 90
1, 270145, Control_c, 0, 64, 93
1, 270161, Control_c, 0, 64, 95
1, 270183, Control_c, 0, 64, 97
1, 270185, Note_off_c, 0, 46, 28
1, 270198, Control_c, 0, 64, 99
1, 270213, Control_c, 0, 64, 99
1, 270221, Note_off_c, 0, 43, 30
1, 270228, Control_c, 0, 64, 100
1, 270257, Control_c, 0, 64, 100
1, 270272, Control_c, 0, 64, 101
1, 270381, Note_on_c, 0, 43, 45
1, 270386, Note_on_c, 0, 46, 49
1, 270558, Note_off_c, 0, 46, 30
1, 270570, Note_off_c, 0, 43, 41
1, 270818, Note_on_c, 0, 46, 48
1, 270825, Note_on_c, 0, 43, 36
1, 271019, Note_off_c, 0, 46, 37
1, 271059, Note_off_c, 0, 43, 35
1, 271106, Note_off_c, 0, 51, 54
1, 271196, Note_on_c, 0, 43, 35
1, 271229, Note_on_c, 0, 46, 55
1, 271302, Note_on_c, 0, 52, 77
1, 271317, Control_c, 0, 64, 100
1, 271331, Control_c, 0, 64, 98
1, 271346, Control_c, 0, 64, 91
1, 271361, Control_c, 0, 64, 81
1, 271376, Control_c, 0, 64, 69
1, 271391, Control_c, 0, 64, 49
1, 271405, Control_c, 0, 64, 0
1, 271509, Control_c, 0, 64, 61
1, 271512, Note_off_c, 0, 46, 30
1, 271524, Control_c, 0, 64, 70
1, 271539, Control_c, 0, 64, 80
1, 271554, Control_c, 0, 64, 90
1, 271569, Control_c, 0, 64, 100
1, 271584, Control_c, 0, 64, 106
1, 271598, Control_c, 0, 64, 109
1, 271613, Control_c, 0, 64, 111
1, 271623, Note_off_c, 0, 43, 39
1, 271628, Control_c, 0, 64, 113
1, 271655, Note_off_c, 0, 50, 63
1, 271657, Control_c, 0, 64, 113
1, 271679, Control_c, 0, 64, 114
1, 271747, Note_on_c, 0, 43, 51
1, 271761, Note_on_c, 0, 46, 51
1, 271973, Note_off_c, 0, 43, 35
1, 271977, Note_off_c, 0, 46, 28
1, 272197, Note_on_c, 0, 61, 75
1, 272238, Note_on_c, 0, 46, 39
1, 272243, Control_c, 0, 64, 113
1, 272246, Note_on_c, 0, 43, 38
1, 272249, Note_on_c, 0, 49, 40
1, 272258, Control_c, 0, 64, 107
1, 272272, Control_c, 0, 64, 96
1, 272287, Control_c, 0, 64, 81
1, 272302, Control_c, 0, 64, 65
1, 272317, Control_c, 0, 64, 0
1, 272356, Note_off_c, 0, 62, 53
1, 272392, Control_c, 0, 64, 55
1, 272407, Control_c, 0, 64, 67
1, 272428, Control_c, 0, 64, 76
1, 272443, Control_c, 0, 64, 86
1, 272458, Control_c, 0, 64, 96
1, 272473, Control_c, 0, 64, 102
1, 272487, Control_c, 0, 64, 106
1, 272502, Control_c, 0, 64, 108
1, 272517, Control_c, 0, 64, 109
1, 272523, Note_off_c, 0, 46, 41
1, 272532, Control_c, 0, 64, 110
1, 272538, Note_off_c, 0, 43, 40
1, 272547, Control_c, 0, 64, 111
1, 272563, Control_c, 0, 64, 111
1, 272696, Note_on_c, 0, 43, 32
1, 272696, Note_on_c, 0, 46, 42
1, 272808, Note_off_c, 0, 46, 54
1, 272833, Note_off_c, 0, 43, 34
1, 272849, Note_off_c, 0, 49, 35
1, 272906, Note_off_c, 0, 52, 49
1, 273192, Control_c, 0, 64, 110
1, 273198, Note_on_c, 0, 60, 56
1, 273207, Control_c, 0, 64, 106
1, 273210, Note_on_c, 0, 45, 41
1, 273217, Note_on_c, 0, 53, 45
1, 273221, Control_c, 0, 64, 95
1, 273223, Note_on_c, 0, 47, 36
1, 273229, Note_on_c, 0, 48, 43
1, 273236, Control_c, 0, 64, 79
1, 273251, Control_c, 0, 64, 63
1, 273266, Control_c, 0, 64, 0
1, 273298, Note_off_c, 0, 61, 49
1, 273357, Control_c, 0, 64, 58
1, 273372, Control_c, 0, 64, 67
1, 273387, Control_c, 0, 64, 74
1, 273401, Control_c, 0, 64, 79
1, 273416, Control_c, 0, 64, 84
1, 273431, Control_c, 0, 64, 87
1, 273446, Control_c, 0, 64, 89
1, 273461, Control_c, 0, 64, 91
1, 273465, Note_off_c, 0, 48, 41
1, 273469, Note_off_c, 0, 45, 44
1, 273475, Control_c, 0, 64, 92
1, 273490, Control_c, 0, 64, 93
1, 273505, Control_c, 0, 64, 93
1, 273623, Control_c, 0, 64, 94
1, 273653, Control_c, 0, 64, 95
1, 273657, Note_on_c, 0, 52, 56
1, 273667, Control_c, 0, 64, 95
1, 273676, Note_off_c, 0, 53, 32
1, 273682, Control_c, 0, 64, 96
1, 273689, Note_on_c, 0, 45, 44
1, 273697, Control_c, 0, 64, 97
1, 273712, Control_c, 0, 64, 98
1, 273727, Control_c, 0, 64, 99
1, 273742, Control_c, 0, 64, 100
1, 273757, Control_c, 0, 64, 100
1, 273772, Control_c, 0, 64, 101
1, 273787, Control_c, 0, 64, 101
1, 273801, Note_off_c, 0, 45, 0
1, 273801, Control_c, 0, 64, 102
1, 273816, Control_c, 0, 64, 102
1, 273826, Poly_aftertouch_c, 0, 45, 0
1, 273831, Control_c, 0, 64, 103
1, 273845, Control_c, 0, 64, 103
1, 273860, Control_c, 0, 64, 104
1, 273875, Control_c, 0, 64, 104
1, 273890, Control_c, 0, 64, 105
1, 273905, Control_c, 0, 64, 105
1, 273927, Control_c, 0, 64, 106
1, 273986, Control_c, 0, 64, 106
1, 274088, Note_off_c, 0, 47, 43
1, 274090, Control_c, 0, 64, 106
1, 274105, Control_c, 0, 64, 103
1, 274112, Note_on_c, 0, 45, 45
1, 274117, Note_on_c, 0, 48, 52
1, 274118, Note_on_c, 0, 53, 55
1, 274120, Control_c, 0, 64, 91
1, 274134, Control_c, 0, 64, 76
1, 274143, Note_off_c, 0, 52, 53
1, 274150, Control_c, 0, 64, 61
1, 274165, Control_c, 0, 64, 0
1, 274239, Control_c, 0, 64, 56
1, 274254, Control_c, 0, 64, 67
1, 274268, Control_c, 0, 64, 76
1, 274283, Control_c, 0, 64, 87
1, 274298, Control_c, 0, 64, 105
1, 274313, Control_c, 0, 64, 127
1, 274442, Note_off_c, 0, 48, 54
1, 274449, Note_off_c, 0, 45, 37
1, 274571, Note_on_c, 0, 57, 70
1, 274574, Note_on_c, 0, 48, 57
1, 274575, Note_on_c, 0, 45, 51
1, 274595, Control_c, 0, 64, 105
1, 274609, Control_c, 0, 64, 85
1, 274624, Control_c, 0, 64, 71
1, 274639, Control_c, 0, 64, 60
1, 274654, Control_c, 0, 64, 55
1, 274675, Control_c, 0, 64, 61
1, 274690, Control_c, 0, 64, 67
1, 274705, Control_c, 0, 64, 73
1, 274720, Control_c, 0, 64, 80
1, 274735, Control_c, 0, 64, 90
1, 274750, Control_c, 0, 64, 104
1, 274764, Control_c, 0, 64, 127
1, 274779, Control_c, 0, 67, 125
1, 274794, Control_c, 0, 67, 122
1, 274809, Control_c, 0, 67, 119
1, 274823, Control_c, 0, 67, 117
1, 274827, Note_off_c, 0, 45, 36
1, 274838, Control_c, 0, 67, 115
1, 274853, Control_c, 0, 67, 113
1, 274868, Control_c, 0, 67, 111
1, 274882, Control_c, 0, 67, 109
1, 274897, Control_c, 0, 67, 107
1, 274912, Control_c, 0, 67, 105
1, 274927, Control_c, 0, 67, 104
1, 274942, Control_c, 0, 67, 102
1, 274958, Control_c, 0, 67, 102
1, 275022, Note_on_c, 0, 49, 73
1, 275030, Note_on_c, 0, 56, 75
1, 275034, Note_on_c, 0, 45, 61
1, 275046, Control_c, 0, 64, 100
1, 275061, Control_c, 0, 64, 75
1, 275074, Note_off_c, 0, 57, 60
1, 275076, Control_c, 0, 64, 55
1, 275083, Note_off_c, 0, 48, 52
1, 275090, Control_c, 0, 64, 0
1, 275125, Note_off_c, 0, 53, 62
1, 275164, Control_c, 0, 67, 101
1, 275179, Control_c, 0, 64, 26
1, 275179, Control_c, 0, 67, 101
1, 275194, Control_c, 0, 64, 64
1, 275194, Control_c, 0, 67, 100
1, 275209, Control_c, 0, 64, 73
1, 275209, Control_c, 0, 67, 100
1, 275223, Note_off_c, 0, 60, 58
1, 275224, Control_c, 0, 64, 84
1, 275224, Control_c, 0, 67, 97
1, 275239, Control_c, 0, 64, 99
1, 275239, Control_c, 0, 67, 94
1, 275253, Control_c, 0, 64, 127
1, 275253, Control_c, 0, 67, 90
1, 275268, Control_c, 0, 67, 86
1, 275283, Control_c, 0, 67, 83
1, 275298, Control_c, 0, 67, 80
1, 275313, Control_c, 0, 67, 78
1, 275325, Note_off_c, 0, 45, 50
1, 275328, Control_c, 0, 67, 76
1, 275343, Control_c, 0, 67, 76
1, 275358, Control_c, 0, 67, 75
1, 275387, Control_c, 0, 67, 74
1, 275423, Control_c, 0, 67, 74
1, 275462, Note_on_c, 0, 50, 87
1, 275463, Note_on_c, 0, 57, 79
1, 275468, Note_on_c, 0, 45, 67
1, 275493, Note_off_c, 0, 49, 63
1, 275498, Control_c, 0, 64, 89
1, 275513, Control_c, 0, 64, 69
1, 275528, Control_c, 0, 64, 0
1, 275542, Control_c, 0, 67, 73
1, 275567, Note_off_c, 0, 56, 57
1, 275631, Control_c, 0, 67, 73
1, 275646, Control_c, 0, 64, 63
1, 275646, Control_c, 0, 67, 72
1, 275661, Control_c, 0, 64, 72
1, 275661, Control_c, 0, 67, 72
1, 275676, Control_c, 0, 64, 83
1, 275676, Control_c, 0, 67, 70
1, 275691, Control_c, 0, 64, 103
1, 275691, Control_c, 0, 67, 68
1, 275705, Control_c, 0, 64, 127
1, 275705, Control_c, 0, 67, 64
1, 275720, Control_c, 0, 67, 61
1, 275735, Control_c, 0, 67, 58
1, 275751, Control_c, 0, 67, 56
1, 275766, Control_c, 0, 67, 53
1, 275778, Note_off_c, 0, 45, 37
1, 275781, Control_c, 0, 67, 51
1, 275795, Control_c, 0, 67, 49
1, 275810, Control_c, 0, 67, 47
1, 275825, Control_c, 0, 67, 46
1, 275840, Control_c, 0, 67, 46
1, 275884, Control_c, 0, 67, 45
1, 275894, Note_on_c, 0, 51, 89
1, 275898, Note_on_c, 0, 60, 86
1, 275909, Note_on_c, 0, 45, 59
1, 275914, Control_c, 0, 64, 107
1, 275928, Control_c, 0, 64, 78
1, 275943, Control_c, 0, 64, 40
1, 275949, Note_off_c, 0, 50, 58
1, 275958, Control_c, 0, 64, 0
1, 275976, Note_off_c, 0, 57, 48
1, 276002, Control_c, 0, 67, 45
1, 276017, Control_c, 0, 67, 44
1, 276032, Control_c, 0, 64, 55
1, 276032, Control_c, 0, 67, 43
1, 276046, Control_c, 0, 64, 70
1, 276046, Control_c, 0, 67, 42
1, 276061, Control_c, 0, 64, 84
1, 276061, Control_c, 0, 67, 39
1, 276076, Control_c, 0, 64, 113
1, 276076, Control_c, 0, 67, 36
1, 276091, Control_c, 0, 64, 127
1, 276091, Control_c, 0, 67, 31
1, 276106, Control_c, 0, 67, 25
1, 276121, Control_c, 0, 67, 20
1, 276136, Control_c, 0, 67, 13
1, 276151, Control_c, 0, 67, 0
1, 276159, Note_off_c, 0, 45, 34
1, 276350, Note_on_c, 0, 50, 92
1, 276350, Note_on_c, 0, 65, 96
1, 276351, Note_on_c, 0, 45, 83
1, 276365, Control_c, 0, 64, 104
1, 276377, Note_off_c, 0, 60, 63
1, 276380, Control_c, 0, 64, 73
1, 276388, Note_off_c, 0, 51, 65
1, 276395, Control_c, 0, 64, 0
1, 276454, Control_c, 0, 64, 42
1, 276469, Control_c, 0, 64, 67
1, 276484, Control_c, 0, 64, 83
1, 276499, Control_c, 0, 64, 113
1, 276514, Control_c, 0, 64, 127
1, 276574, Note_off_c, 0, 45, 62
1, 276622, Note_off_c, 0, 65, 56
1, 276878, Note_off_c, 0, 50, 61
1, 276879, Note_on_c, 0, 49, 103
1, 276883, Note_on_c, 0, 65, 98
1, 276884, Note_on_c, 0, 43, 90
1, 276889, Note_on_c, 0, 56, 100
1, 276890, Note_on_c, 0, 60, 93
1, 276966, Control_c, 0, 64, 83
1, 276981, Control_c, 0, 64, 36
1, 276996, Control_c, 0, 64, 0
1, 277113, Control_c, 0, 64, 53
1, 277128, Control_c, 0, 64, 66
1, 277143, Control_c, 0, 64, 73
1, 277158, Control_c, 0, 64, 83
1, 277173, Control_c, 0, 64, 92
1, 277188, Control_c, 0, 64, 101
1, 277203, Control_c, 0, 64, 111
1, 277217, Control_c, 0, 64, 127
1, 277276, Control_c, 0, 67, 8
1, 277291, Control_c, 0, 67, 11
1, 277306, Control_c, 0, 67, 13
1, 277316, Note_off_c, 0, 56, 57
1, 277321, Control_c, 0, 67, 16
1, 277322, Note_off_c, 0, 60, 55
1, 277336, Control_c, 0, 67, 18
1, 277352, Control_c, 0, 67, 21
1, 277366, Control_c, 0, 67, 24
1, 277381, Control_c, 0, 67, 28
1, 277396, Control_c, 0, 67, 32
1, 277411, Control_c, 0, 67, 36
1, 277426, Control_c, 0, 67, 40
1, 277440, Control_c, 0, 67, 45
1, 277455, Control_c, 0, 67, 50
1, 277470, Control_c, 0, 67, 57
1, 277480, Note_on_c, 0, 60, 57
1, 277482, Note_on_c, 0, 56, 58
1, 277485, Control_c, 0, 67, 64
1, 277499, Control_c, 0, 67, 73
1, 277514, Control_c, 0, 67, 80
1, 277529, Control_c, 0, 67, 88
1, 277544, Control_c, 0, 67, 96
1, 277559, Control_c, 0, 67, 105
1, 277573, Control_c, 0, 67, 113
1, 277588, Control_c, 0, 67, 120
1, 277603, Control_c, 0, 67, 127
1, 277618, Control_c, 0, 67, 127
1, 277636, Note_off_c, 0, 56, 61
1, 277640, Note_off_c, 0, 60, 61
1, 277735, Poly_aftertouch_c, 0, 64, 127
1, 277891, Control_c, 0, 64, 110
1, 277892, Note_on_c, 0, 60, 65
1, 277894, Note_on_c, 0, 62, 66
1, 277895, Note_on_c, 0, 50, 68
1, 277904, Note_on_c, 0, 53, 58
1, 277906, Control_c, 0, 64, 77
1, 277917, Note_off_c, 0, 65, 56
1, 277921, Control_c, 0, 64, 36
1, 277927, Note_off_c, 0, 49, 61
1, 277932, Poly_aftertouch_c, 0, 64, 0
1, 277936, Control_c, 0, 64, 0
1, 278025, Control_c, 0, 64, 35
1, 278040, Control_c, 0, 64, 65
1, 278055, Control_c, 0, 64, 72
1, 278070, Control_c, 0, 64, 78
1, 278085, Control_c, 0, 64, 84
1, 278099, Control_c, 0, 64, 88
1, 278114, Control_c, 0, 64, 91
1, 278129, Control_c, 0, 64, 94
1, 278145, Control_c, 0, 64, 96
1, 278160, Control_c, 0, 64, 97
1, 278175, Control_c, 0, 64, 99
1, 278189, Control_c, 0, 64, 99
1, 278201, Note_off_c, 0, 60, 50
1, 278209, Note_off_c, 0, 53, 58
1, 278318, Note_off_c, 0, 43, 60
1, 278321, Note_on_c, 0, 60, 61
1, 278324, Note_on_c, 0, 44, 60
1, 278335, Note_on_c, 0, 53, 57
1, 278352, Control_c, 0, 64, 99
1, 278554, Note_off_c, 0, 60, 63
1, 278650, Note_off_c, 0, 53, 55
1, 278759, Control_c, 0, 64, 98
1, 278774, Control_c, 0, 64, 96
1, 278777, Note_on_c, 0, 59, 55
1, 278789, Note_on_c, 0, 43, 47
1, 278789, Control_c, 0, 64, 88
1, 278798, Note_on_c, 0, 55, 53
1, 278804, Control_c, 0, 64, 76
1, 278818, Control_c, 0, 64, 62
1, 278821, Note_off_c, 0, 44, 59
1, 278833, Control_c, 0, 64, 0
1, 278922, Control_c, 0, 64, 56
1, 278931, Note_off_c, 0, 50, 33
1, 278938, Control_c, 0, 64, 67
1, 278953, Control_c, 0, 64, 75
1, 278968, Control_c, 0, 64, 86
1, 278982, Control_c, 0, 64, 97
1, 278997, Control_c, 0, 64, 104
1, 279012, Control_c, 0, 64, 108
1, 279027, Control_c, 0, 64, 109
1, 279096, Note_off_c, 0, 59, 28
1, 279242, Control_c, 0, 64, 106
1, 279257, Control_c, 0, 64, 94
1, 279259, Note_on_c, 0, 59, 45
1, 279262, Note_on_c, 0, 54, 52
1, 279262, Note_off_c, 0, 55, 32
1, 279271, Control_c, 0, 64, 79
1, 279286, Control_c, 0, 64, 65
1, 279289, Note_on_c, 0, 50, 32
1, 279301, Control_c, 0, 64, 0
1, 279345, Control_c, 0, 64, 52
1, 279360, Control_c, 0, 64, 64
1, 279375, Control_c, 0, 64, 69
1, 279390, Control_c, 0, 64, 76
1, 279405, Control_c, 0, 64, 83
1, 279419, Control_c, 0, 64, 92
1, 279434, Control_c, 0, 64, 98
1, 279449, Control_c, 0, 64, 103
1, 279463, Control_c, 0, 64, 105
1, 279478, Control_c, 0, 64, 106
1, 279493, Control_c, 0, 64, 107
1, 279500, Note_off_c, 0, 59, 36
1, 279508, Control_c, 0, 64, 108
1, 279523, Control_c, 0, 64, 108
1, 279537, Control_c, 0, 64, 109
1, 279552, Control_c, 0, 64, 110
1, 279662, Note_off_c, 0, 50, 45
1, 279686, Control_c, 0, 64, 110
1, 279701, Control_c, 0, 64, 109
1, 279702, Note_on_c, 0, 59, 51
1, 279710, Note_on_c, 0, 49, 46
1, 279714, Note_on_c, 0, 52, 49
1, 279716, Control_c, 0, 64, 101
1, 279731, Control_c, 0, 64, 83
1, 279746, Control_c, 0, 64, 67
1, 279754, Note_off_c, 0, 54, 35
1, 279760, Control_c, 0, 64, 0
1, 279850, Control_c, 0, 64, 59
1, 279865, Control_c, 0, 64, 68
1, 279879, Control_c, 0, 64, 76
1, 279894, Control_c, 0, 64, 85
1, 279916, Control_c, 0, 64, 95
1, 279931, Control_c, 0, 64, 99
1, 279946, Control_c, 0, 64, 102
1, 279950, Note_off_c, 0, 59, 35
1, 279961, Control_c, 0, 64, 103
1, 279975, Control_c, 0, 64, 105
1, 279990, Note_off_c, 0, 49, 33
1, 279990, Control_c, 0, 64, 106
1, 280005, Control_c, 0, 64, 107
1, 280020, Control_c, 0, 64, 108
1, 280139, Control_c, 0, 64, 108
1, 280169, Control_c, 0, 64, 104
1, 280177, Note_on_c, 0, 59, 47
1, 280181, Note_on_c, 0, 53, 50
1, 280184, Control_c, 0, 64, 94
1, 280194, Note_on_c, 0, 49, 40
1, 280199, Control_c, 0, 64, 77
1, 280205, Note_off_c, 0, 52, 37
1, 280213, Control_c, 0, 64, 62
1, 280228, Control_c, 0, 64, 0
1, 280262, Note_off_c, 0, 62, 32
1, 280317, Control_c, 0, 64, 43
1, 280332, Control_c, 0, 64, 66
1, 280347, Control_c, 0, 64, 73
1, 280361, Control_c, 0, 64, 81
1, 280376, Control_c, 0, 64, 88
1, 280386, Note_off_c, 0, 43, 54
1, 280391, Control_c, 0, 64, 92
1, 280406, Control_c, 0, 64, 96
1, 280410, Note_off_c, 0, 59, 38
1, 280420, Control_c, 0, 64, 99
1, 280434, Note_off_c, 0, 49, 44
1, 280435, Control_c, 0, 64, 102
1, 280450, Control_c, 0, 64, 104
1, 280465, Control_c, 0, 64, 105
1, 280494, Control_c, 0, 64, 105
1, 280509, Control_c, 0, 64, 106
1, 280524, Control_c, 0, 64, 107
1, 280628, Control_c, 0, 64, 106
1, 280666, Control_c, 0, 64, 102
1, 280681, Control_c, 0, 64, 89
1, 280696, Control_c, 0, 64, 73
1, 280700, Note_on_c, 0, 60, 50
1, 280700, Note_off_c, 0, 53, 44
1, 280707, Note_on_c, 0, 47, 39
1, 280711, Control_c, 0, 64, 50
1, 280716, Note_on_c, 0, 45, 24
1, 280717, Note_on_c, 0, 48, 43
1, 280725, Control_c, 0, 64, 0
1, 280785, Control_c, 0, 64, 36
1, 280799, Control_c, 0, 64, 63
1, 280814, Control_c, 0, 64, 70
1, 280829, Control_c, 0, 64, 76
1, 280843, Control_c, 0, 64, 82
1, 280858, Control_c, 0, 64, 86
1, 280873, Control_c, 0, 64, 87
1, 280888, Control_c, 0, 64, 87
1, 280917, Control_c, 0, 64, 88
1, 280932, Control_c, 0, 64, 88
1, 280939, Note_off_c, 0, 47, 40
1, 280947, Control_c, 0, 64, 90
1, 280953, Note_off_c, 0, 45, 41
1, 280962, Control_c, 0, 64, 91
1, 280977, Control_c, 0, 64, 92
1, 280992, Control_c, 0, 64, 92
1, 281006, Control_c, 0, 64, 93
1, 281021, Control_c, 0, 64, 93
1, 281081, Control_c, 0, 64, 94
1, 281125, Control_c, 0, 64, 93
1, 281140, Control_c, 0, 64, 89
1, 281153, Note_on_c, 0, 52, 47
1, 281155, Control_c, 0, 64, 79
1, 281167, Note_on_c, 0, 45, 33
1, 281168, Note_on_c, 0, 47, 36
1, 281170, Control_c, 0, 64, 69
1, 281184, Control_c, 0, 64, 63
1, 281185, Note_off_c, 0, 48, 43
1, 281199, Control_c, 0, 64, 63
1, 281214, Control_c, 0, 64, 65
1, 281229, Control_c, 0, 64, 68
1, 281243, Control_c, 0, 64, 73
1, 281258, Control_c, 0, 64, 78
1, 281273, Control_c, 0, 64, 84
1, 281288, Control_c, 0, 64, 91
1, 281303, Control_c, 0, 64, 98
1, 281317, Control_c, 0, 64, 103
1, 281318, Note_off_c, 0, 45, 43
1, 281333, Control_c, 0, 64, 106
1, 281348, Control_c, 0, 64, 107
1, 281363, Control_c, 0, 64, 108
1, 281378, Control_c, 0, 64, 109
1, 281393, Control_c, 0, 64, 111
1, 281415, Control_c, 0, 64, 113
1, 281430, Control_c, 0, 64, 114
1, 281445, Control_c, 0, 64, 115
1, 281562, Control_c, 0, 64, 114
1, 281577, Control_c, 0, 64, 102
1, 281592, Control_c, 0, 64, 84
1, 281594, Note_on_c, 0, 53, 54
1, 281595, Note_off_c, 0, 47, 44
1, 281597, Note_on_c, 0, 48, 43
1, 281606, Control_c, 0, 64, 68
1, 281614, Note_on_c, 0, 45, 34
1, 281621, Control_c, 0, 64, 0
1, 281632, Note_off_c, 0, 52, 50
1, 281665, Control_c, 0, 64, 28
1, 281680, Control_c, 0, 64, 61
1, 281695, Control_c, 0, 64, 68
1, 281710, Control_c, 0, 64, 75
1, 281725, Control_c, 0, 64, 86
1, 281740, Control_c, 0, 64, 95
1, 281755, Control_c, 0, 64, 103
1, 281770, Control_c, 0, 64, 110
1, 281784, Control_c, 0, 64, 116
1, 281799, Control_c, 0, 64, 123
1, 281814, Control_c, 0, 64, 127
1, 281821, Note_off_c, 0, 45, 38
1, 281845, Note_off_c, 0, 48, 54
1, 282037, Note_on_c, 0, 57, 60
1, 282053, Note_on_c, 0, 45, 48
1, 282059, Note_on_c, 0, 48, 48
1, 282065, Control_c, 0, 64, 96
1, 282080, Control_c, 0, 64, 78
1, 282095, Control_c, 0, 64, 65
1, 282110, Control_c, 0, 64, 59
1, 282125, Control_c, 0, 64, 63
1, 282141, Control_c, 0, 64, 66
1, 282163, Control_c, 0, 64, 71
1, 282178, Control_c, 0, 64, 77
1, 282193, Control_c, 0, 64, 85
1, 282208, Control_c, 0, 64, 98
1, 282223, Control_c, 0, 64, 114
1, 282235, Note_off_c, 0, 53, 32
1, 282237, Control_c, 0, 64, 127
1, 282303, Note_off_c, 0, 45, 45
1, 282490, Note_on_c, 0, 56, 69
1, 282496, Note_on_c, 0, 49, 68
1, 282503, Note_on_c, 0, 45, 53
1, 282529, Note_off_c, 0, 57, 61
1, 282533, Note_off_c, 0, 48, 55
1, 282533, Control_c, 0, 64, 98
1, 282548, Control_c, 0, 64, 77
1, 282562, Control_c, 0, 64, 59
1, 282577, Control_c, 0, 64, 0
1, 282637, Control_c, 0, 64, 57
1, 282652, Control_c, 0, 64, 67
1, 282667, Control_c, 0, 64, 76
1, 282681, Control_c, 0, 64, 90
1, 282696, Control_c, 0, 64, 109
1, 282711, Control_c, 0, 64, 127
1, 282751, Note_off_c, 0, 45, 58
1, 282923, Note_off_c, 0, 60, 56
1, 282950, Note_on_c, 0, 45, 63
1, 282951, Note_on_c, 0, 57, 74
1, 282953, Note_on_c, 0, 50, 73
1, 282986, Control_c, 0, 64, 95
1, 283001, Control_c, 0, 64, 75
1, 283005, Note_off_c, 0, 49, 62
1, 283016, Control_c, 0, 64, 55
1, 283030, Control_c, 0, 64, 0
1, 283072, Note_off_c, 0, 56, 59
1, 283105, Control_c, 0, 64, 47
1, 283120, Control_c, 0, 64, 65
1, 283135, Control_c, 0, 64, 73
1, 283150, Control_c, 0, 64, 85
1, 283150, Control_c, 0, 67, 126
1, 283165, Control_c, 0, 64, 101
1, 283165, Control_c, 0, 67, 124
1, 283180, Control_c, 0, 64, 127
1, 283180, Control_c, 0, 67, 122
1, 283194, Control_c, 0, 67, 120
1, 283209, Control_c, 0, 67, 118
1, 283224, Control_c, 0, 67, 116
1, 283238, Control_c, 0, 67, 113
1, 283246, Note_off_c, 0, 45, 37
1, 283253, Control_c, 0, 67, 111
1, 283268, Control_c, 0, 67, 109
1, 283283, Control_c, 0, 67, 106
1, 283298, Control_c, 0, 67, 104
1, 283312, Control_c, 0, 67, 102
1, 283327, Control_c, 0, 67, 100
1, 283342, Control_c, 0, 67, 99
1, 283357, Control_c, 0, 67, 98
1, 283372, Control_c, 0, 67, 97
1, 283379, Note_on_c, 0, 51, 85
1, 283388, Note_on_c, 0, 60, 81
1, 283396, Note_on_c, 0, 45, 67
1, 283429, Note_off_c, 0, 50, 60
1, 283430, Control_c, 0, 64, 95
1, 283445, Control_c, 0, 64, 73
1, 283460, Control_c, 0, 64, 14
1, 283475, Control_c, 0, 64, 0
1, 283475, Control_c, 0, 67, 97
1, 283487, Note_off_c, 0, 57, 37
1, 283490, Control_c, 0, 67, 96
1, 283504, Control_c, 0, 67, 96
1, 283519, Control_c, 0, 67, 94
1, 283534, Control_c, 0, 64, 44
1, 283534, Control_c, 0, 67, 92
1, 283549, Control_c, 0, 64, 65
1, 283549, Control_c, 0, 67, 90
1, 283564, Control_c, 0, 64, 74
1, 283564, Control_c, 0, 67, 88
1, 283579, Control_c, 0, 64, 87
1, 283579, Control_c, 0, 67, 85
1, 283594, Control_c, 0, 64, 110
1, 283594, Control_c, 0, 67, 82
1, 283609, Control_c, 0, 64, 127
1, 283609, Control_c, 0, 67, 78
1, 283621, Note_off_c, 0, 45, 59
1, 283624, Control_c, 0, 67, 75
1, 283638, Control_c, 0, 67, 72
1, 283660, Control_c, 0, 67, 69
1, 283675, Control_c, 0, 67, 67
1, 283690, Control_c, 0, 67, 65
1, 283705, Control_c, 0, 67, 63
1, 283719, Control_c, 0, 67, 62
1, 283735, Control_c, 0, 67, 60
1, 283750, Control_c, 0, 67, 59
1, 283765, Control_c, 0, 67, 58
1, 283780, Control_c, 0, 67, 58
1, 283809, Control_c, 0, 67, 57
1, 283839, Control_c, 0, 67, 57
1, 283854, Control_c, 0, 67, 56
1, 283856, Note_on_c, 0, 50, 90
1, 283859, Note_on_c, 0, 65, 92
1, 283862, Note_on_c, 0, 45, 78
1, 283868, Control_c, 0, 67, 56
1, 283883, Control_c, 0, 67, 55
1, 283898, Note_off_c, 0, 51, 64
1, 283898, Control_c, 0, 64, 95
1, 283901, Note_off_c, 0, 60, 64
1, 283913, Control_c, 0, 64, 70
1, 283913, Control_c, 0, 67, 55
1, 283928, Control_c, 0, 64, 0
1, 283928, Control_c, 0, 67, 54
1, 283943, Control_c, 0, 67, 54
1, 283958, Control_c, 0, 67, 53
1, 283972, Control_c, 0, 67, 51
1, 283987, Control_c, 0, 67, 48
1, 284002, Control_c, 0, 67, 45
1, 284017, Control_c, 0, 64, 63
1, 284017, Control_c, 0, 67, 42
1, 284032, Control_c, 0, 64, 72
1, 284032, Control_c, 0, 67, 38
1, 284047, Control_c, 0, 64, 83
1, 284047, Control_c, 0, 67, 34
1, 284061, Control_c, 0, 64, 99
1, 284061, Control_c, 0, 67, 29
1, 284076, Control_c, 0, 64, 127
1, 284076, Control_c, 0, 67, 24
1, 284091, Control_c, 0, 67, 17
1, 284106, Control_c, 0, 67, 9
1, 284121, Control_c, 0, 67, 0
1, 284136, Note_off_c, 0, 45, 59
1, 284157, Note_off_c, 0, 65, 56
1, 284393, Note_on_c, 0, 49, 99
1, 284398, Note_on_c, 0, 65, 94
1, 284409, Note_on_c, 0, 43, 86
1, 284409, Note_on_c, 0, 56, 92
1, 284410, Note_on_c, 0, 59, 91
1, 284430, Note_off_c, 0, 50, 66
1, 284483, Control_c, 0, 64, 89
1, 284498, Control_c, 0, 64, 68
1, 284513, Control_c, 0, 64, 0
1, 284632, Control_c, 0, 64, 57
1, 284647, Control_c, 0, 64, 67
1, 284662, Control_c, 0, 64, 73
1, 284677, Control_c, 0, 64, 81
1, 284691, Control_c, 0, 64, 87
1, 284706, Control_c, 0, 64, 92
1, 284721, Control_c, 0, 64, 96
1, 284736, Control_c, 0, 64, 99
1, 284751, Control_c, 0, 64, 102
1, 284765, Control_c, 0, 64, 104
1, 284780, Control_c, 0, 64, 106
1, 284795, Control_c, 0, 64, 107
1, 284810, Control_c, 0, 64, 108
1, 284825, Control_c, 0, 64, 108
1, 284828, Note_off_c, 0, 56, 58
1, 284834, Note_off_c, 0, 59, 55
1, 284840, Control_c, 0, 64, 109
1, 284855, Control_c, 0, 64, 109
1, 284933, Note_on_c, 0, 56, 62
1, 284937, Note_on_c, 0, 59, 67
1, 285242, Note_off_c, 0, 59, 52
1, 285246, Note_off_c, 0, 56, 54
1, 285247, Control_c, 0, 67, 8
1, 285262, Control_c, 0, 67, 9
1, 285277, Control_c, 0, 67, 10
1, 285290, Control_c, 0, 67, 11
1, 285305, Control_c, 0, 67, 13
1, 285320, Control_c, 0, 67, 14
1, 285336, Control_c, 0, 67, 15
1, 285351, Control_c, 0, 67, 15
1, 285366, Control_c, 0, 67, 16
1, 285380, Control_c, 0, 67, 17
1, 285395, Note_on_c, 0, 59, 56
1, 285395, Control_c, 0, 64, 109
1, 285395, Control_c, 0, 67, 18
1, 285400, Note_on_c, 0, 56, 51
1, 285410, Control_c, 0, 64, 102
1, 285410, Control_c, 0, 67, 20
1, 285424, Control_c, 0, 64, 89
1, 285424, Control_c, 0, 67, 22
1, 285439, Control_c, 0, 64, 73
1, 285439, Control_c, 0, 67, 23
1, 285454, Control_c, 0, 64, 61
1, 285454, Control_c, 0, 67, 25
1, 285469, Control_c, 0, 64, 11
1, 285469, Control_c, 0, 67, 27
1, 285484, Control_c, 0, 64, 0
1, 285484, Control_c, 0, 67, 29
1, 285499, Control_c, 0, 67, 32
1, 285514, Control_c, 0, 67, 37
1, 285528, Control_c, 0, 67, 41
1, 285543, Control_c, 0, 64, 45
1, 285543, Control_c, 0, 67, 46
1, 285558, Control_c, 0, 64, 63
1, 285558, Control_c, 0, 67, 50
1, 285573, Control_c, 0, 64, 70
1, 285573, Control_c, 0, 67, 54
1, 285588, Control_c, 0, 64, 79
1, 285588, Control_c, 0, 67, 57
1, 285603, Control_c, 0, 64, 89
1, 285603, Control_c, 0, 67, 60
1, 285618, Control_c, 0, 64, 101
1, 285618, Control_c, 0, 67, 62
1, 285632, Control_c, 0, 64, 110
1, 285632, Control_c, 0, 67, 64
1, 285647, Control_c, 0, 64, 116
1, 285647, Control_c, 0, 67, 65
1, 285662, Control_c, 0, 64, 123
1, 285662, Control_c, 0, 67, 65
1, 285677, Control_c, 0, 64, 127
1, 285677, Control_c, 0, 67, 66
1, 285686, Note_off_c, 0, 56, 54
1, 285692, Control_c, 0, 67, 66
1, 285696, Note_off_c, 0, 59, 53
1, 285706, Control_c, 0, 67, 67
1, 285721, Control_c, 0, 67, 68
1, 285736, Control_c, 0, 67, 69
1, 285751, Control_c, 0, 67, 70
1, 285766, Control_c, 0, 67, 72
1, 285781, Control_c, 0, 67, 73
1, 285795, Control_c, 0, 67, 75
1, 285810, Control_c, 0, 64, 109
1, 285810, Control_c, 0, 67, 76
1, 285824, Control_c, 0, 64, 95
1, 285824, Control_c, 0, 67, 77
1, 285830, Note_on_c, 0, 59, 49
1, 285835, Note_on_c, 0, 51, 68
1, 285839, Note_on_c, 0, 56, 43
1, 285839, Control_c, 0, 64, 80
1, 285839, Control_c, 0, 67, 78
1, 285854, Control_c, 0, 64, 67
1, 285854, Control_c, 0, 67, 79
1, 285869, Control_c, 0, 64, 24
1, 285884, Control_c, 0, 64, 0
1, 285924, Note_off_c, 0, 49, 59
1, 285966, Control_c, 0, 67, 80
1, 285980, Control_c, 0, 67, 81
1, 285995, Control_c, 0, 64, 23
1, 285995, Control_c, 0, 67, 84
1, 286010, Control_c, 0, 64, 65
1, 286010, Control_c, 0, 67, 87
1, 286025, Control_c, 0, 64, 73
1, 286025, Control_c, 0, 67, 90
1, 286040, Control_c, 0, 64, 81
1, 286040, Control_c, 0, 67, 94
1, 286050, Note_off_c, 0, 59, 51
1, 286055, Control_c, 0, 64, 93
1, 286055, Control_c, 0, 67, 98
1, 286070, Control_c, 0, 64, 104
1, 286070, Control_c, 0, 67, 103
1, 286085, Control_c, 0, 64, 117
1, 286085, Control_c, 0, 67, 110
1, 286100, Control_c, 0, 64, 127
1, 286100, Control_c, 0, 67, 116
1, 286114, Control_c, 0, 67, 121
1, 286130, Control_c, 0, 67, 126
1, 286134, Note_off_c, 0, 56, 56
1, 286145, Control_c, 0, 67, 127
1, 286333, Note_on_c, 0, 62, 50
1, 286360, Note_on_c, 0, 50, 49
1, 286360, Note_on_c, 0, 59, 44
1, 286363, Note_on_c, 0, 55, 41
1, 286367, Control_c, 0, 64, 105
1, 286382, Control_c, 0, 64, 83
1, 286397, Control_c, 0, 64, 64
1, 286399, Note_off_c, 0, 51, 59
1, 286411, Control_c, 0, 64, 0
1, 286485, Note_off_c, 0, 65, 55
1, 286530, Control_c, 0, 64, 44
1, 286545, Control_c, 0, 64, 67
1, 286560, Control_c, 0, 64, 77
1, 286574, Control_c, 0, 64, 93
1, 286587, Note_off_c, 0, 50, 64
1, 286589, Control_c, 0, 64, 117
1, 286604, Control_c, 0, 64, 127
1, 286625, Note_off_c, 0, 43, 62
1, 286819, Control_c, 0, 64, 115
1, 286825, Note_on_c, 0, 41, 44
1, 286831, Note_on_c, 0, 38, 51
1, 286834, Control_c, 0, 64, 98
1, 286849, Control_c, 0, 64, 85
1, 286863, Control_c, 0, 64, 71
1, 286878, Control_c, 0, 64, 60
1, 286893, Control_c, 0, 64, 0
1, 287276, Note_on_c, 0, 40, 42
1, 287298, Note_on_c, 0, 36, 34
1, 287320, Note_off_c, 0, 41, 41
1, 287356, Note_off_c, 0, 38, 41
1, 287386, Note_off_c, 0, 55, 52
1, 287498, Note_off_c, 0, 59, 52
1, 287516, Note_off_c, 0, 62, 60
1, 287746, Note_on_c, 0, 35, 37
1, 287751, Note_on_c, 0, 38, 40
1, 287753, Note_off_c, 0, 40, 39
1, 287772, Note_off_c, 0, 36, 41
1, 288223, Note_on_c, 0, 64, 67
1, 288265, Note_off_c, 0, 38, 43
1, 288271, Note_off_c, 0, 35, 43
1, 288282, Note_on_c, 0, 33, 32
1, 288295, Note_on_c, 0, 36, 39
1, 288345, Control_c, 0, 64, 56
1, 288359, Control_c, 0, 64, 68
1, 288374, Control_c, 0, 64, 77
1, 288389, Control_c, 0, 64, 92
1, 288404, Control_c, 0, 64, 118
1, 288419, Control_c, 0, 64, 127
1, 288472, Note_off_c, 0, 33, 39
1, 288494, Note_off_c, 0, 36, 37
1, 288573, Note_on_c, 0, 57, 34
1, 288783, Note_on_c, 0, 69, 52
1, 288793, Note_on_c, 0, 60, 43
1, 288829, Note_off_c, 0, 69, 62
1, 288844, Note_off_c, 0, 57, 34
1, 288991, Note_on_c, 0, 52, 48
1, 289001, Note_off_c, 0, 60, 59
1, 289027, Note_off_c, 0, 52, 57
1, 289186, Note_on_c, 0, 57, 49
1, 289228, Note_off_c, 0, 57, 62
1, 289393, Note_on_c, 0, 53, 39
1, 289581, Note_off_c, 0, 53, 46
1, 289583, Note_on_c, 0, 45, 42
1, 289591, Note_on_c, 0, 60, 41
1, 289711, Note_off_c, 0, 45, 35
1, 289792, Note_on_c, 0, 52, 45
1, 289817, Note_off_c, 0, 64, 35
1, 290005, Note_on_c, 0, 65, 74
1, 290021, Control_c, 0, 64, 115
1, 290036, Control_c, 0, 64, 83
1, 290041, Note_on_c, 0, 40, 50
1, 290051, Control_c, 0, 64, 65
1, 290065, Control_c, 0, 64, 17
1, 290080, Control_c, 0, 64, 38
1, 290095, Control_c, 0, 64, 62
1, 290110, Control_c, 0, 64, 69
1, 290125, Control_c, 0, 64, 79
1, 290140, Control_c, 0, 64, 96
1, 290155, Control_c, 0, 64, 127
1, 290162, Note_off_c, 0, 40, 61
1, 290285, Note_on_c, 0, 57, 39
1, 290333, Note_off_c, 0, 60, 54
1, 290462, Note_on_c, 0, 69, 51
1, 290476, Note_on_c, 0, 60, 46
1, 290504, Note_off_c, 0, 69, 61
1, 290519, Note_off_c, 0, 52, 35
1, 290674, Note_on_c, 0, 52, 44
1, 290681, Note_off_c, 0, 57, 40
1, 290721, Note_off_c, 0, 52, 55
1, 290741, Note_off_c, 0, 60, 53
1, 290855, Note_on_c, 0, 57, 50
1, 290904, Note_off_c, 0, 57, 61
1, 291061, Note_on_c, 0, 53, 38
1, 291246, Note_off_c, 0, 53, 56
1, 291247, Note_on_c, 0, 45, 45
1, 291263, Note_on_c, 0, 60, 42
1, 291344, Note_off_c, 0, 45, 58
1, 291474, Note_on_c, 0, 52, 40
1, 291514, Note_off_c, 0, 65, 56
1, 291714, Note_on_c, 0, 66, 73
1, 291719, Note_off_c, 0, 52, 38
1, 291758, Note_on_c, 0, 32, 50
1, 291771, Control_c, 0, 64, 103
1, 291786, Control_c, 0, 64, 77
1, 291800, Control_c, 0, 64, 34
1, 291815, Control_c, 0, 64, 0
1, 291845, Control_c, 0, 64, 27
1, 291860, Control_c, 0, 64, 61
1, 291875, Control_c, 0, 64, 69
1, 291897, Control_c, 0, 64, 80
1, 291912, Control_c, 0, 64, 98
1, 291927, Control_c, 0, 64, 127
1, 291930, Note_off_c, 0, 32, 59
1, 292009, Note_on_c, 0, 58, 38
1, 292224, Note_on_c, 0, 62, 42
1, 292236, Note_on_c, 0, 70, 41
1, 292252, Note_off_c, 0, 60, 30
1, 292277, Note_off_c, 0, 70, 57
1, 292420, Note_on_c, 0, 53, 44
1, 292466, Note_off_c, 0, 53, 52
1, 292493, Note_off_c, 0, 62, 55
1, 292579, Note_off_c, 0, 58, 0
1, 292595, Note_on_c, 0, 58, 41
1, 292668, Note_off_c, 0, 58, 57
1, 292819, Note_on_c, 0, 54, 45
1, 292972, Note_off_c, 0, 54, 49
1, 293009, Note_on_c, 0, 62, 38
1, 293010, Note_on_c, 0, 46, 41
1, 293050, Note_off_c, 0, 46, 59
1, 293205, Note_on_c, 0, 54, 40
1, 293402, Note_on_c, 0, 38, 58
1, 293410, Control_c, 0, 64, 96
1, 293425, Control_c, 0, 64, 71
1, 293440, Control_c, 0, 64, 38
1, 293454, Control_c, 0, 64, 0
1, 293469, Control_c, 0, 64, 27
1, 293484, Control_c, 0, 64, 62
1, 293499, Control_c, 0, 64, 69
1, 293514, Control_c, 0, 64, 81
1, 293520, Note_off_c, 0, 38, 62
1, 293528, Control_c, 0, 64, 100
1, 293543, Control_c, 0, 64, 127
1, 293607, Note_on_c, 0, 58, 50
1, 293656, Note_off_c, 0, 62, 53
1, 293675, Note_off_c, 0, 66, 38
1, 293793, Note_off_c, 0, 54, 38
1, 293812, Note_on_c, 0, 66, 62
1, 293823, Note_on_c, 0, 70, 60
1, 293847, Note_on_c, 0, 62, 39
1, 293863, Note_off_c, 0, 58, 37
1, 293863, Note_off_c, 0, 70, 58
1, 294003, Note_on_c, 0, 54, 54
1, 294021, Note_off_c, 0, 62, 40
1, 294042, Note_off_c, 0, 54, 56
1, 294226, Note_on_c, 0, 67, 70
1, 294252, Note_on_c, 0, 58, 56
1, 294333, Note_off_c, 0, 58, 36
1, 294351, Control_c, 0, 67, 127
1, 294366, Control_c, 0, 67, 124
1, 294381, Control_c, 0, 67, 121
1, 294395, Control_c, 0, 67, 118
1, 294410, Control_c, 0, 67, 115
1, 294425, Control_c, 0, 67, 113
1, 294440, Control_c, 0, 67, 111
1, 294447, Note_on_c, 0, 58, 52
1, 294455, Control_c, 0, 67, 110
1, 294469, Control_c, 0, 67, 109
1, 294484, Control_c, 0, 67, 109
1, 294514, Control_c, 0, 67, 108
1, 294543, Control_c, 0, 67, 108
1, 294555, Note_off_c, 0, 58, 58
1, 294558, Control_c, 0, 67, 107
1, 294623, Note_on_c, 0, 68, 77
1, 294641, Note_on_c, 0, 46, 51
1, 294647, Control_c, 0, 67, 107
1, 294659, Note_off_c, 0, 67, 57
1, 294662, Note_off_c, 0, 66, 50
1, 294671, Note_on_c, 0, 62, 44
1, 294695, Note_off_c, 0, 46, 57
1, 294721, Control_c, 0, 67, 107
1, 294736, Control_c, 0, 67, 108
1, 294751, Control_c, 0, 67, 108
1, 294766, Control_c, 0, 67, 109
1, 294795, Control_c, 0, 67, 109
1, 294811, Note_on_c, 0, 54, 56
1, 294820, Note_off_c, 0, 62, 38
1, 294825, Control_c, 0, 67, 110
1, 294849, Note_off_c, 0, 54, 64
1, 294966, Control_c, 0, 67, 110
1, 294996, Control_c, 0, 67, 111
1, 295011, Control_c, 0, 67, 111
1, 295026, Control_c, 0, 67, 112
1, 295041, Control_c, 0, 67, 113
1, 295046, Note_on_c, 0, 69, 74
1, 295055, Control_c, 0, 67, 113
1, 295066, Note_on_c, 0, 30, 62
1, 295070, Control_c, 0, 67, 114
1, 295083, Note_off_c, 0, 68, 61
1, 295085, Control_c, 0, 64, 88
1, 295085, Control_c, 0, 67, 114
1, 295100, Control_c, 0, 64, 67
1, 295100, Control_c, 0, 67, 115
1, 295115, Control_c, 0, 64, 0
1, 295115, Control_c, 0, 67, 115
1, 295130, Control_c, 0, 67, 116
1, 295174, Control_c, 0, 67, 117
1, 295189, Control_c, 0, 64, 52
1, 295204, Control_c, 0, 64, 69
1, 295218, Control_c, 0, 64, 85
1, 295227, Note_off_c, 0, 30, 60
1, 295233, Control_c, 0, 64, 127
1, 295267, Note_on_c, 0, 60, 49
1, 295336, Control_c, 0, 67, 116
1, 295366, Control_c, 0, 67, 116
1, 295464, Note_off_c, 0, 60, 59
1, 295466, Note_on_c, 0, 72, 53
1, 295467, Note_on_c, 0, 64, 56
1, 295501, Note_off_c, 0, 72, 62
1, 295559, Control_c, 0, 67, 115
1, 295589, Control_c, 0, 67, 116
1, 295618, Control_c, 0, 67, 116
1, 295653, Note_off_c, 0, 64, 61
1, 295670, Note_on_c, 0, 57, 48
1, 295685, Control_c, 0, 67, 117
1, 295695, Note_off_c, 0, 57, 58
1, 295864, Note_on_c, 0, 60, 52
1, 295911, Note_off_c, 0, 60, 64
1, 295982, Control_c, 0, 67, 116
1, 296027, Control_c, 0, 67, 116
1, 296041, Note_on_c, 0, 59, 56
1, 296056, Control_c, 0, 67, 115
1, 296130, Control_c, 0, 67, 115
1, 296149, Note_off_c, 0, 59, 31
1, 296204, Control_c, 0, 67, 114
1, 296226, Note_on_c, 0, 72, 78
1, 296239, Note_on_c, 0, 48, 55
1, 296263, Control_c, 0, 67, 114
1, 296268, Note_on_c, 0, 64, 49
1, 296269, Note_off_c, 0, 48, 64
1, 296321, Note_off_c, 0, 72, 56
1, 296367, Control_c, 0, 67, 114
1, 296425, Note_on_c, 0, 57, 64
1, 296458, Note_off_c, 0, 57, 62
1, 296472, Note_off_c, 0, 64, 61
1, 296547, Note_off_c, 0, 69, 63
1, 296612, Control_c, 0, 67, 115
1, 296642, Control_c, 0, 67, 115
1, 296644, Note_on_c, 0, 76, 85
1, 296656, Note_on_c, 0, 36, 65
1, 296657, Control_c, 0, 64, 114
1, 296671, Control_c, 0, 64, 81
1, 296671, Control_c, 0, 67, 116
1, 296686, Control_c, 0, 64, 62
1, 296686, Control_c, 0, 67, 116
1, 296701, Control_c, 0, 64, 17
1, 296716, Control_c, 0, 64, 43
1, 296731, Control_c, 0, 64, 62
1, 296746, Control_c, 0, 64, 69
1, 296761, Control_c, 0, 64, 79
1, 296775, Note_off_c, 0, 36, 61
1, 296775, Control_c, 0, 64, 99
1, 296775, Control_c, 0, 67, 116
1, 296790, Control_c, 0, 64, 127
1, 296790, Control_c, 0, 67, 115
1, 296820, Control_c, 0, 67, 115
1, 296841, Note_on_c, 0, 64, 54
1, 296929, Note_off_c, 0, 64, 56
1, 296968, Control_c, 0, 67, 115
1, 297049, Note_on_c, 0, 69, 44
1, 297053, Note_on_c, 0, 72, 58
1, 297071, Control_c, 0, 67, 115
1, 297077, Note_off_c, 0, 72, 64
1, 297185, Note_off_c, 0, 69, 59
1, 297212, Control_c, 0, 67, 114
1, 297239, Note_on_c, 0, 65, 47
1, 297279, Note_off_c, 0, 65, 46
1, 297286, Control_c, 0, 67, 114
1, 297376, Control_c, 0, 67, 113
1, 297425, Note_off_c, 0, 76, 63
1, 297434, Note_on_c, 0, 81, 88
1, 297450, Control_c, 0, 67, 113
1, 297462, Note_on_c, 0, 60, 46
1, 297539, Control_c, 0, 67, 112
1, 297553, Control_c, 0, 67, 112
1, 297568, Control_c, 0, 67, 111
1, 297598, Control_c, 0, 67, 111
1, 297613, Control_c, 0, 67, 110
1, 297616, Note_on_c, 0, 66, 56
1, 297643, Control_c, 0, 67, 110
1, 297658, Control_c, 0, 67, 109
1, 297673, Control_c, 0, 67, 109
1, 297685, Note_off_c, 0, 60, 38
1, 297687, Control_c, 0, 67, 108
1, 297702, Control_c, 0, 67, 107
1, 297717, Control_c, 0, 67, 107
1, 297727, Note_off_c, 0, 66, 58
1, 297731, Control_c, 0, 67, 106
1, 297746, Control_c, 0, 67, 106
1, 297761, Control_c, 0, 67, 105
1, 297776, Control_c, 0, 67, 103
1, 297791, Control_c, 0, 67, 99
1, 297805, Control_c, 0, 67, 96
1, 297820, Control_c, 0, 67, 94
1, 297822, Note_on_c, 0, 48, 45
1, 297835, Control_c, 0, 67, 92
1, 297840, Note_on_c, 0, 76, 57
1, 297850, Control_c, 0, 67, 90
1, 297865, Control_c, 0, 67, 88
1, 297887, Control_c, 0, 67, 87
1, 297902, Control_c, 0, 67, 86
1, 297946, Control_c, 0, 67, 86
1, 297961, Control_c, 0, 67, 87
1, 297964, Note_off_c, 0, 48, 35
1, 297976, Control_c, 0, 67, 89
1, 297991, Control_c, 0, 67, 90
1, 298006, Control_c, 0, 67, 91
1, 298020, Control_c, 0, 67, 92
1, 298021, Note_on_c, 0, 69, 56
1, 298035, Control_c, 0, 67, 93
1, 298050, Control_c, 0, 67, 94
1, 298065, Control_c, 0, 67, 94
1, 298080, Control_c, 0, 67, 95
1, 298084, Note_off_c, 0, 81, 52
1, 298110, Control_c, 0, 67, 95
1, 298229, Control_c, 0, 67, 96
1, 298258, Control_c, 0, 67, 96
1, 298276, Note_on_c, 0, 81, 76
1, 298288, Control_c, 0, 67, 97
1, 298299, Note_on_c, 0, 58, 89
1, 298303, Control_c, 0, 67, 97
1, 298317, Note_off_c, 0, 76, 62
1, 298317, Control_c, 0, 67, 98
1, 298327, Note_on_c, 0, 46, 62
1, 298332, Control_c, 0, 64, 108
1, 298332, Control_c, 0, 67, 98
1, 298347, Control_c, 0, 64, 78
1, 298347, Control_c, 0, 67, 99
1, 298361, Control_c, 0, 64, 46
1, 298361, Control_c, 0, 67, 100
1, 298376, Control_c, 0, 64, 26
1, 298376, Control_c, 0, 67, 100
1, 298391, Control_c, 0, 64, 56
1, 298406, Control_c, 0, 64, 66
1, 298421, Control_c, 0, 64, 73
1, 298436, Control_c, 0, 64, 86
1, 298451, Control_c, 0, 64, 127
1, 298451, Control_c, 0, 67, 101
1, 298466, Control_c, 0, 67, 102
1, 298481, Control_c, 0, 67, 103
1, 298495, Control_c, 0, 67, 106
1, 298510, Control_c, 0, 67, 109
1, 298513, Note_off_c, 0, 58, 61
1, 298525, Control_c, 0, 67, 112
1, 298540, Control_c, 0, 67, 115
1, 298552, Note_off_c, 0, 46, 59
1, 298555, Control_c, 0, 67, 119
1, 298569, Control_c, 0, 67, 122
1, 298576, Note_on_c, 0, 77, 55
1, 298584, Control_c, 0, 67, 125
1, 298599, Control_c, 0, 67, 127
1, 298600, Note_on_c, 0, 74, 49
1, 298667, Note_off_c, 0, 69, 51
1, 298776, Note_off_c, 0, 77, 56
1, 298782, Note_on_c, 0, 69, 59
1, 298820, Note_on_c, 0, 29, 48
1, 298981, Note_on_c, 0, 77, 59
1, 299005, Note_off_c, 0, 74, 58
1, 299023, Note_off_c, 0, 81, 60
1, 299188, Note_on_c, 0, 81, 61
1, 299203, Note_off_c, 0, 29, 43
1, 299213, Note_off_c, 0, 77, 55
1, 299218, Note_on_c, 0, 41, 45
1, 299232, Note_on_c, 0, 74, 49
1, 299352, Note_off_c, 0, 41, 49
1, 299385, Note_off_c, 0, 69, 35
1, 299402, Note_on_c, 0, 77, 54
1, 299552, Note_off_c, 0, 74, 39
1, 299574, Note_off_c, 0, 77, 49
1, 299592, Note_on_c, 0, 69, 49
1, 299600, Note_on_c, 0, 53, 48
1, 299768, Note_off_c, 0, 81, 58
1, 299774, Note_off_c, 0, 69, 55
1, 299789, Note_on_c, 0, 77, 48
1, 299790, Note_on_c, 0, 74, 45
1, 299954, Note_off_c, 0, 74, 46
1, 299996, Note_on_c, 0, 59, 81
1, 300022, Note_on_c, 0, 47, 54
1, 300024, Note_off_c, 0, 53, 64
1, 300048, Note_on_c, 0, 65, 52
1, 300084, Note_off_c, 0, 59, 59
1, 300096, Note_off_c, 0, 47, 62
1, 300206, Note_off_c, 0, 65, 59
1, 300208, Note_on_c, 0, 74, 53
1, 300219, Note_on_c, 0, 68, 58
1, 300254, Note_off_c, 0, 68, 61
1, 300257, Note_off_c, 0, 74, 57
1, 300364, Note_off_c, 0, 77, 58
1, 300424, Note_on_c, 0, 29, 59
1, 300425, Note_on_c, 0, 69, 48
1, 300592, Note_off_c, 0, 69, 57
1, 300603, Note_on_c, 0, 77, 57
1, 300605, Note_on_c, 0, 74, 58
1, 300801, Note_on_c, 0, 80, 75
1, 300810, Note_off_c, 0, 77, 60
1, 300816, Control_c, 0, 64, 95
1, 300822, Note_on_c, 0, 41, 58
1, 300830, Control_c, 0, 64, 78
1, 300839, Note_off_c, 0, 74, 59
1, 300842, Note_on_c, 0, 68, 50
1, 300845, Control_c, 0, 64, 77
1, 300860, Control_c, 0, 64, 82
1, 300883, Control_c, 0, 64, 91
1, 300898, Control_c, 0, 64, 106
1, 300912, Control_c, 0, 64, 127
1, 300943, Note_off_c, 0, 29, 33
1, 300952, Note_off_c, 0, 68, 46
1, 301005, Note_on_c, 0, 77, 55
1, 301019, Note_off_c, 0, 41, 62
1, 301189, Note_off_c, 0, 77, 50
1, 301199, Note_on_c, 0, 53, 64
1, 301208, Note_on_c, 0, 68, 50
1, 301220, Note_on_c, 0, 74, 54
1, 301375, Note_off_c, 0, 68, 48
1, 301379, Note_on_c, 0, 77, 56
1, 301400, Note_off_c, 0, 80, 54
1, 301491, Note_off_c, 0, 74, 50
1, 301608, Note_on_c, 0, 60, 83
1, 301616, Note_on_c, 0, 79, 81
1, 301616, Note_off_c, 0, 77, 60
1, 301632, Note_on_c, 0, 48, 70
1, 301637, Note_on_c, 0, 67, 70
1, 301646, Control_c, 0, 64, 94
1, 301654, Note_off_c, 0, 53, 63
1, 301660, Control_c, 0, 64, 69
1, 301675, Control_c, 0, 64, 0
1, 301704, Control_c, 0, 64, 59
1, 301719, Control_c, 0, 64, 68
1, 301734, Control_c, 0, 64, 81
1, 301749, Control_c, 0, 64, 116
1, 301765, Control_c, 0, 64, 127
1, 301783, Note_off_c, 0, 60, 64
1, 301795, Note_off_c, 0, 48, 63
1, 301804, Note_off_c, 0, 67, 54
1, 301814, Note_on_c, 0, 76, 63
1, 301817, Note_on_c, 0, 71, 62
1, 301855, Note_off_c, 0, 71, 57
1, 301907, Note_off_c, 0, 76, 58
1, 301972, Control_c, 0, 67, 126
1, 302001, Control_c, 0, 67, 126
1, 302016, Control_c, 0, 67, 125
1, 302019, Note_on_c, 0, 40, 62
1, 302031, Note_on_c, 0, 72, 67
1, 302031, Control_c, 0, 67, 124
1, 302046, Control_c, 0, 67, 122
1, 302054, Note_off_c, 0, 79, 33
1, 302061, Control_c, 0, 67, 119
1, 302075, Control_c, 0, 67, 117
1, 302090, Control_c, 0, 67, 113
1, 302106, Control_c, 0, 67, 111
1, 302120, Control_c, 0, 67, 108
1, 302135, Control_c, 0, 67, 105
1, 302150, Control_c, 0, 67, 102
1, 302165, Control_c, 0, 67, 98
1, 302180, Control_c, 0, 67, 94
1, 302195, Note_off_c, 0, 72, 58
1, 302195, Control_c, 0, 67, 92
1, 302209, Note_on_c, 0, 75, 54
1, 302210, Note_on_c, 0, 79, 58
1, 302210, Control_c, 0, 67, 90
1, 302225, Control_c, 0, 67, 88
1, 302239, Control_c, 0, 67, 85
1, 302254, Note_off_c, 0, 75, 54
1, 302254, Control_c, 0, 67, 82
1, 302269, Control_c, 0, 67, 81
1, 302284, Control_c, 0, 67, 81
1, 302343, Control_c, 0, 67, 81
1, 302358, Control_c, 0, 67, 82
1, 302395, Control_c, 0, 67, 82
1, 302403, Note_off_c, 0, 79, 54
1, 302424, Note_on_c, 0, 84, 64
1, 302427, Note_on_c, 0, 52, 49
1, 302428, Note_on_c, 0, 76, 60
1, 302439, Control_c, 0, 67, 83
1, 302478, Note_off_c, 0, 40, 34
1, 302601, Control_c, 0, 67, 83
1, 302603, Note_off_c, 0, 84, 59
1, 302609, Note_on_c, 0, 79, 58
1, 302616, Control_c, 0, 67, 84
1, 302646, Control_c, 0, 67, 84
1, 302651, Note_off_c, 0, 79, 59
1, 302675, Control_c, 0, 67, 85
1, 302713, Note_off_c, 0, 76, 60
1, 302720, Control_c, 0, 67, 85
1, 302750, Note_off_c, 0, 52, 53
1, 302798, Note_on_c, 0, 40, 48
1, 302805, Note_on_c, 0, 76, 51
1, 302822, Note_on_c, 0, 72, 51
1, 302956, Note_off_c, 0, 72, 61
1, 302976, Note_on_c, 0, 67, 56
1, 303017, Control_c, 0, 67, 86
1, 303047, Control_c, 0, 67, 86
1, 303060, Note_off_c, 0, 67, 57
1, 303091, Control_c, 0, 67, 87
1, 303169, Note_off_c, 0, 40, 41
1, 303190, Note_on_c, 0, 78, 78
1, 303191, Note_off_c, 0, 76, 62
1, 303192, Note_on_c, 0, 28, 64
1, 303226, Note_off_c, 0, 28, 61
1, 303405, Note_on_c, 0, 66, 42
1, 303454, Control_c, 0, 67, 86
1, 303587, Control_c, 0, 67, 86
1, 303605, Note_on_c, 0, 76, 55
1, 303622, Note_on_c, 0, 59, 67
1, 303623, Note_off_c, 0, 66, 33
1, 303632, Note_on_c, 0, 72, 44
1, 303644, Note_on_c, 0, 47, 49
1, 303676, Control_c, 0, 67, 85
1, 303792, Note_off_c, 0, 72, 55
1, 303795, Control_c, 0, 67, 85
1, 303801, Note_on_c, 0, 67, 53
1, 303842, Note_off_c, 0, 47, 59
1, 303858, Note_off_c, 0, 76, 34
1, 303880, Note_off_c, 0, 59, 59
1, 303940, Note_off_c, 0, 67, 48
1, 304007, Note_on_c, 0, 60, 84
1, 304016, Note_on_c, 0, 48, 78
1, 304020, Note_on_c, 0, 76, 57
1, 304028, Note_on_c, 0, 71, 55
1, 304070, Control_c, 0, 67, 84
1, 304099, Control_c, 0, 67, 84
1, 304114, Control_c, 0, 67, 83
1, 304129, Control_c, 0, 67, 83
1, 304189, Note_off_c, 0, 60, 61
1, 304195, Note_off_c, 0, 71, 64
1, 304210, Note_on_c, 0, 66, 60
1, 304277, Control_c, 0, 67, 83
1, 304292, Control_c, 0, 67, 84
1, 304321, Control_c, 0, 67, 84
1, 304351, Control_c, 0, 67, 85
1, 304380, Control_c, 0, 67, 85
1, 304388, Note_on_c, 0, 61, 91
1, 304395, Control_c, 0, 67, 86
1, 304398, Note_on_c, 0, 49, 82
1, 304410, Control_c, 0, 67, 86
1, 304418, Note_on_c, 0, 70, 64
1, 304425, Control_c, 0, 67, 87
1, 304427, Note_off_c, 0, 48, 61
1, 304431, Note_off_c, 0, 66, 53
1, 304440, Control_c, 0, 64, 117
1, 304454, Control_c, 0, 64, 86
1, 304454, Control_c, 0, 67, 87
1, 304469, Control_c, 0, 64, 71
1, 304469, Control_c, 0, 67, 88
1, 304484, Control_c, 0, 64, 64
1, 304500, Control_c, 0, 64, 64
1, 304515, Control_c, 0, 64, 66
1, 304529, Control_c, 0, 64, 70
1, 304544, Control_c, 0, 64, 77
1, 304559, Control_c, 0, 64, 90
1, 304561, Note_off_c, 0, 76, 55
1, 304574, Control_c, 0, 64, 127
1, 304594, Note_off_c, 0, 78, 58
1, 304599, Note_on_c, 0, 65, 62
1, 304603, Control_c, 0, 67, 87
1, 304641, Control_c, 0, 67, 87
1, 304657, Note_off_c, 0, 61, 61
1, 304669, Note_off_c, 0, 49, 63
1, 304847, Note_on_c, 0, 62, 86
1, 304856, Note_on_c, 0, 77, 88
1, 304863, Control_c, 0, 64, 111
1, 304863, Control_c, 0, 67, 87
1, 304864, Note_on_c, 0, 50, 72
1, 304878, Control_c, 0, 64, 79
1, 304892, Control_c, 0, 64, 49
1, 304907, Control_c, 0, 64, 0
1, 304937, Control_c, 0, 67, 87
1, 304941, Note_off_c, 0, 70, 62
1, 304967, Control_c, 0, 64, 65
1, 304967, Control_c, 0, 67, 86
1, 304982, Control_c, 0, 64, 79
1, 304982, Control_c, 0, 67, 86
1, 304996, Control_c, 0, 64, 114
1, 304996, Control_c, 0, 67, 85
1, 305011, Control_c, 0, 64, 127
1, 305026, Control_c, 0, 67, 85
1, 305052, Note_off_c, 0, 62, 63
1, 305083, Note_on_c, 0, 69, 58
1, 305085, Control_c, 0, 67, 85
1, 305086, Note_off_c, 0, 50, 65
1, 305100, Control_c, 0, 67, 86
1, 305129, Control_c, 0, 67, 86
1, 305189, Control_c, 0, 67, 86
1, 305319, Note_on_c, 0, 26, 70
1, 305323, Control_c, 0, 67, 85
1, 305325, Note_on_c, 0, 74, 61
1, 305340, Note_off_c, 0, 65, 38
1, 305352, Control_c, 0, 67, 85
1, 305390, Control_c, 0, 67, 84
1, 305434, Control_c, 0, 67, 84
1, 305479, Control_c, 0, 67, 83
1, 305509, Control_c, 0, 67, 83
1, 305518, Note_on_c, 0, 65, 56
1, 305567, Note_off_c, 0, 77, 52
1, 305568, Control_c, 0, 67, 82
1, 305642, Control_c, 0, 67, 82
1, 305694, Note_on_c, 0, 76, 93
1, 305701, Control_c, 0, 67, 81
1, 305715, Note_off_c, 0, 69, 63
1, 305722, Note_off_c, 0, 26, 59
1, 305726, Note_on_c, 0, 38, 59
1, 305731, Control_c, 0, 67, 81
1, 305760, Control_c, 0, 67, 80
1, 305775, Control_c, 0, 67, 80
1, 305787, Note_off_c, 0, 38, 61
1, 305797, Note_off_c, 0, 74, 36
1, 305805, Control_c, 0, 67, 79
1, 305820, Control_c, 0, 67, 77
1, 305834, Control_c, 0, 67, 74
1, 305849, Control_c, 0, 67, 72
1, 305864, Control_c, 0, 67, 70
1, 305865, Note_off_c, 0, 65, 37
1, 305879, Control_c, 0, 67, 68
1, 305894, Control_c, 0, 67, 66
1, 305895, Note_on_c, 0, 69, 61
1, 305909, Control_c, 0, 67, 65
1, 305924, Control_c, 0, 67, 65
1, 306076, Note_off_c, 0, 69, 52
1, 306098, Note_on_c, 0, 65, 85
1, 306112, Note_on_c, 0, 53, 67
1, 306123, Note_on_c, 0, 73, 65
1, 306124, Control_c, 0, 67, 65
1, 306139, Control_c, 0, 67, 66
1, 306146, Note_off_c, 0, 53, 67
1, 306146, Note_off_c, 0, 65, 62
1, 306183, Control_c, 0, 67, 66
1, 306198, Control_c, 0, 67, 67
1, 306228, Control_c, 0, 67, 67
1, 306307, Note_on_c, 0, 64, 62
1, 306353, Note_off_c, 0, 64, 60
1, 306353, Note_off_c, 0, 76, 55
1, 306500, Note_on_c, 0, 76, 84
1, 306530, Note_off_c, 0, 73, 62
1, 306535, Note_on_c, 0, 69, 93
1, 306552, Note_on_c, 0, 57, 68
1, 306579, Note_off_c, 0, 57, 64
1, 306601, Note_off_c, 0, 69, 64
1, 306701, Control_c, 0, 67, 67
1, 306757, Note_on_c, 0, 73, 64
1, 306761, Control_c, 0, 67, 66
1, 306790, Control_c, 0, 67, 66
1, 306820, Control_c, 0, 67, 65
1, 306946, Note_on_c, 0, 45, 59
1, 306947, Note_on_c, 0, 65, 60
1, 306961, Control_c, 0, 67, 65
1, 306991, Control_c, 0, 67, 64
1, 307036, Control_c, 0, 67, 64
1, 307066, Control_c, 0, 67, 63
1, 307095, Control_c, 0, 67, 63
1, 307112, Note_off_c, 0, 65, 60
1, 307131, Note_off_c, 0, 76, 54
1, 307135, Note_on_c, 0, 69, 61
1, 307319, Note_on_c, 0, 74, 90
1, 307320, Note_off_c, 0, 69, 63
1, 307362, Note_on_c, 0, 62, 46
1, 307369, Note_off_c, 0, 73, 63
1, 307408, Note_off_c, 0, 62, 0
1, 307408, Note_on_c, 0, 62, 28
1, 307465, Control_c, 0, 67, 63
1, 307480, Control_c, 0, 67, 64
1, 307510, Control_c, 0, 67, 64
1, 307527, Note_on_c, 0, 65, 59
1, 307542, Note_off_c, 0, 62, 55
1, 307554, Control_c, 0, 67, 65
1, 307584, Control_c, 0, 67, 65
1, 307598, Control_c, 0, 67, 66
1, 307635, Control_c, 0, 67, 66
1, 307665, Control_c, 0, 67, 67
1, 307680, Control_c, 0, 67, 67
1, 307710, Control_c, 0, 67, 68
1, 307712, Note_off_c, 0, 65, 64
1, 307724, Note_on_c, 0, 53, 71
1, 307725, Note_on_c, 0, 69, 67
1, 307725, Control_c, 0, 67, 68
1, 307748, Note_off_c, 0, 69, 70
1, 307781, Note_off_c, 0, 53, 61
1, 307793, Note_off_c, 0, 74, 59
1, 307829, Control_c, 0, 67, 69
1, 307873, Control_c, 0, 67, 69
1, 307886, Note_off_c, 0, 45, 64
1, 307911, Note_on_c, 0, 74, 81
1, 307933, Control_c, 0, 67, 70
1, 308011, Note_on_c, 0, 51, 91
1, 308019, Note_on_c, 0, 39, 79
1, 308050, Note_off_c, 0, 51, 58
1, 308055, Note_off_c, 0, 39, 59
1, 308183, Note_on_c, 0, 86, 100
1, 308213, Control_c, 0, 67, 70
1, 308231, Note_on_c, 0, 51, 65
1, 308234, Note_on_c, 0, 39, 66
1, 308243, Control_c, 0, 64, 95
1, 308258, Control_c, 0, 64, 68
1, 308273, Control_c, 0, 64, 0
1, 308288, Control_c, 0, 64, 45
1, 308288, Control_c, 0, 67, 70
1, 308303, Control_c, 0, 64, 66
1, 308303, Control_c, 0, 67, 69
1, 308318, Control_c, 0, 64, 76
1, 308318, Control_c, 0, 67, 69
1, 308332, Control_c, 0, 64, 100
1, 308332, Control_c, 0, 67, 68
1, 308347, Control_c, 0, 64, 127
1, 308347, Control_c, 0, 67, 68
1, 308369, Note_off_c, 0, 51, 64
1, 308382, Note_on_c, 0, 79, 74
1, 308428, Control_c, 0, 67, 68
1, 308429, Note_off_c, 0, 39, 59
1, 308443, Control_c, 0, 67, 69
1, 308458, Control_c, 0, 67, 69
1, 308473, Control_c, 0, 67, 70
1, 308487, Note_off_c, 0, 74, 54
1, 308487, Control_c, 0, 67, 70
1, 308492, Note_on_c, 0, 82, 69
1, 308504, Control_c, 0, 67, 71
1, 308519, Control_c, 0, 67, 71
1, 308534, Control_c, 0, 67, 72
1, 308552, Note_off_c, 0, 86, 58
1, 308560, Note_off_c, 0, 79, 58
1, 308578, Control_c, 0, 67, 72
1, 308585, Note_on_c, 0, 22, 66
1, 308597, Note_off_c, 0, 82, 63
1, 308617, Note_on_c, 0, 74, 65
1, 308675, Note_off_c, 0, 74, 63
1, 308763, Note_on_c, 0, 74, 57
1, 308777, Note_on_c, 0, 34, 58
1, 308786, Note_off_c, 0, 22, 40
1, 308818, Note_off_c, 0, 34, 60
1, 308860, Control_c, 0, 67, 73
1, 308883, Note_on_c, 0, 67, 56
1, 308904, Control_c, 0, 67, 73
1, 308949, Control_c, 0, 67, 74
1, 308982, Note_off_c, 0, 67, 56
1, 308992, Note_on_c, 0, 70, 57
1, 308993, Control_c, 0, 67, 74
1, 309036, Note_on_c, 0, 35, 10
1, 309086, Note_off_c, 0, 70, 60
1, 309089, Note_off_c, 0, 35, 47
1, 309119, Control_c, 0, 67, 74
1, 309122, Note_on_c, 0, 62, 61
1, 309150, Note_on_c, 0, 46, 59
1, 309185, Note_off_c, 0, 46, 61
1, 309212, Note_off_c, 0, 62, 52
1, 309237, Control_c, 0, 67, 73
1, 309248, Note_on_c, 0, 67, 58
1, 309358, Note_off_c, 0, 67, 61
1, 309361, Note_on_c, 0, 58, 68
1, 309373, Note_on_c, 0, 70, 64
1, 309386, Note_off_c, 0, 58, 66
1, 309399, Note_off_c, 0, 70, 67
1, 309413, Note_off_c, 0, 74, 61
1, 309475, Control_c, 0, 67, 73
1, 309494, Note_on_c, 0, 74, 67
1, 309519, Control_c, 0, 67, 72
1, 309614, Note_on_c, 0, 79, 71
1, 309672, Note_on_c, 0, 52, 84
1, 309678, Note_on_c, 0, 40, 73
1, 309698, Control_c, 0, 64, 85
1, 309699, Note_off_c, 0, 52, 67
1, 309700, Note_off_c, 0, 79, 60
1, 309707, Note_off_c, 0, 40, 65
1, 309712, Control_c, 0, 64, 69
1, 309723, Note_on_c, 0, 86, 71
1, 309727, Control_c, 0, 64, 68
1, 309742, Control_c, 0, 64, 76
1, 309742, Control_c, 0, 67, 72
1, 309745, Note_on_c, 0, 52, 90
1, 309752, Note_on_c, 0, 40, 81
1, 309757, Control_c, 0, 64, 87
1, 309757, Control_c, 0, 67, 71
1, 309772, Control_c, 0, 64, 127
1, 309772, Control_c, 0, 67, 70
1, 309799, Note_off_c, 0, 52, 60
1, 309831, Control_c, 0, 67, 70
1, 309891, Note_off_c, 0, 40, 0
1, 309904, Note_on_c, 0, 79, 56
1, 309912, Control_c, 0, 67, 70
1, 309915, Poly_aftertouch_c, 0, 40, 0
1, 309927, Control_c, 0, 67, 71
1, 309942, Control_c, 0, 67, 72
1, 309945, Note_off_c, 0, 74, 40
1, 309972, Control_c, 0, 67, 72
1, 310001, Control_c, 0, 67, 73
1, 310017, Note_on_c, 0, 82, 63
1, 310035, Note_off_c, 0, 86, 55
1, 310043, Note_off_c, 0, 79, 59
1, 310082, Note_off_c, 0, 82, 63
1, 310090, Note_on_c, 0, 22, 70
1, 310091, Control_c, 0, 67, 72
1, 310112, Note_on_c, 0, 74, 65
1, 310140, Note_off_c, 0, 74, 68
1, 310165, Control_c, 0, 67, 72
1, 310233, Note_on_c, 0, 34, 62
1, 310236, Note_on_c, 0, 67, 67
1, 310239, Control_c, 0, 67, 71
1, 310252, Note_off_c, 0, 22, 36
1, 310261, Note_off_c, 0, 34, 61
1, 310313, Control_c, 0, 67, 71
1, 310342, Note_on_c, 0, 62, 64
1, 310342, Control_c, 0, 67, 70
1, 310348, Note_off_c, 0, 67, 57
1, 310357, Control_c, 0, 67, 70
1, 310367, Note_off_c, 0, 62, 64
1, 310387, Control_c, 0, 67, 69
1, 310403, Note_on_c, 0, 40, 76
1, 310491, Control_c, 0, 67, 70
1, 310503, Note_on_c, 0, 85, 95
1, 310512, Note_on_c, 0, 73, 80
1, 310550, Control_c, 0, 67, 70
1, 310601, Note_off_c, 0, 40, 61
1, 310624, Note_off_c, 0, 73, 56
1, 310631, Poly_aftertouch_c, 0, 86, 0
1, 310639, Note_on_c, 0, 79, 71
1, 310646, Note_on_c, 0, 52, 65
1, 310684, Note_off_c, 0, 52, 64
1, 310720, Control_c, 0, 67, 71
1, 310755, Note_on_c, 0, 82, 73
1, 310801, Note_off_c, 0, 79, 50
1, 310809, Note_off_c, 0, 85, 57
1, 310823, Control_c, 0, 67, 70
1, 310842, Note_on_c, 0, 64, 73
1, 310845, Note_off_c, 0, 82, 64
1, 310853, Control_c, 0, 67, 70
1, 310864, Note_off_c, 0, 64, 70
1, 310869, Note_on_c, 0, 73, 71
1, 310898, Note_off_c, 0, 73, 67
1, 310980, Note_on_c, 0, 67, 68
1, 311017, Control_c, 0, 67, 70
1, 311032, Control_c, 0, 67, 71
1, 311061, Control_c, 0, 67, 72
1, 311086, Note_on_c, 0, 61, 71
1, 311112, Note_off_c, 0, 61, 65
1, 311117, Note_off_c, 0, 67, 60
1, 311145, Note_on_c, 0, 53, 85
1, 311154, Note_on_c, 0, 41, 72
1, 311164, Control_c, 0, 67, 71
1, 311181, Note_off_c, 0, 41, 64
1, 311188, Note_off_c, 0, 53, 63
1, 311194, Control_c, 0, 67, 70
1, 311224, Note_on_c, 0, 53, 83
1, 311224, Control_c, 0, 67, 70
1, 311233, Note_on_c, 0, 41, 85
1, 311254, Control_c, 0, 67, 69
1, 311269, Control_c, 0, 67, 69
1, 311283, Control_c, 0, 64, 97
1, 311295, Note_on_c, 0, 84, 96
1, 311298, Control_c, 0, 64, 65
1, 311307, Note_on_c, 0, 72, 85
1, 311313, Control_c, 0, 64, 0
1, 311328, Control_c, 0, 67, 68
1, 311343, Control_c, 0, 64, 46
1, 311364, Control_c, 0, 64, 69
1, 311379, Control_c, 0, 64, 88
1, 311379, Control_c, 0, 67, 68
1, 311394, Control_c, 0, 64, 127
1, 311424, Control_c, 0, 67, 67
1, 311435, Note_off_c, 0, 53, 68
1, 311451, Note_on_c, 0, 77, 74
1, 311453, Control_c, 0, 67, 67
1, 311468, Note_off_c, 0, 72, 51
1, 311468, Control_c, 0, 67, 66
1, 311483, Note_off_c, 0, 41, 64
1, 311556, Note_on_c, 0, 81, 70
1, 311558, Control_c, 0, 67, 67
1, 311573, Control_c, 0, 67, 67
1, 311597, Note_off_c, 0, 84, 59
1, 311604, Note_off_c, 0, 77, 59
1, 311617, Control_c, 0, 67, 68
1, 311638, Note_off_c, 0, 81, 62
1, 311659, Note_on_c, 0, 21, 75
1, 311659, Note_on_c, 0, 72, 59
1, 311685, Note_off_c, 0, 72, 66
1, 311782, Note_on_c, 0, 72, 65
1, 311814, Note_off_c, 0, 21, 59
1, 311824, Note_on_c, 0, 33, 64
1, 311826, Control_c, 0, 67, 67
1, 311868, Note_off_c, 0, 33, 60
1, 311909, Note_on_c, 0, 64, 60
1, 311959, Control_c, 0, 67, 67
1, 312007, Note_off_c, 0, 64, 62
1, 312020, Note_on_c, 0, 41, 68
1, 312038, Note_on_c, 0, 69, 56
1, 312113, Note_off_c, 0, 41, 59
1, 312114, Control_c, 0, 67, 67
1, 312149, Note_on_c, 0, 60, 64
1, 312163, Note_off_c, 0, 69, 33
1, 312178, Note_on_c, 0, 53, 64
1, 312229, Note_off_c, 0, 60, 60
1, 312234, Note_off_c, 0, 53, 63
1, 312256, Note_on_c, 0, 65, 65
1, 312376, Note_off_c, 0, 65, 63
1, 312388, Note_on_c, 0, 60, 67
1, 312398, Note_on_c, 0, 69, 64
1, 312426, Note_off_c, 0, 69, 65
1, 312435, Note_off_c, 0, 72, 50
1, 312529, Note_on_c, 0, 72, 70
1, 312611, Note_off_c, 0, 72, 55
1, 312637, Note_on_c, 0, 77, 69
1, 312708, Control_c, 0, 67, 68
1, 312737, Control_c, 0, 67, 68
1, 312770, Note_off_c, 0, 77, 62
1, 312771, Note_on_c, 0, 83, 95
1, 312790, Note_on_c, 0, 71, 77
1, 312792, Note_on_c, 0, 65, 67
1, 312816, Note_off_c, 0, 65, 68
1, 312821, Note_off_c, 0, 60, 61
1, 312878, Control_c, 0, 67, 69
1, 312920, Note_off_c, 0, 71, 58
1, 312923, Note_on_c, 0, 77, 69
1, 313049, Note_on_c, 0, 81, 64
1, 313087, Note_off_c, 0, 83, 58
1, 313096, Note_on_c, 0, 52, 82
1, 313099, Note_on_c, 0, 40, 72
1, 313108, Note_off_c, 0, 77, 57
1, 313121, Note_off_c, 0, 52, 68
1, 313129, Note_off_c, 0, 40, 65
1, 313138, Note_off_c, 0, 81, 61
1, 313173, Note_on_c, 0, 52, 92
1, 313174, Note_on_c, 0, 71, 64
1, 313182, Note_on_c, 0, 40, 86
1, 313204, Control_c, 0, 64, 103
1, 313218, Control_c, 0, 64, 81
1, 313233, Control_c, 0, 64, 75
1, 313248, Control_c, 0, 64, 79
1, 313263, Control_c, 0, 64, 89
1, 313278, Control_c, 0, 64, 105
1, 313293, Control_c, 0, 64, 127
1, 313308, Control_c, 0, 67, 68
1, 313323, Control_c, 0, 67, 68
1, 313325, Note_on_c, 0, 77, 69
1, 313338, Control_c, 0, 67, 67
1, 313361, Note_off_c, 0, 40, 59
1, 313367, Control_c, 0, 67, 66
1, 313368, Note_off_c, 0, 52, 57
1, 313382, Control_c, 0, 67, 66
1, 313412, Control_c, 0, 67, 65
1, 313427, Note_off_c, 0, 71, 38
1, 313442, Note_on_c, 0, 69, 61
1, 313471, Control_c, 0, 67, 65
1, 313478, Note_on_c, 0, 53, 80
1, 313480, Note_on_c, 0, 41, 80
1, 313501, Note_off_c, 0, 53, 69
1, 313504, Note_off_c, 0, 41, 64
1, 313516, Control_c, 0, 64, 84
1, 313527, Note_off_c, 0, 77, 49
1, 313531, Control_c, 0, 64, 64
1, 313540, Note_on_c, 0, 53, 94
1, 313544, Note_off_c, 0, 69, 63
1, 313546, Control_c, 0, 64, 58
1, 313549, Note_on_c, 0, 72, 68
1, 313552, Note_on_c, 0, 41, 89
1, 313560, Control_c, 0, 64, 67
1, 313575, Control_c, 0, 64, 77
1, 313590, Control_c, 0, 64, 92
1, 313590, Control_c, 0, 67, 64
1, 313612, Control_c, 0, 64, 127
1, 313612, Control_c, 0, 67, 64
1, 313627, Control_c, 0, 67, 63
1, 313641, Control_c, 0, 67, 62
1, 313653, Note_off_c, 0, 72, 62
1, 313656, Control_c, 0, 67, 62
1, 313671, Control_c, 0, 67, 60
1, 313686, Control_c, 0, 67, 56
1, 313689, Note_on_c, 0, 64, 68
1, 313701, Control_c, 0, 67, 53
1, 313709, Note_off_c, 0, 41, 60
1, 313716, Control_c, 0, 67, 51
1, 313720, Note_off_c, 0, 53, 60
1, 313731, Control_c, 0, 67, 50
1, 313744, Control_c, 0, 67, 50
1, 313758, Control_c, 0, 67, 49
1, 313773, Control_c, 0, 67, 49
1, 313801, Note_on_c, 0, 69, 67
1, 313818, Control_c, 0, 67, 48
1, 313832, Note_off_c, 0, 69, 63
1, 313852, Note_on_c, 0, 54, 88
1, 313859, Note_on_c, 0, 42, 74
1, 313873, Note_off_c, 0, 54, 72
1, 313885, Note_off_c, 0, 42, 65
1, 313892, Control_c, 0, 64, 98
1, 313907, Control_c, 0, 64, 69
1, 313918, Note_on_c, 0, 54, 95
1, 313922, Control_c, 0, 64, 0
1, 313929, Note_on_c, 0, 42, 90
1, 313937, Note_off_c, 0, 64, 61
1, 313946, Note_on_c, 0, 60, 73
1, 313951, Control_c, 0, 64, 56
1, 313951, Control_c, 0, 67, 48
1, 313966, Control_c, 0, 64, 70
1, 313981, Control_c, 0, 64, 85
1, 313981, Control_c, 0, 67, 47
1, 313996, Control_c, 0, 64, 127
1, 314025, Control_c, 0, 67, 46
1, 314040, Control_c, 0, 67, 46
1, 314053, Note_off_c, 0, 54, 61
1, 314055, Control_c, 0, 67, 45
1, 314062, Note_off_c, 0, 60, 60
1, 314065, Note_on_c, 0, 64, 74
1, 314070, Control_c, 0, 67, 45
1, 314083, Note_off_c, 0, 42, 49
1, 314086, Control_c, 0, 67, 44
1, 314115, Control_c, 0, 67, 44
1, 314142, Note_on_c, 0, 52, 70
1, 314145, Control_c, 0, 67, 43
1, 314160, Control_c, 0, 67, 42
1, 314170, Note_off_c, 0, 52, 64
1, 314192, Note_off_c, 0, 64, 66
1, 314211, Note_on_c, 0, 55, 97
1, 314214, Note_on_c, 0, 43, 85
1, 314241, Note_off_c, 0, 55, 63
1, 314242, Note_off_c, 0, 43, 67
1, 314307, Note_on_c, 0, 43, 94
1, 314307, Note_on_c, 0, 55, 102
1, 314375, Control_c, 0, 64, 103
1, 314389, Control_c, 0, 64, 70
1, 314403, Note_on_c, 0, 82, 106
1, 314404, Control_c, 0, 64, 0
1, 314405, Note_on_c, 0, 70, 90
1, 314463, Control_c, 0, 64, 66
1, 314478, Control_c, 0, 64, 84
1, 314494, Control_c, 0, 64, 127
1, 314517, Note_off_c, 0, 55, 63
1, 314523, Control_c, 0, 67, 41
1, 314538, Control_c, 0, 67, 41
1, 314553, Control_c, 0, 67, 40
1, 314566, Note_on_c, 0, 74, 75
1, 314567, Note_off_c, 0, 43, 64
1, 314568, Control_c, 0, 67, 39
1, 314582, Control_c, 0, 67, 37
1, 314597, Control_c, 0, 67, 35
1, 314612, Control_c, 0, 67, 34
1, 314627, Control_c, 0, 67, 32
1, 314641, Control_c, 0, 67, 30
1, 314656, Note_off_c, 0, 70, 40
1, 314656, Control_c, 0, 67, 28
1, 314671, Control_c, 0, 67, 27
1, 314672, Note_on_c, 0, 79, 72
1, 314686, Control_c, 0, 67, 26
1, 314732, Note_off_c, 0, 82, 62
1, 314745, Note_off_c, 0, 79, 60
1, 314768, Note_off_c, 0, 74, 61
1, 314771, Note_on_c, 0, 31, 78
1, 314781, Note_on_c, 0, 69, 72
1, 314915, Note_on_c, 0, 74, 76
1, 314956, Note_on_c, 0, 38, 71
1, 315060, Note_on_c, 0, 67, 68
1, 315086, Note_off_c, 0, 69, 41
1, 315099, Note_off_c, 0, 31, 56
1, 315136, Note_off_c, 0, 38, 60
1, 315138, Control_c, 0, 67, 26
1, 315147, Note_on_c, 0, 43, 69
1, 315184, Note_off_c, 0, 67, 57
1, 315186, Note_on_c, 0, 70, 66
1, 315197, Note_off_c, 0, 43, 62
1, 315242, Control_c, 0, 67, 27
1, 315281, Note_off_c, 0, 70, 57
1, 315311, Note_on_c, 0, 62, 61
1, 315313, Note_on_c, 0, 50, 68
1, 315338, Note_off_c, 0, 50, 68
1, 315406, Note_off_c, 0, 62, 57
1, 315427, Note_on_c, 0, 67, 70
1, 315475, Note_on_c, 0, 58, 87
1, 315486, Note_on_c, 0, 46, 71
1, 315493, Note_off_c, 0, 58, 71
1, 315513, Note_off_c, 0, 46, 64
1, 315522, Note_off_c, 0, 67, 58
1, 315531, Note_on_c, 0, 70, 71
1, 315534, Note_on_c, 0, 58, 93
1, 315545, Note_on_c, 0, 46, 84
1, 315573, Note_off_c, 0, 46, 66
1, 315576, Note_off_c, 0, 58, 65
1, 315584, Note_off_c, 0, 74, 61
1, 315585, Note_off_c, 0, 70, 65
1, 315669, Note_on_c, 0, 74, 83
1, 315785, Note_off_c, 0, 74, 55
1, 315801, Note_on_c, 0, 79, 63
1, 315804, Note_on_c, 0, 81, 62
1, 315846, Note_on_c, 0, 62, 84
1, 315865, Note_off_c, 0, 81, 58
1, 315874, Note_off_c, 0, 62, 71
1, 315876, Note_on_c, 0, 48, 50
1, 315885, Note_on_c, 0, 50, 40
1, 315896, Note_off_c, 0, 79, 61
1, 315902, Control_c, 0, 64, 86
1, 315903, Note_off_c, 0, 48, 56
1, 315913, Note_off_c, 0, 50, 0
1, 315913, Note_on_c, 0, 50, 10
1, 315914, Note_on_c, 0, 62, 100
1, 315917, Control_c, 0, 64, 64
1, 315929, Note_on_c, 0, 81, 80
1, 315932, Control_c, 0, 64, 56
1, 315947, Control_c, 0, 64, 69
1, 315949, Note_on_c, 0, 69, 70
1, 315961, Control_c, 0, 64, 83
1, 315976, Control_c, 0, 64, 127
1, 315983, Note_off_c, 0, 62, 0
1, 315998, Note_on_c, 0, 62, 55
1, 316086, Note_on_c, 0, 74, 72
1, 316106, Note_off_c, 0, 81, 58
1, 316151, Note_on_c, 0, 51, 82
1, 316165, Note_off_c, 0, 50, 63
1, 316184, Note_off_c, 0, 74, 59
1, 316233, Note_off_c, 0, 51, 63
1, 316291, Note_on_c, 0, 52, 86
1, 316301, Note_off_c, 0, 62, 55
1, 316312, Note_on_c, 0, 70, 82
1, 316342, Note_off_c, 0, 69, 62
1, 316396, Note_off_c, 0, 52, 57
1, 316418, Note_on_c, 0, 74, 84
1, 316427, Note_on_c, 0, 54, 80
1, 316466, Note_off_c, 0, 70, 61
1, 316509, Note_off_c, 0, 54, 63
1, 316533, Note_on_c, 0, 62, 61
1, 316547, Note_on_c, 0, 55, 76
1, 316578, Note_on_c, 0, 67, 83
1, 316582, Note_off_c, 0, 62, 59
1, 316594, Note_off_c, 0, 74, 64
1, 316607, Control_c, 0, 67, 26
1, 316621, Note_off_c, 0, 67, 61
1, 316636, Control_c, 0, 67, 26
1, 316663, Note_on_c, 0, 67, 89
1, 316666, Control_c, 0, 64, 81
1, 316673, Note_on_c, 0, 79, 95
1, 316681, Control_c, 0, 64, 0
1, 316681, Control_c, 0, 67, 25
1, 316710, Control_c, 0, 64, 49
1, 316725, Control_c, 0, 64, 70
1, 316739, Control_c, 0, 64, 88
1, 316754, Control_c, 0, 64, 127
1, 316754, Control_c, 0, 67, 25
1, 316783, Control_c, 0, 67, 24
1, 316798, Note_on_c, 0, 66, 80
1, 316798, Control_c, 0, 67, 24
1, 316811, Note_on_c, 0, 70, 82
1, 316828, Control_c, 0, 67, 23
1, 316880, Note_off_c, 0, 66, 62
1, 316917, Note_on_c, 0, 62, 76
1, 316935, Note_on_c, 0, 74, 82
1, 316940, Note_off_c, 0, 79, 57
1, 316957, Note_off_c, 0, 70, 58
1, 317035, Control_c, 0, 64, 108
1, 317037, Note_off_c, 0, 74, 63
1, 317050, Control_c, 0, 64, 74
1, 317053, Note_on_c, 0, 58, 76
1, 317057, Note_on_c, 0, 79, 87
1, 317065, Control_c, 0, 64, 58
1, 317080, Control_c, 0, 64, 65
1, 317081, Note_off_c, 0, 55, 53
1, 317095, Control_c, 0, 64, 78
1, 317109, Control_c, 0, 64, 109
1, 317124, Control_c, 0, 64, 127
1, 317178, Note_on_c, 0, 78, 89
1, 317185, Note_on_c, 0, 57, 70
1, 317192, Note_off_c, 0, 79, 53
1, 317198, Control_c, 0, 67, 23
1, 317203, Note_off_c, 0, 58, 53
1, 317213, Control_c, 0, 67, 22
1, 317221, Note_off_c, 0, 62, 34
1, 317234, Note_off_c, 0, 67, 61
1, 317275, Note_off_c, 0, 57, 60
1, 317282, Note_on_c, 0, 55, 82
1, 317302, Note_on_c, 0, 79, 76
1, 317370, Control_c, 0, 64, 106
1, 317385, Control_c, 0, 64, 65
1, 317388, Note_off_c, 0, 78, 0
1, 317388, Note_on_c, 0, 56, 82
1, 317400, Control_c, 0, 64, 0
1, 317403, Note_on_c, 0, 78, 45
1, 317403, Note_off_c, 0, 55, 49
1, 317410, Note_on_c, 0, 65, 82
1, 317412, Note_on_c, 0, 61, 87
1, 317415, Note_on_c, 0, 77, 90
1, 317418, Note_on_c, 0, 73, 87
1, 317427, Note_off_c, 0, 79, 54
1, 317429, Control_c, 0, 64, 66
1, 317433, Note_on_c, 0, 68, 65
1, 317444, Control_c, 0, 64, 90
1, 317458, Control_c, 0, 64, 127
1, 317458, Control_c, 0, 67, 22
1, 317460, Note_off_c, 0, 68, 65
1, 317485, Note_off_c, 0, 65, 61
1, 317503, Control_c, 0, 67, 21
1, 317518, Control_c, 0, 67, 20
1, 317519, Note_off_c, 0, 78, 43
1, 317532, Control_c, 0, 67, 19
1, 317537, Note_on_c, 0, 75, 86
1, 317538, Note_off_c, 0, 77, 56
1, 317538, Note_off_c, 0, 61, 60
1, 317546, Note_on_c, 0, 54, 80
1, 317547, Control_c, 0, 67, 17
1, 317562, Control_c, 0, 67, 17
1, 317574, Note_off_c, 0, 54, 65
1, 317577, Control_c, 0, 64, 111
1, 317579, Note_off_c, 0, 56, 56
1, 317579, Note_off_c, 0, 73, 27
1, 317592, Note_on_c, 0, 55, 56
1, 317592, Control_c, 0, 64, 84
1, 317606, Control_c, 0, 64, 63
1, 317619, Note_off_c, 0, 55, 64
1, 317621, Control_c, 0, 64, 0
1, 317636, Control_c, 0, 64, 30
1, 317640, Note_off_c, 0, 75, 57
1, 317651, Control_c, 0, 64, 73
1, 317651, Control_c, 0, 67, 17
1, 317660, Note_on_c, 0, 80, 88
1, 317663, Note_on_c, 0, 70, 71
1, 317664, Note_on_c, 0, 53, 83
1, 317665, Note_on_c, 0, 73, 88
1, 317666, Control_c, 0, 64, 127
1, 317695, Control_c, 0, 67, 17
1, 317710, Control_c, 0, 67, 16
1, 317725, Control_c, 0, 67, 16
1, 317731, Note_on_c, 0, 68, 2
1, 317740, Control_c, 0, 67, 15
1, 317746, Note_off_c, 0, 73, 61
1, 317748, Note_off_c, 0, 70, 62
1, 317755, Control_c, 0, 67, 14
1, 317770, Control_c, 0, 67, 13
1, 317773, Note_off_c, 0, 53, 57
1, 317774, Note_off_c, 0, 68, 37
1, 317782, Note_on_c, 0, 51, 81
1, 317785, Control_c, 0, 67, 12
1, 317791, Note_on_c, 0, 78, 90
1, 317823, Note_off_c, 0, 80, 63
1, 317870, Note_off_c, 0, 78, 63
1, 317873, Control_c, 0, 64, 91
1, 317883, Note_off_c, 0, 51, 61
1, 317888, Control_c, 0, 64, 73
1, 317900, Note_on_c, 0, 49, 80
1, 317903, Control_c, 0, 64, 73
1, 317913, Note_on_c, 0, 82, 94
1, 317914, Note_on_c, 0, 77, 82
1, 317916, Note_on_c, 0, 71, 85
1, 317918, Control_c, 0, 64, 92
1, 317932, Control_c, 0, 64, 127
1, 317991, Control_c, 0, 64, 114
1, 318000, Note_off_c, 0, 71, 63
1, 318001, Note_off_c, 0, 49, 63
1, 318001, Note_off_c, 0, 82, 64
1, 318006, Control_c, 0, 64, 109
1, 318021, Control_c, 0, 64, 127
1, 318023, Note_on_c, 0, 48, 86
1, 318035, Note_on_c, 0, 80, 89
1, 318049, Note_off_c, 0, 77, 61
1, 318065, Control_c, 0, 67, 12
1, 318104, Control_c, 0, 64, 114
1, 318115, Note_off_c, 0, 80, 64
1, 318119, Control_c, 0, 64, 86
1, 318134, Control_c, 0, 64, 85
1, 318137, Note_off_c, 0, 48, 61
1, 318149, Control_c, 0, 64, 117
1, 318159, Note_on_c, 0, 46, 87
1, 318160, Note_on_c, 0, 78, 93
1, 318163, Control_c, 0, 64, 127
1, 318164, Note_on_c, 0, 87, 91
1, 318166, Note_on_c, 0, 73, 86
1, 318201, Note_on_c, 0, 85, 32
1, 318208, Control_c, 0, 67, 12
1, 318209, Note_on_c, 0, 86, 58
1, 318223, Control_c, 0, 64, 83
1, 318223, Control_c, 0, 67, 13
1, 318224, Note_off_c, 0, 78, 59
1, 318226, Note_off_c, 0, 73, 58
1, 318233, Note_off_c, 0, 85, 55
1, 318238, Control_c, 0, 64, 73
1, 318246, Note_off_c, 0, 46, 61
1, 318252, Note_off_c, 0, 86, 54
1, 318253, Control_c, 0, 64, 86
1, 318268, Control_c, 0, 64, 127
1, 318278, Note_on_c, 0, 45, 87
1, 318286, Note_on_c, 0, 85, 99
1, 318293, Note_off_c, 0, 87, 35
1, 318356, Control_c, 0, 64, 102
1, 318362, Note_off_c, 0, 85, 62
1, 318364, Poly_aftertouch_c, 0, 75, 127
1, 318371, Control_c, 0, 64, 102
1, 318386, Control_c, 0, 64, 108
1, 318387, Poly_aftertouch_c, 0, 75, 0
1, 318393, Note_on_c, 0, 44, 92
1, 318397, Note_on_c, 0, 83, 92
1, 318400, Note_on_c, 0, 75, 60
1, 318400, Note_on_c, 0, 89, 92
1, 318400, Control_c, 0, 64, 109
1, 318400, Control_c, 0, 67, 12
1, 318414, Note_off_c, 0, 45, 51
1, 318415, Control_c, 0, 64, 98
1, 318428, Note_on_c, 0, 88, 53
1, 318430, Control_c, 0, 64, 86
1, 318430, Control_c, 0, 67, 13
1, 318445, Control_c, 0, 64, 84
1, 318453, Note_off_c, 0, 88, 39
1, 318457, Note_off_c, 0, 75, 61
1, 318460, Control_c, 0, 64, 93
1, 318468, Note_off_c, 0, 83, 64
1, 318469, Note_off_c, 0, 89, 63
1, 318474, Control_c, 0, 64, 127
1, 318504, Control_c, 0, 67, 12
1, 318509, Note_on_c, 0, 42, 94
1, 318519, Note_off_c, 0, 44, 41
1, 318519, Control_c, 0, 67, 9
1, 318521, Note_on_c, 0, 87, 100
1, 318534, Control_c, 0, 67, 0
1, 318574, Note_off_c, 0, 42, 65
1, 318574, Note_off_c, 0, 87, 68
1, 318610, Note_on_c, 0, 41, 84
1, 318640, Note_on_c, 0, 92, 106
1, 318644, Note_on_c, 0, 82, 98
1, 318670, Note_on_c, 0, 90, 44
1, 318672, Note_on_c, 0, 80, 43
1, 318680, Note_off_c, 0, 82, 60
1, 318685, Note_off_c, 0, 92, 67
1, 318691, Note_on_c, 0, 40, 74
1, 318696, Note_off_c, 0, 90, 59
1, 318700, Note_off_c, 0, 41, 59
1, 318700, Note_off_c, 0, 80, 59
1, 318741, Poly_aftertouch_c, 0, 87, 0
1, 318742, Note_on_c, 0, 45, 85
1, 318745, Note_on_c, 0, 94, 105
1, 318762, Note_on_c, 0, 85, 83
1, 318763, Note_on_c, 0, 50, 81
1, 318779, Note_on_c, 0, 89, 54
1, 318782, Note_off_c, 0, 85, 71
1, 318800, Note_off_c, 0, 89, 60
1, 318816, Note_off_c, 0, 94, 64
1, 318830, Control_c, 0, 64, 86
1, 318852, Control_c, 0, 64, 0
1, 318880, Note_on_c, 0, 53, 98
1, 318884, Note_on_c, 0, 96, 99
1, 318888, Note_on_c, 0, 84, 97
1, 318888, Note_on_c, 0, 92, 62
1, 318889, Note_on_c, 0, 93, 95
1, 318892, Note_on_c, 0, 89, 83
1, 318898, Control_c, 0, 64, 65
1, 318900, Note_on_c, 0, 95, 74
1, 318912, Control_c, 0, 64, 85
1, 318921, Note_off_c, 0, 40, 64
1, 318924, Note_on_c, 0, 90, 23
1, 318925, Note_off_c, 0, 90, 127
1, 318925, Note_off_c, 0, 93, 66
1, 318928, Control_c, 0, 64, 127
1, 318933, Note_off_c, 0, 89, 63
1, 318936, Note_off_c, 0, 96, 65
1, 318940, Note_off_c, 0, 45, 66
1, 318942, Note_off_c, 0, 92, 63
1, 318948, Note_off_c, 0, 50, 67
1, 318953, Note_off_c, 0, 53, 64
1, 318958, Note_off_c, 0, 95, 0
1, 318958, Note_on_c, 0, 95, 6
1, 318984, Note_off_c, 0, 84, 67
1, 319008, Note_off_c, 0, 95, 25
1, 319019, Note_on_c, 0, 83, 107
1, 319100, Note_off_c, 0, 83, 63
1, 319134, Note_on_c, 0, 84, 105
1, 319139, Note_on_c, 0, 77, 95
1, 319141, Note_on_c, 0, 81, 100
1, 319193, Note_off_c, 0, 84, 63
1, 319201, Note_off_c, 0, 81, 60
1, 319203, Note_off_c, 0, 77, 55
1, 319239, Control_c, 0, 64, 80
1, 319254, Control_c, 0, 64, 0
1, 319258, Note_on_c, 0, 81, 107
1, 319261, Note_on_c, 0, 84, 113
1, 319264, Note_on_c, 0, 77, 99
1, 319284, Control_c, 0, 64, 62
1, 319298, Control_c, 0, 64, 75
1, 319313, Control_c, 0, 64, 98
1, 319322, Note_off_c, 0, 81, 63
1, 319328, Control_c, 0, 64, 127
1, 319329, Note_off_c, 0, 77, 57
1, 319366, Note_on_c, 0, 77, 72
1, 319372, Control_c, 0, 67, 9
1, 319378, Note_on_c, 0, 81, 94
1, 319387, Control_c, 0, 67, 12
1, 319402, Control_c, 0, 67, 15
1, 319417, Control_c, 0, 67, 18
1, 319427, Note_off_c, 0, 81, 65
1, 319430, Note_off_c, 0, 77, 62
1, 319431, Control_c, 0, 67, 21
1, 319446, Control_c, 0, 67, 23
1, 319461, Control_c, 0, 67, 25
1, 319476, Control_c, 0, 67, 27
1, 319491, Control_c, 0, 67, 30
1, 319497, Note_on_c, 0, 77, 89
1, 319500, Note_on_c, 0, 81, 95
1, 319502, Note_on_c, 0, 72, 103
1, 319506, Control_c, 0, 67, 30
1, 319521, Control_c, 0, 67, 31
1, 319548, Note_off_c, 0, 72, 61
1, 319559, Note_off_c, 0, 81, 60
1, 319562, Note_off_c, 0, 77, 57
1, 319565, Control_c, 0, 67, 31
1, 319580, Control_c, 0, 67, 30
1, 319602, Control_c, 0, 67, 30
1, 319619, Note_off_c, 0, 84, 62
1, 319628, Note_on_c, 0, 77, 77
1, 319629, Note_on_c, 0, 81, 87
1, 319631, Control_c, 0, 67, 29
1, 319634, Note_on_c, 0, 72, 102
1, 319646, Note_off_c, 0, 81, 74
1, 319646, Control_c, 0, 67, 29
1, 319647, Note_off_c, 0, 77, 72
1, 319722, Control_c, 0, 67, 28
1, 319736, Control_c, 0, 67, 27
1, 319755, Note_on_c, 0, 71, 98
1, 319766, Control_c, 0, 67, 27
1, 319768, Note_off_c, 0, 72, 62
1, 319810, Control_c, 0, 67, 27
1, 319825, Control_c, 0, 67, 28
1, 319840, Control_c, 0, 67, 28
1, 319867, Note_on_c, 0, 69, 82
1, 319869, Note_on_c, 0, 65, 80
1, 319871, Note_on_c, 0, 72, 98
1, 319876, Note_off_c, 0, 71, 66
1, 319899, Control_c, 0, 67, 28
1, 319923, Note_off_c, 0, 69, 60
1, 319929, Note_off_c, 0, 65, 58
1, 319931, Note_off_c, 0, 72, 66
1, 319944, Control_c, 0, 67, 28
1, 319959, Control_c, 0, 67, 29
1, 319974, Control_c, 0, 64, 86
1, 319974, Control_c, 0, 67, 30
1, 319989, Control_c, 0, 64, 0
1, 319989, Control_c, 0, 67, 30
1, 319993, Note_on_c, 0, 69, 88
1, 319996, Note_on_c, 0, 65, 85
1, 319998, Note_on_c, 0, 72, 101
1, 320003, Control_c, 0, 67, 31
1, 320018, Control_c, 0, 67, 31
1, 320033, Control_c, 0, 64, 38
1, 320040, Note_off_c, 0, 65, 64
1, 320041, Note_off_c, 0, 69, 64
1, 320048, Control_c, 0, 64, 65
1, 320062, Control_c, 0, 64, 75
1, 320062, Control_c, 0, 67, 31
1, 320077, Control_c, 0, 64, 90
1, 320092, Control_c, 0, 64, 127
1, 320106, Note_on_c, 0, 65, 79
1, 320108, Note_on_c, 0, 69, 81
1, 320148, Note_off_c, 0, 65, 58
1, 320151, Note_off_c, 0, 69, 58
1, 320151, Control_c, 0, 67, 30
1, 320181, Control_c, 0, 67, 31
1, 320195, Control_c, 0, 67, 32
1, 320199, Note_off_c, 0, 72, 62
1, 320208, Note_on_c, 0, 65, 66
1, 320212, Note_on_c, 0, 69, 46
1, 320225, Control_c, 0, 67, 32
1, 320228, Note_on_c, 0, 60, 74
1, 320230, Note_off_c, 0, 65, 70
1, 320238, Note_off_c, 0, 69, 62
1, 320254, Control_c, 0, 67, 32
1, 320260, Note_off_c, 0, 60, 62
1, 320269, Control_c, 0, 67, 31
1, 320284, Control_c, 0, 67, 30
1, 320314, Control_c, 0, 64, 101
1, 320329, Control_c, 0, 64, 73
1, 320351, Control_c, 0, 64, 66
1, 320360, Note_on_c, 0, 60, 75
1, 320366, Control_c, 0, 64, 74
1, 320370, Note_on_c, 0, 65, 69
1, 320377, Note_on_c, 0, 56, 72
1, 320380, Note_on_c, 0, 61, 67
1, 320380, Control_c, 0, 64, 86
1, 320395, Control_c, 0, 64, 121
1, 320410, Control_c, 0, 64, 127
1, 320412, Note_off_c, 0, 61, 63
1, 320433, Note_off_c, 0, 60, 60
1, 320440, Control_c, 0, 64, 84
1, 320454, Control_c, 0, 64, 63
1, 320458, Note_off_c, 0, 65, 60
1, 320469, Control_c, 0, 64, 53
1, 320469, Control_c, 0, 67, 30
1, 320484, Note_off_c, 0, 56, 61
1, 320485, Control_c, 0, 64, 68
1, 320485, Control_c, 0, 67, 29
1, 320489, Note_on_c, 0, 54, 64
1, 320494, Note_on_c, 0, 63, 78
1, 320500, Control_c, 0, 64, 82
1, 320500, Control_c, 0, 67, 28
1, 320515, Control_c, 0, 64, 109
1, 320515, Control_c, 0, 67, 28
1, 320530, Control_c, 0, 64, 110
1, 320530, Control_c, 0, 67, 27
1, 320545, Control_c, 0, 64, 90
1, 320545, Control_c, 0, 67, 27
1, 320559, Control_c, 0, 64, 78
1, 320568, Note_off_c, 0, 54, 64
1, 320574, Control_c, 0, 64, 76
1, 320574, Control_c, 0, 67, 26
1, 320577, Note_off_c, 0, 63, 60
1, 320589, Control_c, 0, 64, 84
1, 320589, Control_c, 0, 67, 25
1, 320604, Control_c, 0, 64, 97
1, 320604, Control_c, 0, 67, 24
1, 320611, Note_on_c, 0, 58, 82
1, 320612, Note_on_c, 0, 53, 71
1, 320615, Note_on_c, 0, 61, 72
1, 320619, Control_c, 0, 64, 95
1, 320619, Control_c, 0, 67, 24
1, 320622, Note_on_c, 0, 68, 71
1, 320633, Control_c, 0, 64, 80
1, 320646, Note_off_c, 0, 61, 62
1, 320648, Control_c, 0, 64, 66
1, 320662, Note_off_c, 0, 58, 43
1, 320663, Control_c, 0, 64, 56
1, 320663, Control_c, 0, 67, 23
1, 320677, Control_c, 0, 64, 64
1, 320677, Control_c, 0, 67, 23
1, 320692, Control_c, 0, 64, 69
1, 320692, Control_c, 0, 67, 22
1, 320707, Control_c, 0, 64, 73
1, 320707, Control_c, 0, 67, 21
1, 320708, Note_off_c, 0, 53, 56
1, 320720, Note_on_c, 0, 51, 76
1, 320722, Control_c, 0, 64, 71
1, 320728, Note_on_c, 0, 66, 74
1, 320737, Control_c, 0, 64, 69
1, 320745, Note_off_c, 0, 68, 52
1, 320752, Control_c, 0, 64, 67
1, 320767, Control_c, 0, 64, 67
1, 320782, Control_c, 0, 64, 68
1, 320797, Control_c, 0, 67, 22
1, 320805, Note_off_c, 0, 66, 61
1, 320811, Note_off_c, 0, 51, 62
1, 320811, Control_c, 0, 64, 68
1, 320826, Control_c, 0, 67, 23
1, 320835, Note_on_c, 0, 49, 73
1, 320841, Control_c, 0, 64, 68
1, 320844, Note_on_c, 0, 70, 82
1, 320854, Note_on_c, 0, 65, 67
1, 320855, Note_on_c, 0, 59, 70
1, 320856, Control_c, 0, 64, 69
1, 320870, Control_c, 0, 64, 68
1, 320885, Control_c, 0, 64, 65
1, 320900, Control_c, 0, 64, 62
1, 320915, Control_c, 0, 64, 65
1, 320918, Note_off_c, 0, 49, 62
1, 320918, Note_off_c, 0, 59, 46
1, 320930, Control_c, 0, 64, 69
1, 320938, Note_off_c, 0, 70, 55
1, 320945, Control_c, 0, 64, 73
1, 320953, Note_on_c, 0, 48, 72
1, 320955, Note_off_c, 0, 65, 49
1, 320959, Control_c, 0, 64, 75
1, 320961, Note_on_c, 0, 68, 86
1, 320974, Control_c, 0, 64, 73
1, 320989, Control_c, 0, 64, 69
1, 321003, Control_c, 0, 64, 68
1, 321018, Control_c, 0, 64, 69
1, 321033, Control_c, 0, 64, 70
1, 321040, Note_off_c, 0, 68, 59
1, 321055, Note_off_c, 0, 48, 62
1, 321063, Control_c, 0, 64, 68
1, 321070, Note_on_c, 0, 46, 74
1, 321076, Note_on_c, 0, 66, 77
1, 321077, Control_c, 0, 64, 65
1, 321077, Control_c, 0, 67, 23
1, 321083, Note_on_c, 0, 75, 84
1, 321092, Control_c, 0, 64, 63
1, 321093, Note_on_c, 0, 61, 58
1, 321114, Note_off_c, 0, 66, 64
1, 321115, Control_c, 0, 64, 64
1, 321128, Note_off_c, 0, 61, 59
1, 321130, Control_c, 0, 64, 65
1, 321145, Control_c, 0, 64, 66
1, 321154, Note_off_c, 0, 46, 60
1, 321159, Control_c, 0, 64, 66
1, 321174, Control_c, 0, 67, 23
1, 321194, Note_on_c, 0, 45, 76
1, 321196, Note_on_c, 0, 73, 91
1, 321208, Note_off_c, 0, 75, 64
1, 321233, Control_c, 0, 64, 65
1, 321248, Control_c, 0, 64, 61
1, 321248, Control_c, 0, 67, 22
1, 321263, Control_c, 0, 64, 54
1, 321263, Control_c, 0, 67, 22
1, 321279, Control_c, 0, 64, 59
1, 321279, Control_c, 0, 67, 21
1, 321282, Note_off_c, 0, 73, 57
1, 321294, Control_c, 0, 64, 65
1, 321305, Note_on_c, 0, 44, 88
1, 321308, Control_c, 0, 64, 70
1, 321309, Note_on_c, 0, 71, 87
1, 321315, Note_on_c, 0, 77, 82
1, 321315, Note_on_c, 0, 63, 79
1, 321320, Note_off_c, 0, 45, 61
1, 321323, Control_c, 0, 64, 77
1, 321330, Note_on_c, 0, 76, 64
1, 321338, Control_c, 0, 64, 86
1, 321353, Note_off_c, 0, 76, 57
1, 321353, Control_c, 0, 64, 97
1, 321353, Control_c, 0, 67, 21
1, 321366, Note_off_c, 0, 63, 58
1, 321368, Control_c, 0, 64, 108
1, 321373, Note_off_c, 0, 77, 61
1, 321375, Note_off_c, 0, 71, 63
1, 321383, Control_c, 0, 64, 114
1, 321383, Control_c, 0, 67, 20
1, 321398, Control_c, 0, 64, 116
1, 321398, Control_c, 0, 67, 20
1, 321404, Note_off_c, 0, 44, 57
1, 321413, Control_c, 0, 64, 116
1, 321413, Control_c, 0, 67, 19
1, 321418, Note_on_c, 0, 42, 91
1, 321427, Control_c, 0, 64, 119
1, 321427, Control_c, 0, 67, 19
1, 321433, Note_on_c, 0, 75, 92
1, 321442, Control_c, 0, 64, 127
1, 321473, Note_on_c, 0, 78, 16
1, 321488, Note_off_c, 0, 42, 64
1, 321488, Note_off_c, 0, 75, 66
1, 321501, Control_c, 0, 67, 19
1, 321515, Note_off_c, 0, 78, 51
1, 321516, Control_c, 0, 67, 20
1, 321531, Control_c, 0, 67, 20
1, 321534, Note_on_c, 0, 41, 70
1, 321551, Note_on_c, 0, 43, 66
1, 321558, Note_on_c, 0, 80, 95
1, 321560, Note_on_c, 0, 70, 91
1, 321561, Control_c, 0, 64, 86
1, 321563, Note_on_c, 0, 40, 76
1, 321575, Control_c, 0, 64, 44
1, 321589, Note_off_c, 0, 43, 48
1, 321590, Control_c, 0, 64, 0
1, 321601, Note_off_c, 0, 80, 67
1, 321605, Note_off_c, 0, 70, 61
1, 321619, Control_c, 0, 64, 47
1, 321619, Control_c, 0, 67, 20
1, 321628, Note_on_c, 0, 45, 80
1, 321634, Control_c, 0, 64, 74
1, 321634, Control_c, 0, 67, 19
1, 321649, Control_c, 0, 64, 127
1, 321649, Control_c, 0, 67, 18
1, 321651, Note_on_c, 0, 50, 87
1, 321664, Control_c, 0, 67, 17
1, 321670, Note_on_c, 0, 82, 101
1, 321679, Control_c, 0, 67, 16
1, 321683, Note_off_c, 0, 41, 25
1, 321687, Note_off_c, 0, 45, 64
1, 321690, Note_off_c, 0, 40, 61
1, 321694, Control_c, 0, 67, 15
1, 321709, Control_c, 0, 67, 15
1, 321721, Note_on_c, 0, 80, 18
1, 321727, Note_on_c, 0, 53, 79
1, 321733, Note_off_c, 0, 50, 64
1, 321759, Poly_aftertouch_c, 0, 73, 127
1, 321764, Note_off_c, 0, 82, 60
1, 321775, Note_off_c, 0, 53, 66
1, 321783, Control_c, 0, 67, 14
1, 321789, Poly_aftertouch_c, 0, 73, 0
1, 321798, Control_c, 0, 67, 13
1, 321813, Control_c, 0, 67, 13
1, 321827, Control_c, 0, 67, 12
1, 321837, Note_on_c, 0, 62, 104
1, 321839, Note_on_c, 0, 81, 94
1, 321840, Note_on_c, 0, 72, 106
1, 321840, Note_on_c, 0, 77, 99
1, 321842, Note_on_c, 0, 84, 102
1, 321875, Note_on_c, 0, 83, 66
1, 321879, Control_c, 0, 64, 89
1, 321879, Control_c, 0, 67, 14
1, 321894, Control_c, 0, 64, 65
1, 321894, Control_c, 0, 67, 16
1, 321908, Note_off_c, 0, 83, 53
1, 321908, Control_c, 0, 64, 63
1, 321908, Control_c, 0, 67, 16
1, 321923, Control_c, 0, 64, 75
1, 321923, Control_c, 0, 67, 16
1, 321938, Control_c, 0, 64, 98
1, 321938, Control_c, 0, 67, 15
1, 321953, Control_c, 0, 64, 127
1, 321953, Control_c, 0, 67, 13
1, 321968, Control_c, 0, 67, 12
1, 321983, Control_c, 0, 67, 9
1, 321998, Control_c, 0, 67, 0
1, 322022, Note_on_c, 0, 57, 88
1, 322124, Note_off_c, 0, 62, 53
1, 322150, Note_off_c, 0, 84, 59
1, 322152, Note_off_c, 0, 80, 5
1, 322161, Note_off_c, 0, 81, 61
1, 322176, Note_off_c, 0, 77, 60
1, 322182, Note_on_c, 0, 52, 93
1, 322236, Note_off_c, 0, 72, 62
1, 322283, Note_off_c, 0, 57, 58
1, 322327, Note_on_c, 0, 62, 86
1, 322481, Note_on_c, 0, 65, 106
1, 322481, Note_on_c, 0, 69, 110
1, 322483, Note_on_c, 0, 64, 108
1, 322495, Note_on_c, 0, 57, 82
1, 322584, Note_off_c, 0, 52, 54
1, 322620, Note_off_c, 0, 69, 61
1, 322623, Note_off_c, 0, 64, 63
1, 322626, Note_off_c, 0, 65, 65
1, 322683, Note_on_c, 0, 64, 103
1, 322683, Note_on_c, 0, 69, 108
1, 322687, Note_on_c, 0, 65, 102
1, 322692, Note_on_c, 0, 52, 82
1, 322814, Note_off_c, 0, 69, 57
1, 322816, Note_off_c, 0, 62, 51
1, 322819, Note_off_c, 0, 64, 51
1, 322863, Note_off_c, 0, 57, 33
1, 322864, Note_off_c, 0, 65, 61
1, 322918, Note_on_c, 0, 60, 110
1, 322923, Note_on_c, 0, 62, 81
1, 322949, Note_on_c, 0, 68, 61
1, 322970, Note_off_c, 0, 68, 63
1, 322970, Control_c, 0, 64, 99
1, 322971, Note_on_c, 0, 66, 24
1, 322985, Control_c, 0, 64, 61
1, 322999, Control_c, 0, 64, 0
1, 323008, Note_off_c, 0, 66, 47
1, 323029, Control_c, 0, 64, 27
1, 323044, Control_c, 0, 64, 64
1, 323059, Control_c, 0, 64, 75
1, 323073, Control_c, 0, 64, 96
1, 323088, Control_c, 0, 64, 127
1, 323137, Note_on_c, 0, 57, 72
1, 323179, Note_off_c, 0, 52, 60
1, 323222, Note_off_c, 0, 62, 51
1, 323278, Note_off_c, 0, 60, 58
1, 323294, Note_on_c, 0, 52, 70
1, 323361, Note_off_c, 0, 57, 48
1, 323451, Control_c, 0, 67, 8
1, 323466, Control_c, 0, 67, 9
1, 323480, Control_c, 0, 67, 10
1, 323488, Note_on_c, 0, 62, 70
1, 323495, Control_c, 0, 67, 11
1, 323510, Control_c, 0, 67, 11
1, 323525, Control_c, 0, 67, 12
1, 323540, Control_c, 0, 67, 13
1, 323554, Note_off_c, 0, 52, 55
1, 323554, Control_c, 0, 67, 13
1, 323569, Control_c, 0, 67, 14
1, 323584, Control_c, 0, 67, 15
1, 323596, Note_off_c, 0, 62, 59
1, 323599, Control_c, 0, 67, 16
1, 323643, Control_c, 0, 67, 16
1, 323666, Note_on_c, 0, 57, 62
1, 323674, Control_c, 0, 67, 17
1, 323689, Control_c, 0, 67, 19
1, 323703, Control_c, 0, 67, 21
1, 323718, Control_c, 0, 67, 23
1, 323733, Control_c, 0, 67, 24
1, 323748, Control_c, 0, 67, 25
1, 323763, Control_c, 0, 67, 25
1, 323774, Note_on_c, 0, 53, 97
1, 323777, Control_c, 0, 67, 26
1, 323792, Control_c, 0, 67, 27
1, 323807, Control_c, 0, 67, 28
1, 323822, Control_c, 0, 67, 29
1, 323837, Control_c, 0, 67, 29
1, 323852, Control_c, 0, 67, 30
1, 323854, Note_on_c, 0, 52, 63
1, 323866, Note_off_c, 0, 57, 54
1, 323867, Control_c, 0, 67, 30
1, 323882, Control_c, 0, 67, 32
1, 323893, Note_off_c, 0, 52, 65
1, 323896, Control_c, 0, 67, 33
1, 323911, Control_c, 0, 67, 36
1, 323926, Control_c, 0, 67, 37
1, 323941, Control_c, 0, 67, 39
1, 323956, Control_c, 0, 67, 40
1, 323970, Control_c, 0, 67, 41
1, 323985, Control_c, 0, 67, 42
1, 324000, Control_c, 0, 67, 42
1, 324014, Control_c, 0, 67, 43
1, 324029, Control_c, 0, 67, 44
1, 324044, Control_c, 0, 67, 45
1, 324059, Control_c, 0, 67, 45
1, 324074, Control_c, 0, 67, 46
1, 324096, Control_c, 0, 67, 47
1, 324111, Control_c, 0, 67, 48
1, 324141, Control_c, 0, 67, 48
1, 324156, Control_c, 0, 67, 49
1, 324170, Control_c, 0, 67, 49
1, 324183, Note_off_c, 0, 53, 61
1, 324185, Control_c, 0, 67, 50
1, 324191, Note_on_c, 0, 48, 90
1, 324200, Control_c, 0, 67, 50
1, 324210, Note_on_c, 0, 50, 51
1, 324215, Control_c, 0, 67, 51
1, 324230, Control_c, 0, 64, 105
1, 324230, Control_c, 0, 67, 52
1, 324245, Control_c, 0, 64, 78
1, 324245, Control_c, 0, 67, 52
1, 324260, Control_c, 0, 64, 57
1, 324275, Control_c, 0, 64, 0
1, 324275, Control_c, 0, 67, 53
1, 324334, Control_c, 0, 67, 53
1, 324348, Control_c, 0, 64, 51
1, 324363, Control_c, 0, 64, 65
1, 324363, Control_c, 0, 67, 54
1, 324378, Control_c, 0, 64, 73
1, 324378, Control_c, 0, 67, 55
1, 324393, Control_c, 0, 64, 83
1, 324393, Control_c, 0, 67, 56
1, 324408, Control_c, 0, 64, 96
1, 324408, Control_c, 0, 67, 57
1, 324422, Control_c, 0, 64, 113
1, 324422, Control_c, 0, 67, 58
1, 324437, Control_c, 0, 64, 127
1, 324437, Control_c, 0, 67, 60
1, 324452, Control_c, 0, 67, 61
1, 324466, Note_on_c, 0, 45, 48
1, 324468, Control_c, 0, 67, 62
1, 324483, Control_c, 0, 67, 64
1, 324498, Control_c, 0, 67, 66
1, 324513, Control_c, 0, 67, 68
1, 324527, Control_c, 0, 67, 70
1, 324542, Control_c, 0, 67, 73
1, 324557, Control_c, 0, 67, 76
1, 324572, Control_c, 0, 67, 79
1, 324587, Control_c, 0, 67, 82
1, 324601, Control_c, 0, 67, 85
1, 324616, Control_c, 0, 67, 88
1, 324631, Control_c, 0, 67, 89
1, 324642, Note_off_c, 0, 50, 38
1, 324645, Control_c, 0, 67, 92
1, 324660, Control_c, 0, 67, 94
1, 324675, Control_c, 0, 67, 96
1, 324690, Control_c, 0, 67, 98
1, 324699, Note_on_c, 0, 40, 44
1, 324705, Control_c, 0, 67, 100
1, 324719, Control_c, 0, 67, 101
1, 324734, Control_c, 0, 67, 103
1, 324736, Note_off_c, 0, 45, 41
1, 324749, Control_c, 0, 67, 104
1, 324764, Control_c, 0, 67, 105
1, 324779, Control_c, 0, 67, 106
1, 324794, Control_c, 0, 67, 107
1, 324809, Control_c, 0, 67, 108
1, 324824, Control_c, 0, 67, 109
1, 324845, Control_c, 0, 67, 110
1, 324860, Control_c, 0, 67, 111
1, 324875, Control_c, 0, 67, 111
1, 324890, Control_c, 0, 67, 112
1, 324892, Note_off_c, 0, 48, 59
1, 324905, Control_c, 0, 67, 113
1, 324919, Control_c, 0, 67, 114
1, 324934, Control_c, 0, 67, 115
1, 324949, Control_c, 0, 67, 116
1, 324964, Control_c, 0, 67, 117
1, 324966, Note_on_c, 0, 48, 78
1, 324978, Control_c, 0, 67, 118
1, 324989, Note_on_c, 0, 50, 43
1, 324993, Control_c, 0, 67, 119
1, 325008, Control_c, 0, 67, 120
1, 325023, Control_c, 0, 67, 121
1, 325038, Control_c, 0, 67, 121
1, 325052, Control_c, 0, 67, 122
1, 325067, Control_c, 0, 67, 123
1, 325069, Note_off_c, 0, 48, 0
1, 325082, Control_c, 0, 67, 124
1, 325097, Control_c, 0, 67, 125
1, 325107, Poly_aftertouch_c, 0, 48, 127
1, 325112, Note_on_c, 0, 48, 3
1, 325112, Control_c, 0, 67, 126
1, 325126, Control_c, 0, 67, 127
1, 325235, Note_on_c, 0, 45, 41
1, 325235, Note_off_c, 0, 40, 42
1, 325402, Note_off_c, 0, 48, 40
1, 325491, Note_on_c, 0, 40, 43
1, 325565, Note_off_c, 0, 45, 33
1, 325571, Note_off_c, 0, 50, 41
1, 325631, Note_on_c, 0, 48, 74
1, 325674, Note_off_c, 0, 48, 56
1, 325744, Note_on_c, 0, 48, 58
1, 325789, Note_on_c, 0, 50, 42
1, 326034, Note_on_c, 0, 45, 37
1, 326039, Note_off_c, 0, 40, 42
1, 326272, Note_on_c, 0, 40, 39
1, 326292, Note_off_c, 0, 50, 39
1, 326380, Note_off_c, 0, 45, 28
1, 326422, Note_off_c, 0, 48, 41
1, 326553, Note_on_c, 0, 48, 63
1, 326585, Note_on_c, 0, 50, 36
1, 326784, Note_off_c, 0, 48, 36
1, 326833, Note_on_c, 0, 45, 40
1, 326881, Note_off_c, 0, 40, 35
1, 326945, Note_on_c, 0, 48, 58
1, 327102, Note_off_c, 0, 50, 12
1, 327122, Note_on_c, 0, 40, 36
1, 327300, Note_off_c, 0, 45, 28
1, 327304, Note_off_c, 0, 48, 41
1, 327422, Note_on_c, 0, 48, 51
1, 327455, Note_on_c, 0, 50, 37
1, 327491, Control_c, 0, 64, 112
1, 327506, Control_c, 0, 64, 95
1, 327520, Control_c, 0, 64, 89
1, 327543, Note_off_c, 0, 40, 35
1, 327550, Control_c, 0, 64, 91
1, 327564, Control_c, 0, 64, 96
1, 327579, Control_c, 0, 64, 106
1, 327594, Control_c, 0, 64, 127
1, 327858, Note_on_c, 0, 40, 44
1, 327869, Control_c, 0, 64, 92
1, 327884, Control_c, 0, 64, 76
1, 327899, Control_c, 0, 64, 69
1, 327900, Note_off_c, 0, 50, 46
1, 327914, Control_c, 0, 64, 69
1, 327929, Control_c, 0, 64, 72
1, 327943, Control_c, 0, 64, 75
1, 327958, Control_c, 0, 64, 79
1, 327973, Control_c, 0, 64, 84
1, 327987, Control_c, 0, 64, 91
1, 328002, Control_c, 0, 64, 97
1, 328017, Control_c, 0, 64, 101
1, 328032, Control_c, 0, 64, 106
1, 328047, Control_c, 0, 64, 109
1, 328061, Control_c, 0, 64, 114
1, 328076, Control_c, 0, 64, 120
1, 328091, Control_c, 0, 64, 127
1, 328276, Note_on_c, 0, 45, 43
1, 328284, Control_c, 0, 64, 112
1, 328290, Note_off_c, 0, 40, 40
1, 328299, Control_c, 0, 64, 93
1, 328314, Control_c, 0, 64, 75
1, 328329, Control_c, 0, 64, 64
1, 328343, Control_c, 0, 64, 55
1, 328358, Control_c, 0, 64, 57
1, 328373, Control_c, 0, 64, 62
1, 328387, Control_c, 0, 64, 65
1, 328402, Control_c, 0, 64, 69
1, 328417, Control_c, 0, 64, 74
1, 328432, Control_c, 0, 64, 80
1, 328447, Control_c, 0, 64, 85
1, 328463, Control_c, 0, 64, 90
1, 328478, Control_c, 0, 64, 93
1, 328492, Control_c, 0, 64, 98
1, 328507, Control_c, 0, 64, 103
1, 328522, Control_c, 0, 64, 108
1, 328537, Control_c, 0, 64, 113
1, 328552, Control_c, 0, 64, 115
1, 328566, Control_c, 0, 64, 117
1, 328589, Control_c, 0, 64, 117
1, 328604, Control_c, 0, 64, 118
1, 328680, Note_off_c, 0, 45, 52
1, 328692, Control_c, 0, 64, 117
1, 328694, Note_on_c, 0, 40, 37
1, 328707, Control_c, 0, 64, 109
1, 328722, Control_c, 0, 64, 100
1, 328737, Control_c, 0, 64, 89
1, 328752, Control_c, 0, 64, 80
1, 328766, Control_c, 0, 64, 74
1, 328781, Control_c, 0, 64, 71
1, 328796, Control_c, 0, 64, 73
1, 328810, Control_c, 0, 64, 76
1, 328825, Control_c, 0, 64, 81
1, 328840, Control_c, 0, 64, 85
1, 328855, Control_c, 0, 64, 90
1, 328870, Control_c, 0, 64, 96
1, 328884, Control_c, 0, 64, 102
1, 328899, Control_c, 0, 64, 108
1, 328914, Control_c, 0, 64, 113
1, 328929, Control_c, 0, 64, 117
1, 328944, Control_c, 0, 64, 118
1, 329018, Control_c, 0, 64, 118
1, 329078, Control_c, 0, 64, 116
1, 329092, Control_c, 0, 64, 114
1, 329107, Control_c, 0, 64, 111
1, 329122, Note_on_c, 0, 45, 40
1, 329122, Control_c, 0, 64, 109
1, 329131, Note_off_c, 0, 40, 41
1, 329136, Control_c, 0, 64, 105
1, 329151, Control_c, 0, 64, 101
1, 329166, Control_c, 0, 64, 97
1, 329181, Control_c, 0, 64, 95
1, 329196, Control_c, 0, 64, 92
1, 329210, Control_c, 0, 64, 90
1, 329225, Control_c, 0, 64, 87
1, 329240, Control_c, 0, 64, 84
1, 329256, Control_c, 0, 64, 80
1, 329271, Control_c, 0, 64, 76
1, 329286, Control_c, 0, 64, 72
1, 329301, Control_c, 0, 64, 69
1, 329315, Control_c, 0, 64, 67
1, 329330, Control_c, 0, 64, 67
1, 329557, Note_on_c, 0, 35, 36
1, 329605, Note_off_c, 0, 45, 42
1, 329648, Control_c, 0, 64, 66
1, 330004, Control_c, 0, 64, 67
1, 330066, Note_on_c, 0, 40, 30
1, 330109, Note_off_c, 0, 35, 41
1, 330635, Note_on_c, 0, 35, 24
1, 330689, Note_off_c, 0, 40, 43
1, 330693, Control_c, 0, 64, 66
1, 330768, Control_c, 0, 64, 67
1, 330782, Control_c, 0, 64, 70
1, 330797, Control_c, 0, 64, 73
1, 330812, Control_c, 0, 64, 76
1, 330834, Control_c, 0, 64, 79
1, 330849, Control_c, 0, 64, 82
1, 330865, Control_c, 0, 64, 86
1, 330880, Control_c, 0, 64, 91
1, 330894, Control_c, 0, 64, 97
1, 330909, Control_c, 0, 64, 102
1, 330924, Control_c, 0, 64, 107
1, 330939, Control_c, 0, 64, 112
1, 330954, Control_c, 0, 64, 121
1, 330969, Control_c, 0, 64, 127
1, 331073, Note_off_c, 0, 48, 42
1, 331161, Note_off_c, 0, 35, 39
1, 331820, Note_on_c, 0, 75, 48
1, 331845, Note_on_c, 0, 51, 36
1, 331939, Control_c, 0, 64, 113
1, 331954, Control_c, 0, 64, 88
1, 331969, Control_c, 0, 64, 72
1, 331984, Control_c, 0, 64, 63
1, 331999, Control_c, 0, 64, 56
1, 332014, Control_c, 0, 64, 57
1, 332028, Control_c, 0, 64, 62
1, 332043, Control_c, 0, 64, 65
1, 332058, Control_c, 0, 64, 69
1, 332073, Control_c, 0, 64, 75
1, 332088, Control_c, 0, 64, 83
1, 332103, Control_c, 0, 64, 94
1, 332117, Control_c, 0, 64, 109
1, 332132, Control_c, 0, 64, 127
1, 332254, Note_off_c, 0, 51, 44
1, 332306, Note_on_c, 0, 68, 31
1, 332315, Note_on_c, 0, 39, 29
1, 332553, Note_off_c, 0, 39, 40
1, 332566, Note_off_c, 0, 68, 42
1, 332567, Note_on_c, 0, 71, 32
1, 332580, Note_on_c, 0, 32, 34
1, 332766, Note_on_c, 0, 63, 37
1, 332773, Note_on_c, 0, 39, 28
1, 332813, Note_off_c, 0, 63, 61
1, 332827, Note_off_c, 0, 32, 32
1, 332941, Note_off_c, 0, 39, 39
1, 332974, Note_on_c, 0, 40, 28
1, 332974, Note_on_c, 0, 62, 10
1, 333024, Note_off_c, 0, 62, 51
1, 333114, Note_off_c, 0, 40, 31
1, 333149, Note_on_c, 0, 39, 29
1, 333170, Note_on_c, 0, 63, 30
1, 333188, Note_off_c, 0, 71, 44
1, 333288, Note_off_c, 0, 39, 29
1, 333324, Note_off_c, 0, 63, 42
1, 333331, Note_on_c, 0, 32, 39
1, 333355, Note_on_c, 0, 68, 34
1, 333498, Note_on_c, 0, 71, 52
1, 333511, Note_on_c, 0, 39, 42
1, 333530, Note_off_c, 0, 32, 42
1, 333548, Note_off_c, 0, 68, 41
1, 333550, Note_off_c, 0, 39, 56
1, 333553, Note_off_c, 0, 75, 35
1, 333678, Note_off_c, 0, 71, 62
1, 333684, Note_on_c, 0, 52, 65
1, 333687, Note_on_c, 0, 74, 69
1, 333722, Note_off_c, 0, 52, 62
1, 333895, Note_on_c, 0, 40, 19
1, 333898, Note_on_c, 0, 68, 38
1, 333980, Note_off_c, 0, 40, 35
1, 334035, Note_on_c, 0, 32, 41
1, 334042, Note_off_c, 0, 68, 38
1, 334070, Note_on_c, 0, 71, 37
1, 334214, Note_on_c, 0, 40, 42
1, 334217, Note_on_c, 0, 62, 48
1, 334243, Note_off_c, 0, 32, 41
1, 334243, Note_off_c, 0, 62, 60
1, 334389, Note_off_c, 0, 40, 39
1, 334393, Note_on_c, 0, 41, 37
1, 334398, Note_on_c, 0, 61, 44
1, 334473, Note_off_c, 0, 61, 56
1, 334509, Note_off_c, 0, 71, 34
1, 334542, Note_off_c, 0, 41, 31
1, 334548, Note_on_c, 0, 40, 34
1, 334571, Note_on_c, 0, 62, 34
1, 334670, Note_off_c, 0, 40, 37
1, 334722, Note_on_c, 0, 32, 42
1, 334739, Note_on_c, 0, 68, 46
1, 334760, Note_off_c, 0, 62, 38
1, 334862, Note_off_c, 0, 74, 58
1, 334886, Note_on_c, 0, 71, 50
1, 334887, Note_on_c, 0, 40, 45
1, 334893, Note_off_c, 0, 32, 44
1, 334906, Note_off_c, 0, 68, 46
1, 334922, Note_off_c, 0, 40, 63
1, 335078, Note_off_c, 0, 71, 61
1, 335084, Control_c, 0, 64, 110
1, 335087, Note_on_c, 0, 53, 67
1, 335091, Note_on_c, 0, 73, 61
1, 335099, Control_c, 0, 64, 83
1, 335114, Control_c, 0, 64, 66
1, 335128, Control_c, 0, 64, 51
1, 335143, Control_c, 0, 64, 56
1, 335158, Control_c, 0, 64, 65
1, 335172, Control_c, 0, 64, 71
1, 335187, Control_c, 0, 64, 80
1, 335202, Control_c, 0, 64, 93
1, 335213, Note_off_c, 0, 53, 64
1, 335217, Control_c, 0, 64, 127
1, 335266, Note_on_c, 0, 41, 54
1, 335285, Note_on_c, 0, 68, 42
1, 335347, Note_off_c, 0, 41, 41
1, 335416, Note_off_c, 0, 68, 54
1, 335448, Note_on_c, 0, 37, 45
1, 335463, Note_on_c, 0, 71, 45
1, 335614, Note_off_c, 0, 37, 41
1, 335625, Note_on_c, 0, 41, 41
1, 335627, Note_on_c, 0, 61, 50
1, 335638, Note_off_c, 0, 71, 37
1, 335675, Note_off_c, 0, 61, 58
1, 335782, Note_off_c, 0, 41, 34
1, 335802, Note_on_c, 0, 60, 46
1, 335802, Note_on_c, 0, 42, 45
1, 335841, Note_off_c, 0, 60, 52
1, 335981, Note_on_c, 0, 61, 42
1, 335986, Note_on_c, 0, 41, 40
1, 336004, Note_off_c, 0, 42, 39
1, 336139, Note_on_c, 0, 37, 39
1, 336170, Note_off_c, 0, 41, 36
1, 336174, Note_on_c, 0, 68, 44
1, 336177, Note_off_c, 0, 61, 41
1, 336299, Note_off_c, 0, 68, 48
1, 336312, Note_on_c, 0, 71, 46
1, 336324, Note_on_c, 0, 44, 46
1, 336357, Note_off_c, 0, 37, 40
1, 336360, Note_off_c, 0, 44, 62
1, 336492, Note_on_c, 0, 53, 49
1, 336507, Note_on_c, 0, 61, 37
1, 336560, Note_off_c, 0, 53, 50
1, 336613, Note_off_c, 0, 73, 54
1, 336658, Note_on_c, 0, 44, 44
1, 336664, Note_on_c, 0, 68, 41
1, 336673, Note_off_c, 0, 61, 43
1, 336744, Control_c, 0, 67, 125
1, 336758, Control_c, 0, 67, 123
1, 336773, Control_c, 0, 67, 121
1, 336788, Control_c, 0, 67, 119
1, 336803, Control_c, 0, 67, 118
1, 336818, Control_c, 0, 67, 117
1, 336840, Control_c, 0, 67, 116
1, 336850, Note_on_c, 0, 53, 64
1, 336855, Control_c, 0, 67, 114
1, 336858, Note_on_c, 0, 73, 60
1, 336870, Control_c, 0, 67, 113
1, 336885, Control_c, 0, 67, 111
1, 336888, Note_off_c, 0, 53, 64
1, 336899, Control_c, 0, 67, 109
1, 336914, Control_c, 0, 67, 108
1, 336929, Control_c, 0, 67, 107
1, 336944, Control_c, 0, 67, 106
1, 336959, Control_c, 0, 67, 105
1, 336974, Control_c, 0, 67, 104
1, 336989, Control_c, 0, 67, 103
1, 336998, Note_off_c, 0, 71, 38
1, 337004, Control_c, 0, 67, 102
1, 337019, Control_c, 0, 67, 101
1, 337024, Note_on_c, 0, 37, 48
1, 337037, Note_on_c, 0, 61, 38
1, 337048, Note_off_c, 0, 44, 52
1, 337053, Note_off_c, 0, 37, 57
1, 337063, Control_c, 0, 67, 102
1, 337078, Control_c, 0, 67, 103
1, 337087, Note_off_c, 0, 61, 50
1, 337093, Control_c, 0, 67, 105
1, 337107, Control_c, 0, 67, 106
1, 337122, Control_c, 0, 67, 107
1, 337137, Control_c, 0, 67, 108
1, 337151, Control_c, 0, 67, 109
1, 337166, Control_c, 0, 67, 110
1, 337181, Control_c, 0, 67, 111
1, 337196, Control_c, 0, 67, 111
1, 337211, Control_c, 0, 67, 112
1, 337221, Note_on_c, 0, 72, 57
1, 337222, Note_on_c, 0, 54, 71
1, 337225, Control_c, 0, 67, 113
1, 337240, Control_c, 0, 67, 114
1, 337251, Note_off_c, 0, 73, 52
1, 337256, Control_c, 0, 64, 106
1, 337256, Control_c, 0, 67, 115
1, 337271, Control_c, 0, 64, 85
1, 337286, Control_c, 0, 64, 73
1, 337286, Control_c, 0, 67, 115
1, 337301, Control_c, 0, 64, 66
1, 337316, Control_c, 0, 64, 66
1, 337330, Control_c, 0, 64, 68
1, 337330, Control_c, 0, 67, 115
1, 337345, Control_c, 0, 64, 73
1, 337360, Control_c, 0, 64, 81
1, 337360, Control_c, 0, 67, 114
1, 337374, Control_c, 0, 64, 95
1, 337389, Control_c, 0, 64, 127
1, 337389, Control_c, 0, 67, 114
1, 337396, Note_on_c, 0, 44, 49
1, 337419, Control_c, 0, 67, 113
1, 337429, Note_on_c, 0, 63, 36
1, 337463, Control_c, 0, 67, 113
1, 337481, Note_off_c, 0, 54, 63
1, 337487, Note_off_c, 0, 63, 49
1, 337574, Control_c, 0, 67, 113
1, 337585, Note_on_c, 0, 55, 74
1, 337591, Note_on_c, 0, 71, 63
1, 337604, Control_c, 0, 67, 114
1, 337612, Note_off_c, 0, 72, 47
1, 337619, Control_c, 0, 64, 106
1, 337634, Control_c, 0, 64, 80
1, 337648, Control_c, 0, 64, 67
1, 337663, Control_c, 0, 64, 62
1, 337678, Control_c, 0, 64, 64
1, 337693, Control_c, 0, 64, 67
1, 337707, Control_c, 0, 64, 72
1, 337722, Control_c, 0, 64, 83
1, 337737, Control_c, 0, 64, 99
1, 337752, Note_off_c, 0, 68, 49
1, 337752, Control_c, 0, 64, 127
1, 337758, Note_on_c, 0, 49, 55
1, 337770, Note_on_c, 0, 64, 50
1, 337779, Note_off_c, 0, 55, 62
1, 337900, Control_c, 0, 67, 114
1, 337943, Note_on_c, 0, 56, 78
1, 337945, Control_c, 0, 67, 115
1, 337960, Control_c, 0, 67, 115
1, 337962, Note_on_c, 0, 70, 63
1, 337970, Note_off_c, 0, 71, 56
1, 337974, Control_c, 0, 67, 116
1, 337982, Note_off_c, 0, 49, 57
1, 337989, Control_c, 0, 64, 87
1, 337989, Control_c, 0, 67, 117
1, 338002, Note_off_c, 0, 44, 34
1, 338004, Control_c, 0, 64, 63
1, 338004, Control_c, 0, 67, 119
1, 338019, Control_c, 0, 64, 0
1, 338019, Control_c, 0, 67, 121
1, 338034, Control_c, 0, 67, 121
1, 338055, Note_off_c, 0, 64, 35
1, 338065, Control_c, 0, 67, 122
1, 338079, Control_c, 0, 64, 28
1, 338094, Control_c, 0, 64, 67
1, 338109, Control_c, 0, 64, 83
1, 338109, Control_c, 0, 67, 122
1, 338123, Control_c, 0, 64, 110
1, 338134, Note_on_c, 0, 46, 55
1, 338134, Note_off_c, 0, 56, 62
1, 338138, Control_c, 0, 64, 127
1, 338138, Control_c, 0, 67, 123
1, 338153, Control_c, 0, 67, 123
1, 338166, Note_on_c, 0, 65, 31
1, 338259, Note_off_c, 0, 46, 52
1, 338300, Note_on_c, 0, 38, 57
1, 338309, Note_off_c, 0, 65, 50
1, 338324, Note_on_c, 0, 68, 54
1, 338457, Control_c, 0, 67, 124
1, 338473, Note_off_c, 0, 38, 54
1, 338479, Note_on_c, 0, 58, 53
1, 338482, Note_on_c, 0, 46, 49
1, 338548, Note_off_c, 0, 58, 54
1, 338575, Control_c, 0, 67, 123
1, 338604, Control_c, 0, 67, 123
1, 338609, Note_off_c, 0, 46, 59
1, 338634, Control_c, 0, 67, 122
1, 338648, Note_on_c, 0, 47, 48
1, 338649, Control_c, 0, 67, 122
1, 338652, Note_on_c, 0, 57, 60
1, 338664, Control_c, 0, 67, 121
1, 338689, Note_off_c, 0, 57, 61
1, 338778, Note_off_c, 0, 47, 62
1, 338812, Note_on_c, 0, 46, 53
1, 338812, Control_c, 0, 67, 121
1, 338815, Note_on_c, 0, 58, 63
1, 338932, Note_off_c, 0, 68, 35
1, 338961, Control_c, 0, 67, 121
1, 338991, Note_on_c, 0, 62, 77
1, 339020, Control_c, 0, 67, 122
1, 339022, Note_on_c, 0, 65, 52
1, 339072, Control_c, 0, 67, 122
1, 339175, Note_on_c, 0, 53, 58
1, 339180, Note_on_c, 0, 56, 56
1, 339198, Note_off_c, 0, 65, 38
1, 339204, Control_c, 0, 67, 122
1, 339222, Note_off_c, 0, 62, 55
1, 339293, Control_c, 0, 67, 122
1, 339323, Control_c, 0, 67, 123
1, 339352, Control_c, 0, 64, 88
1, 339352, Control_c, 0, 67, 123
1, 339367, Note_on_c, 0, 65, 79
1, 339367, Control_c, 0, 64, 68
1, 339374, Note_off_c, 0, 58, 48
1, 339376, Note_off_c, 0, 53, 61
1, 339382, Control_c, 0, 64, 58
1, 339383, Note_on_c, 0, 62, 60
1, 339397, Control_c, 0, 64, 62
1, 339410, Note_off_c, 0, 70, 61
1, 339412, Control_c, 0, 64, 66
1, 339426, Control_c, 0, 64, 72
1, 339441, Control_c, 0, 64, 82
1, 339456, Control_c, 0, 64, 98
1, 339470, Control_c, 0, 64, 127
1, 339534, Note_off_c, 0, 56, 63
1, 339541, Note_on_c, 0, 52, 61
1, 339561, Note_off_c, 0, 46, 49
1, 339568, Note_off_c, 0, 52, 64
1, 339576, Note_off_c, 0, 62, 58
1, 339589, Control_c, 0, 67, 123
1, 339618, Control_c, 0, 67, 122
1, 339633, Control_c, 0, 67, 122
1, 339664, Control_c, 0, 67, 121
1, 339728, Note_on_c, 0, 38, 53
1, 339734, Note_on_c, 0, 53, 52
1, 339753, Control_c, 0, 67, 121
1, 339799, Note_off_c, 0, 53, 60
1, 339891, Note_on_c, 0, 58, 44
1, 339910, Note_on_c, 0, 46, 56
1, 339919, Note_off_c, 0, 58, 60
1, 339970, Note_off_c, 0, 46, 49
1, 339997, Control_c, 0, 67, 120
1, 340107, Note_on_c, 0, 70, 80
1, 340134, Note_on_c, 0, 56, 54
1, 340175, Control_c, 0, 67, 121
1, 340190, Control_c, 0, 64, 112
1, 340205, Control_c, 0, 64, 82
1, 340205, Control_c, 0, 67, 121
1, 340220, Control_c, 0, 64, 63
1, 340235, Control_c, 0, 64, 0
1, 340257, Note_off_c, 0, 65, 57
1, 340293, Control_c, 0, 64, 63
1, 340295, Note_on_c, 0, 46, 55
1, 340308, Control_c, 0, 64, 71
1, 340323, Control_c, 0, 64, 81
1, 340338, Control_c, 0, 64, 94
1, 340353, Control_c, 0, 64, 109
1, 340367, Control_c, 0, 64, 127
1, 340467, Note_on_c, 0, 45, 57
1, 340473, Note_off_c, 0, 46, 51
1, 340477, Note_on_c, 0, 65, 53
1, 340485, Note_off_c, 0, 38, 41
1, 340509, Note_off_c, 0, 56, 57
1, 340584, Control_c, 0, 67, 122
1, 340626, Note_off_c, 0, 45, 62
1, 340632, Note_on_c, 0, 56, 61
1, 340652, Note_on_c, 0, 46, 51
1, 340693, Note_off_c, 0, 70, 62
1, 340713, Note_off_c, 0, 56, 58
1, 340836, Control_c, 0, 67, 122
1, 340874, Note_on_c, 0, 70, 82
1, 340894, Note_off_c, 0, 46, 55
1, 340899, Note_on_c, 0, 56, 60
1, 340906, Note_on_c, 0, 39, 50
1, 340939, Control_c, 0, 64, 95
1, 340954, Control_c, 0, 64, 73
1, 340969, Control_c, 0, 64, 43
1, 340984, Control_c, 0, 64, 0
1, 341053, Note_off_c, 0, 65, 35
1, 341058, Control_c, 0, 64, 46
1, 341073, Control_c, 0, 64, 68
1, 341088, Control_c, 0, 64, 80
1, 341102, Control_c, 0, 64, 101
1, 341102, Control_c, 0, 67, 122
1, 341117, Control_c, 0, 64, 127
1, 341125, Note_on_c, 0, 61, 57
1, 341132, Control_c, 0, 67, 121
1, 341177, Control_c, 0, 67, 121
1, 341221, Control_c, 0, 67, 120
1, 341275, Note_off_c, 0, 56, 56
1, 341281, Note_on_c, 0, 46, 50
1, 341286, Note_on_c, 0, 68, 57
1, 341340, Note_off_c, 0, 70, 57
1, 341363, Note_off_c, 0, 61, 56
1, 341416, Note_off_c, 0, 46, 60
1, 341424, Note_off_c, 0, 39, 36
1, 341447, Note_on_c, 0, 70, 66
1, 341448, Note_on_c, 0, 51, 47
1, 341460, Note_off_c, 0, 68, 60
1, 341479, Note_off_c, 0, 70, 60
1, 341481, Control_c, 0, 67, 120
1, 341484, Note_off_c, 0, 51, 62
1, 341616, Note_on_c, 0, 56, 64
1, 341641, Note_on_c, 0, 70, 49
1, 341641, Note_off_c, 0, 56, 66
1, 341674, Control_c, 0, 67, 119
1, 341762, Control_c, 0, 67, 119
1, 341789, Note_off_c, 0, 70, 57
1, 341808, Note_on_c, 0, 77, 50
1, 341866, Control_c, 0, 67, 118
1, 341880, Control_c, 0, 67, 118
1, 341910, Control_c, 0, 67, 117
1, 341961, Note_on_c, 0, 61, 60
1, 341982, Note_off_c, 0, 77, 59
1, 341988, Note_on_c, 0, 82, 58
1, 342014, Control_c, 0, 67, 117
1, 342044, Control_c, 0, 67, 116
1, 342067, Control_c, 0, 67, 116
1, 342082, Control_c, 0, 67, 115
1, 342097, Control_c, 0, 67, 114
1, 342112, Control_c, 0, 67, 114
1, 342117, Note_off_c, 0, 82, 62
1, 342126, Control_c, 0, 67, 113
1, 342141, Control_c, 0, 67, 110
1, 342152, Note_on_c, 0, 75, 60
1, 342156, Control_c, 0, 67, 107
1, 342170, Control_c, 0, 67, 102
1, 342185, Control_c, 0, 67, 97
1, 342199, Control_c, 0, 67, 93
1, 342214, Control_c, 0, 67, 90
1, 342229, Control_c, 0, 67, 85
1, 342244, Control_c, 0, 67, 78
1, 342259, Control_c, 0, 67, 73
1, 342274, Control_c, 0, 67, 68
1, 342288, Control_c, 0, 67, 66
1, 342303, Control_c, 0, 67, 64
1, 342318, Control_c, 0, 67, 63
1, 342333, Control_c, 0, 67, 61
1, 342348, Control_c, 0, 67, 61
1, 342374, Note_on_c, 0, 69, 77
1, 342402, Note_on_c, 0, 87, 67
1, 342426, Note_on_c, 0, 57, 44
1, 342437, Control_c, 0, 67, 61
1, 342445, Note_off_c, 0, 75, 55
1, 342451, Control_c, 0, 64, 100
1, 342451, Control_c, 0, 67, 62
1, 342466, Control_c, 0, 64, 76
1, 342466, Control_c, 0, 67, 62
1, 342481, Control_c, 0, 64, 35
1, 342481, Control_c, 0, 67, 63
1, 342489, Note_off_c, 0, 61, 60
1, 342495, Control_c, 0, 64, 0
1, 342495, Control_c, 0, 67, 63
1, 342525, Control_c, 0, 67, 64
1, 342540, Control_c, 0, 67, 65
1, 342555, Control_c, 0, 67, 66
1, 342569, Control_c, 0, 67, 67
1, 342584, Control_c, 0, 64, 46
1, 342584, Control_c, 0, 67, 68
1, 342599, Control_c, 0, 64, 66
1, 342599, Control_c, 0, 67, 70
1, 342611, Note_on_c, 0, 85, 59
1, 342614, Control_c, 0, 64, 74
1, 342614, Control_c, 0, 67, 71
1, 342629, Control_c, 0, 64, 86
1, 342629, Control_c, 0, 67, 73
1, 342644, Control_c, 0, 64, 105
1, 342644, Control_c, 0, 67, 75
1, 342659, Control_c, 0, 64, 127
1, 342659, Control_c, 0, 67, 77
1, 342673, Control_c, 0, 67, 80
1, 342688, Control_c, 0, 67, 84
1, 342703, Control_c, 0, 67, 87
1, 342718, Control_c, 0, 67, 91
1, 342730, Note_off_c, 0, 87, 38
1, 342733, Control_c, 0, 67, 97
1, 342748, Control_c, 0, 67, 102
1, 342762, Control_c, 0, 67, 107
1, 342766, Note_off_c, 0, 85, 62
1, 342777, Control_c, 0, 67, 113
1, 342789, Note_on_c, 0, 81, 53
1, 342792, Control_c, 0, 67, 118
1, 342814, Control_c, 0, 67, 123
1, 342819, Note_on_c, 0, 66, 53
1, 342829, Control_c, 0, 67, 127
1, 342889, Note_off_c, 0, 69, 55
1, 342954, Note_off_c, 0, 81, 58
1, 342974, Note_off_c, 0, 66, 60
1, 342976, Note_on_c, 0, 78, 55
1, 342981, Note_on_c, 0, 63, 51
1, 343014, Note_off_c, 0, 63, 64
1, 343025, Note_off_c, 0, 57, 32
1, 343159, Note_on_c, 0, 75, 53
1, 343163, Note_on_c, 0, 56, 49
1, 343258, Note_off_c, 0, 56, 52
1, 343270, Note_off_c, 0, 78, 40
1, 343309, Note_on_c, 0, 51, 50
1, 343325, Note_on_c, 0, 73, 54
1, 343359, Note_off_c, 0, 51, 64
1, 343380, Note_off_c, 0, 75, 38
1, 343482, Note_off_c, 0, 73, 61
1, 343501, Note_on_c, 0, 69, 52
1, 343503, Note_on_c, 0, 44, 50
1, 343620, Note_off_c, 0, 44, 51
1, 343666, Note_off_c, 0, 69, 35
1, 343681, Note_on_c, 0, 66, 52
1, 343684, Note_on_c, 0, 32, 42
1, 343750, Note_off_c, 0, 32, 57
1, 343946, Note_on_c, 0, 68, 65
1, 343955, Note_off_c, 0, 66, 59
1, 343964, Control_c, 0, 64, 91
1, 343979, Control_c, 0, 64, 69
1, 343994, Control_c, 0, 64, 0
1, 344158, Note_on_c, 0, 56, 35
1, 344246, Control_c, 0, 64, 24
1, 344260, Control_c, 0, 64, 54
1, 344275, Control_c, 0, 64, 63
1, 344290, Control_c, 0, 64, 66
1, 344305, Control_c, 0, 64, 71
1, 344328, Control_c, 0, 64, 75
1, 344343, Control_c, 0, 64, 81
1, 344354, Note_on_c, 0, 64, 37
1, 344357, Control_c, 0, 64, 85
1, 344365, Note_on_c, 0, 60, 41
1, 344372, Control_c, 0, 64, 92
1, 344373, Note_on_c, 0, 43, 38
1, 344374, Note_on_c, 0, 37, 37
1, 344387, Control_c, 0, 64, 99
1, 344402, Control_c, 0, 64, 107
1, 344416, Control_c, 0, 64, 121
1, 344431, Control_c, 0, 64, 127
1, 344550, Note_on_c, 0, 44, 46
1, 344553, Note_off_c, 0, 37, 40
1, 344554, Note_off_c, 0, 56, 43
1, 344566, Note_off_c, 0, 43, 38
1, 344568, Note_on_c, 0, 61, 41
1, 344596, Note_off_c, 0, 44, 58
1, 344604, Note_off_c, 0, 60, 38
1, 344725, Note_on_c, 0, 51, 55
1, 344729, Note_on_c, 0, 60, 42
1, 344747, Note_on_c, 0, 56, 38
1, 344763, Note_off_c, 0, 61, 40
1, 344827, Note_off_c, 0, 64, 33
1, 344845, Note_off_c, 0, 51, 58
1, 344900, Note_on_c, 0, 61, 54
1, 344904, Note_on_c, 0, 52, 47
1, 344912, Note_off_c, 0, 56, 31
1, 344941, Note_off_c, 0, 60, 38
1, 345067, Note_off_c, 0, 61, 53
1, 345074, Note_on_c, 0, 55, 51
1, 345076, Note_off_c, 0, 52, 55
1, 345076, Control_c, 0, 64, 126
1, 345082, Note_on_c, 0, 64, 53
1, 345083, Note_on_c, 0, 60, 46
1, 345091, Control_c, 0, 64, 89
1, 345106, Control_c, 0, 64, 70
1, 345121, Control_c, 0, 64, 47
1, 345136, Control_c, 0, 64, 0
1, 345165, Control_c, 0, 64, 43
1, 345180, Control_c, 0, 64, 62
1, 345195, Control_c, 0, 64, 68
1, 345210, Control_c, 0, 64, 75
1, 345216, Note_off_c, 0, 55, 59
1, 345225, Control_c, 0, 64, 85
1, 345233, Note_off_c, 0, 64, 60
1, 345240, Control_c, 0, 64, 101
1, 345246, Note_on_c, 0, 61, 60
1, 345246, Note_on_c, 0, 56, 53
1, 345255, Control_c, 0, 64, 127
1, 345269, Note_off_c, 0, 68, 54
1, 345273, Note_off_c, 0, 60, 56
1, 345302, Note_off_c, 0, 61, 60
1, 345453, Note_on_c, 0, 69, 75
1, 345453, Note_off_c, 0, 56, 57
1, 345472, Note_on_c, 0, 67, 63
1, 345610, Control_c, 0, 64, 99
1, 345625, Control_c, 0, 64, 77
1, 345635, Note_on_c, 0, 61, 46
1, 345640, Control_c, 0, 64, 58
1, 345654, Control_c, 0, 64, 0
1, 345699, Control_c, 0, 64, 24
1, 345714, Control_c, 0, 64, 62
1, 345729, Control_c, 0, 64, 70
1, 345744, Control_c, 0, 64, 80
1, 345759, Control_c, 0, 64, 93
1, 345774, Control_c, 0, 64, 107
1, 345788, Control_c, 0, 64, 124
1, 345794, Note_on_c, 0, 56, 55
1, 345810, Control_c, 0, 64, 127
1, 345824, Note_on_c, 0, 64, 47
1, 345831, Note_on_c, 0, 60, 37
1, 345876, Note_off_c, 0, 61, 42
1, 345904, Note_off_c, 0, 69, 56
1, 345932, Note_off_c, 0, 60, 37
1, 345941, Note_off_c, 0, 67, 53
1, 345955, Note_off_c, 0, 56, 57
1, 345976, Note_on_c, 0, 52, 54
1, 346000, Note_on_c, 0, 61, 43
1, 346011, Note_off_c, 0, 52, 62
1, 346038, Note_off_c, 0, 61, 55
1, 346125, Note_off_c, 0, 64, 35
1, 346149, Note_on_c, 0, 51, 53
1, 346165, Note_on_c, 0, 60, 52
1, 346173, Note_on_c, 0, 56, 44
1, 346296, Note_off_c, 0, 51, 53
1, 346325, Note_on_c, 0, 49, 57
1, 346334, Note_on_c, 0, 61, 55
1, 346371, Note_off_c, 0, 60, 39
1, 346462, Note_off_c, 0, 49, 62
1, 346492, Note_on_c, 0, 44, 58
1, 346498, Note_off_c, 0, 56, 44
1, 346502, Note_on_c, 0, 64, 55
1, 346507, Control_c, 0, 64, 106
1, 346516, Note_on_c, 0, 60, 43
1, 346522, Control_c, 0, 64, 83
1, 346528, Note_off_c, 0, 61, 47
1, 346536, Control_c, 0, 64, 68
1, 346558, Control_c, 0, 64, 55
1, 346573, Control_c, 0, 64, 49
1, 346588, Control_c, 0, 64, 52
1, 346603, Control_c, 0, 64, 60
1, 346617, Control_c, 0, 64, 65
1, 346632, Control_c, 0, 64, 71
1, 346647, Control_c, 0, 64, 78
1, 346662, Control_c, 0, 64, 89
1, 346666, Note_on_c, 0, 37, 52
1, 346677, Control_c, 0, 64, 99
1, 346680, Note_on_c, 0, 61, 61
1, 346689, Note_off_c, 0, 44, 55
1, 346692, Control_c, 0, 64, 107
1, 346695, Note_off_c, 0, 60, 62
1, 346707, Control_c, 0, 64, 113
1, 346717, Note_off_c, 0, 64, 58
1, 346722, Control_c, 0, 64, 118
1, 346731, Note_off_c, 0, 61, 60
1, 346736, Control_c, 0, 64, 127
1, 346879, Note_on_c, 0, 70, 74
1, 346884, Note_on_c, 0, 66, 72
1, 346892, Note_off_c, 0, 37, 56
1, 346975, Control_c, 0, 64, 122
1, 346990, Control_c, 0, 64, 114
1, 347005, Control_c, 0, 64, 108
1, 347020, Control_c, 0, 64, 102
1, 347034, Control_c, 0, 64, 92
1, 347049, Control_c, 0, 64, 82
1, 347057, Note_on_c, 0, 64, 59
1, 347064, Control_c, 0, 64, 72
1, 347079, Control_c, 0, 64, 63
1, 347082, Note_on_c, 0, 61, 55
1, 347093, Control_c, 0, 64, 0
1, 347212, Note_on_c, 0, 30, 52
1, 347236, Note_off_c, 0, 61, 57
1, 347238, Note_on_c, 0, 60, 45
1, 347256, Note_off_c, 0, 64, 52
1, 347271, Control_c, 0, 64, 58
1, 347285, Control_c, 0, 64, 69
1, 347308, Control_c, 0, 64, 80
1, 347323, Control_c, 0, 64, 103
1, 347338, Control_c, 0, 64, 127
1, 347398, Note_off_c, 0, 60, 60
1, 347404, Note_on_c, 0, 37, 53
1, 347418, Note_on_c, 0, 64, 46
1, 347431, Note_on_c, 0, 61, 39
1, 347452, Note_off_c, 0, 30, 43
1, 347466, Note_off_c, 0, 61, 51
1, 347482, Note_off_c, 0, 64, 50
1, 347526, Note_off_c, 0, 66, 61
1, 347533, Note_off_c, 0, 37, 57
1, 347556, Note_off_c, 0, 70, 61
1, 347572, Note_on_c, 0, 46, 51
1, 347594, Note_on_c, 0, 67, 54
1, 347613, Note_off_c, 0, 46, 62
1, 347679, Control_c, 0, 67, 125
1, 347694, Control_c, 0, 67, 122
1, 347708, Control_c, 0, 67, 118
1, 347723, Control_c, 0, 67, 114
1, 347738, Control_c, 0, 67, 110
1, 347753, Control_c, 0, 67, 107
1, 347758, Note_on_c, 0, 71, 57
1, 347758, Note_off_c, 0, 67, 56
1, 347768, Control_c, 0, 67, 105
1, 347777, Note_on_c, 0, 53, 27
1, 347783, Control_c, 0, 67, 103
1, 347798, Control_c, 0, 67, 101
1, 347812, Control_c, 0, 67, 100
1, 347827, Control_c, 0, 67, 99
1, 347831, Poly_aftertouch_c, 0, 52, 127
1, 347842, Control_c, 0, 67, 98
1, 347846, Note_off_c, 0, 53, 53
1, 347857, Control_c, 0, 67, 97
1, 347869, Poly_aftertouch_c, 0, 52, 0
1, 347872, Control_c, 0, 67, 97
1, 347887, Control_c, 0, 67, 96
1, 347902, Control_c, 0, 67, 96
1, 347909, Note_off_c, 0, 71, 64
1, 347916, Control_c, 0, 67, 95
1, 347931, Control_c, 0, 67, 94
1, 347932, Note_on_c, 0, 76, 59
1, 347939, Note_on_c, 0, 59, 45
1, 347946, Control_c, 0, 67, 93
1, 347961, Control_c, 0, 67, 93
1, 348015, Note_off_c, 0, 76, 48
1, 348020, Control_c, 0, 67, 93
1, 348034, Control_c, 0, 67, 94
1, 348049, Control_c, 0, 67, 94
1, 348072, Control_c, 0, 67, 95
1, 348077, Note_off_c, 0, 59, 35
1, 348087, Control_c, 0, 67, 96
1, 348102, Note_on_c, 0, 64, 49
1, 348106, Note_on_c, 0, 70, 56
1, 348116, Control_c, 0, 67, 96
1, 348131, Control_c, 0, 67, 97
1, 348145, Note_off_c, 0, 64, 63
1, 348234, Control_c, 0, 67, 96
1, 348264, Control_c, 0, 67, 96
1, 348265, Note_off_c, 0, 70, 51
1, 348276, Note_on_c, 0, 82, 74
1, 348279, Control_c, 0, 67, 95
1, 348293, Note_on_c, 0, 73, 49
1, 348308, Control_c, 0, 67, 94
1, 348319, Note_off_c, 0, 73, 57
1, 348323, Control_c, 0, 67, 94
1, 348326, Note_off_c, 0, 82, 60
1, 348473, Control_c, 0, 67, 93
1, 348478, Note_on_c, 0, 64, 56
1, 348576, Control_c, 0, 67, 94
1, 348605, Control_c, 0, 67, 94
1, 348609, Note_off_c, 0, 64, 59
1, 348633, Note_on_c, 0, 70, 74
1, 348649, Note_on_c, 0, 66, 60
1, 348650, Control_c, 0, 64, 106
1, 348650, Control_c, 0, 67, 95
1, 348665, Control_c, 0, 64, 82
1, 348665, Control_c, 0, 67, 95
1, 348680, Control_c, 0, 64, 67
1, 348680, Control_c, 0, 67, 96
1, 348695, Control_c, 0, 64, 54
1, 348710, Control_c, 0, 64, 55
1, 348724, Control_c, 0, 64, 63
1, 348739, Control_c, 0, 64, 68
1, 348754, Control_c, 0, 64, 77
1, 348769, Control_c, 0, 64, 91
1, 348784, Control_c, 0, 64, 127
1, 348784, Control_c, 0, 67, 95
1, 348823, Note_on_c, 0, 61, 63
1, 348835, Control_c, 0, 67, 95
1, 348874, Note_off_c, 0, 61, 51
1, 348880, Control_c, 0, 67, 95
1, 348895, Control_c, 0, 67, 96
1, 348909, Control_c, 0, 67, 96
1, 348924, Control_c, 0, 67, 97
1, 348939, Control_c, 0, 67, 97
1, 348954, Control_c, 0, 67, 98
1, 348969, Control_c, 0, 67, 99
1, 348984, Control_c, 0, 67, 100
1, 348990, Note_on_c, 0, 71, 81
1, 348999, Control_c, 0, 67, 101
1, 349005, Note_off_c, 0, 70, 65
1, 349008, Note_on_c, 0, 65, 64
1, 349013, Control_c, 0, 64, 115
1, 349013, Control_c, 0, 67, 102
1, 349028, Control_c, 0, 64, 85
1, 349028, Control_c, 0, 67, 103
1, 349043, Control_c, 0, 64, 64
1, 349057, Control_c, 0, 64, 0
1, 349057, Control_c, 0, 67, 103
1, 349093, Note_off_c, 0, 66, 36
1, 349102, Control_c, 0, 64, 53
1, 349102, Control_c, 0, 67, 103
1, 349117, Control_c, 0, 64, 64
1, 349131, Control_c, 0, 64, 71
1, 349146, Control_c, 0, 64, 79
1, 349146, Control_c, 0, 67, 102
1, 349161, Control_c, 0, 64, 93
1, 349176, Control_c, 0, 64, 121
1, 349176, Control_c, 0, 67, 102
1, 349177, Note_on_c, 0, 59, 59
1, 349191, Control_c, 0, 64, 127
1, 349205, Control_c, 0, 67, 101
1, 349287, Note_off_c, 0, 65, 58
1, 349315, Note_off_c, 0, 59, 47
1, 349346, Note_on_c, 0, 64, 58
1, 349346, Note_on_c, 0, 72, 80
1, 349354, Control_c, 0, 67, 102
1, 349369, Control_c, 0, 67, 102
1, 349382, Note_off_c, 0, 71, 62
1, 349384, Control_c, 0, 64, 96
1, 349384, Control_c, 0, 67, 103
1, 349399, Control_c, 0, 64, 74
1, 349414, Control_c, 0, 64, 37
1, 349428, Control_c, 0, 64, 0
1, 349428, Control_c, 0, 67, 103
1, 349458, Control_c, 0, 64, 59
1, 349473, Control_c, 0, 64, 68
1, 349488, Control_c, 0, 64, 76
1, 349503, Control_c, 0, 64, 93
1, 349518, Control_c, 0, 64, 127
1, 349532, Note_on_c, 0, 58, 47
1, 349532, Control_c, 0, 67, 103
1, 349569, Control_c, 0, 67, 102
1, 349643, Control_c, 0, 67, 103
1, 349673, Control_c, 0, 67, 103
1, 349688, Control_c, 0, 64, 98
1, 349688, Control_c, 0, 67, 104
1, 349699, Note_on_c, 0, 63, 62
1, 349702, Note_off_c, 0, 64, 58
1, 349703, Control_c, 0, 64, 71
1, 349704, Note_on_c, 0, 73, 75
1, 349708, Note_off_c, 0, 58, 49
1, 349718, Control_c, 0, 64, 0
1, 349718, Control_c, 0, 67, 104
1, 349738, Note_off_c, 0, 72, 57
1, 349762, Control_c, 0, 64, 62
1, 349762, Control_c, 0, 67, 104
1, 349777, Control_c, 0, 64, 71
1, 349777, Control_c, 0, 67, 103
1, 349792, Control_c, 0, 64, 82
1, 349792, Control_c, 0, 67, 103
1, 349795, Note_off_c, 0, 63, 62
1, 349807, Control_c, 0, 64, 112
1, 349822, Control_c, 0, 64, 127
1, 349822, Control_c, 0, 67, 102
1, 349896, Note_on_c, 0, 58, 32
1, 349911, Control_c, 0, 67, 102
1, 349926, Control_c, 0, 67, 101
1, 349941, Control_c, 0, 67, 100
1, 349970, Control_c, 0, 67, 100
1, 350030, Control_c, 0, 67, 100
1, 350060, Control_c, 0, 67, 101
1, 350077, Note_on_c, 0, 64, 55
1, 350090, Note_on_c, 0, 31, 53
1, 350090, Note_off_c, 0, 58, 44
1, 350090, Control_c, 0, 64, 90
1, 350104, Control_c, 0, 64, 70
1, 350104, Control_c, 0, 67, 101
1, 350119, Control_c, 0, 64, 63
1, 350134, Control_c, 0, 64, 66
1, 350134, Control_c, 0, 67, 102
1, 350149, Control_c, 0, 64, 71
1, 350164, Control_c, 0, 64, 79
1, 350178, Control_c, 0, 64, 98
1, 350193, Control_c, 0, 64, 127
1, 350223, Control_c, 0, 67, 101
1, 350244, Note_on_c, 0, 39, 50
1, 350252, Control_c, 0, 67, 101
1, 350262, Note_on_c, 0, 70, 49
1, 350282, Control_c, 0, 67, 100
1, 350304, Control_c, 0, 67, 100
1, 350313, Note_off_c, 0, 31, 32
1, 350325, Note_off_c, 0, 73, 55
1, 350334, Control_c, 0, 67, 99
1, 350364, Control_c, 0, 67, 99
1, 350376, Note_off_c, 0, 39, 57
1, 350384, Note_off_c, 0, 64, 36
1, 350410, Note_on_c, 0, 46, 50
1, 350437, Note_on_c, 0, 73, 65
1, 350439, Note_off_c, 0, 46, 62
1, 350463, Note_off_c, 0, 70, 50
1, 350496, Control_c, 0, 67, 98
1, 350525, Control_c, 0, 67, 98
1, 350555, Control_c, 0, 67, 97
1, 350582, Note_on_c, 0, 55, 56
1, 350629, Control_c, 0, 67, 97
1, 350687, Note_off_c, 0, 55, 35
1, 350689, Control_c, 0, 67, 97
1, 350760, Note_off_c, 0, 73, 62
1, 350772, Note_on_c, 0, 79, 80
1, 350780, Note_on_c, 0, 58, 55
1, 350792, Control_c, 0, 67, 97
1, 350932, Note_on_c, 0, 67, 57
1, 350956, Control_c, 0, 67, 97
1, 350962, Note_off_c, 0, 67, 63
1, 351000, Control_c, 0, 67, 98
1, 351030, Control_c, 0, 67, 98
1, 351067, Control_c, 0, 67, 99
1, 351112, Control_c, 0, 67, 99
1, 351124, Note_off_c, 0, 79, 61
1, 351125, Note_on_c, 0, 82, 81
1, 351126, Control_c, 0, 67, 100
1, 351141, Note_on_c, 0, 55, 56
1, 351141, Control_c, 0, 64, 86
1, 351156, Control_c, 0, 64, 69
1, 351166, Note_off_c, 0, 58, 45
1, 351171, Control_c, 0, 64, 65
1, 351186, Control_c, 0, 64, 68
1, 351186, Control_c, 0, 67, 99
1, 351201, Control_c, 0, 64, 74
1, 351201, Control_c, 0, 67, 99
1, 351215, Control_c, 0, 64, 81
1, 351230, Control_c, 0, 64, 98
1, 351245, Control_c, 0, 64, 127
1, 351245, Control_c, 0, 67, 98
1, 351276, Note_off_c, 0, 55, 63
1, 351304, Control_c, 0, 67, 98
1, 351309, Note_on_c, 0, 76, 54
1, 351333, Control_c, 0, 67, 97
1, 351378, Control_c, 0, 67, 97
1, 351393, Control_c, 0, 67, 96
1, 351407, Control_c, 0, 67, 96
1, 351422, Control_c, 0, 67, 95
1, 351437, Control_c, 0, 67, 94
1, 351452, Control_c, 0, 67, 94
1, 351467, Control_c, 0, 67, 93
1, 351470, Note_on_c, 0, 46, 57
1, 351476, Note_off_c, 0, 76, 59
1, 351482, Control_c, 0, 67, 93
1, 351488, Note_on_c, 0, 78, 56
1, 351497, Control_c, 0, 67, 92
1, 351526, Control_c, 0, 67, 92
1, 351541, Control_c, 0, 67, 91
1, 351556, Control_c, 0, 67, 89
1, 351571, Control_c, 0, 67, 86
1, 351586, Control_c, 0, 67, 85
1, 351600, Control_c, 0, 67, 84
1, 351612, Note_off_c, 0, 78, 61
1, 351615, Control_c, 0, 67, 83
1, 351632, Note_off_c, 0, 46, 23
1, 351643, Note_on_c, 0, 39, 47
1, 351643, Note_on_c, 0, 73, 58
1, 351689, Note_off_c, 0, 73, 56
1, 351749, Control_c, 0, 67, 84
1, 351816, Control_c, 0, 67, 84
1, 351831, Control_c, 0, 67, 85
1, 351846, Control_c, 0, 67, 85
1, 351855, Note_off_c, 0, 82, 64
1, 351861, Control_c, 0, 67, 86
1, 351862, Note_on_c, 0, 87, 86
1, 351870, Note_off_c, 0, 39, 38
1, 351875, Control_c, 0, 67, 86
1, 351885, Note_on_c, 0, 49, 51
1, 351890, Control_c, 0, 67, 87
1, 351905, Control_c, 0, 67, 87
1, 351922, Note_off_c, 0, 49, 60
1, 351934, Control_c, 0, 67, 88
1, 351963, Control_c, 0, 67, 88
1, 351993, Control_c, 0, 67, 89
1, 352008, Control_c, 0, 67, 89
1, 352037, Control_c, 0, 67, 90
1, 352039, Note_on_c, 0, 82, 68
1, 352040, Note_off_c, 0, 87, 63
1, 352048, Note_on_c, 0, 39, 35
1, 352067, Control_c, 0, 67, 90
1, 352081, Control_c, 0, 67, 91
1, 352126, Control_c, 0, 67, 91
1, 352210, Note_off_c, 0, 39, 39
1, 352213, Note_on_c, 0, 31, 47
1, 352230, Note_on_c, 0, 70, 55
1, 352260, Control_c, 0, 67, 92
1, 352293, Note_off_c, 0, 70, 49
1, 352319, Control_c, 0, 67, 92
1, 352332, Note_off_c, 0, 31, 33
1, 352363, Control_c, 0, 67, 93
1, 352392, Note_on_c, 0, 75, 53
1, 352402, Note_on_c, 0, 39, 42
1, 352407, Control_c, 0, 67, 93
1, 352453, Control_c, 0, 67, 94
1, 352633, Note_on_c, 0, 87, 89
1, 352636, Note_off_c, 0, 82, 64
1, 352637, Note_on_c, 0, 49, 57
1, 352653, Control_c, 0, 64, 90
1, 352668, Control_c, 0, 64, 70
1, 352682, Control_c, 0, 64, 52
1, 352697, Control_c, 0, 64, 37
1, 352711, Control_c, 0, 64, 49
1, 352726, Control_c, 0, 64, 61
1, 352741, Control_c, 0, 64, 67
1, 352756, Control_c, 0, 64, 74
1, 352771, Control_c, 0, 64, 84
1, 352785, Control_c, 0, 64, 98
1, 352800, Control_c, 0, 64, 115
1, 352806, Note_off_c, 0, 49, 59
1, 352815, Control_c, 0, 64, 127
1, 352815, Control_c, 0, 67, 94
1, 352838, Note_on_c, 0, 82, 60
1, 352859, Control_c, 0, 67, 95
1, 352863, Note_off_c, 0, 39, 39
1, 352874, Control_c, 0, 67, 95
1, 352889, Control_c, 0, 67, 96
1, 352904, Control_c, 0, 67, 97
1, 352919, Control_c, 0, 67, 100
1, 352934, Control_c, 0, 67, 102
1, 352949, Control_c, 0, 67, 104
1, 352963, Control_c, 0, 67, 105
1, 352978, Control_c, 0, 67, 107
1, 352993, Control_c, 0, 67, 109
1, 353008, Control_c, 0, 67, 111
1, 353022, Control_c, 0, 67, 113
1, 353037, Control_c, 0, 67, 115
1, 353040, Note_on_c, 0, 85, 56
1, 353044, Note_on_c, 0, 32, 42
1, 353052, Control_c, 0, 67, 116
1, 353067, Note_off_c, 0, 82, 50
1, 353067, Control_c, 0, 67, 117
1, 353082, Control_c, 0, 67, 119
1, 353096, Control_c, 0, 67, 120
1, 353111, Control_c, 0, 67, 121
1, 353126, Control_c, 0, 67, 122
1, 353141, Control_c, 0, 67, 123
1, 353156, Control_c, 0, 67, 123
1, 353170, Control_c, 0, 67, 124
1, 353185, Control_c, 0, 67, 125
1, 353200, Control_c, 0, 67, 127
1, 353202, Note_on_c, 0, 39, 48
1, 353211, Note_off_c, 0, 32, 48
1, 353216, Control_c, 0, 67, 127
1, 353220, Note_on_c, 0, 80, 46
1, 353279, Note_off_c, 0, 75, 44
1, 353321, Note_off_c, 0, 39, 46
1, 353387, Note_on_c, 0, 49, 51
1, 353390, Note_on_c, 0, 82, 57
1, 353402, Note_off_c, 0, 80, 54
1, 353429, Note_off_c, 0, 49, 62
1, 353558, Note_on_c, 0, 58, 59
1, 353572, Note_on_c, 0, 76, 48
1, 353640, Note_off_c, 0, 58, 39
1, 353727, Note_off_c, 0, 76, 57
1, 353747, Note_on_c, 0, 66, 41
1, 353751, Note_on_c, 0, 80, 45
1, 353777, Note_off_c, 0, 66, 56
1, 353849, Note_off_c, 0, 87, 53
1, 353896, Note_off_c, 0, 85, 54
1, 353932, Note_on_c, 0, 74, 52
1, 354198, Note_on_c, 0, 50, 48
1, 354199, Note_on_c, 0, 86, 61
1, 354210, Control_c, 0, 64, 95
1, 354224, Control_c, 0, 64, 75
1, 354235, Note_off_c, 0, 82, 60
1, 354239, Control_c, 0, 64, 56
1, 354254, Control_c, 0, 64, 0
1, 354341, Note_off_c, 0, 80, 38
1, 354358, Control_c, 0, 64, 45
1, 354373, Control_c, 0, 64, 62
1, 354388, Control_c, 0, 64, 66
1, 354403, Control_c, 0, 64, 70
1, 354405, Note_on_c, 0, 37, 27
1, 354410, Note_on_c, 0, 80, 47
1, 354418, Control_c, 0, 64, 75
1, 354432, Control_c, 0, 64, 81
1, 354447, Control_c, 0, 64, 89
1, 354462, Control_c, 0, 64, 94
1, 354476, Control_c, 0, 64, 100
1, 354491, Control_c, 0, 64, 109
1, 354506, Control_c, 0, 64, 127
1, 354541, Note_off_c, 0, 50, 42
1, 354588, Note_on_c, 0, 83, 59
1, 354589, Note_on_c, 0, 44, 50
1, 354597, Note_off_c, 0, 80, 54
1, 354642, Note_off_c, 0, 37, 42
1, 354740, Note_off_c, 0, 44, 52
1, 354761, Note_on_c, 0, 47, 47
1, 354763, Note_on_c, 0, 78, 50
1, 354858, Note_off_c, 0, 74, 36
1, 354911, Note_off_c, 0, 47, 47
1, 354923, Note_off_c, 0, 86, 40
1, 354939, Note_on_c, 0, 54, 50
1, 354946, Note_on_c, 0, 80, 57
1, 354969, Note_off_c, 0, 83, 51
1, 354992, Note_off_c, 0, 54, 61
1, 355019, Note_off_c, 0, 78, 37
1, 355084, Note_off_c, 0, 80, 61
1, 355112, Note_on_c, 0, 74, 58
1, 355119, Note_on_c, 0, 59, 52
1, 355244, Note_off_c, 0, 74, 53
1, 355247, Note_off_c, 0, 59, 35
1, 355299, Control_c, 0, 67, 126
1, 355306, Note_on_c, 0, 78, 64
1, 355314, Control_c, 0, 67, 122
1, 355321, Note_on_c, 0, 60, 53
1, 355329, Control_c, 0, 67, 119
1, 355344, Control_c, 0, 67, 115
1, 355359, Control_c, 0, 67, 111
1, 355373, Control_c, 0, 67, 106
1, 355388, Control_c, 0, 67, 102
1, 355403, Control_c, 0, 67, 97
1, 355417, Control_c, 0, 67, 92
1, 355432, Control_c, 0, 67, 88
1, 355447, Control_c, 0, 67, 84
1, 355462, Control_c, 0, 67, 81
1, 355477, Control_c, 0, 67, 78
1, 355489, Note_on_c, 0, 66, 58
1, 355491, Control_c, 0, 67, 76
1, 355492, Note_off_c, 0, 78, 61
1, 355506, Control_c, 0, 67, 73
1, 355521, Control_c, 0, 67, 70
1, 355529, Note_off_c, 0, 66, 53
1, 355532, Note_off_c, 0, 60, 38
1, 355536, Control_c, 0, 67, 68
1, 355559, Control_c, 0, 67, 65
1, 355573, Control_c, 0, 67, 63
1, 355588, Control_c, 0, 67, 60
1, 355603, Control_c, 0, 67, 57
1, 355619, Control_c, 0, 67, 55
1, 355634, Control_c, 0, 67, 54
1, 355648, Control_c, 0, 67, 52
1, 355663, Control_c, 0, 67, 52
1, 355693, Control_c, 0, 67, 51
1, 355737, Control_c, 0, 67, 50
1, 355752, Control_c, 0, 67, 49
1, 355767, Control_c, 0, 64, 89
1, 355767, Control_c, 0, 67, 48
1, 355769, Note_on_c, 0, 61, 102
1, 355772, Note_on_c, 0, 54, 94
1, 355778, Note_on_c, 0, 57, 83
1, 355782, Control_c, 0, 64, 30
1, 355782, Control_c, 0, 67, 46
1, 355796, Control_c, 0, 64, 0
1, 355796, Control_c, 0, 67, 44
1, 355811, Control_c, 0, 67, 41
1, 355826, Control_c, 0, 64, 64
1, 355826, Control_c, 0, 67, 35
1, 355840, Control_c, 0, 64, 79
1, 355840, Control_c, 0, 67, 29
1, 355855, Control_c, 0, 64, 127
1, 355855, Control_c, 0, 67, 22
1, 355870, Control_c, 0, 67, 15
1, 355885, Control_c, 0, 67, 0
1, 356126, Note_off_c, 0, 54, 51
1, 356135, Note_off_c, 0, 61, 53
1, 356144, Note_off_c, 0, 57, 54
1, 356232, Note_on_c, 0, 61, 101
1, 356237, Note_on_c, 0, 57, 88
1, 356238, Note_on_c, 0, 54, 85
1, 356475, Note_off_c, 0, 54, 51
1, 356475, Note_off_c, 0, 57, 41
1, 356487, Note_off_c, 0, 61, 40
1, 356607, Note_on_c, 0, 61, 86
1, 356609, Note_on_c, 0, 38, 106
1, 356612, Note_on_c, 0, 57, 76
1, 356614, Note_on_c, 0, 54, 72
1, 356648, Note_off_c, 0, 38, 67
1, 356728, Poly_aftertouch_c, 0, 40, 0
1, 356795, Note_off_c, 0, 57, 53
1, 356807, Note_off_c, 0, 54, 38
1, 356831, Note_off_c, 0, 61, 35
1, 357008, Note_on_c, 0, 61, 92
1, 357010, Note_on_c, 0, 85, 119
1, 357014, Note_on_c, 0, 73, 105
1, 357015, Note_on_c, 0, 57, 84
1, 357015, Note_on_c, 0, 54, 83
1, 357319, Note_off_c, 0, 54, 57
1, 357325, Note_off_c, 0, 61, 58
1, 357326, Note_off_c, 0, 57, 56
1, 357396, Note_on_c, 0, 61, 102
1, 357402, Note_on_c, 0, 57, 91
1, 357405, Note_on_c, 0, 54, 90
1, 357614, Note_off_c, 0, 85, 60
1, 357623, Note_off_c, 0, 57, 51
1, 357623, Note_off_c, 0, 61, 53
1, 357627, Note_off_c, 0, 73, 54
1, 357638, Note_off_c, 0, 54, 49
1, 357743, Note_on_c, 0, 61, 100
1, 357751, Note_on_c, 0, 57, 84
1, 357755, Note_on_c, 0, 54, 79
1, 357884, Note_off_c, 0, 57, 58
1, 357898, Note_off_c, 0, 54, 57
1, 358019, Note_on_c, 0, 49, 93
1, 358093, Note_on_c, 0, 60, 93
1, 358096, Note_on_c, 0, 56, 89
1, 358103, Note_on_c, 0, 43, 95
1, 358104, Note_on_c, 0, 53, 78
1, 358120, Note_off_c, 0, 49, 62
1, 358123, Note_off_c, 0, 61, 63
1, 358132, Control_c, 0, 64, 79
1, 358147, Control_c, 0, 64, 0
1, 358193, Note_on_c, 0, 44, 87
1, 358198, Note_off_c, 0, 43, 65
1, 358207, Note_off_c, 0, 56, 60
1, 358219, Note_off_c, 0, 60, 60
1, 358235, Note_off_c, 0, 53, 59
1, 358282, Note_on_c, 0, 43, 87
1, 358287, Note_off_c, 0, 44, 64
1, 358369, Note_on_c, 0, 44, 85
1, 358371, Note_off_c, 0, 43, 64
1, 358440, Note_on_c, 0, 56, 59
1, 358440, Note_on_c, 0, 60, 63
1, 358448, Note_on_c, 0, 53, 59
1, 358455, Note_off_c, 0, 44, 62
1, 358460, Note_on_c, 0, 43, 81
1, 358550, Note_on_c, 0, 44, 78
1, 358550, Note_off_c, 0, 43, 63
1, 358629, Note_off_c, 0, 44, 62
1, 358640, Note_on_c, 0, 43, 76
1, 358700, Note_off_c, 0, 60, 58
1, 358702, Note_off_c, 0, 56, 61
1, 358705, Note_off_c, 0, 53, 59
1, 358716, Note_on_c, 0, 44, 78
1, 358718, Note_off_c, 0, 43, 63
1, 358788, Note_off_c, 0, 44, 63
1, 358792, Note_on_c, 0, 56, 63
1, 358798, Note_on_c, 0, 43, 77
1, 358800, Note_on_c, 0, 53, 58
1, 358801, Note_on_c, 0, 60, 56
1, 358869, Note_on_c, 0, 44, 83
1, 358873, Note_off_c, 0, 43, 64
1, 358937, Note_off_c, 0, 44, 63
1, 358951, Note_on_c, 0, 43, 81
1, 359014, Note_off_c, 0, 56, 60
1, 359018, Note_on_c, 0, 44, 87
1, 359021, Note_off_c, 0, 60, 56
1, 359024, Note_off_c, 0, 53, 60
1, 359030, Note_off_c, 0, 43, 63
1, 359102, Note_off_c, 0, 44, 64
1, 359119, Note_on_c, 0, 56, 69
1, 359119, Note_on_c, 0, 43, 86
1, 359122, Note_on_c, 0, 60, 69
1, 359135, Note_on_c, 0, 53, 60
1, 359304, Note_on_c, 0, 50, 88
1, 359318, Control_c, 0, 64, 53
1, 359323, Note_off_c, 0, 43, 63
1, 359333, Control_c, 0, 64, 66
1, 359347, Control_c, 0, 64, 72
1, 359353, Note_off_c, 0, 56, 60
1, 359355, Note_off_c, 0, 53, 54
1, 359362, Control_c, 0, 64, 79
1, 359377, Control_c, 0, 64, 87
1, 359391, Control_c, 0, 64, 97
1, 359399, Note_off_c, 0, 60, 47
1, 359406, Control_c, 0, 64, 109
1, 359422, Control_c, 0, 64, 127
1, 359477, Note_on_c, 0, 55, 94
1, 359482, Note_off_c, 0, 50, 68
1, 359491, Note_on_c, 0, 56, 71
1, 359498, Note_on_c, 0, 53, 61
1, 359504, Note_on_c, 0, 60, 67
1, 359512, Note_off_c, 0, 55, 67
1, 359630, Note_on_c, 0, 62, 90
1, 359656, Note_off_c, 0, 56, 35
1, 359686, Note_off_c, 0, 53, 38
1, 359692, Note_off_c, 0, 60, 54
1, 359804, Note_on_c, 0, 67, 97
1, 359805, Note_on_c, 0, 56, 73
1, 359808, Control_c, 0, 64, 87
1, 359810, Note_on_c, 0, 60, 64
1, 359812, Note_on_c, 0, 53, 64
1, 359823, Control_c, 0, 64, 61
1, 359834, Note_off_c, 0, 62, 62
1, 359837, Control_c, 0, 64, 0
1, 359867, Control_c, 0, 64, 54
1, 359882, Control_c, 0, 64, 69
1, 359897, Control_c, 0, 64, 81
1, 359912, Control_c, 0, 64, 106
1, 359927, Control_c, 0, 64, 127
1, 359947, Note_off_c, 0, 53, 60
1, 359966, Note_on_c, 0, 74, 111
1, 359977, Note_off_c, 0, 56, 60
1, 359984, Note_off_c, 0, 67, 64
1, 360046, Note_off_c, 0, 74, 59
1, 360106, Note_off_c, 0, 60, 61
1, 360167, Note_on_c, 0, 59, 84
1, 360168, Note_on_c, 0, 55, 78
1, 360169, Note_on_c, 0, 79, 96
1, 360172, Note_on_c, 0, 81, 94
1, 360173, Note_on_c, 0, 52, 75
1, 360186, Control_c, 0, 64, 96
1, 360195, Note_off_c, 0, 81, 61
1, 360201, Control_c, 0, 64, 68
1, 360215, Control_c, 0, 64, 0
1, 360275, Control_c, 0, 64, 62
1, 360289, Control_c, 0, 64, 75
1, 360304, Control_c, 0, 64, 95
1, 360319, Control_c, 0, 64, 127
1, 360341, Note_on_c, 0, 67, 99
1, 360416, Note_off_c, 0, 79, 61
1, 360425, Note_off_c, 0, 55, 60
1, 360427, Note_off_c, 0, 59, 54
1, 360437, Note_off_c, 0, 52, 57
1, 360537, Note_on_c, 0, 59, 74
1, 360543, Note_on_c, 0, 79, 101
1, 360544, Note_on_c, 0, 55, 73
1, 360546, Note_on_c, 0, 52, 69
1, 360557, Control_c, 0, 64, 101
1, 360572, Control_c, 0, 64, 67
1, 360586, Control_c, 0, 64, 0
1, 360660, Control_c, 0, 64, 56
1, 360675, Control_c, 0, 64, 73
1, 360690, Control_c, 0, 64, 92
1, 360705, Control_c, 0, 64, 127
1, 360758, Note_off_c, 0, 67, 57
1, 360788, Note_off_c, 0, 59, 52
1, 360796, Note_off_c, 0, 55, 52
1, 360803, Note_off_c, 0, 52, 53
1, 360841, Note_off_c, 0, 79, 58
1, 360940, Note_on_c, 0, 52, 68
1, 360943, Note_on_c, 0, 55, 67
1, 360944, Note_on_c, 0, 59, 74
1, 361103, Note_on_c, 0, 84, 105
1, 361106, Note_on_c, 0, 72, 105
1, 361227, Note_off_c, 0, 84, 60
1, 361232, Note_off_c, 0, 72, 60
1, 361249, Note_off_c, 0, 52, 57
1, 361252, Note_off_c, 0, 59, 57
1, 361257, Note_off_c, 0, 55, 62
1, 361313, Note_on_c, 0, 83, 105
1, 361313, Note_on_c, 0, 71, 106
1, 361322, Note_on_c, 0, 59, 86
1, 361322, Note_on_c, 0, 55, 73
1, 361328, Note_on_c, 0, 52, 79
1, 361408, Control_c, 0, 64, 111
1, 361423, Control_c, 0, 64, 71
1, 361438, Control_c, 0, 64, 0
1, 361498, Control_c, 0, 64, 63
1, 361513, Control_c, 0, 64, 79
1, 361534, Control_c, 0, 64, 118
1, 361549, Control_c, 0, 64, 127
1, 361669, Note_off_c, 0, 59, 59
1, 361678, Note_off_c, 0, 52, 57
1, 361678, Note_off_c, 0, 55, 62
1, 361738, Note_on_c, 0, 59, 99
1, 361742, Note_on_c, 0, 55, 79
1, 361744, Note_on_c, 0, 52, 81
1, 361949, Note_off_c, 0, 83, 56
1, 362007, Note_off_c, 0, 59, 52
1, 362016, Note_off_c, 0, 55, 57
1, 362025, Note_off_c, 0, 52, 54
1, 362025, Note_off_c, 0, 71, 54
1, 362112, Note_on_c, 0, 59, 87
1, 362112, Note_on_c, 0, 55, 85
1, 362115, Note_on_c, 0, 52, 87
1, 362225, Note_off_c, 0, 55, 62
1, 362243, Note_off_c, 0, 52, 57
1, 362315, Note_on_c, 0, 65, 105
1, 362334, Note_off_c, 0, 59, 53
1, 362529, Note_on_c, 0, 58, 92
1, 362532, Note_on_c, 0, 51, 87
1, 362532, Note_on_c, 0, 54, 90
1, 362535, Note_on_c, 0, 77, 103
1, 362536, Control_c, 0, 64, 84
1, 362551, Control_c, 0, 64, 0
1, 362610, Control_c, 0, 64, 29
1, 362625, Control_c, 0, 64, 69
1, 362640, Control_c, 0, 64, 85
1, 362654, Control_c, 0, 64, 127
1, 362667, Note_off_c, 0, 65, 58
1, 362750, Note_on_c, 0, 78, 82
1, 362751, Note_off_c, 0, 77, 62
1, 362821, Note_off_c, 0, 78, 64
1, 362824, Note_off_c, 0, 54, 56
1, 362836, Note_off_c, 0, 51, 53
1, 362838, Note_off_c, 0, 58, 52
1, 362853, Note_on_c, 0, 77, 81
1, 362929, Note_on_c, 0, 78, 83
1, 362932, Note_off_c, 0, 77, 61
1, 362996, Note_on_c, 0, 58, 71
1, 362997, Note_on_c, 0, 51, 60
1, 362999, Note_on_c, 0, 54, 66
1, 363000, Note_off_c, 0, 78, 62
1, 363015, Note_on_c, 0, 77, 90
1, 363093, Note_on_c, 0, 78, 89
1, 363094, Note_off_c, 0, 77, 61
1, 363166, Note_on_c, 0, 77, 92
1, 363167, Note_off_c, 0, 78, 63
1, 363209, Note_off_c, 0, 58, 34
1, 363227, Note_off_c, 0, 54, 33
1, 363239, Note_on_c, 0, 78, 99
1, 363245, Note_off_c, 0, 77, 62
1, 363251, Note_off_c, 0, 51, 36
1, 363305, Note_on_c, 0, 51, 60
1, 363308, Note_on_c, 0, 58, 85
1, 363314, Note_on_c, 0, 77, 99
1, 363316, Note_on_c, 0, 54, 81
1, 363321, Note_off_c, 0, 78, 62
1, 363385, Note_on_c, 0, 78, 95
1, 363394, Note_off_c, 0, 77, 65
1, 363456, Note_off_c, 0, 58, 54
1, 363457, Note_on_c, 0, 77, 95
1, 363457, Note_off_c, 0, 54, 54
1, 363461, Note_off_c, 0, 78, 64
1, 363494, Note_off_c, 0, 51, 53
1, 363537, Note_on_c, 0, 78, 103
1, 363547, Note_off_c, 0, 77, 65
1, 363599, Note_off_c, 0, 78, 64
1, 363636, Note_on_c, 0, 58, 80
1, 363644, Note_on_c, 0, 77, 102
1, 363644, Note_on_c, 0, 54, 73
1, 363648, Note_on_c, 0, 51, 67
1, 363701, Control_c, 0, 64, 89
1, 363716, Control_c, 0, 64, 64
1, 363730, Control_c, 0, 64, 24
1, 363745, Control_c, 0, 64, 62
1, 363760, Control_c, 0, 64, 71
1, 363775, Control_c, 0, 64, 91
1, 363796, Control_c, 0, 64, 127
1, 363838, Note_on_c, 0, 72, 98
1, 363903, Note_off_c, 0, 54, 54
1, 363970, Note_off_c, 0, 51, 0
1, 363984, Note_off_c, 0, 58, 0
1, 363985, Note_off_c, 0, 77, 61
1, 363996, Note_on_c, 0, 51, 38
1, 363998, Note_on_c, 0, 58, 63
1, 364003, Note_on_c, 0, 65, 88
1, 364013, Note_on_c, 0, 54, 80
1, 364014, Note_off_c, 0, 72, 64
1, 364070, Note_off_c, 0, 58, 56
1, 364074, Note_off_c, 0, 65, 65
1, 364118, Note_off_c, 0, 54, 61
1, 364129, Note_off_c, 0, 51, 54
1, 364168, Note_on_c, 0, 60, 91
1, 364334, Note_on_c, 0, 53, 89
1, 364342, Note_on_c, 0, 58, 80
1, 364344, Note_on_c, 0, 51, 70
1, 364354, Note_on_c, 0, 54, 71
1, 364366, Note_off_c, 0, 60, 63
1, 364392, Note_off_c, 0, 54, 55
1, 364399, Note_off_c, 0, 58, 61
1, 364400, Note_off_c, 0, 51, 62
1, 364494, Note_on_c, 0, 48, 86
1, 364505, Note_off_c, 0, 53, 67
1, 364608, Note_off_c, 0, 48, 62
1, 364693, Note_on_c, 0, 43, 92
1, 364694, Note_on_c, 0, 50, 76
1, 364696, Note_on_c, 0, 57, 77
1, 364708, Note_on_c, 0, 53, 63
1, 364737, Control_c, 0, 64, 122
1, 364752, Control_c, 0, 64, 84
1, 364766, Control_c, 0, 64, 64
1, 364781, Control_c, 0, 64, 0
1, 364855, Control_c, 0, 64, 28
1, 364867, Note_on_c, 0, 38, 94
1, 364870, Control_c, 0, 64, 66
1, 364884, Control_c, 0, 64, 78
1, 364897, Note_off_c, 0, 43, 65
1, 364899, Control_c, 0, 64, 101
1, 364914, Control_c, 0, 64, 127
1, 364923, Note_off_c, 0, 53, 56
1, 364929, Note_off_c, 0, 50, 40
1, 364982, Note_off_c, 0, 57, 36
1, 365066, Note_on_c, 0, 43, 90
1, 365067, Note_on_c, 0, 57, 79
1, 365068, Note_on_c, 0, 50, 77
1, 365069, Note_on_c, 0, 53, 76
1, 365077, Control_c, 0, 64, 96
1, 365092, Control_c, 0, 64, 67
1, 365107, Control_c, 0, 64, 0
1, 365111, Note_off_c, 0, 38, 63
1, 365197, Control_c, 0, 64, 65
1, 365212, Control_c, 0, 64, 78
1, 365226, Control_c, 0, 64, 107
1, 365241, Control_c, 0, 64, 127
1, 365282, Note_off_c, 0, 43, 65
1, 365292, Note_off_c, 0, 53, 54
1, 365307, Note_off_c, 0, 50, 38
1, 365335, Note_off_c, 0, 57, 38
1, 365492, Note_on_c, 0, 50, 75
1, 365494, Note_on_c, 0, 57, 79
1, 365499, Note_on_c, 0, 53, 77
1, 365656, Note_on_c, 0, 82, 105
1, 365665, Note_on_c, 0, 70, 101
1, 365786, Note_off_c, 0, 70, 59
1, 365787, Note_off_c, 0, 50, 60
1, 365799, Note_off_c, 0, 57, 52
1, 365800, Note_off_c, 0, 53, 60
1, 365800, Note_off_c, 0, 82, 64
1, 365858, Note_on_c, 0, 57, 81
1, 365859, Note_on_c, 0, 81, 103
1, 365861, Note_on_c, 0, 69, 98
1, 365865, Note_on_c, 0, 53, 78
1, 365866, Note_on_c, 0, 50, 82
1, 365900, Control_c, 0, 64, 101
1, 365915, Control_c, 0, 64, 73
1, 365930, Control_c, 0, 64, 0
1, 366005, Control_c, 0, 64, 48
1, 366027, Control_c, 0, 64, 68
1, 366042, Control_c, 0, 64, 83
1, 366056, Control_c, 0, 64, 127
1, 366161, Note_off_c, 0, 50, 62
1, 366173, Note_off_c, 0, 53, 61
1, 366173, Note_off_c, 0, 57, 57
1, 366236, Note_on_c, 0, 57, 83
1, 366243, Note_on_c, 0, 50, 82
1, 366243, Note_on_c, 0, 53, 78
1, 366279, Control_c, 0, 64, 101
1, 366294, Control_c, 0, 64, 84
1, 366309, Control_c, 0, 64, 81
1, 366324, Control_c, 0, 64, 87
1, 366339, Control_c, 0, 64, 105
1, 366354, Control_c, 0, 64, 127
1, 366493, Note_off_c, 0, 81, 60
1, 366511, Note_off_c, 0, 57, 57
1, 366515, Note_off_c, 0, 53, 60
1, 366517, Note_off_c, 0, 50, 59
1, 366540, Note_off_c, 0, 69, 59
1, 366579, Note_on_c, 0, 50, 74
1, 366579, Note_on_c, 0, 57, 81
1, 366583, Note_on_c, 0, 53, 79
1, 366628, Note_off_c, 0, 57, 63
1, 366643, Note_off_c, 0, 53, 64
1, 366648, Note_off_c, 0, 50, 68
1, 366841, Note_on_c, 0, 49, 69
1, 366909, Control_c, 0, 67, 8
1, 366924, Control_c, 0, 64, 107
1, 366924, Control_c, 0, 67, 9
1, 366925, Note_on_c, 0, 44, 81
1, 366932, Note_off_c, 0, 49, 63
1, 366939, Control_c, 0, 64, 88
1, 366939, Control_c, 0, 67, 10
1, 366941, Note_on_c, 0, 59, 84
1, 366948, Note_on_c, 0, 54, 75
1, 366951, Note_on_c, 0, 51, 77
1, 366953, Control_c, 0, 64, 75
1, 366953, Control_c, 0, 67, 11
1, 366968, Control_c, 0, 64, 66
1, 366968, Control_c, 0, 67, 11
1, 366983, Control_c, 0, 64, 60
1, 366983, Control_c, 0, 67, 12
1, 366998, Control_c, 0, 64, 55
1, 366998, Control_c, 0, 67, 12
1, 367012, Control_c, 0, 64, 51
1, 367012, Control_c, 0, 67, 13
1, 367014, Note_on_c, 0, 43, 74
1, 367016, Note_off_c, 0, 44, 55
1, 367027, Control_c, 0, 64, 48
1, 367027, Control_c, 0, 67, 14
1, 367042, Control_c, 0, 64, 47
1, 367042, Control_c, 0, 67, 16
1, 367057, Control_c, 0, 67, 17
1, 367072, Control_c, 0, 67, 19
1, 367087, Control_c, 0, 64, 49
1, 367087, Control_c, 0, 67, 21
1, 367102, Control_c, 0, 64, 52
1, 367102, Control_c, 0, 67, 23
1, 367109, Note_on_c, 0, 44, 84
1, 367117, Control_c, 0, 64, 53
1, 367117, Control_c, 0, 67, 25
1, 367117, Note_off_c, 0, 43, 63
1, 367132, Control_c, 0, 64, 54
1, 367132, Control_c, 0, 67, 28
1, 367146, Control_c, 0, 67, 31
1, 367161, Control_c, 0, 67, 35
1, 367176, Control_c, 0, 67, 38
1, 367184, Note_on_c, 0, 43, 77
1, 367191, Note_off_c, 0, 44, 64
1, 367191, Control_c, 0, 67, 41
1, 367203, Note_off_c, 0, 54, 61
1, 367205, Note_off_c, 0, 51, 60
1, 367205, Control_c, 0, 67, 43
1, 367207, Note_off_c, 0, 59, 52
1, 367220, Control_c, 0, 67, 45
1, 367235, Control_c, 0, 67, 47
1, 367250, Control_c, 0, 67, 49
1, 367265, Control_c, 0, 67, 50
1, 367275, Note_on_c, 0, 44, 88
1, 367279, Control_c, 0, 64, 53
1, 367279, Control_c, 0, 67, 52
1, 367287, Note_off_c, 0, 43, 64
1, 367288, Note_on_c, 0, 54, 59
1, 367292, Note_on_c, 0, 51, 61
1, 367294, Control_c, 0, 64, 53
1, 367294, Control_c, 0, 67, 54
1, 367295, Note_on_c, 0, 59, 54
1, 367309, Control_c, 0, 64, 52
1, 367309, Control_c, 0, 67, 55
1, 367323, Control_c, 0, 64, 51
1, 367323, Control_c, 0, 67, 57
1, 367338, Control_c, 0, 64, 50
1, 367338, Control_c, 0, 67, 57
1, 367347, Note_on_c, 0, 43, 74
1, 367353, Note_off_c, 0, 44, 63
1, 367353, Control_c, 0, 64, 49
1, 367353, Control_c, 0, 67, 58
1, 367368, Control_c, 0, 67, 60
1, 367383, Control_c, 0, 64, 49
1, 367383, Control_c, 0, 67, 61
1, 367397, Control_c, 0, 67, 62
1, 367412, Control_c, 0, 67, 64
1, 367427, Control_c, 0, 67, 65
1, 367436, Note_on_c, 0, 44, 86
1, 367442, Control_c, 0, 67, 67
1, 367445, Note_off_c, 0, 43, 63
1, 367457, Control_c, 0, 67, 69
1, 367472, Control_c, 0, 67, 71
1, 367486, Control_c, 0, 64, 49
1, 367486, Control_c, 0, 67, 72
1, 367501, Control_c, 0, 67, 73
1, 367510, Note_on_c, 0, 43, 77
1, 367515, Note_off_c, 0, 54, 60
1, 367516, Control_c, 0, 64, 50
1, 367516, Control_c, 0, 67, 74
1, 367525, Note_off_c, 0, 51, 60
1, 367525, Note_off_c, 0, 59, 50
1, 367527, Note_off_c, 0, 44, 62
1, 367538, Control_c, 0, 67, 74
1, 367553, Control_c, 0, 64, 50
1, 367553, Control_c, 0, 67, 75
1, 367568, Control_c, 0, 67, 75
1, 367583, Control_c, 0, 64, 51
1, 367583, Control_c, 0, 67, 76
1, 367598, Control_c, 0, 67, 76
1, 367610, Note_on_c, 0, 44, 79
1, 367612, Note_off_c, 0, 43, 64
1, 367614, Control_c, 0, 67, 77
1, 367628, Control_c, 0, 67, 78
1, 367643, Note_on_c, 0, 51, 45
1, 367643, Control_c, 0, 67, 80
1, 367644, Note_on_c, 0, 54, 50
1, 367646, Note_on_c, 0, 59, 48
1, 367658, Control_c, 0, 67, 82
1, 367673, Control_c, 0, 67, 84
1, 367686, Note_off_c, 0, 44, 62
1, 367688, Control_c, 0, 67, 86
1, 367695, Note_on_c, 0, 43, 74
1, 367702, Control_c, 0, 67, 88
1, 367717, Control_c, 0, 67, 90
1, 367732, Control_c, 0, 64, 50
1, 367732, Control_c, 0, 67, 92
1, 367747, Control_c, 0, 67, 93
1, 367761, Control_c, 0, 67, 95
1, 367767, Note_off_c, 0, 43, 63
1, 367773, Note_on_c, 0, 44, 77
1, 367776, Control_c, 0, 67, 97
1, 367791, Control_c, 0, 67, 99
1, 367806, Control_c, 0, 67, 100
1, 367821, Control_c, 0, 67, 102
1, 367832, Note_off_c, 0, 54, 53
1, 367835, Control_c, 0, 67, 104
1, 367844, Note_off_c, 0, 44, 62
1, 367849, Note_off_c, 0, 51, 53
1, 367850, Control_c, 0, 67, 105
1, 367851, Note_on_c, 0, 43, 75
1, 367865, Control_c, 0, 67, 107
1, 367880, Control_c, 0, 67, 109
1, 367895, Control_c, 0, 67, 111
1, 367910, Control_c, 0, 67, 112
1, 367925, Control_c, 0, 67, 113
1, 367940, Control_c, 0, 67, 115
1, 367954, Control_c, 0, 64, 50
1, 367954, Control_c, 0, 67, 116
1, 367969, Control_c, 0, 67, 118
1, 367984, Control_c, 0, 64, 49
1, 367984, Control_c, 0, 67, 120
1, 367984, Note_on_c, 0, 44, 72
1, 367991, Note_on_c, 0, 60, 63
1, 367999, Control_c, 0, 64, 49
1, 367999, Control_c, 0, 67, 124
1, 368003, Note_off_c, 0, 43, 63
1, 368010, Note_on_c, 0, 52, 48
1, 368014, Control_c, 0, 64, 47
1, 368014, Control_c, 0, 67, 127
1, 368014, Note_on_c, 0, 55, 49
1, 368018, Note_off_c, 0, 59, 35
1, 368028, Control_c, 0, 64, 46
1, 368043, Control_c, 0, 64, 44
1, 368058, Control_c, 0, 64, 42
1, 368073, Control_c, 0, 64, 41
1, 368088, Control_c, 0, 64, 39
1, 368102, Control_c, 0, 64, 37
1, 368117, Control_c, 0, 64, 35
1, 368132, Control_c, 0, 64, 33
1, 368146, Control_c, 0, 64, 30
1, 368161, Control_c, 0, 64, 28
1, 368191, Control_c, 0, 64, 27
1, 368196, Note_on_c, 0, 43, 67
1, 368200, Note_off_c, 0, 44, 61
1, 368249, Note_off_c, 0, 60, 38
1, 368253, Note_off_c, 0, 55, 50
1, 368290, Note_off_c, 0, 52, 36
1, 368302, Control_c, 0, 64, 26
1, 368410, Note_on_c, 0, 52, 46
1, 368411, Note_on_c, 0, 42, 61
1, 368416, Note_on_c, 0, 60, 49
1, 368421, Note_on_c, 0, 55, 37
1, 368440, Note_off_c, 0, 43, 51
1, 368623, Note_on_c, 0, 41, 57
1, 368627, Note_off_c, 0, 42, 62
1, 368658, Control_c, 0, 64, 27
1, 368700, Note_off_c, 0, 60, 36
1, 368701, Note_off_c, 0, 55, 40
1, 368703, Control_c, 0, 64, 28
1, 368717, Note_off_c, 0, 52, 33
1, 368792, Control_c, 0, 64, 27
1, 368807, Control_c, 0, 64, 26
1, 368837, Control_c, 0, 64, 24
1, 368881, Note_on_c, 0, 40, 43
1, 368883, Note_on_c, 0, 60, 43
1, 368887, Note_on_c, 0, 55, 36
1, 368889, Note_on_c, 0, 52, 32
1, 368890, Note_off_c, 0, 41, 52
1, 368940, Control_c, 0, 64, 21
1, 368955, Control_c, 0, 64, 0
1, 369165, Note_off_c, 0, 40, 53
1, 369171, Note_on_c, 0, 39, 46
1, 369230, Control_c, 0, 64, 38
1, 369245, Control_c, 0, 64, 61
1, 369260, Control_c, 0, 64, 67
1, 369275, Control_c, 0, 64, 72
1, 369290, Control_c, 0, 64, 78
1, 369305, Control_c, 0, 64, 84
1, 369311, Note_off_c, 0, 52, 40
1, 369320, Control_c, 0, 64, 91
1, 369335, Control_c, 0, 64, 98
1, 369335, Note_off_c, 0, 39, 51
1, 369349, Control_c, 0, 64, 103
1, 369364, Control_c, 0, 64, 107
1, 369373, Note_off_c, 0, 55, 41
1, 369379, Control_c, 0, 64, 111
1, 369394, Control_c, 0, 64, 115
1, 369408, Control_c, 0, 64, 121
1, 369423, Control_c, 0, 64, 127
1, 369674, Control_c, 0, 64, 117
1, 369680, Note_on_c, 0, 53, 43
1, 369686, Note_on_c, 0, 38, 39
1, 369689, Control_c, 0, 64, 106
1, 369699, Note_on_c, 0, 43, 34
1, 369701, Note_on_c, 0, 50, 33
1, 369704, Note_on_c, 0, 47, 22
1, 369704, Control_c, 0, 64, 93
1, 369719, Control_c, 0, 64, 79
1, 369734, Note_off_c, 0, 60, 17
1, 369734, Control_c, 0, 64, 65
1, 369749, Control_c, 0, 64, 0
1, 369889, Control_c, 0, 64, 28
1, 369904, Control_c, 0, 64, 59
1, 369919, Control_c, 0, 64, 65
1, 369934, Control_c, 0, 64, 70
1, 369949, Control_c, 0, 64, 77
1, 369964, Control_c, 0, 64, 85
1, 369978, Control_c, 0, 64, 94
1, 369994, Control_c, 0, 64, 105
1, 370004, Note_off_c, 0, 43, 37
1, 370009, Control_c, 0, 64, 126
1, 370010, Note_off_c, 0, 47, 38
1, 370023, Control_c, 0, 64, 127
1, 370041, Note_off_c, 0, 50, 43
1, 370056, Note_off_c, 0, 38, 37
1, 370342, Note_on_c, 0, 57, 33
1, 370765, Note_on_c, 0, 62, 35
1, 370940, Note_off_c, 0, 53, 44
1, 370977, Note_off_c, 0, 57, 35
1, 371156, Note_on_c, 0, 74, 48
1, 371175, Note_on_c, 0, 71, 42
1, 371186, Note_on_c, 0, 67, 31
1, 371192, Note_on_c, 0, 53, 32
1, 371230, Note_off_c, 0, 71, 56
1, 371239, Note_off_c, 0, 67, 47
1, 371246, Note_off_c, 0, 74, 57
1, 371589, Note_on_c, 0, 57, 20
1, 371703, Note_off_c, 0, 62, 39
1, 371973, Note_on_c, 0, 62, 32
1, 372086, Note_off_c, 0, 53, 44
1, 372166, Note_off_c, 0, 57, 30
1, 372375, Note_on_c, 0, 47, 29
1, 372378, Note_on_c, 0, 50, 35
1, 372382, Note_on_c, 0, 38, 32
1, 372382, Note_on_c, 0, 43, 37
1, 372395, Note_on_c, 0, 53, 33
1, 372479, Note_off_c, 0, 43, 49
1, 372486, Note_off_c, 0, 50, 49
1, 372502, Note_off_c, 0, 47, 36
1, 372524, Note_off_c, 0, 38, 41
1, 372804, Note_on_c, 0, 57, 34
1, 372804, Note_off_c, 0, 62, 37
1, 373170, Note_on_c, 0, 62, 36
1, 373287, Note_off_c, 0, 57, 40
1, 373311, Note_off_c, 0, 53, 42
1, 373555, Note_on_c, 0, 79, 59
1, 373582, Note_on_c, 0, 74, 44
1, 373583, Note_on_c, 0, 67, 32
1, 373588, Note_on_c, 0, 53, 35
1, 373592, Note_on_c, 0, 71, 41
1, 373634, Note_off_c, 0, 71, 51
1, 373640, Note_off_c, 0, 74, 55
1, 373663, Note_off_c, 0, 79, 55
1, 373664, Note_off_c, 0, 67, 38
1, 374000, Note_on_c, 0, 57, 28
1, 374137, Note_off_c, 0, 62, 39
1, 374405, Note_on_c, 0, 62, 35
1, 374545, Note_off_c, 0, 53, 43
1, 374552, Note_on_c, 0, 47, 30
1, 374553, Note_on_c, 0, 50, 32
1, 374560, Note_on_c, 0, 38, 35
1, 374569, Note_on_c, 0, 43, 30
1, 374614, Note_off_c, 0, 50, 54
1, 374618, Note_off_c, 0, 43, 49
1, 374621, Note_off_c, 0, 47, 44
1, 374727, Note_off_c, 0, 38, 0
1, 374748, Note_on_c, 0, 38, 16
1, 374777, Note_on_c, 0, 50, 33
1, 374779, Note_on_c, 0, 47, 25
1, 374783, Note_on_c, 0, 43, 23
1, 374798, Note_on_c, 0, 53, 34
1, 374821, Note_off_c, 0, 57, 36
1, 374830, Note_off_c, 0, 47, 53
1, 374831, Note_off_c, 0, 43, 52
1, 374837, Note_off_c, 0, 50, 56
1, 374891, Note_off_c, 0, 38, 45
1, 375204, Note_on_c, 0, 57, 33
1, 375295, Note_off_c, 0, 62, 36
1, 375569, Note_on_c, 0, 62, 37
1, 375717, Note_on_c, 0, 72, 45
1, 375730, Note_on_c, 0, 69, 37
1, 375774, Note_off_c, 0, 53, 42
1, 375791, Note_off_c, 0, 69, 50
1, 375848, Note_off_c, 0, 72, 34
1, 375923, Note_off_c, 0, 57, 40
1, 375943, Note_on_c, 0, 74, 42
1, 375947, Note_on_c, 0, 67, 48
1, 375955, Note_on_c, 0, 71, 41
1, 375960, Note_on_c, 0, 53, 27
1, 375993, Note_off_c, 0, 67, 59
1, 375995, Note_off_c, 0, 71, 57
1, 376019, Note_off_c, 0, 74, 56
1, 376348, Note_on_c, 0, 57, 33
1, 376454, Note_off_c, 0, 62, 39
1, 376732, Note_on_c, 0, 62, 41
1, 376866, Note_off_c, 0, 53, 42
1, 376882, Note_on_c, 0, 47, 35
1, 376885, Note_on_c, 0, 50, 37
1, 376897, Note_on_c, 0, 38, 26
1, 376906, Note_on_c, 0, 43, 27
1, 376918, Note_off_c, 0, 57, 33
1, 376941, Note_off_c, 0, 47, 50
1, 376949, Note_off_c, 0, 50, 55
1, 376952, Note_off_c, 0, 43, 49
1, 376990, Note_off_c, 0, 38, 36
1, 377094, Note_on_c, 0, 50, 34
1, 377103, Note_on_c, 0, 38, 27
1, 377112, Note_on_c, 0, 47, 25
1, 377116, Note_on_c, 0, 43, 29
1, 377123, Note_on_c, 0, 53, 36
1, 377170, Note_off_c, 0, 47, 52
1, 377171, Note_off_c, 0, 43, 55
1, 377178, Note_off_c, 0, 50, 58
1, 377233, Note_off_c, 0, 38, 43
1, 377517, Note_on_c, 0, 57, 29
1, 377591, Note_off_c, 0, 62, 32
1, 377884, Note_on_c, 0, 62, 34
1, 378045, Note_on_c, 0, 69, 47
1, 378060, Note_on_c, 0, 72, 38
1, 378086, Note_off_c, 0, 72, 58
1, 378088, Note_off_c, 0, 69, 59
1, 378093, Note_off_c, 0, 57, 42
1, 378100, Note_off_c, 0, 53, 38
1, 378277, Note_on_c, 0, 79, 54
1, 378298, Note_on_c, 0, 67, 45
1, 378300, Note_on_c, 0, 71, 53
1, 378313, Note_on_c, 0, 53, 26
1, 378351, Note_off_c, 0, 67, 55
1, 378352, Note_off_c, 0, 71, 56
1, 378372, Note_off_c, 0, 79, 56
1, 378682, Note_on_c, 0, 57, 34
1, 378829, Note_off_c, 0, 62, 39
1, 379079, Note_on_c, 0, 62, 33
1, 379175, Note_off_c, 0, 53, 43
1, 379469, Note_on_c, 0, 36, 45
1, 379482, Note_on_c, 0, 53, 37
1, 379512, Note_off_c, 0, 57, 38
1, 379550, Poly_aftertouch_c, 0, 48, 127
1, 379669, Control_c, 0, 64, 108
1, 379683, Control_c, 0, 64, 98
1, 379698, Control_c, 0, 64, 93
1, 379713, Control_c, 0, 64, 91
1, 379757, Control_c, 0, 64, 90
1, 379772, Control_c, 0, 64, 90
1, 379787, Control_c, 0, 64, 89
1, 379802, Control_c, 0, 64, 88
1, 379831, Control_c, 0, 64, 88
1, 379896, Note_on_c, 0, 57, 36
1, 379905, Control_c, 0, 64, 89
1, 379920, Control_c, 0, 64, 91
1, 379935, Control_c, 0, 64, 93
1, 379950, Control_c, 0, 64, 96
1, 379965, Control_c, 0, 64, 98
1, 379979, Control_c, 0, 64, 100
1, 379994, Control_c, 0, 64, 103
1, 380009, Control_c, 0, 64, 107
1, 380013, Note_off_c, 0, 62, 26
1, 380024, Control_c, 0, 64, 112
1, 380039, Control_c, 0, 64, 119
1, 380054, Control_c, 0, 64, 127
1, 380106, Poly_aftertouch_c, 0, 48, 0
1, 380280, Note_on_c, 0, 62, 36
1, 380397, Note_off_c, 0, 53, 44
1, 380651, Note_on_c, 0, 35, 40
1, 380662, Note_on_c, 0, 55, 43
1, 380668, Note_on_c, 0, 47, 33
1, 380710, Note_off_c, 0, 57, 42
1, 380713, Control_c, 0, 64, 116
1, 380728, Control_c, 0, 64, 106
1, 380739, Note_off_c, 0, 36, 38
1, 380743, Control_c, 0, 64, 98
1, 380757, Control_c, 0, 64, 91
1, 380772, Control_c, 0, 64, 83
1, 380787, Control_c, 0, 64, 75
1, 380802, Control_c, 0, 64, 69
1, 380817, Control_c, 0, 64, 65
1, 380832, Control_c, 0, 64, 64
1, 380847, Control_c, 0, 64, 63
1, 380862, Control_c, 0, 64, 62
1, 380876, Control_c, 0, 64, 59
1, 380891, Control_c, 0, 64, 55
1, 380906, Control_c, 0, 64, 51
1, 380921, Control_c, 0, 64, 49
1, 380950, Control_c, 0, 64, 49
1, 380995, Control_c, 0, 64, 50
1, 381017, Control_c, 0, 64, 55
1, 381032, Control_c, 0, 64, 61
1, 381047, Control_c, 0, 64, 64
1, 381061, Control_c, 0, 64, 66
1, 381073, Note_on_c, 0, 59, 37
1, 381076, Control_c, 0, 64, 69
1, 381091, Control_c, 0, 64, 72
1, 381106, Control_c, 0, 64, 75
1, 381121, Control_c, 0, 64, 79
1, 381136, Control_c, 0, 64, 84
1, 381150, Control_c, 0, 64, 91
1, 381154, Note_off_c, 0, 62, 40
1, 381165, Control_c, 0, 64, 98
1, 381181, Control_c, 0, 64, 104
1, 381196, Control_c, 0, 64, 109
1, 381211, Control_c, 0, 64, 115
1, 381225, Control_c, 0, 64, 127
1, 381451, Note_on_c, 0, 64, 38
1, 381499, Note_off_c, 0, 47, 40
1, 381584, Note_off_c, 0, 55, 39
1, 381860, Note_on_c, 0, 57, 40
1, 381862, Note_on_c, 0, 33, 40
1, 381872, Note_on_c, 0, 45, 34
1, 381931, Note_off_c, 0, 59, 47
1, 381959, Control_c, 0, 64, 109
1, 381974, Control_c, 0, 64, 100
1, 381981, Note_off_c, 0, 35, 41
1, 381989, Control_c, 0, 64, 93
1, 382003, Control_c, 0, 64, 86
1, 382018, Control_c, 0, 64, 79
1, 382033, Control_c, 0, 64, 74
1, 382048, Control_c, 0, 64, 68
1, 382063, Control_c, 0, 64, 65
1, 382078, Control_c, 0, 64, 64
1, 382108, Control_c, 0, 64, 63
1, 382122, Control_c, 0, 64, 62
1, 382137, Control_c, 0, 64, 59
1, 382152, Control_c, 0, 64, 57
1, 382211, Control_c, 0, 64, 58
1, 382226, Control_c, 0, 64, 60
1, 382241, Control_c, 0, 64, 64
1, 382242, Note_off_c, 0, 64, 42
1, 382256, Control_c, 0, 64, 67
1, 382260, Note_on_c, 0, 60, 39
1, 382270, Control_c, 0, 64, 70
1, 382285, Control_c, 0, 64, 75
1, 382300, Control_c, 0, 64, 79
1, 382315, Control_c, 0, 64, 84
1, 382329, Control_c, 0, 64, 88
1, 382344, Control_c, 0, 64, 94
1, 382359, Control_c, 0, 64, 100
1, 382374, Control_c, 0, 64, 108
1, 382389, Control_c, 0, 64, 119
1, 382403, Control_c, 0, 64, 127
1, 382628, Note_off_c, 0, 45, 36
1, 382688, Note_on_c, 0, 65, 30
1, 382807, Note_off_c, 0, 57, 38
1, 383100, Note_on_c, 0, 31, 34
1, 383103, Note_on_c, 0, 59, 35
1, 383113, Note_on_c, 0, 43, 25
1, 383197, Control_c, 0, 64, 109
1, 383210, Note_off_c, 0, 60, 44
1, 383212, Control_c, 0, 64, 96
1, 383222, Note_off_c, 0, 33, 37
1, 383226, Control_c, 0, 64, 86
1, 383241, Control_c, 0, 64, 76
1, 383264, Control_c, 0, 64, 67
1, 383278, Control_c, 0, 64, 61
1, 383293, Control_c, 0, 64, 55
1, 383308, Control_c, 0, 64, 51
1, 383315, Note_off_c, 0, 65, 34
1, 383323, Control_c, 0, 64, 49
1, 383338, Control_c, 0, 64, 47
1, 383352, Control_c, 0, 64, 47
1, 383382, Control_c, 0, 64, 50
1, 383397, Control_c, 0, 64, 57
1, 383412, Control_c, 0, 64, 63
1, 383426, Control_c, 0, 64, 66
1, 383441, Control_c, 0, 64, 69
1, 383456, Control_c, 0, 64, 73
1, 383471, Control_c, 0, 64, 76
1, 383485, Control_c, 0, 64, 81
1, 383500, Control_c, 0, 64, 85
1, 383515, Control_c, 0, 64, 89
1, 383530, Control_c, 0, 64, 94
1, 383545, Control_c, 0, 64, 101
1, 383548, Note_on_c, 0, 62, 33
1, 383559, Control_c, 0, 64, 108
1, 383575, Control_c, 0, 64, 121
1, 383590, Control_c, 0, 64, 127
1, 383971, Note_on_c, 0, 67, 31
1, 384030, Note_off_c, 0, 43, 39
1, 384048, Note_off_c, 0, 59, 41
1, 384421, Note_on_c, 0, 60, 33
1, 384438, Note_on_c, 0, 29, 40
1, 384446, Note_on_c, 0, 41, 27
1, 384463, Note_off_c, 0, 62, 40
1, 384524, Note_off_c, 0, 31, 38
1, 384546, Control_c, 0, 64, 114
1, 384561, Control_c, 0, 64, 102
1, 384576, Control_c, 0, 64, 91
1, 384591, Control_c, 0, 64, 78
1, 384606, Control_c, 0, 64, 68
1, 384621, Control_c, 0, 64, 58
1, 384636, Control_c, 0, 64, 38
1, 384643, Note_off_c, 0, 67, 35
1, 384650, Control_c, 0, 64, 0
1, 384710, Control_c, 0, 64, 27
1, 384724, Control_c, 0, 64, 57
1, 384739, Control_c, 0, 64, 66
1, 384761, Control_c, 0, 64, 71
1, 384776, Control_c, 0, 64, 77
1, 384791, Control_c, 0, 64, 85
1, 384806, Control_c, 0, 64, 93
1, 384820, Control_c, 0, 64, 102
1, 384835, Control_c, 0, 64, 113
1, 384850, Control_c, 0, 64, 127
1, 384887, Note_on_c, 0, 64, 32
1, 385015, Note_off_c, 0, 29, 41
1, 385071, Note_off_c, 0, 60, 34
1, 385093, Note_off_c, 0, 41, 40
1, 385294, Note_on_c, 0, 69, 40
1, 385327, Note_off_c, 0, 64, 42
1, 385335, Note_off_c, 0, 69, 62
1, 385724, Note_on_c, 0, 86, 68
1, 385780, Note_on_c, 0, 62, 35
1, 386044, Control_c, 0, 67, 127
1, 386059, Control_c, 0, 67, 126
1, 386074, Control_c, 0, 67, 126
1, 386089, Control_c, 0, 67, 125
1, 386103, Control_c, 0, 67, 125
1, 386131, Note_on_c, 0, 65, 37
1, 386133, Control_c, 0, 67, 124
1, 386148, Control_c, 0, 67, 124
1, 386163, Control_c, 0, 67, 123
1, 386192, Control_c, 0, 67, 123
1, 386222, Control_c, 0, 67, 122
1, 386259, Control_c, 0, 67, 122
1, 386289, Control_c, 0, 67, 121
1, 386333, Control_c, 0, 67, 121
1, 386422, Control_c, 0, 67, 120
1, 386510, Note_on_c, 0, 71, 37
1, 386524, Note_off_c, 0, 62, 40
1, 386525, Control_c, 0, 67, 120
1, 386570, Control_c, 0, 67, 119
1, 386600, Control_c, 0, 67, 119
1, 386615, Control_c, 0, 67, 118
1, 386629, Control_c, 0, 67, 115
1, 386644, Control_c, 0, 67, 112
1, 386659, Control_c, 0, 67, 110
1, 386674, Control_c, 0, 67, 107
1, 386689, Control_c, 0, 67, 106
1, 386703, Control_c, 0, 67, 104
1, 386718, Control_c, 0, 67, 103
1, 386733, Control_c, 0, 67, 101
1, 386748, Control_c, 0, 67, 101
1, 386764, Control_c, 0, 67, 100
1, 386779, Control_c, 0, 67, 100
1, 386867, Control_c, 0, 67, 100
1, 386878, Note_on_c, 0, 84, 64
1, 386897, Control_c, 0, 67, 101
1, 386901, Note_off_c, 0, 65, 35
1, 386926, Note_on_c, 0, 64, 28
1, 386936, Note_off_c, 0, 71, 29
1, 386941, Control_c, 0, 67, 101
1, 386971, Control_c, 0, 67, 102
1, 387008, Control_c, 0, 67, 102
1, 387052, Control_c, 0, 67, 103
1, 387067, Control_c, 0, 67, 103
1, 387082, Control_c, 0, 67, 104
1, 387083, Note_off_c, 0, 86, 59
1, 387097, Control_c, 0, 67, 104
1, 387112, Control_c, 0, 67, 105
1, 387141, Control_c, 0, 67, 105
1, 387171, Control_c, 0, 64, 106
1, 387171, Control_c, 0, 67, 106
1, 387186, Control_c, 0, 64, 98
1, 387200, Control_c, 0, 64, 94
1, 387215, Control_c, 0, 64, 93
1, 387215, Control_c, 0, 67, 106
1, 387259, Control_c, 0, 64, 94
1, 387274, Control_c, 0, 64, 97
1, 387284, Note_on_c, 0, 67, 39
1, 387289, Control_c, 0, 64, 102
1, 387304, Control_c, 0, 64, 111
1, 387318, Control_c, 0, 64, 127
1, 387363, Control_c, 0, 67, 107
1, 387452, Control_c, 0, 67, 107
1, 387497, Control_c, 0, 67, 108
1, 387512, Control_c, 0, 67, 108
1, 387526, Control_c, 0, 67, 109
1, 387551, Note_off_c, 0, 67, 28
1, 387556, Control_c, 0, 67, 109
1, 387602, Control_c, 0, 67, 110
1, 387622, Note_off_c, 0, 64, 36
1, 387653, Note_on_c, 0, 91, 68
1, 387660, Control_c, 0, 67, 110
1, 387676, Note_on_c, 0, 72, 32
1, 387742, Control_c, 0, 67, 111
1, 387816, Control_c, 0, 67, 111
1, 388009, Control_c, 0, 67, 112
1, 388054, Note_on_c, 0, 89, 67
1, 388085, Note_off_c, 0, 91, 59
1, 388089, Note_on_c, 0, 65, 32
1, 388127, Control_c, 0, 64, 124
1, 388141, Control_c, 0, 64, 93
1, 388156, Control_c, 0, 64, 82
1, 388171, Control_c, 0, 64, 78
1, 388171, Control_c, 0, 67, 112
1, 388186, Control_c, 0, 64, 77
1, 388188, Note_off_c, 0, 72, 44
1, 388201, Control_c, 0, 64, 79
1, 388212, Note_off_c, 0, 84, 55
1, 388216, Control_c, 0, 64, 82
1, 388231, Control_c, 0, 64, 89
1, 388231, Control_c, 0, 67, 112
1, 388245, Control_c, 0, 64, 100
1, 388260, Control_c, 0, 64, 120
1, 388275, Control_c, 0, 64, 127
1, 388275, Control_c, 0, 67, 111
1, 388380, Control_c, 0, 67, 112
1, 388449, Note_on_c, 0, 84, 64
1, 388454, Control_c, 0, 67, 112
1, 388481, Note_on_c, 0, 69, 37
1, 388520, Control_c, 0, 67, 113
1, 388550, Control_c, 0, 67, 113
1, 388579, Control_c, 0, 67, 114
1, 388594, Control_c, 0, 67, 114
1, 388609, Control_c, 0, 67, 117
1, 388625, Control_c, 0, 67, 119
1, 388639, Control_c, 0, 67, 122
1, 388654, Control_c, 0, 67, 124
1, 388669, Control_c, 0, 67, 126
1, 388684, Control_c, 0, 67, 127
1, 388749, Note_off_c, 0, 69, 41
1, 388816, Note_on_c, 0, 86, 73
1, 388837, Note_off_c, 0, 84, 64
1, 388839, Note_on_c, 0, 74, 39
1, 388839, Note_off_c, 0, 89, 60
1, 388863, Note_off_c, 0, 86, 63
1, 388887, Note_off_c, 0, 65, 42
1, 388899, Note_off_c, 0, 74, 56
1, 389233, Note_on_c, 0, 67, 38
1, 389265, Note_on_c, 0, 81, 61
1, 389281, Note_on_c, 0, 52, 35
1, 389387, Control_c, 0, 64, 106
1, 389402, Control_c, 0, 64, 84
1, 389417, Control_c, 0, 64, 70
1, 389432, Control_c, 0, 64, 62
1, 389446, Control_c, 0, 64, 60
1, 389461, Control_c, 0, 64, 62
1, 389476, Control_c, 0, 64, 65
1, 389491, Control_c, 0, 64, 68
1, 389506, Control_c, 0, 64, 73
1, 389520, Control_c, 0, 64, 82
1, 389535, Control_c, 0, 64, 98
1, 389550, Control_c, 0, 64, 127
1, 389694, Note_on_c, 0, 71, 42
1, 389730, Note_off_c, 0, 67, 38
1, 390016, Note_off_c, 0, 71, 36
1, 390113, Note_on_c, 0, 76, 44
1, 390179, Note_off_c, 0, 81, 47
1, 390275, Note_on_c, 0, 81, 62
1, 390346, Note_off_c, 0, 81, 59
1, 390442, Note_off_c, 0, 76, 61
1, 390448, Note_on_c, 0, 81, 59
1, 390478, Note_on_c, 0, 69, 45
1, 390846, Note_on_c, 0, 72, 42
1, 390858, Note_off_c, 0, 69, 40
1, 391207, Note_on_c, 0, 77, 39
1, 391235, Note_off_c, 0, 72, 38
1, 391574, Note_on_c, 0, 71, 40
1, 391649, Control_c, 0, 64, 110
1, 391653, Note_off_c, 0, 77, 38
1, 391664, Control_c, 0, 64, 93
1, 391679, Control_c, 0, 64, 81
1, 391694, Control_c, 0, 64, 72
1, 391709, Control_c, 0, 64, 67
1, 391723, Control_c, 0, 64, 66
1, 391738, Control_c, 0, 64, 65
1, 391753, Control_c, 0, 64, 65
1, 391783, Control_c, 0, 64, 64
1, 391797, Control_c, 0, 64, 64
1, 391886, Control_c, 0, 64, 64
1, 391901, Control_c, 0, 64, 66
1, 391915, Control_c, 0, 64, 68
1, 391930, Control_c, 0, 64, 71
1, 391945, Control_c, 0, 64, 76
1, 391956, Note_on_c, 0, 74, 36
1, 391960, Control_c, 0, 64, 80
1, 391975, Control_c, 0, 64, 84
1, 391989, Control_c, 0, 64, 89
1, 392004, Control_c, 0, 64, 95
1, 392019, Control_c, 0, 64, 103
1, 392034, Control_c, 0, 64, 111
1, 392049, Control_c, 0, 64, 127
1, 392317, Note_on_c, 0, 79, 39
1, 392406, Note_off_c, 0, 74, 38
1, 392479, Note_off_c, 0, 81, 54
1, 392719, Note_on_c, 0, 83, 57
1, 392773, Note_off_c, 0, 52, 38
1, 392775, Note_on_c, 0, 76, 37
1, 392779, Note_on_c, 0, 55, 29
1, 392829, Note_off_c, 0, 79, 41
1, 392842, Note_off_c, 0, 76, 0
1, 392842, Note_on_c, 0, 76, 8
1, 392871, Control_c, 0, 64, 105
1, 392886, Control_c, 0, 64, 87
1, 392888, Note_off_c, 0, 71, 42
1, 392901, Control_c, 0, 64, 74
1, 392916, Control_c, 0, 64, 65
1, 392930, Control_c, 0, 64, 62
1, 392945, Control_c, 0, 64, 62
1, 392960, Control_c, 0, 64, 62
1, 392975, Control_c, 0, 64, 63
1, 392997, Control_c, 0, 64, 66
1, 393012, Control_c, 0, 64, 70
1, 393027, Control_c, 0, 64, 75
1, 393042, Control_c, 0, 64, 81
1, 393057, Control_c, 0, 64, 90
1, 393071, Control_c, 0, 64, 98
1, 393086, Control_c, 0, 64, 110
1, 393101, Control_c, 0, 64, 127
1, 393194, Note_on_c, 0, 71, 39
1, 393379, Note_off_c, 0, 76, 47
1, 393604, Note_on_c, 0, 76, 30
1, 393739, Note_off_c, 0, 71, 54
1, 394066, Note_on_c, 0, 79, 52
1, 394091, Note_on_c, 0, 50, 34
1, 394113, Note_on_c, 0, 69, 35
1, 394235, Control_c, 0, 64, 104
1, 394250, Control_c, 0, 64, 86
1, 394251, Note_off_c, 0, 76, 42
1, 394265, Control_c, 0, 64, 72
1, 394279, Note_off_c, 0, 55, 42
1, 394280, Control_c, 0, 64, 56
1, 394293, Note_off_c, 0, 83, 38
1, 394295, Control_c, 0, 64, 30
1, 394324, Control_c, 0, 64, 43
1, 394339, Control_c, 0, 64, 58
1, 394354, Control_c, 0, 64, 65
1, 394369, Control_c, 0, 64, 71
1, 394383, Control_c, 0, 64, 80
1, 394398, Control_c, 0, 64, 89
1, 394413, Control_c, 0, 64, 99
1, 394428, Control_c, 0, 64, 111
1, 394443, Control_c, 0, 64, 127
1, 394547, Note_on_c, 0, 57, 40
1, 394570, Note_on_c, 0, 74, 38
1, 394927, Note_on_c, 0, 59, 49
1, 394943, Note_off_c, 0, 57, 58
1, 394949, Note_on_c, 0, 77, 44
1, 395112, Note_off_c, 0, 69, 43
1, 395330, Note_on_c, 0, 60, 47
1, 395331, Note_on_c, 0, 69, 43
1, 395422, Control_c, 0, 64, 109
1, 395435, Note_off_c, 0, 74, 37
1, 395437, Control_c, 0, 64, 83
1, 395444, Note_off_c, 0, 59, 55
1, 395452, Control_c, 0, 64, 68
1, 395466, Control_c, 0, 64, 53
1, 395481, Control_c, 0, 64, 38
1, 395496, Control_c, 0, 64, 39
1, 395511, Control_c, 0, 64, 45
1, 395526, Control_c, 0, 64, 57
1, 395540, Control_c, 0, 64, 64
1, 395556, Control_c, 0, 64, 70
1, 395571, Control_c, 0, 64, 77
1, 395586, Control_c, 0, 64, 85
1, 395601, Control_c, 0, 64, 93
1, 395616, Control_c, 0, 64, 103
1, 395630, Control_c, 0, 64, 117
1, 395645, Control_c, 0, 64, 127
1, 395719, Note_on_c, 0, 74, 40
1, 395733, Note_off_c, 0, 50, 59
1, 395827, Note_off_c, 0, 77, 38
1, 396079, Note_on_c, 0, 81, 66
1, 396087, Note_on_c, 0, 61, 48
1, 396127, Note_on_c, 0, 77, 43
1, 396146, Note_off_c, 0, 60, 34
1, 396175, Note_off_c, 0, 79, 39
1, 396279, Note_off_c, 0, 69, 40
1, 396483, Note_on_c, 0, 79, 69
1, 396547, Note_on_c, 0, 55, 35
1, 396547, Note_off_c, 0, 81, 57
1, 396552, Note_on_c, 0, 71, 44
1, 396569, Note_on_c, 0, 62, 38
1, 396571, Control_c, 0, 64, 99
1, 396586, Control_c, 0, 64, 76
1, 396601, Control_c, 0, 64, 58
1, 396616, Control_c, 0, 64, 0
1, 396628, Note_off_c, 0, 74, 54
1, 396634, Note_off_c, 0, 61, 36
1, 396645, Control_c, 0, 64, 51
1, 396660, Control_c, 0, 64, 66
1, 396670, Note_off_c, 0, 77, 60
1, 396675, Control_c, 0, 64, 74
1, 396690, Control_c, 0, 64, 86
1, 396704, Control_c, 0, 64, 104
1, 396719, Control_c, 0, 64, 127
1, 396735, Note_off_c, 0, 62, 54
1, 396764, Note_on_c, 0, 64, 41
1, 396825, Note_off_c, 0, 64, 54
1, 396871, Note_on_c, 0, 62, 40
1, 396907, Note_off_c, 0, 62, 53
1, 396933, Note_on_c, 0, 72, 49
1, 396935, Note_on_c, 0, 64, 30
1, 396971, Note_off_c, 0, 64, 53
1, 396990, Note_on_c, 0, 62, 41
1, 397019, Note_off_c, 0, 62, 57
1, 397022, Note_off_c, 0, 71, 39
1, 397046, Note_on_c, 0, 64, 43
1, 397084, Note_off_c, 0, 64, 55
1, 397106, Note_on_c, 0, 62, 44
1, 397137, Note_off_c, 0, 62, 53
1, 397164, Note_on_c, 0, 64, 41
1, 397195, Note_off_c, 0, 64, 54
1, 397203, Note_on_c, 0, 62, 47
1, 397241, Note_off_c, 0, 62, 52
1, 397277, Note_on_c, 0, 77, 54
1, 397286, Note_on_c, 0, 64, 27
1, 397304, Note_off_c, 0, 72, 57
1, 397316, Note_on_c, 0, 62, 46
1, 397345, Note_off_c, 0, 64, 0
1, 397354, Note_off_c, 0, 62, 52
1, 397362, Note_on_c, 0, 64, 35
1, 397412, Note_off_c, 0, 64, 59
1, 397449, Note_on_c, 0, 62, 21
1, 397489, Note_on_c, 0, 64, 44
1, 397539, Note_off_c, 0, 62, 0
1, 397544, Note_off_c, 0, 64, 55
1, 397576, Poly_aftertouch_c, 0, 62, 127
1, 397606, Note_on_c, 0, 64, 34
1, 397659, Note_on_c, 0, 62, 4
1, 397690, Note_off_c, 0, 77, 55
1, 397714, Note_on_c, 0, 71, 43
1, 397714, Note_off_c, 0, 64, 0
1, 397739, Note_off_c, 0, 62, 0
1, 397741, Note_on_c, 0, 64, 9
1, 397770, Note_on_c, 0, 62, 17
1, 397825, Note_off_c, 0, 64, 0
1, 397854, Note_on_c, 0, 64, 4
1, 397863, Note_off_c, 0, 62, 0
1, 397885, Note_on_c, 0, 62, 19
1, 397933, Note_off_c, 0, 64, 0
1, 397957, Note_on_c, 0, 64, 19
1, 397988, Note_off_c, 0, 62, 0
1, 398005, Note_on_c, 0, 62, 26
1, 398022, Note_off_c, 0, 64, 42
1, 398065, Note_off_c, 0, 62, 45
1, 398078, Note_on_c, 0, 64, 33
1, 398126, Note_off_c, 0, 64, 47
1, 398134, Note_on_c, 0, 62, 26
1, 398167, Note_off_c, 0, 79, 48
1, 398193, Note_on_c, 0, 64, 31
1, 398193, Note_on_c, 0, 74, 40
1, 398231, Note_off_c, 0, 62, 0
1, 398247, Note_on_c, 0, 62, 30
1, 398256, Note_off_c, 0, 64, 46
1, 398331, Note_off_c, 0, 62, 0
1, 398352, Poly_aftertouch_c, 0, 64, 127
1, 398358, Note_on_c, 0, 62, 14
1, 398401, Poly_aftertouch_c, 0, 64, 0
1, 398420, Note_off_c, 0, 62, 44
1, 398422, Note_on_c, 0, 64, 27
1, 398485, Note_off_c, 0, 64, 60
1, 398505, Note_on_c, 0, 62, 34
1, 398624, Note_on_c, 0, 61, 46
1, 398628, Note_on_c, 0, 79, 46
1, 398629, Note_off_c, 0, 62, 38
1, 398649, Note_off_c, 0, 74, 61
1, 398825, Note_off_c, 0, 61, 41
1, 398848, Note_on_c, 0, 62, 43
1, 398853, Note_off_c, 0, 55, 41
1, 399031, Note_off_c, 0, 62, 34
1, 399209, Note_on_c, 0, 76, 48
1, 399221, Note_on_c, 0, 55, 37
1, 399222, Note_on_c, 0, 48, 33
1, 399270, Control_c, 0, 64, 97
1, 399284, Note_off_c, 0, 71, 45
1, 399285, Control_c, 0, 64, 77
1, 399299, Control_c, 0, 64, 64
1, 399308, Note_off_c, 0, 79, 39
1, 399314, Control_c, 0, 64, 32
1, 399329, Control_c, 0, 64, 17
1, 399344, Control_c, 0, 64, 36
1, 399358, Control_c, 0, 64, 57
1, 399373, Control_c, 0, 64, 66
1, 399388, Control_c, 0, 64, 73
1, 399403, Control_c, 0, 64, 81
1, 399418, Control_c, 0, 64, 96
1, 399433, Control_c, 0, 64, 117
1, 399448, Control_c, 0, 64, 127
1, 399599, Note_off_c, 0, 55, 42
1, 399611, Note_off_c, 0, 48, 47
1, 399644, Note_on_c, 0, 79, 48
1, 399669, Note_on_c, 0, 74, 39
1, 399811, Control_c, 0, 67, 127
1, 399826, Control_c, 0, 67, 126
1, 399838, Note_off_c, 0, 74, 52
1, 399841, Control_c, 0, 67, 125
1, 399856, Control_c, 0, 67, 124
1, 399871, Control_c, 0, 67, 123
1, 399886, Control_c, 0, 67, 122
1, 399901, Control_c, 0, 67, 121
1, 399916, Control_c, 0, 67, 121
1, 399930, Control_c, 0, 67, 120
1, 399945, Control_c, 0, 67, 119
1, 399960, Control_c, 0, 67, 119
1, 399974, Control_c, 0, 67, 118
1, 399989, Control_c, 0, 67, 118
1, 400004, Control_c, 0, 67, 117
1, 400019, Control_c, 0, 67, 117
1, 400034, Control_c, 0, 67, 116
1, 400037, Note_on_c, 0, 84, 47
1, 400048, Control_c, 0, 67, 116
1, 400060, Note_on_c, 0, 72, 34
1, 400063, Control_c, 0, 67, 115
1, 400078, Control_c, 0, 67, 115
1, 400093, Control_c, 0, 67, 114
1, 400108, Control_c, 0, 67, 114
1, 400137, Control_c, 0, 67, 113
1, 400152, Control_c, 0, 67, 113
1, 400167, Control_c, 0, 67, 112
1, 400175, Note_off_c, 0, 76, 54
1, 400181, Control_c, 0, 67, 112
1, 400196, Control_c, 0, 67, 111
1, 400211, Control_c, 0, 67, 111
1, 400226, Control_c, 0, 67, 110
1, 400241, Control_c, 0, 67, 110
1, 400270, Control_c, 0, 67, 109
1, 400285, Control_c, 0, 67, 109
1, 400315, Control_c, 0, 67, 108
1, 400330, Control_c, 0, 67, 108
1, 400345, Control_c, 0, 67, 107
1, 400390, Control_c, 0, 67, 107
1, 400432, Note_on_c, 0, 71, 64
1, 400434, Control_c, 0, 67, 106
1, 400462, Note_on_c, 0, 76, 43
1, 400486, Control_c, 0, 67, 106
1, 400504, Note_off_c, 0, 71, 58
1, 400516, Control_c, 0, 67, 105
1, 400531, Note_off_c, 0, 79, 35
1, 400540, Note_off_c, 0, 72, 44
1, 400546, Control_c, 0, 67, 105
1, 400560, Control_c, 0, 67, 104
1, 400575, Control_c, 0, 67, 103
1, 400590, Control_c, 0, 67, 102
1, 400604, Control_c, 0, 67, 102
1, 400619, Control_c, 0, 67, 101
1, 400634, Control_c, 0, 67, 101
1, 400664, Control_c, 0, 67, 100
1, 400678, Control_c, 0, 67, 100
1, 400693, Control_c, 0, 67, 99
1, 400708, Control_c, 0, 67, 98
1, 400723, Control_c, 0, 67, 98
1, 400738, Control_c, 0, 67, 97
1, 400767, Control_c, 0, 67, 97
1, 400811, Control_c, 0, 67, 96
1, 400861, Note_on_c, 0, 79, 38
1, 400865, Note_on_c, 0, 74, 41
1, 400900, Control_c, 0, 67, 96
1, 400959, Control_c, 0, 67, 95
1, 400989, Control_c, 0, 67, 95
1, 401000, Note_off_c, 0, 76, 34
1, 401004, Control_c, 0, 67, 94
1, 401019, Control_c, 0, 67, 93
1, 401031, Note_off_c, 0, 74, 38
1, 401034, Control_c, 0, 67, 92
1, 401048, Control_c, 0, 67, 91
1, 401052, Note_off_c, 0, 84, 47
1, 401063, Control_c, 0, 67, 90
1, 401078, Control_c, 0, 67, 90
1, 401123, Control_c, 0, 67, 89
1, 401234, Control_c, 0, 67, 90
1, 401249, Control_c, 0, 67, 90
1, 401255, Note_on_c, 0, 84, 31
1, 401257, Note_on_c, 0, 72, 31
1, 401264, Control_c, 0, 67, 91
1, 401279, Control_c, 0, 67, 92
1, 401294, Control_c, 0, 67, 94
1, 401308, Control_c, 0, 67, 95
1, 401323, Control_c, 0, 67, 96
1, 401338, Control_c, 0, 67, 98
1, 401354, Control_c, 0, 67, 99
1, 401369, Control_c, 0, 67, 101
1, 401383, Control_c, 0, 67, 102
1, 401398, Control_c, 0, 67, 103
1, 401413, Control_c, 0, 67, 105
1, 401427, Control_c, 0, 67, 107
1, 401442, Control_c, 0, 67, 110
1, 401457, Control_c, 0, 67, 113
1, 401472, Control_c, 0, 67, 116
1, 401487, Control_c, 0, 67, 119
1, 401502, Control_c, 0, 67, 122
1, 401516, Control_c, 0, 67, 124
1, 401531, Control_c, 0, 67, 126
1, 401546, Control_c, 0, 67, 127
1, 401561, Control_c, 0, 67, 127
1, 401618, Note_on_c, 0, 69, 65
1, 401650, Note_on_c, 0, 76, 39
1, 401673, Note_off_c, 0, 79, 42
1, 401683, Note_off_c, 0, 69, 59
1, 401704, Note_off_c, 0, 72, 44
1, 401813, Control_c, 0, 67, 127
1, 402038, Note_on_c, 0, 79, 41
1, 402042, Note_on_c, 0, 74, 45
1, 402104, Note_off_c, 0, 76, 40
1, 402170, Note_off_c, 0, 74, 48
1, 402213, Note_off_c, 0, 84, 42
1, 402396, Note_on_c, 0, 76, 70
1, 402428, Note_on_c, 0, 84, 41
1, 402444, Note_on_c, 0, 72, 34
1, 402612, Note_off_c, 0, 72, 44
1, 402850, Note_on_c, 0, 74, 72
1, 402879, Control_c, 0, 67, 127
1, 402888, Note_on_c, 0, 77, 41
1, 402904, Note_off_c, 0, 76, 60
1, 402928, Note_off_c, 0, 79, 58
1, 403185, Note_off_c, 0, 77, 38
1, 403228, Note_on_c, 0, 69, 67
1, 403243, Note_on_c, 0, 81, 55
1, 403260, Note_off_c, 0, 74, 39
1, 403309, Note_on_c, 0, 76, 17
1, 403365, Note_off_c, 0, 76, 47
1, 403366, Note_off_c, 0, 84, 44
1, 403594, Note_on_c, 0, 71, 68
1, 403608, Note_off_c, 0, 69, 60
1, 403622, Note_off_c, 0, 71, 65
1, 403627, Note_on_c, 0, 74, 55
1, 403653, Note_on_c, 0, 86, 31
1, 403758, Note_off_c, 0, 86, 42
1, 403776, Note_off_c, 0, 81, 60
1, 403814, Note_off_c, 0, 74, 63
1, 403996, Note_on_c, 0, 50, 31
1, 404030, Note_on_c, 0, 57, 38
1, 404065, Note_on_c, 0, 60, 41
1, 404085, Note_on_c, 0, 67, 65
1, 404113, Note_on_c, 0, 79, 50
1, 404161, Control_c, 0, 64, 113
1, 404176, Control_c, 0, 64, 80
1, 404191, Control_c, 0, 64, 63
1, 404206, Control_c, 0, 64, 0
1, 404243, Control_c, 0, 64, 41
1, 404258, Control_c, 0, 64, 61
1, 404273, Control_c, 0, 64, 71
1, 404288, Control_c, 0, 64, 85
1, 404302, Control_c, 0, 64, 118
1, 404317, Control_c, 0, 64, 127
1, 404374, Note_off_c, 0, 67, 60
1, 404454, Note_off_c, 0, 79, 61
1, 404598, Note_on_c, 0, 83, 50
1, 404617, Note_on_c, 0, 77, 44
1, 404641, Note_off_c, 0, 57, 37
1, 404691, Note_off_c, 0, 50, 47
1, 404695, Note_off_c, 0, 77, 52
1, 404860, Note_off_c, 0, 60, 52
1, 405030, Note_on_c, 0, 88, 45
1, 405046, Note_on_c, 0, 76, 41
1, 405196, Note_on_c, 0, 67, 51
1, 405249, Note_off_c, 0, 67, 48
1, 405404, Note_on_c, 0, 67, 48
1, 405424, Note_on_c, 0, 79, 41
1, 405443, Note_off_c, 0, 83, 37
1, 405497, Note_off_c, 0, 79, 0
1, 405497, Note_on_c, 0, 79, 5
1, 405574, Note_off_c, 0, 76, 40
1, 405803, Note_on_c, 0, 83, 46
1, 405807, Note_off_c, 0, 79, 41
1, 405813, Note_on_c, 0, 77, 40
1, 405966, Note_off_c, 0, 77, 50
1, 406012, Note_off_c, 0, 88, 40
1, 406184, Note_on_c, 0, 88, 49
1, 406214, Note_on_c, 0, 76, 32
1, 406301, Note_off_c, 0, 76, 38
1, 406318, Note_off_c, 0, 83, 38
1, 406372, Note_off_c, 0, 88, 48
1, 406589, Note_on_c, 0, 89, 65
1, 406618, Note_on_c, 0, 81, 41
1, 406789, Note_off_c, 0, 81, 43
1, 406982, Note_on_c, 0, 88, 64
1, 407014, Note_on_c, 0, 79, 44
1, 407023, Note_off_c, 0, 89, 57
1, 407156, Note_off_c, 0, 79, 53
1, 407353, Note_on_c, 0, 86, 63
1, 407375, Note_on_c, 0, 77, 50
1, 407398, Note_off_c, 0, 88, 61
1, 407479, Note_off_c, 0, 77, 49
1, 407743, Note_on_c, 0, 84, 57
1, 407750, Note_on_c, 0, 69, 64
1, 407776, Note_off_c, 0, 86, 63
1, 407782, Note_on_c, 0, 76, 41
1, 407838, Note_off_c, 0, 67, 55
1, 407848, Control_c, 0, 64, 115
1, 407862, Control_c, 0, 64, 88
1, 407877, Control_c, 0, 64, 70
1, 407892, Control_c, 0, 64, 63
1, 407907, Control_c, 0, 64, 62
1, 407922, Control_c, 0, 64, 63
1, 407936, Control_c, 0, 64, 64
1, 407951, Control_c, 0, 64, 67
1, 407973, Control_c, 0, 64, 73
1, 407988, Control_c, 0, 64, 82
1, 407994, Note_off_c, 0, 76, 56
1, 408003, Control_c, 0, 64, 93
1, 408018, Control_c, 0, 64, 105
1, 408033, Control_c, 0, 64, 127
1, 408171, Note_on_c, 0, 83, 55
1, 408193, Note_on_c, 0, 74, 47
1, 408209, Note_off_c, 0, 69, 58
1, 408218, Note_off_c, 0, 84, 62
1, 408295, Note_off_c, 0, 74, 53
1, 408569, Note_on_c, 0, 81, 55
1, 408582, Note_on_c, 0, 72, 42
1, 408621, Note_off_c, 0, 83, 63
1, 408649, Note_on_c, 0, 45, 28
1, 408735, Note_on_c, 0, 52, 46
1, 408735, Note_off_c, 0, 45, 41
1, 408798, Note_off_c, 0, 52, 61
1, 408852, Note_off_c, 0, 72, 40
1, 408855, Note_on_c, 0, 59, 43
1, 408933, Note_off_c, 0, 59, 59
1, 409067, Note_on_c, 0, 79, 54
1, 409085, Note_on_c, 0, 71, 41
1, 409104, Note_on_c, 0, 65, 62
1, 409121, Note_off_c, 0, 81, 51
1, 409402, Note_off_c, 0, 71, 38
1, 409557, Note_on_c, 0, 74, 44
1, 409571, Note_on_c, 0, 83, 42
1, 409625, Note_off_c, 0, 79, 48
1, 409691, Note_off_c, 0, 74, 55
1, 409917, Note_on_c, 0, 81, 52
1, 409949, Note_on_c, 0, 72, 42
1, 409964, Note_off_c, 0, 83, 44
1, 410065, Note_off_c, 0, 72, 51
1, 410337, Note_on_c, 0, 79, 52
1, 410349, Note_on_c, 0, 71, 41
1, 410365, Note_off_c, 0, 81, 51
1, 410470, Note_off_c, 0, 71, 58
1, 410710, Note_on_c, 0, 77, 51
1, 410724, Note_off_c, 0, 79, 50
1, 410729, Note_on_c, 0, 69, 39
1, 411109, Note_on_c, 0, 67, 59
1, 411145, Note_on_c, 0, 76, 45
1, 411153, Note_off_c, 0, 65, 59
1, 411156, Note_on_c, 0, 71, 44
1, 411200, Note_off_c, 0, 69, 34
1, 411270, Note_off_c, 0, 77, 35
1, 411334, Note_off_c, 0, 67, 52
1, 411523, Note_on_c, 0, 65, 50
1, 411524, Note_on_c, 0, 55, 49
1, 411531, Note_on_c, 0, 60, 44
1, 411577, Control_c, 0, 64, 88
1, 411592, Control_c, 0, 64, 68
1, 411607, Control_c, 0, 64, 59
1, 411616, Note_on_c, 0, 77, 59
1, 411619, Note_off_c, 0, 76, 53
1, 411622, Control_c, 0, 64, 62
1, 411636, Control_c, 0, 64, 67
1, 411649, Note_on_c, 0, 69, 41
1, 411651, Control_c, 0, 64, 74
1, 411666, Note_off_c, 0, 71, 58
1, 411666, Control_c, 0, 64, 88
1, 411681, Control_c, 0, 64, 127
1, 411687, Note_off_c, 0, 55, 61
1, 411695, Note_off_c, 0, 65, 60
1, 411699, Note_off_c, 0, 60, 62
1, 411756, Note_off_c, 0, 69, 53
1, 411821, Note_on_c, 0, 67, 50
1, 411875, Note_off_c, 0, 67, 56
1, 411913, Note_on_c, 0, 65, 48
1, 411959, Note_off_c, 0, 65, 59
1, 412006, Note_on_c, 0, 67, 35
1, 412026, Note_on_c, 0, 79, 58
1, 412033, Note_on_c, 0, 68, 49
1, 412036, Note_off_c, 0, 67, 55
1, 412060, Note_off_c, 0, 77, 50
1, 412071, Note_on_c, 0, 65, 41
1, 412099, Note_off_c, 0, 65, 57
1, 412128, Note_on_c, 0, 67, 55
1, 412161, Note_off_c, 0, 67, 62
1, 412167, Note_off_c, 0, 68, 54
1, 412184, Note_on_c, 0, 65, 54
1, 412220, Note_off_c, 0, 65, 61
1, 412250, Note_on_c, 0, 67, 51
1, 412282, Note_off_c, 0, 67, 61
1, 412310, Note_on_c, 0, 65, 51
1, 412334, Note_off_c, 0, 65, 61
1, 412358, Note_off_c, 0, 79, 54
1, 412367, Note_on_c, 0, 77, 61
1, 412373, Note_on_c, 0, 67, 55
1, 412382, Note_on_c, 0, 69, 50
1, 412409, Note_off_c, 0, 67, 59
1, 412414, Note_on_c, 0, 65, 56
1, 412459, Note_off_c, 0, 65, 57
1, 412498, Note_on_c, 0, 67, 52
1, 412531, Note_off_c, 0, 67, 62
1, 412553, Note_on_c, 0, 65, 50
1, 412576, Note_off_c, 0, 65, 61
1, 412623, Note_on_c, 0, 67, 46
1, 412650, Note_off_c, 0, 67, 55
1, 412656, Note_on_c, 0, 65, 58
1, 412696, Note_off_c, 0, 65, 58
1, 412702, Note_off_c, 0, 69, 31
1, 412735, Note_off_c, 0, 77, 56
1, 412744, Note_on_c, 0, 76, 56
1, 412747, Note_on_c, 0, 67, 41
1, 412755, Note_on_c, 0, 70, 46
1, 412773, Note_off_c, 0, 67, 57
1, 412791, Note_on_c, 0, 65, 56
1, 412813, Note_off_c, 0, 65, 63
1, 412856, Note_on_c, 0, 67, 54
1, 412890, Note_off_c, 0, 67, 52
1, 412899, Note_on_c, 0, 65, 58
1, 412951, Note_off_c, 0, 65, 62
1, 412978, Note_on_c, 0, 67, 58
1, 413023, Note_off_c, 0, 67, 56
1, 413038, Note_on_c, 0, 65, 55
1, 413066, Note_off_c, 0, 65, 64
1, 413089, Note_on_c, 0, 67, 45
1, 413128, Note_on_c, 0, 74, 60
1, 413147, Note_on_c, 0, 71, 45
1, 413148, Note_off_c, 0, 76, 39
1, 413169, Note_on_c, 0, 65, 45
1, 413174, Note_off_c, 0, 67, 0
1, 413180, Note_off_c, 0, 70, 32
1, 413195, Note_off_c, 0, 65, 58
1, 413206, Note_on_c, 0, 67, 27
1, 413254, Note_off_c, 0, 67, 59
1, 413305, Note_on_c, 0, 65, 18
1, 413345, Note_off_c, 0, 65, 44
1, 413363, Note_on_c, 0, 67, 43
1, 413408, Note_on_c, 0, 65, 55
1, 413416, Note_off_c, 0, 67, 53
1, 413484, Note_off_c, 0, 65, 56
1, 413505, Note_on_c, 0, 64, 53
1, 413509, Note_on_c, 0, 72, 66
1, 413534, Note_off_c, 0, 74, 56
1, 413537, Note_off_c, 0, 71, 53
1, 413673, Note_off_c, 0, 64, 64
1, 413687, Note_on_c, 0, 65, 65
1, 413713, Note_off_c, 0, 72, 58
1, 413714, Note_off_c, 0, 65, 68
1, 413733, Control_c, 0, 67, 127
1, 413748, Control_c, 0, 67, 125
1, 413763, Control_c, 0, 67, 123
1, 413778, Control_c, 0, 67, 122
1, 413793, Control_c, 0, 67, 120
1, 413807, Control_c, 0, 67, 119
1, 413822, Control_c, 0, 67, 118
1, 413837, Control_c, 0, 67, 117
1, 413852, Control_c, 0, 67, 116
1, 413867, Control_c, 0, 67, 115
1, 413951, Note_on_c, 0, 72, 54
1, 413980, Note_on_c, 0, 62, 43
1, 413983, Note_on_c, 0, 53, 71
1, 414000, Note_on_c, 0, 67, 30
1, 414020, Note_on_c, 0, 55, 54
1, 414053, Control_c, 0, 67, 115
1, 414084, Control_c, 0, 67, 114
1, 414099, Control_c, 0, 64, 110
1, 414113, Control_c, 0, 64, 84
1, 414113, Control_c, 0, 67, 114
1, 414128, Control_c, 0, 64, 68
1, 414143, Control_c, 0, 64, 52
1, 414143, Control_c, 0, 67, 113
1, 414157, Control_c, 0, 64, 46
1, 414157, Control_c, 0, 67, 112
1, 414172, Control_c, 0, 64, 52
1, 414172, Control_c, 0, 67, 110
1, 414187, Control_c, 0, 64, 60
1, 414187, Control_c, 0, 67, 109
1, 414202, Control_c, 0, 64, 66
1, 414202, Control_c, 0, 67, 108
1, 414217, Control_c, 0, 64, 72
1, 414217, Control_c, 0, 67, 107
1, 414231, Control_c, 0, 64, 81
1, 414231, Control_c, 0, 67, 106
1, 414246, Control_c, 0, 64, 96
1, 414246, Control_c, 0, 67, 105
1, 414261, Control_c, 0, 64, 118
1, 414261, Control_c, 0, 67, 103
1, 414276, Control_c, 0, 64, 127
1, 414276, Control_c, 0, 67, 102
1, 414291, Control_c, 0, 67, 100
1, 414305, Control_c, 0, 67, 98
1, 414320, Control_c, 0, 67, 97
1, 414335, Control_c, 0, 67, 96
1, 414349, Control_c, 0, 67, 94
1, 414364, Control_c, 0, 67, 92
1, 414379, Control_c, 0, 67, 91
1, 414394, Control_c, 0, 67, 90
1, 414403, Note_on_c, 0, 60, 57
1, 414409, Control_c, 0, 67, 89
1, 414424, Control_c, 0, 67, 87
1, 414439, Control_c, 0, 67, 86
1, 414454, Control_c, 0, 67, 84
1, 414468, Control_c, 0, 67, 82
1, 414483, Control_c, 0, 67, 80
1, 414498, Control_c, 0, 67, 78
1, 414504, Note_off_c, 0, 62, 37
1, 414513, Control_c, 0, 67, 76
1, 414528, Control_c, 0, 67, 73
1, 414543, Control_c, 0, 67, 72
1, 414557, Control_c, 0, 67, 69
1, 414564, Note_off_c, 0, 60, 59
1, 414572, Control_c, 0, 67, 68
1, 414587, Control_c, 0, 67, 66
1, 414602, Control_c, 0, 67, 65
1, 414617, Control_c, 0, 67, 65
1, 414631, Control_c, 0, 67, 64
1, 414646, Control_c, 0, 67, 63
1, 414661, Control_c, 0, 67, 62
1, 414710, Note_off_c, 0, 55, 61
1, 414770, Note_on_c, 0, 64, 62
1, 414773, Note_off_c, 0, 53, 57
1, 414826, Note_off_c, 0, 72, 34
1, 414905, Control_c, 0, 67, 62
1, 414912, Note_on_c, 0, 52, 71
1, 414964, Control_c, 0, 67, 61
1, 415113, Note_on_c, 0, 50, 76
1, 415124, Note_on_c, 0, 57, 54
1, 415130, Note_off_c, 0, 67, 34
1, 415173, Note_off_c, 0, 52, 60
1, 415187, Note_off_c, 0, 64, 61
1, 415231, Control_c, 0, 67, 62
1, 415245, Control_c, 0, 64, 104
1, 415245, Control_c, 0, 67, 63
1, 415260, Control_c, 0, 64, 88
1, 415260, Control_c, 0, 67, 63
1, 415275, Control_c, 0, 64, 75
1, 415275, Control_c, 0, 67, 64
1, 415290, Control_c, 0, 64, 64
1, 415290, Control_c, 0, 67, 64
1, 415304, Control_c, 0, 64, 52
1, 415319, Control_c, 0, 64, 32
1, 415319, Control_c, 0, 67, 65
1, 415334, Control_c, 0, 64, 0
1, 415364, Control_c, 0, 67, 65
1, 415393, Control_c, 0, 67, 66
1, 415438, Control_c, 0, 67, 66
1, 415475, Control_c, 0, 64, 37
1, 415490, Control_c, 0, 64, 53
1, 415504, Control_c, 0, 64, 61
1, 415519, Control_c, 0, 64, 65
1, 415519, Control_c, 0, 67, 67
1, 415535, Control_c, 0, 64, 67
1, 415549, Note_on_c, 0, 62, 51
1, 415550, Control_c, 0, 64, 70
1, 415550, Control_c, 0, 67, 67
1, 415565, Control_c, 0, 64, 74
1, 415580, Control_c, 0, 64, 80
1, 415594, Control_c, 0, 64, 85
1, 415594, Control_c, 0, 67, 68
1, 415609, Control_c, 0, 64, 90
1, 415624, Control_c, 0, 64, 95
1, 415624, Control_c, 0, 67, 68
1, 415639, Control_c, 0, 64, 100
1, 415654, Control_c, 0, 64, 106
1, 415654, Control_c, 0, 67, 69
1, 415668, Control_c, 0, 64, 115
1, 415683, Control_c, 0, 64, 127
1, 415713, Control_c, 0, 67, 69
1, 415757, Control_c, 0, 67, 70
1, 415801, Control_c, 0, 67, 70
1, 415831, Control_c, 0, 67, 71
1, 415846, Control_c, 0, 67, 71
1, 415861, Control_c, 0, 67, 72
1, 415901, Note_on_c, 0, 65, 65
1, 415920, Control_c, 0, 67, 72
1, 415950, Control_c, 0, 67, 73
1, 416009, Control_c, 0, 67, 73
1, 416022, Note_on_c, 0, 48, 68
1, 416035, Note_off_c, 0, 57, 52
1, 416113, Control_c, 0, 67, 74
1, 416144, Note_off_c, 0, 50, 61
1, 416172, Control_c, 0, 67, 74
1, 416209, Control_c, 0, 67, 75
1, 416224, Control_c, 0, 67, 75
1, 416226, Note_on_c, 0, 59, 67
1, 416239, Control_c, 0, 67, 76
1, 416239, Note_on_c, 0, 47, 64
1, 416253, Control_c, 0, 67, 77
1, 416268, Control_c, 0, 67, 78
1, 416283, Control_c, 0, 64, 115
1, 416283, Control_c, 0, 67, 78
1, 416298, Control_c, 0, 64, 98
1, 416298, Control_c, 0, 67, 79
1, 416313, Control_c, 0, 64, 86
1, 416316, Note_off_c, 0, 48, 63
1, 416329, Control_c, 0, 64, 77
1, 416329, Control_c, 0, 67, 79
1, 416343, Control_c, 0, 64, 69
1, 416343, Control_c, 0, 67, 80
1, 416355, Note_off_c, 0, 65, 57
1, 416358, Control_c, 0, 64, 65
1, 416365, Note_off_c, 0, 62, 61
1, 416373, Control_c, 0, 64, 61
1, 416373, Control_c, 0, 67, 80
1, 416388, Control_c, 0, 64, 53
1, 416403, Control_c, 0, 64, 35
1, 416403, Control_c, 0, 67, 81
1, 416418, Control_c, 0, 64, 0
1, 416418, Control_c, 0, 67, 81
1, 416432, Control_c, 0, 67, 82
1, 416447, Control_c, 0, 67, 83
1, 416462, Control_c, 0, 67, 85
1, 416477, Control_c, 0, 67, 86
1, 416492, Control_c, 0, 67, 88
1, 416506, Control_c, 0, 67, 89
1, 416521, Control_c, 0, 67, 90
1, 416536, Control_c, 0, 67, 92
1, 416550, Control_c, 0, 67, 93
1, 416565, Control_c, 0, 67, 94
1, 416580, Control_c, 0, 67, 95
1, 416595, Control_c, 0, 67, 96
1, 416610, Control_c, 0, 64, 38
1, 416610, Control_c, 0, 67, 96
1, 416624, Control_c, 0, 64, 59
1, 416624, Control_c, 0, 67, 97
1, 416639, Control_c, 0, 64, 64
1, 416640, Note_on_c, 0, 64, 50
1, 416654, Control_c, 0, 64, 68
1, 416654, Control_c, 0, 67, 97
1, 416668, Control_c, 0, 64, 72
1, 416668, Control_c, 0, 67, 98
1, 416683, Control_c, 0, 64, 76
1, 416698, Control_c, 0, 64, 82
1, 416698, Control_c, 0, 67, 98
1, 416713, Control_c, 0, 64, 87
1, 416728, Control_c, 0, 64, 93
1, 416743, Control_c, 0, 64, 99
1, 416743, Control_c, 0, 67, 99
1, 416758, Control_c, 0, 64, 104
1, 416773, Control_c, 0, 64, 109
1, 416788, Control_c, 0, 64, 114
1, 416803, Control_c, 0, 64, 119
1, 416803, Control_c, 0, 67, 99
1, 416817, Control_c, 0, 64, 127
1, 416817, Control_c, 0, 67, 100
1, 416862, Control_c, 0, 67, 100
1, 416876, Control_c, 0, 67, 101
1, 416906, Control_c, 0, 67, 101
1, 416987, Control_c, 0, 67, 102
1, 417007, Note_on_c, 0, 67, 56
1, 417091, Control_c, 0, 67, 102
1, 417136, Control_c, 0, 67, 103
1, 417150, Note_on_c, 0, 45, 62
1, 417151, Control_c, 0, 67, 103
1, 417166, Control_c, 0, 67, 105
1, 417177, Note_off_c, 0, 59, 56
1, 417181, Control_c, 0, 67, 107
1, 417196, Control_c, 0, 67, 110
1, 417211, Control_c, 0, 67, 111
1, 417226, Control_c, 0, 67, 113
1, 417241, Control_c, 0, 67, 114
1, 417255, Control_c, 0, 67, 115
1, 417270, Control_c, 0, 67, 116
1, 417277, Note_off_c, 0, 47, 36
1, 417285, Control_c, 0, 67, 117
1, 417299, Control_c, 0, 67, 118
1, 417329, Control_c, 0, 67, 118
1, 417344, Control_c, 0, 67, 119
1, 417372, Note_on_c, 0, 43, 60
1, 417387, Note_on_c, 0, 59, 52
1, 417418, Control_c, 0, 64, 115
1, 417433, Control_c, 0, 64, 98
1, 417447, Control_c, 0, 64, 86
1, 417458, Note_off_c, 0, 67, 51
1, 417462, Control_c, 0, 64, 76
1, 417477, Control_c, 0, 64, 66
1, 417477, Control_c, 0, 67, 118
1, 417491, Control_c, 0, 64, 59
1, 417493, Note_off_c, 0, 45, 56
1, 417500, Note_off_c, 0, 64, 63
1, 417506, Control_c, 0, 64, 46
1, 417521, Control_c, 0, 64, 0
1, 417706, Control_c, 0, 67, 119
1, 417766, Control_c, 0, 67, 119
1, 417806, Note_on_c, 0, 63, 49
1, 417810, Control_c, 0, 67, 120
1, 417825, Control_c, 0, 67, 121
1, 417840, Control_c, 0, 67, 124
1, 417855, Control_c, 0, 67, 127
1, 417957, Note_off_c, 0, 59, 50
1, 418167, Control_c, 0, 64, 23
1, 418182, Control_c, 0, 64, 44
1, 418196, Control_c, 0, 64, 54
1, 418205, Note_on_c, 0, 68, 49
1, 418211, Control_c, 0, 64, 60
1, 418226, Control_c, 0, 64, 62
1, 418241, Control_c, 0, 64, 64
1, 418256, Control_c, 0, 64, 65
1, 418270, Control_c, 0, 64, 66
1, 418285, Control_c, 0, 64, 68
1, 418287, Note_off_c, 0, 63, 62
1, 418300, Control_c, 0, 64, 69
1, 418314, Control_c, 0, 64, 71
1, 418329, Control_c, 0, 64, 73
1, 418344, Control_c, 0, 64, 76
1, 418359, Control_c, 0, 64, 78
1, 418374, Control_c, 0, 64, 81
1, 418379, Note_on_c, 0, 42, 49
1, 418388, Control_c, 0, 64, 83
1, 418403, Control_c, 0, 64, 86
1, 418418, Control_c, 0, 64, 89
1, 418433, Control_c, 0, 64, 93
1, 418437, Note_off_c, 0, 43, 32
1, 418456, Control_c, 0, 64, 96
1, 418470, Control_c, 0, 64, 98
1, 418485, Control_c, 0, 64, 100
1, 418500, Control_c, 0, 64, 104
1, 418515, Control_c, 0, 64, 109
1, 418529, Control_c, 0, 64, 116
1, 418535, Note_off_c, 0, 42, 50
1, 418544, Control_c, 0, 64, 119
1, 418646, Note_on_c, 0, 42, 41
1, 418652, Note_on_c, 0, 60, 43
1, 418692, Control_c, 0, 64, 118
1, 418707, Control_c, 0, 64, 114
1, 418723, Control_c, 0, 64, 110
1, 418738, Control_c, 0, 64, 106
1, 418752, Control_c, 0, 64, 101
1, 418767, Control_c, 0, 64, 97
1, 418779, Note_off_c, 0, 68, 55
1, 418782, Control_c, 0, 64, 93
1, 418797, Control_c, 0, 64, 90
1, 418812, Control_c, 0, 64, 87
1, 418827, Control_c, 0, 64, 84
1, 418841, Control_c, 0, 64, 82
1, 418856, Control_c, 0, 64, 81
1, 418871, Control_c, 0, 64, 79
1, 418886, Control_c, 0, 64, 78
1, 418901, Control_c, 0, 64, 77
1, 418916, Control_c, 0, 64, 76
1, 418931, Control_c, 0, 64, 74
1, 418945, Control_c, 0, 64, 73
1, 418960, Control_c, 0, 64, 72
1, 418975, Control_c, 0, 64, 71
1, 418990, Control_c, 0, 64, 70
1, 419005, Control_c, 0, 64, 69
1, 419019, Control_c, 0, 64, 68
1, 419034, Control_c, 0, 64, 68
1, 419049, Control_c, 0, 64, 67
1, 419063, Control_c, 0, 64, 65
1, 419071, Note_on_c, 0, 64, 43
1, 419078, Control_c, 0, 64, 64
1, 419093, Control_c, 0, 64, 59
1, 419108, Control_c, 0, 64, 53
1, 419123, Control_c, 0, 64, 46
1, 419137, Control_c, 0, 64, 43
1, 419152, Control_c, 0, 64, 42
1, 419167, Control_c, 0, 64, 41
1, 419219, Control_c, 0, 64, 42
1, 419234, Control_c, 0, 64, 43
1, 419249, Control_c, 0, 64, 47
1, 419264, Control_c, 0, 64, 53
1, 419273, Note_off_c, 0, 60, 52
1, 419278, Control_c, 0, 64, 59
1, 419293, Control_c, 0, 64, 64
1, 419308, Control_c, 0, 64, 65
1, 419323, Control_c, 0, 64, 67
1, 419338, Control_c, 0, 64, 69
1, 419352, Control_c, 0, 64, 72
1, 419367, Control_c, 0, 64, 76
1, 419382, Control_c, 0, 64, 80
1, 419397, Control_c, 0, 64, 83
1, 419412, Control_c, 0, 64, 85
1, 419426, Control_c, 0, 64, 88
1, 419441, Control_c, 0, 64, 90
1, 419456, Control_c, 0, 64, 92
1, 419470, Control_c, 0, 64, 94
1, 419485, Control_c, 0, 64, 96
1, 419500, Control_c, 0, 64, 97
1, 419510, Note_on_c, 0, 69, 46
1, 419587, Note_off_c, 0, 64, 63
1, 419590, Control_c, 0, 64, 97
1, 419605, Control_c, 0, 64, 99
1, 419620, Control_c, 0, 64, 100
1, 419635, Control_c, 0, 64, 101
1, 419649, Control_c, 0, 64, 102
1, 419664, Control_c, 0, 64, 104
1, 419679, Control_c, 0, 64, 105
1, 419694, Control_c, 0, 64, 105
1, 419709, Control_c, 0, 64, 106
1, 419739, Control_c, 0, 64, 106
1, 419842, Control_c, 0, 64, 106
1, 419872, Control_c, 0, 64, 103
1, 419879, Note_on_c, 0, 41, 34
1, 419886, Control_c, 0, 64, 100
1, 419901, Control_c, 0, 64, 94
1, 419916, Control_c, 0, 64, 83
1, 419931, Control_c, 0, 64, 71
1, 419953, Note_off_c, 0, 42, 39
1, 419953, Control_c, 0, 64, 53
1, 419968, Control_c, 0, 64, 0
1, 419985, Note_off_c, 0, 69, 51
1, 420017, Note_on_c, 0, 62, 31
1, 420073, Control_c, 0, 64, 27
1, 420087, Control_c, 0, 64, 61
1, 420102, Control_c, 0, 64, 66
1, 420117, Control_c, 0, 64, 71
1, 420132, Control_c, 0, 64, 77
1, 420147, Control_c, 0, 64, 90
1, 420162, Control_c, 0, 64, 111
1, 420176, Control_c, 0, 64, 127
1, 420212, Note_off_c, 0, 62, 41
1, 420422, Note_off_c, 0, 41, 41
1, 420533, Note_on_c, 0, 86, 51
1, 421158, Note_on_c, 0, 65, 5
1, 421456, Note_on_c, 0, 71, 41
1, 421566, Note_off_c, 0, 65, 41
1, 421688, Control_c, 0, 67, 126
1, 421703, Control_c, 0, 67, 125
1, 421718, Control_c, 0, 67, 124
1, 421733, Control_c, 0, 67, 123
1, 421747, Control_c, 0, 67, 122
1, 421762, Control_c, 0, 67, 121
1, 421777, Control_c, 0, 67, 120
1, 421792, Control_c, 0, 67, 119
1, 421807, Control_c, 0, 67, 118
1, 421821, Control_c, 0, 67, 116
1, 421828, Note_on_c, 0, 84, 61
1, 421836, Control_c, 0, 67, 114
1, 421851, Control_c, 0, 67, 112
1, 421865, Control_c, 0, 67, 110
1, 421880, Control_c, 0, 67, 108
1, 421885, Note_on_c, 0, 64, 28
1, 421895, Control_c, 0, 67, 105
1, 421911, Control_c, 0, 67, 103
1, 421926, Control_c, 0, 67, 101
1, 421941, Control_c, 0, 67, 99
1, 421956, Control_c, 0, 67, 97
1, 421970, Control_c, 0, 67, 94
1, 421971, Note_off_c, 0, 86, 61
1, 421984, Note_off_c, 0, 71, 34
1, 421985, Control_c, 0, 67, 92
1, 422000, Control_c, 0, 67, 90
1, 422015, Control_c, 0, 67, 88
1, 422030, Control_c, 0, 67, 85
1, 422044, Control_c, 0, 67, 84
1, 422059, Control_c, 0, 67, 82
1, 422074, Control_c, 0, 67, 81
1, 422088, Control_c, 0, 67, 80
1, 422103, Control_c, 0, 67, 79
1, 422118, Control_c, 0, 67, 78
1, 422133, Control_c, 0, 67, 78
1, 422148, Control_c, 0, 67, 77
1, 422162, Control_c, 0, 67, 77
1, 422185, Control_c, 0, 67, 76
1, 422246, Note_on_c, 0, 88, 65
1, 422285, Note_on_c, 0, 67, 32
1, 422289, Control_c, 0, 67, 76
1, 422318, Control_c, 0, 64, 108
1, 422333, Control_c, 0, 64, 91
1, 422348, Control_c, 0, 64, 89
1, 422348, Control_c, 0, 67, 75
1, 422377, Control_c, 0, 64, 90
1, 422392, Control_c, 0, 64, 93
1, 422392, Control_c, 0, 67, 75
1, 422407, Control_c, 0, 64, 99
1, 422422, Control_c, 0, 64, 107
1, 422422, Control_c, 0, 67, 74
1, 422436, Control_c, 0, 64, 116
1, 422436, Control_c, 0, 67, 73
1, 422451, Control_c, 0, 64, 127
1, 422451, Control_c, 0, 67, 70
1, 422466, Control_c, 0, 67, 67
1, 422481, Control_c, 0, 67, 66
1, 422496, Control_c, 0, 67, 65
1, 422511, Control_c, 0, 67, 64
1, 422526, Control_c, 0, 67, 64
1, 422541, Control_c, 0, 67, 63
1, 422570, Control_c, 0, 67, 63
1, 422585, Control_c, 0, 67, 62
1, 422608, Note_on_c, 0, 93, 69
1, 422636, Note_on_c, 0, 72, 35
1, 422660, Note_off_c, 0, 88, 64
1, 422674, Control_c, 0, 67, 63
1, 422688, Control_c, 0, 67, 64
1, 422703, Control_c, 0, 67, 65
1, 422719, Control_c, 0, 67, 67
1, 422734, Control_c, 0, 67, 68
1, 422749, Control_c, 0, 67, 69
1, 422764, Control_c, 0, 67, 70
1, 422779, Control_c, 0, 67, 70
1, 422793, Control_c, 0, 67, 71
1, 422808, Control_c, 0, 67, 72
1, 422823, Control_c, 0, 67, 73
1, 422838, Control_c, 0, 67, 73
1, 422853, Control_c, 0, 67, 74
1, 422867, Control_c, 0, 67, 74
1, 422882, Control_c, 0, 67, 75
1, 422911, Control_c, 0, 67, 76
1, 422981, Note_on_c, 0, 91, 70
1, 422993, Control_c, 0, 67, 76
1, 423014, Note_on_c, 0, 65, 34
1, 423042, Note_off_c, 0, 93, 65
1, 423051, Note_off_c, 0, 67, 37
1, 423098, Control_c, 0, 67, 77
1, 423112, Control_c, 0, 67, 77
1, 423121, Note_off_c, 0, 64, 43
1, 423127, Control_c, 0, 64, 94
1, 423142, Control_c, 0, 64, 81
1, 423142, Control_c, 0, 67, 78
1, 423157, Control_c, 0, 64, 76
1, 423157, Control_c, 0, 67, 80
1, 423172, Control_c, 0, 64, 75
1, 423172, Control_c, 0, 67, 80
1, 423196, Note_off_c, 0, 72, 39
1, 423201, Control_c, 0, 64, 74
1, 423216, Control_c, 0, 64, 74
1, 423225, Note_off_c, 0, 84, 48
1, 423245, Control_c, 0, 64, 75
1, 423245, Control_c, 0, 67, 81
1, 423260, Control_c, 0, 64, 79
1, 423275, Control_c, 0, 64, 84
1, 423290, Control_c, 0, 64, 90
1, 423305, Control_c, 0, 64, 93
1, 423319, Control_c, 0, 64, 95
1, 423319, Control_c, 0, 67, 81
1, 423334, Control_c, 0, 64, 97
1, 423349, Control_c, 0, 64, 101
1, 423364, Control_c, 0, 64, 102
1, 423376, Note_on_c, 0, 84, 56
1, 423393, Control_c, 0, 67, 82
1, 423394, Note_on_c, 0, 69, 41
1, 423408, Control_c, 0, 64, 103
1, 423423, Control_c, 0, 64, 106
1, 423423, Control_c, 0, 67, 82
1, 423438, Control_c, 0, 64, 111
1, 423438, Control_c, 0, 67, 83
1, 423453, Control_c, 0, 64, 119
1, 423453, Control_c, 0, 67, 84
1, 423468, Control_c, 0, 64, 127
1, 423468, Control_c, 0, 67, 85
1, 423483, Control_c, 0, 67, 87
1, 423498, Control_c, 0, 67, 89
1, 423513, Control_c, 0, 67, 91
1, 423528, Control_c, 0, 67, 94
1, 423542, Control_c, 0, 67, 97
1, 423557, Control_c, 0, 67, 100
1, 423572, Control_c, 0, 67, 104
1, 423587, Control_c, 0, 67, 106
1, 423602, Control_c, 0, 67, 109
1, 423617, Control_c, 0, 67, 112
1, 423632, Control_c, 0, 67, 115
1, 423647, Control_c, 0, 67, 117
1, 423661, Control_c, 0, 67, 118
1, 423676, Control_c, 0, 67, 119
1, 423698, Control_c, 0, 67, 121
1, 423713, Control_c, 0, 67, 123
1, 423728, Control_c, 0, 67, 126
1, 423742, Note_on_c, 0, 86, 58
1, 423742, Control_c, 0, 67, 127
1, 423764, Note_off_c, 0, 91, 60
1, 423765, Note_on_c, 0, 74, 38
1, 423776, Note_off_c, 0, 84, 62
1, 423805, Note_off_c, 0, 86, 61
1, 423835, Note_off_c, 0, 74, 59
1, 423840, Note_off_c, 0, 69, 54
1, 423860, Note_off_c, 0, 65, 41
1, 424163, Note_on_c, 0, 67, 39
1, 424203, Note_on_c, 0, 81, 63
1, 424250, Note_on_c, 0, 52, 30
1, 424306, Control_c, 0, 64, 95
1, 424321, Control_c, 0, 64, 73
1, 424336, Control_c, 0, 64, 62
1, 424351, Control_c, 0, 64, 58
1, 424365, Control_c, 0, 64, 60
1, 424380, Control_c, 0, 64, 63
1, 424395, Control_c, 0, 64, 66
1, 424410, Control_c, 0, 64, 71
1, 424425, Control_c, 0, 64, 79
1, 424447, Control_c, 0, 64, 89
1, 424462, Control_c, 0, 64, 99
1, 424477, Control_c, 0, 64, 112
1, 424491, Control_c, 0, 64, 127
1, 424629, Note_on_c, 0, 71, 41
1, 424678, Note_off_c, 0, 67, 33
1, 424955, Note_off_c, 0, 71, 37
1, 424986, Note_on_c, 0, 76, 43
1, 425061, Note_off_c, 0, 81, 37
1, 425137, Note_on_c, 0, 81, 57
1, 425233, Note_off_c, 0, 81, 55
1, 425325, Note_on_c, 0, 81, 56
1, 425350, Note_on_c, 0, 69, 35
1, 425392, Note_off_c, 0, 76, 37
1, 425717, Note_on_c, 0, 72, 38
1, 425718, Note_on_c, 0, 60, 34
1, 425736, Note_off_c, 0, 69, 39
1, 426077, Note_on_c, 0, 61, 45
1, 426115, Note_on_c, 0, 77, 33
1, 426133, Note_off_c, 0, 60, 42
1, 426251, Note_off_c, 0, 72, 53
1, 426458, Note_on_c, 0, 62, 49
1, 426467, Note_on_c, 0, 71, 41
1, 426536, Control_c, 0, 64, 98
1, 426551, Control_c, 0, 64, 79
1, 426566, Control_c, 0, 64, 67
1, 426581, Control_c, 0, 64, 65
1, 426596, Control_c, 0, 64, 66
1, 426610, Control_c, 0, 64, 68
1, 426623, Note_off_c, 0, 61, 54
1, 426625, Control_c, 0, 64, 71
1, 426640, Control_c, 0, 64, 75
1, 426654, Control_c, 0, 64, 80
1, 426669, Control_c, 0, 64, 87
1, 426692, Control_c, 0, 64, 97
1, 426708, Control_c, 0, 64, 112
1, 426723, Control_c, 0, 64, 127
1, 426813, Note_off_c, 0, 77, 40
1, 426837, Note_off_c, 0, 52, 41
1, 426842, Note_on_c, 0, 74, 47
1, 427175, Note_on_c, 0, 63, 66
1, 427199, Note_on_c, 0, 79, 58
1, 427292, Note_off_c, 0, 74, 64
1, 427295, Note_off_c, 0, 62, 60
1, 427319, Note_off_c, 0, 81, 58
1, 427550, Note_on_c, 0, 83, 83
1, 427613, Note_on_c, 0, 55, 39
1, 427619, Note_on_c, 0, 64, 49
1, 427627, Note_on_c, 0, 76, 32
1, 427634, Control_c, 0, 64, 100
1, 427647, Note_off_c, 0, 79, 39
1, 427649, Control_c, 0, 64, 77
1, 427656, Note_off_c, 0, 63, 58
1, 427663, Control_c, 0, 64, 54
1, 427678, Control_c, 0, 64, 0
1, 427693, Control_c, 0, 64, 29
1, 427707, Control_c, 0, 64, 57
1, 427721, Note_off_c, 0, 71, 44
1, 427722, Control_c, 0, 64, 66
1, 427737, Control_c, 0, 64, 75
1, 427752, Control_c, 0, 64, 88
1, 427767, Control_c, 0, 64, 104
1, 427776, Note_off_c, 0, 64, 61
1, 427781, Control_c, 0, 64, 124
1, 427796, Control_c, 0, 64, 127
1, 427799, Note_on_c, 0, 65, 48
1, 427850, Note_off_c, 0, 65, 59
1, 427881, Note_on_c, 0, 64, 51
1, 427916, Note_off_c, 0, 64, 65
1, 427939, Note_on_c, 0, 65, 57
1, 427981, Note_off_c, 0, 65, 60
1, 428004, Note_on_c, 0, 64, 60
1, 428016, Note_on_c, 0, 71, 32
1, 428032, Note_off_c, 0, 64, 56
1, 428070, Note_on_c, 0, 65, 45
1, 428096, Note_off_c, 0, 65, 57
1, 428113, Note_off_c, 0, 76, 41
1, 428119, Note_on_c, 0, 64, 42
1, 428151, Note_off_c, 0, 64, 55
1, 428163, Note_on_c, 0, 65, 55
1, 428209, Note_off_c, 0, 65, 48
1, 428243, Note_on_c, 0, 64, 26
1, 428346, Note_off_c, 0, 64, 54
1, 428348, Note_on_c, 0, 76, 58
1, 428353, Note_on_c, 0, 62, 50
1, 428368, Control_c, 0, 64, 106
1, 428383, Control_c, 0, 64, 82
1, 428398, Control_c, 0, 64, 67
1, 428412, Control_c, 0, 64, 55
1, 428427, Control_c, 0, 64, 57
1, 428442, Control_c, 0, 64, 62
1, 428456, Control_c, 0, 64, 66
1, 428471, Control_c, 0, 64, 71
1, 428486, Control_c, 0, 64, 78
1, 428501, Control_c, 0, 64, 86
1, 428516, Control_c, 0, 64, 94
1, 428517, Note_off_c, 0, 62, 60
1, 428521, Note_off_c, 0, 71, 58
1, 428523, Note_on_c, 0, 64, 53
1, 428530, Control_c, 0, 64, 100
1, 428545, Control_c, 0, 64, 105
1, 428560, Control_c, 0, 64, 112
1, 428575, Control_c, 0, 64, 127
1, 428580, Note_off_c, 0, 55, 41
1, 428777, Note_off_c, 0, 64, 32
1, 428786, Note_on_c, 0, 79, 66
1, 428814, Note_on_c, 0, 50, 36
1, 428865, Note_on_c, 0, 69, 38
1, 428871, Control_c, 0, 64, 99
1, 428886, Control_c, 0, 64, 81
1, 428901, Note_off_c, 0, 76, 53
1, 428901, Control_c, 0, 64, 68
1, 428916, Control_c, 0, 64, 47
1, 428938, Control_c, 0, 64, 0
1, 428997, Control_c, 0, 64, 37
1, 429012, Control_c, 0, 64, 64
1, 429027, Control_c, 0, 64, 71
1, 429042, Control_c, 0, 64, 80
1, 429056, Control_c, 0, 64, 89
1, 429071, Control_c, 0, 64, 99
1, 429086, Control_c, 0, 64, 112
1, 429102, Control_c, 0, 64, 127
1, 429160, Note_off_c, 0, 83, 23
1, 429196, Note_on_c, 0, 57, 44
1, 429200, Note_on_c, 0, 74, 46
1, 429549, Note_off_c, 0, 57, 61
1, 429559, Note_on_c, 0, 59, 53
1, 429579, Note_on_c, 0, 77, 51
1, 429766, Note_off_c, 0, 69, 43
1, 429945, Note_on_c, 0, 60, 51
1, 429971, Note_on_c, 0, 69, 41
1, 429994, Note_off_c, 0, 74, 35
1, 430002, Note_off_c, 0, 59, 54
1, 430014, Control_c, 0, 64, 102
1, 430029, Control_c, 0, 64, 81
1, 430044, Control_c, 0, 64, 68
1, 430059, Control_c, 0, 64, 56
1, 430074, Control_c, 0, 64, 40
1, 430088, Control_c, 0, 64, 38
1, 430103, Control_c, 0, 64, 46
1, 430118, Control_c, 0, 64, 59
1, 430133, Control_c, 0, 64, 66
1, 430148, Control_c, 0, 64, 74
1, 430163, Control_c, 0, 64, 81
1, 430177, Control_c, 0, 64, 89
1, 430192, Control_c, 0, 64, 94
1, 430207, Control_c, 0, 64, 99
1, 430221, Control_c, 0, 64, 108
1, 430236, Control_c, 0, 64, 127
1, 430324, Note_on_c, 0, 74, 45
1, 430341, Note_off_c, 0, 50, 62
1, 430380, Note_off_c, 0, 77, 56
1, 430689, Note_on_c, 0, 81, 71
1, 430724, Note_on_c, 0, 61, 42
1, 430753, Note_off_c, 0, 60, 38
1, 430753, Note_off_c, 0, 79, 47
1, 430765, Note_on_c, 0, 77, 42
1, 430932, Note_off_c, 0, 69, 37
1, 430953, Note_off_c, 0, 74, 35
1, 431096, Note_on_c, 0, 79, 67
1, 431144, Note_on_c, 0, 62, 38
1, 431144, Note_on_c, 0, 55, 37
1, 431185, Note_on_c, 0, 71, 41
1, 431200, Control_c, 0, 64, 87
1, 431214, Note_off_c, 0, 81, 36
1, 431215, Control_c, 0, 64, 68
1, 431226, Note_off_c, 0, 77, 61
1, 431227, Note_off_c, 0, 61, 43
1, 431230, Control_c, 0, 64, 43
1, 431245, Control_c, 0, 64, 50
1, 431259, Control_c, 0, 64, 63
1, 431274, Control_c, 0, 64, 68
1, 431289, Control_c, 0, 64, 75
1, 431304, Control_c, 0, 64, 86
1, 431319, Control_c, 0, 64, 101
1, 431333, Control_c, 0, 64, 127
1, 431358, Note_off_c, 0, 62, 43
1, 431375, Note_on_c, 0, 64, 41
1, 431432, Note_off_c, 0, 64, 53
1, 431476, Note_on_c, 0, 62, 40
1, 431510, Note_off_c, 0, 62, 57
1, 431541, Note_on_c, 0, 80, 63
1, 431546, Note_on_c, 0, 64, 43
1, 431576, Note_off_c, 0, 64, 59
1, 431585, Note_on_c, 0, 77, 41
1, 431613, Note_on_c, 0, 62, 38
1, 431624, Note_off_c, 0, 79, 58
1, 431624, Note_off_c, 0, 71, 37
1, 431644, Note_off_c, 0, 62, 53
1, 431664, Note_on_c, 0, 64, 56
1, 431695, Note_off_c, 0, 64, 64
1, 431713, Note_on_c, 0, 62, 52
1, 431719, Control_c, 0, 67, 127
1, 431734, Control_c, 0, 67, 126
1, 431747, Note_off_c, 0, 62, 50
1, 431749, Control_c, 0, 67, 126
1, 431764, Control_c, 0, 67, 125
1, 431779, Control_c, 0, 67, 124
1, 431788, Note_on_c, 0, 64, 47
1, 431793, Control_c, 0, 67, 123
1, 431808, Control_c, 0, 67, 122
1, 431810, Note_off_c, 0, 64, 62
1, 431820, Note_on_c, 0, 62, 51
1, 431823, Control_c, 0, 67, 121
1, 431838, Control_c, 0, 67, 121
1, 431847, Note_off_c, 0, 62, 58
1, 431853, Control_c, 0, 67, 120
1, 431861, Note_off_c, 0, 77, 63
1, 431865, Note_on_c, 0, 81, 75
1, 431867, Control_c, 0, 67, 120
1, 431882, Control_c, 0, 67, 119
1, 431886, Note_on_c, 0, 64, 55
1, 431895, Note_on_c, 0, 72, 44
1, 431925, Note_off_c, 0, 64, 56
1, 431936, Note_on_c, 0, 62, 54
1, 431963, Control_c, 0, 67, 119
1, 431970, Note_off_c, 0, 62, 53
1, 431981, Note_off_c, 0, 80, 57
1, 431993, Control_c, 0, 67, 118
1, 432011, Note_on_c, 0, 64, 42
1, 432035, Note_off_c, 0, 64, 60
1, 432052, Control_c, 0, 67, 118
1, 432053, Note_on_c, 0, 62, 40
1, 432067, Control_c, 0, 67, 117
1, 432078, Note_off_c, 0, 62, 57
1, 432081, Control_c, 0, 67, 115
1, 432096, Control_c, 0, 67, 114
1, 432111, Control_c, 0, 67, 113
1, 432113, Note_on_c, 0, 64, 50
1, 432126, Control_c, 0, 67, 113
1, 432141, Note_off_c, 0, 64, 56
1, 432155, Control_c, 0, 67, 112
1, 432158, Note_on_c, 0, 62, 48
1, 432170, Control_c, 0, 67, 111
1, 432185, Control_c, 0, 67, 111
1, 432202, Note_off_c, 0, 62, 48
1, 432216, Note_off_c, 0, 72, 56
1, 432233, Note_on_c, 0, 64, 46
1, 432242, Note_on_c, 0, 78, 52
1, 432262, Note_off_c, 0, 64, 57
1, 432284, Note_on_c, 0, 62, 45
1, 432321, Note_off_c, 0, 62, 51
1, 432348, Note_on_c, 0, 64, 51
1, 432369, Note_off_c, 0, 64, 62
1, 432378, Control_c, 0, 67, 111
1, 432393, Control_c, 0, 67, 112
1, 432398, Note_off_c, 0, 78, 38
1, 432408, Note_on_c, 0, 62, 42
1, 432408, Control_c, 0, 67, 112
1, 432422, Control_c, 0, 67, 113
1, 432434, Note_off_c, 0, 62, 53
1, 432437, Control_c, 0, 67, 114
1, 432452, Note_on_c, 0, 64, 50
1, 432452, Control_c, 0, 67, 114
1, 432467, Control_c, 0, 67, 115
1, 432482, Control_c, 0, 67, 115
1, 432489, Note_off_c, 0, 64, 60
1, 432512, Control_c, 0, 67, 116
1, 432527, Control_c, 0, 67, 116
1, 432557, Control_c, 0, 67, 117
1, 432571, Control_c, 0, 67, 117
1, 432572, Poly_aftertouch_c, 0, 62, 0
1, 432572, Note_on_c, 0, 64, 47
1, 432586, Control_c, 0, 67, 118
1, 432609, Poly_aftertouch_c, 0, 62, 127
1, 432610, Note_off_c, 0, 64, 55
1, 432616, Control_c, 0, 67, 118
1, 432619, Note_on_c, 0, 62, 22
1, 432649, Note_on_c, 0, 82, 68
1, 432660, Control_c, 0, 67, 119
1, 432697, Control_c, 0, 67, 119
1, 432703, Note_on_c, 0, 73, 40
1, 432714, Note_off_c, 0, 62, 37
1, 432722, Note_on_c, 0, 64, 42
1, 432727, Control_c, 0, 67, 120
1, 432741, Control_c, 0, 67, 120
1, 432752, Note_off_c, 0, 64, 56
1, 432753, Note_off_c, 0, 81, 37
1, 432756, Control_c, 0, 67, 121
1, 432757, Note_on_c, 0, 62, 46
1, 432786, Control_c, 0, 67, 121
1, 432801, Control_c, 0, 67, 122
1, 432813, Note_off_c, 0, 62, 57
1, 432831, Control_c, 0, 67, 122
1, 432838, Note_on_c, 0, 64, 48
1, 432868, Note_off_c, 0, 64, 54
1, 432908, Note_on_c, 0, 62, 18
1, 432942, Note_on_c, 0, 64, 46
1, 432945, Note_off_c, 0, 62, 53
1, 432965, Control_c, 0, 67, 122
1, 432974, Note_off_c, 0, 64, 53
1, 432974, Note_off_c, 0, 73, 46
1, 433026, Note_on_c, 0, 62, 23
1, 433083, Control_c, 0, 67, 122
1, 433090, Note_off_c, 0, 62, 52
1, 433114, Note_on_c, 0, 61, 44
1, 433131, Note_on_c, 0, 83, 56
1, 433146, Note_on_c, 0, 79, 43
1, 433173, Control_c, 0, 64, 97
1, 433186, Note_off_c, 0, 82, 31
1, 433188, Control_c, 0, 64, 76
1, 433202, Control_c, 0, 64, 63
1, 433217, Control_c, 0, 64, 56
1, 433232, Control_c, 0, 64, 57
1, 433246, Control_c, 0, 64, 60
1, 433261, Control_c, 0, 64, 64
1, 433276, Control_c, 0, 64, 68
1, 433291, Control_c, 0, 64, 73
1, 433306, Control_c, 0, 64, 82
1, 433320, Control_c, 0, 64, 91
1, 433320, Control_c, 0, 67, 123
1, 433335, Control_c, 0, 64, 97
1, 433335, Control_c, 0, 67, 123
1, 433343, Note_on_c, 0, 62, 44
1, 433350, Control_c, 0, 64, 105
1, 433350, Control_c, 0, 67, 124
1, 433365, Control_c, 0, 64, 116
1, 433365, Control_c, 0, 67, 125
1, 433374, Note_off_c, 0, 61, 42
1, 433380, Control_c, 0, 64, 127
1, 433380, Control_c, 0, 67, 125
1, 433394, Control_c, 0, 67, 127
1, 433409, Control_c, 0, 67, 127
1, 433430, Note_off_c, 0, 55, 40
1, 433460, Note_off_c, 0, 83, 61
1, 433561, Note_off_c, 0, 62, 27
1, 433674, Note_on_c, 0, 84, 54
1, 433698, Note_on_c, 0, 81, 47
1, 433729, Note_on_c, 0, 55, 34
1, 433733, Note_on_c, 0, 48, 29
1, 433746, Note_off_c, 0, 79, 57
1, 433758, Control_c, 0, 64, 98
1, 433772, Control_c, 0, 64, 80
1, 433787, Control_c, 0, 64, 66
1, 433802, Control_c, 0, 64, 38
1, 433817, Control_c, 0, 64, 0
1, 433846, Control_c, 0, 64, 27
1, 433861, Control_c, 0, 64, 54
1, 433876, Control_c, 0, 64, 64
1, 433892, Control_c, 0, 64, 70
1, 433907, Control_c, 0, 64, 78
1, 433922, Control_c, 0, 64, 87
1, 433937, Control_c, 0, 64, 99
1, 433951, Control_c, 0, 64, 112
1, 433966, Control_c, 0, 64, 127
1, 434162, Note_on_c, 0, 79, 41
1, 434181, Note_on_c, 0, 76, 35
1, 434302, Note_off_c, 0, 55, 41
1, 434320, Note_off_c, 0, 48, 41
1, 434524, Note_on_c, 0, 72, 36
1, 434645, Note_off_c, 0, 81, 48
1, 434673, Note_off_c, 0, 84, 42
1, 434886, Note_on_c, 0, 71, 66
1, 434906, Note_on_c, 0, 84, 46
1, 434925, Note_on_c, 0, 81, 44
1, 434966, Note_off_c, 0, 71, 55
1, 435002, Note_off_c, 0, 79, 44
1, 435031, Note_off_c, 0, 76, 42
1, 435306, Note_on_c, 0, 79, 41
1, 435325, Note_on_c, 0, 76, 40
1, 435394, Note_off_c, 0, 72, 34
1, 435701, Note_on_c, 0, 72, 35
1, 435805, Note_off_c, 0, 81, 37
1, 435832, Note_off_c, 0, 84, 49
1, 436056, Note_on_c, 0, 69, 62
1, 436082, Note_on_c, 0, 84, 44
1, 436090, Note_on_c, 0, 81, 41
1, 436115, Note_off_c, 0, 69, 58
1, 436119, Note_off_c, 0, 76, 35
1, 436120, Note_off_c, 0, 79, 37
1, 436485, Note_on_c, 0, 76, 44
1, 436488, Note_on_c, 0, 79, 39
1, 436515, Note_off_c, 0, 72, 40
1, 436615, Note_off_c, 0, 76, 55
1, 436683, Note_off_c, 0, 79, 41
1, 436863, Note_on_c, 0, 76, 66
1, 436885, Note_on_c, 0, 72, 43
1, 436900, Note_off_c, 0, 81, 43
1, 436987, Note_off_c, 0, 84, 58
1, 437011, Note_off_c, 0, 72, 35
1, 437260, Note_on_c, 0, 74, 73
1, 437263, Note_off_c, 0, 76, 59
1, 437283, Note_on_c, 0, 86, 43
1, 437310, Note_on_c, 0, 83, 34
1, 437324, Control_c, 0, 64, 97
1, 437339, Control_c, 0, 64, 85
1, 437354, Control_c, 0, 64, 81
1, 437368, Note_off_c, 0, 83, 0
1, 437368, Note_on_c, 0, 83, 4
1, 437368, Control_c, 0, 64, 82
1, 437383, Control_c, 0, 64, 85
1, 437398, Control_c, 0, 64, 93
1, 437412, Control_c, 0, 64, 113
1, 437427, Control_c, 0, 64, 127
1, 437602, Note_off_c, 0, 74, 59
1, 437629, Note_on_c, 0, 69, 76
1, 437672, Note_on_c, 0, 81, 51
1, 437675, Note_off_c, 0, 69, 62
1, 437693, Note_on_c, 0, 77, 41
1, 437695, Note_off_c, 0, 86, 45
1, 437734, Note_off_c, 0, 83, 42
1, 437760, Note_off_c, 0, 77, 52
1, 438029, Note_on_c, 0, 71, 73
1, 438062, Note_on_c, 0, 74, 42
1, 438179, Note_off_c, 0, 74, 0
1, 438179, Note_on_c, 0, 74, 20
1, 438191, Control_c, 0, 64, 94
1, 438206, Control_c, 0, 64, 67
1, 438208, Note_on_c, 0, 50, 55
1, 438221, Control_c, 0, 64, 23
1, 438236, Control_c, 0, 64, 36
1, 438250, Control_c, 0, 64, 58
1, 438265, Control_c, 0, 64, 65
1, 438280, Control_c, 0, 64, 74
1, 438295, Control_c, 0, 64, 88
1, 438301, Note_on_c, 0, 57, 49
1, 438310, Control_c, 0, 64, 127
1, 438311, Note_off_c, 0, 74, 56
1, 438331, Note_off_c, 0, 50, 60
1, 438341, Note_off_c, 0, 81, 63
1, 438362, Note_off_c, 0, 57, 62
1, 438388, Note_on_c, 0, 60, 51
1, 438404, Note_off_c, 0, 71, 56
1, 438495, Note_off_c, 0, 60, 61
1, 438590, Note_on_c, 0, 88, 61
1, 438602, Note_on_c, 0, 84, 51
1, 438671, Note_on_c, 0, 67, 72
1, 439197, Note_on_c, 0, 83, 44
1, 439207, Note_on_c, 0, 79, 42
1, 439630, Note_off_c, 0, 67, 36
1, 439637, Note_on_c, 0, 76, 43
1, 439764, Note_off_c, 0, 88, 3
1, 439793, Note_off_c, 0, 79, 34
1, 439794, Note_on_c, 0, 67, 53
1, 439797, Note_off_c, 0, 84, 26
1, 439878, Note_off_c, 0, 67, 39
1, 439907, Note_off_c, 0, 83, 38
1, 439997, Note_on_c, 0, 67, 49
1, 440003, Note_on_c, 0, 88, 50
1, 440006, Note_on_c, 0, 84, 40
1, 440381, Note_on_c, 0, 83, 43
1, 440405, Note_on_c, 0, 79, 41
1, 440448, Note_off_c, 0, 76, 32
1, 440764, Note_off_c, 0, 79, 41
1, 440769, Note_on_c, 0, 76, 44
1, 440855, Note_off_c, 0, 84, 37
1, 440870, Note_off_c, 0, 76, 53
1, 440871, Note_off_c, 0, 88, 38
1, 440978, Note_off_c, 0, 83, 60
1, 441158, Note_on_c, 0, 89, 67
1, 441191, Note_on_c, 0, 81, 45
1, 441240, Note_off_c, 0, 81, 0
1, 441240, Note_on_c, 0, 81, 12
1, 441346, Note_off_c, 0, 89, 48
1, 441354, Note_on_c, 0, 79, 48
1, 441362, Note_off_c, 0, 81, 53
1, 441422, Note_off_c, 0, 79, 53
1, 441536, Note_on_c, 0, 88, 51
1, 441549, Note_on_c, 0, 79, 45
1, 441691, Note_off_c, 0, 88, 39
1, 441713, Note_on_c, 0, 77, 43
1, 441716, Note_off_c, 0, 79, 43
1, 441758, Note_off_c, 0, 77, 48
1, 441893, Note_on_c, 0, 86, 50
1, 441898, Note_on_c, 0, 77, 39
1, 441939, Note_off_c, 0, 86, 0
1, 441976, Poly_aftertouch_c, 0, 86, 127
1, 442038, Poly_aftertouch_c, 0, 86, 0
1, 442057, Note_on_c, 0, 76, 48
1, 442061, Note_off_c, 0, 77, 41
1, 442101, Note_off_c, 0, 76, 51
1, 442231, Note_off_c, 0, 67, 62
1, 442244, Note_on_c, 0, 84, 53
1, 442245, Note_on_c, 0, 69, 60
1, 442248, Note_on_c, 0, 76, 35
1, 442275, Control_c, 0, 64, 89
1, 442290, Control_c, 0, 64, 68
1, 442305, Control_c, 0, 64, 60
1, 442335, Control_c, 0, 64, 63
1, 442349, Control_c, 0, 64, 66
1, 442364, Control_c, 0, 64, 71
1, 442379, Control_c, 0, 64, 80
1, 442394, Control_c, 0, 64, 98
1, 442416, Note_off_c, 0, 84, 44
1, 442416, Control_c, 0, 64, 127
1, 442433, Note_on_c, 0, 74, 44
1, 442449, Note_off_c, 0, 76, 44
1, 442482, Note_off_c, 0, 74, 48
1, 442601, Note_on_c, 0, 83, 57
1, 442605, Note_on_c, 0, 74, 47
1, 442648, Note_off_c, 0, 69, 48
1, 442751, Note_off_c, 0, 83, 49
1, 442754, Note_off_c, 0, 74, 61
1, 442770, Note_on_c, 0, 72, 40
1, 442812, Note_off_c, 0, 72, 48
1, 442933, Note_on_c, 0, 72, 44
1, 442934, Note_on_c, 0, 81, 58
1, 443060, Note_on_c, 0, 45, 37
1, 443090, Note_on_c, 0, 71, 35
1, 443104, Note_off_c, 0, 45, 53
1, 443124, Note_on_c, 0, 52, 49
1, 443154, Note_off_c, 0, 81, 39
1, 443166, Note_off_c, 0, 52, 63
1, 443180, Note_off_c, 0, 71, 40
1, 443213, Note_on_c, 0, 59, 49
1, 443255, Note_off_c, 0, 59, 60
1, 443302, Note_off_c, 0, 72, 61
1, 443313, Note_on_c, 0, 79, 58
1, 443324, Note_on_c, 0, 71, 47
1, 443358, Note_on_c, 0, 65, 67
1, 443502, Note_off_c, 0, 79, 59
1, 443514, Note_on_c, 0, 74, 50
1, 443538, Note_off_c, 0, 71, 39
1, 443550, Note_off_c, 0, 74, 62
1, 443681, Note_on_c, 0, 83, 59
1, 443699, Note_on_c, 0, 74, 29
1, 443841, Note_on_c, 0, 72, 52
1, 443842, Note_off_c, 0, 83, 42
1, 443849, Note_off_c, 0, 74, 56
1, 443913, Note_off_c, 0, 72, 50
1, 444016, Note_on_c, 0, 81, 60
1, 444040, Note_on_c, 0, 72, 49
1, 444177, Note_on_c, 0, 71, 50
1, 444177, Note_off_c, 0, 72, 58
1, 444177, Note_off_c, 0, 81, 45
1, 444218, Note_off_c, 0, 71, 59
1, 444354, Note_on_c, 0, 71, 50
1, 444358, Note_on_c, 0, 79, 60
1, 444516, Note_on_c, 0, 69, 49
1, 444537, Note_off_c, 0, 71, 52
1, 444543, Note_off_c, 0, 79, 46
1, 444560, Note_off_c, 0, 69, 59
1, 444699, Note_on_c, 0, 77, 60
1, 444702, Note_on_c, 0, 69, 45
1, 444854, Note_off_c, 0, 69, 38
1, 444872, Note_on_c, 0, 71, 40
1, 444899, Note_off_c, 0, 71, 56
1, 445053, Note_on_c, 0, 67, 61
1, 445058, Note_on_c, 0, 76, 50
1, 445069, Note_on_c, 0, 71, 34
1, 445100, Note_off_c, 0, 65, 60
1, 445121, Note_off_c, 0, 77, 27
1, 445261, Note_on_c, 0, 69, 40
1, 445315, Note_off_c, 0, 67, 53
1, 445357, Note_off_c, 0, 69, 37
1, 445464, Note_on_c, 0, 65, 53
1, 445482, Note_on_c, 0, 55, 48
1, 445485, Note_on_c, 0, 59, 46
1, 445486, Control_c, 0, 64, 96
1, 445500, Control_c, 0, 64, 75
1, 445515, Control_c, 0, 64, 63
1, 445531, Control_c, 0, 64, 60
1, 445536, Note_off_c, 0, 71, 43
1, 445546, Control_c, 0, 64, 64
1, 445556, Note_on_c, 0, 77, 56
1, 445560, Control_c, 0, 64, 68
1, 445564, Note_off_c, 0, 76, 54
1, 445565, Note_on_c, 0, 69, 50
1, 445575, Control_c, 0, 64, 77
1, 445590, Control_c, 0, 64, 92
1, 445605, Control_c, 0, 64, 127
1, 445618, Note_off_c, 0, 69, 60
1, 445622, Note_off_c, 0, 59, 57
1, 445631, Note_off_c, 0, 55, 60
1, 445650, Note_off_c, 0, 65, 58
1, 445765, Note_on_c, 0, 68, 46
1, 445768, Note_on_c, 0, 67, 48
1, 445790, Note_off_c, 0, 68, 57
1, 445853, Note_off_c, 0, 67, 47
1, 445913, Note_on_c, 0, 65, 41
1, 445941, Note_on_c, 0, 68, 49
1, 445949, Note_on_c, 0, 79, 59
1, 445959, Note_off_c, 0, 65, 60
1, 445985, Note_off_c, 0, 77, 35
1, 445995, Note_on_c, 0, 67, 45
1, 446053, Note_off_c, 0, 68, 52
1, 446057, Note_off_c, 0, 67, 50
1, 446084, Note_on_c, 0, 65, 44
1, 446104, Note_on_c, 0, 69, 46
1, 446137, Note_off_c, 0, 65, 59
1, 446157, Note_on_c, 0, 67, 50
1, 446161, Note_off_c, 0, 69, 56
1, 446221, Note_off_c, 0, 67, 59
1, 446260, Note_on_c, 0, 65, 42
1, 446275, Note_on_c, 0, 77, 61
1, 446282, Note_on_c, 0, 69, 47
1, 446290, Note_off_c, 0, 65, 55
1, 446294, Note_off_c, 0, 79, 38
1, 446310, Note_on_c, 0, 67, 47
1, 446352, Note_off_c, 0, 67, 58
1, 446400, Note_on_c, 0, 65, 25
1, 446412, Control_c, 0, 67, 126
1, 446427, Control_c, 0, 67, 126
1, 446431, Note_off_c, 0, 65, 53
1, 446442, Control_c, 0, 67, 125
1, 446445, Note_on_c, 0, 67, 47
1, 446457, Note_off_c, 0, 69, 38
1, 446457, Control_c, 0, 67, 125
1, 446458, Note_on_c, 0, 70, 53
1, 446471, Control_c, 0, 67, 124
1, 446475, Note_off_c, 0, 67, 58
1, 446489, Note_off_c, 0, 70, 63
1, 446501, Control_c, 0, 67, 124
1, 446502, Note_on_c, 0, 65, 39
1, 446516, Control_c, 0, 67, 123
1, 446535, Note_off_c, 0, 65, 53
1, 446571, Note_on_c, 0, 67, 51
1, 446601, Note_off_c, 0, 67, 56
1, 446622, Note_on_c, 0, 65, 52
1, 446624, Note_on_c, 0, 70, 45
1, 446627, Note_on_c, 0, 76, 57
1, 446629, Note_off_c, 0, 77, 48
1, 446659, Note_off_c, 0, 65, 61
1, 446694, Note_on_c, 0, 67, 53
1, 446722, Note_off_c, 0, 67, 58
1, 446740, Control_c, 0, 67, 123
1, 446754, Note_on_c, 0, 65, 50
1, 446774, Note_off_c, 0, 70, 56
1, 446782, Note_off_c, 0, 65, 59
1, 446796, Note_on_c, 0, 71, 47
1, 446807, Note_on_c, 0, 67, 55
1, 446838, Note_off_c, 0, 67, 63
1, 446843, Note_off_c, 0, 71, 47
1, 446873, Note_on_c, 0, 65, 48
1, 446910, Control_c, 0, 67, 123
1, 446910, Note_off_c, 0, 65, 54
1, 446932, Note_on_c, 0, 67, 61
1, 446966, Note_off_c, 0, 67, 57
1, 446981, Note_off_c, 0, 76, 57
1, 446990, Note_on_c, 0, 74, 62
1, 446996, Note_on_c, 0, 71, 48
1, 447000, Note_on_c, 0, 65, 42
1, 447039, Note_off_c, 0, 65, 52
1, 447071, Note_on_c, 0, 67, 47
1, 447094, Note_off_c, 0, 67, 60
1, 447130, Note_on_c, 0, 65, 23
1, 447130, Note_off_c, 0, 74, 63
1, 447151, Note_on_c, 0, 76, 57
1, 447166, Note_on_c, 0, 67, 64
1, 447169, Note_off_c, 0, 65, 52
1, 447202, Note_off_c, 0, 67, 56
1, 447205, Control_c, 0, 67, 123
1, 447257, Note_on_c, 0, 65, 50
1, 447294, Control_c, 0, 67, 122
1, 447299, Note_off_c, 0, 65, 59
1, 447319, Note_off_c, 0, 71, 55
1, 447339, Control_c, 0, 67, 122
1, 447345, Note_on_c, 0, 64, 46
1, 447345, Note_on_c, 0, 74, 60
1, 447366, Note_on_c, 0, 70, 49
1, 447369, Control_c, 0, 67, 121
1, 447382, Note_off_c, 0, 76, 38
1, 447384, Control_c, 0, 67, 121
1, 447398, Control_c, 0, 67, 118
1, 447413, Control_c, 0, 67, 114
1, 447428, Control_c, 0, 67, 109
1, 447439, Note_off_c, 0, 64, 45
1, 447443, Control_c, 0, 67, 105
1, 447458, Control_c, 0, 67, 101
1, 447473, Control_c, 0, 67, 97
1, 447482, Note_off_c, 0, 74, 62
1, 447488, Control_c, 0, 67, 95
1, 447503, Control_c, 0, 67, 95
1, 447517, Note_off_c, 0, 70, 62
1, 447533, Note_on_c, 0, 71, 55
1, 447533, Control_c, 0, 67, 97
1, 447546, Note_on_c, 0, 65, 25
1, 447547, Control_c, 0, 67, 98
1, 447552, Note_off_c, 0, 71, 63
1, 447562, Control_c, 0, 67, 100
1, 447577, Control_c, 0, 67, 102
1, 447583, Note_off_c, 0, 65, 51
1, 447592, Control_c, 0, 67, 103
1, 447607, Control_c, 0, 67, 104
1, 447621, Control_c, 0, 67, 106
1, 447636, Control_c, 0, 67, 108
1, 447658, Control_c, 0, 67, 111
1, 447673, Control_c, 0, 67, 117
1, 447688, Control_c, 0, 67, 122
1, 447703, Control_c, 0, 67, 127
1, 447812, Note_on_c, 0, 69, 55
1, 447812, Note_on_c, 0, 72, 60
1, 447825, Note_on_c, 0, 65, 47
1, 447828, Note_on_c, 0, 48, 46
1, 447831, Note_on_c, 0, 60, 50
1, 447831, Note_on_c, 0, 62, 42
1, 447842, Note_on_c, 0, 57, 36
1, 447844, Note_on_c, 0, 53, 47
1, 447845, Note_on_c, 0, 50, 36
1, 447851, Control_c, 0, 64, 109
1, 447866, Control_c, 0, 64, 82
1, 447881, Control_c, 0, 64, 66
1, 447895, Control_c, 0, 64, 14
1, 447910, Control_c, 0, 64, 0
1, 447940, Control_c, 0, 64, 26
1, 447954, Control_c, 0, 64, 58
1, 447969, Control_c, 0, 64, 66
1, 447984, Control_c, 0, 64, 74
1, 447999, Control_c, 0, 64, 85
1, 448014, Control_c, 0, 64, 98
1, 448018, Note_off_c, 0, 57, 61
1, 448027, Note_off_c, 0, 60, 58
1, 448028, Control_c, 0, 64, 112
1, 448030, Note_off_c, 0, 62, 52
1, 448043, Control_c, 0, 64, 127
1, 448267, Note_on_c, 0, 67, 46
1, 448270, Note_on_c, 0, 59, 42
1, 448273, Note_on_c, 0, 64, 41
1, 448281, Control_c, 0, 64, 94
1, 448290, Note_on_c, 0, 55, 37
1, 448296, Control_c, 0, 64, 78
1, 448311, Control_c, 0, 64, 65
1, 448326, Control_c, 0, 64, 46
1, 448340, Control_c, 0, 64, 0
1, 448352, Note_off_c, 0, 65, 46
1, 448385, Control_c, 0, 64, 21
1, 448407, Control_c, 0, 64, 59
1, 448422, Control_c, 0, 64, 67
1, 448437, Control_c, 0, 64, 74
1, 448451, Control_c, 0, 64, 84
1, 448466, Control_c, 0, 64, 98
1, 448481, Control_c, 0, 64, 127
1, 448509, Note_off_c, 0, 59, 38
1, 448717, Note_on_c, 0, 57, 37
1, 448725, Note_on_c, 0, 65, 40
1, 448773, Note_off_c, 0, 55, 42
1, 448803, Note_off_c, 0, 64, 38
1, 448807, Note_off_c, 0, 53, 34
1, 448837, Note_off_c, 0, 57, 37
1, 448847, Note_off_c, 0, 65, 56
1, 448867, Note_off_c, 0, 69, 30
1, 448897, Note_off_c, 0, 72, 47
1, 449079, Note_on_c, 0, 72, 56
1, 449081, Note_on_c, 0, 69, 57
1, 449086, Note_on_c, 0, 53, 48
1, 449093, Note_on_c, 0, 57, 40
1, 449096, Note_on_c, 0, 60, 43
1, 449100, Note_on_c, 0, 65, 51
1, 449104, Note_on_c, 0, 62, 46
1, 449104, Control_c, 0, 64, 101
1, 449119, Control_c, 0, 64, 80
1, 449134, Control_c, 0, 64, 65
1, 449156, Control_c, 0, 64, 56
1, 449171, Control_c, 0, 64, 57
1, 449186, Control_c, 0, 64, 61
1, 449193, Note_off_c, 0, 67, 56
1, 449200, Control_c, 0, 64, 64
1, 449215, Control_c, 0, 64, 68
1, 449230, Control_c, 0, 64, 72
1, 449245, Control_c, 0, 64, 79
1, 449260, Control_c, 0, 64, 86
1, 449275, Control_c, 0, 64, 94
1, 449282, Note_off_c, 0, 57, 59
1, 449290, Control_c, 0, 64, 102
1, 449292, Note_off_c, 0, 60, 56
1, 449305, Control_c, 0, 64, 114
1, 449319, Control_c, 0, 64, 127
1, 449327, Note_off_c, 0, 62, 50
1, 449542, Note_on_c, 0, 64, 43
1, 449542, Note_on_c, 0, 67, 45
1, 449554, Note_on_c, 0, 59, 39
1, 449561, Note_on_c, 0, 55, 40
1, 449587, Control_c, 0, 64, 105
1, 449601, Control_c, 0, 64, 85
1, 449616, Control_c, 0, 64, 69
1, 449631, Control_c, 0, 64, 57
1, 449646, Control_c, 0, 64, 0
1, 449697, Note_off_c, 0, 65, 58
1, 449734, Control_c, 0, 64, 56
1, 449749, Control_c, 0, 64, 69
1, 449764, Control_c, 0, 64, 79
1, 449779, Control_c, 0, 64, 93
1, 449793, Control_c, 0, 64, 127
1, 449820, Note_off_c, 0, 59, 37
1, 450012, Note_on_c, 0, 65, 46
1, 450016, Note_on_c, 0, 57, 42
1, 450027, Note_off_c, 0, 72, 58
1, 450057, Note_off_c, 0, 69, 57
1, 450072, Note_off_c, 0, 57, 59
1, 450073, Note_off_c, 0, 67, 58
1, 450077, Note_off_c, 0, 65, 55
1, 450078, Note_off_c, 0, 53, 57
1, 450086, Note_off_c, 0, 55, 41
1, 450105, Note_off_c, 0, 64, 37
1, 450147, Note_off_c, 0, 50, 43
1, 450176, Note_off_c, 0, 48, 41
1, 450469, Control_c, 0, 64, 91
1, 450474, Note_on_c, 0, 60, 58
1, 450475, Note_on_c, 0, 50, 61
1, 450477, Note_on_c, 0, 47, 56
1, 450477, Note_on_c, 0, 53, 59
1, 450478, Note_on_c, 0, 36, 54
1, 450479, Note_on_c, 0, 43, 55
1, 450483, Note_on_c, 0, 40, 53
1, 450484, Control_c, 0, 64, 72
1, 450490, Note_on_c, 0, 57, 42
1, 450498, Control_c, 0, 64, 52
1, 450513, Control_c, 0, 64, 0
1, 450537, Note_off_c, 0, 43, 60
1, 450538, Note_off_c, 0, 47, 62
1, 450548, Note_off_c, 0, 53, 64
1, 450552, Note_off_c, 0, 50, 60
1, 450559, Note_off_c, 0, 40, 61
1, 450564, Note_off_c, 0, 57, 55
1, 450872, Note_on_c, 0, 43, 58
1, 450874, Note_on_c, 0, 40, 50
1, 450875, Note_on_c, 0, 57, 56
1, 450877, Note_on_c, 0, 50, 59
1, 450877, Note_on_c, 0, 53, 62
1, 450881, Note_on_c, 0, 47, 54
1, 450926, Note_off_c, 0, 50, 64
1, 450931, Note_off_c, 0, 43, 62
1, 450932, Note_off_c, 0, 47, 64
1, 450934, Note_off_c, 0, 53, 64
1, 450943, Note_off_c, 0, 40, 63
1, 450949, Note_off_c, 0, 57, 60
1, 451280, Note_on_c, 0, 57, 56
1, 451281, Note_on_c, 0, 47, 57
1, 451283, Note_on_c, 0, 40, 55
1, 451283, Note_on_c, 0, 50, 59
1, 451284, Note_on_c, 0, 43, 57
1, 451286, Note_on_c, 0, 53, 67
1, 451322, Note_off_c, 0, 50, 67
1, 451324, Note_off_c, 0, 43, 62
1, 451330, Note_off_c, 0, 53, 63
1, 451333, Note_off_c, 0, 47, 60
1, 451338, Note_off_c, 0, 40, 60
1, 451351, Note_off_c, 0, 57, 60
1, 451703, Note_on_c, 0, 43, 57
1, 451705, Note_on_c, 0, 47, 56
1, 451706, Note_on_c, 0, 40, 53
1, 451707, Note_on_c, 0, 57, 58
1, 451711, Note_on_c, 0, 50, 58
1, 451711, Note_on_c, 0, 53, 65
1, 451756, Note_off_c, 0, 43, 61
1, 451758, Note_off_c, 0, 50, 64
1, 451761, Note_off_c, 0, 47, 60
1, 451762, Note_off_c, 0, 53, 61
1, 451764, Note_off_c, 0, 40, 61
1, 451777, Note_off_c, 0, 57, 60
1, 452182, Note_on_c, 0, 42, 61
1, 452185, Note_on_c, 0, 46, 62
1, 452185, Note_on_c, 0, 58, 60
1, 452187, Note_on_c, 0, 39, 58
1, 452189, Note_on_c, 0, 54, 63
1, 452192, Note_on_c, 0, 51, 59
1, 452228, Note_off_c, 0, 51, 63
1, 452229, Note_off_c, 0, 54, 66
1, 452236, Note_off_c, 0, 46, 58
1, 452237, Note_off_c, 0, 42, 62
1, 452258, Note_off_c, 0, 58, 56
1, 452260, Note_off_c, 0, 39, 58
1, 452651, Note_on_c, 0, 59, 63
1, 452653, Note_on_c, 0, 41, 59
1, 452655, Note_on_c, 0, 52, 62
1, 452656, Note_on_c, 0, 45, 60
1, 452657, Note_on_c, 0, 38, 52
1, 452661, Note_on_c, 0, 55, 56
1, 452684, Note_off_c, 0, 41, 64
1, 452688, Note_off_c, 0, 52, 64
1, 452689, Note_off_c, 0, 55, 65
1, 452690, Note_off_c, 0, 45, 66
1, 452694, Note_off_c, 0, 38, 63
1, 452713, Note_off_c, 0, 59, 61
1, 453034, Note_off_c, 0, 60, 59
1, 453058, Note_off_c, 0, 36, 38
1, 453131, Note_on_c, 0, 36, 50
1, 453135, Note_on_c, 0, 44, 59
1, 453140, Note_on_c, 0, 40, 55
1, 453150, Note_on_c, 0, 60, 56
1, 453151, Note_on_c, 0, 37, 49
1, 453155, Note_on_c, 0, 52, 48
1, 453168, Note_on_c, 0, 55, 41
1, 453170, Note_off_c, 0, 44, 63
1, 453170, Note_off_c, 0, 36, 60
1, 453173, Note_off_c, 0, 40, 64
1, 453180, Note_off_c, 0, 37, 58
1, 453533, Note_on_c, 0, 44, 66
1, 453538, Note_on_c, 0, 40, 57
1, 453542, Note_on_c, 0, 36, 50
1, 453543, Note_on_c, 0, 37, 52
1, 453571, Note_off_c, 0, 40, 64
1, 453572, Note_off_c, 0, 44, 62
1, 453575, Note_off_c, 0, 36, 60
1, 453577, Note_off_c, 0, 37, 63
1, 453933, Note_on_c, 0, 44, 60
1, 453936, Note_on_c, 0, 40, 54
1, 453942, Note_on_c, 0, 36, 44
1, 453942, Note_on_c, 0, 37, 52
1, 453966, Note_off_c, 0, 44, 62
1, 453968, Note_off_c, 0, 40, 64
1, 453973, Note_off_c, 0, 37, 60
1, 453977, Note_off_c, 0, 36, 50
1, 454316, Note_on_c, 0, 44, 56
1, 454324, Note_on_c, 0, 40, 47
1, 454326, Note_on_c, 0, 36, 42
1, 454330, Note_on_c, 0, 37, 46
1, 454353, Note_off_c, 0, 44, 63
1, 454354, Note_off_c, 0, 40, 59
1, 454360, Note_off_c, 0, 36, 51
1, 454361, Note_off_c, 0, 37, 59
1, 454696, Note_on_c, 0, 44, 52
1, 454702, Note_on_c, 0, 40, 44
1, 454706, Note_on_c, 0, 37, 44
1, 454710, Note_on_c, 0, 36, 34
1, 454731, Note_off_c, 0, 40, 58
1, 454737, Note_off_c, 0, 37, 57
1, 454737, Note_off_c, 0, 44, 59
1, 454748, Note_off_c, 0, 36, 47
1, 455090, Note_on_c, 0, 44, 51
1, 455097, Note_on_c, 0, 40, 45
1, 455103, Note_on_c, 0, 37, 43
1, 455104, Note_on_c, 0, 36, 36
1, 455119, Note_off_c, 0, 44, 62
1, 455134, Note_off_c, 0, 40, 54
1, 455142, Note_off_c, 0, 37, 56
1, 455150, Note_off_c, 0, 36, 48
1, 455525, Note_on_c, 0, 40, 40
1, 455528, Note_on_c, 0, 48, 37
1, 455532, Note_on_c, 0, 36, 40
1, 455536, Note_on_c, 0, 43, 38
1, 455566, Note_off_c, 0, 40, 61
1, 455570, Note_off_c, 0, 36, 56
1, 455576, Note_off_c, 0, 43, 59
1, 455971, Note_on_c, 0, 40, 39
1, 455975, Note_on_c, 0, 43, 40
1, 455980, Note_on_c, 0, 36, 31
1, 456007, Note_off_c, 0, 40, 55
1, 456015, Note_off_c, 0, 43, 59
1, 456019, Note_off_c, 0, 36, 48
1, 456412, Note_on_c, 0, 43, 41
1, 456413, Note_on_c, 0, 40, 38
1, 456426, Note_on_c, 0, 36, 28
1, 456445, Note_off_c, 0, 40, 55
1, 456449, Note_off_c, 0, 43, 61
1, 456466, Note_off_c, 0, 36, 43
1, 456928, Note_on_c, 0, 40, 26
1, 456932, Note_on_c, 0, 43, 36
1, 456938, Note_on_c, 0, 36, 27
1, 457408, Note_off_c, 0, 36, 0
1, 457445, Poly_aftertouch_c, 0, 36, 127
1, 457540, Control_c, 0, 64, 21
1, 457554, Control_c, 0, 64, 38
1, 457569, Control_c, 0, 64, 47
1, 457584, Control_c, 0, 64, 53
1, 457599, Control_c, 0, 64, 58
1, 457614, Control_c, 0, 64, 61
1, 457629, Control_c, 0, 64, 63
1, 457644, Control_c, 0, 64, 64
1, 457658, Control_c, 0, 64, 65
1, 457673, Control_c, 0, 64, 66
1, 457688, Control_c, 0, 64, 67
1, 457703, Control_c, 0, 64, 68
1, 457718, Control_c, 0, 64, 69
1, 457732, Control_c, 0, 64, 71
1, 457747, Control_c, 0, 64, 72
1, 457762, Control_c, 0, 64, 74
1, 457777, Control_c, 0, 64, 77
1, 457792, Control_c, 0, 64, 79
1, 457806, Control_c, 0, 64, 81
1, 457821, Control_c, 0, 64, 83
1, 457836, Control_c, 0, 64, 85
1, 457852, Control_c, 0, 64, 88
1, 457867, Control_c, 0, 64, 90
1, 457881, Control_c, 0, 64, 93
1, 457896, Control_c, 0, 64, 95
1, 457911, Control_c, 0, 64, 97
1, 457926, Control_c, 0, 64, 99
1, 457941, Control_c, 0, 64, 103
1, 457955, Control_c, 0, 64, 107
1, 457970, Control_c, 0, 64, 112
1, 457985, Control_c, 0, 64, 119
1, 458000, Control_c, 0, 64, 127
1, 458025, Note_off_c, 0, 48, 40
1, 458163, Note_off_c, 0, 52, 28
1, 458237, Note_off_c, 0, 55, 35
1, 458297, Note_off_c, 0, 60, 30
1, 459102, Note_off_c, 0, 43, 35
1, 459120, Note_off_c, 0, 40, 36
1, 459262, Poly_aftertouch_c, 0, 36, 0
1, 459683, Control_c, 0, 64, 109
1, 459698, Control_c, 0, 64, 91
1, 459713, Control_c, 0, 64, 79
1, 459728, Control_c, 0, 64, 70
1, 459742, Control_c, 0, 64, 63
1, 459757, Control_c, 0, 64, 59
1, 459760, Note_on_c, 0, 87, 59
1, 459772, Control_c, 0, 64, 54
1, 459784, Note_on_c, 0, 51, 29
1, 459787, Control_c, 0, 64, 48
1, 459802, Control_c, 0, 64, 44
1, 459817, Control_c, 0, 64, 47
1, 459832, Control_c, 0, 64, 59
1, 459847, Control_c, 0, 64, 66
1, 459861, Control_c, 0, 64, 72
1, 459876, Control_c, 0, 64, 81
1, 459891, Control_c, 0, 64, 90
1, 459906, Control_c, 0, 64, 104
1, 459921, Control_c, 0, 64, 127
1, 460037, Note_off_c, 0, 51, 46
1, 460084, Note_on_c, 0, 80, 37
1, 460107, Note_on_c, 0, 39, 30
1, 460257, Note_off_c, 0, 80, 44
1, 460271, Note_off_c, 0, 39, 40
1, 460277, Note_on_c, 0, 83, 38
1, 460285, Note_on_c, 0, 32, 38
1, 460440, Note_on_c, 0, 75, 50
1, 460443, Note_on_c, 0, 39, 35
1, 460487, Note_off_c, 0, 32, 41
1, 460491, Note_off_c, 0, 75, 54
1, 460598, Note_off_c, 0, 39, 42
1, 460602, Note_on_c, 0, 40, 42
1, 460603, Note_on_c, 0, 74, 45
1, 460628, Note_off_c, 0, 74, 58
1, 460714, Note_off_c, 0, 40, 37
1, 460736, Note_on_c, 0, 39, 37
1, 460745, Note_on_c, 0, 75, 52
1, 460773, Note_off_c, 0, 83, 40
1, 460861, Note_off_c, 0, 39, 36
1, 460893, Note_on_c, 0, 32, 44
1, 460908, Note_on_c, 0, 80, 47
1, 460927, Note_off_c, 0, 75, 45
1, 461042, Note_on_c, 0, 39, 49
1, 461051, Note_on_c, 0, 83, 51
1, 461064, Note_off_c, 0, 32, 43
1, 461074, Note_off_c, 0, 39, 58
1, 461092, Note_off_c, 0, 80, 40
1, 461101, Note_off_c, 0, 87, 38
1, 461206, Note_off_c, 0, 83, 62
1, 461210, Note_on_c, 0, 52, 65
1, 461219, Note_on_c, 0, 86, 64
1, 461246, Note_off_c, 0, 52, 62
1, 461368, Note_on_c, 0, 80, 49
1, 461379, Note_on_c, 0, 40, 42
1, 461445, Note_off_c, 0, 40, 47
1, 461490, Note_off_c, 0, 80, 36
1, 461501, Note_on_c, 0, 32, 51
1, 461522, Note_on_c, 0, 83, 49
1, 461662, Note_on_c, 0, 74, 55
1, 461668, Note_on_c, 0, 40, 39
1, 461682, Note_off_c, 0, 32, 43
1, 461689, Note_off_c, 0, 74, 66
1, 461793, Note_off_c, 0, 40, 36
1, 461813, Note_on_c, 0, 41, 45
1, 461814, Note_off_c, 0, 83, 30
1, 461820, Note_on_c, 0, 73, 55
1, 461891, Note_off_c, 0, 73, 60
1, 461936, Note_off_c, 0, 41, 46
1, 461976, Note_on_c, 0, 40, 43
1, 461987, Note_on_c, 0, 74, 57
1, 462064, Note_off_c, 0, 40, 44
1, 462115, Note_on_c, 0, 32, 49
1, 462127, Note_on_c, 0, 80, 51
1, 462256, Note_off_c, 0, 80, 58
1, 462263, Note_on_c, 0, 40, 50
1, 462263, Note_off_c, 0, 86, 45
1, 462267, Note_on_c, 0, 83, 54
1, 462279, Note_off_c, 0, 32, 43
1, 462294, Note_off_c, 0, 40, 56
1, 462419, Control_c, 0, 64, 93
1, 462424, Note_on_c, 0, 53, 76
1, 462431, Note_on_c, 0, 85, 71
1, 462432, Note_off_c, 0, 83, 61
1, 462434, Control_c, 0, 64, 74
1, 462448, Control_c, 0, 64, 63
1, 462463, Control_c, 0, 64, 64
1, 462478, Control_c, 0, 64, 67
1, 462493, Control_c, 0, 64, 72
1, 462508, Control_c, 0, 64, 79
1, 462522, Control_c, 0, 64, 91
1, 462530, Note_off_c, 0, 53, 64
1, 462537, Control_c, 0, 64, 116
1, 462552, Control_c, 0, 64, 127
1, 462586, Note_on_c, 0, 41, 61
1, 462588, Note_on_c, 0, 80, 52
1, 462607, Note_off_c, 0, 74, 43
1, 462675, Note_off_c, 0, 41, 55
1, 462711, Note_off_c, 0, 80, 57
1, 462744, Note_on_c, 0, 37, 51
1, 462762, Note_on_c, 0, 83, 44
1, 462904, Note_on_c, 0, 41, 42
1, 462907, Note_on_c, 0, 73, 54
1, 462926, Note_off_c, 0, 37, 44
1, 462931, Note_off_c, 0, 83, 36
1, 462935, Note_off_c, 0, 73, 65
1, 463020, Note_off_c, 0, 41, 56
1, 463057, Note_on_c, 0, 72, 55
1, 463067, Note_on_c, 0, 42, 46
1, 463096, Note_off_c, 0, 72, 60
1, 463186, Note_off_c, 0, 42, 60
1, 463209, Note_on_c, 0, 73, 55
1, 463212, Note_on_c, 0, 41, 52
1, 463270, Note_off_c, 0, 73, 46
1, 463294, Note_off_c, 0, 41, 40
1, 463352, Note_on_c, 0, 37, 51
1, 463357, Note_on_c, 0, 80, 53
1, 463442, Control_c, 0, 67, 127
1, 463457, Control_c, 0, 67, 126
1, 463468, Note_off_c, 0, 80, 57
1, 463472, Control_c, 0, 67, 125
1, 463487, Control_c, 0, 67, 125
1, 463501, Note_on_c, 0, 44, 51
1, 463501, Control_c, 0, 67, 124
1, 463510, Note_on_c, 0, 83, 52
1, 463512, Note_off_c, 0, 37, 57
1, 463516, Control_c, 0, 67, 123
1, 463531, Control_c, 0, 67, 121
1, 463540, Note_off_c, 0, 44, 62
1, 463546, Control_c, 0, 67, 120
1, 463561, Control_c, 0, 67, 119
1, 463576, Control_c, 0, 67, 118
1, 463591, Control_c, 0, 67, 117
1, 463606, Control_c, 0, 67, 116
1, 463621, Control_c, 0, 67, 115
1, 463636, Control_c, 0, 67, 114
1, 463647, Note_on_c, 0, 53, 60
1, 463650, Control_c, 0, 67, 113
1, 463660, Note_on_c, 0, 73, 44
1, 463665, Control_c, 0, 67, 112
1, 463680, Control_c, 0, 67, 110
1, 463694, Control_c, 0, 67, 109
1, 463709, Control_c, 0, 67, 108
1, 463718, Note_off_c, 0, 53, 49
1, 463724, Control_c, 0, 67, 106
1, 463739, Control_c, 0, 67, 105
1, 463745, Note_off_c, 0, 85, 45
1, 463754, Control_c, 0, 67, 104
1, 463768, Control_c, 0, 67, 103
1, 463774, Note_off_c, 0, 73, 57
1, 463783, Control_c, 0, 67, 102
1, 463794, Note_on_c, 0, 80, 50
1, 463798, Control_c, 0, 67, 101
1, 463802, Note_on_c, 0, 44, 51
1, 463813, Control_c, 0, 67, 100
1, 463827, Control_c, 0, 67, 100
1, 463842, Control_c, 0, 67, 99
1, 463872, Control_c, 0, 67, 98
1, 463954, Note_on_c, 0, 53, 76
1, 463956, Note_on_c, 0, 85, 65
1, 463961, Control_c, 0, 67, 98
1, 463998, Note_off_c, 0, 53, 64
1, 464035, Control_c, 0, 67, 98
1, 464056, Note_off_c, 0, 83, 37
1, 464080, Control_c, 0, 67, 99
1, 464110, Note_on_c, 0, 73, 40
1, 464115, Note_on_c, 0, 37, 46
1, 464131, Control_c, 0, 67, 99
1, 464146, Control_c, 0, 67, 100
1, 464158, Note_off_c, 0, 37, 51
1, 464162, Note_off_c, 0, 73, 48
1, 464175, Control_c, 0, 67, 100
1, 464205, Control_c, 0, 67, 101
1, 464220, Control_c, 0, 67, 101
1, 464229, Note_off_c, 0, 44, 51
1, 464251, Control_c, 0, 67, 102
1, 464261, Note_on_c, 0, 54, 83
1, 464276, Note_on_c, 0, 84, 59
1, 464292, Note_off_c, 0, 85, 61
1, 464310, Control_c, 0, 67, 102
1, 464369, Control_c, 0, 67, 103
1, 464399, Control_c, 0, 67, 103
1, 464414, Note_on_c, 0, 44, 58
1, 464414, Control_c, 0, 67, 104
1, 464440, Note_on_c, 0, 75, 37
1, 464443, Control_c, 0, 67, 104
1, 464459, Note_off_c, 0, 54, 54
1, 464473, Control_c, 0, 67, 105
1, 464488, Control_c, 0, 67, 105
1, 464491, Note_off_c, 0, 75, 45
1, 464518, Control_c, 0, 67, 106
1, 464532, Control_c, 0, 67, 107
1, 464547, Control_c, 0, 67, 107
1, 464574, Note_on_c, 0, 55, 82
1, 464577, Control_c, 0, 64, 103
1, 464580, Note_on_c, 0, 83, 71
1, 464591, Control_c, 0, 64, 79
1, 464598, Note_off_c, 0, 84, 60
1, 464606, Control_c, 0, 64, 65
1, 464621, Control_c, 0, 64, 61
1, 464636, Control_c, 0, 64, 64
1, 464650, Control_c, 0, 64, 68
1, 464650, Control_c, 0, 67, 107
1, 464665, Control_c, 0, 64, 73
1, 464680, Control_c, 0, 64, 83
1, 464695, Control_c, 0, 64, 101
1, 464710, Control_c, 0, 64, 127
1, 464710, Control_c, 0, 67, 106
1, 464714, Note_off_c, 0, 80, 50
1, 464722, Note_on_c, 0, 49, 63
1, 464736, Note_on_c, 0, 76, 48
1, 464750, Note_off_c, 0, 55, 57
1, 464886, Note_off_c, 0, 44, 58
1, 464908, Note_on_c, 0, 56, 83
1, 464910, Control_c, 0, 67, 107
1, 464911, Note_off_c, 0, 83, 61
1, 464914, Note_on_c, 0, 82, 71
1, 464924, Control_c, 0, 64, 113
1, 464924, Control_c, 0, 67, 107
1, 464936, Note_off_c, 0, 49, 59
1, 464939, Control_c, 0, 64, 78
1, 464939, Control_c, 0, 67, 108
1, 464954, Control_c, 0, 64, 0
1, 464969, Control_c, 0, 67, 108
1, 464986, Note_off_c, 0, 76, 37
1, 465013, Control_c, 0, 67, 108
1, 465028, Control_c, 0, 64, 38
1, 465028, Control_c, 0, 67, 107
1, 465044, Control_c, 0, 64, 69
1, 465059, Control_c, 0, 64, 86
1, 465059, Control_c, 0, 67, 107
1, 465072, Note_on_c, 0, 46, 61
1, 465073, Control_c, 0, 64, 127
1, 465086, Note_off_c, 0, 56, 64
1, 465088, Control_c, 0, 67, 106
1, 465094, Note_on_c, 0, 77, 50
1, 465133, Control_c, 0, 67, 106
1, 465162, Control_c, 0, 67, 105
1, 465184, Note_off_c, 0, 46, 60
1, 465221, Control_c, 0, 67, 105
1, 465235, Note_on_c, 0, 38, 57
1, 465243, Note_on_c, 0, 80, 61
1, 465250, Note_off_c, 0, 77, 55
1, 465296, Control_c, 0, 67, 105
1, 465326, Control_c, 0, 67, 106
1, 465355, Control_c, 0, 67, 106
1, 465388, Note_on_c, 0, 46, 50
1, 465389, Note_on_c, 0, 70, 49
1, 465396, Note_off_c, 0, 38, 52
1, 465415, Control_c, 0, 67, 107
1, 465430, Note_off_c, 0, 70, 59
1, 465444, Control_c, 0, 67, 107
1, 465498, Note_off_c, 0, 46, 47
1, 465522, Note_on_c, 0, 47, 55
1, 465535, Note_on_c, 0, 69, 56
1, 465565, Note_off_c, 0, 69, 65
1, 465621, Note_off_c, 0, 47, 57
1, 465661, Note_on_c, 0, 46, 66
1, 465689, Note_off_c, 0, 46, 64
1, 465697, Note_on_c, 0, 70, 57
1, 465833, Note_off_c, 0, 82, 59
1, 465835, Note_off_c, 0, 80, 57
1, 465844, Note_on_c, 0, 62, 80
1, 465851, Control_c, 0, 67, 107
1, 465856, Note_on_c, 0, 77, 63
1, 465892, Note_off_c, 0, 70, 40
1, 465925, Control_c, 0, 67, 106
1, 465984, Note_on_c, 0, 64, 69
1, 466009, Note_on_c, 0, 56, 60
1, 466028, Note_off_c, 0, 62, 50
1, 466152, Note_on_c, 0, 74, 79
1, 466153, Note_on_c, 0, 65, 85
1, 466163, Control_c, 0, 64, 85
1, 466163, Control_c, 0, 67, 107
1, 466167, Note_off_c, 0, 77, 50
1, 466177, Control_c, 0, 64, 73
1, 466185, Note_off_c, 0, 74, 63
1, 466192, Control_c, 0, 64, 74
1, 466207, Control_c, 0, 64, 83
1, 466220, Note_off_c, 0, 64, 64
1, 466221, Control_c, 0, 64, 95
1, 466221, Control_c, 0, 67, 106
1, 466236, Control_c, 0, 64, 127
1, 466262, Note_off_c, 0, 56, 64
1, 466279, Note_off_c, 0, 65, 59
1, 466281, Control_c, 0, 67, 106
1, 466310, Control_c, 0, 67, 105
1, 466321, Note_on_c, 0, 62, 59
1, 466340, Control_c, 0, 67, 105
1, 466369, Note_off_c, 0, 62, 52
1, 466469, Note_on_c, 0, 38, 61
1, 466473, Note_on_c, 0, 57, 61
1, 466555, Control_c, 0, 67, 104
1, 466610, Note_on_c, 0, 46, 56
1, 466615, Note_on_c, 0, 58, 59
1, 466643, Note_off_c, 0, 58, 65
1, 466704, Control_c, 0, 67, 104
1, 466786, Note_on_c, 0, 70, 83
1, 466792, Control_c, 0, 64, 111
1, 466803, Note_on_c, 0, 68, 73
1, 466807, Control_c, 0, 64, 79
1, 466818, Note_off_c, 0, 57, 59
1, 466822, Control_c, 0, 64, 64
1, 466837, Control_c, 0, 64, 65
1, 466852, Control_c, 0, 64, 71
1, 466867, Control_c, 0, 64, 80
1, 466882, Control_c, 0, 64, 97
1, 466897, Control_c, 0, 64, 127
1, 466926, Control_c, 0, 67, 103
1, 466930, Note_on_c, 0, 57, 69
1, 466941, Control_c, 0, 67, 103
1, 466956, Control_c, 0, 67, 102
1, 466972, Note_off_c, 0, 57, 58
1, 466985, Control_c, 0, 67, 102
1, 467015, Control_c, 0, 67, 101
1, 467031, Note_off_c, 0, 46, 49
1, 467044, Control_c, 0, 67, 101
1, 467059, Control_c, 0, 67, 100
1, 467067, Note_off_c, 0, 38, 33
1, 467074, Control_c, 0, 67, 100
1, 467084, Note_on_c, 0, 58, 70
1, 467086, Note_on_c, 0, 53, 65
1, 467089, Control_c, 0, 67, 99
1, 467104, Control_c, 0, 67, 98
1, 467126, Control_c, 0, 67, 98
1, 467141, Control_c, 0, 67, 97
1, 467153, Note_off_c, 0, 53, 59
1, 467156, Control_c, 0, 67, 97
1, 467171, Control_c, 0, 67, 95
1, 467186, Control_c, 0, 67, 91
1, 467200, Control_c, 0, 67, 88
1, 467215, Control_c, 0, 67, 84
1, 467230, Control_c, 0, 67, 80
1, 467238, Note_on_c, 0, 46, 51
1, 467239, Note_off_c, 0, 68, 59
1, 467242, Note_on_c, 0, 62, 62
1, 467243, Control_c, 0, 67, 78
1, 467247, Note_off_c, 0, 70, 62
1, 467258, Control_c, 0, 67, 76
1, 467273, Control_c, 0, 67, 74
1, 467288, Control_c, 0, 67, 74
1, 467303, Control_c, 0, 67, 73
1, 467317, Control_c, 0, 67, 72
1, 467448, Note_on_c, 0, 70, 93
1, 467475, Note_on_c, 0, 68, 68
1, 467476, Note_off_c, 0, 62, 60
1, 467477, Note_on_c, 0, 39, 59
1, 467481, Control_c, 0, 64, 96
1, 467487, Note_off_c, 0, 46, 37
1, 467496, Control_c, 0, 64, 70
1, 467496, Control_c, 0, 67, 73
1, 467511, Control_c, 0, 64, 0
1, 467585, Control_c, 0, 64, 65
1, 467600, Control_c, 0, 64, 80
1, 467615, Control_c, 0, 64, 111
1, 467617, Note_off_c, 0, 68, 57
1, 467627, Note_on_c, 0, 61, 67
1, 467630, Control_c, 0, 64, 127
1, 467689, Control_c, 0, 67, 72
1, 467704, Control_c, 0, 67, 72
1, 467773, Note_on_c, 0, 46, 60
1, 467776, Note_on_c, 0, 68, 63
1, 467791, Note_off_c, 0, 70, 56
1, 467814, Note_off_c, 0, 58, 55
1, 467850, Note_off_c, 0, 61, 58
1, 467851, Note_off_c, 0, 39, 54
1, 467889, Note_off_c, 0, 46, 60
1, 467921, Note_on_c, 0, 51, 62
1, 467925, Note_on_c, 0, 70, 63
1, 467936, Note_off_c, 0, 68, 61
1, 467952, Note_off_c, 0, 51, 64
1, 467959, Note_off_c, 0, 70, 64
1, 468067, Control_c, 0, 67, 72
1, 468082, Control_c, 0, 67, 73
1, 468092, Note_on_c, 0, 70, 65
1, 468097, Note_on_c, 0, 56, 48
1, 468097, Control_c, 0, 67, 74
1, 468112, Control_c, 0, 67, 74
1, 468125, Note_off_c, 0, 56, 58
1, 468127, Control_c, 0, 67, 75
1, 468141, Control_c, 0, 67, 75
1, 468156, Control_c, 0, 67, 76
1, 468171, Control_c, 0, 67, 76
1, 468186, Control_c, 0, 67, 77
1, 468208, Note_off_c, 0, 70, 54
1, 468215, Control_c, 0, 67, 77
1, 468230, Control_c, 0, 67, 78
1, 468236, Note_on_c, 0, 77, 63
1, 468261, Control_c, 0, 67, 78
1, 468320, Control_c, 0, 67, 79
1, 468350, Control_c, 0, 67, 79
1, 468364, Control_c, 0, 67, 80
1, 468393, Note_off_c, 0, 77, 58
1, 468394, Control_c, 0, 67, 80
1, 468399, Note_on_c, 0, 61, 60
1, 468399, Note_on_c, 0, 82, 67
1, 468497, Control_c, 0, 67, 81
1, 468503, Note_off_c, 0, 82, 62
1, 468540, Note_on_c, 0, 75, 63
1, 468623, Control_c, 0, 67, 80
1, 468742, Control_c, 0, 67, 81
1, 468755, Note_on_c, 0, 69, 72
1, 468757, Control_c, 0, 67, 82
1, 468760, Note_off_c, 0, 75, 54
1, 468772, Note_on_c, 0, 87, 61
1, 468772, Control_c, 0, 67, 83
1, 468787, Control_c, 0, 67, 85
1, 468801, Control_c, 0, 67, 86
1, 468816, Control_c, 0, 64, 87
1, 468816, Control_c, 0, 67, 90
1, 468829, Note_off_c, 0, 61, 59
1, 468831, Control_c, 0, 64, 64
1, 468831, Control_c, 0, 67, 94
1, 468846, Control_c, 0, 64, 0
1, 468846, Control_c, 0, 67, 98
1, 468861, Control_c, 0, 67, 101
1, 468876, Control_c, 0, 67, 103
1, 468890, Control_c, 0, 67, 105
1, 468905, Control_c, 0, 67, 107
1, 468920, Control_c, 0, 67, 110
1, 468930, Note_on_c, 0, 85, 59
1, 468935, Control_c, 0, 64, 53
1, 468935, Control_c, 0, 67, 112
1, 468950, Control_c, 0, 64, 69
1, 468950, Control_c, 0, 67, 113
1, 468964, Control_c, 0, 64, 80
1, 468964, Control_c, 0, 67, 114
1, 468979, Control_c, 0, 64, 96
1, 468979, Control_c, 0, 67, 115
1, 468994, Control_c, 0, 64, 127
1, 468994, Control_c, 0, 67, 116
1, 469001, Note_off_c, 0, 87, 37
1, 469009, Control_c, 0, 67, 117
1, 469023, Control_c, 0, 67, 117
1, 469039, Control_c, 0, 67, 118
1, 469054, Control_c, 0, 67, 120
1, 469060, Note_off_c, 0, 85, 62
1, 469069, Control_c, 0, 67, 121
1, 469084, Note_on_c, 0, 66, 53
1, 469084, Control_c, 0, 67, 123
1, 469086, Note_on_c, 0, 81, 54
1, 469099, Control_c, 0, 67, 124
1, 469113, Control_c, 0, 67, 125
1, 469128, Control_c, 0, 67, 126
1, 469135, Note_off_c, 0, 69, 55
1, 469158, Control_c, 0, 67, 127
1, 469173, Control_c, 0, 67, 127
1, 469184, Note_off_c, 0, 81, 54
1, 469212, Note_off_c, 0, 66, 59
1, 469234, Note_on_c, 0, 63, 47
1, 469240, Note_on_c, 0, 78, 54
1, 469261, Note_off_c, 0, 63, 59
1, 469386, Note_on_c, 0, 56, 56
1, 469399, Note_on_c, 0, 75, 52
1, 469421, Note_off_c, 0, 78, 38
1, 469479, Note_off_c, 0, 56, 50
1, 469528, Note_on_c, 0, 51, 53
1, 469536, Note_off_c, 0, 75, 51
1, 469538, Note_on_c, 0, 73, 51
1, 469566, Note_off_c, 0, 51, 63
1, 469669, Note_off_c, 0, 73, 60
1, 469702, Note_on_c, 0, 44, 51
1, 469708, Note_on_c, 0, 69, 48
1, 469764, Note_off_c, 0, 44, 50
1, 469765, Note_off_c, 0, 69, 49
1, 469857, Note_on_c, 0, 32, 41
1, 469863, Note_on_c, 0, 66, 44
1, 469904, Note_off_c, 0, 32, 57
1, 470081, Note_off_c, 0, 66, 60
1, 470084, Note_on_c, 0, 68, 66
1, 470099, Control_c, 0, 64, 112
1, 470122, Control_c, 0, 64, 84
1, 470136, Control_c, 0, 64, 64
1, 470151, Control_c, 0, 64, 0
1, 470250, Note_on_c, 0, 56, 44
1, 470373, Control_c, 0, 64, 23
1, 470387, Control_c, 0, 64, 62
1, 470402, Control_c, 0, 64, 67
1, 470417, Control_c, 0, 64, 72
1, 470432, Note_on_c, 0, 64, 41
1, 470432, Control_c, 0, 64, 78
1, 470436, Note_on_c, 0, 60, 34
1, 470437, Note_on_c, 0, 37, 39
1, 470438, Note_on_c, 0, 43, 33
1, 470447, Control_c, 0, 64, 83
1, 470462, Control_c, 0, 64, 90
1, 470477, Control_c, 0, 64, 99
1, 470492, Control_c, 0, 64, 110
1, 470506, Control_c, 0, 64, 127
1, 470578, Note_off_c, 0, 37, 39
1, 470580, Note_off_c, 0, 56, 25
1, 470581, Note_on_c, 0, 44, 45
1, 470588, Note_off_c, 0, 43, 42
1, 470599, Note_on_c, 0, 61, 47
1, 470634, Note_off_c, 0, 44, 57
1, 470635, Note_off_c, 0, 60, 41
1, 470676, Note_off_c, 0, 64, 26
1, 470744, Note_on_c, 0, 60, 50
1, 470752, Note_off_c, 0, 61, 51
1, 470754, Note_on_c, 0, 51, 57
1, 470761, Note_on_c, 0, 56, 44
1, 470880, Note_off_c, 0, 51, 63
1, 470910, Note_on_c, 0, 52, 60
1, 470914, Note_off_c, 0, 56, 35
1, 470915, Note_on_c, 0, 61, 60
1, 470939, Note_off_c, 0, 60, 55
1, 470989, Control_c, 0, 64, 99
1, 471004, Control_c, 0, 64, 80
1, 471019, Control_c, 0, 64, 68
1, 471034, Control_c, 0, 64, 42
1, 471049, Control_c, 0, 64, 0
1, 471052, Note_on_c, 0, 55, 57
1, 471055, Note_off_c, 0, 61, 56
1, 471065, Note_on_c, 0, 60, 52
1, 471066, Note_on_c, 0, 64, 57
1, 471076, Note_off_c, 0, 52, 58
1, 471167, Control_c, 0, 64, 56
1, 471182, Control_c, 0, 64, 67
1, 471183, Note_off_c, 0, 55, 57
1, 471192, Note_off_c, 0, 64, 61
1, 471197, Control_c, 0, 64, 76
1, 471210, Note_on_c, 0, 56, 54
1, 471211, Control_c, 0, 64, 85
1, 471215, Note_on_c, 0, 61, 49
1, 471219, Note_off_c, 0, 60, 60
1, 471226, Control_c, 0, 64, 97
1, 471227, Note_off_c, 0, 68, 53
1, 471241, Control_c, 0, 64, 112
1, 471242, Note_off_c, 0, 61, 59
1, 471256, Control_c, 0, 64, 127
1, 471356, Note_off_c, 0, 56, 60
1, 471392, Note_on_c, 0, 69, 76
1, 471422, Note_on_c, 0, 67, 55
1, 471464, Control_c, 0, 64, 103
1, 471479, Control_c, 0, 64, 79
1, 471494, Control_c, 0, 64, 63
1, 471508, Control_c, 0, 64, 0
1, 471555, Note_on_c, 0, 61, 44
1, 471597, Control_c, 0, 64, 34
1, 471620, Control_c, 0, 64, 66
1, 471634, Control_c, 0, 64, 76
1, 471649, Control_c, 0, 64, 88
1, 471664, Control_c, 0, 64, 106
1, 471679, Control_c, 0, 64, 127
1, 471713, Note_on_c, 0, 56, 56
1, 471738, Note_on_c, 0, 64, 48
1, 471747, Note_off_c, 0, 61, 36
1, 471751, Note_on_c, 0, 60, 30
1, 471809, Note_off_c, 0, 69, 56
1, 471812, Note_off_c, 0, 60, 45
1, 471840, Note_off_c, 0, 67, 53
1, 471853, Note_off_c, 0, 56, 58
1, 471878, Note_on_c, 0, 52, 49
1, 471878, Note_on_c, 0, 61, 59
1, 471909, Note_off_c, 0, 52, 62
1, 471911, Note_off_c, 0, 64, 60
1, 471940, Note_off_c, 0, 61, 59
1, 472029, Note_on_c, 0, 51, 59
1, 472038, Note_on_c, 0, 60, 49
1, 472042, Note_on_c, 0, 56, 47
1, 472158, Note_off_c, 0, 51, 54
1, 472167, Note_on_c, 0, 61, 59
1, 472172, Note_on_c, 0, 49, 56
1, 472184, Note_off_c, 0, 60, 49
1, 472203, Note_off_c, 0, 56, 31
1, 472295, Note_off_c, 0, 49, 62
1, 472316, Note_on_c, 0, 44, 56
1, 472332, Note_on_c, 0, 60, 53
1, 472344, Note_on_c, 0, 64, 62
1, 472448, Note_off_c, 0, 61, 0
1, 472462, Note_on_c, 0, 61, 49
1, 472472, Note_off_c, 0, 60, 62
1, 472474, Note_on_c, 0, 37, 60
1, 472486, Note_off_c, 0, 64, 61
1, 472504, Note_off_c, 0, 61, 63
1, 472510, Note_off_c, 0, 44, 56
1, 472635, Control_c, 0, 64, 106
1, 472650, Control_c, 0, 64, 87
1, 472656, Note_on_c, 0, 70, 70
1, 472656, Note_off_c, 0, 37, 60
1, 472665, Control_c, 0, 64, 71
1, 472675, Note_on_c, 0, 66, 59
1, 472680, Control_c, 0, 64, 0
1, 472827, Note_on_c, 0, 64, 53
1, 472868, Note_on_c, 0, 61, 40
1, 472917, Control_c, 0, 64, 42
1, 472931, Control_c, 0, 64, 62
1, 472946, Control_c, 0, 64, 68
1, 472961, Control_c, 0, 64, 75
1, 472964, Note_off_c, 0, 64, 56
1, 472975, Control_c, 0, 64, 86
1, 472976, Note_on_c, 0, 30, 48
1, 472976, Note_off_c, 0, 61, 53
1, 472990, Note_on_c, 0, 60, 49
1, 472990, Control_c, 0, 64, 109
1, 473005, Control_c, 0, 64, 127
1, 473110, Note_off_c, 0, 60, 60
1, 473133, Note_on_c, 0, 64, 50
1, 473135, Note_on_c, 0, 61, 44
1, 473141, Note_on_c, 0, 37, 53
1, 473159, Note_off_c, 0, 30, 41
1, 473160, Note_off_c, 0, 61, 61
1, 473176, Note_off_c, 0, 64, 56
1, 473220, Note_off_c, 0, 66, 60
1, 473227, Note_off_c, 0, 70, 58
1, 473254, Note_off_c, 0, 37, 48
1, 473291, Note_on_c, 0, 46, 45
1, 473303, Note_on_c, 0, 67, 53
1, 473320, Note_off_c, 0, 46, 62
1, 473444, Note_on_c, 0, 71, 57
1, 473471, Note_off_c, 0, 67, 35
1, 473475, Note_on_c, 0, 52, 37
1, 473579, Note_off_c, 0, 71, 63
1, 473601, Note_on_c, 0, 76, 63
1, 473601, Note_off_c, 0, 52, 47
1, 473613, Note_on_c, 0, 59, 49
1, 473678, Note_off_c, 0, 76, 57
1, 473688, Note_off_c, 0, 59, 58
1, 473750, Note_on_c, 0, 70, 57
1, 473765, Note_on_c, 0, 64, 32
1, 473797, Note_off_c, 0, 64, 55
1, 473902, Note_off_c, 0, 70, 34
1, 473922, Note_on_c, 0, 82, 61
1, 473928, Note_on_c, 0, 73, 53
1, 473949, Note_off_c, 0, 82, 67
1, 473949, Note_off_c, 0, 73, 61
1, 474090, Note_on_c, 0, 64, 59
1, 474172, Note_off_c, 0, 64, 49
1, 474239, Note_on_c, 0, 70, 69
1, 474244, Note_on_c, 0, 66, 56
1, 474251, Control_c, 0, 64, 108
1, 474266, Control_c, 0, 64, 82
1, 474281, Control_c, 0, 64, 65
1, 474296, Control_c, 0, 64, 0
1, 474310, Control_c, 0, 64, 19
1, 474325, Control_c, 0, 64, 60
1, 474340, Control_c, 0, 64, 68
1, 474355, Control_c, 0, 64, 79
1, 474370, Control_c, 0, 64, 98
1, 474385, Control_c, 0, 64, 127
1, 474414, Note_on_c, 0, 61, 53
1, 474442, Note_off_c, 0, 61, 56
1, 474558, Note_on_c, 0, 71, 75
1, 474561, Note_off_c, 0, 70, 63
1, 474577, Control_c, 0, 64, 88
1, 474584, Note_on_c, 0, 65, 54
1, 474592, Control_c, 0, 64, 69
1, 474614, Control_c, 0, 64, 35
1, 474629, Control_c, 0, 64, 46
1, 474645, Control_c, 0, 64, 63
1, 474654, Note_off_c, 0, 66, 53
1, 474659, Control_c, 0, 64, 71
1, 474674, Control_c, 0, 64, 81
1, 474689, Control_c, 0, 64, 97
1, 474704, Control_c, 0, 64, 127
1, 474729, Note_on_c, 0, 59, 64
1, 474849, Note_off_c, 0, 59, 58
1, 474853, Control_c, 0, 64, 124
1, 474868, Control_c, 0, 64, 87
1, 474871, Note_off_c, 0, 65, 56
1, 474882, Note_on_c, 0, 72, 77
1, 474882, Control_c, 0, 64, 67
1, 474889, Note_on_c, 0, 64, 59
1, 474897, Control_c, 0, 64, 0
1, 474902, Note_off_c, 0, 71, 61
1, 474942, Control_c, 0, 64, 19
1, 474957, Control_c, 0, 64, 59
1, 474972, Control_c, 0, 64, 67
1, 474986, Control_c, 0, 64, 76
1, 475001, Control_c, 0, 64, 92
1, 475016, Control_c, 0, 64, 127
1, 475061, Note_on_c, 0, 58, 45
1, 475149, Control_c, 0, 64, 108
1, 475164, Control_c, 0, 64, 77
1, 475178, Control_c, 0, 64, 0
1, 475208, Note_on_c, 0, 73, 74
1, 475213, Note_off_c, 0, 58, 38
1, 475225, Note_on_c, 0, 63, 61
1, 475230, Note_off_c, 0, 72, 62
1, 475231, Note_off_c, 0, 64, 61
1, 475267, Control_c, 0, 64, 51
1, 475282, Control_c, 0, 64, 73
1, 475297, Control_c, 0, 64, 93
1, 475312, Control_c, 0, 64, 127
1, 475327, Note_off_c, 0, 63, 60
1, 475388, Note_on_c, 0, 58, 49
1, 475462, Note_off_c, 0, 58, 50
1, 475539, Note_on_c, 0, 31, 58
1, 475555, Note_on_c, 0, 64, 55
1, 475663, Note_off_c, 0, 64, 56
1, 475671, Note_off_c, 0, 31, 49
1, 475689, Note_on_c, 0, 39, 55
1, 475702, Note_on_c, 0, 70, 56
1, 475724, Note_off_c, 0, 73, 39
1, 475777, Note_off_c, 0, 39, 58
1, 475826, Note_on_c, 0, 46, 61
1, 475836, Note_off_c, 0, 70, 62
1, 475842, Note_on_c, 0, 73, 60
1, 475853, Note_off_c, 0, 46, 64
1, 475978, Note_on_c, 0, 55, 63
1, 476012, Note_off_c, 0, 55, 60
1, 476030, Control_c, 0, 67, 126
1, 476045, Control_c, 0, 67, 123
1, 476060, Control_c, 0, 67, 119
1, 476063, Poly_aftertouch_c, 0, 63, 0
1, 476075, Control_c, 0, 67, 116
1, 476090, Control_c, 0, 67, 114
1, 476112, Control_c, 0, 67, 113
1, 476140, Note_off_c, 0, 73, 62
1, 476149, Note_on_c, 0, 79, 83
1, 476156, Control_c, 0, 67, 113
1, 476164, Note_on_c, 0, 58, 57
1, 476186, Control_c, 0, 67, 112
1, 476200, Control_c, 0, 67, 112
1, 476215, Control_c, 0, 67, 111
1, 476231, Control_c, 0, 67, 110
1, 476246, Control_c, 0, 67, 109
1, 476261, Control_c, 0, 67, 106
1, 476276, Control_c, 0, 67, 104
1, 476291, Control_c, 0, 67, 101
1, 476305, Control_c, 0, 67, 97
1, 476320, Control_c, 0, 67, 94
1, 476335, Control_c, 0, 67, 93
1, 476379, Control_c, 0, 67, 94
1, 476385, Poly_aftertouch_c, 0, 67, 0
1, 476394, Control_c, 0, 67, 94
1, 476409, Control_c, 0, 67, 95
1, 476424, Control_c, 0, 67, 96
1, 476438, Control_c, 0, 67, 97
1, 476453, Control_c, 0, 67, 98
1, 476465, Note_off_c, 0, 79, 62
1, 476468, Control_c, 0, 67, 99
1, 476469, Note_on_c, 0, 82, 82
1, 476483, Control_c, 0, 64, 88
1, 476492, Note_on_c, 0, 55, 54
1, 476498, Control_c, 0, 64, 69
1, 476498, Control_c, 0, 67, 99
1, 476513, Control_c, 0, 64, 64
1, 476513, Control_c, 0, 67, 100
1, 476528, Control_c, 0, 64, 67
1, 476539, Note_off_c, 0, 58, 34
1, 476543, Control_c, 0, 64, 73
1, 476558, Control_c, 0, 64, 79
1, 476573, Control_c, 0, 64, 91
1, 476587, Control_c, 0, 64, 110
1, 476602, Control_c, 0, 64, 127
1, 476602, Control_c, 0, 67, 100
1, 476611, Note_off_c, 0, 55, 63
1, 476631, Control_c, 0, 67, 101
1, 476637, Note_on_c, 0, 76, 59
1, 476661, Control_c, 0, 67, 101
1, 476676, Control_c, 0, 67, 102
1, 476705, Control_c, 0, 67, 102
1, 476783, Note_on_c, 0, 46, 57
1, 476808, Note_off_c, 0, 76, 58
1, 476812, Note_on_c, 0, 78, 59
1, 476876, Control_c, 0, 67, 102
1, 476916, Note_off_c, 0, 78, 60
1, 476942, Note_on_c, 0, 39, 55
1, 476948, Note_on_c, 0, 73, 59
1, 476948, Note_off_c, 0, 46, 36
1, 476986, Note_off_c, 0, 73, 59
1, 476999, Note_off_c, 0, 39, 46
1, 477124, Note_off_c, 0, 82, 63
1, 477127, Note_on_c, 0, 87, 90
1, 477146, Note_on_c, 0, 49, 51
1, 477184, Note_off_c, 0, 49, 61
1, 477280, Note_on_c, 0, 82, 67
1, 477280, Note_off_c, 0, 87, 63
1, 477285, Note_on_c, 0, 39, 53
1, 477321, Control_c, 0, 67, 101
1, 477351, Control_c, 0, 67, 101
1, 477380, Control_c, 0, 67, 100
1, 477395, Control_c, 0, 67, 100
1, 477422, Note_off_c, 0, 39, 37
1, 477433, Note_on_c, 0, 31, 53
1, 477442, Note_on_c, 0, 70, 61
1, 477469, Control_c, 0, 67, 100
1, 477526, Note_off_c, 0, 70, 57
1, 477587, Note_on_c, 0, 39, 47
1, 477592, Note_on_c, 0, 75, 52
1, 477604, Note_off_c, 0, 31, 41
1, 477610, Control_c, 0, 67, 99
1, 477625, Control_c, 0, 67, 98
1, 477640, Control_c, 0, 67, 97
1, 477654, Control_c, 0, 67, 96
1, 477669, Control_c, 0, 67, 95
1, 477699, Note_off_c, 0, 75, 0
1, 477699, Control_c, 0, 67, 94
1, 477729, Control_c, 0, 67, 94
1, 477736, Poly_aftertouch_c, 0, 75, 127
1, 477744, Control_c, 0, 67, 94
1, 477759, Control_c, 0, 67, 95
1, 477773, Control_c, 0, 67, 96
1, 477788, Control_c, 0, 67, 97
1, 477803, Control_c, 0, 67, 98
1, 477818, Control_c, 0, 64, 98
1, 477822, Note_on_c, 0, 87, 85
1, 477824, Note_on_c, 0, 49, 62
1, 477834, Control_c, 0, 64, 70
1, 477848, Control_c, 0, 64, 0
1, 477849, Note_off_c, 0, 82, 59
1, 477893, Control_c, 0, 67, 98
1, 477908, Control_c, 0, 67, 99
1, 477923, Control_c, 0, 67, 100
1, 477938, Control_c, 0, 64, 41
1, 477938, Control_c, 0, 67, 100
1, 477952, Control_c, 0, 64, 70
1, 477952, Control_c, 0, 67, 101
1, 477967, Control_c, 0, 64, 78
1, 477967, Control_c, 0, 67, 101
1, 477982, Control_c, 0, 64, 87
1, 477982, Control_c, 0, 67, 102
1, 477996, Control_c, 0, 64, 98
1, 477996, Control_c, 0, 67, 102
1, 478011, Control_c, 0, 64, 122
1, 478011, Control_c, 0, 67, 103
1, 478023, Note_off_c, 0, 49, 61
1, 478026, Control_c, 0, 64, 127
1, 478026, Control_c, 0, 67, 105
1, 478041, Control_c, 0, 67, 106
1, 478050, Note_on_c, 0, 82, 58
1, 478056, Control_c, 0, 67, 109
1, 478070, Control_c, 0, 67, 112
1, 478085, Control_c, 0, 67, 115
1, 478100, Control_c, 0, 67, 120
1, 478115, Control_c, 0, 67, 123
1, 478130, Control_c, 0, 67, 125
1, 478144, Control_c, 0, 67, 127
1, 478215, Note_on_c, 0, 32, 52
1, 478237, Note_off_c, 0, 39, 38
1, 478239, Note_on_c, 0, 85, 54
1, 478243, Note_off_c, 0, 82, 55
1, 478373, Note_on_c, 0, 39, 53
1, 478374, Note_off_c, 0, 32, 48
1, 478397, Note_on_c, 0, 80, 49
1, 478462, Poly_aftertouch_c, 0, 75, 0
1, 478492, Note_off_c, 0, 39, 58
1, 478535, Note_on_c, 0, 49, 55
1, 478551, Note_on_c, 0, 82, 59
1, 478564, Note_off_c, 0, 80, 52
1, 478571, Note_off_c, 0, 49, 63
1, 478693, Note_on_c, 0, 58, 60
1, 478700, Note_on_c, 0, 76, 46
1, 478721, Note_off_c, 0, 58, 65
1, 478858, Note_off_c, 0, 76, 37
1, 478865, Note_on_c, 0, 66, 44
1, 478870, Note_on_c, 0, 80, 52
1, 478892, Note_off_c, 0, 66, 57
1, 478999, Note_off_c, 0, 87, 49
1, 479046, Note_off_c, 0, 85, 33
1, 479058, Note_on_c, 0, 74, 53
1, 479225, Control_c, 0, 64, 99
1, 479236, Note_on_c, 0, 86, 66
1, 479240, Control_c, 0, 64, 72
1, 479241, Note_off_c, 0, 82, 58
1, 479245, Note_on_c, 0, 50, 46
1, 479255, Control_c, 0, 64, 0
1, 479265, Note_off_c, 0, 80, 49
1, 479373, Control_c, 0, 64, 49
1, 479388, Control_c, 0, 64, 65
1, 479393, Note_on_c, 0, 37, 45
1, 479403, Control_c, 0, 64, 71
1, 479407, Note_on_c, 0, 80, 50
1, 479419, Control_c, 0, 64, 79
1, 479434, Control_c, 0, 64, 88
1, 479443, Note_off_c, 0, 50, 39
1, 479448, Control_c, 0, 64, 99
1, 479463, Control_c, 0, 64, 114
1, 479478, Control_c, 0, 64, 127
1, 479539, Note_off_c, 0, 80, 56
1, 479562, Note_on_c, 0, 44, 54
1, 479569, Note_on_c, 0, 83, 50
1, 479573, Note_off_c, 0, 37, 43
1, 479684, Note_off_c, 0, 44, 55
1, 479716, Note_on_c, 0, 47, 48
1, 479716, Note_on_c, 0, 78, 54
1, 479761, Note_off_c, 0, 74, 35
1, 479853, Note_off_c, 0, 47, 37
1, 479873, Note_on_c, 0, 54, 50
1, 479879, Note_off_c, 0, 83, 51
1, 479888, Note_on_c, 0, 80, 55
1, 479892, Note_off_c, 0, 86, 44
1, 479926, Note_off_c, 0, 54, 59
1, 479969, Note_off_c, 0, 78, 38
1, 479985, Note_off_c, 0, 80, 62
1, 480004, Control_c, 0, 67, 125
1, 480019, Control_c, 0, 67, 123
1, 480025, Note_on_c, 0, 74, 59
1, 480027, Note_on_c, 0, 59, 49
1, 480033, Control_c, 0, 67, 120
1, 480048, Control_c, 0, 67, 117
1, 480063, Control_c, 0, 67, 113
1, 480078, Control_c, 0, 67, 109
1, 480093, Control_c, 0, 67, 104
1, 480108, Control_c, 0, 67, 100
1, 480122, Control_c, 0, 67, 96
1, 480129, Note_off_c, 0, 74, 62
1, 480137, Control_c, 0, 67, 92
1, 480140, Note_off_c, 0, 59, 59
1, 480152, Control_c, 0, 67, 89
1, 480167, Control_c, 0, 67, 85
1, 480177, Note_on_c, 0, 78, 68
1, 480181, Control_c, 0, 67, 81
1, 480191, Note_on_c, 0, 60, 53
1, 480196, Control_c, 0, 67, 78
1, 480211, Control_c, 0, 67, 74
1, 480227, Note_off_c, 0, 60, 63
1, 480227, Control_c, 0, 67, 71
1, 480242, Control_c, 0, 67, 68
1, 480257, Control_c, 0, 67, 64
1, 480271, Control_c, 0, 67, 60
1, 480272, Note_off_c, 0, 78, 62
1, 480286, Control_c, 0, 67, 56
1, 480301, Control_c, 0, 67, 52
1, 480316, Control_c, 0, 67, 48
1, 480323, Note_on_c, 0, 66, 62
1, 480331, Control_c, 0, 67, 44
1, 480344, Note_off_c, 0, 66, 62
1, 480345, Control_c, 0, 67, 40
1, 480360, Control_c, 0, 67, 37
1, 480375, Control_c, 0, 67, 33
1, 480389, Control_c, 0, 67, 30
1, 480404, Control_c, 0, 67, 28
1, 480419, Control_c, 0, 67, 28
1, 480449, Control_c, 0, 67, 27
1, 480463, Control_c, 0, 64, 102
1, 480463, Control_c, 0, 67, 27
1, 480478, Control_c, 0, 64, 69
1, 480478, Control_c, 0, 67, 26
1, 480481, Note_on_c, 0, 61, 98
1, 480484, Note_on_c, 0, 54, 89
1, 480488, Note_on_c, 0, 57, 85
1, 480493, Control_c, 0, 64, 0
1, 480493, Control_c, 0, 67, 25
1, 480508, Control_c, 0, 64, 27
1, 480508, Control_c, 0, 67, 23
1, 480523, Control_c, 0, 64, 68
1, 480523, Control_c, 0, 67, 18
1, 480537, Control_c, 0, 64, 84
1, 480537, Control_c, 0, 67, 12
1, 480552, Control_c, 0, 64, 127
1, 480552, Control_c, 0, 67, 0
1, 480599, Note_off_c, 0, 54, 63
1, 480600, Note_off_c, 0, 61, 63
1, 480606, Note_off_c, 0, 57, 61
1, 480648, Note_on_c, 0, 54, 86
1, 480648, Note_on_c, 0, 61, 86
1, 480649, Note_on_c, 0, 57, 73
1, 480735, Note_off_c, 0, 61, 59
1, 480740, Note_off_c, 0, 54, 64
1, 480743, Note_off_c, 0, 57, 58
1, 480791, Note_on_c, 0, 57, 80
1, 480791, Note_on_c, 0, 61, 93
1, 480792, Note_on_c, 0, 54, 80
1, 481015, Note_off_c, 0, 54, 59
1, 481023, Note_off_c, 0, 61, 58
1, 481031, Note_off_c, 0, 57, 58
1, 481095, Note_on_c, 0, 38, 114
1, 481100, Note_on_c, 0, 61, 88
1, 481102, Note_on_c, 0, 57, 77
1, 481108, Note_on_c, 0, 54, 76
1, 481131, Note_off_c, 0, 38, 68
1, 481227, Note_off_c, 0, 54, 56
1, 481252, Note_off_c, 0, 57, 51
1, 481278, Note_off_c, 0, 61, 38
1, 481420, Note_on_c, 0, 61, 95
1, 481425, Note_on_c, 0, 54, 87
1, 481426, Note_on_c, 0, 57, 84
1, 481567, Note_off_c, 0, 54, 62
1, 481587, Note_off_c, 0, 57, 57
1, 481598, Note_off_c, 0, 61, 55
1, 481706, Note_on_c, 0, 85, 110
1, 481709, Note_on_c, 0, 61, 95
1, 481709, Note_on_c, 0, 73, 114
1, 481714, Note_on_c, 0, 57, 81
1, 481715, Note_on_c, 0, 54, 85
1, 482004, Note_off_c, 0, 61, 53
1, 482007, Note_off_c, 0, 57, 52
1, 482016, Note_off_c, 0, 54, 56
1, 482075, Note_on_c, 0, 61, 99
1, 482080, Note_on_c, 0, 57, 90
1, 482092, Note_on_c, 0, 54, 85
1, 482426, Note_off_c, 0, 85, 59
1, 482449, Note_off_c, 0, 73, 58
1, 482525, Note_off_c, 0, 54, 53
1, 482559, Note_off_c, 0, 61, 57
1, 482567, Note_off_c, 0, 57, 54
1, 482670, Note_on_c, 0, 61, 85
1, 482677, Note_on_c, 0, 57, 68
1, 482678, Note_on_c, 0, 54, 67
1, 482787, Note_off_c, 0, 54, 59
1, 482791, Note_off_c, 0, 57, 58
1, 482807, Note_on_c, 0, 49, 98
1, 482971, Note_on_c, 0, 43, 100
1, 482976, Note_on_c, 0, 60, 91
1, 482978, Note_on_c, 0, 56, 85
1, 482986, Note_on_c, 0, 53, 77
1, 482993, Note_off_c, 0, 49, 64
1, 482999, Control_c, 0, 64, 102
1, 483004, Note_off_c, 0, 61, 64
1, 483014, Control_c, 0, 64, 68
1, 483029, Control_c, 0, 64, 0
1, 483046, Note_off_c, 0, 60, 61
1, 483055, Note_off_c, 0, 53, 58
1, 483056, Note_off_c, 0, 56, 63
1, 483062, Note_off_c, 0, 43, 65
1, 483116, Note_on_c, 0, 60, 78
1, 483126, Note_on_c, 0, 53, 61
1, 483127, Note_on_c, 0, 56, 66
1, 483298, Note_on_c, 0, 43, 82
1, 483451, Note_on_c, 0, 44, 77
1, 483488, Note_off_c, 0, 43, 62
1, 483611, Note_on_c, 0, 43, 73
1, 483644, Note_off_c, 0, 56, 58
1, 483649, Note_off_c, 0, 53, 60
1, 483654, Note_off_c, 0, 44, 60
1, 483655, Note_off_c, 0, 60, 57
1, 483752, Note_on_c, 0, 56, 64
1, 483765, Note_on_c, 0, 60, 61
1, 483770, Note_on_c, 0, 53, 61
1, 483812, Note_off_c, 0, 60, 53
1, 483816, Note_off_c, 0, 56, 61
1, 483820, Note_off_c, 0, 53, 58
1, 483917, Note_on_c, 0, 60, 64
1, 483921, Note_on_c, 0, 56, 63
1, 483923, Note_on_c, 0, 53, 60
1, 484062, Note_on_c, 0, 44, 75
1, 484077, Note_off_c, 0, 43, 61
1, 484199, Note_off_c, 0, 44, 64
1, 484217, Note_on_c, 0, 43, 73
1, 484283, Control_c, 0, 64, 47
1, 484298, Control_c, 0, 64, 59
1, 484312, Control_c, 0, 64, 65
1, 484327, Control_c, 0, 64, 69
1, 484350, Control_c, 0, 64, 73
1, 484364, Control_c, 0, 64, 79
1, 484379, Control_c, 0, 64, 85
1, 484380, Note_on_c, 0, 50, 77
1, 484392, Note_off_c, 0, 43, 61
1, 484394, Control_c, 0, 64, 92
1, 484402, Note_off_c, 0, 56, 59
1, 484409, Control_c, 0, 64, 98
1, 484411, Note_off_c, 0, 53, 60
1, 484424, Control_c, 0, 64, 101
1, 484429, Note_off_c, 0, 60, 55
1, 484438, Control_c, 0, 64, 102
1, 484453, Control_c, 0, 64, 103
1, 484468, Control_c, 0, 64, 103
1, 484483, Control_c, 0, 64, 104
1, 484498, Control_c, 0, 64, 105
1, 484512, Control_c, 0, 64, 105
1, 484526, Note_on_c, 0, 56, 64
1, 484533, Note_on_c, 0, 60, 71
1, 484535, Note_on_c, 0, 53, 61
1, 484537, Note_on_c, 0, 43, 80
1, 484557, Control_c, 0, 64, 105
1, 484570, Note_off_c, 0, 50, 59
1, 484571, Control_c, 0, 64, 97
1, 484586, Control_c, 0, 64, 81
1, 484601, Control_c, 0, 64, 61
1, 484616, Control_c, 0, 64, 0
1, 484673, Note_on_c, 0, 50, 78
1, 484703, Note_off_c, 0, 43, 63
1, 484719, Control_c, 0, 64, 60
1, 484734, Control_c, 0, 64, 70
1, 484749, Control_c, 0, 64, 79
1, 484764, Control_c, 0, 64, 91
1, 484779, Control_c, 0, 64, 110
1, 484794, Control_c, 0, 64, 127
1, 484833, Note_off_c, 0, 50, 66
1, 484836, Note_on_c, 0, 55, 81
1, 484860, Note_off_c, 0, 55, 68
1, 484874, Note_off_c, 0, 56, 64
1, 484882, Note_off_c, 0, 53, 62
1, 484916, Note_off_c, 0, 60, 50
1, 484932, Poly_aftertouch_c, 0, 54, 0
1, 484979, Note_on_c, 0, 62, 84
1, 485144, Note_on_c, 0, 56, 75
1, 485147, Note_on_c, 0, 60, 75
1, 485147, Note_on_c, 0, 67, 99
1, 485150, Note_on_c, 0, 53, 70
1, 485173, Control_c, 0, 64, 97
1, 485180, Note_off_c, 0, 62, 59
1, 485187, Control_c, 0, 64, 70
1, 485202, Control_c, 0, 64, 0
1, 485217, Control_c, 0, 64, 35
1, 485232, Control_c, 0, 64, 65
1, 485247, Control_c, 0, 64, 74
1, 485261, Control_c, 0, 64, 92
1, 485276, Control_c, 0, 64, 127
1, 485290, Note_off_c, 0, 53, 61
1, 485292, Note_on_c, 0, 74, 109
1, 485306, Note_off_c, 0, 67, 66
1, 485306, Note_off_c, 0, 56, 62
1, 485361, Note_off_c, 0, 74, 62
1, 485406, Note_off_c, 0, 60, 61
1, 485498, Note_on_c, 0, 79, 105
1, 485499, Note_on_c, 0, 59, 89
1, 485505, Note_on_c, 0, 52, 76
1, 485506, Note_on_c, 0, 55, 78
1, 485527, Control_c, 0, 64, 98
1, 485542, Control_c, 0, 64, 68
1, 485557, Control_c, 0, 64, 0
1, 485602, Control_c, 0, 64, 63
1, 485608, Note_off_c, 0, 59, 62
1, 485614, Note_off_c, 0, 55, 63
1, 485617, Control_c, 0, 64, 75
1, 485617, Note_off_c, 0, 52, 61
1, 485632, Control_c, 0, 64, 97
1, 485646, Control_c, 0, 64, 127
1, 485658, Note_on_c, 0, 59, 91
1, 485662, Note_on_c, 0, 52, 70
1, 485662, Note_on_c, 0, 55, 75
1, 485837, Note_on_c, 0, 67, 101
1, 485847, Control_c, 0, 64, 109
1, 485862, Control_c, 0, 64, 73
1, 485877, Control_c, 0, 64, 0
1, 485965, Control_c, 0, 64, 64
1, 485980, Control_c, 0, 64, 81
1, 485983, Note_off_c, 0, 79, 61
1, 485995, Control_c, 0, 64, 127
1, 486163, Note_on_c, 0, 79, 103
1, 486221, Note_off_c, 0, 55, 55
1, 486228, Note_off_c, 0, 52, 57
1, 486228, Note_off_c, 0, 59, 53
1, 486290, Note_off_c, 0, 67, 58
1, 486313, Note_on_c, 0, 59, 86
1, 486316, Note_on_c, 0, 55, 81
1, 486320, Note_on_c, 0, 52, 75
1, 486356, Note_off_c, 0, 79, 59
1, 486387, Note_off_c, 0, 59, 59
1, 486395, Note_off_c, 0, 52, 59
1, 486397, Note_off_c, 0, 55, 63
1, 486466, Note_on_c, 0, 55, 77
1, 486466, Note_on_c, 0, 59, 87
1, 486470, Note_on_c, 0, 52, 73
1, 486610, Note_on_c, 0, 84, 110
1, 486613, Note_on_c, 0, 72, 109
1, 486738, Note_off_c, 0, 72, 58
1, 486740, Note_off_c, 0, 84, 59
1, 486804, Note_on_c, 0, 83, 103
1, 486807, Note_on_c, 0, 71, 100
1, 486877, Control_c, 0, 64, 92
1, 486892, Control_c, 0, 64, 58
1, 486906, Control_c, 0, 64, 0
1, 486965, Control_c, 0, 64, 63
1, 486980, Control_c, 0, 64, 79
1, 486995, Control_c, 0, 64, 120
1, 487010, Control_c, 0, 64, 127
1, 487128, Note_off_c, 0, 59, 61
1, 487134, Note_off_c, 0, 55, 63
1, 487142, Note_off_c, 0, 52, 60
1, 487199, Note_on_c, 0, 52, 79
1, 487200, Note_on_c, 0, 59, 90
1, 487201, Note_on_c, 0, 55, 83
1, 487531, Note_off_c, 0, 83, 59
1, 487600, Note_off_c, 0, 71, 60
1, 487618, Note_off_c, 0, 59, 56
1, 487621, Note_off_c, 0, 55, 55
1, 487656, Note_off_c, 0, 52, 56
1, 487797, Note_on_c, 0, 55, 75
1, 487800, Note_on_c, 0, 59, 86
1, 487805, Note_on_c, 0, 52, 77
1, 487909, Note_off_c, 0, 52, 60
1, 487912, Note_off_c, 0, 55, 64
1, 487936, Note_on_c, 0, 65, 105
1, 488156, Note_off_c, 0, 59, 56
1, 488187, Note_on_c, 0, 58, 96
1, 488190, Note_on_c, 0, 51, 89
1, 488192, Note_on_c, 0, 54, 86
1, 488196, Note_on_c, 0, 77, 102
1, 488212, Control_c, 0, 64, 80
1, 488227, Control_c, 0, 64, 0
1, 488316, Control_c, 0, 64, 46
1, 488330, Control_c, 0, 64, 68
1, 488345, Control_c, 0, 64, 83
1, 488357, Note_off_c, 0, 51, 60
1, 488360, Control_c, 0, 64, 127
1, 488366, Note_off_c, 0, 58, 61
1, 488368, Note_off_c, 0, 54, 63
1, 488427, Note_on_c, 0, 58, 96
1, 488430, Note_on_c, 0, 54, 89
1, 488433, Note_on_c, 0, 51, 84
1, 488446, Note_off_c, 0, 65, 53
1, 488612, Note_on_c, 0, 65, 103
1, 488697, Note_off_c, 0, 77, 54
1, 488776, Note_on_c, 0, 78, 102
1, 488886, Note_off_c, 0, 78, 63
1, 488946, Note_on_c, 0, 77, 101
1, 488974, Note_on_c, 0, 78, 59
1, 488997, Note_off_c, 0, 78, 61
1, 489021, Note_off_c, 0, 51, 58
1, 489024, Note_off_c, 0, 54, 59
1, 489026, Note_off_c, 0, 58, 59
1, 489095, Note_on_c, 0, 58, 89
1, 489102, Note_on_c, 0, 54, 81
1, 489105, Note_on_c, 0, 51, 76
1, 489183, Note_off_c, 0, 54, 63
1, 489188, Note_off_c, 0, 51, 61
1, 489188, Note_off_c, 0, 58, 61
1, 489247, Note_on_c, 0, 58, 84
1, 489253, Note_on_c, 0, 51, 73
1, 489256, Note_on_c, 0, 54, 81
1, 489396, Note_on_c, 0, 78, 97
1, 489420, Note_off_c, 0, 77, 56
1, 489507, Note_off_c, 0, 78, 62
1, 489563, Note_on_c, 0, 77, 98
1, 489716, Note_on_c, 0, 72, 95
1, 489746, Note_off_c, 0, 65, 57
1, 489763, Note_off_c, 0, 58, 53
1, 489764, Note_off_c, 0, 77, 52
1, 489779, Note_off_c, 0, 54, 56
1, 489795, Note_off_c, 0, 51, 48
1, 489864, Note_on_c, 0, 58, 82
1, 489866, Note_on_c, 0, 65, 92
1, 489870, Note_on_c, 0, 51, 63
1, 489874, Note_on_c, 0, 54, 78
1, 490011, Note_off_c, 0, 65, 59
1, 490017, Note_on_c, 0, 77, 97
1, 490091, Note_off_c, 0, 58, 54
1, 490139, Note_off_c, 0, 77, 60
1, 490143, Note_off_c, 0, 51, 50
1, 490148, Note_off_c, 0, 54, 58
1, 490159, Note_off_c, 0, 72, 64
1, 490161, Note_on_c, 0, 65, 92
1, 490204, Note_off_c, 0, 65, 66
1, 490298, Note_on_c, 0, 60, 89
1, 490465, Note_on_c, 0, 58, 84
1, 490466, Note_on_c, 0, 51, 76
1, 490467, Note_on_c, 0, 53, 98
1, 490477, Note_on_c, 0, 54, 67
1, 490491, Note_off_c, 0, 60, 62
1, 490516, Note_off_c, 0, 54, 62
1, 490519, Note_off_c, 0, 51, 62
1, 490523, Note_off_c, 0, 58, 60
1, 490611, Note_on_c, 0, 48, 89
1, 490622, Note_off_c, 0, 53, 66
1, 490728, Note_off_c, 0, 48, 63
1, 490802, Note_on_c, 0, 43, 91
1, 490803, Note_on_c, 0, 50, 81
1, 490803, Note_on_c, 0, 57, 82
1, 490806, Note_on_c, 0, 53, 80
1, 490828, Control_c, 0, 64, 93
1, 490843, Control_c, 0, 64, 68
1, 490858, Control_c, 0, 64, 0
1, 490882, Note_off_c, 0, 50, 61
1, 490898, Note_off_c, 0, 57, 60
1, 490902, Control_c, 0, 64, 53
1, 490909, Note_off_c, 0, 53, 65
1, 490917, Control_c, 0, 64, 66
1, 490932, Control_c, 0, 64, 75
1, 490947, Control_c, 0, 64, 86
1, 490951, Poly_aftertouch_c, 0, 53, 0
1, 490958, Note_on_c, 0, 57, 78
1, 490959, Note_on_c, 0, 53, 60
1, 490960, Note_on_c, 0, 50, 79
1, 490961, Control_c, 0, 64, 107
1, 490976, Control_c, 0, 64, 127
1, 491117, Control_c, 0, 64, 114
1, 491122, Note_on_c, 0, 38, 95
1, 491131, Control_c, 0, 64, 83
1, 491146, Control_c, 0, 64, 63
1, 491161, Control_c, 0, 64, 0
1, 491176, Control_c, 0, 64, 28
1, 491191, Control_c, 0, 64, 63
1, 491206, Control_c, 0, 64, 71
1, 491221, Control_c, 0, 64, 82
1, 491236, Control_c, 0, 64, 100
1, 491239, Note_off_c, 0, 43, 57
1, 491251, Control_c, 0, 64, 127
1, 491444, Control_c, 0, 64, 88
1, 491459, Control_c, 0, 64, 64
1, 491462, Note_on_c, 0, 43, 97
1, 491474, Control_c, 0, 64, 0
1, 491507, Note_off_c, 0, 38, 63
1, 491518, Control_c, 0, 64, 56
1, 491533, Control_c, 0, 64, 73
1, 491542, Note_off_c, 0, 50, 56
1, 491547, Control_c, 0, 64, 89
1, 491549, Note_off_c, 0, 57, 53
1, 491562, Control_c, 0, 64, 127
1, 491587, Note_off_c, 0, 53, 44
1, 491614, Note_off_c, 0, 43, 64
1, 491629, Note_on_c, 0, 57, 83
1, 491635, Note_on_c, 0, 50, 71
1, 491644, Note_on_c, 0, 53, 62
1, 491688, Note_off_c, 0, 50, 44
1, 491719, Note_off_c, 0, 57, 57
1, 491732, Note_off_c, 0, 53, 64
1, 491796, Note_on_c, 0, 50, 84
1, 491796, Note_on_c, 0, 57, 88
1, 491799, Note_on_c, 0, 53, 76
1, 491930, Note_on_c, 0, 82, 105
1, 491936, Note_on_c, 0, 70, 107
1, 492006, Note_off_c, 0, 70, 59
1, 492021, Note_off_c, 0, 82, 65
1, 492124, Note_on_c, 0, 81, 104
1, 492126, Note_on_c, 0, 69, 109
1, 492162, Control_c, 0, 64, 81
1, 492177, Control_c, 0, 64, 0
1, 492267, Control_c, 0, 64, 67
1, 492282, Control_c, 0, 64, 87
1, 492297, Control_c, 0, 64, 127
1, 492404, Note_off_c, 0, 50, 61
1, 492419, Note_off_c, 0, 57, 53
1, 492422, Note_off_c, 0, 53, 62
1, 492481, Note_on_c, 0, 57, 92
1, 492485, Note_on_c, 0, 50, 88
1, 492488, Note_on_c, 0, 53, 83
1, 492683, Note_off_c, 0, 81, 56
1, 492719, Note_off_c, 0, 69, 57
1, 492935, Note_off_c, 0, 57, 47
1, 492937, Note_off_c, 0, 53, 61
1, 492941, Note_off_c, 0, 50, 54
1, 493094, Note_on_c, 0, 53, 85
1, 493095, Note_on_c, 0, 57, 86
1, 493096, Note_on_c, 0, 50, 81
1, 493188, Note_off_c, 0, 50, 61
1, 493199, Note_off_c, 0, 53, 65
1, 493239, Note_on_c, 0, 38, 94
1, 493242, Note_on_c, 0, 36, 96
1, 493394, Note_off_c, 0, 36, 49
1, 493429, Note_off_c, 0, 57, 40
1, 493444, Note_off_c, 0, 38, 59
1, 493490, Note_on_c, 0, 56, 94
1, 493492, Note_on_c, 0, 37, 97
1, 493494, Note_on_c, 0, 49, 87
1, 493494, Note_on_c, 0, 52, 87
1, 493541, Control_c, 0, 64, 78
1, 493556, Control_c, 0, 64, 0
1, 493611, Note_off_c, 0, 49, 62
1, 493630, Control_c, 0, 64, 58
1, 493635, Note_off_c, 0, 56, 61
1, 493636, Note_off_c, 0, 52, 58
1, 493644, Control_c, 0, 64, 70
1, 493659, Control_c, 0, 64, 82
1, 493674, Control_c, 0, 64, 101
1, 493689, Note_on_c, 0, 56, 89
1, 493689, Control_c, 0, 64, 127
1, 493694, Note_on_c, 0, 52, 80
1, 493698, Note_on_c, 0, 49, 88
1, 493749, Control_c, 0, 64, 111
1, 493763, Control_c, 0, 64, 84
1, 493778, Control_c, 0, 64, 67
1, 493794, Control_c, 0, 64, 40
1, 493809, Control_c, 0, 64, 30
1, 493823, Control_c, 0, 64, 59
1, 493838, Control_c, 0, 64, 66
1, 493853, Control_c, 0, 64, 71
1, 493883, Control_c, 0, 64, 66
1, 493898, Control_c, 0, 64, 60
1, 493913, Control_c, 0, 64, 47
1, 493927, Control_c, 0, 64, 39
1, 493942, Control_c, 0, 64, 35
1, 493957, Control_c, 0, 64, 0
1, 494011, Note_on_c, 0, 38, 90
1, 494012, Note_off_c, 0, 37, 66
1, 494046, Control_c, 0, 64, 36
1, 494061, Control_c, 0, 64, 63
1, 494082, Control_c, 0, 64, 69
1, 494097, Control_c, 0, 64, 73
1, 494112, Control_c, 0, 64, 76
1, 494142, Control_c, 0, 64, 74
1, 494157, Control_c, 0, 64, 67
1, 494172, Control_c, 0, 64, 29
1, 494176, Note_on_c, 0, 37, 95
1, 494187, Control_c, 0, 64, 0
1, 494210, Note_off_c, 0, 38, 62
1, 494245, Note_off_c, 0, 49, 57
1, 494263, Note_off_c, 0, 52, 58
1, 494266, Note_off_c, 0, 56, 59
1, 494275, Control_c, 0, 64, 50
1, 494290, Control_c, 0, 64, 69
1, 494305, Control_c, 0, 64, 81
1, 494320, Control_c, 0, 64, 93
1, 494333, Note_on_c, 0, 56, 84
1, 494335, Control_c, 0, 64, 104
1, 494337, Note_on_c, 0, 49, 81
1, 494339, Note_on_c, 0, 52, 78
1, 494349, Control_c, 0, 64, 109
1, 494364, Control_c, 0, 64, 110
1, 494379, Control_c, 0, 64, 115
1, 494394, Control_c, 0, 64, 127
1, 494424, Note_off_c, 0, 49, 60
1, 494431, Note_off_c, 0, 56, 63
1, 494431, Note_off_c, 0, 52, 60
1, 494488, Note_on_c, 0, 56, 83
1, 494490, Note_on_c, 0, 49, 78
1, 494491, Note_on_c, 0, 52, 75
1, 494602, Control_c, 0, 64, 94
1, 494617, Control_c, 0, 64, 71
1, 494632, Control_c, 0, 64, 0
1, 494637, Note_on_c, 0, 38, 89
1, 494662, Note_off_c, 0, 37, 63
1, 494750, Control_c, 0, 64, 54
1, 494765, Control_c, 0, 64, 68
1, 494780, Control_c, 0, 64, 77
1, 494795, Control_c, 0, 64, 87
1, 494810, Control_c, 0, 64, 98
1, 494816, Note_on_c, 0, 37, 94
1, 494832, Control_c, 0, 64, 111
1, 494846, Control_c, 0, 64, 127
1, 494853, Note_off_c, 0, 38, 63
1, 494977, Note_on_c, 0, 38, 91
1, 494995, Note_off_c, 0, 37, 62
1, 495041, Note_off_c, 0, 52, 59
1, 495045, Note_off_c, 0, 49, 54
1, 495048, Note_off_c, 0, 56, 58
1, 495130, Note_on_c, 0, 37, 93
1, 495130, Note_on_c, 0, 56, 92
1, 495135, Note_on_c, 0, 52, 85
1, 495135, Note_on_c, 0, 49, 81
1, 495161, Note_off_c, 0, 38, 63
1, 495187, Control_c, 0, 64, 95
1, 495202, Control_c, 0, 64, 69
1, 495217, Control_c, 0, 64, 0
1, 495261, Control_c, 0, 64, 17
1, 495276, Control_c, 0, 64, 64
1, 495288, Note_on_c, 0, 38, 89
1, 495291, Control_c, 0, 64, 75
1, 495305, Control_c, 0, 64, 90
1, 495308, Note_off_c, 0, 37, 59
1, 495320, Control_c, 0, 64, 127
1, 495365, Control_c, 0, 64, 105
1, 495379, Control_c, 0, 64, 83
1, 495395, Control_c, 0, 64, 72
1, 495410, Control_c, 0, 64, 70
1, 495425, Control_c, 0, 64, 77
1, 495440, Control_c, 0, 64, 90
1, 495455, Control_c, 0, 64, 127
1, 495459, Note_on_c, 0, 37, 92
1, 495489, Note_off_c, 0, 38, 63
1, 495632, Note_on_c, 0, 38, 91
1, 495642, Note_off_c, 0, 56, 55
1, 495656, Note_off_c, 0, 37, 61
1, 495666, Note_off_c, 0, 52, 49
1, 495707, Note_off_c, 0, 49, 34
1, 495796, Note_on_c, 0, 56, 93
1, 495801, Note_on_c, 0, 37, 94
1, 495801, Note_on_c, 0, 52, 82
1, 495802, Note_on_c, 0, 49, 83
1, 495829, Note_off_c, 0, 38, 62
1, 495890, Note_off_c, 0, 52, 61
1, 495900, Note_off_c, 0, 37, 61
1, 495904, Note_on_c, 0, 38, 84
1, 495909, Note_off_c, 0, 49, 63
1, 495941, Note_off_c, 0, 56, 58
1, 495997, Note_on_c, 0, 37, 91
1, 496038, Note_off_c, 0, 38, 60
1, 496092, Note_off_c, 0, 37, 63
1, 496104, Poly_aftertouch_c, 0, 51, 127
1, 496141, Poly_aftertouch_c, 0, 51, 0
1, 496154, Note_on_c, 0, 51, 79
1, 496155, Note_on_c, 0, 55, 93
1, 496157, Note_on_c, 0, 48, 91
1, 496159, Control_c, 0, 64, 95
1, 496166, Note_on_c, 0, 36, 107
1, 496174, Control_c, 0, 64, 65
1, 496190, Control_c, 0, 64, 0
1, 496293, Control_c, 0, 64, 59
1, 496308, Control_c, 0, 64, 86
1, 496330, Control_c, 0, 64, 127
1, 496351, Note_off_c, 0, 36, 66
1, 496425, Note_off_c, 0, 48, 51
1, 496427, Note_off_c, 0, 55, 51
1, 496462, Note_off_c, 0, 51, 37
1, 496534, Note_on_c, 0, 48, 92
1, 496535, Note_on_c, 0, 55, 98
1, 496540, Note_on_c, 0, 51, 94
1, 496693, Note_on_c, 0, 91, 107
1, 496694, Note_on_c, 0, 79, 102
1, 496723, Note_off_c, 0, 91, 73
1, 496727, Note_off_c, 0, 79, 69
1, 496898, Note_on_c, 0, 67, 108
1, 496900, Note_on_c, 0, 79, 100
1, 496930, Note_off_c, 0, 79, 71
1, 496931, Note_off_c, 0, 67, 69
1, 497081, Note_off_c, 0, 51, 55
1, 497097, Note_off_c, 0, 48, 52
1, 497124, Note_off_c, 0, 55, 49
1, 497248, Note_on_c, 0, 55, 96
1, 497250, Note_on_c, 0, 51, 94
1, 497251, Note_on_c, 0, 48, 86
1, 497391, Poly_aftertouch_c, 0, 42, 127
1, 497427, Poly_aftertouch_c, 0, 42, 0
1, 497579, Note_on_c, 0, 43, 109
1, 497608, Note_on_c, 0, 36, 69
1, 497628, Note_off_c, 0, 43, 66
1, 497633, Note_off_c, 0, 36, 58
1, 497802, Note_off_c, 0, 48, 53
1, 497810, Note_off_c, 0, 55, 53
1, 497832, Note_off_c, 0, 51, 56
1, 497960, Note_on_c, 0, 55, 91
1, 497961, Note_on_c, 0, 51, 85
1, 497962, Note_on_c, 0, 48, 82
1, 498303, Note_on_c, 0, 39, 109
1, 498339, Note_off_c, 0, 39, 68
1, 498480, Note_off_c, 0, 48, 55
1, 498492, Note_off_c, 0, 55, 55
1, 498536, Note_off_c, 0, 51, 54
1, 498661, Note_on_c, 0, 51, 85
1, 498662, Note_on_c, 0, 55, 87
1, 498663, Note_on_c, 0, 48, 87
1, 498801, Note_off_c, 0, 48, 58
1, 498826, Note_off_c, 0, 55, 44
1, 498998, Note_off_c, 0, 51, 64
1, 499039, Note_on_c, 0, 53, 91
1, 499040, Note_on_c, 0, 34, 103
1, 499042, Note_on_c, 0, 49, 94
1, 499043, Note_on_c, 0, 55, 95
1, 499065, Control_c, 0, 64, 99
1, 499080, Control_c, 0, 64, 68
1, 499095, Control_c, 0, 64, 0
1, 499169, Control_c, 0, 64, 29
1, 499184, Control_c, 0, 64, 68
1, 499199, Control_c, 0, 64, 84
1, 499213, Control_c, 0, 64, 127
1, 499321, Note_off_c, 0, 34, 57
1, 499331, Note_on_c, 0, 35, 69
1, 499341, Note_off_c, 0, 55, 56
1, 499347, Note_off_c, 0, 53, 63
1, 499353, Note_off_c, 0, 49, 62
1, 499410, Note_off_c, 0, 35, 56
1, 499411, Note_on_c, 0, 34, 74
1, 499424, Note_on_c, 0, 55, 85
1, 499426, Note_on_c, 0, 49, 88
1, 499429, Note_on_c, 0, 53, 85
1, 499459, Note_off_c, 0, 34, 58
1, 499493, Note_on_c, 0, 35, 59
1, 499554, Note_off_c, 0, 35, 61
1, 499555, Note_on_c, 0, 34, 76
1, 499591, Note_off_c, 0, 34, 57
1, 499631, Note_on_c, 0, 35, 62
1, 499685, Note_on_c, 0, 34, 79
1, 499692, Note_off_c, 0, 35, 59
1, 499697, Note_off_c, 0, 53, 63
1, 499697, Note_off_c, 0, 55, 58
1, 499707, Note_off_c, 0, 49, 60
1, 499720, Note_off_c, 0, 34, 59
1, 499762, Note_on_c, 0, 35, 62
1, 499787, Note_on_c, 0, 49, 84
1, 499788, Note_on_c, 0, 55, 84
1, 499791, Note_on_c, 0, 53, 85
1, 499813, Note_on_c, 0, 34, 78
1, 499832, Note_off_c, 0, 35, 55
1, 499856, Note_off_c, 0, 34, 57
1, 499878, Note_on_c, 0, 35, 51
1, 499941, Note_on_c, 0, 34, 80
1, 499944, Note_off_c, 0, 35, 62
1, 499980, Note_off_c, 0, 34, 56
1, 500008, Note_on_c, 0, 35, 70
1, 500029, Note_off_c, 0, 53, 58
1, 500031, Note_off_c, 0, 55, 57
1, 500039, Note_off_c, 0, 49, 61
1, 500071, Note_on_c, 0, 34, 85
1, 500083, Note_off_c, 0, 35, 63
1, 500115, Note_off_c, 0, 34, 60
1, 500139, Note_on_c, 0, 49, 93
1, 500140, Note_on_c, 0, 55, 91
1, 500143, Note_on_c, 0, 53, 89
1, 500145, Note_on_c, 0, 35, 70
1, 500209, Note_on_c, 0, 34, 84
1, 500222, Note_off_c, 0, 35, 62
1, 500258, Note_off_c, 0, 34, 57
1, 500289, Note_on_c, 0, 35, 69
1, 500343, Note_on_c, 0, 34, 85
1, 500361, Note_off_c, 0, 35, 62
1, 500396, Note_off_c, 0, 34, 57
1, 500408, Note_off_c, 0, 53, 60
1, 500412, Note_on_c, 0, 35, 63
1, 500421, Note_off_c, 0, 55, 59
1, 500423, Note_off_c, 0, 49, 60
1, 500477, Note_on_c, 0, 34, 87
1, 500495, Note_off_c, 0, 35, 62
1, 500499, Note_on_c, 0, 49, 97
1, 500501, Note_on_c, 0, 55, 92
1, 500503, Note_on_c, 0, 53, 91
1, 500542, Note_off_c, 0, 34, 57
1, 500548, Note_on_c, 0, 35, 65
1, 500620, Note_on_c, 0, 34, 85
1, 500631, Note_off_c, 0, 35, 62
1, 500670, Note_off_c, 0, 34, 55
1, 500693, Note_on_c, 0, 35, 65
1, 500754, Note_on_c, 0, 34, 85
1, 500767, Note_off_c, 0, 35, 63
1, 500812, Note_off_c, 0, 53, 61
1, 500814, Note_off_c, 0, 34, 56
1, 500816, Note_off_c, 0, 55, 58
1, 500818, Note_off_c, 0, 49, 63
1, 500836, Note_on_c, 0, 35, 67
1, 500885, Note_on_c, 0, 49, 99
1, 500885, Note_on_c, 0, 55, 96
1, 500888, Note_on_c, 0, 53, 99
1, 500897, Note_on_c, 0, 34, 88
1, 500915, Note_off_c, 0, 35, 63
1, 500956, Note_off_c, 0, 34, 58
1, 500966, Note_on_c, 0, 35, 65
1, 501035, Note_on_c, 0, 34, 86
1, 501050, Note_off_c, 0, 35, 63
1, 501093, Note_off_c, 0, 34, 58
1, 501101, Note_on_c, 0, 35, 67
1, 501166, Note_on_c, 0, 34, 86
1, 501176, Note_off_c, 0, 35, 64
1, 501221, Note_off_c, 0, 34, 58
1, 501235, Note_on_c, 0, 35, 72
1, 501293, Note_on_c, 0, 34, 91
1, 501308, Note_off_c, 0, 35, 61
1, 501352, Note_off_c, 0, 34, 59
1, 501368, Note_on_c, 0, 35, 72
1, 501417, Note_on_c, 0, 34, 83
1, 501459, Note_off_c, 0, 35, 0
1, 501475, Note_on_c, 0, 35, 51
1, 501478, Note_off_c, 0, 53, 62
1, 501483, Note_off_c, 0, 34, 60
1, 501484, Note_off_c, 0, 55, 58
1, 501488, Note_off_c, 0, 49, 61
1, 501533, Note_off_c, 0, 35, 64
1, 501576, Note_on_c, 0, 33, 98
1, 501577, Note_on_c, 0, 49, 90
1, 501582, Note_on_c, 0, 55, 84
1, 501582, Note_on_c, 0, 53, 84
1, 501585, Note_on_c, 0, 35, 77
1, 501636, Note_on_c, 0, 34, 4
1, 501657, Note_off_c, 0, 34, 61
1, 501670, Note_off_c, 0, 35, 57
1, 501677, Note_off_c, 0, 33, 59
1, 501733, Note_off_c, 0, 49, 58
1, 501752, Note_on_c, 0, 34, 62
1, 501794, Note_off_c, 0, 55, 47
1, 501947, Note_off_c, 0, 34, 59
1, 501954, Note_off_c, 0, 53, 63
1, 501997, Note_on_c, 0, 52, 92
1, 501998, Note_on_c, 0, 48, 91
1, 502000, Note_on_c, 0, 55, 88
1, 502000, Note_on_c, 0, 33, 106
1, 502046, Control_c, 0, 64, 80
1, 502061, Control_c, 0, 64, 0
1, 502179, Control_c, 0, 64, 68
1, 502194, Control_c, 0, 64, 84
1, 502209, Control_c, 0, 64, 127
1, 502399, Note_off_c, 0, 55, 51
1, 502404, Note_off_c, 0, 48, 54
1, 502413, Note_off_c, 0, 52, 53
1, 502499, Note_on_c, 0, 52, 105
1, 502499, Note_on_c, 0, 55, 99
1, 502501, Note_on_c, 0, 48, 95
1, 502942, Note_off_c, 0, 33, 63
1, 503022, Note_off_c, 0, 55, 49
1, 503067, Note_off_c, 0, 52, 47
1, 503101, Note_off_c, 0, 48, 45
1, 503230, Note_on_c, 0, 48, 83
1, 503232, Note_on_c, 0, 55, 92
1, 503237, Note_on_c, 0, 52, 87
1, 503291, Note_off_c, 0, 55, 63
1, 503305, Note_off_c, 0, 52, 61
1, 503308, Note_off_c, 0, 48, 63
1, 503364, Note_on_c, 0, 56, 107
1, 503402, Note_off_c, 0, 56, 73
1, 503644, Note_on_c, 0, 57, 65
1, 503658, Note_on_c, 0, 60, 75
1, 503696, Note_on_c, 0, 64, 87
1, 503700, Note_off_c, 0, 57, 63
1, 503717, Note_off_c, 0, 60, 67
1, 503725, Note_on_c, 0, 66, 92
1, 503733, Note_off_c, 0, 64, 67
1, 503744, Note_on_c, 0, 69, 84
1, 503744, Note_off_c, 0, 66, 72
1, 503772, Note_on_c, 0, 72, 93
1, 503783, Note_off_c, 0, 69, 68
1, 503786, Note_on_c, 0, 76, 93
1, 503825, Note_on_c, 0, 79, 100
1, 503846, Note_off_c, 0, 72, 70
1, 503857, Note_off_c, 0, 76, 67
1, 503871, Note_off_c, 0, 79, 69
1, 503935, Control_c, 0, 64, 105
1, 503950, Control_c, 0, 64, 68
1, 503965, Control_c, 0, 64, 0
1, 504143, Control_c, 0, 67, 11
1, 504158, Control_c, 0, 67, 17
1, 504173, Control_c, 0, 67, 24
1, 504188, Control_c, 0, 67, 32
1, 504203, Control_c, 0, 67, 37
1, 504218, Control_c, 0, 67, 42
1, 504232, Control_c, 0, 67, 48
1, 504247, Control_c, 0, 67, 52
1, 504262, Control_c, 0, 67, 55
1, 504277, Control_c, 0, 67, 57
1, 504292, Control_c, 0, 67, 58
1, 504313, Note_on_c, 0, 55, 63
1, 504319, Note_on_c, 0, 52, 60
1, 504320, Note_on_c, 0, 48, 54
1, 504322, Control_c, 0, 67, 58
1, 504396, Control_c, 0, 67, 59
1, 504411, Control_c, 0, 67, 59
1, 504426, Control_c, 0, 67, 60
1, 504440, Control_c, 0, 67, 61
1, 504455, Control_c, 0, 67, 64
1, 504470, Control_c, 0, 67, 67
1, 504484, Control_c, 0, 67, 69
1, 504499, Control_c, 0, 67, 72
1, 504514, Control_c, 0, 67, 75
1, 504529, Control_c, 0, 67, 80
1, 504544, Control_c, 0, 67, 84
1, 504566, Control_c, 0, 67, 87
1, 504581, Control_c, 0, 67, 91
1, 504596, Control_c, 0, 67, 94
1, 504610, Control_c, 0, 67, 97
1, 504625, Control_c, 0, 67, 101
1, 504640, Control_c, 0, 67, 104
1, 504655, Control_c, 0, 67, 106
1, 504670, Control_c, 0, 67, 110
1, 504684, Control_c, 0, 67, 114
1, 504699, Control_c, 0, 67, 119
1, 504714, Control_c, 0, 67, 126
1, 504729, Control_c, 0, 67, 127
1, 504817, Control_c, 0, 64, 50
1, 504832, Control_c, 0, 64, 63
1, 504847, Control_c, 0, 64, 68
1, 504862, Control_c, 0, 64, 74
1, 504876, Control_c, 0, 64, 82
1, 504891, Control_c, 0, 64, 90
1, 504906, Control_c, 0, 64, 101
1, 504921, Control_c, 0, 64, 115
1, 504936, Control_c, 0, 64, 127
1, 505191, Note_off_c, 0, 55, 28
1, 505232, Note_off_c, 0, 52, 30
1, 505252, Note_off_c, 0, 48, 28
1, 505666, Note_on_c, 0, 52, 32
1, 505673, Note_on_c, 0, 55, 22
1, 505676, Note_on_c, 0, 48, 26
1, 505815, Note_off_c, 0, 55, 44
1, 505827, Note_off_c, 0, 48, 44
1, 505831, Note_off_c, 0, 52, 40
1, 506548, Note_on_c, 0, 33, 39
1, 506557, Note_on_c, 0, 36, 44
1, 506561, Note_on_c, 0, 43, 43
1, 506643, Control_c, 0, 64, 96
1, 506658, Control_c, 0, 64, 80
1, 506672, Control_c, 0, 64, 73
1, 506687, Control_c, 0, 64, 74
1, 506702, Control_c, 0, 64, 79
1, 506717, Control_c, 0, 64, 88
1, 506732, Control_c, 0, 64, 105
1, 506746, Control_c, 0, 64, 127
1, 506933, Note_off_c, 0, 36, 39
1, 506946, Note_off_c, 0, 33, 40
1, 506947, Note_off_c, 0, 43, 36
1, 507095, Note_on_c, 0, 43, 48
1, 507097, Note_on_c, 0, 33, 40
1, 507097, Note_on_c, 0, 36, 45
1, 507112, Note_on_c, 0, 60, 43
1, 507187, Note_off_c, 0, 60, 57
1, 507285, Note_on_c, 0, 76, 53
1, 507383, Note_off_c, 0, 76, 58
1, 507432, Note_on_c, 0, 72, 51
1, 507479, Note_off_c, 0, 72, 55
1, 507480, Note_off_c, 0, 43, 53
1, 507488, Note_off_c, 0, 36, 39
1, 507492, Note_off_c, 0, 33, 39
1, 507610, Note_on_c, 0, 43, 54
1, 507611, Note_on_c, 0, 36, 54
1, 507612, Note_on_c, 0, 33, 52
1, 507618, Note_on_c, 0, 88, 62
1, 507666, Note_off_c, 0, 88, 51
1, 507779, Note_on_c, 0, 72, 50
1, 507857, Note_off_c, 0, 72, 51
1, 507921, Note_on_c, 0, 76, 53
1, 507931, Note_off_c, 0, 43, 52
1, 507938, Note_off_c, 0, 33, 36
1, 507939, Note_off_c, 0, 36, 37
1, 507968, Note_off_c, 0, 76, 55
1, 508072, Note_on_c, 0, 33, 48
1, 508074, Note_on_c, 0, 36, 48
1, 508075, Note_on_c, 0, 43, 52
1, 508096, Note_on_c, 0, 60, 49
1, 508141, Note_off_c, 0, 60, 59
1, 508251, Note_on_c, 0, 76, 46
1, 508325, Note_off_c, 0, 76, 39
1, 508409, Note_on_c, 0, 72, 44
1, 508438, Note_off_c, 0, 72, 53
1, 508444, Note_off_c, 0, 36, 40
1, 508448, Note_off_c, 0, 33, 33
1, 508452, Note_off_c, 0, 43, 37
1, 508565, Note_on_c, 0, 43, 48
1, 508572, Note_on_c, 0, 33, 50
1, 508573, Note_on_c, 0, 36, 55
1, 508579, Note_on_c, 0, 88, 60
1, 508626, Note_off_c, 0, 88, 53
1, 508746, Note_on_c, 0, 72, 45
1, 508817, Note_off_c, 0, 72, 49
1, 508883, Note_on_c, 0, 76, 45
1, 508903, Note_off_c, 0, 43, 52
1, 508919, Note_off_c, 0, 36, 37
1, 508921, Note_off_c, 0, 76, 48
1, 508926, Note_off_c, 0, 33, 36
1, 509035, Note_on_c, 0, 33, 49
1, 509036, Note_on_c, 0, 36, 52
1, 509036, Note_on_c, 0, 43, 50
1, 509079, Note_on_c, 0, 60, 30
1, 509115, Note_off_c, 0, 60, 54
1, 509219, Note_on_c, 0, 76, 46
1, 509282, Note_off_c, 0, 76, 40
1, 509363, Note_on_c, 0, 72, 43
1, 509396, Note_off_c, 0, 72, 53
1, 509403, Note_off_c, 0, 33, 35
1, 509410, Note_off_c, 0, 36, 32
1, 509485, Note_off_c, 0, 43, 0
1, 509503, Note_on_c, 0, 43, 32
1, 509512, Note_on_c, 0, 36, 45
1, 509518, Note_on_c, 0, 33, 45
1, 509528, Note_on_c, 0, 88, 63
1, 509578, Note_off_c, 0, 88, 50
1, 509692, Note_on_c, 0, 72, 46
1, 509766, Note_off_c, 0, 72, 55
1, 509845, Note_off_c, 0, 43, 41
1, 509850, Note_off_c, 0, 36, 34
1, 509851, Note_off_c, 0, 33, 40
1, 509861, Note_on_c, 0, 76, 13
1, 509912, Note_off_c, 0, 76, 51
1, 509980, Note_on_c, 0, 33, 46
1, 509986, Note_on_c, 0, 36, 52
1, 509989, Note_on_c, 0, 43, 41
1, 510012, Note_on_c, 0, 60, 46
1, 510047, Note_off_c, 0, 60, 55
1, 510155, Note_on_c, 0, 76, 46
1, 510218, Note_off_c, 0, 76, 43
1, 510310, Note_on_c, 0, 72, 33
1, 510337, Note_off_c, 0, 33, 37
1, 510338, Note_off_c, 0, 43, 38
1, 510344, Note_off_c, 0, 36, 38
1, 510345, Note_off_c, 0, 72, 50
1, 510474, Note_on_c, 0, 36, 48
1, 510474, Note_on_c, 0, 43, 48
1, 510475, Note_on_c, 0, 33, 46
1, 510479, Note_on_c, 0, 88, 60
1, 510522, Note_off_c, 0, 88, 53
1, 510653, Note_on_c, 0, 72, 47
1, 510719, Note_off_c, 0, 72, 52
1, 510801, Note_on_c, 0, 76, 44
1, 510805, Note_off_c, 0, 33, 36
1, 510817, Note_off_c, 0, 36, 33
1, 510835, Note_off_c, 0, 76, 54
1, 510837, Note_off_c, 0, 43, 32
1, 510939, Note_on_c, 0, 43, 37
1, 510951, Note_on_c, 0, 36, 47
1, 510955, Note_on_c, 0, 33, 46
1, 510973, Note_on_c, 0, 60, 50
1, 511011, Note_off_c, 0, 60, 62
1, 511121, Note_on_c, 0, 76, 42
1, 511175, Note_off_c, 0, 76, 41
1, 511262, Note_on_c, 0, 72, 35
1, 511307, Note_off_c, 0, 72, 48
1, 511309, Note_off_c, 0, 33, 37
1, 511317, Note_off_c, 0, 43, 31
1, 511318, Note_off_c, 0, 36, 30
1, 511430, Note_on_c, 0, 43, 41
1, 511431, Note_on_c, 0, 33, 44
1, 511434, Note_on_c, 0, 36, 43
1, 511436, Note_on_c, 0, 88, 65
1, 511494, Note_off_c, 0, 88, 58
1, 511622, Note_on_c, 0, 72, 39
1, 511678, Note_off_c, 0, 72, 57
1, 511759, Note_on_c, 0, 76, 40
1, 511768, Note_off_c, 0, 43, 40
1, 511768, Note_off_c, 0, 33, 34
1, 511768, Note_off_c, 0, 36, 40
1, 511809, Note_off_c, 0, 76, 45
1, 511907, Note_on_c, 0, 36, 45
1, 511908, Note_on_c, 0, 43, 43
1, 511911, Note_on_c, 0, 33, 45
1, 511935, Note_on_c, 0, 60, 46
1, 511972, Note_off_c, 0, 60, 60
1, 512093, Note_on_c, 0, 76, 44
1, 512153, Note_off_c, 0, 76, 41
1, 512228, Note_off_c, 0, 33, 33
1, 512232, Note_off_c, 0, 36, 40
1, 512236, Note_off_c, 0, 43, 33
1, 512245, Note_on_c, 0, 72, 40
1, 512278, Note_off_c, 0, 72, 51
1, 512391, Note_on_c, 0, 33, 37
1, 512391, Note_on_c, 0, 36, 41
1, 512394, Note_on_c, 0, 43, 45
1, 512406, Note_on_c, 0, 88, 58
1, 512446, Note_off_c, 0, 88, 57
1, 512570, Note_on_c, 0, 72, 47
1, 512645, Note_off_c, 0, 72, 53
1, 512711, Note_off_c, 0, 36, 39
1, 512717, Note_off_c, 0, 33, 39
1, 512722, Note_off_c, 0, 43, 39
1, 512722, Note_on_c, 0, 76, 42
1, 512764, Note_off_c, 0, 76, 47
1, 512870, Note_on_c, 0, 33, 38
1, 512871, Note_on_c, 0, 36, 40
1, 512879, Note_on_c, 0, 43, 40
1, 512892, Note_on_c, 0, 60, 46
1, 512936, Note_off_c, 0, 60, 56
1, 513052, Note_on_c, 0, 76, 37
1, 513106, Note_off_c, 0, 76, 42
1, 513178, Note_off_c, 0, 36, 38
1, 513178, Note_off_c, 0, 33, 36
1, 513184, Note_off_c, 0, 43, 37
1, 513196, Note_on_c, 0, 72, 39
1, 513232, Note_off_c, 0, 72, 49
1, 513342, Note_on_c, 0, 36, 37
1, 513342, Note_on_c, 0, 33, 34
1, 513343, Note_on_c, 0, 43, 37
1, 513364, Note_on_c, 0, 88, 52
1, 513404, Note_off_c, 0, 88, 48
1, 513517, Note_on_c, 0, 72, 47
1, 513590, Note_off_c, 0, 72, 52
1, 513658, Note_off_c, 0, 36, 39
1, 513661, Note_off_c, 0, 33, 40
1, 513672, Note_on_c, 0, 76, 47
1, 513697, Note_off_c, 0, 43, 36
1, 513712, Note_off_c, 0, 76, 56
1, 513797, Note_on_c, 0, 43, 32
1, 513808, Note_on_c, 0, 33, 38
1, 513813, Note_on_c, 0, 36, 37
1, 513889, Poly_aftertouch_c, 0, 60, 127
1, 513932, Poly_aftertouch_c, 0, 60, 0
1, 514051, Poly_aftertouch_c, 0, 76, 127
1, 514087, Poly_aftertouch_c, 0, 76, 0
1, 514143, Note_on_c, 0, 72, 26
1, 514177, Note_off_c, 0, 72, 52
1, 514303, Note_on_c, 0, 40, 77
1, 514305, Note_off_c, 0, 43, 62
1, 514352, Note_on_c, 0, 88, 42
1, 514385, Note_off_c, 0, 88, 50
1, 514463, Note_off_c, 0, 36, 26
1, 514502, Note_off_c, 0, 33, 38
1, 514516, Note_on_c, 0, 72, 41
1, 514558, Note_off_c, 0, 72, 55
1, 514648, Note_on_c, 0, 76, 43
1, 514689, Note_off_c, 0, 76, 48
1, 514812, Note_on_c, 0, 43, 43
1, 514812, Note_on_c, 0, 33, 41
1, 514833, Note_on_c, 0, 60, 33
1, 514870, Note_off_c, 0, 60, 54
1, 514968, Note_off_c, 0, 43, 42
1, 514977, Note_on_c, 0, 76, 36
1, 515024, Note_off_c, 0, 76, 45
1, 515103, Note_off_c, 0, 33, 30
1, 515114, Note_on_c, 0, 72, 37
1, 515155, Note_off_c, 0, 72, 47
1, 515256, Note_on_c, 0, 86, 70
1, 515266, Note_on_c, 0, 33, 39
1, 515281, Note_on_c, 0, 43, 37
1, 515302, Note_off_c, 0, 86, 50
1, 515374, Note_off_c, 0, 43, 38
1, 515422, Note_on_c, 0, 72, 44
1, 515490, Note_off_c, 0, 72, 52
1, 515516, Note_off_c, 0, 33, 36
1, 515578, Note_on_c, 0, 76, 41
1, 515614, Note_off_c, 0, 76, 49
1, 515706, Note_on_c, 0, 43, 43
1, 515712, Note_on_c, 0, 33, 36
1, 515730, Note_on_c, 0, 60, 43
1, 515765, Note_off_c, 0, 60, 54
1, 515879, Note_on_c, 0, 76, 44
1, 515913, Note_off_c, 0, 43, 47
1, 515956, Note_off_c, 0, 76, 34
1, 516034, Note_on_c, 0, 72, 43
1, 516165, Note_off_c, 0, 72, 49
1, 516191, Note_on_c, 0, 41, 72
1, 516195, Note_on_c, 0, 84, 65
1, 516243, Control_c, 0, 64, 119
1, 516257, Control_c, 0, 64, 85
1, 516259, Note_off_c, 0, 40, 52
1, 516272, Control_c, 0, 64, 70
1, 516287, Control_c, 0, 64, 60
1, 516302, Control_c, 0, 64, 53
1, 516317, Control_c, 0, 64, 55
1, 516332, Control_c, 0, 64, 57
1, 516347, Control_c, 0, 64, 61
1, 516362, Control_c, 0, 64, 63
1, 516365, Note_off_c, 0, 33, 40
1, 516368, Note_on_c, 0, 72, 43
1, 516377, Control_c, 0, 64, 67
1, 516391, Control_c, 0, 64, 73
1, 516406, Control_c, 0, 64, 83
1, 516421, Control_c, 0, 64, 101
1, 516436, Control_c, 0, 64, 127
1, 516478, Note_off_c, 0, 72, 37
1, 516509, Note_on_c, 0, 76, 44
1, 516630, Note_off_c, 0, 84, 60
1, 516639, Note_off_c, 0, 76, 61
1, 516667, Note_on_c, 0, 33, 45
1, 516669, Note_on_c, 0, 36, 44
1, 516674, Note_on_c, 0, 72, 35
1, 516703, Note_off_c, 0, 72, 55
1, 516820, Note_on_c, 0, 91, 75
1, 516864, Note_off_c, 0, 91, 62
1, 516918, Note_off_c, 0, 36, 34
1, 516966, Note_on_c, 0, 76, 53
1, 516999, Note_off_c, 0, 33, 28
1, 517066, Note_off_c, 0, 76, 47
1, 517110, Note_on_c, 0, 89, 68
1, 517125, Note_on_c, 0, 33, 48
1, 517128, Note_on_c, 0, 36, 42
1, 517139, Note_off_c, 0, 89, 61
1, 517298, Note_on_c, 0, 72, 50
1, 517339, Note_off_c, 0, 36, 35
1, 517414, Note_on_c, 0, 84, 63
1, 517424, Note_off_c, 0, 33, 31
1, 517439, Note_off_c, 0, 72, 31
1, 517551, Note_off_c, 0, 84, 56
1, 517564, Note_on_c, 0, 33, 43
1, 517573, Note_on_c, 0, 36, 45
1, 517584, Note_on_c, 0, 77, 51
1, 517709, Note_off_c, 0, 36, 33
1, 517714, Note_on_c, 0, 86, 70
1, 517757, Note_off_c, 0, 33, 40
1, 517786, Note_off_c, 0, 86, 61
1, 517809, Note_off_c, 0, 41, 58
1, 517855, Note_on_c, 0, 72, 45
1, 517908, Note_on_c, 0, 33, 50
1, 517931, Note_on_c, 0, 36, 57
1, 517961, Note_off_c, 0, 72, 32
1, 518037, Note_on_c, 0, 42, 83
1, 518074, Note_on_c, 0, 81, 64
1, 518088, Control_c, 0, 64, 90
1, 518092, Note_off_c, 0, 77, 48
1, 518103, Control_c, 0, 64, 69
1, 518117, Control_c, 0, 64, 28
1, 518132, Control_c, 0, 64, 0
1, 518147, Control_c, 0, 64, 49
1, 518162, Control_c, 0, 64, 65
1, 518177, Control_c, 0, 64, 72
1, 518192, Control_c, 0, 64, 84
1, 518207, Control_c, 0, 64, 111
1, 518222, Note_off_c, 0, 81, 56
1, 518222, Control_c, 0, 64, 127
1, 518247, Note_on_c, 0, 72, 50
1, 518306, Note_off_c, 0, 72, 56
1, 518317, Note_off_c, 0, 36, 35
1, 518359, Note_off_c, 0, 33, 36
1, 518391, Note_on_c, 0, 76, 48
1, 518436, Note_off_c, 0, 76, 56
1, 518540, Note_on_c, 0, 33, 44
1, 518541, Note_on_c, 0, 60, 51
1, 518542, Note_on_c, 0, 36, 45
1, 518576, Note_off_c, 0, 60, 54
1, 518684, Note_on_c, 0, 76, 55
1, 518693, Note_off_c, 0, 36, 37
1, 518724, Note_off_c, 0, 76, 60
1, 518752, Note_off_c, 0, 33, 34
1, 518851, Note_on_c, 0, 81, 69
1, 518885, Note_off_c, 0, 81, 55
1, 519006, Note_on_c, 0, 81, 60
1, 519015, Note_on_c, 0, 33, 42
1, 519015, Note_on_c, 0, 36, 47
1, 519101, Note_off_c, 0, 81, 55
1, 519148, Note_off_c, 0, 36, 37
1, 519169, Note_on_c, 0, 72, 49
1, 519187, Note_off_c, 0, 33, 42
1, 519245, Note_off_c, 0, 72, 51
1, 519310, Note_on_c, 0, 76, 51
1, 519352, Note_off_c, 0, 76, 60
1, 519435, Note_on_c, 0, 33, 37
1, 519440, Note_on_c, 0, 36, 47
1, 519466, Note_on_c, 0, 60, 51
1, 519506, Note_off_c, 0, 60, 59
1, 519596, Note_off_c, 0, 36, 34
1, 519606, Note_on_c, 0, 76, 54
1, 519638, Note_off_c, 0, 33, 40
1, 519676, Note_off_c, 0, 76, 45
1, 519750, Note_on_c, 0, 72, 50
1, 519796, Note_off_c, 0, 72, 55
1, 519889, Note_on_c, 0, 33, 38
1, 519911, Note_on_c, 0, 88, 63
1, 519912, Note_on_c, 0, 36, 47
1, 519966, Note_off_c, 0, 88, 60
1, 520066, Note_on_c, 0, 72, 50
1, 520128, Note_off_c, 0, 36, 31
1, 520135, Note_off_c, 0, 72, 53
1, 520145, Note_off_c, 0, 33, 41
1, 520204, Note_off_c, 0, 42, 58
1, 520212, Note_on_c, 0, 76, 50
1, 520255, Note_off_c, 0, 76, 58
1, 520288, Note_on_c, 0, 33, 37
1, 520306, Note_on_c, 0, 36, 44
1, 520367, Note_on_c, 0, 42, 71
1, 520413, Note_on_c, 0, 60, 39
1, 520443, Note_off_c, 0, 60, 57
1, 520543, Note_on_c, 0, 76, 44
1, 520546, Note_off_c, 0, 36, 36
1, 520579, Note_off_c, 0, 33, 36
1, 520675, Note_off_c, 0, 76, 37
1, 520681, Note_on_c, 0, 72, 51
1, 520720, Note_off_c, 0, 42, 61
1, 520778, Note_on_c, 0, 33, 20
1, 520779, Note_on_c, 0, 36, 52
1, 520818, Note_on_c, 0, 43, 77
1, 520826, Note_on_c, 0, 83, 76
1, 520832, Note_off_c, 0, 72, 46
1, 520839, Control_c, 0, 64, 117
1, 520854, Control_c, 0, 64, 84
1, 520869, Control_c, 0, 64, 65
1, 520884, Control_c, 0, 64, 0
1, 520913, Control_c, 0, 64, 37
1, 520928, Control_c, 0, 64, 63
1, 520943, Control_c, 0, 64, 71
1, 520958, Control_c, 0, 64, 84
1, 520973, Control_c, 0, 64, 110
1, 520988, Note_off_c, 0, 83, 62
1, 520988, Control_c, 0, 64, 127
1, 521011, Note_on_c, 0, 72, 50
1, 521080, Note_off_c, 0, 36, 37
1, 521086, Note_off_c, 0, 72, 61
1, 521161, Note_off_c, 0, 43, 60
1, 521166, Note_on_c, 0, 76, 54
1, 521195, Note_off_c, 0, 33, 0
1, 521197, Note_off_c, 0, 76, 53
1, 521211, Note_on_c, 0, 33, 31
1, 521243, Note_on_c, 0, 36, 53
1, 521295, Note_on_c, 0, 44, 86
1, 521339, Note_on_c, 0, 60, 41
1, 521370, Note_off_c, 0, 60, 58
1, 521465, Note_on_c, 0, 76, 47
1, 521470, Note_off_c, 0, 36, 57
1, 521550, Note_off_c, 0, 33, 39
1, 521612, Note_off_c, 0, 76, 43
1, 521617, Note_on_c, 0, 72, 44
1, 521635, Note_off_c, 0, 44, 59
1, 521677, Note_on_c, 0, 33, 47
1, 521679, Note_on_c, 0, 37, 51
1, 521811, Note_on_c, 0, 79, 73
1, 521822, Note_off_c, 0, 72, 56
1, 521846, Note_on_c, 0, 45, 77
1, 521863, Control_c, 0, 64, 88
1, 521877, Control_c, 0, 64, 65
1, 521892, Control_c, 0, 64, 0
1, 521996, Control_c, 0, 64, 54
1, 522010, Control_c, 0, 64, 70
1, 522025, Control_c, 0, 64, 83
1, 522040, Control_c, 0, 64, 118
1, 522055, Control_c, 0, 64, 127
1, 522079, Note_on_c, 0, 73, 48
1, 522094, Note_off_c, 0, 79, 58
1, 522186, Note_off_c, 0, 37, 34
1, 522207, Note_off_c, 0, 73, 63
1, 522215, Note_off_c, 0, 33, 40
1, 522245, Note_on_c, 0, 76, 54
1, 522280, Note_off_c, 0, 76, 59
1, 522353, Note_on_c, 0, 33, 40
1, 522356, Note_on_c, 0, 37, 47
1, 522383, Note_on_c, 0, 61, 49
1, 522427, Note_off_c, 0, 61, 59
1, 522532, Note_on_c, 0, 76, 55
1, 522591, Note_off_c, 0, 76, 59
1, 522651, Note_off_c, 0, 37, 39
1, 522665, Note_on_c, 0, 73, 61
1, 522674, Note_off_c, 0, 33, 30
1, 522705, Note_off_c, 0, 73, 55
1, 522806, Note_on_c, 0, 33, 49
1, 522809, Note_on_c, 0, 37, 46
1, 522813, Note_on_c, 0, 88, 67
1, 522866, Note_off_c, 0, 88, 58
1, 522950, Note_on_c, 0, 73, 57
1, 522971, Note_off_c, 0, 37, 59
1, 522979, Note_off_c, 0, 33, 36
1, 522994, Note_off_c, 0, 73, 59
1, 523126, Note_on_c, 0, 76, 10
1, 523178, Poly_aftertouch_c, 0, 74, 127
1, 523222, Poly_aftertouch_c, 0, 74, 0
1, 523247, Note_on_c, 0, 49, 80
1, 523257, Note_off_c, 0, 76, 42
1, 523296, Note_off_c, 0, 45, 61
1, 523314, Poly_aftertouch_c, 0, 64, 127
1, 523345, Poly_aftertouch_c, 0, 64, 0
1, 523406, Note_on_c, 0, 81, 69
1, 523547, Note_on_c, 0, 69, 52
1, 523744, Note_on_c, 0, 79, 69
1, 523766, Note_off_c, 0, 81, 54
1, 523797, Note_on_c, 0, 52, 79
1, 523807, Note_off_c, 0, 69, 30
1, 523929, Note_off_c, 0, 49, 60
1, 523937, Note_off_c, 0, 79, 59
1, 523951, Note_on_c, 0, 81, 57
1, 523988, Note_off_c, 0, 52, 62
1, 523994, Note_off_c, 0, 81, 55
1, 524066, Note_on_c, 0, 79, 51
1, 524089, Note_off_c, 0, 79, 60
1, 524122, Note_on_c, 0, 81, 53
1, 524172, Note_off_c, 0, 81, 62
1, 524196, Note_on_c, 0, 79, 58
1, 524239, Note_off_c, 0, 79, 59
1, 524242, Note_on_c, 0, 33, 50
1, 524258, Note_on_c, 0, 37, 50
1, 524267, Note_on_c, 0, 81, 54
1, 524285, Note_off_c, 0, 81, 64
1, 524291, Note_off_c, 0, 37, 61
1, 524304, Note_off_c, 0, 33, 53
1, 524334, Note_on_c, 0, 79, 57
1, 524355, Note_off_c, 0, 79, 61
1, 524359, Note_on_c, 0, 81, 65
1, 524388, Note_off_c, 0, 81, 63
1, 524427, Note_on_c, 0, 79, 68
1, 524458, Note_off_c, 0, 79, 61
1, 524470, Note_on_c, 0, 33, 49
1, 524485, Note_on_c, 0, 81, 56
1, 524499, Note_on_c, 0, 37, 43
1, 524505, Note_off_c, 0, 81, 63
1, 524520, Note_off_c, 0, 33, 54
1, 524541, Note_on_c, 0, 79, 63
1, 524547, Note_off_c, 0, 37, 61
1, 524565, Note_off_c, 0, 79, 58
1, 524574, Note_on_c, 0, 81, 71
1, 524600, Note_off_c, 0, 81, 63
1, 524637, Note_on_c, 0, 79, 68
1, 524682, Note_off_c, 0, 79, 57
1, 524699, Note_on_c, 0, 81, 58
1, 524714, Note_on_c, 0, 57, 77
1, 524717, Note_off_c, 0, 81, 65
1, 524745, Note_off_c, 0, 57, 64
1, 524747, Note_on_c, 0, 79, 60
1, 524788, Note_off_c, 0, 79, 58
1, 524795, Note_on_c, 0, 81, 67
1, 524832, Note_off_c, 0, 81, 56
1, 524863, Note_on_c, 0, 79, 66
1, 524897, Note_off_c, 0, 79, 58
1, 524920, Note_on_c, 0, 81, 52
1, 524941, Note_off_c, 0, 81, 59
1, 524968, Note_on_c, 0, 79, 60
1, 524993, Note_off_c, 0, 79, 64
1, 525003, Note_on_c, 0, 81, 75
1, 525024, Note_off_c, 0, 81, 68
1, 525054, Note_on_c, 0, 79, 79
1, 525111, Note_off_c, 0, 79, 54
1, 525152, Note_on_c, 0, 33, 48
1, 525158, Note_on_c, 0, 77, 61
1, 525183, Note_on_c, 0, 37, 27
1, 525227, Note_off_c, 0, 37, 51
1, 525293, Note_off_c, 0, 33, 34
1, 525391, Note_on_c, 0, 79, 64
1, 525428, Note_off_c, 0, 77, 59
1, 525436, Control_c, 0, 64, 119
1, 525445, Note_on_c, 0, 34, 53
1, 525450, Control_c, 0, 64, 79
1, 525465, Control_c, 0, 64, 0
1, 525513, Note_on_c, 0, 38, 60
1, 525532, Control_c, 0, 64, 62
1, 525546, Control_c, 0, 64, 74
1, 525548, Note_off_c, 0, 34, 59
1, 525561, Control_c, 0, 64, 92
1, 525576, Note_off_c, 0, 38, 62
1, 525576, Control_c, 0, 64, 127
1, 525674, Note_on_c, 0, 77, 65
1, 525701, Note_off_c, 0, 79, 50
1, 525752, Note_on_c, 0, 57, 73
1, 525789, Note_off_c, 0, 57, 60
1, 526061, Note_off_c, 0, 77, 36
1, 526224, Note_on_c, 0, 62, 39
1, 526227, Note_on_c, 0, 38, 43
1, 526237, Note_on_c, 0, 34, 40
1, 526289, Note_off_c, 0, 62, 56
1, 526375, Note_on_c, 0, 77, 53
1, 526462, Note_off_c, 0, 77, 57
1, 526510, Note_off_c, 0, 38, 37
1, 526512, Note_on_c, 0, 74, 59
1, 526535, Note_off_c, 0, 34, 36
1, 526564, Note_off_c, 0, 74, 54
1, 526668, Note_on_c, 0, 89, 72
1, 526674, Note_on_c, 0, 34, 39
1, 526684, Note_on_c, 0, 38, 35
1, 526725, Note_off_c, 0, 89, 60
1, 526823, Note_on_c, 0, 74, 53
1, 526888, Note_off_c, 0, 74, 51
1, 526917, Note_off_c, 0, 34, 36
1, 526936, Note_off_c, 0, 38, 41
1, 526963, Note_on_c, 0, 77, 54
1, 527000, Note_off_c, 0, 77, 60
1, 527122, Note_on_c, 0, 62, 52
1, 527126, Note_on_c, 0, 38, 38
1, 527136, Note_on_c, 0, 34, 35
1, 527172, Note_off_c, 0, 62, 55
1, 527257, Note_on_c, 0, 77, 53
1, 527309, Note_off_c, 0, 34, 43
1, 527318, Note_off_c, 0, 38, 40
1, 527330, Note_off_c, 0, 77, 49
1, 527399, Note_on_c, 0, 74, 57
1, 527442, Note_off_c, 0, 74, 57
1, 527552, Note_on_c, 0, 56, 65
1, 527568, Note_on_c, 0, 89, 58
1, 527579, Note_off_c, 0, 56, 65
1, 527599, Note_off_c, 0, 89, 54
1, 527713, Note_on_c, 0, 74, 57
1, 527802, Note_off_c, 0, 74, 56
1, 527860, Note_on_c, 0, 77, 58
1, 527898, Note_off_c, 0, 77, 57
1, 528015, Note_on_c, 0, 38, 43
1, 528022, Note_on_c, 0, 34, 36
1, 528023, Note_on_c, 0, 62, 51
1, 528066, Note_off_c, 0, 62, 57
1, 528155, Note_on_c, 0, 77, 53
1, 528223, Note_off_c, 0, 77, 39
1, 528271, Note_off_c, 0, 38, 35
1, 528291, Note_off_c, 0, 34, 40
1, 528293, Note_on_c, 0, 74, 54
1, 528332, Note_off_c, 0, 74, 63
1, 528463, Note_on_c, 0, 89, 61
1, 528470, Note_on_c, 0, 38, 37
1, 528470, Note_on_c, 0, 34, 31
1, 528533, Note_off_c, 0, 89, 59
1, 528626, Note_on_c, 0, 74, 54
1, 528671, Note_off_c, 0, 74, 57
1, 528703, Note_off_c, 0, 34, 39
1, 528705, Note_off_c, 0, 38, 36
1, 528759, Note_on_c, 0, 77, 57
1, 528798, Note_off_c, 0, 77, 57
1, 528914, Note_on_c, 0, 62, 51
1, 528920, Note_on_c, 0, 34, 37
1, 528920, Note_on_c, 0, 38, 40
1, 528956, Note_off_c, 0, 62, 59
1, 529063, Note_on_c, 0, 77, 40
1, 529066, Note_off_c, 0, 38, 40
1, 529073, Note_off_c, 0, 34, 53
1, 529121, Note_off_c, 0, 77, 46
1, 529206, Note_on_c, 0, 74, 42
1, 529233, Note_off_c, 0, 74, 57
1, 529403, Note_on_c, 0, 55, 75
1, 529423, Note_on_c, 0, 91, 60
1, 529439, Control_c, 0, 64, 110
1, 529443, Note_on_c, 0, 43, 44
1, 529454, Control_c, 0, 64, 80
1, 529468, Control_c, 0, 64, 56
1, 529483, Control_c, 0, 64, 0
1, 529494, Note_off_c, 0, 91, 60
1, 529513, Control_c, 0, 64, 52
1, 529527, Control_c, 0, 64, 65
1, 529542, Control_c, 0, 64, 75
1, 529557, Control_c, 0, 64, 90
1, 529572, Control_c, 0, 64, 127
1, 529593, Note_on_c, 0, 75, 49
1, 529628, Note_off_c, 0, 75, 61
1, 529637, Note_off_c, 0, 55, 64
1, 529657, Note_off_c, 0, 43, 51
1, 529728, Note_on_c, 0, 79, 59
1, 529766, Note_off_c, 0, 79, 56
1, 529894, Note_on_c, 0, 35, 41
1, 529894, Note_on_c, 0, 39, 41
1, 529896, Note_on_c, 0, 63, 55
1, 529952, Note_off_c, 0, 63, 54
1, 530057, Note_on_c, 0, 79, 55
1, 530072, Note_off_c, 0, 39, 41
1, 530110, Note_off_c, 0, 35, 41
1, 530172, Note_off_c, 0, 79, 57
1, 530195, Note_on_c, 0, 75, 47
1, 530331, Note_off_c, 0, 75, 61
1, 530351, Note_on_c, 0, 83, 73
1, 530405, Note_on_c, 0, 39, 37
1, 530407, Note_on_c, 0, 35, 34
1, 530503, Note_off_c, 0, 83, 56
1, 530538, Note_on_c, 0, 75, 45
1, 530602, Note_off_c, 0, 39, 36
1, 530619, Note_off_c, 0, 35, 38
1, 530642, Note_off_c, 0, 75, 60
1, 530684, Note_on_c, 0, 79, 44
1, 530717, Note_off_c, 0, 79, 51
1, 530829, Note_on_c, 0, 35, 35
1, 530837, Note_on_c, 0, 39, 37
1, 530846, Note_on_c, 0, 63, 43
1, 530878, Note_off_c, 0, 63, 62
1, 530951, Note_off_c, 0, 39, 36
1, 530967, Note_off_c, 0, 35, 42
1, 530992, Note_on_c, 0, 79, 50
1, 531129, Note_off_c, 0, 79, 54
1, 531155, Note_on_c, 0, 75, 41
1, 531331, Note_on_c, 0, 54, 62
1, 531337, Note_on_c, 0, 81, 63
1, 531348, Note_off_c, 0, 75, 54
1, 531363, Note_on_c, 0, 42, 42
1, 531367, Control_c, 0, 64, 116
1, 531382, Control_c, 0, 64, 84
1, 531396, Control_c, 0, 64, 65
1, 531411, Control_c, 0, 64, 17
1, 531426, Control_c, 0, 64, 26
1, 531441, Control_c, 0, 64, 54
1, 531456, Control_c, 0, 64, 66
1, 531470, Control_c, 0, 64, 78
1, 531485, Control_c, 0, 64, 100
1, 531500, Control_c, 0, 64, 127
1, 531514, Note_on_c, 0, 75, 42
1, 531552, Note_off_c, 0, 54, 64
1, 531581, Note_off_c, 0, 42, 39
1, 531626, Note_off_c, 0, 75, 52
1, 531665, Note_on_c, 0, 78, 43
1, 531819, Note_on_c, 0, 69, 50
1, 531821, Note_on_c, 0, 39, 37
1, 531822, Note_on_c, 0, 35, 40
1, 531827, Note_off_c, 0, 78, 53
1, 531830, Note_off_c, 0, 81, 51
1, 531842, Note_off_c, 0, 69, 61
1, 531989, Note_on_c, 0, 88, 61
1, 532125, Note_off_c, 0, 39, 39
1, 532137, Note_on_c, 0, 78, 41
1, 532138, Note_off_c, 0, 88, 58
1, 532140, Note_off_c, 0, 35, 40
1, 532222, Note_off_c, 0, 78, 48
1, 532286, Note_on_c, 0, 87, 68
1, 532298, Note_on_c, 0, 35, 40
1, 532307, Note_on_c, 0, 39, 33
1, 532362, Note_off_c, 0, 87, 61
1, 532438, Note_on_c, 0, 75, 39
1, 532481, Note_off_c, 0, 75, 49
1, 532559, Note_on_c, 0, 81, 66
1, 532576, Note_off_c, 0, 39, 40
1, 532583, Note_off_c, 0, 35, 40
1, 532721, Note_on_c, 0, 39, 27
1, 532731, Note_on_c, 0, 35, 32
1, 532739, Note_on_c, 0, 66, 19
1, 532775, Note_off_c, 0, 81, 20
1, 532780, Note_off_c, 0, 66, 53
1, 532860, Note_on_c, 0, 83, 63
1, 532889, Note_off_c, 0, 35, 42
1, 532904, Note_off_c, 0, 39, 39
1, 532924, Note_off_c, 0, 83, 58
1, 533035, Note_on_c, 0, 69, 38
1, 533178, Note_off_c, 0, 69, 37
1, 533193, Note_on_c, 0, 77, 66
1, 533226, Note_on_c, 0, 53, 66
1, 533255, Note_on_c, 0, 41, 46
1, 533272, Control_c, 0, 64, 93
1, 533286, Control_c, 0, 64, 71
1, 533301, Control_c, 0, 64, 58
1, 533316, Control_c, 0, 64, 60
1, 533331, Control_c, 0, 64, 65
1, 533346, Control_c, 0, 64, 72
1, 533360, Control_c, 0, 64, 84
1, 533375, Control_c, 0, 64, 127
1, 533418, Note_on_c, 0, 65, 35
1, 533439, Note_off_c, 0, 53, 65
1, 533440, Note_off_c, 0, 41, 57
1, 533513, Note_off_c, 0, 65, 34
1, 533562, Note_on_c, 0, 74, 44
1, 533648, Note_off_c, 0, 77, 32
1, 533655, Note_off_c, 0, 74, 53
1, 533720, Note_on_c, 0, 35, 37
1, 533728, Note_on_c, 0, 62, 39
1, 533738, Note_on_c, 0, 38, 35
1, 533870, Note_off_c, 0, 62, 40
1, 533887, Note_on_c, 0, 74, 45
1, 534025, Note_on_c, 0, 77, 53
1, 534025, Note_off_c, 0, 35, 39
1, 534061, Note_off_c, 0, 38, 35
1, 534065, Note_off_c, 0, 74, 49
1, 534065, Note_off_c, 0, 77, 57
1, 534170, Note_on_c, 0, 38, 24
1, 534174, Note_on_c, 0, 77, 58
1, 534184, Note_on_c, 0, 35, 34
1, 534323, Note_on_c, 0, 65, 34
1, 534417, Note_off_c, 0, 65, 60
1, 534433, Note_off_c, 0, 38, 38
1, 534449, Note_off_c, 0, 35, 41
1, 534450, Note_on_c, 0, 74, 45
1, 534480, Note_off_c, 0, 77, 37
1, 534612, Note_on_c, 0, 35, 35
1, 534613, Note_on_c, 0, 38, 36
1, 534620, Note_on_c, 0, 62, 38
1, 534650, Note_off_c, 0, 62, 53
1, 534743, Note_off_c, 0, 74, 60
1, 534757, Note_on_c, 0, 77, 54
1, 534827, Note_off_c, 0, 77, 53
1, 534886, Note_on_c, 0, 74, 49
1, 534905, Note_off_c, 0, 38, 33
1, 534915, Note_off_c, 0, 35, 34
1, 534934, Note_off_c, 0, 74, 59
1, 535042, Note_on_c, 0, 89, 63
1, 535045, Note_on_c, 0, 35, 36
1, 535060, Note_on_c, 0, 38, 34
1, 535085, Note_off_c, 0, 89, 53
1, 535184, Note_on_c, 0, 74, 54
1, 535187, Note_off_c, 0, 38, 35
1, 535201, Note_off_c, 0, 35, 40
1, 535245, Note_off_c, 0, 74, 51
1, 535333, Note_on_c, 0, 77, 51
1, 535371, Note_off_c, 0, 77, 60
1, 535479, Note_on_c, 0, 53, 69
1, 535511, Note_on_c, 0, 62, 31
1, 535522, Note_on_c, 0, 41, 45
1, 535550, Note_off_c, 0, 62, 50
1, 535648, Note_on_c, 0, 77, 45
1, 535757, Note_off_c, 0, 77, 53
1, 535793, Note_off_c, 0, 53, 58
1, 535795, Note_on_c, 0, 74, 47
1, 535970, Note_off_c, 0, 74, 64
1, 535979, Note_on_c, 0, 52, 71
1, 535979, Note_on_c, 0, 79, 58
1, 536045, Note_on_c, 0, 40, 48
1, 536045, Control_c, 0, 64, 110
1, 536060, Control_c, 0, 64, 83
1, 536063, Note_off_c, 0, 41, 40
1, 536074, Control_c, 0, 64, 66
1, 536089, Control_c, 0, 64, 45
1, 536104, Control_c, 0, 64, 43
1, 536119, Control_c, 0, 64, 53
1, 536134, Control_c, 0, 64, 63
1, 536149, Note_on_c, 0, 71, 45
1, 536149, Control_c, 0, 64, 69
1, 536164, Control_c, 0, 64, 77
1, 536179, Control_c, 0, 64, 89
1, 536193, Control_c, 0, 64, 118
1, 536208, Control_c, 0, 64, 127
1, 536274, Note_off_c, 0, 52, 61
1, 536283, Note_off_c, 0, 71, 53
1, 536299, Note_off_c, 0, 79, 52
1, 536300, Note_on_c, 0, 77, 51
1, 536322, Note_off_c, 0, 77, 60
1, 536427, Note_on_c, 0, 51, 77
1, 536441, Note_off_c, 0, 40, 62
1, 536462, Note_on_c, 0, 39, 40
1, 536533, Note_on_c, 0, 59, 24
1, 536581, Note_off_c, 0, 59, 47
1, 536621, Note_on_c, 0, 71, 38
1, 536715, Note_off_c, 0, 51, 55
1, 536721, Note_off_c, 0, 71, 58
1, 536766, Note_on_c, 0, 65, 42
1, 536799, Note_off_c, 0, 65, 64
1, 536984, Note_on_c, 0, 76, 63
1, 537017, Note_on_c, 0, 50, 73
1, 537038, Note_on_c, 0, 38, 51
1, 537046, Control_c, 0, 64, 108
1, 537060, Control_c, 0, 64, 79
1, 537075, Control_c, 0, 64, 27
1, 537090, Control_c, 0, 64, 0
1, 537091, Note_off_c, 0, 39, 44
1, 537134, Control_c, 0, 64, 60
1, 537149, Control_c, 0, 64, 73
1, 537164, Control_c, 0, 64, 95
1, 537179, Control_c, 0, 64, 127
1, 537194, Note_off_c, 0, 76, 60
1, 537306, Note_off_c, 0, 50, 61
1, 537323, Note_off_c, 0, 38, 39
1, 537332, Note_on_c, 0, 59, 47
1, 537376, Note_off_c, 0, 59, 57
1, 537455, Note_on_c, 0, 68, 50
1, 537525, Note_off_c, 0, 68, 43
1, 537589, Note_on_c, 0, 44, 48
1, 537592, Note_on_c, 0, 35, 40
1, 537622, Note_on_c, 0, 64, 42
1, 537651, Note_off_c, 0, 64, 55
1, 537824, Note_on_c, 0, 80, 23
1, 537870, Note_off_c, 0, 80, 47
1, 537904, Note_off_c, 0, 35, 44
1, 537911, Note_on_c, 0, 76, 59
1, 537934, Note_off_c, 0, 44, 34
1, 538047, Note_off_c, 0, 76, 35
1, 538048, Note_on_c, 0, 35, 40
1, 538054, Note_on_c, 0, 88, 61
1, 538055, Note_on_c, 0, 44, 44
1, 538175, Note_on_c, 0, 76, 47
1, 538286, Note_off_c, 0, 88, 34
1, 538295, Note_off_c, 0, 76, 59
1, 538328, Note_on_c, 0, 80, 53
1, 538349, Note_off_c, 0, 80, 63
1, 538473, Note_on_c, 0, 47, 63
1, 538513, Note_on_c, 0, 62, 46
1, 538543, Note_off_c, 0, 62, 57
1, 538566, Note_off_c, 0, 44, 36
1, 538623, Note_on_c, 0, 77, 68
1, 538751, Note_on_c, 0, 68, 54
1, 538847, Note_off_c, 0, 68, 59
1, 538940, Note_on_c, 0, 44, 75
1, 539055, Control_c, 0, 64, 96
1, 539070, Control_c, 0, 64, 74
1, 539085, Control_c, 0, 64, 66
1, 539100, Control_c, 0, 64, 65
1, 539107, Note_on_c, 0, 76, 60
1, 539114, Control_c, 0, 64, 69
1, 539122, Note_off_c, 0, 77, 47
1, 539129, Control_c, 0, 64, 75
1, 539144, Control_c, 0, 64, 84
1, 539159, Control_c, 0, 64, 103
1, 539174, Control_c, 0, 64, 127
1, 539266, Note_on_c, 0, 77, 51
1, 539272, Note_off_c, 0, 76, 56
1, 539341, Note_off_c, 0, 77, 58
1, 539347, Note_off_c, 0, 35, 42
1, 539351, Note_off_c, 0, 47, 35
1, 539402, Note_on_c, 0, 76, 23
1, 539444, Note_off_c, 0, 76, 51
1, 539447, Note_on_c, 0, 77, 56
1, 539455, Note_on_c, 0, 40, 46
1, 539465, Note_off_c, 0, 44, 59
1, 539467, Note_on_c, 0, 35, 48
1, 539483, Note_off_c, 0, 77, 62
1, 539531, Note_on_c, 0, 76, 63
1, 539561, Note_off_c, 0, 76, 62
1, 539579, Note_on_c, 0, 77, 59
1, 539606, Note_off_c, 0, 77, 65
1, 539637, Note_on_c, 0, 76, 66
1, 539646, Note_off_c, 0, 40, 38
1, 539656, Note_off_c, 0, 35, 40
1, 539681, Note_off_c, 0, 76, 55
1, 539682, Note_on_c, 0, 77, 58
1, 539718, Note_off_c, 0, 77, 58
1, 539760, Note_on_c, 0, 76, 56
1, 539781, Note_on_c, 0, 40, 40
1, 539783, Note_on_c, 0, 35, 37
1, 539798, Note_off_c, 0, 76, 60
1, 539807, Note_on_c, 0, 77, 54
1, 539833, Note_off_c, 0, 77, 62
1, 539866, Note_on_c, 0, 76, 63
1, 539906, Note_off_c, 0, 76, 54
1, 539912, Note_on_c, 0, 77, 64
1, 539939, Note_on_c, 0, 38, 59
1, 539944, Note_off_c, 0, 77, 60
1, 539958, Note_off_c, 0, 40, 42
1, 539978, Note_on_c, 0, 76, 60
1, 539986, Note_off_c, 0, 35, 33
1, 540015, Note_off_c, 0, 76, 61
1, 540042, Note_on_c, 0, 77, 53
1, 540061, Note_off_c, 0, 77, 63
1, 540092, Note_on_c, 0, 76, 60
1, 540128, Note_off_c, 0, 76, 60
1, 540130, Note_on_c, 0, 77, 66
1, 540158, Note_off_c, 0, 77, 62
1, 540198, Note_on_c, 0, 76, 65
1, 540233, Note_off_c, 0, 76, 61
1, 540242, Note_on_c, 0, 77, 67
1, 540280, Note_off_c, 0, 77, 58
1, 540296, Note_on_c, 0, 76, 68
1, 540350, Note_off_c, 0, 76, 59
1, 540366, Note_on_c, 0, 74, 69
1, 540410, Note_on_c, 0, 35, 39
1, 540417, Note_on_c, 0, 40, 39
1, 540456, Control_c, 0, 64, 95
1, 540471, Control_c, 0, 64, 76
1, 540486, Control_c, 0, 64, 63
1, 540508, Control_c, 0, 64, 45
1, 540523, Control_c, 0, 64, 45
1, 540538, Control_c, 0, 64, 50
1, 540552, Control_c, 0, 64, 56
1, 540567, Control_c, 0, 64, 63
1, 540582, Control_c, 0, 64, 67
1, 540597, Control_c, 0, 64, 73
1, 540612, Control_c, 0, 64, 79
1, 540623, Note_on_c, 0, 76, 69
1, 540626, Control_c, 0, 64, 85
1, 540641, Control_c, 0, 64, 91
1, 540656, Control_c, 0, 64, 97
1, 540662, Note_off_c, 0, 74, 64
1, 540671, Control_c, 0, 64, 104
1, 540685, Control_c, 0, 64, 113
1, 540686, Note_off_c, 0, 38, 50
1, 540700, Control_c, 0, 64, 127
1, 540898, Note_on_c, 0, 38, 52
1, 540898, Note_on_c, 0, 74, 58
1, 540921, Note_off_c, 0, 76, 38
1, 540923, Control_c, 0, 64, 116
1, 540936, Note_on_c, 0, 36, 36
1, 540938, Control_c, 0, 64, 88
1, 540953, Control_c, 0, 64, 70
1, 540968, Control_c, 0, 64, 0
1, 540983, Note_off_c, 0, 40, 42
1, 541003, Note_off_c, 0, 35, 41
1, 541042, Control_c, 0, 64, 58
1, 541056, Control_c, 0, 64, 72
1, 541071, Control_c, 0, 64, 93
1, 541086, Control_c, 0, 64, 127
1, 541098, Note_off_c, 0, 74, 56
1, 541148, Note_off_c, 0, 36, 38
1, 541250, Note_on_c, 0, 62, 49
1, 541284, Note_off_c, 0, 62, 63
1, 541390, Note_on_c, 0, 41, 46
1, 541394, Note_on_c, 0, 36, 40
1, 541456, Poly_aftertouch_c, 0, 59, 127
1, 541497, Poly_aftertouch_c, 0, 59, 0
1, 541514, Note_off_c, 0, 41, 34
1, 541538, Note_on_c, 0, 74, 52
1, 541565, Note_off_c, 0, 36, 40
1, 541591, Note_off_c, 0, 74, 57
1, 541672, Note_on_c, 0, 71, 52
1, 541720, Note_off_c, 0, 71, 62
1, 541838, Note_on_c, 0, 86, 57
1, 541857, Note_on_c, 0, 41, 29
1, 541872, Note_off_c, 0, 86, 56
1, 541873, Note_on_c, 0, 36, 24
1, 541963, Note_off_c, 0, 41, 33
1, 541975, Note_on_c, 0, 71, 54
1, 542066, Note_off_c, 0, 71, 57
1, 542089, Note_off_c, 0, 36, 40
1, 542126, Note_on_c, 0, 74, 61
1, 542161, Note_off_c, 0, 74, 62
1, 542263, Note_on_c, 0, 36, 32
1, 542277, Note_on_c, 0, 41, 42
1, 542278, Note_on_c, 0, 59, 57
1, 542315, Note_off_c, 0, 59, 60
1, 542349, Note_off_c, 0, 38, 57
1, 542421, Note_on_c, 0, 74, 55
1, 542457, Note_off_c, 0, 74, 63
1, 542564, Note_on_c, 0, 71, 48
1, 542594, Note_off_c, 0, 71, 66
1, 542699, Note_on_c, 0, 85, 66
1, 542702, Control_c, 0, 64, 85
1, 542709, Note_on_c, 0, 39, 54
1, 542716, Note_off_c, 0, 41, 47
1, 542717, Control_c, 0, 64, 62
1, 542728, Note_off_c, 0, 36, 43
1, 542732, Control_c, 0, 64, 0
1, 542802, Note_off_c, 0, 85, 63
1, 542814, Control_c, 0, 64, 63
1, 542828, Control_c, 0, 64, 74
1, 542843, Control_c, 0, 64, 88
1, 542844, Note_on_c, 0, 70, 54
1, 542858, Control_c, 0, 64, 127
1, 542889, Note_off_c, 0, 70, 56
1, 542975, Note_on_c, 0, 73, 59
1, 543051, Note_off_c, 0, 73, 49
1, 543134, Note_on_c, 0, 42, 45
1, 543136, Note_on_c, 0, 58, 49
1, 543138, Note_on_c, 0, 36, 37
1, 543187, Note_off_c, 0, 58, 55
1, 543279, Note_on_c, 0, 73, 58
1, 543310, Note_off_c, 0, 42, 46
1, 543353, Note_off_c, 0, 36, 40
1, 543373, Note_off_c, 0, 73, 51
1, 543428, Note_on_c, 0, 70, 53
1, 543515, Note_off_c, 0, 70, 49
1, 543580, Note_on_c, 0, 42, 49
1, 543583, Note_on_c, 0, 73, 54
1, 543587, Note_on_c, 0, 36, 36
1, 543613, Note_off_c, 0, 73, 63
1, 543687, Note_off_c, 0, 42, 40
1, 543714, Note_on_c, 0, 58, 50
1, 543762, Note_off_c, 0, 58, 58
1, 543779, Note_off_c, 0, 36, 40
1, 543877, Note_on_c, 0, 61, 29
1, 543933, Note_off_c, 0, 61, 43
1, 543998, Note_on_c, 0, 42, 52
1, 544001, Note_on_c, 0, 46, 51
1, 544003, Note_on_c, 0, 36, 40
1, 544038, Note_off_c, 0, 42, 61
1, 544039, Note_off_c, 0, 39, 57
1, 544039, Note_off_c, 0, 46, 58
1, 544058, Note_off_c, 0, 36, 57
1, 544149, Note_on_c, 0, 61, 55
1, 544231, Note_off_c, 0, 61, 59
1, 544285, Note_on_c, 0, 49, 53
1, 544296, Control_c, 0, 64, 101
1, 544311, Control_c, 0, 64, 75
1, 544319, Note_off_c, 0, 49, 62
1, 544325, Note_on_c, 0, 29, 61
1, 544325, Control_c, 0, 64, 42
1, 544340, Control_c, 0, 64, 0
1, 544364, Note_on_c, 0, 33, 61
1, 544396, Note_on_c, 0, 36, 74
1, 544399, Control_c, 0, 64, 47
1, 544412, Note_off_c, 0, 29, 63
1, 544414, Control_c, 0, 64, 66
1, 544427, Note_off_c, 0, 33, 61
1, 544429, Control_c, 0, 64, 75
1, 544436, Note_on_c, 0, 40, 76
1, 544441, Note_off_c, 0, 36, 61
1, 544443, Control_c, 0, 64, 89
1, 544458, Control_c, 0, 64, 116
1, 544459, Note_off_c, 0, 40, 66
1, 544473, Note_on_c, 0, 52, 67
1, 544473, Control_c, 0, 64, 127
1, 544481, Note_on_c, 0, 48, 68
1, 544484, Note_on_c, 0, 45, 51
1, 544504, Note_off_c, 0, 48, 65
1, 544507, Note_off_c, 0, 52, 62
1, 544513, Note_off_c, 0, 45, 62
1, 544577, Control_c, 0, 64, 106
1, 544591, Control_c, 0, 64, 77
1, 544606, Control_c, 0, 64, 55
1, 544621, Control_c, 0, 64, 0
1, 544755, Control_c, 0, 64, 29
1, 544769, Control_c, 0, 64, 49
1, 544784, Control_c, 0, 64, 54
1, 544799, Control_c, 0, 64, 59
1, 544814, Control_c, 0, 64, 63
1, 544829, Control_c, 0, 64, 66
1, 544843, Control_c, 0, 64, 71
1, 544858, Control_c, 0, 64, 76
1, 544873, Control_c, 0, 64, 82
1, 544888, Control_c, 0, 64, 87
1, 544903, Control_c, 0, 64, 92
1, 544918, Note_on_c, 0, 52, 42
1, 544919, Control_c, 0, 64, 99
1, 544920, Note_on_c, 0, 45, 42
1, 544920, Note_on_c, 0, 48, 38
1, 544933, Note_on_c, 0, 88, 61
1, 544933, Control_c, 0, 64, 109
1, 544948, Control_c, 0, 64, 127
1, 544969, Note_off_c, 0, 88, 60
1, 545077, Note_on_c, 0, 72, 55
1, 545109, Note_off_c, 0, 45, 47
1, 545127, Note_off_c, 0, 52, 41
1, 545127, Note_off_c, 0, 72, 49
1, 545146, Note_off_c, 0, 48, 38
1, 545210, Note_on_c, 0, 76, 52
1, 545258, Note_off_c, 0, 76, 56
1, 545375, Note_on_c, 0, 60, 52
1, 545380, Note_on_c, 0, 52, 38
1, 545384, Note_on_c, 0, 45, 31
1, 545387, Note_on_c, 0, 48, 34
1, 545467, Note_off_c, 0, 48, 41
1, 545500, Note_off_c, 0, 60, 55
1, 545502, Note_off_c, 0, 52, 34
1, 545527, Note_off_c, 0, 45, 31
1, 545832, Note_on_c, 0, 52, 39
1, 545845, Note_on_c, 0, 45, 31
1, 545851, Note_on_c, 0, 48, 28
1, 545876, Note_off_c, 0, 52, 59
1, 545887, Note_off_c, 0, 48, 50
1, 545890, Note_off_c, 0, 45, 49
1, 546090, Control_c, 0, 64, 121
1, 546105, Control_c, 0, 64, 89
1, 546120, Control_c, 0, 64, 74
1, 546135, Control_c, 0, 64, 63
1, 546150, Control_c, 0, 64, 40
1, 546159, Note_on_c, 0, 31, 63
1, 546164, Control_c, 0, 64, 35
1, 546179, Control_c, 0, 64, 48
1, 546194, Note_on_c, 0, 35, 66
1, 546194, Control_c, 0, 64, 64
1, 546209, Control_c, 0, 64, 72
1, 546223, Control_c, 0, 64, 84
1, 546226, Note_on_c, 0, 38, 72
1, 546233, Note_off_c, 0, 31, 63
1, 546238, Control_c, 0, 64, 103
1, 546244, Note_off_c, 0, 35, 63
1, 546253, Control_c, 0, 64, 127
1, 546254, Note_on_c, 0, 41, 84
1, 546257, Note_off_c, 0, 38, 65
1, 546260, Note_on_c, 0, 52, 72
1, 546268, Note_on_c, 0, 45, 63
1, 546273, Note_on_c, 0, 48, 66
1, 546281, Note_off_c, 0, 41, 66
1, 546290, Note_off_c, 0, 52, 66
1, 546290, Note_off_c, 0, 45, 62
1, 546295, Note_off_c, 0, 48, 63
1, 546371, Control_c, 0, 64, 103
1, 546386, Control_c, 0, 64, 74
1, 546401, Control_c, 0, 64, 52
1, 546415, Control_c, 0, 64, 0
1, 546558, Control_c, 0, 64, 36
1, 546573, Control_c, 0, 64, 51
1, 546588, Control_c, 0, 64, 60
1, 546602, Control_c, 0, 64, 64
1, 546617, Control_c, 0, 64, 67
1, 546631, Control_c, 0, 64, 70
1, 546645, Control_c, 0, 64, 74
1, 546660, Control_c, 0, 64, 77
1, 546675, Control_c, 0, 64, 83
1, 546690, Control_c, 0, 64, 88
1, 546705, Control_c, 0, 64, 94
1, 546716, Note_on_c, 0, 76, 58
1, 546719, Control_c, 0, 64, 100
1, 546733, Note_on_c, 0, 52, 50
1, 546734, Note_on_c, 0, 45, 46
1, 546734, Control_c, 0, 64, 106
1, 546735, Note_on_c, 0, 48, 46
1, 546749, Control_c, 0, 64, 114
1, 546752, Note_off_c, 0, 76, 61
1, 546764, Control_c, 0, 64, 127
1, 546847, Note_on_c, 0, 60, 49
1, 546859, Note_off_c, 0, 48, 49
1, 546868, Note_off_c, 0, 52, 34
1, 546892, Note_off_c, 0, 60, 58
1, 546913, Note_off_c, 0, 45, 45
1, 546975, Note_on_c, 0, 64, 61
1, 547004, Note_off_c, 0, 64, 67
1, 547143, Note_on_c, 0, 48, 57
1, 547154, Note_on_c, 0, 52, 45
1, 547160, Note_on_c, 0, 45, 47
1, 547226, Note_off_c, 0, 52, 55
1, 547244, Note_off_c, 0, 45, 52
1, 547305, Control_c, 0, 64, 122
1, 547321, Control_c, 0, 64, 116
1, 547336, Control_c, 0, 64, 112
1, 547350, Control_c, 0, 64, 110
1, 547365, Control_c, 0, 64, 108
1, 547380, Control_c, 0, 64, 106
1, 547395, Control_c, 0, 64, 106
1, 547410, Control_c, 0, 64, 105
1, 547424, Control_c, 0, 64, 105
1, 547439, Control_c, 0, 64, 104
1, 547468, Control_c, 0, 64, 103
1, 547483, Control_c, 0, 64, 103
1, 547498, Control_c, 0, 64, 102
1, 547599, Note_on_c, 0, 52, 52
1, 547602, Note_on_c, 0, 45, 53
1, 547634, Note_off_c, 0, 52, 62
1, 547637, Note_off_c, 0, 45, 64
1, 547797, Note_off_c, 0, 48, 52
1, 547917, Note_on_c, 0, 33, 64
1, 547952, Note_on_c, 0, 36, 67
1, 547988, Note_on_c, 0, 40, 81
1, 547994, Control_c, 0, 64, 102
1, 548002, Note_off_c, 0, 33, 60
1, 548008, Note_on_c, 0, 52, 63
1, 548009, Control_c, 0, 64, 100
1, 548013, Note_on_c, 0, 45, 63
1, 548013, Note_on_c, 0, 48, 62
1, 548020, Note_off_c, 0, 36, 61
1, 548024, Control_c, 0, 64, 96
1, 548028, Note_on_c, 0, 43, 81
1, 548036, Note_off_c, 0, 40, 64
1, 548039, Control_c, 0, 64, 91
1, 548054, Control_c, 0, 64, 85
1, 548055, Note_off_c, 0, 43, 67
1, 548068, Control_c, 0, 64, 80
1, 548083, Control_c, 0, 64, 75
1, 548098, Control_c, 0, 64, 72
1, 548114, Control_c, 0, 64, 69
1, 548129, Control_c, 0, 64, 67
1, 548144, Control_c, 0, 64, 65
1, 548159, Control_c, 0, 64, 64
1, 548174, Control_c, 0, 64, 62
1, 548189, Control_c, 0, 64, 58
1, 548204, Control_c, 0, 64, 52
1, 548218, Control_c, 0, 64, 46
1, 548233, Control_c, 0, 64, 38
1, 548244, Note_off_c, 0, 52, 54
1, 548248, Control_c, 0, 64, 24
1, 548263, Control_c, 0, 64, 0
1, 548264, Note_off_c, 0, 48, 49
1, 548272, Note_off_c, 0, 45, 37
1, 548366, Control_c, 0, 64, 21
1, 548381, Control_c, 0, 64, 44
1, 548396, Control_c, 0, 64, 55
1, 548410, Control_c, 0, 64, 62
1, 548425, Control_c, 0, 64, 64
1, 548440, Control_c, 0, 64, 66
1, 548455, Control_c, 0, 64, 68
1, 548470, Control_c, 0, 64, 71
1, 548478, Note_on_c, 0, 52, 40
1, 548479, Note_on_c, 0, 45, 40
1, 548484, Control_c, 0, 64, 74
1, 548485, Note_on_c, 0, 48, 40
1, 548499, Control_c, 0, 64, 76
1, 548514, Control_c, 0, 64, 79
1, 548529, Control_c, 0, 64, 81
1, 548544, Control_c, 0, 64, 83
1, 548558, Control_c, 0, 64, 85
1, 548573, Control_c, 0, 64, 88
1, 548588, Control_c, 0, 64, 89
1, 548603, Control_c, 0, 64, 90
1, 548618, Control_c, 0, 64, 91
1, 548633, Control_c, 0, 64, 92
1, 548648, Control_c, 0, 64, 92
1, 548663, Control_c, 0, 64, 94
1, 548678, Control_c, 0, 64, 95
1, 548692, Control_c, 0, 64, 97
1, 548707, Control_c, 0, 64, 98
1, 548722, Control_c, 0, 64, 99
1, 548744, Control_c, 0, 64, 100
1, 548755, Note_off_c, 0, 52, 40
1, 548759, Note_off_c, 0, 48, 39
1, 548759, Control_c, 0, 64, 100
1, 548762, Note_off_c, 0, 45, 38
1, 548773, Control_c, 0, 64, 101
1, 548788, Control_c, 0, 64, 102
1, 548803, Control_c, 0, 64, 103
1, 548818, Control_c, 0, 64, 103
1, 548833, Control_c, 0, 64, 104
1, 548863, Control_c, 0, 64, 105
1, 548935, Note_on_c, 0, 45, 36
1, 548939, Note_on_c, 0, 48, 39
1, 548941, Note_on_c, 0, 52, 38
1, 549172, Note_off_c, 0, 45, 36
1, 549181, Note_off_c, 0, 52, 40
1, 549185, Note_off_c, 0, 48, 39
1, 549263, Control_c, 0, 64, 105
1, 549278, Control_c, 0, 64, 106
1, 549293, Control_c, 0, 64, 106
1, 549307, Control_c, 0, 64, 108
1, 549322, Control_c, 0, 64, 109
1, 549337, Control_c, 0, 64, 110
1, 549352, Control_c, 0, 64, 110
1, 549363, Note_on_c, 0, 52, 40
1, 549366, Control_c, 0, 64, 111
1, 549371, Note_on_c, 0, 48, 32
1, 549372, Note_on_c, 0, 45, 34
1, 549381, Control_c, 0, 64, 112
1, 549396, Control_c, 0, 64, 112
1, 549411, Control_c, 0, 64, 113
1, 549540, Note_off_c, 0, 48, 28
1, 549563, Note_off_c, 0, 45, 27
1, 549569, Note_off_c, 0, 52, 39
1, 549577, Note_on_c, 0, 62, 49
1, 549586, Note_on_c, 0, 59, 45
1, 549641, Note_off_c, 0, 59, 54
1, 549664, Note_off_c, 0, 62, 48
1, 549805, Control_c, 0, 64, 109
1, 549819, Note_on_c, 0, 64, 53
1, 549819, Control_c, 0, 64, 97
1, 549834, Control_c, 0, 64, 81
1, 549837, Note_on_c, 0, 52, 42
1, 549844, Note_on_c, 0, 60, 38
1, 549845, Note_on_c, 0, 57, 35
1, 549849, Control_c, 0, 64, 66
1, 549864, Note_on_c, 0, 45, 25
1, 549864, Control_c, 0, 64, 27
1, 549865, Note_on_c, 0, 48, 16
1, 549879, Control_c, 0, 64, 11
1, 549894, Control_c, 0, 64, 45
1, 549909, Control_c, 0, 64, 63
1, 549924, Control_c, 0, 64, 69
1, 549938, Control_c, 0, 64, 75
1, 549953, Control_c, 0, 64, 82
1, 549968, Control_c, 0, 64, 89
1, 549982, Control_c, 0, 64, 95
1, 549997, Control_c, 0, 64, 98
1, 550012, Control_c, 0, 64, 102
1, 550027, Control_c, 0, 64, 105
1, 550042, Control_c, 0, 64, 109
1, 550056, Control_c, 0, 64, 111
1, 550071, Control_c, 0, 64, 112
1, 550086, Control_c, 0, 64, 114
1, 550101, Control_c, 0, 64, 116
1, 550116, Control_c, 0, 64, 119
1, 550130, Control_c, 0, 64, 127
1, 550146, Note_off_c, 0, 45, 37
1, 550149, Note_off_c, 0, 52, 31
1, 550150, Note_off_c, 0, 48, 34
1, 550305, Note_on_c, 0, 48, 40
1, 550311, Note_on_c, 0, 52, 35
1, 550320, Note_on_c, 0, 45, 31
1, 550433, Note_off_c, 0, 48, 33
1, 550436, Note_off_c, 0, 52, 35
1, 550457, Note_off_c, 0, 45, 29
1, 550748, Note_on_c, 0, 52, 33
1, 550762, Note_on_c, 0, 48, 28
1, 550768, Note_on_c, 0, 45, 23
1, 550797, Note_off_c, 0, 64, 37
1, 550800, Note_off_c, 0, 57, 41
1, 550805, Note_off_c, 0, 60, 37
1, 550943, Note_off_c, 0, 45, 30
1, 550944, Note_off_c, 0, 48, 31
1, 550955, Note_off_c, 0, 52, 36
1, 551194, Note_on_c, 0, 52, 28
1, 551196, Note_on_c, 0, 45, 35
1, 551197, Note_on_c, 0, 48, 36
1, 551258, Note_off_c, 0, 48, 51
1, 551267, Note_off_c, 0, 45, 47
1, 551274, Note_off_c, 0, 52, 50
1, 551495, Control_c, 0, 64, 100
1, 551506, Note_on_c, 0, 30, 49
1, 551510, Control_c, 0, 64, 83
1, 551524, Control_c, 0, 64, 68
1, 551539, Control_c, 0, 64, 57
1, 551542, Note_on_c, 0, 33, 45
1, 551554, Control_c, 0, 64, 54
1, 551569, Control_c, 0, 64, 61
1, 551576, Note_on_c, 0, 36, 55
1, 551584, Control_c, 0, 64, 65
1, 551597, Note_off_c, 0, 30, 56
1, 551599, Control_c, 0, 64, 71
1, 551610, Note_on_c, 0, 52, 45
1, 551614, Control_c, 0, 64, 79
1, 551619, Note_off_c, 0, 33, 58
1, 551620, Note_on_c, 0, 40, 56
1, 551627, Note_on_c, 0, 48, 37
1, 551629, Control_c, 0, 64, 90
1, 551630, Note_on_c, 0, 45, 34
1, 551633, Note_off_c, 0, 36, 61
1, 551643, Control_c, 0, 64, 102
1, 551658, Control_c, 0, 64, 118
1, 551661, Note_off_c, 0, 40, 63
1, 551671, Note_off_c, 0, 45, 62
1, 551673, Control_c, 0, 64, 127
1, 551682, Note_off_c, 0, 48, 57
1, 551715, Note_off_c, 0, 52, 61
1, 551814, Control_c, 0, 64, 123
1, 551829, Control_c, 0, 64, 102
1, 551843, Control_c, 0, 64, 89
1, 551858, Control_c, 0, 64, 79
1, 551873, Control_c, 0, 64, 69
1, 551888, Control_c, 0, 64, 61
1, 551903, Control_c, 0, 64, 26
1, 551917, Control_c, 0, 64, 0
1, 551991, Control_c, 0, 64, 28
1, 552006, Control_c, 0, 64, 64
1, 552021, Control_c, 0, 64, 71
1, 552036, Control_c, 0, 64, 79
1, 552050, Control_c, 0, 64, 90
1, 552055, Note_on_c, 0, 60, 44
1, 552065, Control_c, 0, 64, 103
1, 552067, Note_on_c, 0, 48, 41
1, 552067, Note_on_c, 0, 45, 37
1, 552080, Control_c, 0, 64, 126
1, 552095, Control_c, 0, 64, 127
1, 552102, Note_off_c, 0, 60, 61
1, 552195, Note_on_c, 0, 76, 54
1, 552246, Note_off_c, 0, 45, 43
1, 552248, Note_off_c, 0, 48, 41
1, 552255, Note_off_c, 0, 76, 45
1, 552324, Note_on_c, 0, 72, 45
1, 552354, Note_off_c, 0, 72, 55
1, 552505, Note_on_c, 0, 88, 65
1, 552522, Note_on_c, 0, 45, 35
1, 552523, Note_on_c, 0, 48, 40
1, 552531, Note_off_c, 0, 88, 66
1, 552652, Note_off_c, 0, 48, 30
1, 552686, Note_off_c, 0, 45, 28
1, 552946, Note_on_c, 0, 45, 36
1, 552951, Note_on_c, 0, 48, 37
1, 552983, Note_off_c, 0, 48, 54
1, 552990, Note_off_c, 0, 45, 54
1, 553267, Control_c, 0, 64, 109
1, 553281, Note_on_c, 0, 32, 54
1, 553281, Control_c, 0, 64, 87
1, 553296, Control_c, 0, 64, 73
1, 553311, Control_c, 0, 64, 63
1, 553322, Note_on_c, 0, 35, 47
1, 553326, Control_c, 0, 64, 59
1, 553341, Control_c, 0, 64, 62
1, 553355, Note_on_c, 0, 38, 53
1, 553355, Control_c, 0, 64, 65
1, 553370, Control_c, 0, 64, 68
1, 553382, Note_on_c, 0, 48, 46
1, 553382, Note_off_c, 0, 32, 56
1, 553385, Control_c, 0, 64, 73
1, 553388, Note_on_c, 0, 42, 63
1, 553399, Control_c, 0, 64, 79
1, 553402, Note_off_c, 0, 35, 63
1, 553404, Note_on_c, 0, 45, 39
1, 553409, Note_off_c, 0, 38, 62
1, 553414, Control_c, 0, 64, 87
1, 553429, Note_off_c, 0, 42, 61
1, 553429, Control_c, 0, 64, 97
1, 553444, Control_c, 0, 64, 105
1, 553446, Note_off_c, 0, 45, 60
1, 553459, Control_c, 0, 64, 111
1, 553474, Control_c, 0, 64, 117
1, 553484, Note_off_c, 0, 48, 59
1, 553489, Control_c, 0, 64, 126
1, 553504, Control_c, 0, 64, 127
1, 553667, Control_c, 0, 64, 104
1, 553681, Control_c, 0, 64, 86
1, 553696, Control_c, 0, 64, 71
1, 553712, Control_c, 0, 64, 44
1, 553727, Control_c, 0, 64, 0
1, 553772, Control_c, 0, 64, 36
1, 553786, Control_c, 0, 64, 63
1, 553801, Control_c, 0, 64, 72
1, 553804, Note_on_c, 0, 45, 44
1, 553816, Control_c, 0, 64, 82
1, 553817, Note_on_c, 0, 48, 33
1, 553830, Control_c, 0, 64, 94
1, 553845, Control_c, 0, 64, 104
1, 553854, Note_off_c, 0, 48, 45
1, 553860, Control_c, 0, 64, 110
1, 553875, Control_c, 0, 64, 111
1, 553890, Control_c, 0, 64, 112
1, 553948, Note_on_c, 0, 64, 50
1, 553988, Note_off_c, 0, 45, 48
1, 554005, Note_off_c, 0, 64, 59
1, 554030, Control_c, 0, 64, 113
1, 554045, Control_c, 0, 64, 114
1, 554060, Control_c, 0, 64, 116
1, 554073, Note_on_c, 0, 60, 49
1, 554075, Control_c, 0, 64, 121
1, 554090, Control_c, 0, 64, 127
1, 554121, Note_off_c, 0, 60, 62
1, 554243, Note_on_c, 0, 76, 59
1, 554243, Note_on_c, 0, 45, 41
1, 554263, Note_off_c, 0, 76, 63
1, 554368, Note_off_c, 0, 45, 35
1, 554696, Note_on_c, 0, 45, 41
1, 554736, Note_off_c, 0, 45, 57
1, 555015, Control_c, 0, 64, 107
1, 555030, Control_c, 0, 64, 88
1, 555045, Control_c, 0, 64, 72
1, 555060, Control_c, 0, 64, 64
1, 555075, Control_c, 0, 64, 62
1, 555090, Control_c, 0, 64, 64
1, 555105, Control_c, 0, 64, 66
1, 555119, Control_c, 0, 64, 70
1, 555122, Note_on_c, 0, 33, 55
1, 555122, Note_on_c, 0, 40, 54
1, 555123, Note_on_c, 0, 43, 57
1, 555124, Note_on_c, 0, 36, 56
1, 555126, Note_on_c, 0, 48, 45
1, 555134, Control_c, 0, 64, 76
1, 555134, Note_on_c, 0, 45, 44
1, 555149, Control_c, 0, 64, 85
1, 555164, Control_c, 0, 64, 98
1, 555178, Control_c, 0, 64, 112
1, 555185, Note_off_c, 0, 40, 62
1, 555188, Note_off_c, 0, 36, 60
1, 555191, Note_off_c, 0, 43, 63
1, 555193, Control_c, 0, 64, 127
1, 555196, Note_off_c, 0, 33, 60
1, 555234, Note_off_c, 0, 45, 0
1, 555289, Poly_aftertouch_c, 0, 45, 0
1, 555295, Note_off_c, 0, 48, 30
1, 555343, Control_c, 0, 64, 124
1, 555357, Control_c, 0, 64, 117
1, 555372, Control_c, 0, 64, 112
1, 555387, Control_c, 0, 64, 107
1, 555401, Control_c, 0, 64, 102
1, 555416, Control_c, 0, 64, 96
1, 555431, Control_c, 0, 64, 90
1, 555446, Control_c, 0, 64, 84
1, 555461, Control_c, 0, 64, 78
1, 555483, Control_c, 0, 64, 71
1, 555498, Control_c, 0, 64, 65
1, 555513, Control_c, 0, 64, 61
1, 555528, Control_c, 0, 64, 50
1, 555543, Control_c, 0, 64, 14
1, 555557, Control_c, 0, 64, 0
1, 555601, Note_on_c, 0, 48, 38
1, 555611, Note_on_c, 0, 45, 35
1, 555661, Control_c, 0, 64, 51
1, 555675, Control_c, 0, 64, 65
1, 555690, Control_c, 0, 64, 71
1, 555705, Control_c, 0, 64, 77
1, 555720, Control_c, 0, 64, 83
1, 555735, Control_c, 0, 64, 88
1, 555749, Control_c, 0, 64, 93
1, 555764, Control_c, 0, 64, 97
1, 555779, Control_c, 0, 64, 101
1, 555794, Control_c, 0, 64, 105
1, 555808, Control_c, 0, 64, 109
1, 555823, Control_c, 0, 64, 111
1, 555838, Control_c, 0, 64, 112
1, 555854, Note_off_c, 0, 45, 45
1, 555859, Note_off_c, 0, 48, 38
1, 556032, Note_on_c, 0, 48, 35
1, 556041, Note_on_c, 0, 45, 31
1, 556075, Control_c, 0, 64, 113
1, 556090, Control_c, 0, 64, 114
1, 556106, Control_c, 0, 64, 115
1, 556121, Control_c, 0, 64, 117
1, 556136, Control_c, 0, 64, 118
1, 556151, Control_c, 0, 64, 120
1, 556165, Control_c, 0, 64, 123
1, 556180, Control_c, 0, 64, 127
1, 556197, Note_off_c, 0, 48, 28
1, 556234, Note_off_c, 0, 45, 42
1, 556470, Note_on_c, 0, 48, 34
1, 556488, Note_on_c, 0, 45, 29
1, 556585, Note_off_c, 0, 48, 29
1, 556591, Note_off_c, 0, 45, 34
1, 556670, Note_on_c, 0, 62, 46
1, 556674, Note_on_c, 0, 59, 40
1, 556740, Note_off_c, 0, 59, 50
1, 556776, Note_off_c, 0, 62, 35
1, 556895, Note_on_c, 0, 69, 52
1, 556927, Note_on_c, 0, 48, 37
1, 556929, Control_c, 0, 64, 114
1, 556937, Note_on_c, 0, 60, 36
1, 556941, Note_on_c, 0, 45, 28
1, 556944, Control_c, 0, 64, 100
1, 556946, Note_on_c, 0, 57, 25
1, 556959, Control_c, 0, 64, 85
1, 556980, Control_c, 0, 64, 71
1, 556995, Control_c, 0, 64, 58
1, 557010, Control_c, 0, 64, 36
1, 557039, Note_off_c, 0, 45, 0
1, 557040, Control_c, 0, 64, 51
1, 557049, Note_off_c, 0, 48, 0
1, 557054, Control_c, 0, 64, 61
1, 557069, Control_c, 0, 64, 65
1, 557075, Poly_aftertouch_c, 0, 45, 127
1, 557084, Control_c, 0, 64, 70
1, 557087, Poly_aftertouch_c, 0, 48, 127
1, 557099, Control_c, 0, 64, 74
1, 557114, Control_c, 0, 64, 80
1, 557128, Control_c, 0, 64, 86
1, 557143, Control_c, 0, 64, 92
1, 557158, Control_c, 0, 64, 98
1, 557172, Control_c, 0, 64, 103
1, 557182, Poly_aftertouch_c, 0, 48, 0
1, 557187, Poly_aftertouch_c, 0, 45, 0
1, 557187, Control_c, 0, 64, 107
1, 557202, Control_c, 0, 64, 110
1, 557217, Control_c, 0, 64, 113
1, 557232, Control_c, 0, 64, 115
1, 557246, Control_c, 0, 64, 117
1, 557261, Control_c, 0, 64, 122
1, 557276, Control_c, 0, 64, 127
1, 557382, Note_on_c, 0, 48, 34
1, 557389, Note_on_c, 0, 45, 28
1, 557560, Note_off_c, 0, 45, 42
1, 557576, Note_off_c, 0, 48, 36
1, 557635, Note_off_c, 0, 69, 32
1, 557659, Note_off_c, 0, 60, 39
1, 557672, Note_off_c, 0, 57, 36
1, 557828, Note_on_c, 0, 48, 23
1, 557843, Note_on_c, 0, 45, 26
1, 557996, Note_off_c, 0, 48, 36
1, 558017, Note_off_c, 0, 45, 43
1, 558279, Note_on_c, 0, 45, 25
1, 558295, Note_on_c, 0, 48, 31
1, 558369, Note_off_c, 0, 48, 39
1, 558423, Note_off_c, 0, 45, 45
1, 558652, Note_on_c, 0, 24, 52
1, 558686, Control_c, 0, 64, 126
1, 558700, Control_c, 0, 64, 112
1, 558715, Control_c, 0, 64, 104
1, 558730, Control_c, 0, 64, 97
1, 558733, Note_on_c, 0, 48, 38
1, 558741, Note_on_c, 0, 36, 48
1, 558744, Control_c, 0, 64, 90
1, 558747, Note_on_c, 0, 45, 37
1, 558759, Control_c, 0, 64, 85
1, 558774, Control_c, 0, 64, 81
1, 558775, Note_off_c, 0, 36, 54
1, 558786, Note_off_c, 0, 24, 34
1, 558789, Control_c, 0, 64, 78
1, 558804, Control_c, 0, 64, 75
1, 558819, Control_c, 0, 64, 72
1, 558834, Control_c, 0, 64, 69
1, 558849, Control_c, 0, 64, 68
1, 558863, Control_c, 0, 64, 67
1, 558878, Control_c, 0, 64, 67
1, 558893, Control_c, 0, 64, 66
1, 558908, Control_c, 0, 64, 66
1, 558923, Control_c, 0, 64, 64
1, 558938, Control_c, 0, 64, 63
1, 558942, Note_off_c, 0, 45, 0
1, 558952, Control_c, 0, 64, 61
1, 558967, Control_c, 0, 64, 61
1, 558979, Poly_aftertouch_c, 0, 45, 127
1, 558997, Control_c, 0, 64, 62
1, 559012, Control_c, 0, 64, 63
1, 559026, Control_c, 0, 64, 64
1, 559041, Control_c, 0, 64, 67
1, 559053, Poly_aftertouch_c, 0, 45, 0
1, 559056, Control_c, 0, 64, 70
1, 559059, Note_off_c, 0, 48, 41
1, 559071, Control_c, 0, 64, 74
1, 559086, Control_c, 0, 64, 77
1, 559100, Control_c, 0, 64, 79
1, 559115, Control_c, 0, 64, 81
1, 559130, Control_c, 0, 64, 83
1, 559144, Control_c, 0, 64, 84
1, 559159, Control_c, 0, 64, 86
1, 559174, Control_c, 0, 64, 88
1, 559189, Control_c, 0, 64, 90
1, 559204, Control_c, 0, 64, 92
1, 559210, Note_on_c, 0, 48, 35
1, 559226, Control_c, 0, 64, 94
1, 559230, Note_on_c, 0, 45, 17
1, 559382, Note_off_c, 0, 48, 39
1, 559395, Note_off_c, 0, 45, 42
1, 559656, Note_on_c, 0, 48, 40
1, 559665, Note_on_c, 0, 45, 31
1, 559731, Control_c, 0, 64, 93
1, 559746, Control_c, 0, 64, 92
1, 559761, Control_c, 0, 64, 92
1, 559790, Control_c, 0, 64, 91
1, 559805, Control_c, 0, 64, 91
1, 559820, Control_c, 0, 64, 90
1, 559866, Note_off_c, 0, 48, 37
1, 559868, Note_off_c, 0, 45, 37
1, 560130, Note_on_c, 0, 48, 32
1, 560141, Note_on_c, 0, 45, 27
1, 560285, Note_off_c, 0, 45, 30
1, 560288, Note_off_c, 0, 48, 39
1, 560487, Note_on_c, 0, 21, 59
1, 560494, Control_c, 0, 64, 90
1, 560560, Note_on_c, 0, 48, 42
1, 560578, Note_on_c, 0, 33, 56
1, 560590, Note_off_c, 0, 21, 54
1, 560612, Note_off_c, 0, 48, 41
1, 560614, Note_off_c, 0, 33, 61
1, 560619, Note_on_c, 0, 45, 3
1, 560670, Note_off_c, 0, 45, 44
1, 560798, Control_c, 0, 64, 89
1, 560813, Control_c, 0, 64, 88
1, 560828, Control_c, 0, 64, 87
1, 560843, Control_c, 0, 64, 85
1, 560858, Control_c, 0, 64, 82
1, 560873, Control_c, 0, 64, 80
1, 560887, Control_c, 0, 64, 78
1, 560903, Control_c, 0, 64, 76
1, 560918, Control_c, 0, 64, 76
1, 560933, Control_c, 0, 64, 75
1, 560947, Control_c, 0, 64, 75
1, 560962, Control_c, 0, 64, 74
1, 560977, Control_c, 0, 64, 74
1, 560992, Control_c, 0, 64, 73
1, 561007, Control_c, 0, 64, 72
1, 561022, Control_c, 0, 64, 71
1, 561037, Control_c, 0, 64, 69
1, 561051, Control_c, 0, 64, 68
1, 561052, Note_on_c, 0, 48, 43
1, 561065, Note_on_c, 0, 45, 40
1, 561066, Control_c, 0, 64, 66
1, 561081, Control_c, 0, 64, 63
1, 561096, Control_c, 0, 64, 56
1, 561111, Control_c, 0, 64, 47
1, 561126, Control_c, 0, 64, 40
1, 561155, Control_c, 0, 64, 45
1, 561170, Control_c, 0, 64, 56
1, 561185, Control_c, 0, 64, 63
1, 561200, Control_c, 0, 64, 66
1, 561214, Control_c, 0, 64, 70
1, 561229, Control_c, 0, 64, 73
1, 561244, Control_c, 0, 64, 76
1, 561259, Control_c, 0, 64, 79
1, 561274, Control_c, 0, 64, 82
1, 561288, Control_c, 0, 64, 85
1, 561303, Control_c, 0, 64, 88
1, 561318, Control_c, 0, 64, 91
1, 561333, Control_c, 0, 64, 93
1, 561337, Note_off_c, 0, 45, 41
1, 561347, Control_c, 0, 64, 95
1, 561348, Note_off_c, 0, 48, 34
1, 561362, Control_c, 0, 64, 97
1, 561377, Control_c, 0, 64, 99
1, 561392, Control_c, 0, 64, 100
1, 561503, Control_c, 0, 64, 99
1, 561511, Note_on_c, 0, 48, 53
1, 561518, Control_c, 0, 64, 96
1, 561532, Note_on_c, 0, 45, 35
1, 561533, Control_c, 0, 64, 89
1, 561547, Control_c, 0, 64, 79
1, 561562, Control_c, 0, 64, 71
1, 561577, Control_c, 0, 64, 68
1, 561592, Control_c, 0, 64, 68
1, 561606, Control_c, 0, 64, 70
1, 561621, Control_c, 0, 64, 72
1, 561636, Control_c, 0, 64, 74
1, 561651, Control_c, 0, 64, 78
1, 561665, Control_c, 0, 64, 83
1, 561680, Control_c, 0, 64, 89
1, 561696, Control_c, 0, 64, 95
1, 561711, Control_c, 0, 64, 99
1, 561725, Control_c, 0, 64, 101
1, 561740, Control_c, 0, 64, 102
1, 561755, Control_c, 0, 64, 103
1, 561770, Control_c, 0, 64, 104
1, 561799, Note_off_c, 0, 48, 37
1, 561826, Note_off_c, 0, 45, 44
1, 561973, Note_on_c, 0, 48, 61
1, 561993, Note_on_c, 0, 45, 44
1, 562187, Note_off_c, 0, 48, 55
1, 562195, Note_off_c, 0, 45, 33
1, 562315, Note_on_c, 0, 25, 72
1, 562355, Control_c, 0, 64, 103
1, 562369, Control_c, 0, 64, 102
1, 562384, Control_c, 0, 64, 99
1, 562399, Control_c, 0, 64, 94
1, 562414, Control_c, 0, 64, 85
1, 562423, Note_on_c, 0, 37, 81
1, 562429, Control_c, 0, 64, 74
1, 562443, Note_on_c, 0, 45, 51
1, 562444, Control_c, 0, 64, 64
1, 562458, Control_c, 0, 64, 38
1, 562473, Control_c, 0, 64, 0
1, 562548, Control_c, 0, 64, 46
1, 562563, Control_c, 0, 64, 61
1, 562578, Control_c, 0, 64, 66
1, 562593, Control_c, 0, 64, 70
1, 562607, Control_c, 0, 64, 74
1, 562622, Control_c, 0, 64, 78
1, 562637, Control_c, 0, 64, 82
1, 562646, Note_off_c, 0, 45, 51
1, 562652, Control_c, 0, 64, 86
1, 562667, Control_c, 0, 64, 90
1, 562682, Control_c, 0, 64, 92
1, 562685, Note_off_c, 0, 37, 65
1, 562688, Note_off_c, 0, 25, 61
1, 562697, Control_c, 0, 64, 93
1, 562711, Control_c, 0, 64, 94
1, 562741, Control_c, 0, 64, 94
1, 562756, Control_c, 0, 64, 95
1, 562918, Control_c, 0, 64, 92
1, 562923, Note_on_c, 0, 49, 70
1, 562931, Note_on_c, 0, 45, 61
1, 562933, Control_c, 0, 64, 84
1, 562948, Control_c, 0, 64, 73
1, 562971, Control_c, 0, 64, 63
1, 562986, Control_c, 0, 64, 26
1, 563000, Control_c, 0, 64, 0
1, 563074, Control_c, 0, 64, 48
1, 563089, Control_c, 0, 64, 64
1, 563104, Control_c, 0, 64, 68
1, 563118, Control_c, 0, 64, 71
1, 563133, Control_c, 0, 64, 74
1, 563148, Control_c, 0, 64, 78
1, 563163, Control_c, 0, 64, 82
1, 563178, Control_c, 0, 64, 87
1, 563192, Control_c, 0, 64, 92
1, 563207, Control_c, 0, 64, 96
1, 563222, Control_c, 0, 64, 98
1, 563237, Control_c, 0, 64, 100
1, 563252, Control_c, 0, 64, 101
1, 563261, Note_off_c, 0, 45, 36
1, 563269, Note_off_c, 0, 49, 36
1, 563386, Control_c, 0, 64, 99
1, 563401, Control_c, 0, 64, 97
1, 563411, Note_on_c, 0, 49, 60
1, 563415, Control_c, 0, 64, 92
1, 563429, Note_on_c, 0, 45, 45
1, 563430, Control_c, 0, 64, 82
1, 563445, Control_c, 0, 64, 69
1, 563460, Control_c, 0, 64, 51
1, 563475, Control_c, 0, 64, 0
1, 563520, Control_c, 0, 64, 34
1, 563534, Control_c, 0, 64, 58
1, 563549, Control_c, 0, 64, 65
1, 563564, Control_c, 0, 64, 69
1, 563579, Control_c, 0, 64, 74
1, 563594, Control_c, 0, 64, 79
1, 563608, Control_c, 0, 64, 83
1, 563623, Control_c, 0, 64, 86
1, 563638, Control_c, 0, 64, 91
1, 563653, Control_c, 0, 64, 95
1, 563668, Control_c, 0, 64, 98
1, 563682, Control_c, 0, 64, 100
1, 563695, Note_off_c, 0, 45, 29
1, 563697, Control_c, 0, 64, 102
1, 563701, Note_off_c, 0, 49, 35
1, 563719, Control_c, 0, 64, 102
1, 563734, Control_c, 0, 64, 103
1, 563749, Control_c, 0, 64, 104
1, 563764, Control_c, 0, 64, 105
1, 563868, Control_c, 0, 64, 105
1, 563883, Control_c, 0, 64, 98
1, 563892, Note_on_c, 0, 49, 53
1, 563898, Control_c, 0, 64, 87
1, 563905, Note_on_c, 0, 45, 37
1, 563913, Control_c, 0, 64, 74
1, 563928, Control_c, 0, 64, 65
1, 563942, Control_c, 0, 64, 64
1, 563957, Control_c, 0, 64, 66
1, 563972, Control_c, 0, 64, 68
1, 563987, Control_c, 0, 64, 73
1, 564002, Control_c, 0, 64, 77
1, 564016, Control_c, 0, 64, 83
1, 564031, Control_c, 0, 64, 87
1, 564046, Control_c, 0, 64, 92
1, 564060, Control_c, 0, 64, 95
1, 564075, Control_c, 0, 64, 97
1, 564092, Control_c, 0, 64, 99
1, 564107, Control_c, 0, 64, 100
1, 564121, Control_c, 0, 64, 102
1, 564135, Note_off_c, 0, 45, 38
1, 564136, Control_c, 0, 64, 102
1, 564150, Note_off_c, 0, 49, 39
1, 564250, Note_on_c, 0, 21, 51
1, 564269, Control_c, 0, 64, 102
1, 564284, Control_c, 0, 64, 98
1, 564299, Control_c, 0, 64, 88
1, 564313, Control_c, 0, 64, 74
1, 564328, Control_c, 0, 64, 62
1, 564332, Note_on_c, 0, 33, 55
1, 564341, Note_on_c, 0, 49, 41
1, 564343, Control_c, 0, 64, 48
1, 564357, Control_c, 0, 64, 54
1, 564362, Note_on_c, 0, 45, 33
1, 564372, Control_c, 0, 64, 62
1, 564387, Control_c, 0, 64, 66
1, 564402, Control_c, 0, 64, 70
1, 564417, Control_c, 0, 64, 76
1, 564432, Control_c, 0, 64, 82
1, 564437, Note_off_c, 0, 33, 56
1, 564447, Control_c, 0, 64, 88
1, 564469, Control_c, 0, 64, 92
1, 564475, Note_off_c, 0, 21, 39
1, 564484, Control_c, 0, 64, 94
1, 564498, Control_c, 0, 64, 95
1, 564513, Control_c, 0, 64, 96
1, 564528, Control_c, 0, 64, 97
1, 564545, Note_off_c, 0, 45, 38
1, 564549, Note_off_c, 0, 49, 28
1, 564751, Control_c, 0, 64, 96
1, 564765, Control_c, 0, 64, 96
1, 564780, Control_c, 0, 64, 95
1, 564795, Control_c, 0, 64, 95
1, 564803, Note_on_c, 0, 49, 42
1, 564810, Control_c, 0, 64, 93
1, 564817, Note_on_c, 0, 45, 41
1, 564825, Control_c, 0, 64, 88
1, 564839, Control_c, 0, 64, 76
1, 564854, Control_c, 0, 64, 65
1, 564869, Control_c, 0, 64, 38
1, 564885, Control_c, 0, 64, 0
1, 564915, Control_c, 0, 64, 43
1, 564930, Control_c, 0, 64, 61
1, 564944, Control_c, 0, 64, 66
1, 564959, Control_c, 0, 64, 70
1, 564974, Control_c, 0, 64, 75
1, 564988, Control_c, 0, 64, 80
1, 565003, Control_c, 0, 64, 83
1, 565007, Note_off_c, 0, 45, 40
1, 565018, Control_c, 0, 64, 85
1, 565033, Control_c, 0, 64, 87
1, 565034, Note_off_c, 0, 49, 32
1, 565048, Control_c, 0, 64, 88
1, 565062, Control_c, 0, 64, 89
1, 565077, Control_c, 0, 64, 90
1, 565106, Control_c, 0, 64, 90
1, 565248, Control_c, 0, 64, 90
1, 565262, Control_c, 0, 64, 87
1, 565277, Control_c, 0, 64, 79
1, 565287, Note_on_c, 0, 49, 40
1, 565292, Control_c, 0, 64, 68
1, 565307, Control_c, 0, 64, 47
1, 565311, Note_on_c, 0, 45, 34
1, 565321, Control_c, 0, 64, 36
1, 565336, Control_c, 0, 64, 42
1, 565350, Control_c, 0, 64, 55
1, 565365, Control_c, 0, 64, 63
1, 565380, Control_c, 0, 64, 66
1, 565395, Control_c, 0, 64, 71
1, 565410, Control_c, 0, 64, 76
1, 565424, Control_c, 0, 64, 80
1, 565439, Control_c, 0, 64, 83
1, 565454, Control_c, 0, 64, 85
1, 565469, Control_c, 0, 64, 86
1, 565484, Control_c, 0, 64, 88
1, 565499, Control_c, 0, 64, 89
1, 565505, Note_off_c, 0, 45, 39
1, 565513, Control_c, 0, 64, 90
1, 565528, Control_c, 0, 64, 90
1, 565544, Note_off_c, 0, 49, 34
1, 565558, Control_c, 0, 64, 91
1, 565602, Control_c, 0, 64, 91
1, 565766, Control_c, 0, 64, 90
1, 565776, Note_on_c, 0, 49, 36
1, 565781, Control_c, 0, 64, 84
1, 565793, Note_on_c, 0, 45, 32
1, 565796, Control_c, 0, 64, 74
1, 565810, Control_c, 0, 64, 63
1, 565825, Control_c, 0, 64, 35
1, 565840, Control_c, 0, 64, 0
1, 565870, Control_c, 0, 64, 42
1, 565884, Control_c, 0, 64, 61
1, 565899, Control_c, 0, 64, 65
1, 565914, Control_c, 0, 64, 69
1, 565928, Control_c, 0, 64, 73
1, 565943, Control_c, 0, 64, 76
1, 565966, Control_c, 0, 64, 78
1, 565981, Control_c, 0, 64, 79
1, 565997, Note_off_c, 0, 45, 42
1, 566026, Note_off_c, 0, 49, 42
1, 566114, Control_c, 0, 64, 78
1, 566129, Control_c, 0, 64, 78
1, 566143, Control_c, 0, 64, 77
1, 566158, Control_c, 0, 64, 73
1, 566173, Control_c, 0, 64, 64
1, 566188, Control_c, 0, 64, 44
1, 566202, Note_on_c, 0, 24, 42
1, 566203, Control_c, 0, 64, 0
1, 566277, Control_c, 0, 64, 17
1, 566282, Note_on_c, 0, 36, 45
1, 566292, Control_c, 0, 64, 59
1, 566307, Control_c, 0, 64, 66
1, 566322, Control_c, 0, 64, 69
1, 566336, Control_c, 0, 64, 73
1, 566351, Control_c, 0, 64, 76
1, 566366, Control_c, 0, 64, 80
1, 566381, Control_c, 0, 64, 85
1, 566396, Control_c, 0, 64, 90
1, 566408, Note_off_c, 0, 24, 40
1, 566410, Control_c, 0, 64, 95
1, 566425, Control_c, 0, 64, 100
1, 566433, Note_off_c, 0, 36, 33
1, 566440, Control_c, 0, 64, 106
1, 566454, Control_c, 0, 64, 109
1, 566469, Control_c, 0, 64, 111
1, 566486, Control_c, 0, 64, 113
1, 566501, Control_c, 0, 64, 114
1, 566663, Control_c, 0, 64, 113
1, 566677, Control_c, 0, 64, 112
1, 566692, Control_c, 0, 64, 111
1, 566715, Control_c, 0, 64, 111
1, 566730, Control_c, 0, 64, 110
1, 566745, Control_c, 0, 64, 109
1, 566759, Control_c, 0, 64, 107
1, 566774, Control_c, 0, 64, 106
1, 566789, Control_c, 0, 64, 103
1, 566804, Control_c, 0, 64, 101
1, 566819, Control_c, 0, 64, 99
1, 566833, Control_c, 0, 64, 96
1, 566848, Control_c, 0, 64, 94
1, 566863, Control_c, 0, 64, 90
1, 566878, Control_c, 0, 64, 87
1, 566892, Control_c, 0, 64, 83
1, 566907, Control_c, 0, 64, 79
1, 566922, Control_c, 0, 64, 75
1, 566937, Control_c, 0, 64, 71
1, 566952, Control_c, 0, 64, 68
1, 566966, Control_c, 0, 64, 65
1, 566981, Control_c, 0, 64, 64
1, 566996, Control_c, 0, 64, 62
1, 567011, Control_c, 0, 64, 59
1, 567026, Control_c, 0, 64, 49
1, 567040, Control_c, 0, 64, 34
1, 567055, Control_c, 0, 64, 19
1, 567070, Control_c, 0, 64, 11
1, 567085, Control_c, 0, 64, 0
1, 567144, Control_c, 0, 64, 11
1, 567159, Control_c, 0, 64, 29
1, 567174, Control_c, 0, 64, 44
1, 567189, Control_c, 0, 64, 54
1, 567204, Control_c, 0, 64, 61
1, 567219, Control_c, 0, 64, 63
1, 567233, Control_c, 0, 64, 64
1, 567248, Control_c, 0, 64, 66
1, 567263, Control_c, 0, 64, 68
1, 567279, Control_c, 0, 64, 71
1, 567293, Control_c, 0, 64, 74
1, 567308, Control_c, 0, 64, 78
1, 567314, Note_on_c, 0, 48, 30
1, 567323, Control_c, 0, 64, 81
1, 567326, Note_on_c, 0, 45, 32
1, 567338, Control_c, 0, 64, 83
1, 567353, Control_c, 0, 64, 86
1, 567368, Control_c, 0, 64, 89
1, 567382, Control_c, 0, 64, 92
1, 567397, Control_c, 0, 64, 95
1, 567412, Control_c, 0, 64, 97
1, 567427, Control_c, 0, 64, 98
1, 567442, Control_c, 0, 64, 99
1, 567463, Control_c, 0, 64, 100
1, 567478, Control_c, 0, 64, 101
1, 567493, Control_c, 0, 64, 103
1, 567508, Control_c, 0, 64, 103
1, 567523, Control_c, 0, 64, 104
1, 567538, Control_c, 0, 64, 104
1, 567629, Note_off_c, 0, 45, 39
1, 567636, Note_off_c, 0, 48, 34
1, 567729, Control_c, 0, 64, 103
1, 567744, Control_c, 0, 64, 102
1, 567759, Control_c, 0, 64, 101
1, 567774, Control_c, 0, 64, 100
1, 567788, Control_c, 0, 64, 99
1, 567803, Control_c, 0, 64, 97
1, 567818, Control_c, 0, 64, 94
1, 567833, Control_c, 0, 64, 91
1, 567848, Control_c, 0, 64, 88
1, 567863, Control_c, 0, 64, 85
1, 567878, Control_c, 0, 64, 81
1, 567893, Control_c, 0, 64, 78
1, 567907, Control_c, 0, 64, 75
1, 567922, Control_c, 0, 64, 72
1, 567937, Control_c, 0, 64, 69
1, 567952, Control_c, 0, 64, 66
1, 567967, Control_c, 0, 64, 64
1, 567981, Control_c, 0, 64, 63
1, 567996, Control_c, 0, 64, 61
1, 568011, Control_c, 0, 64, 59
1, 568025, Control_c, 0, 64, 55
1, 568040, Control_c, 0, 64, 50
1, 568055, Control_c, 0, 64, 45
1, 568070, Control_c, 0, 64, 42
1, 568086, Control_c, 0, 64, 40
1, 568101, Control_c, 0, 64, 38
1, 568160, Control_c, 0, 64, 39
1, 568175, Control_c, 0, 64, 47
1, 568190, Control_c, 0, 64, 56
1, 568192, Note_on_c, 0, 24, 31
1, 568212, Control_c, 0, 64, 62
1, 568226, Control_c, 0, 64, 65
1, 568241, Control_c, 0, 64, 67
1, 568256, Control_c, 0, 64, 70
1, 568271, Control_c, 0, 64, 73
1, 568286, Control_c, 0, 64, 76
1, 568288, Note_on_c, 0, 36, 36
1, 568301, Control_c, 0, 64, 80
1, 568316, Control_c, 0, 64, 84
1, 568330, Control_c, 0, 64, 87
1, 568345, Control_c, 0, 64, 91
1, 568360, Control_c, 0, 64, 94
1, 568375, Control_c, 0, 64, 97
1, 568390, Control_c, 0, 64, 100
1, 568404, Control_c, 0, 64, 101
1, 568419, Control_c, 0, 64, 103
1, 568424, Note_off_c, 0, 24, 40
1, 568434, Control_c, 0, 64, 104
1, 568449, Control_c, 0, 64, 104
1, 568460, Note_off_c, 0, 36, 36
1, 568464, Control_c, 0, 64, 105
1, 568493, Control_c, 0, 64, 106
1, 568626, Control_c, 0, 64, 105
1, 568671, Control_c, 0, 64, 104
1, 568686, Control_c, 0, 64, 103
1, 568700, Control_c, 0, 64, 103
1, 568715, Control_c, 0, 64, 102
1, 568730, Control_c, 0, 64, 102
1, 568745, Control_c, 0, 64, 101
1, 568760, Control_c, 0, 64, 100
1, 568775, Control_c, 0, 64, 99
1, 568790, Control_c, 0, 64, 98
1, 568804, Control_c, 0, 64, 97
1, 568819, Control_c, 0, 64, 95
1, 568834, Control_c, 0, 64, 92
1, 568848, Control_c, 0, 64, 90
1, 568863, Control_c, 0, 64, 87
1, 568879, Control_c, 0, 64, 84
1, 568894, Control_c, 0, 64, 81
1, 568909, Control_c, 0, 64, 78
1, 568924, Control_c, 0, 64, 73
1, 568939, Control_c, 0, 64, 69
1, 568960, Control_c, 0, 64, 66
1, 568975, Control_c, 0, 64, 64
1, 568990, Control_c, 0, 64, 64
1, 569005, Control_c, 0, 64, 63
1, 569020, Control_c, 0, 64, 62
1, 569034, Control_c, 0, 64, 61
1, 569049, Control_c, 0, 64, 59
1, 569064, Control_c, 0, 64, 57
1, 569079, Control_c, 0, 64, 56
1, 569094, Control_c, 0, 64, 55
1, 569109, Control_c, 0, 64, 54
1, 569168, Control_c, 0, 64, 55
1, 569183, Control_c, 0, 64, 57
1, 569198, Control_c, 0, 64, 60
1, 569213, Control_c, 0, 64, 64
1, 569227, Control_c, 0, 64, 66
1, 569242, Control_c, 0, 64, 67
1, 569257, Control_c, 0, 64, 69
1, 569272, Control_c, 0, 64, 71
1, 569286, Control_c, 0, 64, 73
1, 569301, Control_c, 0, 64, 75
1, 569316, Control_c, 0, 64, 78
1, 569331, Control_c, 0, 64, 80
1, 569346, Control_c, 0, 64, 83
1, 569360, Control_c, 0, 64, 86
1, 569375, Control_c, 0, 64, 90
1, 569377, Note_on_c, 0, 48, 28
1, 569389, Note_on_c, 0, 45, 27
1, 569390, Control_c, 0, 64, 94
1, 569405, Control_c, 0, 64, 97
1, 569420, Control_c, 0, 64, 99
1, 569434, Control_c, 0, 64, 100
1, 569449, Control_c, 0, 64, 101
1, 569464, Control_c, 0, 64, 103
1, 569478, Control_c, 0, 64, 105
1, 569493, Control_c, 0, 64, 106
1, 569687, Control_c, 0, 64, 105
1, 569696, Note_off_c, 0, 45, 39
1, 569709, Control_c, 0, 64, 104
1, 569716, Note_off_c, 0, 48, 35
1, 569724, Control_c, 0, 64, 103
1, 569739, Control_c, 0, 64, 102
1, 569754, Control_c, 0, 64, 100
1, 569769, Control_c, 0, 64, 97
1, 569783, Control_c, 0, 64, 94
1, 569798, Control_c, 0, 64, 91
1, 569813, Control_c, 0, 64, 89
1, 569828, Control_c, 0, 64, 87
1, 569843, Control_c, 0, 64, 85
1, 569857, Control_c, 0, 64, 83
1, 569872, Control_c, 0, 64, 81
1, 569887, Control_c, 0, 64, 79
1, 569902, Control_c, 0, 64, 77
1, 569917, Control_c, 0, 64, 74
1, 569932, Control_c, 0, 64, 72
1, 569946, Control_c, 0, 64, 70
1, 569961, Control_c, 0, 64, 68
1, 569976, Control_c, 0, 64, 67
1, 569991, Control_c, 0, 64, 67
1, 570006, Control_c, 0, 64, 66
1, 570021, Control_c, 0, 64, 65
1, 570036, Control_c, 0, 64, 64
1, 570050, Control_c, 0, 64, 64
1, 570065, Control_c, 0, 64, 62
1, 570080, Control_c, 0, 64, 61
1, 570095, Control_c, 0, 64, 59
1, 570109, Control_c, 0, 64, 57
1, 570124, Control_c, 0, 64, 55
1, 570139, Control_c, 0, 64, 54
1, 570154, Control_c, 0, 64, 53
1, 570183, Control_c, 0, 64, 54
1, 570198, Control_c, 0, 64, 56
1, 570213, Control_c, 0, 64, 60
1, 570228, Control_c, 0, 64, 63
1, 570243, Control_c, 0, 64, 64
1, 570257, Control_c, 0, 64, 65
1, 570272, Control_c, 0, 64, 66
1, 570287, Control_c, 0, 64, 67
1, 570301, Control_c, 0, 64, 69
1, 570316, Control_c, 0, 64, 72
1, 570331, Control_c, 0, 64, 74
1, 570346, Control_c, 0, 64, 76
1, 570361, Control_c, 0, 64, 78
1, 570376, Control_c, 0, 64, 80
1, 570391, Control_c, 0, 64, 83
1, 570406, Control_c, 0, 64, 86
1, 570420, Control_c, 0, 64, 90
1, 570435, Control_c, 0, 64, 95
1, 570457, Control_c, 0, 64, 98
1, 570472, Note_on_c, 0, 21, 35
1, 570472, Control_c, 0, 64, 100
1, 570488, Control_c, 0, 64, 102
1, 570503, Control_c, 0, 64, 104
1, 570518, Control_c, 0, 64, 106
1, 570532, Control_c, 0, 64, 107
1, 570547, Control_c, 0, 64, 107
1, 570611, Note_off_c, 0, 21, 29
1, 570701, Note_on_c, 0, 33, 37
1, 570770, Control_c, 0, 64, 107
1, 570774, Note_off_c, 0, 33, 46
1, 570844, Control_c, 0, 64, 106
1, 570859, Control_c, 0, 64, 106
1, 570888, Control_c, 0, 64, 105
1, 570903, Control_c, 0, 64, 105
1, 570918, Control_c, 0, 64, 104
1, 570948, Control_c, 0, 64, 104
1, 570963, Control_c, 0, 64, 103
1, 570993, Control_c, 0, 64, 103
1, 571007, Control_c, 0, 64, 102
1, 571022, Control_c, 0, 64, 102
1, 571037, Control_c, 0, 64, 101
1, 571051, Control_c, 0, 64, 101
1, 571081, Control_c, 0, 64, 100
1, 571096, Control_c, 0, 64, 100
1, 571125, Control_c, 0, 64, 99
1, 571140, Control_c, 0, 64, 99
1, 571170, Control_c, 0, 64, 98
1, 571185, Control_c, 0, 64, 98
1, 571207, Control_c, 0, 64, 97
1, 571222, Control_c, 0, 64, 97
1, 571237, Control_c, 0, 64, 96
1, 571251, Control_c, 0, 64, 94
1, 571266, Control_c, 0, 64, 92
1, 571282, Control_c, 0, 64, 89
1, 571297, Control_c, 0, 64, 85
1, 571312, Control_c, 0, 64, 82
1, 571327, Control_c, 0, 64, 78
1, 571342, Control_c, 0, 64, 74
1, 571356, Control_c, 0, 64, 69
1, 571371, Control_c, 0, 64, 65
1, 571386, Control_c, 0, 64, 63
1, 571401, Control_c, 0, 64, 61
1, 571416, Control_c, 0, 64, 59
1, 571430, Control_c, 0, 64, 58
1, 571445, Control_c, 0, 64, 56
1, 571460, Control_c, 0, 64, 54
1, 571474, Control_c, 0, 64, 53
1, 571489, Control_c, 0, 64, 52
1, 571504, Control_c, 0, 64, 51
1, 571519, Control_c, 0, 64, 51
1, 571786, Control_c, 0, 64, 51
1, 571845, Control_c, 0, 64, 52
1, 571889, Control_c, 0, 64, 52
1, 571919, Control_c, 0, 64, 53
1, 571970, Control_c, 0, 64, 53
1, 572015, Control_c, 0, 64, 54
1, 572119, Control_c, 0, 64, 54
1, 572193, Control_c, 0, 64, 55
1, 572252, Control_c, 0, 64, 55
1, 572297, Control_c, 0, 64, 56
1, 572341, Control_c, 0, 64, 56
1, 572459, Control_c, 0, 64, 57
1, 572519, Control_c, 0, 64, 57
1, 572623, Control_c, 0, 64, 58
1, 572704, Control_c, 0, 64, 58
1, 572822, Control_c, 0, 64, 59
1, 572912, Control_c, 0, 64, 59
1, 573061, Control_c, 0, 64, 60
1, 573164, Control_c, 0, 64, 60
1, 573194, Control_c, 0, 64, 61
1, 573208, Control_c, 0, 64, 61
1, 573223, Control_c, 0, 64, 62
1, 573238, Control_c, 0, 64, 62
1, 573267, Control_c, 0, 64, 63
1, 573297, Control_c, 0, 64, 63
1, 573327, Control_c, 0, 64, 64
1, 573342, Control_c, 0, 64, 64
1, 573372, Control_c, 0, 64, 65
1, 573386, Control_c, 0, 64, 65
1, 573401, Control_c, 0, 64, 66
1, 573431, Control_c, 0, 64, 66
1, 573467, Control_c, 0, 64, 67
1, 573512, Control_c, 0, 64, 67
1, 573571, Control_c, 0, 64, 68
1, 573646, Control_c, 0, 64, 68
1, 573676, Control_c, 0, 64, 69
1, 573691, Control_c, 0, 64, 69
1, 573721, Control_c, 0, 64, 70
1, 573736, Control_c, 0, 64, 70
1, 573765, Control_c, 0, 64, 71
1, 573795, Control_c, 0, 64, 71
1, 573810, Control_c, 0, 64, 72
1, 573854, Control_c, 0, 64, 72
1, 574380, Control_c, 0, 64, 73
1, 574544, Control_c, 0, 64, 73
1, 574544, Control_c, 0, 67, 125
1, 574559, Control_c, 0, 67, 123
1, 574573, Control_c, 0, 64, 74
1, 574573, Control_c, 0, 67, 120
1, 574588, Control_c, 0, 64, 74
1, 574588, Control_c, 0, 67, 117
1, 574603, Control_c, 0, 64, 75
1, 574603, Control_c, 0, 67, 114
1, 574618, Control_c, 0, 64, 75
1, 574618, Control_c, 0, 67, 110
1, 574633, Control_c, 0, 64, 76
1, 574633, Control_c, 0, 67, 107
1, 574647, Control_c, 0, 67, 104
1, 574662, Control_c, 0, 64, 76
1, 574662, Control_c, 0, 67, 101
1, 574677, Control_c, 0, 64, 77
1, 574677, Control_c, 0, 67, 98
1, 574692, Control_c, 0, 64, 77
1, 574692, Control_c, 0, 67, 95
1, 574707, Control_c, 0, 64, 79
1, 574707, Control_c, 0, 67, 92
1, 574722, Control_c, 0, 64, 80
1, 574722, Control_c, 0, 67, 90
1, 574737, Control_c, 0, 64, 82
1, 574737, Control_c, 0, 67, 88
1, 574752, Control_c, 0, 64, 84
1, 574752, Control_c, 0, 67, 86
1, 574766, Control_c, 0, 64, 85
1, 574766, Control_c, 0, 67, 84
1, 574781, Control_c, 0, 64, 87
1, 574781, Control_c, 0, 67, 82
1, 574796, Control_c, 0, 64, 88
1, 574796, Control_c, 0, 67, 81
1, 574811, Control_c, 0, 64, 90
1, 574811, Control_c, 0, 67, 79
1, 574826, Control_c, 0, 64, 93
1, 574826, Control_c, 0, 67, 77
1, 574840, Control_c, 0, 64, 95
1, 574840, Control_c, 0, 67, 75
1, 574855, Control_c, 0, 64, 99
1, 574855, Control_c, 0, 67, 73
1, 574859, Note_on_c, 0, 52, 63
1, 574870, Control_c, 0, 64, 105
1, 574870, Control_c, 0, 67, 71
1, 574885, Control_c, 0, 64, 115
1, 574885, Control_c, 0, 67, 69
1, 574899, Control_c, 0, 64, 127
1, 574899, Control_c, 0, 67, 66
1, 574901, Note_on_c, 0, 53, 62
1, 574914, Control_c, 0, 67, 64
1, 574929, Control_c, 0, 67, 61
1, 574934, Note_off_c, 0, 52, 61
1, 574951, Control_c, 0, 67, 57
1, 574954, Note_on_c, 0, 55, 60
1, 574966, Control_c, 0, 67, 53
1, 574981, Control_c, 0, 67, 48
1, 574985, Note_on_c, 0, 57, 65
1, 574996, Control_c, 0, 67, 42
1, 574998, Note_off_c, 0, 53, 65
1, 575000, Note_off_c, 0, 55, 63
1, 575011, Control_c, 0, 67, 33
1, 575018, Note_off_c, 0, 57, 66
1, 575019, Note_on_c, 0, 59, 82
1, 575025, Control_c, 0, 67, 21
1, 575040, Control_c, 0, 67, 0
1, 575056, Note_on_c, 0, 60, 61
1, 575063, Note_off_c, 0, 59, 61
1, 575097, Note_on_c, 0, 62, 75
1, 575114, Note_off_c, 0, 60, 63
1, 575134, Note_on_c, 0, 64, 76
1, 575175, Note_on_c, 0, 67, 79
1, 575175, Note_off_c, 0, 62, 61
1, 575181, Note_on_c, 0, 65, 57
1, 575187, Note_off_c, 0, 64, 66
1, 575205, Note_off_c, 0, 65, 61
1, 575211, Note_off_c, 0, 67, 66
1, 575244, Note_on_c, 0, 69, 79
1, 575264, Note_on_c, 0, 71, 61
1, 575270, Note_on_c, 0, 72, 78
1, 575284, Note_off_c, 0, 71, 65
1, 575288, Note_off_c, 0, 69, 61
1, 575295, Note_on_c, 0, 74, 81
1, 575313, Note_off_c, 0, 72, 63
1, 575337, Note_on_c, 0, 76, 88
1, 575340, Note_off_c, 0, 74, 66
1, 575356, Note_off_c, 0, 76, 71
1, 575369, Note_on_c, 0, 77, 80
1, 575404, Note_on_c, 0, 79, 86
1, 575417, Note_off_c, 0, 77, 62
1, 575446, Note_on_c, 0, 81, 90
1, 575467, Note_off_c, 0, 79, 65
1, 575492, Note_on_c, 0, 83, 87
1, 575521, Note_off_c, 0, 81, 61
1, 575545, Control_c, 0, 64, 95
1, 575559, Control_c, 0, 64, 57
1, 575568, Note_on_c, 0, 36, 98
1, 575574, Note_on_c, 0, 84, 99
1, 575574, Note_on_c, 0, 72, 105
1, 575574, Control_c, 0, 64, 0
1, 575602, Note_on_c, 0, 81, 59
1, 575603, Note_off_c, 0, 81, 127
1, 575606, Note_off_c, 0, 83, 68
1, 575619, Control_c, 0, 64, 32
1, 575620, Note_off_c, 0, 84, 71
1, 575628, Note_off_c, 0, 72, 61
1, 575634, Control_c, 0, 64, 73
1, 575648, Control_c, 0, 64, 110
1, 575663, Control_c, 0, 64, 127
1, 575794, Note_on_c, 0, 43, 79
1, 575799, Note_off_c, 0, 36, 61
1, 575850, Note_on_c, 0, 52, 75
1, 575855, Note_on_c, 0, 60, 74
1, 575857, Note_off_c, 0, 43, 63
1, 575877, Note_off_c, 0, 52, 65
1, 575901, Note_on_c, 0, 64, 75
1, 575914, Note_off_c, 0, 60, 64
1, 575924, Note_on_c, 0, 66, 82
1, 575958, Note_off_c, 0, 64, 65
1, 575979, Note_on_c, 0, 72, 82
1, 575983, Note_off_c, 0, 66, 65
1, 576033, Note_off_c, 0, 72, 62
1, 576054, Note_on_c, 0, 78, 119
1, 576066, Note_off_c, 0, 78, 75
1, 576395, Note_on_c, 0, 80, 99
1, 576397, Note_on_c, 0, 68, 102
1, 576424, Note_off_c, 0, 68, 60
1, 576425, Note_off_c, 0, 80, 62
1, 576426, Control_c, 0, 64, 79
1, 576448, Control_c, 0, 64, 0
1, 576492, Note_on_c, 0, 80, 107
1, 576497, Note_on_c, 0, 68, 109
1, 576504, Note_on_c, 0, 52, 87
1, 576582, Control_c, 0, 64, 57
1, 576597, Control_c, 0, 64, 65
1, 576607, Note_on_c, 0, 43, 82
1, 576612, Control_c, 0, 64, 67
1, 576627, Control_c, 0, 64, 69
1, 576640, Note_off_c, 0, 52, 53
1, 576642, Control_c, 0, 64, 70
1, 576656, Control_c, 0, 64, 71
1, 576701, Control_c, 0, 64, 70
1, 576701, Note_off_c, 0, 43, 63
1, 576704, Note_on_c, 0, 36, 81
1, 576789, Control_c, 0, 64, 71
1, 576800, Note_on_c, 0, 43, 76
1, 576819, Control_c, 0, 64, 71
1, 576834, Control_c, 0, 64, 72
1, 576849, Control_c, 0, 64, 75
1, 576864, Control_c, 0, 64, 80
1, 576870, Note_off_c, 0, 43, 63
1, 576880, Control_c, 0, 64, 91
1, 576893, Note_on_c, 0, 52, 90
1, 576894, Control_c, 0, 64, 110
1, 576909, Control_c, 0, 64, 127
1, 576931, Note_off_c, 0, 36, 54
1, 576979, Note_on_c, 0, 43, 83
1, 576993, Note_off_c, 0, 68, 61
1, 577014, Note_off_c, 0, 80, 55
1, 577069, Note_off_c, 0, 52, 0
1, 577070, Note_off_c, 0, 43, 58
1, 577072, Control_c, 0, 64, 114
1, 577080, Note_on_c, 0, 36, 84
1, 577086, Note_on_c, 0, 67, 94
1, 577086, Control_c, 0, 64, 100
1, 577090, Note_on_c, 0, 79, 91
1, 577101, Control_c, 0, 64, 90
1, 577106, Poly_aftertouch_c, 0, 52, 127
1, 577116, Control_c, 0, 64, 81
1, 577131, Control_c, 0, 64, 74
1, 577138, Note_off_c, 0, 67, 63
1, 577146, Control_c, 0, 64, 68
1, 577160, Control_c, 0, 64, 65
1, 577162, Poly_aftertouch_c, 0, 52, 0
1, 577169, Note_on_c, 0, 43, 72
1, 577175, Control_c, 0, 64, 63
1, 577181, Note_on_c, 0, 76, 90
1, 577198, Control_c, 0, 64, 62
1, 577213, Control_c, 0, 64, 58
1, 577217, Note_off_c, 0, 79, 58
1, 577227, Control_c, 0, 64, 54
1, 577242, Control_c, 0, 64, 51
1, 577256, Note_off_c, 0, 76, 64
1, 577256, Note_off_c, 0, 43, 63
1, 577279, Note_on_c, 0, 52, 77
1, 577282, Note_on_c, 0, 71, 101
1, 577301, Control_c, 0, 64, 52
1, 577324, Note_off_c, 0, 71, 70
1, 577334, Note_off_c, 0, 36, 57
1, 577368, Note_on_c, 0, 43, 79
1, 577390, Control_c, 0, 64, 52
1, 577420, Control_c, 0, 64, 53
1, 577434, Control_c, 0, 64, 53
1, 577449, Control_c, 0, 64, 54
1, 577461, Note_off_c, 0, 43, 62
1, 577464, Control_c, 0, 64, 54
1, 577466, Note_on_c, 0, 36, 73
1, 577475, Note_on_c, 0, 76, 94
1, 577479, Control_c, 0, 64, 55
1, 577481, Note_on_c, 0, 64, 86
1, 577494, Control_c, 0, 64, 55
1, 577509, Control_c, 0, 64, 56
1, 577513, Note_off_c, 0, 64, 61
1, 577524, Control_c, 0, 64, 56
1, 577551, Note_off_c, 0, 52, 41
1, 577552, Note_on_c, 0, 43, 75
1, 577558, Note_on_c, 0, 72, 87
1, 577581, Note_off_c, 0, 76, 57
1, 577598, Control_c, 0, 64, 57
1, 577612, Control_c, 0, 64, 58
1, 577627, Control_c, 0, 64, 59
1, 577631, Note_off_c, 0, 72, 64
1, 577638, Note_off_c, 0, 43, 63
1, 577642, Control_c, 0, 64, 60
1, 577649, Note_on_c, 0, 52, 78
1, 577649, Note_on_c, 0, 66, 96
1, 577657, Control_c, 0, 64, 61
1, 577673, Control_c, 0, 64, 62
1, 577685, Note_off_c, 0, 66, 68
1, 577688, Control_c, 0, 64, 62
1, 577703, Control_c, 0, 64, 63
1, 577725, Note_off_c, 0, 36, 54
1, 577745, Note_on_c, 0, 43, 80
1, 577747, Control_c, 0, 64, 62
1, 577762, Control_c, 0, 64, 62
1, 577777, Control_c, 0, 64, 61
1, 577791, Control_c, 0, 64, 61
1, 577823, Note_off_c, 0, 43, 61
1, 577841, Note_on_c, 0, 36, 73
1, 577842, Note_on_c, 0, 72, 83
1, 577849, Note_on_c, 0, 60, 74
1, 577865, Control_c, 0, 64, 61
1, 577874, Note_off_c, 0, 60, 68
1, 577910, Control_c, 0, 64, 62
1, 577914, Note_off_c, 0, 52, 42
1, 577930, Note_on_c, 0, 43, 71
1, 577930, Note_on_c, 0, 67, 85
1, 577934, Note_off_c, 0, 72, 63
1, 577962, Control_c, 0, 64, 62
1, 577977, Control_c, 0, 64, 63
1, 577990, Note_off_c, 0, 67, 63
1, 578006, Control_c, 0, 64, 63
1, 578013, Note_off_c, 0, 43, 63
1, 578021, Control_c, 0, 64, 64
1, 578027, Note_on_c, 0, 52, 75
1, 578034, Note_on_c, 0, 63, 100
1, 578050, Control_c, 0, 64, 64
1, 578075, Note_off_c, 0, 63, 64
1, 578094, Note_off_c, 0, 36, 57
1, 578121, Note_on_c, 0, 43, 79
1, 578121, Note_off_c, 0, 52, 63
1, 578124, Control_c, 0, 64, 64
1, 578139, Control_c, 0, 64, 63
1, 578184, Control_c, 0, 64, 63
1, 578198, Note_off_c, 0, 43, 62
1, 578212, Note_on_c, 0, 36, 75
1, 578221, Note_on_c, 0, 67, 87
1, 578230, Note_on_c, 0, 55, 78
1, 578260, Note_off_c, 0, 55, 64
1, 578302, Control_c, 0, 64, 62
1, 578305, Note_on_c, 0, 43, 79
1, 578306, Note_on_c, 0, 64, 78
1, 578308, Note_off_c, 0, 67, 60
1, 578325, Note_off_c, 0, 36, 59
1, 578332, Control_c, 0, 64, 62
1, 578347, Control_c, 0, 64, 61
1, 578355, Note_off_c, 0, 64, 64
1, 578362, Control_c, 0, 64, 61
1, 578376, Control_c, 0, 64, 60
1, 578377, Note_off_c, 0, 43, 63
1, 578397, Note_on_c, 0, 52, 79
1, 578400, Note_on_c, 0, 59, 100
1, 578406, Control_c, 0, 64, 60
1, 578421, Control_c, 0, 64, 59
1, 578434, Note_off_c, 0, 59, 67
1, 578435, Control_c, 0, 64, 59
1, 578450, Control_c, 0, 64, 58
1, 578459, Note_off_c, 0, 52, 62
1, 578466, Control_c, 0, 64, 58
1, 578481, Control_c, 0, 64, 57
1, 578495, Note_on_c, 0, 43, 82
1, 578496, Control_c, 0, 64, 57
1, 578525, Control_c, 0, 64, 56
1, 578581, Note_off_c, 0, 43, 63
1, 578588, Note_on_c, 0, 36, 78
1, 578588, Note_on_c, 0, 60, 102
1, 578624, Note_off_c, 0, 60, 69
1, 578644, Control_c, 0, 64, 55
1, 578658, Control_c, 0, 64, 49
1, 578673, Control_c, 0, 64, 29
1, 578692, Note_on_c, 0, 43, 69
1, 578695, Control_c, 0, 64, 0
1, 578713, Note_off_c, 0, 36, 58
1, 578778, Note_on_c, 0, 61, 100
1, 578782, Note_on_c, 0, 49, 83
1, 578785, Control_c, 0, 64, 50
1, 578787, Note_on_c, 0, 56, 91
1, 578788, Note_on_c, 0, 53, 89
1, 578800, Control_c, 0, 64, 67
1, 578808, Note_off_c, 0, 43, 62
1, 578812, Note_off_c, 0, 53, 71
1, 578815, Control_c, 0, 64, 78
1, 578829, Control_c, 0, 64, 91
1, 578844, Control_c, 0, 64, 106
1, 578844, Note_off_c, 0, 49, 64
1, 578859, Control_c, 0, 64, 110
1, 578870, Note_on_c, 0, 36, 83
1, 578877, Note_off_c, 0, 56, 56
1, 578918, Control_c, 0, 64, 114
1, 578921, Note_off_c, 0, 61, 56
1, 578933, Control_c, 0, 64, 127
1, 578970, Note_on_c, 0, 53, 83
1, 578978, Note_on_c, 0, 44, 78
1, 578996, Note_off_c, 0, 36, 59
1, 579047, Note_on_c, 0, 48, 78
1, 579047, Note_off_c, 0, 44, 64
1, 579054, Note_on_c, 0, 56, 92
1, 579059, Note_off_c, 0, 53, 61
1, 579078, Note_off_c, 0, 48, 67
1, 579119, Note_off_c, 0, 56, 66
1, 579140, Control_c, 0, 64, 95
1, 579149, Note_on_c, 0, 61, 88
1, 579154, Control_c, 0, 64, 70
1, 579157, Note_on_c, 0, 53, 87
1, 579169, Control_c, 0, 64, 26
1, 579170, Note_off_c, 0, 61, 70
1, 579184, Control_c, 0, 64, 41
1, 579199, Control_c, 0, 64, 62
1, 579214, Control_c, 0, 64, 66
1, 579226, Note_on_c, 0, 56, 79
1, 579229, Control_c, 0, 64, 72
1, 579235, Note_off_c, 0, 53, 64
1, 579244, Control_c, 0, 64, 81
1, 579244, Note_on_c, 0, 64, 77
1, 579247, Note_on_c, 0, 65, 68
1, 579259, Control_c, 0, 64, 97
1, 579274, Control_c, 0, 64, 127
1, 579276, Note_off_c, 0, 64, 64
1, 579286, Note_off_c, 0, 65, 58
1, 579310, Note_off_c, 0, 56, 64
1, 579316, Note_on_c, 0, 60, 79
1, 579326, Note_on_c, 0, 68, 82
1, 579362, Note_off_c, 0, 60, 66
1, 579375, Note_off_c, 0, 68, 56
1, 579390, Note_on_c, 0, 65, 79
1, 579401, Note_on_c, 0, 73, 84
1, 579412, Note_off_c, 0, 65, 69
1, 579420, Note_off_c, 0, 73, 71
1, 579444, Control_c, 0, 64, 124
1, 579459, Control_c, 0, 64, 79
1, 579474, Control_c, 0, 64, 0
1, 579500, Note_on_c, 0, 66, 101
1, 579500, Note_on_c, 0, 79, 88
1, 579504, Note_on_c, 0, 81, 88
1, 579509, Note_on_c, 0, 76, 77
1, 579512, Note_on_c, 0, 75, 60
1, 579515, Note_off_c, 0, 66, 74
1, 579518, Control_c, 0, 64, 62
1, 579519, Note_on_c, 0, 78, 59
1, 579521, Note_off_c, 0, 81, 73
1, 579530, Note_off_c, 0, 76, 70
1, 579533, Note_on_c, 0, 68, 32
1, 579534, Note_off_c, 0, 68, 127
1, 579534, Control_c, 0, 64, 71
1, 579538, Note_off_c, 0, 75, 58
1, 579541, Note_off_c, 0, 78, 62
1, 579546, Note_off_c, 0, 79, 63
1, 579549, Control_c, 0, 64, 86
1, 579564, Control_c, 0, 64, 118
1, 579577, Note_on_c, 0, 35, 87
1, 579578, Control_c, 0, 64, 127
1, 579667, Note_on_c, 0, 43, 85
1, 579678, Note_off_c, 0, 35, 60
1, 579730, Note_off_c, 0, 43, 63
1, 579741, Control_c, 0, 64, 109
1, 579754, Note_on_c, 0, 50, 77
1, 579756, Control_c, 0, 64, 77
1, 579760, Note_on_c, 0, 74, 101
1, 579767, Note_on_c, 0, 67, 84
1, 579770, Control_c, 0, 64, 45
1, 579785, Control_c, 0, 64, 0
1, 579789, Note_off_c, 0, 50, 70
1, 579789, Note_off_c, 0, 67, 67
1, 579793, Note_off_c, 0, 74, 63
1, 579841, Note_on_c, 0, 74, 93
1, 579851, Note_on_c, 0, 67, 75
1, 579852, Note_on_c, 0, 55, 82
1, 579889, Control_c, 0, 64, 66
1, 579904, Control_c, 0, 64, 79
1, 579909, Note_off_c, 0, 67, 49
1, 579919, Control_c, 0, 64, 102
1, 579933, Control_c, 0, 64, 127
1, 579937, Note_on_c, 0, 59, 82
1, 579941, Note_off_c, 0, 55, 62
1, 579993, Note_off_c, 0, 59, 60
1, 580019, Note_on_c, 0, 62, 82
1, 580050, Note_off_c, 0, 62, 64
1, 580072, Note_off_c, 0, 74, 62
1, 580106, Note_on_c, 0, 67, 89
1, 580127, Control_c, 0, 64, 90
1, 580142, Control_c, 0, 64, 51
1, 580157, Control_c, 0, 64, 0
1, 580203, Note_on_c, 0, 76, 92
1, 580208, Control_c, 0, 64, 61
1, 580209, Note_on_c, 0, 64, 85
1, 580210, Note_on_c, 0, 72, 80
1, 580213, Note_off_c, 0, 67, 41
1, 580223, Control_c, 0, 64, 74
1, 580238, Control_c, 0, 64, 99
1, 580246, Note_off_c, 0, 76, 63
1, 580249, Note_off_c, 0, 72, 56
1, 580252, Control_c, 0, 64, 127
1, 580270, Note_off_c, 0, 64, 64
1, 580287, Note_on_c, 0, 36, 79
1, 580385, Note_on_c, 0, 43, 74
1, 580394, Note_off_c, 0, 36, 60
1, 580400, Note_on_c, 0, 55, 89
1, 580440, Note_off_c, 0, 43, 64
1, 580466, Note_on_c, 0, 52, 76
1, 580476, Note_off_c, 0, 55, 59
1, 580482, Note_on_c, 0, 60, 88
1, 580503, Note_off_c, 0, 52, 65
1, 580505, Control_c, 0, 64, 119
1, 580519, Control_c, 0, 64, 73
1, 580534, Control_c, 0, 64, 0
1, 580556, Note_on_c, 0, 38, 87
1, 580568, Note_on_c, 0, 65, 83
1, 580586, Note_off_c, 0, 60, 62
1, 580623, Control_c, 0, 64, 64
1, 580637, Control_c, 0, 64, 79
1, 580638, Note_on_c, 0, 68, 82
1, 580640, Note_on_c, 0, 48, 82
1, 580652, Control_c, 0, 64, 110
1, 580660, Note_off_c, 0, 38, 60
1, 580661, Note_off_c, 0, 65, 65
1, 580667, Control_c, 0, 64, 127
1, 580680, Note_off_c, 0, 68, 64
1, 580698, Note_off_c, 0, 48, 64
1, 580723, Note_on_c, 0, 53, 75
1, 580739, Note_on_c, 0, 72, 85
1, 580753, Poly_aftertouch_c, 0, 47, 0
1, 580754, Note_off_c, 0, 53, 70
1, 580759, Poly_aftertouch_c, 0, 69, 0
1, 580780, Note_off_c, 0, 72, 64
1, 580812, Note_on_c, 0, 77, 99
1, 580818, Note_on_c, 0, 60, 85
1, 580836, Note_off_c, 0, 60, 73
1, 580856, Note_off_c, 0, 77, 67
1, 580913, Note_on_c, 0, 80, 104
1, 580913, Note_on_c, 0, 84, 100
1, 580917, Note_on_c, 0, 71, 101
1, 580920, Control_c, 0, 64, 83
1, 580939, Note_off_c, 0, 71, 75
1, 580941, Note_on_c, 0, 82, 68
1, 580942, Control_c, 0, 64, 0
1, 580954, Note_off_c, 0, 80, 69
1, 580956, Note_off_c, 0, 84, 68
1, 580960, Note_off_c, 0, 82, 40
1, 580987, Control_c, 0, 64, 21
1, 581002, Note_on_c, 0, 40, 87
1, 581002, Control_c, 0, 64, 70
1, 581016, Control_c, 0, 64, 86
1, 581031, Control_c, 0, 64, 127
1, 581091, Note_on_c, 0, 48, 77
1, 581102, Note_off_c, 0, 40, 60
1, 581111, Note_on_c, 0, 50, 51
1, 581142, Note_off_c, 0, 50, 34
1, 581148, Note_off_c, 0, 48, 64
1, 581150, Control_c, 0, 64, 95
1, 581165, Control_c, 0, 64, 70
1, 581175, Note_on_c, 0, 55, 73
1, 581179, Control_c, 0, 64, 0
1, 581182, Note_on_c, 0, 79, 94
1, 581183, Note_on_c, 0, 72, 89
1, 581203, Note_off_c, 0, 79, 65
1, 581206, Note_off_c, 0, 55, 68
1, 581211, Note_off_c, 0, 72, 66
1, 581264, Note_on_c, 0, 79, 105
1, 581268, Note_on_c, 0, 60, 78
1, 581298, Control_c, 0, 64, 64
1, 581313, Control_c, 0, 64, 78
1, 581328, Control_c, 0, 64, 106
1, 581342, Control_c, 0, 64, 127
1, 581351, Note_off_c, 0, 60, 61
1, 581352, Note_on_c, 0, 64, 86
1, 581406, Note_off_c, 0, 64, 64
1, 581432, Note_on_c, 0, 67, 77
1, 581477, Note_off_c, 0, 67, 59
1, 581487, Note_off_c, 0, 79, 63
1, 581490, Control_c, 0, 64, 95
1, 581505, Control_c, 0, 64, 70
1, 581520, Control_c, 0, 64, 0
1, 581525, Note_on_c, 0, 76, 84
1, 581570, Note_off_c, 0, 76, 64
1, 581609, Control_c, 0, 64, 66
1, 581618, Note_on_c, 0, 53, 71
1, 581620, Note_on_c, 0, 88, 115
1, 581624, Control_c, 0, 64, 85
1, 581639, Control_c, 0, 64, 127
1, 581646, Note_off_c, 0, 88, 68
1, 581713, Note_on_c, 0, 68, 75
1, 581776, Note_off_c, 0, 68, 60
1, 581790, Note_on_c, 0, 60, 63
1, 581838, Note_off_c, 0, 53, 45
1, 581853, Note_off_c, 0, 60, 59
1, 581883, Note_on_c, 0, 68, 65
1, 581916, Note_off_c, 0, 68, 63
1, 581969, Note_on_c, 0, 80, 96
1, 581975, Note_on_c, 0, 53, 70
1, 581977, Note_on_c, 0, 68, 81
1, 581994, Note_off_c, 0, 68, 73
1, 581999, Note_off_c, 0, 80, 71
1, 582074, Note_on_c, 0, 68, 70
1, 582146, Note_off_c, 0, 68, 57
1, 582157, Note_on_c, 0, 60, 59
1, 582228, Note_off_c, 0, 53, 39
1, 582229, Note_off_c, 0, 60, 60
1, 582244, Note_on_c, 0, 68, 48
1, 582244, Note_on_c, 0, 84, 98
1, 582250, Note_on_c, 0, 72, 89
1, 582267, Note_off_c, 0, 68, 60
1, 582267, Note_off_c, 0, 72, 72
1, 582276, Note_off_c, 0, 84, 67
1, 582283, Control_c, 0, 64, 111
1, 582298, Control_c, 0, 64, 81
1, 582313, Control_c, 0, 64, 56
1, 582323, Note_on_c, 0, 52, 72
1, 582328, Control_c, 0, 64, 0
1, 582330, Note_on_c, 0, 84, 93
1, 582340, Note_on_c, 0, 72, 84
1, 582368, Note_off_c, 0, 52, 56
1, 582402, Control_c, 0, 64, 34
1, 582415, Note_on_c, 0, 67, 64
1, 582417, Control_c, 0, 64, 65
1, 582439, Control_c, 0, 64, 70
1, 582454, Control_c, 0, 64, 75
1, 582470, Control_c, 0, 64, 78
1, 582473, Note_off_c, 0, 67, 57
1, 582485, Control_c, 0, 64, 79
1, 582522, Note_on_c, 0, 59, 59
1, 582529, Control_c, 0, 64, 78
1, 582544, Control_c, 0, 64, 77
1, 582559, Control_c, 0, 64, 75
1, 582573, Control_c, 0, 64, 72
1, 582581, Note_off_c, 0, 59, 58
1, 582587, Control_c, 0, 64, 67
1, 582590, Note_on_c, 0, 67, 67
1, 582602, Control_c, 0, 64, 64
1, 582617, Control_c, 0, 64, 58
1, 582627, Note_off_c, 0, 67, 63
1, 582631, Control_c, 0, 64, 50
1, 582646, Control_c, 0, 64, 35
1, 582661, Control_c, 0, 64, 0
1, 582679, Note_on_c, 0, 52, 77
1, 582691, Control_c, 0, 67, 8
1, 582706, Control_c, 0, 67, 9
1, 582721, Control_c, 0, 67, 11
1, 582733, Note_off_c, 0, 52, 61
1, 582736, Control_c, 0, 67, 12
1, 582750, Control_c, 0, 67, 13
1, 582765, Control_c, 0, 67, 13
1, 582773, Note_on_c, 0, 79, 78
1, 582774, Note_on_c, 0, 67, 63
1, 582774, Note_off_c, 0, 72, 60
1, 582780, Control_c, 0, 67, 15
1, 582795, Control_c, 0, 67, 15
1, 582810, Control_c, 0, 67, 16
1, 582816, Note_off_c, 0, 84, 50
1, 582821, Note_off_c, 0, 67, 56
1, 582825, Control_c, 0, 67, 17
1, 582846, Note_on_c, 0, 59, 62
1, 582853, Note_on_c, 0, 76, 85
1, 582869, Control_c, 0, 67, 17
1, 582873, Note_off_c, 0, 79, 58
1, 582902, Note_off_c, 0, 59, 58
1, 582920, Note_off_c, 0, 76, 62
1, 582923, Note_on_c, 0, 67, 67
1, 582931, Note_on_c, 0, 72, 83
1, 582943, Control_c, 0, 67, 17
1, 582950, Note_off_c, 0, 67, 67
1, 582958, Control_c, 0, 67, 16
1, 582969, Note_off_c, 0, 72, 65
1, 582973, Control_c, 0, 67, 16
1, 582987, Control_c, 0, 64, 62
1, 582987, Control_c, 0, 67, 15
1, 583002, Control_c, 0, 64, 75
1, 583002, Control_c, 0, 67, 15
1, 583013, Note_on_c, 0, 50, 71
1, 583014, Note_on_c, 0, 84, 99
1, 583017, Note_on_c, 0, 72, 84
1, 583017, Control_c, 0, 64, 93
1, 583017, Control_c, 0, 67, 14
1, 583031, Control_c, 0, 64, 127
1, 583031, Control_c, 0, 67, 13
1, 583037, Note_off_c, 0, 72, 70
1, 583042, Note_off_c, 0, 50, 66
1, 583042, Note_off_c, 0, 84, 67
1, 583046, Control_c, 0, 67, 13
1, 583061, Control_c, 0, 67, 12
1, 583076, Control_c, 0, 67, 11
1, 583105, Control_c, 0, 67, 11
1, 583107, Note_on_c, 0, 66, 72
1, 583150, Control_c, 0, 67, 11
1, 583165, Control_c, 0, 67, 12
1, 583187, Control_c, 0, 67, 12
1, 583192, Note_off_c, 0, 66, 56
1, 583202, Control_c, 0, 67, 13
1, 583207, Note_on_c, 0, 57, 68
1, 583231, Control_c, 0, 67, 13
1, 583246, Control_c, 0, 67, 14
1, 583277, Control_c, 0, 67, 15
1, 583299, Note_on_c, 0, 66, 67
1, 583307, Control_c, 0, 67, 15
1, 583329, Note_off_c, 0, 57, 37
1, 583332, Note_off_c, 0, 66, 57
1, 583352, Control_c, 0, 67, 15
1, 583367, Control_c, 0, 67, 14
1, 583376, Note_on_c, 0, 78, 95
1, 583378, Note_on_c, 0, 66, 75
1, 583382, Control_c, 0, 67, 14
1, 583392, Note_on_c, 0, 50, 68
1, 583401, Note_off_c, 0, 66, 66
1, 583408, Note_off_c, 0, 78, 62
1, 583426, Control_c, 0, 67, 13
1, 583430, Note_off_c, 0, 50, 61
1, 583474, Note_on_c, 0, 66, 61
1, 583515, Control_c, 0, 67, 14
1, 583529, Control_c, 0, 67, 15
1, 583559, Control_c, 0, 67, 15
1, 583569, Note_off_c, 0, 66, 60
1, 583572, Note_on_c, 0, 57, 64
1, 583603, Control_c, 0, 67, 16
1, 583615, Note_on_c, 0, 66, 54
1, 583633, Control_c, 0, 67, 16
1, 583637, Note_off_c, 0, 57, 61
1, 583645, Note_on_c, 0, 68, 91
1, 583646, Note_on_c, 0, 80, 90
1, 583657, Note_off_c, 0, 66, 64
1, 583663, Control_c, 0, 64, 118
1, 583666, Note_off_c, 0, 68, 67
1, 583670, Note_off_c, 0, 80, 59
1, 583677, Control_c, 0, 64, 87
1, 583692, Control_c, 0, 64, 68
1, 583692, Control_c, 0, 67, 17
1, 583707, Control_c, 0, 64, 0
1, 583722, Note_on_c, 0, 80, 85
1, 583722, Control_c, 0, 67, 16
1, 583728, Note_on_c, 0, 48, 76
1, 583733, Note_on_c, 0, 68, 75
1, 583752, Control_c, 0, 67, 16
1, 583767, Note_off_c, 0, 48, 57
1, 583811, Control_c, 0, 64, 60
1, 583820, Note_on_c, 0, 64, 61
1, 583826, Control_c, 0, 64, 69
1, 583841, Control_c, 0, 64, 77
1, 583855, Control_c, 0, 64, 81
1, 583879, Note_off_c, 0, 64, 57
1, 583885, Control_c, 0, 64, 80
1, 583885, Control_c, 0, 67, 15
1, 583900, Control_c, 0, 64, 77
1, 583908, Note_on_c, 0, 55, 67
1, 583915, Control_c, 0, 64, 72
1, 583937, Control_c, 0, 64, 67
1, 583948, Note_off_c, 0, 55, 64
1, 583952, Control_c, 0, 64, 60
1, 583967, Control_c, 0, 64, 45
1, 583981, Control_c, 0, 64, 0
1, 583981, Control_c, 0, 67, 15
1, 584005, Note_on_c, 0, 64, 60
1, 584039, Note_off_c, 0, 64, 65
1, 584056, Control_c, 0, 64, 56
1, 584071, Control_c, 0, 64, 68
1, 584071, Control_c, 0, 67, 14
1, 584085, Note_on_c, 0, 48, 81
1, 584086, Control_c, 0, 64, 78
1, 584086, Control_c, 0, 67, 14
1, 584101, Control_c, 0, 64, 93
1, 584101, Control_c, 0, 67, 13
1, 584116, Control_c, 0, 64, 117
1, 584122, Note_off_c, 0, 48, 62
1, 584131, Control_c, 0, 64, 127
1, 584154, Note_off_c, 0, 80, 61
1, 584184, Note_on_c, 0, 64, 59
1, 584190, Control_c, 0, 67, 13
1, 584249, Note_off_c, 0, 64, 58
1, 584255, Note_on_c, 0, 55, 69
1, 584268, Note_on_c, 0, 79, 82
1, 584280, Note_off_c, 0, 68, 58
1, 584288, Note_off_c, 0, 55, 64
1, 584308, Control_c, 0, 64, 113
1, 584308, Control_c, 0, 67, 12
1, 584323, Control_c, 0, 64, 98
1, 584338, Control_c, 0, 64, 85
1, 584353, Control_c, 0, 64, 73
1, 584357, Note_on_c, 0, 76, 73
1, 584363, Note_off_c, 0, 79, 55
1, 584365, Note_on_c, 0, 64, 52
1, 584367, Control_c, 0, 64, 61
1, 584382, Control_c, 0, 64, 0
1, 584394, Note_off_c, 0, 64, 63
1, 584423, Note_off_c, 0, 76, 62
1, 584425, Note_on_c, 0, 53, 72
1, 584441, Note_on_c, 0, 71, 79
1, 584442, Note_on_c, 0, 67, 83
1, 584466, Note_off_c, 0, 67, 66
1, 584466, Note_off_c, 0, 71, 67
1, 584485, Control_c, 0, 67, 13
1, 584509, Note_on_c, 0, 64, 61
1, 584515, Control_c, 0, 64, 35
1, 584515, Control_c, 0, 67, 13
1, 584530, Control_c, 0, 64, 40
1, 584530, Control_c, 0, 67, 14
1, 584545, Control_c, 0, 67, 15
1, 584560, Control_c, 0, 67, 16
1, 584575, Control_c, 0, 64, 39
1, 584575, Control_c, 0, 67, 16
1, 584590, Control_c, 0, 64, 38
1, 584590, Control_c, 0, 67, 17
1, 584596, Note_off_c, 0, 53, 33
1, 584596, Note_off_c, 0, 64, 62
1, 584603, Note_on_c, 0, 60, 69
1, 584604, Control_c, 0, 64, 38
1, 584604, Control_c, 0, 67, 18
1, 584619, Control_c, 0, 64, 36
1, 584619, Control_c, 0, 67, 19
1, 584623, Note_on_c, 0, 76, 87
1, 584634, Control_c, 0, 64, 36
1, 584634, Control_c, 0, 67, 20
1, 584649, Control_c, 0, 64, 34
1, 584649, Control_c, 0, 67, 23
1, 584664, Control_c, 0, 64, 33
1, 584664, Control_c, 0, 67, 27
1, 584685, Control_c, 0, 64, 32
1, 584685, Control_c, 0, 67, 29
1, 584692, Note_off_c, 0, 60, 62
1, 584700, Control_c, 0, 64, 31
1, 584700, Control_c, 0, 67, 31
1, 584702, Note_on_c, 0, 72, 79
1, 584715, Control_c, 0, 64, 29
1, 584715, Control_c, 0, 67, 33
1, 584718, Note_on_c, 0, 57, 65
1, 584730, Note_off_c, 0, 76, 58
1, 584730, Control_c, 0, 64, 27
1, 584730, Control_c, 0, 67, 33
1, 584745, Control_c, 0, 64, 23
1, 584745, Control_c, 0, 67, 33
1, 584748, Note_off_c, 0, 57, 63
1, 584760, Control_c, 0, 64, 19
1, 584774, Control_c, 0, 64, 11
1, 584774, Control_c, 0, 67, 32
1, 584777, Note_off_c, 0, 72, 63
1, 584786, Note_on_c, 0, 50, 76
1, 584789, Control_c, 0, 64, 0
1, 584794, Note_on_c, 0, 68, 79
1, 584804, Control_c, 0, 67, 32
1, 584807, Note_on_c, 0, 64, 72
1, 584819, Control_c, 0, 67, 31
1, 584826, Note_off_c, 0, 68, 63
1, 584831, Note_off_c, 0, 64, 69
1, 584834, Control_c, 0, 67, 31
1, 584849, Control_c, 0, 67, 30
1, 584864, Control_c, 0, 67, 30
1, 584879, Control_c, 0, 67, 29
1, 584882, Note_on_c, 0, 60, 67
1, 584894, Control_c, 0, 64, 11
1, 584894, Control_c, 0, 67, 29
1, 584909, Control_c, 0, 64, 14
1, 584909, Control_c, 0, 67, 28
1, 584924, Control_c, 0, 67, 27
1, 584938, Control_c, 0, 67, 27
1, 584959, Note_off_c, 0, 60, 63
1, 584968, Control_c, 0, 67, 26
1, 584970, Note_off_c, 0, 50, 38
1, 584971, Note_on_c, 0, 57, 70
1, 584981, Note_on_c, 0, 72, 79
1, 584983, Control_c, 0, 64, 0
1, 585013, Control_c, 0, 67, 25
1, 585048, Note_off_c, 0, 57, 62
1, 585066, Note_on_c, 0, 69, 73
1, 585071, Note_on_c, 0, 53, 73
1, 585095, Note_off_c, 0, 72, 60
1, 585106, Note_off_c, 0, 53, 65
1, 585141, Note_on_c, 0, 47, 68
1, 585160, Note_off_c, 0, 69, 63
1, 585161, Note_on_c, 0, 64, 71
1, 585171, Note_on_c, 0, 61, 60
1, 585185, Note_off_c, 0, 64, 69
1, 585193, Note_off_c, 0, 61, 63
1, 585236, Note_on_c, 0, 57, 62
1, 585264, Control_c, 0, 67, 26
1, 585312, Note_off_c, 0, 57, 61
1, 585316, Note_off_c, 0, 47, 39
1, 585321, Note_on_c, 0, 53, 73
1, 585338, Control_c, 0, 67, 25
1, 585345, Note_on_c, 0, 69, 70
1, 585359, Note_on_c, 0, 67, 69
1, 585409, Note_off_c, 0, 53, 66
1, 585417, Note_on_c, 0, 65, 76
1, 585429, Note_on_c, 0, 50, 67
1, 585434, Control_c, 0, 67, 25
1, 585454, Note_off_c, 0, 67, 53
1, 585462, Note_off_c, 0, 69, 58
1, 585478, Note_off_c, 0, 50, 64
1, 585511, Note_on_c, 0, 61, 80
1, 585514, Note_on_c, 0, 43, 69
1, 585514, Note_off_c, 0, 65, 64
1, 585526, Note_on_c, 0, 57, 67
1, 585542, Note_off_c, 0, 61, 63
1, 585552, Note_off_c, 0, 57, 66
1, 585552, Control_c, 0, 67, 24
1, 585572, Note_off_c, 0, 43, 61
1, 585606, Note_on_c, 0, 53, 68
1, 585642, Control_c, 0, 67, 25
1, 585657, Control_c, 0, 64, 11
1, 585657, Control_c, 0, 67, 25
1, 585672, Note_off_c, 0, 53, 64
1, 585672, Control_c, 0, 64, 14
1, 585698, Note_on_c, 0, 47, 75
1, 585702, Control_c, 0, 67, 26
1, 585705, Note_on_c, 0, 65, 83
1, 585731, Control_c, 0, 64, 0
1, 585761, Control_c, 0, 67, 25
1, 585773, Note_off_c, 0, 47, 64
1, 585773, Note_on_c, 0, 62, 73
1, 585776, Control_c, 0, 67, 25
1, 585783, Note_on_c, 0, 43, 75
1, 585803, Note_off_c, 0, 65, 61
1, 585806, Control_c, 0, 67, 24
1, 585841, Note_off_c, 0, 43, 64
1, 585857, Note_on_c, 0, 38, 73
1, 585859, Note_off_c, 0, 62, 62
1, 585866, Note_on_c, 0, 57, 77
1, 585899, Note_off_c, 0, 57, 63
1, 585909, Note_on_c, 0, 53, 49
1, 585914, Note_off_c, 0, 38, 63
1, 585938, Note_off_c, 0, 53, 58
1, 585948, Note_on_c, 0, 52, 73
1, 585975, Note_off_c, 0, 52, 65
1, 586029, Note_on_c, 0, 45, 86
1, 586047, Note_on_c, 0, 61, 77
1, 586092, Note_off_c, 0, 45, 64
1, 586107, Note_on_c, 0, 57, 73
1, 586116, Note_on_c, 0, 41, 83
1, 586135, Note_off_c, 0, 61, 63
1, 586183, Control_c, 0, 67, 24
1, 586198, Note_off_c, 0, 57, 64
1, 586198, Control_c, 0, 67, 23
1, 586203, Note_on_c, 0, 52, 74
1, 586205, Note_on_c, 0, 43, 84
1, 586207, Note_on_c, 0, 47, 74
1, 586210, Note_off_c, 0, 41, 64
1, 586213, Control_c, 0, 67, 23
1, 586228, Control_c, 0, 67, 22
1, 586233, Note_off_c, 0, 47, 68
1, 586247, Note_off_c, 0, 52, 61
1, 586257, Note_off_c, 0, 43, 63
1, 586257, Control_c, 0, 67, 22
1, 586299, Note_on_c, 0, 52, 71
1, 586366, Note_off_c, 0, 52, 62
1, 586386, Note_on_c, 0, 55, 83
1, 586393, Note_on_c, 0, 47, 82
1, 586451, Control_c, 0, 67, 22
1, 586452, Note_off_c, 0, 47, 64
1, 586466, Control_c, 0, 67, 23
1, 586476, Note_on_c, 0, 52, 82
1, 586478, Note_on_c, 0, 43, 80
1, 586479, Note_off_c, 0, 55, 63
1, 586519, Note_off_c, 0, 43, 62
1, 586540, Control_c, 0, 67, 22
1, 586548, Note_off_c, 0, 52, 61
1, 586554, Control_c, 0, 67, 22
1, 586561, Note_on_c, 0, 36, 80
1, 586563, Note_on_c, 0, 48, 90
1, 586569, Control_c, 0, 67, 21
1, 586584, Control_c, 0, 67, 20
1, 586599, Control_c, 0, 64, 65
1, 586599, Control_c, 0, 67, 20
1, 586614, Control_c, 0, 64, 72
1, 586614, Control_c, 0, 67, 18
1, 586629, Control_c, 0, 64, 82
1, 586629, Control_c, 0, 67, 15
1, 586639, Note_on_c, 0, 43, 75
1, 586643, Control_c, 0, 64, 96
1, 586643, Control_c, 0, 67, 10
1, 586658, Control_c, 0, 64, 116
1, 586658, Control_c, 0, 67, 0
1, 586669, Note_off_c, 0, 36, 59
1, 586673, Control_c, 0, 64, 127
1, 586709, Note_off_c, 0, 43, 64
1, 586731, Note_on_c, 0, 52, 88
1, 586762, Control_c, 0, 64, 110
1, 586766, Note_off_c, 0, 48, 63
1, 586777, Control_c, 0, 64, 85
1, 586779, Note_off_c, 0, 52, 64
1, 586792, Control_c, 0, 64, 63
1, 586802, Note_on_c, 0, 60, 81
1, 586806, Control_c, 0, 64, 0
1, 586824, Note_off_c, 0, 60, 70
1, 586837, Note_on_c, 0, 52, 69
1, 586891, Note_on_c, 0, 64, 83
1, 586911, Note_off_c, 0, 52, 60
1, 586931, Note_on_c, 0, 56, 77
1, 586945, Note_off_c, 0, 64, 63
1, 586977, Control_c, 0, 64, 65
1, 586984, Note_off_c, 0, 56, 65
1, 586992, Note_on_c, 0, 68, 77
1, 586992, Control_c, 0, 64, 75
1, 587006, Note_on_c, 0, 60, 75
1, 587006, Control_c, 0, 64, 87
1, 587013, Note_off_c, 0, 68, 70
1, 587021, Control_c, 0, 64, 106
1, 587036, Control_c, 0, 64, 127
1, 587045, Note_off_c, 0, 60, 62
1, 587066, Control_c, 0, 64, 114
1, 587080, Control_c, 0, 64, 92
1, 587082, Note_on_c, 0, 72, 60
1, 587092, Note_on_c, 0, 64, 71
1, 587095, Control_c, 0, 64, 75
1, 587100, Note_off_c, 0, 72, 64
1, 587110, Control_c, 0, 64, 54
1, 587118, Note_off_c, 0, 64, 69
1, 587125, Control_c, 0, 64, 0
1, 587159, Note_on_c, 0, 76, 81
1, 587245, Note_on_c, 0, 88, 98
1, 587258, Note_on_c, 0, 65, 73
1, 587259, Control_c, 0, 64, 54
1, 587274, Control_c, 0, 64, 73
1, 587289, Control_c, 0, 64, 91
1, 587291, Note_off_c, 0, 88, 66
1, 587303, Control_c, 0, 64, 127
1, 587343, Note_on_c, 0, 72, 60
1, 587353, Note_off_c, 0, 76, 62
1, 587363, Note_off_c, 0, 65, 61
1, 587392, Note_off_c, 0, 72, 52
1, 587408, Note_on_c, 0, 68, 75
1, 587448, Note_off_c, 0, 68, 56
1, 587541, Note_on_c, 0, 77, 68
1, 587546, Poly_aftertouch_c, 0, 75, 127
1, 587552, Note_on_c, 0, 76, 68
1, 587560, Note_on_c, 0, 79, 83
1, 587577, Poly_aftertouch_c, 0, 75, 0
1, 587578, Note_on_c, 0, 68, 79
1, 587579, Note_on_c, 0, 80, 95
1, 587585, Control_c, 0, 64, 82
1, 587586, Note_off_c, 0, 76, 64
1, 587588, Note_off_c, 0, 77, 62
1, 587592, Note_on_c, 0, 53, 64
1, 587597, Note_off_c, 0, 68, 71
1, 587597, Note_on_c, 0, 55, 65
1, 587600, Control_c, 0, 64, 0
1, 587601, Note_off_c, 0, 79, 65
1, 587614, Note_off_c, 0, 80, 68
1, 587634, Note_off_c, 0, 55, 61
1, 587637, Note_off_c, 0, 53, 59
1, 587681, Control_c, 0, 67, 9
1, 587685, Note_on_c, 0, 60, 79
1, 587696, Control_c, 0, 67, 10
1, 587711, Control_c, 0, 67, 12
1, 587726, Control_c, 0, 67, 14
1, 587740, Control_c, 0, 67, 15
1, 587746, Note_off_c, 0, 60, 62
1, 587755, Control_c, 0, 67, 17
1, 587755, Note_on_c, 0, 56, 61
1, 587770, Control_c, 0, 67, 19
1, 587785, Control_c, 0, 67, 21
1, 587800, Control_c, 0, 67, 22
1, 587814, Note_off_c, 0, 56, 64
1, 587815, Control_c, 0, 67, 23
1, 587829, Control_c, 0, 67, 24
1, 587859, Control_c, 0, 67, 23
1, 587864, Note_on_c, 0, 84, 94
1, 587866, Note_on_c, 0, 72, 88
1, 587873, Note_on_c, 0, 65, 36
1, 587874, Control_c, 0, 67, 23
1, 587878, Note_on_c, 0, 64, 33
1, 587885, Note_off_c, 0, 72, 69
1, 587889, Control_c, 0, 67, 22
1, 587892, Note_off_c, 0, 84, 65
1, 587903, Note_off_c, 0, 65, 49
1, 587903, Control_c, 0, 67, 22
1, 587911, Note_off_c, 0, 64, 47
1, 587951, Note_on_c, 0, 84, 94
1, 587952, Note_on_c, 0, 64, 60
1, 587958, Note_on_c, 0, 72, 91
1, 588035, Note_on_c, 0, 71, 64
1, 588067, Control_c, 0, 64, 59
1, 588067, Control_c, 0, 67, 21
1, 588082, Control_c, 0, 64, 69
1, 588082, Control_c, 0, 67, 20
1, 588097, Control_c, 0, 64, 78
1, 588097, Control_c, 0, 67, 19
1, 588112, Control_c, 0, 64, 92
1, 588112, Control_c, 0, 67, 17
1, 588124, Note_off_c, 0, 71, 63
1, 588126, Control_c, 0, 64, 127
1, 588126, Control_c, 0, 67, 15
1, 588132, Note_on_c, 0, 67, 68
1, 588141, Control_c, 0, 67, 14
1, 588146, Note_off_c, 0, 64, 61
1, 588156, Control_c, 0, 67, 12
1, 588171, Control_c, 0, 67, 10
1, 588186, Note_off_c, 0, 67, 62
1, 588186, Control_c, 0, 67, 8
1, 588200, Control_c, 0, 67, 0
1, 588212, Note_on_c, 0, 71, 71
1, 588232, Note_off_c, 0, 71, 72
1, 588289, Control_c, 0, 64, 102
1, 588304, Note_on_c, 0, 52, 80
1, 588304, Control_c, 0, 64, 76
1, 588319, Control_c, 0, 64, 0
1, 588382, Note_off_c, 0, 52, 61
1, 588387, Note_on_c, 0, 59, 73
1, 588391, Note_on_c, 0, 79, 76
1, 588404, Note_off_c, 0, 72, 58
1, 588449, Note_off_c, 0, 84, 50
1, 588461, Note_off_c, 0, 59, 61
1, 588475, Note_on_c, 0, 55, 72
1, 588483, Note_on_c, 0, 76, 85
1, 588495, Note_off_c, 0, 79, 59
1, 588525, Note_off_c, 0, 55, 62
1, 588554, Note_on_c, 0, 72, 81
1, 588556, Note_off_c, 0, 76, 65
1, 588563, Note_on_c, 0, 64, 69
1, 588598, Note_off_c, 0, 72, 63
1, 588598, Note_off_c, 0, 64, 65
1, 588647, Note_on_c, 0, 84, 92
1, 588653, Note_on_c, 0, 72, 90
1, 588656, Note_on_c, 0, 62, 76
1, 588667, Control_c, 0, 64, 66
1, 588682, Control_c, 0, 64, 82
1, 588696, Note_off_c, 0, 84, 66
1, 588697, Control_c, 0, 64, 127
1, 588730, Note_off_c, 0, 72, 58
1, 588739, Note_on_c, 0, 69, 67
1, 588778, Note_off_c, 0, 62, 55
1, 588814, Note_off_c, 0, 69, 59
1, 588823, Note_on_c, 0, 66, 68
1, 588861, Note_off_c, 0, 66, 59
1, 588894, Note_on_c, 0, 69, 62
1, 588924, Note_off_c, 0, 69, 65
1, 588939, Note_on_c, 0, 74, 60
1, 588961, Note_on_c, 0, 76, 74
1, 588979, Note_on_c, 0, 77, 81
1, 588996, Note_on_c, 0, 66, 86
1, 589001, Note_on_c, 0, 50, 78
1, 589001, Note_on_c, 0, 78, 91
1, 589010, Note_off_c, 0, 74, 63
1, 589023, Control_c, 0, 64, 91
1, 589028, Note_off_c, 0, 76, 62
1, 589030, Note_off_c, 0, 77, 63
1, 589034, Note_off_c, 0, 66, 65
1, 589038, Control_c, 0, 64, 60
1, 589046, Note_off_c, 0, 78, 67
1, 589053, Control_c, 0, 64, 0
1, 589106, Note_on_c, 0, 57, 50
1, 589118, Note_off_c, 0, 50, 61
1, 589175, Note_on_c, 0, 54, 70
1, 589189, Note_off_c, 0, 57, 62
1, 589208, Control_c, 0, 67, 9
1, 589223, Control_c, 0, 67, 11
1, 589231, Note_off_c, 0, 54, 65
1, 589238, Control_c, 0, 67, 12
1, 589253, Control_c, 0, 67, 13
1, 589268, Control_c, 0, 67, 14
1, 589275, Note_on_c, 0, 62, 68
1, 589277, Note_on_c, 0, 80, 89
1, 589278, Note_on_c, 0, 68, 87
1, 589299, Note_off_c, 0, 80, 64
1, 589302, Note_off_c, 0, 68, 66
1, 589324, Note_off_c, 0, 62, 59
1, 589364, Note_on_c, 0, 60, 75
1, 589368, Note_on_c, 0, 80, 89
1, 589377, Note_on_c, 0, 68, 79
1, 589446, Control_c, 0, 64, 31
1, 589461, Control_c, 0, 64, 67
1, 589461, Control_c, 0, 67, 14
1, 589463, Note_on_c, 0, 67, 65
1, 589475, Control_c, 0, 64, 77
1, 589490, Control_c, 0, 64, 92
1, 589505, Control_c, 0, 64, 127
1, 589520, Control_c, 0, 67, 14
1, 589539, Note_off_c, 0, 60, 61
1, 589544, Note_off_c, 0, 67, 59
1, 589550, Control_c, 0, 67, 13
1, 589554, Note_on_c, 0, 64, 61
1, 589601, Note_off_c, 0, 64, 62
1, 589624, Control_c, 0, 67, 14
1, 589644, Note_on_c, 0, 67, 61
1, 589654, Control_c, 0, 67, 14
1, 589669, Control_c, 0, 67, 15
1, 589673, Note_off_c, 0, 67, 64
1, 589684, Control_c, 0, 67, 15
1, 589699, Control_c, 0, 67, 16
1, 589725, Note_on_c, 0, 48, 79
1, 589729, Control_c, 0, 64, 101
1, 589732, Note_off_c, 0, 80, 62
1, 589744, Control_c, 0, 64, 71
1, 589759, Control_c, 0, 64, 0
1, 589759, Control_c, 0, 67, 16
1, 589773, Control_c, 0, 67, 16
1, 589818, Note_off_c, 0, 48, 59
1, 589818, Note_on_c, 0, 55, 68
1, 589847, Control_c, 0, 64, 59
1, 589862, Control_c, 0, 64, 68
1, 589877, Control_c, 0, 64, 76
1, 589881, Note_off_c, 0, 55, 63
1, 589891, Control_c, 0, 64, 82
1, 589898, Note_on_c, 0, 52, 68
1, 589906, Control_c, 0, 64, 87
1, 589911, Note_on_c, 0, 79, 77
1, 589928, Control_c, 0, 64, 88
1, 589940, Note_off_c, 0, 68, 56
1, 589969, Note_off_c, 0, 52, 62
1, 589973, Control_c, 0, 64, 87
1, 589988, Control_c, 0, 64, 86
1, 590003, Note_on_c, 0, 60, 66
1, 590003, Control_c, 0, 64, 82
1, 590003, Control_c, 0, 67, 16
1, 590003, Note_on_c, 0, 76, 73
1, 590018, Control_c, 0, 64, 75
1, 590032, Control_c, 0, 64, 65
1, 590036, Note_off_c, 0, 60, 63
1, 590037, Note_off_c, 0, 79, 54
1, 590047, Control_c, 0, 64, 42
1, 590062, Control_c, 0, 64, 0
1, 590089, Note_off_c, 0, 76, 59
1, 590092, Note_on_c, 0, 71, 77
1, 590094, Note_on_c, 0, 53, 73
1, 590111, Note_on_c, 0, 67, 54
1, 590125, Note_off_c, 0, 71, 63
1, 590134, Note_off_c, 0, 67, 62
1, 590150, Control_c, 0, 67, 16
1, 590165, Control_c, 0, 67, 15
1, 590191, Note_on_c, 0, 64, 63
1, 590195, Control_c, 0, 67, 15
1, 590239, Control_c, 0, 67, 15
1, 590254, Control_c, 0, 67, 16
1, 590259, Note_off_c, 0, 64, 62
1, 590269, Control_c, 0, 67, 16
1, 590274, Note_off_c, 0, 53, 40
1, 590276, Note_on_c, 0, 60, 71
1, 590285, Note_on_c, 0, 76, 86
1, 590313, Control_c, 0, 67, 17
1, 590357, Note_off_c, 0, 60, 61
1, 590367, Note_on_c, 0, 72, 73
1, 590377, Note_on_c, 0, 57, 73
1, 590405, Note_off_c, 0, 76, 60
1, 590414, Note_off_c, 0, 57, 62
1, 590447, Note_on_c, 0, 68, 79
1, 590447, Note_off_c, 0, 72, 64
1, 590449, Note_on_c, 0, 50, 74
1, 590468, Note_on_c, 0, 64, 62
1, 590479, Note_off_c, 0, 68, 63
1, 590498, Note_off_c, 0, 64, 67
1, 590545, Note_on_c, 0, 60, 64
1, 590619, Note_off_c, 0, 60, 62
1, 590620, Note_off_c, 0, 50, 38
1, 590635, Note_on_c, 0, 57, 71
1, 590644, Note_on_c, 0, 72, 80
1, 590722, Control_c, 0, 67, 16
1, 590725, Note_on_c, 0, 69, 75
1, 590727, Note_off_c, 0, 57, 60
1, 590738, Note_on_c, 0, 53, 75
1, 590761, Note_off_c, 0, 72, 59
1, 590766, Control_c, 0, 67, 16
1, 590776, Note_off_c, 0, 53, 65
1, 590781, Control_c, 0, 67, 15
1, 590796, Control_c, 0, 67, 15
1, 590812, Note_on_c, 0, 47, 74
1, 590823, Note_on_c, 0, 64, 76
1, 590825, Control_c, 0, 67, 14
1, 590828, Note_off_c, 0, 69, 63
1, 590835, Note_on_c, 0, 61, 70
1, 590840, Control_c, 0, 67, 14
1, 590853, Note_off_c, 0, 64, 67
1, 590859, Note_off_c, 0, 61, 65
1, 590899, Control_c, 0, 67, 14
1, 590910, Note_on_c, 0, 57, 67
1, 590914, Control_c, 0, 67, 15
1, 590983, Note_off_c, 0, 57, 61
1, 591001, Note_on_c, 0, 53, 73
1, 591004, Note_off_c, 0, 47, 38
1, 591009, Note_on_c, 0, 69, 83
1, 591017, Control_c, 0, 67, 14
1, 591032, Control_c, 0, 67, 14
1, 591079, Note_off_c, 0, 53, 63
1, 591093, Note_on_c, 0, 50, 73
1, 591095, Note_on_c, 0, 65, 76
1, 591124, Note_off_c, 0, 50, 70
1, 591127, Note_off_c, 0, 69, 60
1, 591171, Note_on_c, 0, 43, 75
1, 591180, Note_on_c, 0, 61, 81
1, 591181, Note_off_c, 0, 65, 63
1, 591195, Note_on_c, 0, 57, 64
1, 591207, Note_off_c, 0, 61, 66
1, 591222, Note_off_c, 0, 57, 64
1, 591240, Control_c, 0, 67, 14
1, 591241, Note_off_c, 0, 43, 61
1, 591255, Control_c, 0, 67, 15
1, 591274, Note_on_c, 0, 53, 65
1, 591315, Note_off_c, 0, 53, 65
1, 591353, Note_on_c, 0, 47, 74
1, 591374, Note_on_c, 0, 65, 75
1, 591388, Control_c, 0, 67, 14
1, 591403, Control_c, 0, 67, 14
1, 591434, Note_off_c, 0, 47, 64
1, 591440, Control_c, 0, 67, 13
1, 591450, Note_on_c, 0, 62, 72
1, 591458, Note_on_c, 0, 43, 58
1, 591467, Note_on_c, 0, 41, 48
1, 591475, Note_off_c, 0, 65, 51
1, 591484, Control_c, 0, 67, 13
1, 591499, Note_off_c, 0, 41, 51
1, 591502, Note_off_c, 0, 43, 64
1, 591527, Note_on_c, 0, 38, 77
1, 591529, Note_off_c, 0, 62, 60
1, 591542, Note_on_c, 0, 57, 75
1, 591558, Control_c, 0, 67, 13
1, 591574, Note_off_c, 0, 57, 64
1, 591575, Note_on_c, 0, 53, 57
1, 591586, Note_off_c, 0, 38, 63
1, 591588, Control_c, 0, 67, 14
1, 591599, Note_off_c, 0, 53, 61
1, 591602, Control_c, 0, 67, 14
1, 591617, Control_c, 0, 67, 15
1, 591629, Note_on_c, 0, 52, 76
1, 591696, Note_off_c, 0, 52, 61
1, 591711, Note_on_c, 0, 45, 83
1, 591723, Note_on_c, 0, 61, 73
1, 591765, Control_c, 0, 67, 14
1, 591786, Note_off_c, 0, 45, 64
1, 591790, Note_on_c, 0, 41, 80
1, 591795, Note_on_c, 0, 57, 68
1, 591822, Note_off_c, 0, 61, 61
1, 591824, Control_c, 0, 67, 14
1, 591872, Note_off_c, 0, 57, 63
1, 591875, Note_on_c, 0, 43, 86
1, 591878, Note_off_c, 0, 41, 63
1, 591882, Note_on_c, 0, 52, 78
1, 591885, Note_on_c, 0, 47, 72
1, 591909, Note_off_c, 0, 47, 67
1, 591914, Note_off_c, 0, 52, 66
1, 591920, Note_off_c, 0, 43, 63
1, 591970, Note_on_c, 0, 52, 72
1, 592002, Control_c, 0, 67, 14
1, 592025, Note_off_c, 0, 52, 59
1, 592057, Note_on_c, 0, 55, 80
1, 592060, Note_on_c, 0, 47, 86
1, 592122, Control_c, 0, 67, 15
1, 592132, Note_off_c, 0, 47, 60
1, 592140, Note_on_c, 0, 52, 87
1, 592140, Note_off_c, 0, 55, 62
1, 592143, Note_on_c, 0, 43, 87
1, 592188, Control_c, 0, 67, 15
1, 592209, Note_off_c, 0, 43, 63
1, 592218, Control_c, 0, 67, 16
1, 592230, Note_off_c, 0, 52, 64
1, 592233, Control_c, 0, 67, 17
1, 592245, Note_on_c, 0, 48, 93
1, 592248, Control_c, 0, 67, 18
1, 592252, Note_on_c, 0, 36, 94
1, 592262, Control_c, 0, 67, 20
1, 592277, Control_c, 0, 67, 24
1, 592292, Control_c, 0, 67, 29
1, 592307, Control_c, 0, 67, 32
1, 592322, Control_c, 0, 67, 33
1, 592337, Control_c, 0, 67, 33
1, 592366, Control_c, 0, 67, 34
1, 592381, Control_c, 0, 67, 35
1, 592396, Control_c, 0, 67, 37
1, 592410, Note_off_c, 0, 48, 63
1, 592411, Control_c, 0, 67, 41
1, 592425, Control_c, 0, 67, 45
1, 592440, Control_c, 0, 67, 51
1, 592455, Control_c, 0, 67, 57
1, 592456, Note_off_c, 0, 36, 63
1, 592470, Control_c, 0, 67, 62
1, 592485, Control_c, 0, 67, 68
1, 592499, Control_c, 0, 67, 73
1, 592514, Control_c, 0, 67, 77
1, 592529, Control_c, 0, 67, 80
1, 592543, Control_c, 0, 67, 83
1, 592558, Control_c, 0, 67, 85
1, 592573, Control_c, 0, 67, 87
1, 592588, Control_c, 0, 67, 89
1, 592603, Control_c, 0, 67, 91
1, 592617, Control_c, 0, 67, 92
1, 592632, Control_c, 0, 67, 94
1, 592647, Control_c, 0, 67, 96
1, 592662, Control_c, 0, 67, 98
1, 592664, Note_on_c, 0, 52, 64
1, 592665, Note_on_c, 0, 49, 66
1, 592671, Note_on_c, 0, 36, 52
1, 592677, Control_c, 0, 67, 100
1, 592692, Control_c, 0, 67, 102
1, 592707, Control_c, 0, 67, 104
1, 592710, Note_off_c, 0, 49, 60
1, 592722, Control_c, 0, 67, 104
1, 592722, Note_off_c, 0, 52, 54
1, 592748, Note_on_c, 0, 58, 65
1, 592801, Note_off_c, 0, 36, 51
1, 592849, Note_on_c, 0, 61, 61
1, 592849, Note_off_c, 0, 58, 56
1, 592851, Note_on_c, 0, 48, 58
1, 592882, Note_off_c, 0, 48, 65
1, 592936, Note_on_c, 0, 64, 61
1, 592969, Note_off_c, 0, 64, 65
1, 592973, Note_off_c, 0, 61, 61
1, 592981, Control_c, 0, 67, 104
1, 593011, Control_c, 0, 67, 103
1, 593020, Note_on_c, 0, 54, 63
1, 593025, Note_on_c, 0, 47, 64
1, 593038, Note_on_c, 0, 40, 55
1, 593055, Note_off_c, 0, 47, 65
1, 593058, Note_off_c, 0, 54, 64
1, 593127, Note_off_c, 0, 40, 37
1, 593130, Note_on_c, 0, 62, 56
1, 593160, Control_c, 0, 67, 103
1, 593204, Note_on_c, 0, 66, 65
1, 593210, Note_on_c, 0, 52, 63
1, 593213, Note_off_c, 0, 62, 57
1, 593238, Note_off_c, 0, 52, 64
1, 593288, Note_on_c, 0, 67, 64
1, 593294, Note_off_c, 0, 66, 58
1, 593322, Control_c, 0, 67, 102
1, 593334, Note_off_c, 0, 67, 59
1, 593352, Control_c, 0, 67, 102
1, 593374, Note_on_c, 0, 53, 68
1, 593379, Note_on_c, 0, 40, 65
1, 593380, Note_on_c, 0, 56, 64
1, 593403, Note_off_c, 0, 53, 67
1, 593405, Note_off_c, 0, 40, 63
1, 593443, Note_off_c, 0, 56, 51
1, 593473, Note_on_c, 0, 62, 52
1, 593529, Control_c, 0, 67, 101
1, 593550, Note_on_c, 0, 52, 67
1, 593557, Note_on_c, 0, 65, 56
1, 593557, Note_off_c, 0, 62, 57
1, 593577, Note_off_c, 0, 52, 64
1, 593627, Note_on_c, 0, 68, 66
1, 593628, Note_off_c, 0, 65, 61
1, 593686, Control_c, 0, 67, 101
1, 593695, Note_off_c, 0, 68, 61
1, 593728, Note_on_c, 0, 51, 68
1, 593729, Note_on_c, 0, 44, 67
1, 593731, Note_on_c, 0, 58, 55
1, 593753, Note_off_c, 0, 51, 66
1, 593760, Note_off_c, 0, 44, 64
1, 593765, Note_off_c, 0, 58, 63
1, 593817, Note_on_c, 0, 66, 59
1, 593864, Control_c, 0, 67, 100
1, 593897, Note_on_c, 0, 56, 68
1, 593901, Note_off_c, 0, 66, 58
1, 593907, Note_on_c, 0, 70, 65
1, 593923, Note_off_c, 0, 56, 67
1, 593977, Note_off_c, 0, 70, 51
1, 593979, Note_on_c, 0, 71, 58
1, 593982, Control_c, 0, 67, 100
1, 593997, Control_c, 0, 67, 99
1, 594012, Control_c, 0, 67, 99
1, 594021, Note_off_c, 0, 71, 63
1, 594052, Note_on_c, 0, 57, 69
1, 594055, Note_on_c, 0, 44, 71
1, 594068, Note_on_c, 0, 60, 62
1, 594078, Note_off_c, 0, 57, 67
1, 594081, Note_off_c, 0, 44, 65
1, 594136, Note_off_c, 0, 60, 59
1, 594151, Note_on_c, 0, 66, 57
1, 594224, Note_off_c, 0, 66, 59
1, 594227, Note_on_c, 0, 56, 68
1, 594229, Note_on_c, 0, 69, 62
1, 594234, Control_c, 0, 67, 99
1, 594249, Control_c, 0, 67, 100
1, 594254, Note_off_c, 0, 56, 66
1, 594301, Note_off_c, 0, 69, 58
1, 594308, Note_on_c, 0, 72, 61
1, 594341, Note_off_c, 0, 72, 64
1, 594352, Control_c, 0, 67, 99
1, 594382, Control_c, 0, 67, 99
1, 594388, Note_on_c, 0, 55, 69
1, 594392, Note_on_c, 0, 48, 67
1, 594412, Note_on_c, 0, 62, 45
1, 594419, Note_off_c, 0, 55, 67
1, 594428, Note_off_c, 0, 48, 65
1, 594445, Note_off_c, 0, 62, 52
1, 594487, Note_on_c, 0, 70, 58
1, 594573, Note_on_c, 0, 60, 66
1, 594579, Note_off_c, 0, 70, 55
1, 594585, Note_on_c, 0, 74, 55
1, 594598, Control_c, 0, 67, 99
1, 594600, Note_off_c, 0, 60, 68
1, 594634, Note_off_c, 0, 74, 62
1, 594638, Note_on_c, 0, 75, 67
1, 594676, Note_off_c, 0, 75, 60
1, 594729, Note_on_c, 0, 64, 53
1, 594737, Note_on_c, 0, 48, 58
1, 594737, Note_on_c, 0, 61, 56
1, 594746, Control_c, 0, 67, 99
1, 594760, Note_off_c, 0, 61, 59
1, 594761, Note_off_c, 0, 48, 58
1, 594767, Note_off_c, 0, 64, 53
1, 594775, Control_c, 0, 67, 98
1, 594790, Control_c, 0, 67, 97
1, 594805, Control_c, 0, 67, 96
1, 594810, Note_on_c, 0, 70, 64
1, 594820, Control_c, 0, 67, 94
1, 594835, Control_c, 0, 67, 93
1, 594850, Control_c, 0, 67, 91
1, 594865, Control_c, 0, 67, 89
1, 594866, Note_off_c, 0, 70, 55
1, 594879, Note_on_c, 0, 73, 72
1, 594880, Control_c, 0, 67, 87
1, 594887, Note_on_c, 0, 60, 71
1, 594894, Control_c, 0, 67, 85
1, 594909, Control_c, 0, 67, 82
1, 594918, Note_off_c, 0, 60, 67
1, 594924, Control_c, 0, 67, 81
1, 594938, Control_c, 0, 67, 78
1, 594950, Note_on_c, 0, 76, 78
1, 594951, Note_off_c, 0, 73, 63
1, 594953, Control_c, 0, 67, 77
1, 594968, Control_c, 0, 67, 75
1, 594983, Control_c, 0, 67, 74
1, 594992, Note_off_c, 0, 76, 63
1, 594998, Control_c, 0, 67, 72
1, 595012, Control_c, 0, 67, 71
1, 595027, Control_c, 0, 67, 69
1, 595042, Control_c, 0, 64, 33
1, 595042, Control_c, 0, 67, 67
1, 595051, Note_on_c, 0, 59, 94
1, 595055, Note_on_c, 0, 52, 89
1, 595056, Note_on_c, 0, 79, 102
1, 595057, Control_c, 0, 64, 71
1, 595057, Control_c, 0, 67, 65
1, 595059, Note_on_c, 0, 71, 106
1, 595065, Note_on_c, 0, 67, 84
1, 595070, Note_off_c, 0, 59, 70
1, 595072, Control_c, 0, 64, 92
1, 595072, Control_c, 0, 67, 62
1, 595074, Note_off_c, 0, 71, 73
1, 595078, Note_off_c, 0, 52, 70
1, 595085, Note_off_c, 0, 67, 70
1, 595086, Control_c, 0, 64, 127
1, 595086, Control_c, 0, 67, 58
1, 595087, Note_off_c, 0, 79, 68
1, 595101, Control_c, 0, 67, 56
1, 595116, Control_c, 0, 67, 54
1, 595130, Control_c, 0, 67, 52
1, 595145, Control_c, 0, 67, 50
1, 595168, Control_c, 0, 67, 48
1, 595183, Control_c, 0, 67, 45
1, 595185, Poly_aftertouch_c, 0, 69, 0
1, 595198, Control_c, 0, 67, 44
1, 595243, Control_c, 0, 67, 45
1, 595258, Control_c, 0, 67, 45
1, 595288, Control_c, 0, 67, 46
1, 595434, Note_on_c, 0, 40, 75
1, 595435, Note_on_c, 0, 53, 79
1, 595435, Note_on_c, 0, 56, 78
1, 595436, Control_c, 0, 64, 101
1, 595436, Control_c, 0, 67, 46
1, 595450, Control_c, 0, 64, 64
1, 595450, Control_c, 0, 67, 47
1, 595463, Note_off_c, 0, 53, 69
1, 595465, Control_c, 0, 64, 0
1, 595465, Control_c, 0, 67, 48
1, 595479, Note_off_c, 0, 40, 62
1, 595480, Control_c, 0, 67, 49
1, 595512, Note_off_c, 0, 56, 61
1, 595524, Note_on_c, 0, 62, 64
1, 595598, Control_c, 0, 67, 49
1, 595608, Note_on_c, 0, 52, 66
1, 595613, Control_c, 0, 67, 50
1, 595616, Note_off_c, 0, 62, 58
1, 595617, Note_on_c, 0, 65, 62
1, 595628, Control_c, 0, 67, 50
1, 595634, Note_off_c, 0, 52, 64
1, 595658, Control_c, 0, 67, 51
1, 595664, Note_on_c, 0, 68, 67
1, 595686, Note_off_c, 0, 65, 63
1, 595726, Note_off_c, 0, 68, 59
1, 595756, Note_on_c, 0, 51, 80
1, 595757, Note_on_c, 0, 44, 76
1, 595782, Note_off_c, 0, 51, 70
1, 595785, Note_off_c, 0, 44, 65
1, 595791, Control_c, 0, 67, 51
1, 595837, Note_on_c, 0, 66, 65
1, 595850, Control_c, 0, 67, 51
1, 595865, Control_c, 0, 67, 50
1, 595922, Note_on_c, 0, 70, 73
1, 595923, Note_on_c, 0, 56, 76
1, 595926, Note_off_c, 0, 66, 58
1, 595949, Note_off_c, 0, 56, 68
1, 596006, Control_c, 0, 67, 50
1, 596014, Note_on_c, 0, 71, 67
1, 596030, Note_off_c, 0, 70, 59
1, 596036, Control_c, 0, 67, 49
1, 596057, Note_off_c, 0, 71, 58
1, 596066, Control_c, 0, 67, 49
1, 596075, Note_on_c, 0, 57, 85
1, 596083, Note_on_c, 0, 44, 78
1, 596084, Note_on_c, 0, 60, 72
1, 596096, Note_off_c, 0, 57, 70
1, 596112, Note_off_c, 0, 44, 65
1, 596171, Note_off_c, 0, 60, 59
1, 596178, Note_on_c, 0, 66, 67
1, 596247, Note_on_c, 0, 56, 83
1, 596251, Note_on_c, 0, 69, 73
1, 596259, Control_c, 0, 67, 49
1, 596260, Note_off_c, 0, 66, 58
1, 596272, Note_off_c, 0, 56, 68
1, 596274, Control_c, 0, 67, 50
1, 596327, Note_on_c, 0, 72, 67
1, 596337, Note_off_c, 0, 69, 60
1, 596348, Control_c, 0, 67, 49
1, 596367, Note_off_c, 0, 72, 65
1, 596378, Control_c, 0, 67, 49
1, 596404, Note_on_c, 0, 55, 86
1, 596408, Note_on_c, 0, 48, 81
1, 596418, Note_on_c, 0, 62, 57
1, 596435, Note_off_c, 0, 55, 64
1, 596439, Note_off_c, 0, 48, 62
1, 596477, Note_off_c, 0, 62, 42
1, 596490, Note_on_c, 0, 70, 70
1, 596525, Control_c, 0, 67, 48
1, 596567, Note_on_c, 0, 60, 83
1, 596580, Note_on_c, 0, 74, 75
1, 596594, Note_off_c, 0, 70, 53
1, 596600, Control_c, 0, 67, 49
1, 596609, Note_off_c, 0, 60, 64
1, 596637, Note_on_c, 0, 75, 77
1, 596665, Note_off_c, 0, 74, 63
1, 596696, Control_c, 0, 67, 48
1, 596708, Note_off_c, 0, 75, 62
1, 596710, Control_c, 0, 67, 48
1, 596736, Note_on_c, 0, 61, 84
1, 596746, Note_on_c, 0, 48, 71
1, 596750, Note_on_c, 0, 64, 71
1, 596764, Note_on_c, 0, 49, 39
1, 596764, Note_off_c, 0, 61, 64
1, 596774, Note_off_c, 0, 48, 65
1, 596784, Note_off_c, 0, 49, 47
1, 596799, Control_c, 0, 67, 47
1, 596814, Control_c, 0, 67, 46
1, 596814, Note_on_c, 0, 70, 72
1, 596835, Note_off_c, 0, 64, 58
1, 596844, Control_c, 0, 67, 46
1, 596889, Note_on_c, 0, 60, 88
1, 596900, Note_on_c, 0, 73, 77
1, 596919, Note_off_c, 0, 70, 60
1, 596934, Note_off_c, 0, 60, 65
1, 596963, Note_on_c, 0, 76, 80
1, 596975, Note_off_c, 0, 73, 62
1, 596993, Control_c, 0, 67, 45
1, 597007, Control_c, 0, 67, 45
1, 597027, Note_off_c, 0, 76, 61
1, 597052, Note_on_c, 0, 59, 93
1, 597060, Note_on_c, 0, 52, 79
1, 597060, Note_on_c, 0, 66, 69
1, 597076, Note_off_c, 0, 59, 66
1, 597089, Note_off_c, 0, 52, 65
1, 597130, Note_on_c, 0, 74, 78
1, 597130, Note_off_c, 0, 66, 59
1, 597213, Note_on_c, 0, 64, 81
1, 597238, Note_on_c, 0, 78, 72
1, 597244, Control_c, 0, 67, 45
1, 597253, Note_off_c, 0, 64, 65
1, 597274, Control_c, 0, 67, 46
1, 597278, Note_off_c, 0, 74, 53
1, 597290, Note_on_c, 0, 79, 74
1, 597318, Control_c, 0, 67, 45
1, 597333, Note_off_c, 0, 78, 59
1, 597348, Control_c, 0, 67, 45
1, 597350, Note_off_c, 0, 79, 61
1, 597372, Note_on_c, 0, 65, 82
1, 597378, Control_c, 0, 67, 44
1, 597378, Note_on_c, 0, 52, 79
1, 597393, Note_on_c, 0, 68, 73
1, 597396, Note_off_c, 0, 65, 66
1, 597414, Note_off_c, 0, 52, 67
1, 597414, Control_c, 0, 67, 44
1, 597444, Control_c, 0, 67, 43
1, 597458, Note_off_c, 0, 68, 61
1, 597459, Control_c, 0, 67, 43
1, 597473, Note_on_c, 0, 74, 69
1, 597474, Control_c, 0, 67, 42
1, 597488, Control_c, 0, 67, 41
1, 597503, Control_c, 0, 67, 38
1, 597518, Control_c, 0, 67, 36
1, 597533, Control_c, 0, 67, 34
1, 597548, Note_on_c, 0, 64, 74
1, 597548, Control_c, 0, 67, 34
1, 597553, Note_on_c, 0, 77, 70
1, 597560, Note_off_c, 0, 74, 61
1, 597563, Control_c, 0, 67, 33
1, 597575, Note_off_c, 0, 64, 68
1, 597577, Control_c, 0, 67, 31
1, 597592, Control_c, 0, 67, 30
1, 597607, Control_c, 0, 67, 29
1, 597615, Note_on_c, 0, 80, 77
1, 597621, Note_off_c, 0, 77, 65
1, 597622, Control_c, 0, 67, 27
1, 597637, Control_c, 0, 67, 25
1, 597652, Control_c, 0, 67, 22
1, 597655, Note_off_c, 0, 80, 63
1, 597667, Control_c, 0, 67, 17
1, 597682, Control_c, 0, 67, 11
1, 597697, Control_c, 0, 67, 0
1, 597712, Note_on_c, 0, 63, 85
1, 597716, Note_on_c, 0, 83, 102
1, 597726, Note_on_c, 0, 71, 89
1, 597726, Note_on_c, 0, 75, 89
1, 597726, Control_c, 0, 64, 69
1, 597733, Note_off_c, 0, 63, 69
1, 597735, Note_on_c, 0, 57, 44
1, 597741, Control_c, 0, 64, 91
1, 597743, Note_off_c, 0, 75, 75
1, 597745, Note_off_c, 0, 71, 73
1, 597750, Note_off_c, 0, 83, 71
1, 597756, Control_c, 0, 64, 127
1, 597765, Note_off_c, 0, 57, 55
1, 598081, Note_on_c, 0, 68, 76
1, 598082, Note_on_c, 0, 65, 76
1, 598087, Note_on_c, 0, 52, 72
1, 598126, Control_c, 0, 64, 89
1, 598135, Note_off_c, 0, 65, 61
1, 598136, Note_off_c, 0, 68, 62
1, 598141, Control_c, 0, 64, 63
1, 598145, Note_off_c, 0, 52, 58
1, 598163, Control_c, 0, 64, 0
1, 598167, Note_on_c, 0, 74, 76
1, 598250, Note_on_c, 0, 77, 71
1, 598252, Note_on_c, 0, 64, 62
1, 598280, Note_off_c, 0, 74, 64
1, 598293, Note_off_c, 0, 64, 63
1, 598319, Note_on_c, 0, 80, 78
1, 598323, Note_off_c, 0, 77, 65
1, 598357, Note_off_c, 0, 80, 62
1, 598422, Note_on_c, 0, 63, 90
1, 598424, Note_on_c, 0, 84, 100
1, 598425, Note_on_c, 0, 56, 82
1, 598429, Note_on_c, 0, 75, 97
1, 598430, Note_on_c, 0, 72, 93
1, 598431, Control_c, 0, 64, 76
1, 598443, Note_on_c, 0, 82, 66
1, 598445, Note_off_c, 0, 72, 75
1, 598446, Control_c, 0, 64, 127
1, 598454, Note_off_c, 0, 56, 67
1, 598454, Note_off_c, 0, 75, 63
1, 598456, Note_off_c, 0, 84, 63
1, 598457, Note_off_c, 0, 63, 62
1, 598462, Note_off_c, 0, 82, 65
1, 598762, Note_on_c, 0, 68, 86
1, 598766, Note_on_c, 0, 65, 88
1, 598770, Note_on_c, 0, 52, 81
1, 598815, Note_off_c, 0, 65, 64
1, 598846, Control_c, 0, 64, 93
1, 598847, Note_off_c, 0, 68, 59
1, 598850, Note_on_c, 0, 74, 78
1, 598860, Control_c, 0, 64, 0
1, 598887, Note_off_c, 0, 52, 60
1, 598928, Note_on_c, 0, 64, 77
1, 598937, Note_on_c, 0, 77, 71
1, 598978, Note_off_c, 0, 74, 65
1, 598990, Note_on_c, 0, 80, 85
1, 598993, Note_off_c, 0, 64, 62
1, 599003, Note_off_c, 0, 77, 66
1, 599036, Note_off_c, 0, 80, 63
1, 599086, Note_on_c, 0, 65, 90
1, 599088, Note_on_c, 0, 73, 100
1, 599088, Note_on_c, 0, 85, 97
1, 599089, Note_on_c, 0, 77, 94
1, 599092, Note_on_c, 0, 56, 89
1, 599105, Control_c, 0, 64, 75
1, 599112, Note_off_c, 0, 77, 62
1, 599120, Note_off_c, 0, 85, 68
1, 599120, Control_c, 0, 64, 127
1, 599135, Note_off_c, 0, 73, 61
1, 599139, Note_off_c, 0, 65, 63
1, 599166, Note_off_c, 0, 56, 58
1, 599342, Note_on_c, 0, 68, 78
1, 599342, Note_on_c, 0, 61, 80
1, 599396, Note_off_c, 0, 61, 63
1, 599399, Note_off_c, 0, 68, 63
1, 599407, Note_on_c, 0, 73, 87
1, 599419, Note_on_c, 0, 65, 73
1, 599443, Note_off_c, 0, 73, 64
1, 599463, Note_off_c, 0, 65, 61
1, 599492, Note_on_c, 0, 77, 86
1, 599517, Note_on_c, 0, 68, 70
1, 599566, Note_on_c, 0, 80, 88
1, 599572, Note_on_c, 0, 73, 85
1, 599575, Note_off_c, 0, 77, 60
1, 599581, Note_off_c, 0, 68, 62
1, 599632, Note_off_c, 0, 73, 62
1, 599643, Note_off_c, 0, 80, 64
1, 599645, Note_on_c, 0, 84, 80
1, 599658, Note_on_c, 0, 77, 74
1, 599673, Note_off_c, 0, 84, 70
1, 599681, Note_off_c, 0, 77, 69
1, 599691, Control_c, 0, 64, 74
1, 599706, Control_c, 0, 64, 0
1, 599728, Note_on_c, 0, 71, 92
1, 599730, Note_on_c, 0, 74, 92
1, 599733, Note_on_c, 0, 86, 94
1, 599742, Note_on_c, 0, 78, 92
1, 599748, Note_on_c, 0, 76, 53
1, 599749, Note_off_c, 0, 76, 127
1, 599767, Note_off_c, 0, 74, 67
1, 599773, Note_off_c, 0, 71, 65
1, 599779, Note_off_c, 0, 78, 61
1, 599780, Control_c, 0, 64, 50
1, 599795, Control_c, 0, 64, 74
1, 599810, Control_c, 0, 64, 100
1, 599825, Control_c, 0, 64, 127
1, 599828, Note_on_c, 0, 83, 81
1, 599894, Note_on_c, 0, 78, 84
1, 599929, Note_off_c, 0, 83, 61
1, 599934, Note_off_c, 0, 86, 63
1, 599962, Note_on_c, 0, 59, 86
1, 599973, Note_off_c, 0, 78, 62
1, 599978, Note_on_c, 0, 74, 53
1, 600000, Note_off_c, 0, 74, 62
1, 600055, Note_on_c, 0, 66, 87
1, 600081, Note_off_c, 0, 59, 61
1, 600126, Note_off_c, 0, 66, 60
1, 600136, Note_on_c, 0, 71, 81
1, 600150, Note_on_c, 0, 78, 84
1, 600192, Note_off_c, 0, 71, 64
1, 600219, Note_on_c, 0, 74, 99
1, 600224, Note_on_c, 0, 83, 91
1, 600236, Note_off_c, 0, 78, 61
1, 600239, Note_off_c, 0, 74, 71
1, 600296, Note_on_c, 0, 86, 82
1, 600314, Note_off_c, 0, 83, 64
1, 600451, Note_on_c, 0, 87, 79
1, 600454, Note_on_c, 0, 50, 110
1, 600460, Note_on_c, 0, 38, 94
1, 600470, Control_c, 0, 64, 87
1, 600484, Note_on_c, 0, 75, 64
1, 600484, Control_c, 0, 64, 0
1, 600493, Note_off_c, 0, 86, 56
1, 600529, Control_c, 0, 64, 67
1, 600544, Control_c, 0, 64, 85
1, 600552, Note_on_c, 0, 84, 66
1, 600558, Control_c, 0, 64, 127
1, 600560, Note_off_c, 0, 75, 61
1, 600567, Note_off_c, 0, 87, 59
1, 600614, Note_off_c, 0, 38, 63
1, 600637, Note_on_c, 0, 80, 82
1, 600640, Note_off_c, 0, 84, 62
1, 600651, Note_off_c, 0, 50, 70
1, 600722, Note_on_c, 0, 84, 68
1, 600735, Note_off_c, 0, 80, 59
1, 600774, Note_off_c, 0, 84, 64
1, 600840, Note_on_c, 0, 78, 118
1, 600868, Note_off_c, 0, 78, 71
1, 600879, Note_on_c, 0, 79, 44
1, 600906, Note_off_c, 0, 79, 56
1, 600916, Note_on_c, 0, 80, 78
1, 600991, Note_on_c, 0, 75, 78
1, 600999, Note_off_c, 0, 80, 61
1, 601059, Note_on_c, 0, 72, 81
1, 601072, Note_on_c, 0, 78, 84
1, 601075, Note_off_c, 0, 75, 61
1, 601100, Note_off_c, 0, 72, 64
1, 601130, Note_off_c, 0, 78, 61
1, 601139, Note_on_c, 0, 68, 97
1, 601156, Note_on_c, 0, 72, 69
1, 601223, Note_on_c, 0, 66, 94
1, 601234, Note_off_c, 0, 68, 60
1, 601234, Note_off_c, 0, 72, 60
1, 601235, Note_on_c, 0, 75, 78
1, 601283, Note_off_c, 0, 75, 61
1, 601302, Note_off_c, 0, 66, 68
1, 601307, Note_on_c, 0, 63, 92
1, 601318, Note_on_c, 0, 68, 87
1, 601379, Note_off_c, 0, 68, 60
1, 601395, Note_on_c, 0, 72, 80
1, 601420, Note_off_c, 0, 63, 58
1, 601446, Note_off_c, 0, 72, 61
1, 601469, Note_on_c, 0, 66, 99
1, 601470, Control_c, 0, 64, 104
1, 601485, Control_c, 0, 64, 71
1, 601499, Control_c, 0, 64, 50
1, 601506, Note_off_c, 0, 66, 66
1, 601514, Control_c, 0, 64, 65
1, 601529, Control_c, 0, 64, 77
1, 601541, Note_on_c, 0, 68, 82
1, 601544, Control_c, 0, 64, 97
1, 601559, Control_c, 0, 64, 127
1, 601577, Poly_aftertouch_c, 0, 63, 0
1, 601632, Note_on_c, 0, 63, 72
1, 601640, Note_off_c, 0, 68, 62
1, 601682, Note_on_c, 0, 60, 84
1, 601692, Note_on_c, 0, 66, 68
1, 601701, Note_off_c, 0, 63, 60
1, 601712, Note_off_c, 0, 66, 70
1, 601743, Note_off_c, 0, 60, 65
1, 601751, Note_on_c, 0, 63, 90
1, 601767, Control_c, 0, 64, 79
1, 601769, Note_off_c, 0, 63, 72
1, 601782, Control_c, 0, 64, 40
1, 601796, Control_c, 0, 64, 0
1, 601811, Control_c, 0, 64, 62
1, 601826, Control_c, 0, 64, 74
1, 601841, Control_c, 0, 64, 92
1, 601852, Note_on_c, 0, 56, 92
1, 601856, Control_c, 0, 64, 127
1, 601927, Note_off_c, 0, 56, 67
1, 601943, Note_on_c, 0, 60, 81
1, 601945, Note_on_c, 0, 59, 79
1, 601969, Note_off_c, 0, 59, 66
1, 601975, Note_off_c, 0, 60, 66
1, 602004, Note_on_c, 0, 54, 88
1, 602065, Note_off_c, 0, 54, 64
1, 602084, Note_on_c, 0, 56, 85
1, 602138, Note_on_c, 0, 51, 84
1, 602138, Note_off_c, 0, 56, 67
1, 602186, Note_off_c, 0, 51, 65
1, 602227, Note_on_c, 0, 54, 90
1, 602303, Note_on_c, 0, 49, 97
1, 602313, Note_off_c, 0, 54, 67
1, 602335, Note_off_c, 0, 49, 65
1, 602383, Control_c, 0, 64, 107
1, 602390, Note_on_c, 0, 50, 93
1, 602397, Control_c, 0, 64, 77
1, 602412, Control_c, 0, 64, 0
1, 602460, Note_off_c, 0, 50, 63
1, 602462, Note_on_c, 0, 51, 90
1, 602487, Control_c, 0, 67, 8
1, 602502, Control_c, 0, 67, 10
1, 602517, Control_c, 0, 67, 11
1, 602532, Control_c, 0, 67, 12
1, 602546, Control_c, 0, 67, 14
1, 602554, Note_on_c, 0, 50, 83
1, 602557, Note_off_c, 0, 51, 63
1, 602561, Control_c, 0, 67, 17
1, 602576, Control_c, 0, 67, 21
1, 602591, Control_c, 0, 67, 24
1, 602606, Control_c, 0, 67, 29
1, 602620, Control_c, 0, 67, 35
1, 602635, Control_c, 0, 67, 42
1, 602636, Note_on_c, 0, 51, 86
1, 602639, Note_off_c, 0, 50, 63
1, 602657, Control_c, 0, 67, 52
1, 602672, Control_c, 0, 67, 64
1, 602687, Control_c, 0, 67, 74
1, 602702, Control_c, 0, 67, 82
1, 602717, Control_c, 0, 67, 89
1, 602722, Note_off_c, 0, 51, 63
1, 602731, Note_on_c, 0, 50, 85
1, 602731, Control_c, 0, 67, 96
1, 602746, Control_c, 0, 67, 102
1, 602761, Control_c, 0, 67, 109
1, 602776, Control_c, 0, 67, 116
1, 602791, Control_c, 0, 67, 124
1, 602806, Control_c, 0, 67, 127
1, 602809, Note_on_c, 0, 51, 84
1, 602812, Note_off_c, 0, 50, 62
1, 602883, Note_off_c, 0, 51, 64
1, 602892, Note_on_c, 0, 50, 78
1, 602958, Note_off_c, 0, 50, 63
1, 602966, Note_on_c, 0, 51, 73
1, 603039, Note_off_c, 0, 51, 61
1, 603058, Note_on_c, 0, 50, 70
1, 603122, Note_off_c, 0, 50, 60
1, 603137, Note_on_c, 0, 51, 66
1, 603206, Note_off_c, 0, 51, 61
1, 603234, Note_on_c, 0, 50, 59
1, 603292, Note_off_c, 0, 50, 61
1, 603314, Note_on_c, 0, 51, 60
1, 603378, Note_off_c, 0, 51, 56
1, 603411, Note_on_c, 0, 50, 60
1, 603475, Note_off_c, 0, 50, 61
1, 603498, Note_on_c, 0, 51, 58
1, 603557, Note_off_c, 0, 51, 59
1, 603594, Note_on_c, 0, 50, 48
1, 603645, Note_off_c, 0, 50, 64
1, 603676, Note_on_c, 0, 51, 53
1, 603724, Note_off_c, 0, 51, 59
1, 603749, Note_on_c, 0, 50, 53
1, 603813, Note_off_c, 0, 50, 62
1, 603838, Note_on_c, 0, 51, 47
1, 603897, Note_off_c, 0, 51, 62
1, 603936, Note_on_c, 0, 50, 52
1, 603988, Note_off_c, 0, 50, 62
1, 604022, Note_on_c, 0, 51, 52
1, 604070, Note_off_c, 0, 51, 59
1, 604095, Note_on_c, 0, 50, 50
1, 604159, Note_off_c, 0, 50, 61
1, 604179, Note_on_c, 0, 51, 55
1, 604228, Note_off_c, 0, 51, 58
1, 604288, Note_on_c, 0, 50, 33
1, 604326, Note_off_c, 0, 50, 50
1, 604329, Note_on_c, 0, 51, 57
1, 604384, Note_off_c, 0, 51, 58
1, 604408, Note_on_c, 0, 54, 64
1, 604410, Note_on_c, 0, 50, 49
1, 604428, Note_on_c, 0, 67, 73
1, 604434, Note_on_c, 0, 62, 57
1, 604438, Note_off_c, 0, 54, 66
1, 604452, Note_off_c, 0, 67, 67
1, 604454, Note_on_c, 0, 47, 43
1, 604455, Note_off_c, 0, 62, 62
1, 604495, Note_off_c, 0, 50, 56
1, 604500, Note_off_c, 0, 47, 56
1, 604540, Note_on_c, 0, 51, 54
1, 604591, Note_off_c, 0, 51, 62
1, 604615, Note_on_c, 0, 50, 50
1, 604663, Note_off_c, 0, 50, 62
1, 604691, Note_on_c, 0, 51, 58
1, 604751, Note_off_c, 0, 51, 57
1, 604771, Note_on_c, 0, 54, 73
1, 604773, Note_on_c, 0, 50, 50
1, 604776, Note_on_c, 0, 62, 69
1, 604781, Note_on_c, 0, 67, 79
1, 604794, Note_off_c, 0, 54, 68
1, 604800, Note_off_c, 0, 62, 65
1, 604800, Note_off_c, 0, 67, 70
1, 604801, Note_on_c, 0, 47, 48
1, 604850, Note_off_c, 0, 50, 57
1, 604884, Note_on_c, 0, 51, 60
1, 604901, Note_off_c, 0, 47, 60
1, 604942, Note_off_c, 0, 51, 63
1, 604962, Note_on_c, 0, 50, 64
1, 605033, Note_off_c, 0, 50, 60
1, 605039, Note_on_c, 0, 51, 67
1, 605099, Note_off_c, 0, 51, 54
1, 605102, Note_on_c, 0, 55, 63
1, 605131, Note_on_c, 0, 52, 69
1, 605133, Note_on_c, 0, 63, 77
1, 605143, Note_on_c, 0, 48, 60
1, 605146, Note_on_c, 0, 68, 85
1, 605167, Note_off_c, 0, 55, 65
1, 605184, Control_c, 0, 64, 62
1, 605199, Control_c, 0, 64, 70
1, 605204, Note_off_c, 0, 63, 60
1, 605214, Control_c, 0, 64, 76
1, 605223, Note_off_c, 0, 52, 58
1, 605228, Control_c, 0, 64, 81
1, 605231, Note_on_c, 0, 51, 70
1, 605243, Control_c, 0, 64, 82
1, 605258, Control_c, 0, 64, 80
1, 605272, Control_c, 0, 64, 78
1, 605287, Control_c, 0, 64, 74
1, 605302, Control_c, 0, 64, 69
1, 605304, Note_off_c, 0, 51, 60
1, 605317, Control_c, 0, 64, 65
1, 605332, Control_c, 0, 64, 63
1, 605336, Note_on_c, 0, 52, 65
1, 605346, Control_c, 0, 64, 61
1, 605361, Control_c, 0, 64, 59
1, 605376, Control_c, 0, 64, 58
1, 605391, Control_c, 0, 64, 57
1, 605406, Control_c, 0, 64, 56
1, 605410, Note_off_c, 0, 52, 58
1, 605420, Control_c, 0, 64, 54
1, 605421, Note_on_c, 0, 51, 62
1, 605426, Note_on_c, 0, 69, 68
1, 605435, Control_c, 0, 64, 50
1, 605450, Control_c, 0, 64, 36
1, 605465, Control_c, 0, 64, 0
1, 605470, Note_off_c, 0, 68, 59
1, 605492, Note_off_c, 0, 51, 63
1, 605507, Note_on_c, 0, 64, 70
1, 605513, Note_off_c, 0, 69, 61
1, 605523, Note_on_c, 0, 52, 63
1, 605573, Note_off_c, 0, 52, 55
1, 605608, Note_on_c, 0, 51, 52
1, 605653, Note_off_c, 0, 51, 61
1, 605688, Note_on_c, 0, 52, 61
1, 605721, Note_off_c, 0, 64, 63
1, 605766, Note_on_c, 0, 63, 63
1, 605767, Note_off_c, 0, 52, 61
1, 605768, Note_off_c, 0, 48, 57
1, 605773, Note_on_c, 0, 51, 57
1, 605817, Note_off_c, 0, 63, 53
1, 605838, Note_off_c, 0, 51, 57
1, 605860, Note_on_c, 0, 54, 77
1, 605868, Note_on_c, 0, 62, 71
1, 605871, Note_on_c, 0, 66, 53
1, 605882, Note_on_c, 0, 50, 63
1, 605885, Note_on_c, 0, 47, 57
1, 605885, Note_off_c, 0, 54, 68
1, 605886, Note_on_c, 0, 67, 61
1, 605892, Note_off_c, 0, 62, 66
1, 605895, Note_off_c, 0, 66, 59
1, 605906, Note_off_c, 0, 67, 63
1, 605934, Note_off_c, 0, 47, 60
1, 605939, Note_off_c, 0, 50, 58
1, 605967, Note_on_c, 0, 51, 62
1, 606028, Note_off_c, 0, 51, 61
1, 606048, Note_on_c, 0, 50, 59
1, 606110, Note_off_c, 0, 50, 54
1, 606149, Note_on_c, 0, 51, 54
1, 606216, Note_on_c, 0, 54, 70
1, 606220, Note_off_c, 0, 51, 61
1, 606221, Note_on_c, 0, 62, 79
1, 606229, Note_on_c, 0, 50, 67
1, 606231, Note_on_c, 0, 67, 78
1, 606240, Note_off_c, 0, 54, 67
1, 606243, Note_off_c, 0, 62, 69
1, 606246, Note_on_c, 0, 47, 57
1, 606252, Note_off_c, 0, 67, 69
1, 606301, Note_off_c, 0, 50, 61
1, 606336, Note_on_c, 0, 51, 64
1, 606336, Note_off_c, 0, 47, 61
1, 606389, Note_off_c, 0, 51, 61
1, 606424, Note_on_c, 0, 50, 51
1, 606479, Note_off_c, 0, 50, 58
1, 606500, Note_on_c, 0, 51, 59
1, 606554, Note_off_c, 0, 51, 57
1, 606574, Note_on_c, 0, 55, 67
1, 606600, Note_on_c, 0, 63, 68
1, 606612, Note_on_c, 0, 52, 61
1, 606617, Note_on_c, 0, 68, 79
1, 606622, Note_on_c, 0, 48, 55
1, 606639, Note_off_c, 0, 55, 63
1, 606653, Control_c, 0, 64, 39
1, 606668, Control_c, 0, 64, 64
1, 606678, Note_off_c, 0, 63, 61
1, 606682, Control_c, 0, 64, 69
1, 606697, Control_c, 0, 64, 72
1, 606701, Note_off_c, 0, 52, 61
1, 606710, Note_on_c, 0, 51, 64
1, 606712, Control_c, 0, 64, 73
1, 606756, Control_c, 0, 64, 72
1, 606771, Control_c, 0, 64, 71
1, 606783, Note_off_c, 0, 51, 60
1, 606786, Control_c, 0, 64, 69
1, 606800, Control_c, 0, 64, 67
1, 606813, Note_on_c, 0, 52, 63
1, 606815, Control_c, 0, 64, 66
1, 606830, Control_c, 0, 64, 65
1, 606845, Control_c, 0, 64, 64
1, 606860, Control_c, 0, 64, 64
1, 606875, Control_c, 0, 64, 62
1, 606888, Note_off_c, 0, 52, 61
1, 606890, Control_c, 0, 64, 61
1, 606900, Note_on_c, 0, 69, 72
1, 606902, Note_on_c, 0, 51, 63
1, 606905, Control_c, 0, 64, 57
1, 606919, Control_c, 0, 64, 52
1, 606934, Control_c, 0, 64, 36
1, 606946, Note_off_c, 0, 68, 59
1, 606949, Control_c, 0, 64, 0
1, 606965, Note_off_c, 0, 51, 61
1, 606968, Note_on_c, 0, 64, 82
1, 606984, Note_off_c, 0, 69, 64
1, 606987, Note_on_c, 0, 52, 65
1, 607039, Note_off_c, 0, 52, 49
1, 607077, Note_on_c, 0, 51, 62
1, 607121, Note_off_c, 0, 51, 60
1, 607149, Control_c, 0, 64, 36
1, 607159, Note_on_c, 0, 52, 64
1, 607164, Control_c, 0, 64, 43
1, 607179, Control_c, 0, 64, 47
1, 607182, Note_off_c, 0, 64, 64
1, 607193, Control_c, 0, 64, 49
1, 607208, Control_c, 0, 64, 50
1, 607218, Note_on_c, 0, 63, 64
1, 607224, Control_c, 0, 64, 51
1, 607226, Note_on_c, 0, 51, 63
1, 607228, Note_off_c, 0, 52, 58
1, 607233, Note_off_c, 0, 48, 61
1, 607268, Note_off_c, 0, 63, 60
1, 607268, Control_c, 0, 64, 49
1, 607273, Note_off_c, 0, 51, 62
1, 607283, Control_c, 0, 64, 45
1, 607297, Control_c, 0, 64, 34
1, 607312, Control_c, 0, 64, 0
1, 607313, Note_on_c, 0, 62, 77
1, 607313, Note_on_c, 0, 54, 77
1, 607319, Note_on_c, 0, 50, 73
1, 607321, Note_on_c, 0, 67, 79
1, 607322, Note_on_c, 0, 47, 70
1, 607335, Note_off_c, 0, 62, 68
1, 607337, Note_off_c, 0, 54, 68
1, 607343, Note_off_c, 0, 67, 66
1, 607381, Note_off_c, 0, 50, 62
1, 607405, Note_on_c, 0, 51, 73
1, 607428, Note_off_c, 0, 47, 60
1, 607489, Note_off_c, 0, 51, 62
1, 607490, Note_on_c, 0, 52, 70
1, 607564, Note_off_c, 0, 52, 61
1, 607579, Note_on_c, 0, 72, 82
1, 607580, Note_on_c, 0, 53, 73
1, 607661, Note_on_c, 0, 62, 83
1, 607671, Note_on_c, 0, 68, 81
1, 607671, Note_off_c, 0, 53, 63
1, 607672, Note_on_c, 0, 75, 89
1, 607676, Note_on_c, 0, 48, 69
1, 607680, Note_on_c, 0, 54, 74
1, 607712, Note_off_c, 0, 72, 59
1, 607747, Note_off_c, 0, 54, 63
1, 607772, Note_on_c, 0, 53, 71
1, 607850, Note_off_c, 0, 53, 65
1, 607858, Note_on_c, 0, 54, 70
1, 607897, Control_c, 0, 67, 127
1, 607912, Control_c, 0, 67, 124
1, 607927, Control_c, 0, 67, 121
1, 607936, Note_off_c, 0, 54, 63
1, 607942, Control_c, 0, 67, 118
1, 607956, Control_c, 0, 67, 115
1, 607963, Note_on_c, 0, 53, 66
1, 607971, Control_c, 0, 67, 112
1, 607986, Control_c, 0, 67, 111
1, 608001, Control_c, 0, 67, 111
1, 608017, Control_c, 0, 67, 114
1, 608031, Control_c, 0, 67, 116
1, 608035, Note_off_c, 0, 53, 64
1, 608046, Control_c, 0, 67, 119
1, 608049, Note_on_c, 0, 54, 68
1, 608061, Control_c, 0, 67, 121
1, 608076, Control_c, 0, 67, 121
1, 608090, Control_c, 0, 67, 122
1, 608109, Note_off_c, 0, 54, 61
1, 608135, Control_c, 0, 67, 121
1, 608137, Note_on_c, 0, 53, 64
1, 608179, Control_c, 0, 67, 121
1, 608194, Control_c, 0, 67, 121
1, 608205, Note_off_c, 0, 53, 64
1, 608209, Control_c, 0, 67, 122
1, 608221, Note_on_c, 0, 54, 66
1, 608224, Control_c, 0, 67, 122
1, 608238, Control_c, 0, 67, 123
1, 608253, Control_c, 0, 67, 125
1, 608268, Control_c, 0, 67, 126
1, 608273, Note_off_c, 0, 54, 57
1, 608283, Control_c, 0, 67, 127
1, 608304, Note_on_c, 0, 53, 67
1, 608304, Note_on_c, 0, 72, 75
1, 608312, Note_off_c, 0, 68, 59
1, 608342, Control_c, 0, 67, 126
1, 608345, Note_off_c, 0, 62, 58
1, 608347, Note_off_c, 0, 75, 62
1, 608357, Control_c, 0, 67, 125
1, 608374, Note_off_c, 0, 53, 64
1, 608388, Note_on_c, 0, 54, 65
1, 608400, Note_off_c, 0, 72, 63
1, 608402, Note_on_c, 0, 68, 81
1, 608443, Note_off_c, 0, 54, 59
1, 608446, Control_c, 0, 67, 126
1, 608483, Note_on_c, 0, 53, 66
1, 608550, Control_c, 0, 67, 126
1, 608563, Note_off_c, 0, 53, 65
1, 608564, Control_c, 0, 64, 14
1, 608571, Note_on_c, 0, 52, 65
1, 608579, Control_c, 0, 64, 17
1, 608594, Control_c, 0, 67, 127
1, 608597, Note_off_c, 0, 48, 58
1, 608623, Control_c, 0, 64, 19
1, 608641, Note_off_c, 0, 68, 58
1, 608649, Note_on_c, 0, 63, 64
1, 608652, Note_off_c, 0, 52, 61
1, 608662, Note_on_c, 0, 51, 68
1, 608690, Control_c, 0, 64, 17
1, 608705, Control_c, 0, 67, 126
1, 608720, Control_c, 0, 64, 11
1, 608723, Note_off_c, 0, 63, 56
1, 608724, Note_off_c, 0, 51, 62
1, 608735, Control_c, 0, 64, 0
1, 608741, Note_on_c, 0, 54, 81
1, 608741, Note_on_c, 0, 62, 72
1, 608746, Note_on_c, 0, 67, 83
1, 608747, Note_on_c, 0, 50, 73
1, 608760, Note_on_c, 0, 47, 66
1, 608765, Note_off_c, 0, 54, 68
1, 608774, Note_off_c, 0, 62, 65
1, 608792, Note_off_c, 0, 67, 64
1, 608807, Note_off_c, 0, 50, 61
1, 608809, Control_c, 0, 67, 127
1, 608848, Note_on_c, 0, 51, 67
1, 608869, Control_c, 0, 67, 126
1, 608932, Note_off_c, 0, 47, 63
1, 608935, Note_on_c, 0, 52, 69
1, 608935, Note_off_c, 0, 51, 59
1, 608959, Control_c, 0, 67, 126
1, 608973, Control_c, 0, 67, 125
1, 608988, Control_c, 0, 67, 124
1, 609003, Control_c, 0, 67, 123
1, 609006, Note_off_c, 0, 52, 61
1, 609015, Note_on_c, 0, 53, 70
1, 609018, Control_c, 0, 67, 122
1, 609027, Note_on_c, 0, 72, 77
1, 609033, Control_c, 0, 67, 122
1, 609048, Control_c, 0, 67, 121
1, 609062, Control_c, 0, 67, 120
1, 609077, Control_c, 0, 67, 119
1, 609092, Control_c, 0, 67, 119
1, 609103, Note_on_c, 0, 62, 77
1, 609113, Note_on_c, 0, 75, 91
1, 609114, Note_on_c, 0, 68, 77
1, 609114, Note_off_c, 0, 53, 63
1, 609118, Note_on_c, 0, 54, 75
1, 609121, Control_c, 0, 67, 119
1, 609125, Note_on_c, 0, 48, 62
1, 609141, Note_on_c, 0, 70, 17
1, 609146, Note_off_c, 0, 72, 63
1, 609161, Note_off_c, 0, 70, 35
1, 609186, Note_off_c, 0, 54, 63
1, 609212, Note_on_c, 0, 53, 73
1, 609269, Control_c, 0, 67, 119
1, 609284, Control_c, 0, 64, 46
1, 609299, Note_on_c, 0, 54, 74
1, 609299, Note_off_c, 0, 53, 65
1, 609299, Control_c, 0, 64, 59
1, 609299, Control_c, 0, 67, 118
1, 609313, Control_c, 0, 64, 63
1, 609328, Control_c, 0, 64, 65
1, 609328, Control_c, 0, 67, 118
1, 609343, Control_c, 0, 64, 65
1, 609358, Control_c, 0, 67, 117
1, 609372, Note_off_c, 0, 54, 64
1, 609373, Control_c, 0, 64, 65
1, 609395, Control_c, 0, 64, 64
1, 609395, Control_c, 0, 67, 117
1, 609397, Note_on_c, 0, 53, 73
1, 609410, Control_c, 0, 64, 63
1, 609411, Note_off_c, 0, 62, 55
1, 609425, Control_c, 0, 64, 61
1, 609440, Control_c, 0, 64, 58
1, 609454, Control_c, 0, 64, 54
1, 609469, Control_c, 0, 64, 52
1, 609484, Note_off_c, 0, 53, 64
1, 609484, Control_c, 0, 64, 51
1, 609484, Control_c, 0, 67, 118
1, 609486, Note_on_c, 0, 54, 75
1, 609499, Control_c, 0, 67, 120
1, 609514, Control_c, 0, 64, 52
1, 609514, Control_c, 0, 67, 123
1, 609528, Control_c, 0, 64, 54
1, 609528, Control_c, 0, 67, 127
1, 609543, Control_c, 0, 64, 55
1, 609558, Note_off_c, 0, 54, 64
1, 609558, Control_c, 0, 64, 56
1, 609570, Note_on_c, 0, 53, 70
1, 609573, Control_c, 0, 64, 57
1, 609659, Note_off_c, 0, 53, 63
1, 609663, Control_c, 0, 64, 57
1, 609675, Note_on_c, 0, 54, 63
1, 609678, Control_c, 0, 64, 56
1, 609692, Control_c, 0, 64, 55
1, 609695, Note_on_c, 0, 77, 70
1, 609707, Note_off_c, 0, 75, 58
1, 609707, Control_c, 0, 64, 54
1, 609722, Control_c, 0, 64, 53
1, 609737, Control_c, 0, 64, 50
1, 609745, Note_off_c, 0, 54, 63
1, 609751, Control_c, 0, 64, 47
1, 609766, Control_c, 0, 64, 43
1, 609770, Note_on_c, 0, 53, 63
1, 609781, Control_c, 0, 64, 39
1, 609796, Control_c, 0, 64, 36
1, 609841, Control_c, 0, 64, 38
1, 609850, Note_off_c, 0, 53, 61
1, 609856, Control_c, 0, 64, 39
1, 609865, Note_on_c, 0, 54, 62
1, 609870, Control_c, 0, 64, 40
1, 609885, Note_on_c, 0, 75, 62
1, 609900, Control_c, 0, 64, 39
1, 609914, Note_off_c, 0, 77, 58
1, 609930, Control_c, 0, 64, 38
1, 609930, Note_off_c, 0, 54, 57
1, 609944, Control_c, 0, 64, 37
1, 609956, Note_off_c, 0, 75, 61
1, 609959, Control_c, 0, 64, 36
1, 609969, Note_on_c, 0, 53, 63
1, 609974, Control_c, 0, 64, 36
1, 609988, Note_off_c, 0, 68, 59
1, 610048, Control_c, 0, 64, 35
1, 610053, Note_off_c, 0, 53, 63
1, 610064, Note_off_c, 0, 48, 60
1, 610067, Note_on_c, 0, 52, 59
1, 610077, Control_c, 0, 64, 34
1, 610092, Control_c, 0, 64, 33
1, 610107, Control_c, 0, 64, 31
1, 610122, Control_c, 0, 64, 27
1, 610125, Note_off_c, 0, 52, 57
1, 610144, Control_c, 0, 64, 21
1, 610159, Note_on_c, 0, 51, 55
1, 610159, Control_c, 0, 64, 11
1, 610174, Control_c, 0, 64, 0
1, 610212, Note_off_c, 0, 51, 61
1, 610233, Note_on_c, 0, 54, 71
1, 610243, Note_on_c, 0, 67, 68
1, 610245, Note_on_c, 0, 62, 58
1, 610249, Note_on_c, 0, 50, 61
1, 610255, Note_on_c, 0, 47, 53
1, 610257, Note_off_c, 0, 54, 67
1, 610268, Note_off_c, 0, 67, 66
1, 610273, Note_off_c, 0, 62, 64
1, 610308, Note_off_c, 0, 50, 58
1, 610321, Note_off_c, 0, 47, 56
1, 610342, Note_on_c, 0, 51, 57
1, 610392, Note_off_c, 0, 51, 62
1, 610419, Note_on_c, 0, 50, 56
1, 610475, Note_off_c, 0, 50, 58
1, 610506, Note_on_c, 0, 51, 55
1, 610575, Note_off_c, 0, 51, 58
1, 610592, Note_on_c, 0, 54, 68
1, 610604, Note_on_c, 0, 62, 64
1, 610605, Note_on_c, 0, 67, 72
1, 610607, Note_on_c, 0, 50, 57
1, 610615, Note_on_c, 0, 47, 51
1, 610616, Note_off_c, 0, 54, 67
1, 610630, Note_off_c, 0, 67, 68
1, 610634, Note_off_c, 0, 62, 64
1, 610676, Note_off_c, 0, 50, 56
1, 610696, Note_on_c, 0, 51, 60
1, 610719, Note_off_c, 0, 47, 56
1, 610763, Note_off_c, 0, 51, 63
1, 610785, Note_on_c, 0, 50, 59
1, 610833, Note_off_c, 0, 50, 57
1, 610880, Note_on_c, 0, 51, 51
1, 610943, Note_off_c, 0, 51, 57
1, 610959, Note_on_c, 0, 55, 58
1, 610982, Control_c, 0, 64, 19
1, 610983, Note_on_c, 0, 63, 55
1, 610993, Note_on_c, 0, 68, 71
1, 610994, Note_on_c, 0, 52, 55
1, 610995, Note_on_c, 0, 48, 49
1, 610997, Control_c, 0, 64, 63
1, 611009, Note_off_c, 0, 55, 63
1, 611011, Control_c, 0, 64, 69
1, 611026, Control_c, 0, 64, 75
1, 611041, Control_c, 0, 64, 82
1, 611054, Note_off_c, 0, 63, 54
1, 611056, Control_c, 0, 64, 87
1, 611071, Control_c, 0, 64, 94
1, 611084, Note_off_c, 0, 52, 60
1, 611085, Control_c, 0, 64, 100
1, 611095, Note_on_c, 0, 51, 61
1, 611100, Control_c, 0, 64, 107
1, 611105, Note_off_c, 0, 68, 60
1, 611115, Control_c, 0, 64, 112
1, 611130, Control_c, 0, 64, 117
1, 611145, Control_c, 0, 64, 121
1, 611159, Control_c, 0, 64, 126
1, 611167, Note_off_c, 0, 51, 62
1, 611174, Control_c, 0, 64, 127
1, 611195, Note_on_c, 0, 52, 62
1, 611235, Control_c, 0, 64, 124
1, 611250, Control_c, 0, 64, 106
1, 611264, Control_c, 0, 64, 89
1, 611265, Note_off_c, 0, 52, 55
1, 611272, Note_on_c, 0, 69, 86
1, 611278, Note_on_c, 0, 51, 72
1, 611279, Control_c, 0, 64, 71
1, 611294, Control_c, 0, 64, 14
1, 611309, Control_c, 0, 64, 0
1, 611333, Note_off_c, 0, 51, 54
1, 611355, Note_on_c, 0, 76, 94
1, 611361, Note_on_c, 0, 52, 72
1, 611362, Note_off_c, 0, 69, 63
1, 611367, Note_on_c, 0, 64, 80
1, 611412, Control_c, 0, 64, 48
1, 611417, Note_off_c, 0, 52, 54
1, 611427, Control_c, 0, 64, 67
1, 611442, Note_on_c, 0, 51, 65
1, 611442, Control_c, 0, 64, 76
1, 611457, Control_c, 0, 64, 90
1, 611461, Note_off_c, 0, 64, 51
1, 611471, Control_c, 0, 64, 114
1, 611486, Control_c, 0, 64, 127
1, 611501, Note_off_c, 0, 51, 60
1, 611522, Note_on_c, 0, 52, 67
1, 611586, Note_off_c, 0, 76, 58
1, 611588, Note_on_c, 0, 75, 74
1, 611600, Note_off_c, 0, 48, 61
1, 611600, Note_on_c, 0, 63, 76
1, 611606, Note_off_c, 0, 52, 60
1, 611608, Note_off_c, 0, 75, 71
1, 611610, Note_on_c, 0, 51, 72
1, 611626, Note_off_c, 0, 63, 66
1, 611668, Note_off_c, 0, 51, 60
1, 611686, Control_c, 0, 64, 99
1, 611701, Control_c, 0, 64, 70
1, 611716, Control_c, 0, 64, 0
1, 611718, Note_on_c, 0, 50, 74
1, 611719, Note_on_c, 0, 47, 66
1, 611722, Note_on_c, 0, 54, 74
1, 611727, Note_on_c, 0, 62, 71
1, 611737, Note_on_c, 0, 67, 59
1, 611748, Note_off_c, 0, 54, 67
1, 611748, Note_off_c, 0, 62, 65
1, 611755, Note_on_c, 0, 66, 4
1, 611757, Note_off_c, 0, 66, 39
1, 611759, Note_off_c, 0, 67, 61
1, 611781, Note_off_c, 0, 50, 60
1, 611790, Note_off_c, 0, 47, 44
1, 611815, Note_on_c, 0, 51, 71
1, 611882, Note_off_c, 0, 51, 63
1, 611913, Note_on_c, 0, 50, 55
1, 611965, Note_off_c, 0, 50, 61
1, 611992, Note_on_c, 0, 51, 59
1, 612045, Note_off_c, 0, 51, 56
1, 612082, Note_on_c, 0, 54, 83
1, 612088, Note_on_c, 0, 62, 80
1, 612091, Note_on_c, 0, 67, 85
1, 612093, Note_on_c, 0, 50, 71
1, 612103, Note_on_c, 0, 47, 61
1, 612105, Note_off_c, 0, 54, 70
1, 612118, Note_off_c, 0, 62, 65
1, 612120, Note_off_c, 0, 67, 63
1, 612157, Note_off_c, 0, 50, 63
1, 612187, Note_on_c, 0, 51, 64
1, 612190, Note_off_c, 0, 47, 62
1, 612253, Note_off_c, 0, 51, 63
1, 612267, Note_on_c, 0, 50, 69
1, 612337, Note_off_c, 0, 50, 59
1, 612345, Note_on_c, 0, 51, 70
1, 612419, Note_off_c, 0, 51, 62
1, 612443, Note_on_c, 0, 55, 70
1, 612454, Note_on_c, 0, 63, 77
1, 612455, Note_on_c, 0, 68, 90
1, 612464, Note_on_c, 0, 52, 73
1, 612466, Note_on_c, 0, 48, 71
1, 612479, Control_c, 0, 64, 63
1, 612494, Control_c, 0, 64, 74
1, 612501, Note_off_c, 0, 55, 64
1, 612509, Control_c, 0, 64, 92
1, 612524, Control_c, 0, 64, 127
1, 612527, Note_off_c, 0, 63, 60
1, 612537, Note_on_c, 0, 66, 8
1, 612554, Note_off_c, 0, 52, 60
1, 612556, Note_on_c, 0, 51, 73
1, 612589, Note_off_c, 0, 66, 52
1, 612591, Note_off_c, 0, 68, 61
1, 612625, Note_off_c, 0, 51, 59
1, 612655, Note_on_c, 0, 52, 71
1, 612728, Note_off_c, 0, 52, 57
1, 612742, Note_on_c, 0, 51, 69
1, 612746, Control_c, 0, 64, 106
1, 612758, Note_on_c, 0, 69, 79
1, 612761, Control_c, 0, 64, 88
1, 612776, Control_c, 0, 64, 71
1, 612791, Control_c, 0, 64, 0
1, 612816, Note_off_c, 0, 51, 60
1, 612831, Note_off_c, 0, 69, 63
1, 612839, Note_on_c, 0, 52, 66
1, 612841, Note_on_c, 0, 76, 83
1, 612852, Note_on_c, 0, 64, 71
1, 612904, Note_off_c, 0, 52, 56
1, 612910, Control_c, 0, 64, 63
1, 612911, Note_off_c, 0, 64, 58
1, 612925, Control_c, 0, 64, 71
1, 612929, Note_on_c, 0, 51, 58
1, 612940, Control_c, 0, 64, 84
1, 612954, Control_c, 0, 64, 105
1, 612969, Control_c, 0, 64, 127
1, 612976, Note_off_c, 0, 51, 55
1, 613010, Note_on_c, 0, 52, 64
1, 613068, Note_off_c, 0, 76, 63
1, 613080, Note_off_c, 0, 48, 60
1, 613087, Note_off_c, 0, 52, 59
1, 613090, Note_on_c, 0, 51, 64
1, 613103, Note_on_c, 0, 63, 51
1, 613114, Note_on_c, 0, 75, 8
1, 613134, Note_off_c, 0, 63, 60
1, 613139, Note_off_c, 0, 51, 61
1, 613169, Control_c, 0, 64, 89
1, 613181, Note_off_c, 0, 75, 53
1, 613184, Control_c, 0, 64, 66
1, 613196, Note_on_c, 0, 47, 68
1, 613199, Control_c, 0, 64, 0
1, 613212, Note_on_c, 0, 50, 63
1, 613217, Note_on_c, 0, 62, 56
1, 613218, Note_on_c, 0, 54, 53
1, 613224, Note_on_c, 0, 66, 37
1, 613228, Note_on_c, 0, 67, 48
1, 613240, Note_off_c, 0, 62, 59
1, 613244, Note_off_c, 0, 50, 60
1, 613246, Note_off_c, 0, 54, 36
1, 613253, Note_off_c, 0, 66, 52
1, 613254, Note_off_c, 0, 67, 56
1, 613292, Note_off_c, 0, 47, 63
1, 613293, Note_on_c, 0, 49, 75
1, 613340, Note_off_c, 0, 49, 61
1, 613380, Note_on_c, 0, 48, 69
1, 613454, Note_off_c, 0, 48, 59
1, 613463, Note_on_c, 0, 47, 69
1, 613471, Note_on_c, 0, 62, 61
1, 613534, Note_off_c, 0, 47, 63
1, 613551, Note_on_c, 0, 46, 66
1, 613554, Note_on_c, 0, 61, 69
1, 613562, Note_on_c, 0, 40, 49
1, 613568, Note_off_c, 0, 62, 54
1, 613587, Note_on_c, 0, 56, 44
1, 613617, Note_off_c, 0, 46, 61
1, 613653, Note_on_c, 0, 47, 56
1, 613731, Note_off_c, 0, 47, 63
1, 613740, Note_on_c, 0, 46, 63
1, 613811, Note_off_c, 0, 46, 61
1, 613831, Note_on_c, 0, 47, 56
1, 613916, Note_off_c, 0, 47, 64
1, 613934, Note_on_c, 0, 46, 62
1, 613978, Note_off_c, 0, 46, 60
1, 614018, Note_on_c, 0, 47, 55
1, 614085, Note_off_c, 0, 47, 60
1, 614098, Note_on_c, 0, 46, 64
1, 614142, Note_off_c, 0, 56, 63
1, 614151, Note_off_c, 0, 46, 55
1, 614162, Note_off_c, 0, 61, 55
1, 614163, Note_on_c, 0, 59, 65
1, 614185, Note_on_c, 0, 44, 65
1, 614188, Note_on_c, 0, 54, 40
1, 614219, Note_off_c, 0, 54, 57
1, 614238, Note_off_c, 0, 59, 54
1, 614256, Note_on_c, 0, 61, 70
1, 614257, Note_on_c, 0, 46, 70
1, 614259, Note_on_c, 0, 56, 67
1, 614259, Note_off_c, 0, 44, 62
1, 614299, Note_off_c, 0, 40, 45
1, 614302, Note_off_c, 0, 56, 58
1, 614303, Control_c, 0, 64, 11
1, 614316, Note_off_c, 0, 46, 60
1, 614318, Control_c, 0, 64, 62
1, 614333, Control_c, 0, 64, 68
1, 614339, Note_on_c, 0, 47, 68
1, 614348, Control_c, 0, 64, 72
1, 614363, Control_c, 0, 64, 76
1, 614378, Control_c, 0, 64, 78
1, 614392, Control_c, 0, 64, 79
1, 614421, Note_off_c, 0, 47, 60
1, 614429, Note_on_c, 0, 48, 69
1, 614484, Note_off_c, 0, 48, 62
1, 614487, Note_off_c, 0, 61, 63
1, 614488, Note_on_c, 0, 68, 71
1, 614497, Note_on_c, 0, 49, 74
1, 614541, Control_c, 0, 64, 79
1, 614544, Note_off_c, 0, 68, 62
1, 614552, Note_off_c, 0, 49, 62
1, 614556, Control_c, 0, 64, 76
1, 614571, Control_c, 0, 64, 69
1, 614575, Note_on_c, 0, 54, 74
1, 614586, Control_c, 0, 64, 21
1, 614589, Note_on_c, 0, 62, 81
1, 614589, Note_on_c, 0, 50, 76
1, 614595, Note_on_c, 0, 67, 90
1, 614598, Note_on_c, 0, 47, 73
1, 614600, Control_c, 0, 64, 0
1, 614603, Note_off_c, 0, 54, 69
1, 614615, Note_off_c, 0, 62, 65
1, 614627, Note_off_c, 0, 67, 63
1, 614658, Note_off_c, 0, 50, 60
1, 614691, Note_on_c, 0, 49, 77
1, 614708, Note_off_c, 0, 47, 61
1, 614750, Note_off_c, 0, 49, 64
1, 614784, Note_on_c, 0, 48, 66
1, 614851, Note_off_c, 0, 48, 62
1, 614873, Note_on_c, 0, 47, 69
1, 614877, Note_on_c, 0, 62, 74
1, 614943, Note_off_c, 0, 47, 61
1, 614968, Note_on_c, 0, 40, 58
1, 614973, Note_on_c, 0, 61, 72
1, 614977, Note_on_c, 0, 46, 65
1, 614993, Note_on_c, 0, 56, 64
1, 615007, Note_off_c, 0, 62, 57
1, 615024, Note_off_c, 0, 46, 61
1, 615054, Note_on_c, 0, 47, 67
1, 615131, Note_off_c, 0, 47, 61
1, 615139, Note_on_c, 0, 46, 72
1, 615198, Note_off_c, 0, 46, 62
1, 615237, Note_on_c, 0, 47, 67
1, 615296, Note_off_c, 0, 47, 55
1, 615311, Note_on_c, 0, 46, 70
1, 615366, Note_off_c, 0, 40, 53
1, 615391, Note_off_c, 0, 46, 62
1, 615404, Note_on_c, 0, 47, 70
1, 615465, Note_off_c, 0, 47, 63
1, 615487, Note_off_c, 0, 56, 64
1, 615494, Note_on_c, 0, 48, 67
1, 615498, Note_on_c, 0, 57, 63
1, 615499, Note_on_c, 0, 63, 70
1, 615557, Note_off_c, 0, 61, 55
1, 615566, Note_off_c, 0, 48, 61
1, 615572, Note_on_c, 0, 47, 69
1, 615637, Note_off_c, 0, 57, 56
1, 615663, Note_off_c, 0, 47, 63
1, 615672, Note_on_c, 0, 48, 71
1, 615682, Note_on_c, 0, 66, 65
1, 615687, Note_on_c, 0, 58, 53
1, 615705, Note_off_c, 0, 63, 56
1, 615733, Note_off_c, 0, 48, 62
1, 615752, Note_on_c, 0, 49, 69
1, 615825, Note_off_c, 0, 58, 60
1, 615827, Note_off_c, 0, 49, 60
1, 615835, Note_on_c, 0, 50, 67
1, 615844, Note_on_c, 0, 64, 70
1, 615853, Note_off_c, 0, 66, 58
1, 615854, Note_on_c, 0, 59, 58
1, 615876, Note_off_c, 0, 59, 61
1, 615891, Note_off_c, 0, 50, 60
1, 615907, Note_on_c, 0, 49, 55
1, 615929, Note_off_c, 0, 64, 51
1, 615951, Note_off_c, 0, 49, 62
1, 616011, Note_on_c, 0, 50, 69
1, 616011, Note_on_c, 0, 54, 72
1, 616016, Note_on_c, 0, 62, 66
1, 616016, Note_on_c, 0, 67, 78
1, 616035, Note_off_c, 0, 54, 65
1, 616037, Note_on_c, 0, 47, 55
1, 616037, Note_off_c, 0, 67, 69
1, 616043, Note_off_c, 0, 62, 66
1, 616064, Note_off_c, 0, 50, 59
1, 616096, Note_off_c, 0, 47, 60
1, 616107, Note_on_c, 0, 51, 65
1, 616161, Note_off_c, 0, 51, 59
1, 616223, Note_on_c, 0, 50, 43
1, 616267, Note_off_c, 0, 50, 62
1, 616284, Note_on_c, 0, 51, 59
1, 616373, Note_off_c, 0, 51, 61
1, 616374, Note_on_c, 0, 54, 76
1, 616378, Note_on_c, 0, 62, 72
1, 616387, Note_on_c, 0, 67, 81
1, 616396, Note_on_c, 0, 47, 62
1, 616397, Note_on_c, 0, 50, 65
1, 616398, Note_off_c, 0, 54, 68
1, 616402, Note_off_c, 0, 62, 66
1, 616407, Note_off_c, 0, 67, 69
1, 616453, Note_off_c, 0, 50, 57
1, 616491, Note_on_c, 0, 51, 69
1, 616559, Note_off_c, 0, 51, 63
1, 616575, Note_on_c, 0, 50, 62
1, 616586, Note_off_c, 0, 47, 36
1, 616646, Note_off_c, 0, 50, 64
1, 616655, Note_on_c, 0, 51, 65
1, 616688, Note_off_c, 0, 51, 62
1, 616716, Note_on_c, 0, 55, 69
1, 616733, Note_on_c, 0, 63, 72
1, 616735, Note_on_c, 0, 52, 72
1, 616736, Note_on_c, 0, 48, 69
1, 616740, Note_on_c, 0, 68, 68
1, 616747, Note_off_c, 0, 55, 67
1, 616800, Note_off_c, 0, 52, 61
1, 616805, Note_off_c, 0, 63, 57
1, 616817, Note_on_c, 0, 51, 64
1, 616861, Note_off_c, 0, 51, 61
1, 616915, Note_on_c, 0, 52, 62
1, 616965, Note_off_c, 0, 48, 60
1, 616983, Note_on_c, 0, 51, 69
1, 617000, Note_off_c, 0, 52, 57
1, 617007, Note_off_c, 0, 68, 61
1, 617010, Note_on_c, 0, 69, 70
1, 617041, Note_off_c, 0, 51, 62
1, 617089, Note_on_c, 0, 64, 81
1, 617096, Note_on_c, 0, 49, 60
1, 617097, Note_on_c, 0, 52, 74
1, 617123, Note_off_c, 0, 69, 58
1, 617166, Note_off_c, 0, 52, 57
1, 617185, Note_on_c, 0, 53, 67
1, 617249, Note_off_c, 0, 53, 59
1, 617275, Note_on_c, 0, 52, 65
1, 617330, Note_off_c, 0, 52, 54
1, 617356, Note_off_c, 0, 49, 61
1, 617360, Note_on_c, 0, 53, 68
1, 617365, Note_off_c, 0, 64, 58
1, 617380, Note_on_c, 0, 63, 60
1, 617419, Note_off_c, 0, 53, 60
1, 617433, Note_on_c, 0, 57, 74
1, 617448, Note_on_c, 0, 70, 84
1, 617457, Note_on_c, 0, 65, 65
1, 617457, Note_off_c, 0, 57, 68
1, 617457, Note_off_c, 0, 63, 63
1, 617459, Note_on_c, 0, 54, 75
1, 617460, Note_on_c, 0, 50, 65
1, 617467, Note_off_c, 0, 70, 73
1, 617476, Note_off_c, 0, 65, 65
1, 617481, Note_on_c, 0, 64, 35
1, 617482, Note_off_c, 0, 64, 127
1, 617511, Note_off_c, 0, 54, 60
1, 617547, Note_on_c, 0, 53, 70
1, 617616, Note_off_c, 0, 53, 63
1, 617638, Note_on_c, 0, 54, 62
1, 617685, Note_off_c, 0, 50, 58
1, 617717, Note_off_c, 0, 54, 63
1, 617729, Note_on_c, 0, 53, 67
1, 617750, Control_c, 0, 67, 122
1, 617764, Control_c, 0, 67, 118
1, 617779, Control_c, 0, 67, 113
1, 617793, Note_off_c, 0, 53, 62
1, 617794, Note_on_c, 0, 58, 73
1, 617794, Control_c, 0, 67, 109
1, 617800, Note_on_c, 0, 66, 82
1, 617809, Control_c, 0, 67, 105
1, 617811, Note_on_c, 0, 71, 88
1, 617814, Note_on_c, 0, 54, 73
1, 617817, Note_off_c, 0, 58, 70
1, 617818, Note_on_c, 0, 51, 61
1, 617824, Control_c, 0, 67, 101
1, 617826, Note_off_c, 0, 66, 65
1, 617839, Control_c, 0, 67, 94
1, 617844, Note_off_c, 0, 71, 69
1, 617854, Control_c, 0, 67, 91
1, 617868, Note_off_c, 0, 54, 61
1, 617868, Control_c, 0, 67, 90
1, 617883, Control_c, 0, 67, 89
1, 617895, Note_on_c, 0, 55, 76
1, 617898, Control_c, 0, 67, 88
1, 617913, Control_c, 0, 67, 87
1, 617928, Control_c, 0, 67, 87
1, 617972, Control_c, 0, 67, 86
1, 617978, Note_off_c, 0, 55, 61
1, 617987, Note_on_c, 0, 56, 70
1, 618001, Control_c, 0, 67, 86
1, 618016, Control_c, 0, 67, 85
1, 618031, Control_c, 0, 67, 83
1, 618039, Note_off_c, 0, 51, 61
1, 618046, Control_c, 0, 67, 81
1, 618051, Note_off_c, 0, 56, 61
1, 618061, Control_c, 0, 67, 80
1, 618068, Note_on_c, 0, 57, 73
1, 618075, Control_c, 0, 67, 78
1, 618090, Control_c, 0, 67, 77
1, 618105, Control_c, 0, 67, 77
1, 618110, Note_on_c, 0, 59, 63
1, 618120, Control_c, 0, 67, 76
1, 618135, Control_c, 0, 67, 74
1, 618139, Note_off_c, 0, 59, 66
1, 618149, Control_c, 0, 67, 73
1, 618161, Note_on_c, 0, 72, 96
1, 618164, Note_on_c, 0, 52, 70
1, 618164, Note_on_c, 0, 67, 88
1, 618164, Control_c, 0, 67, 70
1, 618168, Note_off_c, 0, 57, 47
1, 618170, Note_on_c, 0, 58, 77
1, 618179, Control_c, 0, 67, 67
1, 618194, Control_c, 0, 67, 63
1, 618208, Control_c, 0, 67, 59
1, 618223, Control_c, 0, 67, 57
1, 618226, Note_off_c, 0, 58, 59
1, 618238, Control_c, 0, 67, 54
1, 618252, Note_on_c, 0, 57, 77
1, 618253, Control_c, 0, 67, 52
1, 618268, Control_c, 0, 67, 49
1, 618283, Control_c, 0, 67, 46
1, 618298, Control_c, 0, 67, 45
1, 618313, Control_c, 0, 67, 44
1, 618325, Note_off_c, 0, 67, 53
1, 618328, Control_c, 0, 67, 44
1, 618334, Note_on_c, 0, 58, 78
1, 618335, Note_off_c, 0, 57, 58
1, 618342, Control_c, 0, 67, 43
1, 618391, Note_off_c, 0, 52, 57
1, 618423, Note_off_c, 0, 58, 63
1, 618432, Note_on_c, 0, 73, 84
1, 618439, Note_on_c, 0, 57, 75
1, 618447, Note_off_c, 0, 72, 60
1, 618471, Note_off_c, 0, 57, 63
1, 618498, Control_c, 0, 67, 44
1, 618514, Control_c, 0, 67, 45
1, 618517, Note_on_c, 0, 68, 93
1, 618521, Note_on_c, 0, 58, 86
1, 618528, Note_on_c, 0, 53, 72
1, 618529, Control_c, 0, 67, 47
1, 618544, Control_c, 0, 67, 48
1, 618559, Control_c, 0, 67, 49
1, 618571, Note_off_c, 0, 73, 59
1, 618574, Control_c, 0, 67, 50
1, 618588, Control_c, 0, 67, 51
1, 618603, Control_c, 0, 67, 52
1, 618616, Note_on_c, 0, 59, 81
1, 618618, Control_c, 0, 67, 54
1, 618626, Note_off_c, 0, 58, 61
1, 618632, Control_c, 0, 64, 21
1, 618632, Control_c, 0, 67, 55
1, 618647, Control_c, 0, 64, 31
1, 618647, Control_c, 0, 67, 57
1, 618662, Control_c, 0, 64, 40
1, 618662, Control_c, 0, 67, 59
1, 618677, Control_c, 0, 64, 49
1, 618677, Control_c, 0, 67, 61
1, 618682, Note_off_c, 0, 59, 61
1, 618691, Note_on_c, 0, 60, 70
1, 618692, Control_c, 0, 64, 56
1, 618692, Control_c, 0, 67, 62
1, 618706, Control_c, 0, 64, 60
1, 618721, Control_c, 0, 64, 61
1, 618721, Control_c, 0, 67, 62
1, 618751, Note_off_c, 0, 53, 64
1, 618751, Control_c, 0, 64, 61
1, 618766, Control_c, 0, 64, 59
1, 618775, Note_off_c, 0, 60, 63
1, 618775, Note_off_c, 0, 68, 57
1, 618777, Note_on_c, 0, 61, 72
1, 618777, Note_on_c, 0, 67, 77
1, 618781, Control_c, 0, 64, 57
1, 618796, Control_c, 0, 64, 54
1, 618796, Control_c, 0, 67, 63
1, 618804, Note_off_c, 0, 61, 65
1, 618808, Note_off_c, 0, 67, 61
1, 618810, Control_c, 0, 64, 51
1, 618810, Control_c, 0, 67, 64
1, 618825, Control_c, 0, 64, 46
1, 618825, Control_c, 0, 67, 65
1, 618840, Control_c, 0, 64, 43
1, 618840, Control_c, 0, 67, 68
1, 618855, Control_c, 0, 64, 38
1, 618855, Control_c, 0, 67, 69
1, 618870, Control_c, 0, 64, 31
1, 618870, Control_c, 0, 67, 70
1, 618873, Note_on_c, 0, 59, 86
1, 618875, Note_on_c, 0, 72, 86
1, 618881, Note_on_c, 0, 55, 68
1, 618882, Note_on_c, 0, 52, 64
1, 618885, Control_c, 0, 64, 21
1, 618885, Control_c, 0, 67, 71
1, 618890, Note_on_c, 0, 67, 73
1, 618892, Note_off_c, 0, 59, 70
1, 618899, Control_c, 0, 64, 0
1, 618899, Control_c, 0, 67, 72
1, 618912, Note_off_c, 0, 72, 63
1, 618914, Control_c, 0, 67, 72
1, 618915, Note_off_c, 0, 67, 68
1, 618916, Note_off_c, 0, 55, 61
1, 618929, Control_c, 0, 67, 73
1, 618965, Note_on_c, 0, 56, 74
1, 618970, Note_off_c, 0, 52, 56
1, 618973, Control_c, 0, 67, 73
1, 619003, Control_c, 0, 67, 74
1, 619018, Control_c, 0, 67, 76
1, 619022, Note_off_c, 0, 56, 63
1, 619032, Control_c, 0, 67, 78
1, 619047, Control_c, 0, 67, 81
1, 619049, Note_on_c, 0, 55, 67
1, 619062, Control_c, 0, 67, 82
1, 619077, Control_c, 0, 67, 84
1, 619092, Control_c, 0, 67, 84
1, 619117, Note_off_c, 0, 55, 56
1, 619138, Note_on_c, 0, 56, 68
1, 619174, Control_c, 0, 67, 84
1, 619191, Note_off_c, 0, 56, 57
1, 619215, Note_on_c, 0, 59, 81
1, 619224, Note_on_c, 0, 67, 85
1, 619227, Note_on_c, 0, 72, 81
1, 619228, Note_on_c, 0, 55, 82
1, 619237, Note_off_c, 0, 59, 69
1, 619237, Note_on_c, 0, 52, 68
1, 619243, Note_off_c, 0, 67, 70
1, 619249, Note_off_c, 0, 72, 67
1, 619291, Note_off_c, 0, 55, 59
1, 619307, Note_on_c, 0, 56, 73
1, 619364, Note_off_c, 0, 52, 55
1, 619367, Control_c, 0, 67, 84
1, 619381, Note_off_c, 0, 56, 63
1, 619382, Control_c, 0, 67, 85
1, 619412, Note_on_c, 0, 57, 67
1, 619455, Control_c, 0, 67, 84
1, 619470, Control_c, 0, 67, 83
1, 619484, Note_on_c, 0, 58, 75
1, 619485, Control_c, 0, 67, 83
1, 619488, Note_off_c, 0, 57, 61
1, 619500, Control_c, 0, 67, 82
1, 619515, Control_c, 0, 67, 81
1, 619529, Note_off_c, 0, 58, 58
1, 619551, Note_on_c, 0, 60, 74
1, 619558, Note_on_c, 0, 68, 82
1, 619563, Note_on_c, 0, 73, 92
1, 619565, Note_on_c, 0, 53, 75
1, 619572, Note_on_c, 0, 59, 78
1, 619574, Control_c, 0, 67, 82
1, 619580, Note_off_c, 0, 60, 68
1, 619589, Control_c, 0, 64, 61
1, 619595, Note_off_c, 0, 68, 61
1, 619603, Control_c, 0, 64, 68
1, 619603, Control_c, 0, 67, 82
1, 619618, Control_c, 0, 64, 74
1, 619631, Note_off_c, 0, 59, 53
1, 619633, Control_c, 0, 64, 80
1, 619633, Control_c, 0, 67, 83
1, 619634, Note_off_c, 0, 73, 64
1, 619648, Control_c, 0, 64, 84
1, 619652, Note_on_c, 0, 58, 79
1, 619663, Control_c, 0, 64, 87
1, 619663, Control_c, 0, 67, 82
1, 619678, Control_c, 0, 64, 90
1, 619693, Control_c, 0, 64, 90
1, 619693, Control_c, 0, 67, 82
1, 619708, Control_c, 0, 67, 81
1, 619721, Note_off_c, 0, 58, 61
1, 619734, Note_on_c, 0, 59, 83
1, 619752, Control_c, 0, 67, 81
1, 619796, Control_c, 0, 64, 89
1, 619811, Control_c, 0, 64, 88
1, 619820, Note_on_c, 0, 58, 83
1, 619826, Control_c, 0, 64, 85
1, 619827, Note_off_c, 0, 53, 35
1, 619829, Note_off_c, 0, 59, 59
1, 619833, Note_on_c, 0, 74, 94
1, 619841, Control_c, 0, 64, 79
1, 619855, Control_c, 0, 64, 69
1, 619855, Control_c, 0, 67, 81
1, 619878, Control_c, 0, 64, 0
1, 619904, Note_off_c, 0, 58, 62
1, 619913, Note_off_c, 0, 74, 65
1, 619922, Control_c, 0, 67, 81
1, 619926, Note_on_c, 0, 59, 80
1, 619931, Note_on_c, 0, 54, 75
1, 619932, Note_on_c, 0, 81, 98
1, 619940, Note_on_c, 0, 69, 86
1, 619967, Control_c, 0, 67, 80
1, 619996, Control_c, 0, 64, 24
1, 620007, Note_off_c, 0, 59, 56
1, 620009, Note_on_c, 0, 60, 81
1, 620012, Note_off_c, 0, 69, 44
1, 620012, Control_c, 0, 64, 65
1, 620027, Control_c, 0, 64, 73
1, 620042, Control_c, 0, 64, 82
1, 620042, Control_c, 0, 67, 80
1, 620056, Control_c, 0, 64, 91
1, 620056, Control_c, 0, 67, 79
1, 620071, Control_c, 0, 64, 98
1, 620071, Control_c, 0, 67, 79
1, 620086, Control_c, 0, 64, 99
1, 620101, Control_c, 0, 64, 100
1, 620102, Note_on_c, 0, 61, 84
1, 620107, Note_off_c, 0, 60, 64
1, 620116, Control_c, 0, 64, 100
1, 620131, Control_c, 0, 67, 79
1, 620145, Control_c, 0, 67, 80
1, 620160, Control_c, 0, 67, 81
1, 620165, Note_off_c, 0, 81, 57
1, 620167, Note_on_c, 0, 80, 84
1, 620167, Note_off_c, 0, 54, 61
1, 620170, Note_off_c, 0, 61, 60
1, 620175, Note_on_c, 0, 68, 82
1, 620175, Control_c, 0, 67, 81
1, 620189, Note_on_c, 0, 60, 79
1, 620190, Control_c, 0, 64, 99
1, 620190, Control_c, 0, 67, 82
1, 620193, Note_off_c, 0, 80, 65
1, 620195, Note_off_c, 0, 68, 67
1, 620204, Control_c, 0, 64, 89
1, 620204, Control_c, 0, 67, 82
1, 620213, Note_off_c, 0, 60, 69
1, 620219, Control_c, 0, 64, 75
1, 620234, Control_c, 0, 64, 57
1, 620249, Control_c, 0, 64, 0
1, 620249, Control_c, 0, 67, 82
1, 620264, Control_c, 0, 67, 81
1, 620274, Note_on_c, 0, 61, 89
1, 620274, Note_on_c, 0, 55, 79
1, 620277, Note_on_c, 0, 75, 100
1, 620280, Note_on_c, 0, 62, 88
1, 620283, Note_on_c, 0, 70, 86
1, 620293, Control_c, 0, 67, 81
1, 620316, Note_off_c, 0, 62, 55
1, 620324, Note_on_c, 0, 64, 28
1, 620325, Note_off_c, 0, 64, 127
1, 620340, Note_off_c, 0, 61, 60
1, 620345, Note_off_c, 0, 70, 57
1, 620353, Control_c, 0, 64, 66
1, 620368, Control_c, 0, 64, 76
1, 620375, Note_on_c, 0, 60, 81
1, 620383, Control_c, 0, 64, 88
1, 620397, Control_c, 0, 64, 101
1, 620397, Control_c, 0, 67, 80
1, 620412, Control_c, 0, 64, 109
1, 620427, Control_c, 0, 64, 112
1, 620427, Control_c, 0, 67, 80
1, 620442, Control_c, 0, 64, 112
1, 620454, Note_on_c, 0, 61, 83
1, 620454, Note_off_c, 0, 75, 59
1, 620456, Note_off_c, 0, 60, 63
1, 620457, Control_c, 0, 64, 113
1, 620457, Control_c, 0, 67, 79
1, 620471, Control_c, 0, 64, 114
1, 620471, Control_c, 0, 67, 79
1, 620492, Note_off_c, 0, 55, 62
1, 620501, Control_c, 0, 64, 115
1, 620531, Control_c, 0, 64, 114
1, 620536, Note_off_c, 0, 61, 59
1, 620547, Note_on_c, 0, 60, 81
1, 620549, Note_on_c, 0, 76, 94
1, 620560, Control_c, 0, 64, 112
1, 620575, Control_c, 0, 64, 96
1, 620575, Control_c, 0, 67, 79
1, 620590, Control_c, 0, 64, 76
1, 620597, Note_off_c, 0, 60, 63
1, 620599, Note_off_c, 0, 76, 64
1, 620605, Control_c, 0, 64, 26
1, 620605, Control_c, 0, 67, 80
1, 620627, Control_c, 0, 64, 0
1, 620642, Control_c, 0, 67, 79
1, 620646, Note_on_c, 0, 61, 80
1, 620647, Note_on_c, 0, 56, 80
1, 620648, Note_on_c, 0, 83, 97
1, 620654, Note_on_c, 0, 71, 99
1, 620672, Control_c, 0, 67, 79
1, 620703, Note_off_c, 0, 56, 65
1, 620706, Note_off_c, 0, 61, 60
1, 620712, Note_off_c, 0, 71, 60
1, 620716, Control_c, 0, 64, 58
1, 620730, Note_on_c, 0, 62, 81
1, 620731, Control_c, 0, 64, 72
1, 620746, Control_c, 0, 64, 82
1, 620760, Control_c, 0, 64, 96
1, 620760, Control_c, 0, 67, 78
1, 620775, Control_c, 0, 64, 111
1, 620775, Control_c, 0, 67, 78
1, 620790, Control_c, 0, 64, 127
1, 620790, Control_c, 0, 67, 77
1, 620817, Note_on_c, 0, 63, 82
1, 620821, Control_c, 0, 67, 77
1, 620829, Note_off_c, 0, 62, 59
1, 620865, Control_c, 0, 67, 77
1, 620880, Control_c, 0, 67, 78
1, 620887, Note_off_c, 0, 83, 64
1, 620888, Note_on_c, 0, 82, 85
1, 620891, Note_on_c, 0, 64, 75
1, 620894, Control_c, 0, 67, 79
1, 620909, Control_c, 0, 64, 118
1, 620909, Control_c, 0, 67, 80
1, 620923, Note_off_c, 0, 63, 56
1, 620924, Control_c, 0, 64, 91
1, 620924, Control_c, 0, 67, 80
1, 620938, Note_off_c, 0, 64, 65
1, 620939, Control_c, 0, 64, 70
1, 620942, Note_off_c, 0, 82, 64
1, 620954, Control_c, 0, 64, 0
1, 620973, Note_on_c, 0, 70, 78
1, 620975, Note_on_c, 0, 65, 82
1, 620989, Note_on_c, 0, 83, 98
1, 620991, Note_on_c, 0, 82, 76
1, 620997, Note_on_c, 0, 78, 90
1, 621004, Note_on_c, 0, 63, 82
1, 621022, Note_off_c, 0, 70, 65
1, 621043, Control_c, 0, 64, 65
1, 621049, Note_off_c, 0, 78, 64
1, 621058, Control_c, 0, 64, 79
1, 621059, Note_off_c, 0, 65, 58
1, 621068, Note_on_c, 0, 66, 83
1, 621073, Control_c, 0, 64, 104
1, 621088, Control_c, 0, 64, 127
1, 621088, Control_c, 0, 67, 80
1, 621107, Note_off_c, 0, 63, 61
1, 621107, Note_off_c, 0, 82, 63
1, 621139, Note_on_c, 0, 68, 85
1, 621147, Note_off_c, 0, 66, 61
1, 621162, Control_c, 0, 67, 79
1, 621191, Control_c, 0, 67, 80
1, 621201, Note_on_c, 0, 69, 77
1, 621201, Note_off_c, 0, 83, 60
1, 621212, Note_off_c, 0, 68, 60
1, 621220, Control_c, 0, 64, 103
1, 621220, Control_c, 0, 67, 80
1, 621233, Note_on_c, 0, 71, 80
1, 621235, Control_c, 0, 64, 73
1, 621250, Control_c, 0, 64, 0
1, 621250, Control_c, 0, 67, 81
1, 621274, Note_off_c, 0, 69, 50
1, 621277, Note_off_c, 0, 71, 65
1, 621291, Note_on_c, 0, 64, 72
1, 621298, Note_on_c, 0, 79, 94
1, 621301, Note_on_c, 0, 84, 99
1, 621313, Note_on_c, 0, 70, 79
1, 621324, Note_on_c, 0, 65, 31
1, 621325, Note_off_c, 0, 65, 127
1, 621325, Control_c, 0, 64, 54
1, 621339, Control_c, 0, 64, 75
1, 621344, Note_off_c, 0, 64, 65
1, 621351, Note_off_c, 0, 79, 63
1, 621354, Control_c, 0, 64, 100
1, 621354, Control_c, 0, 67, 80
1, 621372, Note_off_c, 0, 70, 62
1, 621376, Control_c, 0, 64, 127
1, 621376, Control_c, 0, 67, 79
1, 621391, Control_c, 0, 67, 78
1, 621406, Control_c, 0, 67, 77
1, 621421, Control_c, 0, 67, 76
1, 621422, Note_on_c, 0, 74, 58
1, 621435, Control_c, 0, 67, 74
1, 621450, Control_c, 0, 67, 72
1, 621454, Note_off_c, 0, 74, 0
1, 621454, Note_on_c, 0, 74, 63
1, 621465, Control_c, 0, 67, 70
1, 621480, Control_c, 0, 67, 67
1, 621486, Note_on_c, 0, 76, 73
1, 621495, Control_c, 0, 67, 63
1, 621508, Note_off_c, 0, 84, 60
1, 621510, Control_c, 0, 67, 59
1, 621511, Note_off_c, 0, 76, 68
1, 621517, Note_off_c, 0, 74, 65
1, 621524, Note_on_c, 0, 77, 69
1, 621525, Control_c, 0, 67, 55
1, 621540, Control_c, 0, 67, 52
1, 621547, Note_on_c, 0, 81, 78
1, 621553, Note_on_c, 0, 79, 93
1, 621553, Note_off_c, 0, 77, 64
1, 621554, Control_c, 0, 67, 51
1, 621569, Control_c, 0, 67, 50
1, 621584, Control_c, 0, 67, 50
1, 621589, Note_on_c, 0, 83, 81
1, 621594, Note_off_c, 0, 79, 65
1, 621595, Note_off_c, 0, 81, 61
1, 621615, Control_c, 0, 67, 49
1, 621615, Note_on_c, 0, 84, 87
1, 621642, Note_on_c, 0, 86, 81
1, 621653, Note_off_c, 0, 83, 65
1, 621666, Note_on_c, 0, 88, 102
1, 621680, Note_on_c, 0, 65, 94
1, 621681, Note_on_c, 0, 77, 68
1, 621689, Note_on_c, 0, 76, 80
1, 621696, Note_off_c, 0, 88, 71
1, 621698, Note_off_c, 0, 77, 69
1, 621704, Note_off_c, 0, 76, 69
1, 621704, Control_c, 0, 64, 75
1, 621706, Note_off_c, 0, 84, 56
1, 621710, Note_off_c, 0, 86, 64
1, 621719, Control_c, 0, 64, 0
1, 621719, Control_c, 0, 67, 50
1, 621733, Control_c, 0, 67, 50
1, 621748, Control_c, 0, 67, 51
1, 621763, Control_c, 0, 67, 52
1, 621778, Control_c, 0, 67, 54
1, 621788, Note_on_c, 0, 72, 72
1, 621793, Control_c, 0, 67, 56
1, 621807, Control_c, 0, 67, 59
1, 621822, Control_c, 0, 67, 64
1, 621828, Note_off_c, 0, 72, 61
1, 621837, Control_c, 0, 64, 17
1, 621837, Control_c, 0, 67, 68
1, 621851, Control_c, 0, 64, 31
1, 621851, Control_c, 0, 67, 72
1, 621860, Note_off_c, 0, 65, 60
1, 621866, Note_on_c, 0, 68, 74
1, 621866, Control_c, 0, 64, 45
1, 621866, Control_c, 0, 67, 75
1, 621881, Control_c, 0, 64, 53
1, 621881, Control_c, 0, 67, 78
1, 621896, Control_c, 0, 64, 58
1, 621896, Control_c, 0, 67, 80
1, 621911, Control_c, 0, 64, 61
1, 621911, Control_c, 0, 67, 82
1, 621916, Note_off_c, 0, 68, 61
1, 621925, Control_c, 0, 64, 61
1, 621925, Control_c, 0, 67, 83
1, 621937, Note_on_c, 0, 72, 72
1, 621940, Control_c, 0, 67, 84
1, 621958, Note_off_c, 0, 72, 70
1, 621976, Note_on_c, 0, 76, 54
1, 621985, Control_c, 0, 64, 60
1, 621999, Note_on_c, 0, 77, 55
1, 622000, Control_c, 0, 64, 56
1, 622000, Control_c, 0, 67, 83
1, 622013, Note_on_c, 0, 79, 87
1, 622015, Control_c, 0, 64, 42
1, 622015, Control_c, 0, 67, 82
1, 622026, Note_on_c, 0, 80, 101
1, 622028, Note_on_c, 0, 68, 89
1, 622030, Control_c, 0, 64, 0
1, 622030, Control_c, 0, 67, 81
1, 622034, Note_off_c, 0, 77, 61
1, 622044, Control_c, 0, 67, 80
1, 622048, Note_off_c, 0, 68, 68
1, 622051, Note_on_c, 0, 55, 63
1, 622051, Note_off_c, 0, 76, 63
1, 622052, Note_on_c, 0, 53, 72
1, 622052, Note_off_c, 0, 79, 63
1, 622063, Note_off_c, 0, 80, 69
1, 622104, Control_c, 0, 67, 79
1, 622127, Note_off_c, 0, 55, 62
1, 622131, Note_off_c, 0, 53, 63
1, 622133, Note_on_c, 0, 60, 79
1, 622140, Control_c, 0, 67, 79
1, 622170, Control_c, 0, 67, 79
1, 622185, Control_c, 0, 67, 80
1, 622203, Note_on_c, 0, 56, 69
1, 622209, Note_off_c, 0, 60, 63
1, 622215, Control_c, 0, 67, 80
1, 622268, Note_off_c, 0, 56, 65
1, 622303, Control_c, 0, 67, 80
1, 622305, Note_on_c, 0, 72, 97
1, 622305, Note_on_c, 0, 84, 99
1, 622307, Note_on_c, 0, 65, 67
1, 622317, Control_c, 0, 67, 79
1, 622332, Note_off_c, 0, 72, 67
1, 622332, Control_c, 0, 67, 77
1, 622334, Note_off_c, 0, 84, 66
1, 622343, Note_off_c, 0, 65, 64
1, 622347, Control_c, 0, 67, 77
1, 622362, Control_c, 0, 67, 76
1, 622376, Control_c, 0, 67, 76
1, 622383, Note_on_c, 0, 84, 101
1, 622386, Note_on_c, 0, 64, 81
1, 622386, Note_on_c, 0, 72, 100
1, 622391, Control_c, 0, 67, 75
1, 622408, Control_c, 0, 67, 74
1, 622422, Control_c, 0, 67, 73
1, 622452, Control_c, 0, 67, 73
1, 622467, Control_c, 0, 64, 50
1, 622467, Control_c, 0, 67, 72
1, 622477, Note_on_c, 0, 71, 66
1, 622481, Control_c, 0, 64, 65
1, 622481, Control_c, 0, 67, 72
1, 622496, Control_c, 0, 64, 71
1, 622496, Control_c, 0, 67, 71
1, 622511, Control_c, 0, 64, 78
1, 622511, Control_c, 0, 67, 70
1, 622526, Control_c, 0, 64, 88
1, 622526, Control_c, 0, 67, 68
1, 622541, Control_c, 0, 64, 107
1, 622541, Control_c, 0, 67, 65
1, 622554, Note_off_c, 0, 71, 61
1, 622555, Control_c, 0, 64, 127
1, 622555, Control_c, 0, 67, 61
1, 622562, Note_on_c, 0, 67, 73
1, 622570, Control_c, 0, 67, 58
1, 622584, Note_off_c, 0, 64, 62
1, 622585, Control_c, 0, 67, 56
1, 622599, Control_c, 0, 67, 55
1, 622614, Control_c, 0, 67, 54
1, 622623, Note_off_c, 0, 67, 63
1, 622644, Control_c, 0, 67, 55
1, 622650, Note_on_c, 0, 71, 71
1, 622659, Control_c, 0, 67, 56
1, 622670, Note_off_c, 0, 71, 72
1, 622674, Control_c, 0, 67, 58
1, 622689, Control_c, 0, 67, 59
1, 622703, Control_c, 0, 64, 103
1, 622703, Control_c, 0, 67, 61
1, 622718, Control_c, 0, 64, 76
1, 622718, Control_c, 0, 67, 62
1, 622733, Control_c, 0, 64, 52
1, 622733, Control_c, 0, 67, 62
1, 622742, Note_on_c, 0, 52, 75
1, 622748, Control_c, 0, 64, 0
1, 622748, Control_c, 0, 67, 63
1, 622763, Control_c, 0, 67, 64
1, 622778, Control_c, 0, 67, 65
1, 622781, Note_on_c, 0, 53, 28
1, 622782, Note_off_c, 0, 53, 127
1, 622792, Control_c, 0, 67, 65
1, 622807, Control_c, 0, 67, 66
1, 622822, Control_c, 0, 67, 66
1, 622828, Note_on_c, 0, 79, 74
1, 622831, Note_on_c, 0, 59, 75
1, 622833, Note_off_c, 0, 52, 62
1, 622837, Control_c, 0, 67, 67
1, 622839, Note_off_c, 0, 72, 55
1, 622852, Control_c, 0, 67, 68
1, 622911, Note_off_c, 0, 59, 59
1, 622918, Note_on_c, 0, 55, 70
1, 622919, Note_on_c, 0, 76, 82
1, 622921, Note_off_c, 0, 84, 50
1, 622939, Note_off_c, 0, 79, 60
1, 622978, Control_c, 0, 67, 67
1, 622979, Note_off_c, 0, 55, 64
1, 622998, Note_off_c, 0, 76, 62
1, 622999, Note_on_c, 0, 72, 85
1, 623019, Note_on_c, 0, 64, 64
1, 623022, Control_c, 0, 67, 66
1, 623037, Control_c, 0, 67, 66
1, 623046, Note_off_c, 0, 72, 63
1, 623049, Note_off_c, 0, 64, 67
1, 623052, Control_c, 0, 67, 65
1, 623066, Control_c, 0, 67, 65
1, 623081, Note_on_c, 0, 84, 95
1, 623081, Control_c, 0, 67, 64
1, 623083, Note_on_c, 0, 72, 87
1, 623094, Note_on_c, 0, 62, 74
1, 623096, Control_c, 0, 64, 42
1, 623096, Control_c, 0, 67, 63
1, 623111, Control_c, 0, 64, 73
1, 623111, Control_c, 0, 67, 62
1, 623122, Note_off_c, 0, 84, 67
1, 623126, Control_c, 0, 64, 89
1, 623126, Control_c, 0, 67, 61
1, 623129, Note_off_c, 0, 72, 66
1, 623140, Control_c, 0, 64, 127
1, 623140, Control_c, 0, 67, 61
1, 623155, Control_c, 0, 67, 60
1, 623170, Control_c, 0, 67, 60
1, 623178, Note_on_c, 0, 69, 67
1, 623201, Control_c, 0, 67, 59
1, 623229, Note_off_c, 0, 69, 54
1, 623232, Note_off_c, 0, 62, 59
1, 623252, Note_on_c, 0, 66, 71
1, 623260, Control_c, 0, 67, 60
1, 623275, Control_c, 0, 67, 61
1, 623290, Control_c, 0, 67, 62
1, 623304, Control_c, 0, 67, 62
1, 623307, Note_off_c, 0, 66, 60
1, 623319, Control_c, 0, 67, 63
1, 623334, Control_c, 0, 67, 63
1, 623337, Note_on_c, 0, 69, 65
1, 623364, Note_off_c, 0, 69, 66
1, 623364, Control_c, 0, 67, 64
1, 623372, Note_on_c, 0, 74, 71
1, 623401, Note_on_c, 0, 76, 63
1, 623416, Note_on_c, 0, 77, 75
1, 623432, Note_on_c, 0, 75, 29
1, 623439, Note_on_c, 0, 66, 90
1, 623440, Note_on_c, 0, 78, 100
1, 623442, Note_on_c, 0, 50, 77
1, 623450, Note_off_c, 0, 75, 35
1, 623457, Note_off_c, 0, 74, 63
1, 623460, Note_off_c, 0, 76, 61
1, 623466, Note_off_c, 0, 77, 65
1, 623467, Control_c, 0, 64, 81
1, 623470, Note_off_c, 0, 66, 61
1, 623476, Note_off_c, 0, 78, 68
1, 623482, Control_c, 0, 64, 0
1, 623482, Control_c, 0, 67, 64
1, 623496, Control_c, 0, 67, 65
1, 623539, Note_on_c, 0, 57, 57
1, 623544, Note_off_c, 0, 50, 61
1, 623556, Control_c, 0, 67, 65
1, 623571, Control_c, 0, 67, 66
1, 623586, Control_c, 0, 67, 66
1, 623601, Control_c, 0, 67, 67
1, 623610, Note_on_c, 0, 54, 73
1, 623622, Control_c, 0, 67, 68
1, 623637, Control_c, 0, 67, 69
1, 623639, Note_off_c, 0, 57, 60
1, 623652, Control_c, 0, 67, 69
1, 623674, Note_off_c, 0, 54, 64
1, 623682, Control_c, 0, 67, 70
1, 623711, Note_on_c, 0, 62, 69
1, 623728, Note_on_c, 0, 80, 90
1, 623729, Note_on_c, 0, 68, 89
1, 623748, Note_off_c, 0, 80, 65
1, 623750, Note_off_c, 0, 68, 67
1, 623765, Note_off_c, 0, 62, 59
1, 623771, Control_c, 0, 67, 69
1, 623800, Control_c, 0, 67, 69
1, 623807, Note_on_c, 0, 60, 73
1, 623809, Note_on_c, 0, 80, 96
1, 623815, Note_on_c, 0, 68, 85
1, 623830, Control_c, 0, 67, 68
1, 623899, Note_on_c, 0, 67, 64
1, 623934, Control_c, 0, 64, 24
1, 623948, Control_c, 0, 64, 64
1, 623948, Control_c, 0, 67, 68
1, 623963, Control_c, 0, 64, 74
1, 623963, Control_c, 0, 67, 67
1, 623974, Note_off_c, 0, 67, 56
1, 623978, Control_c, 0, 64, 84
1, 623994, Control_c, 0, 64, 99
1, 623994, Control_c, 0, 67, 67
1, 623999, Note_on_c, 0, 64, 69
1, 624003, Note_off_c, 0, 60, 62
1, 624009, Control_c, 0, 64, 120
1, 624009, Control_c, 0, 67, 66
1, 624024, Control_c, 0, 64, 127
1, 624059, Note_off_c, 0, 64, 64
1, 624068, Control_c, 0, 67, 67
1, 624081, Note_on_c, 0, 67, 72
1, 624083, Control_c, 0, 67, 67
1, 624105, Note_off_c, 0, 67, 68
1, 624112, Control_c, 0, 67, 68
1, 624127, Control_c, 0, 67, 68
1, 624142, Control_c, 0, 67, 69
1, 624157, Control_c, 0, 64, 87
1, 624172, Control_c, 0, 64, 59
1, 624178, Note_on_c, 0, 50, 58
1, 624179, Note_on_c, 0, 48, 69
1, 624186, Control_c, 0, 64, 0
1, 624186, Control_c, 0, 67, 69
1, 624216, Control_c, 0, 67, 69
1, 624231, Control_c, 0, 64, 43
1, 624241, Note_off_c, 0, 48, 43
1, 624241, Note_off_c, 0, 80, 59
1, 624245, Control_c, 0, 64, 64
1, 624252, Note_off_c, 0, 50, 59
1, 624253, Note_on_c, 0, 55, 76
1, 624260, Control_c, 0, 64, 69
1, 624275, Control_c, 0, 64, 71
1, 624290, Control_c, 0, 64, 69
1, 624305, Control_c, 0, 64, 66
1, 624316, Note_off_c, 0, 55, 63
1, 624319, Control_c, 0, 64, 63
1, 624334, Control_c, 0, 64, 60
1, 624334, Control_c, 0, 67, 68
1, 624336, Note_on_c, 0, 52, 74
1, 624346, Note_on_c, 0, 79, 84
1, 624349, Control_c, 0, 64, 59
1, 624356, Note_off_c, 0, 68, 59
1, 624386, Control_c, 0, 64, 58
1, 624400, Note_off_c, 0, 52, 61
1, 624401, Control_c, 0, 64, 47
1, 624401, Control_c, 0, 67, 69
1, 624416, Control_c, 0, 64, 0
1, 624416, Control_c, 0, 67, 69
1, 624432, Note_on_c, 0, 76, 81
1, 624439, Note_on_c, 0, 60, 67
1, 624460, Control_c, 0, 67, 70
1, 624464, Note_off_c, 0, 79, 58
1, 624470, Note_off_c, 0, 60, 66
1, 624513, Note_off_c, 0, 76, 59
1, 624525, Note_on_c, 0, 53, 84
1, 624528, Note_on_c, 0, 71, 82
1, 624533, Note_on_c, 0, 67, 79
1, 624550, Control_c, 0, 67, 69
1, 624555, Note_off_c, 0, 67, 68
1, 624564, Note_off_c, 0, 71, 67
1, 624565, Control_c, 0, 67, 68
1, 624579, Control_c, 0, 67, 68
1, 624594, Control_c, 0, 67, 67
1, 624609, Control_c, 0, 67, 67
1, 624628, Note_on_c, 0, 64, 70
1, 624653, Control_c, 0, 67, 67
1, 624668, Control_c, 0, 67, 68
1, 624683, Control_c, 0, 67, 69
1, 624693, Note_off_c, 0, 64, 63
1, 624698, Control_c, 0, 67, 69
1, 624710, Note_off_c, 0, 53, 37
1, 624713, Control_c, 0, 67, 70
1, 624717, Note_on_c, 0, 60, 71
1, 624728, Note_on_c, 0, 76, 85
1, 624728, Control_c, 0, 67, 70
1, 624801, Note_on_c, 0, 72, 75
1, 624802, Control_c, 0, 67, 70
1, 624809, Note_off_c, 0, 60, 62
1, 624816, Note_on_c, 0, 57, 71
1, 624817, Control_c, 0, 67, 69
1, 624830, Note_off_c, 0, 76, 59
1, 624856, Note_off_c, 0, 57, 62
1, 624871, Note_off_c, 0, 72, 64
1, 624880, Note_on_c, 0, 68, 87
1, 624888, Note_on_c, 0, 50, 73
1, 624891, Control_c, 0, 67, 70
1, 624895, Note_on_c, 0, 64, 72
1, 624906, Control_c, 0, 67, 70
1, 624919, Note_off_c, 0, 68, 62
1, 624921, Note_off_c, 0, 64, 70
1, 624936, Control_c, 0, 67, 71
1, 624966, Control_c, 0, 67, 71
1, 624973, Note_on_c, 0, 60, 69
1, 624994, Note_off_c, 0, 50, 57
1, 624995, Control_c, 0, 67, 72
1, 625025, Control_c, 0, 67, 71
1, 625040, Control_c, 0, 67, 71
1, 625041, Note_off_c, 0, 60, 63
1, 625055, Control_c, 0, 67, 70
1, 625064, Note_on_c, 0, 57, 75
1, 625069, Note_on_c, 0, 72, 82
1, 625084, Control_c, 0, 67, 70
1, 625151, Note_on_c, 0, 69, 70
1, 625157, Note_off_c, 0, 57, 60
1, 625163, Note_on_c, 0, 53, 78
1, 625181, Control_c, 0, 67, 69
1, 625193, Note_off_c, 0, 72, 56
1, 625195, Control_c, 0, 67, 69
1, 625209, Note_off_c, 0, 53, 68
1, 625238, Note_on_c, 0, 47, 76
1, 625248, Note_on_c, 0, 64, 77
1, 625255, Note_on_c, 0, 61, 71
1, 625257, Note_off_c, 0, 69, 61
1, 625277, Note_off_c, 0, 64, 66
1, 625282, Note_off_c, 0, 61, 67
1, 625299, Control_c, 0, 67, 69
1, 625317, Note_on_c, 0, 57, 73
1, 625322, Note_off_c, 0, 47, 63
1, 625358, Control_c, 0, 67, 69
1, 625388, Control_c, 0, 67, 68
1, 625395, Note_off_c, 0, 57, 61
1, 625402, Control_c, 0, 67, 68
1, 625417, Note_on_c, 0, 53, 78
1, 625430, Note_on_c, 0, 69, 72
1, 625495, Note_off_c, 0, 53, 64
1, 625506, Control_c, 0, 67, 68
1, 625509, Note_on_c, 0, 65, 71
1, 625514, Note_on_c, 0, 50, 75
1, 625529, Note_off_c, 0, 69, 49
1, 625562, Note_off_c, 0, 50, 66
1, 625565, Control_c, 0, 67, 69
1, 625580, Control_c, 0, 67, 69
1, 625591, Note_on_c, 0, 61, 79
1, 625591, Note_off_c, 0, 65, 62
1, 625593, Note_on_c, 0, 43, 70
1, 625596, Control_c, 0, 67, 70
1, 625609, Note_on_c, 0, 57, 64
1, 625622, Note_off_c, 0, 61, 64
1, 625625, Control_c, 0, 67, 70
1, 625639, Note_off_c, 0, 57, 66
1, 625658, Note_off_c, 0, 43, 62
1, 625670, Control_c, 0, 67, 71
1, 625684, Note_on_c, 0, 53, 73
1, 625714, Control_c, 0, 67, 70
1, 625741, Note_off_c, 0, 53, 61
1, 625744, Control_c, 0, 67, 70
1, 625759, Control_c, 0, 67, 69
1, 625773, Note_on_c, 0, 47, 73
1, 625783, Note_on_c, 0, 65, 62
1, 625789, Control_c, 0, 67, 69
1, 625818, Control_c, 0, 67, 68
1, 625848, Note_off_c, 0, 47, 63
1, 625851, Note_on_c, 0, 62, 73
1, 625858, Note_on_c, 0, 43, 72
1, 625881, Note_off_c, 0, 65, 54
1, 625899, Control_c, 0, 67, 68
1, 625920, Note_off_c, 0, 43, 64
1, 625926, Note_off_c, 0, 62, 60
1, 625950, Note_on_c, 0, 38, 74
1, 625957, Note_on_c, 0, 57, 72
1, 625975, Note_on_c, 0, 53, 63
1, 625982, Note_off_c, 0, 57, 66
1, 625988, Control_c, 0, 67, 68
1, 626000, Note_off_c, 0, 38, 62
1, 626000, Note_off_c, 0, 53, 66
1, 626017, Control_c, 0, 67, 69
1, 626032, Control_c, 0, 67, 69
1, 626038, Note_on_c, 0, 52, 71
1, 626099, Note_off_c, 0, 52, 61
1, 626119, Note_on_c, 0, 45, 82
1, 626136, Note_on_c, 0, 61, 70
1, 626150, Control_c, 0, 67, 69
1, 626180, Control_c, 0, 67, 68
1, 626185, Note_off_c, 0, 45, 63
1, 626195, Note_on_c, 0, 41, 79
1, 626195, Control_c, 0, 67, 68
1, 626203, Note_on_c, 0, 57, 66
1, 626221, Note_off_c, 0, 61, 61
1, 626224, Control_c, 0, 67, 67
1, 626239, Control_c, 0, 67, 67
1, 626254, Control_c, 0, 67, 66
1, 626269, Control_c, 0, 67, 66
1, 626282, Note_off_c, 0, 57, 63
1, 626283, Note_on_c, 0, 43, 76
1, 626284, Note_off_c, 0, 41, 63
1, 626284, Control_c, 0, 67, 65
1, 626294, Note_on_c, 0, 52, 78
1, 626296, Note_on_c, 0, 47, 72
1, 626298, Control_c, 0, 67, 65
1, 626313, Control_c, 0, 67, 64
1, 626319, Note_off_c, 0, 47, 65
1, 626324, Note_off_c, 0, 52, 67
1, 626327, Note_off_c, 0, 43, 63
1, 626328, Control_c, 0, 67, 63
1, 626343, Control_c, 0, 67, 61
1, 626358, Control_c, 0, 67, 60
1, 626373, Note_on_c, 0, 52, 72
1, 626373, Control_c, 0, 67, 59
1, 626388, Control_c, 0, 67, 57
1, 626403, Control_c, 0, 67, 54
1, 626418, Control_c, 0, 67, 50
1, 626433, Control_c, 0, 67, 46
1, 626436, Note_off_c, 0, 52, 60
1, 626447, Control_c, 0, 67, 42
1, 626462, Control_c, 0, 67, 39
1, 626471, Note_on_c, 0, 55, 79
1, 626474, Note_on_c, 0, 47, 76
1, 626477, Control_c, 0, 67, 37
1, 626492, Control_c, 0, 67, 34
1, 626507, Control_c, 0, 67, 30
1, 626522, Control_c, 0, 67, 28
1, 626529, Note_off_c, 0, 47, 64
1, 626537, Control_c, 0, 67, 26
1, 626545, Note_on_c, 0, 43, 77
1, 626550, Note_on_c, 0, 52, 78
1, 626552, Control_c, 0, 67, 24
1, 626555, Note_off_c, 0, 55, 61
1, 626567, Control_c, 0, 67, 19
1, 626582, Control_c, 0, 67, 11
1, 626594, Note_off_c, 0, 43, 62
1, 626596, Control_c, 0, 67, 0
1, 626628, Note_off_c, 0, 52, 62
1, 626642, Note_on_c, 0, 36, 82
1, 626646, Note_on_c, 0, 48, 86
1, 626647, Control_c, 0, 64, 34
1, 626662, Control_c, 0, 64, 65
1, 626677, Control_c, 0, 64, 74
1, 626692, Control_c, 0, 64, 84
1, 626707, Control_c, 0, 64, 98
1, 626722, Control_c, 0, 64, 114
1, 626729, Note_on_c, 0, 43, 79
1, 626737, Control_c, 0, 64, 120
1, 626738, Note_off_c, 0, 36, 61
1, 626781, Note_off_c, 0, 43, 65
1, 626811, Control_c, 0, 64, 119
1, 626815, Note_on_c, 0, 52, 89
1, 626826, Control_c, 0, 64, 103
1, 626840, Note_off_c, 0, 48, 62
1, 626840, Control_c, 0, 64, 83
1, 626855, Control_c, 0, 64, 63
1, 626856, Note_off_c, 0, 52, 65
1, 626870, Control_c, 0, 64, 0
1, 626883, Note_on_c, 0, 60, 74
1, 626895, Note_on_c, 0, 52, 77
1, 626906, Note_off_c, 0, 60, 68
1, 626967, Note_on_c, 0, 64, 82
1, 626975, Note_off_c, 0, 52, 62
1, 626978, Note_on_c, 0, 56, 84
1, 627017, Note_off_c, 0, 64, 63
1, 627047, Note_off_c, 0, 56, 64
1, 627047, Control_c, 0, 64, 70
1, 627048, Note_on_c, 0, 68, 83
1, 627059, Note_on_c, 0, 60, 80
1, 627062, Control_c, 0, 64, 83
1, 627077, Control_c, 0, 64, 119
1, 627092, Control_c, 0, 64, 127
1, 627103, Note_off_c, 0, 68, 63
1, 627109, Note_off_c, 0, 60, 64
1, 627129, Note_on_c, 0, 72, 87
1, 627139, Note_on_c, 0, 64, 73
1, 627167, Note_off_c, 0, 72, 66
1, 627180, Note_off_c, 0, 64, 62
1, 627226, Control_c, 0, 64, 88
1, 627230, Note_on_c, 0, 76, 87
1, 627241, Control_c, 0, 64, 68
1, 627256, Control_c, 0, 64, 0
1, 627285, Note_off_c, 0, 76, 61
1, 627306, Note_on_c, 0, 65, 79
1, 627312, Note_on_c, 0, 88, 93
1, 627382, Control_c, 0, 64, 64
1, 627396, Control_c, 0, 64, 75
1, 627398, Note_on_c, 0, 76, 90
1, 627411, Control_c, 0, 64, 87
1, 627413, Note_on_c, 0, 72, 65
1, 627426, Control_c, 0, 64, 110
1, 627441, Control_c, 0, 64, 127
1, 627455, Note_off_c, 0, 65, 59
1, 627455, Note_off_c, 0, 76, 60
1, 627462, Note_off_c, 0, 72, 56
1, 627479, Note_on_c, 0, 80, 83
1, 627482, Note_on_c, 0, 68, 78
1, 627502, Note_off_c, 0, 80, 67
1, 627512, Note_off_c, 0, 88, 63
1, 627538, Note_off_c, 0, 68, 61
1, 627563, Note_on_c, 0, 83, 73
1, 627567, Note_on_c, 0, 84, 79
1, 627574, Note_on_c, 0, 72, 36
1, 627589, Control_c, 0, 64, 98
1, 627604, Note_off_c, 0, 72, 54
1, 627604, Control_c, 0, 64, 75
1, 627608, Note_off_c, 0, 83, 62
1, 627616, Note_off_c, 0, 84, 62
1, 627619, Control_c, 0, 64, 51
1, 627634, Control_c, 0, 64, 0
1, 627637, Note_on_c, 0, 53, 82
1, 627640, Note_on_c, 0, 92, 111
1, 627664, Control_c, 0, 64, 44
1, 627674, Note_off_c, 0, 92, 72
1, 627679, Control_c, 0, 64, 61
1, 627694, Control_c, 0, 64, 66
1, 627708, Control_c, 0, 64, 75
1, 627717, Note_off_c, 0, 53, 66
1, 627721, Note_on_c, 0, 60, 79
1, 627723, Control_c, 0, 64, 87
1, 627738, Control_c, 0, 64, 110
1, 627753, Control_c, 0, 64, 127
1, 627792, Note_on_c, 0, 56, 78
1, 627793, Note_off_c, 0, 60, 63
1, 627832, Note_off_c, 0, 56, 60
1, 627865, Note_on_c, 0, 65, 74
1, 627871, Control_c, 0, 64, 98
1, 627872, Note_on_c, 0, 96, 103
1, 627886, Control_c, 0, 64, 77
1, 627896, Note_off_c, 0, 65, 64
1, 627901, Control_c, 0, 64, 60
1, 627915, Control_c, 0, 64, 0
1, 627917, Note_off_c, 0, 96, 62
1, 627935, Note_on_c, 0, 95, 18
1, 627950, Note_on_c, 0, 64, 76
1, 627953, Note_on_c, 0, 84, 80
1, 627975, Control_c, 0, 64, 17
1, 627980, Note_off_c, 0, 95, 54
1, 627991, Control_c, 0, 64, 63
1, 628006, Control_c, 0, 64, 72
1, 628014, Note_on_c, 0, 86, 90
1, 628018, Note_off_c, 0, 84, 65
1, 628020, Control_c, 0, 64, 84
1, 628032, Note_on_c, 0, 69, 54
1, 628035, Control_c, 0, 64, 103
1, 628050, Control_c, 0, 64, 127
1, 628052, Note_on_c, 0, 71, 35
1, 628066, Note_off_c, 0, 86, 63
1, 628071, Note_off_c, 0, 69, 63
1, 628083, Note_off_c, 0, 71, 55
1, 628087, Note_on_c, 0, 84, 92
1, 628093, Note_off_c, 0, 64, 64
1, 628116, Note_on_c, 0, 65, 32
1, 628124, Note_on_c, 0, 67, 37
1, 628137, Note_off_c, 0, 84, 63
1, 628145, Note_on_c, 0, 86, 89
1, 628153, Note_off_c, 0, 65, 48
1, 628159, Note_off_c, 0, 67, 51
1, 628189, Note_off_c, 0, 86, 65
1, 628206, Note_on_c, 0, 84, 85
1, 628242, Note_on_c, 0, 86, 89
1, 628249, Note_on_c, 0, 52, 80
1, 628250, Note_off_c, 0, 84, 64
1, 628250, Control_c, 0, 64, 90
1, 628265, Control_c, 0, 64, 65
1, 628278, Note_off_c, 0, 86, 69
1, 628280, Control_c, 0, 64, 0
1, 628284, Note_on_c, 0, 84, 88
1, 628354, Control_c, 0, 64, 42
1, 628362, Note_on_c, 0, 59, 74
1, 628365, Note_off_c, 0, 84, 66
1, 628366, Note_off_c, 0, 52, 62
1, 628368, Control_c, 0, 64, 38
1, 628372, Note_on_c, 0, 79, 84
1, 628383, Control_c, 0, 64, 0
1, 628418, Note_off_c, 0, 79, 62
1, 628444, Note_off_c, 0, 59, 62
1, 628454, Note_on_c, 0, 76, 91
1, 628455, Note_on_c, 0, 55, 74
1, 628489, Note_on_c, 0, 75, 44
1, 628492, Note_off_c, 0, 55, 66
1, 628511, Note_off_c, 0, 76, 64
1, 628518, Note_off_c, 0, 75, 35
1, 628530, Note_on_c, 0, 64, 50
1, 628535, Note_on_c, 0, 72, 85
1, 628560, Note_off_c, 0, 64, 66
1, 628601, Note_off_c, 0, 72, 64
1, 628614, Note_on_c, 0, 62, 60
1, 628624, Note_on_c, 0, 84, 94
1, 628694, Control_c, 0, 64, 54
1, 628709, Note_on_c, 0, 69, 73
1, 628709, Control_c, 0, 64, 76
1, 628710, Note_on_c, 0, 72, 81
1, 628724, Control_c, 0, 64, 89
1, 628738, Control_c, 0, 64, 118
1, 628753, Control_c, 0, 64, 127
1, 628763, Note_off_c, 0, 69, 60
1, 628764, Note_off_c, 0, 62, 58
1, 628764, Note_off_c, 0, 72, 63
1, 628788, Note_on_c, 0, 78, 90
1, 628793, Note_on_c, 0, 66, 77
1, 628813, Note_off_c, 0, 84, 65
1, 628825, Note_off_c, 0, 78, 65
1, 628847, Note_off_c, 0, 66, 61
1, 628881, Note_on_c, 0, 81, 85
1, 628925, Control_c, 0, 64, 101
1, 628928, Note_off_c, 0, 81, 64
1, 628940, Control_c, 0, 64, 68
1, 628946, Poly_aftertouch_c, 0, 71, 0
1, 628954, Control_c, 0, 64, 0
1, 628962, Poly_aftertouch_c, 0, 69, 0
1, 628962, Note_on_c, 0, 90, 103
1, 628966, Note_on_c, 0, 50, 72
1, 628980, Note_on_c, 0, 52, 64
1, 629006, Note_off_c, 0, 90, 68
1, 629029, Note_off_c, 0, 52, 40
1, 629029, Control_c, 0, 64, 63
1, 629043, Control_c, 0, 64, 74
1, 629054, Note_off_c, 0, 50, 64
1, 629058, Control_c, 0, 64, 90
1, 629062, Note_on_c, 0, 57, 74
1, 629073, Control_c, 0, 64, 127
1, 629118, Note_on_c, 0, 54, 71
1, 629128, Note_off_c, 0, 57, 61
1, 629149, Note_off_c, 0, 54, 68
1, 629187, Note_on_c, 0, 62, 70
1, 629205, Note_on_c, 0, 92, 93
1, 629206, Control_c, 0, 64, 94
1, 629218, Note_off_c, 0, 62, 64
1, 629221, Control_c, 0, 64, 65
1, 629235, Control_c, 0, 64, 0
1, 629245, Note_off_c, 0, 92, 66
1, 629275, Note_on_c, 0, 60, 77
1, 629284, Note_on_c, 0, 80, 78
1, 629336, Note_off_c, 0, 80, 64
1, 629339, Control_c, 0, 64, 62
1, 629344, Note_on_c, 0, 82, 87
1, 629354, Control_c, 0, 64, 74
1, 629355, Note_on_c, 0, 67, 71
1, 629369, Control_c, 0, 64, 90
1, 629371, Note_off_c, 0, 60, 61
1, 629384, Control_c, 0, 64, 127
1, 629396, Note_on_c, 0, 64, 76
1, 629396, Note_off_c, 0, 82, 62
1, 629406, Note_off_c, 0, 67, 59
1, 629416, Note_on_c, 0, 80, 94
1, 629438, Note_off_c, 0, 64, 61
1, 629459, Note_off_c, 0, 80, 65
1, 629476, Note_on_c, 0, 82, 57
1, 629521, Note_off_c, 0, 82, 0
1, 629521, Note_on_c, 0, 82, 13
1, 629557, Note_on_c, 0, 48, 50
1, 629559, Note_off_c, 0, 82, 60
1, 629561, Note_on_c, 0, 80, 96
1, 629616, Note_off_c, 0, 80, 70
1, 629624, Note_on_c, 0, 55, 79
1, 629637, Note_off_c, 0, 48, 62
1, 629692, Note_off_c, 0, 55, 59
1, 629719, Note_on_c, 0, 52, 68
1, 629757, Note_on_c, 0, 79, 94
1, 629762, Note_off_c, 0, 52, 62
1, 629838, Note_on_c, 0, 76, 89
1, 629850, Control_c, 0, 64, 118
1, 629857, Note_off_c, 0, 79, 50
1, 629864, Control_c, 0, 64, 86
1, 629879, Control_c, 0, 64, 65
1, 629894, Control_c, 0, 64, 0
1, 629913, Note_on_c, 0, 71, 96
1, 629922, Note_on_c, 0, 67, 86
1, 629924, Note_on_c, 0, 53, 76
1, 629927, Note_off_c, 0, 76, 61
1, 629946, Note_off_c, 0, 71, 69
1, 629947, Note_off_c, 0, 67, 65
1, 629987, Note_off_c, 0, 53, 61
1, 630004, Note_on_c, 0, 64, 77
1, 630066, Note_off_c, 0, 64, 65
1, 630094, Note_on_c, 0, 60, 72
1, 630111, Note_on_c, 0, 76, 89
1, 630182, Note_off_c, 0, 60, 59
1, 630187, Note_on_c, 0, 57, 78
1, 630189, Note_on_c, 0, 72, 79
1, 630215, Note_off_c, 0, 76, 59
1, 630244, Note_off_c, 0, 57, 63
1, 630262, Note_off_c, 0, 72, 63
1, 630269, Note_on_c, 0, 50, 71
1, 630272, Note_on_c, 0, 68, 83
1, 630286, Note_on_c, 0, 64, 70
1, 630294, Note_off_c, 0, 68, 69
1, 630313, Note_off_c, 0, 64, 68
1, 630341, Note_off_c, 0, 50, 62
1, 630365, Note_on_c, 0, 60, 70
1, 630407, Note_off_c, 0, 60, 63
1, 630459, Note_on_c, 0, 57, 73
1, 630471, Note_on_c, 0, 72, 70
1, 630534, Note_off_c, 0, 57, 57
1, 630540, Note_on_c, 0, 69, 67
1, 630558, Note_on_c, 0, 53, 75
1, 630561, Note_off_c, 0, 72, 55
1, 630606, Note_off_c, 0, 53, 66
1, 630625, Note_off_c, 0, 69, 62
1, 630629, Note_on_c, 0, 64, 76
1, 630630, Note_on_c, 0, 47, 69
1, 630637, Note_on_c, 0, 61, 64
1, 630651, Note_off_c, 0, 64, 71
1, 630663, Note_off_c, 0, 61, 65
1, 630690, Note_off_c, 0, 47, 64
1, 630723, Note_on_c, 0, 57, 72
1, 630785, Note_off_c, 0, 57, 62
1, 630810, Note_on_c, 0, 53, 74
1, 630814, Note_on_c, 0, 69, 71
1, 630890, Note_off_c, 0, 53, 64
1, 630892, Note_on_c, 0, 65, 75
1, 630899, Note_on_c, 0, 50, 75
1, 630922, Note_off_c, 0, 69, 51
1, 630950, Note_off_c, 0, 50, 65
1, 630968, Note_off_c, 0, 65, 62
1, 630980, Note_on_c, 0, 61, 83
1, 630981, Note_on_c, 0, 43, 69
1, 631001, Note_on_c, 0, 57, 48
1, 631002, Note_off_c, 0, 61, 70
1, 631028, Note_off_c, 0, 43, 61
1, 631029, Note_off_c, 0, 57, 57
1, 631063, Note_on_c, 0, 53, 72
1, 631104, Note_off_c, 0, 53, 67
1, 631162, Note_on_c, 0, 47, 74
1, 631171, Note_on_c, 0, 65, 72
1, 631229, Note_off_c, 0, 47, 63
1, 631239, Note_on_c, 0, 43, 75
1, 631250, Note_on_c, 0, 62, 72
1, 631259, Note_off_c, 0, 65, 42
1, 631295, Note_off_c, 0, 43, 64
1, 631322, Note_off_c, 0, 62, 59
1, 631327, Note_on_c, 0, 38, 80
1, 631333, Note_on_c, 0, 57, 81
1, 631362, Note_off_c, 0, 57, 65
1, 631363, Note_on_c, 0, 53, 62
1, 631381, Note_off_c, 0, 38, 64
1, 631386, Note_off_c, 0, 53, 64
1, 631419, Note_on_c, 0, 52, 76
1, 631473, Note_off_c, 0, 52, 62
1, 631491, Note_on_c, 0, 45, 88
1, 631517, Note_on_c, 0, 61, 68
1, 631569, Note_off_c, 0, 45, 61
1, 631573, Note_on_c, 0, 41, 85
1, 631589, Note_on_c, 0, 57, 65
1, 631603, Note_off_c, 0, 61, 61
1, 631657, Note_on_c, 0, 43, 88
1, 631657, Note_on_c, 0, 52, 77
1, 631662, Note_off_c, 0, 41, 63
1, 631662, Note_off_c, 0, 57, 62
1, 631667, Note_on_c, 0, 47, 60
1, 631688, Note_off_c, 0, 52, 67
1, 631691, Note_off_c, 0, 47, 60
1, 631703, Note_off_c, 0, 43, 62
1, 631756, Note_on_c, 0, 52, 76
1, 631798, Note_off_c, 0, 52, 61
1, 631828, Note_on_c, 0, 55, 87
1, 631833, Note_on_c, 0, 47, 86
1, 631904, Note_off_c, 0, 55, 49
1, 631917, Note_on_c, 0, 52, 89
1, 631918, Note_on_c, 0, 43, 84
1, 631920, Note_off_c, 0, 47, 65
1, 631971, Note_off_c, 0, 43, 63
1, 631979, Note_off_c, 0, 52, 63
1, 632007, Note_on_c, 0, 36, 96
1, 632010, Note_on_c, 0, 48, 81
1, 632047, Note_off_c, 0, 48, 63
1, 632052, Note_off_c, 0, 36, 66
1, 632182, Note_on_c, 0, 42, 93
1, 632222, Note_off_c, 0, 42, 63
1, 632254, Note_on_c, 0, 43, 96
1, 632295, Note_off_c, 0, 43, 66
1, 632370, Note_on_c, 0, 36, 111
1, 632371, Note_on_c, 0, 24, 104
1, 632408, Note_off_c, 0, 36, 68
1, 632412, Note_off_c, 0, 24, 65
1, 632423, Control_c, 0, 64, 52
1, 632438, Control_c, 0, 64, 63
1, 632452, Control_c, 0, 64, 68
1, 632467, Control_c, 0, 64, 76
1, 632482, Control_c, 0, 64, 98
1, 632496, Control_c, 0, 64, 127
1, 632801, Control_c, 0, 64, 73
1, 632815, Control_c, 0, 64, 0
1, 633112, Control_c, 0, 67, 11
1, 633126, Control_c, 0, 67, 20
1, 633141, Control_c, 0, 67, 33
1, 633156, Control_c, 0, 67, 48
1, 633171, Control_c, 0, 67, 58
1, 633186, Control_c, 0, 67, 64
1, 633200, Control_c, 0, 67, 69
1, 633215, Control_c, 0, 67, 73
1, 633230, Control_c, 0, 67, 78
1, 633245, Control_c, 0, 67, 84
1, 633260, Control_c, 0, 67, 90
1, 633274, Control_c, 0, 67, 96
1, 633289, Control_c, 0, 67, 103
1, 633304, Control_c, 0, 67, 112
1, 633318, Control_c, 0, 67, 124
1, 633333, Control_c, 0, 67, 127
1, 633405, Note_on_c, 0, 63, 52
1, 633447, Note_off_c, 0, 63, 60
1, 633459, Note_on_c, 0, 65, 50
1, 633486, Note_on_c, 0, 67, 62
1, 633493, Note_off_c, 0, 65, 65
1, 633530, Note_off_c, 0, 67, 64
1, 633539, Note_on_c, 0, 68, 73
1, 633554, Note_off_c, 0, 68, 67
1, 633740, Note_on_c, 0, 72, 61
1, 633747, Note_on_c, 0, 68, 52
1, 633765, Note_off_c, 0, 72, 68
1, 633778, Note_off_c, 0, 68, 64
1, 633901, Note_on_c, 0, 84, 76
1, 633919, Note_on_c, 0, 72, 55
1, 633930, Note_on_c, 0, 68, 47
1, 633958, Note_off_c, 0, 72, 60
1, 633959, Note_off_c, 0, 68, 56
1, 634063, Note_on_c, 0, 75, 80
1, 634087, Note_on_c, 0, 72, 52
1, 634088, Note_on_c, 0, 68, 41
1, 634089, Note_off_c, 0, 84, 63
1, 634141, Note_off_c, 0, 72, 52
1, 634155, Note_off_c, 0, 68, 53
1, 634265, Note_on_c, 0, 79, 88
1, 634282, Note_on_c, 0, 72, 53
1, 634284, Note_on_c, 0, 68, 55
1, 634329, Note_off_c, 0, 68, 55
1, 634336, Note_off_c, 0, 72, 48
1, 634386, Note_off_c, 0, 75, 63
1, 634451, Note_on_c, 0, 68, 54
1, 634459, Note_on_c, 0, 72, 57
1, 634494, Note_off_c, 0, 68, 56
1, 634498, Note_off_c, 0, 72, 57
1, 634615, Note_on_c, 0, 77, 83
1, 634625, Note_on_c, 0, 72, 51
1, 634627, Note_on_c, 0, 68, 51
1, 634681, Note_off_c, 0, 68, 53
1, 634687, Note_off_c, 0, 72, 52
1, 634714, Note_off_c, 0, 79, 63
1, 634804, Note_on_c, 0, 68, 55
1, 634806, Note_on_c, 0, 72, 55
1, 634866, Note_off_c, 0, 68, 52
1, 634877, Note_off_c, 0, 72, 50
1, 634977, Note_on_c, 0, 75, 74
1, 634989, Note_on_c, 0, 70, 52
1, 634995, Note_on_c, 0, 67, 46
1, 635052, Note_off_c, 0, 70, 58
1, 635065, Note_off_c, 0, 67, 55
1, 635172, Note_on_c, 0, 67, 56
1, 635173, Note_on_c, 0, 70, 56
1, 635189, Note_off_c, 0, 77, 30
1, 635227, Note_off_c, 0, 70, 47
1, 635241, Note_off_c, 0, 67, 58
1, 635256, Note_on_c, 0, 69, 59
1, 635292, Note_off_c, 0, 69, 57
1, 635328, Note_on_c, 0, 74, 80
1, 635342, Note_on_c, 0, 70, 60
1, 635354, Note_on_c, 0, 67, 55
1, 635393, Note_off_c, 0, 67, 58
1, 635400, Note_off_c, 0, 70, 58
1, 635413, Note_off_c, 0, 75, 62
1, 635516, Note_on_c, 0, 70, 57
1, 635521, Note_on_c, 0, 67, 56
1, 635561, Note_off_c, 0, 70, 56
1, 635563, Note_off_c, 0, 67, 58
1, 635690, Note_on_c, 0, 72, 67
1, 635704, Note_on_c, 0, 67, 50
1, 635715, Note_off_c, 0, 74, 65
1, 635717, Note_on_c, 0, 68, 49
1, 635751, Control_c, 0, 64, 44
1, 635764, Note_off_c, 0, 68, 56
1, 635766, Control_c, 0, 64, 56
1, 635768, Note_off_c, 0, 67, 55
1, 635781, Control_c, 0, 64, 61
1, 635796, Control_c, 0, 64, 63
1, 635811, Control_c, 0, 64, 65
1, 635825, Control_c, 0, 64, 66
1, 635840, Control_c, 0, 64, 67
1, 635855, Control_c, 0, 64, 69
1, 635870, Control_c, 0, 64, 70
1, 635877, Note_on_c, 0, 68, 45
1, 635885, Control_c, 0, 64, 71
1, 635894, Note_on_c, 0, 67, 47
1, 635900, Control_c, 0, 64, 72
1, 635915, Control_c, 0, 64, 74
1, 635924, Note_off_c, 0, 67, 55
1, 635929, Control_c, 0, 64, 75
1, 635933, Note_off_c, 0, 68, 55
1, 635944, Control_c, 0, 64, 75
1, 635973, Note_off_c, 0, 72, 59
1, 635974, Control_c, 0, 64, 76
1, 635989, Control_c, 0, 64, 76
1, 636004, Control_c, 0, 64, 77
1, 636012, Note_on_c, 0, 70, 50
1, 636019, Control_c, 0, 64, 78
1, 636034, Control_c, 0, 64, 79
1, 636049, Note_on_c, 0, 67, 40
1, 636049, Control_c, 0, 64, 80
1, 636050, Note_off_c, 0, 70, 63
1, 636059, Note_on_c, 0, 68, 35
1, 636064, Control_c, 0, 64, 81
1, 636076, Note_on_c, 0, 72, 57
1, 636079, Control_c, 0, 64, 81
1, 636093, Control_c, 0, 64, 82
1, 636094, Note_off_c, 0, 68, 50
1, 636097, Note_off_c, 0, 67, 54
1, 636107, Note_off_c, 0, 72, 61
1, 636155, Note_on_c, 0, 70, 47
1, 636179, Note_off_c, 0, 70, 59
1, 636182, Note_on_c, 0, 72, 55
1, 636204, Note_on_c, 0, 67, 41
1, 636219, Note_off_c, 0, 72, 61
1, 636219, Note_on_c, 0, 68, 14
1, 636242, Note_on_c, 0, 70, 64
1, 636262, Note_off_c, 0, 67, 48
1, 636264, Note_off_c, 0, 68, 44
1, 636275, Note_off_c, 0, 70, 59
1, 636293, Note_on_c, 0, 72, 50
1, 636300, Control_c, 0, 64, 81
1, 636314, Note_off_c, 0, 72, 59
1, 636315, Control_c, 0, 64, 79
1, 636330, Control_c, 0, 64, 75
1, 636347, Poly_aftertouch_c, 0, 70, 127
1, 636352, Control_c, 0, 64, 67
1, 636365, Poly_aftertouch_c, 0, 70, 0
1, 636367, Control_c, 0, 64, 46
1, 636382, Control_c, 0, 64, 0
1, 636393, Note_on_c, 0, 72, 69
1, 636398, Note_on_c, 0, 65, 52
1, 636406, Note_on_c, 0, 68, 34
1, 636448, Note_off_c, 0, 68, 48
1, 636453, Note_off_c, 0, 65, 52
1, 636574, Note_on_c, 0, 65, 53
1, 636574, Note_on_c, 0, 68, 38
1, 636618, Note_off_c, 0, 65, 58
1, 636619, Note_off_c, 0, 68, 47
1, 636746, Note_on_c, 0, 75, 66
1, 636755, Note_on_c, 0, 65, 48
1, 636764, Note_on_c, 0, 68, 41
1, 636807, Note_off_c, 0, 68, 56
1, 636809, Note_off_c, 0, 65, 56
1, 636904, Note_off_c, 0, 72, 54
1, 636913, Note_on_c, 0, 84, 75
1, 636928, Note_on_c, 0, 65, 53
1, 636930, Note_on_c, 0, 68, 39
1, 636970, Note_off_c, 0, 65, 58
1, 636973, Note_off_c, 0, 68, 49
1, 637089, Note_on_c, 0, 79, 82
1, 637110, Note_on_c, 0, 65, 46
1, 637116, Note_on_c, 0, 74, 56
1, 637117, Note_on_c, 0, 68, 41
1, 637137, Note_off_c, 0, 84, 61
1, 637160, Note_off_c, 0, 75, 60
1, 637160, Control_c, 0, 67, 125
1, 637161, Note_off_c, 0, 68, 56
1, 637166, Note_off_c, 0, 65, 55
1, 637174, Control_c, 0, 67, 122
1, 637189, Control_c, 0, 67, 120
1, 637204, Control_c, 0, 67, 120
1, 637219, Control_c, 0, 67, 119
1, 637235, Control_c, 0, 67, 118
1, 637249, Control_c, 0, 67, 117
1, 637264, Control_c, 0, 67, 115
1, 637279, Control_c, 0, 67, 113
1, 637287, Note_on_c, 0, 65, 55
1, 637290, Note_on_c, 0, 68, 44
1, 637294, Control_c, 0, 67, 110
1, 637308, Control_c, 0, 67, 108
1, 637323, Control_c, 0, 67, 104
1, 637328, Note_off_c, 0, 65, 59
1, 637328, Note_off_c, 0, 68, 58
1, 637338, Control_c, 0, 67, 100
1, 637353, Control_c, 0, 67, 94
1, 637368, Control_c, 0, 67, 89
1, 637382, Control_c, 0, 67, 83
1, 637397, Control_c, 0, 67, 78
1, 637412, Control_c, 0, 67, 74
1, 637427, Control_c, 0, 67, 71
1, 637442, Control_c, 0, 67, 69
1, 637453, Note_on_c, 0, 80, 81
1, 637456, Control_c, 0, 67, 68
1, 637464, Note_on_c, 0, 65, 51
1, 637470, Note_on_c, 0, 68, 49
1, 637511, Note_off_c, 0, 68, 58
1, 637516, Note_off_c, 0, 65, 57
1, 637525, Note_off_c, 0, 79, 58
1, 637635, Note_on_c, 0, 65, 57
1, 637641, Note_on_c, 0, 77, 57
1, 637651, Note_on_c, 0, 68, 39
1, 637688, Note_off_c, 0, 68, 50
1, 637694, Control_c, 0, 67, 69
1, 637699, Note_off_c, 0, 65, 54
1, 637709, Control_c, 0, 67, 69
1, 637723, Note_off_c, 0, 77, 56
1, 637724, Control_c, 0, 67, 70
1, 637769, Control_c, 0, 67, 70
1, 637798, Control_c, 0, 67, 71
1, 637811, Note_on_c, 0, 82, 76
1, 637813, Control_c, 0, 67, 72
1, 637822, Note_on_c, 0, 67, 52
1, 637828, Control_c, 0, 67, 72
1, 637835, Note_on_c, 0, 63, 47
1, 637837, Note_on_c, 0, 77, 57
1, 637850, Control_c, 0, 67, 73
1, 637865, Control_c, 0, 67, 74
1, 637869, Note_off_c, 0, 80, 63
1, 637879, Control_c, 0, 67, 74
1, 637886, Note_off_c, 0, 67, 54
1, 637888, Note_off_c, 0, 63, 58
1, 637898, Note_off_c, 0, 74, 57
1, 637998, Note_on_c, 0, 63, 50
1, 638010, Note_on_c, 0, 67, 53
1, 638013, Control_c, 0, 67, 75
1, 638047, Note_off_c, 0, 67, 62
1, 638049, Note_off_c, 0, 63, 54
1, 638116, Control_c, 0, 67, 74
1, 638159, Note_on_c, 0, 84, 78
1, 638170, Note_on_c, 0, 63, 57
1, 638176, Control_c, 0, 67, 75
1, 638177, Note_on_c, 0, 67, 46
1, 638185, Note_off_c, 0, 82, 64
1, 638190, Control_c, 0, 67, 76
1, 638205, Control_c, 0, 67, 76
1, 638218, Note_off_c, 0, 67, 59
1, 638220, Control_c, 0, 67, 77
1, 638225, Note_off_c, 0, 63, 49
1, 638235, Control_c, 0, 67, 77
1, 638340, Note_on_c, 0, 63, 57
1, 638346, Note_on_c, 0, 75, 64
1, 638348, Note_off_c, 0, 77, 61
1, 638350, Note_on_c, 0, 67, 42
1, 638383, Note_off_c, 0, 63, 58
1, 638392, Note_off_c, 0, 67, 55
1, 638458, Control_c, 0, 67, 77
1, 638522, Note_on_c, 0, 86, 83
1, 638524, Note_on_c, 0, 67, 47
1, 638532, Note_on_c, 0, 63, 53
1, 638532, Control_c, 0, 67, 77
1, 638547, Control_c, 0, 67, 78
1, 638562, Control_c, 0, 67, 78
1, 638575, Note_off_c, 0, 63, 59
1, 638577, Control_c, 0, 67, 79
1, 638598, Note_off_c, 0, 67, 51
1, 638599, Control_c, 0, 67, 79
1, 638614, Control_c, 0, 67, 80
1, 638632, Note_off_c, 0, 75, 61
1, 638704, Note_on_c, 0, 74, 68
1, 638707, Note_on_c, 0, 63, 50
1, 638722, Note_on_c, 0, 67, 42
1, 638722, Note_off_c, 0, 84, 61
1, 638750, Note_off_c, 0, 63, 60
1, 638765, Note_off_c, 0, 67, 58
1, 638836, Control_c, 0, 67, 80
1, 638851, Control_c, 0, 67, 81
1, 638865, Control_c, 0, 67, 81
1, 638880, Control_c, 0, 67, 84
1, 638886, Note_on_c, 0, 87, 80
1, 638895, Control_c, 0, 67, 86
1, 638896, Note_on_c, 0, 67, 48
1, 638904, Note_on_c, 0, 63, 44
1, 638908, Note_off_c, 0, 74, 29
1, 638910, Control_c, 0, 67, 88
1, 638925, Control_c, 0, 67, 89
1, 638934, Note_off_c, 0, 86, 62
1, 638939, Control_c, 0, 67, 90
1, 638951, Note_off_c, 0, 63, 57
1, 638954, Control_c, 0, 64, 49
1, 638954, Control_c, 0, 67, 91
1, 638965, Note_off_c, 0, 67, 46
1, 638969, Control_c, 0, 64, 64
1, 638969, Control_c, 0, 67, 92
1, 638984, Control_c, 0, 64, 70
1, 638984, Control_c, 0, 67, 92
1, 638999, Control_c, 0, 64, 74
1, 639013, Control_c, 0, 64, 79
1, 639028, Control_c, 0, 64, 83
1, 639043, Control_c, 0, 64, 87
1, 639054, Note_on_c, 0, 67, 32
1, 639054, Note_on_c, 0, 72, 58
1, 639058, Control_c, 0, 64, 90
1, 639065, Note_on_c, 0, 63, 51
1, 639072, Control_c, 0, 64, 93
1, 639084, Note_off_c, 0, 72, 50
1, 639087, Control_c, 0, 64, 94
1, 639087, Control_c, 0, 67, 92
1, 639092, Note_off_c, 0, 67, 58
1, 639102, Control_c, 0, 64, 96
1, 639116, Note_off_c, 0, 63, 53
1, 639117, Control_c, 0, 64, 97
1, 639207, Control_c, 0, 64, 95
1, 639222, Control_c, 0, 64, 90
1, 639222, Control_c, 0, 67, 92
1, 639237, Control_c, 0, 64, 82
1, 639240, Note_on_c, 0, 89, 71
1, 639241, Note_on_c, 0, 70, 53
1, 639244, Note_on_c, 0, 62, 47
1, 639249, Note_on_c, 0, 65, 48
1, 639251, Control_c, 0, 64, 72
1, 639266, Control_c, 0, 64, 59
1, 639281, Control_c, 0, 64, 0
1, 639297, Note_off_c, 0, 70, 56
1, 639299, Note_off_c, 0, 62, 57
1, 639304, Note_off_c, 0, 65, 59
1, 639358, Note_off_c, 0, 89, 60
1, 639378, Note_off_c, 0, 87, 60
1, 639407, Control_c, 0, 67, 93
1, 639414, Note_on_c, 0, 70, 57
1, 639423, Note_on_c, 0, 62, 47
1, 639438, Note_on_c, 0, 65, 46
1, 639466, Note_off_c, 0, 70, 50
1, 639468, Note_off_c, 0, 65, 59
1, 639471, Note_off_c, 0, 62, 55
1, 639489, Note_on_c, 0, 61, 68
1, 639555, Control_c, 0, 67, 92
1, 639563, Note_on_c, 0, 62, 66
1, 639566, Note_on_c, 0, 70, 70
1, 639566, Note_off_c, 0, 61, 62
1, 639569, Control_c, 0, 67, 92
1, 639571, Note_on_c, 0, 65, 50
1, 639577, Note_on_c, 0, 86, 84
1, 639584, Control_c, 0, 67, 91
1, 639592, Note_off_c, 0, 70, 65
1, 639594, Note_off_c, 0, 62, 61
1, 639599, Control_c, 0, 67, 91
1, 639606, Note_off_c, 0, 65, 65
1, 639614, Control_c, 0, 67, 90
1, 639629, Control_c, 0, 67, 89
1, 639644, Control_c, 0, 67, 89
1, 639674, Control_c, 0, 67, 88
1, 639689, Control_c, 0, 67, 88
1, 639733, Note_on_c, 0, 65, 46
1, 639737, Note_on_c, 0, 77, 86
1, 639742, Note_on_c, 0, 70, 65
1, 639748, Note_on_c, 0, 62, 53
1, 639751, Note_off_c, 0, 86, 66
1, 639777, Control_c, 0, 67, 88
1, 639780, Note_off_c, 0, 62, 61
1, 639784, Note_off_c, 0, 70, 51
1, 639784, Note_off_c, 0, 65, 62
1, 639792, Control_c, 0, 67, 89
1, 639822, Control_c, 0, 67, 90
1, 639836, Control_c, 0, 67, 90
1, 639851, Control_c, 0, 67, 91
1, 639866, Control_c, 0, 67, 92
1, 639881, Control_c, 0, 67, 92
1, 639895, Control_c, 0, 67, 93
1, 639925, Control_c, 0, 67, 94
1, 639930, Note_on_c, 0, 81, 80
1, 639938, Note_on_c, 0, 65, 52
1, 639940, Control_c, 0, 67, 94
1, 639942, Note_on_c, 0, 70, 52
1, 639943, Note_on_c, 0, 62, 49
1, 639955, Control_c, 0, 67, 96
1, 639971, Control_c, 0, 67, 98
1, 639985, Control_c, 0, 67, 100
1, 639991, Note_off_c, 0, 70, 54
1, 639997, Note_off_c, 0, 62, 56
1, 640000, Control_c, 0, 67, 102
1, 640001, Note_off_c, 0, 65, 56
1, 640015, Control_c, 0, 67, 104
1, 640024, Note_off_c, 0, 77, 62
1, 640030, Control_c, 0, 67, 107
1, 640045, Control_c, 0, 67, 111
1, 640060, Control_c, 0, 67, 114
1, 640074, Control_c, 0, 67, 118
1, 640097, Control_c, 0, 67, 121
1, 640112, Control_c, 0, 67, 123
1, 640119, Note_on_c, 0, 70, 56
1, 640126, Control_c, 0, 67, 125
1, 640130, Note_on_c, 0, 65, 52
1, 640131, Note_on_c, 0, 62, 42
1, 640141, Control_c, 0, 67, 127
1, 640157, Note_off_c, 0, 70, 60
1, 640167, Note_off_c, 0, 62, 52
1, 640167, Note_off_c, 0, 65, 63
1, 640291, Note_on_c, 0, 79, 66
1, 640294, Note_on_c, 0, 70, 47
1, 640303, Note_on_c, 0, 65, 41
1, 640309, Note_on_c, 0, 62, 35
1, 640341, Note_off_c, 0, 70, 57
1, 640350, Note_off_c, 0, 65, 60
1, 640355, Note_off_c, 0, 62, 47
1, 640383, Note_off_c, 0, 81, 53
1, 640463, Note_on_c, 0, 70, 46
1, 640468, Note_on_c, 0, 62, 46
1, 640493, Note_on_c, 0, 65, 11
1, 640523, Note_off_c, 0, 62, 55
1, 640538, Note_off_c, 0, 65, 42
1, 640540, Note_off_c, 0, 70, 58
1, 640563, Note_on_c, 0, 61, 15
1, 640609, Note_off_c, 0, 61, 42
1, 640618, Note_on_c, 0, 62, 46
1, 640624, Note_on_c, 0, 77, 60
1, 640630, Note_on_c, 0, 65, 52
1, 640632, Note_on_c, 0, 69, 49
1, 640666, Note_off_c, 0, 65, 63
1, 640668, Note_off_c, 0, 62, 54
1, 640671, Note_off_c, 0, 69, 62
1, 640700, Note_off_c, 0, 79, 58
1, 640807, Note_on_c, 0, 62, 44
1, 640809, Note_on_c, 0, 69, 39
1, 640812, Note_on_c, 0, 65, 40
1, 640860, Note_off_c, 0, 62, 58
1, 640862, Note_off_c, 0, 65, 62
1, 640866, Note_off_c, 0, 69, 59
1, 640984, Note_on_c, 0, 62, 48
1, 640986, Note_on_c, 0, 76, 63
1, 640987, Note_on_c, 0, 69, 43
1, 640991, Note_on_c, 0, 65, 44
1, 641034, Note_off_c, 0, 62, 57
1, 641036, Note_off_c, 0, 69, 59
1, 641040, Note_off_c, 0, 65, 60
1, 641066, Note_off_c, 0, 77, 57
1, 641168, Note_on_c, 0, 62, 45
1, 641171, Note_on_c, 0, 69, 39
1, 641176, Note_on_c, 0, 65, 41
1, 641207, Note_off_c, 0, 69, 61
1, 641211, Note_off_c, 0, 65, 59
1, 641218, Note_off_c, 0, 62, 52
1, 641337, Note_on_c, 0, 74, 62
1, 641342, Note_on_c, 0, 65, 44
1, 641346, Note_on_c, 0, 70, 53
1, 641348, Note_on_c, 0, 62, 45
1, 641352, Note_off_c, 0, 76, 60
1, 641385, Note_off_c, 0, 70, 60
1, 641394, Note_off_c, 0, 62, 57
1, 641395, Note_off_c, 0, 65, 61
1, 641519, Note_on_c, 0, 81, 68
1, 641522, Note_on_c, 0, 70, 42
1, 641523, Note_on_c, 0, 62, 40
1, 641525, Note_on_c, 0, 65, 52
1, 641555, Note_off_c, 0, 70, 57
1, 641562, Note_off_c, 0, 62, 55
1, 641562, Note_off_c, 0, 65, 63
1, 641599, Note_off_c, 0, 74, 57
1, 641711, Note_on_c, 0, 86, 70
1, 641712, Note_on_c, 0, 70, 43
1, 641713, Note_on_c, 0, 62, 37
1, 641713, Note_on_c, 0, 65, 46
1, 641756, Note_off_c, 0, 70, 59
1, 641761, Note_off_c, 0, 65, 60
1, 641763, Note_off_c, 0, 62, 55
1, 641879, Note_on_c, 0, 79, 72
1, 641884, Note_on_c, 0, 70, 41
1, 641900, Note_on_c, 0, 65, 32
1, 641901, Note_on_c, 0, 62, 36
1, 641902, Note_off_c, 0, 86, 50
1, 641934, Note_off_c, 0, 65, 56
1, 641949, Note_off_c, 0, 62, 46
1, 641951, Note_off_c, 0, 70, 59
1, 641957, Note_off_c, 0, 81, 53
1, 642053, Note_off_c, 0, 79, 61
1, 642056, Note_on_c, 0, 72, 66
1, 642067, Note_on_c, 0, 64, 55
1, 642075, Note_on_c, 0, 69, 48
1, 642080, Note_on_c, 0, 62, 39
1, 642106, Note_off_c, 0, 64, 62
1, 642115, Note_off_c, 0, 62, 54
1, 642115, Note_off_c, 0, 69, 59
1, 642231, Note_on_c, 0, 69, 56
1, 642241, Note_on_c, 0, 64, 54
1, 642263, Note_off_c, 0, 64, 63
1, 642264, Note_off_c, 0, 69, 65
1, 642409, Note_on_c, 0, 55, 70
1, 642422, Note_on_c, 0, 69, 55
1, 642430, Note_on_c, 0, 62, 48
1, 642432, Note_on_c, 0, 64, 44
1, 642458, Note_off_c, 0, 64, 60
1, 642461, Note_off_c, 0, 62, 58
1, 642469, Note_off_c, 0, 69, 54
1, 642585, Note_on_c, 0, 56, 72
1, 642586, Note_off_c, 0, 55, 60
1, 642589, Note_on_c, 0, 69, 58
1, 642600, Note_on_c, 0, 62, 44
1, 642613, Note_on_c, 0, 64, 31
1, 642630, Note_off_c, 0, 69, 56
1, 642637, Note_off_c, 0, 62, 53
1, 642648, Note_off_c, 0, 64, 46
1, 642774, Note_on_c, 0, 70, 45
1, 642786, Note_on_c, 0, 57, 68
1, 642800, Note_off_c, 0, 70, 34
1, 642801, Note_off_c, 0, 56, 61
1, 642804, Note_on_c, 0, 62, 46
1, 642811, Note_on_c, 0, 65, 40
1, 642856, Note_off_c, 0, 65, 46
1, 642857, Note_off_c, 0, 62, 56
1, 642890, Poly_aftertouch_c, 0, 69, 0
1, 642967, Note_on_c, 0, 65, 52
1, 642980, Note_on_c, 0, 62, 44
1, 643021, Note_off_c, 0, 65, 57
1, 643033, Note_off_c, 0, 62, 52
1, 643161, Note_on_c, 0, 73, 86
1, 643178, Note_on_c, 0, 62, 47
1, 643193, Note_on_c, 0, 65, 27
1, 643230, Note_off_c, 0, 62, 56
1, 643233, Note_off_c, 0, 72, 59
1, 643240, Note_off_c, 0, 65, 50
1, 643331, Note_on_c, 0, 65, 55
1, 643349, Note_on_c, 0, 62, 44
1, 643355, Note_on_c, 0, 69, 46
1, 643383, Note_off_c, 0, 69, 58
1, 643386, Note_off_c, 0, 62, 51
1, 643390, Note_off_c, 0, 65, 57
1, 643525, Note_on_c, 0, 65, 44
1, 643527, Note_on_c, 0, 58, 63
1, 643538, Note_on_c, 0, 62, 43
1, 643542, Note_on_c, 0, 68, 44
1, 643568, Note_off_c, 0, 57, 51
1, 643585, Note_off_c, 0, 62, 58
1, 643588, Note_off_c, 0, 65, 63
1, 643591, Note_off_c, 0, 68, 54
1, 643714, Note_on_c, 0, 65, 57
1, 643718, Note_on_c, 0, 68, 34
1, 643728, Note_on_c, 0, 62, 39
1, 643765, Note_off_c, 0, 65, 57
1, 643765, Note_off_c, 0, 68, 46
1, 643770, Note_off_c, 0, 62, 56
1, 643902, Note_on_c, 0, 65, 50
1, 643902, Note_on_c, 0, 74, 65
1, 643909, Note_on_c, 0, 68, 42
1, 643917, Note_on_c, 0, 62, 39
1, 643951, Note_off_c, 0, 73, 59
1, 643957, Note_off_c, 0, 62, 55
1, 643968, Note_off_c, 0, 68, 56
1, 643972, Note_off_c, 0, 65, 60
1, 644103, Note_on_c, 0, 65, 41
1, 644110, Note_on_c, 0, 62, 46
1, 644114, Note_on_c, 0, 68, 35
1, 644154, Note_off_c, 0, 65, 55
1, 644157, Note_off_c, 0, 62, 57
1, 644166, Note_off_c, 0, 68, 46
1, 644310, Note_off_c, 0, 58, 60
1, 644322, Note_on_c, 0, 59, 40
1, 644331, Note_on_c, 0, 62, 23
1, 644342, Note_on_c, 0, 67, 19
1, 644362, Note_off_c, 0, 62, 48
1, 644377, Note_off_c, 0, 67, 42
1, 644395, Poly_aftertouch_c, 0, 65, 0
1, 644523, Note_on_c, 0, 65, 38
1, 644546, Note_on_c, 0, 62, 32
1, 644550, Note_on_c, 0, 67, 27
1, 644598, Note_off_c, 0, 65, 51
1, 644607, Note_off_c, 0, 67, 45
1, 644618, Note_off_c, 0, 62, 41
1, 644647, Control_c, 0, 64, 47
1, 644662, Control_c, 0, 64, 59
1, 644677, Control_c, 0, 64, 64
1, 644691, Control_c, 0, 64, 66
1, 644706, Control_c, 0, 64, 67
1, 644721, Control_c, 0, 64, 68
1, 644779, Note_on_c, 0, 75, 58
1, 644782, Control_c, 0, 64, 65
1, 644795, Note_on_c, 0, 65, 27
1, 644796, Control_c, 0, 64, 58
1, 644801, Note_on_c, 0, 62, 24
1, 644803, Note_off_c, 0, 74, 52
1, 644808, Note_on_c, 0, 67, 31
1, 644811, Control_c, 0, 64, 11
1, 644826, Control_c, 0, 64, 0
1, 644885, Control_c, 0, 64, 11
1, 644900, Control_c, 0, 64, 62
1, 644914, Control_c, 0, 64, 69
1, 644928, Note_off_c, 0, 67, 48
1, 644929, Control_c, 0, 64, 77
1, 644931, Note_off_c, 0, 62, 41
1, 644944, Note_off_c, 0, 65, 42
1, 644944, Control_c, 0, 64, 86
1, 644959, Control_c, 0, 64, 97
1, 644974, Control_c, 0, 64, 109
1, 644989, Control_c, 0, 64, 127
1, 645055, Note_on_c, 0, 62, 29
1, 645060, Note_on_c, 0, 65, 24
1, 645064, Note_on_c, 0, 67, 32
1, 645123, Note_off_c, 0, 65, 55
1, 645135, Note_off_c, 0, 67, 50
1, 645198, Note_off_c, 0, 62, 38
1, 645445, Note_on_c, 0, 87, 68
1, 645449, Note_off_c, 0, 59, 52
1, 645478, Note_on_c, 0, 63, 34
1, 645489, Note_on_c, 0, 68, 40
1, 645500, Control_c, 0, 64, 118
1, 645505, Note_on_c, 0, 60, 33
1, 645506, Note_on_c, 0, 80, 50
1, 645514, Control_c, 0, 64, 88
1, 645529, Control_c, 0, 64, 72
1, 645544, Control_c, 0, 64, 61
1, 645563, Note_off_c, 0, 75, 33
1, 645569, Note_off_c, 0, 80, 0
1, 645569, Note_on_c, 0, 80, 12
1, 645575, Control_c, 0, 64, 65
1, 645590, Control_c, 0, 64, 69
1, 645604, Control_c, 0, 64, 75
1, 645619, Control_c, 0, 64, 83
1, 645634, Control_c, 0, 64, 98
1, 645649, Control_c, 0, 64, 119
1, 645664, Control_c, 0, 64, 127
1, 645732, Note_on_c, 0, 74, 55
1, 645733, Note_on_c, 0, 59, 41
1, 645750, Note_off_c, 0, 68, 30
1, 645769, Note_off_c, 0, 74, 67
1, 645787, Note_off_c, 0, 60, 41
1, 645794, Note_off_c, 0, 59, 53
1, 645803, Note_off_c, 0, 63, 41
1, 645901, Control_c, 0, 67, 127
1, 645913, Note_on_c, 0, 75, 57
1, 645916, Control_c, 0, 67, 125
1, 645922, Note_on_c, 0, 60, 37
1, 645924, Note_on_c, 0, 63, 44
1, 645928, Note_on_c, 0, 68, 34
1, 645930, Control_c, 0, 67, 123
1, 645945, Control_c, 0, 67, 122
1, 645960, Control_c, 0, 67, 121
1, 645960, Note_off_c, 0, 75, 59
1, 645970, Note_off_c, 0, 87, 56
1, 645972, Note_off_c, 0, 63, 56
1, 645975, Control_c, 0, 67, 119
1, 645976, Note_off_c, 0, 68, 53
1, 645978, Note_off_c, 0, 60, 56
1, 645990, Control_c, 0, 67, 118
1, 646004, Control_c, 0, 67, 117
1, 646019, Control_c, 0, 67, 116
1, 646034, Control_c, 0, 67, 114
1, 646049, Control_c, 0, 67, 113
1, 646063, Control_c, 0, 67, 112
1, 646086, Control_c, 0, 67, 111
1, 646086, Note_off_c, 0, 80, 40
1, 646101, Control_c, 0, 67, 111
1, 646107, Note_on_c, 0, 63, 42
1, 646108, Note_on_c, 0, 72, 53
1, 646112, Note_on_c, 0, 60, 44
1, 646115, Note_on_c, 0, 68, 34
1, 646115, Control_c, 0, 67, 110
1, 646130, Control_c, 0, 67, 109
1, 646145, Control_c, 0, 67, 108
1, 646153, Note_off_c, 0, 63, 55
1, 646159, Note_off_c, 0, 60, 56
1, 646160, Control_c, 0, 67, 107
1, 646161, Note_off_c, 0, 68, 46
1, 646175, Control_c, 0, 67, 106
1, 646190, Control_c, 0, 67, 106
1, 646249, Control_c, 0, 67, 106
1, 646263, Control_c, 0, 67, 107
1, 646278, Control_c, 0, 67, 107
1, 646291, Note_on_c, 0, 86, 83
1, 646293, Control_c, 0, 64, 95
1, 646308, Control_c, 0, 64, 77
1, 646308, Control_c, 0, 67, 108
1, 646323, Note_off_c, 0, 72, 44
1, 646323, Control_c, 0, 64, 71
1, 646323, Control_c, 0, 67, 108
1, 646324, Note_on_c, 0, 63, 42
1, 646329, Note_on_c, 0, 68, 35
1, 646332, Note_on_c, 0, 60, 35
1, 646335, Note_on_c, 0, 80, 46
1, 646337, Control_c, 0, 64, 72
1, 646353, Control_c, 0, 64, 75
1, 646368, Control_c, 0, 64, 78
1, 646383, Control_c, 0, 64, 83
1, 646398, Control_c, 0, 64, 93
1, 646413, Control_c, 0, 64, 103
1, 646427, Control_c, 0, 64, 114
1, 646442, Control_c, 0, 64, 127
1, 646492, Note_on_c, 0, 74, 53
1, 646503, Note_on_c, 0, 59, 42
1, 646522, Note_off_c, 0, 60, 32
1, 646546, Note_off_c, 0, 59, 50
1, 646558, Note_off_c, 0, 86, 38
1, 646560, Control_c, 0, 67, 108
1, 646569, Note_off_c, 0, 68, 42
1, 646571, Note_off_c, 0, 63, 43
1, 646572, Note_off_c, 0, 74, 55
1, 646605, Control_c, 0, 67, 107
1, 646676, Note_on_c, 0, 75, 56
1, 646682, Note_on_c, 0, 60, 36
1, 646687, Note_on_c, 0, 63, 47
1, 646694, Note_on_c, 0, 68, 38
1, 646725, Note_off_c, 0, 63, 56
1, 646727, Note_off_c, 0, 60, 48
1, 646733, Note_off_c, 0, 68, 48
1, 646783, Control_c, 0, 67, 108
1, 646798, Control_c, 0, 67, 108
1, 646813, Control_c, 0, 67, 109
1, 646834, Control_c, 0, 67, 109
1, 646837, Note_off_c, 0, 80, 53
1, 646842, Note_off_c, 0, 75, 58
1, 646849, Control_c, 0, 67, 110
1, 646858, Note_on_c, 0, 68, 44
1, 646864, Note_on_c, 0, 63, 44
1, 646864, Note_on_c, 0, 72, 51
1, 646864, Control_c, 0, 67, 111
1, 646894, Control_c, 0, 67, 111
1, 646896, Note_off_c, 0, 63, 58
1, 646908, Note_off_c, 0, 72, 57
1, 646931, Note_off_c, 0, 68, 60
1, 647081, Note_on_c, 0, 84, 72
1, 647086, Control_c, 0, 64, 99
1, 647098, Note_on_c, 0, 65, 48
1, 647101, Control_c, 0, 64, 78
1, 647103, Note_on_c, 0, 69, 44
1, 647114, Note_on_c, 0, 81, 48
1, 647116, Control_c, 0, 64, 64
1, 647118, Note_on_c, 0, 60, 29
1, 647131, Control_c, 0, 64, 48
1, 647146, Control_c, 0, 64, 54
1, 647146, Control_c, 0, 67, 111
1, 647162, Control_c, 0, 64, 63
1, 647162, Control_c, 0, 67, 110
1, 647176, Control_c, 0, 64, 66
1, 647176, Control_c, 0, 67, 110
1, 647191, Control_c, 0, 64, 70
1, 647206, Control_c, 0, 64, 75
1, 647206, Control_c, 0, 67, 109
1, 647221, Control_c, 0, 64, 81
1, 647221, Control_c, 0, 67, 109
1, 647236, Control_c, 0, 64, 88
1, 647236, Control_c, 0, 67, 108
1, 647250, Control_c, 0, 64, 94
1, 647250, Control_c, 0, 67, 107
1, 647257, Note_off_c, 0, 69, 37
1, 647265, Control_c, 0, 64, 98
1, 647280, Control_c, 0, 64, 100
1, 647280, Control_c, 0, 67, 107
1, 647281, Note_on_c, 0, 76, 57
1, 647288, Note_on_c, 0, 68, 45
1, 647295, Control_c, 0, 64, 101
1, 647309, Control_c, 0, 64, 103
1, 647309, Control_c, 0, 67, 106
1, 647324, Control_c, 0, 64, 103
1, 647339, Control_c, 0, 64, 104
1, 647369, Control_c, 0, 67, 106
1, 647383, Control_c, 0, 67, 105
1, 647393, Note_off_c, 0, 76, 38
1, 647409, Note_off_c, 0, 68, 49
1, 647428, Control_c, 0, 67, 105
1, 647439, Note_on_c, 0, 83, 82
1, 647454, Note_on_c, 0, 67, 54
1, 647457, Control_c, 0, 64, 104
1, 647457, Control_c, 0, 67, 104
1, 647472, Control_c, 0, 67, 103
1, 647480, Note_on_c, 0, 77, 54
1, 647484, Note_off_c, 0, 81, 61
1, 647487, Control_c, 0, 67, 101
1, 647497, Note_off_c, 0, 84, 59
1, 647502, Control_c, 0, 67, 99
1, 647517, Control_c, 0, 67, 97
1, 647529, Note_off_c, 0, 65, 34
1, 647531, Control_c, 0, 67, 96
1, 647541, Note_off_c, 0, 77, 0
1, 647546, Control_c, 0, 67, 94
1, 647561, Control_c, 0, 67, 94
1, 647580, Note_on_c, 0, 77, 11
1, 647583, Control_c, 0, 64, 105
1, 647583, Control_c, 0, 67, 93
1, 647598, Control_c, 0, 67, 93
1, 647613, Control_c, 0, 64, 105
1, 647613, Control_c, 0, 67, 92
1, 647618, Note_off_c, 0, 67, 38
1, 647619, Note_off_c, 0, 60, 54
1, 647628, Control_c, 0, 64, 106
1, 647629, Note_on_c, 0, 72, 67
1, 647632, Note_on_c, 0, 66, 50
1, 647642, Control_c, 0, 64, 107
1, 647657, Control_c, 0, 64, 108
1, 647672, Control_c, 0, 64, 109
1, 647675, Note_off_c, 0, 72, 49
1, 647687, Control_c, 0, 64, 110
1, 647702, Control_c, 0, 64, 111
1, 647716, Control_c, 0, 67, 93
1, 647776, Control_c, 0, 64, 107
1, 647776, Control_c, 0, 67, 93
1, 647791, Control_c, 0, 64, 94
1, 647804, Note_on_c, 0, 81, 85
1, 647806, Control_c, 0, 64, 79
1, 647806, Control_c, 0, 67, 94
1, 647815, Note_on_c, 0, 67, 49
1, 647816, Note_on_c, 0, 60, 49
1, 647821, Control_c, 0, 64, 63
1, 647821, Control_c, 0, 67, 94
1, 647824, Note_on_c, 0, 59, 39
1, 647831, Note_off_c, 0, 66, 24
1, 647835, Control_c, 0, 64, 0
1, 647850, Control_c, 0, 67, 95
1, 647867, Note_off_c, 0, 83, 56
1, 647880, Control_c, 0, 64, 38
1, 647880, Control_c, 0, 67, 95
1, 647895, Control_c, 0, 64, 61
1, 647909, Control_c, 0, 64, 68
1, 647909, Control_c, 0, 67, 96
1, 647924, Control_c, 0, 64, 75
1, 647939, Control_c, 0, 64, 82
1, 647955, Control_c, 0, 64, 88
1, 647970, Control_c, 0, 64, 91
1, 647976, Note_off_c, 0, 67, 48
1, 647979, Note_off_c, 0, 77, 48
1, 647985, Control_c, 0, 64, 94
1, 647985, Control_c, 0, 67, 96
1, 647994, Note_on_c, 0, 76, 67
1, 647998, Note_on_c, 0, 66, 53
1, 647999, Control_c, 0, 64, 96
1, 647999, Control_c, 0, 67, 97
1, 648014, Control_c, 0, 64, 99
1, 648029, Control_c, 0, 64, 100
1, 648029, Control_c, 0, 67, 97
1, 648044, Control_c, 0, 64, 101
1, 648044, Control_c, 0, 67, 98
1, 648059, Control_c, 0, 64, 102
1, 648074, Control_c, 0, 67, 98
1, 648088, Control_c, 0, 67, 99
1, 648118, Control_c, 0, 67, 100
1, 648131, Note_off_c, 0, 76, 57
1, 648147, Control_c, 0, 67, 100
1, 648160, Note_on_c, 0, 83, 88
1, 648162, Control_c, 0, 67, 101
1, 648166, Note_off_c, 0, 66, 38
1, 648177, Note_on_c, 0, 65, 53
1, 648177, Control_c, 0, 67, 101
1, 648192, Control_c, 0, 67, 102
1, 648206, Note_on_c, 0, 77, 40
1, 648206, Control_c, 0, 67, 103
1, 648221, Control_c, 0, 67, 104
1, 648236, Control_c, 0, 67, 104
1, 648250, Control_c, 0, 67, 106
1, 648253, Note_off_c, 0, 77, 0
1, 648253, Note_on_c, 0, 77, 21
1, 648265, Control_c, 0, 67, 108
1, 648280, Control_c, 0, 67, 111
1, 648295, Control_c, 0, 67, 114
1, 648310, Control_c, 0, 67, 118
1, 648332, Control_c, 0, 67, 122
1, 648339, Note_off_c, 0, 60, 41
1, 648342, Note_off_c, 0, 77, 56
1, 648346, Note_on_c, 0, 72, 59
1, 648346, Note_off_c, 0, 59, 55
1, 648347, Note_on_c, 0, 64, 49
1, 648347, Control_c, 0, 67, 127
1, 648352, Note_off_c, 0, 65, 40
1, 648362, Control_c, 0, 67, 127
1, 648372, Note_off_c, 0, 64, 59
1, 648501, Note_off_c, 0, 72, 47
1, 648525, Control_c, 0, 64, 100
1, 648539, Control_c, 0, 64, 90
1, 648554, Control_c, 0, 64, 76
1, 648558, Note_on_c, 0, 57, 40
1, 648560, Note_on_c, 0, 65, 21
1, 648566, Note_on_c, 0, 84, 72
1, 648569, Control_c, 0, 64, 62
1, 648570, Note_on_c, 0, 62, 46
1, 648573, Note_off_c, 0, 81, 55
1, 648584, Control_c, 0, 64, 0
1, 648591, Note_on_c, 0, 77, 50
1, 648608, Note_off_c, 0, 83, 56
1, 648658, Control_c, 0, 64, 44
1, 648673, Control_c, 0, 64, 62
1, 648688, Control_c, 0, 64, 67
1, 648700, Note_off_c, 0, 57, 56
1, 648703, Control_c, 0, 64, 70
1, 648718, Control_c, 0, 64, 73
1, 648732, Control_c, 0, 64, 74
1, 648747, Note_on_c, 0, 56, 51
1, 648747, Control_c, 0, 64, 76
1, 648751, Note_on_c, 0, 71, 51
1, 648757, Note_off_c, 0, 62, 47
1, 648763, Control_c, 0, 64, 79
1, 648777, Control_c, 0, 64, 81
1, 648792, Control_c, 0, 64, 82
1, 648807, Control_c, 0, 64, 83
1, 648817, Note_off_c, 0, 65, 42
1, 648817, Note_off_c, 0, 71, 59
1, 648822, Control_c, 0, 64, 83
1, 648837, Control_c, 0, 64, 84
1, 648852, Control_c, 0, 64, 86
1, 648860, Note_off_c, 0, 56, 56
1, 648867, Control_c, 0, 64, 87
1, 648881, Control_c, 0, 64, 88
1, 648896, Control_c, 0, 64, 89
1, 648911, Control_c, 0, 64, 90
1, 648926, Control_c, 0, 64, 91
1, 648935, Note_on_c, 0, 65, 47
1, 648938, Note_on_c, 0, 62, 46
1, 648941, Note_on_c, 0, 72, 51
1, 648941, Control_c, 0, 64, 92
1, 648945, Note_off_c, 0, 77, 61
1, 648953, Note_on_c, 0, 57, 33
1, 648955, Control_c, 0, 64, 92
1, 648961, Note_off_c, 0, 72, 60
1, 648970, Control_c, 0, 64, 93
1, 648980, Note_off_c, 0, 65, 57
1, 648986, Note_off_c, 0, 62, 52
1, 648996, Note_off_c, 0, 57, 49
1, 649123, Note_on_c, 0, 81, 65
1, 649126, Note_on_c, 0, 65, 50
1, 649129, Note_on_c, 0, 57, 38
1, 649142, Note_on_c, 0, 69, 49
1, 649146, Note_on_c, 0, 62, 24
1, 649153, Note_off_c, 0, 84, 37
1, 649164, Note_off_c, 0, 57, 50
1, 649170, Note_off_c, 0, 65, 58
1, 649185, Note_off_c, 0, 62, 43
1, 649195, Note_off_c, 0, 69, 45
1, 649318, Control_c, 0, 64, 90
1, 649333, Control_c, 0, 64, 82
1, 649347, Note_on_c, 0, 83, 61
1, 649348, Control_c, 0, 64, 68
1, 649349, Note_on_c, 0, 64, 42
1, 649350, Note_on_c, 0, 60, 44
1, 649353, Note_on_c, 0, 55, 45
1, 649362, Note_on_c, 0, 76, 51
1, 649362, Control_c, 0, 64, 29
1, 649367, Note_off_c, 0, 81, 52
1, 649377, Control_c, 0, 64, 0
1, 649460, Note_off_c, 0, 55, 57
1, 649466, Control_c, 0, 64, 58
1, 649481, Control_c, 0, 64, 66
1, 649496, Control_c, 0, 64, 72
1, 649511, Control_c, 0, 64, 76
1, 649526, Control_c, 0, 64, 81
1, 649541, Control_c, 0, 64, 84
1, 649543, Note_on_c, 0, 54, 44
1, 649547, Note_off_c, 0, 60, 38
1, 649556, Control_c, 0, 64, 87
1, 649571, Control_c, 0, 64, 89
1, 649581, Poly_aftertouch_c, 0, 71, 127
1, 649582, Note_off_c, 0, 64, 35
1, 649585, Control_c, 0, 64, 90
1, 649600, Control_c, 0, 64, 90
1, 649601, Note_off_c, 0, 54, 54
1, 649618, Poly_aftertouch_c, 0, 71, 0
1, 649699, Note_off_c, 0, 76, 60
1, 649715, Note_on_c, 0, 64, 46
1, 649721, Note_on_c, 0, 72, 52
1, 649722, Note_on_c, 0, 60, 44
1, 649728, Note_on_c, 0, 55, 38
1, 649743, Note_off_c, 0, 72, 61
1, 649757, Note_off_c, 0, 64, 57
1, 649767, Note_off_c, 0, 60, 49
1, 649769, Note_off_c, 0, 55, 47
1, 649895, Note_on_c, 0, 79, 67
1, 649899, Note_off_c, 0, 83, 39
1, 649900, Note_on_c, 0, 60, 49
1, 649902, Note_on_c, 0, 55, 48
1, 649904, Control_c, 0, 64, 88
1, 649909, Note_on_c, 0, 64, 46
1, 649919, Control_c, 0, 64, 85
1, 649931, Note_off_c, 0, 55, 53
1, 649934, Control_c, 0, 64, 79
1, 649934, Note_off_c, 0, 60, 64
1, 649935, Note_off_c, 0, 64, 59
1, 649949, Control_c, 0, 64, 73
1, 649951, Note_on_c, 0, 67, 4
1, 649964, Control_c, 0, 64, 66
1, 649979, Control_c, 0, 64, 60
1, 649994, Control_c, 0, 64, 49
1, 650004, Note_off_c, 0, 67, 26
1, 650009, Control_c, 0, 64, 21
1, 650023, Control_c, 0, 64, 0
1, 650060, Note_off_c, 0, 79, 56
1, 650075, Note_on_c, 0, 55, 47
1, 650077, Note_on_c, 0, 77, 65
1, 650080, Note_on_c, 0, 58, 60
1, 650085, Note_on_c, 0, 63, 56
1, 650100, Note_on_c, 0, 73, 53
1, 650114, Note_off_c, 0, 63, 62
1, 650115, Note_off_c, 0, 58, 62
1, 650137, Note_off_c, 0, 55, 56
1, 650209, Note_off_c, 0, 73, 60
1, 650238, Note_off_c, 0, 77, 63
1, 650248, Note_on_c, 0, 63, 47
1, 650249, Note_on_c, 0, 79, 70
1, 650252, Note_on_c, 0, 58, 42
1, 650254, Note_on_c, 0, 70, 60
1, 650269, Note_on_c, 0, 55, 25
1, 650281, Note_off_c, 0, 58, 56
1, 650288, Note_off_c, 0, 63, 60
1, 650309, Note_off_c, 0, 55, 42
1, 650375, Note_off_c, 0, 70, 54
1, 650391, Note_off_c, 0, 79, 60
1, 650414, Note_on_c, 0, 56, 58
1, 650417, Note_on_c, 0, 60, 60
1, 650424, Note_on_c, 0, 80, 63
1, 650425, Note_on_c, 0, 65, 57
1, 650428, Note_on_c, 0, 77, 56
1, 650449, Note_off_c, 0, 60, 65
1, 650453, Note_off_c, 0, 56, 62
1, 650457, Note_off_c, 0, 65, 65
1, 650551, Note_off_c, 0, 77, 49
1, 650599, Note_on_c, 0, 82, 77
1, 650599, Note_off_c, 0, 80, 62
1, 650601, Note_on_c, 0, 65, 52
1, 650602, Note_on_c, 0, 56, 55
1, 650603, Note_on_c, 0, 73, 63
1, 650615, Note_on_c, 0, 60, 40
1, 650636, Note_off_c, 0, 65, 62
1, 650638, Note_off_c, 0, 56, 62
1, 650643, Note_off_c, 0, 60, 55
1, 650646, Note_off_c, 0, 73, 57
1, 650736, Note_off_c, 0, 82, 63
1, 650766, Note_on_c, 0, 84, 74
1, 650769, Note_on_c, 0, 58, 62
1, 650772, Note_on_c, 0, 67, 62
1, 650778, Note_on_c, 0, 61, 59
1, 650783, Note_on_c, 0, 80, 62
1, 650801, Note_off_c, 0, 58, 62
1, 650803, Note_off_c, 0, 67, 62
1, 650814, Note_off_c, 0, 61, 60
1, 650911, Note_off_c, 0, 84, 63
1, 650933, Note_off_c, 0, 80, 60
1, 650936, Note_on_c, 0, 58, 62
1, 650942, Note_on_c, 0, 67, 61
1, 650943, Note_on_c, 0, 85, 76
1, 650945, Note_on_c, 0, 77, 69
1, 650953, Note_on_c, 0, 61, 47
1, 650967, Note_off_c, 0, 58, 65
1, 650978, Note_off_c, 0, 67, 58
1, 650981, Note_off_c, 0, 61, 54
1, 651065, Note_off_c, 0, 77, 37
1, 651110, Note_on_c, 0, 87, 85
1, 651114, Note_on_c, 0, 65, 72
1, 651120, Note_on_c, 0, 62, 61
1, 651121, Note_on_c, 0, 71, 65
1, 651122, Note_on_c, 0, 83, 69
1, 651138, Note_off_c, 0, 85, 62
1, 651147, Note_off_c, 0, 65, 64
1, 651153, Note_off_c, 0, 71, 61
1, 651153, Note_off_c, 0, 62, 61
1, 651168, Note_off_c, 0, 83, 56
1, 651232, Control_c, 0, 67, 125
1, 651247, Control_c, 0, 67, 123
1, 651262, Control_c, 0, 67, 122
1, 651266, Note_off_c, 0, 87, 65
1, 651275, Note_on_c, 0, 92, 86
1, 651276, Control_c, 0, 67, 121
1, 651277, Note_on_c, 0, 71, 61
1, 651277, Note_on_c, 0, 80, 82
1, 651282, Note_on_c, 0, 62, 53
1, 651284, Note_on_c, 0, 65, 53
1, 651291, Control_c, 0, 67, 121
1, 651308, Note_off_c, 0, 65, 61
1, 651311, Note_off_c, 0, 71, 59
1, 651323, Note_off_c, 0, 62, 63
1, 651353, Note_off_c, 0, 92, 59
1, 651358, Control_c, 0, 67, 121
1, 651422, Note_off_c, 0, 80, 62
1, 651432, Control_c, 0, 67, 121
1, 651460, Note_on_c, 0, 91, 95
1, 651461, Control_c, 0, 67, 120
1, 651464, Note_on_c, 0, 84, 78
1, 651467, Note_on_c, 0, 72, 65
1, 651468, Note_on_c, 0, 64, 61
1, 651469, Note_on_c, 0, 67, 62
1, 651475, Control_c, 0, 67, 120
1, 651490, Control_c, 0, 67, 119
1, 651505, Control_c, 0, 64, 51
1, 651505, Control_c, 0, 67, 118
1, 651520, Control_c, 0, 64, 64
1, 651520, Control_c, 0, 67, 115
1, 651535, Control_c, 0, 64, 69
1, 651535, Control_c, 0, 67, 113
1, 651550, Control_c, 0, 64, 74
1, 651550, Control_c, 0, 67, 109
1, 651565, Control_c, 0, 64, 78
1, 651565, Control_c, 0, 67, 106
1, 651579, Control_c, 0, 64, 82
1, 651579, Control_c, 0, 67, 104
1, 651594, Control_c, 0, 64, 85
1, 651594, Control_c, 0, 67, 101
1, 651600, Note_off_c, 0, 64, 60
1, 651609, Control_c, 0, 64, 87
1, 651609, Control_c, 0, 67, 99
1, 651624, Control_c, 0, 64, 89
1, 651624, Control_c, 0, 67, 97
1, 651637, Note_on_c, 0, 78, 68
1, 651639, Control_c, 0, 64, 91
1, 651639, Control_c, 0, 67, 94
1, 651645, Note_on_c, 0, 63, 56
1, 651654, Control_c, 0, 64, 93
1, 651654, Control_c, 0, 67, 90
1, 651669, Control_c, 0, 64, 95
1, 651669, Control_c, 0, 67, 86
1, 651683, Control_c, 0, 64, 96
1, 651683, Control_c, 0, 67, 82
1, 651698, Control_c, 0, 64, 97
1, 651698, Control_c, 0, 67, 78
1, 651700, Note_off_c, 0, 67, 37
1, 651700, Note_off_c, 0, 78, 55
1, 651711, Note_off_c, 0, 63, 50
1, 651713, Control_c, 0, 64, 98
1, 651713, Control_c, 0, 67, 74
1, 651714, Note_off_c, 0, 72, 40
1, 651728, Control_c, 0, 64, 100
1, 651728, Control_c, 0, 67, 70
1, 651743, Control_c, 0, 64, 101
1, 651743, Control_c, 0, 67, 66
1, 651757, Control_c, 0, 64, 102
1, 651757, Control_c, 0, 67, 62
1, 651772, Control_c, 0, 64, 103
1, 651772, Control_c, 0, 67, 59
1, 651787, Control_c, 0, 64, 104
1, 651787, Control_c, 0, 67, 56
1, 651801, Control_c, 0, 64, 106
1, 651801, Control_c, 0, 67, 53
1, 651809, Note_on_c, 0, 79, 72
1, 651811, Note_on_c, 0, 67, 60
1, 651812, Note_on_c, 0, 72, 59
1, 651812, Note_off_c, 0, 91, 59
1, 651815, Note_on_c, 0, 64, 60
1, 651816, Control_c, 0, 64, 109
1, 651816, Control_c, 0, 67, 50
1, 651827, Note_off_c, 0, 84, 32
1, 651831, Control_c, 0, 64, 113
1, 651831, Control_c, 0, 67, 48
1, 651846, Control_c, 0, 64, 117
1, 651846, Control_c, 0, 67, 45
1, 651848, Note_off_c, 0, 79, 59
1, 651851, Note_off_c, 0, 64, 61
1, 651851, Note_off_c, 0, 72, 60
1, 651861, Control_c, 0, 64, 122
1, 651861, Control_c, 0, 67, 43
1, 651862, Note_off_c, 0, 67, 52
1, 651875, Control_c, 0, 64, 127
1, 651875, Control_c, 0, 67, 41
1, 651890, Control_c, 0, 67, 38
1, 651905, Control_c, 0, 67, 35
1, 651920, Control_c, 0, 67, 31
1, 651935, Control_c, 0, 67, 25
1, 651951, Control_c, 0, 67, 17
1, 651965, Control_c, 0, 67, 9
1, 651979, Note_on_c, 0, 76, 75
1, 651980, Control_c, 0, 67, 0
1, 651981, Note_on_c, 0, 72, 56
1, 651987, Note_on_c, 0, 67, 62
1, 651988, Note_on_c, 0, 64, 50
1, 652003, Note_off_c, 0, 76, 66
1, 652021, Note_off_c, 0, 67, 61
1, 652021, Note_off_c, 0, 64, 53
1, 652021, Note_off_c, 0, 72, 51
1, 652151, Control_c, 0, 64, 99
1, 652165, Note_on_c, 0, 92, 100
1, 652166, Control_c, 0, 64, 77
1, 652172, Note_on_c, 0, 72, 61
1, 652173, Note_on_c, 0, 84, 83
1, 652177, Note_on_c, 0, 67, 59
1, 652179, Note_on_c, 0, 64, 64
1, 652180, Control_c, 0, 64, 53
1, 652195, Control_c, 0, 64, 0
1, 652198, Note_on_c, 0, 86, 41
1, 652228, Note_off_c, 0, 86, 52
1, 652284, Control_c, 0, 64, 64
1, 652298, Control_c, 0, 64, 75
1, 652313, Control_c, 0, 64, 87
1, 652328, Control_c, 0, 64, 102
1, 652332, Note_off_c, 0, 64, 58
1, 652343, Control_c, 0, 64, 118
1, 652346, Note_on_c, 0, 78, 81
1, 652349, Note_on_c, 0, 63, 62
1, 652358, Control_c, 0, 64, 127
1, 652359, Note_off_c, 0, 84, 56
1, 652384, Note_off_c, 0, 72, 37
1, 652393, Note_off_c, 0, 67, 43
1, 652416, Note_off_c, 0, 78, 64
1, 652429, Note_off_c, 0, 63, 58
1, 652480, Note_off_c, 0, 92, 63
1, 652508, Note_on_c, 0, 79, 82
1, 652514, Note_on_c, 0, 72, 63
1, 652515, Note_on_c, 0, 67, 63
1, 652521, Note_on_c, 0, 64, 63
1, 652585, Note_off_c, 0, 72, 51
1, 652591, Note_off_c, 0, 64, 39
1, 652621, Note_off_c, 0, 67, 36
1, 652673, Note_on_c, 0, 84, 95
1, 652673, Note_on_c, 0, 93, 104
1, 652676, Note_on_c, 0, 67, 50
1, 652680, Note_on_c, 0, 64, 53
1, 652688, Note_on_c, 0, 72, 64
1, 652702, Note_on_c, 0, 85, 49
1, 652703, Note_off_c, 0, 85, 127
1, 652707, Note_off_c, 0, 84, 65
1, 652714, Note_off_c, 0, 64, 64
1, 652714, Note_off_c, 0, 67, 62
1, 652754, Note_off_c, 0, 72, 58
1, 652757, Note_off_c, 0, 93, 66
1, 652774, Control_c, 0, 67, 8
1, 652788, Control_c, 0, 67, 9
1, 652803, Control_c, 0, 67, 10
1, 652826, Control_c, 0, 67, 11
1, 652840, Control_c, 0, 67, 12
1, 652855, Control_c, 0, 67, 15
1, 652870, Control_c, 0, 67, 17
1, 652880, Note_on_c, 0, 94, 100
1, 652885, Control_c, 0, 67, 19
1, 652889, Note_on_c, 0, 74, 77
1, 652889, Note_on_c, 0, 86, 84
1, 652890, Note_on_c, 0, 65, 66
1, 652900, Control_c, 0, 64, 98
1, 652900, Control_c, 0, 67, 21
1, 652915, Control_c, 0, 64, 75
1, 652915, Control_c, 0, 67, 22
1, 652929, Control_c, 0, 64, 51
1, 652929, Control_c, 0, 67, 24
1, 652943, Note_off_c, 0, 79, 58
1, 652944, Control_c, 0, 64, 0
1, 652944, Control_c, 0, 67, 27
1, 652959, Control_c, 0, 67, 28
1, 652968, Poly_aftertouch_c, 0, 70, 127
1, 652974, Control_c, 0, 67, 30
1, 652989, Control_c, 0, 67, 33
1, 653003, Control_c, 0, 67, 36
1, 653018, Control_c, 0, 67, 40
1, 653033, Control_c, 0, 67, 44
1, 653047, Control_c, 0, 64, 45
1, 653047, Control_c, 0, 67, 49
1, 653060, Note_on_c, 0, 66, 66
1, 653062, Control_c, 0, 64, 66
1, 653062, Control_c, 0, 67, 51
1, 653064, Note_on_c, 0, 81, 75
1, 653077, Control_c, 0, 64, 73
1, 653077, Control_c, 0, 67, 54
1, 653088, Note_off_c, 0, 65, 60
1, 653092, Control_c, 0, 64, 80
1, 653092, Control_c, 0, 67, 56
1, 653107, Control_c, 0, 64, 86
1, 653107, Control_c, 0, 67, 58
1, 653118, Note_off_c, 0, 81, 64
1, 653121, Control_c, 0, 64, 90
1, 653121, Control_c, 0, 67, 59
1, 653136, Control_c, 0, 64, 94
1, 653136, Control_c, 0, 67, 60
1, 653151, Control_c, 0, 64, 99
1, 653151, Control_c, 0, 67, 62
1, 653158, Poly_aftertouch_c, 0, 70, 0
1, 653166, Control_c, 0, 64, 102
1, 653166, Control_c, 0, 67, 62
1, 653181, Control_c, 0, 64, 104
1, 653181, Control_c, 0, 67, 63
1, 653195, Control_c, 0, 64, 104
1, 653195, Control_c, 0, 67, 64
1, 653204, Note_off_c, 0, 94, 64
1, 653210, Control_c, 0, 67, 65
1, 653225, Control_c, 0, 67, 66
1, 653230, Note_on_c, 0, 65, 64
1, 653240, Control_c, 0, 67, 66
1, 653247, Note_on_c, 0, 82, 76
1, 653255, Note_off_c, 0, 66, 56
1, 653279, Note_off_c, 0, 74, 53
1, 653284, Note_off_c, 0, 82, 60
1, 653302, Note_off_c, 0, 65, 59
1, 653325, Note_off_c, 0, 86, 56
1, 653405, Note_on_c, 0, 89, 96
1, 653407, Note_on_c, 0, 74, 65
1, 653412, Note_on_c, 0, 65, 61
1, 653415, Note_on_c, 0, 70, 63
1, 653418, Control_c, 0, 67, 67
1, 653423, Note_on_c, 0, 77, 72
1, 653433, Control_c, 0, 67, 67
1, 653445, Note_off_c, 0, 70, 65
1, 653445, Note_off_c, 0, 65, 63
1, 653460, Note_off_c, 0, 74, 49
1, 653462, Control_c, 0, 67, 68
1, 653477, Control_c, 0, 67, 69
1, 653492, Control_c, 0, 67, 71
1, 653494, Note_off_c, 0, 77, 0
1, 653507, Control_c, 0, 67, 73
1, 653521, Control_c, 0, 67, 74
1, 653531, Poly_aftertouch_c, 0, 77, 127
1, 653536, Control_c, 0, 67, 75
1, 653552, Control_c, 0, 67, 76
1, 653574, Control_c, 0, 64, 104
1, 653574, Control_c, 0, 67, 78
1, 653589, Control_c, 0, 64, 101
1, 653589, Control_c, 0, 67, 79
1, 653599, Note_on_c, 0, 86, 84
1, 653604, Control_c, 0, 64, 90
1, 653604, Control_c, 0, 67, 80
1, 653609, Note_on_c, 0, 74, 55
1, 653611, Poly_aftertouch_c, 0, 77, 0
1, 653616, Note_on_c, 0, 82, 71
1, 653619, Control_c, 0, 64, 73
1, 653619, Control_c, 0, 67, 82
1, 653623, Note_on_c, 0, 65, 52
1, 653624, Note_on_c, 0, 70, 55
1, 653633, Control_c, 0, 64, 45
1, 653633, Control_c, 0, 67, 84
1, 653648, Control_c, 0, 64, 0
1, 653648, Control_c, 0, 67, 86
1, 653663, Control_c, 0, 67, 87
1, 653678, Control_c, 0, 67, 88
1, 653693, Control_c, 0, 67, 89
1, 653708, Control_c, 0, 67, 90
1, 653723, Control_c, 0, 67, 90
1, 653738, Control_c, 0, 67, 92
1, 653753, Control_c, 0, 64, 49
1, 653753, Control_c, 0, 67, 92
1, 653764, Note_off_c, 0, 65, 59
1, 653767, Control_c, 0, 64, 65
1, 653767, Control_c, 0, 67, 93
1, 653768, Note_off_c, 0, 82, 59
1, 653782, Control_c, 0, 64, 70
1, 653782, Control_c, 0, 67, 93
1, 653789, Note_on_c, 0, 81, 59
1, 653793, Note_on_c, 0, 66, 57
1, 653797, Control_c, 0, 64, 75
1, 653812, Control_c, 0, 64, 81
1, 653812, Control_c, 0, 67, 94
1, 653827, Control_c, 0, 64, 84
1, 653842, Control_c, 0, 64, 87
1, 653842, Control_c, 0, 67, 94
1, 653857, Control_c, 0, 64, 89
1, 653871, Control_c, 0, 64, 90
1, 653886, Control_c, 0, 64, 90
1, 653916, Control_c, 0, 64, 91
1, 653940, Note_off_c, 0, 81, 60
1, 653957, Note_on_c, 0, 82, 65
1, 653957, Note_off_c, 0, 89, 58
1, 653969, Note_on_c, 0, 65, 46
1, 653990, Note_off_c, 0, 74, 52
1, 654003, Note_off_c, 0, 70, 50
1, 654007, Note_off_c, 0, 66, 32
1, 654017, Note_off_c, 0, 65, 59
1, 654064, Control_c, 0, 67, 95
1, 654093, Control_c, 0, 67, 95
1, 654101, Note_off_c, 0, 82, 62
1, 654108, Control_c, 0, 67, 96
1, 654125, Note_on_c, 0, 65, 58
1, 654128, Note_on_c, 0, 89, 79
1, 654138, Note_on_c, 0, 77, 56
1, 654138, Control_c, 0, 67, 97
1, 654140, Note_on_c, 0, 74, 47
1, 654152, Control_c, 0, 67, 99
1, 654154, Note_off_c, 0, 65, 65
1, 654164, Note_off_c, 0, 74, 60
1, 654164, Note_off_c, 0, 77, 56
1, 654167, Control_c, 0, 67, 101
1, 654182, Control_c, 0, 67, 103
1, 654197, Control_c, 0, 67, 105
1, 654212, Control_c, 0, 67, 106
1, 654227, Control_c, 0, 67, 108
1, 654241, Control_c, 0, 67, 109
1, 654256, Control_c, 0, 64, 90
1, 654256, Control_c, 0, 67, 111
1, 654271, Control_c, 0, 64, 88
1, 654271, Control_c, 0, 67, 112
1, 654286, Control_c, 0, 64, 81
1, 654286, Control_c, 0, 67, 114
1, 654301, Control_c, 0, 64, 72
1, 654301, Control_c, 0, 67, 115
1, 654320, Note_on_c, 0, 69, 52
1, 654323, Control_c, 0, 64, 61
1, 654323, Control_c, 0, 67, 117
1, 654324, Note_on_c, 0, 85, 72
1, 654332, Note_on_c, 0, 63, 53
1, 654336, Note_on_c, 0, 73, 50
1, 654338, Control_c, 0, 64, 0
1, 654338, Control_c, 0, 67, 118
1, 654345, Note_on_c, 0, 81, 52
1, 654352, Note_off_c, 0, 86, 60
1, 654354, Control_c, 0, 67, 120
1, 654369, Control_c, 0, 67, 121
1, 654373, Note_off_c, 0, 89, 34
1, 654383, Control_c, 0, 67, 121
1, 654398, Control_c, 0, 67, 122
1, 654413, Control_c, 0, 67, 122
1, 654487, Control_c, 0, 64, 39
1, 654489, Note_off_c, 0, 63, 53
1, 654501, Control_c, 0, 64, 52
1, 654506, Note_on_c, 0, 76, 58
1, 654507, Note_on_c, 0, 62, 45
1, 654516, Control_c, 0, 64, 58
1, 654531, Control_c, 0, 64, 61
1, 654546, Control_c, 0, 64, 63
1, 654561, Control_c, 0, 64, 64
1, 654570, Note_off_c, 0, 76, 52
1, 654575, Control_c, 0, 64, 65
1, 654590, Control_c, 0, 64, 67
1, 654590, Control_c, 0, 67, 123
1, 654605, Control_c, 0, 64, 68
1, 654620, Control_c, 0, 64, 69
1, 654635, Control_c, 0, 64, 69
1, 654669, Note_off_c, 0, 81, 60
1, 654677, Note_off_c, 0, 62, 60
1, 654690, Note_on_c, 0, 63, 53
1, 654694, Control_c, 0, 64, 68
1, 654698, Note_on_c, 0, 77, 54
1, 654709, Control_c, 0, 64, 68
1, 654709, Control_c, 0, 67, 123
1, 654718, Note_off_c, 0, 69, 57
1, 654724, Control_c, 0, 64, 67
1, 654724, Note_off_c, 0, 63, 63
1, 654726, Note_off_c, 0, 73, 58
1, 654734, Note_off_c, 0, 77, 53
1, 654739, Control_c, 0, 64, 66
1, 654739, Control_c, 0, 67, 124
1, 654754, Control_c, 0, 64, 65
1, 654754, Control_c, 0, 67, 125
1, 654768, Control_c, 0, 64, 65
1, 654768, Control_c, 0, 67, 127
1, 654783, Control_c, 0, 64, 64
1, 654783, Control_c, 0, 67, 127
1, 654798, Control_c, 0, 64, 64
1, 654827, Control_c, 0, 64, 63
1, 654857, Control_c, 0, 64, 63
1, 654862, Note_off_c, 0, 85, 63
1, 654870, Note_on_c, 0, 89, 68
1, 654873, Note_on_c, 0, 63, 56
1, 654873, Note_on_c, 0, 73, 51
1, 654876, Note_on_c, 0, 69, 49
1, 654879, Note_on_c, 0, 81, 53
1, 654901, Control_c, 0, 64, 62
1, 654907, Note_off_c, 0, 73, 59
1, 654909, Note_off_c, 0, 63, 62
1, 654911, Note_off_c, 0, 69, 55
1, 654990, Control_c, 0, 64, 63
1, 655034, Control_c, 0, 64, 63
1, 655079, Note_on_c, 0, 63, 51
1, 655085, Note_off_c, 0, 81, 58
1, 655087, Note_on_c, 0, 85, 63
1, 655090, Note_on_c, 0, 73, 43
1, 655095, Note_on_c, 0, 69, 31
1, 655103, Note_on_c, 0, 77, 51
1, 655146, Note_off_c, 0, 77, 49
1, 655147, Control_c, 0, 64, 64
1, 655162, Control_c, 0, 64, 64
1, 655177, Control_c, 0, 64, 65
1, 655192, Control_c, 0, 64, 66
1, 655204, Control_c, 0, 64, 67
1, 655219, Control_c, 0, 64, 68
1, 655234, Control_c, 0, 64, 69
1, 655249, Control_c, 0, 64, 70
1, 655259, Note_on_c, 0, 62, 47
1, 655264, Control_c, 0, 64, 70
1, 655265, Note_on_c, 0, 76, 56
1, 655279, Control_c, 0, 64, 71
1, 655292, Note_off_c, 0, 63, 38
1, 655309, Control_c, 0, 64, 71
1, 655331, Note_off_c, 0, 76, 45
1, 655353, Control_c, 0, 64, 72
1, 655422, Note_off_c, 0, 89, 14
1, 655427, Control_c, 0, 64, 71
1, 655429, Note_off_c, 0, 62, 60
1, 655437, Note_on_c, 0, 63, 63
1, 655441, Control_c, 0, 64, 69
1, 655456, Control_c, 0, 64, 66
1, 655460, Note_on_c, 0, 77, 57
1, 655471, Control_c, 0, 64, 62
1, 655486, Control_c, 0, 64, 55
1, 655489, Note_off_c, 0, 69, 43
1, 655493, Note_off_c, 0, 73, 59
1, 655495, Note_off_c, 0, 63, 60
1, 655501, Control_c, 0, 64, 43
1, 655515, Control_c, 0, 64, 29
1, 655530, Control_c, 0, 64, 24
1, 655535, Note_off_c, 0, 77, 39
1, 655545, Control_c, 0, 64, 23
1, 655575, Control_c, 0, 64, 24
1, 655589, Control_c, 0, 64, 32
1, 655604, Control_c, 0, 64, 38
1, 655616, Note_off_c, 0, 85, 63
1, 655619, Note_on_c, 0, 89, 71
1, 655619, Control_c, 0, 64, 44
1, 655622, Note_on_c, 0, 63, 60
1, 655632, Note_on_c, 0, 73, 47
1, 655634, Control_c, 0, 64, 46
1, 655640, Note_on_c, 0, 69, 37
1, 655648, Control_c, 0, 64, 47
1, 655651, Note_on_c, 0, 81, 35
1, 655657, Note_off_c, 0, 63, 60
1, 655657, Note_off_c, 0, 73, 58
1, 655663, Control_c, 0, 64, 49
1, 655671, Note_off_c, 0, 69, 56
1, 655678, Control_c, 0, 64, 50
1, 655693, Control_c, 0, 64, 51
1, 655708, Note_off_c, 0, 81, 0
1, 655708, Note_on_c, 0, 81, 12
1, 655723, Control_c, 0, 64, 51
1, 655738, Control_c, 0, 64, 52
1, 655753, Control_c, 0, 64, 53
1, 655768, Control_c, 0, 64, 53
1, 655782, Control_c, 0, 64, 54
1, 655797, Control_c, 0, 64, 54
1, 655825, Note_on_c, 0, 63, 57
1, 655833, Note_on_c, 0, 69, 40
1, 655836, Note_on_c, 0, 73, 44
1, 655838, Note_off_c, 0, 81, 59
1, 655842, Note_on_c, 0, 85, 60
1, 655843, Note_off_c, 0, 89, 58
1, 655845, Note_on_c, 0, 77, 50
1, 655848, Control_c, 0, 64, 52
1, 655863, Control_c, 0, 64, 46
1, 655878, Control_c, 0, 64, 34
1, 655893, Control_c, 0, 64, 0
1, 656033, Note_on_c, 0, 89, 56
1, 656102, Control_c, 0, 64, 29
1, 656116, Control_c, 0, 64, 43
1, 656131, Control_c, 0, 64, 50
1, 656146, Control_c, 0, 64, 54
1, 656161, Control_c, 0, 64, 57
1, 656176, Control_c, 0, 64, 58
1, 656191, Control_c, 0, 64, 59
1, 656197, Note_on_c, 0, 65, 71
1, 656204, Note_off_c, 0, 77, 46
1, 656206, Control_c, 0, 64, 59
1, 656219, Note_on_c, 0, 84, 58
1, 656220, Control_c, 0, 64, 60
1, 656223, Note_off_c, 0, 73, 59
1, 656235, Control_c, 0, 64, 60
1, 656245, Note_off_c, 0, 69, 58
1, 656250, Control_c, 0, 64, 61
1, 656264, Control_c, 0, 64, 62
1, 656269, Note_off_c, 0, 89, 47
1, 656279, Control_c, 0, 64, 63
1, 656309, Control_c, 0, 64, 63
1, 656360, Note_off_c, 0, 85, 61
1, 656362, Note_off_c, 0, 63, 37
1, 656371, Note_off_c, 0, 84, 59
1, 656399, Note_on_c, 0, 77, 61
1, 656501, Control_c, 0, 64, 64
1, 656587, Note_off_c, 0, 77, 60
1, 656594, Note_on_c, 0, 69, 73
1, 656602, Note_on_c, 0, 73, 58
1, 656642, Control_c, 0, 64, 63
1, 656667, Note_off_c, 0, 65, 62
1, 656686, Control_c, 0, 64, 63
1, 656732, Control_c, 0, 64, 62
1, 656810, Note_off_c, 0, 73, 56
1, 656823, Note_on_c, 0, 72, 44
1, 656925, Control_c, 0, 64, 62
1, 656969, Control_c, 0, 64, 61
1, 656999, Control_c, 0, 64, 61
1, 657014, Control_c, 0, 64, 60
1, 657029, Control_c, 0, 64, 59
1, 657032, Note_on_c, 0, 73, 56
1, 657037, Note_on_c, 0, 70, 56
1, 657043, Control_c, 0, 64, 58
1, 657058, Control_c, 0, 64, 57
1, 657061, Note_off_c, 0, 72, 48
1, 657073, Control_c, 0, 64, 56
1, 657088, Control_c, 0, 64, 54
1, 657103, Control_c, 0, 64, 50
1, 657118, Control_c, 0, 64, 44
1, 657120, Note_off_c, 0, 69, 48
1, 657133, Control_c, 0, 64, 36
1, 657148, Control_c, 0, 64, 27
1, 657162, Control_c, 0, 64, 19
1, 657177, Control_c, 0, 64, 0
1, 657222, Note_off_c, 0, 73, 61
1, 657234, Note_on_c, 0, 77, 55
1, 657244, Note_on_c, 0, 68, 55
1, 657258, Note_off_c, 0, 70, 56
1, 657417, Note_off_c, 0, 68, 54
1, 657417, Note_off_c, 0, 77, 63
1, 657431, Note_on_c, 0, 79, 66
1, 657436, Control_c, 0, 64, 38
1, 657438, Note_on_c, 0, 67, 57
1, 657446, Note_on_c, 0, 74, 48
1, 657450, Control_c, 0, 64, 60
1, 657452, Note_on_c, 0, 75, 49
1, 657458, Note_on_c, 0, 70, 47
1, 657465, Control_c, 0, 64, 65
1, 657480, Control_c, 0, 64, 67
1, 657491, Note_off_c, 0, 74, 63
1, 657494, Control_c, 0, 64, 69
1, 657509, Control_c, 0, 64, 70
1, 657524, Control_c, 0, 64, 71
1, 657540, Control_c, 0, 64, 72
1, 657547, Note_off_c, 0, 70, 53
1, 657548, Note_off_c, 0, 67, 53
1, 657553, Note_off_c, 0, 75, 49
1, 657600, Note_off_c, 0, 79, 55
1, 657609, Note_on_c, 0, 72, 66
1, 657611, Note_on_c, 0, 80, 74
1, 657613, Note_on_c, 0, 68, 65
1, 657614, Control_c, 0, 64, 71
1, 657624, Note_on_c, 0, 65, 40
1, 657656, Note_off_c, 0, 65, 59
1, 657658, Control_c, 0, 67, 127
1, 657673, Control_c, 0, 67, 125
1, 657688, Control_c, 0, 67, 123
1, 657703, Control_c, 0, 64, 71
1, 657703, Control_c, 0, 67, 119
1, 657709, Note_off_c, 0, 68, 60
1, 657717, Control_c, 0, 64, 70
1, 657717, Control_c, 0, 67, 115
1, 657732, Control_c, 0, 64, 68
1, 657732, Control_c, 0, 67, 107
1, 657747, Control_c, 0, 64, 65
1, 657747, Control_c, 0, 67, 101
1, 657762, Control_c, 0, 64, 63
1, 657762, Control_c, 0, 67, 96
1, 657765, Note_off_c, 0, 80, 59
1, 657775, Note_on_c, 0, 82, 78
1, 657777, Control_c, 0, 64, 60
1, 657777, Control_c, 0, 67, 93
1, 657782, Note_on_c, 0, 67, 72
1, 657783, Note_off_c, 0, 72, 57
1, 657784, Note_on_c, 0, 63, 72
1, 657785, Note_on_c, 0, 70, 67
1, 657792, Note_on_c, 0, 79, 74
1, 657792, Control_c, 0, 64, 57
1, 657792, Control_c, 0, 67, 90
1, 657807, Control_c, 0, 64, 55
1, 657807, Control_c, 0, 67, 88
1, 657817, Note_off_c, 0, 63, 61
1, 657819, Note_off_c, 0, 67, 61
1, 657822, Control_c, 0, 67, 85
1, 657836, Control_c, 0, 67, 84
1, 657840, Note_off_c, 0, 70, 47
1, 657851, Control_c, 0, 64, 56
1, 657851, Control_c, 0, 67, 83
1, 657866, Control_c, 0, 64, 56
1, 657896, Control_c, 0, 67, 82
1, 657910, Control_c, 0, 67, 82
1, 657925, Control_c, 0, 67, 81
1, 657940, Control_c, 0, 64, 56
1, 657940, Control_c, 0, 67, 80
1, 657947, Note_on_c, 0, 70, 71
1, 657955, Control_c, 0, 67, 80
1, 657956, Note_off_c, 0, 79, 62
1, 657956, Note_on_c, 0, 63, 67
1, 657956, Note_on_c, 0, 84, 81
1, 657962, Note_on_c, 0, 67, 60
1, 657969, Note_off_c, 0, 82, 45
1, 657970, Control_c, 0, 67, 79
1, 657971, Note_off_c, 0, 70, 68
1, 657977, Note_on_c, 0, 75, 59
1, 657982, Note_off_c, 0, 67, 62
1, 657984, Control_c, 0, 67, 78
1, 657995, Note_off_c, 0, 63, 59
1, 657999, Control_c, 0, 67, 78
1, 658009, Note_off_c, 0, 75, 62
1, 658029, Control_c, 0, 67, 77
1, 658066, Control_c, 0, 67, 77
1, 658081, Control_c, 0, 67, 76
1, 658096, Control_c, 0, 67, 75
1, 658111, Control_c, 0, 64, 55
1, 658111, Control_c, 0, 67, 73
1, 658111, Note_off_c, 0, 84, 63
1, 658125, Control_c, 0, 64, 55
1, 658125, Control_c, 0, 67, 72
1, 658130, Note_on_c, 0, 85, 77
1, 658133, Note_on_c, 0, 61, 69
1, 658140, Control_c, 0, 67, 70
1, 658140, Note_on_c, 0, 82, 74
1, 658146, Note_on_c, 0, 68, 60
1, 658155, Control_c, 0, 67, 68
1, 658158, Note_on_c, 0, 65, 46
1, 658169, Control_c, 0, 67, 66
1, 658184, Control_c, 0, 64, 55
1, 658184, Control_c, 0, 67, 66
1, 658199, Control_c, 0, 64, 56
1, 658199, Control_c, 0, 67, 65
1, 658214, Control_c, 0, 64, 56
1, 658229, Control_c, 0, 64, 57
1, 658243, Control_c, 0, 64, 57
1, 658245, Note_off_c, 0, 68, 53
1, 658258, Control_c, 0, 67, 67
1, 658263, Note_off_c, 0, 65, 59
1, 658273, Control_c, 0, 67, 69
1, 658288, Control_c, 0, 67, 70
1, 658292, Note_off_c, 0, 82, 62
1, 658302, Note_off_c, 0, 61, 35
1, 658303, Control_c, 0, 67, 72
1, 658306, Note_on_c, 0, 87, 75
1, 658308, Note_on_c, 0, 63, 59
1, 658313, Note_on_c, 0, 67, 70
1, 658317, Control_c, 0, 64, 57
1, 658317, Control_c, 0, 67, 74
1, 658320, Note_on_c, 0, 60, 58
1, 658333, Note_on_c, 0, 79, 66
1, 658333, Control_c, 0, 64, 56
1, 658333, Control_c, 0, 67, 75
1, 658348, Control_c, 0, 67, 76
1, 658353, Note_off_c, 0, 85, 58
1, 658356, Note_off_c, 0, 63, 53
1, 658363, Control_c, 0, 64, 56
1, 658363, Control_c, 0, 67, 77
1, 658378, Control_c, 0, 64, 55
1, 658378, Control_c, 0, 67, 77
1, 658383, Note_off_c, 0, 67, 57
1, 658393, Control_c, 0, 64, 54
1, 658393, Control_c, 0, 67, 78
1, 658407, Control_c, 0, 64, 53
1, 658407, Control_c, 0, 67, 79
1, 658412, Note_off_c, 0, 60, 63
1, 658422, Control_c, 0, 64, 52
1, 658422, Control_c, 0, 67, 80
1, 658437, Control_c, 0, 64, 51
1, 658437, Control_c, 0, 67, 81
1, 658452, Control_c, 0, 64, 50
1, 658452, Control_c, 0, 67, 82
1, 658466, Control_c, 0, 64, 49
1, 658466, Control_c, 0, 67, 84
1, 658481, Control_c, 0, 64, 45
1, 658481, Control_c, 0, 67, 85
1, 658488, Note_on_c, 0, 89, 76
1, 658491, Note_on_c, 0, 61, 71
1, 658492, Note_off_c, 0, 87, 65
1, 658494, Note_on_c, 0, 65, 61
1, 658496, Control_c, 0, 64, 40
1, 658496, Control_c, 0, 67, 86
1, 658499, Note_on_c, 0, 58, 60
1, 658503, Note_off_c, 0, 79, 59
1, 658510, Note_on_c, 0, 85, 56
1, 658511, Control_c, 0, 64, 29
1, 658511, Control_c, 0, 67, 87
1, 658526, Note_off_c, 0, 65, 63
1, 658526, Control_c, 0, 64, 0
1, 658526, Control_c, 0, 67, 89
1, 658530, Note_off_c, 0, 58, 63
1, 658540, Control_c, 0, 67, 91
1, 658543, Note_off_c, 0, 61, 56
1, 658555, Control_c, 0, 67, 92
1, 658570, Control_c, 0, 67, 93
1, 658585, Control_c, 0, 67, 93
1, 658600, Control_c, 0, 67, 94
1, 658614, Control_c, 0, 67, 95
1, 658629, Control_c, 0, 67, 96
1, 658644, Control_c, 0, 67, 96
1, 658650, Note_off_c, 0, 89, 59
1, 658652, Note_off_c, 0, 85, 62
1, 658659, Control_c, 0, 67, 97
1, 658668, Note_on_c, 0, 61, 53
1, 658668, Note_on_c, 0, 91, 73
1, 658670, Note_on_c, 0, 58, 56
1, 658670, Note_on_c, 0, 65, 58
1, 658674, Control_c, 0, 67, 98
1, 658677, Note_on_c, 0, 82, 68
1, 658689, Control_c, 0, 67, 98
1, 658699, Note_off_c, 0, 61, 63
1, 658701, Note_off_c, 0, 65, 65
1, 658704, Control_c, 0, 67, 100
1, 658709, Note_off_c, 0, 58, 60
1, 658719, Control_c, 0, 67, 100
1, 658792, Control_c, 0, 67, 100
1, 658814, Control_c, 0, 67, 99
1, 658829, Control_c, 0, 67, 98
1, 658858, Note_on_c, 0, 92, 79
1, 658859, Control_c, 0, 64, 64
1, 658862, Note_on_c, 0, 56, 63
1, 658874, Note_off_c, 0, 82, 63
1, 658874, Note_off_c, 0, 91, 64
1, 658874, Control_c, 0, 64, 71
1, 658877, Note_on_c, 0, 63, 50
1, 658883, Note_on_c, 0, 60, 34
1, 658889, Control_c, 0, 64, 77
1, 658889, Control_c, 0, 67, 98
1, 658889, Note_on_c, 0, 87, 46
1, 658891, Note_off_c, 0, 56, 66
1, 658899, Note_off_c, 0, 92, 64
1, 658904, Control_c, 0, 64, 83
1, 658913, Note_off_c, 0, 63, 64
1, 658916, Note_off_c, 0, 87, 56
1, 658917, Note_off_c, 0, 60, 54
1, 658918, Control_c, 0, 64, 86
1, 658933, Control_c, 0, 64, 87
1, 658948, Control_c, 0, 67, 98
1, 658963, Control_c, 0, 64, 86
1, 658978, Control_c, 0, 64, 83
1, 658978, Control_c, 0, 67, 99
1, 658992, Control_c, 0, 64, 79
1, 659007, Control_c, 0, 64, 73
1, 659007, Control_c, 0, 67, 100
1, 659022, Control_c, 0, 64, 66
1, 659026, Note_on_c, 0, 68, 65
1, 659029, Note_on_c, 0, 72, 67
1, 659037, Control_c, 0, 64, 52
1, 659052, Control_c, 0, 64, 0
1, 659053, Note_off_c, 0, 72, 68
1, 659058, Note_off_c, 0, 68, 61
1, 659066, Control_c, 0, 67, 99
1, 659081, Control_c, 0, 67, 99
1, 659096, Control_c, 0, 67, 98
1, 659111, Control_c, 0, 67, 97
1, 659126, Control_c, 0, 67, 97
1, 659142, Control_c, 0, 67, 96
1, 659157, Control_c, 0, 67, 96
1, 659193, Note_on_c, 0, 84, 82
1, 659202, Note_on_c, 0, 72, 49
1, 659203, Note_on_c, 0, 68, 66
1, 659223, Note_off_c, 0, 72, 60
1, 659227, Note_off_c, 0, 68, 66
1, 659230, Control_c, 0, 67, 95
1, 659260, Control_c, 0, 67, 95
1, 659334, Control_c, 0, 67, 95
1, 659349, Control_c, 0, 67, 96
1, 659361, Note_on_c, 0, 75, 91
1, 659366, Note_on_c, 0, 56, 72
1, 659376, Note_on_c, 0, 60, 59
1, 659389, Note_off_c, 0, 84, 63
1, 659393, Control_c, 0, 67, 96
1, 659395, Note_off_c, 0, 56, 65
1, 659407, Note_off_c, 0, 60, 65
1, 659407, Control_c, 0, 67, 97
1, 659422, Control_c, 0, 67, 97
1, 659437, Control_c, 0, 67, 98
1, 659452, Control_c, 0, 67, 99
1, 659467, Control_c, 0, 67, 99
1, 659482, Control_c, 0, 67, 100
1, 659497, Control_c, 0, 67, 100
1, 659527, Control_c, 0, 67, 101
1, 659541, Control_c, 0, 67, 101
1, 659565, Note_on_c, 0, 60, 55
1, 659567, Note_on_c, 0, 79, 89
1, 659568, Note_on_c, 0, 56, 64
1, 659596, Note_off_c, 0, 56, 66
1, 659609, Note_off_c, 0, 60, 59
1, 659697, Control_c, 0, 67, 102
1, 659712, Control_c, 0, 67, 102
1, 659727, Control_c, 0, 67, 103
1, 659730, Note_off_c, 0, 75, 64
1, 659742, Control_c, 0, 67, 105
1, 659743, Note_on_c, 0, 68, 58
1, 659743, Note_on_c, 0, 72, 59
1, 659757, Control_c, 0, 67, 107
1, 659771, Note_off_c, 0, 72, 67
1, 659771, Control_c, 0, 67, 107
1, 659777, Note_off_c, 0, 68, 63
1, 659786, Control_c, 0, 67, 108
1, 659905, Control_c, 0, 67, 109
1, 659915, Note_on_c, 0, 77, 73
1, 659920, Control_c, 0, 67, 110
1, 659920, Note_on_c, 0, 68, 63
1, 659935, Control_c, 0, 67, 111
1, 659938, Note_on_c, 0, 72, 31
1, 659947, Note_off_c, 0, 68, 65
1, 659950, Control_c, 0, 67, 114
1, 659965, Control_c, 0, 67, 117
1, 659971, Note_off_c, 0, 72, 49
1, 659980, Control_c, 0, 67, 120
1, 659995, Control_c, 0, 67, 122
1, 660009, Control_c, 0, 67, 124
1, 660015, Note_off_c, 0, 79, 59
1, 660024, Control_c, 0, 67, 126
1, 660039, Control_c, 0, 67, 127
1, 660093, Note_on_c, 0, 55, 57
1, 660102, Note_on_c, 0, 58, 49
1, 660126, Note_off_c, 0, 55, 60
1, 660127, Note_off_c, 0, 58, 59
1, 660260, Note_on_c, 0, 75, 66
1, 660267, Note_on_c, 0, 58, 55
1, 660272, Note_on_c, 0, 55, 40
1, 660302, Note_off_c, 0, 55, 57
1, 660312, Note_off_c, 0, 58, 63
1, 660446, Note_off_c, 0, 77, 29
1, 660457, Note_on_c, 0, 67, 57
1, 660460, Note_on_c, 0, 70, 56
1, 660491, Note_off_c, 0, 67, 62
1, 660492, Note_off_c, 0, 70, 64
1, 660630, Note_on_c, 0, 74, 74
1, 660639, Note_on_c, 0, 70, 53
1, 660662, Note_off_c, 0, 70, 63
1, 660743, Note_off_c, 0, 75, 62
1, 660811, Note_on_c, 0, 55, 58
1, 660817, Note_on_c, 0, 56, 47
1, 660847, Note_off_c, 0, 55, 60
1, 660849, Note_off_c, 0, 56, 57
1, 660937, Control_c, 0, 64, 37
1, 660951, Control_c, 0, 64, 61
1, 660966, Control_c, 0, 64, 65
1, 660972, Note_on_c, 0, 72, 70
1, 660975, Note_on_c, 0, 56, 56
1, 660975, Note_off_c, 0, 74, 64
1, 660981, Control_c, 0, 64, 68
1, 660996, Control_c, 0, 64, 70
1, 660996, Note_on_c, 0, 55, 25
1, 661007, Note_off_c, 0, 56, 65
1, 661011, Control_c, 0, 64, 72
1, 661026, Control_c, 0, 64, 73
1, 661036, Note_off_c, 0, 55, 42
1, 661041, Control_c, 0, 64, 74
1, 661062, Control_c, 0, 64, 75
1, 661151, Control_c, 0, 64, 74
1, 661162, Note_on_c, 0, 68, 56
1, 661163, Note_on_c, 0, 67, 52
1, 661166, Control_c, 0, 64, 73
1, 661181, Control_c, 0, 64, 71
1, 661184, Note_off_c, 0, 67, 61
1, 661195, Note_off_c, 0, 68, 62
1, 661196, Control_c, 0, 64, 69
1, 661211, Control_c, 0, 64, 68
1, 661226, Control_c, 0, 64, 66
1, 661236, Note_off_c, 0, 72, 61
1, 661241, Control_c, 0, 64, 64
1, 661256, Control_c, 0, 64, 59
1, 661270, Control_c, 0, 64, 37
1, 661275, Note_on_c, 0, 70, 65
1, 661285, Control_c, 0, 64, 0
1, 661301, Note_on_c, 0, 68, 54
1, 661308, Note_on_c, 0, 67, 43
1, 661318, Note_off_c, 0, 70, 60
1, 661330, Note_off_c, 0, 68, 64
1, 661336, Note_off_c, 0, 67, 51
1, 661351, Note_on_c, 0, 72, 53
1, 661372, Note_off_c, 0, 72, 61
1, 661412, Note_on_c, 0, 70, 55
1, 661433, Note_off_c, 0, 70, 62
1, 661437, Note_on_c, 0, 72, 69
1, 661472, Note_on_c, 0, 56, 41
1, 661476, Note_on_c, 0, 53, 41
1, 661485, Note_off_c, 0, 72, 56
1, 661498, Note_on_c, 0, 70, 74
1, 661503, Note_off_c, 0, 56, 55
1, 661505, Note_off_c, 0, 53, 55
1, 661542, Note_off_c, 0, 70, 63
1, 661557, Note_on_c, 0, 72, 39
1, 661582, Note_off_c, 0, 72, 56
1, 661583, Note_on_c, 0, 70, 60
1, 661600, Note_on_c, 0, 53, 56
1, 661608, Note_on_c, 0, 56, 52
1, 661629, Note_off_c, 0, 70, 64
1, 661637, Note_off_c, 0, 53, 65
1, 661638, Note_off_c, 0, 56, 65
1, 661646, Note_on_c, 0, 72, 72
1, 661796, Note_on_c, 0, 68, 56
1, 661798, Note_on_c, 0, 65, 53
1, 661824, Note_off_c, 0, 68, 62
1, 661828, Note_off_c, 0, 65, 60
1, 661980, Note_on_c, 0, 68, 44
1, 661984, Note_on_c, 0, 75, 63
1, 662005, Note_off_c, 0, 68, 57
1, 662108, Note_off_c, 0, 72, 56
1, 662122, Control_c, 0, 67, 127
1, 662136, Control_c, 0, 67, 124
1, 662147, Note_on_c, 0, 84, 72
1, 662151, Control_c, 0, 67, 121
1, 662153, Note_on_c, 0, 56, 56
1, 662154, Note_on_c, 0, 53, 54
1, 662166, Control_c, 0, 67, 117
1, 662177, Note_off_c, 0, 56, 63
1, 662181, Control_c, 0, 67, 114
1, 662186, Note_off_c, 0, 53, 65
1, 662196, Control_c, 0, 67, 110
1, 662210, Control_c, 0, 67, 107
1, 662225, Control_c, 0, 67, 102
1, 662240, Control_c, 0, 67, 98
1, 662255, Control_c, 0, 67, 93
1, 662270, Control_c, 0, 67, 89
1, 662284, Control_c, 0, 67, 84
1, 662299, Control_c, 0, 67, 80
1, 662313, Note_on_c, 0, 56, 59
1, 662314, Control_c, 0, 67, 76
1, 662319, Note_on_c, 0, 79, 76
1, 662320, Note_on_c, 0, 53, 47
1, 662329, Note_on_c, 0, 74, 58
1, 662330, Control_c, 0, 67, 72
1, 662345, Control_c, 0, 67, 69
1, 662347, Note_off_c, 0, 56, 67
1, 662352, Note_off_c, 0, 53, 57
1, 662360, Control_c, 0, 67, 66
1, 662375, Control_c, 0, 67, 64
1, 662388, Note_off_c, 0, 75, 59
1, 662388, Note_off_c, 0, 84, 62
1, 662389, Control_c, 0, 67, 63
1, 662404, Control_c, 0, 67, 62
1, 662419, Control_c, 0, 67, 61
1, 662433, Control_c, 0, 67, 60
1, 662448, Control_c, 0, 67, 60
1, 662463, Control_c, 0, 67, 59
1, 662478, Control_c, 0, 67, 58
1, 662493, Control_c, 0, 67, 57
1, 662498, Note_on_c, 0, 68, 60
1, 662500, Note_on_c, 0, 65, 55
1, 662507, Control_c, 0, 67, 56
1, 662522, Control_c, 0, 67, 56
1, 662523, Note_off_c, 0, 65, 61
1, 662529, Note_off_c, 0, 68, 63
1, 662537, Control_c, 0, 67, 55
1, 662560, Control_c, 0, 67, 54
1, 662575, Control_c, 0, 67, 53
1, 662589, Control_c, 0, 67, 52
1, 662604, Control_c, 0, 67, 51
1, 662619, Control_c, 0, 67, 50
1, 662633, Control_c, 0, 67, 49
1, 662677, Note_on_c, 0, 68, 63
1, 662678, Note_on_c, 0, 65, 51
1, 662678, Control_c, 0, 67, 49
1, 662683, Note_on_c, 0, 80, 76
1, 662703, Note_off_c, 0, 65, 62
1, 662704, Note_off_c, 0, 68, 64
1, 662725, Note_off_c, 0, 79, 59
1, 662738, Control_c, 0, 67, 48
1, 662841, Note_on_c, 0, 51, 69
1, 662846, Note_on_c, 0, 55, 58
1, 662852, Note_on_c, 0, 77, 57
1, 662866, Note_off_c, 0, 51, 66
1, 662875, Note_off_c, 0, 55, 65
1, 662916, Control_c, 0, 67, 49
1, 662921, Note_off_c, 0, 77, 55
1, 662931, Control_c, 0, 67, 50
1, 662946, Control_c, 0, 67, 50
1, 662960, Control_c, 0, 67, 52
1, 662975, Control_c, 0, 67, 53
1, 662990, Control_c, 0, 67, 54
1, 663005, Control_c, 0, 67, 55
1, 663014, Note_on_c, 0, 51, 66
1, 663014, Note_on_c, 0, 55, 62
1, 663020, Control_c, 0, 67, 57
1, 663027, Note_on_c, 0, 82, 73
1, 663034, Control_c, 0, 67, 59
1, 663040, Note_off_c, 0, 51, 66
1, 663044, Note_off_c, 0, 55, 65
1, 663044, Note_on_c, 0, 77, 54
1, 663049, Control_c, 0, 67, 60
1, 663058, Note_off_c, 0, 80, 61
1, 663064, Control_c, 0, 67, 61
1, 663079, Control_c, 0, 67, 63
1, 663094, Control_c, 0, 67, 64
1, 663108, Note_off_c, 0, 74, 60
1, 663108, Control_c, 0, 67, 65
1, 663124, Control_c, 0, 67, 66
1, 663139, Control_c, 0, 67, 66
1, 663154, Control_c, 0, 67, 67
1, 663169, Control_c, 0, 67, 67
1, 663182, Note_on_c, 0, 63, 72
1, 663190, Note_on_c, 0, 67, 65
1, 663213, Control_c, 0, 67, 68
1, 663214, Note_off_c, 0, 63, 63
1, 663218, Note_off_c, 0, 67, 66
1, 663339, Control_c, 0, 67, 68
1, 663363, Note_on_c, 0, 84, 77
1, 663367, Note_on_c, 0, 67, 61
1, 663371, Note_on_c, 0, 63, 63
1, 663373, Note_off_c, 0, 82, 64
1, 663383, Control_c, 0, 67, 69
1, 663387, Note_off_c, 0, 67, 61
1, 663400, Note_off_c, 0, 63, 65
1, 663413, Control_c, 0, 67, 70
1, 663428, Control_c, 0, 67, 71
1, 663443, Control_c, 0, 67, 72
1, 663472, Control_c, 0, 67, 72
1, 663487, Control_c, 0, 67, 73
1, 663502, Control_c, 0, 67, 73
1, 663517, Control_c, 0, 67, 74
1, 663521, Note_off_c, 0, 77, 63
1, 663526, Note_on_c, 0, 75, 66
1, 663527, Note_on_c, 0, 51, 64
1, 663531, Control_c, 0, 67, 75
1, 663533, Note_on_c, 0, 55, 54
1, 663546, Control_c, 0, 67, 76
1, 663554, Note_off_c, 0, 51, 66
1, 663560, Note_off_c, 0, 55, 63
1, 663561, Control_c, 0, 67, 78
1, 663576, Control_c, 0, 67, 81
1, 663590, Control_c, 0, 67, 83
1, 663605, Control_c, 0, 67, 85
1, 663620, Control_c, 0, 67, 87
1, 663635, Control_c, 0, 67, 89
1, 663650, Control_c, 0, 67, 90
1, 663664, Control_c, 0, 67, 90
1, 663679, Control_c, 0, 67, 91
1, 663697, Note_on_c, 0, 51, 64
1, 663705, Note_on_c, 0, 55, 56
1, 663707, Note_on_c, 0, 86, 78
1, 663724, Control_c, 0, 67, 92
1, 663727, Note_off_c, 0, 51, 65
1, 663739, Control_c, 0, 64, 24
1, 663741, Note_off_c, 0, 55, 62
1, 663754, Control_c, 0, 64, 50
1, 663754, Control_c, 0, 67, 92
1, 663768, Control_c, 0, 64, 59
1, 663768, Control_c, 0, 67, 93
1, 663783, Control_c, 0, 64, 62
1, 663798, Control_c, 0, 64, 63
1, 663801, Note_off_c, 0, 75, 61
1, 663813, Control_c, 0, 67, 93
1, 663828, Control_c, 0, 64, 60
1, 663843, Control_c, 0, 64, 54
1, 663843, Control_c, 0, 67, 94
1, 663857, Control_c, 0, 64, 37
1, 663857, Control_c, 0, 67, 94
1, 663859, Note_off_c, 0, 84, 61
1, 663872, Control_c, 0, 64, 0
1, 663872, Control_c, 0, 67, 95
1, 663873, Note_on_c, 0, 67, 61
1, 663876, Note_on_c, 0, 63, 53
1, 663876, Note_on_c, 0, 74, 68
1, 663887, Control_c, 0, 67, 96
1, 663902, Control_c, 0, 67, 97
1, 663903, Note_off_c, 0, 67, 65
1, 663913, Note_off_c, 0, 63, 63
1, 663917, Control_c, 0, 67, 98
1, 663932, Control_c, 0, 67, 99
1, 663947, Control_c, 0, 67, 100
1, 664005, Note_off_c, 0, 74, 35
1, 664031, Note_on_c, 0, 63, 61
1, 664036, Control_c, 0, 64, 61
1, 664058, Control_c, 0, 64, 68
1, 664066, Note_on_c, 0, 87, 80
1, 664067, Note_off_c, 0, 63, 65
1, 664073, Control_c, 0, 64, 73
1, 664087, Control_c, 0, 64, 79
1, 664102, Note_off_c, 0, 86, 62
1, 664102, Control_c, 0, 64, 82
1, 664117, Control_c, 0, 64, 83
1, 664132, Control_c, 0, 64, 84
1, 664147, Control_c, 0, 67, 100
1, 664162, Control_c, 0, 64, 83
1, 664162, Note_off_c, 0, 87, 65
1, 664177, Control_c, 0, 64, 77
1, 664192, Control_c, 0, 64, 69
1, 664192, Control_c, 0, 67, 101
1, 664206, Control_c, 0, 64, 57
1, 664207, Note_on_c, 0, 72, 69
1, 664209, Note_on_c, 0, 53, 53
1, 664212, Note_on_c, 0, 50, 53
1, 664221, Control_c, 0, 64, 0
1, 664221, Control_c, 0, 67, 101
1, 664237, Note_off_c, 0, 72, 64
1, 664239, Note_off_c, 0, 53, 66
1, 664251, Note_off_c, 0, 50, 62
1, 664266, Control_c, 0, 67, 102
1, 664295, Control_c, 0, 67, 102
1, 664310, Control_c, 0, 64, 39
1, 664323, Note_on_c, 0, 70, 77
1, 664325, Control_c, 0, 64, 65
1, 664332, Note_on_c, 0, 50, 62
1, 664336, Note_on_c, 0, 53, 64
1, 664340, Control_c, 0, 64, 72
1, 664347, Note_off_c, 0, 70, 69
1, 664354, Control_c, 0, 64, 80
1, 664354, Control_c, 0, 67, 101
1, 664363, Note_off_c, 0, 53, 67
1, 664365, Note_off_c, 0, 50, 66
1, 664369, Control_c, 0, 64, 90
1, 664369, Control_c, 0, 67, 101
1, 664384, Control_c, 0, 64, 96
1, 664384, Control_c, 0, 67, 100
1, 664399, Control_c, 0, 64, 101
1, 664413, Control_c, 0, 64, 103
1, 664428, Control_c, 0, 64, 103
1, 664435, Note_on_c, 0, 89, 93
1, 664443, Control_c, 0, 67, 101
1, 664451, Note_off_c, 0, 89, 73
1, 664473, Control_c, 0, 67, 101
1, 664487, Control_c, 0, 67, 102
1, 664517, Control_c, 0, 67, 102
1, 664532, Control_c, 0, 67, 103
1, 664546, Control_c, 0, 67, 104
1, 664561, Control_c, 0, 67, 106
1, 664573, Note_on_c, 0, 62, 65
1, 664576, Control_c, 0, 67, 109
1, 664579, Note_on_c, 0, 70, 61
1, 664580, Note_on_c, 0, 65, 58
1, 664591, Control_c, 0, 67, 111
1, 664597, Note_off_c, 0, 70, 64
1, 664606, Control_c, 0, 67, 111
1, 664606, Note_off_c, 0, 65, 63
1, 664621, Control_c, 0, 64, 103
1, 664630, Note_off_c, 0, 62, 46
1, 664666, Control_c, 0, 64, 102
1, 664680, Control_c, 0, 64, 100
1, 664695, Control_c, 0, 64, 97
1, 664710, Control_c, 0, 64, 88
1, 664725, Control_c, 0, 64, 77
1, 664739, Note_on_c, 0, 65, 66
1, 664740, Control_c, 0, 64, 60
1, 664743, Note_on_c, 0, 86, 89
1, 664747, Note_on_c, 0, 70, 50
1, 664755, Control_c, 0, 64, 0
1, 664755, Control_c, 0, 67, 112
1, 664761, Note_on_c, 0, 62, 6
1, 664764, Note_off_c, 0, 65, 70
1, 664770, Note_off_c, 0, 70, 62
1, 664770, Control_c, 0, 67, 113
1, 664814, Note_off_c, 0, 62, 36
1, 664908, Note_on_c, 0, 77, 82
1, 664918, Note_on_c, 0, 58, 67
1, 664924, Note_on_c, 0, 53, 61
1, 664928, Note_off_c, 0, 86, 65
1, 664931, Note_on_c, 0, 50, 43
1, 664947, Note_off_c, 0, 58, 62
1, 664968, Note_off_c, 0, 53, 62
1, 664974, Note_off_c, 0, 50, 50
1, 665014, Control_c, 0, 67, 114
1, 665029, Control_c, 0, 67, 117
1, 665044, Control_c, 0, 67, 121
1, 665059, Control_c, 0, 67, 124
1, 665074, Control_c, 0, 67, 126
1, 665087, Note_on_c, 0, 81, 81
1, 665089, Control_c, 0, 67, 127
1, 665093, Note_on_c, 0, 58, 67
1, 665094, Note_on_c, 0, 50, 48
1, 665096, Note_on_c, 0, 53, 57
1, 665123, Note_off_c, 0, 50, 61
1, 665123, Note_off_c, 0, 53, 66
1, 665149, Note_off_c, 0, 58, 62
1, 665195, Note_off_c, 0, 77, 60
1, 665261, Note_on_c, 0, 70, 73
1, 665268, Note_on_c, 0, 65, 60
1, 665285, Note_on_c, 0, 62, 38
1, 665289, Note_off_c, 0, 70, 62
1, 665299, Note_off_c, 0, 65, 65
1, 665313, Note_off_c, 0, 62, 54
1, 665438, Note_on_c, 0, 79, 73
1, 665447, Note_on_c, 0, 62, 37
1, 665464, Note_on_c, 0, 65, 21
1, 665467, Note_on_c, 0, 70, 15
1, 665474, Note_off_c, 0, 70, 39
1, 665481, Note_off_c, 0, 62, 62
1, 665504, Note_off_c, 0, 65, 29
1, 665512, Note_off_c, 0, 81, 55
1, 665620, Note_on_c, 0, 57, 48
1, 665622, Note_on_c, 0, 53, 48
1, 665629, Note_on_c, 0, 50, 27
1, 665649, Note_off_c, 0, 57, 57
1, 665649, Note_off_c, 0, 53, 59
1, 665671, Note_off_c, 0, 50, 55
1, 665783, Note_on_c, 0, 50, 52
1, 665797, Note_on_c, 0, 53, 55
1, 665806, Note_on_c, 0, 77, 64
1, 665817, Note_on_c, 0, 57, 36
1, 665822, Note_off_c, 0, 50, 67
1, 665826, Note_off_c, 0, 53, 67
1, 665847, Note_off_c, 0, 57, 56
1, 665868, Note_off_c, 0, 79, 56
1, 665968, Note_on_c, 0, 69, 66
1, 665973, Note_on_c, 0, 65, 55
1, 665989, Note_on_c, 0, 62, 37
1, 666001, Note_off_c, 0, 69, 59
1, 666009, Note_off_c, 0, 65, 63
1, 666034, Note_off_c, 0, 62, 48
1, 666145, Note_on_c, 0, 62, 47
1, 666149, Note_on_c, 0, 76, 68
1, 666150, Note_on_c, 0, 69, 40
1, 666151, Note_on_c, 0, 65, 52
1, 666174, Note_off_c, 0, 62, 63
1, 666174, Note_off_c, 0, 65, 59
1, 666180, Note_off_c, 0, 69, 33
1, 666240, Note_off_c, 0, 77, 55
1, 666317, Note_on_c, 0, 50, 44
1, 666319, Note_on_c, 0, 53, 51
1, 666329, Note_on_c, 0, 58, 40
1, 666376, Note_off_c, 0, 58, 59
1, 666386, Note_off_c, 0, 53, 64
1, 666389, Note_off_c, 0, 50, 58
1, 666499, Note_on_c, 0, 74, 65
1, 666503, Note_on_c, 0, 50, 49
1, 666505, Note_off_c, 0, 76, 61
1, 666507, Note_on_c, 0, 58, 49
1, 666509, Note_on_c, 0, 53, 49
1, 666534, Note_off_c, 0, 50, 58
1, 666537, Note_off_c, 0, 53, 59
1, 666538, Note_off_c, 0, 58, 61
1, 666673, Note_on_c, 0, 70, 70
1, 666677, Note_on_c, 0, 81, 70
1, 666681, Note_on_c, 0, 65, 59
1, 666691, Note_on_c, 0, 62, 44
1, 666714, Note_off_c, 0, 70, 51
1, 666714, Note_off_c, 0, 65, 62
1, 666722, Note_off_c, 0, 74, 56
1, 666722, Note_off_c, 0, 62, 56
1, 666846, Note_on_c, 0, 62, 56
1, 666847, Note_on_c, 0, 70, 55
1, 666857, Note_on_c, 0, 86, 73
1, 666867, Note_off_c, 0, 70, 64
1, 666871, Note_on_c, 0, 65, 25
1, 666883, Note_off_c, 0, 62, 64
1, 666910, Note_off_c, 0, 65, 30
1, 667023, Note_on_c, 0, 50, 58
1, 667026, Note_on_c, 0, 79, 74
1, 667028, Note_on_c, 0, 52, 51
1, 667031, Note_on_c, 0, 57, 47
1, 667073, Note_off_c, 0, 52, 53
1, 667079, Note_off_c, 0, 57, 48
1, 667087, Note_off_c, 0, 86, 39
1, 667101, Note_off_c, 0, 81, 59
1, 667125, Note_off_c, 0, 50, 46
1, 667223, Note_on_c, 0, 72, 67
1, 667224, Note_on_c, 0, 52, 56
1, 667231, Note_off_c, 0, 79, 60
1, 667232, Note_on_c, 0, 57, 55
1, 667249, Note_off_c, 0, 52, 58
1, 667261, Note_on_c, 0, 50, 3
1, 667268, Note_off_c, 0, 57, 65
1, 667304, Note_off_c, 0, 50, 35
1, 667392, Note_on_c, 0, 69, 71
1, 667402, Note_on_c, 0, 62, 59
1, 667416, Note_off_c, 0, 69, 69
1, 667424, Note_off_c, 0, 62, 61
1, 667560, Note_on_c, 0, 55, 68
1, 667744, Note_on_c, 0, 56, 72
1, 667749, Note_off_c, 0, 55, 58
1, 667757, Note_on_c, 0, 69, 49
1, 667763, Note_on_c, 0, 62, 51
1, 667768, Note_on_c, 0, 64, 41
1, 667849, Note_off_c, 0, 69, 57
1, 667873, Note_off_c, 0, 62, 52
1, 667875, Note_off_c, 0, 64, 50
1, 667905, Control_c, 0, 64, 14
1, 667920, Control_c, 0, 64, 19
1, 667934, Control_c, 0, 64, 23
1, 667949, Control_c, 0, 64, 24
1, 667950, Note_on_c, 0, 57, 66
1, 667979, Note_off_c, 0, 56, 53
1, 668008, Control_c, 0, 64, 14
1, 668023, Control_c, 0, 64, 0
1, 668119, Note_on_c, 0, 69, 40
1, 668141, Note_on_c, 0, 62, 34
1, 668201, Note_off_c, 0, 69, 55
1, 668216, Note_off_c, 0, 62, 40
1, 668308, Note_on_c, 0, 73, 78
1, 668401, Note_off_c, 0, 72, 36
1, 668493, Note_on_c, 0, 65, 53
1, 668508, Note_on_c, 0, 62, 48
1, 668514, Note_on_c, 0, 69, 47
1, 668618, Note_off_c, 0, 62, 34
1, 668629, Note_off_c, 0, 69, 55
1, 668638, Note_off_c, 0, 65, 36
1, 668675, Note_on_c, 0, 58, 70
1, 668743, Note_off_c, 0, 57, 50
1, 668851, Note_on_c, 0, 65, 54
1, 668871, Note_on_c, 0, 62, 48
1, 668881, Note_on_c, 0, 69, 33
1, 668936, Note_off_c, 0, 69, 43
1, 669025, Note_off_c, 0, 62, 38
1, 669060, Note_on_c, 0, 74, 70
1, 669083, Note_off_c, 0, 73, 61
1, 669092, Note_off_c, 0, 65, 35
1, 669259, Note_on_c, 0, 65, 32
1, 669259, Note_on_c, 0, 68, 47
1, 669267, Note_on_c, 0, 62, 40
1, 669416, Control_c, 0, 64, 19
1, 669418, Note_off_c, 0, 62, 57
1, 669432, Control_c, 0, 64, 21
1, 669438, Note_off_c, 0, 65, 63
1, 669443, Note_off_c, 0, 68, 62
1, 669462, Control_c, 0, 64, 23
1, 669468, Note_off_c, 0, 58, 62
1, 669474, Note_on_c, 0, 59, 48
1, 669506, Control_c, 0, 64, 21
1, 669536, Control_c, 0, 64, 17
1, 669551, Control_c, 0, 64, 11
1, 669566, Control_c, 0, 64, 0
1, 669688, Note_on_c, 0, 65, 37
1, 669691, Note_on_c, 0, 67, 41
1, 669697, Note_on_c, 0, 62, 44
1, 669879, Note_off_c, 0, 74, 62
1, 669885, Note_off_c, 0, 62, 51
1, 669894, Note_off_c, 0, 65, 46
1, 669900, Note_on_c, 0, 75, 59
1, 669906, Note_off_c, 0, 67, 36
1, 670106, Control_c, 0, 64, 47
1, 670121, Control_c, 0, 64, 61
1, 670136, Control_c, 0, 64, 64
1, 670143, Note_on_c, 0, 62, 43
1, 670144, Note_on_c, 0, 67, 49
1, 670147, Note_on_c, 0, 65, 33
1, 670151, Control_c, 0, 64, 67
1, 670165, Control_c, 0, 64, 69
1, 670165, Control_c, 0, 67, 123
1, 670180, Control_c, 0, 64, 71
1, 670180, Control_c, 0, 67, 118
1, 670190, Note_off_c, 0, 65, 50
1, 670193, Note_off_c, 0, 59, 56
1, 670195, Control_c, 0, 64, 72
1, 670195, Control_c, 0, 67, 112
1, 670202, Note_off_c, 0, 67, 54
1, 670210, Control_c, 0, 64, 73
1, 670210, Control_c, 0, 67, 105
1, 670222, Note_off_c, 0, 62, 59
1, 670225, Control_c, 0, 64, 73
1, 670225, Control_c, 0, 67, 99
1, 670238, Note_off_c, 0, 75, 60
1, 670240, Control_c, 0, 64, 74
1, 670240, Control_c, 0, 67, 95
1, 670255, Control_c, 0, 64, 74
1, 670255, Control_c, 0, 67, 92
1, 670270, Control_c, 0, 64, 75
1, 670270, Control_c, 0, 67, 90
1, 670285, Control_c, 0, 67, 89
1, 670299, Control_c, 0, 67, 87
1, 670313, Note_on_c, 0, 88, 79
1, 670314, Control_c, 0, 64, 74
1, 670314, Control_c, 0, 67, 86
1, 670329, Control_c, 0, 64, 72
1, 670344, Control_c, 0, 64, 67
1, 670344, Control_c, 0, 67, 85
1, 670359, Control_c, 0, 64, 58
1, 670374, Control_c, 0, 64, 39
1, 670389, Control_c, 0, 64, 0
1, 670401, Note_on_c, 0, 76, 62
1, 670404, Control_c, 0, 67, 85
1, 670419, Control_c, 0, 67, 84
1, 670431, Note_off_c, 0, 76, 64
1, 670434, Control_c, 0, 67, 83
1, 670448, Control_c, 0, 67, 80
1, 670458, Note_on_c, 0, 60, 58
1, 670463, Control_c, 0, 67, 77
1, 670464, Note_on_c, 0, 68, 55
1, 670466, Note_on_c, 0, 80, 75
1, 670478, Control_c, 0, 67, 74
1, 670485, Note_on_c, 0, 65, 22
1, 670486, Note_off_c, 0, 80, 71
1, 670489, Note_off_c, 0, 68, 63
1, 670493, Note_off_c, 0, 60, 64
1, 670493, Control_c, 0, 67, 73
1, 670505, Note_off_c, 0, 88, 60
1, 670508, Control_c, 0, 67, 73
1, 670523, Note_off_c, 0, 65, 43
1, 670537, Control_c, 0, 67, 73
1, 670552, Control_c, 0, 67, 74
1, 670558, Note_on_c, 0, 84, 67
1, 670566, Control_c, 0, 67, 76
1, 670581, Control_c, 0, 67, 77
1, 670592, Note_off_c, 0, 84, 66
1, 670596, Control_c, 0, 67, 78
1, 670611, Control_c, 0, 67, 80
1, 670626, Control_c, 0, 67, 81
1, 670633, Note_on_c, 0, 92, 87
1, 670640, Control_c, 0, 67, 81
1, 670648, Note_off_c, 0, 92, 76
1, 670655, Control_c, 0, 64, 19
1, 670655, Control_c, 0, 67, 82
1, 670670, Control_c, 0, 64, 36
1, 670670, Control_c, 0, 67, 82
1, 670685, Control_c, 0, 64, 47
1, 670685, Control_c, 0, 67, 83
1, 670700, Control_c, 0, 64, 54
1, 670700, Control_c, 0, 67, 83
1, 670714, Control_c, 0, 64, 59
1, 670714, Control_c, 0, 67, 84
1, 670729, Control_c, 0, 64, 62
1, 670729, Control_c, 0, 67, 84
1, 670744, Control_c, 0, 64, 63
1, 670744, Control_c, 0, 67, 85
1, 670759, Control_c, 0, 64, 64
1, 670759, Control_c, 0, 67, 85
1, 670774, Control_c, 0, 64, 65
1, 670774, Control_c, 0, 67, 86
1, 670778, Note_on_c, 0, 68, 57
1, 670780, Note_on_c, 0, 62, 49
1, 670796, Control_c, 0, 67, 88
1, 670808, Note_on_c, 0, 65, 18
1, 670811, Control_c, 0, 67, 90
1, 670813, Note_off_c, 0, 62, 59
1, 670815, Note_off_c, 0, 68, 64
1, 670826, Control_c, 0, 64, 65
1, 670826, Control_c, 0, 67, 92
1, 670841, Control_c, 0, 67, 94
1, 670850, Note_off_c, 0, 65, 39
1, 670855, Control_c, 0, 67, 96
1, 670870, Control_c, 0, 67, 97
1, 670885, Control_c, 0, 64, 65
1, 670885, Control_c, 0, 67, 98
1, 670897, Note_on_c, 0, 96, 72
1, 670900, Control_c, 0, 67, 99
1, 670915, Control_c, 0, 64, 63
1, 670915, Control_c, 0, 67, 100
1, 670917, Note_off_c, 0, 96, 69
1, 670929, Control_c, 0, 64, 59
1, 670944, Control_c, 0, 64, 52
1, 670950, Note_on_c, 0, 84, 71
1, 670951, Note_on_c, 0, 64, 62
1, 670959, Control_c, 0, 64, 42
1, 670973, Control_c, 0, 64, 30
1, 670973, Control_c, 0, 67, 99
1, 670988, Control_c, 0, 64, 24
1, 670998, Note_off_c, 0, 64, 60
1, 670999, Note_off_c, 0, 84, 63
1, 671003, Control_c, 0, 64, 23
1, 671018, Note_on_c, 0, 86, 81
1, 671027, Note_on_c, 0, 71, 52
1, 671046, Note_off_c, 0, 86, 64
1, 671048, Control_c, 0, 64, 24
1, 671051, Note_off_c, 0, 71, 61
1, 671063, Control_c, 0, 64, 28
1, 671078, Control_c, 0, 64, 30
1, 671082, Note_on_c, 0, 84, 85
1, 671087, Note_on_c, 0, 67, 71
1, 671118, Note_off_c, 0, 84, 64
1, 671123, Control_c, 0, 64, 28
1, 671123, Control_c, 0, 67, 100
1, 671125, Note_on_c, 0, 86, 86
1, 671138, Control_c, 0, 64, 23
1, 671144, Note_off_c, 0, 67, 59
1, 671150, Note_on_c, 0, 71, 63
1, 671152, Control_c, 0, 64, 17
1, 671155, Note_off_c, 0, 86, 65
1, 671167, Control_c, 0, 64, 14
1, 671180, Note_off_c, 0, 71, 66
1, 671182, Control_c, 0, 64, 0
1, 671200, Note_on_c, 0, 84, 69
1, 671209, Note_on_c, 0, 86, 84
1, 671212, Control_c, 0, 67, 99
1, 671216, Note_off_c, 0, 84, 68
1, 671227, Control_c, 0, 67, 98
1, 671229, Note_on_c, 0, 76, 77
1, 671242, Control_c, 0, 67, 98
1, 671250, Note_off_c, 0, 86, 67
1, 671250, Note_off_c, 0, 76, 69
1, 671264, Note_on_c, 0, 84, 95
1, 671331, Note_off_c, 0, 84, 65
1, 671345, Note_on_c, 0, 79, 82
1, 671375, Control_c, 0, 67, 98
1, 671394, Note_off_c, 0, 79, 64
1, 671404, Control_c, 0, 67, 99
1, 671436, Note_on_c, 0, 76, 87
1, 671485, Note_off_c, 0, 76, 63
1, 671518, Note_on_c, 0, 72, 75
1, 671522, Control_c, 0, 67, 99
1, 671545, Control_c, 0, 67, 100
1, 671575, Control_c, 0, 67, 100
1, 671578, Note_off_c, 0, 72, 63
1, 671607, Note_on_c, 0, 84, 77
1, 671678, Control_c, 0, 67, 100
1, 671690, Note_on_c, 0, 72, 70
1, 671722, Control_c, 0, 67, 99
1, 671729, Note_off_c, 0, 72, 64
1, 671737, Control_c, 0, 67, 99
1, 671743, Note_on_c, 0, 57, 46
1, 671750, Note_on_c, 0, 66, 49
1, 671754, Note_on_c, 0, 62, 38
1, 671771, Note_on_c, 0, 78, 78
1, 671783, Note_off_c, 0, 57, 60
1, 671784, Note_off_c, 0, 62, 53
1, 671784, Note_off_c, 0, 66, 56
1, 671787, Note_off_c, 0, 84, 60
1, 671789, Note_off_c, 0, 78, 72
1, 671841, Control_c, 0, 67, 99
1, 671850, Note_on_c, 0, 81, 72
1, 671856, Control_c, 0, 67, 100
1, 671885, Note_off_c, 0, 81, 65
1, 671936, Note_on_c, 0, 90, 85
1, 671955, Note_off_c, 0, 90, 69
1, 671975, Control_c, 0, 64, 47
1, 671990, Control_c, 0, 64, 63
1, 671990, Control_c, 0, 67, 99
1, 672005, Control_c, 0, 64, 67
1, 672020, Control_c, 0, 64, 72
1, 672034, Control_c, 0, 64, 75
1, 672034, Control_c, 0, 67, 99
1, 672049, Control_c, 0, 64, 76
1, 672070, Note_on_c, 0, 66, 54
1, 672073, Note_on_c, 0, 59, 43
1, 672100, Note_off_c, 0, 66, 64
1, 672102, Note_off_c, 0, 59, 54
1, 672138, Control_c, 0, 64, 75
1, 672153, Control_c, 0, 64, 74
1, 672168, Control_c, 0, 64, 72
1, 672175, Note_on_c, 0, 92, 80
1, 672183, Control_c, 0, 64, 68
1, 672198, Control_c, 0, 64, 62
1, 672206, Note_off_c, 0, 92, 62
1, 672212, Control_c, 0, 64, 41
1, 672227, Control_c, 0, 64, 0
1, 672237, Note_on_c, 0, 80, 73
1, 672252, Note_on_c, 0, 60, 60
1, 672279, Note_on_c, 0, 62, 32
1, 672297, Note_off_c, 0, 80, 63
1, 672308, Note_on_c, 0, 82, 80
1, 672321, Note_off_c, 0, 62, 31
1, 672322, Note_off_c, 0, 60, 64
1, 672336, Note_off_c, 0, 82, 60
1, 672338, Note_on_c, 0, 67, 63
1, 672353, Control_c, 0, 64, 56
1, 672368, Control_c, 0, 64, 62
1, 672368, Control_c, 0, 67, 98
1, 672372, Note_off_c, 0, 67, 62
1, 672379, Note_on_c, 0, 80, 79
1, 672383, Control_c, 0, 64, 63
1, 672398, Control_c, 0, 64, 62
1, 672401, Note_off_c, 0, 80, 66
1, 672404, Note_on_c, 0, 64, 69
1, 672412, Control_c, 0, 64, 60
1, 672412, Control_c, 0, 67, 98
1, 672416, Note_on_c, 0, 82, 77
1, 672427, Control_c, 0, 64, 57
1, 672435, Note_off_c, 0, 82, 72
1, 672442, Control_c, 0, 64, 55
1, 672443, Note_off_c, 0, 64, 64
1, 672457, Control_c, 0, 64, 52
1, 672458, Note_on_c, 0, 67, 53
1, 672464, Note_on_c, 0, 80, 82
1, 672472, Control_c, 0, 64, 48
1, 672484, Note_off_c, 0, 67, 57
1, 672487, Control_c, 0, 64, 44
1, 672497, Note_on_c, 0, 82, 79
1, 672501, Control_c, 0, 64, 38
1, 672502, Note_off_c, 0, 80, 0
1, 672512, Note_on_c, 0, 80, 77
1, 672516, Control_c, 0, 64, 31
1, 672520, Note_off_c, 0, 82, 69
1, 672531, Control_c, 0, 64, 23
1, 672535, Note_on_c, 0, 76, 80
1, 672545, Control_c, 0, 64, 19
1, 672554, Note_off_c, 0, 76, 71
1, 672557, Note_off_c, 0, 80, 67
1, 672575, Control_c, 0, 67, 98
1, 672590, Control_c, 0, 64, 21
1, 672590, Control_c, 0, 67, 99
1, 672605, Control_c, 0, 64, 26
1, 672619, Control_c, 0, 64, 28
1, 672634, Control_c, 0, 64, 29
1, 672634, Control_c, 0, 67, 99
1, 672649, Control_c, 0, 67, 100
1, 672663, Control_c, 0, 67, 100
1, 672693, Control_c, 0, 67, 101
1, 672702, Note_on_c, 0, 79, 79
1, 672708, Control_c, 0, 67, 101
1, 672739, Control_c, 0, 64, 27
1, 672739, Control_c, 0, 67, 102
1, 672754, Control_c, 0, 64, 26
1, 672754, Control_c, 0, 67, 103
1, 672768, Control_c, 0, 64, 23
1, 672768, Control_c, 0, 67, 106
1, 672783, Control_c, 0, 64, 19
1, 672783, Control_c, 0, 67, 109
1, 672786, Note_on_c, 0, 76, 75
1, 672788, Note_off_c, 0, 79, 55
1, 672798, Control_c, 0, 64, 17
1, 672798, Control_c, 0, 67, 110
1, 672813, Control_c, 0, 67, 112
1, 672828, Control_c, 0, 64, 14
1, 672828, Control_c, 0, 67, 114
1, 672842, Control_c, 0, 64, 0
1, 672842, Control_c, 0, 67, 116
1, 672850, Note_off_c, 0, 76, 62
1, 672857, Control_c, 0, 67, 117
1, 672869, Note_on_c, 0, 71, 75
1, 672872, Control_c, 0, 67, 118
1, 672873, Note_on_c, 0, 53, 68
1, 672884, Note_on_c, 0, 67, 64
1, 672887, Control_c, 0, 67, 118
1, 672906, Note_off_c, 0, 71, 62
1, 672914, Note_off_c, 0, 67, 65
1, 672917, Control_c, 0, 67, 118
1, 672932, Control_c, 0, 67, 117
1, 672953, Note_off_c, 0, 53, 62
1, 672958, Note_on_c, 0, 64, 67
1, 672984, Note_off_c, 0, 64, 69
1, 673006, Control_c, 0, 67, 117
1, 673021, Control_c, 0, 67, 118
1, 673057, Control_c, 0, 67, 118
1, 673069, Note_on_c, 0, 76, 77
1, 673072, Control_c, 0, 67, 119
1, 673087, Control_c, 0, 67, 119
1, 673102, Control_c, 0, 67, 121
1, 673117, Control_c, 0, 67, 123
1, 673131, Control_c, 0, 67, 124
1, 673146, Control_c, 0, 67, 125
1, 673153, Note_on_c, 0, 72, 72
1, 673161, Control_c, 0, 67, 126
1, 673176, Control_c, 0, 67, 126
1, 673181, Note_off_c, 0, 76, 51
1, 673191, Control_c, 0, 67, 127
1, 673206, Control_c, 0, 67, 127
1, 673226, Note_off_c, 0, 72, 63
1, 673232, Note_on_c, 0, 68, 73
1, 673257, Note_on_c, 0, 64, 60
1, 673257, Note_off_c, 0, 68, 64
1, 673286, Note_off_c, 0, 64, 67
1, 673328, Note_on_c, 0, 60, 59
1, 673394, Note_off_c, 0, 60, 60
1, 673413, Note_on_c, 0, 72, 76
1, 673415, Note_on_c, 0, 50, 66
1, 673444, Note_off_c, 0, 50, 67
1, 673505, Note_on_c, 0, 69, 60
1, 673540, Note_off_c, 0, 72, 59
1, 673586, Note_on_c, 0, 47, 64
1, 673602, Note_on_c, 0, 64, 59
1, 673606, Note_on_c, 0, 61, 58
1, 673608, Note_off_c, 0, 69, 60
1, 673641, Note_off_c, 0, 64, 63
1, 673653, Note_off_c, 0, 61, 59
1, 673677, Note_on_c, 0, 57, 67
1, 673688, Note_off_c, 0, 47, 63
1, 673703, Note_off_c, 0, 57, 66
1, 673787, Note_on_c, 0, 69, 71
1, 673875, Note_on_c, 0, 65, 67
1, 673918, Note_off_c, 0, 69, 53
1, 673947, Note_on_c, 0, 61, 67
1, 673960, Note_off_c, 0, 65, 60
1, 673976, Note_on_c, 0, 57, 58
1, 674010, Note_off_c, 0, 61, 61
1, 674014, Control_c, 0, 67, 127
1, 674026, Note_on_c, 0, 53, 74
1, 674026, Note_off_c, 0, 57, 58
1, 674029, Control_c, 0, 67, 126
1, 674044, Control_c, 0, 67, 126
1, 674058, Control_c, 0, 67, 125
1, 674088, Control_c, 0, 67, 124
1, 674094, Note_off_c, 0, 53, 63
1, 674103, Control_c, 0, 67, 123
1, 674117, Control_c, 0, 67, 123
1, 674132, Note_on_c, 0, 65, 74
1, 674132, Control_c, 0, 67, 122
1, 674133, Note_on_c, 0, 43, 61
1, 674147, Control_c, 0, 67, 121
1, 674160, Note_off_c, 0, 43, 58
1, 674162, Control_c, 0, 67, 121
1, 674206, Control_c, 0, 67, 121
1, 674213, Note_on_c, 0, 62, 72
1, 674230, Note_off_c, 0, 65, 52
1, 674236, Control_c, 0, 67, 122
1, 674251, Control_c, 0, 67, 122
1, 674287, Note_on_c, 0, 38, 72
1, 674288, Note_off_c, 0, 62, 61
1, 674312, Note_on_c, 0, 57, 67
1, 674332, Note_on_c, 0, 53, 62
1, 674341, Note_off_c, 0, 57, 65
1, 674355, Control_c, 0, 67, 122
1, 674360, Note_off_c, 0, 38, 58
1, 674360, Note_off_c, 0, 53, 67
1, 674385, Control_c, 0, 67, 121
1, 674386, Note_on_c, 0, 52, 74
1, 674400, Control_c, 0, 67, 120
1, 674412, Note_off_c, 0, 52, 66
1, 674414, Control_c, 0, 67, 120
1, 674429, Control_c, 0, 67, 119
1, 674444, Control_c, 0, 67, 119
1, 674459, Control_c, 0, 67, 118
1, 674474, Control_c, 0, 67, 117
1, 674486, Note_on_c, 0, 61, 70
1, 674563, Note_on_c, 0, 57, 62
1, 674585, Control_c, 0, 67, 117
1, 674588, Note_off_c, 0, 61, 61
1, 674615, Control_c, 0, 67, 116
1, 674629, Control_c, 0, 67, 116
1, 674644, Control_c, 0, 67, 115
1, 674652, Note_on_c, 0, 52, 62
1, 674655, Note_on_c, 0, 42, 74
1, 674658, Note_off_c, 0, 57, 63
1, 674659, Control_c, 0, 67, 114
1, 674668, Note_on_c, 0, 47, 60
1, 674674, Control_c, 0, 67, 113
1, 674688, Control_c, 0, 67, 113
1, 674708, Note_off_c, 0, 47, 63
1, 674718, Control_c, 0, 67, 112
1, 674734, Note_off_c, 0, 52, 59
1, 674738, Note_off_c, 0, 42, 63
1, 674743, Note_on_c, 0, 43, 78
1, 674762, Control_c, 0, 67, 112
1, 674770, Note_off_c, 0, 43, 67
1, 674777, Control_c, 0, 67, 111
1, 674792, Control_c, 0, 67, 111
1, 674807, Control_c, 0, 67, 110
1, 674822, Control_c, 0, 67, 109
1, 674837, Control_c, 0, 67, 108
1, 674849, Note_on_c, 0, 55, 85
1, 674851, Control_c, 0, 67, 108
1, 674911, Control_c, 0, 67, 108
1, 674917, Note_off_c, 0, 55, 63
1, 674922, Note_on_c, 0, 52, 72
1, 675000, Control_c, 0, 67, 107
1, 675002, Note_off_c, 0, 52, 62
1, 675007, Note_on_c, 0, 36, 74
1, 675014, Control_c, 0, 67, 107
1, 675015, Note_on_c, 0, 48, 82
1, 675029, Control_c, 0, 67, 106
1, 675044, Control_c, 0, 67, 104
1, 675058, Control_c, 0, 64, 47
1, 675058, Control_c, 0, 67, 102
1, 675073, Control_c, 0, 64, 65
1, 675073, Control_c, 0, 67, 100
1, 675088, Control_c, 0, 64, 70
1, 675088, Control_c, 0, 67, 98
1, 675091, Note_on_c, 0, 43, 74
1, 675103, Note_off_c, 0, 36, 62
1, 675104, Control_c, 0, 64, 76
1, 675104, Control_c, 0, 67, 94
1, 675115, Note_off_c, 0, 48, 51
1, 675119, Control_c, 0, 64, 80
1, 675119, Control_c, 0, 67, 90
1, 675134, Control_c, 0, 64, 82
1, 675134, Control_c, 0, 67, 85
1, 675147, Note_off_c, 0, 43, 64
1, 675149, Control_c, 0, 64, 82
1, 675149, Control_c, 0, 67, 82
1, 675159, Note_on_c, 0, 48, 61
1, 675163, Control_c, 0, 67, 79
1, 675165, Note_on_c, 0, 52, 87
1, 675178, Control_c, 0, 67, 77
1, 675193, Control_c, 0, 67, 76
1, 675203, Note_off_c, 0, 48, 64
1, 675208, Control_c, 0, 64, 81
1, 675208, Control_c, 0, 67, 75
1, 675213, Note_off_c, 0, 52, 64
1, 675223, Control_c, 0, 64, 79
1, 675223, Control_c, 0, 67, 74
1, 675237, Control_c, 0, 64, 75
1, 675237, Control_c, 0, 67, 74
1, 675247, Note_on_c, 0, 60, 78
1, 675252, Control_c, 0, 64, 71
1, 675254, Note_on_c, 0, 52, 72
1, 675267, Control_c, 0, 64, 65
1, 675267, Control_c, 0, 67, 73
1, 675269, Note_off_c, 0, 60, 69
1, 675290, Control_c, 0, 64, 54
1, 675290, Control_c, 0, 67, 73
1, 675305, Control_c, 0, 64, 0
1, 675319, Control_c, 0, 67, 72
1, 675341, Note_on_c, 0, 56, 85
1, 675341, Note_on_c, 0, 64, 85
1, 675341, Note_off_c, 0, 52, 64
1, 675349, Control_c, 0, 67, 72
1, 675363, Control_c, 0, 67, 71
1, 675393, Note_off_c, 0, 64, 64
1, 675393, Control_c, 0, 67, 70
1, 675408, Control_c, 0, 67, 70
1, 675421, Note_on_c, 0, 60, 76
1, 675422, Note_off_c, 0, 56, 64
1, 675424, Control_c, 0, 67, 69
1, 675426, Note_on_c, 0, 68, 85
1, 675438, Control_c, 0, 64, 29
1, 675438, Control_c, 0, 67, 69
1, 675453, Control_c, 0, 64, 37
1, 675453, Control_c, 0, 67, 68
1, 675468, Control_c, 0, 64, 39
1, 675468, Control_c, 0, 67, 68
1, 675479, Note_off_c, 0, 68, 64
1, 675483, Control_c, 0, 64, 40
1, 675490, Note_off_c, 0, 60, 65
1, 675497, Control_c, 0, 64, 39
1, 675497, Control_c, 0, 67, 67
1, 675508, Note_on_c, 0, 64, 78
1, 675509, Note_on_c, 0, 72, 82
1, 675512, Control_c, 0, 64, 36
1, 675512, Control_c, 0, 67, 66
1, 675527, Control_c, 0, 64, 30
1, 675527, Control_c, 0, 67, 65
1, 675532, Note_off_c, 0, 64, 71
1, 675542, Control_c, 0, 64, 24
1, 675543, Note_off_c, 0, 72, 63
1, 675557, Control_c, 0, 64, 17
1, 675557, Control_c, 0, 67, 64
1, 675571, Control_c, 0, 64, 0
1, 675598, Note_on_c, 0, 76, 88
1, 675645, Control_c, 0, 67, 64
1, 675655, Note_off_c, 0, 76, 60
1, 675677, Note_on_c, 0, 88, 87
1, 675689, Control_c, 0, 67, 63
1, 675704, Control_c, 0, 67, 63
1, 675719, Control_c, 0, 67, 62
1, 675734, Control_c, 0, 67, 61
1, 675749, Control_c, 0, 67, 57
1, 675764, Control_c, 0, 67, 52
1, 675767, Note_on_c, 0, 76, 84
1, 675778, Control_c, 0, 67, 45
1, 675793, Control_c, 0, 64, 21
1, 675793, Control_c, 0, 67, 33
1, 675808, Control_c, 0, 64, 54
1, 675808, Control_c, 0, 67, 20
1, 675821, Note_off_c, 0, 76, 62
1, 675823, Control_c, 0, 64, 63
1, 675823, Control_c, 0, 67, 0
1, 675834, Note_on_c, 0, 60, 70
1, 675834, Note_on_c, 0, 65, 71
1, 675834, Note_on_c, 0, 68, 83
1, 675838, Control_c, 0, 64, 67
1, 675847, Note_on_c, 0, 80, 78
1, 675853, Control_c, 0, 64, 70
1, 675854, Note_off_c, 0, 68, 70
1, 675857, Note_off_c, 0, 65, 69
1, 675859, Note_off_c, 0, 60, 69
1, 675866, Note_off_c, 0, 80, 72
1, 675868, Control_c, 0, 64, 73
1, 675868, Note_off_c, 0, 88, 63
1, 675882, Control_c, 0, 64, 73
1, 675928, Control_c, 0, 64, 72
1, 675933, Note_on_c, 0, 84, 80
1, 675942, Control_c, 0, 64, 71
1, 675957, Control_c, 0, 64, 67
1, 675972, Control_c, 0, 64, 63
1, 675987, Control_c, 0, 64, 51
1, 676002, Control_c, 0, 64, 0
1, 676008, Note_on_c, 0, 92, 94
1, 676008, Note_off_c, 0, 84, 55
1, 676102, Note_on_c, 0, 91, 86
1, 676121, Note_off_c, 0, 92, 63
1, 676127, Control_c, 0, 64, 61
1, 676142, Control_c, 0, 64, 70
1, 676157, Control_c, 0, 64, 78
1, 676164, Note_on_c, 0, 62, 64
1, 676166, Note_on_c, 0, 65, 67
1, 676169, Note_on_c, 0, 68, 69
1, 676172, Control_c, 0, 64, 86
1, 676181, Note_on_c, 0, 90, 94
1, 676186, Control_c, 0, 64, 92
1, 676192, Note_off_c, 0, 91, 66
1, 676195, Note_off_c, 0, 65, 66
1, 676196, Note_off_c, 0, 62, 63
1, 676201, Control_c, 0, 64, 95
1, 676223, Note_off_c, 0, 68, 53
1, 676231, Control_c, 0, 64, 94
1, 676246, Control_c, 0, 64, 89
1, 676247, Note_off_c, 0, 90, 67
1, 676260, Note_on_c, 0, 89, 85
1, 676260, Control_c, 0, 64, 79
1, 676275, Control_c, 0, 64, 68
1, 676290, Control_c, 0, 64, 0
1, 676307, Note_off_c, 0, 89, 63
1, 676337, Note_on_c, 0, 64, 104
1, 676349, Note_on_c, 0, 103, 102
1, 676408, Control_c, 0, 64, 29
1, 676423, Control_c, 0, 64, 63
1, 676428, Note_on_c, 0, 102, 99
1, 676434, Note_on_c, 0, 71, 92
1, 676438, Control_c, 0, 64, 70
1, 676453, Control_c, 0, 64, 77
1, 676455, Note_off_c, 0, 103, 66
1, 676467, Control_c, 0, 64, 85
1, 676482, Control_c, 0, 64, 94
1, 676497, Control_c, 0, 64, 102
1, 676509, Note_on_c, 0, 67, 90
1, 676509, Note_off_c, 0, 71, 65
1, 676512, Note_on_c, 0, 101, 97
1, 676512, Control_c, 0, 64, 107
1, 676514, Note_off_c, 0, 102, 66
1, 676527, Control_c, 0, 64, 110
1, 676542, Control_c, 0, 64, 111
1, 676556, Control_c, 0, 64, 112
1, 676571, Control_c, 0, 64, 113
1, 676593, Note_on_c, 0, 100, 83
1, 676594, Note_on_c, 0, 71, 91
1, 676596, Note_off_c, 0, 101, 68
1, 676616, Control_c, 0, 64, 107
1, 676631, Control_c, 0, 64, 89
1, 676634, Note_off_c, 0, 100, 64
1, 676646, Control_c, 0, 64, 72
1, 676660, Control_c, 0, 64, 19
1, 676675, Control_c, 0, 64, 0
1, 676685, Note_on_c, 0, 96, 101
1, 676690, Note_on_c, 0, 76, 92
1, 676735, Control_c, 0, 64, 48
1, 676750, Control_c, 0, 64, 67
1, 676765, Control_c, 0, 64, 78
1, 676768, Note_off_c, 0, 76, 63
1, 676774, Note_on_c, 0, 95, 101
1, 676787, Control_c, 0, 64, 93
1, 676790, Note_off_c, 0, 71, 62
1, 676802, Control_c, 0, 64, 127
1, 676808, Note_off_c, 0, 96, 63
1, 676810, Note_off_c, 0, 67, 60
1, 676821, Note_off_c, 0, 64, 64
1, 676856, Note_on_c, 0, 93, 95
1, 676875, Note_off_c, 0, 95, 66
1, 676928, Note_on_c, 0, 91, 83
1, 676929, Note_off_c, 0, 93, 67
1, 676945, Note_off_c, 0, 91, 72
1, 676950, Control_c, 0, 64, 94
1, 676965, Control_c, 0, 64, 75
1, 676980, Control_c, 0, 64, 53
1, 676995, Control_c, 0, 64, 0
1, 677023, Note_on_c, 0, 84, 93
1, 677030, Poly_aftertouch_c, 0, 63, 0
1, 677117, Note_on_c, 0, 72, 80
1, 677172, Note_off_c, 0, 72, 64
1, 677187, Note_on_c, 0, 57, 79
1, 677192, Note_on_c, 0, 66, 77
1, 677196, Note_on_c, 0, 62, 68
1, 677200, Note_on_c, 0, 78, 82
1, 677217, Note_off_c, 0, 66, 65
1, 677221, Note_off_c, 0, 84, 65
1, 677221, Note_off_c, 0, 62, 64
1, 677224, Note_off_c, 0, 78, 66
1, 677231, Note_off_c, 0, 57, 59
1, 677277, Note_on_c, 0, 81, 84
1, 677334, Note_off_c, 0, 81, 63
1, 677358, Note_on_c, 0, 90, 105
1, 677390, Note_off_c, 0, 90, 67
1, 677394, Control_c, 0, 64, 11
1, 677409, Control_c, 0, 64, 17
1, 677424, Control_c, 0, 64, 19
1, 677439, Control_c, 0, 64, 23
1, 677453, Control_c, 0, 64, 24
1, 677468, Control_c, 0, 64, 26
1, 677483, Control_c, 0, 64, 27
1, 677513, Control_c, 0, 64, 28
1, 677515, Note_on_c, 0, 59, 74
1, 677516, Note_on_c, 0, 66, 75
1, 677532, Note_on_c, 0, 62, 65
1, 677553, Note_off_c, 0, 59, 64
1, 677555, Note_off_c, 0, 66, 63
1, 677558, Note_off_c, 0, 62, 64
1, 677595, Control_c, 0, 64, 24
1, 677605, Note_on_c, 0, 104, 83
1, 677610, Control_c, 0, 64, 17
1, 677625, Control_c, 0, 64, 0
1, 677646, Note_off_c, 0, 104, 63
1, 677674, Note_on_c, 0, 92, 79
1, 677679, Note_on_c, 0, 60, 70
1, 677722, Note_off_c, 0, 60, 54
1, 677726, Note_off_c, 0, 92, 65
1, 677729, Note_on_c, 0, 94, 85
1, 677746, Note_on_c, 0, 67, 73
1, 677768, Note_off_c, 0, 94, 62
1, 677779, Note_off_c, 0, 67, 60
1, 677797, Note_on_c, 0, 92, 86
1, 677803, Control_c, 0, 64, 35
1, 677815, Note_on_c, 0, 64, 79
1, 677817, Control_c, 0, 64, 37
1, 677835, Note_on_c, 0, 94, 81
1, 677838, Note_off_c, 0, 92, 67
1, 677847, Control_c, 0, 64, 36
1, 677862, Control_c, 0, 64, 34
1, 677868, Note_off_c, 0, 64, 64
1, 677869, Note_off_c, 0, 94, 57
1, 677874, Note_on_c, 0, 67, 74
1, 677877, Control_c, 0, 64, 33
1, 677897, Note_off_c, 0, 67, 69
1, 677898, Note_on_c, 0, 92, 63
1, 677907, Note_on_c, 0, 94, 73
1, 677924, Note_off_c, 0, 92, 0
1, 677945, Note_off_c, 0, 94, 60
1, 677948, Note_on_c, 0, 76, 91
1, 677960, Poly_aftertouch_c, 0, 92, 127
1, 677965, Control_c, 0, 64, 34
1, 677968, Note_off_c, 0, 76, 68
1, 677980, Poly_aftertouch_c, 0, 92, 0
1, 677980, Control_c, 0, 64, 36
1, 677995, Control_c, 0, 64, 38
1, 678010, Control_c, 0, 64, 40
1, 678025, Control_c, 0, 64, 42
1, 678039, Control_c, 0, 64, 43
1, 678059, Note_on_c, 0, 96, 93
1, 678069, Control_c, 0, 64, 43
1, 678098, Control_c, 0, 64, 44
1, 678113, Control_c, 0, 64, 45
1, 678128, Control_c, 0, 64, 46
1, 678141, Note_on_c, 0, 95, 89
1, 678143, Control_c, 0, 64, 47
1, 678171, Note_off_c, 0, 96, 63
1, 678172, Control_c, 0, 64, 47
1, 678214, Note_off_c, 0, 95, 66
1, 678219, Note_on_c, 0, 88, 81
1, 678232, Control_c, 0, 64, 47
1, 678247, Control_c, 0, 64, 46
1, 678262, Control_c, 0, 64, 45
1, 678262, Note_off_c, 0, 88, 63
1, 678283, Control_c, 0, 64, 43
1, 678298, Control_c, 0, 64, 42
1, 678311, Note_on_c, 0, 65, 78
1, 678315, Control_c, 0, 64, 41
1, 678318, Note_on_c, 0, 83, 94
1, 678328, Note_on_c, 0, 79, 81
1, 678330, Control_c, 0, 64, 39
1, 678344, Control_c, 0, 64, 37
1, 678345, Note_off_c, 0, 79, 71
1, 678357, Note_off_c, 0, 83, 67
1, 678359, Control_c, 0, 64, 36
1, 678374, Control_c, 0, 64, 35
1, 678381, Note_off_c, 0, 65, 62
1, 678399, Note_on_c, 0, 66, 71
1, 678403, Control_c, 0, 64, 34
1, 678403, Control_c, 0, 67, 8
1, 678448, Control_c, 0, 64, 35
1, 678477, Control_c, 0, 67, 8
1, 678487, Note_off_c, 0, 66, 57
1, 678491, Note_on_c, 0, 67, 68
1, 678496, Note_on_c, 0, 88, 93
1, 678566, Control_c, 0, 67, 9
1, 678570, Note_on_c, 0, 84, 76
1, 678575, Note_on_c, 0, 68, 81
1, 678580, Note_off_c, 0, 67, 57
1, 678581, Control_c, 0, 67, 10
1, 678589, Note_off_c, 0, 88, 57
1, 678595, Control_c, 0, 67, 11
1, 678610, Control_c, 0, 67, 12
1, 678625, Control_c, 0, 67, 13
1, 678637, Note_off_c, 0, 68, 60
1, 678637, Note_off_c, 0, 84, 65
1, 678640, Control_c, 0, 64, 34
1, 678640, Control_c, 0, 67, 15
1, 678653, Note_on_c, 0, 80, 85
1, 678655, Control_c, 0, 67, 17
1, 678664, Note_on_c, 0, 72, 80
1, 678666, Note_on_c, 0, 62, 75
1, 678668, Note_on_c, 0, 76, 75
1, 678670, Control_c, 0, 67, 18
1, 678689, Note_off_c, 0, 80, 63
1, 678691, Note_off_c, 0, 76, 69
1, 678700, Control_c, 0, 64, 33
1, 678711, Note_off_c, 0, 72, 60
1, 678714, Control_c, 0, 67, 17
1, 678744, Control_c, 0, 67, 17
1, 678753, Note_on_c, 0, 63, 78
1, 678759, Control_c, 0, 64, 32
1, 678765, Note_off_c, 0, 62, 57
1, 678788, Control_c, 0, 64, 31
1, 678788, Control_c, 0, 67, 16
1, 678803, Control_c, 0, 64, 30
1, 678833, Control_c, 0, 64, 29
1, 678841, Note_off_c, 0, 63, 62
1, 678845, Note_on_c, 0, 64, 75
1, 678848, Control_c, 0, 64, 28
1, 678848, Control_c, 0, 67, 17
1, 678853, Note_on_c, 0, 84, 78
1, 678863, Control_c, 0, 64, 27
1, 678907, Control_c, 0, 64, 26
1, 678917, Note_on_c, 0, 81, 68
1, 678923, Note_off_c, 0, 64, 63
1, 678928, Note_on_c, 0, 65, 75
1, 678937, Control_c, 0, 64, 24
1, 678947, Note_off_c, 0, 84, 58
1, 678952, Control_c, 0, 64, 23
1, 678992, Note_off_c, 0, 65, 64
1, 679010, Note_on_c, 0, 59, 75
1, 679011, Control_c, 0, 67, 17
1, 679013, Note_on_c, 0, 76, 78
1, 679016, Note_on_c, 0, 73, 73
1, 679016, Note_off_c, 0, 81, 62
1, 679019, Note_on_c, 0, 69, 71
1, 679049, Note_off_c, 0, 76, 64
1, 679051, Note_off_c, 0, 73, 65
1, 679063, Control_c, 0, 67, 18
1, 679079, Note_off_c, 0, 69, 58
1, 679093, Control_c, 0, 67, 19
1, 679111, Note_on_c, 0, 60, 76
1, 679123, Control_c, 0, 67, 19
1, 679130, Note_off_c, 0, 59, 58
1, 679153, Control_c, 0, 64, 21
1, 679168, Control_c, 0, 64, 17
1, 679168, Control_c, 0, 67, 20
1, 679183, Control_c, 0, 64, 0
1, 679192, Note_off_c, 0, 60, 64
1, 679196, Note_on_c, 0, 61, 74
1, 679198, Control_c, 0, 67, 20
1, 679207, Note_on_c, 0, 81, 79
1, 679212, Control_c, 0, 67, 21
1, 679227, Control_c, 0, 67, 21
1, 679264, Note_off_c, 0, 61, 63
1, 679275, Note_on_c, 0, 62, 70
1, 679297, Note_on_c, 0, 77, 73
1, 679319, Note_off_c, 0, 81, 39
1, 679338, Note_off_c, 0, 62, 61
1, 679365, Note_on_c, 0, 73, 87
1, 679367, Note_off_c, 0, 77, 61
1, 679369, Note_on_c, 0, 55, 79
1, 679373, Note_on_c, 0, 65, 74
1, 679379, Note_on_c, 0, 69, 58
1, 679392, Note_off_c, 0, 73, 64
1, 679399, Note_off_c, 0, 69, 64
1, 679408, Note_off_c, 0, 65, 60
1, 679461, Note_on_c, 0, 56, 79
1, 679465, Control_c, 0, 67, 22
1, 679469, Note_off_c, 0, 55, 59
1, 679479, Control_c, 0, 67, 22
1, 679509, Control_c, 0, 67, 23
1, 679535, Note_off_c, 0, 56, 65
1, 679552, Note_on_c, 0, 57, 68
1, 679555, Note_on_c, 0, 77, 79
1, 679621, Note_off_c, 0, 57, 58
1, 679623, Note_on_c, 0, 74, 76
1, 679629, Note_on_c, 0, 58, 77
1, 679642, Control_c, 0, 67, 22
1, 679653, Note_off_c, 0, 77, 59
1, 679657, Control_c, 0, 67, 22
1, 679686, Control_c, 0, 67, 21
1, 679698, Note_off_c, 0, 58, 63
1, 679704, Note_off_c, 0, 74, 65
1, 679711, Note_on_c, 0, 69, 76
1, 679716, Control_c, 0, 67, 21
1, 679719, Note_on_c, 0, 64, 79
1, 679725, Note_on_c, 0, 50, 77
1, 679735, Note_on_c, 0, 65, 60
1, 679737, Note_off_c, 0, 69, 65
1, 679740, Note_off_c, 0, 64, 71
1, 679758, Note_off_c, 0, 65, 66
1, 679783, Control_c, 0, 67, 20
1, 679815, Note_on_c, 0, 51, 82
1, 679827, Control_c, 0, 67, 20
1, 679845, Note_off_c, 0, 50, 65
1, 679856, Control_c, 0, 67, 19
1, 679899, Note_off_c, 0, 51, 64
1, 679900, Note_on_c, 0, 52, 79
1, 679918, Note_on_c, 0, 73, 75
1, 679976, Note_off_c, 0, 52, 63
1, 679978, Note_on_c, 0, 69, 71
1, 679983, Note_on_c, 0, 53, 84
1, 680008, Note_off_c, 0, 73, 62
1, 680028, Note_off_c, 0, 53, 66
1, 680035, Control_c, 0, 67, 19
1, 680050, Control_c, 0, 67, 18
1, 680058, Note_on_c, 0, 54, 71
1, 680063, Note_off_c, 0, 69, 65
1, 680077, Note_on_c, 0, 64, 74
1, 680077, Note_on_c, 0, 59, 73
1, 680080, Control_c, 0, 67, 17
1, 680084, Note_off_c, 0, 54, 67
1, 680095, Control_c, 0, 67, 17
1, 680098, Note_on_c, 0, 43, 69
1, 680101, Note_off_c, 0, 59, 66
1, 680104, Note_off_c, 0, 64, 67
1, 680110, Control_c, 0, 67, 16
1, 680125, Control_c, 0, 67, 15
1, 680154, Control_c, 0, 67, 15
1, 680186, Note_on_c, 0, 45, 68
1, 680216, Note_off_c, 0, 43, 57
1, 680228, Note_on_c, 0, 46, 84
1, 680241, Note_off_c, 0, 45, 64
1, 680243, Control_c, 0, 67, 15
1, 680246, Note_on_c, 0, 67, 82
1, 680258, Control_c, 0, 67, 16
1, 680287, Control_c, 0, 67, 16
1, 680318, Note_off_c, 0, 46, 63
1, 680319, Note_on_c, 0, 47, 81
1, 680333, Note_on_c, 0, 64, 85
1, 680349, Note_off_c, 0, 67, 55
1, 680361, Control_c, 0, 67, 16
1, 680376, Control_c, 0, 67, 15
1, 680391, Control_c, 0, 67, 12
1, 680406, Control_c, 0, 67, 8
1, 680411, Note_off_c, 0, 47, 63
1, 680412, Note_on_c, 0, 48, 79
1, 680418, Note_on_c, 0, 60, 89
1, 680418, Note_off_c, 0, 64, 65
1, 680421, Control_c, 0, 64, 37
1, 680421, Control_c, 0, 67, 0
1, 680435, Control_c, 0, 64, 67
1, 680438, Note_off_c, 0, 48, 67
1, 680450, Control_c, 0, 64, 77
1, 680465, Control_c, 0, 64, 88
1, 680479, Control_c, 0, 64, 102
1, 680494, Control_c, 0, 64, 109
1, 680501, Note_on_c, 0, 55, 91
1, 680576, Control_c, 0, 64, 104
1, 680591, Control_c, 0, 64, 91
1, 680593, Note_on_c, 0, 64, 95
1, 680606, Control_c, 0, 64, 74
1, 680615, Note_off_c, 0, 55, 62
1, 680621, Control_c, 0, 64, 19
1, 680635, Control_c, 0, 64, 0
1, 680651, Note_off_c, 0, 64, 65
1, 680652, Note_off_c, 0, 60, 65
1, 680673, Note_on_c, 0, 64, 64
1, 680676, Note_on_c, 0, 72, 82
1, 680710, Note_off_c, 0, 72, 65
1, 680715, Note_off_c, 0, 64, 65
1, 680764, Note_on_c, 0, 76, 94
1, 680790, Note_on_c, 0, 67, 65
1, 680798, Control_c, 0, 64, 46
1, 680803, Note_on_c, 0, 68, 43
1, 680810, Note_off_c, 0, 76, 64
1, 680813, Control_c, 0, 64, 68
1, 680828, Control_c, 0, 64, 75
1, 680843, Note_on_c, 0, 77, 92
1, 680843, Control_c, 0, 64, 83
1, 680846, Note_off_c, 0, 68, 47
1, 680849, Note_on_c, 0, 72, 82
1, 680854, Note_off_c, 0, 67, 61
1, 680857, Control_c, 0, 64, 89
1, 680872, Control_c, 0, 64, 92
1, 680898, Note_off_c, 0, 72, 66
1, 680901, Note_off_c, 0, 77, 66
1, 680916, Control_c, 0, 64, 90
1, 680926, Note_on_c, 0, 79, 98
1, 680931, Control_c, 0, 64, 86
1, 680944, Note_on_c, 0, 76, 78
1, 680946, Control_c, 0, 64, 81
1, 680961, Control_c, 0, 64, 77
1, 680962, Note_off_c, 0, 76, 67
1, 680975, Control_c, 0, 64, 72
1, 680990, Control_c, 0, 64, 66
1, 681005, Control_c, 0, 64, 61
1, 681010, Note_on_c, 0, 76, 83
1, 681020, Control_c, 0, 64, 53
1, 681035, Control_c, 0, 64, 42
1, 681048, Note_off_c, 0, 79, 53
1, 681049, Control_c, 0, 64, 27
1, 681064, Control_c, 0, 64, 0
1, 681102, Note_on_c, 0, 53, 85
1, 681105, Note_on_c, 0, 71, 89
1, 681109, Note_on_c, 0, 67, 85
1, 681123, Note_off_c, 0, 76, 61
1, 681144, Note_off_c, 0, 67, 63
1, 681150, Note_off_c, 0, 71, 65
1, 681189, Note_on_c, 0, 64, 76
1, 681253, Note_off_c, 0, 64, 63
1, 681278, Note_off_c, 0, 53, 44
1, 681287, Note_on_c, 0, 60, 82
1, 681301, Note_on_c, 0, 76, 84
1, 681359, Note_off_c, 0, 60, 61
1, 681381, Note_on_c, 0, 57, 80
1, 681381, Note_on_c, 0, 72, 79
1, 681401, Note_off_c, 0, 76, 57
1, 681409, Note_off_c, 0, 57, 66
1, 681450, Note_off_c, 0, 72, 62
1, 681459, Note_on_c, 0, 50, 85
1, 681460, Note_on_c, 0, 68, 88
1, 681481, Note_on_c, 0, 64, 73
1, 681500, Note_off_c, 0, 68, 66
1, 681506, Note_off_c, 0, 64, 70
1, 681550, Note_on_c, 0, 60, 81
1, 681630, Note_off_c, 0, 60, 62
1, 681647, Note_on_c, 0, 57, 85
1, 681648, Note_on_c, 0, 72, 82
1, 681660, Note_off_c, 0, 50, 54
1, 681722, Note_on_c, 0, 69, 73
1, 681723, Note_off_c, 0, 57, 60
1, 681739, Note_on_c, 0, 53, 85
1, 681746, Note_off_c, 0, 72, 59
1, 681768, Note_off_c, 0, 53, 68
1, 681814, Note_on_c, 0, 47, 86
1, 681814, Note_on_c, 0, 64, 80
1, 681821, Note_on_c, 0, 61, 85
1, 681830, Note_off_c, 0, 69, 63
1, 681853, Note_off_c, 0, 61, 64
1, 681859, Note_off_c, 0, 64, 64
1, 681898, Note_on_c, 0, 57, 78
1, 681970, Note_off_c, 0, 57, 61
1, 682000, Note_on_c, 0, 53, 83
1, 682000, Note_off_c, 0, 47, 47
1, 682009, Note_on_c, 0, 69, 83
1, 682080, Note_off_c, 0, 53, 65
1, 682096, Note_on_c, 0, 50, 85
1, 682099, Note_on_c, 0, 65, 73
1, 682128, Note_off_c, 0, 69, 39
1, 682145, Note_off_c, 0, 50, 66
1, 682181, Note_on_c, 0, 61, 91
1, 682182, Note_off_c, 0, 65, 63
1, 682184, Note_on_c, 0, 43, 91
1, 682197, Note_on_c, 0, 57, 79
1, 682223, Note_off_c, 0, 57, 66
1, 682226, Note_off_c, 0, 61, 66
1, 682273, Note_on_c, 0, 53, 79
1, 682289, Note_off_c, 0, 43, 63
1, 682333, Note_off_c, 0, 53, 65
1, 682367, Note_on_c, 0, 65, 81
1, 682369, Note_on_c, 0, 47, 84
1, 682439, Note_on_c, 0, 62, 74
1, 682444, Note_off_c, 0, 47, 65
1, 682444, Note_on_c, 0, 43, 85
1, 682461, Note_off_c, 0, 65, 45
1, 682514, Note_off_c, 0, 43, 64
1, 682523, Note_on_c, 0, 57, 80
1, 682524, Note_off_c, 0, 62, 61
1, 682525, Note_on_c, 0, 38, 86
1, 682552, Note_on_c, 0, 53, 68
1, 682569, Note_off_c, 0, 57, 63
1, 682580, Note_off_c, 0, 53, 67
1, 682603, Note_off_c, 0, 38, 59
1, 682621, Note_on_c, 0, 52, 84
1, 682674, Note_off_c, 0, 52, 62
1, 682700, Note_on_c, 0, 61, 72
1, 682703, Note_on_c, 0, 45, 93
1, 682786, Note_on_c, 0, 57, 64
1, 682791, Note_on_c, 0, 41, 92
1, 682793, Note_off_c, 0, 45, 65
1, 682807, Note_off_c, 0, 61, 62
1, 682867, Note_off_c, 0, 57, 63
1, 682869, Note_on_c, 0, 52, 80
1, 682873, Note_on_c, 0, 47, 75
1, 682873, Note_on_c, 0, 43, 91
1, 682880, Note_off_c, 0, 41, 63
1, 682896, Note_off_c, 0, 47, 68
1, 682912, Note_off_c, 0, 52, 61
1, 682930, Note_off_c, 0, 43, 63
1, 682963, Note_on_c, 0, 52, 72
1, 683022, Note_off_c, 0, 52, 62
1, 683048, Note_on_c, 0, 55, 82
1, 683058, Note_on_c, 0, 47, 93
1, 683128, Note_on_c, 0, 52, 90
1, 683134, Note_on_c, 0, 43, 86
1, 683135, Note_off_c, 0, 55, 63
1, 683139, Note_off_c, 0, 47, 66
1, 683193, Note_off_c, 0, 43, 65
1, 683197, Note_off_c, 0, 52, 65
1, 683229, Note_on_c, 0, 48, 96
1, 683237, Note_on_c, 0, 36, 94
1, 683252, Control_c, 0, 64, 47
1, 683266, Control_c, 0, 64, 74
1, 683281, Control_c, 0, 64, 106
1, 683285, Note_off_c, 0, 48, 65
1, 683287, Note_off_c, 0, 36, 66
1, 683296, Control_c, 0, 64, 127
1, 683474, Control_c, 0, 67, 8
1, 683489, Control_c, 0, 64, 85
1, 683489, Control_c, 0, 67, 12
1, 683503, Control_c, 0, 64, 60
1, 683503, Control_c, 0, 67, 18
1, 683526, Control_c, 0, 64, 0
1, 683526, Control_c, 0, 67, 25
1, 683541, Control_c, 0, 67, 32
1, 683556, Control_c, 0, 67, 38
1, 683571, Control_c, 0, 67, 44
1, 683585, Control_c, 0, 67, 48
1, 683600, Control_c, 0, 67, 50
1, 683615, Control_c, 0, 67, 52
1, 683630, Control_c, 0, 67, 53
1, 683645, Control_c, 0, 67, 53
1, 683659, Control_c, 0, 67, 54
1, 683674, Control_c, 0, 67, 54
1, 683685, Note_on_c, 0, 52, 64
1, 683686, Note_on_c, 0, 36, 67
1, 683687, Note_on_c, 0, 49, 67
1, 683689, Control_c, 0, 67, 55
1, 683703, Control_c, 0, 67, 56
1, 683718, Control_c, 0, 67, 58
1, 683729, Note_off_c, 0, 49, 62
1, 683733, Control_c, 0, 67, 60
1, 683745, Note_off_c, 0, 52, 54
1, 683748, Control_c, 0, 67, 64
1, 683763, Control_c, 0, 67, 67
1, 683766, Note_on_c, 0, 58, 72
1, 683777, Control_c, 0, 67, 69
1, 683792, Control_c, 0, 67, 71
1, 683807, Control_c, 0, 67, 72
1, 683809, Note_off_c, 0, 36, 42
1, 683821, Control_c, 0, 67, 74
1, 683836, Control_c, 0, 67, 75
1, 683851, Note_on_c, 0, 48, 70
1, 683851, Control_c, 0, 67, 76
1, 683866, Control_c, 0, 67, 77
1, 683872, Note_on_c, 0, 61, 65
1, 683878, Note_off_c, 0, 58, 54
1, 683881, Control_c, 0, 67, 77
1, 683888, Note_off_c, 0, 48, 65
1, 683897, Control_c, 0, 67, 78
1, 683945, Note_on_c, 0, 64, 56
1, 683956, Control_c, 0, 67, 77
1, 683971, Control_c, 0, 67, 76
1, 683972, Note_off_c, 0, 61, 60
1, 683975, Note_off_c, 0, 64, 63
1, 683986, Control_c, 0, 67, 74
1, 684000, Control_c, 0, 67, 73
1, 684015, Control_c, 0, 67, 73
1, 684030, Control_c, 0, 67, 72
1, 684031, Note_on_c, 0, 54, 59
1, 684036, Note_on_c, 0, 40, 66
1, 684038, Note_on_c, 0, 47, 54
1, 684060, Control_c, 0, 67, 72
1, 684067, Note_off_c, 0, 47, 64
1, 684071, Note_off_c, 0, 54, 64
1, 684115, Note_off_c, 0, 40, 52
1, 684119, Control_c, 0, 67, 72
1, 684124, Note_on_c, 0, 62, 56
1, 684134, Control_c, 0, 67, 73
1, 684149, Control_c, 0, 67, 74
1, 684164, Control_c, 0, 67, 74
1, 684179, Control_c, 0, 67, 76
1, 684189, Note_on_c, 0, 52, 65
1, 684193, Control_c, 0, 67, 77
1, 684200, Note_on_c, 0, 66, 64
1, 684205, Note_off_c, 0, 62, 57
1, 684208, Control_c, 0, 67, 77
1, 684218, Note_off_c, 0, 52, 64
1, 684223, Control_c, 0, 67, 78
1, 684238, Control_c, 0, 67, 80
1, 684252, Control_c, 0, 67, 83
1, 684274, Control_c, 0, 67, 85
1, 684289, Control_c, 0, 67, 85
1, 684298, Note_on_c, 0, 67, 64
1, 684304, Note_off_c, 0, 66, 60
1, 684344, Note_off_c, 0, 67, 60
1, 684363, Control_c, 0, 67, 86
1, 684376, Note_on_c, 0, 53, 62
1, 684377, Note_on_c, 0, 40, 66
1, 684378, Control_c, 0, 67, 86
1, 684384, Note_on_c, 0, 56, 61
1, 684393, Control_c, 0, 67, 88
1, 684400, Note_off_c, 0, 53, 65
1, 684408, Control_c, 0, 67, 89
1, 684416, Note_off_c, 0, 40, 62
1, 684423, Control_c, 0, 67, 90
1, 684438, Control_c, 0, 67, 91
1, 684444, Note_off_c, 0, 56, 51
1, 684488, Note_on_c, 0, 62, 48
1, 684551, Note_on_c, 0, 52, 64
1, 684553, Note_off_c, 0, 62, 56
1, 684555, Note_on_c, 0, 65, 61
1, 684556, Control_c, 0, 67, 92
1, 684571, Control_c, 0, 67, 92
1, 684581, Note_off_c, 0, 52, 63
1, 684586, Control_c, 0, 67, 93
1, 684600, Control_c, 0, 67, 93
1, 684643, Note_on_c, 0, 68, 61
1, 684644, Note_off_c, 0, 65, 58
1, 684678, Note_off_c, 0, 68, 62
1, 684709, Note_on_c, 0, 44, 67
1, 684711, Note_on_c, 0, 51, 65
1, 684723, Note_on_c, 0, 58, 58
1, 684738, Note_off_c, 0, 51, 65
1, 684747, Note_off_c, 0, 44, 62
1, 684749, Control_c, 0, 67, 94
1, 684757, Note_off_c, 0, 58, 62
1, 684764, Control_c, 0, 67, 94
1, 684814, Note_on_c, 0, 66, 55
1, 684889, Note_on_c, 0, 56, 66
1, 684897, Note_off_c, 0, 66, 59
1, 684906, Note_on_c, 0, 70, 58
1, 684921, Note_off_c, 0, 56, 63
1, 684942, Control_c, 0, 67, 94
1, 684957, Control_c, 0, 67, 93
1, 684966, Note_on_c, 0, 71, 64
1, 684969, Note_off_c, 0, 70, 58
1, 684972, Control_c, 0, 67, 92
1, 684986, Control_c, 0, 67, 92
1, 685001, Control_c, 0, 67, 91
1, 685004, Note_off_c, 0, 71, 60
1, 685023, Control_c, 0, 67, 91
1, 685038, Control_c, 0, 67, 90
1, 685057, Note_on_c, 0, 43, 65
1, 685057, Note_on_c, 0, 56, 62
1, 685069, Note_on_c, 0, 60, 60
1, 685085, Note_off_c, 0, 56, 66
1, 685086, Note_off_c, 0, 43, 64
1, 685134, Note_off_c, 0, 60, 57
1, 685144, Note_on_c, 0, 65, 61
1, 685202, Control_c, 0, 67, 90
1, 685217, Control_c, 0, 67, 89
1, 685228, Note_off_c, 0, 65, 61
1, 685230, Note_on_c, 0, 55, 72
1, 685231, Note_on_c, 0, 68, 70
1, 685262, Note_off_c, 0, 55, 65
1, 685309, Note_off_c, 0, 68, 60
1, 685311, Note_on_c, 0, 72, 62
1, 685320, Control_c, 0, 67, 89
1, 685350, Note_off_c, 0, 72, 59
1, 685350, Control_c, 0, 67, 88
1, 685389, Note_on_c, 0, 54, 75
1, 685397, Note_on_c, 0, 47, 64
1, 685406, Note_on_c, 0, 61, 59
1, 685410, Control_c, 0, 67, 89
1, 685415, Note_off_c, 0, 54, 68
1, 685424, Control_c, 0, 67, 89
1, 685425, Note_off_c, 0, 47, 66
1, 685437, Note_off_c, 0, 61, 61
1, 685477, Note_on_c, 0, 69, 66
1, 685565, Note_on_c, 0, 59, 67
1, 685565, Note_on_c, 0, 73, 71
1, 685574, Note_off_c, 0, 69, 61
1, 685590, Note_off_c, 0, 59, 65
1, 685635, Note_on_c, 0, 74, 61
1, 685660, Note_off_c, 0, 73, 57
1, 685663, Note_off_c, 0, 74, 66
1, 685677, Control_c, 0, 67, 89
1, 685706, Control_c, 0, 67, 88
1, 685728, Note_on_c, 0, 47, 68
1, 685728, Note_on_c, 0, 60, 69
1, 685734, Note_on_c, 0, 63, 62
1, 685751, Control_c, 0, 67, 89
1, 685753, Note_off_c, 0, 47, 67
1, 685755, Note_off_c, 0, 60, 66
1, 685799, Note_off_c, 0, 63, 55
1, 685831, Note_on_c, 0, 69, 52
1, 685906, Note_on_c, 0, 72, 63
1, 685908, Note_off_c, 0, 69, 58
1, 685914, Note_on_c, 0, 59, 66
1, 685939, Note_off_c, 0, 59, 64
1, 685951, Control_c, 0, 67, 89
1, 685975, Note_off_c, 0, 72, 63
1, 685981, Note_on_c, 0, 75, 62
1, 686010, Control_c, 0, 67, 89
1, 686019, Note_off_c, 0, 75, 59
1, 686039, Control_c, 0, 67, 88
1, 686060, Note_on_c, 0, 58, 72
1, 686063, Note_on_c, 0, 51, 73
1, 686074, Note_on_c, 0, 65, 50
1, 686085, Note_off_c, 0, 58, 68
1, 686100, Note_off_c, 0, 51, 65
1, 686104, Note_off_c, 0, 65, 57
1, 686113, Control_c, 0, 67, 89
1, 686142, Note_on_c, 0, 73, 63
1, 686188, Control_c, 0, 67, 88
1, 686217, Control_c, 0, 67, 88
1, 686224, Note_on_c, 0, 63, 73
1, 686241, Note_on_c, 0, 77, 50
1, 686246, Note_off_c, 0, 73, 57
1, 686248, Note_off_c, 0, 63, 69
1, 686271, Note_on_c, 0, 76, 35
1, 686292, Control_c, 0, 67, 87
1, 686307, Control_c, 0, 67, 87
1, 686308, Note_on_c, 0, 78, 69
1, 686309, Note_off_c, 0, 76, 52
1, 686322, Note_off_c, 0, 77, 62
1, 686322, Control_c, 0, 67, 86
1, 686337, Control_c, 0, 67, 86
1, 686352, Control_c, 0, 67, 85
1, 686359, Note_off_c, 0, 78, 60
1, 686367, Control_c, 0, 67, 85
1, 686388, Note_on_c, 0, 51, 77
1, 686391, Note_on_c, 0, 64, 68
1, 686401, Note_on_c, 0, 67, 64
1, 686410, Note_off_c, 0, 64, 65
1, 686415, Note_off_c, 0, 51, 66
1, 686426, Control_c, 0, 67, 85
1, 686456, Control_c, 0, 67, 86
1, 686474, Note_on_c, 0, 73, 65
1, 686477, Note_off_c, 0, 67, 56
1, 686485, Control_c, 0, 67, 86
1, 686522, Control_c, 0, 67, 87
1, 686537, Control_c, 0, 67, 87
1, 686548, Note_on_c, 0, 76, 61
1, 686551, Control_c, 0, 67, 88
1, 686554, Note_on_c, 0, 63, 80
1, 686562, Note_off_c, 0, 73, 57
1, 686566, Control_c, 0, 67, 88
1, 686577, Note_off_c, 0, 63, 67
1, 686581, Control_c, 0, 67, 89
1, 686596, Control_c, 0, 67, 89
1, 686623, Note_off_c, 0, 76, 63
1, 686635, Note_on_c, 0, 79, 53
1, 686654, Control_c, 0, 67, 89
1, 686657, Note_off_c, 0, 79, 62
1, 686669, Control_c, 0, 67, 88
1, 686684, Control_c, 0, 67, 87
1, 686699, Control_c, 0, 67, 86
1, 686709, Note_on_c, 0, 69, 58
1, 686714, Control_c, 0, 67, 86
1, 686716, Note_on_c, 0, 62, 80
1, 686721, Note_on_c, 0, 55, 73
1, 686728, Control_c, 0, 67, 85
1, 686739, Note_off_c, 0, 62, 69
1, 686750, Note_off_c, 0, 55, 66
1, 686762, Note_off_c, 0, 69, 51
1, 686773, Control_c, 0, 67, 85
1, 686788, Control_c, 0, 67, 84
1, 686792, Note_on_c, 0, 77, 57
1, 686802, Control_c, 0, 67, 84
1, 686832, Control_c, 0, 67, 83
1, 686871, Note_on_c, 0, 67, 82
1, 686872, Note_on_c, 0, 81, 66
1, 686898, Note_off_c, 0, 77, 57
1, 686915, Note_off_c, 0, 67, 62
1, 686921, Control_c, 0, 67, 83
1, 686944, Note_on_c, 0, 82, 78
1, 686955, Note_off_c, 0, 81, 60
1, 686966, Control_c, 0, 67, 83
1, 686995, Control_c, 0, 67, 82
1, 687005, Note_off_c, 0, 82, 62
1, 687031, Note_on_c, 0, 68, 82
1, 687036, Note_on_c, 0, 55, 74
1, 687038, Note_on_c, 0, 71, 73
1, 687053, Note_off_c, 0, 68, 66
1, 687058, Note_off_c, 0, 55, 67
1, 687069, Control_c, 0, 67, 83
1, 687094, Note_off_c, 0, 71, 54
1, 687108, Note_on_c, 0, 77, 75
1, 687115, Control_c, 0, 67, 82
1, 687130, Control_c, 0, 67, 82
1, 687144, Control_c, 0, 67, 81
1, 687159, Control_c, 0, 67, 80
1, 687174, Control_c, 0, 67, 77
1, 687186, Note_on_c, 0, 67, 84
1, 687189, Control_c, 0, 67, 75
1, 687196, Note_on_c, 0, 80, 76
1, 687201, Note_off_c, 0, 77, 62
1, 687204, Control_c, 0, 67, 72
1, 687218, Control_c, 0, 67, 70
1, 687225, Note_off_c, 0, 67, 64
1, 687233, Control_c, 0, 67, 68
1, 687248, Control_c, 0, 67, 65
1, 687270, Control_c, 0, 67, 62
1, 687278, Note_on_c, 0, 83, 69
1, 687283, Note_off_c, 0, 80, 63
1, 687285, Control_c, 0, 67, 58
1, 687300, Control_c, 0, 67, 53
1, 687315, Control_c, 0, 67, 47
1, 687318, Note_off_c, 0, 83, 64
1, 687329, Control_c, 0, 67, 41
1, 687344, Control_c, 0, 67, 35
1, 687351, Note_on_c, 0, 67, 89
1, 687358, Note_on_c, 0, 60, 75
1, 687359, Control_c, 0, 67, 29
1, 687365, Note_on_c, 0, 74, 69
1, 687371, Note_off_c, 0, 67, 68
1, 687374, Control_c, 0, 67, 25
1, 687381, Note_off_c, 0, 60, 70
1, 687389, Control_c, 0, 67, 22
1, 687404, Control_c, 0, 67, 20
1, 687410, Note_off_c, 0, 74, 56
1, 687418, Control_c, 0, 67, 18
1, 687433, Control_c, 0, 67, 16
1, 687436, Note_on_c, 0, 82, 70
1, 687448, Control_c, 0, 67, 15
1, 687462, Control_c, 0, 67, 12
1, 687477, Control_c, 0, 67, 10
1, 687492, Control_c, 0, 67, 8
1, 687507, Control_c, 0, 67, 0
1, 687508, Note_on_c, 0, 72, 85
1, 687537, Note_off_c, 0, 82, 61
1, 687538, Note_on_c, 0, 86, 56
1, 687544, Note_on_c, 0, 84, 61
1, 687547, Note_off_c, 0, 72, 64
1, 687594, Note_off_c, 0, 84, 51
1, 687599, Note_on_c, 0, 87, 77
1, 687601, Note_off_c, 0, 86, 63
1, 687655, Note_off_c, 0, 87, 64
1, 687664, Note_on_c, 0, 60, 78
1, 687666, Note_on_c, 0, 73, 89
1, 687678, Note_on_c, 0, 76, 74
1, 687694, Note_off_c, 0, 73, 63
1, 687707, Note_off_c, 0, 60, 61
1, 687738, Note_on_c, 0, 82, 83
1, 687765, Note_off_c, 0, 76, 59
1, 687818, Note_on_c, 0, 85, 80
1, 687821, Note_on_c, 0, 72, 87
1, 687833, Note_off_c, 0, 82, 63
1, 687858, Note_off_c, 0, 72, 66
1, 687890, Note_on_c, 0, 88, 74
1, 687893, Note_off_c, 0, 85, 64
1, 687935, Note_off_c, 0, 88, 62
1, 687970, Note_on_c, 0, 71, 102
1, 687974, Note_on_c, 0, 78, 74
1, 687977, Note_on_c, 0, 64, 85
1, 687999, Note_off_c, 0, 64, 72
1, 688000, Note_off_c, 0, 71, 70
1, 688052, Note_off_c, 0, 78, 59
1, 688056, Note_on_c, 0, 86, 71
1, 688134, Note_on_c, 0, 76, 95
1, 688145, Note_on_c, 0, 90, 69
1, 688176, Note_off_c, 0, 76, 64
1, 688194, Note_off_c, 0, 86, 62
1, 688200, Note_on_c, 0, 91, 72
1, 688253, Note_off_c, 0, 90, 57
1, 688254, Note_off_c, 0, 91, 64
1, 688295, Note_on_c, 0, 77, 91
1, 688301, Note_on_c, 0, 63, 68
1, 688304, Note_on_c, 0, 64, 76
1, 688304, Note_on_c, 0, 80, 68
1, 688313, Note_off_c, 0, 77, 70
1, 688321, Note_off_c, 0, 63, 65
1, 688325, Note_on_c, 0, 76, 39
1, 688326, Note_off_c, 0, 76, 127
1, 688328, Note_off_c, 0, 64, 70
1, 688342, Note_off_c, 0, 80, 55
1, 688366, Note_on_c, 0, 86, 62
1, 688436, Note_on_c, 0, 76, 92
1, 688436, Note_on_c, 0, 89, 75
1, 688450, Note_off_c, 0, 86, 61
1, 688483, Note_off_c, 0, 76, 63
1, 688492, Note_on_c, 0, 92, 80
1, 688506, Note_off_c, 0, 89, 64
1, 688533, Note_off_c, 0, 92, 66
1, 688603, Note_on_c, 0, 75, 101
1, 688608, Note_on_c, 0, 95, 109
1, 688610, Note_on_c, 0, 83, 107
1, 688611, Note_on_c, 0, 87, 112
1, 688617, Note_on_c, 0, 76, 85
1, 688620, Note_on_c, 0, 93, 74
1, 688626, Note_off_c, 0, 75, 67
1, 688626, Note_off_c, 0, 83, 69
1, 688626, Control_c, 0, 64, 71
1, 688628, Note_on_c, 0, 69, 57
1, 688631, Note_off_c, 0, 76, 73
1, 688632, Note_on_c, 0, 70, 48
1, 688633, Note_off_c, 0, 70, 127
1, 688633, Note_off_c, 0, 95, 73
1, 688635, Note_off_c, 0, 93, 43
1, 688637, Note_off_c, 0, 87, 61
1, 688641, Control_c, 0, 64, 91
1, 688651, Note_off_c, 0, 69, 61
1, 688656, Control_c, 0, 64, 127
1, 688982, Note_on_c, 0, 71, 113
1, 688990, Control_c, 0, 64, 106
1, 688992, Note_on_c, 0, 68, 97
1, 689005, Control_c, 0, 64, 79
1, 689020, Note_off_c, 0, 71, 70
1, 689020, Note_off_c, 0, 68, 62
1, 689020, Control_c, 0, 64, 53
1, 689035, Control_c, 0, 64, 0
1, 689157, Note_on_c, 0, 59, 102
1, 689163, Note_on_c, 0, 56, 96
1, 689196, Note_off_c, 0, 59, 65
1, 689210, Note_off_c, 0, 56, 68
1, 689370, Note_on_c, 0, 83, 106
1, 689377, Note_on_c, 0, 80, 103
1, 689434, Control_c, 0, 67, 8
1, 689449, Control_c, 0, 67, 8
1, 689464, Control_c, 0, 67, 9
1, 689479, Control_c, 0, 67, 10
1, 689495, Control_c, 0, 67, 11
1, 689517, Control_c, 0, 67, 12
1, 689532, Control_c, 0, 67, 14
1, 689547, Control_c, 0, 67, 16
1, 689562, Control_c, 0, 67, 18
1, 689577, Control_c, 0, 67, 19
1, 689592, Control_c, 0, 67, 20
1, 689665, Control_c, 0, 67, 19
1, 689725, Control_c, 0, 67, 20
1, 689739, Control_c, 0, 67, 22
1, 689745, Note_on_c, 0, 71, 81
1, 689754, Control_c, 0, 67, 27
1, 689769, Control_c, 0, 67, 31
1, 689784, Control_c, 0, 67, 33
1, 689799, Control_c, 0, 67, 34
1, 689872, Control_c, 0, 67, 33
1, 689887, Control_c, 0, 67, 33
1, 689912, Note_on_c, 0, 63, 84
1, 689917, Control_c, 0, 67, 32
1, 689932, Control_c, 0, 64, 19
1, 689932, Control_c, 0, 67, 32
1, 689947, Control_c, 0, 64, 53
1, 689947, Control_c, 0, 67, 31
1, 689962, Control_c, 0, 64, 62
1, 689962, Control_c, 0, 67, 31
1, 689977, Control_c, 0, 64, 65
1, 689977, Control_c, 0, 67, 30
1, 689991, Control_c, 0, 64, 69
1, 690006, Control_c, 0, 64, 73
1, 690006, Control_c, 0, 67, 29
1, 690021, Control_c, 0, 64, 77
1, 690034, Note_off_c, 0, 83, 58
1, 690036, Control_c, 0, 64, 81
1, 690051, Control_c, 0, 64, 83
1, 690065, Control_c, 0, 64, 85
1, 690067, Note_off_c, 0, 80, 62
1, 690070, Note_off_c, 0, 71, 58
1, 690080, Control_c, 0, 64, 87
1, 690095, Control_c, 0, 64, 88
1, 690110, Control_c, 0, 64, 88
1, 690114, Note_on_c, 0, 66, 76
1, 690125, Control_c, 0, 64, 89
1, 690125, Control_c, 0, 67, 30
1, 690139, Control_c, 0, 64, 90
1, 690139, Control_c, 0, 67, 32
1, 690154, Control_c, 0, 67, 34
1, 690169, Control_c, 0, 67, 38
1, 690183, Control_c, 0, 67, 46
1, 690198, Control_c, 0, 67, 56
1, 690213, Control_c, 0, 67, 65
1, 690228, Control_c, 0, 67, 73
1, 690243, Control_c, 0, 67, 83
1, 690265, Control_c, 0, 64, 90
1, 690265, Control_c, 0, 67, 91
1, 690280, Control_c, 0, 64, 89
1, 690280, Control_c, 0, 67, 99
1, 690295, Control_c, 0, 64, 88
1, 690295, Control_c, 0, 67, 106
1, 690310, Control_c, 0, 64, 87
1, 690310, Control_c, 0, 67, 113
1, 690325, Control_c, 0, 64, 85
1, 690325, Control_c, 0, 67, 119
1, 690340, Control_c, 0, 64, 83
1, 690340, Control_c, 0, 67, 126
1, 690355, Control_c, 0, 64, 80
1, 690355, Control_c, 0, 67, 127
1, 690370, Control_c, 0, 64, 77
1, 690385, Control_c, 0, 64, 72
1, 690400, Control_c, 0, 64, 67
1, 690415, Control_c, 0, 64, 60
1, 690430, Control_c, 0, 64, 54
1, 690444, Control_c, 0, 64, 51
1, 690459, Control_c, 0, 64, 50
1, 690474, Control_c, 0, 64, 47
1, 690488, Control_c, 0, 64, 40
1, 690494, Note_on_c, 0, 64, 74
1, 690503, Control_c, 0, 64, 30
1, 690508, Note_on_c, 0, 39, 55
1, 690518, Control_c, 0, 64, 0
1, 690616, Note_off_c, 0, 66, 57
1, 690635, Note_off_c, 0, 63, 60
1, 690658, Note_on_c, 0, 47, 61
1, 690744, Note_off_c, 0, 39, 33
1, 690869, Note_on_c, 0, 63, 59
1, 690886, Note_on_c, 0, 42, 47
1, 690956, Note_off_c, 0, 64, 58
1, 690999, Note_off_c, 0, 47, 36
1, 691273, Note_on_c, 0, 61, 53
1, 691280, Note_on_c, 0, 44, 43
1, 691354, Note_off_c, 0, 42, 54
1, 691359, Note_off_c, 0, 63, 49
1, 691678, Note_on_c, 0, 59, 37
1, 691741, Note_off_c, 0, 61, 48
1, 692069, Note_on_c, 0, 46, 32
1, 692142, Note_off_c, 0, 44, 53
1, 692488, Note_on_c, 0, 47, 31
1, 692577, Note_off_c, 0, 46, 41
1, 692764, Control_c, 0, 64, 53
1, 692779, Control_c, 0, 64, 64
1, 692793, Control_c, 0, 64, 68
1, 692808, Control_c, 0, 64, 72
1, 692823, Control_c, 0, 64, 77
1, 692838, Control_c, 0, 64, 83
1, 692853, Control_c, 0, 64, 90
1, 692868, Control_c, 0, 64, 98
1, 692882, Control_c, 0, 64, 110
1, 692896, Note_off_c, 0, 59, 59
1, 692897, Control_c, 0, 64, 127
1, 693235, Note_off_c, 0, 47, 52
1, 693336, Note_on_c, 0, 35, 88
1, 693342, Note_on_c, 0, 32, 87
1, 693366, Note_off_c, 0, 35, 69
1, 693367, Note_off_c, 0, 32, 68
1, 693378, Control_c, 0, 64, 122
1, 693393, Control_c, 0, 64, 80
1, 693408, Control_c, 0, 64, 0
1, 693729, Note_on_c, 0, 32, 58
1, 693729, Note_on_c, 0, 45, 49
1, 693737, Note_on_c, 0, 48, 60
1, 693759, Note_off_c, 0, 45, 59
1, 693795, Note_off_c, 0, 48, 55
1, 693813, Note_on_c, 0, 54, 57
1, 693880, Note_off_c, 0, 32, 60
1, 693899, Note_off_c, 0, 54, 58
1, 693903, Note_on_c, 0, 44, 65
1, 693910, Note_on_c, 0, 57, 46
1, 693930, Note_off_c, 0, 44, 65
1, 693982, Note_on_c, 0, 60, 57
1, 693998, Note_off_c, 0, 57, 56
1, 694028, Note_off_c, 0, 60, 65
1, 694078, Note_on_c, 0, 50, 62
1, 694081, Note_on_c, 0, 43, 65
1, 694085, Note_on_c, 0, 36, 64
1, 694108, Note_off_c, 0, 43, 65
1, 694121, Note_off_c, 0, 50, 62
1, 694122, Note_off_c, 0, 36, 59
1, 694168, Note_on_c, 0, 58, 61
1, 694248, Note_on_c, 0, 62, 59
1, 694250, Note_off_c, 0, 58, 54
1, 694256, Note_on_c, 0, 48, 59
1, 694285, Note_off_c, 0, 48, 64
1, 694332, Note_on_c, 0, 63, 63
1, 694338, Note_off_c, 0, 62, 60
1, 694368, Note_off_c, 0, 63, 63
1, 694411, Note_on_c, 0, 49, 70
1, 694418, Note_on_c, 0, 52, 58
1, 694439, Note_on_c, 0, 36, 26
1, 694442, Note_off_c, 0, 49, 64
1, 694460, Note_off_c, 0, 52, 57
1, 694483, Note_off_c, 0, 36, 44
1, 694490, Note_on_c, 0, 58, 62
1, 694496, Poly_aftertouch_c, 0, 35, 0
1, 694571, Note_on_c, 0, 61, 71
1, 694575, Note_on_c, 0, 48, 69
1, 694581, Note_off_c, 0, 58, 56
1, 694603, Note_off_c, 0, 48, 64
1, 694659, Note_on_c, 0, 64, 57
1, 694677, Note_off_c, 0, 61, 60
1, 694686, Note_off_c, 0, 64, 65
1, 694730, Note_on_c, 0, 54, 64
1, 694739, Note_on_c, 0, 40, 66
1, 694740, Note_on_c, 0, 47, 60
1, 694773, Note_off_c, 0, 47, 60
1, 694777, Note_off_c, 0, 40, 65
1, 694779, Note_off_c, 0, 54, 62
1, 694820, Note_on_c, 0, 62, 64
1, 694831, Control_c, 0, 67, 126
1, 694846, Control_c, 0, 67, 123
1, 694860, Control_c, 0, 67, 119
1, 694875, Control_c, 0, 67, 114
1, 694891, Control_c, 0, 67, 110
1, 694906, Note_on_c, 0, 52, 70
1, 694906, Control_c, 0, 67, 105
1, 694907, Note_on_c, 0, 66, 71
1, 694918, Note_off_c, 0, 62, 57
1, 694921, Control_c, 0, 67, 102
1, 694935, Control_c, 0, 67, 99
1, 694939, Note_off_c, 0, 52, 64
1, 694950, Control_c, 0, 67, 96
1, 694965, Control_c, 0, 67, 92
1, 694979, Control_c, 0, 67, 88
1, 694981, Note_on_c, 0, 67, 64
1, 694994, Note_off_c, 0, 66, 57
1, 694994, Control_c, 0, 67, 82
1, 695009, Control_c, 0, 67, 77
1, 695023, Note_off_c, 0, 67, 62
1, 695024, Control_c, 0, 67, 72
1, 695039, Control_c, 0, 67, 69
1, 695054, Control_c, 0, 67, 68
1, 695055, Note_on_c, 0, 52, 77
1, 695060, Note_on_c, 0, 39, 75
1, 695074, Note_on_c, 0, 56, 66
1, 695082, Note_off_c, 0, 52, 65
1, 695084, Control_c, 0, 67, 68
1, 695089, Note_off_c, 0, 39, 64
1, 695145, Note_off_c, 0, 56, 57
1, 695165, Note_on_c, 0, 61, 61
1, 695173, Control_c, 0, 67, 69
1, 695188, Control_c, 0, 67, 70
1, 695202, Control_c, 0, 67, 71
1, 695217, Control_c, 0, 67, 72
1, 695232, Note_on_c, 0, 51, 70
1, 695232, Control_c, 0, 67, 73
1, 695245, Note_off_c, 0, 61, 58
1, 695247, Note_on_c, 0, 64, 61
1, 695247, Control_c, 0, 67, 74
1, 695260, Note_off_c, 0, 51, 66
1, 695262, Control_c, 0, 67, 74
1, 695277, Control_c, 0, 67, 75
1, 695291, Control_c, 0, 67, 75
1, 695301, Note_on_c, 0, 68, 64
1, 695321, Note_off_c, 0, 64, 59
1, 695336, Control_c, 0, 67, 75
1, 695351, Control_c, 0, 67, 74
1, 695366, Note_off_c, 0, 68, 59
1, 695381, Control_c, 0, 67, 74
1, 695390, Note_on_c, 0, 50, 78
1, 695391, Note_on_c, 0, 57, 60
1, 695399, Note_on_c, 0, 43, 72
1, 695416, Note_off_c, 0, 50, 70
1, 695423, Note_off_c, 0, 57, 61
1, 695426, Note_off_c, 0, 43, 64
1, 695478, Note_on_c, 0, 65, 51
1, 695506, Control_c, 0, 67, 73
1, 695542, Note_on_c, 0, 70, 68
1, 695562, Note_on_c, 0, 55, 81
1, 695596, Control_c, 0, 67, 74
1, 695598, Note_on_c, 0, 69, 51
1, 695601, Note_off_c, 0, 55, 66
1, 695607, Note_off_c, 0, 65, 39
1, 695651, Note_off_c, 0, 69, 61
1, 695670, Control_c, 0, 67, 73
1, 695688, Note_off_c, 0, 70, 63
1, 695699, Control_c, 0, 67, 73
1, 695725, Note_on_c, 0, 56, 87
1, 695727, Note_on_c, 0, 43, 77
1, 695727, Note_on_c, 0, 59, 65
1, 695756, Note_off_c, 0, 56, 64
1, 695770, Note_off_c, 0, 43, 62
1, 695792, Note_off_c, 0, 59, 50
1, 695805, Note_on_c, 0, 65, 67
1, 695817, Control_c, 0, 67, 72
1, 695832, Control_c, 0, 67, 71
1, 695847, Control_c, 0, 67, 70
1, 695862, Control_c, 0, 67, 70
1, 695877, Control_c, 0, 67, 69
1, 695879, Note_on_c, 0, 55, 82
1, 695894, Note_on_c, 0, 68, 74
1, 695906, Note_off_c, 0, 65, 61
1, 695917, Note_off_c, 0, 55, 65
1, 695937, Control_c, 0, 67, 69
1, 695952, Control_c, 0, 67, 68
1, 695964, Note_on_c, 0, 71, 72
1, 695967, Control_c, 0, 67, 68
1, 695981, Control_c, 0, 67, 67
1, 695992, Note_off_c, 0, 68, 59
1, 696007, Note_off_c, 0, 71, 63
1, 696011, Control_c, 0, 67, 66
1, 696038, Note_on_c, 0, 54, 87
1, 696040, Control_c, 0, 67, 66
1, 696046, Note_on_c, 0, 47, 73
1, 696057, Note_on_c, 0, 61, 68
1, 696072, Note_off_c, 0, 47, 67
1, 696072, Note_off_c, 0, 54, 65
1, 696101, Note_off_c, 0, 61, 54
1, 696132, Note_on_c, 0, 69, 72
1, 696201, Note_on_c, 0, 59, 81
1, 696215, Note_on_c, 0, 73, 78
1, 696229, Note_off_c, 0, 69, 57
1, 696233, Control_c, 0, 67, 66
1, 696253, Note_off_c, 0, 59, 60
1, 696291, Note_on_c, 0, 74, 67
1, 696326, Note_off_c, 0, 73, 61
1, 696329, Note_off_c, 0, 74, 61
1, 696329, Control_c, 0, 67, 65
1, 696344, Control_c, 0, 67, 65
1, 696372, Note_on_c, 0, 60, 87
1, 696376, Note_on_c, 0, 47, 84
1, 696376, Note_on_c, 0, 63, 73
1, 696394, Note_off_c, 0, 60, 66
1, 696402, Note_off_c, 0, 47, 70
1, 696446, Note_off_c, 0, 63, 60
1, 696460, Note_on_c, 0, 69, 63
1, 696463, Control_c, 0, 67, 64
1, 696493, Control_c, 0, 67, 64
1, 696545, Note_on_c, 0, 59, 85
1, 696546, Note_on_c, 0, 72, 65
1, 696552, Note_off_c, 0, 69, 56
1, 696576, Note_off_c, 0, 59, 63
1, 696596, Control_c, 0, 67, 64
1, 696604, Note_on_c, 0, 75, 72
1, 696622, Note_off_c, 0, 72, 60
1, 696660, Note_off_c, 0, 75, 62
1, 696688, Note_on_c, 0, 58, 94
1, 696698, Note_on_c, 0, 51, 72
1, 696698, Note_on_c, 0, 65, 61
1, 696722, Note_off_c, 0, 58, 66
1, 696728, Note_off_c, 0, 51, 66
1, 696756, Note_off_c, 0, 65, 43
1, 696759, Note_on_c, 0, 73, 74
1, 696847, Note_on_c, 0, 63, 84
1, 696848, Note_on_c, 0, 77, 72
1, 696862, Note_off_c, 0, 73, 56
1, 696878, Note_off_c, 0, 63, 63
1, 696893, Control_c, 0, 67, 65
1, 696916, Note_on_c, 0, 78, 81
1, 696934, Note_off_c, 0, 77, 61
1, 696967, Control_c, 0, 67, 64
1, 696982, Control_c, 0, 67, 64
1, 696985, Note_off_c, 0, 78, 61
1, 697004, Control_c, 0, 67, 63
1, 697014, Note_on_c, 0, 64, 97
1, 697019, Control_c, 0, 67, 62
1, 697020, Note_on_c, 0, 51, 89
1, 697027, Note_on_c, 0, 67, 73
1, 697034, Control_c, 0, 67, 62
1, 697042, Note_off_c, 0, 64, 68
1, 697045, Note_off_c, 0, 51, 71
1, 697049, Control_c, 0, 67, 60
1, 697063, Control_c, 0, 67, 57
1, 697078, Control_c, 0, 67, 54
1, 697093, Control_c, 0, 67, 51
1, 697104, Note_on_c, 0, 73, 72
1, 697106, Note_off_c, 0, 67, 57
1, 697108, Control_c, 0, 67, 46
1, 697123, Control_c, 0, 67, 42
1, 697137, Control_c, 0, 67, 36
1, 697152, Control_c, 0, 67, 33
1, 697166, Control_c, 0, 67, 31
1, 697175, Note_on_c, 0, 63, 92
1, 697181, Control_c, 0, 67, 30
1, 697184, Note_on_c, 0, 76, 68
1, 697205, Note_off_c, 0, 73, 60
1, 697213, Note_off_c, 0, 63, 63
1, 697247, Note_on_c, 0, 79, 77
1, 697252, Note_off_c, 0, 76, 63
1, 697293, Note_off_c, 0, 79, 62
1, 697300, Control_c, 0, 67, 30
1, 697315, Control_c, 0, 67, 29
1, 697329, Note_on_c, 0, 51, 99
1, 697329, Control_c, 0, 67, 29
1, 697333, Note_on_c, 0, 44, 83
1, 697340, Note_on_c, 0, 70, 75
1, 697355, Note_off_c, 0, 51, 66
1, 697363, Note_off_c, 0, 44, 68
1, 697399, Note_on_c, 0, 78, 81
1, 697405, Note_off_c, 0, 70, 63
1, 697462, Control_c, 0, 67, 28
1, 697485, Note_on_c, 0, 82, 78
1, 697485, Note_on_c, 0, 56, 96
1, 697495, Note_off_c, 0, 78, 59
1, 697521, Note_off_c, 0, 56, 64
1, 697543, Note_on_c, 0, 83, 80
1, 697578, Note_off_c, 0, 82, 64
1, 697582, Control_c, 0, 67, 27
1, 697596, Control_c, 0, 67, 26
1, 697610, Note_off_c, 0, 83, 64
1, 697611, Control_c, 0, 67, 23
1, 697626, Control_c, 0, 67, 17
1, 697641, Control_c, 0, 67, 13
1, 697642, Note_on_c, 0, 72, 75
1, 697644, Note_on_c, 0, 57, 100
1, 697649, Note_on_c, 0, 44, 93
1, 697656, Control_c, 0, 67, 10
1, 697670, Note_off_c, 0, 57, 68
1, 697670, Note_off_c, 0, 44, 70
1, 697670, Control_c, 0, 67, 0
1, 697722, Note_on_c, 0, 78, 78
1, 697733, Note_off_c, 0, 72, 60
1, 697802, Note_on_c, 0, 81, 73
1, 697806, Note_on_c, 0, 56, 96
1, 697835, Note_off_c, 0, 78, 61
1, 697843, Note_off_c, 0, 56, 69
1, 697868, Note_on_c, 0, 84, 82
1, 697883, Note_off_c, 0, 81, 63
1, 697920, Note_off_c, 0, 84, 64
1, 697967, Note_on_c, 0, 43, 105
1, 697970, Note_on_c, 0, 74, 74
1, 697974, Note_on_c, 0, 36, 91
1, 697998, Note_off_c, 0, 36, 70
1, 697998, Note_off_c, 0, 43, 65
1, 698038, Note_on_c, 0, 82, 73
1, 698061, Note_off_c, 0, 74, 55
1, 698120, Note_on_c, 0, 48, 97
1, 698138, Note_on_c, 0, 86, 68
1, 698166, Note_off_c, 0, 48, 65
1, 698177, Note_off_c, 0, 82, 63
1, 698186, Poly_aftertouch_c, 0, 85, 0
1, 698186, Note_on_c, 0, 87, 78
1, 698213, Note_off_c, 0, 86, 63
1, 698242, Note_off_c, 0, 87, 66
1, 698277, Note_on_c, 0, 49, 105
1, 698278, Note_on_c, 0, 76, 76
1, 698293, Note_on_c, 0, 36, 81
1, 698296, Note_on_c, 0, 37, 63
1, 698312, Note_off_c, 0, 49, 67
1, 698317, Note_off_c, 0, 36, 64
1, 698326, Note_off_c, 0, 37, 56
1, 698363, Note_on_c, 0, 82, 87
1, 698389, Note_off_c, 0, 76, 58
1, 698418, Note_on_c, 0, 85, 80
1, 698433, Note_on_c, 0, 48, 99
1, 698436, Note_on_c, 0, 36, 71
1, 698453, Note_off_c, 0, 82, 63
1, 698454, Note_on_c, 0, 35, 57
1, 698463, Note_off_c, 0, 48, 63
1, 698470, Note_off_c, 0, 36, 64
1, 698484, Note_off_c, 0, 35, 60
1, 698505, Note_on_c, 0, 88, 84
1, 698512, Note_off_c, 0, 85, 65
1, 698584, Note_off_c, 0, 88, 64
1, 698627, Note_on_c, 0, 40, 108
1, 698630, Note_on_c, 0, 28, 97
1, 698630, Note_on_c, 0, 91, 111
1, 698635, Note_on_c, 0, 83, 99
1, 698636, Note_on_c, 0, 79, 107
1, 698650, Control_c, 0, 64, 64
1, 698657, Note_on_c, 0, 89, 56
1, 698658, Note_off_c, 0, 89, 127
1, 698658, Note_off_c, 0, 28, 67
1, 698660, Note_off_c, 0, 40, 70
1, 698661, Note_on_c, 0, 30, 45
1, 698662, Note_off_c, 0, 30, 127
1, 698663, Note_off_c, 0, 79, 64
1, 698663, Note_off_c, 0, 83, 70
1, 698663, Note_off_c, 0, 91, 72
1, 698665, Control_c, 0, 64, 95
1, 698666, Note_on_c, 0, 84, 43
1, 698667, Note_off_c, 0, 84, 127
1, 698680, Control_c, 0, 64, 127
1, 698701, Poly_aftertouch_c, 0, 30, 0
1, 699003, Note_on_c, 0, 71, 107
1, 699007, Note_on_c, 0, 67, 104
1, 699020, Control_c, 0, 64, 94
1, 699031, Note_off_c, 0, 67, 66
1, 699035, Control_c, 0, 64, 50
1, 699038, Note_off_c, 0, 71, 73
1, 699050, Control_c, 0, 64, 0
1, 699170, Note_on_c, 0, 59, 106
1, 699175, Note_on_c, 0, 55, 100
1, 699201, Note_off_c, 0, 55, 70
1, 699207, Note_off_c, 0, 59, 69
1, 699398, Note_on_c, 0, 83, 115
1, 699404, Note_on_c, 0, 79, 105
1, 699591, Control_c, 0, 67, 8
1, 699606, Control_c, 0, 67, 10
1, 699621, Control_c, 0, 67, 12
1, 699636, Control_c, 0, 67, 14
1, 699650, Control_c, 0, 67, 15
1, 699665, Control_c, 0, 67, 15
1, 699680, Control_c, 0, 67, 16
1, 699695, Control_c, 0, 67, 18
1, 699710, Control_c, 0, 67, 19
1, 699724, Control_c, 0, 67, 20
1, 699739, Control_c, 0, 67, 22
1, 699754, Control_c, 0, 67, 24
1, 699769, Control_c, 0, 64, 46
1, 699769, Control_c, 0, 67, 27
1, 699783, Note_on_c, 0, 59, 66
1, 699784, Control_c, 0, 64, 63
1, 699784, Control_c, 0, 67, 31
1, 699799, Control_c, 0, 64, 68
1, 699799, Control_c, 0, 67, 35
1, 699813, Control_c, 0, 64, 74
1, 699813, Control_c, 0, 67, 39
1, 699828, Control_c, 0, 64, 82
1, 699828, Control_c, 0, 67, 43
1, 699840, Note_on_c, 0, 81, 24
1, 699843, Control_c, 0, 64, 89
1, 699843, Control_c, 0, 67, 45
1, 699858, Control_c, 0, 64, 95
1, 699858, Control_c, 0, 67, 47
1, 699863, Note_on_c, 0, 60, 70
1, 699871, Note_off_c, 0, 83, 55
1, 699873, Control_c, 0, 64, 99
1, 699873, Control_c, 0, 67, 48
1, 699874, Note_off_c, 0, 59, 54
1, 699880, Note_off_c, 0, 81, 52
1, 699888, Control_c, 0, 64, 101
1, 699888, Control_c, 0, 67, 49
1, 699898, Note_off_c, 0, 79, 53
1, 699903, Control_c, 0, 67, 50
1, 699918, Control_c, 0, 64, 101
1, 699918, Control_c, 0, 67, 51
1, 699959, Note_on_c, 0, 62, 76
1, 699969, Note_off_c, 0, 60, 57
1, 699977, Control_c, 0, 67, 50
1, 699999, Control_c, 0, 64, 101
1, 700029, Control_c, 0, 64, 94
1, 700033, Note_on_c, 0, 63, 81
1, 700034, Note_off_c, 0, 62, 63
1, 700044, Control_c, 0, 64, 82
1, 700059, Control_c, 0, 64, 69
1, 700073, Control_c, 0, 64, 0
1, 700088, Control_c, 0, 67, 50
1, 700118, Control_c, 0, 67, 49
1, 700120, Note_off_c, 0, 63, 61
1, 700126, Note_on_c, 0, 64, 105
1, 700133, Control_c, 0, 67, 47
1, 700146, Note_on_c, 0, 67, 88
1, 700147, Control_c, 0, 67, 45
1, 700162, Control_c, 0, 67, 44
1, 700165, Note_off_c, 0, 64, 69
1, 700177, Control_c, 0, 67, 42
1, 700192, Control_c, 0, 67, 41
1, 700207, Control_c, 0, 64, 32
1, 700207, Control_c, 0, 67, 41
1, 700220, Note_on_c, 0, 69, 78
1, 700222, Control_c, 0, 64, 36
1, 700226, Note_off_c, 0, 67, 61
1, 700267, Control_c, 0, 67, 42
1, 700281, Control_c, 0, 67, 44
1, 700296, Control_c, 0, 64, 36
1, 700296, Control_c, 0, 67, 46
1, 700311, Control_c, 0, 67, 47
1, 700314, Note_on_c, 0, 70, 77
1, 700326, Control_c, 0, 64, 34
1, 700326, Control_c, 0, 67, 48
1, 700331, Note_off_c, 0, 69, 59
1, 700341, Control_c, 0, 64, 32
1, 700341, Control_c, 0, 67, 49
1, 700355, Control_c, 0, 64, 28
1, 700355, Control_c, 0, 67, 49
1, 700370, Control_c, 0, 64, 17
1, 700385, Control_c, 0, 64, 0
1, 700392, Note_on_c, 0, 71, 74
1, 700414, Control_c, 0, 67, 49
1, 700420, Note_off_c, 0, 70, 63
1, 700429, Control_c, 0, 67, 47
1, 700444, Control_c, 0, 67, 46
1, 700459, Control_c, 0, 67, 45
1, 700473, Note_on_c, 0, 76, 101
1, 700473, Control_c, 0, 67, 44
1, 700476, Note_on_c, 0, 72, 94
1, 700488, Control_c, 0, 67, 42
1, 700503, Control_c, 0, 67, 41
1, 700505, Note_off_c, 0, 71, 65
1, 700511, Note_off_c, 0, 72, 70
1, 700518, Control_c, 0, 67, 39
1, 700525, Note_off_c, 0, 76, 60
1, 700533, Control_c, 0, 67, 38
1, 700547, Control_c, 0, 67, 37
1, 700562, Control_c, 0, 64, 21
1, 700562, Control_c, 0, 67, 36
1, 700571, Note_on_c, 0, 77, 88
1, 700577, Control_c, 0, 64, 31
1, 700592, Control_c, 0, 64, 34
1, 700592, Control_c, 0, 67, 36
1, 700606, Control_c, 0, 64, 35
1, 700621, Control_c, 0, 67, 37
1, 700636, Control_c, 0, 64, 37
1, 700636, Control_c, 0, 67, 38
1, 700645, Note_on_c, 0, 78, 85
1, 700646, Note_off_c, 0, 77, 61
1, 700651, Control_c, 0, 64, 40
1, 700651, Control_c, 0, 67, 38
1, 700667, Control_c, 0, 64, 43
1, 700667, Control_c, 0, 67, 39
1, 700682, Control_c, 0, 64, 48
1, 700682, Control_c, 0, 67, 40
1, 700696, Control_c, 0, 64, 52
1, 700711, Control_c, 0, 64, 54
1, 700711, Control_c, 0, 67, 40
1, 700715, Note_off_c, 0, 78, 62
1, 700726, Control_c, 0, 64, 55
1, 700728, Note_on_c, 0, 79, 80
1, 700749, Control_c, 0, 64, 56
1, 700772, Note_off_c, 0, 79, 62
1, 700778, Control_c, 0, 64, 54
1, 700778, Control_c, 0, 67, 40
1, 700793, Control_c, 0, 64, 49
1, 700793, Control_c, 0, 67, 39
1, 700798, Note_on_c, 0, 83, 105
1, 700808, Control_c, 0, 64, 40
1, 700808, Control_c, 0, 67, 38
1, 700822, Control_c, 0, 64, 29
1, 700822, Control_c, 0, 67, 38
1, 700827, Note_on_c, 0, 79, 79
1, 700828, Note_on_c, 0, 80, 49
1, 700829, Note_off_c, 0, 80, 127
1, 700832, Note_off_c, 0, 83, 74
1, 700833, Note_on_c, 0, 81, 45
1, 700834, Note_off_c, 0, 81, 127
1, 700837, Control_c, 0, 64, 11
1, 700837, Control_c, 0, 67, 37
1, 700852, Control_c, 0, 64, 0
1, 700852, Control_c, 0, 67, 36
1, 700867, Control_c, 0, 67, 36
1, 700882, Control_c, 0, 67, 35
1, 700896, Control_c, 0, 67, 34
1, 700900, Note_on_c, 0, 81, 80
1, 700905, Note_off_c, 0, 79, 57
1, 700926, Control_c, 0, 67, 33
1, 700941, Control_c, 0, 67, 32
1, 700956, Control_c, 0, 67, 30
1, 700967, Note_on_c, 0, 82, 79
1, 700970, Control_c, 0, 67, 30
1, 700979, Note_off_c, 0, 81, 64
1, 701015, Control_c, 0, 67, 30
1, 701030, Control_c, 0, 67, 31
1, 701033, Note_off_c, 0, 82, 63
1, 701045, Control_c, 0, 67, 32
1, 701054, Note_on_c, 0, 83, 78
1, 701060, Control_c, 0, 67, 32
1, 701115, Note_on_c, 0, 47, 76
1, 701128, Note_off_c, 0, 83, 61
1, 701128, Note_on_c, 0, 52, 79
1, 701132, Note_on_c, 0, 55, 84
1, 701134, Control_c, 0, 67, 31
1, 701137, Note_on_c, 0, 60, 98
1, 701137, Note_off_c, 0, 47, 68
1, 701148, Control_c, 0, 67, 30
1, 701155, Note_on_c, 0, 84, 81
1, 701162, Note_off_c, 0, 52, 65
1, 701163, Control_c, 0, 64, 65
1, 701163, Control_c, 0, 67, 28
1, 701165, Note_off_c, 0, 55, 67
1, 701174, Note_off_c, 0, 60, 68
1, 701178, Control_c, 0, 64, 76
1, 701178, Control_c, 0, 67, 25
1, 701193, Control_c, 0, 64, 90
1, 701193, Control_c, 0, 67, 21
1, 701208, Control_c, 0, 64, 111
1, 701208, Control_c, 0, 67, 16
1, 701215, Note_off_c, 0, 84, 59
1, 701222, Control_c, 0, 64, 127
1, 701222, Control_c, 0, 67, 10
1, 701226, Note_on_c, 0, 85, 81
1, 701237, Control_c, 0, 67, 0
1, 701302, Note_off_c, 0, 85, 64
1, 701322, Note_on_c, 0, 84, 78
1, 701326, Control_c, 0, 64, 105
1, 701340, Control_c, 0, 64, 86
1, 701355, Control_c, 0, 64, 73
1, 701370, Control_c, 0, 64, 62
1, 701384, Note_off_c, 0, 84, 59
1, 701385, Control_c, 0, 64, 0
1, 701387, Note_on_c, 0, 54, 6
1, 701406, Note_on_c, 0, 85, 79
1, 701414, Note_off_c, 0, 54, 52
1, 701462, Note_on_c, 0, 47, 77
1, 701474, Note_off_c, 0, 85, 63
1, 701475, Note_on_c, 0, 52, 90
1, 701477, Note_on_c, 0, 55, 85
1, 701477, Note_on_c, 0, 60, 97
1, 701489, Note_off_c, 0, 47, 67
1, 701490, Control_c, 0, 64, 42
1, 701498, Note_on_c, 0, 84, 77
1, 701510, Note_off_c, 0, 52, 67
1, 701510, Note_off_c, 0, 55, 67
1, 701513, Control_c, 0, 64, 71
1, 701520, Note_off_c, 0, 60, 70
1, 701527, Control_c, 0, 64, 92
1, 701542, Control_c, 0, 64, 127
1, 701573, Note_off_c, 0, 84, 62
1, 701580, Note_on_c, 0, 85, 81
1, 701652, Note_off_c, 0, 85, 62
1, 701668, Note_on_c, 0, 84, 73
1, 701734, Control_c, 0, 64, 82
1, 701749, Control_c, 0, 64, 59
1, 701751, Note_off_c, 0, 84, 61
1, 701757, Note_on_c, 0, 85, 74
1, 701764, Control_c, 0, 64, 0
1, 701805, Note_on_c, 0, 48, 74
1, 701811, Note_on_c, 0, 56, 98
1, 701816, Note_on_c, 0, 61, 101
1, 701823, Note_on_c, 0, 53, 80
1, 701832, Note_off_c, 0, 85, 62
1, 701836, Note_off_c, 0, 48, 67
1, 701838, Note_on_c, 0, 84, 81
1, 701846, Note_off_c, 0, 56, 70
1, 701847, Note_off_c, 0, 53, 68
1, 701861, Note_off_c, 0, 61, 65
1, 701867, Control_c, 0, 64, 66
1, 701882, Control_c, 0, 64, 81
1, 701897, Control_c, 0, 64, 105
1, 701909, Note_on_c, 0, 72, 68
1, 701912, Control_c, 0, 64, 127
1, 701918, Note_off_c, 0, 84, 62
1, 701965, Note_off_c, 0, 72, 63
1, 702013, Note_on_c, 0, 84, 76
1, 702077, Note_off_c, 0, 84, 63
1, 702082, Note_on_c, 0, 74, 93
1, 702099, Note_on_c, 0, 83, 80
1, 702105, Control_c, 0, 64, 108
1, 702119, Note_off_c, 0, 74, 71
1, 702119, Control_c, 0, 64, 74
1, 702134, Control_c, 0, 64, 0
1, 702171, Note_on_c, 0, 69, 95
1, 702175, Note_on_c, 0, 71, 90
1, 702182, Note_on_c, 0, 84, 84
1, 702189, Note_off_c, 0, 83, 62
1, 702193, Control_c, 0, 64, 64
1, 702208, Control_c, 0, 64, 78
1, 702223, Control_c, 0, 64, 105
1, 702245, Control_c, 0, 64, 127
1, 702261, Note_off_c, 0, 84, 64
1, 702274, Note_on_c, 0, 85, 80
1, 702297, Note_off_c, 0, 71, 53
1, 702352, Note_on_c, 0, 84, 76
1, 702386, Note_off_c, 0, 69, 61
1, 702386, Note_off_c, 0, 85, 48
1, 702416, Note_on_c, 0, 68, 66
1, 702436, Note_off_c, 0, 68, 64
1, 702446, Note_on_c, 0, 83, 81
1, 702447, Note_on_c, 0, 66, 44
1, 702449, Note_off_c, 0, 84, 60
1, 702454, Control_c, 0, 64, 96
1, 702469, Control_c, 0, 64, 68
1, 702475, Note_off_c, 0, 66, 38
1, 702483, Control_c, 0, 64, 0
1, 702517, Note_off_c, 0, 83, 63
1, 702529, Note_on_c, 0, 60, 100
1, 702534, Note_on_c, 0, 52, 88
1, 702536, Note_on_c, 0, 55, 84
1, 702541, Note_on_c, 0, 56, 56
1, 702542, Note_off_c, 0, 56, 127
1, 702544, Note_on_c, 0, 47, 66
1, 702547, Note_on_c, 0, 84, 92
1, 702557, Control_c, 0, 64, 19
1, 702558, Note_off_c, 0, 55, 70
1, 702561, Note_on_c, 0, 49, 45
1, 702561, Note_off_c, 0, 52, 65
1, 702566, Note_off_c, 0, 47, 64
1, 702572, Control_c, 0, 64, 70
1, 702578, Note_off_c, 0, 60, 67
1, 702587, Control_c, 0, 64, 94
1, 702592, Note_off_c, 0, 49, 55
1, 702601, Control_c, 0, 64, 127
1, 702628, Note_on_c, 0, 85, 90
1, 702638, Note_off_c, 0, 84, 63
1, 702704, Note_off_c, 0, 85, 62
1, 702723, Note_on_c, 0, 84, 88
1, 702779, Control_c, 0, 64, 92
1, 702794, Control_c, 0, 64, 68
1, 702802, Note_on_c, 0, 85, 85
1, 702803, Note_off_c, 0, 84, 61
1, 702809, Control_c, 0, 64, 0
1, 702866, Note_on_c, 0, 47, 82
1, 702874, Note_on_c, 0, 52, 95
1, 702874, Note_on_c, 0, 60, 104
1, 702875, Note_off_c, 0, 85, 63
1, 702878, Note_on_c, 0, 55, 94
1, 702892, Note_off_c, 0, 47, 67
1, 702898, Control_c, 0, 64, 56
1, 702899, Note_on_c, 0, 84, 85
1, 702901, Note_off_c, 0, 55, 68
1, 702904, Note_off_c, 0, 52, 66
1, 702912, Control_c, 0, 64, 81
1, 702913, Note_off_c, 0, 60, 65
1, 702917, Note_on_c, 0, 49, 21
1, 702918, Note_off_c, 0, 49, 127
1, 702927, Control_c, 0, 64, 127
1, 702960, Note_on_c, 0, 85, 83
1, 702963, Poly_aftertouch_c, 0, 49, 0
1, 702973, Note_off_c, 0, 84, 61
1, 703048, Note_off_c, 0, 85, 63
1, 703057, Note_on_c, 0, 84, 75
1, 703140, Note_off_c, 0, 84, 62
1, 703145, Note_on_c, 0, 85, 83
1, 703173, Control_c, 0, 64, 88
1, 703188, Control_c, 0, 64, 60
1, 703203, Control_c, 0, 64, 0
1, 703207, Note_off_c, 0, 85, 65
1, 703215, Note_on_c, 0, 48, 76
1, 703218, Note_on_c, 0, 56, 99
1, 703221, Note_on_c, 0, 61, 102
1, 703230, Note_on_c, 0, 53, 84
1, 703238, Note_on_c, 0, 84, 82
1, 703241, Note_off_c, 0, 48, 65
1, 703254, Note_off_c, 0, 53, 71
1, 703262, Control_c, 0, 64, 46
1, 703265, Note_off_c, 0, 56, 67
1, 703269, Note_off_c, 0, 61, 65
1, 703277, Control_c, 0, 64, 70
1, 703289, Note_on_c, 0, 72, 71
1, 703292, Control_c, 0, 64, 87
1, 703306, Control_c, 0, 64, 127
1, 703312, Note_off_c, 0, 84, 63
1, 703362, Note_off_c, 0, 72, 62
1, 703411, Note_on_c, 0, 84, 80
1, 703468, Note_on_c, 0, 74, 96
1, 703482, Note_off_c, 0, 84, 61
1, 703486, Note_on_c, 0, 83, 85
1, 703513, Note_off_c, 0, 74, 69
1, 703528, Control_c, 0, 64, 73
1, 703543, Control_c, 0, 64, 0
1, 703555, Note_on_c, 0, 84, 71
1, 703560, Note_on_c, 0, 69, 102
1, 703566, Note_off_c, 0, 83, 58
1, 703602, Control_c, 0, 64, 64
1, 703617, Control_c, 0, 64, 78
1, 703623, Note_on_c, 0, 85, 85
1, 703632, Control_c, 0, 64, 127
1, 703639, Note_off_c, 0, 84, 65
1, 703683, Poly_aftertouch_c, 0, 68, 0
1, 703695, Note_on_c, 0, 84, 70
1, 703711, Note_off_c, 0, 85, 65
1, 703751, Note_off_c, 0, 69, 57
1, 703757, Note_on_c, 0, 68, 86
1, 703758, Note_off_c, 0, 84, 64
1, 703770, Note_on_c, 0, 72, 81
1, 703775, Note_off_c, 0, 68, 71
1, 703797, Note_off_c, 0, 72, 64
1, 703847, Control_c, 0, 64, 78
1, 703862, Control_c, 0, 64, 0
1, 703880, Note_on_c, 0, 72, 105
1, 703882, Note_on_c, 0, 67, 96
1, 703883, Note_on_c, 0, 52, 90
1, 703884, Note_on_c, 0, 47, 92
1, 703885, Note_on_c, 0, 64, 92
1, 703894, Note_on_c, 0, 55, 84
1, 703904, Note_off_c, 0, 64, 71
1, 703906, Note_off_c, 0, 67, 67
1, 703907, Control_c, 0, 64, 56
1, 703909, Note_off_c, 0, 52, 67
1, 703915, Note_off_c, 0, 47, 66
1, 703921, Control_c, 0, 64, 77
1, 703924, Note_off_c, 0, 72, 69
1, 703936, Control_c, 0, 64, 105
1, 703951, Control_c, 0, 64, 127
1, 703961, Note_off_c, 0, 55, 65
1, 703999, Note_on_c, 0, 57, 88
1, 704023, Note_on_c, 0, 55, 40
1, 704050, Note_off_c, 0, 55, 60
1, 704073, Note_on_c, 0, 59, 86
1, 704098, Note_off_c, 0, 57, 64
1, 704124, Note_on_c, 0, 60, 92
1, 704135, Note_off_c, 0, 59, 64
1, 704157, Note_on_c, 0, 88, 111
1, 704158, Note_off_c, 0, 60, 69
1, 704163, Note_on_c, 0, 76, 104
1, 704192, Note_off_c, 0, 76, 69
1, 704207, Note_off_c, 0, 88, 67
1, 704243, Note_on_c, 0, 48, 77
1, 704264, Note_on_c, 0, 53, 76
1, 704288, Note_on_c, 0, 56, 82
1, 704291, Note_on_c, 0, 49, 27
1, 704319, Note_on_c, 0, 61, 88
1, 704321, Control_c, 0, 64, 77
1, 704334, Note_off_c, 0, 49, 53
1, 704336, Control_c, 0, 64, 0
1, 704368, Note_on_c, 0, 92, 107
1, 704368, Note_on_c, 0, 85, 105
1, 704370, Note_on_c, 0, 77, 105
1, 704392, Note_on_c, 0, 90, 65
1, 704395, Note_off_c, 0, 48, 63
1, 704410, Control_c, 0, 64, 62
1, 704416, Note_off_c, 0, 53, 66
1, 704423, Note_off_c, 0, 90, 48
1, 704425, Control_c, 0, 64, 78
1, 704440, Control_c, 0, 64, 113
1, 704440, Note_off_c, 0, 56, 66
1, 704449, Note_off_c, 0, 61, 64
1, 704455, Control_c, 0, 64, 127
1, 704578, Note_on_c, 0, 76, 91
1, 704614, Note_off_c, 0, 92, 63
1, 704626, Note_off_c, 0, 77, 47
1, 704663, Note_on_c, 0, 75, 91
1, 704680, Note_off_c, 0, 76, 56
1, 704750, Note_on_c, 0, 74, 86
1, 704759, Note_off_c, 0, 75, 65
1, 704817, Note_on_c, 0, 73, 86
1, 704824, Note_off_c, 0, 74, 66
1, 704854, Note_off_c, 0, 73, 64
1, 704894, Note_on_c, 0, 72, 79
1, 704922, Note_on_c, 0, 89, 85
1, 704923, Note_on_c, 0, 77, 83
1, 704938, Note_off_c, 0, 72, 65
1, 704941, Note_off_c, 0, 85, 58
1, 704949, Note_off_c, 0, 77, 64
1, 704956, Note_off_c, 0, 89, 58
1, 704966, Note_on_c, 0, 71, 82
1, 704997, Control_c, 0, 64, 82
1, 705003, Note_off_c, 0, 71, 62
1, 705012, Control_c, 0, 64, 0
1, 705033, Note_on_c, 0, 85, 102
1, 705035, Note_on_c, 0, 73, 105
1, 705042, Note_on_c, 0, 71, 76
1, 705057, Control_c, 0, 64, 62
1, 705071, Control_c, 0, 64, 75
1, 705074, Note_off_c, 0, 85, 69
1, 705081, Note_off_c, 0, 73, 60
1, 705086, Control_c, 0, 64, 107
1, 705101, Control_c, 0, 64, 127
1, 705128, Note_on_c, 0, 70, 94
1, 705142, Note_off_c, 0, 71, 64
1, 705176, Note_off_c, 0, 70, 69
1, 705197, Note_on_c, 0, 69, 87
1, 705219, Note_off_c, 0, 69, 69
1, 705275, Note_on_c, 0, 80, 98
1, 705277, Note_on_c, 0, 68, 92
1, 705301, Note_off_c, 0, 80, 63
1, 705314, Note_off_c, 0, 68, 60
1, 705345, Control_c, 0, 64, 86
1, 705352, Note_on_c, 0, 47, 89
1, 705354, Note_on_c, 0, 52, 94
1, 705360, Control_c, 0, 64, 23
1, 705373, Control_c, 0, 64, 0
1, 705390, Note_off_c, 0, 47, 61
1, 705409, Note_on_c, 0, 72, 110
1, 705410, Note_on_c, 0, 67, 100
1, 705413, Note_on_c, 0, 64, 96
1, 705418, Control_c, 0, 64, 68
1, 705426, Note_on_c, 0, 55, 87
1, 705430, Note_off_c, 0, 64, 76
1, 705432, Control_c, 0, 64, 88
1, 705434, Note_off_c, 0, 52, 61
1, 705435, Note_off_c, 0, 67, 65
1, 705447, Control_c, 0, 64, 127
1, 705454, Note_off_c, 0, 72, 68
1, 705481, Note_off_c, 0, 55, 65
1, 705514, Note_on_c, 0, 57, 101
1, 705596, Note_on_c, 0, 59, 84
1, 705632, Note_on_c, 0, 60, 88
1, 705638, Note_off_c, 0, 57, 59
1, 705648, Note_off_c, 0, 59, 63
1, 705666, Note_on_c, 0, 88, 103
1, 705672, Note_on_c, 0, 76, 94
1, 705673, Note_off_c, 0, 60, 68
1, 705698, Note_off_c, 0, 76, 57
1, 705709, Note_off_c, 0, 88, 67
1, 705713, Note_on_c, 0, 77, 35
1, 705714, Note_off_c, 0, 77, 127
1, 705751, Note_on_c, 0, 48, 75
1, 705774, Control_c, 0, 64, 84
1, 705777, Note_on_c, 0, 53, 79
1, 705789, Control_c, 0, 64, 0
1, 705793, Note_on_c, 0, 56, 95
1, 705800, Note_on_c, 0, 61, 96
1, 705812, Note_on_c, 0, 77, 104
1, 705812, Note_on_c, 0, 92, 113
1, 705814, Note_on_c, 0, 85, 101
1, 705832, Note_on_c, 0, 90, 72
1, 705848, Control_c, 0, 64, 55
1, 705850, Note_off_c, 0, 90, 64
1, 705851, Note_off_c, 0, 48, 64
1, 705863, Control_c, 0, 64, 70
1, 705865, Note_off_c, 0, 53, 67
1, 705867, Note_on_c, 0, 79, 16
1, 705868, Note_off_c, 0, 79, 127
1, 705875, Note_off_c, 0, 61, 63
1, 705877, Note_off_c, 0, 56, 65
1, 705878, Control_c, 0, 64, 89
1, 705892, Control_c, 0, 64, 127
1, 705942, Note_off_c, 0, 77, 53
1, 706015, Note_off_c, 0, 85, 62
1, 706019, Note_on_c, 0, 74, 79
1, 706022, Note_on_c, 0, 76, 81
1, 706071, Note_off_c, 0, 76, 42
1, 706096, Note_off_c, 0, 74, 42
1, 706100, Note_on_c, 0, 75, 88
1, 706184, Note_on_c, 0, 74, 83
1, 706186, Note_off_c, 0, 75, 62
1, 706233, Note_on_c, 0, 73, 89
1, 706247, Note_off_c, 0, 74, 67
1, 706294, Note_off_c, 0, 73, 66
1, 706305, Note_off_c, 0, 92, 62
1, 706326, Note_on_c, 0, 94, 90
1, 706333, Note_on_c, 0, 72, 86
1, 706335, Note_on_c, 0, 82, 96
1, 706345, Control_c, 0, 64, 103
1, 706360, Control_c, 0, 64, 77
1, 706374, Control_c, 0, 64, 52
1, 706389, Control_c, 0, 64, 0
1, 706390, Note_off_c, 0, 82, 61
1, 706403, Note_off_c, 0, 72, 53
1, 706407, Note_on_c, 0, 71, 89
1, 706490, Note_off_c, 0, 71, 64
1, 706497, Note_on_c, 0, 92, 98
1, 706500, Note_on_c, 0, 72, 85
1, 706503, Note_on_c, 0, 80, 89
1, 706508, Control_c, 0, 64, 49
1, 706523, Control_c, 0, 64, 71
1, 706532, Note_off_c, 0, 94, 65
1, 706538, Control_c, 0, 64, 87
1, 706553, Control_c, 0, 64, 127
1, 706557, Note_off_c, 0, 72, 63
1, 706595, Note_on_c, 0, 74, 94
1, 706603, Note_off_c, 0, 80, 63
1, 706658, Note_off_c, 0, 92, 64
1, 706671, Note_off_c, 0, 74, 63
1, 706673, Note_on_c, 0, 76, 92
1, 706689, Note_off_c, 0, 76, 73
1, 706754, Note_on_c, 0, 77, 91
1, 706767, Control_c, 0, 64, 94
1, 706768, Poly_aftertouch_c, 0, 74, 0
1, 706782, Control_c, 0, 64, 69
1, 706797, Control_c, 0, 64, 0
1, 706816, Note_off_c, 0, 77, 62
1, 706846, Note_on_c, 0, 52, 92
1, 706848, Note_on_c, 0, 55, 92
1, 706849, Note_on_c, 0, 60, 99
1, 706857, Note_on_c, 0, 84, 89
1, 706858, Note_on_c, 0, 47, 57
1, 706885, Note_off_c, 0, 47, 58
1, 706886, Control_c, 0, 64, 53
1, 706893, Note_off_c, 0, 55, 59
1, 706901, Control_c, 0, 64, 72
1, 706906, Note_off_c, 0, 60, 61
1, 706908, Note_off_c, 0, 52, 58
1, 706915, Control_c, 0, 64, 92
1, 706930, Control_c, 0, 64, 127
1, 706940, Note_on_c, 0, 85, 90
1, 706940, Note_off_c, 0, 84, 64
1, 706991, Note_off_c, 0, 85, 67
1, 707024, Note_on_c, 0, 84, 81
1, 707101, Note_off_c, 0, 84, 58
1, 707111, Note_on_c, 0, 85, 85
1, 707130, Note_off_c, 0, 85, 70
1, 707138, Poly_aftertouch_c, 0, 56, 127
1, 707153, Control_c, 0, 64, 82
1, 707168, Control_c, 0, 64, 0
1, 707171, Poly_aftertouch_c, 0, 56, 0
1, 707189, Note_on_c, 0, 47, 78
1, 707193, Note_on_c, 0, 55, 94
1, 707195, Note_on_c, 0, 60, 95
1, 707196, Note_on_c, 0, 52, 93
1, 707214, Note_on_c, 0, 96, 112
1, 707216, Note_off_c, 0, 47, 67
1, 707236, Note_off_c, 0, 60, 66
1, 707238, Note_off_c, 0, 52, 63
1, 707238, Note_off_c, 0, 55, 66
1, 707242, Control_c, 0, 64, 63
1, 707257, Control_c, 0, 64, 76
1, 707272, Control_c, 0, 64, 100
1, 707287, Control_c, 0, 64, 127
1, 707296, Note_on_c, 0, 97, 93
1, 707315, Note_off_c, 0, 96, 61
1, 707376, Note_off_c, 0, 97, 65
1, 707391, Note_on_c, 0, 96, 83
1, 707462, Note_on_c, 0, 97, 78
1, 707465, Note_off_c, 0, 96, 64
1, 707490, Note_off_c, 0, 97, 71
1, 707516, Control_c, 0, 64, 95
1, 707531, Control_c, 0, 64, 52
1, 707546, Control_c, 0, 64, 0
1, 707551, Note_on_c, 0, 48, 76
1, 707552, Note_on_c, 0, 56, 96
1, 707556, Note_on_c, 0, 61, 94
1, 707559, Note_on_c, 0, 53, 88
1, 707579, Note_off_c, 0, 48, 67
1, 707582, Note_on_c, 0, 72, 91
1, 707594, Note_off_c, 0, 53, 65
1, 707599, Note_off_c, 0, 56, 67
1, 707605, Control_c, 0, 64, 45
1, 707606, Note_off_c, 0, 61, 62
1, 707620, Control_c, 0, 64, 74
1, 707635, Control_c, 0, 64, 97
1, 707650, Control_c, 0, 64, 127
1, 707657, Note_on_c, 0, 73, 90
1, 707668, Note_off_c, 0, 72, 55
1, 707730, Note_off_c, 0, 73, 62
1, 707745, Note_on_c, 0, 72, 78
1, 707791, Note_off_c, 0, 72, 63
1, 707811, Note_on_c, 0, 62, 91
1, 707817, Note_on_c, 0, 60, 84
1, 707830, Note_on_c, 0, 84, 78
1, 707854, Note_off_c, 0, 84, 65
1, 707873, Control_c, 0, 64, 102
1, 707887, Control_c, 0, 64, 68
1, 707902, Control_c, 0, 64, 0
1, 707908, Note_on_c, 0, 69, 99
1, 707917, Note_on_c, 0, 84, 90
1, 707969, Note_off_c, 0, 84, 66
1, 707976, Control_c, 0, 64, 58
1, 707991, Control_c, 0, 64, 74
1, 708003, Note_on_c, 0, 85, 91
1, 708006, Control_c, 0, 64, 101
1, 708020, Control_c, 0, 64, 127
1, 708062, Note_off_c, 0, 85, 64
1, 708082, Note_on_c, 0, 84, 81
1, 708127, Note_off_c, 0, 69, 44
1, 708127, Note_on_c, 0, 68, 79
1, 708134, Note_off_c, 0, 84, 62
1, 708135, Note_off_c, 0, 60, 55
1, 708145, Note_off_c, 0, 62, 57
1, 708148, Note_off_c, 0, 68, 71
1, 708169, Note_on_c, 0, 96, 78
1, 708193, Note_off_c, 0, 96, 66
1, 708207, Note_on_c, 0, 95, 26
1, 708208, Note_off_c, 0, 95, 127
1, 708228, Control_c, 0, 64, 81
1, 708250, Control_c, 0, 64, 0
1, 708251, Note_on_c, 0, 54, 99
1, 708262, Note_on_c, 0, 52, 85
1, 708264, Note_on_c, 0, 51, 76
1, 708266, Note_on_c, 0, 59, 72
1, 708267, Note_on_c, 0, 47, 72
1, 708267, Note_on_c, 0, 60, 83
1, 708268, Note_on_c, 0, 96, 103
1, 708268, Note_off_c, 0, 54, 76
1, 708274, Note_on_c, 0, 55, 83
1, 708287, Note_off_c, 0, 47, 67
1, 708289, Note_off_c, 0, 51, 67
1, 708290, Note_off_c, 0, 59, 60
1, 708307, Note_off_c, 0, 52, 55
1, 708309, Control_c, 0, 64, 36
1, 708324, Control_c, 0, 64, 68
1, 708334, Note_off_c, 0, 96, 58
1, 708339, Control_c, 0, 64, 84
1, 708354, Control_c, 0, 64, 127
1, 708362, Note_on_c, 0, 97, 85
1, 708378, Note_off_c, 0, 60, 61
1, 708402, Note_off_c, 0, 55, 0
1, 708402, Note_on_c, 0, 55, 3
1, 708439, Note_on_c, 0, 96, 84
1, 708441, Note_off_c, 0, 55, 41
1, 708442, Note_off_c, 0, 97, 64
1, 708514, Note_on_c, 0, 97, 82
1, 708527, Note_off_c, 0, 96, 57
1, 708557, Note_off_c, 0, 97, 66
1, 708576, Control_c, 0, 64, 75
1, 708591, Control_c, 0, 64, 0
1, 708602, Note_on_c, 0, 60, 104
1, 708604, Note_on_c, 0, 47, 77
1, 708604, Note_on_c, 0, 52, 95
1, 708607, Note_on_c, 0, 55, 100
1, 708618, Note_on_c, 0, 84, 88
1, 708625, Note_off_c, 0, 47, 66
1, 708650, Control_c, 0, 64, 48
1, 708655, Note_off_c, 0, 60, 64
1, 708657, Note_off_c, 0, 52, 63
1, 708658, Note_off_c, 0, 55, 65
1, 708666, Control_c, 0, 64, 73
1, 708681, Control_c, 0, 64, 95
1, 708696, Control_c, 0, 64, 127
1, 708706, Note_on_c, 0, 85, 99
1, 708712, Poly_aftertouch_c, 0, 49, 0
1, 708716, Note_off_c, 0, 84, 64
1, 708759, Note_off_c, 0, 85, 63
1, 708802, Note_on_c, 0, 84, 82
1, 708870, Note_off_c, 0, 84, 63
1, 708871, Note_on_c, 0, 85, 80
1, 708890, Note_off_c, 0, 85, 71
1, 708932, Control_c, 0, 64, 75
1, 708939, Note_on_c, 0, 48, 81
1, 708944, Note_on_c, 0, 56, 96
1, 708947, Note_on_c, 0, 61, 98
1, 708947, Control_c, 0, 64, 0
1, 708950, Note_on_c, 0, 53, 88
1, 708965, Note_on_c, 0, 96, 102
1, 708989, Note_off_c, 0, 48, 62
1, 709000, Note_on_c, 0, 98, 63
1, 709004, Note_off_c, 0, 53, 66
1, 709014, Control_c, 0, 64, 65
1, 709017, Note_off_c, 0, 98, 65
1, 709022, Note_off_c, 0, 56, 65
1, 709026, Note_off_c, 0, 61, 61
1, 709029, Control_c, 0, 64, 77
1, 709043, Control_c, 0, 64, 103
1, 709055, Note_on_c, 0, 95, 88
1, 709058, Control_c, 0, 64, 127
1, 709061, Note_off_c, 0, 96, 60
1, 709144, Note_on_c, 0, 96, 89
1, 709150, Note_off_c, 0, 95, 64
1, 709188, Note_off_c, 0, 96, 65
1, 709206, Note_on_c, 0, 84, 81
1, 709220, Note_on_c, 0, 60, 80
1, 709220, Note_on_c, 0, 62, 83
1, 709243, Note_off_c, 0, 84, 65
1, 709296, Control_c, 0, 64, 80
1, 709302, Note_on_c, 0, 84, 101
1, 709303, Note_on_c, 0, 69, 96
1, 709310, Control_c, 0, 64, 0
1, 709365, Note_off_c, 0, 84, 54
1, 709376, Note_on_c, 0, 83, 83
1, 709384, Control_c, 0, 64, 61
1, 709399, Control_c, 0, 64, 74
1, 709414, Control_c, 0, 64, 100
1, 709428, Control_c, 0, 64, 127
1, 709455, Note_on_c, 0, 84, 88
1, 709464, Note_off_c, 0, 83, 64
1, 709514, Note_on_c, 0, 68, 81
1, 709516, Note_off_c, 0, 69, 60
1, 709517, Note_off_c, 0, 84, 65
1, 709519, Note_on_c, 0, 72, 78
1, 709525, Note_off_c, 0, 62, 61
1, 709530, Note_off_c, 0, 60, 60
1, 709533, Note_off_c, 0, 68, 69
1, 709538, Note_off_c, 0, 72, 70
1, 709577, Control_c, 0, 64, 84
1, 709592, Control_c, 0, 64, 0
1, 709613, Note_on_c, 0, 72, 92
1, 709615, Note_on_c, 0, 67, 93
1, 709621, Note_on_c, 0, 55, 94
1, 709626, Note_on_c, 0, 65, 68
1, 709629, Note_on_c, 0, 47, 79
1, 709630, Note_on_c, 0, 48, 81
1, 709630, Note_off_c, 0, 67, 73
1, 709631, Note_on_c, 0, 64, 71
1, 709637, Note_off_c, 0, 72, 67
1, 709637, Control_c, 0, 64, 58
1, 709643, Note_off_c, 0, 65, 68
1, 709650, Note_off_c, 0, 64, 68
1, 709651, Control_c, 0, 64, 74
1, 709661, Note_off_c, 0, 55, 58
1, 709666, Control_c, 0, 64, 95
1, 709670, Note_off_c, 0, 48, 0
1, 709681, Control_c, 0, 64, 127
1, 709702, Note_on_c, 0, 55, 47
1, 709705, Note_on_c, 0, 54, 91
1, 709707, Poly_aftertouch_c, 0, 48, 127
1, 709735, Note_off_c, 0, 55, 56
1, 709770, Note_off_c, 0, 54, 66
1, 709794, Poly_aftertouch_c, 0, 48, 0
1, 709811, Note_on_c, 0, 53, 87
1, 709831, Poly_aftertouch_c, 0, 48, 0
1, 709842, Note_off_c, 0, 47, 61
1, 709858, Note_off_c, 0, 53, 69
1, 709865, Poly_aftertouch_c, 0, 68, 0
1, 709866, Note_on_c, 0, 52, 85
1, 709881, Control_c, 0, 64, 104
1, 709889, Note_on_c, 0, 62, 72
1, 709889, Note_on_c, 0, 67, 88
1, 709896, Control_c, 0, 64, 80
1, 709897, Note_on_c, 0, 57, 65
1, 709897, Note_off_c, 0, 52, 66
1, 709910, Control_c, 0, 64, 53
1, 709917, Note_off_c, 0, 57, 62
1, 709925, Control_c, 0, 64, 0
1, 709940, Note_off_c, 0, 62, 63
1, 709980, Note_on_c, 0, 66, 84
1, 709986, Note_on_c, 0, 51, 87
1, 709988, Note_on_c, 0, 39, 63
1, 709990, Note_on_c, 0, 61, 89
1, 709993, Note_on_c, 0, 56, 85
1, 709994, Note_on_c, 0, 46, 69
1, 710003, Note_on_c, 0, 63, 63
1, 710017, Note_off_c, 0, 39, 55
1, 710021, Note_on_c, 0, 40, 56
1, 710033, Note_off_c, 0, 67, 60
1, 710038, Note_off_c, 0, 63, 61
1, 710073, Note_off_c, 0, 51, 62
1, 710105, Note_on_c, 0, 49, 77
1, 710179, Note_on_c, 0, 51, 79
1, 710181, Note_off_c, 0, 49, 64
1, 710258, Note_off_c, 0, 51, 63
1, 710264, Note_on_c, 0, 49, 80
1, 710297, Control_c, 0, 67, 9
1, 710312, Control_c, 0, 67, 12
1, 710326, Control_c, 0, 67, 16
1, 710341, Note_off_c, 0, 49, 62
1, 710341, Control_c, 0, 67, 19
1, 710356, Control_c, 0, 67, 23
1, 710357, Note_on_c, 0, 51, 74
1, 710371, Control_c, 0, 67, 25
1, 710386, Control_c, 0, 67, 28
1, 710400, Control_c, 0, 67, 30
1, 710412, Note_off_c, 0, 56, 59
1, 710415, Control_c, 0, 67, 31
1, 710429, Note_off_c, 0, 51, 64
1, 710430, Control_c, 0, 67, 32
1, 710438, Note_on_c, 0, 49, 73
1, 710460, Control_c, 0, 67, 32
1, 710497, Control_c, 0, 67, 33
1, 710525, Note_off_c, 0, 49, 63
1, 710527, Control_c, 0, 67, 34
1, 710531, Note_on_c, 0, 51, 77
1, 710532, Note_off_c, 0, 61, 58
1, 710541, Control_c, 0, 67, 35
1, 710556, Control_c, 0, 67, 36
1, 710571, Control_c, 0, 67, 36
1, 710590, Note_on_c, 0, 59, 75
1, 710592, Note_on_c, 0, 54, 65
1, 710592, Note_on_c, 0, 64, 69
1, 710601, Control_c, 0, 67, 35
1, 710602, Note_off_c, 0, 51, 62
1, 710602, Note_off_c, 0, 66, 59
1, 710613, Note_on_c, 0, 49, 79
1, 710616, Control_c, 0, 67, 34
1, 710618, Note_off_c, 0, 54, 66
1, 710631, Control_c, 0, 67, 32
1, 710634, Note_off_c, 0, 59, 57
1, 710634, Note_off_c, 0, 64, 60
1, 710646, Control_c, 0, 67, 31
1, 710658, Note_off_c, 0, 40, 51
1, 710661, Control_c, 0, 64, 34
1, 710661, Control_c, 0, 67, 29
1, 710662, Note_off_c, 0, 46, 56
1, 710676, Control_c, 0, 64, 65
1, 710676, Control_c, 0, 67, 28
1, 710679, Note_on_c, 0, 56, 80
1, 710679, Note_on_c, 0, 61, 88
1, 710685, Note_on_c, 0, 66, 83
1, 710688, Note_off_c, 0, 49, 64
1, 710689, Note_on_c, 0, 51, 78
1, 710690, Control_c, 0, 64, 73
1, 710690, Control_c, 0, 67, 27
1, 710702, Note_off_c, 0, 56, 70
1, 710705, Control_c, 0, 64, 82
1, 710705, Control_c, 0, 67, 26
1, 710709, Note_off_c, 0, 61, 63
1, 710713, Note_off_c, 0, 51, 67
1, 710720, Control_c, 0, 64, 92
1, 710729, Note_off_c, 0, 66, 65
1, 710734, Control_c, 0, 64, 98
1, 710734, Control_c, 0, 67, 27
1, 710749, Control_c, 0, 64, 100
1, 710764, Control_c, 0, 67, 27
1, 710777, Note_on_c, 0, 52, 84
1, 710779, Control_c, 0, 67, 28
1, 710838, Control_c, 0, 64, 99
1, 710838, Control_c, 0, 67, 28
1, 710853, Control_c, 0, 64, 99
1, 710853, Control_c, 0, 67, 29
1, 710863, Note_off_c, 0, 52, 60
1, 710868, Control_c, 0, 67, 29
1, 710876, Note_on_c, 0, 53, 74
1, 710897, Control_c, 0, 67, 30
1, 710912, Control_c, 0, 64, 98
1, 710912, Control_c, 0, 67, 30
1, 710917, Note_on_c, 0, 54, 80
1, 710918, Note_off_c, 0, 53, 66
1, 710927, Control_c, 0, 67, 31
1, 710935, Note_on_c, 0, 73, 99
1, 710937, Note_on_c, 0, 63, 96
1, 710941, Note_on_c, 0, 68, 80
1, 710956, Control_c, 0, 64, 97
1, 710957, Note_off_c, 0, 63, 70
1, 710961, Note_off_c, 0, 68, 70
1, 710971, Control_c, 0, 64, 89
1, 710971, Control_c, 0, 67, 31
1, 710974, Note_off_c, 0, 73, 64
1, 710974, Note_off_c, 0, 54, 65
1, 710986, Control_c, 0, 64, 76
1, 710986, Control_c, 0, 67, 30
1, 711001, Control_c, 0, 64, 60
1, 711001, Control_c, 0, 67, 30
1, 711016, Note_on_c, 0, 55, 83
1, 711016, Control_c, 0, 64, 0
1, 711016, Control_c, 0, 67, 29
1, 711020, Note_on_c, 0, 72, 99
1, 711022, Note_on_c, 0, 64, 101
1, 711024, Note_on_c, 0, 67, 94
1, 711026, Note_on_c, 0, 47, 79
1, 711031, Control_c, 0, 67, 28
1, 711039, Note_off_c, 0, 64, 75
1, 711041, Note_off_c, 0, 67, 71
1, 711046, Note_on_c, 0, 48, 58
1, 711046, Control_c, 0, 67, 27
1, 711049, Note_off_c, 0, 72, 67
1, 711061, Control_c, 0, 67, 27
1, 711069, Note_off_c, 0, 55, 64
1, 711076, Control_c, 0, 67, 26
1, 711120, Control_c, 0, 67, 27
1, 711121, Note_on_c, 0, 54, 82
1, 711135, Control_c, 0, 67, 27
1, 711150, Control_c, 0, 67, 28
1, 711165, Control_c, 0, 67, 29
1, 711180, Control_c, 0, 67, 29
1, 711181, Note_off_c, 0, 54, 65
1, 711195, Control_c, 0, 67, 30
1, 711209, Control_c, 0, 67, 31
1, 711211, Note_on_c, 0, 53, 82
1, 711231, Control_c, 0, 67, 31
1, 711264, Note_off_c, 0, 47, 47
1, 711269, Note_off_c, 0, 48, 61
1, 711276, Control_c, 0, 67, 30
1, 711281, Note_on_c, 0, 52, 74
1, 711283, Note_off_c, 0, 53, 66
1, 711291, Control_c, 0, 67, 30
1, 711308, Note_on_c, 0, 62, 71
1, 711311, Note_off_c, 0, 52, 65
1, 711314, Note_on_c, 0, 67, 84
1, 711328, Note_on_c, 0, 57, 42
1, 711352, Note_off_c, 0, 62, 61
1, 711360, Note_off_c, 0, 57, 53
1, 711395, Note_on_c, 0, 51, 76
1, 711396, Note_on_c, 0, 40, 67
1, 711396, Note_on_c, 0, 66, 80
1, 711404, Note_on_c, 0, 61, 78
1, 711415, Note_off_c, 0, 67, 37
1, 711416, Note_on_c, 0, 46, 49
1, 711416, Note_on_c, 0, 56, 66
1, 711470, Note_off_c, 0, 51, 63
1, 711499, Control_c, 0, 67, 29
1, 711506, Note_on_c, 0, 49, 73
1, 711513, Control_c, 0, 67, 28
1, 711528, Control_c, 0, 67, 28
1, 711543, Control_c, 0, 67, 27
1, 711579, Note_off_c, 0, 49, 63
1, 711583, Note_on_c, 0, 51, 75
1, 711646, Control_c, 0, 64, 19
1, 711646, Control_c, 0, 67, 27
1, 711660, Note_off_c, 0, 51, 63
1, 711661, Control_c, 0, 64, 30
1, 711669, Note_on_c, 0, 49, 73
1, 711675, Control_c, 0, 64, 40
1, 711690, Control_c, 0, 64, 50
1, 711705, Control_c, 0, 64, 59
1, 711720, Control_c, 0, 64, 63
1, 711735, Control_c, 0, 64, 65
1, 711735, Control_c, 0, 67, 27
1, 711739, Note_off_c, 0, 49, 62
1, 711740, Note_off_c, 0, 56, 59
1, 711749, Control_c, 0, 64, 66
1, 711749, Control_c, 0, 67, 28
1, 711750, Note_on_c, 0, 51, 75
1, 711764, Control_c, 0, 64, 68
1, 711779, Control_c, 0, 64, 68
1, 711779, Control_c, 0, 67, 28
1, 711794, Control_c, 0, 64, 69
1, 711794, Control_c, 0, 67, 29
1, 711809, Control_c, 0, 67, 29
1, 711824, Control_c, 0, 67, 30
1, 711829, Note_off_c, 0, 51, 62
1, 711833, Note_on_c, 0, 49, 77
1, 711838, Control_c, 0, 64, 69
1, 711884, Control_c, 0, 67, 29
1, 711895, Note_off_c, 0, 49, 62
1, 711899, Control_c, 0, 67, 28
1, 711914, Control_c, 0, 67, 27
1, 711919, Note_on_c, 0, 48, 78
1, 711928, Note_on_c, 0, 68, 78
1, 711928, Control_c, 0, 67, 26
1, 711933, Note_on_c, 0, 54, 67
1, 711938, Note_on_c, 0, 63, 71
1, 711940, Note_off_c, 0, 61, 62
1, 711943, Control_c, 0, 67, 25
1, 711957, Note_off_c, 0, 54, 67
1, 711957, Note_off_c, 0, 66, 62
1, 711958, Control_c, 0, 67, 25
1, 711964, Note_off_c, 0, 63, 68
1, 711985, Note_off_c, 0, 68, 64
1, 711995, Control_c, 0, 64, 67
1, 711995, Control_c, 0, 67, 26
1, 712002, Note_on_c, 0, 49, 81
1, 712010, Control_c, 0, 64, 62
1, 712010, Control_c, 0, 67, 27
1, 712012, Note_off_c, 0, 48, 63
1, 712025, Control_c, 0, 64, 0
1, 712025, Control_c, 0, 67, 28
1, 712040, Control_c, 0, 67, 29
1, 712054, Control_c, 0, 67, 29
1, 712069, Control_c, 0, 67, 30
1, 712086, Note_off_c, 0, 40, 55
1, 712096, Note_on_c, 0, 50, 80
1, 712099, Note_off_c, 0, 49, 63
1, 712099, Control_c, 0, 67, 30
1, 712101, Note_on_c, 0, 71, 86
1, 712113, Note_on_c, 0, 66, 67
1, 712113, Control_c, 0, 67, 31
1, 712114, Note_on_c, 0, 57, 61
1, 712143, Control_c, 0, 64, 57
1, 712143, Control_c, 0, 67, 31
1, 712145, Note_off_c, 0, 57, 49
1, 712157, Control_c, 0, 64, 67
1, 712172, Control_c, 0, 64, 72
1, 712181, Note_on_c, 0, 51, 79
1, 712184, Note_off_c, 0, 71, 59
1, 712187, Control_c, 0, 64, 76
1, 712191, Note_off_c, 0, 50, 64
1, 712193, Note_off_c, 0, 46, 56
1, 712202, Control_c, 0, 64, 77
1, 712202, Control_c, 0, 67, 30
1, 712217, Control_c, 0, 64, 78
1, 712217, Control_c, 0, 67, 30
1, 712232, Control_c, 0, 67, 29
1, 712247, Control_c, 0, 67, 28
1, 712260, Note_off_c, 0, 51, 63
1, 712261, Control_c, 0, 67, 28
1, 712268, Note_off_c, 0, 66, 43
1, 712274, Note_on_c, 0, 52, 77
1, 712276, Control_c, 0, 67, 27
1, 712277, Note_on_c, 0, 69, 78
1, 712281, Note_on_c, 0, 61, 74
1, 712286, Note_on_c, 0, 59, 64
1, 712291, Control_c, 0, 67, 26
1, 712305, Control_c, 0, 64, 77
1, 712305, Control_c, 0, 67, 26
1, 712307, Note_off_c, 0, 61, 68
1, 712312, Note_off_c, 0, 59, 58
1, 712320, Control_c, 0, 64, 77
1, 712320, Control_c, 0, 67, 25
1, 712332, Note_off_c, 0, 69, 62
1, 712335, Control_c, 0, 64, 76
1, 712350, Control_c, 0, 64, 75
1, 712350, Control_c, 0, 67, 25
1, 712365, Control_c, 0, 64, 75
1, 712369, Note_off_c, 0, 52, 62
1, 712379, Control_c, 0, 64, 74
1, 712394, Control_c, 0, 64, 73
1, 712394, Control_c, 0, 67, 25
1, 712409, Control_c, 0, 64, 68
1, 712424, Control_c, 0, 64, 50
1, 712424, Control_c, 0, 67, 26
1, 712437, Note_on_c, 0, 59, 72
1, 712439, Control_c, 0, 64, 0
1, 712439, Control_c, 0, 67, 28
1, 712443, Note_on_c, 0, 67, 92
1, 712451, Note_on_c, 0, 55, 75
1, 712453, Control_c, 0, 67, 29
1, 712454, Note_on_c, 0, 72, 82
1, 712458, Note_off_c, 0, 59, 69
1, 712460, Note_on_c, 0, 52, 75
1, 712464, Note_off_c, 0, 67, 67
1, 712468, Control_c, 0, 67, 30
1, 712483, Control_c, 0, 67, 32
1, 712489, Note_off_c, 0, 72, 65
1, 712497, Control_c, 0, 67, 34
1, 712512, Control_c, 0, 67, 36
1, 712527, Control_c, 0, 67, 37
1, 712539, Note_off_c, 0, 55, 38
1, 712542, Note_on_c, 0, 56, 81
1, 712542, Control_c, 0, 67, 38
1, 712557, Control_c, 0, 67, 39
1, 712572, Control_c, 0, 67, 40
1, 712587, Control_c, 0, 67, 40
1, 712602, Control_c, 0, 67, 41
1, 712619, Note_off_c, 0, 56, 60
1, 712630, Note_off_c, 0, 52, 35
1, 712643, Note_on_c, 0, 55, 71
1, 712681, Note_on_c, 0, 56, 69
1, 712685, Note_off_c, 0, 55, 65
1, 712706, Note_off_c, 0, 56, 66
1, 712792, Note_on_c, 0, 71, 80
1, 712800, Note_on_c, 0, 79, 92
1, 712806, Note_on_c, 0, 84, 87
1, 712813, Note_off_c, 0, 71, 69
1, 712814, Note_on_c, 0, 43, 76
1, 712815, Note_off_c, 0, 79, 74
1, 712817, Control_c, 0, 67, 40
1, 712818, Note_on_c, 0, 40, 69
1, 712823, Note_off_c, 0, 84, 73
1, 712896, Note_off_c, 0, 43, 36
1, 712906, Note_on_c, 0, 44, 75
1, 712906, Control_c, 0, 67, 41
1, 712977, Note_off_c, 0, 44, 59
1, 712995, Control_c, 0, 67, 40
1, 713004, Note_on_c, 0, 43, 71
1, 713010, Control_c, 0, 67, 38
1, 713025, Control_c, 0, 67, 37
1, 713036, Note_off_c, 0, 40, 60
1, 713040, Control_c, 0, 67, 36
1, 713046, Note_on_c, 0, 44, 70
1, 713055, Control_c, 0, 67, 35
1, 713055, Note_off_c, 0, 43, 60
1, 713070, Control_c, 0, 67, 34
1, 713076, Note_off_c, 0, 44, 64
1, 713084, Control_c, 0, 67, 33
1, 713099, Control_c, 0, 67, 32
1, 713114, Control_c, 0, 67, 32
1, 713128, Control_c, 0, 67, 31
1, 713143, Control_c, 0, 67, 31
1, 713158, Note_on_c, 0, 68, 82
1, 713158, Control_c, 0, 67, 30
1, 713159, Note_on_c, 0, 73, 95
1, 713168, Note_on_c, 0, 60, 50
1, 713174, Note_on_c, 0, 57, 79
1, 713177, Note_off_c, 0, 68, 70
1, 713180, Note_on_c, 0, 53, 74
1, 713188, Control_c, 0, 67, 29
1, 713194, Note_off_c, 0, 60, 59
1, 713195, Note_off_c, 0, 73, 64
1, 713202, Control_c, 0, 67, 28
1, 713217, Control_c, 0, 67, 27
1, 713232, Control_c, 0, 67, 25
1, 713247, Control_c, 0, 67, 24
1, 713255, Note_on_c, 0, 56, 81
1, 713259, Note_off_c, 0, 57, 54
1, 713276, Control_c, 0, 67, 24
1, 713319, Note_off_c, 0, 56, 63
1, 713320, Control_c, 0, 67, 24
1, 713335, Control_c, 0, 67, 25
1, 713353, Note_off_c, 0, 53, 0
1, 713365, Note_on_c, 0, 57, 64
1, 713365, Control_c, 0, 67, 26
1, 713390, Poly_aftertouch_c, 0, 53, 127
1, 713405, Note_off_c, 0, 57, 63
1, 713409, Control_c, 0, 67, 26
1, 713410, Note_on_c, 0, 56, 79
1, 713416, Note_on_c, 0, 74, 83
1, 713416, Note_on_c, 0, 86, 88
1, 713433, Note_off_c, 0, 86, 74
1, 713434, Note_off_c, 0, 56, 68
1, 713435, Note_off_c, 0, 74, 72
1, 713436, Poly_aftertouch_c, 0, 53, 0
1, 713520, Note_on_c, 0, 81, 99
1, 713528, Note_on_c, 0, 69, 83
1, 713532, Note_on_c, 0, 45, 65
1, 713541, Note_on_c, 0, 42, 48
1, 713541, Note_on_c, 0, 47, 46
1, 713555, Note_off_c, 0, 69, 62
1, 713559, Note_off_c, 0, 45, 64
1, 713566, Control_c, 0, 67, 27
1, 713573, Note_off_c, 0, 47, 56
1, 713581, Control_c, 0, 67, 27
1, 713583, Note_off_c, 0, 42, 0
1, 713583, Note_on_c, 0, 42, 17
1, 713612, Note_on_c, 0, 46, 77
1, 713641, Poly_aftertouch_c, 0, 43, 127
1, 713683, Note_off_c, 0, 46, 61
1, 713700, Note_on_c, 0, 45, 71
1, 713740, Note_off_c, 0, 42, 45
1, 713750, Poly_aftertouch_c, 0, 43, 0
1, 713760, Note_on_c, 0, 68, 80
1, 713763, Note_on_c, 0, 80, 75
1, 713768, Note_off_c, 0, 81, 62
1, 713770, Note_off_c, 0, 45, 65
1, 713771, Note_on_c, 0, 46, 56
1, 713782, Note_off_c, 0, 68, 69
1, 713783, Note_off_c, 0, 80, 71
1, 713788, Control_c, 0, 67, 26
1, 713799, Note_off_c, 0, 46, 55
1, 713803, Control_c, 0, 67, 25
1, 713818, Control_c, 0, 67, 24
1, 713833, Control_c, 0, 67, 23
1, 713848, Control_c, 0, 67, 22
1, 713862, Control_c, 0, 67, 19
1, 713863, Note_on_c, 0, 75, 92
1, 713864, Note_on_c, 0, 62, 86
1, 713865, Note_on_c, 0, 70, 88
1, 713867, Note_on_c, 0, 59, 81
1, 713877, Control_c, 0, 67, 15
1, 713879, Note_off_c, 0, 75, 75
1, 713881, Note_off_c, 0, 70, 73
1, 713884, Note_on_c, 0, 55, 61
1, 713884, Note_off_c, 0, 62, 69
1, 713887, Note_on_c, 0, 73, 45
1, 713892, Control_c, 0, 64, 53
1, 713892, Control_c, 0, 67, 9
1, 713895, Note_on_c, 0, 53, 47
1, 713907, Control_c, 0, 64, 60
1, 713907, Control_c, 0, 67, 0
1, 713918, Note_off_c, 0, 73, 35
1, 713922, Control_c, 0, 64, 57
1, 713925, Note_off_c, 0, 53, 58
1, 713937, Control_c, 0, 64, 43
1, 713951, Control_c, 0, 64, 23
1, 713959, Note_on_c, 0, 58, 83
1, 713960, Note_off_c, 0, 59, 55
1, 713966, Control_c, 0, 64, 0
1, 714021, Note_off_c, 0, 55, 54
1, 714040, Control_c, 0, 64, 26
1, 714043, Note_off_c, 0, 58, 59
1, 714055, Control_c, 0, 64, 42
1, 714058, Note_on_c, 0, 59, 71
1, 714069, Control_c, 0, 64, 50
1, 714084, Control_c, 0, 64, 55
1, 714099, Control_c, 0, 64, 56
1, 714101, Note_on_c, 0, 58, 71
1, 714111, Note_off_c, 0, 59, 62
1, 714127, Note_off_c, 0, 58, 69
1, 714143, Control_c, 0, 64, 55
1, 714158, Control_c, 0, 64, 55
1, 714158, Control_c, 0, 67, 8
1, 714173, Control_c, 0, 64, 54
1, 714188, Note_on_c, 0, 75, 85
1, 714188, Control_c, 0, 64, 53
1, 714188, Control_c, 0, 67, 8
1, 714198, Note_on_c, 0, 88, 93
1, 714199, Note_on_c, 0, 83, 95
1, 714203, Control_c, 0, 64, 51
1, 714203, Control_c, 0, 67, 9
1, 714225, Note_off_c, 0, 75, 65
1, 714225, Control_c, 0, 64, 44
1, 714225, Control_c, 0, 67, 9
1, 714226, Note_off_c, 0, 83, 67
1, 714228, Note_on_c, 0, 44, 76
1, 714232, Note_on_c, 0, 47, 80
1, 714235, Note_off_c, 0, 88, 66
1, 714240, Control_c, 0, 64, 28
1, 714256, Control_c, 0, 64, 0
1, 714286, Control_c, 0, 67, 10
1, 714312, Note_off_c, 0, 47, 65
1, 714313, Note_on_c, 0, 48, 78
1, 714316, Control_c, 0, 67, 10
1, 714330, Control_c, 0, 67, 11
1, 714365, Note_off_c, 0, 48, 62
1, 714399, Note_on_c, 0, 49, 77
1, 714423, Note_off_c, 0, 44, 59
1, 714435, Control_c, 0, 67, 10
1, 714450, Note_off_c, 0, 49, 63
1, 714450, Control_c, 0, 67, 9
1, 714453, Note_on_c, 0, 50, 77
1, 714464, Control_c, 0, 67, 9
1, 714479, Control_c, 0, 67, 8
1, 714484, Note_off_c, 0, 50, 70
1, 714494, Control_c, 0, 67, 0
1, 714539, Note_on_c, 0, 64, 79
1, 714549, Note_on_c, 0, 72, 81
1, 714554, Note_on_c, 0, 77, 90
1, 714563, Note_off_c, 0, 64, 71
1, 714568, Note_off_c, 0, 72, 72
1, 714569, Note_on_c, 0, 63, 93
1, 714578, Note_on_c, 0, 57, 74
1, 714596, Note_off_c, 0, 77, 66
1, 714615, Note_off_c, 0, 63, 60
1, 714656, Note_on_c, 0, 62, 77
1, 714703, Note_off_c, 0, 62, 58
1, 714744, Note_on_c, 0, 63, 75
1, 714763, Note_off_c, 0, 57, 59
1, 714798, Note_off_c, 0, 63, 63
1, 714805, Note_on_c, 0, 62, 78
1, 714819, Note_on_c, 0, 90, 96
1, 714822, Note_on_c, 0, 78, 85
1, 714831, Note_off_c, 0, 62, 67
1, 714834, Note_off_c, 0, 90, 75
1, 714839, Note_off_c, 0, 78, 72
1, 714905, Note_on_c, 0, 51, 92
1, 714909, Note_on_c, 0, 85, 100
1, 714914, Note_on_c, 0, 46, 79
1, 714915, Note_on_c, 0, 73, 93
1, 714938, Control_c, 0, 64, 66
1, 714946, Note_on_c, 0, 86, 43
1, 714953, Control_c, 0, 64, 79
1, 714973, Note_off_c, 0, 73, 56
1, 714974, Control_c, 0, 64, 107
1, 714981, Note_off_c, 0, 86, 38
1, 714989, Control_c, 0, 64, 127
1, 715032, Note_off_c, 0, 51, 65
1, 715034, Note_on_c, 0, 52, 69
1, 715083, Note_off_c, 0, 85, 64
1, 715085, Note_on_c, 0, 53, 73
1, 715090, Note_off_c, 0, 52, 63
1, 715150, Note_on_c, 0, 84, 71
1, 715159, Note_on_c, 0, 72, 69
1, 715161, Note_on_c, 0, 71, 75
1, 715167, Note_on_c, 0, 83, 66
1, 715167, Note_off_c, 0, 46, 61
1, 715168, Note_on_c, 0, 54, 82
1, 715173, Note_off_c, 0, 84, 70
1, 715179, Note_off_c, 0, 53, 65
1, 715182, Note_off_c, 0, 71, 72
1, 715182, Note_off_c, 0, 72, 70
1, 715183, Note_off_c, 0, 83, 67
1, 715193, Note_off_c, 0, 54, 69
1, 715213, Control_c, 0, 64, 99
1, 715228, Control_c, 0, 64, 65
1, 715243, Control_c, 0, 64, 0
1, 715258, Note_on_c, 0, 77, 96
1, 715259, Note_on_c, 0, 72, 87
1, 715266, Note_on_c, 0, 60, 85
1, 715266, Note_on_c, 0, 64, 79
1, 715274, Note_on_c, 0, 57, 82
1, 715277, Note_off_c, 0, 72, 71
1, 715278, Note_on_c, 0, 73, 63
1, 715279, Note_off_c, 0, 73, 127
1, 715281, Note_off_c, 0, 64, 71
1, 715283, Note_on_c, 0, 65, 51
1, 715288, Note_off_c, 0, 77, 67
1, 715309, Note_off_c, 0, 65, 37
1, 715320, Note_off_c, 0, 60, 61
1, 715347, Note_on_c, 0, 61, 85
1, 715423, Note_off_c, 0, 61, 61
1, 715436, Note_on_c, 0, 60, 75
1, 715481, Note_off_c, 0, 57, 57
1, 715496, Note_on_c, 0, 61, 83
1, 715507, Note_off_c, 0, 60, 65
1, 715517, Note_off_c, 0, 61, 71
1, 715594, Note_on_c, 0, 76, 89
1, 715600, Note_on_c, 0, 84, 94
1, 715603, Note_on_c, 0, 89, 101
1, 715610, Note_on_c, 0, 48, 96
1, 715615, Note_on_c, 0, 45, 77
1, 715627, Note_off_c, 0, 76, 65
1, 715630, Note_off_c, 0, 84, 70
1, 715636, Note_off_c, 0, 89, 66
1, 715672, Note_off_c, 0, 45, 0
1, 715696, Note_on_c, 0, 49, 91
1, 715696, Note_off_c, 0, 48, 62
1, 715710, Poly_aftertouch_c, 0, 45, 127
1, 715789, Note_on_c, 0, 50, 72
1, 715790, Note_off_c, 0, 49, 62
1, 715803, Poly_aftertouch_c, 0, 45, 0
1, 715861, Note_on_c, 0, 51, 69
1, 715861, Note_off_c, 0, 50, 66
1, 715891, Note_off_c, 0, 51, 65
1, 715946, Note_on_c, 0, 65, 84
1, 715956, Note_on_c, 0, 73, 87
1, 715961, Note_on_c, 0, 78, 94
1, 715974, Note_off_c, 0, 65, 68
1, 715976, Note_on_c, 0, 64, 88
1, 715976, Control_c, 0, 64, 60
1, 715978, Note_off_c, 0, 73, 67
1, 715981, Note_on_c, 0, 58, 85
1, 715991, Control_c, 0, 64, 70
1, 716000, Note_off_c, 0, 78, 69
1, 716006, Control_c, 0, 64, 79
1, 716020, Control_c, 0, 64, 90
1, 716035, Control_c, 0, 64, 102
1, 716050, Control_c, 0, 64, 113
1, 716065, Control_c, 0, 64, 127
1, 716068, Note_on_c, 0, 63, 81
1, 716074, Note_off_c, 0, 64, 63
1, 716148, Note_off_c, 0, 63, 57
1, 716152, Note_on_c, 0, 64, 77
1, 716211, Note_off_c, 0, 58, 60
1, 716217, Note_off_c, 0, 64, 66
1, 716226, Note_on_c, 0, 63, 53
1, 716227, Control_c, 0, 64, 101
1, 716228, Note_on_c, 0, 79, 98
1, 716242, Control_c, 0, 64, 78
1, 716257, Control_c, 0, 64, 57
1, 716260, Note_off_c, 0, 63, 56
1, 716271, Control_c, 0, 64, 0
1, 716318, Note_off_c, 0, 79, 57
1, 716320, Note_on_c, 0, 86, 103
1, 716324, Note_on_c, 0, 47, 77
1, 716325, Note_on_c, 0, 52, 86
1, 716325, Note_on_c, 0, 74, 100
1, 716387, Note_off_c, 0, 74, 50
1, 716405, Control_c, 0, 64, 47
1, 716410, Note_on_c, 0, 53, 80
1, 716412, Note_off_c, 0, 52, 61
1, 716420, Control_c, 0, 64, 66
1, 716435, Control_c, 0, 64, 76
1, 716450, Control_c, 0, 64, 91
1, 716465, Control_c, 0, 64, 127
1, 716489, Note_on_c, 0, 54, 84
1, 716503, Note_off_c, 0, 53, 63
1, 716518, Note_off_c, 0, 47, 61
1, 716563, Note_on_c, 0, 53, 78
1, 716564, Note_off_c, 0, 86, 64
1, 716566, Note_off_c, 0, 54, 61
1, 716572, Note_on_c, 0, 85, 81
1, 716575, Note_on_c, 0, 73, 86
1, 716591, Note_off_c, 0, 53, 69
1, 716593, Note_off_c, 0, 85, 70
1, 716594, Note_off_c, 0, 73, 72
1, 716635, Control_c, 0, 64, 105
1, 716650, Control_c, 0, 64, 68
1, 716665, Control_c, 0, 64, 0
1, 716673, Note_on_c, 0, 80, 100
1, 716676, Note_on_c, 0, 67, 93
1, 716681, Note_on_c, 0, 75, 82
1, 716691, Note_on_c, 0, 66, 83
1, 716691, Note_off_c, 0, 67, 73
1, 716693, Note_on_c, 0, 60, 74
1, 716698, Note_off_c, 0, 75, 72
1, 716712, Note_off_c, 0, 80, 70
1, 716739, Control_c, 0, 64, 65
1, 716749, Note_off_c, 0, 66, 61
1, 716754, Control_c, 0, 64, 77
1, 716769, Control_c, 0, 64, 95
1, 716769, Note_on_c, 0, 65, 82
1, 716784, Control_c, 0, 64, 127
1, 716840, Note_off_c, 0, 65, 52
1, 716857, Note_on_c, 0, 66, 79
1, 716868, Note_off_c, 0, 60, 61
1, 716921, Note_off_c, 0, 66, 63
1, 716930, Note_on_c, 0, 65, 64
1, 716943, Note_on_c, 0, 81, 100
1, 716951, Note_off_c, 0, 65, 71
1, 717005, Note_off_c, 0, 81, 66
1, 717006, Control_c, 0, 64, 104
1, 717021, Control_c, 0, 64, 67
1, 717034, Note_on_c, 0, 54, 90
1, 717036, Control_c, 0, 64, 0
1, 717037, Note_on_c, 0, 88, 107
1, 717040, Note_on_c, 0, 76, 110
1, 717042, Note_on_c, 0, 49, 78
1, 717094, Control_c, 0, 64, 38
1, 717109, Control_c, 0, 64, 67
1, 717115, Note_on_c, 0, 55, 85
1, 717124, Control_c, 0, 64, 88
1, 717131, Note_off_c, 0, 54, 60
1, 717131, Note_off_c, 0, 76, 62
1, 717139, Control_c, 0, 64, 127
1, 717195, Note_off_c, 0, 55, 62
1, 717196, Note_on_c, 0, 56, 85
1, 717252, Note_off_c, 0, 49, 62
1, 717270, Note_off_c, 0, 88, 61
1, 717278, Note_off_c, 0, 56, 59
1, 717279, Note_on_c, 0, 87, 83
1, 717286, Note_on_c, 0, 75, 92
1, 717287, Note_on_c, 0, 57, 75
1, 717310, Note_off_c, 0, 57, 66
1, 717312, Note_off_c, 0, 87, 64
1, 717319, Note_off_c, 0, 75, 63
1, 717399, Control_c, 0, 64, 115
1, 717414, Control_c, 0, 64, 70
1, 717421, Note_on_c, 0, 70, 99
1, 717425, Note_on_c, 0, 65, 92
1, 717425, Note_on_c, 0, 83, 99
1, 717425, Note_on_c, 0, 78, 105
1, 717429, Control_c, 0, 64, 0
1, 717434, Note_on_c, 0, 63, 78
1, 717466, Note_off_c, 0, 70, 65
1, 717499, Note_off_c, 0, 65, 60
1, 717504, Control_c, 0, 64, 26
1, 717518, Control_c, 0, 64, 70
1, 717533, Control_c, 0, 64, 84
1, 717534, Note_on_c, 0, 66, 84
1, 717548, Control_c, 0, 64, 127
1, 717627, Note_on_c, 0, 65, 75
1, 717630, Note_off_c, 0, 66, 62
1, 717684, Note_off_c, 0, 63, 59
1, 717710, Note_on_c, 0, 66, 77
1, 717711, Note_off_c, 0, 83, 60
1, 717716, Note_off_c, 0, 65, 64
1, 717730, Note_off_c, 0, 66, 69
1, 717744, Note_off_c, 0, 78, 68
1, 717830, Control_c, 0, 64, 96
1, 717834, Note_on_c, 0, 53, 70
1, 717844, Control_c, 0, 64, 65
1, 717847, Note_on_c, 0, 54, 48
1, 717859, Control_c, 0, 64, 0
1, 717886, Note_on_c, 0, 56, 78
1, 717889, Control_c, 0, 64, 63
1, 717904, Control_c, 0, 64, 74
1, 717911, Note_on_c, 0, 58, 78
1, 717911, Note_off_c, 0, 53, 65
1, 717918, Control_c, 0, 64, 96
1, 717933, Control_c, 0, 64, 127
1, 717938, Note_off_c, 0, 56, 64
1, 717941, Note_on_c, 0, 59, 78
1, 717949, Note_off_c, 0, 54, 47
1, 717957, Note_on_c, 0, 61, 77
1, 717960, Note_off_c, 0, 58, 64
1, 717976, Note_on_c, 0, 63, 85
1, 717992, Note_off_c, 0, 59, 63
1, 717993, Note_off_c, 0, 61, 67
1, 718027, Note_on_c, 0, 66, 76
1, 718030, Note_on_c, 0, 68, 74
1, 718032, Note_on_c, 0, 65, 46
1, 718033, Note_off_c, 0, 63, 65
1, 718046, Note_off_c, 0, 66, 68
1, 718052, Note_off_c, 0, 68, 64
1, 718057, Note_off_c, 0, 65, 58
1, 718076, Note_on_c, 0, 69, 44
1, 718110, Note_off_c, 0, 69, 0
1, 718111, Note_on_c, 0, 70, 73
1, 718119, Poly_aftertouch_c, 0, 67, 127
1, 718132, Note_off_c, 0, 70, 61
1, 718146, Note_on_c, 0, 72, 56
1, 718151, Poly_aftertouch_c, 0, 67, 0
1, 718152, Poly_aftertouch_c, 0, 69, 0
1, 718156, Note_on_c, 0, 74, 83
1, 718167, Note_off_c, 0, 72, 63
1, 718191, Note_on_c, 0, 77, 66
1, 718194, Note_on_c, 0, 78, 77
1, 718202, Note_on_c, 0, 76, 65
1, 718202, Note_off_c, 0, 74, 65
1, 718206, Poly_aftertouch_c, 0, 69, 0
1, 718212, Note_off_c, 0, 77, 67
1, 718219, Note_on_c, 0, 80, 77
1, 718221, Note_off_c, 0, 76, 64
1, 718241, Note_off_c, 0, 78, 61
1, 718265, Note_on_c, 0, 81, 77
1, 718287, Note_on_c, 0, 83, 79
1, 718292, Note_off_c, 0, 80, 62
1, 718352, Note_off_c, 0, 81, 50
1, 718355, Control_c, 0, 64, 84
1, 718367, Note_on_c, 0, 84, 100
1, 718370, Control_c, 0, 64, 0
1, 718377, Note_on_c, 0, 72, 77
1, 718379, Note_on_c, 0, 71, 86
1, 718380, Note_on_c, 0, 40, 109
1, 718420, Note_off_c, 0, 84, 70
1, 718423, Note_off_c, 0, 71, 60
1, 718429, Control_c, 0, 64, 66
1, 718444, Control_c, 0, 64, 98
1, 718446, Note_off_c, 0, 83, 65
1, 718459, Control_c, 0, 64, 127
1, 718469, Note_off_c, 0, 72, 64
1, 718511, Note_off_c, 0, 40, 64
1, 718629, Note_on_c, 0, 43, 76
1, 718651, Note_on_c, 0, 48, 65
1, 718685, Note_on_c, 0, 60, 69
1, 718686, Note_off_c, 0, 43, 65
1, 718698, Note_on_c, 0, 54, 83
1, 718721, Note_off_c, 0, 48, 63
1, 718727, Note_on_c, 0, 64, 68
1, 718729, Note_off_c, 0, 54, 70
1, 718748, Note_off_c, 0, 60, 59
1, 718750, Note_on_c, 0, 66, 86
1, 718801, Note_on_c, 0, 72, 82
1, 718804, Note_off_c, 0, 64, 63
1, 718836, Note_off_c, 0, 66, 64
1, 718894, Note_on_c, 0, 78, 120
1, 718900, Note_off_c, 0, 72, 58
1, 718903, Note_off_c, 0, 78, 81
1, 719308, Note_on_c, 0, 80, 97
1, 719311, Note_on_c, 0, 68, 96
1, 719326, Note_off_c, 0, 80, 64
1, 719328, Note_off_c, 0, 68, 71
1, 719368, Note_on_c, 0, 80, 99
1, 719370, Control_c, 0, 64, 84
1, 719373, Note_on_c, 0, 52, 90
1, 719374, Note_on_c, 0, 68, 100
1, 719385, Control_c, 0, 64, 23
1, 719400, Control_c, 0, 64, 0
1, 719430, Control_c, 0, 64, 36
1, 719444, Control_c, 0, 64, 65
1, 719467, Control_c, 0, 64, 78
1, 719481, Control_c, 0, 64, 103
1, 719496, Control_c, 0, 64, 127
1, 719514, Note_on_c, 0, 48, 83
1, 719527, Note_off_c, 0, 52, 60
1, 719626, Note_off_c, 0, 48, 61
1, 719629, Note_on_c, 0, 40, 76
1, 719709, Note_off_c, 0, 40, 63
1, 719720, Note_on_c, 0, 48, 78
1, 719735, Note_off_c, 0, 80, 61
1, 719743, Note_off_c, 0, 48, 66
1, 719786, Note_off_c, 0, 68, 57
1, 719867, Note_on_c, 0, 54, 81
1, 719867, Control_c, 0, 64, 111
1, 719882, Control_c, 0, 64, 68
1, 719889, Note_on_c, 0, 55, 75
1, 719897, Control_c, 0, 64, 0
1, 719926, Control_c, 0, 64, 40
1, 719929, Note_on_c, 0, 56, 74
1, 719940, Note_on_c, 0, 59, 78
1, 719941, Control_c, 0, 64, 68
1, 719949, Note_off_c, 0, 55, 60
1, 719956, Control_c, 0, 64, 83
1, 719961, Note_off_c, 0, 54, 57
1, 719971, Control_c, 0, 64, 127
1, 719978, Note_off_c, 0, 56, 66
1, 719981, Note_on_c, 0, 60, 84
1, 719990, Note_on_c, 0, 62, 72
1, 720003, Note_on_c, 0, 64, 75
1, 720003, Note_off_c, 0, 59, 63
1, 720021, Note_on_c, 0, 66, 76
1, 720030, Note_off_c, 0, 60, 65
1, 720053, Note_off_c, 0, 62, 61
1, 720054, Note_on_c, 0, 68, 78
1, 720057, Note_on_c, 0, 67, 63
1, 720069, Note_off_c, 0, 64, 66
1, 720075, Note_off_c, 0, 68, 70
1, 720080, Note_off_c, 0, 66, 63
1, 720096, Note_on_c, 0, 69, 63
1, 720099, Note_off_c, 0, 67, 60
1, 720115, Note_off_c, 0, 69, 65
1, 720153, Note_on_c, 0, 75, 67
1, 720154, Note_off_c, 0, 75, 127
1, 720162, Note_on_c, 0, 72, 56
1, 720162, Note_on_c, 0, 74, 71
1, 720171, Note_on_c, 0, 76, 75
1, 720179, Poly_aftertouch_c, 0, 75, 0
1, 720181, Note_off_c, 0, 74, 68
1, 720182, Note_off_c, 0, 72, 64
1, 720183, Note_on_c, 0, 78, 84
1, 720194, Note_off_c, 0, 76, 68
1, 720229, Note_on_c, 0, 80, 85
1, 720241, Note_off_c, 0, 78, 64
1, 720245, Note_off_c, 0, 80, 72
1, 720248, Note_on_c, 0, 79, 69
1, 720277, Note_on_c, 0, 81, 43
1, 720278, Note_off_c, 0, 81, 127
1, 720283, Note_on_c, 0, 80, 75
1, 720302, Note_on_c, 0, 83, 88
1, 720340, Note_on_c, 0, 84, 72
1, 720340, Note_off_c, 0, 80, 63
1, 720344, Note_off_c, 0, 79, 35
1, 720394, Control_c, 0, 64, 96
1, 720409, Control_c, 0, 64, 61
1, 720419, Note_on_c, 0, 86, 96
1, 720421, Note_on_c, 0, 74, 99
1, 720422, Note_on_c, 0, 35, 108
1, 720423, Control_c, 0, 64, 0
1, 720444, Note_off_c, 0, 83, 65
1, 720453, Control_c, 0, 64, 54
1, 720459, Note_off_c, 0, 86, 72
1, 720460, Note_off_c, 0, 74, 69
1, 720463, Note_off_c, 0, 84, 59
1, 720468, Control_c, 0, 64, 79
1, 720474, Note_off_c, 0, 35, 69
1, 720483, Control_c, 0, 64, 127
1, 720671, Note_on_c, 0, 44, 85
1, 720680, Note_on_c, 0, 51, 92
1, 720715, Note_off_c, 0, 44, 62
1, 720717, Note_off_c, 0, 51, 66
1, 720725, Note_on_c, 0, 62, 70
1, 720764, Note_on_c, 0, 68, 82
1, 720788, Note_on_c, 0, 70, 83
1, 720802, Note_off_c, 0, 62, 62
1, 720832, Note_on_c, 0, 74, 89
1, 720847, Note_off_c, 0, 68, 59
1, 720871, Note_off_c, 0, 70, 62
1, 720906, Note_on_c, 0, 80, 115
1, 720915, Note_off_c, 0, 80, 80
1, 720924, Note_off_c, 0, 74, 66
1, 720933, Note_on_c, 0, 78, 50
1, 720934, Note_off_c, 0, 78, 127
1, 720967, Poly_aftertouch_c, 0, 78, 0
1, 721303, Note_on_c, 0, 82, 103
1, 721306, Note_on_c, 0, 70, 100
1, 721324, Note_off_c, 0, 82, 65
1, 721324, Note_off_c, 0, 70, 68
1, 721365, Control_c, 0, 64, 84
1, 721368, Note_on_c, 0, 82, 103
1, 721370, Note_on_c, 0, 70, 104
1, 721380, Note_on_c, 0, 50, 92
1, 721380, Control_c, 0, 64, 0
1, 721424, Control_c, 0, 64, 41
1, 721440, Control_c, 0, 64, 69
1, 721455, Control_c, 0, 64, 88
1, 721470, Control_c, 0, 64, 127
1, 721521, Note_off_c, 0, 50, 59
1, 721527, Note_on_c, 0, 42, 90
1, 721655, Note_on_c, 0, 35, 83
1, 721681, Note_off_c, 0, 42, 63
1, 721763, Note_on_c, 0, 42, 91
1, 721763, Note_off_c, 0, 35, 62
1, 721788, Note_off_c, 0, 82, 63
1, 721792, Note_off_c, 0, 42, 66
1, 721842, Note_off_c, 0, 70, 55
1, 722021, Note_on_c, 0, 56, 89
1, 722046, Note_on_c, 0, 57, 67
1, 722069, Control_c, 0, 64, 76
1, 722084, Control_c, 0, 64, 0
1, 722114, Note_on_c, 0, 59, 78
1, 722129, Control_c, 0, 64, 66
1, 722143, Control_c, 0, 64, 78
1, 722147, Note_on_c, 0, 61, 83
1, 722158, Control_c, 0, 64, 102
1, 722161, Note_off_c, 0, 56, 62
1, 722173, Control_c, 0, 64, 127
1, 722185, Note_off_c, 0, 57, 61
1, 722187, Note_off_c, 0, 59, 63
1, 722194, Note_on_c, 0, 63, 86
1, 722212, Note_off_c, 0, 61, 64
1, 722220, Note_on_c, 0, 64, 70
1, 722236, Note_off_c, 0, 63, 64
1, 722242, Note_on_c, 0, 66, 80
1, 722272, Note_on_c, 0, 68, 83
1, 722282, Note_off_c, 0, 64, 64
1, 722287, Note_off_c, 0, 66, 67
1, 722295, Note_off_c, 0, 68, 69
1, 722298, Note_on_c, 0, 71, 83
1, 722304, Note_on_c, 0, 69, 72
1, 722327, Note_off_c, 0, 69, 69
1, 722337, Note_off_c, 0, 71, 70
1, 722354, Note_on_c, 0, 75, 92
1, 722416, Note_on_c, 0, 77, 73
1, 722416, Note_off_c, 0, 75, 55
1, 722432, Note_on_c, 0, 80, 90
1, 722437, Note_off_c, 0, 77, 60
1, 722439, Note_on_c, 0, 78, 77
1, 722470, Note_off_c, 0, 78, 66
1, 722473, Note_on_c, 0, 79, 77
1, 722473, Note_off_c, 0, 80, 67
1, 722477, Note_on_c, 0, 81, 71
1, 722487, Note_on_c, 0, 83, 89
1, 722511, Note_off_c, 0, 79, 62
1, 722531, Note_off_c, 0, 81, 53
1, 722538, Note_on_c, 0, 85, 88
1, 722561, Note_off_c, 0, 83, 66
1, 722567, Control_c, 0, 64, 105
1, 722567, Note_on_c, 0, 86, 69
1, 722582, Control_c, 0, 64, 68
1, 722587, Note_off_c, 0, 85, 61
1, 722589, Note_off_c, 0, 86, 67
1, 722595, Control_c, 0, 64, 0
1, 722632, Note_on_c, 0, 88, 99
1, 722638, Note_on_c, 0, 39, 110
1, 722639, Note_on_c, 0, 27, 97
1, 722639, Control_c, 0, 64, 65
1, 722640, Note_on_c, 0, 86, 93
1, 722644, Note_on_c, 0, 76, 89
1, 722645, Note_on_c, 0, 77, 86
1, 722654, Control_c, 0, 64, 84
1, 722656, Note_on_c, 0, 30, 77
1, 722657, Note_off_c, 0, 30, 127
1, 722657, Note_off_c, 0, 86, 75
1, 722658, Note_on_c, 0, 28, 70
1, 722658, Note_off_c, 0, 39, 71
1, 722661, Note_off_c, 0, 27, 72
1, 722662, Note_off_c, 0, 76, 73
1, 722664, Note_off_c, 0, 77, 73
1, 722668, Note_off_c, 0, 88, 69
1, 722670, Control_c, 0, 64, 127
1, 722676, Note_on_c, 0, 84, 34
1, 722677, Note_off_c, 0, 84, 127
1, 722689, Poly_aftertouch_c, 0, 30, 0
1, 722690, Note_off_c, 0, 28, 56
1, 722770, Poly_aftertouch_c, 0, 27, 127
1, 722818, Poly_aftertouch_c, 0, 27, 0
1, 723031, Note_on_c, 0, 69, 113
1, 723032, Note_on_c, 0, 61, 105
1, 723036, Note_on_c, 0, 64, 107
1, 723047, Note_off_c, 0, 61, 75
1, 723050, Note_off_c, 0, 64, 78
1, 723056, Note_off_c, 0, 69, 76
1, 723343, Note_on_c, 0, 51, 78
1, 723346, Control_c, 0, 64, 77
1, 723361, Control_c, 0, 64, 0
1, 723366, Note_on_c, 0, 53, 75
1, 723419, Note_on_c, 0, 55, 76
1, 723435, Control_c, 0, 64, 66
1, 723450, Control_c, 0, 64, 81
1, 723453, Note_off_c, 0, 51, 63
1, 723460, Note_on_c, 0, 57, 75
1, 723462, Note_off_c, 0, 53, 64
1, 723464, Control_c, 0, 64, 113
1, 723479, Control_c, 0, 64, 127
1, 723493, Note_off_c, 0, 55, 65
1, 723498, Note_on_c, 0, 59, 78
1, 723506, Note_on_c, 0, 61, 73
1, 723519, Note_off_c, 0, 57, 64
1, 723528, Note_on_c, 0, 63, 83
1, 723534, Note_off_c, 0, 61, 66
1, 723551, Note_off_c, 0, 59, 62
1, 723575, Note_on_c, 0, 65, 79
1, 723594, Note_off_c, 0, 63, 67
1, 723595, Note_on_c, 0, 67, 78
1, 723603, Note_on_c, 0, 69, 82
1, 723610, Note_on_c, 0, 64, 33
1, 723627, Note_off_c, 0, 65, 66
1, 723647, Note_off_c, 0, 64, 56
1, 723647, Note_off_c, 0, 67, 66
1, 723647, Note_off_c, 0, 69, 69
1, 723690, Note_on_c, 0, 70, 78
1, 723700, Note_on_c, 0, 71, 74
1, 723707, Note_on_c, 0, 69, 64
1, 723720, Note_on_c, 0, 73, 83
1, 723726, Note_off_c, 0, 69, 60
1, 723734, Note_on_c, 0, 75, 87
1, 723766, Note_off_c, 0, 70, 64
1, 723769, Note_on_c, 0, 77, 79
1, 723774, Note_off_c, 0, 71, 53
1, 723801, Note_off_c, 0, 73, 60
1, 723802, Note_on_c, 0, 79, 86
1, 723808, Note_off_c, 0, 75, 62
1, 723821, Note_on_c, 0, 81, 81
1, 723839, Note_off_c, 0, 79, 66
1, 723849, Note_off_c, 0, 77, 60
1, 723850, Note_on_c, 0, 83, 86
1, 723875, Note_off_c, 0, 81, 63
1, 723894, Note_on_c, 0, 85, 88
1, 723917, Note_off_c, 0, 83, 67
1, 723918, Note_on_c, 0, 87, 84
1, 723946, Note_off_c, 0, 85, 66
1, 723975, Note_off_c, 0, 87, 65
1, 723976, Control_c, 0, 64, 78
1, 723991, Control_c, 0, 64, 0
1, 724018, Note_on_c, 0, 89, 102
1, 724025, Note_on_c, 0, 25, 108
1, 724025, Note_on_c, 0, 77, 97
1, 724028, Note_on_c, 0, 37, 94
1, 724035, Note_on_c, 0, 79, 79
1, 724036, Control_c, 0, 64, 63
1, 724040, Note_off_c, 0, 77, 75
1, 724043, Note_on_c, 0, 88, 55
1, 724044, Note_off_c, 0, 88, 127
1, 724044, Note_off_c, 0, 37, 74
1, 724046, Note_off_c, 0, 89, 71
1, 724048, Note_off_c, 0, 25, 68
1, 724050, Note_off_c, 0, 79, 67
1, 724050, Control_c, 0, 64, 77
1, 724062, Note_on_c, 0, 86, 34
1, 724063, Note_off_c, 0, 86, 127
1, 724064, Note_on_c, 0, 26, 37
1, 724065, Note_off_c, 0, 26, 127
1, 724065, Control_c, 0, 64, 104
1, 724076, Note_on_c, 0, 27, 8
1, 724077, Note_off_c, 0, 27, 127
1, 724080, Control_c, 0, 64, 127
1, 724103, Note_on_c, 0, 37, 28
1, 724103, Poly_aftertouch_c, 0, 26, 0
1, 724115, Poly_aftertouch_c, 0, 27, 0
1, 724136, Note_off_c, 0, 37, 59
1, 724164, Poly_aftertouch_c, 0, 25, 127
1, 724204, Poly_aftertouch_c, 0, 25, 0
1, 724420, Control_c, 0, 64, 74
1, 724435, Control_c, 0, 64, 0
1, 724454, Note_on_c, 0, 47, 73
1, 724487, Note_on_c, 0, 48, 68
1, 724535, Note_on_c, 0, 50, 80
1, 724539, Control_c, 0, 64, 68
1, 724553, Control_c, 0, 64, 82
1, 724555, Note_off_c, 0, 47, 63
1, 724562, Note_on_c, 0, 52, 80
1, 724568, Control_c, 0, 64, 115
1, 724576, Note_off_c, 0, 48, 60
1, 724583, Control_c, 0, 64, 127
1, 724597, Note_off_c, 0, 50, 65
1, 724606, Note_on_c, 0, 53, 83
1, 724629, Note_off_c, 0, 52, 64
1, 724639, Note_on_c, 0, 55, 79
1, 724663, Note_off_c, 0, 53, 66
1, 724680, Note_on_c, 0, 57, 82
1, 724688, Note_off_c, 0, 55, 64
1, 724732, Note_on_c, 0, 59, 78
1, 724750, Note_on_c, 0, 62, 74
1, 724755, Note_on_c, 0, 60, 67
1, 724760, Note_off_c, 0, 57, 67
1, 724775, Note_off_c, 0, 59, 65
1, 724786, Note_off_c, 0, 60, 68
1, 724793, Note_off_c, 0, 62, 65
1, 724804, Note_on_c, 0, 64, 94
1, 724840, Note_on_c, 0, 65, 60
1, 724866, Note_on_c, 0, 67, 80
1, 724887, Note_off_c, 0, 65, 47
1, 724896, Note_off_c, 0, 64, 65
1, 724900, Note_on_c, 0, 69, 84
1, 724917, Note_off_c, 0, 67, 62
1, 724938, Note_on_c, 0, 71, 90
1, 724945, Note_off_c, 0, 69, 66
1, 724961, Note_on_c, 0, 72, 80
1, 724980, Note_off_c, 0, 71, 64
1, 724988, Note_on_c, 0, 74, 94
1, 725012, Note_off_c, 0, 72, 65
1, 725026, Note_on_c, 0, 76, 85
1, 725048, Note_on_c, 0, 77, 77
1, 725050, Note_on_c, 0, 79, 87
1, 725056, Note_off_c, 0, 74, 70
1, 725068, Note_off_c, 0, 76, 64
1, 725081, Note_off_c, 0, 77, 68
1, 725085, Note_off_c, 0, 79, 70
1, 725121, Note_on_c, 0, 81, 95
1, 725143, Note_on_c, 0, 83, 72
1, 725156, Note_on_c, 0, 84, 79
1, 725171, Note_off_c, 0, 83, 58
1, 725174, Note_off_c, 0, 81, 62
1, 725191, Note_on_c, 0, 86, 90
1, 725196, Note_off_c, 0, 84, 65
1, 725226, Note_on_c, 0, 88, 93
1, 725232, Note_off_c, 0, 86, 67
1, 725255, Note_off_c, 0, 88, 68
1, 725265, Note_on_c, 0, 89, 96
1, 725309, Note_on_c, 0, 91, 102
1, 725322, Note_off_c, 0, 89, 65
1, 725362, Note_on_c, 0, 93, 101
1, 725393, Note_off_c, 0, 91, 68
1, 725412, Note_off_c, 0, 93, 70
1, 725413, Note_on_c, 0, 95, 99
1, 725563, Control_c, 0, 64, 75
1, 725578, Control_c, 0, 64, 0
1, 725578, Note_on_c, 0, 36, 116
1, 725581, Note_on_c, 0, 24, 109
1, 725584, Note_on_c, 0, 96, 105
1, 725586, Note_on_c, 0, 84, 101
1, 725599, Note_on_c, 0, 27, 79
1, 725628, Note_off_c, 0, 95, 66
1, 725629, Note_on_c, 0, 93, 42
1, 725630, Note_off_c, 0, 93, 127
1, 725637, Control_c, 0, 64, 69
1, 725646, Note_off_c, 0, 27, 49
1, 725652, Control_c, 0, 64, 100
1, 725666, Control_c, 0, 64, 127
1, 725670, Note_off_c, 0, 96, 63
1, 725697, Note_off_c, 0, 24, 62
1, 725707, Note_off_c, 0, 84, 62
1, 725739, Note_off_c, 0, 36, 63
1, 725886, Note_on_c, 0, 43, 87
1, 725925, Note_on_c, 0, 52, 80
1, 725957, Note_on_c, 0, 60, 71
1, 725988, Note_on_c, 0, 64, 76
1, 726015, Note_off_c, 0, 60, 61
1, 726026, Note_on_c, 0, 66, 82
1, 726052, Note_off_c, 0, 64, 65
1, 726055, Note_on_c, 0, 72, 91
1, 726064, Note_off_c, 0, 66, 66
1, 726085, Note_off_c, 0, 72, 63
1, 726227, Note_on_c, 0, 90, 118
1, 726231, Note_on_c, 0, 78, 111
1, 726244, Note_off_c, 0, 78, 77
1, 726246, Note_on_c, 0, 80, 74
1, 726247, Note_off_c, 0, 80, 127
1, 726257, Note_off_c, 0, 90, 74
1, 726263, Note_on_c, 0, 91, 48
1, 726264, Note_off_c, 0, 91, 127
1, 726273, Note_on_c, 0, 87, 33
1, 726303, Note_off_c, 0, 87, 57
1, 726524, Note_off_c, 0, 52, 61
1, 726531, Note_off_c, 0, 43, 61
1, 726585, Poly_aftertouch_c, 0, 80, 0
1, 726592, Note_on_c, 0, 92, 18
1, 726633, Note_off_c, 0, 92, 45
1, 726698, Note_on_c, 0, 92, 113
1, 726702, Note_on_c, 0, 80, 100
1, 726800, Note_off_c, 0, 80, 56
1, 726842, Note_off_c, 0, 92, 59
1, 726860, Note_on_c, 0, 40, 116
1, 726861, Note_on_c, 0, 41, 112
1, 726891, Note_off_c, 0, 41, 62
1, 726893, Note_off_c, 0, 40, 68
1, 726904, Note_on_c, 0, 80, 86
1, 726908, Note_on_c, 0, 92, 93
1, 726969, Note_on_c, 0, 90, 7
1, 727023, Note_off_c, 0, 90, 37
1, 727091, Note_on_c, 0, 31, 79
1, 727129, Note_off_c, 0, 31, 64
1, 727266, Note_on_c, 0, 36, 102
1, 727269, Note_on_c, 0, 24, 95
1, 727299, Note_on_c, 0, 27, 49
1, 727334, Note_off_c, 0, 27, 59
1, 727444, Note_off_c, 0, 36, 52
1, 727450, Note_on_c, 0, 31, 79
1, 727497, Note_off_c, 0, 24, 53
1, 727569, Note_off_c, 0, 31, 58
1, 727609, Note_on_c, 0, 40, 110
1, 727624, Note_on_c, 0, 32, 71
1, 727626, Note_on_c, 0, 27, 63
1, 727626, Note_on_c, 0, 30, 72
1, 727653, Note_off_c, 0, 32, 54
1, 727655, Note_off_c, 0, 27, 65
1, 727669, Note_off_c, 0, 30, 48
1, 727678, Note_on_c, 0, 26, 3
1, 727726, Note_off_c, 0, 26, 51
1, 727729, Note_off_c, 0, 40, 57
1, 727744, Note_off_c, 0, 92, 64
1, 727781, Note_on_c, 0, 31, 83
1, 727806, Note_on_c, 0, 32, 18
1, 727823, Note_off_c, 0, 80, 60
1, 727880, Note_off_c, 0, 32, 38
1, 727904, Note_on_c, 0, 36, 98
1, 727912, Note_on_c, 0, 24, 84
1, 727917, Note_on_c, 0, 91, 99
1, 727918, Note_on_c, 0, 79, 97
1, 727927, Control_c, 0, 64, 83
1, 727937, Note_off_c, 0, 31, 64
1, 727942, Control_c, 0, 64, 67
1, 727957, Control_c, 0, 64, 68
1, 727972, Control_c, 0, 64, 83
1, 727987, Control_c, 0, 64, 117
1, 728002, Control_c, 0, 64, 127
1, 728023, Note_on_c, 0, 31, 81
1, 728024, Note_on_c, 0, 88, 88
1, 728026, Note_off_c, 0, 36, 59
1, 728038, Poly_aftertouch_c, 0, 27, 0
1, 728060, Note_off_c, 0, 91, 59
1, 728065, Note_off_c, 0, 24, 51
1, 728108, Note_off_c, 0, 79, 58
1, 728134, Note_off_c, 0, 88, 59
1, 728135, Control_c, 0, 64, 107
1, 728145, Note_on_c, 0, 40, 92
1, 728147, Note_on_c, 0, 83, 102
1, 728150, Control_c, 0, 64, 81
1, 728165, Control_c, 0, 64, 83
1, 728180, Control_c, 0, 64, 114
1, 728195, Control_c, 0, 64, 127
1, 728196, Note_off_c, 0, 31, 40
1, 728242, Note_off_c, 0, 40, 55
1, 728251, Note_on_c, 0, 31, 78
1, 728369, Note_off_c, 0, 83, 62
1, 728372, Note_on_c, 0, 24, 77
1, 728372, Note_on_c, 0, 36, 77
1, 728372, Control_c, 0, 64, 93
1, 728377, Note_on_c, 0, 88, 94
1, 728379, Note_on_c, 0, 76, 89
1, 728383, Note_off_c, 0, 31, 61
1, 728387, Control_c, 0, 64, 92
1, 728401, Control_c, 0, 64, 127
1, 728411, Note_on_c, 0, 89, 27
1, 728412, Note_off_c, 0, 89, 127
1, 728473, Note_off_c, 0, 36, 56
1, 728474, Note_on_c, 0, 31, 76
1, 728476, Note_on_c, 0, 84, 85
1, 728503, Note_off_c, 0, 88, 60
1, 728504, Note_off_c, 0, 76, 60
1, 728524, Note_off_c, 0, 24, 34
1, 728546, Note_off_c, 0, 84, 63
1, 728557, Control_c, 0, 64, 113
1, 728572, Control_c, 0, 64, 84
1, 728580, Note_on_c, 0, 40, 85
1, 728584, Note_on_c, 0, 78, 99
1, 728586, Control_c, 0, 64, 81
1, 728601, Control_c, 0, 64, 103
1, 728616, Control_c, 0, 64, 127
1, 728621, Note_off_c, 0, 31, 35
1, 728655, Note_off_c, 0, 40, 60
1, 728687, Note_on_c, 0, 31, 75
1, 728699, Poly_aftertouch_c, 0, 76, 0
1, 728755, Note_off_c, 0, 78, 58
1, 728780, Control_c, 0, 64, 83
1, 728795, Control_c, 0, 64, 65
1, 728798, Note_off_c, 0, 31, 50
1, 728800, Note_on_c, 0, 84, 95
1, 728802, Note_on_c, 0, 36, 71
1, 728802, Note_on_c, 0, 72, 86
1, 728809, Note_on_c, 0, 24, 64
1, 728810, Control_c, 0, 64, 66
1, 728825, Control_c, 0, 64, 83
1, 728834, Note_on_c, 0, 23, 32
1, 728840, Control_c, 0, 64, 127
1, 728851, Note_off_c, 0, 72, 63
1, 728886, Note_off_c, 0, 23, 43
1, 728888, Note_on_c, 0, 31, 81
1, 728891, Note_on_c, 0, 79, 94
1, 728894, Note_off_c, 0, 36, 37
1, 728899, Note_off_c, 0, 24, 55
1, 728900, Note_off_c, 0, 84, 61
1, 728950, Note_off_c, 0, 79, 64
1, 728968, Note_off_c, 0, 31, 58
1, 728973, Control_c, 0, 64, 87
1, 728988, Control_c, 0, 64, 70
1, 728994, Note_on_c, 0, 40, 80
1, 728995, Note_on_c, 0, 75, 99
1, 729002, Control_c, 0, 64, 72
1, 729017, Control_c, 0, 64, 99
1, 729032, Control_c, 0, 64, 127
1, 729073, Note_off_c, 0, 40, 60
1, 729081, Note_off_c, 0, 75, 60
1, 729083, Note_on_c, 0, 31, 81
1, 729180, Control_c, 0, 64, 99
1, 729194, Note_on_c, 0, 24, 79
1, 729202, Control_c, 0, 64, 89
1, 729204, Note_on_c, 0, 36, 76
1, 729206, Note_off_c, 0, 31, 59
1, 729207, Note_on_c, 0, 79, 99
1, 729212, Note_on_c, 0, 67, 87
1, 729217, Control_c, 0, 64, 110
1, 729232, Control_c, 0, 64, 127
1, 729255, Note_off_c, 0, 67, 61
1, 729259, Note_off_c, 0, 36, 57
1, 729293, Note_on_c, 0, 31, 76
1, 729293, Note_on_c, 0, 76, 88
1, 729319, Note_off_c, 0, 79, 58
1, 729320, Note_off_c, 0, 24, 61
1, 729350, Control_c, 0, 64, 89
1, 729355, Note_off_c, 0, 76, 64
1, 729365, Control_c, 0, 64, 65
1, 729366, Note_off_c, 0, 31, 59
1, 729380, Control_c, 0, 64, 30
1, 729391, Note_on_c, 0, 40, 76
1, 729392, Note_on_c, 0, 71, 100
1, 729395, Control_c, 0, 64, 67
1, 729409, Control_c, 0, 64, 86
1, 729426, Control_c, 0, 64, 127
1, 729466, Note_off_c, 0, 40, 57
1, 729477, Note_on_c, 0, 31, 76
1, 729483, Note_off_c, 0, 71, 62
1, 729559, Control_c, 0, 64, 72
1, 729574, Control_c, 0, 64, 0
1, 729590, Note_on_c, 0, 72, 103
1, 729591, Note_on_c, 0, 36, 79
1, 729593, Note_off_c, 0, 31, 57
1, 729599, Note_on_c, 0, 24, 76
1, 729603, Control_c, 0, 64, 70
1, 729618, Control_c, 0, 64, 104
1, 729632, Control_c, 0, 64, 127
1, 729669, Note_off_c, 0, 36, 59
1, 729679, Note_on_c, 0, 31, 67
1, 729697, Note_off_c, 0, 72, 62
1, 729703, Note_off_c, 0, 24, 60
1, 729752, Control_c, 0, 64, 89
1, 729767, Control_c, 0, 64, 54
1, 729781, Control_c, 0, 64, 60
1, 729785, Note_on_c, 0, 73, 100
1, 729787, Note_off_c, 0, 31, 52
1, 729790, Note_on_c, 0, 37, 87
1, 729792, Note_on_c, 0, 68, 94
1, 729793, Note_on_c, 0, 65, 90
1, 729796, Control_c, 0, 64, 81
1, 729796, Note_on_c, 0, 24, 59
1, 729811, Control_c, 0, 64, 127
1, 729814, Note_off_c, 0, 65, 69
1, 729823, Note_off_c, 0, 68, 52
1, 729825, Note_off_c, 0, 24, 56
1, 729826, Note_off_c, 0, 37, 63
1, 729829, Note_off_c, 0, 73, 67
1, 729992, Note_on_c, 0, 44, 76
1, 730003, Note_on_c, 0, 53, 83
1, 730070, Control_c, 0, 64, 88
1, 730081, Note_off_c, 0, 44, 59
1, 730082, Note_off_c, 0, 53, 61
1, 730086, Control_c, 0, 64, 11
1, 730091, Note_on_c, 0, 56, 82
1, 730095, Note_on_c, 0, 48, 64
1, 730100, Control_c, 0, 64, 0
1, 730131, Note_off_c, 0, 48, 64
1, 730158, Note_on_c, 0, 53, 65
1, 730159, Note_off_c, 0, 56, 66
1, 730160, Control_c, 0, 64, 64
1, 730169, Note_on_c, 0, 61, 84
1, 730174, Control_c, 0, 64, 79
1, 730189, Control_c, 0, 64, 113
1, 730190, Note_off_c, 0, 53, 69
1, 730204, Control_c, 0, 64, 127
1, 730207, Note_off_c, 0, 61, 65
1, 730251, Note_on_c, 0, 56, 83
1, 730258, Note_on_c, 0, 65, 83
1, 730306, Note_off_c, 0, 56, 65
1, 730334, Note_on_c, 0, 68, 87
1, 730338, Note_off_c, 0, 65, 58
1, 730345, Note_on_c, 0, 62, 66
1, 730347, Note_on_c, 0, 60, 61
1, 730371, Note_off_c, 0, 60, 67
1, 730383, Note_off_c, 0, 62, 60
1, 730399, Note_off_c, 0, 68, 53
1, 730418, Note_on_c, 0, 73, 89
1, 730419, Note_on_c, 0, 65, 59
1, 730437, Note_off_c, 0, 65, 64
1, 730437, Note_off_c, 0, 73, 71
1, 730486, Control_c, 0, 64, 92
1, 730501, Control_c, 0, 64, 54
1, 730509, Note_on_c, 0, 75, 99
1, 730512, Note_on_c, 0, 79, 99
1, 730512, Note_on_c, 0, 66, 98
1, 730516, Control_c, 0, 64, 0
1, 730534, Note_off_c, 0, 66, 64
1, 730543, Note_off_c, 0, 75, 68
1, 730560, Note_off_c, 0, 79, 60
1, 730560, Control_c, 0, 64, 61
1, 730575, Control_c, 0, 64, 74
1, 730590, Control_c, 0, 64, 100
1, 730597, Note_on_c, 0, 35, 87
1, 730604, Control_c, 0, 64, 127
1, 730693, Note_on_c, 0, 43, 81
1, 730715, Note_off_c, 0, 35, 60
1, 730753, Note_off_c, 0, 43, 64
1, 730780, Note_on_c, 0, 50, 70
1, 730792, Note_on_c, 0, 74, 97
1, 730798, Note_on_c, 0, 67, 85
1, 730804, Note_off_c, 0, 50, 67
1, 730819, Control_c, 0, 64, 117
1, 730820, Note_off_c, 0, 67, 67
1, 730822, Note_off_c, 0, 74, 65
1, 730833, Control_c, 0, 64, 74
1, 730847, Control_c, 0, 64, 0
1, 730872, Note_on_c, 0, 55, 82
1, 730872, Note_on_c, 0, 74, 97
1, 730876, Note_on_c, 0, 67, 78
1, 730921, Control_c, 0, 64, 64
1, 730936, Control_c, 0, 64, 76
1, 730951, Control_c, 0, 64, 101
1, 730964, Note_on_c, 0, 59, 80
1, 730966, Control_c, 0, 64, 127
1, 730968, Note_off_c, 0, 67, 61
1, 730972, Note_off_c, 0, 55, 63
1, 731037, Note_off_c, 0, 59, 57
1, 731054, Note_on_c, 0, 62, 67
1, 731078, Note_off_c, 0, 62, 65
1, 731101, Note_off_c, 0, 74, 60
1, 731137, Note_on_c, 0, 67, 87
1, 731144, Control_c, 0, 64, 120
1, 731159, Control_c, 0, 64, 79
1, 731174, Control_c, 0, 64, 0
1, 731209, Note_off_c, 0, 67, 56
1, 731230, Note_on_c, 0, 76, 86
1, 731233, Control_c, 0, 64, 29
1, 731234, Note_on_c, 0, 64, 88
1, 731236, Note_on_c, 0, 72, 83
1, 731248, Control_c, 0, 64, 69
1, 731263, Control_c, 0, 64, 89
1, 731274, Note_off_c, 0, 72, 57
1, 731278, Control_c, 0, 64, 127
1, 731278, Note_off_c, 0, 76, 64
1, 731296, Note_off_c, 0, 64, 60
1, 731306, Note_on_c, 0, 36, 73
1, 731408, Note_on_c, 0, 43, 69
1, 731421, Note_on_c, 0, 55, 87
1, 731427, Note_off_c, 0, 36, 60
1, 731482, Note_off_c, 0, 43, 60
1, 731491, Note_on_c, 0, 52, 69
1, 731501, Note_on_c, 0, 60, 83
1, 731501, Note_off_c, 0, 55, 61
1, 731525, Note_off_c, 0, 52, 63
1, 731552, Control_c, 0, 64, 77
1, 731567, Control_c, 0, 64, 0
1, 731581, Note_on_c, 0, 38, 84
1, 731594, Note_on_c, 0, 65, 79
1, 731618, Note_off_c, 0, 60, 61
1, 731656, Control_c, 0, 64, 72
1, 731670, Control_c, 0, 64, 104
1, 731674, Note_on_c, 0, 68, 79
1, 731680, Note_on_c, 0, 47, 75
1, 731680, Note_off_c, 0, 38, 60
1, 731684, Note_on_c, 0, 48, 80
1, 731685, Control_c, 0, 64, 127
1, 731695, Note_off_c, 0, 65, 65
1, 731705, Note_off_c, 0, 68, 64
1, 731715, Note_off_c, 0, 47, 68
1, 731716, Note_off_c, 0, 48, 66
1, 731759, Note_on_c, 0, 53, 55
1, 731771, Note_on_c, 0, 72, 85
1, 731788, Note_off_c, 0, 53, 66
1, 731820, Note_off_c, 0, 72, 58
1, 731834, Control_c, 0, 64, 109
1, 731838, Note_on_c, 0, 60, 80
1, 731839, Note_on_c, 0, 77, 95
1, 731849, Control_c, 0, 64, 68
1, 731859, Note_off_c, 0, 60, 71
1, 731864, Control_c, 0, 64, 0
1, 731887, Note_off_c, 0, 77, 65
1, 731908, Control_c, 0, 64, 67
1, 731923, Control_c, 0, 64, 83
1, 731925, Note_on_c, 0, 80, 100
1, 731926, Note_on_c, 0, 84, 95
1, 731931, Note_on_c, 0, 71, 94
1, 731938, Control_c, 0, 64, 127
1, 731949, Note_off_c, 0, 71, 74
1, 731956, Note_on_c, 0, 77, 28
1, 731957, Note_off_c, 0, 77, 127
1, 731958, Note_on_c, 0, 82, 49
1, 731962, Note_off_c, 0, 80, 69
1, 731967, Note_off_c, 0, 84, 67
1, 731984, Note_off_c, 0, 82, 60
1, 732010, Note_on_c, 0, 40, 84
1, 732012, Control_c, 0, 64, 81
1, 732026, Control_c, 0, 64, 0
1, 732071, Control_c, 0, 64, 64
1, 732086, Control_c, 0, 64, 76
1, 732089, Note_on_c, 0, 48, 77
1, 732101, Control_c, 0, 64, 103
1, 732109, Note_off_c, 0, 40, 57
1, 732116, Control_c, 0, 64, 127
1, 732156, Note_off_c, 0, 48, 52
1, 732187, Note_on_c, 0, 55, 65
1, 732199, Note_on_c, 0, 72, 83
1, 732199, Note_on_c, 0, 79, 84
1, 732217, Note_off_c, 0, 79, 72
1, 732221, Note_off_c, 0, 72, 66
1, 732222, Note_off_c, 0, 55, 66
1, 732231, Poly_aftertouch_c, 0, 53, 127
1, 732241, Control_c, 0, 64, 109
1, 732256, Control_c, 0, 64, 72
1, 732268, Poly_aftertouch_c, 0, 53, 0
1, 732271, Control_c, 0, 64, 0
1, 732277, Note_on_c, 0, 79, 99
1, 732289, Note_on_c, 0, 60, 74
1, 732304, Note_on_c, 0, 72, 37
1, 732315, Control_c, 0, 64, 47
1, 732330, Control_c, 0, 64, 70
1, 732338, Note_off_c, 0, 72, 54
1, 732345, Control_c, 0, 64, 97
1, 732360, Control_c, 0, 64, 127
1, 732369, Note_on_c, 0, 64, 77
1, 732372, Note_off_c, 0, 60, 59
1, 732441, Note_off_c, 0, 64, 59
1, 732449, Note_on_c, 0, 67, 69
1, 732496, Note_off_c, 0, 67, 59
1, 732504, Note_off_c, 0, 79, 59
1, 732537, Note_on_c, 0, 76, 85
1, 732553, Control_c, 0, 64, 104
1, 732568, Control_c, 0, 64, 75
1, 732582, Control_c, 0, 64, 0
1, 732587, Note_off_c, 0, 76, 63
1, 732622, Note_on_c, 0, 88, 96
1, 732623, Note_on_c, 0, 65, 77
1, 732702, Control_c, 0, 64, 62
1, 732716, Control_c, 0, 64, 70
1, 732718, Note_on_c, 0, 76, 81
1, 732730, Note_on_c, 0, 72, 55
1, 732731, Control_c, 0, 64, 79
1, 732746, Control_c, 0, 64, 100
1, 732761, Control_c, 0, 64, 127
1, 732771, Note_off_c, 0, 65, 35
1, 732776, Note_off_c, 0, 76, 61
1, 732803, Note_off_c, 0, 72, 62
1, 732806, Note_on_c, 0, 68, 50
1, 732807, Note_on_c, 0, 80, 77
1, 732827, Note_off_c, 0, 80, 72
1, 732834, Note_off_c, 0, 68, 39
1, 732836, Note_off_c, 0, 88, 65
1, 732863, Note_on_c, 0, 72, 56
1, 732888, Note_off_c, 0, 72, 68
1, 732891, Poly_aftertouch_c, 0, 69, 127
1, 732891, Note_on_c, 0, 83, 69
1, 732894, Note_on_c, 0, 84, 73
1, 732922, Poly_aftertouch_c, 0, 69, 0
1, 732923, Control_c, 0, 64, 85
1, 732933, Note_off_c, 0, 83, 61
1, 732946, Control_c, 0, 64, 0
1, 732949, Note_off_c, 0, 84, 61
1, 732976, Note_on_c, 0, 92, 104
1, 732983, Note_on_c, 0, 53, 75
1, 732991, Control_c, 0, 64, 11
1, 733005, Control_c, 0, 64, 66
1, 733009, Note_off_c, 0, 92, 71
1, 733020, Control_c, 0, 64, 79
1, 733035, Control_c, 0, 64, 103
1, 733049, Control_c, 0, 64, 127
1, 733064, Note_off_c, 0, 53, 62
1, 733069, Note_on_c, 0, 60, 62
1, 733129, Note_on_c, 0, 56, 76
1, 733135, Note_off_c, 0, 60, 64
1, 733169, Note_off_c, 0, 56, 62
1, 733209, Note_on_c, 0, 65, 66
1, 733215, Note_on_c, 0, 96, 101
1, 733239, Note_off_c, 0, 65, 65
1, 733257, Control_c, 0, 64, 107
1, 733263, Note_off_c, 0, 96, 64
1, 733272, Control_c, 0, 64, 71
1, 733287, Control_c, 0, 64, 0
1, 733295, Note_on_c, 0, 64, 76
1, 733296, Note_on_c, 0, 84, 83
1, 733317, Control_c, 0, 64, 44
1, 733331, Control_c, 0, 64, 68
1, 733346, Control_c, 0, 64, 82
1, 733361, Note_on_c, 0, 86, 92
1, 733361, Control_c, 0, 64, 127
1, 733365, Note_on_c, 0, 71, 67
1, 733365, Note_off_c, 0, 84, 65
1, 733420, Note_off_c, 0, 64, 64
1, 733424, Note_off_c, 0, 86, 61
1, 733436, Note_on_c, 0, 84, 83
1, 733436, Note_off_c, 0, 71, 62
1, 733468, Note_on_c, 0, 83, 50
1, 733483, Note_off_c, 0, 84, 63
1, 733489, Note_on_c, 0, 86, 84
1, 733490, Note_off_c, 0, 83, 61
1, 733537, Note_off_c, 0, 86, 64
1, 733552, Note_on_c, 0, 84, 72
1, 733554, Control_c, 0, 64, 109
1, 733569, Control_c, 0, 64, 66
1, 733576, Note_off_c, 0, 84, 67
1, 733584, Control_c, 0, 64, 0
1, 733587, Note_on_c, 0, 86, 88
1, 733609, Note_on_c, 0, 52, 65
1, 733624, Note_off_c, 0, 86, 69
1, 733633, Note_on_c, 0, 84, 97
1, 733643, Control_c, 0, 64, 69
1, 733658, Control_c, 0, 64, 93
1, 733672, Control_c, 0, 64, 127
1, 733729, Note_off_c, 0, 84, 67
1, 733731, Note_off_c, 0, 52, 60
1, 733733, Note_on_c, 0, 79, 84
1, 733735, Note_on_c, 0, 59, 53
1, 733778, Note_off_c, 0, 79, 64
1, 733821, Note_on_c, 0, 76, 97
1, 733830, Note_off_c, 0, 59, 59
1, 733847, Note_on_c, 0, 62, 62
1, 733898, Note_off_c, 0, 76, 60
1, 733903, Note_on_c, 0, 72, 85
1, 733916, Note_off_c, 0, 62, 61
1, 733917, Control_c, 0, 64, 107
1, 733932, Control_c, 0, 64, 75
1, 733946, Control_c, 0, 64, 0
1, 733957, Note_off_c, 0, 72, 65
1, 733990, Note_on_c, 0, 84, 97
1, 733993, Note_on_c, 0, 62, 64
1, 734028, Note_on_c, 0, 82, 42
1, 734038, Note_off_c, 0, 82, 42
1, 734050, Control_c, 0, 64, 59
1, 734065, Control_c, 0, 64, 76
1, 734071, Note_off_c, 0, 62, 49
1, 734071, Note_on_c, 0, 69, 70
1, 734079, Note_on_c, 0, 72, 82
1, 734080, Control_c, 0, 64, 104
1, 734095, Control_c, 0, 64, 127
1, 734125, Note_off_c, 0, 69, 63
1, 734130, Note_off_c, 0, 72, 62
1, 734152, Note_on_c, 0, 78, 89
1, 734163, Note_on_c, 0, 66, 74
1, 734180, Note_off_c, 0, 84, 66
1, 734191, Note_off_c, 0, 78, 66
1, 734205, Note_on_c, 0, 69, 75
1, 734212, Note_off_c, 0, 66, 61
1, 734239, Note_on_c, 0, 81, 83
1, 734247, Note_off_c, 0, 69, 65
1, 734274, Control_c, 0, 64, 101
1, 734289, Control_c, 0, 64, 66
1, 734294, Note_off_c, 0, 81, 62
1, 734303, Control_c, 0, 64, 0
1, 734309, Note_on_c, 0, 50, 89
1, 734324, Note_on_c, 0, 90, 105
1, 734348, Control_c, 0, 64, 68
1, 734362, Control_c, 0, 64, 90
1, 734368, Note_off_c, 0, 90, 68
1, 734377, Control_c, 0, 64, 127
1, 734412, Note_on_c, 0, 57, 81
1, 734427, Note_off_c, 0, 50, 63
1, 734476, Note_on_c, 0, 54, 82
1, 734496, Note_off_c, 0, 57, 61
1, 734530, Note_off_c, 0, 54, 65
1, 734555, Note_on_c, 0, 62, 74
1, 734563, Control_c, 0, 64, 101
1, 734567, Note_on_c, 0, 92, 88
1, 734577, Control_c, 0, 64, 66
1, 734591, Note_off_c, 0, 62, 62
1, 734592, Control_c, 0, 64, 0
1, 734617, Note_off_c, 0, 92, 67
1, 734636, Control_c, 0, 64, 66
1, 734641, Note_on_c, 0, 80, 79
1, 734646, Note_on_c, 0, 60, 82
1, 734651, Control_c, 0, 64, 85
1, 734666, Control_c, 0, 64, 127
1, 734694, Note_off_c, 0, 80, 64
1, 734704, Note_on_c, 0, 82, 87
1, 734718, Note_on_c, 0, 67, 72
1, 734740, Control_c, 0, 64, 81
1, 734745, Note_off_c, 0, 60, 57
1, 734755, Note_off_c, 0, 82, 62
1, 734755, Control_c, 0, 64, 0
1, 734780, Note_off_c, 0, 67, 62
1, 734780, Note_on_c, 0, 80, 90
1, 734784, Control_c, 0, 64, 64
1, 734787, Note_on_c, 0, 64, 46
1, 734799, Control_c, 0, 64, 82
1, 734813, Control_c, 0, 64, 127
1, 734816, Note_off_c, 0, 64, 55
1, 734819, Note_on_c, 0, 82, 70
1, 734819, Note_off_c, 0, 80, 64
1, 734849, Note_off_c, 0, 82, 57
1, 734885, Note_on_c, 0, 82, 68
1, 734918, Note_on_c, 0, 80, 85
1, 734918, Control_c, 0, 64, 73
1, 734933, Control_c, 0, 64, 0
1, 734945, Note_on_c, 0, 48, 58
1, 734945, Note_off_c, 0, 82, 64
1, 734946, Note_on_c, 0, 47, 61
1, 734947, Control_c, 0, 64, 44
1, 734962, Control_c, 0, 64, 77
1, 734973, Note_off_c, 0, 80, 68
1, 734977, Control_c, 0, 64, 127
1, 734980, Note_off_c, 0, 47, 62
1, 735003, Note_on_c, 0, 55, 78
1, 735006, Note_on_c, 0, 53, 72
1, 735034, Note_off_c, 0, 48, 62
1, 735070, Note_on_c, 0, 52, 80
1, 735070, Note_off_c, 0, 53, 62
1, 735072, Note_off_c, 0, 55, 61
1, 735112, Note_on_c, 0, 79, 81
1, 735130, Note_off_c, 0, 52, 62
1, 735141, Control_c, 0, 64, 76
1, 735156, Control_c, 0, 64, 0
1, 735198, Note_on_c, 0, 76, 87
1, 735217, Note_off_c, 0, 79, 45
1, 735251, Control_c, 0, 64, 77
1, 735266, Control_c, 0, 64, 127
1, 735272, Note_on_c, 0, 64, 75
1, 735275, Note_on_c, 0, 71, 81
1, 735282, Note_on_c, 0, 67, 79
1, 735282, Note_off_c, 0, 76, 60
1, 735295, Note_off_c, 0, 64, 71
1, 735377, Note_on_c, 0, 83, 89
1, 735392, Note_on_c, 0, 84, 52
1, 735393, Note_off_c, 0, 84, 127
1, 735393, Note_off_c, 0, 83, 73
1, 735410, Note_off_c, 0, 67, 58
1, 735454, Note_on_c, 0, 76, 86
1, 735457, Note_off_c, 0, 71, 66
1, 735474, Control_c, 0, 64, 79
1, 735489, Control_c, 0, 64, 0
1, 735542, Note_on_c, 0, 72, 75
1, 735566, Note_off_c, 0, 76, 60
1, 735577, Control_c, 0, 64, 53
1, 735592, Control_c, 0, 64, 77
1, 735594, Note_on_c, 0, 50, 73
1, 735594, Note_on_c, 0, 60, 85
1, 735602, Note_on_c, 0, 68, 81
1, 735607, Control_c, 0, 64, 127
1, 735608, Note_off_c, 0, 72, 64
1, 735615, Note_off_c, 0, 60, 72
1, 735619, Note_off_c, 0, 50, 67
1, 735627, Note_on_c, 0, 64, 72
1, 735668, Note_off_c, 0, 68, 62
1, 735769, Note_off_c, 0, 64, 61
1, 735790, Note_on_c, 0, 72, 81
1, 735860, Control_c, 0, 64, 73
1, 735871, Note_on_c, 0, 69, 67
1, 735874, Control_c, 0, 64, 0
1, 735892, Note_off_c, 0, 72, 61
1, 735927, Note_on_c, 0, 47, 80
1, 735933, Note_on_c, 0, 57, 87
1, 735952, Note_on_c, 0, 64, 79
1, 735956, Control_c, 0, 64, 71
1, 735961, Note_off_c, 0, 47, 71
1, 735961, Note_off_c, 0, 57, 69
1, 735970, Note_on_c, 0, 61, 63
1, 735970, Note_off_c, 0, 69, 65
1, 735971, Control_c, 0, 64, 117
1, 735986, Control_c, 0, 64, 127
1, 735997, Note_off_c, 0, 61, 65
1, 735999, Note_on_c, 0, 49, 9
1, 736057, Note_off_c, 0, 49, 40
1, 736059, Note_on_c, 0, 76, 88
1, 736071, Note_off_c, 0, 76, 73
1, 736074, Note_on_c, 0, 74, 67
1, 736095, Note_off_c, 0, 74, 64
1, 736148, Note_on_c, 0, 69, 81
1, 736152, Note_off_c, 0, 64, 65
1, 736193, Control_c, 0, 64, 82
1, 736208, Control_c, 0, 64, 0
1, 736226, Note_on_c, 0, 65, 77
1, 736280, Note_off_c, 0, 69, 54
1, 736287, Note_on_c, 0, 53, 89
1, 736291, Note_on_c, 0, 43, 73
1, 736297, Control_c, 0, 64, 26
1, 736299, Note_on_c, 0, 61, 83
1, 736307, Note_on_c, 0, 57, 74
1, 736310, Note_off_c, 0, 53, 73
1, 736312, Control_c, 0, 64, 78
1, 736319, Note_off_c, 0, 43, 65
1, 736325, Note_on_c, 0, 49, 34
1, 736326, Note_off_c, 0, 49, 127
1, 736327, Control_c, 0, 64, 127
1, 736329, Note_off_c, 0, 65, 64
1, 736365, Poly_aftertouch_c, 0, 49, 0
1, 736375, Note_off_c, 0, 61, 64
1, 736475, Note_off_c, 0, 57, 56
1, 736500, Note_on_c, 0, 65, 85
1, 736572, Note_on_c, 0, 62, 71
1, 736595, Note_off_c, 0, 65, 61
1, 736627, Note_off_c, 0, 62, 62
1, 736638, Control_c, 0, 64, 85
1, 736653, Control_c, 0, 64, 0
1, 736691, Note_on_c, 0, 57, 104
1, 736702, Note_on_c, 0, 53, 85
1, 736802, Note_off_c, 0, 53, 64
1, 736822, Note_off_c, 0, 57, 58
1, 736885, Note_on_c, 0, 43, 109
1, 736887, Note_on_c, 0, 31, 83
1, 736888, Note_on_c, 0, 33, 79
1, 736897, Control_c, 0, 64, 48
1, 736909, Note_off_c, 0, 31, 66
1, 736912, Control_c, 0, 64, 127
1, 736916, Note_off_c, 0, 33, 66
1, 736918, Note_on_c, 0, 34, 48
1, 736919, Note_off_c, 0, 34, 127
1, 736923, Note_off_c, 0, 43, 68
1, 736954, Poly_aftertouch_c, 0, 34, 0
1, 737091, Note_on_c, 0, 83, 100
1, 737091, Note_on_c, 0, 77, 92
1, 737093, Note_on_c, 0, 58, 100
1, 737094, Note_on_c, 0, 52, 96
1, 737094, Note_on_c, 0, 71, 103
1, 737094, Note_on_c, 0, 80, 102
1, 737095, Note_on_c, 0, 54, 94
1, 737103, Note_on_c, 0, 62, 84
1, 737107, Note_on_c, 0, 60, 80
1, 737120, Control_c, 0, 64, 82
1, 737123, Note_off_c, 0, 58, 62
1, 737123, Note_off_c, 0, 62, 70
1, 737124, Note_off_c, 0, 54, 67
1, 737129, Note_off_c, 0, 60, 70
1, 737129, Note_off_c, 0, 52, 63
1, 737135, Control_c, 0, 64, 0
1, 737305, Note_on_c, 0, 40, 103
1, 737305, Note_off_c, 0, 71, 56
1, 737308, Note_on_c, 0, 28, 102
1, 737317, Note_off_c, 0, 83, 55
1, 737319, Note_off_c, 0, 77, 54
1, 737323, Note_off_c, 0, 80, 59
1, 737331, Note_on_c, 0, 30, 56
1, 737362, Note_off_c, 0, 30, 55
1, 737398, Note_off_c, 0, 40, 63
1, 737405, Note_off_c, 0, 28, 62
1, 737560, Note_on_c, 0, 36, 118
1, 737562, Note_on_c, 0, 24, 113
1, 737596, Note_on_c, 0, 30, 43
1, 737598, Note_on_c, 0, 27, 46
1, 737599, Note_off_c, 0, 27, 127
1, 737617, Control_c, 0, 64, 95
1, 737632, Control_c, 0, 64, 127
1, 737633, Note_off_c, 0, 30, 35
1, 737653, Note_off_c, 0, 24, 65
1, 737668, Note_off_c, 0, 36, 65
1, 738064, Note_on_c, 0, 60, 91
1, 738067, Note_on_c, 0, 64, 94
1, 738067, Note_on_c, 0, 72, 106
1, 738068, Note_on_c, 0, 91, 107
1, 738069, Note_on_c, 0, 67, 97
1, 738069, Note_on_c, 0, 96, 103
1, 738071, Note_on_c, 0, 63, 95
1, 738072, Note_on_c, 0, 84, 116
1, 738072, Note_on_c, 0, 94, 99
1, 738073, Note_on_c, 0, 95, 103
1, 738107, Note_on_c, 0, 90, 47
1, 738108, Note_off_c, 0, 90, 127
1, 738118, Note_on_c, 0, 68, 22
1, 738119, Note_off_c, 0, 68, 127
1, 738861, Note_off_c, 0, 72, 0
1, 738861, Note_on_c, 0, 72, 8
1, 738884, Note_off_c, 0, 60, 60
1, 738886, Note_off_c, 0, 67, 62
1, 738889, Note_off_c, 0, 64, 63
1, 738894, Note_off_c, 0, 63, 61
1, 738896, Note_off_c, 0, 84, 62
1, 738899, Control_c, 0, 64, 112
1, 738905, Note_off_c, 0, 72, 48
1, 738914, Note_off_c, 0, 94, 69
1, 738914, Control_c, 0, 64, 68
1, 738916, Note_off_c, 0, 91, 64
1, 738929, Control_c, 0, 64, 0
1, 738938, Note_off_c, 0, 95, 63
1, 738948, Note_off_c, 0, 96, 68
1, 739023, End_track
0, 0, End_of_file
