0, 0, Header, 0, 1, 384
1, 0, Start_track
1, 0, Title_t, "Sonata F#m,Op.11--Soukhovetski  "
1, 0, Text_t, "2009 International Piano-e-Competition finals"
1, 0, Text_t, "captured June-July 2009"
1, 0, Text_t, "http://www.piano-e-competition.com/"
1, 0, Text_t, "standard-resolution version"
1, 0, Text_t, "File processed for distribution by software from Zenph Studios, Inc., http://www.zenph.com"
1, 0, Instrument_name_t, "Yamaha Disklavier Pro Mark IV concert grand piano, model DCFIIISM4PRO"
1, 0, Sequencer_specific, 39, 67, 113, 0, 1, 0, 1, 0, 83, 111, 110, 97, 116, 97, 32, 70, 35, 109, 32, 79, 112, 46, 49, 49, 75, 83, 111, 117, 107, 104, 111, 118, 101, 116, 115, 107, 105, 32, 32, 32
1, 0, Sequencer_specific, 6, 67, 113, 0, 0, 0, 69
1, 0, System_exclusive, 21, 67, 113, 126, 21, 0, 2, 2, 2, 3, 12, 8, 4, 10, 4, 14, 9, 14, 6, 7, 2, 247
1, 0, Sequencer_specific, 5, 67, 123, 12, 2, 1
1, 0, Tempo, 512820
1, 0, Time_signature, 4, 2, 24, 8
1, 0, System_exclusive, 5, 126, 127, 9, 1, 247
1, 1, System_exclusive, 8, 67, 16, 76, 0, 0, 126, 0, 247
1, 2, System_exclusive, 8, 67, 16, 76, 8, 9, 7, 1, 247
1, 3, Control_c, 0, 0, 0
1, 3, Control_c, 1, 0, 0
1, 3, Control_c, 2, 0, 0
1, 3, Control_c, 3, 0, 0
1, 3, Control_c, 4, 0, 0
1, 3, Control_c, 5, 0, 0
1, 3, Control_c, 6, 0, 0
1, 3, Control_c, 7, 0, 0
1, 3, Control_c, 8, 0, 0
1, 3, Control_c, 9, 0, 127
1, 3, Control_c, 10, 0, 0
1, 3, Control_c, 11, 0, 0
1, 3, Control_c, 12, 0, 0
1, 3, Control_c, 13, 0, 0
1, 3, Control_c, 14, 0, 0
1, 3, Control_c, 15, 0, 0
1, 4, Control_c, 0, 32, 0
1, 4, Control_c, 1, 32, 0
1, 4, Control_c, 2, 32, 0
1, 4, Control_c, 3, 32, 0
1, 4, Control_c, 4, 32, 0
1, 4, Control_c, 5, 32, 0
1, 4, Control_c, 6, 32, 0
1, 4, Control_c, 7, 32, 0
1, 4, Control_c, 8, 32, 0
1, 4, Control_c, 9, 32, 0
1, 4, Control_c, 10, 32, 0
1, 4, Control_c, 11, 32, 0
1, 4, Control_c, 12, 32, 0
1, 4, Control_c, 13, 32, 0
1, 4, Control_c, 14, 32, 0
1, 4, Control_c, 15, 32, 0
1, 5, Program_c, 0, 0
1, 5, Program_c, 1, 0
1, 5, Program_c, 2, 0
1, 5, Program_c, 3, 0
1, 5, Program_c, 4, 0
1, 5, Program_c, 5, 0
1, 5, Program_c, 6, 0
1, 5, Program_c, 7, 0
1, 5, Program_c, 8, 0
1, 5, Program_c, 9, 0
1, 5, Program_c, 10, 0
1, 5, Program_c, 11, 0
1, 5, Program_c, 12, 0
1, 5, Program_c, 13, 0
1, 5, Program_c, 14, 0
1, 5, Program_c, 15, 0
1, 6, Control_c, 0, 7, 100
1, 6, Control_c, 1, 7, 100
1, 6, Control_c, 2, 7, 100
1, 6, Control_c, 3, 7, 100
1, 6, Control_c, 4, 7, 100
1, 6, Control_c, 5, 7, 100
1, 6, Control_c, 6, 7, 100
1, 6, Control_c, 7, 7, 100
1, 6, Control_c, 8, 7, 100
1, 6, Control_c, 9, 7, 100
1, 6, Control_c, 10, 7, 100
1, 6, Control_c, 11, 7, 100
1, 6, Control_c, 12, 7, 100
1, 6, Control_c, 13, 7, 100
1, 6, Control_c, 14, 7, 100
1, 6, Control_c, 15, 7, 100
1, 117, Control_c, 0, 64, 15
1, 229, Control_c, 0, 64, 31
1, 341, Control_c, 0, 64, 46
1, 452, Control_c, 0, 64, 63
1, 564, Control_c, 0, 64, 77
1, 676, Control_c, 0, 64, 94
1, 787, Control_c, 0, 64, 108
1, 899, Control_c, 0, 64, 127
1, 1130, Note_on_c, 0, 42, 79
1, 1592, Note_on_c, 0, 49, 83
1, 1698, Note_off_c, 0, 42, 61
1, 1862, Note_on_c, 0, 57, 82
1, 1990, Note_off_c, 0, 57, 59
1, 2072, Note_on_c, 0, 57, 82
1, 2099, Note_off_c, 0, 49, 47
1, 2233, Note_on_c, 0, 49, 84
1, 2256, Note_off_c, 0, 57, 49
1, 2376, Note_on_c, 0, 42, 85
1, 2396, Note_off_c, 0, 49, 61
1, 2459, Note_off_c, 0, 42, 63
1, 2511, Note_on_c, 0, 42, 75
1, 2661, Note_on_c, 0, 49, 87
1, 2684, Note_off_c, 0, 42, 56
1, 2792, Note_on_c, 0, 57, 81
1, 2858, Note_on_c, 0, 61, 101
1, 2917, Note_off_c, 0, 57, 51
1, 3066, Note_on_c, 0, 66, 97
1, 3093, Note_on_c, 0, 42, 71
1, 3095, Note_off_c, 0, 49, 54
1, 3184, Control_c, 0, 64, 86
1, 3187, Note_off_c, 0, 61, 51
1, 3199, Control_c, 0, 64, 69
1, 3213, Control_c, 0, 64, 67
1, 3228, Control_c, 0, 64, 73
1, 3243, Control_c, 0, 64, 85
1, 3258, Control_c, 0, 64, 127
1, 3330, Note_on_c, 0, 49, 75
1, 3409, Note_off_c, 0, 42, 55
1, 3473, Note_on_c, 0, 57, 71
1, 3532, Note_off_c, 0, 49, 59
1, 3533, Note_off_c, 0, 57, 60
1, 3599, Note_on_c, 0, 57, 71
1, 3702, Note_off_c, 0, 57, 58
1, 3724, Note_on_c, 0, 49, 82
1, 3822, Note_off_c, 0, 49, 59
1, 3826, Note_on_c, 0, 42, 74
1, 3891, Note_off_c, 0, 42, 62
1, 3961, Note_on_c, 0, 42, 68
1, 4059, Note_off_c, 0, 66, 55
1, 4068, Note_off_c, 0, 42, 56
1, 4080, Note_on_c, 0, 49, 77
1, 4236, Note_on_c, 0, 57, 70
1, 4312, Note_off_c, 0, 57, 57
1, 4315, Note_on_c, 0, 61, 100
1, 4367, Note_off_c, 0, 61, 62
1, 4426, Note_on_c, 0, 62, 91
1, 4441, Note_on_c, 0, 42, 68
1, 4443, Note_off_c, 0, 49, 51
1, 4475, Note_on_c, 0, 60, 14
1, 4515, Note_off_c, 0, 60, 55
1, 4532, Control_c, 0, 64, 79
1, 4547, Control_c, 0, 64, 49
1, 4562, Control_c, 0, 64, 0
1, 4621, Control_c, 0, 64, 64
1, 4636, Control_c, 0, 64, 74
1, 4650, Control_c, 0, 64, 91
1, 4665, Control_c, 0, 64, 127
1, 4721, Note_on_c, 0, 50, 67
1, 4757, Note_off_c, 0, 42, 62
1, 4867, Note_on_c, 0, 59, 73
1, 4923, Note_off_c, 0, 59, 58
1, 4950, Note_off_c, 0, 50, 37
1, 4997, Note_on_c, 0, 59, 65
1, 5065, Note_off_c, 0, 59, 53
1, 5125, Note_on_c, 0, 50, 68
1, 5212, Note_off_c, 0, 50, 55
1, 5234, Note_on_c, 0, 42, 70
1, 5304, Note_off_c, 0, 42, 61
1, 5354, Note_on_c, 0, 42, 55
1, 5486, Note_on_c, 0, 50, 69
1, 5633, Note_on_c, 0, 54, 68
1, 5689, Note_off_c, 0, 42, 49
1, 5707, Note_on_c, 0, 59, 91
1, 5743, Note_off_c, 0, 50, 59
1, 5857, Note_on_c, 0, 57, 85
1, 5896, Note_on_c, 0, 42, 60
1, 5906, Note_off_c, 0, 62, 56
1, 5951, Note_off_c, 0, 59, 55
1, 5954, Note_off_c, 0, 54, 50
1, 5971, Control_c, 0, 64, 95
1, 5986, Control_c, 0, 64, 72
1, 6001, Control_c, 0, 64, 0
1, 6083, Note_on_c, 0, 49, 63
1, 6104, Control_c, 0, 64, 64
1, 6119, Control_c, 0, 64, 73
1, 6134, Control_c, 0, 64, 84
1, 6149, Control_c, 0, 64, 104
1, 6164, Control_c, 0, 64, 127
1, 6208, Note_on_c, 0, 54, 66
1, 6279, Note_off_c, 0, 54, 60
1, 6294, Note_off_c, 0, 49, 37
1, 6349, Note_on_c, 0, 54, 53
1, 6424, Control_c, 0, 67, 9
1, 6439, Control_c, 0, 67, 10
1, 6444, Note_off_c, 0, 42, 48
1, 6453, Control_c, 0, 67, 12
1, 6468, Control_c, 0, 67, 13
1, 6483, Control_c, 0, 67, 14
1, 6485, Note_on_c, 0, 49, 59
1, 6497, Control_c, 0, 67, 15
1, 6512, Control_c, 0, 67, 17
1, 6527, Control_c, 0, 67, 19
1, 6542, Control_c, 0, 67, 20
1, 6557, Control_c, 0, 67, 21
1, 6572, Note_off_c, 0, 49, 55
1, 6572, Control_c, 0, 67, 22
1, 6587, Control_c, 0, 67, 23
1, 6604, Note_on_c, 0, 42, 53
1, 6632, Control_c, 0, 67, 22
1, 6650, Note_off_c, 0, 42, 55
1, 6676, Control_c, 0, 67, 22
1, 6720, Control_c, 0, 67, 21
1, 6735, Control_c, 0, 64, 112
1, 6744, Note_on_c, 0, 42, 57
1, 6750, Control_c, 0, 64, 85
1, 6750, Control_c, 0, 67, 21
1, 6764, Control_c, 0, 64, 74
1, 6779, Control_c, 0, 64, 72
1, 6779, Control_c, 0, 67, 20
1, 6782, Note_off_c, 0, 54, 29
1, 6794, Control_c, 0, 64, 75
1, 6794, Control_c, 0, 67, 20
1, 6809, Control_c, 0, 64, 81
1, 6809, Control_c, 0, 67, 19
1, 6824, Control_c, 0, 64, 89
1, 6824, Control_c, 0, 67, 19
1, 6838, Control_c, 0, 64, 106
1, 6838, Control_c, 0, 67, 18
1, 6853, Control_c, 0, 64, 127
1, 6853, Control_c, 0, 67, 18
1, 6868, Control_c, 0, 67, 17
1, 6897, Control_c, 0, 67, 17
1, 6911, Note_on_c, 0, 49, 54
1, 6957, Control_c, 0, 67, 17
1, 6971, Control_c, 0, 67, 18
1, 7001, Control_c, 0, 67, 19
1, 7046, Control_c, 0, 67, 19
1, 7111, Note_on_c, 0, 53, 53
1, 7112, Note_off_c, 0, 49, 28
1, 7127, Note_off_c, 0, 42, 36
1, 7157, Control_c, 0, 67, 19
1, 7171, Note_on_c, 0, 56, 83
1, 7181, Note_off_c, 0, 57, 59
1, 7193, Note_off_c, 0, 53, 60
1, 7202, Control_c, 0, 67, 18
1, 7217, Control_c, 0, 67, 18
1, 7247, Control_c, 0, 67, 17
1, 7265, Note_off_c, 0, 56, 52
1, 7272, Note_on_c, 0, 54, 78
1, 7291, Control_c, 0, 67, 17
1, 7308, Note_on_c, 0, 42, 47
1, 7320, Control_c, 0, 67, 17
1, 7350, Control_c, 0, 64, 87
1, 7350, Control_c, 0, 67, 18
1, 7365, Control_c, 0, 64, 67
1, 7365, Control_c, 0, 67, 18
1, 7380, Control_c, 0, 64, 0
1, 7439, Control_c, 0, 67, 19
1, 7454, Control_c, 0, 64, 62
1, 7469, Control_c, 0, 64, 70
1, 7469, Control_c, 0, 67, 19
1, 7484, Control_c, 0, 64, 81
1, 7499, Control_c, 0, 64, 94
1, 7499, Control_c, 0, 67, 20
1, 7513, Control_c, 0, 64, 110
1, 7528, Control_c, 0, 64, 127
1, 7528, Control_c, 0, 67, 20
1, 7543, Control_c, 0, 67, 21
1, 7544, Note_on_c, 0, 49, 55
1, 7558, Control_c, 0, 67, 21
1, 7587, Control_c, 0, 67, 22
1, 7615, Note_off_c, 0, 42, 37
1, 7632, Control_c, 0, 67, 22
1, 7661, Control_c, 0, 67, 23
1, 7691, Control_c, 0, 67, 23
1, 7693, Note_on_c, 0, 57, 55
1, 7720, Control_c, 0, 67, 24
1, 7736, Note_off_c, 0, 57, 57
1, 7750, Control_c, 0, 67, 24
1, 7758, Note_off_c, 0, 49, 28
1, 7765, Control_c, 0, 67, 25
1, 7780, Control_c, 0, 67, 27
1, 7794, Control_c, 0, 67, 29
1, 7809, Control_c, 0, 67, 30
1, 7824, Control_c, 0, 67, 31
1, 7846, Control_c, 0, 67, 32
1, 7854, Note_on_c, 0, 57, 51
1, 7861, Control_c, 0, 67, 34
1, 7876, Control_c, 0, 67, 35
1, 7891, Control_c, 0, 67, 36
1, 7906, Control_c, 0, 67, 37
1, 7920, Control_c, 0, 67, 38
1, 7935, Control_c, 0, 67, 39
1, 7949, Control_c, 0, 67, 40
1, 7965, Control_c, 0, 67, 41
1, 7980, Control_c, 0, 67, 42
1, 7991, Note_on_c, 0, 49, 50
1, 7994, Note_off_c, 0, 57, 30
1, 7995, Control_c, 0, 67, 43
1, 8009, Control_c, 0, 67, 44
1, 8024, Control_c, 0, 67, 44
1, 8039, Control_c, 0, 67, 45
1, 8054, Control_c, 0, 67, 46
1, 8069, Control_c, 0, 67, 47
1, 8084, Control_c, 0, 67, 48
1, 8098, Control_c, 0, 67, 48
1, 8113, Control_c, 0, 67, 49
1, 8116, Note_on_c, 0, 42, 49
1, 8128, Control_c, 0, 67, 50
1, 8136, Note_off_c, 0, 49, 34
1, 8143, Control_c, 0, 67, 52
1, 8158, Control_c, 0, 67, 53
1, 8173, Control_c, 0, 67, 55
1, 8174, Note_off_c, 0, 42, 55
1, 8188, Control_c, 0, 67, 56
1, 8202, Control_c, 0, 67, 58
1, 8215, Note_off_c, 0, 54, 62
1, 8217, Control_c, 0, 67, 61
1, 8232, Control_c, 0, 67, 63
1, 8247, Control_c, 0, 67, 66
1, 8261, Control_c, 0, 67, 69
1, 8276, Control_c, 0, 67, 72
1, 8286, Note_on_c, 0, 42, 48
1, 8291, Control_c, 0, 67, 74
1, 8306, Control_c, 0, 67, 76
1, 8321, Control_c, 0, 67, 77
1, 8335, Control_c, 0, 67, 77
1, 8350, Control_c, 0, 67, 78
1, 8365, Control_c, 0, 67, 79
1, 8380, Control_c, 0, 67, 79
1, 8395, Control_c, 0, 67, 80
1, 8409, Control_c, 0, 67, 81
1, 8424, Control_c, 0, 67, 83
1, 8435, Note_off_c, 0, 42, 33
1, 8435, Note_on_c, 0, 49, 49
1, 8439, Control_c, 0, 67, 84
1, 8454, Control_c, 0, 67, 85
1, 8468, Control_c, 0, 67, 87
1, 8483, Control_c, 0, 67, 88
1, 8498, Control_c, 0, 67, 90
1, 8513, Control_c, 0, 67, 91
1, 8528, Control_c, 0, 67, 91
1, 8542, Control_c, 0, 67, 92
1, 8557, Control_c, 0, 67, 92
1, 8640, Note_on_c, 0, 57, 40
1, 8671, Note_off_c, 0, 49, 28
1, 8693, Note_off_c, 0, 57, 54
1, 8748, Note_on_c, 0, 61, 61
1, 8785, Note_off_c, 0, 61, 64
1, 8863, Note_on_c, 0, 61, 58
1, 8898, Note_on_c, 0, 42, 40
1, 8906, Control_c, 0, 67, 92
1, 8921, Control_c, 0, 64, 101
1, 8936, Control_c, 0, 64, 81
1, 8951, Control_c, 0, 64, 72
1, 8966, Control_c, 0, 64, 71
1, 8966, Control_c, 0, 67, 91
1, 8981, Control_c, 0, 64, 76
1, 8981, Control_c, 0, 67, 91
1, 8995, Control_c, 0, 64, 85
1, 8995, Control_c, 0, 67, 90
1, 9010, Control_c, 0, 64, 102
1, 9010, Control_c, 0, 67, 89
1, 9025, Control_c, 0, 64, 127
1, 9025, Control_c, 0, 67, 89
1, 9040, Control_c, 0, 67, 88
1, 9070, Control_c, 0, 67, 88
1, 9084, Control_c, 0, 67, 87
1, 9099, Control_c, 0, 67, 87
1, 9114, Control_c, 0, 67, 86
1, 9128, Note_on_c, 0, 49, 46
1, 9129, Control_c, 0, 67, 86
1, 9173, Control_c, 0, 67, 85
1, 9201, Note_off_c, 0, 42, 41
1, 9203, Control_c, 0, 67, 85
1, 9218, Control_c, 0, 67, 84
1, 9232, Control_c, 0, 67, 84
1, 9262, Control_c, 0, 67, 83
1, 9284, Note_on_c, 0, 57, 45
1, 9291, Control_c, 0, 67, 83
1, 9321, Control_c, 0, 67, 82
1, 9325, Note_off_c, 0, 57, 60
1, 9344, Control_c, 0, 67, 82
1, 9374, Note_off_c, 0, 49, 27
1, 9388, Control_c, 0, 67, 81
1, 9433, Control_c, 0, 67, 81
1, 9438, Note_on_c, 0, 57, 47
1, 9463, Control_c, 0, 67, 80
1, 9507, Control_c, 0, 67, 80
1, 9537, Control_c, 0, 67, 79
1, 9552, Control_c, 0, 67, 79
1, 9568, Control_c, 0, 67, 78
1, 9583, Control_c, 0, 67, 78
1, 9587, Note_on_c, 0, 49, 52
1, 9597, Control_c, 0, 67, 77
1, 9599, Note_off_c, 0, 57, 32
1, 9612, Control_c, 0, 67, 76
1, 9627, Control_c, 0, 67, 76
1, 9642, Control_c, 0, 67, 75
1, 9671, Control_c, 0, 67, 74
1, 9686, Control_c, 0, 67, 74
1, 9701, Control_c, 0, 67, 73
1, 9715, Control_c, 0, 67, 72
1, 9717, Note_on_c, 0, 42, 41
1, 9728, Note_off_c, 0, 49, 36
1, 9730, Control_c, 0, 67, 72
1, 9745, Control_c, 0, 67, 71
1, 9756, Note_off_c, 0, 42, 59
1, 9760, Control_c, 0, 67, 71
1, 9775, Control_c, 0, 67, 70
1, 9789, Control_c, 0, 67, 70
1, 9804, Control_c, 0, 67, 69
1, 9834, Control_c, 0, 67, 69
1, 9866, Note_on_c, 0, 42, 43
1, 9878, Control_c, 0, 67, 68
1, 9948, Note_off_c, 0, 42, 43
1, 9974, Note_on_c, 0, 49, 50
1, 10071, Control_c, 0, 67, 68
1, 10109, Note_on_c, 0, 57, 50
1, 10159, Note_off_c, 0, 57, 50
1, 10167, Control_c, 0, 67, 68
1, 10188, Note_on_c, 0, 66, 73
1, 10197, Note_off_c, 0, 49, 29
1, 10212, Control_c, 0, 67, 69
1, 10227, Control_c, 0, 67, 69
1, 10241, Control_c, 0, 67, 70
1, 10264, Note_on_c, 0, 68, 74
1, 10271, Control_c, 0, 64, 118
1, 10286, Control_c, 0, 64, 85
1, 10301, Control_c, 0, 64, 69
1, 10314, Note_on_c, 0, 42, 32
1, 10315, Control_c, 0, 64, 64
1, 10330, Control_c, 0, 64, 66
1, 10345, Control_c, 0, 64, 70
1, 10361, Control_c, 0, 64, 77
1, 10376, Control_c, 0, 64, 90
1, 10390, Control_c, 0, 64, 127
1, 10420, Control_c, 0, 67, 69
1, 10450, Control_c, 0, 67, 69
1, 10480, Note_on_c, 0, 49, 53
1, 10492, Note_off_c, 0, 42, 40
1, 10537, Note_off_c, 0, 49, 62
1, 10568, Control_c, 0, 67, 68
1, 10609, Note_on_c, 0, 59, 52
1, 10676, Note_off_c, 0, 59, 51
1, 10686, Control_c, 0, 67, 68
1, 10732, Note_on_c, 0, 59, 41
1, 10839, Note_off_c, 0, 59, 58
1, 10842, Control_c, 0, 67, 67
1, 10894, Note_on_c, 0, 49, 49
1, 10987, Note_off_c, 0, 49, 59
1, 11022, Note_on_c, 0, 42, 48
1, 11059, Note_off_c, 0, 42, 60
1, 11094, Control_c, 0, 67, 67
1, 11168, Note_on_c, 0, 42, 45
1, 11183, Control_c, 0, 67, 66
1, 11189, Note_on_c, 0, 65, 52
1, 11234, Note_off_c, 0, 65, 56
1, 11273, Control_c, 0, 67, 66
1, 11278, Note_off_c, 0, 66, 39
1, 11302, Control_c, 0, 67, 65
1, 11315, Note_on_c, 0, 49, 54
1, 11317, Control_c, 0, 67, 61
1, 11332, Control_c, 0, 67, 59
1, 11347, Control_c, 0, 67, 57
1, 11361, Control_c, 0, 67, 56
1, 11376, Control_c, 0, 67, 54
1, 11391, Control_c, 0, 67, 52
1, 11401, Note_off_c, 0, 61, 58
1, 11406, Control_c, 0, 67, 50
1, 11421, Control_c, 0, 67, 49
1, 11435, Control_c, 0, 67, 48
1, 11439, Note_off_c, 0, 42, 41
1, 11450, Control_c, 0, 67, 47
1, 11464, Note_on_c, 0, 56, 53
1, 11465, Control_c, 0, 67, 46
1, 11478, Note_off_c, 0, 49, 52
1, 11479, Control_c, 0, 67, 45
1, 11494, Control_c, 0, 67, 44
1, 11509, Control_c, 0, 67, 44
1, 11521, Note_off_c, 0, 56, 52
1, 11524, Control_c, 0, 67, 43
1, 11528, Note_on_c, 0, 61, 79
1, 11539, Control_c, 0, 67, 43
1, 11568, Control_c, 0, 67, 42
1, 11575, Note_off_c, 0, 61, 63
1, 11621, Control_c, 0, 67, 43
1, 11626, Note_on_c, 0, 61, 77
1, 11635, Control_c, 0, 67, 44
1, 11650, Control_c, 0, 67, 44
1, 11663, Note_on_c, 0, 42, 55
1, 11665, Control_c, 0, 67, 45
1, 11680, Control_c, 0, 64, 106
1, 11680, Control_c, 0, 67, 45
1, 11693, Control_c, 0, 64, 79
1, 11693, Control_c, 0, 67, 46
1, 11708, Control_c, 0, 64, 62
1, 11723, Control_c, 0, 64, 0
1, 11738, Control_c, 0, 64, 34
1, 11753, Control_c, 0, 64, 59
1, 11753, Control_c, 0, 67, 46
1, 11767, Control_c, 0, 64, 68
1, 11782, Control_c, 0, 64, 79
1, 11797, Control_c, 0, 64, 102
1, 11797, Control_c, 0, 67, 46
1, 11812, Control_c, 0, 64, 127
1, 11826, Note_off_c, 0, 68, 53
1, 11827, Control_c, 0, 67, 45
1, 11850, Note_on_c, 0, 49, 65
1, 11856, Control_c, 0, 67, 45
1, 11871, Control_c, 0, 67, 44
1, 11900, Control_c, 0, 67, 44
1, 11913, Note_off_c, 0, 42, 56
1, 11915, Control_c, 0, 67, 43
1, 11945, Control_c, 0, 67, 43
1, 11961, Control_c, 0, 67, 42
1, 11976, Control_c, 0, 67, 42
1, 11990, Note_on_c, 0, 57, 63
1, 11990, Control_c, 0, 67, 41
1, 12005, Control_c, 0, 67, 41
1, 12020, Control_c, 0, 67, 40
1, 12033, Note_off_c, 0, 57, 57
1, 12035, Control_c, 0, 67, 38
1, 12050, Control_c, 0, 67, 35
1, 12064, Control_c, 0, 67, 32
1, 12075, Note_off_c, 0, 49, 37
1, 12079, Control_c, 0, 67, 29
1, 12094, Control_c, 0, 67, 26
1, 12108, Control_c, 0, 67, 23
1, 12119, Note_on_c, 0, 57, 66
1, 12123, Control_c, 0, 67, 21
1, 12138, Control_c, 0, 67, 19
1, 12153, Control_c, 0, 67, 17
1, 12168, Control_c, 0, 67, 16
1, 12182, Control_c, 0, 67, 15
1, 12197, Note_off_c, 0, 57, 58
1, 12197, Control_c, 0, 67, 14
1, 12212, Control_c, 0, 67, 13
1, 12233, Note_on_c, 0, 49, 68
1, 12242, Control_c, 0, 67, 13
1, 12336, Note_off_c, 0, 49, 61
1, 12358, Note_on_c, 0, 42, 73
1, 12417, Note_off_c, 0, 42, 61
1, 12457, Control_c, 0, 67, 12
1, 12467, Note_on_c, 0, 42, 70
1, 12502, Control_c, 0, 67, 12
1, 12561, Control_c, 0, 67, 11
1, 12578, Note_on_c, 0, 49, 80
1, 12590, Control_c, 0, 67, 11
1, 12598, Note_off_c, 0, 42, 57
1, 12605, Control_c, 0, 67, 10
1, 12620, Control_c, 0, 67, 9
1, 12635, Control_c, 0, 67, 9
1, 12669, Note_on_c, 0, 57, 76
1, 12695, Control_c, 0, 67, 8
1, 12709, Control_c, 0, 67, 8
1, 12739, Control_c, 0, 67, 0
1, 12741, Note_on_c, 0, 69, 98
1, 12760, Note_off_c, 0, 57, 58
1, 12842, Note_on_c, 0, 42, 81
1, 12874, Note_on_c, 0, 71, 99
1, 12877, Note_off_c, 0, 49, 61
1, 12932, Control_c, 0, 64, 90
1, 12947, Control_c, 0, 64, 65
1, 12962, Control_c, 0, 64, 0
1, 12992, Control_c, 0, 64, 63
1, 13006, Control_c, 0, 64, 74
1, 13021, Control_c, 0, 64, 92
1, 13036, Control_c, 0, 64, 127
1, 13064, Note_on_c, 0, 49, 81
1, 13113, Note_off_c, 0, 42, 61
1, 13204, Note_on_c, 0, 59, 74
1, 13243, Note_off_c, 0, 49, 59
1, 13263, Note_off_c, 0, 59, 60
1, 13323, Note_on_c, 0, 59, 67
1, 13406, Note_off_c, 0, 59, 58
1, 13434, Note_on_c, 0, 49, 81
1, 13511, Note_off_c, 0, 49, 62
1, 13543, Note_on_c, 0, 42, 80
1, 13608, Note_off_c, 0, 42, 61
1, 13666, Note_on_c, 0, 42, 74
1, 13669, Note_on_c, 0, 68, 88
1, 13690, Note_off_c, 0, 69, 54
1, 13721, Note_off_c, 0, 61, 58
1, 13780, Note_on_c, 0, 49, 85
1, 13819, Note_off_c, 0, 68, 57
1, 13894, Note_on_c, 0, 56, 85
1, 13942, Note_off_c, 0, 42, 50
1, 13971, Note_on_c, 0, 61, 107
1, 14018, Note_off_c, 0, 56, 60
1, 14041, Note_off_c, 0, 61, 64
1, 14058, Note_off_c, 0, 49, 55
1, 14096, Note_on_c, 0, 61, 105
1, 14124, Note_on_c, 0, 42, 75
1, 14147, Control_c, 0, 64, 118
1, 14161, Control_c, 0, 64, 77
1, 14176, Control_c, 0, 64, 0
1, 14221, Control_c, 0, 64, 64
1, 14236, Control_c, 0, 64, 76
1, 14251, Control_c, 0, 64, 104
1, 14266, Control_c, 0, 64, 127
1, 14275, Note_on_c, 0, 49, 81
1, 14370, Note_off_c, 0, 42, 61
1, 14386, Note_on_c, 0, 57, 80
1, 14433, Note_off_c, 0, 49, 62
1, 14442, Note_off_c, 0, 57, 61
1, 14502, Note_on_c, 0, 57, 78
1, 14614, Note_off_c, 0, 57, 56
1, 14617, Note_on_c, 0, 49, 85
1, 14673, Note_off_c, 0, 71, 45
1, 14712, Note_off_c, 0, 49, 61
1, 14718, Note_on_c, 0, 42, 81
1, 14783, Note_off_c, 0, 42, 62
1, 14835, Note_on_c, 0, 42, 78
1, 14924, Note_on_c, 0, 49, 85
1, 14953, Note_off_c, 0, 42, 55
1, 15012, Note_on_c, 0, 57, 80
1, 15078, Note_on_c, 0, 73, 105
1, 15109, Note_off_c, 0, 57, 57
1, 15298, Note_on_c, 0, 74, 99
1, 15307, Note_on_c, 0, 42, 79
1, 15312, Note_off_c, 0, 49, 57
1, 15363, Control_c, 0, 64, 80
1, 15378, Control_c, 0, 64, 44
1, 15393, Control_c, 0, 64, 0
1, 15407, Control_c, 0, 64, 38
1, 15422, Control_c, 0, 64, 67
1, 15438, Control_c, 0, 64, 82
1, 15452, Control_c, 0, 64, 127
1, 15536, Note_on_c, 0, 49, 83
1, 15589, Note_off_c, 0, 42, 59
1, 15672, Note_on_c, 0, 59, 78
1, 15703, Note_off_c, 0, 49, 62
1, 15732, Note_off_c, 0, 59, 55
1, 15770, Note_on_c, 0, 59, 59
1, 15840, Note_off_c, 0, 59, 59
1, 15879, Note_on_c, 0, 49, 82
1, 15936, Note_off_c, 0, 49, 62
1, 15976, Note_on_c, 0, 42, 79
1, 16029, Note_off_c, 0, 42, 60
1, 16075, Note_on_c, 0, 71, 82
1, 16087, Note_on_c, 0, 42, 73
1, 16090, Note_off_c, 0, 74, 62
1, 16124, Note_off_c, 0, 73, 58
1, 16153, Note_off_c, 0, 71, 62
1, 16197, Note_on_c, 0, 49, 82
1, 16233, Note_off_c, 0, 61, 55
1, 16288, Note_on_c, 0, 56, 82
1, 16348, Note_on_c, 0, 73, 103
1, 16349, Note_on_c, 0, 61, 101
1, 16350, Note_on_c, 0, 71, 98
1, 16363, Note_off_c, 0, 42, 61
1, 16469, Note_off_c, 0, 61, 56
1, 16477, Note_off_c, 0, 73, 58
1, 16485, Note_off_c, 0, 49, 37
1, 16489, Note_off_c, 0, 56, 53
1, 16517, Note_on_c, 0, 42, 76
1, 16542, Note_off_c, 0, 71, 0
1, 16556, Note_on_c, 0, 73, 104
1, 16560, Note_on_c, 0, 61, 96
1, 16560, Note_on_c, 0, 69, 87
1, 16579, Poly_aftertouch_c, 0, 71, 127
1, 16616, Control_c, 0, 64, 113
1, 16620, Poly_aftertouch_c, 0, 71, 0
1, 16631, Control_c, 0, 64, 74
1, 16646, Control_c, 0, 64, 0
1, 16705, Control_c, 0, 64, 56
1, 16716, Note_on_c, 0, 49, 83
1, 16720, Control_c, 0, 64, 71
1, 16735, Control_c, 0, 64, 97
1, 16751, Control_c, 0, 64, 127
1, 16805, Note_off_c, 0, 42, 59
1, 16836, Note_on_c, 0, 57, 81
1, 16872, Note_off_c, 0, 49, 62
1, 16889, Note_off_c, 0, 57, 61
1, 16945, Note_on_c, 0, 57, 78
1, 17042, Note_on_c, 0, 49, 87
1, 17044, Note_off_c, 0, 57, 57
1, 17084, Note_off_c, 0, 61, 59
1, 17119, Note_off_c, 0, 49, 62
1, 17120, Note_off_c, 0, 69, 59
1, 17141, Note_on_c, 0, 42, 81
1, 17180, Note_off_c, 0, 73, 55
1, 17196, Note_off_c, 0, 42, 63
1, 17253, Note_on_c, 0, 42, 82
1, 17347, Note_on_c, 0, 49, 87
1, 17440, Note_on_c, 0, 56, 88
1, 17503, Note_on_c, 0, 77, 98
1, 17505, Note_on_c, 0, 65, 101
1, 17506, Note_on_c, 0, 71, 94
1, 17557, Note_off_c, 0, 42, 41
1, 17598, Note_off_c, 0, 65, 64
1, 17601, Note_off_c, 0, 77, 64
1, 17628, Note_off_c, 0, 56, 38
1, 17664, Note_off_c, 0, 49, 51
1, 17703, Note_on_c, 0, 69, 95
1, 17704, Note_on_c, 0, 66, 102
1, 17704, Note_on_c, 0, 78, 101
1, 17730, Note_on_c, 0, 42, 77
1, 17731, Note_off_c, 0, 71, 62
1, 17757, Note_on_c, 0, 75, 38
1, 17793, Note_off_c, 0, 75, 49
1, 17833, Control_c, 0, 64, 74
1, 17847, Control_c, 0, 64, 0
1, 17911, Note_on_c, 0, 49, 83
1, 17936, Control_c, 0, 64, 45
1, 17951, Control_c, 0, 64, 66
1, 17966, Control_c, 0, 64, 77
1, 17981, Control_c, 0, 64, 95
1, 17995, Control_c, 0, 64, 127
1, 18009, Note_off_c, 0, 42, 60
1, 18045, Note_off_c, 0, 78, 62
1, 18048, Note_off_c, 0, 66, 59
1, 18051, Note_on_c, 0, 57, 73
1, 18054, Note_off_c, 0, 49, 64
1, 18114, Note_off_c, 0, 69, 56
1, 18120, Note_off_c, 0, 57, 61
1, 18193, Note_on_c, 0, 57, 82
1, 18213, Note_off_c, 0, 57, 69
1, 18218, Control_c, 0, 67, 9
1, 18233, Control_c, 0, 67, 11
1, 18247, Control_c, 0, 67, 13
1, 18262, Control_c, 0, 67, 15
1, 18274, Note_on_c, 0, 61, 72
1, 18277, Control_c, 0, 67, 17
1, 18292, Control_c, 0, 67, 19
1, 18307, Control_c, 0, 67, 20
1, 18329, Control_c, 0, 67, 21
1, 18344, Control_c, 0, 67, 22
1, 18359, Control_c, 0, 67, 23
1, 18374, Control_c, 0, 67, 25
1, 18389, Control_c, 0, 67, 26
1, 18404, Control_c, 0, 67, 27
1, 18412, Note_on_c, 0, 69, 75
1, 18419, Control_c, 0, 67, 27
1, 18433, Control_c, 0, 67, 28
1, 18448, Control_c, 0, 67, 29
1, 18463, Control_c, 0, 67, 29
1, 18478, Control_c, 0, 67, 31
1, 18493, Control_c, 0, 67, 32
1, 18507, Control_c, 0, 67, 33
1, 18522, Control_c, 0, 67, 34
1, 18537, Control_c, 0, 67, 34
1, 18543, Note_on_c, 0, 73, 89
1, 18552, Control_c, 0, 67, 35
1, 18567, Control_c, 0, 67, 36
1, 18582, Control_c, 0, 67, 36
1, 18597, Control_c, 0, 67, 37
1, 18612, Control_c, 0, 67, 38
1, 18626, Control_c, 0, 67, 39
1, 18641, Control_c, 0, 67, 40
1, 18643, Note_off_c, 0, 73, 60
1, 18656, Control_c, 0, 67, 40
1, 18685, Control_c, 0, 67, 41
1, 18767, Note_on_c, 0, 73, 76
1, 18789, Control_c, 0, 67, 40
1, 18803, Control_c, 0, 64, 107
1, 18818, Control_c, 0, 64, 78
1, 18818, Control_c, 0, 67, 41
1, 18827, Note_off_c, 0, 69, 58
1, 18833, Control_c, 0, 64, 62
1, 18848, Control_c, 0, 64, 61
1, 18848, Control_c, 0, 67, 41
1, 18863, Control_c, 0, 64, 68
1, 18863, Control_c, 0, 67, 42
1, 18877, Control_c, 0, 64, 77
1, 18892, Control_c, 0, 64, 100
1, 18892, Control_c, 0, 67, 43
1, 18907, Control_c, 0, 64, 127
1, 18907, Control_c, 0, 67, 45
1, 18922, Control_c, 0, 67, 46
1, 18937, Control_c, 0, 67, 48
1, 18952, Control_c, 0, 67, 50
1, 18967, Control_c, 0, 67, 54
1, 18981, Note_on_c, 0, 69, 56
1, 18981, Control_c, 0, 67, 58
1, 18993, Note_off_c, 0, 61, 56
1, 18996, Control_c, 0, 67, 63
1, 19011, Control_c, 0, 67, 66
1, 19026, Control_c, 0, 67, 70
1, 19041, Control_c, 0, 67, 75
1, 19056, Control_c, 0, 67, 80
1, 19077, Control_c, 0, 67, 86
1, 19092, Control_c, 0, 67, 92
1, 19107, Control_c, 0, 67, 97
1, 19122, Control_c, 0, 67, 102
1, 19137, Control_c, 0, 67, 107
1, 19153, Control_c, 0, 67, 111
1, 19168, Control_c, 0, 67, 115
1, 19182, Control_c, 0, 67, 119
1, 19197, Control_c, 0, 67, 122
1, 19212, Control_c, 0, 67, 125
1, 19213, Note_on_c, 0, 61, 53
1, 19226, Control_c, 0, 67, 127
1, 19287, Note_on_c, 0, 52, 67
1, 19292, Note_off_c, 0, 61, 53
1, 19306, Note_on_c, 0, 40, 44
1, 19328, Note_off_c, 0, 52, 59
1, 19342, Note_off_c, 0, 40, 51
1, 19404, Note_off_c, 0, 69, 58
1, 19409, Note_on_c, 0, 52, 61
1, 19421, Note_on_c, 0, 61, 53
1, 19422, Note_on_c, 0, 40, 53
1, 19538, Control_c, 0, 64, 90
1, 19553, Control_c, 0, 64, 64
1, 19567, Control_c, 0, 64, 0
1, 19582, Control_c, 0, 64, 47
1, 19597, Control_c, 0, 64, 66
1, 19612, Control_c, 0, 64, 76
1, 19626, Control_c, 0, 64, 94
1, 19641, Control_c, 0, 64, 127
1, 19718, Note_on_c, 0, 69, 48
1, 19724, Note_off_c, 0, 73, 56
1, 19883, Note_off_c, 0, 69, 59
1, 19885, Note_on_c, 0, 73, 59
1, 19928, Note_off_c, 0, 73, 57
1, 20025, Note_on_c, 0, 73, 66
1, 20115, Note_off_c, 0, 61, 42
1, 20142, Note_on_c, 0, 69, 60
1, 20178, Note_off_c, 0, 40, 41
1, 20261, Note_on_c, 0, 61, 59
1, 20261, Note_off_c, 0, 69, 58
1, 20297, Note_off_c, 0, 61, 59
1, 20382, Note_on_c, 0, 61, 56
1, 20482, Note_off_c, 0, 73, 52
1, 20508, Note_on_c, 0, 69, 52
1, 20579, Note_off_c, 0, 61, 42
1, 20672, Note_on_c, 0, 73, 59
1, 20689, Note_off_c, 0, 69, 50
1, 20731, Note_on_c, 0, 57, 77
1, 20736, Note_off_c, 0, 52, 60
1, 20741, Note_on_c, 0, 45, 69
1, 20762, Note_off_c, 0, 57, 64
1, 20857, Note_on_c, 0, 59, 76
1, 20859, Note_on_c, 0, 62, 57
1, 20917, Control_c, 0, 64, 117
1, 20932, Control_c, 0, 64, 86
1, 20946, Control_c, 0, 64, 68
1, 20961, Control_c, 0, 64, 46
1, 20991, Control_c, 0, 64, 62
1, 21006, Control_c, 0, 64, 68
1, 21020, Control_c, 0, 64, 76
1, 21035, Control_c, 0, 64, 91
1, 21050, Control_c, 0, 64, 127
1, 21079, Note_off_c, 0, 73, 31
1, 21092, Note_on_c, 0, 69, 50
1, 21250, Note_on_c, 0, 74, 60
1, 21290, Note_off_c, 0, 69, 58
1, 21292, Note_off_c, 0, 74, 56
1, 21404, Note_on_c, 0, 74, 63
1, 21473, Note_off_c, 0, 62, 47
1, 21518, Note_on_c, 0, 69, 52
1, 21536, Note_off_c, 0, 45, 39
1, 21646, Note_on_c, 0, 62, 56
1, 21655, Note_off_c, 0, 69, 55
1, 21680, Note_off_c, 0, 62, 62
1, 21740, Control_c, 0, 64, 101
1, 21751, Note_on_c, 0, 44, 58
1, 21755, Control_c, 0, 64, 75
1, 21760, Note_on_c, 0, 62, 55
1, 21769, Control_c, 0, 64, 52
1, 21784, Control_c, 0, 64, 34
1, 21799, Control_c, 0, 64, 60
1, 21813, Control_c, 0, 64, 68
1, 21828, Control_c, 0, 64, 79
1, 21843, Control_c, 0, 64, 96
1, 21849, Note_off_c, 0, 59, 54
1, 21858, Control_c, 0, 64, 127
1, 21904, Note_on_c, 0, 71, 54
1, 21906, Note_off_c, 0, 74, 54
1, 21962, Note_off_c, 0, 44, 63
1, 22031, Note_off_c, 0, 62, 57
1, 22042, Note_on_c, 0, 74, 58
1, 22140, Note_on_c, 0, 52, 84
1, 22145, Note_off_c, 0, 74, 55
1, 22152, Note_on_c, 0, 40, 67
1, 22177, Note_off_c, 0, 52, 59
1, 22181, Note_off_c, 0, 40, 65
1, 22252, Note_on_c, 0, 40, 70
1, 22254, Note_on_c, 0, 52, 77
1, 22261, Note_on_c, 0, 61, 69
1, 22342, Note_off_c, 0, 71, 36
1, 22371, Control_c, 0, 64, 82
1, 22386, Control_c, 0, 64, 47
1, 22400, Control_c, 0, 64, 0
1, 22430, Control_c, 0, 64, 59
1, 22444, Control_c, 0, 64, 71
1, 22459, Control_c, 0, 64, 87
1, 22463, Note_on_c, 0, 69, 69
1, 22474, Control_c, 0, 64, 127
1, 22489, Control_c, 0, 67, 127
1, 22504, Control_c, 0, 67, 126
1, 22518, Control_c, 0, 67, 125
1, 22533, Control_c, 0, 67, 123
1, 22548, Control_c, 0, 67, 120
1, 22563, Control_c, 0, 67, 117
1, 22578, Control_c, 0, 67, 114
1, 22592, Control_c, 0, 67, 112
1, 22593, Note_on_c, 0, 73, 82
1, 22596, Note_off_c, 0, 69, 60
1, 22607, Control_c, 0, 67, 109
1, 22622, Control_c, 0, 67, 105
1, 22636, Control_c, 0, 67, 101
1, 22651, Control_c, 0, 67, 96
1, 22659, Note_off_c, 0, 73, 62
1, 22666, Control_c, 0, 67, 91
1, 22681, Control_c, 0, 67, 87
1, 22696, Control_c, 0, 67, 84
1, 22711, Note_on_c, 0, 73, 82
1, 22711, Control_c, 0, 67, 80
1, 22725, Control_c, 0, 67, 77
1, 22740, Control_c, 0, 67, 75
1, 22743, Note_off_c, 0, 61, 59
1, 22755, Control_c, 0, 67, 72
1, 22770, Control_c, 0, 67, 70
1, 22785, Control_c, 0, 67, 69
1, 22800, Control_c, 0, 67, 68
1, 22822, Control_c, 0, 67, 67
1, 22824, Note_on_c, 0, 69, 78
1, 22837, Control_c, 0, 67, 66
1, 22851, Control_c, 0, 67, 66
1, 22866, Control_c, 0, 67, 65
1, 22881, Control_c, 0, 67, 65
1, 22896, Control_c, 0, 67, 64
1, 22909, Note_off_c, 0, 40, 60
1, 22911, Control_c, 0, 67, 64
1, 22925, Note_on_c, 0, 61, 81
1, 22925, Control_c, 0, 67, 63
1, 22940, Control_c, 0, 67, 62
1, 22955, Control_c, 0, 67, 62
1, 22968, Note_off_c, 0, 69, 62
1, 22969, Note_off_c, 0, 52, 63
1, 22970, Control_c, 0, 67, 61
1, 22972, Note_off_c, 0, 61, 59
1, 22985, Control_c, 0, 67, 60
1, 23018, Note_off_c, 0, 73, 62
1, 23034, Note_on_c, 0, 64, 85
1, 23104, Control_c, 0, 67, 61
1, 23147, Note_on_c, 0, 69, 79
1, 23237, Note_on_c, 0, 76, 83
1, 23274, Note_off_c, 0, 64, 59
1, 23282, Control_c, 0, 67, 60
1, 23291, Note_on_c, 0, 49, 88
1, 23293, Note_on_c, 0, 61, 96
1, 23313, Note_off_c, 0, 76, 61
1, 23327, Control_c, 0, 67, 60
1, 23361, Note_off_c, 0, 61, 54
1, 23437, Note_off_c, 0, 69, 45
1, 23455, Note_on_c, 0, 62, 97
1, 23459, Control_c, 0, 67, 60
1, 23474, Control_c, 0, 67, 61
1, 23477, Note_on_c, 0, 66, 76
1, 23489, Control_c, 0, 67, 61
1, 23504, Control_c, 0, 67, 62
1, 23533, Control_c, 0, 64, 90
1, 23533, Control_c, 0, 67, 62
1, 23548, Control_c, 0, 64, 64
1, 23571, Control_c, 0, 64, 51
1, 23586, Control_c, 0, 64, 65
1, 23600, Control_c, 0, 64, 73
1, 23615, Control_c, 0, 64, 87
1, 23630, Control_c, 0, 64, 127
1, 23630, Control_c, 0, 67, 62
1, 23645, Control_c, 0, 67, 61
1, 23647, Note_on_c, 0, 69, 77
1, 23660, Control_c, 0, 67, 61
1, 23674, Control_c, 0, 67, 60
1, 23689, Control_c, 0, 67, 60
1, 23704, Control_c, 0, 67, 59
1, 23719, Control_c, 0, 67, 59
1, 23734, Control_c, 0, 67, 58
1, 23763, Control_c, 0, 67, 58
1, 23773, Note_on_c, 0, 78, 82
1, 23778, Control_c, 0, 67, 57
1, 23808, Control_c, 0, 67, 56
1, 23813, Note_off_c, 0, 69, 56
1, 23822, Control_c, 0, 67, 55
1, 23824, Note_off_c, 0, 78, 62
1, 23837, Control_c, 0, 67, 54
1, 23880, Note_off_c, 0, 49, 61
1, 23896, Note_on_c, 0, 78, 89
1, 23942, Control_c, 0, 67, 54
1, 23952, Note_off_c, 0, 66, 51
1, 24008, Note_on_c, 0, 69, 76
1, 24031, Control_c, 0, 67, 53
1, 24061, Control_c, 0, 67, 53
1, 24076, Control_c, 0, 67, 52
1, 24105, Control_c, 0, 67, 52
1, 24115, Note_on_c, 0, 66, 77
1, 24154, Note_off_c, 0, 78, 62
1, 24164, Note_off_c, 0, 69, 60
1, 24171, Note_off_c, 0, 66, 61
1, 24179, Control_c, 0, 67, 51
1, 24201, Note_on_c, 0, 47, 85
1, 24208, Control_c, 0, 67, 51
1, 24219, Note_off_c, 0, 62, 57
1, 24221, Note_on_c, 0, 64, 84
1, 24223, Control_c, 0, 67, 50
1, 24238, Control_c, 0, 67, 50
1, 24253, Control_c, 0, 67, 49
1, 24268, Control_c, 0, 67, 48
1, 24277, Note_off_c, 0, 47, 66
1, 24282, Control_c, 0, 67, 46
1, 24297, Control_c, 0, 67, 43
1, 24320, Control_c, 0, 67, 41
1, 24335, Control_c, 0, 67, 38
1, 24338, Note_on_c, 0, 68, 78
1, 24350, Control_c, 0, 67, 34
1, 24364, Control_c, 0, 67, 27
1, 24379, Control_c, 0, 67, 17
1, 24394, Control_c, 0, 67, 0
1, 24434, Note_on_c, 0, 76, 61
1, 24442, Note_off_c, 0, 64, 61
1, 24464, Note_off_c, 0, 76, 65
1, 24498, Note_on_c, 0, 52, 96
1, 24504, Note_on_c, 0, 40, 87
1, 24529, Note_off_c, 0, 52, 62
1, 24532, Note_off_c, 0, 40, 65
1, 24583, Note_off_c, 0, 68, 62
1, 24584, Note_on_c, 0, 52, 94
1, 24586, Note_on_c, 0, 40, 87
1, 24614, Note_on_c, 0, 61, 71
1, 24639, Note_on_c, 0, 63, 51
1, 24674, Control_c, 0, 64, 103
1, 24683, Note_off_c, 0, 63, 43
1, 24688, Control_c, 0, 64, 64
1, 24703, Control_c, 0, 64, 0
1, 24734, Control_c, 0, 64, 58
1, 24749, Control_c, 0, 64, 69
1, 24759, Note_on_c, 0, 69, 79
1, 24764, Control_c, 0, 64, 85
1, 24779, Control_c, 0, 64, 127
1, 24878, Note_on_c, 0, 73, 90
1, 24894, Note_off_c, 0, 69, 58
1, 24946, Note_off_c, 0, 73, 62
1, 24997, Note_on_c, 0, 73, 92
1, 25024, Note_off_c, 0, 61, 60
1, 25108, Note_on_c, 0, 69, 85
1, 25122, Note_off_c, 0, 40, 61
1, 25189, Note_off_c, 0, 52, 57
1, 25211, Note_on_c, 0, 61, 92
1, 25226, Note_off_c, 0, 69, 62
1, 25267, Note_off_c, 0, 61, 61
1, 25326, Note_on_c, 0, 61, 92
1, 25366, Note_off_c, 0, 73, 59
1, 25441, Note_on_c, 0, 69, 78
1, 25449, Note_off_c, 0, 61, 62
1, 25552, Note_on_c, 0, 73, 90
1, 25562, Note_off_c, 0, 69, 63
1, 25596, Note_on_c, 0, 64, 97
1, 25597, Note_on_c, 0, 52, 93
1, 25683, Note_off_c, 0, 64, 61
1, 25688, Poly_aftertouch_c, 0, 54, 127
1, 25715, Poly_aftertouch_c, 0, 54, 0
1, 25828, Note_off_c, 0, 73, 60
1, 25842, Note_on_c, 0, 66, 101
1, 25845, Note_on_c, 0, 69, 76
1, 26060, Note_on_c, 0, 72, 91
1, 26098, Control_c, 0, 64, 108
1, 26113, Control_c, 0, 64, 74
1, 26128, Control_c, 0, 64, 47
1, 26142, Control_c, 0, 64, 0
1, 26157, Control_c, 0, 64, 52
1, 26172, Control_c, 0, 64, 65
1, 26186, Control_c, 0, 64, 74
1, 26201, Control_c, 0, 64, 93
1, 26216, Control_c, 0, 64, 127
1, 26217, Note_on_c, 0, 81, 92
1, 26315, Note_off_c, 0, 81, 64
1, 26384, Note_on_c, 0, 81, 91
1, 26398, Note_off_c, 0, 72, 59
1, 26502, Note_on_c, 0, 72, 75
1, 26510, Note_off_c, 0, 69, 59
1, 26534, Note_off_c, 0, 52, 57
1, 26627, Note_on_c, 0, 69, 74
1, 26639, Control_c, 0, 67, 8
1, 26669, Note_off_c, 0, 69, 55
1, 26672, Note_off_c, 0, 72, 56
1, 26684, Control_c, 0, 67, 8
1, 26699, Control_c, 0, 67, 9
1, 26714, Control_c, 0, 64, 98
1, 26723, Note_on_c, 0, 51, 81
1, 26729, Control_c, 0, 64, 70
1, 26729, Control_c, 0, 67, 9
1, 26730, Note_on_c, 0, 69, 73
1, 26744, Control_c, 0, 64, 19
1, 26758, Control_c, 0, 64, 44
1, 26773, Control_c, 0, 64, 66
1, 26788, Control_c, 0, 64, 73
1, 26803, Control_c, 0, 64, 86
1, 26817, Control_c, 0, 64, 116
1, 26818, Note_off_c, 0, 66, 61
1, 26832, Control_c, 0, 64, 127
1, 26860, Note_off_c, 0, 81, 56
1, 26861, Note_on_c, 0, 72, 73
1, 26891, Note_off_c, 0, 51, 66
1, 26891, Control_c, 0, 67, 10
1, 26921, Control_c, 0, 67, 10
1, 26935, Control_c, 0, 67, 11
1, 26950, Control_c, 0, 67, 12
1, 26965, Control_c, 0, 67, 13
1, 26980, Control_c, 0, 67, 15
1, 26985, Note_on_c, 0, 81, 78
1, 26995, Control_c, 0, 67, 16
1, 27009, Control_c, 0, 67, 16
1, 27024, Control_c, 0, 67, 17
1, 27031, Note_off_c, 0, 81, 61
1, 27039, Control_c, 0, 67, 19
1, 27054, Note_off_c, 0, 72, 61
1, 27054, Control_c, 0, 67, 23
1, 27057, Note_on_c, 0, 52, 88
1, 27059, Note_off_c, 0, 69, 62
1, 27066, Note_on_c, 0, 40, 78
1, 27069, Control_c, 0, 67, 25
1, 27084, Control_c, 0, 67, 28
1, 27091, Note_off_c, 0, 52, 60
1, 27094, Note_off_c, 0, 40, 66
1, 27098, Control_c, 0, 67, 30
1, 27113, Control_c, 0, 67, 31
1, 27129, Control_c, 0, 67, 32
1, 27144, Control_c, 0, 67, 32
1, 27158, Note_on_c, 0, 40, 73
1, 27158, Note_on_c, 0, 52, 80
1, 27159, Control_c, 0, 67, 34
1, 27174, Control_c, 0, 67, 35
1, 27188, Control_c, 0, 67, 36
1, 27197, Note_on_c, 0, 64, 65
1, 27203, Control_c, 0, 67, 37
1, 27218, Control_c, 0, 67, 37
1, 27233, Control_c, 0, 67, 38
1, 27247, Control_c, 0, 67, 38
1, 27262, Control_c, 0, 67, 39
1, 27277, Control_c, 0, 67, 39
1, 27292, Control_c, 0, 64, 120
1, 27314, Control_c, 0, 64, 84
1, 27314, Control_c, 0, 67, 40
1, 27329, Control_c, 0, 64, 65
1, 27329, Control_c, 0, 67, 40
1, 27344, Control_c, 0, 64, 0
1, 27391, Note_on_c, 0, 73, 69
1, 27397, Note_on_c, 0, 69, 58
1, 27432, Control_c, 0, 64, 57
1, 27432, Control_c, 0, 67, 41
1, 27447, Control_c, 0, 64, 70
1, 27462, Control_c, 0, 64, 79
1, 27462, Control_c, 0, 67, 41
1, 27477, Control_c, 0, 64, 92
1, 27492, Control_c, 0, 64, 108
1, 27507, Control_c, 0, 64, 127
1, 27550, Note_off_c, 0, 69, 53
1, 27552, Control_c, 0, 67, 42
1, 27566, Note_on_c, 0, 76, 52
1, 27581, Control_c, 0, 67, 43
1, 27591, Note_off_c, 0, 76, 60
1, 27596, Control_c, 0, 67, 44
1, 27610, Note_off_c, 0, 73, 61
1, 27611, Control_c, 0, 67, 46
1, 27626, Control_c, 0, 67, 48
1, 27640, Control_c, 0, 67, 49
1, 27655, Control_c, 0, 67, 50
1, 27670, Control_c, 0, 67, 51
1, 27679, Note_on_c, 0, 76, 68
1, 27685, Control_c, 0, 67, 52
1, 27700, Control_c, 0, 67, 52
1, 27714, Control_c, 0, 67, 53
1, 27729, Control_c, 0, 67, 53
1, 27744, Control_c, 0, 67, 54
1, 27758, Control_c, 0, 67, 54
1, 27803, Note_on_c, 0, 69, 70
1, 27804, Note_off_c, 0, 64, 58
1, 27810, Note_on_c, 0, 66, 66
1, 27862, Control_c, 0, 67, 55
1, 27892, Control_c, 0, 67, 55
1, 27937, Control_c, 0, 67, 56
1, 27941, Note_on_c, 0, 62, 54
1, 27982, Control_c, 0, 67, 56
1, 27988, Note_off_c, 0, 62, 56
1, 28010, Note_off_c, 0, 66, 55
1, 28011, Control_c, 0, 67, 57
1, 28026, Control_c, 0, 67, 58
1, 28041, Control_c, 0, 67, 60
1, 28063, Control_c, 0, 67, 60
1, 28078, Control_c, 0, 67, 61
1, 28093, Control_c, 0, 67, 62
1, 28094, Note_on_c, 0, 62, 49
1, 28108, Control_c, 0, 67, 63
1, 28123, Control_c, 0, 67, 64
1, 28135, Note_off_c, 0, 62, 58
1, 28137, Control_c, 0, 67, 65
1, 28152, Control_c, 0, 67, 65
1, 28168, Control_c, 0, 67, 66
1, 28182, Control_c, 0, 67, 66
1, 28197, Control_c, 0, 67, 67
1, 28212, Control_c, 0, 67, 67
1, 28257, Note_off_c, 0, 69, 55
1, 28271, Control_c, 0, 67, 68
1, 28278, Note_on_c, 0, 68, 59
1, 28285, Note_on_c, 0, 64, 58
1, 28286, Control_c, 0, 64, 106
1, 28301, Control_c, 0, 64, 72
1, 28301, Control_c, 0, 67, 68
1, 28316, Control_c, 0, 64, 27
1, 28316, Control_c, 0, 67, 69
1, 28330, Control_c, 0, 64, 0
1, 28330, Control_c, 0, 67, 69
1, 28345, Control_c, 0, 64, 59
1, 28345, Control_c, 0, 67, 70
1, 28360, Control_c, 0, 64, 68
1, 28360, Control_c, 0, 67, 71
1, 28375, Control_c, 0, 64, 77
1, 28375, Control_c, 0, 67, 72
1, 28376, Note_off_c, 0, 76, 48
1, 28389, Control_c, 0, 64, 92
1, 28389, Control_c, 0, 67, 73
1, 28404, Control_c, 0, 64, 127
1, 28404, Control_c, 0, 67, 74
1, 28419, Control_c, 0, 67, 75
1, 28434, Control_c, 0, 67, 77
1, 28441, Note_off_c, 0, 40, 60
1, 28449, Control_c, 0, 67, 79
1, 28464, Control_c, 0, 67, 81
1, 28479, Control_c, 0, 67, 84
1, 28486, Note_off_c, 0, 52, 58
1, 28493, Control_c, 0, 67, 86
1, 28508, Control_c, 0, 67, 88
1, 28513, Note_on_c, 0, 76, 57
1, 28516, Note_off_c, 0, 64, 63
1, 28523, Control_c, 0, 67, 90
1, 28538, Control_c, 0, 67, 91
1, 28553, Control_c, 0, 67, 92
1, 28559, Note_off_c, 0, 68, 59
1, 28579, Note_on_c, 0, 52, 75
1, 28735, Note_on_c, 0, 61, 64
1, 28744, Note_on_c, 0, 45, 67
1, 28796, Note_off_c, 0, 52, 51
1, 28827, Control_c, 0, 64, 105
1, 28842, Control_c, 0, 64, 78
1, 28857, Control_c, 0, 64, 43
1, 28857, Control_c, 0, 67, 93
1, 28872, Control_c, 0, 64, 0
1, 28931, Control_c, 0, 67, 93
1, 28946, Control_c, 0, 64, 41
1, 28960, Control_c, 0, 64, 69
1, 28975, Control_c, 0, 64, 83
1, 28990, Control_c, 0, 64, 108
1, 29004, Control_c, 0, 64, 127
1, 29063, Note_on_c, 0, 69, 53
1, 29066, Note_off_c, 0, 61, 60
1, 29069, Note_on_c, 0, 52, 50
1, 29086, Note_off_c, 0, 45, 53
1, 29148, Note_off_c, 0, 76, 39
1, 29167, Control_c, 0, 67, 94
1, 29227, Control_c, 0, 67, 94
1, 29242, Control_c, 0, 67, 96
1, 29257, Control_c, 0, 67, 98
1, 29272, Control_c, 0, 67, 101
1, 29275, Note_on_c, 0, 61, 52
1, 29280, Note_on_c, 0, 76, 59
1, 29286, Control_c, 0, 67, 102
1, 29301, Control_c, 0, 67, 103
1, 29316, Control_c, 0, 67, 104
1, 29330, Control_c, 0, 67, 105
1, 29345, Control_c, 0, 67, 107
1, 29349, Note_off_c, 0, 76, 60
1, 29360, Control_c, 0, 67, 110
1, 29375, Control_c, 0, 67, 112
1, 29389, Note_off_c, 0, 61, 35
1, 29390, Control_c, 0, 67, 114
1, 29404, Control_c, 0, 67, 117
1, 29419, Control_c, 0, 67, 121
1, 29434, Control_c, 0, 67, 124
1, 29449, Control_c, 0, 67, 127
1, 29499, Note_off_c, 0, 52, 61
1, 29514, Note_on_c, 0, 61, 51
1, 29538, Note_on_c, 0, 76, 50
1, 29630, Note_off_c, 0, 61, 55
1, 29698, Note_on_c, 0, 52, 42
1, 29805, Note_on_c, 0, 45, 50
1, 29823, Note_off_c, 0, 52, 36
1, 29852, Note_off_c, 0, 45, 58
1, 29931, Control_c, 0, 64, 107
1, 29946, Control_c, 0, 64, 82
1, 29956, Note_on_c, 0, 45, 48
1, 29960, Control_c, 0, 64, 70
1, 29975, Control_c, 0, 64, 71
1, 29990, Control_c, 0, 64, 78
1, 30005, Control_c, 0, 64, 90
1, 30020, Control_c, 0, 64, 106
1, 30035, Control_c, 0, 64, 127
1, 30092, Note_off_c, 0, 69, 60
1, 30095, Note_off_c, 0, 45, 56
1, 30097, Note_off_c, 0, 76, 58
1, 30145, Note_on_c, 0, 52, 48
1, 30366, Note_on_c, 0, 61, 39
1, 30440, Note_off_c, 0, 61, 47
1, 30487, Note_off_c, 0, 52, 46
1, 30580, Note_on_c, 0, 76, 62
1, 30613, Note_off_c, 0, 76, 61
1, 30615, Note_on_c, 0, 64, 9
1, 30708, Note_on_c, 0, 76, 57
1, 30714, Note_off_c, 0, 64, 0
1, 30750, Poly_aftertouch_c, 0, 64, 127
1, 30758, Note_on_c, 0, 45, 38
1, 30813, Control_c, 0, 64, 123
1, 30828, Control_c, 0, 64, 86
1, 30843, Control_c, 0, 64, 68
1, 30857, Control_c, 0, 64, 62
1, 30872, Control_c, 0, 64, 66
1, 30887, Control_c, 0, 64, 73
1, 30902, Control_c, 0, 64, 84
1, 30917, Control_c, 0, 64, 109
1, 30932, Control_c, 0, 64, 127
1, 31044, Note_off_c, 0, 45, 36
1, 31073, Note_on_c, 0, 52, 36
1, 31227, Note_on_c, 0, 61, 47
1, 31277, Note_off_c, 0, 61, 55
1, 31343, Note_off_c, 0, 76, 51
1, 31361, Note_off_c, 0, 52, 38
1, 31372, Poly_aftertouch_c, 0, 64, 0
1, 31382, Note_on_c, 0, 61, 42
1, 31456, Note_off_c, 0, 61, 53
1, 31513, Note_on_c, 0, 52, 37
1, 31561, Note_on_c, 0, 76, 62
1, 31562, Control_c, 0, 67, 125
1, 31575, Note_on_c, 0, 64, 42
1, 31577, Control_c, 0, 67, 121
1, 31592, Control_c, 0, 67, 116
1, 31604, Note_off_c, 0, 64, 56
1, 31606, Control_c, 0, 67, 111
1, 31621, Control_c, 0, 67, 105
1, 31624, Note_off_c, 0, 52, 54
1, 31636, Control_c, 0, 67, 98
1, 31651, Control_c, 0, 67, 92
1, 31657, Note_on_c, 0, 45, 46
1, 31666, Control_c, 0, 67, 86
1, 31680, Control_c, 0, 67, 81
1, 31695, Control_c, 0, 67, 77
1, 31707, Note_off_c, 0, 45, 58
1, 31710, Control_c, 0, 67, 74
1, 31725, Control_c, 0, 67, 73
1, 31740, Control_c, 0, 67, 72
1, 31746, Note_off_c, 0, 76, 38
1, 31762, Note_on_c, 0, 80, 71
1, 31806, Control_c, 0, 67, 73
1, 31812, Note_on_c, 0, 45, 40
1, 31812, Note_on_c, 0, 68, 34
1, 31821, Control_c, 0, 67, 74
1, 31836, Control_c, 0, 67, 75
1, 31851, Control_c, 0, 67, 76
1, 31852, Note_off_c, 0, 68, 49
1, 31866, Control_c, 0, 67, 77
1, 31867, Note_off_c, 0, 45, 48
1, 31880, Control_c, 0, 67, 78
1, 31895, Control_c, 0, 67, 78
1, 31907, Note_on_c, 0, 52, 40
1, 31927, Control_c, 0, 67, 79
1, 31942, Note_on_c, 0, 81, 79
1, 31942, Control_c, 0, 67, 79
1, 31956, Control_c, 0, 67, 80
1, 31963, Note_on_c, 0, 69, 45
1, 31969, Note_off_c, 0, 80, 61
1, 31971, Control_c, 0, 67, 81
1, 31986, Control_c, 0, 67, 82
1, 32001, Control_c, 0, 67, 83
1, 32008, Note_off_c, 0, 69, 46
1, 32016, Control_c, 0, 67, 84
1, 32030, Control_c, 0, 67, 84
1, 32038, Note_on_c, 0, 61, 49
1, 32045, Control_c, 0, 67, 88
1, 32060, Control_c, 0, 67, 92
1, 32068, Note_off_c, 0, 61, 63
1, 32075, Control_c, 0, 67, 97
1, 32090, Control_c, 0, 67, 102
1, 32104, Control_c, 0, 67, 107
1, 32119, Control_c, 0, 67, 111
1, 32134, Control_c, 0, 67, 115
1, 32148, Control_c, 0, 67, 118
1, 32163, Control_c, 0, 67, 122
1, 32178, Control_c, 0, 67, 126
1, 32193, Control_c, 0, 67, 127
1, 32240, Note_off_c, 0, 52, 16
1, 32252, Note_on_c, 0, 83, 66
1, 32282, Note_off_c, 0, 81, 56
1, 32294, Note_on_c, 0, 71, 42
1, 32297, Control_c, 0, 64, 95
1, 32312, Control_c, 0, 64, 73
1, 32327, Control_c, 0, 64, 54
1, 32341, Note_on_c, 0, 45, 32
1, 32342, Control_c, 0, 64, 43
1, 32354, Note_off_c, 0, 71, 0
1, 32354, Note_on_c, 0, 71, 8
1, 32356, Control_c, 0, 64, 58
1, 32371, Control_c, 0, 64, 66
1, 32386, Control_c, 0, 64, 75
1, 32401, Control_c, 0, 64, 90
1, 32416, Control_c, 0, 64, 127
1, 32538, Note_off_c, 0, 71, 42
1, 32562, Note_on_c, 0, 52, 39
1, 32565, Note_off_c, 0, 45, 42
1, 32710, Note_on_c, 0, 61, 48
1, 32772, Note_off_c, 0, 61, 54
1, 32780, Note_on_c, 0, 81, 65
1, 32792, Note_off_c, 0, 83, 55
1, 32802, Note_on_c, 0, 69, 50
1, 32807, Note_off_c, 0, 81, 64
1, 32848, Note_off_c, 0, 69, 62
1, 32921, Note_on_c, 0, 61, 41
1, 32955, Note_off_c, 0, 52, 40
1, 32977, Note_on_c, 0, 76, 57
1, 32991, Note_on_c, 0, 64, 42
1, 33009, Note_off_c, 0, 61, 53
1, 33108, Note_on_c, 0, 52, 42
1, 33233, Note_on_c, 0, 45, 53
1, 33272, Note_off_c, 0, 52, 36
1, 33274, Note_off_c, 0, 45, 61
1, 33379, Note_on_c, 0, 45, 54
1, 33423, Control_c, 0, 64, 99
1, 33438, Control_c, 0, 64, 72
1, 33452, Control_c, 0, 64, 50
1, 33458, Note_off_c, 0, 64, 35
1, 33467, Control_c, 0, 64, 38
1, 33482, Control_c, 0, 64, 60
1, 33496, Control_c, 0, 64, 68
1, 33511, Control_c, 0, 64, 79
1, 33528, Note_on_c, 0, 53, 53
1, 33528, Control_c, 0, 64, 113
1, 33543, Control_c, 0, 64, 127
1, 33564, Note_off_c, 0, 45, 39
1, 33660, Note_on_c, 0, 61, 55
1, 33700, Note_off_c, 0, 61, 59
1, 33755, Note_off_c, 0, 76, 61
1, 33758, Note_on_c, 0, 77, 68
1, 33772, Note_on_c, 0, 65, 42
1, 33805, Note_off_c, 0, 65, 51
1, 34020, Note_on_c, 0, 80, 56
1, 34036, Note_off_c, 0, 53, 40
1, 34047, Note_on_c, 0, 45, 41
1, 34056, Note_on_c, 0, 68, 44
1, 34065, Note_off_c, 0, 77, 36
1, 34098, Control_c, 0, 64, 82
1, 34113, Control_c, 0, 64, 64
1, 34127, Control_c, 0, 64, 49
1, 34142, Control_c, 0, 64, 62
1, 34157, Control_c, 0, 64, 69
1, 34172, Control_c, 0, 64, 79
1, 34187, Control_c, 0, 64, 97
1, 34201, Control_c, 0, 64, 127
1, 34309, Note_off_c, 0, 45, 43
1, 34339, Note_on_c, 0, 54, 40
1, 34408, Note_off_c, 0, 68, 59
1, 34471, Note_on_c, 0, 62, 45
1, 34521, Note_off_c, 0, 54, 45
1, 34526, Note_off_c, 0, 62, 57
1, 34622, Note_on_c, 0, 62, 37
1, 34708, Note_on_c, 0, 78, 61
1, 34720, Note_on_c, 0, 66, 44
1, 34755, Note_off_c, 0, 62, 37
1, 34783, Note_off_c, 0, 80, 62
1, 34786, Note_on_c, 0, 54, 47
1, 34849, Note_off_c, 0, 78, 61
1, 34873, Note_off_c, 0, 54, 56
1, 34892, Note_on_c, 0, 45, 58
1, 34928, Note_off_c, 0, 45, 60
1, 34974, Note_off_c, 0, 66, 61
1, 35013, Note_on_c, 0, 45, 52
1, 35084, Control_c, 0, 67, 126
1, 35099, Control_c, 0, 67, 125
1, 35111, Note_off_c, 0, 45, 61
1, 35114, Control_c, 0, 67, 125
1, 35117, Note_on_c, 0, 54, 62
1, 35129, Control_c, 0, 67, 124
1, 35159, Control_c, 0, 67, 124
1, 35174, Control_c, 0, 67, 123
1, 35189, Control_c, 0, 67, 123
1, 35204, Control_c, 0, 67, 122
1, 35218, Control_c, 0, 67, 121
1, 35220, Note_on_c, 0, 59, 60
1, 35233, Control_c, 0, 67, 120
1, 35242, Note_off_c, 0, 54, 59
1, 35248, Control_c, 0, 67, 119
1, 35263, Control_c, 0, 67, 119
1, 35278, Control_c, 0, 67, 118
1, 35287, Note_on_c, 0, 73, 79
1, 35293, Control_c, 0, 67, 118
1, 35306, Note_on_c, 0, 61, 54
1, 35306, Note_off_c, 0, 59, 53
1, 35308, Control_c, 0, 67, 117
1, 35334, Note_off_c, 0, 61, 64
1, 35337, Control_c, 0, 67, 117
1, 35352, Control_c, 0, 67, 117
1, 35396, Control_c, 0, 67, 118
1, 35432, Note_on_c, 0, 45, 53
1, 35433, Note_on_c, 0, 76, 70
1, 35440, Control_c, 0, 64, 100
1, 35448, Note_off_c, 0, 73, 63
1, 35451, Note_on_c, 0, 64, 48
1, 35455, Control_c, 0, 64, 73
1, 35470, Control_c, 0, 64, 0
1, 35500, Control_c, 0, 67, 117
1, 35514, Control_c, 0, 64, 52
1, 35529, Control_c, 0, 64, 65
1, 35552, Control_c, 0, 64, 75
1, 35563, Note_off_c, 0, 64, 63
1, 35567, Control_c, 0, 64, 91
1, 35567, Control_c, 0, 67, 117
1, 35581, Control_c, 0, 64, 127
1, 35595, Note_on_c, 0, 52, 54
1, 35596, Control_c, 0, 67, 116
1, 35641, Control_c, 0, 67, 116
1, 35685, Control_c, 0, 67, 115
1, 35714, Control_c, 0, 67, 115
1, 35721, Note_on_c, 0, 56, 58
1, 35729, Control_c, 0, 67, 114
1, 35744, Control_c, 0, 67, 112
1, 35759, Control_c, 0, 67, 110
1, 35773, Control_c, 0, 67, 109
1, 35776, Note_on_c, 0, 74, 79
1, 35785, Note_off_c, 0, 56, 53
1, 35788, Control_c, 0, 67, 109
1, 35794, Note_on_c, 0, 62, 56
1, 35797, Note_off_c, 0, 76, 60
1, 35802, Note_off_c, 0, 74, 66
1, 35803, Control_c, 0, 67, 108
1, 35818, Control_c, 0, 67, 107
1, 35827, Note_off_c, 0, 62, 62
1, 35833, Control_c, 0, 67, 107
1, 35847, Control_c, 0, 67, 106
1, 35853, Note_off_c, 0, 52, 56
1, 35862, Control_c, 0, 67, 104
1, 35877, Control_c, 0, 67, 103
1, 35892, Control_c, 0, 67, 102
1, 35898, Note_on_c, 0, 71, 77
1, 35904, Note_on_c, 0, 56, 54
1, 35907, Control_c, 0, 67, 102
1, 35923, Control_c, 0, 67, 101
1, 35925, Note_on_c, 0, 59, 47
1, 35938, Control_c, 0, 67, 101
1, 35952, Control_c, 0, 67, 100
1, 35967, Control_c, 0, 67, 100
1, 35991, Note_off_c, 0, 45, 43
1, 35996, Control_c, 0, 67, 99
1, 36011, Control_c, 0, 67, 98
1, 36020, Note_on_c, 0, 52, 56
1, 36026, Control_c, 0, 67, 97
1, 36041, Control_c, 0, 67, 96
1, 36056, Control_c, 0, 67, 94
1, 36071, Control_c, 0, 67, 93
1, 36086, Control_c, 0, 67, 92
1, 36101, Control_c, 0, 67, 91
1, 36110, Note_off_c, 0, 56, 37
1, 36111, Note_on_c, 0, 45, 62
1, 36113, Note_off_c, 0, 52, 57
1, 36116, Control_c, 0, 67, 90
1, 36130, Control_c, 0, 67, 88
1, 36145, Control_c, 0, 67, 87
1, 36160, Control_c, 0, 67, 85
1, 36160, Note_off_c, 0, 45, 58
1, 36175, Control_c, 0, 67, 84
1, 36189, Control_c, 0, 67, 82
1, 36204, Control_c, 0, 67, 81
1, 36219, Control_c, 0, 67, 79
1, 36228, Note_on_c, 0, 45, 61
1, 36232, Note_off_c, 0, 59, 58
1, 36234, Control_c, 0, 67, 78
1, 36249, Control_c, 0, 67, 76
1, 36263, Control_c, 0, 67, 75
1, 36264, Note_off_c, 0, 71, 63
1, 36278, Control_c, 0, 67, 74
1, 36300, Control_c, 0, 67, 72
1, 36315, Control_c, 0, 67, 70
1, 36330, Control_c, 0, 67, 68
1, 36345, Control_c, 0, 67, 66
1, 36360, Control_c, 0, 67, 65
1, 36375, Control_c, 0, 67, 64
1, 36375, Note_on_c, 0, 52, 62
1, 36390, Control_c, 0, 67, 62
1, 36404, Control_c, 0, 67, 61
1, 36419, Control_c, 0, 67, 60
1, 36434, Control_c, 0, 67, 60
1, 36447, Note_off_c, 0, 45, 32
1, 36449, Control_c, 0, 67, 59
1, 36464, Control_c, 0, 67, 59
1, 36478, Control_c, 0, 67, 58
1, 36508, Control_c, 0, 67, 58
1, 36518, Note_on_c, 0, 56, 60
1, 36524, Note_off_c, 0, 52, 55
1, 36582, Note_on_c, 0, 72, 79
1, 36587, Note_on_c, 0, 60, 68
1, 36596, Control_c, 0, 67, 58
1, 36599, Note_off_c, 0, 56, 61
1, 36611, Control_c, 0, 67, 59
1, 36613, Note_off_c, 0, 60, 67
1, 36625, Note_off_c, 0, 72, 58
1, 36626, Control_c, 0, 67, 60
1, 36641, Control_c, 0, 67, 60
1, 36656, Control_c, 0, 67, 61
1, 36670, Control_c, 0, 67, 62
1, 36685, Control_c, 0, 67, 63
1, 36700, Control_c, 0, 67, 64
1, 36706, Note_on_c, 0, 73, 72
1, 36710, Note_on_c, 0, 61, 64
1, 36716, Control_c, 0, 67, 65
1, 36728, Note_on_c, 0, 45, 55
1, 36731, Control_c, 0, 67, 65
1, 36745, Control_c, 0, 67, 66
1, 36760, Control_c, 0, 64, 100
1, 36760, Control_c, 0, 67, 67
1, 36775, Control_c, 0, 64, 74
1, 36775, Control_c, 0, 67, 67
1, 36790, Control_c, 0, 64, 0
1, 36790, Control_c, 0, 67, 68
1, 36849, Control_c, 0, 64, 60
1, 36864, Control_c, 0, 64, 70
1, 36879, Control_c, 0, 64, 86
1, 36894, Control_c, 0, 64, 127
1, 36894, Control_c, 0, 67, 67
1, 36909, Control_c, 0, 67, 67
1, 36923, Note_on_c, 0, 52, 55
1, 36923, Control_c, 0, 67, 66
1, 36938, Control_c, 0, 67, 66
1, 36968, Control_c, 0, 67, 65
1, 36983, Control_c, 0, 67, 65
1, 37013, Control_c, 0, 67, 64
1, 37049, Control_c, 0, 67, 64
1, 37051, Note_off_c, 0, 52, 54
1, 37059, Note_on_c, 0, 57, 55
1, 37079, Control_c, 0, 67, 63
1, 37097, Note_off_c, 0, 57, 60
1, 37108, Control_c, 0, 67, 63
1, 37123, Control_c, 0, 67, 62
1, 37181, Control_c, 0, 67, 62
1, 37187, Note_on_c, 0, 57, 60
1, 37235, Note_off_c, 0, 73, 64
1, 37257, Note_off_c, 0, 61, 61
1, 37307, Note_on_c, 0, 52, 64
1, 37326, Note_off_c, 0, 45, 42
1, 37374, Control_c, 0, 67, 62
1, 37394, Note_off_c, 0, 52, 59
1, 37403, Control_c, 0, 67, 63
1, 37418, Control_c, 0, 67, 63
1, 37418, Note_on_c, 0, 45, 70
1, 37474, Note_off_c, 0, 45, 63
1, 37523, Note_off_c, 0, 57, 50
1, 37544, Note_on_c, 0, 45, 74
1, 37645, Note_off_c, 0, 45, 63
1, 37669, Note_on_c, 0, 52, 76
1, 37686, Control_c, 0, 67, 63
1, 37701, Control_c, 0, 67, 62
1, 37745, Control_c, 0, 67, 62
1, 37797, Control_c, 0, 67, 61
1, 37806, Note_on_c, 0, 61, 79
1, 37856, Control_c, 0, 67, 61
1, 37857, Note_off_c, 0, 61, 62
1, 37858, Note_on_c, 0, 40, 99
1, 37931, Control_c, 0, 67, 60
1, 37961, Control_c, 0, 67, 60
1, 37975, Control_c, 0, 67, 59
1, 38005, Control_c, 0, 67, 59
1, 38012, Note_off_c, 0, 52, 57
1, 38015, Note_on_c, 0, 33, 94
1, 38020, Control_c, 0, 67, 58
1, 38035, Control_c, 0, 67, 58
1, 38037, Note_on_c, 0, 45, 76
1, 38064, Control_c, 0, 67, 57
1, 38079, Control_c, 0, 64, 91
1, 38093, Control_c, 0, 64, 64
1, 38108, Control_c, 0, 64, 35
1, 38108, Control_c, 0, 67, 57
1, 38123, Control_c, 0, 64, 60
1, 38138, Control_c, 0, 64, 70
1, 38138, Control_c, 0, 67, 56
1, 38153, Control_c, 0, 64, 81
1, 38167, Control_c, 0, 64, 104
1, 38167, Control_c, 0, 67, 56
1, 38182, Control_c, 0, 64, 127
1, 38182, Control_c, 0, 67, 55
1, 38197, Control_c, 0, 67, 54
1, 38212, Control_c, 0, 67, 54
1, 38227, Control_c, 0, 67, 52
1, 38241, Control_c, 0, 67, 52
1, 38250, Note_on_c, 0, 52, 71
1, 38270, Note_off_c, 0, 45, 64
1, 38345, Note_off_c, 0, 33, 60
1, 38346, Control_c, 0, 67, 52
1, 38369, Note_off_c, 0, 40, 65
1, 38381, Note_on_c, 0, 61, 81
1, 38439, Note_off_c, 0, 61, 60
1, 38494, Control_c, 0, 67, 51
1, 38513, Note_on_c, 0, 61, 79
1, 38524, Control_c, 0, 67, 50
1, 38546, Control_c, 0, 67, 50
1, 38547, Note_off_c, 0, 52, 60
1, 38561, Control_c, 0, 67, 48
1, 38576, Control_c, 0, 67, 46
1, 38590, Note_off_c, 0, 61, 61
1, 38590, Control_c, 0, 67, 44
1, 38605, Control_c, 0, 67, 42
1, 38620, Control_c, 0, 67, 41
1, 38635, Control_c, 0, 67, 41
1, 38636, Note_on_c, 0, 52, 77
1, 38664, Control_c, 0, 67, 40
1, 38724, Control_c, 0, 67, 40
1, 38733, Note_on_c, 0, 45, 82
1, 38739, Control_c, 0, 67, 38
1, 38754, Control_c, 0, 67, 36
1, 38769, Control_c, 0, 67, 34
1, 38772, Note_off_c, 0, 52, 56
1, 38784, Control_c, 0, 67, 32
1, 38798, Control_c, 0, 67, 29
1, 38799, Note_off_c, 0, 45, 63
1, 38813, Control_c, 0, 67, 26
1, 38828, Control_c, 0, 67, 22
1, 38843, Control_c, 0, 67, 17
1, 38858, Control_c, 0, 67, 11
1, 38861, Note_on_c, 0, 45, 83
1, 38872, Control_c, 0, 67, 0
1, 38969, Note_off_c, 0, 45, 61
1, 38984, Note_on_c, 0, 52, 72
1, 39122, Note_on_c, 0, 61, 77
1, 39192, Note_off_c, 0, 61, 61
1, 39215, Note_on_c, 0, 74, 104
1, 39411, Note_off_c, 0, 74, 62
1, 39439, Note_off_c, 0, 52, 54
1, 39465, Note_on_c, 0, 74, 94
1, 39472, Note_on_c, 0, 44, 67
1, 39532, Control_c, 0, 64, 87
1, 39546, Control_c, 0, 64, 65
1, 39561, Control_c, 0, 64, 0
1, 39694, Note_on_c, 0, 53, 68
1, 39709, Control_c, 0, 64, 57
1, 39724, Control_c, 0, 64, 69
1, 39738, Control_c, 0, 64, 83
1, 39753, Control_c, 0, 64, 119
1, 39768, Control_c, 0, 64, 127
1, 39840, Note_on_c, 0, 59, 73
1, 39892, Note_off_c, 0, 59, 61
1, 39943, Note_off_c, 0, 53, 55
1, 39970, Note_off_c, 0, 44, 34
1, 39989, Note_on_c, 0, 59, 73
1, 40083, Note_on_c, 0, 73, 85
1, 40110, Note_off_c, 0, 74, 67
1, 40158, Note_on_c, 0, 53, 69
1, 40185, Note_off_c, 0, 73, 61
1, 40236, Note_off_c, 0, 53, 65
1, 40257, Note_off_c, 0, 59, 0
1, 40264, Note_on_c, 0, 44, 77
1, 40265, Control_c, 0, 67, 8
1, 40280, Control_c, 0, 67, 8
1, 40294, Poly_aftertouch_c, 0, 59, 127
1, 40322, Note_off_c, 0, 44, 63
1, 40390, Note_on_c, 0, 44, 78
1, 40443, Control_c, 0, 67, 8
1, 40450, Poly_aftertouch_c, 0, 59, 0
1, 40512, Note_on_c, 0, 53, 77
1, 40533, Note_off_c, 0, 44, 37
1, 40576, Control_c, 0, 67, 0
1, 40620, Note_on_c, 0, 59, 78
1, 40676, Note_on_c, 0, 44, 96
1, 40739, Note_off_c, 0, 44, 64
1, 40851, Note_off_c, 0, 53, 57
1, 40856, Note_on_c, 0, 37, 94
1, 40864, Note_on_c, 0, 44, 74
1, 40889, Note_on_c, 0, 39, 53
1, 40922, Note_off_c, 0, 39, 54
1, 40926, Control_c, 0, 64, 111
1, 40941, Control_c, 0, 64, 75
1, 40956, Control_c, 0, 64, 63
1, 40971, Control_c, 0, 64, 66
1, 40985, Control_c, 0, 64, 73
1, 41000, Control_c, 0, 64, 84
1, 41015, Control_c, 0, 64, 109
1, 41030, Control_c, 0, 64, 127
1, 41047, Note_off_c, 0, 59, 57
1, 41049, Note_on_c, 0, 53, 76
1, 41129, Note_off_c, 0, 44, 61
1, 41162, Note_on_c, 0, 59, 75
1, 41207, Note_off_c, 0, 53, 60
1, 41226, Note_off_c, 0, 59, 60
1, 41228, Note_off_c, 0, 37, 64
1, 41283, Note_on_c, 0, 59, 73
1, 41395, Note_on_c, 0, 53, 81
1, 41481, Note_off_c, 0, 53, 64
1, 41496, Note_on_c, 0, 44, 79
1, 41559, Note_off_c, 0, 44, 63
1, 41642, Note_on_c, 0, 44, 88
1, 41743, Note_off_c, 0, 59, 43
1, 41753, Note_on_c, 0, 53, 78
1, 41840, Note_off_c, 0, 44, 58
1, 41884, Note_on_c, 0, 59, 76
1, 41940, Note_on_c, 0, 68, 103
1, 42149, Note_on_c, 0, 61, 101
1, 42158, Note_off_c, 0, 53, 57
1, 42171, Note_on_c, 0, 44, 69
1, 42252, Control_c, 0, 64, 103
1, 42267, Control_c, 0, 64, 88
1, 42289, Control_c, 0, 64, 93
1, 42304, Control_c, 0, 64, 127
1, 42364, Note_on_c, 0, 53, 73
1, 42368, Note_off_c, 0, 59, 51
1, 42447, Note_off_c, 0, 44, 56
1, 42489, Note_on_c, 0, 59, 71
1, 42519, Note_off_c, 0, 53, 62
1, 42544, Note_off_c, 0, 59, 58
1, 42602, Note_on_c, 0, 59, 75
1, 42709, Note_on_c, 0, 53, 84
1, 42804, Note_off_c, 0, 53, 63
1, 42817, Note_on_c, 0, 44, 81
1, 42844, Note_off_c, 0, 68, 57
1, 42844, Note_off_c, 0, 61, 57
1, 42873, Note_off_c, 0, 44, 63
1, 42942, Note_on_c, 0, 44, 85
1, 43050, Note_off_c, 0, 59, 39
1, 43059, Note_off_c, 0, 44, 61
1, 43061, Note_on_c, 0, 53, 75
1, 43166, Note_on_c, 0, 59, 74
1, 43235, Note_on_c, 0, 38, 101
1, 43270, Note_off_c, 0, 38, 64
1, 43290, Note_off_c, 0, 53, 62
1, 43318, Note_on_c, 0, 38, 93
1, 43323, Note_on_c, 0, 44, 78
1, 43335, Control_c, 0, 64, 92
1, 43350, Control_c, 0, 64, 64
1, 43365, Control_c, 0, 64, 0
1, 43374, Note_off_c, 0, 59, 29
1, 43394, Control_c, 0, 64, 60
1, 43409, Control_c, 0, 64, 72
1, 43424, Control_c, 0, 64, 88
1, 43439, Control_c, 0, 64, 127
1, 43495, Note_on_c, 0, 53, 79
1, 43560, Note_off_c, 0, 44, 51
1, 43605, Note_on_c, 0, 59, 75
1, 43657, Note_off_c, 0, 59, 59
1, 43710, Note_on_c, 0, 37, 97
1, 43710, Note_on_c, 0, 59, 70
1, 43726, Note_off_c, 0, 38, 61
1, 43753, Note_off_c, 0, 53, 48
1, 43788, Note_off_c, 0, 37, 68
1, 43836, Note_on_c, 0, 49, 85
1, 43839, Note_off_c, 0, 59, 53
1, 43949, Note_on_c, 0, 44, 89
1, 43954, Note_off_c, 0, 49, 63
1, 44010, Note_off_c, 0, 44, 65
1, 44136, Note_on_c, 0, 37, 90
1, 44217, Control_c, 0, 64, 90
1, 44219, Note_on_c, 0, 57, 98
1, 44220, Note_on_c, 0, 69, 97
1, 44232, Control_c, 0, 64, 64
1, 44247, Control_c, 0, 64, 0
1, 44276, Control_c, 0, 64, 63
1, 44291, Control_c, 0, 64, 76
1, 44306, Control_c, 0, 64, 104
1, 44321, Control_c, 0, 64, 127
1, 44367, Note_on_c, 0, 45, 83
1, 44382, Note_off_c, 0, 37, 63
1, 44422, Note_off_c, 0, 45, 66
1, 44573, Note_on_c, 0, 55, 91
1, 44614, Note_off_c, 0, 57, 57
1, 44624, Note_off_c, 0, 55, 66
1, 44632, Note_off_c, 0, 69, 59
1, 44698, Note_on_c, 0, 69, 95
1, 44699, Note_on_c, 0, 57, 94
1, 44914, Note_off_c, 0, 57, 58
1, 44921, Note_off_c, 0, 69, 61
1, 44951, Note_on_c, 0, 38, 85
1, 45000, Note_on_c, 0, 69, 91
1, 45005, Note_on_c, 0, 57, 81
1, 45011, Control_c, 0, 64, 119
1, 45012, Note_on_c, 0, 44, 43
1, 45026, Control_c, 0, 64, 71
1, 45040, Control_c, 0, 64, 0
1, 45041, Note_off_c, 0, 44, 55
1, 45070, Control_c, 0, 64, 49
1, 45085, Control_c, 0, 64, 72
1, 45100, Control_c, 0, 64, 96
1, 45115, Control_c, 0, 64, 127
1, 45139, Note_off_c, 0, 57, 65
1, 45185, Note_on_c, 0, 45, 79
1, 45198, Note_off_c, 0, 38, 63
1, 45294, Note_on_c, 0, 54, 84
1, 45348, Note_off_c, 0, 54, 62
1, 45395, Note_on_c, 0, 54, 74
1, 45430, Note_off_c, 0, 45, 64
1, 45449, Note_on_c, 0, 78, 96
1, 45454, Note_on_c, 0, 66, 89
1, 45483, Note_off_c, 0, 54, 63
1, 45493, Note_off_c, 0, 78, 68
1, 45517, Note_off_c, 0, 66, 59
1, 45541, Note_off_c, 0, 69, 58
1, 45560, Note_on_c, 0, 46, 78
1, 45668, Note_on_c, 0, 38, 82
1, 45694, Note_off_c, 0, 46, 59
1, 45749, Note_on_c, 0, 70, 101
1, 45754, Note_on_c, 0, 58, 95
1, 45755, Note_off_c, 0, 38, 59
1, 45793, Note_off_c, 0, 58, 61
1, 45819, Note_off_c, 0, 70, 58
1, 45852, Note_on_c, 0, 38, 83
1, 45854, Note_on_c, 0, 71, 95
1, 45863, Note_on_c, 0, 59, 86
1, 45878, Control_c, 0, 64, 73
1, 45893, Control_c, 0, 64, 0
1, 45938, Control_c, 0, 64, 62
1, 45953, Control_c, 0, 64, 77
1, 45968, Control_c, 0, 64, 117
1, 45982, Control_c, 0, 64, 127
1, 45994, Note_off_c, 0, 38, 60
1, 46002, Note_on_c, 0, 47, 81
1, 46075, Note_off_c, 0, 59, 57
1, 46092, Note_off_c, 0, 71, 60
1, 46133, Note_on_c, 0, 54, 88
1, 46188, Note_off_c, 0, 54, 66
1, 46197, Note_on_c, 0, 71, 99
1, 46200, Note_on_c, 0, 59, 96
1, 46229, Note_off_c, 0, 59, 66
1, 46249, Note_off_c, 0, 71, 69
1, 46495, Note_on_c, 0, 81, 99
1, 46502, Note_on_c, 0, 69, 88
1, 46504, Note_on_c, 0, 38, 78
1, 46564, Note_off_c, 0, 47, 46
1, 46701, Control_c, 0, 64, 101
1, 46716, Control_c, 0, 64, 68
1, 46731, Control_c, 0, 64, 0
1, 46740, Note_on_c, 0, 47, 81
1, 46760, Control_c, 0, 64, 65
1, 46783, Control_c, 0, 64, 77
1, 46798, Control_c, 0, 64, 109
1, 46812, Control_c, 0, 64, 127
1, 46927, Note_on_c, 0, 53, 79
1, 47060, Note_off_c, 0, 53, 63
1, 47172, Note_on_c, 0, 53, 67
1, 47183, Note_off_c, 0, 47, 58
1, 47228, Note_off_c, 0, 69, 63
1, 47300, Note_off_c, 0, 38, 51
1, 47305, Note_off_c, 0, 53, 60
1, 47337, Note_on_c, 0, 47, 68
1, 47425, Note_on_c, 0, 80, 93
1, 47435, Note_on_c, 0, 68, 80
1, 47471, Note_off_c, 0, 81, 56
1, 47474, Note_off_c, 0, 47, 63
1, 47494, Note_on_c, 0, 38, 68
1, 47533, Note_off_c, 0, 68, 50
1, 47565, Note_off_c, 0, 38, 61
1, 47651, Note_on_c, 0, 37, 80
1, 47665, Control_c, 0, 64, 118
1, 47679, Control_c, 0, 64, 80
1, 47694, Control_c, 0, 64, 50
1, 47709, Control_c, 0, 64, 47
1, 47724, Control_c, 0, 64, 66
1, 47726, Note_on_c, 0, 81, 93
1, 47732, Note_on_c, 0, 69, 90
1, 47739, Control_c, 0, 64, 78
1, 47753, Control_c, 0, 64, 101
1, 47768, Control_c, 0, 64, 127
1, 47798, Note_off_c, 0, 80, 59
1, 47828, Note_off_c, 0, 81, 64
1, 47843, Note_on_c, 0, 45, 83
1, 47848, Note_off_c, 0, 69, 63
1, 47885, Note_off_c, 0, 37, 62
1, 47941, Note_on_c, 0, 76, 98
1, 47948, Note_on_c, 0, 64, 92
1, 48017, Note_on_c, 0, 52, 88
1, 48030, Note_off_c, 0, 64, 60
1, 48035, Note_off_c, 0, 45, 63
1, 48149, Note_off_c, 0, 52, 52
1, 48156, Note_on_c, 0, 38, 85
1, 48245, Note_on_c, 0, 80, 97
1, 48255, Note_on_c, 0, 68, 86
1, 48258, Control_c, 0, 64, 110
1, 48266, Note_off_c, 0, 76, 57
1, 48281, Control_c, 0, 64, 74
1, 48296, Control_c, 0, 64, 0
1, 48325, Control_c, 0, 64, 45
1, 48340, Control_c, 0, 64, 69
1, 48355, Control_c, 0, 64, 90
1, 48370, Control_c, 0, 64, 127
1, 48375, Note_on_c, 0, 45, 79
1, 48389, Note_off_c, 0, 38, 63
1, 48487, Note_on_c, 0, 54, 82
1, 48534, Note_off_c, 0, 45, 34
1, 48543, Note_off_c, 0, 54, 63
1, 48584, Note_off_c, 0, 68, 55
1, 48597, Note_on_c, 0, 54, 71
1, 48651, Note_off_c, 0, 54, 66
1, 48700, Note_on_c, 0, 45, 78
1, 48780, Note_on_c, 0, 78, 97
1, 48787, Note_on_c, 0, 66, 92
1, 48820, Note_on_c, 0, 79, 52
1, 48828, Note_off_c, 0, 80, 62
1, 48838, Note_on_c, 0, 38, 76
1, 48844, Note_off_c, 0, 79, 58
1, 48921, Note_off_c, 0, 78, 59
1, 48937, Note_off_c, 0, 38, 61
1, 48966, Note_off_c, 0, 66, 63
1, 49039, Note_on_c, 0, 40, 85
1, 49043, Note_off_c, 0, 45, 64
1, 49124, Note_on_c, 0, 76, 90
1, 49133, Control_c, 0, 64, 105
1, 49137, Note_on_c, 0, 64, 76
1, 49148, Control_c, 0, 64, 72
1, 49163, Control_c, 0, 64, 0
1, 49193, Control_c, 0, 64, 57
1, 49207, Control_c, 0, 64, 73
1, 49222, Control_c, 0, 64, 92
1, 49237, Control_c, 0, 64, 127
1, 49283, Note_on_c, 0, 44, 73
1, 49285, Note_off_c, 0, 64, 61
1, 49300, Note_off_c, 0, 40, 62
1, 49393, Note_on_c, 0, 74, 93
1, 49410, Note_on_c, 0, 62, 76
1, 49452, Note_off_c, 0, 76, 60
1, 49455, Note_on_c, 0, 56, 70
1, 49498, Note_off_c, 0, 62, 58
1, 49507, Note_off_c, 0, 56, 64
1, 49666, Note_on_c, 0, 73, 84
1, 49684, Note_on_c, 0, 61, 63
1, 49700, Note_on_c, 0, 41, 68
1, 49775, Note_off_c, 0, 44, 63
1, 49775, Note_off_c, 0, 74, 58
1, 49778, Control_c, 0, 64, 110
1, 49793, Control_c, 0, 64, 72
1, 49808, Control_c, 0, 64, 0
1, 49880, Control_c, 0, 64, 11
1, 49895, Control_c, 0, 64, 65
1, 49910, Control_c, 0, 64, 78
1, 49923, Note_on_c, 0, 49, 69
1, 49925, Control_c, 0, 64, 97
1, 49940, Control_c, 0, 64, 127
1, 50053, Note_on_c, 0, 56, 64
1, 50091, Note_off_c, 0, 56, 57
1, 50147, Control_c, 0, 67, 8
1, 50155, Note_off_c, 0, 49, 32
1, 50162, Control_c, 0, 67, 8
1, 50177, Control_c, 0, 67, 9
1, 50191, Control_c, 0, 67, 11
1, 50206, Control_c, 0, 67, 13
1, 50221, Control_c, 0, 67, 15
1, 50236, Control_c, 0, 67, 17
1, 50251, Control_c, 0, 67, 19
1, 50258, Note_on_c, 0, 56, 62
1, 50266, Control_c, 0, 67, 20
1, 50280, Control_c, 0, 67, 22
1, 50296, Control_c, 0, 67, 24
1, 50311, Control_c, 0, 67, 26
1, 50326, Control_c, 0, 67, 29
1, 50341, Control_c, 0, 67, 34
1, 50355, Control_c, 0, 67, 38
1, 50370, Control_c, 0, 67, 43
1, 50370, Note_off_c, 0, 56, 61
1, 50385, Control_c, 0, 67, 48
1, 50400, Control_c, 0, 67, 51
1, 50415, Control_c, 0, 67, 54
1, 50427, Note_on_c, 0, 49, 64
1, 50430, Control_c, 0, 67, 55
1, 50444, Note_off_c, 0, 41, 33
1, 50444, Control_c, 0, 67, 56
1, 50456, Note_off_c, 0, 61, 60
1, 50459, Control_c, 0, 67, 56
1, 50460, Note_off_c, 0, 73, 60
1, 50536, Note_on_c, 0, 73, 85
1, 50540, Control_c, 0, 67, 56
1, 50549, Note_on_c, 0, 61, 67
1, 50555, Control_c, 0, 67, 55
1, 50570, Control_c, 0, 67, 54
1, 50585, Control_c, 0, 67, 54
1, 50595, Note_on_c, 0, 41, 59
1, 50600, Control_c, 0, 67, 53
1, 50615, Control_c, 0, 67, 52
1, 50644, Note_off_c, 0, 41, 62
1, 50645, Control_c, 0, 67, 52
1, 50667, Note_off_c, 0, 61, 56
1, 50674, Control_c, 0, 67, 51
1, 50719, Control_c, 0, 67, 51
1, 50741, Note_on_c, 0, 42, 75
1, 50749, Control_c, 0, 67, 50
1, 50751, Note_off_c, 0, 49, 61
1, 50764, Control_c, 0, 67, 50
1, 50778, Control_c, 0, 64, 103
1, 50778, Control_c, 0, 67, 49
1, 50793, Control_c, 0, 64, 71
1, 50793, Control_c, 0, 67, 49
1, 50808, Control_c, 0, 64, 0
1, 50819, Note_on_c, 0, 74, 90
1, 50822, Control_c, 0, 67, 48
1, 50834, Note_on_c, 0, 62, 72
1, 50837, Control_c, 0, 64, 38
1, 50837, Control_c, 0, 67, 47
1, 50852, Control_c, 0, 64, 66
1, 50862, Note_off_c, 0, 73, 58
1, 50867, Control_c, 0, 64, 78
1, 50867, Control_c, 0, 67, 46
1, 50882, Control_c, 0, 64, 99
1, 50896, Control_c, 0, 64, 127
1, 50897, Note_off_c, 0, 62, 60
1, 50917, Note_on_c, 0, 47, 74
1, 50926, Control_c, 0, 67, 46
1, 50931, Note_off_c, 0, 42, 61
1, 50956, Control_c, 0, 67, 45
1, 50970, Control_c, 0, 67, 44
1, 50985, Control_c, 0, 67, 43
1, 51000, Control_c, 0, 67, 42
1, 51015, Control_c, 0, 67, 41
1, 51017, Note_on_c, 0, 75, 91
1, 51028, Note_on_c, 0, 63, 84
1, 51029, Control_c, 0, 67, 39
1, 51044, Control_c, 0, 67, 36
1, 51059, Note_off_c, 0, 74, 64
1, 51059, Control_c, 0, 67, 33
1, 51074, Control_c, 0, 67, 30
1, 51080, Note_on_c, 0, 57, 70
1, 51082, Note_on_c, 0, 48, 76
1, 51090, Control_c, 0, 67, 26
1, 51096, Note_off_c, 0, 47, 64
1, 51105, Control_c, 0, 67, 24
1, 51118, Note_off_c, 0, 63, 54
1, 51119, Control_c, 0, 67, 23
1, 51134, Control_c, 0, 67, 22
1, 51140, Note_off_c, 0, 57, 58
1, 51179, Control_c, 0, 67, 21
1, 51223, Control_c, 0, 67, 22
1, 51238, Control_c, 0, 67, 23
1, 51253, Control_c, 0, 67, 24
1, 51275, Control_c, 0, 67, 25
1, 51290, Control_c, 0, 67, 27
1, 51294, Note_on_c, 0, 76, 88
1, 51305, Control_c, 0, 67, 28
1, 51312, Note_on_c, 0, 40, 70
1, 51319, Control_c, 0, 67, 29
1, 51321, Note_on_c, 0, 64, 66
1, 51324, Note_off_c, 0, 48, 59
1, 51334, Control_c, 0, 64, 92
1, 51334, Control_c, 0, 67, 30
1, 51349, Control_c, 0, 64, 64
1, 51349, Control_c, 0, 67, 31
1, 51364, Control_c, 0, 64, 0
1, 51364, Control_c, 0, 67, 32
1, 51366, Note_off_c, 0, 75, 62
1, 51379, Control_c, 0, 67, 33
1, 51408, Control_c, 0, 67, 33
1, 51438, Control_c, 0, 64, 44
1, 51438, Control_c, 0, 67, 34
1, 51452, Control_c, 0, 64, 68
1, 51452, Control_c, 0, 67, 34
1, 51467, Control_c, 0, 64, 83
1, 51467, Control_c, 0, 67, 35
1, 51482, Control_c, 0, 64, 127
1, 51482, Control_c, 0, 67, 36
1, 51493, Note_on_c, 0, 49, 74
1, 51497, Control_c, 0, 67, 37
1, 51498, Note_off_c, 0, 40, 63
1, 51512, Control_c, 0, 67, 37
1, 51527, Control_c, 0, 67, 38
1, 51542, Control_c, 0, 67, 39
1, 51557, Control_c, 0, 67, 40
1, 51587, Control_c, 0, 67, 41
1, 51601, Control_c, 0, 67, 42
1, 51616, Control_c, 0, 67, 43
1, 51628, Note_on_c, 0, 57, 67
1, 51631, Control_c, 0, 67, 44
1, 51640, Note_off_c, 0, 49, 57
1, 51645, Control_c, 0, 67, 45
1, 51660, Control_c, 0, 67, 46
1, 51675, Control_c, 0, 67, 47
1, 51681, Note_off_c, 0, 57, 54
1, 51690, Control_c, 0, 67, 48
1, 51705, Control_c, 0, 67, 49
1, 51719, Control_c, 0, 67, 50
1, 51734, Control_c, 0, 67, 52
1, 51749, Control_c, 0, 67, 54
1, 51764, Control_c, 0, 67, 56
1, 51768, Note_on_c, 0, 57, 57
1, 51779, Control_c, 0, 67, 59
1, 51793, Control_c, 0, 67, 62
1, 51808, Control_c, 0, 67, 65
1, 51823, Control_c, 0, 67, 69
1, 51838, Control_c, 0, 67, 72
1, 51844, Note_off_c, 0, 57, 58
1, 51852, Control_c, 0, 67, 77
1, 51867, Control_c, 0, 67, 81
1, 51882, Control_c, 0, 67, 86
1, 51891, Note_on_c, 0, 49, 62
1, 51898, Control_c, 0, 67, 91
1, 51913, Control_c, 0, 67, 95
1, 51928, Control_c, 0, 67, 99
1, 51942, Control_c, 0, 67, 103
1, 51957, Control_c, 0, 67, 106
1, 51972, Control_c, 0, 67, 109
1, 51980, Note_off_c, 0, 64, 38
1, 51987, Control_c, 0, 67, 111
1, 52002, Control_c, 0, 67, 113
1, 52024, Control_c, 0, 67, 114
1, 52036, Note_on_c, 0, 40, 57
1, 52039, Control_c, 0, 67, 114
1, 52054, Control_c, 0, 67, 115
1, 52068, Control_c, 0, 67, 115
1, 52072, Note_off_c, 0, 40, 63
1, 52098, Control_c, 0, 67, 116
1, 52172, Control_c, 0, 67, 116
1, 52209, Note_on_c, 0, 74, 73
1, 52229, Note_on_c, 0, 41, 56
1, 52231, Control_c, 0, 67, 117
1, 52246, Control_c, 0, 64, 79
1, 52246, Control_c, 0, 67, 117
1, 52249, Note_on_c, 0, 62, 39
1, 52261, Control_c, 0, 64, 47
1, 52261, Control_c, 0, 67, 118
1, 52262, Note_off_c, 0, 49, 51
1, 52275, Control_c, 0, 64, 0
1, 52275, Control_c, 0, 67, 119
1, 52290, Control_c, 0, 67, 120
1, 52305, Control_c, 0, 67, 121
1, 52318, Note_off_c, 0, 76, 60
1, 52320, Control_c, 0, 67, 121
1, 52335, Control_c, 0, 64, 60
1, 52335, Control_c, 0, 67, 122
1, 52350, Control_c, 0, 64, 71
1, 52350, Control_c, 0, 67, 122
1, 52365, Control_c, 0, 64, 83
1, 52365, Control_c, 0, 67, 123
1, 52376, Note_on_c, 0, 47, 56
1, 52379, Note_off_c, 0, 41, 59
1, 52379, Control_c, 0, 64, 103
1, 52379, Control_c, 0, 67, 123
1, 52394, Control_c, 0, 64, 127
1, 52409, Control_c, 0, 67, 124
1, 52424, Control_c, 0, 67, 125
1, 52439, Control_c, 0, 67, 125
1, 52454, Control_c, 0, 67, 126
1, 52468, Control_c, 0, 67, 127
1, 52484, Note_off_c, 0, 62, 49
1, 52534, Note_on_c, 0, 56, 58
1, 52659, Note_off_c, 0, 56, 39
1, 52722, Note_on_c, 0, 73, 63
1, 52734, Note_on_c, 0, 42, 54
1, 52747, Note_off_c, 0, 47, 51
1, 52773, Control_c, 0, 64, 95
1, 52775, Note_on_c, 0, 61, 38
1, 52788, Control_c, 0, 64, 71
1, 52803, Control_c, 0, 64, 0
1, 52869, Note_off_c, 0, 74, 59
1, 52906, Control_c, 0, 64, 64
1, 52912, Note_on_c, 0, 45, 52
1, 52921, Control_c, 0, 64, 76
1, 52936, Control_c, 0, 64, 91
1, 52951, Control_c, 0, 64, 127
1, 52962, Note_off_c, 0, 42, 54
1, 53049, Note_on_c, 0, 57, 54
1, 53074, Note_off_c, 0, 45, 34
1, 53093, Note_off_c, 0, 57, 56
1, 53189, Note_on_c, 0, 57, 54
1, 53199, Note_off_c, 0, 73, 61
1, 53291, Note_off_c, 0, 61, 50
1, 53316, Note_off_c, 0, 57, 35
1, 53342, Note_on_c, 0, 45, 54
1, 53429, Note_on_c, 0, 71, 66
1, 53438, Note_off_c, 0, 45, 61
1, 53456, Note_on_c, 0, 59, 51
1, 53490, Note_on_c, 0, 42, 45
1, 53542, Note_off_c, 0, 59, 51
1, 53561, Note_off_c, 0, 42, 60
1, 53747, Note_on_c, 0, 69, 55
1, 53765, Note_on_c, 0, 38, 54
1, 53774, Control_c, 0, 64, 82
1, 53775, Note_on_c, 0, 57, 42
1, 53789, Control_c, 0, 64, 61
1, 53803, Control_c, 0, 64, 0
1, 53846, Note_off_c, 0, 71, 53
1, 53847, Control_c, 0, 64, 40
1, 53862, Control_c, 0, 64, 64
1, 53877, Control_c, 0, 64, 74
1, 53892, Control_c, 0, 64, 84
1, 53907, Control_c, 0, 64, 100
1, 53915, Note_off_c, 0, 57, 52
1, 53921, Control_c, 0, 64, 127
1, 53931, Note_off_c, 0, 38, 55
1, 53936, Note_on_c, 0, 45, 47
1, 54076, Note_on_c, 0, 71, 65
1, 54105, Note_on_c, 0, 59, 36
1, 54110, Note_off_c, 0, 69, 59
1, 54170, Note_off_c, 0, 59, 47
1, 54177, Note_on_c, 0, 54, 49
1, 54273, Note_off_c, 0, 54, 60
1, 54548, Note_on_c, 0, 73, 59
1, 54595, Note_on_c, 0, 37, 45
1, 54601, Note_on_c, 0, 61, 35
1, 54603, Note_off_c, 0, 71, 41
1, 54611, Control_c, 0, 64, 97
1, 54626, Control_c, 0, 64, 71
1, 54641, Control_c, 0, 64, 0
1, 54748, Note_off_c, 0, 45, 0
1, 54785, Poly_aftertouch_c, 0, 45, 127
1, 54804, Control_c, 0, 64, 11
1, 54818, Control_c, 0, 64, 60
1, 54833, Control_c, 0, 64, 66
1, 54848, Control_c, 0, 64, 70
1, 54863, Control_c, 0, 64, 74
1, 54867, Poly_aftertouch_c, 0, 45, 0
1, 54877, Control_c, 0, 64, 77
1, 54892, Control_c, 0, 64, 80
1, 54907, Control_c, 0, 64, 83
1, 54908, Note_on_c, 0, 44, 37
1, 54922, Control_c, 0, 64, 86
1, 54937, Control_c, 0, 64, 91
1, 54952, Control_c, 0, 64, 103
1, 54967, Control_c, 0, 64, 127
1, 55055, Note_off_c, 0, 37, 40
1, 55185, Note_on_c, 0, 54, 44
1, 55262, Note_off_c, 0, 54, 52
1, 55342, Note_off_c, 0, 44, 42
1, 55396, Note_on_c, 0, 54, 45
1, 55560, Note_off_c, 0, 54, 41
1, 55567, Note_on_c, 0, 44, 48
1, 55738, Note_on_c, 0, 37, 45
1, 55745, Note_off_c, 0, 44, 46
1, 55822, Note_off_c, 0, 37, 47
1, 55963, Note_on_c, 0, 37, 48
1, 56020, Control_c, 0, 64, 97
1, 56034, Control_c, 0, 64, 76
1, 56049, Control_c, 0, 64, 61
1, 56064, Control_c, 0, 64, 0
1, 56094, Control_c, 0, 64, 51
1, 56109, Control_c, 0, 64, 65
1, 56123, Control_c, 0, 64, 73
1, 56138, Control_c, 0, 64, 83
1, 56153, Control_c, 0, 64, 109
1, 56168, Control_c, 0, 64, 127
1, 56235, Note_on_c, 0, 44, 41
1, 56287, Note_off_c, 0, 37, 41
1, 56382, Note_off_c, 0, 73, 62
1, 56434, Control_c, 0, 67, 127
1, 56449, Control_c, 0, 67, 125
1, 56464, Control_c, 0, 67, 123
1, 56479, Control_c, 0, 67, 121
1, 56494, Control_c, 0, 67, 119
1, 56516, Control_c, 0, 67, 118
1, 56531, Control_c, 0, 67, 117
1, 56546, Control_c, 0, 67, 115
1, 56561, Control_c, 0, 67, 114
1, 56575, Control_c, 0, 67, 111
1, 56583, Note_off_c, 0, 61, 40
1, 56590, Control_c, 0, 67, 110
1, 56605, Control_c, 0, 67, 109
1, 56620, Control_c, 0, 67, 108
1, 56630, Note_on_c, 0, 53, 40
1, 56635, Control_c, 0, 67, 107
1, 56649, Control_c, 0, 67, 106
1, 56664, Control_c, 0, 67, 104
1, 56679, Control_c, 0, 67, 102
1, 56695, Control_c, 0, 67, 100
1, 56710, Control_c, 0, 67, 98
1, 56725, Control_c, 0, 67, 95
1, 56739, Control_c, 0, 67, 92
1, 56744, Note_off_c, 0, 53, 38
1, 56754, Control_c, 0, 67, 88
1, 56769, Control_c, 0, 67, 85
1, 56784, Control_c, 0, 67, 81
1, 56799, Control_c, 0, 67, 78
1, 56813, Control_c, 0, 67, 74
1, 56828, Control_c, 0, 67, 71
1, 56843, Control_c, 0, 67, 68
1, 56857, Control_c, 0, 67, 65
1, 56872, Control_c, 0, 67, 62
1, 56887, Control_c, 0, 67, 59
1, 56890, Note_off_c, 0, 44, 36
1, 56902, Control_c, 0, 67, 56
1, 56917, Control_c, 0, 67, 53
1, 56931, Control_c, 0, 67, 50
1, 56946, Control_c, 0, 67, 47
1, 56961, Control_c, 0, 67, 44
1, 56976, Control_c, 0, 67, 41
1, 56991, Control_c, 0, 67, 39
1, 57006, Control_c, 0, 67, 36
1, 57021, Control_c, 0, 67, 34
1, 57036, Control_c, 0, 67, 31
1, 57051, Control_c, 0, 67, 28
1, 57065, Control_c, 0, 67, 25
1, 57065, Note_on_c, 0, 61, 93
1, 57074, Note_on_c, 0, 49, 74
1, 57080, Control_c, 0, 67, 22
1, 57095, Control_c, 0, 67, 19
1, 57110, Control_c, 0, 67, 16
1, 57125, Control_c, 0, 67, 13
1, 57139, Control_c, 0, 67, 11
1, 57154, Control_c, 0, 67, 9
1, 57169, Control_c, 0, 67, 9
1, 57205, Note_on_c, 0, 66, 91
1, 57213, Note_on_c, 0, 54, 82
1, 57218, Note_off_c, 0, 61, 60
1, 57220, Note_on_c, 0, 42, 65
1, 57224, Note_off_c, 0, 49, 55
1, 57228, Control_c, 0, 67, 9
1, 57243, Control_c, 0, 67, 11
1, 57265, Control_c, 0, 67, 12
1, 57280, Control_c, 0, 67, 13
1, 57295, Control_c, 0, 64, 101
1, 57295, Control_c, 0, 67, 14
1, 57310, Control_c, 0, 64, 76
1, 57310, Control_c, 0, 67, 15
1, 57313, Poly_aftertouch_c, 0, 64, 0
1, 57325, Control_c, 0, 64, 44
1, 57339, Control_c, 0, 64, 0
1, 57384, Control_c, 0, 64, 62
1, 57399, Control_c, 0, 64, 71
1, 57414, Control_c, 0, 64, 86
1, 57429, Control_c, 0, 64, 127
1, 57519, Control_c, 0, 67, 14
1, 57545, Note_on_c, 0, 49, 59
1, 57608, Control_c, 0, 67, 15
1, 57623, Control_c, 0, 67, 15
1, 57637, Control_c, 0, 67, 16
1, 57652, Control_c, 0, 67, 17
1, 57667, Control_c, 0, 67, 18
1, 57677, Note_off_c, 0, 42, 37
1, 57681, Control_c, 0, 67, 19
1, 57696, Control_c, 0, 67, 20
1, 57711, Control_c, 0, 67, 20
1, 57721, Note_on_c, 0, 57, 57
1, 57726, Control_c, 0, 67, 21
1, 57741, Control_c, 0, 67, 23
1, 57755, Control_c, 0, 67, 24
1, 57770, Control_c, 0, 67, 26
1, 57778, Note_off_c, 0, 57, 57
1, 57785, Control_c, 0, 67, 28
1, 57800, Control_c, 0, 67, 31
1, 57814, Control_c, 0, 67, 33
1, 57829, Control_c, 0, 67, 34
1, 57837, Note_off_c, 0, 49, 36
1, 57844, Control_c, 0, 67, 36
1, 57859, Control_c, 0, 67, 37
1, 57874, Control_c, 0, 67, 38
1, 57888, Control_c, 0, 67, 40
1, 57895, Note_on_c, 0, 57, 57
1, 57903, Control_c, 0, 67, 41
1, 57918, Control_c, 0, 67, 44
1, 57933, Control_c, 0, 67, 46
1, 57948, Control_c, 0, 67, 48
1, 57963, Control_c, 0, 67, 50
1, 57978, Control_c, 0, 67, 52
1, 57993, Control_c, 0, 67, 54
1, 58014, Control_c, 0, 67, 56
1, 58029, Control_c, 0, 67, 58
1, 58041, Note_on_c, 0, 49, 59
1, 58044, Control_c, 0, 67, 60
1, 58058, Note_off_c, 0, 57, 37
1, 58059, Control_c, 0, 67, 61
1, 58074, Control_c, 0, 67, 61
1, 58088, Control_c, 0, 67, 62
1, 58103, Control_c, 0, 67, 62
1, 58118, Control_c, 0, 67, 63
1, 58146, Note_off_c, 0, 49, 56
1, 58148, Control_c, 0, 67, 63
1, 58151, Note_on_c, 0, 42, 55
1, 58202, Note_off_c, 0, 42, 57
1, 58236, Control_c, 0, 67, 64
1, 58266, Control_c, 0, 67, 64
1, 58282, Control_c, 0, 67, 65
1, 58293, Note_on_c, 0, 42, 65
1, 58297, Control_c, 0, 67, 66
1, 58311, Control_c, 0, 67, 68
1, 58326, Control_c, 0, 67, 69
1, 58341, Control_c, 0, 67, 71
1, 58356, Control_c, 0, 67, 73
1, 58371, Control_c, 0, 67, 74
1, 58385, Control_c, 0, 67, 76
1, 58400, Control_c, 0, 67, 77
1, 58415, Control_c, 0, 67, 77
1, 58430, Note_off_c, 0, 42, 53
1, 58430, Control_c, 0, 67, 78
1, 58431, Note_on_c, 0, 49, 66
1, 58444, Control_c, 0, 67, 80
1, 58459, Control_c, 0, 67, 81
1, 58474, Control_c, 0, 67, 82
1, 58489, Control_c, 0, 67, 84
1, 58504, Control_c, 0, 67, 84
1, 58518, Control_c, 0, 67, 85
1, 58533, Control_c, 0, 67, 85
1, 58592, Note_on_c, 0, 57, 62
1, 58605, Note_off_c, 0, 49, 54
1, 58657, Note_off_c, 0, 57, 54
1, 58666, Control_c, 0, 67, 85
1, 58668, Note_on_c, 0, 61, 86
1, 58681, Control_c, 0, 67, 84
1, 58711, Control_c, 0, 67, 84
1, 58726, Control_c, 0, 67, 83
1, 58792, Control_c, 0, 67, 83
1, 58837, Note_on_c, 0, 62, 79
1, 58849, Note_off_c, 0, 61, 60
1, 58876, Note_on_c, 0, 42, 47
1, 58896, Control_c, 0, 64, 90
1, 58911, Control_c, 0, 64, 66
1, 58926, Control_c, 0, 64, 0
1, 58926, Control_c, 0, 67, 83
1, 58940, Control_c, 0, 67, 84
1, 58952, Note_off_c, 0, 66, 39
1, 59000, Control_c, 0, 64, 64
1, 59015, Control_c, 0, 64, 74
1, 59029, Control_c, 0, 64, 90
1, 59044, Control_c, 0, 64, 127
1, 59103, Note_on_c, 0, 50, 54
1, 59137, Note_off_c, 0, 42, 40
1, 59245, Note_off_c, 0, 50, 36
1, 59263, Note_on_c, 0, 59, 56
1, 59319, Note_off_c, 0, 59, 53
1, 59341, Control_c, 0, 67, 84
1, 59385, Control_c, 0, 67, 85
1, 59395, Note_on_c, 0, 59, 51
1, 59415, Control_c, 0, 67, 85
1, 59470, Note_off_c, 0, 59, 58
1, 59474, Control_c, 0, 67, 86
1, 59510, Note_off_c, 0, 54, 56
1, 59527, Control_c, 0, 67, 86
1, 59546, Note_on_c, 0, 50, 55
1, 59571, Control_c, 0, 67, 87
1, 59600, Control_c, 0, 67, 87
1, 59615, Control_c, 0, 67, 89
1, 59623, Note_off_c, 0, 50, 52
1, 59630, Control_c, 0, 67, 91
1, 59645, Control_c, 0, 67, 92
1, 59659, Control_c, 0, 67, 92
1, 59675, Note_on_c, 0, 42, 49
1, 59704, Control_c, 0, 67, 93
1, 59723, Note_off_c, 0, 42, 57
1, 59823, Control_c, 0, 67, 93
1, 59825, Note_on_c, 0, 42, 48
1, 59882, Control_c, 0, 67, 94
1, 59912, Control_c, 0, 67, 94
1, 59927, Control_c, 0, 67, 96
1, 59942, Control_c, 0, 67, 97
1, 59957, Control_c, 0, 67, 98
1, 59972, Control_c, 0, 67, 100
1, 59985, Note_on_c, 0, 50, 45
1, 59987, Control_c, 0, 67, 101
1, 60001, Control_c, 0, 67, 102
1, 60016, Control_c, 0, 67, 104
1, 60031, Control_c, 0, 67, 105
1, 60046, Control_c, 0, 67, 106
1, 60061, Control_c, 0, 67, 107
1, 60075, Control_c, 0, 67, 108
1, 60085, Note_off_c, 0, 42, 31
1, 60090, Control_c, 0, 67, 108
1, 60105, Control_c, 0, 67, 109
1, 60135, Control_c, 0, 67, 109
1, 60158, Note_on_c, 0, 54, 50
1, 60181, Note_off_c, 0, 50, 37
1, 60236, Note_on_c, 0, 59, 72
1, 60237, Note_off_c, 0, 62, 59
1, 60309, Note_off_c, 0, 59, 58
1, 60358, Note_on_c, 0, 57, 66
1, 60372, Note_on_c, 0, 42, 50
1, 60395, Note_off_c, 0, 54, 37
1, 60409, Control_c, 0, 64, 92
1, 60424, Control_c, 0, 64, 71
1, 60439, Control_c, 0, 64, 50
1, 60454, Control_c, 0, 64, 51
1, 60469, Control_c, 0, 64, 63
1, 60483, Control_c, 0, 64, 68
1, 60498, Control_c, 0, 64, 75
1, 60513, Control_c, 0, 64, 85
1, 60528, Control_c, 0, 64, 107
1, 60543, Control_c, 0, 64, 127
1, 60592, Note_on_c, 0, 49, 51
1, 60723, Note_off_c, 0, 49, 54
1, 60732, Note_on_c, 0, 54, 50
1, 60774, Note_off_c, 0, 54, 59
1, 60854, Control_c, 0, 67, 110
1, 60869, Note_off_c, 0, 42, 30
1, 60872, Note_on_c, 0, 54, 48
1, 60884, Control_c, 0, 67, 110
1, 60914, Control_c, 0, 67, 111
1, 60944, Control_c, 0, 67, 111
1, 60959, Control_c, 0, 67, 112
1, 60973, Control_c, 0, 67, 115
1, 60988, Control_c, 0, 67, 117
1, 61010, Control_c, 0, 67, 119
1, 61025, Control_c, 0, 67, 120
1, 61030, Note_on_c, 0, 49, 46
1, 61039, Control_c, 0, 67, 121
1, 61054, Control_c, 0, 67, 122
1, 61069, Control_c, 0, 67, 123
1, 61084, Control_c, 0, 67, 124
1, 61099, Control_c, 0, 67, 124
1, 61114, Control_c, 0, 67, 125
1, 61118, Note_off_c, 0, 49, 52
1, 61128, Control_c, 0, 67, 125
1, 61176, Note_on_c, 0, 42, 44
1, 61214, Note_off_c, 0, 42, 54
1, 61247, Control_c, 0, 67, 126
1, 61331, Note_on_c, 0, 42, 40
1, 61336, Control_c, 0, 64, 90
1, 61351, Control_c, 0, 64, 72
1, 61365, Control_c, 0, 64, 65
1, 61365, Control_c, 0, 67, 126
1, 61377, Note_off_c, 0, 54, 40
1, 61380, Control_c, 0, 64, 68
1, 61395, Control_c, 0, 64, 74
1, 61410, Control_c, 0, 64, 83
1, 61425, Control_c, 0, 64, 97
1, 61439, Control_c, 0, 64, 127
1, 61515, Note_on_c, 0, 49, 46
1, 61608, Note_off_c, 0, 49, 46
1, 61614, Note_off_c, 0, 42, 25
1, 61730, Note_on_c, 0, 53, 38
1, 61808, Note_off_c, 0, 53, 54
1, 61829, Note_off_c, 0, 57, 52
1, 61829, Note_on_c, 0, 56, 62
1, 61919, Note_off_c, 0, 56, 52
1, 61969, Note_on_c, 0, 54, 61
1, 61995, Control_c, 0, 64, 90
1, 61997, Note_on_c, 0, 42, 42
1, 62010, Control_c, 0, 64, 70
1, 62025, Control_c, 0, 64, 44
1, 62040, Control_c, 0, 64, 31
1, 62054, Control_c, 0, 64, 60
1, 62069, Control_c, 0, 64, 68
1, 62084, Control_c, 0, 64, 77
1, 62099, Control_c, 0, 64, 91
1, 62114, Control_c, 0, 64, 126
1, 62128, Control_c, 0, 64, 127
1, 62233, Note_on_c, 0, 49, 45
1, 62260, Note_off_c, 0, 42, 43
1, 62292, Control_c, 0, 67, 126
1, 62379, Note_on_c, 0, 57, 44
1, 62422, Note_off_c, 0, 57, 58
1, 62425, Control_c, 0, 67, 125
1, 62447, Note_off_c, 0, 49, 25
1, 62550, Note_on_c, 0, 57, 40
1, 62700, Note_on_c, 0, 49, 44
1, 62709, Note_off_c, 0, 57, 33
1, 62844, Note_on_c, 0, 42, 45
1, 62850, Note_off_c, 0, 49, 32
1, 62885, Note_off_c, 0, 42, 57
1, 62944, Note_off_c, 0, 54, 45
1, 63003, Note_on_c, 0, 42, 40
1, 63054, Control_c, 0, 67, 126
1, 63085, Control_c, 0, 67, 126
1, 63152, Note_off_c, 0, 42, 43
1, 63159, Note_on_c, 0, 49, 43
1, 63328, Note_on_c, 0, 57, 41
1, 63330, Note_off_c, 0, 49, 0
1, 63388, Note_off_c, 0, 57, 55
1, 63420, Note_on_c, 0, 61, 63
1, 63457, Note_off_c, 0, 61, 61
1, 63462, Poly_aftertouch_c, 0, 49, 0
1, 63540, Note_on_c, 0, 61, 59
1, 63559, Note_on_c, 0, 42, 42
1, 63686, Control_c, 0, 67, 126
1, 63744, Control_c, 0, 67, 125
1, 63762, Note_on_c, 0, 49, 46
1, 63774, Control_c, 0, 67, 125
1, 63775, Note_off_c, 0, 42, 41
1, 63789, Control_c, 0, 67, 124
1, 63818, Control_c, 0, 67, 123
1, 63833, Control_c, 0, 67, 123
1, 63863, Control_c, 0, 67, 122
1, 63894, Control_c, 0, 67, 121
1, 63909, Note_on_c, 0, 57, 41
1, 63909, Control_c, 0, 67, 121
1, 63923, Control_c, 0, 67, 120
1, 63951, Note_off_c, 0, 57, 58
1, 63953, Control_c, 0, 67, 120
1, 63959, Note_off_c, 0, 49, 40
1, 63968, Control_c, 0, 67, 119
1, 64005, Control_c, 0, 67, 119
1, 64035, Control_c, 0, 67, 118
1, 64079, Note_on_c, 0, 57, 41
1, 64079, Control_c, 0, 67, 118
1, 64137, Control_c, 0, 67, 117
1, 64202, Note_off_c, 0, 57, 34
1, 64223, Note_on_c, 0, 49, 43
1, 64226, Control_c, 0, 67, 117
1, 64339, Note_off_c, 0, 49, 51
1, 64354, Note_on_c, 0, 42, 43
1, 64389, Control_c, 0, 67, 116
1, 64393, Note_off_c, 0, 42, 57
1, 64495, Note_on_c, 0, 42, 50
1, 64552, Control_c, 0, 67, 116
1, 64581, Control_c, 0, 67, 115
1, 64583, Note_off_c, 0, 42, 49
1, 64607, Note_on_c, 0, 49, 45
1, 64611, Control_c, 0, 67, 115
1, 64640, Control_c, 0, 67, 114
1, 64671, Control_c, 0, 67, 114
1, 64686, Control_c, 0, 67, 113
1, 64716, Control_c, 0, 67, 113
1, 64753, Control_c, 0, 67, 112
1, 64753, Note_on_c, 0, 57, 43
1, 64792, Note_off_c, 0, 57, 61
1, 64797, Control_c, 0, 67, 112
1, 64812, Control_c, 0, 67, 111
1, 64823, Note_on_c, 0, 66, 70
1, 64827, Control_c, 0, 67, 110
1, 64857, Control_c, 0, 67, 110
1, 64886, Control_c, 0, 67, 109
1, 64915, Note_on_c, 0, 68, 71
1, 64916, Note_off_c, 0, 49, 42
1, 64946, Control_c, 0, 64, 94
1, 64960, Control_c, 0, 64, 74
1, 64962, Note_on_c, 0, 42, 39
1, 64975, Control_c, 0, 64, 67
1, 64990, Control_c, 0, 64, 71
1, 65004, Control_c, 0, 64, 78
1, 65019, Control_c, 0, 64, 90
1, 65034, Control_c, 0, 64, 127
1, 65108, Control_c, 0, 67, 109
1, 65135, Note_on_c, 0, 49, 50
1, 65141, Note_off_c, 0, 42, 40
1, 65257, Note_off_c, 0, 49, 58
1, 65271, Control_c, 0, 67, 109
1, 65275, Note_on_c, 0, 59, 51
1, 65337, Note_off_c, 0, 59, 55
1, 65406, Note_on_c, 0, 59, 39
1, 65510, Note_off_c, 0, 59, 52
1, 65549, Note_on_c, 0, 49, 53
1, 65624, Note_off_c, 0, 49, 58
1, 65665, Note_on_c, 0, 42, 54
1, 65694, Note_off_c, 0, 42, 62
1, 65709, Control_c, 0, 67, 109
1, 65780, Note_on_c, 0, 42, 55
1, 65812, Note_on_c, 0, 65, 52
1, 65857, Control_c, 0, 67, 108
1, 65861, Note_off_c, 0, 65, 55
1, 65904, Note_off_c, 0, 66, 39
1, 65938, Note_on_c, 0, 49, 59
1, 66026, Note_off_c, 0, 61, 29
1, 66065, Note_off_c, 0, 42, 32
1, 66070, Note_on_c, 0, 56, 55
1, 66127, Note_on_c, 0, 61, 81
1, 66131, Note_off_c, 0, 49, 33
1, 66160, Note_off_c, 0, 56, 54
1, 66163, Note_off_c, 0, 61, 60
1, 66208, Note_on_c, 0, 61, 77
1, 66250, Note_on_c, 0, 42, 57
1, 66250, Control_c, 0, 64, 109
1, 66265, Control_c, 0, 64, 81
1, 66280, Control_c, 0, 64, 69
1, 66295, Control_c, 0, 67, 109
1, 66310, Control_c, 0, 64, 77
1, 66324, Control_c, 0, 64, 91
1, 66339, Control_c, 0, 64, 127
1, 66339, Control_c, 0, 67, 108
1, 66384, Control_c, 0, 67, 108
1, 66399, Control_c, 0, 67, 107
1, 66414, Control_c, 0, 67, 107
1, 66416, Note_on_c, 0, 49, 63
1, 66429, Control_c, 0, 67, 106
1, 66443, Control_c, 0, 67, 102
1, 66458, Control_c, 0, 67, 98
1, 66466, Note_off_c, 0, 42, 56
1, 66470, Note_off_c, 0, 68, 49
1, 66473, Control_c, 0, 67, 96
1, 66488, Control_c, 0, 67, 95
1, 66503, Control_c, 0, 67, 94
1, 66518, Control_c, 0, 67, 92
1, 66533, Control_c, 0, 67, 91
1, 66548, Control_c, 0, 67, 89
1, 66551, Note_on_c, 0, 57, 59
1, 66557, Note_off_c, 0, 49, 59
1, 66563, Control_c, 0, 67, 88
1, 66577, Control_c, 0, 67, 87
1, 66592, Control_c, 0, 67, 86
1, 66595, Note_off_c, 0, 57, 55
1, 66607, Control_c, 0, 67, 86
1, 66622, Control_c, 0, 67, 85
1, 66637, Control_c, 0, 67, 85
1, 66651, Control_c, 0, 67, 84
1, 66666, Control_c, 0, 67, 84
1, 66680, Note_on_c, 0, 57, 59
1, 66681, Control_c, 0, 67, 83
1, 66696, Control_c, 0, 67, 83
1, 66769, Control_c, 0, 67, 82
1, 66771, Note_off_c, 0, 57, 50
1, 66799, Note_on_c, 0, 49, 69
1, 66858, Control_c, 0, 67, 82
1, 66908, Note_off_c, 0, 49, 59
1, 66914, Note_on_c, 0, 42, 74
1, 66962, Note_off_c, 0, 42, 59
1, 66977, Control_c, 0, 67, 81
1, 67045, Note_on_c, 0, 42, 76
1, 67144, Note_off_c, 0, 42, 61
1, 67158, Note_on_c, 0, 49, 76
1, 67265, Note_on_c, 0, 57, 72
1, 67311, Control_c, 0, 67, 81
1, 67333, Note_on_c, 0, 69, 91
1, 67343, Note_off_c, 0, 57, 58
1, 67356, Control_c, 0, 67, 80
1, 67415, Control_c, 0, 67, 80
1, 67445, Control_c, 0, 67, 79
1, 67446, Note_on_c, 0, 71, 95
1, 67460, Control_c, 0, 67, 78
1, 67474, Control_c, 0, 67, 77
1, 67476, Note_on_c, 0, 42, 64
1, 67493, Note_off_c, 0, 49, 36
1, 67504, Control_c, 0, 67, 77
1, 67533, Control_c, 0, 64, 95
1, 67548, Control_c, 0, 64, 72
1, 67563, Control_c, 0, 64, 53
1, 67578, Control_c, 0, 64, 58
1, 67592, Control_c, 0, 64, 66
1, 67592, Control_c, 0, 67, 76
1, 67607, Control_c, 0, 64, 73
1, 67622, Control_c, 0, 64, 87
1, 67622, Control_c, 0, 67, 76
1, 67637, Control_c, 0, 64, 127
1, 67637, Control_c, 0, 67, 75
1, 67652, Control_c, 0, 67, 75
1, 67666, Control_c, 0, 67, 74
1, 67680, Note_on_c, 0, 49, 68
1, 67681, Control_c, 0, 67, 73
1, 67696, Control_c, 0, 67, 72
1, 67709, Note_off_c, 0, 42, 61
1, 67711, Control_c, 0, 67, 70
1, 67725, Control_c, 0, 67, 69
1, 67748, Control_c, 0, 67, 69
1, 67763, Control_c, 0, 67, 68
1, 67778, Control_c, 0, 67, 67
1, 67793, Control_c, 0, 67, 66
1, 67807, Control_c, 0, 67, 65
1, 67822, Control_c, 0, 67, 65
1, 67828, Note_on_c, 0, 59, 72
1, 67837, Control_c, 0, 67, 64
1, 67852, Control_c, 0, 67, 64
1, 67866, Note_off_c, 0, 49, 53
1, 67867, Control_c, 0, 67, 63
1, 67883, Control_c, 0, 67, 62
1, 67893, Note_off_c, 0, 59, 58
1, 67897, Control_c, 0, 67, 62
1, 67912, Control_c, 0, 67, 61
1, 67927, Control_c, 0, 67, 60
1, 67942, Control_c, 0, 67, 60
1, 67957, Control_c, 0, 67, 59
1, 67961, Note_on_c, 0, 59, 71
1, 67971, Control_c, 0, 67, 58
1, 68001, Control_c, 0, 67, 57
1, 68028, Note_off_c, 0, 59, 60
1, 68030, Control_c, 0, 67, 57
1, 68045, Control_c, 0, 67, 56
1, 68068, Note_on_c, 0, 49, 77
1, 68075, Control_c, 0, 67, 56
1, 68104, Control_c, 0, 67, 55
1, 68134, Control_c, 0, 67, 55
1, 68148, Control_c, 0, 67, 54
1, 68153, Note_off_c, 0, 49, 63
1, 68172, Note_on_c, 0, 42, 84
1, 68193, Control_c, 0, 67, 54
1, 68250, Note_off_c, 0, 42, 62
1, 68305, Note_on_c, 0, 42, 69
1, 68306, Note_on_c, 0, 68, 83
1, 68322, Note_off_c, 0, 69, 51
1, 68327, Control_c, 0, 67, 53
1, 68341, Control_c, 0, 67, 53
1, 68371, Control_c, 0, 67, 52
1, 68401, Control_c, 0, 67, 51
1, 68415, Control_c, 0, 67, 49
1, 68423, Note_on_c, 0, 49, 84
1, 68425, Note_off_c, 0, 61, 58
1, 68430, Control_c, 0, 67, 48
1, 68445, Control_c, 0, 67, 46
1, 68460, Control_c, 0, 67, 45
1, 68475, Control_c, 0, 67, 44
1, 68497, Control_c, 0, 67, 42
1, 68506, Note_off_c, 0, 68, 59
1, 68512, Control_c, 0, 67, 41
1, 68527, Control_c, 0, 67, 40
1, 68541, Note_on_c, 0, 56, 86
1, 68542, Control_c, 0, 67, 39
1, 68550, Poly_aftertouch_c, 0, 46, 127
1, 68556, Control_c, 0, 67, 38
1, 68571, Control_c, 0, 67, 38
1, 68586, Control_c, 0, 67, 37
1, 68591, Poly_aftertouch_c, 0, 46, 0
1, 68600, Control_c, 0, 67, 36
1, 68615, Control_c, 0, 67, 35
1, 68616, Note_on_c, 0, 61, 102
1, 68629, Control_c, 0, 67, 34
1, 68643, Note_off_c, 0, 42, 34
1, 68644, Control_c, 0, 67, 32
1, 68659, Control_c, 0, 67, 31
1, 68675, Control_c, 0, 67, 30
1, 68685, Note_off_c, 0, 56, 59
1, 68685, Note_off_c, 0, 61, 65
1, 68690, Control_c, 0, 67, 28
1, 68705, Control_c, 0, 67, 27
1, 68719, Control_c, 0, 67, 26
1, 68727, Note_off_c, 0, 49, 57
1, 68734, Control_c, 0, 67, 25
1, 68738, Note_on_c, 0, 61, 100
1, 68749, Note_on_c, 0, 42, 73
1, 68749, Control_c, 0, 67, 25
1, 68778, Control_c, 0, 64, 104
1, 68793, Control_c, 0, 64, 67
1, 68808, Control_c, 0, 64, 0
1, 68838, Control_c, 0, 67, 24
1, 68852, Control_c, 0, 64, 63
1, 68867, Control_c, 0, 64, 75
1, 68867, Control_c, 0, 67, 24
1, 68882, Control_c, 0, 64, 102
1, 68897, Control_c, 0, 64, 127
1, 68897, Control_c, 0, 67, 23
1, 68910, Note_on_c, 0, 49, 83
1, 68912, Control_c, 0, 67, 22
1, 68926, Control_c, 0, 67, 19
1, 68941, Control_c, 0, 67, 16
1, 68956, Control_c, 0, 67, 12
1, 68971, Control_c, 0, 67, 9
1, 68986, Control_c, 0, 67, 0
1, 68997, Note_off_c, 0, 42, 58
1, 69037, Note_on_c, 0, 57, 84
1, 69108, Note_off_c, 0, 57, 60
1, 69110, Note_off_c, 0, 49, 59
1, 69170, Note_on_c, 0, 57, 81
1, 69284, Note_on_c, 0, 49, 88
1, 69293, Note_off_c, 0, 57, 61
1, 69393, Note_off_c, 0, 49, 61
1, 69397, Note_off_c, 0, 71, 40
1, 69400, Note_on_c, 0, 42, 88
1, 69473, Note_off_c, 0, 42, 63
1, 69528, Note_on_c, 0, 42, 82
1, 69640, Note_on_c, 0, 49, 87
1, 69648, Note_off_c, 0, 42, 59
1, 69753, Note_on_c, 0, 57, 82
1, 69790, Note_on_c, 0, 73, 107
1, 69844, Note_off_c, 0, 57, 56
1, 70050, Note_on_c, 0, 74, 104
1, 70056, Note_on_c, 0, 42, 89
1, 70077, Note_off_c, 0, 49, 63
1, 70244, Note_on_c, 0, 49, 88
1, 70288, Note_off_c, 0, 42, 62
1, 70372, Note_on_c, 0, 59, 87
1, 70435, Note_off_c, 0, 59, 58
1, 70462, Note_off_c, 0, 49, 56
1, 70492, Note_on_c, 0, 59, 83
1, 70574, Note_off_c, 0, 59, 59
1, 70600, Note_on_c, 0, 49, 89
1, 70685, Note_off_c, 0, 49, 59
1, 70703, Note_on_c, 0, 42, 85
1, 70778, Note_off_c, 0, 42, 62
1, 70824, Note_on_c, 0, 71, 88
1, 70825, Note_on_c, 0, 42, 76
1, 70843, Note_off_c, 0, 74, 61
1, 70893, Note_off_c, 0, 73, 53
1, 70924, Note_off_c, 0, 71, 59
1, 70939, Note_on_c, 0, 49, 88
1, 71006, Note_off_c, 0, 61, 53
1, 71026, Note_off_c, 0, 42, 39
1, 71049, Note_on_c, 0, 56, 87
1, 71122, Note_on_c, 0, 61, 100
1, 71122, Note_on_c, 0, 73, 103
1, 71126, Note_on_c, 0, 69, 95
1, 71237, Note_off_c, 0, 61, 58
1, 71247, Note_off_c, 0, 49, 31
1, 71249, Note_off_c, 0, 73, 59
1, 71278, Note_off_c, 0, 69, 60
1, 71316, Note_on_c, 0, 73, 103
1, 71318, Note_on_c, 0, 69, 78
1, 71320, Note_on_c, 0, 61, 95
1, 71336, Note_on_c, 0, 42, 73
1, 71381, Control_c, 0, 64, 124
1, 71386, Note_off_c, 0, 56, 59
1, 71396, Control_c, 0, 64, 74
1, 71411, Control_c, 0, 64, 0
1, 71455, Control_c, 0, 64, 61
1, 71470, Control_c, 0, 64, 74
1, 71493, Control_c, 0, 64, 100
1, 71508, Control_c, 0, 64, 127
1, 71520, Note_on_c, 0, 49, 79
1, 71585, Note_off_c, 0, 42, 59
1, 71640, Note_on_c, 0, 57, 78
1, 71671, Note_off_c, 0, 49, 61
1, 71696, Note_off_c, 0, 57, 61
1, 71749, Note_on_c, 0, 57, 77
1, 71840, Note_off_c, 0, 57, 49
1, 71851, Note_on_c, 0, 49, 88
1, 71949, Note_off_c, 0, 49, 60
1, 71950, Note_on_c, 0, 42, 87
1, 72003, Note_off_c, 0, 61, 61
1, 72016, Note_off_c, 0, 69, 61
1, 72017, Note_off_c, 0, 42, 63
1, 72050, Note_off_c, 0, 73, 59
1, 72073, Note_on_c, 0, 42, 79
1, 72167, Note_on_c, 0, 49, 87
1, 72191, Note_off_c, 0, 42, 61
1, 72274, Note_on_c, 0, 56, 88
1, 72330, Note_on_c, 0, 77, 101
1, 72332, Note_on_c, 0, 65, 106
1, 72332, Note_on_c, 0, 71, 99
1, 72417, Note_off_c, 0, 56, 54
1, 72426, Note_off_c, 0, 65, 63
1, 72427, Note_off_c, 0, 77, 62
1, 72533, Note_off_c, 0, 49, 63
1, 72538, Note_on_c, 0, 69, 95
1, 72539, Note_on_c, 0, 78, 98
1, 72540, Note_on_c, 0, 66, 99
1, 72543, Note_on_c, 0, 42, 84
1, 72574, Note_off_c, 0, 71, 55
1, 72587, Note_on_c, 0, 75, 46
1, 72612, Note_off_c, 0, 75, 58
1, 72626, Control_c, 0, 64, 103
1, 72641, Control_c, 0, 64, 68
1, 72656, Control_c, 0, 64, 0
1, 72700, Control_c, 0, 64, 62
1, 72715, Control_c, 0, 64, 80
1, 72730, Control_c, 0, 64, 127
1, 72740, Note_on_c, 0, 49, 85
1, 72810, Note_off_c, 0, 42, 59
1, 72863, Note_on_c, 0, 57, 79
1, 72905, Note_off_c, 0, 49, 61
1, 72910, Note_off_c, 0, 57, 61
1, 72972, Note_on_c, 0, 57, 79
1, 73078, Note_off_c, 0, 57, 50
1, 73085, Note_on_c, 0, 49, 89
1, 73171, Note_off_c, 0, 49, 61
1, 73188, Note_on_c, 0, 42, 84
1, 73246, Note_off_c, 0, 42, 63
1, 73293, Note_off_c, 0, 78, 60
1, 73305, Note_off_c, 0, 69, 61
1, 73311, Note_on_c, 0, 42, 83
1, 73352, Note_off_c, 0, 66, 58
1, 73403, Note_on_c, 0, 49, 84
1, 73414, Note_off_c, 0, 42, 62
1, 73520, Note_on_c, 0, 57, 78
1, 73589, Note_on_c, 0, 61, 109
1, 73594, Note_off_c, 0, 57, 60
1, 73627, Note_off_c, 0, 61, 67
1, 73674, Note_on_c, 0, 61, 109
1, 73691, Note_on_c, 0, 42, 77
1, 73694, Note_off_c, 0, 49, 62
1, 73847, Note_on_c, 0, 49, 80
1, 73870, Note_off_c, 0, 42, 61
1, 73951, Note_off_c, 0, 49, 59
1, 73958, Note_on_c, 0, 57, 78
1, 74007, Note_off_c, 0, 57, 60
1, 74061, Note_on_c, 0, 57, 73
1, 74137, Note_off_c, 0, 57, 58
1, 74162, Note_on_c, 0, 49, 83
1, 74229, Note_off_c, 0, 49, 63
1, 74262, Note_on_c, 0, 42, 75
1, 74308, Note_off_c, 0, 42, 61
1, 74376, Note_on_c, 0, 42, 75
1, 74474, Note_on_c, 0, 49, 83
1, 74499, Note_off_c, 0, 42, 62
1, 74594, Note_on_c, 0, 56, 82
1, 74671, Note_on_c, 0, 65, 102
1, 74676, Note_on_c, 0, 59, 90
1, 74696, Note_off_c, 0, 56, 61
1, 74700, Note_off_c, 0, 61, 64
1, 74763, Note_off_c, 0, 59, 57
1, 74844, Note_off_c, 0, 49, 60
1, 74872, Note_on_c, 0, 42, 82
1, 74873, Note_on_c, 0, 66, 95
1, 74884, Note_on_c, 0, 57, 89
1, 74898, Note_off_c, 0, 65, 62
1, 74945, Control_c, 0, 64, 103
1, 74960, Control_c, 0, 64, 69
1, 74975, Control_c, 0, 64, 0
1, 75050, Control_c, 0, 64, 66
1, 75065, Control_c, 0, 64, 85
1, 75079, Control_c, 0, 64, 127
1, 75095, Note_on_c, 0, 49, 90
1, 75129, Note_off_c, 0, 57, 58
1, 75165, Note_off_c, 0, 42, 53
1, 75231, Note_on_c, 0, 57, 79
1, 75294, Note_off_c, 0, 57, 60
1, 75342, Note_off_c, 0, 49, 57
1, 75364, Note_on_c, 0, 57, 80
1, 75368, Note_on_c, 0, 54, 89
1, 75484, Note_on_c, 0, 61, 84
1, 75488, Note_on_c, 0, 49, 83
1, 75514, Note_off_c, 0, 57, 53
1, 75520, Note_off_c, 0, 54, 62
1, 75586, Note_off_c, 0, 49, 63
1, 75604, Note_on_c, 0, 42, 79
1, 75605, Note_on_c, 0, 69, 92
1, 75657, Note_off_c, 0, 66, 52
1, 75681, Note_off_c, 0, 42, 62
1, 75697, Note_off_c, 0, 69, 63
1, 75763, Note_on_c, 0, 69, 91
1, 75767, Note_on_c, 0, 42, 77
1, 75789, Note_off_c, 0, 61, 62
1, 75892, Note_on_c, 0, 49, 80
1, 75893, Note_on_c, 0, 61, 84
1, 75918, Note_off_c, 0, 42, 60
1, 76005, Note_on_c, 0, 54, 87
1, 76006, Note_on_c, 0, 57, 76
1, 76038, Note_off_c, 0, 61, 59
1, 76039, Note_off_c, 0, 49, 59
1, 76054, Note_off_c, 0, 54, 64
1, 76054, Note_off_c, 0, 57, 60
1, 76111, Note_on_c, 0, 57, 71
1, 76122, Note_on_c, 0, 54, 83
1, 76182, Note_off_c, 0, 57, 63
1, 76211, Note_on_c, 0, 49, 82
1, 76218, Note_on_c, 0, 61, 79
1, 76228, Note_off_c, 0, 54, 62
1, 76237, Note_off_c, 0, 69, 61
1, 76271, Note_off_c, 0, 49, 63
1, 76302, Note_on_c, 0, 42, 76
1, 76313, Note_on_c, 0, 69, 84
1, 76334, Note_off_c, 0, 61, 59
1, 76361, Note_off_c, 0, 42, 61
1, 76364, Note_off_c, 0, 69, 64
1, 76424, Note_on_c, 0, 42, 75
1, 76425, Note_on_c, 0, 69, 84
1, 76515, Note_on_c, 0, 49, 79
1, 76522, Note_on_c, 0, 61, 77
1, 76524, Note_off_c, 0, 42, 62
1, 76565, Note_off_c, 0, 69, 42
1, 76605, Note_on_c, 0, 57, 81
1, 76609, Note_on_c, 0, 54, 80
1, 76617, Note_off_c, 0, 49, 60
1, 76627, Note_off_c, 0, 61, 58
1, 76643, Note_off_c, 0, 54, 63
1, 76654, Note_off_c, 0, 57, 61
1, 76705, Note_on_c, 0, 57, 73
1, 76712, Note_on_c, 0, 54, 82
1, 76778, Note_off_c, 0, 57, 64
1, 76805, Note_on_c, 0, 49, 79
1, 76806, Note_on_c, 0, 61, 76
1, 76811, Note_off_c, 0, 54, 63
1, 76882, Note_off_c, 0, 49, 62
1, 76887, Note_on_c, 0, 42, 83
1, 76892, Note_on_c, 0, 69, 85
1, 76900, Note_off_c, 0, 61, 61
1, 76921, Note_on_c, 0, 68, 50
1, 76952, Note_off_c, 0, 68, 56
1, 76971, Note_on_c, 0, 49, 84
1, 76974, Note_on_c, 0, 61, 79
1, 76981, Note_off_c, 0, 69, 59
1, 76984, Note_off_c, 0, 42, 62
1, 77042, Note_off_c, 0, 49, 63
1, 77046, Note_on_c, 0, 57, 82
1, 77052, Note_on_c, 0, 54, 84
1, 77058, Note_off_c, 0, 61, 61
1, 77112, Note_off_c, 0, 57, 63
1, 77128, Note_on_c, 0, 61, 78
1, 77130, Note_on_c, 0, 49, 87
1, 77137, Note_off_c, 0, 54, 63
1, 77195, Note_off_c, 0, 49, 60
1, 77208, Note_on_c, 0, 42, 86
1, 77213, Note_on_c, 0, 69, 92
1, 77216, Note_off_c, 0, 61, 62
1, 77285, Note_on_c, 0, 49, 84
1, 77285, Note_on_c, 0, 61, 81
1, 77294, Poly_aftertouch_c, 0, 68, 127
1, 77297, Note_off_c, 0, 42, 62
1, 77299, Note_off_c, 0, 69, 58
1, 77327, Poly_aftertouch_c, 0, 68, 0
1, 77348, Note_off_c, 0, 49, 63
1, 77354, Note_on_c, 0, 57, 81
1, 77362, Note_off_c, 0, 61, 63
1, 77368, Note_on_c, 0, 54, 82
1, 77419, Note_off_c, 0, 57, 65
1, 77437, Note_on_c, 0, 49, 88
1, 77440, Note_on_c, 0, 61, 85
1, 77455, Note_off_c, 0, 54, 63
1, 77511, Note_off_c, 0, 49, 60
1, 77523, Note_on_c, 0, 42, 86
1, 77526, Note_off_c, 0, 61, 60
1, 77532, Note_on_c, 0, 69, 90
1, 77601, Note_on_c, 0, 49, 90
1, 77614, Note_on_c, 0, 61, 89
1, 77616, Note_off_c, 0, 69, 60
1, 77622, Note_off_c, 0, 42, 62
1, 77670, Note_off_c, 0, 49, 62
1, 77671, Note_on_c, 0, 57, 80
1, 77682, Note_off_c, 0, 61, 64
1, 77686, Note_on_c, 0, 54, 87
1, 77736, Note_off_c, 0, 57, 64
1, 77756, Note_on_c, 0, 49, 89
1, 77759, Note_on_c, 0, 61, 90
1, 77771, Note_off_c, 0, 54, 64
1, 77821, Note_off_c, 0, 49, 61
1, 77831, Note_off_c, 0, 61, 59
1, 77838, Note_on_c, 0, 42, 84
1, 77840, Note_on_c, 0, 69, 92
1, 77918, Note_on_c, 0, 49, 89
1, 77921, Note_on_c, 0, 61, 89
1, 77930, Note_off_c, 0, 69, 56
1, 77936, Note_off_c, 0, 42, 62
1, 77992, Note_off_c, 0, 49, 62
1, 77996, Note_off_c, 0, 61, 64
1, 77997, Note_on_c, 0, 57, 82
1, 77997, Note_on_c, 0, 54, 85
1, 78072, Note_off_c, 0, 57, 63
1, 78080, Note_on_c, 0, 61, 91
1, 78083, Note_on_c, 0, 49, 91
1, 78102, Note_off_c, 0, 54, 64
1, 78180, Note_off_c, 0, 49, 62
1, 78182, Note_on_c, 0, 42, 86
1, 78182, Note_off_c, 0, 61, 57
1, 78191, Note_on_c, 0, 69, 97
1, 78306, Note_on_c, 0, 49, 90
1, 78313, Note_on_c, 0, 61, 92
1, 78398, Note_off_c, 0, 42, 60
1, 78421, Note_on_c, 0, 57, 93
1, 78421, Note_on_c, 0, 54, 95
1, 78450, Note_off_c, 0, 69, 53
1, 78455, Note_off_c, 0, 57, 68
1, 78466, Note_off_c, 0, 49, 65
1, 78467, Note_off_c, 0, 54, 68
1, 78472, Note_off_c, 0, 61, 64
1, 78493, Poly_aftertouch_c, 0, 67, 127
1, 78527, Poly_aftertouch_c, 0, 67, 0
1, 78779, Control_c, 0, 67, 10
1, 78794, Control_c, 0, 67, 13
1, 78809, Control_c, 0, 67, 19
1, 78823, Control_c, 0, 67, 28
1, 78838, Control_c, 0, 67, 36
1, 78853, Control_c, 0, 67, 44
1, 78868, Control_c, 0, 67, 50
1, 78883, Control_c, 0, 67, 56
1, 78898, Control_c, 0, 67, 61
1, 78913, Control_c, 0, 67, 66
1, 78927, Control_c, 0, 67, 70
1, 78942, Control_c, 0, 67, 74
1, 78957, Control_c, 0, 67, 78
1, 78979, Control_c, 0, 67, 84
1, 78994, Control_c, 0, 67, 91
1, 79009, Control_c, 0, 67, 98
1, 79024, Control_c, 0, 67, 105
1, 79038, Control_c, 0, 67, 111
1, 79054, Control_c, 0, 67, 115
1, 79069, Control_c, 0, 67, 120
1, 79084, Control_c, 0, 67, 124
1, 79099, Control_c, 0, 67, 127
1, 79320, Note_on_c, 0, 73, 43
1, 79331, Note_on_c, 0, 37, 37
1, 79440, Control_c, 0, 64, 110
1, 79454, Control_c, 0, 64, 92
1, 79469, Control_c, 0, 64, 79
1, 79484, Control_c, 0, 64, 68
1, 79498, Control_c, 0, 64, 57
1, 79513, Control_c, 0, 64, 23
1, 79528, Control_c, 0, 64, 0
1, 80454, Control_c, 0, 64, 11
1, 80477, Control_c, 0, 64, 48
1, 80492, Control_c, 0, 64, 60
1, 80507, Control_c, 0, 64, 64
1, 80521, Control_c, 0, 64, 65
1, 80536, Control_c, 0, 64, 67
1, 80551, Control_c, 0, 64, 69
1, 80566, Control_c, 0, 64, 71
1, 80581, Control_c, 0, 64, 73
1, 80596, Control_c, 0, 64, 75
1, 80610, Control_c, 0, 64, 77
1, 80625, Control_c, 0, 64, 79
1, 80640, Control_c, 0, 64, 81
1, 80656, Control_c, 0, 64, 83
1, 80671, Control_c, 0, 64, 86
1, 80686, Control_c, 0, 64, 88
1, 80700, Control_c, 0, 64, 91
1, 80715, Control_c, 0, 64, 93
1, 80730, Control_c, 0, 64, 95
1, 80745, Control_c, 0, 64, 97
1, 80759, Control_c, 0, 64, 100
1, 80774, Control_c, 0, 64, 104
1, 80789, Control_c, 0, 64, 108
1, 80804, Control_c, 0, 64, 114
1, 80819, Control_c, 0, 64, 127
1, 81644, Note_on_c, 0, 30, 26
1, 81700, Note_off_c, 0, 37, 40
1, 82331, Control_c, 0, 64, 120
1, 82346, Control_c, 0, 64, 116
1, 82361, Control_c, 0, 64, 113
1, 82376, Control_c, 0, 64, 111
1, 82390, Control_c, 0, 64, 109
1, 82405, Control_c, 0, 64, 107
1, 82420, Control_c, 0, 64, 106
1, 82435, Control_c, 0, 64, 104
1, 82450, Control_c, 0, 64, 103
1, 82464, Control_c, 0, 64, 102
1, 82479, Control_c, 0, 64, 101
1, 82494, Control_c, 0, 64, 100
1, 82509, Control_c, 0, 64, 99
1, 82523, Control_c, 0, 64, 98
1, 82538, Control_c, 0, 64, 98
1, 82553, Control_c, 0, 64, 97
1, 82568, Control_c, 0, 64, 97
1, 82583, Control_c, 0, 64, 96
1, 82597, Control_c, 0, 64, 96
1, 82612, Control_c, 0, 64, 95
1, 82627, Control_c, 0, 64, 95
1, 82657, Control_c, 0, 64, 94
1, 82671, Control_c, 0, 64, 94
1, 82686, Control_c, 0, 64, 93
1, 82723, Control_c, 0, 64, 93
1, 82768, Control_c, 0, 64, 92
1, 82783, Control_c, 0, 64, 92
1, 82812, Control_c, 0, 64, 91
1, 82842, Control_c, 0, 64, 91
1, 82856, Control_c, 0, 64, 90
1, 82871, Control_c, 0, 64, 90
1, 82901, Control_c, 0, 64, 89
1, 82931, Control_c, 0, 64, 89
1, 82946, Control_c, 0, 64, 88
1, 82990, Control_c, 0, 64, 88
1, 83035, Control_c, 0, 64, 87
1, 83095, Control_c, 0, 64, 87
1, 83287, Control_c, 0, 64, 86
1, 83361, Control_c, 0, 64, 86
1, 83472, Control_c, 0, 64, 85
1, 83591, Control_c, 0, 64, 85
1, 83620, Control_c, 0, 64, 84
1, 83665, Control_c, 0, 64, 84
1, 83694, Control_c, 0, 64, 83
1, 83739, Control_c, 0, 64, 83
1, 83813, Control_c, 0, 64, 82
1, 83947, Control_c, 0, 64, 82
1, 84125, Control_c, 0, 64, 82
1, 84140, Control_c, 0, 64, 83
1, 84155, Control_c, 0, 64, 84
1, 84169, Control_c, 0, 64, 84
1, 84184, Control_c, 0, 64, 86
1, 84199, Control_c, 0, 64, 87
1, 84221, Control_c, 0, 64, 88
1, 84236, Control_c, 0, 64, 89
1, 84251, Control_c, 0, 64, 90
1, 84295, Control_c, 0, 64, 91
1, 84355, Control_c, 0, 64, 91
1, 84369, Control_c, 0, 64, 92
1, 84384, Control_c, 0, 64, 92
1, 84399, Control_c, 0, 64, 93
1, 84414, Control_c, 0, 64, 93
1, 84948, Control_c, 0, 64, 94
1, 84970, Control_c, 0, 64, 95
1, 84985, Control_c, 0, 64, 97
1, 85000, Control_c, 0, 64, 99
1, 85014, Control_c, 0, 64, 101
1, 85029, Control_c, 0, 64, 102
1, 85044, Control_c, 0, 64, 103
1, 85059, Control_c, 0, 64, 104
1, 85074, Control_c, 0, 64, 106
1, 85089, Control_c, 0, 64, 107
1, 85104, Control_c, 0, 64, 108
1, 85118, Control_c, 0, 64, 109
1, 85148, Control_c, 0, 64, 110
1, 85165, Note_off_c, 0, 30, 37
1, 85299, Note_off_c, 0, 73, 42
1, 85563, Control_c, 0, 64, 109
1, 85593, Control_c, 0, 64, 109
1, 85608, Control_c, 0, 64, 108
1, 85623, Control_c, 0, 64, 108
1, 85637, Control_c, 0, 64, 107
1, 85652, Control_c, 0, 64, 106
1, 85667, Control_c, 0, 64, 106
1, 85682, Control_c, 0, 64, 105
1, 85697, Control_c, 0, 64, 104
1, 85719, Control_c, 0, 64, 103
1, 85748, Control_c, 0, 64, 103
1, 85763, Control_c, 0, 64, 102
1, 85778, Control_c, 0, 64, 100
1, 85793, Control_c, 0, 64, 99
1, 85808, Control_c, 0, 64, 96
1, 85823, Control_c, 0, 64, 92
1, 85838, Control_c, 0, 64, 85
1, 85853, Control_c, 0, 64, 77
1, 85867, Control_c, 0, 64, 68
1, 85882, Control_c, 0, 64, 62
1, 85897, Control_c, 0, 64, 57
1, 85912, Control_c, 0, 64, 56
1, 85986, Control_c, 0, 64, 57
1, 86001, Control_c, 0, 64, 57
1, 86075, Control_c, 0, 64, 55
1, 86076, Note_on_c, 0, 44, 61
1, 86090, Control_c, 0, 64, 44
1, 86105, Control_c, 0, 64, 0
1, 86111, Note_off_c, 0, 44, 63
1, 86271, Note_on_c, 0, 37, 64
1, 86298, Note_off_c, 0, 37, 62
1, 86446, Note_on_c, 0, 44, 61
1, 86479, Note_off_c, 0, 44, 62
1, 86642, Note_on_c, 0, 37, 57
1, 86642, Poly_aftertouch_c, 0, 79, 127
1, 86669, Note_off_c, 0, 37, 57
1, 86820, Note_on_c, 0, 44, 59
1, 86835, Poly_aftertouch_c, 0, 79, 0
1, 86845, Note_off_c, 0, 44, 59
1, 87008, Note_on_c, 0, 37, 72
1, 87016, Control_c, 0, 64, 48
1, 87032, Control_c, 0, 64, 61
1, 87047, Control_c, 0, 64, 65
1, 87062, Control_c, 0, 64, 66
1, 87121, Control_c, 0, 64, 65
1, 87136, Control_c, 0, 64, 65
1, 87151, Control_c, 0, 64, 64
1, 87166, Control_c, 0, 64, 64
1, 87181, Control_c, 0, 64, 63
1, 87195, Control_c, 0, 64, 62
1, 87217, Control_c, 0, 64, 61
1, 87232, Control_c, 0, 64, 58
1, 87247, Control_c, 0, 64, 54
1, 87258, Note_off_c, 0, 37, 60
1, 87262, Control_c, 0, 64, 49
1, 87272, Note_on_c, 0, 38, 68
1, 87277, Control_c, 0, 64, 42
1, 87292, Control_c, 0, 64, 34
1, 87307, Control_c, 0, 64, 23
1, 87319, Control_c, 0, 64, 0
1, 87332, Note_off_c, 0, 38, 62
1, 87333, Note_on_c, 0, 37, 72
1, 87453, Control_c, 0, 67, 125
1, 87468, Control_c, 0, 67, 124
1, 87483, Control_c, 0, 67, 122
1, 87498, Control_c, 0, 67, 121
1, 87512, Control_c, 0, 67, 119
1, 87527, Control_c, 0, 67, 118
1, 87531, Note_on_c, 0, 61, 65
1, 87532, Note_on_c, 0, 66, 76
1, 87536, Note_on_c, 0, 57, 62
1, 87542, Control_c, 0, 67, 117
1, 87557, Control_c, 0, 67, 114
1, 87572, Control_c, 0, 67, 111
1, 87586, Control_c, 0, 67, 106
1, 87595, Note_on_c, 0, 68, 78
1, 87601, Control_c, 0, 67, 101
1, 87616, Control_c, 0, 67, 96
1, 87631, Control_c, 0, 64, 44
1, 87631, Control_c, 0, 67, 92
1, 87643, Note_off_c, 0, 66, 62
1, 87645, Control_c, 0, 64, 66
1, 87645, Control_c, 0, 67, 89
1, 87649, Note_on_c, 0, 69, 86
1, 87660, Control_c, 0, 64, 73
1, 87660, Control_c, 0, 67, 87
1, 87675, Control_c, 0, 64, 81
1, 87675, Control_c, 0, 67, 85
1, 87676, Note_off_c, 0, 68, 64
1, 87679, Note_off_c, 0, 57, 62
1, 87685, Note_off_c, 0, 61, 63
1, 87690, Control_c, 0, 64, 89
1, 87690, Control_c, 0, 67, 82
1, 87697, Note_off_c, 0, 69, 64
1, 87705, Control_c, 0, 64, 95
1, 87705, Control_c, 0, 67, 80
1, 87719, Control_c, 0, 64, 99
1, 87719, Control_c, 0, 67, 78
1, 87734, Control_c, 0, 64, 99
1, 87734, Control_c, 0, 67, 77
1, 87749, Control_c, 0, 67, 76
1, 87793, Control_c, 0, 64, 99
1, 87808, Control_c, 0, 64, 92
1, 87808, Control_c, 0, 67, 77
1, 87812, Note_on_c, 0, 69, 72
1, 87814, Note_on_c, 0, 61, 70
1, 87823, Control_c, 0, 64, 80
1, 87823, Control_c, 0, 67, 78
1, 87837, Note_on_c, 0, 57, 46
1, 87839, Control_c, 0, 64, 65
1, 87839, Control_c, 0, 67, 79
1, 87853, Control_c, 0, 64, 0
1, 87853, Control_c, 0, 67, 79
1, 87868, Control_c, 0, 67, 80
1, 87883, Note_on_c, 0, 68, 72
1, 87883, Control_c, 0, 67, 80
1, 87898, Control_c, 0, 67, 81
1, 87913, Control_c, 0, 67, 81
1, 87924, Note_off_c, 0, 69, 54
1, 87942, Control_c, 0, 67, 82
1, 87948, Note_on_c, 0, 66, 77
1, 87965, Control_c, 0, 64, 61
1, 87973, Note_off_c, 0, 61, 62
1, 87980, Control_c, 0, 64, 72
1, 87980, Control_c, 0, 67, 82
1, 87984, Note_off_c, 0, 68, 62
1, 87988, Note_off_c, 0, 57, 58
1, 87995, Control_c, 0, 64, 85
1, 88009, Note_off_c, 0, 66, 64
1, 88009, Control_c, 0, 64, 98
1, 88009, Control_c, 0, 67, 83
1, 88024, Control_c, 0, 64, 109
1, 88039, Control_c, 0, 64, 114
1, 88039, Control_c, 0, 67, 83
1, 88054, Control_c, 0, 67, 84
1, 88068, Control_c, 0, 67, 84
1, 88083, Control_c, 0, 64, 112
1, 88083, Control_c, 0, 67, 85
1, 88098, Control_c, 0, 64, 101
1, 88098, Control_c, 0, 67, 86
1, 88113, Control_c, 0, 64, 86
1, 88113, Control_c, 0, 67, 87
1, 88121, Note_on_c, 0, 66, 71
1, 88128, Control_c, 0, 64, 70
1, 88128, Control_c, 0, 67, 88
1, 88142, Control_c, 0, 64, 0
1, 88142, Control_c, 0, 67, 89
1, 88156, Note_on_c, 0, 57, 26
1, 88157, Control_c, 0, 67, 90
1, 88171, Note_on_c, 0, 61, 35
1, 88172, Control_c, 0, 67, 91
1, 88187, Control_c, 0, 67, 91
1, 88202, Note_on_c, 0, 64, 65
1, 88202, Note_off_c, 0, 66, 56
1, 88202, Control_c, 0, 67, 92
1, 88216, Control_c, 0, 67, 92
1, 88231, Control_c, 0, 67, 93
1, 88246, Control_c, 0, 67, 93
1, 88261, Control_c, 0, 67, 94
1, 88267, Note_on_c, 0, 63, 70
1, 88276, Control_c, 0, 64, 65
1, 88276, Control_c, 0, 67, 96
1, 88279, Note_off_c, 0, 64, 59
1, 88290, Control_c, 0, 64, 74
1, 88290, Control_c, 0, 67, 97
1, 88305, Control_c, 0, 64, 85
1, 88305, Control_c, 0, 67, 99
1, 88311, Note_off_c, 0, 37, 60
1, 88320, Note_off_c, 0, 61, 42
1, 88320, Control_c, 0, 64, 96
1, 88320, Control_c, 0, 67, 100
1, 88332, Note_off_c, 0, 57, 42
1, 88335, Control_c, 0, 64, 103
1, 88335, Control_c, 0, 67, 101
1, 88336, Note_off_c, 0, 63, 60
1, 88350, Control_c, 0, 64, 105
1, 88350, Control_c, 0, 67, 102
1, 88380, Control_c, 0, 64, 104
1, 88380, Control_c, 0, 67, 102
1, 88395, Control_c, 0, 67, 103
1, 88409, Control_c, 0, 67, 103
1, 88424, Control_c, 0, 64, 101
1, 88424, Control_c, 0, 67, 104
1, 88439, Control_c, 0, 64, 98
1, 88439, Control_c, 0, 67, 105
1, 88441, Note_on_c, 0, 37, 61
1, 88443, Note_on_c, 0, 63, 64
1, 88446, Note_on_c, 0, 61, 48
1, 88448, Note_on_c, 0, 57, 41
1, 88454, Control_c, 0, 64, 93
1, 88454, Control_c, 0, 67, 107
1, 88468, Control_c, 0, 64, 87
1, 88468, Control_c, 0, 67, 109
1, 88483, Control_c, 0, 64, 83
1, 88483, Control_c, 0, 67, 110
1, 88498, Control_c, 0, 64, 81
1, 88498, Control_c, 0, 67, 110
1, 88507, Note_on_c, 0, 39, 67
1, 88513, Control_c, 0, 67, 111
1, 88540, Note_off_c, 0, 37, 61
1, 88542, Control_c, 0, 64, 81
1, 88542, Control_c, 0, 67, 111
1, 88543, Note_off_c, 0, 63, 59
1, 88553, Note_off_c, 0, 61, 61
1, 88575, Note_on_c, 0, 40, 76
1, 88602, Note_off_c, 0, 39, 60
1, 88612, Note_off_c, 0, 57, 34
1, 88639, Note_off_c, 0, 40, 65
1, 88642, Note_on_c, 0, 41, 82
1, 88720, Note_on_c, 0, 57, 72
1, 88726, Note_on_c, 0, 42, 81
1, 88729, Control_c, 0, 64, 80
1, 88735, Note_on_c, 0, 63, 70
1, 88741, Note_off_c, 0, 41, 62
1, 88744, Control_c, 0, 64, 76
1, 88744, Control_c, 0, 67, 111
1, 88746, Note_on_c, 0, 61, 67
1, 88749, Note_on_c, 0, 43, 75
1, 88758, Control_c, 0, 64, 68
1, 88773, Control_c, 0, 64, 59
1, 88773, Control_c, 0, 67, 110
1, 88779, Note_off_c, 0, 57, 61
1, 88785, Note_on_c, 0, 56, 80
1, 88788, Control_c, 0, 64, 0
1, 88794, Note_on_c, 0, 44, 74
1, 88806, Note_off_c, 0, 42, 62
1, 88814, Note_off_c, 0, 43, 63
1, 88827, Note_on_c, 0, 45, 68
1, 88833, Control_c, 0, 67, 110
1, 88860, Note_off_c, 0, 56, 66
1, 88865, Note_off_c, 0, 63, 0
1, 88871, Note_on_c, 0, 54, 86
1, 88877, Note_off_c, 0, 44, 63
1, 88881, Note_off_c, 0, 61, 39
1, 88892, Control_c, 0, 67, 110
1, 88902, Note_off_c, 0, 54, 64
1, 88902, Poly_aftertouch_c, 0, 63, 127
1, 88907, Control_c, 0, 67, 111
1, 88909, Note_off_c, 0, 45, 68
1, 88910, Note_on_c, 0, 47, 18
1, 88911, Note_off_c, 0, 47, 127
1, 88943, Poly_aftertouch_c, 0, 63, 0
1, 89010, Control_c, 0, 67, 111
1, 89025, Control_c, 0, 67, 112
1, 89039, Note_on_c, 0, 45, 70
1, 89040, Control_c, 0, 67, 113
1, 89044, Note_on_c, 0, 54, 68
1, 89055, Control_c, 0, 67, 114
1, 89057, Note_on_c, 0, 63, 50
1, 89070, Control_c, 0, 67, 118
1, 89084, Control_c, 0, 67, 123
1, 89087, Note_off_c, 0, 54, 58
1, 89095, Note_off_c, 0, 45, 58
1, 89099, Note_on_c, 0, 61, 19
1, 89099, Control_c, 0, 67, 127
1, 89110, Note_on_c, 0, 44, 70
1, 89113, Note_on_c, 0, 56, 70
1, 89114, Control_c, 0, 67, 127
1, 89171, Note_off_c, 0, 56, 63
1, 89173, Note_off_c, 0, 44, 63
1, 89176, Note_on_c, 0, 42, 69
1, 89183, Note_on_c, 0, 57, 74
1, 89205, Note_off_c, 0, 42, 65
1, 89209, Note_off_c, 0, 57, 68
1, 89227, Note_off_c, 0, 63, 57
1, 89242, Note_off_c, 0, 61, 41
1, 89329, Note_on_c, 0, 42, 59
1, 89337, Note_on_c, 0, 57, 61
1, 89347, Note_on_c, 0, 63, 53
1, 89381, Note_off_c, 0, 57, 56
1, 89384, Note_on_c, 0, 61, 15
1, 89401, Note_on_c, 0, 56, 67
1, 89403, Note_off_c, 0, 42, 62
1, 89408, Note_on_c, 0, 40, 61
1, 89467, Note_off_c, 0, 56, 63
1, 89473, Note_off_c, 0, 40, 59
1, 89494, Note_on_c, 0, 39, 60
1, 89494, Note_on_c, 0, 55, 55
1, 89512, Note_off_c, 0, 63, 61
1, 89516, Note_off_c, 0, 55, 60
1, 89519, Note_off_c, 0, 61, 51
1, 89525, Note_off_c, 0, 39, 62
1, 89677, Note_on_c, 0, 55, 50
1, 89680, Note_on_c, 0, 39, 46
1, 89683, Note_on_c, 0, 63, 52
1, 89685, Control_c, 0, 64, 49
1, 89693, Note_on_c, 0, 61, 23
1, 89700, Control_c, 0, 64, 68
1, 89706, Note_off_c, 0, 55, 65
1, 89714, Control_c, 0, 64, 79
1, 89717, Note_off_c, 0, 39, 61
1, 89717, Note_off_c, 0, 63, 65
1, 89724, Note_off_c, 0, 61, 46
1, 89729, Control_c, 0, 64, 92
1, 89744, Control_c, 0, 64, 108
1, 89759, Control_c, 0, 64, 127
1, 89788, Control_c, 0, 67, 126
1, 89803, Control_c, 0, 67, 125
1, 89818, Control_c, 0, 67, 124
1, 89832, Control_c, 0, 67, 124
1, 89847, Control_c, 0, 67, 123
1, 89877, Control_c, 0, 67, 123
1, 89906, Control_c, 0, 67, 122
1, 89921, Control_c, 0, 67, 122
1, 89966, Control_c, 0, 67, 122
1, 89979, Note_on_c, 0, 68, 76
1, 89981, Control_c, 0, 67, 123
1, 89984, Note_on_c, 0, 39, 53
1, 89987, Note_on_c, 0, 59, 59
1, 89987, Note_on_c, 0, 63, 62
1, 89996, Control_c, 0, 64, 108
1, 89996, Control_c, 0, 67, 123
1, 90010, Control_c, 0, 64, 85
1, 90010, Control_c, 0, 67, 124
1, 90025, Control_c, 0, 64, 67
1, 90040, Control_c, 0, 64, 0
1, 90043, Note_on_c, 0, 70, 82
1, 90055, Control_c, 0, 67, 123
1, 90070, Control_c, 0, 67, 123
1, 90100, Control_c, 0, 67, 122
1, 90106, Note_off_c, 0, 68, 62
1, 90114, Control_c, 0, 67, 122
1, 90115, Note_on_c, 0, 71, 88
1, 90148, Note_off_c, 0, 70, 64
1, 90159, Control_c, 0, 64, 66
1, 90174, Control_c, 0, 64, 77
1, 90188, Control_c, 0, 64, 88
1, 90198, Note_off_c, 0, 39, 51
1, 90210, Control_c, 0, 64, 100
1, 90213, Note_off_c, 0, 71, 62
1, 90218, Note_off_c, 0, 59, 57
1, 90225, Control_c, 0, 64, 110
1, 90237, Note_off_c, 0, 63, 59
1, 90241, Control_c, 0, 64, 116
1, 90241, Control_c, 0, 67, 122
1, 90256, Control_c, 0, 64, 117
1, 90270, Control_c, 0, 67, 123
1, 90285, Control_c, 0, 64, 116
1, 90285, Control_c, 0, 67, 124
1, 90300, Control_c, 0, 64, 113
1, 90300, Control_c, 0, 67, 125
1, 90310, Note_on_c, 0, 71, 78
1, 90314, Note_on_c, 0, 63, 62
1, 90315, Note_on_c, 0, 39, 55
1, 90315, Control_c, 0, 64, 97
1, 90315, Control_c, 0, 67, 126
1, 90326, Note_on_c, 0, 59, 59
1, 90330, Control_c, 0, 64, 78
1, 90330, Control_c, 0, 67, 127
1, 90344, Control_c, 0, 64, 54
1, 90344, Control_c, 0, 67, 127
1, 90359, Control_c, 0, 64, 0
1, 90381, Note_on_c, 0, 70, 74
1, 90424, Note_off_c, 0, 71, 55
1, 90446, Note_on_c, 0, 68, 75
1, 90449, Control_c, 0, 64, 26
1, 90463, Control_c, 0, 64, 68
1, 90478, Control_c, 0, 64, 77
1, 90482, Note_off_c, 0, 63, 56
1, 90484, Note_off_c, 0, 70, 62
1, 90493, Control_c, 0, 64, 87
1, 90508, Control_c, 0, 64, 99
1, 90517, Note_off_c, 0, 59, 52
1, 90519, Note_off_c, 0, 68, 61
1, 90523, Control_c, 0, 64, 107
1, 90536, Note_off_c, 0, 39, 52
1, 90537, Control_c, 0, 64, 109
1, 90611, Control_c, 0, 64, 107
1, 90625, Note_on_c, 0, 68, 68
1, 90626, Control_c, 0, 64, 96
1, 90634, Note_on_c, 0, 63, 45
1, 90636, Note_on_c, 0, 59, 50
1, 90641, Control_c, 0, 64, 80
1, 90651, Note_on_c, 0, 39, 44
1, 90655, Control_c, 0, 64, 57
1, 90670, Control_c, 0, 64, 0
1, 90699, Note_on_c, 0, 67, 66
1, 90699, Note_off_c, 0, 68, 57
1, 90777, Note_on_c, 0, 66, 65
1, 90780, Note_off_c, 0, 67, 57
1, 90818, Control_c, 0, 64, 46
1, 90830, Note_off_c, 0, 63, 38
1, 90833, Control_c, 0, 64, 65
1, 90848, Control_c, 0, 64, 74
1, 90863, Control_c, 0, 64, 84
1, 90878, Control_c, 0, 64, 97
1, 90893, Control_c, 0, 64, 109
1, 90897, Note_off_c, 0, 59, 42
1, 90897, Note_off_c, 0, 66, 61
1, 90908, Control_c, 0, 64, 117
1, 90913, Note_off_c, 0, 39, 56
1, 90923, Control_c, 0, 64, 118
1, 90974, Control_c, 0, 64, 110
1, 90988, Control_c, 0, 64, 90
1, 91000, Note_on_c, 0, 39, 42
1, 91003, Note_on_c, 0, 63, 49
1, 91003, Control_c, 0, 64, 70
1, 91009, Note_on_c, 0, 66, 45
1, 91013, Note_on_c, 0, 59, 41
1, 91018, Control_c, 0, 64, 0
1, 91064, Control_c, 0, 64, 59
1, 91079, Control_c, 0, 64, 71
1, 91093, Control_c, 0, 64, 83
1, 91108, Control_c, 0, 64, 101
1, 91123, Control_c, 0, 64, 127
1, 91197, Note_off_c, 0, 39, 41
1, 91203, Note_off_c, 0, 59, 49
1, 91207, Note_off_c, 0, 66, 50
1, 91209, Note_off_c, 0, 63, 54
1, 91301, Control_c, 0, 64, 108
1, 91307, Note_on_c, 0, 39, 71
1, 91316, Control_c, 0, 64, 81
1, 91324, Note_on_c, 0, 66, 60
1, 91330, Note_on_c, 0, 59, 47
1, 91331, Note_on_c, 0, 63, 51
1, 91331, Control_c, 0, 64, 63
1, 91346, Control_c, 0, 64, 0
1, 91375, Note_on_c, 0, 40, 77
1, 91385, Note_off_c, 0, 39, 53
1, 91426, Note_off_c, 0, 59, 51
1, 91426, Note_off_c, 0, 66, 55
1, 91432, Note_off_c, 0, 40, 63
1, 91432, Note_off_c, 0, 63, 55
1, 91439, Note_on_c, 0, 42, 81
1, 91475, Note_off_c, 0, 42, 63
1, 91613, Note_on_c, 0, 42, 67
1, 91629, Note_on_c, 0, 66, 57
1, 91630, Note_on_c, 0, 63, 51
1, 91638, Note_on_c, 0, 59, 43
1, 91674, Note_off_c, 0, 42, 63
1, 91683, Note_on_c, 0, 40, 66
1, 91709, Note_off_c, 0, 59, 48
1, 91737, Note_off_c, 0, 66, 50
1, 91752, Note_off_c, 0, 63, 43
1, 91763, Note_on_c, 0, 39, 70
1, 91763, Note_off_c, 0, 40, 62
1, 91794, Note_off_c, 0, 39, 65
1, 91924, Note_on_c, 0, 39, 57
1, 91942, Note_on_c, 0, 66, 59
1, 91945, Note_on_c, 0, 63, 60
1, 91947, Note_on_c, 0, 59, 47
1, 91974, Note_off_c, 0, 59, 56
1, 91985, Note_off_c, 0, 39, 59
1, 91987, Note_off_c, 0, 63, 57
1, 92006, Note_on_c, 0, 37, 59
1, 92018, Note_off_c, 0, 66, 61
1, 92049, Note_off_c, 0, 37, 64
1, 92075, Note_on_c, 0, 35, 55
1, 92106, Note_off_c, 0, 35, 65
1, 92272, Control_c, 0, 64, 63
1, 92285, Note_on_c, 0, 35, 43
1, 92287, Note_on_c, 0, 66, 54
1, 92287, Control_c, 0, 64, 69
1, 92291, Note_on_c, 0, 62, 47
1, 92301, Control_c, 0, 64, 75
1, 92316, Control_c, 0, 64, 84
1, 92331, Control_c, 0, 64, 95
1, 92331, Control_c, 0, 67, 127
1, 92346, Control_c, 0, 64, 107
1, 92346, Control_c, 0, 67, 125
1, 92361, Control_c, 0, 64, 127
1, 92361, Control_c, 0, 67, 124
1, 92371, Note_off_c, 0, 35, 50
1, 92375, Control_c, 0, 67, 123
1, 92390, Control_c, 0, 67, 122
1, 92405, Control_c, 0, 67, 121
1, 92410, Note_off_c, 0, 62, 33
1, 92417, Note_off_c, 0, 66, 29
1, 92419, Control_c, 0, 67, 121
1, 92434, Control_c, 0, 67, 120
1, 92472, Control_c, 0, 67, 119
1, 92487, Control_c, 0, 67, 118
1, 92501, Control_c, 0, 67, 116
1, 92516, Control_c, 0, 67, 114
1, 92531, Control_c, 0, 67, 113
1, 92546, Control_c, 0, 67, 113
1, 92562, Control_c, 0, 67, 112
1, 92591, Note_on_c, 0, 71, 74
1, 92591, Control_c, 0, 67, 111
1, 92598, Note_on_c, 0, 35, 46
1, 92606, Control_c, 0, 67, 110
1, 92613, Note_on_c, 0, 66, 55
1, 92616, Note_on_c, 0, 62, 51
1, 92621, Control_c, 0, 64, 96
1, 92621, Control_c, 0, 67, 109
1, 92637, Control_c, 0, 64, 74
1, 92637, Control_c, 0, 67, 107
1, 92651, Control_c, 0, 64, 0
1, 92651, Control_c, 0, 67, 105
1, 92655, Note_on_c, 0, 73, 83
1, 92666, Control_c, 0, 67, 104
1, 92681, Control_c, 0, 67, 102
1, 92696, Control_c, 0, 67, 101
1, 92711, Note_off_c, 0, 71, 56
1, 92711, Control_c, 0, 67, 98
1, 92726, Control_c, 0, 67, 96
1, 92728, Note_on_c, 0, 74, 92
1, 92740, Control_c, 0, 67, 94
1, 92755, Control_c, 0, 64, 61
1, 92755, Control_c, 0, 67, 92
1, 92764, Note_off_c, 0, 73, 64
1, 92770, Control_c, 0, 64, 73
1, 92770, Control_c, 0, 67, 90
1, 92785, Control_c, 0, 64, 86
1, 92785, Control_c, 0, 67, 89
1, 92800, Control_c, 0, 64, 105
1, 92800, Control_c, 0, 67, 88
1, 92814, Control_c, 0, 64, 127
1, 92814, Control_c, 0, 67, 88
1, 92829, Control_c, 0, 67, 87
1, 92833, Note_off_c, 0, 74, 64
1, 92842, Note_off_c, 0, 66, 62
1, 92844, Control_c, 0, 67, 87
1, 92846, Note_off_c, 0, 62, 58
1, 92848, Note_off_c, 0, 35, 43
1, 92873, Control_c, 0, 67, 87
1, 92888, Control_c, 0, 67, 88
1, 92903, Control_c, 0, 67, 89
1, 92910, Note_on_c, 0, 35, 44
1, 92918, Control_c, 0, 67, 90
1, 92920, Note_on_c, 0, 74, 86
1, 92927, Note_on_c, 0, 66, 59
1, 92932, Control_c, 0, 64, 89
1, 92932, Control_c, 0, 67, 92
1, 92947, Control_c, 0, 64, 70
1, 92947, Control_c, 0, 67, 92
1, 92948, Note_on_c, 0, 62, 41
1, 92962, Control_c, 0, 64, 0
1, 92962, Control_c, 0, 67, 93
1, 92977, Control_c, 0, 67, 94
1, 92985, Note_on_c, 0, 73, 86
1, 92992, Control_c, 0, 67, 94
1, 93006, Control_c, 0, 67, 95
1, 93007, Note_off_c, 0, 66, 44
1, 93021, Control_c, 0, 67, 95
1, 93024, Note_off_c, 0, 62, 57
1, 93036, Control_c, 0, 67, 96
1, 93039, Note_off_c, 0, 74, 60
1, 93051, Control_c, 0, 64, 24
1, 93051, Control_c, 0, 67, 96
1, 93066, Control_c, 0, 64, 67
1, 93066, Control_c, 0, 67, 97
1, 93067, Note_on_c, 0, 71, 84
1, 93081, Control_c, 0, 64, 79
1, 93096, Control_c, 0, 64, 93
1, 93107, Note_off_c, 0, 73, 62
1, 93111, Control_c, 0, 64, 110
1, 93125, Control_c, 0, 64, 127
1, 93148, Note_off_c, 0, 71, 64
1, 93193, Note_off_c, 0, 35, 0
1, 93206, Control_c, 0, 67, 97
1, 93220, Note_on_c, 0, 35, 30
1, 93236, Control_c, 0, 67, 98
1, 93245, Note_on_c, 0, 71, 79
1, 93251, Control_c, 0, 64, 115
1, 93259, Note_on_c, 0, 62, 50
1, 93263, Note_on_c, 0, 66, 63
1, 93266, Control_c, 0, 64, 98
1, 93266, Control_c, 0, 67, 98
1, 93280, Control_c, 0, 64, 80
1, 93280, Control_c, 0, 67, 99
1, 93295, Control_c, 0, 64, 64
1, 93295, Control_c, 0, 67, 100
1, 93310, Control_c, 0, 64, 0
1, 93310, Control_c, 0, 67, 100
1, 93319, Note_off_c, 0, 71, 60
1, 93322, Note_on_c, 0, 69, 77
1, 93339, Control_c, 0, 67, 101
1, 93398, Control_c, 0, 64, 64
1, 93404, Note_on_c, 0, 68, 73
1, 93408, Note_off_c, 0, 66, 58
1, 93413, Control_c, 0, 64, 75
1, 93429, Control_c, 0, 64, 87
1, 93444, Control_c, 0, 64, 102
1, 93458, Note_off_c, 0, 69, 60
1, 93459, Control_c, 0, 64, 115
1, 93473, Control_c, 0, 64, 127
1, 93473, Control_c, 0, 67, 100
1, 93518, Control_c, 0, 67, 100
1, 93525, Note_off_c, 0, 62, 42
1, 93551, Note_off_c, 0, 68, 61
1, 93558, Note_off_c, 0, 35, 38
1, 93651, Control_c, 0, 64, 96
1, 93661, Note_on_c, 0, 35, 29
1, 93662, Note_on_c, 0, 68, 61
1, 93666, Control_c, 0, 64, 73
1, 93666, Control_c, 0, 67, 100
1, 93678, Note_on_c, 0, 65, 46
1, 93680, Control_c, 0, 64, 0
1, 93680, Control_c, 0, 67, 101
1, 93700, Note_on_c, 0, 62, 33
1, 93784, Control_c, 0, 64, 66
1, 93799, Control_c, 0, 64, 77
1, 93814, Control_c, 0, 64, 91
1, 93814, Control_c, 0, 67, 100
1, 93829, Control_c, 0, 64, 115
1, 93844, Control_c, 0, 64, 127
1, 93859, Control_c, 0, 67, 100
1, 93882, Note_off_c, 0, 68, 56
1, 93883, Note_off_c, 0, 65, 58
1, 93888, Note_off_c, 0, 35, 53
1, 93902, Note_off_c, 0, 62, 40
1, 93978, Note_on_c, 0, 35, 49
1, 93984, Control_c, 0, 67, 100
1, 93990, Note_on_c, 0, 68, 54
1, 94014, Control_c, 0, 64, 109
1, 94016, Note_on_c, 0, 65, 46
1, 94020, Note_on_c, 0, 62, 36
1, 94029, Control_c, 0, 64, 85
1, 94029, Control_c, 0, 67, 101
1, 94044, Control_c, 0, 64, 68
1, 94055, Note_on_c, 0, 37, 62
1, 94058, Control_c, 0, 64, 0
1, 94088, Control_c, 0, 64, 40
1, 94102, Note_off_c, 0, 35, 38
1, 94103, Control_c, 0, 64, 66
1, 94118, Control_c, 0, 64, 77
1, 94125, Note_off_c, 0, 37, 62
1, 94130, Note_on_c, 0, 38, 78
1, 94133, Control_c, 0, 64, 91
1, 94148, Control_c, 0, 64, 100
1, 94162, Control_c, 0, 64, 94
1, 94171, Note_off_c, 0, 65, 58
1, 94177, Control_c, 0, 64, 79
1, 94184, Note_off_c, 0, 62, 40
1, 94184, Note_off_c, 0, 68, 59
1, 94192, Control_c, 0, 64, 66
1, 94192, Control_c, 0, 67, 101
1, 94195, Note_off_c, 0, 38, 59
1, 94206, Control_c, 0, 64, 37
1, 94222, Control_c, 0, 64, 0
1, 94285, Note_on_c, 0, 38, 66
1, 94296, Control_c, 0, 67, 102
1, 94300, Note_on_c, 0, 68, 63
1, 94308, Note_on_c, 0, 65, 48
1, 94327, Note_on_c, 0, 62, 31
1, 94341, Control_c, 0, 67, 101
1, 94356, Control_c, 0, 64, 54
1, 94357, Note_on_c, 0, 37, 69
1, 94368, Note_off_c, 0, 38, 54
1, 94370, Control_c, 0, 64, 71
1, 94385, Control_c, 0, 64, 83
1, 94400, Control_c, 0, 64, 105
1, 94400, Control_c, 0, 67, 101
1, 94415, Control_c, 0, 64, 127
1, 94429, Note_on_c, 0, 35, 73
1, 94438, Note_off_c, 0, 37, 62
1, 94467, Note_off_c, 0, 35, 64
1, 94476, Note_off_c, 0, 65, 60
1, 94476, Note_off_c, 0, 68, 57
1, 94489, Control_c, 0, 64, 99
1, 94490, Note_off_c, 0, 62, 39
1, 94503, Control_c, 0, 64, 72
1, 94518, Control_c, 0, 64, 0
1, 94533, Control_c, 0, 67, 101
1, 94548, Control_c, 0, 67, 101
1, 94577, Control_c, 0, 67, 100
1, 94593, Note_on_c, 0, 35, 59
1, 94596, Note_on_c, 0, 68, 66
1, 94613, Note_on_c, 0, 65, 42
1, 94618, Note_on_c, 0, 62, 37
1, 94639, Note_off_c, 0, 35, 62
1, 94646, Note_on_c, 0, 33, 70
1, 94667, Note_on_c, 0, 69, 73
1, 94678, Note_off_c, 0, 68, 63
1, 94721, Note_off_c, 0, 33, 61
1, 94732, Note_on_c, 0, 32, 81
1, 94748, Control_c, 0, 67, 101
1, 94756, Note_on_c, 0, 71, 76
1, 94763, Control_c, 0, 67, 102
1, 94770, Note_off_c, 0, 69, 62
1, 94777, Control_c, 0, 67, 103
1, 94783, Note_off_c, 0, 32, 63
1, 94792, Control_c, 0, 67, 104
1, 94801, Note_off_c, 0, 65, 63
1, 94803, Note_off_c, 0, 71, 62
1, 94807, Note_off_c, 0, 62, 56
1, 94807, Control_c, 0, 67, 106
1, 94822, Control_c, 0, 67, 107
1, 94851, Control_c, 0, 67, 108
1, 94866, Control_c, 0, 67, 108
1, 94881, Control_c, 0, 67, 109
1, 94929, Note_on_c, 0, 71, 55
1, 94930, Note_on_c, 0, 32, 59
1, 94944, Note_on_c, 0, 65, 45
1, 94947, Note_on_c, 0, 62, 24
1, 95004, Note_on_c, 0, 69, 62
1, 95006, Note_off_c, 0, 71, 54
1, 95030, Control_c, 0, 67, 108
1, 95045, Control_c, 0, 64, 40
1, 95045, Control_c, 0, 67, 108
1, 95060, Control_c, 0, 64, 65
1, 95060, Control_c, 0, 67, 107
1, 95075, Control_c, 0, 64, 74
1, 95075, Control_c, 0, 67, 107
1, 95076, Note_on_c, 0, 68, 68
1, 95081, Note_off_c, 0, 62, 42
1, 95090, Control_c, 0, 64, 86
1, 95090, Control_c, 0, 67, 106
1, 95105, Control_c, 0, 64, 104
1, 95105, Control_c, 0, 67, 106
1, 95107, Note_off_c, 0, 65, 60
1, 95111, Note_off_c, 0, 32, 53
1, 95111, Note_off_c, 0, 69, 61
1, 95119, Control_c, 0, 64, 127
1, 95139, Note_off_c, 0, 68, 61
1, 95149, Control_c, 0, 67, 105
1, 95179, Control_c, 0, 67, 105
1, 95240, Note_on_c, 0, 62, 63
1, 95242, Note_on_c, 0, 47, 72
1, 95248, Note_on_c, 0, 68, 63
1, 95252, Control_c, 0, 67, 105
1, 95267, Control_c, 0, 64, 99
1, 95282, Control_c, 0, 64, 77
1, 95282, Control_c, 0, 67, 106
1, 95285, Note_off_c, 0, 62, 50
1, 95287, Note_on_c, 0, 65, 37
1, 95297, Control_c, 0, 64, 27
1, 95302, Note_on_c, 0, 64, 39
1, 95310, Note_off_c, 0, 47, 59
1, 95312, Control_c, 0, 64, 0
1, 95312, Control_c, 0, 67, 106
1, 95323, Note_on_c, 0, 61, 65
1, 95327, Note_on_c, 0, 49, 65
1, 95341, Control_c, 0, 67, 106
1, 95346, Note_off_c, 0, 64, 47
1, 95351, Note_off_c, 0, 65, 58
1, 95364, Note_off_c, 0, 49, 64
1, 95371, Control_c, 0, 64, 47
1, 95375, Note_on_c, 0, 50, 70
1, 95386, Control_c, 0, 64, 68
1, 95386, Control_c, 0, 67, 105
1, 95388, Note_on_c, 0, 59, 73
1, 95396, Note_off_c, 0, 61, 62
1, 95400, Control_c, 0, 64, 78
1, 95400, Control_c, 0, 67, 105
1, 95409, Note_off_c, 0, 50, 66
1, 95415, Control_c, 0, 64, 95
1, 95415, Control_c, 0, 67, 104
1, 95425, Note_off_c, 0, 68, 58
1, 95430, Control_c, 0, 64, 115
1, 95430, Control_c, 0, 67, 104
1, 95434, Note_off_c, 0, 59, 55
1, 95452, Control_c, 0, 64, 127
1, 95526, Control_c, 0, 64, 99
1, 95526, Control_c, 0, 67, 104
1, 95532, Note_on_c, 0, 50, 66
1, 95541, Control_c, 0, 64, 78
1, 95541, Control_c, 0, 67, 105
1, 95544, Note_on_c, 0, 59, 67
1, 95555, Note_on_c, 0, 68, 61
1, 95557, Control_c, 0, 64, 45
1, 95570, Note_on_c, 0, 65, 65
1, 95572, Control_c, 0, 64, 0
1, 95572, Control_c, 0, 67, 105
1, 95599, Note_off_c, 0, 59, 61
1, 95605, Note_on_c, 0, 49, 73
1, 95609, Note_on_c, 0, 61, 73
1, 95614, Note_off_c, 0, 50, 60
1, 95660, Control_c, 0, 64, 47
1, 95668, Note_off_c, 0, 65, 63
1, 95675, Control_c, 0, 64, 70
1, 95675, Control_c, 0, 67, 104
1, 95678, Note_on_c, 0, 47, 76
1, 95686, Note_off_c, 0, 49, 63
1, 95690, Control_c, 0, 64, 87
1, 95690, Control_c, 0, 67, 103
1, 95699, Note_on_c, 0, 62, 78
1, 95703, Note_off_c, 0, 61, 64
1, 95705, Control_c, 0, 64, 111
1, 95705, Control_c, 0, 67, 102
1, 95707, Note_off_c, 0, 47, 68
1, 95720, Control_c, 0, 64, 127
1, 95720, Control_c, 0, 67, 101
1, 95724, Note_off_c, 0, 68, 60
1, 95734, Control_c, 0, 67, 100
1, 95749, Note_off_c, 0, 62, 60
1, 95749, Control_c, 0, 67, 99
1, 95764, Control_c, 0, 67, 99
1, 95778, Control_c, 0, 67, 98
1, 95824, Control_c, 0, 64, 93
1, 95824, Control_c, 0, 67, 100
1, 95839, Control_c, 0, 64, 70
1, 95839, Control_c, 0, 67, 101
1, 95854, Control_c, 0, 64, 0
1, 95854, Control_c, 0, 67, 102
1, 95858, Note_on_c, 0, 47, 67
1, 95858, Note_on_c, 0, 62, 72
1, 95862, Note_on_c, 0, 68, 78
1, 95863, Note_on_c, 0, 65, 71
1, 95869, Control_c, 0, 67, 103
1, 95883, Control_c, 0, 67, 104
1, 95898, Control_c, 0, 67, 105
1, 95910, Note_on_c, 0, 45, 84
1, 95913, Control_c, 0, 67, 106
1, 95925, Note_off_c, 0, 47, 57
1, 95927, Note_on_c, 0, 69, 80
1, 95928, Control_c, 0, 67, 108
1, 95941, Note_off_c, 0, 68, 63
1, 95943, Control_c, 0, 67, 110
1, 95957, Control_c, 0, 67, 113
1, 95972, Control_c, 0, 67, 119
1, 95987, Control_c, 0, 67, 126
1, 95990, Note_off_c, 0, 45, 64
1, 95993, Note_on_c, 0, 44, 86
1, 96002, Control_c, 0, 67, 127
1, 96004, Note_on_c, 0, 71, 85
1, 96026, Note_off_c, 0, 69, 63
1, 96044, Note_off_c, 0, 44, 65
1, 96044, Note_off_c, 0, 65, 65
1, 96047, Note_off_c, 0, 62, 60
1, 96058, Note_off_c, 0, 71, 64
1, 96163, Note_on_c, 0, 71, 77
1, 96175, Note_on_c, 0, 44, 66
1, 96183, Note_on_c, 0, 62, 56
1, 96186, Note_on_c, 0, 65, 58
1, 96243, Note_off_c, 0, 44, 58
1, 96248, Note_on_c, 0, 45, 69
1, 96264, Note_on_c, 0, 69, 63
1, 96296, Note_off_c, 0, 71, 56
1, 96303, Note_on_c, 0, 68, 69
1, 96312, Note_off_c, 0, 45, 64
1, 96321, Control_c, 0, 64, 39
1, 96323, Note_on_c, 0, 47, 74
1, 96336, Control_c, 0, 64, 56
1, 96339, Note_off_c, 0, 69, 63
1, 96346, Note_off_c, 0, 65, 63
1, 96350, Control_c, 0, 64, 60
1, 96352, Note_off_c, 0, 47, 68
1, 96352, Note_off_c, 0, 62, 60
1, 96365, Control_c, 0, 64, 57
1, 96366, Note_off_c, 0, 68, 62
1, 96380, Control_c, 0, 64, 43
1, 96395, Control_c, 0, 64, 0
1, 96458, Note_on_c, 0, 47, 72
1, 96486, Note_on_c, 0, 62, 63
1, 96488, Note_off_c, 0, 47, 69
1, 96506, Note_on_c, 0, 68, 12
1, 96507, Note_off_c, 0, 68, 127
1, 96528, Control_c, 0, 67, 125
1, 96536, Note_on_c, 0, 65, 26
1, 96543, Control_c, 0, 67, 120
1, 96548, Note_on_c, 0, 47, 76
1, 96557, Control_c, 0, 64, 56
1, 96557, Control_c, 0, 67, 114
1, 96562, Poly_aftertouch_c, 0, 64, 127
1, 96572, Control_c, 0, 64, 67
1, 96572, Control_c, 0, 67, 106
1, 96587, Control_c, 0, 64, 76
1, 96587, Control_c, 0, 67, 99
1, 96589, Note_off_c, 0, 62, 54
1, 96596, Note_off_c, 0, 47, 60
1, 96601, Control_c, 0, 64, 89
1, 96601, Control_c, 0, 67, 93
1, 96616, Control_c, 0, 64, 112
1, 96616, Control_c, 0, 67, 88
1, 96632, Control_c, 0, 64, 127
1, 96632, Control_c, 0, 67, 86
1, 96635, Note_on_c, 0, 61, 76
1, 96644, Note_on_c, 0, 49, 71
1, 96647, Control_c, 0, 67, 85
1, 96658, Note_off_c, 0, 65, 42
1, 96660, Note_off_c, 0, 61, 69
1, 96662, Control_c, 0, 67, 83
1, 96670, Note_off_c, 0, 49, 66
1, 96673, Poly_aftertouch_c, 0, 64, 0
1, 96677, Control_c, 0, 67, 82
1, 96692, Control_c, 0, 67, 82
1, 96706, Control_c, 0, 67, 81
1, 96721, Control_c, 0, 67, 81
1, 96736, Control_c, 0, 67, 80
1, 96751, Control_c, 0, 67, 79
1, 96766, Control_c, 0, 64, 88
1, 96766, Control_c, 0, 67, 76
1, 96780, Control_c, 0, 64, 65
1, 96780, Control_c, 0, 67, 73
1, 96786, Note_on_c, 0, 44, 72
1, 96795, Control_c, 0, 64, 0
1, 96795, Control_c, 0, 67, 71
1, 96804, Note_on_c, 0, 74, 81
1, 96810, Control_c, 0, 67, 68
1, 96811, Note_on_c, 0, 65, 63
1, 96811, Note_off_c, 0, 44, 66
1, 96812, Note_on_c, 0, 68, 59
1, 96825, Control_c, 0, 67, 65
1, 96840, Control_c, 0, 67, 62
1, 96855, Control_c, 0, 67, 58
1, 96864, Note_on_c, 0, 44, 82
1, 96869, Control_c, 0, 64, 47
1, 96869, Control_c, 0, 67, 52
1, 96884, Control_c, 0, 64, 69
1, 96884, Control_c, 0, 67, 45
1, 96899, Control_c, 0, 64, 84
1, 96899, Control_c, 0, 67, 37
1, 96914, Control_c, 0, 64, 120
1, 96914, Control_c, 0, 67, 28
1, 96918, Note_off_c, 0, 44, 59
1, 96929, Control_c, 0, 64, 127
1, 96929, Control_c, 0, 67, 19
1, 96951, Control_c, 0, 67, 10
1, 96955, Note_off_c, 0, 74, 63
1, 96956, Note_on_c, 0, 73, 72
1, 96966, Control_c, 0, 67, 0
1, 96967, Note_on_c, 0, 53, 74
1, 96972, Note_off_c, 0, 68, 60
1, 96982, Note_off_c, 0, 73, 66
1, 97007, Note_off_c, 0, 53, 62
1, 97017, Note_off_c, 0, 65, 55
1, 97111, Note_on_c, 0, 41, 78
1, 97114, Control_c, 0, 64, 90
1, 97122, Note_on_c, 0, 62, 73
1, 97125, Note_on_c, 0, 68, 75
1, 97129, Control_c, 0, 64, 64
1, 97131, Note_on_c, 0, 65, 64
1, 97141, Note_off_c, 0, 41, 62
1, 97144, Control_c, 0, 64, 0
1, 97188, Control_c, 0, 64, 45
1, 97191, Note_on_c, 0, 41, 83
1, 97203, Control_c, 0, 64, 69
1, 97217, Control_c, 0, 64, 90
1, 97227, Note_off_c, 0, 41, 64
1, 97228, Note_off_c, 0, 62, 60
1, 97232, Control_c, 0, 64, 127
1, 97238, Note_off_c, 0, 68, 61
1, 97253, Note_off_c, 0, 65, 62
1, 97263, Note_on_c, 0, 61, 78
1, 97273, Note_on_c, 0, 56, 80
1, 97293, Note_off_c, 0, 61, 64
1, 97302, Note_off_c, 0, 56, 66
1, 97410, Control_c, 0, 64, 101
1, 97424, Note_on_c, 0, 37, 82
1, 97426, Control_c, 0, 64, 69
1, 97436, Note_on_c, 0, 74, 86
1, 97441, Control_c, 0, 64, 0
1, 97442, Note_on_c, 0, 65, 70
1, 97445, Note_on_c, 0, 68, 64
1, 97446, Note_off_c, 0, 37, 66
1, 97500, Control_c, 0, 64, 52
1, 97507, Note_on_c, 0, 37, 72
1, 97515, Control_c, 0, 64, 69
1, 97529, Control_c, 0, 64, 82
1, 97540, Note_off_c, 0, 37, 65
1, 97544, Control_c, 0, 64, 121
1, 97559, Control_c, 0, 64, 127
1, 97588, Note_on_c, 0, 73, 73
1, 97591, Note_off_c, 0, 74, 62
1, 97600, Note_off_c, 0, 68, 60
1, 97602, Note_on_c, 0, 57, 78
1, 97611, Note_off_c, 0, 73, 68
1, 97635, Note_off_c, 0, 65, 64
1, 97636, Note_off_c, 0, 57, 62
1, 97759, Control_c, 0, 64, 106
1, 97763, Note_on_c, 0, 47, 74
1, 97773, Control_c, 0, 64, 73
1, 97782, Note_on_c, 0, 68, 80
1, 97782, Note_on_c, 0, 48, 52
1, 97783, Note_on_c, 0, 62, 66
1, 97788, Control_c, 0, 64, 0
1, 97791, Note_off_c, 0, 47, 67
1, 97791, Note_on_c, 0, 65, 69
1, 97811, Note_off_c, 0, 48, 35
1, 97841, Note_on_c, 0, 47, 87
1, 97891, Note_off_c, 0, 47, 66
1, 97892, Control_c, 0, 64, 66
1, 97901, Note_off_c, 0, 62, 61
1, 97907, Control_c, 0, 64, 83
1, 97918, Note_off_c, 0, 68, 61
1, 97921, Control_c, 0, 64, 127
1, 97925, Note_on_c, 0, 61, 84
1, 97928, Note_off_c, 0, 65, 64
1, 97931, Note_on_c, 0, 49, 93
1, 97969, Note_off_c, 0, 49, 63
1, 97972, Note_off_c, 0, 61, 62
1, 98069, Control_c, 0, 64, 116
1, 98084, Note_on_c, 0, 44, 91
1, 98084, Control_c, 0, 64, 74
1, 98099, Control_c, 0, 64, 0
1, 98103, Note_on_c, 0, 74, 87
1, 98111, Note_on_c, 0, 65, 67
1, 98112, Note_on_c, 0, 68, 69
1, 98113, Note_off_c, 0, 44, 65
1, 98175, Note_on_c, 0, 44, 85
1, 98218, Control_c, 0, 64, 43
1, 98232, Note_off_c, 0, 44, 63
1, 98233, Control_c, 0, 64, 75
1, 98247, Note_on_c, 0, 73, 77
1, 98248, Note_off_c, 0, 74, 63
1, 98248, Control_c, 0, 64, 110
1, 98257, Note_on_c, 0, 53, 84
1, 98262, Note_off_c, 0, 68, 61
1, 98263, Control_c, 0, 64, 127
1, 98270, Note_off_c, 0, 73, 70
1, 98299, Note_off_c, 0, 65, 64
1, 98306, Note_off_c, 0, 53, 66
1, 98406, Note_on_c, 0, 41, 77
1, 98411, Control_c, 0, 64, 83
1, 98420, Note_on_c, 0, 62, 64
1, 98420, Note_on_c, 0, 68, 78
1, 98422, Note_on_c, 0, 65, 72
1, 98425, Control_c, 0, 64, 0
1, 98434, Note_off_c, 0, 41, 64
1, 98495, Note_on_c, 0, 41, 81
1, 98522, Control_c, 0, 64, 66
1, 98533, Note_off_c, 0, 41, 64
1, 98537, Control_c, 0, 64, 82
1, 98540, Note_off_c, 0, 62, 61
1, 98552, Control_c, 0, 64, 127
1, 98557, Note_off_c, 0, 68, 61
1, 98561, Note_off_c, 0, 65, 63
1, 98569, Note_on_c, 0, 61, 78
1, 98580, Note_on_c, 0, 56, 93
1, 98601, Note_off_c, 0, 61, 64
1, 98620, Note_off_c, 0, 56, 66
1, 98715, Control_c, 0, 64, 80
1, 98726, Note_on_c, 0, 37, 86
1, 98730, Control_c, 0, 64, 0
1, 98744, Note_on_c, 0, 74, 84
1, 98744, Note_on_c, 0, 68, 73
1, 98748, Note_on_c, 0, 65, 73
1, 98754, Note_off_c, 0, 37, 67
1, 98804, Note_on_c, 0, 37, 91
1, 98834, Control_c, 0, 64, 64
1, 98849, Control_c, 0, 64, 85
1, 98853, Note_off_c, 0, 37, 63
1, 98864, Control_c, 0, 64, 127
1, 98901, Note_on_c, 0, 73, 93
1, 98911, Note_off_c, 0, 65, 62
1, 98912, Note_off_c, 0, 68, 61
1, 98918, Note_off_c, 0, 74, 63
1, 98919, Note_on_c, 0, 59, 82
1, 98938, Note_off_c, 0, 73, 67
1, 98941, Note_off_c, 0, 59, 69
1, 99072, Control_c, 0, 64, 87
1, 99078, Note_on_c, 0, 56, 95
1, 99081, Note_on_c, 0, 44, 93
1, 99081, Note_on_c, 0, 80, 98
1, 99084, Note_on_c, 0, 68, 92
1, 99087, Control_c, 0, 64, 24
1, 99096, Note_off_c, 0, 56, 74
1, 99101, Note_off_c, 0, 68, 71
1, 99102, Control_c, 0, 64, 0
1, 99103, Note_off_c, 0, 44, 71
1, 99106, Note_off_c, 0, 80, 62
1, 99251, Note_on_c, 0, 49, 98
1, 99254, Note_on_c, 0, 37, 94
1, 99261, Note_on_c, 0, 73, 95
1, 99266, Note_on_c, 0, 61, 80
1, 99271, Note_off_c, 0, 49, 73
1, 99275, Note_off_c, 0, 37, 73
1, 99278, Note_off_c, 0, 73, 71
1, 99290, Note_off_c, 0, 61, 68
1, 99419, Note_on_c, 0, 44, 98
1, 99419, Note_on_c, 0, 56, 96
1, 99425, Note_on_c, 0, 80, 96
1, 99429, Note_on_c, 0, 68, 91
1, 99436, Note_off_c, 0, 56, 74
1, 99439, Note_off_c, 0, 80, 77
1, 99442, Note_off_c, 0, 44, 71
1, 99445, Note_off_c, 0, 68, 73
1, 99592, Note_on_c, 0, 37, 93
1, 99592, Note_on_c, 0, 49, 101
1, 99592, Note_on_c, 0, 73, 98
1, 99598, Note_on_c, 0, 61, 85
1, 99612, Note_off_c, 0, 49, 71
1, 99613, Note_off_c, 0, 37, 71
1, 99616, Note_off_c, 0, 73, 65
1, 99617, Note_off_c, 0, 61, 69
1, 99702, Note_on_c, 0, 49, 5
1, 99703, Note_off_c, 0, 49, 127
1, 99761, Note_on_c, 0, 56, 100
1, 99763, Note_on_c, 0, 44, 96
1, 99768, Note_on_c, 0, 80, 97
1, 99778, Note_on_c, 0, 68, 82
1, 99779, Note_off_c, 0, 56, 74
1, 99785, Note_off_c, 0, 44, 71
1, 99789, Note_off_c, 0, 80, 69
1, 99794, Note_off_c, 0, 68, 69
1, 99977, Control_c, 0, 64, 64
1, 99982, Note_on_c, 0, 37, 95
1, 99984, Note_on_c, 0, 49, 94
1, 99986, Note_on_c, 0, 73, 96
1, 99992, Control_c, 0, 64, 86
1, 99993, Note_on_c, 0, 61, 87
1, 100002, Note_off_c, 0, 37, 73
1, 100002, Note_off_c, 0, 49, 72
1, 100006, Control_c, 0, 64, 127
1, 100077, Note_off_c, 0, 61, 45
1, 100138, Poly_aftertouch_c, 0, 49, 0
1, 100212, Note_off_c, 0, 73, 53
1, 100286, Control_c, 0, 64, 111
1, 100294, Note_on_c, 0, 74, 88
1, 100295, Note_on_c, 0, 50, 88
1, 100301, Control_c, 0, 64, 73
1, 100302, Note_on_c, 0, 62, 70
1, 100303, Note_on_c, 0, 38, 76
1, 100315, Control_c, 0, 64, 0
1, 100317, Note_off_c, 0, 50, 73
1, 100328, Note_off_c, 0, 62, 65
1, 100333, Note_off_c, 0, 38, 63
1, 100343, Note_off_c, 0, 74, 0
1, 100360, Control_c, 0, 64, 62
1, 100364, Note_on_c, 0, 49, 100
1, 100364, Note_on_c, 0, 73, 100
1, 100366, Note_on_c, 0, 61, 94
1, 100375, Note_on_c, 0, 37, 81
1, 100375, Control_c, 0, 64, 80
1, 100378, Poly_aftertouch_c, 0, 74, 0
1, 100387, Note_off_c, 0, 61, 67
1, 100389, Note_off_c, 0, 49, 67
1, 100390, Control_c, 0, 64, 127
1, 100399, Note_off_c, 0, 73, 66
1, 100400, Note_off_c, 0, 37, 64
1, 100479, Control_c, 0, 67, 8
1, 100494, Control_c, 0, 67, 11
1, 100509, Control_c, 0, 67, 15
1, 100523, Control_c, 0, 64, 76
1, 100523, Control_c, 0, 67, 19
1, 100538, Control_c, 0, 64, 0
1, 100538, Control_c, 0, 67, 24
1, 100553, Control_c, 0, 67, 26
1, 100567, Control_c, 0, 67, 28
1, 100582, Control_c, 0, 67, 30
1, 100597, Control_c, 0, 67, 34
1, 100613, Control_c, 0, 67, 39
1, 100628, Control_c, 0, 67, 44
1, 100643, Control_c, 0, 67, 48
1, 100658, Control_c, 0, 67, 53
1, 100672, Control_c, 0, 67, 57
1, 100694, Control_c, 0, 67, 63
1, 100698, Note_on_c, 0, 42, 69
1, 100699, Note_on_c, 0, 66, 71
1, 100700, Note_on_c, 0, 57, 64
1, 100709, Control_c, 0, 67, 70
1, 100722, Note_off_c, 0, 66, 67
1, 100723, Note_on_c, 0, 61, 25
1, 100724, Note_off_c, 0, 42, 65
1, 100724, Control_c, 0, 67, 77
1, 100730, Note_off_c, 0, 57, 65
1, 100739, Control_c, 0, 67, 83
1, 100754, Control_c, 0, 67, 88
1, 100760, Note_off_c, 0, 61, 52
1, 100768, Control_c, 0, 67, 91
1, 100781, Note_on_c, 0, 42, 75
1, 100781, Note_on_c, 0, 68, 80
1, 100783, Control_c, 0, 67, 93
1, 100792, Note_on_c, 0, 57, 59
1, 100798, Control_c, 0, 67, 96
1, 100804, Note_off_c, 0, 42, 66
1, 100805, Note_off_c, 0, 68, 65
1, 100813, Control_c, 0, 67, 100
1, 100814, Note_off_c, 0, 57, 61
1, 100828, Control_c, 0, 67, 105
1, 100843, Control_c, 0, 67, 111
1, 100851, Note_on_c, 0, 42, 93
1, 100854, Note_on_c, 0, 61, 75
1, 100854, Note_on_c, 0, 69, 89
1, 100858, Note_on_c, 0, 57, 78
1, 100858, Control_c, 0, 67, 117
1, 100872, Control_c, 0, 67, 122
1, 100873, Note_off_c, 0, 42, 71
1, 100877, Note_off_c, 0, 61, 68
1, 100880, Note_off_c, 0, 57, 66
1, 100885, Note_off_c, 0, 69, 62
1, 100887, Control_c, 0, 67, 127
1, 101041, Note_on_c, 0, 42, 76
1, 101045, Note_on_c, 0, 69, 79
1, 101054, Note_on_c, 0, 57, 63
1, 101055, Note_on_c, 0, 61, 63
1, 101064, Note_off_c, 0, 69, 72
1, 101067, Note_off_c, 0, 42, 67
1, 101076, Note_off_c, 0, 57, 61
1, 101076, Note_off_c, 0, 61, 60
1, 101116, Note_on_c, 0, 42, 84
1, 101120, Note_on_c, 0, 68, 82
1, 101131, Note_on_c, 0, 57, 62
1, 101143, Note_off_c, 0, 68, 66
1, 101146, Note_off_c, 0, 42, 67
1, 101153, Note_off_c, 0, 57, 60
1, 101195, Note_on_c, 0, 66, 91
1, 101197, Note_on_c, 0, 42, 83
1, 101204, Note_on_c, 0, 61, 77
1, 101207, Note_on_c, 0, 57, 69
1, 101226, Note_off_c, 0, 42, 67
1, 101228, Note_off_c, 0, 57, 64
1, 101228, Note_off_c, 0, 61, 67
1, 101235, Note_off_c, 0, 66, 61
1, 101368, Note_on_c, 0, 42, 74
1, 101369, Note_on_c, 0, 66, 82
1, 101382, Note_on_c, 0, 57, 55
1, 101395, Note_off_c, 0, 42, 66
1, 101397, Note_off_c, 0, 66, 59
1, 101405, Note_off_c, 0, 57, 59
1, 101443, Control_c, 0, 67, 126
1, 101452, Note_on_c, 0, 42, 78
1, 101452, Note_on_c, 0, 64, 80
1, 101458, Control_c, 0, 67, 124
1, 101473, Control_c, 0, 67, 122
1, 101478, Note_off_c, 0, 64, 68
1, 101480, Note_off_c, 0, 42, 68
1, 101488, Control_c, 0, 67, 119
1, 101502, Control_c, 0, 67, 117
1, 101517, Control_c, 0, 67, 116
1, 101520, Note_on_c, 0, 42, 93
1, 101529, Note_on_c, 0, 57, 17
1, 101533, Note_on_c, 0, 63, 84
1, 101543, Note_off_c, 0, 42, 70
1, 101548, Control_c, 0, 67, 116
1, 101563, Control_c, 0, 67, 117
1, 101573, Note_off_c, 0, 57, 61
1, 101577, Control_c, 0, 67, 119
1, 101579, Note_off_c, 0, 63, 58
1, 101592, Control_c, 0, 67, 121
1, 101601, Note_on_c, 0, 61, 7
1, 101607, Control_c, 0, 67, 122
1, 101621, Control_c, 0, 67, 124
1, 101636, Control_c, 0, 67, 125
1, 101638, Note_off_c, 0, 61, 25
1, 101651, Control_c, 0, 67, 125
1, 101705, Note_on_c, 0, 57, 64
1, 101711, Note_on_c, 0, 72, 77
1, 101717, Note_on_c, 0, 63, 47
1, 101728, Note_on_c, 0, 61, 36
1, 101729, Note_off_c, 0, 61, 127
1, 101732, Note_off_c, 0, 57, 64
1, 101733, Note_off_c, 0, 72, 69
1, 101744, Note_off_c, 0, 63, 57
1, 101791, Note_on_c, 0, 57, 65
1, 101800, Control_c, 0, 67, 125
1, 101800, Note_on_c, 0, 63, 47
1, 101812, Note_off_c, 0, 57, 61
1, 101818, Note_off_c, 0, 63, 39
1, 101829, Control_c, 0, 67, 124
1, 101844, Control_c, 0, 67, 123
1, 101859, Control_c, 0, 67, 123
1, 101865, Note_on_c, 0, 66, 78
1, 101874, Control_c, 0, 67, 122
1, 101885, Note_on_c, 0, 63, 74
1, 101886, Note_off_c, 0, 66, 70
1, 101888, Control_c, 0, 64, 74
1, 101888, Control_c, 0, 67, 121
1, 101889, Note_on_c, 0, 57, 50
1, 101891, Note_on_c, 0, 61, 53
1, 101903, Control_c, 0, 64, 103
1, 101903, Control_c, 0, 67, 120
1, 101916, Note_off_c, 0, 57, 57
1, 101918, Control_c, 0, 64, 127
1, 101918, Control_c, 0, 67, 119
1, 101922, Note_off_c, 0, 61, 64
1, 101926, Note_off_c, 0, 63, 52
1, 101977, Control_c, 0, 67, 118
1, 101992, Control_c, 0, 67, 118
1, 102007, Control_c, 0, 67, 117
1, 102036, Control_c, 0, 67, 117
1, 102038, Note_on_c, 0, 42, 83
1, 102048, Note_on_c, 0, 57, 70
1, 102051, Control_c, 0, 64, 96
1, 102062, Note_on_c, 0, 63, 66
1, 102066, Control_c, 0, 64, 66
1, 102066, Control_c, 0, 67, 116
1, 102081, Note_on_c, 0, 61, 44
1, 102081, Control_c, 0, 64, 0
1, 102081, Control_c, 0, 67, 116
1, 102083, Note_off_c, 0, 57, 63
1, 102083, Note_off_c, 0, 42, 57
1, 102095, Control_c, 0, 67, 115
1, 102102, Note_off_c, 0, 63, 0
1, 102110, Control_c, 0, 67, 115
1, 102119, Note_off_c, 0, 61, 47
1, 102125, Note_on_c, 0, 56, 85
1, 102125, Control_c, 0, 67, 114
1, 102129, Note_on_c, 0, 44, 76
1, 102129, Poly_aftertouch_c, 0, 63, 0
1, 102140, Control_c, 0, 67, 110
1, 102155, Control_c, 0, 67, 103
1, 102158, Note_off_c, 0, 44, 65
1, 102170, Note_off_c, 0, 56, 61
1, 102170, Control_c, 0, 67, 96
1, 102192, Control_c, 0, 67, 90
1, 102205, Note_on_c, 0, 54, 95
1, 102207, Control_c, 0, 67, 85
1, 102209, Note_on_c, 0, 45, 86
1, 102217, Note_on_c, 0, 63, 73
1, 102222, Note_on_c, 0, 61, 59
1, 102223, Control_c, 0, 67, 79
1, 102234, Note_off_c, 0, 54, 66
1, 102235, Note_off_c, 0, 45, 71
1, 102238, Control_c, 0, 67, 72
1, 102240, Note_off_c, 0, 63, 68
1, 102244, Note_off_c, 0, 61, 60
1, 102252, Control_c, 0, 67, 65
1, 102267, Control_c, 0, 67, 59
1, 102282, Control_c, 0, 67, 55
1, 102297, Control_c, 0, 67, 52
1, 102312, Control_c, 0, 67, 49
1, 102326, Control_c, 0, 67, 47
1, 102341, Control_c, 0, 67, 46
1, 102356, Control_c, 0, 67, 45
1, 102370, Control_c, 0, 67, 44
1, 102378, Note_on_c, 0, 45, 76
1, 102384, Note_on_c, 0, 54, 83
1, 102385, Control_c, 0, 67, 44
1, 102396, Note_on_c, 0, 63, 70
1, 102409, Note_off_c, 0, 54, 69
1, 102415, Control_c, 0, 67, 43
1, 102420, Note_off_c, 0, 45, 61
1, 102444, Control_c, 0, 67, 43
1, 102459, Note_on_c, 0, 56, 78
1, 102460, Note_on_c, 0, 44, 70
1, 102472, Note_off_c, 0, 63, 33
1, 102503, Note_off_c, 0, 56, 53
1, 102524, Note_off_c, 0, 44, 59
1, 102528, Note_on_c, 0, 42, 77
1, 102531, Note_on_c, 0, 57, 82
1, 102531, Note_on_c, 0, 63, 74
1, 102534, Note_on_c, 0, 61, 72
1, 102553, Note_off_c, 0, 57, 69
1, 102557, Note_off_c, 0, 42, 65
1, 102559, Note_off_c, 0, 61, 66
1, 102562, Note_off_c, 0, 63, 65
1, 102593, Control_c, 0, 67, 43
1, 102608, Control_c, 0, 67, 44
1, 102623, Control_c, 0, 67, 45
1, 102637, Control_c, 0, 67, 46
1, 102652, Control_c, 0, 67, 47
1, 102667, Control_c, 0, 67, 48
1, 102682, Control_c, 0, 67, 48
1, 102694, Note_on_c, 0, 42, 67
1, 102697, Control_c, 0, 67, 49
1, 102697, Note_on_c, 0, 57, 75
1, 102707, Note_on_c, 0, 63, 63
1, 102711, Control_c, 0, 67, 50
1, 102719, Note_off_c, 0, 57, 67
1, 102726, Control_c, 0, 67, 50
1, 102741, Control_c, 0, 67, 51
1, 102745, Note_off_c, 0, 63, 55
1, 102752, Note_off_c, 0, 42, 57
1, 102756, Control_c, 0, 67, 52
1, 102764, Note_on_c, 0, 56, 83
1, 102765, Note_on_c, 0, 40, 75
1, 102814, Note_off_c, 0, 40, 61
1, 102816, Note_off_c, 0, 56, 64
1, 102829, Control_c, 0, 67, 51
1, 102844, Control_c, 0, 67, 50
1, 102850, Note_on_c, 0, 39, 72
1, 102855, Note_on_c, 0, 55, 80
1, 102859, Control_c, 0, 64, 64
1, 102859, Control_c, 0, 67, 48
1, 102871, Note_on_c, 0, 63, 59
1, 102873, Note_on_c, 0, 61, 57
1, 102874, Control_c, 0, 64, 90
1, 102874, Control_c, 0, 67, 46
1, 102875, Note_off_c, 0, 39, 59
1, 102889, Control_c, 0, 64, 127
1, 102889, Control_c, 0, 67, 46
1, 102903, Control_c, 0, 67, 45
1, 102906, Note_off_c, 0, 61, 60
1, 102913, Note_off_c, 0, 63, 52
1, 102914, Note_off_c, 0, 55, 60
1, 102918, Control_c, 0, 67, 46
1, 102941, Control_c, 0, 67, 48
1, 102956, Control_c, 0, 67, 49
1, 102970, Control_c, 0, 64, 100
1, 102970, Control_c, 0, 67, 50
1, 102985, Control_c, 0, 64, 77
1, 102985, Control_c, 0, 67, 51
1, 103000, Control_c, 0, 64, 51
1, 103000, Control_c, 0, 67, 52
1, 103016, Control_c, 0, 64, 0
1, 103016, Control_c, 0, 67, 52
1, 103031, Control_c, 0, 67, 53
1, 103035, Note_on_c, 0, 55, 82
1, 103052, Note_on_c, 0, 82, 97
1, 103052, Note_on_c, 0, 58, 61
1, 103054, Note_on_c, 0, 63, 60
1, 103060, Note_on_c, 0, 61, 53
1, 103061, Control_c, 0, 67, 53
1, 103062, Note_off_c, 0, 55, 65
1, 103073, Note_off_c, 0, 58, 64
1, 103082, Note_off_c, 0, 63, 64
1, 103085, Note_off_c, 0, 61, 57
1, 103090, Control_c, 0, 67, 53
1, 103105, Control_c, 0, 67, 51
1, 103111, Note_off_c, 0, 82, 62
1, 103120, Control_c, 0, 67, 50
1, 103128, Note_on_c, 0, 63, 71
1, 103129, Note_on_c, 0, 55, 66
1, 103135, Control_c, 0, 67, 49
1, 103144, Note_on_c, 0, 58, 50
1, 103148, Note_on_c, 0, 61, 53
1, 103149, Control_c, 0, 67, 49
1, 103156, Note_off_c, 0, 55, 65
1, 103157, Note_off_c, 0, 63, 60
1, 103164, Control_c, 0, 67, 48
1, 103170, Note_off_c, 0, 58, 60
1, 103175, Note_off_c, 0, 61, 57
1, 103179, Control_c, 0, 67, 46
1, 103193, Control_c, 0, 67, 44
1, 103204, Note_on_c, 0, 75, 87
1, 103208, Control_c, 0, 67, 39
1, 103213, Note_on_c, 0, 55, 78
1, 103219, Note_on_c, 0, 63, 73
1, 103223, Control_c, 0, 64, 68
1, 103223, Control_c, 0, 67, 28
1, 103233, Note_off_c, 0, 75, 68
1, 103235, Note_on_c, 0, 58, 59
1, 103237, Note_off_c, 0, 55, 67
1, 103238, Control_c, 0, 64, 118
1, 103238, Control_c, 0, 67, 10
1, 103253, Control_c, 0, 64, 127
1, 103253, Control_c, 0, 67, 0
1, 103258, Note_off_c, 0, 58, 60
1, 103264, Note_off_c, 0, 63, 59
1, 103385, Note_on_c, 0, 68, 95
1, 103386, Control_c, 0, 64, 99
1, 103392, Note_on_c, 0, 59, 82
1, 103398, Note_on_c, 0, 63, 65
1, 103401, Control_c, 0, 64, 65
1, 103413, Note_off_c, 0, 59, 70
1, 103416, Control_c, 0, 64, 0
1, 103416, Note_off_c, 0, 63, 66
1, 103418, Note_on_c, 0, 39, 63
1, 103426, Note_off_c, 0, 68, 62
1, 103445, Note_off_c, 0, 39, 61
1, 103463, Note_on_c, 0, 70, 88
1, 103478, Note_on_c, 0, 59, 71
1, 103481, Note_on_c, 0, 63, 59
1, 103484, Note_on_c, 0, 68, 46
1, 103500, Note_off_c, 0, 59, 69
1, 103505, Note_off_c, 0, 63, 63
1, 103508, Note_off_c, 0, 70, 64
1, 103516, Note_off_c, 0, 68, 52
1, 103533, Note_on_c, 0, 39, 46
1, 103549, Note_on_c, 0, 71, 101
1, 103549, Control_c, 0, 67, 8
1, 103553, Note_on_c, 0, 63, 98
1, 103556, Note_on_c, 0, 59, 88
1, 103561, Note_off_c, 0, 39, 0
1, 103561, Note_on_c, 0, 39, 34
1, 103564, Note_on_c, 0, 70, 60
1, 103564, Control_c, 0, 67, 10
1, 103575, Note_off_c, 0, 59, 68
1, 103579, Control_c, 0, 67, 12
1, 103580, Note_off_c, 0, 70, 66
1, 103581, Note_off_c, 0, 63, 63
1, 103591, Note_off_c, 0, 71, 68
1, 103593, Control_c, 0, 67, 16
1, 103608, Control_c, 0, 67, 21
1, 103609, Note_off_c, 0, 39, 59
1, 103623, Control_c, 0, 67, 25
1, 103638, Control_c, 0, 67, 28
1, 103653, Control_c, 0, 67, 32
1, 103667, Control_c, 0, 67, 34
1, 103690, Control_c, 0, 67, 36
1, 103705, Control_c, 0, 67, 37
1, 103731, Note_on_c, 0, 39, 70
1, 103734, Note_on_c, 0, 71, 92
1, 103737, Note_on_c, 0, 59, 83
1, 103743, Note_on_c, 0, 63, 68
1, 103752, Note_off_c, 0, 71, 69
1, 103757, Note_off_c, 0, 39, 59
1, 103758, Note_off_c, 0, 59, 68
1, 103764, Control_c, 0, 67, 36
1, 103769, Note_off_c, 0, 63, 64
1, 103779, Control_c, 0, 67, 36
1, 103792, Control_c, 0, 67, 35
1, 103807, Control_c, 0, 67, 34
1, 103811, Note_on_c, 0, 70, 84
1, 103819, Note_on_c, 0, 39, 70
1, 103821, Note_on_c, 0, 59, 68
1, 103823, Control_c, 0, 67, 34
1, 103830, Note_on_c, 0, 71, 39
1, 103838, Control_c, 0, 67, 33
1, 103842, Note_off_c, 0, 59, 64
1, 103843, Note_off_c, 0, 39, 60
1, 103843, Note_off_c, 0, 70, 63
1, 103853, Control_c, 0, 67, 33
1, 103858, Note_off_c, 0, 71, 34
1, 103889, Note_on_c, 0, 63, 12
1, 103891, Note_on_c, 0, 39, 82
1, 103892, Note_on_c, 0, 68, 87
1, 103895, Note_on_c, 0, 59, 80
1, 103897, Control_c, 0, 67, 33
1, 103912, Control_c, 0, 67, 34
1, 103913, Note_off_c, 0, 59, 67
1, 103915, Note_off_c, 0, 39, 66
1, 103923, Note_off_c, 0, 68, 58
1, 103927, Control_c, 0, 67, 35
1, 103933, Note_off_c, 0, 63, 60
1, 103986, Control_c, 0, 67, 34
1, 104001, Control_c, 0, 67, 34
1, 104044, Note_on_c, 0, 39, 58
1, 104056, Note_on_c, 0, 68, 80
1, 104058, Note_on_c, 0, 59, 62
1, 104074, Note_off_c, 0, 39, 61
1, 104076, Note_off_c, 0, 68, 71
1, 104084, Note_off_c, 0, 59, 64
1, 104089, Control_c, 0, 67, 34
1, 104104, Control_c, 0, 67, 34
1, 104119, Control_c, 0, 67, 33
1, 104125, Note_on_c, 0, 67, 84
1, 104134, Control_c, 0, 67, 32
1, 104139, Note_on_c, 0, 39, 64
1, 104140, Note_on_c, 0, 63, 26
1, 104148, Note_on_c, 0, 59, 57
1, 104149, Control_c, 0, 67, 30
1, 104162, Note_off_c, 0, 67, 62
1, 104164, Control_c, 0, 67, 28
1, 104167, Note_off_c, 0, 39, 56
1, 104170, Note_off_c, 0, 59, 60
1, 104173, Note_off_c, 0, 63, 49
1, 104179, Control_c, 0, 67, 25
1, 104194, Control_c, 0, 67, 21
1, 104203, Note_on_c, 0, 39, 81
1, 104208, Control_c, 0, 67, 16
1, 104222, Note_on_c, 0, 66, 74
1, 104223, Control_c, 0, 64, 66
1, 104223, Control_c, 0, 67, 8
1, 104225, Note_off_c, 0, 39, 68
1, 104238, Control_c, 0, 64, 101
1, 104238, Control_c, 0, 67, 0
1, 104238, Note_on_c, 0, 59, 56
1, 104253, Control_c, 0, 64, 127
1, 104259, Note_on_c, 0, 63, 47
1, 104275, Note_off_c, 0, 66, 51
1, 104279, Note_off_c, 0, 59, 57
1, 104282, Control_c, 0, 67, 10
1, 104296, Note_off_c, 0, 63, 51
1, 104297, Control_c, 0, 67, 13
1, 104312, Control_c, 0, 67, 17
1, 104327, Control_c, 0, 67, 20
1, 104341, Control_c, 0, 64, 80
1, 104341, Control_c, 0, 67, 23
1, 104356, Control_c, 0, 64, 0
1, 104356, Control_c, 0, 67, 27
1, 104371, Control_c, 0, 67, 27
1, 104383, Note_on_c, 0, 78, 87
1, 104386, Control_c, 0, 67, 28
1, 104387, Note_on_c, 0, 66, 57
1, 104393, Note_on_c, 0, 59, 45
1, 104393, Note_on_c, 0, 63, 40
1, 104402, Note_on_c, 0, 57, 46
1, 104403, Note_off_c, 0, 78, 68
1, 104406, Note_off_c, 0, 66, 63
1, 104415, Control_c, 0, 67, 27
1, 104420, Note_off_c, 0, 59, 56
1, 104426, Note_off_c, 0, 63, 33
1, 104435, Note_off_c, 0, 57, 57
1, 104438, Control_c, 0, 67, 24
1, 104453, Control_c, 0, 67, 21
1, 104468, Control_c, 0, 67, 20
1, 104475, Note_on_c, 0, 66, 70
1, 104483, Control_c, 0, 67, 19
1, 104497, Control_c, 0, 67, 19
1, 104501, Note_off_c, 0, 66, 64
1, 104509, Note_on_c, 0, 63, 45
1, 104512, Control_c, 0, 67, 17
1, 104520, Note_on_c, 0, 59, 21
1, 104527, Control_c, 0, 67, 15
1, 104536, Note_off_c, 0, 63, 55
1, 104541, Control_c, 0, 67, 11
1, 104550, Note_off_c, 0, 59, 0
1, 104554, Note_on_c, 0, 71, 82
1, 104556, Control_c, 0, 64, 67
1, 104556, Control_c, 0, 67, 0
1, 104571, Note_off_c, 0, 71, 74
1, 104571, Control_c, 0, 64, 95
1, 104581, Note_on_c, 0, 66, 65
1, 104583, Note_on_c, 0, 59, 34
1, 104586, Control_c, 0, 64, 127
1, 104616, Note_on_c, 0, 63, 49
1, 104622, Note_off_c, 0, 59, 62
1, 104639, Note_off_c, 0, 66, 60
1, 104645, Note_off_c, 0, 63, 55
1, 104739, Note_on_c, 0, 63, 67
1, 104741, Note_on_c, 0, 39, 79
1, 104742, Note_on_c, 0, 59, 66
1, 104742, Note_on_c, 0, 66, 77
1, 104750, Control_c, 0, 64, 105
1, 104763, Note_off_c, 0, 63, 68
1, 104764, Note_off_c, 0, 59, 67
1, 104764, Control_c, 0, 64, 70
1, 104765, Note_off_c, 0, 66, 66
1, 104778, Note_off_c, 0, 39, 55
1, 104779, Control_c, 0, 64, 0
1, 104815, Note_on_c, 0, 40, 83
1, 104816, Note_on_c, 0, 63, 85
1, 104817, Note_on_c, 0, 66, 79
1, 104819, Note_on_c, 0, 59, 75
1, 104838, Note_off_c, 0, 66, 69
1, 104840, Note_off_c, 0, 63, 64
1, 104841, Note_off_c, 0, 59, 68
1, 104848, Note_off_c, 0, 40, 64
1, 104870, Poly_aftertouch_c, 0, 39, 0
1, 104881, Note_on_c, 0, 42, 98
1, 104882, Note_on_c, 0, 63, 82
1, 104882, Note_on_c, 0, 59, 79
1, 104888, Note_on_c, 0, 66, 88
1, 104903, Note_off_c, 0, 59, 69
1, 104914, Note_off_c, 0, 66, 63
1, 104916, Poly_aftertouch_c, 0, 39, 0
1, 104916, Note_off_c, 0, 63, 63
1, 104922, Note_off_c, 0, 42, 66
1, 105044, Note_on_c, 0, 42, 78
1, 105051, Note_on_c, 0, 63, 77
1, 105057, Note_on_c, 0, 59, 72
1, 105060, Note_on_c, 0, 66, 63
1, 105068, Note_off_c, 0, 63, 70
1, 105075, Note_off_c, 0, 59, 64
1, 105076, Note_off_c, 0, 42, 67
1, 105079, Note_off_c, 0, 66, 64
1, 105121, Note_on_c, 0, 40, 82
1, 105121, Note_on_c, 0, 63, 84
1, 105128, Note_on_c, 0, 59, 72
1, 105135, Note_on_c, 0, 66, 67
1, 105142, Note_off_c, 0, 63, 66
1, 105152, Note_off_c, 0, 66, 66
1, 105153, Note_off_c, 0, 59, 64
1, 105206, Note_on_c, 0, 39, 86
1, 105207, Note_on_c, 0, 63, 90
1, 105207, Note_on_c, 0, 66, 92
1, 105219, Note_off_c, 0, 40, 63
1, 105219, Note_on_c, 0, 59, 59
1, 105228, Note_off_c, 0, 63, 67
1, 105234, Note_off_c, 0, 66, 62
1, 105234, Note_off_c, 0, 39, 65
1, 105242, Note_off_c, 0, 59, 61
1, 105371, Note_on_c, 0, 39, 81
1, 105383, Note_on_c, 0, 59, 61
1, 105383, Note_on_c, 0, 63, 68
1, 105386, Note_on_c, 0, 66, 66
1, 105403, Note_off_c, 0, 59, 62
1, 105404, Note_off_c, 0, 63, 66
1, 105406, Note_off_c, 0, 66, 65
1, 105419, Note_off_c, 0, 39, 57
1, 105450, Note_on_c, 0, 66, 76
1, 105451, Note_on_c, 0, 37, 82
1, 105451, Note_on_c, 0, 63, 78
1, 105457, Note_on_c, 0, 59, 63
1, 105470, Note_off_c, 0, 66, 69
1, 105472, Note_off_c, 0, 63, 70
1, 105479, Note_off_c, 0, 59, 61
1, 105518, Note_off_c, 0, 37, 58
1, 105520, Note_on_c, 0, 35, 86
1, 105529, Note_on_c, 0, 63, 88
1, 105529, Control_c, 0, 64, 65
1, 105532, Note_on_c, 0, 66, 86
1, 105538, Note_on_c, 0, 59, 71
1, 105544, Control_c, 0, 64, 70
1, 105549, Note_off_c, 0, 35, 69
1, 105553, Note_off_c, 0, 66, 66
1, 105558, Note_off_c, 0, 59, 63
1, 105559, Control_c, 0, 64, 63
1, 105561, Note_off_c, 0, 63, 58
1, 105574, Control_c, 0, 64, 0
1, 105689, Note_on_c, 0, 62, 79
1, 105690, Note_on_c, 0, 54, 87
1, 105690, Note_on_c, 0, 59, 65
1, 105690, Note_on_c, 0, 66, 80
1, 105711, Note_off_c, 0, 62, 69
1, 105711, Note_off_c, 0, 66, 70
1, 105715, Note_off_c, 0, 59, 65
1, 105740, Note_off_c, 0, 54, 61
1, 105768, Note_on_c, 0, 62, 75
1, 105773, Note_on_c, 0, 59, 65
1, 105774, Note_on_c, 0, 66, 70
1, 105799, Note_off_c, 0, 66, 66
1, 105808, Note_off_c, 0, 59, 53
1, 105840, Note_on_c, 0, 47, 83
1, 105849, Note_on_c, 0, 66, 80
1, 105850, Note_on_c, 0, 59, 30
1, 105858, Note_off_c, 0, 62, 64
1, 105869, Note_off_c, 0, 47, 68
1, 105869, Note_off_c, 0, 66, 70
1, 105869, Control_c, 0, 64, 80
1, 105878, Note_off_c, 0, 59, 52
1, 105884, Control_c, 0, 64, 127
1, 106010, Control_c, 0, 64, 84
1, 106012, Note_on_c, 0, 71, 97
1, 106015, Note_on_c, 0, 35, 87
1, 106025, Control_c, 0, 64, 0
1, 106028, Note_on_c, 0, 62, 63
1, 106039, Note_off_c, 0, 71, 67
1, 106041, Note_off_c, 0, 35, 70
1, 106051, Note_off_c, 0, 62, 60
1, 106088, Note_on_c, 0, 35, 92
1, 106100, Note_on_c, 0, 73, 89
1, 106111, Note_on_c, 0, 62, 67
1, 106114, Note_off_c, 0, 35, 71
1, 106118, Note_off_c, 0, 73, 72
1, 106131, Note_off_c, 0, 62, 64
1, 106158, Poly_aftertouch_c, 0, 66, 0
1, 106170, Note_on_c, 0, 74, 103
1, 106172, Note_on_c, 0, 66, 16
1, 106176, Note_on_c, 0, 62, 89
1, 106178, Note_on_c, 0, 35, 89
1, 106180, Note_on_c, 0, 33, 83
1, 106197, Note_off_c, 0, 62, 64
1, 106200, Note_off_c, 0, 35, 70
1, 106206, Note_on_c, 0, 73, 30
1, 106207, Note_off_c, 0, 73, 127
1, 106211, Note_off_c, 0, 66, 60
1, 106211, Note_off_c, 0, 33, 64
1, 106211, Note_off_c, 0, 74, 68
1, 106340, Note_on_c, 0, 35, 75
1, 106343, Note_on_c, 0, 74, 94
1, 106345, Note_on_c, 0, 62, 82
1, 106345, Note_on_c, 0, 66, 80
1, 106360, Note_off_c, 0, 74, 72
1, 106365, Note_off_c, 0, 66, 70
1, 106366, Note_off_c, 0, 35, 64
1, 106366, Note_off_c, 0, 62, 69
1, 106418, Note_on_c, 0, 62, 83
1, 106418, Note_on_c, 0, 73, 94
1, 106423, Note_on_c, 0, 35, 80
1, 106426, Note_on_c, 0, 66, 73
1, 106439, Note_off_c, 0, 62, 70
1, 106443, Note_off_c, 0, 73, 65
1, 106450, Note_off_c, 0, 35, 66
1, 106450, Note_off_c, 0, 66, 66
1, 106501, Note_on_c, 0, 35, 94
1, 106502, Note_on_c, 0, 71, 99
1, 106504, Note_on_c, 0, 62, 93
1, 106508, Note_on_c, 0, 66, 74
1, 106514, Note_on_c, 0, 70, 61
1, 106526, Note_off_c, 0, 35, 71
1, 106528, Note_off_c, 0, 62, 65
1, 106530, Note_off_c, 0, 66, 70
1, 106533, Note_off_c, 0, 70, 63
1, 106542, Note_off_c, 0, 71, 64
1, 106664, Note_on_c, 0, 71, 92
1, 106666, Note_on_c, 0, 35, 76
1, 106680, Note_on_c, 0, 62, 73
1, 106688, Note_on_c, 0, 66, 61
1, 106698, Note_off_c, 0, 35, 68
1, 106699, Note_off_c, 0, 71, 64
1, 106704, Note_off_c, 0, 62, 67
1, 106709, Note_off_c, 0, 66, 63
1, 106748, Note_on_c, 0, 35, 83
1, 106748, Note_on_c, 0, 69, 89
1, 106758, Note_on_c, 0, 62, 70
1, 106776, Note_off_c, 0, 35, 70
1, 106782, Note_off_c, 0, 62, 67
1, 106815, Note_on_c, 0, 35, 83
1, 106831, Note_on_c, 0, 68, 83
1, 106833, Control_c, 0, 64, 75
1, 106841, Note_off_c, 0, 35, 70
1, 106844, Note_on_c, 0, 62, 57
1, 106848, Control_c, 0, 64, 127
1, 106856, Note_off_c, 0, 69, 60
1, 106908, Note_off_c, 0, 68, 60
1, 106916, Note_off_c, 0, 62, 55
1, 106966, Control_c, 0, 64, 86
1, 106981, Control_c, 0, 64, 61
1, 106996, Control_c, 0, 64, 0
1, 107004, Note_on_c, 0, 83, 97
1, 107005, Note_on_c, 0, 68, 76
1, 107005, Note_on_c, 0, 65, 68
1, 107007, Note_on_c, 0, 62, 65
1, 107026, Note_off_c, 0, 65, 67
1, 107027, Note_off_c, 0, 68, 67
1, 107029, Note_off_c, 0, 62, 63
1, 107030, Note_off_c, 0, 83, 67
1, 107082, Note_on_c, 0, 65, 76
1, 107082, Note_on_c, 0, 68, 74
1, 107089, Note_on_c, 0, 62, 68
1, 107106, Note_off_c, 0, 65, 67
1, 107110, Note_off_c, 0, 68, 63
1, 107117, Note_off_c, 0, 62, 63
1, 107159, Note_on_c, 0, 74, 87
1, 107173, Note_on_c, 0, 62, 63
1, 107173, Note_on_c, 0, 65, 72
1, 107174, Control_c, 0, 64, 68
1, 107175, Note_off_c, 0, 74, 75
1, 107183, Note_on_c, 0, 68, 70
1, 107189, Control_c, 0, 64, 127
1, 107207, Note_off_c, 0, 62, 60
1, 107217, Note_off_c, 0, 68, 56
1, 107224, Note_off_c, 0, 65, 60
1, 107345, Note_on_c, 0, 68, 78
1, 107347, Note_on_c, 0, 35, 90
1, 107350, Note_on_c, 0, 65, 62
1, 107352, Note_on_c, 0, 62, 61
1, 107368, Note_off_c, 0, 65, 66
1, 107368, Note_off_c, 0, 68, 66
1, 107375, Note_off_c, 0, 62, 60
1, 107376, Note_off_c, 0, 35, 68
1, 107382, Control_c, 0, 64, 89
1, 107397, Control_c, 0, 64, 0
1, 107410, Note_on_c, 0, 68, 87
1, 107416, Note_on_c, 0, 65, 86
1, 107419, Note_on_c, 0, 37, 94
1, 107443, Note_off_c, 0, 65, 72
1, 107443, Note_off_c, 0, 68, 59
1, 107459, Note_off_c, 0, 37, 63
1, 107491, Note_on_c, 0, 68, 94
1, 107493, Note_on_c, 0, 65, 90
1, 107496, Note_on_c, 0, 62, 77
1, 107496, Note_on_c, 0, 38, 100
1, 107515, Note_off_c, 0, 65, 68
1, 107517, Note_off_c, 0, 62, 68
1, 107535, Note_on_c, 0, 33, 33
1, 107535, Note_off_c, 0, 38, 66
1, 107535, Note_off_c, 0, 68, 63
1, 107578, Note_off_c, 0, 33, 52
1, 107660, Note_on_c, 0, 38, 90
1, 107669, Note_on_c, 0, 68, 82
1, 107673, Note_on_c, 0, 65, 71
1, 107686, Note_on_c, 0, 62, 46
1, 107687, Note_off_c, 0, 68, 70
1, 107691, Note_off_c, 0, 65, 68
1, 107699, Note_off_c, 0, 38, 63
1, 107715, Note_off_c, 0, 62, 54
1, 107739, Note_on_c, 0, 68, 86
1, 107742, Note_on_c, 0, 37, 87
1, 107743, Note_on_c, 0, 65, 82
1, 107747, Note_on_c, 0, 62, 56
1, 107758, Note_off_c, 0, 68, 69
1, 107762, Note_off_c, 0, 65, 71
1, 107770, Note_off_c, 0, 37, 68
1, 107771, Note_off_c, 0, 62, 58
1, 107810, Note_on_c, 0, 68, 89
1, 107812, Note_on_c, 0, 35, 86
1, 107820, Note_on_c, 0, 65, 78
1, 107839, Note_off_c, 0, 35, 71
1, 107842, Note_off_c, 0, 65, 71
1, 107848, Note_on_c, 0, 62, 20
1, 107853, Note_off_c, 0, 68, 61
1, 107888, Note_off_c, 0, 62, 32
1, 107970, Note_on_c, 0, 35, 75
1, 107973, Note_on_c, 0, 68, 85
1, 107976, Note_on_c, 0, 62, 66
1, 107997, Note_off_c, 0, 68, 64
1, 108000, Note_off_c, 0, 35, 67
1, 108003, Note_off_c, 0, 62, 65
1, 108043, Note_on_c, 0, 33, 77
1, 108048, Note_on_c, 0, 69, 88
1, 108050, Note_on_c, 0, 65, 55
1, 108056, Note_on_c, 0, 62, 67
1, 108069, Note_off_c, 0, 69, 66
1, 108074, Note_off_c, 0, 65, 62
1, 108075, Note_off_c, 0, 33, 66
1, 108076, Note_off_c, 0, 62, 63
1, 108114, Note_on_c, 0, 32, 87
1, 108121, Note_on_c, 0, 71, 85
1, 108134, Note_on_c, 0, 62, 51
1, 108135, Note_on_c, 0, 65, 48
1, 108137, Note_off_c, 0, 71, 73
1, 108141, Note_off_c, 0, 32, 69
1, 108161, Note_off_c, 0, 62, 37
1, 108161, Note_off_c, 0, 65, 40
1, 108292, Note_on_c, 0, 71, 82
1, 108297, Note_on_c, 0, 32, 75
1, 108311, Note_off_c, 0, 71, 72
1, 108349, Note_on_c, 0, 65, 64
1, 108360, Note_on_c, 0, 69, 84
1, 108370, Poly_aftertouch_c, 0, 62, 127
1, 108382, Note_off_c, 0, 69, 65
1, 108390, Note_off_c, 0, 65, 64
1, 108415, Poly_aftertouch_c, 0, 62, 0
1, 108435, Control_c, 0, 64, 64
1, 108435, Note_on_c, 0, 62, 33
1, 108436, Note_on_c, 0, 68, 82
1, 108450, Control_c, 0, 64, 88
1, 108462, Note_off_c, 0, 32, 62
1, 108464, Control_c, 0, 64, 127
1, 108468, Note_off_c, 0, 68, 60
1, 108474, Note_off_c, 0, 62, 61
1, 108596, Note_on_c, 0, 47, 77
1, 108601, Note_on_c, 0, 62, 68
1, 108610, Note_on_c, 0, 68, 59
1, 108616, Note_on_c, 0, 66, 34
1, 108617, Note_off_c, 0, 66, 127
1, 108621, Note_off_c, 0, 62, 63
1, 108626, Note_off_c, 0, 68, 69
1, 108629, Note_off_c, 0, 47, 65
1, 108641, Note_on_c, 0, 65, 19
1, 108667, Note_on_c, 0, 61, 87
1, 108673, Note_on_c, 0, 49, 84
1, 108673, Control_c, 0, 64, 87
1, 108677, Note_on_c, 0, 68, 67
1, 108687, Control_c, 0, 64, 60
1, 108696, Note_off_c, 0, 68, 64
1, 108702, Control_c, 0, 64, 0
1, 108703, Note_off_c, 0, 49, 63
1, 108704, Note_off_c, 0, 65, 63
1, 108708, Note_off_c, 0, 61, 60
1, 108739, Note_on_c, 0, 50, 94
1, 108741, Note_on_c, 0, 68, 87
1, 108742, Note_on_c, 0, 59, 90
1, 108745, Note_on_c, 0, 65, 65
1, 108751, Note_on_c, 0, 61, 39
1, 108757, Note_off_c, 0, 61, 0
1, 108767, Note_off_c, 0, 68, 62
1, 108769, Note_off_c, 0, 50, 65
1, 108775, Note_off_c, 0, 59, 61
1, 108776, Poly_aftertouch_c, 0, 61, 0
1, 108778, Note_off_c, 0, 65, 65
1, 108900, Note_on_c, 0, 50, 79
1, 108902, Note_on_c, 0, 59, 89
1, 108915, Note_on_c, 0, 68, 66
1, 108917, Note_on_c, 0, 65, 61
1, 108928, Note_off_c, 0, 59, 71
1, 108941, Note_off_c, 0, 68, 65
1, 108942, Note_off_c, 0, 50, 66
1, 108945, Note_off_c, 0, 65, 62
1, 108983, Note_on_c, 0, 49, 96
1, 108984, Note_on_c, 0, 61, 88
1, 108996, Note_on_c, 0, 68, 70
1, 108999, Note_on_c, 0, 65, 68
1, 109017, Note_off_c, 0, 65, 67
1, 109019, Note_off_c, 0, 68, 65
1, 109020, Note_off_c, 0, 61, 59
1, 109021, Note_off_c, 0, 49, 66
1, 109049, Note_on_c, 0, 47, 94
1, 109057, Note_on_c, 0, 62, 90
1, 109073, Poly_aftertouch_c, 0, 68, 127
1, 109085, Note_off_c, 0, 47, 69
1, 109090, Poly_aftertouch_c, 0, 68, 0
1, 109097, Note_off_c, 0, 62, 63
1, 109208, Note_on_c, 0, 47, 80
1, 109213, Note_on_c, 0, 68, 86
1, 109215, Note_on_c, 0, 62, 81
1, 109231, Note_on_c, 0, 65, 55
1, 109234, Note_off_c, 0, 68, 66
1, 109237, Note_off_c, 0, 47, 70
1, 109239, Note_off_c, 0, 62, 67
1, 109255, Note_off_c, 0, 65, 60
1, 109280, Note_on_c, 0, 69, 92
1, 109285, Note_on_c, 0, 45, 90
1, 109288, Note_on_c, 0, 62, 68
1, 109289, Note_on_c, 0, 65, 75
1, 109312, Note_off_c, 0, 65, 70
1, 109315, Note_off_c, 0, 62, 65
1, 109316, Note_off_c, 0, 69, 65
1, 109322, Note_off_c, 0, 45, 65
1, 109357, Note_on_c, 0, 62, 94
1, 109357, Note_on_c, 0, 65, 97
1, 109359, Note_on_c, 0, 44, 99
1, 109359, Note_on_c, 0, 71, 94
1, 109361, Control_c, 0, 64, 98
1, 109374, Note_on_c, 0, 69, 46
1, 109376, Control_c, 0, 64, 127
1, 109377, Note_off_c, 0, 65, 69
1, 109380, Note_off_c, 0, 62, 66
1, 109387, Note_off_c, 0, 44, 69
1, 109399, Note_off_c, 0, 71, 62
1, 109404, Note_off_c, 0, 69, 57
1, 109481, Control_c, 0, 64, 97
1, 109495, Control_c, 0, 64, 64
1, 109510, Control_c, 0, 64, 0
1, 109534, Note_on_c, 0, 71, 89
1, 109535, Note_on_c, 0, 44, 89
1, 109541, Note_on_c, 0, 62, 72
1, 109543, Note_on_c, 0, 65, 72
1, 109563, Note_off_c, 0, 71, 58
1, 109567, Note_off_c, 0, 62, 66
1, 109567, Note_off_c, 0, 65, 69
1, 109578, Note_off_c, 0, 44, 62
1, 109609, Note_on_c, 0, 65, 72
1, 109611, Note_on_c, 0, 45, 87
1, 109616, Note_on_c, 0, 69, 82
1, 109619, Note_on_c, 0, 62, 75
1, 109635, Note_off_c, 0, 65, 66
1, 109643, Note_off_c, 0, 69, 61
1, 109646, Note_off_c, 0, 62, 65
1, 109647, Note_off_c, 0, 45, 64
1, 109693, Note_on_c, 0, 47, 87
1, 109696, Note_on_c, 0, 68, 80
1, 109699, Note_on_c, 0, 62, 70
1, 109717, Note_off_c, 0, 47, 71
1, 109721, Note_off_c, 0, 68, 65
1, 109725, Note_off_c, 0, 62, 65
1, 109851, Note_on_c, 0, 47, 65
1, 109853, Note_on_c, 0, 62, 77
1, 109858, Note_on_c, 0, 68, 66
1, 109876, Note_off_c, 0, 62, 68
1, 109877, Note_off_c, 0, 68, 65
1, 109878, Note_off_c, 0, 47, 67
1, 109936, Note_on_c, 0, 68, 67
1, 109938, Note_on_c, 0, 65, 36
1, 109942, Note_on_c, 0, 47, 55
1, 109962, Control_c, 0, 64, 21
1, 109966, Note_off_c, 0, 68, 0
1, 109969, Note_off_c, 0, 47, 58
1, 109976, Control_c, 0, 64, 69
1, 109991, Control_c, 0, 64, 81
1, 110000, Note_on_c, 0, 61, 76
1, 110003, Poly_aftertouch_c, 0, 68, 127
1, 110006, Note_on_c, 0, 49, 83
1, 110006, Control_c, 0, 64, 106
1, 110021, Control_c, 0, 64, 127
1, 110024, Note_off_c, 0, 61, 68
1, 110024, Note_off_c, 0, 65, 0
1, 110025, Poly_aftertouch_c, 0, 68, 0
1, 110033, Note_off_c, 0, 49, 68
1, 110082, Poly_aftertouch_c, 0, 65, 0
1, 110125, Control_c, 0, 64, 117
1, 110140, Control_c, 0, 64, 84
1, 110154, Control_c, 0, 64, 66
1, 110158, Note_on_c, 0, 44, 69
1, 110167, Note_on_c, 0, 65, 68
1, 110169, Control_c, 0, 64, 0
1, 110174, Note_on_c, 0, 74, 66
1, 110180, Note_on_c, 0, 68, 46
1, 110187, Note_off_c, 0, 44, 66
1, 110193, Note_off_c, 0, 74, 66
1, 110194, Note_off_c, 0, 65, 67
1, 110213, Note_off_c, 0, 68, 53
1, 110236, Note_on_c, 0, 44, 77
1, 110245, Note_on_c, 0, 74, 85
1, 110258, Note_on_c, 0, 65, 60
1, 110269, Note_off_c, 0, 74, 67
1, 110270, Note_on_c, 0, 68, 40
1, 110278, Note_off_c, 0, 44, 62
1, 110279, Note_off_c, 0, 65, 63
1, 110289, Control_c, 0, 64, 46
1, 110304, Control_c, 0, 64, 71
1, 110319, Control_c, 0, 64, 88
1, 110320, Note_on_c, 0, 53, 75
1, 110325, Note_on_c, 0, 73, 81
1, 110329, Note_off_c, 0, 68, 0
1, 110329, Note_on_c, 0, 68, 59
1, 110333, Control_c, 0, 64, 127
1, 110337, Note_on_c, 0, 65, 72
1, 110346, Note_off_c, 0, 73, 70
1, 110351, Note_off_c, 0, 53, 67
1, 110357, Note_off_c, 0, 68, 64
1, 110364, Note_off_c, 0, 65, 68
1, 110478, Note_on_c, 0, 41, 87
1, 110495, Note_on_c, 0, 63, 57
1, 110515, Note_on_c, 0, 65, 41
1, 110519, Control_c, 0, 64, 101
1, 110521, Note_on_c, 0, 66, 4
1, 110522, Note_off_c, 0, 66, 127
1, 110522, Note_off_c, 0, 63, 59
1, 110528, Note_off_c, 0, 41, 61
1, 110533, Control_c, 0, 64, 70
1, 110538, Note_off_c, 0, 65, 58
1, 110548, Control_c, 0, 64, 0
1, 110560, Note_on_c, 0, 62, 2
1, 110566, Note_on_c, 0, 68, 78
1, 110567, Note_on_c, 0, 41, 56
1, 110572, Poly_aftertouch_c, 0, 66, 0
1, 110573, Note_on_c, 0, 65, 76
1, 110594, Note_off_c, 0, 41, 64
1, 110608, Note_off_c, 0, 65, 62
1, 110610, Note_off_c, 0, 62, 59
1, 110612, Note_off_c, 0, 68, 60
1, 110637, Control_c, 0, 64, 68
1, 110647, Note_on_c, 0, 56, 87
1, 110651, Control_c, 0, 64, 90
1, 110656, Note_on_c, 0, 61, 79
1, 110656, Note_on_c, 0, 68, 78
1, 110666, Control_c, 0, 64, 127
1, 110679, Note_off_c, 0, 56, 63
1, 110682, Note_off_c, 0, 61, 67
1, 110697, Note_off_c, 0, 68, 63
1, 110793, Note_on_c, 0, 37, 85
1, 110807, Note_on_c, 0, 65, 78
1, 110807, Note_on_c, 0, 68, 76
1, 110810, Note_on_c, 0, 74, 80
1, 110814, Control_c, 0, 64, 81
1, 110819, Note_off_c, 0, 37, 69
1, 110829, Control_c, 0, 64, 0
1, 110830, Note_off_c, 0, 65, 71
1, 110831, Note_off_c, 0, 74, 69
1, 110832, Note_off_c, 0, 68, 67
1, 110879, Note_on_c, 0, 74, 97
1, 110881, Note_on_c, 0, 37, 92
1, 110886, Note_on_c, 0, 68, 85
1, 110889, Control_c, 0, 64, 63
1, 110895, Note_on_c, 0, 65, 74
1, 110903, Control_c, 0, 64, 85
1, 110904, Note_off_c, 0, 37, 71
1, 110910, Note_off_c, 0, 68, 65
1, 110918, Control_c, 0, 64, 127
1, 110918, Note_off_c, 0, 74, 65
1, 110919, Note_off_c, 0, 65, 66
1, 110963, Note_on_c, 0, 65, 100
1, 110963, Note_on_c, 0, 68, 82
1, 110966, Note_on_c, 0, 73, 95
1, 110966, Note_on_c, 0, 74, 66
1, 110972, Note_on_c, 0, 59, 92
1, 110983, Note_off_c, 0, 74, 68
1, 110987, Note_off_c, 0, 68, 65
1, 110988, Note_off_c, 0, 65, 61
1, 110990, Note_off_c, 0, 73, 63
1, 111011, Note_off_c, 0, 59, 65
1, 111097, Control_c, 0, 64, 100
1, 111112, Control_c, 0, 64, 65
1, 111126, Control_c, 0, 64, 0
1, 111134, Note_on_c, 0, 47, 73
1, 111139, Note_on_c, 0, 68, 69
1, 111144, Note_on_c, 0, 62, 61
1, 111157, Note_on_c, 0, 65, 38
1, 111158, Note_off_c, 0, 47, 68
1, 111160, Note_off_c, 0, 68, 71
1, 111166, Note_off_c, 0, 62, 63
1, 111193, Control_c, 0, 64, 24
1, 111199, Note_off_c, 0, 65, 0
1, 111208, Control_c, 0, 64, 80
1, 111209, Poly_aftertouch_c, 0, 65, 0
1, 111215, Note_on_c, 0, 47, 85
1, 111223, Note_on_c, 0, 65, 56
1, 111223, Control_c, 0, 64, 127
1, 111225, Note_on_c, 0, 62, 70
1, 111225, Note_on_c, 0, 68, 72
1, 111249, Note_off_c, 0, 68, 66
1, 111249, Note_off_c, 0, 62, 65
1, 111255, Note_off_c, 0, 65, 65
1, 111260, Note_off_c, 0, 47, 64
1, 111292, Note_on_c, 0, 68, 91
1, 111296, Note_on_c, 0, 61, 99
1, 111300, Note_on_c, 0, 49, 100
1, 111316, Note_on_c, 0, 65, 55
1, 111325, Note_on_c, 0, 62, 26
1, 111326, Note_off_c, 0, 62, 127
1, 111334, Note_off_c, 0, 61, 65
1, 111337, Note_off_c, 0, 49, 67
1, 111338, Note_off_c, 0, 65, 62
1, 111346, Note_off_c, 0, 68, 63
1, 111360, Poly_aftertouch_c, 0, 62, 0
1, 111446, Control_c, 0, 64, 93
1, 111461, Control_c, 0, 64, 59
1, 111469, Note_on_c, 0, 65, 77
1, 111475, Control_c, 0, 64, 0
1, 111478, Note_on_c, 0, 68, 66
1, 111478, Note_on_c, 0, 74, 78
1, 111483, Note_on_c, 0, 44, 52
1, 111488, Note_off_c, 0, 65, 72
1, 111494, Note_off_c, 0, 74, 71
1, 111495, Note_off_c, 0, 68, 67
1, 111516, Note_off_c, 0, 44, 0
1, 111530, Note_on_c, 0, 44, 77
1, 111541, Note_on_c, 0, 74, 98
1, 111549, Note_on_c, 0, 68, 76
1, 111549, Control_c, 0, 64, 59
1, 111551, Note_on_c, 0, 65, 74
1, 111564, Control_c, 0, 64, 79
1, 111569, Note_off_c, 0, 68, 70
1, 111574, Note_off_c, 0, 65, 66
1, 111579, Note_off_c, 0, 74, 62
1, 111579, Control_c, 0, 64, 127
1, 111592, Note_off_c, 0, 44, 64
1, 111624, Note_on_c, 0, 53, 90
1, 111626, Note_on_c, 0, 68, 90
1, 111628, Note_on_c, 0, 65, 91
1, 111628, Note_on_c, 0, 73, 102
1, 111629, Note_on_c, 0, 74, 79
1, 111649, Note_off_c, 0, 74, 73
1, 111673, Note_off_c, 0, 53, 66
1, 111674, Note_off_c, 0, 65, 61
1, 111688, Note_off_c, 0, 68, 61
1, 111692, Note_off_c, 0, 73, 63
1, 111741, Control_c, 0, 64, 84
1, 111756, Control_c, 0, 64, 67
1, 111771, Control_c, 0, 64, 71
1, 111786, Control_c, 0, 64, 84
1, 111788, Note_on_c, 0, 41, 95
1, 111802, Control_c, 0, 64, 119
1, 111817, Control_c, 0, 64, 127
1, 111820, Note_on_c, 0, 62, 76
1, 111829, Note_off_c, 0, 41, 63
1, 111843, Note_off_c, 0, 62, 67
1, 111845, Note_on_c, 0, 64, 39
1, 111878, Note_off_c, 0, 64, 55
1, 111894, Note_on_c, 0, 62, 87
1, 111894, Note_on_c, 0, 65, 62
1, 111911, Note_on_c, 0, 68, 75
1, 111914, Poly_aftertouch_c, 0, 61, 0
1, 111928, Control_c, 0, 64, 79
1, 111943, Control_c, 0, 64, 0
1, 111962, Note_on_c, 0, 56, 95
1, 111971, Note_on_c, 0, 61, 92
1, 111972, Control_c, 0, 64, 73
1, 111986, Note_off_c, 0, 62, 62
1, 111987, Control_c, 0, 64, 127
1, 112001, Note_off_c, 0, 65, 61
1, 112003, Note_off_c, 0, 56, 66
1, 112024, Note_off_c, 0, 61, 65
1, 112030, Note_off_c, 0, 68, 59
1, 112119, Note_on_c, 0, 37, 90
1, 112135, Control_c, 0, 64, 83
1, 112143, Note_on_c, 0, 65, 78
1, 112144, Note_off_c, 0, 37, 69
1, 112149, Control_c, 0, 64, 0
1, 112153, Note_on_c, 0, 68, 56
1, 112162, Note_on_c, 0, 74, 49
1, 112162, Note_off_c, 0, 65, 71
1, 112165, Note_on_c, 0, 76, 44
1, 112178, Note_off_c, 0, 68, 37
1, 112189, Note_off_c, 0, 74, 37
1, 112193, Note_off_c, 0, 76, 39
1, 112205, Note_on_c, 0, 37, 77
1, 112209, Control_c, 0, 64, 55
1, 112218, Note_on_c, 0, 74, 77
1, 112223, Control_c, 0, 64, 68
1, 112232, Note_off_c, 0, 37, 66
1, 112238, Control_c, 0, 64, 76
1, 112249, Note_on_c, 0, 68, 44
1, 112253, Control_c, 0, 64, 90
1, 112256, Note_off_c, 0, 74, 57
1, 112268, Control_c, 0, 64, 127
1, 112280, Note_on_c, 0, 65, 73
1, 112290, Note_off_c, 0, 68, 47
1, 112290, Note_on_c, 0, 73, 95
1, 112292, Note_on_c, 0, 74, 52
1, 112308, Note_off_c, 0, 65, 68
1, 112311, Note_off_c, 0, 74, 65
1, 112314, Note_on_c, 0, 59, 75
1, 112322, Note_off_c, 0, 73, 69
1, 112339, Note_off_c, 0, 59, 67
1, 112466, Note_on_c, 0, 80, 98
1, 112469, Note_on_c, 0, 56, 100
1, 112471, Note_on_c, 0, 68, 95
1, 112473, Note_on_c, 0, 44, 93
1, 112474, Control_c, 0, 64, 77
1, 112487, Note_off_c, 0, 56, 74
1, 112488, Note_off_c, 0, 68, 71
1, 112489, Note_off_c, 0, 80, 68
1, 112489, Control_c, 0, 64, 0
1, 112496, Note_off_c, 0, 44, 70
1, 112637, Note_on_c, 0, 49, 98
1, 112638, Note_on_c, 0, 37, 94
1, 112640, Note_on_c, 0, 73, 99
1, 112645, Note_on_c, 0, 61, 83
1, 112656, Note_off_c, 0, 73, 70
1, 112657, Note_off_c, 0, 49, 70
1, 112659, Note_off_c, 0, 37, 70
1, 112675, Note_off_c, 0, 61, 69
1, 112811, Note_on_c, 0, 56, 99
1, 112811, Note_on_c, 0, 44, 95
1, 112815, Note_on_c, 0, 80, 101
1, 112820, Note_on_c, 0, 68, 90
1, 112828, Note_off_c, 0, 56, 74
1, 112828, Note_off_c, 0, 80, 77
1, 112834, Note_off_c, 0, 44, 71
1, 112836, Note_off_c, 0, 68, 73
1, 112985, Note_on_c, 0, 49, 98
1, 112986, Note_on_c, 0, 37, 95
1, 112986, Note_on_c, 0, 73, 101
1, 112992, Note_on_c, 0, 61, 83
1, 113005, Note_off_c, 0, 49, 71
1, 113006, Note_off_c, 0, 73, 67
1, 113007, Note_off_c, 0, 37, 71
1, 113012, Note_off_c, 0, 61, 69
1, 113163, Note_on_c, 0, 56, 100
1, 113164, Note_on_c, 0, 44, 96
1, 113170, Note_on_c, 0, 80, 96
1, 113176, Note_on_c, 0, 68, 87
1, 113181, Note_off_c, 0, 56, 73
1, 113184, Note_off_c, 0, 44, 69
1, 113187, Note_off_c, 0, 80, 68
1, 113194, Note_off_c, 0, 68, 72
1, 113383, Note_on_c, 0, 49, 104
1, 113385, Note_on_c, 0, 37, 97
1, 113386, Control_c, 0, 64, 58
1, 113391, Note_on_c, 0, 73, 97
1, 113398, Note_on_c, 0, 61, 93
1, 113402, Note_off_c, 0, 49, 74
1, 113402, Control_c, 0, 64, 93
1, 113406, Note_off_c, 0, 37, 74
1, 113424, Control_c, 0, 64, 127
1, 113501, Note_off_c, 0, 61, 0
1, 113501, Note_on_c, 0, 61, 8
1, 113560, Note_off_c, 0, 61, 44
1, 113642, Note_off_c, 0, 73, 53
1, 113734, Note_on_c, 0, 74, 90
1, 113735, Control_c, 0, 64, 84
1, 113735, Note_on_c, 0, 50, 93
1, 113744, Note_on_c, 0, 38, 75
1, 113747, Note_on_c, 0, 62, 66
1, 113750, Control_c, 0, 64, 56
1, 113757, Note_off_c, 0, 50, 73
1, 113765, Control_c, 0, 64, 0
1, 113771, Note_off_c, 0, 38, 65
1, 113773, Note_off_c, 0, 74, 66
1, 113774, Note_off_c, 0, 62, 65
1, 113794, Control_c, 0, 64, 55
1, 113809, Control_c, 0, 64, 74
1, 113813, Note_on_c, 0, 73, 98
1, 113813, Note_on_c, 0, 49, 99
1, 113813, Note_on_c, 0, 61, 95
1, 113824, Control_c, 0, 64, 102
1, 113825, Note_on_c, 0, 37, 89
1, 113827, Note_on_c, 0, 74, 57
1, 113839, Control_c, 0, 64, 127
1, 113840, Note_off_c, 0, 49, 65
1, 113845, Note_off_c, 0, 37, 68
1, 113845, Note_off_c, 0, 61, 60
1, 113852, Note_off_c, 0, 74, 60
1, 113863, Note_off_c, 0, 73, 65
1, 113962, Poly_aftertouch_c, 0, 37, 127
1, 114004, Poly_aftertouch_c, 0, 37, 0
1, 114150, Control_c, 0, 64, 85
1, 114172, Control_c, 0, 64, 30
1, 114187, Control_c, 0, 64, 0
1, 114192, Note_on_c, 0, 66, 99
1, 114194, Note_on_c, 0, 54, 90
1, 114200, Note_on_c, 0, 78, 107
1, 114207, Note_on_c, 0, 69, 90
1, 114207, Note_on_c, 0, 73, 91
1, 114262, Control_c, 0, 64, 68
1, 114268, Note_off_c, 0, 69, 59
1, 114277, Control_c, 0, 64, 94
1, 114279, Note_off_c, 0, 73, 59
1, 114292, Control_c, 0, 64, 127
1, 114318, Note_off_c, 0, 78, 62
1, 114344, Note_off_c, 0, 66, 64
1, 114349, Note_on_c, 0, 80, 99
1, 114353, Note_on_c, 0, 69, 100
1, 114361, Note_on_c, 0, 73, 89
1, 114366, Note_on_c, 0, 78, 60
1, 114387, Note_off_c, 0, 54, 66
1, 114387, Note_off_c, 0, 78, 67
1, 114419, Note_off_c, 0, 69, 55
1, 114445, Note_off_c, 0, 73, 58
1, 114457, Note_off_c, 0, 80, 61
1, 114532, Note_on_c, 0, 54, 104
1, 114532, Note_on_c, 0, 81, 102
1, 114534, Note_on_c, 0, 42, 97
1, 114534, Note_on_c, 0, 69, 99
1, 114537, Note_on_c, 0, 73, 103
1, 114567, Note_off_c, 0, 54, 69
1, 114572, Note_off_c, 0, 42, 65
1, 114687, Note_off_c, 0, 69, 56
1, 114693, Note_off_c, 0, 81, 57
1, 114713, Note_off_c, 0, 73, 58
1, 114808, Note_on_c, 0, 66, 99
1, 114815, Note_on_c, 0, 54, 91
1, 114817, Note_on_c, 0, 81, 94
1, 114822, Note_on_c, 0, 69, 89
1, 114826, Note_on_c, 0, 73, 87
1, 114838, Note_off_c, 0, 66, 68
1, 114846, Note_off_c, 0, 73, 70
1, 114847, Note_off_c, 0, 54, 68
1, 114863, Note_off_c, 0, 69, 62
1, 114883, Note_off_c, 0, 81, 59
1, 114934, Note_on_c, 0, 80, 91
1, 114958, Note_on_c, 0, 69, 66
1, 114981, Note_off_c, 0, 69, 60
1, 115022, Note_on_c, 0, 42, 89
1, 115023, Note_on_c, 0, 54, 95
1, 115026, Note_on_c, 0, 78, 103
1, 115037, Note_on_c, 0, 69, 82
1, 115038, Note_on_c, 0, 73, 88
1, 115044, Note_off_c, 0, 54, 61
1, 115048, Note_off_c, 0, 80, 62
1, 115057, Note_off_c, 0, 42, 64
1, 115113, Note_off_c, 0, 69, 53
1, 115127, Note_off_c, 0, 78, 62
1, 115140, Poly_aftertouch_c, 0, 41, 0
1, 115140, Note_off_c, 0, 73, 59
1, 115217, Note_on_c, 0, 66, 100
1, 115220, Note_on_c, 0, 54, 96
1, 115229, Note_on_c, 0, 78, 90
1, 115241, Note_on_c, 0, 69, 72
1, 115247, Note_off_c, 0, 66, 62
1, 115256, Note_off_c, 0, 54, 65
1, 115272, Note_off_c, 0, 69, 61
1, 115316, Note_on_c, 0, 76, 88
1, 115338, Note_off_c, 0, 78, 57
1, 115447, Note_on_c, 0, 54, 98
1, 115449, Note_on_c, 0, 42, 99
1, 115456, Note_on_c, 0, 75, 82
1, 115465, Note_on_c, 0, 69, 71
1, 115470, Control_c, 0, 64, 104
1, 115472, Note_on_c, 0, 73, 73
1, 115482, Note_off_c, 0, 76, 57
1, 115485, Control_c, 0, 64, 70
1, 115499, Control_c, 0, 64, 0
1, 115544, Control_c, 0, 64, 56
1, 115559, Control_c, 0, 64, 70
1, 115573, Control_c, 0, 64, 84
1, 115588, Control_c, 0, 64, 127
1, 115590, Note_off_c, 0, 75, 63
1, 115592, Note_off_c, 0, 69, 55
1, 115600, Note_off_c, 0, 73, 60
1, 115655, Note_off_c, 0, 54, 64
1, 115691, Note_on_c, 0, 75, 72
1, 115692, Note_on_c, 0, 73, 68
1, 115695, Note_on_c, 0, 69, 64
1, 115711, Note_off_c, 0, 75, 70
1, 115715, Note_off_c, 0, 69, 65
1, 115718, Note_off_c, 0, 73, 67
1, 115753, Note_on_c, 0, 56, 90
1, 115758, Note_on_c, 0, 44, 82
1, 115760, Note_off_c, 0, 42, 46
1, 115773, Note_on_c, 0, 73, 85
1, 115776, Note_off_c, 0, 56, 69
1, 115777, Note_on_c, 0, 69, 71
1, 115782, Note_on_c, 0, 75, 74
1, 115791, Note_off_c, 0, 44, 67
1, 115793, Note_off_c, 0, 73, 70
1, 115806, Note_off_c, 0, 75, 69
1, 115807, Note_off_c, 0, 69, 66
1, 115837, Note_on_c, 0, 54, 99
1, 115842, Note_on_c, 0, 75, 85
1, 115846, Note_on_c, 0, 73, 93
1, 115849, Note_on_c, 0, 69, 82
1, 115852, Note_on_c, 0, 42, 84
1, 115876, Note_off_c, 0, 42, 70
1, 115877, Note_off_c, 0, 54, 65
1, 115897, Note_off_c, 0, 73, 55
1, 115897, Note_off_c, 0, 75, 60
1, 115898, Note_off_c, 0, 69, 46
1, 116022, Note_on_c, 0, 54, 89
1, 116029, Note_on_c, 0, 42, 80
1, 116035, Note_on_c, 0, 69, 76
1, 116036, Note_on_c, 0, 75, 75
1, 116043, Note_off_c, 0, 54, 73
1, 116044, Note_on_c, 0, 73, 70
1, 116053, Note_off_c, 0, 42, 67
1, 116056, Note_off_c, 0, 69, 70
1, 116068, Note_off_c, 0, 73, 68
1, 116103, Note_on_c, 0, 56, 88
1, 116104, Note_on_c, 0, 44, 86
1, 116107, Note_on_c, 0, 68, 90
1, 116130, Note_off_c, 0, 56, 67
1, 116131, Note_off_c, 0, 75, 32
1, 116143, Note_on_c, 0, 43, 33
1, 116149, Note_off_c, 0, 44, 61
1, 116159, Note_off_c, 0, 68, 60
1, 116184, Note_off_c, 0, 43, 51
1, 116208, Note_on_c, 0, 57, 98
1, 116209, Note_on_c, 0, 45, 95
1, 116210, Poly_aftertouch_c, 0, 54, 0
1, 116218, Note_on_c, 0, 66, 79
1, 116219, Control_c, 0, 64, 79
1, 116221, Note_on_c, 0, 75, 78
1, 116228, Note_on_c, 0, 73, 72
1, 116233, Control_c, 0, 64, 0
1, 116260, Note_off_c, 0, 57, 59
1, 116308, Control_c, 0, 64, 50
1, 116322, Control_c, 0, 64, 67
1, 116324, Note_off_c, 0, 45, 31
1, 116337, Control_c, 0, 64, 78
1, 116345, Note_off_c, 0, 66, 59
1, 116352, Control_c, 0, 64, 91
1, 116353, Note_off_c, 0, 75, 59
1, 116359, Note_off_c, 0, 73, 60
1, 116367, Control_c, 0, 64, 117
1, 116382, Control_c, 0, 64, 127
1, 116436, Note_on_c, 0, 57, 94
1, 116439, Note_on_c, 0, 66, 86
1, 116440, Note_on_c, 0, 45, 84
1, 116454, Note_on_c, 0, 75, 69
1, 116469, Note_off_c, 0, 45, 66
1, 116471, Note_off_c, 0, 57, 66
1, 116473, Note_off_c, 0, 66, 52
1, 116480, Note_on_c, 0, 73, 31
1, 116507, Note_off_c, 0, 75, 0
1, 116522, Note_on_c, 0, 75, 51
1, 116530, Note_on_c, 0, 68, 85
1, 116536, Note_on_c, 0, 56, 96
1, 116541, Note_off_c, 0, 73, 0
1, 116541, Note_on_c, 0, 73, 40
1, 116545, Note_on_c, 0, 44, 86
1, 116573, Note_off_c, 0, 44, 67
1, 116573, Note_off_c, 0, 56, 66
1, 116578, Note_off_c, 0, 73, 57
1, 116583, Note_off_c, 0, 68, 62
1, 116611, Note_off_c, 0, 75, 56
1, 116657, Note_on_c, 0, 54, 93
1, 116664, Note_on_c, 0, 42, 90
1, 116671, Note_on_c, 0, 69, 79
1, 116672, Note_on_c, 0, 73, 70
1, 116672, Control_c, 0, 64, 89
1, 116672, Note_on_c, 0, 75, 64
1, 116687, Control_c, 0, 64, 60
1, 116701, Control_c, 0, 64, 0
1, 116775, Control_c, 0, 64, 61
1, 116790, Control_c, 0, 64, 71
1, 116803, Note_off_c, 0, 54, 63
1, 116805, Control_c, 0, 64, 85
1, 116810, Note_off_c, 0, 69, 59
1, 116812, Note_off_c, 0, 42, 63
1, 116817, Note_off_c, 0, 75, 58
1, 116818, Note_off_c, 0, 73, 61
1, 116819, Control_c, 0, 64, 107
1, 116834, Control_c, 0, 64, 127
1, 116893, Note_on_c, 0, 54, 90
1, 116898, Note_on_c, 0, 42, 84
1, 116898, Note_on_c, 0, 69, 84
1, 116911, Note_on_c, 0, 75, 70
1, 116923, Control_c, 0, 67, 8
1, 116934, Note_off_c, 0, 54, 63
1, 116937, Control_c, 0, 67, 9
1, 116942, Note_off_c, 0, 42, 61
1, 116952, Note_off_c, 0, 69, 58
1, 116952, Control_c, 0, 67, 10
1, 116967, Control_c, 0, 67, 11
1, 116979, Poly_aftertouch_c, 0, 73, 127
1, 116982, Control_c, 0, 67, 12
1, 116996, Note_off_c, 0, 75, 0
1, 117008, Note_on_c, 0, 52, 84
1, 117008, Note_on_c, 0, 53, 85
1, 117010, Note_on_c, 0, 75, 47
1, 117012, Note_on_c, 0, 68, 81
1, 117014, Note_on_c, 0, 40, 75
1, 117028, Note_on_c, 0, 41, 61
1, 117036, Note_off_c, 0, 53, 66
1, 117041, Control_c, 0, 67, 11
1, 117046, Note_off_c, 0, 52, 59
1, 117050, Note_off_c, 0, 40, 65
1, 117056, Note_off_c, 0, 41, 56
1, 117071, Control_c, 0, 67, 11
1, 117130, Note_off_c, 0, 75, 49
1, 117144, Poly_aftertouch_c, 0, 73, 0
1, 117197, Control_c, 0, 64, 113
1, 117200, Note_off_c, 0, 68, 59
1, 117212, Control_c, 0, 64, 78
1, 117212, Control_c, 0, 67, 11
1, 117214, Note_on_c, 0, 51, 92
1, 117220, Note_on_c, 0, 39, 84
1, 117226, Control_c, 0, 64, 0
1, 117226, Control_c, 0, 67, 12
1, 117228, Note_on_c, 0, 67, 66
1, 117240, Note_on_c, 0, 73, 56
1, 117244, Note_on_c, 0, 75, 63
1, 117301, Control_c, 0, 67, 12
1, 117330, Control_c, 0, 67, 13
1, 117345, Control_c, 0, 67, 13
1, 117360, Control_c, 0, 67, 14
1, 117375, Control_c, 0, 64, 71
1, 117375, Control_c, 0, 67, 15
1, 117378, Note_off_c, 0, 39, 61
1, 117390, Control_c, 0, 64, 84
1, 117390, Control_c, 0, 67, 16
1, 117405, Control_c, 0, 64, 113
1, 117405, Control_c, 0, 67, 18
1, 117420, Control_c, 0, 64, 127
1, 117420, Control_c, 0, 67, 21
1, 117424, Note_off_c, 0, 51, 65
1, 117435, Control_c, 0, 67, 23
1, 117445, Note_off_c, 0, 67, 55
1, 117450, Control_c, 0, 67, 24
1, 117460, Note_off_c, 0, 73, 57
1, 117490, Note_off_c, 0, 75, 56
1, 117524, Control_c, 0, 67, 24
1, 117554, Control_c, 0, 67, 25
1, 117583, Control_c, 0, 67, 25
1, 117598, Control_c, 0, 67, 26
1, 117599, Note_on_c, 0, 70, 89
1, 117608, Note_on_c, 0, 75, 60
1, 117613, Control_c, 0, 67, 28
1, 117618, Note_on_c, 0, 67, 51
1, 117620, Note_on_c, 0, 73, 52
1, 117623, Note_on_c, 0, 58, 69
1, 117628, Control_c, 0, 67, 29
1, 117642, Control_c, 0, 67, 31
1, 117643, Note_off_c, 0, 70, 65
1, 117648, Note_off_c, 0, 58, 66
1, 117651, Note_off_c, 0, 67, 56
1, 117655, Note_off_c, 0, 73, 61
1, 117657, Control_c, 0, 67, 33
1, 117672, Control_c, 0, 67, 36
1, 117685, Note_off_c, 0, 75, 34
1, 117686, Control_c, 0, 67, 38
1, 117701, Control_c, 0, 67, 41
1, 117716, Control_c, 0, 67, 43
1, 117731, Control_c, 0, 67, 45
1, 117746, Control_c, 0, 67, 47
1, 117760, Control_c, 0, 67, 49
1, 117763, Note_on_c, 0, 67, 52
1, 117769, Note_on_c, 0, 73, 56
1, 117775, Note_on_c, 0, 75, 51
1, 117775, Control_c, 0, 67, 52
1, 117790, Control_c, 0, 67, 54
1, 117799, Note_off_c, 0, 67, 60
1, 117805, Control_c, 0, 67, 56
1, 117820, Note_off_c, 0, 75, 56
1, 117820, Control_c, 0, 67, 58
1, 117825, Note_off_c, 0, 73, 55
1, 117834, Control_c, 0, 67, 60
1, 117849, Control_c, 0, 67, 63
1, 117864, Control_c, 0, 67, 66
1, 117879, Control_c, 0, 67, 68
1, 117894, Control_c, 0, 67, 71
1, 117916, Control_c, 0, 67, 74
1, 117931, Control_c, 0, 67, 76
1, 117946, Control_c, 0, 67, 78
1, 117961, Control_c, 0, 67, 79
1, 117975, Control_c, 0, 67, 81
1, 117983, Note_on_c, 0, 73, 57
1, 117986, Note_on_c, 0, 75, 52
1, 117990, Control_c, 0, 67, 82
1, 117995, Note_on_c, 0, 67, 44
1, 118005, Control_c, 0, 67, 85
1, 118021, Control_c, 0, 67, 87
1, 118036, Control_c, 0, 67, 89
1, 118049, Note_off_c, 0, 67, 57
1, 118050, Control_c, 0, 67, 91
1, 118065, Control_c, 0, 67, 93
1, 118080, Control_c, 0, 67, 95
1, 118094, Control_c, 0, 67, 98
1, 118109, Control_c, 0, 67, 100
1, 118124, Control_c, 0, 67, 103
1, 118139, Control_c, 0, 67, 105
1, 118154, Control_c, 0, 67, 107
1, 118165, Note_off_c, 0, 73, 39
1, 118168, Control_c, 0, 67, 109
1, 118183, Control_c, 0, 67, 111
1, 118199, Control_c, 0, 67, 113
1, 118214, Control_c, 0, 67, 115
1, 118229, Control_c, 0, 67, 118
1, 118244, Control_c, 0, 67, 119
1, 118259, Control_c, 0, 67, 120
1, 118273, Control_c, 0, 67, 121
1, 118288, Control_c, 0, 67, 122
1, 118332, Control_c, 0, 67, 122
1, 118397, Note_off_c, 0, 75, 39
1, 118448, Note_on_c, 0, 68, 65
1, 118451, Control_c, 0, 64, 119
1, 118459, Note_on_c, 0, 47, 46
1, 118466, Control_c, 0, 64, 79
1, 118481, Control_c, 0, 64, 0
1, 118584, Control_c, 0, 64, 60
1, 118599, Control_c, 0, 64, 73
1, 118602, Note_on_c, 0, 70, 66
1, 118614, Control_c, 0, 64, 87
1, 118620, Note_off_c, 0, 47, 64
1, 118623, Note_on_c, 0, 56, 51
1, 118624, Note_off_c, 0, 68, 53
1, 118629, Control_c, 0, 64, 127
1, 118629, Control_c, 0, 67, 122
1, 118644, Control_c, 0, 67, 121
1, 118666, Control_c, 0, 67, 120
1, 118681, Control_c, 0, 67, 120
1, 118696, Control_c, 0, 67, 119
1, 118711, Control_c, 0, 67, 119
1, 118736, Note_on_c, 0, 71, 67
1, 118740, Control_c, 0, 67, 118
1, 118767, Note_on_c, 0, 63, 62
1, 118784, Control_c, 0, 67, 118
1, 118794, Note_off_c, 0, 63, 65
1, 118805, Note_off_c, 0, 70, 28
1, 118821, Note_on_c, 0, 73, 75
1, 118826, Note_off_c, 0, 71, 63
1, 118828, Control_c, 0, 67, 117
1, 118896, Note_off_c, 0, 73, 62
1, 118902, Control_c, 0, 64, 94
1, 118916, Note_on_c, 0, 47, 53
1, 118916, Control_c, 0, 64, 69
1, 118919, Note_on_c, 0, 71, 71
1, 118919, Note_off_c, 0, 56, 46
1, 118931, Control_c, 0, 64, 0
1, 118931, Control_c, 0, 67, 117
1, 118946, Control_c, 0, 67, 116
1, 118961, Control_c, 0, 64, 56
1, 118970, Note_off_c, 0, 47, 64
1, 118976, Control_c, 0, 64, 68
1, 118976, Control_c, 0, 67, 116
1, 118992, Control_c, 0, 64, 79
1, 118996, Note_on_c, 0, 73, 78
1, 118997, Note_off_c, 0, 71, 63
1, 119007, Control_c, 0, 64, 94
1, 119021, Control_c, 0, 64, 127
1, 119021, Control_c, 0, 67, 115
1, 119026, Note_on_c, 0, 56, 55
1, 119066, Control_c, 0, 67, 116
1, 119077, Note_on_c, 0, 75, 76
1, 119086, Note_off_c, 0, 73, 61
1, 119107, Note_on_c, 0, 63, 57
1, 119110, Control_c, 0, 67, 116
1, 119134, Note_off_c, 0, 63, 64
1, 119158, Note_on_c, 0, 76, 74
1, 119165, Note_off_c, 0, 75, 61
1, 119199, Control_c, 0, 64, 95
1, 119214, Control_c, 0, 64, 65
1, 119229, Control_c, 0, 64, 0
1, 119229, Control_c, 0, 67, 117
1, 119238, Note_off_c, 0, 76, 61
1, 119247, Note_off_c, 0, 56, 56
1, 119249, Note_on_c, 0, 75, 67
1, 119259, Control_c, 0, 67, 117
1, 119266, Note_on_c, 0, 47, 47
1, 119303, Control_c, 0, 64, 27
1, 119318, Control_c, 0, 64, 66
1, 119332, Control_c, 0, 64, 78
1, 119332, Control_c, 0, 67, 118
1, 119347, Control_c, 0, 64, 96
1, 119362, Control_c, 0, 64, 127
1, 119369, Note_off_c, 0, 75, 61
1, 119377, Note_off_c, 0, 47, 63
1, 119377, Control_c, 0, 67, 118
1, 119397, Note_on_c, 0, 56, 49
1, 119498, Note_on_c, 0, 80, 79
1, 119526, Note_off_c, 0, 80, 60
1, 119591, Note_on_c, 0, 80, 74
1, 119608, Note_on_c, 0, 63, 49
1, 119658, Note_off_c, 0, 63, 59
1, 119680, Control_c, 0, 67, 118
1, 119802, Note_off_c, 0, 56, 54
1, 119834, Note_on_c, 0, 47, 46
1, 119844, Control_c, 0, 67, 118
1, 119859, Control_c, 0, 67, 119
1, 119874, Control_c, 0, 67, 119
1, 119903, Control_c, 0, 67, 120
1, 119921, Note_on_c, 0, 75, 63
1, 119923, Note_off_c, 0, 47, 56
1, 119933, Control_c, 0, 67, 121
1, 119963, Control_c, 0, 67, 121
1, 119994, Note_on_c, 0, 56, 47
1, 120090, Note_on_c, 0, 63, 56
1, 120094, Note_off_c, 0, 75, 54
1, 120120, Note_off_c, 0, 63, 65
1, 120247, Note_off_c, 0, 80, 43
1, 120249, Note_off_c, 0, 56, 60
1, 120270, Note_on_c, 0, 47, 50
1, 120276, Note_on_c, 0, 75, 67
1, 120296, Control_c, 0, 67, 121
1, 120313, Note_off_c, 0, 47, 62
1, 120338, Note_off_c, 0, 75, 60
1, 120345, Note_on_c, 0, 80, 69
1, 120374, Note_on_c, 0, 56, 46
1, 120381, Note_off_c, 0, 80, 58
1, 120404, Note_off_c, 0, 56, 65
1, 120436, Note_on_c, 0, 63, 55
1, 120438, Note_on_c, 0, 80, 68
1, 120463, Note_off_c, 0, 63, 63
1, 120488, Control_c, 0, 67, 120
1, 120548, Control_c, 0, 67, 120
1, 120578, Control_c, 0, 64, 88
1, 120593, Control_c, 0, 64, 63
1, 120606, Note_off_c, 0, 80, 61
1, 120608, Control_c, 0, 64, 0
1, 120614, Note_on_c, 0, 46, 60
1, 120623, Note_on_c, 0, 75, 61
1, 120625, Note_on_c, 0, 73, 58
1, 120653, Control_c, 0, 64, 60
1, 120667, Control_c, 0, 64, 68
1, 120681, Note_off_c, 0, 46, 62
1, 120682, Control_c, 0, 64, 76
1, 120696, Note_on_c, 0, 82, 77
1, 120697, Control_c, 0, 64, 92
1, 120711, Note_on_c, 0, 51, 58
1, 120711, Control_c, 0, 64, 119
1, 120712, Note_off_c, 0, 75, 61
1, 120726, Note_off_c, 0, 73, 60
1, 120726, Control_c, 0, 64, 127
1, 120731, Note_off_c, 0, 82, 57
1, 120783, Note_on_c, 0, 63, 61
1, 120790, Note_on_c, 0, 82, 77
1, 120812, Note_off_c, 0, 63, 65
1, 120956, Control_c, 0, 64, 78
1, 120961, Note_off_c, 0, 82, 63
1, 120971, Control_c, 0, 64, 0
1, 120975, Note_off_c, 0, 51, 49
1, 120979, Note_on_c, 0, 75, 65
1, 120981, Note_on_c, 0, 44, 65
1, 120983, Note_on_c, 0, 71, 65
1, 121028, Note_off_c, 0, 44, 62
1, 121031, Control_c, 0, 64, 43
1, 121045, Control_c, 0, 64, 64
1, 121045, Control_c, 0, 67, 119
1, 121054, Note_on_c, 0, 83, 81
1, 121060, Control_c, 0, 64, 73
1, 121061, Note_on_c, 0, 51, 64
1, 121075, Control_c, 0, 64, 83
1, 121075, Control_c, 0, 67, 118
1, 121086, Note_off_c, 0, 75, 60
1, 121090, Control_c, 0, 64, 96
1, 121090, Control_c, 0, 67, 118
1, 121094, Note_off_c, 0, 83, 63
1, 121105, Control_c, 0, 64, 108
1, 121105, Control_c, 0, 67, 117
1, 121109, Note_off_c, 0, 71, 57
1, 121119, Control_c, 0, 64, 120
1, 121119, Control_c, 0, 67, 116
1, 121134, Control_c, 0, 64, 127
1, 121149, Note_on_c, 0, 63, 61
1, 121151, Note_on_c, 0, 83, 76
1, 121177, Note_off_c, 0, 63, 66
1, 121179, Control_c, 0, 67, 116
1, 121209, Control_c, 0, 67, 115
1, 121238, Control_c, 0, 67, 115
1, 121253, Control_c, 0, 67, 114
1, 121268, Control_c, 0, 67, 114
1, 121295, Note_off_c, 0, 51, 61
1, 121312, Control_c, 0, 67, 113
1, 121332, Note_on_c, 0, 44, 60
1, 121342, Control_c, 0, 67, 113
1, 121354, Note_on_c, 0, 75, 65
1, 121357, Control_c, 0, 67, 112
1, 121359, Note_on_c, 0, 71, 55
1, 121382, Note_off_c, 0, 44, 63
1, 121398, Note_off_c, 0, 71, 58
1, 121415, Note_on_c, 0, 51, 68
1, 121437, Note_off_c, 0, 75, 58
1, 121476, Control_c, 0, 67, 113
1, 121513, Note_on_c, 0, 63, 65
1, 121521, Control_c, 0, 67, 113
1, 121535, Control_c, 0, 67, 114
1, 121537, Note_off_c, 0, 63, 66
1, 121595, Control_c, 0, 67, 114
1, 121666, Note_off_c, 0, 51, 59
1, 121676, Note_off_c, 0, 83, 60
1, 121691, Control_c, 0, 67, 115
1, 121695, Note_on_c, 0, 44, 61
1, 121709, Note_on_c, 0, 75, 64
1, 121710, Note_on_c, 0, 71, 60
1, 121721, Control_c, 0, 67, 115
1, 121735, Control_c, 0, 67, 116
1, 121746, Note_off_c, 0, 75, 55
1, 121750, Control_c, 0, 67, 116
1, 121765, Note_off_c, 0, 44, 62
1, 121765, Control_c, 0, 67, 117
1, 121779, Note_on_c, 0, 51, 65
1, 121779, Note_on_c, 0, 83, 76
1, 121779, Note_off_c, 0, 71, 40
1, 121780, Control_c, 0, 67, 118
1, 121795, Control_c, 0, 67, 118
1, 121809, Control_c, 0, 67, 119
1, 121820, Note_off_c, 0, 83, 59
1, 121824, Control_c, 0, 67, 119
1, 121875, Note_on_c, 0, 83, 67
1, 121876, Note_on_c, 0, 63, 56
1, 121883, Control_c, 0, 67, 120
1, 121905, Note_off_c, 0, 63, 63
1, 121913, Control_c, 0, 67, 120
1, 121915, Note_off_c, 0, 83, 62
1, 121957, Control_c, 0, 67, 121
1, 122016, Control_c, 0, 67, 121
1, 122023, Note_off_c, 0, 51, 59
1, 122050, Note_on_c, 0, 46, 56
1, 122060, Note_on_c, 0, 75, 59
1, 122061, Control_c, 0, 64, 86
1, 122069, Note_on_c, 0, 70, 50
1, 122076, Control_c, 0, 64, 63
1, 122076, Control_c, 0, 67, 122
1, 122091, Control_c, 0, 64, 0
1, 122136, Note_off_c, 0, 46, 60
1, 122140, Note_on_c, 0, 51, 61
1, 122145, Note_on_c, 0, 82, 69
1, 122150, Control_c, 0, 64, 42
1, 122165, Control_c, 0, 64, 64
1, 122171, Note_off_c, 0, 75, 58
1, 122172, Note_off_c, 0, 70, 56
1, 122174, Note_off_c, 0, 82, 61
1, 122180, Control_c, 0, 64, 72
1, 122195, Control_c, 0, 64, 83
1, 122210, Control_c, 0, 64, 102
1, 122225, Control_c, 0, 64, 127
1, 122240, Note_on_c, 0, 63, 61
1, 122265, Note_on_c, 0, 82, 56
1, 122268, Note_off_c, 0, 63, 65
1, 122368, Note_off_c, 0, 82, 62
1, 122388, Control_c, 0, 67, 121
1, 122448, Note_off_c, 0, 51, 44
1, 122455, Control_c, 0, 67, 121
1, 122457, Note_on_c, 0, 75, 59
1, 122467, Note_on_c, 0, 47, 52
1, 122469, Control_c, 0, 64, 92
1, 122472, Note_on_c, 0, 69, 47
1, 122484, Control_c, 0, 64, 64
1, 122499, Control_c, 0, 64, 0
1, 122551, Note_off_c, 0, 47, 63
1, 122557, Control_c, 0, 64, 56
1, 122559, Note_on_c, 0, 51, 50
1, 122572, Control_c, 0, 64, 69
1, 122572, Control_c, 0, 67, 120
1, 122577, Note_on_c, 0, 81, 63
1, 122587, Control_c, 0, 64, 82
1, 122602, Control_c, 0, 64, 126
1, 122602, Control_c, 0, 67, 119
1, 122617, Control_c, 0, 64, 127
1, 122617, Control_c, 0, 67, 119
1, 122633, Note_off_c, 0, 81, 57
1, 122646, Control_c, 0, 67, 118
1, 122676, Control_c, 0, 67, 118
1, 122699, Note_off_c, 0, 75, 53
1, 122705, Control_c, 0, 67, 117
1, 122723, Note_on_c, 0, 81, 64
1, 122732, Note_off_c, 0, 69, 42
1, 122745, Note_on_c, 0, 63, 48
1, 122750, Control_c, 0, 67, 117
1, 122782, Note_off_c, 0, 63, 63
1, 122809, Control_c, 0, 67, 116
1, 122824, Control_c, 0, 67, 116
1, 122839, Control_c, 0, 67, 115
1, 122854, Control_c, 0, 67, 114
1, 122869, Control_c, 0, 67, 114
1, 122883, Control_c, 0, 67, 113
1, 122898, Control_c, 0, 67, 112
1, 122900, Note_off_c, 0, 51, 59
1, 122913, Control_c, 0, 67, 111
1, 122924, Note_on_c, 0, 47, 56
1, 122928, Control_c, 0, 67, 111
1, 122940, Note_on_c, 0, 75, 62
1, 122943, Control_c, 0, 67, 110
1, 122953, Note_on_c, 0, 69, 43
1, 122957, Control_c, 0, 67, 109
1, 122972, Control_c, 0, 67, 108
1, 122988, Control_c, 0, 67, 107
1, 123003, Control_c, 0, 67, 106
1, 123004, Note_off_c, 0, 47, 64
1, 123015, Note_off_c, 0, 69, 53
1, 123022, Note_off_c, 0, 75, 53
1, 123023, Note_on_c, 0, 51, 63
1, 123048, Control_c, 0, 67, 105
1, 123116, Note_on_c, 0, 63, 64
1, 123143, Note_off_c, 0, 63, 65
1, 123203, Control_c, 0, 67, 105
1, 123218, Note_off_c, 0, 81, 49
1, 123218, Control_c, 0, 67, 104
1, 123233, Control_c, 0, 67, 103
1, 123247, Control_c, 0, 67, 100
1, 123255, Note_on_c, 0, 75, 68
1, 123262, Control_c, 0, 67, 96
1, 123267, Note_off_c, 0, 51, 61
1, 123271, Note_on_c, 0, 47, 69
1, 123277, Control_c, 0, 67, 91
1, 123278, Note_off_c, 0, 75, 68
1, 123292, Control_c, 0, 67, 85
1, 123306, Control_c, 0, 67, 80
1, 123321, Control_c, 0, 67, 77
1, 123336, Control_c, 0, 67, 76
1, 123340, Note_on_c, 0, 87, 93
1, 123346, Note_off_c, 0, 47, 65
1, 123354, Note_on_c, 0, 51, 74
1, 123356, Note_on_c, 0, 78, 64
1, 123366, Control_c, 0, 67, 76
1, 123371, Note_off_c, 0, 87, 63
1, 123375, Note_off_c, 0, 78, 65
1, 123380, Control_c, 0, 67, 75
1, 123395, Control_c, 0, 67, 75
1, 123410, Control_c, 0, 67, 74
1, 123425, Control_c, 0, 67, 73
1, 123433, Note_on_c, 0, 87, 93
1, 123437, Note_on_c, 0, 78, 75
1, 123439, Control_c, 0, 67, 72
1, 123450, Note_off_c, 0, 87, 74
1, 123451, Note_off_c, 0, 78, 71
1, 123454, Control_c, 0, 67, 71
1, 123468, Note_on_c, 0, 63, 55
1, 123469, Control_c, 0, 67, 70
1, 123484, Control_c, 0, 67, 69
1, 123495, Note_off_c, 0, 63, 63
1, 123499, Control_c, 0, 67, 68
1, 123513, Control_c, 0, 67, 68
1, 123528, Control_c, 0, 67, 68
1, 123543, Control_c, 0, 67, 69
1, 123558, Control_c, 0, 67, 70
1, 123573, Control_c, 0, 67, 70
1, 123587, Control_c, 0, 67, 71
1, 123602, Control_c, 0, 67, 71
1, 123617, Control_c, 0, 67, 72
1, 123636, Note_off_c, 0, 51, 57
1, 123644, Note_on_c, 0, 47, 58
1, 123713, Note_on_c, 0, 75, 83
1, 123733, Note_on_c, 0, 69, 63
1, 123763, Note_off_c, 0, 47, 61
1, 123781, Control_c, 0, 67, 71
1, 123785, Note_on_c, 0, 51, 74
1, 123796, Control_c, 0, 67, 71
1, 123826, Control_c, 0, 67, 70
1, 123841, Control_c, 0, 67, 70
1, 123855, Control_c, 0, 67, 69
1, 123870, Control_c, 0, 67, 69
1, 123881, Note_on_c, 0, 63, 72
1, 123885, Control_c, 0, 67, 68
1, 123892, Note_off_c, 0, 69, 54
1, 123907, Control_c, 0, 67, 67
1, 123915, Note_off_c, 0, 63, 67
1, 123922, Control_c, 0, 67, 66
1, 123933, Note_off_c, 0, 75, 59
1, 123936, Control_c, 0, 67, 64
1, 123951, Control_c, 0, 67, 61
1, 123966, Control_c, 0, 67, 58
1, 123981, Control_c, 0, 67, 55
1, 123996, Control_c, 0, 67, 53
1, 124011, Control_c, 0, 67, 50
1, 124015, Note_on_c, 0, 75, 104
1, 124024, Note_on_c, 0, 69, 71
1, 124026, Control_c, 0, 67, 47
1, 124028, Note_on_c, 0, 47, 74
1, 124039, Note_off_c, 0, 51, 60
1, 124041, Control_c, 0, 67, 43
1, 124046, Note_off_c, 0, 69, 69
1, 124055, Control_c, 0, 67, 40
1, 124068, Note_off_c, 0, 75, 66
1, 124070, Control_c, 0, 67, 36
1, 124085, Control_c, 0, 67, 33
1, 124100, Control_c, 0, 67, 30
1, 124115, Control_c, 0, 67, 28
1, 124130, Control_c, 0, 67, 26
1, 124145, Control_c, 0, 67, 24
1, 124160, Note_on_c, 0, 51, 84
1, 124160, Control_c, 0, 67, 23
1, 124169, Note_off_c, 0, 47, 65
1, 124175, Control_c, 0, 67, 22
1, 124189, Control_c, 0, 67, 21
1, 124204, Control_c, 0, 67, 20
1, 124219, Control_c, 0, 67, 19
1, 124234, Control_c, 0, 67, 19
1, 124248, Control_c, 0, 67, 18
1, 124258, Note_on_c, 0, 90, 109
1, 124261, Note_on_c, 0, 87, 98
1, 124263, Control_c, 0, 67, 17
1, 124278, Control_c, 0, 67, 16
1, 124293, Control_c, 0, 67, 15
1, 124300, Note_off_c, 0, 87, 68
1, 124300, Note_off_c, 0, 90, 65
1, 124308, Control_c, 0, 67, 14
1, 124323, Control_c, 0, 67, 14
1, 124337, Control_c, 0, 67, 13
1, 124352, Control_c, 0, 67, 13
1, 124367, Control_c, 0, 67, 12
1, 124382, Note_on_c, 0, 90, 110
1, 124382, Control_c, 0, 67, 12
1, 124389, Note_on_c, 0, 87, 95
1, 124397, Control_c, 0, 67, 11
1, 124401, Note_on_c, 0, 63, 71
1, 124407, Note_off_c, 0, 87, 66
1, 124411, Control_c, 0, 67, 9
1, 124419, Note_off_c, 0, 90, 67
1, 124426, Control_c, 0, 67, 9
1, 124441, Control_c, 0, 67, 8
1, 124455, Control_c, 0, 67, 8
1, 124468, Note_off_c, 0, 63, 60
1, 124482, Note_off_c, 0, 51, 59
1, 124685, Note_on_c, 0, 51, 98
1, 124689, Note_on_c, 0, 47, 77
1, 124717, Note_off_c, 0, 47, 67
1, 124726, Note_off_c, 0, 51, 69
1, 124731, Control_c, 0, 67, 0
1, 124734, Note_on_c, 0, 78, 94
1, 124737, Note_on_c, 0, 75, 89
1, 125143, Note_on_c, 0, 66, 101
1, 125167, Note_on_c, 0, 63, 66
1, 125188, Note_off_c, 0, 63, 66
1, 125231, Note_off_c, 0, 66, 56
1, 125299, Note_on_c, 0, 66, 101
1, 125309, Note_on_c, 0, 63, 83
1, 125577, Note_off_c, 0, 75, 59
1, 125650, Note_off_c, 0, 78, 58
1, 126011, Control_c, 0, 64, 117
1, 126026, Control_c, 0, 64, 81
1, 126041, Control_c, 0, 64, 63
1, 126055, Note_on_c, 0, 75, 94
1, 126055, Control_c, 0, 64, 0
1, 126100, Control_c, 0, 64, 43
1, 126115, Control_c, 0, 64, 64
1, 126130, Control_c, 0, 64, 74
1, 126152, Control_c, 0, 64, 90
1, 126167, Control_c, 0, 64, 127
1, 126179, Note_off_c, 0, 66, 45
1, 126200, Note_on_c, 0, 87, 82
1, 126202, Note_on_c, 0, 83, 71
1, 126241, Note_off_c, 0, 63, 58
1, 126297, Note_off_c, 0, 87, 61
1, 126307, Note_off_c, 0, 83, 54
1, 126330, Control_c, 0, 67, 8
1, 126360, Control_c, 0, 67, 8
1, 126375, Control_c, 0, 67, 9
1, 126390, Control_c, 0, 67, 10
1, 126404, Note_on_c, 0, 87, 69
1, 126404, Control_c, 0, 67, 12
1, 126405, Note_on_c, 0, 83, 50
1, 126419, Control_c, 0, 67, 14
1, 126434, Control_c, 0, 67, 16
1, 126449, Control_c, 0, 67, 18
1, 126464, Control_c, 0, 67, 19
1, 126479, Control_c, 0, 67, 20
1, 126494, Control_c, 0, 67, 21
1, 126509, Control_c, 0, 64, 86
1, 126509, Control_c, 0, 67, 21
1, 126523, Control_c, 0, 64, 64
1, 126538, Control_c, 0, 64, 49
1, 126538, Control_c, 0, 67, 21
1, 126538, Note_off_c, 0, 87, 55
1, 126553, Note_off_c, 0, 75, 58
1, 126553, Control_c, 0, 64, 66
1, 126553, Control_c, 0, 67, 20
1, 126553, Note_on_c, 0, 46, 66
1, 126568, Control_c, 0, 64, 75
1, 126568, Control_c, 0, 67, 18
1, 126583, Control_c, 0, 64, 100
1, 126583, Control_c, 0, 67, 17
1, 126597, Control_c, 0, 64, 127
1, 126597, Control_c, 0, 67, 14
1, 126604, Note_off_c, 0, 46, 59
1, 126612, Control_c, 0, 67, 12
1, 126627, Control_c, 0, 67, 10
1, 126637, Note_off_c, 0, 83, 62
1, 126642, Control_c, 0, 67, 0
1, 126649, Note_on_c, 0, 74, 83
1, 126739, Note_on_c, 0, 86, 64
1, 126741, Note_on_c, 0, 82, 62
1, 126760, Note_off_c, 0, 82, 66
1, 126765, Note_off_c, 0, 86, 66
1, 126822, Note_on_c, 0, 86, 81
1, 126826, Note_on_c, 0, 82, 85
1, 126831, Note_off_c, 0, 74, 42
1, 126836, Note_on_c, 0, 70, 72
1, 126838, Note_on_c, 0, 65, 69
1, 126839, Note_on_c, 0, 58, 68
1, 126864, Note_off_c, 0, 86, 64
1, 126869, Note_off_c, 0, 82, 59
1, 127003, Note_on_c, 0, 80, 94
1, 127006, Control_c, 0, 67, 9
1, 127008, Note_off_c, 0, 70, 62
1, 127020, Control_c, 0, 67, 13
1, 127025, Note_on_c, 0, 92, 67
1, 127035, Control_c, 0, 67, 17
1, 127042, Note_off_c, 0, 92, 68
1, 127042, Note_on_c, 0, 82, 40
1, 127050, Control_c, 0, 67, 21
1, 127057, Note_off_c, 0, 65, 61
1, 127065, Control_c, 0, 67, 24
1, 127067, Note_on_c, 0, 89, 46
1, 127074, Note_off_c, 0, 82, 54
1, 127079, Control_c, 0, 67, 25
1, 127085, Note_on_c, 0, 92, 84
1, 127096, Note_off_c, 0, 58, 62
1, 127122, Note_off_c, 0, 92, 55
1, 127124, Control_c, 0, 67, 25
1, 127131, Note_off_c, 0, 89, 62
1, 127153, Control_c, 0, 67, 25
1, 127168, Control_c, 0, 67, 24
1, 127175, Note_on_c, 0, 92, 86
1, 127176, Note_on_c, 0, 89, 74
1, 127183, Control_c, 0, 67, 23
1, 127198, Control_c, 0, 64, 110
1, 127198, Control_c, 0, 67, 22
1, 127213, Control_c, 0, 64, 71
1, 127213, Control_c, 0, 67, 21
1, 127227, Control_c, 0, 64, 0
1, 127227, Control_c, 0, 67, 20
1, 127231, Note_off_c, 0, 80, 49
1, 127242, Control_c, 0, 67, 19
1, 127257, Control_c, 0, 64, 65
1, 127257, Control_c, 0, 67, 18
1, 127272, Control_c, 0, 64, 79
1, 127272, Control_c, 0, 67, 16
1, 127287, Control_c, 0, 64, 109
1, 127287, Control_c, 0, 67, 13
1, 127302, Control_c, 0, 64, 127
1, 127302, Control_c, 0, 67, 9
1, 127304, Note_off_c, 0, 92, 65
1, 127313, Note_on_c, 0, 51, 71
1, 127316, Control_c, 0, 67, 0
1, 127325, Note_off_c, 0, 89, 62
1, 127346, Note_off_c, 0, 51, 67
1, 127363, Note_on_c, 0, 78, 79
1, 127424, Note_on_c, 0, 87, 78
1, 127426, Note_on_c, 0, 90, 72
1, 127433, Note_off_c, 0, 78, 58
1, 127450, Note_off_c, 0, 87, 65
1, 127461, Note_off_c, 0, 90, 59
1, 127503, Note_on_c, 0, 70, 76
1, 127506, Note_on_c, 0, 58, 72
1, 127507, Note_on_c, 0, 63, 72
1, 127513, Note_on_c, 0, 90, 64
1, 127529, Note_on_c, 0, 87, 71
1, 127539, Note_off_c, 0, 90, 69
1, 127553, Note_off_c, 0, 87, 69
1, 127623, Note_off_c, 0, 70, 62
1, 127661, Note_on_c, 0, 75, 94
1, 127703, Note_off_c, 0, 63, 59
1, 127724, Control_c, 0, 67, 11
1, 127727, Note_off_c, 0, 58, 63
1, 127729, Note_on_c, 0, 83, 63
1, 127739, Control_c, 0, 67, 14
1, 127754, Control_c, 0, 67, 19
1, 127761, Poly_aftertouch_c, 0, 87, 127
1, 127770, Control_c, 0, 67, 23
1, 127778, Poly_aftertouch_c, 0, 87, 0
1, 127782, Note_off_c, 0, 83, 64
1, 127784, Control_c, 0, 67, 26
1, 127799, Control_c, 0, 67, 29
1, 127809, Note_on_c, 0, 87, 73
1, 127814, Control_c, 0, 67, 32
1, 127817, Note_on_c, 0, 83, 73
1, 127829, Control_c, 0, 67, 35
1, 127844, Control_c, 0, 64, 95
1, 127844, Control_c, 0, 67, 36
1, 127859, Control_c, 0, 64, 66
1, 127874, Control_c, 0, 64, 54
1, 127874, Control_c, 0, 67, 35
1, 127880, Note_off_c, 0, 75, 57
1, 127889, Control_c, 0, 64, 68
1, 127889, Control_c, 0, 67, 33
1, 127903, Control_c, 0, 64, 85
1, 127903, Control_c, 0, 67, 32
1, 127918, Control_c, 0, 64, 127
1, 127918, Control_c, 0, 67, 30
1, 127927, Note_off_c, 0, 87, 66
1, 127933, Control_c, 0, 67, 27
1, 127946, Note_on_c, 0, 46, 82
1, 127948, Control_c, 0, 67, 24
1, 127963, Control_c, 0, 67, 18
1, 127977, Control_c, 0, 67, 8
1, 127984, Note_off_c, 0, 83, 62
1, 127991, Note_off_c, 0, 46, 60
1, 127992, Control_c, 0, 67, 0
1, 127999, Note_on_c, 0, 74, 83
1, 128059, Note_off_c, 0, 74, 56
1, 128074, Note_on_c, 0, 82, 84
1, 128085, Note_on_c, 0, 86, 63
1, 128094, Note_off_c, 0, 82, 70
1, 128105, Note_off_c, 0, 86, 68
1, 128141, Note_on_c, 0, 86, 85
1, 128149, Note_on_c, 0, 82, 92
1, 128161, Note_on_c, 0, 70, 76
1, 128164, Note_on_c, 0, 58, 71
1, 128165, Note_on_c, 0, 65, 71
1, 128178, Note_off_c, 0, 86, 69
1, 128186, Note_off_c, 0, 82, 61
1, 128299, Note_on_c, 0, 80, 101
1, 128314, Note_on_c, 0, 92, 78
1, 128330, Note_off_c, 0, 70, 63
1, 128334, Note_off_c, 0, 92, 72
1, 128348, Control_c, 0, 67, 8
1, 128361, Note_on_c, 0, 89, 31
1, 128363, Control_c, 0, 67, 15
1, 128368, Note_on_c, 0, 92, 83
1, 128374, Note_off_c, 0, 65, 62
1, 128377, Control_c, 0, 67, 23
1, 128399, Control_c, 0, 67, 28
1, 128414, Control_c, 0, 67, 29
1, 128419, Note_off_c, 0, 92, 67
1, 128419, Note_off_c, 0, 58, 64
1, 128428, Control_c, 0, 67, 30
1, 128437, Note_off_c, 0, 89, 62
1, 128443, Control_c, 0, 67, 32
1, 128458, Control_c, 0, 67, 32
1, 128462, Note_on_c, 0, 89, 70
1, 128464, Note_on_c, 0, 92, 80
1, 128503, Control_c, 0, 67, 31
1, 128518, Control_c, 0, 67, 30
1, 128533, Control_c, 0, 64, 77
1, 128533, Control_c, 0, 67, 29
1, 128539, Note_off_c, 0, 80, 60
1, 128548, Control_c, 0, 64, 0
1, 128548, Control_c, 0, 67, 28
1, 128562, Control_c, 0, 67, 27
1, 128578, Control_c, 0, 67, 25
1, 128592, Note_off_c, 0, 92, 65
1, 128593, Control_c, 0, 64, 64
1, 128593, Control_c, 0, 67, 23
1, 128606, Note_off_c, 0, 89, 64
1, 128607, Control_c, 0, 64, 74
1, 128607, Control_c, 0, 67, 21
1, 128610, Note_on_c, 0, 51, 88
1, 128622, Control_c, 0, 64, 89
1, 128622, Control_c, 0, 67, 20
1, 128631, Note_on_c, 0, 78, 88
1, 128637, Control_c, 0, 64, 127
1, 128637, Control_c, 0, 67, 17
1, 128650, Note_off_c, 0, 51, 65
1, 128652, Control_c, 0, 67, 15
1, 128667, Control_c, 0, 67, 13
1, 128682, Control_c, 0, 67, 12
1, 128701, Note_on_c, 0, 87, 82
1, 128706, Note_on_c, 0, 90, 66
1, 128715, Note_off_c, 0, 78, 63
1, 128723, Note_off_c, 0, 87, 69
1, 128723, Note_off_c, 0, 90, 68
1, 128756, Control_c, 0, 67, 12
1, 128771, Note_on_c, 0, 90, 91
1, 128777, Note_on_c, 0, 87, 91
1, 128783, Note_on_c, 0, 70, 80
1, 128789, Note_on_c, 0, 58, 71
1, 128807, Note_on_c, 0, 63, 50
1, 128815, Control_c, 0, 67, 12
1, 128818, Note_off_c, 0, 87, 67
1, 128819, Note_off_c, 0, 90, 65
1, 128830, Control_c, 0, 67, 11
1, 128838, Note_off_c, 0, 63, 53
1, 128845, Note_off_c, 0, 70, 56
1, 128882, Note_off_c, 0, 58, 59
1, 128889, Control_c, 0, 67, 12
1, 128918, Control_c, 0, 67, 13
1, 128932, Note_on_c, 0, 63, 90
1, 128933, Note_on_c, 0, 71, 96
1, 128933, Control_c, 0, 67, 13
1, 128950, Note_on_c, 0, 75, 92
1, 128963, Control_c, 0, 64, 77
1, 128978, Control_c, 0, 64, 0
1, 128992, Control_c, 0, 64, 23
1, 128992, Control_c, 0, 67, 12
1, 129006, Note_off_c, 0, 71, 62
1, 129007, Control_c, 0, 64, 66
1, 129007, Control_c, 0, 67, 11
1, 129022, Control_c, 0, 64, 80
1, 129024, Note_on_c, 0, 83, 79
1, 129024, Note_on_c, 0, 87, 82
1, 129036, Note_off_c, 0, 63, 63
1, 129037, Control_c, 0, 64, 118
1, 129037, Control_c, 0, 67, 11
1, 129047, Poly_aftertouch_c, 0, 82, 127
1, 129051, Control_c, 0, 64, 127
1, 129051, Control_c, 0, 67, 10
1, 129066, Control_c, 0, 67, 9
1, 129081, Control_c, 0, 67, 0
1, 129086, Poly_aftertouch_c, 0, 82, 0
1, 129089, Note_off_c, 0, 87, 64
1, 129105, Note_off_c, 0, 83, 59
1, 129135, Poly_aftertouch_c, 0, 85, 0
1, 129183, Note_on_c, 0, 53, 97
1, 129189, Note_on_c, 0, 87, 95
1, 129191, Note_on_c, 0, 83, 83
1, 129229, Note_off_c, 0, 53, 66
1, 129260, Note_off_c, 0, 75, 53
1, 129287, Note_off_c, 0, 87, 62
1, 129299, Note_off_c, 0, 83, 61
1, 129400, Note_on_c, 0, 70, 84
1, 129404, Note_on_c, 0, 73, 84
1, 129405, Note_on_c, 0, 61, 81
1, 129444, Note_off_c, 0, 70, 63
1, 129457, Note_off_c, 0, 61, 60
1, 129467, Note_on_c, 0, 82, 81
1, 129473, Note_on_c, 0, 85, 73
1, 129481, Note_off_c, 0, 73, 63
1, 129508, Note_off_c, 0, 82, 66
1, 129522, Note_off_c, 0, 85, 58
1, 129543, Note_on_c, 0, 85, 67
1, 129550, Note_on_c, 0, 53, 81
1, 129558, Note_on_c, 0, 82, 90
1, 129604, Note_off_c, 0, 53, 64
1, 129612, Note_off_c, 0, 82, 65
1, 129615, Note_off_c, 0, 85, 65
1, 129695, Note_on_c, 0, 58, 74
1, 129704, Note_on_c, 0, 68, 82
1, 129710, Note_on_c, 0, 71, 88
1, 129731, Note_off_c, 0, 58, 63
1, 129739, Note_on_c, 0, 59, 69
1, 129751, Note_off_c, 0, 68, 60
1, 129766, Note_on_c, 0, 83, 75
1, 129768, Note_on_c, 0, 80, 79
1, 129773, Note_off_c, 0, 71, 65
1, 129790, Note_off_c, 0, 80, 68
1, 129802, Note_off_c, 0, 59, 59
1, 129803, Note_off_c, 0, 83, 61
1, 129840, Note_on_c, 0, 83, 78
1, 129851, Note_on_c, 0, 53, 80
1, 129859, Note_on_c, 0, 80, 89
1, 129898, Note_off_c, 0, 83, 66
1, 129910, Note_off_c, 0, 53, 62
1, 129924, Note_off_c, 0, 80, 63
1, 130014, Note_on_c, 0, 70, 86
1, 130017, Note_on_c, 0, 58, 81
1, 130017, Note_on_c, 0, 66, 84
1, 130059, Control_c, 0, 64, 103
1, 130074, Control_c, 0, 64, 71
1, 130084, Note_on_c, 0, 78, 86
1, 130086, Note_on_c, 0, 82, 82
1, 130089, Control_c, 0, 64, 0
1, 130095, Note_off_c, 0, 70, 64
1, 130125, Note_off_c, 0, 66, 60
1, 130125, Note_off_c, 0, 78, 62
1, 130133, Control_c, 0, 64, 42
1, 130148, Control_c, 0, 64, 66
1, 130149, Note_off_c, 0, 82, 0
1, 130151, Note_off_c, 0, 58, 55
1, 130163, Note_on_c, 0, 82, 64
1, 130163, Control_c, 0, 64, 83
1, 130166, Note_on_c, 0, 54, 70
1, 130174, Note_on_c, 0, 78, 81
1, 130178, Control_c, 0, 64, 127
1, 130242, Note_off_c, 0, 82, 59
1, 130270, Note_off_c, 0, 54, 59
1, 130285, Note_off_c, 0, 78, 56
1, 130330, Note_on_c, 0, 70, 84
1, 130339, Note_on_c, 0, 58, 71
1, 130339, Note_on_c, 0, 62, 63
1, 130361, Note_off_c, 0, 58, 69
1, 130366, Note_off_c, 0, 62, 64
1, 130386, Control_c, 0, 64, 121
1, 130393, Note_on_c, 0, 82, 77
1, 130401, Control_c, 0, 64, 80
1, 130402, Note_on_c, 0, 80, 69
1, 130403, Note_on_c, 0, 77, 68
1, 130411, Note_off_c, 0, 70, 62
1, 130415, Control_c, 0, 64, 50
1, 130426, Note_off_c, 0, 80, 67
1, 130430, Note_off_c, 0, 77, 66
1, 130430, Control_c, 0, 64, 0
1, 130446, Note_off_c, 0, 82, 60
1, 130460, Control_c, 0, 64, 24
1, 130473, Note_on_c, 0, 82, 66
1, 130475, Control_c, 0, 64, 67
1, 130481, Note_on_c, 0, 46, 78
1, 130481, Note_on_c, 0, 77, 72
1, 130489, Control_c, 0, 64, 89
1, 130495, Note_on_c, 0, 80, 79
1, 130504, Control_c, 0, 64, 127
1, 130512, Note_off_c, 0, 46, 63
1, 130515, Note_off_c, 0, 82, 65
1, 130532, Note_off_c, 0, 80, 55
1, 130534, Note_off_c, 0, 77, 63
1, 130662, Note_on_c, 0, 66, 83
1, 130664, Note_on_c, 0, 63, 77
1, 130676, Note_on_c, 0, 58, 67
1, 130728, Note_on_c, 0, 70, 80
1, 130734, Control_c, 0, 64, 81
1, 130738, Note_off_c, 0, 66, 64
1, 130745, Note_on_c, 0, 75, 55
1, 130747, Note_on_c, 0, 78, 51
1, 130750, Control_c, 0, 64, 32
1, 130761, Note_off_c, 0, 70, 61
1, 130763, Note_off_c, 0, 63, 58
1, 130765, Control_c, 0, 64, 0
1, 130767, Note_off_c, 0, 75, 60
1, 130770, Note_off_c, 0, 78, 61
1, 130783, Note_off_c, 0, 58, 55
1, 130809, Control_c, 0, 64, 33
1, 130811, Note_on_c, 0, 78, 73
1, 130816, Note_on_c, 0, 51, 77
1, 130820, Note_on_c, 0, 70, 63
1, 130823, Control_c, 0, 64, 70
1, 130828, Note_on_c, 0, 75, 79
1, 130838, Control_c, 0, 64, 93
1, 130853, Control_c, 0, 64, 127
1, 130881, Note_off_c, 0, 78, 64
1, 130901, Note_off_c, 0, 75, 62
1, 130925, Note_off_c, 0, 51, 59
1, 130927, Note_off_c, 0, 70, 49
1, 130992, Note_on_c, 0, 65, 82
1, 131002, Note_on_c, 0, 62, 63
1, 131004, Note_on_c, 0, 58, 78
1, 131026, Note_off_c, 0, 58, 69
1, 131031, Note_off_c, 0, 62, 64
1, 131066, Note_on_c, 0, 70, 72
1, 131066, Note_on_c, 0, 74, 76
1, 131067, Note_on_c, 0, 77, 70
1, 131106, Control_c, 0, 64, 102
1, 131115, Note_off_c, 0, 74, 62
1, 131117, Note_off_c, 0, 70, 64
1, 131117, Note_off_c, 0, 77, 57
1, 131120, Control_c, 0, 64, 66
1, 131135, Control_c, 0, 64, 0
1, 131187, Note_on_c, 0, 46, 89
1, 131198, Note_on_c, 0, 77, 83
1, 131203, Note_on_c, 0, 74, 83
1, 131204, Note_on_c, 0, 70, 83
1, 131219, Note_off_c, 0, 65, 61
1, 131220, Note_off_c, 0, 46, 60
1, 131224, Control_c, 0, 64, 64
1, 131239, Control_c, 0, 64, 84
1, 131254, Control_c, 0, 64, 127
1, 131288, Note_off_c, 0, 70, 62
1, 131290, Note_off_c, 0, 74, 63
1, 131300, Note_off_c, 0, 77, 61
1, 131416, Note_on_c, 0, 65, 99
1, 131424, Note_on_c, 0, 53, 90
1, 131451, Note_off_c, 0, 53, 68
1, 131457, Note_off_c, 0, 65, 67
1, 131597, Note_on_c, 0, 65, 98
1, 131606, Note_on_c, 0, 53, 91
1, 131630, Note_off_c, 0, 65, 68
1, 131641, Note_off_c, 0, 53, 68
1, 131763, Note_on_c, 0, 75, 87
1, 131779, Note_on_c, 0, 58, 95
1, 131780, Note_on_c, 0, 83, 86
1, 131780, Note_on_c, 0, 87, 90
1, 131785, Note_on_c, 0, 46, 85
1, 131812, Note_off_c, 0, 58, 58
1, 131814, Note_off_c, 0, 46, 64
1, 131817, Note_off_c, 0, 75, 65
1, 131858, Note_off_c, 0, 87, 63
1, 131867, Note_off_c, 0, 83, 59
1, 131884, Control_c, 0, 64, 75
1, 131899, Control_c, 0, 64, 0
1, 131951, Note_on_c, 0, 87, 93
1, 131953, Note_on_c, 0, 58, 92
1, 131954, Note_on_c, 0, 83, 86
1, 131955, Note_on_c, 0, 75, 93
1, 131955, Note_on_c, 0, 46, 87
1, 131958, Control_c, 0, 64, 58
1, 131973, Control_c, 0, 64, 74
1, 131982, Note_off_c, 0, 46, 67
1, 131988, Control_c, 0, 64, 105
1, 131992, Note_off_c, 0, 58, 63
1, 131998, Note_off_c, 0, 83, 63
1, 132000, Note_off_c, 0, 87, 67
1, 132003, Control_c, 0, 64, 127
1, 132022, Note_off_c, 0, 75, 62
1, 132113, Note_on_c, 0, 74, 93
1, 132122, Note_on_c, 0, 58, 75
1, 132122, Note_on_c, 0, 70, 87
1, 132124, Note_on_c, 0, 86, 94
1, 132126, Note_on_c, 0, 65, 78
1, 132126, Note_on_c, 0, 82, 91
1, 132159, Note_off_c, 0, 74, 67
1, 132172, Note_off_c, 0, 86, 64
1, 132173, Control_c, 0, 64, 113
1, 132175, Note_off_c, 0, 70, 53
1, 132181, Note_off_c, 0, 58, 61
1, 132185, Note_off_c, 0, 82, 63
1, 132188, Control_c, 0, 64, 73
1, 132190, Note_off_c, 0, 65, 61
1, 132202, Control_c, 0, 64, 0
1, 132217, Poly_aftertouch_c, 0, 63, 0
1, 132288, Note_on_c, 0, 70, 89
1, 132292, Note_on_c, 0, 58, 83
1, 132292, Note_on_c, 0, 86, 100
1, 132293, Note_on_c, 0, 74, 103
1, 132294, Note_on_c, 0, 65, 80
1, 132294, Note_on_c, 0, 82, 99
1, 132306, Control_c, 0, 64, 74
1, 132321, Control_c, 0, 64, 113
1, 132322, Note_off_c, 0, 74, 66
1, 132323, Note_off_c, 0, 70, 62
1, 132324, Note_off_c, 0, 65, 64
1, 132330, Note_on_c, 0, 63, 18
1, 132333, Note_off_c, 0, 86, 68
1, 132336, Note_off_c, 0, 82, 66
1, 132336, Control_c, 0, 64, 127
1, 132344, Note_off_c, 0, 58, 62
1, 132373, Note_off_c, 0, 63, 49
1, 132441, Note_on_c, 0, 80, 96
1, 132446, Note_on_c, 0, 92, 97
1, 132447, Note_on_c, 0, 63, 88
1, 132454, Note_on_c, 0, 89, 82
1, 132455, Note_on_c, 0, 51, 88
1, 132488, Note_off_c, 0, 51, 65
1, 132489, Note_off_c, 0, 80, 59
1, 132490, Note_off_c, 0, 63, 60
1, 132519, Note_off_c, 0, 92, 63
1, 132542, Note_off_c, 0, 89, 52
1, 132543, Control_c, 0, 64, 89
1, 132559, Control_c, 0, 64, 54
1, 132574, Control_c, 0, 64, 0
1, 132600, Note_on_c, 0, 89, 77
1, 132601, Note_on_c, 0, 63, 90
1, 132601, Note_on_c, 0, 92, 96
1, 132604, Note_on_c, 0, 80, 94
1, 132604, Control_c, 0, 64, 49
1, 132605, Note_on_c, 0, 51, 88
1, 132618, Control_c, 0, 64, 76
1, 132628, Note_off_c, 0, 51, 70
1, 132633, Control_c, 0, 64, 127
1, 132637, Note_off_c, 0, 63, 61
1, 132646, Note_off_c, 0, 89, 63
1, 132647, Note_off_c, 0, 92, 68
1, 132652, Note_off_c, 0, 80, 64
1, 132748, Note_on_c, 0, 78, 89
1, 132752, Note_on_c, 0, 70, 88
1, 132757, Note_on_c, 0, 63, 79
1, 132762, Note_on_c, 0, 90, 90
1, 132763, Note_on_c, 0, 58, 69
1, 132764, Note_on_c, 0, 87, 85
1, 132771, Note_off_c, 0, 70, 69
1, 132775, Note_off_c, 0, 63, 68
1, 132787, Note_off_c, 0, 58, 68
1, 132791, Note_off_c, 0, 78, 64
1, 132810, Note_off_c, 0, 90, 64
1, 132811, Note_off_c, 0, 87, 66
1, 132855, Control_c, 0, 64, 77
1, 132870, Control_c, 0, 64, 0
1, 132910, Note_on_c, 0, 70, 91
1, 132912, Note_on_c, 0, 90, 90
1, 132917, Note_on_c, 0, 58, 78
1, 132918, Note_on_c, 0, 63, 81
1, 132918, Note_on_c, 0, 87, 72
1, 132921, Note_on_c, 0, 78, 86
1, 132929, Note_off_c, 0, 70, 68
1, 132932, Note_on_c, 0, 80, 69
1, 132937, Control_c, 0, 64, 70
1, 132938, Note_off_c, 0, 63, 69
1, 132938, Note_off_c, 0, 87, 61
1, 132945, Note_on_c, 0, 88, 53
1, 132950, Note_off_c, 0, 80, 60
1, 132952, Control_c, 0, 64, 94
1, 132955, Note_on_c, 0, 91, 32
1, 132956, Note_off_c, 0, 91, 127
1, 132961, Note_off_c, 0, 90, 65
1, 132964, Note_off_c, 0, 58, 61
1, 132966, Control_c, 0, 64, 127
1, 132970, Note_off_c, 0, 88, 39
1, 132971, Note_off_c, 0, 78, 60
1, 133057, Note_on_c, 0, 75, 94
1, 133068, Note_on_c, 0, 87, 85
1, 133070, Note_on_c, 0, 58, 82
1, 133072, Note_on_c, 0, 83, 79
1, 133081, Note_on_c, 0, 46, 81
1, 133096, Note_off_c, 0, 58, 62
1, 133099, Control_c, 0, 64, 117
1, 133109, Note_off_c, 0, 46, 64
1, 133114, Control_c, 0, 64, 73
1, 133117, Note_off_c, 0, 75, 61
1, 133128, Note_off_c, 0, 87, 64
1, 133129, Control_c, 0, 64, 0
1, 133150, Note_off_c, 0, 83, 61
1, 133203, Control_c, 0, 64, 68
1, 133210, Note_on_c, 0, 46, 77
1, 133212, Note_on_c, 0, 58, 88
1, 133215, Note_on_c, 0, 75, 97
1, 133215, Note_on_c, 0, 87, 95
1, 133216, Note_on_c, 0, 83, 77
1, 133217, Control_c, 0, 64, 104
1, 133232, Control_c, 0, 64, 127
1, 133241, Note_off_c, 0, 46, 65
1, 133242, Note_off_c, 0, 58, 63
1, 133249, Note_off_c, 0, 83, 60
1, 133269, Note_off_c, 0, 87, 66
1, 133272, Note_off_c, 0, 75, 65
1, 133359, Note_on_c, 0, 74, 98
1, 133362, Note_on_c, 0, 58, 77
1, 133367, Note_on_c, 0, 70, 83
1, 133369, Note_on_c, 0, 65, 77
1, 133370, Note_on_c, 0, 86, 95
1, 133374, Note_on_c, 0, 82, 91
1, 133395, Note_off_c, 0, 70, 59
1, 133400, Note_off_c, 0, 74, 69
1, 133413, Note_off_c, 0, 86, 62
1, 133421, Note_off_c, 0, 58, 62
1, 133422, Note_off_c, 0, 82, 63
1, 133424, Note_off_c, 0, 65, 60
1, 133440, Control_c, 0, 64, 92
1, 133455, Control_c, 0, 64, 61
1, 133470, Control_c, 0, 64, 0
1, 133508, Note_on_c, 0, 70, 87
1, 133512, Note_on_c, 0, 74, 100
1, 133514, Note_on_c, 0, 86, 100
1, 133514, Note_on_c, 0, 82, 96
1, 133514, Control_c, 0, 64, 58
1, 133517, Note_on_c, 0, 58, 84
1, 133521, Note_on_c, 0, 65, 74
1, 133529, Control_c, 0, 64, 84
1, 133539, Note_off_c, 0, 70, 65
1, 133539, Note_off_c, 0, 74, 67
1, 133544, Control_c, 0, 64, 127
1, 133545, Note_off_c, 0, 65, 70
1, 133552, Note_off_c, 0, 86, 67
1, 133557, Note_off_c, 0, 82, 66
1, 133564, Note_off_c, 0, 58, 64
1, 133657, Note_on_c, 0, 80, 92
1, 133663, Note_on_c, 0, 92, 96
1, 133668, Note_on_c, 0, 63, 78
1, 133668, Note_on_c, 0, 89, 86
1, 133672, Note_on_c, 0, 51, 82
1, 133693, Note_off_c, 0, 63, 66
1, 133698, Note_off_c, 0, 80, 64
1, 133705, Note_off_c, 0, 51, 64
1, 133725, Note_off_c, 0, 89, 53
1, 133727, Note_off_c, 0, 92, 65
1, 133729, Control_c, 0, 64, 114
1, 133745, Control_c, 0, 64, 73
1, 133760, Control_c, 0, 64, 0
1, 133804, Control_c, 0, 64, 61
1, 133807, Note_on_c, 0, 92, 96
1, 133811, Note_on_c, 0, 80, 93
1, 133812, Note_on_c, 0, 51, 84
1, 133812, Note_on_c, 0, 63, 84
1, 133814, Note_on_c, 0, 89, 87
1, 133819, Control_c, 0, 64, 85
1, 133834, Control_c, 0, 64, 127
1, 133840, Note_off_c, 0, 63, 62
1, 133843, Note_off_c, 0, 51, 67
1, 133855, Note_off_c, 0, 92, 68
1, 133857, Note_off_c, 0, 89, 61
1, 133865, Note_off_c, 0, 80, 64
1, 133954, Note_on_c, 0, 78, 92
1, 133960, Note_on_c, 0, 63, 79
1, 133960, Note_on_c, 0, 70, 85
1, 133965, Note_on_c, 0, 90, 97
1, 133972, Note_on_c, 0, 87, 89
1, 133977, Note_on_c, 0, 58, 54
1, 133979, Note_off_c, 0, 70, 68
1, 134003, Note_off_c, 0, 58, 65
1, 134004, Note_off_c, 0, 78, 64
1, 134009, Note_off_c, 0, 63, 58
1, 134024, Note_off_c, 0, 90, 64
1, 134032, Note_off_c, 0, 87, 63
1, 134105, Note_on_c, 0, 58, 74
1, 134107, Note_on_c, 0, 70, 82
1, 134109, Note_on_c, 0, 78, 95
1, 134110, Note_on_c, 0, 90, 95
1, 134112, Note_on_c, 0, 63, 73
1, 134119, Note_on_c, 0, 87, 82
1, 134140, Note_off_c, 0, 87, 72
1, 134141, Note_off_c, 0, 63, 64
1, 134145, Note_off_c, 0, 90, 67
1, 134146, Note_off_c, 0, 70, 52
1, 134155, Note_off_c, 0, 58, 57
1, 134173, Note_off_c, 0, 78, 60
1, 134267, Note_on_c, 0, 75, 84
1, 134269, Note_on_c, 0, 71, 94
1, 134275, Note_on_c, 0, 63, 86
1, 134277, Note_on_c, 0, 87, 89
1, 134279, Control_c, 0, 64, 86
1, 134280, Note_on_c, 0, 83, 80
1, 134294, Control_c, 0, 64, 0
1, 134317, Poly_aftertouch_c, 0, 82, 127
1, 134363, Poly_aftertouch_c, 0, 82, 0
1, 134368, Control_c, 0, 64, 66
1, 134376, Note_off_c, 0, 71, 61
1, 134390, Control_c, 0, 64, 84
1, 134393, Note_off_c, 0, 63, 60
1, 134393, Note_off_c, 0, 87, 64
1, 134405, Control_c, 0, 64, 127
1, 134409, Note_off_c, 0, 75, 55
1, 134411, Note_off_c, 0, 83, 61
1, 134493, Note_on_c, 0, 87, 85
1, 134498, Note_on_c, 0, 83, 85
1, 134506, Note_on_c, 0, 53, 78
1, 134518, Note_on_c, 0, 75, 74
1, 134560, Note_off_c, 0, 53, 63
1, 134563, Note_off_c, 0, 83, 62
1, 134575, Note_off_c, 0, 87, 63
1, 134602, Note_off_c, 0, 75, 63
1, 134612, Control_c, 0, 67, 8
1, 134627, Control_c, 0, 67, 9
1, 134642, Control_c, 0, 67, 10
1, 134657, Control_c, 0, 67, 11
1, 134671, Control_c, 0, 67, 12
1, 134679, Note_on_c, 0, 73, 88
1, 134685, Note_on_c, 0, 70, 82
1, 134686, Control_c, 0, 67, 13
1, 134688, Note_on_c, 0, 61, 78
1, 134690, Note_on_c, 0, 85, 84
1, 134691, Note_on_c, 0, 82, 83
1, 134701, Control_c, 0, 67, 15
1, 134716, Control_c, 0, 67, 16
1, 134724, Note_on_c, 0, 80, 30
1, 134731, Control_c, 0, 67, 18
1, 134736, Note_off_c, 0, 73, 59
1, 134739, Note_off_c, 0, 70, 61
1, 134744, Note_off_c, 0, 61, 61
1, 134745, Note_off_c, 0, 82, 62
1, 134745, Control_c, 0, 67, 19
1, 134748, Note_off_c, 0, 85, 61
1, 134757, Note_off_c, 0, 80, 53
1, 134760, Control_c, 0, 67, 19
1, 134775, Control_c, 0, 67, 20
1, 134790, Control_c, 0, 67, 21
1, 134804, Control_c, 0, 67, 21
1, 134819, Control_c, 0, 67, 22
1, 134834, Note_on_c, 0, 82, 87
1, 134834, Control_c, 0, 67, 23
1, 134835, Note_on_c, 0, 70, 82
1, 134835, Note_on_c, 0, 73, 88
1, 134835, Note_on_c, 0, 85, 84
1, 134841, Note_on_c, 0, 61, 78
1, 134849, Control_c, 0, 67, 25
1, 134864, Control_c, 0, 67, 26
1, 134879, Control_c, 0, 67, 28
1, 134879, Note_off_c, 0, 82, 63
1, 134880, Note_off_c, 0, 85, 64
1, 134882, Note_off_c, 0, 70, 61
1, 134886, Note_off_c, 0, 73, 62
1, 134894, Control_c, 0, 67, 29
1, 134899, Note_off_c, 0, 61, 59
1, 134909, Control_c, 0, 67, 30
1, 134924, Control_c, 0, 67, 30
1, 134973, Note_on_c, 0, 71, 84
1, 134978, Note_on_c, 0, 68, 74
1, 134985, Note_on_c, 0, 59, 71
1, 134992, Note_on_c, 0, 83, 80
1, 134999, Note_on_c, 0, 80, 73
1, 135051, Note_off_c, 0, 71, 62
1, 135063, Note_off_c, 0, 80, 59
1, 135070, Note_off_c, 0, 83, 62
1, 135087, Control_c, 0, 67, 31
1, 135102, Control_c, 0, 67, 31
1, 135139, Control_c, 0, 67, 32
1, 135154, Control_c, 0, 64, 93
1, 135168, Control_c, 0, 64, 64
1, 135168, Control_c, 0, 67, 32
1, 135171, Note_on_c, 0, 83, 71
1, 135183, Control_c, 0, 64, 0
1, 135183, Control_c, 0, 67, 33
1, 135184, Note_on_c, 0, 80, 69
1, 135192, Note_on_c, 0, 54, 62
1, 135198, Control_c, 0, 67, 33
1, 135201, Note_on_c, 0, 71, 64
1, 135213, Control_c, 0, 67, 34
1, 135228, Control_c, 0, 64, 53
1, 135228, Control_c, 0, 67, 34
1, 135232, Note_off_c, 0, 68, 57
1, 135234, Note_off_c, 0, 59, 56
1, 135236, Note_off_c, 0, 83, 61
1, 135243, Control_c, 0, 64, 71
1, 135243, Control_c, 0, 67, 35
1, 135258, Control_c, 0, 64, 87
1, 135258, Control_c, 0, 67, 35
1, 135259, Note_off_c, 0, 71, 62
1, 135272, Control_c, 0, 64, 127
1, 135286, Note_off_c, 0, 80, 60
1, 135361, Control_c, 0, 67, 36
1, 135375, Note_on_c, 0, 70, 68
1, 135376, Control_c, 0, 67, 36
1, 135383, Note_on_c, 0, 82, 75
1, 135386, Note_on_c, 0, 66, 58
1, 135391, Control_c, 0, 64, 79
1, 135391, Control_c, 0, 67, 37
1, 135392, Note_on_c, 0, 58, 59
1, 135398, Note_on_c, 0, 78, 56
1, 135405, Control_c, 0, 64, 32
1, 135405, Control_c, 0, 67, 39
1, 135420, Control_c, 0, 64, 0
1, 135420, Control_c, 0, 67, 40
1, 135435, Control_c, 0, 64, 47
1, 135435, Control_c, 0, 67, 40
1, 135442, Note_off_c, 0, 70, 60
1, 135450, Control_c, 0, 64, 68
1, 135454, Note_off_c, 0, 78, 55
1, 135459, Note_off_c, 0, 82, 61
1, 135463, Note_off_c, 0, 58, 59
1, 135463, Note_off_c, 0, 66, 58
1, 135465, Control_c, 0, 64, 78
1, 135465, Control_c, 0, 67, 41
1, 135480, Control_c, 0, 64, 95
1, 135494, Control_c, 0, 64, 127
1, 135509, Control_c, 0, 67, 41
1, 135524, Control_c, 0, 67, 42
1, 135556, Note_on_c, 0, 70, 68
1, 135562, Note_on_c, 0, 82, 67
1, 135567, Note_on_c, 0, 78, 57
1, 135568, Note_on_c, 0, 66, 53
1, 135568, Control_c, 0, 67, 42
1, 135583, Note_on_c, 0, 58, 58
1, 135583, Control_c, 0, 67, 43
1, 135598, Control_c, 0, 67, 45
1, 135606, Note_off_c, 0, 66, 59
1, 135612, Control_c, 0, 67, 47
1, 135617, Note_off_c, 0, 78, 48
1, 135624, Note_off_c, 0, 58, 55
1, 135624, Note_off_c, 0, 70, 61
1, 135627, Control_c, 0, 67, 48
1, 135630, Note_off_c, 0, 82, 59
1, 135693, Note_off_c, 0, 54, 59
1, 135717, Control_c, 0, 67, 49
1, 135738, Note_on_c, 0, 70, 59
1, 135746, Control_c, 0, 64, 88
1, 135746, Control_c, 0, 67, 49
1, 135751, Note_on_c, 0, 82, 65
1, 135752, Note_on_c, 0, 62, 60
1, 135755, Note_on_c, 0, 58, 57
1, 135762, Control_c, 0, 64, 59
1, 135767, Note_on_c, 0, 77, 61
1, 135777, Control_c, 0, 64, 0
1, 135777, Control_c, 0, 67, 50
1, 135791, Control_c, 0, 67, 50
1, 135799, Note_off_c, 0, 70, 55
1, 135806, Control_c, 0, 64, 42
1, 135821, Control_c, 0, 64, 68
1, 135828, Note_off_c, 0, 82, 60
1, 135836, Control_c, 0, 64, 81
1, 135840, Note_off_c, 0, 77, 62
1, 135851, Control_c, 0, 64, 108
1, 135866, Control_c, 0, 64, 127
1, 135943, Note_on_c, 0, 82, 68
1, 135962, Control_c, 0, 67, 51
1, 135966, Note_on_c, 0, 77, 56
1, 135977, Control_c, 0, 67, 51
1, 135979, Note_on_c, 0, 51, 51
1, 135991, Control_c, 0, 67, 52
1, 135992, Note_off_c, 0, 58, 38
1, 135993, Note_off_c, 0, 62, 56
1, 135994, Note_off_c, 0, 77, 66
1, 135997, Note_on_c, 0, 70, 63
1, 135999, Note_off_c, 0, 82, 57
1, 136036, Control_c, 0, 67, 52
1, 136037, Note_off_c, 0, 70, 61
1, 136095, Control_c, 0, 67, 53
1, 136110, Control_c, 0, 67, 53
1, 136125, Control_c, 0, 67, 54
1, 136157, Note_on_c, 0, 66, 68
1, 136169, Control_c, 0, 64, 98
1, 136169, Control_c, 0, 67, 55
1, 136184, Control_c, 0, 64, 71
1, 136189, Note_on_c, 0, 63, 51
1, 136199, Control_c, 0, 64, 0
1, 136199, Control_c, 0, 67, 55
1, 136202, Note_on_c, 0, 58, 49
1, 136207, Note_on_c, 0, 78, 62
1, 136209, Note_on_c, 0, 70, 58
1, 136214, Control_c, 0, 67, 56
1, 136229, Note_on_c, 0, 75, 48
1, 136229, Note_off_c, 0, 66, 58
1, 136229, Control_c, 0, 64, 62
1, 136229, Control_c, 0, 67, 57
1, 136243, Control_c, 0, 64, 71
1, 136243, Control_c, 0, 67, 57
1, 136258, Control_c, 0, 64, 82
1, 136258, Control_c, 0, 67, 58
1, 136259, Note_off_c, 0, 75, 59
1, 136270, Note_off_c, 0, 70, 59
1, 136273, Control_c, 0, 64, 106
1, 136273, Control_c, 0, 67, 58
1, 136274, Note_off_c, 0, 78, 59
1, 136286, Note_off_c, 0, 63, 52
1, 136288, Control_c, 0, 64, 127
1, 136297, Note_off_c, 0, 58, 48
1, 136347, Control_c, 0, 67, 59
1, 136361, Control_c, 0, 67, 59
1, 136376, Control_c, 0, 67, 60
1, 136379, Note_on_c, 0, 70, 63
1, 136384, Note_on_c, 0, 78, 65
1, 136391, Control_c, 0, 67, 61
1, 136406, Control_c, 0, 67, 62
1, 136407, Note_on_c, 0, 75, 29
1, 136408, Note_on_c, 0, 63, 48
1, 136416, Note_on_c, 0, 66, 58
1, 136421, Control_c, 0, 67, 64
1, 136428, Note_on_c, 0, 58, 50
1, 136435, Control_c, 0, 67, 65
1, 136450, Control_c, 0, 67, 67
1, 136465, Control_c, 0, 67, 69
1, 136468, Note_off_c, 0, 78, 56
1, 136478, Note_off_c, 0, 63, 50
1, 136480, Note_off_c, 0, 58, 53
1, 136480, Control_c, 0, 67, 70
1, 136487, Note_off_c, 0, 75, 38
1, 136489, Note_off_c, 0, 66, 60
1, 136495, Control_c, 0, 67, 71
1, 136510, Control_c, 0, 67, 71
1, 136536, Note_off_c, 0, 70, 56
1, 136539, Control_c, 0, 67, 72
1, 136587, Note_on_c, 0, 65, 63
1, 136637, Control_c, 0, 64, 87
1, 136637, Control_c, 0, 67, 72
1, 136652, Control_c, 0, 64, 65
1, 136665, Note_on_c, 0, 62, 39
1, 136666, Note_on_c, 0, 58, 39
1, 136666, Control_c, 0, 64, 0
1, 136670, Note_on_c, 0, 70, 48
1, 136680, Note_on_c, 0, 77, 46
1, 136681, Control_c, 0, 64, 50
1, 136681, Control_c, 0, 67, 73
1, 136694, Note_on_c, 0, 74, 46
1, 136696, Control_c, 0, 64, 65
1, 136711, Control_c, 0, 64, 72
1, 136726, Control_c, 0, 64, 82
1, 136727, Note_off_c, 0, 51, 52
1, 136736, Note_off_c, 0, 77, 58
1, 136741, Control_c, 0, 64, 97
1, 136742, Note_off_c, 0, 74, 57
1, 136748, Note_off_c, 0, 70, 58
1, 136756, Control_c, 0, 64, 127
1, 136756, Control_c, 0, 67, 73
1, 136763, Note_off_c, 0, 65, 51
1, 136845, Control_c, 0, 67, 74
1, 136859, Control_c, 0, 67, 74
1, 136874, Control_c, 0, 67, 75
1, 136881, Note_on_c, 0, 70, 52
1, 136889, Control_c, 0, 67, 77
1, 136899, Note_on_c, 0, 77, 39
1, 136904, Control_c, 0, 67, 79
1, 136905, Note_on_c, 0, 74, 45
1, 136919, Control_c, 0, 67, 81
1, 136933, Control_c, 0, 67, 82
1, 136948, Control_c, 0, 67, 84
1, 136963, Control_c, 0, 67, 86
1, 136978, Control_c, 0, 67, 87
1, 136992, Control_c, 0, 67, 88
1, 136999, Note_on_c, 0, 68, 60
1, 137002, Note_on_c, 0, 51, 37
1, 137007, Control_c, 0, 67, 89
1, 137022, Control_c, 0, 67, 89
1, 137037, Control_c, 0, 67, 90
1, 137047, Note_off_c, 0, 62, 35
1, 137052, Control_c, 0, 64, 87
1, 137052, Control_c, 0, 67, 90
1, 137067, Control_c, 0, 64, 63
1, 137067, Control_c, 0, 67, 91
1, 137070, Note_off_c, 0, 58, 40
1, 137082, Control_c, 0, 64, 0
1, 137082, Control_c, 0, 67, 92
1, 137097, Control_c, 0, 67, 93
1, 137112, Control_c, 0, 67, 94
1, 137118, Note_off_c, 0, 74, 32
1, 137127, Note_off_c, 0, 68, 60
1, 137127, Control_c, 0, 64, 50
1, 137127, Control_c, 0, 67, 94
1, 137137, Note_off_c, 0, 70, 0
1, 137141, Control_c, 0, 64, 68
1, 137141, Control_c, 0, 67, 95
1, 137156, Control_c, 0, 64, 78
1, 137156, Control_c, 0, 67, 95
1, 137171, Control_c, 0, 64, 95
1, 137171, Control_c, 0, 67, 96
1, 137185, Control_c, 0, 64, 127
1, 137200, Control_c, 0, 67, 96
1, 137207, Note_off_c, 0, 77, 42
1, 137225, Poly_aftertouch_c, 0, 70, 0
1, 137230, Control_c, 0, 67, 97
1, 137243, Note_on_c, 0, 66, 54
1, 137259, Control_c, 0, 67, 97
1, 137340, Note_on_c, 0, 78, 56
1, 137347, Note_on_c, 0, 70, 46
1, 137353, Note_on_c, 0, 75, 47
1, 137359, Note_on_c, 0, 63, 39
1, 137363, Note_on_c, 0, 58, 41
1, 137374, Note_off_c, 0, 66, 38
1, 137403, Note_off_c, 0, 75, 59
1, 137404, Note_off_c, 0, 70, 59
1, 137416, Note_off_c, 0, 78, 51
1, 137421, Note_off_c, 0, 58, 56
1, 137430, Note_off_c, 0, 63, 53
1, 137636, Note_on_c, 0, 78, 47
1, 137637, Note_on_c, 0, 70, 51
1, 137663, Note_on_c, 0, 75, 37
1, 137739, Note_on_c, 0, 58, 36
1, 137739, Note_on_c, 0, 63, 37
1, 137741, Note_on_c, 0, 66, 48
1, 137756, Control_c, 0, 64, 104
1, 137770, Control_c, 0, 64, 77
1, 137782, Note_off_c, 0, 70, 56
1, 137785, Control_c, 0, 64, 47
1, 137800, Control_c, 0, 64, 0
1, 137821, Note_off_c, 0, 75, 46
1, 137830, Control_c, 0, 67, 97
1, 137845, Control_c, 0, 64, 44
1, 137845, Control_c, 0, 67, 96
1, 137860, Control_c, 0, 64, 67
1, 137860, Control_c, 0, 67, 96
1, 137875, Control_c, 0, 64, 80
1, 137875, Control_c, 0, 67, 94
1, 137889, Control_c, 0, 64, 109
1, 137889, Control_c, 0, 67, 94
1, 137904, Control_c, 0, 64, 127
1, 137904, Control_c, 0, 67, 93
1, 137919, Control_c, 0, 67, 92
1, 137934, Control_c, 0, 67, 91
1, 137949, Control_c, 0, 67, 90
1, 137963, Control_c, 0, 67, 90
1, 137978, Control_c, 0, 67, 89
1, 138012, Note_off_c, 0, 51, 37
1, 138018, Note_off_c, 0, 63, 44
1, 138035, Note_off_c, 0, 58, 39
1, 138052, Control_c, 0, 67, 90
1, 138067, Control_c, 0, 67, 91
1, 138073, Note_off_c, 0, 66, 47
1, 138081, Control_c, 0, 67, 92
1, 138096, Control_c, 0, 67, 92
1, 138111, Control_c, 0, 67, 93
1, 138133, Control_c, 0, 67, 94
1, 138148, Control_c, 0, 67, 95
1, 138164, Control_c, 0, 67, 96
1, 138194, Control_c, 0, 67, 96
1, 138194, Note_on_c, 0, 75, 63
1, 138207, Note_on_c, 0, 58, 48
1, 138209, Note_on_c, 0, 66, 46
1, 138215, Note_on_c, 0, 51, 42
1, 138232, Note_off_c, 0, 78, 55
1, 138237, Control_c, 0, 67, 97
1, 138247, Note_off_c, 0, 58, 56
1, 138250, Note_off_c, 0, 66, 50
1, 138252, Control_c, 0, 67, 97
1, 138256, Note_off_c, 0, 51, 53
1, 138282, Control_c, 0, 67, 98
1, 138326, Note_on_c, 0, 77, 77
1, 138341, Control_c, 0, 67, 98
1, 138343, Note_on_c, 0, 51, 40
1, 138349, Note_off_c, 0, 75, 57
1, 138355, Note_on_c, 0, 66, 39
1, 138355, Note_on_c, 0, 58, 35
1, 138370, Control_c, 0, 67, 99
1, 138385, Note_off_c, 0, 66, 53
1, 138385, Control_c, 0, 67, 102
1, 138400, Control_c, 0, 67, 104
1, 138402, Note_off_c, 0, 58, 48
1, 138405, Note_off_c, 0, 51, 43
1, 138415, Control_c, 0, 67, 106
1, 138429, Control_c, 0, 67, 107
1, 138444, Control_c, 0, 67, 107
1, 138459, Control_c, 0, 67, 108
1, 138474, Control_c, 0, 67, 109
1, 138489, Control_c, 0, 67, 110
1, 138504, Control_c, 0, 67, 111
1, 138509, Note_on_c, 0, 78, 76
1, 138519, Control_c, 0, 67, 111
1, 138534, Control_c, 0, 67, 112
1, 138545, Note_off_c, 0, 77, 59
1, 138548, Control_c, 0, 67, 113
1, 138561, Note_on_c, 0, 66, 44
1, 138563, Control_c, 0, 67, 114
1, 138578, Control_c, 0, 64, 91
1, 138578, Control_c, 0, 67, 115
1, 138593, Control_c, 0, 64, 69
1, 138593, Control_c, 0, 67, 116
1, 138602, Note_on_c, 0, 51, 32
1, 138608, Control_c, 0, 64, 38
1, 138608, Control_c, 0, 67, 117
1, 138614, Note_on_c, 0, 58, 30
1, 138623, Control_c, 0, 64, 52
1, 138623, Control_c, 0, 67, 118
1, 138637, Control_c, 0, 64, 65
1, 138637, Control_c, 0, 67, 119
1, 138652, Control_c, 0, 64, 73
1, 138652, Control_c, 0, 67, 119
1, 138667, Control_c, 0, 64, 87
1, 138667, Control_c, 0, 67, 120
1, 138682, Control_c, 0, 64, 113
1, 138682, Control_c, 0, 67, 120
1, 138697, Control_c, 0, 64, 127
1, 138697, Control_c, 0, 67, 121
1, 138711, Control_c, 0, 67, 121
1, 138726, Control_c, 0, 67, 122
1, 138741, Control_c, 0, 67, 122
1, 138742, Note_off_c, 0, 66, 55
1, 138746, Note_off_c, 0, 78, 52
1, 138755, Control_c, 0, 67, 123
1, 138760, Note_off_c, 0, 58, 43
1, 138760, Note_off_c, 0, 51, 46
1, 138770, Control_c, 0, 67, 125
1, 138785, Control_c, 0, 67, 126
1, 138800, Control_c, 0, 67, 127
1, 138815, Control_c, 0, 67, 127
1, 138826, Note_on_c, 0, 78, 73
1, 138832, Note_on_c, 0, 58, 48
1, 138835, Note_on_c, 0, 51, 47
1, 138861, Note_off_c, 0, 58, 63
1, 138862, Note_on_c, 0, 66, 37
1, 138917, Note_off_c, 0, 51, 0
1, 138931, Note_on_c, 0, 77, 69
1, 138932, Note_on_c, 0, 51, 45
1, 138948, Note_on_c, 0, 58, 45
1, 138970, Note_off_c, 0, 78, 38
1, 138983, Note_off_c, 0, 58, 54
1, 139013, Note_on_c, 0, 75, 75
1, 139028, Note_on_c, 0, 58, 46
1, 139030, Note_off_c, 0, 77, 59
1, 139065, Note_off_c, 0, 58, 51
1, 139071, Note_off_c, 0, 66, 15
1, 139097, Note_off_c, 0, 51, 53
1, 139101, Note_off_c, 0, 75, 58
1, 139194, Note_on_c, 0, 60, 66
1, 139199, Note_on_c, 0, 75, 74
1, 139218, Note_on_c, 0, 51, 56
1, 139218, Note_on_c, 0, 66, 46
1, 139252, Control_c, 0, 64, 91
1, 139257, Note_off_c, 0, 60, 60
1, 139267, Control_c, 0, 64, 70
1, 139279, Note_on_c, 0, 73, 75
1, 139282, Control_c, 0, 64, 28
1, 139292, Note_on_c, 0, 61, 69
1, 139297, Control_c, 0, 64, 0
1, 139312, Note_off_c, 0, 66, 49
1, 139319, Note_off_c, 0, 75, 59
1, 139341, Control_c, 0, 64, 42
1, 139356, Control_c, 0, 64, 64
1, 139365, Note_off_c, 0, 61, 60
1, 139371, Note_on_c, 0, 63, 70
1, 139371, Control_c, 0, 64, 74
1, 139373, Note_on_c, 0, 72, 74
1, 139386, Control_c, 0, 64, 91
1, 139398, Note_off_c, 0, 51, 0
1, 139398, Note_on_c, 0, 51, 2
1, 139400, Note_off_c, 0, 73, 56
1, 139401, Control_c, 0, 64, 127
1, 139433, Note_off_c, 0, 51, 44
1, 139440, Note_off_c, 0, 72, 61
1, 139443, Poly_aftertouch_c, 0, 66, 127
1, 139447, Note_on_c, 0, 66, 3
1, 139450, Note_off_c, 0, 63, 39
1, 139487, Note_off_c, 0, 66, 50
1, 139556, Note_on_c, 0, 63, 69
1, 139568, Note_on_c, 0, 72, 69
1, 139573, Note_on_c, 0, 66, 60
1, 139574, Note_on_c, 0, 51, 51
1, 139613, Note_off_c, 0, 63, 56
1, 139617, Note_off_c, 0, 66, 51
1, 139644, Note_off_c, 0, 72, 57
1, 139645, Note_on_c, 0, 70, 74
1, 139660, Note_on_c, 0, 61, 76
1, 139675, Control_c, 0, 64, 103
1, 139690, Control_c, 0, 64, 76
1, 139698, Note_off_c, 0, 51, 53
1, 139705, Control_c, 0, 64, 0
1, 139708, Note_off_c, 0, 61, 58
1, 139742, Note_on_c, 0, 60, 66
1, 139744, Note_on_c, 0, 51, 53
1, 139758, Note_on_c, 0, 69, 73
1, 139775, Note_on_c, 0, 66, 58
1, 139777, Note_off_c, 0, 70, 53
1, 139780, Control_c, 0, 64, 11
1, 139794, Control_c, 0, 64, 65
1, 139806, Note_off_c, 0, 69, 60
1, 139809, Control_c, 0, 64, 79
1, 139822, Note_off_c, 0, 60, 54
1, 139824, Control_c, 0, 64, 99
1, 139839, Control_c, 0, 64, 127
1, 139865, Note_off_c, 0, 66, 61
1, 139871, Note_off_c, 0, 51, 53
1, 139937, Note_on_c, 0, 51, 53
1, 139944, Note_on_c, 0, 60, 65
1, 139952, Note_on_c, 0, 69, 68
1, 139954, Note_on_c, 0, 66, 75
1, 139997, Note_off_c, 0, 69, 60
1, 140001, Control_c, 0, 64, 96
1, 140008, Note_off_c, 0, 51, 50
1, 140016, Control_c, 0, 64, 83
1, 140023, Note_on_c, 0, 53, 73
1, 140031, Control_c, 0, 64, 71
1, 140032, Note_off_c, 0, 66, 59
1, 140037, Note_on_c, 0, 65, 75
1, 140046, Control_c, 0, 64, 59
1, 140053, Note_on_c, 0, 69, 31
1, 140061, Control_c, 0, 64, 0
1, 140062, Note_off_c, 0, 60, 33
1, 140119, Note_off_c, 0, 69, 0
1, 140139, Note_on_c, 0, 69, 37
1, 140148, Note_off_c, 0, 65, 63
1, 140149, Note_on_c, 0, 63, 76
1, 140149, Note_off_c, 0, 53, 64
1, 140156, Note_on_c, 0, 54, 74
1, 140157, Note_on_c, 0, 60, 59
1, 140209, Control_c, 0, 64, 57
1, 140224, Control_c, 0, 64, 70
1, 140239, Control_c, 0, 64, 81
1, 140254, Control_c, 0, 64, 98
1, 140268, Control_c, 0, 64, 127
1, 140289, Note_off_c, 0, 60, 58
1, 140294, Note_off_c, 0, 54, 61
1, 140298, Note_off_c, 0, 69, 56
1, 140303, Note_off_c, 0, 63, 59
1, 140370, Note_on_c, 0, 63, 74
1, 140385, Note_on_c, 0, 60, 60
1, 140385, Note_on_c, 0, 54, 59
1, 140403, Note_on_c, 0, 69, 53
1, 140425, Note_off_c, 0, 54, 57
1, 140425, Note_off_c, 0, 60, 55
1, 140437, Note_off_c, 0, 69, 47
1, 140460, Note_off_c, 0, 63, 51
1, 140481, Note_on_c, 0, 53, 66
1, 140483, Note_on_c, 0, 65, 68
1, 140500, Note_on_c, 0, 60, 29
1, 140501, Note_on_c, 0, 69, 38
1, 140539, Note_off_c, 0, 60, 53
1, 140542, Note_off_c, 0, 53, 52
1, 140546, Note_off_c, 0, 69, 47
1, 140583, Note_off_c, 0, 65, 61
1, 140632, Control_c, 0, 64, 92
1, 140636, Note_on_c, 0, 60, 45
1, 140638, Note_on_c, 0, 66, 67
1, 140642, Note_on_c, 0, 51, 49
1, 140647, Control_c, 0, 64, 70
1, 140649, Note_on_c, 0, 69, 57
1, 140662, Control_c, 0, 64, 0
1, 140736, Control_c, 0, 64, 59
1, 140750, Control_c, 0, 64, 72
1, 140765, Control_c, 0, 64, 84
1, 140780, Control_c, 0, 64, 107
1, 140790, Note_off_c, 0, 60, 49
1, 140791, Note_off_c, 0, 69, 54
1, 140795, Control_c, 0, 64, 127
1, 140798, Note_off_c, 0, 51, 50
1, 140856, Note_off_c, 0, 66, 61
1, 140889, Note_on_c, 0, 65, 66
1, 140903, Note_on_c, 0, 51, 46
1, 140913, Note_on_c, 0, 60, 38
1, 140918, Note_on_c, 0, 69, 29
1, 140930, Note_off_c, 0, 65, 53
1, 140947, Note_off_c, 0, 60, 54
1, 140948, Note_off_c, 0, 51, 49
1, 140948, Note_off_c, 0, 69, 55
1, 141017, Note_on_c, 0, 51, 46
1, 141017, Note_on_c, 0, 66, 57
1, 141025, Note_on_c, 0, 69, 53
1, 141028, Note_on_c, 0, 60, 37
1, 141049, Note_off_c, 0, 51, 60
1, 141057, Note_off_c, 0, 60, 55
1, 141061, Note_off_c, 0, 69, 55
1, 141150, Note_off_c, 0, 66, 37
1, 141255, Note_on_c, 0, 70, 59
1, 141270, Note_on_c, 0, 65, 48
1, 141282, Note_on_c, 0, 61, 45
1, 141289, Note_on_c, 0, 49, 51
1, 141291, Control_c, 0, 64, 96
1, 141306, Control_c, 0, 64, 72
1, 141321, Control_c, 0, 64, 0
1, 141410, Control_c, 0, 64, 64
1, 141425, Control_c, 0, 64, 77
1, 141440, Control_c, 0, 64, 94
1, 141455, Control_c, 0, 64, 127
1, 141459, Note_off_c, 0, 65, 56
1, 141493, Note_off_c, 0, 49, 37
1, 141497, Note_off_c, 0, 61, 35
1, 141607, Note_on_c, 0, 65, 51
1, 141620, Note_on_c, 0, 49, 47
1, 141636, Note_on_c, 0, 61, 36
1, 141657, Note_off_c, 0, 65, 53
1, 141677, Note_off_c, 0, 49, 48
1, 141677, Note_off_c, 0, 61, 48
1, 141786, Note_on_c, 0, 65, 48
1, 141811, Note_on_c, 0, 61, 26
1, 141812, Note_on_c, 0, 49, 18
1, 141818, Note_off_c, 0, 65, 61
1, 141877, Note_off_c, 0, 61, 42
1, 141881, Note_off_c, 0, 49, 42
1, 142093, Note_on_c, 0, 64, 41
1, 142121, Note_off_c, 0, 70, 53
1, 142122, Note_on_c, 0, 56, 36
1, 142125, Note_on_c, 0, 49, 36
1, 142159, Control_c, 0, 64, 108
1, 142174, Control_c, 0, 64, 80
1, 142189, Control_c, 0, 64, 37
1, 142203, Control_c, 0, 64, 0
1, 142248, Control_c, 0, 64, 32
1, 142263, Control_c, 0, 64, 64
1, 142278, Control_c, 0, 64, 74
1, 142292, Control_c, 0, 64, 86
1, 142307, Control_c, 0, 64, 110
1, 142322, Control_c, 0, 64, 127
1, 142364, Note_off_c, 0, 64, 56
1, 142381, Note_off_c, 0, 49, 41
1, 142387, Note_off_c, 0, 56, 33
1, 142501, Note_on_c, 0, 73, 50
1, 142512, Note_on_c, 0, 64, 35
1, 142521, Note_on_c, 0, 49, 31
1, 142532, Note_on_c, 0, 56, 34
1, 142559, Note_off_c, 0, 64, 46
1, 142579, Note_off_c, 0, 49, 45
1, 142584, Note_off_c, 0, 56, 45
1, 142668, Note_on_c, 0, 75, 53
1, 142694, Note_on_c, 0, 49, 24
1, 142695, Note_on_c, 0, 56, 26
1, 142698, Note_off_c, 0, 73, 44
1, 142752, Note_off_c, 0, 56, 44
1, 142766, Note_off_c, 0, 49, 41
1, 142868, Note_off_c, 0, 75, 52
1, 142883, Note_on_c, 0, 76, 57
1, 142906, Note_on_c, 0, 49, 33
1, 142907, Control_c, 0, 64, 114
1, 142910, Note_on_c, 0, 64, 29
1, 142920, Note_on_c, 0, 56, 31
1, 142922, Control_c, 0, 64, 84
1, 142936, Control_c, 0, 64, 68
1, 142953, Control_c, 0, 64, 64
1, 142968, Control_c, 0, 64, 69
1, 142982, Control_c, 0, 64, 75
1, 142997, Control_c, 0, 64, 82
1, 143012, Control_c, 0, 64, 95
1, 143026, Control_c, 0, 64, 121
1, 143041, Control_c, 0, 64, 127
1, 143052, Note_off_c, 0, 76, 55
1, 143068, Note_off_c, 0, 56, 42
1, 143072, Note_off_c, 0, 49, 35
1, 143082, Note_off_c, 0, 64, 42
1, 143167, Note_on_c, 0, 49, 36
1, 143169, Note_on_c, 0, 56, 43
1, 143172, Note_on_c, 0, 76, 60
1, 143204, Note_off_c, 0, 56, 51
1, 143214, Note_off_c, 0, 49, 45
1, 143242, Note_off_c, 0, 76, 42
1, 143246, Poly_aftertouch_c, 0, 64, 127
1, 143263, Note_on_c, 0, 49, 45
1, 143267, Note_on_c, 0, 56, 49
1, 143267, Note_on_c, 0, 75, 59
1, 143294, Note_off_c, 0, 56, 60
1, 143330, Note_off_c, 0, 49, 0
1, 143363, Note_on_c, 0, 73, 63
1, 143363, Note_on_c, 0, 56, 56
1, 143374, Poly_aftertouch_c, 0, 49, 127
1, 143388, Note_off_c, 0, 75, 55
1, 143411, Note_off_c, 0, 56, 53
1, 143440, Note_off_c, 0, 73, 46
1, 143448, Poly_aftertouch_c, 0, 64, 0
1, 143449, Poly_aftertouch_c, 0, 49, 0
1, 143562, Note_on_c, 0, 73, 65
1, 143565, Note_on_c, 0, 58, 57
1, 143592, Note_on_c, 0, 49, 42
1, 143592, Note_off_c, 0, 58, 59
1, 143648, Poly_aftertouch_c, 0, 64, 127
1, 143655, Note_on_c, 0, 59, 63
1, 143664, Note_on_c, 0, 71, 63
1, 143667, Note_off_c, 0, 73, 54
1, 143677, Note_off_c, 0, 49, 62
1, 143682, Note_off_c, 0, 59, 65
1, 143700, Control_c, 0, 64, 92
1, 143715, Control_c, 0, 64, 68
1, 143730, Control_c, 0, 64, 0
1, 143758, Note_off_c, 0, 71, 55
1, 143768, Note_on_c, 0, 70, 55
1, 143768, Note_on_c, 0, 61, 61
1, 143775, Control_c, 0, 64, 62
1, 143777, Note_on_c, 0, 49, 49
1, 143790, Control_c, 0, 64, 68
1, 143805, Control_c, 0, 64, 77
1, 143820, Control_c, 0, 64, 92
1, 143835, Control_c, 0, 64, 127
1, 143879, Note_off_c, 0, 70, 62
1, 143887, Note_off_c, 0, 61, 38
1, 143899, Poly_aftertouch_c, 0, 64, 0
1, 143941, Note_off_c, 0, 49, 0
1, 143962, Note_on_c, 0, 49, 36
1, 143969, Note_on_c, 0, 61, 63
1, 143983, Note_on_c, 0, 70, 66
1, 144000, Note_off_c, 0, 61, 66
1, 144037, Note_off_c, 0, 49, 0
1, 144060, Note_on_c, 0, 68, 70
1, 144063, Note_on_c, 0, 59, 66
1, 144063, Note_off_c, 0, 70, 50
1, 144075, Poly_aftertouch_c, 0, 49, 127
1, 144111, Note_off_c, 0, 59, 54
1, 144153, Control_c, 0, 64, 91
1, 144166, Note_on_c, 0, 58, 71
1, 144168, Control_c, 0, 64, 67
1, 144170, Note_off_c, 0, 68, 56
1, 144176, Note_on_c, 0, 67, 62
1, 144182, Control_c, 0, 64, 0
1, 144227, Control_c, 0, 64, 61
1, 144236, Note_off_c, 0, 58, 56
1, 144242, Control_c, 0, 64, 68
1, 144257, Control_c, 0, 64, 77
1, 144260, Poly_aftertouch_c, 0, 49, 0
1, 144265, Note_off_c, 0, 67, 55
1, 144272, Control_c, 0, 64, 90
1, 144287, Control_c, 0, 64, 106
1, 144301, Control_c, 0, 64, 127
1, 144371, Note_on_c, 0, 58, 62
1, 144373, Note_on_c, 0, 67, 68
1, 144374, Note_on_c, 0, 49, 57
1, 144376, Note_on_c, 0, 64, 64
1, 144411, Note_off_c, 0, 64, 61
1, 144415, Note_off_c, 0, 49, 56
1, 144457, Note_on_c, 0, 63, 75
1, 144462, Note_on_c, 0, 51, 67
1, 144462, Note_off_c, 0, 58, 0
1, 144462, Note_off_c, 0, 67, 35
1, 144499, Poly_aftertouch_c, 0, 58, 127
1, 144569, Poly_aftertouch_c, 0, 58, 0
1, 144569, Note_off_c, 0, 63, 61
1, 144574, Note_on_c, 0, 61, 69
1, 144574, Note_on_c, 0, 67, 66
1, 144582, Note_off_c, 0, 51, 31
1, 144584, Note_on_c, 0, 58, 45
1, 144584, Control_c, 0, 64, 94
1, 144586, Note_on_c, 0, 52, 63
1, 144598, Control_c, 0, 64, 71
1, 144613, Control_c, 0, 64, 0
1, 144672, Control_c, 0, 64, 60
1, 144687, Control_c, 0, 64, 69
1, 144702, Control_c, 0, 64, 78
1, 144708, Note_off_c, 0, 52, 60
1, 144710, Note_off_c, 0, 58, 56
1, 144710, Note_off_c, 0, 61, 61
1, 144713, Note_off_c, 0, 67, 53
1, 144717, Control_c, 0, 64, 89
1, 144732, Control_c, 0, 64, 104
1, 144746, Control_c, 0, 64, 127
1, 144787, Note_on_c, 0, 61, 74
1, 144798, Note_on_c, 0, 52, 56
1, 144806, Note_on_c, 0, 58, 51
1, 144814, Note_on_c, 0, 67, 53
1, 144832, Note_off_c, 0, 52, 62
1, 144848, Note_off_c, 0, 58, 48
1, 144848, Note_off_c, 0, 61, 58
1, 144853, Note_off_c, 0, 67, 45
1, 144893, Note_on_c, 0, 63, 69
1, 144902, Note_on_c, 0, 51, 63
1, 144923, Note_on_c, 0, 58, 34
1, 144928, Note_on_c, 0, 67, 20
1, 144951, Note_off_c, 0, 63, 60
1, 144953, Note_off_c, 0, 51, 53
1, 144966, Note_off_c, 0, 58, 51
1, 144991, Control_c, 0, 64, 121
1, 144999, Note_off_c, 0, 67, 0
1, 145005, Control_c, 0, 64, 89
1, 145014, Note_on_c, 0, 67, 38
1, 145020, Control_c, 0, 64, 69
1, 145023, Note_on_c, 0, 64, 60
1, 145035, Control_c, 0, 64, 0
1, 145036, Note_on_c, 0, 49, 46
1, 145056, Note_on_c, 0, 58, 31
1, 145095, Control_c, 0, 64, 40
1, 145109, Control_c, 0, 64, 64
1, 145124, Control_c, 0, 64, 74
1, 145139, Control_c, 0, 64, 86
1, 145153, Note_off_c, 0, 67, 55
1, 145154, Control_c, 0, 64, 103
1, 145163, Note_off_c, 0, 49, 50
1, 145169, Control_c, 0, 64, 127
1, 145177, Note_off_c, 0, 58, 37
1, 145200, Note_off_c, 0, 64, 60
1, 145271, Note_on_c, 0, 63, 65
1, 145276, Note_on_c, 0, 49, 49
1, 145289, Note_on_c, 0, 58, 38
1, 145324, Note_off_c, 0, 49, 46
1, 145325, Note_off_c, 0, 58, 52
1, 145327, Poly_aftertouch_c, 0, 67, 127
1, 145335, Note_off_c, 0, 63, 56
1, 145357, Poly_aftertouch_c, 0, 67, 0
1, 145396, Note_on_c, 0, 64, 62
1, 145400, Note_on_c, 0, 49, 40
1, 145404, Note_on_c, 0, 58, 38
1, 145439, Poly_aftertouch_c, 0, 67, 127
1, 145444, Note_off_c, 0, 49, 50
1, 145450, Note_off_c, 0, 58, 53
1, 145487, Poly_aftertouch_c, 0, 67, 0
1, 145596, Note_off_c, 0, 64, 23
1, 145624, Note_on_c, 0, 68, 59
1, 145640, Note_on_c, 0, 47, 46
1, 145640, Note_on_c, 0, 59, 46
1, 145647, Note_on_c, 0, 63, 47
1, 145666, Control_c, 0, 64, 97
1, 145681, Control_c, 0, 64, 72
1, 145695, Control_c, 0, 64, 0
1, 145784, Control_c, 0, 64, 62
1, 145799, Control_c, 0, 64, 76
1, 145814, Control_c, 0, 64, 91
1, 145828, Control_c, 0, 64, 127
1, 145834, Note_off_c, 0, 63, 54
1, 145846, Note_off_c, 0, 59, 51
1, 145873, Note_off_c, 0, 47, 42
1, 145952, Note_on_c, 0, 63, 44
1, 145953, Note_on_c, 0, 47, 36
1, 145959, Note_on_c, 0, 59, 37
1, 145986, Note_off_c, 0, 63, 54
1, 145994, Note_off_c, 0, 59, 50
1, 146007, Note_off_c, 0, 47, 44
1, 146102, Note_on_c, 0, 63, 49
1, 146129, Note_on_c, 0, 59, 32
1, 146156, Poly_aftertouch_c, 0, 47, 127
1, 146165, Note_off_c, 0, 63, 60
1, 146201, Note_off_c, 0, 59, 43
1, 146243, Poly_aftertouch_c, 0, 47, 0
1, 146376, Note_on_c, 0, 62, 39
1, 146377, Poly_aftertouch_c, 0, 47, 127
1, 146380, Note_off_c, 0, 68, 56
1, 146388, Note_on_c, 0, 54, 37
1, 146444, Control_c, 0, 64, 103
1, 146459, Control_c, 0, 64, 74
1, 146475, Control_c, 0, 64, 0
1, 146534, Control_c, 0, 64, 33
1, 146549, Control_c, 0, 64, 64
1, 146564, Control_c, 0, 64, 75
1, 146578, Control_c, 0, 64, 90
1, 146593, Control_c, 0, 64, 127
1, 146642, Note_off_c, 0, 54, 41
1, 146645, Poly_aftertouch_c, 0, 47, 0
1, 146697, Note_off_c, 0, 62, 0
1, 146698, Note_on_c, 0, 71, 57
1, 146704, Note_on_c, 0, 47, 35
1, 146706, Note_on_c, 0, 54, 42
1, 146720, Note_on_c, 0, 62, 6
1, 146749, Note_off_c, 0, 54, 57
1, 146764, Note_off_c, 0, 47, 51
1, 146826, Note_off_c, 0, 71, 52
1, 146831, Note_on_c, 0, 73, 66
1, 146866, Note_on_c, 0, 47, 6
1, 146867, Note_on_c, 0, 54, 34
1, 146907, Note_off_c, 0, 54, 50
1, 146925, Note_off_c, 0, 62, 37
1, 146929, Note_off_c, 0, 47, 44
1, 147026, Note_on_c, 0, 74, 71
1, 147033, Note_off_c, 0, 73, 57
1, 147053, Control_c, 0, 64, 114
1, 147058, Note_on_c, 0, 62, 32
1, 147065, Note_on_c, 0, 47, 33
1, 147067, Note_on_c, 0, 54, 23
1, 147068, Control_c, 0, 64, 82
1, 147083, Control_c, 0, 64, 65
1, 147098, Control_c, 0, 64, 48
1, 147119, Control_c, 0, 64, 59
1, 147134, Control_c, 0, 64, 67
1, 147149, Control_c, 0, 64, 72
1, 147164, Control_c, 0, 64, 82
1, 147179, Control_c, 0, 64, 101
1, 147193, Control_c, 0, 64, 127
1, 147211, Note_off_c, 0, 74, 62
1, 147214, Note_off_c, 0, 54, 45
1, 147237, Note_off_c, 0, 62, 41
1, 147260, Note_off_c, 0, 47, 0
1, 147280, Note_on_c, 0, 47, 33
1, 147291, Note_on_c, 0, 74, 72
1, 147302, Note_on_c, 0, 54, 51
1, 147328, Note_off_c, 0, 54, 58
1, 147330, Note_on_c, 0, 62, 15
1, 147384, Note_on_c, 0, 73, 74
1, 147404, Note_on_c, 0, 54, 60
1, 147414, Note_off_c, 0, 74, 50
1, 147434, Note_off_c, 0, 54, 61
1, 147482, Note_on_c, 0, 71, 80
1, 147489, Note_on_c, 0, 54, 61
1, 147513, Note_off_c, 0, 73, 61
1, 147525, Note_off_c, 0, 54, 56
1, 147549, Note_off_c, 0, 62, 38
1, 147558, Note_off_c, 0, 71, 62
1, 147581, Note_off_c, 0, 47, 44
1, 147661, Note_on_c, 0, 71, 76
1, 147664, Note_on_c, 0, 56, 75
1, 147678, Note_on_c, 0, 47, 54
1, 147690, Note_on_c, 0, 62, 49
1, 147725, Note_off_c, 0, 56, 57
1, 147739, Note_on_c, 0, 69, 76
1, 147740, Note_on_c, 0, 57, 72
1, 147762, Note_off_c, 0, 47, 57
1, 147765, Note_off_c, 0, 71, 58
1, 147782, Note_off_c, 0, 57, 59
1, 147831, Control_c, 0, 64, 95
1, 147846, Control_c, 0, 64, 71
1, 147849, Note_on_c, 0, 68, 74
1, 147851, Note_on_c, 0, 59, 70
1, 147852, Note_on_c, 0, 47, 56
1, 147869, Control_c, 0, 64, 0
1, 147890, Note_off_c, 0, 69, 52
1, 147898, Control_c, 0, 64, 43
1, 147913, Control_c, 0, 64, 64
1, 147928, Control_c, 0, 64, 70
1, 147940, Note_off_c, 0, 59, 59
1, 147942, Control_c, 0, 64, 80
1, 147957, Control_c, 0, 64, 96
1, 147968, Note_off_c, 0, 62, 58
1, 147969, Note_off_c, 0, 68, 62
1, 147971, Control_c, 0, 64, 127
1, 147997, Note_off_c, 0, 47, 38
1, 148041, Note_on_c, 0, 59, 73
1, 148050, Note_on_c, 0, 47, 45
1, 148062, Note_on_c, 0, 68, 74
1, 148079, Note_off_c, 0, 59, 53
1, 148093, Note_off_c, 0, 47, 57
1, 148140, Poly_aftertouch_c, 0, 62, 127
1, 148144, Note_on_c, 0, 66, 77
1, 148168, Note_on_c, 0, 47, 27
1, 148174, Poly_aftertouch_c, 0, 62, 0
1, 148175, Note_on_c, 0, 57, 11
1, 148192, Note_off_c, 0, 68, 47
1, 148220, Note_off_c, 0, 57, 45
1, 148222, Note_off_c, 0, 47, 0
1, 148223, Control_c, 0, 64, 106
1, 148238, Control_c, 0, 64, 77
1, 148240, Note_on_c, 0, 47, 42
1, 148243, Note_on_c, 0, 56, 73
1, 148253, Control_c, 0, 64, 43
1, 148257, Note_on_c, 0, 64, 69
1, 148268, Control_c, 0, 64, 0
1, 148275, Note_on_c, 0, 62, 53
1, 148296, Note_off_c, 0, 66, 49
1, 148297, Control_c, 0, 64, 51
1, 148312, Control_c, 0, 64, 66
1, 148327, Control_c, 0, 64, 75
1, 148341, Control_c, 0, 64, 88
1, 148355, Note_off_c, 0, 56, 60
1, 148356, Control_c, 0, 64, 127
1, 148371, Note_off_c, 0, 64, 62
1, 148412, Note_off_c, 0, 62, 61
1, 148427, Note_off_c, 0, 47, 39
1, 148482, Note_on_c, 0, 64, 76
1, 148483, Note_on_c, 0, 62, 72
1, 148484, Note_on_c, 0, 47, 53
1, 148486, Note_on_c, 0, 56, 63
1, 148516, Note_off_c, 0, 56, 64
1, 148523, Note_off_c, 0, 47, 59
1, 148530, Note_off_c, 0, 64, 61
1, 148543, Note_off_c, 0, 62, 58
1, 148591, Note_on_c, 0, 56, 57
1, 148594, Note_on_c, 0, 49, 66
1, 148599, Note_on_c, 0, 61, 76
1, 148627, Note_on_c, 0, 64, 48
1, 148648, Note_off_c, 0, 56, 55
1, 148654, Note_off_c, 0, 64, 56
1, 148673, Note_off_c, 0, 49, 54
1, 148719, Note_off_c, 0, 61, 55
1, 148749, Note_on_c, 0, 50, 63
1, 148751, Note_on_c, 0, 56, 57
1, 148757, Note_on_c, 0, 59, 62
1, 148761, Note_on_c, 0, 64, 54
1, 148764, Control_c, 0, 64, 87
1, 148779, Control_c, 0, 64, 64
1, 148794, Control_c, 0, 64, 0
1, 148883, Control_c, 0, 64, 36
1, 148898, Control_c, 0, 64, 66
1, 148909, Note_off_c, 0, 56, 59
1, 148913, Control_c, 0, 64, 75
1, 148921, Note_off_c, 0, 50, 61
1, 148928, Note_off_c, 0, 59, 58
1, 148928, Control_c, 0, 64, 89
1, 148936, Note_off_c, 0, 64, 55
1, 148943, Control_c, 0, 64, 104
1, 148958, Control_c, 0, 64, 120
1, 148972, Control_c, 0, 64, 127
1, 149013, Note_on_c, 0, 59, 72
1, 149014, Note_on_c, 0, 56, 63
1, 149018, Note_on_c, 0, 50, 59
1, 149035, Note_on_c, 0, 64, 55
1, 149050, Note_off_c, 0, 56, 55
1, 149056, Note_off_c, 0, 50, 63
1, 149069, Note_off_c, 0, 64, 59
1, 149080, Note_off_c, 0, 59, 57
1, 149125, Note_on_c, 0, 49, 69
1, 149128, Note_on_c, 0, 61, 76
1, 149155, Note_on_c, 0, 64, 39
1, 149186, Note_off_c, 0, 64, 56
1, 149193, Poly_aftertouch_c, 0, 56, 127
1, 149220, Note_off_c, 0, 61, 57
1, 149223, Note_off_c, 0, 49, 52
1, 149228, Poly_aftertouch_c, 0, 56, 0
1, 149253, Control_c, 0, 64, 103
1, 149268, Control_c, 0, 64, 77
1, 149280, Note_on_c, 0, 62, 63
1, 149281, Note_on_c, 0, 64, 51
1, 149283, Control_c, 0, 64, 39
1, 149286, Note_on_c, 0, 47, 54
1, 149294, Note_on_c, 0, 56, 47
1, 149298, Control_c, 0, 64, 0
1, 149395, Control_c, 0, 64, 63
1, 149410, Control_c, 0, 64, 77
1, 149425, Control_c, 0, 64, 92
1, 149428, Note_off_c, 0, 56, 53
1, 149440, Control_c, 0, 64, 127
1, 149498, Note_off_c, 0, 62, 37
1, 149505, Note_off_c, 0, 47, 56
1, 149575, Note_off_c, 0, 64, 58
1, 149630, Note_on_c, 0, 56, 84
1, 149651, Note_on_c, 0, 47, 51
1, 149736, Control_c, 0, 67, 126
1, 149741, Note_off_c, 0, 56, 56
1, 149751, Control_c, 0, 67, 125
1, 149762, Note_off_c, 0, 47, 59
1, 149766, Control_c, 0, 67, 125
1, 149769, Note_on_c, 0, 57, 81
1, 149781, Control_c, 0, 67, 124
1, 149795, Control_c, 0, 67, 123
1, 149805, Note_on_c, 0, 64, 37
1, 149810, Control_c, 0, 67, 123
1, 149817, Note_on_c, 0, 45, 30
1, 149825, Note_on_c, 0, 62, 8
1, 149840, Control_c, 0, 67, 122
1, 149855, Control_c, 0, 67, 122
1, 149870, Control_c, 0, 67, 121
1, 149871, Note_off_c, 0, 64, 41
1, 149877, Note_off_c, 0, 62, 49
1, 149885, Control_c, 0, 67, 120
1, 149900, Control_c, 0, 67, 120
1, 149914, Control_c, 0, 67, 119
1, 149929, Control_c, 0, 67, 119
1, 149946, Note_off_c, 0, 45, 46
1, 149988, Control_c, 0, 67, 118
1, 150001, Note_on_c, 0, 59, 69
1, 150015, Note_off_c, 0, 57, 52
1, 150028, Note_on_c, 0, 64, 41
1, 150037, Note_on_c, 0, 62, 39
1, 150062, Control_c, 0, 64, 124
1, 150064, Note_on_c, 0, 44, 51
1, 150077, Control_c, 0, 64, 86
1, 150077, Control_c, 0, 67, 119
1, 150092, Control_c, 0, 64, 64
1, 150114, Control_c, 0, 64, 0
1, 150204, Control_c, 0, 67, 118
1, 150234, Control_c, 0, 64, 62
1, 150249, Control_c, 0, 64, 71
1, 150249, Control_c, 0, 67, 118
1, 150263, Control_c, 0, 64, 83
1, 150278, Control_c, 0, 64, 98
1, 150293, Control_c, 0, 64, 127
1, 150293, Control_c, 0, 67, 117
1, 150308, Control_c, 0, 67, 117
1, 150337, Control_c, 0, 67, 116
1, 150349, Note_off_c, 0, 59, 58
1, 150352, Control_c, 0, 67, 113
1, 150367, Control_c, 0, 67, 111
1, 150382, Control_c, 0, 67, 109
1, 150397, Control_c, 0, 67, 107
1, 150411, Control_c, 0, 67, 106
1, 150426, Control_c, 0, 67, 105
1, 150441, Control_c, 0, 67, 104
1, 150443, Note_on_c, 0, 59, 58
1, 150456, Control_c, 0, 67, 103
1, 150471, Control_c, 0, 67, 102
1, 150485, Control_c, 0, 67, 102
1, 150500, Control_c, 0, 67, 101
1, 150510, Note_off_c, 0, 59, 57
1, 150626, Note_on_c, 0, 59, 51
1, 150663, Note_off_c, 0, 59, 61
1, 150767, Control_c, 0, 67, 102
1, 150826, Control_c, 0, 67, 102
1, 150905, Note_on_c, 0, 52, 55
1, 150907, Control_c, 0, 64, 98
1, 150907, Control_c, 0, 67, 103
1, 150922, Control_c, 0, 64, 69
1, 150938, Control_c, 0, 64, 0
1, 150981, Control_c, 0, 64, 63
1, 150982, Note_off_c, 0, 62, 55
1, 150996, Control_c, 0, 64, 72
1, 151011, Control_c, 0, 64, 86
1, 151021, Note_off_c, 0, 64, 59
1, 151026, Control_c, 0, 64, 127
1, 151026, Control_c, 0, 67, 102
1, 151055, Control_c, 0, 67, 102
1, 151138, Note_off_c, 0, 52, 37
1, 151144, Control_c, 0, 67, 101
1, 151148, Note_off_c, 0, 44, 60
1, 151188, Control_c, 0, 67, 101
1, 151232, Control_c, 0, 67, 100
1, 151288, Note_on_c, 0, 61, 66
1, 151295, Note_on_c, 0, 69, 65
1, 151298, Note_on_c, 0, 45, 59
1, 151305, Note_on_c, 0, 52, 52
1, 151325, Note_off_c, 0, 61, 59
1, 151327, Note_off_c, 0, 45, 64
1, 151328, Note_off_c, 0, 69, 63
1, 151332, Note_off_c, 0, 52, 61
1, 151366, Control_c, 0, 64, 92
1, 151381, Control_c, 0, 64, 66
1, 151386, Note_on_c, 0, 71, 79
1, 151396, Control_c, 0, 64, 0
1, 151396, Control_c, 0, 67, 101
1, 151399, Note_on_c, 0, 45, 60
1, 151405, Note_on_c, 0, 61, 32
1, 151407, Note_on_c, 0, 52, 55
1, 151411, Note_off_c, 0, 71, 65
1, 151423, Note_off_c, 0, 45, 62
1, 151426, Control_c, 0, 67, 100
1, 151432, Note_off_c, 0, 52, 58
1, 151440, Note_off_c, 0, 61, 48
1, 151440, Control_c, 0, 67, 100
1, 151455, Control_c, 0, 67, 98
1, 151470, Control_c, 0, 67, 95
1, 151481, Note_on_c, 0, 73, 94
1, 151484, Note_on_c, 0, 45, 80
1, 151484, Control_c, 0, 67, 92
1, 151490, Note_on_c, 0, 52, 76
1, 151494, Note_on_c, 0, 61, 80
1, 151499, Control_c, 0, 64, 42
1, 151499, Control_c, 0, 67, 88
1, 151513, Note_off_c, 0, 45, 68
1, 151514, Control_c, 0, 64, 81
1, 151514, Control_c, 0, 67, 82
1, 151515, Note_off_c, 0, 52, 65
1, 151515, Note_off_c, 0, 61, 69
1, 151524, Note_off_c, 0, 73, 64
1, 151529, Control_c, 0, 64, 127
1, 151529, Control_c, 0, 67, 76
1, 151544, Control_c, 0, 67, 72
1, 151558, Control_c, 0, 67, 69
1, 151573, Control_c, 0, 67, 66
1, 151588, Control_c, 0, 67, 64
1, 151611, Control_c, 0, 67, 62
1, 151640, Control_c, 0, 67, 62
1, 151670, Control_c, 0, 67, 62
1, 151684, Control_c, 0, 67, 64
1, 151696, Note_on_c, 0, 73, 95
1, 151697, Note_on_c, 0, 45, 78
1, 151699, Control_c, 0, 67, 65
1, 151702, Note_on_c, 0, 61, 75
1, 151711, Note_on_c, 0, 52, 57
1, 151714, Control_c, 0, 64, 101
1, 151714, Control_c, 0, 67, 66
1, 151726, Note_off_c, 0, 61, 65
1, 151729, Control_c, 0, 64, 72
1, 151729, Control_c, 0, 67, 66
1, 151731, Note_off_c, 0, 52, 64
1, 151741, Note_off_c, 0, 73, 58
1, 151745, Note_off_c, 0, 45, 0
1, 151745, Control_c, 0, 64, 0
1, 151745, Control_c, 0, 67, 67
1, 151773, Note_on_c, 0, 74, 93
1, 151774, Note_on_c, 0, 47, 81
1, 151778, Note_on_c, 0, 62, 83
1, 151780, Poly_aftertouch_c, 0, 45, 0
1, 151793, Note_on_c, 0, 52, 60
1, 151799, Note_off_c, 0, 62, 68
1, 151806, Note_off_c, 0, 47, 65
1, 151810, Note_off_c, 0, 74, 67
1, 151818, Note_off_c, 0, 52, 59
1, 151819, Control_c, 0, 67, 66
1, 151834, Control_c, 0, 67, 65
1, 151849, Control_c, 0, 67, 65
1, 151863, Control_c, 0, 67, 64
1, 151872, Note_on_c, 0, 49, 97
1, 151878, Control_c, 0, 64, 31
1, 151878, Control_c, 0, 67, 63
1, 151879, Note_on_c, 0, 76, 98
1, 151881, Note_on_c, 0, 52, 72
1, 151881, Note_on_c, 0, 64, 92
1, 151893, Control_c, 0, 64, 80
1, 151893, Control_c, 0, 67, 62
1, 151906, Note_off_c, 0, 52, 65
1, 151906, Note_off_c, 0, 64, 68
1, 151907, Control_c, 0, 64, 127
1, 151907, Control_c, 0, 67, 61
1, 151915, Note_off_c, 0, 49, 64
1, 151916, Note_off_c, 0, 76, 67
1, 151922, Control_c, 0, 67, 59
1, 151937, Control_c, 0, 67, 56
1, 151952, Control_c, 0, 67, 53
1, 151967, Control_c, 0, 67, 50
1, 151981, Control_c, 0, 67, 46
1, 151996, Control_c, 0, 67, 44
1, 152011, Control_c, 0, 67, 42
1, 152070, Control_c, 0, 67, 43
1, 152076, Note_on_c, 0, 50, 82
1, 152083, Note_on_c, 0, 78, 90
1, 152085, Note_on_c, 0, 66, 88
1, 152085, Control_c, 0, 67, 44
1, 152093, Note_on_c, 0, 52, 51
1, 152099, Note_off_c, 0, 78, 73
1, 152100, Control_c, 0, 64, 79
1, 152101, Note_off_c, 0, 50, 71
1, 152103, Note_off_c, 0, 66, 72
1, 152115, Control_c, 0, 64, 0
1, 152115, Control_c, 0, 67, 44
1, 152118, Note_off_c, 0, 52, 57
1, 152129, Control_c, 0, 67, 45
1, 152154, Note_on_c, 0, 50, 85
1, 152156, Note_on_c, 0, 78, 88
1, 152159, Control_c, 0, 67, 45
1, 152163, Note_on_c, 0, 66, 79
1, 152184, Note_on_c, 0, 52, 52
1, 152184, Note_off_c, 0, 66, 69
1, 152194, Note_off_c, 0, 78, 59
1, 152198, Note_off_c, 0, 50, 62
1, 152212, Note_off_c, 0, 52, 57
1, 152268, Note_on_c, 0, 49, 85
1, 152271, Note_on_c, 0, 76, 94
1, 152276, Note_on_c, 0, 64, 83
1, 152278, Control_c, 0, 64, 72
1, 152279, Note_on_c, 0, 52, 64
1, 152293, Control_c, 0, 64, 99
1, 152293, Control_c, 0, 67, 45
1, 152296, Note_off_c, 0, 64, 71
1, 152298, Note_off_c, 0, 49, 64
1, 152305, Note_off_c, 0, 52, 62
1, 152307, Control_c, 0, 64, 127
1, 152308, Note_off_c, 0, 76, 57
1, 152322, Control_c, 0, 67, 44
1, 152337, Control_c, 0, 67, 44
1, 152352, Control_c, 0, 67, 43
1, 152374, Control_c, 0, 67, 42
1, 152478, Control_c, 0, 67, 42
1, 152480, Note_on_c, 0, 44, 85
1, 152487, Note_on_c, 0, 60, 80
1, 152489, Note_on_c, 0, 52, 67
1, 152493, Note_on_c, 0, 72, 80
1, 152493, Control_c, 0, 64, 97
1, 152493, Control_c, 0, 67, 43
1, 152508, Control_c, 0, 64, 67
1, 152508, Control_c, 0, 67, 44
1, 152508, Note_off_c, 0, 44, 66
1, 152508, Note_off_c, 0, 60, 71
1, 152511, Note_off_c, 0, 72, 71
1, 152517, Note_off_c, 0, 52, 64
1, 152522, Control_c, 0, 64, 0
1, 152538, Control_c, 0, 67, 44
1, 152553, Control_c, 0, 67, 45
1, 152572, Note_on_c, 0, 44, 70
1, 152576, Note_on_c, 0, 60, 80
1, 152576, Note_on_c, 0, 72, 81
1, 152580, Note_on_c, 0, 52, 69
1, 152594, Note_off_c, 0, 72, 71
1, 152597, Note_off_c, 0, 60, 71
1, 152606, Note_off_c, 0, 44, 66
1, 152608, Note_off_c, 0, 52, 65
1, 152672, Note_on_c, 0, 45, 82
1, 152673, Note_on_c, 0, 52, 68
1, 152678, Note_on_c, 0, 73, 93
1, 152682, Note_on_c, 0, 61, 82
1, 152686, Control_c, 0, 64, 68
1, 152686, Control_c, 0, 67, 44
1, 152696, Note_off_c, 0, 45, 68
1, 152700, Note_off_c, 0, 52, 64
1, 152701, Control_c, 0, 64, 101
1, 152708, Note_off_c, 0, 61, 65
1, 152716, Control_c, 0, 64, 127
1, 152730, Control_c, 0, 67, 44
1, 152734, Note_off_c, 0, 73, 61
1, 152745, Control_c, 0, 67, 43
1, 152760, Control_c, 0, 67, 42
1, 152804, Control_c, 0, 67, 42
1, 152878, Control_c, 0, 67, 42
1, 152881, Note_on_c, 0, 69, 82
1, 152884, Note_on_c, 0, 45, 76
1, 152893, Control_c, 0, 64, 107
1, 152894, Note_on_c, 0, 52, 65
1, 152896, Note_on_c, 0, 61, 64
1, 152906, Note_off_c, 0, 45, 68
1, 152908, Control_c, 0, 64, 71
1, 152915, Note_off_c, 0, 69, 63
1, 152917, Note_off_c, 0, 52, 61
1, 152923, Control_c, 0, 64, 0
1, 152923, Control_c, 0, 67, 43
1, 152937, Control_c, 0, 67, 43
1, 152957, Note_off_c, 0, 61, 0
1, 152958, Note_on_c, 0, 71, 80
1, 152959, Note_on_c, 0, 45, 78
1, 152974, Note_on_c, 0, 52, 71
1, 152976, Note_on_c, 0, 61, 24
1, 152987, Note_off_c, 0, 71, 63
1, 152991, Note_off_c, 0, 45, 68
1, 153004, Note_off_c, 0, 52, 64
1, 153018, Note_off_c, 0, 61, 43
1, 153055, Note_on_c, 0, 45, 87
1, 153057, Note_on_c, 0, 73, 102
1, 153058, Note_on_c, 0, 61, 84
1, 153059, Note_on_c, 0, 52, 75
1, 153080, Note_off_c, 0, 45, 70
1, 153080, Note_off_c, 0, 61, 69
1, 153083, Note_off_c, 0, 52, 65
1, 153083, Note_off_c, 0, 73, 62
1, 153151, Note_on_c, 0, 45, 82
1, 153153, Note_on_c, 0, 52, 74
1, 153161, Note_on_c, 0, 73, 92
1, 153164, Note_on_c, 0, 61, 79
1, 153179, Note_off_c, 0, 45, 70
1, 153179, Note_off_c, 0, 73, 73
1, 153182, Note_off_c, 0, 52, 65
1, 153185, Note_off_c, 0, 61, 68
1, 153238, Note_on_c, 0, 52, 83
1, 153241, Note_on_c, 0, 73, 95
1, 153243, Note_on_c, 0, 45, 74
1, 153247, Note_on_c, 0, 61, 70
1, 153262, Note_on_c, 0, 47, 61
1, 153266, Note_off_c, 0, 45, 67
1, 153266, Note_off_c, 0, 61, 64
1, 153268, Note_off_c, 0, 52, 66
1, 153280, Note_off_c, 0, 73, 64
1, 153286, Note_off_c, 0, 47, 60
1, 153323, Note_on_c, 0, 47, 83
1, 153342, Note_on_c, 0, 74, 99
1, 153353, Note_on_c, 0, 52, 41
1, 153360, Note_on_c, 0, 62, 23
1, 153363, Note_off_c, 0, 74, 68
1, 153369, Note_off_c, 0, 47, 63
1, 153371, Note_on_c, 0, 64, 37
1, 153372, Note_off_c, 0, 64, 127
1, 153381, Note_off_c, 0, 62, 49
1, 153390, Note_off_c, 0, 52, 31
1, 153391, Control_c, 0, 67, 43
1, 153406, Control_c, 0, 67, 42
1, 153423, Note_on_c, 0, 49, 96
1, 153429, Note_on_c, 0, 52, 69
1, 153432, Note_on_c, 0, 76, 100
1, 153445, Note_on_c, 0, 64, 66
1, 153450, Control_c, 0, 67, 42
1, 153453, Note_off_c, 0, 49, 63
1, 153455, Note_off_c, 0, 76, 67
1, 153455, Note_off_c, 0, 52, 65
1, 153465, Control_c, 0, 64, 84
1, 153465, Control_c, 0, 67, 41
1, 153466, Note_off_c, 0, 64, 63
1, 153480, Control_c, 0, 64, 127
1, 153510, Control_c, 0, 67, 41
1, 153539, Control_c, 0, 67, 40
1, 153614, Control_c, 0, 67, 41
1, 153621, Note_on_c, 0, 50, 91
1, 153628, Control_c, 0, 67, 41
1, 153633, Note_on_c, 0, 78, 92
1, 153638, Note_on_c, 0, 66, 86
1, 153643, Note_on_c, 0, 52, 59
1, 153644, Note_off_c, 0, 50, 72
1, 153648, Note_off_c, 0, 78, 73
1, 153657, Note_off_c, 0, 66, 71
1, 153658, Control_c, 0, 64, 116
1, 153662, Note_off_c, 0, 52, 66
1, 153673, Control_c, 0, 64, 76
1, 153687, Control_c, 0, 64, 0
1, 153706, Note_on_c, 0, 50, 93
1, 153706, Note_on_c, 0, 78, 90
1, 153711, Note_on_c, 0, 52, 80
1, 153715, Note_on_c, 0, 66, 80
1, 153732, Control_c, 0, 67, 42
1, 153736, Note_off_c, 0, 78, 64
1, 153737, Note_off_c, 0, 66, 68
1, 153739, Note_off_c, 0, 52, 65
1, 153748, Note_off_c, 0, 50, 63
1, 153802, Note_on_c, 0, 52, 82
1, 153803, Note_on_c, 0, 49, 96
1, 153806, Control_c, 0, 67, 41
1, 153807, Note_on_c, 0, 76, 100
1, 153812, Note_on_c, 0, 64, 87
1, 153821, Control_c, 0, 64, 64
1, 153821, Control_c, 0, 67, 39
1, 153830, Note_off_c, 0, 52, 66
1, 153830, Note_off_c, 0, 64, 73
1, 153835, Control_c, 0, 64, 92
1, 153835, Control_c, 0, 67, 36
1, 153841, Note_off_c, 0, 49, 61
1, 153841, Note_off_c, 0, 76, 62
1, 153858, Control_c, 0, 64, 127
1, 153858, Control_c, 0, 67, 32
1, 153873, Control_c, 0, 67, 23
1, 153887, Control_c, 0, 67, 9
1, 153902, Control_c, 0, 67, 0
1, 153995, Note_on_c, 0, 44, 86
1, 154002, Note_on_c, 0, 52, 74
1, 154005, Note_on_c, 0, 60, 90
1, 154005, Control_c, 0, 64, 106
1, 154007, Note_on_c, 0, 72, 91
1, 154020, Control_c, 0, 64, 70
1, 154022, Note_off_c, 0, 44, 66
1, 154026, Note_off_c, 0, 60, 69
1, 154028, Note_off_c, 0, 72, 67
1, 154030, Note_off_c, 0, 52, 64
1, 154034, Control_c, 0, 64, 0
1, 154073, Note_on_c, 0, 44, 78
1, 154079, Note_on_c, 0, 72, 88
1, 154081, Note_on_c, 0, 52, 74
1, 154084, Note_on_c, 0, 60, 86
1, 154105, Note_off_c, 0, 60, 69
1, 154112, Note_off_c, 0, 72, 68
1, 154112, Note_off_c, 0, 52, 63
1, 154116, Note_off_c, 0, 44, 62
1, 154183, Control_c, 0, 64, 68
1, 154186, Note_on_c, 0, 52, 72
1, 154186, Note_on_c, 0, 45, 86
1, 154187, Note_on_c, 0, 73, 96
1, 154192, Note_on_c, 0, 61, 89
1, 154198, Control_c, 0, 64, 103
1, 154213, Control_c, 0, 64, 127
1, 154214, Note_off_c, 0, 61, 68
1, 154221, Note_off_c, 0, 73, 67
1, 154224, Note_off_c, 0, 52, 60
1, 154228, Note_off_c, 0, 45, 61
1, 154377, Control_c, 0, 64, 89
1, 154379, Note_on_c, 0, 43, 77
1, 154380, Note_on_c, 0, 58, 96
1, 154383, Note_on_c, 0, 70, 84
1, 154387, Note_on_c, 0, 52, 66
1, 154391, Control_c, 0, 64, 63
1, 154399, Note_off_c, 0, 58, 69
1, 154402, Note_off_c, 0, 70, 66
1, 154404, Note_on_c, 0, 68, 48
1, 154406, Control_c, 0, 64, 0
1, 154410, Note_off_c, 0, 43, 66
1, 154412, Note_off_c, 0, 52, 60
1, 154428, Note_off_c, 0, 68, 43
1, 154458, Note_on_c, 0, 70, 81
1, 154460, Note_on_c, 0, 43, 84
1, 154469, Note_on_c, 0, 58, 76
1, 154484, Note_on_c, 0, 52, 59
1, 154491, Note_off_c, 0, 58, 71
1, 154506, Note_off_c, 0, 52, 61
1, 154508, Note_off_c, 0, 43, 64
1, 154512, Note_off_c, 0, 70, 65
1, 154568, Note_on_c, 0, 71, 95
1, 154568, Note_on_c, 0, 44, 87
1, 154568, Note_on_c, 0, 52, 76
1, 154572, Note_on_c, 0, 59, 88
1, 154583, Control_c, 0, 64, 58
1, 154603, Note_off_c, 0, 59, 65
1, 154606, Control_c, 0, 64, 80
1, 154612, Note_off_c, 0, 52, 60
1, 154619, Note_off_c, 0, 71, 62
1, 154621, Note_off_c, 0, 44, 61
1, 154621, Control_c, 0, 64, 108
1, 154636, Control_c, 0, 64, 127
1, 154767, Note_on_c, 0, 41, 85
1, 154772, Note_on_c, 0, 68, 96
1, 154776, Note_on_c, 0, 52, 71
1, 154776, Note_on_c, 0, 56, 91
1, 154783, Control_c, 0, 64, 100
1, 154798, Note_off_c, 0, 56, 72
1, 154798, Control_c, 0, 64, 71
1, 154800, Note_off_c, 0, 41, 64
1, 154804, Note_off_c, 0, 52, 65
1, 154813, Control_c, 0, 64, 0
1, 154815, Note_off_c, 0, 68, 59
1, 154849, Note_on_c, 0, 41, 77
1, 154854, Note_on_c, 0, 68, 80
1, 154855, Note_on_c, 0, 52, 74
1, 154861, Note_on_c, 0, 56, 77
1, 154884, Note_off_c, 0, 56, 69
1, 154885, Note_off_c, 0, 52, 64
1, 154896, Note_off_c, 0, 41, 62
1, 154909, Note_off_c, 0, 68, 61
1, 154952, Note_on_c, 0, 52, 81
1, 154955, Note_on_c, 0, 69, 93
1, 154959, Note_on_c, 0, 42, 80
1, 154962, Note_on_c, 0, 57, 78
1, 154971, Note_on_c, 0, 68, 40
1, 154977, Control_c, 0, 64, 63
1, 154985, Note_off_c, 0, 57, 68
1, 154992, Control_c, 0, 64, 80
1, 155000, Note_off_c, 0, 68, 53
1, 155006, Control_c, 0, 64, 109
1, 155008, Note_off_c, 0, 69, 64
1, 155013, Note_off_c, 0, 52, 51
1, 155021, Note_off_c, 0, 42, 54
1, 155021, Control_c, 0, 64, 127
1, 155151, Note_on_c, 0, 63, 94
1, 155154, Note_on_c, 0, 42, 74
1, 155158, Note_on_c, 0, 57, 83
1, 155160, Note_on_c, 0, 47, 68
1, 155188, Note_off_c, 0, 57, 58
1, 155188, Note_off_c, 0, 47, 66
1, 155199, Note_off_c, 0, 42, 60
1, 155227, Note_off_c, 0, 63, 51
1, 155243, Note_on_c, 0, 42, 63
1, 155249, Note_on_c, 0, 47, 74
1, 155300, Note_off_c, 0, 47, 50
1, 155329, Note_off_c, 0, 42, 59
1, 155430, Note_on_c, 0, 64, 100
1, 155441, Note_on_c, 0, 47, 75
1, 155446, Note_on_c, 0, 40, 73
1, 155450, Note_on_c, 0, 56, 80
1, 155488, Control_c, 0, 64, 74
1, 155503, Control_c, 0, 64, 0
1, 155562, Control_c, 0, 67, 8
1, 155577, Control_c, 0, 67, 10
1, 155592, Control_c, 0, 67, 11
1, 155606, Control_c, 0, 64, 39
1, 155606, Control_c, 0, 67, 13
1, 155617, Note_off_c, 0, 40, 62
1, 155621, Control_c, 0, 64, 67
1, 155621, Control_c, 0, 67, 16
1, 155636, Control_c, 0, 64, 79
1, 155636, Control_c, 0, 67, 18
1, 155650, Control_c, 0, 64, 98
1, 155650, Control_c, 0, 67, 22
1, 155665, Control_c, 0, 64, 127
1, 155665, Control_c, 0, 67, 26
1, 155680, Control_c, 0, 67, 32
1, 155695, Control_c, 0, 67, 39
1, 155710, Control_c, 0, 67, 46
1, 155721, Note_on_c, 0, 40, 69
1, 155726, Control_c, 0, 67, 53
1, 155741, Control_c, 0, 67, 58
1, 155752, Note_off_c, 0, 40, 64
1, 155755, Note_off_c, 0, 64, 59
1, 155755, Control_c, 0, 67, 62
1, 155766, Note_off_c, 0, 47, 0
1, 155770, Control_c, 0, 67, 65
1, 155783, Note_on_c, 0, 47, 52
1, 155785, Control_c, 0, 67, 66
1, 155800, Control_c, 0, 67, 66
1, 155814, Note_on_c, 0, 40, 75
1, 155859, Control_c, 0, 67, 67
1, 155871, Note_off_c, 0, 40, 49
1, 155873, Control_c, 0, 67, 68
1, 155888, Control_c, 0, 67, 68
1, 155903, Control_c, 0, 67, 69
1, 155912, Note_on_c, 0, 40, 60
1, 155915, Note_on_c, 0, 48, 86
1, 155918, Note_on_c, 0, 64, 90
1, 155918, Control_c, 0, 67, 70
1, 155925, Note_off_c, 0, 47, 47
1, 155927, Note_on_c, 0, 55, 78
1, 155933, Control_c, 0, 67, 71
1, 155948, Control_c, 0, 64, 109
1, 155948, Control_c, 0, 67, 72
1, 155963, Control_c, 0, 64, 73
1, 155963, Control_c, 0, 67, 73
1, 155965, Note_off_c, 0, 56, 63
1, 155978, Control_c, 0, 64, 0
1, 155978, Control_c, 0, 67, 75
1, 155993, Control_c, 0, 67, 76
1, 156008, Control_c, 0, 67, 78
1, 156022, Control_c, 0, 64, 40
1, 156022, Control_c, 0, 67, 79
1, 156029, Note_off_c, 0, 40, 63
1, 156037, Control_c, 0, 64, 64
1, 156037, Control_c, 0, 67, 80
1, 156052, Control_c, 0, 64, 74
1, 156052, Control_c, 0, 67, 80
1, 156067, Control_c, 0, 64, 87
1, 156067, Control_c, 0, 67, 81
1, 156081, Control_c, 0, 64, 111
1, 156081, Control_c, 0, 67, 83
1, 156103, Control_c, 0, 64, 127
1, 156103, Control_c, 0, 67, 85
1, 156118, Control_c, 0, 67, 87
1, 156133, Control_c, 0, 67, 90
1, 156140, Note_on_c, 0, 40, 76
1, 156148, Control_c, 0, 67, 92
1, 156163, Control_c, 0, 67, 94
1, 156168, Note_off_c, 0, 40, 65
1, 156178, Control_c, 0, 67, 97
1, 156192, Control_c, 0, 67, 99
1, 156208, Control_c, 0, 67, 101
1, 156223, Control_c, 0, 67, 104
1, 156234, Note_on_c, 0, 40, 73
1, 156237, Control_c, 0, 67, 107
1, 156252, Control_c, 0, 67, 110
1, 156267, Control_c, 0, 67, 112
1, 156281, Note_off_c, 0, 40, 56
1, 156282, Control_c, 0, 67, 113
1, 156297, Control_c, 0, 67, 114
1, 156312, Control_c, 0, 67, 115
1, 156351, Note_on_c, 0, 67, 91
1, 156378, Note_on_c, 0, 46, 72
1, 156387, Note_on_c, 0, 60, 64
1, 156392, Note_on_c, 0, 40, 63
1, 156401, Control_c, 0, 64, 85
1, 156413, Note_off_c, 0, 48, 58
1, 156416, Note_off_c, 0, 64, 56
1, 156416, Control_c, 0, 64, 62
1, 156416, Control_c, 0, 67, 115
1, 156430, Control_c, 0, 64, 0
1, 156430, Control_c, 0, 67, 116
1, 156474, Control_c, 0, 67, 116
1, 156477, Note_off_c, 0, 40, 62
1, 156514, Note_off_c, 0, 55, 56
1, 156535, Control_c, 0, 64, 63
1, 156550, Control_c, 0, 64, 73
1, 156565, Control_c, 0, 64, 84
1, 156579, Control_c, 0, 64, 103
1, 156594, Note_on_c, 0, 40, 58
1, 156594, Control_c, 0, 64, 127
1, 156630, Note_off_c, 0, 40, 58
1, 156683, Note_on_c, 0, 40, 54
1, 156786, Note_on_c, 0, 66, 74
1, 156786, Control_c, 0, 67, 117
1, 156798, Note_off_c, 0, 40, 0
1, 156798, Note_on_c, 0, 40, 14
1, 156798, Note_on_c, 0, 57, 61
1, 156799, Note_on_c, 0, 45, 63
1, 156810, Note_off_c, 0, 46, 55
1, 156816, Control_c, 0, 64, 82
1, 156816, Control_c, 0, 67, 118
1, 156824, Note_off_c, 0, 67, 55
1, 156831, Control_c, 0, 64, 61
1, 156831, Control_c, 0, 67, 119
1, 156853, Control_c, 0, 64, 0
1, 156853, Control_c, 0, 67, 122
1, 156868, Control_c, 0, 67, 124
1, 156883, Control_c, 0, 67, 126
1, 156898, Control_c, 0, 64, 40
1, 156898, Control_c, 0, 67, 127
1, 156908, Note_off_c, 0, 60, 32
1, 156912, Control_c, 0, 64, 64
1, 156923, Note_off_c, 0, 40, 54
1, 156927, Control_c, 0, 64, 73
1, 156942, Control_c, 0, 64, 84
1, 156957, Control_c, 0, 64, 102
1, 156972, Control_c, 0, 64, 127
1, 157021, Note_on_c, 0, 40, 65
1, 157052, Note_off_c, 0, 40, 63
1, 157135, Note_on_c, 0, 40, 49
1, 157161, Note_off_c, 0, 40, 56
1, 157239, Note_off_c, 0, 45, 57
1, 157241, Note_on_c, 0, 64, 64
1, 157249, Note_on_c, 0, 44, 59
1, 157253, Control_c, 0, 64, 119
1, 157261, Note_on_c, 0, 40, 52
1, 157266, Note_on_c, 0, 59, 51
1, 157268, Control_c, 0, 64, 86
1, 157275, Note_off_c, 0, 57, 45
1, 157283, Control_c, 0, 64, 65
1, 157297, Control_c, 0, 64, 0
1, 157308, Note_off_c, 0, 40, 61
1, 157309, Note_off_c, 0, 66, 52
1, 157402, Control_c, 0, 64, 46
1, 157417, Control_c, 0, 64, 65
1, 157432, Control_c, 0, 64, 72
1, 157447, Control_c, 0, 64, 80
1, 157462, Control_c, 0, 64, 88
1, 157468, Note_on_c, 0, 40, 50
1, 157476, Control_c, 0, 64, 98
1, 157491, Control_c, 0, 64, 107
1, 157503, Note_off_c, 0, 40, 62
1, 157506, Control_c, 0, 64, 117
1, 157520, Control_c, 0, 64, 127
1, 157576, Note_off_c, 0, 64, 36
1, 157586, Note_on_c, 0, 40, 54
1, 157729, Note_on_c, 0, 48, 72
1, 157734, Note_on_c, 0, 64, 59
1, 157750, Control_c, 0, 64, 103
1, 157751, Note_on_c, 0, 55, 52
1, 157754, Note_off_c, 0, 59, 51
1, 157765, Control_c, 0, 64, 80
1, 157780, Control_c, 0, 64, 62
1, 157787, Note_off_c, 0, 44, 52
1, 157795, Control_c, 0, 64, 0
1, 157868, Note_off_c, 0, 40, 42
1, 157868, Control_c, 0, 64, 55
1, 157883, Control_c, 0, 64, 66
1, 157898, Control_c, 0, 64, 73
1, 157913, Control_c, 0, 64, 79
1, 157927, Control_c, 0, 64, 84
1, 157942, Control_c, 0, 64, 85
1, 157965, Note_on_c, 0, 40, 60
1, 158003, Note_off_c, 0, 40, 61
1, 158093, Note_on_c, 0, 40, 53
1, 158136, Note_off_c, 0, 40, 49
1, 158267, Note_on_c, 0, 46, 68
1, 158273, Note_on_c, 0, 67, 62
1, 158284, Control_c, 0, 64, 83
1, 158286, Note_on_c, 0, 40, 55
1, 158299, Control_c, 0, 64, 79
1, 158314, Control_c, 0, 64, 69
1, 158318, Note_on_c, 0, 60, 38
1, 158321, Note_off_c, 0, 48, 53
1, 158329, Control_c, 0, 64, 51
1, 158351, Control_c, 0, 64, 0
1, 158398, Note_off_c, 0, 64, 38
1, 158407, Note_off_c, 0, 55, 37
1, 158425, Control_c, 0, 64, 33
1, 158440, Control_c, 0, 64, 58
1, 158447, Note_off_c, 0, 40, 61
1, 158454, Control_c, 0, 64, 64
1, 158469, Control_c, 0, 64, 65
1, 158483, Control_c, 0, 64, 66
1, 158498, Control_c, 0, 64, 67
1, 158543, Control_c, 0, 64, 66
1, 158562, Note_on_c, 0, 40, 61
1, 158593, Note_off_c, 0, 40, 64
1, 158646, Control_c, 0, 64, 67
1, 158674, Note_on_c, 0, 40, 56
1, 158720, Note_off_c, 0, 40, 58
1, 158720, Control_c, 0, 64, 66
1, 158735, Control_c, 0, 64, 65
1, 158750, Control_c, 0, 64, 63
1, 158765, Control_c, 0, 64, 57
1, 158780, Control_c, 0, 64, 43
1, 158795, Control_c, 0, 64, 0
1, 158804, Note_on_c, 0, 66, 59
1, 158813, Note_on_c, 0, 40, 58
1, 158821, Note_on_c, 0, 57, 44
1, 158822, Note_on_c, 0, 45, 60
1, 158822, Note_off_c, 0, 67, 49
1, 158869, Control_c, 0, 64, 51
1, 158878, Note_off_c, 0, 46, 52
1, 158883, Control_c, 0, 64, 62
1, 158898, Control_c, 0, 64, 65
1, 158913, Control_c, 0, 64, 67
1, 158929, Control_c, 0, 64, 67
1, 158948, Note_off_c, 0, 40, 60
1, 158950, Note_off_c, 0, 60, 56
1, 158988, Control_c, 0, 64, 68
1, 159018, Control_c, 0, 64, 68
1, 159045, Note_on_c, 0, 40, 54
1, 159081, Note_off_c, 0, 40, 63
1, 159144, Control_c, 0, 64, 69
1, 159170, Note_on_c, 0, 40, 39
1, 159173, Control_c, 0, 64, 69
1, 159188, Control_c, 0, 64, 70
1, 159203, Control_c, 0, 64, 70
1, 159206, Note_off_c, 0, 40, 51
1, 159218, Control_c, 0, 64, 71
1, 159263, Control_c, 0, 64, 71
1, 159296, Note_on_c, 0, 40, 50
1, 159305, Note_on_c, 0, 64, 51
1, 159307, Control_c, 0, 64, 69
1, 159312, Note_on_c, 0, 44, 56
1, 159321, Note_on_c, 0, 59, 49
1, 159322, Control_c, 0, 64, 62
1, 159337, Control_c, 0, 64, 0
1, 159354, Note_off_c, 0, 45, 37
1, 159364, Note_off_c, 0, 57, 36
1, 159414, Note_off_c, 0, 66, 38
1, 159425, Control_c, 0, 64, 35
1, 159440, Control_c, 0, 64, 64
1, 159448, Note_off_c, 0, 40, 59
1, 159455, Control_c, 0, 64, 71
1, 159470, Control_c, 0, 64, 78
1, 159485, Control_c, 0, 64, 87
1, 159499, Control_c, 0, 64, 95
1, 159514, Control_c, 0, 64, 100
1, 159529, Control_c, 0, 64, 104
1, 159544, Control_c, 0, 64, 106
1, 159558, Note_on_c, 0, 40, 55
1, 159559, Control_c, 0, 64, 107
1, 159588, Note_off_c, 0, 40, 58
1, 159672, Note_off_c, 0, 44, 62
1, 159673, Note_on_c, 0, 40, 61
1, 159726, Note_off_c, 0, 40, 48
1, 159826, Note_on_c, 0, 39, 63
1, 159826, Control_c, 0, 64, 104
1, 159841, Control_c, 0, 64, 94
1, 159863, Note_on_c, 0, 40, 55
1, 159863, Control_c, 0, 64, 77
1, 159878, Control_c, 0, 64, 63
1, 159893, Control_c, 0, 64, 0
1, 159952, Control_c, 0, 64, 42
1, 159962, Note_off_c, 0, 40, 49
1, 159967, Control_c, 0, 64, 63
1, 159982, Control_c, 0, 64, 69
1, 159996, Control_c, 0, 64, 75
1, 160011, Control_c, 0, 64, 81
1, 160026, Control_c, 0, 64, 84
1, 160041, Control_c, 0, 64, 86
1, 160091, Note_on_c, 0, 40, 55
1, 160125, Note_off_c, 0, 40, 61
1, 160215, Note_on_c, 0, 40, 52
1, 160245, Note_off_c, 0, 40, 52
1, 160382, Control_c, 0, 64, 84
1, 160396, Control_c, 0, 64, 79
1, 160400, Note_on_c, 0, 40, 50
1, 160403, Note_on_c, 0, 38, 48
1, 160411, Control_c, 0, 64, 71
1, 160426, Control_c, 0, 64, 53
1, 160437, Note_off_c, 0, 39, 49
1, 160440, Control_c, 0, 64, 0
1, 160560, Control_c, 0, 64, 47
1, 160564, Note_off_c, 0, 40, 52
1, 160575, Control_c, 0, 64, 65
1, 160598, Control_c, 0, 64, 71
1, 160613, Control_c, 0, 64, 77
1, 160627, Control_c, 0, 64, 85
1, 160642, Control_c, 0, 64, 91
1, 160657, Control_c, 0, 64, 95
1, 160671, Control_c, 0, 64, 99
1, 160686, Control_c, 0, 64, 100
1, 160701, Control_c, 0, 64, 101
1, 160716, Control_c, 0, 64, 102
1, 160731, Control_c, 0, 64, 104
1, 160746, Control_c, 0, 64, 106
1, 160747, Note_on_c, 0, 40, 30
1, 160760, Control_c, 0, 64, 109
1, 160775, Control_c, 0, 64, 111
1, 160783, Note_off_c, 0, 40, 51
1, 160790, Control_c, 0, 64, 112
1, 160805, Control_c, 0, 64, 113
1, 160820, Control_c, 0, 64, 114
1, 160834, Control_c, 0, 64, 116
1, 160849, Control_c, 0, 64, 118
1, 160864, Control_c, 0, 64, 119
1, 160878, Control_c, 0, 64, 119
1, 160890, Note_on_c, 0, 40, 45
1, 160893, Control_c, 0, 64, 120
1, 160908, Control_c, 0, 64, 123
1, 160923, Control_c, 0, 64, 127
1, 160966, Note_off_c, 0, 40, 50
1, 161093, Note_on_c, 0, 35, 44
1, 161098, Note_on_c, 0, 40, 45
1, 161118, Note_off_c, 0, 38, 42
1, 161131, Control_c, 0, 64, 101
1, 161145, Control_c, 0, 64, 82
1, 161160, Control_c, 0, 64, 65
1, 161175, Control_c, 0, 64, 0
1, 161234, Control_c, 0, 64, 57
1, 161249, Control_c, 0, 64, 66
1, 161263, Control_c, 0, 64, 74
1, 161278, Control_c, 0, 64, 84
1, 161293, Control_c, 0, 64, 103
1, 161308, Control_c, 0, 64, 127
1, 161346, Note_off_c, 0, 40, 40
1, 161476, Note_on_c, 0, 40, 51
1, 161516, Note_off_c, 0, 40, 59
1, 161662, Note_on_c, 0, 40, 41
1, 161764, Note_off_c, 0, 40, 37
1, 161852, Note_off_c, 0, 59, 38
1, 161981, Note_off_c, 0, 64, 60
1, 161982, Note_on_c, 0, 33, 47
1, 161994, Note_on_c, 0, 40, 42
1, 162121, Note_off_c, 0, 35, 41
1, 162169, Control_c, 0, 64, 107
1, 162184, Control_c, 0, 64, 96
1, 162199, Control_c, 0, 64, 86
1, 162214, Control_c, 0, 64, 77
1, 162229, Control_c, 0, 64, 67
1, 162243, Control_c, 0, 64, 50
1, 162258, Control_c, 0, 64, 0
1, 162436, Control_c, 0, 64, 62
1, 162450, Control_c, 0, 64, 69
1, 162465, Control_c, 0, 64, 76
1, 162480, Control_c, 0, 64, 86
1, 162495, Control_c, 0, 64, 102
1, 162510, Control_c, 0, 64, 127
1, 162917, Note_on_c, 0, 69, 55
1, 162960, Note_on_c, 0, 61, 35
1, 162977, Note_on_c, 0, 64, 31
1, 163081, Control_c, 0, 67, 126
1, 163096, Control_c, 0, 67, 125
1, 163111, Control_c, 0, 67, 125
1, 163126, Control_c, 0, 67, 124
1, 163140, Control_c, 0, 67, 123
1, 163155, Control_c, 0, 67, 122
1, 163157, Note_off_c, 0, 61, 40
1, 163168, Note_off_c, 0, 64, 43
1, 163170, Control_c, 0, 67, 121
1, 163185, Control_c, 0, 67, 120
1, 163200, Control_c, 0, 67, 119
1, 163214, Control_c, 0, 67, 118
1, 163229, Control_c, 0, 67, 118
1, 163244, Control_c, 0, 67, 117
1, 163259, Control_c, 0, 67, 117
1, 163273, Control_c, 0, 67, 116
1, 163283, Note_on_c, 0, 68, 75
1, 163288, Control_c, 0, 67, 116
1, 163303, Control_c, 0, 67, 115
1, 163305, Note_on_c, 0, 64, 49
1, 163308, Note_on_c, 0, 59, 50
1, 163316, Note_off_c, 0, 69, 60
1, 163318, Control_c, 0, 67, 114
1, 163333, Control_c, 0, 67, 114
1, 163347, Control_c, 0, 67, 113
1, 163362, Control_c, 0, 67, 112
1, 163377, Control_c, 0, 67, 112
1, 163391, Control_c, 0, 67, 111
1, 163406, Control_c, 0, 67, 111
1, 163414, Note_off_c, 0, 64, 61
1, 163424, Note_off_c, 0, 59, 56
1, 163496, Control_c, 0, 67, 111
1, 163511, Control_c, 0, 67, 112
1, 163525, Control_c, 0, 67, 112
1, 163548, Note_on_c, 0, 66, 76
1, 163555, Control_c, 0, 67, 113
1, 163573, Note_on_c, 0, 57, 53
1, 163585, Control_c, 0, 67, 113
1, 163599, Note_on_c, 0, 62, 56
1, 163602, Note_off_c, 0, 68, 62
1, 163621, Control_c, 0, 67, 114
1, 163666, Control_c, 0, 67, 114
1, 163672, Note_off_c, 0, 57, 58
1, 163698, Note_off_c, 0, 62, 61
1, 163755, Control_c, 0, 67, 115
1, 163785, Control_c, 0, 67, 115
1, 163815, Control_c, 0, 67, 116
1, 163844, Control_c, 0, 67, 117
1, 163859, Control_c, 0, 67, 117
1, 163874, Control_c, 0, 67, 118
1, 163903, Control_c, 0, 67, 118
1, 163919, Note_on_c, 0, 64, 61
1, 163933, Control_c, 0, 67, 119
1, 163959, Note_on_c, 0, 56, 48
1, 163962, Control_c, 0, 67, 119
1, 163972, Note_on_c, 0, 62, 42
1, 163977, Control_c, 0, 67, 120
1, 163992, Control_c, 0, 67, 120
1, 164007, Control_c, 0, 64, 94
1, 164007, Control_c, 0, 67, 121
1, 164021, Control_c, 0, 64, 71
1, 164022, Note_off_c, 0, 66, 53
1, 164036, Control_c, 0, 64, 0
1, 164036, Control_c, 0, 67, 121
1, 164066, Control_c, 0, 67, 122
1, 164125, Control_c, 0, 64, 56
1, 164140, Control_c, 0, 64, 70
1, 164155, Control_c, 0, 64, 82
1, 164169, Control_c, 0, 64, 100
1, 164184, Control_c, 0, 64, 127
1, 164235, Note_off_c, 0, 62, 53
1, 164256, Note_off_c, 0, 56, 57
1, 164392, Note_on_c, 0, 57, 45
1, 164394, Note_on_c, 0, 62, 38
1, 164503, Note_off_c, 0, 62, 37
1, 164585, Note_off_c, 0, 57, 35
1, 164651, Control_c, 0, 64, 110
1, 164662, Note_on_c, 0, 58, 53
1, 164666, Control_c, 0, 64, 82
1, 164667, Note_on_c, 0, 62, 41
1, 164681, Control_c, 0, 64, 68
1, 164681, Control_c, 0, 67, 122
1, 164696, Control_c, 0, 64, 65
1, 164710, Control_c, 0, 64, 70
1, 164725, Control_c, 0, 64, 75
1, 164740, Control_c, 0, 64, 82
1, 164755, Control_c, 0, 64, 93
1, 164755, Control_c, 0, 67, 122
1, 164770, Control_c, 0, 64, 113
1, 164784, Control_c, 0, 64, 127
1, 164791, Note_off_c, 0, 62, 35
1, 164829, Control_c, 0, 67, 122
1, 164888, Control_c, 0, 64, 91
1, 164903, Note_off_c, 0, 58, 55
1, 164903, Control_c, 0, 64, 70
1, 164915, Note_on_c, 0, 62, 52
1, 164918, Control_c, 0, 64, 58
1, 164921, Note_on_c, 0, 59, 43
1, 164947, Control_c, 0, 64, 64
1, 164947, Control_c, 0, 67, 122
1, 164962, Control_c, 0, 64, 68
1, 164977, Control_c, 0, 64, 74
1, 164977, Control_c, 0, 67, 121
1, 164992, Control_c, 0, 64, 87
1, 164992, Control_c, 0, 67, 121
1, 165007, Control_c, 0, 64, 114
1, 165007, Control_c, 0, 67, 120
1, 165022, Control_c, 0, 64, 127
1, 165022, Control_c, 0, 67, 119
1, 165036, Control_c, 0, 67, 119
1, 165048, Note_off_c, 0, 59, 56
1, 165051, Control_c, 0, 67, 118
1, 165162, Control_c, 0, 64, 101
1, 165162, Control_c, 0, 67, 119
1, 165171, Note_off_c, 0, 62, 59
1, 165177, Control_c, 0, 64, 72
1, 165192, Control_c, 0, 64, 0
1, 165207, Control_c, 0, 67, 118
1, 165207, Note_on_c, 0, 61, 43
1, 165223, Note_on_c, 0, 57, 39
1, 165236, Control_c, 0, 67, 118
1, 165251, Control_c, 0, 67, 117
1, 165266, Control_c, 0, 67, 117
1, 165281, Control_c, 0, 64, 62
1, 165281, Control_c, 0, 67, 116
1, 165296, Control_c, 0, 64, 74
1, 165296, Control_c, 0, 67, 115
1, 165311, Control_c, 0, 64, 91
1, 165311, Control_c, 0, 67, 115
1, 165326, Control_c, 0, 64, 127
1, 165326, Control_c, 0, 67, 114
1, 165335, Note_off_c, 0, 57, 58
1, 165341, Control_c, 0, 67, 113
1, 165356, Control_c, 0, 67, 112
1, 165371, Note_off_c, 0, 61, 61
1, 165376, Note_off_c, 0, 64, 62
1, 165386, Control_c, 0, 67, 111
1, 165415, Control_c, 0, 67, 111
1, 165460, Control_c, 0, 67, 111
1, 165474, Control_c, 0, 67, 112
1, 165489, Control_c, 0, 67, 112
1, 165519, Control_c, 0, 67, 113
1, 165600, Note_on_c, 0, 69, 61
1, 165632, Note_on_c, 0, 61, 30
1, 165642, Note_on_c, 0, 64, 31
1, 165652, Control_c, 0, 67, 113
1, 165699, Note_off_c, 0, 64, 46
1, 165756, Note_off_c, 0, 61, 37
1, 165800, Control_c, 0, 67, 113
1, 165837, Control_c, 0, 67, 112
1, 165866, Control_c, 0, 67, 111
1, 165869, Note_on_c, 0, 68, 79
1, 165896, Note_off_c, 0, 69, 60
1, 165896, Control_c, 0, 67, 111
1, 165900, Note_on_c, 0, 64, 57
1, 165904, Note_on_c, 0, 59, 51
1, 165911, Control_c, 0, 67, 110
1, 165926, Control_c, 0, 67, 110
1, 165941, Control_c, 0, 67, 109
1, 165976, Note_off_c, 0, 64, 62
1, 165979, Note_off_c, 0, 59, 60
1, 165985, Control_c, 0, 67, 109
1, 166015, Control_c, 0, 67, 108
1, 166030, Control_c, 0, 67, 106
1, 166045, Control_c, 0, 67, 104
1, 166057, Note_off_c, 0, 40, 42
1, 166059, Control_c, 0, 67, 103
1, 166107, Note_on_c, 0, 66, 82
1, 166113, Note_on_c, 0, 47, 74
1, 166130, Note_on_c, 0, 57, 55
1, 166149, Note_off_c, 0, 68, 62
1, 166150, Control_c, 0, 67, 104
1, 166152, Note_on_c, 0, 62, 52
1, 166164, Control_c, 0, 67, 104
1, 166179, Control_c, 0, 67, 105
1, 166194, Control_c, 0, 67, 105
1, 166200, Note_off_c, 0, 57, 61
1, 166224, Control_c, 0, 67, 106
1, 166231, Note_off_c, 0, 62, 61
1, 166238, Control_c, 0, 67, 106
1, 166253, Note_off_c, 0, 47, 59
1, 166253, Control_c, 0, 67, 107
1, 166268, Control_c, 0, 67, 107
1, 166298, Control_c, 0, 67, 108
1, 166313, Control_c, 0, 67, 108
1, 166342, Control_c, 0, 67, 109
1, 166357, Control_c, 0, 67, 109
1, 166372, Control_c, 0, 67, 110
1, 166402, Control_c, 0, 67, 110
1, 166435, Note_on_c, 0, 64, 73
1, 166446, Control_c, 0, 67, 111
1, 166466, Note_on_c, 0, 40, 63
1, 166476, Note_on_c, 0, 62, 54
1, 166478, Note_on_c, 0, 56, 58
1, 166490, Control_c, 0, 64, 114
1, 166490, Control_c, 0, 67, 111
1, 166505, Control_c, 0, 64, 81
1, 166520, Control_c, 0, 64, 64
1, 166521, Note_off_c, 0, 66, 48
1, 166535, Control_c, 0, 64, 19
1, 166550, Control_c, 0, 64, 0
1, 166550, Control_c, 0, 67, 111
1, 166564, Control_c, 0, 64, 17
1, 166587, Control_c, 0, 64, 51
1, 166587, Control_c, 0, 67, 110
1, 166602, Control_c, 0, 64, 63
1, 166602, Control_c, 0, 67, 110
1, 166616, Control_c, 0, 64, 72
1, 166631, Control_c, 0, 64, 82
1, 166646, Control_c, 0, 64, 97
1, 166661, Control_c, 0, 64, 119
1, 166661, Control_c, 0, 67, 109
1, 166676, Control_c, 0, 64, 127
1, 166681, Note_off_c, 0, 62, 54
1, 166709, Note_off_c, 0, 56, 63
1, 166794, Control_c, 0, 67, 109
1, 166796, Note_on_c, 0, 57, 52
1, 166808, Note_on_c, 0, 62, 57
1, 166823, Control_c, 0, 67, 108
1, 166838, Control_c, 0, 67, 108
1, 166853, Control_c, 0, 67, 107
1, 166871, Note_off_c, 0, 40, 61
1, 166880, Note_on_c, 0, 42, 72
1, 166882, Control_c, 0, 67, 107
1, 166892, Note_off_c, 0, 62, 57
1, 166913, Control_c, 0, 67, 106
1, 166943, Control_c, 0, 67, 106
1, 166958, Control_c, 0, 67, 105
1, 167000, Note_on_c, 0, 40, 68
1, 167004, Note_on_c, 0, 62, 65
1, 167006, Note_off_c, 0, 42, 60
1, 167009, Note_on_c, 0, 58, 64
1, 167010, Note_off_c, 0, 57, 57
1, 167076, Control_c, 0, 64, 106
1, 167091, Control_c, 0, 64, 93
1, 167106, Control_c, 0, 64, 87
1, 167120, Control_c, 0, 64, 84
1, 167135, Control_c, 0, 64, 82
1, 167142, Note_off_c, 0, 62, 33
1, 167150, Control_c, 0, 64, 80
1, 167165, Control_c, 0, 64, 77
1, 167180, Control_c, 0, 64, 71
1, 167195, Control_c, 0, 64, 67
1, 167195, Control_c, 0, 67, 105
1, 167210, Control_c, 0, 64, 64
1, 167225, Control_c, 0, 64, 60
1, 167239, Control_c, 0, 64, 41
1, 167239, Control_c, 0, 67, 104
1, 167246, Note_on_c, 0, 59, 62
1, 167254, Control_c, 0, 64, 0
1, 167255, Note_on_c, 0, 62, 71
1, 167269, Control_c, 0, 67, 104
1, 167284, Control_c, 0, 67, 103
1, 167299, Control_c, 0, 67, 102
1, 167311, Note_off_c, 0, 58, 61
1, 167313, Control_c, 0, 67, 102
1, 167328, Control_c, 0, 67, 100
1, 167350, Control_c, 0, 67, 97
1, 167365, Control_c, 0, 67, 92
1, 167371, Note_off_c, 0, 59, 61
1, 167380, Control_c, 0, 67, 88
1, 167395, Control_c, 0, 67, 80
1, 167410, Control_c, 0, 67, 74
1, 167424, Control_c, 0, 67, 68
1, 167439, Control_c, 0, 67, 62
1, 167454, Control_c, 0, 67, 58
1, 167469, Control_c, 0, 67, 53
1, 167484, Control_c, 0, 67, 46
1, 167499, Control_c, 0, 67, 40
1, 167513, Control_c, 0, 64, 48
1, 167513, Control_c, 0, 67, 36
1, 167528, Control_c, 0, 64, 65
1, 167528, Control_c, 0, 67, 33
1, 167538, Note_on_c, 0, 61, 70
1, 167543, Control_c, 0, 64, 71
1, 167543, Control_c, 0, 67, 31
1, 167550, Note_on_c, 0, 57, 51
1, 167558, Control_c, 0, 64, 80
1, 167558, Control_c, 0, 67, 28
1, 167573, Control_c, 0, 64, 88
1, 167573, Control_c, 0, 67, 23
1, 167587, Control_c, 0, 64, 95
1, 167587, Control_c, 0, 67, 19
1, 167599, Note_off_c, 0, 62, 60
1, 167602, Control_c, 0, 64, 105
1, 167602, Control_c, 0, 67, 18
1, 167617, Control_c, 0, 64, 127
1, 167618, Note_off_c, 0, 64, 62
1, 167640, Note_off_c, 0, 57, 59
1, 167651, Note_off_c, 0, 33, 49
1, 167689, Note_off_c, 0, 61, 64
1, 167691, Control_c, 0, 67, 19
1, 167707, Control_c, 0, 67, 20
1, 167722, Control_c, 0, 67, 21
1, 167736, Control_c, 0, 67, 21
1, 167751, Control_c, 0, 67, 22
1, 167766, Control_c, 0, 67, 23
1, 167781, Control_c, 0, 67, 24
1, 167796, Control_c, 0, 67, 24
1, 167810, Control_c, 0, 67, 25
1, 167840, Control_c, 0, 67, 25
1, 167857, Note_on_c, 0, 73, 89
1, 167872, Note_on_c, 0, 33, 55
1, 167879, Note_on_c, 0, 45, 53
1, 167892, Note_on_c, 0, 64, 49
1, 167899, Control_c, 0, 64, 90
1, 167914, Control_c, 0, 64, 71
1, 167914, Control_c, 0, 67, 26
1, 167925, Note_off_c, 0, 40, 53
1, 167928, Control_c, 0, 64, 60
1, 167928, Control_c, 0, 67, 27
1, 167943, Control_c, 0, 64, 64
1, 167958, Control_c, 0, 64, 71
1, 167973, Control_c, 0, 64, 80
1, 167988, Control_c, 0, 64, 98
1, 167988, Control_c, 0, 67, 27
1, 168003, Control_c, 0, 64, 127
1, 168003, Control_c, 0, 67, 28
1, 168018, Control_c, 0, 67, 29
1, 168033, Control_c, 0, 67, 30
1, 168047, Control_c, 0, 67, 30
1, 168056, Note_off_c, 0, 64, 62
1, 168062, Control_c, 0, 67, 31
1, 168084, Control_c, 0, 67, 32
1, 168099, Control_c, 0, 67, 33
1, 168114, Control_c, 0, 67, 33
1, 168129, Control_c, 0, 67, 34
1, 168143, Control_c, 0, 67, 35
1, 168158, Control_c, 0, 67, 37
1, 168173, Control_c, 0, 67, 38
1, 168188, Control_c, 0, 67, 42
1, 168202, Control_c, 0, 67, 45
1, 168217, Control_c, 0, 64, 91
1, 168217, Control_c, 0, 67, 49
1, 168229, Note_on_c, 0, 71, 84
1, 168232, Control_c, 0, 64, 64
1, 168232, Control_c, 0, 67, 53
1, 168244, Note_off_c, 0, 33, 59
1, 168247, Note_on_c, 0, 35, 52
1, 168247, Control_c, 0, 64, 0
1, 168247, Control_c, 0, 67, 56
1, 168262, Control_c, 0, 64, 54
1, 168262, Control_c, 0, 67, 58
1, 168268, Note_on_c, 0, 62, 41
1, 168268, Note_off_c, 0, 73, 66
1, 168277, Control_c, 0, 64, 67
1, 168277, Control_c, 0, 67, 59
1, 168292, Control_c, 0, 64, 74
1, 168292, Control_c, 0, 67, 60
1, 168307, Control_c, 0, 64, 88
1, 168307, Control_c, 0, 67, 61
1, 168322, Control_c, 0, 64, 127
1, 168322, Control_c, 0, 67, 62
1, 168336, Control_c, 0, 67, 64
1, 168351, Control_c, 0, 67, 65
1, 168366, Control_c, 0, 67, 66
1, 168375, Note_off_c, 0, 45, 49
1, 168381, Control_c, 0, 67, 66
1, 168395, Control_c, 0, 67, 67
1, 168469, Control_c, 0, 67, 68
1, 168484, Control_c, 0, 67, 68
1, 168499, Control_c, 0, 67, 70
1, 168515, Control_c, 0, 64, 82
1, 168515, Control_c, 0, 67, 72
1, 168515, Note_off_c, 0, 35, 61
1, 168522, Note_on_c, 0, 69, 73
1, 168530, Control_c, 0, 64, 62
1, 168530, Control_c, 0, 67, 74
1, 168539, Note_on_c, 0, 45, 46
1, 168542, Note_on_c, 0, 36, 50
1, 168545, Control_c, 0, 64, 0
1, 168545, Control_c, 0, 67, 76
1, 168555, Note_on_c, 0, 63, 59
1, 168559, Control_c, 0, 67, 78
1, 168563, Note_off_c, 0, 62, 55
1, 168574, Control_c, 0, 64, 58
1, 168574, Control_c, 0, 67, 79
1, 168575, Note_off_c, 0, 71, 54
1, 168589, Control_c, 0, 64, 68
1, 168589, Control_c, 0, 67, 80
1, 168603, Control_c, 0, 64, 81
1, 168603, Control_c, 0, 67, 80
1, 168618, Control_c, 0, 64, 101
1, 168618, Control_c, 0, 67, 81
1, 168632, Note_off_c, 0, 45, 51
1, 168633, Control_c, 0, 64, 127
1, 168633, Control_c, 0, 67, 82
1, 168648, Control_c, 0, 67, 84
1, 168663, Control_c, 0, 67, 85
1, 168677, Control_c, 0, 67, 87
1, 168692, Control_c, 0, 67, 88
1, 168707, Control_c, 0, 67, 89
1, 168722, Control_c, 0, 67, 91
1, 168737, Control_c, 0, 67, 92
1, 168751, Control_c, 0, 64, 110
1, 168751, Control_c, 0, 67, 93
1, 168766, Control_c, 0, 64, 77
1, 168766, Control_c, 0, 67, 94
1, 168775, Note_on_c, 0, 68, 69
1, 168778, Note_off_c, 0, 36, 51
1, 168781, Control_c, 0, 64, 23
1, 168781, Control_c, 0, 67, 96
1, 168786, Note_on_c, 0, 64, 60
1, 168793, Note_off_c, 0, 69, 60
1, 168795, Note_on_c, 0, 37, 51
1, 168796, Control_c, 0, 64, 0
1, 168796, Control_c, 0, 67, 97
1, 168797, Note_off_c, 0, 63, 53
1, 168804, Note_on_c, 0, 45, 40
1, 168811, Control_c, 0, 67, 98
1, 168833, Control_c, 0, 64, 63
1, 168833, Control_c, 0, 67, 98
1, 168848, Control_c, 0, 64, 70
1, 168848, Control_c, 0, 67, 99
1, 168863, Control_c, 0, 64, 79
1, 168863, Control_c, 0, 67, 99
1, 168867, Note_off_c, 0, 64, 62
1, 168878, Control_c, 0, 64, 93
1, 168878, Control_c, 0, 67, 100
1, 168892, Control_c, 0, 64, 127
1, 168892, Control_c, 0, 67, 100
1, 168907, Control_c, 0, 67, 101
1, 168922, Control_c, 0, 67, 102
1, 168937, Control_c, 0, 67, 103
1, 168952, Control_c, 0, 67, 105
1, 168962, Note_off_c, 0, 45, 32
1, 168966, Control_c, 0, 67, 106
1, 168981, Control_c, 0, 67, 107
1, 168996, Control_c, 0, 67, 108
1, 169010, Control_c, 0, 67, 109
1, 169025, Control_c, 0, 67, 110
1, 169037, Note_on_c, 0, 66, 69
1, 169040, Control_c, 0, 64, 85
1, 169040, Control_c, 0, 67, 110
1, 169051, Note_off_c, 0, 68, 60
1, 169055, Note_on_c, 0, 57, 47
1, 169055, Control_c, 0, 64, 64
1, 169055, Control_c, 0, 67, 111
1, 169063, Note_on_c, 0, 38, 42
1, 169064, Note_off_c, 0, 37, 50
1, 169070, Control_c, 0, 64, 0
1, 169070, Control_c, 0, 67, 112
1, 169075, Note_on_c, 0, 45, 43
1, 169085, Control_c, 0, 64, 42
1, 169085, Control_c, 0, 67, 113
1, 169100, Control_c, 0, 64, 64
1, 169100, Control_c, 0, 67, 113
1, 169115, Control_c, 0, 64, 72
1, 169130, Control_c, 0, 64, 82
1, 169144, Control_c, 0, 64, 98
1, 169159, Control_c, 0, 64, 127
1, 169338, Control_c, 0, 67, 114
1, 169343, Note_on_c, 0, 64, 57
1, 169353, Control_c, 0, 64, 94
1, 169353, Control_c, 0, 67, 114
1, 169356, Note_on_c, 0, 40, 44
1, 169359, Note_off_c, 0, 38, 41
1, 169368, Control_c, 0, 64, 67
1, 169368, Control_c, 0, 67, 115
1, 169373, Note_on_c, 0, 61, 45
1, 169382, Control_c, 0, 64, 0
1, 169382, Control_c, 0, 67, 117
1, 169397, Control_c, 0, 67, 118
1, 169404, Note_off_c, 0, 57, 47
1, 169419, Note_off_c, 0, 66, 47
1, 169471, Control_c, 0, 64, 64
1, 169486, Control_c, 0, 64, 78
1, 169500, Control_c, 0, 64, 97
1, 169508, Note_off_c, 0, 45, 0
1, 169515, Control_c, 0, 64, 127
1, 169545, Poly_aftertouch_c, 0, 45, 127
1, 169550, Note_on_c, 0, 45, 3
1, 169597, Control_c, 0, 67, 117
1, 169648, Note_off_c, 0, 64, 62
1, 169673, Note_on_c, 0, 59, 61
1, 169686, Note_on_c, 0, 50, 50
1, 169688, Note_on_c, 0, 56, 51
1, 169691, Note_off_c, 0, 45, 34
1, 169701, Control_c, 0, 64, 86
1, 169715, Control_c, 0, 64, 65
1, 169730, Control_c, 0, 64, 0
1, 169732, Note_off_c, 0, 61, 60
1, 169760, Control_c, 0, 64, 44
1, 169760, Control_c, 0, 67, 118
1, 169775, Control_c, 0, 64, 65
1, 169789, Control_c, 0, 64, 75
1, 169804, Control_c, 0, 64, 89
1, 169819, Control_c, 0, 64, 127
1, 169878, Note_off_c, 0, 59, 58
1, 169994, Note_off_c, 0, 56, 54
1, 170000, Note_off_c, 0, 50, 51
1, 170038, Note_off_c, 0, 40, 42
1, 170101, Note_on_c, 0, 64, 58
1, 170112, Note_on_c, 0, 59, 50
1, 170138, Note_on_c, 0, 56, 38
1, 170151, Note_on_c, 0, 50, 39
1, 170178, Note_on_c, 0, 40, 39
1, 170250, Control_c, 0, 64, 96
1, 170264, Control_c, 0, 64, 74
1, 170279, Control_c, 0, 64, 54
1, 170294, Control_c, 0, 64, 0
1, 170294, Control_c, 0, 67, 117
1, 170309, Control_c, 0, 67, 117
1, 170331, Control_c, 0, 64, 56
1, 170331, Control_c, 0, 67, 116
1, 170346, Control_c, 0, 64, 66
1, 170346, Control_c, 0, 67, 115
1, 170361, Control_c, 0, 64, 75
1, 170361, Control_c, 0, 67, 115
1, 170376, Control_c, 0, 64, 89
1, 170390, Control_c, 0, 64, 127
1, 170390, Control_c, 0, 67, 114
1, 170405, Control_c, 0, 67, 114
1, 170420, Control_c, 0, 67, 113
1, 170479, Control_c, 0, 67, 113
1, 170567, Note_on_c, 0, 54, 52
1, 170602, Note_off_c, 0, 50, 57
1, 170627, Control_c, 0, 67, 113
1, 170656, Control_c, 0, 67, 114
1, 170686, Control_c, 0, 67, 114
1, 170730, Control_c, 0, 67, 115
1, 170775, Control_c, 0, 67, 115
1, 170820, Control_c, 0, 67, 116
1, 170831, Note_on_c, 0, 52, 63
1, 170835, Control_c, 0, 67, 116
1, 170849, Control_c, 0, 67, 117
1, 170879, Control_c, 0, 67, 117
1, 170894, Control_c, 0, 67, 118
1, 170924, Control_c, 0, 67, 118
1, 170940, Note_off_c, 0, 40, 42
1, 170954, Control_c, 0, 67, 119
1, 170984, Control_c, 0, 67, 119
1, 171016, Note_off_c, 0, 54, 46
1, 171028, Control_c, 0, 67, 120
1, 171065, Note_on_c, 0, 50, 71
1, 171089, Note_off_c, 0, 52, 57
1, 171094, Control_c, 0, 67, 121
1, 171104, Note_off_c, 0, 56, 48
1, 171109, Control_c, 0, 67, 123
1, 171124, Control_c, 0, 67, 124
1, 171139, Control_c, 0, 67, 125
1, 171154, Control_c, 0, 67, 126
1, 171168, Control_c, 0, 67, 127
1, 171183, Control_c, 0, 67, 127
1, 171249, Note_off_c, 0, 64, 31
1, 171282, Note_off_c, 0, 50, 63
1, 171367, Note_on_c, 0, 64, 59
1, 171384, Note_on_c, 0, 50, 57
1, 171397, Note_on_c, 0, 55, 42
1, 171405, Note_on_c, 0, 45, 30
1, 171406, Note_on_c, 0, 57, 40
1, 171465, Control_c, 0, 64, 106
1, 171480, Control_c, 0, 64, 89
1, 171494, Control_c, 0, 64, 76
1, 171509, Control_c, 0, 64, 64
1, 171524, Control_c, 0, 64, 0
1, 171529, Note_off_c, 0, 59, 53
1, 171655, Note_on_c, 0, 49, 63
1, 171711, Note_off_c, 0, 50, 58
1, 171969, Note_on_c, 0, 48, 55
1, 171994, Note_off_c, 0, 49, 55
1, 172290, Note_on_c, 0, 49, 58
1, 172297, Note_off_c, 0, 48, 57
1, 172347, Control_c, 0, 64, 47
1, 172362, Control_c, 0, 64, 63
1, 172377, Control_c, 0, 64, 69
1, 172392, Control_c, 0, 64, 77
1, 172406, Note_off_c, 0, 64, 61
1, 172407, Control_c, 0, 64, 90
1, 172421, Control_c, 0, 64, 104
1, 172433, Note_off_c, 0, 55, 34
1, 172436, Control_c, 0, 64, 127
1, 172441, Note_off_c, 0, 45, 54
1, 172528, Note_off_c, 0, 57, 59
1, 172825, Note_on_c, 0, 66, 54
1, 172835, Note_on_c, 0, 64, 40
1, 172849, Note_on_c, 0, 54, 42
1, 172861, Note_on_c, 0, 45, 39
1, 172867, Note_on_c, 0, 38, 38
1, 172963, Control_c, 0, 64, 97
1, 172965, Note_off_c, 0, 49, 49
1, 172977, Control_c, 0, 64, 73
1, 172992, Control_c, 0, 64, 0
1, 173051, Control_c, 0, 64, 52
1, 173066, Control_c, 0, 64, 66
1, 173081, Control_c, 0, 64, 79
1, 173096, Control_c, 0, 64, 102
1, 173111, Control_c, 0, 64, 127
1, 173313, Note_off_c, 0, 38, 41
1, 173334, Note_off_c, 0, 45, 45
1, 173391, Note_on_c, 0, 52, 45
1, 173666, Note_on_c, 0, 62, 54
1, 173680, Note_on_c, 0, 50, 41
1, 173752, Note_off_c, 0, 52, 29
1, 173890, Note_off_c, 0, 50, 59
1, 173905, Note_on_c, 0, 61, 63
1, 173911, Note_on_c, 0, 49, 49
1, 173957, Note_off_c, 0, 49, 60
1, 174008, Note_off_c, 0, 66, 53
1, 174021, Note_off_c, 0, 54, 37
1, 174036, Note_off_c, 0, 61, 58
1, 174212, Note_on_c, 0, 68, 67
1, 174233, Note_on_c, 0, 61, 55
1, 174255, Note_on_c, 0, 40, 48
1, 174256, Note_on_c, 0, 56, 40
1, 174260, Note_on_c, 0, 49, 43
1, 174269, Note_off_c, 0, 62, 57
1, 174297, Control_c, 0, 64, 102
1, 174312, Control_c, 0, 64, 72
1, 174327, Control_c, 0, 64, 11
1, 174342, Control_c, 0, 64, 0
1, 174371, Control_c, 0, 64, 54
1, 174386, Control_c, 0, 64, 65
1, 174401, Control_c, 0, 64, 73
1, 174416, Control_c, 0, 64, 84
1, 174430, Control_c, 0, 64, 97
1, 174445, Control_c, 0, 64, 116
1, 174460, Control_c, 0, 64, 127
1, 174486, Note_on_c, 0, 59, 64
1, 174513, Note_on_c, 0, 47, 49
1, 174545, Note_off_c, 0, 56, 62
1, 174569, Note_off_c, 0, 49, 35
1, 174582, Note_off_c, 0, 61, 41
1, 174755, Note_on_c, 0, 56, 57
1, 174756, Control_c, 0, 64, 106
1, 174769, Note_off_c, 0, 47, 61
1, 174771, Control_c, 0, 64, 83
1, 174786, Control_c, 0, 64, 62
1, 174790, Note_on_c, 0, 44, 45
1, 174801, Control_c, 0, 64, 0
1, 174858, Note_off_c, 0, 59, 60
1, 174883, Control_c, 0, 64, 43
1, 174898, Control_c, 0, 64, 67
1, 174912, Note_off_c, 0, 64, 8
1, 174913, Control_c, 0, 64, 80
1, 174928, Control_c, 0, 64, 99
1, 174943, Control_c, 0, 64, 127
1, 175044, Note_on_c, 0, 45, 53
1, 175097, Note_off_c, 0, 44, 33
1, 175110, Note_off_c, 0, 56, 63
1, 175169, Note_on_c, 0, 57, 53
1, 175217, Note_off_c, 0, 45, 35
1, 175254, Control_c, 0, 67, 127
1, 175268, Note_off_c, 0, 57, 51
1, 175269, Control_c, 0, 67, 125
1, 175284, Control_c, 0, 67, 124
1, 175299, Control_c, 0, 67, 123
1, 175314, Control_c, 0, 67, 123
1, 175343, Control_c, 0, 67, 122
1, 175372, Control_c, 0, 67, 123
1, 175402, Control_c, 0, 67, 123
1, 175432, Control_c, 0, 67, 124
1, 175443, Note_on_c, 0, 69, 57
1, 175446, Control_c, 0, 64, 105
1, 175446, Control_c, 0, 67, 124
1, 175461, Note_on_c, 0, 42, 33
1, 175461, Control_c, 0, 64, 77
1, 175461, Control_c, 0, 67, 125
1, 175464, Note_on_c, 0, 45, 36
1, 175470, Note_off_c, 0, 40, 42
1, 175473, Note_on_c, 0, 61, 40
1, 175476, Control_c, 0, 64, 42
1, 175491, Note_off_c, 0, 68, 60
1, 175491, Control_c, 0, 64, 0
1, 175491, Control_c, 0, 67, 125
1, 175495, Note_on_c, 0, 57, 23
1, 175550, Control_c, 0, 64, 52
1, 175572, Control_c, 0, 64, 68
1, 175572, Control_c, 0, 67, 125
1, 175587, Control_c, 0, 64, 80
1, 175587, Control_c, 0, 67, 124
1, 175602, Control_c, 0, 64, 96
1, 175602, Control_c, 0, 67, 124
1, 175617, Control_c, 0, 64, 127
1, 175617, Control_c, 0, 67, 123
1, 175631, Note_off_c, 0, 57, 36
1, 175632, Control_c, 0, 67, 123
1, 175661, Control_c, 0, 67, 122
1, 175676, Control_c, 0, 67, 122
1, 175691, Control_c, 0, 67, 121
1, 175693, Note_off_c, 0, 45, 38
1, 175695, Note_off_c, 0, 61, 51
1, 175707, Control_c, 0, 67, 120
1, 175718, Note_on_c, 0, 71, 75
1, 175722, Control_c, 0, 67, 119
1, 175729, Note_on_c, 0, 47, 50
1, 175735, Note_off_c, 0, 69, 60
1, 175737, Control_c, 0, 67, 117
1, 175741, Note_on_c, 0, 59, 41
1, 175751, Control_c, 0, 67, 115
1, 175766, Control_c, 0, 67, 114
1, 175781, Control_c, 0, 67, 112
1, 175790, Note_off_c, 0, 59, 48
1, 175795, Control_c, 0, 67, 111
1, 175810, Control_c, 0, 67, 110
1, 175825, Control_c, 0, 67, 109
1, 175840, Control_c, 0, 67, 108
1, 175855, Control_c, 0, 67, 107
1, 175869, Control_c, 0, 67, 106
1, 175884, Control_c, 0, 67, 105
1, 175899, Control_c, 0, 67, 105
1, 175913, Note_off_c, 0, 47, 52
1, 175914, Control_c, 0, 67, 104
1, 175929, Control_c, 0, 67, 104
1, 175939, Note_off_c, 0, 71, 62
1, 175944, Control_c, 0, 67, 103
1, 175953, Note_on_c, 0, 73, 87
1, 175959, Control_c, 0, 67, 102
1, 175962, Note_on_c, 0, 49, 60
1, 175974, Control_c, 0, 67, 101
1, 175983, Note_on_c, 0, 61, 48
1, 175989, Control_c, 0, 67, 99
1, 176003, Control_c, 0, 67, 97
1, 176018, Control_c, 0, 67, 95
1, 176026, Note_off_c, 0, 61, 57
1, 176033, Control_c, 0, 67, 93
1, 176048, Control_c, 0, 67, 92
1, 176063, Control_c, 0, 67, 91
1, 176077, Control_c, 0, 67, 91
1, 176093, Note_off_c, 0, 49, 60
1, 176151, Control_c, 0, 67, 91
1, 176166, Control_c, 0, 67, 92
1, 176181, Control_c, 0, 67, 92
1, 176189, Note_on_c, 0, 75, 86
1, 176195, Control_c, 0, 67, 93
1, 176197, Note_on_c, 0, 51, 56
1, 176210, Control_c, 0, 67, 93
1, 176213, Note_on_c, 0, 63, 55
1, 176225, Control_c, 0, 67, 94
1, 176240, Control_c, 0, 67, 94
1, 176255, Control_c, 0, 67, 95
1, 176269, Note_off_c, 0, 63, 49
1, 176269, Control_c, 0, 67, 96
1, 176278, Note_off_c, 0, 73, 56
1, 176284, Control_c, 0, 67, 96
1, 176299, Control_c, 0, 67, 97
1, 176305, Note_off_c, 0, 51, 62
1, 176321, Control_c, 0, 67, 97
1, 176336, Control_c, 0, 67, 98
1, 176351, Control_c, 0, 67, 98
1, 176366, Control_c, 0, 67, 99
1, 176381, Control_c, 0, 67, 100
1, 176395, Control_c, 0, 67, 100
1, 176424, Control_c, 0, 67, 101
1, 176439, Control_c, 0, 67, 101
1, 176454, Control_c, 0, 67, 102
1, 176472, Note_on_c, 0, 76, 80
1, 176483, Control_c, 0, 67, 102
1, 176487, Note_on_c, 0, 68, 60
1, 176489, Note_on_c, 0, 52, 58
1, 176498, Note_on_c, 0, 40, 47
1, 176498, Control_c, 0, 67, 103
1, 176502, Note_on_c, 0, 64, 56
1, 176513, Control_c, 0, 64, 86
1, 176513, Control_c, 0, 67, 104
1, 176527, Note_off_c, 0, 42, 40
1, 176528, Control_c, 0, 64, 64
1, 176528, Control_c, 0, 67, 105
1, 176543, Control_c, 0, 64, 0
1, 176543, Control_c, 0, 67, 106
1, 176558, Control_c, 0, 67, 109
1, 176573, Control_c, 0, 67, 112
1, 176588, Control_c, 0, 67, 115
1, 176603, Control_c, 0, 67, 118
1, 176618, Control_c, 0, 67, 121
1, 176632, Control_c, 0, 67, 125
1, 176647, Control_c, 0, 67, 127
1, 176657, Note_off_c, 0, 75, 38
1, 176706, Control_c, 0, 64, 26
1, 176721, Control_c, 0, 64, 63
1, 176735, Note_off_c, 0, 68, 56
1, 176736, Control_c, 0, 64, 68
1, 176746, Note_on_c, 0, 69, 62
1, 176748, Note_on_c, 0, 42, 58
1, 176751, Control_c, 0, 64, 72
1, 176755, Note_off_c, 0, 40, 58
1, 176765, Control_c, 0, 64, 77
1, 176780, Control_c, 0, 64, 84
1, 176795, Control_c, 0, 64, 91
1, 176810, Control_c, 0, 64, 95
1, 176869, Control_c, 0, 64, 93
1, 176884, Control_c, 0, 64, 91
1, 176898, Control_c, 0, 64, 87
1, 176913, Control_c, 0, 64, 82
1, 176928, Control_c, 0, 64, 75
1, 176942, Control_c, 0, 64, 67
1, 176957, Control_c, 0, 64, 55
1, 176972, Control_c, 0, 64, 0
1, 177041, Note_on_c, 0, 70, 52
1, 177053, Note_off_c, 0, 42, 59
1, 177055, Note_on_c, 0, 43, 43
1, 177098, Note_off_c, 0, 69, 58
1, 177099, Note_off_c, 0, 64, 57
1, 177247, Control_c, 0, 64, 58
1, 177261, Control_c, 0, 64, 66
1, 177276, Control_c, 0, 64, 70
1, 177292, Control_c, 0, 64, 74
1, 177307, Control_c, 0, 64, 81
1, 177321, Control_c, 0, 64, 89
1, 177336, Control_c, 0, 64, 97
1, 177351, Control_c, 0, 64, 107
1, 177366, Control_c, 0, 64, 114
1, 177381, Control_c, 0, 64, 127
1, 177385, Note_on_c, 0, 75, 59
1, 177420, Note_on_c, 0, 63, 25
1, 177425, Note_on_c, 0, 51, 42
1, 177467, Note_off_c, 0, 52, 41
1, 177476, Note_off_c, 0, 76, 56
1, 177509, Note_off_c, 0, 75, 59
1, 177548, Note_off_c, 0, 43, 40
1, 177554, Note_off_c, 0, 63, 42
1, 177825, Note_on_c, 0, 71, 53
1, 177843, Note_on_c, 0, 68, 43
1, 177852, Note_on_c, 0, 47, 28
1, 177855, Note_on_c, 0, 59, 30
1, 177858, Note_on_c, 0, 44, 41
1, 177867, Note_off_c, 0, 51, 35
1, 177907, Control_c, 0, 64, 88
1, 177921, Control_c, 0, 64, 59
1, 177936, Control_c, 0, 64, 0
1, 177962, Note_off_c, 0, 70, 62
1, 177980, Control_c, 0, 64, 11
1, 177995, Note_off_c, 0, 59, 54
1, 177995, Control_c, 0, 64, 62
1, 178010, Control_c, 0, 64, 71
1, 178025, Control_c, 0, 64, 83
1, 178039, Control_c, 0, 64, 99
1, 178054, Control_c, 0, 64, 119
1, 178069, Control_c, 0, 64, 127
1, 178105, Note_on_c, 0, 73, 74
1, 178120, Note_on_c, 0, 49, 50
1, 178128, Note_off_c, 0, 71, 58
1, 178168, Note_on_c, 0, 61, 7
1, 178229, Note_off_c, 0, 61, 45
1, 178263, Control_c, 0, 67, 127
1, 178278, Control_c, 0, 67, 123
1, 178293, Control_c, 0, 67, 119
1, 178308, Control_c, 0, 67, 116
1, 178323, Control_c, 0, 67, 113
1, 178331, Note_on_c, 0, 50, 53
1, 178332, Note_on_c, 0, 74, 82
1, 178337, Control_c, 0, 67, 109
1, 178350, Note_on_c, 0, 62, 55
1, 178352, Control_c, 0, 67, 104
1, 178367, Control_c, 0, 67, 98
1, 178382, Control_c, 0, 67, 93
1, 178396, Control_c, 0, 67, 92
1, 178397, Note_off_c, 0, 50, 60
1, 178398, Note_off_c, 0, 68, 57
1, 178409, Note_off_c, 0, 62, 57
1, 178411, Control_c, 0, 67, 91
1, 178426, Control_c, 0, 67, 92
1, 178436, Note_off_c, 0, 74, 59
1, 178441, Control_c, 0, 67, 92
1, 178470, Control_c, 0, 67, 93
1, 178500, Control_c, 0, 67, 93
1, 178530, Control_c, 0, 67, 94
1, 178546, Note_on_c, 0, 76, 86
1, 178559, Control_c, 0, 67, 93
1, 178570, Note_on_c, 0, 52, 55
1, 178576, Note_on_c, 0, 64, 55
1, 178582, Control_c, 0, 67, 92
1, 178596, Control_c, 0, 67, 92
1, 178599, Note_off_c, 0, 44, 40
1, 178611, Control_c, 0, 67, 91
1, 178621, Note_off_c, 0, 52, 60
1, 178624, Note_off_c, 0, 64, 53
1, 178626, Control_c, 0, 67, 91
1, 178638, Note_off_c, 0, 76, 60
1, 178641, Control_c, 0, 67, 90
1, 178656, Control_c, 0, 67, 90
1, 178671, Control_c, 0, 67, 89
1, 178716, Control_c, 0, 67, 90
1, 178730, Control_c, 0, 67, 91
1, 178745, Control_c, 0, 67, 92
1, 178760, Control_c, 0, 67, 93
1, 178775, Control_c, 0, 67, 94
1, 178790, Control_c, 0, 67, 94
1, 178804, Control_c, 0, 67, 95
1, 178808, Note_off_c, 0, 73, 62
1, 178809, Note_off_c, 0, 47, 35
1, 178811, Note_off_c, 0, 49, 41
1, 178818, Note_on_c, 0, 78, 75
1, 178819, Control_c, 0, 67, 96
1, 178826, Note_on_c, 0, 69, 57
1, 178834, Control_c, 0, 67, 97
1, 178838, Note_on_c, 0, 66, 51
1, 178841, Note_on_c, 0, 54, 44
1, 178843, Note_on_c, 0, 42, 47
1, 178849, Control_c, 0, 67, 98
1, 178863, Control_c, 0, 67, 100
1, 178878, Control_c, 0, 64, 97
1, 178878, Control_c, 0, 67, 101
1, 178894, Control_c, 0, 64, 76
1, 178894, Control_c, 0, 67, 102
1, 178909, Control_c, 0, 64, 57
1, 178909, Control_c, 0, 67, 104
1, 178924, Control_c, 0, 64, 0
1, 178924, Control_c, 0, 67, 105
1, 178939, Control_c, 0, 67, 107
1, 178954, Control_c, 0, 67, 108
1, 178968, Control_c, 0, 67, 111
1, 178983, Control_c, 0, 67, 114
1, 178998, Control_c, 0, 67, 118
1, 179012, Control_c, 0, 64, 36
1, 179012, Control_c, 0, 67, 121
1, 179027, Control_c, 0, 64, 67
1, 179027, Control_c, 0, 67, 123
1, 179042, Control_c, 0, 64, 74
1, 179042, Control_c, 0, 67, 125
1, 179057, Control_c, 0, 64, 78
1, 179057, Control_c, 0, 67, 127
1, 179068, Note_off_c, 0, 42, 58
1, 179071, Note_on_c, 0, 43, 51
1, 179072, Control_c, 0, 64, 78
1, 179079, Note_on_c, 0, 70, 54
1, 179086, Control_c, 0, 64, 73
1, 179101, Control_c, 0, 64, 67
1, 179116, Control_c, 0, 64, 62
1, 179131, Control_c, 0, 64, 51
1, 179145, Control_c, 0, 64, 0
1, 179288, Note_off_c, 0, 43, 61
1, 179329, Note_on_c, 0, 44, 54
1, 179362, Note_on_c, 0, 71, 58
1, 179386, Note_off_c, 0, 70, 54
1, 179419, Control_c, 0, 64, 39
1, 179434, Control_c, 0, 64, 62
1, 179449, Control_c, 0, 64, 69
1, 179464, Control_c, 0, 64, 76
1, 179468, Note_off_c, 0, 78, 61
1, 179479, Control_c, 0, 64, 84
1, 179493, Control_c, 0, 64, 94
1, 179508, Control_c, 0, 64, 105
1, 179518, Note_off_c, 0, 66, 60
1, 179523, Control_c, 0, 64, 119
1, 179538, Control_c, 0, 64, 127
1, 179637, Note_on_c, 0, 76, 71
1, 179666, Note_on_c, 0, 52, 50
1, 179681, Note_off_c, 0, 54, 37
1, 179706, Note_on_c, 0, 74, 27
1, 179736, Note_off_c, 0, 44, 36
1, 179750, Note_off_c, 0, 52, 46
1, 179756, Note_off_c, 0, 71, 60
1, 179768, Note_off_c, 0, 74, 0
1, 179768, Note_on_c, 0, 74, 12
1, 179858, Note_off_c, 0, 76, 54
1, 179878, Note_off_c, 0, 69, 48
1, 180045, Note_off_c, 0, 74, 56
1, 180050, Note_on_c, 0, 76, 63
1, 180075, Note_on_c, 0, 45, 39
1, 180094, Control_c, 0, 64, 104
1, 180097, Note_on_c, 0, 69, 41
1, 180099, Note_on_c, 0, 73, 45
1, 180102, Note_on_c, 0, 64, 28
1, 180109, Control_c, 0, 64, 71
1, 180111, Note_on_c, 0, 52, 31
1, 180123, Control_c, 0, 64, 0
1, 180168, Control_c, 0, 64, 63
1, 180179, Note_off_c, 0, 73, 0
1, 180179, Note_on_c, 0, 73, 3
1, 180183, Control_c, 0, 64, 72
1, 180198, Control_c, 0, 64, 86
1, 180213, Control_c, 0, 64, 123
1, 180227, Control_c, 0, 64, 127
1, 180227, Control_c, 0, 67, 125
1, 180234, Note_off_c, 0, 73, 49
1, 180236, Note_off_c, 0, 69, 56
1, 180242, Control_c, 0, 67, 122
1, 180257, Control_c, 0, 67, 119
1, 180263, Note_off_c, 0, 64, 44
1, 180272, Control_c, 0, 67, 116
1, 180287, Control_c, 0, 67, 113
1, 180302, Control_c, 0, 67, 110
1, 180316, Control_c, 0, 67, 109
1, 180346, Control_c, 0, 67, 108
1, 180361, Control_c, 0, 67, 108
1, 180375, Control_c, 0, 67, 107
1, 180389, Note_off_c, 0, 76, 51
1, 180407, Note_off_c, 0, 52, 41
1, 180419, Note_on_c, 0, 78, 67
1, 180427, Note_on_c, 0, 54, 42
1, 180435, Control_c, 0, 67, 108
1, 180449, Control_c, 0, 67, 109
1, 180464, Control_c, 0, 67, 109
1, 180479, Control_c, 0, 67, 110
1, 180495, Control_c, 0, 67, 111
1, 180510, Control_c, 0, 67, 112
1, 180525, Control_c, 0, 67, 113
1, 180539, Control_c, 0, 67, 115
1, 180554, Control_c, 0, 67, 116
1, 180569, Control_c, 0, 67, 117
1, 180583, Control_c, 0, 67, 118
1, 180598, Control_c, 0, 67, 119
1, 180613, Control_c, 0, 67, 119
1, 180628, Control_c, 0, 67, 120
1, 180643, Control_c, 0, 67, 120
1, 180657, Control_c, 0, 67, 121
1, 180672, Control_c, 0, 67, 121
1, 180687, Control_c, 0, 67, 122
1, 180731, Control_c, 0, 67, 122
1, 180734, Note_on_c, 0, 80, 69
1, 180773, Note_on_c, 0, 56, 35
1, 180776, Control_c, 0, 67, 123
1, 180785, Note_on_c, 0, 68, 34
1, 180787, Note_off_c, 0, 54, 44
1, 180791, Control_c, 0, 67, 123
1, 180813, Control_c, 0, 67, 124
1, 180828, Control_c, 0, 67, 125
1, 180829, Note_off_c, 0, 56, 61
1, 180843, Control_c, 0, 67, 125
1, 180851, Note_off_c, 0, 68, 48
1, 180858, Control_c, 0, 67, 126
1, 180991, Note_on_c, 0, 81, 73
1, 181016, Note_on_c, 0, 57, 40
1, 181022, Note_on_c, 0, 69, 47
1, 181031, Note_off_c, 0, 78, 57
1, 181053, Note_off_c, 0, 45, 34
1, 181063, Note_off_c, 0, 69, 55
1, 181076, Note_off_c, 0, 57, 55
1, 181102, Note_off_c, 0, 81, 61
1, 181135, Note_off_c, 0, 80, 36
1, 181139, Control_c, 0, 67, 125
1, 181169, Control_c, 0, 67, 125
1, 181198, Control_c, 0, 67, 124
1, 181243, Control_c, 0, 64, 84
1, 181256, Note_on_c, 0, 83, 72
1, 181258, Control_c, 0, 64, 67
1, 181261, Note_on_c, 0, 74, 47
1, 181265, Note_on_c, 0, 76, 27
1, 181270, Note_on_c, 0, 71, 42
1, 181271, Note_on_c, 0, 59, 41
1, 181271, Note_on_c, 0, 45, 40
1, 181272, Control_c, 0, 64, 63
1, 181274, Note_on_c, 0, 52, 33
1, 181288, Control_c, 0, 64, 68
1, 181300, Note_off_c, 0, 74, 63
1, 181303, Control_c, 0, 64, 75
1, 181303, Control_c, 0, 67, 124
1, 181304, Note_off_c, 0, 76, 48
1, 181318, Control_c, 0, 64, 86
1, 181318, Control_c, 0, 67, 123
1, 181332, Note_off_c, 0, 45, 49
1, 181333, Control_c, 0, 64, 104
1, 181345, Note_off_c, 0, 52, 60
1, 181347, Control_c, 0, 64, 127
1, 181348, Note_off_c, 0, 71, 42
1, 181362, Control_c, 0, 67, 123
1, 181436, Control_c, 0, 67, 123
1, 181459, Note_off_c, 0, 59, 47
1, 181486, Note_off_c, 0, 83, 63
1, 181494, Note_on_c, 0, 85, 78
1, 181495, Control_c, 0, 67, 123
1, 181510, Control_c, 0, 67, 122
1, 181515, Note_on_c, 0, 61, 51
1, 181525, Control_c, 0, 67, 121
1, 181532, Note_on_c, 0, 73, 36
1, 181562, Control_c, 0, 67, 120
1, 181576, Note_off_c, 0, 73, 51
1, 181577, Control_c, 0, 67, 119
1, 181592, Control_c, 0, 67, 118
1, 181607, Control_c, 0, 67, 117
1, 181621, Control_c, 0, 67, 116
1, 181636, Control_c, 0, 67, 115
1, 181651, Control_c, 0, 67, 115
1, 181667, Control_c, 0, 67, 114
1, 181682, Control_c, 0, 67, 113
1, 181696, Control_c, 0, 67, 113
1, 181711, Control_c, 0, 67, 112
1, 181726, Control_c, 0, 67, 111
1, 181752, Note_on_c, 0, 86, 79
1, 181755, Control_c, 0, 67, 110
1, 181765, Note_on_c, 0, 62, 44
1, 181769, Note_on_c, 0, 74, 62
1, 181770, Control_c, 0, 67, 109
1, 181785, Control_c, 0, 67, 109
1, 181788, Note_off_c, 0, 85, 62
1, 181800, Control_c, 0, 67, 108
1, 181825, Note_off_c, 0, 74, 63
1, 181829, Control_c, 0, 67, 108
1, 181859, Control_c, 0, 67, 107
1, 181903, Control_c, 0, 67, 108
1, 181918, Control_c, 0, 67, 109
1, 181940, Note_off_c, 0, 62, 58
1, 181947, Control_c, 0, 67, 109
1, 181962, Control_c, 0, 67, 110
1, 181977, Note_on_c, 0, 87, 79
1, 181977, Control_c, 0, 67, 110
1, 181994, Note_off_c, 0, 86, 65
1, 181998, Note_on_c, 0, 63, 53
1, 182006, Note_on_c, 0, 75, 41
1, 182007, Control_c, 0, 67, 111
1, 182019, Note_off_c, 0, 61, 38
1, 182037, Control_c, 0, 67, 111
1, 182047, Note_off_c, 0, 75, 49
1, 182126, Control_c, 0, 67, 112
1, 182141, Control_c, 0, 67, 112
1, 182156, Control_c, 0, 67, 113
1, 182171, Control_c, 0, 67, 113
1, 182201, Control_c, 0, 67, 114
1, 182216, Control_c, 0, 67, 114
1, 182238, Note_off_c, 0, 63, 33
1, 182245, Control_c, 0, 67, 115
1, 182260, Control_c, 0, 67, 116
1, 182275, Control_c, 0, 67, 117
1, 182278, Note_on_c, 0, 90, 67
1, 182290, Control_c, 0, 67, 117
1, 182305, Control_c, 0, 64, 100
1, 182305, Control_c, 0, 67, 118
1, 182321, Note_on_c, 0, 81, 37
1, 182321, Note_on_c, 0, 85, 50
1, 182326, Note_on_c, 0, 57, 36
1, 182326, Note_on_c, 0, 66, 37
1, 182326, Control_c, 0, 64, 75
1, 182326, Control_c, 0, 67, 119
1, 182329, Note_on_c, 0, 78, 47
1, 182341, Control_c, 0, 64, 0
1, 182341, Control_c, 0, 67, 120
1, 182356, Control_c, 0, 67, 121
1, 182359, Note_on_c, 0, 61, 11
1, 182371, Control_c, 0, 67, 122
1, 182386, Control_c, 0, 67, 122
1, 182401, Control_c, 0, 67, 124
1, 182415, Control_c, 0, 67, 126
1, 182430, Control_c, 0, 67, 127
1, 182445, Control_c, 0, 64, 65
1, 182457, Note_off_c, 0, 90, 63
1, 182460, Control_c, 0, 64, 75
1, 182471, Note_off_c, 0, 87, 42
1, 182472, Note_off_c, 0, 78, 61
1, 182475, Control_c, 0, 64, 88
1, 182490, Control_c, 0, 64, 116
1, 182505, Control_c, 0, 64, 127
1, 182578, Note_on_c, 0, 88, 75
1, 182584, Note_off_c, 0, 85, 63
1, 182593, Note_off_c, 0, 66, 37
1, 182603, Note_on_c, 0, 64, 43
1, 182612, Note_off_c, 0, 81, 57
1, 182613, Note_on_c, 0, 76, 44
1, 182642, Note_off_c, 0, 76, 54
1, 182648, Note_off_c, 0, 61, 40
1, 182893, Note_on_c, 0, 93, 66
1, 182922, Note_off_c, 0, 88, 58
1, 182923, Note_on_c, 0, 69, 41
1, 182933, Note_off_c, 0, 93, 54
1, 182939, Note_on_c, 0, 81, 9
1, 182958, Note_off_c, 0, 64, 32
1, 182980, Note_off_c, 0, 69, 54
1, 182983, Note_off_c, 0, 81, 43
1, 183174, Note_on_c, 0, 85, 62
1, 183182, Note_off_c, 0, 57, 41
1, 183190, Note_on_c, 0, 73, 47
1, 183193, Note_on_c, 0, 61, 40
1, 183218, Note_off_c, 0, 73, 55
1, 183227, Note_off_c, 0, 61, 52
1, 183238, Note_off_c, 0, 85, 47
1, 183415, Control_c, 0, 64, 97
1, 183430, Control_c, 0, 64, 72
1, 183441, Note_on_c, 0, 85, 65
1, 183445, Control_c, 0, 64, 0
1, 183462, Note_on_c, 0, 50, 44
1, 183462, Note_on_c, 0, 73, 54
1, 183465, Note_on_c, 0, 61, 42
1, 183466, Note_on_c, 0, 81, 51
1, 183472, Note_on_c, 0, 54, 41
1, 183474, Control_c, 0, 64, 60
1, 183477, Note_on_c, 0, 78, 45
1, 183489, Control_c, 0, 64, 68
1, 183503, Control_c, 0, 64, 76
1, 183518, Control_c, 0, 64, 89
1, 183533, Control_c, 0, 64, 110
1, 183538, Note_off_c, 0, 73, 60
1, 183539, Note_off_c, 0, 85, 62
1, 183548, Control_c, 0, 64, 127
1, 183558, Note_off_c, 0, 50, 64
1, 183626, Note_off_c, 0, 81, 35
1, 183644, Note_off_c, 0, 61, 51
1, 183694, Note_on_c, 0, 83, 73
1, 183699, Note_off_c, 0, 78, 60
1, 183715, Note_off_c, 0, 54, 63
1, 183716, Note_on_c, 0, 71, 37
1, 183722, Note_on_c, 0, 59, 47
1, 183745, Note_off_c, 0, 71, 56
1, 183983, Note_on_c, 0, 88, 72
1, 183986, Control_c, 0, 64, 115
1, 184001, Control_c, 0, 64, 80
1, 184010, Note_on_c, 0, 52, 51
1, 184016, Control_c, 0, 64, 53
1, 184019, Note_on_c, 0, 80, 41
1, 184022, Note_off_c, 0, 59, 44
1, 184028, Note_off_c, 0, 83, 57
1, 184031, Control_c, 0, 64, 0
1, 184046, Control_c, 0, 64, 58
1, 184061, Control_c, 0, 64, 69
1, 184063, Poly_aftertouch_c, 0, 76, 127
1, 184076, Control_c, 0, 64, 81
1, 184082, Note_off_c, 0, 88, 61
1, 184090, Control_c, 0, 64, 103
1, 184103, Poly_aftertouch_c, 0, 64, 0
1, 184105, Control_c, 0, 64, 127
1, 184133, Note_off_c, 0, 80, 62
1, 184159, Poly_aftertouch_c, 0, 76, 0
1, 184227, Note_off_c, 0, 52, 59
1, 184319, Note_on_c, 0, 76, 61
1, 184329, Note_on_c, 0, 52, 38
1, 184341, Note_on_c, 0, 68, 40
1, 184359, Note_on_c, 0, 64, 10
1, 184359, Note_on_c, 0, 74, 33
1, 184395, Note_off_c, 0, 52, 60
1, 184395, Note_off_c, 0, 68, 58
1, 184410, Note_off_c, 0, 74, 0
1, 184410, Note_on_c, 0, 74, 9
1, 184416, Note_off_c, 0, 64, 48
1, 184452, Note_off_c, 0, 76, 45
1, 184777, Note_on_c, 0, 76, 50
1, 184789, Note_on_c, 0, 73, 48
1, 184791, Note_on_c, 0, 45, 33
1, 184814, Note_on_c, 0, 52, 28
1, 184814, Note_on_c, 0, 69, 31
1, 184820, Note_on_c, 0, 64, 37
1, 184884, Control_c, 0, 64, 108
1, 184896, Note_off_c, 0, 74, 39
1, 184899, Control_c, 0, 64, 78
1, 184913, Control_c, 0, 64, 53
1, 184928, Control_c, 0, 64, 0
1, 184943, Control_c, 0, 64, 52
1, 184958, Control_c, 0, 64, 67
1, 184973, Control_c, 0, 64, 75
1, 184982, Note_off_c, 0, 73, 61
1, 184988, Control_c, 0, 64, 86
1, 185003, Control_c, 0, 64, 110
1, 185012, Note_off_c, 0, 69, 50
1, 185018, Control_c, 0, 64, 127
1, 185031, Note_off_c, 0, 64, 60
1, 185155, Note_off_c, 0, 76, 61
1, 185191, Note_on_c, 0, 54, 44
1, 185194, Note_off_c, 0, 52, 41
1, 185196, Note_on_c, 0, 78, 55
1, 185260, Note_off_c, 0, 78, 0
1, 185260, Note_on_c, 0, 78, 32
1, 185446, Note_off_c, 0, 54, 29
1, 185529, Note_on_c, 0, 80, 56
1, 185536, Note_on_c, 0, 56, 35
1, 185557, Note_on_c, 0, 68, 33
1, 185645, Note_off_c, 0, 68, 54
1, 185675, Note_off_c, 0, 45, 41
1, 185687, Note_off_c, 0, 56, 41
1, 185781, Note_on_c, 0, 81, 61
1, 185793, Note_off_c, 0, 78, 44
1, 185808, Note_on_c, 0, 57, 30
1, 185809, Note_on_c, 0, 69, 36
1, 185849, Note_off_c, 0, 80, 40
1, 185855, Note_off_c, 0, 69, 47
1, 185860, Note_off_c, 0, 57, 49
1, 185866, Note_off_c, 0, 81, 53
1, 186048, Control_c, 0, 64, 86
1, 186058, Note_on_c, 0, 83, 59
1, 186065, Note_on_c, 0, 45, 48
1, 186066, Note_on_c, 0, 74, 44
1, 186068, Note_on_c, 0, 59, 48
1, 186070, Control_c, 0, 64, 69
1, 186073, Note_on_c, 0, 71, 40
1, 186076, Note_on_c, 0, 76, 25
1, 186083, Note_on_c, 0, 52, 31
1, 186085, Control_c, 0, 64, 64
1, 186100, Control_c, 0, 64, 68
1, 186106, Note_off_c, 0, 83, 0
1, 186106, Note_on_c, 0, 83, 17
1, 186113, Note_off_c, 0, 74, 64
1, 186115, Note_off_c, 0, 76, 49
1, 186115, Control_c, 0, 64, 73
1, 186124, Note_off_c, 0, 45, 57
1, 186130, Control_c, 0, 64, 78
1, 186134, Note_off_c, 0, 71, 63
1, 186145, Control_c, 0, 64, 87
1, 186147, Note_off_c, 0, 52, 58
1, 186159, Control_c, 0, 64, 103
1, 186174, Control_c, 0, 64, 127
1, 186300, Note_off_c, 0, 59, 37
1, 186302, Note_off_c, 0, 83, 56
1, 186303, Note_on_c, 0, 85, 69
1, 186320, Note_on_c, 0, 61, 48
1, 186353, Note_on_c, 0, 73, 7
1, 186413, Note_off_c, 0, 73, 50
1, 186556, Note_on_c, 0, 86, 69
1, 186566, Note_on_c, 0, 62, 42
1, 186568, Note_off_c, 0, 85, 56
1, 186578, Note_on_c, 0, 74, 45
1, 186611, Note_off_c, 0, 74, 58
1, 186750, Note_off_c, 0, 62, 55
1, 186808, Note_off_c, 0, 86, 59
1, 186815, Note_on_c, 0, 87, 62
1, 186828, Note_on_c, 0, 63, 42
1, 186850, Note_on_c, 0, 75, 15
1, 186864, Note_off_c, 0, 61, 40
1, 186897, Note_off_c, 0, 75, 50
1, 187068, Note_off_c, 0, 63, 33
1, 187117, Note_on_c, 0, 90, 66
1, 187146, Control_c, 0, 64, 98
1, 187146, Note_on_c, 0, 66, 37
1, 187147, Note_on_c, 0, 57, 36
1, 187151, Note_on_c, 0, 81, 39
1, 187154, Note_on_c, 0, 85, 47
1, 187160, Control_c, 0, 64, 73
1, 187165, Note_on_c, 0, 78, 34
1, 187175, Control_c, 0, 64, 21
1, 187179, Note_on_c, 0, 61, 14
1, 187190, Control_c, 0, 64, 0
1, 187234, Control_c, 0, 64, 57
1, 187249, Control_c, 0, 64, 67
1, 187264, Control_c, 0, 64, 79
1, 187268, Note_off_c, 0, 87, 18
1, 187278, Control_c, 0, 64, 99
1, 187284, Note_off_c, 0, 90, 62
1, 187293, Control_c, 0, 64, 127
1, 187309, Note_off_c, 0, 78, 60
1, 187410, Note_off_c, 0, 66, 42
1, 187414, Note_off_c, 0, 85, 62
1, 187423, Note_on_c, 0, 88, 71
1, 187437, Note_off_c, 0, 81, 56
1, 187438, Note_on_c, 0, 64, 37
1, 187463, Note_on_c, 0, 76, 22
1, 187468, Note_off_c, 0, 61, 40
1, 187505, Note_off_c, 0, 76, 51
1, 187552, Control_c, 0, 67, 125
1, 187567, Control_c, 0, 67, 116
1, 187582, Control_c, 0, 67, 105
1, 187597, Control_c, 0, 67, 100
1, 187612, Control_c, 0, 67, 99
1, 187641, Control_c, 0, 67, 98
1, 187656, Control_c, 0, 67, 97
1, 187687, Control_c, 0, 67, 97
1, 187717, Control_c, 0, 67, 98
1, 187731, Control_c, 0, 67, 98
1, 187733, Note_on_c, 0, 93, 66
1, 187746, Control_c, 0, 67, 99
1, 187753, Note_on_c, 0, 69, 48
1, 187759, Note_off_c, 0, 88, 56
1, 187761, Control_c, 0, 67, 100
1, 187776, Control_c, 0, 67, 101
1, 187778, Note_off_c, 0, 64, 43
1, 187785, Note_off_c, 0, 93, 62
1, 187790, Control_c, 0, 67, 102
1, 187805, Control_c, 0, 67, 104
1, 187820, Control_c, 0, 67, 106
1, 187835, Control_c, 0, 67, 109
1, 187850, Note_off_c, 0, 69, 37
1, 187850, Control_c, 0, 67, 112
1, 187865, Control_c, 0, 67, 116
1, 187879, Control_c, 0, 67, 121
1, 187894, Control_c, 0, 67, 126
1, 187909, Control_c, 0, 67, 127
1, 188045, Note_on_c, 0, 85, 66
1, 188067, Note_off_c, 0, 57, 41
1, 188070, Note_on_c, 0, 61, 42
1, 188099, Note_off_c, 0, 61, 57
1, 188145, Poly_aftertouch_c, 0, 73, 0
1, 188201, Note_off_c, 0, 85, 46
1, 188432, Note_on_c, 0, 85, 58
1, 188437, Note_on_c, 0, 81, 45
1, 188453, Note_on_c, 0, 50, 39
1, 188454, Note_on_c, 0, 73, 42
1, 188468, Note_on_c, 0, 61, 32
1, 188470, Note_on_c, 0, 78, 38
1, 188475, Note_on_c, 0, 54, 32
1, 188494, Control_c, 0, 64, 99
1, 188509, Control_c, 0, 64, 74
1, 188523, Control_c, 0, 64, 51
1, 188538, Control_c, 0, 64, 19
1, 188553, Control_c, 0, 64, 59
1, 188568, Control_c, 0, 64, 70
1, 188583, Control_c, 0, 64, 80
1, 188598, Control_c, 0, 64, 97
1, 188613, Control_c, 0, 64, 127
1, 188656, Note_off_c, 0, 50, 37
1, 188696, Note_off_c, 0, 85, 61
1, 188714, Note_off_c, 0, 73, 61
1, 188838, Note_off_c, 0, 61, 42
1, 188855, Note_off_c, 0, 81, 36
1, 188888, Note_on_c, 0, 83, 61
1, 188904, Note_off_c, 0, 54, 45
1, 188906, Note_on_c, 0, 59, 38
1, 188907, Note_on_c, 0, 71, 36
1, 188936, Note_off_c, 0, 71, 55
1, 188962, Note_off_c, 0, 78, 44
1, 189221, Note_on_c, 0, 88, 59
1, 189242, Control_c, 0, 64, 103
1, 189248, Note_off_c, 0, 83, 62
1, 189253, Note_on_c, 0, 64, 35
1, 189257, Note_on_c, 0, 52, 42
1, 189257, Control_c, 0, 64, 79
1, 189263, Note_on_c, 0, 80, 49
1, 189273, Control_c, 0, 64, 64
1, 189275, Note_on_c, 0, 76, 16
1, 189288, Control_c, 0, 64, 56
1, 189302, Control_c, 0, 64, 63
1, 189317, Control_c, 0, 64, 69
1, 189323, Note_off_c, 0, 88, 60
1, 189332, Control_c, 0, 64, 78
1, 189346, Note_off_c, 0, 76, 48
1, 189346, Control_c, 0, 64, 90
1, 189361, Control_c, 0, 64, 111
1, 189365, Note_off_c, 0, 64, 37
1, 189376, Control_c, 0, 64, 127
1, 189400, Note_off_c, 0, 80, 61
1, 189527, Note_off_c, 0, 59, 46
1, 189546, Note_on_c, 0, 80, 59
1, 189547, Note_off_c, 0, 52, 41
1, 189568, Note_on_c, 0, 62, 43
1, 189569, Note_on_c, 0, 68, 39
1, 189614, Note_off_c, 0, 68, 47
1, 189939, Note_on_c, 0, 81, 57
1, 189943, Note_off_c, 0, 80, 59
1, 189955, Note_on_c, 0, 57, 36
1, 189957, Note_on_c, 0, 61, 45
1, 189960, Control_c, 0, 64, 112
1, 189975, Control_c, 0, 64, 81
1, 189979, Note_on_c, 0, 76, 38
1, 189980, Note_on_c, 0, 69, 30
1, 189990, Control_c, 0, 64, 60
1, 190005, Control_c, 0, 64, 0
1, 190014, Note_off_c, 0, 62, 40
1, 190080, Control_c, 0, 64, 63
1, 190094, Control_c, 0, 64, 74
1, 190109, Control_c, 0, 64, 88
1, 190124, Control_c, 0, 64, 118
1, 190139, Control_c, 0, 64, 127
1, 190139, Control_c, 0, 67, 124
1, 190154, Control_c, 0, 67, 118
1, 190164, Note_off_c, 0, 69, 45
1, 190169, Control_c, 0, 67, 113
1, 190178, Note_off_c, 0, 76, 45
1, 190184, Control_c, 0, 67, 111
1, 190199, Control_c, 0, 67, 109
1, 190213, Control_c, 0, 67, 106
1, 190228, Control_c, 0, 67, 104
1, 190243, Control_c, 0, 67, 103
1, 190258, Control_c, 0, 67, 103
1, 190317, Control_c, 0, 67, 104
1, 190332, Control_c, 0, 67, 104
1, 190347, Control_c, 0, 67, 105
1, 190362, Control_c, 0, 67, 105
1, 190391, Control_c, 0, 67, 106
1, 190399, Note_on_c, 0, 85, 68
1, 190406, Control_c, 0, 67, 106
1, 190420, Note_on_c, 0, 76, 39
1, 190421, Control_c, 0, 67, 107
1, 190432, Note_on_c, 0, 69, 38
1, 190436, Control_c, 0, 67, 107
1, 190437, Note_on_c, 0, 73, 34
1, 190450, Control_c, 0, 67, 108
1, 190465, Control_c, 0, 67, 108
1, 190480, Control_c, 0, 67, 109
1, 190494, Control_c, 0, 67, 109
1, 190509, Control_c, 0, 67, 110
1, 190517, Note_off_c, 0, 73, 39
1, 190524, Control_c, 0, 67, 111
1, 190532, Note_off_c, 0, 85, 57
1, 190539, Control_c, 0, 67, 111
1, 190551, Note_off_c, 0, 76, 41
1, 190562, Control_c, 0, 67, 112
1, 190576, Control_c, 0, 67, 112
1, 190591, Control_c, 0, 67, 113
1, 190606, Control_c, 0, 67, 114
1, 190621, Control_c, 0, 67, 114
1, 190636, Control_c, 0, 67, 115
1, 190650, Control_c, 0, 67, 116
1, 190665, Control_c, 0, 67, 117
1, 190680, Control_c, 0, 67, 118
1, 190695, Control_c, 0, 67, 119
1, 190709, Control_c, 0, 67, 121
1, 190724, Control_c, 0, 67, 123
1, 190739, Control_c, 0, 67, 125
1, 190754, Control_c, 0, 67, 127
1, 190765, Note_off_c, 0, 69, 42
1, 190769, Control_c, 0, 67, 127
1, 190780, Note_on_c, 0, 83, 67
1, 190795, Note_on_c, 0, 75, 53
1, 190798, Note_on_c, 0, 66, 43
1, 190807, Note_off_c, 0, 81, 40
1, 190819, Note_on_c, 0, 71, 32
1, 190848, Note_off_c, 0, 75, 58
1, 190851, Note_off_c, 0, 71, 53
1, 190986, Note_off_c, 0, 66, 32
1, 191064, Note_on_c, 0, 80, 68
1, 191087, Note_on_c, 0, 68, 45
1, 191089, Note_on_c, 0, 65, 41
1, 191101, Note_on_c, 0, 74, 34
1, 191129, Note_off_c, 0, 83, 42
1, 191130, Note_off_c, 0, 68, 55
1, 191134, Note_off_c, 0, 74, 54
1, 191265, Note_off_c, 0, 65, 34
1, 191340, Control_c, 0, 64, 109
1, 191343, Note_on_c, 0, 81, 66
1, 191349, Note_on_c, 0, 73, 58
1, 191355, Control_c, 0, 64, 79
1, 191363, Note_on_c, 0, 64, 37
1, 191367, Note_off_c, 0, 61, 37
1, 191368, Note_off_c, 0, 80, 57
1, 191370, Note_on_c, 0, 69, 43
1, 191370, Control_c, 0, 64, 57
1, 191385, Control_c, 0, 64, 0
1, 191400, Control_c, 0, 64, 43
1, 191415, Control_c, 0, 64, 64
1, 191421, Note_off_c, 0, 69, 62
1, 191430, Control_c, 0, 64, 73
1, 191432, Note_off_c, 0, 73, 62
1, 191445, Control_c, 0, 64, 87
1, 191459, Control_c, 0, 64, 127
1, 191578, Control_c, 0, 64, 113
1, 191587, Note_off_c, 0, 64, 60
1, 191593, Control_c, 0, 64, 81
1, 191607, Control_c, 0, 64, 68
1, 191609, Note_on_c, 0, 63, 40
1, 191614, Note_on_c, 0, 72, 52
1, 191620, Note_on_c, 0, 78, 53
1, 191622, Control_c, 0, 64, 73
1, 191628, Note_on_c, 0, 66, 46
1, 191637, Control_c, 0, 64, 83
1, 191651, Control_c, 0, 64, 104
1, 191652, Note_off_c, 0, 81, 38
1, 191668, Control_c, 0, 64, 127
1, 191680, Note_off_c, 0, 78, 51
1, 191683, Note_off_c, 0, 72, 59
1, 191732, Note_off_c, 0, 66, 60
1, 191829, Note_off_c, 0, 63, 37
1, 191860, Control_c, 0, 64, 98
1, 191874, Control_c, 0, 64, 75
1, 191886, Note_on_c, 0, 76, 54
1, 191888, Note_on_c, 0, 71, 44
1, 191889, Control_c, 0, 64, 67
1, 191900, Note_on_c, 0, 64, 36
1, 191903, Note_on_c, 0, 62, 39
1, 191904, Control_c, 0, 64, 73
1, 191919, Control_c, 0, 64, 84
1, 191934, Control_c, 0, 64, 106
1, 191948, Control_c, 0, 64, 127
1, 191984, Note_off_c, 0, 64, 40
1, 192053, Note_off_c, 0, 62, 36
1, 192090, Note_off_c, 0, 57, 42
1, 192141, Note_on_c, 0, 74, 62
1, 192154, Note_on_c, 0, 59, 40
1, 192158, Note_on_c, 0, 68, 48
1, 192174, Note_off_c, 0, 76, 48
1, 192186, Note_off_c, 0, 59, 59
1, 192186, Note_off_c, 0, 71, 33
1, 192195, Note_on_c, 0, 62, 11
1, 192235, Note_off_c, 0, 68, 60
1, 192246, Note_off_c, 0, 62, 50
1, 192416, Control_c, 0, 64, 112
1, 192428, Note_on_c, 0, 73, 64
1, 192430, Control_c, 0, 64, 81
1, 192436, Note_off_c, 0, 74, 62
1, 192442, Note_on_c, 0, 69, 43
1, 192445, Control_c, 0, 64, 63
1, 192451, Note_on_c, 0, 45, 41
1, 192459, Note_on_c, 0, 61, 40
1, 192460, Control_c, 0, 64, 55
1, 192476, Control_c, 0, 64, 65
1, 192491, Control_c, 0, 64, 72
1, 192497, Note_off_c, 0, 69, 62
1, 192505, Control_c, 0, 64, 81
1, 192520, Control_c, 0, 64, 100
1, 192535, Control_c, 0, 64, 127
1, 192584, Note_off_c, 0, 73, 61
1, 192613, Note_off_c, 0, 61, 41
1, 192683, Control_c, 0, 64, 95
1, 192695, Note_on_c, 0, 73, 68
1, 192697, Control_c, 0, 64, 77
1, 192701, Note_on_c, 0, 64, 48
1, 192711, Note_on_c, 0, 55, 42
1, 192712, Control_c, 0, 64, 74
1, 192714, Note_on_c, 0, 61, 35
1, 192727, Control_c, 0, 64, 82
1, 192742, Control_c, 0, 64, 98
1, 192757, Control_c, 0, 64, 127
1, 192799, Note_off_c, 0, 64, 55
1, 192800, Note_off_c, 0, 73, 61
1, 192846, Note_off_c, 0, 61, 49
1, 192942, Control_c, 0, 64, 126
1, 192949, Note_off_c, 0, 55, 58
1, 192956, Note_on_c, 0, 71, 72
1, 192957, Control_c, 0, 64, 83
1, 192965, Note_on_c, 0, 63, 56
1, 192971, Control_c, 0, 64, 65
1, 192972, Note_on_c, 0, 54, 42
1, 192980, Note_on_c, 0, 59, 41
1, 192986, Control_c, 0, 64, 60
1, 193001, Control_c, 0, 64, 68
1, 193016, Control_c, 0, 64, 79
1, 193019, Note_off_c, 0, 59, 61
1, 193031, Control_c, 0, 64, 100
1, 193045, Control_c, 0, 64, 127
1, 193047, Note_off_c, 0, 63, 60
1, 193194, Control_c, 0, 64, 102
1, 193209, Control_c, 0, 64, 78
1, 193211, Note_off_c, 0, 54, 51
1, 193216, Note_on_c, 0, 68, 66
1, 193223, Control_c, 0, 64, 64
1, 193224, Note_on_c, 0, 62, 46
1, 193227, Note_on_c, 0, 56, 49
1, 193230, Note_on_c, 0, 53, 41
1, 193238, Control_c, 0, 64, 64
1, 193253, Control_c, 0, 64, 71
1, 193269, Control_c, 0, 64, 83
1, 193270, Note_off_c, 0, 62, 60
1, 193281, Note_off_c, 0, 56, 61
1, 193284, Control_c, 0, 64, 104
1, 193290, Note_off_c, 0, 71, 41
1, 193299, Control_c, 0, 64, 127
1, 193472, Note_off_c, 0, 53, 58
1, 193491, Control_c, 0, 64, 95
1, 193495, Note_on_c, 0, 69, 63
1, 193504, Note_on_c, 0, 61, 45
1, 193506, Control_c, 0, 64, 69
1, 193508, Note_on_c, 0, 52, 38
1, 193513, Note_on_c, 0, 57, 38
1, 193516, Note_off_c, 0, 68, 50
1, 193520, Control_c, 0, 64, 38
1, 193535, Control_c, 0, 64, 46
1, 193558, Control_c, 0, 64, 64
1, 193573, Control_c, 0, 64, 73
1, 193578, Note_off_c, 0, 57, 60
1, 193585, Note_off_c, 0, 61, 59
1, 193588, Control_c, 0, 64, 86
1, 193602, Control_c, 0, 64, 121
1, 193617, Control_c, 0, 64, 127
1, 193734, Control_c, 0, 64, 114
1, 193749, Control_c, 0, 64, 83
1, 193764, Note_off_c, 0, 52, 55
1, 193764, Control_c, 0, 64, 68
1, 193766, Note_on_c, 0, 66, 58
1, 193779, Control_c, 0, 64, 65
1, 193782, Note_on_c, 0, 51, 45
1, 193783, Note_on_c, 0, 54, 48
1, 193784, Note_on_c, 0, 60, 48
1, 193794, Control_c, 0, 64, 73
1, 193808, Control_c, 0, 64, 84
1, 193823, Control_c, 0, 64, 106
1, 193829, Note_off_c, 0, 69, 38
1, 193838, Control_c, 0, 64, 127
1, 193863, Note_off_c, 0, 66, 60
1, 193883, Note_off_c, 0, 60, 58
1, 193896, Note_off_c, 0, 54, 62
1, 194016, Control_c, 0, 64, 93
1, 194031, Control_c, 0, 64, 72
1, 194032, Note_off_c, 0, 51, 61
1, 194038, Note_on_c, 0, 64, 52
1, 194045, Control_c, 0, 64, 60
1, 194047, Note_on_c, 0, 59, 44
1, 194057, Note_on_c, 0, 52, 36
1, 194062, Note_on_c, 0, 50, 45
1, 194062, Control_c, 0, 64, 62
1, 194077, Control_c, 0, 64, 68
1, 194091, Control_c, 0, 64, 79
1, 194106, Control_c, 0, 64, 95
1, 194121, Control_c, 0, 64, 127
1, 194135, Note_off_c, 0, 52, 38
1, 194197, Note_off_c, 0, 50, 55
1, 194268, Control_c, 0, 64, 105
1, 194283, Control_c, 0, 64, 79
1, 194306, Control_c, 0, 64, 61
1, 194321, Control_c, 0, 64, 0
1, 194324, Note_on_c, 0, 62, 52
1, 194325, Note_off_c, 0, 45, 49
1, 194336, Note_on_c, 0, 50, 45
1, 194342, Note_on_c, 0, 56, 47
1, 194345, Note_off_c, 0, 59, 37
1, 194349, Note_on_c, 0, 47, 40
1, 194350, Control_c, 0, 64, 60
1, 194360, Note_off_c, 0, 64, 56
1, 194365, Control_c, 0, 64, 71
1, 194380, Control_c, 0, 64, 83
1, 194396, Control_c, 0, 64, 101
1, 194411, Control_c, 0, 64, 127
1, 194454, Note_off_c, 0, 50, 59
1, 194462, Note_off_c, 0, 56, 52
1, 194617, Control_c, 0, 64, 110
1, 194632, Control_c, 0, 64, 95
1, 194633, Note_on_c, 0, 49, 53
1, 194643, Note_on_c, 0, 61, 56
1, 194647, Control_c, 0, 64, 82
1, 194649, Note_off_c, 0, 62, 48
1, 194652, Note_on_c, 0, 57, 45
1, 194655, Note_on_c, 0, 45, 45
1, 194661, Control_c, 0, 64, 72
1, 194666, Note_off_c, 0, 47, 43
1, 194676, Control_c, 0, 64, 65
1, 194691, Control_c, 0, 64, 60
1, 194706, Control_c, 0, 64, 57
1, 194721, Control_c, 0, 64, 55
1, 194726, Note_off_c, 0, 57, 59
1, 194736, Control_c, 0, 64, 53
1, 194750, Control_c, 0, 64, 48
1, 194765, Control_c, 0, 64, 40
1, 194780, Control_c, 0, 64, 30
1, 194795, Control_c, 0, 64, 23
1, 194810, Control_c, 0, 64, 0
1, 194923, Note_on_c, 0, 40, 44
1, 194923, Note_on_c, 0, 64, 55
1, 194924, Note_on_c, 0, 52, 51
1, 194930, Note_on_c, 0, 56, 46
1, 194998, Note_off_c, 0, 61, 35
1, 195012, Note_off_c, 0, 45, 35
1, 195026, Note_off_c, 0, 56, 55
1, 195047, Note_off_c, 0, 49, 59
1, 195207, Note_on_c, 0, 61, 56
1, 195222, Note_on_c, 0, 49, 46
1, 195225, Note_on_c, 0, 57, 43
1, 195235, Note_on_c, 0, 45, 37
1, 195278, Note_off_c, 0, 64, 52
1, 195299, Note_off_c, 0, 57, 58
1, 195332, Note_off_c, 0, 40, 55
1, 195332, Note_off_c, 0, 52, 38
1, 195508, Note_on_c, 0, 64, 52
1, 195511, Note_on_c, 0, 40, 32
1, 195511, Note_on_c, 0, 56, 44
1, 195514, Note_on_c, 0, 52, 40
1, 195546, Note_off_c, 0, 61, 47
1, 195560, Note_off_c, 0, 56, 58
1, 195562, Note_off_c, 0, 45, 51
1, 195562, Note_off_c, 0, 49, 37
1, 195796, Note_on_c, 0, 61, 44
1, 195799, Note_on_c, 0, 49, 42
1, 195799, Note_on_c, 0, 57, 38
1, 195812, Note_on_c, 0, 45, 31
1, 195838, Note_off_c, 0, 64, 48
1, 195853, Note_off_c, 0, 57, 55
1, 195878, Note_off_c, 0, 40, 43
1, 195901, Note_off_c, 0, 52, 38
1, 196093, Note_on_c, 0, 40, 35
1, 196099, Note_on_c, 0, 56, 32
1, 196099, Note_on_c, 0, 64, 44
1, 196108, Note_on_c, 0, 52, 35
1, 196131, Note_off_c, 0, 49, 42
1, 196134, Note_off_c, 0, 45, 44
1, 196157, Note_off_c, 0, 56, 48
1, 196163, Note_off_c, 0, 61, 37
1, 196384, Note_on_c, 0, 45, 34
1, 196391, Note_on_c, 0, 49, 38
1, 196396, Note_on_c, 0, 57, 26
1, 196397, Note_on_c, 0, 61, 40
1, 196405, Note_off_c, 0, 64, 48
1, 196414, Note_off_c, 0, 40, 48
1, 196436, Note_off_c, 0, 57, 54
1, 196452, Note_off_c, 0, 52, 41
1, 196631, Note_off_c, 0, 49, 45
1, 196642, Control_c, 0, 64, 47
1, 196657, Control_c, 0, 64, 62
1, 196671, Control_c, 0, 64, 65
1, 196682, Note_on_c, 0, 40, 70
1, 196682, Note_off_c, 0, 45, 58
1, 196686, Control_c, 0, 64, 68
1, 196701, Control_c, 0, 64, 70
1, 196703, Note_on_c, 0, 64, 26
1, 196716, Control_c, 0, 64, 72
1, 196731, Control_c, 0, 64, 73
1, 196739, Note_off_c, 0, 61, 50
1, 196740, Note_off_c, 0, 64, 45
1, 196741, Note_on_c, 0, 52, 5
1, 196743, Note_on_c, 0, 56, 43
1, 196743, Note_off_c, 0, 40, 62
1, 196745, Control_c, 0, 64, 75
1, 196760, Control_c, 0, 64, 76
1, 196804, Note_off_c, 0, 52, 39
1, 196819, Control_c, 0, 64, 76
1, 196849, Control_c, 0, 64, 76
1, 196891, Note_off_c, 0, 56, 60
1, 196909, Control_c, 0, 64, 75
1, 196923, Control_c, 0, 64, 74
1, 196938, Control_c, 0, 64, 71
1, 196953, Control_c, 0, 64, 66
1, 196956, Note_on_c, 0, 33, 73
1, 196968, Control_c, 0, 64, 61
1, 196983, Control_c, 0, 64, 40
1, 196985, Note_on_c, 0, 61, 43
1, 196995, Note_on_c, 0, 57, 40
1, 196998, Control_c, 0, 64, 0
1, 197003, Note_on_c, 0, 49, 44
1, 197010, Note_off_c, 0, 33, 57
1, 197247, Note_on_c, 0, 40, 69
1, 197278, Note_off_c, 0, 40, 65
1, 197542, Note_on_c, 0, 33, 59
1, 197575, Note_off_c, 0, 33, 61
1, 197835, Note_on_c, 0, 40, 59
1, 197868, Note_off_c, 0, 40, 64
1, 198125, Control_c, 0, 64, 45
1, 198140, Control_c, 0, 64, 63
1, 198155, Control_c, 0, 64, 68
1, 198170, Control_c, 0, 64, 73
1, 198184, Control_c, 0, 64, 78
1, 198199, Control_c, 0, 64, 83
1, 198208, Note_on_c, 0, 33, 46
1, 198214, Control_c, 0, 64, 90
1, 198229, Control_c, 0, 64, 100
1, 198244, Control_c, 0, 64, 115
1, 198258, Control_c, 0, 64, 127
1, 198266, Note_off_c, 0, 33, 53
1, 198651, Note_off_c, 0, 49, 42
1, 198690, Note_on_c, 0, 33, 53
1, 198726, Note_off_c, 0, 57, 56
1, 198733, Note_off_c, 0, 33, 56
1, 198822, Note_off_c, 0, 61, 41
1, 198854, Note_on_c, 0, 33, 49
1, 199170, Control_c, 0, 64, 117
1, 199178, Note_off_c, 0, 33, 55
1, 199185, Control_c, 0, 64, 88
1, 199197, Note_on_c, 0, 32, 49
1, 199199, Note_on_c, 0, 57, 56
1, 199200, Control_c, 0, 64, 69
1, 199201, Note_on_c, 0, 66, 55
1, 199214, Control_c, 0, 64, 0
1, 199231, Note_off_c, 0, 66, 64
1, 199233, Note_off_c, 0, 57, 64
1, 199327, Note_on_c, 0, 68, 64
1, 199331, Note_on_c, 0, 57, 47
1, 199355, Note_off_c, 0, 68, 64
1, 199359, Note_off_c, 0, 57, 57
1, 199456, Note_off_c, 0, 32, 52
1, 199493, Note_on_c, 0, 30, 62
1, 199501, Note_on_c, 0, 69, 65
1, 199502, Note_on_c, 0, 57, 54
1, 199511, Control_c, 0, 64, 71
1, 199532, Note_off_c, 0, 30, 61
1, 199532, Note_off_c, 0, 69, 69
1, 199532, Control_c, 0, 64, 87
1, 199536, Note_off_c, 0, 57, 64
1, 199547, Control_c, 0, 64, 127
1, 199717, Note_on_c, 0, 42, 76
1, 199726, Note_on_c, 0, 49, 59
1, 199729, Note_on_c, 0, 57, 68
1, 199740, Note_on_c, 0, 69, 56
1, 199741, Control_c, 0, 64, 96
1, 199745, Note_off_c, 0, 42, 64
1, 199753, Note_off_c, 0, 57, 65
1, 199755, Note_off_c, 0, 49, 64
1, 199756, Control_c, 0, 64, 73
1, 199764, Note_off_c, 0, 69, 58
1, 199770, Control_c, 0, 64, 0
1, 199813, Note_on_c, 0, 49, 75
1, 199814, Note_on_c, 0, 42, 67
1, 199818, Note_on_c, 0, 59, 76
1, 199827, Note_on_c, 0, 69, 65
1, 199842, Note_off_c, 0, 49, 65
1, 199842, Note_off_c, 0, 59, 65
1, 199845, Note_off_c, 0, 42, 64
1, 199849, Note_off_c, 0, 69, 65
1, 199910, Note_on_c, 0, 42, 79
1, 199910, Note_on_c, 0, 49, 70
1, 199917, Note_on_c, 0, 69, 68
1, 199919, Control_c, 0, 64, 65
1, 199926, Note_on_c, 0, 61, 78
1, 199934, Control_c, 0, 64, 83
1, 199941, Note_off_c, 0, 49, 66
1, 199943, Note_off_c, 0, 42, 63
1, 199947, Note_off_c, 0, 69, 64
1, 199949, Control_c, 0, 64, 103
1, 199949, Note_off_c, 0, 61, 67
1, 199963, Control_c, 0, 64, 109
1, 199978, Control_c, 0, 64, 93
1, 199993, Control_c, 0, 64, 77
1, 200008, Control_c, 0, 64, 62
1, 200023, Control_c, 0, 64, 0
1, 200116, Note_on_c, 0, 42, 72
1, 200125, Note_on_c, 0, 61, 72
1, 200125, Note_on_c, 0, 69, 69
1, 200130, Note_on_c, 0, 49, 59
1, 200146, Note_off_c, 0, 42, 63
1, 200151, Note_off_c, 0, 61, 65
1, 200152, Note_off_c, 0, 69, 68
1, 200155, Note_off_c, 0, 49, 60
1, 200200, Note_on_c, 0, 44, 73
1, 200207, Note_on_c, 0, 61, 76
1, 200221, Note_on_c, 0, 69, 62
1, 200224, Note_off_c, 0, 44, 66
1, 200230, Note_off_c, 0, 61, 66
1, 200241, Note_off_c, 0, 69, 65
1, 200254, Note_on_c, 0, 49, 3
1, 200292, Note_off_c, 0, 49, 0
1, 200292, Note_on_c, 0, 49, 26
1, 200292, Note_on_c, 0, 45, 85
1, 200299, Note_on_c, 0, 61, 76
1, 200302, Note_on_c, 0, 69, 79
1, 200311, Control_c, 0, 64, 70
1, 200317, Note_off_c, 0, 45, 69
1, 200322, Note_off_c, 0, 69, 69
1, 200324, Note_off_c, 0, 61, 68
1, 200326, Control_c, 0, 64, 86
1, 200331, Note_off_c, 0, 49, 58
1, 200341, Control_c, 0, 64, 88
1, 200355, Control_c, 0, 64, 74
1, 200370, Control_c, 0, 64, 48
1, 200385, Control_c, 0, 64, 0
1, 200485, Note_on_c, 0, 49, 70
1, 200490, Note_on_c, 0, 45, 67
1, 200495, Note_on_c, 0, 61, 76
1, 200507, Note_on_c, 0, 69, 57
1, 200518, Note_off_c, 0, 61, 67
1, 200518, Note_off_c, 0, 49, 66
1, 200521, Note_off_c, 0, 45, 62
1, 200527, Note_off_c, 0, 69, 62
1, 200565, Note_on_c, 0, 50, 79
1, 200577, Note_on_c, 0, 61, 72
1, 200587, Note_on_c, 0, 69, 67
1, 200594, Note_off_c, 0, 50, 70
1, 200604, Note_off_c, 0, 61, 66
1, 200613, Note_off_c, 0, 69, 69
1, 200662, Note_on_c, 0, 52, 76
1, 200665, Note_on_c, 0, 61, 74
1, 200668, Control_c, 0, 64, 53
1, 200676, Note_on_c, 0, 45, 3
1, 200682, Note_on_c, 0, 69, 62
1, 200682, Control_c, 0, 64, 88
1, 200688, Note_off_c, 0, 52, 66
1, 200692, Note_off_c, 0, 61, 65
1, 200697, Note_off_c, 0, 45, 56
1, 200697, Control_c, 0, 64, 127
1, 200703, Note_off_c, 0, 69, 62
1, 200742, Control_c, 0, 64, 96
1, 200757, Control_c, 0, 64, 73
1, 200772, Control_c, 0, 64, 0
1, 200798, Note_on_c, 0, 70, 25
1, 200831, Note_off_c, 0, 70, 46
1, 200855, Note_on_c, 0, 45, 74
1, 200861, Note_on_c, 0, 69, 77
1, 200872, Note_on_c, 0, 52, 56
1, 200876, Note_on_c, 0, 61, 59
1, 200885, Note_off_c, 0, 45, 68
1, 200885, Note_off_c, 0, 69, 68
1, 200899, Note_off_c, 0, 52, 57
1, 200900, Note_off_c, 0, 61, 59
1, 200948, Note_on_c, 0, 45, 73
1, 200948, Note_on_c, 0, 71, 79
1, 200963, Note_on_c, 0, 52, 65
1, 200966, Note_off_c, 0, 71, 72
1, 200972, Note_off_c, 0, 45, 67
1, 200985, Note_off_c, 0, 52, 62
1, 201034, Note_on_c, 0, 73, 100
1, 201034, Note_on_c, 0, 45, 85
1, 201041, Note_on_c, 0, 61, 70
1, 201045, Control_c, 0, 64, 83
1, 201047, Note_on_c, 0, 52, 77
1, 201060, Control_c, 0, 64, 127
1, 201064, Note_off_c, 0, 45, 66
1, 201065, Note_off_c, 0, 61, 66
1, 201075, Note_off_c, 0, 73, 63
1, 201076, Note_off_c, 0, 52, 64
1, 201192, Control_c, 0, 64, 105
1, 201207, Control_c, 0, 64, 75
1, 201222, Control_c, 0, 64, 0
1, 201228, Note_on_c, 0, 52, 70
1, 201238, Note_on_c, 0, 45, 59
1, 201240, Note_on_c, 0, 73, 75
1, 201256, Note_off_c, 0, 52, 64
1, 201258, Note_on_c, 0, 61, 49
1, 201259, Note_off_c, 0, 45, 64
1, 201265, Note_off_c, 0, 73, 69
1, 201285, Note_off_c, 0, 61, 36
1, 201302, Note_on_c, 0, 52, 78
1, 201319, Note_on_c, 0, 73, 80
1, 201326, Note_on_c, 0, 45, 55
1, 201331, Note_off_c, 0, 52, 65
1, 201338, Note_off_c, 0, 73, 70
1, 201354, Note_off_c, 0, 45, 57
1, 201397, Note_on_c, 0, 73, 93
1, 201407, Note_on_c, 0, 45, 73
1, 201410, Note_on_c, 0, 71, 82
1, 201414, Note_on_c, 0, 62, 73
1, 201415, Note_on_c, 0, 54, 77
1, 201416, Control_c, 0, 64, 67
1, 201431, Control_c, 0, 64, 97
1, 201440, Note_off_c, 0, 45, 64
1, 201441, Note_off_c, 0, 62, 66
1, 201446, Control_c, 0, 64, 127
1, 201449, Note_off_c, 0, 54, 63
1, 201471, Note_off_c, 0, 73, 55
1, 201493, Note_off_c, 0, 71, 58
1, 201564, Control_c, 0, 64, 122
1, 201574, Note_on_c, 0, 45, 72
1, 201579, Control_c, 0, 64, 81
1, 201584, Note_on_c, 0, 73, 80
1, 201585, Note_on_c, 0, 56, 73
1, 201594, Control_c, 0, 64, 0
1, 201599, Note_on_c, 0, 62, 58
1, 201607, Note_off_c, 0, 45, 67
1, 201611, Note_off_c, 0, 56, 67
1, 201615, Note_off_c, 0, 73, 56
1, 201621, Note_off_c, 0, 62, 61
1, 201659, Note_on_c, 0, 56, 82
1, 201660, Note_on_c, 0, 45, 75
1, 201670, Note_on_c, 0, 73, 74
1, 201684, Note_off_c, 0, 56, 69
1, 201686, Note_off_c, 0, 45, 66
1, 201737, Note_on_c, 0, 45, 89
1, 201742, Note_on_c, 0, 57, 94
1, 201745, Note_on_c, 0, 69, 82
1, 201756, Note_off_c, 0, 73, 58
1, 201756, Control_c, 0, 64, 43
1, 201771, Control_c, 0, 64, 0
1, 201785, Note_off_c, 0, 57, 64
1, 201792, Note_off_c, 0, 45, 66
1, 201817, Note_off_c, 0, 69, 61
1, 201842, Note_on_c, 0, 64, 70
1, 201850, Note_on_c, 0, 61, 62
1, 201874, Note_off_c, 0, 61, 64
1, 201878, Note_off_c, 0, 64, 65
1, 201941, Note_on_c, 0, 64, 61
1, 201943, Note_on_c, 0, 40, 88
1, 201946, Note_on_c, 0, 61, 57
1, 201964, Note_off_c, 0, 64, 63
1, 201968, Note_off_c, 0, 40, 68
1, 201970, Note_off_c, 0, 61, 59
1, 202030, Note_on_c, 0, 64, 67
1, 202039, Note_on_c, 0, 61, 61
1, 202072, Note_off_c, 0, 61, 62
1, 202077, Note_off_c, 0, 64, 57
1, 202135, Control_c, 0, 64, 59
1, 202141, Note_on_c, 0, 33, 72
1, 202146, Note_on_c, 0, 61, 65
1, 202149, Control_c, 0, 64, 75
1, 202151, Note_on_c, 0, 64, 56
1, 202164, Control_c, 0, 64, 93
1, 202168, Note_off_c, 0, 33, 59
1, 202179, Control_c, 0, 64, 127
1, 202185, Note_off_c, 0, 61, 58
1, 202190, Note_off_c, 0, 64, 62
1, 202267, Note_on_c, 0, 64, 50
1, 202270, Note_on_c, 0, 61, 42
1, 202295, Note_off_c, 0, 61, 59
1, 202295, Note_off_c, 0, 64, 63
1, 202361, Note_on_c, 0, 45, 74
1, 202365, Note_on_c, 0, 61, 60
1, 202374, Note_on_c, 0, 64, 59
1, 202397, Note_off_c, 0, 61, 62
1, 202402, Note_off_c, 0, 64, 66
1, 202416, Control_c, 0, 64, 103
1, 202431, Control_c, 0, 64, 83
1, 202446, Control_c, 0, 64, 66
1, 202458, Note_on_c, 0, 47, 76
1, 202461, Control_c, 0, 64, 0
1, 202467, Note_off_c, 0, 45, 63
1, 202474, Note_on_c, 0, 64, 55
1, 202479, Note_on_c, 0, 61, 45
1, 202495, Note_off_c, 0, 64, 64
1, 202513, Note_off_c, 0, 61, 48
1, 202557, Note_on_c, 0, 49, 82
1, 202560, Note_off_c, 0, 47, 65
1, 202566, Note_on_c, 0, 64, 66
1, 202579, Note_on_c, 0, 61, 42
1, 202594, Note_off_c, 0, 64, 68
1, 202609, Note_off_c, 0, 61, 52
1, 202631, Note_off_c, 0, 49, 64
1, 202638, Note_on_c, 0, 50, 80
1, 202656, Note_on_c, 0, 61, 64
1, 202662, Note_on_c, 0, 64, 62
1, 202683, Note_off_c, 0, 61, 65
1, 202690, Note_off_c, 0, 64, 66
1, 202724, Note_on_c, 0, 49, 89
1, 202737, Note_off_c, 0, 50, 57
1, 202740, Note_on_c, 0, 61, 75
1, 202750, Note_on_c, 0, 64, 69
1, 202750, Control_c, 0, 67, 126
1, 202764, Control_c, 0, 67, 124
1, 202769, Note_off_c, 0, 61, 64
1, 202774, Note_off_c, 0, 64, 69
1, 202779, Control_c, 0, 67, 122
1, 202794, Control_c, 0, 67, 120
1, 202808, Control_c, 0, 67, 118
1, 202815, Note_on_c, 0, 50, 82
1, 202823, Control_c, 0, 67, 115
1, 202828, Note_on_c, 0, 64, 75
1, 202831, Note_on_c, 0, 61, 74
1, 202838, Control_c, 0, 67, 113
1, 202852, Note_off_c, 0, 49, 59
1, 202854, Control_c, 0, 67, 110
1, 202859, Note_off_c, 0, 61, 65
1, 202859, Note_off_c, 0, 64, 65
1, 202869, Control_c, 0, 67, 107
1, 202884, Control_c, 0, 67, 104
1, 202898, Control_c, 0, 67, 101
1, 202911, Note_on_c, 0, 52, 89
1, 202913, Note_off_c, 0, 50, 66
1, 202913, Control_c, 0, 67, 99
1, 202925, Note_on_c, 0, 61, 70
1, 202927, Note_on_c, 0, 64, 67
1, 202928, Control_c, 0, 67, 98
1, 202943, Control_c, 0, 67, 96
1, 202953, Note_off_c, 0, 61, 64
1, 202956, Note_off_c, 0, 64, 66
1, 202958, Control_c, 0, 67, 93
1, 202973, Control_c, 0, 67, 91
1, 202985, Note_on_c, 0, 54, 83
1, 202987, Control_c, 0, 67, 89
1, 202990, Note_off_c, 0, 52, 63
1, 203002, Control_c, 0, 64, 38
1, 203002, Control_c, 0, 67, 86
1, 203008, Note_on_c, 0, 61, 72
1, 203017, Control_c, 0, 64, 61
1, 203017, Control_c, 0, 67, 84
1, 203022, Note_on_c, 0, 64, 60
1, 203031, Control_c, 0, 64, 65
1, 203031, Control_c, 0, 67, 82
1, 203046, Control_c, 0, 64, 68
1, 203046, Control_c, 0, 67, 80
1, 203047, Note_off_c, 0, 54, 65
1, 203049, Note_off_c, 0, 64, 66
1, 203052, Note_off_c, 0, 61, 59
1, 203061, Control_c, 0, 64, 73
1, 203061, Control_c, 0, 67, 79
1, 203076, Control_c, 0, 64, 78
1, 203076, Control_c, 0, 67, 77
1, 203088, Note_on_c, 0, 52, 95
1, 203091, Control_c, 0, 64, 86
1, 203091, Control_c, 0, 67, 76
1, 203106, Control_c, 0, 64, 93
1, 203106, Control_c, 0, 67, 73
1, 203112, Note_on_c, 0, 64, 81
1, 203121, Control_c, 0, 64, 100
1, 203121, Control_c, 0, 67, 71
1, 203126, Note_on_c, 0, 61, 60
1, 203133, Note_off_c, 0, 52, 64
1, 203136, Control_c, 0, 64, 104
1, 203136, Control_c, 0, 67, 68
1, 203151, Note_off_c, 0, 61, 56
1, 203151, Control_c, 0, 64, 107
1, 203151, Control_c, 0, 67, 66
1, 203166, Control_c, 0, 64, 109
1, 203166, Control_c, 0, 67, 63
1, 203171, Note_off_c, 0, 64, 59
1, 203180, Control_c, 0, 64, 109
1, 203180, Control_c, 0, 67, 60
1, 203195, Control_c, 0, 64, 110
1, 203195, Control_c, 0, 67, 57
1, 203210, Control_c, 0, 67, 55
1, 203224, Control_c, 0, 67, 53
1, 203228, Note_on_c, 0, 61, 66
1, 203228, Note_on_c, 0, 64, 69
1, 203239, Control_c, 0, 67, 51
1, 203254, Control_c, 0, 67, 49
1, 203267, Note_on_c, 0, 57, 86
1, 203268, Note_off_c, 0, 61, 57
1, 203269, Control_c, 0, 67, 48
1, 203288, Note_off_c, 0, 64, 62
1, 203291, Control_c, 0, 64, 109
1, 203291, Control_c, 0, 67, 46
1, 203298, Note_off_c, 0, 57, 69
1, 203306, Control_c, 0, 64, 98
1, 203306, Control_c, 0, 67, 44
1, 203321, Control_c, 0, 64, 87
1, 203321, Control_c, 0, 67, 43
1, 203335, Control_c, 0, 64, 75
1, 203335, Control_c, 0, 67, 42
1, 203344, Note_on_c, 0, 57, 89
1, 203350, Control_c, 0, 64, 66
1, 203350, Control_c, 0, 67, 41
1, 203358, Note_on_c, 0, 64, 67
1, 203365, Control_c, 0, 64, 56
1, 203365, Control_c, 0, 67, 41
1, 203380, Control_c, 0, 64, 49
1, 203380, Control_c, 0, 67, 40
1, 203391, Note_on_c, 0, 61, 30
1, 203395, Control_c, 0, 64, 47
1, 203395, Control_c, 0, 67, 40
1, 203410, Control_c, 0, 64, 41
1, 203422, Note_off_c, 0, 61, 0
1, 203425, Control_c, 0, 64, 19
1, 203439, Control_c, 0, 64, 0
1, 203446, Note_on_c, 0, 61, 41
1, 203479, Note_off_c, 0, 64, 63
1, 203510, Note_off_c, 0, 61, 61
1, 203513, Control_c, 0, 67, 39
1, 203541, Note_on_c, 0, 52, 91
1, 203545, Note_on_c, 0, 61, 64
1, 203549, Note_on_c, 0, 71, 78
1, 203550, Note_on_c, 0, 67, 77
1, 203568, Note_off_c, 0, 57, 58
1, 203571, Note_off_c, 0, 71, 68
1, 203572, Control_c, 0, 67, 39
1, 203578, Note_off_c, 0, 61, 64
1, 203578, Note_off_c, 0, 67, 62
1, 203587, Control_c, 0, 67, 38
1, 203602, Control_c, 0, 67, 37
1, 203617, Control_c, 0, 67, 36
1, 203631, Control_c, 0, 67, 36
1, 203641, Note_on_c, 0, 61, 70
1, 203641, Note_on_c, 0, 71, 81
1, 203660, Note_on_c, 0, 67, 41
1, 203660, Note_off_c, 0, 61, 64
1, 203663, Note_off_c, 0, 71, 67
1, 203692, Control_c, 0, 67, 35
1, 203693, Note_off_c, 0, 67, 48
1, 203714, Note_on_c, 0, 61, 92
1, 203720, Note_on_c, 0, 70, 78
1, 203721, Note_on_c, 0, 71, 62
1, 203730, Note_on_c, 0, 66, 78
1, 203736, Control_c, 0, 64, 43
1, 203737, Note_off_c, 0, 71, 67
1, 203751, Control_c, 0, 64, 60
1, 203760, Note_on_c, 0, 68, 22
1, 203761, Note_off_c, 0, 66, 59
1, 203764, Note_off_c, 0, 61, 61
1, 203766, Control_c, 0, 64, 63
1, 203770, Note_off_c, 0, 68, 40
1, 203771, Note_off_c, 0, 52, 63
1, 203777, Note_off_c, 0, 70, 65
1, 203781, Control_c, 0, 64, 63
1, 203796, Control_c, 0, 64, 62
1, 203810, Control_c, 0, 64, 61
1, 203812, Note_on_c, 0, 54, 93
1, 203825, Control_c, 0, 64, 60
1, 203840, Control_c, 0, 64, 56
1, 203848, Note_off_c, 0, 54, 68
1, 203854, Control_c, 0, 64, 48
1, 203869, Control_c, 0, 64, 32
1, 203884, Control_c, 0, 64, 0
1, 203901, Note_on_c, 0, 59, 99
1, 203902, Note_on_c, 0, 74, 91
1, 203903, Note_on_c, 0, 67, 79
1, 203904, Note_on_c, 0, 64, 77
1, 203914, Control_c, 0, 67, 35
1, 203920, Note_off_c, 0, 74, 74
1, 203923, Note_off_c, 0, 67, 69
1, 203924, Note_off_c, 0, 64, 72
1, 203929, Control_c, 0, 67, 34
1, 203944, Control_c, 0, 67, 34
1, 203973, Control_c, 0, 67, 33
1, 203982, Note_on_c, 0, 67, 88
1, 203985, Note_on_c, 0, 64, 79
1, 203985, Note_on_c, 0, 74, 93
1, 204003, Control_c, 0, 67, 33
1, 204004, Note_off_c, 0, 74, 68
1, 204005, Note_off_c, 0, 64, 72
1, 204006, Note_off_c, 0, 67, 63
1, 204075, Note_on_c, 0, 64, 89
1, 204081, Note_on_c, 0, 73, 95
1, 204115, Note_off_c, 0, 64, 63
1, 204122, Note_on_c, 0, 74, 19
1, 204125, Note_off_c, 0, 74, 45
1, 204132, Note_off_c, 0, 73, 64
1, 204150, Note_off_c, 0, 59, 56
1, 204155, Note_on_c, 0, 58, 92
1, 204191, Note_off_c, 0, 58, 61
1, 204249, Note_on_c, 0, 62, 98
1, 204257, Note_on_c, 0, 78, 90
1, 204257, Note_on_c, 0, 67, 83
1, 204262, Note_on_c, 0, 71, 77
1, 204274, Note_off_c, 0, 78, 69
1, 204277, Note_off_c, 0, 67, 71
1, 204283, Note_off_c, 0, 71, 72
1, 204340, Note_on_c, 0, 78, 90
1, 204352, Note_on_c, 0, 67, 63
1, 204372, Note_on_c, 0, 71, 36
1, 204373, Note_off_c, 0, 71, 127
1, 204373, Note_off_c, 0, 67, 64
1, 204373, Note_off_c, 0, 78, 61
1, 204380, Control_c, 0, 67, 32
1, 204395, Control_c, 0, 67, 29
1, 204410, Control_c, 0, 67, 23
1, 204420, Note_on_c, 0, 76, 96
1, 204425, Control_c, 0, 67, 12
1, 204435, Note_on_c, 0, 67, 67
1, 204440, Note_off_c, 0, 62, 61
1, 204440, Control_c, 0, 67, 0
1, 204455, Note_off_c, 0, 67, 65
1, 204458, Note_off_c, 0, 76, 66
1, 204495, Note_on_c, 0, 61, 89
1, 204528, Note_off_c, 0, 61, 63
1, 204596, Note_on_c, 0, 90, 110
1, 204606, Note_on_c, 0, 66, 78
1, 204606, Note_on_c, 0, 78, 85
1, 204619, Note_off_c, 0, 78, 74
1, 204621, Note_off_c, 0, 90, 68
1, 204638, Note_off_c, 0, 66, 64
1, 204789, Control_c, 0, 64, 62
1, 204789, Control_c, 0, 67, 9
1, 204803, Control_c, 0, 64, 71
1, 204803, Control_c, 0, 67, 13
1, 204818, Control_c, 0, 64, 82
1, 204818, Control_c, 0, 67, 16
1, 204832, Note_on_c, 0, 83, 100
1, 204833, Control_c, 0, 64, 117
1, 204833, Control_c, 0, 67, 21
1, 204840, Note_on_c, 0, 59, 61
1, 204845, Note_on_c, 0, 71, 85
1, 204848, Control_c, 0, 64, 127
1, 204848, Control_c, 0, 67, 25
1, 204863, Control_c, 0, 67, 29
1, 204877, Control_c, 0, 67, 34
1, 204880, Note_off_c, 0, 71, 59
1, 204892, Control_c, 0, 67, 38
1, 204907, Control_c, 0, 67, 41
1, 204922, Control_c, 0, 67, 44
1, 204937, Control_c, 0, 67, 47
1, 204951, Control_c, 0, 67, 50
1, 204966, Control_c, 0, 67, 52
1, 204981, Control_c, 0, 67, 53
1, 204996, Control_c, 0, 67, 54
1, 204999, Note_off_c, 0, 83, 64
1, 205011, Control_c, 0, 67, 55
1, 205026, Control_c, 0, 67, 55
1, 205040, Control_c, 0, 67, 56
1, 205055, Control_c, 0, 67, 57
1, 205070, Control_c, 0, 67, 58
1, 205085, Note_off_c, 0, 59, 58
1, 205085, Control_c, 0, 67, 61
1, 205100, Control_c, 0, 67, 64
1, 205115, Control_c, 0, 67, 65
1, 205121, Note_on_c, 0, 85, 90
1, 205129, Note_on_c, 0, 73, 81
1, 205130, Control_c, 0, 67, 66
1, 205134, Note_on_c, 0, 61, 77
1, 205144, Control_c, 0, 64, 77
1, 205151, Note_off_c, 0, 73, 69
1, 205156, Note_off_c, 0, 85, 61
1, 205157, Note_off_c, 0, 61, 67
1, 205159, Control_c, 0, 64, 0
1, 205199, Note_on_c, 0, 83, 92
1, 205203, Note_on_c, 0, 59, 80
1, 205208, Note_on_c, 0, 71, 81
1, 205218, Control_c, 0, 64, 67
1, 205224, Note_off_c, 0, 59, 69
1, 205228, Note_off_c, 0, 71, 69
1, 205232, Note_off_c, 0, 83, 66
1, 205233, Control_c, 0, 64, 83
1, 205233, Control_c, 0, 67, 64
1, 205249, Control_c, 0, 64, 127
1, 205249, Control_c, 0, 67, 62
1, 205264, Control_c, 0, 67, 62
1, 205279, Control_c, 0, 67, 61
1, 205294, Control_c, 0, 67, 61
1, 205323, Control_c, 0, 67, 61
1, 205338, Control_c, 0, 67, 62
1, 205353, Control_c, 0, 67, 62
1, 205367, Control_c, 0, 67, 63
1, 205382, Control_c, 0, 67, 63
1, 205397, Control_c, 0, 67, 64
1, 205412, Control_c, 0, 67, 64
1, 205426, Control_c, 0, 67, 65
1, 205441, Control_c, 0, 67, 66
1, 205449, Note_on_c, 0, 71, 75
1, 205456, Note_on_c, 0, 90, 99
1, 205456, Control_c, 0, 67, 66
1, 205470, Note_off_c, 0, 71, 70
1, 205471, Control_c, 0, 67, 67
1, 205476, Note_on_c, 0, 62, 38
1, 205486, Control_c, 0, 67, 67
1, 205495, Note_off_c, 0, 90, 67
1, 205500, Note_on_c, 0, 64, 8
1, 205508, Note_off_c, 0, 62, 52
1, 205538, Control_c, 0, 64, 109
1, 205553, Control_c, 0, 64, 83
1, 205555, Note_on_c, 0, 73, 65
1, 205559, Note_off_c, 0, 64, 38
1, 205568, Control_c, 0, 64, 65
1, 205568, Control_c, 0, 67, 67
1, 205573, Note_off_c, 0, 73, 66
1, 205582, Control_c, 0, 64, 0
1, 205582, Control_c, 0, 67, 66
1, 205631, Note_on_c, 0, 83, 96
1, 205640, Note_on_c, 0, 62, 39
1, 205654, Note_on_c, 0, 74, 75
1, 205686, Control_c, 0, 67, 67
1, 205689, Note_off_c, 0, 74, 57
1, 205699, Note_off_c, 0, 62, 61
1, 205700, Control_c, 0, 67, 68
1, 205715, Control_c, 0, 67, 69
1, 205730, Control_c, 0, 67, 70
1, 205745, Control_c, 0, 67, 73
1, 205760, Control_c, 0, 67, 77
1, 205774, Control_c, 0, 67, 80
1, 205789, Control_c, 0, 67, 82
1, 205804, Control_c, 0, 67, 84
1, 205819, Control_c, 0, 67, 85
1, 205833, Control_c, 0, 67, 86
1, 205834, Note_on_c, 0, 62, 61
1, 205847, Note_on_c, 0, 74, 52
1, 205848, Control_c, 0, 67, 87
1, 205856, Note_off_c, 0, 62, 60
1, 205863, Control_c, 0, 67, 88
1, 205872, Note_off_c, 0, 74, 60
1, 205872, Note_off_c, 0, 83, 62
1, 205878, Control_c, 0, 67, 88
1, 205904, Note_on_c, 0, 85, 72
1, 205911, Note_on_c, 0, 64, 77
1, 205932, Note_off_c, 0, 64, 71
1, 205936, Note_on_c, 0, 74, 45
1, 205939, Note_off_c, 0, 85, 63
1, 205953, Control_c, 0, 67, 88
1, 205963, Note_off_c, 0, 74, 58
1, 205982, Control_c, 0, 67, 87
1, 205994, Note_on_c, 0, 83, 83
1, 205997, Control_c, 0, 67, 87
1, 206012, Note_off_c, 0, 83, 73
1, 206012, Control_c, 0, 64, 67
1, 206021, Note_on_c, 0, 66, 61
1, 206021, Note_on_c, 0, 74, 63
1, 206026, Control_c, 0, 64, 92
1, 206041, Note_off_c, 0, 74, 66
1, 206042, Note_off_c, 0, 66, 62
1, 206042, Control_c, 0, 64, 127
1, 206116, Control_c, 0, 67, 86
1, 206146, Control_c, 0, 67, 86
1, 206161, Control_c, 0, 67, 85
1, 206176, Control_c, 0, 67, 84
1, 206188, Note_on_c, 0, 47, 78
1, 206191, Control_c, 0, 67, 83
1, 206191, Note_on_c, 0, 66, 63
1, 206196, Note_on_c, 0, 74, 67
1, 206205, Control_c, 0, 64, 87
1, 206205, Control_c, 0, 67, 82
1, 206207, Note_on_c, 0, 54, 42
1, 206208, Note_off_c, 0, 54, 127
1, 206215, Note_off_c, 0, 66, 66
1, 206220, Control_c, 0, 64, 61
1, 206221, Note_off_c, 0, 47, 63
1, 206222, Note_off_c, 0, 74, 68
1, 206235, Control_c, 0, 64, 0
1, 206235, Control_c, 0, 67, 82
1, 206249, Control_c, 0, 67, 81
1, 206275, Note_on_c, 0, 66, 84
1, 206287, Control_c, 0, 67, 81
1, 206293, Note_on_c, 0, 74, 65
1, 206295, Note_off_c, 0, 66, 68
1, 206301, Control_c, 0, 67, 80
1, 206310, Note_off_c, 0, 74, 67
1, 206316, Control_c, 0, 67, 79
1, 206331, Control_c, 0, 67, 78
1, 206346, Control_c, 0, 67, 77
1, 206361, Note_on_c, 0, 50, 90
1, 206361, Control_c, 0, 67, 74
1, 206363, Note_on_c, 0, 54, 22
1, 206367, Note_on_c, 0, 66, 95
1, 206367, Note_on_c, 0, 74, 89
1, 206376, Control_c, 0, 64, 24
1, 206376, Control_c, 0, 67, 72
1, 206385, Note_off_c, 0, 50, 73
1, 206388, Note_off_c, 0, 66, 66
1, 206389, Note_off_c, 0, 54, 60
1, 206391, Control_c, 0, 64, 76
1, 206391, Control_c, 0, 67, 67
1, 206391, Note_off_c, 0, 74, 67
1, 206405, Control_c, 0, 64, 89
1, 206405, Control_c, 0, 67, 64
1, 206420, Control_c, 0, 64, 91
1, 206420, Control_c, 0, 67, 63
1, 206435, Control_c, 0, 64, 80
1, 206435, Control_c, 0, 67, 63
1, 206449, Control_c, 0, 64, 63
1, 206449, Control_c, 0, 67, 62
1, 206464, Control_c, 0, 64, 0
1, 206464, Control_c, 0, 67, 62
1, 206479, Control_c, 0, 67, 61
1, 206494, Control_c, 0, 67, 61
1, 206538, Control_c, 0, 67, 61
1, 206553, Control_c, 0, 67, 62
1, 206555, Note_on_c, 0, 54, 81
1, 206558, Note_on_c, 0, 50, 76
1, 206561, Note_on_c, 0, 66, 82
1, 206564, Note_on_c, 0, 74, 79
1, 206579, Note_off_c, 0, 66, 70
1, 206581, Note_off_c, 0, 54, 67
1, 206583, Note_off_c, 0, 74, 72
1, 206586, Note_off_c, 0, 50, 68
1, 206629, Note_on_c, 0, 55, 83
1, 206644, Note_on_c, 0, 50, 56
1, 206644, Note_on_c, 0, 66, 83
1, 206653, Note_on_c, 0, 74, 72
1, 206658, Note_off_c, 0, 55, 64
1, 206663, Note_off_c, 0, 66, 70
1, 206671, Note_off_c, 0, 50, 58
1, 206677, Note_off_c, 0, 74, 70
1, 206701, Control_c, 0, 67, 61
1, 206720, Note_on_c, 0, 57, 83
1, 206725, Note_on_c, 0, 50, 85
1, 206730, Note_on_c, 0, 66, 81
1, 206731, Control_c, 0, 64, 69
1, 206731, Control_c, 0, 67, 60
1, 206739, Note_on_c, 0, 74, 82
1, 206740, Note_off_c, 0, 57, 70
1, 206746, Control_c, 0, 64, 102
1, 206748, Note_off_c, 0, 50, 69
1, 206749, Note_off_c, 0, 66, 70
1, 206757, Note_off_c, 0, 74, 76
1, 206760, Control_c, 0, 64, 127
1, 206760, Control_c, 0, 67, 61
1, 206775, Control_c, 0, 67, 61
1, 206790, Control_c, 0, 67, 62
1, 206805, Control_c, 0, 67, 63
1, 206835, Control_c, 0, 67, 64
1, 206850, Control_c, 0, 64, 91
1, 206850, Control_c, 0, 67, 64
1, 206865, Control_c, 0, 64, 70
1, 206865, Control_c, 0, 67, 65
1, 206880, Control_c, 0, 64, 0
1, 206880, Control_c, 0, 67, 66
1, 206895, Control_c, 0, 67, 67
1, 206898, Poly_aftertouch_c, 0, 50, 0
1, 206910, Control_c, 0, 67, 68
1, 206913, Note_on_c, 0, 57, 71
1, 206915, Note_on_c, 0, 74, 87
1, 206917, Note_on_c, 0, 50, 49
1, 206924, Note_on_c, 0, 66, 70
1, 206938, Note_off_c, 0, 57, 66
1, 206942, Note_off_c, 0, 74, 64
1, 206943, Note_off_c, 0, 66, 67
1, 206948, Note_off_c, 0, 50, 65
1, 206992, Note_on_c, 0, 57, 81
1, 206998, Control_c, 0, 67, 67
1, 207002, Note_on_c, 0, 76, 86
1, 207011, Note_on_c, 0, 50, 64
1, 207020, Note_off_c, 0, 57, 70
1, 207020, Control_c, 0, 67, 66
1, 207029, Note_on_c, 0, 75, 19
1, 207032, Note_off_c, 0, 76, 67
1, 207035, Control_c, 0, 67, 66
1, 207038, Note_on_c, 0, 66, 30
1, 207039, Note_off_c, 0, 66, 127
1, 207041, Note_off_c, 0, 50, 64
1, 207046, Note_off_c, 0, 75, 50
1, 207050, Control_c, 0, 67, 65
1, 207065, Control_c, 0, 67, 64
1, 207079, Control_c, 0, 64, 76
1, 207079, Control_c, 0, 67, 63
1, 207088, Note_on_c, 0, 78, 98
1, 207093, Note_on_c, 0, 57, 80
1, 207094, Note_on_c, 0, 50, 79
1, 207094, Control_c, 0, 64, 127
1, 207094, Control_c, 0, 67, 62
1, 207097, Note_on_c, 0, 66, 73
1, 207109, Control_c, 0, 67, 61
1, 207114, Note_off_c, 0, 57, 68
1, 207118, Note_off_c, 0, 50, 69
1, 207120, Note_off_c, 0, 78, 69
1, 207121, Note_off_c, 0, 66, 67
1, 207184, Control_c, 0, 67, 61
1, 207199, Control_c, 0, 67, 62
1, 207228, Control_c, 0, 67, 63
1, 207243, Control_c, 0, 67, 64
1, 207258, Control_c, 0, 67, 65
1, 207273, Control_c, 0, 64, 111
1, 207273, Control_c, 0, 67, 66
1, 207276, Note_on_c, 0, 50, 61
1, 207279, Note_on_c, 0, 57, 66
1, 207288, Control_c, 0, 64, 79
1, 207288, Control_c, 0, 67, 67
1, 207291, Note_on_c, 0, 78, 82
1, 207300, Note_off_c, 0, 57, 63
1, 207303, Control_c, 0, 64, 0
1, 207303, Control_c, 0, 67, 67
1, 207306, Note_on_c, 0, 66, 56
1, 207309, Note_off_c, 0, 78, 72
1, 207309, Note_off_c, 0, 50, 64
1, 207318, Control_c, 0, 67, 68
1, 207331, Note_off_c, 0, 66, 36
1, 207333, Control_c, 0, 67, 68
1, 207362, Control_c, 0, 67, 69
1, 207365, Note_on_c, 0, 57, 66
1, 207372, Note_on_c, 0, 78, 81
1, 207379, Note_on_c, 0, 50, 64
1, 207391, Note_off_c, 0, 57, 67
1, 207392, Note_off_c, 0, 78, 68
1, 207404, Note_off_c, 0, 50, 64
1, 207406, Control_c, 0, 67, 68
1, 207436, Control_c, 0, 67, 68
1, 207451, Control_c, 0, 67, 67
1, 207458, Note_on_c, 0, 78, 80
1, 207460, Note_on_c, 0, 76, 93
1, 207461, Note_on_c, 0, 59, 78
1, 207466, Control_c, 0, 64, 63
1, 207466, Control_c, 0, 67, 66
1, 207468, Note_on_c, 0, 67, 76
1, 207474, Note_on_c, 0, 50, 63
1, 207480, Control_c, 0, 64, 91
1, 207488, Note_on_c, 0, 75, 9
1, 207494, Note_off_c, 0, 78, 57
1, 207495, Control_c, 0, 64, 127
1, 207504, Note_off_c, 0, 50, 66
1, 207512, Note_off_c, 0, 67, 51
1, 207514, Note_off_c, 0, 59, 60
1, 207525, Control_c, 0, 67, 66
1, 207536, Note_off_c, 0, 75, 28
1, 207553, Note_off_c, 0, 76, 60
1, 207554, Control_c, 0, 67, 65
1, 207569, Control_c, 0, 67, 65
1, 207624, Note_on_c, 0, 61, 86
1, 207625, Note_on_c, 0, 50, 66
1, 207629, Note_on_c, 0, 78, 85
1, 207636, Note_on_c, 0, 67, 81
1, 207652, Note_off_c, 0, 50, 67
1, 207655, Note_off_c, 0, 61, 60
1, 207657, Note_off_c, 0, 67, 68
1, 207677, Note_off_c, 0, 78, 62
1, 207688, Control_c, 0, 67, 64
1, 207716, Note_on_c, 0, 50, 76
1, 207718, Note_on_c, 0, 61, 78
1, 207720, Note_on_c, 0, 78, 73
1, 207735, Note_on_c, 0, 67, 71
1, 207740, Note_off_c, 0, 61, 67
1, 207747, Note_off_c, 0, 50, 64
1, 207757, Note_off_c, 0, 67, 69
1, 207770, Control_c, 0, 67, 64
1, 207800, Control_c, 0, 64, 83
1, 207800, Control_c, 0, 67, 64
1, 207803, Note_on_c, 0, 62, 93
1, 207804, Note_on_c, 0, 50, 92
1, 207810, Note_on_c, 0, 74, 87
1, 207815, Control_c, 0, 64, 0
1, 207815, Control_c, 0, 67, 65
1, 207816, Note_off_c, 0, 78, 63
1, 207829, Control_c, 0, 67, 65
1, 207843, Note_off_c, 0, 62, 64
1, 207844, Control_c, 0, 67, 66
1, 207854, Note_off_c, 0, 50, 66
1, 207859, Control_c, 0, 67, 67
1, 207874, Control_c, 0, 67, 68
1, 207875, Note_off_c, 0, 74, 61
1, 207889, Control_c, 0, 67, 69
1, 207900, Note_on_c, 0, 69, 69
1, 207903, Control_c, 0, 67, 70
1, 207905, Note_on_c, 0, 66, 63
1, 207918, Control_c, 0, 67, 71
1, 207925, Note_off_c, 0, 66, 64
1, 207929, Note_off_c, 0, 69, 64
1, 207933, Control_c, 0, 67, 73
1, 207948, Control_c, 0, 67, 76
1, 207963, Control_c, 0, 67, 78
1, 207977, Control_c, 0, 67, 81
1, 207986, Note_on_c, 0, 66, 75
1, 207992, Note_on_c, 0, 45, 91
1, 207992, Note_on_c, 0, 69, 67
1, 207992, Control_c, 0, 67, 83
1, 208007, Control_c, 0, 67, 86
1, 208012, Note_off_c, 0, 66, 64
1, 208014, Note_off_c, 0, 45, 72
1, 208016, Note_off_c, 0, 69, 68
1, 208021, Control_c, 0, 67, 87
1, 208036, Control_c, 0, 67, 88
1, 208066, Control_c, 0, 67, 88
1, 208078, Note_on_c, 0, 69, 78
1, 208081, Note_on_c, 0, 66, 64
1, 208111, Note_off_c, 0, 66, 63
1, 208118, Note_off_c, 0, 69, 52
1, 208141, Control_c, 0, 67, 89
1, 208185, Control_c, 0, 64, 64
1, 208188, Note_on_c, 0, 38, 75
1, 208190, Note_on_c, 0, 66, 67
1, 208197, Note_on_c, 0, 69, 58
1, 208200, Control_c, 0, 64, 75
1, 208215, Control_c, 0, 64, 92
1, 208216, Note_off_c, 0, 38, 64
1, 208227, Note_off_c, 0, 66, 57
1, 208229, Control_c, 0, 64, 127
1, 208229, Control_c, 0, 67, 88
1, 208230, Note_off_c, 0, 69, 63
1, 208244, Control_c, 0, 67, 88
1, 208274, Control_c, 0, 67, 87
1, 208289, Control_c, 0, 67, 86
1, 208307, Note_on_c, 0, 69, 61
1, 208340, Note_off_c, 0, 69, 57
1, 208372, Poly_aftertouch_c, 0, 66, 127
1, 208391, Poly_aftertouch_c, 0, 66, 0
1, 208412, Note_on_c, 0, 50, 67
1, 208421, Note_on_c, 0, 66, 24
1, 208430, Note_on_c, 0, 69, 52
1, 208456, Note_off_c, 0, 69, 64
1, 208457, Note_off_c, 0, 66, 53
1, 208467, Control_c, 0, 64, 96
1, 208482, Control_c, 0, 64, 79
1, 208497, Control_c, 0, 64, 66
1, 208516, Note_on_c, 0, 52, 73
1, 208519, Control_c, 0, 64, 44
1, 208534, Control_c, 0, 64, 0
1, 208535, Note_on_c, 0, 69, 58
1, 208541, Note_off_c, 0, 50, 60
1, 208549, Note_on_c, 0, 66, 40
1, 208567, Note_off_c, 0, 69, 65
1, 208576, Note_off_c, 0, 66, 55
1, 208618, Note_on_c, 0, 54, 77
1, 208628, Note_off_c, 0, 52, 61
1, 208629, Note_on_c, 0, 69, 63
1, 208648, Note_on_c, 0, 66, 42
1, 208651, Control_c, 0, 64, 19
1, 208656, Note_off_c, 0, 69, 67
1, 208666, Control_c, 0, 64, 23
1, 208676, Note_off_c, 0, 66, 55
1, 208697, Note_off_c, 0, 54, 63
1, 208704, Note_on_c, 0, 55, 77
1, 208716, Note_on_c, 0, 69, 69
1, 208723, Note_on_c, 0, 66, 56
1, 208726, Control_c, 0, 64, 21
1, 208741, Control_c, 0, 64, 14
1, 208743, Note_off_c, 0, 69, 67
1, 208747, Note_off_c, 0, 66, 62
1, 208756, Control_c, 0, 64, 0
1, 208770, Control_c, 0, 67, 86
1, 208785, Control_c, 0, 67, 85
1, 208786, Note_on_c, 0, 54, 88
1, 208787, Note_off_c, 0, 55, 55
1, 208796, Note_on_c, 0, 69, 80
1, 208800, Note_on_c, 0, 66, 77
1, 208800, Control_c, 0, 67, 84
1, 208815, Control_c, 0, 67, 84
1, 208829, Note_off_c, 0, 66, 61
1, 208829, Note_off_c, 0, 69, 61
1, 208830, Control_c, 0, 67, 83
1, 208844, Control_c, 0, 67, 82
1, 208859, Control_c, 0, 67, 82
1, 208870, Note_on_c, 0, 55, 81
1, 208871, Note_off_c, 0, 54, 63
1, 208874, Control_c, 0, 67, 81
1, 208887, Note_on_c, 0, 69, 73
1, 208889, Note_on_c, 0, 66, 65
1, 208889, Control_c, 0, 67, 81
1, 208904, Control_c, 0, 67, 80
1, 208913, Note_off_c, 0, 66, 65
1, 208918, Note_off_c, 0, 69, 63
1, 208934, Control_c, 0, 67, 80
1, 208951, Note_off_c, 0, 55, 65
1, 208951, Note_on_c, 0, 57, 87
1, 208969, Note_on_c, 0, 66, 75
1, 208977, Note_on_c, 0, 69, 71
1, 209000, Note_off_c, 0, 66, 60
1, 209002, Note_off_c, 0, 69, 69
1, 209035, Note_off_c, 0, 57, 62
1, 209041, Note_on_c, 0, 59, 85
1, 209058, Note_on_c, 0, 66, 69
1, 209066, Note_on_c, 0, 69, 70
1, 209092, Note_off_c, 0, 69, 68
1, 209092, Note_off_c, 0, 66, 64
1, 209098, Note_off_c, 0, 59, 63
1, 209112, Control_c, 0, 64, 51
1, 209112, Control_c, 0, 67, 79
1, 209126, Control_c, 0, 64, 65
1, 209133, Note_on_c, 0, 57, 92
1, 209141, Control_c, 0, 64, 71
1, 209141, Control_c, 0, 67, 79
1, 209149, Note_on_c, 0, 69, 82
1, 209156, Control_c, 0, 64, 78
1, 209156, Control_c, 0, 67, 78
1, 209161, Note_on_c, 0, 66, 63
1, 209170, Control_c, 0, 64, 85
1, 209170, Control_c, 0, 67, 77
1, 209181, Note_off_c, 0, 57, 65
1, 209185, Control_c, 0, 64, 93
1, 209185, Control_c, 0, 67, 76
1, 209187, Note_off_c, 0, 66, 64
1, 209193, Note_off_c, 0, 69, 62
1, 209200, Control_c, 0, 64, 100
1, 209200, Control_c, 0, 67, 75
1, 209215, Control_c, 0, 64, 105
1, 209215, Control_c, 0, 67, 74
1, 209230, Control_c, 0, 64, 108
1, 209230, Control_c, 0, 67, 73
1, 209246, Note_on_c, 0, 69, 75
1, 209246, Control_c, 0, 67, 73
1, 209247, Note_on_c, 0, 66, 73
1, 209261, Control_c, 0, 67, 72
1, 209282, Control_c, 0, 67, 71
1, 209297, Control_c, 0, 67, 70
1, 209298, Note_off_c, 0, 69, 62
1, 209301, Note_off_c, 0, 66, 56
1, 209312, Control_c, 0, 67, 68
1, 209327, Note_on_c, 0, 62, 103
1, 209327, Control_c, 0, 67, 66
1, 209342, Control_c, 0, 67, 65
1, 209357, Control_c, 0, 67, 63
1, 209369, Note_off_c, 0, 62, 65
1, 209372, Control_c, 0, 67, 61
1, 209387, Control_c, 0, 64, 107
1, 209387, Control_c, 0, 67, 60
1, 209391, Note_on_c, 0, 69, 62
1, 209401, Control_c, 0, 64, 107
1, 209401, Control_c, 0, 67, 60
1, 209409, Note_on_c, 0, 62, 94
1, 209416, Control_c, 0, 64, 106
1, 209416, Control_c, 0, 67, 59
1, 209424, Note_on_c, 0, 66, 33
1, 209431, Control_c, 0, 64, 105
1, 209431, Control_c, 0, 67, 58
1, 209446, Control_c, 0, 64, 104
1, 209446, Control_c, 0, 67, 58
1, 209447, Note_off_c, 0, 66, 60
1, 209461, Control_c, 0, 64, 103
1, 209475, Control_c, 0, 64, 103
1, 209475, Control_c, 0, 67, 57
1, 209490, Control_c, 0, 64, 102
1, 209505, Control_c, 0, 64, 101
1, 209514, Note_on_c, 0, 66, 61
1, 209514, Note_off_c, 0, 69, 0
1, 209520, Control_c, 0, 64, 101
1, 209530, Note_on_c, 0, 69, 39
1, 209535, Control_c, 0, 64, 100
1, 209549, Control_c, 0, 64, 99
1, 209564, Control_c, 0, 64, 98
1, 209565, Note_off_c, 0, 69, 64
1, 209577, Note_off_c, 0, 66, 61
1, 209579, Control_c, 0, 64, 94
1, 209593, Control_c, 0, 64, 85
1, 209608, Control_c, 0, 64, 72
1, 209613, Note_on_c, 0, 57, 91
1, 209620, Note_on_c, 0, 66, 75
1, 209622, Note_on_c, 0, 76, 90
1, 209623, Control_c, 0, 64, 49
1, 209628, Note_on_c, 0, 72, 74
1, 209638, Note_off_c, 0, 62, 55
1, 209638, Control_c, 0, 64, 0
1, 209638, Control_c, 0, 67, 57
1, 209650, Note_off_c, 0, 66, 62
1, 209652, Note_off_c, 0, 72, 69
1, 209653, Control_c, 0, 67, 55
1, 209662, Note_off_c, 0, 76, 62
1, 209667, Control_c, 0, 67, 53
1, 209682, Control_c, 0, 67, 48
1, 209697, Control_c, 0, 67, 43
1, 209712, Control_c, 0, 67, 41
1, 209719, Note_on_c, 0, 76, 86
1, 209725, Note_on_c, 0, 72, 79
1, 209727, Control_c, 0, 67, 39
1, 209735, Note_on_c, 0, 66, 55
1, 209741, Control_c, 0, 67, 37
1, 209748, Note_off_c, 0, 72, 66
1, 209756, Control_c, 0, 64, 23
1, 209756, Control_c, 0, 67, 34
1, 209760, Note_off_c, 0, 66, 39
1, 209771, Control_c, 0, 64, 66
1, 209771, Control_c, 0, 67, 29
1, 209777, Note_off_c, 0, 76, 0
1, 209786, Control_c, 0, 64, 76
1, 209786, Control_c, 0, 67, 24
1, 209793, Note_on_c, 0, 76, 61
1, 209801, Note_on_c, 0, 66, 87
1, 209801, Control_c, 0, 64, 89
1, 209801, Control_c, 0, 67, 20
1, 209805, Note_on_c, 0, 75, 79
1, 209810, Note_on_c, 0, 71, 78
1, 209816, Control_c, 0, 64, 114
1, 209816, Control_c, 0, 67, 17
1, 209831, Control_c, 0, 64, 127
1, 209831, Control_c, 0, 67, 14
1, 209831, Note_off_c, 0, 76, 64
1, 209846, Control_c, 0, 67, 11
1, 209850, Note_off_c, 0, 66, 61
1, 209857, Note_off_c, 0, 57, 61
1, 209857, Note_off_c, 0, 71, 62
1, 209860, Control_c, 0, 67, 8
1, 209875, Control_c, 0, 67, 0
1, 209876, Note_off_c, 0, 75, 63
1, 209884, Note_on_c, 0, 59, 90
1, 209909, Note_off_c, 0, 59, 65
1, 209964, Control_c, 0, 64, 122
1, 209979, Note_on_c, 0, 64, 96
1, 209979, Control_c, 0, 64, 89
1, 209980, Note_on_c, 0, 69, 87
1, 209981, Note_on_c, 0, 79, 91
1, 209982, Note_on_c, 0, 72, 80
1, 209993, Control_c, 0, 64, 68
1, 209996, Note_off_c, 0, 79, 74
1, 209998, Note_off_c, 0, 69, 73
1, 210004, Note_off_c, 0, 72, 71
1, 210008, Control_c, 0, 64, 0
1, 210075, Note_on_c, 0, 79, 94
1, 210077, Note_on_c, 0, 69, 77
1, 210078, Note_on_c, 0, 72, 84
1, 210093, Note_off_c, 0, 72, 73
1, 210096, Note_off_c, 0, 69, 69
1, 210097, Note_off_c, 0, 79, 58
1, 210151, Control_c, 0, 64, 65
1, 210152, Note_on_c, 0, 69, 90
1, 210157, Note_on_c, 0, 78, 91
1, 210161, Note_on_c, 0, 79, 60
1, 210166, Control_c, 0, 64, 78
1, 210180, Control_c, 0, 64, 103
1, 210182, Note_off_c, 0, 79, 64
1, 210195, Note_off_c, 0, 69, 64
1, 210195, Control_c, 0, 64, 127
1, 210209, Note_off_c, 0, 64, 58
1, 210214, Note_off_c, 0, 78, 65
1, 210233, Note_on_c, 0, 63, 92
1, 210265, Note_off_c, 0, 63, 61
1, 210320, Note_on_c, 0, 67, 101
1, 210335, Note_on_c, 0, 83, 93
1, 210343, Note_on_c, 0, 72, 70
1, 210344, Control_c, 0, 64, 74
1, 210347, Note_on_c, 0, 71, 64
1, 210347, Note_on_c, 0, 76, 60
1, 210351, Note_off_c, 0, 83, 73
1, 210355, Note_on_c, 0, 81, 59
1, 210358, Control_c, 0, 64, 0
1, 210359, Note_off_c, 0, 72, 67
1, 210367, Note_off_c, 0, 71, 64
1, 210369, Note_off_c, 0, 76, 61
1, 210373, Note_off_c, 0, 81, 40
1, 210381, Note_on_c, 0, 74, 12
1, 210382, Note_off_c, 0, 74, 127
1, 210418, Note_on_c, 0, 72, 77
1, 210424, Note_on_c, 0, 76, 79
1, 210424, Note_on_c, 0, 83, 81
1, 210438, Note_off_c, 0, 72, 71
1, 210440, Note_off_c, 0, 76, 71
1, 210442, Note_off_c, 0, 83, 72
1, 210491, Control_c, 0, 64, 41
1, 210493, Note_on_c, 0, 81, 85
1, 210503, Note_on_c, 0, 72, 75
1, 210506, Control_c, 0, 64, 72
1, 210518, Note_off_c, 0, 72, 71
1, 210521, Control_c, 0, 64, 87
1, 210530, Note_off_c, 0, 67, 60
1, 210534, Note_off_c, 0, 81, 67
1, 210536, Control_c, 0, 64, 127
1, 210571, Note_on_c, 0, 66, 80
1, 210609, Control_c, 0, 64, 94
1, 210614, Note_off_c, 0, 66, 57
1, 210624, Control_c, 0, 64, 0
1, 210669, Control_c, 0, 64, 38
1, 210675, Note_on_c, 0, 95, 104
1, 210679, Note_on_c, 0, 71, 79
1, 210683, Control_c, 0, 64, 70
1, 210685, Note_on_c, 0, 83, 80
1, 210698, Control_c, 0, 64, 91
1, 210699, Note_off_c, 0, 83, 72
1, 210699, Note_off_c, 0, 95, 65
1, 210713, Control_c, 0, 64, 127
1, 210725, Note_off_c, 0, 71, 62
1, 210840, Control_c, 0, 64, 93
1, 210855, Control_c, 0, 64, 63
1, 210870, Control_c, 0, 64, 0
1, 210900, Control_c, 0, 67, 8
1, 210910, Note_on_c, 0, 88, 100
1, 210915, Control_c, 0, 64, 59
1, 210915, Control_c, 0, 67, 11
1, 210916, Note_on_c, 0, 64, 75
1, 210916, Note_on_c, 0, 76, 97
1, 210929, Control_c, 0, 64, 77
1, 210929, Control_c, 0, 67, 16
1, 210939, Note_off_c, 0, 76, 66
1, 210944, Control_c, 0, 64, 119
1, 210944, Control_c, 0, 67, 21
1, 210954, Note_off_c, 0, 88, 67
1, 210959, Control_c, 0, 64, 127
1, 210959, Control_c, 0, 67, 25
1, 210973, Control_c, 0, 67, 29
1, 210988, Control_c, 0, 67, 31
1, 211003, Control_c, 0, 67, 34
1, 211018, Control_c, 0, 67, 37
1, 211033, Control_c, 0, 67, 40
1, 211047, Control_c, 0, 67, 44
1, 211062, Control_c, 0, 67, 48
1, 211077, Control_c, 0, 67, 52
1, 211092, Control_c, 0, 67, 54
1, 211107, Control_c, 0, 67, 55
1, 211122, Control_c, 0, 67, 56
1, 211181, Control_c, 0, 67, 56
1, 211181, Note_off_c, 0, 64, 59
1, 211196, Control_c, 0, 67, 57
1, 211211, Note_on_c, 0, 66, 82
1, 211211, Note_on_c, 0, 90, 97
1, 211211, Control_c, 0, 67, 60
1, 211219, Note_on_c, 0, 78, 78
1, 211226, Control_c, 0, 67, 64
1, 211234, Note_off_c, 0, 78, 71
1, 211238, Note_off_c, 0, 90, 63
1, 211240, Control_c, 0, 67, 66
1, 211253, Note_off_c, 0, 66, 59
1, 211255, Control_c, 0, 64, 79
1, 211255, Control_c, 0, 67, 67
1, 211270, Control_c, 0, 64, 0
1, 211270, Control_c, 0, 67, 69
1, 211285, Control_c, 0, 67, 70
1, 211285, Note_on_c, 0, 88, 89
1, 211291, Note_on_c, 0, 64, 83
1, 211298, Note_on_c, 0, 76, 81
1, 211300, Control_c, 0, 67, 72
1, 211314, Control_c, 0, 67, 73
1, 211329, Control_c, 0, 67, 74
1, 211344, Note_off_c, 0, 64, 66
1, 211359, Control_c, 0, 64, 66
1, 211373, Control_c, 0, 64, 78
1, 211388, Control_c, 0, 64, 107
1, 211388, Control_c, 0, 67, 73
1, 211403, Control_c, 0, 64, 127
1, 211403, Control_c, 0, 67, 71
1, 211418, Control_c, 0, 67, 70
1, 211433, Control_c, 0, 67, 70
1, 211447, Control_c, 0, 67, 69
1, 211452, Note_off_c, 0, 76, 52
1, 211462, Control_c, 0, 67, 68
1, 211529, Control_c, 0, 67, 68
1, 211544, Control_c, 0, 67, 69
1, 211559, Control_c, 0, 67, 70
1, 211573, Control_c, 0, 67, 72
1, 211588, Control_c, 0, 67, 73
1, 211603, Control_c, 0, 67, 73
1, 211608, Note_on_c, 0, 95, 84
1, 211618, Control_c, 0, 67, 74
1, 211634, Note_on_c, 0, 74, 51
1, 211635, Note_on_c, 0, 76, 49
1, 211643, Note_off_c, 0, 88, 58
1, 211652, Note_off_c, 0, 95, 64
1, 211663, Control_c, 0, 64, 107
1, 211677, Note_on_c, 0, 85, 48
1, 211678, Control_c, 0, 64, 81
1, 211678, Control_c, 0, 67, 73
1, 211693, Control_c, 0, 64, 66
1, 211693, Control_c, 0, 67, 73
1, 211708, Control_c, 0, 64, 44
1, 211708, Control_c, 0, 67, 72
1, 211723, Control_c, 0, 64, 48
1, 211723, Control_c, 0, 67, 71
1, 211737, Control_c, 0, 64, 63
1, 211737, Control_c, 0, 67, 71
1, 211752, Control_c, 0, 64, 68
1, 211756, Note_off_c, 0, 74, 56
1, 211756, Note_on_c, 0, 88, 83
1, 211761, Note_off_c, 0, 76, 55
1, 211767, Control_c, 0, 64, 75
1, 211768, Note_on_c, 0, 86, 70
1, 211782, Control_c, 0, 64, 83
1, 211782, Control_c, 0, 67, 70
1, 211796, Control_c, 0, 64, 90
1, 211803, Note_off_c, 0, 88, 63
1, 211811, Control_c, 0, 64, 93
1, 211814, Note_off_c, 0, 85, 54
1, 211826, Control_c, 0, 64, 93
1, 211841, Control_c, 0, 64, 96
1, 211848, Note_on_c, 0, 80, 57
1, 211856, Control_c, 0, 64, 105
1, 211870, Control_c, 0, 64, 127
1, 211900, Control_c, 0, 67, 70
1, 211914, Note_off_c, 0, 80, 58
1, 211918, Note_on_c, 0, 95, 80
1, 211927, Note_on_c, 0, 74, 56
1, 211928, Note_on_c, 0, 76, 45
1, 211938, Note_off_c, 0, 95, 71
1, 211944, Control_c, 0, 67, 69
1, 211958, Note_off_c, 0, 86, 59
1, 211959, Control_c, 0, 67, 69
1, 211985, Note_on_c, 0, 85, 60
1, 211989, Control_c, 0, 67, 68
1, 212039, Note_off_c, 0, 74, 55
1, 212048, Note_off_c, 0, 76, 53
1, 212058, Note_on_c, 0, 88, 76
1, 212072, Note_on_c, 0, 86, 67
1, 212079, Note_off_c, 0, 88, 70
1, 212113, Note_off_c, 0, 85, 61
1, 212137, Control_c, 0, 67, 69
1, 212149, Note_on_c, 0, 80, 51
1, 212182, Control_c, 0, 67, 69
1, 212206, Note_off_c, 0, 80, 50
1, 212209, Note_on_c, 0, 95, 78
1, 212227, Note_on_c, 0, 74, 48
1, 212227, Note_on_c, 0, 76, 44
1, 212231, Note_off_c, 0, 95, 68
1, 212236, Note_off_c, 0, 86, 59
1, 212269, Note_on_c, 0, 85, 55
1, 212341, Note_off_c, 0, 74, 56
1, 212350, Note_off_c, 0, 76, 53
1, 212360, Note_on_c, 0, 86, 67
1, 212366, Note_on_c, 0, 88, 75
1, 212403, Note_off_c, 0, 85, 59
1, 212433, Note_on_c, 0, 80, 54
1, 212498, Note_off_c, 0, 80, 57
1, 212511, Note_on_c, 0, 76, 21
1, 212514, Note_on_c, 0, 74, 58
1, 212533, Note_off_c, 0, 86, 61
1, 212540, Note_off_c, 0, 88, 58
1, 212555, Note_on_c, 0, 85, 62
1, 212574, Control_c, 0, 67, 69
1, 212580, Note_on_c, 0, 90, 72
1, 212604, Control_c, 0, 67, 68
1, 212632, Note_off_c, 0, 90, 63
1, 212640, Note_on_c, 0, 86, 72
1, 212642, Note_off_c, 0, 74, 34
1, 212651, Note_on_c, 0, 88, 71
1, 212673, Note_off_c, 0, 88, 69
1, 212678, Note_off_c, 0, 85, 56
1, 212678, Control_c, 0, 67, 68
1, 212701, Note_off_c, 0, 76, 40
1, 212707, Note_on_c, 0, 80, 63
1, 212737, Control_c, 0, 67, 67
1, 212803, Note_off_c, 0, 80, 58
1, 212821, Note_on_c, 0, 71, 80
1, 212826, Control_c, 0, 67, 67
1, 212830, Note_on_c, 0, 60, 62
1, 212830, Note_on_c, 0, 76, 48
1, 212833, Note_on_c, 0, 64, 53
1, 212833, Note_on_c, 0, 74, 64
1, 212839, Note_off_c, 0, 71, 73
1, 212841, Control_c, 0, 67, 66
1, 212848, Note_off_c, 0, 86, 61
1, 212849, Note_on_c, 0, 59, 35
1, 212857, Note_off_c, 0, 60, 66
1, 212857, Note_off_c, 0, 64, 61
1, 212871, Control_c, 0, 67, 65
1, 212876, Note_on_c, 0, 85, 67
1, 212880, Note_off_c, 0, 59, 53
1, 212915, Control_c, 0, 67, 66
1, 212916, Note_off_c, 0, 74, 51
1, 212953, Note_off_c, 0, 76, 36
1, 212959, Control_c, 0, 67, 66
1, 212970, Note_on_c, 0, 86, 76
1, 212974, Control_c, 0, 67, 67
1, 212982, Note_on_c, 0, 53, 77
1, 212982, Note_on_c, 0, 64, 62
1, 212989, Control_c, 0, 67, 67
1, 213005, Note_off_c, 0, 53, 68
1, 213015, Note_off_c, 0, 64, 66
1, 213035, Note_off_c, 0, 85, 38
1, 213053, Note_on_c, 0, 80, 63
1, 213056, Control_c, 0, 67, 66
1, 213071, Control_c, 0, 67, 65
1, 213086, Control_c, 0, 67, 64
1, 213100, Control_c, 0, 67, 64
1, 213114, Note_off_c, 0, 80, 61
1, 213115, Control_c, 0, 67, 63
1, 213130, Control_c, 0, 67, 63
1, 213147, Note_on_c, 0, 64, 50
1, 213150, Note_on_c, 0, 71, 54
1, 213159, Control_c, 0, 67, 63
1, 213160, Note_on_c, 0, 69, 37
1, 213161, Note_on_c, 0, 76, 37
1, 213164, Note_on_c, 0, 74, 52
1, 213170, Note_off_c, 0, 71, 64
1, 213172, Note_on_c, 0, 57, 17
1, 213173, Note_off_c, 0, 64, 59
1, 213174, Control_c, 0, 67, 64
1, 213189, Control_c, 0, 67, 64
1, 213191, Note_off_c, 0, 69, 56
1, 213193, Note_off_c, 0, 86, 61
1, 213205, Note_on_c, 0, 85, 75
1, 213218, Control_c, 0, 64, 111
1, 213218, Control_c, 0, 67, 65
1, 213219, Note_off_c, 0, 57, 41
1, 213233, Control_c, 0, 64, 86
1, 213249, Control_c, 0, 64, 74
1, 213249, Control_c, 0, 67, 64
1, 213264, Control_c, 0, 64, 71
1, 213279, Control_c, 0, 64, 76
1, 213289, Note_on_c, 0, 64, 63
1, 213294, Control_c, 0, 64, 88
1, 213305, Note_on_c, 0, 52, 55
1, 213307, Note_on_c, 0, 86, 70
1, 213308, Control_c, 0, 64, 114
1, 213308, Control_c, 0, 67, 64
1, 213310, Note_off_c, 0, 74, 38
1, 213313, Note_off_c, 0, 64, 67
1, 213323, Control_c, 0, 64, 127
1, 213331, Note_off_c, 0, 52, 57
1, 213331, Note_off_c, 0, 76, 40
1, 213338, Control_c, 0, 67, 63
1, 213347, Note_off_c, 0, 85, 51
1, 213360, Note_on_c, 0, 80, 64
1, 213368, Control_c, 0, 67, 63
1, 213382, Control_c, 0, 67, 62
1, 213397, Control_c, 0, 67, 62
1, 213419, Note_off_c, 0, 80, 61
1, 213429, Note_on_c, 0, 71, 74
1, 213431, Note_on_c, 0, 59, 74
1, 213431, Note_on_c, 0, 64, 59
1, 213448, Note_off_c, 0, 71, 72
1, 213452, Note_off_c, 0, 59, 67
1, 213453, Note_off_c, 0, 64, 61
1, 213461, Note_on_c, 0, 76, 34
1, 213464, Note_on_c, 0, 74, 55
1, 213471, Control_c, 0, 67, 61
1, 213501, Control_c, 0, 67, 61
1, 213515, Note_off_c, 0, 86, 61
1, 213530, Note_on_c, 0, 85, 67
1, 213560, Control_c, 0, 64, 95
1, 213575, Control_c, 0, 64, 57
1, 213575, Control_c, 0, 67, 61
1, 213581, Note_off_c, 0, 74, 55
1, 213588, Note_on_c, 0, 64, 68
1, 213590, Control_c, 0, 64, 0
1, 213598, Note_on_c, 0, 52, 66
1, 213602, Note_off_c, 0, 76, 44
1, 213621, Note_on_c, 0, 86, 74
1, 213649, Control_c, 0, 64, 64
1, 213652, Note_off_c, 0, 85, 56
1, 213664, Control_c, 0, 64, 79
1, 213664, Control_c, 0, 67, 62
1, 213675, Note_off_c, 0, 64, 63
1, 213679, Control_c, 0, 64, 105
1, 213689, Note_on_c, 0, 80, 60
1, 213694, Control_c, 0, 64, 127
1, 213723, Control_c, 0, 67, 61
1, 213753, Control_c, 0, 67, 61
1, 213765, Note_off_c, 0, 52, 53
1, 213770, Note_off_c, 0, 80, 55
1, 213779, Note_off_c, 0, 86, 61
1, 213780, Note_on_c, 0, 74, 60
1, 213781, Note_on_c, 0, 76, 55
1, 213807, Note_on_c, 0, 66, 68
1, 213812, Note_on_c, 0, 54, 60
1, 213823, Note_on_c, 0, 85, 54
1, 213832, Note_off_c, 0, 66, 66
1, 213840, Note_off_c, 0, 54, 64
1, 213892, Note_on_c, 0, 64, 76
1, 213894, Control_c, 0, 67, 60
1, 213894, Note_on_c, 0, 52, 63
1, 213905, Note_on_c, 0, 86, 67
1, 213915, Note_off_c, 0, 52, 63
1, 213915, Note_off_c, 0, 64, 71
1, 213935, Note_off_c, 0, 85, 59
1, 213959, Note_off_c, 0, 86, 62
1, 213967, Note_off_c, 0, 76, 42
1, 213967, Control_c, 0, 67, 61
1, 213970, Note_on_c, 0, 80, 53
1, 213982, Control_c, 0, 67, 62
1, 213983, Note_off_c, 0, 74, 45
1, 213990, Note_off_c, 0, 80, 62
1, 213997, Control_c, 0, 67, 63
1, 214012, Control_c, 0, 67, 64
1, 214027, Control_c, 0, 67, 66
1, 214043, Control_c, 0, 67, 67
1, 214058, Control_c, 0, 64, 81
1, 214058, Control_c, 0, 67, 68
1, 214067, Note_on_c, 0, 88, 83
1, 214072, Control_c, 0, 64, 0
1, 214072, Control_c, 0, 67, 69
1, 214106, Note_on_c, 0, 69, 48
1, 214109, Note_on_c, 0, 67, 56
1, 214117, Control_c, 0, 67, 68
1, 214131, Control_c, 0, 67, 67
1, 214141, Note_on_c, 0, 78, 63
1, 214146, Control_c, 0, 64, 61
1, 214146, Control_c, 0, 67, 66
1, 214161, Control_c, 0, 64, 71
1, 214161, Control_c, 0, 67, 65
1, 214176, Control_c, 0, 64, 85
1, 214176, Control_c, 0, 67, 64
1, 214190, Control_c, 0, 64, 124
1, 214190, Control_c, 0, 67, 63
1, 214191, Note_off_c, 0, 88, 61
1, 214205, Control_c, 0, 64, 127
1, 214205, Control_c, 0, 67, 61
1, 214220, Control_c, 0, 67, 60
1, 214227, Note_on_c, 0, 81, 83
1, 214235, Control_c, 0, 67, 58
1, 214238, Note_on_c, 0, 79, 72
1, 214250, Control_c, 0, 67, 56
1, 214255, Note_off_c, 0, 78, 50
1, 214262, Note_off_c, 0, 81, 61
1, 214264, Control_c, 0, 67, 53
1, 214279, Control_c, 0, 67, 51
1, 214284, Note_off_c, 0, 67, 36
1, 214294, Control_c, 0, 67, 50
1, 214309, Control_c, 0, 67, 49
1, 214312, Note_off_c, 0, 69, 41
1, 214313, Note_on_c, 0, 73, 66
1, 214324, Control_c, 0, 67, 48
1, 214338, Control_c, 0, 67, 48
1, 214353, Control_c, 0, 67, 47
1, 214368, Control_c, 0, 67, 47
1, 214374, Note_on_c, 0, 88, 93
1, 214383, Note_off_c, 0, 73, 61
1, 214398, Control_c, 0, 67, 46
1, 214404, Note_on_c, 0, 69, 51
1, 214409, Note_on_c, 0, 67, 63
1, 214410, Note_off_c, 0, 88, 60
1, 214420, Note_off_c, 0, 79, 59
1, 214448, Note_on_c, 0, 78, 65
1, 214472, Control_c, 0, 67, 46
1, 214487, Control_c, 0, 67, 45
1, 214509, Control_c, 0, 67, 44
1, 214512, Note_off_c, 0, 67, 51
1, 214521, Note_on_c, 0, 81, 96
1, 214524, Control_c, 0, 67, 43
1, 214534, Note_on_c, 0, 79, 75
1, 214538, Control_c, 0, 67, 40
1, 214548, Note_off_c, 0, 69, 37
1, 214553, Note_off_c, 0, 81, 66
1, 214553, Control_c, 0, 67, 37
1, 214567, Note_off_c, 0, 78, 60
1, 214568, Control_c, 0, 67, 35
1, 214581, Note_on_c, 0, 73, 71
1, 214583, Control_c, 0, 67, 33
1, 214627, Control_c, 0, 67, 35
1, 214642, Control_c, 0, 67, 36
1, 214645, Note_off_c, 0, 73, 62
1, 214657, Control_c, 0, 67, 38
1, 214661, Note_on_c, 0, 69, 30
1, 214664, Note_on_c, 0, 67, 60
1, 214670, Note_on_c, 0, 88, 95
1, 214671, Control_c, 0, 67, 40
1, 214686, Control_c, 0, 67, 40
1, 214701, Control_c, 0, 67, 41
1, 214705, Note_off_c, 0, 88, 63
1, 214710, Note_off_c, 0, 79, 57
1, 214711, Note_on_c, 0, 78, 70
1, 214715, Control_c, 0, 67, 41
1, 214745, Control_c, 0, 67, 42
1, 214775, Control_c, 0, 67, 42
1, 214817, Note_on_c, 0, 79, 72
1, 214827, Note_off_c, 0, 67, 55
1, 214831, Note_on_c, 0, 81, 85
1, 214835, Control_c, 0, 64, 100
1, 214850, Control_c, 0, 64, 71
1, 214863, Note_off_c, 0, 69, 39
1, 214865, Control_c, 0, 64, 0
1, 214886, Note_off_c, 0, 78, 38
1, 214890, Note_on_c, 0, 73, 62
1, 214924, Control_c, 0, 64, 32
1, 214924, Control_c, 0, 67, 42
1, 214939, Control_c, 0, 64, 64
1, 214954, Control_c, 0, 64, 73
1, 214954, Control_c, 0, 67, 41
1, 214963, Note_off_c, 0, 73, 61
1, 214967, Note_on_c, 0, 69, 40
1, 214968, Control_c, 0, 64, 85
1, 214978, Note_on_c, 0, 67, 63
1, 214983, Control_c, 0, 64, 106
1, 214983, Control_c, 0, 67, 41
1, 214985, Note_off_c, 0, 79, 55
1, 214998, Control_c, 0, 64, 127
1, 215021, Note_off_c, 0, 81, 59
1, 215033, Note_on_c, 0, 78, 64
1, 215053, Note_on_c, 0, 83, 75
1, 215107, Note_on_c, 0, 79, 67
1, 215122, Note_on_c, 0, 81, 80
1, 215127, Note_off_c, 0, 83, 64
1, 215139, Note_off_c, 0, 81, 72
1, 215146, Control_c, 0, 67, 41
1, 215149, Note_off_c, 0, 67, 45
1, 215152, Note_off_c, 0, 78, 59
1, 215161, Control_c, 0, 67, 42
1, 215176, Control_c, 0, 67, 42
1, 215181, Note_on_c, 0, 73, 67
1, 215211, Note_off_c, 0, 69, 43
1, 215235, Control_c, 0, 67, 42
1, 215272, Control_c, 0, 67, 41
1, 215278, Note_off_c, 0, 73, 60
1, 215286, Note_on_c, 0, 64, 81
1, 215301, Note_on_c, 0, 52, 62
1, 215301, Control_c, 0, 67, 41
1, 215308, Note_off_c, 0, 64, 72
1, 215312, Note_on_c, 0, 69, 48
1, 215319, Note_on_c, 0, 67, 63
1, 215331, Note_off_c, 0, 52, 63
1, 215339, Note_off_c, 0, 79, 57
1, 215353, Note_on_c, 0, 78, 69
1, 215360, Poly_aftertouch_c, 0, 53, 127
1, 215375, Control_c, 0, 64, 116
1, 215386, Poly_aftertouch_c, 0, 59, 0
1, 215390, Control_c, 0, 64, 104
1, 215390, Control_c, 0, 67, 41
1, 215401, Poly_aftertouch_c, 0, 53, 0
1, 215405, Control_c, 0, 64, 97
1, 215405, Control_c, 0, 67, 42
1, 215420, Control_c, 0, 64, 90
1, 215435, Control_c, 0, 64, 84
1, 215435, Control_c, 0, 67, 42
1, 215439, Note_off_c, 0, 67, 36
1, 215443, Note_on_c, 0, 45, 78
1, 215443, Note_on_c, 0, 57, 81
1, 215449, Note_on_c, 0, 79, 72
1, 215450, Control_c, 0, 64, 81
1, 215450, Control_c, 0, 67, 43
1, 215465, Note_off_c, 0, 57, 69
1, 215465, Control_c, 0, 64, 80
1, 215465, Note_off_c, 0, 45, 67
1, 215479, Note_off_c, 0, 69, 40
1, 215479, Control_c, 0, 64, 79
1, 215479, Control_c, 0, 67, 43
1, 215494, Control_c, 0, 64, 78
1, 215503, Note_off_c, 0, 78, 46
1, 215509, Control_c, 0, 64, 76
1, 215515, Note_on_c, 0, 73, 70
1, 215524, Control_c, 0, 64, 74
1, 215524, Control_c, 0, 67, 43
1, 215538, Control_c, 0, 64, 74
1, 215568, Control_c, 0, 67, 42
1, 215584, Note_off_c, 0, 73, 61
1, 215590, Note_on_c, 0, 64, 80
1, 215598, Note_on_c, 0, 52, 73
1, 215598, Control_c, 0, 64, 74
1, 215599, Note_on_c, 0, 57, 60
1, 215612, Note_off_c, 0, 64, 70
1, 215616, Note_on_c, 0, 69, 43
1, 215617, Note_on_c, 0, 67, 50
1, 215617, Note_off_c, 0, 57, 65
1, 215623, Note_off_c, 0, 52, 64
1, 215627, Control_c, 0, 67, 43
1, 215636, Note_off_c, 0, 79, 55
1, 215643, Control_c, 0, 67, 43
1, 215674, Note_on_c, 0, 78, 71
1, 215688, Control_c, 0, 64, 73
1, 215703, Control_c, 0, 64, 72
1, 215717, Control_c, 0, 64, 71
1, 215717, Control_c, 0, 67, 43
1, 215732, Control_c, 0, 64, 69
1, 215732, Control_c, 0, 67, 42
1, 215734, Note_off_c, 0, 67, 47
1, 215740, Note_on_c, 0, 57, 60
1, 215747, Control_c, 0, 64, 68
1, 215750, Note_on_c, 0, 45, 78
1, 215757, Note_on_c, 0, 79, 68
1, 215761, Control_c, 0, 64, 68
1, 215764, Note_off_c, 0, 69, 37
1, 215772, Note_off_c, 0, 57, 64
1, 215773, Note_off_c, 0, 45, 67
1, 215791, Control_c, 0, 67, 42
1, 215801, Note_off_c, 0, 78, 52
1, 215833, Note_on_c, 0, 73, 62
1, 215835, Control_c, 0, 64, 68
1, 215835, Control_c, 0, 67, 41
1, 215865, Control_c, 0, 64, 69
1, 215865, Control_c, 0, 67, 41
1, 215880, Control_c, 0, 64, 70
1, 215895, Control_c, 0, 64, 71
1, 215899, Note_off_c, 0, 73, 61
1, 215900, Note_on_c, 0, 64, 73
1, 215906, Note_on_c, 0, 52, 70
1, 215909, Control_c, 0, 64, 74
1, 215917, Note_on_c, 0, 57, 51
1, 215924, Note_off_c, 0, 64, 70
1, 215924, Control_c, 0, 64, 76
1, 215931, Note_off_c, 0, 52, 66
1, 215932, Note_on_c, 0, 69, 41
1, 215933, Note_on_c, 0, 67, 43
1, 215939, Control_c, 0, 64, 77
1, 215951, Note_off_c, 0, 57, 33
1, 215954, Control_c, 0, 64, 78
1, 215968, Control_c, 0, 64, 78
1, 215973, Note_off_c, 0, 79, 53
1, 215994, Note_on_c, 0, 78, 66
1, 216035, Control_c, 0, 64, 75
1, 216050, Control_c, 0, 64, 67
1, 216050, Control_c, 0, 67, 41
1, 216065, Control_c, 0, 64, 54
1, 216080, Control_c, 0, 64, 0
1, 216092, Note_on_c, 0, 57, 56
1, 216097, Note_off_c, 0, 67, 50
1, 216099, Note_on_c, 0, 45, 67
1, 216104, Note_on_c, 0, 79, 62
1, 216109, Note_off_c, 0, 69, 45
1, 216139, Control_c, 0, 64, 55
1, 216154, Control_c, 0, 64, 66
1, 216165, Note_off_c, 0, 78, 49
1, 216168, Control_c, 0, 64, 75
1, 216171, Note_on_c, 0, 73, 62
1, 216183, Control_c, 0, 64, 87
1, 216183, Control_c, 0, 67, 41
1, 216198, Note_off_c, 0, 57, 59
1, 216198, Control_c, 0, 64, 104
1, 216198, Control_c, 0, 67, 40
1, 216213, Control_c, 0, 64, 127
1, 216228, Control_c, 0, 67, 40
1, 216243, Note_off_c, 0, 73, 61
1, 216268, Note_on_c, 0, 69, 39
1, 216270, Note_on_c, 0, 67, 41
1, 216310, Note_off_c, 0, 79, 53
1, 216332, Note_off_c, 0, 45, 50
1, 216334, Note_on_c, 0, 78, 62
1, 216336, Note_on_c, 0, 59, 61
1, 216353, Note_on_c, 0, 47, 49
1, 216361, Control_c, 0, 64, 108
1, 216363, Note_off_c, 0, 59, 64
1, 216376, Control_c, 0, 64, 83
1, 216376, Control_c, 0, 67, 40
1, 216382, Note_off_c, 0, 47, 58
1, 216391, Control_c, 0, 64, 65
1, 216406, Control_c, 0, 64, 0
1, 216430, Note_on_c, 0, 79, 61
1, 216436, Control_c, 0, 64, 50
1, 216442, Note_on_c, 0, 57, 55
1, 216444, Note_on_c, 0, 45, 54
1, 216451, Control_c, 0, 64, 66
1, 216466, Control_c, 0, 64, 74
1, 216466, Control_c, 0, 67, 40
1, 216466, Note_off_c, 0, 57, 58
1, 216471, Note_off_c, 0, 45, 56
1, 216481, Control_c, 0, 64, 87
1, 216481, Control_c, 0, 67, 39
1, 216496, Control_c, 0, 64, 112
1, 216496, Control_c, 0, 67, 39
1, 216508, Note_off_c, 0, 69, 49
1, 216511, Control_c, 0, 64, 127
1, 216511, Control_c, 0, 67, 38
1, 216515, Note_off_c, 0, 67, 40
1, 216530, Note_on_c, 0, 73, 51
1, 216572, Note_off_c, 0, 78, 24
1, 216610, Note_off_c, 0, 73, 56
1, 216662, Note_on_c, 0, 69, 52
1, 216672, Note_on_c, 0, 67, 62
1, 216688, Control_c, 0, 64, 85
1, 216703, Control_c, 0, 64, 67
1, 216707, Note_off_c, 0, 79, 54
1, 216718, Control_c, 0, 64, 66
1, 216732, Control_c, 0, 64, 72
1, 216732, Control_c, 0, 67, 38
1, 216747, Control_c, 0, 64, 80
1, 216758, Note_on_c, 0, 76, 55
1, 216763, Note_off_c, 0, 67, 60
1, 216770, Control_c, 0, 64, 92
1, 216770, Control_c, 0, 67, 37
1, 216784, Control_c, 0, 64, 120
1, 216784, Control_c, 0, 67, 37
1, 216799, Control_c, 0, 64, 127
1, 216799, Control_c, 0, 67, 36
1, 216814, Control_c, 0, 67, 36
1, 216844, Note_off_c, 0, 69, 42
1, 216844, Control_c, 0, 67, 35
1, 216849, Note_on_c, 0, 81, 63
1, 216855, Note_on_c, 0, 50, 54
1, 216859, Control_c, 0, 67, 34
1, 216874, Control_c, 0, 67, 34
1, 216883, Note_off_c, 0, 50, 62
1, 216899, Note_off_c, 0, 76, 58
1, 216936, Note_on_c, 0, 74, 58
1, 216955, Note_off_c, 0, 81, 55
1, 216981, Note_off_c, 0, 74, 61
1, 217002, Note_on_c, 0, 66, 81
1, 217007, Control_c, 0, 67, 34
1, 217018, Note_on_c, 0, 69, 64
1, 217084, Note_on_c, 0, 74, 75
1, 217155, Control_c, 0, 64, 82
1, 217161, Note_on_c, 0, 52, 73
1, 217161, Note_off_c, 0, 69, 36
1, 217164, Note_on_c, 0, 81, 67
1, 217170, Control_c, 0, 64, 60
1, 217185, Control_c, 0, 64, 0
1, 217185, Control_c, 0, 67, 34
1, 217193, Note_off_c, 0, 74, 42
1, 217200, Control_c, 0, 64, 61
1, 217215, Control_c, 0, 64, 70
1, 217215, Control_c, 0, 67, 33
1, 217223, Note_off_c, 0, 66, 61
1, 217230, Control_c, 0, 64, 81
1, 217245, Control_c, 0, 64, 106
1, 217252, Note_on_c, 0, 73, 68
1, 217260, Control_c, 0, 64, 127
1, 217260, Control_c, 0, 67, 33
1, 217274, Control_c, 0, 67, 32
1, 217289, Control_c, 0, 67, 31
1, 217304, Control_c, 0, 67, 27
1, 217309, Note_off_c, 0, 73, 63
1, 217314, Note_off_c, 0, 52, 61
1, 217319, Control_c, 0, 67, 23
1, 217328, Note_on_c, 0, 69, 71
1, 217334, Note_on_c, 0, 64, 84
1, 217334, Control_c, 0, 67, 20
1, 217349, Control_c, 0, 67, 18
1, 217364, Control_c, 0, 67, 18
1, 217403, Note_off_c, 0, 81, 60
1, 217416, Note_on_c, 0, 73, 71
1, 217453, Control_c, 0, 67, 19
1, 217468, Control_c, 0, 67, 19
1, 217476, Note_off_c, 0, 73, 63
1, 217482, Control_c, 0, 67, 20
1, 217486, Note_off_c, 0, 69, 38
1, 217487, Note_on_c, 0, 81, 71
1, 217497, Control_c, 0, 64, 116
1, 217497, Control_c, 0, 67, 20
1, 217498, Note_on_c, 0, 54, 75
1, 217519, Control_c, 0, 64, 79
1, 217533, Control_c, 0, 64, 36
1, 217533, Control_c, 0, 67, 21
1, 217548, Control_c, 0, 64, 0
1, 217593, Control_c, 0, 64, 59
1, 217608, Control_c, 0, 64, 70
1, 217608, Control_c, 0, 67, 20
1, 217623, Control_c, 0, 64, 83
1, 217626, Note_on_c, 0, 72, 23
1, 217638, Control_c, 0, 64, 108
1, 217638, Control_c, 0, 67, 20
1, 217653, Control_c, 0, 64, 127
1, 217653, Control_c, 0, 67, 19
1, 217661, Note_off_c, 0, 81, 34
1, 217665, Note_on_c, 0, 69, 57
1, 217665, Note_off_c, 0, 72, 47
1, 217668, Control_c, 0, 67, 17
1, 217671, Note_on_c, 0, 63, 82
1, 217682, Control_c, 0, 67, 16
1, 217697, Control_c, 0, 67, 13
1, 217711, Note_off_c, 0, 64, 57
1, 217712, Control_c, 0, 67, 9
1, 217723, Note_off_c, 0, 69, 53
1, 217727, Control_c, 0, 67, 0
1, 217733, Note_on_c, 0, 72, 72
1, 217781, Note_off_c, 0, 72, 61
1, 217802, Note_on_c, 0, 81, 72
1, 217817, Note_on_c, 0, 59, 78
1, 217843, Note_off_c, 0, 54, 62
1, 217867, Note_off_c, 0, 81, 59
1, 217898, Note_on_c, 0, 71, 57
1, 217919, Note_off_c, 0, 71, 63
1, 217941, Note_off_c, 0, 63, 57
1, 217959, Note_on_c, 0, 69, 89
1, 217981, Note_on_c, 0, 71, 75
1, 218028, Note_off_c, 0, 69, 57
1, 218052, Note_on_c, 0, 78, 80
1, 218068, Control_c, 0, 64, 113
1, 218072, Note_off_c, 0, 71, 56
1, 218083, Control_c, 0, 64, 78
1, 218097, Control_c, 0, 64, 64
1, 218112, Control_c, 0, 64, 65
1, 218114, Note_off_c, 0, 59, 64
1, 218121, Note_on_c, 0, 52, 83
1, 218127, Control_c, 0, 64, 75
1, 218130, Note_on_c, 0, 83, 77
1, 218142, Control_c, 0, 64, 91
1, 218151, Note_off_c, 0, 52, 64
1, 218156, Control_c, 0, 64, 127
1, 218169, Note_off_c, 0, 78, 49
1, 218205, Note_on_c, 0, 76, 74
1, 218222, Note_off_c, 0, 83, 61
1, 218263, Note_off_c, 0, 76, 62
1, 218281, Note_on_c, 0, 68, 92
1, 218287, Note_on_c, 0, 71, 74
1, 218363, Note_on_c, 0, 76, 79
1, 218431, Control_c, 0, 64, 102
1, 218431, Note_on_c, 0, 83, 85
1, 218433, Note_off_c, 0, 76, 63
1, 218436, Note_on_c, 0, 54, 84
1, 218446, Control_c, 0, 64, 72
1, 218461, Control_c, 0, 64, 0
1, 218475, Control_c, 0, 64, 44
1, 218479, Note_off_c, 0, 71, 48
1, 218483, Note_off_c, 0, 68, 57
1, 218490, Control_c, 0, 64, 68
1, 218505, Control_c, 0, 64, 81
1, 218509, Note_on_c, 0, 75, 76
1, 218520, Control_c, 0, 64, 127
1, 218573, Note_off_c, 0, 75, 63
1, 218575, Note_on_c, 0, 71, 82
1, 218577, Note_off_c, 0, 54, 57
1, 218578, Note_on_c, 0, 66, 95
1, 218663, Note_on_c, 0, 75, 76
1, 218671, Note_off_c, 0, 83, 63
1, 218732, Note_off_c, 0, 71, 56
1, 218745, Note_off_c, 0, 75, 63
1, 218748, Note_on_c, 0, 83, 74
1, 218756, Control_c, 0, 64, 115
1, 218759, Note_on_c, 0, 56, 79
1, 218771, Control_c, 0, 64, 74
1, 218786, Control_c, 0, 64, 0
1, 218832, Control_c, 0, 64, 63
1, 218842, Note_on_c, 0, 74, 77
1, 218846, Control_c, 0, 64, 75
1, 218848, Note_off_c, 0, 83, 58
1, 218861, Control_c, 0, 64, 97
1, 218876, Control_c, 0, 64, 127
1, 218888, Note_off_c, 0, 74, 62
1, 218889, Note_on_c, 0, 71, 71
1, 218905, Note_on_c, 0, 65, 85
1, 218923, Note_off_c, 0, 66, 59
1, 218967, Note_off_c, 0, 71, 61
1, 218970, Note_on_c, 0, 74, 79
1, 219023, Note_off_c, 0, 74, 63
1, 219031, Note_on_c, 0, 83, 77
1, 219068, Note_on_c, 0, 61, 85
1, 219075, Note_off_c, 0, 56, 64
1, 219081, Note_off_c, 0, 83, 64
1, 219114, Note_on_c, 0, 73, 80
1, 219140, Note_off_c, 0, 73, 66
1, 219194, Note_on_c, 0, 71, 94
1, 219208, Note_on_c, 0, 73, 82
1, 219236, Note_off_c, 0, 65, 61
1, 219253, Note_off_c, 0, 71, 63
1, 219281, Note_on_c, 0, 80, 77
1, 219301, Note_off_c, 0, 73, 59
1, 219349, Note_on_c, 0, 54, 85
1, 219357, Note_on_c, 0, 85, 85
1, 219432, Note_off_c, 0, 80, 58
1, 219433, Note_off_c, 0, 54, 64
1, 219439, Note_on_c, 0, 78, 76
1, 219474, Note_off_c, 0, 85, 60
1, 219504, Note_on_c, 0, 69, 97
1, 219512, Note_off_c, 0, 78, 60
1, 219516, Note_on_c, 0, 73, 85
1, 219549, Control_c, 0, 64, 90
1, 219564, Control_c, 0, 64, 52
1, 219578, Control_c, 0, 64, 0
1, 219593, Control_c, 0, 64, 38
1, 219608, Control_c, 0, 64, 66
1, 219609, Note_on_c, 0, 78, 81
1, 219624, Control_c, 0, 64, 77
1, 219639, Control_c, 0, 64, 97
1, 219650, Note_off_c, 0, 73, 57
1, 219654, Control_c, 0, 64, 127
1, 219662, Note_on_c, 0, 85, 85
1, 219676, Note_on_c, 0, 56, 85
1, 219704, Note_off_c, 0, 69, 61
1, 219746, Note_on_c, 0, 76, 82
1, 219783, Note_off_c, 0, 56, 64
1, 219828, Note_on_c, 0, 73, 88
1, 219829, Note_off_c, 0, 76, 62
1, 219831, Note_on_c, 0, 68, 102
1, 219856, Note_off_c, 0, 78, 35
1, 219914, Note_on_c, 0, 76, 81
1, 219915, Note_off_c, 0, 85, 62
1, 219957, Note_off_c, 0, 61, 52
1, 219987, Note_off_c, 0, 76, 63
1, 220002, Note_on_c, 0, 57, 80
1, 220004, Note_on_c, 0, 85, 92
1, 220032, Control_c, 0, 64, 86
1, 220044, Note_off_c, 0, 73, 58
1, 220047, Control_c, 0, 64, 0
1, 220081, Note_on_c, 0, 75, 78
1, 220091, Control_c, 0, 64, 63
1, 220106, Control_c, 0, 64, 71
1, 220121, Control_c, 0, 64, 83
1, 220136, Control_c, 0, 64, 123
1, 220151, Control_c, 0, 64, 127
1, 220154, Note_off_c, 0, 75, 64
1, 220155, Note_on_c, 0, 73, 90
1, 220170, Note_on_c, 0, 66, 92
1, 220233, Note_off_c, 0, 68, 51
1, 220237, Note_off_c, 0, 85, 58
1, 220243, Note_on_c, 0, 75, 91
1, 220269, Note_off_c, 0, 73, 62
1, 220330, Note_on_c, 0, 85, 97
1, 220336, Note_on_c, 0, 63, 82
1, 220343, Control_c, 0, 64, 86
1, 220358, Control_c, 0, 64, 52
1, 220373, Control_c, 0, 64, 0
1, 220388, Control_c, 0, 64, 44
1, 220402, Control_c, 0, 64, 68
1, 220417, Control_c, 0, 64, 82
1, 220418, Note_on_c, 0, 73, 90
1, 220433, Control_c, 0, 64, 108
1, 220448, Note_off_c, 0, 75, 63
1, 220448, Control_c, 0, 64, 127
1, 220452, Note_off_c, 0, 57, 34
1, 220481, Note_off_c, 0, 73, 62
1, 220503, Note_off_c, 0, 66, 0
1, 220518, Note_off_c, 0, 85, 62
1, 220522, Note_on_c, 0, 66, 52
1, 220524, Note_on_c, 0, 69, 84
1, 220538, Note_on_c, 0, 73, 86
1, 220587, Note_on_c, 0, 75, 23
1, 220622, Note_on_c, 0, 85, 92
1, 220629, Note_on_c, 0, 82, 62
1, 220631, Note_off_c, 0, 75, 52
1, 220636, Note_on_c, 0, 81, 83
1, 220676, Note_off_c, 0, 82, 40
1, 220704, Note_off_c, 0, 81, 61
1, 220715, Note_off_c, 0, 85, 62
1, 220743, Note_off_c, 0, 66, 35
1, 220766, Control_c, 0, 64, 120
1, 220781, Note_on_c, 0, 85, 93
1, 220781, Control_c, 0, 64, 76
1, 220789, Note_on_c, 0, 56, 72
1, 220792, Note_on_c, 0, 81, 83
1, 220792, Note_off_c, 0, 73, 60
1, 220796, Control_c, 0, 64, 0
1, 220840, Control_c, 0, 64, 68
1, 220842, Note_off_c, 0, 69, 50
1, 220855, Control_c, 0, 64, 88
1, 220870, Control_c, 0, 64, 127
1, 220911, Note_on_c, 0, 73, 82
1, 220959, Note_off_c, 0, 81, 61
1, 220964, Note_off_c, 0, 73, 64
1, 220974, Note_off_c, 0, 85, 65
1, 221014, Note_on_c, 0, 68, 81
1, 221021, Note_on_c, 0, 66, 66
1, 221024, Note_on_c, 0, 72, 85
1, 221088, Note_on_c, 0, 84, 85
1, 221089, Note_on_c, 0, 80, 83
1, 221093, Note_off_c, 0, 56, 39
1, 221099, Note_off_c, 0, 72, 59
1, 221108, Note_off_c, 0, 80, 69
1, 221112, Note_off_c, 0, 84, 64
1, 221122, Control_c, 0, 64, 77
1, 221137, Control_c, 0, 64, 0
1, 221166, Control_c, 0, 64, 64
1, 221168, Note_on_c, 0, 84, 92
1, 221172, Note_on_c, 0, 56, 81
1, 221175, Note_on_c, 0, 80, 95
1, 221181, Control_c, 0, 64, 86
1, 221191, Note_off_c, 0, 66, 58
1, 221196, Control_c, 0, 64, 127
1, 221210, Note_on_c, 0, 82, 54
1, 221213, Note_off_c, 0, 68, 56
1, 221235, Note_off_c, 0, 82, 59
1, 221236, Note_off_c, 0, 56, 66
1, 221270, Note_off_c, 0, 63, 40
1, 221283, Note_on_c, 0, 72, 77
1, 221287, Note_off_c, 0, 84, 60
1, 221305, Note_off_c, 0, 72, 71
1, 221306, Note_off_c, 0, 80, 61
1, 221370, Note_on_c, 0, 72, 76
1, 221380, Note_on_c, 0, 78, 91
1, 221382, Note_on_c, 0, 68, 58
1, 221402, Note_on_c, 0, 71, 45
1, 221403, Note_off_c, 0, 71, 127
1, 221404, Note_off_c, 0, 68, 58
1, 221410, Note_on_c, 0, 67, 49
1, 221416, Note_off_c, 0, 72, 57
1, 221436, Note_off_c, 0, 67, 59
1, 221444, Note_on_c, 0, 90, 82
1, 221446, Note_on_c, 0, 87, 84
1, 221452, Note_off_c, 0, 78, 61
1, 221468, Note_off_c, 0, 87, 70
1, 221471, Control_c, 0, 64, 97
1, 221481, Note_off_c, 0, 90, 62
1, 221486, Control_c, 0, 64, 71
1, 221501, Control_c, 0, 64, 69
1, 221515, Note_on_c, 0, 56, 82
1, 221516, Control_c, 0, 64, 90
1, 221519, Note_on_c, 0, 90, 91
1, 221528, Note_on_c, 0, 87, 100
1, 221530, Control_c, 0, 64, 127
1, 221558, Note_off_c, 0, 56, 67
1, 221592, Note_off_c, 0, 87, 60
1, 221608, Note_on_c, 0, 78, 83
1, 221611, Note_off_c, 0, 90, 61
1, 221648, Note_off_c, 0, 78, 65
1, 221689, Note_on_c, 0, 73, 94
1, 221701, Note_on_c, 0, 68, 81
1, 221705, Note_on_c, 0, 76, 96
1, 221731, Note_off_c, 0, 73, 64
1, 221754, Note_off_c, 0, 68, 62
1, 221766, Note_off_c, 0, 76, 56
1, 221776, Note_on_c, 0, 85, 77
1, 221776, Note_on_c, 0, 88, 85
1, 221796, Note_off_c, 0, 85, 71
1, 221811, Note_off_c, 0, 88, 61
1, 221826, Control_c, 0, 64, 81
1, 221841, Control_c, 0, 64, 23
1, 221848, Note_on_c, 0, 56, 81
1, 221856, Control_c, 0, 64, 50
1, 221857, Note_on_c, 0, 88, 83
1, 221865, Note_on_c, 0, 85, 86
1, 221871, Control_c, 0, 64, 70
1, 221883, Note_on_c, 0, 84, 74
1, 221886, Control_c, 0, 64, 90
1, 221900, Control_c, 0, 64, 127
1, 221901, Note_off_c, 0, 56, 65
1, 221903, Note_off_c, 0, 85, 45
1, 221908, Note_off_c, 0, 84, 61
1, 221924, Note_on_c, 0, 76, 85
1, 221926, Note_off_c, 0, 88, 61
1, 221963, Note_off_c, 0, 76, 62
1, 222012, Note_on_c, 0, 69, 97
1, 222023, Note_on_c, 0, 66, 89
1, 222043, Note_on_c, 0, 73, 100
1, 222101, Note_on_c, 0, 81, 70
1, 222112, Note_off_c, 0, 73, 63
1, 222121, Note_on_c, 0, 85, 67
1, 222145, Note_off_c, 0, 85, 66
1, 222145, Control_c, 0, 64, 90
1, 222147, Note_off_c, 0, 81, 63
1, 222153, Note_off_c, 0, 66, 59
1, 222160, Control_c, 0, 64, 73
1, 222163, Note_off_c, 0, 69, 59
1, 222175, Control_c, 0, 64, 77
1, 222184, Note_on_c, 0, 56, 82
1, 222184, Note_on_c, 0, 81, 76
1, 222190, Note_on_c, 0, 85, 93
1, 222190, Control_c, 0, 64, 110
1, 222205, Control_c, 0, 64, 127
1, 222232, Note_off_c, 0, 56, 68
1, 222259, Note_on_c, 0, 73, 86
1, 222259, Note_off_c, 0, 81, 62
1, 222279, Note_off_c, 0, 85, 64
1, 222307, Note_off_c, 0, 73, 63
1, 222344, Note_on_c, 0, 68, 95
1, 222351, Note_on_c, 0, 66, 84
1, 222353, Note_on_c, 0, 72, 91
1, 222412, Control_c, 0, 64, 105
1, 222418, Note_on_c, 0, 80, 81
1, 222419, Note_off_c, 0, 72, 55
1, 222422, Note_on_c, 0, 84, 77
1, 222427, Control_c, 0, 64, 70
1, 222442, Control_c, 0, 64, 0
1, 222444, Note_off_c, 0, 80, 62
1, 222455, Note_off_c, 0, 84, 63
1, 222471, Note_off_c, 0, 66, 60
1, 222471, Control_c, 0, 64, 64
1, 222486, Control_c, 0, 64, 84
1, 222497, Note_on_c, 0, 84, 74
1, 222500, Note_on_c, 0, 56, 84
1, 222501, Control_c, 0, 64, 127
1, 222509, Note_on_c, 0, 80, 92
1, 222518, Note_off_c, 0, 68, 58
1, 222540, Note_off_c, 0, 56, 68
1, 222583, Note_on_c, 0, 72, 78
1, 222591, Note_off_c, 0, 84, 64
1, 222595, Note_off_c, 0, 80, 65
1, 222601, Note_off_c, 0, 72, 72
1, 222664, Note_on_c, 0, 72, 87
1, 222666, Note_on_c, 0, 68, 88
1, 222678, Note_on_c, 0, 78, 98
1, 222704, Note_off_c, 0, 72, 61
1, 222723, Note_off_c, 0, 68, 53
1, 222740, Note_on_c, 0, 90, 80
1, 222742, Note_on_c, 0, 87, 85
1, 222743, Note_off_c, 0, 78, 64
1, 222790, Control_c, 0, 64, 82
1, 222792, Note_off_c, 0, 90, 66
1, 222795, Note_off_c, 0, 87, 63
1, 222804, Control_c, 0, 64, 58
1, 222820, Control_c, 0, 64, 59
1, 222825, Note_on_c, 0, 56, 83
1, 222833, Note_on_c, 0, 87, 86
1, 222835, Control_c, 0, 64, 75
1, 222836, Note_on_c, 0, 90, 71
1, 222850, Control_c, 0, 64, 119
1, 222865, Control_c, 0, 64, 127
1, 222872, Note_off_c, 0, 56, 63
1, 222889, Note_on_c, 0, 78, 82
1, 222899, Note_off_c, 0, 87, 67
1, 222903, Note_off_c, 0, 90, 65
1, 222939, Note_off_c, 0, 78, 65
1, 222985, Note_on_c, 0, 73, 91
1, 222997, Note_on_c, 0, 68, 79
1, 223000, Note_on_c, 0, 76, 94
1, 223029, Note_off_c, 0, 73, 63
1, 223045, Note_off_c, 0, 68, 63
1, 223065, Note_on_c, 0, 85, 76
1, 223069, Note_off_c, 0, 76, 55
1, 223072, Note_on_c, 0, 88, 77
1, 223087, Control_c, 0, 64, 96
1, 223088, Note_off_c, 0, 85, 67
1, 223100, Note_off_c, 0, 88, 64
1, 223102, Control_c, 0, 64, 65
1, 223117, Control_c, 0, 64, 0
1, 223132, Control_c, 0, 64, 60
1, 223136, Note_on_c, 0, 56, 81
1, 223146, Control_c, 0, 64, 77
1, 223147, Note_on_c, 0, 88, 82
1, 223161, Control_c, 0, 64, 127
1, 223165, Note_on_c, 0, 85, 87
1, 223197, Note_off_c, 0, 56, 64
1, 223206, Note_off_c, 0, 88, 62
1, 223208, Note_on_c, 0, 76, 81
1, 223211, Note_off_c, 0, 85, 55
1, 223239, Note_off_c, 0, 76, 62
1, 223301, Note_on_c, 0, 61, 86
1, 223305, Note_on_c, 0, 69, 73
1, 223310, Note_on_c, 0, 71, 64
1, 223315, Note_on_c, 0, 73, 93
1, 223328, Note_off_c, 0, 69, 71
1, 223328, Note_off_c, 0, 71, 67
1, 223346, Note_off_c, 0, 61, 60
1, 223363, Note_on_c, 0, 81, 65
1, 223376, Note_off_c, 0, 73, 62
1, 223394, Note_on_c, 0, 85, 43
1, 223410, Note_off_c, 0, 81, 65
1, 223413, Control_c, 0, 64, 100
1, 223419, Note_off_c, 0, 85, 57
1, 223427, Control_c, 0, 64, 67
1, 223442, Control_c, 0, 64, 27
1, 223448, Note_on_c, 0, 45, 93
1, 223457, Control_c, 0, 64, 69
1, 223458, Note_on_c, 0, 81, 81
1, 223462, Note_on_c, 0, 85, 79
1, 223471, Control_c, 0, 64, 100
1, 223474, Note_off_c, 0, 45, 69
1, 223486, Control_c, 0, 64, 127
1, 223521, Note_on_c, 0, 73, 83
1, 223528, Note_off_c, 0, 81, 63
1, 223537, Note_off_c, 0, 85, 63
1, 223563, Note_off_c, 0, 73, 63
1, 223609, Note_on_c, 0, 68, 88
1, 223622, Note_on_c, 0, 71, 95
1, 223623, Note_on_c, 0, 60, 66
1, 223626, Note_on_c, 0, 59, 63
1, 223635, Note_off_c, 0, 68, 64
1, 223647, Note_off_c, 0, 60, 67
1, 223653, Note_off_c, 0, 59, 64
1, 223679, Note_on_c, 0, 83, 79
1, 223680, Note_off_c, 0, 71, 63
1, 223680, Note_on_c, 0, 80, 74
1, 223704, Note_off_c, 0, 80, 66
1, 223722, Note_off_c, 0, 83, 64
1, 223732, Control_c, 0, 64, 74
1, 223747, Control_c, 0, 64, 0
1, 223756, Note_on_c, 0, 47, 88
1, 223765, Note_on_c, 0, 83, 70
1, 223768, Note_on_c, 0, 80, 88
1, 223776, Control_c, 0, 64, 69
1, 223791, Control_c, 0, 64, 93
1, 223793, Note_off_c, 0, 47, 63
1, 223806, Control_c, 0, 64, 127
1, 223808, Note_on_c, 0, 71, 74
1, 223820, Note_off_c, 0, 83, 64
1, 223822, Note_on_c, 0, 72, 53
1, 223825, Note_off_c, 0, 80, 63
1, 223842, Note_off_c, 0, 72, 61
1, 223853, Note_off_c, 0, 71, 65
1, 223908, Note_on_c, 0, 66, 95
1, 223911, Note_on_c, 0, 69, 90
1, 223913, Note_on_c, 0, 57, 85
1, 223929, Note_on_c, 0, 61, 55
1, 223949, Note_off_c, 0, 66, 65
1, 223951, Note_off_c, 0, 61, 61
1, 223966, Note_off_c, 0, 57, 63
1, 223978, Note_on_c, 0, 81, 80
1, 223981, Note_on_c, 0, 78, 80
1, 223988, Note_off_c, 0, 69, 62
1, 224012, Note_off_c, 0, 78, 58
1, 224055, Note_on_c, 0, 48, 99
1, 224058, Control_c, 0, 64, 102
1, 224067, Note_on_c, 0, 78, 84
1, 224073, Control_c, 0, 64, 67
1, 224088, Control_c, 0, 64, 27
1, 224091, Note_on_c, 0, 69, 68
1, 224102, Control_c, 0, 64, 66
1, 224108, Note_off_c, 0, 48, 65
1, 224113, Note_off_c, 0, 81, 61
1, 224117, Control_c, 0, 64, 88
1, 224132, Control_c, 0, 64, 127
1, 224139, Note_off_c, 0, 78, 63
1, 224143, Note_off_c, 0, 69, 65
1, 224209, Note_on_c, 0, 64, 95
1, 224214, Note_on_c, 0, 56, 97
1, 224220, Note_on_c, 0, 68, 91
1, 224260, Note_off_c, 0, 64, 64
1, 224261, Note_on_c, 0, 76, 73
1, 224291, Note_off_c, 0, 56, 61
1, 224291, Note_off_c, 0, 68, 62
1, 224293, Note_on_c, 0, 80, 52
1, 224318, Note_off_c, 0, 80, 65
1, 224325, Note_off_c, 0, 76, 62
1, 224332, Control_c, 0, 64, 71
1, 224347, Control_c, 0, 64, 0
1, 224361, Note_on_c, 0, 49, 98
1, 224371, Note_on_c, 0, 76, 81
1, 224376, Control_c, 0, 64, 59
1, 224384, Note_on_c, 0, 80, 71
1, 224391, Control_c, 0, 64, 90
1, 224394, Note_on_c, 0, 81, 81
1, 224405, Note_off_c, 0, 49, 65
1, 224406, Control_c, 0, 64, 127
1, 224438, Note_on_c, 0, 68, 88
1, 224456, Note_off_c, 0, 81, 51
1, 224467, Note_off_c, 0, 76, 60
1, 224475, Note_off_c, 0, 68, 67
1, 224485, Note_off_c, 0, 80, 62
1, 224543, Note_on_c, 0, 71, 97
1, 224545, Note_on_c, 0, 63, 71
1, 224554, Note_on_c, 0, 62, 85
1, 224557, Note_on_c, 0, 74, 98
1, 224576, Note_off_c, 0, 71, 60
1, 224577, Note_off_c, 0, 62, 66
1, 224587, Note_off_c, 0, 63, 52
1, 224619, Note_on_c, 0, 86, 88
1, 224627, Note_on_c, 0, 83, 80
1, 224652, Note_off_c, 0, 74, 59
1, 224653, Note_on_c, 0, 84, 37
1, 224654, Note_off_c, 0, 84, 127
1, 224676, Note_off_c, 0, 83, 65
1, 224688, Note_off_c, 0, 86, 65
1, 224730, Note_on_c, 0, 49, 97
1, 224732, Control_c, 0, 64, 84
1, 224742, Note_on_c, 0, 86, 82
1, 224747, Control_c, 0, 64, 73
1, 224749, Note_on_c, 0, 83, 92
1, 224762, Control_c, 0, 64, 86
1, 224773, Note_off_c, 0, 49, 65
1, 224777, Control_c, 0, 64, 127
1, 224822, Note_off_c, 0, 86, 61
1, 224831, Note_on_c, 0, 74, 83
1, 224832, Note_off_c, 0, 83, 57
1, 224869, Note_off_c, 0, 74, 64
1, 224899, Note_on_c, 0, 69, 83
1, 224911, Note_on_c, 0, 61, 81
1, 224927, Note_on_c, 0, 73, 96
1, 224938, Note_off_c, 0, 69, 61
1, 224954, Note_on_c, 0, 81, 59
1, 224956, Note_off_c, 0, 61, 59
1, 224984, Poly_aftertouch_c, 0, 63, 127
1, 224998, Note_off_c, 0, 73, 63
1, 225019, Note_off_c, 0, 81, 64
1, 225030, Poly_aftertouch_c, 0, 63, 0
1, 225036, Control_c, 0, 64, 76
1, 225051, Control_c, 0, 64, 0
1, 225056, Note_on_c, 0, 85, 82
1, 225059, Note_on_c, 0, 51, 86
1, 225059, Note_on_c, 0, 81, 72
1, 225081, Control_c, 0, 64, 68
1, 225096, Control_c, 0, 64, 92
1, 225111, Control_c, 0, 64, 127
1, 225116, Note_off_c, 0, 51, 65
1, 225121, Note_on_c, 0, 73, 86
1, 225129, Note_off_c, 0, 81, 64
1, 225147, Note_off_c, 0, 85, 62
1, 225171, Note_off_c, 0, 73, 64
1, 225220, Note_on_c, 0, 68, 84
1, 225227, Note_on_c, 0, 71, 89
1, 225230, Note_on_c, 0, 59, 66
1, 225242, Note_on_c, 0, 60, 66
1, 225263, Note_off_c, 0, 60, 66
1, 225267, Note_off_c, 0, 68, 62
1, 225278, Note_on_c, 0, 83, 80
1, 225281, Note_on_c, 0, 80, 84
1, 225284, Note_off_c, 0, 71, 65
1, 225295, Note_off_c, 0, 59, 61
1, 225324, Note_off_c, 0, 80, 63
1, 225324, Note_off_c, 0, 83, 66
1, 225334, Control_c, 0, 64, 114
1, 225348, Control_c, 0, 64, 69
1, 225363, Control_c, 0, 64, 0
1, 225365, Note_on_c, 0, 53, 80
1, 225370, Note_on_c, 0, 83, 84
1, 225374, Note_on_c, 0, 80, 86
1, 225393, Control_c, 0, 64, 36
1, 225408, Control_c, 0, 64, 69
1, 225421, Note_off_c, 0, 53, 65
1, 225422, Control_c, 0, 64, 86
1, 225436, Note_on_c, 0, 71, 66
1, 225437, Control_c, 0, 64, 127
1, 225438, Note_off_c, 0, 83, 64
1, 225445, Note_off_c, 0, 80, 60
1, 225467, Note_on_c, 0, 72, 28
1, 225481, Note_off_c, 0, 71, 64
1, 225500, Note_off_c, 0, 72, 54
1, 225528, Note_on_c, 0, 57, 88
1, 225531, Note_on_c, 0, 66, 84
1, 225534, Note_on_c, 0, 69, 90
1, 225594, Note_on_c, 0, 81, 69
1, 225595, Note_on_c, 0, 78, 83
1, 225598, Note_off_c, 0, 69, 65
1, 225637, Note_off_c, 0, 78, 59
1, 225639, Note_off_c, 0, 81, 64
1, 225659, Control_c, 0, 64, 112
1, 225674, Control_c, 0, 64, 71
1, 225680, Note_on_c, 0, 54, 90
1, 225689, Control_c, 0, 64, 0
1, 225693, Note_on_c, 0, 81, 81
1, 225698, Note_on_c, 0, 78, 83
1, 225719, Control_c, 0, 64, 66
1, 225725, Note_off_c, 0, 66, 60
1, 225740, Control_c, 0, 64, 83
1, 225755, Control_c, 0, 64, 127
1, 225776, Note_on_c, 0, 69, 84
1, 225776, Note_off_c, 0, 78, 54
1, 225816, Note_off_c, 0, 81, 62
1, 225817, Note_off_c, 0, 69, 64
1, 225826, Note_off_c, 0, 54, 55
1, 225839, Note_off_c, 0, 57, 0
1, 225858, Note_on_c, 0, 63, 98
1, 225875, Note_on_c, 0, 69, 87
1, 225876, Poly_aftertouch_c, 0, 57, 127
1, 225944, Note_on_c, 0, 81, 80
1, 225955, Note_on_c, 0, 78, 80
1, 225957, Note_off_c, 0, 69, 62
1, 225970, Note_off_c, 0, 63, 59
1, 225994, Note_off_c, 0, 78, 57
1, 226005, Note_off_c, 0, 81, 63
1, 226061, Note_on_c, 0, 54, 92
1, 226068, Control_c, 0, 64, 100
1, 226071, Note_on_c, 0, 81, 85
1, 226074, Note_on_c, 0, 78, 90
1, 226083, Control_c, 0, 64, 103
1, 226098, Control_c, 0, 64, 127
1, 226157, Note_on_c, 0, 69, 82
1, 226190, Note_off_c, 0, 78, 61
1, 226197, Note_off_c, 0, 69, 61
1, 226235, Note_on_c, 0, 63, 94
1, 226236, Note_on_c, 0, 61, 87
1, 226250, Note_on_c, 0, 69, 76
1, 226270, Note_off_c, 0, 54, 57
1, 226307, Note_on_c, 0, 78, 82
1, 226317, Note_on_c, 0, 75, 84
1, 226328, Note_off_c, 0, 69, 64
1, 226334, Note_off_c, 0, 81, 62
1, 226336, Poly_aftertouch_c, 0, 57, 0
1, 226353, Note_off_c, 0, 78, 64
1, 226354, Note_off_c, 0, 61, 59
1, 226361, Note_off_c, 0, 75, 62
1, 226392, Note_on_c, 0, 54, 96
1, 226403, Poly_aftertouch_c, 0, 75, 0
1, 226408, Note_on_c, 0, 78, 82
1, 226411, Note_on_c, 0, 75, 81
1, 226479, Note_off_c, 0, 78, 58
1, 226494, Note_on_c, 0, 69, 78
1, 226494, Note_off_c, 0, 75, 62
1, 226499, Note_off_c, 0, 54, 62
1, 226523, Poly_aftertouch_c, 0, 80, 0
1, 226540, Note_off_c, 0, 69, 65
1, 226570, Note_on_c, 0, 61, 96
1, 226583, Note_on_c, 0, 69, 81
1, 226640, Note_on_c, 0, 73, 81
1, 226646, Note_on_c, 0, 75, 70
1, 226655, Note_off_c, 0, 69, 64
1, 226690, Note_off_c, 0, 73, 62
1, 226699, Note_off_c, 0, 75, 62
1, 226726, Control_c, 0, 64, 101
1, 226736, Note_on_c, 0, 54, 92
1, 226738, Note_on_c, 0, 75, 60
1, 226741, Control_c, 0, 64, 68
1, 226753, Note_on_c, 0, 73, 74
1, 226756, Control_c, 0, 64, 0
1, 226764, Note_off_c, 0, 61, 58
1, 226791, Note_on_c, 0, 69, 66
1, 226800, Control_c, 0, 64, 63
1, 226816, Control_c, 0, 64, 71
1, 226831, Control_c, 0, 64, 86
1, 226846, Control_c, 0, 64, 127
1, 226854, Note_off_c, 0, 73, 58
1, 226876, Note_off_c, 0, 69, 64
1, 226877, Note_on_c, 0, 66, 87
1, 226889, Note_off_c, 0, 54, 61
1, 226959, Note_on_c, 0, 56, 84
1, 226963, Note_off_c, 0, 66, 56
1, 226968, Note_on_c, 0, 69, 70
1, 226979, Note_off_c, 0, 63, 59
1, 226983, Note_on_c, 0, 73, 39
1, 226988, Note_off_c, 0, 69, 71
1, 227010, Note_off_c, 0, 73, 0
1, 227025, Note_off_c, 0, 56, 62
1, 227030, Note_on_c, 0, 73, 68
1, 227033, Note_on_c, 0, 54, 87
1, 227045, Note_on_c, 0, 69, 77
1, 227063, Note_off_c, 0, 54, 67
1, 227078, Note_off_c, 0, 75, 53
1, 227088, Note_on_c, 0, 66, 78
1, 227090, Note_off_c, 0, 69, 65
1, 227098, Note_off_c, 0, 73, 62
1, 227126, Note_off_c, 0, 66, 59
1, 227209, Note_on_c, 0, 51, 98
1, 227209, Note_on_c, 0, 49, 97
1, 227232, Note_on_c, 0, 55, 84
1, 227243, Note_on_c, 0, 57, 83
1, 227253, Control_c, 0, 64, 105
1, 227267, Control_c, 0, 64, 91
1, 227282, Control_c, 0, 64, 84
1, 227292, Note_off_c, 0, 55, 60
1, 227297, Control_c, 0, 64, 80
1, 227312, Control_c, 0, 64, 75
1, 227313, Note_off_c, 0, 57, 44
1, 227316, Note_off_c, 0, 49, 61
1, 227320, Note_on_c, 0, 69, 60
1, 227326, Note_on_c, 0, 65, 56
1, 227326, Control_c, 0, 64, 69
1, 227341, Control_c, 0, 64, 63
1, 227348, Note_off_c, 0, 65, 62
1, 227356, Control_c, 0, 64, 46
1, 227371, Control_c, 0, 64, 37
1, 227379, Note_off_c, 0, 69, 0
1, 227386, Control_c, 0, 64, 40
1, 227388, Note_on_c, 0, 42, 93
1, 227393, Note_on_c, 0, 69, 66
1, 227400, Control_c, 0, 64, 49
1, 227412, Note_on_c, 0, 66, 84
1, 227415, Control_c, 0, 64, 53
1, 227430, Control_c, 0, 64, 56
1, 227445, Control_c, 0, 64, 59
1, 227460, Control_c, 0, 64, 60
1, 227463, Note_off_c, 0, 66, 62
1, 227466, Note_off_c, 0, 69, 64
1, 227481, Note_off_c, 0, 42, 63
1, 227484, Note_on_c, 0, 57, 59
1, 227555, Note_on_c, 0, 49, 93
1, 227566, Note_on_c, 0, 66, 90
1, 227577, Note_on_c, 0, 63, 81
1, 227593, Control_c, 0, 64, 59
1, 227597, Note_off_c, 0, 57, 62
1, 227609, Control_c, 0, 64, 57
1, 227618, Note_off_c, 0, 66, 64
1, 227623, Note_off_c, 0, 63, 59
1, 227624, Control_c, 0, 64, 55
1, 227639, Control_c, 0, 64, 53
1, 227644, Note_off_c, 0, 49, 62
1, 227654, Control_c, 0, 64, 52
1, 227669, Control_c, 0, 64, 51
1, 227681, Note_on_c, 0, 66, 82
1, 227683, Note_on_c, 0, 63, 78
1, 227683, Control_c, 0, 64, 50
1, 227694, Note_on_c, 0, 42, 89
1, 227698, Control_c, 0, 64, 50
1, 227742, Control_c, 0, 64, 49
1, 227756, Note_off_c, 0, 66, 60
1, 227761, Note_on_c, 0, 57, 78
1, 227764, Note_off_c, 0, 63, 62
1, 227786, Note_off_c, 0, 42, 63
1, 227802, Control_c, 0, 64, 50
1, 227807, Note_off_c, 0, 57, 63
1, 227849, Note_on_c, 0, 49, 92
1, 227859, Note_on_c, 0, 57, 85
1, 227928, Note_on_c, 0, 61, 83
1, 227931, Note_on_c, 0, 63, 73
1, 227931, Note_off_c, 0, 57, 65
1, 227949, Note_off_c, 0, 49, 62
1, 227976, Note_off_c, 0, 63, 56
1, 227978, Note_off_c, 0, 61, 62
1, 228017, Note_on_c, 0, 42, 84
1, 228035, Note_on_c, 0, 63, 76
1, 228036, Note_on_c, 0, 61, 78
1, 228075, Control_c, 0, 64, 51
1, 228075, Control_c, 0, 67, 8
1, 228090, Control_c, 0, 64, 53
1, 228090, Control_c, 0, 67, 10
1, 228105, Control_c, 0, 64, 55
1, 228105, Control_c, 0, 67, 12
1, 228108, Note_on_c, 0, 57, 70
1, 228120, Control_c, 0, 64, 58
1, 228120, Control_c, 0, 67, 16
1, 228135, Control_c, 0, 64, 59
1, 228135, Control_c, 0, 67, 20
1, 228147, Note_off_c, 0, 61, 58
1, 228149, Control_c, 0, 64, 60
1, 228149, Control_c, 0, 67, 24
1, 228164, Control_c, 0, 64, 60
1, 228164, Control_c, 0, 67, 28
1, 228168, Note_off_c, 0, 42, 61
1, 228172, Note_off_c, 0, 57, 62
1, 228176, Note_on_c, 0, 54, 84
1, 228179, Control_c, 0, 67, 30
1, 228194, Control_c, 0, 67, 33
1, 228209, Control_c, 0, 67, 34
1, 228223, Control_c, 0, 67, 36
1, 228238, Control_c, 0, 67, 38
1, 228250, Note_on_c, 0, 44, 80
1, 228251, Note_on_c, 0, 56, 83
1, 228253, Control_c, 0, 67, 39
1, 228262, Note_off_c, 0, 54, 63
1, 228264, Note_off_c, 0, 51, 62
1, 228268, Control_c, 0, 64, 60
1, 228268, Control_c, 0, 67, 41
1, 228278, Note_off_c, 0, 56, 65
1, 228283, Control_c, 0, 64, 59
1, 228283, Control_c, 0, 67, 43
1, 228298, Control_c, 0, 67, 45
1, 228306, Note_on_c, 0, 57, 23
1, 228312, Control_c, 0, 64, 59
1, 228312, Control_c, 0, 67, 46
1, 228314, Note_off_c, 0, 44, 61
1, 228327, Control_c, 0, 64, 58
1, 228327, Control_c, 0, 67, 47
1, 228333, Note_on_c, 0, 42, 91
1, 228339, Note_off_c, 0, 57, 0
1, 228339, Note_on_c, 0, 57, 43
1, 228342, Control_c, 0, 64, 57
1, 228342, Control_c, 0, 67, 48
1, 228357, Control_c, 0, 64, 56
1, 228357, Control_c, 0, 67, 49
1, 228365, Note_on_c, 0, 60, 61
1, 228372, Note_off_c, 0, 42, 65
1, 228372, Control_c, 0, 64, 54
1, 228372, Control_c, 0, 67, 50
1, 228377, Note_off_c, 0, 63, 60
1, 228387, Control_c, 0, 64, 53
1, 228387, Control_c, 0, 67, 52
1, 228397, Note_off_c, 0, 60, 63
1, 228402, Control_c, 0, 64, 52
1, 228402, Control_c, 0, 67, 53
1, 228417, Control_c, 0, 64, 51
1, 228417, Control_c, 0, 67, 55
1, 228418, Note_on_c, 0, 54, 78
1, 228420, Note_off_c, 0, 57, 62
1, 228432, Control_c, 0, 67, 56
1, 228441, Poly_aftertouch_c, 0, 61, 0
1, 228447, Control_c, 0, 64, 50
1, 228447, Control_c, 0, 67, 58
1, 228452, Note_off_c, 0, 54, 66
1, 228461, Control_c, 0, 64, 48
1, 228461, Control_c, 0, 67, 59
1, 228476, Control_c, 0, 64, 38
1, 228476, Control_c, 0, 67, 60
1, 228491, Control_c, 0, 64, 0
1, 228491, Control_c, 0, 67, 61
1, 228501, Note_on_c, 0, 44, 89
1, 228506, Control_c, 0, 67, 62
1, 228521, Control_c, 0, 67, 63
1, 228526, Note_on_c, 0, 51, 74
1, 228536, Control_c, 0, 67, 63
1, 228547, Note_off_c, 0, 44, 63
1, 228563, Note_on_c, 0, 56, 78
1, 228586, Note_off_c, 0, 51, 64
1, 228605, Note_off_c, 0, 56, 60
1, 228666, Note_on_c, 0, 32, 83
1, 228678, Note_on_c, 0, 57, 65
1, 228683, Control_c, 0, 67, 64
1, 228687, Note_on_c, 0, 61, 75
1, 228698, Control_c, 0, 67, 64
1, 228700, Note_off_c, 0, 32, 66
1, 228713, Control_c, 0, 67, 65
1, 228715, Note_off_c, 0, 57, 63
1, 228728, Control_c, 0, 67, 65
1, 228750, Note_on_c, 0, 51, 78
1, 228751, Control_c, 0, 67, 66
1, 228760, Note_off_c, 0, 61, 60
1, 228765, Control_c, 0, 67, 68
1, 228780, Control_c, 0, 67, 69
1, 228792, Note_off_c, 0, 51, 60
1, 228795, Control_c, 0, 67, 70
1, 228810, Control_c, 0, 67, 71
1, 228825, Control_c, 0, 67, 73
1, 228838, Note_on_c, 0, 44, 84
1, 228839, Control_c, 0, 67, 75
1, 228854, Control_c, 0, 67, 77
1, 228858, Note_on_c, 0, 51, 73
1, 228869, Control_c, 0, 67, 80
1, 228873, Note_off_c, 0, 44, 64
1, 228884, Control_c, 0, 67, 82
1, 228898, Control_c, 0, 67, 84
1, 228913, Control_c, 0, 67, 85
1, 228915, Note_off_c, 0, 51, 63
1, 228917, Note_on_c, 0, 57, 68
1, 228922, Note_on_c, 0, 61, 61
1, 228928, Control_c, 0, 67, 86
1, 228943, Control_c, 0, 67, 88
1, 228956, Note_off_c, 0, 57, 62
1, 228958, Note_off_c, 0, 61, 62
1, 228958, Control_c, 0, 67, 90
1, 228972, Control_c, 0, 67, 92
1, 228987, Control_c, 0, 67, 93
1, 229001, Note_on_c, 0, 32, 82
1, 229002, Control_c, 0, 67, 95
1, 229017, Control_c, 0, 67, 96
1, 229028, Note_on_c, 0, 57, 57
1, 229032, Control_c, 0, 67, 98
1, 229033, Note_off_c, 0, 32, 68
1, 229040, Note_on_c, 0, 61, 53
1, 229046, Control_c, 0, 67, 100
1, 229061, Note_off_c, 0, 57, 66
1, 229061, Control_c, 0, 67, 102
1, 229076, Control_c, 0, 67, 104
1, 229081, Note_off_c, 0, 61, 50
1, 229086, Note_on_c, 0, 51, 71
1, 229090, Control_c, 0, 67, 106
1, 229105, Control_c, 0, 67, 108
1, 229120, Control_c, 0, 67, 110
1, 229135, Control_c, 0, 67, 113
1, 229150, Control_c, 0, 67, 115
1, 229156, Note_off_c, 0, 51, 0
1, 229165, Control_c, 0, 67, 117
1, 229169, Note_on_c, 0, 44, 83
1, 229170, Note_on_c, 0, 51, 59
1, 229180, Control_c, 0, 67, 119
1, 229195, Control_c, 0, 67, 121
1, 229210, Note_off_c, 0, 44, 62
1, 229210, Control_c, 0, 67, 123
1, 229225, Control_c, 0, 67, 123
1, 229234, Note_off_c, 0, 51, 63
1, 229240, Control_c, 0, 67, 124
1, 229269, Control_c, 0, 67, 125
1, 229299, Control_c, 0, 67, 125
1, 229300, Note_on_c, 0, 57, 57
1, 229312, Note_on_c, 0, 61, 44
1, 229344, Control_c, 0, 67, 126
1, 229344, Note_on_c, 0, 32, 68
1, 229359, Control_c, 0, 67, 126
1, 229388, Control_c, 0, 64, 56
1, 229403, Control_c, 0, 64, 65
1, 229418, Control_c, 0, 64, 68
1, 229433, Control_c, 0, 64, 72
1, 229448, Control_c, 0, 64, 75
1, 229462, Control_c, 0, 64, 78
1, 229484, Control_c, 0, 64, 80
1, 229497, Note_off_c, 0, 57, 60
1, 229499, Control_c, 0, 64, 81
1, 229502, Note_on_c, 0, 51, 45
1, 229514, Control_c, 0, 64, 81
1, 229563, Note_on_c, 0, 33, 74
1, 229579, Note_off_c, 0, 51, 39
1, 229579, Note_off_c, 0, 32, 53
1, 229589, Note_on_c, 0, 56, 65
1, 229617, Note_off_c, 0, 56, 66
1, 229618, Control_c, 0, 67, 126
1, 229618, Note_on_c, 0, 60, 24
1, 229623, Note_off_c, 0, 61, 56
1, 229627, Note_off_c, 0, 33, 60
1, 229633, Control_c, 0, 67, 125
1, 229647, Note_off_c, 0, 60, 0
1, 229648, Control_c, 0, 67, 124
1, 229662, Control_c, 0, 64, 81
1, 229662, Control_c, 0, 67, 123
1, 229668, Note_on_c, 0, 60, 49
1, 229672, Note_on_c, 0, 32, 79
1, 229677, Control_c, 0, 64, 76
1, 229678, Note_on_c, 0, 56, 65
1, 229692, Control_c, 0, 64, 67
1, 229707, Control_c, 0, 64, 0
1, 229708, Note_off_c, 0, 32, 65
1, 229710, Note_off_c, 0, 56, 62
1, 229735, Note_off_c, 0, 60, 63
1, 229736, Control_c, 0, 67, 124
1, 229751, Control_c, 0, 67, 126
1, 229766, Control_c, 0, 67, 127
1, 229781, Control_c, 0, 67, 127
1, 229845, Note_on_c, 0, 51, 80
1, 229859, Note_on_c, 0, 44, 81
1, 229866, Note_on_c, 0, 39, 72
1, 229913, Note_off_c, 0, 39, 55
1, 229931, Note_off_c, 0, 51, 63
1, 229934, Note_on_c, 0, 57, 67
1, 229946, Note_on_c, 0, 61, 54
1, 229964, Note_off_c, 0, 57, 65
1, 229974, Note_off_c, 0, 61, 63
1, 230027, Note_on_c, 0, 32, 76
1, 230047, Note_on_c, 0, 57, 65
1, 230050, Note_on_c, 0, 61, 64
1, 230071, Note_off_c, 0, 32, 60
1, 230086, Note_off_c, 0, 57, 62
1, 230098, Note_off_c, 0, 61, 52
1, 230125, Note_on_c, 0, 51, 66
1, 230167, Note_off_c, 0, 51, 58
1, 230213, Note_on_c, 0, 39, 78
1, 230222, Note_on_c, 0, 51, 59
1, 230261, Note_off_c, 0, 39, 59
1, 230301, Note_off_c, 0, 51, 63
1, 230304, Note_on_c, 0, 61, 62
1, 230311, Note_on_c, 0, 57, 59
1, 230340, Note_off_c, 0, 61, 61
1, 230341, Note_off_c, 0, 57, 64
1, 230408, Note_on_c, 0, 32, 68
1, 230408, Note_on_c, 0, 57, 68
1, 230418, Note_on_c, 0, 61, 65
1, 230443, Note_off_c, 0, 32, 65
1, 230462, Note_off_c, 0, 57, 60
1, 230498, Note_off_c, 0, 61, 52
1, 230503, Note_on_c, 0, 51, 60
1, 230542, Note_off_c, 0, 51, 58
1, 230599, Note_on_c, 0, 39, 73
1, 230611, Note_on_c, 0, 51, 60
1, 230640, Note_off_c, 0, 39, 59
1, 230689, Note_off_c, 0, 51, 63
1, 230700, Note_on_c, 0, 61, 58
1, 230704, Note_on_c, 0, 57, 60
1, 230741, Note_off_c, 0, 61, 61
1, 230744, Note_off_c, 0, 57, 60
1, 230839, Note_on_c, 0, 32, 61
1, 230846, Note_on_c, 0, 61, 53
1, 230873, Note_on_c, 0, 57, 45
1, 230923, Note_off_c, 0, 57, 61
1, 230957, Note_on_c, 0, 51, 54
1, 231003, Note_off_c, 0, 51, 61
1, 231103, Note_on_c, 0, 51, 44
1, 231215, Note_off_c, 0, 51, 45
1, 231228, Note_on_c, 0, 60, 55
1, 231237, Note_on_c, 0, 56, 51
1, 231252, Note_on_c, 0, 33, 56
1, 231255, Note_off_c, 0, 32, 59
1, 231278, Note_off_c, 0, 61, 37
1, 231339, Note_off_c, 0, 60, 53
1, 231362, Note_off_c, 0, 56, 37
1, 231465, Note_on_c, 0, 60, 52
1, 231467, Note_on_c, 0, 56, 54
1, 231472, Note_on_c, 0, 32, 49
1, 231472, Note_off_c, 0, 33, 54
1, 231605, Control_c, 0, 64, 14
1, 231620, Control_c, 0, 64, 59
1, 231635, Control_c, 0, 64, 67
1, 231650, Control_c, 0, 64, 73
1, 231664, Control_c, 0, 64, 79
1, 231679, Control_c, 0, 64, 87
1, 231680, Note_on_c, 0, 51, 49
1, 231694, Control_c, 0, 64, 94
1, 231708, Control_c, 0, 64, 103
1, 231723, Control_c, 0, 64, 113
1, 231746, Control_c, 0, 64, 127
1, 231748, Note_off_c, 0, 56, 27
1, 231768, Note_off_c, 0, 51, 63
1, 231946, Note_off_c, 0, 44, 38
1, 232062, Note_off_c, 0, 32, 42
1, 232068, Note_off_c, 0, 60, 61
1, 232078, Note_on_c, 0, 61, 62
1, 232100, Note_on_c, 0, 52, 47
1, 232102, Note_on_c, 0, 37, 45
1, 232104, Note_on_c, 0, 56, 48
1, 232116, Control_c, 0, 64, 101
1, 232131, Control_c, 0, 64, 80
1, 232146, Control_c, 0, 64, 64
1, 232161, Control_c, 0, 64, 0
1, 232170, Note_on_c, 0, 63, 76
1, 232179, Note_off_c, 0, 61, 61
1, 232265, Note_on_c, 0, 64, 73
1, 232275, Note_off_c, 0, 63, 56
1, 232323, Control_c, 0, 64, 55
1, 232338, Control_c, 0, 64, 67
1, 232353, Control_c, 0, 64, 75
1, 232368, Control_c, 0, 64, 87
1, 232382, Control_c, 0, 64, 103
1, 232397, Control_c, 0, 64, 127
1, 232424, Note_off_c, 0, 64, 62
1, 232435, Note_off_c, 0, 37, 41
1, 232445, Note_off_c, 0, 52, 41
1, 232446, Note_off_c, 0, 56, 61
1, 232552, Note_on_c, 0, 64, 60
1, 232554, Note_on_c, 0, 52, 44
1, 232555, Note_on_c, 0, 56, 54
1, 232563, Note_on_c, 0, 37, 47
1, 232569, Control_c, 0, 64, 114
1, 232584, Control_c, 0, 64, 83
1, 232599, Control_c, 0, 64, 64
1, 232611, Note_on_c, 0, 63, 59
1, 232614, Control_c, 0, 64, 0
1, 232658, Control_c, 0, 64, 29
1, 232673, Control_c, 0, 64, 63
1, 232676, Note_off_c, 0, 64, 37
1, 232688, Control_c, 0, 64, 70
1, 232700, Note_on_c, 0, 61, 63
1, 232703, Control_c, 0, 64, 76
1, 232718, Control_c, 0, 64, 84
1, 232732, Control_c, 0, 64, 93
1, 232747, Note_off_c, 0, 63, 60
1, 232747, Control_c, 0, 64, 100
1, 232762, Control_c, 0, 64, 106
1, 232775, Note_off_c, 0, 56, 33
1, 232777, Control_c, 0, 64, 109
1, 232788, Note_off_c, 0, 61, 62
1, 232790, Note_off_c, 0, 37, 41
1, 232792, Control_c, 0, 64, 110
1, 232800, Note_off_c, 0, 52, 41
1, 232895, Control_c, 0, 64, 109
1, 232902, Note_on_c, 0, 61, 65
1, 232904, Note_on_c, 0, 52, 48
1, 232910, Note_on_c, 0, 37, 45
1, 232910, Control_c, 0, 64, 105
1, 232925, Control_c, 0, 64, 94
1, 232939, Control_c, 0, 64, 78
1, 232940, Note_on_c, 0, 56, 42
1, 232954, Control_c, 0, 64, 63
1, 232969, Control_c, 0, 64, 0
1, 232974, Note_on_c, 0, 59, 61
1, 232991, Note_off_c, 0, 61, 52
1, 233061, Note_on_c, 0, 58, 62
1, 233103, Note_off_c, 0, 59, 37
1, 233118, Control_c, 0, 64, 38
1, 233132, Control_c, 0, 64, 65
1, 233147, Control_c, 0, 64, 75
1, 233162, Control_c, 0, 64, 87
1, 233177, Control_c, 0, 64, 105
1, 233192, Control_c, 0, 64, 127
1, 233194, Note_off_c, 0, 56, 26
1, 233207, Note_off_c, 0, 58, 61
1, 233240, Note_off_c, 0, 52, 40
1, 233253, Note_off_c, 0, 37, 42
1, 233326, Note_on_c, 0, 56, 49
1, 233330, Note_on_c, 0, 58, 53
1, 233343, Note_on_c, 0, 52, 42
1, 233348, Note_on_c, 0, 37, 45
1, 233362, Control_c, 0, 64, 91
1, 233377, Control_c, 0, 64, 68
1, 233392, Control_c, 0, 64, 0
1, 233436, Control_c, 0, 64, 62
1, 233451, Control_c, 0, 64, 71
1, 233466, Control_c, 0, 64, 80
1, 233475, Note_off_c, 0, 58, 56
1, 233480, Control_c, 0, 64, 93
1, 233494, Note_off_c, 0, 56, 62
1, 233495, Control_c, 0, 64, 108
1, 233510, Control_c, 0, 64, 127
1, 233583, Note_off_c, 0, 52, 40
1, 233587, Note_off_c, 0, 37, 40
1, 233667, Note_on_c, 0, 52, 62
1, 233671, Note_on_c, 0, 37, 66
1, 233679, Note_on_c, 0, 58, 54
1, 233687, Control_c, 0, 64, 126
1, 233690, Note_on_c, 0, 56, 55
1, 233699, Note_off_c, 0, 52, 61
1, 233702, Control_c, 0, 64, 99
1, 233717, Control_c, 0, 64, 82
1, 233726, Note_on_c, 0, 39, 72
1, 233727, Note_on_c, 0, 51, 72
1, 233732, Control_c, 0, 64, 65
1, 233745, Note_off_c, 0, 56, 49
1, 233747, Control_c, 0, 64, 0
1, 233750, Note_off_c, 0, 37, 59
1, 233825, Note_on_c, 0, 40, 73
1, 233826, Note_off_c, 0, 51, 64
1, 233828, Note_off_c, 0, 39, 61
1, 233830, Note_on_c, 0, 49, 74
1, 233905, Note_on_c, 0, 56, 14
1, 233925, Control_c, 0, 64, 43
1, 233940, Control_c, 0, 64, 65
1, 233954, Control_c, 0, 64, 71
1, 233969, Control_c, 0, 64, 78
1, 233973, Note_off_c, 0, 49, 62
1, 233974, Note_off_c, 0, 40, 61
1, 233987, Note_off_c, 0, 56, 52
1, 233991, Control_c, 0, 64, 85
1, 233998, Note_off_c, 0, 58, 59
1, 234007, Control_c, 0, 64, 90
1, 234022, Control_c, 0, 64, 92
1, 234037, Control_c, 0, 64, 93
1, 234048, Note_on_c, 0, 40, 58
1, 234055, Note_on_c, 0, 49, 68
1, 234093, Note_on_c, 0, 58, 42
1, 234096, Control_c, 0, 64, 92
1, 234106, Note_on_c, 0, 56, 48
1, 234110, Control_c, 0, 64, 89
1, 234125, Control_c, 0, 64, 84
1, 234127, Note_off_c, 0, 40, 62
1, 234129, Note_off_c, 0, 49, 62
1, 234134, Note_on_c, 0, 39, 62
1, 234140, Control_c, 0, 64, 75
1, 234143, Note_on_c, 0, 51, 65
1, 234155, Control_c, 0, 64, 64
1, 234170, Control_c, 0, 64, 11
1, 234185, Control_c, 0, 64, 0
1, 234230, Note_off_c, 0, 39, 58
1, 234241, Note_on_c, 0, 37, 60
1, 234248, Note_off_c, 0, 51, 63
1, 234259, Note_on_c, 0, 52, 61
1, 234348, Control_c, 0, 64, 61
1, 234363, Control_c, 0, 64, 69
1, 234377, Control_c, 0, 64, 76
1, 234390, Note_off_c, 0, 37, 58
1, 234392, Control_c, 0, 64, 85
1, 234400, Note_off_c, 0, 52, 55
1, 234407, Control_c, 0, 64, 91
1, 234422, Control_c, 0, 64, 95
1, 234435, Note_off_c, 0, 56, 52
1, 234436, Control_c, 0, 64, 96
1, 234466, Control_c, 0, 64, 96
1, 234498, Note_off_c, 0, 58, 0
1, 234511, Note_on_c, 0, 52, 61
1, 234516, Note_on_c, 0, 56, 35
1, 234516, Note_on_c, 0, 58, 31
1, 234516, Note_on_c, 0, 37, 54
1, 234540, Control_c, 0, 64, 95
1, 234555, Control_c, 0, 64, 94
1, 234570, Control_c, 0, 64, 93
1, 234584, Control_c, 0, 64, 92
1, 234596, Note_off_c, 0, 52, 56
1, 234599, Control_c, 0, 64, 90
1, 234602, Note_off_c, 0, 37, 58
1, 234614, Control_c, 0, 64, 89
1, 234618, Note_on_c, 0, 51, 54
1, 234621, Note_on_c, 0, 35, 47
1, 234629, Control_c, 0, 64, 87
1, 234644, Control_c, 0, 64, 86
1, 234659, Control_c, 0, 64, 85
1, 234674, Control_c, 0, 64, 84
1, 234689, Control_c, 0, 64, 81
1, 234703, Control_c, 0, 64, 78
1, 234718, Control_c, 0, 64, 75
1, 234740, Control_c, 0, 64, 71
1, 234755, Control_c, 0, 64, 67
1, 234770, Control_c, 0, 64, 62
1, 234783, Note_off_c, 0, 35, 55
1, 234784, Control_c, 0, 64, 46
1, 234800, Control_c, 0, 64, 0
1, 234802, Note_off_c, 0, 51, 64
1, 234810, Note_on_c, 0, 50, 52
1, 234817, Note_on_c, 0, 34, 48
1, 234933, Control_c, 0, 64, 46
1, 234948, Control_c, 0, 64, 66
1, 234963, Control_c, 0, 64, 77
1, 234978, Control_c, 0, 64, 91
1, 234993, Control_c, 0, 64, 127
1, 235025, Note_off_c, 0, 34, 53
1, 235057, Note_off_c, 0, 50, 58
1, 235099, Note_off_c, 0, 56, 41
1, 235135, Note_off_c, 0, 58, 0
1, 235155, Note_on_c, 0, 58, 28
1, 235168, Note_on_c, 0, 34, 42
1, 235170, Note_on_c, 0, 56, 37
1, 235192, Note_on_c, 0, 50, 34
1, 235250, Note_off_c, 0, 34, 42
1, 235251, Note_off_c, 0, 50, 53
1, 235300, Note_off_c, 0, 56, 36
1, 235321, Note_off_c, 0, 58, 54
1, 235596, Note_on_c, 0, 63, 61
1, 235607, Note_on_c, 0, 58, 42
1, 235609, Note_on_c, 0, 54, 41
1, 235634, Note_on_c, 0, 34, 32
1, 235691, Note_on_c, 0, 65, 60
1, 235738, Note_off_c, 0, 63, 36
1, 235743, Control_c, 0, 64, 93
1, 235757, Control_c, 0, 64, 74
1, 235772, Control_c, 0, 64, 53
1, 235787, Control_c, 0, 64, 0
1, 235818, Note_on_c, 0, 66, 67
1, 235868, Note_off_c, 0, 65, 53
1, 235890, Control_c, 0, 64, 53
1, 235905, Control_c, 0, 64, 68
1, 235920, Control_c, 0, 64, 80
1, 235935, Control_c, 0, 64, 96
1, 235949, Control_c, 0, 64, 127
1, 235973, Note_off_c, 0, 66, 56
1, 235988, Note_off_c, 0, 34, 41
1, 235998, Note_off_c, 0, 54, 45
1, 236031, Note_off_c, 0, 58, 0
1, 236051, Note_on_c, 0, 58, 39
1, 236057, Note_on_c, 0, 66, 71
1, 236069, Note_on_c, 0, 34, 40
1, 236072, Note_on_c, 0, 54, 53
1, 236124, Note_on_c, 0, 65, 69
1, 236128, Control_c, 0, 64, 112
1, 236143, Control_c, 0, 64, 85
1, 236143, Note_off_c, 0, 58, 50
1, 236157, Control_c, 0, 64, 67
1, 236172, Control_c, 0, 64, 0
1, 236227, Note_on_c, 0, 63, 84
1, 236262, Note_off_c, 0, 66, 41
1, 236268, Control_c, 0, 64, 59
1, 236277, Note_off_c, 0, 65, 62
1, 236283, Control_c, 0, 64, 69
1, 236298, Control_c, 0, 64, 79
1, 236313, Control_c, 0, 64, 88
1, 236319, Note_off_c, 0, 34, 54
1, 236328, Control_c, 0, 64, 96
1, 236340, Note_off_c, 0, 54, 58
1, 236343, Control_c, 0, 64, 100
1, 236352, Note_off_c, 0, 63, 60
1, 236357, Control_c, 0, 64, 100
1, 236403, Control_c, 0, 64, 100
1, 236420, Note_on_c, 0, 63, 74
1, 236432, Control_c, 0, 64, 97
1, 236434, Note_on_c, 0, 34, 45
1, 236440, Note_on_c, 0, 58, 61
1, 236444, Note_on_c, 0, 54, 56
1, 236447, Control_c, 0, 64, 91
1, 236462, Control_c, 0, 64, 81
1, 236477, Control_c, 0, 64, 71
1, 236492, Control_c, 0, 64, 51
1, 236503, Note_on_c, 0, 62, 71
1, 236506, Control_c, 0, 64, 0
1, 236561, Note_off_c, 0, 63, 41
1, 236617, Note_on_c, 0, 61, 76
1, 236666, Note_off_c, 0, 62, 54
1, 236703, Note_off_c, 0, 58, 25
1, 236728, Control_c, 0, 64, 62
1, 236743, Control_c, 0, 64, 69
1, 236758, Control_c, 0, 64, 76
1, 236772, Control_c, 0, 64, 88
1, 236787, Control_c, 0, 64, 101
1, 236802, Control_c, 0, 64, 114
1, 236811, Note_off_c, 0, 54, 60
1, 236817, Control_c, 0, 64, 127
1, 236844, Note_off_c, 0, 61, 61
1, 236849, Note_off_c, 0, 34, 39
1, 236909, Note_on_c, 0, 61, 48
1, 236929, Note_on_c, 0, 58, 51
1, 236939, Note_on_c, 0, 54, 45
1, 236954, Note_on_c, 0, 34, 44
1, 236987, Control_c, 0, 64, 108
1, 237002, Control_c, 0, 64, 89
1, 237017, Control_c, 0, 64, 72
1, 237032, Control_c, 0, 64, 47
1, 237046, Control_c, 0, 64, 0
1, 237061, Control_c, 0, 64, 46
1, 237076, Control_c, 0, 64, 65
1, 237091, Control_c, 0, 64, 72
1, 237106, Control_c, 0, 64, 81
1, 237121, Control_c, 0, 64, 92
1, 237136, Control_c, 0, 64, 103
1, 237151, Control_c, 0, 64, 114
1, 237166, Control_c, 0, 64, 118
1, 237181, Note_off_c, 0, 34, 55
1, 237205, Note_off_c, 0, 61, 52
1, 237217, Note_off_c, 0, 58, 55
1, 237225, Control_c, 0, 64, 117
1, 237241, Note_off_c, 0, 54, 43
1, 237255, Control_c, 0, 64, 114
1, 237270, Control_c, 0, 64, 106
1, 237285, Control_c, 0, 64, 93
1, 237291, Note_on_c, 0, 34, 72
1, 237300, Control_c, 0, 64, 78
1, 237303, Note_on_c, 0, 61, 47
1, 237306, Note_on_c, 0, 54, 44
1, 237310, Note_on_c, 0, 58, 43
1, 237315, Control_c, 0, 64, 65
1, 237329, Control_c, 0, 64, 0
1, 237371, Note_on_c, 0, 35, 68
1, 237385, Note_off_c, 0, 34, 60
1, 237451, Note_on_c, 0, 37, 77
1, 237452, Note_off_c, 0, 35, 64
1, 237494, Note_off_c, 0, 37, 62
1, 237495, Note_off_c, 0, 58, 56
1, 237508, Note_off_c, 0, 54, 43
1, 237517, Note_off_c, 0, 61, 51
1, 237628, Note_on_c, 0, 37, 68
1, 237637, Note_on_c, 0, 61, 56
1, 237645, Note_on_c, 0, 54, 47
1, 237650, Note_on_c, 0, 58, 50
1, 237701, Note_off_c, 0, 37, 62
1, 237702, Note_on_c, 0, 35, 64
1, 237791, Note_on_c, 0, 34, 68
1, 237794, Note_off_c, 0, 35, 63
1, 237819, Note_off_c, 0, 58, 52
1, 237830, Note_off_c, 0, 54, 36
1, 237839, Note_off_c, 0, 34, 59
1, 237839, Note_off_c, 0, 61, 37
1, 237975, Note_on_c, 0, 34, 57
1, 237994, Note_on_c, 0, 54, 46
1, 237994, Note_on_c, 0, 58, 46
1, 237999, Note_on_c, 0, 61, 44
1, 238048, Note_off_c, 0, 34, 61
1, 238055, Note_on_c, 0, 32, 58
1, 238057, Note_off_c, 0, 58, 52
1, 238064, Note_off_c, 0, 61, 48
1, 238071, Note_off_c, 0, 54, 50
1, 238114, Note_off_c, 0, 32, 61
1, 238134, Note_on_c, 0, 30, 61
1, 238165, Note_off_c, 0, 30, 61
1, 238343, Control_c, 0, 64, 21
1, 238356, Note_on_c, 0, 57, 43
1, 238357, Note_on_c, 0, 54, 44
1, 238358, Note_on_c, 0, 30, 41
1, 238358, Control_c, 0, 64, 61
1, 238361, Note_on_c, 0, 61, 46
1, 238373, Control_c, 0, 64, 67
1, 238388, Control_c, 0, 64, 74
1, 238403, Control_c, 0, 64, 83
1, 238418, Control_c, 0, 64, 94
1, 238433, Control_c, 0, 64, 107
1, 238436, Note_off_c, 0, 57, 60
1, 238447, Control_c, 0, 64, 127
1, 238454, Note_off_c, 0, 54, 60
1, 238474, Note_off_c, 0, 61, 60
1, 238527, Note_off_c, 0, 30, 42
1, 238734, Note_on_c, 0, 30, 42
1, 238737, Control_c, 0, 64, 107
1, 238740, Note_on_c, 0, 66, 62
1, 238749, Note_on_c, 0, 61, 45
1, 238751, Control_c, 0, 64, 87
1, 238753, Note_on_c, 0, 57, 42
1, 238766, Control_c, 0, 64, 68
1, 238781, Control_c, 0, 64, 0
1, 238814, Note_off_c, 0, 66, 61
1, 238817, Note_on_c, 0, 68, 60
1, 238906, Note_on_c, 0, 69, 58
1, 238906, Note_off_c, 0, 68, 61
1, 238974, Control_c, 0, 64, 54
1, 238989, Control_c, 0, 64, 69
1, 239004, Control_c, 0, 64, 80
1, 239018, Control_c, 0, 64, 96
1, 239033, Control_c, 0, 64, 127
1, 239059, Note_off_c, 0, 69, 59
1, 239083, Note_off_c, 0, 57, 41
1, 239088, Note_off_c, 0, 30, 41
1, 239096, Note_off_c, 0, 61, 47
1, 239174, Note_on_c, 0, 69, 58
1, 239190, Note_on_c, 0, 61, 45
1, 239195, Note_on_c, 0, 57, 41
1, 239201, Note_on_c, 0, 30, 45
1, 239258, Note_on_c, 0, 68, 59
1, 239313, Note_off_c, 0, 69, 54
1, 239327, Note_on_c, 0, 66, 68
1, 239364, Note_off_c, 0, 68, 60
1, 239365, Note_off_c, 0, 61, 37
1, 239382, Note_off_c, 0, 30, 44
1, 239401, Note_off_c, 0, 66, 60
1, 239405, Note_off_c, 0, 57, 36
1, 239508, Note_on_c, 0, 30, 46
1, 239515, Note_on_c, 0, 66, 64
1, 239525, Note_on_c, 0, 57, 37
1, 239535, Note_on_c, 0, 61, 47
1, 239574, Control_c, 0, 64, 107
1, 239581, Note_on_c, 0, 64, 65
1, 239589, Control_c, 0, 64, 82
1, 239601, Note_off_c, 0, 66, 55
1, 239604, Control_c, 0, 64, 64
1, 239619, Control_c, 0, 64, 0
1, 239675, Note_on_c, 0, 63, 63
1, 239705, Note_off_c, 0, 64, 52
1, 239723, Control_c, 0, 64, 23
1, 239738, Control_c, 0, 64, 63
1, 239753, Control_c, 0, 64, 71
1, 239768, Control_c, 0, 64, 80
1, 239771, Note_off_c, 0, 61, 55
1, 239783, Control_c, 0, 64, 94
1, 239797, Control_c, 0, 64, 117
1, 239812, Control_c, 0, 64, 127
1, 239820, Note_off_c, 0, 30, 52
1, 239822, Note_off_c, 0, 63, 61
1, 239838, Note_off_c, 0, 57, 43
1, 239959, Note_on_c, 0, 63, 44
1, 239980, Note_on_c, 0, 60, 38
1, 239981, Note_on_c, 0, 30, 45
1, 239983, Control_c, 0, 64, 118
1, 239984, Note_on_c, 0, 57, 38
1, 239997, Control_c, 0, 64, 80
1, 240012, Control_c, 0, 64, 57
1, 240027, Control_c, 0, 64, 0
1, 240085, Control_c, 0, 64, 57
1, 240100, Control_c, 0, 64, 70
1, 240115, Control_c, 0, 64, 82
1, 240127, Note_off_c, 0, 30, 55
1, 240129, Control_c, 0, 64, 103
1, 240144, Control_c, 0, 64, 127
1, 240222, Note_off_c, 0, 60, 49
1, 240233, Note_off_c, 0, 57, 42
1, 240253, Note_off_c, 0, 63, 36
1, 240338, Note_on_c, 0, 42, 55
1, 240364, Note_on_c, 0, 60, 36
1, 240366, Note_on_c, 0, 63, 45
1, 240367, Note_on_c, 0, 57, 25
1, 240415, Note_on_c, 0, 44, 63
1, 240433, Note_off_c, 0, 42, 52
1, 240491, Note_on_c, 0, 45, 71
1, 240492, Note_off_c, 0, 44, 61
1, 240530, Note_off_c, 0, 45, 62
1, 240544, Note_off_c, 0, 60, 55
1, 240553, Note_off_c, 0, 57, 41
1, 240559, Note_off_c, 0, 63, 48
1, 240634, Control_c, 0, 64, 118
1, 240649, Control_c, 0, 64, 108
1, 240663, Control_c, 0, 64, 93
1, 240678, Control_c, 0, 64, 78
1, 240685, Note_on_c, 0, 45, 67
1, 240688, Note_on_c, 0, 63, 59
1, 240693, Control_c, 0, 64, 64
1, 240704, Note_on_c, 0, 60, 43
1, 240708, Control_c, 0, 64, 0
1, 240722, Note_on_c, 0, 57, 37
1, 240757, Note_on_c, 0, 44, 66
1, 240785, Note_off_c, 0, 45, 54
1, 240790, Control_c, 0, 64, 46
1, 240804, Control_c, 0, 64, 66
1, 240819, Control_c, 0, 64, 75
1, 240834, Control_c, 0, 64, 86
1, 240845, Note_on_c, 0, 42, 73
1, 240849, Control_c, 0, 64, 101
1, 240854, Note_off_c, 0, 44, 62
1, 240862, Note_off_c, 0, 63, 36
1, 240864, Control_c, 0, 64, 127
1, 240888, Note_off_c, 0, 42, 60
1, 240889, Note_off_c, 0, 60, 38
1, 240889, Note_off_c, 0, 57, 33
1, 240996, Control_c, 0, 64, 115
1, 241011, Note_on_c, 0, 42, 70
1, 241011, Control_c, 0, 64, 99
1, 241020, Note_on_c, 0, 63, 69
1, 241026, Control_c, 0, 64, 83
1, 241035, Note_on_c, 0, 60, 45
1, 241041, Note_on_c, 0, 57, 42
1, 241041, Control_c, 0, 64, 68
1, 241056, Control_c, 0, 64, 35
1, 241071, Control_c, 0, 64, 0
1, 241080, Note_on_c, 0, 40, 75
1, 241086, Note_on_c, 0, 64, 76
1, 241092, Note_off_c, 0, 42, 61
1, 241119, Note_off_c, 0, 63, 62
1, 241157, Note_on_c, 0, 39, 72
1, 241163, Note_off_c, 0, 40, 62
1, 241178, Note_on_c, 0, 66, 75
1, 241199, Note_off_c, 0, 64, 64
1, 241211, Note_off_c, 0, 39, 60
1, 241222, Note_off_c, 0, 60, 62
1, 241224, Note_off_c, 0, 57, 58
1, 241239, Note_off_c, 0, 66, 60
1, 241351, Note_on_c, 0, 39, 53
1, 241357, Note_on_c, 0, 66, 58
1, 241367, Note_on_c, 0, 60, 45
1, 241372, Note_on_c, 0, 57, 32
1, 241437, Note_on_c, 0, 64, 48
1, 241455, Note_off_c, 0, 66, 36
1, 241457, Control_c, 0, 64, 63
1, 241479, Control_c, 0, 64, 70
1, 241494, Control_c, 0, 64, 78
1, 241500, Note_on_c, 0, 63, 57
1, 241509, Control_c, 0, 64, 88
1, 241521, Note_off_c, 0, 64, 58
1, 241524, Control_c, 0, 64, 99
1, 241537, Note_off_c, 0, 57, 40
1, 241539, Control_c, 0, 64, 107
1, 241548, Note_off_c, 0, 60, 60
1, 241554, Control_c, 0, 64, 110
1, 241568, Control_c, 0, 64, 111
1, 241569, Note_off_c, 0, 63, 61
1, 241594, Note_off_c, 0, 39, 55
1, 241657, Control_c, 0, 64, 111
1, 241670, Note_on_c, 0, 42, 62
1, 241680, Note_on_c, 0, 57, 54
1, 241686, Note_on_c, 0, 63, 56
1, 241701, Control_c, 0, 64, 110
1, 241707, Note_on_c, 0, 60, 49
1, 241707, Note_off_c, 0, 57, 62
1, 241716, Control_c, 0, 64, 105
1, 241731, Control_c, 0, 64, 96
1, 241746, Control_c, 0, 64, 82
1, 241753, Note_off_c, 0, 42, 56
1, 241754, Note_on_c, 0, 44, 60
1, 241761, Control_c, 0, 64, 67
1, 241765, Note_on_c, 0, 56, 67
1, 241775, Control_c, 0, 64, 0
1, 241827, Note_on_c, 0, 45, 64
1, 241828, Note_off_c, 0, 44, 61
1, 241841, Note_on_c, 0, 54, 71
1, 241843, Note_off_c, 0, 56, 64
1, 241848, Note_off_c, 0, 60, 36
1, 241879, Control_c, 0, 64, 54
1, 241893, Control_c, 0, 64, 67
1, 241895, Note_off_c, 0, 54, 59
1, 241897, Note_off_c, 0, 63, 57
1, 241899, Note_off_c, 0, 45, 60
1, 241908, Control_c, 0, 64, 76
1, 241923, Control_c, 0, 64, 84
1, 241938, Control_c, 0, 64, 93
1, 241953, Control_c, 0, 64, 99
1, 241968, Control_c, 0, 64, 101
1, 242008, Note_on_c, 0, 54, 67
1, 242018, Note_on_c, 0, 63, 63
1, 242019, Note_on_c, 0, 45, 67
1, 242029, Note_on_c, 0, 60, 64
1, 242042, Control_c, 0, 64, 99
1, 242057, Control_c, 0, 64, 88
1, 242069, Note_off_c, 0, 54, 61
1, 242072, Control_c, 0, 64, 73
1, 242087, Note_on_c, 0, 56, 72
1, 242087, Note_on_c, 0, 44, 71
1, 242087, Control_c, 0, 64, 0
1, 242092, Note_off_c, 0, 45, 63
1, 242128, Note_off_c, 0, 60, 63
1, 242147, Control_c, 0, 64, 59
1, 242162, Control_c, 0, 64, 67
1, 242165, Note_on_c, 0, 57, 74
1, 242168, Note_off_c, 0, 56, 65
1, 242171, Note_on_c, 0, 42, 74
1, 242176, Note_off_c, 0, 44, 63
1, 242177, Control_c, 0, 64, 76
1, 242191, Control_c, 0, 64, 84
1, 242206, Control_c, 0, 64, 95
1, 242221, Note_off_c, 0, 63, 59
1, 242228, Control_c, 0, 64, 103
1, 242241, Note_off_c, 0, 42, 59
1, 242241, Note_off_c, 0, 57, 56
1, 242242, Control_c, 0, 64, 108
1, 242317, Control_c, 0, 64, 107
1, 242332, Control_c, 0, 64, 98
1, 242345, Note_on_c, 0, 42, 75
1, 242347, Control_c, 0, 64, 83
1, 242353, Note_on_c, 0, 57, 67
1, 242355, Note_on_c, 0, 63, 79
1, 242361, Note_on_c, 0, 60, 69
1, 242362, Control_c, 0, 64, 68
1, 242377, Control_c, 0, 64, 0
1, 242413, Note_on_c, 0, 64, 79
1, 242419, Note_on_c, 0, 40, 75
1, 242439, Note_off_c, 0, 63, 60
1, 242441, Note_off_c, 0, 42, 59
1, 242506, Note_on_c, 0, 39, 75
1, 242511, Note_off_c, 0, 40, 63
1, 242514, Note_on_c, 0, 66, 82
1, 242541, Note_off_c, 0, 64, 65
1, 242558, Note_off_c, 0, 57, 61
1, 242558, Note_off_c, 0, 60, 63
1, 242564, Note_off_c, 0, 39, 62
1, 242575, Note_off_c, 0, 66, 62
1, 242683, Note_on_c, 0, 39, 61
1, 242686, Note_on_c, 0, 66, 65
1, 242707, Note_on_c, 0, 60, 51
1, 242710, Note_on_c, 0, 57, 41
1, 242759, Note_on_c, 0, 40, 56
1, 242768, Note_on_c, 0, 64, 40
1, 242808, Control_c, 0, 64, 53
1, 242819, Note_off_c, 0, 66, 48
1, 242822, Note_off_c, 0, 39, 37
1, 242822, Control_c, 0, 64, 67
1, 242823, Note_on_c, 0, 63, 66
1, 242832, Note_off_c, 0, 40, 60
1, 242837, Control_c, 0, 64, 75
1, 242844, Note_on_c, 0, 42, 66
1, 242852, Control_c, 0, 64, 86
1, 242856, Note_off_c, 0, 64, 62
1, 242866, Control_c, 0, 64, 96
1, 242873, Note_off_c, 0, 57, 37
1, 242881, Control_c, 0, 64, 103
1, 242883, Note_off_c, 0, 42, 62
1, 242886, Note_off_c, 0, 63, 59
1, 242891, Note_off_c, 0, 60, 62
1, 242896, Control_c, 0, 64, 106
1, 242955, Control_c, 0, 64, 99
1, 242978, Control_c, 0, 64, 85
1, 242993, Control_c, 0, 64, 69
1, 242997, Note_on_c, 0, 42, 67
1, 243005, Note_on_c, 0, 63, 67
1, 243008, Control_c, 0, 64, 0
1, 243012, Note_on_c, 0, 57, 60
1, 243024, Note_off_c, 0, 42, 64
1, 243038, Note_on_c, 0, 60, 40
1, 243076, Note_on_c, 0, 42, 79
1, 243111, Control_c, 0, 64, 56
1, 243126, Control_c, 0, 64, 68
1, 243129, Note_off_c, 0, 57, 55
1, 243140, Control_c, 0, 64, 80
1, 243144, Note_off_c, 0, 42, 55
1, 243155, Control_c, 0, 64, 95
1, 243170, Control_c, 0, 64, 127
1, 243181, Note_on_c, 0, 44, 65
1, 243190, Note_on_c, 0, 56, 72
1, 243216, Note_off_c, 0, 56, 67
1, 243217, Note_off_c, 0, 44, 62
1, 243221, Note_off_c, 0, 60, 63
1, 243229, Control_c, 0, 67, 125
1, 243244, Note_off_c, 0, 63, 30
1, 243244, Control_c, 0, 67, 123
1, 243259, Control_c, 0, 67, 122
1, 243274, Control_c, 0, 67, 121
1, 243288, Control_c, 0, 67, 120
1, 243303, Control_c, 0, 67, 119
1, 243318, Control_c, 0, 67, 118
1, 243333, Control_c, 0, 64, 88
1, 243333, Control_c, 0, 67, 117
1, 243333, Note_on_c, 0, 39, 74
1, 243348, Note_on_c, 0, 69, 73
1, 243348, Control_c, 0, 64, 65
1, 243348, Control_c, 0, 67, 115
1, 243354, Note_on_c, 0, 60, 61
1, 243357, Note_on_c, 0, 63, 57
1, 243363, Control_c, 0, 64, 0
1, 243363, Control_c, 0, 67, 113
1, 243366, Note_off_c, 0, 39, 64
1, 243378, Control_c, 0, 67, 110
1, 243392, Control_c, 0, 67, 106
1, 243407, Control_c, 0, 67, 102
1, 243422, Control_c, 0, 64, 39
1, 243422, Control_c, 0, 67, 97
1, 243426, Note_on_c, 0, 39, 69
1, 243437, Control_c, 0, 64, 65
1, 243437, Control_c, 0, 67, 92
1, 243452, Control_c, 0, 64, 76
1, 243452, Control_c, 0, 67, 87
1, 243466, Control_c, 0, 64, 93
1, 243466, Control_c, 0, 67, 82
1, 243476, Note_off_c, 0, 39, 55
1, 243481, Control_c, 0, 64, 127
1, 243481, Control_c, 0, 67, 77
1, 243496, Control_c, 0, 67, 73
1, 243504, Note_on_c, 0, 68, 73
1, 243510, Note_off_c, 0, 63, 60
1, 243511, Control_c, 0, 67, 69
1, 243512, Note_off_c, 0, 60, 59
1, 243513, Note_on_c, 0, 48, 71
1, 243519, Note_off_c, 0, 69, 61
1, 243526, Control_c, 0, 67, 66
1, 243537, Note_off_c, 0, 68, 61
1, 243540, Control_c, 0, 67, 63
1, 243555, Control_c, 0, 67, 62
1, 243564, Note_off_c, 0, 48, 58
1, 243570, Control_c, 0, 67, 61
1, 243586, Control_c, 0, 67, 61
1, 243630, Control_c, 0, 67, 60
1, 243660, Control_c, 0, 67, 60
1, 243670, Note_on_c, 0, 36, 80
1, 243675, Note_on_c, 0, 75, 84
1, 243675, Control_c, 0, 64, 91
1, 243675, Control_c, 0, 67, 59
1, 243683, Note_on_c, 0, 72, 74
1, 243684, Note_on_c, 0, 69, 70
1, 243689, Control_c, 0, 64, 65
1, 243689, Control_c, 0, 67, 58
1, 243700, Note_off_c, 0, 36, 66
1, 243704, Control_c, 0, 64, 0
1, 243704, Control_c, 0, 67, 58
1, 243727, Control_c, 0, 67, 57
1, 243742, Control_c, 0, 67, 57
1, 243756, Control_c, 0, 64, 60
1, 243756, Control_c, 0, 67, 56
1, 243771, Note_on_c, 0, 36, 64
1, 243771, Control_c, 0, 64, 71
1, 243771, Control_c, 0, 67, 56
1, 243783, Note_off_c, 0, 69, 61
1, 243786, Control_c, 0, 64, 86
1, 243786, Control_c, 0, 67, 54
1, 243801, Control_c, 0, 64, 127
1, 243801, Control_c, 0, 67, 52
1, 243801, Note_off_c, 0, 36, 62
1, 243814, Control_c, 0, 67, 50
1, 243818, Note_off_c, 0, 75, 62
1, 243819, Note_off_c, 0, 72, 61
1, 243829, Control_c, 0, 67, 47
1, 243844, Control_c, 0, 67, 44
1, 243849, Note_on_c, 0, 68, 61
1, 243852, Note_on_c, 0, 51, 75
1, 243859, Control_c, 0, 67, 42
1, 243874, Control_c, 0, 67, 40
1, 243878, Note_off_c, 0, 68, 65
1, 243882, Note_off_c, 0, 51, 68
1, 243948, Control_c, 0, 67, 41
1, 243962, Control_c, 0, 67, 43
1, 243977, Control_c, 0, 67, 44
1, 243992, Control_c, 0, 64, 94
1, 243992, Control_c, 0, 67, 45
1, 244007, Control_c, 0, 64, 70
1, 244007, Control_c, 0, 67, 47
1, 244015, Note_on_c, 0, 81, 96
1, 244022, Note_on_c, 0, 32, 70
1, 244022, Note_on_c, 0, 75, 82
1, 244022, Control_c, 0, 64, 0
1, 244022, Control_c, 0, 67, 49
1, 244037, Control_c, 0, 67, 50
1, 244041, Note_on_c, 0, 72, 66
1, 244050, Note_off_c, 0, 32, 64
1, 244052, Control_c, 0, 67, 52
1, 244066, Control_c, 0, 67, 55
1, 244081, Control_c, 0, 64, 63
1, 244081, Control_c, 0, 67, 57
1, 244096, Control_c, 0, 64, 73
1, 244096, Control_c, 0, 67, 60
1, 244097, Note_on_c, 0, 32, 70
1, 244111, Control_c, 0, 64, 87
1, 244111, Control_c, 0, 67, 62
1, 244126, Control_c, 0, 64, 127
1, 244126, Control_c, 0, 67, 64
1, 244126, Note_off_c, 0, 32, 65
1, 244141, Control_c, 0, 67, 65
1, 244156, Control_c, 0, 67, 67
1, 244170, Control_c, 0, 67, 70
1, 244185, Control_c, 0, 67, 74
1, 244200, Control_c, 0, 67, 80
1, 244214, Control_c, 0, 67, 84
1, 244221, Note_on_c, 0, 54, 60
1, 244229, Control_c, 0, 67, 88
1, 244240, Note_on_c, 0, 80, 81
1, 244244, Control_c, 0, 67, 90
1, 244259, Control_c, 0, 67, 93
1, 244268, Note_off_c, 0, 54, 64
1, 244274, Control_c, 0, 67, 94
1, 244288, Control_c, 0, 67, 95
1, 244290, Note_off_c, 0, 81, 58
1, 244315, Note_off_c, 0, 75, 57
1, 244318, Control_c, 0, 64, 98
1, 244332, Control_c, 0, 64, 77
1, 244334, Note_off_c, 0, 72, 52
1, 244347, Control_c, 0, 64, 58
1, 244362, Control_c, 0, 64, 0
1, 244362, Control_c, 0, 67, 94
1, 244377, Control_c, 0, 67, 94
1, 244379, Note_on_c, 0, 42, 65
1, 244393, Control_c, 0, 67, 93
1, 244406, Note_off_c, 0, 42, 65
1, 244408, Control_c, 0, 67, 93
1, 244423, Control_c, 0, 67, 92
1, 244427, Note_on_c, 0, 81, 79
1, 244436, Note_off_c, 0, 80, 59
1, 244448, Note_on_c, 0, 75, 64
1, 244461, Note_on_c, 0, 72, 55
1, 244475, Control_c, 0, 64, 61
1, 244475, Control_c, 0, 67, 92
1, 244484, Note_on_c, 0, 42, 66
1, 244490, Control_c, 0, 64, 73
1, 244505, Control_c, 0, 64, 87
1, 244505, Control_c, 0, 67, 91
1, 244519, Control_c, 0, 64, 124
1, 244534, Control_c, 0, 64, 127
1, 244570, Note_off_c, 0, 42, 50
1, 244579, Control_c, 0, 67, 92
1, 244593, Control_c, 0, 67, 92
1, 244597, Note_on_c, 0, 80, 64
1, 244599, Note_off_c, 0, 81, 63
1, 244603, Note_on_c, 0, 44, 69
1, 244613, Note_off_c, 0, 75, 62
1, 244621, Note_off_c, 0, 80, 65
1, 244623, Control_c, 0, 67, 93
1, 244633, Note_off_c, 0, 44, 64
1, 244637, Control_c, 0, 67, 93
1, 244646, Note_off_c, 0, 72, 63
1, 244667, Control_c, 0, 67, 94
1, 244711, Control_c, 0, 67, 94
1, 244741, Control_c, 0, 67, 95
1, 244756, Control_c, 0, 67, 96
1, 244767, Note_on_c, 0, 39, 69
1, 244771, Control_c, 0, 67, 96
1, 244779, Note_on_c, 0, 75, 72
1, 244785, Note_on_c, 0, 69, 58
1, 244785, Control_c, 0, 64, 103
1, 244785, Control_c, 0, 67, 98
1, 244789, Note_on_c, 0, 72, 59
1, 244796, Note_off_c, 0, 39, 63
1, 244800, Control_c, 0, 64, 75
1, 244800, Control_c, 0, 67, 100
1, 244815, Control_c, 0, 64, 0
1, 244815, Control_c, 0, 67, 102
1, 244830, Control_c, 0, 67, 103
1, 244845, Control_c, 0, 67, 103
1, 244855, Note_on_c, 0, 39, 66
1, 244874, Control_c, 0, 64, 21
1, 244874, Control_c, 0, 67, 104
1, 244889, Control_c, 0, 64, 61
1, 244894, Note_off_c, 0, 39, 59
1, 244904, Control_c, 0, 64, 70
1, 244913, Note_off_c, 0, 75, 59
1, 244919, Control_c, 0, 64, 81
1, 244927, Note_off_c, 0, 69, 63
1, 244934, Control_c, 0, 64, 105
1, 244937, Note_off_c, 0, 72, 63
1, 244946, Note_on_c, 0, 48, 68
1, 244949, Control_c, 0, 64, 127
1, 244949, Note_on_c, 0, 68, 65
1, 244976, Note_off_c, 0, 68, 65
1, 244986, Note_off_c, 0, 48, 62
1, 245132, Note_on_c, 0, 36, 74
1, 245139, Note_on_c, 0, 69, 69
1, 245141, Control_c, 0, 64, 93
1, 245149, Note_on_c, 0, 60, 54
1, 245150, Note_on_c, 0, 63, 45
1, 245155, Control_c, 0, 64, 69
1, 245166, Note_off_c, 0, 36, 62
1, 245170, Control_c, 0, 64, 0
1, 245170, Control_c, 0, 67, 104
1, 245228, Note_on_c, 0, 36, 61
1, 245238, Control_c, 0, 64, 53
1, 245253, Control_c, 0, 64, 66
1, 245259, Note_off_c, 0, 36, 64
1, 245268, Control_c, 0, 64, 75
1, 245283, Control_c, 0, 64, 87
1, 245298, Control_c, 0, 64, 106
1, 245313, Control_c, 0, 64, 127
1, 245322, Note_off_c, 0, 69, 55
1, 245330, Note_on_c, 0, 68, 62
1, 245344, Note_off_c, 0, 63, 60
1, 245348, Note_on_c, 0, 51, 72
1, 245360, Note_off_c, 0, 68, 66
1, 245380, Note_off_c, 0, 51, 66
1, 245411, Note_off_c, 0, 60, 60
1, 245521, Control_c, 0, 67, 105
1, 245535, Control_c, 0, 67, 105
1, 245550, Control_c, 0, 64, 94
1, 245565, Control_c, 0, 64, 70
1, 245565, Control_c, 0, 67, 106
1, 245570, Note_on_c, 0, 32, 55
1, 245570, Note_on_c, 0, 60, 46
1, 245574, Note_on_c, 0, 63, 58
1, 245579, Note_on_c, 0, 57, 50
1, 245580, Control_c, 0, 64, 0
1, 245580, Control_c, 0, 67, 106
1, 245594, Control_c, 0, 67, 108
1, 245599, Note_off_c, 0, 32, 56
1, 245609, Control_c, 0, 67, 109
1, 245624, Control_c, 0, 67, 110
1, 245654, Control_c, 0, 64, 34
1, 245654, Control_c, 0, 67, 110
1, 245668, Control_c, 0, 64, 64
1, 245674, Note_on_c, 0, 32, 52
1, 245683, Control_c, 0, 64, 73
1, 245698, Control_c, 0, 64, 87
1, 245706, Note_off_c, 0, 32, 56
1, 245713, Control_c, 0, 64, 108
1, 245728, Control_c, 0, 64, 127
1, 245861, Note_off_c, 0, 57, 57
1, 245873, Note_on_c, 0, 56, 51
1, 245906, Control_c, 0, 64, 113
1, 245908, Note_on_c, 0, 54, 46
1, 245921, Control_c, 0, 64, 82
1, 245921, Control_c, 0, 67, 111
1, 245926, Note_off_c, 0, 60, 57
1, 245935, Control_c, 0, 64, 61
1, 245950, Control_c, 0, 64, 0
1, 246017, Control_c, 0, 64, 33
1, 246032, Control_c, 0, 64, 65
1, 246047, Control_c, 0, 64, 74
1, 246062, Control_c, 0, 64, 87
1, 246077, Control_c, 0, 64, 107
1, 246091, Control_c, 0, 64, 127
1, 246096, Note_off_c, 0, 56, 58
1, 246106, Control_c, 0, 67, 110
1, 246111, Note_off_c, 0, 54, 53
1, 246284, Note_on_c, 0, 56, 47
1, 246286, Note_on_c, 0, 61, 61
1, 246299, Control_c, 0, 67, 111
1, 246323, Note_on_c, 0, 52, 26
1, 246323, Note_off_c, 0, 63, 56
1, 246431, Note_on_c, 0, 63, 69
1, 246508, Note_off_c, 0, 61, 38
1, 246609, Control_c, 0, 64, 113
1, 246609, Control_c, 0, 67, 111
1, 246624, Control_c, 0, 64, 96
1, 246639, Control_c, 0, 64, 78
1, 246641, Note_on_c, 0, 64, 56
1, 246650, Note_off_c, 0, 63, 61
1, 246654, Control_c, 0, 64, 56
1, 246654, Control_c, 0, 67, 112
1, 246669, Control_c, 0, 64, 0
1, 246669, Control_c, 0, 67, 112
1, 246672, Note_on_c, 0, 37, 38
1, 246699, Control_c, 0, 67, 113
1, 246721, Control_c, 0, 67, 115
1, 246735, Control_c, 0, 67, 117
1, 246750, Control_c, 0, 67, 118
1, 246765, Control_c, 0, 64, 43
1, 246765, Control_c, 0, 67, 118
1, 246780, Control_c, 0, 64, 67
1, 246780, Control_c, 0, 67, 119
1, 246796, Control_c, 0, 64, 78
1, 246811, Control_c, 0, 64, 93
1, 246826, Control_c, 0, 64, 123
1, 246833, Note_on_c, 0, 40, 49
1, 246840, Control_c, 0, 64, 127
1, 246860, Note_off_c, 0, 64, 62
1, 246884, Note_off_c, 0, 52, 41
1, 246886, Note_off_c, 0, 56, 59
1, 246892, Note_off_c, 0, 37, 41
1, 246976, Note_on_c, 0, 64, 67
1, 246982, Note_off_c, 0, 40, 58
1, 246983, Note_on_c, 0, 44, 58
1, 246985, Note_on_c, 0, 52, 46
1, 246995, Note_on_c, 0, 56, 50
1, 247052, Note_off_c, 0, 44, 61
1, 247062, Control_c, 0, 64, 109
1, 247068, Note_on_c, 0, 63, 66
1, 247071, Note_on_c, 0, 48, 56
1, 247077, Control_c, 0, 64, 85
1, 247092, Control_c, 0, 64, 66
1, 247103, Note_off_c, 0, 64, 52
1, 247107, Control_c, 0, 64, 0
1, 247149, Note_off_c, 0, 48, 60
1, 247161, Note_on_c, 0, 61, 55
1, 247170, Note_on_c, 0, 49, 61
1, 247210, Note_off_c, 0, 56, 48
1, 247211, Note_off_c, 0, 63, 58
1, 247211, Control_c, 0, 64, 61
1, 247226, Control_c, 0, 64, 73
1, 247240, Control_c, 0, 64, 83
1, 247255, Control_c, 0, 64, 96
1, 247259, Note_off_c, 0, 52, 40
1, 247265, Note_off_c, 0, 61, 61
1, 247270, Control_c, 0, 64, 108
1, 247285, Control_c, 0, 64, 114
1, 247314, Control_c, 0, 64, 113
1, 247329, Control_c, 0, 64, 103
1, 247329, Control_c, 0, 67, 119
1, 247344, Control_c, 0, 64, 89
1, 247344, Control_c, 0, 67, 120
1, 247358, Control_c, 0, 64, 73
1, 247358, Control_c, 0, 67, 120
1, 247361, Note_on_c, 0, 61, 61
1, 247366, Note_on_c, 0, 52, 46
1, 247373, Control_c, 0, 64, 48
1, 247373, Control_c, 0, 67, 121
1, 247387, Note_on_c, 0, 56, 41
1, 247388, Control_c, 0, 64, 0
1, 247388, Control_c, 0, 67, 122
1, 247403, Control_c, 0, 67, 125
1, 247418, Control_c, 0, 67, 126
1, 247440, Note_on_c, 0, 59, 60
1, 247462, Note_off_c, 0, 61, 54
1, 247526, Note_on_c, 0, 37, 58
1, 247527, Note_on_c, 0, 58, 63
1, 247533, Note_off_c, 0, 59, 59
1, 247538, Note_off_c, 0, 49, 57
1, 247561, Note_off_c, 0, 56, 59
1, 247575, Note_off_c, 0, 58, 58
1, 247581, Note_off_c, 0, 52, 43
1, 247589, Control_c, 0, 67, 127
1, 247605, Note_on_c, 0, 40, 52
1, 247605, Note_off_c, 0, 37, 60
1, 247634, Control_c, 0, 67, 127
1, 247687, Note_off_c, 0, 40, 61
1, 247696, Note_on_c, 0, 44, 59
1, 247714, Note_on_c, 0, 58, 57
1, 247719, Note_on_c, 0, 56, 51
1, 247727, Note_on_c, 0, 52, 37
1, 247748, Note_off_c, 0, 44, 62
1, 247775, Note_on_c, 0, 48, 54
1, 247857, Note_off_c, 0, 48, 59
1, 247882, Note_on_c, 0, 49, 61
1, 247900, Control_c, 0, 64, 60
1, 247915, Control_c, 0, 64, 70
1, 247930, Control_c, 0, 64, 81
1, 247945, Control_c, 0, 64, 98
1, 247945, Note_off_c, 0, 56, 57
1, 247951, Note_off_c, 0, 49, 63
1, 247960, Control_c, 0, 64, 127
1, 247966, Note_off_c, 0, 58, 38
1, 247967, Note_off_c, 0, 52, 41
1, 248069, Note_on_c, 0, 58, 65
1, 248070, Note_on_c, 0, 56, 56
1, 248091, Note_on_c, 0, 52, 26
1, 248148, Note_off_c, 0, 58, 60
1, 248159, Note_on_c, 0, 59, 69
1, 248229, Note_on_c, 0, 61, 57
1, 248234, Control_c, 0, 64, 109
1, 248249, Control_c, 0, 64, 89
1, 248253, Note_on_c, 0, 58, 76
1, 248263, Control_c, 0, 64, 76
1, 248278, Control_c, 0, 64, 67
1, 248293, Control_c, 0, 64, 64
1, 248295, Note_on_c, 0, 64, 69
1, 248296, Note_off_c, 0, 61, 61
1, 248311, Note_off_c, 0, 59, 39
1, 248322, Control_c, 0, 64, 63
1, 248332, Note_off_c, 0, 52, 42
1, 248332, Note_off_c, 0, 56, 62
1, 248334, Note_off_c, 0, 58, 63
1, 248336, Control_c, 0, 64, 60
1, 248351, Control_c, 0, 64, 37
1, 248366, Control_c, 0, 64, 0
1, 248374, Note_on_c, 0, 70, 68
1, 248398, Note_on_c, 0, 58, 68
1, 248401, Note_off_c, 0, 64, 62
1, 248408, Note_on_c, 0, 56, 56
1, 248413, Note_on_c, 0, 52, 54
1, 248449, Note_off_c, 0, 70, 62
1, 248463, Note_on_c, 0, 71, 64
1, 248478, Note_off_c, 0, 58, 63
1, 248481, Note_on_c, 0, 59, 72
1, 248559, Note_on_c, 0, 58, 77
1, 248565, Note_on_c, 0, 73, 74
1, 248569, Note_off_c, 0, 71, 61
1, 248574, Control_c, 0, 67, 126
1, 248589, Control_c, 0, 64, 52
1, 248589, Control_c, 0, 67, 125
1, 248593, Note_off_c, 0, 59, 59
1, 248603, Control_c, 0, 64, 69
1, 248603, Control_c, 0, 67, 124
1, 248614, Note_off_c, 0, 73, 61
1, 248618, Control_c, 0, 64, 78
1, 248618, Control_c, 0, 67, 122
1, 248633, Control_c, 0, 64, 91
1, 248633, Control_c, 0, 67, 120
1, 248642, Note_off_c, 0, 56, 61
1, 248644, Note_off_c, 0, 52, 35
1, 248648, Control_c, 0, 64, 113
1, 248648, Control_c, 0, 67, 117
1, 248650, Note_off_c, 0, 58, 62
1, 248663, Control_c, 0, 64, 127
1, 248663, Control_c, 0, 67, 114
1, 248678, Control_c, 0, 67, 110
1, 248693, Control_c, 0, 67, 105
1, 248708, Control_c, 0, 67, 98
1, 248723, Control_c, 0, 67, 91
1, 248729, Note_on_c, 0, 58, 77
1, 248735, Note_on_c, 0, 56, 72
1, 248738, Control_c, 0, 67, 83
1, 248744, Note_on_c, 0, 52, 62
1, 248752, Control_c, 0, 67, 75
1, 248767, Control_c, 0, 64, 97
1, 248767, Control_c, 0, 67, 68
1, 248782, Control_c, 0, 64, 76
1, 248782, Control_c, 0, 67, 63
1, 248797, Control_c, 0, 64, 0
1, 248797, Control_c, 0, 67, 60
1, 248800, Note_on_c, 0, 59, 75
1, 248802, Note_off_c, 0, 58, 62
1, 248811, Control_c, 0, 67, 58
1, 248824, Note_off_c, 0, 52, 56
1, 248826, Control_c, 0, 67, 55
1, 248841, Control_c, 0, 67, 53
1, 248856, Control_c, 0, 67, 50
1, 248871, Control_c, 0, 67, 48
1, 248885, Note_on_c, 0, 62, 68
1, 248885, Control_c, 0, 67, 45
1, 248889, Note_on_c, 0, 58, 91
1, 248900, Control_c, 0, 67, 42
1, 248915, Control_c, 0, 67, 38
1, 248919, Note_off_c, 0, 59, 61
1, 248930, Control_c, 0, 67, 34
1, 248952, Control_c, 0, 67, 30
1, 248967, Control_c, 0, 67, 26
1, 248980, Note_on_c, 0, 68, 73
1, 248982, Control_c, 0, 67, 21
1, 248997, Control_c, 0, 67, 17
1, 249007, Note_off_c, 0, 58, 64
1, 249011, Control_c, 0, 64, 67
1, 249011, Control_c, 0, 67, 13
1, 249012, Note_off_c, 0, 56, 62
1, 249021, Note_off_c, 0, 62, 61
1, 249026, Control_c, 0, 64, 80
1, 249026, Control_c, 0, 67, 9
1, 249041, Control_c, 0, 64, 101
1, 249041, Control_c, 0, 67, 0
1, 249051, Note_on_c, 0, 70, 75
1, 249057, Control_c, 0, 64, 127
1, 249064, Note_on_c, 0, 58, 84
1, 249066, Note_on_c, 0, 56, 71
1, 249071, Note_on_c, 0, 53, 71
1, 249089, Note_off_c, 0, 68, 60
1, 249119, Note_off_c, 0, 70, 63
1, 249128, Note_on_c, 0, 74, 79
1, 249167, Note_off_c, 0, 53, 64
1, 249189, Note_off_c, 0, 74, 64
1, 249192, Note_off_c, 0, 58, 59
1, 249194, Note_off_c, 0, 56, 64
1, 249232, Note_on_c, 0, 77, 90
1, 249260, Note_off_c, 0, 77, 62
1, 249423, Note_on_c, 0, 63, 86
1, 249426, Note_on_c, 0, 58, 69
1, 249432, Note_on_c, 0, 54, 71
1, 249510, Note_on_c, 0, 65, 82
1, 249578, Note_off_c, 0, 63, 53
1, 249635, Control_c, 0, 64, 83
1, 249650, Note_on_c, 0, 66, 82
1, 249650, Control_c, 0, 64, 40
1, 249665, Control_c, 0, 64, 0
1, 249665, Note_on_c, 0, 39, 70
1, 249731, Control_c, 0, 64, 48
1, 249746, Control_c, 0, 64, 66
1, 249748, Note_off_c, 0, 65, 37
1, 249760, Control_c, 0, 64, 77
1, 249772, Note_on_c, 0, 42, 69
1, 249775, Control_c, 0, 64, 92
1, 249787, Note_off_c, 0, 54, 59
1, 249790, Control_c, 0, 64, 127
1, 249802, Note_off_c, 0, 58, 60
1, 249815, Note_off_c, 0, 66, 58
1, 249879, Note_on_c, 0, 46, 71
1, 249883, Note_on_c, 0, 66, 78
1, 249889, Note_on_c, 0, 54, 73
1, 249902, Note_off_c, 0, 42, 61
1, 249915, Note_off_c, 0, 39, 25
1, 249924, Note_off_c, 0, 54, 57
1, 249934, Note_on_c, 0, 50, 69
1, 249942, Note_off_c, 0, 46, 62
1, 249963, Note_on_c, 0, 65, 73
1, 249984, Control_c, 0, 64, 90
1, 249998, Control_c, 0, 64, 68
1, 250013, Control_c, 0, 64, 0
1, 250046, Note_off_c, 0, 50, 62
1, 250058, Note_on_c, 0, 63, 83
1, 250058, Note_on_c, 0, 51, 74
1, 250085, Note_off_c, 0, 66, 40
1, 250111, Note_off_c, 0, 65, 62
1, 250118, Control_c, 0, 64, 63
1, 250132, Control_c, 0, 64, 74
1, 250147, Control_c, 0, 64, 88
1, 250162, Control_c, 0, 64, 127
1, 250172, Note_off_c, 0, 63, 58
1, 250246, Note_on_c, 0, 63, 76
1, 250250, Control_c, 0, 67, 8
1, 250252, Note_on_c, 0, 54, 66
1, 250258, Note_on_c, 0, 58, 65
1, 250280, Control_c, 0, 67, 8
1, 250323, Note_on_c, 0, 61, 77
1, 250324, Control_c, 0, 67, 9
1, 250339, Control_c, 0, 64, 110
1, 250354, Control_c, 0, 64, 76
1, 250354, Control_c, 0, 67, 9
1, 250359, Note_off_c, 0, 63, 59
1, 250369, Control_c, 0, 64, 0
1, 250369, Control_c, 0, 67, 10
1, 250397, Note_on_c, 0, 60, 79
1, 250398, Control_c, 0, 67, 10
1, 250414, Note_off_c, 0, 51, 60
1, 250416, Note_on_c, 0, 39, 68
1, 250458, Note_off_c, 0, 58, 38
1, 250495, Control_c, 0, 64, 59
1, 250495, Control_c, 0, 67, 10
1, 250503, Note_on_c, 0, 42, 69
1, 250510, Control_c, 0, 64, 72
1, 250514, Note_off_c, 0, 54, 23
1, 250520, Note_off_c, 0, 39, 59
1, 250524, Note_off_c, 0, 61, 27
1, 250525, Control_c, 0, 64, 84
1, 250525, Control_c, 0, 67, 9
1, 250539, Control_c, 0, 64, 103
1, 250539, Control_c, 0, 67, 9
1, 250551, Note_off_c, 0, 60, 62
1, 250554, Control_c, 0, 64, 127
1, 250554, Control_c, 0, 67, 8
1, 250592, Note_on_c, 0, 46, 72
1, 250606, Note_off_c, 0, 42, 60
1, 250612, Note_on_c, 0, 60, 62
1, 250617, Note_on_c, 0, 54, 60
1, 250622, Note_on_c, 0, 58, 62
1, 250643, Control_c, 0, 67, 9
1, 250657, Control_c, 0, 64, 89
1, 250657, Control_c, 0, 67, 9
1, 250660, Note_off_c, 0, 46, 61
1, 250672, Control_c, 0, 64, 66
1, 250680, Note_on_c, 0, 50, 55
1, 250687, Control_c, 0, 64, 0
1, 250687, Control_c, 0, 67, 10
1, 250702, Control_c, 0, 67, 10
1, 250717, Control_c, 0, 67, 11
1, 250732, Control_c, 0, 67, 11
1, 250747, Control_c, 0, 67, 12
1, 250762, Control_c, 0, 67, 13
1, 250768, Note_off_c, 0, 50, 60
1, 250777, Control_c, 0, 67, 17
1, 250785, Note_on_c, 0, 51, 73
1, 250792, Control_c, 0, 67, 22
1, 250806, Control_c, 0, 67, 28
1, 250821, Control_c, 0, 64, 48
1, 250821, Control_c, 0, 67, 33
1, 250836, Control_c, 0, 64, 69
1, 250836, Control_c, 0, 67, 38
1, 250842, Note_off_c, 0, 54, 55
1, 250851, Control_c, 0, 64, 81
1, 250851, Control_c, 0, 67, 42
1, 250856, Note_off_c, 0, 60, 58
1, 250859, Note_off_c, 0, 51, 59
1, 250860, Note_off_c, 0, 58, 57
1, 250866, Control_c, 0, 64, 102
1, 250866, Control_c, 0, 67, 45
1, 250881, Control_c, 0, 64, 127
1, 250881, Control_c, 0, 67, 47
1, 250896, Control_c, 0, 67, 48
1, 250969, Note_on_c, 0, 60, 61
1, 250970, Control_c, 0, 67, 48
1, 250976, Note_on_c, 0, 58, 61
1, 250985, Note_on_c, 0, 54, 38
1, 251014, Control_c, 0, 67, 49
1, 251044, Note_off_c, 0, 60, 64
1, 251045, Note_off_c, 0, 54, 45
1, 251054, Note_on_c, 0, 61, 68
1, 251103, Control_c, 0, 64, 88
1, 251118, Control_c, 0, 64, 61
1, 251133, Control_c, 0, 64, 0
1, 251134, Note_on_c, 0, 63, 63
1, 251143, Note_on_c, 0, 60, 69
1, 251152, Note_off_c, 0, 61, 55
1, 251162, Control_c, 0, 67, 48
1, 251192, Control_c, 0, 67, 48
1, 251214, Control_c, 0, 64, 44
1, 251223, Note_on_c, 0, 66, 64
1, 251224, Note_off_c, 0, 60, 61
1, 251224, Note_off_c, 0, 63, 60
1, 251229, Control_c, 0, 64, 68
1, 251229, Control_c, 0, 67, 47
1, 251238, Note_off_c, 0, 58, 59
1, 251244, Control_c, 0, 64, 79
1, 251259, Control_c, 0, 64, 95
1, 251261, Note_off_c, 0, 66, 60
1, 251274, Control_c, 0, 64, 127
1, 251292, Note_on_c, 0, 72, 66
1, 251312, Note_on_c, 0, 60, 67
1, 251318, Control_c, 0, 67, 48
1, 251334, Note_on_c, 0, 54, 29
1, 251347, Control_c, 0, 67, 48
1, 251364, Note_on_c, 0, 58, 48
1, 251377, Control_c, 0, 64, 113
1, 251377, Control_c, 0, 67, 49
1, 251386, Note_off_c, 0, 60, 62
1, 251391, Note_off_c, 0, 72, 57
1, 251392, Control_c, 0, 64, 86
1, 251394, Note_on_c, 0, 61, 75
1, 251395, Note_on_c, 0, 73, 66
1, 251406, Control_c, 0, 64, 62
1, 251406, Control_c, 0, 67, 49
1, 251421, Control_c, 0, 64, 0
1, 251421, Control_c, 0, 67, 50
1, 251447, Note_off_c, 0, 54, 47
1, 251451, Control_c, 0, 67, 51
1, 251466, Control_c, 0, 67, 53
1, 251480, Control_c, 0, 67, 56
1, 251485, Note_on_c, 0, 75, 65
1, 251486, Note_on_c, 0, 60, 67
1, 251489, Note_off_c, 0, 73, 59
1, 251495, Control_c, 0, 67, 59
1, 251510, Control_c, 0, 64, 57
1, 251510, Control_c, 0, 67, 60
1, 251519, Note_off_c, 0, 61, 54
1, 251525, Control_c, 0, 64, 70
1, 251525, Control_c, 0, 67, 61
1, 251534, Note_off_c, 0, 75, 58
1, 251540, Control_c, 0, 64, 81
1, 251540, Control_c, 0, 67, 62
1, 251555, Control_c, 0, 64, 97
1, 251555, Control_c, 0, 67, 62
1, 251569, Control_c, 0, 64, 127
1, 251572, Note_off_c, 0, 58, 39
1, 251577, Note_off_c, 0, 60, 59
1, 251659, Control_c, 0, 67, 63
1, 251678, Note_on_c, 0, 60, 62
1, 251683, Note_on_c, 0, 58, 51
1, 251703, Note_on_c, 0, 54, 16
1, 251704, Control_c, 0, 67, 63
1, 251718, Control_c, 0, 64, 107
1, 251733, Control_c, 0, 64, 84
1, 251740, Note_off_c, 0, 60, 60
1, 251748, Control_c, 0, 64, 65
1, 251748, Control_c, 0, 67, 64
1, 251752, Note_off_c, 0, 54, 51
1, 251755, Note_on_c, 0, 61, 59
1, 251763, Control_c, 0, 64, 0
1, 251833, Note_on_c, 0, 64, 52
1, 251850, Note_on_c, 0, 60, 59
1, 251852, Control_c, 0, 67, 64
1, 251861, Note_off_c, 0, 61, 50
1, 251882, Control_c, 0, 67, 65
1, 251911, Control_c, 0, 64, 60
1, 251919, Note_off_c, 0, 58, 30
1, 251926, Control_c, 0, 64, 69
1, 251926, Control_c, 0, 67, 65
1, 251936, Note_on_c, 0, 70, 51
1, 251939, Note_off_c, 0, 60, 59
1, 251941, Control_c, 0, 64, 78
1, 251963, Control_c, 0, 64, 89
1, 251963, Control_c, 0, 67, 66
1, 251978, Control_c, 0, 64, 113
1, 251993, Control_c, 0, 64, 127
1, 251993, Control_c, 0, 67, 66
1, 252044, Note_on_c, 0, 72, 52
1, 252051, Control_c, 0, 67, 67
1, 252061, Note_on_c, 0, 60, 58
1, 252065, Note_on_c, 0, 58, 51
1, 252066, Control_c, 0, 67, 67
1, 252075, Note_on_c, 0, 55, 53
1, 252079, Note_off_c, 0, 64, 37
1, 252081, Control_c, 0, 67, 68
1, 252096, Control_c, 0, 67, 70
1, 252100, Note_off_c, 0, 70, 36
1, 252110, Control_c, 0, 67, 72
1, 252112, Note_off_c, 0, 72, 63
1, 252125, Control_c, 0, 67, 73
1, 252135, Note_off_c, 0, 60, 60
1, 252136, Note_off_c, 0, 55, 58
1, 252140, Control_c, 0, 67, 75
1, 252154, Note_off_c, 0, 58, 53
1, 252154, Control_c, 0, 67, 76
1, 252163, Note_on_c, 0, 76, 47
1, 252169, Control_c, 0, 67, 77
1, 252184, Control_c, 0, 67, 78
1, 252199, Control_c, 0, 67, 79
1, 252214, Control_c, 0, 67, 80
1, 252228, Note_off_c, 0, 76, 56
1, 252228, Control_c, 0, 67, 81
1, 252243, Control_c, 0, 67, 82
1, 252258, Control_c, 0, 67, 84
1, 252273, Control_c, 0, 67, 85
1, 252288, Control_c, 0, 67, 85
1, 252303, Control_c, 0, 67, 86
1, 252314, Note_on_c, 0, 79, 44
1, 252339, Note_off_c, 0, 79, 57
1, 252347, Control_c, 0, 67, 86
1, 252362, Control_c, 0, 67, 87
1, 252377, Control_c, 0, 67, 88
1, 252392, Control_c, 0, 67, 90
1, 252407, Control_c, 0, 67, 92
1, 252422, Control_c, 0, 67, 93
1, 252437, Control_c, 0, 67, 94
1, 252452, Control_c, 0, 67, 95
1, 252482, Control_c, 0, 67, 95
1, 252541, Control_c, 0, 67, 95
1, 252585, Control_c, 0, 67, 94
1, 252591, Note_on_c, 0, 80, 59
1, 252608, Note_on_c, 0, 53, 51
1, 252615, Control_c, 0, 64, 90
1, 252615, Control_c, 0, 67, 94
1, 252616, Note_on_c, 0, 60, 47
1, 252630, Control_c, 0, 64, 68
1, 252644, Control_c, 0, 64, 0
1, 252686, Note_on_c, 0, 84, 57
1, 252686, Note_off_c, 0, 53, 59
1, 252699, Note_on_c, 0, 55, 63
1, 252711, Control_c, 0, 67, 93
1, 252726, Control_c, 0, 64, 50
1, 252741, Control_c, 0, 64, 69
1, 252756, Control_c, 0, 64, 79
1, 252771, Control_c, 0, 64, 93
1, 252785, Note_on_c, 0, 56, 69
1, 252785, Control_c, 0, 64, 111
1, 252786, Note_off_c, 0, 55, 61
1, 252800, Control_c, 0, 64, 115
1, 252805, Note_on_c, 0, 77, 55
1, 252805, Note_off_c, 0, 80, 24
1, 252815, Control_c, 0, 64, 96
1, 252830, Control_c, 0, 64, 73
1, 252839, Note_off_c, 0, 60, 52
1, 252845, Control_c, 0, 64, 0
1, 252862, Note_off_c, 0, 56, 65
1, 252877, Note_off_c, 0, 77, 60
1, 252886, Note_on_c, 0, 72, 56
1, 252889, Control_c, 0, 64, 35
1, 252904, Control_c, 0, 64, 63
1, 252919, Control_c, 0, 64, 70
1, 252933, Control_c, 0, 64, 78
1, 252945, Note_off_c, 0, 84, 45
1, 252948, Control_c, 0, 64, 79
1, 252963, Control_c, 0, 64, 73
1, 252967, Note_on_c, 0, 60, 41
1, 252968, Note_on_c, 0, 56, 68
1, 252971, Note_on_c, 0, 80, 59
1, 252977, Control_c, 0, 64, 60
1, 252992, Control_c, 0, 64, 0
1, 252994, Note_off_c, 0, 72, 57
1, 253042, Note_on_c, 0, 55, 65
1, 253053, Note_on_c, 0, 84, 63
1, 253060, Note_off_c, 0, 60, 54
1, 253075, Note_off_c, 0, 56, 60
1, 253075, Note_off_c, 0, 80, 49
1, 253081, Control_c, 0, 64, 39
1, 253096, Control_c, 0, 64, 66
1, 253111, Note_off_c, 0, 55, 63
1, 253111, Control_c, 0, 64, 78
1, 253114, Note_on_c, 0, 53, 70
1, 253124, Note_on_c, 0, 77, 54
1, 253125, Control_c, 0, 64, 85
1, 253140, Control_c, 0, 64, 84
1, 253140, Control_c, 0, 67, 93
1, 253147, Note_off_c, 0, 53, 66
1, 253155, Control_c, 0, 64, 74
1, 253164, Note_off_c, 0, 77, 62
1, 253171, Control_c, 0, 64, 62
1, 253186, Control_c, 0, 64, 0
1, 253196, Note_on_c, 0, 72, 53
1, 253230, Note_off_c, 0, 84, 57
1, 253274, Note_on_c, 0, 80, 63
1, 253274, Note_off_c, 0, 72, 39
1, 253274, Control_c, 0, 67, 93
1, 253275, Note_on_c, 0, 53, 49
1, 253280, Note_on_c, 0, 60, 39
1, 253319, Control_c, 0, 67, 94
1, 253330, Note_off_c, 0, 53, 64
1, 253331, Note_on_c, 0, 51, 64
1, 253343, Note_on_c, 0, 84, 63
1, 253357, Note_off_c, 0, 80, 55
1, 253424, Note_on_c, 0, 77, 57
1, 253427, Note_on_c, 0, 50, 63
1, 253431, Note_off_c, 0, 51, 63
1, 253433, Note_off_c, 0, 60, 49
1, 253445, Control_c, 0, 67, 93
1, 253460, Control_c, 0, 67, 92
1, 253462, Note_off_c, 0, 77, 65
1, 253465, Note_off_c, 0, 50, 68
1, 253474, Control_c, 0, 64, 65
1, 253474, Control_c, 0, 67, 91
1, 253489, Control_c, 0, 64, 78
1, 253504, Note_on_c, 0, 72, 54
1, 253504, Control_c, 0, 64, 96
1, 253504, Control_c, 0, 67, 90
1, 253519, Control_c, 0, 64, 127
1, 253528, Note_off_c, 0, 72, 57
1, 253532, Note_off_c, 0, 84, 60
1, 253534, Control_c, 0, 67, 90
1, 253603, Note_on_c, 0, 80, 71
1, 253605, Note_on_c, 0, 77, 63
1, 253608, Control_c, 0, 67, 89
1, 253638, Control_c, 0, 67, 88
1, 253649, Note_off_c, 0, 77, 43
1, 253653, Control_c, 0, 67, 87
1, 253663, Note_off_c, 0, 80, 58
1, 253665, Note_on_c, 0, 84, 62
1, 253668, Control_c, 0, 67, 86
1, 253682, Control_c, 0, 67, 85
1, 253697, Control_c, 0, 67, 84
1, 253712, Control_c, 0, 67, 82
1, 253726, Control_c, 0, 67, 80
1, 253741, Control_c, 0, 67, 78
1, 253755, Note_on_c, 0, 68, 68
1, 253756, Control_c, 0, 67, 77
1, 253766, Note_on_c, 0, 77, 65
1, 253771, Control_c, 0, 67, 75
1, 253778, Note_off_c, 0, 68, 66
1, 253786, Control_c, 0, 67, 74
1, 253792, Note_off_c, 0, 77, 67
1, 253800, Control_c, 0, 67, 74
1, 253815, Control_c, 0, 67, 73
1, 253830, Control_c, 0, 67, 73
1, 253842, Note_on_c, 0, 72, 61
1, 253904, Control_c, 0, 67, 72
1, 253911, Note_off_c, 0, 84, 57
1, 253918, Control_c, 0, 64, 92
1, 253918, Control_c, 0, 67, 72
1, 253925, Note_on_c, 0, 41, 70
1, 253926, Note_on_c, 0, 48, 65
1, 253932, Note_on_c, 0, 80, 67
1, 253933, Control_c, 0, 64, 66
1, 253945, Note_off_c, 0, 72, 57
1, 253948, Control_c, 0, 64, 0
1, 253948, Control_c, 0, 67, 71
1, 253963, Control_c, 0, 67, 70
1, 253979, Control_c, 0, 67, 70
1, 253984, Note_on_c, 0, 43, 82
1, 253994, Note_off_c, 0, 41, 63
1, 253994, Control_c, 0, 64, 36
1, 253994, Control_c, 0, 67, 69
1, 254000, Note_on_c, 0, 84, 64
1, 254009, Control_c, 0, 64, 64
1, 254009, Control_c, 0, 67, 68
1, 254013, Note_off_c, 0, 80, 55
1, 254023, Control_c, 0, 64, 72
1, 254023, Control_c, 0, 67, 67
1, 254038, Control_c, 0, 64, 83
1, 254038, Control_c, 0, 67, 66
1, 254053, Control_c, 0, 64, 103
1, 254053, Control_c, 0, 67, 66
1, 254054, Note_on_c, 0, 44, 85
1, 254054, Note_off_c, 0, 48, 40
1, 254059, Note_off_c, 0, 43, 64
1, 254067, Note_on_c, 0, 77, 69
1, 254068, Control_c, 0, 64, 127
1, 254068, Control_c, 0, 67, 65
1, 254083, Control_c, 0, 67, 65
1, 254097, Control_c, 0, 67, 64
1, 254100, Note_off_c, 0, 44, 65
1, 254112, Control_c, 0, 67, 65
1, 254118, Note_off_c, 0, 77, 60
1, 254140, Note_on_c, 0, 72, 69
1, 254142, Control_c, 0, 67, 65
1, 254157, Control_c, 0, 64, 89
1, 254172, Control_c, 0, 64, 68
1, 254172, Control_c, 0, 67, 66
1, 254187, Control_c, 0, 64, 0
1, 254203, Note_off_c, 0, 84, 55
1, 254229, Note_on_c, 0, 48, 65
1, 254230, Note_on_c, 0, 44, 73
1, 254239, Note_on_c, 0, 80, 71
1, 254252, Note_off_c, 0, 72, 55
1, 254291, Note_on_c, 0, 43, 78
1, 254309, Note_on_c, 0, 84, 67
1, 254310, Note_off_c, 0, 48, 57
1, 254327, Control_c, 0, 64, 19
1, 254327, Control_c, 0, 67, 65
1, 254336, Note_off_c, 0, 44, 62
1, 254342, Control_c, 0, 64, 66
1, 254356, Control_c, 0, 64, 80
1, 254356, Control_c, 0, 67, 65
1, 254369, Note_on_c, 0, 41, 81
1, 254369, Note_off_c, 0, 80, 38
1, 254371, Control_c, 0, 64, 103
1, 254380, Note_off_c, 0, 43, 64
1, 254383, Note_on_c, 0, 77, 73
1, 254386, Control_c, 0, 64, 127
1, 254386, Control_c, 0, 67, 64
1, 254426, Note_off_c, 0, 41, 61
1, 254432, Note_off_c, 0, 77, 63
1, 254446, Note_on_c, 0, 72, 65
1, 254460, Control_c, 0, 67, 65
1, 254475, Control_c, 0, 67, 66
1, 254488, Note_off_c, 0, 84, 60
1, 254490, Control_c, 0, 64, 88
1, 254490, Control_c, 0, 67, 67
1, 254504, Control_c, 0, 64, 68
1, 254504, Control_c, 0, 67, 68
1, 254517, Note_on_c, 0, 41, 82
1, 254519, Control_c, 0, 64, 0
1, 254519, Control_c, 0, 67, 69
1, 254525, Note_on_c, 0, 48, 56
1, 254534, Note_on_c, 0, 80, 73
1, 254534, Control_c, 0, 67, 69
1, 254541, Note_off_c, 0, 72, 58
1, 254568, Note_off_c, 0, 48, 56
1, 254593, Control_c, 0, 67, 69
1, 254600, Note_on_c, 0, 84, 70
1, 254601, Note_on_c, 0, 39, 73
1, 254601, Note_off_c, 0, 41, 62
1, 254608, Control_c, 0, 67, 68
1, 254611, Note_off_c, 0, 80, 58
1, 254622, Control_c, 0, 67, 67
1, 254637, Control_c, 0, 67, 66
1, 254652, Control_c, 0, 67, 64
1, 254655, Note_on_c, 0, 38, 78
1, 254662, Note_on_c, 0, 77, 69
1, 254667, Control_c, 0, 64, 61
1, 254667, Control_c, 0, 67, 62
1, 254670, Note_off_c, 0, 39, 62
1, 254681, Control_c, 0, 64, 79
1, 254681, Control_c, 0, 67, 60
1, 254684, Note_off_c, 0, 38, 68
1, 254696, Control_c, 0, 64, 107
1, 254696, Control_c, 0, 67, 55
1, 254711, Control_c, 0, 64, 127
1, 254711, Control_c, 0, 67, 50
1, 254718, Note_off_c, 0, 77, 61
1, 254726, Control_c, 0, 67, 48
1, 254741, Control_c, 0, 67, 48
1, 254743, Note_on_c, 0, 72, 69
1, 254790, Note_off_c, 0, 84, 62
1, 254825, Note_off_c, 0, 72, 55
1, 254831, Control_c, 0, 67, 47
1, 254839, Note_on_c, 0, 69, 84
1, 254849, Note_on_c, 0, 81, 79
1, 254860, Control_c, 0, 64, 83
1, 254860, Control_c, 0, 67, 46
1, 254875, Control_c, 0, 64, 0
1, 254875, Control_c, 0, 67, 43
1, 254890, Control_c, 0, 67, 38
1, 254905, Control_c, 0, 67, 32
1, 254917, Note_on_c, 0, 84, 68
1, 254920, Control_c, 0, 67, 28
1, 254930, Note_off_c, 0, 81, 56
1, 254935, Control_c, 0, 67, 24
1, 254957, Control_c, 0, 67, 21
1, 254971, Control_c, 0, 64, 64
1, 254971, Control_c, 0, 67, 20
1, 254986, Control_c, 0, 64, 77
1, 254986, Control_c, 0, 67, 19
1, 254996, Note_off_c, 0, 69, 64
1, 255000, Note_on_c, 0, 62, 72
1, 255001, Control_c, 0, 64, 102
1, 255001, Control_c, 0, 67, 18
1, 255012, Note_on_c, 0, 78, 71
1, 255016, Control_c, 0, 64, 127
1, 255016, Control_c, 0, 67, 17
1, 255025, Note_off_c, 0, 62, 65
1, 255027, Note_off_c, 0, 84, 62
1, 255065, Note_off_c, 0, 78, 62
1, 255079, Note_on_c, 0, 74, 70
1, 255165, Note_on_c, 0, 82, 81
1, 255165, Control_c, 0, 64, 85
1, 255166, Note_on_c, 0, 55, 81
1, 255167, Note_off_c, 0, 74, 58
1, 255177, Note_on_c, 0, 62, 53
1, 255179, Control_c, 0, 64, 56
1, 255194, Control_c, 0, 64, 0
1, 255221, Note_on_c, 0, 57, 84
1, 255224, Note_on_c, 0, 86, 77
1, 255224, Control_c, 0, 67, 16
1, 255236, Note_off_c, 0, 82, 61
1, 255239, Control_c, 0, 67, 15
1, 255242, Note_off_c, 0, 55, 62
1, 255254, Control_c, 0, 64, 52
1, 255254, Control_c, 0, 67, 12
1, 255269, Control_c, 0, 64, 70
1, 255269, Control_c, 0, 67, 8
1, 255284, Control_c, 0, 64, 88
1, 255284, Control_c, 0, 67, 0
1, 255290, Note_on_c, 0, 58, 100
1, 255299, Control_c, 0, 64, 127
1, 255299, Note_on_c, 0, 79, 82
1, 255305, Note_off_c, 0, 62, 59
1, 255313, Note_off_c, 0, 57, 65
1, 255357, Note_off_c, 0, 58, 65
1, 255361, Note_off_c, 0, 79, 62
1, 255384, Note_on_c, 0, 74, 68
1, 255432, Note_off_c, 0, 86, 64
1, 255446, Control_c, 0, 64, 99
1, 255457, Note_on_c, 0, 58, 81
1, 255459, Note_on_c, 0, 62, 69
1, 255461, Control_c, 0, 64, 68
1, 255465, Note_on_c, 0, 82, 75
1, 255476, Control_c, 0, 64, 0
1, 255481, Note_off_c, 0, 74, 58
1, 255490, Control_c, 0, 67, 8
1, 255505, Control_c, 0, 67, 9
1, 255520, Control_c, 0, 67, 9
1, 255531, Note_on_c, 0, 57, 77
1, 255535, Control_c, 0, 67, 10
1, 255540, Note_on_c, 0, 86, 74
1, 255550, Control_c, 0, 67, 10
1, 255561, Note_off_c, 0, 82, 57
1, 255562, Note_off_c, 0, 62, 50
1, 255566, Control_c, 0, 64, 45
1, 255566, Control_c, 0, 67, 11
1, 255571, Note_off_c, 0, 58, 61
1, 255581, Control_c, 0, 64, 69
1, 255595, Control_c, 0, 64, 90
1, 255595, Control_c, 0, 67, 10
1, 255599, Note_on_c, 0, 79, 74
1, 255600, Note_on_c, 0, 55, 83
1, 255610, Control_c, 0, 64, 127
1, 255610, Control_c, 0, 67, 10
1, 255614, Note_off_c, 0, 57, 63
1, 255640, Control_c, 0, 67, 9
1, 255646, Note_off_c, 0, 55, 66
1, 255653, Note_off_c, 0, 79, 62
1, 255669, Control_c, 0, 67, 9
1, 255684, Note_on_c, 0, 74, 68
1, 255722, Control_c, 0, 67, 9
1, 255725, Note_off_c, 0, 86, 62
1, 255737, Control_c, 0, 67, 10
1, 255751, Control_c, 0, 67, 11
1, 255761, Note_on_c, 0, 62, 64
1, 255762, Note_on_c, 0, 55, 75
1, 255766, Control_c, 0, 64, 93
1, 255766, Control_c, 0, 67, 12
1, 255773, Note_on_c, 0, 82, 76
1, 255780, Note_off_c, 0, 74, 60
1, 255781, Control_c, 0, 64, 59
1, 255781, Control_c, 0, 67, 14
1, 255795, Control_c, 0, 64, 0
1, 255795, Control_c, 0, 67, 16
1, 255810, Control_c, 0, 67, 17
1, 255825, Control_c, 0, 67, 18
1, 255827, Note_on_c, 0, 51, 74
1, 255835, Note_on_c, 0, 86, 73
1, 255838, Note_off_c, 0, 62, 59
1, 255855, Note_off_c, 0, 55, 63
1, 255860, Note_off_c, 0, 82, 59
1, 255863, Note_on_c, 0, 52, 70
1, 255884, Control_c, 0, 67, 17
1, 255899, Control_c, 0, 67, 16
1, 255900, Note_on_c, 0, 79, 73
1, 255910, Note_on_c, 0, 50, 82
1, 255914, Control_c, 0, 67, 13
1, 255917, Note_off_c, 0, 52, 61
1, 255920, Note_off_c, 0, 51, 58
1, 255928, Control_c, 0, 67, 11
1, 255940, Note_off_c, 0, 50, 69
1, 255943, Control_c, 0, 64, 67
1, 255943, Control_c, 0, 67, 8
1, 255948, Note_off_c, 0, 79, 60
1, 255958, Control_c, 0, 64, 83
1, 255958, Control_c, 0, 67, 0
1, 255973, Note_on_c, 0, 74, 74
1, 255973, Control_c, 0, 64, 127
1, 256005, Note_off_c, 0, 86, 64
1, 256008, Note_off_c, 0, 74, 57
1, 256069, Note_on_c, 0, 79, 91
1, 256069, Note_on_c, 0, 82, 85
1, 256143, Note_on_c, 0, 86, 72
1, 256145, Note_off_c, 0, 82, 62
1, 256180, Note_off_c, 0, 79, 58
1, 256226, Note_on_c, 0, 70, 84
1, 256232, Note_on_c, 0, 79, 71
1, 256252, Note_off_c, 0, 70, 64
1, 256288, Note_off_c, 0, 79, 63
1, 256310, Note_on_c, 0, 74, 75
1, 256362, Note_off_c, 0, 86, 64
1, 256383, Note_on_c, 0, 62, 81
1, 256387, Note_on_c, 0, 70, 77
1, 256389, Control_c, 0, 64, 98
1, 256401, Note_on_c, 0, 82, 77
1, 256404, Control_c, 0, 64, 70
1, 256418, Note_off_c, 0, 74, 58
1, 256418, Control_c, 0, 64, 0
1, 256462, Note_on_c, 0, 63, 80
1, 256463, Note_on_c, 0, 86, 82
1, 256479, Note_off_c, 0, 82, 62
1, 256480, Note_off_c, 0, 62, 61
1, 256515, Control_c, 0, 64, 60
1, 256526, Note_on_c, 0, 65, 85
1, 256529, Note_off_c, 0, 70, 60
1, 256530, Control_c, 0, 64, 74
1, 256536, Note_on_c, 0, 77, 80
1, 256544, Control_c, 0, 64, 100
1, 256557, Note_off_c, 0, 63, 62
1, 256559, Control_c, 0, 64, 127
1, 256591, Note_off_c, 0, 65, 65
1, 256597, Note_off_c, 0, 77, 63
1, 256619, Note_on_c, 0, 74, 79
1, 256663, Note_off_c, 0, 86, 63
1, 256685, Note_on_c, 0, 65, 85
1, 256691, Note_on_c, 0, 70, 70
1, 256692, Control_c, 0, 64, 119
1, 256699, Note_on_c, 0, 82, 83
1, 256707, Control_c, 0, 64, 80
1, 256719, Note_off_c, 0, 74, 59
1, 256722, Control_c, 0, 64, 42
1, 256737, Control_c, 0, 64, 0
1, 256756, Note_on_c, 0, 63, 77
1, 256765, Note_on_c, 0, 86, 82
1, 256766, Control_c, 0, 64, 50
1, 256780, Note_off_c, 0, 82, 63
1, 256781, Control_c, 0, 64, 67
1, 256796, Control_c, 0, 64, 79
1, 256810, Note_off_c, 0, 70, 56
1, 256811, Note_off_c, 0, 65, 55
1, 256811, Control_c, 0, 64, 104
1, 256825, Note_on_c, 0, 77, 84
1, 256825, Control_c, 0, 64, 127
1, 256834, Note_on_c, 0, 62, 79
1, 256869, Note_off_c, 0, 63, 62
1, 256887, Note_off_c, 0, 77, 63
1, 256899, Note_off_c, 0, 62, 62
1, 256901, Note_on_c, 0, 74, 79
1, 256934, Note_off_c, 0, 86, 61
1, 256977, Note_on_c, 0, 62, 78
1, 256985, Note_off_c, 0, 74, 61
1, 256988, Note_on_c, 0, 82, 84
1, 256990, Note_on_c, 0, 70, 61
1, 257004, Control_c, 0, 64, 87
1, 257018, Control_c, 0, 64, 0
1, 257037, Note_on_c, 0, 86, 81
1, 257050, Note_on_c, 0, 60, 75
1, 257064, Note_off_c, 0, 82, 63
1, 257072, Note_off_c, 0, 62, 62
1, 257118, Note_on_c, 0, 77, 79
1, 257122, Note_on_c, 0, 58, 88
1, 257136, Control_c, 0, 64, 58
1, 257145, Note_off_c, 0, 70, 61
1, 257147, Note_off_c, 0, 60, 65
1, 257151, Control_c, 0, 64, 77
1, 257165, Note_off_c, 0, 58, 67
1, 257167, Control_c, 0, 64, 104
1, 257173, Note_off_c, 0, 77, 62
1, 257189, Control_c, 0, 64, 127
1, 257200, Note_on_c, 0, 74, 76
1, 257219, Note_off_c, 0, 86, 64
1, 257270, Note_off_c, 0, 74, 57
1, 257284, Note_on_c, 0, 77, 86
1, 257297, Note_on_c, 0, 82, 80
1, 257302, Note_on_c, 0, 76, 58
1, 257327, Note_off_c, 0, 76, 37
1, 257329, Note_on_c, 0, 86, 79
1, 257355, Note_off_c, 0, 82, 62
1, 257382, Note_off_c, 0, 77, 50
1, 257436, Note_on_c, 0, 70, 86
1, 257440, Note_off_c, 0, 86, 62
1, 257441, Note_on_c, 0, 77, 71
1, 257467, Note_off_c, 0, 70, 62
1, 257489, Note_off_c, 0, 77, 60
1, 257505, Note_on_c, 0, 74, 72
1, 257534, Note_off_c, 0, 74, 64
1, 257596, Note_on_c, 0, 58, 82
1, 257597, Note_on_c, 0, 65, 79
1, 257601, Note_on_c, 0, 85, 86
1, 257634, Control_c, 0, 64, 78
1, 257648, Control_c, 0, 64, 0
1, 257664, Note_on_c, 0, 60, 80
1, 257664, Note_on_c, 0, 89, 89
1, 257678, Note_off_c, 0, 58, 58
1, 257679, Note_off_c, 0, 85, 64
1, 257729, Note_on_c, 0, 61, 95
1, 257737, Control_c, 0, 64, 58
1, 257744, Note_off_c, 0, 65, 60
1, 257752, Note_on_c, 0, 82, 89
1, 257752, Control_c, 0, 64, 75
1, 257754, Note_off_c, 0, 60, 65
1, 257767, Control_c, 0, 64, 109
1, 257782, Control_c, 0, 64, 127
1, 257814, Note_off_c, 0, 61, 64
1, 257823, Note_off_c, 0, 82, 65
1, 257831, Note_on_c, 0, 77, 81
1, 257879, Note_off_c, 0, 89, 63
1, 257901, Note_on_c, 0, 61, 87
1, 257902, Note_on_c, 0, 65, 77
1, 257914, Note_on_c, 0, 85, 86
1, 257930, Control_c, 0, 64, 93
1, 257952, Control_c, 0, 64, 66
1, 257968, Control_c, 0, 64, 53
1, 257975, Note_on_c, 0, 60, 80
1, 257978, Note_off_c, 0, 77, 49
1, 257983, Control_c, 0, 64, 70
1, 257987, Note_on_c, 0, 89, 88
1, 257997, Control_c, 0, 64, 90
1, 258002, Note_off_c, 0, 85, 62
1, 258008, Note_off_c, 0, 65, 55
1, 258012, Control_c, 0, 64, 127
1, 258035, Note_off_c, 0, 61, 60
1, 258050, Note_on_c, 0, 58, 92
1, 258057, Note_on_c, 0, 82, 88
1, 258066, Note_off_c, 0, 60, 64
1, 258113, Note_off_c, 0, 58, 65
1, 258115, Note_off_c, 0, 89, 59
1, 258126, Note_on_c, 0, 77, 76
1, 258127, Note_off_c, 0, 82, 64
1, 258196, Note_on_c, 0, 58, 92
1, 258205, Note_on_c, 0, 65, 73
1, 258205, Control_c, 0, 64, 88
1, 258206, Note_on_c, 0, 85, 88
1, 258212, Note_off_c, 0, 77, 50
1, 258220, Control_c, 0, 64, 45
1, 258235, Control_c, 0, 64, 0
1, 258265, Control_c, 0, 64, 62
1, 258266, Note_on_c, 0, 89, 83
1, 258279, Note_off_c, 0, 85, 64
1, 258279, Control_c, 0, 64, 77
1, 258286, Note_on_c, 0, 56, 87
1, 258294, Control_c, 0, 64, 117
1, 258302, Note_off_c, 0, 65, 44
1, 258309, Control_c, 0, 64, 127
1, 258321, Note_off_c, 0, 58, 60
1, 258356, Note_on_c, 0, 55, 86
1, 258359, Note_on_c, 0, 82, 89
1, 258396, Note_off_c, 0, 89, 63
1, 258396, Note_off_c, 0, 56, 65
1, 258410, Note_off_c, 0, 55, 66
1, 258420, Note_on_c, 0, 77, 82
1, 258430, Note_off_c, 0, 82, 63
1, 258528, Note_on_c, 0, 55, 95
1, 258531, Control_c, 0, 64, 95
1, 258535, Note_on_c, 0, 48, 89
1, 258538, Note_on_c, 0, 84, 84
1, 258546, Control_c, 0, 64, 59
1, 258561, Control_c, 0, 64, 0
1, 258576, Note_off_c, 0, 77, 57
1, 258576, Control_c, 0, 64, 17
1, 258590, Control_c, 0, 64, 69
1, 258605, Control_c, 0, 64, 84
1, 258614, Note_off_c, 0, 55, 67
1, 258620, Control_c, 0, 64, 127
1, 258633, Note_on_c, 0, 88, 74
1, 258638, Note_off_c, 0, 48, 65
1, 258753, Note_on_c, 0, 43, 97
1, 258758, Note_on_c, 0, 36, 90
1, 258769, Note_on_c, 0, 82, 72
1, 258785, Note_off_c, 0, 84, 62
1, 258786, Note_off_c, 0, 36, 67
1, 258786, Note_off_c, 0, 43, 66
1, 258806, Note_off_c, 0, 88, 59
1, 258842, Note_off_c, 0, 82, 62
1, 258846, Note_on_c, 0, 76, 68
1, 258969, Note_off_c, 0, 76, 54
1, 258977, Note_on_c, 0, 85, 78
1, 258987, Note_on_c, 0, 65, 81
1, 258990, Note_on_c, 0, 58, 83
1, 259045, Note_on_c, 0, 89, 77
1, 259063, Note_off_c, 0, 85, 58
1, 259069, Note_on_c, 0, 60, 88
1, 259081, Note_on_c, 0, 61, 47
1, 259086, Note_off_c, 0, 58, 59
1, 259100, Note_off_c, 0, 65, 59
1, 259102, Control_c, 0, 64, 74
1, 259111, Note_off_c, 0, 61, 57
1, 259117, Control_c, 0, 64, 0
1, 259120, Note_on_c, 0, 82, 77
1, 259130, Note_on_c, 0, 61, 78
1, 259153, Note_off_c, 0, 60, 66
1, 259176, Control_c, 0, 64, 62
1, 259189, Note_off_c, 0, 82, 63
1, 259191, Control_c, 0, 64, 75
1, 259205, Note_on_c, 0, 77, 72
1, 259206, Control_c, 0, 64, 116
1, 259220, Note_off_c, 0, 61, 64
1, 259220, Control_c, 0, 64, 127
1, 259252, Note_off_c, 0, 89, 62
1, 259294, Note_off_c, 0, 77, 55
1, 259299, Note_on_c, 0, 65, 77
1, 259301, Note_on_c, 0, 61, 89
1, 259307, Note_on_c, 0, 85, 83
1, 259324, Control_c, 0, 64, 99
1, 259338, Control_c, 0, 64, 69
1, 259353, Control_c, 0, 64, 0
1, 259365, Note_on_c, 0, 60, 83
1, 259366, Note_on_c, 0, 89, 75
1, 259375, Note_off_c, 0, 65, 59
1, 259381, Note_off_c, 0, 85, 62
1, 259383, Control_c, 0, 64, 54
1, 259398, Control_c, 0, 64, 72
1, 259412, Control_c, 0, 64, 96
1, 259424, Note_off_c, 0, 61, 39
1, 259427, Control_c, 0, 64, 127
1, 259451, Note_on_c, 0, 58, 92
1, 259453, Note_on_c, 0, 82, 82
1, 259464, Note_off_c, 0, 60, 65
1, 259497, Note_off_c, 0, 89, 63
1, 259502, Note_off_c, 0, 58, 65
1, 259513, Note_off_c, 0, 82, 64
1, 259521, Note_on_c, 0, 77, 73
1, 259582, Note_off_c, 0, 77, 58
1, 259592, Note_on_c, 0, 58, 89
1, 259595, Note_on_c, 0, 65, 75
1, 259599, Control_c, 0, 64, 89
1, 259611, Note_on_c, 0, 85, 84
1, 259614, Control_c, 0, 64, 34
1, 259629, Control_c, 0, 64, 0
1, 259673, Control_c, 0, 64, 62
1, 259677, Note_on_c, 0, 89, 80
1, 259680, Note_on_c, 0, 56, 86
1, 259686, Note_off_c, 0, 85, 63
1, 259688, Control_c, 0, 64, 75
1, 259689, Note_off_c, 0, 65, 59
1, 259703, Control_c, 0, 64, 112
1, 259709, Note_off_c, 0, 58, 62
1, 259717, Control_c, 0, 64, 127
1, 259748, Note_on_c, 0, 55, 86
1, 259755, Note_on_c, 0, 82, 83
1, 259778, Note_off_c, 0, 56, 67
1, 259786, Note_off_c, 0, 89, 63
1, 259794, Note_off_c, 0, 55, 66
1, 259818, Note_on_c, 0, 77, 80
1, 259819, Note_off_c, 0, 82, 63
1, 259865, Control_c, 0, 64, 80
1, 259880, Control_c, 0, 64, 0
1, 259905, Note_on_c, 0, 55, 90
1, 259909, Note_on_c, 0, 48, 85
1, 259909, Note_on_c, 0, 84, 84
1, 259910, Control_c, 0, 64, 59
1, 259925, Control_c, 0, 64, 76
1, 259929, Note_off_c, 0, 77, 57
1, 259940, Control_c, 0, 64, 104
1, 259942, Note_off_c, 0, 55, 65
1, 259955, Control_c, 0, 64, 127
1, 259958, Note_off_c, 0, 48, 63
1, 260006, Note_on_c, 0, 88, 76
1, 260097, Note_on_c, 0, 43, 93
1, 260104, Note_on_c, 0, 36, 85
1, 260116, Note_on_c, 0, 82, 78
1, 260121, Note_off_c, 0, 43, 67
1, 260130, Note_off_c, 0, 88, 58
1, 260131, Note_off_c, 0, 36, 65
1, 260134, Note_off_c, 0, 84, 63
1, 260168, Note_off_c, 0, 82, 62
1, 260211, Note_on_c, 0, 76, 60
1, 260247, Note_off_c, 0, 76, 61
1, 260346, Note_on_c, 0, 82, 74
1, 260351, Note_on_c, 0, 48, 73
1, 260355, Note_on_c, 0, 60, 66
1, 260378, Control_c, 0, 64, 102
1, 260392, Control_c, 0, 64, 73
1, 260407, Control_c, 0, 64, 0
1, 260437, Note_on_c, 0, 84, 66
1, 260437, Note_off_c, 0, 48, 59
1, 260438, Note_on_c, 0, 50, 79
1, 260466, Control_c, 0, 64, 34
1, 260481, Control_c, 0, 64, 66
1, 260496, Control_c, 0, 64, 80
1, 260510, Control_c, 0, 64, 115
1, 260519, Note_on_c, 0, 52, 81
1, 260525, Control_c, 0, 64, 127
1, 260529, Note_on_c, 0, 79, 66
1, 260533, Note_off_c, 0, 60, 53
1, 260538, Note_off_c, 0, 50, 64
1, 260559, Note_off_c, 0, 84, 60
1, 260560, Note_off_c, 0, 82, 61
1, 260573, Note_off_c, 0, 52, 62
1, 260590, Note_off_c, 0, 79, 61
1, 260600, Note_on_c, 0, 72, 68
1, 260654, Note_off_c, 0, 72, 58
1, 260656, Note_on_c, 0, 50, 78
1, 260658, Control_c, 0, 64, 116
1, 260664, Note_on_c, 0, 60, 68
1, 260673, Control_c, 0, 64, 80
1, 260684, Note_on_c, 0, 80, 74
1, 260688, Control_c, 0, 64, 56
1, 260703, Control_c, 0, 64, 0
1, 260718, Control_c, 0, 64, 54
1, 260733, Control_c, 0, 64, 71
1, 260739, Note_on_c, 0, 52, 77
1, 260748, Control_c, 0, 64, 88
1, 260750, Note_on_c, 0, 83, 73
1, 260757, Note_off_c, 0, 50, 62
1, 260763, Control_c, 0, 64, 127
1, 260774, Note_off_c, 0, 60, 57
1, 260811, Note_on_c, 0, 53, 78
1, 260825, Note_on_c, 0, 74, 78
1, 260843, Note_off_c, 0, 52, 62
1, 260849, Note_off_c, 0, 83, 63
1, 260867, Note_off_c, 0, 80, 63
1, 260879, Note_off_c, 0, 53, 66
1, 260892, Note_off_c, 0, 74, 66
1, 260896, Note_on_c, 0, 71, 65
1, 260942, Note_off_c, 0, 71, 58
1, 260969, Note_on_c, 0, 52, 86
1, 260974, Note_on_c, 0, 60, 75
1, 260992, Control_c, 0, 64, 124
1, 261004, Note_on_c, 0, 79, 72
1, 261007, Control_c, 0, 64, 76
1, 261022, Control_c, 0, 64, 0
1, 261036, Note_on_c, 0, 82, 77
1, 261043, Note_on_c, 0, 53, 85
1, 261060, Note_off_c, 0, 60, 62
1, 261063, Note_off_c, 0, 52, 58
1, 261066, Control_c, 0, 64, 66
1, 261081, Control_c, 0, 64, 78
1, 261096, Control_c, 0, 64, 108
1, 261110, Control_c, 0, 64, 127
1, 261114, Note_on_c, 0, 55, 87
1, 261128, Note_on_c, 0, 73, 75
1, 261141, Note_off_c, 0, 53, 67
1, 261157, Note_off_c, 0, 82, 63
1, 261160, Note_off_c, 0, 79, 62
1, 261179, Note_off_c, 0, 55, 66
1, 261191, Note_on_c, 0, 70, 72
1, 261198, Note_off_c, 0, 73, 63
1, 261225, Note_off_c, 0, 70, 58
1, 261262, Note_on_c, 0, 53, 89
1, 261275, Note_on_c, 0, 60, 75
1, 261278, Note_on_c, 0, 77, 83
1, 261289, Control_c, 0, 64, 103
1, 261304, Control_c, 0, 64, 73
1, 261319, Control_c, 0, 64, 0
1, 261327, Note_on_c, 0, 55, 83
1, 261342, Note_on_c, 0, 80, 69
1, 261357, Note_off_c, 0, 60, 62
1, 261360, Note_off_c, 0, 53, 62
1, 261363, Control_c, 0, 64, 62
1, 261378, Control_c, 0, 64, 75
1, 261391, Note_on_c, 0, 56, 92
1, 261393, Control_c, 0, 64, 126
1, 261407, Control_c, 0, 64, 127
1, 261415, Note_on_c, 0, 72, 62
1, 261420, Note_off_c, 0, 55, 65
1, 261447, Note_off_c, 0, 80, 62
1, 261458, Note_off_c, 0, 77, 63
1, 261463, Note_on_c, 0, 68, 72
1, 261471, Note_off_c, 0, 56, 66
1, 261482, Note_off_c, 0, 72, 64
1, 261494, Note_off_c, 0, 68, 64
1, 261552, Note_on_c, 0, 55, 89
1, 261558, Note_on_c, 0, 76, 91
1, 261560, Note_on_c, 0, 60, 84
1, 261585, Control_c, 0, 64, 96
1, 261600, Control_c, 0, 64, 66
1, 261615, Control_c, 0, 64, 0
1, 261621, Note_on_c, 0, 79, 82
1, 261621, Note_on_c, 0, 56, 85
1, 261642, Note_off_c, 0, 55, 58
1, 261660, Control_c, 0, 64, 65
1, 261661, Note_off_c, 0, 60, 59
1, 261675, Control_c, 0, 64, 82
1, 261689, Note_on_c, 0, 72, 81
1, 261696, Control_c, 0, 64, 127
1, 261701, Note_on_c, 0, 58, 89
1, 261730, Note_off_c, 0, 56, 66
1, 261746, Note_off_c, 0, 76, 62
1, 261746, Note_off_c, 0, 79, 62
1, 261770, Note_on_c, 0, 67, 79
1, 261776, Note_off_c, 0, 58, 65
1, 261776, Note_off_c, 0, 72, 66
1, 261803, Note_off_c, 0, 67, 61
1, 261850, Note_on_c, 0, 56, 91
1, 261857, Note_on_c, 0, 60, 83
1, 261858, Note_on_c, 0, 74, 98
1, 261874, Control_c, 0, 64, 81
1, 261889, Control_c, 0, 64, 0
1, 261926, Note_on_c, 0, 77, 81
1, 261928, Note_on_c, 0, 58, 87
1, 261949, Control_c, 0, 64, 59
1, 261951, Note_off_c, 0, 60, 59
1, 261964, Control_c, 0, 64, 76
1, 261967, Note_off_c, 0, 56, 59
1, 261979, Control_c, 0, 64, 111
1, 261994, Control_c, 0, 64, 127
1, 262006, Note_on_c, 0, 59, 71
1, 262006, Note_on_c, 0, 68, 78
1, 262020, Note_on_c, 0, 60, 46
1, 262038, Note_off_c, 0, 60, 63
1, 262041, Note_off_c, 0, 58, 62
1, 262054, Note_off_c, 0, 77, 62
1, 262073, Note_off_c, 0, 59, 64
1, 262079, Note_off_c, 0, 74, 65
1, 262081, Note_on_c, 0, 65, 81
1, 262084, Note_off_c, 0, 68, 63
1, 262114, Note_off_c, 0, 65, 62
1, 262150, Note_on_c, 0, 60, 71
1, 262154, Note_on_c, 0, 55, 92
1, 262158, Control_c, 0, 64, 86
1, 262165, Note_on_c, 0, 74, 99
1, 262172, Control_c, 0, 64, 0
1, 262209, Note_off_c, 0, 60, 55
1, 262226, Note_on_c, 0, 77, 84
1, 262238, Note_on_c, 0, 57, 87
1, 262261, Control_c, 0, 64, 49
1, 262265, Note_off_c, 0, 55, 61
1, 262276, Control_c, 0, 64, 72
1, 262290, Control_c, 0, 64, 93
1, 262305, Control_c, 0, 64, 127
1, 262313, Note_on_c, 0, 59, 98
1, 262333, Note_on_c, 0, 67, 77
1, 262338, Note_off_c, 0, 57, 65
1, 262347, Note_off_c, 0, 77, 55
1, 262363, Note_off_c, 0, 59, 67
1, 262404, Note_on_c, 0, 65, 85
1, 262420, Note_off_c, 0, 67, 62
1, 262513, Note_on_c, 0, 55, 100
1, 262516, Note_on_c, 0, 48, 88
1, 262520, Control_c, 0, 64, 79
1, 262528, Note_on_c, 0, 72, 83
1, 262534, Control_c, 0, 64, 0
1, 262539, Note_off_c, 0, 74, 59
1, 262570, Note_off_c, 0, 65, 57
1, 262578, Control_c, 0, 64, 63
1, 262593, Control_c, 0, 64, 74
1, 262603, Note_off_c, 0, 55, 65
1, 262608, Control_c, 0, 64, 99
1, 262622, Note_on_c, 0, 76, 69
1, 262623, Control_c, 0, 64, 127
1, 262627, Note_off_c, 0, 48, 65
1, 262737, Note_on_c, 0, 43, 100
1, 262741, Note_on_c, 0, 67, 73
1, 262742, Note_on_c, 0, 36, 89
1, 262761, Note_off_c, 0, 43, 71
1, 262767, Note_off_c, 0, 72, 64
1, 262771, Note_off_c, 0, 36, 67
1, 262793, Note_off_c, 0, 67, 64
1, 262807, Note_on_c, 0, 64, 50
1, 262809, Note_off_c, 0, 76, 61
1, 262832, Note_off_c, 0, 64, 59
1, 262990, Note_on_c, 0, 48, 91
1, 262993, Note_on_c, 0, 60, 85
1, 263010, Note_on_c, 0, 82, 84
1, 263068, Control_c, 0, 64, 109
1, 263083, Control_c, 0, 64, 72
1, 263093, Note_on_c, 0, 50, 87
1, 263098, Control_c, 0, 64, 0
1, 263101, Note_on_c, 0, 84, 76
1, 263117, Note_off_c, 0, 48, 57
1, 263157, Control_c, 0, 64, 61
1, 263172, Control_c, 0, 64, 72
1, 263194, Control_c, 0, 64, 98
1, 263204, Note_on_c, 0, 52, 91
1, 263209, Control_c, 0, 64, 127
1, 263211, Note_on_c, 0, 79, 86
1, 263237, Note_off_c, 0, 82, 62
1, 263243, Note_off_c, 0, 50, 65
1, 263255, Note_off_c, 0, 84, 59
1, 263287, Note_off_c, 0, 60, 33
1, 263297, Note_off_c, 0, 79, 62
1, 263300, Note_on_c, 0, 72, 72
1, 263319, Note_off_c, 0, 52, 60
1, 263369, Note_off_c, 0, 72, 61
1, 263382, Note_on_c, 0, 50, 83
1, 263382, Note_on_c, 0, 60, 75
1, 263386, Control_c, 0, 64, 80
1, 263388, Note_on_c, 0, 80, 85
1, 263401, Control_c, 0, 64, 42
1, 263416, Control_c, 0, 64, 0
1, 263431, Control_c, 0, 64, 27
1, 263446, Control_c, 0, 64, 66
1, 263455, Note_on_c, 0, 83, 77
1, 263458, Note_on_c, 0, 52, 82
1, 263460, Control_c, 0, 64, 76
1, 263475, Control_c, 0, 64, 100
1, 263479, Note_off_c, 0, 60, 60
1, 263483, Note_off_c, 0, 50, 64
1, 263490, Control_c, 0, 64, 127
1, 263524, Note_on_c, 0, 53, 83
1, 263535, Note_on_c, 0, 74, 78
1, 263562, Note_off_c, 0, 52, 62
1, 263571, Note_off_c, 0, 83, 64
1, 263577, Note_off_c, 0, 80, 57
1, 263600, Note_on_c, 0, 71, 70
1, 263606, Note_off_c, 0, 53, 65
1, 263612, Note_off_c, 0, 74, 64
1, 263657, Note_off_c, 0, 71, 61
1, 263670, Note_on_c, 0, 52, 90
1, 263675, Note_on_c, 0, 60, 82
1, 263680, Note_on_c, 0, 79, 82
1, 263684, Control_c, 0, 64, 113
1, 263699, Control_c, 0, 64, 76
1, 263714, Control_c, 0, 64, 0
1, 263735, Note_on_c, 0, 82, 81
1, 263750, Note_on_c, 0, 53, 89
1, 263758, Control_c, 0, 64, 68
1, 263771, Note_off_c, 0, 60, 62
1, 263773, Control_c, 0, 64, 85
1, 263788, Control_c, 0, 64, 127
1, 263789, Note_off_c, 0, 52, 59
1, 263822, Note_on_c, 0, 55, 88
1, 263823, Note_on_c, 0, 73, 78
1, 263853, Note_off_c, 0, 53, 67
1, 263855, Note_off_c, 0, 82, 64
1, 263862, Note_off_c, 0, 79, 61
1, 263884, Note_on_c, 0, 70, 78
1, 263884, Note_off_c, 0, 55, 66
1, 263895, Note_off_c, 0, 73, 62
1, 263945, Note_off_c, 0, 70, 59
1, 263973, Note_on_c, 0, 53, 90
1, 263973, Control_c, 0, 64, 113
1, 263982, Note_on_c, 0, 60, 81
1, 263984, Note_on_c, 0, 77, 84
1, 263988, Control_c, 0, 64, 73
1, 264003, Control_c, 0, 64, 0
1, 264040, Note_on_c, 0, 80, 68
1, 264045, Note_on_c, 0, 55, 85
1, 264061, Control_c, 0, 64, 63
1, 264067, Note_off_c, 0, 60, 62
1, 264074, Note_off_c, 0, 53, 61
1, 264076, Control_c, 0, 64, 76
1, 264091, Control_c, 0, 64, 115
1, 264106, Control_c, 0, 64, 127
1, 264110, Note_on_c, 0, 56, 94
1, 264119, Note_on_c, 0, 72, 69
1, 264134, Note_off_c, 0, 55, 65
1, 264162, Note_off_c, 0, 80, 59
1, 264175, Note_off_c, 0, 77, 63
1, 264176, Note_on_c, 0, 68, 76
1, 264185, Note_off_c, 0, 56, 67
1, 264201, Note_off_c, 0, 72, 63
1, 264203, Note_off_c, 0, 68, 66
1, 264267, Note_on_c, 0, 55, 87
1, 264270, Note_on_c, 0, 60, 84
1, 264275, Note_on_c, 0, 76, 93
1, 264283, Control_c, 0, 64, 93
1, 264298, Control_c, 0, 64, 59
1, 264313, Control_c, 0, 64, 0
1, 264340, Note_on_c, 0, 56, 90
1, 264352, Note_on_c, 0, 79, 83
1, 264358, Control_c, 0, 64, 58
1, 264364, Note_off_c, 0, 60, 58
1, 264366, Note_off_c, 0, 55, 62
1, 264373, Control_c, 0, 64, 74
1, 264388, Control_c, 0, 64, 97
1, 264403, Control_c, 0, 64, 127
1, 264409, Note_on_c, 0, 72, 78
1, 264414, Note_on_c, 0, 58, 92
1, 264444, Note_off_c, 0, 56, 65
1, 264469, Note_off_c, 0, 79, 62
1, 264486, Note_off_c, 0, 76, 61
1, 264489, Note_on_c, 0, 67, 78
1, 264492, Note_off_c, 0, 58, 64
1, 264495, Note_off_c, 0, 72, 66
1, 264521, Note_off_c, 0, 67, 62
1, 264565, Note_on_c, 0, 60, 86
1, 264568, Note_on_c, 0, 56, 86
1, 264572, Note_on_c, 0, 74, 101
1, 264581, Control_c, 0, 64, 108
1, 264596, Control_c, 0, 64, 73
1, 264611, Control_c, 0, 64, 0
1, 264648, Note_on_c, 0, 77, 88
1, 264653, Note_on_c, 0, 58, 90
1, 264655, Control_c, 0, 64, 49
1, 264665, Note_off_c, 0, 60, 60
1, 264670, Control_c, 0, 64, 67
1, 264691, Control_c, 0, 64, 80
1, 264698, Note_off_c, 0, 56, 59
1, 264706, Control_c, 0, 64, 113
1, 264721, Control_c, 0, 64, 127
1, 264740, Note_on_c, 0, 59, 85
1, 264753, Note_on_c, 0, 68, 89
1, 264773, Note_off_c, 0, 58, 61
1, 264804, Note_off_c, 0, 77, 60
1, 264822, Note_on_c, 0, 65, 86
1, 264822, Note_off_c, 0, 59, 63
1, 264829, Note_off_c, 0, 74, 66
1, 264838, Note_off_c, 0, 68, 61
1, 264865, Note_off_c, 0, 65, 65
1, 264903, Note_on_c, 0, 55, 88
1, 264913, Note_on_c, 0, 60, 79
1, 264913, Control_c, 0, 64, 82
1, 264920, Note_on_c, 0, 74, 84
1, 264924, Note_on_c, 0, 72, 80
1, 264928, Control_c, 0, 64, 0
1, 264972, Note_off_c, 0, 60, 51
1, 264995, Note_on_c, 0, 57, 83
1, 265000, Note_off_c, 0, 72, 59
1, 265008, Note_on_c, 0, 77, 83
1, 265028, Note_off_c, 0, 55, 59
1, 265076, Control_c, 0, 64, 52
1, 265090, Note_on_c, 0, 59, 93
1, 265091, Control_c, 0, 64, 73
1, 265099, Note_on_c, 0, 68, 65
1, 265106, Control_c, 0, 64, 93
1, 265112, Note_on_c, 0, 67, 76
1, 265121, Control_c, 0, 64, 127
1, 265123, Note_off_c, 0, 57, 64
1, 265137, Note_on_c, 0, 69, 49
1, 265149, Note_off_c, 0, 59, 65
1, 265165, Note_off_c, 0, 77, 48
1, 265167, Note_off_c, 0, 69, 35
1, 265181, Note_on_c, 0, 65, 82
1, 265193, Note_off_c, 0, 67, 57
1, 265201, Note_off_c, 0, 68, 59
1, 265303, Note_on_c, 0, 72, 85
1, 265305, Note_on_c, 0, 55, 95
1, 265306, Note_on_c, 0, 48, 87
1, 265314, Control_c, 0, 64, 78
1, 265316, Note_off_c, 0, 74, 62
1, 265329, Control_c, 0, 64, 0
1, 265416, Note_off_c, 0, 55, 66
1, 265418, Control_c, 0, 64, 70
1, 265440, Control_c, 0, 64, 92
1, 265441, Note_on_c, 0, 76, 84
1, 265446, Note_off_c, 0, 48, 65
1, 265446, Note_off_c, 0, 65, 56
1, 265454, Control_c, 0, 64, 127
1, 265598, Note_on_c, 0, 43, 91
1, 265600, Note_on_c, 0, 36, 88
1, 265612, Note_on_c, 0, 67, 85
1, 265633, Control_c, 0, 64, 95
1, 265648, Control_c, 0, 64, 63
1, 265662, Control_c, 0, 64, 0
1, 265663, Note_off_c, 0, 72, 61
1, 265701, Note_off_c, 0, 76, 33
1, 265706, Control_c, 0, 64, 27
1, 265721, Control_c, 0, 64, 65
1, 265736, Control_c, 0, 64, 77
1, 265751, Control_c, 0, 64, 101
1, 265761, Note_on_c, 0, 64, 81
1, 265766, Control_c, 0, 64, 127
1, 265839, Note_off_c, 0, 36, 62
1, 265847, Note_off_c, 0, 43, 67
1, 265984, Note_on_c, 0, 68, 93
1, 266038, Note_off_c, 0, 67, 59
1, 266110, Note_off_c, 0, 64, 57
1, 266229, Note_on_c, 0, 72, 81
1, 266307, Control_c, 0, 64, 98
1, 266322, Control_c, 0, 64, 77
1, 266328, Note_on_c, 0, 48, 95
1, 266337, Control_c, 0, 64, 60
1, 266352, Control_c, 0, 64, 11
1, 266367, Control_c, 0, 64, 0
1, 266382, Control_c, 0, 64, 23
1, 266396, Control_c, 0, 64, 37
1, 266411, Control_c, 0, 64, 52
1, 266426, Control_c, 0, 64, 65
1, 266441, Control_c, 0, 64, 73
1, 266455, Control_c, 0, 64, 85
1, 266470, Control_c, 0, 64, 109
1, 266485, Control_c, 0, 64, 127
1, 266544, Note_off_c, 0, 48, 60
1, 266555, Note_on_c, 0, 65, 71
1, 266578, Note_on_c, 0, 53, 94
1, 266620, Note_off_c, 0, 68, 54
1, 266662, Control_c, 0, 64, 102
1, 266677, Control_c, 0, 64, 85
1, 266692, Control_c, 0, 64, 71
1, 266707, Control_c, 0, 64, 52
1, 266721, Control_c, 0, 64, 0
1, 266807, Note_on_c, 0, 60, 68
1, 266812, Control_c, 0, 64, 53
1, 266826, Control_c, 0, 64, 67
1, 266841, Control_c, 0, 64, 78
1, 266856, Control_c, 0, 64, 93
1, 266870, Control_c, 0, 64, 127
1, 266939, Note_off_c, 0, 72, 54
1, 266945, Note_on_c, 0, 68, 76
1, 267066, Note_on_c, 0, 72, 74
1, 267077, Note_off_c, 0, 65, 59
1, 267165, Note_off_c, 0, 60, 48
1, 267186, Note_on_c, 0, 65, 76
1, 267267, Note_off_c, 0, 68, 53
1, 267307, Note_on_c, 0, 60, 75
1, 267420, Note_on_c, 0, 68, 80
1, 267449, Note_off_c, 0, 72, 58
1, 267554, Note_on_c, 0, 71, 80
1, 267569, Note_off_c, 0, 65, 54
1, 267631, Note_off_c, 0, 53, 61
1, 267631, Note_off_c, 0, 60, 52
1, 267633, Note_on_c, 0, 48, 88
1, 267715, Note_off_c, 0, 48, 62
1, 267759, Note_on_c, 0, 49, 90
1, 267779, Note_on_c, 0, 65, 71
1, 267806, Note_off_c, 0, 68, 52
1, 267807, Note_off_c, 0, 71, 58
1, 267821, Control_c, 0, 64, 94
1, 267836, Control_c, 0, 64, 77
1, 267850, Control_c, 0, 64, 62
1, 267865, Control_c, 0, 64, 0
1, 267972, Note_on_c, 0, 59, 63
1, 268028, Control_c, 0, 64, 63
1, 268043, Control_c, 0, 64, 74
1, 268057, Control_c, 0, 64, 86
1, 268057, Control_c, 0, 67, 8
1, 268072, Control_c, 0, 64, 109
1, 268087, Control_c, 0, 64, 127
1, 268113, Note_on_c, 0, 68, 72
1, 268176, Note_off_c, 0, 59, 35
1, 268220, Note_off_c, 0, 65, 49
1, 268220, Control_c, 0, 67, 8
1, 268245, Note_on_c, 0, 73, 74
1, 268280, Control_c, 0, 67, 8
1, 268366, Note_on_c, 0, 65, 68
1, 268399, Control_c, 0, 67, 8
1, 268416, Note_off_c, 0, 68, 57
1, 268436, Control_c, 0, 67, 9
1, 268450, Control_c, 0, 67, 9
1, 268465, Control_c, 0, 67, 10
1, 268480, Control_c, 0, 67, 10
1, 268487, Note_on_c, 0, 61, 69
1, 268495, Control_c, 0, 67, 11
1, 268510, Control_c, 0, 67, 13
1, 268525, Control_c, 0, 67, 14
1, 268540, Control_c, 0, 67, 16
1, 268555, Control_c, 0, 67, 18
1, 268570, Control_c, 0, 67, 19
1, 268584, Control_c, 0, 67, 20
1, 268587, Note_off_c, 0, 61, 54
1, 268599, Control_c, 0, 67, 21
1, 268602, Note_off_c, 0, 73, 53
1, 268609, Note_on_c, 0, 68, 68
1, 268614, Control_c, 0, 67, 21
1, 268629, Control_c, 0, 67, 22
1, 268688, Control_c, 0, 67, 22
1, 268702, Note_off_c, 0, 65, 50
1, 268705, Note_off_c, 0, 49, 63
1, 268734, Note_on_c, 0, 72, 71
1, 268747, Control_c, 0, 67, 22
1, 268763, Note_off_c, 0, 68, 54
1, 268792, Control_c, 0, 67, 21
1, 268804, Note_on_c, 0, 47, 78
1, 268830, Note_off_c, 0, 47, 67
1, 268884, Note_on_c, 0, 48, 91
1, 268895, Control_c, 0, 64, 112
1, 268910, Control_c, 0, 64, 88
1, 268918, Note_on_c, 0, 65, 55
1, 268924, Control_c, 0, 64, 71
1, 268939, Control_c, 0, 64, 54
1, 268954, Control_c, 0, 64, 0
1, 268954, Control_c, 0, 67, 22
1, 269014, Control_c, 0, 67, 22
1, 269029, Control_c, 0, 67, 23
1, 269057, Note_on_c, 0, 60, 56
1, 269058, Control_c, 0, 67, 23
1, 269148, Control_c, 0, 67, 24
1, 269163, Control_c, 0, 64, 32
1, 269178, Note_off_c, 0, 72, 54
1, 269185, Control_c, 0, 64, 61
1, 269185, Control_c, 0, 67, 24
1, 269200, Control_c, 0, 64, 65
1, 269200, Control_c, 0, 67, 25
1, 269214, Note_on_c, 0, 67, 58
1, 269215, Control_c, 0, 64, 69
1, 269215, Control_c, 0, 67, 26
1, 269229, Control_c, 0, 64, 72
1, 269229, Control_c, 0, 67, 28
1, 269244, Control_c, 0, 64, 76
1, 269244, Control_c, 0, 67, 29
1, 269259, Control_c, 0, 64, 79
1, 269259, Control_c, 0, 67, 31
1, 269265, Note_off_c, 0, 65, 54
1, 269273, Control_c, 0, 64, 83
1, 269273, Control_c, 0, 67, 33
1, 269288, Control_c, 0, 64, 87
1, 269288, Control_c, 0, 67, 36
1, 269303, Control_c, 0, 64, 90
1, 269303, Control_c, 0, 67, 39
1, 269318, Control_c, 0, 64, 92
1, 269318, Control_c, 0, 67, 43
1, 269333, Control_c, 0, 64, 93
1, 269333, Control_c, 0, 67, 48
1, 269342, Note_on_c, 0, 72, 56
1, 269347, Control_c, 0, 64, 93
1, 269347, Control_c, 0, 67, 52
1, 269362, Control_c, 0, 64, 94
1, 269362, Control_c, 0, 67, 54
1, 269377, Control_c, 0, 64, 95
1, 269377, Control_c, 0, 67, 56
1, 269392, Control_c, 0, 67, 57
1, 269407, Control_c, 0, 64, 95
1, 269407, Control_c, 0, 67, 58
1, 269421, Control_c, 0, 67, 59
1, 269436, Control_c, 0, 64, 96
1, 269451, Control_c, 0, 67, 60
1, 269525, Note_on_c, 0, 46, 72
1, 269532, Note_off_c, 0, 60, 34
1, 269540, Control_c, 0, 64, 90
1, 269541, Note_on_c, 0, 64, 60
1, 269553, Note_off_c, 0, 48, 60
1, 269554, Control_c, 0, 64, 76
1, 269569, Control_c, 0, 64, 42
1, 269584, Control_c, 0, 64, 0
1, 269589, Note_off_c, 0, 67, 52
1, 269614, Control_c, 0, 67, 59
1, 269643, Control_c, 0, 67, 59
1, 269658, Control_c, 0, 67, 58
1, 269672, Control_c, 0, 64, 63
1, 269687, Control_c, 0, 64, 70
1, 269687, Control_c, 0, 67, 58
1, 269702, Control_c, 0, 64, 77
1, 269716, Note_on_c, 0, 60, 46
1, 269717, Control_c, 0, 64, 83
1, 269717, Control_c, 0, 67, 57
1, 269732, Control_c, 0, 64, 87
1, 269747, Control_c, 0, 64, 89
1, 269747, Control_c, 0, 67, 57
1, 269762, Control_c, 0, 64, 91
1, 269777, Control_c, 0, 64, 92
1, 269792, Control_c, 0, 64, 93
1, 269807, Control_c, 0, 64, 93
1, 269851, Control_c, 0, 64, 94
1, 269865, Control_c, 0, 64, 94
1, 269870, Note_off_c, 0, 72, 38
1, 269873, Note_on_c, 0, 68, 52
1, 269880, Control_c, 0, 64, 95
1, 269895, Control_c, 0, 64, 96
1, 269895, Control_c, 0, 67, 57
1, 269910, Control_c, 0, 64, 96
1, 269932, Control_c, 0, 64, 97
1, 269932, Control_c, 0, 67, 58
1, 269948, Control_c, 0, 64, 97
1, 269963, Control_c, 0, 67, 58
1, 269977, Control_c, 0, 64, 98
1, 269977, Control_c, 0, 67, 59
1, 269992, Control_c, 0, 67, 59
1, 269997, Note_off_c, 0, 64, 58
1, 270007, Control_c, 0, 64, 98
1, 270021, Note_on_c, 0, 72, 48
1, 270022, Control_c, 0, 64, 99
1, 270022, Control_c, 0, 67, 60
1, 270037, Control_c, 0, 64, 99
1, 270066, Control_c, 0, 64, 100
1, 270066, Control_c, 0, 67, 60
1, 270111, Control_c, 0, 64, 100
1, 270140, Control_c, 0, 67, 61
1, 270215, Control_c, 0, 67, 61
1, 270252, Note_on_c, 0, 44, 58
1, 270260, Note_on_c, 0, 65, 48
1, 270265, Note_off_c, 0, 60, 44
1, 270274, Control_c, 0, 64, 98
1, 270278, Note_off_c, 0, 46, 58
1, 270289, Control_c, 0, 64, 87
1, 270289, Control_c, 0, 67, 63
1, 270303, Control_c, 0, 64, 71
1, 270303, Control_c, 0, 67, 64
1, 270305, Note_off_c, 0, 68, 37
1, 270318, Control_c, 0, 64, 0
1, 270318, Control_c, 0, 67, 65
1, 270333, Control_c, 0, 67, 66
1, 270407, Control_c, 0, 64, 58
1, 270422, Control_c, 0, 64, 69
1, 270422, Control_c, 0, 67, 65
1, 270437, Control_c, 0, 64, 77
1, 270451, Control_c, 0, 64, 86
1, 270451, Control_c, 0, 67, 65
1, 270464, Note_on_c, 0, 60, 43
1, 270466, Control_c, 0, 64, 96
1, 270466, Control_c, 0, 67, 64
1, 270481, Control_c, 0, 64, 104
1, 270481, Control_c, 0, 67, 64
1, 270495, Control_c, 0, 64, 112
1, 270510, Control_c, 0, 64, 127
1, 270510, Control_c, 0, 67, 63
1, 270525, Control_c, 0, 67, 62
1, 270555, Control_c, 0, 67, 62
1, 270570, Control_c, 0, 67, 61
1, 270585, Control_c, 0, 67, 61
1, 270612, Note_off_c, 0, 72, 44
1, 270614, Control_c, 0, 67, 60
1, 270617, Note_on_c, 0, 68, 50
1, 270696, Control_c, 0, 67, 61
1, 270722, Note_off_c, 0, 65, 49
1, 270740, Control_c, 0, 67, 61
1, 270754, Note_on_c, 0, 72, 43
1, 270772, Control_c, 0, 67, 62
1, 270776, Note_off_c, 0, 44, 61
1, 270831, Control_c, 0, 67, 62
1, 270875, Control_c, 0, 67, 63
1, 270881, Note_on_c, 0, 65, 48
1, 270889, Note_off_c, 0, 60, 40
1, 270905, Control_c, 0, 67, 63
1, 270949, Control_c, 0, 67, 64
1, 270954, Note_off_c, 0, 68, 38
1, 270993, Control_c, 0, 67, 64
1, 271011, Note_on_c, 0, 60, 42
1, 271053, Control_c, 0, 67, 65
1, 271097, Control_c, 0, 67, 65
1, 271157, Control_c, 0, 67, 66
1, 271170, Note_off_c, 0, 72, 48
1, 271178, Note_on_c, 0, 68, 45
1, 271245, Control_c, 0, 67, 66
1, 271292, Note_off_c, 0, 65, 51
1, 271331, Note_on_c, 0, 72, 40
1, 271420, Note_on_c, 0, 48, 51
1, 271422, Note_on_c, 0, 36, 51
1, 271472, Note_off_c, 0, 48, 58
1, 271483, Note_off_c, 0, 36, 53
1, 271520, Control_c, 0, 67, 66
1, 271565, Control_c, 0, 67, 65
1, 271586, Note_on_c, 0, 65, 46
1, 271589, Note_on_c, 0, 48, 52
1, 271595, Note_on_c, 0, 36, 41
1, 271601, Note_off_c, 0, 60, 41
1, 271624, Control_c, 0, 67, 65
1, 271656, Note_off_c, 0, 68, 31
1, 271683, Control_c, 0, 67, 64
1, 271728, Control_c, 0, 67, 64
1, 271816, Note_on_c, 0, 60, 38
1, 271816, Control_c, 0, 67, 64
1, 271861, Control_c, 0, 67, 65
1, 271935, Control_c, 0, 67, 65
1, 271944, Note_off_c, 0, 72, 47
1, 271965, Note_on_c, 0, 68, 50
1, 271995, Control_c, 0, 67, 65
1, 272047, Note_off_c, 0, 65, 47
1, 272059, Note_off_c, 0, 36, 52
1, 272087, Note_on_c, 0, 72, 46
1, 272209, Note_off_c, 0, 60, 37
1, 272219, Note_on_c, 0, 65, 51
1, 272289, Note_off_c, 0, 68, 34
1, 272349, Note_on_c, 0, 60, 46
1, 272418, Control_c, 0, 67, 65
1, 272467, Note_off_c, 0, 72, 54
1, 272496, Note_on_c, 0, 70, 51
1, 272506, Control_c, 0, 67, 66
1, 272562, Note_off_c, 0, 65, 56
1, 272595, Control_c, 0, 67, 66
1, 272635, Note_on_c, 0, 72, 50
1, 272710, Note_on_c, 0, 53, 74
1, 272714, Note_off_c, 0, 48, 62
1, 272728, Note_on_c, 0, 41, 57
1, 272761, Note_off_c, 0, 53, 63
1, 272857, Note_on_c, 0, 55, 69
1, 272861, Note_on_c, 0, 67, 56
1, 272888, Note_off_c, 0, 60, 44
1, 272906, Control_c, 0, 64, 111
1, 272928, Control_c, 0, 64, 85
1, 272943, Control_c, 0, 64, 69
1, 272958, Control_c, 0, 64, 61
1, 272972, Control_c, 0, 64, 63
1, 272987, Control_c, 0, 64, 67
1, 273002, Control_c, 0, 64, 71
1, 273009, Note_off_c, 0, 70, 30
1, 273016, Control_c, 0, 64, 79
1, 273031, Control_c, 0, 64, 91
1, 273046, Control_c, 0, 64, 127
1, 273075, Note_on_c, 0, 60, 45
1, 273187, Note_off_c, 0, 72, 55
1, 273231, Note_on_c, 0, 70, 45
1, 273270, Note_off_c, 0, 41, 60
1, 273308, Note_off_c, 0, 67, 58
1, 273336, Note_on_c, 0, 72, 45
1, 273461, Control_c, 0, 67, 66
1, 273473, Note_on_c, 0, 40, 52
1, 273478, Note_off_c, 0, 60, 37
1, 273496, Note_off_c, 0, 55, 51
1, 273497, Note_on_c, 0, 67, 51
1, 273580, Control_c, 0, 67, 65
1, 273613, Note_on_c, 0, 60, 48
1, 273676, Control_c, 0, 67, 65
1, 273735, Note_off_c, 0, 67, 34
1, 273757, Note_on_c, 0, 68, 62
1, 273780, Control_c, 0, 67, 64
1, 273781, Note_off_c, 0, 72, 56
1, 273806, Note_off_c, 0, 40, 59
1, 273825, Control_c, 0, 67, 64
1, 273869, Control_c, 0, 67, 63
1, 273886, Note_on_c, 0, 72, 70
1, 273913, Control_c, 0, 67, 63
1, 273928, Control_c, 0, 67, 62
1, 273955, Note_on_c, 0, 48, 80
1, 273959, Control_c, 0, 67, 62
1, 273964, Note_on_c, 0, 36, 70
1, 273989, Control_c, 0, 67, 61
1, 273991, Note_off_c, 0, 48, 62
1, 273995, Note_off_c, 0, 36, 62
1, 274018, Control_c, 0, 67, 61
1, 274033, Control_c, 0, 67, 60
1, 274051, Note_off_c, 0, 60, 52
1, 274056, Note_on_c, 0, 48, 83
1, 274060, Note_on_c, 0, 36, 74
1, 274076, Note_on_c, 0, 65, 61
1, 274077, Control_c, 0, 67, 60
1, 274107, Control_c, 0, 67, 59
1, 274108, Note_off_c, 0, 68, 54
1, 274117, Note_off_c, 0, 70, 37
1, 274136, Control_c, 0, 67, 59
1, 274151, Control_c, 0, 67, 58
1, 274166, Control_c, 0, 64, 94
1, 274166, Control_c, 0, 67, 58
1, 274181, Control_c, 0, 64, 71
1, 274196, Control_c, 0, 64, 41
1, 274196, Control_c, 0, 67, 57
1, 274210, Control_c, 0, 64, 30
1, 274210, Control_c, 0, 67, 57
1, 274225, Control_c, 0, 64, 64
1, 274225, Control_c, 0, 67, 56
1, 274240, Control_c, 0, 64, 71
1, 274240, Control_c, 0, 67, 55
1, 274254, Note_on_c, 0, 60, 67
1, 274255, Control_c, 0, 64, 82
1, 274255, Control_c, 0, 67, 54
1, 274269, Control_c, 0, 64, 108
1, 274269, Control_c, 0, 67, 54
1, 274284, Control_c, 0, 64, 127
1, 274284, Control_c, 0, 67, 53
1, 274299, Control_c, 0, 67, 52
1, 274314, Control_c, 0, 67, 50
1, 274329, Control_c, 0, 67, 48
1, 274344, Control_c, 0, 67, 46
1, 274358, Control_c, 0, 67, 44
1, 274373, Control_c, 0, 67, 43
1, 274374, Note_on_c, 0, 68, 73
1, 274380, Note_off_c, 0, 72, 57
1, 274388, Control_c, 0, 67, 42
1, 274403, Control_c, 0, 67, 41
1, 274425, Control_c, 0, 67, 40
1, 274440, Control_c, 0, 67, 39
1, 274448, Note_off_c, 0, 65, 55
1, 274455, Control_c, 0, 67, 38
1, 274469, Control_c, 0, 67, 36
1, 274484, Control_c, 0, 67, 35
1, 274499, Note_on_c, 0, 72, 73
1, 274499, Control_c, 0, 67, 34
1, 274515, Control_c, 0, 67, 33
1, 274521, Note_off_c, 0, 36, 52
1, 274530, Control_c, 0, 67, 32
1, 274544, Control_c, 0, 67, 30
1, 274559, Control_c, 0, 67, 28
1, 274574, Control_c, 0, 67, 26
1, 274588, Control_c, 0, 67, 23
1, 274603, Control_c, 0, 67, 21
1, 274609, Note_off_c, 0, 60, 39
1, 274618, Note_on_c, 0, 65, 76
1, 274618, Control_c, 0, 67, 19
1, 274633, Control_c, 0, 67, 18
1, 274648, Control_c, 0, 67, 17
1, 274662, Control_c, 0, 67, 15
1, 274674, Note_off_c, 0, 48, 63
1, 274677, Control_c, 0, 67, 14
1, 274692, Control_c, 0, 67, 13
1, 274701, Note_off_c, 0, 68, 57
1, 274707, Control_c, 0, 67, 12
1, 274722, Control_c, 0, 67, 11
1, 274730, Note_on_c, 0, 60, 75
1, 274738, Control_c, 0, 67, 10
1, 274753, Control_c, 0, 67, 9
1, 274761, Note_off_c, 0, 65, 64
1, 274767, Control_c, 0, 67, 9
1, 274782, Control_c, 0, 67, 8
1, 274797, Control_c, 0, 67, 8
1, 274812, Control_c, 0, 67, 0
1, 274853, Note_on_c, 0, 70, 86
1, 274892, Note_off_c, 0, 72, 60
1, 274988, Note_on_c, 0, 72, 83
1, 275044, Note_on_c, 0, 44, 86
1, 275045, Note_on_c, 0, 56, 101
1, 275140, Note_off_c, 0, 56, 63
1, 275232, Note_on_c, 0, 58, 92
1, 275235, Note_on_c, 0, 64, 67
1, 275277, Note_off_c, 0, 60, 54
1, 275338, Control_c, 0, 64, 86
1, 275338, Control_c, 0, 67, 8
1, 275353, Control_c, 0, 64, 67
1, 275353, Control_c, 0, 67, 9
1, 275367, Control_c, 0, 64, 35
1, 275367, Control_c, 0, 67, 9
1, 275382, Control_c, 0, 64, 43
1, 275382, Control_c, 0, 67, 10
1, 275397, Control_c, 0, 64, 57
1, 275397, Control_c, 0, 67, 11
1, 275411, Control_c, 0, 64, 62
1, 275411, Control_c, 0, 67, 11
1, 275426, Control_c, 0, 64, 65
1, 275426, Control_c, 0, 67, 12
1, 275441, Control_c, 0, 64, 69
1, 275441, Control_c, 0, 67, 12
1, 275456, Control_c, 0, 64, 76
1, 275456, Control_c, 0, 67, 13
1, 275470, Note_off_c, 0, 70, 52
1, 275471, Note_on_c, 0, 60, 62
1, 275471, Control_c, 0, 64, 84
1, 275471, Control_c, 0, 67, 13
1, 275485, Control_c, 0, 64, 92
1, 275485, Control_c, 0, 67, 15
1, 275500, Control_c, 0, 64, 100
1, 275500, Control_c, 0, 67, 16
1, 275515, Control_c, 0, 64, 109
1, 275515, Control_c, 0, 67, 17
1, 275530, Control_c, 0, 64, 127
1, 275530, Control_c, 0, 67, 19
1, 275546, Control_c, 0, 67, 21
1, 275561, Control_c, 0, 67, 23
1, 275576, Control_c, 0, 67, 25
1, 275590, Control_c, 0, 67, 26
1, 275605, Note_off_c, 0, 72, 54
1, 275605, Control_c, 0, 67, 27
1, 275606, Note_on_c, 0, 70, 61
1, 275620, Control_c, 0, 67, 28
1, 275634, Control_c, 0, 67, 30
1, 275649, Control_c, 0, 67, 32
1, 275664, Control_c, 0, 67, 33
1, 275679, Control_c, 0, 67, 35
1, 275692, Note_off_c, 0, 44, 60
1, 275694, Control_c, 0, 67, 37
1, 275709, Control_c, 0, 67, 37
1, 275718, Note_off_c, 0, 64, 57
1, 275744, Note_on_c, 0, 72, 53
1, 275870, Note_off_c, 0, 60, 53
1, 275873, Note_on_c, 0, 43, 58
1, 275882, Note_on_c, 0, 64, 55
1, 275887, Control_c, 0, 64, 110
1, 275902, Control_c, 0, 64, 82
1, 275923, Control_c, 0, 64, 63
1, 275938, Control_c, 0, 64, 0
1, 275983, Control_c, 0, 67, 37
1, 275998, Control_c, 0, 67, 36
1, 276013, Control_c, 0, 64, 57
1, 276016, Note_on_c, 0, 60, 56
1, 276028, Control_c, 0, 64, 68
1, 276028, Control_c, 0, 67, 36
1, 276042, Control_c, 0, 64, 80
1, 276042, Control_c, 0, 67, 35
1, 276057, Control_c, 0, 64, 106
1, 276057, Control_c, 0, 67, 35
1, 276072, Control_c, 0, 64, 127
1, 276072, Control_c, 0, 67, 34
1, 276082, Note_off_c, 0, 58, 60
1, 276087, Control_c, 0, 67, 34
1, 276116, Control_c, 0, 67, 33
1, 276131, Control_c, 0, 67, 33
1, 276161, Control_c, 0, 67, 32
1, 276182, Note_on_c, 0, 68, 56
1, 276190, Control_c, 0, 67, 32
1, 276208, Note_off_c, 0, 72, 56
1, 276213, Note_off_c, 0, 43, 60
1, 276242, Note_off_c, 0, 64, 57
1, 276264, Control_c, 0, 67, 32
1, 276294, Control_c, 0, 67, 33
1, 276338, Note_on_c, 0, 72, 58
1, 276339, Control_c, 0, 67, 33
1, 276433, Note_on_c, 0, 48, 72
1, 276450, Note_on_c, 0, 36, 64
1, 276483, Note_off_c, 0, 36, 61
1, 276485, Note_off_c, 0, 48, 59
1, 276599, Note_on_c, 0, 48, 68
1, 276607, Note_on_c, 0, 36, 49
1, 276613, Note_off_c, 0, 60, 51
1, 276625, Note_on_c, 0, 65, 53
1, 276717, Control_c, 0, 64, 91
1, 276732, Control_c, 0, 64, 68
1, 276734, Note_off_c, 0, 68, 32
1, 276746, Control_c, 0, 64, 0
1, 276746, Control_c, 0, 67, 34
1, 276756, Note_off_c, 0, 70, 2
1, 276821, Control_c, 0, 64, 42
1, 276824, Note_on_c, 0, 60, 51
1, 276836, Control_c, 0, 64, 66
1, 276850, Control_c, 0, 64, 78
1, 276850, Control_c, 0, 67, 33
1, 276865, Control_c, 0, 64, 97
1, 276880, Control_c, 0, 64, 127
1, 276880, Control_c, 0, 67, 33
1, 276925, Control_c, 0, 67, 32
1, 276951, Note_off_c, 0, 72, 58
1, 276959, Note_on_c, 0, 68, 61
1, 276983, Control_c, 0, 67, 32
1, 277041, Note_off_c, 0, 65, 53
1, 277085, Note_on_c, 0, 72, 56
1, 277110, Note_off_c, 0, 36, 40
1, 277189, Note_off_c, 0, 48, 63
1, 277192, Control_c, 0, 67, 32
1, 277195, Note_off_c, 0, 60, 55
1, 277207, Control_c, 0, 67, 33
1, 277213, Note_on_c, 0, 65, 58
1, 277222, Control_c, 0, 67, 33
1, 277236, Control_c, 0, 67, 34
1, 277251, Control_c, 0, 67, 34
1, 277266, Control_c, 0, 67, 35
1, 277269, Note_off_c, 0, 68, 52
1, 277280, Control_c, 0, 67, 35
1, 277295, Control_c, 0, 67, 36
1, 277310, Control_c, 0, 67, 36
1, 277332, Note_on_c, 0, 60, 57
1, 277340, Control_c, 0, 67, 37
1, 277369, Control_c, 0, 67, 37
1, 277466, Control_c, 0, 67, 38
1, 277470, Note_on_c, 0, 68, 64
1, 277470, Note_off_c, 0, 72, 57
1, 277495, Control_c, 0, 67, 38
1, 277524, Control_c, 0, 67, 39
1, 277575, Note_off_c, 0, 65, 38
1, 277584, Control_c, 0, 67, 39
1, 277613, Note_on_c, 0, 71, 66
1, 277656, Note_off_c, 0, 60, 37
1, 277658, Control_c, 0, 67, 40
1, 277671, Note_off_c, 0, 68, 54
1, 277673, Control_c, 0, 67, 41
1, 277686, Note_on_c, 0, 61, 80
1, 277702, Control_c, 0, 67, 42
1, 277703, Note_on_c, 0, 49, 65
1, 277718, Note_off_c, 0, 61, 61
1, 277820, Control_c, 0, 67, 42
1, 277823, Note_on_c, 0, 63, 76
1, 277855, Note_on_c, 0, 65, 49
1, 277894, Control_c, 0, 64, 117
1, 277909, Control_c, 0, 64, 88
1, 277909, Control_c, 0, 67, 43
1, 277924, Control_c, 0, 64, 68
1, 277924, Control_c, 0, 67, 43
1, 277940, Control_c, 0, 64, 26
1, 277955, Control_c, 0, 64, 0
1, 277999, Control_c, 0, 67, 44
1, 278014, Control_c, 0, 64, 34
1, 278028, Control_c, 0, 64, 62
1, 278028, Control_c, 0, 67, 44
1, 278043, Control_c, 0, 64, 68
1, 278043, Control_c, 0, 67, 45
1, 278052, Note_on_c, 0, 59, 49
1, 278058, Control_c, 0, 64, 76
1, 278058, Control_c, 0, 67, 46
1, 278073, Control_c, 0, 64, 84
1, 278073, Control_c, 0, 67, 47
1, 278088, Control_c, 0, 64, 95
1, 278088, Control_c, 0, 67, 47
1, 278102, Control_c, 0, 64, 108
1, 278102, Control_c, 0, 67, 48
1, 278117, Control_c, 0, 64, 127
1, 278117, Control_c, 0, 67, 49
1, 278132, Control_c, 0, 67, 50
1, 278147, Control_c, 0, 67, 52
1, 278159, Note_off_c, 0, 65, 26
1, 278170, Control_c, 0, 67, 53
1, 278184, Control_c, 0, 67, 54
1, 278199, Control_c, 0, 67, 55
1, 278214, Control_c, 0, 67, 56
1, 278229, Note_on_c, 0, 68, 49
1, 278229, Control_c, 0, 67, 57
1, 278243, Control_c, 0, 67, 58
1, 278246, Note_off_c, 0, 71, 57
1, 278254, Note_off_c, 0, 49, 60
1, 278258, Control_c, 0, 67, 60
1, 278273, Control_c, 0, 67, 61
1, 278288, Control_c, 0, 67, 62
1, 278303, Control_c, 0, 67, 64
1, 278317, Control_c, 0, 67, 66
1, 278332, Control_c, 0, 67, 68
1, 278347, Control_c, 0, 67, 70
1, 278362, Control_c, 0, 67, 73
1, 278377, Control_c, 0, 67, 76
1, 278389, Note_on_c, 0, 71, 47
1, 278392, Control_c, 0, 67, 78
1, 278406, Control_c, 0, 67, 81
1, 278421, Control_c, 0, 67, 84
1, 278436, Control_c, 0, 67, 85
1, 278451, Control_c, 0, 67, 87
1, 278466, Control_c, 0, 67, 88
1, 278469, Note_off_c, 0, 63, 39
1, 278481, Control_c, 0, 67, 88
1, 278496, Control_c, 0, 67, 89
1, 278510, Control_c, 0, 67, 89
1, 278540, Control_c, 0, 67, 90
1, 278603, Note_on_c, 0, 62, 51
1, 278612, Note_off_c, 0, 59, 37
1, 278623, Note_on_c, 0, 65, 43
1, 278631, Note_on_c, 0, 50, 33
1, 278643, Control_c, 0, 64, 98
1, 278658, Control_c, 0, 64, 75
1, 278665, Note_off_c, 0, 68, 33
1, 278673, Control_c, 0, 64, 58
1, 278688, Control_c, 0, 64, 0
1, 278702, Control_c, 0, 64, 36
1, 278717, Control_c, 0, 64, 58
1, 278733, Control_c, 0, 64, 64
1, 278748, Control_c, 0, 64, 70
1, 278763, Control_c, 0, 64, 79
1, 278778, Control_c, 0, 64, 94
1, 278793, Control_c, 0, 64, 115
1, 278800, Note_on_c, 0, 59, 41
1, 278807, Control_c, 0, 64, 127
1, 278934, Control_c, 0, 67, 90
1, 278935, Note_off_c, 0, 71, 58
1, 278967, Note_on_c, 0, 68, 51
1, 278976, Note_off_c, 0, 62, 34
1, 279060, Note_off_c, 0, 65, 37
1, 279102, Note_on_c, 0, 71, 42
1, 279165, Note_off_c, 0, 68, 32
1, 279223, Note_off_c, 0, 50, 45
1, 279234, Note_off_c, 0, 59, 34
1, 279257, Note_on_c, 0, 51, 45
1, 279259, Control_c, 0, 64, 91
1, 279262, Note_on_c, 0, 63, 53
1, 279274, Control_c, 0, 64, 70
1, 279289, Control_c, 0, 64, 27
1, 279304, Control_c, 0, 64, 0
1, 279319, Control_c, 0, 64, 23
1, 279333, Control_c, 0, 64, 55
1, 279348, Control_c, 0, 64, 64
1, 279358, Note_off_c, 0, 71, 38
1, 279363, Control_c, 0, 64, 70
1, 279377, Control_c, 0, 64, 78
1, 279377, Control_c, 0, 67, 91
1, 279392, Control_c, 0, 64, 89
1, 279407, Control_c, 0, 64, 102
1, 279417, Note_on_c, 0, 59, 47
1, 279422, Control_c, 0, 64, 118
1, 279437, Control_c, 0, 64, 127
1, 279437, Control_c, 0, 67, 91
1, 279451, Control_c, 0, 67, 92
1, 279481, Control_c, 0, 67, 94
1, 279496, Control_c, 0, 67, 98
1, 279511, Control_c, 0, 67, 100
1, 279527, Control_c, 0, 67, 101
1, 279542, Control_c, 0, 67, 102
1, 279556, Control_c, 0, 67, 104
1, 279571, Control_c, 0, 67, 106
1, 279586, Control_c, 0, 67, 109
1, 279601, Control_c, 0, 67, 111
1, 279610, Note_on_c, 0, 67, 45
1, 279616, Control_c, 0, 67, 113
1, 279630, Control_c, 0, 67, 114
1, 279645, Control_c, 0, 67, 116
1, 279650, Note_off_c, 0, 63, 36
1, 279667, Control_c, 0, 67, 118
1, 279682, Control_c, 0, 67, 120
1, 279697, Control_c, 0, 67, 122
1, 279712, Control_c, 0, 67, 124
1, 279727, Control_c, 0, 67, 125
1, 279742, Control_c, 0, 67, 126
1, 279755, Control_c, 0, 67, 127
1, 279773, Note_on_c, 0, 70, 49
1, 279858, Note_off_c, 0, 59, 40
1, 279982, Note_on_c, 0, 39, 42
1, 279985, Note_off_c, 0, 67, 50
1, 279996, Note_on_c, 0, 64, 47
1, 280022, Control_c, 0, 64, 95
1, 280037, Control_c, 0, 64, 76
1, 280052, Control_c, 0, 64, 62
1, 280067, Control_c, 0, 64, 36
1, 280081, Control_c, 0, 64, 40
1, 280096, Control_c, 0, 64, 55
1, 280097, Note_off_c, 0, 51, 37
1, 280111, Control_c, 0, 64, 63
1, 280126, Control_c, 0, 64, 68
1, 280141, Control_c, 0, 64, 74
1, 280155, Control_c, 0, 64, 83
1, 280170, Control_c, 0, 64, 96
1, 280185, Control_c, 0, 64, 119
1, 280190, Note_on_c, 0, 61, 36
1, 280199, Control_c, 0, 64, 127
1, 280363, Note_off_c, 0, 70, 37
1, 280364, Control_c, 0, 67, 127
1, 280374, Note_on_c, 0, 68, 47
1, 280464, Note_off_c, 0, 61, 42
1, 280492, Note_off_c, 0, 64, 58
1, 280535, Control_c, 0, 67, 126
1, 280538, Note_on_c, 0, 71, 51
1, 280565, Control_c, 0, 67, 126
1, 280594, Control_c, 0, 67, 125
1, 280638, Control_c, 0, 67, 125
1, 280683, Control_c, 0, 67, 124
1, 280815, Note_on_c, 0, 32, 41
1, 280816, Note_on_c, 0, 63, 45
1, 280845, Control_c, 0, 64, 105
1, 280860, Control_c, 0, 64, 77
1, 280875, Control_c, 0, 64, 14
1, 280883, Note_off_c, 0, 39, 42
1, 280890, Control_c, 0, 64, 0
1, 280934, Control_c, 0, 64, 58
1, 280949, Control_c, 0, 64, 68
1, 280954, Note_off_c, 0, 71, 51
1, 280964, Control_c, 0, 64, 81
1, 280979, Control_c, 0, 64, 102
1, 280979, Note_off_c, 0, 68, 60
1, 280994, Control_c, 0, 64, 127
1, 281017, Note_off_c, 0, 63, 58
1, 281048, Note_on_c, 0, 59, 40
1, 281068, Control_c, 0, 67, 124
1, 281085, Note_off_c, 0, 59, 62
1, 281112, Control_c, 0, 67, 123
1, 281200, Note_on_c, 0, 56, 51
1, 281313, Control_c, 0, 67, 124
1, 281318, Note_on_c, 0, 51, 41
1, 281343, Control_c, 0, 67, 124
1, 281426, Note_on_c, 0, 47, 43
1, 281456, Note_off_c, 0, 47, 57
1, 281468, Note_off_c, 0, 56, 63
1, 281477, Note_off_c, 0, 51, 36
1, 281533, Note_on_c, 0, 44, 56
1, 281602, Note_off_c, 0, 44, 56
1, 281641, Note_on_c, 0, 39, 59
1, 281647, Note_on_c, 0, 68, 62
1, 281653, Control_c, 0, 64, 96
1, 281668, Note_off_c, 0, 32, 44
1, 281668, Control_c, 0, 64, 75
1, 281674, Note_off_c, 0, 68, 66
1, 281682, Note_on_c, 0, 59, 11
1, 281683, Control_c, 0, 64, 57
1, 281698, Control_c, 0, 64, 0
1, 281709, Note_off_c, 0, 39, 59
1, 281725, Note_on_c, 0, 35, 54
1, 281751, Note_on_c, 0, 70, 58
1, 281762, Note_off_c, 0, 35, 63
1, 281772, Note_off_c, 0, 70, 64
1, 281785, Note_off_c, 0, 59, 20
1, 281817, Control_c, 0, 67, 124
1, 281832, Control_c, 0, 64, 64
1, 281832, Control_c, 0, 67, 123
1, 281835, Note_on_c, 0, 32, 63
1, 281845, Note_on_c, 0, 71, 78
1, 281846, Control_c, 0, 64, 76
1, 281846, Control_c, 0, 67, 122
1, 281847, Note_on_c, 0, 59, 66
1, 281861, Control_c, 0, 64, 94
1, 281861, Control_c, 0, 67, 121
1, 281864, Note_off_c, 0, 32, 64
1, 281864, Note_off_c, 0, 71, 70
1, 281873, Note_off_c, 0, 59, 65
1, 281876, Control_c, 0, 64, 127
1, 281876, Control_c, 0, 67, 121
1, 282017, Control_c, 0, 67, 121
1, 282032, Control_c, 0, 67, 122
1, 282047, Control_c, 0, 64, 106
1, 282047, Control_c, 0, 67, 122
1, 282062, Control_c, 0, 64, 79
1, 282062, Control_c, 0, 67, 123
1, 282067, Note_on_c, 0, 59, 77
1, 282072, Note_on_c, 0, 44, 52
1, 282075, Note_on_c, 0, 51, 51
1, 282076, Note_on_c, 0, 71, 64
1, 282076, Control_c, 0, 64, 55
1, 282086, Note_off_c, 0, 59, 71
1, 282091, Note_off_c, 0, 71, 69
1, 282091, Control_c, 0, 64, 0
1, 282101, Note_off_c, 0, 44, 56
1, 282104, Note_off_c, 0, 51, 59
1, 282151, Note_on_c, 0, 61, 83
1, 282151, Note_on_c, 0, 71, 71
1, 282158, Note_on_c, 0, 51, 55
1, 282172, Note_off_c, 0, 61, 69
1, 282173, Note_off_c, 0, 71, 71
1, 282183, Note_on_c, 0, 44, 21
1, 282184, Note_off_c, 0, 44, 127
1, 282186, Note_off_c, 0, 51, 61
1, 282210, Control_c, 0, 67, 122
1, 282237, Note_on_c, 0, 44, 55
1, 282240, Control_c, 0, 64, 61
1, 282240, Control_c, 0, 67, 122
1, 282241, Note_on_c, 0, 51, 75
1, 282242, Note_on_c, 0, 71, 77
1, 282246, Note_on_c, 0, 63, 82
1, 282255, Control_c, 0, 64, 78
1, 282262, Note_off_c, 0, 71, 71
1, 282265, Note_off_c, 0, 51, 67
1, 282269, Note_off_c, 0, 63, 70
1, 282270, Control_c, 0, 64, 97
1, 282271, Note_off_c, 0, 44, 62
1, 282284, Control_c, 0, 64, 127
1, 282314, Control_c, 0, 64, 108
1, 282329, Control_c, 0, 64, 94
1, 282344, Control_c, 0, 64, 81
1, 282358, Control_c, 0, 64, 69
1, 282373, Control_c, 0, 64, 51
1, 282388, Control_c, 0, 64, 0
1, 282388, Control_c, 0, 67, 122
1, 282402, Control_c, 0, 67, 123
1, 282432, Control_c, 0, 67, 123
1, 282436, Note_on_c, 0, 44, 69
1, 282444, Note_on_c, 0, 63, 71
1, 282445, Note_on_c, 0, 51, 52
1, 282449, Note_on_c, 0, 71, 65
1, 282466, Note_off_c, 0, 63, 68
1, 282466, Note_off_c, 0, 71, 67
1, 282471, Note_off_c, 0, 44, 61
1, 282472, Note_off_c, 0, 51, 59
1, 282476, Control_c, 0, 67, 124
1, 282517, Note_on_c, 0, 46, 73
1, 282519, Note_on_c, 0, 63, 79
1, 282520, Note_on_c, 0, 71, 79
1, 282540, Note_off_c, 0, 63, 70
1, 282541, Note_off_c, 0, 71, 69
1, 282547, Note_off_c, 0, 46, 66
1, 282595, Control_c, 0, 67, 123
1, 282606, Note_on_c, 0, 47, 76
1, 282610, Control_c, 0, 64, 70
1, 282610, Note_on_c, 0, 63, 84
1, 282615, Note_on_c, 0, 71, 80
1, 282624, Control_c, 0, 64, 89
1, 282626, Note_on_c, 0, 51, 11
1, 282628, Note_off_c, 0, 47, 68
1, 282630, Note_off_c, 0, 63, 70
1, 282633, Note_off_c, 0, 71, 73
1, 282639, Control_c, 0, 64, 110
1, 282662, Control_c, 0, 64, 105
1, 282677, Control_c, 0, 64, 85
1, 282686, Note_off_c, 0, 51, 53
1, 282691, Control_c, 0, 64, 68
1, 282706, Control_c, 0, 64, 21
1, 282721, Control_c, 0, 64, 0
1, 282810, Note_on_c, 0, 51, 67
1, 282811, Control_c, 0, 67, 123
1, 282813, Note_on_c, 0, 63, 75
1, 282815, Note_on_c, 0, 71, 73
1, 282821, Note_on_c, 0, 47, 60
1, 282835, Note_off_c, 0, 63, 69
1, 282836, Note_off_c, 0, 71, 72
1, 282839, Note_off_c, 0, 51, 65
1, 282846, Note_off_c, 0, 47, 63
1, 282889, Note_on_c, 0, 52, 75
1, 282901, Note_on_c, 0, 71, 77
1, 282903, Note_on_c, 0, 63, 74
1, 282917, Note_off_c, 0, 52, 65
1, 282920, Note_off_c, 0, 71, 73
1, 282929, Note_off_c, 0, 63, 66
1, 282976, Note_on_c, 0, 54, 85
1, 282978, Note_on_c, 0, 63, 75
1, 282980, Note_on_c, 0, 47, 64
1, 282988, Control_c, 0, 64, 71
1, 282988, Control_c, 0, 67, 123
1, 282989, Note_on_c, 0, 71, 75
1, 283000, Note_off_c, 0, 54, 70
1, 283000, Note_off_c, 0, 63, 69
1, 283003, Control_c, 0, 64, 89
1, 283008, Note_off_c, 0, 47, 66
1, 283010, Note_off_c, 0, 71, 70
1, 283018, Control_c, 0, 64, 127
1, 283092, Control_c, 0, 64, 104
1, 283107, Control_c, 0, 64, 78
1, 283122, Control_c, 0, 64, 54
1, 283137, Control_c, 0, 64, 0
1, 283171, Note_on_c, 0, 54, 75
1, 283174, Note_on_c, 0, 71, 78
1, 283176, Note_on_c, 0, 63, 69
1, 283183, Note_on_c, 0, 47, 53
1, 283192, Note_off_c, 0, 71, 73
1, 283194, Note_off_c, 0, 54, 68
1, 283204, Note_off_c, 0, 63, 67
1, 283212, Note_off_c, 0, 47, 56
1, 283244, Note_on_c, 0, 73, 88
1, 283248, Note_on_c, 0, 54, 82
1, 283271, Note_on_c, 0, 47, 56
1, 283273, Note_off_c, 0, 54, 70
1, 283280, Note_off_c, 0, 73, 63
1, 283294, Note_off_c, 0, 47, 59
1, 283314, Control_c, 0, 67, 122
1, 283329, Control_c, 0, 64, 58
1, 283329, Control_c, 0, 67, 122
1, 283334, Note_on_c, 0, 54, 79
1, 283334, Note_on_c, 0, 75, 93
1, 283340, Note_on_c, 0, 63, 66
1, 283343, Control_c, 0, 64, 85
1, 283351, Note_on_c, 0, 47, 56
1, 283355, Note_off_c, 0, 54, 70
1, 283358, Control_c, 0, 64, 127
1, 283362, Note_off_c, 0, 63, 64
1, 283376, Note_off_c, 0, 47, 60
1, 283376, Note_off_c, 0, 75, 63
1, 283469, Poly_aftertouch_c, 0, 54, 127
1, 283500, Poly_aftertouch_c, 0, 54, 0
1, 283514, Control_c, 0, 64, 85
1, 283514, Control_c, 0, 67, 122
1, 283530, Control_c, 0, 64, 61
1, 283530, Control_c, 0, 67, 123
1, 283540, Note_on_c, 0, 75, 78
1, 283541, Note_on_c, 0, 54, 49
1, 283543, Note_on_c, 0, 47, 52
1, 283545, Control_c, 0, 64, 0
1, 283545, Control_c, 0, 67, 123
1, 283560, Note_off_c, 0, 75, 71
1, 283561, Note_off_c, 0, 54, 63
1, 283566, Note_off_c, 0, 47, 61
1, 283573, Note_on_c, 0, 63, 23
1, 283574, Note_off_c, 0, 63, 127
1, 283614, Note_on_c, 0, 54, 70
1, 283615, Note_on_c, 0, 75, 80
1, 283623, Poly_aftertouch_c, 0, 63, 0
1, 283626, Note_on_c, 0, 47, 44
1, 283641, Note_off_c, 0, 75, 60
1, 283647, Note_off_c, 0, 54, 59
1, 283662, Note_off_c, 0, 47, 54
1, 283695, Note_on_c, 0, 75, 77
1, 283701, Note_on_c, 0, 47, 59
1, 283708, Note_on_c, 0, 73, 85
1, 283718, Note_on_c, 0, 64, 63
1, 283722, Note_on_c, 0, 56, 61
1, 283722, Control_c, 0, 64, 69
1, 283737, Control_c, 0, 64, 93
1, 283738, Note_off_c, 0, 64, 64
1, 283745, Note_off_c, 0, 47, 63
1, 283745, Note_off_c, 0, 75, 61
1, 283748, Note_off_c, 0, 56, 66
1, 283752, Control_c, 0, 64, 127
1, 283759, Note_off_c, 0, 73, 57
1, 283868, Note_on_c, 0, 58, 76
1, 283871, Note_on_c, 0, 47, 60
1, 283878, Note_on_c, 0, 75, 81
1, 283891, Note_on_c, 0, 64, 49
1, 283895, Note_off_c, 0, 58, 63
1, 283899, Note_off_c, 0, 47, 64
1, 283908, Note_off_c, 0, 75, 57
1, 283915, Note_off_c, 0, 64, 61
1, 283915, Control_c, 0, 67, 124
1, 283930, Control_c, 0, 67, 124
1, 283945, Control_c, 0, 64, 88
1, 283954, Note_on_c, 0, 58, 71
1, 283960, Control_c, 0, 64, 67
1, 283965, Note_on_c, 0, 47, 58
1, 283974, Control_c, 0, 64, 0
1, 283978, Note_on_c, 0, 75, 69
1, 283978, Note_off_c, 0, 58, 67
1, 283984, Note_off_c, 0, 47, 66
1, 283993, Note_on_c, 0, 64, 38
1, 284023, Note_off_c, 0, 64, 56
1, 284033, Note_on_c, 0, 47, 83
1, 284035, Note_on_c, 0, 59, 85
1, 284054, Note_off_c, 0, 59, 69
1, 284061, Note_on_c, 0, 71, 67
1, 284063, Note_off_c, 0, 47, 68
1, 284122, Control_c, 0, 67, 125
1, 284127, Note_off_c, 0, 75, 58
1, 284130, Note_on_c, 0, 66, 74
1, 284134, Note_on_c, 0, 63, 62
1, 284137, Control_c, 0, 67, 125
1, 284150, Note_off_c, 0, 71, 54
1, 284202, Note_off_c, 0, 63, 56
1, 284228, Note_off_c, 0, 66, 61
1, 284237, Note_on_c, 0, 42, 74
1, 284241, Note_on_c, 0, 71, 51
1, 284243, Note_on_c, 0, 75, 64
1, 284262, Note_off_c, 0, 42, 65
1, 284263, Control_c, 0, 67, 126
1, 284310, Note_on_c, 0, 63, 61
1, 284312, Note_off_c, 0, 75, 38
1, 284336, Note_on_c, 0, 66, 64
1, 284354, Note_off_c, 0, 71, 36
1, 284392, Note_off_c, 0, 63, 57
1, 284420, Note_off_c, 0, 66, 61
1, 284428, Note_on_c, 0, 75, 58
1, 284428, Note_on_c, 0, 35, 60
1, 284434, Note_on_c, 0, 71, 45
1, 284442, Control_c, 0, 64, 65
1, 284457, Control_c, 0, 64, 76
1, 284461, Note_off_c, 0, 35, 65
1, 284471, Control_c, 0, 64, 94
1, 284486, Control_c, 0, 64, 127
1, 284516, Control_c, 0, 67, 125
1, 284521, Note_on_c, 0, 63, 51
1, 284521, Note_off_c, 0, 75, 38
1, 284531, Control_c, 0, 67, 124
1, 284541, Note_on_c, 0, 66, 60
1, 284560, Control_c, 0, 67, 124
1, 284602, Note_off_c, 0, 63, 56
1, 284625, Note_off_c, 0, 71, 0
1, 284631, Note_off_c, 0, 66, 59
1, 284634, Control_c, 0, 67, 124
1, 284637, Note_on_c, 0, 47, 65
1, 284637, Note_on_c, 0, 75, 59
1, 284643, Note_on_c, 0, 71, 34
1, 284649, Control_c, 0, 67, 125
1, 284693, Control_c, 0, 64, 110
1, 284708, Control_c, 0, 64, 88
1, 284711, Note_on_c, 0, 49, 73
1, 284721, Note_off_c, 0, 47, 58
1, 284723, Control_c, 0, 64, 74
1, 284729, Note_on_c, 0, 63, 50
1, 284730, Note_off_c, 0, 75, 57
1, 284735, Note_off_c, 0, 71, 59
1, 284738, Control_c, 0, 64, 63
1, 284740, Note_on_c, 0, 66, 64
1, 284753, Control_c, 0, 64, 31
1, 284768, Control_c, 0, 64, 0
1, 284809, Note_off_c, 0, 63, 54
1, 284817, Note_on_c, 0, 51, 68
1, 284824, Note_off_c, 0, 66, 61
1, 284836, Note_on_c, 0, 71, 60
1, 284842, Note_on_c, 0, 75, 63
1, 284848, Note_off_c, 0, 49, 62
1, 284903, Note_off_c, 0, 51, 64
1, 284908, Note_on_c, 0, 52, 77
1, 284908, Note_off_c, 0, 75, 45
1, 284914, Note_off_c, 0, 71, 61
1, 284918, Note_on_c, 0, 63, 63
1, 284933, Note_on_c, 0, 66, 65
1, 284987, Note_off_c, 0, 63, 53
1, 284995, Note_off_c, 0, 52, 57
1, 284997, Control_c, 0, 67, 124
1, 285000, Note_on_c, 0, 51, 82
1, 285004, Note_off_c, 0, 66, 62
1, 285013, Note_on_c, 0, 75, 69
1, 285018, Note_on_c, 0, 71, 70
1, 285042, Control_c, 0, 67, 124
1, 285057, Control_c, 0, 67, 123
1, 285071, Control_c, 0, 67, 123
1, 285086, Note_on_c, 0, 52, 88
1, 285086, Control_c, 0, 67, 122
1, 285087, Note_off_c, 0, 71, 60
1, 285087, Note_off_c, 0, 75, 57
1, 285090, Note_on_c, 0, 63, 62
1, 285092, Note_off_c, 0, 51, 63
1, 285094, Note_on_c, 0, 66, 71
1, 285101, Control_c, 0, 67, 122
1, 285116, Control_c, 0, 67, 121
1, 285131, Control_c, 0, 67, 121
1, 285146, Control_c, 0, 67, 120
1, 285154, Note_off_c, 0, 63, 45
1, 285161, Control_c, 0, 67, 119
1, 285175, Note_off_c, 0, 66, 62
1, 285176, Control_c, 0, 67, 118
1, 285179, Note_on_c, 0, 54, 91
1, 285185, Note_on_c, 0, 71, 69
1, 285187, Note_off_c, 0, 52, 62
1, 285190, Note_on_c, 0, 75, 67
1, 285191, Control_c, 0, 67, 117
1, 285206, Control_c, 0, 67, 114
1, 285220, Control_c, 0, 67, 112
1, 285235, Control_c, 0, 67, 108
1, 285250, Control_c, 0, 64, 64
1, 285250, Control_c, 0, 67, 105
1, 285252, Note_off_c, 0, 54, 66
1, 285254, Note_on_c, 0, 56, 92
1, 285263, Note_off_c, 0, 75, 46
1, 285263, Note_on_c, 0, 63, 66
1, 285265, Control_c, 0, 64, 72
1, 285265, Control_c, 0, 67, 100
1, 285266, Note_off_c, 0, 71, 62
1, 285274, Note_on_c, 0, 66, 73
1, 285280, Control_c, 0, 64, 79
1, 285280, Control_c, 0, 67, 94
1, 285294, Control_c, 0, 64, 87
1, 285294, Control_c, 0, 67, 88
1, 285309, Control_c, 0, 64, 92
1, 285309, Control_c, 0, 67, 83
1, 285324, Control_c, 0, 64, 95
1, 285324, Control_c, 0, 67, 79
1, 285339, Control_c, 0, 64, 96
1, 285339, Control_c, 0, 67, 76
1, 285343, Note_on_c, 0, 54, 89
1, 285347, Note_off_c, 0, 63, 50
1, 285354, Control_c, 0, 67, 74
1, 285356, Note_off_c, 0, 56, 60
1, 285360, Note_off_c, 0, 66, 62
1, 285367, Note_on_c, 0, 75, 71
1, 285369, Control_c, 0, 67, 72
1, 285370, Note_on_c, 0, 71, 76
1, 285382, Note_off_c, 0, 54, 69
1, 285383, Control_c, 0, 67, 69
1, 285398, Control_c, 0, 67, 69
1, 285442, Control_c, 0, 67, 68
1, 285453, Note_on_c, 0, 63, 69
1, 285456, Note_off_c, 0, 75, 58
1, 285457, Control_c, 0, 67, 68
1, 285460, Note_on_c, 0, 66, 74
1, 285465, Note_off_c, 0, 71, 60
1, 285472, Control_c, 0, 67, 67
1, 285487, Control_c, 0, 64, 95
1, 285487, Control_c, 0, 67, 66
1, 285495, Note_on_c, 0, 59, 85
1, 285501, Control_c, 0, 64, 94
1, 285501, Control_c, 0, 67, 65
1, 285516, Control_c, 0, 64, 92
1, 285516, Control_c, 0, 67, 64
1, 285519, Note_off_c, 0, 59, 66
1, 285531, Control_c, 0, 64, 88
1, 285531, Control_c, 0, 67, 62
1, 285534, Note_off_c, 0, 63, 54
1, 285535, Note_off_c, 0, 66, 60
1, 285546, Control_c, 0, 64, 84
1, 285546, Control_c, 0, 67, 61
1, 285550, Note_on_c, 0, 71, 66
1, 285553, Note_on_c, 0, 59, 85
1, 285555, Note_on_c, 0, 75, 70
1, 285561, Control_c, 0, 64, 79
1, 285561, Control_c, 0, 67, 59
1, 285576, Control_c, 0, 64, 74
1, 285576, Control_c, 0, 67, 56
1, 285590, Control_c, 0, 64, 70
1, 285590, Control_c, 0, 67, 53
1, 285605, Control_c, 0, 64, 67
1, 285605, Control_c, 0, 67, 51
1, 285620, Control_c, 0, 64, 65
1, 285620, Control_c, 0, 67, 50
1, 285635, Control_c, 0, 64, 64
1, 285635, Control_c, 0, 67, 50
1, 285638, Note_off_c, 0, 75, 58
1, 285654, Note_on_c, 0, 66, 72
1, 285657, Control_c, 0, 64, 64
1, 285657, Control_c, 0, 67, 49
1, 285668, Note_off_c, 0, 71, 57
1, 285672, Control_c, 0, 64, 61
1, 285672, Control_c, 0, 67, 49
1, 285682, Note_on_c, 0, 63, 46
1, 285687, Control_c, 0, 64, 52
1, 285687, Control_c, 0, 67, 48
1, 285701, Control_c, 0, 64, 0
1, 285701, Control_c, 0, 67, 46
1, 285702, Note_off_c, 0, 66, 60
1, 285710, Note_off_c, 0, 63, 58
1, 285716, Control_c, 0, 67, 44
1, 285731, Control_c, 0, 67, 41
1, 285745, Control_c, 0, 67, 40
1, 285751, Note_on_c, 0, 54, 87
1, 285752, Note_on_c, 0, 69, 80
1, 285753, Note_on_c, 0, 73, 82
1, 285760, Control_c, 0, 67, 40
1, 285763, Note_on_c, 0, 63, 72
1, 285775, Control_c, 0, 67, 37
1, 285779, Note_off_c, 0, 73, 63
1, 285784, Note_off_c, 0, 69, 60
1, 285790, Note_off_c, 0, 63, 65
1, 285790, Control_c, 0, 67, 34
1, 285805, Control_c, 0, 67, 30
1, 285820, Control_c, 0, 67, 27
1, 285835, Control_c, 0, 67, 24
1, 285835, Note_on_c, 0, 73, 88
1, 285841, Note_on_c, 0, 63, 80
1, 285850, Control_c, 0, 67, 22
1, 285850, Note_on_c, 0, 69, 67
1, 285865, Control_c, 0, 67, 19
1, 285865, Note_off_c, 0, 63, 67
1, 285874, Note_off_c, 0, 69, 65
1, 285880, Control_c, 0, 67, 15
1, 285886, Note_off_c, 0, 73, 61
1, 285894, Control_c, 0, 67, 11
1, 285909, Control_c, 0, 67, 0
1, 285920, Note_on_c, 0, 72, 87
1, 285924, Note_on_c, 0, 63, 83
1, 285930, Note_on_c, 0, 68, 82
1, 285940, Note_off_c, 0, 59, 60
1, 285948, Note_off_c, 0, 63, 67
1, 285955, Note_on_c, 0, 70, 32
1, 285969, Note_off_c, 0, 54, 63
1, 285979, Note_off_c, 0, 72, 63
1, 285983, Note_off_c, 0, 68, 60
1, 285985, Note_off_c, 0, 70, 34
1, 286000, Note_on_c, 0, 56, 89
1, 286032, Note_off_c, 0, 56, 65
1, 286107, Note_on_c, 0, 66, 82
1, 286108, Note_on_c, 0, 76, 87
1, 286110, Note_on_c, 0, 64, 88
1, 286111, Note_on_c, 0, 69, 75
1, 286114, Note_on_c, 0, 61, 87
1, 286125, Note_off_c, 0, 76, 71
1, 286127, Note_off_c, 0, 66, 70
1, 286133, Note_off_c, 0, 69, 70
1, 286155, Note_on_c, 0, 62, 18
1, 286156, Note_off_c, 0, 62, 127
1, 286193, Note_on_c, 0, 69, 77
1, 286193, Note_on_c, 0, 76, 82
1, 286210, Note_on_c, 0, 66, 53
1, 286216, Note_off_c, 0, 76, 65
1, 286217, Note_off_c, 0, 69, 67
1, 286234, Note_off_c, 0, 66, 60
1, 286267, Note_on_c, 0, 66, 82
1, 286273, Note_on_c, 0, 75, 89
1, 286293, Note_off_c, 0, 64, 64
1, 286304, Note_off_c, 0, 66, 63
1, 286321, Note_off_c, 0, 75, 64
1, 286342, Note_on_c, 0, 60, 73
1, 286348, Note_on_c, 0, 63, 82
1, 286359, Note_off_c, 0, 61, 35
1, 286374, Note_off_c, 0, 60, 66
1, 286403, Note_off_c, 0, 63, 63
1, 286441, Note_on_c, 0, 64, 96
1, 286446, Note_on_c, 0, 68, 95
1, 286451, Note_on_c, 0, 69, 94
1, 286452, Note_on_c, 0, 80, 94
1, 286458, Note_on_c, 0, 73, 80
1, 286468, Note_off_c, 0, 69, 72
1, 286470, Note_off_c, 0, 80, 64
1, 286481, Note_off_c, 0, 73, 70
1, 286540, Note_on_c, 0, 80, 89
1, 286553, Note_on_c, 0, 69, 63
1, 286553, Note_on_c, 0, 73, 67
1, 286570, Note_off_c, 0, 69, 67
1, 286571, Note_off_c, 0, 73, 66
1, 286574, Note_off_c, 0, 80, 54
1, 286603, Note_off_c, 0, 68, 59
1, 286618, Note_on_c, 0, 69, 86
1, 286619, Note_on_c, 0, 80, 58
1, 286622, Note_on_c, 0, 78, 91
1, 286628, Note_on_c, 0, 73, 72
1, 286635, Note_off_c, 0, 69, 73
1, 286637, Note_off_c, 0, 80, 66
1, 286645, Note_off_c, 0, 73, 68
1, 286649, Note_off_c, 0, 64, 60
1, 286663, Note_off_c, 0, 78, 65
1, 286699, Note_on_c, 0, 63, 81
1, 286702, Note_on_c, 0, 66, 78
1, 286725, Note_off_c, 0, 66, 69
1, 286740, Note_off_c, 0, 63, 58
1, 286797, Note_on_c, 0, 92, 110
1, 286805, Note_on_c, 0, 68, 84
1, 286805, Note_on_c, 0, 80, 94
1, 286821, Note_off_c, 0, 80, 74
1, 286823, Note_off_c, 0, 92, 69
1, 286829, Note_off_c, 0, 68, 65
1, 286985, Control_c, 0, 64, 49
1, 286999, Control_c, 0, 64, 64
1, 287014, Control_c, 0, 64, 70
1, 287029, Control_c, 0, 64, 80
1, 287030, Note_on_c, 0, 85, 103
1, 287033, Note_on_c, 0, 61, 80
1, 287037, Note_on_c, 0, 73, 93
1, 287044, Control_c, 0, 64, 101
1, 287059, Control_c, 0, 64, 127
1, 287072, Note_off_c, 0, 73, 50
1, 287274, Control_c, 0, 67, 8
1, 287289, Control_c, 0, 67, 10
1, 287296, Note_off_c, 0, 85, 59
1, 287298, Note_off_c, 0, 61, 59
1, 287304, Control_c, 0, 67, 11
1, 287315, Note_on_c, 0, 87, 88
1, 287319, Control_c, 0, 67, 12
1, 287324, Note_on_c, 0, 63, 80
1, 287333, Control_c, 0, 64, 89
1, 287333, Control_c, 0, 67, 13
1, 287339, Note_on_c, 0, 75, 55
1, 287348, Control_c, 0, 64, 41
1, 287362, Note_off_c, 0, 75, 59
1, 287363, Control_c, 0, 64, 0
1, 287390, Note_on_c, 0, 85, 95
1, 287393, Control_c, 0, 67, 12
1, 287394, Note_on_c, 0, 73, 85
1, 287394, Note_on_c, 0, 61, 91
1, 287395, Note_off_c, 0, 63, 48
1, 287407, Control_c, 0, 67, 10
1, 287412, Note_off_c, 0, 61, 71
1, 287412, Note_off_c, 0, 87, 66
1, 287418, Note_off_c, 0, 73, 64
1, 287420, Note_off_c, 0, 85, 64
1, 287422, Control_c, 0, 64, 63
1, 287422, Control_c, 0, 67, 0
1, 287437, Control_c, 0, 64, 81
1, 287452, Control_c, 0, 64, 117
1, 287467, Control_c, 0, 64, 127
1, 287615, Control_c, 0, 67, 9
1, 287630, Control_c, 0, 67, 10
1, 287645, Control_c, 0, 67, 13
1, 287650, Note_on_c, 0, 64, 76
1, 287656, Note_on_c, 0, 92, 99
1, 287657, Note_on_c, 0, 73, 80
1, 287660, Control_c, 0, 67, 16
1, 287675, Control_c, 0, 67, 20
1, 287677, Note_off_c, 0, 64, 67
1, 287680, Note_off_c, 0, 73, 69
1, 287689, Control_c, 0, 64, 83
1, 287689, Control_c, 0, 67, 22
1, 287697, Note_off_c, 0, 92, 68
1, 287704, Control_c, 0, 64, 59
1, 287704, Control_c, 0, 67, 23
1, 287719, Control_c, 0, 64, 0
1, 287734, Control_c, 0, 67, 22
1, 287737, Note_on_c, 0, 75, 77
1, 287747, Note_on_c, 0, 64, 58
1, 287749, Control_c, 0, 67, 22
1, 287761, Note_off_c, 0, 75, 65
1, 287764, Control_c, 0, 67, 22
1, 287767, Note_off_c, 0, 64, 62
1, 287778, Control_c, 0, 67, 23
1, 287793, Control_c, 0, 67, 24
1, 287808, Control_c, 0, 67, 26
1, 287823, Control_c, 0, 67, 29
1, 287824, Note_on_c, 0, 85, 99
1, 287826, Note_on_c, 0, 64, 81
1, 287838, Control_c, 0, 67, 31
1, 287839, Note_on_c, 0, 76, 72
1, 287853, Control_c, 0, 67, 33
1, 287856, Note_off_c, 0, 64, 63
1, 287865, Note_off_c, 0, 76, 67
1, 287868, Control_c, 0, 67, 34
1, 287883, Control_c, 0, 67, 36
1, 287904, Control_c, 0, 67, 37
1, 287919, Control_c, 0, 67, 38
1, 287934, Control_c, 0, 67, 40
1, 287948, Control_c, 0, 67, 41
1, 287963, Control_c, 0, 67, 43
1, 287978, Control_c, 0, 67, 44
1, 287993, Control_c, 0, 67, 44
1, 288008, Control_c, 0, 67, 45
1, 288026, Note_on_c, 0, 64, 63
1, 288032, Note_on_c, 0, 76, 57
1, 288037, Control_c, 0, 67, 45
1, 288045, Note_off_c, 0, 64, 64
1, 288053, Note_off_c, 0, 76, 61
1, 288067, Control_c, 0, 67, 46
1, 288080, Note_off_c, 0, 85, 59
1, 288082, Control_c, 0, 67, 47
1, 288096, Control_c, 0, 67, 47
1, 288105, Note_on_c, 0, 66, 71
1, 288111, Note_on_c, 0, 87, 74
1, 288122, Note_on_c, 0, 76, 56
1, 288123, Note_off_c, 0, 66, 67
1, 288126, Control_c, 0, 67, 47
1, 288137, Note_off_c, 0, 87, 65
1, 288141, Control_c, 0, 67, 46
1, 288145, Note_off_c, 0, 76, 60
1, 288170, Control_c, 0, 67, 46
1, 288180, Note_on_c, 0, 85, 83
1, 288185, Control_c, 0, 64, 75
1, 288185, Control_c, 0, 67, 45
1, 288192, Note_on_c, 0, 68, 77
1, 288195, Note_on_c, 0, 76, 78
1, 288197, Note_off_c, 0, 85, 73
1, 288200, Control_c, 0, 64, 127
1, 288200, Control_c, 0, 67, 45
1, 288213, Note_off_c, 0, 68, 70
1, 288215, Control_c, 0, 67, 44
1, 288218, Note_off_c, 0, 76, 66
1, 288229, Control_c, 0, 67, 44
1, 288244, Control_c, 0, 67, 43
1, 288259, Control_c, 0, 67, 42
1, 288274, Control_c, 0, 67, 41
1, 288289, Control_c, 0, 67, 41
1, 288334, Control_c, 0, 67, 40
1, 288363, Note_on_c, 0, 56, 86
1, 288364, Note_on_c, 0, 49, 84
1, 288364, Control_c, 0, 67, 40
1, 288372, Note_on_c, 0, 76, 78
1, 288375, Note_on_c, 0, 68, 71
1, 288379, Control_c, 0, 64, 99
1, 288386, Note_off_c, 0, 56, 69
1, 288392, Note_off_c, 0, 49, 66
1, 288393, Note_off_c, 0, 76, 69
1, 288393, Control_c, 0, 64, 68
1, 288395, Note_off_c, 0, 68, 63
1, 288408, Control_c, 0, 64, 0
1, 288444, Note_on_c, 0, 51, 77
1, 288444, Note_on_c, 0, 68, 86
1, 288447, Note_on_c, 0, 56, 76
1, 288450, Note_on_c, 0, 76, 78
1, 288463, Note_off_c, 0, 68, 72
1, 288467, Control_c, 0, 67, 39
1, 288470, Note_off_c, 0, 76, 69
1, 288471, Note_off_c, 0, 56, 67
1, 288476, Note_off_c, 0, 51, 63
1, 288482, Control_c, 0, 67, 37
1, 288497, Control_c, 0, 67, 35
1, 288506, Note_on_c, 0, 52, 98
1, 288512, Control_c, 0, 67, 32
1, 288519, Note_on_c, 0, 68, 84
1, 288521, Note_on_c, 0, 56, 66
1, 288521, Note_on_c, 0, 76, 98
1, 288527, Control_c, 0, 67, 26
1, 288534, Note_off_c, 0, 68, 70
1, 288541, Note_on_c, 0, 69, 60
1, 288542, Control_c, 0, 67, 15
1, 288542, Note_off_c, 0, 52, 65
1, 288543, Note_off_c, 0, 56, 64
1, 288552, Note_off_c, 0, 76, 63
1, 288556, Control_c, 0, 67, 0
1, 288560, Note_off_c, 0, 69, 65
1, 288706, Note_on_c, 0, 76, 85
1, 288708, Note_on_c, 0, 56, 73
1, 288709, Note_on_c, 0, 68, 79
1, 288718, Note_on_c, 0, 52, 53
1, 288726, Note_off_c, 0, 76, 70
1, 288729, Note_off_c, 0, 68, 71
1, 288732, Note_off_c, 0, 56, 68
1, 288735, Note_on_c, 0, 53, 36
1, 288746, Note_off_c, 0, 52, 57
1, 288769, Note_off_c, 0, 53, 54
1, 288777, Note_on_c, 0, 57, 89
1, 288789, Note_on_c, 0, 68, 86
1, 288793, Note_on_c, 0, 76, 84
1, 288798, Note_on_c, 0, 52, 61
1, 288804, Note_off_c, 0, 57, 65
1, 288808, Note_off_c, 0, 68, 70
1, 288813, Note_off_c, 0, 76, 69
1, 288823, Note_off_c, 0, 52, 58
1, 288861, Note_on_c, 0, 59, 92
1, 288864, Note_on_c, 0, 68, 85
1, 288867, Note_on_c, 0, 76, 89
1, 288869, Note_on_c, 0, 52, 89
1, 288875, Control_c, 0, 64, 64
1, 288880, Note_off_c, 0, 68, 74
1, 288885, Note_off_c, 0, 59, 64
1, 288890, Control_c, 0, 64, 85
1, 288892, Note_off_c, 0, 52, 66
1, 288905, Control_c, 0, 64, 127
1, 288908, Note_off_c, 0, 76, 63
1, 288949, Control_c, 0, 64, 114
1, 288963, Control_c, 0, 64, 80
1, 288978, Control_c, 0, 64, 56
1, 288993, Control_c, 0, 64, 0
1, 289042, Note_on_c, 0, 76, 87
1, 289048, Note_on_c, 0, 59, 77
1, 289051, Note_on_c, 0, 52, 58
1, 289054, Note_on_c, 0, 68, 71
1, 289069, Note_off_c, 0, 59, 68
1, 289069, Note_off_c, 0, 52, 65
1, 289072, Note_off_c, 0, 68, 67
1, 289074, Note_off_c, 0, 76, 60
1, 289097, Control_c, 0, 67, 8
1, 289112, Control_c, 0, 67, 8
1, 289113, Note_on_c, 0, 78, 91
1, 289124, Note_on_c, 0, 59, 85
1, 289126, Note_on_c, 0, 52, 82
1, 289143, Note_on_c, 0, 68, 43
1, 289144, Note_off_c, 0, 68, 127
1, 289146, Note_off_c, 0, 59, 67
1, 289150, Note_off_c, 0, 78, 65
1, 289151, Note_off_c, 0, 52, 66
1, 289187, Control_c, 0, 64, 14
1, 289187, Control_c, 0, 67, 8
1, 289197, Note_on_c, 0, 80, 102
1, 289200, Note_on_c, 0, 52, 88
1, 289201, Control_c, 0, 64, 88
1, 289203, Note_on_c, 0, 59, 88
1, 289210, Note_on_c, 0, 68, 73
1, 289216, Control_c, 0, 64, 127
1, 289216, Control_c, 0, 67, 0
1, 289224, Note_off_c, 0, 52, 69
1, 289224, Note_off_c, 0, 59, 70
1, 289226, Note_off_c, 0, 68, 69
1, 289230, Note_off_c, 0, 80, 68
1, 289235, Note_on_c, 0, 78, 24
1, 289236, Note_off_c, 0, 78, 127
1, 289379, Control_c, 0, 64, 100
1, 289379, Control_c, 0, 67, 8
1, 289382, Note_on_c, 0, 59, 74
1, 289396, Note_on_c, 0, 80, 85
1, 289397, Note_on_c, 0, 52, 65
1, 289401, Control_c, 0, 64, 68
1, 289401, Control_c, 0, 67, 9
1, 289403, Note_off_c, 0, 59, 71
1, 289415, Note_off_c, 0, 80, 72
1, 289416, Control_c, 0, 64, 0
1, 289416, Control_c, 0, 67, 9
1, 289420, Note_off_c, 0, 52, 60
1, 289431, Control_c, 0, 67, 10
1, 289432, Note_on_c, 0, 68, 21
1, 289433, Note_off_c, 0, 68, 127
1, 289446, Control_c, 0, 67, 10
1, 289456, Note_on_c, 0, 59, 73
1, 289461, Control_c, 0, 67, 11
1, 289473, Note_on_c, 0, 80, 78
1, 289484, Note_off_c, 0, 59, 60
1, 289495, Note_off_c, 0, 80, 65
1, 289502, Note_on_c, 0, 52, 35
1, 289503, Note_off_c, 0, 52, 127
1, 289519, Control_c, 0, 67, 10
1, 289549, Control_c, 0, 64, 29
1, 289552, Note_on_c, 0, 52, 7
1, 289552, Note_on_c, 0, 80, 68
1, 289558, Note_on_c, 0, 78, 87
1, 289562, Note_on_c, 0, 61, 81
1, 289564, Control_c, 0, 64, 84
1, 289570, Note_on_c, 0, 69, 62
1, 289575, Note_off_c, 0, 80, 69
1, 289579, Control_c, 0, 64, 127
1, 289589, Note_off_c, 0, 69, 65
1, 289595, Note_off_c, 0, 52, 52
1, 289612, Note_off_c, 0, 61, 60
1, 289614, Note_off_c, 0, 78, 61
1, 289667, Control_c, 0, 67, 9
1, 289711, Control_c, 0, 67, 10
1, 289715, Note_on_c, 0, 52, 68
1, 289725, Note_on_c, 0, 63, 75
1, 289726, Control_c, 0, 67, 11
1, 289727, Note_on_c, 0, 80, 80
1, 289731, Note_on_c, 0, 69, 63
1, 289741, Control_c, 0, 67, 11
1, 289744, Note_off_c, 0, 52, 63
1, 289748, Note_off_c, 0, 80, 68
1, 289752, Note_off_c, 0, 63, 65
1, 289759, Note_off_c, 0, 69, 65
1, 289771, Control_c, 0, 64, 92
1, 289771, Control_c, 0, 67, 12
1, 289785, Control_c, 0, 64, 64
1, 289785, Control_c, 0, 67, 13
1, 289797, Note_on_c, 0, 63, 77
1, 289800, Control_c, 0, 64, 0
1, 289801, Note_on_c, 0, 52, 75
1, 289812, Note_on_c, 0, 80, 77
1, 289815, Control_c, 0, 67, 14
1, 289826, Note_off_c, 0, 52, 65
1, 289826, Note_off_c, 0, 63, 68
1, 289830, Control_c, 0, 67, 15
1, 289845, Control_c, 0, 67, 16
1, 289859, Control_c, 0, 67, 17
1, 289875, Note_on_c, 0, 52, 79
1, 289883, Note_on_c, 0, 64, 84
1, 289889, Control_c, 0, 67, 18
1, 289895, Note_on_c, 0, 76, 63
1, 289904, Note_off_c, 0, 64, 73
1, 289904, Control_c, 0, 67, 19
1, 289916, Note_off_c, 0, 52, 63
1, 289920, Control_c, 0, 67, 22
1, 289935, Control_c, 0, 67, 27
1, 289950, Control_c, 0, 67, 33
1, 289963, Note_on_c, 0, 71, 70
1, 289963, Note_off_c, 0, 80, 60
1, 289964, Control_c, 0, 67, 38
1, 289966, Note_on_c, 0, 68, 65
1, 289977, Note_off_c, 0, 76, 56
1, 289979, Control_c, 0, 67, 44
1, 289994, Control_c, 0, 67, 46
1, 290008, Control_c, 0, 67, 48
1, 290023, Control_c, 0, 67, 50
1, 290029, Note_off_c, 0, 68, 60
1, 290038, Control_c, 0, 67, 52
1, 290050, Note_off_c, 0, 71, 63
1, 290053, Control_c, 0, 67, 55
1, 290068, Note_on_c, 0, 47, 68
1, 290068, Note_on_c, 0, 76, 57
1, 290068, Control_c, 0, 67, 59
1, 290074, Note_on_c, 0, 80, 63
1, 290083, Control_c, 0, 67, 62
1, 290093, Note_off_c, 0, 47, 65
1, 290098, Control_c, 0, 67, 65
1, 290113, Control_c, 0, 67, 66
1, 290119, Note_off_c, 0, 80, 47
1, 290127, Control_c, 0, 67, 68
1, 290144, Note_off_c, 0, 76, 52
1, 290155, Note_on_c, 0, 68, 53
1, 290165, Control_c, 0, 67, 68
1, 290177, Note_on_c, 0, 71, 54
1, 290179, Control_c, 0, 67, 69
1, 290194, Control_c, 0, 67, 71
1, 290209, Control_c, 0, 67, 73
1, 290219, Note_off_c, 0, 68, 49
1, 290223, Control_c, 0, 67, 76
1, 290238, Control_c, 0, 67, 78
1, 290253, Control_c, 0, 67, 80
1, 290261, Note_off_c, 0, 71, 63
1, 290268, Control_c, 0, 64, 59
1, 290268, Control_c, 0, 67, 83
1, 290275, Note_on_c, 0, 40, 52
1, 290275, Note_on_c, 0, 80, 56
1, 290282, Note_on_c, 0, 76, 57
1, 290283, Control_c, 0, 64, 73
1, 290283, Control_c, 0, 67, 85
1, 290297, Control_c, 0, 64, 86
1, 290297, Control_c, 0, 67, 87
1, 290303, Note_off_c, 0, 40, 57
1, 290312, Control_c, 0, 64, 122
1, 290312, Control_c, 0, 67, 89
1, 290327, Control_c, 0, 64, 127
1, 290327, Control_c, 0, 67, 90
1, 290342, Control_c, 0, 67, 90
1, 290357, Control_c, 0, 67, 91
1, 290362, Note_off_c, 0, 80, 49
1, 290374, Note_off_c, 0, 76, 39
1, 290388, Note_on_c, 0, 71, 51
1, 290393, Note_on_c, 0, 68, 33
1, 290431, Control_c, 0, 67, 91
1, 290461, Control_c, 0, 67, 92
1, 290484, Note_off_c, 0, 68, 39
1, 290488, Note_off_c, 0, 71, 61
1, 290508, Note_on_c, 0, 52, 58
1, 290511, Note_on_c, 0, 80, 55
1, 290519, Note_on_c, 0, 76, 53
1, 290579, Control_c, 0, 64, 100
1, 290587, Note_off_c, 0, 76, 56
1, 290592, Note_on_c, 0, 54, 72
1, 290594, Control_c, 0, 64, 81
1, 290597, Note_off_c, 0, 80, 56
1, 290603, Note_on_c, 0, 71, 62
1, 290604, Note_on_c, 0, 68, 49
1, 290604, Note_off_c, 0, 52, 57
1, 290608, Control_c, 0, 64, 67
1, 290623, Control_c, 0, 64, 38
1, 290638, Control_c, 0, 64, 0
1, 290664, Note_off_c, 0, 68, 53
1, 290686, Note_off_c, 0, 71, 63
1, 290688, Note_on_c, 0, 56, 76
1, 290703, Note_on_c, 0, 76, 68
1, 290709, Note_on_c, 0, 80, 63
1, 290710, Note_off_c, 0, 54, 63
1, 290759, Note_off_c, 0, 56, 62
1, 290762, Note_on_c, 0, 57, 80
1, 290778, Note_off_c, 0, 80, 47
1, 290783, Note_off_c, 0, 76, 59
1, 290788, Note_on_c, 0, 68, 58
1, 290798, Note_on_c, 0, 71, 66
1, 290817, Control_c, 0, 67, 91
1, 290832, Control_c, 0, 67, 91
1, 290834, Note_off_c, 0, 57, 58
1, 290846, Control_c, 0, 67, 90
1, 290849, Note_on_c, 0, 56, 86
1, 290852, Note_off_c, 0, 68, 53
1, 290861, Control_c, 0, 67, 89
1, 290871, Note_off_c, 0, 71, 63
1, 290876, Control_c, 0, 64, 59
1, 290876, Control_c, 0, 67, 89
1, 290882, Note_on_c, 0, 76, 69
1, 290891, Note_on_c, 0, 80, 68
1, 290899, Control_c, 0, 64, 63
1, 290913, Control_c, 0, 64, 44
1, 290928, Control_c, 0, 64, 0
1, 290936, Note_on_c, 0, 57, 82
1, 290955, Note_off_c, 0, 80, 48
1, 290958, Note_off_c, 0, 76, 59
1, 290965, Note_on_c, 0, 68, 60
1, 290968, Note_on_c, 0, 71, 70
1, 290977, Note_off_c, 0, 56, 50
1, 291002, Control_c, 0, 67, 89
1, 291016, Note_off_c, 0, 68, 49
1, 291034, Note_on_c, 0, 59, 85
1, 291037, Note_off_c, 0, 71, 62
1, 291040, Note_off_c, 0, 57, 63
1, 291048, Note_on_c, 0, 76, 69
1, 291054, Note_on_c, 0, 80, 68
1, 291091, Control_c, 0, 67, 90
1, 291108, Note_on_c, 0, 61, 79
1, 291108, Note_off_c, 0, 59, 63
1, 291120, Note_off_c, 0, 76, 52
1, 291127, Note_off_c, 0, 80, 51
1, 291130, Note_on_c, 0, 68, 60
1, 291142, Note_on_c, 0, 71, 68
1, 291170, Note_off_c, 0, 61, 62
1, 291200, Note_off_c, 0, 68, 49
1, 291209, Control_c, 0, 64, 59
1, 291213, Note_on_c, 0, 59, 77
1, 291217, Note_on_c, 0, 60, 64
1, 291221, Note_off_c, 0, 71, 63
1, 291224, Control_c, 0, 64, 72
1, 291233, Note_on_c, 0, 76, 68
1, 291236, Note_on_c, 0, 80, 61
1, 291236, Note_off_c, 0, 60, 63
1, 291237, Note_off_c, 0, 59, 67
1, 291239, Control_c, 0, 64, 85
1, 291239, Control_c, 0, 67, 89
1, 291254, Control_c, 0, 64, 102
1, 291254, Control_c, 0, 67, 88
1, 291269, Control_c, 0, 64, 127
1, 291269, Control_c, 0, 67, 86
1, 291284, Control_c, 0, 67, 85
1, 291299, Control_c, 0, 67, 83
1, 291312, Note_off_c, 0, 80, 55
1, 291313, Control_c, 0, 67, 82
1, 291323, Note_off_c, 0, 76, 57
1, 291328, Control_c, 0, 67, 80
1, 291338, Note_on_c, 0, 68, 50
1, 291339, Note_on_c, 0, 71, 61
1, 291357, Control_c, 0, 67, 80
1, 291368, Note_on_c, 0, 64, 75
1, 291391, Note_off_c, 0, 64, 66
1, 291394, Note_off_c, 0, 68, 51
1, 291410, Note_off_c, 0, 71, 64
1, 291417, Control_c, 0, 67, 79
1, 291422, Note_on_c, 0, 80, 69
1, 291424, Note_on_c, 0, 76, 71
1, 291431, Control_c, 0, 67, 79
1, 291433, Note_on_c, 0, 64, 88
1, 291461, Control_c, 0, 67, 78
1, 291490, Control_c, 0, 67, 78
1, 291506, Note_off_c, 0, 80, 60
1, 291507, Control_c, 0, 67, 77
1, 291511, Note_on_c, 0, 70, 71
1, 291522, Control_c, 0, 67, 76
1, 291533, Note_off_c, 0, 76, 55
1, 291536, Control_c, 0, 67, 75
1, 291542, Note_off_c, 0, 70, 63
1, 291551, Control_c, 0, 67, 72
1, 291566, Control_c, 0, 67, 67
1, 291580, Control_c, 0, 64, 95
1, 291580, Control_c, 0, 67, 62
1, 291595, Control_c, 0, 64, 74
1, 291595, Control_c, 0, 67, 56
1, 291598, Poly_aftertouch_c, 0, 68, 0
1, 291610, Control_c, 0, 64, 0
1, 291610, Control_c, 0, 67, 49
1, 291611, Note_on_c, 0, 68, 47
1, 291616, Note_on_c, 0, 74, 84
1, 291617, Note_on_c, 0, 78, 82
1, 291618, Note_on_c, 0, 59, 83
1, 291625, Control_c, 0, 67, 43
1, 291648, Control_c, 0, 67, 34
1, 291648, Note_off_c, 0, 78, 64
1, 291651, Note_off_c, 0, 68, 64
1, 291652, Note_off_c, 0, 74, 63
1, 291662, Control_c, 0, 67, 26
1, 291677, Control_c, 0, 67, 15
1, 291692, Control_c, 0, 67, 0
1, 291704, Note_on_c, 0, 78, 88
1, 291711, Note_on_c, 0, 68, 80
1, 291719, Note_on_c, 0, 74, 71
1, 291736, Note_off_c, 0, 68, 60
1, 291736, Note_off_c, 0, 74, 67
1, 291751, Control_c, 0, 64, 48
1, 291766, Control_c, 0, 64, 66
1, 291781, Control_c, 0, 64, 75
1, 291785, Note_on_c, 0, 77, 90
1, 291788, Note_on_c, 0, 68, 83
1, 291795, Control_c, 0, 64, 87
1, 291797, Note_on_c, 0, 73, 84
1, 291806, Note_on_c, 0, 75, 54
1, 291808, Note_off_c, 0, 78, 57
1, 291810, Control_c, 0, 64, 106
1, 291825, Control_c, 0, 64, 127
1, 291827, Note_off_c, 0, 75, 63
1, 291830, Note_off_c, 0, 64, 62
1, 291832, Note_off_c, 0, 59, 61
1, 291835, Note_off_c, 0, 68, 60
1, 291847, Note_off_c, 0, 73, 63
1, 291847, Note_off_c, 0, 77, 63
1, 291860, Note_on_c, 0, 61, 91
1, 291884, Note_off_c, 0, 61, 67
1, 291928, Control_c, 0, 64, 100
1, 291943, Control_c, 0, 64, 81
1, 291957, Note_on_c, 0, 71, 93
1, 291958, Note_on_c, 0, 74, 88
1, 291958, Note_on_c, 0, 81, 93
1, 291958, Control_c, 0, 64, 64
1, 291967, Note_on_c, 0, 69, 90
1, 291967, Note_on_c, 0, 66, 91
1, 291973, Control_c, 0, 64, 0
1, 291976, Note_off_c, 0, 71, 68
1, 291976, Note_off_c, 0, 74, 74
1, 291976, Note_off_c, 0, 81, 65
1, 292038, Note_on_c, 0, 74, 97
1, 292044, Note_on_c, 0, 81, 91
1, 292045, Note_on_c, 0, 71, 86
1, 292059, Note_off_c, 0, 81, 68
1, 292062, Note_off_c, 0, 71, 74
1, 292066, Note_off_c, 0, 74, 66
1, 292107, Control_c, 0, 64, 67
1, 292119, Note_on_c, 0, 80, 95
1, 292120, Note_on_c, 0, 71, 94
1, 292121, Control_c, 0, 64, 81
1, 292136, Control_c, 0, 64, 112
1, 292140, Note_on_c, 0, 81, 49
1, 292141, Note_off_c, 0, 69, 61
1, 292147, Note_off_c, 0, 71, 63
1, 292151, Control_c, 0, 64, 127
1, 292162, Note_off_c, 0, 81, 61
1, 292163, Note_off_c, 0, 66, 58
1, 292170, Note_off_c, 0, 80, 65
1, 292202, Note_on_c, 0, 65, 83
1, 292203, Note_on_c, 0, 68, 90
1, 292210, Poly_aftertouch_c, 0, 78, 127
1, 292241, Poly_aftertouch_c, 0, 78, 0
1, 292245, Note_off_c, 0, 65, 63
1, 292254, Note_off_c, 0, 68, 61
1, 292262, Poly_aftertouch_c, 0, 66, 0
1, 292269, Control_c, 0, 64, 110
1, 292284, Control_c, 0, 64, 77
1, 292286, Note_on_c, 0, 73, 93
1, 292290, Poly_aftertouch_c, 0, 66, 0
1, 292294, Note_on_c, 0, 69, 86
1, 292299, Control_c, 0, 64, 21
1, 292301, Note_on_c, 0, 74, 92
1, 292304, Note_on_c, 0, 85, 90
1, 292307, Note_on_c, 0, 78, 80
1, 292315, Control_c, 0, 64, 0
1, 292320, Note_off_c, 0, 74, 73
1, 292323, Note_off_c, 0, 85, 68
1, 292324, Note_off_c, 0, 78, 73
1, 292405, Note_on_c, 0, 74, 79
1, 292407, Note_on_c, 0, 85, 70
1, 292414, Note_on_c, 0, 78, 65
1, 292414, Note_on_c, 0, 86, 69
1, 292421, Note_off_c, 0, 74, 70
1, 292432, Note_off_c, 0, 73, 59
1, 292432, Note_off_c, 0, 78, 65
1, 292432, Note_off_c, 0, 86, 65
1, 292450, Note_off_c, 0, 85, 42
1, 292455, Control_c, 0, 64, 59
1, 292470, Control_c, 0, 64, 71
1, 292476, Note_on_c, 0, 83, 79
1, 292479, Note_on_c, 0, 74, 70
1, 292485, Control_c, 0, 64, 83
1, 292496, Note_off_c, 0, 74, 67
1, 292500, Control_c, 0, 64, 108
1, 292503, Note_off_c, 0, 69, 57
1, 292515, Control_c, 0, 64, 127
1, 292531, Note_off_c, 0, 83, 66
1, 292560, Note_on_c, 0, 68, 88
1, 292569, Note_on_c, 0, 71, 74
1, 292590, Note_off_c, 0, 71, 71
1, 292603, Note_off_c, 0, 68, 59
1, 292604, Control_c, 0, 64, 89
1, 292618, Control_c, 0, 64, 66
1, 292633, Control_c, 0, 64, 0
1, 292658, Note_on_c, 0, 97, 104
1, 292663, Note_on_c, 0, 73, 92
1, 292664, Note_on_c, 0, 85, 96
1, 292670, Note_on_c, 0, 61, 81
1, 292674, Note_off_c, 0, 97, 70
1, 292676, Note_off_c, 0, 85, 76
1, 292682, Note_off_c, 0, 73, 72
1, 292691, Note_off_c, 0, 61, 68
1, 292739, Note_on_c, 0, 85, 29
1, 292740, Note_off_c, 0, 85, 127
1, 292855, Control_c, 0, 67, 10
1, 292870, Control_c, 0, 67, 15
1, 292882, Note_on_c, 0, 90, 104
1, 292885, Control_c, 0, 64, 60
1, 292885, Control_c, 0, 67, 19
1, 292888, Note_on_c, 0, 66, 79
1, 292891, Note_on_c, 0, 78, 90
1, 292894, Note_on_c, 0, 54, 73
1, 292900, Control_c, 0, 64, 74
1, 292900, Control_c, 0, 67, 23
1, 292915, Note_off_c, 0, 78, 62
1, 292915, Control_c, 0, 64, 90
1, 292915, Control_c, 0, 67, 25
1, 292921, Note_off_c, 0, 66, 59
1, 292929, Control_c, 0, 64, 127
1, 292929, Control_c, 0, 67, 26
1, 292944, Control_c, 0, 67, 26
1, 292959, Control_c, 0, 67, 27
1, 293004, Control_c, 0, 67, 27
1, 293018, Control_c, 0, 67, 28
1, 293033, Control_c, 0, 67, 29
1, 293048, Control_c, 0, 67, 30
1, 293063, Control_c, 0, 67, 32
1, 293189, Control_c, 0, 67, 32
1, 293191, Note_off_c, 0, 90, 59
1, 293199, Note_off_c, 0, 54, 57
1, 293204, Control_c, 0, 67, 33
1, 293207, Note_on_c, 0, 68, 82
1, 293208, Note_on_c, 0, 92, 88
1, 293218, Note_on_c, 0, 56, 71
1, 293219, Note_on_c, 0, 80, 71
1, 293219, Control_c, 0, 64, 97
1, 293219, Control_c, 0, 67, 34
1, 293228, Note_off_c, 0, 68, 68
1, 293234, Control_c, 0, 64, 63
1, 293234, Control_c, 0, 67, 36
1, 293235, Note_off_c, 0, 80, 67
1, 293244, Note_off_c, 0, 56, 67
1, 293249, Control_c, 0, 64, 0
1, 293249, Control_c, 0, 67, 38
1, 293264, Control_c, 0, 67, 38
1, 293284, Note_on_c, 0, 90, 93
1, 293287, Note_on_c, 0, 78, 83
1, 293288, Note_on_c, 0, 66, 82
1, 293290, Note_on_c, 0, 54, 86
1, 293307, Note_off_c, 0, 66, 71
1, 293308, Control_c, 0, 64, 62
1, 293310, Note_on_c, 0, 80, 27
1, 293311, Note_off_c, 0, 80, 127
1, 293312, Note_off_c, 0, 54, 70
1, 293314, Note_off_c, 0, 78, 60
1, 293314, Note_off_c, 0, 92, 66
1, 293323, Control_c, 0, 64, 77
1, 293329, Note_off_c, 0, 90, 64
1, 293338, Control_c, 0, 64, 104
1, 293353, Control_c, 0, 64, 127
1, 293353, Control_c, 0, 67, 38
1, 293384, Poly_aftertouch_c, 0, 56, 0
1, 293397, Control_c, 0, 67, 38
1, 293412, Control_c, 0, 67, 40
1, 293427, Control_c, 0, 67, 41
1, 293442, Control_c, 0, 67, 44
1, 293457, Control_c, 0, 67, 47
1, 293472, Control_c, 0, 67, 50
1, 293484, Note_on_c, 0, 85, 19
1, 293487, Control_c, 0, 67, 52
1, 293502, Control_c, 0, 67, 55
1, 293516, Control_c, 0, 67, 58
1, 293531, Control_c, 0, 67, 60
1, 293535, Note_off_c, 0, 85, 46
1, 293546, Control_c, 0, 67, 62
1, 293560, Control_c, 0, 67, 63
1, 293575, Control_c, 0, 67, 64
1, 293590, Control_c, 0, 64, 87
1, 293590, Control_c, 0, 67, 65
1, 293605, Control_c, 0, 64, 65
1, 293620, Control_c, 0, 64, 0
1, 293644, Note_on_c, 0, 76, 57
1, 293649, Note_on_c, 0, 97, 76
1, 293679, Control_c, 0, 64, 51
1, 293694, Control_c, 0, 64, 67
1, 293708, Control_c, 0, 64, 82
1, 293708, Control_c, 0, 67, 64
1, 293723, Control_c, 0, 64, 113
1, 293723, Control_c, 0, 67, 64
1, 293734, Note_on_c, 0, 85, 57
1, 293738, Control_c, 0, 64, 127
1, 293738, Control_c, 0, 67, 63
1, 293774, Note_off_c, 0, 97, 57
1, 293798, Note_off_c, 0, 76, 50
1, 293815, Note_on_c, 0, 88, 67
1, 293815, Note_on_c, 0, 90, 64
1, 293851, Note_off_c, 0, 90, 58
1, 293903, Note_off_c, 0, 85, 39
1, 293907, Note_on_c, 0, 82, 62
1, 293925, Control_c, 0, 67, 64
1, 293969, Note_off_c, 0, 82, 58
1, 293969, Control_c, 0, 67, 64
1, 293972, Note_on_c, 0, 97, 76
1, 293981, Note_on_c, 0, 76, 63
1, 293998, Note_off_c, 0, 97, 63
1, 294014, Note_off_c, 0, 88, 57
1, 294043, Note_on_c, 0, 85, 55
1, 294073, Note_off_c, 0, 76, 55
1, 294105, Note_on_c, 0, 90, 84
1, 294119, Note_on_c, 0, 88, 75
1, 294148, Note_off_c, 0, 90, 62
1, 294152, Note_off_c, 0, 85, 58
1, 294178, Note_on_c, 0, 82, 71
1, 294244, Note_off_c, 0, 82, 61
1, 294246, Note_on_c, 0, 97, 87
1, 294256, Note_on_c, 0, 76, 63
1, 294277, Note_off_c, 0, 88, 58
1, 294288, Note_off_c, 0, 97, 63
1, 294294, Control_c, 0, 67, 64
1, 294295, Note_on_c, 0, 85, 57
1, 294323, Control_c, 0, 67, 63
1, 294360, Note_off_c, 0, 76, 56
1, 294392, Note_on_c, 0, 88, 68
1, 294405, Note_on_c, 0, 90, 77
1, 294444, Note_off_c, 0, 85, 49
1, 294462, Note_on_c, 0, 82, 71
1, 294471, Control_c, 0, 67, 64
1, 294500, Control_c, 0, 67, 64
1, 294518, Note_off_c, 0, 82, 61
1, 294545, Note_off_c, 0, 90, 61
1, 294545, Control_c, 0, 67, 65
1, 294546, Note_on_c, 0, 76, 61
1, 294560, Note_off_c, 0, 88, 58
1, 294590, Control_c, 0, 67, 65
1, 294596, Note_on_c, 0, 92, 73
1, 294609, Note_on_c, 0, 85, 68
1, 294620, Control_c, 0, 67, 66
1, 294667, Note_on_c, 0, 90, 82
1, 294676, Note_off_c, 0, 92, 65
1, 294677, Note_on_c, 0, 88, 69
1, 294684, Note_off_c, 0, 76, 37
1, 294686, Note_off_c, 0, 90, 73
1, 294686, Control_c, 0, 67, 66
1, 294701, Control_c, 0, 67, 67
1, 294717, Control_c, 0, 67, 69
1, 294724, Note_off_c, 0, 85, 59
1, 294732, Control_c, 0, 67, 70
1, 294744, Note_on_c, 0, 82, 69
1, 294746, Control_c, 0, 67, 71
1, 294802, Note_off_c, 0, 82, 59
1, 294847, Note_on_c, 0, 61, 77
1, 294850, Control_c, 0, 67, 70
1, 294853, Note_on_c, 0, 73, 66
1, 294854, Note_on_c, 0, 76, 65
1, 294865, Control_c, 0, 67, 69
1, 294872, Note_off_c, 0, 61, 67
1, 294872, Note_off_c, 0, 73, 66
1, 294876, Note_off_c, 0, 88, 58
1, 294913, Note_on_c, 0, 85, 61
1, 294927, Note_off_c, 0, 76, 54
1, 294939, Control_c, 0, 67, 70
1, 294953, Control_c, 0, 67, 70
1, 294983, Note_on_c, 0, 66, 75
1, 294983, Control_c, 0, 67, 71
1, 294989, Note_on_c, 0, 54, 75
1, 295004, Note_on_c, 0, 88, 67
1, 295004, Note_off_c, 0, 66, 70
1, 295012, Note_off_c, 0, 54, 68
1, 295055, Note_off_c, 0, 85, 52
1, 295100, Note_on_c, 0, 82, 66
1, 295129, Note_on_c, 0, 73, 85
1, 295138, Note_on_c, 0, 61, 75
1, 295138, Note_on_c, 0, 66, 71
1, 295145, Note_off_c, 0, 82, 54
1, 295146, Control_c, 0, 67, 71
1, 295149, Note_off_c, 0, 73, 72
1, 295155, Note_off_c, 0, 66, 67
1, 295161, Control_c, 0, 67, 72
1, 295165, Note_off_c, 0, 61, 64
1, 295170, Note_on_c, 0, 76, 64
1, 295191, Control_c, 0, 67, 72
1, 295192, Note_off_c, 0, 88, 59
1, 295234, Note_on_c, 0, 85, 66
1, 295241, Note_off_c, 0, 76, 58
1, 295250, Control_c, 0, 67, 73
1, 295265, Note_on_c, 0, 66, 74
1, 295275, Note_on_c, 0, 54, 83
1, 295287, Note_off_c, 0, 66, 68
1, 295296, Note_off_c, 0, 54, 68
1, 295305, Note_on_c, 0, 88, 72
1, 295350, Note_off_c, 0, 85, 61
1, 295366, Note_on_c, 0, 82, 72
1, 295368, Control_c, 0, 67, 73
1, 295401, Poly_aftertouch_c, 0, 54, 127
1, 295420, Control_c, 0, 67, 74
1, 295427, Note_on_c, 0, 73, 81
1, 295434, Note_off_c, 0, 82, 61
1, 295436, Note_on_c, 0, 61, 72
1, 295442, Poly_aftertouch_c, 0, 54, 0
1, 295448, Note_off_c, 0, 73, 71
1, 295450, Control_c, 0, 67, 74
1, 295451, Note_on_c, 0, 76, 69
1, 295452, Note_on_c, 0, 66, 40
1, 295463, Note_off_c, 0, 61, 65
1, 295480, Note_off_c, 0, 66, 60
1, 295494, Control_c, 0, 67, 75
1, 295498, Note_off_c, 0, 88, 58
1, 295520, Note_on_c, 0, 85, 66
1, 295594, Note_on_c, 0, 66, 65
1, 295597, Note_off_c, 0, 76, 40
1, 295599, Control_c, 0, 64, 81
1, 295612, Note_on_c, 0, 54, 64
1, 295613, Note_on_c, 0, 88, 64
1, 295614, Control_c, 0, 64, 30
1, 295628, Control_c, 0, 64, 0
1, 295643, Control_c, 0, 64, 27
1, 295658, Control_c, 0, 64, 64
1, 295660, Note_off_c, 0, 85, 56
1, 295673, Control_c, 0, 64, 70
1, 295673, Control_c, 0, 67, 74
1, 295688, Control_c, 0, 64, 79
1, 295692, Note_on_c, 0, 82, 64
1, 295699, Note_off_c, 0, 66, 60
1, 295703, Control_c, 0, 64, 96
1, 295703, Control_c, 0, 67, 74
1, 295717, Control_c, 0, 64, 127
1, 295732, Control_c, 0, 67, 73
1, 295764, Note_off_c, 0, 82, 55
1, 295767, Note_on_c, 0, 76, 66
1, 295774, Note_off_c, 0, 88, 59
1, 295795, Note_off_c, 0, 54, 58
1, 295807, Note_on_c, 0, 68, 67
1, 295825, Note_on_c, 0, 56, 48
1, 295833, Note_off_c, 0, 68, 66
1, 295836, Control_c, 0, 64, 102
1, 295839, Note_on_c, 0, 85, 46
1, 295851, Control_c, 0, 64, 76
1, 295851, Note_off_c, 0, 56, 59
1, 295866, Control_c, 0, 64, 58
1, 295881, Control_c, 0, 64, 51
1, 295890, Note_on_c, 0, 54, 70
1, 295892, Note_on_c, 0, 66, 65
1, 295895, Control_c, 0, 64, 65
1, 295904, Note_on_c, 0, 88, 63
1, 295910, Control_c, 0, 64, 72
1, 295911, Note_off_c, 0, 66, 65
1, 295912, Note_off_c, 0, 54, 68
1, 295925, Control_c, 0, 64, 81
1, 295940, Control_c, 0, 64, 95
1, 295940, Note_off_c, 0, 88, 58
1, 295946, Note_off_c, 0, 85, 62
1, 295954, Control_c, 0, 64, 123
1, 295969, Control_c, 0, 64, 127
1, 295971, Note_off_c, 0, 76, 38
1, 295985, Note_on_c, 0, 82, 14
1, 296028, Control_c, 0, 67, 74
1, 296030, Note_off_c, 0, 82, 49
1, 296043, Control_c, 0, 67, 74
1, 296058, Control_c, 0, 67, 75
1, 296072, Control_c, 0, 67, 75
1, 296087, Control_c, 0, 67, 76
1, 296103, Note_on_c, 0, 90, 90
1, 296117, Control_c, 0, 64, 114
1, 296118, Note_on_c, 0, 71, 44
1, 296137, Note_on_c, 0, 69, 56
1, 296140, Control_c, 0, 64, 87
1, 296140, Control_c, 0, 67, 75
1, 296154, Control_c, 0, 64, 70
1, 296154, Control_c, 0, 67, 74
1, 296169, Control_c, 0, 64, 59
1, 296169, Control_c, 0, 67, 73
1, 296184, Control_c, 0, 64, 60
1, 296184, Control_c, 0, 67, 72
1, 296185, Note_on_c, 0, 78, 33
1, 296199, Control_c, 0, 64, 67
1, 296199, Control_c, 0, 67, 70
1, 296214, Control_c, 0, 64, 75
1, 296214, Control_c, 0, 67, 69
1, 296228, Control_c, 0, 64, 87
1, 296228, Control_c, 0, 67, 67
1, 296243, Control_c, 0, 64, 110
1, 296243, Control_c, 0, 67, 65
1, 296253, Note_off_c, 0, 90, 62
1, 296256, Note_on_c, 0, 81, 75
1, 296258, Control_c, 0, 64, 127
1, 296258, Control_c, 0, 67, 63
1, 296273, Control_c, 0, 67, 60
1, 296274, Note_on_c, 0, 83, 75
1, 296274, Note_off_c, 0, 69, 49
1, 296277, Note_off_c, 0, 71, 56
1, 296287, Control_c, 0, 67, 57
1, 296300, Note_off_c, 0, 78, 43
1, 296304, Control_c, 0, 67, 56
1, 296319, Note_off_c, 0, 83, 63
1, 296319, Control_c, 0, 67, 55
1, 296333, Control_c, 0, 67, 56
1, 296339, Note_on_c, 0, 75, 62
1, 296348, Control_c, 0, 67, 56
1, 296363, Control_c, 0, 67, 57
1, 296377, Control_c, 0, 67, 57
1, 296392, Control_c, 0, 67, 58
1, 296411, Note_off_c, 0, 75, 58
1, 296417, Note_on_c, 0, 90, 95
1, 296422, Control_c, 0, 67, 58
1, 296427, Note_on_c, 0, 69, 67
1, 296428, Note_on_c, 0, 71, 55
1, 296437, Control_c, 0, 67, 59
1, 296456, Note_off_c, 0, 81, 59
1, 296476, Note_off_c, 0, 90, 65
1, 296480, Note_on_c, 0, 78, 70
1, 296481, Control_c, 0, 67, 58
1, 296496, Control_c, 0, 67, 58
1, 296525, Control_c, 0, 64, 98
1, 296540, Control_c, 0, 64, 79
1, 296540, Control_c, 0, 67, 57
1, 296554, Note_on_c, 0, 83, 89
1, 296555, Control_c, 0, 64, 68
1, 296560, Note_on_c, 0, 81, 76
1, 296570, Control_c, 0, 64, 71
1, 296572, Note_off_c, 0, 69, 56
1, 296579, Note_off_c, 0, 71, 58
1, 296584, Control_c, 0, 64, 79
1, 296599, Control_c, 0, 64, 88
1, 296603, Note_off_c, 0, 83, 64
1, 296608, Note_off_c, 0, 78, 49
1, 296614, Control_c, 0, 64, 101
1, 296618, Note_on_c, 0, 75, 71
1, 296629, Control_c, 0, 64, 127
1, 296644, Control_c, 0, 67, 58
1, 296673, Control_c, 0, 67, 58
1, 296692, Note_off_c, 0, 75, 60
1, 296700, Note_on_c, 0, 71, 51
1, 296701, Note_on_c, 0, 90, 95
1, 296703, Note_on_c, 0, 69, 68
1, 296703, Control_c, 0, 67, 59
1, 296718, Control_c, 0, 67, 59
1, 296724, Note_off_c, 0, 81, 58
1, 296740, Note_on_c, 0, 78, 59
1, 296751, Note_off_c, 0, 90, 65
1, 296818, Note_off_c, 0, 69, 50
1, 296837, Control_c, 0, 64, 98
1, 296838, Note_on_c, 0, 81, 70
1, 296846, Note_off_c, 0, 71, 38
1, 296846, Note_on_c, 0, 83, 88
1, 296851, Control_c, 0, 64, 72
1, 296866, Control_c, 0, 64, 49
1, 296888, Control_c, 0, 64, 58
1, 296903, Control_c, 0, 64, 67
1, 296903, Control_c, 0, 67, 59
1, 296907, Note_off_c, 0, 78, 48
1, 296912, Note_on_c, 0, 75, 59
1, 296918, Control_c, 0, 64, 73
1, 296933, Control_c, 0, 64, 80
1, 296933, Control_c, 0, 67, 58
1, 296948, Control_c, 0, 64, 93
1, 296963, Control_c, 0, 64, 118
1, 296975, Note_off_c, 0, 75, 59
1, 296978, Control_c, 0, 64, 127
1, 296989, Note_on_c, 0, 71, 39
1, 296992, Note_on_c, 0, 69, 54
1, 297027, Note_off_c, 0, 81, 55
1, 297028, Note_off_c, 0, 83, 62
1, 297046, Note_on_c, 0, 78, 64
1, 297067, Control_c, 0, 67, 58
1, 297067, Note_on_c, 0, 85, 72
1, 297112, Control_c, 0, 67, 57
1, 297127, Note_on_c, 0, 81, 75
1, 297129, Note_on_c, 0, 83, 79
1, 297140, Note_off_c, 0, 69, 48
1, 297140, Note_off_c, 0, 85, 63
1, 297148, Note_off_c, 0, 83, 71
1, 297156, Control_c, 0, 67, 58
1, 297175, Note_off_c, 0, 71, 39
1, 297201, Control_c, 0, 67, 58
1, 297203, Note_off_c, 0, 78, 37
1, 297213, Note_on_c, 0, 75, 64
1, 297275, Control_c, 0, 67, 59
1, 297280, Note_off_c, 0, 75, 60
1, 297284, Note_on_c, 0, 58, 87
1, 297290, Control_c, 0, 67, 59
1, 297303, Note_off_c, 0, 58, 72
1, 297305, Note_on_c, 0, 54, 55
1, 297316, Note_on_c, 0, 71, 47
1, 297318, Note_on_c, 0, 69, 59
1, 297320, Control_c, 0, 67, 60
1, 297330, Note_off_c, 0, 54, 62
1, 297344, Note_off_c, 0, 81, 57
1, 297376, Note_on_c, 0, 78, 62
1, 297383, Note_off_c, 0, 69, 52
1, 297391, Note_off_c, 0, 71, 53
1, 297408, Control_c, 0, 64, 91
1, 297423, Control_c, 0, 64, 71
1, 297423, Control_c, 0, 67, 59
1, 297438, Control_c, 0, 64, 70
1, 297439, Note_on_c, 0, 59, 76
1, 297443, Note_on_c, 0, 47, 73
1, 297449, Note_on_c, 0, 81, 73
1, 297453, Control_c, 0, 64, 79
1, 297453, Control_c, 0, 67, 58
1, 297460, Note_off_c, 0, 59, 68
1, 297468, Note_off_c, 0, 47, 65
1, 297468, Control_c, 0, 64, 90
1, 297468, Control_c, 0, 67, 57
1, 297482, Control_c, 0, 64, 119
1, 297497, Control_c, 0, 64, 127
1, 297512, Control_c, 0, 67, 58
1, 297537, Note_on_c, 0, 75, 69
1, 297541, Control_c, 0, 67, 58
1, 297542, Note_off_c, 0, 78, 53
1, 297571, Control_c, 0, 67, 59
1, 297586, Note_on_c, 0, 66, 77
1, 297586, Control_c, 0, 64, 108
1, 297586, Control_c, 0, 67, 60
1, 297588, Note_on_c, 0, 54, 77
1, 297590, Note_on_c, 0, 59, 56
1, 297601, Note_off_c, 0, 75, 59
1, 297601, Control_c, 0, 64, 81
1, 297606, Note_off_c, 0, 66, 70
1, 297608, Note_off_c, 0, 59, 64
1, 297612, Note_off_c, 0, 54, 69
1, 297615, Control_c, 0, 64, 77
1, 297636, Note_on_c, 0, 69, 53
1, 297638, Control_c, 0, 64, 85
1, 297645, Note_on_c, 0, 71, 49
1, 297653, Control_c, 0, 64, 103
1, 297653, Control_c, 0, 67, 59
1, 297654, Note_off_c, 0, 81, 58
1, 297667, Control_c, 0, 64, 127
1, 297674, Note_on_c, 0, 78, 67
1, 297697, Control_c, 0, 67, 58
1, 297712, Note_off_c, 0, 71, 48
1, 297712, Control_c, 0, 67, 57
1, 297727, Control_c, 0, 67, 56
1, 297738, Note_on_c, 0, 59, 54
1, 297741, Control_c, 0, 64, 93
1, 297741, Control_c, 0, 67, 55
1, 297748, Note_off_c, 0, 69, 33
1, 297752, Note_on_c, 0, 47, 81
1, 297756, Control_c, 0, 64, 75
1, 297756, Control_c, 0, 67, 54
1, 297766, Note_on_c, 0, 81, 65
1, 297771, Control_c, 0, 64, 73
1, 297771, Control_c, 0, 67, 54
1, 297775, Note_off_c, 0, 47, 68
1, 297778, Note_off_c, 0, 59, 62
1, 297786, Control_c, 0, 64, 82
1, 297786, Control_c, 0, 67, 53
1, 297800, Control_c, 0, 64, 101
1, 297815, Control_c, 0, 64, 127
1, 297815, Control_c, 0, 67, 54
1, 297818, Note_off_c, 0, 78, 53
1, 297825, Note_on_c, 0, 75, 70
1, 297830, Control_c, 0, 67, 55
1, 297845, Control_c, 0, 67, 56
1, 297860, Control_c, 0, 67, 56
1, 297890, Control_c, 0, 67, 57
1, 297892, Note_off_c, 0, 75, 59
1, 297908, Note_on_c, 0, 66, 73
1, 297918, Note_on_c, 0, 54, 66
1, 297926, Note_on_c, 0, 71, 46
1, 297927, Note_on_c, 0, 69, 50
1, 297930, Note_off_c, 0, 66, 69
1, 297935, Control_c, 0, 67, 57
1, 297939, Note_off_c, 0, 81, 56
1, 297940, Note_off_c, 0, 54, 68
1, 297964, Control_c, 0, 67, 57
1, 297967, Note_on_c, 0, 78, 73
1, 297994, Control_c, 0, 67, 56
1, 298009, Control_c, 0, 67, 56
1, 298021, Note_off_c, 0, 69, 35
1, 298024, Control_c, 0, 67, 55
1, 298040, Note_off_c, 0, 71, 32
1, 298069, Control_c, 0, 64, 103
1, 298069, Control_c, 0, 67, 55
1, 298073, Note_on_c, 0, 59, 69
1, 298077, Poly_aftertouch_c, 0, 54, 0
1, 298080, Note_on_c, 0, 47, 66
1, 298083, Note_on_c, 0, 81, 58
1, 298083, Control_c, 0, 64, 72
1, 298098, Control_c, 0, 64, 48
1, 298113, Control_c, 0, 64, 56
1, 298114, Note_on_c, 0, 75, 64
1, 298122, Note_off_c, 0, 78, 53
1, 298128, Note_off_c, 0, 59, 52
1, 298128, Control_c, 0, 64, 66
1, 298128, Control_c, 0, 67, 54
1, 298143, Control_c, 0, 64, 73
1, 298157, Control_c, 0, 64, 81
1, 298172, Control_c, 0, 64, 100
1, 298172, Control_c, 0, 67, 55
1, 298187, Control_c, 0, 64, 127
1, 298187, Control_c, 0, 67, 56
1, 298202, Control_c, 0, 67, 56
1, 298205, Note_off_c, 0, 75, 55
1, 298225, Note_on_c, 0, 69, 50
1, 298225, Note_on_c, 0, 71, 51
1, 298231, Control_c, 0, 67, 57
1, 298261, Control_c, 0, 67, 57
1, 298275, Control_c, 0, 67, 58
1, 298277, Note_off_c, 0, 81, 62
1, 298280, Note_on_c, 0, 61, 67
1, 298289, Note_off_c, 0, 47, 50
1, 298290, Control_c, 0, 67, 58
1, 298293, Note_on_c, 0, 78, 62
1, 298296, Note_on_c, 0, 49, 55
1, 298316, Note_off_c, 0, 61, 63
1, 298320, Control_c, 0, 67, 59
1, 298349, Control_c, 0, 64, 91
1, 298351, Note_off_c, 0, 49, 56
1, 298364, Control_c, 0, 64, 64
1, 298387, Control_c, 0, 64, 0
1, 298387, Control_c, 0, 67, 58
1, 298396, Note_on_c, 0, 59, 66
1, 298398, Note_on_c, 0, 47, 65
1, 298402, Control_c, 0, 67, 58
1, 298404, Note_on_c, 0, 81, 64
1, 298417, Control_c, 0, 64, 55
1, 298417, Control_c, 0, 67, 57
1, 298420, Note_off_c, 0, 59, 67
1, 298424, Note_off_c, 0, 47, 67
1, 298431, Control_c, 0, 64, 71
1, 298431, Control_c, 0, 67, 57
1, 298446, Control_c, 0, 64, 86
1, 298461, Control_c, 0, 64, 127
1, 298461, Control_c, 0, 67, 56
1, 298467, Note_off_c, 0, 69, 46
1, 298475, Control_c, 0, 67, 55
1, 298480, Note_off_c, 0, 71, 40
1, 298489, Control_c, 0, 67, 55
1, 298502, Note_on_c, 0, 75, 56
1, 298504, Control_c, 0, 67, 54
1, 298515, Note_off_c, 0, 78, 35
1, 298534, Control_c, 0, 67, 54
1, 298563, Control_c, 0, 67, 54
1, 298568, Note_off_c, 0, 75, 56
1, 298593, Control_c, 0, 67, 55
1, 298608, Control_c, 0, 67, 55
1, 298620, Note_on_c, 0, 69, 71
1, 298629, Note_off_c, 0, 81, 44
1, 298631, Note_on_c, 0, 71, 59
1, 298653, Control_c, 0, 64, 102
1, 298668, Control_c, 0, 64, 76
1, 298682, Control_c, 0, 64, 64
1, 298698, Control_c, 0, 64, 68
1, 298708, Note_on_c, 0, 78, 58
1, 298713, Control_c, 0, 64, 77
1, 298713, Control_c, 0, 67, 54
1, 298727, Control_c, 0, 64, 91
1, 298727, Control_c, 0, 67, 54
1, 298734, Note_off_c, 0, 69, 62
1, 298742, Control_c, 0, 64, 127
1, 298742, Control_c, 0, 67, 53
1, 298757, Control_c, 0, 67, 53
1, 298772, Control_c, 0, 67, 52
1, 298779, Note_off_c, 0, 71, 50
1, 298787, Control_c, 0, 67, 50
1, 298793, Note_on_c, 0, 83, 70
1, 298802, Control_c, 0, 67, 45
1, 298806, Note_on_c, 0, 52, 56
1, 298817, Control_c, 0, 67, 37
1, 298831, Note_off_c, 0, 78, 52
1, 298832, Note_off_c, 0, 52, 59
1, 298832, Control_c, 0, 67, 29
1, 298846, Control_c, 0, 67, 20
1, 298861, Control_c, 0, 67, 11
1, 298863, Note_on_c, 0, 76, 60
1, 298876, Control_c, 0, 67, 0
1, 298884, Note_off_c, 0, 83, 57
1, 298923, Note_off_c, 0, 76, 60
1, 298946, Note_on_c, 0, 71, 65
1, 298951, Note_on_c, 0, 68, 85
1, 299025, Note_on_c, 0, 76, 70
1, 299039, Control_c, 0, 64, 87
1, 299053, Control_c, 0, 64, 65
1, 299068, Control_c, 0, 64, 0
1, 299083, Control_c, 0, 64, 47
1, 299088, Note_on_c, 0, 83, 74
1, 299097, Control_c, 0, 64, 67
1, 299101, Note_on_c, 0, 54, 77
1, 299102, Note_off_c, 0, 76, 55
1, 299112, Control_c, 0, 64, 77
1, 299130, Note_off_c, 0, 71, 55
1, 299135, Control_c, 0, 64, 103
1, 299150, Note_off_c, 0, 68, 59
1, 299150, Control_c, 0, 64, 127
1, 299176, Note_on_c, 0, 75, 75
1, 299233, Note_off_c, 0, 75, 61
1, 299234, Note_off_c, 0, 54, 65
1, 299247, Note_on_c, 0, 71, 72
1, 299257, Note_on_c, 0, 66, 90
1, 299323, Note_off_c, 0, 83, 62
1, 299330, Note_on_c, 0, 75, 73
1, 299372, Note_off_c, 0, 71, 58
1, 299401, Control_c, 0, 64, 109
1, 299402, Note_off_c, 0, 75, 62
1, 299410, Note_on_c, 0, 56, 73
1, 299412, Note_on_c, 0, 83, 78
1, 299416, Control_c, 0, 64, 70
1, 299431, Control_c, 0, 64, 0
1, 299476, Control_c, 0, 64, 53
1, 299490, Control_c, 0, 64, 67
1, 299500, Note_on_c, 0, 74, 73
1, 299506, Control_c, 0, 64, 83
1, 299518, Note_off_c, 0, 83, 54
1, 299520, Control_c, 0, 64, 127
1, 299541, Note_off_c, 0, 74, 63
1, 299552, Note_on_c, 0, 71, 71
1, 299555, Note_off_c, 0, 66, 58
1, 299565, Note_on_c, 0, 65, 82
1, 299627, Note_off_c, 0, 71, 60
1, 299631, Note_on_c, 0, 74, 71
1, 299660, Note_off_c, 0, 74, 65
1, 299679, Note_on_c, 0, 83, 73
1, 299711, Note_on_c, 0, 61, 86
1, 299731, Note_off_c, 0, 83, 63
1, 299732, Note_off_c, 0, 56, 64
1, 299762, Note_on_c, 0, 73, 78
1, 299786, Note_off_c, 0, 73, 69
1, 299843, Note_on_c, 0, 71, 100
1, 299859, Note_on_c, 0, 73, 78
1, 299898, Note_off_c, 0, 65, 58
1, 299916, Note_off_c, 0, 71, 68
1, 299928, Note_on_c, 0, 80, 75
1, 299954, Note_off_c, 0, 73, 59
1, 299973, Control_c, 0, 64, 86
1, 299988, Control_c, 0, 64, 65
1, 300000, Note_on_c, 0, 54, 84
1, 300003, Control_c, 0, 64, 66
1, 300015, Note_on_c, 0, 85, 78
1, 300018, Control_c, 0, 64, 76
1, 300033, Control_c, 0, 64, 92
1, 300048, Control_c, 0, 64, 127
1, 300078, Note_off_c, 0, 54, 67
1, 300084, Note_on_c, 0, 78, 72
1, 300086, Note_off_c, 0, 80, 61
1, 300091, Poly_aftertouch_c, 0, 56, 127
1, 300125, Poly_aftertouch_c, 0, 56, 0
1, 300133, Note_off_c, 0, 85, 58
1, 300155, Note_off_c, 0, 78, 61
1, 300163, Note_on_c, 0, 70, 92
1, 300164, Note_on_c, 0, 73, 82
1, 300252, Note_on_c, 0, 78, 76
1, 300288, Note_off_c, 0, 73, 58
1, 300292, Note_off_c, 0, 70, 58
1, 300300, Control_c, 0, 64, 83
1, 300315, Control_c, 0, 64, 63
1, 300319, Note_on_c, 0, 85, 79
1, 300321, Note_on_c, 0, 56, 82
1, 300330, Control_c, 0, 64, 49
1, 300345, Control_c, 0, 64, 65
1, 300359, Control_c, 0, 64, 76
1, 300374, Control_c, 0, 64, 90
1, 300389, Control_c, 0, 64, 127
1, 300391, Note_on_c, 0, 77, 72
1, 300406, Note_off_c, 0, 56, 62
1, 300462, Note_on_c, 0, 68, 93
1, 300465, Note_on_c, 0, 73, 80
1, 300465, Note_off_c, 0, 77, 62
1, 300474, Note_off_c, 0, 78, 42
1, 300486, Note_off_c, 0, 61, 59
1, 300543, Note_on_c, 0, 77, 75
1, 300549, Note_off_c, 0, 85, 62
1, 300626, Note_off_c, 0, 77, 63
1, 300634, Note_on_c, 0, 85, 80
1, 300635, Note_on_c, 0, 58, 83
1, 300648, Control_c, 0, 64, 90
1, 300663, Control_c, 0, 64, 54
1, 300664, Note_off_c, 0, 73, 59
1, 300677, Control_c, 0, 64, 0
1, 300707, Control_c, 0, 64, 47
1, 300718, Note_on_c, 0, 76, 71
1, 300722, Control_c, 0, 64, 66
1, 300737, Control_c, 0, 64, 79
1, 300751, Control_c, 0, 64, 106
1, 300766, Control_c, 0, 64, 127
1, 300771, Note_off_c, 0, 76, 61
1, 300782, Note_on_c, 0, 73, 80
1, 300787, Note_on_c, 0, 67, 92
1, 300820, Note_off_c, 0, 68, 57
1, 300852, Note_off_c, 0, 85, 61
1, 300868, Note_on_c, 0, 76, 69
1, 300898, Note_off_c, 0, 73, 59
1, 300924, Note_off_c, 0, 76, 62
1, 300937, Note_on_c, 0, 63, 89
1, 300938, Note_on_c, 0, 85, 87
1, 300955, Note_off_c, 0, 58, 59
1, 301009, Note_on_c, 0, 75, 85
1, 301039, Note_off_c, 0, 75, 62
1, 301049, Note_off_c, 0, 67, 60
1, 301058, Note_off_c, 0, 85, 61
1, 301089, Note_on_c, 0, 73, 99
1, 301091, Note_on_c, 0, 75, 78
1, 301175, Note_on_c, 0, 82, 84
1, 301189, Note_off_c, 0, 73, 63
1, 301252, Note_off_c, 0, 75, 39
1, 301256, Control_c, 0, 64, 94
1, 301264, Note_on_c, 0, 87, 85
1, 301271, Control_c, 0, 64, 70
1, 301279, Note_on_c, 0, 56, 84
1, 301286, Control_c, 0, 64, 65
1, 301300, Control_c, 0, 64, 73
1, 301315, Control_c, 0, 64, 88
1, 301330, Control_c, 0, 64, 119
1, 301345, Control_c, 0, 64, 127
1, 301351, Note_on_c, 0, 80, 78
1, 301371, Note_off_c, 0, 82, 56
1, 301371, Poly_aftertouch_c, 0, 58, 127
1, 301387, Note_off_c, 0, 56, 65
1, 301407, Poly_aftertouch_c, 0, 58, 0
1, 301414, Note_off_c, 0, 87, 60
1, 301434, Note_off_c, 0, 80, 61
1, 301439, Note_on_c, 0, 75, 81
1, 301443, Note_on_c, 0, 71, 95
1, 301523, Note_on_c, 0, 80, 83
1, 301559, Note_off_c, 0, 75, 58
1, 301589, Control_c, 0, 64, 96
1, 301596, Note_on_c, 0, 58, 97
1, 301603, Note_on_c, 0, 87, 86
1, 301604, Control_c, 0, 64, 63
1, 301619, Control_c, 0, 64, 0
1, 301628, Note_off_c, 0, 71, 61
1, 301630, Note_off_c, 0, 80, 61
1, 301634, Control_c, 0, 64, 60
1, 301649, Control_c, 0, 64, 73
1, 301664, Control_c, 0, 64, 89
1, 301668, Note_on_c, 0, 79, 76
1, 301678, Control_c, 0, 64, 127
1, 301706, Note_off_c, 0, 58, 66
1, 301752, Note_on_c, 0, 70, 100
1, 301755, Note_off_c, 0, 79, 63
1, 301757, Note_on_c, 0, 75, 80
1, 301786, Note_off_c, 0, 63, 63
1, 301841, Note_on_c, 0, 79, 84
1, 301849, Note_off_c, 0, 87, 64
1, 301908, Note_off_c, 0, 79, 63
1, 301924, Note_on_c, 0, 59, 86
1, 301932, Note_on_c, 0, 87, 95
1, 301946, Control_c, 0, 64, 76
1, 301961, Control_c, 0, 64, 0
1, 301990, Control_c, 0, 64, 64
1, 302005, Control_c, 0, 64, 74
1, 302008, Note_on_c, 0, 78, 86
1, 302014, Note_off_c, 0, 75, 63
1, 302020, Control_c, 0, 64, 89
1, 302025, Note_off_c, 0, 70, 58
1, 302035, Control_c, 0, 64, 127
1, 302092, Note_off_c, 0, 78, 62
1, 302097, Note_on_c, 0, 75, 88
1, 302101, Note_on_c, 0, 69, 97
1, 302189, Note_on_c, 0, 78, 89
1, 302214, Note_off_c, 0, 87, 61
1, 302304, Note_on_c, 0, 87, 98
1, 302307, Control_c, 0, 64, 84
1, 302313, Note_on_c, 0, 65, 83
1, 302316, Note_off_c, 0, 78, 57
1, 302322, Control_c, 0, 64, 0
1, 302339, Note_off_c, 0, 75, 65
1, 302352, Control_c, 0, 64, 31
1, 302367, Control_c, 0, 64, 68
1, 302382, Control_c, 0, 64, 79
1, 302396, Control_c, 0, 64, 100
1, 302406, Note_on_c, 0, 77, 89
1, 302411, Control_c, 0, 64, 127
1, 302412, Note_on_c, 0, 78, 54
1, 302419, Note_off_c, 0, 69, 58
1, 302474, Note_off_c, 0, 78, 38
1, 302475, Note_off_c, 0, 77, 65
1, 302509, Note_off_c, 0, 87, 64
1, 302511, Note_off_c, 0, 59, 56
1, 302518, Note_on_c, 0, 71, 95
1, 302522, Note_on_c, 0, 68, 85
1, 302522, Note_on_c, 0, 75, 87
1, 302623, Note_on_c, 0, 87, 104
1, 302631, Note_on_c, 0, 83, 89
1, 302685, Note_on_c, 0, 85, 20
1, 302725, Note_off_c, 0, 85, 47
1, 302732, Note_off_c, 0, 87, 63
1, 302737, Note_off_c, 0, 83, 62
1, 302759, Note_off_c, 0, 68, 52
1, 302782, Control_c, 0, 64, 107
1, 302797, Control_c, 0, 64, 74
1, 302803, Note_on_c, 0, 87, 99
1, 302807, Note_on_c, 0, 83, 94
1, 302810, Note_on_c, 0, 58, 84
1, 302811, Control_c, 0, 64, 0
1, 302841, Control_c, 0, 64, 64
1, 302847, Note_off_c, 0, 75, 64
1, 302856, Control_c, 0, 64, 79
1, 302878, Control_c, 0, 64, 114
1, 302893, Control_c, 0, 64, 127
1, 302919, Note_off_c, 0, 71, 60
1, 302957, Note_on_c, 0, 75, 86
1, 303005, Note_off_c, 0, 83, 56
1, 303023, Note_off_c, 0, 75, 63
1, 303042, Note_off_c, 0, 87, 63
1, 303082, Note_on_c, 0, 70, 87
1, 303085, Note_on_c, 0, 68, 73
1, 303085, Note_on_c, 0, 74, 97
1, 303141, Note_off_c, 0, 58, 39
1, 303154, Note_on_c, 0, 86, 90
1, 303155, Note_on_c, 0, 82, 94
1, 303168, Note_off_c, 0, 74, 63
1, 303195, Note_off_c, 0, 82, 67
1, 303196, Note_off_c, 0, 86, 67
1, 303205, Control_c, 0, 64, 102
1, 303220, Control_c, 0, 64, 69
1, 303234, Control_c, 0, 64, 61
1, 303242, Note_on_c, 0, 86, 95
1, 303244, Note_on_c, 0, 58, 83
1, 303247, Note_on_c, 0, 82, 96
1, 303249, Control_c, 0, 64, 70
1, 303264, Control_c, 0, 64, 87
1, 303279, Control_c, 0, 64, 127
1, 303280, Note_off_c, 0, 70, 59
1, 303281, Note_off_c, 0, 68, 61
1, 303282, Note_off_c, 0, 65, 60
1, 303302, Note_off_c, 0, 58, 68
1, 303339, Note_on_c, 0, 74, 65
1, 303357, Note_off_c, 0, 86, 65
1, 303369, Note_off_c, 0, 74, 69
1, 303381, Note_off_c, 0, 82, 61
1, 303437, Note_on_c, 0, 74, 90
1, 303443, Note_on_c, 0, 70, 85
1, 303446, Note_on_c, 0, 80, 92
1, 303496, Note_off_c, 0, 74, 63
1, 303504, Note_on_c, 0, 92, 79
1, 303514, Note_off_c, 0, 80, 63
1, 303523, Note_off_c, 0, 70, 62
1, 303538, Note_on_c, 0, 89, 46
1, 303550, Note_off_c, 0, 92, 66
1, 303553, Note_on_c, 0, 88, 17
1, 303561, Control_c, 0, 64, 120
1, 303562, Note_off_c, 0, 89, 56
1, 303576, Control_c, 0, 64, 79
1, 303587, Note_on_c, 0, 92, 83
1, 303590, Note_off_c, 0, 88, 48
1, 303591, Note_on_c, 0, 58, 81
1, 303591, Control_c, 0, 64, 67
1, 303592, Note_on_c, 0, 89, 95
1, 303606, Control_c, 0, 64, 78
1, 303628, Control_c, 0, 64, 108
1, 303634, Note_off_c, 0, 58, 64
1, 303643, Control_c, 0, 64, 127
1, 303666, Note_on_c, 0, 80, 80
1, 303666, Note_off_c, 0, 89, 64
1, 303678, Note_off_c, 0, 92, 65
1, 303708, Note_off_c, 0, 80, 63
1, 303768, Note_on_c, 0, 75, 85
1, 303771, Note_on_c, 0, 70, 81
1, 303772, Note_on_c, 0, 78, 92
1, 303809, Note_off_c, 0, 75, 65
1, 303824, Note_on_c, 0, 90, 85
1, 303825, Note_off_c, 0, 70, 63
1, 303828, Note_on_c, 0, 87, 82
1, 303839, Note_off_c, 0, 78, 64
1, 303863, Note_off_c, 0, 87, 63
1, 303870, Note_off_c, 0, 90, 65
1, 303880, Control_c, 0, 64, 113
1, 303894, Control_c, 0, 64, 74
1, 303909, Note_on_c, 0, 58, 88
1, 303909, Control_c, 0, 64, 58
1, 303916, Note_on_c, 0, 90, 83
1, 303919, Note_on_c, 0, 87, 95
1, 303924, Control_c, 0, 64, 69
1, 303939, Control_c, 0, 64, 86
1, 303954, Control_c, 0, 64, 127
1, 303967, Note_off_c, 0, 58, 65
1, 303972, Note_off_c, 0, 90, 64
1, 303975, Note_off_c, 0, 87, 65
1, 303989, Note_on_c, 0, 78, 83
1, 304029, Note_off_c, 0, 78, 63
1, 304078, Note_on_c, 0, 71, 97
1, 304087, Note_on_c, 0, 75, 88
1, 304088, Note_on_c, 0, 68, 89
1, 304139, Note_on_c, 0, 83, 67
1, 304160, Note_off_c, 0, 75, 63
1, 304169, Note_on_c, 0, 87, 65
1, 304176, Control_c, 0, 64, 95
1, 304191, Control_c, 0, 64, 70
1, 304197, Note_off_c, 0, 71, 60
1, 304200, Note_off_c, 0, 87, 63
1, 304203, Note_off_c, 0, 83, 65
1, 304206, Control_c, 0, 64, 64
1, 304209, Note_off_c, 0, 68, 59
1, 304221, Control_c, 0, 64, 74
1, 304233, Note_on_c, 0, 87, 75
1, 304236, Control_c, 0, 64, 99
1, 304242, Note_on_c, 0, 58, 84
1, 304250, Control_c, 0, 64, 127
1, 304251, Note_on_c, 0, 83, 66
1, 304262, Note_on_c, 0, 84, 54
1, 304284, Note_off_c, 0, 84, 61
1, 304289, Note_off_c, 0, 58, 66
1, 304302, Note_off_c, 0, 83, 64
1, 304314, Note_on_c, 0, 75, 83
1, 304331, Note_off_c, 0, 87, 65
1, 304370, Note_off_c, 0, 75, 62
1, 304410, Note_on_c, 0, 70, 93
1, 304418, Note_on_c, 0, 68, 82
1, 304420, Note_on_c, 0, 74, 92
1, 304472, Note_off_c, 0, 74, 62
1, 304491, Note_on_c, 0, 82, 85
1, 304504, Note_on_c, 0, 86, 77
1, 304510, Control_c, 0, 64, 99
1, 304519, Note_off_c, 0, 68, 58
1, 304520, Note_off_c, 0, 82, 63
1, 304524, Control_c, 0, 64, 70
1, 304527, Note_off_c, 0, 86, 67
1, 304539, Control_c, 0, 64, 0
1, 304552, Note_off_c, 0, 70, 58
1, 304569, Control_c, 0, 64, 60
1, 304570, Note_on_c, 0, 86, 84
1, 304573, Note_on_c, 0, 58, 84
1, 304582, Note_on_c, 0, 82, 90
1, 304584, Control_c, 0, 64, 80
1, 304598, Control_c, 0, 64, 127
1, 304621, Note_off_c, 0, 58, 66
1, 304642, Note_on_c, 0, 74, 87
1, 304668, Note_off_c, 0, 74, 66
1, 304669, Note_off_c, 0, 86, 63
1, 304671, Note_off_c, 0, 82, 66
1, 304732, Note_on_c, 0, 74, 88
1, 304737, Note_on_c, 0, 70, 84
1, 304746, Note_on_c, 0, 80, 89
1, 304773, Note_off_c, 0, 74, 65
1, 304787, Note_off_c, 0, 70, 63
1, 304799, Note_on_c, 0, 82, 25
1, 304800, Note_on_c, 0, 92, 88
1, 304804, Note_on_c, 0, 89, 82
1, 304806, Note_off_c, 0, 80, 64
1, 304837, Note_off_c, 0, 82, 48
1, 304847, Note_off_c, 0, 89, 62
1, 304850, Note_off_c, 0, 92, 66
1, 304865, Control_c, 0, 64, 109
1, 304880, Control_c, 0, 64, 73
1, 304889, Note_on_c, 0, 58, 81
1, 304890, Note_on_c, 0, 89, 81
1, 304890, Note_on_c, 0, 92, 78
1, 304895, Control_c, 0, 64, 62
1, 304909, Control_c, 0, 64, 72
1, 304924, Control_c, 0, 64, 102
1, 304929, Note_off_c, 0, 58, 62
1, 304931, Note_on_c, 0, 80, 53
1, 304939, Control_c, 0, 64, 127
1, 304948, Note_off_c, 0, 89, 63
1, 304965, Note_off_c, 0, 92, 63
1, 304993, Note_off_c, 0, 80, 64
1, 305042, Note_on_c, 0, 78, 90
1, 305043, Note_on_c, 0, 75, 83
1, 305052, Note_on_c, 0, 70, 80
1, 305067, Note_on_c, 0, 73, 46
1, 305075, Note_off_c, 0, 75, 60
1, 305080, Note_off_c, 0, 70, 61
1, 305095, Note_off_c, 0, 73, 58
1, 305100, Note_on_c, 0, 87, 83
1, 305112, Note_on_c, 0, 90, 74
1, 305118, Note_off_c, 0, 78, 63
1, 305139, Note_off_c, 0, 87, 62
1, 305139, Note_off_c, 0, 90, 65
1, 305169, Control_c, 0, 64, 83
1, 305184, Control_c, 0, 64, 69
1, 305189, Note_on_c, 0, 58, 83
1, 305189, Note_on_c, 0, 90, 86
1, 305199, Control_c, 0, 64, 76
1, 305210, Note_on_c, 0, 87, 64
1, 305214, Control_c, 0, 64, 115
1, 305218, Note_on_c, 0, 88, 72
1, 305229, Control_c, 0, 64, 127
1, 305242, Note_off_c, 0, 88, 69
1, 305249, Note_off_c, 0, 58, 65
1, 305255, Note_on_c, 0, 78, 75
1, 305261, Note_off_c, 0, 87, 44
1, 305261, Note_off_c, 0, 90, 64
1, 305285, Note_off_c, 0, 78, 63
1, 305342, Note_on_c, 0, 71, 89
1, 305348, Note_on_c, 0, 63, 80
1, 305348, Note_on_c, 0, 66, 78
1, 305360, Note_on_c, 0, 75, 83
1, 305379, Note_off_c, 0, 66, 60
1, 305383, Note_off_c, 0, 71, 61
1, 305400, Note_off_c, 0, 63, 63
1, 305410, Note_on_c, 0, 83, 76
1, 305419, Note_off_c, 0, 75, 64
1, 305423, Note_on_c, 0, 87, 74
1, 305436, Control_c, 0, 64, 95
1, 305450, Note_off_c, 0, 83, 63
1, 305451, Control_c, 0, 64, 66
1, 305455, Note_off_c, 0, 87, 61
1, 305465, Control_c, 0, 64, 14
1, 305480, Control_c, 0, 64, 64
1, 305495, Control_c, 0, 64, 82
1, 305496, Note_on_c, 0, 47, 84
1, 305498, Note_on_c, 0, 87, 74
1, 305505, Note_on_c, 0, 83, 82
1, 305510, Control_c, 0, 64, 127
1, 305523, Note_off_c, 0, 47, 69
1, 305563, Note_off_c, 0, 83, 61
1, 305563, Note_on_c, 0, 75, 79
1, 305568, Note_off_c, 0, 87, 63
1, 305606, Note_off_c, 0, 75, 61
1, 305656, Note_on_c, 0, 70, 88
1, 305663, Note_on_c, 0, 73, 91
1, 305665, Note_on_c, 0, 61, 79
1, 305667, Note_on_c, 0, 66, 71
1, 305675, Note_off_c, 0, 70, 72
1, 305691, Note_off_c, 0, 66, 66
1, 305694, Note_off_c, 0, 61, 64
1, 305725, Note_on_c, 0, 82, 82
1, 305725, Note_on_c, 0, 85, 77
1, 305731, Note_off_c, 0, 73, 63
1, 305747, Control_c, 0, 64, 122
1, 305762, Control_c, 0, 64, 73
1, 305765, Note_off_c, 0, 82, 61
1, 305777, Note_off_c, 0, 85, 62
1, 305777, Control_c, 0, 64, 0
1, 305792, Control_c, 0, 64, 64
1, 305794, Note_on_c, 0, 49, 99
1, 305806, Note_on_c, 0, 85, 67
1, 305807, Control_c, 0, 64, 81
1, 305810, Note_on_c, 0, 82, 84
1, 305821, Control_c, 0, 64, 127
1, 305830, Note_off_c, 0, 49, 67
1, 305856, Note_on_c, 0, 73, 63
1, 305881, Note_off_c, 0, 85, 64
1, 305883, Note_off_c, 0, 82, 62
1, 305907, Note_off_c, 0, 73, 61
1, 305961, Note_on_c, 0, 68, 91
1, 305962, Note_on_c, 0, 71, 87
1, 305965, Note_on_c, 0, 65, 81
1, 305979, Note_off_c, 0, 68, 70
1, 305985, Note_on_c, 0, 59, 57
1, 305991, Note_off_c, 0, 65, 66
1, 306008, Note_off_c, 0, 59, 59
1, 306034, Note_on_c, 0, 83, 79
1, 306034, Poly_aftertouch_c, 0, 60, 127
1, 306034, Note_off_c, 0, 71, 59
1, 306044, Note_on_c, 0, 80, 59
1, 306051, Poly_aftertouch_c, 0, 60, 0
1, 306063, Note_off_c, 0, 80, 63
1, 306067, Poly_aftertouch_c, 0, 60, 0
1, 306082, Control_c, 0, 64, 99
1, 306085, Note_off_c, 0, 83, 0
1, 306096, Control_c, 0, 64, 66
1, 306098, Note_on_c, 0, 83, 65
1, 306103, Note_on_c, 0, 50, 83
1, 306111, Control_c, 0, 64, 0
1, 306116, Note_on_c, 0, 52, 72
1, 306117, Note_on_c, 0, 80, 90
1, 306126, Control_c, 0, 64, 63
1, 306129, Note_off_c, 0, 50, 72
1, 306137, Note_off_c, 0, 52, 63
1, 306141, Control_c, 0, 64, 78
1, 306156, Control_c, 0, 64, 127
1, 306178, Note_off_c, 0, 83, 59
1, 306182, Note_on_c, 0, 71, 78
1, 306190, Note_off_c, 0, 80, 63
1, 306211, Note_off_c, 0, 71, 66
1, 306256, Note_on_c, 0, 66, 103
1, 306270, Note_on_c, 0, 58, 74
1, 306281, Note_on_c, 0, 63, 60
1, 306282, Note_on_c, 0, 61, 66
1, 306287, Note_off_c, 0, 66, 69
1, 306290, Note_on_c, 0, 70, 94
1, 306305, Note_off_c, 0, 63, 63
1, 306310, Note_off_c, 0, 61, 63
1, 306317, Note_off_c, 0, 58, 46
1, 306321, Note_on_c, 0, 82, 60
1, 306335, Note_on_c, 0, 78, 44
1, 306341, Note_off_c, 0, 70, 63
1, 306341, Note_off_c, 0, 82, 64
1, 306354, Poly_aftertouch_c, 0, 57, 127
1, 306363, Note_off_c, 0, 78, 56
1, 306378, Control_c, 0, 64, 112
1, 306389, Poly_aftertouch_c, 0, 57, 0
1, 306393, Control_c, 0, 64, 71
1, 306396, Note_on_c, 0, 82, 88
1, 306407, Note_on_c, 0, 51, 95
1, 306407, Note_on_c, 0, 78, 87
1, 306408, Control_c, 0, 64, 0
1, 306423, Control_c, 0, 64, 41
1, 306437, Control_c, 0, 64, 70
1, 306440, Note_off_c, 0, 51, 70
1, 306452, Control_c, 0, 64, 127
1, 306466, Note_on_c, 0, 52, 16
1, 306484, Note_on_c, 0, 70, 89
1, 306511, Note_off_c, 0, 52, 50
1, 306522, Note_off_c, 0, 70, 64
1, 306523, Note_off_c, 0, 78, 62
1, 306559, Note_off_c, 0, 82, 66
1, 306590, Note_on_c, 0, 64, 91
1, 306593, Note_on_c, 0, 73, 91
1, 306597, Note_on_c, 0, 76, 97
1, 306636, Note_off_c, 0, 73, 61
1, 306639, Note_off_c, 0, 64, 64
1, 306690, Note_on_c, 0, 88, 102
1, 306695, Note_on_c, 0, 85, 96
1, 306759, Note_off_c, 0, 85, 63
1, 306765, Note_off_c, 0, 88, 63
1, 306831, Control_c, 0, 64, 90
1, 306838, Note_on_c, 0, 88, 105
1, 306840, Note_on_c, 0, 51, 92
1, 306844, Note_on_c, 0, 85, 99
1, 306846, Control_c, 0, 64, 74
1, 306861, Control_c, 0, 64, 81
1, 306866, Note_off_c, 0, 76, 65
1, 306875, Control_c, 0, 64, 127
1, 306892, Note_on_c, 0, 86, 33
1, 306904, Note_off_c, 0, 51, 63
1, 306929, Note_off_c, 0, 86, 54
1, 306959, Note_on_c, 0, 76, 83
1, 306964, Note_off_c, 0, 85, 59
1, 306966, Note_off_c, 0, 88, 65
1, 306996, Note_off_c, 0, 76, 64
1, 307062, Note_on_c, 0, 63, 89
1, 307063, Note_on_c, 0, 71, 83
1, 307069, Note_on_c, 0, 75, 94
1, 307091, Note_off_c, 0, 71, 63
1, 307100, Note_on_c, 0, 72, 21
1, 307101, Note_off_c, 0, 72, 127
1, 307101, Note_on_c, 0, 64, 50
1, 307122, Note_off_c, 0, 63, 40
1, 307125, Note_off_c, 0, 64, 60
1, 307128, Note_on_c, 0, 83, 82
1, 307138, Note_on_c, 0, 87, 79
1, 307140, Poly_aftertouch_c, 0, 72, 0
1, 307143, Note_off_c, 0, 75, 63
1, 307169, Note_off_c, 0, 83, 66
1, 307186, Control_c, 0, 64, 104
1, 307187, Note_off_c, 0, 87, 58
1, 307201, Control_c, 0, 64, 71
1, 307209, Note_on_c, 0, 53, 91
1, 307214, Note_on_c, 0, 87, 62
1, 307216, Control_c, 0, 64, 66
1, 307221, Note_on_c, 0, 83, 77
1, 307230, Control_c, 0, 64, 77
1, 307241, Note_off_c, 0, 53, 66
1, 307245, Control_c, 0, 64, 103
1, 307260, Control_c, 0, 64, 127
1, 307276, Note_on_c, 0, 75, 86
1, 307283, Note_off_c, 0, 83, 63
1, 307289, Note_off_c, 0, 87, 64
1, 307315, Note_off_c, 0, 75, 64
1, 307367, Note_on_c, 0, 70, 92
1, 307369, Note_on_c, 0, 61, 88
1, 307384, Note_on_c, 0, 73, 95
1, 307409, Note_off_c, 0, 70, 64
1, 307426, Note_off_c, 0, 61, 59
1, 307440, Note_on_c, 0, 82, 81
1, 307441, Note_on_c, 0, 85, 74
1, 307444, Note_off_c, 0, 73, 63
1, 307485, Note_off_c, 0, 82, 63
1, 307491, Control_c, 0, 64, 96
1, 307506, Control_c, 0, 64, 66
1, 307506, Note_off_c, 0, 85, 0
1, 307511, Note_on_c, 0, 55, 89
1, 307521, Note_on_c, 0, 85, 63
1, 307521, Control_c, 0, 64, 0
1, 307528, Note_on_c, 0, 82, 74
1, 307535, Control_c, 0, 64, 62
1, 307550, Control_c, 0, 64, 78
1, 307565, Control_c, 0, 64, 127
1, 307569, Note_on_c, 0, 73, 83
1, 307597, Note_off_c, 0, 82, 64
1, 307598, Note_off_c, 0, 85, 65
1, 307626, Note_off_c, 0, 73, 63
1, 307628, Note_off_c, 0, 55, 53
1, 307670, Note_on_c, 0, 59, 71
1, 307677, Note_on_c, 0, 68, 87
1, 307689, Note_on_c, 0, 71, 81
1, 307701, Note_on_c, 0, 69, 56
1, 307725, Note_off_c, 0, 69, 60
1, 307727, Note_on_c, 0, 83, 83
1, 307735, Note_on_c, 0, 80, 82
1, 307741, Note_off_c, 0, 71, 66
1, 307767, Note_off_c, 0, 80, 58
1, 307777, Note_off_c, 0, 68, 56
1, 307777, Note_off_c, 0, 83, 65
1, 307816, Control_c, 0, 64, 92
1, 307821, Note_on_c, 0, 56, 89
1, 307825, Note_on_c, 0, 83, 82
1, 307831, Control_c, 0, 64, 59
1, 307833, Note_on_c, 0, 80, 87
1, 307846, Control_c, 0, 64, 0
1, 307876, Control_c, 0, 64, 64
1, 307891, Control_c, 0, 64, 76
1, 307897, Note_off_c, 0, 83, 64
1, 307906, Control_c, 0, 64, 97
1, 307912, Note_on_c, 0, 71, 84
1, 307914, Note_off_c, 0, 80, 42
1, 307920, Control_c, 0, 64, 127
1, 307953, Note_off_c, 0, 56, 61
1, 307955, Note_off_c, 0, 71, 65
1, 307986, Note_on_c, 0, 68, 80
1, 307992, Note_on_c, 0, 61, 74
1, 308000, Note_on_c, 0, 71, 78
1, 308037, Note_off_c, 0, 68, 63
1, 308055, Note_on_c, 0, 80, 72
1, 308055, Note_on_c, 0, 83, 76
1, 308055, Note_off_c, 0, 71, 65
1, 308090, Note_off_c, 0, 80, 59
1, 308115, Note_off_c, 0, 61, 59
1, 308135, Note_off_c, 0, 83, 0
1, 308135, Control_c, 0, 64, 100
1, 308147, Note_on_c, 0, 83, 54
1, 308149, Note_on_c, 0, 53, 85
1, 308150, Control_c, 0, 64, 71
1, 308155, Note_on_c, 0, 80, 72
1, 308165, Control_c, 0, 64, 59
1, 308180, Control_c, 0, 64, 70
1, 308195, Control_c, 0, 64, 87
1, 308200, Note_off_c, 0, 53, 67
1, 308204, Note_on_c, 0, 71, 79
1, 308209, Control_c, 0, 64, 127
1, 308213, Note_off_c, 0, 83, 63
1, 308229, Note_off_c, 0, 80, 63
1, 308234, Note_off_c, 0, 59, 56
1, 308242, Note_off_c, 0, 71, 62
1, 308305, Note_on_c, 0, 66, 87
1, 308306, Note_on_c, 0, 61, 84
1, 308318, Note_on_c, 0, 70, 85
1, 308364, Note_on_c, 0, 78, 82
1, 308372, Note_on_c, 0, 82, 68
1, 308379, Note_off_c, 0, 70, 65
1, 308413, Note_off_c, 0, 78, 64
1, 308418, Control_c, 0, 64, 87
1, 308422, Note_off_c, 0, 82, 62
1, 308432, Control_c, 0, 64, 29
1, 308447, Control_c, 0, 64, 0
1, 308450, Poly_aftertouch_c, 0, 80, 0
1, 308462, Note_on_c, 0, 82, 78
1, 308466, Note_on_c, 0, 78, 88
1, 308467, Note_on_c, 0, 54, 83
1, 308477, Control_c, 0, 64, 72
1, 308482, Note_off_c, 0, 61, 60
1, 308491, Control_c, 0, 64, 121
1, 308506, Control_c, 0, 64, 127
1, 308509, Note_off_c, 0, 66, 58
1, 308518, Note_off_c, 0, 54, 67
1, 308528, Note_on_c, 0, 70, 86
1, 308556, Note_off_c, 0, 78, 60
1, 308569, Note_off_c, 0, 70, 65
1, 308576, Note_off_c, 0, 82, 63
1, 308620, Note_on_c, 0, 71, 92
1, 308623, Note_on_c, 0, 65, 79
1, 308636, Note_on_c, 0, 75, 89
1, 308689, Note_on_c, 0, 83, 79
1, 308698, Note_on_c, 0, 87, 80
1, 308706, Note_off_c, 0, 75, 62
1, 308713, Control_c, 0, 64, 88
1, 308728, Control_c, 0, 64, 17
1, 308731, Note_off_c, 0, 71, 56
1, 308739, Note_off_c, 0, 83, 67
1, 308743, Control_c, 0, 64, 0
1, 308758, Control_c, 0, 64, 66
1, 308773, Control_c, 0, 64, 88
1, 308788, Control_c, 0, 64, 127
1, 308791, Note_on_c, 0, 56, 88
1, 308794, Note_on_c, 0, 84, 74
1, 308805, Note_on_c, 0, 83, 83
1, 308821, Note_off_c, 0, 65, 64
1, 308828, Note_off_c, 0, 56, 68
1, 308862, Note_off_c, 0, 84, 64
1, 308863, Note_on_c, 0, 75, 79
1, 308874, Note_off_c, 0, 83, 62
1, 308877, Note_off_c, 0, 87, 64
1, 308906, Note_off_c, 0, 75, 62
1, 308944, Note_on_c, 0, 70, 95
1, 308950, Note_on_c, 0, 66, 90
1, 308959, Note_on_c, 0, 73, 95
1, 309031, Control_c, 0, 64, 108
1, 309036, Note_on_c, 0, 82, 86
1, 309041, Note_on_c, 0, 85, 77
1, 309046, Note_off_c, 0, 73, 62
1, 309046, Control_c, 0, 64, 78
1, 309061, Control_c, 0, 64, 32
1, 309076, Control_c, 0, 64, 0
1, 309080, Note_off_c, 0, 82, 62
1, 309085, Note_off_c, 0, 85, 58
1, 309119, Note_on_c, 0, 58, 82
1, 309127, Note_on_c, 0, 85, 79
1, 309131, Note_on_c, 0, 82, 86
1, 309136, Control_c, 0, 64, 65
1, 309151, Control_c, 0, 64, 90
1, 309155, Note_on_c, 0, 73, 55
1, 309166, Control_c, 0, 64, 127
1, 309178, Note_off_c, 0, 73, 0
1, 309196, Note_on_c, 0, 73, 69
1, 309207, Note_off_c, 0, 70, 59
1, 309211, Note_off_c, 0, 66, 54
1, 309215, Note_off_c, 0, 58, 63
1, 309259, Note_off_c, 0, 73, 63
1, 309292, Note_off_c, 0, 85, 62
1, 309299, Note_off_c, 0, 82, 61
1, 309304, Note_on_c, 0, 68, 99
1, 309304, Note_on_c, 0, 66, 98
1, 309324, Note_on_c, 0, 75, 81
1, 309328, Control_c, 0, 64, 81
1, 309343, Control_c, 0, 64, 48
1, 309358, Control_c, 0, 64, 54
1, 309373, Control_c, 0, 64, 72
1, 309387, Control_c, 0, 64, 106
1, 309398, Note_on_c, 0, 87, 86
1, 309402, Control_c, 0, 64, 127
1, 309403, Note_on_c, 0, 78, 83
1, 309417, Note_off_c, 0, 75, 63
1, 309448, Note_off_c, 0, 87, 65
1, 309449, Note_off_c, 0, 78, 64
1, 309469, Note_off_c, 0, 68, 61
1, 309506, Note_on_c, 0, 59, 93
1, 309515, Note_on_c, 0, 78, 89
1, 309521, Note_on_c, 0, 87, 83
1, 309533, Note_off_c, 0, 66, 0
1, 309570, Poly_aftertouch_c, 0, 66, 127
1, 309581, Note_off_c, 0, 78, 56
1, 309593, Note_on_c, 0, 75, 83
1, 309597, Note_off_c, 0, 87, 61
1, 309600, Note_off_c, 0, 59, 56
1, 309624, Poly_aftertouch_c, 0, 66, 0
1, 309644, Note_off_c, 0, 75, 64
1, 309677, Note_on_c, 0, 66, 101
1, 309687, Note_on_c, 0, 75, 77
1, 309751, Note_on_c, 0, 78, 86
1, 309762, Note_on_c, 0, 87, 79
1, 309765, Note_off_c, 0, 75, 64
1, 309792, Note_off_c, 0, 66, 57
1, 309793, Note_off_c, 0, 78, 65
1, 309816, Note_off_c, 0, 87, 0
1, 309828, Poly_aftertouch_c, 0, 78, 0
1, 309830, Note_on_c, 0, 87, 69
1, 309832, Note_on_c, 0, 59, 98
1, 309835, Note_on_c, 0, 78, 85
1, 309913, Note_off_c, 0, 78, 56
1, 309917, Note_on_c, 0, 75, 85
1, 309925, Note_off_c, 0, 59, 56
1, 309939, Note_off_c, 0, 87, 63
1, 309962, Note_off_c, 0, 75, 63
1, 309986, Note_on_c, 0, 66, 100
1, 309995, Note_on_c, 0, 75, 77
1, 310065, Note_on_c, 0, 78, 87
1, 310070, Note_on_c, 0, 87, 71
1, 310073, Note_off_c, 0, 75, 64
1, 310082, Note_off_c, 0, 66, 57
1, 310099, Note_off_c, 0, 87, 65
1, 310105, Note_off_c, 0, 78, 66
1, 310155, Note_on_c, 0, 59, 96
1, 310163, Note_on_c, 0, 78, 90
1, 310165, Note_on_c, 0, 87, 85
1, 310246, Note_on_c, 0, 75, 85
1, 310263, Note_off_c, 0, 78, 56
1, 310273, Note_off_c, 0, 87, 61
1, 310299, Note_off_c, 0, 75, 60
1, 310320, Note_off_c, 0, 59, 58
1, 310350, Note_on_c, 0, 75, 74
1, 310381, Note_on_c, 0, 61, 96
1, 310423, Note_on_c, 0, 78, 70
1, 310424, Note_off_c, 0, 75, 60
1, 310425, Note_off_c, 0, 61, 66
1, 310442, Note_on_c, 0, 87, 88
1, 310456, Note_on_c, 0, 59, 98
1, 310487, Note_off_c, 0, 59, 70
1, 310513, Note_on_c, 0, 75, 84
1, 310523, Note_off_c, 0, 87, 65
1, 310544, Note_off_c, 0, 78, 57
1, 310569, Note_off_c, 0, 75, 60
1, 310574, Control_c, 0, 64, 86
1, 310588, Control_c, 0, 64, 60
1, 310603, Control_c, 0, 64, 50
1, 310618, Control_c, 0, 64, 68
1, 310623, Note_on_c, 0, 61, 102
1, 310627, Note_on_c, 0, 49, 100
1, 310633, Control_c, 0, 64, 87
1, 310639, Note_on_c, 0, 73, 85
1, 310648, Control_c, 0, 64, 127
1, 310655, Note_off_c, 0, 61, 62
1, 310661, Note_off_c, 0, 49, 62
1, 310698, Note_on_c, 0, 85, 67
1, 310701, Note_on_c, 0, 80, 71
1, 310706, Note_off_c, 0, 73, 64
1, 310713, Note_on_c, 0, 78, 55
1, 310722, Note_off_c, 0, 80, 70
1, 310723, Note_off_c, 0, 85, 67
1, 310734, Note_off_c, 0, 78, 62
1, 310773, Note_on_c, 0, 37, 101
1, 310773, Note_on_c, 0, 49, 99
1, 310792, Note_on_c, 0, 78, 80
1, 310794, Note_on_c, 0, 80, 82
1, 310795, Note_on_c, 0, 85, 79
1, 310796, Note_off_c, 0, 37, 70
1, 310805, Note_off_c, 0, 49, 65
1, 310824, Note_off_c, 0, 78, 59
1, 310840, Note_off_c, 0, 80, 61
1, 310862, Note_off_c, 0, 85, 61
1, 310877, Note_on_c, 0, 73, 82
1, 310932, Note_on_c, 0, 49, 100
1, 310934, Note_on_c, 0, 61, 96
1, 310950, Note_off_c, 0, 61, 73
1, 310961, Note_off_c, 0, 49, 66
1, 311018, Note_on_c, 0, 80, 72
1, 311021, Note_on_c, 0, 85, 62
1, 311023, Note_off_c, 0, 73, 62
1, 311026, Note_on_c, 0, 78, 59
1, 311040, Note_off_c, 0, 80, 67
1, 311047, Note_off_c, 0, 78, 64
1, 311055, Note_off_c, 0, 85, 62
1, 311083, Note_on_c, 0, 49, 98
1, 311084, Note_on_c, 0, 37, 104
1, 311102, Note_off_c, 0, 49, 72
1, 311104, Note_off_c, 0, 37, 74
1, 311122, Note_on_c, 0, 78, 72
1, 311122, Note_on_c, 0, 85, 66
1, 311125, Note_on_c, 0, 80, 79
1, 311167, Note_off_c, 0, 78, 54
1, 311178, Note_off_c, 0, 80, 58
1, 311200, Note_on_c, 0, 73, 81
1, 311214, Note_off_c, 0, 85, 62
1, 311263, Note_on_c, 0, 49, 104
1, 311263, Note_on_c, 0, 61, 104
1, 311278, Note_off_c, 0, 49, 75
1, 311278, Note_off_c, 0, 61, 73
1, 311347, Note_on_c, 0, 85, 74
1, 311349, Note_on_c, 0, 80, 75
1, 311353, Note_on_c, 0, 78, 71
1, 311362, Note_off_c, 0, 73, 62
1, 311392, Poly_aftertouch_c, 0, 49, 0
1, 311417, Poly_aftertouch_c, 0, 49, 0
1, 311418, Note_off_c, 0, 80, 58
1, 311424, Note_off_c, 0, 78, 59
1, 311424, Note_off_c, 0, 85, 63
1, 311495, Note_on_c, 0, 49, 98
1, 311500, Note_on_c, 0, 37, 98
1, 311506, Note_on_c, 0, 85, 84
1, 311510, Note_on_c, 0, 78, 84
1, 311512, Note_on_c, 0, 80, 83
1, 311614, Note_on_c, 0, 73, 87
1, 311643, Note_off_c, 0, 78, 55
1, 311664, Note_off_c, 0, 80, 59
1, 311665, Note_off_c, 0, 49, 62
1, 311667, Note_off_c, 0, 73, 61
1, 311670, Note_off_c, 0, 85, 59
1, 311714, Note_on_c, 0, 73, 68
1, 311768, Note_on_c, 0, 51, 95
1, 311769, Note_on_c, 0, 78, 77
1, 311770, Note_on_c, 0, 39, 83
1, 311771, Note_on_c, 0, 80, 80
1, 311775, Note_on_c, 0, 85, 71
1, 311785, Note_off_c, 0, 73, 63
1, 311788, Note_off_c, 0, 37, 62
1, 311796, Note_off_c, 0, 80, 64
1, 311800, Note_off_c, 0, 78, 58
1, 311802, Note_off_c, 0, 51, 62
1, 311802, Note_off_c, 0, 85, 64
1, 311809, Note_off_c, 0, 39, 60
1, 311845, Note_on_c, 0, 49, 89
1, 311861, Note_on_c, 0, 85, 82
1, 311862, Note_on_c, 0, 37, 87
1, 311862, Note_on_c, 0, 78, 81
1, 311866, Note_on_c, 0, 80, 91
1, 311897, Note_off_c, 0, 49, 67
1, 311900, Note_off_c, 0, 37, 65
1, 311951, Note_on_c, 0, 73, 84
1, 311962, Note_off_c, 0, 80, 57
1, 311965, Note_off_c, 0, 78, 58
1, 311978, Note_off_c, 0, 85, 58
1, 312013, Note_off_c, 0, 73, 65
1, 312072, Control_c, 0, 64, 77
1, 312087, Control_c, 0, 64, 0
1, 312103, Note_on_c, 0, 50, 107
1, 312109, Note_on_c, 0, 38, 102
1, 312118, Note_on_c, 0, 72, 84
1, 312162, Control_c, 0, 64, 69
1, 312176, Control_c, 0, 64, 92
1, 312191, Control_c, 0, 64, 127
1, 312250, Note_on_c, 0, 81, 65
1, 312258, Note_on_c, 0, 84, 67
1, 312260, Note_on_c, 0, 78, 57
1, 312260, Note_off_c, 0, 38, 64
1, 312276, Note_off_c, 0, 50, 65
1, 312321, Note_off_c, 0, 81, 60
1, 312324, Note_off_c, 0, 78, 60
1, 312334, Note_off_c, 0, 84, 59
1, 312457, Note_on_c, 0, 50, 100
1, 312457, Note_on_c, 0, 62, 100
1, 312469, Note_on_c, 0, 78, 77
1, 312469, Note_on_c, 0, 81, 80
1, 312469, Note_on_c, 0, 84, 75
1, 312502, Note_off_c, 0, 72, 61
1, 312597, Note_on_c, 0, 72, 85
1, 312637, Note_off_c, 0, 78, 61
1, 312642, Note_off_c, 0, 81, 61
1, 312647, Note_off_c, 0, 72, 60
1, 312650, Note_off_c, 0, 62, 53
1, 312655, Note_off_c, 0, 84, 60
1, 312690, Note_off_c, 0, 50, 62
1, 312699, Note_on_c, 0, 72, 71
1, 312735, Note_on_c, 0, 64, 98
1, 312744, Note_on_c, 0, 52, 78
1, 312766, Note_off_c, 0, 64, 64
1, 312773, Note_on_c, 0, 81, 76
1, 312774, Note_on_c, 0, 53, 44
1, 312775, Note_off_c, 0, 52, 66
1, 312776, Note_on_c, 0, 84, 74
1, 312776, Note_on_c, 0, 78, 70
1, 312779, Note_off_c, 0, 72, 64
1, 312804, Note_off_c, 0, 53, 60
1, 312824, Note_on_c, 0, 62, 89
1, 312824, Note_on_c, 0, 50, 79
1, 312855, Note_off_c, 0, 62, 60
1, 312857, Note_on_c, 0, 52, 20
1, 312866, Note_off_c, 0, 50, 67
1, 312875, Note_on_c, 0, 72, 82
1, 312890, Note_off_c, 0, 81, 60
1, 312893, Note_off_c, 0, 52, 55
1, 312901, Note_off_c, 0, 84, 60
1, 312910, Note_off_c, 0, 78, 61
1, 312934, Note_off_c, 0, 72, 64
1, 312999, Control_c, 0, 64, 84
1, 313014, Control_c, 0, 64, 0
1, 313020, Note_on_c, 0, 71, 86
1, 313024, Note_on_c, 0, 53, 101
1, 313027, Note_on_c, 0, 41, 99
1, 313074, Control_c, 0, 64, 70
1, 313089, Control_c, 0, 64, 97
1, 313104, Control_c, 0, 64, 127
1, 313122, Note_on_c, 0, 83, 81
1, 313122, Note_off_c, 0, 41, 64
1, 313123, Note_on_c, 0, 73, 90
1, 313123, Note_off_c, 0, 53, 68
1, 313125, Note_on_c, 0, 80, 85
1, 313179, Note_off_c, 0, 71, 0
1, 313198, Note_off_c, 0, 83, 62
1, 313200, Note_off_c, 0, 73, 60
1, 313205, Note_on_c, 0, 71, 35
1, 313206, Note_off_c, 0, 80, 60
1, 313312, Note_on_c, 0, 53, 98
1, 313312, Note_on_c, 0, 65, 102
1, 313323, Note_on_c, 0, 73, 84
1, 313323, Note_on_c, 0, 83, 80
1, 313328, Note_on_c, 0, 80, 75
1, 313356, Note_off_c, 0, 71, 56
1, 313456, Note_on_c, 0, 71, 85
1, 313489, Note_off_c, 0, 73, 59
1, 313489, Note_off_c, 0, 65, 58
1, 313501, Note_off_c, 0, 53, 61
1, 313504, Note_off_c, 0, 71, 63
1, 313514, Note_off_c, 0, 80, 51
1, 313516, Note_off_c, 0, 83, 53
1, 313558, Note_on_c, 0, 71, 79
1, 313614, Note_on_c, 0, 66, 90
1, 313617, Note_on_c, 0, 54, 87
1, 313647, Note_on_c, 0, 80, 71
1, 313650, Note_on_c, 0, 73, 81
1, 313653, Note_on_c, 0, 83, 68
1, 313656, Note_off_c, 0, 66, 63
1, 313656, Note_off_c, 0, 71, 65
1, 313662, Note_off_c, 0, 54, 66
1, 313677, Note_off_c, 0, 73, 64
1, 313709, Note_off_c, 0, 80, 55
1, 313726, Note_on_c, 0, 65, 89
1, 313730, Note_on_c, 0, 53, 86
1, 313731, Note_off_c, 0, 83, 0
1, 313743, Note_off_c, 0, 65, 74
1, 313745, Note_on_c, 0, 83, 48
1, 313748, Note_on_c, 0, 80, 50
1, 313757, Note_off_c, 0, 53, 70
1, 313765, Note_on_c, 0, 73, 74
1, 313840, Note_on_c, 0, 71, 79
1, 313845, Note_off_c, 0, 83, 47
1, 313852, Note_off_c, 0, 80, 59
1, 313866, Note_off_c, 0, 73, 61
1, 313885, Note_off_c, 0, 71, 63
1, 314016, Control_c, 0, 64, 101
1, 314022, Note_on_c, 0, 42, 84
1, 314024, Note_on_c, 0, 54, 82
1, 314030, Control_c, 0, 64, 64
1, 314031, Note_on_c, 0, 70, 75
1, 314045, Control_c, 0, 64, 0
1, 314075, Control_c, 0, 64, 59
1, 314090, Control_c, 0, 64, 80
1, 314112, Control_c, 0, 64, 127
1, 314141, Note_off_c, 0, 42, 62
1, 314162, Note_off_c, 0, 54, 62
1, 314174, Note_on_c, 0, 82, 76
1, 314178, Note_on_c, 0, 78, 68
1, 314180, Note_off_c, 0, 70, 62
1, 314205, Note_off_c, 0, 78, 64
1, 314223, Note_off_c, 0, 82, 60
1, 314347, Note_on_c, 0, 82, 82
1, 314351, Note_on_c, 0, 66, 79
1, 314354, Note_on_c, 0, 54, 76
1, 314355, Note_on_c, 0, 78, 78
1, 314412, Note_off_c, 0, 78, 61
1, 314420, Note_off_c, 0, 66, 58
1, 314427, Note_off_c, 0, 82, 63
1, 314443, Note_on_c, 0, 70, 77
1, 314471, Note_off_c, 0, 70, 66
1, 314475, Note_off_c, 0, 54, 55
1, 314538, Note_on_c, 0, 51, 79
1, 314538, Note_on_c, 0, 63, 67
1, 314547, Note_on_c, 0, 66, 79
1, 314568, Note_off_c, 0, 63, 66
1, 314583, Note_off_c, 0, 51, 59
1, 314604, Note_on_c, 0, 75, 84
1, 314606, Note_on_c, 0, 78, 78
1, 314611, Note_off_c, 0, 66, 61
1, 314648, Note_off_c, 0, 75, 65
1, 314657, Note_off_c, 0, 78, 61
1, 314684, Note_on_c, 0, 59, 91
1, 314689, Note_on_c, 0, 47, 81
1, 314690, Control_c, 0, 64, 90
1, 314703, Note_on_c, 0, 75, 81
1, 314705, Control_c, 0, 64, 64
1, 314712, Note_on_c, 0, 78, 61
1, 314720, Control_c, 0, 64, 0
1, 314729, Note_on_c, 0, 49, 26
1, 314730, Note_off_c, 0, 49, 127
1, 314731, Note_off_c, 0, 59, 62
1, 314745, Note_off_c, 0, 47, 65
1, 314750, Control_c, 0, 64, 43
1, 314765, Control_c, 0, 64, 64
1, 314770, Note_on_c, 0, 66, 73
1, 314779, Control_c, 0, 64, 73
1, 314791, Note_off_c, 0, 75, 63
1, 314794, Control_c, 0, 64, 89
1, 314804, Note_off_c, 0, 66, 64
1, 314809, Control_c, 0, 64, 127
1, 314830, Note_off_c, 0, 78, 63
1, 314858, Note_on_c, 0, 56, 95
1, 314860, Note_on_c, 0, 44, 91
1, 314889, Note_off_c, 0, 56, 65
1, 314890, Note_on_c, 0, 71, 87
1, 314896, Note_off_c, 0, 44, 64
1, 314948, Note_off_c, 0, 71, 63
1, 314950, Note_on_c, 0, 83, 72
1, 314951, Note_on_c, 0, 80, 77
1, 314972, Note_off_c, 0, 80, 70
1, 314972, Note_off_c, 0, 83, 71
1, 314979, Poly_aftertouch_c, 0, 54, 0
1, 315045, Note_on_c, 0, 68, 97
1, 315045, Note_on_c, 0, 83, 99
1, 315048, Note_on_c, 0, 80, 93
1, 315051, Note_on_c, 0, 56, 91
1, 315078, Note_off_c, 0, 68, 66
1, 315088, Note_off_c, 0, 56, 59
1, 315098, Note_off_c, 0, 80, 60
1, 315103, Note_off_c, 0, 83, 63
1, 315122, Note_on_c, 0, 71, 80
1, 315166, Note_off_c, 0, 71, 64
1, 315207, Note_on_c, 0, 65, 96
1, 315212, Note_on_c, 0, 53, 91
1, 315233, Note_on_c, 0, 68, 87
1, 315242, Note_off_c, 0, 65, 66
1, 315245, Note_off_c, 0, 53, 66
1, 315293, Note_on_c, 0, 77, 49
1, 315293, Note_off_c, 0, 68, 53
1, 315304, Note_on_c, 0, 80, 21
1, 315334, Poly_aftertouch_c, 0, 70, 0
1, 315340, Note_off_c, 0, 77, 59
1, 315361, Note_on_c, 0, 61, 97
1, 315363, Note_on_c, 0, 49, 94
1, 315364, Note_off_c, 0, 80, 0
1, 315369, Note_on_c, 0, 77, 61
1, 315373, Note_on_c, 0, 80, 68
1, 315392, Note_off_c, 0, 61, 62
1, 315392, Control_c, 0, 64, 107
1, 315399, Note_off_c, 0, 49, 66
1, 315407, Control_c, 0, 64, 71
1, 315422, Control_c, 0, 64, 0
1, 315435, Note_on_c, 0, 68, 26
1, 315466, Control_c, 0, 64, 17
1, 315468, Note_off_c, 0, 68, 61
1, 315470, Note_off_c, 0, 77, 60
1, 315482, Control_c, 0, 64, 68
1, 315496, Note_off_c, 0, 80, 64
1, 315497, Control_c, 0, 64, 85
1, 315512, Control_c, 0, 64, 127
1, 315513, Note_on_c, 0, 58, 95
1, 315515, Note_on_c, 0, 46, 100
1, 315534, Note_off_c, 0, 46, 71
1, 315540, Note_off_c, 0, 58, 63
1, 315561, Note_on_c, 0, 73, 84
1, 315614, Note_on_c, 0, 46, 12
1, 315624, Note_off_c, 0, 73, 57
1, 315628, Note_on_c, 0, 82, 80
1, 315635, Note_off_c, 0, 46, 60
1, 315642, Poly_aftertouch_c, 0, 59, 0
1, 315643, Note_on_c, 0, 85, 54
1, 315649, Note_off_c, 0, 82, 71
1, 315666, Note_off_c, 0, 85, 59
1, 315701, Note_on_c, 0, 70, 98
1, 315704, Note_on_c, 0, 58, 92
1, 315713, Note_on_c, 0, 85, 93
1, 315715, Note_on_c, 0, 82, 95
1, 315727, Note_off_c, 0, 70, 65
1, 315736, Note_off_c, 0, 58, 66
1, 315760, Note_off_c, 0, 82, 62
1, 315760, Note_off_c, 0, 85, 66
1, 315788, Note_on_c, 0, 73, 90
1, 315826, Note_off_c, 0, 73, 64
1, 315863, Note_on_c, 0, 67, 99
1, 315865, Note_on_c, 0, 55, 92
1, 315893, Note_off_c, 0, 67, 63
1, 315897, Note_off_c, 0, 55, 64
1, 315898, Note_on_c, 0, 70, 83
1, 315912, Note_on_c, 0, 82, 51
1, 315933, Note_off_c, 0, 82, 60
1, 315950, Note_off_c, 0, 70, 64
1, 315950, Poly_aftertouch_c, 0, 56, 127
1, 315978, Poly_aftertouch_c, 0, 56, 0
1, 315996, Note_on_c, 0, 79, 60
1, 315998, Note_on_c, 0, 82, 81
1, 316023, Note_on_c, 0, 63, 97
1, 316025, Note_on_c, 0, 51, 98
1, 316050, Note_off_c, 0, 63, 63
1, 316054, Note_off_c, 0, 51, 66
1, 316102, Note_on_c, 0, 70, 55
1, 316119, Note_off_c, 0, 70, 66
1, 316128, Note_off_c, 0, 79, 59
1, 316154, Note_off_c, 0, 82, 65
1, 316157, Control_c, 0, 64, 90
1, 316172, Control_c, 0, 64, 68
1, 316186, Note_on_c, 0, 59, 99
1, 316186, Control_c, 0, 64, 64
1, 316189, Note_on_c, 0, 47, 94
1, 316201, Control_c, 0, 64, 73
1, 316203, Note_on_c, 0, 75, 85
1, 316208, Note_off_c, 0, 47, 74
1, 316209, Note_off_c, 0, 59, 65
1, 316216, Control_c, 0, 64, 88
1, 316231, Control_c, 0, 64, 127
1, 316261, Note_on_c, 0, 87, 84
1, 316273, Note_on_c, 0, 83, 68
1, 316274, Note_on_c, 0, 78, 79
1, 316276, Note_off_c, 0, 75, 64
1, 316282, Note_on_c, 0, 84, 65
1, 316294, Note_off_c, 0, 78, 69
1, 316298, Note_off_c, 0, 84, 67
1, 316303, Note_off_c, 0, 83, 65
1, 316317, Note_off_c, 0, 87, 63
1, 316348, Note_on_c, 0, 71, 97
1, 316365, Note_on_c, 0, 87, 79
1, 316371, Note_on_c, 0, 78, 88
1, 316375, Note_on_c, 0, 83, 80
1, 316377, Note_off_c, 0, 71, 69
1, 316401, Note_on_c, 0, 58, 11
1, 316431, Note_on_c, 0, 75, 89
1, 316437, Note_off_c, 0, 87, 64
1, 316443, Note_off_c, 0, 78, 62
1, 316444, Note_off_c, 0, 58, 51
1, 316446, Note_off_c, 0, 83, 64
1, 316475, Note_off_c, 0, 75, 63
1, 316476, Control_c, 0, 64, 86
1, 316491, Control_c, 0, 64, 0
1, 316511, Note_on_c, 0, 61, 101
1, 316517, Note_on_c, 0, 49, 95
1, 316538, Note_on_c, 0, 73, 100
1, 316539, Note_off_c, 0, 49, 72
1, 316544, Note_off_c, 0, 61, 60
1, 316550, Control_c, 0, 64, 66
1, 316565, Control_c, 0, 64, 89
1, 316580, Control_c, 0, 64, 127
1, 316599, Note_on_c, 0, 85, 83
1, 316600, Note_on_c, 0, 80, 89
1, 316611, Note_off_c, 0, 73, 63
1, 316624, Note_on_c, 0, 77, 53
1, 316643, Note_off_c, 0, 80, 64
1, 316649, Note_off_c, 0, 77, 59
1, 316656, Note_off_c, 0, 85, 64
1, 316675, Note_on_c, 0, 68, 94
1, 316700, Note_on_c, 0, 80, 85
1, 316704, Note_on_c, 0, 77, 88
1, 316704, Note_on_c, 0, 85, 73
1, 316709, Note_off_c, 0, 68, 63
1, 316741, Note_on_c, 0, 73, 86
1, 316751, Note_off_c, 0, 77, 59
1, 316765, Note_off_c, 0, 80, 63
1, 316774, Note_off_c, 0, 85, 62
1, 316806, Note_off_c, 0, 73, 63
1, 316836, Note_on_c, 0, 61, 106
1, 316842, Note_on_c, 0, 58, 90
1, 316845, Note_on_c, 0, 73, 86
1, 316845, Note_on_c, 0, 85, 98
1, 316846, Note_on_c, 0, 49, 82
1, 316846, Note_on_c, 0, 82, 94
1, 316847, Note_on_c, 0, 54, 77
1, 316850, Note_on_c, 0, 78, 92
1, 316851, Note_off_c, 0, 61, 73
1, 316860, Note_off_c, 0, 58, 72
1, 316866, Note_off_c, 0, 54, 68
1, 316866, Note_off_c, 0, 73, 70
1, 316869, Note_off_c, 0, 78, 68
1, 316871, Note_off_c, 0, 49, 69
1, 316881, Note_off_c, 0, 82, 69
1, 316893, Note_off_c, 0, 85, 67
1, 317021, Note_on_c, 0, 66, 99
1, 317024, Note_on_c, 0, 54, 81
1, 317027, Note_on_c, 0, 90, 100
1, 317029, Note_on_c, 0, 78, 106
1, 317033, Note_on_c, 0, 61, 75
1, 317033, Note_on_c, 0, 58, 73
1, 317035, Note_on_c, 0, 82, 88
1, 317036, Note_on_c, 0, 85, 84
1, 317036, Note_off_c, 0, 66, 74
1, 317040, Note_off_c, 0, 90, 78
1, 317042, Note_off_c, 0, 78, 77
1, 317050, Note_off_c, 0, 58, 70
1, 317050, Note_off_c, 0, 61, 69
1, 317052, Note_off_c, 0, 82, 73
1, 317053, Note_off_c, 0, 54, 67
1, 317055, Note_off_c, 0, 85, 73
1, 317202, Note_on_c, 0, 61, 91
1, 317206, Note_on_c, 0, 58, 80
1, 317209, Note_on_c, 0, 85, 108
1, 317210, Note_on_c, 0, 49, 94
1, 317215, Note_on_c, 0, 82, 86
1, 317216, Note_on_c, 0, 54, 71
1, 317216, Note_on_c, 0, 73, 83
1, 317221, Note_off_c, 0, 61, 72
1, 317227, Note_on_c, 0, 75, 66
1, 317227, Note_off_c, 0, 58, 69
1, 317230, Note_off_c, 0, 73, 73
1, 317233, Note_off_c, 0, 49, 67
1, 317234, Note_off_c, 0, 82, 71
1, 317235, Note_on_c, 0, 86, 57
1, 317236, Note_on_c, 0, 78, 45
1, 317237, Note_off_c, 0, 78, 127
1, 317239, Note_off_c, 0, 85, 50
1, 317243, Note_off_c, 0, 54, 60
1, 317247, Note_off_c, 0, 75, 44
1, 317256, Note_off_c, 0, 86, 64
1, 317285, Poly_aftertouch_c, 0, 79, 127
1, 317304, Note_on_c, 0, 49, 12
1, 317328, Poly_aftertouch_c, 0, 79, 0
1, 317333, Note_off_c, 0, 49, 55
1, 317380, Note_on_c, 0, 66, 101
1, 317382, Note_on_c, 0, 78, 104
1, 317382, Note_on_c, 0, 90, 106
1, 317386, Note_on_c, 0, 54, 82
1, 317386, Note_on_c, 0, 82, 100
1, 317390, Note_on_c, 0, 61, 84
1, 317392, Note_on_c, 0, 58, 74
1, 317394, Note_off_c, 0, 66, 76
1, 317397, Note_off_c, 0, 78, 70
1, 317399, Note_off_c, 0, 82, 78
1, 317406, Note_off_c, 0, 58, 74
1, 317406, Note_off_c, 0, 54, 73
1, 317409, Note_off_c, 0, 61, 66
1, 317412, Note_off_c, 0, 90, 64
1, 317414, Note_on_c, 0, 86, 35
1, 317415, Note_off_c, 0, 86, 127
1, 317424, Note_on_c, 0, 87, 26
1, 317464, Note_off_c, 0, 87, 53
1, 317509, Poly_aftertouch_c, 0, 58, 127
1, 317516, Poly_aftertouch_c, 0, 61, 127
1, 317551, Poly_aftertouch_c, 0, 61, 0
1, 317553, Poly_aftertouch_c, 0, 58, 0
1, 317561, Note_on_c, 0, 61, 85
1, 317564, Note_on_c, 0, 85, 102
1, 317564, Note_on_c, 0, 58, 79
1, 317564, Note_on_c, 0, 73, 99
1, 317567, Note_on_c, 0, 82, 94
1, 317569, Note_on_c, 0, 78, 90
1, 317572, Note_on_c, 0, 54, 76
1, 317573, Note_on_c, 0, 49, 84
1, 317577, Note_off_c, 0, 73, 79
1, 317582, Note_off_c, 0, 61, 69
1, 317582, Note_off_c, 0, 82, 75
1, 317584, Note_off_c, 0, 78, 75
1, 317585, Note_off_c, 0, 58, 71
1, 317595, Note_off_c, 0, 49, 63
1, 317596, Note_off_c, 0, 54, 69
1, 317596, Note_off_c, 0, 85, 63
1, 317871, Note_on_c, 0, 66, 93
1, 317872, Note_on_c, 0, 61, 98
1, 317873, Note_on_c, 0, 58, 89
1, 317874, Note_on_c, 0, 54, 88
1, 317878, Note_on_c, 0, 90, 107
1, 317879, Note_on_c, 0, 78, 106
1, 317879, Note_on_c, 0, 82, 102
1, 317880, Note_on_c, 0, 85, 97
1, 318004, Control_c, 0, 64, 109
1, 318019, Control_c, 0, 64, 75
1, 318033, Control_c, 0, 64, 64
1, 318048, Control_c, 0, 64, 74
1, 318063, Control_c, 0, 64, 94
1, 318077, Control_c, 0, 64, 127
1, 318335, Note_off_c, 0, 54, 37
1, 318335, Note_off_c, 0, 66, 45
1, 318349, Note_off_c, 0, 58, 37
1, 318370, Note_off_c, 0, 78, 50
1, 318373, Note_off_c, 0, 90, 50
1, 318374, Note_off_c, 0, 61, 36
1, 318422, Note_off_c, 0, 85, 51
1, 318428, Note_off_c, 0, 82, 57
1, 318486, Note_on_c, 0, 90, 102
1, 318487, Note_on_c, 0, 78, 100
1, 318488, Note_on_c, 0, 82, 101
1, 318489, Note_on_c, 0, 54, 88
1, 318489, Note_on_c, 0, 66, 97
1, 318492, Note_on_c, 0, 61, 94
1, 318492, Note_on_c, 0, 85, 99
1, 318493, Note_on_c, 0, 58, 88
1, 318564, Note_off_c, 0, 78, 61
1, 318568, Note_off_c, 0, 66, 56
1, 318569, Note_off_c, 0, 54, 60
1, 318581, Note_off_c, 0, 90, 64
1, 318586, Note_off_c, 0, 58, 58
1, 318596, Note_off_c, 0, 82, 61
1, 318601, Note_off_c, 0, 61, 60
1, 318604, Note_off_c, 0, 85, 62
1, 318644, Note_on_c, 0, 61, 82
1, 318644, Note_on_c, 0, 66, 103
1, 318645, Note_on_c, 0, 54, 93
1, 318646, Note_on_c, 0, 58, 82
1, 318651, Note_on_c, 0, 90, 105
1, 318652, Note_on_c, 0, 78, 110
1, 318653, Note_on_c, 0, 82, 99
1, 318655, Note_on_c, 0, 85, 85
1, 319753, Control_c, 0, 67, 8
1, 319768, Control_c, 0, 67, 8
1, 319797, Control_c, 0, 67, 9
1, 319841, Control_c, 0, 67, 9
1, 319856, Control_c, 0, 67, 10
1, 319901, Control_c, 0, 67, 10
1, 319930, Control_c, 0, 67, 11
1, 319945, Control_c, 0, 67, 11
1, 319960, Control_c, 0, 67, 12
1, 319975, Control_c, 0, 67, 13
1, 319990, Control_c, 0, 67, 14
1, 319991, Note_off_c, 0, 66, 54
1, 320005, Control_c, 0, 67, 16
1, 320020, Control_c, 0, 67, 16
1, 320035, Control_c, 0, 67, 17
1, 320049, Control_c, 0, 67, 17
1, 320064, Control_c, 0, 67, 18
1, 320079, Control_c, 0, 67, 19
1, 320101, Control_c, 0, 67, 19
1, 320111, Note_off_c, 0, 90, 59
1, 320116, Control_c, 0, 67, 20
1, 320130, Control_c, 0, 67, 21
1, 320145, Control_c, 0, 67, 22
1, 320160, Control_c, 0, 67, 23
1, 320175, Control_c, 0, 67, 26
1, 320190, Control_c, 0, 67, 29
1, 320205, Control_c, 0, 67, 33
1, 320215, Note_off_c, 0, 85, 59
1, 320220, Control_c, 0, 67, 37
1, 320220, Note_off_c, 0, 82, 56
1, 320235, Control_c, 0, 67, 39
1, 320249, Control_c, 0, 67, 41
1, 320264, Control_c, 0, 67, 43
1, 320279, Control_c, 0, 67, 45
1, 320290, Note_off_c, 0, 78, 58
1, 320294, Control_c, 0, 67, 46
1, 320309, Control_c, 0, 67, 49
1, 320324, Control_c, 0, 67, 50
1, 320339, Control_c, 0, 67, 52
1, 320339, Note_off_c, 0, 61, 61
1, 320354, Control_c, 0, 67, 54
1, 320369, Control_c, 0, 67, 56
1, 320384, Control_c, 0, 67, 57
1, 320398, Control_c, 0, 67, 59
1, 320413, Control_c, 0, 67, 62
1, 320427, Note_off_c, 0, 58, 55
1, 320428, Control_c, 0, 67, 65
1, 320429, Note_off_c, 0, 54, 57
1, 320443, Control_c, 0, 67, 69
1, 320458, Control_c, 0, 67, 72
1, 320472, Control_c, 0, 67, 76
1, 320487, Control_c, 0, 67, 80
1, 320502, Control_c, 0, 67, 84
1, 320517, Control_c, 0, 67, 88
1, 320532, Control_c, 0, 67, 92
1, 320546, Control_c, 0, 67, 96
1, 320561, Control_c, 0, 67, 99
1, 320576, Control_c, 0, 67, 103
1, 320590, Control_c, 0, 67, 107
1, 320605, Control_c, 0, 67, 111
1, 320620, Control_c, 0, 67, 115
1, 320635, Control_c, 0, 67, 119
1, 320650, Control_c, 0, 67, 122
1, 320664, Control_c, 0, 67, 125
1, 320679, Control_c, 0, 67, 127
1, 321503, Note_on_c, 0, 85, 61
1, 321514, Note_on_c, 0, 66, 56
1, 321532, Note_off_c, 0, 85, 66
1, 321541, Note_on_c, 0, 57, 14
1, 321547, Control_c, 0, 64, 98
1, 321561, Control_c, 0, 64, 75
1, 321568, Note_off_c, 0, 57, 0
1, 321568, Poly_aftertouch_c, 0, 61, 0
1, 321576, Control_c, 0, 64, 56
1, 321599, Note_on_c, 0, 68, 71
1, 321599, Control_c, 0, 64, 0
1, 321613, Poly_aftertouch_c, 0, 57, 127
1, 321613, Poly_aftertouch_c, 0, 61, 127
1, 321626, Note_off_c, 0, 66, 28
1, 321650, Poly_aftertouch_c, 0, 57, 0
1, 321651, Note_off_c, 0, 68, 52
1, 321657, Poly_aftertouch_c, 0, 61, 0
1, 321689, Note_on_c, 0, 78, 68
1, 321695, Note_on_c, 0, 69, 75
1, 321710, Note_on_c, 0, 57, 32
1, 321712, Note_on_c, 0, 61, 30
1, 321722, Note_off_c, 0, 78, 58
1, 321745, Note_off_c, 0, 57, 49
1, 321746, Note_off_c, 0, 61, 46
1, 321754, Note_off_c, 0, 69, 60
1, 321869, Note_on_c, 0, 69, 70
1, 321870, Note_on_c, 0, 85, 75
1, 321875, Note_on_c, 0, 61, 63
1, 321878, Note_on_c, 0, 57, 53
1, 321894, Note_off_c, 0, 85, 65
1, 321907, Note_off_c, 0, 61, 63
1, 321907, Note_off_c, 0, 57, 60
1, 321952, Note_on_c, 0, 68, 80
1, 321966, Note_off_c, 0, 69, 30
1, 322038, Note_on_c, 0, 57, 50
1, 322042, Note_on_c, 0, 66, 75
1, 322042, Note_on_c, 0, 78, 71
1, 322046, Note_off_c, 0, 68, 31
1, 322057, Note_on_c, 0, 61, 53
1, 322082, Note_off_c, 0, 57, 56
1, 322084, Note_off_c, 0, 61, 57
1, 322091, Note_off_c, 0, 78, 51
1, 322096, Note_off_c, 0, 66, 61
1, 322209, Note_on_c, 0, 66, 79
1, 322214, Note_on_c, 0, 85, 75
1, 322228, Note_on_c, 0, 57, 52
1, 322249, Note_off_c, 0, 85, 55
1, 322253, Note_off_c, 0, 57, 58
1, 322295, Note_on_c, 0, 64, 70
1, 322307, Note_off_c, 0, 66, 57
1, 322343, Note_off_c, 0, 64, 58
1, 322416, Note_on_c, 0, 63, 60
1, 322417, Note_on_c, 0, 78, 63
1, 322420, Note_on_c, 0, 57, 52
1, 322443, Note_on_c, 0, 61, 39
1, 322467, Control_c, 0, 64, 43
1, 322482, Control_c, 0, 64, 63
1, 322497, Control_c, 0, 64, 69
1, 322509, Note_off_c, 0, 63, 58
1, 322512, Control_c, 0, 64, 76
1, 322526, Control_c, 0, 64, 82
1, 322528, Note_off_c, 0, 61, 50
1, 322529, Note_off_c, 0, 57, 50
1, 322541, Control_c, 0, 64, 88
1, 322556, Control_c, 0, 64, 93
1, 322570, Control_c, 0, 64, 95
1, 322585, Control_c, 0, 64, 97
1, 322600, Control_c, 0, 64, 99
1, 322615, Control_c, 0, 64, 103
1, 322630, Control_c, 0, 64, 108
1, 322631, Note_on_c, 0, 63, 54
1, 322638, Note_on_c, 0, 61, 50
1, 322644, Control_c, 0, 64, 116
1, 322649, Note_on_c, 0, 57, 38
1, 322652, Note_off_c, 0, 63, 63
1, 322659, Control_c, 0, 64, 127
1, 322668, Note_off_c, 0, 61, 56
1, 322679, Note_off_c, 0, 57, 55
1, 322703, Note_off_c, 0, 78, 46
1, 322721, Note_on_c, 0, 80, 66
1, 322728, Note_on_c, 0, 63, 56
1, 322758, Note_off_c, 0, 63, 60
1, 322769, Note_on_c, 0, 57, 17
1, 322774, Note_on_c, 0, 61, 9
1, 322793, Note_off_c, 0, 80, 56
1, 322825, Note_on_c, 0, 78, 69
1, 322826, Note_off_c, 0, 57, 41
1, 322847, Note_off_c, 0, 78, 69
1, 322853, Note_on_c, 0, 63, 39
1, 322884, Note_off_c, 0, 63, 56
1, 322920, Note_off_c, 0, 61, 42
1, 323090, Note_on_c, 0, 42, 70
1, 323091, Note_on_c, 0, 57, 60
1, 323106, Note_on_c, 0, 61, 58
1, 323107, Note_on_c, 0, 63, 42
1, 323112, Control_c, 0, 64, 117
1, 323127, Note_off_c, 0, 57, 60
1, 323127, Control_c, 0, 64, 91
1, 323141, Control_c, 0, 64, 75
1, 323149, Note_off_c, 0, 61, 58
1, 323155, Note_on_c, 0, 56, 79
1, 323156, Control_c, 0, 64, 59
1, 323162, Note_on_c, 0, 44, 76
1, 323165, Note_off_c, 0, 63, 51
1, 323171, Note_off_c, 0, 42, 60
1, 323171, Control_c, 0, 64, 0
1, 323214, Note_off_c, 0, 56, 63
1, 323221, Note_off_c, 0, 44, 62
1, 323227, Note_on_c, 0, 45, 88
1, 323227, Note_on_c, 0, 54, 86
1, 323239, Note_on_c, 0, 63, 60
1, 323254, Note_off_c, 0, 54, 68
1, 323259, Note_off_c, 0, 45, 66
1, 323268, Note_off_c, 0, 63, 65
1, 323276, Note_on_c, 0, 61, 11
1, 323330, Note_off_c, 0, 61, 27
1, 323410, Note_on_c, 0, 54, 74
1, 323414, Note_on_c, 0, 45, 71
1, 323430, Note_on_c, 0, 63, 57
1, 323441, Note_off_c, 0, 54, 65
1, 323444, Note_on_c, 0, 61, 25
1, 323463, Note_off_c, 0, 45, 55
1, 323489, Note_off_c, 0, 61, 41
1, 323491, Note_on_c, 0, 56, 78
1, 323498, Note_on_c, 0, 45, 49
1, 323520, Note_off_c, 0, 63, 33
1, 323525, Note_off_c, 0, 56, 60
1, 323537, Note_off_c, 0, 45, 62
1, 323571, Note_on_c, 0, 57, 71
1, 323574, Note_on_c, 0, 63, 49
1, 323585, Note_on_c, 0, 61, 52
1, 323586, Note_on_c, 0, 43, 50
1, 323596, Note_off_c, 0, 57, 66
1, 323612, Note_off_c, 0, 61, 57
1, 323612, Note_off_c, 0, 63, 62
1, 323616, Note_off_c, 0, 43, 53
1, 323740, Note_on_c, 0, 57, 55
1, 323750, Note_on_c, 0, 63, 52
1, 323775, Note_off_c, 0, 57, 60
1, 323810, Note_on_c, 0, 56, 70
1, 323821, Note_on_c, 0, 40, 47
1, 323862, Note_off_c, 0, 56, 60
1, 323867, Note_off_c, 0, 63, 42
1, 323917, Note_on_c, 0, 39, 66
1, 323922, Note_on_c, 0, 55, 62
1, 323931, Note_off_c, 0, 40, 55
1, 323943, Note_on_c, 0, 63, 27
1, 323944, Note_on_c, 0, 61, 40
1, 323961, Note_off_c, 0, 55, 58
1, 323985, Note_off_c, 0, 61, 48
1, 323987, Note_off_c, 0, 63, 48
1, 324124, Note_on_c, 0, 55, 48
1, 324128, Note_on_c, 0, 58, 40
1, 324140, Note_on_c, 0, 61, 21
1, 324155, Note_off_c, 0, 55, 51
1, 324162, Note_off_c, 0, 58, 50
1, 324169, Poly_aftertouch_c, 0, 63, 127
1, 324184, Note_on_c, 0, 40, 66
1, 324202, Note_off_c, 0, 39, 58
1, 324223, Note_off_c, 0, 61, 0
1, 324225, Note_on_c, 0, 55, 37
1, 324231, Note_on_c, 0, 58, 40
1, 324259, Note_off_c, 0, 55, 54
1, 324261, Poly_aftertouch_c, 0, 61, 127
1, 324271, Note_off_c, 0, 40, 54
1, 324278, Note_off_c, 0, 58, 46
1, 324295, Note_on_c, 0, 39, 79
1, 324303, Poly_aftertouch_c, 0, 61, 0
1, 324305, Control_c, 0, 64, 64
1, 324320, Control_c, 0, 64, 79
1, 324322, Note_off_c, 0, 39, 66
1, 324335, Control_c, 0, 64, 99
1, 324339, Poly_aftertouch_c, 0, 63, 0
1, 324350, Control_c, 0, 64, 127
1, 324541, Note_on_c, 0, 68, 76
1, 324551, Note_on_c, 0, 59, 64
1, 324560, Note_on_c, 0, 83, 87
1, 324569, Note_on_c, 0, 63, 38
1, 324572, Control_c, 0, 64, 107
1, 324579, Note_off_c, 0, 59, 64
1, 324594, Control_c, 0, 64, 79
1, 324595, Note_off_c, 0, 68, 58
1, 324609, Note_off_c, 0, 63, 51
1, 324609, Control_c, 0, 64, 23
1, 324617, Note_off_c, 0, 83, 62
1, 324624, Control_c, 0, 64, 0
1, 324631, Note_on_c, 0, 70, 82
1, 324654, Note_on_c, 0, 59, 52
1, 324679, Note_off_c, 0, 70, 61
1, 324679, Note_off_c, 0, 59, 57
1, 324712, Note_on_c, 0, 71, 88
1, 324712, Note_on_c, 0, 75, 77
1, 324727, Note_on_c, 0, 63, 69
1, 324730, Note_on_c, 0, 59, 61
1, 324732, Note_on_c, 0, 70, 27
1, 324751, Note_off_c, 0, 59, 61
1, 324754, Note_off_c, 0, 63, 68
1, 324759, Note_off_c, 0, 75, 55
1, 324760, Note_off_c, 0, 70, 40
1, 324763, Note_off_c, 0, 71, 65
1, 324873, Note_on_c, 0, 71, 80
1, 324873, Note_on_c, 0, 83, 86
1, 324888, Note_on_c, 0, 59, 48
1, 324888, Note_on_c, 0, 63, 64
1, 324909, Note_off_c, 0, 63, 64
1, 324915, Note_off_c, 0, 59, 52
1, 324916, Note_off_c, 0, 71, 62
1, 324927, Note_off_c, 0, 83, 63
1, 324956, Note_on_c, 0, 70, 87
1, 324977, Note_on_c, 0, 59, 62
1, 324997, Note_off_c, 0, 59, 62
1, 325020, Note_on_c, 0, 63, 2
1, 325021, Note_off_c, 0, 63, 127
1, 325043, Note_on_c, 0, 75, 72
1, 325048, Note_on_c, 0, 68, 80
1, 325057, Note_on_c, 0, 63, 15
1, 325058, Note_off_c, 0, 70, 34
1, 325058, Note_on_c, 0, 59, 66
1, 325085, Note_off_c, 0, 59, 65
1, 325101, Note_off_c, 0, 68, 60
1, 325106, Note_off_c, 0, 63, 57
1, 325113, Note_off_c, 0, 75, 46
1, 325208, Note_on_c, 0, 83, 76
1, 325211, Note_on_c, 0, 68, 77
1, 325220, Note_on_c, 0, 59, 59
1, 325233, Note_off_c, 0, 68, 70
1, 325242, Note_off_c, 0, 59, 63
1, 325249, Note_off_c, 0, 83, 64
1, 325290, Note_on_c, 0, 67, 80
1, 325308, Poly_aftertouch_c, 0, 63, 127
1, 325320, Note_on_c, 0, 59, 42
1, 325323, Note_off_c, 0, 67, 56
1, 325335, Poly_aftertouch_c, 0, 63, 0
1, 325356, Note_off_c, 0, 59, 56
1, 325389, Note_on_c, 0, 75, 68
1, 325397, Note_on_c, 0, 66, 73
1, 325422, Note_on_c, 0, 59, 44
1, 325441, Note_on_c, 0, 63, 34
1, 325455, Note_off_c, 0, 66, 53
1, 325478, Note_off_c, 0, 63, 53
1, 325494, Note_off_c, 0, 59, 53
1, 325576, Note_on_c, 0, 63, 63
1, 325579, Note_on_c, 0, 66, 65
1, 325596, Note_on_c, 0, 59, 47
1, 325605, Note_off_c, 0, 63, 65
1, 325606, Note_off_c, 0, 66, 65
1, 325624, Note_off_c, 0, 59, 54
1, 325639, Note_off_c, 0, 75, 60
1, 325646, Note_on_c, 0, 76, 69
1, 325664, Note_on_c, 0, 66, 72
1, 325669, Note_on_c, 0, 63, 63
1, 325690, Note_off_c, 0, 66, 65
1, 325695, Note_off_c, 0, 63, 64
1, 325729, Control_c, 0, 64, 62
1, 325734, Note_on_c, 0, 75, 75
1, 325739, Note_off_c, 0, 76, 59
1, 325743, Control_c, 0, 64, 74
1, 325754, Note_off_c, 0, 75, 71
1, 325758, Control_c, 0, 64, 88
1, 325759, Note_on_c, 0, 63, 62
1, 325769, Poly_aftertouch_c, 0, 59, 127
1, 325773, Control_c, 0, 64, 113
1, 325788, Control_c, 0, 64, 127
1, 325797, Note_on_c, 0, 66, 29
1, 325836, Poly_aftertouch_c, 0, 59, 0
1, 325842, Note_off_c, 0, 63, 56
1, 325842, Note_off_c, 0, 66, 47
1, 325963, Note_on_c, 0, 63, 71
1, 325964, Note_on_c, 0, 59, 66
1, 325968, Note_on_c, 0, 66, 66
1, 325973, Note_on_c, 0, 39, 63
1, 325990, Note_off_c, 0, 63, 66
1, 325991, Note_off_c, 0, 59, 63
1, 325995, Note_off_c, 0, 66, 65
1, 326011, Control_c, 0, 64, 101
1, 326026, Control_c, 0, 64, 73
1, 326034, Note_off_c, 0, 39, 60
1, 326041, Control_c, 0, 64, 0
1, 326046, Note_on_c, 0, 40, 75
1, 326052, Note_on_c, 0, 63, 72
1, 326053, Note_on_c, 0, 59, 64
1, 326059, Note_on_c, 0, 66, 65
1, 326073, Note_off_c, 0, 63, 69
1, 326085, Note_off_c, 0, 59, 62
1, 326086, Note_off_c, 0, 66, 66
1, 326089, Note_off_c, 0, 40, 66
1, 326122, Note_on_c, 0, 42, 97
1, 326139, Note_on_c, 0, 63, 75
1, 326143, Note_on_c, 0, 59, 68
1, 326145, Note_on_c, 0, 66, 71
1, 326160, Note_off_c, 0, 59, 65
1, 326161, Note_off_c, 0, 42, 66
1, 326162, Note_off_c, 0, 63, 67
1, 326168, Note_off_c, 0, 66, 68
1, 326305, Note_on_c, 0, 42, 82
1, 326315, Note_on_c, 0, 66, 75
1, 326316, Note_on_c, 0, 59, 60
1, 326316, Note_on_c, 0, 63, 67
1, 326336, Note_off_c, 0, 66, 68
1, 326338, Note_off_c, 0, 59, 63
1, 326342, Note_off_c, 0, 63, 68
1, 326348, Note_off_c, 0, 42, 63
1, 326381, Note_on_c, 0, 40, 80
1, 326395, Note_on_c, 0, 66, 67
1, 326402, Note_on_c, 0, 63, 62
1, 326408, Note_on_c, 0, 59, 52
1, 326420, Note_off_c, 0, 66, 66
1, 326423, Note_off_c, 0, 63, 62
1, 326433, Note_off_c, 0, 59, 59
1, 326448, Note_off_c, 0, 40, 57
1, 326461, Note_on_c, 0, 39, 86
1, 326474, Note_on_c, 0, 66, 71
1, 326478, Note_on_c, 0, 63, 77
1, 326488, Note_off_c, 0, 39, 67
1, 326497, Note_off_c, 0, 66, 66
1, 326500, Note_off_c, 0, 63, 70
1, 326637, Note_on_c, 0, 39, 77
1, 326649, Note_on_c, 0, 59, 56
1, 326650, Note_on_c, 0, 66, 64
1, 326652, Note_on_c, 0, 63, 60
1, 326672, Note_off_c, 0, 59, 60
1, 326674, Note_off_c, 0, 63, 63
1, 326674, Note_off_c, 0, 66, 66
1, 326684, Note_off_c, 0, 39, 59
1, 326729, Note_on_c, 0, 37, 68
1, 326737, Note_on_c, 0, 66, 53
1, 326748, Note_on_c, 0, 59, 29
1, 326754, Note_off_c, 0, 37, 65
1, 326762, Note_off_c, 0, 66, 59
1, 326802, Note_on_c, 0, 63, 23
1, 326814, Note_on_c, 0, 66, 64
1, 326819, Note_on_c, 0, 35, 67
1, 326851, Note_off_c, 0, 66, 62
1, 326859, Note_off_c, 0, 63, 57
1, 326893, Note_off_c, 0, 59, 18
1, 327011, Note_on_c, 0, 59, 54
1, 327011, Note_on_c, 0, 62, 66
1, 327015, Note_on_c, 0, 66, 66
1, 327038, Note_off_c, 0, 62, 65
1, 327040, Note_off_c, 0, 66, 65
1, 327043, Note_off_c, 0, 59, 61
1, 327108, Note_on_c, 0, 62, 62
1, 327108, Note_on_c, 0, 66, 60
1, 327111, Note_on_c, 0, 37, 63
1, 327114, Note_off_c, 0, 35, 62
1, 327126, Note_on_c, 0, 59, 50
1, 327138, Note_off_c, 0, 66, 64
1, 327138, Note_off_c, 0, 62, 63
1, 327153, Note_off_c, 0, 59, 55
1, 327180, Note_off_c, 0, 37, 62
1, 327208, Note_on_c, 0, 66, 66
1, 327212, Note_on_c, 0, 62, 52
1, 327227, Control_c, 0, 64, 49
1, 327231, Note_on_c, 0, 35, 54
1, 327235, Note_off_c, 0, 62, 58
1, 327241, Control_c, 0, 64, 71
1, 327243, Note_off_c, 0, 66, 62
1, 327256, Control_c, 0, 64, 84
1, 327258, Note_off_c, 0, 35, 59
1, 327271, Control_c, 0, 64, 127
1, 327386, Note_on_c, 0, 70, 39
1, 327415, Note_off_c, 0, 70, 54
1, 327481, Note_on_c, 0, 78, 83
1, 327483, Note_on_c, 0, 71, 60
1, 327483, Note_on_c, 0, 72, 57
1, 327504, Note_on_c, 0, 62, 25
1, 327507, Note_off_c, 0, 72, 64
1, 327511, Note_off_c, 0, 71, 68
1, 327529, Note_off_c, 0, 78, 56
1, 327553, Control_c, 0, 64, 99
1, 327554, Note_on_c, 0, 73, 85
1, 327568, Control_c, 0, 64, 79
1, 327590, Control_c, 0, 64, 62
1, 327594, Poly_aftertouch_c, 0, 66, 127
1, 327605, Control_c, 0, 64, 0
1, 327606, Note_off_c, 0, 73, 59
1, 327645, Poly_aftertouch_c, 0, 66, 0
1, 327647, Note_on_c, 0, 71, 74
1, 327652, Note_off_c, 0, 62, 0
1, 327655, Note_on_c, 0, 74, 89
1, 327657, Note_on_c, 0, 66, 59
1, 327665, Note_on_c, 0, 62, 42
1, 327686, Note_off_c, 0, 66, 63
1, 327690, Note_off_c, 0, 62, 57
1, 327690, Note_off_c, 0, 71, 63
1, 327710, Note_off_c, 0, 74, 62
1, 327830, Note_on_c, 0, 74, 77
1, 327842, Note_on_c, 0, 78, 74
1, 327851, Note_on_c, 0, 66, 39
1, 327881, Note_off_c, 0, 78, 46
1, 327887, Note_off_c, 0, 74, 37
1, 327907, Note_on_c, 0, 73, 69
1, 327911, Poly_aftertouch_c, 0, 62, 127
1, 327931, Note_off_c, 0, 73, 68
1, 327940, Poly_aftertouch_c, 0, 62, 0
1, 327955, Note_off_c, 0, 66, 27
1, 328000, Note_on_c, 0, 71, 83
1, 328026, Note_on_c, 0, 62, 52
1, 328028, Note_on_c, 0, 66, 50
1, 328053, Note_off_c, 0, 62, 55
1, 328059, Note_off_c, 0, 66, 53
1, 328064, Note_off_c, 0, 71, 58
1, 328188, Note_on_c, 0, 78, 74
1, 328191, Note_on_c, 0, 71, 63
1, 328194, Note_on_c, 0, 66, 54
1, 328208, Note_on_c, 0, 62, 35
1, 328217, Note_off_c, 0, 66, 62
1, 328219, Note_off_c, 0, 71, 64
1, 328227, Note_off_c, 0, 78, 50
1, 328243, Note_off_c, 0, 62, 48
1, 328265, Note_on_c, 0, 69, 74
1, 328293, Note_off_c, 0, 69, 62
1, 328384, Note_on_c, 0, 71, 64
1, 328402, Note_on_c, 0, 68, 70
1, 328418, Note_on_c, 0, 65, 48
1, 328420, Note_on_c, 0, 62, 39
1, 328427, Control_c, 0, 64, 19
1, 328442, Control_c, 0, 64, 62
1, 328457, Control_c, 0, 64, 68
1, 328472, Control_c, 0, 64, 74
1, 328486, Control_c, 0, 64, 80
1, 328488, Note_off_c, 0, 65, 52
1, 328488, Note_off_c, 0, 68, 56
1, 328501, Note_off_c, 0, 62, 38
1, 328501, Control_c, 0, 64, 87
1, 328516, Control_c, 0, 64, 93
1, 328530, Control_c, 0, 64, 98
1, 328545, Control_c, 0, 64, 101
1, 328560, Control_c, 0, 64, 103
1, 328575, Control_c, 0, 64, 103
1, 328601, Note_on_c, 0, 68, 52
1, 328602, Note_on_c, 0, 65, 50
1, 328603, Note_on_c, 0, 62, 38
1, 328619, Note_off_c, 0, 68, 64
1, 328625, Note_off_c, 0, 65, 60
1, 328634, Note_off_c, 0, 62, 52
1, 328659, Note_off_c, 0, 71, 62
1, 328680, Note_on_c, 0, 73, 70
1, 328682, Note_on_c, 0, 68, 61
1, 328704, Note_on_c, 0, 65, 57
1, 328709, Control_c, 0, 64, 103
1, 328718, Note_on_c, 0, 62, 33
1, 328719, Note_off_c, 0, 68, 59
1, 328723, Control_c, 0, 64, 95
1, 328724, Note_off_c, 0, 65, 63
1, 328738, Control_c, 0, 64, 85
1, 328753, Control_c, 0, 64, 76
1, 328754, Note_off_c, 0, 62, 50
1, 328768, Control_c, 0, 64, 74
1, 328783, Control_c, 0, 64, 80
1, 328793, Note_off_c, 0, 73, 54
1, 328797, Control_c, 0, 64, 87
1, 328799, Note_on_c, 0, 68, 57
1, 328799, Note_on_c, 0, 71, 61
1, 328802, Note_on_c, 0, 65, 54
1, 328812, Control_c, 0, 64, 95
1, 328820, Note_on_c, 0, 62, 39
1, 328825, Note_off_c, 0, 71, 66
1, 328825, Note_off_c, 0, 68, 59
1, 328827, Control_c, 0, 64, 101
1, 328828, Note_off_c, 0, 65, 57
1, 328842, Control_c, 0, 64, 105
1, 328857, Control_c, 0, 64, 107
1, 328864, Note_off_c, 0, 62, 55
1, 329035, Note_on_c, 0, 47, 64
1, 329035, Note_on_c, 0, 68, 60
1, 329037, Note_on_c, 0, 62, 60
1, 329046, Note_on_c, 0, 65, 46
1, 329065, Control_c, 0, 64, 107
1, 329084, Note_off_c, 0, 62, 60
1, 329088, Control_c, 0, 64, 106
1, 329102, Control_c, 0, 64, 104
1, 329117, Control_c, 0, 64, 103
1, 329128, Note_off_c, 0, 65, 62
1, 329132, Control_c, 0, 64, 103
1, 329133, Note_off_c, 0, 68, 60
1, 329136, Note_on_c, 0, 61, 69
1, 329137, Note_off_c, 0, 47, 56
1, 329138, Note_on_c, 0, 49, 71
1, 329147, Control_c, 0, 64, 102
1, 329176, Control_c, 0, 64, 101
1, 329206, Control_c, 0, 64, 101
1, 329221, Control_c, 0, 64, 100
1, 329235, Control_c, 0, 64, 97
1, 329236, Note_off_c, 0, 49, 56
1, 329244, Note_off_c, 0, 61, 61
1, 329249, Note_on_c, 0, 68, 56
1, 329250, Control_c, 0, 64, 88
1, 329258, Note_on_c, 0, 50, 55
1, 329263, Note_on_c, 0, 65, 56
1, 329265, Control_c, 0, 64, 71
1, 329267, Note_on_c, 0, 59, 59
1, 329280, Control_c, 0, 64, 35
1, 329295, Control_c, 0, 64, 0
1, 329383, Control_c, 0, 64, 59
1, 329398, Control_c, 0, 64, 69
1, 329413, Control_c, 0, 64, 76
1, 329423, Note_off_c, 0, 50, 61
1, 329428, Control_c, 0, 64, 84
1, 329443, Control_c, 0, 64, 92
1, 329457, Control_c, 0, 64, 97
1, 329472, Control_c, 0, 64, 100
1, 329481, Note_on_c, 0, 50, 56
1, 329487, Control_c, 0, 64, 100
1, 329537, Note_off_c, 0, 65, 61
1, 329557, Note_on_c, 0, 49, 73
1, 329560, Note_off_c, 0, 59, 58
1, 329563, Note_off_c, 0, 50, 63
1, 329644, Note_off_c, 0, 49, 63
1, 329645, Note_on_c, 0, 47, 70
1, 329705, Note_off_c, 0, 47, 56
1, 329739, Note_off_c, 0, 68, 28
1, 329827, Note_on_c, 0, 47, 68
1, 329827, Note_on_c, 0, 68, 75
1, 329830, Note_on_c, 0, 62, 62
1, 329835, Control_c, 0, 64, 100
1, 329851, Control_c, 0, 64, 98
1, 329857, Note_on_c, 0, 65, 21
1, 329863, Note_off_c, 0, 62, 61
1, 329866, Control_c, 0, 64, 93
1, 329881, Control_c, 0, 64, 83
1, 329883, Note_off_c, 0, 47, 57
1, 329896, Note_off_c, 0, 65, 43
1, 329896, Control_c, 0, 64, 72
1, 329901, Note_on_c, 0, 45, 69
1, 329903, Note_on_c, 0, 69, 79
1, 329911, Control_c, 0, 64, 58
1, 329922, Note_off_c, 0, 68, 29
1, 329925, Control_c, 0, 64, 0
1, 329984, Note_off_c, 0, 45, 54
1, 329994, Note_off_c, 0, 69, 63
1, 330009, Note_on_c, 0, 44, 66
1, 330011, Note_on_c, 0, 71, 63
1, 330014, Note_on_c, 0, 62, 41
1, 330015, Note_on_c, 0, 65, 42
1, 330146, Note_off_c, 0, 44, 59
1, 330227, Note_on_c, 0, 44, 61
1, 330319, Note_off_c, 0, 44, 61
1, 330322, Note_on_c, 0, 45, 55
1, 330354, Control_c, 0, 64, 28
1, 330369, Control_c, 0, 64, 57
1, 330383, Control_c, 0, 64, 64
1, 330391, Note_off_c, 0, 71, 62
1, 330396, Note_off_c, 0, 45, 64
1, 330398, Control_c, 0, 64, 69
1, 330413, Control_c, 0, 64, 73
1, 330415, Note_on_c, 0, 47, 58
1, 330417, Note_off_c, 0, 65, 63
1, 330428, Control_c, 0, 64, 79
1, 330443, Control_c, 0, 64, 86
1, 330457, Control_c, 0, 64, 95
1, 330472, Control_c, 0, 64, 103
1, 330487, Control_c, 0, 64, 108
1, 330501, Control_c, 0, 64, 111
1, 330516, Note_off_c, 0, 47, 51
1, 330516, Control_c, 0, 64, 112
1, 330531, Control_c, 0, 64, 113
1, 330541, Note_off_c, 0, 62, 36
1, 330583, Control_c, 0, 64, 113
1, 330598, Note_on_c, 0, 47, 49
1, 330611, Note_on_c, 0, 62, 46
1, 330613, Note_on_c, 0, 68, 56
1, 330635, Note_on_c, 0, 65, 48
1, 330670, Note_off_c, 0, 62, 57
1, 330677, Note_off_c, 0, 47, 60
1, 330689, Note_on_c, 0, 61, 67
1, 330691, Note_on_c, 0, 49, 60
1, 330702, Note_off_c, 0, 68, 53
1, 330747, Control_c, 0, 64, 113
1, 330751, Note_off_c, 0, 65, 0
1, 330775, Note_on_c, 0, 65, 18
1, 330781, Note_off_c, 0, 61, 60
1, 330785, Note_off_c, 0, 49, 53
1, 330792, Control_c, 0, 64, 102
1, 330797, Note_on_c, 0, 50, 56
1, 330797, Note_on_c, 0, 68, 62
1, 330806, Control_c, 0, 64, 87
1, 330810, Note_on_c, 0, 59, 62
1, 330821, Control_c, 0, 64, 71
1, 330836, Control_c, 0, 64, 27
1, 330851, Control_c, 0, 64, 0
1, 330924, Control_c, 0, 64, 50
1, 330939, Control_c, 0, 64, 65
1, 330946, Note_off_c, 0, 50, 62
1, 330954, Control_c, 0, 64, 71
1, 330969, Control_c, 0, 64, 77
1, 330984, Control_c, 0, 64, 81
1, 330999, Control_c, 0, 64, 83
1, 331004, Note_on_c, 0, 50, 53
1, 331013, Control_c, 0, 64, 85
1, 331028, Control_c, 0, 64, 86
1, 331043, Control_c, 0, 64, 87
1, 331058, Control_c, 0, 64, 87
1, 331083, Note_off_c, 0, 50, 64
1, 331085, Note_on_c, 0, 49, 72
1, 331103, Control_c, 0, 64, 86
1, 331112, Note_off_c, 0, 65, 57
1, 331118, Control_c, 0, 64, 82
1, 331132, Control_c, 0, 64, 75
1, 331133, Note_off_c, 0, 59, 59
1, 331147, Control_c, 0, 64, 69
1, 331162, Control_c, 0, 64, 68
1, 331177, Control_c, 0, 64, 70
1, 331184, Note_off_c, 0, 49, 60
1, 331189, Note_on_c, 0, 47, 67
1, 331192, Control_c, 0, 64, 72
1, 331206, Control_c, 0, 64, 74
1, 331221, Control_c, 0, 64, 77
1, 331236, Control_c, 0, 64, 80
1, 331243, Note_off_c, 0, 68, 56
1, 331251, Control_c, 0, 64, 83
1, 331266, Control_c, 0, 64, 85
1, 331270, Note_off_c, 0, 47, 62
1, 331280, Control_c, 0, 64, 85
1, 331374, Note_on_c, 0, 68, 65
1, 331378, Note_on_c, 0, 65, 50
1, 331379, Note_on_c, 0, 62, 60
1, 331381, Note_on_c, 0, 47, 60
1, 331404, Note_off_c, 0, 65, 63
1, 331411, Note_off_c, 0, 62, 63
1, 331424, Note_off_c, 0, 47, 63
1, 331425, Note_off_c, 0, 68, 55
1, 331467, Control_c, 0, 64, 85
1, 331469, Note_on_c, 0, 45, 58
1, 331475, Note_on_c, 0, 69, 67
1, 331495, Note_on_c, 0, 65, 40
1, 331514, Note_off_c, 0, 45, 59
1, 331523, Note_off_c, 0, 65, 54
1, 331556, Control_c, 0, 64, 84
1, 331571, Control_c, 0, 64, 82
1, 331583, Note_off_c, 0, 69, 57
1, 331586, Control_c, 0, 64, 77
1, 331601, Control_c, 0, 64, 69
1, 331604, Poly_aftertouch_c, 0, 62, 0
1, 331604, Note_on_c, 0, 71, 64
1, 331607, Note_on_c, 0, 65, 50
1, 331616, Control_c, 0, 64, 53
1, 331622, Note_on_c, 0, 62, 26
1, 331628, Note_on_c, 0, 44, 58
1, 331630, Control_c, 0, 64, 0
1, 331734, Control_c, 0, 64, 33
1, 331748, Control_c, 0, 64, 65
1, 331758, Note_off_c, 0, 44, 62
1, 331763, Control_c, 0, 64, 72
1, 331778, Control_c, 0, 64, 77
1, 331793, Control_c, 0, 64, 82
1, 331808, Control_c, 0, 64, 84
1, 331822, Control_c, 0, 64, 85
1, 331827, Note_on_c, 0, 44, 59
1, 331852, Control_c, 0, 64, 83
1, 331867, Control_c, 0, 64, 78
1, 331882, Control_c, 0, 64, 70
1, 331896, Control_c, 0, 64, 59
1, 331911, Control_c, 0, 64, 0
1, 331923, Note_on_c, 0, 45, 64
1, 331929, Note_off_c, 0, 44, 60
1, 332022, Note_off_c, 0, 45, 64
1, 332040, Note_on_c, 0, 47, 56
1, 332082, Control_c, 0, 64, 58
1, 332094, Note_off_c, 0, 71, 59
1, 332095, Note_off_c, 0, 65, 62
1, 332097, Control_c, 0, 64, 68
1, 332111, Control_c, 0, 64, 76
1, 332126, Control_c, 0, 64, 84
1, 332141, Control_c, 0, 64, 90
1, 332155, Control_c, 0, 64, 95
1, 332170, Control_c, 0, 64, 98
1, 332172, Note_off_c, 0, 47, 57
1, 332185, Control_c, 0, 64, 99
1, 332194, Note_off_c, 0, 62, 41
1, 332200, Control_c, 0, 64, 100
1, 332215, Control_c, 0, 64, 100
1, 332286, Note_on_c, 0, 47, 58
1, 332290, Note_on_c, 0, 62, 59
1, 332292, Note_on_c, 0, 68, 57
1, 332316, Note_off_c, 0, 47, 64
1, 332319, Note_on_c, 0, 65, 31
1, 332319, Control_c, 0, 64, 99
1, 332334, Control_c, 0, 64, 98
1, 332349, Control_c, 0, 64, 97
1, 332364, Control_c, 0, 64, 97
1, 332402, Note_on_c, 0, 47, 56
1, 332513, Control_c, 0, 64, 97
1, 332542, Control_c, 0, 64, 98
1, 332617, Note_off_c, 0, 47, 50
1, 332630, Note_on_c, 0, 61, 61
1, 332645, Control_c, 0, 64, 94
1, 332653, Note_on_c, 0, 49, 51
1, 332660, Control_c, 0, 64, 88
1, 332675, Control_c, 0, 64, 78
1, 332689, Control_c, 0, 64, 66
1, 332704, Control_c, 0, 64, 28
1, 332711, Note_off_c, 0, 62, 43
1, 332719, Control_c, 0, 64, 0
1, 332883, Note_off_c, 0, 49, 60
1, 332890, Control_c, 0, 64, 63
1, 332904, Control_c, 0, 64, 73
1, 332917, Note_on_c, 0, 44, 51
1, 332919, Control_c, 0, 64, 84
1, 332934, Control_c, 0, 64, 99
1, 332949, Control_c, 0, 64, 119
1, 332964, Control_c, 0, 64, 127
1, 332993, Note_off_c, 0, 44, 0
1, 333006, Note_on_c, 0, 44, 50
1, 333050, Note_off_c, 0, 44, 54
1, 333124, Note_on_c, 0, 53, 53
1, 333178, Note_off_c, 0, 53, 55
1, 333321, Note_on_c, 0, 41, 59
1, 333386, Note_off_c, 0, 41, 0
1, 333398, Note_on_c, 0, 41, 49
1, 333433, Note_off_c, 0, 41, 61
1, 333511, Note_on_c, 0, 56, 66
1, 333543, Note_off_c, 0, 56, 64
1, 333711, Note_on_c, 0, 37, 53
1, 333741, Note_off_c, 0, 37, 55
1, 333756, Note_off_c, 0, 65, 42
1, 333791, Note_on_c, 0, 37, 60
1, 333819, Note_off_c, 0, 37, 62
1, 333845, Note_off_c, 0, 68, 60
1, 333952, Note_on_c, 0, 59, 57
1, 333980, Note_off_c, 0, 59, 64
1, 334173, Note_on_c, 0, 47, 61
1, 334184, Note_on_c, 0, 62, 57
1, 334201, Note_on_c, 0, 56, 51
1, 334201, Note_off_c, 0, 47, 66
1, 334226, Note_on_c, 0, 53, 34
1, 334233, Note_off_c, 0, 61, 59
1, 334246, Control_c, 0, 64, 91
1, 334261, Control_c, 0, 64, 70
1, 334276, Control_c, 0, 64, 17
1, 334283, Note_on_c, 0, 47, 48
1, 334290, Control_c, 0, 64, 0
1, 334328, Control_c, 0, 64, 56
1, 334342, Control_c, 0, 64, 67
1, 334357, Control_c, 0, 64, 75
1, 334372, Control_c, 0, 64, 86
1, 334387, Control_c, 0, 64, 107
1, 334402, Control_c, 0, 64, 127
1, 334481, Note_off_c, 0, 47, 56
1, 334493, Note_on_c, 0, 61, 56
1, 334497, Note_on_c, 0, 49, 55
1, 334549, Control_c, 0, 64, 96
1, 334564, Control_c, 0, 64, 72
1, 334579, Control_c, 0, 64, 0
1, 334588, Note_off_c, 0, 62, 55
1, 334677, Note_off_c, 0, 49, 60
1, 334713, Control_c, 0, 64, 57
1, 334728, Note_on_c, 0, 44, 54
1, 334728, Control_c, 0, 64, 68
1, 334743, Control_c, 0, 64, 76
1, 334758, Note_off_c, 0, 44, 64
1, 334758, Control_c, 0, 64, 86
1, 334772, Control_c, 0, 64, 101
1, 334787, Control_c, 0, 64, 120
1, 334802, Control_c, 0, 64, 127
1, 334838, Note_on_c, 0, 44, 55
1, 334884, Note_off_c, 0, 44, 51
1, 334900, Note_off_c, 0, 53, 45
1, 335002, Note_on_c, 0, 53, 57
1, 335041, Note_off_c, 0, 53, 62
1, 335094, Note_off_c, 0, 56, 50
1, 335261, Note_on_c, 0, 41, 49
1, 335291, Note_off_c, 0, 41, 53
1, 335367, Note_on_c, 0, 41, 62
1, 335401, Note_off_c, 0, 41, 61
1, 335548, Note_on_c, 0, 56, 63
1, 335577, Note_off_c, 0, 56, 65
1, 335853, Note_on_c, 0, 37, 52
1, 335892, Note_off_c, 0, 37, 59
1, 336012, Note_on_c, 0, 37, 49
1, 336331, Note_on_c, 0, 59, 55
1, 336390, Control_c, 0, 64, 106
1, 336405, Control_c, 0, 64, 80
1, 336419, Control_c, 0, 64, 57
1, 336434, Control_c, 0, 64, 0
1, 336508, Control_c, 0, 64, 63
1, 336523, Control_c, 0, 64, 74
1, 336532, Note_off_c, 0, 37, 54
1, 336537, Control_c, 0, 64, 89
1, 336552, Control_c, 0, 64, 127
1, 336723, Control_c, 0, 67, 124
1, 336734, Note_off_c, 0, 59, 57
1, 336738, Control_c, 0, 67, 121
1, 336752, Control_c, 0, 67, 118
1, 336767, Control_c, 0, 67, 112
1, 336782, Control_c, 0, 67, 106
1, 336784, Note_off_c, 0, 61, 63
1, 336797, Control_c, 0, 67, 100
1, 336812, Control_c, 0, 67, 94
1, 336826, Control_c, 0, 67, 90
1, 336841, Control_c, 0, 67, 88
1, 336856, Control_c, 0, 67, 87
1, 336871, Control_c, 0, 67, 86
1, 336960, Control_c, 0, 67, 86
1, 336975, Control_c, 0, 67, 87
1, 336990, Control_c, 0, 67, 88
1, 337005, Control_c, 0, 67, 89
1, 337019, Control_c, 0, 67, 89
1, 337035, Control_c, 0, 67, 90
1, 337050, Control_c, 0, 67, 90
1, 337065, Control_c, 0, 67, 91
1, 337080, Control_c, 0, 67, 92
1, 337095, Control_c, 0, 67, 92
1, 337109, Control_c, 0, 67, 93
1, 337124, Control_c, 0, 67, 93
1, 337139, Control_c, 0, 67, 94
1, 337145, Note_on_c, 0, 66, 51
1, 337149, Note_on_c, 0, 45, 43
1, 337154, Control_c, 0, 67, 94
1, 337168, Control_c, 0, 67, 96
1, 337183, Control_c, 0, 67, 96
1, 337198, Control_c, 0, 64, 96
1, 337198, Control_c, 0, 67, 97
1, 337213, Control_c, 0, 64, 73
1, 337213, Control_c, 0, 67, 98
1, 337228, Control_c, 0, 64, 26
1, 337228, Control_c, 0, 67, 99
1, 337242, Control_c, 0, 64, 0
1, 337242, Control_c, 0, 67, 100
1, 337257, Control_c, 0, 67, 101
1, 337272, Control_c, 0, 67, 102
1, 337286, Control_c, 0, 67, 103
1, 337301, Control_c, 0, 64, 47
1, 337301, Control_c, 0, 67, 104
1, 337324, Control_c, 0, 64, 65
1, 337324, Control_c, 0, 67, 105
1, 337339, Control_c, 0, 64, 74
1, 337354, Control_c, 0, 64, 87
1, 337354, Control_c, 0, 67, 105
1, 337368, Control_c, 0, 64, 107
1, 337368, Control_c, 0, 67, 106
1, 337376, Note_on_c, 0, 68, 58
1, 337383, Control_c, 0, 64, 127
1, 337413, Control_c, 0, 67, 106
1, 337416, Note_on_c, 0, 54, 36
1, 337424, Note_off_c, 0, 45, 42
1, 337425, Note_off_c, 0, 66, 37
1, 337565, Note_on_c, 0, 69, 60
1, 337577, Note_off_c, 0, 68, 50
1, 337599, Note_off_c, 0, 54, 25
1, 337640, Note_on_c, 0, 61, 41
1, 337679, Note_off_c, 0, 61, 60
1, 337722, Note_on_c, 0, 71, 65
1, 337729, Note_off_c, 0, 69, 55
1, 337768, Control_c, 0, 67, 106
1, 337807, Note_off_c, 0, 71, 61
1, 337838, Note_on_c, 0, 69, 70
1, 337843, Control_c, 0, 64, 92
1, 337858, Control_c, 0, 64, 76
1, 337870, Note_on_c, 0, 45, 35
1, 337873, Control_c, 0, 64, 73
1, 337887, Control_c, 0, 64, 78
1, 337902, Control_c, 0, 64, 85
1, 337903, Note_off_c, 0, 45, 55
1, 337917, Control_c, 0, 64, 96
1, 337918, Note_off_c, 0, 69, 56
1, 337923, Note_on_c, 0, 71, 70
1, 337932, Control_c, 0, 64, 118
1, 337947, Control_c, 0, 64, 127
1, 337957, Note_on_c, 0, 54, 37
1, 337991, Control_c, 0, 67, 106
1, 338005, Note_off_c, 0, 54, 56
1, 338013, Note_off_c, 0, 71, 63
1, 338015, Note_on_c, 0, 73, 73
1, 338051, Control_c, 0, 67, 107
1, 338066, Note_on_c, 0, 61, 44
1, 338098, Note_off_c, 0, 61, 53
1, 338109, Note_on_c, 0, 74, 74
1, 338109, Note_off_c, 0, 73, 62
1, 338132, Control_c, 0, 67, 106
1, 338177, Control_c, 0, 64, 84
1, 338191, Control_c, 0, 64, 57
1, 338191, Control_c, 0, 67, 106
1, 338192, Note_off_c, 0, 74, 63
1, 338206, Control_c, 0, 64, 0
1, 338212, Note_on_c, 0, 73, 67
1, 338242, Note_on_c, 0, 45, 40
1, 338280, Control_c, 0, 64, 57
1, 338295, Control_c, 0, 64, 73
1, 338295, Control_c, 0, 67, 106
1, 338309, Control_c, 0, 64, 90
1, 338324, Control_c, 0, 64, 127
1, 338340, Note_off_c, 0, 45, 39
1, 338364, Note_off_c, 0, 73, 62
1, 338364, Note_on_c, 0, 54, 45
1, 338413, Control_c, 0, 67, 107
1, 338465, Note_on_c, 0, 78, 74
1, 338499, Note_off_c, 0, 78, 60
1, 338516, Control_c, 0, 67, 107
1, 338518, Note_off_c, 0, 54, 54
1, 338546, Control_c, 0, 67, 108
1, 338564, Note_on_c, 0, 61, 48
1, 338565, Note_on_c, 0, 78, 47
1, 338576, Control_c, 0, 67, 108
1, 338615, Note_off_c, 0, 61, 60
1, 338651, Control_c, 0, 67, 109
1, 338681, Control_c, 0, 67, 109
1, 338695, Control_c, 0, 67, 111
1, 338710, Control_c, 0, 67, 113
1, 338725, Control_c, 0, 67, 113
1, 338740, Control_c, 0, 67, 114
1, 338753, Poly_aftertouch_c, 0, 54, 127
1, 338755, Control_c, 0, 67, 114
1, 338770, Control_c, 0, 67, 115
1, 338785, Control_c, 0, 67, 116
1, 338800, Control_c, 0, 67, 117
1, 338803, Poly_aftertouch_c, 0, 54, 0
1, 338821, Control_c, 0, 67, 118
1, 338825, Note_on_c, 0, 45, 40
1, 338836, Control_c, 0, 67, 118
1, 338851, Control_c, 0, 67, 119
1, 338886, Note_on_c, 0, 73, 63
1, 338946, Note_off_c, 0, 45, 36
1, 338960, Note_on_c, 0, 54, 40
1, 338970, Control_c, 0, 67, 118
1, 338999, Control_c, 0, 67, 118
1, 339058, Note_off_c, 0, 54, 51
1, 339058, Control_c, 0, 67, 117
1, 339060, Note_off_c, 0, 73, 61
1, 339073, Control_c, 0, 67, 117
1, 339085, Note_on_c, 0, 61, 50
1, 339103, Control_c, 0, 67, 116
1, 339113, Note_off_c, 0, 61, 63
1, 339118, Control_c, 0, 67, 115
1, 339132, Control_c, 0, 67, 115
1, 339147, Control_c, 0, 67, 114
1, 339162, Control_c, 0, 67, 114
1, 339177, Control_c, 0, 67, 113
1, 339192, Control_c, 0, 67, 112
1, 339206, Control_c, 0, 67, 111
1, 339221, Control_c, 0, 67, 111
1, 339236, Control_c, 0, 67, 110
1, 339245, Note_off_c, 0, 78, 43
1, 339250, Poly_aftertouch_c, 0, 54, 127
1, 339251, Control_c, 0, 67, 110
1, 339258, Note_on_c, 0, 45, 53
1, 339265, Note_on_c, 0, 73, 61
1, 339265, Control_c, 0, 67, 109
1, 339281, Poly_aftertouch_c, 0, 54, 0
1, 339302, Note_off_c, 0, 45, 62
1, 339337, Note_on_c, 0, 78, 69
1, 339349, Note_off_c, 0, 73, 61
1, 339369, Note_on_c, 0, 54, 44
1, 339390, Note_off_c, 0, 78, 62
1, 339406, Note_off_c, 0, 54, 60
1, 339444, Control_c, 0, 67, 109
1, 339452, Note_on_c, 0, 61, 44
1, 339452, Note_on_c, 0, 78, 58
1, 339481, Note_off_c, 0, 61, 56
1, 339615, Control_c, 0, 64, 105
1, 339615, Control_c, 0, 67, 109
1, 339619, Note_off_c, 0, 78, 60
1, 339630, Control_c, 0, 64, 74
1, 339644, Control_c, 0, 64, 45
1, 339644, Control_c, 0, 67, 110
1, 339646, Note_on_c, 0, 44, 57
1, 339652, Note_on_c, 0, 73, 61
1, 339659, Control_c, 0, 64, 0
1, 339664, Note_on_c, 0, 71, 52
1, 339674, Control_c, 0, 64, 23
1, 339688, Control_c, 0, 64, 59
1, 339688, Control_c, 0, 67, 109
1, 339703, Control_c, 0, 64, 66
1, 339705, Note_off_c, 0, 44, 62
1, 339718, Control_c, 0, 64, 76
1, 339724, Note_off_c, 0, 73, 61
1, 339727, Note_on_c, 0, 80, 68
1, 339731, Note_on_c, 0, 49, 62
1, 339733, Control_c, 0, 64, 89
1, 339748, Control_c, 0, 64, 121
1, 339748, Control_c, 0, 67, 109
1, 339756, Note_off_c, 0, 80, 61
1, 339762, Control_c, 0, 64, 127
1, 339822, Note_on_c, 0, 61, 56
1, 339825, Note_off_c, 0, 71, 33
1, 339825, Note_on_c, 0, 80, 69
1, 339846, Note_off_c, 0, 61, 63
1, 339961, Note_off_c, 0, 49, 60
1, 339970, Control_c, 0, 64, 114
1, 339985, Control_c, 0, 64, 76
1, 339995, Note_off_c, 0, 80, 61
1, 340000, Note_on_c, 0, 42, 55
1, 340000, Control_c, 0, 64, 0
1, 340000, Control_c, 0, 67, 109
1, 340010, Note_on_c, 0, 73, 70
1, 340017, Note_on_c, 0, 69, 59
1, 340044, Control_c, 0, 64, 58
1, 340059, Control_c, 0, 64, 70
1, 340060, Note_off_c, 0, 42, 61
1, 340074, Control_c, 0, 64, 84
1, 340076, Note_on_c, 0, 49, 62
1, 340083, Note_on_c, 0, 81, 80
1, 340088, Control_c, 0, 64, 127
1, 340088, Control_c, 0, 67, 109
1, 340098, Note_off_c, 0, 73, 62
1, 340103, Control_c, 0, 67, 108
1, 340125, Note_off_c, 0, 81, 59
1, 340133, Control_c, 0, 67, 108
1, 340148, Control_c, 0, 67, 107
1, 340179, Note_off_c, 0, 69, 35
1, 340184, Note_on_c, 0, 81, 66
1, 340189, Note_on_c, 0, 61, 39
1, 340207, Control_c, 0, 67, 108
1, 340224, Note_off_c, 0, 61, 53
1, 340238, Control_c, 0, 67, 109
1, 340319, Control_c, 0, 67, 109
1, 340323, Note_off_c, 0, 49, 60
1, 340364, Control_c, 0, 67, 110
1, 340369, Note_on_c, 0, 42, 53
1, 340394, Note_on_c, 0, 69, 58
1, 340394, Note_on_c, 0, 73, 63
1, 340436, Control_c, 0, 67, 110
1, 340440, Note_off_c, 0, 42, 61
1, 340441, Note_on_c, 0, 49, 67
1, 340466, Control_c, 0, 67, 111
1, 340510, Control_c, 0, 67, 111
1, 340549, Note_off_c, 0, 73, 57
1, 340551, Note_on_c, 0, 61, 62
1, 340555, Control_c, 0, 67, 112
1, 340570, Control_c, 0, 67, 113
1, 340579, Note_off_c, 0, 61, 65
1, 340584, Control_c, 0, 67, 113
1, 340599, Note_off_c, 0, 69, 38
1, 340614, Control_c, 0, 67, 114
1, 340629, Control_c, 0, 67, 114
1, 340658, Control_c, 0, 67, 115
1, 340688, Control_c, 0, 67, 115
1, 340703, Control_c, 0, 67, 116
1, 340706, Note_off_c, 0, 81, 59
1, 340709, Note_off_c, 0, 49, 61
1, 340717, Control_c, 0, 67, 116
1, 340738, Note_on_c, 0, 42, 57
1, 340747, Control_c, 0, 67, 117
1, 340752, Note_on_c, 0, 73, 67
1, 340754, Note_on_c, 0, 69, 56
1, 340762, Control_c, 0, 67, 117
1, 340791, Control_c, 0, 67, 118
1, 340806, Control_c, 0, 67, 119
1, 340810, Note_off_c, 0, 42, 62
1, 340810, Note_off_c, 0, 73, 55
1, 340820, Note_on_c, 0, 81, 74
1, 340821, Control_c, 0, 67, 119
1, 340824, Note_on_c, 0, 49, 67
1, 340836, Control_c, 0, 67, 120
1, 340851, Control_c, 0, 67, 121
1, 340854, Note_off_c, 0, 81, 58
1, 340865, Control_c, 0, 67, 122
1, 340880, Control_c, 0, 67, 124
1, 340895, Control_c, 0, 67, 125
1, 340901, Note_off_c, 0, 69, 34
1, 340910, Control_c, 0, 67, 126
1, 340915, Note_on_c, 0, 81, 66
1, 340925, Control_c, 0, 67, 127
1, 340930, Note_on_c, 0, 61, 54
1, 340940, Control_c, 0, 67, 127
1, 340952, Note_off_c, 0, 81, 59
1, 340958, Note_off_c, 0, 61, 60
1, 341099, Note_off_c, 0, 49, 59
1, 341123, Note_on_c, 0, 44, 56
1, 341126, Control_c, 0, 64, 98
1, 341137, Note_on_c, 0, 73, 63
1, 341140, Control_c, 0, 64, 68
1, 341145, Note_on_c, 0, 68, 51
1, 341156, Control_c, 0, 64, 0
1, 341201, Control_c, 0, 64, 40
1, 341208, Note_off_c, 0, 44, 60
1, 341213, Note_on_c, 0, 80, 65
1, 341215, Control_c, 0, 64, 62
1, 341219, Note_on_c, 0, 49, 59
1, 341224, Note_off_c, 0, 73, 59
1, 341230, Control_c, 0, 64, 70
1, 341245, Control_c, 0, 64, 82
1, 341247, Note_off_c, 0, 80, 58
1, 341260, Control_c, 0, 64, 100
1, 341275, Control_c, 0, 64, 127
1, 341277, Note_off_c, 0, 68, 50
1, 341321, Note_on_c, 0, 80, 59
1, 341321, Note_on_c, 0, 61, 57
1, 341361, Note_off_c, 0, 61, 62
1, 341438, Note_off_c, 0, 80, 54
1, 341548, Note_on_c, 0, 73, 59
1, 341550, Note_off_c, 0, 49, 43
1, 341559, Note_on_c, 0, 67, 51
1, 341560, Note_on_c, 0, 45, 51
1, 341571, Control_c, 0, 64, 85
1, 341586, Control_c, 0, 64, 56
1, 341601, Control_c, 0, 64, 0
1, 341645, Control_c, 0, 64, 61
1, 341645, Control_c, 0, 67, 127
1, 341650, Note_off_c, 0, 45, 61
1, 341657, Note_on_c, 0, 49, 53
1, 341659, Control_c, 0, 64, 72
1, 341659, Control_c, 0, 67, 126
1, 341667, Note_on_c, 0, 79, 58
1, 341674, Control_c, 0, 64, 91
1, 341674, Control_c, 0, 67, 126
1, 341689, Control_c, 0, 64, 127
1, 341689, Control_c, 0, 67, 125
1, 341704, Control_c, 0, 67, 124
1, 341719, Control_c, 0, 67, 123
1, 341733, Note_off_c, 0, 73, 48
1, 341733, Control_c, 0, 67, 123
1, 341738, Note_off_c, 0, 79, 59
1, 341748, Control_c, 0, 67, 122
1, 341763, Control_c, 0, 67, 121
1, 341778, Control_c, 0, 67, 120
1, 341815, Control_c, 0, 67, 120
1, 341831, Control_c, 0, 67, 119
1, 341838, Note_on_c, 0, 61, 55
1, 341839, Note_on_c, 0, 79, 67
1, 341870, Note_off_c, 0, 67, 39
1, 341890, Control_c, 0, 67, 119
1, 341894, Note_off_c, 0, 61, 61
1, 341900, Note_off_c, 0, 49, 0
1, 341937, Poly_aftertouch_c, 0, 49, 127
1, 341950, Control_c, 0, 67, 118
1, 341979, Control_c, 0, 67, 118
1, 342009, Control_c, 0, 67, 117
1, 342024, Control_c, 0, 67, 117
1, 342028, Poly_aftertouch_c, 0, 49, 0
1, 342038, Control_c, 0, 67, 116
1, 342044, Note_on_c, 0, 45, 59
1, 342047, Note_on_c, 0, 73, 63
1, 342053, Control_c, 0, 67, 115
1, 342061, Note_on_c, 0, 67, 46
1, 342068, Control_c, 0, 67, 115
1, 342082, Control_c, 0, 67, 114
1, 342097, Control_c, 0, 67, 113
1, 342111, Note_off_c, 0, 45, 63
1, 342112, Control_c, 0, 67, 113
1, 342118, Note_on_c, 0, 49, 69
1, 342127, Control_c, 0, 67, 112
1, 342142, Control_c, 0, 67, 111
1, 342151, Note_off_c, 0, 73, 53
1, 342156, Control_c, 0, 67, 110
1, 342171, Control_c, 0, 67, 109
1, 342186, Control_c, 0, 67, 108
1, 342201, Control_c, 0, 67, 107
1, 342213, Note_on_c, 0, 61, 70
1, 342215, Note_off_c, 0, 67, 35
1, 342216, Control_c, 0, 67, 106
1, 342231, Control_c, 0, 67, 104
1, 342246, Note_off_c, 0, 61, 63
1, 342246, Control_c, 0, 67, 103
1, 342260, Control_c, 0, 67, 102
1, 342275, Control_c, 0, 67, 101
1, 342290, Control_c, 0, 67, 100
1, 342305, Control_c, 0, 67, 100
1, 342320, Control_c, 0, 67, 99
1, 342335, Control_c, 0, 67, 98
1, 342350, Note_off_c, 0, 79, 59
1, 342350, Control_c, 0, 67, 96
1, 342350, Note_off_c, 0, 49, 63
1, 342353, Note_on_c, 0, 45, 76
1, 342353, Note_on_c, 0, 73, 76
1, 342364, Control_c, 0, 67, 94
1, 342375, Note_off_c, 0, 73, 70
1, 342379, Control_c, 0, 67, 92
1, 342394, Control_c, 0, 67, 90
1, 342409, Control_c, 0, 67, 89
1, 342411, Note_off_c, 0, 45, 63
1, 342424, Control_c, 0, 67, 89
1, 342431, Note_on_c, 0, 49, 82
1, 342439, Note_on_c, 0, 85, 93
1, 342457, Note_off_c, 0, 85, 67
1, 342497, Control_c, 0, 67, 89
1, 342512, Control_c, 0, 67, 90
1, 342513, Note_on_c, 0, 85, 99
1, 342516, Note_on_c, 0, 76, 7
1, 342526, Note_on_c, 0, 61, 70
1, 342527, Control_c, 0, 67, 91
1, 342544, Note_off_c, 0, 85, 64
1, 342559, Note_off_c, 0, 61, 65
1, 342560, Note_off_c, 0, 76, 47
1, 342684, Control_c, 0, 67, 90
1, 342713, Control_c, 0, 67, 90
1, 342728, Control_c, 0, 67, 89
1, 342731, Note_off_c, 0, 49, 62
1, 342743, Note_on_c, 0, 45, 66
1, 342773, Control_c, 0, 67, 89
1, 342777, Note_on_c, 0, 73, 93
1, 342791, Note_on_c, 0, 67, 75
1, 342817, Control_c, 0, 67, 88
1, 342823, Note_off_c, 0, 45, 60
1, 342832, Control_c, 0, 67, 88
1, 342847, Control_c, 0, 67, 87
1, 342848, Note_on_c, 0, 49, 78
1, 342861, Control_c, 0, 67, 86
1, 342875, Poly_aftertouch_c, 0, 75, 127
1, 342876, Control_c, 0, 67, 85
1, 342891, Control_c, 0, 67, 83
1, 342901, Poly_aftertouch_c, 0, 75, 0
1, 342905, Control_c, 0, 67, 82
1, 342920, Control_c, 0, 67, 80
1, 342935, Note_on_c, 0, 61, 74
1, 342935, Control_c, 0, 67, 79
1, 342950, Note_off_c, 0, 67, 56
1, 342950, Control_c, 0, 67, 77
1, 342965, Control_c, 0, 67, 76
1, 342977, Note_off_c, 0, 73, 60
1, 342979, Control_c, 0, 67, 74
1, 342983, Note_off_c, 0, 61, 63
1, 342994, Control_c, 0, 67, 74
1, 343009, Control_c, 0, 67, 73
1, 343024, Control_c, 0, 67, 72
1, 343039, Control_c, 0, 67, 71
1, 343053, Control_c, 0, 67, 69
1, 343062, Note_on_c, 0, 73, 112
1, 343068, Control_c, 0, 67, 68
1, 343074, Note_off_c, 0, 49, 61
1, 343078, Note_on_c, 0, 67, 68
1, 343080, Note_on_c, 0, 45, 72
1, 343083, Control_c, 0, 67, 66
1, 343095, Note_off_c, 0, 67, 67
1, 343098, Control_c, 0, 67, 64
1, 343113, Control_c, 0, 67, 62
1, 343120, Note_off_c, 0, 73, 65
1, 343128, Control_c, 0, 67, 61
1, 343143, Control_c, 0, 67, 61
1, 343158, Control_c, 0, 67, 60
1, 343173, Control_c, 0, 67, 60
1, 343190, Note_on_c, 0, 49, 77
1, 343193, Note_off_c, 0, 45, 64
1, 343318, Note_on_c, 0, 88, 113
1, 343337, Note_on_c, 0, 85, 75
1, 343351, Note_off_c, 0, 85, 70
1, 343353, Note_off_c, 0, 88, 67
1, 343357, Control_c, 0, 67, 59
1, 343387, Control_c, 0, 67, 58
1, 343393, Note_on_c, 0, 88, 107
1, 343402, Control_c, 0, 67, 58
1, 343409, Note_on_c, 0, 85, 77
1, 343417, Control_c, 0, 67, 57
1, 343417, Note_on_c, 0, 61, 69
1, 343423, Note_off_c, 0, 85, 71
1, 343432, Control_c, 0, 67, 55
1, 343435, Note_off_c, 0, 88, 67
1, 343447, Note_off_c, 0, 49, 60
1, 343447, Control_c, 0, 67, 53
1, 343451, Note_off_c, 0, 61, 59
1, 343462, Control_c, 0, 67, 51
1, 343477, Control_c, 0, 67, 50
1, 343492, Control_c, 0, 67, 50
1, 343506, Control_c, 0, 67, 49
1, 343676, Note_on_c, 0, 49, 100
1, 343681, Note_on_c, 0, 45, 83
1, 343709, Note_off_c, 0, 45, 66
1, 343712, Note_off_c, 0, 49, 69
1, 343714, Control_c, 0, 67, 49
1, 343728, Control_c, 0, 67, 48
1, 343730, Note_on_c, 0, 76, 96
1, 343741, Note_on_c, 0, 73, 87
1, 343743, Control_c, 0, 67, 46
1, 343758, Control_c, 0, 67, 43
1, 343773, Control_c, 0, 67, 40
1, 343788, Control_c, 0, 67, 34
1, 343802, Control_c, 0, 67, 28
1, 343817, Control_c, 0, 67, 21
1, 343832, Control_c, 0, 67, 13
1, 343846, Control_c, 0, 67, 0
1, 344162, Note_on_c, 0, 64, 108
1, 344177, Note_on_c, 0, 61, 83
1, 344208, Note_on_c, 0, 62, 22
1, 344209, Note_off_c, 0, 62, 127
1, 344292, Note_off_c, 0, 61, 59
1, 344301, Note_off_c, 0, 64, 61
1, 344362, Note_on_c, 0, 64, 102
1, 344374, Note_on_c, 0, 61, 92
1, 344606, Note_off_c, 0, 73, 48
1, 344667, Note_off_c, 0, 76, 55
1, 345110, Note_off_c, 0, 64, 55
1, 345121, Note_on_c, 0, 73, 99
1, 345178, Note_off_c, 0, 61, 58
1, 345251, Note_on_c, 0, 81, 68
1, 345254, Note_on_c, 0, 85, 73
1, 345333, Note_off_c, 0, 81, 58
1, 345338, Note_off_c, 0, 85, 56
1, 345458, Note_on_c, 0, 85, 69
1, 345463, Control_c, 0, 64, 104
1, 345467, Note_on_c, 0, 81, 56
1, 345478, Control_c, 0, 64, 72
1, 345493, Control_c, 0, 64, 0
1, 345537, Control_c, 0, 64, 24
1, 345560, Control_c, 0, 64, 64
1, 345574, Control_c, 0, 64, 76
1, 345589, Control_c, 0, 64, 100
1, 345604, Control_c, 0, 64, 127
1, 345608, Note_on_c, 0, 44, 66
1, 345644, Note_off_c, 0, 44, 63
1, 345651, Note_off_c, 0, 73, 57
1, 345688, Note_off_c, 0, 85, 50
1, 345699, Note_off_c, 0, 81, 62
1, 345715, Note_on_c, 0, 72, 77
1, 345794, Note_on_c, 0, 84, 67
1, 345799, Note_on_c, 0, 80, 63
1, 345817, Note_off_c, 0, 80, 67
1, 345820, Note_off_c, 0, 72, 59
1, 345820, Note_off_c, 0, 84, 68
1, 345870, Note_on_c, 0, 84, 79
1, 345879, Note_on_c, 0, 80, 78
1, 345888, Note_on_c, 0, 68, 68
1, 345893, Note_off_c, 0, 84, 66
1, 345900, Note_off_c, 0, 80, 68
1, 345900, Note_on_c, 0, 56, 58
1, 345900, Note_on_c, 0, 63, 65
1, 346049, Control_c, 0, 67, 8
1, 346051, Note_on_c, 0, 78, 96
1, 346064, Control_c, 0, 67, 11
1, 346079, Note_off_c, 0, 68, 61
1, 346079, Control_c, 0, 67, 14
1, 346094, Control_c, 0, 67, 20
1, 346109, Control_c, 0, 67, 25
1, 346118, Note_on_c, 0, 90, 56
1, 346118, Note_off_c, 0, 63, 60
1, 346121, Note_on_c, 0, 87, 91
1, 346123, Control_c, 0, 67, 30
1, 346138, Control_c, 0, 67, 33
1, 346146, Note_off_c, 0, 56, 64
1, 346153, Control_c, 0, 67, 34
1, 346162, Note_off_c, 0, 87, 65
1, 346182, Note_off_c, 0, 90, 0
1, 346194, Note_on_c, 0, 90, 62
1, 346197, Control_c, 0, 67, 33
1, 346212, Control_c, 0, 64, 84
1, 346212, Control_c, 0, 67, 32
1, 346216, Note_on_c, 0, 87, 80
1, 346227, Control_c, 0, 64, 60
1, 346227, Control_c, 0, 67, 31
1, 346242, Control_c, 0, 64, 54
1, 346242, Control_c, 0, 67, 28
1, 346256, Control_c, 0, 64, 68
1, 346256, Control_c, 0, 67, 25
1, 346271, Control_c, 0, 64, 87
1, 346271, Control_c, 0, 67, 23
1, 346286, Control_c, 0, 64, 127
1, 346286, Control_c, 0, 67, 19
1, 346303, Note_off_c, 0, 78, 56
1, 346308, Control_c, 0, 67, 13
1, 346323, Control_c, 0, 67, 0
1, 346337, Note_off_c, 0, 90, 64
1, 346340, Note_on_c, 0, 49, 72
1, 346346, Note_off_c, 0, 87, 64
1, 346374, Note_off_c, 0, 49, 64
1, 346388, Note_on_c, 0, 76, 74
1, 346443, Note_on_c, 0, 85, 66
1, 346447, Note_off_c, 0, 76, 59
1, 346452, Note_on_c, 0, 88, 63
1, 346466, Note_off_c, 0, 85, 69
1, 346531, Note_on_c, 0, 85, 78
1, 346538, Note_on_c, 0, 68, 68
1, 346541, Note_on_c, 0, 56, 64
1, 346546, Note_on_c, 0, 61, 63
1, 346547, Note_off_c, 0, 88, 63
1, 346553, Note_off_c, 0, 85, 70
1, 346650, Note_off_c, 0, 68, 60
1, 346684, Note_on_c, 0, 73, 95
1, 346713, Note_off_c, 0, 61, 61
1, 346739, Note_on_c, 0, 85, 20
1, 346741, Note_off_c, 0, 56, 65
1, 346747, Note_on_c, 0, 81, 77
1, 346753, Control_c, 0, 67, 11
1, 346768, Control_c, 0, 67, 17
1, 346783, Control_c, 0, 67, 25
1, 346789, Note_off_c, 0, 81, 66
1, 346795, Note_off_c, 0, 85, 61
1, 346798, Control_c, 0, 67, 32
1, 346813, Control_c, 0, 67, 36
1, 346825, Note_on_c, 0, 85, 73
1, 346827, Control_c, 0, 67, 40
1, 346835, Note_on_c, 0, 81, 80
1, 346842, Control_c, 0, 64, 90
1, 346842, Control_c, 0, 67, 43
1, 346857, Control_c, 0, 64, 41
1, 346857, Control_c, 0, 67, 45
1, 346872, Control_c, 0, 64, 0
1, 346887, Control_c, 0, 64, 64
1, 346895, Note_off_c, 0, 73, 49
1, 346902, Control_c, 0, 64, 83
1, 346902, Control_c, 0, 67, 44
1, 346917, Control_c, 0, 64, 127
1, 346917, Control_c, 0, 67, 43
1, 346932, Control_c, 0, 67, 42
1, 346946, Control_c, 0, 67, 38
1, 346955, Note_off_c, 0, 85, 63
1, 346955, Note_on_c, 0, 44, 85
1, 346961, Control_c, 0, 67, 35
1, 346976, Control_c, 0, 67, 31
1, 346991, Control_c, 0, 67, 24
1, 346993, Note_off_c, 0, 44, 63
1, 347001, Note_off_c, 0, 81, 59
1, 347006, Control_c, 0, 67, 13
1, 347020, Control_c, 0, 67, 0
1, 347030, Note_on_c, 0, 72, 83
1, 347099, Note_off_c, 0, 72, 56
1, 347110, Note_on_c, 0, 80, 71
1, 347120, Note_on_c, 0, 84, 53
1, 347128, Note_off_c, 0, 80, 68
1, 347148, Note_off_c, 0, 84, 0
1, 347161, Note_on_c, 0, 84, 74
1, 347174, Note_on_c, 0, 80, 92
1, 347187, Note_on_c, 0, 68, 81
1, 347191, Note_on_c, 0, 63, 77
1, 347194, Note_off_c, 0, 80, 66
1, 347195, Note_on_c, 0, 56, 70
1, 347200, Note_off_c, 0, 84, 66
1, 347324, Note_on_c, 0, 78, 100
1, 347349, Note_off_c, 0, 68, 61
1, 347350, Note_on_c, 0, 90, 65
1, 347367, Note_off_c, 0, 90, 66
1, 347382, Note_off_c, 0, 63, 62
1, 347383, Control_c, 0, 67, 12
1, 347397, Control_c, 0, 67, 17
1, 347398, Note_on_c, 0, 87, 98
1, 347402, Note_on_c, 0, 90, 87
1, 347408, Note_off_c, 0, 56, 65
1, 347412, Control_c, 0, 67, 22
1, 347429, Control_c, 0, 67, 23
1, 347454, Note_off_c, 0, 90, 0
1, 347456, Note_off_c, 0, 87, 0
1, 347465, Note_on_c, 0, 90, 71
1, 347488, Control_c, 0, 67, 24
1, 347493, Poly_aftertouch_c, 0, 87, 127
1, 347514, Note_off_c, 0, 78, 61
1, 347517, Control_c, 0, 67, 23
1, 347532, Control_c, 0, 64, 76
1, 347532, Control_c, 0, 67, 22
1, 347547, Control_c, 0, 64, 0
1, 347547, Control_c, 0, 67, 21
1, 347562, Control_c, 0, 64, 27
1, 347562, Control_c, 0, 67, 20
1, 347567, Note_off_c, 0, 90, 66
1, 347576, Control_c, 0, 64, 65
1, 347576, Control_c, 0, 67, 18
1, 347578, Poly_aftertouch_c, 0, 87, 0
1, 347591, Control_c, 0, 64, 77
1, 347591, Control_c, 0, 67, 15
1, 347606, Control_c, 0, 64, 127
1, 347606, Control_c, 0, 67, 13
1, 347608, Note_on_c, 0, 49, 92
1, 347621, Control_c, 0, 67, 10
1, 347629, Note_on_c, 0, 76, 90
1, 347636, Control_c, 0, 67, 0
1, 347650, Note_off_c, 0, 49, 64
1, 347688, Note_off_c, 0, 76, 61
1, 347700, Note_on_c, 0, 88, 78
1, 347701, Note_on_c, 0, 85, 68
1, 347762, Note_off_c, 0, 85, 63
1, 347770, Note_off_c, 0, 88, 62
1, 347773, Note_on_c, 0, 61, 84
1, 347773, Note_on_c, 0, 68, 89
1, 347776, Note_on_c, 0, 56, 82
1, 347777, Note_on_c, 0, 84, 65
1, 347800, Note_off_c, 0, 84, 67
1, 347802, Note_off_c, 0, 68, 64
1, 347810, Note_off_c, 0, 61, 60
1, 347838, Note_off_c, 0, 56, 62
1, 347951, Note_on_c, 0, 69, 91
1, 347954, Note_on_c, 0, 61, 92
1, 347955, Control_c, 0, 64, 82
1, 347961, Note_on_c, 0, 73, 90
1, 347970, Control_c, 0, 64, 63
1, 347984, Control_c, 0, 64, 61
1, 347989, Note_off_c, 0, 69, 63
1, 347999, Control_c, 0, 64, 68
1, 348005, Note_off_c, 0, 61, 62
1, 348014, Control_c, 0, 64, 78
1, 348015, Note_on_c, 0, 81, 74
1, 348022, Note_on_c, 0, 85, 79
1, 348028, Control_c, 0, 64, 96
1, 348043, Note_off_c, 0, 73, 62
1, 348043, Control_c, 0, 64, 127
1, 348057, Note_off_c, 0, 81, 64
1, 348108, Note_on_c, 0, 51, 83
1, 348108, Note_on_c, 0, 81, 84
1, 348136, Note_off_c, 0, 51, 69
1, 348163, Note_off_c, 0, 81, 61
1, 348163, Note_off_c, 0, 85, 65
1, 348271, Note_on_c, 0, 71, 92
1, 348273, Note_on_c, 0, 68, 78
1, 348273, Note_on_c, 0, 59, 80
1, 348282, Control_c, 0, 64, 89
1, 348297, Control_c, 0, 64, 62
1, 348300, Note_off_c, 0, 68, 64
1, 348312, Control_c, 0, 64, 0
1, 348326, Control_c, 0, 64, 60
1, 348327, Note_off_c, 0, 59, 62
1, 348336, Note_on_c, 0, 80, 88
1, 348338, Note_on_c, 0, 83, 79
1, 348341, Control_c, 0, 64, 72
1, 348342, Note_off_c, 0, 71, 61
1, 348356, Control_c, 0, 64, 91
1, 348371, Control_c, 0, 64, 127
1, 348379, Note_off_c, 0, 80, 64
1, 348386, Note_off_c, 0, 83, 60
1, 348405, Note_on_c, 0, 83, 70
1, 348417, Note_on_c, 0, 80, 80
1, 348428, Note_on_c, 0, 51, 72
1, 348458, Note_off_c, 0, 83, 64
1, 348458, Note_off_c, 0, 80, 66
1, 348486, Note_off_c, 0, 51, 56
1, 348571, Note_on_c, 0, 57, 72
1, 348573, Note_on_c, 0, 66, 77
1, 348574, Note_on_c, 0, 69, 84
1, 348615, Control_c, 0, 64, 89
1, 348619, Note_on_c, 0, 78, 78
1, 348626, Note_on_c, 0, 81, 64
1, 348630, Control_c, 0, 64, 65
1, 348631, Note_off_c, 0, 69, 63
1, 348644, Note_off_c, 0, 78, 66
1, 348644, Note_off_c, 0, 66, 61
1, 348644, Control_c, 0, 64, 0
1, 348658, Control_c, 0, 64, 37
1, 348667, Note_off_c, 0, 57, 59
1, 348671, Note_off_c, 0, 81, 0
1, 348673, Control_c, 0, 64, 66
1, 348681, Note_on_c, 0, 81, 68
1, 348688, Control_c, 0, 64, 79
1, 348703, Control_c, 0, 64, 111
1, 348704, Note_on_c, 0, 51, 76
1, 348716, Note_on_c, 0, 78, 80
1, 348718, Control_c, 0, 64, 127
1, 348747, Note_off_c, 0, 81, 65
1, 348771, Note_off_c, 0, 78, 61
1, 348775, Note_off_c, 0, 51, 62
1, 348866, Note_on_c, 0, 64, 76
1, 348866, Note_on_c, 0, 68, 80
1, 348871, Note_on_c, 0, 56, 77
1, 348911, Control_c, 0, 64, 110
1, 348924, Note_on_c, 0, 76, 78
1, 348924, Note_on_c, 0, 80, 77
1, 348925, Control_c, 0, 64, 78
1, 348935, Note_off_c, 0, 68, 62
1, 348939, Note_off_c, 0, 64, 60
1, 348940, Control_c, 0, 64, 0
1, 348957, Note_off_c, 0, 76, 63
1, 348982, Note_off_c, 0, 80, 0
1, 348984, Control_c, 0, 64, 62
1, 348991, Note_off_c, 0, 56, 60
1, 348994, Note_on_c, 0, 80, 70
1, 348999, Control_c, 0, 64, 78
1, 349004, Note_on_c, 0, 52, 79
1, 349010, Note_on_c, 0, 76, 81
1, 349014, Control_c, 0, 64, 127
1, 349062, Note_off_c, 0, 76, 61
1, 349067, Note_off_c, 0, 80, 61
1, 349073, Note_off_c, 0, 52, 61
1, 349164, Note_on_c, 0, 68, 86
1, 349173, Note_on_c, 0, 60, 72
1, 349174, Note_on_c, 0, 56, 79
1, 349193, Control_c, 0, 64, 112
1, 349198, Note_off_c, 0, 60, 69
1, 349201, Note_off_c, 0, 56, 66
1, 349208, Control_c, 0, 64, 75
1, 349215, Note_on_c, 0, 80, 62
1, 349219, Note_on_c, 0, 75, 69
1, 349222, Control_c, 0, 64, 0
1, 349229, Note_on_c, 0, 78, 54
1, 349245, Note_off_c, 0, 75, 66
1, 349250, Note_off_c, 0, 78, 64
1, 349253, Note_off_c, 0, 80, 60
1, 349281, Control_c, 0, 64, 64
1, 349304, Note_on_c, 0, 80, 77
1, 349304, Control_c, 0, 64, 81
1, 349317, Note_on_c, 0, 78, 85
1, 349319, Note_on_c, 0, 75, 81
1, 349319, Control_c, 0, 64, 127
1, 349325, Note_on_c, 0, 44, 72
1, 349327, Note_off_c, 0, 68, 61
1, 349330, Note_on_c, 0, 42, 61
1, 349350, Note_off_c, 0, 78, 55
1, 349355, Note_off_c, 0, 44, 65
1, 349355, Note_off_c, 0, 42, 59
1, 349359, Note_off_c, 0, 80, 63
1, 349368, Note_off_c, 0, 75, 63
1, 349489, Note_on_c, 0, 64, 93
1, 349494, Note_on_c, 0, 61, 77
1, 349501, Note_on_c, 0, 56, 72
1, 349555, Control_c, 0, 64, 106
1, 349560, Note_on_c, 0, 76, 86
1, 349567, Note_on_c, 0, 68, 84
1, 349567, Note_on_c, 0, 73, 89
1, 349570, Control_c, 0, 64, 77
1, 349585, Control_c, 0, 64, 0
1, 349590, Note_off_c, 0, 68, 62
1, 349603, Note_off_c, 0, 61, 58
1, 349603, Note_off_c, 0, 64, 55
1, 349608, Note_off_c, 0, 73, 58
1, 349623, Note_off_c, 0, 56, 55
1, 349632, Note_off_c, 0, 76, 0
1, 349645, Note_on_c, 0, 76, 66
1, 349653, Note_on_c, 0, 49, 79
1, 349653, Note_on_c, 0, 73, 81
1, 349656, Note_on_c, 0, 68, 85
1, 349656, Note_on_c, 0, 64, 46
1, 349659, Control_c, 0, 64, 33
1, 349674, Control_c, 0, 64, 71
1, 349675, Note_off_c, 0, 64, 65
1, 349689, Control_c, 0, 64, 97
1, 349690, Note_off_c, 0, 76, 64
1, 349704, Control_c, 0, 64, 127
1, 349728, Note_off_c, 0, 68, 62
1, 349728, Note_off_c, 0, 73, 64
1, 349766, Note_off_c, 0, 49, 62
1, 349835, Note_on_c, 0, 60, 74
1, 349835, Note_on_c, 0, 56, 82
1, 349835, Note_on_c, 0, 63, 90
1, 349860, Note_off_c, 0, 60, 69
1, 349874, Note_off_c, 0, 56, 65
1, 349913, Note_on_c, 0, 72, 75
1, 349915, Note_on_c, 0, 75, 76
1, 349921, Note_on_c, 0, 68, 82
1, 349971, Control_c, 0, 64, 86
1, 349977, Note_off_c, 0, 75, 60
1, 349986, Control_c, 0, 64, 0
1, 349988, Note_off_c, 0, 72, 60
1, 349992, Note_off_c, 0, 68, 58
1, 350053, Note_on_c, 0, 44, 95
1, 350054, Note_on_c, 0, 68, 81
1, 350055, Note_on_c, 0, 72, 77
1, 350055, Note_on_c, 0, 75, 81
1, 350082, Control_c, 0, 64, 66
1, 350088, Note_off_c, 0, 63, 63
1, 350092, Note_off_c, 0, 44, 65
1, 350097, Control_c, 0, 64, 82
1, 350112, Control_c, 0, 64, 127
1, 350176, Note_off_c, 0, 68, 59
1, 350189, Note_off_c, 0, 72, 58
1, 350232, Note_off_c, 0, 75, 63
1, 350279, Note_on_c, 0, 63, 96
1, 350295, Note_on_c, 0, 51, 80
1, 350315, Note_off_c, 0, 63, 66
1, 350318, Note_off_c, 0, 51, 68
1, 350472, Note_on_c, 0, 63, 93
1, 350484, Note_on_c, 0, 51, 74
1, 350502, Note_off_c, 0, 63, 61
1, 350512, Note_off_c, 0, 51, 66
1, 350639, Note_on_c, 0, 73, 83
1, 350654, Note_on_c, 0, 56, 89
1, 350658, Note_on_c, 0, 85, 91
1, 350658, Note_on_c, 0, 81, 89
1, 350660, Note_on_c, 0, 44, 85
1, 350676, Note_off_c, 0, 56, 69
1, 350692, Note_off_c, 0, 44, 67
1, 350694, Note_off_c, 0, 73, 63
1, 350705, Control_c, 0, 64, 94
1, 350720, Control_c, 0, 64, 69
1, 350723, Note_off_c, 0, 85, 62
1, 350725, Note_off_c, 0, 81, 57
1, 350735, Control_c, 0, 64, 0
1, 350836, Note_on_c, 0, 85, 92
1, 350836, Note_on_c, 0, 81, 83
1, 350840, Note_on_c, 0, 73, 97
1, 350842, Note_on_c, 0, 56, 91
1, 350845, Note_on_c, 0, 44, 83
1, 350845, Control_c, 0, 64, 67
1, 350860, Control_c, 0, 64, 91
1, 350863, Note_off_c, 0, 56, 72
1, 350870, Note_off_c, 0, 44, 66
1, 350875, Control_c, 0, 64, 127
1, 350880, Note_off_c, 0, 81, 61
1, 350900, Note_off_c, 0, 73, 59
1, 350902, Note_off_c, 0, 85, 63
1, 351003, Note_on_c, 0, 72, 85
1, 351015, Note_on_c, 0, 68, 89
1, 351015, Note_on_c, 0, 84, 84
1, 351018, Note_on_c, 0, 80, 86
1, 351021, Note_on_c, 0, 56, 72
1, 351022, Note_on_c, 0, 63, 77
1, 351034, Note_off_c, 0, 68, 71
1, 351040, Note_off_c, 0, 72, 66
1, 351045, Note_off_c, 0, 56, 67
1, 351048, Note_off_c, 0, 63, 66
1, 351054, Note_on_c, 0, 82, 28
1, 351058, Note_off_c, 0, 84, 62
1, 351059, Note_off_c, 0, 80, 60
1, 351084, Control_c, 0, 64, 85
1, 351090, Note_off_c, 0, 82, 30
1, 351099, Control_c, 0, 64, 60
1, 351114, Control_c, 0, 64, 0
1, 351173, Control_c, 0, 64, 58
1, 351175, Note_on_c, 0, 68, 88
1, 351179, Note_on_c, 0, 84, 93
1, 351180, Note_on_c, 0, 72, 98
1, 351182, Note_on_c, 0, 56, 81
1, 351182, Note_on_c, 0, 63, 74
1, 351182, Note_on_c, 0, 80, 90
1, 351187, Control_c, 0, 64, 76
1, 351194, Note_off_c, 0, 68, 71
1, 351200, Note_off_c, 0, 72, 66
1, 351202, Control_c, 0, 64, 127
1, 351205, Note_off_c, 0, 63, 69
1, 351210, Note_off_c, 0, 56, 65
1, 351213, Note_on_c, 0, 82, 27
1, 351215, Note_off_c, 0, 80, 61
1, 351221, Note_off_c, 0, 84, 63
1, 351250, Note_off_c, 0, 82, 54
1, 351335, Note_on_c, 0, 78, 93
1, 351340, Note_on_c, 0, 61, 86
1, 351340, Note_on_c, 0, 90, 103
1, 351344, Note_on_c, 0, 49, 82
1, 351346, Note_on_c, 0, 87, 90
1, 351359, Note_on_c, 0, 80, 57
1, 351362, Note_off_c, 0, 61, 69
1, 351371, Note_off_c, 0, 78, 66
1, 351373, Note_off_c, 0, 49, 66
1, 351377, Note_off_c, 0, 90, 63
1, 351379, Note_off_c, 0, 80, 64
1, 351379, Note_off_c, 0, 87, 57
1, 351379, Control_c, 0, 64, 101
1, 351394, Control_c, 0, 64, 71
1, 351409, Control_c, 0, 64, 0
1, 351484, Control_c, 0, 64, 58
1, 351492, Note_on_c, 0, 90, 89
1, 351492, Note_on_c, 0, 87, 87
1, 351496, Note_on_c, 0, 61, 87
1, 351497, Note_on_c, 0, 49, 75
1, 351497, Note_on_c, 0, 78, 96
1, 351499, Control_c, 0, 64, 88
1, 351514, Control_c, 0, 64, 127
1, 351518, Note_off_c, 0, 61, 70
1, 351523, Note_off_c, 0, 87, 64
1, 351527, Note_off_c, 0, 49, 65
1, 351537, Note_off_c, 0, 90, 66
1, 351546, Note_off_c, 0, 78, 65
1, 351650, Note_on_c, 0, 68, 84
1, 351650, Note_on_c, 0, 76, 86
1, 351653, Note_on_c, 0, 61, 82
1, 351658, Note_on_c, 0, 56, 70
1, 351659, Note_on_c, 0, 88, 90
1, 351662, Note_on_c, 0, 85, 92
1, 351671, Note_off_c, 0, 68, 67
1, 351679, Note_off_c, 0, 76, 63
1, 351686, Note_off_c, 0, 56, 66
1, 351686, Note_off_c, 0, 61, 65
1, 351698, Note_off_c, 0, 85, 60
1, 351699, Note_off_c, 0, 88, 62
1, 351714, Control_c, 0, 64, 87
1, 351729, Control_c, 0, 64, 35
1, 351743, Control_c, 0, 64, 0
1, 351803, Control_c, 0, 64, 59
1, 351805, Note_on_c, 0, 68, 80
1, 351806, Note_on_c, 0, 88, 90
1, 351808, Note_on_c, 0, 56, 76
1, 351811, Note_on_c, 0, 76, 95
1, 351812, Note_on_c, 0, 85, 82
1, 351813, Note_on_c, 0, 61, 70
1, 351817, Control_c, 0, 64, 79
1, 351824, Note_off_c, 0, 68, 70
1, 351829, Note_off_c, 0, 85, 71
1, 351832, Control_c, 0, 64, 127
1, 351833, Note_off_c, 0, 61, 66
1, 351834, Note_off_c, 0, 88, 60
1, 351838, Note_off_c, 0, 76, 64
1, 351841, Note_off_c, 0, 56, 65
1, 351945, Note_on_c, 0, 73, 95
1, 351956, Note_on_c, 0, 85, 87
1, 351957, Note_on_c, 0, 81, 84
1, 351957, Note_on_c, 0, 56, 81
1, 351966, Note_on_c, 0, 44, 80
1, 351989, Note_off_c, 0, 56, 66
1, 351994, Note_off_c, 0, 73, 63
1, 351995, Control_c, 0, 64, 101
1, 351998, Note_off_c, 0, 44, 66
1, 352010, Control_c, 0, 64, 67
1, 352016, Note_off_c, 0, 85, 62
1, 352020, Note_off_c, 0, 81, 58
1, 352025, Control_c, 0, 64, 0
1, 352084, Control_c, 0, 64, 56
1, 352094, Note_on_c, 0, 56, 91
1, 352095, Note_on_c, 0, 85, 94
1, 352097, Note_on_c, 0, 44, 77
1, 352097, Note_on_c, 0, 73, 96
1, 352099, Note_on_c, 0, 81, 80
1, 352099, Control_c, 0, 64, 82
1, 352114, Control_c, 0, 64, 127
1, 352119, Note_off_c, 0, 81, 69
1, 352124, Note_off_c, 0, 56, 66
1, 352129, Note_off_c, 0, 44, 65
1, 352139, Note_off_c, 0, 85, 65
1, 352145, Note_off_c, 0, 73, 63
1, 352238, Note_on_c, 0, 72, 92
1, 352242, Note_on_c, 0, 68, 90
1, 352247, Note_on_c, 0, 56, 78
1, 352251, Note_on_c, 0, 84, 87
1, 352252, Note_on_c, 0, 63, 78
1, 352258, Note_on_c, 0, 80, 79
1, 352265, Note_off_c, 0, 68, 62
1, 352275, Note_off_c, 0, 72, 67
1, 352276, Note_off_c, 0, 56, 67
1, 352276, Note_off_c, 0, 63, 68
1, 352293, Note_off_c, 0, 80, 59
1, 352301, Note_off_c, 0, 84, 61
1, 352315, Control_c, 0, 64, 93
1, 352330, Control_c, 0, 64, 62
1, 352345, Control_c, 0, 64, 0
1, 352394, Note_on_c, 0, 68, 90
1, 352396, Note_on_c, 0, 72, 102
1, 352398, Note_on_c, 0, 80, 89
1, 352398, Note_on_c, 0, 84, 97
1, 352401, Note_on_c, 0, 56, 80
1, 352402, Note_on_c, 0, 63, 79
1, 352403, Control_c, 0, 64, 70
1, 352411, Note_off_c, 0, 68, 71
1, 352417, Control_c, 0, 64, 99
1, 352421, Note_off_c, 0, 72, 68
1, 352423, Note_off_c, 0, 63, 69
1, 352428, Note_off_c, 0, 84, 62
1, 352432, Control_c, 0, 64, 127
1, 352437, Note_off_c, 0, 56, 61
1, 352437, Note_off_c, 0, 80, 62
1, 352494, Poly_aftertouch_c, 0, 82, 0
1, 352533, Note_on_c, 0, 78, 99
1, 352542, Note_on_c, 0, 61, 82
1, 352547, Note_on_c, 0, 49, 83
1, 352548, Note_on_c, 0, 90, 96
1, 352559, Note_on_c, 0, 87, 74
1, 352562, Note_off_c, 0, 61, 70
1, 352576, Note_off_c, 0, 78, 64
1, 352577, Note_off_c, 0, 49, 66
1, 352580, Note_off_c, 0, 87, 69
1, 352589, Note_off_c, 0, 90, 61
1, 352595, Control_c, 0, 64, 87
1, 352610, Control_c, 0, 64, 33
1, 352625, Control_c, 0, 64, 0
1, 352670, Control_c, 0, 64, 64
1, 352677, Note_on_c, 0, 90, 103
1, 352678, Note_on_c, 0, 78, 99
1, 352679, Note_on_c, 0, 49, 85
1, 352680, Note_on_c, 0, 61, 85
1, 352681, Note_on_c, 0, 87, 88
1, 352685, Control_c, 0, 64, 86
1, 352699, Control_c, 0, 64, 127
1, 352703, Note_off_c, 0, 61, 67
1, 352703, Note_off_c, 0, 87, 68
1, 352704, Note_off_c, 0, 49, 68
1, 352711, Note_off_c, 0, 90, 68
1, 352721, Note_off_c, 0, 78, 64
1, 352812, Note_on_c, 0, 76, 94
1, 352821, Note_on_c, 0, 68, 91
1, 352825, Note_on_c, 0, 88, 91
1, 352830, Note_on_c, 0, 61, 81
1, 352831, Note_on_c, 0, 85, 78
1, 352831, Note_on_c, 0, 56, 74
1, 352843, Note_off_c, 0, 68, 64
1, 352852, Note_off_c, 0, 76, 66
1, 352854, Note_off_c, 0, 85, 66
1, 352854, Note_off_c, 0, 88, 54
1, 352856, Note_off_c, 0, 61, 64
1, 352861, Note_off_c, 0, 56, 66
1, 352955, Note_on_c, 0, 56, 71
1, 352958, Note_on_c, 0, 68, 85
1, 352961, Note_on_c, 0, 88, 89
1, 352962, Note_on_c, 0, 76, 94
1, 352969, Note_on_c, 0, 85, 78
1, 352977, Note_on_c, 0, 61, 58
1, 352977, Note_off_c, 0, 68, 67
1, 352989, Note_off_c, 0, 85, 72
1, 352994, Note_off_c, 0, 61, 68
1, 352998, Note_off_c, 0, 88, 56
1, 353003, Note_off_c, 0, 76, 61
1, 353012, Note_off_c, 0, 56, 64
1, 353108, Control_c, 0, 64, 107
1, 353122, Control_c, 0, 64, 65
1, 353124, Note_on_c, 0, 73, 95
1, 353127, Note_on_c, 0, 69, 91
1, 353129, Note_on_c, 0, 61, 67
1, 353133, Note_on_c, 0, 85, 87
1, 353136, Control_c, 0, 64, 0
1, 353143, Note_on_c, 0, 81, 73
1, 353181, Control_c, 0, 64, 53
1, 353187, Note_off_c, 0, 69, 60
1, 353195, Control_c, 0, 64, 69
1, 353210, Control_c, 0, 64, 85
1, 353211, Note_off_c, 0, 61, 62
1, 353224, Note_off_c, 0, 73, 59
1, 353224, Note_off_c, 0, 85, 63
1, 353225, Control_c, 0, 64, 127
1, 353248, Note_off_c, 0, 81, 62
1, 353299, Control_c, 0, 67, 8
1, 353312, Note_on_c, 0, 81, 69
1, 353314, Control_c, 0, 67, 9
1, 353318, Note_on_c, 0, 85, 85
1, 353325, Note_on_c, 0, 73, 84
1, 353329, Control_c, 0, 67, 12
1, 353329, Note_on_c, 0, 51, 77
1, 353343, Control_c, 0, 67, 13
1, 353358, Note_off_c, 0, 81, 62
1, 353358, Control_c, 0, 67, 15
1, 353364, Note_off_c, 0, 51, 66
1, 353373, Control_c, 0, 67, 16
1, 353383, Note_off_c, 0, 85, 63
1, 353388, Control_c, 0, 67, 18
1, 353403, Control_c, 0, 67, 20
1, 353405, Note_off_c, 0, 73, 63
1, 353418, Control_c, 0, 67, 22
1, 353433, Control_c, 0, 67, 24
1, 353447, Control_c, 0, 67, 27
1, 353462, Control_c, 0, 67, 29
1, 353477, Control_c, 0, 67, 31
1, 353492, Control_c, 0, 67, 32
1, 353494, Note_on_c, 0, 71, 82
1, 353504, Note_on_c, 0, 68, 73
1, 353507, Note_on_c, 0, 59, 68
1, 353507, Control_c, 0, 67, 34
1, 353509, Note_on_c, 0, 83, 80
1, 353517, Note_on_c, 0, 80, 70
1, 353521, Control_c, 0, 67, 36
1, 353536, Control_c, 0, 67, 37
1, 353548, Note_off_c, 0, 71, 65
1, 353549, Note_off_c, 0, 80, 58
1, 353551, Control_c, 0, 67, 39
1, 353555, Note_off_c, 0, 68, 57
1, 353561, Note_off_c, 0, 59, 60
1, 353564, Note_off_c, 0, 83, 62
1, 353566, Control_c, 0, 67, 41
1, 353581, Control_c, 0, 67, 43
1, 353595, Control_c, 0, 67, 45
1, 353610, Control_c, 0, 67, 46
1, 353625, Control_c, 0, 67, 48
1, 353639, Control_c, 0, 67, 50
1, 353650, Note_on_c, 0, 80, 74
1, 353652, Note_on_c, 0, 68, 76
1, 353654, Control_c, 0, 67, 52
1, 353655, Note_on_c, 0, 83, 76
1, 353656, Note_on_c, 0, 71, 75
1, 353669, Control_c, 0, 67, 53
1, 353671, Note_on_c, 0, 59, 57
1, 353683, Note_off_c, 0, 83, 57
1, 353684, Control_c, 0, 67, 54
1, 353685, Note_off_c, 0, 68, 52
1, 353699, Control_c, 0, 67, 56
1, 353700, Note_off_c, 0, 59, 60
1, 353700, Note_off_c, 0, 80, 62
1, 353707, Note_off_c, 0, 71, 62
1, 353713, Control_c, 0, 67, 57
1, 353728, Control_c, 0, 67, 58
1, 353743, Control_c, 0, 67, 59
1, 353773, Control_c, 0, 67, 60
1, 353811, Note_on_c, 0, 66, 69
1, 353813, Note_on_c, 0, 69, 75
1, 353823, Note_on_c, 0, 57, 63
1, 353826, Control_c, 0, 67, 60
1, 353829, Note_on_c, 0, 78, 74
1, 353830, Note_on_c, 0, 81, 75
1, 353856, Control_c, 0, 67, 61
1, 353874, Note_off_c, 0, 69, 60
1, 353886, Note_off_c, 0, 81, 61
1, 353886, Note_off_c, 0, 78, 61
1, 353916, Control_c, 0, 67, 61
1, 353945, Control_c, 0, 67, 62
1, 353960, Control_c, 0, 64, 92
1, 353975, Control_c, 0, 64, 59
1, 353975, Control_c, 0, 67, 63
1, 353989, Control_c, 0, 64, 0
1, 353989, Control_c, 0, 67, 63
1, 353996, Note_on_c, 0, 81, 69
1, 354004, Control_c, 0, 67, 64
1, 354007, Note_on_c, 0, 78, 67
1, 354019, Control_c, 0, 67, 64
1, 354020, Note_on_c, 0, 52, 55
1, 354028, Note_on_c, 0, 69, 66
1, 354049, Control_c, 0, 64, 50
1, 354054, Note_off_c, 0, 81, 63
1, 354064, Control_c, 0, 64, 68
1, 354064, Control_c, 0, 67, 65
1, 354078, Control_c, 0, 64, 85
1, 354083, Note_off_c, 0, 69, 61
1, 354088, Note_off_c, 0, 78, 60
1, 354093, Control_c, 0, 64, 127
1, 354093, Control_c, 0, 67, 65
1, 354100, Note_off_c, 0, 57, 58
1, 354107, Note_off_c, 0, 66, 58
1, 354167, Control_c, 0, 67, 66
1, 354194, Note_on_c, 0, 68, 67
1, 354196, Control_c, 0, 67, 66
1, 354210, Note_on_c, 0, 80, 68
1, 354211, Control_c, 0, 64, 92
1, 354211, Control_c, 0, 67, 67
1, 354214, Note_on_c, 0, 64, 59
1, 354214, Note_on_c, 0, 76, 62
1, 354219, Note_on_c, 0, 56, 61
1, 354226, Control_c, 0, 64, 68
1, 354226, Control_c, 0, 67, 68
1, 354241, Control_c, 0, 64, 45
1, 354241, Control_c, 0, 67, 69
1, 354256, Control_c, 0, 64, 62
1, 354256, Control_c, 0, 67, 69
1, 354262, Note_off_c, 0, 68, 60
1, 354270, Control_c, 0, 64, 72
1, 354270, Control_c, 0, 67, 70
1, 354277, Note_off_c, 0, 80, 59
1, 354281, Note_off_c, 0, 76, 60
1, 354282, Note_off_c, 0, 64, 62
1, 354283, Note_off_c, 0, 56, 58
1, 354285, Control_c, 0, 64, 83
1, 354300, Control_c, 0, 64, 101
1, 354315, Control_c, 0, 64, 127
1, 354345, Control_c, 0, 67, 70
1, 354365, Note_on_c, 0, 80, 71
1, 354372, Note_on_c, 0, 76, 65
1, 354373, Note_on_c, 0, 68, 70
1, 354382, Note_on_c, 0, 64, 57
1, 354396, Note_on_c, 0, 56, 56
1, 354404, Control_c, 0, 67, 71
1, 354417, Note_off_c, 0, 64, 63
1, 354419, Control_c, 0, 67, 71
1, 354431, Note_off_c, 0, 76, 56
1, 354434, Control_c, 0, 67, 72
1, 354438, Note_off_c, 0, 80, 55
1, 354440, Note_off_c, 0, 68, 58
1, 354446, Note_off_c, 0, 56, 50
1, 354463, Control_c, 0, 67, 72
1, 354494, Note_off_c, 0, 52, 58
1, 354553, Note_on_c, 0, 68, 70
1, 354560, Control_c, 0, 67, 73
1, 354561, Note_on_c, 0, 60, 67
1, 354566, Note_on_c, 0, 80, 70
1, 354569, Note_on_c, 0, 56, 62
1, 354575, Control_c, 0, 64, 102
1, 354575, Control_c, 0, 67, 73
1, 354579, Note_on_c, 0, 75, 64
1, 354587, Note_on_c, 0, 78, 58
1, 354589, Control_c, 0, 64, 71
1, 354589, Control_c, 0, 67, 74
1, 354604, Control_c, 0, 64, 0
1, 354604, Control_c, 0, 67, 74
1, 354631, Note_off_c, 0, 78, 55
1, 354646, Note_off_c, 0, 80, 59
1, 354649, Control_c, 0, 64, 63
1, 354650, Note_off_c, 0, 68, 51
1, 354661, Note_off_c, 0, 75, 59
1, 354664, Control_c, 0, 64, 71
1, 354679, Control_c, 0, 64, 84
1, 354693, Control_c, 0, 64, 108
1, 354708, Control_c, 0, 64, 127
1, 354730, Note_off_c, 0, 56, 56
1, 354750, Note_on_c, 0, 75, 58
1, 354753, Control_c, 0, 67, 75
1, 354756, Note_on_c, 0, 80, 59
1, 354769, Note_on_c, 0, 78, 37
1, 354774, Note_on_c, 0, 49, 59
1, 354782, Control_c, 0, 67, 76
1, 354784, Note_on_c, 0, 68, 65
1, 354793, Note_off_c, 0, 75, 58
1, 354797, Control_c, 0, 67, 76
1, 354798, Note_off_c, 0, 80, 56
1, 354800, Note_off_c, 0, 78, 53
1, 354811, Control_c, 0, 67, 79
1, 354826, Note_off_c, 0, 60, 57
1, 354826, Control_c, 0, 67, 81
1, 354841, Control_c, 0, 67, 82
1, 354849, Note_off_c, 0, 68, 61
1, 354856, Control_c, 0, 67, 82
1, 354885, Control_c, 0, 67, 83
1, 354900, Control_c, 0, 67, 83
1, 354915, Control_c, 0, 67, 84
1, 354930, Control_c, 0, 67, 85
1, 354945, Control_c, 0, 67, 86
1, 354957, Note_on_c, 0, 64, 66
1, 354959, Control_c, 0, 64, 88
1, 354959, Control_c, 0, 67, 86
1, 354974, Control_c, 0, 64, 64
1, 354974, Control_c, 0, 67, 87
1, 354982, Note_on_c, 0, 61, 53
1, 354989, Note_on_c, 0, 56, 53
1, 354989, Control_c, 0, 64, 0
1, 354992, Note_on_c, 0, 68, 57
1, 355000, Note_on_c, 0, 76, 63
1, 355001, Note_on_c, 0, 73, 59
1, 355004, Control_c, 0, 67, 87
1, 355019, Control_c, 0, 64, 24
1, 355034, Control_c, 0, 64, 66
1, 355034, Control_c, 0, 67, 88
1, 355043, Note_off_c, 0, 73, 61
1, 355049, Control_c, 0, 64, 76
1, 355049, Note_off_c, 0, 64, 57
1, 355058, Note_off_c, 0, 68, 59
1, 355060, Note_off_c, 0, 76, 58
1, 355063, Control_c, 0, 64, 91
1, 355075, Note_off_c, 0, 61, 57
1, 355078, Control_c, 0, 64, 127
1, 355080, Note_off_c, 0, 56, 58
1, 355161, Note_on_c, 0, 76, 63
1, 355169, Note_on_c, 0, 73, 57
1, 355179, Note_on_c, 0, 68, 56
1, 355202, Note_on_c, 0, 61, 52
1, 355205, Note_off_c, 0, 76, 55
1, 355207, Note_on_c, 0, 56, 45
1, 355222, Note_on_c, 0, 64, 59
1, 355227, Note_off_c, 0, 73, 52
1, 355254, Note_off_c, 0, 64, 66
1, 355256, Note_off_c, 0, 61, 51
1, 355266, Note_off_c, 0, 56, 53
1, 355269, Note_off_c, 0, 68, 50
1, 355376, Note_on_c, 0, 63, 65
1, 355412, Control_c, 0, 64, 81
1, 355412, Control_c, 0, 67, 88
1, 355418, Note_on_c, 0, 68, 51
1, 355424, Note_on_c, 0, 60, 50
1, 355427, Note_on_c, 0, 56, 44
1, 355427, Control_c, 0, 64, 61
1, 355437, Note_on_c, 0, 75, 59
1, 355439, Note_on_c, 0, 72, 57
1, 355442, Control_c, 0, 64, 0
1, 355442, Control_c, 0, 67, 89
1, 355457, Control_c, 0, 64, 47
1, 355469, Note_off_c, 0, 63, 55
1, 355472, Control_c, 0, 64, 64
1, 355487, Control_c, 0, 64, 71
1, 355490, Note_off_c, 0, 49, 53
1, 355502, Control_c, 0, 64, 82
1, 355511, Note_off_c, 0, 75, 50
1, 355512, Note_off_c, 0, 72, 59
1, 355516, Control_c, 0, 64, 100
1, 355522, Note_off_c, 0, 68, 57
1, 355531, Control_c, 0, 64, 127
1, 355632, Note_on_c, 0, 75, 54
1, 355641, Note_on_c, 0, 72, 45
1, 355645, Note_on_c, 0, 68, 58
1, 355710, Note_on_c, 0, 49, 45
1, 355721, Note_on_c, 0, 66, 57
1, 355723, Control_c, 0, 64, 87
1, 355738, Control_c, 0, 64, 66
1, 355753, Control_c, 0, 64, 0
1, 355782, Note_off_c, 0, 56, 35
1, 355782, Control_c, 0, 64, 31
1, 355788, Note_off_c, 0, 60, 40
1, 355797, Control_c, 0, 64, 65
1, 355812, Control_c, 0, 64, 74
1, 355812, Control_c, 0, 67, 89
1, 355827, Control_c, 0, 64, 88
1, 355841, Control_c, 0, 64, 118
1, 355851, Note_off_c, 0, 66, 59
1, 355856, Control_c, 0, 64, 127
1, 355871, Control_c, 0, 67, 90
1, 355901, Control_c, 0, 67, 90
1, 355908, Note_off_c, 0, 72, 23
1, 355916, Control_c, 0, 67, 93
1, 355931, Control_c, 0, 67, 96
1, 355936, Note_off_c, 0, 75, 58
1, 355946, Control_c, 0, 67, 98
1, 355960, Note_off_c, 0, 68, 37
1, 355960, Control_c, 0, 67, 100
1, 355975, Control_c, 0, 67, 101
1, 355976, Note_on_c, 0, 64, 56
1, 355990, Control_c, 0, 67, 102
1, 356005, Control_c, 0, 67, 102
1, 356020, Control_c, 0, 67, 103
1, 356056, Control_c, 0, 67, 103
1, 356071, Note_on_c, 0, 68, 54
1, 356071, Control_c, 0, 64, 111
1, 356079, Note_on_c, 0, 61, 41
1, 356082, Note_on_c, 0, 56, 43
1, 356086, Note_on_c, 0, 76, 59
1, 356086, Control_c, 0, 64, 79
1, 356088, Note_on_c, 0, 73, 54
1, 356101, Control_c, 0, 64, 48
1, 356116, Control_c, 0, 64, 0
1, 356145, Control_c, 0, 64, 54
1, 356160, Control_c, 0, 64, 70
1, 356175, Control_c, 0, 64, 83
1, 356190, Control_c, 0, 64, 109
1, 356196, Note_off_c, 0, 73, 49
1, 356199, Note_off_c, 0, 76, 47
1, 356205, Control_c, 0, 64, 127
1, 356209, Note_off_c, 0, 68, 43
1, 356262, Note_off_c, 0, 56, 53
1, 356282, Note_off_c, 0, 61, 42
1, 356295, Control_c, 0, 67, 104
1, 356309, Control_c, 0, 67, 104
1, 356324, Control_c, 0, 67, 105
1, 356325, Note_off_c, 0, 64, 43
1, 356340, Note_on_c, 0, 73, 50
1, 356340, Note_on_c, 0, 76, 53
1, 356341, Note_on_c, 0, 68, 51
1, 356354, Control_c, 0, 67, 106
1, 356369, Control_c, 0, 67, 107
1, 356384, Control_c, 0, 67, 109
1, 356399, Control_c, 0, 67, 111
1, 356413, Control_c, 0, 67, 113
1, 356426, Note_on_c, 0, 64, 56
1, 356428, Control_c, 0, 67, 115
1, 356429, Note_off_c, 0, 68, 55
1, 356436, Note_on_c, 0, 61, 39
1, 356438, Note_on_c, 0, 56, 36
1, 356443, Control_c, 0, 67, 117
1, 356457, Control_c, 0, 67, 118
1, 356472, Control_c, 0, 67, 119
1, 356473, Note_off_c, 0, 73, 49
1, 356487, Control_c, 0, 67, 121
1, 356500, Note_off_c, 0, 56, 52
1, 356502, Control_c, 0, 67, 122
1, 356517, Control_c, 0, 67, 124
1, 356531, Control_c, 0, 67, 126
1, 356534, Note_off_c, 0, 64, 49
1, 356546, Control_c, 0, 67, 127
1, 356596, Note_off_c, 0, 61, 39
1, 356625, Note_off_c, 0, 49, 27
1, 356882, Note_on_c, 0, 73, 61
1, 356894, Note_on_c, 0, 64, 39
1, 356900, Note_on_c, 0, 56, 43
1, 356903, Note_on_c, 0, 49, 34
1, 356934, Note_off_c, 0, 56, 55
1, 356937, Note_off_c, 0, 64, 48
1, 356944, Note_off_c, 0, 49, 50
1, 356948, Note_off_c, 0, 76, 43
1, 356996, Note_on_c, 0, 75, 73
1, 357013, Note_on_c, 0, 56, 41
1, 357016, Note_on_c, 0, 49, 41
1, 357029, Note_off_c, 0, 73, 59
1, 357042, Note_off_c, 0, 56, 57
1, 357062, Poly_aftertouch_c, 0, 64, 127
1, 357069, Note_off_c, 0, 49, 45
1, 357090, Poly_aftertouch_c, 0, 64, 0
1, 357177, Note_on_c, 0, 76, 78
1, 357201, Note_off_c, 0, 75, 64
1, 357206, Control_c, 0, 64, 84
1, 357211, Note_on_c, 0, 64, 43
1, 357221, Note_on_c, 0, 49, 36
1, 357221, Control_c, 0, 64, 58
1, 357222, Note_on_c, 0, 56, 32
1, 357236, Control_c, 0, 64, 0
1, 357257, Note_off_c, 0, 64, 0
1, 357257, Note_on_c, 0, 64, 4
1, 357266, Control_c, 0, 64, 38
1, 357280, Control_c, 0, 64, 65
1, 357295, Control_c, 0, 64, 74
1, 357310, Control_c, 0, 64, 91
1, 357325, Control_c, 0, 64, 127
1, 357367, Note_off_c, 0, 76, 62
1, 357368, Note_off_c, 0, 64, 51
1, 357382, Note_off_c, 0, 56, 40
1, 357413, Note_off_c, 0, 49, 0
1, 357429, Note_on_c, 0, 49, 49
1, 357430, Note_on_c, 0, 56, 61
1, 357436, Note_on_c, 0, 76, 77
1, 357460, Note_off_c, 0, 56, 65
1, 357463, Note_on_c, 0, 64, 55
1, 357476, Note_off_c, 0, 49, 55
1, 357531, Note_on_c, 0, 75, 78
1, 357534, Note_on_c, 0, 56, 66
1, 357541, Note_on_c, 0, 49, 44
1, 357555, Note_off_c, 0, 64, 0
1, 357560, Note_off_c, 0, 56, 66
1, 357560, Note_off_c, 0, 76, 59
1, 357581, Note_off_c, 0, 49, 0
1, 357591, Poly_aftertouch_c, 0, 64, 127
1, 357613, Note_on_c, 0, 56, 73
1, 357613, Note_on_c, 0, 73, 85
1, 357618, Poly_aftertouch_c, 0, 49, 127
1, 357634, Note_off_c, 0, 75, 61
1, 357652, Note_off_c, 0, 56, 55
1, 357669, Poly_aftertouch_c, 0, 64, 0
1, 357681, Poly_aftertouch_c, 0, 49, 0
1, 357696, Note_off_c, 0, 73, 62
1, 357780, Note_on_c, 0, 58, 75
1, 357785, Note_on_c, 0, 73, 86
1, 357802, Note_on_c, 0, 49, 56
1, 357815, Note_off_c, 0, 58, 58
1, 357816, Note_on_c, 0, 64, 43
1, 357866, Note_on_c, 0, 59, 71
1, 357866, Note_off_c, 0, 64, 41
1, 357867, Control_c, 0, 64, 107
1, 357871, Note_on_c, 0, 71, 79
1, 357882, Control_c, 0, 64, 77
1, 357886, Note_off_c, 0, 49, 60
1, 357897, Note_off_c, 0, 59, 63
1, 357897, Control_c, 0, 64, 43
1, 357898, Note_off_c, 0, 73, 56
1, 357911, Control_c, 0, 64, 0
1, 357956, Control_c, 0, 64, 47
1, 357961, Note_on_c, 0, 70, 73
1, 357967, Note_on_c, 0, 64, 24
1, 357971, Control_c, 0, 64, 68
1, 357977, Note_on_c, 0, 61, 78
1, 357985, Control_c, 0, 64, 80
1, 357989, Note_on_c, 0, 49, 51
1, 357991, Note_off_c, 0, 71, 56
1, 358000, Control_c, 0, 64, 101
1, 358015, Control_c, 0, 64, 127
1, 358041, Note_off_c, 0, 61, 60
1, 358045, Note_off_c, 0, 49, 55
1, 358062, Note_off_c, 0, 70, 62
1, 358069, Note_off_c, 0, 64, 38
1, 358152, Note_on_c, 0, 61, 66
1, 358158, Note_on_c, 0, 49, 62
1, 358158, Note_on_c, 0, 70, 76
1, 358172, Note_on_c, 0, 64, 55
1, 358180, Note_off_c, 0, 61, 65
1, 358201, Note_off_c, 0, 64, 55
1, 358229, Note_on_c, 0, 68, 75
1, 358235, Note_on_c, 0, 59, 75
1, 358253, Note_off_c, 0, 70, 48
1, 358267, Control_c, 0, 64, 103
1, 358289, Control_c, 0, 64, 76
1, 358304, Control_c, 0, 64, 0
1, 358331, Note_off_c, 0, 59, 44
1, 358334, Note_on_c, 0, 67, 78
1, 358341, Note_on_c, 0, 58, 75
1, 358348, Note_off_c, 0, 68, 58
1, 358378, Control_c, 0, 64, 46
1, 358393, Control_c, 0, 64, 68
1, 358408, Control_c, 0, 64, 80
1, 358416, Note_off_c, 0, 58, 60
1, 358420, Note_off_c, 0, 49, 57
1, 358423, Control_c, 0, 64, 98
1, 358435, Note_off_c, 0, 67, 57
1, 358437, Control_c, 0, 64, 127
1, 358518, Note_on_c, 0, 64, 77
1, 358519, Note_on_c, 0, 58, 73
1, 358529, Note_on_c, 0, 49, 61
1, 358536, Note_on_c, 0, 67, 71
1, 358565, Note_off_c, 0, 49, 59
1, 358569, Note_off_c, 0, 64, 63
1, 358598, Note_off_c, 0, 67, 55
1, 358600, Note_off_c, 0, 58, 0
1, 358601, Note_on_c, 0, 51, 74
1, 358601, Note_on_c, 0, 63, 81
1, 358646, Control_c, 0, 64, 97
1, 358660, Control_c, 0, 64, 73
1, 358673, Poly_aftertouch_c, 0, 58, 0
1, 358675, Control_c, 0, 64, 0
1, 358691, Note_on_c, 0, 58, 45
1, 358693, Note_on_c, 0, 61, 79
1, 358693, Note_off_c, 0, 51, 59
1, 358694, Note_on_c, 0, 67, 79
1, 358696, Note_off_c, 0, 63, 63
1, 358705, Note_on_c, 0, 52, 64
1, 358778, Control_c, 0, 64, 63
1, 358793, Control_c, 0, 64, 74
1, 358808, Control_c, 0, 64, 86
1, 358813, Note_off_c, 0, 52, 59
1, 358813, Note_off_c, 0, 67, 53
1, 358813, Note_off_c, 0, 58, 57
1, 358819, Note_off_c, 0, 61, 59
1, 358823, Control_c, 0, 64, 106
1, 358838, Control_c, 0, 64, 127
1, 358897, Note_on_c, 0, 61, 79
1, 358903, Note_on_c, 0, 58, 62
1, 358905, Note_on_c, 0, 52, 62
1, 358924, Note_on_c, 0, 67, 60
1, 358933, Note_off_c, 0, 52, 64
1, 358940, Note_off_c, 0, 58, 54
1, 358950, Note_off_c, 0, 61, 59
1, 358973, Note_on_c, 0, 63, 69
1, 358987, Note_on_c, 0, 51, 71
1, 359016, Control_c, 0, 64, 106
1, 359038, Control_c, 0, 64, 84
1, 359040, Note_off_c, 0, 63, 61
1, 359046, Note_off_c, 0, 51, 54
1, 359053, Control_c, 0, 64, 64
1, 359067, Control_c, 0, 64, 0
1, 359070, Poly_aftertouch_c, 0, 58, 0
1, 359085, Note_on_c, 0, 64, 58
1, 359096, Note_on_c, 0, 58, 14
1, 359103, Note_on_c, 0, 49, 59
1, 359156, Control_c, 0, 64, 62
1, 359171, Control_c, 0, 64, 72
1, 359181, Note_off_c, 0, 67, 53
1, 359185, Control_c, 0, 64, 83
1, 359200, Control_c, 0, 64, 101
1, 359204, Note_off_c, 0, 49, 53
1, 359215, Control_c, 0, 64, 116
1, 359216, Note_off_c, 0, 58, 41
1, 359230, Control_c, 0, 64, 122
1, 359249, Note_off_c, 0, 64, 62
1, 359305, Note_on_c, 0, 58, 60
1, 359309, Note_on_c, 0, 63, 63
1, 359318, Note_on_c, 0, 49, 59
1, 359320, Note_on_c, 0, 67, 43
1, 359344, Note_off_c, 0, 58, 56
1, 359345, Note_off_c, 0, 67, 57
1, 359354, Note_off_c, 0, 49, 58
1, 359362, Note_off_c, 0, 63, 53
1, 359412, Note_on_c, 0, 67, 68
1, 359416, Note_on_c, 0, 64, 57
1, 359419, Note_on_c, 0, 58, 50
1, 359438, Poly_aftertouch_c, 0, 49, 0
1, 359455, Note_off_c, 0, 67, 56
1, 359460, Note_off_c, 0, 58, 61
1, 359482, Control_c, 0, 64, 123
1, 359496, Note_off_c, 0, 64, 0
1, 359496, Note_on_c, 0, 64, 13
1, 359497, Control_c, 0, 64, 124
1, 359512, Control_c, 0, 64, 126
1, 359571, Control_c, 0, 64, 124
1, 359600, Control_c, 0, 64, 109
1, 359604, Note_on_c, 0, 68, 67
1, 359615, Control_c, 0, 64, 90
1, 359618, Note_on_c, 0, 63, 55
1, 359618, Note_on_c, 0, 59, 54
1, 359630, Note_on_c, 0, 47, 44
1, 359630, Control_c, 0, 64, 71
1, 359633, Note_off_c, 0, 64, 42
1, 359645, Control_c, 0, 64, 0
1, 359749, Control_c, 0, 64, 46
1, 359764, Control_c, 0, 64, 66
1, 359769, Note_off_c, 0, 63, 60
1, 359786, Control_c, 0, 64, 74
1, 359791, Note_off_c, 0, 59, 43
1, 359801, Control_c, 0, 64, 82
1, 359815, Control_c, 0, 64, 92
1, 359830, Note_off_c, 0, 47, 36
1, 359830, Control_c, 0, 64, 99
1, 359845, Control_c, 0, 64, 104
1, 359860, Control_c, 0, 64, 108
1, 359875, Control_c, 0, 64, 113
1, 359889, Control_c, 0, 64, 117
1, 359898, Note_on_c, 0, 63, 57
1, 359904, Control_c, 0, 64, 121
1, 359907, Note_on_c, 0, 47, 38
1, 359913, Note_on_c, 0, 59, 53
1, 359919, Control_c, 0, 64, 127
1, 359956, Note_off_c, 0, 59, 56
1, 359956, Note_off_c, 0, 63, 55
1, 359962, Note_off_c, 0, 47, 50
1, 360042, Note_on_c, 0, 63, 57
1, 360053, Note_on_c, 0, 47, 21
1, 360071, Note_off_c, 0, 63, 67
1, 360074, Note_on_c, 0, 59, 36
1, 360108, Note_off_c, 0, 59, 50
1, 360262, Note_off_c, 0, 47, 0
1, 360286, Note_on_c, 0, 62, 48
1, 360289, Note_on_c, 0, 47, 17
1, 360292, Note_off_c, 0, 68, 55
1, 360301, Note_on_c, 0, 54, 43
1, 360335, Control_c, 0, 64, 100
1, 360350, Control_c, 0, 64, 71
1, 360365, Control_c, 0, 64, 0
1, 360453, Control_c, 0, 64, 65
1, 360468, Control_c, 0, 64, 77
1, 360483, Control_c, 0, 64, 96
1, 360498, Control_c, 0, 64, 127
1, 360549, Note_off_c, 0, 54, 52
1, 360560, Note_off_c, 0, 62, 37
1, 360581, Note_off_c, 0, 47, 44
1, 360649, Note_on_c, 0, 71, 62
1, 360666, Note_on_c, 0, 47, 38
1, 360670, Note_on_c, 0, 54, 44
1, 360691, Note_on_c, 0, 62, 20
1, 360710, Note_off_c, 0, 54, 54
1, 360720, Note_off_c, 0, 47, 47
1, 360732, Note_off_c, 0, 62, 48
1, 360785, Note_on_c, 0, 73, 70
1, 360797, Note_off_c, 0, 71, 49
1, 360823, Note_on_c, 0, 47, 24
1, 360825, Note_on_c, 0, 54, 41
1, 360872, Note_off_c, 0, 54, 49
1, 360992, Note_off_c, 0, 47, 0
1, 361008, Note_on_c, 0, 74, 69
1, 361018, Note_off_c, 0, 73, 52
1, 361022, Note_on_c, 0, 47, 12
1, 361040, Control_c, 0, 64, 93
1, 361045, Note_on_c, 0, 54, 37
1, 361049, Note_on_c, 0, 62, 32
1, 361055, Control_c, 0, 64, 70
1, 361070, Control_c, 0, 64, 19
1, 361085, Control_c, 0, 64, 23
1, 361100, Control_c, 0, 64, 61
1, 361115, Control_c, 0, 64, 70
1, 361129, Control_c, 0, 64, 80
1, 361144, Control_c, 0, 64, 98
1, 361159, Control_c, 0, 64, 127
1, 361192, Note_off_c, 0, 74, 60
1, 361209, Note_off_c, 0, 54, 43
1, 361211, Note_off_c, 0, 62, 45
1, 361258, Note_off_c, 0, 47, 0
1, 361283, Note_on_c, 0, 47, 38
1, 361296, Note_on_c, 0, 74, 71
1, 361296, Note_on_c, 0, 54, 51
1, 361325, Note_off_c, 0, 54, 62
1, 361332, Note_on_c, 0, 62, 22
1, 361356, Note_off_c, 0, 47, 0
1, 361381, Note_on_c, 0, 73, 73
1, 361383, Note_on_c, 0, 47, 35
1, 361395, Note_on_c, 0, 54, 60
1, 361404, Note_off_c, 0, 74, 53
1, 361419, Note_off_c, 0, 54, 65
1, 361462, Note_off_c, 0, 47, 0
1, 361478, Note_on_c, 0, 47, 42
1, 361481, Note_on_c, 0, 71, 75
1, 361487, Note_on_c, 0, 54, 67
1, 361506, Note_off_c, 0, 73, 54
1, 361517, Note_off_c, 0, 54, 61
1, 361552, Note_off_c, 0, 71, 62
1, 361582, Note_off_c, 0, 47, 35
1, 361599, Note_off_c, 0, 62, 33
1, 361664, Note_on_c, 0, 56, 79
1, 361668, Note_on_c, 0, 71, 70
1, 361696, Note_on_c, 0, 47, 46
1, 361702, Note_on_c, 0, 62, 45
1, 361702, Note_off_c, 0, 56, 56
1, 361744, Note_on_c, 0, 69, 72
1, 361751, Note_on_c, 0, 57, 69
1, 361767, Note_off_c, 0, 71, 55
1, 361779, Note_off_c, 0, 47, 53
1, 361781, Note_off_c, 0, 57, 64
1, 361818, Poly_aftertouch_c, 0, 47, 0
1, 361833, Control_c, 0, 64, 84
1, 361837, Note_on_c, 0, 47, 44
1, 361845, Note_on_c, 0, 59, 79
1, 361845, Note_on_c, 0, 68, 69
1, 361848, Control_c, 0, 64, 61
1, 361863, Control_c, 0, 64, 0
1, 361868, Note_off_c, 0, 69, 52
1, 361908, Control_c, 0, 64, 61
1, 361922, Control_c, 0, 64, 70
1, 361932, Note_off_c, 0, 59, 60
1, 361937, Control_c, 0, 64, 80
1, 361952, Control_c, 0, 64, 98
1, 361955, Note_off_c, 0, 47, 56
1, 361955, Note_off_c, 0, 62, 54
1, 361955, Note_off_c, 0, 68, 60
1, 361967, Control_c, 0, 64, 127
1, 362036, Note_on_c, 0, 59, 76
1, 362053, Note_on_c, 0, 47, 49
1, 362059, Note_off_c, 0, 59, 65
1, 362063, Note_on_c, 0, 68, 72
1, 362087, Note_off_c, 0, 47, 52
1, 362129, Note_on_c, 0, 57, 66
1, 362136, Note_on_c, 0, 47, 47
1, 362137, Note_on_c, 0, 66, 76
1, 362155, Note_off_c, 0, 57, 66
1, 362164, Note_off_c, 0, 68, 50
1, 362167, Note_off_c, 0, 47, 52
1, 362211, Control_c, 0, 64, 86
1, 362226, Control_c, 0, 64, 64
1, 362235, Note_on_c, 0, 47, 46
1, 362241, Control_c, 0, 64, 0
1, 362253, Note_on_c, 0, 65, 67
1, 362257, Note_on_c, 0, 56, 66
1, 362266, Note_off_c, 0, 66, 49
1, 362274, Note_on_c, 0, 62, 50
1, 362285, Control_c, 0, 64, 35
1, 362300, Control_c, 0, 64, 65
1, 362315, Control_c, 0, 64, 75
1, 362329, Control_c, 0, 64, 90
1, 362344, Control_c, 0, 64, 127
1, 362353, Note_off_c, 0, 65, 61
1, 362361, Note_off_c, 0, 56, 61
1, 362386, Note_off_c, 0, 47, 34
1, 362402, Note_off_c, 0, 62, 60
1, 362471, Note_on_c, 0, 65, 70
1, 362476, Note_on_c, 0, 47, 56
1, 362476, Note_on_c, 0, 62, 66
1, 362477, Note_on_c, 0, 56, 67
1, 362505, Note_off_c, 0, 56, 65
1, 362522, Note_off_c, 0, 65, 62
1, 362530, Note_off_c, 0, 47, 50
1, 362542, Note_off_c, 0, 62, 53
1, 362575, Note_on_c, 0, 56, 58
1, 362577, Note_on_c, 0, 61, 76
1, 362580, Note_on_c, 0, 49, 67
1, 362609, Note_off_c, 0, 56, 61
1, 362649, Note_off_c, 0, 49, 55
1, 362662, Poly_aftertouch_c, 0, 65, 127
1, 362720, Poly_aftertouch_c, 0, 65, 0
1, 362736, Note_off_c, 0, 61, 56
1, 362739, Note_on_c, 0, 59, 67
1, 362739, Note_on_c, 0, 65, 31
1, 362745, Control_c, 0, 64, 122
1, 362752, Note_on_c, 0, 50, 54
1, 362760, Control_c, 0, 64, 85
1, 362778, Note_on_c, 0, 56, 46
1, 362782, Control_c, 0, 64, 64
1, 362797, Control_c, 0, 64, 0
1, 362870, Control_c, 0, 64, 47
1, 362885, Control_c, 0, 64, 67
1, 362900, Control_c, 0, 64, 78
1, 362912, Note_off_c, 0, 56, 56
1, 362915, Control_c, 0, 64, 95
1, 362929, Note_off_c, 0, 59, 54
1, 362930, Control_c, 0, 64, 127
1, 362934, Note_off_c, 0, 50, 54
1, 362942, Note_off_c, 0, 65, 58
1, 363008, Note_on_c, 0, 50, 51
1, 363022, Note_on_c, 0, 59, 63
1, 363022, Note_on_c, 0, 56, 53
1, 363043, Note_on_c, 0, 65, 37
1, 363055, Note_off_c, 0, 50, 61
1, 363061, Note_off_c, 0, 56, 59
1, 363080, Note_off_c, 0, 65, 50
1, 363091, Note_off_c, 0, 59, 45
1, 363121, Note_on_c, 0, 49, 64
1, 363122, Note_on_c, 0, 61, 71
1, 363142, Note_on_c, 0, 65, 40
1, 363176, Note_off_c, 0, 65, 53
1, 363190, Note_off_c, 0, 49, 50
1, 363199, Note_off_c, 0, 61, 56
1, 363270, Note_on_c, 0, 65, 57
1, 363283, Note_on_c, 0, 47, 51
1, 363285, Note_on_c, 0, 62, 57
1, 363285, Control_c, 0, 64, 92
1, 363288, Note_on_c, 0, 56, 50
1, 363300, Control_c, 0, 64, 69
1, 363315, Control_c, 0, 64, 0
1, 363404, Control_c, 0, 64, 60
1, 363419, Control_c, 0, 64, 70
1, 363428, Note_off_c, 0, 47, 59
1, 363430, Note_off_c, 0, 56, 56
1, 363431, Note_off_c, 0, 65, 57
1, 363434, Control_c, 0, 64, 81
1, 363449, Control_c, 0, 64, 94
1, 363459, Note_off_c, 0, 62, 55
1, 363464, Control_c, 0, 64, 111
1, 363479, Control_c, 0, 64, 127
1, 363544, Note_on_c, 0, 56, 47
1, 363552, Note_on_c, 0, 47, 40
1, 363552, Note_on_c, 0, 61, 61
1, 363553, Note_on_c, 0, 65, 53
1, 363576, Note_off_c, 0, 65, 60
1, 363585, Note_off_c, 0, 47, 52
1, 363586, Note_off_c, 0, 56, 49
1, 363610, Note_off_c, 0, 61, 49
1, 363660, Note_on_c, 0, 56, 46
1, 363660, Note_on_c, 0, 65, 59
1, 363660, Note_on_c, 0, 47, 46
1, 363673, Note_on_c, 0, 62, 56
1, 363701, Note_off_c, 0, 47, 60
1, 363703, Note_off_c, 0, 65, 53
1, 363710, Note_off_c, 0, 56, 60
1, 363726, Note_off_c, 0, 62, 47
1, 363855, Note_on_c, 0, 66, 62
1, 363857, Control_c, 0, 64, 99
1, 363870, Note_on_c, 0, 61, 55
1, 363871, Note_on_c, 0, 45, 56
1, 363872, Control_c, 0, 64, 75
1, 363872, Note_on_c, 0, 57, 51
1, 363887, Control_c, 0, 64, 0
1, 363975, Control_c, 0, 64, 57
1, 363990, Control_c, 0, 64, 69
1, 363997, Note_off_c, 0, 61, 49
1, 364003, Note_off_c, 0, 57, 57
1, 364005, Control_c, 0, 64, 79
1, 364018, Note_off_c, 0, 45, 60
1, 364020, Control_c, 0, 64, 91
1, 364035, Control_c, 0, 64, 107
1, 364049, Control_c, 0, 64, 126
1, 364064, Control_c, 0, 64, 127
1, 364110, Note_on_c, 0, 45, 54
1, 364110, Note_on_c, 0, 61, 65
1, 364115, Note_on_c, 0, 57, 58
1, 364137, Note_off_c, 0, 61, 65
1, 364139, Note_off_c, 0, 45, 59
1, 364145, Note_off_c, 0, 57, 58
1, 364201, Note_on_c, 0, 57, 55
1, 364205, Note_on_c, 0, 61, 69
1, 364226, Note_on_c, 0, 45, 33
1, 364229, Note_off_c, 0, 57, 65
1, 364231, Note_off_c, 0, 61, 65
1, 364287, Note_off_c, 0, 45, 0
1, 364300, Note_on_c, 0, 45, 56
1, 364300, Note_on_c, 0, 61, 75
1, 364309, Note_on_c, 0, 54, 56
1, 364325, Note_off_c, 0, 66, 61
1, 364329, Note_off_c, 0, 61, 63
1, 364331, Note_off_c, 0, 45, 65
1, 364333, Note_off_c, 0, 54, 62
1, 364428, Control_c, 0, 67, 126
1, 364443, Control_c, 0, 64, 111
1, 364443, Control_c, 0, 67, 124
1, 364458, Control_c, 0, 64, 83
1, 364458, Control_c, 0, 67, 123
1, 364472, Control_c, 0, 64, 64
1, 364472, Control_c, 0, 67, 121
1, 364487, Control_c, 0, 64, 0
1, 364487, Control_c, 0, 67, 118
1, 364502, Control_c, 0, 67, 115
1, 364510, Note_on_c, 0, 45, 81
1, 364510, Note_on_c, 0, 66, 81
1, 364516, Note_on_c, 0, 61, 70
1, 364517, Control_c, 0, 67, 111
1, 364532, Control_c, 0, 67, 106
1, 364533, Note_on_c, 0, 49, 49
1, 364539, Note_off_c, 0, 61, 65
1, 364540, Note_off_c, 0, 45, 69
1, 364546, Control_c, 0, 67, 102
1, 364561, Control_c, 0, 67, 100
1, 364562, Note_off_c, 0, 49, 56
1, 364576, Control_c, 0, 67, 97
1, 364581, Note_off_c, 0, 66, 0
1, 364590, Note_on_c, 0, 68, 86
1, 364591, Control_c, 0, 67, 94
1, 364594, Note_on_c, 0, 44, 84
1, 364599, Note_on_c, 0, 66, 38
1, 364605, Note_on_c, 0, 49, 50
1, 364605, Control_c, 0, 67, 88
1, 364619, Note_off_c, 0, 66, 64
1, 364620, Note_off_c, 0, 44, 70
1, 364620, Control_c, 0, 67, 80
1, 364621, Note_on_c, 0, 59, 44
1, 364629, Note_off_c, 0, 68, 62
1, 364632, Note_off_c, 0, 49, 59
1, 364635, Control_c, 0, 67, 70
1, 364650, Note_off_c, 0, 59, 54
1, 364650, Control_c, 0, 67, 59
1, 364665, Control_c, 0, 67, 50
1, 364680, Control_c, 0, 67, 43
1, 364683, Note_on_c, 0, 49, 94
1, 364686, Note_on_c, 0, 42, 91
1, 364689, Note_on_c, 0, 69, 93
1, 364695, Control_c, 0, 64, 37
1, 364695, Control_c, 0, 67, 38
1, 364695, Note_on_c, 0, 57, 84
1, 364707, Note_off_c, 0, 49, 68
1, 364710, Control_c, 0, 64, 84
1, 364710, Control_c, 0, 67, 34
1, 364716, Note_off_c, 0, 57, 71
1, 364719, Note_off_c, 0, 42, 63
1, 364724, Note_on_c, 0, 68, 34
1, 364724, Control_c, 0, 64, 127
1, 364724, Control_c, 0, 67, 29
1, 364734, Note_off_c, 0, 69, 66
1, 364739, Control_c, 0, 67, 27
1, 364754, Control_c, 0, 67, 26
1, 364756, Note_off_c, 0, 68, 56
1, 364784, Control_c, 0, 67, 25
1, 364872, Control_c, 0, 67, 26
1, 364887, Control_c, 0, 64, 84
1, 364887, Control_c, 0, 67, 27
1, 364892, Note_on_c, 0, 69, 90
1, 364893, Note_on_c, 0, 42, 84
1, 364897, Note_on_c, 0, 57, 81
1, 364899, Note_on_c, 0, 49, 75
1, 364902, Control_c, 0, 64, 0
1, 364902, Control_c, 0, 67, 27
1, 364915, Note_off_c, 0, 42, 70
1, 364915, Note_off_c, 0, 49, 68
1, 364915, Note_off_c, 0, 57, 72
1, 364916, Control_c, 0, 67, 28
1, 364920, Note_off_c, 0, 69, 62
1, 364972, Note_on_c, 0, 49, 74
1, 364972, Note_on_c, 0, 71, 95
1, 364975, Note_on_c, 0, 44, 83
1, 364984, Note_on_c, 0, 59, 74
1, 365000, Note_off_c, 0, 49, 66
1, 365005, Note_off_c, 0, 44, 67
1, 365007, Note_off_c, 0, 71, 69
1, 365009, Note_off_c, 0, 59, 68
1, 365029, Control_c, 0, 67, 27
1, 365075, Note_on_c, 0, 49, 65
1, 365077, Note_on_c, 0, 45, 87
1, 365088, Note_on_c, 0, 73, 103
1, 365091, Note_on_c, 0, 61, 95
1, 365103, Control_c, 0, 64, 66
1, 365103, Control_c, 0, 67, 27
1, 365108, Note_off_c, 0, 61, 72
1, 365109, Note_off_c, 0, 45, 63
1, 365118, Control_c, 0, 64, 107
1, 365118, Control_c, 0, 67, 26
1, 365121, Note_off_c, 0, 49, 59
1, 365124, Note_off_c, 0, 73, 68
1, 365133, Control_c, 0, 64, 127
1, 365147, Control_c, 0, 67, 25
1, 365162, Control_c, 0, 67, 24
1, 365177, Control_c, 0, 67, 20
1, 365192, Control_c, 0, 67, 13
1, 365207, Control_c, 0, 67, 0
1, 365283, Note_on_c, 0, 47, 82
1, 365295, Control_c, 0, 64, 81
1, 365297, Note_on_c, 0, 62, 88
1, 365297, Note_on_c, 0, 74, 98
1, 365307, Note_on_c, 0, 49, 52
1, 365310, Note_off_c, 0, 47, 69
1, 365310, Control_c, 0, 64, 0
1, 365317, Note_off_c, 0, 62, 69
1, 365318, Note_off_c, 0, 74, 65
1, 365330, Note_off_c, 0, 49, 61
1, 365378, Note_on_c, 0, 74, 84
1, 365379, Note_on_c, 0, 47, 69
1, 365399, Note_on_c, 0, 62, 48
1, 365404, Note_on_c, 0, 49, 43
1, 365412, Note_off_c, 0, 74, 63
1, 365415, Note_off_c, 0, 47, 62
1, 365425, Note_off_c, 0, 62, 58
1, 365438, Note_off_c, 0, 49, 54
1, 365485, Note_on_c, 0, 73, 90
1, 365488, Note_on_c, 0, 45, 67
1, 365488, Control_c, 0, 64, 66
1, 365499, Note_on_c, 0, 61, 68
1, 365503, Control_c, 0, 64, 97
1, 365510, Note_off_c, 0, 73, 63
1, 365515, Note_off_c, 0, 45, 66
1, 365517, Control_c, 0, 64, 127
1, 365519, Note_off_c, 0, 61, 63
1, 365524, Note_on_c, 0, 49, 6
1, 365578, Note_off_c, 0, 49, 40
1, 365685, Note_on_c, 0, 41, 72
1, 365687, Note_on_c, 0, 49, 59
1, 365693, Note_on_c, 0, 68, 83
1, 365705, Note_on_c, 0, 56, 65
1, 365710, Control_c, 0, 64, 91
1, 365711, Note_off_c, 0, 41, 64
1, 365713, Note_off_c, 0, 68, 70
1, 365714, Note_off_c, 0, 49, 61
1, 365725, Control_c, 0, 64, 66
1, 365728, Note_off_c, 0, 56, 62
1, 365739, Control_c, 0, 64, 0
1, 365777, Note_on_c, 0, 41, 79
1, 365783, Note_on_c, 0, 68, 78
1, 365788, Note_on_c, 0, 49, 65
1, 365802, Note_on_c, 0, 56, 52
1, 365808, Note_off_c, 0, 68, 64
1, 365818, Note_off_c, 0, 41, 59
1, 365820, Note_off_c, 0, 49, 64
1, 365829, Note_off_c, 0, 56, 59
1, 365881, Note_on_c, 0, 42, 73
1, 365886, Note_on_c, 0, 49, 64
1, 365887, Note_on_c, 0, 69, 85
1, 365895, Control_c, 0, 64, 68
1, 365905, Note_on_c, 0, 57, 53
1, 365910, Control_c, 0, 64, 101
1, 365924, Control_c, 0, 64, 127
1, 365926, Note_off_c, 0, 49, 57
1, 365931, Note_off_c, 0, 57, 58
1, 365932, Note_off_c, 0, 69, 61
1, 365934, Note_off_c, 0, 42, 56
1, 366081, Note_on_c, 0, 45, 79
1, 366082, Note_on_c, 0, 66, 85
1, 366088, Note_on_c, 0, 61, 77
1, 366112, Note_off_c, 0, 61, 67
1, 366115, Note_off_c, 0, 45, 65
1, 366142, Note_off_c, 0, 66, 0
1, 366146, Control_c, 0, 64, 86
1, 366151, Poly_aftertouch_c, 0, 49, 127
1, 366160, Note_on_c, 0, 68, 82
1, 366161, Control_c, 0, 64, 52
1, 366164, Note_on_c, 0, 44, 84
1, 366174, Note_on_c, 0, 59, 67
1, 366176, Control_c, 0, 64, 0
1, 366179, Poly_aftertouch_c, 0, 66, 127
1, 366184, Note_on_c, 0, 66, 9
1, 366187, Note_off_c, 0, 68, 66
1, 366192, Poly_aftertouch_c, 0, 49, 0
1, 366193, Note_off_c, 0, 44, 68
1, 366195, Note_off_c, 0, 66, 55
1, 366202, Note_off_c, 0, 59, 66
1, 366256, Note_on_c, 0, 49, 92
1, 366263, Note_on_c, 0, 57, 88
1, 366264, Note_on_c, 0, 42, 77
1, 366264, Note_on_c, 0, 69, 85
1, 366279, Note_off_c, 0, 49, 70
1, 366281, Note_off_c, 0, 69, 72
1, 366283, Note_off_c, 0, 57, 71
1, 366289, Note_off_c, 0, 42, 66
1, 366343, Note_on_c, 0, 49, 83
1, 366350, Note_on_c, 0, 42, 76
1, 366353, Note_on_c, 0, 57, 75
1, 366355, Note_on_c, 0, 69, 84
1, 366370, Note_off_c, 0, 49, 68
1, 366373, Note_off_c, 0, 69, 72
1, 366373, Note_off_c, 0, 42, 66
1, 366377, Note_off_c, 0, 57, 67
1, 366431, Note_on_c, 0, 42, 83
1, 366432, Note_on_c, 0, 49, 84
1, 366436, Note_on_c, 0, 57, 81
1, 366439, Note_on_c, 0, 69, 87
1, 366455, Note_off_c, 0, 49, 68
1, 366459, Note_off_c, 0, 57, 69
1, 366460, Note_off_c, 0, 42, 65
1, 366463, Note_off_c, 0, 69, 66
1, 366523, Note_on_c, 0, 49, 64
1, 366527, Note_on_c, 0, 44, 85
1, 366530, Note_on_c, 0, 71, 91
1, 366535, Note_on_c, 0, 59, 79
1, 366552, Note_off_c, 0, 49, 66
1, 366555, Note_off_c, 0, 59, 69
1, 366556, Note_off_c, 0, 44, 68
1, 366556, Note_off_c, 0, 71, 64
1, 366617, Note_on_c, 0, 45, 91
1, 366619, Note_on_c, 0, 49, 76
1, 366630, Note_on_c, 0, 73, 96
1, 366635, Note_on_c, 0, 61, 80
1, 366641, Note_off_c, 0, 45, 71
1, 366644, Note_off_c, 0, 49, 66
1, 366644, Note_off_c, 0, 73, 76
1, 366644, Control_c, 0, 64, 79
1, 366659, Note_off_c, 0, 61, 66
1, 366659, Control_c, 0, 64, 127
1, 366810, Note_on_c, 0, 47, 88
1, 366822, Control_c, 0, 64, 87
1, 366823, Note_on_c, 0, 62, 87
1, 366823, Note_on_c, 0, 74, 98
1, 366832, Note_on_c, 0, 49, 44
1, 366833, Note_off_c, 0, 47, 71
1, 366837, Control_c, 0, 64, 0
1, 366841, Note_off_c, 0, 62, 71
1, 366846, Note_off_c, 0, 74, 67
1, 366883, Note_off_c, 0, 49, 0
1, 366889, Note_on_c, 0, 47, 88
1, 366897, Note_on_c, 0, 49, 64
1, 366916, Note_on_c, 0, 74, 92
1, 366919, Note_off_c, 0, 47, 65
1, 366922, Note_on_c, 0, 62, 64
1, 366927, Note_off_c, 0, 49, 64
1, 366947, Note_off_c, 0, 74, 56
1, 366950, Note_off_c, 0, 62, 63
1, 366990, Note_on_c, 0, 49, 85
1, 366993, Note_on_c, 0, 45, 81
1, 366993, Note_on_c, 0, 73, 95
1, 367000, Note_on_c, 0, 61, 91
1, 367014, Control_c, 0, 64, 62
1, 367016, Note_off_c, 0, 49, 67
1, 367021, Note_off_c, 0, 45, 67
1, 367021, Note_off_c, 0, 61, 69
1, 367027, Note_on_c, 0, 74, 28
1, 367029, Control_c, 0, 64, 111
1, 367031, Note_off_c, 0, 73, 68
1, 367044, Control_c, 0, 64, 127
1, 367064, Note_off_c, 0, 74, 30
1, 367192, Control_c, 0, 64, 83
1, 367198, Note_on_c, 0, 49, 77
1, 367205, Note_on_c, 0, 68, 89
1, 367207, Control_c, 0, 64, 0
1, 367208, Note_on_c, 0, 40, 57
1, 367208, Note_on_c, 0, 56, 81
1, 367211, Note_on_c, 0, 41, 59
1, 367222, Note_off_c, 0, 68, 72
1, 367225, Note_off_c, 0, 49, 66
1, 367232, Note_off_c, 0, 56, 69
1, 367237, Note_off_c, 0, 40, 55
1, 367237, Note_off_c, 0, 41, 56
1, 367288, Note_on_c, 0, 68, 72
1, 367288, Note_on_c, 0, 49, 77
1, 367300, Note_on_c, 0, 41, 73
1, 367308, Note_on_c, 0, 56, 53
1, 367312, Note_off_c, 0, 68, 66
1, 367318, Note_off_c, 0, 49, 61
1, 367322, Note_off_c, 0, 41, 63
1, 367335, Note_off_c, 0, 56, 59
1, 367384, Note_on_c, 0, 49, 78
1, 367387, Note_on_c, 0, 42, 86
1, 367389, Note_on_c, 0, 69, 90
1, 367393, Note_on_c, 0, 57, 82
1, 367408, Control_c, 0, 64, 68
1, 367415, Note_off_c, 0, 57, 69
1, 367417, Note_off_c, 0, 49, 65
1, 367419, Note_off_c, 0, 69, 60
1, 367422, Control_c, 0, 64, 99
1, 367423, Note_off_c, 0, 42, 64
1, 367437, Control_c, 0, 64, 127
1, 367571, Control_c, 0, 64, 93
1, 367571, Control_c, 0, 67, 10
1, 367586, Control_c, 0, 64, 65
1, 367586, Control_c, 0, 67, 14
1, 367596, Note_on_c, 0, 39, 68
1, 367599, Note_on_c, 0, 49, 69
1, 367600, Note_on_c, 0, 54, 79
1, 367601, Control_c, 0, 64, 0
1, 367601, Control_c, 0, 67, 17
1, 367615, Control_c, 0, 67, 20
1, 367622, Note_off_c, 0, 49, 63
1, 367623, Note_off_c, 0, 54, 67
1, 367625, Note_off_c, 0, 39, 63
1, 367630, Control_c, 0, 67, 23
1, 367645, Control_c, 0, 67, 25
1, 367660, Control_c, 0, 67, 27
1, 367675, Control_c, 0, 67, 28
1, 367687, Note_on_c, 0, 49, 63
1, 367689, Note_on_c, 0, 39, 61
1, 367689, Control_c, 0, 67, 30
1, 367690, Note_on_c, 0, 66, 61
1, 367700, Note_on_c, 0, 54, 27
1, 367704, Control_c, 0, 67, 31
1, 367714, Note_off_c, 0, 49, 61
1, 367717, Note_off_c, 0, 66, 65
1, 367721, Note_off_c, 0, 39, 57
1, 367734, Control_c, 0, 67, 32
1, 367738, Note_off_c, 0, 54, 45
1, 367763, Control_c, 0, 67, 33
1, 367778, Control_c, 0, 67, 34
1, 367780, Note_on_c, 0, 41, 72
1, 367780, Note_on_c, 0, 49, 69
1, 367792, Note_on_c, 0, 68, 84
1, 367793, Control_c, 0, 64, 80
1, 367793, Control_c, 0, 67, 35
1, 367798, Note_on_c, 0, 56, 71
1, 367808, Control_c, 0, 64, 127
1, 367808, Control_c, 0, 67, 36
1, 367816, Note_off_c, 0, 41, 63
1, 367819, Note_off_c, 0, 68, 59
1, 367822, Note_off_c, 0, 49, 56
1, 367822, Note_off_c, 0, 56, 67
1, 367822, Control_c, 0, 67, 37
1, 367837, Control_c, 0, 67, 38
1, 367882, Control_c, 0, 67, 38
1, 367911, Control_c, 0, 67, 39
1, 367926, Control_c, 0, 67, 41
1, 367941, Control_c, 0, 67, 45
1, 367956, Control_c, 0, 67, 49
1, 367971, Control_c, 0, 64, 116
1, 367971, Control_c, 0, 67, 52
1, 367986, Control_c, 0, 64, 82
1, 367986, Control_c, 0, 67, 56
1, 368001, Control_c, 0, 64, 59
1, 368001, Control_c, 0, 67, 59
1, 368006, Note_on_c, 0, 49, 63
1, 368006, Note_on_c, 0, 38, 65
1, 368007, Note_on_c, 0, 65, 80
1, 368022, Control_c, 0, 64, 0
1, 368022, Control_c, 0, 67, 62
1, 368027, Note_on_c, 0, 53, 59
1, 368036, Note_off_c, 0, 65, 71
1, 368037, Control_c, 0, 67, 66
1, 368041, Note_off_c, 0, 38, 64
1, 368042, Note_off_c, 0, 49, 65
1, 368051, Note_off_c, 0, 53, 61
1, 368052, Control_c, 0, 67, 68
1, 368067, Control_c, 0, 67, 71
1, 368082, Control_c, 0, 67, 73
1, 368096, Control_c, 0, 67, 74
1, 368101, Note_on_c, 0, 49, 73
1, 368108, Note_on_c, 0, 38, 61
1, 368111, Note_on_c, 0, 53, 70
1, 368111, Control_c, 0, 67, 75
1, 368114, Note_on_c, 0, 65, 70
1, 368126, Control_c, 0, 67, 76
1, 368132, Note_off_c, 0, 49, 64
1, 368133, Note_off_c, 0, 65, 66
1, 368135, Note_off_c, 0, 53, 66
1, 368138, Note_off_c, 0, 38, 64
1, 368141, Control_c, 0, 67, 77
1, 368156, Control_c, 0, 67, 79
1, 368170, Control_c, 0, 67, 82
1, 368185, Control_c, 0, 67, 86
1, 368201, Control_c, 0, 67, 90
1, 368216, Control_c, 0, 67, 93
1, 368224, Note_on_c, 0, 39, 56
1, 368226, Note_on_c, 0, 66, 74
1, 368231, Control_c, 0, 67, 96
1, 368235, Note_on_c, 0, 54, 53
1, 368245, Control_c, 0, 64, 65
1, 368245, Control_c, 0, 67, 99
1, 368252, Note_off_c, 0, 66, 61
1, 368260, Note_off_c, 0, 54, 60
1, 368260, Control_c, 0, 64, 73
1, 368260, Control_c, 0, 67, 103
1, 368272, Note_off_c, 0, 39, 53
1, 368275, Control_c, 0, 64, 82
1, 368275, Control_c, 0, 67, 107
1, 368290, Control_c, 0, 64, 95
1, 368290, Control_c, 0, 67, 112
1, 368305, Control_c, 0, 64, 110
1, 368305, Control_c, 0, 67, 115
1, 368319, Control_c, 0, 64, 127
1, 368319, Control_c, 0, 67, 118
1, 368334, Control_c, 0, 67, 120
1, 368349, Control_c, 0, 67, 121
1, 368364, Control_c, 0, 67, 122
1, 368379, Control_c, 0, 67, 124
1, 368394, Control_c, 0, 67, 126
1, 368409, Control_c, 0, 67, 127
1, 368424, Control_c, 0, 64, 114
1, 368438, Control_c, 0, 64, 88
1, 368453, Control_c, 0, 64, 70
1, 368457, Note_on_c, 0, 44, 57
1, 368459, Note_on_c, 0, 60, 62
1, 368463, Note_on_c, 0, 39, 50
1, 368468, Control_c, 0, 64, 62
1, 368470, Note_on_c, 0, 54, 54
1, 368483, Control_c, 0, 64, 67
1, 368492, Note_off_c, 0, 44, 62
1, 368497, Note_off_c, 0, 39, 61
1, 368498, Control_c, 0, 64, 72
1, 368510, Note_off_c, 0, 54, 61
1, 368512, Control_c, 0, 64, 79
1, 368527, Control_c, 0, 64, 91
1, 368535, Note_off_c, 0, 60, 62
1, 368542, Control_c, 0, 64, 100
1, 368557, Control_c, 0, 64, 103
1, 368559, Note_on_c, 0, 44, 58
1, 368568, Note_on_c, 0, 39, 39
1, 368595, Note_off_c, 0, 44, 53
1, 368612, Note_off_c, 0, 39, 47
1, 368675, Control_c, 0, 64, 103
1, 368734, Control_c, 0, 64, 94
1, 368746, Note_on_c, 0, 44, 53
1, 368749, Control_c, 0, 64, 78
1, 368751, Note_on_c, 0, 61, 63
1, 368767, Note_on_c, 0, 53, 52
1, 368771, Control_c, 0, 64, 62
1, 368775, Note_on_c, 0, 37, 49
1, 368786, Control_c, 0, 64, 0
1, 368816, Control_c, 0, 64, 59
1, 368831, Control_c, 0, 64, 68
1, 368845, Control_c, 0, 64, 75
1, 368860, Control_c, 0, 64, 84
1, 368875, Control_c, 0, 64, 95
1, 368889, Control_c, 0, 64, 106
1, 368901, Note_off_c, 0, 37, 34
1, 368904, Control_c, 0, 64, 127
1, 369026, Note_on_c, 0, 37, 54
1, 369059, Note_off_c, 0, 37, 56
1, 369069, Note_off_c, 0, 61, 57
1, 369113, Note_on_c, 0, 37, 58
1, 369127, Note_off_c, 0, 44, 62
1, 369128, Note_off_c, 0, 53, 36
1, 369148, Note_off_c, 0, 37, 58
1, 369225, Note_on_c, 0, 61, 79
1, 369227, Note_on_c, 0, 37, 66
1, 369239, Note_on_c, 0, 45, 63
1, 369247, Note_on_c, 0, 52, 56
1, 369247, Control_c, 0, 64, 119
1, 369261, Control_c, 0, 64, 91
1, 369276, Control_c, 0, 64, 70
1, 369291, Control_c, 0, 64, 43
1, 369306, Control_c, 0, 64, 21
1, 369320, Control_c, 0, 64, 57
1, 369335, Control_c, 0, 64, 67
1, 369346, Note_off_c, 0, 37, 58
1, 369350, Control_c, 0, 64, 75
1, 369365, Control_c, 0, 64, 86
1, 369380, Control_c, 0, 64, 107
1, 369394, Control_c, 0, 64, 127
1, 369444, Note_on_c, 0, 37, 60
1, 369479, Note_off_c, 0, 37, 59
1, 369541, Note_on_c, 0, 37, 64
1, 369625, Note_off_c, 0, 37, 51
1, 369655, Note_on_c, 0, 64, 85
1, 369703, Note_on_c, 0, 43, 64
1, 369708, Note_on_c, 0, 57, 56
1, 369709, Note_on_c, 0, 37, 31
1, 369726, Note_off_c, 0, 45, 51
1, 369726, Control_c, 0, 64, 95
1, 369741, Control_c, 0, 64, 72
1, 369744, Note_off_c, 0, 52, 37
1, 369756, Control_c, 0, 64, 0
1, 369781, Note_off_c, 0, 37, 57
1, 369800, Note_off_c, 0, 61, 38
1, 369802, Control_c, 0, 64, 45
1, 369816, Control_c, 0, 64, 64
1, 369831, Control_c, 0, 64, 71
1, 369846, Control_c, 0, 64, 80
1, 369861, Control_c, 0, 64, 91
1, 369876, Control_c, 0, 64, 105
1, 369890, Control_c, 0, 64, 127
1, 369902, Note_on_c, 0, 37, 64
1, 369937, Note_off_c, 0, 37, 61
1, 370023, Note_on_c, 0, 37, 60
1, 370066, Note_off_c, 0, 37, 51
1, 370129, Note_on_c, 0, 62, 72
1, 370153, Note_on_c, 0, 42, 53
1, 370155, Note_on_c, 0, 54, 52
1, 370157, Control_c, 0, 64, 113
1, 370163, Note_on_c, 0, 37, 49
1, 370172, Control_c, 0, 64, 88
1, 370185, Note_off_c, 0, 43, 46
1, 370187, Control_c, 0, 64, 70
1, 370202, Control_c, 0, 64, 36
1, 370216, Control_c, 0, 64, 0
1, 370217, Note_off_c, 0, 64, 59
1, 370231, Control_c, 0, 64, 47
1, 370243, Note_off_c, 0, 37, 61
1, 370246, Control_c, 0, 64, 65
1, 370269, Control_c, 0, 64, 72
1, 370284, Control_c, 0, 64, 80
1, 370298, Control_c, 0, 64, 93
1, 370313, Control_c, 0, 64, 109
1, 370319, Note_off_c, 0, 57, 36
1, 370328, Control_c, 0, 64, 127
1, 370370, Note_on_c, 0, 37, 53
1, 370398, Note_off_c, 0, 37, 59
1, 370484, Note_on_c, 0, 37, 49
1, 370513, Note_off_c, 0, 37, 57
1, 370595, Note_on_c, 0, 61, 72
1, 370622, Note_on_c, 0, 41, 61
1, 370638, Note_on_c, 0, 37, 39
1, 370640, Control_c, 0, 64, 90
1, 370648, Note_on_c, 0, 56, 52
1, 370655, Control_c, 0, 64, 69
1, 370657, Note_off_c, 0, 42, 44
1, 370670, Control_c, 0, 64, 0
1, 370680, Note_off_c, 0, 37, 59
1, 370683, Note_off_c, 0, 54, 39
1, 370711, Note_off_c, 0, 62, 47
1, 370729, Control_c, 0, 64, 23
1, 370744, Control_c, 0, 64, 61
1, 370758, Control_c, 0, 64, 68
1, 370773, Control_c, 0, 64, 77
1, 370788, Control_c, 0, 64, 88
1, 370803, Control_c, 0, 64, 107
1, 370818, Control_c, 0, 64, 127
1, 370821, Note_on_c, 0, 37, 60
1, 370857, Note_off_c, 0, 37, 60
1, 370901, Note_off_c, 0, 61, 58
1, 370931, Note_off_c, 0, 41, 61
1, 370934, Note_on_c, 0, 37, 62
1, 371029, Note_off_c, 0, 37, 57
1, 371063, Note_on_c, 0, 61, 85
1, 371070, Note_on_c, 0, 45, 74
1, 371071, Note_on_c, 0, 37, 45
1, 371092, Note_on_c, 0, 52, 60
1, 371104, Note_off_c, 0, 56, 63
1, 371107, Control_c, 0, 64, 104
1, 371122, Control_c, 0, 64, 78
1, 371136, Control_c, 0, 64, 59
1, 371151, Control_c, 0, 64, 0
1, 371166, Control_c, 0, 64, 46
1, 371181, Control_c, 0, 64, 65
1, 371186, Note_off_c, 0, 37, 59
1, 371196, Control_c, 0, 64, 71
1, 371211, Control_c, 0, 64, 78
1, 371226, Control_c, 0, 64, 86
1, 371240, Control_c, 0, 64, 96
1, 371255, Control_c, 0, 64, 106
1, 371270, Control_c, 0, 64, 112
1, 371300, Note_on_c, 0, 37, 67
1, 371329, Control_c, 0, 64, 114
1, 371333, Note_off_c, 0, 37, 62
1, 371344, Control_c, 0, 64, 119
1, 371358, Control_c, 0, 64, 127
1, 371408, Note_on_c, 0, 37, 66
1, 371480, Note_off_c, 0, 37, 50
1, 371587, Note_on_c, 0, 64, 77
1, 371598, Note_on_c, 0, 43, 68
1, 371607, Note_off_c, 0, 52, 37
1, 371619, Note_on_c, 0, 57, 56
1, 371626, Control_c, 0, 64, 100
1, 371632, Note_off_c, 0, 45, 61
1, 371641, Control_c, 0, 64, 80
1, 371655, Control_c, 0, 64, 59
1, 371663, Note_off_c, 0, 61, 54
1, 371670, Note_on_c, 0, 37, 20
1, 371670, Control_c, 0, 64, 0
1, 371715, Note_off_c, 0, 37, 47
1, 371730, Control_c, 0, 64, 56
1, 371745, Control_c, 0, 64, 68
1, 371767, Control_c, 0, 64, 77
1, 371781, Control_c, 0, 64, 86
1, 371796, Control_c, 0, 64, 96
1, 371811, Control_c, 0, 64, 101
1, 371826, Control_c, 0, 64, 103
1, 371841, Control_c, 0, 64, 103
1, 371856, Control_c, 0, 64, 104
1, 371864, Note_on_c, 0, 37, 57
1, 371870, Control_c, 0, 64, 105
1, 371885, Control_c, 0, 64, 106
1, 371900, Note_off_c, 0, 37, 61
1, 371900, Control_c, 0, 64, 107
1, 371944, Control_c, 0, 64, 107
1, 371992, Note_on_c, 0, 37, 62
1, 372054, Note_off_c, 0, 37, 43
1, 372171, Note_on_c, 0, 37, 53
1, 372171, Note_on_c, 0, 62, 66
1, 372177, Note_on_c, 0, 42, 60
1, 372183, Control_c, 0, 64, 107
1, 372184, Note_on_c, 0, 54, 52
1, 372198, Control_c, 0, 64, 100
1, 372207, Note_off_c, 0, 43, 59
1, 372212, Control_c, 0, 64, 86
1, 372227, Control_c, 0, 64, 68
1, 372242, Control_c, 0, 64, 0
1, 372269, Note_off_c, 0, 64, 56
1, 372330, Control_c, 0, 64, 62
1, 372335, Note_off_c, 0, 37, 59
1, 372344, Note_off_c, 0, 57, 31
1, 372345, Control_c, 0, 64, 69
1, 372360, Control_c, 0, 64, 76
1, 372375, Control_c, 0, 64, 84
1, 372390, Control_c, 0, 64, 90
1, 372404, Control_c, 0, 64, 94
1, 372419, Control_c, 0, 64, 98
1, 372434, Control_c, 0, 64, 101
1, 372449, Control_c, 0, 64, 103
1, 372464, Note_on_c, 0, 37, 59
1, 372464, Control_c, 0, 64, 105
1, 372478, Control_c, 0, 64, 106
1, 372493, Control_c, 0, 64, 106
1, 372516, Control_c, 0, 64, 107
1, 372517, Note_off_c, 0, 37, 57
1, 372545, Control_c, 0, 64, 107
1, 372622, Note_on_c, 0, 37, 60
1, 372634, Control_c, 0, 64, 108
1, 372677, Note_off_c, 0, 37, 53
1, 372892, Note_on_c, 0, 61, 64
1, 372905, Note_on_c, 0, 37, 47
1, 372916, Control_c, 0, 64, 107
1, 372921, Note_on_c, 0, 41, 51
1, 372926, Note_on_c, 0, 56, 49
1, 372945, Control_c, 0, 64, 104
1, 372960, Control_c, 0, 64, 93
1, 372975, Control_c, 0, 64, 78
1, 372985, Note_off_c, 0, 42, 30
1, 372990, Note_off_c, 0, 54, 46
1, 372991, Control_c, 0, 64, 55
1, 373000, Note_off_c, 0, 62, 53
1, 373005, Control_c, 0, 64, 0
1, 373124, Control_c, 0, 64, 61
1, 373139, Control_c, 0, 64, 69
1, 373153, Control_c, 0, 64, 77
1, 373168, Control_c, 0, 64, 85
1, 373183, Control_c, 0, 64, 94
1, 373198, Control_c, 0, 64, 99
1, 373213, Control_c, 0, 64, 101
1, 373227, Control_c, 0, 64, 102
1, 373228, Note_off_c, 0, 37, 41
1, 373242, Control_c, 0, 64, 103
1, 373265, Control_c, 0, 64, 104
1, 373280, Control_c, 0, 64, 106
1, 373281, Note_on_c, 0, 37, 48
1, 373294, Control_c, 0, 64, 108
1, 373309, Control_c, 0, 64, 110
1, 373319, Note_off_c, 0, 37, 60
1, 373324, Control_c, 0, 64, 111
1, 373412, Note_on_c, 0, 37, 62
1, 373486, Control_c, 0, 64, 110
1, 373546, Control_c, 0, 64, 105
1, 373558, Note_off_c, 0, 37, 0
1, 373558, Note_on_c, 0, 37, 19
1, 373560, Control_c, 0, 64, 88
1, 373568, Note_on_c, 0, 36, 65
1, 373575, Control_c, 0, 64, 72
1, 373590, Control_c, 0, 64, 33
1, 373605, Control_c, 0, 64, 0
1, 373649, Note_off_c, 0, 41, 35
1, 373664, Control_c, 0, 64, 44
1, 373679, Control_c, 0, 64, 63
1, 373694, Control_c, 0, 64, 70
1, 373709, Control_c, 0, 64, 76
1, 373723, Note_off_c, 0, 37, 42
1, 373724, Control_c, 0, 64, 82
1, 373739, Control_c, 0, 64, 85
1, 373753, Control_c, 0, 64, 86
1, 373783, Control_c, 0, 64, 86
1, 373813, Control_c, 0, 64, 87
1, 373830, Note_on_c, 0, 37, 61
1, 373870, Note_off_c, 0, 37, 59
1, 373962, Control_c, 0, 64, 87
1, 373971, Note_on_c, 0, 37, 56
1, 373976, Control_c, 0, 64, 89
1, 373991, Control_c, 0, 64, 91
1, 374013, Control_c, 0, 64, 93
1, 374016, Note_off_c, 0, 37, 63
1, 374028, Control_c, 0, 64, 94
1, 374043, Control_c, 0, 64, 95
1, 374058, Control_c, 0, 64, 95
1, 374153, Note_on_c, 0, 35, 60
1, 374162, Control_c, 0, 64, 93
1, 374169, Note_on_c, 0, 37, 52
1, 374177, Control_c, 0, 64, 86
1, 374191, Control_c, 0, 64, 74
1, 374199, Note_off_c, 0, 36, 41
1, 374206, Control_c, 0, 64, 60
1, 374221, Control_c, 0, 64, 0
1, 374339, Control_c, 0, 64, 42
1, 374350, Note_off_c, 0, 37, 37
1, 374354, Control_c, 0, 64, 64
1, 374369, Control_c, 0, 64, 70
1, 374383, Control_c, 0, 64, 76
1, 374398, Control_c, 0, 64, 82
1, 374413, Control_c, 0, 64, 87
1, 374428, Control_c, 0, 64, 91
1, 374443, Control_c, 0, 64, 94
1, 374457, Control_c, 0, 64, 98
1, 374472, Control_c, 0, 64, 101
1, 374487, Control_c, 0, 64, 104
1, 374498, Note_on_c, 0, 37, 50
1, 374502, Control_c, 0, 64, 108
1, 374517, Control_c, 0, 64, 111
1, 374532, Control_c, 0, 64, 113
1, 374535, Note_off_c, 0, 37, 56
1, 374547, Control_c, 0, 64, 113
1, 374606, Control_c, 0, 64, 114
1, 374636, Control_c, 0, 64, 114
1, 374651, Control_c, 0, 64, 116
1, 374654, Note_on_c, 0, 37, 46
1, 374666, Control_c, 0, 64, 119
1, 374681, Control_c, 0, 64, 127
1, 374695, Note_off_c, 0, 37, 56
1, 374883, Note_off_c, 0, 35, 52
1, 374886, Note_on_c, 0, 37, 52
1, 374892, Note_on_c, 0, 32, 54
1, 374925, Control_c, 0, 64, 112
1, 374940, Control_c, 0, 64, 91
1, 374955, Control_c, 0, 64, 73
1, 374970, Control_c, 0, 64, 26
1, 374985, Control_c, 0, 64, 0
1, 375118, Control_c, 0, 64, 59
1, 375132, Control_c, 0, 64, 68
1, 375147, Control_c, 0, 64, 76
1, 375162, Control_c, 0, 64, 84
1, 375167, Note_off_c, 0, 37, 42
1, 375177, Control_c, 0, 64, 96
1, 375192, Control_c, 0, 64, 106
1, 375206, Control_c, 0, 64, 118
1, 375206, Control_c, 0, 67, 127
1, 375221, Control_c, 0, 64, 127
1, 375221, Control_c, 0, 67, 125
1, 375236, Control_c, 0, 67, 124
1, 375250, Control_c, 0, 67, 123
1, 375265, Control_c, 0, 67, 123
1, 375280, Control_c, 0, 67, 122
1, 375295, Control_c, 0, 67, 122
1, 375310, Control_c, 0, 67, 121
1, 375325, Control_c, 0, 67, 120
1, 375340, Control_c, 0, 67, 119
1, 375347, Note_on_c, 0, 37, 48
1, 375354, Control_c, 0, 67, 119
1, 375370, Control_c, 0, 67, 118
1, 375400, Control_c, 0, 67, 117
1, 375408, Note_off_c, 0, 37, 52
1, 375444, Control_c, 0, 67, 118
1, 375474, Control_c, 0, 67, 118
1, 375526, Control_c, 0, 67, 119
1, 375585, Control_c, 0, 67, 119
1, 375592, Note_on_c, 0, 37, 43
1, 375656, Note_off_c, 0, 37, 53
1, 376022, Note_off_c, 0, 56, 58
1, 376030, Note_on_c, 0, 30, 45
1, 376032, Note_on_c, 0, 37, 45
1, 376076, Note_off_c, 0, 61, 59
1, 376104, Note_off_c, 0, 32, 32
1, 376133, Control_c, 0, 64, 113
1, 376147, Control_c, 0, 64, 89
1, 376147, Control_c, 0, 67, 120
1, 376162, Control_c, 0, 64, 73
1, 376178, Control_c, 0, 64, 54
1, 376178, Control_c, 0, 67, 120
1, 376193, Control_c, 0, 64, 0
1, 376557, Control_c, 0, 64, 37
1, 376571, Control_c, 0, 64, 60
1, 376586, Control_c, 0, 64, 65
1, 376601, Control_c, 0, 64, 70
1, 376616, Control_c, 0, 64, 75
1, 376616, Control_c, 0, 67, 120
1, 376631, Control_c, 0, 64, 80
1, 376646, Control_c, 0, 64, 87
1, 376660, Control_c, 0, 64, 95
1, 376675, Control_c, 0, 64, 106
1, 376690, Control_c, 0, 64, 127
1, 376690, Control_c, 0, 67, 119
1, 376957, Control_c, 0, 67, 119
1, 376961, Note_on_c, 0, 66, 60
1, 376999, Note_on_c, 0, 57, 41
1, 377027, Note_on_c, 0, 61, 36
1, 377069, Control_c, 0, 67, 118
1, 377083, Control_c, 0, 67, 118
1, 377098, Control_c, 0, 67, 117
1, 377148, Note_off_c, 0, 57, 55
1, 377158, Control_c, 0, 67, 118
1, 377188, Control_c, 0, 67, 118
1, 377202, Control_c, 0, 67, 119
1, 377217, Control_c, 0, 67, 119
1, 377223, Note_off_c, 0, 61, 40
1, 377232, Control_c, 0, 67, 121
1, 377247, Control_c, 0, 67, 122
1, 377262, Control_c, 0, 67, 123
1, 377276, Control_c, 0, 67, 124
1, 377291, Control_c, 0, 67, 125
1, 377306, Control_c, 0, 67, 126
1, 377320, Control_c, 0, 67, 127
1, 377331, Note_on_c, 0, 64, 68
1, 377346, Note_on_c, 0, 61, 45
1, 377358, Note_on_c, 0, 56, 54
1, 377365, Note_off_c, 0, 66, 63
1, 377468, Note_off_c, 0, 56, 59
1, 377480, Note_off_c, 0, 61, 59
1, 377599, Note_on_c, 0, 62, 70
1, 377620, Note_on_c, 0, 54, 55
1, 377637, Note_on_c, 0, 59, 44
1, 377664, Note_off_c, 0, 64, 59
1, 377696, Note_off_c, 0, 59, 52
1, 377727, Note_off_c, 0, 54, 57
1, 377957, Note_on_c, 0, 61, 64
1, 377963, Note_on_c, 0, 53, 53
1, 377976, Note_on_c, 0, 59, 55
1, 377993, Note_off_c, 0, 62, 56
1, 378024, Control_c, 0, 64, 92
1, 378039, Control_c, 0, 64, 73
1, 378054, Control_c, 0, 64, 54
1, 378069, Control_c, 0, 64, 0
1, 378098, Control_c, 0, 64, 21
1, 378113, Control_c, 0, 64, 50
1, 378128, Control_c, 0, 64, 64
1, 378136, Note_off_c, 0, 59, 59
1, 378143, Control_c, 0, 64, 70
1, 378157, Control_c, 0, 64, 81
1, 378172, Control_c, 0, 64, 97
1, 378187, Control_c, 0, 64, 127
1, 378365, Note_on_c, 0, 54, 56
1, 378384, Note_on_c, 0, 59, 42
1, 378416, Note_off_c, 0, 53, 60
1, 378475, Note_off_c, 0, 59, 51
1, 378643, Note_on_c, 0, 55, 59
1, 378654, Control_c, 0, 64, 99
1, 378665, Note_on_c, 0, 59, 46
1, 378669, Control_c, 0, 64, 79
1, 378684, Control_c, 0, 64, 68
1, 378698, Control_c, 0, 64, 65
1, 378702, Note_off_c, 0, 54, 58
1, 378713, Control_c, 0, 64, 68
1, 378728, Control_c, 0, 64, 72
1, 378743, Control_c, 0, 64, 78
1, 378758, Control_c, 0, 64, 89
1, 378772, Control_c, 0, 64, 109
1, 378776, Note_off_c, 0, 59, 55
1, 378787, Control_c, 0, 64, 127
1, 378891, Control_c, 0, 64, 107
1, 378899, Note_on_c, 0, 59, 50
1, 378905, Control_c, 0, 64, 82
1, 378908, Note_on_c, 0, 56, 52
1, 378920, Control_c, 0, 64, 65
1, 378933, Note_off_c, 0, 55, 60
1, 378935, Control_c, 0, 64, 28
1, 378950, Control_c, 0, 64, 0
1, 378979, Control_c, 0, 64, 38
1, 378994, Control_c, 0, 64, 61
1, 379009, Control_c, 0, 64, 70
1, 379024, Control_c, 0, 64, 81
1, 379039, Control_c, 0, 64, 99
1, 379054, Control_c, 0, 64, 127
1, 379187, Control_c, 0, 64, 120
1, 379191, Note_on_c, 0, 57, 53
1, 379196, Note_off_c, 0, 56, 58
1, 379202, Control_c, 0, 64, 86
1, 379216, Note_on_c, 0, 54, 41
1, 379216, Control_c, 0, 64, 66
1, 379231, Control_c, 0, 64, 0
1, 379268, Note_off_c, 0, 59, 38
1, 379343, Control_c, 0, 64, 49
1, 379358, Control_c, 0, 64, 71
1, 379374, Control_c, 0, 64, 84
1, 379389, Control_c, 0, 64, 111
1, 379403, Control_c, 0, 64, 127
1, 379407, Note_off_c, 0, 57, 62
1, 379409, Note_off_c, 0, 54, 60
1, 379449, Note_off_c, 0, 61, 61
1, 379579, Note_on_c, 0, 66, 63
1, 379615, Note_on_c, 0, 57, 42
1, 379624, Note_on_c, 0, 61, 34
1, 379662, Note_off_c, 0, 57, 58
1, 379710, Note_off_c, 0, 61, 38
1, 380010, Note_on_c, 0, 64, 53
1, 380040, Note_on_c, 0, 56, 46
1, 380051, Note_on_c, 0, 61, 43
1, 380077, Control_c, 0, 64, 104
1, 380092, Control_c, 0, 64, 80
1, 380097, Note_off_c, 0, 66, 55
1, 380106, Control_c, 0, 64, 65
1, 380121, Control_c, 0, 64, 48
1, 380136, Control_c, 0, 64, 61
1, 380151, Control_c, 0, 64, 69
1, 380166, Control_c, 0, 64, 77
1, 380181, Control_c, 0, 64, 91
1, 380196, Control_c, 0, 64, 127
1, 380235, Note_off_c, 0, 56, 59
1, 380259, Note_off_c, 0, 61, 40
1, 380401, Note_on_c, 0, 62, 56
1, 380410, Note_on_c, 0, 44, 56
1, 380431, Note_on_c, 0, 54, 36
1, 380452, Note_on_c, 0, 59, 31
1, 380458, Note_off_c, 0, 64, 50
1, 380485, Note_off_c, 0, 37, 41
1, 380499, Note_off_c, 0, 59, 47
1, 380535, Note_off_c, 0, 54, 48
1, 380629, Note_off_c, 0, 44, 52
1, 380693, Note_off_c, 0, 62, 60
1, 380711, Note_on_c, 0, 61, 51
1, 380712, Note_on_c, 0, 53, 48
1, 380724, Note_on_c, 0, 59, 44
1, 380752, Note_on_c, 0, 37, 66
1, 380766, Control_c, 0, 64, 126
1, 380781, Control_c, 0, 64, 84
1, 380796, Control_c, 0, 64, 67
1, 380811, Control_c, 0, 64, 50
1, 380812, Note_off_c, 0, 59, 56
1, 380825, Control_c, 0, 64, 51
1, 380840, Control_c, 0, 64, 62
1, 380855, Control_c, 0, 64, 67
1, 380869, Control_c, 0, 64, 73
1, 380884, Control_c, 0, 64, 83
1, 380899, Control_c, 0, 64, 96
1, 380914, Control_c, 0, 64, 114
1, 380929, Control_c, 0, 64, 127
1, 381033, Note_on_c, 0, 54, 52
1, 381047, Note_on_c, 0, 59, 40
1, 381057, Note_off_c, 0, 53, 52
1, 381096, Note_off_c, 0, 59, 49
1, 381115, Note_off_c, 0, 37, 60
1, 381128, Note_on_c, 0, 38, 57
1, 381242, Note_on_c, 0, 55, 54
1, 381245, Note_on_c, 0, 37, 61
1, 381246, Note_off_c, 0, 38, 56
1, 381261, Note_on_c, 0, 59, 38
1, 381277, Note_off_c, 0, 54, 38
1, 381349, Note_off_c, 0, 59, 56
1, 381404, Control_c, 0, 64, 114
1, 381419, Control_c, 0, 64, 102
1, 381434, Control_c, 0, 64, 92
1, 381448, Control_c, 0, 64, 82
1, 381463, Control_c, 0, 64, 75
1, 381478, Control_c, 0, 64, 68
1, 381496, Note_on_c, 0, 59, 47
1, 381500, Control_c, 0, 64, 61
1, 381508, Note_on_c, 0, 56, 60
1, 381515, Control_c, 0, 64, 19
1, 381522, Note_off_c, 0, 55, 58
1, 381530, Control_c, 0, 64, 0
1, 381633, Control_c, 0, 67, 127
1, 381648, Control_c, 0, 67, 126
1, 381663, Control_c, 0, 67, 125
1, 381678, Control_c, 0, 67, 123
1, 381692, Control_c, 0, 67, 122
1, 381707, Control_c, 0, 67, 121
1, 381722, Control_c, 0, 64, 50
1, 381722, Control_c, 0, 67, 119
1, 381737, Control_c, 0, 64, 68
1, 381737, Control_c, 0, 67, 118
1, 381752, Control_c, 0, 64, 77
1, 381752, Control_c, 0, 67, 115
1, 381768, Control_c, 0, 64, 87
1, 381768, Control_c, 0, 67, 112
1, 381780, Note_on_c, 0, 57, 63
1, 381783, Control_c, 0, 64, 100
1, 381783, Control_c, 0, 67, 109
1, 381794, Note_off_c, 0, 56, 57
1, 381795, Note_on_c, 0, 54, 59
1, 381797, Control_c, 0, 64, 118
1, 381797, Control_c, 0, 67, 106
1, 381812, Control_c, 0, 64, 127
1, 381812, Control_c, 0, 67, 104
1, 381827, Control_c, 0, 67, 101
1, 381842, Control_c, 0, 67, 99
1, 381857, Control_c, 0, 67, 97
1, 381862, Note_off_c, 0, 59, 51
1, 381867, Note_off_c, 0, 54, 63
1, 381871, Control_c, 0, 67, 94
1, 381886, Control_c, 0, 67, 92
1, 381891, Note_off_c, 0, 57, 63
1, 381893, Note_off_c, 0, 61, 55
1, 381901, Control_c, 0, 67, 91
1, 381915, Control_c, 0, 67, 89
1, 381924, Note_off_c, 0, 30, 42
1, 381930, Control_c, 0, 67, 87
1, 381945, Control_c, 0, 67, 85
1, 381960, Control_c, 0, 67, 84
1, 381975, Control_c, 0, 67, 83
1, 382005, Control_c, 0, 67, 82
1, 382094, Control_c, 0, 67, 82
1, 382114, Note_on_c, 0, 69, 77
1, 382151, Note_on_c, 0, 61, 58
1, 382152, Note_on_c, 0, 30, 51
1, 382153, Control_c, 0, 64, 106
1, 382154, Note_on_c, 0, 42, 46
1, 382168, Control_c, 0, 64, 80
1, 382183, Control_c, 0, 64, 64
1, 382197, Control_c, 0, 64, 58
1, 382212, Control_c, 0, 64, 65
1, 382227, Control_c, 0, 64, 70
1, 382249, Control_c, 0, 64, 76
1, 382264, Control_c, 0, 64, 87
1, 382264, Control_c, 0, 67, 81
1, 382279, Control_c, 0, 64, 107
1, 382294, Control_c, 0, 64, 127
1, 382294, Control_c, 0, 67, 81
1, 382338, Control_c, 0, 67, 80
1, 382353, Control_c, 0, 67, 79
1, 382368, Control_c, 0, 67, 78
1, 382383, Control_c, 0, 67, 78
1, 382387, Note_off_c, 0, 37, 40
1, 382397, Control_c, 0, 64, 95
1, 382399, Note_on_c, 0, 68, 83
1, 382412, Control_c, 0, 64, 72
1, 382413, Note_on_c, 0, 59, 62
1, 382424, Note_on_c, 0, 32, 52
1, 382427, Control_c, 0, 64, 49
1, 382441, Control_c, 0, 64, 34
1, 382456, Control_c, 0, 64, 61
1, 382471, Control_c, 0, 64, 68
1, 382476, Note_off_c, 0, 30, 50
1, 382486, Control_c, 0, 64, 77
1, 382501, Control_c, 0, 64, 96
1, 382515, Control_c, 0, 64, 127
1, 382518, Note_off_c, 0, 59, 53
1, 382543, Note_off_c, 0, 69, 27
1, 382591, Control_c, 0, 67, 78
1, 382606, Control_c, 0, 67, 79
1, 382620, Control_c, 0, 67, 81
1, 382635, Control_c, 0, 67, 82
1, 382650, Control_c, 0, 64, 92
1, 382650, Control_c, 0, 67, 83
1, 382652, Note_on_c, 0, 66, 75
1, 382661, Note_off_c, 0, 32, 56
1, 382661, Note_on_c, 0, 33, 57
1, 382664, Control_c, 0, 64, 66
1, 382664, Control_c, 0, 67, 84
1, 382667, Note_off_c, 0, 68, 63
1, 382672, Note_on_c, 0, 60, 62
1, 382679, Control_c, 0, 64, 0
1, 382679, Control_c, 0, 67, 84
1, 382694, Control_c, 0, 67, 85
1, 382701, Note_off_c, 0, 61, 57
1, 382709, Control_c, 0, 64, 43
1, 382724, Control_c, 0, 64, 67
1, 382724, Control_c, 0, 67, 85
1, 382738, Control_c, 0, 64, 77
1, 382738, Control_c, 0, 67, 86
1, 382753, Control_c, 0, 64, 93
1, 382753, Control_c, 0, 67, 86
1, 382768, Control_c, 0, 64, 127
1, 382768, Control_c, 0, 67, 87
1, 382798, Control_c, 0, 67, 87
1, 382813, Control_c, 0, 67, 88
1, 382828, Control_c, 0, 67, 88
1, 382842, Control_c, 0, 67, 89
1, 382857, Control_c, 0, 67, 90
1, 382872, Control_c, 0, 67, 91
1, 382887, Control_c, 0, 67, 92
1, 382902, Control_c, 0, 64, 85
1, 382902, Control_c, 0, 67, 93
1, 382909, Note_off_c, 0, 33, 58
1, 382917, Control_c, 0, 64, 63
1, 382917, Control_c, 0, 67, 93
1, 382926, Note_on_c, 0, 64, 61
1, 382926, Note_off_c, 0, 60, 63
1, 382931, Control_c, 0, 64, 0
1, 382937, Note_off_c, 0, 66, 61
1, 382942, Note_on_c, 0, 34, 46
1, 382946, Note_on_c, 0, 61, 57
1, 382946, Control_c, 0, 67, 94
1, 382961, Control_c, 0, 64, 27
1, 382976, Control_c, 0, 64, 64
1, 382976, Control_c, 0, 67, 94
1, 382998, Control_c, 0, 64, 74
1, 383012, Control_c, 0, 64, 86
1, 383012, Control_c, 0, 67, 95
1, 383027, Control_c, 0, 64, 105
1, 383027, Control_c, 0, 67, 96
1, 383042, Control_c, 0, 64, 127
1, 383042, Control_c, 0, 67, 96
1, 383102, Control_c, 0, 67, 97
1, 383117, Control_c, 0, 67, 97
1, 383132, Control_c, 0, 67, 99
1, 383147, Control_c, 0, 67, 102
1, 383161, Control_c, 0, 67, 104
1, 383176, Control_c, 0, 67, 105
1, 383191, Control_c, 0, 67, 105
1, 383203, Note_on_c, 0, 62, 63
1, 383206, Control_c, 0, 64, 99
1, 383206, Control_c, 0, 67, 106
1, 383212, Note_off_c, 0, 64, 39
1, 383217, Note_off_c, 0, 61, 58
1, 383221, Control_c, 0, 64, 76
1, 383221, Control_c, 0, 67, 107
1, 383225, Note_on_c, 0, 35, 44
1, 383225, Note_on_c, 0, 54, 51
1, 383229, Note_off_c, 0, 34, 44
1, 383236, Control_c, 0, 64, 57
1, 383236, Control_c, 0, 67, 108
1, 383251, Control_c, 0, 64, 0
1, 383251, Control_c, 0, 67, 110
1, 383265, Control_c, 0, 67, 111
1, 383280, Control_c, 0, 64, 59
1, 383280, Control_c, 0, 67, 111
1, 383295, Control_c, 0, 64, 67
1, 383295, Control_c, 0, 67, 112
1, 383310, Control_c, 0, 64, 75
1, 383325, Control_c, 0, 64, 85
1, 383339, Control_c, 0, 64, 99
1, 383354, Control_c, 0, 64, 127
1, 383370, Control_c, 0, 67, 112
1, 383415, Control_c, 0, 67, 113
1, 383474, Control_c, 0, 67, 113
1, 383488, Control_c, 0, 64, 114
1, 383488, Control_c, 0, 67, 114
1, 383503, Note_on_c, 0, 61, 60
1, 383503, Control_c, 0, 64, 86
1, 383503, Control_c, 0, 67, 117
1, 383504, Note_off_c, 0, 62, 57
1, 383516, Note_off_c, 0, 35, 44
1, 383517, Note_on_c, 0, 37, 51
1, 383518, Control_c, 0, 64, 65
1, 383518, Control_c, 0, 67, 118
1, 383520, Note_on_c, 0, 57, 43
1, 383533, Control_c, 0, 64, 0
1, 383533, Control_c, 0, 67, 119
1, 383580, Note_off_c, 0, 42, 44
1, 383600, Note_off_c, 0, 54, 31
1, 383607, Control_c, 0, 64, 37
1, 383622, Control_c, 0, 64, 68
1, 383636, Control_c, 0, 64, 87
1, 383651, Control_c, 0, 64, 127
1, 383681, Note_off_c, 0, 57, 48
1, 383695, Control_c, 0, 67, 118
1, 383722, Note_off_c, 0, 61, 59
1, 383725, Control_c, 0, 67, 118
1, 383752, Note_off_c, 0, 37, 43
1, 383777, Control_c, 0, 67, 117
1, 383829, Note_on_c, 0, 61, 59
1, 383832, Note_on_c, 0, 47, 59
1, 383850, Control_c, 0, 64, 89
1, 383855, Note_on_c, 0, 56, 48
1, 383856, Note_on_c, 0, 37, 42
1, 383856, Note_on_c, 0, 53, 44
1, 383865, Control_c, 0, 64, 70
1, 383880, Control_c, 0, 64, 62
1, 383880, Control_c, 0, 67, 118
1, 383895, Control_c, 0, 64, 65
1, 383910, Control_c, 0, 64, 70
1, 383925, Control_c, 0, 64, 78
1, 383939, Control_c, 0, 64, 87
1, 383954, Control_c, 0, 64, 100
1, 383958, Note_off_c, 0, 56, 56
1, 383969, Control_c, 0, 64, 127
1, 383977, Note_off_c, 0, 61, 57
1, 384028, Control_c, 0, 67, 117
1, 384058, Control_c, 0, 67, 117
1, 384117, Control_c, 0, 67, 116
1, 384121, Note_off_c, 0, 53, 38
1, 384156, Note_off_c, 0, 47, 60
1, 384187, Note_off_c, 0, 37, 41
1, 384213, Note_on_c, 0, 53, 35
1, 384217, Note_on_c, 0, 61, 48
1, 384224, Note_on_c, 0, 56, 47
1, 384264, Note_on_c, 0, 47, 63
1, 384282, Note_on_c, 0, 37, 45
1, 384355, Control_c, 0, 67, 116
1, 384370, Control_c, 0, 64, 92
1, 384370, Control_c, 0, 67, 115
1, 384384, Control_c, 0, 64, 72
1, 384399, Control_c, 0, 64, 0
1, 384399, Control_c, 0, 67, 115
1, 384414, Control_c, 0, 67, 114
1, 384429, Control_c, 0, 67, 114
1, 384443, Control_c, 0, 67, 113
1, 384458, Control_c, 0, 67, 113
1, 384473, Control_c, 0, 64, 52
1, 384473, Control_c, 0, 67, 112
1, 384496, Control_c, 0, 64, 66
1, 384496, Control_c, 0, 67, 111
1, 384511, Control_c, 0, 64, 75
1, 384511, Control_c, 0, 67, 110
1, 384525, Control_c, 0, 64, 87
1, 384525, Control_c, 0, 67, 110
1, 384540, Control_c, 0, 64, 108
1, 384540, Control_c, 0, 67, 109
1, 384555, Control_c, 0, 64, 127
1, 384555, Control_c, 0, 67, 108
1, 384570, Control_c, 0, 67, 107
1, 384585, Control_c, 0, 67, 107
1, 384614, Control_c, 0, 67, 106
1, 384629, Control_c, 0, 67, 106
1, 384643, Control_c, 0, 67, 105
1, 384658, Control_c, 0, 67, 104
1, 384673, Control_c, 0, 67, 104
1, 384688, Control_c, 0, 67, 103
1, 384703, Control_c, 0, 67, 103
1, 384717, Control_c, 0, 67, 102
1, 384749, Note_on_c, 0, 50, 72
1, 384794, Note_off_c, 0, 47, 56
1, 384955, Control_c, 0, 67, 103
1, 385055, Note_on_c, 0, 49, 76
1, 385059, Control_c, 0, 67, 103
1, 385063, Note_off_c, 0, 50, 59
1, 385104, Control_c, 0, 67, 104
1, 385119, Control_c, 0, 64, 94
1, 385133, Control_c, 0, 64, 74
1, 385148, Control_c, 0, 64, 38
1, 385148, Control_c, 0, 67, 104
1, 385163, Control_c, 0, 64, 0
1, 385193, Control_c, 0, 67, 105
1, 385222, Control_c, 0, 67, 105
1, 385245, Control_c, 0, 67, 106
1, 385260, Control_c, 0, 64, 55
1, 385274, Control_c, 0, 64, 67
1, 385274, Control_c, 0, 67, 106
1, 385289, Control_c, 0, 64, 75
1, 385289, Control_c, 0, 67, 107
1, 385304, Control_c, 0, 64, 85
1, 385305, Note_on_c, 0, 47, 75
1, 385319, Control_c, 0, 64, 97
1, 385319, Control_c, 0, 67, 107
1, 385334, Control_c, 0, 64, 112
1, 385334, Control_c, 0, 67, 108
1, 385337, Note_off_c, 0, 37, 60
1, 385348, Control_c, 0, 64, 127
1, 385348, Control_c, 0, 67, 109
1, 385352, Note_off_c, 0, 49, 57
1, 385363, Control_c, 0, 67, 109
1, 385378, Control_c, 0, 67, 110
1, 385408, Control_c, 0, 67, 110
1, 385437, Control_c, 0, 67, 111
1, 385445, Note_off_c, 0, 53, 53
1, 385468, Note_off_c, 0, 61, 56
1, 385513, Note_off_c, 0, 47, 63
1, 385585, Control_c, 0, 67, 111
1, 385609, Note_on_c, 0, 61, 60
1, 385630, Control_c, 0, 67, 112
1, 385635, Note_on_c, 0, 47, 52
1, 385645, Control_c, 0, 67, 112
1, 385651, Note_on_c, 0, 42, 42
1, 385661, Note_on_c, 0, 52, 34
1, 385665, Note_on_c, 0, 54, 40
1, 385674, Control_c, 0, 67, 113
1, 385704, Control_c, 0, 64, 119
1, 385704, Control_c, 0, 67, 113
1, 385719, Control_c, 0, 64, 101
1, 385719, Control_c, 0, 67, 114
1, 385733, Control_c, 0, 64, 86
1, 385748, Control_c, 0, 64, 75
1, 385748, Control_c, 0, 67, 114
1, 385764, Control_c, 0, 64, 65
1, 385764, Control_c, 0, 67, 115
1, 385779, Control_c, 0, 64, 43
1, 385794, Control_c, 0, 64, 0
1, 385794, Control_c, 0, 67, 115
1, 385823, Control_c, 0, 67, 116
1, 385838, Control_c, 0, 67, 117
1, 385853, Control_c, 0, 67, 117
1, 385868, Control_c, 0, 67, 118
1, 385879, Note_on_c, 0, 46, 58
1, 385880, Note_off_c, 0, 56, 55
1, 385882, Control_c, 0, 67, 119
1, 385897, Control_c, 0, 67, 120
1, 385912, Control_c, 0, 67, 122
1, 385927, Control_c, 0, 67, 123
1, 385934, Note_off_c, 0, 47, 57
1, 385942, Control_c, 0, 67, 125
1, 385956, Control_c, 0, 67, 126
1, 385971, Control_c, 0, 67, 127
1, 385993, Control_c, 0, 67, 127
1, 386187, Note_on_c, 0, 44, 50
1, 386212, Note_off_c, 0, 46, 58
1, 386408, Control_c, 0, 64, 34
1, 386423, Control_c, 0, 64, 56
1, 386438, Control_c, 0, 64, 63
1, 386453, Control_c, 0, 64, 65
1, 386458, Note_off_c, 0, 44, 59
1, 386468, Control_c, 0, 64, 67
1, 386482, Note_on_c, 0, 46, 46
1, 386482, Control_c, 0, 64, 69
1, 386497, Control_c, 0, 64, 71
1, 386512, Control_c, 0, 64, 76
1, 386527, Control_c, 0, 64, 83
1, 386542, Control_c, 0, 64, 93
1, 386558, Control_c, 0, 64, 109
1, 386573, Control_c, 0, 64, 127
1, 386581, Note_off_c, 0, 42, 41
1, 386655, Note_off_c, 0, 61, 60
1, 386706, Note_off_c, 0, 52, 41
1, 386957, Note_on_c, 0, 62, 53
1, 386979, Note_on_c, 0, 61, 50
1, 387000, Note_on_c, 0, 35, 37
1, 387012, Note_on_c, 0, 50, 33
1, 387015, Note_on_c, 0, 42, 43
1, 387096, Note_off_c, 0, 46, 41
1, 387113, Control_c, 0, 64, 99
1, 387128, Control_c, 0, 64, 77
1, 387143, Control_c, 0, 64, 60
1, 387147, Note_off_c, 0, 54, 54
1, 387158, Control_c, 0, 64, 0
1, 387217, Control_c, 0, 64, 19
1, 387231, Control_c, 0, 64, 60
1, 387246, Control_c, 0, 64, 70
1, 387261, Control_c, 0, 64, 80
1, 387276, Control_c, 0, 64, 93
1, 387291, Control_c, 0, 64, 113
1, 387305, Control_c, 0, 64, 127
1, 387440, Note_on_c, 0, 49, 48
1, 387552, Note_off_c, 0, 49, 59
1, 387733, Note_on_c, 0, 59, 57
1, 387744, Note_on_c, 0, 47, 44
1, 387803, Note_off_c, 0, 47, 58
1, 387993, Note_off_c, 0, 50, 43
1, 388016, Note_on_c, 0, 45, 45
1, 388020, Note_on_c, 0, 57, 55
1, 388026, Note_off_c, 0, 62, 51
1, 388065, Note_off_c, 0, 61, 59
1, 388068, Note_off_c, 0, 42, 42
1, 388160, Note_off_c, 0, 45, 32
1, 388160, Note_off_c, 0, 57, 52
1, 388422, Note_on_c, 0, 65, 57
1, 388443, Note_on_c, 0, 57, 46
1, 388446, Note_on_c, 0, 37, 48
1, 388447, Note_on_c, 0, 45, 30
1, 388454, Note_on_c, 0, 53, 34
1, 388462, Control_c, 0, 64, 102
1, 388477, Control_c, 0, 64, 79
1, 388491, Control_c, 0, 64, 61
1, 388499, Note_off_c, 0, 35, 50
1, 388506, Control_c, 0, 64, 0
1, 388536, Control_c, 0, 64, 31
1, 388551, Note_off_c, 0, 59, 32
1, 388551, Control_c, 0, 64, 58
1, 388566, Control_c, 0, 64, 65
1, 388581, Control_c, 0, 64, 73
1, 388596, Control_c, 0, 64, 82
1, 388610, Control_c, 0, 64, 95
1, 388625, Control_c, 0, 64, 110
1, 388631, Note_off_c, 0, 57, 58
1, 388640, Control_c, 0, 64, 127
1, 388744, Control_c, 0, 64, 100
1, 388758, Control_c, 0, 64, 79
1, 388766, Note_on_c, 0, 56, 52
1, 388773, Control_c, 0, 64, 61
1, 388788, Control_c, 0, 64, 41
1, 388795, Note_on_c, 0, 44, 42
1, 388802, Control_c, 0, 64, 53
1, 388817, Control_c, 0, 64, 63
1, 388832, Control_c, 0, 64, 67
1, 388841, Note_off_c, 0, 45, 44
1, 388847, Control_c, 0, 64, 72
1, 388850, Note_off_c, 0, 53, 48
1, 388862, Control_c, 0, 64, 78
1, 388876, Control_c, 0, 64, 85
1, 388891, Control_c, 0, 64, 91
1, 388906, Control_c, 0, 64, 95
1, 389078, Control_c, 0, 64, 94
1, 389093, Control_c, 0, 64, 94
1, 389108, Control_c, 0, 64, 92
1, 389123, Control_c, 0, 64, 90
1, 389137, Note_on_c, 0, 53, 45
1, 389138, Control_c, 0, 64, 86
1, 389149, Note_on_c, 0, 41, 40
1, 389153, Control_c, 0, 64, 78
1, 389162, Note_off_c, 0, 44, 45
1, 389168, Control_c, 0, 64, 71
1, 389183, Control_c, 0, 64, 64
1, 389197, Control_c, 0, 64, 50
1, 389212, Control_c, 0, 64, 0
1, 389213, Note_off_c, 0, 56, 59
1, 389419, Control_c, 0, 64, 31
1, 389433, Control_c, 0, 64, 36
1, 389448, Control_c, 0, 64, 32
1, 389463, Control_c, 0, 64, 0
1, 389518, Note_on_c, 0, 42, 44
1, 389518, Note_off_c, 0, 41, 42
1, 389656, Control_c, 0, 64, 48
1, 389671, Control_c, 0, 64, 63
1, 389686, Control_c, 0, 64, 67
1, 389700, Control_c, 0, 64, 71
1, 389715, Control_c, 0, 64, 74
1, 389718, Note_on_c, 0, 54, 43
1, 389737, Control_c, 0, 64, 78
1, 389749, Note_off_c, 0, 53, 37
1, 389752, Control_c, 0, 64, 82
1, 389768, Control_c, 0, 64, 86
1, 389783, Control_c, 0, 64, 91
1, 389798, Control_c, 0, 64, 95
1, 389812, Control_c, 0, 64, 99
1, 389813, Note_off_c, 0, 54, 59
1, 389827, Control_c, 0, 64, 105
1, 389836, Note_off_c, 0, 42, 36
1, 389842, Control_c, 0, 64, 118
1, 389857, Control_c, 0, 64, 127
1, 389925, Note_off_c, 0, 65, 59
1, 390152, Note_on_c, 0, 66, 47
1, 390188, Note_on_c, 0, 57, 33
1, 390189, Note_on_c, 0, 61, 34
1, 390193, Note_on_c, 0, 54, 38
1, 390200, Note_on_c, 0, 42, 29
1, 390200, Note_on_c, 0, 49, 29
1, 390271, Control_c, 0, 64, 97
1, 390286, Control_c, 0, 64, 75
1, 390301, Control_c, 0, 64, 61
1, 390316, Control_c, 0, 64, 0
1, 390342, Note_off_c, 0, 37, 47
1, 390375, Control_c, 0, 64, 30
1, 390390, Control_c, 0, 64, 61
1, 390405, Control_c, 0, 64, 70
1, 390420, Control_c, 0, 64, 83
1, 390435, Control_c, 0, 64, 106
1, 390449, Control_c, 0, 64, 127
1, 390700, Note_off_c, 0, 54, 27
1, 390819, Note_on_c, 0, 63, 42
1, 390828, Note_on_c, 0, 51, 38
1, 390858, Note_off_c, 0, 49, 39
1, 390888, Note_off_c, 0, 66, 56
1, 390991, Control_c, 0, 67, 126
1, 391000, Note_off_c, 0, 57, 38
1, 391005, Control_c, 0, 67, 126
1, 391020, Control_c, 0, 67, 125
1, 391035, Control_c, 0, 67, 124
1, 391050, Control_c, 0, 67, 124
1, 391065, Control_c, 0, 67, 123
1, 391079, Control_c, 0, 67, 122
1, 391094, Control_c, 0, 67, 122
1, 391109, Control_c, 0, 67, 121
1, 391124, Control_c, 0, 67, 120
1, 391139, Control_c, 0, 67, 119
1, 391153, Control_c, 0, 67, 118
1, 391168, Control_c, 0, 67, 117
1, 391183, Control_c, 0, 67, 116
1, 391198, Control_c, 0, 67, 114
1, 391204, Note_on_c, 0, 65, 51
1, 391208, Note_on_c, 0, 53, 38
1, 391213, Control_c, 0, 67, 111
1, 391235, Control_c, 0, 67, 108
1, 391250, Control_c, 0, 67, 106
1, 391254, Note_off_c, 0, 63, 49
1, 391265, Control_c, 0, 67, 103
1, 391270, Note_off_c, 0, 61, 41
1, 391279, Control_c, 0, 67, 102
1, 391294, Control_c, 0, 67, 101
1, 391295, Note_off_c, 0, 53, 57
1, 391324, Control_c, 0, 67, 103
1, 391338, Control_c, 0, 67, 105
1, 391353, Control_c, 0, 67, 107
1, 391368, Control_c, 0, 67, 108
1, 391383, Control_c, 0, 67, 109
1, 391398, Control_c, 0, 67, 110
1, 391413, Control_c, 0, 67, 111
1, 391427, Control_c, 0, 67, 112
1, 391442, Control_c, 0, 67, 113
1, 391457, Control_c, 0, 67, 114
1, 391472, Control_c, 0, 67, 115
1, 391487, Control_c, 0, 67, 117
1, 391493, Note_on_c, 0, 66, 56
1, 391501, Control_c, 0, 67, 118
1, 391514, Note_on_c, 0, 54, 40
1, 391516, Control_c, 0, 67, 119
1, 391524, Note_off_c, 0, 65, 39
1, 391531, Control_c, 0, 67, 120
1, 391536, Note_off_c, 0, 51, 45
1, 391546, Control_c, 0, 67, 121
1, 391576, Note_off_c, 0, 54, 59
1, 391597, Note_off_c, 0, 42, 41
1, 391768, Control_c, 0, 67, 121
1, 391782, Control_c, 0, 64, 92
1, 391788, Note_on_c, 0, 68, 57
1, 391797, Control_c, 0, 64, 70
1, 391797, Control_c, 0, 67, 122
1, 391809, Note_on_c, 0, 56, 40
1, 391812, Control_c, 0, 64, 26
1, 391815, Note_on_c, 0, 42, 38
1, 391815, Note_on_c, 0, 49, 38
1, 391819, Note_on_c, 0, 59, 39
1, 391820, Note_on_c, 0, 65, 42
1, 391827, Control_c, 0, 64, 30
1, 391833, Note_on_c, 0, 62, 35
1, 391842, Control_c, 0, 64, 57
1, 391857, Control_c, 0, 64, 66
1, 391866, Note_off_c, 0, 66, 32
1, 391872, Control_c, 0, 64, 72
1, 391887, Control_c, 0, 64, 82
1, 391891, Note_off_c, 0, 59, 54
1, 391901, Control_c, 0, 64, 101
1, 391916, Control_c, 0, 64, 127
1, 391916, Control_c, 0, 67, 121
1, 391927, Note_off_c, 0, 62, 52
1, 391945, Note_off_c, 0, 65, 60
1, 391946, Control_c, 0, 67, 121
1, 391946, Note_off_c, 0, 56, 47
1, 391961, Control_c, 0, 67, 120
1, 391970, Note_off_c, 0, 42, 42
1, 391982, Control_c, 0, 67, 120
1, 391997, Note_off_c, 0, 49, 44
1, 391997, Control_c, 0, 67, 119
1, 392012, Control_c, 0, 67, 119
1, 392027, Control_c, 0, 67, 118
1, 392042, Control_c, 0, 67, 118
1, 392056, Control_c, 0, 67, 117
1, 392071, Control_c, 0, 67, 117
1, 392077, Note_off_c, 0, 68, 62
1, 392085, Note_on_c, 0, 69, 64
1, 392087, Control_c, 0, 67, 116
1, 392093, Note_on_c, 0, 57, 46
1, 392101, Control_c, 0, 67, 116
1, 392116, Control_c, 0, 67, 115
1, 392131, Control_c, 0, 67, 114
1, 392146, Control_c, 0, 67, 114
1, 392177, Control_c, 0, 67, 113
1, 392192, Control_c, 0, 67, 113
1, 392206, Control_c, 0, 67, 112
1, 392295, Control_c, 0, 67, 112
1, 392310, Control_c, 0, 67, 111
1, 392325, Control_c, 0, 67, 111
1, 392333, Note_on_c, 0, 71, 72
1, 392340, Control_c, 0, 67, 110
1, 392355, Control_c, 0, 67, 109
1, 392357, Note_on_c, 0, 59, 51
1, 392369, Control_c, 0, 67, 107
1, 392384, Control_c, 0, 67, 105
1, 392387, Note_off_c, 0, 57, 37
1, 392399, Control_c, 0, 67, 104
1, 392414, Control_c, 0, 67, 102
1, 392429, Control_c, 0, 67, 99
1, 392444, Note_off_c, 0, 69, 40
1, 392444, Control_c, 0, 67, 97
1, 392458, Control_c, 0, 67, 95
1, 392473, Control_c, 0, 67, 93
1, 392488, Control_c, 0, 67, 91
1, 392503, Control_c, 0, 67, 89
1, 392518, Control_c, 0, 67, 88
1, 392532, Control_c, 0, 67, 86
1, 392584, Note_off_c, 0, 59, 59
1, 392588, Note_on_c, 0, 72, 74
1, 392606, Control_c, 0, 67, 87
1, 392609, Note_on_c, 0, 60, 47
1, 392621, Control_c, 0, 67, 88
1, 392636, Control_c, 0, 67, 89
1, 392638, Note_off_c, 0, 71, 62
1, 392650, Control_c, 0, 67, 89
1, 392665, Control_c, 0, 67, 90
1, 392680, Control_c, 0, 67, 91
1, 392695, Control_c, 0, 67, 92
1, 392710, Control_c, 0, 67, 92
1, 392732, Control_c, 0, 67, 93
1, 392747, Control_c, 0, 67, 94
1, 392762, Control_c, 0, 67, 95
1, 392776, Control_c, 0, 67, 96
1, 392791, Control_c, 0, 67, 96
1, 392821, Control_c, 0, 67, 97
1, 392836, Control_c, 0, 67, 97
1, 392850, Control_c, 0, 67, 98
1, 392865, Control_c, 0, 67, 98
1, 392881, Note_on_c, 0, 74, 70
1, 392895, Control_c, 0, 67, 99
1, 392910, Control_c, 0, 64, 109
1, 392910, Control_c, 0, 67, 100
1, 392912, Note_on_c, 0, 62, 34
1, 392912, Note_on_c, 0, 54, 34
1, 392914, Note_on_c, 0, 69, 49
1, 392924, Control_c, 0, 64, 92
1, 392924, Control_c, 0, 67, 100
1, 392925, Note_on_c, 0, 66, 33
1, 392939, Control_c, 0, 64, 78
1, 392939, Control_c, 0, 67, 101
1, 392948, Note_on_c, 0, 57, 32
1, 392955, Control_c, 0, 64, 65
1, 392955, Control_c, 0, 67, 101
1, 392957, Note_off_c, 0, 72, 62
1, 392970, Control_c, 0, 64, 36
1, 392970, Control_c, 0, 67, 102
1, 392976, Note_off_c, 0, 60, 58
1, 392985, Control_c, 0, 64, 0
1, 392985, Control_c, 0, 67, 103
1, 392999, Control_c, 0, 67, 104
1, 393014, Control_c, 0, 67, 105
1, 393029, Control_c, 0, 67, 106
1, 393044, Control_c, 0, 67, 109
1, 393059, Control_c, 0, 67, 112
1, 393073, Control_c, 0, 67, 115
1, 393088, Control_c, 0, 67, 119
1, 393103, Control_c, 0, 67, 122
1, 393118, Control_c, 0, 67, 125
1, 393133, Control_c, 0, 67, 127
1, 393167, Note_on_c, 0, 73, 69
1, 393180, Note_on_c, 0, 61, 43
1, 393180, Note_off_c, 0, 62, 54
1, 393201, Note_off_c, 0, 74, 64
1, 393369, Note_off_c, 0, 66, 44
1, 393429, Control_c, 0, 64, 55
1, 393444, Control_c, 0, 64, 63
1, 393459, Control_c, 0, 64, 66
1, 393481, Control_c, 0, 64, 70
1, 393496, Control_c, 0, 64, 74
1, 393511, Control_c, 0, 64, 79
1, 393526, Control_c, 0, 64, 83
1, 393541, Control_c, 0, 64, 88
1, 393550, Note_on_c, 0, 78, 63
1, 393555, Control_c, 0, 64, 93
1, 393563, Note_on_c, 0, 66, 38
1, 393570, Control_c, 0, 64, 97
1, 393583, Note_off_c, 0, 69, 51
1, 393585, Control_c, 0, 64, 103
1, 393599, Control_c, 0, 64, 110
1, 393614, Control_c, 0, 64, 127
1, 393627, Note_off_c, 0, 73, 62
1, 393653, Note_off_c, 0, 57, 40
1, 393751, Note_off_c, 0, 66, 31
1, 393797, Note_off_c, 0, 61, 39
1, 393902, Note_on_c, 0, 69, 52
1, 393906, Note_on_c, 0, 57, 40
1, 393922, Note_off_c, 0, 54, 44
1, 393925, Note_off_c, 0, 78, 61
1, 393944, Note_off_c, 0, 57, 60
1, 393971, Note_off_c, 0, 69, 62
1, 394243, Note_on_c, 0, 69, 42
1, 394247, Note_on_c, 0, 47, 45
1, 394250, Note_on_c, 0, 66, 43
1, 394258, Note_on_c, 0, 57, 41
1, 394259, Control_c, 0, 64, 112
1, 394262, Note_on_c, 0, 62, 38
1, 394274, Control_c, 0, 64, 89
1, 394289, Control_c, 0, 64, 72
1, 394304, Control_c, 0, 64, 63
1, 394319, Control_c, 0, 64, 58
1, 394333, Control_c, 0, 64, 59
1, 394347, Control_c, 0, 64, 62
1, 394362, Control_c, 0, 64, 65
1, 394377, Control_c, 0, 64, 69
1, 394392, Control_c, 0, 64, 74
1, 394407, Control_c, 0, 64, 81
1, 394421, Control_c, 0, 64, 90
1, 394436, Control_c, 0, 64, 99
1, 394451, Control_c, 0, 64, 108
1, 394466, Control_c, 0, 64, 115
1, 394481, Control_c, 0, 64, 127
1, 394545, Note_off_c, 0, 57, 41
1, 394557, Note_off_c, 0, 47, 40
1, 394558, Note_on_c, 0, 68, 54
1, 394562, Note_on_c, 0, 56, 38
1, 394593, Note_off_c, 0, 69, 37
1, 394623, Note_off_c, 0, 66, 58
1, 394706, Note_off_c, 0, 62, 39
1, 394872, Note_off_c, 0, 56, 43
1, 394882, Note_on_c, 0, 73, 55
1, 394895, Note_on_c, 0, 49, 45
1, 394895, Note_on_c, 0, 61, 39
1, 394896, Note_on_c, 0, 65, 45
1, 394897, Control_c, 0, 64, 97
1, 394912, Control_c, 0, 64, 73
1, 394923, Note_off_c, 0, 68, 48
1, 394926, Control_c, 0, 64, 21
1, 394941, Control_c, 0, 64, 0
1, 394993, Control_c, 0, 64, 56
1, 395008, Control_c, 0, 64, 68
1, 395022, Control_c, 0, 64, 80
1, 395037, Control_c, 0, 64, 106
1, 395052, Control_c, 0, 64, 127
1, 395069, Note_off_c, 0, 61, 40
1, 395099, Note_off_c, 0, 49, 56
1, 395100, Note_off_c, 0, 73, 39
1, 395208, Note_off_c, 0, 65, 0
1, 395229, Note_on_c, 0, 73, 54
1, 395234, Note_on_c, 0, 65, 10
1, 395256, Note_on_c, 0, 49, 44
1, 395258, Note_on_c, 0, 71, 48
1, 395288, Note_on_c, 0, 61, 19
1, 395345, Note_off_c, 0, 49, 48
1, 395374, Note_off_c, 0, 65, 47
1, 395403, Note_off_c, 0, 73, 35
1, 395445, Note_off_c, 0, 61, 39
1, 395720, Note_on_c, 0, 69, 35
1, 395733, Note_on_c, 0, 73, 54
1, 395740, Note_on_c, 0, 66, 37
1, 395744, Note_on_c, 0, 49, 37
1, 395761, Note_on_c, 0, 42, 35
1, 395762, Note_on_c, 0, 61, 36
1, 395786, Control_c, 0, 64, 85
1, 395800, Note_off_c, 0, 71, 43
1, 395800, Control_c, 0, 64, 61
1, 395815, Control_c, 0, 64, 0
1, 395875, Note_off_c, 0, 69, 56
1, 395875, Control_c, 0, 64, 43
1, 395890, Control_c, 0, 64, 66
1, 395905, Control_c, 0, 64, 82
1, 395920, Control_c, 0, 64, 113
1, 395935, Control_c, 0, 64, 127
1, 395959, Note_off_c, 0, 66, 36
1, 395988, Note_off_c, 0, 61, 41
1, 396179, Note_off_c, 0, 73, 57
1, 396188, Note_on_c, 0, 75, 55
1, 396227, Note_on_c, 0, 51, 30
1, 396262, Poly_aftertouch_c, 0, 63, 127
1, 396291, Control_c, 0, 67, 125
1, 396306, Control_c, 0, 67, 123
1, 396313, Poly_aftertouch_c, 0, 63, 0
1, 396321, Control_c, 0, 67, 120
1, 396336, Control_c, 0, 67, 118
1, 396351, Control_c, 0, 67, 115
1, 396365, Control_c, 0, 67, 112
1, 396380, Control_c, 0, 67, 109
1, 396395, Control_c, 0, 67, 106
1, 396410, Control_c, 0, 67, 101
1, 396424, Control_c, 0, 67, 97
1, 396439, Control_c, 0, 67, 94
1, 396454, Control_c, 0, 67, 92
1, 396477, Control_c, 0, 67, 90
1, 396492, Control_c, 0, 67, 90
1, 396504, Note_on_c, 0, 77, 64
1, 396505, Note_off_c, 0, 75, 54
1, 396506, Control_c, 0, 67, 89
1, 396528, Note_on_c, 0, 53, 32
1, 396536, Control_c, 0, 67, 90
1, 396545, Note_on_c, 0, 65, 28
1, 396551, Control_c, 0, 67, 91
1, 396566, Control_c, 0, 67, 92
1, 396580, Control_c, 0, 67, 93
1, 396581, Note_off_c, 0, 51, 40
1, 396592, Note_off_c, 0, 65, 46
1, 396595, Control_c, 0, 67, 94
1, 396597, Note_off_c, 0, 53, 57
1, 396610, Control_c, 0, 67, 96
1, 396624, Control_c, 0, 67, 97
1, 396639, Control_c, 0, 67, 98
1, 396654, Control_c, 0, 67, 100
1, 396669, Control_c, 0, 67, 101
1, 396684, Control_c, 0, 67, 102
1, 396698, Control_c, 0, 67, 104
1, 396713, Control_c, 0, 67, 106
1, 396728, Control_c, 0, 67, 109
1, 396742, Control_c, 0, 67, 112
1, 396757, Control_c, 0, 67, 114
1, 396772, Control_c, 0, 67, 116
1, 396785, Note_on_c, 0, 78, 67
1, 396787, Control_c, 0, 67, 118
1, 396795, Note_on_c, 0, 54, 42
1, 396801, Note_off_c, 0, 77, 54
1, 396802, Control_c, 0, 67, 120
1, 396817, Control_c, 0, 67, 122
1, 396832, Control_c, 0, 67, 124
1, 396835, Note_on_c, 0, 66, 30
1, 396847, Control_c, 0, 67, 125
1, 396862, Control_c, 0, 67, 126
1, 396877, Control_c, 0, 67, 127
1, 396877, Note_off_c, 0, 78, 61
1, 396878, Note_off_c, 0, 54, 45
1, 396880, Note_off_c, 0, 66, 49
1, 396882, Note_off_c, 0, 42, 40
1, 396883, Note_off_c, 0, 49, 43
1, 396891, Control_c, 0, 67, 127
1, 397144, Control_c, 0, 64, 97
1, 397155, Note_on_c, 0, 80, 57
1, 397159, Control_c, 0, 64, 72
1, 397170, Note_on_c, 0, 77, 42
1, 397173, Note_on_c, 0, 56, 32
1, 397173, Control_c, 0, 64, 44
1, 397178, Note_on_c, 0, 68, 31
1, 397182, Note_on_c, 0, 71, 38
1, 397185, Note_on_c, 0, 49, 26
1, 397188, Control_c, 0, 64, 46
1, 397196, Note_on_c, 0, 42, 13
1, 397203, Control_c, 0, 64, 62
1, 397225, Control_c, 0, 64, 69
1, 397238, Poly_aftertouch_c, 0, 74, 127
1, 397240, Control_c, 0, 64, 80
1, 397255, Control_c, 0, 64, 100
1, 397270, Control_c, 0, 64, 127
1, 397286, Poly_aftertouch_c, 0, 74, 0
1, 397292, Note_off_c, 0, 71, 56
1, 397330, Note_off_c, 0, 68, 48
1, 397337, Note_off_c, 0, 42, 42
1, 397350, Note_off_c, 0, 56, 44
1, 397359, Note_off_c, 0, 80, 60
1, 397386, Note_off_c, 0, 49, 41
1, 397445, Note_off_c, 0, 77, 57
1, 397447, Control_c, 0, 67, 127
1, 397464, Note_on_c, 0, 81, 70
1, 397481, Note_on_c, 0, 57, 42
1, 397491, Note_on_c, 0, 69, 37
1, 397507, Control_c, 0, 67, 127
1, 397527, Note_off_c, 0, 69, 50
1, 397599, Note_on_c, 0, 79, 44
1, 397708, Note_off_c, 0, 81, 61
1, 397709, Note_off_c, 0, 79, 25
1, 397715, Note_on_c, 0, 83, 75
1, 397721, Note_off_c, 0, 57, 42
1, 397740, Note_on_c, 0, 59, 47
1, 397769, Note_on_c, 0, 71, 5
1, 397822, Note_off_c, 0, 71, 54
1, 397956, Note_off_c, 0, 59, 57
1, 397971, Note_on_c, 0, 84, 78
1, 397989, Note_off_c, 0, 83, 56
1, 397991, Note_on_c, 0, 60, 45
1, 398016, Note_on_c, 0, 72, 26
1, 398028, Note_off_c, 0, 60, 63
1, 398052, Note_off_c, 0, 72, 52
1, 398272, Note_on_c, 0, 86, 74
1, 398298, Note_on_c, 0, 54, 40
1, 398300, Control_c, 0, 64, 99
1, 398301, Note_on_c, 0, 62, 37
1, 398305, Note_on_c, 0, 74, 46
1, 398308, Note_off_c, 0, 84, 55
1, 398310, Note_on_c, 0, 78, 45
1, 398313, Note_on_c, 0, 57, 27
1, 398315, Control_c, 0, 64, 74
1, 398317, Note_on_c, 0, 81, 31
1, 398330, Control_c, 0, 64, 0
1, 398418, Control_c, 0, 64, 43
1, 398433, Control_c, 0, 64, 67
1, 398448, Control_c, 0, 64, 76
1, 398451, Note_off_c, 0, 74, 64
1, 398462, Control_c, 0, 64, 89
1, 398470, Note_off_c, 0, 81, 58
1, 398477, Note_off_c, 0, 78, 54
1, 398477, Control_c, 0, 64, 102
1, 398492, Control_c, 0, 64, 126
1, 398507, Control_c, 0, 64, 127
1, 398552, Note_off_c, 0, 62, 56
1, 398588, Note_on_c, 0, 85, 70
1, 398591, Note_on_c, 0, 61, 47
1, 398597, Control_c, 0, 67, 127
1, 398611, Control_c, 0, 67, 126
1, 398612, Note_off_c, 0, 86, 64
1, 398617, Note_off_c, 0, 57, 41
1, 398626, Control_c, 0, 67, 126
1, 398641, Control_c, 0, 67, 125
1, 398644, Poly_aftertouch_c, 0, 73, 127
1, 398656, Control_c, 0, 67, 124
1, 398671, Control_c, 0, 67, 123
1, 398686, Note_off_c, 0, 61, 32
1, 398686, Poly_aftertouch_c, 0, 73, 0
1, 398701, Control_c, 0, 67, 124
1, 398738, Control_c, 0, 67, 125
1, 398767, Control_c, 0, 67, 125
1, 398782, Control_c, 0, 67, 126
1, 398797, Control_c, 0, 67, 126
1, 398811, Control_c, 0, 67, 127
1, 398826, Control_c, 0, 67, 127
1, 398943, Note_on_c, 0, 90, 63
1, 398990, Note_on_c, 0, 66, 33
1, 399013, Note_off_c, 0, 90, 63
1, 399042, Note_off_c, 0, 66, 57
1, 399073, Note_off_c, 0, 85, 60
1, 399228, Note_off_c, 0, 54, 46
1, 399273, Note_on_c, 0, 81, 60
1, 399288, Note_on_c, 0, 57, 32
1, 399342, Note_off_c, 0, 57, 58
1, 399344, Poly_aftertouch_c, 0, 69, 127
1, 399388, Poly_aftertouch_c, 0, 69, 0
1, 399430, Note_off_c, 0, 81, 39
1, 399713, Note_on_c, 0, 81, 47
1, 399736, Note_on_c, 0, 57, 33
1, 399741, Note_on_c, 0, 47, 29
1, 399741, Note_on_c, 0, 78, 35
1, 399759, Note_on_c, 0, 69, 37
1, 399768, Control_c, 0, 64, 89
1, 399783, Control_c, 0, 64, 70
1, 399798, Control_c, 0, 64, 54
1, 399798, Poly_aftertouch_c, 0, 74, 127
1, 399801, Note_on_c, 0, 74, 3
1, 399813, Control_c, 0, 64, 56
1, 399828, Control_c, 0, 64, 62
1, 399842, Control_c, 0, 64, 66
1, 399857, Control_c, 0, 64, 71
1, 399872, Control_c, 0, 64, 77
1, 399887, Control_c, 0, 64, 90
1, 399902, Control_c, 0, 64, 107
1, 399916, Control_c, 0, 64, 127
1, 399974, Note_off_c, 0, 69, 41
1, 399998, Note_off_c, 0, 78, 49
1, 399998, Note_off_c, 0, 74, 44
1, 400078, Note_off_c, 0, 57, 36
1, 400191, Note_on_c, 0, 80, 52
1, 400201, Note_off_c, 0, 47, 43
1, 400202, Note_off_c, 0, 81, 49
1, 400218, Note_on_c, 0, 56, 33
1, 400519, Note_off_c, 0, 56, 42
1, 400544, Note_on_c, 0, 85, 61
1, 400546, Control_c, 0, 64, 116
1, 400548, Note_off_c, 0, 80, 50
1, 400561, Control_c, 0, 64, 79
1, 400567, Note_on_c, 0, 61, 35
1, 400575, Note_on_c, 0, 49, 37
1, 400576, Control_c, 0, 64, 63
1, 400578, Note_on_c, 0, 73, 37
1, 400591, Control_c, 0, 64, 48
1, 400606, Control_c, 0, 64, 60
1, 400621, Control_c, 0, 64, 68
1, 400635, Control_c, 0, 64, 77
1, 400647, Note_off_c, 0, 85, 63
1, 400650, Control_c, 0, 64, 96
1, 400665, Control_c, 0, 64, 127
1, 400737, Note_off_c, 0, 73, 52
1, 400770, Note_off_c, 0, 61, 40
1, 400902, Note_off_c, 0, 49, 45
1, 400904, Note_on_c, 0, 77, 60
1, 400940, Note_on_c, 0, 59, 40
1, 400945, Note_on_c, 0, 65, 34
1, 400976, Poly_aftertouch_c, 0, 73, 127
1, 400999, Note_off_c, 0, 65, 51
1, 401023, Poly_aftertouch_c, 0, 73, 0
1, 401372, Note_on_c, 0, 78, 55
1, 401405, Note_on_c, 0, 54, 30
1, 401406, Note_on_c, 0, 66, 37
1, 401407, Note_on_c, 0, 57, 26
1, 401418, Note_off_c, 0, 59, 31
1, 401427, Note_on_c, 0, 73, 41
1, 401428, Control_c, 0, 64, 108
1, 401443, Control_c, 0, 64, 78
1, 401458, Control_c, 0, 64, 52
1, 401473, Control_c, 0, 64, 0
1, 401510, Note_off_c, 0, 77, 52
1, 401547, Control_c, 0, 64, 49
1, 401562, Control_c, 0, 64, 67
1, 401577, Control_c, 0, 64, 79
1, 401592, Control_c, 0, 64, 101
1, 401606, Control_c, 0, 64, 127
1, 401714, Note_off_c, 0, 66, 41
1, 401727, Note_off_c, 0, 73, 45
1, 401965, Note_on_c, 0, 81, 55
1, 401977, Note_on_c, 0, 73, 39
1, 401978, Note_on_c, 0, 66, 37
1, 402010, Note_on_c, 0, 69, 37
1, 402047, Note_off_c, 0, 73, 42
1, 402060, Note_off_c, 0, 69, 58
1, 402085, Note_off_c, 0, 81, 56
1, 402131, Note_off_c, 0, 66, 43
1, 402133, Note_off_c, 0, 57, 37
1, 402381, Note_on_c, 0, 80, 53
1, 402389, Note_off_c, 0, 78, 58
1, 402400, Note_on_c, 0, 63, 36
1, 402409, Note_on_c, 0, 68, 30
1, 402419, Note_on_c, 0, 72, 32
1, 402479, Note_off_c, 0, 68, 43
1, 402481, Note_off_c, 0, 72, 56
1, 402639, Note_off_c, 0, 63, 37
1, 402689, Control_c, 0, 64, 96
1, 402696, Note_on_c, 0, 77, 60
1, 402704, Control_c, 0, 64, 75
1, 402711, Note_off_c, 0, 80, 57
1, 402719, Control_c, 0, 64, 67
1, 402722, Note_on_c, 0, 62, 26
1, 402734, Control_c, 0, 64, 71
1, 402739, Note_on_c, 0, 65, 39
1, 402749, Control_c, 0, 64, 77
1, 402764, Control_c, 0, 64, 86
1, 402779, Control_c, 0, 64, 103
1, 402793, Control_c, 0, 64, 127
1, 402806, Note_off_c, 0, 65, 63
1, 402941, Control_c, 0, 64, 118
1, 402946, Note_off_c, 0, 62, 39
1, 402956, Control_c, 0, 64, 85
1, 402971, Control_c, 0, 64, 72
1, 402979, Note_off_c, 0, 77, 50
1, 402984, Note_on_c, 0, 78, 51
1, 402985, Control_c, 0, 64, 72
1, 403000, Control_c, 0, 64, 82
1, 403001, Note_on_c, 0, 69, 44
1, 403008, Note_on_c, 0, 66, 44
1, 403011, Note_on_c, 0, 61, 28
1, 403015, Control_c, 0, 64, 97
1, 403030, Control_c, 0, 64, 127
1, 403049, Note_off_c, 0, 78, 60
1, 403070, Note_off_c, 0, 69, 54
1, 403100, Note_off_c, 0, 66, 57
1, 403223, Note_off_c, 0, 61, 41
1, 403259, Control_c, 0, 64, 88
1, 403265, Note_on_c, 0, 74, 63
1, 403274, Note_on_c, 0, 62, 46
1, 403274, Control_c, 0, 64, 70
1, 403289, Control_c, 0, 64, 64
1, 403294, Note_on_c, 0, 68, 34
1, 403304, Control_c, 0, 64, 69
1, 403318, Control_c, 0, 64, 80
1, 403334, Control_c, 0, 64, 99
1, 403348, Note_off_c, 0, 62, 53
1, 403349, Control_c, 0, 64, 127
1, 403360, Note_off_c, 0, 74, 40
1, 403369, Poly_aftertouch_c, 0, 59, 127
1, 403370, Note_off_c, 0, 68, 0
1, 403370, Note_on_c, 0, 68, 27
1, 403474, Poly_aftertouch_c, 0, 59, 0
1, 403497, Control_c, 0, 64, 92
1, 403512, Control_c, 0, 64, 73
1, 403526, Note_off_c, 0, 68, 35
1, 403527, Control_c, 0, 64, 72
1, 403530, Note_off_c, 0, 54, 47
1, 403531, Note_on_c, 0, 73, 63
1, 403542, Control_c, 0, 64, 80
1, 403545, Note_on_c, 0, 65, 49
1, 403556, Control_c, 0, 64, 94
1, 403557, Note_on_c, 0, 61, 32
1, 403557, Note_on_c, 0, 56, 42
1, 403571, Control_c, 0, 64, 127
1, 403607, Note_off_c, 0, 73, 62
1, 403641, Note_off_c, 0, 61, 38
1, 403777, Note_off_c, 0, 56, 55
1, 403793, Control_c, 0, 64, 93
1, 403807, Control_c, 0, 64, 71
1, 403812, Note_on_c, 0, 71, 54
1, 403822, Control_c, 0, 64, 57
1, 403837, Control_c, 0, 64, 63
1, 403848, Note_on_c, 0, 59, 25
1, 403849, Note_on_c, 0, 53, 32
1, 403849, Note_on_c, 0, 68, 28
1, 403852, Control_c, 0, 64, 70
1, 403867, Control_c, 0, 64, 81
1, 403882, Control_c, 0, 64, 127
1, 403885, Note_off_c, 0, 53, 60
1, 403908, Note_off_c, 0, 65, 55
1, 403909, Note_off_c, 0, 68, 44
1, 403923, Note_off_c, 0, 59, 41
1, 404165, Note_on_c, 0, 69, 53
1, 404171, Note_on_c, 0, 66, 40
1, 404171, Control_c, 0, 64, 114
1, 404186, Note_on_c, 0, 42, 36
1, 404186, Control_c, 0, 64, 80
1, 404201, Control_c, 0, 64, 62
1, 404207, Note_on_c, 0, 57, 24
1, 404216, Control_c, 0, 64, 36
1, 404230, Control_c, 0, 64, 61
1, 404245, Control_c, 0, 64, 70
1, 404246, Note_off_c, 0, 66, 0
1, 404246, Note_on_c, 0, 66, 11
1, 404249, Note_off_c, 0, 71, 55
1, 404260, Control_c, 0, 64, 84
1, 404275, Control_c, 0, 64, 127
1, 404359, Note_off_c, 0, 69, 38
1, 404374, Note_off_c, 0, 57, 43
1, 404469, Note_on_c, 0, 69, 63
1, 404492, Note_on_c, 0, 57, 47
1, 404504, Note_on_c, 0, 52, 37
1, 404504, Note_on_c, 0, 61, 48
1, 404574, Note_off_c, 0, 69, 60
1, 404580, Note_off_c, 0, 57, 53
1, 404594, Note_off_c, 0, 61, 51
1, 404767, Note_on_c, 0, 68, 63
1, 404772, Note_on_c, 0, 60, 50
1, 404777, Note_on_c, 0, 51, 47
1, 404783, Note_off_c, 0, 66, 51
1, 404784, Note_on_c, 0, 56, 53
1, 404786, Control_c, 0, 64, 92
1, 404797, Note_off_c, 0, 52, 41
1, 404801, Control_c, 0, 64, 71
1, 404816, Control_c, 0, 64, 64
1, 404830, Control_c, 0, 64, 70
1, 404845, Control_c, 0, 64, 81
1, 404860, Control_c, 0, 64, 98
1, 404875, Control_c, 0, 64, 127
1, 404895, Note_off_c, 0, 60, 60
1, 404904, Note_off_c, 0, 56, 50
1, 405053, Control_c, 0, 64, 92
1, 405059, Note_on_c, 0, 50, 48
1, 405059, Note_on_c, 0, 65, 60
1, 405061, Note_on_c, 0, 59, 51
1, 405068, Control_c, 0, 64, 70
1, 405069, Note_off_c, 0, 51, 58
1, 405083, Control_c, 0, 64, 42
1, 405086, Note_on_c, 0, 53, 48
1, 405087, Note_off_c, 0, 68, 59
1, 405098, Control_c, 0, 64, 45
1, 405113, Control_c, 0, 64, 65
1, 405128, Control_c, 0, 64, 72
1, 405143, Control_c, 0, 64, 83
1, 405152, Note_off_c, 0, 59, 58
1, 405157, Control_c, 0, 64, 102
1, 405172, Control_c, 0, 64, 127
1, 405178, Note_off_c, 0, 53, 65
1, 405320, Control_c, 0, 64, 119
1, 405335, Control_c, 0, 64, 81
1, 405339, Note_off_c, 0, 50, 53
1, 405342, Note_off_c, 0, 65, 61
1, 405342, Note_on_c, 0, 66, 54
1, 405350, Control_c, 0, 64, 60
1, 405357, Note_on_c, 0, 49, 42
1, 405363, Note_on_c, 0, 57, 45
1, 405365, Control_c, 0, 64, 0
1, 405366, Note_on_c, 0, 54, 45
1, 405379, Control_c, 0, 64, 26
1, 405394, Control_c, 0, 64, 64
1, 405409, Control_c, 0, 64, 75
1, 405416, Note_off_c, 0, 66, 62
1, 405424, Control_c, 0, 64, 91
1, 405439, Control_c, 0, 64, 127
1, 405481, Note_off_c, 0, 57, 56
1, 405483, Note_off_c, 0, 54, 63
1, 405591, Note_off_c, 0, 49, 56
1, 405609, Control_c, 0, 64, 117
1, 405624, Control_c, 0, 64, 84
1, 405638, Note_on_c, 0, 62, 55
1, 405639, Control_c, 0, 64, 65
1, 405646, Note_on_c, 0, 47, 36
1, 405652, Note_on_c, 0, 50, 36
1, 405653, Control_c, 0, 64, 46
1, 405666, Note_on_c, 0, 56, 36
1, 405668, Control_c, 0, 64, 60
1, 405683, Control_c, 0, 64, 68
1, 405698, Control_c, 0, 64, 79
1, 405712, Control_c, 0, 64, 96
1, 405729, Control_c, 0, 64, 127
1, 405744, Note_off_c, 0, 62, 54
1, 405849, Note_off_c, 0, 42, 40
1, 405906, Control_c, 0, 64, 88
1, 405911, Note_off_c, 0, 50, 46
1, 405921, Note_on_c, 0, 61, 55
1, 405921, Control_c, 0, 64, 67
1, 405926, Note_on_c, 0, 44, 42
1, 405930, Note_on_c, 0, 53, 45
1, 405936, Control_c, 0, 64, 0
1, 405965, Note_off_c, 0, 56, 53
1, 405965, Control_c, 0, 64, 60
1, 405980, Control_c, 0, 64, 70
1, 405995, Note_off_c, 0, 47, 43
1, 405995, Control_c, 0, 64, 80
1, 406010, Control_c, 0, 64, 94
1, 406025, Control_c, 0, 64, 127
1, 406210, Control_c, 0, 64, 105
1, 406222, Note_on_c, 0, 59, 53
1, 406225, Control_c, 0, 64, 78
1, 406234, Note_on_c, 0, 49, 47
1, 406239, Note_on_c, 0, 47, 43
1, 406240, Control_c, 0, 64, 59
1, 406249, Note_on_c, 0, 41, 36
1, 406254, Control_c, 0, 64, 0
1, 406277, Note_off_c, 0, 53, 38
1, 406284, Control_c, 0, 64, 26
1, 406299, Control_c, 0, 64, 62
1, 406314, Control_c, 0, 64, 69
1, 406328, Control_c, 0, 64, 79
1, 406329, Note_off_c, 0, 61, 31
1, 406343, Control_c, 0, 64, 91
1, 406358, Control_c, 0, 64, 110
1, 406373, Control_c, 0, 64, 127
1, 406433, Note_off_c, 0, 47, 50
1, 406537, Control_c, 0, 64, 104
1, 406551, Control_c, 0, 64, 76
1, 406555, Note_on_c, 0, 57, 45
1, 406566, Control_c, 0, 64, 50
1, 406567, Note_on_c, 0, 42, 35
1, 406573, Note_on_c, 0, 54, 37
1, 406581, Control_c, 0, 64, 0
1, 406582, Note_off_c, 0, 41, 40
1, 406591, Note_on_c, 0, 45, 47
1, 406625, Control_c, 0, 64, 62
1, 406633, Note_off_c, 0, 54, 56
1, 406640, Control_c, 0, 64, 71
1, 406641, Note_off_c, 0, 44, 49
1, 406646, Note_off_c, 0, 59, 26
1, 406655, Control_c, 0, 64, 81
1, 406670, Control_c, 0, 64, 92
1, 406684, Note_off_c, 0, 49, 42
1, 406685, Control_c, 0, 64, 100
1, 406699, Control_c, 0, 64, 101
1, 406788, Control_c, 0, 64, 99
1, 406803, Control_c, 0, 64, 91
1, 406818, Control_c, 0, 64, 77
1, 406833, Control_c, 0, 64, 51
1, 406848, Control_c, 0, 64, 0
1, 406851, Note_on_c, 0, 61, 53
1, 406866, Note_on_c, 0, 56, 44
1, 406867, Note_on_c, 0, 49, 38
1, 406870, Note_on_c, 0, 37, 42
1, 406903, Note_off_c, 0, 42, 43
1, 406910, Note_off_c, 0, 57, 33
1, 406937, Control_c, 0, 64, 62
1, 406958, Control_c, 0, 64, 72
1, 406973, Control_c, 0, 64, 78
1, 406994, Note_off_c, 0, 56, 60
1, 407003, Control_c, 0, 64, 73
1, 407018, Control_c, 0, 64, 65
1, 407024, Note_off_c, 0, 45, 55
1, 407032, Control_c, 0, 64, 61
1, 407047, Control_c, 0, 64, 55
1, 407062, Control_c, 0, 64, 53
1, 407092, Control_c, 0, 64, 54
1, 407107, Control_c, 0, 64, 55
1, 407122, Control_c, 0, 64, 45
1, 407137, Control_c, 0, 64, 0
1, 407149, Note_on_c, 0, 57, 53
1, 407164, Note_on_c, 0, 42, 40
1, 407164, Note_on_c, 0, 54, 46
1, 407164, Note_on_c, 0, 45, 44
1, 407214, Note_off_c, 0, 61, 38
1, 407225, Control_c, 0, 64, 50
1, 407240, Control_c, 0, 64, 67
1, 407255, Control_c, 0, 64, 74
1, 407256, Note_off_c, 0, 37, 44
1, 407270, Control_c, 0, 64, 80
1, 407283, Note_off_c, 0, 54, 62
1, 407284, Control_c, 0, 64, 81
1, 407299, Control_c, 0, 64, 75
1, 407313, Note_off_c, 0, 49, 35
1, 407314, Control_c, 0, 64, 66
1, 407330, Control_c, 0, 64, 52
1, 407345, Control_c, 0, 64, 0
1, 407375, Control_c, 0, 64, 32
1, 407389, Control_c, 0, 64, 43
1, 407404, Control_c, 0, 64, 42
1, 407419, Control_c, 0, 64, 24
1, 407434, Control_c, 0, 64, 0
1, 407456, Note_on_c, 0, 61, 57
1, 407464, Note_on_c, 0, 56, 48
1, 407466, Note_on_c, 0, 49, 37
1, 407468, Note_on_c, 0, 37, 45
1, 407501, Note_off_c, 0, 57, 53
1, 407508, Control_c, 0, 64, 35
1, 407522, Control_c, 0, 64, 62
1, 407537, Control_c, 0, 64, 68
1, 407552, Control_c, 0, 64, 73
1, 407556, Note_off_c, 0, 42, 42
1, 407562, Note_off_c, 0, 45, 46
1, 407567, Control_c, 0, 64, 76
1, 407581, Control_c, 0, 64, 79
1, 407589, Note_off_c, 0, 56, 59
1, 407596, Control_c, 0, 64, 79
1, 407641, Control_c, 0, 64, 76
1, 407655, Control_c, 0, 64, 70
1, 407670, Control_c, 0, 64, 60
1, 407685, Control_c, 0, 64, 0
1, 407760, Note_on_c, 0, 57, 49
1, 407763, Note_on_c, 0, 45, 35
1, 407772, Note_on_c, 0, 42, 39
1, 407784, Note_on_c, 0, 54, 46
1, 407800, Note_off_c, 0, 61, 55
1, 407851, Note_off_c, 0, 37, 43
1, 407852, Note_off_c, 0, 49, 43
1, 407873, Note_off_c, 0, 54, 61
1, 408075, Note_on_c, 0, 61, 52
1, 408080, Note_on_c, 0, 56, 41
1, 408082, Note_on_c, 0, 49, 42
1, 408091, Note_on_c, 0, 37, 45
1, 408109, Note_off_c, 0, 57, 50
1, 408148, Note_off_c, 0, 42, 43
1, 408161, Note_off_c, 0, 45, 44
1, 408198, Note_off_c, 0, 56, 57
1, 408405, Note_on_c, 0, 57, 48
1, 408414, Note_on_c, 0, 45, 33
1, 408416, Note_on_c, 0, 54, 43
1, 408418, Note_on_c, 0, 42, 43
1, 408428, Note_off_c, 0, 61, 52
1, 408472, Note_off_c, 0, 37, 46
1, 408488, Note_off_c, 0, 54, 56
1, 408519, Note_off_c, 0, 49, 38
1, 408620, Control_c, 0, 64, 50
1, 408635, Control_c, 0, 64, 63
1, 408650, Control_c, 0, 64, 67
1, 408665, Control_c, 0, 64, 70
1, 408679, Control_c, 0, 64, 74
1, 408681, Note_off_c, 0, 45, 45
1, 408694, Control_c, 0, 64, 77
1, 408709, Control_c, 0, 64, 81
1, 408723, Control_c, 0, 64, 85
1, 408732, Note_on_c, 0, 37, 71
1, 408732, Note_off_c, 0, 42, 61
1, 408737, Note_on_c, 0, 61, 54
1, 408738, Control_c, 0, 64, 91
1, 408753, Control_c, 0, 64, 95
1, 408760, Note_on_c, 0, 49, 53
1, 408764, Note_off_c, 0, 57, 59
1, 408768, Control_c, 0, 64, 98
1, 408783, Control_c, 0, 64, 99
1, 408797, Control_c, 0, 64, 100
1, 408803, Note_off_c, 0, 61, 53
1, 408805, Note_off_c, 0, 37, 62
1, 408812, Control_c, 0, 64, 100
1, 408827, Control_c, 0, 64, 101
1, 409065, Control_c, 0, 64, 100
1, 409080, Control_c, 0, 64, 97
1, 409095, Control_c, 0, 64, 90
1, 409096, Note_on_c, 0, 30, 81
1, 409110, Control_c, 0, 64, 76
1, 409125, Control_c, 0, 64, 63
1, 409139, Note_on_c, 0, 45, 44
1, 409140, Control_c, 0, 64, 0
1, 409141, Note_on_c, 0, 57, 46
1, 409152, Note_off_c, 0, 30, 60
1, 409153, Note_on_c, 0, 54, 38
1, 409443, Note_on_c, 0, 37, 73
1, 409477, Note_off_c, 0, 37, 66
1, 409790, Note_on_c, 0, 30, 69
1, 409820, Note_off_c, 0, 30, 63
1, 410222, Note_on_c, 0, 37, 66
1, 410250, Note_off_c, 0, 37, 64
1, 410762, Control_c, 0, 64, 40
1, 410777, Control_c, 0, 64, 54
1, 410792, Control_c, 0, 64, 61
1, 410806, Control_c, 0, 64, 65
1, 410821, Control_c, 0, 64, 68
1, 410836, Control_c, 0, 64, 71
1, 410851, Control_c, 0, 64, 75
1, 410866, Control_c, 0, 64, 80
1, 410881, Control_c, 0, 64, 87
1, 410894, Note_on_c, 0, 30, 52
1, 410896, Control_c, 0, 64, 96
1, 410911, Control_c, 0, 64, 109
1, 410925, Control_c, 0, 64, 127
1, 410942, Note_off_c, 0, 30, 59
1, 411894, Note_on_c, 0, 30, 41
1, 411972, Note_off_c, 0, 30, 47
1, 412160, Note_on_c, 0, 30, 34
1, 412416, Note_off_c, 0, 57, 34
1, 412550, Note_off_c, 0, 54, 41
1, 412645, Note_off_c, 0, 49, 29
1, 413127, Control_c, 0, 64, 124
1, 413142, Control_c, 0, 64, 123
1, 413201, Control_c, 0, 64, 122
1, 413246, Control_c, 0, 64, 121
1, 413498, Control_c, 0, 64, 120
1, 413542, Control_c, 0, 64, 119
1, 413555, Note_off_c, 0, 30, 28
1, 413557, Control_c, 0, 64, 118
1, 413572, Control_c, 0, 64, 117
1, 413586, Control_c, 0, 64, 116
1, 413601, Control_c, 0, 64, 115
1, 413616, Control_c, 0, 64, 115
1, 413631, Control_c, 0, 64, 114
1, 413645, Control_c, 0, 64, 113
1, 413660, Control_c, 0, 64, 112
1, 413675, Control_c, 0, 64, 110
1, 413698, Control_c, 0, 64, 109
1, 413713, Control_c, 0, 64, 108
1, 413728, Control_c, 0, 64, 106
1, 413742, Control_c, 0, 64, 104
1, 413757, Control_c, 0, 64, 103
1, 413772, Control_c, 0, 64, 101
1, 413787, Control_c, 0, 64, 100
1, 413802, Control_c, 0, 64, 99
1, 413817, Control_c, 0, 64, 98
1, 413832, Control_c, 0, 64, 97
1, 413847, Control_c, 0, 64, 95
1, 413862, Control_c, 0, 64, 94
1, 413877, Control_c, 0, 64, 92
1, 413892, Control_c, 0, 64, 91
1, 413906, Control_c, 0, 64, 90
1, 413921, Control_c, 0, 64, 89
1, 413936, Control_c, 0, 64, 88
1, 413950, Control_c, 0, 64, 87
1, 413965, Control_c, 0, 64, 86
1, 413980, Control_c, 0, 64, 85
1, 413995, Control_c, 0, 64, 84
1, 414010, Control_c, 0, 64, 84
1, 414024, Control_c, 0, 64, 83
1, 414039, Control_c, 0, 64, 83
1, 414054, Control_c, 0, 64, 82
1, 414068, Control_c, 0, 64, 82
1, 414098, Control_c, 0, 64, 81
1, 414113, Control_c, 0, 64, 81
1, 414142, Control_c, 0, 64, 80
1, 414172, Control_c, 0, 64, 80
1, 414187, Control_c, 0, 64, 79
1, 414202, Control_c, 0, 64, 79
1, 414216, Control_c, 0, 64, 78
1, 414231, Control_c, 0, 64, 78
1, 414246, Control_c, 0, 64, 77
1, 414261, Control_c, 0, 64, 77
1, 414276, Control_c, 0, 64, 76
1, 414291, Control_c, 0, 64, 76
1, 414321, Control_c, 0, 64, 75
1, 414335, Control_c, 0, 64, 75
1, 414350, Control_c, 0, 64, 74
1, 414380, Control_c, 0, 64, 74
1, 414395, Control_c, 0, 64, 73
1, 414409, Control_c, 0, 64, 73
1, 414424, Control_c, 0, 64, 72
1, 414461, Control_c, 0, 64, 72
1, 414476, Control_c, 0, 64, 71
1, 414506, Control_c, 0, 64, 71
1, 414536, Control_c, 0, 64, 70
1, 414581, Control_c, 0, 64, 70
1, 414640, Control_c, 0, 64, 69
1, 414670, Control_c, 0, 64, 69
1, 414685, Control_c, 0, 64, 68
1, 414729, Control_c, 0, 64, 68
1, 414759, Control_c, 0, 64, 67
1, 414789, Control_c, 0, 64, 67
1, 414834, Control_c, 0, 64, 66
1, 414922, Control_c, 0, 64, 66
1, 415508, Control_c, 0, 64, 66
1, 415686, Control_c, 0, 64, 67
1, 415760, Control_c, 0, 64, 67
1, 415789, Control_c, 0, 64, 68
1, 415819, Control_c, 0, 64, 68
1, 415834, Control_c, 0, 64, 69
1, 415848, Control_c, 0, 64, 69
1, 415863, Control_c, 0, 64, 70
1, 415893, Control_c, 0, 64, 70
1, 415907, Control_c, 0, 64, 71
1, 415922, Control_c, 0, 64, 72
1, 415945, Control_c, 0, 64, 73
1, 415960, Control_c, 0, 64, 74
1, 415975, Control_c, 0, 64, 74
1, 415989, Control_c, 0, 64, 75
1, 416004, Control_c, 0, 64, 76
1, 416019, Control_c, 0, 64, 76
1, 416034, Control_c, 0, 64, 77
1, 416047, Control_c, 0, 64, 79
1, 416062, Control_c, 0, 64, 79
1, 416077, Control_c, 0, 64, 80
1, 416091, Control_c, 0, 64, 81
1, 416106, Control_c, 0, 64, 81
1, 416122, Control_c, 0, 64, 82
1, 416136, Control_c, 0, 64, 83
1, 416151, Control_c, 0, 64, 84
1, 416166, Control_c, 0, 64, 85
1, 416181, Control_c, 0, 64, 86
1, 416196, Control_c, 0, 64, 88
1, 416211, Control_c, 0, 64, 89
1, 416226, Control_c, 0, 64, 90
1, 416240, Control_c, 0, 64, 91
1, 416255, Control_c, 0, 64, 91
1, 416270, Control_c, 0, 64, 92
1, 416285, Control_c, 0, 64, 93
1, 416300, Control_c, 0, 64, 94
1, 416315, Control_c, 0, 64, 95
1, 416330, Control_c, 0, 64, 96
1, 416344, Control_c, 0, 64, 97
1, 416359, Control_c, 0, 64, 98
1, 416374, Control_c, 0, 64, 99
1, 416389, Control_c, 0, 64, 100
1, 416404, Control_c, 0, 64, 102
1, 416418, Control_c, 0, 64, 104
1, 416433, Control_c, 0, 64, 106
1, 416448, Control_c, 0, 64, 108
1, 416462, Control_c, 0, 64, 110
1, 416477, Control_c, 0, 64, 112
1, 416492, Control_c, 0, 64, 114
1, 416507, Control_c, 0, 64, 117
1, 416522, Control_c, 0, 64, 122
1, 416536, Control_c, 0, 64, 127
1, 417890, Note_off_c, 0, 45, 40
1, 419198, Note_on_c, 0, 52, 28
1, 419210, Note_on_c, 0, 45, 30
1, 419835, Note_off_c, 0, 45, 39
1, 420184, Note_on_c, 0, 73, 29
1, 420188, Note_on_c, 0, 61, 27
1, 420193, Note_on_c, 0, 69, 29
1, 420208, Note_on_c, 0, 64, 28
1, 420422, Note_off_c, 0, 73, 43
1, 420431, Note_off_c, 0, 61, 37
1, 420439, Note_off_c, 0, 69, 40
1, 420469, Note_off_c, 0, 64, 34
1, 420554, Note_off_c, 0, 52, 50
1, 420717, Note_on_c, 0, 73, 30
1, 420730, Note_on_c, 0, 69, 33
1, 420745, Note_on_c, 0, 61, 26
1, 420752, Note_on_c, 0, 64, 29
1, 420875, Note_off_c, 0, 73, 43
1, 420916, Note_off_c, 0, 61, 34
1, 420918, Note_off_c, 0, 69, 37
1, 420935, Note_off_c, 0, 64, 38
1, 421150, Note_on_c, 0, 73, 39
1, 421168, Note_on_c, 0, 69, 33
1, 421208, Note_on_c, 0, 64, 16
1, 421214, Poly_aftertouch_c, 0, 61, 127
1, 421234, Note_off_c, 0, 69, 50
1, 421264, Note_off_c, 0, 73, 36
1, 421266, Note_off_c, 0, 64, 43
1, 421272, Poly_aftertouch_c, 0, 61, 0
1, 421334, Control_c, 0, 67, 125
1, 421349, Control_c, 0, 67, 123
1, 421364, Control_c, 0, 67, 121
1, 421379, Control_c, 0, 67, 118
1, 421394, Control_c, 0, 67, 115
1, 421408, Control_c, 0, 67, 113
1, 421423, Control_c, 0, 67, 111
1, 421438, Control_c, 0, 67, 109
1, 421453, Control_c, 0, 67, 106
1, 421467, Control_c, 0, 67, 105
1, 421482, Control_c, 0, 67, 103
1, 421497, Control_c, 0, 67, 101
1, 421512, Control_c, 0, 67, 99
1, 421526, Control_c, 0, 67, 97
1, 421541, Control_c, 0, 67, 95
1, 421556, Control_c, 0, 67, 94
1, 421571, Control_c, 0, 67, 92
1, 421586, Control_c, 0, 67, 91
1, 421589, Note_on_c, 0, 73, 49
1, 421600, Control_c, 0, 67, 90
1, 421612, Note_on_c, 0, 69, 33
1, 421615, Control_c, 0, 67, 89
1, 421630, Control_c, 0, 67, 89
1, 421639, Note_on_c, 0, 61, 16
1, 421645, Control_c, 0, 67, 88
1, 421649, Note_on_c, 0, 64, 26
1, 421660, Control_c, 0, 67, 86
1, 421675, Control_c, 0, 67, 85
1, 421690, Control_c, 0, 67, 84
1, 421705, Control_c, 0, 67, 83
1, 421720, Control_c, 0, 67, 82
1, 421735, Control_c, 0, 67, 81
1, 421749, Control_c, 0, 67, 80
1, 421764, Control_c, 0, 67, 79
1, 421779, Control_c, 0, 67, 78
1, 421788, Note_off_c, 0, 69, 41
1, 421794, Control_c, 0, 67, 77
1, 421802, Note_off_c, 0, 61, 38
1, 421809, Control_c, 0, 67, 76
1, 421810, Note_off_c, 0, 64, 38
1, 421824, Control_c, 0, 67, 74
1, 421839, Control_c, 0, 67, 73
1, 421854, Control_c, 0, 67, 73
1, 421868, Control_c, 0, 67, 72
1, 421883, Control_c, 0, 67, 71
1, 421898, Control_c, 0, 67, 70
1, 421913, Control_c, 0, 67, 70
1, 421935, Control_c, 0, 67, 69
1, 421964, Control_c, 0, 67, 69
1, 422017, Note_on_c, 0, 74, 65
1, 422050, Note_on_c, 0, 69, 31
1, 422083, Control_c, 0, 67, 68
1, 422086, Note_on_c, 0, 64, 17
1, 422098, Poly_aftertouch_c, 0, 61, 127
1, 422113, Control_c, 0, 67, 68
1, 422123, Note_off_c, 0, 73, 58
1, 422128, Control_c, 0, 67, 67
1, 422143, Control_c, 0, 67, 65
1, 422157, Control_c, 0, 67, 64
1, 422172, Control_c, 0, 67, 63
1, 422187, Control_c, 0, 67, 62
1, 422228, Note_off_c, 0, 69, 41
1, 422246, Control_c, 0, 67, 64
1, 422250, Poly_aftertouch_c, 0, 61, 0
1, 422261, Control_c, 0, 67, 65
1, 422267, Note_off_c, 0, 64, 39
1, 422275, Control_c, 0, 67, 65
1, 422290, Control_c, 0, 67, 66
1, 422305, Control_c, 0, 67, 67
1, 422320, Control_c, 0, 67, 68
1, 422335, Control_c, 0, 67, 69
1, 422350, Control_c, 0, 67, 71
1, 422364, Control_c, 0, 67, 72
1, 422379, Control_c, 0, 67, 72
1, 422394, Control_c, 0, 67, 73
1, 422408, Control_c, 0, 67, 73
1, 422423, Control_c, 0, 67, 74
1, 422438, Control_c, 0, 67, 75
1, 422453, Control_c, 0, 67, 76
1, 422468, Control_c, 0, 67, 77
1, 422483, Control_c, 0, 67, 78
1, 422498, Control_c, 0, 67, 79
1, 422513, Control_c, 0, 67, 79
1, 422528, Control_c, 0, 67, 80
1, 422542, Note_on_c, 0, 75, 58
1, 422543, Control_c, 0, 67, 80
1, 422579, Note_off_c, 0, 74, 61
1, 422581, Note_on_c, 0, 69, 31
1, 422581, Note_on_c, 0, 73, 36
1, 422598, Note_on_c, 0, 61, 25
1, 422602, Note_on_c, 0, 64, 32
1, 422632, Control_c, 0, 64, 126
1, 422646, Control_c, 0, 64, 95
1, 422661, Control_c, 0, 64, 83
1, 422684, Control_c, 0, 64, 77
1, 422699, Control_c, 0, 64, 77
1, 422713, Control_c, 0, 64, 77
1, 422728, Control_c, 0, 64, 79
1, 422743, Control_c, 0, 64, 82
1, 422758, Control_c, 0, 64, 88
1, 422773, Control_c, 0, 64, 98
1, 422787, Control_c, 0, 64, 124
1, 422802, Control_c, 0, 64, 127
1, 422914, Note_off_c, 0, 73, 44
1, 422930, Note_off_c, 0, 61, 39
1, 422936, Note_off_c, 0, 69, 33
1, 422948, Note_off_c, 0, 64, 40
1, 422951, Control_c, 0, 67, 81
1, 422965, Control_c, 0, 67, 81
1, 422980, Control_c, 0, 67, 82
1, 422995, Control_c, 0, 67, 83
1, 423010, Control_c, 0, 67, 86
1, 423024, Control_c, 0, 67, 90
1, 423039, Control_c, 0, 67, 94
1, 423054, Control_c, 0, 67, 98
1, 423069, Control_c, 0, 67, 101
1, 423084, Control_c, 0, 67, 105
1, 423098, Control_c, 0, 67, 109
1, 423113, Control_c, 0, 67, 112
1, 423128, Control_c, 0, 67, 115
1, 423143, Control_c, 0, 67, 117
1, 423158, Control_c, 0, 67, 118
1, 423172, Control_c, 0, 67, 119
1, 423187, Control_c, 0, 67, 120
1, 423202, Control_c, 0, 67, 121
1, 423204, Note_on_c, 0, 73, 27
1, 423208, Note_on_c, 0, 69, 25
1, 423217, Control_c, 0, 67, 121
1, 423229, Note_on_c, 0, 64, 28
1, 423232, Note_on_c, 0, 61, 14
1, 423291, Control_c, 0, 67, 121
1, 423307, Control_c, 0, 67, 120
1, 423321, Control_c, 0, 67, 119
1, 423336, Control_c, 0, 67, 117
1, 423351, Control_c, 0, 67, 116
1, 423366, Control_c, 0, 67, 115
1, 423377, Note_off_c, 0, 73, 42
1, 423381, Control_c, 0, 67, 114
1, 423395, Control_c, 0, 67, 113
1, 423406, Note_off_c, 0, 69, 40
1, 423410, Control_c, 0, 67, 112
1, 423411, Note_off_c, 0, 61, 37
1, 423433, Control_c, 0, 67, 111
1, 423438, Note_off_c, 0, 64, 36
1, 423448, Control_c, 0, 67, 110
1, 423462, Control_c, 0, 67, 109
1, 423477, Control_c, 0, 67, 108
1, 423492, Control_c, 0, 67, 107
1, 423507, Control_c, 0, 67, 106
1, 423522, Control_c, 0, 67, 105
1, 423535, Control_c, 0, 67, 104
1, 423550, Control_c, 0, 67, 104
1, 423580, Control_c, 0, 67, 103
1, 423624, Control_c, 0, 67, 102
1, 423669, Control_c, 0, 67, 102
1, 423698, Note_on_c, 0, 76, 50
1, 423714, Control_c, 0, 67, 101
1, 423728, Control_c, 0, 67, 101
1, 423743, Control_c, 0, 67, 100
1, 423743, Note_on_c, 0, 73, 28
1, 423749, Note_on_c, 0, 69, 31
1, 423754, Note_on_c, 0, 61, 16
1, 423758, Control_c, 0, 67, 99
1, 423763, Note_on_c, 0, 64, 29
1, 423773, Control_c, 0, 67, 97
1, 423788, Control_c, 0, 67, 95
1, 423802, Control_c, 0, 67, 93
1, 423817, Control_c, 0, 67, 91
1, 423832, Control_c, 0, 67, 89
1, 423846, Control_c, 0, 67, 87
1, 423861, Control_c, 0, 67, 85
1, 423862, Note_off_c, 0, 75, 36
1, 423876, Control_c, 0, 67, 84
1, 423891, Control_c, 0, 67, 82
1, 423906, Control_c, 0, 67, 81
1, 423920, Control_c, 0, 67, 80
1, 423935, Control_c, 0, 67, 79
1, 423936, Note_off_c, 0, 73, 42
1, 423950, Control_c, 0, 67, 78
1, 423951, Note_off_c, 0, 69, 40
1, 423972, Note_off_c, 0, 61, 36
1, 423980, Control_c, 0, 67, 77
1, 423982, Note_off_c, 0, 64, 37
1, 423994, Control_c, 0, 67, 77
1, 424012, Note_off_c, 0, 76, 58
1, 424024, Control_c, 0, 67, 76
1, 424039, Control_c, 0, 67, 76
1, 424053, Control_c, 0, 67, 75
1, 424068, Control_c, 0, 67, 74
1, 424095, Note_on_c, 0, 76, 60
1, 424099, Control_c, 0, 67, 74
1, 424114, Control_c, 0, 67, 73
1, 424145, Note_on_c, 0, 61, 24
1, 424153, Note_on_c, 0, 64, 20
1, 424153, Note_on_c, 0, 69, 32
1, 424158, Control_c, 0, 67, 73
1, 424162, Note_on_c, 0, 73, 26
1, 424181, Control_c, 0, 67, 72
1, 424196, Control_c, 0, 67, 72
1, 424211, Control_c, 0, 67, 71
1, 424240, Control_c, 0, 67, 72
1, 424255, Control_c, 0, 67, 72
1, 424305, Note_off_c, 0, 73, 42
1, 424330, Control_c, 0, 67, 73
1, 424336, Note_off_c, 0, 61, 36
1, 424336, Note_off_c, 0, 64, 38
1, 424347, Note_off_c, 0, 69, 39
1, 424359, Control_c, 0, 67, 73
1, 424448, Control_c, 0, 67, 73
1, 424463, Control_c, 0, 67, 72
1, 424492, Control_c, 0, 67, 72
1, 424510, Note_on_c, 0, 80, 65
1, 424522, Control_c, 0, 67, 71
1, 424537, Control_c, 0, 67, 71
1, 424540, Note_on_c, 0, 69, 29
1, 424546, Note_on_c, 0, 73, 33
1, 424562, Note_on_c, 0, 61, 17
1, 424566, Control_c, 0, 67, 70
1, 424570, Note_on_c, 0, 64, 32
1, 424581, Control_c, 0, 67, 70
1, 424596, Control_c, 0, 67, 69
1, 424611, Control_c, 0, 67, 65
1, 424626, Control_c, 0, 67, 60
1, 424641, Control_c, 0, 67, 54
1, 424656, Control_c, 0, 67, 50
1, 424670, Control_c, 0, 67, 48
1, 424685, Control_c, 0, 67, 45
1, 424688, Note_off_c, 0, 73, 44
1, 424700, Control_c, 0, 67, 41
1, 424712, Note_off_c, 0, 69, 43
1, 424713, Note_off_c, 0, 76, 39
1, 424715, Note_off_c, 0, 61, 37
1, 424715, Control_c, 0, 67, 37
1, 424722, Note_off_c, 0, 64, 41
1, 424730, Control_c, 0, 67, 33
1, 424744, Control_c, 0, 67, 29
1, 424759, Control_c, 0, 67, 25
1, 424774, Control_c, 0, 67, 23
1, 424789, Control_c, 0, 67, 21
1, 424803, Control_c, 0, 67, 20
1, 424818, Control_c, 0, 67, 19
1, 424833, Control_c, 0, 67, 18
1, 424848, Control_c, 0, 67, 17
1, 424880, Note_on_c, 0, 81, 72
1, 424907, Note_on_c, 0, 73, 36
1, 424908, Control_c, 0, 67, 18
1, 424927, Note_on_c, 0, 64, 26
1, 424930, Control_c, 0, 67, 19
1, 424933, Note_on_c, 0, 69, 26
1, 424945, Control_c, 0, 67, 20
1, 424960, Control_c, 0, 67, 21
1, 424989, Control_c, 0, 67, 21
1, 425001, Note_off_c, 0, 80, 63
1, 425043, Note_off_c, 0, 73, 42
1, 425082, Note_off_c, 0, 64, 41
1, 425103, Note_off_c, 0, 69, 23
1, 425168, Control_c, 0, 67, 22
1, 425182, Control_c, 0, 67, 23
1, 425197, Control_c, 0, 67, 24
1, 425212, Control_c, 0, 67, 26
1, 425226, Control_c, 0, 67, 27
1, 425241, Control_c, 0, 67, 27
1, 425315, Control_c, 0, 67, 28
1, 425330, Control_c, 0, 67, 28
1, 425345, Control_c, 0, 67, 29
1, 425385, Note_on_c, 0, 83, 59
1, 425446, Note_on_c, 0, 67, 32
1, 425451, Note_on_c, 0, 73, 22
1, 425460, Note_on_c, 0, 69, 27
1, 425466, Note_on_c, 0, 64, 25
1, 425477, Note_on_c, 0, 61, 19
1, 425478, Control_c, 0, 67, 29
1, 425523, Control_c, 0, 67, 30
1, 425538, Control_c, 0, 64, 107
1, 425538, Control_c, 0, 67, 31
1, 425553, Control_c, 0, 64, 83
1, 425553, Control_c, 0, 67, 33
1, 425567, Control_c, 0, 64, 70
1, 425567, Control_c, 0, 67, 34
1, 425582, Control_c, 0, 64, 61
1, 425582, Control_c, 0, 67, 34
1, 425586, Note_off_c, 0, 81, 61
1, 425597, Control_c, 0, 64, 49
1, 425597, Control_c, 0, 67, 36
1, 425612, Control_c, 0, 64, 53
1, 425612, Control_c, 0, 67, 38
1, 425626, Control_c, 0, 64, 64
1, 425626, Control_c, 0, 67, 40
1, 425641, Control_c, 0, 64, 71
1, 425641, Control_c, 0, 67, 42
1, 425656, Control_c, 0, 64, 82
1, 425656, Control_c, 0, 67, 45
1, 425678, Control_c, 0, 64, 96
1, 425678, Control_c, 0, 67, 47
1, 425693, Control_c, 0, 64, 127
1, 425693, Control_c, 0, 67, 50
1, 425709, Control_c, 0, 67, 54
1, 425723, Control_c, 0, 67, 57
1, 425738, Control_c, 0, 67, 62
1, 425753, Control_c, 0, 67, 66
1, 425768, Control_c, 0, 67, 69
1, 425783, Control_c, 0, 67, 71
1, 425797, Control_c, 0, 67, 73
1, 425812, Control_c, 0, 67, 76
1, 425827, Control_c, 0, 67, 79
1, 425842, Control_c, 0, 67, 82
1, 425857, Note_off_c, 0, 73, 41
1, 425857, Control_c, 0, 67, 85
1, 425872, Control_c, 0, 67, 88
1, 425872, Note_off_c, 0, 61, 35
1, 425880, Note_off_c, 0, 69, 39
1, 425885, Note_off_c, 0, 67, 40
1, 425887, Control_c, 0, 67, 92
1, 425902, Control_c, 0, 67, 96
1, 425903, Note_off_c, 0, 64, 39
1, 425917, Control_c, 0, 67, 103
1, 425931, Control_c, 0, 67, 110
1, 425946, Control_c, 0, 67, 118
1, 425961, Control_c, 0, 67, 123
1, 425976, Control_c, 0, 67, 127
1, 426075, Note_on_c, 0, 73, 34
1, 426090, Note_on_c, 0, 64, 13
1, 426098, Note_on_c, 0, 67, 23
1, 426101, Note_on_c, 0, 69, 15
1, 426121, Note_on_c, 0, 61, 6
1, 426235, Note_off_c, 0, 73, 42
1, 426260, Note_off_c, 0, 61, 25
1, 426266, Note_off_c, 0, 67, 36
1, 426273, Note_on_c, 0, 81, 49
1, 426282, Note_off_c, 0, 69, 39
1, 426310, Note_off_c, 0, 64, 37
1, 426526, Note_on_c, 0, 76, 44
1, 426557, Note_on_c, 0, 73, 18
1, 426568, Note_on_c, 0, 64, 12
1, 426580, Note_on_c, 0, 67, 22
1, 426581, Note_on_c, 0, 61, 4
1, 426591, Note_on_c, 0, 69, 19
1, 426742, Note_off_c, 0, 73, 42
1, 426782, Note_off_c, 0, 61, 38
1, 426790, Note_off_c, 0, 67, 36
1, 426790, Note_off_c, 0, 69, 39
1, 426812, Note_off_c, 0, 64, 39
1, 427039, Note_on_c, 0, 73, 31
1, 427073, Note_on_c, 0, 64, 22
1, 427091, Note_on_c, 0, 69, 18
1, 427102, Note_on_c, 0, 67, 7
1, 427103, Note_on_c, 0, 61, 6
1, 427192, Note_off_c, 0, 76, 35
1, 427240, Note_off_c, 0, 73, 43
1, 427261, Note_off_c, 0, 67, 38
1, 427266, Note_off_c, 0, 61, 38
1, 427273, Note_off_c, 0, 69, 41
1, 427299, Note_off_c, 0, 64, 41
1, 427418, Note_on_c, 0, 76, 61
1, 427433, Note_off_c, 0, 83, 39
1, 427435, Note_on_c, 0, 64, 33
1, 427440, Note_on_c, 0, 73, 38
1, 427458, Note_on_c, 0, 69, 22
1, 427461, Note_on_c, 0, 61, 30
1, 427479, Note_on_c, 0, 67, 25
1, 427581, Note_off_c, 0, 67, 30
1, 427586, Note_off_c, 0, 64, 44
1, 427601, Note_off_c, 0, 73, 44
1, 427624, Note_off_c, 0, 69, 39
1, 427666, Note_off_c, 0, 61, 30
1, 427772, Note_on_c, 0, 77, 72
1, 427789, Note_on_c, 0, 61, 4
1, 427794, Note_on_c, 0, 73, 40
1, 427808, Note_on_c, 0, 69, 25
1, 427811, Note_on_c, 0, 65, 29
1, 427850, Note_off_c, 0, 69, 50
1, 427850, Note_off_c, 0, 73, 45
1, 427853, Note_off_c, 0, 65, 52
1, 427900, Note_off_c, 0, 61, 38
1, 427902, Note_off_c, 0, 81, 63
1, 427956, Note_off_c, 0, 76, 59
1, 428249, Note_on_c, 0, 80, 62
1, 428297, Note_on_c, 0, 50, 38
1, 428340, Control_c, 0, 64, 99
1, 428355, Control_c, 0, 64, 77
1, 428370, Control_c, 0, 64, 63
1, 428385, Control_c, 0, 64, 32
1, 428415, Control_c, 0, 64, 49
1, 428429, Control_c, 0, 64, 62
1, 428431, Note_off_c, 0, 77, 59
1, 428444, Control_c, 0, 64, 70
1, 428459, Control_c, 0, 64, 83
1, 428474, Control_c, 0, 64, 108
1, 428486, Note_off_c, 0, 50, 57
1, 428489, Control_c, 0, 64, 127
1, 428861, Note_on_c, 0, 69, 31
1, 428866, Note_on_c, 0, 59, 33
1, 428881, Note_on_c, 0, 66, 35
1, 429043, Note_off_c, 0, 59, 40
1, 429043, Note_off_c, 0, 66, 41
1, 429057, Note_off_c, 0, 69, 40
1, 429395, Note_on_c, 0, 78, 50
1, 429422, Note_on_c, 0, 59, 31
1, 429462, Note_on_c, 0, 69, 25
1, 429464, Note_on_c, 0, 66, 26
1, 429595, Note_off_c, 0, 59, 36
1, 429608, Note_off_c, 0, 66, 42
1, 429619, Note_off_c, 0, 69, 39
1, 429682, Note_off_c, 0, 80, 48
1, 429786, Note_on_c, 0, 73, 51
1, 429816, Note_on_c, 0, 69, 24
1, 429821, Note_on_c, 0, 66, 31
1, 429822, Note_on_c, 0, 59, 18
1, 429882, Note_off_c, 0, 66, 55
1, 429887, Note_off_c, 0, 69, 53
1, 429905, Note_off_c, 0, 59, 40
1, 429926, Note_off_c, 0, 78, 63
1, 430224, Note_on_c, 0, 76, 53
1, 430245, Control_c, 0, 64, 112
1, 430260, Control_c, 0, 64, 83
1, 430274, Control_c, 0, 64, 66
1, 430288, Control_c, 0, 64, 61
1, 430303, Control_c, 0, 64, 64
1, 430307, Note_on_c, 0, 47, 33
1, 430318, Control_c, 0, 64, 68
1, 430333, Control_c, 0, 64, 74
1, 430348, Control_c, 0, 64, 83
1, 430362, Control_c, 0, 64, 100
1, 430377, Control_c, 0, 64, 127
1, 430431, Note_off_c, 0, 73, 39
1, 430450, Note_off_c, 0, 47, 44
1, 430591, Note_on_c, 0, 74, 55
1, 430730, Note_on_c, 0, 69, 35
1, 430743, Note_on_c, 0, 62, 27
1, 430838, Note_off_c, 0, 69, 51
1, 430841, Note_on_c, 0, 73, 67
1, 430841, Note_off_c, 0, 62, 37
1, 430915, Note_off_c, 0, 76, 25
1, 430951, Note_off_c, 0, 74, 60
1, 431050, Note_off_c, 0, 73, 62
1, 431127, Note_on_c, 0, 73, 52
1, 431171, Control_c, 0, 64, 120
1, 431181, Note_on_c, 0, 52, 30
1, 431186, Control_c, 0, 64, 84
1, 431201, Control_c, 0, 64, 67
1, 431216, Control_c, 0, 64, 64
1, 431231, Control_c, 0, 64, 67
1, 431245, Control_c, 0, 64, 72
1, 431260, Control_c, 0, 64, 81
1, 431275, Control_c, 0, 64, 95
1, 431291, Control_c, 0, 64, 127
1, 431367, Note_off_c, 0, 52, 40
1, 431743, Note_on_c, 0, 69, 30
1, 431760, Note_on_c, 0, 62, 16
1, 431924, Note_off_c, 0, 62, 39
1, 431979, Note_off_c, 0, 69, 39
1, 432235, Note_on_c, 0, 71, 44
1, 432284, Note_on_c, 0, 62, 16
1, 432288, Note_on_c, 0, 68, 24
1, 432351, Control_c, 0, 64, 103
1, 432365, Control_c, 0, 64, 80
1, 432380, Control_c, 0, 64, 66
1, 432395, Control_c, 0, 64, 64
1, 432417, Control_c, 0, 64, 66
1, 432432, Control_c, 0, 64, 69
1, 432447, Control_c, 0, 64, 74
1, 432452, Note_off_c, 0, 73, 49
1, 432462, Control_c, 0, 64, 82
1, 432477, Control_c, 0, 64, 94
1, 432491, Control_c, 0, 64, 113
1, 432506, Control_c, 0, 64, 127
1, 432543, Note_off_c, 0, 62, 39
1, 432573, Note_off_c, 0, 68, 43
1, 432727, Note_on_c, 0, 62, 25
1, 432729, Note_on_c, 0, 66, 37
1, 432773, Control_c, 0, 67, 126
1, 432787, Control_c, 0, 67, 124
1, 432802, Control_c, 0, 67, 123
1, 432817, Control_c, 0, 67, 121
1, 432819, Note_off_c, 0, 66, 47
1, 432832, Control_c, 0, 67, 120
1, 432847, Control_c, 0, 67, 118
1, 432859, Note_off_c, 0, 62, 41
1, 432862, Control_c, 0, 67, 115
1, 432877, Control_c, 0, 67, 113
1, 432892, Control_c, 0, 67, 110
1, 432907, Control_c, 0, 67, 107
1, 432922, Control_c, 0, 67, 103
1, 432937, Control_c, 0, 67, 100
1, 432951, Control_c, 0, 67, 96
1, 432966, Control_c, 0, 67, 93
1, 432981, Control_c, 0, 67, 89
1, 432996, Control_c, 0, 67, 86
1, 433011, Control_c, 0, 67, 83
1, 433026, Control_c, 0, 67, 80
1, 433040, Control_c, 0, 67, 78
1, 433055, Control_c, 0, 67, 75
1, 433070, Control_c, 0, 67, 73
1, 433085, Control_c, 0, 67, 70
1, 433100, Control_c, 0, 67, 67
1, 433106, Note_off_c, 0, 71, 52
1, 433114, Control_c, 0, 67, 63
1, 433129, Control_c, 0, 67, 59
1, 433144, Control_c, 0, 67, 54
1, 433166, Control_c, 0, 67, 50
1, 433181, Control_c, 0, 67, 47
1, 433196, Control_c, 0, 67, 44
1, 433211, Control_c, 0, 67, 40
1, 433226, Control_c, 0, 67, 36
1, 433240, Control_c, 0, 67, 33
1, 433255, Control_c, 0, 67, 31
1, 433270, Control_c, 0, 67, 30
1, 433285, Control_c, 0, 67, 29
1, 433314, Control_c, 0, 67, 28
1, 433378, Note_on_c, 0, 74, 74
1, 433388, Control_c, 0, 67, 29
1, 433403, Control_c, 0, 67, 30
1, 433418, Control_c, 0, 67, 31
1, 433426, Note_on_c, 0, 68, 38
1, 433433, Control_c, 0, 67, 32
1, 433434, Note_on_c, 0, 65, 35
1, 433435, Note_on_c, 0, 62, 36
1, 433443, Note_on_c, 0, 59, 32
1, 433447, Control_c, 0, 67, 32
1, 433462, Control_c, 0, 67, 33
1, 433477, Control_c, 0, 67, 33
1, 433492, Control_c, 0, 64, 111
1, 433492, Control_c, 0, 67, 34
1, 433507, Control_c, 0, 64, 82
1, 433521, Control_c, 0, 64, 63
1, 433536, Control_c, 0, 64, 0
1, 433595, Control_c, 0, 64, 63
1, 433610, Control_c, 0, 64, 75
1, 433625, Control_c, 0, 64, 93
1, 433640, Control_c, 0, 64, 127
1, 433655, Control_c, 0, 67, 34
1, 433670, Control_c, 0, 67, 36
1, 433685, Control_c, 0, 67, 36
1, 433700, Control_c, 0, 67, 37
1, 433728, Note_off_c, 0, 59, 35
1, 433729, Control_c, 0, 67, 37
1, 433735, Note_off_c, 0, 62, 41
1, 433760, Note_off_c, 0, 65, 37
1, 433774, Control_c, 0, 67, 38
1, 433804, Control_c, 0, 67, 38
1, 433819, Control_c, 0, 67, 39
1, 433834, Control_c, 0, 67, 39
1, 433849, Control_c, 0, 67, 40
1, 433863, Control_c, 0, 67, 40
1, 433878, Control_c, 0, 67, 41
1, 433892, Note_on_c, 0, 65, 46
1, 433893, Note_on_c, 0, 59, 33
1, 433893, Control_c, 0, 67, 41
1, 433894, Note_on_c, 0, 62, 36
1, 433915, Control_c, 0, 67, 42
1, 433959, Control_c, 0, 67, 42
1, 433974, Control_c, 0, 67, 43
1, 433989, Control_c, 0, 67, 44
1, 434004, Control_c, 0, 67, 45
1, 434019, Control_c, 0, 67, 46
1, 434019, Note_on_c, 0, 73, 80
1, 434034, Control_c, 0, 67, 48
1, 434036, Note_off_c, 0, 62, 32
1, 434047, Note_off_c, 0, 65, 32
1, 434048, Control_c, 0, 67, 48
1, 434054, Note_off_c, 0, 74, 63
1, 434063, Control_c, 0, 67, 49
1, 434070, Note_off_c, 0, 59, 40
1, 434078, Control_c, 0, 67, 50
1, 434093, Control_c, 0, 67, 51
1, 434108, Control_c, 0, 67, 51
1, 434123, Control_c, 0, 67, 52
1, 434206, Note_off_c, 0, 73, 61
1, 434215, Note_on_c, 0, 74, 77
1, 434226, Control_c, 0, 67, 52
1, 434230, Note_on_c, 0, 59, 41
1, 434241, Control_c, 0, 64, 105
1, 434253, Note_on_c, 0, 62, 41
1, 434256, Control_c, 0, 64, 80
1, 434256, Control_c, 0, 67, 53
1, 434259, Note_on_c, 0, 65, 37
1, 434270, Control_c, 0, 64, 62
1, 434285, Control_c, 0, 64, 0
1, 434344, Control_c, 0, 64, 47
1, 434359, Control_c, 0, 64, 66
1, 434374, Control_c, 0, 64, 75
1, 434388, Control_c, 0, 64, 86
1, 434388, Control_c, 0, 67, 53
1, 434403, Control_c, 0, 64, 97
1, 434403, Control_c, 0, 67, 54
1, 434418, Control_c, 0, 64, 102
1, 434418, Control_c, 0, 67, 56
1, 434433, Control_c, 0, 64, 106
1, 434433, Control_c, 0, 67, 58
1, 434448, Control_c, 0, 64, 110
1, 434448, Control_c, 0, 67, 59
1, 434463, Control_c, 0, 64, 114
1, 434463, Control_c, 0, 67, 60
1, 434473, Note_off_c, 0, 62, 48
1, 434478, Control_c, 0, 64, 120
1, 434478, Control_c, 0, 67, 62
1, 434493, Control_c, 0, 64, 127
1, 434493, Control_c, 0, 67, 64
1, 434496, Note_off_c, 0, 65, 42
1, 434500, Note_off_c, 0, 59, 37
1, 434508, Control_c, 0, 67, 65
1, 434523, Control_c, 0, 67, 66
1, 434538, Control_c, 0, 67, 67
1, 434552, Control_c, 0, 67, 68
1, 434567, Control_c, 0, 67, 69
1, 434582, Control_c, 0, 67, 72
1, 434597, Control_c, 0, 67, 74
1, 434612, Control_c, 0, 67, 76
1, 434627, Control_c, 0, 67, 77
1, 434642, Control_c, 0, 67, 79
1, 434664, Note_on_c, 0, 59, 30
1, 434664, Control_c, 0, 67, 81
1, 434674, Note_on_c, 0, 65, 22
1, 434676, Note_on_c, 0, 62, 30
1, 434679, Control_c, 0, 67, 82
1, 434693, Control_c, 0, 67, 85
1, 434708, Control_c, 0, 67, 88
1, 434723, Control_c, 0, 67, 92
1, 434738, Control_c, 0, 67, 95
1, 434753, Control_c, 0, 67, 98
1, 434767, Control_c, 0, 67, 102
1, 434782, Control_c, 0, 67, 106
1, 434797, Control_c, 0, 67, 110
1, 434812, Control_c, 0, 67, 115
1, 434814, Note_off_c, 0, 59, 41
1, 434826, Control_c, 0, 67, 120
1, 434832, Note_off_c, 0, 62, 36
1, 434839, Note_off_c, 0, 65, 41
1, 434841, Control_c, 0, 67, 125
1, 434856, Control_c, 0, 67, 127
1, 435028, Note_on_c, 0, 73, 54
1, 435034, Control_c, 0, 64, 117
1, 435044, Note_on_c, 0, 59, 30
1, 435049, Control_c, 0, 64, 101
1, 435059, Note_on_c, 0, 65, 32
1, 435059, Note_on_c, 0, 61, 37
1, 435064, Control_c, 0, 64, 81
1, 435078, Control_c, 0, 64, 64
1, 435093, Control_c, 0, 64, 0
1, 435104, Note_off_c, 0, 74, 56
1, 435182, Control_c, 0, 64, 11
1, 435197, Control_c, 0, 64, 64
1, 435211, Control_c, 0, 64, 71
1, 435226, Control_c, 0, 64, 80
1, 435241, Control_c, 0, 64, 96
1, 435256, Control_c, 0, 64, 118
1, 435271, Control_c, 0, 64, 127
1, 435306, Note_off_c, 0, 61, 43
1, 435306, Note_off_c, 0, 59, 40
1, 435318, Note_off_c, 0, 65, 41
1, 435339, Note_off_c, 0, 73, 64
1, 435542, Note_on_c, 0, 59, 42
1, 435561, Note_on_c, 0, 61, 39
1, 435606, Note_on_c, 0, 65, 20
1, 435708, Note_off_c, 0, 59, 29
1, 435744, Note_on_c, 0, 56, 45
1, 435783, Note_off_c, 0, 61, 35
1, 435792, Note_off_c, 0, 56, 56
1, 435813, Note_off_c, 0, 65, 34
1, 435949, Note_on_c, 0, 49, 48
1, 435959, Note_on_c, 0, 65, 21
1, 435973, Note_on_c, 0, 61, 23
1, 436025, Poly_aftertouch_c, 0, 59, 127
1, 436040, Note_off_c, 0, 49, 58
1, 436087, Poly_aftertouch_c, 0, 59, 0
1, 436138, Note_off_c, 0, 65, 40
1, 436140, Note_off_c, 0, 61, 39
1, 436174, Note_off_c, 0, 68, 41
1, 436304, Note_on_c, 0, 65, 32
1, 436306, Note_on_c, 0, 68, 40
1, 436318, Note_on_c, 0, 61, 12
1, 436382, Poly_aftertouch_c, 0, 59, 127
1, 436444, Poly_aftertouch_c, 0, 59, 0
1, 436457, Note_on_c, 0, 44, 37
1, 436487, Note_off_c, 0, 61, 38
1, 436506, Note_off_c, 0, 65, 37
1, 436511, Note_off_c, 0, 44, 45
1, 436598, Note_off_c, 0, 68, 0
1, 436636, Poly_aftertouch_c, 0, 68, 127
1, 436671, Note_on_c, 0, 37, 42
1, 436684, Note_on_c, 0, 65, 29
1, 436724, Note_on_c, 0, 61, 8
1, 436735, Note_on_c, 0, 59, 17
1, 436815, Note_off_c, 0, 59, 40
1, 436816, Note_off_c, 0, 37, 42
1, 436847, Note_off_c, 0, 61, 32
1, 436868, Note_off_c, 0, 65, 40
1, 437069, Note_on_c, 0, 65, 29
1, 437084, Note_on_c, 0, 59, 34
1, 437087, Note_on_c, 0, 61, 32
1, 437190, Note_off_c, 0, 59, 37
1, 437208, Note_off_c, 0, 61, 29
1, 437214, Note_off_c, 0, 65, 32
1, 437429, Note_on_c, 0, 65, 24
1, 437429, Note_on_c, 0, 59, 34
1, 437435, Note_on_c, 0, 61, 33
1, 437568, Note_off_c, 0, 59, 33
1, 437571, Note_off_c, 0, 65, 30
1, 437575, Note_off_c, 0, 61, 29
1, 437786, Note_on_c, 0, 61, 38
1, 437814, Note_on_c, 0, 59, 18
1, 437842, Poly_aftertouch_c, 0, 65, 127
1, 437872, Note_off_c, 0, 59, 43
1, 437897, Poly_aftertouch_c, 0, 65, 0
1, 437932, Poly_aftertouch_c, 0, 68, 0
1, 437962, Note_off_c, 0, 61, 38
1, 438016, Control_c, 0, 67, 126
1, 438030, Control_c, 0, 67, 124
1, 438045, Control_c, 0, 67, 122
1, 438060, Control_c, 0, 67, 120
1, 438075, Control_c, 0, 67, 119
1, 438090, Control_c, 0, 67, 117
1, 438104, Control_c, 0, 67, 116
1, 438119, Control_c, 0, 67, 114
1, 438134, Control_c, 0, 67, 113
1, 438149, Control_c, 0, 67, 111
1, 438163, Control_c, 0, 67, 110
1, 438165, Note_on_c, 0, 73, 55
1, 438178, Control_c, 0, 67, 109
1, 438193, Control_c, 0, 67, 107
1, 438197, Note_on_c, 0, 68, 34
1, 438208, Control_c, 0, 67, 106
1, 438210, Note_on_c, 0, 61, 27
1, 438223, Control_c, 0, 67, 104
1, 438230, Note_on_c, 0, 59, 23
1, 438237, Control_c, 0, 67, 102
1, 438244, Note_on_c, 0, 65, 15
1, 438252, Control_c, 0, 67, 101
1, 438254, Note_off_c, 0, 73, 52
1, 438267, Control_c, 0, 67, 99
1, 438282, Control_c, 0, 67, 96
1, 438297, Control_c, 0, 67, 93
1, 438311, Control_c, 0, 67, 90
1, 438326, Control_c, 0, 67, 86
1, 438341, Control_c, 0, 67, 82
1, 438356, Control_c, 0, 67, 78
1, 438371, Control_c, 0, 67, 74
1, 438386, Control_c, 0, 67, 70
1, 438408, Control_c, 0, 67, 65
1, 438414, Note_off_c, 0, 59, 36
1, 438423, Control_c, 0, 67, 62
1, 438437, Control_c, 0, 67, 59
1, 438448, Note_off_c, 0, 61, 38
1, 438451, Note_off_c, 0, 65, 37
1, 438452, Control_c, 0, 67, 57
1, 438467, Control_c, 0, 67, 54
1, 438483, Control_c, 0, 67, 52
1, 438498, Control_c, 0, 67, 50
1, 438512, Control_c, 0, 67, 48
1, 438526, Control_c, 0, 67, 45
1, 438541, Control_c, 0, 67, 44
1, 438556, Control_c, 0, 67, 42
1, 438571, Control_c, 0, 67, 40
1, 438585, Control_c, 0, 67, 38
1, 438600, Control_c, 0, 67, 37
1, 438615, Control_c, 0, 67, 36
1, 438630, Control_c, 0, 67, 35
1, 438645, Control_c, 0, 67, 34
1, 438660, Control_c, 0, 67, 33
1, 438675, Control_c, 0, 67, 33
1, 438683, Note_on_c, 0, 61, 34
1, 438689, Note_on_c, 0, 65, 29
1, 438690, Control_c, 0, 67, 32
1, 438695, Note_on_c, 0, 59, 28
1, 438793, Control_c, 0, 67, 33
1, 438808, Control_c, 0, 67, 34
1, 438817, Note_off_c, 0, 59, 34
1, 438823, Control_c, 0, 67, 34
1, 438838, Control_c, 0, 67, 35
1, 438842, Note_off_c, 0, 65, 47
1, 438852, Control_c, 0, 67, 37
1, 438860, Note_off_c, 0, 61, 41
1, 438867, Control_c, 0, 67, 38
1, 438872, Note_on_c, 0, 73, 73
1, 438882, Control_c, 0, 67, 38
1, 438891, Note_off_c, 0, 68, 38
1, 438897, Control_c, 0, 67, 39
1, 438912, Control_c, 0, 67, 40
1, 438926, Control_c, 0, 67, 40
1, 438941, Control_c, 0, 67, 41
1, 438956, Control_c, 0, 67, 41
1, 439000, Control_c, 0, 67, 42
1, 439030, Control_c, 0, 67, 42
1, 439045, Control_c, 0, 67, 43
1, 439079, Note_off_c, 0, 73, 63
1, 439175, Note_on_c, 0, 79, 69
1, 439229, Note_on_c, 0, 67, 34
1, 439231, Note_on_c, 0, 64, 35
1, 439232, Note_on_c, 0, 61, 34
1, 439235, Note_on_c, 0, 58, 32
1, 439259, Control_c, 0, 64, 102
1, 439275, Control_c, 0, 64, 81
1, 439290, Control_c, 0, 64, 65
1, 439305, Control_c, 0, 64, 0
1, 439349, Control_c, 0, 67, 44
1, 439364, Control_c, 0, 64, 35
1, 439364, Control_c, 0, 67, 44
1, 439379, Control_c, 0, 64, 59
1, 439379, Control_c, 0, 67, 45
1, 439394, Control_c, 0, 64, 65
1, 439394, Control_c, 0, 67, 48
1, 439408, Control_c, 0, 64, 71
1, 439408, Control_c, 0, 67, 51
1, 439423, Control_c, 0, 64, 76
1, 439423, Control_c, 0, 67, 54
1, 439438, Control_c, 0, 64, 82
1, 439438, Control_c, 0, 67, 57
1, 439453, Control_c, 0, 64, 86
1, 439453, Control_c, 0, 67, 61
1, 439468, Control_c, 0, 64, 91
1, 439468, Control_c, 0, 67, 66
1, 439483, Control_c, 0, 64, 98
1, 439483, Control_c, 0, 67, 70
1, 439498, Control_c, 0, 64, 108
1, 439498, Control_c, 0, 67, 76
1, 439512, Control_c, 0, 64, 127
1, 439512, Control_c, 0, 67, 81
1, 439527, Control_c, 0, 67, 84
1, 439542, Control_c, 0, 67, 87
1, 439557, Control_c, 0, 67, 89
1, 439572, Control_c, 0, 67, 91
1, 439587, Control_c, 0, 67, 93
1, 439601, Control_c, 0, 67, 94
1, 439616, Control_c, 0, 67, 95
1, 439631, Control_c, 0, 67, 96
1, 439637, Note_off_c, 0, 58, 40
1, 439638, Note_off_c, 0, 64, 39
1, 439640, Note_off_c, 0, 61, 39
1, 439646, Control_c, 0, 67, 97
1, 439661, Control_c, 0, 67, 97
1, 439675, Control_c, 0, 67, 98
1, 439690, Control_c, 0, 67, 100
1, 439705, Control_c, 0, 67, 101
1, 439719, Control_c, 0, 67, 104
1, 439734, Control_c, 0, 67, 106
1, 439749, Control_c, 0, 67, 109
1, 439764, Control_c, 0, 67, 111
1, 439779, Control_c, 0, 67, 114
1, 439793, Control_c, 0, 67, 116
1, 439808, Control_c, 0, 67, 118
1, 439823, Control_c, 0, 67, 121
1, 439838, Control_c, 0, 67, 124
1, 439853, Control_c, 0, 67, 126
1, 439867, Control_c, 0, 67, 127
1, 439918, Note_on_c, 0, 61, 28
1, 439940, Note_on_c, 0, 64, 25
1, 439944, Note_on_c, 0, 58, 17
1, 440085, Note_off_c, 0, 61, 39
1, 440112, Note_off_c, 0, 64, 40
1, 440115, Note_off_c, 0, 58, 38
1, 440368, Note_on_c, 0, 70, 41
1, 440394, Note_on_c, 0, 64, 22
1, 440396, Note_on_c, 0, 61, 22
1, 440424, Note_on_c, 0, 58, 24
1, 440449, Note_off_c, 0, 79, 35
1, 440508, Note_off_c, 0, 70, 60
1, 440548, Note_off_c, 0, 61, 40
1, 440573, Note_off_c, 0, 64, 41
1, 440575, Note_off_c, 0, 58, 43
1, 440763, Note_on_c, 0, 64, 30
1, 440773, Note_on_c, 0, 58, 26
1, 440779, Note_on_c, 0, 61, 32
1, 440892, Note_on_c, 0, 55, 48
1, 440911, Note_off_c, 0, 61, 32
1, 440939, Note_off_c, 0, 58, 38
1, 440949, Note_off_c, 0, 55, 53
1, 440985, Note_off_c, 0, 64, 36
1, 441057, Note_on_c, 0, 64, 23
1, 441071, Note_on_c, 0, 49, 49
1, 441076, Note_on_c, 0, 61, 25
1, 441092, Note_on_c, 0, 58, 28
1, 441116, Note_off_c, 0, 49, 56
1, 441205, Note_off_c, 0, 61, 38
1, 441246, Note_off_c, 0, 58, 42
1, 441251, Note_off_c, 0, 64, 37
1, 441445, Note_on_c, 0, 64, 32
1, 441447, Note_on_c, 0, 61, 25
1, 441454, Note_on_c, 0, 58, 23
1, 441562, Note_on_c, 0, 43, 40
1, 441571, Note_off_c, 0, 61, 34
1, 441600, Note_off_c, 0, 58, 34
1, 441615, Note_off_c, 0, 64, 36
1, 441708, Note_off_c, 0, 43, 33
1, 441778, Note_on_c, 0, 37, 42
1, 441805, Note_on_c, 0, 58, 25
1, 441808, Note_on_c, 0, 64, 15
1, 441816, Note_on_c, 0, 61, 19
1, 441840, Note_off_c, 0, 37, 46
1, 441970, Note_off_c, 0, 61, 40
1, 441988, Note_off_c, 0, 64, 40
1, 441997, Note_off_c, 0, 58, 41
1, 442240, Note_on_c, 0, 64, 27
1, 442242, Note_on_c, 0, 61, 19
1, 442255, Note_on_c, 0, 58, 21
1, 442374, Note_off_c, 0, 61, 42
1, 442392, Note_off_c, 0, 64, 40
1, 442394, Note_off_c, 0, 58, 40
1, 442587, Note_on_c, 0, 64, 29
1, 442598, Note_on_c, 0, 61, 32
1, 442601, Note_on_c, 0, 58, 26
1, 442743, Note_off_c, 0, 61, 41
1, 442782, Note_off_c, 0, 64, 39
1, 442797, Note_off_c, 0, 58, 39
1, 442960, Note_on_c, 0, 58, 27
1, 442974, Note_on_c, 0, 64, 22
1, 442979, Note_on_c, 0, 61, 31
1, 443023, Note_off_c, 0, 67, 41
1, 443027, Note_off_c, 0, 64, 48
1, 443034, Note_off_c, 0, 61, 45
1, 443076, Note_off_c, 0, 58, 38
1, 443332, Note_on_c, 0, 37, 38
1, 443467, Note_on_c, 0, 81, 65
1, 443493, Control_c, 0, 64, 89
1, 443507, Note_on_c, 0, 69, 35
1, 443508, Control_c, 0, 64, 71
1, 443522, Control_c, 0, 64, 63
1, 443537, Control_c, 0, 64, 64
1, 443544, Note_on_c, 0, 52, 40
1, 443552, Control_c, 0, 64, 68
1, 443566, Control_c, 0, 64, 77
1, 443581, Control_c, 0, 64, 93
1, 443593, Note_off_c, 0, 37, 43
1, 443596, Control_c, 0, 64, 127
1, 443684, Note_off_c, 0, 52, 60
1, 444025, Note_on_c, 0, 57, 24
1, 444031, Note_on_c, 0, 67, 36
1, 444041, Note_on_c, 0, 64, 34
1, 444100, Note_off_c, 0, 64, 58
1, 444106, Note_off_c, 0, 67, 57
1, 444126, Note_off_c, 0, 57, 51
1, 444167, Note_off_c, 0, 69, 40
1, 444195, Note_off_c, 0, 81, 51
1, 444390, Note_on_c, 0, 81, 70
1, 444421, Note_on_c, 0, 69, 37
1, 444482, Note_on_c, 0, 38, 42
1, 444529, Note_off_c, 0, 69, 35
1, 444535, Note_off_c, 0, 81, 56
1, 444640, Note_on_c, 0, 81, 71
1, 444668, Note_on_c, 0, 69, 34
1, 444678, Control_c, 0, 64, 92
1, 444679, Note_off_c, 0, 38, 0
1, 444693, Control_c, 0, 64, 70
1, 444708, Control_c, 0, 64, 53
1, 444716, Poly_aftertouch_c, 0, 38, 127
1, 444720, Note_on_c, 0, 54, 41
1, 444723, Control_c, 0, 64, 56
1, 444738, Control_c, 0, 64, 64
1, 444753, Control_c, 0, 64, 71
1, 444768, Control_c, 0, 64, 83
1, 444783, Control_c, 0, 64, 118
1, 444797, Control_c, 0, 64, 127
1, 444835, Poly_aftertouch_c, 0, 38, 0
1, 444884, Note_off_c, 0, 69, 48
1, 444893, Note_off_c, 0, 54, 64
1, 445171, Note_on_c, 0, 66, 38
1, 445175, Note_on_c, 0, 57, 37
1, 445209, Note_on_c, 0, 62, 27
1, 445235, Control_c, 0, 67, 123
1, 445250, Control_c, 0, 67, 118
1, 445265, Control_c, 0, 67, 111
1, 445280, Control_c, 0, 67, 101
1, 445294, Control_c, 0, 67, 93
1, 445309, Control_c, 0, 67, 88
1, 445313, Note_off_c, 0, 66, 35
1, 445324, Note_off_c, 0, 57, 33
1, 445324, Control_c, 0, 67, 85
1, 445338, Control_c, 0, 67, 84
1, 445346, Note_off_c, 0, 62, 33
1, 445353, Control_c, 0, 67, 81
1, 445368, Control_c, 0, 67, 78
1, 445383, Control_c, 0, 67, 75
1, 445398, Control_c, 0, 67, 72
1, 445412, Control_c, 0, 67, 68
1, 445427, Control_c, 0, 67, 65
1, 445442, Control_c, 0, 67, 61
1, 445457, Control_c, 0, 67, 58
1, 445472, Control_c, 0, 67, 56
1, 445486, Control_c, 0, 67, 55
1, 445501, Control_c, 0, 67, 54
1, 445516, Control_c, 0, 67, 53
1, 445531, Control_c, 0, 67, 52
1, 445546, Note_on_c, 0, 90, 69
1, 445561, Control_c, 0, 67, 52
1, 445576, Note_on_c, 0, 57, 27
1, 445593, Note_on_c, 0, 66, 27
1, 445617, Note_on_c, 0, 62, 26
1, 445632, Note_on_c, 0, 78, 19
1, 445658, Note_off_c, 0, 90, 65
1, 445728, Note_off_c, 0, 57, 57
1, 445737, Note_off_c, 0, 81, 59
1, 445738, Note_off_c, 0, 66, 41
1, 445748, Note_off_c, 0, 78, 56
1, 445754, Control_c, 0, 67, 53
1, 445769, Control_c, 0, 67, 54
1, 445784, Control_c, 0, 67, 55
1, 445799, Control_c, 0, 67, 56
1, 445814, Control_c, 0, 67, 56
1, 445829, Control_c, 0, 67, 57
1, 445843, Control_c, 0, 67, 57
1, 445851, Note_on_c, 0, 66, 46
1, 445858, Control_c, 0, 67, 58
1, 445872, Note_on_c, 0, 58, 47
1, 445873, Control_c, 0, 67, 58
1, 445881, Note_off_c, 0, 66, 63
1, 445895, Control_c, 0, 67, 59
1, 445909, Control_c, 0, 67, 60
1, 445924, Note_off_c, 0, 58, 61
1, 445924, Control_c, 0, 67, 60
1, 445938, Note_off_c, 0, 62, 39
1, 445939, Control_c, 0, 67, 61
1, 445954, Control_c, 0, 67, 62
1, 445960, Note_on_c, 0, 82, 75
1, 445969, Control_c, 0, 67, 63
1, 445984, Control_c, 0, 67, 65
1, 445999, Control_c, 0, 67, 67
1, 446004, Note_on_c, 0, 70, 36
1, 446014, Control_c, 0, 67, 69
1, 446029, Control_c, 0, 67, 72
1, 446043, Control_c, 0, 67, 76
1, 446058, Control_c, 0, 67, 79
1, 446073, Control_c, 0, 67, 82
1, 446076, Note_off_c, 0, 70, 47
1, 446087, Control_c, 0, 67, 85
1, 446102, Control_c, 0, 67, 87
1, 446117, Control_c, 0, 67, 89
1, 446132, Control_c, 0, 67, 89
1, 446147, Control_c, 0, 67, 90
1, 446151, Note_on_c, 0, 38, 49
1, 446161, Control_c, 0, 67, 90
1, 446206, Control_c, 0, 67, 90
1, 446250, Control_c, 0, 67, 89
1, 446280, Control_c, 0, 67, 89
1, 446303, Note_on_c, 0, 83, 77
1, 446309, Control_c, 0, 64, 88
1, 446324, Control_c, 0, 64, 67
1, 446339, Control_c, 0, 64, 35
1, 446342, Note_off_c, 0, 82, 61
1, 446353, Note_on_c, 0, 54, 40
1, 446354, Control_c, 0, 64, 53
1, 446354, Control_c, 0, 67, 88
1, 446360, Note_on_c, 0, 71, 40
1, 446368, Control_c, 0, 64, 67
1, 446368, Control_c, 0, 67, 88
1, 446383, Control_c, 0, 64, 75
1, 446383, Control_c, 0, 67, 87
1, 446398, Control_c, 0, 64, 85
1, 446398, Control_c, 0, 67, 86
1, 446413, Control_c, 0, 64, 105
1, 446413, Control_c, 0, 67, 85
1, 446428, Control_c, 0, 64, 127
1, 446428, Control_c, 0, 67, 84
1, 446442, Note_off_c, 0, 38, 40
1, 446443, Control_c, 0, 67, 84
1, 446458, Control_c, 0, 67, 83
1, 446473, Control_c, 0, 67, 82
1, 446488, Control_c, 0, 67, 81
1, 446497, Note_off_c, 0, 54, 64
1, 446503, Control_c, 0, 67, 81
1, 446518, Control_c, 0, 67, 80
1, 446533, Control_c, 0, 67, 80
1, 446547, Control_c, 0, 67, 79
1, 446562, Control_c, 0, 67, 79
1, 446577, Control_c, 0, 67, 78
1, 446592, Control_c, 0, 67, 78
1, 446607, Control_c, 0, 67, 77
1, 446622, Control_c, 0, 67, 77
1, 446659, Control_c, 0, 67, 76
1, 446673, Control_c, 0, 67, 76
1, 446688, Control_c, 0, 67, 75
1, 446703, Control_c, 0, 67, 72
1, 446717, Control_c, 0, 67, 69
1, 446732, Control_c, 0, 67, 66
1, 446748, Control_c, 0, 67, 63
1, 446752, Note_on_c, 0, 66, 37
1, 446762, Note_on_c, 0, 62, 34
1, 446763, Note_on_c, 0, 59, 37
1, 446763, Control_c, 0, 67, 60
1, 446778, Control_c, 0, 67, 58
1, 446792, Control_c, 0, 67, 55
1, 446796, Note_off_c, 0, 66, 55
1, 446807, Note_off_c, 0, 71, 38
1, 446807, Control_c, 0, 67, 53
1, 446810, Note_off_c, 0, 62, 57
1, 446814, Note_off_c, 0, 59, 56
1, 446816, Note_off_c, 0, 83, 62
1, 446822, Control_c, 0, 67, 50
1, 446837, Control_c, 0, 67, 48
1, 446852, Control_c, 0, 67, 46
1, 446866, Control_c, 0, 67, 44
1, 446881, Control_c, 0, 67, 43
1, 446985, Control_c, 0, 67, 44
1, 447000, Control_c, 0, 67, 45
1, 447015, Control_c, 0, 67, 46
1, 447030, Control_c, 0, 67, 47
1, 447042, Note_on_c, 0, 83, 79
1, 447045, Control_c, 0, 67, 48
1, 447059, Control_c, 0, 67, 48
1, 447063, Note_on_c, 0, 71, 52
1, 447074, Control_c, 0, 67, 49
1, 447087, Note_off_c, 0, 71, 64
1, 447089, Control_c, 0, 67, 49
1, 447104, Control_c, 0, 67, 50
1, 447118, Control_c, 0, 67, 50
1, 447133, Control_c, 0, 67, 52
1, 447146, Note_off_c, 0, 83, 65
1, 447148, Control_c, 0, 67, 52
1, 447163, Control_c, 0, 67, 53
1, 447192, Control_c, 0, 67, 53
1, 447222, Control_c, 0, 67, 54
1, 447237, Control_c, 0, 67, 54
1, 447252, Control_c, 0, 67, 55
1, 447268, Control_c, 0, 67, 56
1, 447283, Control_c, 0, 67, 57
1, 447356, Control_c, 0, 67, 57
1, 447364, Note_on_c, 0, 93, 70
1, 447394, Control_c, 0, 67, 58
1, 447423, Control_c, 0, 67, 58
1, 447449, Note_on_c, 0, 81, 32
1, 447457, Note_on_c, 0, 38, 36
1, 447465, Note_on_c, 0, 53, 36
1, 447468, Control_c, 0, 67, 59
1, 447483, Control_c, 0, 67, 59
1, 447527, Control_c, 0, 64, 82
1, 447527, Control_c, 0, 67, 60
1, 447541, Control_c, 0, 64, 64
1, 447541, Control_c, 0, 67, 61
1, 447556, Control_c, 0, 64, 49
1, 447556, Control_c, 0, 67, 63
1, 447571, Control_c, 0, 64, 57
1, 447571, Control_c, 0, 67, 64
1, 447586, Control_c, 0, 64, 66
1, 447601, Control_c, 0, 64, 74
1, 447601, Control_c, 0, 67, 64
1, 447615, Control_c, 0, 64, 90
1, 447630, Control_c, 0, 64, 119
1, 447645, Control_c, 0, 64, 127
1, 447645, Control_c, 0, 67, 65
1, 447716, Note_off_c, 0, 38, 41
1, 447749, Control_c, 0, 67, 65
1, 447778, Control_c, 0, 67, 66
1, 447793, Control_c, 0, 67, 66
1, 447808, Control_c, 0, 67, 69
1, 447819, Note_off_c, 0, 53, 50
1, 447823, Control_c, 0, 67, 72
1, 447838, Control_c, 0, 67, 74
1, 447853, Control_c, 0, 67, 77
1, 447867, Control_c, 0, 67, 80
1, 447882, Control_c, 0, 67, 85
1, 447897, Control_c, 0, 67, 88
1, 447912, Control_c, 0, 67, 92
1, 447927, Control_c, 0, 67, 96
1, 447941, Control_c, 0, 67, 99
1, 447956, Control_c, 0, 67, 102
1, 447971, Control_c, 0, 67, 106
1, 447986, Control_c, 0, 67, 109
1, 448001, Control_c, 0, 67, 111
1, 448015, Control_c, 0, 67, 113
1, 448030, Control_c, 0, 67, 114
1, 448045, Control_c, 0, 67, 115
1, 448061, Control_c, 0, 67, 115
1, 448076, Control_c, 0, 67, 116
1, 448091, Control_c, 0, 67, 116
1, 448103, Note_on_c, 0, 65, 33
1, 448120, Control_c, 0, 67, 117
1, 448121, Note_on_c, 0, 59, 29
1, 448121, Note_on_c, 0, 62, 25
1, 448142, Control_c, 0, 67, 117
1, 448157, Control_c, 0, 67, 118
1, 448172, Control_c, 0, 67, 118
1, 448187, Control_c, 0, 67, 120
1, 448202, Control_c, 0, 67, 122
1, 448217, Control_c, 0, 67, 123
1, 448232, Control_c, 0, 67, 125
1, 448246, Control_c, 0, 67, 127
1, 448301, Note_off_c, 0, 65, 39
1, 448317, Note_off_c, 0, 59, 38
1, 448319, Note_off_c, 0, 62, 38
1, 448428, Note_off_c, 0, 81, 43
1, 448512, Note_on_c, 0, 59, 29
1, 448513, Note_on_c, 0, 62, 27
1, 448519, Note_on_c, 0, 65, 30
1, 448606, Note_off_c, 0, 65, 48
1, 448638, Note_off_c, 0, 59, 35
1, 448673, Note_off_c, 0, 62, 39
1, 448828, Note_on_c, 0, 52, 44
1, 448937, Note_off_c, 0, 52, 45
1, 448941, Note_on_c, 0, 92, 67
1, 448962, Note_on_c, 0, 80, 41
1, 449059, Note_off_c, 0, 93, 60
1, 449072, Note_off_c, 0, 80, 50
1, 449192, Note_on_c, 0, 37, 42
1, 449305, Control_c, 0, 64, 124
1, 449320, Control_c, 0, 64, 83
1, 449321, Note_on_c, 0, 93, 79
1, 449334, Control_c, 0, 64, 67
1, 449349, Control_c, 0, 64, 63
1, 449364, Control_c, 0, 64, 66
1, 449366, Note_on_c, 0, 81, 46
1, 449367, Note_off_c, 0, 92, 66
1, 449379, Control_c, 0, 64, 73
1, 449386, Note_on_c, 0, 52, 49
1, 449394, Control_c, 0, 64, 84
1, 449409, Control_c, 0, 64, 127
1, 449412, Note_off_c, 0, 37, 49
1, 449453, Note_off_c, 0, 81, 56
1, 449476, Note_off_c, 0, 52, 62
1, 449654, Note_on_c, 0, 53, 67
1, 449686, Note_on_c, 0, 89, 78
1, 449709, Note_off_c, 0, 53, 63
1, 449823, Note_off_c, 0, 93, 38
1, 449907, Note_on_c, 0, 38, 39
1, 450089, Note_on_c, 0, 92, 80
1, 450143, Note_on_c, 0, 80, 38
1, 450148, Note_on_c, 0, 54, 50
1, 450173, Control_c, 0, 64, 109
1, 450188, Control_c, 0, 64, 77
1, 450199, Note_off_c, 0, 89, 56
1, 450203, Control_c, 0, 64, 35
1, 450217, Control_c, 0, 64, 0
1, 450247, Control_c, 0, 64, 61
1, 450262, Control_c, 0, 64, 71
1, 450276, Control_c, 0, 64, 92
1, 450291, Control_c, 0, 64, 127
1, 450329, Note_off_c, 0, 38, 42
1, 450405, Note_off_c, 0, 54, 64
1, 450560, Note_on_c, 0, 59, 50
1, 450567, Note_on_c, 0, 62, 40
1, 450700, Control_c, 0, 67, 127
1, 450715, Control_c, 0, 67, 123
1, 450730, Control_c, 0, 67, 119
1, 450739, Note_off_c, 0, 59, 37
1, 450740, Note_off_c, 0, 62, 37
1, 450744, Control_c, 0, 67, 115
1, 450759, Control_c, 0, 67, 110
1, 450774, Control_c, 0, 67, 104
1, 450789, Control_c, 0, 67, 97
1, 450792, Note_off_c, 0, 80, 42
1, 450804, Control_c, 0, 67, 89
1, 450819, Control_c, 0, 67, 81
1, 450833, Control_c, 0, 67, 75
1, 450848, Control_c, 0, 67, 69
1, 450863, Control_c, 0, 67, 65
1, 450865, Note_on_c, 0, 59, 44
1, 450877, Control_c, 0, 67, 62
1, 450879, Note_on_c, 0, 62, 39
1, 450892, Control_c, 0, 67, 59
1, 450907, Control_c, 0, 67, 57
1, 450922, Control_c, 0, 67, 56
1, 450937, Control_c, 0, 67, 54
1, 450951, Control_c, 0, 67, 53
1, 450966, Control_c, 0, 67, 53
1, 450980, Note_off_c, 0, 59, 51
1, 450994, Note_off_c, 0, 62, 51
1, 450996, Control_c, 0, 67, 52
1, 451196, Control_c, 0, 67, 53
1, 451209, Note_on_c, 0, 90, 72
1, 451211, Control_c, 0, 67, 54
1, 451226, Control_c, 0, 67, 54
1, 451240, Control_c, 0, 67, 55
1, 451250, Note_on_c, 0, 59, 28
1, 451255, Control_c, 0, 67, 56
1, 451267, Note_on_c, 0, 78, 45
1, 451271, Control_c, 0, 67, 57
1, 451282, Poly_aftertouch_c, 0, 62, 127
1, 451286, Control_c, 0, 67, 58
1, 451287, Note_off_c, 0, 59, 49
1, 451301, Control_c, 0, 67, 60
1, 451302, Note_off_c, 0, 92, 66
1, 451315, Control_c, 0, 67, 60
1, 451323, Poly_aftertouch_c, 0, 62, 0
1, 451330, Control_c, 0, 67, 62
1, 451345, Control_c, 0, 67, 63
1, 451360, Control_c, 0, 67, 65
1, 451375, Control_c, 0, 67, 68
1, 451389, Control_c, 0, 67, 70
1, 451404, Control_c, 0, 67, 73
1, 451405, Note_off_c, 0, 78, 49
1, 451419, Control_c, 0, 67, 76
1, 451434, Control_c, 0, 67, 78
1, 451449, Control_c, 0, 67, 79
1, 451463, Control_c, 0, 67, 81
1, 451478, Control_c, 0, 67, 82
1, 451493, Control_c, 0, 67, 84
1, 451508, Control_c, 0, 67, 84
1, 451522, Control_c, 0, 67, 85
1, 451582, Control_c, 0, 67, 84
1, 451618, Note_on_c, 0, 88, 68
1, 451627, Control_c, 0, 67, 84
1, 451651, Note_on_c, 0, 40, 47
1, 451656, Control_c, 0, 67, 83
1, 451660, Note_on_c, 0, 55, 41
1, 451671, Control_c, 0, 64, 90
1, 451676, Note_on_c, 0, 76, 30
1, 451686, Control_c, 0, 64, 69
1, 451700, Control_c, 0, 64, 53
1, 451714, Note_off_c, 0, 90, 63
1, 451715, Control_c, 0, 64, 61
1, 451730, Control_c, 0, 64, 68
1, 451730, Control_c, 0, 67, 83
1, 451745, Control_c, 0, 64, 76
1, 451760, Control_c, 0, 64, 90
1, 451760, Control_c, 0, 67, 82
1, 451774, Control_c, 0, 64, 127
1, 451789, Control_c, 0, 67, 83
1, 451796, Note_off_c, 0, 40, 61
1, 451804, Control_c, 0, 67, 83
1, 451819, Control_c, 0, 67, 84
1, 451886, Control_c, 0, 67, 84
1, 451892, Note_off_c, 0, 55, 63
1, 452023, Note_on_c, 0, 59, 53
1, 452026, Note_off_c, 0, 76, 43
1, 452039, Note_on_c, 0, 62, 43
1, 452048, Control_c, 0, 67, 84
1, 452065, Control_c, 0, 67, 83
1, 452080, Control_c, 0, 67, 83
1, 452094, Control_c, 0, 67, 82
1, 452096, Note_off_c, 0, 62, 58
1, 452101, Note_off_c, 0, 59, 59
1, 452109, Control_c, 0, 67, 82
1, 452210, Note_on_c, 0, 86, 75
1, 452227, Control_c, 0, 67, 82
1, 452242, Control_c, 0, 67, 83
1, 452246, Note_on_c, 0, 74, 52
1, 452257, Control_c, 0, 67, 84
1, 452272, Control_c, 0, 67, 84
1, 452278, Note_off_c, 0, 88, 62
1, 452286, Control_c, 0, 67, 85
1, 452301, Control_c, 0, 67, 85
1, 452304, Note_off_c, 0, 74, 49
1, 452330, Control_c, 0, 67, 86
1, 452345, Control_c, 0, 67, 86
1, 452360, Control_c, 0, 67, 89
1, 452375, Control_c, 0, 67, 93
1, 452390, Control_c, 0, 67, 97
1, 452405, Control_c, 0, 67, 100
1, 452420, Control_c, 0, 67, 104
1, 452435, Control_c, 0, 67, 106
1, 452449, Control_c, 0, 67, 109
1, 452464, Control_c, 0, 67, 111
1, 452479, Control_c, 0, 67, 112
1, 452494, Control_c, 0, 67, 114
1, 452509, Control_c, 0, 67, 116
1, 452523, Control_c, 0, 67, 117
1, 452524, Note_on_c, 0, 41, 45
1, 452538, Control_c, 0, 67, 117
1, 452575, Note_on_c, 0, 85, 66
1, 452593, Note_on_c, 0, 56, 44
1, 452632, Note_on_c, 0, 73, 43
1, 452664, Control_c, 0, 64, 123
1, 452679, Control_c, 0, 64, 84
1, 452694, Control_c, 0, 64, 63
1, 452709, Control_c, 0, 64, 0
1, 452727, Note_off_c, 0, 86, 56
1, 452753, Control_c, 0, 64, 23
1, 452768, Control_c, 0, 64, 63
1, 452783, Control_c, 0, 64, 73
1, 452783, Control_c, 0, 67, 118
1, 452798, Control_c, 0, 64, 87
1, 452812, Control_c, 0, 64, 127
1, 452812, Control_c, 0, 67, 118
1, 452842, Control_c, 0, 67, 119
1, 452858, Control_c, 0, 67, 122
1, 452873, Control_c, 0, 67, 125
1, 452886, Note_off_c, 0, 41, 40
1, 452888, Control_c, 0, 67, 127
1, 452903, Control_c, 0, 67, 127
1, 453175, Note_on_c, 0, 61, 40
1, 453188, Note_off_c, 0, 56, 37
1, 453213, Note_on_c, 0, 59, 30
1, 453355, Note_off_c, 0, 59, 32
1, 453383, Note_off_c, 0, 61, 39
1, 453587, Note_on_c, 0, 59, 30
1, 453591, Note_on_c, 0, 61, 31
1, 453745, Note_off_c, 0, 73, 50
1, 453772, Note_off_c, 0, 59, 42
1, 453784, Note_off_c, 0, 85, 60
1, 453787, Note_off_c, 0, 61, 39
1, 453967, Note_on_c, 0, 61, 29
1, 453975, Note_on_c, 0, 59, 29
1, 454053, Note_off_c, 0, 61, 50
1, 454062, Note_off_c, 0, 59, 39
1, 454116, Note_on_c, 0, 85, 58
1, 454152, Note_on_c, 0, 73, 37
1, 454286, Note_off_c, 0, 73, 40
1, 454431, Note_on_c, 0, 42, 43
1, 454518, Control_c, 0, 64, 110
1, 454532, Control_c, 0, 64, 79
1, 454538, Note_on_c, 0, 86, 60
1, 454547, Control_c, 0, 64, 53
1, 454562, Control_c, 0, 64, 0
1, 454564, Note_on_c, 0, 57, 42
1, 454577, Control_c, 0, 64, 52
1, 454578, Note_on_c, 0, 74, 40
1, 454592, Control_c, 0, 64, 67
1, 454599, Note_off_c, 0, 42, 47
1, 454606, Control_c, 0, 64, 77
1, 454613, Note_off_c, 0, 85, 38
1, 454621, Control_c, 0, 64, 93
1, 454636, Control_c, 0, 64, 127
1, 454679, Note_off_c, 0, 74, 62
1, 454699, Note_off_c, 0, 57, 60
1, 454900, Note_on_c, 0, 59, 48
1, 454916, Note_on_c, 0, 69, 38
1, 454939, Note_on_c, 0, 63, 28
1, 454945, Note_off_c, 0, 69, 58
1, 454951, Note_off_c, 0, 59, 54
1, 454977, Note_off_c, 0, 63, 50
1, 455040, Note_on_c, 0, 87, 64
1, 455073, Note_on_c, 0, 75, 49
1, 455220, Control_c, 0, 64, 99
1, 455235, Control_c, 0, 64, 70
1, 455240, Note_on_c, 0, 40, 56
1, 455251, Control_c, 0, 64, 0
1, 455277, Note_off_c, 0, 86, 38
1, 455295, Control_c, 0, 64, 38
1, 455310, Control_c, 0, 64, 66
1, 455325, Control_c, 0, 64, 80
1, 455340, Control_c, 0, 64, 108
1, 455354, Control_c, 0, 64, 127
1, 455392, Note_off_c, 0, 40, 62
1, 455491, Note_off_c, 0, 75, 49
1, 455526, Note_on_c, 0, 61, 61
1, 455553, Note_off_c, 0, 61, 64
1, 455784, Note_on_c, 0, 88, 74
1, 455830, Note_on_c, 0, 76, 37
1, 455906, Note_off_c, 0, 87, 61
1, 456191, Note_on_c, 0, 69, 41
1, 456206, Note_on_c, 0, 64, 38
1, 456339, Note_off_c, 0, 69, 35
1, 456356, Note_off_c, 0, 64, 32
1, 456551, Note_on_c, 0, 69, 44
1, 456576, Note_on_c, 0, 64, 31
1, 456615, Control_c, 0, 67, 126
1, 456629, Control_c, 0, 67, 123
1, 456644, Control_c, 0, 67, 118
1, 456659, Control_c, 0, 67, 112
1, 456674, Control_c, 0, 67, 107
1, 456689, Control_c, 0, 67, 101
1, 456703, Control_c, 0, 67, 95
1, 456718, Control_c, 0, 67, 90
1, 456733, Control_c, 0, 67, 86
1, 456748, Control_c, 0, 67, 82
1, 456763, Control_c, 0, 67, 78
1, 456778, Control_c, 0, 67, 76
1, 456781, Note_off_c, 0, 69, 40
1, 456788, Note_off_c, 0, 64, 42
1, 456793, Control_c, 0, 67, 74
1, 456808, Control_c, 0, 67, 72
1, 456822, Control_c, 0, 67, 72
1, 456823, Note_off_c, 0, 88, 61
1, 456829, Note_off_c, 0, 76, 46
1, 456837, Control_c, 0, 67, 71
1, 456853, Control_c, 0, 67, 71
1, 456900, Note_on_c, 0, 88, 86
1, 456939, Note_on_c, 0, 76, 46
1, 456947, Note_on_c, 0, 69, 35
1, 456957, Note_on_c, 0, 61, 40
1, 456982, Note_on_c, 0, 64, 19
1, 456986, Control_c, 0, 67, 72
1, 457001, Control_c, 0, 67, 73
1, 457016, Control_c, 0, 67, 74
1, 457031, Control_c, 0, 67, 75
1, 457045, Control_c, 0, 67, 76
1, 457060, Control_c, 0, 67, 76
1, 457075, Control_c, 0, 67, 77
1, 457090, Control_c, 0, 67, 78
1, 457100, Note_off_c, 0, 61, 41
1, 457105, Control_c, 0, 67, 78
1, 457127, Control_c, 0, 67, 79
1, 457133, Note_off_c, 0, 76, 44
1, 457141, Control_c, 0, 67, 80
1, 457171, Control_c, 0, 67, 80
1, 457186, Control_c, 0, 67, 81
1, 457201, Control_c, 0, 67, 82
1, 457216, Control_c, 0, 67, 82
1, 457231, Control_c, 0, 67, 84
1, 457245, Control_c, 0, 67, 85
1, 457260, Control_c, 0, 67, 87
1, 457275, Control_c, 0, 67, 88
1, 457290, Control_c, 0, 67, 89
1, 457305, Control_c, 0, 67, 91
1, 457319, Control_c, 0, 67, 92
1, 457334, Control_c, 0, 67, 93
1, 457349, Control_c, 0, 67, 94
1, 457364, Control_c, 0, 67, 94
1, 457393, Control_c, 0, 67, 95
1, 457408, Control_c, 0, 67, 95
1, 457415, Note_on_c, 0, 90, 67
1, 457438, Control_c, 0, 67, 96
1, 457451, Note_on_c, 0, 78, 40
1, 457452, Control_c, 0, 67, 96
1, 457453, Note_on_c, 0, 59, 36
1, 457458, Note_on_c, 0, 62, 33
1, 457467, Control_c, 0, 67, 97
1, 457482, Control_c, 0, 67, 97
1, 457497, Control_c, 0, 64, 102
1, 457497, Control_c, 0, 67, 98
1, 457512, Control_c, 0, 64, 79
1, 457512, Control_c, 0, 67, 99
1, 457526, Control_c, 0, 64, 64
1, 457526, Control_c, 0, 67, 100
1, 457541, Control_c, 0, 64, 24
1, 457541, Control_c, 0, 67, 101
1, 457556, Control_c, 0, 64, 14
1, 457556, Control_c, 0, 67, 101
1, 457564, Note_off_c, 0, 64, 39
1, 457571, Control_c, 0, 64, 37
1, 457571, Control_c, 0, 67, 102
1, 457572, Note_off_c, 0, 88, 37
1, 457586, Control_c, 0, 64, 57
1, 457586, Control_c, 0, 67, 102
1, 457601, Control_c, 0, 64, 65
1, 457615, Control_c, 0, 64, 72
1, 457615, Control_c, 0, 67, 103
1, 457630, Control_c, 0, 64, 83
1, 457630, Control_c, 0, 67, 104
1, 457646, Control_c, 0, 64, 98
1, 457646, Control_c, 0, 67, 104
1, 457661, Control_c, 0, 64, 127
1, 457661, Control_c, 0, 67, 105
1, 457675, Control_c, 0, 67, 106
1, 457690, Control_c, 0, 67, 107
1, 457705, Note_off_c, 0, 69, 62
1, 457705, Control_c, 0, 67, 109
1, 457720, Control_c, 0, 67, 111
1, 457735, Control_c, 0, 67, 113
1, 457750, Control_c, 0, 67, 115
1, 457764, Control_c, 0, 67, 117
1, 457779, Control_c, 0, 67, 119
1, 457794, Control_c, 0, 67, 121
1, 457809, Control_c, 0, 67, 124
1, 457824, Control_c, 0, 67, 127
1, 457839, Control_c, 0, 67, 127
1, 457940, Note_off_c, 0, 78, 44
1, 457988, Note_on_c, 0, 68, 43
1, 458026, Note_on_c, 0, 64, 31
1, 458100, Note_off_c, 0, 68, 46
1, 458113, Note_off_c, 0, 59, 37
1, 458128, Note_off_c, 0, 64, 35
1, 458128, Note_off_c, 0, 62, 40
1, 458311, Note_on_c, 0, 88, 64
1, 458340, Note_on_c, 0, 76, 33
1, 458405, Note_off_c, 0, 90, 64
1, 458486, Note_off_c, 0, 88, 50
1, 458526, Note_off_c, 0, 76, 41
1, 458629, Note_on_c, 0, 88, 53
1, 458669, Note_on_c, 0, 76, 41
1, 458674, Note_on_c, 0, 45, 38
1, 458713, Control_c, 0, 64, 90
1, 458728, Control_c, 0, 64, 67
1, 458743, Control_c, 0, 64, 0
1, 458787, Control_c, 0, 64, 30
1, 458802, Control_c, 0, 64, 60
1, 458817, Control_c, 0, 64, 69
1, 458832, Control_c, 0, 64, 81
1, 458847, Control_c, 0, 64, 100
1, 458861, Control_c, 0, 64, 127
1, 458894, Note_off_c, 0, 45, 46
1, 459302, Note_on_c, 0, 69, 33
1, 459319, Note_on_c, 0, 61, 31
1, 459339, Note_on_c, 0, 64, 28
1, 459501, Note_off_c, 0, 69, 32
1, 459512, Note_off_c, 0, 61, 41
1, 459520, Note_off_c, 0, 64, 42
1, 459721, Note_on_c, 0, 61, 41
1, 459728, Note_on_c, 0, 69, 39
1, 459741, Note_on_c, 0, 64, 32
1, 459925, Note_off_c, 0, 61, 41
1, 459929, Note_off_c, 0, 64, 40
1, 459932, Note_off_c, 0, 69, 37
1, 459982, Note_off_c, 0, 88, 47
1, 460103, Note_off_c, 0, 76, 50
1, 460135, Note_on_c, 0, 69, 48
1, 460143, Note_on_c, 0, 61, 47
1, 460147, Note_on_c, 0, 64, 49
1, 460200, Note_off_c, 0, 69, 59
1, 460271, Note_off_c, 0, 61, 60
1, 460293, Note_off_c, 0, 64, 52
1, 460651, Note_on_c, 0, 57, 65
1, 460659, Note_on_c, 0, 69, 44
1, 460663, Note_on_c, 0, 60, 41
1, 460681, Note_on_c, 0, 64, 33
1, 460715, Control_c, 0, 64, 99
1, 460730, Control_c, 0, 64, 73
1, 460744, Control_c, 0, 64, 56
1, 460759, Control_c, 0, 64, 30
1, 460774, Control_c, 0, 64, 50
1, 460788, Control_c, 0, 64, 63
1, 460803, Control_c, 0, 64, 70
1, 460818, Control_c, 0, 64, 84
1, 460834, Control_c, 0, 64, 127
1, 460900, Control_c, 0, 67, 125
1, 460915, Control_c, 0, 67, 122
1, 460930, Control_c, 0, 67, 118
1, 460945, Control_c, 0, 67, 113
1, 460960, Control_c, 0, 67, 108
1, 460975, Control_c, 0, 67, 102
1, 460990, Control_c, 0, 67, 96
1, 461005, Control_c, 0, 67, 90
1, 461020, Control_c, 0, 67, 84
1, 461035, Control_c, 0, 67, 79
1, 461037, Note_off_c, 0, 64, 52
1, 461040, Note_off_c, 0, 60, 54
1, 461049, Control_c, 0, 67, 76
1, 461064, Control_c, 0, 67, 74
1, 461065, Note_off_c, 0, 69, 35
1, 461079, Control_c, 0, 67, 74
1, 461093, Control_c, 0, 67, 73
1, 461108, Control_c, 0, 67, 73
1, 461123, Control_c, 0, 67, 72
1, 461138, Control_c, 0, 67, 72
1, 461153, Control_c, 0, 67, 71
1, 461167, Control_c, 0, 67, 71
1, 461169, Note_on_c, 0, 60, 49
1, 461175, Note_on_c, 0, 52, 79
1, 461182, Control_c, 0, 67, 70
1, 461184, Note_on_c, 0, 69, 49
1, 461186, Note_on_c, 0, 64, 49
1, 461211, Control_c, 0, 67, 70
1, 461226, Control_c, 0, 67, 69
1, 461241, Control_c, 0, 67, 68
1, 461256, Control_c, 0, 67, 67
1, 461271, Control_c, 0, 67, 66
1, 461286, Control_c, 0, 67, 65
1, 461300, Control_c, 0, 67, 64
1, 461306, Note_off_c, 0, 57, 49
1, 461315, Control_c, 0, 67, 64
1, 461330, Control_c, 0, 67, 63
1, 461345, Control_c, 0, 67, 62
1, 461360, Control_c, 0, 67, 62
1, 461374, Control_c, 0, 67, 61
1, 461389, Control_c, 0, 67, 61
1, 461404, Control_c, 0, 67, 60
1, 461434, Control_c, 0, 67, 60
1, 461524, Note_on_c, 0, 41, 66
1, 461619, Control_c, 0, 67, 59
1, 461649, Control_c, 0, 67, 59
1, 461709, Control_c, 0, 67, 58
1, 461855, Note_on_c, 0, 55, 76
1, 461991, Control_c, 0, 64, 92
1, 462004, Note_off_c, 0, 64, 56
1, 462005, Control_c, 0, 64, 71
1, 462012, Note_off_c, 0, 60, 41
1, 462020, Control_c, 0, 64, 39
1, 462034, Control_c, 0, 64, 0
1, 462037, Note_off_c, 0, 52, 60
1, 462108, Control_c, 0, 64, 63
1, 462123, Control_c, 0, 64, 74
1, 462138, Control_c, 0, 64, 92
1, 462153, Control_c, 0, 64, 127
1, 462175, Note_off_c, 0, 69, 37
1, 462182, Control_c, 0, 67, 58
1, 462214, Note_on_c, 0, 60, 54
1, 462227, Control_c, 0, 67, 57
1, 462257, Control_c, 0, 67, 57
1, 462272, Control_c, 0, 67, 56
1, 462287, Control_c, 0, 67, 54
1, 462301, Control_c, 0, 67, 53
1, 462316, Control_c, 0, 67, 53
1, 462331, Control_c, 0, 67, 52
1, 462346, Control_c, 0, 67, 52
1, 462367, Control_c, 0, 67, 51
1, 462371, Note_on_c, 0, 65, 57
1, 462371, Note_off_c, 0, 60, 58
1, 462516, Note_off_c, 0, 65, 63
1, 462521, Note_on_c, 0, 69, 61
1, 462576, Note_off_c, 0, 69, 62
1, 462657, Note_on_c, 0, 72, 63
1, 462782, Note_on_c, 0, 81, 64
1, 462787, Note_off_c, 0, 55, 60
1, 462836, Note_off_c, 0, 72, 38
1, 462889, Note_on_c, 0, 53, 80
1, 462925, Note_on_c, 0, 84, 62
1, 463006, Control_c, 0, 67, 51
1, 463036, Control_c, 0, 67, 50
1, 463058, Note_on_c, 0, 77, 56
1, 463080, Control_c, 0, 67, 50
1, 463118, Control_c, 0, 67, 49
1, 463131, Note_off_c, 0, 84, 45
1, 463192, Note_off_c, 0, 81, 57
1, 463206, Control_c, 0, 67, 49
1, 463220, Control_c, 0, 67, 46
1, 463235, Control_c, 0, 67, 45
1, 463246, Note_on_c, 0, 48, 81
1, 463246, Note_off_c, 0, 77, 62
1, 463251, Control_c, 0, 67, 44
1, 463253, Note_on_c, 0, 72, 65
1, 463266, Control_c, 0, 67, 43
1, 463281, Control_c, 0, 67, 43
1, 463295, Control_c, 0, 67, 42
1, 463298, Note_off_c, 0, 72, 59
1, 463310, Control_c, 0, 67, 42
1, 463325, Control_c, 0, 67, 41
1, 463340, Control_c, 0, 67, 41
1, 463355, Control_c, 0, 67, 40
1, 463369, Control_c, 0, 67, 40
1, 463384, Control_c, 0, 67, 39
1, 463399, Control_c, 0, 67, 39
1, 463413, Control_c, 0, 67, 38
1, 463420, Note_on_c, 0, 69, 57
1, 463458, Control_c, 0, 67, 38
1, 463459, Note_off_c, 0, 53, 57
1, 463577, Note_on_c, 0, 65, 60
1, 463607, Control_c, 0, 67, 38
1, 463621, Control_c, 0, 67, 39
1, 463636, Control_c, 0, 67, 40
1, 463651, Control_c, 0, 67, 40
1, 463666, Control_c, 0, 67, 41
1, 463668, Note_off_c, 0, 41, 59
1, 463675, Note_on_c, 0, 49, 90
1, 463680, Control_c, 0, 67, 41
1, 463684, Note_off_c, 0, 69, 39
1, 463688, Note_off_c, 0, 48, 64
1, 463695, Control_c, 0, 67, 42
1, 463710, Control_c, 0, 67, 42
1, 463725, Control_c, 0, 67, 43
1, 463733, Note_on_c, 0, 61, 54
1, 463740, Control_c, 0, 67, 44
1, 463744, Note_off_c, 0, 65, 58
1, 463754, Control_c, 0, 67, 44
1, 463755, Note_off_c, 0, 49, 63
1, 463769, Control_c, 0, 67, 45
1, 463799, Control_c, 0, 67, 45
1, 463828, Control_c, 0, 67, 46
1, 463895, Control_c, 0, 67, 46
1, 463899, Note_off_c, 0, 61, 60
1, 463934, Note_on_c, 0, 49, 71
1, 463962, Note_on_c, 0, 34, 52
1, 464029, Control_c, 0, 67, 47
1, 464045, Control_c, 0, 67, 48
1, 464060, Control_c, 0, 67, 48
1, 464075, Control_c, 0, 67, 49
1, 464090, Control_c, 0, 64, 99
1, 464090, Control_c, 0, 67, 49
1, 464105, Control_c, 0, 64, 73
1, 464105, Control_c, 0, 67, 50
1, 464119, Control_c, 0, 64, 0
1, 464119, Control_c, 0, 67, 51
1, 464134, Control_c, 0, 67, 51
1, 464164, Control_c, 0, 67, 52
1, 464179, Control_c, 0, 67, 53
1, 464193, Control_c, 0, 64, 54
1, 464193, Control_c, 0, 67, 54
1, 464197, Note_on_c, 0, 58, 47
1, 464208, Control_c, 0, 64, 68
1, 464208, Control_c, 0, 67, 57
1, 464223, Control_c, 0, 64, 77
1, 464223, Control_c, 0, 67, 60
1, 464237, Control_c, 0, 64, 88
1, 464237, Control_c, 0, 67, 62
1, 464252, Control_c, 0, 64, 107
1, 464252, Control_c, 0, 67, 65
1, 464267, Control_c, 0, 64, 127
1, 464267, Control_c, 0, 67, 68
1, 464282, Control_c, 0, 67, 71
1, 464297, Control_c, 0, 67, 75
1, 464299, Note_off_c, 0, 34, 61
1, 464311, Control_c, 0, 67, 78
1, 464326, Control_c, 0, 67, 82
1, 464341, Control_c, 0, 67, 85
1, 464353, Note_on_c, 0, 61, 52
1, 464356, Control_c, 0, 67, 87
1, 464371, Control_c, 0, 67, 89
1, 464385, Control_c, 0, 67, 91
1, 464400, Control_c, 0, 67, 93
1, 464415, Control_c, 0, 67, 95
1, 464416, Note_off_c, 0, 58, 32
1, 464430, Control_c, 0, 67, 97
1, 464445, Control_c, 0, 67, 98
1, 464460, Control_c, 0, 67, 99
1, 464474, Control_c, 0, 67, 100
1, 464475, Note_on_c, 0, 64, 55
1, 464483, Note_off_c, 0, 61, 55
1, 464504, Control_c, 0, 67, 101
1, 464519, Control_c, 0, 67, 101
1, 464546, Note_off_c, 0, 64, 60
1, 464549, Control_c, 0, 67, 102
1, 464637, Note_on_c, 0, 50, 62
1, 464654, Note_on_c, 0, 62, 46
1, 464778, Control_c, 0, 67, 102
1, 464793, Control_c, 0, 64, 109
1, 464793, Control_c, 0, 67, 103
1, 464793, Note_off_c, 0, 49, 48
1, 464808, Control_c, 0, 64, 80
1, 464808, Control_c, 0, 67, 103
1, 464809, Note_on_c, 0, 70, 46
1, 464823, Control_c, 0, 64, 51
1, 464823, Control_c, 0, 67, 104
1, 464838, Control_c, 0, 64, 0
1, 464838, Control_c, 0, 67, 106
1, 464853, Control_c, 0, 67, 106
1, 464898, Control_c, 0, 64, 54
1, 464913, Control_c, 0, 64, 69
1, 464919, Note_on_c, 0, 74, 51
1, 464928, Control_c, 0, 64, 80
1, 464942, Control_c, 0, 64, 96
1, 464957, Control_c, 0, 64, 118
1, 464972, Control_c, 0, 64, 127
1, 465004, Note_off_c, 0, 62, 32
1, 465026, Note_off_c, 0, 74, 56
1, 465027, Note_on_c, 0, 65, 49
1, 465077, Note_off_c, 0, 50, 65
1, 465079, Note_off_c, 0, 70, 63
1, 465130, Note_off_c, 0, 65, 62
1, 465151, Note_on_c, 0, 50, 74
1, 465169, Note_on_c, 0, 62, 41
1, 465202, Note_off_c, 0, 62, 55
1, 465238, Control_c, 0, 67, 107
1, 465253, Control_c, 0, 67, 107
1, 465261, Note_off_c, 0, 50, 67
1, 465297, Control_c, 0, 67, 108
1, 465312, Control_c, 0, 67, 108
1, 465316, Note_on_c, 0, 58, 57
1, 465342, Control_c, 0, 67, 110
1, 465364, Control_c, 0, 67, 111
1, 465379, Control_c, 0, 67, 113
1, 465393, Control_c, 0, 67, 114
1, 465408, Control_c, 0, 67, 115
1, 465423, Control_c, 0, 67, 115
1, 465438, Control_c, 0, 67, 116
1, 465451, Note_on_c, 0, 54, 60
1, 465453, Control_c, 0, 67, 117
1, 465467, Control_c, 0, 67, 117
1, 465482, Note_off_c, 0, 58, 58
1, 465482, Control_c, 0, 67, 118
1, 465497, Control_c, 0, 67, 119
1, 465512, Control_c, 0, 67, 120
1, 465527, Control_c, 0, 67, 121
1, 465542, Control_c, 0, 67, 122
1, 465557, Control_c, 0, 67, 123
1, 465571, Control_c, 0, 67, 124
1, 465582, Note_on_c, 0, 50, 73
1, 465586, Control_c, 0, 67, 125
1, 465601, Control_c, 0, 67, 126
1, 465613, Note_off_c, 0, 54, 65
1, 465616, Control_c, 0, 67, 126
1, 465631, Control_c, 0, 67, 127
1, 465879, Note_on_c, 0, 51, 66
1, 465938, Note_on_c, 0, 38, 47
1, 465968, Note_off_c, 0, 50, 61
1, 465987, Control_c, 0, 64, 98
1, 466002, Control_c, 0, 64, 79
1, 466016, Control_c, 0, 64, 64
1, 466031, Control_c, 0, 64, 0
1, 466143, Control_c, 0, 64, 50
1, 466158, Control_c, 0, 64, 65
1, 466172, Control_c, 0, 64, 70
1, 466187, Control_c, 0, 64, 75
1, 466202, Control_c, 0, 64, 81
1, 466217, Control_c, 0, 64, 88
1, 466232, Control_c, 0, 64, 97
1, 466243, Note_on_c, 0, 45, 50
1, 466247, Control_c, 0, 64, 107
1, 466262, Control_c, 0, 64, 116
1, 466277, Control_c, 0, 64, 127
1, 466371, Note_off_c, 0, 45, 55
1, 466416, Note_on_c, 0, 48, 34
1, 466513, Note_off_c, 0, 48, 38
1, 466575, Note_on_c, 0, 54, 47
1, 466621, Note_off_c, 0, 51, 63
1, 466692, Note_off_c, 0, 54, 60
1, 466822, Note_on_c, 0, 50, 57
1, 466862, Note_on_c, 0, 57, 43
1, 466937, Control_c, 0, 64, 95
1, 466952, Control_c, 0, 64, 74
1, 466965, Control_c, 0, 64, 57
1, 466980, Control_c, 0, 64, 0
1, 467009, Control_c, 0, 64, 35
1, 467024, Control_c, 0, 64, 53
1, 467038, Control_c, 0, 64, 64
1, 467053, Control_c, 0, 64, 69
1, 467068, Control_c, 0, 64, 76
1, 467082, Note_on_c, 0, 66, 42
1, 467083, Control_c, 0, 64, 84
1, 467098, Control_c, 0, 64, 94
1, 467113, Control_c, 0, 64, 104
1, 467127, Control_c, 0, 64, 127
1, 467231, Note_on_c, 0, 45, 67
1, 467238, Note_on_c, 0, 69, 55
1, 467260, Note_off_c, 0, 50, 61
1, 467275, Note_off_c, 0, 57, 40
1, 467351, Note_off_c, 0, 69, 57
1, 467383, Note_on_c, 0, 62, 43
1, 467389, Note_off_c, 0, 66, 51
1, 467440, Note_off_c, 0, 62, 53
1, 467491, Note_off_c, 0, 45, 63
1, 467503, Note_on_c, 0, 50, 68
1, 467528, Control_c, 0, 64, 92
1, 467540, Note_on_c, 0, 57, 38
1, 467543, Control_c, 0, 64, 70
1, 467558, Control_c, 0, 64, 52
1, 467572, Control_c, 0, 64, 59
1, 467577, Note_off_c, 0, 57, 53
1, 467587, Control_c, 0, 64, 66
1, 467610, Control_c, 0, 64, 73
1, 467625, Control_c, 0, 64, 83
1, 467640, Control_c, 0, 64, 99
1, 467655, Control_c, 0, 64, 127
1, 467661, Note_on_c, 0, 54, 58
1, 467695, Note_off_c, 0, 50, 63
1, 467785, Note_off_c, 0, 54, 61
1, 467790, Note_on_c, 0, 50, 45
1, 467879, Note_on_c, 0, 45, 53
1, 467944, Note_off_c, 0, 45, 55
1, 467953, Note_on_c, 0, 48, 73
1, 467980, Note_off_c, 0, 50, 40
1, 468045, Note_off_c, 0, 48, 62
1, 468139, Note_on_c, 0, 48, 60
1, 468175, Note_on_c, 0, 43, 43
1, 468233, Control_c, 0, 64, 94
1, 468248, Control_c, 0, 64, 74
1, 468263, Control_c, 0, 64, 59
1, 468277, Control_c, 0, 64, 24
1, 468292, Control_c, 0, 64, 32
1, 468307, Control_c, 0, 64, 48
1, 468322, Control_c, 0, 64, 57
1, 468337, Control_c, 0, 64, 64
1, 468359, Control_c, 0, 64, 67
1, 468369, Note_on_c, 0, 45, 42
1, 468374, Control_c, 0, 64, 71
1, 468388, Control_c, 0, 64, 76
1, 468403, Control_c, 0, 64, 84
1, 468418, Control_c, 0, 64, 91
1, 468433, Control_c, 0, 64, 100
1, 468448, Control_c, 0, 64, 111
1, 468462, Note_off_c, 0, 38, 40
1, 468463, Control_c, 0, 64, 127
1, 468513, Note_off_c, 0, 45, 35
1, 468519, Note_on_c, 0, 50, 43
1, 468637, Note_off_c, 0, 50, 60
1, 468668, Note_on_c, 0, 54, 44
1, 468701, Note_off_c, 0, 54, 63
1, 468866, Note_on_c, 0, 46, 64
1, 468942, Note_off_c, 0, 48, 53
1, 468946, Poly_aftertouch_c, 0, 55, 127
1, 468967, Control_c, 0, 64, 98
1, 468982, Control_c, 0, 64, 76
1, 468997, Control_c, 0, 64, 55
1, 469011, Control_c, 0, 64, 36
1, 469026, Control_c, 0, 64, 53
1, 469027, Note_on_c, 0, 62, 45
1, 469041, Control_c, 0, 64, 63
1, 469056, Control_c, 0, 64, 67
1, 469071, Control_c, 0, 64, 74
1, 469086, Control_c, 0, 64, 88
1, 469107, Control_c, 0, 64, 111
1, 469122, Control_c, 0, 64, 127
1, 469163, Note_on_c, 0, 67, 51
1, 469189, Note_off_c, 0, 46, 62
1, 469202, Note_off_c, 0, 43, 63
1, 469227, Control_c, 0, 67, 124
1, 469234, Poly_aftertouch_c, 0, 55, 0
1, 469241, Control_c, 0, 67, 120
1, 469256, Control_c, 0, 67, 115
1, 469269, Note_on_c, 0, 58, 58
1, 469271, Control_c, 0, 67, 111
1, 469286, Control_c, 0, 67, 106
1, 469297, Note_off_c, 0, 62, 51
1, 469301, Control_c, 0, 67, 101
1, 469315, Control_c, 0, 67, 97
1, 469330, Control_c, 0, 67, 93
1, 469345, Control_c, 0, 67, 90
1, 469360, Control_c, 0, 67, 87
1, 469375, Control_c, 0, 67, 85
1, 469387, Note_off_c, 0, 58, 58
1, 469390, Control_c, 0, 67, 82
1, 469398, Note_on_c, 0, 46, 80
1, 469405, Control_c, 0, 67, 81
1, 469414, Note_on_c, 0, 37, 59
1, 469420, Control_c, 0, 67, 78
1, 469425, Note_on_c, 0, 55, 61
1, 469434, Control_c, 0, 67, 76
1, 469446, Note_off_c, 0, 67, 55
1, 469449, Control_c, 0, 67, 73
1, 469464, Control_c, 0, 67, 70
1, 469479, Control_c, 0, 67, 66
1, 469494, Control_c, 0, 67, 61
1, 469508, Control_c, 0, 67, 57
1, 469523, Control_c, 0, 67, 52
1, 469538, Control_c, 0, 67, 47
1, 469545, Note_on_c, 0, 66, 64
1, 469552, Control_c, 0, 67, 41
1, 469567, Control_c, 0, 67, 34
1, 469582, Control_c, 0, 67, 26
1, 469597, Control_c, 0, 67, 18
1, 469606, Note_off_c, 0, 55, 37
1, 469612, Control_c, 0, 67, 10
1, 469628, Control_c, 0, 67, 0
1, 469674, Note_off_c, 0, 46, 58
1, 469679, Note_on_c, 0, 69, 69
1, 469700, Note_off_c, 0, 66, 56
1, 469803, Note_on_c, 0, 46, 83
1, 469809, Note_on_c, 0, 67, 73
1, 469843, Note_off_c, 0, 69, 64
1, 469878, Note_off_c, 0, 37, 58
1, 470111, Note_on_c, 0, 55, 80
1, 470156, Note_on_c, 0, 36, 60
1, 470165, Note_off_c, 0, 46, 57
1, 470207, Poly_aftertouch_c, 0, 66, 127
1, 470210, Note_off_c, 0, 67, 59
1, 470212, Control_c, 0, 64, 95
1, 470227, Control_c, 0, 64, 68
1, 470230, Poly_aftertouch_c, 0, 66, 0
1, 470242, Control_c, 0, 64, 0
1, 470316, Control_c, 0, 64, 21
1, 470330, Control_c, 0, 64, 71
1, 470345, Control_c, 0, 64, 91
1, 470360, Control_c, 0, 64, 127
1, 470421, Note_on_c, 0, 60, 55
1, 470505, Note_off_c, 0, 55, 55
1, 470562, Note_on_c, 0, 64, 61
1, 470578, Note_off_c, 0, 60, 57
1, 470708, Note_on_c, 0, 70, 65
1, 470709, Note_off_c, 0, 64, 63
1, 470769, Note_off_c, 0, 70, 62
1, 470838, Note_on_c, 0, 72, 65
1, 470842, Control_c, 0, 67, 8
1, 470843, Note_off_c, 0, 36, 61
1, 470857, Control_c, 0, 67, 11
1, 470872, Control_c, 0, 67, 15
1, 470886, Control_c, 0, 67, 20
1, 470901, Control_c, 0, 67, 25
1, 470916, Control_c, 0, 67, 29
1, 470931, Control_c, 0, 67, 32
1, 470946, Control_c, 0, 67, 35
1, 470961, Control_c, 0, 67, 38
1, 470961, Note_on_c, 0, 82, 65
1, 470976, Control_c, 0, 67, 40
1, 470991, Control_c, 0, 67, 41
1, 471005, Control_c, 0, 67, 42
1, 471020, Control_c, 0, 67, 42
1, 471037, Note_on_c, 0, 55, 86
1, 471074, Note_off_c, 0, 55, 64
1, 471094, Control_c, 0, 67, 43
1, 471109, Control_c, 0, 67, 43
1, 471131, Note_on_c, 0, 84, 56
1, 471139, Control_c, 0, 67, 44
1, 471153, Control_c, 0, 67, 44
1, 471159, Note_off_c, 0, 72, 40
1, 471168, Control_c, 0, 67, 45
1, 471183, Control_c, 0, 67, 46
1, 471197, Control_c, 0, 67, 48
1, 471212, Control_c, 0, 67, 49
1, 471228, Control_c, 0, 67, 50
1, 471243, Control_c, 0, 67, 50
1, 471253, Note_on_c, 0, 37, 64
1, 471273, Note_on_c, 0, 77, 44
1, 471273, Control_c, 0, 67, 51
1, 471281, Note_off_c, 0, 37, 59
1, 471302, Note_off_c, 0, 84, 34
1, 471385, Note_off_c, 0, 82, 38
1, 471414, Control_c, 0, 67, 50
1, 471439, Note_off_c, 0, 77, 61
1, 471444, Note_on_c, 0, 55, 82
1, 471453, Note_on_c, 0, 72, 63
1, 471463, Note_off_c, 0, 55, 72
1, 471502, Control_c, 0, 67, 51
1, 471517, Note_off_c, 0, 72, 60
1, 471532, Control_c, 0, 67, 52
1, 471562, Control_c, 0, 67, 52
1, 471576, Control_c, 0, 67, 53
1, 471591, Control_c, 0, 67, 54
1, 471606, Control_c, 0, 67, 56
1, 471607, Note_on_c, 0, 70, 58
1, 471621, Control_c, 0, 67, 57
1, 471635, Control_c, 0, 67, 58
1, 471650, Control_c, 0, 67, 60
1, 471665, Control_c, 0, 67, 60
1, 471680, Control_c, 0, 67, 61
1, 471695, Control_c, 0, 67, 63
1, 471709, Control_c, 0, 67, 64
1, 471724, Control_c, 0, 67, 66
1, 471739, Control_c, 0, 67, 68
1, 471754, Control_c, 0, 67, 69
1, 471756, Note_on_c, 0, 65, 58
1, 471769, Control_c, 0, 67, 70
1, 471784, Control_c, 0, 67, 70
1, 471799, Control_c, 0, 67, 71
1, 471821, Note_off_c, 0, 70, 51
1, 471828, Control_c, 0, 67, 71
1, 471873, Note_on_c, 0, 55, 78
1, 471891, Note_off_c, 0, 65, 61
1, 471906, Note_on_c, 0, 60, 55
1, 471946, Note_off_c, 0, 60, 64
1, 471953, Note_off_c, 0, 55, 63
1, 472006, Control_c, 0, 67, 71
1, 472081, Control_c, 0, 67, 70
1, 472106, Note_on_c, 0, 55, 57
1, 472114, Note_on_c, 0, 36, 58
1, 472147, Control_c, 0, 67, 70
1, 472177, Control_c, 0, 64, 96
1, 472177, Control_c, 0, 67, 69
1, 472192, Control_c, 0, 64, 71
1, 472207, Control_c, 0, 64, 0
1, 472207, Control_c, 0, 67, 69
1, 472222, Control_c, 0, 67, 68
1, 472237, Control_c, 0, 64, 42
1, 472237, Control_c, 0, 67, 67
1, 472252, Control_c, 0, 64, 63
1, 472252, Control_c, 0, 67, 66
1, 472267, Control_c, 0, 64, 70
1, 472267, Control_c, 0, 67, 66
1, 472281, Control_c, 0, 64, 83
1, 472281, Control_c, 0, 67, 65
1, 472296, Control_c, 0, 64, 111
1, 472311, Control_c, 0, 64, 127
1, 472314, Note_on_c, 0, 60, 47
1, 472413, Note_off_c, 0, 55, 37
1, 472450, Note_off_c, 0, 60, 58
1, 472454, Note_on_c, 0, 64, 63
1, 472459, Control_c, 0, 67, 66
1, 472580, Note_off_c, 0, 64, 62
1, 472586, Note_on_c, 0, 70, 59
1, 472651, Control_c, 0, 67, 65
1, 472654, Note_off_c, 0, 70, 61
1, 472691, Note_on_c, 0, 46, 77
1, 472751, Note_on_c, 0, 72, 55
1, 472770, Control_c, 0, 67, 66
1, 472873, Note_on_c, 0, 82, 55
1, 472882, Control_c, 0, 67, 66
1, 472905, Note_off_c, 0, 46, 62
1, 472999, Note_on_c, 0, 84, 51
1, 473045, Note_off_c, 0, 72, 35
1, 473103, Note_on_c, 0, 77, 54
1, 473117, Note_off_c, 0, 84, 49
1, 473179, Control_c, 0, 67, 66
1, 473208, Control_c, 0, 67, 65
1, 473238, Control_c, 0, 67, 65
1, 473243, Note_off_c, 0, 82, 44
1, 473273, Note_off_c, 0, 77, 57
1, 473276, Note_on_c, 0, 46, 80
1, 473301, Note_on_c, 0, 72, 56
1, 473307, Note_on_c, 0, 37, 62
1, 473312, Control_c, 0, 67, 65
1, 473356, Control_c, 0, 64, 109
1, 473371, Control_c, 0, 64, 76
1, 473371, Control_c, 0, 67, 65
1, 473386, Control_c, 0, 64, 51
1, 473400, Control_c, 0, 64, 0
1, 473424, Note_off_c, 0, 72, 53
1, 473430, Control_c, 0, 67, 65
1, 473436, Note_off_c, 0, 36, 36
1, 473445, Control_c, 0, 64, 43
1, 473460, Control_c, 0, 64, 66
1, 473474, Control_c, 0, 64, 75
1, 473486, Note_on_c, 0, 70, 52
1, 473489, Control_c, 0, 64, 89
1, 473504, Control_c, 0, 64, 117
1, 473504, Control_c, 0, 67, 66
1, 473519, Control_c, 0, 64, 127
1, 473533, Control_c, 0, 67, 66
1, 473600, Control_c, 0, 67, 67
1, 473631, Control_c, 0, 67, 67
1, 473653, Note_off_c, 0, 46, 59
1, 473661, Control_c, 0, 67, 68
1, 473676, Control_c, 0, 67, 68
1, 473681, Note_on_c, 0, 65, 48
1, 473691, Control_c, 0, 67, 69
1, 473704, Control_c, 0, 67, 69
1, 473719, Control_c, 0, 67, 70
1, 473734, Control_c, 0, 67, 70
1, 473749, Control_c, 0, 67, 71
1, 473764, Control_c, 0, 67, 72
1, 473776, Note_off_c, 0, 70, 61
1, 473793, Control_c, 0, 67, 72
1, 473823, Control_c, 0, 67, 73
1, 473852, Control_c, 0, 67, 73
1, 473855, Note_off_c, 0, 65, 62
1, 473856, Note_on_c, 0, 46, 70
1, 473867, Control_c, 0, 67, 75
1, 473869, Note_on_c, 0, 60, 55
1, 473882, Control_c, 0, 67, 77
1, 473897, Control_c, 0, 67, 77
1, 473912, Control_c, 0, 67, 78
1, 473941, Control_c, 0, 67, 78
1, 473951, Note_off_c, 0, 60, 61
1, 474045, Control_c, 0, 67, 79
1, 474169, Note_on_c, 0, 55, 63
1, 474208, Control_c, 0, 67, 78
1, 474222, Control_c, 0, 67, 78
1, 474229, Note_on_c, 0, 36, 57
1, 474237, Control_c, 0, 67, 77
1, 474252, Control_c, 0, 67, 76
1, 474264, Note_off_c, 0, 37, 58
1, 474265, Note_off_c, 0, 46, 58
1, 474267, Control_c, 0, 67, 75
1, 474282, Control_c, 0, 64, 88
1, 474282, Control_c, 0, 67, 75
1, 474297, Control_c, 0, 64, 65
1, 474297, Control_c, 0, 67, 74
1, 474311, Control_c, 0, 64, 0
1, 474311, Control_c, 0, 67, 73
1, 474326, Control_c, 0, 67, 73
1, 474348, Control_c, 0, 67, 72
1, 474408, Control_c, 0, 64, 55
1, 474408, Control_c, 0, 67, 71
1, 474424, Control_c, 0, 64, 68
1, 474424, Control_c, 0, 67, 70
1, 474439, Control_c, 0, 64, 75
1, 474439, Control_c, 0, 67, 69
1, 474453, Control_c, 0, 64, 87
1, 474453, Control_c, 0, 67, 69
1, 474455, Note_on_c, 0, 60, 43
1, 474468, Control_c, 0, 64, 106
1, 474468, Control_c, 0, 67, 68
1, 474483, Control_c, 0, 64, 127
1, 474498, Control_c, 0, 67, 67
1, 474542, Control_c, 0, 67, 67
1, 474571, Control_c, 0, 67, 66
1, 474574, Note_off_c, 0, 55, 36
1, 474601, Note_off_c, 0, 60, 61
1, 474619, Note_on_c, 0, 64, 53
1, 474690, Control_c, 0, 67, 67
1, 474720, Control_c, 0, 67, 67
1, 474726, Note_off_c, 0, 64, 62
1, 474735, Control_c, 0, 67, 68
1, 474746, Note_on_c, 0, 70, 60
1, 474750, Control_c, 0, 67, 68
1, 474765, Control_c, 0, 67, 69
1, 474779, Control_c, 0, 67, 70
1, 474781, Note_off_c, 0, 70, 63
1, 474794, Control_c, 0, 67, 71
1, 474809, Control_c, 0, 67, 72
1, 474824, Control_c, 0, 67, 75
1, 474839, Control_c, 0, 67, 77
1, 474848, Note_off_c, 0, 36, 59
1, 474853, Control_c, 0, 67, 80
1, 474868, Control_c, 0, 67, 86
1, 474879, Note_on_c, 0, 72, 58
1, 474883, Control_c, 0, 67, 94
1, 474898, Control_c, 0, 67, 100
1, 474912, Control_c, 0, 67, 106
1, 474927, Control_c, 0, 67, 109
1, 474942, Control_c, 0, 67, 112
1, 474957, Control_c, 0, 67, 114
1, 474971, Control_c, 0, 67, 115
1, 474986, Control_c, 0, 67, 116
1, 474997, Note_on_c, 0, 82, 55
1, 475001, Control_c, 0, 67, 117
1, 475016, Control_c, 0, 67, 117
1, 475021, Note_on_c, 0, 55, 73
1, 475045, Control_c, 0, 67, 118
1, 475060, Control_c, 0, 67, 119
1, 475070, Note_off_c, 0, 55, 64
1, 475075, Control_c, 0, 67, 121
1, 475097, Control_c, 0, 67, 122
1, 475112, Control_c, 0, 67, 125
1, 475127, Control_c, 0, 67, 126
1, 475142, Control_c, 0, 67, 127
1, 475147, Note_on_c, 0, 84, 55
1, 475148, Note_off_c, 0, 72, 35
1, 475218, Note_on_c, 0, 37, 67
1, 475268, Note_off_c, 0, 37, 61
1, 475284, Note_on_c, 0, 77, 45
1, 475304, Note_off_c, 0, 84, 36
1, 475389, Note_off_c, 0, 82, 37
1, 475436, Note_off_c, 0, 77, 57
1, 475476, Note_on_c, 0, 72, 49
1, 475482, Note_on_c, 0, 55, 71
1, 475528, Note_off_c, 0, 55, 58
1, 475539, Note_off_c, 0, 72, 54
1, 475629, Note_on_c, 0, 70, 52
1, 475809, Note_on_c, 0, 65, 49
1, 475823, Note_off_c, 0, 70, 38
1, 475927, Note_off_c, 0, 65, 59
1, 475978, Note_on_c, 0, 55, 64
1, 475982, Note_on_c, 0, 60, 49
1, 476025, Note_off_c, 0, 60, 64
1, 476042, Note_off_c, 0, 55, 63
1, 476240, Note_on_c, 0, 55, 52
1, 476247, Note_on_c, 0, 36, 55
1, 476307, Control_c, 0, 64, 112
1, 476322, Control_c, 0, 64, 79
1, 476337, Control_c, 0, 64, 62
1, 476351, Control_c, 0, 64, 0
1, 476411, Control_c, 0, 64, 58
1, 476425, Control_c, 0, 64, 67
1, 476440, Control_c, 0, 64, 77
1, 476443, Note_on_c, 0, 60, 45
1, 476455, Control_c, 0, 64, 90
1, 476470, Control_c, 0, 64, 119
1, 476485, Control_c, 0, 64, 127
1, 476535, Note_off_c, 0, 55, 37
1, 476582, Note_on_c, 0, 64, 55
1, 476595, Note_off_c, 0, 60, 56
1, 476716, Note_off_c, 0, 64, 63
1, 476729, Note_on_c, 0, 69, 57
1, 476765, Note_off_c, 0, 69, 63
1, 476789, Control_c, 0, 67, 127
1, 476804, Control_c, 0, 67, 126
1, 476819, Control_c, 0, 67, 126
1, 476834, Control_c, 0, 67, 125
1, 476848, Control_c, 0, 67, 124
1, 476863, Control_c, 0, 67, 123
1, 476878, Control_c, 0, 67, 122
1, 476880, Note_on_c, 0, 46, 59
1, 476893, Control_c, 0, 67, 121
1, 476903, Note_on_c, 0, 72, 58
1, 476908, Control_c, 0, 67, 118
1, 476923, Control_c, 0, 67, 117
1, 476938, Control_c, 0, 67, 114
1, 476953, Control_c, 0, 67, 112
1, 476967, Control_c, 0, 67, 109
1, 476982, Control_c, 0, 67, 106
1, 476997, Control_c, 0, 67, 102
1, 477012, Control_c, 0, 67, 97
1, 477027, Control_c, 0, 67, 92
1, 477041, Control_c, 0, 67, 87
1, 477047, Note_on_c, 0, 81, 65
1, 477056, Control_c, 0, 67, 81
1, 477071, Control_c, 0, 67, 76
1, 477086, Control_c, 0, 67, 71
1, 477101, Control_c, 0, 67, 66
1, 477115, Control_c, 0, 67, 64
1, 477130, Control_c, 0, 67, 64
1, 477145, Control_c, 0, 67, 63
1, 477183, Note_off_c, 0, 72, 37
1, 477189, Control_c, 0, 67, 64
1, 477199, Note_off_c, 0, 81, 62
1, 477204, Control_c, 0, 67, 66
1, 477219, Control_c, 0, 67, 68
1, 477229, Note_on_c, 0, 84, 63
1, 477234, Control_c, 0, 67, 70
1, 477248, Control_c, 0, 67, 72
1, 477254, Note_off_c, 0, 36, 57
1, 477263, Control_c, 0, 67, 74
1, 477278, Control_c, 0, 67, 76
1, 477293, Control_c, 0, 67, 76
1, 477308, Control_c, 0, 67, 77
1, 477322, Control_c, 0, 67, 77
1, 477360, Control_c, 0, 67, 78
1, 477389, Control_c, 0, 67, 78
1, 477404, Control_c, 0, 67, 79
1, 477418, Note_on_c, 0, 82, 68
1, 477419, Control_c, 0, 67, 81
1, 477422, Note_off_c, 0, 84, 39
1, 477434, Control_c, 0, 67, 83
1, 477446, Note_on_c, 0, 70, 46
1, 477448, Control_c, 0, 67, 86
1, 477463, Control_c, 0, 67, 89
1, 477478, Control_c, 0, 67, 94
1, 477493, Control_c, 0, 67, 99
1, 477508, Control_c, 0, 67, 105
1, 477512, Note_off_c, 0, 82, 51
1, 477522, Control_c, 0, 67, 109
1, 477537, Note_off_c, 0, 70, 51
1, 477537, Control_c, 0, 67, 113
1, 477552, Control_c, 0, 67, 116
1, 477567, Control_c, 0, 67, 118
1, 477582, Control_c, 0, 67, 120
1, 477596, Control_c, 0, 67, 121
1, 477612, Control_c, 0, 67, 121
1, 477725, Note_on_c, 0, 45, 51
1, 477732, Note_on_c, 0, 37, 46
1, 477739, Note_on_c, 0, 81, 54
1, 477740, Note_on_c, 0, 69, 49
1, 477775, Control_c, 0, 64, 88
1, 477777, Note_off_c, 0, 46, 49
1, 477790, Control_c, 0, 64, 66
1, 477805, Control_c, 0, 64, 0
1, 477853, Note_off_c, 0, 69, 58
1, 477879, Control_c, 0, 64, 59
1, 477894, Control_c, 0, 64, 70
1, 477909, Control_c, 0, 64, 81
1, 477924, Control_c, 0, 64, 99
1, 477938, Control_c, 0, 64, 127
1, 477967, Note_on_c, 0, 79, 63
1, 477984, Note_on_c, 0, 67, 50
1, 477984, Note_off_c, 0, 81, 54
1, 478031, Note_off_c, 0, 67, 57
1, 478031, Note_off_c, 0, 79, 58
1, 478042, Control_c, 0, 67, 122
1, 478071, Control_c, 0, 67, 122
1, 478123, Control_c, 0, 67, 123
1, 478138, Control_c, 0, 67, 123
1, 478153, Control_c, 0, 67, 124
1, 478154, Note_on_c, 0, 77, 63
1, 478168, Control_c, 0, 67, 127
1, 478171, Note_on_c, 0, 65, 46
1, 478201, Note_off_c, 0, 45, 36
1, 478202, Note_off_c, 0, 65, 61
1, 478310, Note_off_c, 0, 77, 54
1, 478313, Note_on_c, 0, 45, 59
1, 478320, Note_on_c, 0, 76, 67
1, 478339, Note_on_c, 0, 64, 48
1, 478386, Note_off_c, 0, 64, 59
1, 478392, Note_off_c, 0, 37, 40
1, 478618, Note_on_c, 0, 79, 63
1, 478623, Note_on_c, 0, 46, 56
1, 478632, Note_on_c, 0, 67, 52
1, 478640, Note_off_c, 0, 76, 51
1, 478646, Note_on_c, 0, 38, 47
1, 478657, Control_c, 0, 64, 98
1, 478672, Control_c, 0, 64, 74
1, 478684, Note_off_c, 0, 45, 55
1, 478686, Control_c, 0, 64, 0
1, 478720, Note_off_c, 0, 67, 59
1, 478775, Control_c, 0, 64, 52
1, 478790, Control_c, 0, 64, 68
1, 478804, Control_c, 0, 64, 78
1, 478819, Control_c, 0, 64, 90
1, 478842, Control_c, 0, 64, 106
1, 478857, Note_on_c, 0, 77, 66
1, 478857, Control_c, 0, 64, 127
1, 478873, Note_on_c, 0, 65, 52
1, 478889, Note_off_c, 0, 79, 57
1, 478913, Note_off_c, 0, 77, 57
1, 478917, Note_off_c, 0, 65, 61
1, 479014, Note_on_c, 0, 76, 70
1, 479026, Note_on_c, 0, 64, 55
1, 479040, Note_off_c, 0, 76, 66
1, 479051, Note_off_c, 0, 64, 61
1, 479158, Note_on_c, 0, 74, 62
1, 479167, Note_on_c, 0, 62, 42
1, 479197, Note_off_c, 0, 62, 54
1, 479305, Note_on_c, 0, 45, 67
1, 479310, Note_off_c, 0, 74, 59
1, 479315, Note_on_c, 0, 73, 70
1, 479317, Note_on_c, 0, 61, 48
1, 479322, Note_off_c, 0, 46, 56
1, 479332, Control_c, 0, 64, 101
1, 479347, Control_c, 0, 64, 76
1, 479355, Note_off_c, 0, 61, 58
1, 479361, Control_c, 0, 64, 43
1, 479376, Control_c, 0, 64, 0
1, 479391, Control_c, 0, 64, 40
1, 479406, Control_c, 0, 64, 63
1, 479421, Control_c, 0, 64, 69
1, 479436, Control_c, 0, 64, 76
1, 479448, Note_on_c, 0, 74, 68
1, 479451, Control_c, 0, 64, 88
1, 479451, Note_on_c, 0, 62, 60
1, 479465, Control_c, 0, 64, 101
1, 479471, Note_off_c, 0, 73, 41
1, 479480, Control_c, 0, 64, 122
1, 479495, Control_c, 0, 64, 127
1, 479498, Note_off_c, 0, 62, 59
1, 479594, Note_off_c, 0, 74, 58
1, 479609, Note_on_c, 0, 75, 74
1, 479621, Note_on_c, 0, 63, 60
1, 479650, Control_c, 0, 67, 126
1, 479653, Note_off_c, 0, 63, 64
1, 479665, Control_c, 0, 67, 124
1, 479680, Note_off_c, 0, 75, 60
1, 479680, Control_c, 0, 67, 122
1, 479695, Control_c, 0, 67, 121
1, 479709, Control_c, 0, 67, 119
1, 479724, Control_c, 0, 67, 117
1, 479739, Control_c, 0, 67, 116
1, 479741, Note_on_c, 0, 74, 78
1, 479754, Control_c, 0, 67, 115
1, 479756, Note_on_c, 0, 62, 59
1, 479768, Control_c, 0, 67, 114
1, 479773, Note_off_c, 0, 45, 54
1, 479783, Control_c, 0, 67, 113
1, 479787, Note_off_c, 0, 62, 63
1, 479791, Note_off_c, 0, 74, 64
1, 479798, Control_c, 0, 67, 112
1, 479813, Control_c, 0, 67, 111
1, 479815, Note_off_c, 0, 38, 41
1, 479828, Control_c, 0, 67, 111
1, 479842, Control_c, 0, 67, 110
1, 479857, Control_c, 0, 67, 110
1, 479872, Control_c, 0, 67, 109
1, 479886, Control_c, 0, 67, 109
1, 479908, Note_on_c, 0, 45, 73
1, 479909, Note_on_c, 0, 72, 73
1, 479916, Control_c, 0, 64, 113
1, 479919, Note_on_c, 0, 60, 59
1, 479924, Note_on_c, 0, 38, 61
1, 479931, Control_c, 0, 64, 75
1, 479946, Control_c, 0, 64, 21
1, 479946, Control_c, 0, 67, 108
1, 479955, Note_off_c, 0, 60, 64
1, 479960, Control_c, 0, 64, 0
1, 479975, Control_c, 0, 67, 107
1, 479990, Control_c, 0, 64, 49
1, 479990, Control_c, 0, 67, 105
1, 480005, Control_c, 0, 64, 66
1, 480005, Control_c, 0, 67, 103
1, 480021, Control_c, 0, 64, 79
1, 480021, Control_c, 0, 67, 101
1, 480036, Control_c, 0, 64, 95
1, 480036, Control_c, 0, 67, 98
1, 480051, Control_c, 0, 64, 127
1, 480051, Control_c, 0, 67, 97
1, 480065, Control_c, 0, 67, 96
1, 480071, Note_on_c, 0, 70, 71
1, 480080, Control_c, 0, 67, 94
1, 480088, Note_on_c, 0, 58, 60
1, 480095, Control_c, 0, 67, 94
1, 480098, Note_off_c, 0, 72, 57
1, 480110, Control_c, 0, 67, 93
1, 480125, Control_c, 0, 67, 92
1, 480130, Note_off_c, 0, 58, 59
1, 480139, Control_c, 0, 67, 92
1, 480148, Note_off_c, 0, 70, 61
1, 480169, Control_c, 0, 67, 91
1, 480184, Control_c, 0, 67, 90
1, 480199, Control_c, 0, 67, 89
1, 480214, Control_c, 0, 67, 88
1, 480229, Control_c, 0, 67, 87
1, 480235, Note_on_c, 0, 69, 73
1, 480243, Note_on_c, 0, 48, 80
1, 480243, Control_c, 0, 67, 86
1, 480249, Note_on_c, 0, 57, 60
1, 480258, Control_c, 0, 67, 85
1, 480273, Control_c, 0, 67, 84
1, 480276, Note_off_c, 0, 45, 64
1, 480281, Note_off_c, 0, 57, 63
1, 480285, Note_off_c, 0, 69, 60
1, 480288, Control_c, 0, 67, 83
1, 480303, Control_c, 0, 67, 82
1, 480308, Note_off_c, 0, 38, 55
1, 480318, Control_c, 0, 67, 81
1, 480339, Control_c, 0, 67, 79
1, 480354, Control_c, 0, 67, 77
1, 480369, Control_c, 0, 67, 76
1, 480384, Control_c, 0, 67, 75
1, 480398, Control_c, 0, 67, 74
1, 480408, Note_on_c, 0, 67, 75
1, 480413, Control_c, 0, 67, 73
1, 480415, Note_on_c, 0, 55, 66
1, 480428, Control_c, 0, 67, 72
1, 480443, Control_c, 0, 67, 71
1, 480449, Note_off_c, 0, 55, 64
1, 480457, Control_c, 0, 67, 70
1, 480472, Control_c, 0, 67, 69
1, 480487, Control_c, 0, 67, 69
1, 480502, Control_c, 0, 67, 68
1, 480516, Control_c, 0, 67, 68
1, 480675, Note_on_c, 0, 66, 68
1, 480681, Note_off_c, 0, 67, 55
1, 480683, Note_on_c, 0, 51, 87
1, 480694, Control_c, 0, 64, 94
1, 480694, Control_c, 0, 67, 68
1, 480708, Note_on_c, 0, 54, 34
1, 480708, Control_c, 0, 64, 71
1, 480723, Control_c, 0, 64, 0
1, 480738, Note_on_c, 0, 43, 45
1, 480741, Note_off_c, 0, 54, 48
1, 480744, Note_off_c, 0, 48, 55
1, 480783, Control_c, 0, 67, 69
1, 480798, Control_c, 0, 64, 61
1, 480813, Control_c, 0, 64, 70
1, 480828, Control_c, 0, 64, 79
1, 480843, Control_c, 0, 64, 94
1, 480858, Control_c, 0, 64, 116
1, 480872, Note_on_c, 0, 69, 64
1, 480873, Control_c, 0, 64, 127
1, 480877, Note_on_c, 0, 57, 61
1, 480893, Note_off_c, 0, 66, 36
1, 480908, Note_off_c, 0, 57, 65
1, 480919, Note_off_c, 0, 69, 59
1, 480932, Control_c, 0, 67, 70
1, 480947, Control_c, 0, 67, 72
1, 480962, Control_c, 0, 67, 74
1, 480977, Control_c, 0, 67, 75
1, 480992, Control_c, 0, 67, 77
1, 481006, Control_c, 0, 67, 79
1, 481021, Control_c, 0, 67, 81
1, 481036, Control_c, 0, 67, 84
1, 481039, Note_on_c, 0, 72, 67
1, 481048, Note_on_c, 0, 60, 46
1, 481051, Control_c, 0, 67, 87
1, 481066, Control_c, 0, 67, 91
1, 481084, Note_off_c, 0, 60, 55
1, 481087, Control_c, 0, 67, 95
1, 481102, Control_c, 0, 67, 100
1, 481117, Control_c, 0, 67, 103
1, 481132, Control_c, 0, 67, 105
1, 481147, Control_c, 0, 67, 107
1, 481161, Note_off_c, 0, 72, 59
1, 481162, Control_c, 0, 67, 108
1, 481176, Control_c, 0, 67, 110
1, 481191, Note_on_c, 0, 74, 75
1, 481191, Control_c, 0, 67, 112
1, 481194, Note_on_c, 0, 62, 63
1, 481206, Control_c, 0, 67, 114
1, 481221, Control_c, 0, 67, 116
1, 481227, Note_off_c, 0, 62, 61
1, 481236, Control_c, 0, 67, 117
1, 481251, Control_c, 0, 67, 119
1, 481266, Control_c, 0, 67, 121
1, 481281, Control_c, 0, 67, 123
1, 481295, Control_c, 0, 67, 126
1, 481310, Control_c, 0, 67, 127
1, 481399, Control_c, 0, 64, 110
1, 481413, Note_on_c, 0, 50, 61
1, 481413, Control_c, 0, 64, 81
1, 481415, Note_on_c, 0, 75, 64
1, 481420, Note_off_c, 0, 74, 60
1, 481428, Control_c, 0, 64, 60
1, 481436, Note_off_c, 0, 51, 62
1, 481439, Note_on_c, 0, 63, 46
1, 481443, Control_c, 0, 64, 0
1, 481516, Note_off_c, 0, 63, 56
1, 481517, Control_c, 0, 64, 61
1, 481531, Control_c, 0, 64, 69
1, 481546, Control_c, 0, 64, 77
1, 481561, Control_c, 0, 64, 85
1, 481576, Control_c, 0, 64, 91
1, 481584, Note_on_c, 0, 74, 67
1, 481591, Control_c, 0, 64, 95
1, 481600, Note_on_c, 0, 62, 52
1, 481607, Control_c, 0, 64, 101
1, 481622, Note_off_c, 0, 75, 45
1, 481622, Control_c, 0, 64, 108
1, 481636, Control_c, 0, 64, 122
1, 481643, Note_off_c, 0, 74, 62
1, 481646, Note_off_c, 0, 62, 56
1, 481651, Control_c, 0, 64, 127
1, 481756, Note_on_c, 0, 72, 66
1, 481761, Note_on_c, 0, 60, 61
1, 481797, Note_off_c, 0, 60, 63
1, 481912, Note_off_c, 0, 72, 50
1, 481936, Note_on_c, 0, 70, 65
1, 481961, Note_on_c, 0, 58, 44
1, 481999, Note_off_c, 0, 50, 37
1, 482001, Note_off_c, 0, 58, 59
1, 482019, Note_off_c, 0, 70, 56
1, 482024, Note_off_c, 0, 43, 34
1, 482163, Control_c, 0, 64, 87
1, 482173, Note_on_c, 0, 69, 54
1, 482178, Control_c, 0, 64, 69
1, 482190, Note_on_c, 0, 43, 51
1, 482193, Control_c, 0, 64, 49
1, 482197, Note_on_c, 0, 57, 38
1, 482201, Note_on_c, 0, 50, 39
1, 482208, Control_c, 0, 64, 46
1, 482223, Control_c, 0, 64, 61
1, 482237, Control_c, 0, 64, 66
1, 482252, Control_c, 0, 64, 73
1, 482266, Note_off_c, 0, 50, 62
1, 482267, Control_c, 0, 64, 81
1, 482281, Control_c, 0, 64, 93
1, 482295, Note_off_c, 0, 43, 62
1, 482296, Control_c, 0, 64, 107
1, 482311, Control_c, 0, 64, 127
1, 482383, Note_off_c, 0, 57, 57
1, 482461, Note_on_c, 0, 58, 56
1, 482476, Note_on_c, 0, 67, 56
1, 482524, Note_off_c, 0, 58, 46
1, 482529, Note_off_c, 0, 69, 43
1, 482676, Note_off_c, 0, 67, 52
1, 482682, Note_on_c, 0, 66, 53
1, 482862, Note_on_c, 0, 55, 46
1, 482868, Note_on_c, 0, 67, 59
1, 482899, Note_off_c, 0, 66, 47
1, 482945, Note_off_c, 0, 67, 53
1, 483098, Note_on_c, 0, 67, 53
1, 483108, Note_on_c, 0, 57, 42
1, 483110, Note_on_c, 0, 48, 43
1, 483134, Control_c, 0, 64, 114
1, 483149, Control_c, 0, 64, 105
1, 483164, Control_c, 0, 64, 96
1, 483178, Control_c, 0, 64, 88
1, 483193, Control_c, 0, 64, 82
1, 483209, Control_c, 0, 64, 76
1, 483224, Control_c, 0, 64, 71
1, 483239, Control_c, 0, 64, 66
1, 483254, Control_c, 0, 64, 63
1, 483269, Control_c, 0, 64, 59
1, 483283, Control_c, 0, 64, 53
1, 483298, Note_on_c, 0, 65, 58
1, 483298, Control_c, 0, 64, 36
1, 483308, Note_on_c, 0, 53, 49
1, 483313, Control_c, 0, 64, 0
1, 483386, Note_off_c, 0, 67, 38
1, 483391, Note_off_c, 0, 55, 35
1, 483478, Note_on_c, 0, 64, 56
1, 483489, Note_off_c, 0, 53, 57
1, 483490, Note_on_c, 0, 52, 49
1, 483517, Note_off_c, 0, 65, 60
1, 483656, Note_on_c, 0, 65, 48
1, 483657, Note_on_c, 0, 53, 37
1, 483698, Note_off_c, 0, 64, 58
1, 483750, Note_off_c, 0, 52, 31
1, 483880, Note_on_c, 0, 67, 39
1, 483888, Note_on_c, 0, 55, 38
1, 483907, Note_off_c, 0, 53, 44
1, 483965, Note_off_c, 0, 65, 54
1, 484121, Note_on_c, 0, 65, 32
1, 484143, Note_on_c, 0, 53, 33
1, 484150, Note_off_c, 0, 55, 42
1, 484208, Note_off_c, 0, 67, 37
1, 484351, Note_off_c, 0, 65, 55
1, 484351, Note_on_c, 0, 64, 35
1, 484359, Note_off_c, 0, 53, 47
1, 484368, Note_on_c, 0, 52, 31
1, 484438, Control_c, 0, 64, 47
1, 484453, Control_c, 0, 64, 63
1, 484468, Control_c, 0, 64, 68
1, 484482, Control_c, 0, 64, 71
1, 484497, Control_c, 0, 64, 75
1, 484512, Control_c, 0, 64, 79
1, 484527, Control_c, 0, 64, 82
1, 484542, Control_c, 0, 64, 86
1, 484557, Control_c, 0, 64, 91
1, 484572, Control_c, 0, 64, 95
1, 484579, Note_on_c, 0, 65, 38
1, 484587, Control_c, 0, 64, 99
1, 484593, Note_on_c, 0, 53, 38
1, 484602, Control_c, 0, 64, 102
1, 484616, Note_off_c, 0, 64, 36
1, 484616, Control_c, 0, 64, 105
1, 484631, Control_c, 0, 64, 108
1, 484646, Control_c, 0, 64, 112
1, 484661, Control_c, 0, 64, 115
1, 484663, Note_off_c, 0, 52, 38
1, 484675, Control_c, 0, 64, 120
1, 484690, Control_c, 0, 64, 124
1, 484695, Note_off_c, 0, 48, 34
1, 484705, Control_c, 0, 64, 127
1, 484706, Note_off_c, 0, 57, 36
1, 484715, Note_off_c, 0, 53, 30
1, 484719, Note_off_c, 0, 65, 44
1, 484941, Note_on_c, 0, 65, 46
1, 484966, Control_c, 0, 64, 123
1, 484980, Note_on_c, 0, 49, 37
1, 484980, Control_c, 0, 64, 115
1, 484982, Note_on_c, 0, 53, 37
1, 484989, Note_on_c, 0, 57, 27
1, 484995, Control_c, 0, 64, 109
1, 485010, Control_c, 0, 64, 101
1, 485025, Control_c, 0, 64, 92
1, 485040, Control_c, 0, 64, 84
1, 485055, Control_c, 0, 64, 76
1, 485070, Control_c, 0, 64, 67
1, 485084, Control_c, 0, 64, 62
1, 485099, Control_c, 0, 64, 52
1, 485114, Control_c, 0, 64, 32
1, 485129, Control_c, 0, 64, 0
1, 485233, Note_on_c, 0, 64, 44
1, 485247, Note_on_c, 0, 52, 31
1, 485259, Note_off_c, 0, 53, 57
1, 485305, Note_off_c, 0, 65, 33
1, 485494, Note_on_c, 0, 63, 45
1, 485508, Note_on_c, 0, 51, 33
1, 485532, Note_off_c, 0, 52, 41
1, 485535, Note_off_c, 0, 64, 55
1, 485747, Note_on_c, 0, 64, 46
1, 485772, Note_on_c, 0, 52, 32
1, 485776, Note_off_c, 0, 51, 45
1, 485779, Note_off_c, 0, 63, 50
1, 485877, Control_c, 0, 64, 51
1, 485892, Control_c, 0, 64, 67
1, 485907, Control_c, 0, 64, 74
1, 485922, Control_c, 0, 64, 83
1, 485937, Control_c, 0, 64, 92
1, 485952, Control_c, 0, 64, 103
1, 485961, Note_off_c, 0, 64, 32
1, 485967, Control_c, 0, 64, 126
1, 485982, Control_c, 0, 64, 127
1, 485985, Note_off_c, 0, 52, 37
1, 486014, Note_off_c, 0, 49, 42
1, 486020, Note_off_c, 0, 57, 34
1, 486220, Note_on_c, 0, 57, 21
1, 486231, Note_on_c, 0, 64, 35
1, 486249, Note_on_c, 0, 49, 27
1, 486253, Note_on_c, 0, 52, 26
1, 486363, Note_off_c, 0, 52, 37
1, 486373, Note_off_c, 0, 49, 37
1, 486382, Note_off_c, 0, 57, 41
1, 486869, Note_off_c, 0, 64, 51
1, 487078, Note_on_c, 0, 73, 36
1, 487082, Note_on_c, 0, 64, 22
1, 487091, Note_on_c, 0, 69, 35
1, 487102, Note_on_c, 0, 61, 26
1, 487257, Note_off_c, 0, 73, 45
1, 487264, Note_off_c, 0, 61, 41
1, 487266, Note_off_c, 0, 69, 37
1, 487284, Note_off_c, 0, 64, 40
1, 487346, Control_c, 0, 67, 126
1, 487361, Control_c, 0, 67, 125
1, 487375, Control_c, 0, 67, 124
1, 487390, Control_c, 0, 67, 123
1, 487405, Control_c, 0, 67, 122
1, 487420, Control_c, 0, 67, 122
1, 487435, Control_c, 0, 67, 121
1, 487449, Control_c, 0, 67, 121
1, 487464, Control_c, 0, 67, 120
1, 487479, Control_c, 0, 67, 120
1, 487494, Control_c, 0, 67, 119
1, 487496, Note_on_c, 0, 73, 38
1, 487505, Note_on_c, 0, 69, 36
1, 487508, Control_c, 0, 67, 119
1, 487523, Control_c, 0, 67, 118
1, 487535, Note_on_c, 0, 64, 28
1, 487536, Note_on_c, 0, 61, 19
1, 487538, Control_c, 0, 67, 118
1, 487553, Control_c, 0, 67, 117
1, 487568, Control_c, 0, 67, 116
1, 487582, Control_c, 0, 67, 115
1, 487597, Control_c, 0, 67, 114
1, 487612, Control_c, 0, 67, 113
1, 487627, Control_c, 0, 67, 110
1, 487642, Note_off_c, 0, 73, 44
1, 487642, Control_c, 0, 67, 108
1, 487651, Note_off_c, 0, 69, 34
1, 487652, Note_off_c, 0, 61, 30
1, 487657, Control_c, 0, 67, 105
1, 487667, Note_off_c, 0, 64, 31
1, 487672, Control_c, 0, 67, 102
1, 487687, Control_c, 0, 67, 100
1, 487701, Control_c, 0, 67, 97
1, 487716, Control_c, 0, 67, 95
1, 487731, Control_c, 0, 67, 94
1, 487746, Control_c, 0, 67, 92
1, 487761, Control_c, 0, 67, 90
1, 487775, Control_c, 0, 67, 89
1, 487790, Control_c, 0, 67, 88
1, 487805, Control_c, 0, 67, 86
1, 487827, Control_c, 0, 67, 85
1, 487842, Control_c, 0, 67, 84
1, 487857, Control_c, 0, 67, 83
1, 487872, Control_c, 0, 67, 82
1, 487873, Note_on_c, 0, 73, 40
1, 487884, Note_on_c, 0, 69, 35
1, 487887, Control_c, 0, 67, 81
1, 487889, Note_on_c, 0, 61, 21
1, 487893, Note_on_c, 0, 64, 29
1, 487901, Control_c, 0, 67, 80
1, 487916, Control_c, 0, 67, 79
1, 487931, Control_c, 0, 67, 78
1, 487946, Control_c, 0, 67, 76
1, 487961, Control_c, 0, 67, 75
1, 487976, Control_c, 0, 67, 73
1, 487991, Control_c, 0, 67, 72
1, 488006, Control_c, 0, 67, 71
1, 488008, Note_off_c, 0, 73, 36
1, 488014, Note_off_c, 0, 61, 32
1, 488021, Control_c, 0, 67, 69
1, 488025, Note_off_c, 0, 69, 30
1, 488036, Control_c, 0, 67, 68
1, 488038, Note_off_c, 0, 64, 28
1, 488051, Control_c, 0, 67, 66
1, 488066, Control_c, 0, 67, 65
1, 488080, Control_c, 0, 67, 63
1, 488095, Control_c, 0, 67, 62
1, 488110, Control_c, 0, 67, 60
1, 488125, Control_c, 0, 67, 59
1, 488140, Control_c, 0, 67, 58
1, 488155, Control_c, 0, 67, 57
1, 488170, Control_c, 0, 67, 57
1, 488185, Control_c, 0, 67, 56
1, 488199, Control_c, 0, 67, 55
1, 488214, Control_c, 0, 67, 55
1, 488229, Control_c, 0, 67, 54
1, 488244, Control_c, 0, 67, 54
1, 488266, Note_on_c, 0, 73, 50
1, 488273, Control_c, 0, 67, 53
1, 488288, Control_c, 0, 67, 53
1, 488308, Note_on_c, 0, 69, 32
1, 488318, Control_c, 0, 67, 52
1, 488323, Note_on_c, 0, 61, 10
1, 488337, Note_on_c, 0, 64, 27
1, 488347, Control_c, 0, 67, 52
1, 488377, Control_c, 0, 67, 51
1, 488392, Control_c, 0, 67, 50
1, 488406, Control_c, 0, 67, 50
1, 488421, Control_c, 0, 67, 49
1, 488436, Control_c, 0, 67, 48
1, 488451, Control_c, 0, 67, 47
1, 488461, Note_off_c, 0, 69, 46
1, 488466, Control_c, 0, 67, 46
1, 488471, Note_off_c, 0, 64, 42
1, 488475, Note_off_c, 0, 61, 39
1, 488480, Control_c, 0, 67, 45
1, 488495, Control_c, 0, 67, 44
1, 488510, Control_c, 0, 67, 43
1, 488524, Control_c, 0, 67, 42
1, 488539, Control_c, 0, 67, 42
1, 488554, Control_c, 0, 67, 41
1, 488577, Control_c, 0, 67, 41
1, 488636, Control_c, 0, 67, 40
1, 488679, Note_on_c, 0, 74, 62
1, 488706, Note_on_c, 0, 69, 29
1, 488738, Note_on_c, 0, 61, 17
1, 488739, Note_on_c, 0, 64, 27
1, 488766, Note_off_c, 0, 73, 58
1, 488828, Control_c, 0, 67, 41
1, 488843, Control_c, 0, 67, 41
1, 488858, Control_c, 0, 67, 42
1, 488871, Note_off_c, 0, 69, 42
1, 488873, Control_c, 0, 67, 43
1, 488888, Control_c, 0, 67, 43
1, 488893, Note_off_c, 0, 64, 40
1, 488903, Control_c, 0, 67, 44
1, 488915, Note_off_c, 0, 61, 39
1, 488918, Control_c, 0, 67, 45
1, 488933, Control_c, 0, 67, 47
1, 488947, Control_c, 0, 67, 48
1, 488962, Control_c, 0, 67, 49
1, 488977, Control_c, 0, 67, 51
1, 488992, Control_c, 0, 67, 52
1, 489007, Control_c, 0, 67, 52
1, 489021, Control_c, 0, 67, 53
1, 489036, Control_c, 0, 67, 53
1, 489051, Control_c, 0, 67, 54
1, 489065, Control_c, 0, 67, 56
1, 489080, Control_c, 0, 67, 57
1, 489095, Control_c, 0, 67, 58
1, 489110, Control_c, 0, 67, 58
1, 489140, Control_c, 0, 67, 59
1, 489141, Note_off_c, 0, 74, 62
1, 489154, Control_c, 0, 67, 59
1, 489167, Note_on_c, 0, 75, 60
1, 489184, Control_c, 0, 67, 60
1, 489199, Control_c, 0, 67, 60
1, 489214, Control_c, 0, 67, 62
1, 489228, Control_c, 0, 67, 63
1, 489229, Note_on_c, 0, 69, 24
1, 489243, Control_c, 0, 67, 65
1, 489247, Note_on_c, 0, 73, 24
1, 489249, Note_on_c, 0, 61, 29
1, 489251, Note_on_c, 0, 64, 28
1, 489258, Control_c, 0, 67, 66
1, 489273, Control_c, 0, 64, 121
1, 489273, Control_c, 0, 67, 68
1, 489288, Control_c, 0, 64, 97
1, 489288, Control_c, 0, 67, 69
1, 489302, Control_c, 0, 64, 90
1, 489302, Control_c, 0, 67, 70
1, 489325, Control_c, 0, 64, 90
1, 489325, Control_c, 0, 67, 70
1, 489340, Control_c, 0, 64, 91
1, 489340, Control_c, 0, 67, 71
1, 489354, Control_c, 0, 64, 95
1, 489354, Control_c, 0, 67, 72
1, 489369, Control_c, 0, 64, 105
1, 489369, Control_c, 0, 67, 72
1, 489384, Control_c, 0, 64, 127
1, 489384, Control_c, 0, 67, 73
1, 489399, Control_c, 0, 67, 74
1, 489414, Control_c, 0, 67, 75
1, 489428, Control_c, 0, 67, 76
1, 489443, Control_c, 0, 67, 77
1, 489458, Control_c, 0, 67, 78
1, 489472, Control_c, 0, 67, 79
1, 489487, Control_c, 0, 67, 80
1, 489502, Control_c, 0, 67, 82
1, 489515, Note_off_c, 0, 73, 44
1, 489517, Control_c, 0, 67, 83
1, 489527, Note_off_c, 0, 64, 41
1, 489527, Note_off_c, 0, 69, 44
1, 489530, Note_off_c, 0, 61, 39
1, 489532, Control_c, 0, 67, 84
1, 489547, Control_c, 0, 67, 86
1, 489562, Control_c, 0, 67, 87
1, 489577, Control_c, 0, 67, 89
1, 489592, Control_c, 0, 67, 90
1, 489607, Control_c, 0, 67, 91
1, 489622, Control_c, 0, 67, 92
1, 489637, Control_c, 0, 67, 93
1, 489651, Control_c, 0, 67, 93
1, 489666, Control_c, 0, 67, 94
1, 489681, Control_c, 0, 67, 94
1, 489711, Control_c, 0, 67, 95
1, 489741, Control_c, 0, 67, 95
1, 489756, Control_c, 0, 67, 96
1, 489770, Control_c, 0, 67, 96
1, 489797, Note_on_c, 0, 69, 28
1, 489800, Control_c, 0, 67, 97
1, 489801, Note_on_c, 0, 73, 27
1, 489824, Note_on_c, 0, 64, 31
1, 489828, Note_on_c, 0, 61, 9
1, 489844, Control_c, 0, 67, 97
1, 489859, Control_c, 0, 67, 98
1, 489874, Control_c, 0, 67, 98
1, 489888, Control_c, 0, 67, 99
1, 489903, Control_c, 0, 67, 99
1, 489918, Control_c, 0, 67, 100
1, 489946, Note_off_c, 0, 73, 44
1, 489972, Note_off_c, 0, 69, 42
1, 489978, Note_off_c, 0, 64, 40
1, 489984, Note_off_c, 0, 61, 34
1, 490007, Control_c, 0, 67, 100
1, 490089, Control_c, 0, 67, 101
1, 490118, Control_c, 0, 67, 101
1, 490133, Control_c, 0, 67, 102
1, 490148, Control_c, 0, 67, 104
1, 490163, Control_c, 0, 67, 105
1, 490177, Control_c, 0, 67, 106
1, 490192, Control_c, 0, 67, 107
1, 490207, Control_c, 0, 67, 108
1, 490221, Control_c, 0, 67, 108
1, 490236, Control_c, 0, 67, 109
1, 490251, Control_c, 0, 67, 109
1, 490281, Control_c, 0, 67, 110
1, 490295, Note_on_c, 0, 76, 43
1, 490325, Control_c, 0, 67, 110
1, 490336, Note_on_c, 0, 73, 24
1, 490346, Note_on_c, 0, 69, 30
1, 490358, Note_on_c, 0, 61, 21
1, 490361, Note_on_c, 0, 64, 31
1, 490400, Control_c, 0, 67, 111
1, 490411, Note_off_c, 0, 75, 48
1, 490489, Control_c, 0, 67, 110
1, 490512, Note_off_c, 0, 73, 43
1, 490519, Control_c, 0, 67, 110
1, 490525, Note_off_c, 0, 69, 40
1, 490534, Control_c, 0, 67, 109
1, 490548, Note_off_c, 0, 64, 38
1, 490548, Control_c, 0, 67, 108
1, 490563, Control_c, 0, 67, 107
1, 490567, Note_off_c, 0, 61, 35
1, 490578, Control_c, 0, 67, 107
1, 490593, Control_c, 0, 67, 106
1, 490623, Control_c, 0, 67, 106
1, 490632, Note_off_c, 0, 76, 61
1, 490638, Control_c, 0, 67, 105
1, 490653, Control_c, 0, 67, 105
1, 490667, Control_c, 0, 67, 104
1, 490682, Control_c, 0, 67, 104
1, 490697, Control_c, 0, 67, 103
1, 490712, Control_c, 0, 67, 102
1, 490720, Note_on_c, 0, 76, 54
1, 490741, Control_c, 0, 67, 102
1, 490744, Note_on_c, 0, 69, 39
1, 490755, Note_on_c, 0, 61, 10
1, 490756, Control_c, 0, 67, 101
1, 490757, Note_on_c, 0, 73, 28
1, 490771, Control_c, 0, 67, 101
1, 490785, Note_on_c, 0, 64, 23
1, 490785, Control_c, 0, 67, 100
1, 490800, Control_c, 0, 67, 100
1, 490823, Control_c, 0, 67, 99
1, 490838, Control_c, 0, 67, 98
1, 490849, Note_off_c, 0, 64, 44
1, 490852, Control_c, 0, 67, 97
1, 490867, Control_c, 0, 67, 96
1, 490873, Note_off_c, 0, 73, 41
1, 490876, Note_off_c, 0, 69, 34
1, 490882, Control_c, 0, 67, 94
1, 490897, Control_c, 0, 67, 92
1, 490905, Note_off_c, 0, 61, 39
1, 490912, Control_c, 0, 67, 90
1, 490926, Control_c, 0, 67, 87
1, 490941, Control_c, 0, 67, 84
1, 490956, Control_c, 0, 67, 80
1, 490971, Control_c, 0, 67, 76
1, 490986, Control_c, 0, 67, 72
1, 491000, Control_c, 0, 67, 69
1, 491015, Control_c, 0, 67, 68
1, 491030, Control_c, 0, 67, 68
1, 491059, Control_c, 0, 67, 68
1, 491068, Note_on_c, 0, 80, 59
1, 491074, Control_c, 0, 67, 69
1, 491104, Control_c, 0, 67, 69
1, 491109, Note_on_c, 0, 73, 34
1, 491113, Note_on_c, 0, 69, 33
1, 491118, Control_c, 0, 67, 70
1, 491126, Note_on_c, 0, 61, 11
1, 491143, Note_on_c, 0, 64, 25
1, 491192, Note_off_c, 0, 76, 54
1, 491222, Note_off_c, 0, 69, 35
1, 491223, Control_c, 0, 67, 69
1, 491234, Note_off_c, 0, 73, 45
1, 491253, Control_c, 0, 67, 69
1, 491261, Note_off_c, 0, 64, 28
1, 491272, Note_off_c, 0, 61, 38
1, 491327, Control_c, 0, 67, 69
1, 491341, Control_c, 0, 67, 70
1, 491371, Control_c, 0, 67, 70
1, 491386, Control_c, 0, 67, 71
1, 491388, Note_on_c, 0, 81, 70
1, 491413, Note_on_c, 0, 73, 32
1, 491416, Control_c, 0, 67, 72
1, 491425, Note_on_c, 0, 61, 11
1, 491431, Control_c, 0, 67, 72
1, 491433, Note_on_c, 0, 64, 30
1, 491446, Control_c, 0, 67, 73
1, 491446, Note_on_c, 0, 69, 26
1, 491461, Control_c, 0, 67, 74
1, 491475, Control_c, 0, 67, 74
1, 491490, Control_c, 0, 67, 75
1, 491508, Note_off_c, 0, 69, 41
1, 491512, Note_off_c, 0, 80, 62
1, 491520, Control_c, 0, 67, 76
1, 491535, Control_c, 0, 67, 76
1, 491549, Control_c, 0, 67, 77
1, 491559, Note_off_c, 0, 61, 38
1, 491559, Note_off_c, 0, 73, 45
1, 491571, Control_c, 0, 67, 77
1, 491575, Note_off_c, 0, 64, 42
1, 491616, Control_c, 0, 67, 77
1, 491660, Control_c, 0, 67, 77
1, 491705, Control_c, 0, 67, 78
1, 491735, Control_c, 0, 67, 78
1, 491765, Control_c, 0, 67, 79
1, 491794, Control_c, 0, 67, 79
1, 491819, Note_on_c, 0, 83, 59
1, 491824, Control_c, 0, 67, 80
1, 491881, Note_on_c, 0, 73, 24
1, 491890, Note_on_c, 0, 61, 17
1, 491890, Note_on_c, 0, 64, 25
1, 491902, Note_on_c, 0, 67, 29
1, 491920, Note_on_c, 0, 69, 22
1, 491942, Control_c, 0, 64, 93
1, 491942, Control_c, 0, 67, 80
1, 491957, Control_c, 0, 64, 76
1, 491957, Control_c, 0, 67, 81
1, 491972, Control_c, 0, 64, 67
1, 491972, Control_c, 0, 67, 83
1, 491982, Note_off_c, 0, 81, 61
1, 491987, Control_c, 0, 64, 65
1, 491987, Control_c, 0, 67, 84
1, 492003, Control_c, 0, 64, 67
1, 492003, Control_c, 0, 67, 85
1, 492018, Control_c, 0, 64, 72
1, 492018, Control_c, 0, 67, 85
1, 492033, Control_c, 0, 64, 77
1, 492033, Control_c, 0, 67, 87
1, 492047, Control_c, 0, 64, 86
1, 492047, Control_c, 0, 67, 89
1, 492062, Control_c, 0, 64, 99
1, 492062, Control_c, 0, 67, 93
1, 492077, Control_c, 0, 64, 127
1, 492077, Control_c, 0, 67, 97
1, 492091, Control_c, 0, 67, 101
1, 492106, Control_c, 0, 67, 105
1, 492121, Control_c, 0, 67, 109
1, 492136, Control_c, 0, 67, 112
1, 492151, Control_c, 0, 67, 116
1, 492165, Control_c, 0, 67, 121
1, 492179, Note_off_c, 0, 73, 44
1, 492180, Control_c, 0, 67, 126
1, 492195, Control_c, 0, 67, 127
1, 492208, Note_off_c, 0, 61, 40
1, 492208, Note_off_c, 0, 69, 43
1, 492215, Note_off_c, 0, 64, 42
1, 492225, Note_off_c, 0, 67, 39
1, 492398, Note_on_c, 0, 67, 27
1, 492399, Note_on_c, 0, 61, 25
1, 492410, Note_on_c, 0, 73, 32
1, 492418, Note_on_c, 0, 64, 25
1, 492434, Note_on_c, 0, 69, 28
1, 492557, Note_off_c, 0, 67, 40
1, 492560, Note_off_c, 0, 61, 41
1, 492570, Note_off_c, 0, 73, 42
1, 492572, Note_off_c, 0, 69, 34
1, 492586, Note_off_c, 0, 64, 38
1, 492600, Note_on_c, 0, 81, 51
1, 492811, Note_on_c, 0, 76, 46
1, 492820, Note_on_c, 0, 73, 27
1, 492841, Note_off_c, 0, 83, 56
1, 492852, Note_on_c, 0, 61, 21
1, 492855, Note_on_c, 0, 64, 24
1, 492855, Note_on_c, 0, 67, 17
1, 492868, Note_on_c, 0, 69, 20
1, 492974, Note_off_c, 0, 73, 43
1, 492984, Note_off_c, 0, 69, 32
1, 493008, Note_off_c, 0, 61, 40
1, 493010, Note_off_c, 0, 67, 39
1, 493055, Note_off_c, 0, 64, 38
1, 493279, Note_on_c, 0, 73, 33
1, 493304, Note_on_c, 0, 67, 21
1, 493307, Note_on_c, 0, 61, 11
1, 493310, Note_on_c, 0, 64, 12
1, 493324, Note_on_c, 0, 69, 22
1, 493365, Note_off_c, 0, 67, 45
1, 493371, Note_off_c, 0, 69, 49
1, 493388, Note_off_c, 0, 73, 37
1, 493402, Note_off_c, 0, 64, 40
1, 493428, Note_off_c, 0, 61, 32
1, 493607, Note_off_c, 0, 76, 49
1, 493723, Note_on_c, 0, 76, 65
1, 493838, Note_on_c, 0, 45, 27
1, 493902, Note_off_c, 0, 45, 53
1, 494158, Control_c, 0, 67, 126
1, 494173, Control_c, 0, 67, 120
1, 494188, Control_c, 0, 67, 115
1, 494203, Control_c, 0, 67, 110
1, 494217, Control_c, 0, 67, 105
1, 494232, Control_c, 0, 67, 101
1, 494247, Control_c, 0, 67, 98
1, 494261, Control_c, 0, 67, 93
1, 494276, Control_c, 0, 67, 89
1, 494291, Control_c, 0, 67, 86
1, 494306, Control_c, 0, 67, 84
1, 494321, Control_c, 0, 67, 82
1, 494335, Note_on_c, 0, 77, 59
1, 494335, Control_c, 0, 67, 81
1, 494350, Control_c, 0, 67, 80
1, 494365, Control_c, 0, 67, 79
1, 494380, Control_c, 0, 67, 78
1, 494396, Control_c, 0, 67, 78
1, 494397, Note_on_c, 0, 61, 18
1, 494401, Note_on_c, 0, 69, 18
1, 494403, Note_on_c, 0, 67, 10
1, 494519, Note_off_c, 0, 61, 41
1, 494528, Note_off_c, 0, 76, 53
1, 494531, Note_off_c, 0, 81, 60
1, 494535, Note_off_c, 0, 69, 42
1, 494566, Control_c, 0, 67, 77
1, 494570, Note_off_c, 0, 67, 41
1, 494626, Control_c, 0, 67, 78
1, 494640, Control_c, 0, 67, 79
1, 494655, Control_c, 0, 67, 81
1, 494670, Control_c, 0, 67, 84
1, 494684, Control_c, 0, 67, 86
1, 494699, Control_c, 0, 67, 89
1, 494714, Control_c, 0, 67, 92
1, 494729, Control_c, 0, 67, 97
1, 494744, Control_c, 0, 67, 105
1, 494759, Control_c, 0, 67, 114
1, 494773, Control_c, 0, 67, 120
1, 494788, Control_c, 0, 67, 125
1, 494803, Control_c, 0, 67, 127
1, 494933, Note_on_c, 0, 80, 49
1, 494994, Note_on_c, 0, 50, 31
1, 495040, Control_c, 0, 64, 97
1, 495055, Control_c, 0, 64, 78
1, 495070, Control_c, 0, 64, 64
1, 495084, Control_c, 0, 64, 37
1, 495097, Note_off_c, 0, 77, 61
1, 495099, Control_c, 0, 64, 17
1, 495114, Control_c, 0, 64, 19
1, 495129, Control_c, 0, 64, 40
1, 495144, Control_c, 0, 64, 61
1, 495158, Control_c, 0, 64, 67
1, 495173, Control_c, 0, 64, 74
1, 495189, Control_c, 0, 64, 83
1, 495204, Control_c, 0, 64, 94
1, 495219, Control_c, 0, 64, 106
1, 495234, Control_c, 0, 64, 127
1, 495255, Note_off_c, 0, 50, 47
1, 495750, Note_on_c, 0, 59, 30
1, 495756, Note_on_c, 0, 69, 29
1, 495779, Note_on_c, 0, 66, 24
1, 495941, Note_off_c, 0, 59, 39
1, 495956, Note_off_c, 0, 66, 41
1, 495956, Note_off_c, 0, 69, 41
1, 496255, Note_on_c, 0, 78, 46
1, 496312, Note_on_c, 0, 59, 15
1, 496315, Note_on_c, 0, 66, 18
1, 496318, Note_on_c, 0, 69, 20
1, 496475, Note_off_c, 0, 80, 43
1, 496480, Note_off_c, 0, 59, 42
1, 496491, Note_off_c, 0, 69, 43
1, 496498, Note_off_c, 0, 66, 43
1, 496640, Note_on_c, 0, 73, 46
1, 496674, Note_on_c, 0, 66, 22
1, 496690, Note_on_c, 0, 69, 20
1, 496693, Note_on_c, 0, 59, 23
1, 496755, Note_off_c, 0, 78, 62
1, 496755, Note_off_c, 0, 59, 43
1, 496769, Note_off_c, 0, 69, 42
1, 496784, Note_off_c, 0, 66, 38
1, 497067, Note_on_c, 0, 76, 52
1, 497124, Control_c, 0, 64, 115
1, 497139, Control_c, 0, 64, 85
1, 497154, Control_c, 0, 64, 77
1, 497155, Note_on_c, 0, 47, 25
1, 497168, Control_c, 0, 64, 78
1, 497183, Control_c, 0, 64, 81
1, 497198, Control_c, 0, 64, 86
1, 497212, Control_c, 0, 64, 95
1, 497227, Control_c, 0, 64, 126
1, 497228, Note_off_c, 0, 73, 38
1, 497242, Control_c, 0, 64, 127
1, 497290, Note_off_c, 0, 47, 37
1, 497490, Note_on_c, 0, 74, 52
1, 497643, Note_on_c, 0, 69, 33
1, 497649, Note_on_c, 0, 62, 33
1, 497723, Note_off_c, 0, 62, 51
1, 497749, Note_off_c, 0, 69, 49
1, 497766, Note_on_c, 0, 73, 54
1, 497890, Note_off_c, 0, 74, 38
1, 497972, Note_off_c, 0, 73, 53
1, 498087, Note_on_c, 0, 73, 53
1, 498126, Note_on_c, 0, 52, 34
1, 498155, Control_c, 0, 64, 96
1, 498170, Control_c, 0, 64, 75
1, 498184, Control_c, 0, 64, 61
1, 498199, Control_c, 0, 64, 62
1, 498214, Control_c, 0, 64, 66
1, 498228, Control_c, 0, 64, 71
1, 498243, Control_c, 0, 64, 79
1, 498258, Control_c, 0, 64, 93
1, 498273, Control_c, 0, 64, 127
1, 498328, Note_off_c, 0, 52, 40
1, 498675, Note_on_c, 0, 69, 32
1, 498692, Note_on_c, 0, 62, 22
1, 498794, Note_off_c, 0, 69, 36
1, 498829, Note_off_c, 0, 62, 40
1, 499073, Note_on_c, 0, 71, 43
1, 499095, Note_on_c, 0, 68, 29
1, 499120, Note_on_c, 0, 62, 22
1, 499256, Note_off_c, 0, 68, 41
1, 499282, Note_off_c, 0, 73, 45
1, 499292, Note_off_c, 0, 62, 38
1, 499540, Note_on_c, 0, 66, 34
1, 499555, Note_on_c, 0, 62, 25
1, 499680, Note_off_c, 0, 66, 37
1, 499712, Note_off_c, 0, 62, 40
1, 499867, Control_c, 0, 67, 125
1, 499881, Control_c, 0, 67, 122
1, 499896, Control_c, 0, 67, 118
1, 499911, Control_c, 0, 67, 115
1, 499926, Control_c, 0, 67, 112
1, 499941, Control_c, 0, 67, 109
1, 499955, Control_c, 0, 67, 106
1, 499970, Control_c, 0, 67, 103
1, 499986, Control_c, 0, 67, 100
1, 500001, Control_c, 0, 67, 97
1, 500016, Control_c, 0, 67, 94
1, 500030, Control_c, 0, 67, 91
1, 500045, Control_c, 0, 67, 88
1, 500060, Control_c, 0, 67, 85
1, 500064, Note_off_c, 0, 71, 38
1, 500075, Control_c, 0, 67, 84
1, 500090, Control_c, 0, 67, 83
1, 500104, Control_c, 0, 67, 81
1, 500119, Control_c, 0, 67, 81
1, 500134, Control_c, 0, 67, 80
1, 500164, Control_c, 0, 67, 80
1, 500171, Note_on_c, 0, 74, 78
1, 500178, Control_c, 0, 67, 82
1, 500193, Control_c, 0, 64, 120
1, 500193, Control_c, 0, 67, 85
1, 500208, Control_c, 0, 64, 87
1, 500208, Control_c, 0, 67, 86
1, 500223, Control_c, 0, 64, 67
1, 500223, Control_c, 0, 67, 87
1, 500233, Note_on_c, 0, 65, 32
1, 500236, Note_on_c, 0, 68, 32
1, 500238, Control_c, 0, 64, 0
1, 500238, Control_c, 0, 67, 87
1, 500239, Note_on_c, 0, 59, 31
1, 500249, Note_on_c, 0, 62, 34
1, 500312, Control_c, 0, 64, 49
1, 500312, Control_c, 0, 67, 87
1, 500327, Control_c, 0, 64, 68
1, 500342, Control_c, 0, 64, 77
1, 500349, Note_off_c, 0, 76, 24
1, 500357, Control_c, 0, 64, 87
1, 500357, Control_c, 0, 67, 86
1, 500372, Control_c, 0, 64, 101
1, 500386, Control_c, 0, 64, 115
1, 500401, Control_c, 0, 64, 127
1, 500430, Control_c, 0, 67, 87
1, 500445, Control_c, 0, 67, 88
1, 500460, Control_c, 0, 67, 88
1, 500475, Control_c, 0, 67, 89
1, 500490, Control_c, 0, 67, 89
1, 500505, Note_off_c, 0, 59, 40
1, 500505, Control_c, 0, 67, 90
1, 500508, Note_off_c, 0, 62, 39
1, 500520, Control_c, 0, 67, 91
1, 500526, Note_off_c, 0, 65, 43
1, 500534, Control_c, 0, 67, 92
1, 500557, Control_c, 0, 67, 93
1, 500572, Control_c, 0, 67, 94
1, 500586, Control_c, 0, 67, 95
1, 500601, Control_c, 0, 67, 96
1, 500616, Control_c, 0, 67, 97
1, 500630, Control_c, 0, 67, 98
1, 500645, Control_c, 0, 67, 99
1, 500661, Control_c, 0, 67, 100
1, 500676, Control_c, 0, 67, 100
1, 500705, Control_c, 0, 67, 101
1, 500735, Control_c, 0, 67, 101
1, 500796, Control_c, 0, 67, 102
1, 500840, Control_c, 0, 67, 102
1, 500854, Control_c, 0, 67, 103
1, 500858, Note_on_c, 0, 65, 32
1, 500859, Note_on_c, 0, 59, 27
1, 500868, Note_on_c, 0, 62, 28
1, 500869, Control_c, 0, 67, 103
1, 500884, Control_c, 0, 67, 104
1, 500899, Control_c, 0, 67, 104
1, 501007, Note_on_c, 0, 73, 71
1, 501022, Note_off_c, 0, 59, 44
1, 501024, Note_off_c, 0, 62, 40
1, 501042, Note_off_c, 0, 65, 39
1, 501044, Note_off_c, 0, 74, 60
1, 501047, Control_c, 0, 67, 104
1, 501121, Control_c, 0, 67, 104
1, 501164, Note_on_c, 0, 74, 64
1, 501181, Control_c, 0, 67, 105
1, 501191, Note_off_c, 0, 73, 56
1, 501196, Control_c, 0, 64, 124
1, 501202, Note_on_c, 0, 59, 30
1, 501209, Note_on_c, 0, 65, 29
1, 501210, Control_c, 0, 64, 87
1, 501225, Control_c, 0, 64, 65
1, 501240, Note_on_c, 0, 62, 17
1, 501240, Control_c, 0, 64, 0
1, 501240, Control_c, 0, 67, 105
1, 501321, Control_c, 0, 64, 53
1, 501336, Control_c, 0, 64, 66
1, 501351, Control_c, 0, 64, 73
1, 501366, Control_c, 0, 64, 81
1, 501366, Control_c, 0, 67, 106
1, 501380, Control_c, 0, 64, 92
1, 501395, Control_c, 0, 64, 105
1, 501395, Control_c, 0, 67, 107
1, 501410, Control_c, 0, 64, 127
1, 501410, Control_c, 0, 67, 109
1, 501425, Control_c, 0, 67, 111
1, 501440, Control_c, 0, 67, 112
1, 501454, Control_c, 0, 67, 113
1, 501469, Control_c, 0, 67, 114
1, 501480, Note_off_c, 0, 59, 42
1, 501482, Note_off_c, 0, 62, 39
1, 501484, Control_c, 0, 67, 115
1, 501497, Note_off_c, 0, 65, 40
1, 501499, Control_c, 0, 67, 117
1, 501514, Control_c, 0, 67, 119
1, 501528, Control_c, 0, 67, 122
1, 501543, Control_c, 0, 67, 124
1, 501558, Control_c, 0, 67, 126
1, 501573, Control_c, 0, 67, 127
1, 501589, Control_c, 0, 67, 127
1, 501629, Note_on_c, 0, 59, 23
1, 501640, Note_on_c, 0, 65, 32
1, 501649, Note_on_c, 0, 62, 26
1, 501772, Note_off_c, 0, 59, 41
1, 501772, Note_off_c, 0, 62, 35
1, 501781, Note_off_c, 0, 65, 34
1, 501955, Note_off_c, 0, 68, 0
1, 501992, Poly_aftertouch_c, 0, 68, 127
1, 502074, Note_on_c, 0, 73, 46
1, 502095, Note_on_c, 0, 59, 14
1, 502108, Note_on_c, 0, 61, 34
1, 502112, Note_on_c, 0, 65, 28
1, 502114, Control_c, 0, 64, 101
1, 502129, Control_c, 0, 64, 78
1, 502144, Control_c, 0, 64, 60
1, 502159, Control_c, 0, 64, 0
1, 502182, Note_off_c, 0, 74, 43
1, 502218, Control_c, 0, 64, 56
1, 502233, Control_c, 0, 64, 68
1, 502248, Control_c, 0, 64, 78
1, 502263, Control_c, 0, 64, 92
1, 502277, Control_c, 0, 64, 107
1, 502292, Control_c, 0, 64, 127
1, 502332, Note_off_c, 0, 59, 40
1, 502338, Note_off_c, 0, 61, 41
1, 502355, Note_off_c, 0, 65, 42
1, 502372, Note_off_c, 0, 73, 63
1, 502620, Note_on_c, 0, 59, 28
1, 502635, Note_on_c, 0, 61, 33
1, 502637, Note_on_c, 0, 65, 34
1, 502711, Note_off_c, 0, 65, 48
1, 502781, Note_off_c, 0, 61, 27
1, 502788, Note_on_c, 0, 56, 38
1, 502852, Note_off_c, 0, 56, 53
1, 502929, Note_off_c, 0, 59, 0
1, 502967, Poly_aftertouch_c, 0, 59, 127
1, 502973, Note_on_c, 0, 49, 36
1, 502973, Note_on_c, 0, 59, 3
1, 502987, Note_on_c, 0, 61, 30
1, 503009, Note_on_c, 0, 65, 25
1, 503056, Note_off_c, 0, 49, 55
1, 503071, Note_off_c, 0, 65, 44
1, 503107, Note_off_c, 0, 61, 33
1, 503187, Note_off_c, 0, 59, 27
1, 503237, Poly_aftertouch_c, 0, 68, 0
1, 503268, Note_on_c, 0, 59, 16
1, 503274, Poly_aftertouch_c, 0, 68, 127
1, 503301, Note_on_c, 0, 61, 29
1, 503310, Note_on_c, 0, 65, 35
1, 503420, Note_on_c, 0, 44, 44
1, 503459, Note_off_c, 0, 61, 39
1, 503474, Note_off_c, 0, 44, 52
1, 503495, Note_off_c, 0, 65, 37
1, 503503, Note_off_c, 0, 59, 31
1, 503596, Note_on_c, 0, 37, 41
1, 503602, Note_on_c, 0, 59, 25
1, 503611, Note_on_c, 0, 65, 20
1, 503621, Note_on_c, 0, 61, 29
1, 503709, Note_off_c, 0, 37, 36
1, 503772, Note_off_c, 0, 61, 29
1, 503784, Note_off_c, 0, 65, 38
1, 503832, Note_off_c, 0, 59, 34
1, 503980, Note_on_c, 0, 59, 35
1, 504011, Note_on_c, 0, 65, 30
1, 504016, Note_on_c, 0, 61, 35
1, 504116, Note_off_c, 0, 61, 33
1, 504123, Note_off_c, 0, 65, 33
1, 504193, Note_off_c, 0, 59, 28
1, 504321, Note_on_c, 0, 59, 25
1, 504338, Note_on_c, 0, 61, 39
1, 504341, Note_on_c, 0, 65, 28
1, 504461, Note_off_c, 0, 65, 35
1, 504471, Note_off_c, 0, 61, 33
1, 504478, Note_off_c, 0, 59, 42
1, 504603, Poly_aftertouch_c, 0, 68, 0
1, 504641, Poly_aftertouch_c, 0, 68, 127
1, 504657, Control_c, 0, 67, 127
1, 504668, Note_on_c, 0, 59, 16
1, 504669, Note_on_c, 0, 61, 33
1, 504671, Control_c, 0, 67, 125
1, 504686, Control_c, 0, 67, 122
1, 504690, Note_on_c, 0, 65, 11
1, 504701, Control_c, 0, 67, 119
1, 504716, Control_c, 0, 67, 116
1, 504731, Control_c, 0, 67, 112
1, 504733, Note_off_c, 0, 59, 42
1, 504744, Note_off_c, 0, 65, 46
1, 504745, Control_c, 0, 67, 109
1, 504751, Poly_aftertouch_c, 0, 68, 0
1, 504760, Control_c, 0, 67, 105
1, 504775, Note_off_c, 0, 61, 32
1, 504776, Control_c, 0, 67, 101
1, 504791, Control_c, 0, 67, 98
1, 504806, Control_c, 0, 67, 96
1, 504820, Control_c, 0, 67, 93
1, 504835, Control_c, 0, 67, 91
1, 504850, Control_c, 0, 67, 90
1, 504865, Control_c, 0, 67, 90
1, 504880, Control_c, 0, 67, 89
1, 504924, Control_c, 0, 67, 90
1, 504939, Control_c, 0, 67, 91
1, 504954, Control_c, 0, 67, 92
1, 504968, Control_c, 0, 67, 93
1, 504983, Control_c, 0, 67, 94
1, 504998, Control_c, 0, 67, 94
1, 505013, Control_c, 0, 67, 95
1, 505027, Control_c, 0, 67, 96
1, 505050, Control_c, 0, 67, 97
1, 505065, Control_c, 0, 67, 97
1, 505080, Control_c, 0, 67, 98
1, 505104, Note_on_c, 0, 73, 50
1, 505109, Control_c, 0, 67, 99
1, 505124, Control_c, 0, 67, 100
1, 505132, Note_on_c, 0, 59, 24
1, 505139, Control_c, 0, 67, 101
1, 505152, Note_on_c, 0, 68, 30
1, 505153, Control_c, 0, 67, 101
1, 505154, Note_on_c, 0, 61, 24
1, 505158, Note_on_c, 0, 65, 25
1, 505164, Note_off_c, 0, 73, 61
1, 505182, Control_c, 0, 67, 102
1, 505197, Control_c, 0, 67, 102
1, 505226, Control_c, 0, 67, 103
1, 505241, Control_c, 0, 67, 104
1, 505256, Control_c, 0, 67, 104
1, 505271, Control_c, 0, 67, 105
1, 505286, Control_c, 0, 67, 107
1, 505301, Control_c, 0, 67, 109
1, 505316, Control_c, 0, 67, 112
1, 505331, Control_c, 0, 67, 115
1, 505346, Control_c, 0, 67, 118
1, 505361, Control_c, 0, 67, 121
1, 505372, Note_off_c, 0, 59, 36
1, 505375, Control_c, 0, 67, 125
1, 505390, Control_c, 0, 67, 127
1, 505397, Note_off_c, 0, 61, 35
1, 505401, Note_off_c, 0, 65, 41
1, 505591, Note_on_c, 0, 61, 27
1, 505600, Note_on_c, 0, 59, 31
1, 505602, Note_on_c, 0, 65, 32
1, 505772, Note_off_c, 0, 65, 42
1, 505810, Note_off_c, 0, 61, 41
1, 505814, Note_off_c, 0, 59, 38
1, 505848, Note_on_c, 0, 73, 67
1, 505870, Note_off_c, 0, 68, 43
1, 505998, Note_off_c, 0, 73, 63
1, 506124, Note_on_c, 0, 79, 61
1, 506213, Control_c, 0, 64, 99
1, 506214, Note_on_c, 0, 67, 25
1, 506216, Note_on_c, 0, 58, 28
1, 506217, Note_on_c, 0, 64, 31
1, 506219, Note_on_c, 0, 61, 31
1, 506228, Control_c, 0, 64, 77
1, 506242, Control_c, 0, 64, 59
1, 506257, Control_c, 0, 64, 0
1, 506331, Control_c, 0, 64, 27
1, 506346, Control_c, 0, 64, 63
1, 506361, Control_c, 0, 64, 72
1, 506377, Control_c, 0, 64, 80
1, 506391, Control_c, 0, 64, 91
1, 506406, Control_c, 0, 64, 106
1, 506421, Control_c, 0, 64, 127
1, 506579, Note_off_c, 0, 58, 40
1, 506587, Note_off_c, 0, 61, 36
1, 506618, Note_off_c, 0, 64, 38
1, 506805, Note_on_c, 0, 64, 27
1, 506827, Note_on_c, 0, 61, 30
1, 506836, Note_on_c, 0, 58, 23
1, 506985, Note_off_c, 0, 61, 40
1, 507003, Note_off_c, 0, 58, 41
1, 507009, Note_off_c, 0, 64, 41
1, 507167, Note_off_c, 0, 79, 34
1, 507182, Note_on_c, 0, 70, 42
1, 507210, Note_on_c, 0, 64, 32
1, 507224, Note_on_c, 0, 61, 24
1, 507226, Note_on_c, 0, 58, 19
1, 507281, Note_off_c, 0, 70, 58
1, 507365, Note_off_c, 0, 61, 32
1, 507388, Note_off_c, 0, 58, 43
1, 507396, Note_off_c, 0, 64, 40
1, 507560, Note_on_c, 0, 64, 35
1, 507578, Note_on_c, 0, 58, 20
1, 507591, Note_on_c, 0, 61, 25
1, 507652, Note_off_c, 0, 61, 42
1, 507693, Note_on_c, 0, 55, 33
1, 507726, Note_off_c, 0, 58, 39
1, 507735, Note_off_c, 0, 64, 42
1, 507750, Note_off_c, 0, 55, 43
1, 507905, Note_on_c, 0, 64, 30
1, 507910, Note_on_c, 0, 49, 39
1, 507926, Note_on_c, 0, 58, 22
1, 507955, Note_on_c, 0, 61, 4
1, 507967, Note_off_c, 0, 49, 53
1, 508050, Note_off_c, 0, 61, 39
1, 508106, Note_off_c, 0, 64, 38
1, 508109, Note_off_c, 0, 58, 41
1, 508295, Note_on_c, 0, 58, 28
1, 508296, Note_on_c, 0, 64, 33
1, 508310, Note_on_c, 0, 61, 27
1, 508454, Note_on_c, 0, 43, 31
1, 508454, Note_off_c, 0, 61, 27
1, 508496, Note_off_c, 0, 58, 37
1, 508547, Note_off_c, 0, 64, 35
1, 508622, Note_off_c, 0, 43, 24
1, 508653, Note_on_c, 0, 64, 14
1, 508658, Note_on_c, 0, 37, 32
1, 508678, Note_on_c, 0, 58, 25
1, 508697, Note_on_c, 0, 61, 17
1, 508735, Note_off_c, 0, 37, 40
1, 508830, Note_off_c, 0, 61, 29
1, 508858, Note_off_c, 0, 64, 39
1, 508871, Note_off_c, 0, 58, 38
1, 509089, Note_on_c, 0, 64, 35
1, 509097, Note_on_c, 0, 61, 27
1, 509102, Note_on_c, 0, 58, 25
1, 509221, Note_off_c, 0, 61, 35
1, 509235, Note_off_c, 0, 58, 36
1, 509253, Note_off_c, 0, 64, 39
1, 509480, Note_on_c, 0, 64, 29
1, 509486, Note_on_c, 0, 61, 30
1, 509495, Note_on_c, 0, 58, 28
1, 509637, Note_off_c, 0, 61, 41
1, 509667, Note_off_c, 0, 64, 38
1, 509681, Note_off_c, 0, 58, 37
1, 509922, Note_on_c, 0, 58, 26
1, 509923, Note_on_c, 0, 64, 30
1, 509926, Note_on_c, 0, 61, 37
1, 509975, Note_off_c, 0, 64, 59
1, 509987, Note_off_c, 0, 61, 54
1, 509989, Note_off_c, 0, 67, 41
1, 510031, Note_off_c, 0, 58, 37
1, 510298, Note_on_c, 0, 37, 30
1, 510349, Control_c, 0, 64, 109
1, 510366, Control_c, 0, 64, 83
1, 510380, Control_c, 0, 64, 69
1, 510395, Control_c, 0, 64, 67
1, 510399, Note_on_c, 0, 81, 54
1, 510406, Note_on_c, 0, 52, 36
1, 510410, Control_c, 0, 64, 70
1, 510425, Control_c, 0, 64, 76
1, 510438, Note_on_c, 0, 69, 22
1, 510440, Control_c, 0, 64, 86
1, 510455, Control_c, 0, 64, 113
1, 510461, Note_off_c, 0, 37, 42
1, 510470, Control_c, 0, 64, 127
1, 510514, Note_off_c, 0, 52, 55
1, 510873, Note_on_c, 0, 67, 33
1, 510882, Note_on_c, 0, 64, 34
1, 510890, Note_on_c, 0, 57, 21
1, 510923, Note_off_c, 0, 64, 54
1, 510935, Note_off_c, 0, 67, 56
1, 510940, Note_off_c, 0, 57, 47
1, 510971, Note_off_c, 0, 69, 38
1, 511039, Note_off_c, 0, 81, 50
1, 511230, Note_on_c, 0, 81, 60
1, 511270, Note_on_c, 0, 69, 23
1, 511318, Note_on_c, 0, 38, 41
1, 511334, Note_off_c, 0, 81, 57
1, 511362, Note_off_c, 0, 69, 39
1, 511448, Note_on_c, 0, 81, 61
1, 511489, Note_off_c, 0, 38, 0
1, 511501, Note_on_c, 0, 69, 27
1, 511527, Poly_aftertouch_c, 0, 38, 127
1, 511544, Control_c, 0, 64, 91
1, 511559, Control_c, 0, 64, 69
1, 511561, Note_on_c, 0, 54, 37
1, 511574, Control_c, 0, 64, 0
1, 511582, Poly_aftertouch_c, 0, 40, 127
1, 511603, Control_c, 0, 64, 42
1, 511618, Control_c, 0, 64, 64
1, 511633, Control_c, 0, 64, 74
1, 511648, Control_c, 0, 64, 90
1, 511662, Control_c, 0, 64, 127
1, 511751, Poly_aftertouch_c, 0, 38, 0
1, 511769, Poly_aftertouch_c, 0, 40, 0
1, 511829, Note_off_c, 0, 54, 52
1, 511841, Note_off_c, 0, 69, 45
1, 512118, Note_off_c, 0, 81, 0
1, 512118, Note_on_c, 0, 81, 3
1, 512164, Note_on_c, 0, 66, 34
1, 512187, Note_on_c, 0, 62, 17
1, 512215, Poly_aftertouch_c, 0, 57, 127
1, 512249, Control_c, 0, 67, 126
1, 512264, Control_c, 0, 67, 124
1, 512278, Control_c, 0, 67, 121
1, 512293, Control_c, 0, 67, 117
1, 512308, Control_c, 0, 67, 112
1, 512323, Control_c, 0, 67, 107
1, 512329, Note_off_c, 0, 66, 42
1, 512337, Control_c, 0, 67, 102
1, 512352, Control_c, 0, 67, 97
1, 512356, Poly_aftertouch_c, 0, 57, 0
1, 512361, Note_off_c, 0, 62, 38
1, 512367, Control_c, 0, 67, 93
1, 512382, Control_c, 0, 67, 90
1, 512397, Control_c, 0, 67, 87
1, 512411, Control_c, 0, 67, 83
1, 512426, Control_c, 0, 67, 79
1, 512441, Control_c, 0, 67, 76
1, 512456, Control_c, 0, 67, 73
1, 512471, Control_c, 0, 67, 72
1, 512485, Control_c, 0, 67, 71
1, 512500, Control_c, 0, 67, 70
1, 512515, Control_c, 0, 67, 70
1, 512597, Control_c, 0, 67, 70
1, 512611, Control_c, 0, 67, 72
1, 512626, Control_c, 0, 67, 73
1, 512641, Control_c, 0, 67, 74
1, 512656, Control_c, 0, 67, 75
1, 512671, Control_c, 0, 67, 76
1, 512685, Control_c, 0, 67, 77
1, 512700, Control_c, 0, 67, 78
1, 512715, Control_c, 0, 67, 80
1, 512721, Note_on_c, 0, 90, 48
1, 512730, Control_c, 0, 67, 81
1, 512738, Note_on_c, 0, 66, 26
1, 512744, Control_c, 0, 67, 82
1, 512753, Note_on_c, 0, 57, 16
1, 512760, Control_c, 0, 67, 84
1, 512766, Note_on_c, 0, 78, 15
1, 512768, Note_on_c, 0, 62, 24
1, 512775, Control_c, 0, 67, 86
1, 512790, Control_c, 0, 67, 89
1, 512805, Control_c, 0, 67, 91
1, 512820, Control_c, 0, 67, 94
1, 512834, Control_c, 0, 67, 97
1, 512849, Note_off_c, 0, 90, 54
1, 512849, Control_c, 0, 67, 100
1, 512864, Control_c, 0, 67, 103
1, 512879, Control_c, 0, 67, 107
1, 512894, Control_c, 0, 67, 110
1, 512908, Control_c, 0, 67, 115
1, 512923, Control_c, 0, 67, 119
1, 512931, Note_off_c, 0, 57, 39
1, 512938, Control_c, 0, 67, 123
1, 512944, Note_off_c, 0, 66, 37
1, 512948, Note_off_c, 0, 81, 45
1, 512953, Control_c, 0, 67, 127
1, 512990, Note_off_c, 0, 78, 43
1, 513067, Note_off_c, 0, 62, 0
1, 513105, Poly_aftertouch_c, 0, 62, 127
1, 513115, Note_on_c, 0, 66, 35
1, 513125, Note_on_c, 0, 58, 34
1, 513148, Note_off_c, 0, 66, 60
1, 513205, Note_on_c, 0, 82, 66
1, 513209, Note_off_c, 0, 58, 50
1, 513213, Poly_aftertouch_c, 0, 62, 0
1, 513272, Note_on_c, 0, 70, 11
1, 513343, Note_off_c, 0, 70, 43
1, 513436, Note_on_c, 0, 38, 42
1, 513589, Note_on_c, 0, 83, 68
1, 513598, Control_c, 0, 64, 82
1, 513613, Control_c, 0, 64, 61
1, 513614, Note_off_c, 0, 82, 58
1, 513628, Control_c, 0, 64, 0
1, 513640, Note_on_c, 0, 71, 39
1, 513642, Note_on_c, 0, 54, 48
1, 513643, Control_c, 0, 64, 42
1, 513657, Control_c, 0, 64, 62
1, 513672, Control_c, 0, 64, 69
1, 513687, Control_c, 0, 64, 80
1, 513702, Control_c, 0, 64, 101
1, 513717, Control_c, 0, 64, 127
1, 513740, Note_off_c, 0, 38, 40
1, 513796, Note_off_c, 0, 54, 62
1, 513969, Control_c, 0, 67, 126
1, 513983, Control_c, 0, 67, 124
1, 513998, Control_c, 0, 67, 121
1, 514013, Control_c, 0, 67, 119
1, 514035, Control_c, 0, 67, 116
1, 514050, Control_c, 0, 67, 114
1, 514065, Control_c, 0, 67, 112
1, 514080, Control_c, 0, 67, 109
1, 514095, Control_c, 0, 67, 107
1, 514109, Control_c, 0, 67, 103
1, 514124, Control_c, 0, 67, 100
1, 514139, Control_c, 0, 67, 98
1, 514151, Note_on_c, 0, 59, 38
1, 514154, Control_c, 0, 67, 97
1, 514162, Note_on_c, 0, 66, 37
1, 514169, Control_c, 0, 67, 95
1, 514176, Note_on_c, 0, 62, 30
1, 514183, Control_c, 0, 67, 93
1, 514198, Control_c, 0, 67, 91
1, 514211, Note_off_c, 0, 66, 58
1, 514213, Control_c, 0, 67, 88
1, 514214, Note_off_c, 0, 59, 56
1, 514222, Note_off_c, 0, 62, 59
1, 514228, Control_c, 0, 67, 85
1, 514243, Control_c, 0, 67, 82
1, 514254, Note_off_c, 0, 71, 38
1, 514258, Control_c, 0, 67, 78
1, 514262, Note_off_c, 0, 83, 57
1, 514272, Control_c, 0, 67, 75
1, 514287, Control_c, 0, 67, 72
1, 514302, Control_c, 0, 67, 70
1, 514316, Control_c, 0, 67, 68
1, 514331, Control_c, 0, 67, 66
1, 514346, Control_c, 0, 67, 66
1, 514362, Control_c, 0, 67, 65
1, 514436, Control_c, 0, 67, 66
1, 514451, Control_c, 0, 67, 67
1, 514466, Control_c, 0, 67, 68
1, 514495, Control_c, 0, 67, 69
1, 514510, Control_c, 0, 67, 69
1, 514525, Control_c, 0, 67, 70
1, 514540, Control_c, 0, 67, 70
1, 514547, Note_on_c, 0, 83, 62
1, 514554, Control_c, 0, 67, 71
1, 514569, Control_c, 0, 67, 72
1, 514576, Note_on_c, 0, 71, 37
1, 514584, Control_c, 0, 67, 72
1, 514604, Note_off_c, 0, 71, 56
1, 514613, Control_c, 0, 67, 73
1, 514624, Note_off_c, 0, 83, 55
1, 514628, Control_c, 0, 67, 74
1, 514643, Control_c, 0, 67, 75
1, 514658, Control_c, 0, 67, 76
1, 514673, Control_c, 0, 67, 77
1, 514688, Control_c, 0, 67, 78
1, 514703, Control_c, 0, 67, 81
1, 514718, Control_c, 0, 67, 83
1, 514732, Control_c, 0, 67, 85
1, 514747, Control_c, 0, 67, 88
1, 514762, Control_c, 0, 67, 90
1, 514784, Control_c, 0, 67, 92
1, 514799, Control_c, 0, 67, 94
1, 514813, Control_c, 0, 67, 97
1, 514828, Control_c, 0, 67, 100
1, 514843, Control_c, 0, 67, 103
1, 514858, Control_c, 0, 67, 106
1, 514873, Control_c, 0, 67, 109
1, 514888, Control_c, 0, 67, 111
1, 514902, Control_c, 0, 67, 113
1, 514917, Control_c, 0, 67, 117
1, 514932, Control_c, 0, 67, 120
1, 514947, Control_c, 0, 67, 123
1, 514962, Control_c, 0, 67, 126
1, 514977, Control_c, 0, 67, 127
1, 515241, Note_on_c, 0, 93, 50
1, 515264, Note_on_c, 0, 81, 36
1, 515290, Note_on_c, 0, 38, 29
1, 515290, Note_on_c, 0, 53, 32
1, 515422, Control_c, 0, 64, 93
1, 515436, Control_c, 0, 64, 73
1, 515451, Control_c, 0, 64, 54
1, 515466, Control_c, 0, 64, 0
1, 515481, Control_c, 0, 64, 29
1, 515496, Control_c, 0, 64, 54
1, 515511, Control_c, 0, 64, 64
1, 515533, Control_c, 0, 64, 71
1, 515548, Control_c, 0, 64, 82
1, 515562, Control_c, 0, 64, 98
1, 515577, Control_c, 0, 64, 127
1, 515672, Note_off_c, 0, 38, 40
1, 515791, Note_off_c, 0, 53, 45
1, 516095, Note_on_c, 0, 65, 37
1, 516119, Note_on_c, 0, 59, 32
1, 516129, Note_on_c, 0, 62, 24
1, 516296, Note_off_c, 0, 65, 41
1, 516327, Note_off_c, 0, 59, 38
1, 516355, Note_off_c, 0, 62, 37
1, 516509, Note_on_c, 0, 62, 33
1, 516512, Note_on_c, 0, 65, 36
1, 516513, Note_on_c, 0, 59, 25
1, 516518, Note_off_c, 0, 81, 38
1, 516583, Note_off_c, 0, 59, 51
1, 516590, Note_off_c, 0, 65, 48
1, 516655, Note_off_c, 0, 62, 35
1, 516816, Note_on_c, 0, 52, 54
1, 516852, Note_on_c, 0, 62, 24
1, 516861, Poly_aftertouch_c, 0, 64, 127
1, 516892, Note_off_c, 0, 62, 49
1, 516899, Poly_aftertouch_c, 0, 64, 0
1, 516903, Note_off_c, 0, 52, 60
1, 516928, Note_on_c, 0, 92, 68
1, 516967, Note_on_c, 0, 80, 34
1, 517010, Note_off_c, 0, 93, 61
1, 517055, Note_off_c, 0, 80, 40
1, 517175, Note_on_c, 0, 37, 51
1, 517317, Note_on_c, 0, 93, 82
1, 517326, Control_c, 0, 64, 120
1, 517341, Control_c, 0, 64, 83
1, 517356, Control_c, 0, 64, 66
1, 517369, Note_off_c, 0, 92, 66
1, 517371, Control_c, 0, 64, 66
1, 517377, Note_on_c, 0, 81, 45
1, 517382, Note_on_c, 0, 52, 42
1, 517386, Control_c, 0, 64, 74
1, 517400, Control_c, 0, 64, 86
1, 517415, Control_c, 0, 64, 111
1, 517417, Note_off_c, 0, 37, 49
1, 517430, Control_c, 0, 64, 127
1, 517450, Note_off_c, 0, 81, 58
1, 517478, Note_off_c, 0, 52, 62
1, 517633, Note_on_c, 0, 53, 59
1, 517672, Note_off_c, 0, 53, 63
1, 517713, Note_on_c, 0, 89, 78
1, 517848, Note_off_c, 0, 93, 39
1, 517901, Note_on_c, 0, 38, 48
1, 518113, Note_on_c, 0, 92, 71
1, 518168, Note_on_c, 0, 80, 44
1, 518178, Note_on_c, 0, 54, 47
1, 518199, Note_off_c, 0, 89, 54
1, 518208, Control_c, 0, 64, 94
1, 518223, Control_c, 0, 64, 70
1, 518238, Control_c, 0, 64, 0
1, 518282, Control_c, 0, 64, 27
1, 518297, Control_c, 0, 64, 65
1, 518312, Control_c, 0, 64, 77
1, 518327, Control_c, 0, 64, 100
1, 518342, Control_c, 0, 64, 127
1, 518404, Note_off_c, 0, 38, 42
1, 518477, Note_off_c, 0, 54, 63
1, 518656, Note_on_c, 0, 62, 40
1, 518681, Note_on_c, 0, 59, 25
1, 518739, Note_off_c, 0, 80, 57
1, 518829, Note_off_c, 0, 62, 37
1, 518834, Note_off_c, 0, 59, 42
1, 518942, Control_c, 0, 67, 124
1, 518957, Control_c, 0, 67, 120
1, 518971, Control_c, 0, 67, 116
1, 518986, Control_c, 0, 67, 112
1, 519001, Control_c, 0, 67, 106
1, 519016, Control_c, 0, 67, 101
1, 519029, Note_on_c, 0, 59, 33
1, 519031, Note_on_c, 0, 62, 28
1, 519031, Control_c, 0, 67, 97
1, 519046, Control_c, 0, 67, 93
1, 519061, Control_c, 0, 67, 88
1, 519076, Control_c, 0, 67, 83
1, 519091, Control_c, 0, 67, 78
1, 519105, Control_c, 0, 67, 75
1, 519120, Control_c, 0, 67, 73
1, 519135, Control_c, 0, 67, 71
1, 519150, Control_c, 0, 67, 70
1, 519164, Note_off_c, 0, 59, 33
1, 519165, Control_c, 0, 67, 69
1, 519178, Note_off_c, 0, 62, 31
1, 519240, Control_c, 0, 67, 71
1, 519255, Control_c, 0, 67, 72
1, 519276, Control_c, 0, 67, 73
1, 519291, Control_c, 0, 67, 74
1, 519306, Control_c, 0, 67, 75
1, 519321, Control_c, 0, 67, 77
1, 519335, Control_c, 0, 67, 78
1, 519350, Control_c, 0, 67, 79
1, 519365, Control_c, 0, 67, 80
1, 519380, Control_c, 0, 67, 81
1, 519395, Control_c, 0, 67, 84
1, 519410, Control_c, 0, 67, 87
1, 519424, Control_c, 0, 67, 90
1, 519433, Note_on_c, 0, 59, 31
1, 519439, Control_c, 0, 67, 93
1, 519445, Note_on_c, 0, 62, 28
1, 519454, Control_c, 0, 67, 96
1, 519469, Control_c, 0, 67, 99
1, 519484, Control_c, 0, 67, 103
1, 519499, Control_c, 0, 67, 107
1, 519500, Note_off_c, 0, 62, 56
1, 519514, Control_c, 0, 67, 110
1, 519517, Note_off_c, 0, 59, 53
1, 519528, Control_c, 0, 67, 113
1, 519541, Note_on_c, 0, 90, 53
1, 519543, Control_c, 0, 67, 117
1, 519558, Control_c, 0, 67, 121
1, 519570, Note_on_c, 0, 78, 29
1, 519573, Control_c, 0, 67, 126
1, 519588, Control_c, 0, 67, 127
1, 519613, Note_off_c, 0, 92, 65
1, 519735, Note_off_c, 0, 78, 44
1, 519940, Note_on_c, 0, 88, 53
1, 519979, Note_on_c, 0, 76, 31
1, 519979, Note_on_c, 0, 55, 35
1, 519989, Note_on_c, 0, 40, 34
1, 519991, Note_off_c, 0, 90, 63
1, 520003, Control_c, 0, 64, 99
1, 520025, Control_c, 0, 64, 75
1, 520040, Control_c, 0, 64, 60
1, 520055, Control_c, 0, 64, 62
1, 520070, Control_c, 0, 64, 67
1, 520085, Control_c, 0, 64, 74
1, 520099, Control_c, 0, 64, 84
1, 520114, Control_c, 0, 64, 100
1, 520129, Control_c, 0, 64, 127
1, 520158, Note_off_c, 0, 40, 40
1, 520235, Note_off_c, 0, 55, 44
1, 520353, Note_off_c, 0, 76, 43
1, 520411, Note_on_c, 0, 59, 33
1, 520416, Note_on_c, 0, 62, 31
1, 520472, Note_off_c, 0, 62, 55
1, 520485, Note_off_c, 0, 59, 55
1, 520629, Note_off_c, 0, 88, 48
1, 520637, Note_on_c, 0, 86, 49
1, 520665, Note_on_c, 0, 74, 38
1, 520706, Note_off_c, 0, 74, 56
1, 520974, Note_on_c, 0, 85, 46
1, 520988, Note_on_c, 0, 41, 33
1, 520997, Note_on_c, 0, 73, 34
1, 521013, Note_on_c, 0, 56, 20
1, 521085, Control_c, 0, 64, 97
1, 521100, Control_c, 0, 64, 74
1, 521115, Control_c, 0, 64, 54
1, 521130, Control_c, 0, 64, 0
1, 521159, Control_c, 0, 64, 28
1, 521168, Note_off_c, 0, 86, 54
1, 521174, Control_c, 0, 64, 61
1, 521189, Control_c, 0, 64, 71
1, 521204, Control_c, 0, 64, 82
1, 521219, Control_c, 0, 64, 102
1, 521234, Control_c, 0, 64, 127
1, 521275, Note_off_c, 0, 41, 40
1, 521557, Note_off_c, 0, 56, 43
1, 521637, Note_on_c, 0, 61, 32
1, 521658, Note_on_c, 0, 59, 24
1, 521808, Note_off_c, 0, 59, 28
1, 521830, Note_off_c, 0, 61, 39
1, 522112, Note_on_c, 0, 61, 31
1, 522113, Note_on_c, 0, 59, 26
1, 522310, Note_off_c, 0, 59, 38
1, 522337, Note_off_c, 0, 61, 38
1, 522468, Note_off_c, 0, 73, 44
1, 522509, Note_off_c, 0, 85, 37
1, 522596, Note_on_c, 0, 59, 27
1, 522615, Note_on_c, 0, 61, 25
1, 522657, Note_off_c, 0, 59, 44
1, 522657, Note_off_c, 0, 61, 55
1, 522687, Note_on_c, 0, 85, 60
1, 522717, Note_on_c, 0, 73, 42
1, 522860, Note_off_c, 0, 73, 37
1, 522953, Note_on_c, 0, 42, 42
1, 523049, Control_c, 0, 64, 111
1, 523064, Control_c, 0, 64, 81
1, 523079, Control_c, 0, 64, 64
1, 523088, Note_on_c, 0, 86, 72
1, 523094, Control_c, 0, 64, 45
1, 523109, Control_c, 0, 64, 60
1, 523124, Control_c, 0, 64, 67
1, 523136, Note_on_c, 0, 74, 49
1, 523136, Note_on_c, 0, 57, 42
1, 523139, Control_c, 0, 64, 76
1, 523155, Control_c, 0, 64, 91
1, 523169, Control_c, 0, 64, 127
1, 523175, Note_off_c, 0, 42, 40
1, 523213, Note_off_c, 0, 85, 38
1, 523261, Note_off_c, 0, 57, 57
1, 523296, Note_off_c, 0, 74, 58
1, 523491, Note_on_c, 0, 69, 50
1, 523496, Note_on_c, 0, 59, 46
1, 523508, Note_on_c, 0, 63, 43
1, 523530, Note_off_c, 0, 69, 63
1, 523532, Note_off_c, 0, 59, 62
1, 523540, Note_off_c, 0, 63, 61
1, 523662, Note_on_c, 0, 87, 73
1, 523700, Note_on_c, 0, 75, 55
1, 523799, Control_c, 0, 64, 87
1, 523814, Control_c, 0, 64, 59
1, 523824, Note_off_c, 0, 86, 52
1, 523829, Control_c, 0, 64, 0
1, 523831, Note_on_c, 0, 40, 49
1, 523858, Control_c, 0, 64, 33
1, 523872, Control_c, 0, 64, 65
1, 523887, Control_c, 0, 64, 77
1, 523902, Control_c, 0, 64, 98
1, 523917, Control_c, 0, 64, 127
1, 523948, Note_off_c, 0, 40, 62
1, 524022, Note_off_c, 0, 75, 51
1, 524112, Note_on_c, 0, 61, 60
1, 524138, Note_off_c, 0, 61, 65
1, 524170, Control_c, 0, 67, 125
1, 524185, Control_c, 0, 67, 122
1, 524199, Control_c, 0, 67, 119
1, 524214, Control_c, 0, 67, 116
1, 524229, Control_c, 0, 67, 114
1, 524244, Control_c, 0, 67, 111
1, 524259, Control_c, 0, 67, 109
1, 524273, Control_c, 0, 67, 105
1, 524288, Control_c, 0, 67, 101
1, 524292, Note_on_c, 0, 90, 78
1, 524303, Control_c, 0, 67, 97
1, 524317, Control_c, 0, 67, 94
1, 524328, Note_on_c, 0, 78, 43
1, 524332, Control_c, 0, 67, 91
1, 524347, Control_c, 0, 67, 89
1, 524362, Control_c, 0, 67, 87
1, 524377, Control_c, 0, 67, 85
1, 524381, Note_off_c, 0, 78, 0
1, 524381, Note_on_c, 0, 78, 13
1, 524391, Control_c, 0, 67, 84
1, 524406, Control_c, 0, 67, 82
1, 524421, Control_c, 0, 67, 80
1, 524436, Control_c, 0, 67, 78
1, 524451, Control_c, 0, 67, 76
1, 524465, Control_c, 0, 67, 73
1, 524480, Control_c, 0, 67, 72
1, 524495, Control_c, 0, 67, 70
1, 524517, Control_c, 0, 67, 69
1, 524532, Control_c, 0, 67, 68
1, 524541, Note_off_c, 0, 87, 60
1, 524547, Control_c, 0, 67, 68
1, 524562, Control_c, 0, 67, 67
1, 524577, Control_c, 0, 67, 66
1, 524591, Control_c, 0, 67, 65
1, 524621, Control_c, 0, 67, 65
1, 524864, Note_on_c, 0, 69, 33
1, 524891, Note_on_c, 0, 64, 27
1, 525046, Note_off_c, 0, 69, 41
1, 525055, Note_off_c, 0, 64, 40
1, 525081, Control_c, 0, 67, 65
1, 525111, Control_c, 0, 67, 66
1, 525126, Control_c, 0, 67, 66
1, 525140, Control_c, 0, 67, 67
1, 525155, Control_c, 0, 67, 67
1, 525170, Control_c, 0, 67, 68
1, 525185, Control_c, 0, 67, 68
1, 525200, Control_c, 0, 67, 69
1, 525214, Control_c, 0, 67, 69
1, 525229, Control_c, 0, 67, 70
1, 525244, Control_c, 0, 67, 70
1, 525266, Note_on_c, 0, 69, 42
1, 525266, Control_c, 0, 67, 71
1, 525281, Control_c, 0, 67, 71
1, 525296, Control_c, 0, 67, 72
1, 525307, Note_on_c, 0, 64, 31
1, 525311, Control_c, 0, 67, 72
1, 525326, Control_c, 0, 67, 73
1, 525352, Note_off_c, 0, 78, 42
1, 525355, Control_c, 0, 67, 73
1, 525370, Control_c, 0, 67, 74
1, 525385, Control_c, 0, 67, 74
1, 525400, Control_c, 0, 67, 75
1, 525414, Control_c, 0, 67, 75
1, 525429, Control_c, 0, 67, 76
1, 525446, Note_off_c, 0, 69, 31
1, 525459, Control_c, 0, 67, 76
1, 525471, Note_off_c, 0, 64, 41
1, 525473, Control_c, 0, 67, 77
1, 525488, Control_c, 0, 67, 77
1, 525503, Control_c, 0, 67, 79
1, 525518, Control_c, 0, 67, 80
1, 525533, Control_c, 0, 67, 82
1, 525549, Control_c, 0, 67, 83
1, 525563, Control_c, 0, 67, 85
1, 525578, Control_c, 0, 67, 87
1, 525593, Control_c, 0, 67, 89
1, 525608, Control_c, 0, 67, 90
1, 525623, Control_c, 0, 67, 91
1, 525637, Control_c, 0, 67, 93
1, 525652, Control_c, 0, 67, 95
1, 525660, Note_on_c, 0, 88, 67
1, 525667, Control_c, 0, 67, 97
1, 525682, Control_c, 0, 67, 98
1, 525696, Note_on_c, 0, 61, 37
1, 525696, Control_c, 0, 67, 100
1, 525711, Control_c, 0, 67, 101
1, 525714, Note_on_c, 0, 69, 25
1, 525726, Control_c, 0, 67, 102
1, 525729, Note_on_c, 0, 76, 4
1, 525741, Control_c, 0, 67, 104
1, 525756, Control_c, 0, 67, 105
1, 525766, Poly_aftertouch_c, 0, 64, 127
1, 525771, Control_c, 0, 67, 106
1, 525786, Control_c, 0, 67, 108
1, 525801, Control_c, 0, 67, 109
1, 525816, Control_c, 0, 67, 111
1, 525819, Note_off_c, 0, 90, 48
1, 525830, Control_c, 0, 67, 112
1, 525845, Control_c, 0, 67, 114
1, 525847, Note_off_c, 0, 76, 38
1, 525860, Control_c, 0, 67, 116
1, 525875, Control_c, 0, 67, 118
1, 525889, Control_c, 0, 67, 120
1, 525904, Control_c, 0, 67, 122
1, 525905, Note_off_c, 0, 61, 42
1, 525919, Control_c, 0, 67, 124
1, 525934, Control_c, 0, 67, 126
1, 525949, Control_c, 0, 67, 127
1, 526262, Note_on_c, 0, 90, 61
1, 526304, Note_on_c, 0, 78, 39
1, 526319, Note_on_c, 0, 59, 28
1, 526319, Note_on_c, 0, 62, 20
1, 526372, Control_c, 0, 64, 95
1, 526386, Control_c, 0, 64, 76
1, 526400, Note_off_c, 0, 88, 51
1, 526401, Control_c, 0, 64, 63
1, 526416, Control_c, 0, 64, 46
1, 526428, Poly_aftertouch_c, 0, 64, 0
1, 526431, Control_c, 0, 64, 45
1, 526446, Control_c, 0, 64, 47
1, 526460, Control_c, 0, 64, 54
1, 526475, Control_c, 0, 64, 62
1, 526490, Control_c, 0, 64, 67
1, 526505, Control_c, 0, 64, 77
1, 526519, Control_c, 0, 64, 89
1, 526534, Control_c, 0, 64, 106
1, 526549, Control_c, 0, 64, 127
1, 526620, Note_off_c, 0, 69, 51
1, 526774, Note_off_c, 0, 78, 44
1, 526861, Note_on_c, 0, 68, 36
1, 526865, Note_on_c, 0, 64, 33
1, 526987, Note_off_c, 0, 68, 33
1, 527016, Note_off_c, 0, 64, 39
1, 527026, Note_off_c, 0, 59, 41
1, 527038, Note_off_c, 0, 62, 39
1, 527110, Note_on_c, 0, 88, 47
1, 527136, Note_on_c, 0, 76, 39
1, 527190, Note_off_c, 0, 90, 65
1, 527378, Note_off_c, 0, 76, 42
1, 527378, Note_off_c, 0, 88, 33
1, 527532, Note_on_c, 0, 88, 50
1, 527568, Note_on_c, 0, 45, 39
1, 527586, Note_on_c, 0, 76, 30
1, 527603, Control_c, 0, 64, 115
1, 527617, Control_c, 0, 64, 84
1, 527632, Control_c, 0, 64, 65
1, 527647, Control_c, 0, 64, 44
1, 527661, Control_c, 0, 64, 52
1, 527676, Control_c, 0, 64, 63
1, 527691, Control_c, 0, 64, 67
1, 527706, Control_c, 0, 64, 76
1, 527721, Control_c, 0, 64, 90
1, 527735, Control_c, 0, 64, 127
1, 527769, Note_off_c, 0, 45, 41
1, 528230, Note_on_c, 0, 73, 34
1, 528248, Note_on_c, 0, 69, 27
1, 528285, Poly_aftertouch_c, 0, 61, 127
1, 528295, Note_on_c, 0, 64, 9
1, 528431, Note_off_c, 0, 73, 41
1, 528463, Poly_aftertouch_c, 0, 61, 0
1, 528468, Note_off_c, 0, 88, 54
1, 528470, Note_off_c, 0, 64, 38
1, 528474, Note_off_c, 0, 69, 39
1, 528497, Note_off_c, 0, 76, 42
1, 528649, Note_on_c, 0, 69, 26
1, 528655, Note_on_c, 0, 73, 38
1, 528666, Note_on_c, 0, 64, 17
1, 528692, Poly_aftertouch_c, 0, 61, 127
1, 528775, Poly_aftertouch_c, 0, 61, 0
1, 528807, Note_off_c, 0, 73, 40
1, 528814, Note_off_c, 0, 69, 41
1, 528837, Note_off_c, 0, 64, 35
1, 529039, Note_on_c, 0, 64, 32
1, 529048, Note_on_c, 0, 73, 38
1, 529051, Note_on_c, 0, 69, 37
1, 529072, Note_on_c, 0, 61, 27
1, 529211, Note_on_c, 0, 52, 35
1, 529222, Note_off_c, 0, 61, 32
1, 529223, Note_off_c, 0, 73, 44
1, 529230, Note_off_c, 0, 69, 33
1, 529238, Note_off_c, 0, 64, 40
1, 529339, Note_off_c, 0, 52, 32
1, 529415, Note_on_c, 0, 73, 61
1, 529440, Note_on_c, 0, 61, 42
1, 529445, Note_on_c, 0, 69, 41
1, 529446, Note_on_c, 0, 64, 33
1, 529456, Note_on_c, 0, 45, 33
1, 529506, Note_off_c, 0, 61, 50
1, 529529, Note_off_c, 0, 73, 63
1, 529569, Note_off_c, 0, 64, 42
1, 529583, Note_off_c, 0, 69, 34
1, 529598, Note_off_c, 0, 45, 34
1, 529792, Note_on_c, 0, 74, 66
1, 529831, Note_on_c, 0, 69, 43
1, 529840, Note_on_c, 0, 64, 34
1, 529907, Note_off_c, 0, 74, 63
1, 529963, Note_off_c, 0, 69, 46
1, 529972, Note_on_c, 0, 40, 39
1, 529980, Note_off_c, 0, 64, 41
1, 530251, Note_on_c, 0, 75, 66
1, 530274, Note_on_c, 0, 69, 48
1, 530295, Note_on_c, 0, 61, 46
1, 530298, Note_on_c, 0, 64, 29
1, 530307, Note_on_c, 0, 33, 35
1, 530367, Control_c, 0, 64, 113
1, 530382, Control_c, 0, 64, 84
1, 530397, Control_c, 0, 64, 64
1, 530412, Control_c, 0, 64, 47
1, 530427, Control_c, 0, 64, 55
1, 530442, Control_c, 0, 64, 64
1, 530457, Control_c, 0, 64, 68
1, 530472, Control_c, 0, 64, 76
1, 530486, Control_c, 0, 64, 89
1, 530508, Control_c, 0, 64, 127
1, 530636, Note_off_c, 0, 61, 28
1, 530657, Note_off_c, 0, 69, 37
1, 530671, Note_off_c, 0, 64, 40
1, 530718, Note_off_c, 0, 33, 39
1, 530731, Note_off_c, 0, 40, 41
1, 530836, Note_on_c, 0, 69, 43
1, 530846, Note_on_c, 0, 61, 39
1, 530859, Note_on_c, 0, 64, 31
1, 531000, Note_off_c, 0, 69, 32
1, 531010, Note_off_c, 0, 61, 43
1, 531017, Note_off_c, 0, 64, 40
1, 531225, Note_on_c, 0, 69, 44
1, 531232, Note_on_c, 0, 61, 33
1, 531239, Note_on_c, 0, 64, 36
1, 531390, Control_c, 0, 67, 126
1, 531391, Note_off_c, 0, 75, 53
1, 531405, Control_c, 0, 67, 125
1, 531420, Control_c, 0, 67, 123
1, 531435, Control_c, 0, 67, 121
1, 531441, Note_off_c, 0, 69, 31
1, 531442, Note_off_c, 0, 61, 39
1, 531443, Note_off_c, 0, 64, 42
1, 531449, Control_c, 0, 67, 119
1, 531464, Control_c, 0, 67, 116
1, 531479, Control_c, 0, 67, 114
1, 531494, Control_c, 0, 67, 111
1, 531508, Control_c, 0, 67, 109
1, 531523, Control_c, 0, 67, 106
1, 531538, Control_c, 0, 67, 105
1, 531553, Control_c, 0, 67, 103
1, 531568, Control_c, 0, 67, 101
1, 531582, Control_c, 0, 67, 100
1, 531597, Control_c, 0, 67, 98
1, 531612, Control_c, 0, 67, 97
1, 531626, Control_c, 0, 67, 96
1, 531630, Note_on_c, 0, 76, 53
1, 531641, Control_c, 0, 67, 94
1, 531647, Note_on_c, 0, 73, 38
1, 531656, Control_c, 0, 67, 93
1, 531671, Control_c, 0, 67, 91
1, 531673, Note_on_c, 0, 69, 27
1, 531686, Control_c, 0, 67, 89
1, 531688, Note_on_c, 0, 64, 27
1, 531691, Note_on_c, 0, 61, 20
1, 531700, Control_c, 0, 67, 88
1, 531715, Control_c, 0, 67, 86
1, 531730, Control_c, 0, 67, 84
1, 531745, Control_c, 0, 67, 82
1, 531760, Control_c, 0, 67, 80
1, 531774, Control_c, 0, 67, 78
1, 531789, Control_c, 0, 67, 75
1, 531804, Control_c, 0, 67, 73
1, 531806, Note_off_c, 0, 73, 45
1, 531819, Control_c, 0, 67, 70
1, 531826, Note_off_c, 0, 64, 42
1, 531834, Control_c, 0, 67, 68
1, 531841, Note_off_c, 0, 61, 38
1, 531844, Note_off_c, 0, 69, 41
1, 531849, Control_c, 0, 67, 67
1, 531864, Control_c, 0, 67, 65
1, 531879, Control_c, 0, 67, 64
1, 531894, Control_c, 0, 67, 62
1, 531908, Control_c, 0, 67, 60
1, 531923, Control_c, 0, 67, 57
1, 531929, Poly_aftertouch_c, 0, 85, 127
1, 531938, Control_c, 0, 67, 53
1, 531953, Control_c, 0, 67, 50
1, 531968, Control_c, 0, 67, 46
1, 531983, Control_c, 0, 67, 44
1, 532005, Control_c, 0, 67, 42
1, 532020, Control_c, 0, 67, 40
1, 532035, Control_c, 0, 67, 37
1, 532050, Control_c, 0, 67, 35
1, 532061, Note_on_c, 0, 80, 57
1, 532064, Control_c, 0, 67, 33
1, 532079, Control_c, 0, 67, 31
1, 532094, Control_c, 0, 67, 28
1, 532099, Note_on_c, 0, 73, 27
1, 532099, Note_on_c, 0, 69, 27
1, 532109, Control_c, 0, 67, 26
1, 532123, Note_on_c, 0, 64, 24
1, 532124, Control_c, 0, 67, 23
1, 532130, Note_on_c, 0, 61, 23
1, 532138, Control_c, 0, 67, 20
1, 532153, Control_c, 0, 67, 17
1, 532168, Control_c, 0, 67, 14
1, 532183, Control_c, 0, 67, 11
1, 532193, Poly_aftertouch_c, 0, 85, 0
1, 532198, Control_c, 0, 67, 9
1, 532211, Note_off_c, 0, 76, 58
1, 532213, Control_c, 0, 67, 0
1, 532253, Note_off_c, 0, 73, 45
1, 532266, Note_off_c, 0, 64, 42
1, 532269, Note_off_c, 0, 69, 41
1, 532273, Note_off_c, 0, 61, 40
1, 532433, Note_on_c, 0, 81, 68
1, 532469, Note_on_c, 0, 73, 38
1, 532475, Note_on_c, 0, 69, 31
1, 532498, Note_on_c, 0, 64, 29
1, 532513, Note_off_c, 0, 80, 62
1, 532534, Poly_aftertouch_c, 0, 61, 127
1, 532553, Control_c, 0, 67, 8
1, 532568, Control_c, 0, 67, 8
1, 532583, Control_c, 0, 67, 9
1, 532597, Control_c, 0, 67, 10
1, 532600, Poly_aftertouch_c, 0, 61, 0
1, 532612, Control_c, 0, 67, 10
1, 532615, Note_off_c, 0, 73, 42
1, 532622, Note_off_c, 0, 69, 26
1, 532627, Control_c, 0, 67, 11
1, 532636, Note_off_c, 0, 64, 33
1, 532642, Control_c, 0, 67, 11
1, 532657, Control_c, 0, 67, 12
1, 532672, Control_c, 0, 67, 13
1, 532701, Control_c, 0, 67, 14
1, 532716, Control_c, 0, 67, 14
1, 532732, Control_c, 0, 67, 15
1, 532754, Control_c, 0, 67, 16
1, 532769, Control_c, 0, 67, 16
1, 532777, Note_off_c, 0, 81, 55
1, 532784, Control_c, 0, 67, 17
1, 532799, Control_c, 0, 67, 18
1, 532814, Control_c, 0, 67, 19
1, 532828, Control_c, 0, 67, 19
1, 532859, Control_c, 0, 67, 20
1, 532888, Control_c, 0, 67, 20
1, 532988, Note_on_c, 0, 85, 61
1, 533007, Control_c, 0, 67, 21
1, 533035, Note_on_c, 0, 73, 23
1, 533036, Control_c, 0, 67, 21
1, 533037, Note_off_c, 0, 85, 60
1, 533039, Note_on_c, 0, 64, 22
1, 533041, Note_on_c, 0, 69, 27
1, 533044, Note_on_c, 0, 61, 16
1, 533051, Control_c, 0, 67, 23
1, 533066, Control_c, 0, 67, 26
1, 533080, Control_c, 0, 67, 28
1, 533095, Control_c, 0, 67, 31
1, 533110, Control_c, 0, 67, 35
1, 533125, Control_c, 0, 67, 39
1, 533140, Control_c, 0, 67, 43
1, 533155, Control_c, 0, 67, 49
1, 533169, Control_c, 0, 67, 53
1, 533184, Control_c, 0, 67, 57
1, 533199, Control_c, 0, 67, 61
1, 533214, Control_c, 0, 67, 65
1, 533226, Note_off_c, 0, 73, 41
1, 533229, Control_c, 0, 67, 69
1, 533244, Control_c, 0, 67, 73
1, 533256, Note_off_c, 0, 61, 37
1, 533259, Control_c, 0, 67, 78
1, 533264, Note_off_c, 0, 69, 38
1, 533273, Control_c, 0, 67, 82
1, 533277, Note_off_c, 0, 64, 38
1, 533288, Control_c, 0, 67, 86
1, 533303, Control_c, 0, 67, 90
1, 533318, Control_c, 0, 67, 94
1, 533333, Control_c, 0, 67, 98
1, 533347, Control_c, 0, 67, 103
1, 533362, Control_c, 0, 67, 109
1, 533377, Control_c, 0, 67, 114
1, 533392, Control_c, 0, 67, 119
1, 533406, Control_c, 0, 67, 124
1, 533421, Control_c, 0, 67, 127
1, 533580, Note_on_c, 0, 73, 31
1, 533598, Note_on_c, 0, 69, 31
1, 533606, Note_on_c, 0, 64, 26
1, 533629, Note_on_c, 0, 61, 16
1, 533697, Note_off_c, 0, 61, 41
1, 533717, Note_off_c, 0, 69, 30
1, 533736, Note_off_c, 0, 73, 42
1, 533748, Note_on_c, 0, 81, 55
1, 533760, Note_off_c, 0, 64, 40
1, 533782, Note_off_c, 0, 81, 59
1, 533971, Note_on_c, 0, 76, 43
1, 533974, Note_on_c, 0, 73, 29
1, 533976, Note_on_c, 0, 64, 20
1, 533982, Note_on_c, 0, 61, 30
1, 533990, Note_on_c, 0, 69, 28
1, 534039, Note_off_c, 0, 76, 44
1, 534059, Note_off_c, 0, 69, 41
1, 534094, Note_off_c, 0, 73, 41
1, 534125, Note_off_c, 0, 61, 28
1, 534388, Note_on_c, 0, 73, 38
1, 534400, Note_on_c, 0, 61, 31
1, 534420, Note_on_c, 0, 69, 30
1, 534458, Note_off_c, 0, 64, 37
1, 534581, Note_on_c, 0, 52, 53
1, 534621, Note_off_c, 0, 61, 36
1, 534634, Note_off_c, 0, 52, 57
1, 534646, Note_off_c, 0, 73, 43
1, 534673, Note_off_c, 0, 69, 40
1, 534782, Note_on_c, 0, 61, 52
1, 534789, Note_on_c, 0, 73, 43
1, 534796, Note_on_c, 0, 69, 51
1, 534887, Note_on_c, 0, 45, 43
1, 534959, Note_off_c, 0, 45, 51
1, 534978, Note_off_c, 0, 61, 62
1, 535003, Note_off_c, 0, 73, 28
1, 535163, Note_off_c, 0, 69, 16
1, 535230, Note_on_c, 0, 62, 66
1, 535249, Note_on_c, 0, 69, 27
1, 535277, Note_on_c, 0, 73, 25
1, 535415, Note_off_c, 0, 62, 57
1, 535426, Note_on_c, 0, 40, 51
1, 535497, Note_off_c, 0, 73, 38
1, 535533, Note_off_c, 0, 69, 42
1, 535709, Note_off_c, 0, 40, 33
1, 535711, Note_on_c, 0, 63, 62
1, 535731, Note_on_c, 0, 69, 48
1, 535761, Note_on_c, 0, 73, 33
1, 535769, Note_on_c, 0, 33, 37
1, 535853, Control_c, 0, 64, 99
1, 535868, Control_c, 0, 64, 80
1, 535882, Control_c, 0, 64, 68
1, 535897, Control_c, 0, 64, 63
1, 535912, Control_c, 0, 64, 64
1, 535928, Control_c, 0, 64, 65
1, 535943, Control_c, 0, 64, 67
1, 535958, Control_c, 0, 64, 70
1, 535972, Control_c, 0, 64, 75
1, 535987, Control_c, 0, 64, 80
1, 536002, Control_c, 0, 64, 88
1, 536017, Control_c, 0, 64, 103
1, 536031, Control_c, 0, 64, 127
1, 536085, Note_off_c, 0, 69, 36
1, 536091, Note_off_c, 0, 73, 44
1, 536237, Note_on_c, 0, 73, 44
1, 536246, Note_on_c, 0, 69, 41
1, 536370, Note_off_c, 0, 73, 37
1, 536374, Note_off_c, 0, 69, 37
1, 536663, Note_on_c, 0, 73, 40
1, 536669, Note_on_c, 0, 69, 38
1, 536789, Note_off_c, 0, 69, 51
1, 536811, Note_off_c, 0, 73, 33
1, 536852, Note_off_c, 0, 63, 39
1, 537122, Note_on_c, 0, 64, 30
1, 537126, Note_on_c, 0, 73, 38
1, 537137, Note_on_c, 0, 69, 38
1, 537151, Control_c, 0, 64, 93
1, 537166, Control_c, 0, 64, 75
1, 537181, Control_c, 0, 64, 64
1, 537195, Control_c, 0, 64, 59
1, 537210, Control_c, 0, 64, 60
1, 537225, Control_c, 0, 64, 63
1, 537247, Control_c, 0, 64, 65
1, 537262, Control_c, 0, 64, 70
1, 537277, Control_c, 0, 64, 76
1, 537292, Control_c, 0, 64, 83
1, 537307, Control_c, 0, 64, 90
1, 537321, Control_c, 0, 64, 97
1, 537336, Control_c, 0, 64, 106
1, 537351, Control_c, 0, 64, 127
1, 537398, Note_off_c, 0, 73, 41
1, 537541, Note_off_c, 0, 69, 37
1, 537608, Note_on_c, 0, 73, 41
1, 537618, Note_on_c, 0, 68, 40
1, 537648, Control_c, 0, 64, 108
1, 537663, Control_c, 0, 64, 87
1, 537677, Control_c, 0, 64, 76
1, 537692, Control_c, 0, 64, 71
1, 537707, Control_c, 0, 64, 73
1, 537722, Control_c, 0, 64, 78
1, 537737, Control_c, 0, 64, 84
1, 537751, Control_c, 0, 64, 92
1, 537766, Control_c, 0, 64, 103
1, 537781, Control_c, 0, 64, 117
1, 537796, Control_c, 0, 64, 127
1, 537867, Note_off_c, 0, 73, 35
1, 538144, Note_off_c, 0, 68, 37
1, 538148, Note_on_c, 0, 73, 35
1, 538165, Note_on_c, 0, 69, 33
1, 538174, Control_c, 0, 64, 118
1, 538189, Control_c, 0, 64, 88
1, 538203, Control_c, 0, 64, 69
1, 538218, Control_c, 0, 64, 61
1, 538233, Control_c, 0, 64, 60
1, 538248, Control_c, 0, 64, 63
1, 538263, Control_c, 0, 64, 66
1, 538277, Control_c, 0, 64, 70
1, 538292, Control_c, 0, 64, 76
1, 538307, Control_c, 0, 64, 83
1, 538323, Control_c, 0, 64, 90
1, 538338, Control_c, 0, 64, 97
1, 538353, Control_c, 0, 64, 102
1, 538367, Control_c, 0, 64, 107
1, 538382, Control_c, 0, 64, 112
1, 538397, Control_c, 0, 64, 120
1, 538412, Control_c, 0, 64, 127
1, 538552, Note_off_c, 0, 73, 41
1, 538915, Note_on_c, 0, 73, 45
1, 538988, Note_off_c, 0, 33, 34
1, 538996, Note_off_c, 0, 69, 38
1, 539167, Note_off_c, 0, 64, 39
1, 539219, Control_c, 0, 64, 121
1, 539234, Control_c, 0, 64, 117
1, 539248, Control_c, 0, 64, 115
1, 539263, Control_c, 0, 64, 114
1, 539278, Control_c, 0, 64, 112
1, 539293, Control_c, 0, 64, 110
1, 539308, Control_c, 0, 64, 108
1, 539322, Control_c, 0, 64, 107
1, 539337, Control_c, 0, 64, 106
1, 539352, Control_c, 0, 64, 105
1, 539367, Control_c, 0, 64, 105
1, 539642, Control_c, 0, 64, 106
1, 539656, Control_c, 0, 64, 107
1, 539671, Control_c, 0, 64, 108
1, 539686, Control_c, 0, 64, 110
1, 539701, Control_c, 0, 64, 112
1, 539715, Control_c, 0, 64, 114
1, 539730, Control_c, 0, 64, 127
1, 539987, Note_off_c, 0, 73, 36
1, 540619, Note_on_c, 0, 69, 32
1, 540995, Note_off_c, 0, 69, 34
1, 541006, Note_on_c, 0, 64, 36
1, 541435, Control_c, 0, 64, 123
1, 541450, Control_c, 0, 64, 120
1, 541465, Control_c, 0, 64, 118
1, 541480, Control_c, 0, 64, 117
1, 541495, Control_c, 0, 64, 115
1, 541510, Control_c, 0, 64, 114
1, 541525, Control_c, 0, 64, 113
1, 541540, Control_c, 0, 64, 112
1, 541555, Control_c, 0, 64, 111
1, 541570, Control_c, 0, 64, 110
1, 541585, Control_c, 0, 64, 109
1, 541599, Control_c, 0, 64, 108
1, 541614, Control_c, 0, 64, 107
1, 541629, Control_c, 0, 64, 106
1, 541644, Control_c, 0, 64, 106
1, 541659, Control_c, 0, 64, 105
1, 541674, Control_c, 0, 64, 104
1, 541689, Control_c, 0, 64, 103
1, 541718, Control_c, 0, 64, 103
1, 541740, Control_c, 0, 64, 102
1, 541755, Control_c, 0, 64, 101
1, 541770, Control_c, 0, 64, 101
1, 541785, Control_c, 0, 64, 100
1, 541799, Control_c, 0, 64, 99
1, 541814, Control_c, 0, 64, 98
1, 541829, Control_c, 0, 64, 97
1, 541844, Control_c, 0, 64, 96
1, 541859, Control_c, 0, 64, 96
1, 541874, Control_c, 0, 64, 95
1, 541889, Control_c, 0, 64, 95
1, 541903, Control_c, 0, 64, 94
1, 541918, Control_c, 0, 64, 93
1, 541933, Control_c, 0, 64, 92
1, 541948, Control_c, 0, 64, 92
1, 541962, Control_c, 0, 64, 91
1, 541977, Control_c, 0, 64, 91
1, 541992, Control_c, 0, 64, 90
1, 542007, Control_c, 0, 64, 90
1, 542022, Control_c, 0, 64, 89
1, 542036, Control_c, 0, 64, 89
1, 542066, Control_c, 0, 64, 88
1, 542081, Control_c, 0, 64, 88
1, 542110, Control_c, 0, 64, 87
1, 542140, Control_c, 0, 64, 87
1, 542169, Control_c, 0, 64, 86
1, 542258, Control_c, 0, 64, 86
1, 542334, Control_c, 0, 64, 85
1, 542378, Control_c, 0, 64, 85
1, 542408, Control_c, 0, 64, 84
1, 542437, Control_c, 0, 64, 84
1, 542467, Control_c, 0, 64, 83
1, 542519, Control_c, 0, 64, 83
1, 542548, Control_c, 0, 64, 82
1, 542563, Control_c, 0, 64, 82
1, 542578, Control_c, 0, 64, 81
1, 542592, Control_c, 0, 64, 81
1, 542607, Control_c, 0, 64, 80
1, 542637, Control_c, 0, 64, 80
1, 542666, Control_c, 0, 64, 79
1, 542696, Control_c, 0, 64, 79
1, 542726, Control_c, 0, 64, 78
1, 542770, Control_c, 0, 64, 78
1, 542829, Control_c, 0, 64, 77
1, 542873, Control_c, 0, 64, 77
1, 542918, Control_c, 0, 64, 76
1, 542962, Control_c, 0, 64, 76
1, 542991, Control_c, 0, 64, 75
1, 543006, Control_c, 0, 64, 75
1, 543036, Control_c, 0, 64, 74
1, 543051, Control_c, 0, 64, 74
1, 543066, Control_c, 0, 64, 73
1, 543081, Control_c, 0, 64, 73
1, 543111, Control_c, 0, 64, 72
1, 543141, Control_c, 0, 64, 72
1, 543170, Control_c, 0, 64, 71
1, 543200, Control_c, 0, 64, 71
1, 543237, Control_c, 0, 64, 70
1, 543282, Control_c, 0, 64, 70
1, 543356, Control_c, 0, 64, 69
1, 543489, Control_c, 0, 64, 69
1, 543681, Control_c, 0, 64, 69
1, 543755, Control_c, 0, 64, 70
1, 543800, Control_c, 0, 64, 70
1, 543829, Control_c, 0, 64, 71
1, 543859, Control_c, 0, 64, 71
1, 544001, Control_c, 0, 64, 71
1, 544593, Control_c, 0, 64, 71
1, 544713, Control_c, 0, 64, 72
1, 544765, Control_c, 0, 64, 72
1, 544794, Control_c, 0, 64, 73
1, 544853, Control_c, 0, 64, 73
1, 544912, Control_c, 0, 64, 74
1, 544941, Control_c, 0, 64, 74
1, 545060, Control_c, 0, 64, 75
1, 545090, Control_c, 0, 64, 75
1, 545134, Control_c, 0, 64, 76
1, 545149, Control_c, 0, 64, 76
1, 545193, Control_c, 0, 64, 77
1, 545223, Control_c, 0, 64, 77
1, 545238, Control_c, 0, 64, 78
1, 545252, Control_c, 0, 64, 78
1, 545267, Control_c, 0, 64, 79
1, 545282, Control_c, 0, 64, 80
1, 545297, Control_c, 0, 64, 81
1, 545312, Control_c, 0, 64, 81
1, 545326, Control_c, 0, 64, 82
1, 545341, Control_c, 0, 64, 82
1, 545356, Control_c, 0, 64, 83
1, 545371, Control_c, 0, 64, 83
1, 545385, Control_c, 0, 64, 84
1, 545400, Control_c, 0, 64, 85
1, 545415, Control_c, 0, 64, 85
1, 545430, Control_c, 0, 64, 86
1, 545460, Control_c, 0, 64, 86
1, 545482, Control_c, 0, 64, 87
1, 545497, Control_c, 0, 64, 87
1, 545513, Control_c, 0, 64, 88
1, 545528, Control_c, 0, 64, 89
1, 545543, Control_c, 0, 64, 89
1, 545557, Control_c, 0, 64, 90
1, 545572, Control_c, 0, 64, 91
1, 545588, Control_c, 0, 64, 91
1, 545603, Control_c, 0, 64, 92
1, 545617, Control_c, 0, 64, 92
1, 545632, Control_c, 0, 64, 93
1, 545647, Control_c, 0, 64, 94
1, 545662, Control_c, 0, 64, 94
1, 545677, Control_c, 0, 64, 95
1, 545691, Control_c, 0, 64, 96
1, 545706, Control_c, 0, 64, 97
1, 545721, Control_c, 0, 64, 97
1, 545736, Control_c, 0, 64, 98
1, 545751, Control_c, 0, 64, 99
1, 545765, Control_c, 0, 64, 100
1, 545780, Control_c, 0, 64, 101
1, 545795, Control_c, 0, 64, 102
1, 545809, Control_c, 0, 64, 103
1, 545824, Control_c, 0, 64, 104
1, 545839, Control_c, 0, 64, 105
1, 545854, Control_c, 0, 64, 106
1, 545883, Control_c, 0, 64, 107
1, 545898, Control_c, 0, 64, 107
1, 545913, Control_c, 0, 64, 108
1, 545928, Control_c, 0, 64, 108
1, 545943, Control_c, 0, 64, 109
1, 545957, Control_c, 0, 64, 109
1, 545972, Control_c, 0, 64, 110
1, 545987, Control_c, 0, 64, 110
1, 546002, Control_c, 0, 64, 111
1, 546017, Control_c, 0, 64, 112
1, 546032, Control_c, 0, 64, 113
1, 546047, Control_c, 0, 64, 113
1, 546062, Control_c, 0, 64, 114
1, 546077, Control_c, 0, 64, 115
1, 546091, Control_c, 0, 64, 115
1, 546106, Control_c, 0, 64, 116
1, 546121, Control_c, 0, 64, 117
1, 546135, Control_c, 0, 64, 118
1, 546150, Control_c, 0, 64, 119
1, 546165, Control_c, 0, 64, 119
1, 546180, Control_c, 0, 64, 120
1, 546195, Control_c, 0, 64, 121
1, 546209, Control_c, 0, 64, 122
1, 546262, Control_c, 0, 64, 123
1, 546291, Control_c, 0, 64, 124
1, 546306, Control_c, 0, 64, 126
1, 546321, Control_c, 0, 64, 127
1, 546692, Note_off_c, 0, 64, 33
1, 546692, Control_c, 0, 64, 124
1, 546706, Control_c, 0, 64, 123
1, 546721, Control_c, 0, 64, 122
1, 546736, Control_c, 0, 64, 121
1, 546750, Control_c, 0, 64, 120
1, 546765, Control_c, 0, 64, 119
1, 546780, Control_c, 0, 64, 119
1, 546795, Control_c, 0, 64, 118
1, 546810, Control_c, 0, 64, 117
1, 546825, Control_c, 0, 64, 117
1, 546840, Control_c, 0, 64, 116
1, 546855, Control_c, 0, 64, 115
1, 546870, Control_c, 0, 64, 114
1, 546885, Control_c, 0, 64, 114
1, 546899, Control_c, 0, 64, 113
1, 546914, Control_c, 0, 64, 112
1, 546929, Control_c, 0, 64, 111
1, 546944, Control_c, 0, 64, 110
1, 546958, Control_c, 0, 64, 110
1, 546980, Control_c, 0, 64, 109
1, 546995, Control_c, 0, 64, 108
1, 547010, Control_c, 0, 64, 106
1, 547025, Control_c, 0, 64, 104
1, 547040, Control_c, 0, 64, 102
1, 547054, Control_c, 0, 64, 100
1, 547069, Control_c, 0, 64, 98
1, 547084, Control_c, 0, 64, 97
1, 547099, Control_c, 0, 64, 95
1, 547115, Control_c, 0, 64, 93
1, 547129, Control_c, 0, 64, 91
1, 547144, Control_c, 0, 64, 89
1, 547159, Control_c, 0, 64, 87
1, 547174, Control_c, 0, 64, 85
1, 547189, Control_c, 0, 64, 84
1, 547204, Control_c, 0, 64, 82
1, 547218, Control_c, 0, 64, 81
1, 547233, Control_c, 0, 64, 79
1, 547248, Control_c, 0, 64, 78
1, 547263, Control_c, 0, 64, 77
1, 547278, Control_c, 0, 64, 76
1, 547293, Control_c, 0, 64, 75
1, 547308, Control_c, 0, 64, 74
1, 547323, Control_c, 0, 64, 73
1, 547337, Control_c, 0, 64, 71
1, 547352, Control_c, 0, 64, 71
1, 547367, Control_c, 0, 64, 70
1, 547381, Control_c, 0, 64, 70
1, 547396, Control_c, 0, 64, 69
1, 547411, Control_c, 0, 64, 69
1, 547426, Control_c, 0, 64, 68
1, 547441, Control_c, 0, 64, 68
1, 547455, Control_c, 0, 64, 67
1, 547485, Control_c, 0, 64, 67
1, 547515, Control_c, 0, 64, 66
1, 547559, Control_c, 0, 64, 66
1, 547707, Control_c, 0, 64, 65
1, 548685, Control_c, 0, 64, 66
1, 549101, Control_c, 0, 64, 66
1, 549464, Control_c, 0, 64, 66
1, 549587, Note_on_c, 0, 66, 84
1, 549598, Control_c, 0, 64, 65
1, 549613, Control_c, 0, 64, 64
1, 549618, Note_off_c, 0, 66, 64
1, 549628, Control_c, 0, 64, 61
1, 549643, Control_c, 0, 64, 54
1, 549657, Control_c, 0, 64, 46
1, 549672, Control_c, 0, 64, 36
1, 549687, Control_c, 0, 64, 0
1, 549807, Note_on_c, 0, 54, 78
1, 549830, Note_off_c, 0, 54, 68
1, 549957, Note_on_c, 0, 56, 76
1, 550017, Note_off_c, 0, 56, 64
1, 550021, Note_on_c, 0, 57, 83
1, 550110, Control_c, 0, 64, 43
1, 550124, Control_c, 0, 64, 63
1, 550139, Control_c, 0, 64, 69
1, 550154, Control_c, 0, 64, 75
1, 550169, Control_c, 0, 64, 82
1, 550183, Control_c, 0, 64, 91
1, 550198, Control_c, 0, 64, 97
1, 550199, Note_on_c, 0, 90, 80
1, 550205, Note_on_c, 0, 78, 84
1, 550209, Note_on_c, 0, 81, 67
1, 550213, Control_c, 0, 64, 99
1, 550217, Note_off_c, 0, 90, 73
1, 550218, Note_on_c, 0, 85, 60
1, 550225, Note_off_c, 0, 81, 68
1, 550228, Control_c, 0, 64, 100
1, 550232, Note_off_c, 0, 78, 62
1, 550237, Note_off_c, 0, 85, 63
1, 550243, Control_c, 0, 64, 101
1, 550244, Note_off_c, 0, 57, 56
1, 550334, Note_on_c, 0, 59, 68
1, 550392, Note_off_c, 0, 59, 62
1, 550392, Control_c, 0, 64, 99
1, 550397, Note_on_c, 0, 61, 86
1, 550406, Control_c, 0, 64, 91
1, 550407, Note_on_c, 0, 69, 77
1, 550414, Note_on_c, 0, 78, 90
1, 550416, Note_on_c, 0, 73, 83
1, 550417, Note_on_c, 0, 66, 82
1, 550421, Control_c, 0, 64, 77
1, 550436, Note_off_c, 0, 61, 63
1, 550436, Control_c, 0, 64, 64
1, 550451, Control_c, 0, 64, 0
1, 550535, Note_on_c, 0, 57, 69
1, 550540, Control_c, 0, 67, 124
1, 550554, Control_c, 0, 67, 119
1, 550569, Control_c, 0, 67, 114
1, 550581, Note_off_c, 0, 57, 62
1, 550581, Note_on_c, 0, 54, 75
1, 550584, Control_c, 0, 67, 107
1, 550599, Control_c, 0, 67, 101
1, 550605, Note_off_c, 0, 54, 69
1, 550614, Control_c, 0, 67, 94
1, 550629, Control_c, 0, 67, 91
1, 550643, Control_c, 0, 67, 89
1, 550655, Note_off_c, 0, 69, 62
1, 550658, Note_off_c, 0, 78, 62
1, 550658, Control_c, 0, 67, 88
1, 550673, Control_c, 0, 67, 85
1, 550675, Note_off_c, 0, 73, 60
1, 550688, Control_c, 0, 67, 81
1, 550703, Control_c, 0, 67, 78
1, 550711, Note_off_c, 0, 66, 62
1, 550713, Note_on_c, 0, 50, 75
1, 550718, Control_c, 0, 67, 73
1, 550739, Control_c, 0, 67, 69
1, 550754, Control_c, 0, 67, 66
1, 550769, Control_c, 0, 67, 63
1, 550770, Note_on_c, 0, 49, 76
1, 550784, Control_c, 0, 67, 61
1, 550790, Note_off_c, 0, 49, 65
1, 550794, Note_off_c, 0, 50, 38
1, 550799, Control_c, 0, 67, 59
1, 550813, Control_c, 0, 67, 58
1, 550828, Control_c, 0, 67, 57
1, 550843, Control_c, 0, 67, 56
1, 550858, Control_c, 0, 67, 55
1, 550873, Control_c, 0, 67, 55
1, 550888, Control_c, 0, 67, 54
1, 550904, Note_on_c, 0, 47, 68
1, 550918, Control_c, 0, 67, 54
1, 550932, Control_c, 0, 67, 53
1, 550937, Note_off_c, 0, 47, 68
1, 550939, Note_on_c, 0, 45, 70
1, 550942, Note_on_c, 0, 61, 79
1, 550944, Note_on_c, 0, 73, 81
1, 550946, Note_on_c, 0, 64, 67
1, 550947, Control_c, 0, 67, 53
1, 550962, Control_c, 0, 67, 51
1, 550965, Note_off_c, 0, 45, 67
1, 550965, Note_off_c, 0, 61, 67
1, 550967, Note_off_c, 0, 73, 69
1, 550972, Note_off_c, 0, 64, 69
1, 550977, Control_c, 0, 67, 49
1, 550992, Control_c, 0, 67, 46
1, 551006, Control_c, 0, 67, 43
1, 551021, Control_c, 0, 67, 38
1, 551036, Control_c, 0, 67, 34
1, 551051, Control_c, 0, 67, 30
1, 551066, Control_c, 0, 67, 28
1, 551080, Control_c, 0, 67, 26
1, 551096, Control_c, 0, 67, 25
1, 551111, Control_c, 0, 67, 24
1, 551126, Control_c, 0, 67, 23
1, 551129, Note_on_c, 0, 44, 77
1, 551135, Note_on_c, 0, 64, 57
1, 551135, Note_on_c, 0, 71, 72
1, 551138, Note_on_c, 0, 59, 70
1, 551141, Control_c, 0, 67, 21
1, 551155, Control_c, 0, 67, 16
1, 551157, Note_off_c, 0, 44, 67
1, 551157, Note_off_c, 0, 64, 63
1, 551157, Note_off_c, 0, 71, 70
1, 551164, Note_off_c, 0, 59, 66
1, 551170, Control_c, 0, 67, 10
1, 551185, Control_c, 0, 67, 0
1, 551313, Note_on_c, 0, 69, 71
1, 551314, Note_on_c, 0, 42, 68
1, 551316, Note_on_c, 0, 57, 66
1, 551326, Note_on_c, 0, 64, 46
1, 551339, Note_off_c, 0, 69, 68
1, 551340, Note_off_c, 0, 57, 64
1, 551344, Note_off_c, 0, 42, 65
1, 551352, Note_off_c, 0, 64, 57
1, 551508, Note_on_c, 0, 68, 79
1, 551509, Note_on_c, 0, 56, 69
1, 551511, Note_on_c, 0, 40, 64
1, 551511, Note_on_c, 0, 64, 45
1, 551530, Note_off_c, 0, 68, 69
1, 551535, Note_off_c, 0, 56, 65
1, 551538, Note_off_c, 0, 64, 55
1, 551545, Note_off_c, 0, 40, 63
1, 551696, Control_c, 0, 64, 70
1, 551699, Note_on_c, 0, 76, 103
1, 551702, Note_on_c, 0, 52, 78
1, 551708, Note_on_c, 0, 68, 88
1, 551711, Control_c, 0, 64, 95
1, 551711, Note_on_c, 0, 64, 75
1, 551726, Control_c, 0, 64, 127
1, 551727, Note_off_c, 0, 52, 66
1, 551729, Note_off_c, 0, 64, 70
1, 551729, Note_off_c, 0, 68, 71
1, 551729, Note_off_c, 0, 76, 65
1, 551896, Note_on_c, 0, 71, 114
1, 551919, Control_c, 0, 64, 99
1, 551919, Note_off_c, 0, 71, 74
1, 551934, Control_c, 0, 64, 68
1, 551949, Control_c, 0, 64, 0
1, 552038, Control_c, 0, 67, 8
1, 552052, Control_c, 0, 67, 11
1, 552067, Control_c, 0, 67, 14
1, 552082, Control_c, 0, 67, 17
1, 552095, Note_on_c, 0, 59, 78
1, 552097, Control_c, 0, 67, 22
1, 552112, Control_c, 0, 67, 28
1, 552116, Note_off_c, 0, 59, 69
1, 552126, Control_c, 0, 67, 33
1, 552141, Control_c, 0, 67, 37
1, 552156, Control_c, 0, 67, 39
1, 552170, Control_c, 0, 67, 40
1, 552185, Control_c, 0, 67, 41
1, 552250, Note_on_c, 0, 61, 69
1, 552282, Control_c, 0, 67, 40
1, 552295, Note_on_c, 0, 62, 80
1, 552297, Control_c, 0, 67, 40
1, 552303, Note_off_c, 0, 61, 63
1, 552312, Control_c, 0, 67, 39
1, 552327, Control_c, 0, 67, 38
1, 552342, Control_c, 0, 67, 36
1, 552357, Control_c, 0, 67, 36
1, 552371, Control_c, 0, 67, 34
1, 552386, Control_c, 0, 64, 45
1, 552386, Control_c, 0, 67, 33
1, 552401, Control_c, 0, 64, 65
1, 552401, Control_c, 0, 67, 32
1, 552416, Control_c, 0, 64, 74
1, 552416, Control_c, 0, 67, 30
1, 552431, Control_c, 0, 64, 86
1, 552431, Control_c, 0, 67, 28
1, 552445, Control_c, 0, 64, 113
1, 552445, Control_c, 0, 67, 25
1, 552460, Control_c, 0, 64, 127
1, 552460, Control_c, 0, 67, 23
1, 552465, Note_on_c, 0, 95, 87
1, 552466, Note_on_c, 0, 90, 87
1, 552471, Note_on_c, 0, 83, 84
1, 552471, Note_on_c, 0, 86, 78
1, 552475, Control_c, 0, 67, 20
1, 552481, Note_off_c, 0, 95, 76
1, 552487, Note_off_c, 0, 90, 70
1, 552489, Note_off_c, 0, 83, 72
1, 552490, Note_off_c, 0, 86, 72
1, 552490, Control_c, 0, 67, 17
1, 552504, Control_c, 0, 67, 16
1, 552519, Control_c, 0, 67, 15
1, 552564, Control_c, 0, 67, 16
1, 552591, Note_off_c, 0, 62, 63
1, 552593, Control_c, 0, 67, 16
1, 552605, Note_on_c, 0, 64, 80
1, 552623, Control_c, 0, 67, 17
1, 552638, Control_c, 0, 67, 17
1, 552647, Note_on_c, 0, 83, 103
1, 552648, Note_on_c, 0, 66, 89
1, 552650, Note_on_c, 0, 78, 94
1, 552651, Note_off_c, 0, 64, 66
1, 552652, Note_on_c, 0, 71, 95
1, 552652, Note_on_c, 0, 74, 97
1, 552653, Control_c, 0, 67, 18
1, 552668, Control_c, 0, 64, 84
1, 552668, Control_c, 0, 67, 19
1, 552682, Control_c, 0, 64, 57
1, 552682, Control_c, 0, 67, 19
1, 552684, Note_off_c, 0, 66, 63
1, 552698, Control_c, 0, 64, 0
1, 552742, Control_c, 0, 67, 19
1, 552757, Control_c, 0, 67, 18
1, 552772, Control_c, 0, 67, 18
1, 552787, Control_c, 0, 67, 17
1, 552790, Note_on_c, 0, 62, 89
1, 552802, Control_c, 0, 67, 17
1, 552817, Control_c, 0, 67, 16
1, 552828, Note_on_c, 0, 59, 88
1, 552831, Note_off_c, 0, 62, 62
1, 552831, Control_c, 0, 67, 16
1, 552866, Note_off_c, 0, 59, 65
1, 552897, Note_off_c, 0, 83, 61
1, 552903, Note_off_c, 0, 74, 65
1, 552924, Note_off_c, 0, 78, 63
1, 552940, Note_off_c, 0, 71, 60
1, 552957, Note_on_c, 0, 55, 76
1, 553002, Note_off_c, 0, 55, 63
1, 553005, Note_on_c, 0, 54, 85
1, 553016, Control_c, 0, 67, 16
1, 553031, Note_off_c, 0, 54, 69
1, 553031, Control_c, 0, 67, 17
1, 553046, Control_c, 0, 67, 17
1, 553061, Control_c, 0, 67, 18
1, 553154, Note_on_c, 0, 52, 73
1, 553174, Note_on_c, 0, 78, 76
1, 553177, Note_on_c, 0, 69, 72
1, 553177, Note_on_c, 0, 66, 71
1, 553179, Control_c, 0, 67, 17
1, 553186, Note_off_c, 0, 52, 63
1, 553192, Note_on_c, 0, 50, 59
1, 553198, Note_off_c, 0, 69, 70
1, 553200, Note_off_c, 0, 66, 67
1, 553200, Note_off_c, 0, 78, 63
1, 553217, Note_off_c, 0, 50, 60
1, 553253, Control_c, 0, 67, 17
1, 553267, Control_c, 0, 67, 16
1, 553282, Control_c, 0, 67, 16
1, 553297, Control_c, 0, 67, 15
1, 553326, Control_c, 0, 67, 15
1, 553341, Control_c, 0, 67, 14
1, 553356, Control_c, 0, 67, 13
1, 553361, Note_on_c, 0, 76, 75
1, 553371, Note_on_c, 0, 49, 68
1, 553371, Control_c, 0, 67, 10
1, 553376, Note_on_c, 0, 64, 58
1, 553377, Note_on_c, 0, 69, 50
1, 553383, Note_off_c, 0, 76, 68
1, 553386, Control_c, 0, 67, 0
1, 553397, Note_off_c, 0, 64, 62
1, 553399, Note_off_c, 0, 49, 65
1, 553401, Note_off_c, 0, 69, 59
1, 553544, Note_on_c, 0, 74, 73
1, 553548, Note_on_c, 0, 47, 62
1, 553548, Note_on_c, 0, 62, 67
1, 553550, Note_on_c, 0, 69, 51
1, 553567, Note_off_c, 0, 74, 67
1, 553569, Note_off_c, 0, 62, 64
1, 553573, Note_off_c, 0, 47, 64
1, 553575, Note_off_c, 0, 69, 59
1, 553737, Note_on_c, 0, 73, 84
1, 553746, Note_on_c, 0, 61, 56
1, 553747, Note_on_c, 0, 69, 34
1, 553752, Note_on_c, 0, 45, 57
1, 553759, Note_off_c, 0, 73, 68
1, 553770, Note_off_c, 0, 61, 58
1, 553778, Note_off_c, 0, 45, 61
1, 553782, Note_off_c, 0, 69, 54
1, 553869, Control_c, 0, 64, 44
1, 553884, Control_c, 0, 64, 66
1, 553898, Control_c, 0, 64, 75
1, 553913, Control_c, 0, 64, 91
1, 553926, Note_on_c, 0, 81, 101
1, 553928, Control_c, 0, 64, 127
1, 553934, Note_on_c, 0, 57, 67
1, 553935, Note_on_c, 0, 73, 80
1, 553938, Note_off_c, 0, 81, 80
1, 553944, Note_on_c, 0, 69, 58
1, 553945, Note_off_c, 0, 69, 127
1, 553949, Note_off_c, 0, 73, 72
1, 553960, Note_off_c, 0, 57, 66
1, 554061, Control_c, 0, 67, 8
1, 554076, Control_c, 0, 67, 10
1, 554090, Control_c, 0, 67, 12
1, 554105, Control_c, 0, 67, 14
1, 554120, Control_c, 0, 67, 16
1, 554135, Control_c, 0, 67, 17
1, 554138, Note_on_c, 0, 57, 82
1, 554140, Note_on_c, 0, 45, 70
1, 554164, Control_c, 0, 64, 96
1, 554179, Control_c, 0, 64, 70
1, 554194, Control_c, 0, 64, 0
1, 554238, Control_c, 0, 67, 18
1, 554253, Control_c, 0, 67, 19
1, 554268, Control_c, 0, 67, 20
1, 554283, Control_c, 0, 67, 22
1, 554299, Control_c, 0, 67, 23
1, 554313, Control_c, 0, 67, 24
1, 554328, Control_c, 0, 67, 24
1, 554339, Note_on_c, 0, 47, 63
1, 554339, Note_on_c, 0, 59, 76
1, 554387, Control_c, 0, 67, 24
1, 554402, Control_c, 0, 67, 23
1, 554417, Control_c, 0, 67, 23
1, 554432, Control_c, 0, 67, 22
1, 554447, Control_c, 0, 67, 22
1, 554456, Note_off_c, 0, 47, 63
1, 554462, Control_c, 0, 67, 21
1, 554477, Note_off_c, 0, 59, 58
1, 554531, Note_on_c, 0, 63, 73
1, 554536, Note_on_c, 0, 51, 70
1, 554572, Control_c, 0, 67, 22
1, 554617, Control_c, 0, 67, 22
1, 554626, Note_off_c, 0, 63, 57
1, 554632, Control_c, 0, 67, 23
1, 554639, Note_off_c, 0, 51, 57
1, 554692, Control_c, 0, 67, 22
1, 554706, Control_c, 0, 67, 21
1, 554713, Note_on_c, 0, 54, 71
1, 554721, Note_on_c, 0, 66, 70
1, 554736, Control_c, 0, 67, 21
1, 554751, Control_c, 0, 67, 20
1, 554759, Note_off_c, 0, 54, 55
1, 554797, Note_off_c, 0, 66, 54
1, 554854, Control_c, 0, 67, 21
1, 554884, Control_c, 0, 67, 21
1, 554898, Control_c, 0, 64, 64
1, 554913, Control_c, 0, 64, 89
1, 554915, Note_on_c, 0, 66, 73
1, 554918, Note_on_c, 0, 59, 75
1, 554918, Note_on_c, 0, 44, 81
1, 554918, Note_off_c, 0, 45, 62
1, 554922, Note_on_c, 0, 54, 76
1, 554922, Note_on_c, 0, 63, 67
1, 554928, Control_c, 0, 64, 127
1, 554932, Note_off_c, 0, 57, 60
1, 554943, Control_c, 0, 67, 21
1, 554954, Note_off_c, 0, 44, 65
1, 554956, Note_off_c, 0, 54, 65
1, 554957, Note_off_c, 0, 59, 59
1, 554958, Control_c, 0, 67, 20
1, 554972, Control_c, 0, 67, 19
1, 554987, Note_off_c, 0, 63, 59
1, 554987, Control_c, 0, 67, 18
1, 555002, Control_c, 0, 67, 17
1, 555003, Note_off_c, 0, 66, 60
1, 555017, Control_c, 0, 67, 15
1, 555032, Control_c, 0, 67, 14
1, 555046, Control_c, 0, 67, 13
1, 555061, Control_c, 0, 67, 13
1, 555076, Control_c, 0, 67, 12
1, 555092, Control_c, 0, 67, 11
1, 555107, Control_c, 0, 64, 107
1, 555107, Control_c, 0, 67, 11
1, 555112, Note_on_c, 0, 52, 80
1, 555122, Control_c, 0, 64, 71
1, 555137, Control_c, 0, 64, 0
1, 555137, Control_c, 0, 67, 10
1, 555139, Note_on_c, 0, 64, 64
1, 555166, Control_c, 0, 67, 10
1, 555195, Control_c, 0, 67, 9
1, 555233, Control_c, 0, 67, 9
1, 555248, Control_c, 0, 67, 8
1, 555259, Note_on_c, 0, 56, 71
1, 555262, Note_on_c, 0, 68, 71
1, 555263, Control_c, 0, 67, 0
1, 555267, Note_off_c, 0, 64, 61
1, 555294, Note_off_c, 0, 52, 57
1, 555314, Note_on_c, 0, 59, 79
1, 555321, Note_on_c, 0, 71, 83
1, 555328, Note_off_c, 0, 56, 66
1, 555332, Note_off_c, 0, 68, 62
1, 555341, Note_off_c, 0, 59, 63
1, 555368, Note_off_c, 0, 71, 63
1, 555410, Control_c, 0, 67, 8
1, 555425, Control_c, 0, 67, 9
1, 555440, Control_c, 0, 67, 10
1, 555455, Control_c, 0, 67, 11
1, 555469, Control_c, 0, 67, 12
1, 555496, Note_on_c, 0, 49, 91
1, 555496, Note_on_c, 0, 37, 87
1, 555496, Note_on_c, 0, 71, 88
1, 555499, Control_c, 0, 64, 75
1, 555499, Control_c, 0, 67, 12
1, 555503, Note_on_c, 0, 68, 74
1, 555507, Note_on_c, 0, 64, 70
1, 555513, Control_c, 0, 64, 127
1, 555513, Control_c, 0, 67, 12
1, 555518, Note_off_c, 0, 49, 70
1, 555520, Note_off_c, 0, 37, 67
1, 555525, Note_off_c, 0, 68, 68
1, 555526, Note_off_c, 0, 64, 67
1, 555541, Note_off_c, 0, 71, 64
1, 555543, Control_c, 0, 67, 11
1, 555558, Control_c, 0, 67, 9
1, 555573, Control_c, 0, 67, 0
1, 555697, Note_on_c, 0, 57, 91
1, 555697, Note_on_c, 0, 69, 80
1, 555824, Note_on_c, 0, 73, 90
1, 555824, Note_on_c, 0, 61, 86
1, 555835, Note_off_c, 0, 69, 61
1, 555839, Note_off_c, 0, 57, 59
1, 555854, Control_c, 0, 64, 87
1, 555869, Control_c, 0, 64, 0
1, 555873, Note_on_c, 0, 76, 92
1, 555875, Note_on_c, 0, 64, 85
1, 555885, Note_off_c, 0, 61, 62
1, 555891, Note_off_c, 0, 73, 63
1, 555905, Note_off_c, 0, 64, 67
1, 555918, Note_off_c, 0, 76, 65
1, 556063, Note_on_c, 0, 47, 98
1, 556066, Note_on_c, 0, 35, 91
1, 556070, Note_on_c, 0, 71, 96
1, 556071, Note_on_c, 0, 76, 93
1, 556078, Note_on_c, 0, 69, 78
1, 556085, Control_c, 0, 64, 69
1, 556090, Note_off_c, 0, 35, 71
1, 556096, Note_off_c, 0, 47, 65
1, 556096, Note_off_c, 0, 71, 65
1, 556096, Note_off_c, 0, 76, 59
1, 556099, Control_c, 0, 64, 103
1, 556100, Note_off_c, 0, 69, 71
1, 556114, Control_c, 0, 64, 127
1, 556255, Note_on_c, 0, 75, 90
1, 556259, Note_on_c, 0, 51, 93
1, 556363, Note_on_c, 0, 54, 79
1, 556389, Note_off_c, 0, 51, 62
1, 556393, Note_on_c, 0, 78, 73
1, 556406, Note_off_c, 0, 75, 66
1, 556422, Note_on_c, 0, 57, 84
1, 556425, Note_on_c, 0, 69, 83
1, 556425, Control_c, 0, 64, 103
1, 556426, Note_on_c, 0, 81, 93
1, 556434, Note_off_c, 0, 54, 66
1, 556440, Control_c, 0, 64, 64
1, 556442, Note_on_c, 0, 76, 37
1, 556446, Note_off_c, 0, 57, 68
1, 556449, Note_off_c, 0, 69, 66
1, 556450, Note_off_c, 0, 78, 64
1, 556455, Control_c, 0, 64, 0
1, 556469, Note_off_c, 0, 81, 65
1, 556475, Note_off_c, 0, 76, 35
1, 556610, Note_on_c, 0, 80, 82
1, 556618, Note_on_c, 0, 52, 78
1, 556623, Note_on_c, 0, 76, 60
1, 556623, Note_on_c, 0, 40, 68
1, 556626, Note_on_c, 0, 68, 65
1, 556643, Note_off_c, 0, 52, 66
1, 556649, Note_off_c, 0, 40, 62
1, 556650, Note_off_c, 0, 76, 65
1, 556651, Note_off_c, 0, 68, 64
1, 556651, Note_off_c, 0, 80, 62
1, 556803, Note_on_c, 0, 81, 97
1, 556804, Note_on_c, 0, 42, 80
1, 556805, Note_on_c, 0, 54, 75
1, 556809, Note_on_c, 0, 69, 75
1, 556820, Note_on_c, 0, 76, 60
1, 556822, Note_off_c, 0, 81, 69
1, 556829, Note_off_c, 0, 42, 67
1, 556829, Note_off_c, 0, 54, 68
1, 556832, Note_off_c, 0, 69, 69
1, 556842, Note_off_c, 0, 76, 61
1, 556976, Note_on_c, 0, 56, 92
1, 556978, Note_on_c, 0, 44, 90
1, 556987, Note_on_c, 0, 83, 100
1, 556987, Note_on_c, 0, 71, 94
1, 556996, Note_off_c, 0, 56, 73
1, 557005, Note_off_c, 0, 44, 69
1, 557008, Note_off_c, 0, 71, 67
1, 557011, Note_off_c, 0, 83, 68
1, 557161, Note_on_c, 0, 85, 91
1, 557162, Note_on_c, 0, 76, 79
1, 557166, Note_on_c, 0, 57, 100
1, 557169, Note_on_c, 0, 45, 94
1, 557170, Note_on_c, 0, 73, 86
1, 557184, Note_off_c, 0, 57, 72
1, 557190, Note_off_c, 0, 45, 72
1, 557254, Note_on_c, 0, 45, 13
1, 557288, Note_off_c, 0, 45, 38
1, 557342, Note_off_c, 0, 85, 65
1, 557352, Control_c, 0, 64, 41
1, 557366, Control_c, 0, 64, 127
1, 557371, Note_on_c, 0, 57, 98
1, 557382, Note_off_c, 0, 73, 62
1, 557497, Note_on_c, 0, 61, 91
1, 557500, Note_off_c, 0, 57, 63
1, 557541, Note_off_c, 0, 61, 67
1, 557547, Note_on_c, 0, 81, 90
1, 557548, Note_on_c, 0, 66, 78
1, 557554, Note_off_c, 0, 76, 60
1, 557556, Note_on_c, 0, 69, 85
1, 557572, Note_off_c, 0, 66, 67
1, 557583, Control_c, 0, 64, 100
1, 557597, Control_c, 0, 64, 29
1, 557612, Control_c, 0, 64, 0
1, 557706, Note_on_c, 0, 73, 78
1, 557732, Note_on_c, 0, 59, 83
1, 557734, Note_on_c, 0, 47, 78
1, 557753, Note_off_c, 0, 59, 70
1, 557756, Note_on_c, 0, 78, 73
1, 557758, Note_off_c, 0, 69, 60
1, 557759, Note_off_c, 0, 47, 66
1, 557777, Note_off_c, 0, 81, 58
1, 557908, Control_c, 0, 64, 103
1, 557914, Note_on_c, 0, 59, 94
1, 557916, Note_on_c, 0, 80, 91
1, 557923, Control_c, 0, 64, 127
1, 557924, Note_on_c, 0, 69, 88
1, 557932, Note_off_c, 0, 73, 62
1, 557943, Note_off_c, 0, 78, 64
1, 558015, Note_off_c, 0, 59, 56
1, 558033, Note_on_c, 0, 63, 79
1, 558088, Note_on_c, 0, 71, 81
1, 558100, Note_on_c, 0, 68, 79
1, 558101, Note_off_c, 0, 63, 62
1, 558102, Note_off_c, 0, 69, 58
1, 558120, Note_off_c, 0, 68, 68
1, 558131, Note_off_c, 0, 80, 60
1, 558145, Control_c, 0, 64, 93
1, 558160, Control_c, 0, 64, 57
1, 558175, Control_c, 0, 64, 0
1, 558242, Note_off_c, 0, 71, 63
1, 558248, Note_on_c, 0, 75, 81
1, 558283, Note_on_c, 0, 76, 95
1, 558294, Note_on_c, 0, 64, 81
1, 558301, Note_on_c, 0, 68, 76
1, 558361, Note_off_c, 0, 75, 59
1, 558361, Control_c, 0, 64, 37
1, 558376, Control_c, 0, 64, 73
1, 558391, Control_c, 0, 64, 109
1, 558406, Control_c, 0, 64, 127
1, 558454, Note_off_c, 0, 64, 63
1, 558468, Note_off_c, 0, 76, 62
1, 558494, Note_on_c, 0, 52, 72
1, 558499, Note_off_c, 0, 68, 59
1, 558519, Note_off_c, 0, 52, 65
1, 558613, Control_c, 0, 64, 89
1, 558628, Control_c, 0, 64, 67
1, 558643, Control_c, 0, 64, 0
1, 558673, Control_c, 0, 67, 8
1, 558683, Note_on_c, 0, 52, 59
1, 558686, Note_on_c, 0, 64, 63
1, 558687, Control_c, 0, 67, 9
1, 558702, Control_c, 0, 67, 10
1, 558805, Control_c, 0, 67, 9
1, 558820, Control_c, 0, 67, 9
1, 558850, Control_c, 0, 67, 8
1, 558865, Control_c, 0, 67, 8
1, 558879, Note_on_c, 0, 53, 61
1, 558880, Control_c, 0, 67, 0
1, 558887, Note_on_c, 0, 65, 52
1, 558925, Note_off_c, 0, 65, 62
1, 558978, Note_off_c, 0, 53, 55
1, 559071, Note_on_c, 0, 57, 63
1, 559074, Note_on_c, 0, 69, 58
1, 559100, Note_off_c, 0, 57, 65
1, 559106, Note_off_c, 0, 69, 66
1, 559249, Note_on_c, 0, 60, 69
1, 559258, Note_on_c, 0, 72, 71
1, 559276, Note_off_c, 0, 60, 67
1, 559295, Note_off_c, 0, 72, 55
1, 559407, Control_c, 0, 64, 11
1, 559422, Control_c, 0, 64, 75
1, 559434, Note_off_c, 0, 52, 61
1, 559436, Control_c, 0, 64, 127
1, 559437, Note_on_c, 0, 51, 90
1, 559437, Note_on_c, 0, 72, 85
1, 559438, Note_on_c, 0, 60, 88
1, 559438, Note_on_c, 0, 65, 84
1, 559440, Note_on_c, 0, 69, 82
1, 559450, Note_off_c, 0, 64, 66
1, 559459, Note_off_c, 0, 65, 71
1, 559468, Note_off_c, 0, 69, 65
1, 559470, Note_off_c, 0, 60, 62
1, 559471, Note_off_c, 0, 51, 64
1, 559497, Note_off_c, 0, 72, 65
1, 559632, Note_on_c, 0, 57, 84
1, 559640, Note_on_c, 0, 69, 76
1, 559688, Control_c, 0, 64, 122
1, 559710, Control_c, 0, 64, 86
1, 559725, Control_c, 0, 64, 67
1, 559740, Control_c, 0, 64, 0
1, 559774, Note_on_c, 0, 60, 75
1, 559774, Note_on_c, 0, 72, 83
1, 559775, Note_off_c, 0, 69, 59
1, 559777, Note_off_c, 0, 57, 61
1, 559827, Note_on_c, 0, 77, 83
1, 559827, Note_off_c, 0, 60, 64
1, 559829, Note_on_c, 0, 65, 83
1, 559840, Note_off_c, 0, 72, 63
1, 559867, Note_off_c, 0, 65, 65
1, 559900, Note_off_c, 0, 77, 60
1, 560005, Note_on_c, 0, 77, 99
1, 560006, Note_on_c, 0, 50, 92
1, 560006, Control_c, 0, 64, 78
1, 560008, Note_on_c, 0, 65, 85
1, 560008, Note_on_c, 0, 69, 79
1, 560010, Note_on_c, 0, 72, 81
1, 560021, Control_c, 0, 64, 127
1, 560027, Note_off_c, 0, 50, 74
1, 560027, Note_off_c, 0, 65, 72
1, 560027, Note_off_c, 0, 69, 72
1, 560029, Note_off_c, 0, 72, 72
1, 560052, Note_off_c, 0, 77, 65
1, 560195, Note_on_c, 0, 74, 87
1, 560206, Note_on_c, 0, 60, 67
1, 560207, Note_on_c, 0, 62, 76
1, 560233, Note_off_c, 0, 60, 68
1, 560315, Note_off_c, 0, 74, 59
1, 560319, Note_on_c, 0, 77, 85
1, 560334, Note_on_c, 0, 65, 78
1, 560361, Note_off_c, 0, 62, 60
1, 560366, Note_on_c, 0, 70, 87
1, 560375, Note_off_c, 0, 65, 64
1, 560376, Note_on_c, 0, 82, 97
1, 560376, Control_c, 0, 64, 78
1, 560383, Note_off_c, 0, 70, 72
1, 560383, Note_off_c, 0, 77, 63
1, 560391, Control_c, 0, 64, 0
1, 560425, Note_off_c, 0, 82, 66
1, 560547, Control_c, 0, 64, 80
1, 560562, Control_c, 0, 64, 127
1, 560564, Note_on_c, 0, 66, 88
1, 560564, Note_on_c, 0, 82, 90
1, 560567, Note_on_c, 0, 51, 87
1, 560580, Note_off_c, 0, 66, 73
1, 560590, Note_off_c, 0, 51, 69
1, 560713, Note_off_c, 0, 82, 62
1, 560737, Note_on_c, 0, 53, 87
1, 560750, Note_on_c, 0, 65, 57
1, 560751, Note_off_c, 0, 65, 127
1, 560754, Note_on_c, 0, 81, 73
1, 560759, Note_off_c, 0, 53, 72
1, 560785, Control_c, 0, 64, 99
1, 560800, Control_c, 0, 64, 73
1, 560814, Control_c, 0, 64, 0
1, 560887, Note_off_c, 0, 81, 62
1, 560888, Note_on_c, 0, 84, 80
1, 560916, Note_on_c, 0, 41, 95
1, 560927, Note_on_c, 0, 89, 93
1, 560931, Note_off_c, 0, 84, 66
1, 560942, Note_off_c, 0, 89, 72
1, 561121, Note_on_c, 0, 42, 82
1, 561250, Note_off_c, 0, 42, 33
1, 561321, Note_on_c, 0, 46, 76
1, 561369, Note_off_c, 0, 46, 60
1, 561497, Note_on_c, 0, 53, 78
1, 561502, Note_on_c, 0, 49, 67
1, 561548, Note_off_c, 0, 49, 58
1, 561675, Note_on_c, 0, 40, 79
1, 561676, Note_on_c, 0, 49, 80
1, 561676, Note_on_c, 0, 54, 72
1, 561678, Note_off_c, 0, 41, 63
1, 561733, Note_off_c, 0, 53, 57
1, 561773, Note_off_c, 0, 49, 62
1, 561868, Note_on_c, 0, 46, 87
1, 561872, Note_on_c, 0, 58, 79
1, 561896, Note_off_c, 0, 54, 65
1, 561998, Note_on_c, 0, 49, 80
1, 562016, Control_c, 0, 64, 64
1, 562031, Control_c, 0, 64, 79
1, 562031, Note_on_c, 0, 54, 88
1, 562041, Note_on_c, 0, 61, 90
1, 562045, Control_c, 0, 64, 111
1, 562051, Note_off_c, 0, 58, 65
1, 562060, Control_c, 0, 64, 127
1, 562087, Note_off_c, 0, 54, 66
1, 562105, Note_off_c, 0, 46, 61
1, 562106, Note_off_c, 0, 49, 63
1, 562111, Note_off_c, 0, 40, 61
1, 562162, Note_off_c, 0, 61, 59
1, 562194, Control_c, 0, 64, 119
1, 562209, Control_c, 0, 64, 73
1, 562224, Control_c, 0, 64, 0
1, 562231, Note_on_c, 0, 52, 100
1, 562234, Note_on_c, 0, 61, 100
1, 562238, Note_on_c, 0, 38, 86
1, 562240, Note_on_c, 0, 54, 93
1, 562253, Control_c, 0, 64, 48
1, 562268, Control_c, 0, 64, 72
1, 562280, Note_off_c, 0, 52, 64
1, 562284, Control_c, 0, 64, 91
1, 562293, Note_off_c, 0, 54, 62
1, 562299, Control_c, 0, 64, 127
1, 562343, Note_off_c, 0, 61, 61
1, 562361, Poly_aftertouch_c, 0, 40, 0
1, 562417, Control_c, 0, 64, 93
1, 562427, Note_on_c, 0, 50, 92
1, 562432, Control_c, 0, 64, 68
1, 562435, Note_on_c, 0, 59, 78
1, 562447, Control_c, 0, 64, 0
1, 562550, Control_c, 0, 64, 44
1, 562565, Control_c, 0, 64, 65
1, 562568, Note_on_c, 0, 62, 80
1, 562575, Note_off_c, 0, 59, 60
1, 562579, Control_c, 0, 64, 73
1, 562594, Control_c, 0, 64, 86
1, 562609, Note_on_c, 0, 66, 96
1, 562609, Control_c, 0, 64, 126
1, 562624, Control_c, 0, 64, 127
1, 562629, Note_off_c, 0, 38, 62
1, 562630, Note_off_c, 0, 62, 63
1, 562671, Note_off_c, 0, 50, 62
1, 562685, Note_off_c, 0, 66, 63
1, 562765, Control_c, 0, 64, 105
1, 562780, Control_c, 0, 64, 70
1, 562794, Control_c, 0, 64, 0
1, 562801, Note_on_c, 0, 50, 95
1, 562806, Note_on_c, 0, 66, 99
1, 562808, Note_on_c, 0, 37, 86
1, 562814, Note_on_c, 0, 59, 87
1, 562839, Control_c, 0, 64, 58
1, 562854, Control_c, 0, 64, 74
1, 562868, Control_c, 0, 64, 98
1, 562883, Control_c, 0, 64, 127
1, 562907, Note_off_c, 0, 66, 62
1, 562914, Note_off_c, 0, 50, 62
1, 562958, Control_c, 0, 64, 121
1, 562972, Control_c, 0, 64, 78
1, 562987, Control_c, 0, 64, 0
1, 563006, Note_on_c, 0, 65, 86
1, 563009, Note_on_c, 0, 49, 86
1, 563031, Control_c, 0, 64, 64
1, 563046, Control_c, 0, 64, 73
1, 563055, Note_off_c, 0, 37, 64
1, 563059, Note_off_c, 0, 49, 63
1, 563061, Control_c, 0, 64, 84
1, 563077, Control_c, 0, 64, 104
1, 563092, Control_c, 0, 64, 127
1, 563146, Note_on_c, 0, 68, 78
1, 563166, Control_c, 0, 64, 90
1, 563173, Note_off_c, 0, 65, 56
1, 563181, Control_c, 0, 64, 64
1, 563196, Control_c, 0, 64, 0
1, 563208, Note_on_c, 0, 37, 75
1, 563211, Note_on_c, 0, 71, 91
1, 563229, Note_off_c, 0, 68, 63
1, 563255, Note_off_c, 0, 59, 61
1, 563255, Control_c, 0, 64, 56
1, 563256, Note_off_c, 0, 71, 65
1, 563270, Control_c, 0, 64, 66
1, 563284, Control_c, 0, 64, 73
1, 563299, Control_c, 0, 64, 76
1, 563314, Control_c, 0, 64, 71
1, 563328, Control_c, 0, 64, 0
1, 563405, Note_on_c, 0, 38, 85
1, 563432, Control_c, 0, 64, 58
1, 563455, Control_c, 0, 64, 32
1, 563470, Control_c, 0, 64, 0
1, 563535, Note_off_c, 0, 38, 61
1, 563602, Control_c, 0, 64, 63
1, 563606, Note_on_c, 0, 42, 87
1, 563616, Control_c, 0, 64, 69
1, 563631, Control_c, 0, 64, 66
1, 563646, Control_c, 0, 64, 36
1, 563661, Control_c, 0, 64, 0
1, 563735, Note_off_c, 0, 42, 61
1, 563780, Control_c, 0, 64, 48
1, 563781, Note_on_c, 0, 49, 89
1, 563783, Note_on_c, 0, 45, 80
1, 563795, Control_c, 0, 64, 69
1, 563809, Control_c, 0, 64, 81
1, 563824, Control_c, 0, 64, 101
1, 563839, Control_c, 0, 64, 127
1, 563859, Note_off_c, 0, 45, 63
1, 563885, Note_off_c, 0, 37, 63
1, 563929, Control_c, 0, 64, 104
1, 563944, Control_c, 0, 64, 74
1, 563958, Control_c, 0, 64, 0
1, 563968, Note_off_c, 0, 49, 63
1, 563971, Note_on_c, 0, 36, 92
1, 563977, Note_on_c, 0, 45, 85
1, 563979, Note_on_c, 0, 50, 79
1, 564003, Control_c, 0, 64, 30
1, 564018, Control_c, 0, 64, 64
1, 564032, Control_c, 0, 64, 72
1, 564047, Control_c, 0, 64, 81
1, 564054, Note_off_c, 0, 45, 57
1, 564062, Control_c, 0, 64, 90
1, 564076, Control_c, 0, 64, 91
1, 564091, Control_c, 0, 64, 84
1, 564106, Control_c, 0, 64, 71
1, 564121, Control_c, 0, 64, 0
1, 564168, Note_on_c, 0, 54, 83
1, 564169, Note_on_c, 0, 42, 90
1, 564192, Note_off_c, 0, 50, 46
1, 564300, Note_on_c, 0, 45, 83
1, 564321, Control_c, 0, 64, 23
1, 564336, Control_c, 0, 64, 68
1, 564350, Note_on_c, 0, 50, 82
1, 564350, Control_c, 0, 64, 85
1, 564354, Note_off_c, 0, 36, 46
1, 564355, Note_on_c, 0, 57, 85
1, 564365, Control_c, 0, 64, 127
1, 564379, Note_off_c, 0, 54, 61
1, 564448, Note_off_c, 0, 50, 64
1, 564478, Note_off_c, 0, 57, 59
1, 564484, Control_c, 0, 64, 119
1, 564499, Control_c, 0, 64, 79
1, 564514, Control_c, 0, 64, 0
1, 564535, Note_off_c, 0, 42, 60
1, 564548, Note_on_c, 0, 50, 79
1, 564548, Note_on_c, 0, 62, 81
1, 564550, Note_on_c, 0, 57, 88
1, 564553, Note_on_c, 0, 36, 74
1, 564556, Note_off_c, 0, 45, 62
1, 564558, Control_c, 0, 64, 40
1, 564573, Control_c, 0, 64, 69
1, 564588, Control_c, 0, 64, 84
1, 564602, Control_c, 0, 64, 127
1, 564615, Note_off_c, 0, 36, 61
1, 564615, Note_off_c, 0, 50, 59
1, 564630, Note_off_c, 0, 57, 58
1, 564642, Note_off_c, 0, 62, 59
1, 564707, Control_c, 0, 64, 106
1, 564722, Control_c, 0, 64, 68
1, 564728, Note_on_c, 0, 50, 73
1, 564731, Note_on_c, 0, 35, 73
1, 564731, Note_on_c, 0, 55, 90
1, 564737, Control_c, 0, 64, 0
1, 564767, Control_c, 0, 64, 14
1, 564781, Control_c, 0, 64, 71
1, 564796, Control_c, 0, 64, 93
1, 564811, Control_c, 0, 64, 127
1, 564836, Note_off_c, 0, 50, 64
1, 564865, Note_off_c, 0, 55, 61
1, 564871, Note_on_c, 0, 62, 87
1, 564915, Note_off_c, 0, 35, 61
1, 564919, Note_on_c, 0, 67, 90
1, 564927, Note_off_c, 0, 62, 64
1, 564982, Note_off_c, 0, 67, 64
1, 565021, Note_on_c, 0, 34, 88
1, 565050, Note_off_c, 0, 34, 66
1, 565116, Note_on_c, 0, 52, 99
1, 565122, Note_on_c, 0, 60, 84
1, 565160, Control_c, 0, 64, 89
1, 565174, Control_c, 0, 64, 63
1, 565189, Control_c, 0, 64, 0
1, 565219, Control_c, 0, 64, 61
1, 565234, Control_c, 0, 64, 72
1, 565248, Control_c, 0, 64, 89
1, 565251, Note_on_c, 0, 67, 73
1, 565263, Control_c, 0, 64, 127
1, 565271, Note_off_c, 0, 52, 59
1, 565274, Note_off_c, 0, 60, 60
1, 565314, Note_on_c, 0, 72, 91
1, 565327, Note_off_c, 0, 67, 64
1, 565399, Note_on_c, 0, 33, 89
1, 565425, Note_off_c, 0, 33, 66
1, 565429, Note_off_c, 0, 72, 58
1, 565493, Note_on_c, 0, 65, 90
1, 565497, Note_on_c, 0, 53, 107
1, 565501, Control_c, 0, 64, 86
1, 565516, Control_c, 0, 64, 64
1, 565530, Control_c, 0, 64, 62
1, 565545, Control_c, 0, 64, 72
1, 565560, Control_c, 0, 64, 85
1, 565575, Control_c, 0, 64, 127
1, 565621, Note_off_c, 0, 53, 63
1, 565641, Note_on_c, 0, 72, 80
1, 565687, Note_off_c, 0, 65, 57
1, 565712, Note_on_c, 0, 77, 90
1, 565756, Note_off_c, 0, 72, 59
1, 565784, Note_on_c, 0, 32, 91
1, 565815, Note_off_c, 0, 32, 65
1, 565819, Control_c, 0, 64, 96
1, 565834, Control_c, 0, 64, 71
1, 565849, Control_c, 0, 64, 0
1, 565879, Control_c, 0, 64, 36
1, 565883, Note_on_c, 0, 65, 93
1, 565885, Note_on_c, 0, 50, 96
1, 565894, Control_c, 0, 64, 68
1, 565904, Note_off_c, 0, 77, 55
1, 565909, Control_c, 0, 64, 82
1, 565923, Control_c, 0, 64, 112
1, 565938, Control_c, 0, 64, 127
1, 565949, Note_off_c, 0, 50, 64
1, 566025, Note_on_c, 0, 68, 78
1, 566071, Note_on_c, 0, 77, 80
1, 566071, Note_off_c, 0, 65, 61
1, 566073, Note_on_c, 0, 74, 78
1, 566078, Note_on_c, 0, 78, 60
1, 566102, Note_off_c, 0, 78, 55
1, 566117, Note_off_c, 0, 68, 58
1, 566163, Note_on_c, 0, 33, 88
1, 566200, Note_off_c, 0, 77, 58
1, 566204, Control_c, 0, 64, 99
1, 566207, Note_off_c, 0, 33, 59
1, 566219, Control_c, 0, 64, 71
1, 566234, Control_c, 0, 64, 0
1, 566245, Note_off_c, 0, 74, 63
1, 566260, Note_on_c, 0, 49, 106
1, 566264, Note_on_c, 0, 66, 97
1, 566279, Control_c, 0, 64, 54
1, 566294, Control_c, 0, 64, 68
1, 566309, Control_c, 0, 64, 82
1, 566324, Control_c, 0, 64, 112
1, 566339, Control_c, 0, 64, 127
1, 566413, Note_on_c, 0, 69, 78
1, 566466, Note_on_c, 0, 78, 88
1, 566466, Note_off_c, 0, 66, 56
1, 566469, Note_on_c, 0, 73, 88
1, 566469, Note_off_c, 0, 49, 62
1, 566642, Control_c, 0, 64, 93
1, 566651, Note_on_c, 0, 47, 106
1, 566655, Note_on_c, 0, 35, 84
1, 566657, Control_c, 0, 64, 64
1, 566661, Note_on_c, 0, 66, 93
1, 566672, Control_c, 0, 64, 0
1, 566690, Note_off_c, 0, 69, 62
1, 566696, Note_off_c, 0, 78, 34
1, 566702, Note_on_c, 0, 37, 28
1, 566703, Note_off_c, 0, 37, 127
1, 566731, Control_c, 0, 64, 55
1, 566746, Control_c, 0, 64, 68
1, 566761, Control_c, 0, 64, 81
1, 566770, Note_off_c, 0, 73, 56
1, 566776, Control_c, 0, 64, 103
1, 566791, Control_c, 0, 64, 127
1, 566831, Note_on_c, 0, 69, 76
1, 566869, Note_on_c, 0, 78, 89
1, 566873, Note_on_c, 0, 74, 85
1, 566879, Note_off_c, 0, 66, 60
1, 566923, Note_off_c, 0, 35, 61
1, 566923, Note_off_c, 0, 47, 62
1, 567076, Note_on_c, 0, 45, 103
1, 567077, Note_on_c, 0, 36, 97
1, 567088, Control_c, 0, 64, 114
1, 567089, Note_on_c, 0, 66, 97
1, 567102, Control_c, 0, 64, 69
1, 567117, Control_c, 0, 64, 0
1, 567122, Note_off_c, 0, 69, 64
1, 567147, Note_off_c, 0, 74, 50
1, 567187, Note_off_c, 0, 78, 54
1, 567214, Control_c, 0, 64, 42
1, 567229, Control_c, 0, 64, 64
1, 567244, Control_c, 0, 64, 72
1, 567258, Control_c, 0, 64, 83
1, 567259, Note_on_c, 0, 69, 79
1, 567273, Control_c, 0, 64, 103
1, 567288, Control_c, 0, 64, 127
1, 567317, Note_on_c, 0, 78, 90
1, 567323, Note_off_c, 0, 66, 58
1, 567327, Note_on_c, 0, 75, 88
1, 567356, Note_off_c, 0, 45, 62
1, 567359, Note_off_c, 0, 36, 59
1, 567500, Note_off_c, 0, 69, 50
1, 567540, Note_off_c, 0, 78, 38
1, 567560, Note_on_c, 0, 44, 111
1, 567563, Note_on_c, 0, 37, 98
1, 567584, Control_c, 0, 64, 106
1, 567584, Note_on_c, 0, 65, 87
1, 567599, Control_c, 0, 64, 76
1, 567600, Note_on_c, 0, 39, 41
1, 567613, Note_off_c, 0, 75, 57
1, 567614, Control_c, 0, 64, 0
1, 567636, Note_off_c, 0, 39, 53
1, 567756, Note_on_c, 0, 68, 82
1, 567791, Control_c, 0, 64, 57
1, 567806, Control_c, 0, 64, 77
1, 567813, Note_off_c, 0, 37, 64
1, 567813, Note_off_c, 0, 44, 65
1, 567820, Control_c, 0, 64, 98
1, 567824, Note_on_c, 0, 73, 86
1, 567829, Note_on_c, 0, 77, 86
1, 567835, Control_c, 0, 64, 127
1, 567842, Note_off_c, 0, 65, 61
1, 567847, Note_off_c, 0, 68, 64
1, 567877, Note_off_c, 0, 73, 63
1, 567881, Control_c, 0, 64, 108
1, 567896, Control_c, 0, 64, 75
1, 567897, Note_off_c, 0, 77, 62
1, 567911, Control_c, 0, 64, 0
1, 568050, Note_on_c, 0, 66, 104
1, 568080, Note_off_c, 0, 66, 72
1, 568302, Control_c, 0, 64, 68
1, 568307, Note_on_c, 0, 54, 104
1, 568317, Control_c, 0, 64, 101
1, 568332, Control_c, 0, 64, 127
1, 568347, Note_off_c, 0, 54, 67
1, 568505, Note_on_c, 0, 56, 93
1, 568552, Note_on_c, 0, 57, 95
1, 568566, Note_off_c, 0, 56, 64
1, 568569, Control_c, 0, 64, 91
1, 568584, Control_c, 0, 64, 64
1, 568598, Control_c, 0, 64, 0
1, 568726, Control_c, 0, 64, 62
1, 568739, Note_on_c, 0, 81, 86
1, 568739, Note_on_c, 0, 90, 89
1, 568740, Note_on_c, 0, 78, 90
1, 568741, Control_c, 0, 64, 76
1, 568744, Note_on_c, 0, 85, 86
1, 568755, Control_c, 0, 64, 101
1, 568757, Note_off_c, 0, 90, 71
1, 568758, Note_off_c, 0, 81, 68
1, 568764, Note_off_c, 0, 85, 68
1, 568770, Control_c, 0, 64, 127
1, 568776, Note_off_c, 0, 78, 64
1, 568791, Note_off_c, 0, 57, 58
1, 568875, Note_on_c, 0, 59, 78
1, 568924, Note_on_c, 0, 61, 88
1, 568927, Note_off_c, 0, 59, 59
1, 568932, Note_on_c, 0, 66, 93
1, 568932, Note_on_c, 0, 78, 97
1, 568934, Note_on_c, 0, 69, 87
1, 568937, Note_on_c, 0, 73, 84
1, 568947, Control_c, 0, 64, 80
1, 568962, Control_c, 0, 64, 0
1, 568964, Note_off_c, 0, 61, 67
1, 568989, Note_on_c, 0, 74, 6
1, 569057, Note_off_c, 0, 74, 45
1, 569063, Note_on_c, 0, 57, 91
1, 569107, Note_off_c, 0, 57, 65
1, 569114, Note_on_c, 0, 54, 80
1, 569143, Note_off_c, 0, 54, 70
1, 569228, Note_off_c, 0, 78, 64
1, 569235, Note_on_c, 0, 50, 83
1, 569238, Note_off_c, 0, 69, 62
1, 569246, Note_off_c, 0, 73, 62
1, 569269, Note_off_c, 0, 66, 63
1, 569285, Note_off_c, 0, 50, 66
1, 569286, Note_on_c, 0, 49, 89
1, 569313, Note_off_c, 0, 49, 69
1, 569420, Note_on_c, 0, 47, 79
1, 569462, Note_on_c, 0, 61, 81
1, 569462, Note_off_c, 0, 47, 67
1, 569464, Note_on_c, 0, 64, 75
1, 569464, Note_on_c, 0, 73, 80
1, 569467, Note_on_c, 0, 45, 73
1, 569486, Note_off_c, 0, 61, 69
1, 569489, Note_off_c, 0, 64, 70
1, 569490, Note_off_c, 0, 73, 65
1, 569494, Note_off_c, 0, 45, 66
1, 569656, Note_on_c, 0, 71, 74
1, 569659, Note_on_c, 0, 64, 62
1, 569661, Note_on_c, 0, 59, 66
1, 569665, Note_on_c, 0, 44, 66
1, 569677, Note_off_c, 0, 71, 72
1, 569680, Note_off_c, 0, 64, 65
1, 569686, Note_off_c, 0, 59, 63
1, 569692, Note_off_c, 0, 44, 65
1, 569844, Note_on_c, 0, 69, 72
1, 569846, Note_on_c, 0, 57, 72
1, 569846, Note_on_c, 0, 42, 66
1, 569861, Note_on_c, 0, 64, 51
1, 569867, Note_off_c, 0, 69, 70
1, 569870, Note_off_c, 0, 57, 67
1, 569875, Note_off_c, 0, 42, 65
1, 569887, Note_off_c, 0, 64, 59
1, 570031, Note_on_c, 0, 56, 71
1, 570032, Note_on_c, 0, 68, 82
1, 570035, Note_on_c, 0, 64, 49
1, 570040, Note_on_c, 0, 40, 64
1, 570052, Note_off_c, 0, 68, 71
1, 570056, Note_off_c, 0, 56, 67
1, 570060, Note_off_c, 0, 64, 59
1, 570075, Note_off_c, 0, 40, 63
1, 570235, Note_on_c, 0, 52, 78
1, 570238, Note_on_c, 0, 76, 103
1, 570246, Note_on_c, 0, 68, 87
1, 570248, Note_on_c, 0, 64, 77
1, 570252, Control_c, 0, 64, 76
1, 570261, Note_off_c, 0, 52, 66
1, 570265, Note_off_c, 0, 68, 72
1, 570265, Note_off_c, 0, 76, 71
1, 570266, Note_off_c, 0, 64, 68
1, 570267, Control_c, 0, 64, 127
1, 570436, Note_on_c, 0, 71, 118
1, 570444, Control_c, 0, 64, 89
1, 570458, Note_off_c, 0, 71, 76
1, 570459, Control_c, 0, 64, 21
1, 570474, Control_c, 0, 64, 0
1, 570607, Control_c, 0, 67, 12
1, 570622, Control_c, 0, 64, 27
1, 570622, Control_c, 0, 67, 15
1, 570633, Note_on_c, 0, 59, 88
1, 570636, Control_c, 0, 64, 69
1, 570636, Control_c, 0, 67, 17
1, 570651, Control_c, 0, 64, 81
1, 570651, Control_c, 0, 67, 19
1, 570666, Control_c, 0, 64, 102
1, 570667, Note_off_c, 0, 59, 62
1, 570681, Control_c, 0, 64, 127
1, 570681, Control_c, 0, 67, 18
1, 570696, Control_c, 0, 67, 17
1, 570711, Control_c, 0, 67, 16
1, 570726, Control_c, 0, 67, 16
1, 570795, Note_on_c, 0, 61, 77
1, 570815, Control_c, 0, 67, 15
1, 570830, Control_c, 0, 67, 15
1, 570837, Note_on_c, 0, 62, 83
1, 570844, Control_c, 0, 67, 14
1, 570848, Note_off_c, 0, 61, 63
1, 570859, Control_c, 0, 64, 102
1, 570859, Control_c, 0, 67, 13
1, 570874, Control_c, 0, 64, 75
1, 570874, Control_c, 0, 67, 12
1, 570889, Control_c, 0, 64, 0
1, 570889, Control_c, 0, 67, 9
1, 570904, Control_c, 0, 67, 0
1, 571000, Control_c, 0, 64, 59
1, 571015, Note_on_c, 0, 95, 98
1, 571015, Control_c, 0, 64, 71
1, 571019, Note_on_c, 0, 90, 94
1, 571021, Note_on_c, 0, 83, 94
1, 571025, Note_on_c, 0, 86, 76
1, 571030, Control_c, 0, 64, 85
1, 571039, Note_off_c, 0, 83, 71
1, 571044, Note_off_c, 0, 95, 64
1, 571045, Note_off_c, 0, 86, 73
1, 571045, Note_off_c, 0, 90, 67
1, 571045, Control_c, 0, 64, 116
1, 571060, Control_c, 0, 64, 127
1, 571137, Note_off_c, 0, 62, 59
1, 571146, Note_on_c, 0, 64, 85
1, 571197, Note_on_c, 0, 66, 88
1, 571199, Note_off_c, 0, 64, 65
1, 571211, Note_on_c, 0, 83, 101
1, 571212, Note_on_c, 0, 71, 102
1, 571213, Note_on_c, 0, 74, 94
1, 571213, Note_on_c, 0, 78, 98
1, 571229, Note_off_c, 0, 66, 68
1, 571268, Control_c, 0, 64, 103
1, 571283, Control_c, 0, 64, 71
1, 571283, Control_c, 0, 67, 8
1, 571298, Control_c, 0, 64, 0
1, 571298, Control_c, 0, 67, 9
1, 571342, Control_c, 0, 67, 9
1, 571346, Note_on_c, 0, 62, 95
1, 571357, Control_c, 0, 67, 8
1, 571387, Control_c, 0, 67, 0
1, 571395, Note_off_c, 0, 62, 63
1, 571402, Note_on_c, 0, 59, 84
1, 571432, Note_off_c, 0, 59, 65
1, 571521, Note_off_c, 0, 83, 63
1, 571525, Note_on_c, 0, 55, 82
1, 571528, Note_off_c, 0, 74, 66
1, 571549, Note_off_c, 0, 78, 62
1, 571572, Note_on_c, 0, 54, 87
1, 571572, Note_off_c, 0, 71, 62
1, 571573, Note_off_c, 0, 55, 65
1, 571604, Note_off_c, 0, 54, 68
1, 571718, Note_on_c, 0, 52, 74
1, 571749, Note_off_c, 0, 52, 65
1, 571756, Note_on_c, 0, 66, 76
1, 571756, Note_on_c, 0, 78, 80
1, 571758, Note_on_c, 0, 50, 71
1, 571758, Note_on_c, 0, 69, 71
1, 571777, Note_off_c, 0, 66, 69
1, 571777, Note_off_c, 0, 78, 67
1, 571783, Note_off_c, 0, 69, 69
1, 571786, Note_off_c, 0, 50, 66
1, 571945, Note_on_c, 0, 76, 84
1, 571954, Note_on_c, 0, 49, 70
1, 571954, Note_on_c, 0, 64, 69
1, 571956, Note_on_c, 0, 69, 61
1, 571969, Note_off_c, 0, 76, 65
1, 571973, Note_off_c, 0, 64, 68
1, 571977, Note_off_c, 0, 69, 65
1, 571978, Note_off_c, 0, 49, 66
1, 572133, Note_on_c, 0, 62, 73
1, 572133, Note_on_c, 0, 74, 74
1, 572136, Note_on_c, 0, 47, 66
1, 572137, Note_on_c, 0, 69, 61
1, 572151, Note_off_c, 0, 74, 69
1, 572157, Note_off_c, 0, 62, 68
1, 572159, Note_off_c, 0, 69, 62
1, 572162, Note_off_c, 0, 47, 67
1, 572303, Note_on_c, 0, 68, 62
1, 572320, Note_on_c, 0, 73, 82
1, 572324, Note_on_c, 0, 45, 63
1, 572328, Note_off_c, 0, 68, 65
1, 572333, Note_on_c, 0, 61, 45
1, 572339, Note_off_c, 0, 73, 71
1, 572353, Note_off_c, 0, 45, 65
1, 572363, Note_off_c, 0, 61, 55
1, 572484, Control_c, 0, 64, 54
1, 572498, Control_c, 0, 64, 68
1, 572509, Note_on_c, 0, 81, 100
1, 572513, Note_on_c, 0, 73, 100
1, 572513, Control_c, 0, 64, 83
1, 572515, Note_on_c, 0, 69, 84
1, 572521, Note_off_c, 0, 81, 80
1, 572523, Note_on_c, 0, 57, 65
1, 572528, Control_c, 0, 64, 114
1, 572529, Note_off_c, 0, 73, 74
1, 572530, Note_off_c, 0, 69, 72
1, 572543, Control_c, 0, 64, 127
1, 572551, Note_off_c, 0, 57, 65
1, 572646, Poly_aftertouch_c, 0, 69, 127
1, 572646, Control_c, 0, 67, 8
1, 572662, Control_c, 0, 67, 12
1, 572675, Poly_aftertouch_c, 0, 69, 0
1, 572677, Control_c, 0, 67, 16
1, 572692, Control_c, 0, 67, 19
1, 572707, Control_c, 0, 67, 19
1, 572721, Control_c, 0, 67, 19
1, 572723, Note_on_c, 0, 57, 83
1, 572725, Note_on_c, 0, 45, 72
1, 572736, Control_c, 0, 67, 17
1, 572751, Control_c, 0, 67, 16
1, 572766, Control_c, 0, 67, 15
1, 572781, Control_c, 0, 67, 15
1, 572810, Control_c, 0, 64, 116
1, 572810, Control_c, 0, 67, 15
1, 572825, Control_c, 0, 64, 92
1, 572825, Control_c, 0, 67, 16
1, 572839, Control_c, 0, 64, 76
1, 572839, Control_c, 0, 67, 16
1, 572854, Control_c, 0, 64, 64
1, 572869, Control_c, 0, 64, 0
1, 572931, Note_on_c, 0, 59, 75
1, 572932, Note_on_c, 0, 47, 64
1, 572944, Control_c, 0, 67, 15
1, 572959, Control_c, 0, 67, 14
1, 572973, Control_c, 0, 64, 63
1, 572973, Control_c, 0, 67, 13
1, 572988, Control_c, 0, 64, 74
1, 572988, Control_c, 0, 67, 12
1, 573003, Control_c, 0, 64, 84
1, 573003, Control_c, 0, 67, 11
1, 573018, Control_c, 0, 64, 98
1, 573018, Control_c, 0, 67, 10
1, 573027, Note_off_c, 0, 59, 55
1, 573033, Control_c, 0, 64, 108
1, 573033, Control_c, 0, 67, 9
1, 573040, Note_off_c, 0, 47, 61
1, 573047, Control_c, 0, 64, 110
1, 573047, Control_c, 0, 67, 8
1, 573062, Control_c, 0, 67, 0
1, 573077, Control_c, 0, 64, 108
1, 573092, Control_c, 0, 64, 102
1, 573107, Control_c, 0, 64, 95
1, 573116, Note_on_c, 0, 63, 75
1, 573120, Note_on_c, 0, 51, 73
1, 573121, Control_c, 0, 64, 88
1, 573136, Control_c, 0, 64, 82
1, 573151, Control_c, 0, 64, 79
1, 573204, Note_off_c, 0, 63, 57
1, 573227, Note_off_c, 0, 51, 60
1, 573292, Control_c, 0, 64, 80
1, 573296, Note_on_c, 0, 54, 77
1, 573298, Note_on_c, 0, 66, 83
1, 573307, Control_c, 0, 64, 80
1, 573321, Control_c, 0, 64, 81
1, 573336, Control_c, 0, 64, 82
1, 573351, Control_c, 0, 64, 82
1, 573356, Note_off_c, 0, 54, 59
1, 573381, Control_c, 0, 64, 79
1, 573395, Control_c, 0, 64, 70
1, 573402, Note_off_c, 0, 66, 59
1, 573410, Control_c, 0, 64, 47
1, 573425, Control_c, 0, 64, 0
1, 573495, Note_on_c, 0, 44, 90
1, 573497, Note_on_c, 0, 59, 79
1, 573497, Note_on_c, 0, 66, 87
1, 573498, Note_on_c, 0, 54, 83
1, 573499, Note_on_c, 0, 63, 78
1, 573513, Note_off_c, 0, 45, 64
1, 573515, Control_c, 0, 64, 63
1, 573520, Note_off_c, 0, 57, 63
1, 573530, Control_c, 0, 64, 86
1, 573544, Control_c, 0, 64, 127
1, 573546, Note_off_c, 0, 44, 66
1, 573549, Note_off_c, 0, 54, 65
1, 573551, Note_off_c, 0, 59, 61
1, 573587, Note_off_c, 0, 63, 60
1, 573605, Note_off_c, 0, 66, 59
1, 573692, Note_on_c, 0, 52, 92
1, 573707, Control_c, 0, 64, 103
1, 573710, Note_on_c, 0, 64, 72
1, 573722, Control_c, 0, 64, 79
1, 573737, Control_c, 0, 64, 58
1, 573751, Control_c, 0, 64, 0
1, 573836, Note_on_c, 0, 68, 76
1, 573842, Note_on_c, 0, 56, 77
1, 573855, Note_off_c, 0, 64, 59
1, 573856, Control_c, 0, 64, 62
1, 573862, Note_off_c, 0, 52, 59
1, 573870, Control_c, 0, 64, 72
1, 573885, Control_c, 0, 64, 87
1, 573896, Note_on_c, 0, 59, 73
1, 573896, Note_on_c, 0, 71, 89
1, 573900, Control_c, 0, 64, 127
1, 573905, Note_off_c, 0, 56, 66
1, 573915, Note_off_c, 0, 68, 62
1, 573924, Note_off_c, 0, 59, 65
1, 573963, Note_off_c, 0, 71, 64
1, 573981, Control_c, 0, 67, 8
1, 573996, Control_c, 0, 67, 12
1, 574011, Control_c, 0, 64, 107
1, 574011, Control_c, 0, 67, 16
1, 574026, Control_c, 0, 64, 68
1, 574026, Control_c, 0, 67, 19
1, 574040, Control_c, 0, 64, 0
1, 574040, Control_c, 0, 67, 20
1, 574055, Control_c, 0, 67, 20
1, 574069, Control_c, 0, 67, 20
1, 574079, Note_on_c, 0, 71, 100
1, 574080, Note_on_c, 0, 49, 101
1, 574082, Note_on_c, 0, 37, 94
1, 574082, Note_on_c, 0, 67, 93
1, 574084, Note_on_c, 0, 64, 90
1, 574084, Control_c, 0, 64, 24
1, 574084, Control_c, 0, 67, 19
1, 574099, Control_c, 0, 64, 73
1, 574099, Control_c, 0, 67, 17
1, 574104, Note_off_c, 0, 37, 70
1, 574104, Note_off_c, 0, 49, 67
1, 574109, Note_off_c, 0, 64, 67
1, 574110, Note_off_c, 0, 67, 63
1, 574114, Control_c, 0, 64, 103
1, 574114, Control_c, 0, 67, 15
1, 574129, Control_c, 0, 64, 127
1, 574129, Control_c, 0, 67, 13
1, 574139, Note_off_c, 0, 71, 63
1, 574143, Control_c, 0, 67, 9
1, 574158, Control_c, 0, 67, 0
1, 574218, Poly_aftertouch_c, 0, 37, 127
1, 574261, Poly_aftertouch_c, 0, 37, 0
1, 574278, Control_c, 0, 64, 92
1, 574288, Note_on_c, 0, 69, 77
1, 574292, Control_c, 0, 64, 67
1, 574296, Note_on_c, 0, 57, 79
1, 574307, Control_c, 0, 64, 0
1, 574327, Note_on_c, 0, 67, 31
1, 574328, Note_off_c, 0, 67, 127
1, 574396, Control_c, 0, 64, 11
1, 574401, Note_on_c, 0, 61, 59
1, 574410, Control_c, 0, 64, 62
1, 574413, Note_off_c, 0, 57, 58
1, 574420, Note_off_c, 0, 69, 62
1, 574422, Note_on_c, 0, 73, 71
1, 574425, Control_c, 0, 64, 69
1, 574440, Control_c, 0, 64, 74
1, 574442, Note_on_c, 0, 64, 74
1, 574451, Note_off_c, 0, 61, 60
1, 574455, Control_c, 0, 64, 82
1, 574456, Note_on_c, 0, 76, 85
1, 574466, Note_off_c, 0, 73, 62
1, 574470, Control_c, 0, 64, 94
1, 574479, Note_off_c, 0, 64, 61
1, 574485, Control_c, 0, 64, 127
1, 574488, Note_off_c, 0, 76, 62
1, 574665, Note_on_c, 0, 59, 84
1, 574666, Note_on_c, 0, 64, 89
1, 574667, Note_on_c, 0, 67, 92
1, 574669, Note_on_c, 0, 83, 102
1, 574675, Note_on_c, 0, 79, 95
1, 574676, Note_on_c, 0, 71, 99
1, 574690, Note_on_c, 0, 77, 75
1, 574697, Note_on_c, 0, 76, 85
1, 574729, Control_c, 0, 64, 93
1, 574744, Control_c, 0, 64, 62
1, 574759, Control_c, 0, 64, 0
1, 574791, Note_off_c, 0, 71, 58
1, 574804, Control_c, 0, 64, 42
1, 574819, Control_c, 0, 64, 63
1, 574834, Control_c, 0, 64, 68
1, 574848, Control_c, 0, 64, 72
1, 574854, Note_off_c, 0, 67, 59
1, 574861, Note_on_c, 0, 81, 77
1, 574863, Control_c, 0, 64, 78
1, 574866, Note_on_c, 0, 57, 75
1, 574870, Note_off_c, 0, 64, 66
1, 574878, Note_off_c, 0, 76, 56
1, 574878, Control_c, 0, 64, 85
1, 574879, Note_on_c, 0, 69, 68
1, 574881, Note_off_c, 0, 77, 61
1, 574881, Note_off_c, 0, 83, 61
1, 574881, Note_off_c, 0, 59, 61
1, 574887, Note_off_c, 0, 79, 58
1, 574893, Note_off_c, 0, 57, 67
1, 574893, Control_c, 0, 64, 93
1, 574898, Note_off_c, 0, 81, 64
1, 574900, Note_off_c, 0, 69, 64
1, 574908, Control_c, 0, 64, 99
1, 574938, Control_c, 0, 64, 89
1, 574953, Control_c, 0, 64, 71
1, 574967, Control_c, 0, 64, 0
1, 575026, Control_c, 0, 64, 62
1, 575041, Control_c, 0, 64, 80
1, 575057, Control_c, 0, 64, 127
1, 575057, Note_on_c, 0, 71, 102
1, 575061, Note_on_c, 0, 64, 95
1, 575063, Note_on_c, 0, 37, 94
1, 575063, Note_on_c, 0, 49, 99
1, 575063, Note_on_c, 0, 67, 91
1, 575085, Note_off_c, 0, 49, 70
1, 575087, Control_c, 0, 67, 8
1, 575090, Note_off_c, 0, 37, 68
1, 575102, Control_c, 0, 67, 13
1, 575116, Control_c, 0, 67, 17
1, 575131, Control_c, 0, 67, 19
1, 575146, Control_c, 0, 67, 20
1, 575161, Control_c, 0, 67, 22
1, 575176, Control_c, 0, 67, 23
1, 575190, Control_c, 0, 67, 25
1, 575205, Control_c, 0, 64, 85
1, 575205, Control_c, 0, 67, 24
1, 575220, Control_c, 0, 64, 0
1, 575220, Control_c, 0, 67, 23
1, 575234, Control_c, 0, 67, 21
1, 575249, Control_c, 0, 67, 16
1, 575254, Note_on_c, 0, 50, 97
1, 575256, Note_on_c, 0, 38, 93
1, 575257, Note_on_c, 0, 69, 86
1, 575264, Control_c, 0, 64, 28
1, 575264, Control_c, 0, 67, 11
1, 575266, Note_on_c, 0, 66, 84
1, 575270, Note_off_c, 0, 67, 62
1, 575275, Note_off_c, 0, 64, 65
1, 575279, Note_off_c, 0, 38, 71
1, 575279, Control_c, 0, 64, 77
1, 575279, Control_c, 0, 67, 0
1, 575286, Note_off_c, 0, 50, 66
1, 575293, Note_off_c, 0, 66, 64
1, 575294, Control_c, 0, 64, 109
1, 575299, Note_off_c, 0, 71, 62
1, 575308, Control_c, 0, 64, 127
1, 575309, Note_off_c, 0, 69, 65
1, 575338, Control_c, 0, 64, 77
1, 575353, Control_c, 0, 64, 0
1, 575452, Note_on_c, 0, 57, 95
1, 575454, Note_on_c, 0, 69, 87
1, 575508, Control_c, 0, 64, 47
1, 575523, Control_c, 0, 64, 75
1, 575538, Control_c, 0, 64, 90
1, 575553, Control_c, 0, 64, 127
1, 575585, Note_on_c, 0, 62, 69
1, 575592, Note_on_c, 0, 74, 89
1, 575600, Note_off_c, 0, 57, 56
1, 575613, Note_off_c, 0, 69, 61
1, 575629, Note_on_c, 0, 78, 95
1, 575641, Note_off_c, 0, 74, 68
1, 575651, Note_on_c, 0, 66, 76
1, 575664, Note_off_c, 0, 78, 67
1, 575670, Note_off_c, 0, 62, 58
1, 575698, Note_off_c, 0, 66, 61
1, 575824, Note_on_c, 0, 62, 98
1, 575828, Note_on_c, 0, 66, 94
1, 575829, Note_on_c, 0, 83, 102
1, 575829, Note_on_c, 0, 59, 90
1, 575832, Note_on_c, 0, 71, 107
1, 575832, Note_on_c, 0, 78, 97
1, 575832, Note_on_c, 0, 74, 108
1, 575926, Note_off_c, 0, 83, 55
1, 575930, Note_off_c, 0, 71, 63
1, 575987, Note_off_c, 0, 66, 55
1, 576017, Note_off_c, 0, 62, 57
1, 576019, Note_on_c, 0, 81, 97
1, 576020, Note_on_c, 0, 57, 87
1, 576024, Note_on_c, 0, 69, 79
1, 576026, Note_off_c, 0, 59, 61
1, 576026, Note_off_c, 0, 74, 57
1, 576028, Control_c, 0, 64, 112
1, 576029, Note_off_c, 0, 78, 65
1, 576041, Note_off_c, 0, 57, 70
1, 576043, Control_c, 0, 64, 74
1, 576046, Note_off_c, 0, 69, 70
1, 576054, Note_off_c, 0, 81, 67
1, 576057, Control_c, 0, 64, 0
1, 576068, Poly_aftertouch_c, 0, 56, 0
1, 576146, Control_c, 0, 64, 59
1, 576161, Control_c, 0, 64, 73
1, 576184, Control_c, 0, 64, 87
1, 576199, Control_c, 0, 64, 113
1, 576202, Note_on_c, 0, 47, 101
1, 576206, Note_on_c, 0, 35, 86
1, 576207, Note_on_c, 0, 86, 98
1, 576209, Note_on_c, 0, 74, 105
1, 576211, Note_on_c, 0, 83, 98
1, 576213, Note_on_c, 0, 84, 82
1, 576213, Control_c, 0, 64, 127
1, 576217, Note_on_c, 0, 78, 83
1, 576221, Note_off_c, 0, 47, 74
1, 576227, Note_off_c, 0, 83, 72
1, 576229, Note_off_c, 0, 74, 67
1, 576230, Note_off_c, 0, 35, 67
1, 576235, Note_off_c, 0, 78, 72
1, 576235, Note_off_c, 0, 84, 60
1, 576238, Note_off_c, 0, 86, 69
1, 576302, Control_c, 0, 64, 108
1, 576317, Control_c, 0, 64, 70
1, 576331, Control_c, 0, 64, 0
1, 576358, Note_on_c, 0, 83, 35
1, 576387, Note_off_c, 0, 83, 57
1, 576390, Control_c, 0, 64, 70
1, 576405, Control_c, 0, 64, 127
1, 576420, Note_on_c, 0, 37, 96
1, 576421, Note_on_c, 0, 49, 105
1, 576425, Note_on_c, 0, 83, 92
1, 576428, Note_on_c, 0, 85, 97
1, 576430, Note_on_c, 0, 73, 102
1, 576431, Note_on_c, 0, 78, 94
1, 576440, Note_off_c, 0, 49, 73
1, 576441, Note_off_c, 0, 37, 72
1, 576568, Control_c, 0, 64, 97
1, 576583, Control_c, 0, 64, 55
1, 576584, Note_off_c, 0, 73, 58
1, 576598, Control_c, 0, 64, 0
1, 576628, Note_on_c, 0, 61, 97
1, 576650, Note_off_c, 0, 78, 56
1, 576753, Note_on_c, 0, 66, 74
1, 576783, Note_off_c, 0, 61, 63
1, 576801, Note_on_c, 0, 69, 83
1, 576815, Note_on_c, 0, 73, 91
1, 576823, Note_off_c, 0, 66, 65
1, 576823, Note_off_c, 0, 69, 69
1, 576881, Note_off_c, 0, 85, 46
1, 576950, Note_off_c, 0, 83, 57
1, 576959, Note_on_c, 0, 78, 81
1, 577004, Note_on_c, 0, 37, 94
1, 577004, Note_on_c, 0, 49, 96
1, 577007, Control_c, 0, 64, 68
1, 577007, Note_on_c, 0, 81, 99
1, 577008, Note_on_c, 0, 85, 109
1, 577021, Control_c, 0, 64, 127
1, 577021, Note_off_c, 0, 49, 74
1, 577025, Note_off_c, 0, 37, 71
1, 577050, Note_on_c, 0, 84, 38
1, 577057, Note_off_c, 0, 78, 54
1, 577081, Note_off_c, 0, 84, 53
1, 577083, Note_off_c, 0, 73, 57
1, 577160, Poly_aftertouch_c, 0, 49, 0
1, 577226, Note_on_c, 0, 61, 84
1, 577352, Note_on_c, 0, 65, 65
1, 577356, Note_off_c, 0, 81, 57
1, 577382, Note_on_c, 0, 71, 81
1, 577394, Note_on_c, 0, 73, 85
1, 577404, Note_off_c, 0, 61, 55
1, 577436, Note_off_c, 0, 71, 62
1, 577498, Note_on_c, 0, 80, 84
1, 577499, Note_off_c, 0, 73, 60
1, 577538, Note_off_c, 0, 65, 60
1, 577543, Note_off_c, 0, 85, 58
1, 577553, Note_on_c, 0, 78, 96
1, 577555, Control_c, 0, 64, 83
1, 577558, Note_on_c, 0, 69, 83
1, 577559, Note_on_c, 0, 66, 80
1, 577570, Control_c, 0, 64, 0
1, 577573, Note_off_c, 0, 80, 66
1, 577574, Note_on_c, 0, 58, 52
1, 577582, Note_off_c, 0, 69, 66
1, 577588, Note_off_c, 0, 78, 68
1, 577588, Note_off_c, 0, 66, 65
1, 577600, Note_off_c, 0, 58, 59
1, 577746, Note_on_c, 0, 86, 106
1, 577748, Note_on_c, 0, 59, 75
1, 577749, Note_on_c, 0, 74, 100
1, 577749, Note_on_c, 0, 78, 97
1, 577755, Note_on_c, 0, 71, 76
1, 577759, Note_off_c, 0, 86, 79
1, 577763, Note_off_c, 0, 78, 76
1, 577764, Note_off_c, 0, 74, 77
1, 577776, Note_off_c, 0, 71, 72
1, 577784, Note_on_c, 0, 60, 31
1, 577785, Note_off_c, 0, 60, 127
1, 577790, Note_off_c, 0, 59, 58
1, 577935, Note_on_c, 0, 77, 102
1, 577940, Note_on_c, 0, 61, 82
1, 577942, Note_on_c, 0, 71, 82
1, 577944, Note_on_c, 0, 73, 82
1, 577949, Note_off_c, 0, 77, 75
1, 577956, Note_off_c, 0, 71, 73
1, 577959, Note_off_c, 0, 73, 71
1, 577969, Note_on_c, 0, 68, 31
1, 577970, Note_off_c, 0, 68, 127
1, 577978, Note_off_c, 0, 61, 59
1, 578128, Note_on_c, 0, 78, 103
1, 578134, Note_on_c, 0, 69, 86
1, 578141, Note_off_c, 0, 78, 79
1, 578141, Control_c, 0, 64, 64
1, 578142, Note_on_c, 0, 66, 75
1, 578142, Note_on_c, 0, 73, 73
1, 578148, Note_off_c, 0, 69, 73
1, 578155, Control_c, 0, 64, 80
1, 578158, Note_off_c, 0, 73, 69
1, 578162, Note_off_c, 0, 66, 69
1, 578170, Control_c, 0, 64, 117
1, 578185, Control_c, 0, 64, 127
1, 578265, Poly_aftertouch_c, 0, 69, 127
1, 578296, Poly_aftertouch_c, 0, 69, 0
1, 578354, Note_on_c, 0, 54, 96
1, 578372, Note_off_c, 0, 54, 74
1, 578379, Control_c, 0, 64, 102
1, 578394, Control_c, 0, 64, 71
1, 578408, Control_c, 0, 64, 0
1, 578408, Control_c, 0, 67, 8
1, 578446, Control_c, 0, 67, 9
1, 578490, Control_c, 0, 67, 10
1, 578505, Control_c, 0, 67, 12
1, 578520, Control_c, 0, 67, 16
1, 578533, Control_c, 0, 67, 21
1, 578548, Control_c, 0, 67, 25
1, 578563, Control_c, 0, 67, 29
1, 578578, Control_c, 0, 67, 32
1, 578593, Control_c, 0, 67, 34
1, 578601, Note_on_c, 0, 61, 75
1, 578607, Control_c, 0, 67, 37
1, 578622, Control_c, 0, 67, 39
1, 578637, Control_c, 0, 67, 41
1, 578652, Control_c, 0, 67, 42
1, 578667, Control_c, 0, 67, 45
1, 578682, Control_c, 0, 67, 46
1, 578697, Control_c, 0, 67, 49
1, 578712, Control_c, 0, 67, 52
1, 578727, Control_c, 0, 67, 55
1, 578741, Control_c, 0, 67, 60
1, 578754, Note_on_c, 0, 52, 73
1, 578756, Control_c, 0, 67, 65
1, 578759, Note_on_c, 0, 69, 63
1, 578762, Note_on_c, 0, 40, 64
1, 578764, Note_on_c, 0, 73, 65
1, 578771, Control_c, 0, 67, 72
1, 578778, Note_off_c, 0, 52, 66
1, 578780, Note_off_c, 0, 69, 64
1, 578783, Note_off_c, 0, 73, 65
1, 578785, Control_c, 0, 67, 76
1, 578793, Note_off_c, 0, 40, 64
1, 578800, Control_c, 0, 67, 79
1, 578815, Control_c, 0, 67, 81
1, 578828, Note_on_c, 0, 73, 68
1, 578830, Control_c, 0, 67, 81
1, 578843, Note_on_c, 0, 69, 68
1, 578843, Note_off_c, 0, 61, 63
1, 578845, Control_c, 0, 67, 82
1, 578859, Control_c, 0, 67, 82
1, 578874, Control_c, 0, 67, 83
1, 578886, Note_off_c, 0, 69, 57
1, 578889, Control_c, 0, 67, 85
1, 578900, Note_on_c, 0, 45, 69
1, 578904, Control_c, 0, 67, 88
1, 578908, Note_on_c, 0, 33, 60
1, 578911, Note_off_c, 0, 73, 62
1, 578914, Note_on_c, 0, 62, 65
1, 578919, Control_c, 0, 67, 94
1, 578927, Note_off_c, 0, 45, 66
1, 578933, Control_c, 0, 67, 101
1, 578937, Note_off_c, 0, 33, 54
1, 578948, Control_c, 0, 67, 105
1, 578963, Control_c, 0, 67, 108
1, 578977, Control_c, 0, 67, 109
1, 578992, Control_c, 0, 67, 110
1, 579022, Control_c, 0, 67, 110
1, 579037, Control_c, 0, 67, 111
1, 579053, Control_c, 0, 67, 111
1, 579066, Note_on_c, 0, 52, 58
1, 579068, Note_on_c, 0, 63, 73
1, 579068, Control_c, 0, 67, 112
1, 579069, Note_on_c, 0, 40, 61
1, 579082, Control_c, 0, 67, 114
1, 579090, Note_off_c, 0, 62, 53
1, 579091, Note_off_c, 0, 52, 60
1, 579096, Note_off_c, 0, 40, 60
1, 579097, Control_c, 0, 67, 115
1, 579112, Control_c, 0, 67, 117
1, 579127, Control_c, 0, 67, 117
1, 579142, Control_c, 0, 67, 118
1, 579241, Note_on_c, 0, 69, 51
1, 579242, Note_on_c, 0, 73, 62
1, 579248, Note_on_c, 0, 33, 43
1, 579266, Note_off_c, 0, 69, 59
1, 579267, Note_off_c, 0, 63, 0
1, 579279, Note_on_c, 0, 63, 65
1, 579287, Note_off_c, 0, 33, 53
1, 579312, Control_c, 0, 67, 117
1, 579314, Note_on_c, 0, 69, 54
1, 579327, Control_c, 0, 67, 116
1, 579353, Note_off_c, 0, 69, 62
1, 579374, Note_off_c, 0, 73, 55
1, 579385, Note_off_c, 0, 63, 60
1, 579396, Note_on_c, 0, 64, 71
1, 579415, Control_c, 0, 67, 117
1, 579430, Control_c, 0, 67, 118
1, 579445, Control_c, 0, 67, 118
1, 579460, Control_c, 0, 67, 119
1, 579519, Control_c, 0, 67, 118
1, 579534, Control_c, 0, 67, 117
1, 579549, Control_c, 0, 67, 117
1, 579557, Note_on_c, 0, 66, 68
1, 579571, Note_off_c, 0, 64, 50
1, 579638, Control_c, 0, 67, 117
1, 579698, Note_on_c, 0, 52, 63
1, 579706, Note_on_c, 0, 69, 63
1, 579707, Note_on_c, 0, 40, 57
1, 579711, Note_on_c, 0, 73, 65
1, 579725, Note_off_c, 0, 52, 62
1, 579725, Note_off_c, 0, 69, 64
1, 579736, Note_off_c, 0, 40, 62
1, 579777, Note_on_c, 0, 69, 62
1, 579786, Control_c, 0, 67, 118
1, 579841, Note_off_c, 0, 66, 61
1, 579846, Note_off_c, 0, 69, 62
1, 579847, Note_off_c, 0, 73, 57
1, 579850, Note_on_c, 0, 64, 68
1, 579859, Note_on_c, 0, 33, 66
1, 579862, Note_on_c, 0, 45, 63
1, 579876, Control_c, 0, 67, 118
1, 579886, Note_off_c, 0, 45, 63
1, 579891, Control_c, 0, 67, 119
1, 579892, Note_off_c, 0, 33, 62
1, 579905, Control_c, 0, 67, 119
1, 579928, Control_c, 0, 67, 120
1, 579943, Control_c, 0, 67, 122
1, 579958, Control_c, 0, 67, 124
1, 579973, Control_c, 0, 67, 126
1, 579987, Control_c, 0, 67, 127
1, 580002, Control_c, 0, 67, 127
1, 580027, Note_on_c, 0, 63, 73
1, 580031, Note_on_c, 0, 40, 59
1, 580034, Note_on_c, 0, 52, 47
1, 580049, Note_off_c, 0, 64, 53
1, 580059, Note_off_c, 0, 40, 62
1, 580065, Note_off_c, 0, 52, 53
1, 580178, Note_on_c, 0, 73, 75
1, 580182, Note_on_c, 0, 69, 61
1, 580197, Note_on_c, 0, 33, 36
1, 580211, Note_off_c, 0, 63, 0
1, 580222, Note_off_c, 0, 69, 0
1, 580223, Note_on_c, 0, 63, 66
1, 580237, Note_off_c, 0, 33, 52
1, 580259, Poly_aftertouch_c, 0, 69, 127
1, 580301, Poly_aftertouch_c, 0, 69, 0
1, 580315, Note_off_c, 0, 73, 59
1, 580324, Note_on_c, 0, 64, 73
1, 580326, Note_off_c, 0, 63, 62
1, 580353, Note_off_c, 0, 64, 66
1, 580457, Note_on_c, 0, 74, 84
1, 580616, Note_on_c, 0, 45, 69
1, 580616, Note_on_c, 0, 65, 73
1, 580619, Note_on_c, 0, 57, 54
1, 580622, Note_on_c, 0, 68, 59
1, 580640, Note_off_c, 0, 65, 68
1, 580640, Note_off_c, 0, 45, 66
1, 580642, Note_off_c, 0, 68, 61
1, 580644, Note_off_c, 0, 57, 58
1, 580691, Note_on_c, 0, 68, 78
1, 580733, Note_off_c, 0, 68, 59
1, 580780, Note_on_c, 0, 33, 61
1, 580780, Note_on_c, 0, 73, 83
1, 580782, Note_on_c, 0, 45, 49
1, 580809, Note_off_c, 0, 33, 57
1, 580810, Note_off_c, 0, 45, 54
1, 580825, Note_off_c, 0, 74, 59
1, 580926, Note_on_c, 0, 45, 57
1, 580930, Note_off_c, 0, 73, 65
1, 580932, Note_on_c, 0, 57, 62
1, 580935, Note_on_c, 0, 71, 69
1, 580962, Note_off_c, 0, 57, 65
1, 580964, Note_off_c, 0, 45, 65
1, 581085, Note_on_c, 0, 62, 62
1, 581088, Note_on_c, 0, 65, 58
1, 581093, Note_on_c, 0, 33, 52
1, 581109, Note_off_c, 0, 65, 62
1, 581113, Note_off_c, 0, 62, 63
1, 581126, Note_off_c, 0, 33, 54
1, 581176, Note_on_c, 0, 65, 55
1, 581236, Note_off_c, 0, 65, 62
1, 581237, Note_off_c, 0, 71, 65
1, 581243, Note_on_c, 0, 68, 69
1, 581269, Note_off_c, 0, 68, 66
1, 581391, Note_on_c, 0, 74, 79
1, 581532, Note_on_c, 0, 68, 60
1, 581533, Note_on_c, 0, 65, 61
1, 581535, Note_on_c, 0, 45, 62
1, 581543, Note_on_c, 0, 57, 40
1, 581549, Note_off_c, 0, 68, 63
1, 581554, Note_off_c, 0, 65, 65
1, 581559, Note_off_c, 0, 45, 66
1, 581575, Note_off_c, 0, 57, 52
1, 581603, Note_on_c, 0, 68, 75
1, 581655, Note_off_c, 0, 68, 46
1, 581687, Note_on_c, 0, 73, 82
1, 581692, Note_on_c, 0, 33, 57
1, 581702, Note_on_c, 0, 45, 36
1, 581722, Note_off_c, 0, 33, 55
1, 581733, Note_off_c, 0, 74, 58
1, 581737, Note_off_c, 0, 45, 54
1, 581831, Note_off_c, 0, 73, 64
1, 581839, Note_on_c, 0, 45, 64
1, 581839, Note_on_c, 0, 71, 71
1, 581860, Note_on_c, 0, 57, 38
1, 581869, Note_off_c, 0, 45, 67
1, 581893, Note_off_c, 0, 57, 53
1, 581991, Note_on_c, 0, 65, 66
1, 581992, Note_on_c, 0, 33, 59
1, 581995, Note_on_c, 0, 62, 66
1, 582012, Note_off_c, 0, 65, 66
1, 582023, Note_off_c, 0, 33, 55
1, 582023, Note_off_c, 0, 62, 61
1, 582067, Note_on_c, 0, 65, 71
1, 582132, Note_off_c, 0, 65, 61
1, 582134, Note_off_c, 0, 71, 63
1, 582143, Note_on_c, 0, 68, 80
1, 582164, Note_off_c, 0, 68, 70
1, 582303, Note_on_c, 0, 61, 78
1, 582438, Note_on_c, 0, 69, 67
1, 582440, Note_on_c, 0, 73, 64
1, 582441, Note_on_c, 0, 40, 61
1, 582441, Note_on_c, 0, 52, 55
1, 582456, Note_off_c, 0, 61, 63
1, 582459, Note_off_c, 0, 73, 65
1, 582463, Note_off_c, 0, 69, 68
1, 582468, Note_off_c, 0, 52, 57
1, 582471, Note_off_c, 0, 40, 64
1, 582504, Note_on_c, 0, 69, 75
1, 582504, Note_on_c, 0, 73, 75
1, 582583, Note_on_c, 0, 64, 75
1, 582593, Note_on_c, 0, 33, 61
1, 582598, Note_off_c, 0, 69, 62
1, 582600, Note_on_c, 0, 45, 54
1, 582620, Note_off_c, 0, 33, 56
1, 582626, Note_off_c, 0, 45, 58
1, 582672, Note_off_c, 0, 73, 53
1, 582745, Note_on_c, 0, 66, 72
1, 582746, Note_on_c, 0, 52, 66
1, 582752, Note_on_c, 0, 40, 59
1, 582765, Note_off_c, 0, 64, 58
1, 582774, Note_off_c, 0, 52, 65
1, 582778, Note_off_c, 0, 40, 60
1, 582888, Note_on_c, 0, 69, 73
1, 582894, Note_on_c, 0, 73, 69
1, 582907, Note_on_c, 0, 33, 51
1, 582911, Note_off_c, 0, 69, 69
1, 582948, Note_off_c, 0, 33, 53
1, 582973, Note_on_c, 0, 69, 67
1, 583049, Note_off_c, 0, 73, 49
1, 583060, Note_off_c, 0, 69, 63
1, 583064, Note_on_c, 0, 64, 76
1, 583069, Note_off_c, 0, 66, 61
1, 583101, Note_off_c, 0, 64, 67
1, 583216, Note_on_c, 0, 61, 76
1, 583351, Note_on_c, 0, 52, 63
1, 583356, Note_on_c, 0, 40, 61
1, 583358, Note_on_c, 0, 76, 72
1, 583359, Note_on_c, 0, 73, 67
1, 583376, Note_off_c, 0, 73, 66
1, 583380, Note_off_c, 0, 52, 64
1, 583380, Note_off_c, 0, 76, 68
1, 583386, Note_off_c, 0, 40, 64
1, 583395, Note_off_c, 0, 61, 0
1, 583426, Note_on_c, 0, 76, 75
1, 583432, Note_on_c, 0, 73, 84
1, 583433, Poly_aftertouch_c, 0, 61, 127
1, 583471, Poly_aftertouch_c, 0, 61, 0
1, 583500, Note_on_c, 0, 69, 85
1, 583502, Note_on_c, 0, 33, 65
1, 583509, Note_on_c, 0, 45, 62
1, 583514, Note_off_c, 0, 73, 61
1, 583532, Note_off_c, 0, 33, 60
1, 583532, Note_off_c, 0, 76, 59
1, 583535, Note_off_c, 0, 45, 65
1, 583644, Note_on_c, 0, 71, 89
1, 583655, Note_on_c, 0, 52, 74
1, 583656, Note_on_c, 0, 40, 72
1, 583690, Note_off_c, 0, 52, 65
1, 583695, Note_off_c, 0, 40, 64
1, 583702, Note_off_c, 0, 69, 59
1, 583805, Note_on_c, 0, 76, 83
1, 583813, Note_on_c, 0, 73, 71
1, 583815, Note_on_c, 0, 33, 57
1, 583824, Note_on_c, 0, 45, 40
1, 583839, Note_off_c, 0, 73, 62
1, 583848, Note_off_c, 0, 33, 54
1, 583858, Note_off_c, 0, 71, 0
1, 583863, Note_off_c, 0, 45, 34
1, 583892, Poly_aftertouch_c, 0, 73, 127
1, 583900, Poly_aftertouch_c, 0, 71, 0
1, 583957, Note_on_c, 0, 69, 76
1, 583969, Note_off_c, 0, 76, 60
1, 583985, Poly_aftertouch_c, 0, 73, 0
1, 584109, Note_on_c, 0, 68, 78
1, 584128, Note_off_c, 0, 69, 54
1, 584245, Note_on_c, 0, 73, 67
1, 584248, Note_on_c, 0, 76, 70
1, 584250, Note_on_c, 0, 57, 48
1, 584251, Note_on_c, 0, 45, 58
1, 584263, Note_off_c, 0, 73, 66
1, 584272, Note_off_c, 0, 76, 67
1, 584276, Note_off_c, 0, 45, 60
1, 584277, Note_off_c, 0, 57, 57
1, 584316, Note_on_c, 0, 76, 68
1, 584319, Note_on_c, 0, 73, 80
1, 584350, Note_off_c, 0, 76, 56
1, 584376, Note_off_c, 0, 73, 55
1, 584385, Note_on_c, 0, 45, 50
1, 584388, Note_on_c, 0, 67, 76
1, 584388, Note_off_c, 0, 68, 62
1, 584411, Note_on_c, 0, 33, 23
1, 584413, Note_off_c, 0, 45, 57
1, 584465, Note_off_c, 0, 33, 30
1, 584551, Note_on_c, 0, 45, 53
1, 584556, Note_on_c, 0, 57, 56
1, 584556, Note_on_c, 0, 66, 70
1, 584557, Note_off_c, 0, 67, 59
1, 584580, Note_off_c, 0, 45, 64
1, 584581, Note_off_c, 0, 57, 60
1, 584703, Note_on_c, 0, 69, 68
1, 584706, Note_on_c, 0, 33, 55
1, 584706, Note_on_c, 0, 74, 75
1, 584724, Note_on_c, 0, 45, 6
1, 584729, Note_off_c, 0, 69, 66
1, 584739, Note_off_c, 0, 33, 54
1, 584770, Note_on_c, 0, 69, 68
1, 584775, Note_off_c, 0, 45, 26
1, 584790, Note_off_c, 0, 74, 57
1, 584845, Note_off_c, 0, 69, 64
1, 584850, Note_off_c, 0, 66, 58
1, 584854, Note_on_c, 0, 65, 67
1, 585004, Note_on_c, 0, 64, 65
1, 585029, Note_off_c, 0, 65, 52
1, 585138, Note_on_c, 0, 69, 64
1, 585143, Note_on_c, 0, 45, 64
1, 585144, Note_on_c, 0, 57, 52
1, 585144, Note_on_c, 0, 73, 63
1, 585154, Note_off_c, 0, 64, 65
1, 585176, Note_off_c, 0, 45, 66
1, 585179, Note_off_c, 0, 57, 57
1, 585194, Note_off_c, 0, 73, 0
1, 585197, Note_off_c, 0, 69, 0
1, 585212, Note_on_c, 0, 69, 54
1, 585213, Note_on_c, 0, 64, 64
1, 585231, Poly_aftertouch_c, 0, 73, 127
1, 585285, Note_off_c, 0, 69, 57
1, 585287, Note_on_c, 0, 63, 75
1, 585289, Poly_aftertouch_c, 0, 73, 0
1, 585291, Note_off_c, 0, 64, 64
1, 585312, Note_on_c, 0, 45, 29
1, 585320, Note_on_c, 0, 33, 31
1, 585350, Note_off_c, 0, 45, 54
1, 585362, Note_off_c, 0, 33, 31
1, 585445, Note_on_c, 0, 45, 58
1, 585456, Note_on_c, 0, 57, 50
1, 585458, Note_on_c, 0, 66, 60
1, 585473, Note_off_c, 0, 63, 55
1, 585477, Note_off_c, 0, 45, 66
1, 585482, Note_off_c, 0, 57, 58
1, 585598, Note_on_c, 0, 33, 69
1, 585606, Note_on_c, 0, 69, 70
1, 585611, Note_on_c, 0, 73, 72
1, 585624, Note_off_c, 0, 33, 58
1, 585633, Note_off_c, 0, 69, 65
1, 585647, Note_off_c, 0, 66, 0
1, 585652, Note_off_c, 0, 73, 0
1, 585665, Note_on_c, 0, 66, 49
1, 585679, Note_on_c, 0, 69, 66
1, 585690, Poly_aftertouch_c, 0, 73, 127
1, 585750, Note_off_c, 0, 69, 61
1, 585759, Note_on_c, 0, 64, 59
1, 585759, Note_off_c, 0, 66, 62
1, 585761, Poly_aftertouch_c, 0, 73, 0
1, 585778, Note_off_c, 0, 64, 65
1, 585921, Note_on_c, 0, 79, 82
1, 586072, Note_on_c, 0, 71, 59
1, 586073, Note_on_c, 0, 67, 61
1, 586091, Note_off_c, 0, 71, 65
1, 586131, Note_off_c, 0, 67, 40
1, 586139, Note_on_c, 0, 71, 67
1, 586166, Note_off_c, 0, 71, 59
1, 586219, Note_on_c, 0, 78, 78
1, 586226, Note_off_c, 0, 79, 63
1, 586244, Note_off_c, 0, 78, 65
1, 586387, Note_on_c, 0, 76, 72
1, 586521, Note_on_c, 0, 55, 53
1, 586522, Note_on_c, 0, 43, 48
1, 586525, Note_on_c, 0, 64, 51
1, 586525, Note_on_c, 0, 71, 47
1, 586544, Note_off_c, 0, 55, 60
1, 586548, Note_off_c, 0, 71, 59
1, 586549, Note_off_c, 0, 64, 57
1, 586551, Note_off_c, 0, 43, 54
1, 586602, Note_on_c, 0, 71, 56
1, 586632, Note_off_c, 0, 71, 61
1, 586671, Note_on_c, 0, 42, 60
1, 586673, Note_on_c, 0, 54, 49
1, 586673, Note_on_c, 0, 74, 76
1, 586684, Note_off_c, 0, 76, 61
1, 586695, Note_off_c, 0, 74, 72
1, 586698, Note_off_c, 0, 42, 59
1, 586703, Note_off_c, 0, 54, 57
1, 586799, Control_c, 0, 64, 23
1, 586814, Control_c, 0, 64, 36
1, 586829, Control_c, 0, 64, 40
1, 586830, Note_on_c, 0, 73, 76
1, 586844, Control_c, 0, 64, 42
1, 586858, Control_c, 0, 64, 42
1, 586932, Control_c, 0, 64, 40
1, 586947, Control_c, 0, 64, 36
1, 586962, Control_c, 0, 64, 27
1, 586976, Note_on_c, 0, 40, 55
1, 586976, Note_on_c, 0, 52, 46
1, 586976, Note_on_c, 0, 64, 59
1, 586977, Control_c, 0, 64, 0
1, 586983, Note_on_c, 0, 67, 38
1, 587000, Note_off_c, 0, 64, 60
1, 587002, Note_off_c, 0, 40, 58
1, 587005, Note_off_c, 0, 52, 54
1, 587044, Note_off_c, 0, 67, 0
1, 587057, Note_on_c, 0, 67, 46
1, 587103, Note_on_c, 0, 71, 81
1, 587105, Note_off_c, 0, 67, 62
1, 587117, Note_on_c, 0, 50, 61
1, 587118, Note_on_c, 0, 38, 63
1, 587133, Note_off_c, 0, 73, 60
1, 587142, Note_off_c, 0, 50, 61
1, 587145, Note_off_c, 0, 38, 57
1, 587145, Note_off_c, 0, 71, 66
1, 587271, Note_on_c, 0, 70, 70
1, 587419, Note_on_c, 0, 49, 64
1, 587421, Note_on_c, 0, 64, 54
1, 587422, Note_on_c, 0, 37, 63
1, 587435, Note_on_c, 0, 67, 29
1, 587444, Note_off_c, 0, 64, 60
1, 587448, Note_off_c, 0, 49, 65
1, 587452, Note_off_c, 0, 37, 64
1, 587488, Note_off_c, 0, 67, 0
1, 587488, Note_on_c, 0, 67, 51
1, 587506, Note_on_c, 0, 64, 42
1, 587532, Note_off_c, 0, 64, 58
1, 587560, Note_on_c, 0, 35, 64
1, 587563, Note_on_c, 0, 47, 64
1, 587565, Note_on_c, 0, 71, 80
1, 587565, Note_off_c, 0, 67, 63
1, 587580, Note_off_c, 0, 70, 63
1, 587586, Note_off_c, 0, 35, 60
1, 587586, Note_off_c, 0, 47, 62
1, 587601, Note_off_c, 0, 71, 63
1, 587711, Note_on_c, 0, 72, 77
1, 587845, Note_on_c, 0, 46, 77
1, 587847, Note_on_c, 0, 66, 58
1, 587848, Note_on_c, 0, 34, 70
1, 587850, Note_on_c, 0, 64, 57
1, 587868, Note_off_c, 0, 46, 65
1, 587869, Note_off_c, 0, 66, 62
1, 587875, Note_off_c, 0, 34, 63
1, 587923, Note_on_c, 0, 66, 73
1, 587925, Note_off_c, 0, 64, 57
1, 587976, Note_off_c, 0, 66, 51
1, 587979, Note_on_c, 0, 54, 75
1, 587985, Note_on_c, 0, 42, 78
1, 587991, Note_on_c, 0, 73, 81
1, 588003, Note_off_c, 0, 54, 67
1, 588009, Note_off_c, 0, 72, 63
1, 588011, Note_off_c, 0, 42, 66
1, 588034, Note_off_c, 0, 73, 62
1, 588149, Note_on_c, 0, 73, 75
1, 588290, Note_on_c, 0, 62, 59
1, 588301, Note_on_c, 0, 47, 64
1, 588307, Note_on_c, 0, 66, 36
1, 588310, Note_on_c, 0, 35, 43
1, 588323, Note_off_c, 0, 62, 62
1, 588327, Note_off_c, 0, 47, 67
1, 588339, Note_off_c, 0, 66, 53
1, 588345, Note_off_c, 0, 35, 55
1, 588410, Note_on_c, 0, 66, 45
1, 588420, Note_off_c, 0, 73, 59
1, 588445, Note_on_c, 0, 74, 80
1, 588451, Note_on_c, 0, 42, 65
1, 588454, Note_on_c, 0, 54, 53
1, 588456, Note_off_c, 0, 66, 60
1, 588476, Note_off_c, 0, 42, 60
1, 588480, Note_off_c, 0, 54, 60
1, 588495, Note_off_c, 0, 74, 62
1, 588605, Note_on_c, 0, 69, 73
1, 588748, Note_on_c, 0, 64, 53
1, 588754, Note_on_c, 0, 49, 60
1, 588756, Note_on_c, 0, 37, 55
1, 588783, Note_off_c, 0, 49, 65
1, 588785, Note_off_c, 0, 37, 57
1, 588798, Note_on_c, 0, 66, 10
1, 588839, Note_off_c, 0, 64, 57
1, 588902, Note_off_c, 0, 66, 57
1, 588915, Note_on_c, 0, 70, 69
1, 588919, Note_off_c, 0, 69, 62
1, 588930, Note_on_c, 0, 42, 45
1, 588932, Note_on_c, 0, 54, 32
1, 588957, Note_off_c, 0, 70, 59
1, 588961, Note_off_c, 0, 42, 55
1, 588968, Note_off_c, 0, 54, 32
1, 589079, Note_on_c, 0, 70, 68
1, 589226, Note_on_c, 0, 62, 55
1, 589229, Note_on_c, 0, 66, 54
1, 589231, Note_on_c, 0, 50, 45
1, 589232, Note_on_c, 0, 38, 40
1, 589252, Note_off_c, 0, 66, 63
1, 589261, Note_off_c, 0, 62, 59
1, 589264, Note_off_c, 0, 50, 56
1, 589267, Note_off_c, 0, 38, 52
1, 589335, Note_on_c, 0, 66, 51
1, 589370, Note_off_c, 0, 66, 64
1, 589378, Note_on_c, 0, 54, 51
1, 589383, Note_on_c, 0, 71, 71
1, 589391, Note_off_c, 0, 70, 62
1, 589406, Note_off_c, 0, 54, 59
1, 589406, Note_off_c, 0, 71, 70
1, 589535, Note_on_c, 0, 69, 67
1, 589556, Note_on_c, 0, 57, 41
1, 589624, Control_c, 0, 64, 49
1, 589639, Control_c, 0, 64, 63
1, 589654, Control_c, 0, 64, 68
1, 589676, Control_c, 0, 64, 73
1, 589690, Control_c, 0, 64, 80
1, 589705, Control_c, 0, 64, 88
1, 589716, Note_on_c, 0, 66, 51
1, 589717, Note_on_c, 0, 62, 51
1, 589720, Control_c, 0, 64, 96
1, 589722, Note_on_c, 0, 47, 47
1, 589735, Control_c, 0, 64, 100
1, 589750, Control_c, 0, 64, 103
1, 589757, Note_off_c, 0, 62, 56
1, 589765, Control_c, 0, 64, 107
1, 589780, Control_c, 0, 64, 113
1, 589791, Note_off_c, 0, 66, 0
1, 589795, Control_c, 0, 64, 127
1, 589827, Poly_aftertouch_c, 0, 66, 127
1, 589829, Note_on_c, 0, 62, 42
1, 589879, Note_on_c, 0, 68, 76
1, 589881, Note_on_c, 0, 56, 61
1, 589909, Note_off_c, 0, 69, 56
1, 589930, Note_off_c, 0, 57, 37
1, 589951, Note_off_c, 0, 47, 49
1, 589972, Control_c, 0, 67, 126
1, 589979, Note_off_c, 0, 62, 58
1, 589987, Control_c, 0, 67, 123
1, 590002, Control_c, 0, 67, 120
1, 590015, Note_on_c, 0, 69, 82
1, 590016, Control_c, 0, 67, 117
1, 590031, Control_c, 0, 67, 115
1, 590032, Poly_aftertouch_c, 0, 66, 0
1, 590034, Note_on_c, 0, 57, 60
1, 590046, Control_c, 0, 67, 113
1, 590061, Note_off_c, 0, 68, 62
1, 590061, Control_c, 0, 67, 111
1, 590076, Control_c, 0, 67, 109
1, 590090, Control_c, 0, 67, 108
1, 590105, Control_c, 0, 67, 106
1, 590114, Note_off_c, 0, 56, 28
1, 590120, Control_c, 0, 67, 105
1, 590134, Control_c, 0, 67, 105
1, 590164, Control_c, 0, 64, 95
1, 590164, Control_c, 0, 67, 104
1, 590171, Note_on_c, 0, 49, 70
1, 590173, Note_on_c, 0, 66, 77
1, 590179, Note_on_c, 0, 61, 70
1, 590179, Control_c, 0, 64, 68
1, 590179, Control_c, 0, 67, 104
1, 590194, Control_c, 0, 64, 0
1, 590194, Control_c, 0, 67, 101
1, 590197, Note_off_c, 0, 66, 64
1, 590200, Note_off_c, 0, 61, 61
1, 590209, Control_c, 0, 67, 95
1, 590224, Control_c, 0, 64, 62
1, 590224, Control_c, 0, 67, 88
1, 590239, Control_c, 0, 64, 71
1, 590239, Control_c, 0, 67, 83
1, 590247, Note_on_c, 0, 61, 71
1, 590254, Note_on_c, 0, 66, 82
1, 590254, Control_c, 0, 64, 82
1, 590254, Control_c, 0, 67, 81
1, 590269, Control_c, 0, 64, 99
1, 590269, Control_c, 0, 67, 81
1, 590284, Control_c, 0, 64, 127
1, 590284, Control_c, 0, 67, 80
1, 590299, Control_c, 0, 67, 79
1, 590313, Control_c, 0, 67, 78
1, 590316, Note_on_c, 0, 68, 96
1, 590322, Note_off_c, 0, 69, 63
1, 590329, Note_on_c, 0, 56, 80
1, 590343, Control_c, 0, 67, 78
1, 590356, Note_off_c, 0, 57, 59
1, 590358, Control_c, 0, 67, 77
1, 590373, Control_c, 0, 67, 77
1, 590410, Control_c, 0, 67, 77
1, 590425, Control_c, 0, 67, 78
1, 590433, Note_off_c, 0, 66, 54
1, 590439, Control_c, 0, 67, 80
1, 590442, Note_off_c, 0, 49, 55
1, 590454, Control_c, 0, 67, 81
1, 590466, Note_on_c, 0, 57, 74
1, 590469, Control_c, 0, 67, 82
1, 590471, Note_on_c, 0, 69, 95
1, 590480, Note_off_c, 0, 61, 48
1, 590484, Control_c, 0, 67, 84
1, 590499, Control_c, 0, 67, 86
1, 590514, Control_c, 0, 67, 87
1, 590529, Control_c, 0, 67, 88
1, 590544, Control_c, 0, 67, 89
1, 590558, Control_c, 0, 67, 91
1, 590561, Note_off_c, 0, 68, 54
1, 590573, Control_c, 0, 67, 93
1, 590588, Control_c, 0, 67, 96
1, 590603, Control_c, 0, 67, 99
1, 590618, Control_c, 0, 67, 102
1, 590623, Note_off_c, 0, 56, 57
1, 590625, Note_on_c, 0, 66, 70
1, 590631, Note_on_c, 0, 60, 64
1, 590632, Note_on_c, 0, 50, 65
1, 590633, Control_c, 0, 67, 105
1, 590647, Control_c, 0, 64, 104
1, 590647, Control_c, 0, 67, 108
1, 590650, Note_off_c, 0, 66, 64
1, 590662, Control_c, 0, 64, 79
1, 590662, Control_c, 0, 67, 111
1, 590677, Control_c, 0, 64, 36
1, 590677, Control_c, 0, 67, 116
1, 590684, Note_off_c, 0, 60, 0
1, 590692, Control_c, 0, 64, 0
1, 590692, Control_c, 0, 67, 120
1, 590707, Control_c, 0, 67, 124
1, 590721, Poly_aftertouch_c, 0, 60, 127
1, 590722, Control_c, 0, 67, 126
1, 590725, Note_on_c, 0, 66, 65
1, 590737, Control_c, 0, 67, 127
1, 590798, Note_off_c, 0, 66, 60
1, 590799, Note_on_c, 0, 68, 73
1, 590810, Note_on_c, 0, 56, 54
1, 590846, Note_off_c, 0, 57, 54
1, 590870, Note_off_c, 0, 69, 45
1, 590935, Note_off_c, 0, 50, 56
1, 590974, Note_on_c, 0, 54, 50
1, 590980, Note_on_c, 0, 66, 58
1, 590985, Note_off_c, 0, 68, 60
1, 590994, Poly_aftertouch_c, 0, 60, 0
1, 591110, Note_off_c, 0, 56, 0
1, 591146, Note_on_c, 0, 49, 53
1, 591147, Note_on_c, 0, 59, 32
1, 591147, Poly_aftertouch_c, 0, 56, 127
1, 591166, Note_off_c, 0, 54, 58
1, 591172, Note_on_c, 0, 56, 3
1, 591204, Control_c, 0, 64, 59
1, 591208, Poly_aftertouch_c, 0, 61, 127
1, 591219, Control_c, 0, 64, 67
1, 591225, Note_off_c, 0, 59, 0
1, 591234, Control_c, 0, 64, 73
1, 591240, Note_on_c, 0, 59, 34
1, 591243, Note_on_c, 0, 61, 3
1, 591249, Control_c, 0, 64, 80
1, 591263, Control_c, 0, 64, 85
1, 591278, Control_c, 0, 64, 91
1, 591291, Note_off_c, 0, 59, 48
1, 591293, Control_c, 0, 64, 95
1, 591308, Control_c, 0, 64, 99
1, 591323, Control_c, 0, 64, 101
1, 591336, Note_on_c, 0, 65, 60
1, 591337, Control_c, 0, 64, 102
1, 591341, Note_off_c, 0, 56, 42
1, 591351, Note_on_c, 0, 53, 46
1, 591391, Note_off_c, 0, 61, 40
1, 591464, Note_off_c, 0, 66, 34
1, 591500, Control_c, 0, 64, 99
1, 591503, Note_off_c, 0, 65, 64
1, 591506, Note_off_c, 0, 49, 52
1, 591507, Note_on_c, 0, 69, 67
1, 591515, Control_c, 0, 64, 91
1, 591528, Note_on_c, 0, 57, 48
1, 591530, Control_c, 0, 64, 77
1, 591544, Control_c, 0, 64, 64
1, 591559, Control_c, 0, 64, 40
1, 591574, Control_c, 0, 64, 56
1, 591589, Control_c, 0, 64, 67
1, 591604, Control_c, 0, 64, 74
1, 591619, Control_c, 0, 64, 84
1, 591634, Control_c, 0, 64, 95
1, 591649, Control_c, 0, 64, 105
1, 591663, Control_c, 0, 64, 112
1, 591677, Note_on_c, 0, 47, 53
1, 591686, Note_on_c, 0, 62, 44
1, 591692, Note_on_c, 0, 66, 40
1, 591693, Control_c, 0, 64, 111
1, 591707, Control_c, 0, 64, 102
1, 591722, Control_c, 0, 64, 86
1, 591737, Control_c, 0, 64, 72
1, 591738, Note_off_c, 0, 62, 0
1, 591738, Note_on_c, 0, 62, 21
1, 591741, Note_off_c, 0, 66, 0
1, 591752, Control_c, 0, 64, 44
1, 591755, Note_on_c, 0, 66, 48
1, 591767, Control_c, 0, 64, 0
1, 591817, Note_off_c, 0, 69, 56
1, 591826, Control_c, 0, 64, 56
1, 591829, Note_on_c, 0, 68, 69
1, 591842, Control_c, 0, 64, 65
1, 591849, Note_on_c, 0, 56, 64
1, 591857, Control_c, 0, 64, 71
1, 591872, Control_c, 0, 64, 77
1, 591886, Control_c, 0, 64, 84
1, 591887, Note_off_c, 0, 57, 37
1, 591908, Control_c, 0, 64, 91
1, 591923, Control_c, 0, 64, 99
1, 591938, Control_c, 0, 64, 107
1, 591953, Control_c, 0, 64, 115
1, 591959, Note_off_c, 0, 47, 63
1, 591968, Control_c, 0, 64, 127
1, 591979, Note_off_c, 0, 66, 31
1, 591992, Note_off_c, 0, 62, 60
1, 591999, Note_on_c, 0, 57, 63
1, 592004, Note_on_c, 0, 69, 81
1, 592032, Note_off_c, 0, 53, 42
1, 592033, Note_off_c, 0, 68, 62
1, 592088, Note_off_c, 0, 56, 54
1, 592130, Control_c, 0, 64, 104
1, 592145, Control_c, 0, 64, 81
1, 592147, Note_on_c, 0, 66, 68
1, 592156, Note_on_c, 0, 49, 64
1, 592158, Note_on_c, 0, 61, 55
1, 592160, Control_c, 0, 64, 59
1, 592167, Note_off_c, 0, 66, 65
1, 592175, Control_c, 0, 64, 0
1, 592182, Note_off_c, 0, 61, 57
1, 592218, Note_on_c, 0, 61, 59
1, 592223, Note_on_c, 0, 66, 78
1, 592264, Control_c, 0, 64, 38
1, 592278, Control_c, 0, 64, 61
1, 592293, Control_c, 0, 64, 65
1, 592300, Note_on_c, 0, 68, 84
1, 592308, Control_c, 0, 64, 68
1, 592309, Note_on_c, 0, 56, 63
1, 592319, Note_off_c, 0, 69, 61
1, 592323, Control_c, 0, 64, 71
1, 592337, Control_c, 0, 64, 73
1, 592346, Note_off_c, 0, 57, 54
1, 592352, Control_c, 0, 64, 77
1, 592367, Control_c, 0, 64, 81
1, 592382, Control_c, 0, 64, 84
1, 592397, Control_c, 0, 64, 85
1, 592412, Control_c, 0, 64, 87
1, 592427, Control_c, 0, 64, 88
1, 592434, Note_off_c, 0, 66, 50
1, 592442, Control_c, 0, 64, 89
1, 592448, Note_off_c, 0, 49, 56
1, 592448, Note_off_c, 0, 61, 58
1, 592471, Note_on_c, 0, 57, 59
1, 592473, Note_on_c, 0, 69, 79
1, 592530, Control_c, 0, 64, 88
1, 592541, Note_off_c, 0, 68, 56
1, 592545, Control_c, 0, 64, 87
1, 592560, Control_c, 0, 64, 85
1, 592575, Control_c, 0, 64, 81
1, 592590, Control_c, 0, 64, 78
1, 592597, Note_off_c, 0, 56, 50
1, 592604, Control_c, 0, 64, 74
1, 592619, Control_c, 0, 64, 70
1, 592635, Control_c, 0, 64, 66
1, 592648, Note_on_c, 0, 66, 61
1, 592650, Control_c, 0, 64, 64
1, 592667, Note_on_c, 0, 50, 49
1, 592667, Note_on_c, 0, 60, 49
1, 592672, Control_c, 0, 64, 54
1, 592685, Note_off_c, 0, 66, 62
1, 592687, Control_c, 0, 64, 0
1, 592739, Note_off_c, 0, 60, 0
1, 592755, Note_on_c, 0, 60, 40
1, 592767, Note_on_c, 0, 66, 55
1, 592919, Note_on_c, 0, 55, 44
1, 592923, Note_on_c, 0, 67, 60
1, 592957, Note_off_c, 0, 66, 39
1, 592971, Note_off_c, 0, 57, 38
1, 592998, Note_off_c, 0, 69, 59
1, 593133, Note_on_c, 0, 66, 60
1, 593139, Note_off_c, 0, 50, 59
1, 593141, Note_on_c, 0, 54, 46
1, 593145, Note_off_c, 0, 67, 60
1, 593175, Control_c, 0, 64, 58
1, 593190, Control_c, 0, 64, 64
1, 593199, Note_off_c, 0, 60, 56
1, 593205, Control_c, 0, 64, 67
1, 593220, Control_c, 0, 64, 68
1, 593234, Control_c, 0, 64, 69
1, 593264, Note_off_c, 0, 55, 35
1, 593278, Control_c, 0, 64, 68
1, 593293, Control_c, 0, 64, 67
1, 593308, Control_c, 0, 64, 65
1, 593323, Control_c, 0, 64, 62
1, 593338, Control_c, 0, 64, 48
1, 593352, Control_c, 0, 64, 0
1, 593354, Note_on_c, 0, 61, 49
1, 593357, Note_on_c, 0, 59, 42
1, 593384, Note_on_c, 0, 49, 41
1, 593386, Note_off_c, 0, 61, 58
1, 593396, Note_off_c, 0, 59, 51
1, 593464, Control_c, 0, 64, 37
1, 593479, Control_c, 0, 64, 58
1, 593494, Control_c, 0, 64, 63
1, 593501, Note_on_c, 0, 61, 35
1, 593509, Note_on_c, 0, 59, 40
1, 593509, Control_c, 0, 64, 65
1, 593524, Control_c, 0, 64, 67
1, 593539, Control_c, 0, 64, 68
1, 593554, Control_c, 0, 64, 69
1, 593568, Control_c, 0, 64, 71
1, 593583, Control_c, 0, 64, 72
1, 593598, Control_c, 0, 64, 73
1, 593613, Control_c, 0, 64, 73
1, 593628, Control_c, 0, 64, 74
1, 593643, Control_c, 0, 64, 74
1, 593719, Note_on_c, 0, 65, 47
1, 593746, Control_c, 0, 64, 74
1, 593759, Note_on_c, 0, 53, 40
1, 593761, Control_c, 0, 64, 72
1, 593776, Control_c, 0, 64, 70
1, 593790, Control_c, 0, 64, 64
1, 593805, Control_c, 0, 64, 31
1, 593811, Note_off_c, 0, 54, 44
1, 593820, Control_c, 0, 64, 0
1, 593822, Note_off_c, 0, 66, 39
1, 593878, Note_off_c, 0, 59, 43
1, 593908, Control_c, 0, 64, 57
1, 593917, Note_off_c, 0, 61, 56
1, 593923, Control_c, 0, 64, 67
1, 593938, Control_c, 0, 64, 74
1, 593953, Control_c, 0, 64, 82
1, 593968, Control_c, 0, 64, 90
1, 593983, Control_c, 0, 64, 97
1, 593998, Control_c, 0, 64, 101
1, 594013, Control_c, 0, 64, 103
1, 594022, Note_off_c, 0, 65, 63
1, 594028, Control_c, 0, 64, 104
1, 594057, Control_c, 0, 64, 105
1, 594072, Control_c, 0, 64, 105
1, 594076, Note_on_c, 0, 61, 55
1, 594087, Control_c, 0, 64, 106
1, 594101, Control_c, 0, 64, 107
1, 594116, Control_c, 0, 64, 107
1, 594197, Control_c, 0, 64, 107
1, 594215, Note_off_c, 0, 53, 50
1, 594228, Control_c, 0, 64, 106
1, 594237, Note_off_c, 0, 49, 53
1, 594243, Control_c, 0, 64, 100
1, 594250, Note_on_c, 0, 69, 63
1, 594254, Note_on_c, 0, 45, 67
1, 594257, Note_on_c, 0, 73, 54
1, 594258, Control_c, 0, 64, 85
1, 594270, Note_off_c, 0, 69, 65
1, 594273, Control_c, 0, 64, 68
1, 594287, Control_c, 0, 64, 0
1, 594296, Note_off_c, 0, 45, 58
1, 594307, Note_off_c, 0, 73, 0
1, 594319, Note_on_c, 0, 73, 60
1, 594327, Note_on_c, 0, 69, 67
1, 594335, Note_off_c, 0, 61, 54
1, 594359, Note_off_c, 0, 69, 58
1, 594391, Note_off_c, 0, 73, 54
1, 594398, Note_on_c, 0, 62, 72
1, 594403, Note_on_c, 0, 52, 66
1, 594434, Note_off_c, 0, 52, 64
1, 594552, Note_on_c, 0, 57, 55
1, 594555, Note_on_c, 0, 63, 74
1, 594571, Note_off_c, 0, 62, 50
1, 594583, Note_off_c, 0, 57, 64
1, 594696, Note_on_c, 0, 61, 71
1, 594701, Note_on_c, 0, 73, 66
1, 594703, Note_on_c, 0, 69, 59
1, 594719, Note_off_c, 0, 63, 63
1, 594720, Note_off_c, 0, 61, 66
1, 594733, Note_off_c, 0, 69, 57
1, 594763, Note_on_c, 0, 63, 66
1, 594815, Poly_aftertouch_c, 0, 69, 0
1, 594844, Note_on_c, 0, 57, 62
1, 594845, Note_off_c, 0, 73, 53
1, 594856, Note_on_c, 0, 64, 73
1, 594859, Note_off_c, 0, 63, 62
1, 594878, Note_off_c, 0, 57, 61
1, 595014, Note_on_c, 0, 52, 55
1, 595021, Note_on_c, 0, 66, 59
1, 595030, Note_off_c, 0, 64, 56
1, 595046, Note_off_c, 0, 52, 64
1, 595165, Note_on_c, 0, 69, 67
1, 595169, Note_on_c, 0, 45, 63
1, 595172, Note_on_c, 0, 73, 69
1, 595190, Note_off_c, 0, 69, 70
1, 595198, Note_off_c, 0, 45, 66
1, 595205, Note_off_c, 0, 73, 56
1, 595247, Note_on_c, 0, 69, 69
1, 595256, Poly_aftertouch_c, 0, 73, 0
1, 595290, Note_off_c, 0, 66, 54
1, 595290, Note_off_c, 0, 69, 46
1, 595303, Note_on_c, 0, 64, 78
1, 595311, Note_on_c, 0, 52, 74
1, 595335, Note_off_c, 0, 52, 65
1, 595458, Note_on_c, 0, 63, 86
1, 595459, Note_on_c, 0, 57, 70
1, 595482, Note_off_c, 0, 57, 66
1, 595487, Note_off_c, 0, 64, 64
1, 595596, Note_on_c, 0, 61, 81
1, 595602, Note_on_c, 0, 69, 73
1, 595603, Note_on_c, 0, 73, 76
1, 595616, Note_off_c, 0, 61, 68
1, 595617, Note_off_c, 0, 63, 64
1, 595625, Note_off_c, 0, 69, 68
1, 595630, Note_off_c, 0, 73, 60
1, 595661, Note_on_c, 0, 63, 81
1, 595690, Poly_aftertouch_c, 0, 73, 0
1, 595747, Note_off_c, 0, 63, 61
1, 595755, Note_on_c, 0, 57, 70
1, 595756, Note_on_c, 0, 64, 73
1, 595779, Note_off_c, 0, 57, 67
1, 595917, Note_on_c, 0, 52, 59
1, 595919, Note_off_c, 0, 64, 60
1, 595926, Note_on_c, 0, 74, 81
1, 595948, Note_off_c, 0, 52, 64
1, 596065, Note_on_c, 0, 68, 60
1, 596070, Note_on_c, 0, 45, 64
1, 596072, Note_on_c, 0, 65, 59
1, 596085, Note_off_c, 0, 68, 62
1, 596093, Note_off_c, 0, 65, 64
1, 596097, Note_off_c, 0, 45, 65
1, 596144, Note_on_c, 0, 68, 72
1, 596171, Note_off_c, 0, 68, 59
1, 596213, Note_on_c, 0, 53, 74
1, 596218, Note_on_c, 0, 73, 85
1, 596237, Note_off_c, 0, 53, 69
1, 596272, Note_off_c, 0, 74, 55
1, 596356, Note_on_c, 0, 56, 83
1, 596367, Note_off_c, 0, 73, 65
1, 596373, Note_on_c, 0, 71, 67
1, 596377, Note_off_c, 0, 56, 72
1, 596519, Note_on_c, 0, 62, 63
1, 596520, Note_on_c, 0, 59, 71
1, 596529, Note_on_c, 0, 65, 50
1, 596549, Note_off_c, 0, 62, 62
1, 596553, Note_off_c, 0, 65, 59
1, 596555, Note_off_c, 0, 59, 58
1, 596597, Note_on_c, 0, 65, 58
1, 596672, Note_off_c, 0, 65, 61
1, 596672, Note_off_c, 0, 71, 63
1, 596683, Note_on_c, 0, 56, 63
1, 596689, Note_on_c, 0, 68, 59
1, 596704, Note_off_c, 0, 56, 63
1, 596821, Note_off_c, 0, 68, 63
1, 596830, Note_on_c, 0, 74, 74
1, 596831, Note_on_c, 0, 53, 66
1, 596859, Note_off_c, 0, 53, 68
1, 596973, Note_on_c, 0, 65, 56
1, 596975, Note_on_c, 0, 45, 56
1, 596980, Note_on_c, 0, 68, 42
1, 596997, Note_off_c, 0, 65, 64
1, 597000, Note_off_c, 0, 45, 60
1, 597008, Note_off_c, 0, 68, 54
1, 597053, Note_on_c, 0, 68, 66
1, 597098, Note_off_c, 0, 68, 55
1, 597116, Note_on_c, 0, 53, 83
1, 597122, Note_on_c, 0, 73, 78
1, 597138, Note_off_c, 0, 53, 69
1, 597194, Note_off_c, 0, 74, 53
1, 597257, Note_off_c, 0, 73, 65
1, 597262, Note_on_c, 0, 56, 90
1, 597267, Note_on_c, 0, 71, 70
1, 597286, Note_off_c, 0, 56, 68
1, 597410, Note_on_c, 0, 62, 74
1, 597412, Note_on_c, 0, 65, 69
1, 597414, Note_on_c, 0, 59, 75
1, 597433, Note_off_c, 0, 65, 66
1, 597434, Note_off_c, 0, 62, 67
1, 597448, Note_off_c, 0, 59, 59
1, 597485, Note_on_c, 0, 65, 80
1, 597566, Note_off_c, 0, 65, 63
1, 597568, Note_on_c, 0, 68, 79
1, 597573, Note_on_c, 0, 56, 70
1, 597586, Note_off_c, 0, 71, 57
1, 597607, Note_off_c, 0, 56, 67
1, 597693, Note_off_c, 0, 68, 62
1, 597715, Note_on_c, 0, 53, 61
1, 597720, Note_on_c, 0, 61, 74
1, 597739, Note_off_c, 0, 53, 62
1, 597862, Note_on_c, 0, 73, 73
1, 597867, Note_on_c, 0, 69, 60
1, 597867, Note_on_c, 0, 45, 65
1, 597877, Note_off_c, 0, 61, 63
1, 597886, Note_off_c, 0, 69, 64
1, 597906, Note_off_c, 0, 73, 0
1, 597924, Note_off_c, 0, 45, 57
1, 597936, Note_on_c, 0, 69, 76
1, 597943, Poly_aftertouch_c, 0, 73, 127
1, 598011, Note_on_c, 0, 64, 79
1, 598011, Note_off_c, 0, 69, 62
1, 598020, Poly_aftertouch_c, 0, 73, 0
1, 598027, Note_on_c, 0, 52, 67
1, 598053, Note_off_c, 0, 52, 65
1, 598165, Note_on_c, 0, 57, 63
1, 598171, Note_on_c, 0, 66, 75
1, 598200, Note_off_c, 0, 57, 62
1, 598204, Note_off_c, 0, 64, 59
1, 598306, Note_on_c, 0, 61, 72
1, 598308, Note_on_c, 0, 73, 76
1, 598317, Note_on_c, 0, 69, 54
1, 598328, Control_c, 0, 64, 56
1, 598336, Note_off_c, 0, 61, 65
1, 598338, Note_off_c, 0, 69, 61
1, 598343, Control_c, 0, 64, 65
1, 598358, Control_c, 0, 64, 69
1, 598372, Control_c, 0, 64, 73
1, 598387, Control_c, 0, 64, 75
1, 598389, Note_on_c, 0, 69, 66
1, 598402, Control_c, 0, 64, 76
1, 598417, Note_off_c, 0, 66, 53
1, 598417, Control_c, 0, 64, 78
1, 598432, Control_c, 0, 64, 78
1, 598460, Note_on_c, 0, 64, 78
1, 598463, Note_on_c, 0, 57, 67
1, 598469, Note_off_c, 0, 69, 61
1, 598490, Note_off_c, 0, 73, 31
1, 598491, Note_off_c, 0, 57, 66
1, 598511, Note_off_c, 0, 64, 65
1, 598579, Control_c, 0, 64, 79
1, 598602, Note_on_c, 0, 61, 84
1, 598618, Note_on_c, 0, 52, 65
1, 598653, Note_off_c, 0, 52, 64
1, 598705, Control_c, 0, 64, 78
1, 598720, Control_c, 0, 64, 76
1, 598735, Control_c, 0, 64, 70
1, 598750, Control_c, 0, 64, 51
1, 598761, Note_on_c, 0, 45, 70
1, 598765, Control_c, 0, 64, 0
1, 598767, Note_on_c, 0, 73, 62
1, 598773, Note_on_c, 0, 76, 60
1, 598779, Note_on_c, 0, 75, 32
1, 598785, Note_off_c, 0, 73, 65
1, 598794, Note_off_c, 0, 76, 60
1, 598806, Note_off_c, 0, 45, 59
1, 598815, Note_off_c, 0, 75, 47
1, 598834, Note_on_c, 0, 76, 67
1, 598842, Note_on_c, 0, 73, 84
1, 598854, Note_off_c, 0, 61, 61
1, 598905, Note_on_c, 0, 69, 90
1, 598912, Note_on_c, 0, 52, 72
1, 598916, Note_off_c, 0, 73, 61
1, 598935, Note_off_c, 0, 76, 61
1, 598949, Note_off_c, 0, 52, 64
1, 599050, Note_on_c, 0, 71, 93
1, 599055, Note_on_c, 0, 57, 71
1, 599095, Note_off_c, 0, 69, 59
1, 599108, Note_off_c, 0, 57, 59
1, 599193, Note_on_c, 0, 76, 82
1, 599194, Note_on_c, 0, 61, 71
1, 599194, Note_on_c, 0, 73, 79
1, 599223, Note_off_c, 0, 71, 62
1, 599226, Note_off_c, 0, 61, 61
1, 599240, Control_c, 0, 64, 62
1, 599255, Control_c, 0, 64, 70
1, 599269, Control_c, 0, 64, 76
1, 599284, Control_c, 0, 64, 82
1, 599299, Control_c, 0, 64, 87
1, 599314, Control_c, 0, 64, 89
1, 599328, Control_c, 0, 64, 89
1, 599337, Note_on_c, 0, 69, 84
1, 599345, Note_on_c, 0, 57, 63
1, 599373, Control_c, 0, 64, 90
1, 599378, Note_off_c, 0, 69, 66
1, 599381, Note_off_c, 0, 57, 60
1, 599388, Control_c, 0, 64, 91
1, 599410, Control_c, 0, 64, 93
1, 599413, Note_off_c, 0, 73, 60
1, 599417, Note_off_c, 0, 76, 60
1, 599425, Control_c, 0, 64, 96
1, 599440, Control_c, 0, 64, 97
1, 599484, Control_c, 0, 64, 92
1, 599485, Note_on_c, 0, 52, 66
1, 599488, Note_on_c, 0, 74, 87
1, 599498, Control_c, 0, 64, 79
1, 599512, Note_off_c, 0, 52, 65
1, 599513, Control_c, 0, 64, 63
1, 599527, Control_c, 0, 64, 0
1, 599636, Note_on_c, 0, 45, 72
1, 599638, Note_on_c, 0, 81, 86
1, 599658, Note_off_c, 0, 81, 66
1, 599673, Note_off_c, 0, 45, 62
1, 599772, Note_on_c, 0, 73, 86
1, 599788, Note_on_c, 0, 52, 69
1, 599790, Note_off_c, 0, 74, 65
1, 599813, Note_off_c, 0, 52, 65
1, 599892, Note_off_c, 0, 73, 63
1, 599929, Note_on_c, 0, 74, 82
1, 599930, Note_on_c, 0, 57, 63
1, 599963, Note_off_c, 0, 57, 61
1, 600085, Note_on_c, 0, 64, 69
1, 600086, Note_on_c, 0, 61, 58
1, 600091, Note_on_c, 0, 69, 49
1, 600109, Note_off_c, 0, 64, 69
1, 600115, Note_off_c, 0, 61, 64
1, 600116, Note_off_c, 0, 69, 58
1, 600162, Note_on_c, 0, 69, 66
1, 600186, Note_off_c, 0, 69, 69
1, 600239, Note_on_c, 0, 57, 50
1, 600253, Note_on_c, 0, 73, 76
1, 600266, Note_off_c, 0, 57, 58
1, 600272, Note_off_c, 0, 74, 63
1, 600298, Note_off_c, 0, 73, 55
1, 600397, Note_on_c, 0, 62, 71
1, 600400, Note_on_c, 0, 52, 60
1, 600428, Note_off_c, 0, 52, 64
1, 600541, Note_on_c, 0, 69, 71
1, 600546, Note_on_c, 0, 45, 68
1, 600565, Note_off_c, 0, 69, 69
1, 600577, Note_off_c, 0, 45, 65
1, 600605, Note_on_c, 0, 69, 77
1, 600698, Note_on_c, 0, 61, 77
1, 600698, Note_off_c, 0, 69, 61
1, 600731, Note_on_c, 0, 57, 14
1, 600751, Note_off_c, 0, 62, 34
1, 600777, Note_off_c, 0, 57, 39
1, 600825, Note_off_c, 0, 61, 62
1, 600853, Note_on_c, 0, 62, 75
1, 601018, Note_on_c, 0, 57, 69
1, 601040, Note_on_c, 0, 52, 64
1, 601051, Note_off_c, 0, 57, 64
1, 601078, Note_off_c, 0, 52, 57
1, 601125, Note_on_c, 0, 57, 66
1, 601184, Note_off_c, 0, 57, 61
1, 601195, Note_on_c, 0, 61, 75
1, 601214, Note_off_c, 0, 62, 62
1, 601225, Note_off_c, 0, 61, 65
1, 601350, Note_on_c, 0, 50, 73
1, 601352, Note_on_c, 0, 62, 85
1, 601353, Note_on_c, 0, 38, 72
1, 601375, Note_off_c, 0, 50, 68
1, 601378, Note_off_c, 0, 38, 65
1, 601427, Control_c, 0, 67, 122
1, 601442, Control_c, 0, 67, 116
1, 601457, Control_c, 0, 67, 111
1, 601471, Control_c, 0, 67, 108
1, 601486, Control_c, 0, 67, 106
1, 601501, Control_c, 0, 67, 105
1, 601516, Control_c, 0, 67, 105
1, 601522, Note_on_c, 0, 49, 84
1, 601522, Note_off_c, 0, 62, 48
1, 601524, Note_on_c, 0, 61, 85
1, 601525, Note_on_c, 0, 37, 83
1, 601545, Control_c, 0, 67, 104
1, 601546, Note_off_c, 0, 49, 68
1, 601548, Note_off_c, 0, 61, 67
1, 601552, Note_off_c, 0, 37, 69
1, 601575, Control_c, 0, 67, 104
1, 601589, Poly_aftertouch_c, 0, 61, 0
1, 601590, Control_c, 0, 67, 102
1, 601592, Note_on_c, 0, 61, 60
1, 601605, Control_c, 0, 67, 100
1, 601615, Note_on_c, 0, 60, 67
1, 601620, Control_c, 0, 67, 96
1, 601626, Note_off_c, 0, 61, 49
1, 601642, Control_c, 0, 67, 90
1, 601655, Note_off_c, 0, 60, 64
1, 601657, Control_c, 0, 67, 84
1, 601667, Note_on_c, 0, 62, 74
1, 601671, Control_c, 0, 67, 78
1, 601683, Note_on_c, 0, 50, 81
1, 601685, Note_on_c, 0, 38, 75
1, 601686, Control_c, 0, 67, 73
1, 601701, Control_c, 0, 67, 69
1, 601715, Control_c, 0, 67, 67
1, 601727, Note_off_c, 0, 50, 60
1, 601730, Control_c, 0, 67, 65
1, 601745, Control_c, 0, 67, 63
1, 601760, Control_c, 0, 67, 61
1, 601775, Control_c, 0, 67, 58
1, 601790, Control_c, 0, 67, 55
1, 601805, Control_c, 0, 67, 53
1, 601820, Control_c, 0, 67, 50
1, 601835, Control_c, 0, 67, 47
1, 601849, Control_c, 0, 67, 44
1, 601864, Control_c, 0, 67, 41
1, 601867, Note_off_c, 0, 38, 62
1, 601868, Note_on_c, 0, 51, 78
1, 601870, Note_on_c, 0, 39, 76
1, 601874, Note_on_c, 0, 63, 79
1, 601879, Control_c, 0, 67, 39
1, 601887, Note_off_c, 0, 62, 60
1, 601894, Control_c, 0, 67, 36
1, 601899, Note_off_c, 0, 51, 68
1, 601906, Note_off_c, 0, 39, 62
1, 601909, Control_c, 0, 67, 34
1, 601923, Control_c, 0, 67, 32
1, 601938, Control_c, 0, 67, 29
1, 601953, Control_c, 0, 67, 26
1, 601968, Control_c, 0, 67, 23
1, 601983, Control_c, 0, 67, 17
1, 601997, Control_c, 0, 67, 12
1, 602012, Control_c, 0, 67, 0
1, 602058, Note_on_c, 0, 52, 77
1, 602060, Note_on_c, 0, 40, 76
1, 602060, Note_on_c, 0, 64, 77
1, 602064, Note_off_c, 0, 63, 63
1, 602084, Note_off_c, 0, 52, 65
1, 602088, Note_off_c, 0, 40, 66
1, 602269, Note_on_c, 0, 41, 74
1, 602270, Note_on_c, 0, 65, 75
1, 602273, Note_on_c, 0, 53, 68
1, 602291, Note_off_c, 0, 64, 61
1, 602294, Note_off_c, 0, 41, 63
1, 602294, Note_off_c, 0, 53, 64
1, 602446, Note_off_c, 0, 65, 63
1, 602469, Note_on_c, 0, 66, 103
1, 602479, Control_c, 0, 64, 47
1, 602484, Note_on_c, 0, 54, 84
1, 602492, Note_on_c, 0, 42, 72
1, 602494, Control_c, 0, 64, 83
1, 602498, Note_off_c, 0, 66, 71
1, 602507, Note_off_c, 0, 54, 71
1, 602509, Control_c, 0, 64, 127
1, 602517, Note_off_c, 0, 42, 64
1, 602703, Note_on_c, 0, 54, 95
1, 602732, Control_c, 0, 64, 75
1, 602735, Note_off_c, 0, 54, 71
1, 602746, Control_c, 0, 64, 0
1, 602761, Control_c, 0, 67, 11
1, 602776, Control_c, 0, 67, 16
1, 602791, Control_c, 0, 67, 21
1, 602806, Control_c, 0, 67, 26
1, 602820, Control_c, 0, 67, 30
1, 602835, Control_c, 0, 67, 33
1, 602850, Control_c, 0, 67, 36
1, 602864, Control_c, 0, 67, 38
1, 602879, Control_c, 0, 67, 41
1, 602894, Control_c, 0, 67, 44
1, 602909, Control_c, 0, 67, 47
1, 602917, Note_on_c, 0, 56, 78
1, 602924, Control_c, 0, 67, 50
1, 602938, Control_c, 0, 67, 52
1, 602953, Control_c, 0, 67, 55
1, 602961, Note_off_c, 0, 56, 61
1, 602968, Control_c, 0, 67, 57
1, 602973, Note_on_c, 0, 57, 76
1, 602983, Control_c, 0, 67, 59
1, 602998, Control_c, 0, 67, 61
1, 603014, Control_c, 0, 67, 62
1, 603155, Control_c, 0, 64, 60
1, 603169, Control_c, 0, 64, 70
1, 603169, Control_c, 0, 67, 61
1, 603178, Note_on_c, 0, 90, 79
1, 603179, Note_on_c, 0, 78, 81
1, 603181, Note_on_c, 0, 81, 67
1, 603183, Note_on_c, 0, 85, 72
1, 603184, Control_c, 0, 64, 82
1, 603184, Control_c, 0, 67, 60
1, 603197, Note_off_c, 0, 90, 73
1, 603199, Note_off_c, 0, 78, 70
1, 603199, Note_off_c, 0, 81, 67
1, 603199, Control_c, 0, 64, 104
1, 603199, Control_c, 0, 67, 59
1, 603205, Note_off_c, 0, 85, 71
1, 603213, Note_off_c, 0, 57, 57
1, 603214, Control_c, 0, 64, 127
1, 603214, Control_c, 0, 67, 57
1, 603229, Control_c, 0, 67, 56
1, 603243, Control_c, 0, 67, 55
1, 603258, Control_c, 0, 67, 55
1, 603273, Control_c, 0, 67, 54
1, 603313, Note_on_c, 0, 59, 78
1, 603347, Control_c, 0, 67, 55
1, 603361, Control_c, 0, 64, 106
1, 603361, Control_c, 0, 67, 56
1, 603364, Note_on_c, 0, 61, 75
1, 603364, Note_off_c, 0, 59, 63
1, 603372, Note_on_c, 0, 78, 89
1, 603373, Note_on_c, 0, 66, 84
1, 603376, Control_c, 0, 64, 71
1, 603376, Control_c, 0, 67, 58
1, 603377, Note_on_c, 0, 69, 76
1, 603381, Note_on_c, 0, 73, 72
1, 603391, Control_c, 0, 64, 0
1, 603391, Control_c, 0, 67, 59
1, 603400, Note_off_c, 0, 61, 60
1, 603406, Control_c, 0, 67, 60
1, 603435, Control_c, 0, 67, 59
1, 603450, Control_c, 0, 67, 58
1, 603465, Control_c, 0, 67, 58
1, 603480, Control_c, 0, 67, 57
1, 603495, Control_c, 0, 67, 56
1, 603510, Control_c, 0, 67, 56
1, 603512, Note_on_c, 0, 57, 78
1, 603555, Control_c, 0, 67, 56
1, 603560, Note_off_c, 0, 57, 64
1, 603561, Note_on_c, 0, 54, 82
1, 603569, Control_c, 0, 67, 57
1, 603584, Control_c, 0, 67, 57
1, 603587, Note_off_c, 0, 54, 70
1, 603599, Control_c, 0, 67, 58
1, 603643, Control_c, 0, 67, 57
1, 603650, Note_off_c, 0, 78, 63
1, 603658, Control_c, 0, 67, 56
1, 603662, Note_off_c, 0, 69, 62
1, 603665, Note_off_c, 0, 73, 62
1, 603673, Control_c, 0, 67, 55
1, 603684, Note_on_c, 0, 50, 78
1, 603687, Control_c, 0, 67, 54
1, 603690, Note_off_c, 0, 66, 62
1, 603702, Control_c, 0, 67, 54
1, 603717, Control_c, 0, 67, 53
1, 603722, Note_off_c, 0, 50, 64
1, 603730, Note_on_c, 0, 49, 88
1, 603755, Note_off_c, 0, 49, 70
1, 603761, Control_c, 0, 67, 54
1, 603822, Control_c, 0, 67, 53
1, 603837, Control_c, 0, 67, 53
1, 603852, Control_c, 0, 67, 52
1, 603866, Control_c, 0, 67, 52
1, 603873, Note_on_c, 0, 47, 71
1, 603912, Note_on_c, 0, 45, 77
1, 603912, Note_on_c, 0, 61, 70
1, 603912, Note_off_c, 0, 47, 68
1, 603914, Note_on_c, 0, 73, 78
1, 603919, Note_on_c, 0, 64, 60
1, 603933, Note_off_c, 0, 61, 66
1, 603934, Note_off_c, 0, 45, 67
1, 603935, Note_off_c, 0, 73, 70
1, 603939, Note_off_c, 0, 64, 66
1, 603948, Control_c, 0, 67, 52
1, 603992, Control_c, 0, 67, 52
1, 604007, Control_c, 0, 67, 51
1, 604037, Control_c, 0, 67, 51
1, 604106, Note_on_c, 0, 71, 68
1, 604109, Note_on_c, 0, 44, 66
1, 604116, Note_on_c, 0, 59, 53
1, 604121, Note_on_c, 0, 64, 40
1, 604122, Note_off_c, 0, 71, 68
1, 604136, Note_off_c, 0, 44, 65
1, 604142, Note_off_c, 0, 59, 57
1, 604152, Note_off_c, 0, 64, 53
1, 604170, Control_c, 0, 67, 51
1, 604199, Control_c, 0, 67, 51
1, 604214, Control_c, 0, 67, 50
1, 604243, Control_c, 0, 67, 50
1, 604258, Control_c, 0, 67, 49
1, 604286, Note_on_c, 0, 42, 69
1, 604286, Note_on_c, 0, 69, 75
1, 604289, Note_on_c, 0, 57, 72
1, 604309, Note_off_c, 0, 69, 71
1, 604313, Note_off_c, 0, 42, 66
1, 604316, Note_off_c, 0, 57, 67
1, 604377, Control_c, 0, 67, 50
1, 604422, Control_c, 0, 67, 50
1, 604451, Control_c, 0, 67, 51
1, 604470, Note_on_c, 0, 56, 69
1, 604471, Note_on_c, 0, 68, 79
1, 604477, Note_on_c, 0, 64, 49
1, 604482, Note_on_c, 0, 40, 60
1, 604492, Note_off_c, 0, 68, 70
1, 604496, Control_c, 0, 67, 50
1, 604497, Note_off_c, 0, 56, 66
1, 604503, Note_off_c, 0, 64, 58
1, 604514, Note_off_c, 0, 40, 64
1, 604599, Control_c, 0, 67, 50
1, 604615, Control_c, 0, 67, 49
1, 604630, Control_c, 0, 67, 49
1, 604652, Control_c, 0, 67, 48
1, 604666, Control_c, 0, 64, 60
1, 604666, Control_c, 0, 67, 45
1, 604678, Note_on_c, 0, 52, 79
1, 604681, Note_on_c, 0, 76, 104
1, 604681, Control_c, 0, 64, 103
1, 604681, Control_c, 0, 67, 39
1, 604689, Note_on_c, 0, 68, 80
1, 604689, Note_on_c, 0, 74, 78
1, 604695, Note_off_c, 0, 76, 77
1, 604696, Note_on_c, 0, 64, 62
1, 604697, Note_off_c, 0, 64, 127
1, 604697, Control_c, 0, 64, 127
1, 604697, Control_c, 0, 67, 30
1, 604704, Note_off_c, 0, 52, 66
1, 604706, Note_off_c, 0, 68, 42
1, 604706, Note_off_c, 0, 74, 72
1, 604712, Control_c, 0, 67, 20
1, 604727, Control_c, 0, 67, 9
1, 604742, Control_c, 0, 67, 0
1, 604846, Control_c, 0, 67, 8
1, 604861, Control_c, 0, 67, 13
1, 604874, Note_on_c, 0, 71, 109
1, 604875, Control_c, 0, 67, 19
1, 604890, Control_c, 0, 64, 123
1, 604890, Control_c, 0, 67, 28
1, 604898, Note_off_c, 0, 71, 75
1, 604905, Control_c, 0, 64, 73
1, 604905, Control_c, 0, 67, 37
1, 604920, Control_c, 0, 64, 0
1, 604920, Control_c, 0, 67, 46
1, 604935, Control_c, 0, 67, 51
1, 604949, Control_c, 0, 67, 52
1, 604964, Control_c, 0, 67, 53
1, 605023, Control_c, 0, 67, 52
1, 605067, Control_c, 0, 67, 53
1, 605079, Note_on_c, 0, 59, 78
1, 605082, Control_c, 0, 67, 54
1, 605097, Control_c, 0, 67, 54
1, 605103, Note_off_c, 0, 59, 66
1, 605112, Control_c, 0, 67, 56
1, 605127, Control_c, 0, 67, 58
1, 605141, Control_c, 0, 67, 59
1, 605156, Control_c, 0, 67, 60
1, 605171, Control_c, 0, 67, 60
1, 605186, Control_c, 0, 67, 61
1, 605201, Control_c, 0, 67, 62
1, 605216, Control_c, 0, 67, 63
1, 605231, Control_c, 0, 67, 63
1, 605233, Note_on_c, 0, 61, 76
1, 605260, Control_c, 0, 67, 62
1, 605275, Note_on_c, 0, 62, 82
1, 605275, Control_c, 0, 67, 60
1, 605283, Note_off_c, 0, 61, 64
1, 605290, Control_c, 0, 67, 58
1, 605305, Control_c, 0, 67, 55
1, 605320, Control_c, 0, 67, 53
1, 605334, Control_c, 0, 64, 59
1, 605334, Control_c, 0, 67, 50
1, 605349, Control_c, 0, 64, 67
1, 605349, Control_c, 0, 67, 45
1, 605364, Control_c, 0, 64, 74
1, 605364, Control_c, 0, 67, 37
1, 605386, Control_c, 0, 64, 82
1, 605386, Control_c, 0, 67, 27
1, 605401, Control_c, 0, 64, 93
1, 605401, Control_c, 0, 67, 17
1, 605417, Control_c, 0, 64, 106
1, 605417, Control_c, 0, 67, 9
1, 605432, Control_c, 0, 64, 121
1, 605432, Control_c, 0, 67, 0
1, 605437, Note_on_c, 0, 95, 96
1, 605440, Note_on_c, 0, 90, 89
1, 605441, Note_on_c, 0, 86, 82
1, 605442, Note_on_c, 0, 83, 86
1, 605446, Control_c, 0, 64, 127
1, 605454, Note_off_c, 0, 95, 72
1, 605457, Note_off_c, 0, 90, 73
1, 605459, Note_off_c, 0, 83, 73
1, 605459, Note_off_c, 0, 86, 74
1, 605553, Note_off_c, 0, 62, 62
1, 605560, Note_on_c, 0, 64, 79
1, 605594, Control_c, 0, 67, 8
1, 605609, Control_c, 0, 67, 9
1, 605621, Note_off_c, 0, 64, 66
1, 605623, Note_on_c, 0, 66, 81
1, 605624, Control_c, 0, 67, 10
1, 605627, Note_on_c, 0, 83, 104
1, 605630, Note_on_c, 0, 71, 96
1, 605631, Note_on_c, 0, 78, 94
1, 605632, Note_on_c, 0, 74, 98
1, 605639, Control_c, 0, 64, 92
1, 605639, Control_c, 0, 67, 12
1, 605642, Note_off_c, 0, 66, 72
1, 605654, Control_c, 0, 64, 66
1, 605654, Control_c, 0, 67, 14
1, 605669, Control_c, 0, 64, 0
1, 605669, Control_c, 0, 67, 15
1, 605713, Control_c, 0, 67, 15
1, 605728, Control_c, 0, 67, 14
1, 605743, Control_c, 0, 67, 13
1, 605758, Control_c, 0, 67, 12
1, 605760, Note_on_c, 0, 62, 86
1, 605772, Control_c, 0, 67, 10
1, 605787, Control_c, 0, 67, 9
1, 605802, Control_c, 0, 67, 9
1, 605805, Note_on_c, 0, 59, 81
1, 605806, Note_off_c, 0, 62, 64
1, 605840, Note_off_c, 0, 59, 64
1, 605890, Control_c, 0, 67, 9
1, 605892, Note_off_c, 0, 83, 60
1, 605900, Note_off_c, 0, 74, 64
1, 605918, Note_off_c, 0, 78, 62
1, 605934, Note_on_c, 0, 55, 82
1, 605943, Note_off_c, 0, 71, 63
1, 605964, Control_c, 0, 67, 9
1, 605976, Note_off_c, 0, 55, 64
1, 605979, Note_on_c, 0, 54, 88
1, 606009, Note_off_c, 0, 54, 68
1, 606039, Control_c, 0, 67, 9
1, 606122, Note_on_c, 0, 52, 77
1, 606160, Note_on_c, 0, 69, 76
1, 606161, Note_off_c, 0, 52, 65
1, 606161, Note_on_c, 0, 78, 81
1, 606162, Note_on_c, 0, 66, 76
1, 606170, Note_on_c, 0, 50, 76
1, 606180, Note_off_c, 0, 69, 71
1, 606184, Note_off_c, 0, 66, 69
1, 606187, Note_off_c, 0, 78, 63
1, 606194, Control_c, 0, 67, 9
1, 606195, Note_off_c, 0, 50, 69
1, 606352, Note_on_c, 0, 76, 79
1, 606358, Note_on_c, 0, 69, 60
1, 606362, Note_on_c, 0, 64, 58
1, 606363, Note_on_c, 0, 49, 67
1, 606372, Note_off_c, 0, 76, 70
1, 606379, Note_off_c, 0, 69, 62
1, 606384, Note_off_c, 0, 64, 62
1, 606391, Note_off_c, 0, 49, 65
1, 606446, Control_c, 0, 67, 8
1, 606461, Control_c, 0, 67, 8
1, 606491, Control_c, 0, 67, 0
1, 606522, Note_on_c, 0, 74, 80
1, 606527, Note_on_c, 0, 62, 69
1, 606531, Note_on_c, 0, 47, 66
1, 606537, Note_on_c, 0, 69, 46
1, 606543, Note_off_c, 0, 74, 72
1, 606556, Note_off_c, 0, 62, 64
1, 606558, Note_off_c, 0, 47, 67
1, 606566, Note_off_c, 0, 69, 58
1, 606710, Note_on_c, 0, 73, 85
1, 606715, Note_on_c, 0, 69, 39
1, 606717, Note_on_c, 0, 61, 60
1, 606721, Note_on_c, 0, 45, 68
1, 606739, Note_off_c, 0, 61, 60
1, 606745, Note_off_c, 0, 73, 64
1, 606747, Note_off_c, 0, 69, 54
1, 606749, Note_off_c, 0, 45, 64
1, 606861, Control_c, 0, 64, 54
1, 606876, Control_c, 0, 64, 66
1, 606898, Control_c, 0, 64, 75
1, 606912, Control_c, 0, 64, 88
1, 606914, Note_on_c, 0, 81, 101
1, 606921, Note_on_c, 0, 73, 84
1, 606925, Note_on_c, 0, 69, 74
1, 606926, Note_off_c, 0, 81, 79
1, 606927, Note_on_c, 0, 57, 59
1, 606927, Control_c, 0, 64, 127
1, 606927, Control_c, 0, 67, 8
1, 606935, Note_off_c, 0, 73, 72
1, 606942, Control_c, 0, 67, 9
1, 606943, Note_off_c, 0, 69, 47
1, 606949, Note_off_c, 0, 57, 63
1, 606957, Control_c, 0, 67, 10
1, 606972, Control_c, 0, 67, 11
1, 606987, Control_c, 0, 67, 12
1, 607001, Control_c, 0, 67, 13
1, 607017, Control_c, 0, 67, 15
1, 607032, Control_c, 0, 67, 17
1, 607047, Control_c, 0, 67, 22
1, 607061, Control_c, 0, 67, 28
1, 607076, Control_c, 0, 67, 37
1, 607091, Control_c, 0, 67, 43
1, 607106, Control_c, 0, 67, 48
1, 607121, Control_c, 0, 67, 50
1, 607129, Note_on_c, 0, 45, 71
1, 607136, Note_on_c, 0, 57, 79
1, 607136, Control_c, 0, 67, 51
1, 607150, Control_c, 0, 64, 96
1, 607150, Control_c, 0, 67, 52
1, 607165, Control_c, 0, 64, 75
1, 607180, Control_c, 0, 64, 50
1, 607195, Control_c, 0, 64, 0
1, 607337, Note_on_c, 0, 59, 67
1, 607341, Note_on_c, 0, 47, 59
1, 607343, Control_c, 0, 64, 42
1, 607358, Control_c, 0, 64, 57
1, 607373, Control_c, 0, 64, 62
1, 607388, Control_c, 0, 64, 64
1, 607388, Control_c, 0, 67, 51
1, 607403, Control_c, 0, 64, 65
1, 607403, Control_c, 0, 67, 51
1, 607417, Control_c, 0, 67, 50
1, 607432, Control_c, 0, 64, 66
1, 607432, Control_c, 0, 67, 50
1, 607440, Note_off_c, 0, 47, 60
1, 607447, Control_c, 0, 64, 65
1, 607447, Control_c, 0, 67, 49
1, 607461, Control_c, 0, 67, 48
1, 607472, Note_off_c, 0, 59, 57
1, 607476, Control_c, 0, 64, 64
1, 607476, Control_c, 0, 67, 48
1, 607491, Control_c, 0, 64, 61
1, 607491, Control_c, 0, 67, 47
1, 607506, Control_c, 0, 64, 52
1, 607506, Control_c, 0, 67, 46
1, 607517, Note_on_c, 0, 63, 73
1, 607521, Control_c, 0, 64, 28
1, 607521, Control_c, 0, 67, 46
1, 607522, Note_on_c, 0, 51, 68
1, 607535, Control_c, 0, 64, 0
1, 607550, Control_c, 0, 67, 45
1, 607580, Control_c, 0, 67, 45
1, 607595, Control_c, 0, 67, 44
1, 607610, Control_c, 0, 67, 44
1, 607612, Note_off_c, 0, 63, 58
1, 607624, Control_c, 0, 67, 42
1, 607642, Note_off_c, 0, 51, 60
1, 607647, Control_c, 0, 67, 41
1, 607661, Control_c, 0, 67, 41
1, 607676, Control_c, 0, 67, 39
1, 607691, Control_c, 0, 67, 38
1, 607705, Note_on_c, 0, 54, 72
1, 607706, Control_c, 0, 67, 37
1, 607716, Note_on_c, 0, 66, 71
1, 607721, Control_c, 0, 67, 35
1, 607735, Control_c, 0, 67, 33
1, 607750, Control_c, 0, 67, 32
1, 607772, Note_off_c, 0, 54, 55
1, 607811, Control_c, 0, 67, 33
1, 607812, Note_off_c, 0, 66, 57
1, 607826, Control_c, 0, 67, 35
1, 607840, Control_c, 0, 67, 37
1, 607855, Control_c, 0, 67, 38
1, 607870, Control_c, 0, 67, 41
1, 607884, Control_c, 0, 64, 24
1, 607884, Control_c, 0, 67, 42
1, 607899, Control_c, 0, 64, 65
1, 607899, Control_c, 0, 67, 42
1, 607914, Control_c, 0, 64, 76
1, 607920, Note_on_c, 0, 44, 83
1, 607921, Note_on_c, 0, 66, 67
1, 607928, Note_on_c, 0, 54, 76
1, 607929, Note_on_c, 0, 63, 70
1, 607929, Control_c, 0, 64, 92
1, 607929, Control_c, 0, 67, 41
1, 607932, Note_off_c, 0, 45, 62
1, 607934, Note_on_c, 0, 59, 65
1, 607939, Note_off_c, 0, 57, 59
1, 607944, Control_c, 0, 64, 127
1, 607944, Control_c, 0, 67, 40
1, 607958, Control_c, 0, 67, 39
1, 607972, Note_off_c, 0, 44, 65
1, 607973, Note_off_c, 0, 54, 62
1, 607973, Control_c, 0, 67, 37
1, 607976, Note_off_c, 0, 59, 57
1, 607988, Control_c, 0, 67, 36
1, 608003, Control_c, 0, 67, 34
1, 608016, Note_off_c, 0, 63, 60
1, 608018, Control_c, 0, 67, 32
1, 608033, Control_c, 0, 67, 29
1, 608035, Note_off_c, 0, 66, 63
1, 608048, Control_c, 0, 67, 24
1, 608063, Control_c, 0, 67, 17
1, 608077, Control_c, 0, 67, 11
1, 608092, Control_c, 0, 67, 0
1, 608107, Control_c, 0, 64, 97
1, 608109, Note_on_c, 0, 52, 84
1, 608122, Control_c, 0, 64, 75
1, 608128, Note_on_c, 0, 64, 73
1, 608137, Control_c, 0, 64, 52
1, 608151, Control_c, 0, 64, 0
1, 608254, Note_on_c, 0, 68, 82
1, 608256, Note_on_c, 0, 56, 74
1, 608263, Note_off_c, 0, 64, 63
1, 608270, Control_c, 0, 64, 57
1, 608274, Note_off_c, 0, 52, 62
1, 608284, Control_c, 0, 64, 74
1, 608299, Control_c, 0, 64, 91
1, 608307, Note_on_c, 0, 71, 88
1, 608313, Note_on_c, 0, 59, 81
1, 608314, Control_c, 0, 64, 127
1, 608320, Note_off_c, 0, 68, 63
1, 608324, Note_off_c, 0, 56, 65
1, 608346, Note_off_c, 0, 59, 60
1, 608367, Note_off_c, 0, 71, 64
1, 608410, Control_c, 0, 64, 112
1, 608425, Control_c, 0, 64, 73
1, 608440, Control_c, 0, 64, 0
1, 608492, Note_on_c, 0, 71, 95
1, 608494, Note_on_c, 0, 49, 97
1, 608495, Note_on_c, 0, 37, 95
1, 608499, Note_on_c, 0, 64, 82
1, 608499, Note_on_c, 0, 68, 85
1, 608514, Control_c, 0, 64, 76
1, 608515, Note_off_c, 0, 49, 70
1, 608517, Note_off_c, 0, 37, 70
1, 608522, Note_off_c, 0, 64, 70
1, 608529, Control_c, 0, 64, 127
1, 608537, Note_off_c, 0, 68, 58
1, 608554, Note_off_c, 0, 71, 63
1, 608649, Control_c, 0, 64, 78
1, 608663, Control_c, 0, 64, 0
1, 608694, Note_on_c, 0, 69, 84
1, 608698, Note_on_c, 0, 57, 97
1, 608826, Control_c, 0, 64, 70
1, 608834, Note_on_c, 0, 73, 88
1, 608838, Note_on_c, 0, 61, 82
1, 608841, Control_c, 0, 64, 95
1, 608856, Control_c, 0, 64, 127
1, 608856, Note_off_c, 0, 69, 61
1, 608863, Note_off_c, 0, 57, 60
1, 608888, Note_on_c, 0, 64, 87
1, 608891, Note_on_c, 0, 76, 89
1, 608906, Note_off_c, 0, 61, 63
1, 608907, Note_off_c, 0, 73, 63
1, 608924, Note_off_c, 0, 64, 64
1, 608951, Note_off_c, 0, 76, 61
1, 608960, Control_c, 0, 64, 77
1, 608974, Control_c, 0, 64, 0
1, 609062, Note_on_c, 0, 47, 99
1, 609063, Control_c, 0, 64, 60
1, 609065, Note_on_c, 0, 76, 96
1, 609067, Note_on_c, 0, 35, 84
1, 609070, Note_on_c, 0, 71, 89
1, 609078, Control_c, 0, 64, 89
1, 609087, Note_on_c, 0, 69, 59
1, 609088, Note_off_c, 0, 47, 67
1, 609088, Note_on_c, 0, 67, 60
1, 609091, Note_off_c, 0, 35, 67
1, 609093, Control_c, 0, 64, 127
1, 609102, Note_off_c, 0, 71, 61
1, 609102, Note_off_c, 0, 76, 65
1, 609106, Note_off_c, 0, 69, 62
1, 609109, Note_off_c, 0, 67, 61
1, 609269, Note_on_c, 0, 51, 94
1, 609273, Note_on_c, 0, 75, 85
1, 609286, Note_on_c, 0, 63, 67
1, 609314, Note_off_c, 0, 63, 66
1, 609367, Control_c, 0, 64, 87
1, 609381, Control_c, 0, 64, 49
1, 609386, Note_on_c, 0, 54, 79
1, 609396, Control_c, 0, 64, 0
1, 609415, Note_on_c, 0, 77, 61
1, 609419, Note_off_c, 0, 51, 64
1, 609442, Control_c, 0, 64, 67
1, 609445, Note_off_c, 0, 75, 59
1, 609449, Note_on_c, 0, 57, 83
1, 609455, Note_on_c, 0, 69, 82
1, 609455, Note_on_c, 0, 81, 89
1, 609456, Control_c, 0, 64, 81
1, 609465, Note_off_c, 0, 54, 64
1, 609471, Note_off_c, 0, 77, 64
1, 609471, Control_c, 0, 64, 110
1, 609475, Note_off_c, 0, 57, 67
1, 609486, Control_c, 0, 64, 127
1, 609495, Note_off_c, 0, 69, 61
1, 609506, Note_off_c, 0, 81, 59
1, 609530, Control_c, 0, 64, 102
1, 609545, Control_c, 0, 64, 76
1, 609560, Control_c, 0, 64, 0
1, 609637, Note_on_c, 0, 80, 89
1, 609640, Note_on_c, 0, 52, 85
1, 609643, Note_on_c, 0, 40, 82
1, 609644, Note_on_c, 0, 76, 72
1, 609646, Note_on_c, 0, 68, 81
1, 609663, Note_off_c, 0, 52, 69
1, 609666, Note_off_c, 0, 68, 70
1, 609668, Note_off_c, 0, 40, 66
1, 609669, Note_off_c, 0, 76, 67
1, 609687, Note_off_c, 0, 80, 62
1, 609825, Note_on_c, 0, 81, 106
1, 609827, Note_on_c, 0, 54, 84
1, 609827, Note_on_c, 0, 42, 87
1, 609830, Note_on_c, 0, 69, 87
1, 609838, Note_on_c, 0, 76, 73
1, 609846, Note_off_c, 0, 69, 74
1, 609847, Note_off_c, 0, 54, 71
1, 609853, Note_off_c, 0, 42, 68
1, 609854, Note_off_c, 0, 76, 67
1, 609857, Note_off_c, 0, 81, 65
1, 610015, Note_on_c, 0, 56, 94
1, 610017, Note_on_c, 0, 44, 91
1, 610018, Note_on_c, 0, 83, 104
1, 610020, Note_on_c, 0, 71, 99
1, 610033, Note_off_c, 0, 56, 74
1, 610041, Note_off_c, 0, 44, 70
1, 610042, Note_off_c, 0, 71, 66
1, 610047, Note_off_c, 0, 83, 67
1, 610057, Note_on_c, 0, 76, 30
1, 610097, Note_off_c, 0, 76, 32
1, 610224, Note_on_c, 0, 85, 100
1, 610225, Note_on_c, 0, 57, 102
1, 610227, Note_on_c, 0, 76, 90
1, 610228, Note_on_c, 0, 45, 97
1, 610231, Note_on_c, 0, 73, 95
1, 610242, Note_off_c, 0, 57, 71
1, 610250, Note_off_c, 0, 45, 72
1, 610250, Control_c, 0, 64, 60
1, 610265, Control_c, 0, 64, 83
1, 610279, Control_c, 0, 64, 96
1, 610294, Control_c, 0, 64, 113
1, 610309, Control_c, 0, 64, 127
1, 610362, Note_off_c, 0, 73, 59
1, 610383, Note_off_c, 0, 85, 62
1, 610447, Note_on_c, 0, 57, 98
1, 610472, Control_c, 0, 64, 92
1, 610486, Control_c, 0, 64, 64
1, 610501, Control_c, 0, 64, 0
1, 610575, Note_on_c, 0, 61, 88
1, 610589, Note_off_c, 0, 57, 59
1, 610620, Control_c, 0, 64, 71
1, 610623, Note_on_c, 0, 81, 89
1, 610636, Note_off_c, 0, 61, 67
1, 610638, Note_on_c, 0, 66, 78
1, 610638, Note_on_c, 0, 69, 79
1, 610642, Control_c, 0, 64, 89
1, 610650, Note_off_c, 0, 76, 61
1, 610657, Control_c, 0, 64, 127
1, 610661, Note_off_c, 0, 66, 69
1, 610731, Control_c, 0, 64, 116
1, 610746, Control_c, 0, 64, 81
1, 610760, Control_c, 0, 64, 38
1, 610775, Control_c, 0, 64, 0
1, 610784, Note_on_c, 0, 73, 83
1, 610810, Note_off_c, 0, 69, 59
1, 610820, Control_c, 0, 64, 43
1, 610823, Note_on_c, 0, 59, 87
1, 610826, Note_on_c, 0, 47, 86
1, 610832, Note_on_c, 0, 78, 80
1, 610835, Control_c, 0, 64, 71
1, 610843, Note_off_c, 0, 59, 70
1, 610849, Note_off_c, 0, 47, 68
1, 610849, Note_off_c, 0, 81, 52
1, 610850, Control_c, 0, 64, 89
1, 610865, Control_c, 0, 64, 127
1, 610866, Note_off_c, 0, 73, 61
1, 610999, Control_c, 0, 64, 99
1, 611010, Note_on_c, 0, 80, 85
1, 611014, Note_on_c, 0, 59, 89
1, 611014, Control_c, 0, 64, 71
1, 611015, Note_off_c, 0, 78, 62
1, 611020, Note_on_c, 0, 69, 77
1, 611028, Control_c, 0, 64, 0
1, 611058, Control_c, 0, 64, 40
1, 611073, Control_c, 0, 64, 65
1, 611088, Control_c, 0, 64, 74
1, 611102, Control_c, 0, 64, 83
1, 611117, Control_c, 0, 64, 87
1, 611132, Control_c, 0, 64, 81
1, 611136, Note_off_c, 0, 59, 60
1, 611138, Note_on_c, 0, 63, 76
1, 611147, Control_c, 0, 64, 70
1, 611162, Control_c, 0, 64, 32
1, 611176, Control_c, 0, 64, 0
1, 611184, Note_off_c, 0, 69, 62
1, 611189, Note_on_c, 0, 71, 74
1, 611197, Note_on_c, 0, 68, 80
1, 611202, Note_off_c, 0, 63, 64
1, 611217, Note_off_c, 0, 68, 70
1, 611230, Note_off_c, 0, 80, 61
1, 611328, Note_on_c, 0, 75, 79
1, 611330, Note_off_c, 0, 71, 64
1, 611386, Note_on_c, 0, 76, 91
1, 611393, Note_off_c, 0, 75, 59
1, 611403, Note_on_c, 0, 68, 71
1, 611411, Note_on_c, 0, 64, 63
1, 611480, Control_c, 0, 64, 61
1, 611495, Control_c, 0, 64, 70
1, 611509, Control_c, 0, 64, 78
1, 611511, Note_off_c, 0, 64, 0
1, 611511, Note_on_c, 0, 64, 9
1, 611524, Control_c, 0, 64, 93
1, 611539, Control_c, 0, 64, 127
1, 611555, Note_off_c, 0, 76, 61
1, 611555, Note_off_c, 0, 64, 58
1, 611595, Note_on_c, 0, 52, 74
1, 611595, Note_off_c, 0, 68, 59
1, 611625, Note_off_c, 0, 52, 66
1, 611776, Control_c, 0, 64, 106
1, 611776, Control_c, 0, 67, 8
1, 611791, Control_c, 0, 64, 78
1, 611791, Control_c, 0, 67, 9
1, 611800, Note_on_c, 0, 64, 62
1, 611807, Control_c, 0, 64, 45
1, 611807, Control_c, 0, 67, 10
1, 611816, Note_on_c, 0, 52, 64
1, 611822, Control_c, 0, 64, 0
1, 611822, Control_c, 0, 67, 11
1, 611836, Control_c, 0, 67, 12
1, 611851, Control_c, 0, 67, 12
1, 611866, Control_c, 0, 67, 13
1, 611925, Control_c, 0, 67, 12
1, 611940, Control_c, 0, 67, 12
1, 611999, Control_c, 0, 67, 11
1, 612000, Note_on_c, 0, 65, 61
1, 612002, Note_on_c, 0, 53, 68
1, 612034, Note_off_c, 0, 65, 61
1, 612058, Control_c, 0, 67, 11
1, 612085, Note_off_c, 0, 53, 57
1, 612206, Note_on_c, 0, 69, 63
1, 612210, Note_on_c, 0, 57, 62
1, 612233, Note_off_c, 0, 69, 67
1, 612237, Note_off_c, 0, 57, 65
1, 612273, Control_c, 0, 67, 11
1, 612332, Control_c, 0, 67, 11
1, 612394, Note_on_c, 0, 60, 66
1, 612394, Note_on_c, 0, 72, 58
1, 612421, Control_c, 0, 67, 11
1, 612424, Note_off_c, 0, 60, 66
1, 612424, Note_off_c, 0, 72, 66
1, 612510, Control_c, 0, 67, 10
1, 612525, Control_c, 0, 67, 9
1, 612540, Control_c, 0, 67, 8
1, 612555, Control_c, 0, 67, 0
1, 612584, Control_c, 0, 64, 50
1, 612587, Note_on_c, 0, 51, 71
1, 612588, Note_off_c, 0, 52, 62
1, 612591, Note_on_c, 0, 72, 71
1, 612591, Note_off_c, 0, 64, 63
1, 612591, Note_on_c, 0, 60, 71
1, 612599, Note_on_c, 0, 65, 55
1, 612600, Control_c, 0, 64, 72
1, 612601, Note_on_c, 0, 69, 58
1, 612615, Control_c, 0, 64, 87
1, 612617, Note_off_c, 0, 51, 66
1, 612620, Note_off_c, 0, 60, 66
1, 612622, Note_off_c, 0, 65, 60
1, 612626, Note_off_c, 0, 69, 64
1, 612629, Control_c, 0, 64, 127
1, 612663, Note_off_c, 0, 72, 59
1, 612789, Note_on_c, 0, 69, 71
1, 612790, Note_on_c, 0, 57, 75
1, 612822, Control_c, 0, 64, 97
1, 612837, Control_c, 0, 64, 77
1, 612852, Control_c, 0, 64, 63
1, 612874, Control_c, 0, 64, 0
1, 612926, Note_off_c, 0, 69, 60
1, 612927, Note_on_c, 0, 72, 79
1, 612931, Note_on_c, 0, 60, 79
1, 612931, Note_off_c, 0, 57, 61
1, 612979, Note_on_c, 0, 77, 75
1, 612981, Note_off_c, 0, 72, 65
1, 612984, Note_off_c, 0, 60, 64
1, 612984, Note_on_c, 0, 65, 75
1, 613007, Note_off_c, 0, 65, 71
1, 613039, Note_off_c, 0, 77, 54
1, 613152, Note_on_c, 0, 72, 50
1, 613157, Note_on_c, 0, 77, 79
1, 613159, Note_on_c, 0, 65, 70
1, 613160, Note_on_c, 0, 50, 82
1, 613163, Note_on_c, 0, 69, 53
1, 613171, Control_c, 0, 64, 59
1, 613178, Note_off_c, 0, 65, 67
1, 613180, Note_off_c, 0, 72, 64
1, 613184, Note_off_c, 0, 50, 68
1, 613186, Control_c, 0, 64, 84
1, 613188, Note_off_c, 0, 69, 60
1, 613200, Control_c, 0, 64, 127
1, 613212, Note_off_c, 0, 77, 64
1, 613348, Note_on_c, 0, 62, 81
1, 613348, Note_on_c, 0, 74, 81
1, 613454, Note_off_c, 0, 74, 59
1, 613464, Note_on_c, 0, 77, 82
1, 613474, Note_on_c, 0, 65, 80
1, 613495, Note_off_c, 0, 62, 59
1, 613524, Note_on_c, 0, 82, 93
1, 613524, Note_on_c, 0, 70, 75
1, 613525, Note_off_c, 0, 65, 67
1, 613527, Control_c, 0, 64, 84
1, 613529, Note_off_c, 0, 77, 63
1, 613540, Note_off_c, 0, 70, 67
1, 613542, Control_c, 0, 64, 26
1, 613557, Control_c, 0, 64, 0
1, 613571, Note_off_c, 0, 82, 66
1, 613697, Control_c, 0, 64, 70
1, 613712, Control_c, 0, 64, 127
1, 613725, Note_on_c, 0, 66, 90
1, 613725, Note_on_c, 0, 82, 94
1, 613728, Note_on_c, 0, 51, 88
1, 613741, Control_c, 0, 67, 8
1, 613742, Note_off_c, 0, 66, 72
1, 613748, Note_off_c, 0, 51, 68
1, 613756, Control_c, 0, 67, 0
1, 613848, Poly_aftertouch_c, 0, 51, 127
1, 613881, Note_off_c, 0, 82, 63
1, 613892, Poly_aftertouch_c, 0, 51, 0
1, 613910, Note_on_c, 0, 53, 87
1, 613911, Note_on_c, 0, 65, 76
1, 613926, Note_on_c, 0, 81, 64
1, 613933, Note_off_c, 0, 53, 71
1, 613934, Note_off_c, 0, 65, 71
1, 613949, Control_c, 0, 64, 84
1, 613964, Control_c, 0, 64, 61
1, 613978, Control_c, 0, 64, 0
1, 614055, Note_off_c, 0, 81, 62
1, 614057, Note_on_c, 0, 84, 80
1, 614093, Note_on_c, 0, 89, 99
1, 614099, Note_on_c, 0, 41, 90
1, 614102, Note_off_c, 0, 84, 67
1, 614119, Note_off_c, 0, 89, 64
1, 614131, Note_on_c, 0, 43, 36
1, 614132, Note_off_c, 0, 43, 127
1, 614245, Control_c, 0, 67, 8
1, 614260, Control_c, 0, 67, 10
1, 614275, Control_c, 0, 67, 11
1, 614298, Note_on_c, 0, 42, 79
1, 614320, Control_c, 0, 67, 10
1, 614402, Control_c, 0, 67, 11
1, 614418, Note_off_c, 0, 42, 57
1, 614431, Control_c, 0, 67, 10
1, 614446, Control_c, 0, 67, 10
1, 614460, Control_c, 0, 67, 9
1, 614475, Control_c, 0, 67, 9
1, 614490, Control_c, 0, 67, 8
1, 614494, Note_on_c, 0, 46, 77
1, 614505, Control_c, 0, 67, 8
1, 614519, Control_c, 0, 67, 0
1, 614552, Note_off_c, 0, 46, 61
1, 614677, Note_on_c, 0, 49, 68
1, 614680, Note_on_c, 0, 53, 66
1, 614710, Note_off_c, 0, 49, 63
1, 614862, Note_on_c, 0, 54, 61
1, 614866, Note_on_c, 0, 40, 70
1, 614884, Note_off_c, 0, 41, 61
1, 614886, Note_on_c, 0, 49, 43
1, 614891, Note_off_c, 0, 53, 57
1, 614934, Note_off_c, 0, 49, 56
1, 615049, Note_off_c, 0, 54, 62
1, 615052, Note_on_c, 0, 46, 75
1, 615056, Note_on_c, 0, 58, 75
1, 615186, Note_on_c, 0, 49, 77
1, 615254, Control_c, 0, 64, 47
1, 615255, Note_on_c, 0, 54, 78
1, 615261, Note_on_c, 0, 61, 90
1, 615264, Note_off_c, 0, 58, 63
1, 615269, Control_c, 0, 64, 68
1, 615283, Control_c, 0, 64, 80
1, 615298, Control_c, 0, 64, 102
1, 615304, Note_off_c, 0, 54, 64
1, 615313, Control_c, 0, 64, 127
1, 615348, Note_off_c, 0, 49, 62
1, 615360, Note_off_c, 0, 46, 61
1, 615366, Note_off_c, 0, 40, 36
1, 615375, Note_off_c, 0, 61, 62
1, 615417, Control_c, 0, 64, 98
1, 615431, Control_c, 0, 64, 67
1, 615445, Note_on_c, 0, 61, 92
1, 615446, Control_c, 0, 64, 0
1, 615457, Note_on_c, 0, 52, 79
1, 615457, Note_on_c, 0, 54, 80
1, 615458, Note_on_c, 0, 38, 81
1, 615502, Note_off_c, 0, 52, 54
1, 615506, Control_c, 0, 64, 57
1, 615516, Note_off_c, 0, 54, 63
1, 615521, Control_c, 0, 64, 69
1, 615536, Control_c, 0, 64, 82
1, 615550, Control_c, 0, 64, 104
1, 615560, Note_off_c, 0, 61, 63
1, 615565, Control_c, 0, 64, 127
1, 615609, Control_c, 0, 64, 119
1, 615624, Control_c, 0, 64, 80
1, 615639, Control_c, 0, 64, 0
1, 615647, Note_on_c, 0, 59, 86
1, 615649, Note_on_c, 0, 50, 86
1, 615771, Note_on_c, 0, 62, 87
1, 615772, Control_c, 0, 64, 23
1, 615786, Note_off_c, 0, 59, 59
1, 615787, Control_c, 0, 64, 67
1, 615803, Control_c, 0, 64, 84
1, 615817, Control_c, 0, 64, 127
1, 615820, Note_on_c, 0, 66, 100
1, 615841, Note_off_c, 0, 62, 62
1, 615850, Note_off_c, 0, 38, 62
1, 615884, Note_off_c, 0, 50, 59
1, 615893, Note_off_c, 0, 66, 64
1, 615974, Control_c, 0, 64, 109
1, 615989, Control_c, 0, 64, 66
1, 616004, Control_c, 0, 64, 0
1, 616010, Note_on_c, 0, 50, 94
1, 616013, Note_on_c, 0, 66, 97
1, 616014, Note_on_c, 0, 37, 87
1, 616019, Note_on_c, 0, 59, 98
1, 616048, Control_c, 0, 64, 55
1, 616063, Control_c, 0, 64, 79
1, 616078, Control_c, 0, 64, 108
1, 616084, Note_off_c, 0, 66, 64
1, 616093, Control_c, 0, 64, 127
1, 616104, Note_off_c, 0, 50, 62
1, 616138, Poly_aftertouch_c, 0, 39, 0
1, 616167, Control_c, 0, 64, 103
1, 616181, Control_c, 0, 64, 76
1, 616196, Control_c, 0, 64, 0
1, 616221, Note_on_c, 0, 49, 78
1, 616223, Note_on_c, 0, 65, 82
1, 616243, Note_off_c, 0, 37, 65
1, 616248, Note_off_c, 0, 49, 68
1, 616353, Note_on_c, 0, 68, 66
1, 616385, Note_off_c, 0, 65, 58
1, 616388, Control_c, 0, 67, 10
1, 616399, Note_off_c, 0, 59, 36
1, 616403, Control_c, 0, 67, 16
1, 616414, Note_on_c, 0, 71, 80
1, 616418, Note_off_c, 0, 68, 62
1, 616418, Control_c, 0, 67, 24
1, 616430, Note_on_c, 0, 37, 67
1, 616433, Control_c, 0, 67, 33
1, 616434, Note_off_c, 0, 71, 70
1, 616448, Control_c, 0, 67, 40
1, 616463, Control_c, 0, 67, 47
1, 616478, Control_c, 0, 67, 51
1, 616492, Control_c, 0, 67, 54
1, 616507, Control_c, 0, 67, 56
1, 616522, Control_c, 0, 67, 56
1, 616551, Control_c, 0, 67, 57
1, 616624, Note_on_c, 0, 38, 70
1, 616678, Control_c, 0, 67, 57
1, 616711, Note_off_c, 0, 38, 58
1, 616767, Control_c, 0, 67, 56
1, 616782, Control_c, 0, 67, 56
1, 616797, Control_c, 0, 67, 55
1, 616812, Control_c, 0, 67, 54
1, 616826, Control_c, 0, 67, 54
1, 616827, Note_on_c, 0, 42, 64
1, 616856, Control_c, 0, 67, 53
1, 616868, Note_off_c, 0, 42, 59
1, 616871, Control_c, 0, 67, 52
1, 616886, Control_c, 0, 67, 52
1, 616916, Control_c, 0, 67, 51
1, 616930, Control_c, 0, 67, 51
1, 616945, Control_c, 0, 67, 50
1, 617008, Note_on_c, 0, 49, 69
1, 617011, Note_on_c, 0, 45, 62
1, 617046, Note_off_c, 0, 45, 65
1, 617048, Control_c, 0, 67, 51
1, 617063, Control_c, 0, 67, 51
1, 617178, Note_off_c, 0, 49, 63
1, 617196, Control_c, 0, 67, 52
1, 617199, Note_off_c, 0, 37, 63
1, 617203, Note_on_c, 0, 50, 62
1, 617204, Note_on_c, 0, 36, 65
1, 617213, Note_on_c, 0, 45, 50
1, 617244, Note_off_c, 0, 45, 59
1, 617256, Control_c, 0, 67, 51
1, 617300, Control_c, 0, 67, 51
1, 617315, Control_c, 0, 67, 50
1, 617379, Note_off_c, 0, 50, 54
1, 617403, Note_on_c, 0, 42, 67
1, 617404, Note_on_c, 0, 54, 63
1, 617442, Control_c, 0, 67, 51
1, 617486, Control_c, 0, 67, 50
1, 617516, Control_c, 0, 67, 50
1, 617531, Control_c, 0, 67, 49
1, 617542, Note_on_c, 0, 45, 62
1, 617560, Control_c, 0, 67, 49
1, 617574, Note_off_c, 0, 54, 34
1, 617589, Note_on_c, 0, 57, 67
1, 617590, Control_c, 0, 64, 17
1, 617601, Note_on_c, 0, 50, 65
1, 617603, Note_off_c, 0, 36, 37
1, 617605, Control_c, 0, 64, 52
1, 617605, Control_c, 0, 67, 48
1, 617619, Control_c, 0, 64, 60
1, 617634, Control_c, 0, 64, 63
1, 617647, Note_off_c, 0, 50, 59
1, 617649, Control_c, 0, 64, 63
1, 617664, Control_c, 0, 67, 49
1, 617676, Note_off_c, 0, 57, 59
1, 617679, Control_c, 0, 64, 61
1, 617679, Control_c, 0, 67, 49
1, 617694, Control_c, 0, 64, 49
1, 617709, Control_c, 0, 64, 0
1, 617724, Control_c, 0, 67, 48
1, 617739, Control_c, 0, 67, 48
1, 617753, Control_c, 0, 67, 46
1, 617758, Note_off_c, 0, 42, 55
1, 617768, Control_c, 0, 67, 43
1, 617781, Note_off_c, 0, 45, 61
1, 617783, Control_c, 0, 64, 38
1, 617783, Control_c, 0, 67, 38
1, 617787, Note_on_c, 0, 57, 63
1, 617787, Note_on_c, 0, 62, 62
1, 617789, Note_on_c, 0, 50, 67
1, 617793, Note_on_c, 0, 36, 64
1, 617797, Control_c, 0, 64, 64
1, 617797, Control_c, 0, 67, 32
1, 617812, Control_c, 0, 64, 72
1, 617812, Control_c, 0, 67, 27
1, 617813, Note_off_c, 0, 57, 65
1, 617824, Note_off_c, 0, 50, 64
1, 617825, Note_off_c, 0, 62, 59
1, 617827, Control_c, 0, 64, 80
1, 617827, Control_c, 0, 67, 25
1, 617831, Note_off_c, 0, 36, 61
1, 617842, Control_c, 0, 64, 91
1, 617842, Control_c, 0, 67, 24
1, 617857, Control_c, 0, 64, 104
1, 617871, Control_c, 0, 64, 110
1, 617886, Control_c, 0, 67, 25
1, 617916, Control_c, 0, 64, 109
1, 617916, Control_c, 0, 67, 25
1, 617931, Control_c, 0, 64, 97
1, 617945, Control_c, 0, 64, 80
1, 617945, Control_c, 0, 67, 26
1, 617960, Control_c, 0, 64, 55
1, 617973, Note_on_c, 0, 50, 64
1, 617975, Control_c, 0, 64, 0
1, 617980, Note_on_c, 0, 35, 62
1, 617989, Note_on_c, 0, 55, 68
1, 618019, Control_c, 0, 64, 62
1, 618034, Control_c, 0, 64, 70
1, 618049, Control_c, 0, 64, 81
1, 618064, Control_c, 0, 64, 97
1, 618064, Control_c, 0, 67, 25
1, 618078, Note_off_c, 0, 50, 63
1, 618078, Control_c, 0, 64, 127
1, 618093, Control_c, 0, 67, 25
1, 618105, Note_off_c, 0, 55, 61
1, 618122, Note_on_c, 0, 62, 70
1, 618145, Control_c, 0, 67, 24
1, 618171, Note_off_c, 0, 62, 62
1, 618181, Note_off_c, 0, 35, 60
1, 618184, Note_on_c, 0, 67, 60
1, 618206, Control_c, 0, 67, 24
1, 618209, Note_off_c, 0, 67, 63
1, 618260, Note_on_c, 0, 34, 70
1, 618290, Note_off_c, 0, 34, 63
1, 618323, Control_c, 0, 64, 90
1, 618338, Control_c, 0, 64, 64
1, 618350, Note_on_c, 0, 52, 92
1, 618353, Control_c, 0, 64, 0
1, 618365, Note_on_c, 0, 60, 73
1, 618367, Control_c, 0, 64, 56
1, 618367, Control_c, 0, 67, 23
1, 618382, Control_c, 0, 64, 68
1, 618382, Control_c, 0, 67, 23
1, 618397, Control_c, 0, 64, 77
1, 618397, Control_c, 0, 67, 21
1, 618411, Control_c, 0, 64, 93
1, 618411, Control_c, 0, 67, 20
1, 618426, Control_c, 0, 64, 127
1, 618426, Control_c, 0, 67, 19
1, 618441, Control_c, 0, 67, 18
1, 618456, Control_c, 0, 67, 16
1, 618471, Control_c, 0, 67, 15
1, 618486, Control_c, 0, 67, 13
1, 618487, Note_on_c, 0, 67, 68
1, 618498, Note_off_c, 0, 60, 60
1, 618500, Control_c, 0, 67, 12
1, 618507, Note_off_c, 0, 52, 60
1, 618515, Control_c, 0, 67, 11
1, 618530, Control_c, 0, 67, 11
1, 618545, Control_c, 0, 67, 10
1, 618546, Note_on_c, 0, 72, 80
1, 618546, Note_off_c, 0, 67, 64
1, 618559, Control_c, 0, 67, 9
1, 618574, Control_c, 0, 67, 9
1, 618604, Control_c, 0, 67, 8
1, 618605, Note_off_c, 0, 72, 63
1, 618633, Control_c, 0, 67, 8
1, 618639, Note_on_c, 0, 31, 67
1, 618648, Control_c, 0, 67, 0
1, 618658, Note_on_c, 0, 33, 57
1, 618669, Note_off_c, 0, 31, 59
1, 618678, Control_c, 0, 64, 101
1, 618690, Note_off_c, 0, 33, 57
1, 618693, Control_c, 0, 64, 76
1, 618707, Control_c, 0, 64, 68
1, 618718, Note_on_c, 0, 65, 77
1, 618722, Control_c, 0, 64, 76
1, 618724, Note_on_c, 0, 53, 97
1, 618737, Control_c, 0, 64, 89
1, 618752, Control_c, 0, 64, 127
1, 618809, Note_off_c, 0, 53, 67
1, 618867, Note_on_c, 0, 72, 77
1, 618919, Note_off_c, 0, 65, 58
1, 618937, Note_on_c, 0, 77, 84
1, 618979, Note_off_c, 0, 72, 58
1, 619003, Note_on_c, 0, 32, 90
1, 619028, Note_off_c, 0, 32, 69
1, 619042, Control_c, 0, 64, 102
1, 619057, Control_c, 0, 64, 71
1, 619072, Control_c, 0, 64, 0
1, 619096, Note_on_c, 0, 65, 85
1, 619101, Note_on_c, 0, 50, 98
1, 619102, Control_c, 0, 64, 65
1, 619116, Control_c, 0, 64, 76
1, 619127, Note_off_c, 0, 77, 50
1, 619131, Control_c, 0, 64, 95
1, 619146, Control_c, 0, 64, 127
1, 619223, Note_off_c, 0, 50, 62
1, 619249, Note_on_c, 0, 68, 78
1, 619288, Note_on_c, 0, 77, 82
1, 619298, Note_off_c, 0, 65, 62
1, 619301, Note_on_c, 0, 74, 72
1, 619366, Note_off_c, 0, 68, 59
1, 619389, Note_on_c, 0, 31, 75
1, 619398, Control_c, 0, 64, 86
1, 619404, Note_on_c, 0, 33, 58
1, 619413, Control_c, 0, 64, 64
1, 619414, Note_off_c, 0, 31, 63
1, 619428, Control_c, 0, 64, 0
1, 619435, Note_off_c, 0, 33, 54
1, 619442, Control_c, 0, 64, 60
1, 619446, Note_off_c, 0, 77, 57
1, 619457, Control_c, 0, 64, 73
1, 619472, Control_c, 0, 64, 95
1, 619477, Note_on_c, 0, 49, 99
1, 619479, Note_off_c, 0, 74, 64
1, 619487, Control_c, 0, 64, 127
1, 619490, Note_on_c, 0, 66, 92
1, 619643, Note_on_c, 0, 69, 86
1, 619685, Note_off_c, 0, 49, 64
1, 619688, Note_on_c, 0, 78, 85
1, 619692, Note_on_c, 0, 73, 89
1, 619694, Note_off_c, 0, 66, 60
1, 619878, Note_on_c, 0, 47, 100
1, 619881, Note_on_c, 0, 35, 90
1, 619884, Note_on_c, 0, 66, 94
1, 619895, Control_c, 0, 64, 117
1, 619910, Control_c, 0, 64, 73
1, 619917, Note_off_c, 0, 69, 59
1, 619925, Control_c, 0, 64, 0
1, 619973, Note_off_c, 0, 78, 56
1, 620013, Control_c, 0, 64, 52
1, 620028, Control_c, 0, 64, 66
1, 620038, Note_on_c, 0, 69, 85
1, 620043, Control_c, 0, 64, 74
1, 620056, Note_off_c, 0, 73, 59
1, 620058, Control_c, 0, 64, 91
1, 620073, Control_c, 0, 64, 127
1, 620090, Note_on_c, 0, 78, 85
1, 620097, Note_on_c, 0, 74, 84
1, 620108, Note_on_c, 0, 73, 34
1, 620109, Note_off_c, 0, 66, 59
1, 620159, Note_off_c, 0, 47, 62
1, 620165, Note_off_c, 0, 35, 62
1, 620297, Note_on_c, 0, 36, 102
1, 620297, Note_on_c, 0, 45, 103
1, 620310, Control_c, 0, 64, 106
1, 620314, Note_on_c, 0, 66, 91
1, 620315, Note_off_c, 0, 73, 36
1, 620325, Control_c, 0, 64, 70
1, 620332, Note_off_c, 0, 69, 59
1, 620339, Control_c, 0, 64, 0
1, 620410, Note_off_c, 0, 78, 56
1, 620463, Note_off_c, 0, 74, 24
1, 620465, Control_c, 0, 64, 23
1, 620478, Note_on_c, 0, 69, 79
1, 620479, Control_c, 0, 64, 61
1, 620494, Control_c, 0, 64, 70
1, 620509, Control_c, 0, 64, 82
1, 620523, Control_c, 0, 64, 127
1, 620525, Note_on_c, 0, 78, 87
1, 620527, Note_on_c, 0, 75, 88
1, 620536, Note_off_c, 0, 66, 62
1, 620565, Note_off_c, 0, 45, 61
1, 620575, Note_off_c, 0, 36, 61
1, 620715, Note_off_c, 0, 69, 45
1, 620758, Note_on_c, 0, 44, 103
1, 620759, Note_on_c, 0, 37, 96
1, 620768, Note_on_c, 0, 65, 80
1, 620770, Note_off_c, 0, 78, 55
1, 620798, Note_off_c, 0, 75, 54
1, 620806, Control_c, 0, 64, 102
1, 620821, Control_c, 0, 64, 68
1, 620836, Control_c, 0, 64, 0
1, 620922, Note_on_c, 0, 68, 85
1, 620954, Control_c, 0, 64, 65
1, 620969, Control_c, 0, 64, 80
1, 620984, Control_c, 0, 64, 124
1, 620985, Note_off_c, 0, 37, 63
1, 620988, Note_off_c, 0, 44, 66
1, 620991, Note_on_c, 0, 73, 89
1, 620997, Note_on_c, 0, 77, 89
1, 620999, Control_c, 0, 64, 127
1, 621008, Note_off_c, 0, 65, 61
1, 621014, Note_off_c, 0, 68, 63
1, 621040, Note_off_c, 0, 73, 64
1, 621058, Control_c, 0, 64, 89
1, 621059, Note_off_c, 0, 77, 63
1, 621073, Control_c, 0, 64, 55
1, 621087, Control_c, 0, 64, 0
1, 621228, Control_c, 0, 64, 76
1, 621235, Note_on_c, 0, 66, 110
1, 621243, Control_c, 0, 64, 104
1, 621258, Control_c, 0, 64, 127
1, 621259, Note_off_c, 0, 66, 62
1, 621407, Control_c, 0, 64, 96
1, 621422, Control_c, 0, 64, 57
1, 621436, Control_c, 0, 64, 0
1, 621504, Note_on_c, 0, 54, 104
1, 621525, Control_c, 0, 64, 69
1, 621540, Control_c, 0, 64, 89
1, 621555, Control_c, 0, 64, 127
1, 621557, Note_off_c, 0, 54, 63
1, 621715, Note_on_c, 0, 56, 97
1, 621769, Note_on_c, 0, 57, 100
1, 621777, Control_c, 0, 64, 89
1, 621792, Control_c, 0, 64, 63
1, 621802, Note_off_c, 0, 56, 67
1, 621807, Control_c, 0, 64, 0
1, 621948, Control_c, 0, 64, 60
1, 621957, Note_on_c, 0, 90, 97
1, 621960, Note_on_c, 0, 78, 93
1, 621960, Note_on_c, 0, 85, 94
1, 621961, Note_on_c, 0, 81, 85
1, 621963, Control_c, 0, 64, 79
1, 621977, Control_c, 0, 64, 127
1, 621980, Note_off_c, 0, 81, 69
1, 621983, Note_off_c, 0, 90, 66
1, 621992, Note_off_c, 0, 85, 64
1, 621999, Note_off_c, 0, 78, 64
1, 622002, Note_off_c, 0, 57, 59
1, 622101, Note_on_c, 0, 59, 84
1, 622146, Note_on_c, 0, 61, 88
1, 622156, Note_off_c, 0, 59, 63
1, 622163, Note_on_c, 0, 78, 101
1, 622166, Note_on_c, 0, 66, 91
1, 622166, Note_on_c, 0, 73, 91
1, 622168, Note_on_c, 0, 69, 85
1, 622184, Note_off_c, 0, 61, 66
1, 622185, Control_c, 0, 64, 81
1, 622200, Control_c, 0, 64, 0
1, 622291, Note_on_c, 0, 57, 87
1, 622332, Note_off_c, 0, 57, 65
1, 622338, Note_on_c, 0, 54, 81
1, 622380, Note_off_c, 0, 54, 67
1, 622454, Note_off_c, 0, 78, 63
1, 622462, Note_on_c, 0, 50, 86
1, 622469, Note_off_c, 0, 69, 60
1, 622471, Note_off_c, 0, 73, 61
1, 622487, Note_off_c, 0, 66, 63
1, 622514, Note_on_c, 0, 49, 93
1, 622514, Note_off_c, 0, 50, 65
1, 622552, Note_off_c, 0, 49, 66
1, 622658, Note_on_c, 0, 47, 73
1, 622699, Note_on_c, 0, 45, 79
1, 622700, Note_off_c, 0, 47, 65
1, 622705, Note_on_c, 0, 61, 67
1, 622706, Note_on_c, 0, 64, 68
1, 622706, Note_on_c, 0, 73, 79
1, 622723, Note_off_c, 0, 45, 67
1, 622725, Note_off_c, 0, 61, 65
1, 622729, Note_off_c, 0, 73, 70
1, 622731, Note_off_c, 0, 64, 69
1, 622890, Note_on_c, 0, 71, 76
1, 622896, Note_on_c, 0, 44, 69
1, 622899, Note_on_c, 0, 59, 63
1, 622899, Note_on_c, 0, 64, 63
1, 622910, Note_off_c, 0, 71, 72
1, 622918, Note_off_c, 0, 64, 65
1, 622919, Note_off_c, 0, 59, 62
1, 622922, Note_off_c, 0, 44, 66
1, 623075, Note_on_c, 0, 42, 71
1, 623078, Note_on_c, 0, 69, 74
1, 623080, Note_on_c, 0, 57, 69
1, 623100, Note_off_c, 0, 57, 65
1, 623101, Note_on_c, 0, 64, 38
1, 623101, Note_off_c, 0, 69, 70
1, 623108, Note_off_c, 0, 42, 64
1, 623136, Note_off_c, 0, 64, 33
1, 623257, Note_on_c, 0, 64, 63
1, 623261, Note_on_c, 0, 68, 83
1, 623262, Note_on_c, 0, 40, 71
1, 623262, Note_on_c, 0, 56, 70
1, 623284, Note_off_c, 0, 64, 65
1, 623286, Note_off_c, 0, 68, 65
1, 623289, Note_off_c, 0, 56, 66
1, 623303, Note_off_c, 0, 40, 64
1, 623462, Note_on_c, 0, 52, 76
1, 623465, Note_on_c, 0, 76, 106
1, 623471, Note_on_c, 0, 68, 92
1, 623472, Note_on_c, 0, 64, 83
1, 623476, Control_c, 0, 64, 79
1, 623486, Note_off_c, 0, 64, 72
1, 623486, Note_off_c, 0, 52, 66
1, 623486, Note_off_c, 0, 68, 73
1, 623489, Note_off_c, 0, 76, 65
1, 623490, Control_c, 0, 64, 127
1, 623653, Control_c, 0, 67, 16
1, 623666, Note_on_c, 0, 71, 110
1, 623668, Note_on_c, 0, 69, 100
1, 623668, Control_c, 0, 67, 27
1, 623683, Control_c, 0, 64, 109
1, 623683, Control_c, 0, 67, 35
1, 623686, Note_off_c, 0, 69, 70
1, 623688, Note_off_c, 0, 71, 70
1, 623697, Control_c, 0, 64, 68
1, 623697, Control_c, 0, 67, 37
1, 623712, Control_c, 0, 64, 0
1, 623817, Control_c, 0, 67, 38
1, 623847, Control_c, 0, 67, 38
1, 623865, Note_on_c, 0, 59, 81
1, 623876, Control_c, 0, 67, 40
1, 623891, Control_c, 0, 67, 41
1, 623897, Note_off_c, 0, 59, 64
1, 623906, Control_c, 0, 67, 43
1, 623921, Control_c, 0, 67, 45
1, 623936, Control_c, 0, 67, 46
1, 623950, Control_c, 0, 67, 46
1, 623995, Control_c, 0, 67, 46
1, 624010, Control_c, 0, 67, 45
1, 624012, Note_on_c, 0, 61, 77
1, 624024, Control_c, 0, 67, 44
1, 624039, Control_c, 0, 67, 43
1, 624054, Control_c, 0, 67, 42
1, 624058, Note_on_c, 0, 62, 83
1, 624069, Note_off_c, 0, 61, 63
1, 624069, Control_c, 0, 67, 40
1, 624084, Control_c, 0, 67, 38
1, 624099, Control_c, 0, 67, 36
1, 624121, Control_c, 0, 67, 33
1, 624136, Control_c, 0, 67, 30
1, 624151, Control_c, 0, 67, 27
1, 624165, Control_c, 0, 67, 23
1, 624180, Control_c, 0, 67, 18
1, 624195, Control_c, 0, 64, 39
1, 624195, Control_c, 0, 67, 10
1, 624209, Control_c, 0, 64, 63
1, 624209, Control_c, 0, 67, 0
1, 624224, Control_c, 0, 64, 69
1, 624238, Control_c, 0, 64, 78
1, 624239, Note_on_c, 0, 95, 98
1, 624244, Note_on_c, 0, 90, 94
1, 624246, Note_on_c, 0, 83, 89
1, 624246, Note_on_c, 0, 86, 84
1, 624253, Control_c, 0, 64, 92
1, 624261, Note_off_c, 0, 90, 72
1, 624263, Note_off_c, 0, 83, 73
1, 624264, Note_off_c, 0, 86, 74
1, 624264, Note_off_c, 0, 95, 65
1, 624268, Control_c, 0, 64, 127
1, 624368, Note_off_c, 0, 62, 62
1, 624378, Note_on_c, 0, 64, 81
1, 624417, Note_off_c, 0, 64, 69
1, 624422, Note_on_c, 0, 66, 90
1, 624438, Note_on_c, 0, 83, 100
1, 624440, Note_on_c, 0, 71, 97
1, 624442, Note_on_c, 0, 78, 95
1, 624443, Note_on_c, 0, 74, 93
1, 624462, Note_off_c, 0, 66, 67
1, 624520, Control_c, 0, 64, 109
1, 624535, Control_c, 0, 64, 75
1, 624550, Control_c, 0, 64, 0
1, 624577, Note_on_c, 0, 62, 76
1, 624581, Note_on_c, 0, 64, 80
1, 624606, Note_off_c, 0, 64, 66
1, 624627, Note_off_c, 0, 62, 64
1, 624631, Note_on_c, 0, 59, 81
1, 624668, Note_off_c, 0, 59, 64
1, 624735, Note_off_c, 0, 83, 61
1, 624756, Note_off_c, 0, 74, 64
1, 624759, Note_on_c, 0, 55, 84
1, 624763, Note_off_c, 0, 78, 64
1, 624791, Note_off_c, 0, 71, 60
1, 624805, Note_off_c, 0, 55, 62
1, 624807, Note_on_c, 0, 54, 91
1, 624843, Note_off_c, 0, 54, 68
1, 624970, Note_on_c, 0, 52, 52
1, 624982, Note_on_c, 0, 50, 83
1, 624987, Note_on_c, 0, 66, 76
1, 624988, Note_on_c, 0, 69, 71
1, 624991, Note_on_c, 0, 78, 80
1, 624997, Note_off_c, 0, 52, 60
1, 625007, Note_off_c, 0, 50, 73
1, 625009, Note_off_c, 0, 66, 69
1, 625010, Note_off_c, 0, 69, 70
1, 625011, Note_off_c, 0, 78, 71
1, 625176, Note_on_c, 0, 69, 73
1, 625179, Note_on_c, 0, 76, 74
1, 625185, Note_on_c, 0, 49, 71
1, 625188, Note_on_c, 0, 64, 58
1, 625197, Note_off_c, 0, 69, 70
1, 625197, Note_off_c, 0, 76, 67
1, 625209, Note_off_c, 0, 49, 66
1, 625210, Note_off_c, 0, 64, 62
1, 625363, Note_on_c, 0, 62, 73
1, 625363, Note_on_c, 0, 74, 79
1, 625370, Note_on_c, 0, 47, 60
1, 625377, Note_on_c, 0, 69, 54
1, 625385, Note_off_c, 0, 74, 72
1, 625389, Note_off_c, 0, 62, 67
1, 625395, Note_off_c, 0, 47, 61
1, 625400, Note_off_c, 0, 69, 61
1, 625552, Note_on_c, 0, 69, 51
1, 625552, Note_on_c, 0, 73, 86
1, 625558, Note_on_c, 0, 61, 60
1, 625566, Note_on_c, 0, 45, 64
1, 625577, Note_off_c, 0, 69, 59
1, 625581, Note_off_c, 0, 61, 59
1, 625584, Note_off_c, 0, 73, 65
1, 625604, Note_off_c, 0, 45, 65
1, 625677, Control_c, 0, 64, 21
1, 625692, Control_c, 0, 64, 58
1, 625707, Control_c, 0, 64, 66
1, 625722, Control_c, 0, 64, 72
1, 625736, Control_c, 0, 64, 80
1, 625751, Control_c, 0, 64, 93
1, 625765, Note_on_c, 0, 81, 99
1, 625766, Control_c, 0, 64, 103
1, 625775, Note_on_c, 0, 69, 75
1, 625776, Note_off_c, 0, 69, 127
1, 625776, Note_on_c, 0, 73, 74
1, 625776, Note_on_c, 0, 57, 60
1, 625777, Note_off_c, 0, 81, 79
1, 625781, Control_c, 0, 64, 115
1, 625792, Note_off_c, 0, 73, 70
1, 625796, Control_c, 0, 64, 127
1, 625805, Note_off_c, 0, 57, 64
1, 625871, Control_c, 0, 67, 12
1, 625885, Control_c, 0, 67, 19
1, 625900, Control_c, 0, 67, 26
1, 625915, Control_c, 0, 67, 32
1, 625929, Control_c, 0, 67, 37
1, 625944, Control_c, 0, 67, 39
1, 625959, Control_c, 0, 67, 40
1, 625981, Note_on_c, 0, 57, 75
1, 625984, Note_on_c, 0, 45, 64
1, 626003, Control_c, 0, 67, 40
1, 626033, Control_c, 0, 64, 104
1, 626048, Control_c, 0, 64, 84
1, 626063, Control_c, 0, 64, 70
1, 626077, Control_c, 0, 64, 45
1, 626077, Control_c, 0, 67, 41
1, 626092, Control_c, 0, 64, 0
1, 626092, Control_c, 0, 67, 41
1, 626107, Control_c, 0, 67, 42
1, 626122, Control_c, 0, 67, 43
1, 626136, Control_c, 0, 67, 45
1, 626151, Control_c, 0, 67, 47
1, 626166, Control_c, 0, 67, 48
1, 626189, Note_on_c, 0, 59, 69
1, 626192, Note_on_c, 0, 47, 55
1, 626197, Control_c, 0, 67, 48
1, 626212, Control_c, 0, 64, 49
1, 626226, Control_c, 0, 64, 66
1, 626241, Control_c, 0, 64, 72
1, 626256, Control_c, 0, 64, 78
1, 626256, Control_c, 0, 67, 48
1, 626271, Control_c, 0, 64, 82
1, 626271, Control_c, 0, 67, 47
1, 626286, Control_c, 0, 64, 83
1, 626286, Control_c, 0, 67, 46
1, 626288, Note_off_c, 0, 47, 59
1, 626300, Control_c, 0, 67, 45
1, 626302, Note_off_c, 0, 59, 56
1, 626315, Control_c, 0, 67, 44
1, 626330, Control_c, 0, 64, 82
1, 626330, Control_c, 0, 67, 42
1, 626345, Control_c, 0, 64, 80
1, 626345, Control_c, 0, 67, 41
1, 626367, Control_c, 0, 64, 77
1, 626367, Control_c, 0, 67, 40
1, 626382, Control_c, 0, 64, 73
1, 626382, Control_c, 0, 67, 38
1, 626393, Note_on_c, 0, 63, 70
1, 626395, Note_on_c, 0, 51, 73
1, 626397, Control_c, 0, 64, 69
1, 626397, Control_c, 0, 67, 36
1, 626412, Control_c, 0, 64, 70
1, 626412, Control_c, 0, 67, 33
1, 626427, Control_c, 0, 64, 73
1, 626427, Control_c, 0, 67, 29
1, 626441, Control_c, 0, 64, 76
1, 626441, Control_c, 0, 67, 25
1, 626456, Control_c, 0, 64, 78
1, 626456, Control_c, 0, 67, 24
1, 626458, Note_off_c, 0, 63, 50
1, 626471, Control_c, 0, 64, 80
1, 626471, Control_c, 0, 67, 23
1, 626486, Control_c, 0, 64, 81
1, 626486, Control_c, 0, 67, 21
1, 626491, Note_off_c, 0, 51, 55
1, 626501, Control_c, 0, 64, 83
1, 626501, Control_c, 0, 67, 19
1, 626515, Control_c, 0, 64, 84
1, 626515, Control_c, 0, 67, 16
1, 626530, Control_c, 0, 64, 86
1, 626530, Control_c, 0, 67, 13
1, 626545, Control_c, 0, 64, 88
1, 626545, Control_c, 0, 67, 11
1, 626559, Control_c, 0, 64, 89
1, 626559, Control_c, 0, 67, 0
1, 626574, Control_c, 0, 64, 91
1, 626580, Note_on_c, 0, 54, 70
1, 626582, Note_on_c, 0, 66, 81
1, 626589, Control_c, 0, 64, 94
1, 626604, Control_c, 0, 64, 98
1, 626619, Control_c, 0, 64, 102
1, 626628, Note_off_c, 0, 54, 55
1, 626634, Control_c, 0, 64, 105
1, 626649, Control_c, 0, 64, 105
1, 626663, Control_c, 0, 64, 101
1, 626673, Note_off_c, 0, 66, 58
1, 626678, Control_c, 0, 64, 84
1, 626693, Control_c, 0, 64, 66
1, 626708, Control_c, 0, 64, 0
1, 626723, Control_c, 0, 67, 8
1, 626738, Control_c, 0, 67, 15
1, 626752, Control_c, 0, 67, 23
1, 626767, Control_c, 0, 64, 45
1, 626767, Control_c, 0, 67, 30
1, 626771, Note_on_c, 0, 44, 92
1, 626771, Note_on_c, 0, 66, 85
1, 626773, Note_on_c, 0, 54, 83
1, 626777, Note_on_c, 0, 63, 88
1, 626777, Note_on_c, 0, 59, 82
1, 626782, Control_c, 0, 64, 74
1, 626782, Control_c, 0, 67, 32
1, 626788, Note_off_c, 0, 45, 63
1, 626789, Note_off_c, 0, 57, 64
1, 626797, Control_c, 0, 64, 127
1, 626797, Control_c, 0, 67, 34
1, 626801, Note_off_c, 0, 59, 67
1, 626813, Note_off_c, 0, 54, 63
1, 626815, Note_off_c, 0, 44, 66
1, 626826, Control_c, 0, 67, 32
1, 626830, Note_off_c, 0, 63, 61
1, 626841, Control_c, 0, 67, 30
1, 626845, Note_off_c, 0, 66, 62
1, 626856, Control_c, 0, 67, 27
1, 626871, Control_c, 0, 67, 24
1, 626885, Control_c, 0, 67, 21
1, 626900, Control_c, 0, 67, 16
1, 626915, Control_c, 0, 67, 0
1, 626930, Control_c, 0, 64, 95
1, 626945, Control_c, 0, 64, 71
1, 626959, Control_c, 0, 64, 0
1, 626979, Note_on_c, 0, 52, 81
1, 627002, Note_on_c, 0, 64, 65
1, 627117, Control_c, 0, 64, 21
1, 627125, Note_on_c, 0, 56, 79
1, 627131, Note_on_c, 0, 68, 77
1, 627131, Control_c, 0, 64, 64
1, 627140, Note_off_c, 0, 64, 61
1, 627146, Control_c, 0, 64, 73
1, 627152, Note_off_c, 0, 52, 60
1, 627161, Control_c, 0, 64, 86
1, 627176, Control_c, 0, 64, 127
1, 627185, Note_on_c, 0, 59, 79
1, 627186, Note_on_c, 0, 71, 90
1, 627186, Note_off_c, 0, 56, 63
1, 627194, Note_off_c, 0, 68, 61
1, 627215, Note_off_c, 0, 59, 63
1, 627239, Note_off_c, 0, 71, 65
1, 627338, Control_c, 0, 64, 97
1, 627353, Control_c, 0, 64, 62
1, 627353, Control_c, 0, 67, 10
1, 627368, Control_c, 0, 64, 0
1, 627368, Control_c, 0, 67, 11
1, 627373, Note_on_c, 0, 71, 105
1, 627376, Note_on_c, 0, 49, 101
1, 627379, Note_on_c, 0, 37, 91
1, 627379, Note_on_c, 0, 67, 91
1, 627381, Note_on_c, 0, 64, 84
1, 627382, Control_c, 0, 64, 23
1, 627382, Control_c, 0, 67, 12
1, 627395, Note_off_c, 0, 49, 72
1, 627397, Control_c, 0, 64, 73
1, 627400, Note_off_c, 0, 64, 72
1, 627400, Note_off_c, 0, 67, 65
1, 627401, Note_off_c, 0, 37, 71
1, 627412, Control_c, 0, 64, 102
1, 627412, Control_c, 0, 67, 11
1, 627423, Note_off_c, 0, 71, 67
1, 627427, Control_c, 0, 64, 127
1, 627427, Control_c, 0, 67, 9
1, 627442, Control_c, 0, 67, 0
1, 627561, Control_c, 0, 64, 104
1, 627575, Control_c, 0, 64, 74
1, 627588, Note_on_c, 0, 69, 79
1, 627590, Control_c, 0, 64, 0
1, 627591, Note_on_c, 0, 57, 81
1, 627679, Control_c, 0, 64, 55
1, 627686, Note_on_c, 0, 61, 73
1, 627693, Control_c, 0, 64, 66
1, 627706, Note_off_c, 0, 57, 60
1, 627707, Note_on_c, 0, 73, 83
1, 627708, Control_c, 0, 64, 73
1, 627714, Note_off_c, 0, 69, 61
1, 627723, Control_c, 0, 64, 79
1, 627738, Control_c, 0, 64, 86
1, 627739, Note_on_c, 0, 64, 79
1, 627752, Note_on_c, 0, 76, 91
1, 627753, Note_off_c, 0, 61, 61
1, 627753, Control_c, 0, 64, 92
1, 627769, Control_c, 0, 64, 99
1, 627770, Note_off_c, 0, 73, 64
1, 627784, Control_c, 0, 64, 111
1, 627788, Note_off_c, 0, 64, 60
1, 627792, Note_off_c, 0, 76, 61
1, 627798, Control_c, 0, 64, 127
1, 627991, Note_on_c, 0, 83, 102
1, 627993, Note_on_c, 0, 64, 93
1, 627993, Note_on_c, 0, 67, 91
1, 627994, Note_on_c, 0, 71, 101
1, 627996, Note_on_c, 0, 59, 87
1, 627997, Note_on_c, 0, 79, 94
1, 627998, Note_on_c, 0, 76, 93
1, 628073, Control_c, 0, 64, 98
1, 628087, Control_c, 0, 64, 68
1, 628102, Control_c, 0, 64, 0
1, 628115, Note_off_c, 0, 71, 57
1, 628146, Control_c, 0, 64, 55
1, 628161, Control_c, 0, 64, 65
1, 628176, Control_c, 0, 64, 72
1, 628181, Note_on_c, 0, 81, 85
1, 628181, Note_off_c, 0, 67, 59
1, 628184, Note_on_c, 0, 57, 80
1, 628191, Control_c, 0, 64, 79
1, 628195, Note_off_c, 0, 64, 67
1, 628197, Note_on_c, 0, 69, 73
1, 628202, Note_off_c, 0, 83, 63
1, 628203, Note_off_c, 0, 59, 63
1, 628205, Control_c, 0, 64, 91
1, 628208, Note_off_c, 0, 76, 65
1, 628215, Note_off_c, 0, 57, 66
1, 628220, Control_c, 0, 64, 112
1, 628223, Note_off_c, 0, 81, 67
1, 628226, Note_off_c, 0, 69, 64
1, 628228, Note_off_c, 0, 79, 44
1, 628235, Control_c, 0, 64, 127
1, 628386, Note_on_c, 0, 71, 98
1, 628389, Note_on_c, 0, 37, 94
1, 628389, Note_on_c, 0, 64, 90
1, 628390, Note_on_c, 0, 49, 93
1, 628398, Note_on_c, 0, 67, 80
1, 628411, Note_off_c, 0, 49, 70
1, 628412, Note_off_c, 0, 37, 70
1, 628469, Note_off_c, 0, 67, 58
1, 628484, Note_on_c, 0, 49, 15
1, 628502, Control_c, 0, 64, 101
1, 628517, Control_c, 0, 64, 65
1, 628522, Note_off_c, 0, 49, 47
1, 628531, Control_c, 0, 64, 0
1, 628657, Note_on_c, 0, 38, 91
1, 628657, Note_on_c, 0, 50, 96
1, 628659, Note_on_c, 0, 69, 91
1, 628673, Note_on_c, 0, 66, 88
1, 628693, Note_off_c, 0, 64, 64
1, 628718, Note_off_c, 0, 71, 52
1, 628732, Control_c, 0, 64, 61
1, 628747, Control_c, 0, 64, 127
1, 628777, Note_off_c, 0, 38, 65
1, 628777, Note_off_c, 0, 66, 63
1, 628791, Note_off_c, 0, 69, 65
1, 628795, Note_off_c, 0, 50, 68
1, 628944, Note_on_c, 0, 57, 93
1, 628956, Note_on_c, 0, 69, 83
1, 629076, Note_on_c, 0, 62, 76
1, 629096, Note_on_c, 0, 74, 82
1, 629101, Note_off_c, 0, 57, 59
1, 629102, Note_off_c, 0, 69, 62
1, 629128, Note_on_c, 0, 66, 81
1, 629141, Note_on_c, 0, 78, 97
1, 629164, Note_off_c, 0, 74, 67
1, 629167, Note_off_c, 0, 62, 59
1, 629198, Note_off_c, 0, 78, 66
1, 629204, Note_off_c, 0, 66, 53
1, 629369, Note_on_c, 0, 83, 99
1, 629376, Note_on_c, 0, 59, 87
1, 629376, Note_on_c, 0, 62, 94
1, 629376, Note_on_c, 0, 74, 98
1, 629377, Note_on_c, 0, 71, 99
1, 629377, Control_c, 0, 64, 93
1, 629379, Note_on_c, 0, 66, 96
1, 629382, Note_on_c, 0, 78, 95
1, 629392, Control_c, 0, 64, 63
1, 629407, Control_c, 0, 64, 0
1, 629466, Control_c, 0, 64, 58
1, 629481, Control_c, 0, 64, 74
1, 629496, Control_c, 0, 64, 108
1, 629511, Control_c, 0, 64, 127
1, 629547, Note_off_c, 0, 83, 58
1, 629550, Note_off_c, 0, 71, 63
1, 629639, Note_on_c, 0, 57, 88
1, 629641, Note_off_c, 0, 66, 61
1, 629644, Note_on_c, 0, 81, 92
1, 629644, Note_off_c, 0, 62, 62
1, 629650, Note_on_c, 0, 69, 79
1, 629655, Note_off_c, 0, 59, 60
1, 629658, Note_off_c, 0, 78, 64
1, 629659, Note_off_c, 0, 74, 64
1, 629676, Note_off_c, 0, 57, 67
1, 629676, Note_off_c, 0, 81, 66
1, 629685, Note_off_c, 0, 69, 60
1, 629984, Control_c, 0, 64, 96
1, 629987, Note_on_c, 0, 37, 89
1, 629988, Note_on_c, 0, 71, 107
1, 629990, Note_on_c, 0, 49, 85
1, 629994, Note_on_c, 0, 64, 90
1, 629994, Note_on_c, 0, 67, 92
1, 629999, Control_c, 0, 64, 67
1, 630014, Control_c, 0, 64, 0
1, 630125, Control_c, 0, 64, 63
1, 630140, Control_c, 0, 64, 73
1, 630155, Control_c, 0, 64, 85
1, 630170, Control_c, 0, 64, 107
1, 630186, Control_c, 0, 64, 127
1, 630229, Note_on_c, 0, 69, 90
1, 630244, Note_on_c, 0, 66, 92
1, 630270, Note_off_c, 0, 67, 63
1, 630275, Note_off_c, 0, 64, 64
1, 630287, Note_off_c, 0, 37, 58
1, 630288, Note_off_c, 0, 71, 62
1, 630321, Note_off_c, 0, 66, 64
1, 630323, Note_off_c, 0, 49, 62
1, 630325, Note_off_c, 0, 69, 67
1, 630615, Control_c, 0, 64, 89
1, 630630, Control_c, 0, 64, 65
1, 630645, Control_c, 0, 64, 0
1, 630856, Note_on_c, 0, 38, 90
1, 630861, Note_on_c, 0, 50, 85
1, 630870, Note_on_c, 0, 78, 97
1, 630874, Control_c, 0, 64, 64
1, 630889, Control_c, 0, 64, 76
1, 630895, Note_off_c, 0, 50, 66
1, 630901, Note_off_c, 0, 38, 66
1, 630904, Control_c, 0, 64, 94
1, 630919, Control_c, 0, 64, 127
1, 631324, Note_on_c, 0, 57, 89
1, 631475, Note_on_c, 0, 79, 79
1, 631476, Note_off_c, 0, 78, 60
1, 631522, Note_off_c, 0, 79, 64
1, 631524, Note_on_c, 0, 81, 79
1, 631603, Note_on_c, 0, 74, 99
1, 631611, Note_on_c, 0, 69, 69
1, 631615, Note_on_c, 0, 66, 68
1, 631722, Note_off_c, 0, 69, 51
1, 631773, Note_off_c, 0, 66, 42
1, 631894, Note_on_c, 0, 66, 60
1, 631903, Note_on_c, 0, 69, 65
1, 631976, Note_off_c, 0, 69, 51
1, 631997, Note_off_c, 0, 66, 52
1, 632100, Note_on_c, 0, 66, 79
1, 632101, Note_on_c, 0, 69, 68
1, 632139, Note_off_c, 0, 69, 52
1, 632140, Note_off_c, 0, 57, 51
1, 632160, Note_off_c, 0, 66, 57
1, 632291, Note_on_c, 0, 61, 86
1, 632291, Note_on_c, 0, 69, 75
1, 632291, Note_on_c, 0, 76, 98
1, 632300, Note_on_c, 0, 57, 70
1, 632312, Note_off_c, 0, 61, 70
1, 632314, Note_off_c, 0, 69, 70
1, 632319, Note_off_c, 0, 74, 64
1, 632328, Note_off_c, 0, 57, 64
1, 632348, Note_off_c, 0, 76, 62
1, 632403, Poly_aftertouch_c, 0, 67, 0
1, 632455, Poly_aftertouch_c, 0, 74, 127
1, 632476, Poly_aftertouch_c, 0, 74, 0
1, 632504, Control_c, 0, 64, 117
1, 632519, Control_c, 0, 64, 72
1, 632534, Control_c, 0, 64, 0
1, 632566, Note_on_c, 0, 50, 90
1, 632569, Note_on_c, 0, 38, 87
1, 632569, Note_on_c, 0, 78, 95
1, 632589, Note_off_c, 0, 50, 73
1, 632592, Note_off_c, 0, 38, 68
1, 632594, Control_c, 0, 64, 68
1, 632595, Note_off_c, 0, 81, 61
1, 632609, Control_c, 0, 64, 84
1, 632624, Control_c, 0, 64, 127
1, 632871, Note_on_c, 0, 57, 83
1, 632959, Note_off_c, 0, 78, 56
1, 632988, Note_on_c, 0, 79, 80
1, 633028, Note_on_c, 0, 81, 85
1, 633044, Note_off_c, 0, 79, 63
1, 633084, Note_on_c, 0, 66, 81
1, 633084, Note_on_c, 0, 69, 79
1, 633084, Note_on_c, 0, 74, 95
1, 633105, Control_c, 0, 64, 77
1, 633120, Control_c, 0, 64, 0
1, 633194, Control_c, 0, 64, 52
1, 633209, Control_c, 0, 64, 66
1, 633224, Control_c, 0, 64, 74
1, 633228, Note_off_c, 0, 66, 53
1, 633239, Control_c, 0, 64, 82
1, 633248, Note_off_c, 0, 69, 38
1, 633254, Control_c, 0, 64, 92
1, 633268, Control_c, 0, 64, 105
1, 633283, Control_c, 0, 64, 126
1, 633298, Control_c, 0, 64, 127
1, 633393, Note_on_c, 0, 66, 65
1, 633398, Note_on_c, 0, 69, 71
1, 633419, Note_off_c, 0, 69, 71
1, 633420, Note_off_c, 0, 66, 63
1, 633613, Note_on_c, 0, 66, 76
1, 633619, Note_on_c, 0, 69, 68
1, 633647, Note_off_c, 0, 69, 65
1, 633710, Note_off_c, 0, 57, 54
1, 633871, Note_off_c, 0, 66, 0
1, 633889, Note_on_c, 0, 66, 29
1, 633889, Note_on_c, 0, 60, 73
1, 633898, Note_on_c, 0, 76, 82
1, 633910, Note_off_c, 0, 74, 62
1, 633921, Note_off_c, 0, 66, 58
1, 633922, Note_on_c, 0, 69, 44
1, 633949, Note_off_c, 0, 69, 55
1, 633975, Note_on_c, 0, 78, 86
1, 633990, Note_off_c, 0, 76, 61
1, 633998, Note_off_c, 0, 81, 54
1, 634076, Control_c, 0, 64, 105
1, 634083, Note_on_c, 0, 59, 70
1, 634083, Note_on_c, 0, 79, 88
1, 634091, Note_off_c, 0, 78, 63
1, 634091, Control_c, 0, 64, 77
1, 634094, Note_off_c, 0, 60, 60
1, 634106, Control_c, 0, 64, 27
1, 634121, Control_c, 0, 64, 0
1, 634196, Control_c, 0, 64, 44
1, 634211, Control_c, 0, 64, 65
1, 634226, Control_c, 0, 64, 72
1, 634240, Control_c, 0, 64, 78
1, 634255, Control_c, 0, 64, 83
1, 634270, Control_c, 0, 64, 87
1, 634285, Control_c, 0, 64, 92
1, 634300, Control_c, 0, 64, 97
1, 634314, Control_c, 0, 64, 102
1, 634323, Note_on_c, 0, 81, 85
1, 634329, Control_c, 0, 64, 107
1, 634330, Note_on_c, 0, 62, 51
1, 634330, Note_on_c, 0, 67, 53
1, 634344, Control_c, 0, 64, 112
1, 634351, Note_off_c, 0, 79, 58
1, 634359, Control_c, 0, 64, 118
1, 634373, Control_c, 0, 64, 127
1, 634398, Note_on_c, 0, 83, 91
1, 634415, Note_off_c, 0, 81, 63
1, 634447, Control_c, 0, 64, 111
1, 634462, Control_c, 0, 64, 86
1, 634464, Note_off_c, 0, 62, 57
1, 634465, Note_off_c, 0, 83, 62
1, 634477, Control_c, 0, 64, 65
1, 634489, Note_on_c, 0, 85, 95
1, 634491, Control_c, 0, 64, 0
1, 634492, Note_off_c, 0, 67, 35
1, 634501, Note_on_c, 0, 57, 50
1, 634511, Note_off_c, 0, 59, 54
1, 634566, Control_c, 0, 64, 52
1, 634581, Control_c, 0, 64, 67
1, 634603, Control_c, 0, 64, 76
1, 634618, Control_c, 0, 64, 85
1, 634633, Control_c, 0, 64, 95
1, 634647, Control_c, 0, 64, 101
1, 634662, Control_c, 0, 64, 105
1, 634677, Control_c, 0, 64, 108
1, 634691, Control_c, 0, 64, 110
1, 634706, Control_c, 0, 64, 112
1, 634721, Control_c, 0, 64, 114
1, 634736, Control_c, 0, 64, 116
1, 634750, Note_on_c, 0, 83, 84
1, 634751, Note_off_c, 0, 57, 56
1, 634751, Control_c, 0, 64, 118
1, 634760, Note_on_c, 0, 61, 54
1, 634761, Note_on_c, 0, 67, 53
1, 634765, Control_c, 0, 64, 120
1, 634780, Control_c, 0, 64, 124
1, 634795, Control_c, 0, 64, 127
1, 634813, Note_off_c, 0, 85, 57
1, 634828, Note_on_c, 0, 81, 86
1, 634849, Note_off_c, 0, 83, 64
1, 634898, Control_c, 0, 64, 99
1, 634913, Control_c, 0, 64, 78
1, 634924, Note_off_c, 0, 81, 63
1, 634927, Note_on_c, 0, 85, 93
1, 634928, Control_c, 0, 64, 37
1, 634933, Note_off_c, 0, 67, 48
1, 634940, Note_on_c, 0, 55, 59
1, 634943, Control_c, 0, 64, 0
1, 635003, Control_c, 0, 64, 37
1, 635018, Control_c, 0, 64, 64
1, 635033, Control_c, 0, 64, 72
1, 635048, Control_c, 0, 64, 79
1, 635062, Control_c, 0, 64, 90
1, 635077, Control_c, 0, 64, 97
1, 635092, Control_c, 0, 64, 101
1, 635106, Control_c, 0, 64, 102
1, 635121, Control_c, 0, 64, 104
1, 635136, Control_c, 0, 64, 104
1, 635151, Control_c, 0, 64, 105
1, 635157, Note_on_c, 0, 83, 85
1, 635159, Note_off_c, 0, 55, 62
1, 635166, Control_c, 0, 64, 107
1, 635168, Note_on_c, 0, 69, 56
1, 635180, Note_on_c, 0, 64, 33
1, 635180, Control_c, 0, 64, 109
1, 635195, Control_c, 0, 64, 111
1, 635210, Control_c, 0, 64, 113
1, 635216, Note_off_c, 0, 64, 53
1, 635217, Note_off_c, 0, 85, 56
1, 635225, Control_c, 0, 64, 114
1, 635240, Control_c, 0, 64, 116
1, 635244, Note_off_c, 0, 61, 56
1, 635246, Note_on_c, 0, 81, 90
1, 635254, Note_off_c, 0, 69, 38
1, 635255, Control_c, 0, 64, 117
1, 635269, Control_c, 0, 64, 118
1, 635274, Note_off_c, 0, 83, 66
1, 635284, Control_c, 0, 64, 120
1, 635299, Control_c, 0, 64, 122
1, 635395, Control_c, 0, 64, 121
1, 635410, Control_c, 0, 64, 115
1, 635425, Control_c, 0, 64, 100
1, 635440, Note_on_c, 0, 86, 77
1, 635441, Control_c, 0, 64, 83
1, 635456, Control_c, 0, 64, 64
1, 635462, Note_on_c, 0, 54, 44
1, 635470, Control_c, 0, 64, 0
1, 635470, Control_c, 0, 67, 8
1, 635485, Control_c, 0, 67, 9
1, 635499, Note_off_c, 0, 81, 61
1, 635500, Control_c, 0, 67, 9
1, 635514, Control_c, 0, 67, 11
1, 635529, Control_c, 0, 67, 12
1, 635544, Control_c, 0, 67, 14
1, 635559, Control_c, 0, 64, 11
1, 635559, Control_c, 0, 67, 16
1, 635574, Control_c, 0, 64, 65
1, 635574, Control_c, 0, 67, 17
1, 635588, Control_c, 0, 64, 74
1, 635588, Control_c, 0, 67, 18
1, 635603, Control_c, 0, 64, 86
1, 635603, Control_c, 0, 67, 19
1, 635618, Control_c, 0, 64, 105
1, 635618, Control_c, 0, 67, 20
1, 635633, Control_c, 0, 64, 127
1, 635633, Control_c, 0, 67, 21
1, 635648, Control_c, 0, 67, 21
1, 635663, Control_c, 0, 67, 22
1, 635672, Note_off_c, 0, 54, 63
1, 635678, Control_c, 0, 67, 23
1, 635693, Control_c, 0, 67, 24
1, 635702, Note_on_c, 0, 85, 73
1, 635705, Note_on_c, 0, 62, 46
1, 635708, Control_c, 0, 67, 25
1, 635713, Note_on_c, 0, 69, 57
1, 635722, Control_c, 0, 67, 27
1, 635732, Note_off_c, 0, 62, 59
1, 635737, Control_c, 0, 67, 29
1, 635752, Control_c, 0, 67, 31
1, 635767, Control_c, 0, 67, 32
1, 635782, Control_c, 0, 67, 33
1, 635794, Note_on_c, 0, 84, 71
1, 635797, Control_c, 0, 67, 34
1, 635812, Control_c, 0, 67, 36
1, 635827, Control_c, 0, 67, 37
1, 635827, Note_off_c, 0, 69, 55
1, 635833, Note_off_c, 0, 85, 56
1, 635842, Control_c, 0, 67, 37
1, 635848, Note_off_c, 0, 86, 35
1, 635857, Control_c, 0, 67, 38
1, 635871, Control_c, 0, 64, 98
1, 635886, Control_c, 0, 64, 73
1, 635886, Control_c, 0, 67, 38
1, 635887, Note_off_c, 0, 84, 62
1, 635889, Note_on_c, 0, 59, 57
1, 635889, Note_on_c, 0, 83, 69
1, 635901, Control_c, 0, 64, 0
1, 635901, Control_c, 0, 67, 39
1, 635916, Control_c, 0, 67, 40
1, 635931, Control_c, 0, 67, 40
1, 635960, Control_c, 0, 64, 23
1, 635960, Control_c, 0, 67, 41
1, 635975, Control_c, 0, 64, 60
1, 635975, Control_c, 0, 67, 42
1, 635990, Control_c, 0, 64, 69
1, 635990, Control_c, 0, 67, 43
1, 636004, Control_c, 0, 64, 78
1, 636004, Control_c, 0, 67, 45
1, 636019, Control_c, 0, 64, 91
1, 636019, Control_c, 0, 67, 46
1, 636034, Control_c, 0, 64, 102
1, 636034, Control_c, 0, 67, 46
1, 636049, Control_c, 0, 64, 109
1, 636049, Control_c, 0, 67, 47
1, 636064, Control_c, 0, 64, 110
1, 636086, Control_c, 0, 67, 48
1, 636107, Note_on_c, 0, 63, 65
1, 636107, Note_off_c, 0, 83, 48
1, 636108, Note_on_c, 0, 82, 78
1, 636110, Note_on_c, 0, 69, 50
1, 636116, Control_c, 0, 67, 48
1, 636122, Note_on_c, 0, 71, 56
1, 636137, Note_off_c, 0, 63, 64
1, 636143, Note_off_c, 0, 71, 60
1, 636145, Control_c, 0, 67, 49
1, 636189, Note_off_c, 0, 82, 62
1, 636205, Note_on_c, 0, 81, 76
1, 636213, Note_off_c, 0, 69, 39
1, 636234, Control_c, 0, 64, 109
1, 636278, Control_c, 0, 64, 102
1, 636278, Control_c, 0, 67, 48
1, 636293, Control_c, 0, 64, 84
1, 636293, Control_c, 0, 67, 47
1, 636295, Note_off_c, 0, 59, 33
1, 636308, Control_c, 0, 64, 56
1, 636308, Control_c, 0, 67, 46
1, 636314, Note_on_c, 0, 64, 66
1, 636314, Note_on_c, 0, 79, 84
1, 636316, Note_on_c, 0, 67, 63
1, 636316, Note_on_c, 0, 69, 54
1, 636317, Note_off_c, 0, 81, 60
1, 636323, Control_c, 0, 64, 0
1, 636323, Control_c, 0, 67, 45
1, 636332, Note_on_c, 0, 71, 44
1, 636337, Control_c, 0, 67, 44
1, 636341, Note_off_c, 0, 64, 68
1, 636341, Note_off_c, 0, 67, 63
1, 636341, Note_off_c, 0, 69, 58
1, 636352, Control_c, 0, 67, 43
1, 636359, Note_off_c, 0, 79, 62
1, 636361, Note_off_c, 0, 71, 36
1, 636367, Control_c, 0, 67, 41
1, 636382, Control_c, 0, 67, 39
1, 636397, Control_c, 0, 67, 38
1, 636411, Control_c, 0, 67, 36
1, 636426, Control_c, 0, 67, 35
1, 636441, Control_c, 0, 67, 34
1, 636515, Control_c, 0, 67, 35
1, 636535, Note_on_c, 0, 57, 65
1, 636538, Note_on_c, 0, 61, 84
1, 636539, Note_on_c, 0, 78, 84
1, 636545, Control_c, 0, 67, 36
1, 636552, Note_on_c, 0, 67, 54
1, 636558, Note_on_c, 0, 69, 46
1, 636560, Control_c, 0, 67, 36
1, 636562, Note_off_c, 0, 61, 68
1, 636575, Note_off_c, 0, 57, 64
1, 636575, Control_c, 0, 67, 37
1, 636577, Note_off_c, 0, 67, 59
1, 636589, Note_off_c, 0, 69, 35
1, 636590, Control_c, 0, 67, 38
1, 636605, Control_c, 0, 67, 39
1, 636611, Note_off_c, 0, 78, 63
1, 636620, Control_c, 0, 67, 40
1, 636635, Control_c, 0, 67, 41
1, 636636, Note_on_c, 0, 76, 75
1, 636650, Control_c, 0, 67, 41
1, 636664, Control_c, 0, 67, 42
1, 636679, Control_c, 0, 67, 42
1, 636716, Note_off_c, 0, 76, 59
1, 636754, Control_c, 0, 67, 42
1, 636768, Control_c, 0, 67, 41
1, 636795, Note_on_c, 0, 45, 86
1, 636797, Note_on_c, 0, 78, 95
1, 636798, Control_c, 0, 64, 47
1, 636798, Control_c, 0, 67, 40
1, 636799, Note_on_c, 0, 38, 72
1, 636813, Control_c, 0, 64, 80
1, 636813, Control_c, 0, 67, 40
1, 636816, Note_off_c, 0, 45, 68
1, 636823, Note_off_c, 0, 38, 65
1, 636834, Control_c, 0, 64, 127
1, 636834, Control_c, 0, 67, 38
1, 636844, Note_off_c, 0, 78, 67
1, 636849, Control_c, 0, 67, 37
1, 636864, Control_c, 0, 67, 36
1, 636879, Control_c, 0, 67, 36
1, 636894, Control_c, 0, 67, 34
1, 636909, Control_c, 0, 67, 34
1, 636924, Control_c, 0, 67, 33
1, 636939, Control_c, 0, 67, 33
1, 636954, Control_c, 0, 67, 32
1, 636998, Control_c, 0, 67, 32
1, 637013, Control_c, 0, 67, 31
1, 637028, Control_c, 0, 67, 29
1, 637042, Control_c, 0, 67, 25
1, 637057, Control_c, 0, 67, 22
1, 637072, Control_c, 0, 67, 19
1, 637086, Control_c, 0, 67, 16
1, 637101, Control_c, 0, 67, 12
1, 637115, Note_on_c, 0, 57, 74
1, 637116, Control_c, 0, 67, 9
1, 637131, Control_c, 0, 67, 0
1, 637186, Poly_aftertouch_c, 0, 59, 127
1, 637218, Poly_aftertouch_c, 0, 59, 0
1, 637270, Note_on_c, 0, 79, 76
1, 637315, Note_off_c, 0, 79, 60
1, 637317, Note_on_c, 0, 81, 87
1, 637383, Note_on_c, 0, 74, 96
1, 637389, Note_on_c, 0, 69, 66
1, 637391, Note_on_c, 0, 66, 63
1, 637457, Control_c, 0, 64, 102
1, 637472, Control_c, 0, 64, 78
1, 637487, Control_c, 0, 64, 73
1, 637502, Control_c, 0, 64, 82
1, 637517, Control_c, 0, 64, 95
1, 637532, Control_c, 0, 64, 127
1, 637618, Note_off_c, 0, 69, 24
1, 637621, Note_off_c, 0, 66, 25
1, 637761, Control_c, 0, 67, 8
1, 637776, Note_on_c, 0, 66, 54
1, 637776, Control_c, 0, 67, 10
1, 637782, Note_on_c, 0, 69, 55
1, 637791, Control_c, 0, 67, 13
1, 637806, Control_c, 0, 67, 16
1, 637821, Control_c, 0, 67, 19
1, 637825, Note_off_c, 0, 66, 47
1, 637827, Note_off_c, 0, 69, 57
1, 637836, Control_c, 0, 67, 22
1, 637851, Control_c, 0, 67, 24
1, 637865, Control_c, 0, 67, 25
1, 637880, Control_c, 0, 67, 27
1, 637895, Control_c, 0, 67, 29
1, 637909, Control_c, 0, 67, 30
1, 637924, Control_c, 0, 67, 32
1, 637939, Control_c, 0, 67, 32
1, 637954, Control_c, 0, 67, 33
1, 637969, Control_c, 0, 67, 33
1, 637983, Control_c, 0, 67, 34
1, 637999, Note_on_c, 0, 66, 61
1, 638007, Note_on_c, 0, 69, 60
1, 638009, Note_off_c, 0, 57, 60
1, 638013, Control_c, 0, 67, 34
1, 638027, Control_c, 0, 67, 35
1, 638042, Control_c, 0, 67, 35
1, 638057, Control_c, 0, 67, 36
1, 638062, Note_off_c, 0, 69, 46
1, 638072, Control_c, 0, 67, 36
1, 638102, Control_c, 0, 67, 37
1, 638106, Note_off_c, 0, 66, 34
1, 638131, Control_c, 0, 67, 37
1, 638146, Control_c, 0, 67, 38
1, 638162, Control_c, 0, 67, 38
1, 638200, Note_on_c, 0, 76, 90
1, 638204, Note_off_c, 0, 74, 59
1, 638206, Note_on_c, 0, 67, 67
1, 638206, Control_c, 0, 67, 39
1, 638208, Note_on_c, 0, 57, 63
1, 638211, Note_on_c, 0, 61, 75
1, 638221, Control_c, 0, 67, 39
1, 638231, Note_off_c, 0, 76, 66
1, 638233, Note_off_c, 0, 57, 65
1, 638233, Note_off_c, 0, 67, 66
1, 638235, Note_off_c, 0, 61, 66
1, 638236, Control_c, 0, 67, 40
1, 638251, Control_c, 0, 67, 40
1, 638266, Control_c, 0, 67, 41
1, 638325, Control_c, 0, 67, 41
1, 638347, Control_c, 0, 67, 42
1, 638362, Control_c, 0, 67, 43
1, 638377, Control_c, 0, 64, 85
1, 638377, Control_c, 0, 67, 45
1, 638392, Control_c, 0, 64, 59
1, 638392, Control_c, 0, 67, 47
1, 638407, Control_c, 0, 64, 0
1, 638407, Control_c, 0, 67, 48
1, 638463, Note_on_c, 0, 38, 74
1, 638465, Note_on_c, 0, 78, 92
1, 638466, Control_c, 0, 64, 60
1, 638466, Control_c, 0, 67, 48
1, 638476, Note_on_c, 0, 50, 58
1, 638481, Control_c, 0, 64, 71
1, 638481, Control_c, 0, 67, 47
1, 638482, Note_off_c, 0, 81, 61
1, 638487, Note_off_c, 0, 38, 66
1, 638496, Control_c, 0, 64, 90
1, 638496, Control_c, 0, 67, 46
1, 638502, Note_off_c, 0, 50, 60
1, 638511, Control_c, 0, 64, 127
1, 638511, Control_c, 0, 67, 46
1, 638526, Control_c, 0, 67, 45
1, 638555, Control_c, 0, 67, 45
1, 638600, Control_c, 0, 67, 44
1, 638629, Control_c, 0, 67, 44
1, 638630, Note_off_c, 0, 78, 51
1, 638644, Control_c, 0, 67, 43
1, 638659, Control_c, 0, 67, 42
1, 638674, Control_c, 0, 67, 42
1, 638688, Control_c, 0, 67, 41
1, 638703, Control_c, 0, 67, 40
1, 638718, Control_c, 0, 67, 40
1, 638733, Control_c, 0, 67, 39
1, 638739, Note_on_c, 0, 57, 67
1, 638748, Control_c, 0, 67, 38
1, 638778, Control_c, 0, 67, 38
1, 638807, Control_c, 0, 67, 38
1, 638822, Control_c, 0, 67, 39
1, 638835, Note_on_c, 0, 79, 76
1, 638837, Control_c, 0, 67, 40
1, 638852, Control_c, 0, 67, 40
1, 638866, Control_c, 0, 67, 41
1, 638867, Note_on_c, 0, 81, 86
1, 638877, Note_off_c, 0, 79, 64
1, 638881, Control_c, 0, 67, 41
1, 638896, Control_c, 0, 67, 42
1, 638911, Control_c, 0, 67, 43
1, 638926, Control_c, 0, 64, 101
1, 638926, Control_c, 0, 67, 43
1, 638930, Note_on_c, 0, 74, 81
1, 638930, Note_on_c, 0, 69, 63
1, 638935, Note_on_c, 0, 66, 64
1, 638940, Control_c, 0, 64, 75
1, 638940, Control_c, 0, 67, 44
1, 638956, Control_c, 0, 64, 30
1, 638956, Control_c, 0, 67, 44
1, 638971, Control_c, 0, 64, 0
1, 638971, Control_c, 0, 67, 45
1, 639001, Control_c, 0, 67, 45
1, 639016, Control_c, 0, 64, 36
1, 639016, Control_c, 0, 67, 46
1, 639030, Control_c, 0, 64, 64
1, 639030, Control_c, 0, 67, 46
1, 639045, Control_c, 0, 64, 74
1, 639060, Control_c, 0, 64, 90
1, 639060, Control_c, 0, 67, 47
1, 639075, Control_c, 0, 64, 117
1, 639075, Control_c, 0, 67, 47
1, 639097, Control_c, 0, 64, 127
1, 639097, Note_off_c, 0, 69, 39
1, 639112, Control_c, 0, 67, 48
1, 639124, Note_off_c, 0, 66, 40
1, 639142, Control_c, 0, 67, 48
1, 639156, Control_c, 0, 67, 49
1, 639171, Control_c, 0, 67, 49
1, 639185, Control_c, 0, 67, 50
1, 639200, Control_c, 0, 67, 51
1, 639215, Control_c, 0, 67, 52
1, 639222, Note_on_c, 0, 69, 57
1, 639230, Control_c, 0, 67, 54
1, 639233, Note_on_c, 0, 66, 54
1, 639244, Control_c, 0, 67, 55
1, 639259, Control_c, 0, 67, 57
1, 639274, Control_c, 0, 67, 58
1, 639288, Control_c, 0, 67, 60
1, 639292, Note_off_c, 0, 69, 49
1, 639300, Note_off_c, 0, 66, 41
1, 639303, Control_c, 0, 67, 62
1, 639318, Control_c, 0, 67, 64
1, 639333, Control_c, 0, 67, 65
1, 639348, Control_c, 0, 67, 66
1, 639362, Control_c, 0, 67, 67
1, 639377, Control_c, 0, 67, 68
1, 639392, Control_c, 0, 67, 69
1, 639407, Control_c, 0, 67, 71
1, 639422, Control_c, 0, 67, 73
1, 639437, Control_c, 0, 67, 74
1, 639442, Note_on_c, 0, 69, 61
1, 639452, Control_c, 0, 67, 75
1, 639466, Control_c, 0, 67, 76
1, 639481, Control_c, 0, 67, 76
1, 639484, Note_off_c, 0, 69, 52
1, 639498, Note_off_c, 0, 57, 34
1, 639511, Control_c, 0, 67, 77
1, 639526, Control_c, 0, 67, 77
1, 639541, Control_c, 0, 67, 78
1, 639555, Control_c, 0, 67, 78
1, 639570, Control_c, 0, 67, 79
1, 639585, Control_c, 0, 67, 80
1, 639600, Control_c, 0, 67, 81
1, 639629, Control_c, 0, 67, 81
1, 639662, Note_on_c, 0, 75, 75
1, 639674, Control_c, 0, 67, 82
1, 639676, Note_on_c, 0, 66, 56
1, 639693, Note_on_c, 0, 57, 60
1, 639696, Note_off_c, 0, 74, 59
1, 639704, Note_on_c, 0, 60, 18
1, 639705, Note_off_c, 0, 66, 64
1, 639746, Note_off_c, 0, 60, 55
1, 639943, Note_off_c, 0, 57, 37
1, 639979, Note_on_c, 0, 56, 51
1, 639980, Note_on_c, 0, 76, 71
1, 640023, Control_c, 0, 64, 107
1, 640023, Control_c, 0, 67, 82
1, 640038, Control_c, 0, 64, 84
1, 640050, Note_off_c, 0, 75, 59
1, 640053, Control_c, 0, 64, 66
1, 640067, Control_c, 0, 64, 0
1, 640067, Control_c, 0, 67, 83
1, 640072, Note_off_c, 0, 81, 60
1, 640171, Control_c, 0, 64, 62
1, 640185, Control_c, 0, 64, 70
1, 640200, Control_c, 0, 64, 79
1, 640215, Control_c, 0, 64, 88
1, 640230, Control_c, 0, 64, 97
1, 640233, Note_on_c, 0, 75, 70
1, 640239, Note_on_c, 0, 64, 50
1, 640242, Note_on_c, 0, 59, 45
1, 640244, Control_c, 0, 64, 102
1, 640254, Note_off_c, 0, 76, 61
1, 640259, Control_c, 0, 64, 104
1, 640274, Control_c, 0, 64, 104
1, 640327, Note_off_c, 0, 75, 61
1, 640334, Note_on_c, 0, 76, 72
1, 640364, Control_c, 0, 64, 104
1, 640378, Control_c, 0, 64, 95
1, 640391, Note_off_c, 0, 64, 39
1, 640393, Control_c, 0, 64, 77
1, 640402, Note_off_c, 0, 56, 43
1, 640408, Control_c, 0, 64, 60
1, 640423, Control_c, 0, 64, 0
1, 640432, Note_off_c, 0, 59, 54
1, 640435, Note_on_c, 0, 80, 79
1, 640437, Note_on_c, 0, 52, 51
1, 640447, Note_off_c, 0, 76, 55
1, 640526, Control_c, 0, 64, 52
1, 640541, Control_c, 0, 64, 67
1, 640557, Control_c, 0, 64, 76
1, 640572, Control_c, 0, 64, 89
1, 640594, Control_c, 0, 64, 106
1, 640608, Control_c, 0, 64, 127
1, 640653, Note_off_c, 0, 52, 57
1, 640663, Note_on_c, 0, 56, 57
1, 640663, Note_on_c, 0, 64, 56
1, 640669, Note_on_c, 0, 78, 74
1, 640691, Note_off_c, 0, 56, 65
1, 640691, Note_off_c, 0, 64, 66
1, 640717, Note_off_c, 0, 80, 59
1, 640742, Control_c, 0, 67, 83
1, 640765, Note_off_c, 0, 78, 60
1, 640769, Note_on_c, 0, 74, 70
1, 640816, Control_c, 0, 64, 102
1, 640816, Control_c, 0, 67, 84
1, 640831, Control_c, 0, 64, 76
1, 640846, Control_c, 0, 64, 11
1, 640846, Control_c, 0, 67, 84
1, 640860, Control_c, 0, 64, 0
1, 640881, Note_on_c, 0, 47, 54
1, 640890, Control_c, 0, 67, 85
1, 640891, Note_on_c, 0, 80, 68
1, 640898, Note_off_c, 0, 74, 61
1, 640905, Control_c, 0, 67, 85
1, 640920, Control_c, 0, 64, 61
1, 640920, Control_c, 0, 67, 86
1, 640922, Note_off_c, 0, 47, 62
1, 640934, Control_c, 0, 64, 72
1, 640949, Control_c, 0, 64, 85
1, 640964, Control_c, 0, 64, 114
1, 640979, Control_c, 0, 64, 127
1, 641094, Note_on_c, 0, 59, 59
1, 641097, Note_on_c, 0, 64, 58
1, 641097, Control_c, 0, 64, 95
1, 641110, Note_on_c, 0, 78, 65
1, 641112, Control_c, 0, 64, 77
1, 641123, Note_off_c, 0, 59, 64
1, 641127, Control_c, 0, 64, 63
1, 641129, Note_off_c, 0, 64, 66
1, 641142, Control_c, 0, 64, 0
1, 641147, Note_off_c, 0, 80, 60
1, 641172, Control_c, 0, 67, 86
1, 641188, Note_off_c, 0, 78, 60
1, 641196, Note_on_c, 0, 74, 66
1, 641290, Control_c, 0, 67, 86
1, 641304, Note_on_c, 0, 45, 61
1, 641315, Note_on_c, 0, 73, 71
1, 641318, Note_off_c, 0, 74, 60
1, 641320, Control_c, 0, 64, 55
1, 641320, Control_c, 0, 67, 85
1, 641341, Control_c, 0, 64, 73
1, 641344, Note_off_c, 0, 45, 62
1, 641357, Control_c, 0, 64, 85
1, 641357, Control_c, 0, 67, 85
1, 641372, Control_c, 0, 64, 107
1, 641372, Control_c, 0, 67, 84
1, 641387, Control_c, 0, 64, 127
1, 641387, Control_c, 0, 67, 84
1, 641402, Control_c, 0, 67, 83
1, 641417, Control_c, 0, 67, 83
1, 641506, Control_c, 0, 64, 104
1, 641514, Note_off_c, 0, 73, 61
1, 641521, Control_c, 0, 64, 79
1, 641522, Note_on_c, 0, 64, 67
1, 641528, Note_on_c, 0, 61, 67
1, 641529, Note_on_c, 0, 74, 68
1, 641536, Control_c, 0, 64, 36
1, 641550, Note_off_c, 0, 64, 68
1, 641551, Control_c, 0, 64, 0
1, 641558, Note_off_c, 0, 61, 63
1, 641565, Control_c, 0, 67, 83
1, 641580, Control_c, 0, 67, 84
1, 641610, Control_c, 0, 67, 84
1, 641613, Note_off_c, 0, 74, 62
1, 641622, Note_on_c, 0, 75, 65
1, 641724, Note_off_c, 0, 75, 61
1, 641731, Note_on_c, 0, 59, 65
1, 641732, Note_on_c, 0, 62, 66
1, 641740, Note_on_c, 0, 76, 70
1, 641750, Note_off_c, 0, 59, 64
1, 641758, Control_c, 0, 67, 84
1, 641759, Note_off_c, 0, 62, 65
1, 641788, Control_c, 0, 67, 83
1, 641803, Control_c, 0, 67, 83
1, 641818, Control_c, 0, 67, 82
1, 641950, Note_on_c, 0, 78, 73
1, 641951, Note_on_c, 0, 52, 66
1, 641953, Note_on_c, 0, 59, 60
1, 641956, Note_off_c, 0, 76, 60
1, 641974, Note_off_c, 0, 59, 62
1, 641981, Note_off_c, 0, 52, 64
1, 642046, Note_on_c, 0, 80, 74
1, 642069, Control_c, 0, 67, 83
1, 642081, Note_off_c, 0, 78, 56
1, 642106, Control_c, 0, 67, 84
1, 642121, Control_c, 0, 67, 84
1, 642136, Control_c, 0, 67, 85
1, 642167, Control_c, 0, 67, 85
1, 642196, Control_c, 0, 67, 86
1, 642212, Note_on_c, 0, 81, 78
1, 642214, Note_on_c, 0, 57, 55
1, 642221, Note_on_c, 0, 49, 55
1, 642280, Note_off_c, 0, 80, 61
1, 642329, Control_c, 0, 67, 85
1, 642344, Control_c, 0, 67, 84
1, 642359, Control_c, 0, 67, 83
1, 642374, Control_c, 0, 67, 82
1, 642388, Control_c, 0, 67, 80
1, 642403, Control_c, 0, 67, 79
1, 642418, Control_c, 0, 67, 77
1, 642433, Control_c, 0, 67, 75
1, 642448, Control_c, 0, 64, 26
1, 642448, Control_c, 0, 67, 72
1, 642462, Control_c, 0, 64, 63
1, 642462, Control_c, 0, 67, 66
1, 642477, Control_c, 0, 64, 71
1, 642477, Control_c, 0, 67, 56
1, 642492, Control_c, 0, 64, 80
1, 642492, Control_c, 0, 67, 37
1, 642507, Control_c, 0, 64, 94
1, 642507, Control_c, 0, 67, 16
1, 642507, Note_off_c, 0, 57, 62
1, 642508, Note_on_c, 0, 55, 70
1, 642511, Note_on_c, 0, 52, 72
1, 642513, Note_off_c, 0, 49, 63
1, 642522, Note_on_c, 0, 79, 82
1, 642522, Control_c, 0, 64, 127
1, 642522, Control_c, 0, 67, 0
1, 642536, Note_off_c, 0, 55, 66
1, 642539, Note_off_c, 0, 52, 65
1, 642555, Note_off_c, 0, 81, 63
1, 642598, Note_off_c, 0, 79, 59
1, 642729, Control_c, 0, 64, 110
1, 642744, Control_c, 0, 64, 77
1, 642759, Control_c, 0, 64, 0
1, 642842, Note_on_c, 0, 50, 90
1, 642843, Note_on_c, 0, 38, 88
1, 642853, Note_on_c, 0, 78, 101
1, 642855, Control_c, 0, 64, 28
1, 642866, Note_off_c, 0, 50, 72
1, 642868, Note_off_c, 0, 38, 70
1, 642870, Control_c, 0, 64, 80
1, 642885, Control_c, 0, 64, 127
1, 642935, Note_off_c, 0, 78, 56
1, 643202, Note_on_c, 0, 57, 88
1, 643346, Note_on_c, 0, 79, 80
1, 643394, Note_on_c, 0, 81, 90
1, 643404, Note_off_c, 0, 79, 64
1, 643468, Note_on_c, 0, 74, 96
1, 643479, Note_on_c, 0, 69, 73
1, 643485, Note_on_c, 0, 66, 70
1, 643547, Note_off_c, 0, 69, 50
1, 643556, Note_off_c, 0, 66, 54
1, 643813, Note_on_c, 0, 66, 68
1, 643820, Note_on_c, 0, 69, 64
1, 643849, Note_off_c, 0, 69, 63
1, 643857, Note_off_c, 0, 66, 54
1, 644047, Note_on_c, 0, 66, 67
1, 644052, Note_on_c, 0, 69, 59
1, 644055, Note_off_c, 0, 57, 58
1, 644072, Note_off_c, 0, 66, 65
1, 644078, Note_off_c, 0, 69, 62
1, 644253, Note_off_c, 0, 74, 61
1, 644268, Note_on_c, 0, 57, 72
1, 644269, Note_on_c, 0, 67, 71
1, 644271, Note_on_c, 0, 61, 82
1, 644273, Note_on_c, 0, 76, 95
1, 644279, Note_on_c, 0, 69, 59
1, 644293, Note_off_c, 0, 67, 66
1, 644293, Note_off_c, 0, 61, 69
1, 644297, Note_off_c, 0, 57, 66
1, 644301, Note_off_c, 0, 69, 62
1, 644308, Note_off_c, 0, 76, 68
1, 644373, Note_off_c, 0, 81, 0
1, 644407, Note_on_c, 0, 81, 13
1, 644441, Control_c, 0, 64, 84
1, 644456, Control_c, 0, 64, 62
1, 644471, Control_c, 0, 64, 0
1, 644546, Note_on_c, 0, 50, 83
1, 644547, Note_on_c, 0, 38, 78
1, 644555, Note_on_c, 0, 78, 92
1, 644566, Note_off_c, 0, 81, 47
1, 644571, Note_off_c, 0, 38, 66
1, 644571, Note_off_c, 0, 50, 72
1, 644576, Control_c, 0, 64, 70
1, 644590, Control_c, 0, 64, 89
1, 644597, Note_off_c, 0, 78, 67
1, 644605, Control_c, 0, 64, 127
1, 644809, Note_on_c, 0, 57, 73
1, 644930, Note_on_c, 0, 79, 74
1, 644967, Note_on_c, 0, 81, 82
1, 644975, Note_off_c, 0, 79, 64
1, 645023, Note_on_c, 0, 66, 67
1, 645024, Note_on_c, 0, 69, 67
1, 645027, Note_on_c, 0, 74, 82
1, 645034, Control_c, 0, 64, 93
1, 645049, Control_c, 0, 64, 64
1, 645064, Control_c, 0, 64, 0
1, 645077, Note_off_c, 0, 69, 52
1, 645097, Note_off_c, 0, 66, 39
1, 645145, Control_c, 0, 64, 62
1, 645160, Control_c, 0, 64, 72
1, 645175, Control_c, 0, 64, 84
1, 645189, Control_c, 0, 64, 104
1, 645204, Control_c, 0, 64, 127
1, 645313, Note_on_c, 0, 66, 46
1, 645315, Note_on_c, 0, 69, 58
1, 645369, Note_off_c, 0, 69, 48
1, 645512, Note_off_c, 0, 66, 0
1, 645530, Note_on_c, 0, 66, 29
1, 645533, Note_on_c, 0, 69, 55
1, 645574, Note_off_c, 0, 69, 55
1, 645604, Note_off_c, 0, 57, 53
1, 645748, Note_off_c, 0, 66, 0
1, 645786, Poly_aftertouch_c, 0, 66, 127
1, 645812, Note_on_c, 0, 60, 54
1, 645814, Note_on_c, 0, 76, 66
1, 645837, Note_off_c, 0, 74, 54
1, 645868, Poly_aftertouch_c, 0, 66, 0
1, 645873, Note_on_c, 0, 69, 15
1, 645915, Note_off_c, 0, 81, 54
1, 645916, Note_on_c, 0, 78, 79
1, 645917, Note_off_c, 0, 69, 52
1, 645945, Note_off_c, 0, 76, 59
1, 646030, Note_on_c, 0, 59, 62
1, 646035, Note_off_c, 0, 60, 58
1, 646039, Note_on_c, 0, 79, 86
1, 646052, Note_off_c, 0, 78, 62
1, 646056, Control_c, 0, 64, 111
1, 646071, Control_c, 0, 64, 80
1, 646086, Control_c, 0, 64, 57
1, 646101, Control_c, 0, 64, 0
1, 646130, Control_c, 0, 64, 46
1, 646146, Control_c, 0, 64, 63
1, 646161, Control_c, 0, 64, 69
1, 646176, Control_c, 0, 64, 77
1, 646191, Control_c, 0, 64, 91
1, 646206, Control_c, 0, 64, 108
1, 646220, Control_c, 0, 64, 127
1, 646272, Note_on_c, 0, 81, 91
1, 646276, Note_on_c, 0, 67, 57
1, 646279, Note_on_c, 0, 62, 53
1, 646306, Note_off_c, 0, 79, 61
1, 646353, Note_on_c, 0, 83, 92
1, 646375, Note_off_c, 0, 81, 64
1, 646415, Note_off_c, 0, 83, 66
1, 646439, Note_off_c, 0, 62, 58
1, 646439, Note_off_c, 0, 67, 50
1, 646457, Note_on_c, 0, 85, 102
1, 646472, Note_on_c, 0, 57, 60
1, 646472, Control_c, 0, 64, 86
1, 646483, Note_off_c, 0, 59, 51
1, 646486, Control_c, 0, 64, 61
1, 646501, Control_c, 0, 64, 0
1, 646583, Control_c, 0, 64, 14
1, 646597, Control_c, 0, 64, 63
1, 646612, Control_c, 0, 64, 70
1, 646627, Control_c, 0, 64, 77
1, 646642, Control_c, 0, 64, 86
1, 646657, Control_c, 0, 64, 96
1, 646671, Control_c, 0, 64, 107
1, 646686, Control_c, 0, 64, 126
1, 646701, Control_c, 0, 64, 127
1, 646713, Note_on_c, 0, 83, 90
1, 646723, Note_on_c, 0, 61, 66
1, 646728, Note_on_c, 0, 67, 61
1, 646768, Note_off_c, 0, 57, 37
1, 646779, Note_off_c, 0, 85, 54
1, 646797, Note_on_c, 0, 81, 95
1, 646826, Note_off_c, 0, 83, 65
1, 646909, Control_c, 0, 64, 117
1, 646910, Note_on_c, 0, 85, 99
1, 646913, Note_on_c, 0, 55, 71
1, 646924, Control_c, 0, 64, 80
1, 646927, Note_off_c, 0, 81, 61
1, 646931, Note_off_c, 0, 67, 38
1, 646939, Control_c, 0, 64, 43
1, 646954, Control_c, 0, 64, 0
1, 647029, Control_c, 0, 64, 43
1, 647043, Control_c, 0, 64, 67
1, 647058, Control_c, 0, 64, 76
1, 647073, Control_c, 0, 64, 86
1, 647088, Control_c, 0, 64, 100
1, 647102, Control_c, 0, 64, 114
1, 647117, Control_c, 0, 64, 127
1, 647131, Note_off_c, 0, 55, 63
1, 647134, Note_on_c, 0, 83, 91
1, 647136, Note_on_c, 0, 69, 71
1, 647141, Note_on_c, 0, 64, 65
1, 647172, Note_off_c, 0, 64, 66
1, 647204, Note_off_c, 0, 69, 48
1, 647209, Note_off_c, 0, 85, 54
1, 647230, Note_on_c, 0, 81, 96
1, 647244, Note_off_c, 0, 61, 46
1, 647259, Note_off_c, 0, 83, 66
1, 647446, Note_on_c, 0, 86, 87
1, 647465, Control_c, 0, 64, 98
1, 647465, Control_c, 0, 67, 8
1, 647468, Note_on_c, 0, 54, 59
1, 647480, Control_c, 0, 64, 76
1, 647480, Control_c, 0, 67, 9
1, 647494, Control_c, 0, 64, 55
1, 647494, Control_c, 0, 67, 10
1, 647509, Control_c, 0, 64, 0
1, 647509, Control_c, 0, 67, 11
1, 647523, Note_off_c, 0, 81, 63
1, 647524, Control_c, 0, 67, 12
1, 647539, Control_c, 0, 67, 13
1, 647554, Control_c, 0, 67, 14
1, 647569, Control_c, 0, 67, 16
1, 647583, Control_c, 0, 67, 19
1, 647598, Control_c, 0, 67, 23
1, 647613, Control_c, 0, 67, 27
1, 647628, Control_c, 0, 64, 63
1, 647628, Control_c, 0, 67, 30
1, 647643, Control_c, 0, 64, 72
1, 647643, Control_c, 0, 67, 33
1, 647658, Control_c, 0, 64, 83
1, 647658, Control_c, 0, 67, 35
1, 647673, Control_c, 0, 64, 100
1, 647673, Control_c, 0, 67, 38
1, 647688, Control_c, 0, 64, 127
1, 647688, Control_c, 0, 67, 40
1, 647696, Note_off_c, 0, 54, 62
1, 647702, Control_c, 0, 67, 42
1, 647711, Note_on_c, 0, 62, 62
1, 647711, Note_on_c, 0, 85, 77
1, 647717, Control_c, 0, 67, 44
1, 647732, Control_c, 0, 67, 45
1, 647738, Note_on_c, 0, 69, 53
1, 647747, Control_c, 0, 67, 46
1, 647753, Note_off_c, 0, 62, 57
1, 647762, Control_c, 0, 67, 48
1, 647777, Control_c, 0, 67, 50
1, 647792, Control_c, 0, 67, 51
1, 647807, Control_c, 0, 67, 51
1, 647810, Note_on_c, 0, 84, 79
1, 647834, Note_off_c, 0, 86, 39
1, 647837, Control_c, 0, 67, 52
1, 647843, Note_off_c, 0, 85, 61
1, 647846, Note_off_c, 0, 69, 53
1, 647896, Control_c, 0, 64, 115
1, 647896, Control_c, 0, 67, 52
1, 647911, Control_c, 0, 64, 81
1, 647911, Control_c, 0, 67, 53
1, 647925, Control_c, 0, 64, 54
1, 647925, Control_c, 0, 67, 55
1, 647928, Note_on_c, 0, 83, 72
1, 647928, Note_off_c, 0, 84, 63
1, 647930, Note_on_c, 0, 59, 57
1, 647940, Control_c, 0, 64, 0
1, 647940, Control_c, 0, 67, 57
1, 647955, Control_c, 0, 67, 57
1, 647970, Control_c, 0, 67, 58
1, 647999, Control_c, 0, 64, 60
1, 648014, Control_c, 0, 64, 68
1, 648014, Control_c, 0, 67, 58
1, 648029, Control_c, 0, 64, 77
1, 648043, Control_c, 0, 64, 87
1, 648058, Control_c, 0, 64, 100
1, 648081, Control_c, 0, 64, 108
1, 648096, Control_c, 0, 64, 110
1, 648142, Note_on_c, 0, 63, 66
1, 648150, Note_on_c, 0, 82, 78
1, 648150, Note_on_c, 0, 71, 58
1, 648153, Note_off_c, 0, 83, 58
1, 648155, Control_c, 0, 64, 105
1, 648156, Note_on_c, 0, 69, 55
1, 648162, Note_off_c, 0, 59, 60
1, 648170, Note_off_c, 0, 63, 67
1, 648171, Control_c, 0, 64, 89
1, 648176, Note_off_c, 0, 71, 61
1, 648179, Note_off_c, 0, 69, 62
1, 648186, Control_c, 0, 64, 68
1, 648200, Control_c, 0, 64, 0
1, 648200, Control_c, 0, 67, 59
1, 648221, Note_off_c, 0, 82, 62
1, 648244, Control_c, 0, 67, 60
1, 648247, Note_on_c, 0, 81, 71
1, 648259, Control_c, 0, 67, 60
1, 648333, Control_c, 0, 67, 59
1, 648348, Control_c, 0, 67, 58
1, 648363, Control_c, 0, 67, 57
1, 648369, Note_on_c, 0, 64, 73
1, 648370, Note_on_c, 0, 71, 68
1, 648371, Note_on_c, 0, 79, 83
1, 648376, Note_on_c, 0, 67, 65
1, 648378, Control_c, 0, 67, 56
1, 648379, Note_off_c, 0, 81, 63
1, 648389, Note_off_c, 0, 71, 67
1, 648392, Note_off_c, 0, 64, 69
1, 648393, Control_c, 0, 67, 55
1, 648394, Note_off_c, 0, 67, 64
1, 648400, Note_on_c, 0, 69, 25
1, 648407, Control_c, 0, 67, 54
1, 648422, Control_c, 0, 67, 54
1, 648437, Control_c, 0, 67, 53
1, 648439, Note_off_c, 0, 69, 31
1, 648451, Control_c, 0, 67, 52
1, 648466, Control_c, 0, 67, 51
1, 648481, Control_c, 0, 67, 51
1, 648496, Control_c, 0, 67, 50
1, 648564, Note_off_c, 0, 79, 49
1, 648586, Control_c, 0, 67, 50
1, 648601, Control_c, 0, 67, 49
1, 648606, Note_on_c, 0, 57, 82
1, 648608, Note_on_c, 0, 67, 74
1, 648610, Note_on_c, 0, 61, 89
1, 648610, Note_on_c, 0, 78, 82
1, 648615, Control_c, 0, 67, 49
1, 648628, Note_on_c, 0, 69, 57
1, 648629, Note_off_c, 0, 69, 127
1, 648631, Note_off_c, 0, 61, 69
1, 648633, Note_off_c, 0, 67, 67
1, 648640, Note_off_c, 0, 57, 66
1, 648645, Control_c, 0, 67, 49
1, 648660, Control_c, 0, 67, 50
1, 648674, Control_c, 0, 67, 51
1, 648689, Control_c, 0, 67, 52
1, 648701, Note_off_c, 0, 78, 62
1, 648704, Control_c, 0, 67, 53
1, 648717, Note_on_c, 0, 76, 76
1, 648719, Control_c, 0, 67, 53
1, 648734, Control_c, 0, 67, 54
1, 648749, Control_c, 0, 67, 54
1, 648809, Control_c, 0, 67, 54
1, 648830, Control_c, 0, 67, 53
1, 648845, Control_c, 0, 67, 53
1, 648859, Note_off_c, 0, 76, 52
1, 648860, Control_c, 0, 67, 52
1, 648889, Control_c, 0, 67, 52
1, 648895, Note_on_c, 0, 45, 91
1, 648903, Note_on_c, 0, 36, 79
1, 648903, Note_on_c, 0, 78, 92
1, 648904, Control_c, 0, 67, 51
1, 648916, Note_on_c, 0, 38, 64
1, 648919, Control_c, 0, 64, 65
1, 648919, Control_c, 0, 67, 51
1, 648922, Note_off_c, 0, 45, 70
1, 648931, Note_off_c, 0, 36, 63
1, 648934, Control_c, 0, 64, 87
1, 648934, Control_c, 0, 67, 50
1, 648941, Note_off_c, 0, 38, 57
1, 648949, Control_c, 0, 64, 127
1, 648949, Control_c, 0, 67, 49
1, 648961, Note_off_c, 0, 78, 64
1, 648964, Control_c, 0, 67, 48
1, 648979, Control_c, 0, 67, 46
1, 648993, Control_c, 0, 67, 44
1, 649008, Control_c, 0, 67, 41
1, 649023, Control_c, 0, 67, 39
1, 649038, Control_c, 0, 67, 37
1, 649053, Control_c, 0, 67, 36
1, 649067, Control_c, 0, 67, 35
1, 649097, Control_c, 0, 67, 35
1, 649112, Control_c, 0, 67, 34
1, 649127, Control_c, 0, 67, 34
1, 649141, Control_c, 0, 67, 33
1, 649156, Control_c, 0, 67, 32
1, 649171, Control_c, 0, 67, 32
1, 649185, Control_c, 0, 67, 31
1, 649194, Note_on_c, 0, 57, 77
1, 649312, Note_on_c, 0, 79, 78
1, 649350, Control_c, 0, 67, 32
1, 649364, Note_off_c, 0, 79, 63
1, 649365, Note_on_c, 0, 81, 91
1, 649379, Control_c, 0, 67, 32
1, 649394, Control_c, 0, 67, 33
1, 649404, Note_on_c, 0, 66, 77
1, 649404, Note_on_c, 0, 69, 77
1, 649409, Control_c, 0, 67, 33
1, 649420, Note_on_c, 0, 74, 96
1, 649423, Control_c, 0, 64, 96
1, 649423, Control_c, 0, 67, 34
1, 649438, Control_c, 0, 64, 70
1, 649453, Control_c, 0, 64, 0
1, 649468, Control_c, 0, 67, 33
1, 649479, Note_off_c, 0, 66, 0
1, 649483, Control_c, 0, 67, 33
1, 649497, Control_c, 0, 64, 52
1, 649512, Note_on_c, 0, 66, 9
1, 649512, Control_c, 0, 64, 64
1, 649527, Control_c, 0, 64, 70
1, 649527, Control_c, 0, 67, 32
1, 649542, Control_c, 0, 64, 79
1, 649557, Control_c, 0, 64, 93
1, 649579, Control_c, 0, 64, 115
1, 649594, Control_c, 0, 64, 127
1, 649596, Note_off_c, 0, 66, 40
1, 649647, Note_off_c, 0, 69, 38
1, 649712, Note_on_c, 0, 66, 58
1, 649712, Control_c, 0, 67, 33
1, 649715, Note_on_c, 0, 69, 64
1, 649771, Control_c, 0, 67, 33
1, 649801, Control_c, 0, 67, 34
1, 649814, Note_off_c, 0, 69, 38
1, 649829, Note_off_c, 0, 66, 32
1, 649830, Control_c, 0, 67, 34
1, 649845, Control_c, 0, 67, 35
1, 649875, Control_c, 0, 67, 36
1, 649919, Control_c, 0, 67, 36
1, 649920, Note_on_c, 0, 69, 69
1, 649930, Note_on_c, 0, 66, 69
1, 649941, Note_off_c, 0, 57, 58
1, 649949, Control_c, 0, 67, 37
1, 649953, Note_off_c, 0, 69, 59
1, 649962, Note_off_c, 0, 66, 58
1, 649978, Control_c, 0, 67, 36
1, 650008, Control_c, 0, 67, 36
1, 650067, Control_c, 0, 67, 35
1, 650145, Note_off_c, 0, 74, 60
1, 650159, Note_on_c, 0, 76, 94
1, 650162, Note_on_c, 0, 57, 67
1, 650163, Note_on_c, 0, 67, 64
1, 650165, Note_on_c, 0, 61, 76
1, 650168, Note_on_c, 0, 69, 63
1, 650172, Control_c, 0, 67, 36
1, 650186, Control_c, 0, 67, 36
1, 650187, Note_off_c, 0, 61, 66
1, 650192, Note_off_c, 0, 57, 65
1, 650192, Note_off_c, 0, 67, 65
1, 650192, Note_off_c, 0, 69, 60
1, 650193, Note_off_c, 0, 76, 67
1, 650201, Control_c, 0, 67, 37
1, 650213, Note_off_c, 0, 81, 60
1, 650216, Control_c, 0, 67, 38
1, 650231, Control_c, 0, 67, 39
1, 650245, Control_c, 0, 67, 41
1, 650260, Control_c, 0, 67, 42
1, 650275, Control_c, 0, 67, 44
1, 650290, Control_c, 0, 67, 46
1, 650305, Control_c, 0, 67, 47
1, 650327, Control_c, 0, 67, 48
1, 650342, Control_c, 0, 67, 49
1, 650357, Control_c, 0, 64, 103
1, 650372, Control_c, 0, 64, 70
1, 650372, Control_c, 0, 67, 50
1, 650387, Control_c, 0, 64, 0
1, 650431, Control_c, 0, 67, 49
1, 650457, Note_on_c, 0, 38, 79
1, 650460, Control_c, 0, 67, 49
1, 650461, Note_on_c, 0, 50, 77
1, 650469, Note_on_c, 0, 78, 87
1, 650475, Control_c, 0, 64, 55
1, 650475, Control_c, 0, 67, 48
1, 650484, Note_off_c, 0, 38, 66
1, 650486, Note_off_c, 0, 50, 69
1, 650490, Control_c, 0, 64, 72
1, 650490, Control_c, 0, 67, 48
1, 650505, Control_c, 0, 64, 91
1, 650505, Control_c, 0, 67, 47
1, 650507, Note_off_c, 0, 78, 65
1, 650520, Control_c, 0, 64, 127
1, 650520, Control_c, 0, 67, 47
1, 650549, Control_c, 0, 67, 46
1, 650579, Control_c, 0, 67, 46
1, 650624, Control_c, 0, 67, 45
1, 650653, Control_c, 0, 67, 45
1, 650668, Control_c, 0, 67, 44
1, 650683, Control_c, 0, 67, 44
1, 650712, Control_c, 0, 67, 43
1, 650727, Control_c, 0, 67, 43
1, 650742, Control_c, 0, 67, 42
1, 650764, Note_on_c, 0, 57, 69
1, 650786, Control_c, 0, 67, 42
1, 650860, Control_c, 0, 67, 42
1, 650875, Control_c, 0, 67, 43
1, 650878, Note_on_c, 0, 79, 78
1, 650890, Control_c, 0, 67, 43
1, 650925, Note_on_c, 0, 81, 81
1, 650925, Note_off_c, 0, 79, 64
1, 650935, Control_c, 0, 67, 44
1, 650950, Control_c, 0, 67, 44
1, 650965, Control_c, 0, 67, 45
1, 650980, Note_on_c, 0, 74, 81
1, 650980, Control_c, 0, 67, 45
1, 650988, Note_on_c, 0, 66, 63
1, 650988, Note_on_c, 0, 69, 66
1, 650995, Control_c, 0, 67, 46
1, 651009, Control_c, 0, 64, 87
1, 651009, Control_c, 0, 67, 46
1, 651024, Control_c, 0, 64, 67
1, 651024, Control_c, 0, 67, 47
1, 651039, Control_c, 0, 64, 0
1, 651039, Control_c, 0, 67, 48
1, 651076, Control_c, 0, 67, 48
1, 651091, Control_c, 0, 64, 40
1, 651106, Control_c, 0, 64, 61
1, 651106, Control_c, 0, 67, 49
1, 651121, Control_c, 0, 64, 68
1, 651136, Control_c, 0, 64, 78
1, 651136, Control_c, 0, 67, 49
1, 651150, Control_c, 0, 64, 90
1, 651166, Control_c, 0, 64, 106
1, 651181, Note_off_c, 0, 69, 39
1, 651181, Control_c, 0, 64, 127
1, 651181, Control_c, 0, 67, 50
1, 651211, Control_c, 0, 67, 50
1, 651220, Note_off_c, 0, 66, 37
1, 651255, Control_c, 0, 67, 51
1, 651269, Control_c, 0, 67, 51
1, 651314, Control_c, 0, 67, 52
1, 651331, Note_on_c, 0, 69, 53
1, 651336, Note_on_c, 0, 66, 57
1, 651343, Control_c, 0, 67, 52
1, 651358, Control_c, 0, 67, 54
1, 651373, Note_off_c, 0, 66, 55
1, 651373, Control_c, 0, 67, 57
1, 651387, Control_c, 0, 67, 58
1, 651390, Note_off_c, 0, 69, 52
1, 651402, Control_c, 0, 67, 59
1, 651417, Control_c, 0, 67, 60
1, 651432, Control_c, 0, 67, 61
1, 651462, Control_c, 0, 67, 61
1, 651477, Control_c, 0, 67, 62
1, 651491, Control_c, 0, 67, 62
1, 651506, Control_c, 0, 67, 63
1, 651521, Control_c, 0, 67, 63
1, 651536, Control_c, 0, 67, 64
1, 651551, Control_c, 0, 67, 64
1, 651566, Control_c, 0, 67, 65
1, 651572, Note_on_c, 0, 69, 56
1, 651581, Control_c, 0, 67, 67
1, 651595, Control_c, 0, 67, 68
1, 651610, Control_c, 0, 67, 69
1, 651614, Note_off_c, 0, 69, 54
1, 651625, Control_c, 0, 67, 71
1, 651632, Note_off_c, 0, 57, 37
1, 651640, Control_c, 0, 67, 72
1, 651655, Control_c, 0, 67, 73
1, 651669, Control_c, 0, 67, 73
1, 651684, Control_c, 0, 67, 74
1, 651699, Control_c, 0, 67, 75
1, 651714, Control_c, 0, 67, 75
1, 651729, Control_c, 0, 67, 76
1, 651745, Control_c, 0, 67, 77
1, 651759, Control_c, 0, 67, 78
1, 651774, Control_c, 0, 67, 78
1, 651789, Control_c, 0, 67, 79
1, 651804, Control_c, 0, 67, 80
1, 651807, Note_on_c, 0, 75, 72
1, 651823, Note_on_c, 0, 66, 54
1, 651825, Control_c, 0, 64, 100
1, 651825, Control_c, 0, 67, 81
1, 651832, Note_on_c, 0, 60, 42
1, 651837, Note_on_c, 0, 57, 61
1, 651840, Control_c, 0, 64, 80
1, 651840, Control_c, 0, 67, 81
1, 651855, Control_c, 0, 64, 68
1, 651855, Control_c, 0, 67, 82
1, 651857, Note_off_c, 0, 74, 56
1, 651859, Note_off_c, 0, 66, 58
1, 651864, Note_off_c, 0, 60, 56
1, 651870, Control_c, 0, 64, 66
1, 651870, Control_c, 0, 67, 83
1, 651885, Control_c, 0, 64, 70
1, 651885, Control_c, 0, 67, 84
1, 651900, Control_c, 0, 64, 76
1, 651914, Note_off_c, 0, 81, 56
1, 651915, Control_c, 0, 64, 82
1, 651915, Control_c, 0, 67, 84
1, 651930, Control_c, 0, 64, 91
1, 651945, Control_c, 0, 64, 103
1, 651959, Control_c, 0, 64, 127
1, 651974, Control_c, 0, 67, 85
1, 652004, Control_c, 0, 67, 85
1, 652018, Control_c, 0, 67, 86
1, 652033, Control_c, 0, 67, 87
1, 652048, Control_c, 0, 67, 88
1, 652063, Control_c, 0, 67, 89
1, 652078, Control_c, 0, 67, 90
1, 652092, Control_c, 0, 67, 91
1, 652107, Control_c, 0, 67, 91
1, 652122, Control_c, 0, 67, 92
1, 652137, Control_c, 0, 67, 93
1, 652152, Control_c, 0, 67, 93
1, 652162, Note_on_c, 0, 76, 70
1, 652166, Control_c, 0, 67, 94
1, 652170, Note_on_c, 0, 56, 55
1, 652181, Control_c, 0, 64, 107
1, 652181, Control_c, 0, 67, 95
1, 652187, Note_off_c, 0, 57, 47
1, 652196, Control_c, 0, 64, 86
1, 652196, Control_c, 0, 67, 96
1, 652201, Note_off_c, 0, 75, 62
1, 652210, Control_c, 0, 64, 70
1, 652210, Control_c, 0, 67, 97
1, 652225, Control_c, 0, 64, 46
1, 652225, Control_c, 0, 67, 97
1, 652240, Control_c, 0, 64, 0
1, 652240, Control_c, 0, 67, 98
1, 652255, Control_c, 0, 67, 99
1, 652284, Control_c, 0, 67, 99
1, 652299, Control_c, 0, 67, 100
1, 652344, Control_c, 0, 67, 100
1, 652359, Control_c, 0, 67, 101
1, 652374, Control_c, 0, 67, 101
1, 652389, Control_c, 0, 67, 102
1, 652404, Control_c, 0, 67, 103
1, 652418, Control_c, 0, 67, 104
1, 652433, Control_c, 0, 67, 105
1, 652439, Note_off_c, 0, 76, 60
1, 652442, Note_on_c, 0, 59, 42
1, 652443, Note_on_c, 0, 64, 49
1, 652446, Note_on_c, 0, 75, 66
1, 652448, Control_c, 0, 67, 105
1, 652524, Note_off_c, 0, 75, 62
1, 652550, Note_on_c, 0, 76, 70
1, 652565, Note_off_c, 0, 64, 42
1, 652595, Note_off_c, 0, 56, 54
1, 652672, Note_off_c, 0, 76, 58
1, 652675, Note_on_c, 0, 80, 69
1, 652675, Note_off_c, 0, 59, 59
1, 652690, Note_on_c, 0, 52, 45
1, 652737, Control_c, 0, 64, 55
1, 652752, Control_c, 0, 64, 69
1, 652767, Control_c, 0, 64, 79
1, 652782, Control_c, 0, 64, 93
1, 652782, Control_c, 0, 67, 105
1, 652797, Control_c, 0, 64, 123
1, 652812, Control_c, 0, 64, 127
1, 652931, Note_off_c, 0, 52, 61
1, 652931, Note_on_c, 0, 78, 71
1, 652940, Note_on_c, 0, 64, 46
1, 652951, Note_on_c, 0, 56, 41
1, 652966, Note_off_c, 0, 64, 63
1, 652968, Note_off_c, 0, 80, 60
1, 652982, Note_off_c, 0, 56, 54
1, 653018, Note_off_c, 0, 78, 61
1, 653032, Note_on_c, 0, 74, 65
1, 653048, Control_c, 0, 64, 98
1, 653063, Control_c, 0, 64, 74
1, 653078, Control_c, 0, 64, 0
1, 653149, Note_on_c, 0, 47, 54
1, 653156, Note_on_c, 0, 80, 68
1, 653166, Note_off_c, 0, 74, 56
1, 653182, Control_c, 0, 64, 65
1, 653185, Note_off_c, 0, 47, 64
1, 653197, Control_c, 0, 64, 78
1, 653211, Control_c, 0, 64, 100
1, 653226, Control_c, 0, 64, 127
1, 653338, Control_c, 0, 67, 104
1, 653386, Note_on_c, 0, 59, 56
1, 653386, Note_on_c, 0, 64, 59
1, 653393, Note_on_c, 0, 78, 68
1, 653411, Control_c, 0, 64, 102
1, 653413, Note_off_c, 0, 59, 64
1, 653417, Note_off_c, 0, 64, 65
1, 653424, Note_off_c, 0, 80, 61
1, 653426, Control_c, 0, 64, 78
1, 653441, Control_c, 0, 64, 61
1, 653456, Control_c, 0, 64, 0
1, 653471, Note_off_c, 0, 78, 60
1, 653487, Note_on_c, 0, 74, 64
1, 653602, Note_off_c, 0, 74, 60
1, 653608, Note_on_c, 0, 73, 63
1, 653619, Control_c, 0, 64, 64
1, 653634, Control_c, 0, 64, 76
1, 653636, Note_on_c, 0, 45, 10
1, 653649, Control_c, 0, 64, 95
1, 653663, Control_c, 0, 64, 127
1, 653682, Note_off_c, 0, 45, 54
1, 653693, Control_c, 0, 67, 104
1, 653708, Control_c, 0, 67, 103
1, 653723, Control_c, 0, 67, 103
1, 653806, Note_off_c, 0, 73, 61
1, 653831, Note_on_c, 0, 64, 65
1, 653833, Note_on_c, 0, 74, 66
1, 653849, Note_on_c, 0, 61, 57
1, 653927, Note_off_c, 0, 74, 63
1, 653934, Note_on_c, 0, 75, 60
1, 653934, Note_off_c, 0, 64, 60
1, 654034, Control_c, 0, 64, 101
1, 654049, Note_off_c, 0, 75, 61
1, 654049, Control_c, 0, 64, 79
1, 654050, Note_on_c, 0, 59, 69
1, 654059, Note_off_c, 0, 61, 61
1, 654060, Note_on_c, 0, 62, 64
1, 654070, Note_on_c, 0, 76, 68
1, 654070, Control_c, 0, 64, 59
1, 654084, Note_off_c, 0, 59, 66
1, 654085, Control_c, 0, 64, 0
1, 654088, Note_off_c, 0, 62, 65
1, 654304, Note_on_c, 0, 59, 63
1, 654314, Note_off_c, 0, 76, 58
1, 654316, Note_on_c, 0, 78, 65
1, 654317, Note_on_c, 0, 52, 47
1, 654332, Note_off_c, 0, 59, 64
1, 654347, Note_off_c, 0, 52, 54
1, 654412, Note_on_c, 0, 80, 63
1, 654413, Control_c, 0, 67, 103
1, 654427, Note_off_c, 0, 78, 54
1, 654428, Control_c, 0, 67, 104
1, 654443, Control_c, 0, 67, 104
1, 654457, Control_c, 0, 67, 105
1, 654472, Control_c, 0, 67, 106
1, 654487, Control_c, 0, 67, 107
1, 654502, Control_c, 0, 67, 108
1, 654517, Control_c, 0, 67, 109
1, 654532, Control_c, 0, 67, 113
1, 654547, Control_c, 0, 67, 115
1, 654561, Control_c, 0, 67, 117
1, 654576, Control_c, 0, 67, 117
1, 654591, Control_c, 0, 67, 118
1, 654605, Control_c, 0, 67, 119
1, 654610, Note_on_c, 0, 81, 62
1, 654620, Control_c, 0, 67, 120
1, 654631, Note_on_c, 0, 49, 44
1, 654631, Note_on_c, 0, 57, 36
1, 654635, Control_c, 0, 67, 121
1, 654649, Note_off_c, 0, 80, 61
1, 654650, Control_c, 0, 67, 122
1, 654665, Control_c, 0, 67, 123
1, 654679, Control_c, 0, 67, 124
1, 654694, Control_c, 0, 67, 125
1, 654709, Control_c, 0, 67, 126
1, 654724, Control_c, 0, 67, 126
1, 654738, Control_c, 0, 67, 127
1, 655005, Note_on_c, 0, 79, 56
1, 655010, Note_on_c, 0, 55, 38
1, 655015, Note_off_c, 0, 57, 36
1, 655024, Note_off_c, 0, 49, 36
1, 655035, Note_on_c, 0, 52, 27
1, 655075, Note_off_c, 0, 81, 51
1, 655132, Control_c, 0, 64, 52
1, 655147, Control_c, 0, 64, 68
1, 655162, Control_c, 0, 64, 78
1, 655177, Control_c, 0, 64, 93
1, 655191, Control_c, 0, 64, 127
1, 655227, Note_off_c, 0, 52, 38
1, 655230, Note_off_c, 0, 55, 52
1, 655295, Note_off_c, 0, 79, 59
1, 655388, Note_on_c, 0, 79, 61
1, 655394, Note_on_c, 0, 52, 40
1, 655458, Control_c, 0, 64, 93
1, 655473, Control_c, 0, 64, 71
1, 655488, Control_c, 0, 64, 21
1, 655502, Control_c, 0, 64, 0
1, 655517, Control_c, 0, 64, 43
1, 655532, Control_c, 0, 64, 63
1, 655547, Control_c, 0, 64, 67
1, 655569, Control_c, 0, 64, 74
1, 655584, Control_c, 0, 64, 83
1, 655599, Control_c, 0, 64, 99
1, 655614, Control_c, 0, 64, 127
1, 655653, Note_on_c, 0, 59, 47
1, 655654, Note_off_c, 0, 52, 58
1, 655740, Note_on_c, 0, 81, 57
1, 655754, Note_off_c, 0, 79, 54
1, 655799, Note_off_c, 0, 81, 63
1, 655808, Note_on_c, 0, 83, 61
1, 655837, Note_off_c, 0, 59, 59
1, 655837, Control_c, 0, 64, 107
1, 655852, Control_c, 0, 64, 79
1, 655864, Note_on_c, 0, 76, 67
1, 655866, Control_c, 0, 64, 58
1, 655877, Note_on_c, 0, 64, 51
1, 655881, Control_c, 0, 64, 0
1, 655883, Note_on_c, 0, 55, 46
1, 655896, Control_c, 0, 64, 17
1, 655911, Control_c, 0, 64, 63
1, 655926, Control_c, 0, 64, 70
1, 655928, Note_off_c, 0, 55, 62
1, 655940, Control_c, 0, 64, 78
1, 655955, Control_c, 0, 64, 92
1, 655970, Control_c, 0, 64, 126
1, 655984, Control_c, 0, 64, 127
1, 656006, Note_off_c, 0, 83, 34
1, 656073, Control_c, 0, 64, 111
1, 656078, Note_off_c, 0, 64, 51
1, 656084, Note_on_c, 0, 66, 62
1, 656087, Note_on_c, 0, 71, 76
1, 656088, Control_c, 0, 64, 79
1, 656103, Control_c, 0, 64, 55
1, 656106, Note_on_c, 0, 59, 50
1, 656118, Control_c, 0, 64, 0
1, 656133, Control_c, 0, 64, 35
1, 656148, Control_c, 0, 64, 64
1, 656150, Note_off_c, 0, 76, 61
1, 656163, Control_c, 0, 64, 74
1, 656177, Control_c, 0, 64, 86
1, 656192, Control_c, 0, 64, 107
1, 656207, Control_c, 0, 64, 127
1, 656296, Control_c, 0, 64, 112
1, 656318, Control_c, 0, 64, 79
1, 656329, Note_on_c, 0, 79, 78
1, 656332, Control_c, 0, 64, 47
1, 656342, Note_off_c, 0, 66, 54
1, 656347, Note_off_c, 0, 59, 60
1, 656347, Control_c, 0, 64, 0
1, 656349, Note_on_c, 0, 67, 62
1, 656351, Note_on_c, 0, 64, 49
1, 656377, Control_c, 0, 64, 52
1, 656392, Control_c, 0, 64, 68
1, 656392, Note_off_c, 0, 64, 64
1, 656405, Control_c, 0, 64, 79
1, 656420, Control_c, 0, 64, 99
1, 656435, Control_c, 0, 64, 127
1, 656489, Note_off_c, 0, 71, 57
1, 656540, Control_c, 0, 64, 90
1, 656543, Note_on_c, 0, 78, 77
1, 656547, Note_on_c, 0, 69, 62
1, 656554, Control_c, 0, 64, 64
1, 656558, Note_on_c, 0, 66, 52
1, 656560, Note_off_c, 0, 67, 56
1, 656569, Control_c, 0, 64, 0
1, 656599, Control_c, 0, 64, 59
1, 656613, Control_c, 0, 64, 68
1, 656618, Note_off_c, 0, 79, 52
1, 656628, Control_c, 0, 64, 76
1, 656643, Control_c, 0, 64, 88
1, 656658, Control_c, 0, 64, 97
1, 656673, Control_c, 0, 64, 100
1, 656702, Control_c, 0, 64, 98
1, 656717, Control_c, 0, 64, 89
1, 656732, Control_c, 0, 64, 76
1, 656747, Control_c, 0, 64, 64
1, 656753, Note_off_c, 0, 78, 62
1, 656756, Note_off_c, 0, 69, 57
1, 656762, Control_c, 0, 64, 0
1, 656765, Note_on_c, 0, 71, 58
1, 656772, Note_on_c, 0, 76, 69
1, 656779, Note_on_c, 0, 67, 51
1, 656827, Note_off_c, 0, 66, 51
1, 656839, Note_off_c, 0, 76, 58
1, 656845, Note_on_c, 0, 78, 75
1, 656921, Note_off_c, 0, 78, 62
1, 656923, Note_on_c, 0, 76, 69
1, 656972, Note_on_c, 0, 70, 56
1, 656979, Note_off_c, 0, 76, 59
1, 656991, Note_off_c, 0, 71, 57
1, 657004, Note_on_c, 0, 75, 70
1, 657081, Note_off_c, 0, 75, 60
1, 657093, Note_on_c, 0, 76, 70
1, 657257, Note_on_c, 0, 78, 64
1, 657271, Note_on_c, 0, 69, 48
1, 657277, Note_off_c, 0, 67, 55
1, 657284, Note_on_c, 0, 66, 43
1, 657284, Note_off_c, 0, 70, 52
1, 657292, Note_off_c, 0, 76, 56
1, 657393, Control_c, 0, 64, 55
1, 657408, Control_c, 0, 64, 69
1, 657423, Control_c, 0, 64, 78
1, 657424, Note_off_c, 0, 69, 56
1, 657437, Control_c, 0, 64, 88
1, 657452, Control_c, 0, 64, 99
1, 657467, Control_c, 0, 64, 108
1, 657482, Control_c, 0, 64, 113
1, 657496, Control_c, 0, 64, 118
1, 657511, Control_c, 0, 64, 127
1, 657518, Note_off_c, 0, 66, 61
1, 657564, Note_on_c, 0, 64, 45
1, 657572, Note_on_c, 0, 67, 48
1, 657838, Note_off_c, 0, 64, 43
1, 657888, Note_on_c, 0, 71, 48
1, 657896, Note_on_c, 0, 63, 39
1, 657902, Note_on_c, 0, 66, 39
1, 657934, Note_off_c, 0, 67, 33
1, 657948, Control_c, 0, 64, 124
1, 657963, Control_c, 0, 64, 101
1, 657978, Control_c, 0, 64, 83
1, 657993, Control_c, 0, 64, 70
1, 658008, Control_c, 0, 64, 47
1, 658023, Control_c, 0, 64, 0
1, 658049, Note_off_c, 0, 78, 61
1, 658157, Control_c, 0, 64, 54
1, 658172, Control_c, 0, 64, 65
1, 658186, Control_c, 0, 64, 70
1, 658200, Note_off_c, 0, 66, 55
1, 658201, Control_c, 0, 64, 75
1, 658216, Control_c, 0, 64, 80
1, 658217, Note_on_c, 0, 62, 44
1, 658231, Control_c, 0, 64, 86
1, 658246, Control_c, 0, 64, 91
1, 658260, Control_c, 0, 64, 96
1, 658273, Note_off_c, 0, 63, 59
1, 658275, Control_c, 0, 64, 100
1, 658290, Control_c, 0, 64, 103
1, 658305, Control_c, 0, 64, 108
1, 658320, Control_c, 0, 64, 115
1, 658334, Control_c, 0, 64, 127
1, 658481, Note_off_c, 0, 62, 37
1, 658601, Note_on_c, 0, 74, 57
1, 658619, Note_on_c, 0, 47, 41
1, 658667, Control_c, 0, 64, 118
1, 658682, Control_c, 0, 64, 90
1, 658697, Control_c, 0, 64, 70
1, 658711, Note_off_c, 0, 71, 60
1, 658712, Control_c, 0, 64, 0
1, 658786, Control_c, 0, 64, 40
1, 658801, Control_c, 0, 64, 65
1, 658816, Control_c, 0, 64, 74
1, 658830, Control_c, 0, 64, 87
1, 658845, Control_c, 0, 64, 105
1, 658860, Control_c, 0, 64, 127
1, 658884, Note_on_c, 0, 54, 44
1, 658940, Note_off_c, 0, 47, 41
1, 658967, Note_on_c, 0, 76, 59
1, 658969, Note_off_c, 0, 74, 54
1, 659036, Note_off_c, 0, 76, 60
1, 659039, Note_on_c, 0, 78, 69
1, 659047, Note_off_c, 0, 54, 55
1, 659069, Control_c, 0, 64, 108
1, 659083, Control_c, 0, 64, 81
1, 659098, Control_c, 0, 64, 60
1, 659108, Note_on_c, 0, 50, 56
1, 659110, Note_on_c, 0, 71, 66
1, 659113, Control_c, 0, 64, 0
1, 659125, Note_on_c, 0, 59, 46
1, 659143, Control_c, 0, 64, 28
1, 659153, Note_off_c, 0, 78, 57
1, 659157, Control_c, 0, 64, 63
1, 659172, Control_c, 0, 64, 70
1, 659180, Note_off_c, 0, 50, 64
1, 659187, Control_c, 0, 64, 81
1, 659201, Control_c, 0, 64, 98
1, 659216, Control_c, 0, 64, 127
1, 659313, Control_c, 0, 64, 95
1, 659327, Note_off_c, 0, 59, 56
1, 659328, Control_c, 0, 64, 71
1, 659343, Control_c, 0, 64, 0
1, 659345, Note_on_c, 0, 61, 51
1, 659349, Note_on_c, 0, 66, 67
1, 659358, Note_on_c, 0, 54, 51
1, 659372, Control_c, 0, 64, 24
1, 659387, Control_c, 0, 64, 64
1, 659390, Note_off_c, 0, 71, 62
1, 659401, Control_c, 0, 64, 76
1, 659416, Control_c, 0, 64, 92
1, 659431, Control_c, 0, 64, 127
1, 659534, Control_c, 0, 64, 103
1, 659549, Control_c, 0, 64, 74
1, 659563, Note_off_c, 0, 61, 53
1, 659564, Control_c, 0, 64, 0
1, 659577, Note_on_c, 0, 74, 71
1, 659587, Note_on_c, 0, 62, 49
1, 659591, Note_on_c, 0, 59, 36
1, 659599, Note_off_c, 0, 54, 61
1, 659608, Control_c, 0, 64, 57
1, 659623, Control_c, 0, 64, 70
1, 659626, Note_off_c, 0, 66, 59
1, 659638, Control_c, 0, 64, 85
1, 659641, Note_off_c, 0, 59, 61
1, 659653, Control_c, 0, 64, 127
1, 659772, Control_c, 0, 64, 111
1, 659787, Control_c, 0, 64, 78
1, 659802, Control_c, 0, 64, 40
1, 659807, Note_on_c, 0, 73, 72
1, 659808, Note_on_c, 0, 64, 56
1, 659809, Note_off_c, 0, 62, 58
1, 659817, Control_c, 0, 64, 0
1, 659824, Note_on_c, 0, 61, 44
1, 659833, Note_off_c, 0, 74, 63
1, 659847, Control_c, 0, 64, 59
1, 659862, Control_c, 0, 64, 71
1, 659877, Control_c, 0, 64, 86
1, 659892, Control_c, 0, 64, 127
1, 659995, Control_c, 0, 64, 105
1, 660010, Control_c, 0, 64, 75
1, 660022, Note_off_c, 0, 64, 61
1, 660024, Control_c, 0, 64, 0
1, 660036, Note_on_c, 0, 71, 68
1, 660037, Note_off_c, 0, 73, 60
1, 660041, Note_on_c, 0, 66, 53
1, 660052, Note_on_c, 0, 62, 39
1, 660052, Note_off_c, 0, 61, 44
1, 660076, Control_c, 0, 64, 63
1, 660091, Control_c, 0, 64, 70
1, 660106, Control_c, 0, 64, 79
1, 660121, Control_c, 0, 64, 89
1, 660136, Control_c, 0, 64, 98
1, 660149, Control_c, 0, 64, 100
1, 660160, Note_on_c, 0, 73, 69
1, 660164, Control_c, 0, 64, 98
1, 660169, Note_off_c, 0, 71, 52
1, 660179, Control_c, 0, 64, 90
1, 660194, Control_c, 0, 64, 77
1, 660209, Control_c, 0, 64, 63
1, 660223, Control_c, 0, 64, 0
1, 660286, Note_on_c, 0, 71, 61
1, 660288, Note_on_c, 0, 65, 53
1, 660312, Control_c, 0, 64, 26
1, 660320, Note_off_c, 0, 73, 51
1, 660327, Control_c, 0, 64, 66
1, 660342, Note_off_c, 0, 66, 34
1, 660342, Control_c, 0, 64, 77
1, 660355, Note_off_c, 0, 71, 63
1, 660357, Control_c, 0, 64, 84
1, 660372, Control_c, 0, 64, 80
1, 660374, Note_on_c, 0, 70, 66
1, 660386, Control_c, 0, 64, 69
1, 660401, Control_c, 0, 64, 58
1, 660416, Control_c, 0, 64, 27
1, 660431, Control_c, 0, 64, 0
1, 660443, Note_off_c, 0, 70, 61
1, 660453, Note_on_c, 0, 71, 69
1, 660534, Note_off_c, 0, 65, 57
1, 660541, Note_off_c, 0, 71, 62
1, 660550, Note_on_c, 0, 73, 74
1, 660556, Note_off_c, 0, 62, 61
1, 660559, Note_on_c, 0, 64, 51
1, 660568, Note_on_c, 0, 61, 57
1, 660625, Control_c, 0, 64, 50
1, 660640, Control_c, 0, 64, 72
1, 660654, Control_c, 0, 64, 87
1, 660669, Control_c, 0, 64, 127
1, 660686, Note_off_c, 0, 64, 60
1, 660766, Note_off_c, 0, 61, 37
1, 660854, Note_on_c, 0, 62, 63
1, 660854, Note_on_c, 0, 68, 77
1, 660857, Note_on_c, 0, 59, 60
1, 660869, Control_c, 0, 64, 82
1, 660884, Control_c, 0, 64, 58
1, 660899, Control_c, 0, 64, 0
1, 660914, Control_c, 0, 64, 56
1, 660929, Control_c, 0, 64, 70
1, 660944, Control_c, 0, 64, 82
1, 660944, Control_c, 0, 67, 124
1, 660959, Control_c, 0, 64, 109
1, 660959, Control_c, 0, 67, 117
1, 660965, Note_off_c, 0, 68, 63
1, 660968, Note_off_c, 0, 73, 61
1, 660973, Control_c, 0, 64, 127
1, 660973, Control_c, 0, 67, 107
1, 660988, Control_c, 0, 67, 95
1, 661003, Control_c, 0, 67, 82
1, 661018, Control_c, 0, 67, 69
1, 661033, Control_c, 0, 67, 58
1, 661047, Control_c, 0, 67, 47
1, 661062, Control_c, 0, 67, 39
1, 661077, Control_c, 0, 67, 30
1, 661092, Control_c, 0, 67, 20
1, 661107, Control_c, 0, 67, 8
1, 661121, Control_c, 0, 67, 0
1, 661197, Note_off_c, 0, 59, 60
1, 661203, Note_on_c, 0, 81, 101
1, 661211, Note_on_c, 0, 76, 91
1, 661214, Note_on_c, 0, 69, 90
1, 661220, Note_on_c, 0, 73, 86
1, 661222, Note_on_c, 0, 57, 72
1, 661223, Note_on_c, 0, 61, 84
1, 661225, Control_c, 0, 64, 88
1, 661230, Note_off_c, 0, 62, 60
1, 661239, Control_c, 0, 64, 53
1, 661254, Control_c, 0, 64, 0
1, 661284, Control_c, 0, 64, 27
1, 661299, Control_c, 0, 64, 67
1, 661314, Control_c, 0, 64, 82
1, 661330, Control_c, 0, 64, 127
1, 661380, Note_off_c, 0, 69, 56
1, 661412, Note_off_c, 0, 61, 65
1, 661435, Note_off_c, 0, 57, 60
1, 661519, Note_off_c, 0, 76, 57
1, 661573, Note_off_c, 0, 81, 62
1, 661594, Note_on_c, 0, 67, 98
1, 661632, Note_off_c, 0, 73, 33
1, 661653, Note_off_c, 0, 67, 64
1, 661834, Note_on_c, 0, 50, 91
1, 661846, Note_on_c, 0, 38, 73
1, 661862, Note_off_c, 0, 50, 67
1, 661870, Note_on_c, 0, 66, 86
1, 661870, Note_off_c, 0, 38, 65
1, 661919, Note_on_c, 0, 50, 91
1, 661922, Note_on_c, 0, 38, 89
1, 661924, Note_on_c, 0, 78, 97
1, 661929, Control_c, 0, 64, 92
1, 661944, Control_c, 0, 64, 59
1, 661959, Control_c, 0, 64, 0
1, 662003, Control_c, 0, 64, 65
1, 662018, Control_c, 0, 64, 82
1, 662033, Control_c, 0, 64, 127
1, 662056, Note_off_c, 0, 38, 61
1, 662080, Note_off_c, 0, 66, 58
1, 662098, Note_off_c, 0, 50, 65
1, 662312, Note_on_c, 0, 57, 94
1, 662488, Note_on_c, 0, 79, 79
1, 662521, Note_off_c, 0, 78, 49
1, 662537, Note_on_c, 0, 81, 87
1, 662554, Note_off_c, 0, 79, 63
1, 662605, Note_on_c, 0, 69, 83
1, 662606, Note_on_c, 0, 74, 99
1, 662614, Note_on_c, 0, 66, 80
1, 662634, Control_c, 0, 64, 82
1, 662649, Control_c, 0, 64, 62
1, 662664, Control_c, 0, 64, 59
1, 662679, Control_c, 0, 64, 69
1, 662693, Control_c, 0, 64, 80
1, 662708, Control_c, 0, 64, 106
1, 662723, Control_c, 0, 64, 127
1, 662801, Note_off_c, 0, 66, 48
1, 662825, Note_off_c, 0, 69, 52
1, 662969, Note_on_c, 0, 66, 77
1, 662970, Note_on_c, 0, 69, 76
1, 663024, Note_off_c, 0, 69, 60
1, 663045, Note_off_c, 0, 66, 50
1, 663201, Note_on_c, 0, 69, 83
1, 663204, Note_on_c, 0, 66, 80
1, 663231, Note_off_c, 0, 66, 62
1, 663239, Note_off_c, 0, 69, 57
1, 663245, Note_off_c, 0, 57, 61
1, 663410, Note_on_c, 0, 76, 98
1, 663411, Note_on_c, 0, 69, 77
1, 663412, Note_on_c, 0, 61, 85
1, 663415, Note_on_c, 0, 57, 75
1, 663434, Note_off_c, 0, 69, 68
1, 663437, Note_off_c, 0, 61, 67
1, 663441, Note_off_c, 0, 57, 68
1, 663445, Note_on_c, 0, 67, 31
1, 663452, Note_off_c, 0, 74, 55
1, 663466, Note_off_c, 0, 76, 61
1, 663481, Note_off_c, 0, 67, 52
1, 663484, Note_on_c, 0, 74, 61
1, 663635, Control_c, 0, 64, 85
1, 663649, Control_c, 0, 64, 17
1, 663664, Control_c, 0, 64, 0
1, 663675, Note_on_c, 0, 50, 94
1, 663676, Note_on_c, 0, 38, 88
1, 663678, Note_on_c, 0, 78, 100
1, 663688, Note_off_c, 0, 74, 59
1, 663692, Note_off_c, 0, 81, 58
1, 663705, Note_off_c, 0, 38, 66
1, 663706, Note_off_c, 0, 50, 67
1, 663708, Control_c, 0, 64, 66
1, 663725, Control_c, 0, 64, 81
1, 663739, Control_c, 0, 64, 127
1, 663963, Note_on_c, 0, 57, 79
1, 663984, Note_off_c, 0, 78, 57
1, 664049, Note_on_c, 0, 79, 86
1, 664083, Note_on_c, 0, 81, 95
1, 664110, Note_off_c, 0, 79, 64
1, 664142, Note_on_c, 0, 74, 95
1, 664145, Note_on_c, 0, 69, 76
1, 664146, Note_on_c, 0, 66, 72
1, 664146, Control_c, 0, 64, 96
1, 664161, Control_c, 0, 64, 67
1, 664176, Control_c, 0, 64, 0
1, 664190, Note_off_c, 0, 69, 52
1, 664195, Note_off_c, 0, 66, 51
1, 664220, Control_c, 0, 64, 46
1, 664235, Control_c, 0, 64, 65
1, 664250, Control_c, 0, 64, 77
1, 664265, Control_c, 0, 64, 95
1, 664280, Control_c, 0, 64, 127
1, 664449, Note_on_c, 0, 69, 70
1, 664455, Note_on_c, 0, 66, 62
1, 664494, Note_off_c, 0, 66, 57
1, 664509, Note_off_c, 0, 69, 59
1, 664709, Note_on_c, 0, 66, 72
1, 664714, Note_on_c, 0, 69, 69
1, 664737, Note_off_c, 0, 66, 65
1, 664737, Note_off_c, 0, 69, 68
1, 664995, Note_on_c, 0, 60, 68
1, 665004, Note_on_c, 0, 76, 78
1, 665005, Note_off_c, 0, 57, 55
1, 665010, Note_on_c, 0, 66, 57
1, 665016, Note_off_c, 0, 74, 59
1, 665025, Note_on_c, 0, 69, 51
1, 665089, Note_on_c, 0, 78, 85
1, 665089, Note_off_c, 0, 81, 52
1, 665102, Note_off_c, 0, 69, 40
1, 665115, Note_off_c, 0, 76, 59
1, 665117, Note_off_c, 0, 66, 35
1, 665195, Note_on_c, 0, 59, 73
1, 665195, Note_on_c, 0, 79, 88
1, 665204, Note_off_c, 0, 78, 62
1, 665207, Control_c, 0, 64, 79
1, 665217, Note_off_c, 0, 60, 61
1, 665221, Control_c, 0, 64, 41
1, 665236, Control_c, 0, 64, 0
1, 665280, Control_c, 0, 64, 55
1, 665302, Control_c, 0, 64, 66
1, 665318, Control_c, 0, 64, 75
1, 665333, Control_c, 0, 64, 86
1, 665348, Control_c, 0, 64, 103
1, 665363, Control_c, 0, 64, 127
1, 665432, Note_on_c, 0, 81, 89
1, 665440, Note_on_c, 0, 67, 60
1, 665442, Note_on_c, 0, 62, 55
1, 665463, Note_off_c, 0, 79, 59
1, 665513, Note_on_c, 0, 83, 92
1, 665537, Note_off_c, 0, 81, 64
1, 665602, Note_off_c, 0, 83, 59
1, 665610, Note_off_c, 0, 62, 57
1, 665617, Note_on_c, 0, 85, 100
1, 665626, Note_on_c, 0, 57, 66
1, 665630, Control_c, 0, 64, 84
1, 665636, Note_off_c, 0, 67, 35
1, 665644, Control_c, 0, 64, 59
1, 665648, Note_off_c, 0, 59, 55
1, 665659, Control_c, 0, 64, 0
1, 665704, Control_c, 0, 64, 28
1, 665718, Control_c, 0, 64, 62
1, 665733, Control_c, 0, 64, 71
1, 665748, Control_c, 0, 64, 82
1, 665762, Control_c, 0, 64, 100
1, 665777, Control_c, 0, 64, 127
1, 665858, Note_on_c, 0, 83, 91
1, 665865, Note_on_c, 0, 61, 69
1, 665865, Note_on_c, 0, 67, 65
1, 665875, Note_off_c, 0, 57, 54
1, 665944, Note_on_c, 0, 81, 91
1, 665955, Note_off_c, 0, 85, 59
1, 665984, Note_off_c, 0, 83, 65
1, 666081, Control_c, 0, 64, 103
1, 666082, Note_on_c, 0, 85, 94
1, 666089, Note_on_c, 0, 55, 71
1, 666093, Note_off_c, 0, 67, 39
1, 666095, Control_c, 0, 64, 72
1, 666110, Control_c, 0, 64, 0
1, 666117, Note_off_c, 0, 81, 64
1, 666186, Control_c, 0, 64, 52
1, 666200, Control_c, 0, 64, 68
1, 666215, Control_c, 0, 64, 79
1, 666230, Control_c, 0, 64, 96
1, 666245, Control_c, 0, 64, 127
1, 666316, Note_off_c, 0, 55, 60
1, 666317, Note_on_c, 0, 83, 91
1, 666337, Note_on_c, 0, 69, 64
1, 666344, Note_on_c, 0, 64, 56
1, 666372, Note_off_c, 0, 64, 65
1, 666417, Note_off_c, 0, 85, 51
1, 666431, Note_on_c, 0, 81, 96
1, 666457, Note_off_c, 0, 69, 37
1, 666467, Note_off_c, 0, 61, 58
1, 666469, Note_off_c, 0, 83, 64
1, 666615, Control_c, 0, 64, 78
1, 666630, Control_c, 0, 64, 0
1, 666637, Note_on_c, 0, 86, 103
1, 666640, Note_on_c, 0, 54, 69
1, 666664, Note_off_c, 0, 81, 66
1, 666689, Control_c, 0, 64, 47
1, 666704, Control_c, 0, 64, 67
1, 666718, Control_c, 0, 64, 84
1, 666730, Note_off_c, 0, 86, 65
1, 666733, Control_c, 0, 64, 127
1, 666870, Note_on_c, 0, 86, 90
1, 666904, Note_off_c, 0, 86, 64
1, 666958, Note_off_c, 0, 54, 61
1, 666962, Note_on_c, 0, 86, 92
1, 666977, Note_on_c, 0, 62, 62
1, 666977, Note_on_c, 0, 85, 93
1, 666986, Note_on_c, 0, 69, 62
1, 667004, Note_off_c, 0, 62, 64
1, 667013, Note_off_c, 0, 86, 59
1, 667022, Note_off_c, 0, 85, 62
1, 667041, Note_off_c, 0, 69, 53
1, 667157, Note_on_c, 0, 84, 82
1, 667175, Note_off_c, 0, 84, 72
1, 667187, Control_c, 0, 64, 95
1, 667202, Control_c, 0, 64, 62
1, 667213, Note_on_c, 0, 59, 77
1, 667216, Control_c, 0, 64, 0
1, 667228, Note_on_c, 0, 84, 94
1, 667233, Note_on_c, 0, 83, 91
1, 667261, Note_off_c, 0, 84, 66
1, 667261, Control_c, 0, 64, 65
1, 667275, Note_off_c, 0, 83, 67
1, 667276, Control_c, 0, 64, 74
1, 667290, Control_c, 0, 64, 91
1, 667305, Control_c, 0, 64, 127
1, 667392, Note_on_c, 0, 83, 86
1, 667406, Note_on_c, 0, 84, 70
1, 667420, Note_off_c, 0, 83, 63
1, 667421, Note_off_c, 0, 84, 41
1, 667424, Control_c, 0, 64, 101
1, 667439, Control_c, 0, 64, 73
1, 667441, Note_on_c, 0, 63, 74
1, 667452, Note_on_c, 0, 69, 62
1, 667453, Note_on_c, 0, 71, 63
1, 667454, Control_c, 0, 64, 59
1, 667454, Note_on_c, 0, 83, 80
1, 667455, Note_on_c, 0, 82, 97
1, 667469, Control_c, 0, 64, 66
1, 667481, Note_on_c, 0, 67, 16
1, 667483, Control_c, 0, 64, 78
1, 667484, Note_off_c, 0, 71, 61
1, 667487, Note_off_c, 0, 69, 58
1, 667489, Note_off_c, 0, 83, 66
1, 667498, Control_c, 0, 64, 99
1, 667500, Note_off_c, 0, 82, 66
1, 667505, Note_off_c, 0, 63, 61
1, 667513, Control_c, 0, 64, 127
1, 667526, Note_off_c, 0, 67, 39
1, 667608, Note_on_c, 0, 81, 94
1, 667639, Control_c, 0, 64, 86
1, 667639, Note_off_c, 0, 81, 65
1, 667654, Control_c, 0, 64, 51
1, 667668, Control_c, 0, 64, 0
1, 667685, Note_on_c, 0, 64, 70
1, 667687, Note_on_c, 0, 67, 69
1, 667687, Note_on_c, 0, 69, 58
1, 667689, Note_on_c, 0, 79, 96
1, 667697, Note_on_c, 0, 81, 79
1, 667697, Note_off_c, 0, 59, 62
1, 667698, Control_c, 0, 64, 67
1, 667702, Note_on_c, 0, 71, 50
1, 667709, Note_off_c, 0, 64, 69
1, 667711, Note_off_c, 0, 69, 60
1, 667711, Note_off_c, 0, 67, 67
1, 667714, Control_c, 0, 64, 84
1, 667718, Note_off_c, 0, 81, 72
1, 667722, Note_off_c, 0, 79, 67
1, 667727, Note_off_c, 0, 71, 61
1, 667728, Control_c, 0, 64, 127
1, 667795, Note_on_c, 0, 79, 104
1, 667818, Control_c, 0, 64, 84
1, 667827, Note_off_c, 0, 79, 66
1, 667833, Control_c, 0, 64, 60
1, 667847, Control_c, 0, 64, 0
1, 667902, Note_on_c, 0, 79, 105
1, 667910, Note_on_c, 0, 61, 86
1, 667910, Note_on_c, 0, 78, 72
1, 667913, Note_on_c, 0, 57, 68
1, 667927, Note_on_c, 0, 69, 54
1, 667928, Note_on_c, 0, 67, 49
1, 667931, Note_off_c, 0, 78, 57
1, 667931, Note_off_c, 0, 61, 71
1, 667939, Note_off_c, 0, 79, 69
1, 667941, Note_off_c, 0, 57, 67
1, 667952, Note_off_c, 0, 69, 59
1, 667956, Note_off_c, 0, 67, 54
1, 668038, Note_on_c, 0, 76, 88
1, 668076, Note_off_c, 0, 76, 64
1, 668135, Poly_aftertouch_c, 0, 82, 127
1, 668158, Poly_aftertouch_c, 0, 82, 0
1, 668182, Note_on_c, 0, 45, 88
1, 668183, Note_on_c, 0, 38, 81
1, 668187, Control_c, 0, 64, 64
1, 668188, Note_on_c, 0, 78, 107
1, 668202, Control_c, 0, 64, 86
1, 668205, Note_off_c, 0, 45, 70
1, 668208, Note_off_c, 0, 38, 66
1, 668217, Note_off_c, 0, 78, 70
1, 668217, Control_c, 0, 64, 127
1, 668316, Poly_aftertouch_c, 0, 45, 127
1, 668358, Poly_aftertouch_c, 0, 45, 0
1, 668481, Note_on_c, 0, 57, 79
1, 668605, Note_on_c, 0, 79, 80
1, 668647, Note_on_c, 0, 81, 90
1, 668654, Note_off_c, 0, 79, 63
1, 668701, Note_on_c, 0, 69, 77
1, 668702, Note_on_c, 0, 66, 77
1, 668703, Note_on_c, 0, 74, 102
1, 668728, Control_c, 0, 64, 88
1, 668743, Control_c, 0, 64, 63
1, 668758, Control_c, 0, 64, 0
1, 668773, Control_c, 0, 64, 35
1, 668787, Control_c, 0, 64, 65
1, 668802, Control_c, 0, 64, 77
1, 668817, Control_c, 0, 64, 95
1, 668832, Control_c, 0, 64, 127
1, 668843, Note_off_c, 0, 69, 25
1, 668858, Note_off_c, 0, 66, 23
1, 669002, Note_on_c, 0, 69, 68
1, 669010, Note_on_c, 0, 66, 67
1, 669087, Note_off_c, 0, 69, 48
1, 669168, Note_off_c, 0, 66, 40
1, 669213, Note_on_c, 0, 66, 66
1, 669214, Note_on_c, 0, 69, 70
1, 669237, Note_off_c, 0, 57, 59
1, 669290, Note_off_c, 0, 66, 49
1, 669304, Note_off_c, 0, 69, 46
1, 669417, Note_on_c, 0, 69, 78
1, 669418, Note_on_c, 0, 57, 78
1, 669418, Note_on_c, 0, 76, 97
1, 669422, Note_on_c, 0, 61, 84
1, 669439, Note_off_c, 0, 69, 70
1, 669440, Note_off_c, 0, 57, 70
1, 669442, Note_off_c, 0, 61, 71
1, 669447, Note_off_c, 0, 74, 59
1, 669470, Note_off_c, 0, 76, 62
1, 669561, Poly_aftertouch_c, 0, 76, 127
1, 669595, Poly_aftertouch_c, 0, 76, 0
1, 669609, Control_c, 0, 67, 8
1, 669624, Control_c, 0, 67, 0
1, 669639, Control_c, 0, 64, 104
1, 669654, Control_c, 0, 64, 68
1, 669669, Control_c, 0, 64, 0
1, 669686, Note_on_c, 0, 50, 96
1, 669690, Note_on_c, 0, 38, 88
1, 669690, Note_on_c, 0, 78, 93
1, 669707, Note_off_c, 0, 50, 75
1, 669712, Note_off_c, 0, 81, 60
1, 669714, Note_off_c, 0, 38, 68
1, 669714, Control_c, 0, 64, 63
1, 669728, Control_c, 0, 64, 75
1, 669743, Control_c, 0, 64, 96
1, 669758, Control_c, 0, 64, 127
1, 669973, Note_on_c, 0, 57, 78
1, 670057, Note_on_c, 0, 79, 86
1, 670082, Note_off_c, 0, 78, 58
1, 670096, Note_on_c, 0, 81, 85
1, 670130, Note_off_c, 0, 79, 63
1, 670159, Note_on_c, 0, 69, 81
1, 670161, Note_on_c, 0, 74, 96
1, 670162, Note_on_c, 0, 66, 73
1, 670211, Control_c, 0, 64, 108
1, 670226, Control_c, 0, 64, 79
1, 670240, Control_c, 0, 64, 62
1, 670255, Control_c, 0, 64, 64
1, 670270, Control_c, 0, 64, 70
1, 670285, Control_c, 0, 64, 78
1, 670292, Note_off_c, 0, 66, 55
1, 670292, Note_off_c, 0, 69, 57
1, 670300, Control_c, 0, 64, 94
1, 670314, Control_c, 0, 64, 127
1, 670389, Note_on_c, 0, 69, 78
1, 670395, Note_on_c, 0, 66, 78
1, 670454, Note_off_c, 0, 69, 52
1, 670476, Note_off_c, 0, 66, 46
1, 670580, Note_on_c, 0, 69, 82
1, 670584, Note_on_c, 0, 66, 88
1, 670621, Note_off_c, 0, 69, 58
1, 670647, Note_off_c, 0, 57, 0
1, 670684, Poly_aftertouch_c, 0, 57, 127
1, 670687, Note_on_c, 0, 57, 12
1, 670700, Note_off_c, 0, 66, 58
1, 670733, Note_off_c, 0, 57, 51
1, 670766, Note_on_c, 0, 76, 100
1, 670770, Note_on_c, 0, 61, 86
1, 670773, Note_on_c, 0, 57, 69
1, 670773, Note_on_c, 0, 69, 70
1, 670779, Note_off_c, 0, 74, 61
1, 670781, Note_on_c, 0, 67, 62
1, 670790, Note_off_c, 0, 61, 71
1, 670796, Note_off_c, 0, 69, 70
1, 670797, Note_off_c, 0, 57, 65
1, 670802, Note_off_c, 0, 67, 63
1, 670807, Note_off_c, 0, 76, 68
1, 671052, Note_on_c, 0, 78, 91
1, 671061, Note_on_c, 0, 50, 91
1, 671065, Note_on_c, 0, 62, 86
1, 671078, Control_c, 0, 64, 87
1, 671086, Note_off_c, 0, 81, 61
1, 671093, Control_c, 0, 64, 0
1, 671152, Control_c, 0, 64, 19
1, 671167, Control_c, 0, 64, 63
1, 671181, Control_c, 0, 64, 75
1, 671196, Control_c, 0, 64, 90
1, 671211, Control_c, 0, 64, 127
1, 671219, Note_off_c, 0, 50, 66
1, 671355, Note_off_c, 0, 62, 59
1, 671375, Note_on_c, 0, 79, 80
1, 671386, Note_off_c, 0, 78, 59
1, 671408, Note_on_c, 0, 81, 86
1, 671430, Note_off_c, 0, 79, 61
1, 671453, Note_on_c, 0, 66, 86
1, 671462, Note_on_c, 0, 74, 92
1, 671470, Control_c, 0, 64, 75
1, 671485, Control_c, 0, 64, 0
1, 671497, Note_off_c, 0, 81, 65
1, 671529, Control_c, 0, 64, 58
1, 671544, Control_c, 0, 64, 71
1, 671559, Control_c, 0, 64, 89
1, 671574, Control_c, 0, 64, 127
1, 671622, Note_off_c, 0, 74, 64
1, 671729, Note_on_c, 0, 67, 76
1, 671760, Note_off_c, 0, 66, 61
1, 671784, Note_on_c, 0, 69, 78
1, 671807, Note_off_c, 0, 67, 61
1, 671834, Note_off_c, 0, 69, 65
1, 671857, Note_on_c, 0, 62, 85
1, 671878, Note_on_c, 0, 54, 84
1, 671901, Control_c, 0, 64, 82
1, 671916, Control_c, 0, 64, 46
1, 671930, Control_c, 0, 64, 0
1, 671975, Control_c, 0, 64, 59
1, 671990, Control_c, 0, 64, 69
1, 672004, Control_c, 0, 64, 81
1, 672019, Control_c, 0, 64, 103
1, 672023, Note_off_c, 0, 62, 65
1, 672042, Control_c, 0, 64, 127
1, 672150, Note_on_c, 0, 55, 69
1, 672188, Note_off_c, 0, 54, 64
1, 672200, Note_on_c, 0, 57, 74
1, 672221, Note_off_c, 0, 55, 64
1, 672276, Note_on_c, 0, 50, 86
1, 672278, Control_c, 0, 64, 81
1, 672282, Note_on_c, 0, 42, 84
1, 672293, Control_c, 0, 64, 36
1, 672308, Control_c, 0, 64, 0
1, 672382, Control_c, 0, 64, 56
1, 672397, Control_c, 0, 64, 70
1, 672399, Note_off_c, 0, 50, 63
1, 672411, Control_c, 0, 64, 84
1, 672418, Note_off_c, 0, 57, 53
1, 672426, Control_c, 0, 64, 127
1, 672559, Note_on_c, 0, 43, 77
1, 672578, Note_off_c, 0, 42, 62
1, 672610, Note_on_c, 0, 45, 83
1, 672625, Note_off_c, 0, 43, 63
1, 672673, Note_on_c, 0, 66, 82
1, 672680, Control_c, 0, 64, 119
1, 672684, Note_on_c, 0, 38, 93
1, 672695, Control_c, 0, 64, 81
1, 672709, Control_c, 0, 64, 0
1, 672712, Note_off_c, 0, 45, 64
1, 672835, Control_c, 0, 64, 59
1, 672850, Control_c, 0, 64, 70
1, 672865, Control_c, 0, 64, 82
1, 672879, Control_c, 0, 64, 101
1, 672889, Note_off_c, 0, 38, 60
1, 672894, Control_c, 0, 64, 127
1, 673073, Note_on_c, 0, 67, 78
1, 673108, Note_off_c, 0, 66, 59
1, 673121, Note_on_c, 0, 69, 84
1, 673136, Note_off_c, 0, 67, 61
1, 673172, Note_on_c, 0, 62, 77
1, 673180, Note_on_c, 0, 54, 82
1, 673190, Control_c, 0, 64, 90
1, 673205, Control_c, 0, 64, 69
1, 673208, Note_off_c, 0, 69, 61
1, 673220, Control_c, 0, 64, 0
1, 673413, Control_c, 0, 64, 36
1, 673428, Control_c, 0, 64, 66
1, 673443, Control_c, 0, 64, 74
1, 673458, Control_c, 0, 64, 84
1, 673473, Control_c, 0, 64, 97
1, 673488, Control_c, 0, 64, 108
1, 673502, Control_c, 0, 64, 116
1, 673517, Control_c, 0, 64, 127
1, 673538, Note_on_c, 0, 55, 81
1, 673550, Note_off_c, 0, 54, 63
1, 673569, Control_c, 0, 67, 8
1, 673583, Control_c, 0, 67, 8
1, 673598, Control_c, 0, 67, 9
1, 673600, Note_on_c, 0, 57, 84
1, 673608, Note_off_c, 0, 55, 65
1, 673613, Control_c, 0, 67, 9
1, 673644, Control_c, 0, 67, 10
1, 673656, Note_off_c, 0, 62, 51
1, 673673, Control_c, 0, 67, 10
1, 673688, Control_c, 0, 64, 117
1, 673688, Control_c, 0, 67, 11
1, 673701, Note_on_c, 0, 59, 93
1, 673703, Control_c, 0, 64, 97
1, 673703, Control_c, 0, 67, 11
1, 673717, Control_c, 0, 64, 79
1, 673729, Note_off_c, 0, 57, 62
1, 673732, Control_c, 0, 64, 64
1, 673732, Control_c, 0, 67, 12
1, 673747, Control_c, 0, 64, 0
1, 673747, Control_c, 0, 67, 13
1, 673762, Control_c, 0, 67, 13
1, 673777, Control_c, 0, 67, 15
1, 673792, Control_c, 0, 67, 15
1, 673806, Control_c, 0, 67, 17
1, 673821, Control_c, 0, 67, 17
1, 673836, Control_c, 0, 67, 18
1, 673851, Control_c, 0, 67, 19
1, 673866, Control_c, 0, 67, 19
1, 673881, Control_c, 0, 64, 33
1, 673896, Control_c, 0, 64, 66
1, 673896, Control_c, 0, 67, 20
1, 673910, Control_c, 0, 64, 76
1, 673910, Control_c, 0, 67, 21
1, 673925, Control_c, 0, 64, 90
1, 673925, Control_c, 0, 67, 22
1, 673940, Control_c, 0, 64, 127
1, 673940, Control_c, 0, 67, 23
1, 673955, Control_c, 0, 67, 23
1, 673968, Note_off_c, 0, 59, 59
1, 673970, Control_c, 0, 67, 24
1, 673999, Control_c, 0, 67, 24
1, 674014, Control_c, 0, 67, 25
1, 674028, Control_c, 0, 67, 26
1, 674043, Control_c, 0, 67, 27
1, 674058, Control_c, 0, 67, 28
1, 674073, Control_c, 0, 67, 29
1, 674088, Control_c, 0, 67, 30
1, 674148, Control_c, 0, 67, 30
1, 674164, Note_on_c, 0, 54, 82
1, 674190, Note_off_c, 0, 54, 69
1, 674193, Control_c, 0, 67, 31
1, 674240, Note_on_c, 0, 54, 90
1, 674289, Control_c, 0, 64, 110
1, 674304, Control_c, 0, 64, 80
1, 674319, Control_c, 0, 64, 58
1, 674322, Note_on_c, 0, 57, 79
1, 674326, Note_off_c, 0, 54, 66
1, 674333, Control_c, 0, 64, 0
1, 674333, Control_c, 0, 67, 30
1, 674348, Control_c, 0, 67, 30
1, 674363, Control_c, 0, 67, 29
1, 674392, Control_c, 0, 67, 29
1, 674406, Control_c, 0, 67, 28
1, 674421, Control_c, 0, 64, 53
1, 674436, Control_c, 0, 64, 68
1, 674436, Control_c, 0, 67, 27
1, 674451, Control_c, 0, 64, 77
1, 674451, Control_c, 0, 67, 27
1, 674465, Control_c, 0, 64, 87
1, 674465, Control_c, 0, 67, 26
1, 674480, Control_c, 0, 64, 96
1, 674480, Control_c, 0, 67, 25
1, 674483, Note_off_c, 0, 57, 61
1, 674495, Control_c, 0, 64, 101
1, 674495, Control_c, 0, 67, 24
1, 674510, Control_c, 0, 64, 104
1, 674510, Control_c, 0, 67, 24
1, 674525, Control_c, 0, 64, 107
1, 674525, Control_c, 0, 67, 23
1, 674540, Control_c, 0, 64, 109
1, 674555, Control_c, 0, 64, 110
1, 674673, Control_c, 0, 67, 24
1, 674688, Control_c, 0, 67, 24
1, 674703, Control_c, 0, 67, 25
1, 674718, Control_c, 0, 67, 25
1, 674732, Control_c, 0, 67, 26
1, 674747, Control_c, 0, 64, 109
1, 674762, Control_c, 0, 64, 106
1, 674762, Control_c, 0, 67, 27
1, 674765, Note_on_c, 0, 55, 84
1, 674777, Control_c, 0, 64, 99
1, 674777, Control_c, 0, 67, 27
1, 674792, Control_c, 0, 64, 88
1, 674792, Control_c, 0, 67, 28
1, 674804, Note_off_c, 0, 55, 62
1, 674806, Control_c, 0, 64, 75
1, 674806, Control_c, 0, 67, 29
1, 674821, Control_c, 0, 64, 64
1, 674821, Control_c, 0, 67, 30
1, 674836, Control_c, 0, 64, 38
1, 674836, Control_c, 0, 67, 30
1, 674850, Control_c, 0, 64, 0
1, 674850, Control_c, 0, 67, 31
1, 674865, Control_c, 0, 67, 31
1, 674873, Note_on_c, 0, 54, 75
1, 674896, Control_c, 0, 67, 32
1, 674985, Control_c, 0, 67, 31
1, 675096, Control_c, 0, 67, 32
1, 675200, Control_c, 0, 67, 31
1, 675229, Control_c, 0, 67, 30
1, 675244, Control_c, 0, 67, 30
1, 675254, Note_off_c, 0, 54, 60
1, 675255, Note_on_c, 0, 52, 55
1, 675273, Control_c, 0, 67, 29
1, 675288, Control_c, 0, 67, 29
1, 675303, Control_c, 0, 67, 28
1, 675318, Control_c, 0, 67, 28
1, 675333, Control_c, 0, 67, 27
1, 675348, Control_c, 0, 67, 26
1, 675363, Control_c, 0, 67, 25
1, 675377, Control_c, 0, 67, 23
1, 675392, Control_c, 0, 67, 21
1, 675407, Control_c, 0, 64, 64
1, 675407, Control_c, 0, 67, 17
1, 675422, Control_c, 0, 64, 77
1, 675422, Control_c, 0, 67, 11
1, 675437, Control_c, 0, 64, 99
1, 675437, Control_c, 0, 67, 0
1, 675452, Control_c, 0, 64, 127
1, 675588, Note_off_c, 0, 52, 59
1, 675673, Control_c, 0, 64, 90
1, 675688, Control_c, 0, 64, 69
1, 675704, Control_c, 0, 64, 0
1, 675816, Control_c, 0, 64, 48
1, 675831, Control_c, 0, 64, 66
1, 675845, Control_c, 0, 64, 75
1, 675860, Control_c, 0, 64, 85
1, 675874, Note_on_c, 0, 79, 98
1, 675875, Control_c, 0, 64, 102
1, 675876, Note_on_c, 0, 52, 88
1, 675876, Note_on_c, 0, 64, 93
1, 675879, Note_on_c, 0, 67, 95
1, 675880, Note_on_c, 0, 59, 89
1, 675880, Note_on_c, 0, 76, 92
1, 675881, Note_on_c, 0, 55, 85
1, 675881, Note_on_c, 0, 71, 93
1, 675890, Control_c, 0, 64, 127
1, 675894, Note_off_c, 0, 64, 72
1, 675903, Note_off_c, 0, 59, 65
1, 675905, Note_off_c, 0, 55, 69
1, 675909, Note_off_c, 0, 52, 62
1, 675911, Note_off_c, 0, 67, 61
1, 675915, Note_off_c, 0, 71, 66
1, 675920, Note_off_c, 0, 79, 65
1, 675922, Note_off_c, 0, 76, 65
1, 676683, Control_c, 0, 67, 8
1, 676698, Control_c, 0, 64, 101
1, 676698, Control_c, 0, 67, 11
1, 676713, Control_c, 0, 64, 76
1, 676713, Control_c, 0, 67, 14
1, 676728, Control_c, 0, 64, 59
1, 676728, Control_c, 0, 67, 17
1, 676743, Control_c, 0, 64, 0
1, 676743, Control_c, 0, 67, 20
1, 676758, Control_c, 0, 67, 21
1, 676772, Control_c, 0, 67, 22
1, 676787, Control_c, 0, 67, 23
1, 676802, Control_c, 0, 67, 24
1, 676817, Control_c, 0, 67, 25
1, 676832, Control_c, 0, 67, 27
1, 676846, Control_c, 0, 67, 28
1, 676861, Control_c, 0, 67, 30
1, 676876, Control_c, 0, 67, 31
1, 676891, Control_c, 0, 67, 32
1, 676906, Control_c, 0, 67, 32
1, 676935, Control_c, 0, 67, 33
1, 676965, Control_c, 0, 67, 33
1, 676968, Note_on_c, 0, 55, 67
1, 676980, Control_c, 0, 67, 34
1, 676994, Control_c, 0, 67, 35
1, 677009, Control_c, 0, 67, 37
1, 677024, Control_c, 0, 67, 38
1, 677039, Control_c, 0, 67, 39
1, 677053, Control_c, 0, 67, 40
1, 677068, Control_c, 0, 67, 42
1, 677083, Control_c, 0, 67, 44
1, 677097, Note_on_c, 0, 54, 70
1, 677098, Control_c, 0, 67, 45
1, 677113, Control_c, 0, 67, 46
1, 677127, Note_off_c, 0, 55, 60
1, 677127, Control_c, 0, 67, 48
1, 677142, Control_c, 0, 67, 49
1, 677157, Control_c, 0, 67, 50
1, 677172, Control_c, 0, 67, 51
1, 677225, Note_on_c, 0, 52, 75
1, 677252, Note_off_c, 0, 54, 64
1, 677344, Control_c, 0, 64, 56
1, 677356, Note_on_c, 0, 50, 79
1, 677356, Note_off_c, 0, 52, 63
1, 677358, Control_c, 0, 64, 69
1, 677358, Control_c, 0, 67, 51
1, 677373, Control_c, 0, 64, 80
1, 677387, Note_off_c, 0, 50, 68
1, 677388, Control_c, 0, 64, 91
1, 677403, Control_c, 0, 64, 103
1, 677418, Control_c, 0, 64, 114
1, 677418, Control_c, 0, 67, 51
1, 677432, Control_c, 0, 64, 123
1, 677447, Control_c, 0, 64, 124
1, 677447, Control_c, 0, 67, 52
1, 677462, Control_c, 0, 67, 52
1, 677476, Control_c, 0, 64, 123
1, 677476, Control_c, 0, 67, 53
1, 677487, Note_on_c, 0, 50, 66
1, 677491, Control_c, 0, 64, 112
1, 677491, Control_c, 0, 67, 53
1, 677506, Control_c, 0, 64, 100
1, 677506, Control_c, 0, 67, 56
1, 677521, Control_c, 0, 64, 85
1, 677521, Control_c, 0, 67, 58
1, 677527, Note_on_c, 0, 49, 76
1, 677536, Control_c, 0, 64, 71
1, 677536, Control_c, 0, 67, 60
1, 677550, Control_c, 0, 64, 33
1, 677550, Control_c, 0, 67, 62
1, 677554, Note_off_c, 0, 50, 61
1, 677565, Control_c, 0, 64, 0
1, 677565, Control_c, 0, 67, 64
1, 677580, Control_c, 0, 67, 64
1, 677595, Control_c, 0, 67, 65
1, 677610, Control_c, 0, 67, 66
1, 677625, Control_c, 0, 67, 67
1, 677640, Control_c, 0, 67, 68
1, 677655, Control_c, 0, 67, 68
1, 677669, Control_c, 0, 67, 69
1, 677677, Note_on_c, 0, 47, 70
1, 677682, Note_off_c, 0, 49, 63
1, 677699, Control_c, 0, 67, 70
1, 677714, Control_c, 0, 67, 70
1, 677729, Control_c, 0, 67, 71
1, 677743, Control_c, 0, 67, 72
1, 677758, Control_c, 0, 67, 73
1, 677788, Control_c, 0, 67, 73
1, 677803, Control_c, 0, 67, 74
1, 677817, Control_c, 0, 67, 74
1, 677832, Control_c, 0, 67, 75
1, 677847, Control_c, 0, 67, 76
1, 677862, Control_c, 0, 67, 77
1, 677876, Control_c, 0, 67, 78
1, 677887, Note_off_c, 0, 47, 64
1, 677891, Control_c, 0, 67, 80
1, 677906, Note_on_c, 0, 46, 60
1, 677906, Control_c, 0, 67, 81
1, 677921, Control_c, 0, 67, 82
1, 677936, Control_c, 0, 67, 83
1, 677950, Control_c, 0, 67, 85
1, 677965, Control_c, 0, 67, 86
1, 677980, Control_c, 0, 67, 87
1, 677995, Control_c, 0, 67, 88
1, 678010, Control_c, 0, 67, 89
1, 678032, Control_c, 0, 67, 89
1, 678167, Control_c, 0, 64, 46
1, 678181, Control_c, 0, 64, 65
1, 678181, Control_c, 0, 67, 89
1, 678196, Control_c, 0, 64, 72
1, 678196, Control_c, 0, 67, 88
1, 678211, Control_c, 0, 64, 81
1, 678211, Control_c, 0, 67, 87
1, 678226, Control_c, 0, 64, 100
1, 678226, Control_c, 0, 67, 86
1, 678241, Control_c, 0, 64, 127
1, 678241, Control_c, 0, 67, 85
1, 678255, Control_c, 0, 67, 85
1, 678264, Note_off_c, 0, 46, 60
1, 678270, Control_c, 0, 67, 84
1, 678285, Control_c, 0, 67, 83
1, 678299, Control_c, 0, 67, 82
1, 678314, Control_c, 0, 67, 82
1, 678329, Control_c, 0, 67, 81
1, 678359, Control_c, 0, 67, 81
1, 678433, Control_c, 0, 67, 81
1, 678463, Control_c, 0, 67, 82
1, 678492, Control_c, 0, 67, 82
1, 678507, Control_c, 0, 64, 91
1, 678522, Control_c, 0, 64, 76
1, 678537, Control_c, 0, 64, 65
1, 678552, Control_c, 0, 64, 50
1, 678566, Control_c, 0, 64, 37
1, 678596, Control_c, 0, 64, 38
1, 678611, Control_c, 0, 64, 44
1, 678625, Control_c, 0, 64, 57
1, 678640, Control_c, 0, 64, 66
1, 678655, Control_c, 0, 64, 76
1, 678656, Note_on_c, 0, 61, 94
1, 678659, Note_on_c, 0, 54, 87
1, 678660, Note_on_c, 0, 49, 84
1, 678660, Note_on_c, 0, 78, 90
1, 678662, Note_on_c, 0, 46, 74
1, 678664, Note_on_c, 0, 73, 94
1, 678665, Note_on_c, 0, 66, 84
1, 678670, Control_c, 0, 64, 92
1, 678675, Note_off_c, 0, 61, 71
1, 678680, Note_off_c, 0, 54, 72
1, 678683, Note_off_c, 0, 66, 72
1, 678683, Note_off_c, 0, 73, 71
1, 678683, Note_off_c, 0, 49, 68
1, 678685, Note_off_c, 0, 46, 66
1, 678685, Control_c, 0, 64, 127
1, 678689, Note_off_c, 0, 78, 66
1, 678699, Control_c, 0, 67, 82
1, 678714, Control_c, 0, 67, 81
1, 678729, Control_c, 0, 67, 81
1, 678744, Control_c, 0, 67, 80
1, 678759, Control_c, 0, 67, 79
1, 678781, Control_c, 0, 67, 79
1, 678793, Poly_aftertouch_c, 0, 49, 127
1, 678825, Control_c, 0, 67, 79
1, 678835, Poly_aftertouch_c, 0, 49, 0
1, 678840, Control_c, 0, 67, 80
1, 678884, Control_c, 0, 67, 79
1, 678900, Control_c, 0, 67, 78
1, 678915, Control_c, 0, 67, 77
1, 678929, Control_c, 0, 67, 77
1, 678974, Control_c, 0, 67, 77
1, 678989, Control_c, 0, 67, 78
1, 679003, Control_c, 0, 67, 79
1, 679018, Control_c, 0, 67, 79
1, 679033, Control_c, 0, 67, 80
1, 679048, Control_c, 0, 67, 80
1, 679077, Control_c, 0, 67, 81
1, 679226, Control_c, 0, 67, 80
1, 679447, Control_c, 0, 67, 81
1, 679492, Control_c, 0, 67, 81
1, 679507, Control_c, 0, 64, 106
1, 679529, Control_c, 0, 64, 92
1, 679529, Control_c, 0, 67, 82
1, 679544, Control_c, 0, 64, 82
1, 679559, Control_c, 0, 64, 72
1, 679559, Control_c, 0, 67, 82
1, 679574, Control_c, 0, 64, 64
1, 679589, Control_c, 0, 64, 56
1, 679589, Control_c, 0, 67, 83
1, 679603, Control_c, 0, 64, 48
1, 679619, Control_c, 0, 64, 39
1, 679634, Control_c, 0, 64, 11
1, 679648, Control_c, 0, 64, 0
1, 679678, Control_c, 0, 67, 83
1, 679709, Control_c, 0, 67, 84
1, 679871, Control_c, 0, 64, 32
1, 679886, Control_c, 0, 64, 56
1, 679901, Control_c, 0, 64, 63
1, 679916, Control_c, 0, 64, 66
1, 679931, Control_c, 0, 64, 70
1, 679945, Control_c, 0, 64, 73
1, 679960, Control_c, 0, 64, 77
1, 679975, Control_c, 0, 64, 82
1, 679990, Control_c, 0, 64, 89
1, 680005, Control_c, 0, 64, 96
1, 680005, Control_c, 0, 67, 83
1, 680019, Control_c, 0, 64, 105
1, 680034, Control_c, 0, 64, 120
1, 680034, Control_c, 0, 67, 83
1, 680046, Note_on_c, 0, 46, 59
1, 680049, Control_c, 0, 64, 127
1, 680078, Note_off_c, 0, 46, 61
1, 680138, Control_c, 0, 67, 82
1, 680293, Control_c, 0, 67, 82
1, 680671, Note_on_c, 0, 52, 52
1, 680724, Control_c, 0, 64, 109
1, 680724, Control_c, 0, 67, 82
1, 680739, Control_c, 0, 64, 86
1, 680739, Control_c, 0, 67, 83
1, 680754, Control_c, 0, 64, 70
1, 680754, Control_c, 0, 67, 84
1, 680768, Control_c, 0, 64, 45
1, 680768, Control_c, 0, 67, 84
1, 680783, Control_c, 0, 64, 0
1, 680783, Control_c, 0, 67, 85
1, 680857, Control_c, 0, 64, 50
1, 680872, Control_c, 0, 64, 63
1, 680886, Control_c, 0, 64, 69
1, 680901, Control_c, 0, 64, 73
1, 680916, Control_c, 0, 64, 77
1, 680931, Control_c, 0, 64, 80
1, 680946, Control_c, 0, 64, 84
1, 680961, Control_c, 0, 64, 88
1, 680976, Control_c, 0, 64, 93
1, 680990, Control_c, 0, 64, 98
1, 680990, Control_c, 0, 67, 84
1, 681005, Control_c, 0, 64, 104
1, 681027, Control_c, 0, 64, 109
1, 681042, Control_c, 0, 64, 116
1, 681057, Control_c, 0, 64, 127
1, 681104, Note_off_c, 0, 52, 35
1, 681146, Control_c, 0, 67, 85
1, 681205, Control_c, 0, 67, 85
1, 681250, Control_c, 0, 67, 86
1, 681310, Control_c, 0, 67, 86
1, 681483, Note_on_c, 0, 50, 61
1, 681503, Control_c, 0, 64, 115
1, 681517, Control_c, 0, 64, 98
1, 681532, Control_c, 0, 64, 83
1, 681541, Note_off_c, 0, 50, 59
1, 681547, Control_c, 0, 64, 70
1, 681547, Control_c, 0, 67, 86
1, 681562, Control_c, 0, 64, 59
1, 681577, Control_c, 0, 64, 17
1, 681591, Control_c, 0, 64, 0
1, 681591, Control_c, 0, 67, 85
1, 681611, Note_on_c, 0, 49, 60
1, 681709, Control_c, 0, 67, 86
1, 681724, Control_c, 0, 67, 86
1, 681739, Control_c, 0, 67, 87
1, 681754, Control_c, 0, 67, 87
1, 681777, Control_c, 0, 67, 88
1, 681791, Control_c, 0, 67, 88
1, 681806, Control_c, 0, 67, 89
1, 681821, Control_c, 0, 67, 89
1, 681836, Control_c, 0, 64, 14
1, 681836, Control_c, 0, 67, 90
1, 681850, Control_c, 0, 64, 17
1, 681850, Control_c, 0, 67, 92
1, 681864, Control_c, 0, 64, 19
1, 681864, Control_c, 0, 67, 93
1, 681879, Control_c, 0, 64, 21
1, 681879, Control_c, 0, 67, 94
1, 681894, Control_c, 0, 67, 96
1, 681909, Control_c, 0, 67, 97
1, 681923, Control_c, 0, 67, 98
1, 681938, Control_c, 0, 67, 100
1, 681953, Control_c, 0, 67, 101
1, 681968, Control_c, 0, 67, 102
1, 681983, Control_c, 0, 67, 103
1, 681997, Control_c, 0, 64, 17
1, 681997, Control_c, 0, 67, 104
1, 682012, Control_c, 0, 64, 0
1, 682012, Control_c, 0, 67, 105
1, 682021, Note_off_c, 0, 49, 55
1, 682027, Control_c, 0, 67, 105
1, 682041, Control_c, 0, 67, 106
1, 682054, Note_on_c, 0, 47, 41
1, 682056, Control_c, 0, 67, 106
1, 682146, Control_c, 0, 67, 106
1, 682161, Control_c, 0, 67, 104
1, 682176, Control_c, 0, 64, 63
1, 682176, Control_c, 0, 67, 102
1, 682191, Control_c, 0, 64, 75
1, 682191, Control_c, 0, 67, 100
1, 682206, Control_c, 0, 64, 97
1, 682206, Control_c, 0, 67, 98
1, 682220, Control_c, 0, 64, 127
1, 682220, Control_c, 0, 67, 97
1, 682235, Control_c, 0, 67, 95
1, 682245, Note_off_c, 0, 47, 48
1, 682250, Control_c, 0, 67, 93
1, 682264, Control_c, 0, 67, 91
1, 682279, Control_c, 0, 67, 87
1, 682294, Control_c, 0, 67, 83
1, 682309, Control_c, 0, 67, 79
1, 682324, Control_c, 0, 67, 76
1, 682338, Control_c, 0, 67, 74
1, 682353, Control_c, 0, 67, 74
1, 682368, Control_c, 0, 67, 73
1, 682383, Control_c, 0, 67, 73
1, 682398, Control_c, 0, 67, 72
1, 682412, Control_c, 0, 67, 72
1, 682427, Control_c, 0, 67, 71
1, 682442, Control_c, 0, 64, 90
1, 682442, Control_c, 0, 67, 70
1, 682457, Control_c, 0, 64, 69
1, 682457, Control_c, 0, 67, 68
1, 682472, Control_c, 0, 64, 21
1, 682472, Control_c, 0, 67, 65
1, 682482, Note_on_c, 0, 62, 81
1, 682483, Note_on_c, 0, 78, 95
1, 682486, Note_on_c, 0, 66, 91
1, 682487, Note_on_c, 0, 47, 74
1, 682487, Control_c, 0, 64, 36
1, 682487, Control_c, 0, 67, 60
1, 682487, Note_on_c, 0, 50, 76
1, 682489, Note_on_c, 0, 71, 84
1, 682490, Note_on_c, 0, 54, 76
1, 682493, Note_on_c, 0, 74, 82
1, 682502, Control_c, 0, 64, 64
1, 682502, Control_c, 0, 67, 52
1, 682505, Note_off_c, 0, 62, 68
1, 682516, Note_off_c, 0, 66, 65
1, 682520, Note_off_c, 0, 71, 67
1, 682522, Note_off_c, 0, 54, 68
1, 682523, Note_off_c, 0, 50, 69
1, 682523, Note_off_c, 0, 74, 70
1, 682524, Control_c, 0, 64, 74
1, 682524, Control_c, 0, 67, 39
1, 682525, Note_off_c, 0, 47, 68
1, 682532, Note_off_c, 0, 78, 67
1, 682538, Control_c, 0, 64, 87
1, 682538, Control_c, 0, 67, 25
1, 682553, Control_c, 0, 64, 115
1, 682553, Control_c, 0, 67, 14
1, 682568, Control_c, 0, 64, 127
1, 682568, Control_c, 0, 67, 0
1, 682761, Control_c, 0, 64, 97
1, 682776, Control_c, 0, 64, 76
1, 682776, Control_c, 0, 67, 9
1, 682790, Control_c, 0, 64, 47
1, 682790, Control_c, 0, 67, 12
1, 682805, Control_c, 0, 64, 0
1, 682805, Control_c, 0, 67, 15
1, 682820, Control_c, 0, 67, 16
1, 682835, Control_c, 0, 67, 17
1, 682850, Control_c, 0, 67, 18
1, 682879, Control_c, 0, 67, 17
1, 682895, Control_c, 0, 67, 15
1, 682910, Control_c, 0, 64, 58
1, 682910, Control_c, 0, 67, 13
1, 682925, Control_c, 0, 64, 75
1, 682925, Control_c, 0, 67, 11
1, 682931, Note_on_c, 0, 47, 87
1, 682940, Control_c, 0, 64, 95
1, 682940, Control_c, 0, 67, 9
1, 682955, Control_c, 0, 64, 127
1, 682955, Control_c, 0, 67, 0
1, 682971, Note_off_c, 0, 47, 67
1, 683073, Control_c, 0, 64, 83
1, 683087, Control_c, 0, 64, 61
1, 683098, Note_on_c, 0, 47, 84
1, 683102, Control_c, 0, 64, 0
1, 683167, Note_on_c, 0, 54, 93
1, 683184, Note_off_c, 0, 47, 66
1, 683205, Control_c, 0, 64, 34
1, 683220, Control_c, 0, 64, 70
1, 683231, Note_off_c, 0, 54, 67
1, 683235, Control_c, 0, 64, 91
1, 683250, Control_c, 0, 64, 127
1, 683392, Control_c, 0, 64, 81
1, 683407, Control_c, 0, 64, 0
1, 683522, Note_on_c, 0, 52, 94
1, 683563, Note_off_c, 0, 52, 65
1, 683596, Note_on_c, 0, 50, 94
1, 683643, Control_c, 0, 67, 8
1, 683658, Control_c, 0, 67, 13
1, 683673, Control_c, 0, 67, 18
1, 683689, Control_c, 0, 67, 22
1, 683704, Control_c, 0, 67, 23
1, 683718, Control_c, 0, 67, 24
1, 683778, Control_c, 0, 67, 23
1, 683792, Control_c, 0, 67, 22
1, 683807, Control_c, 0, 67, 21
1, 683822, Control_c, 0, 67, 20
1, 683837, Control_c, 0, 67, 19
1, 683852, Control_c, 0, 67, 18
1, 683867, Control_c, 0, 67, 17
1, 683870, Note_on_c, 0, 49, 89
1, 683871, Note_off_c, 0, 50, 67
1, 683882, Control_c, 0, 67, 15
1, 683897, Control_c, 0, 67, 12
1, 683911, Control_c, 0, 67, 9
1, 683926, Control_c, 0, 67, 0
1, 683985, Control_c, 0, 64, 64
1, 684000, Control_c, 0, 64, 78
1, 684022, Control_c, 0, 64, 108
1, 684035, Note_off_c, 0, 49, 64
1, 684037, Control_c, 0, 64, 127
1, 684200, Control_c, 0, 64, 99
1, 684215, Control_c, 0, 64, 66
1, 684230, Control_c, 0, 64, 0
1, 684258, Note_on_c, 0, 58, 81
1, 684258, Note_on_c, 0, 64, 96
1, 684258, Note_on_c, 0, 78, 99
1, 684259, Note_on_c, 0, 54, 85
1, 684260, Note_on_c, 0, 66, 97
1, 684263, Note_on_c, 0, 76, 92
1, 684263, Note_on_c, 0, 73, 93
1, 684266, Note_on_c, 0, 49, 79
1, 684279, Note_off_c, 0, 64, 70
1, 684287, Note_off_c, 0, 58, 66
1, 684288, Note_off_c, 0, 49, 67
1, 684289, Note_off_c, 0, 66, 66
1, 684289, Control_c, 0, 64, 64
1, 684291, Note_off_c, 0, 54, 68
1, 684297, Note_off_c, 0, 76, 67
1, 684298, Note_off_c, 0, 73, 65
1, 684298, Note_off_c, 0, 78, 69
1, 684304, Control_c, 0, 64, 83
1, 684318, Control_c, 0, 64, 127
1, 684711, Note_on_c, 0, 49, 94
1, 684771, Control_c, 0, 64, 97
1, 684786, Control_c, 0, 64, 64
1, 684797, Note_on_c, 0, 50, 90
1, 684801, Control_c, 0, 64, 0
1, 684806, Note_off_c, 0, 49, 65
1, 684876, Note_off_c, 0, 50, 67
1, 684880, Note_on_c, 0, 52, 90
1, 684962, Note_on_c, 0, 54, 95
1, 684971, Note_off_c, 0, 52, 56
1, 685062, Note_off_c, 0, 54, 64
1, 685065, Note_on_c, 0, 57, 92
1, 685122, Note_off_c, 0, 57, 64
1, 685184, Note_on_c, 0, 55, 91
1, 685258, Note_off_c, 0, 55, 62
1, 685300, Note_on_c, 0, 54, 92
1, 685346, Note_off_c, 0, 54, 67
1, 685405, Note_on_c, 0, 52, 86
1, 685469, Note_off_c, 0, 52, 59
1, 685563, Control_c, 0, 67, 10
1, 685568, Note_on_c, 0, 52, 76
1, 685578, Control_c, 0, 67, 14
1, 685593, Control_c, 0, 67, 16
1, 685608, Control_c, 0, 67, 17
1, 685623, Control_c, 0, 67, 17
1, 685638, Control_c, 0, 67, 18
1, 685653, Control_c, 0, 67, 19
1, 685667, Control_c, 0, 67, 19
1, 685682, Control_c, 0, 67, 20
1, 685697, Control_c, 0, 67, 20
1, 685712, Control_c, 0, 67, 21
1, 685742, Control_c, 0, 67, 20
1, 685757, Control_c, 0, 67, 19
1, 685771, Control_c, 0, 67, 18
1, 685785, Note_off_c, 0, 52, 61
1, 685786, Note_on_c, 0, 50, 65
1, 685786, Control_c, 0, 67, 17
1, 685801, Control_c, 0, 67, 16
1, 685815, Control_c, 0, 67, 14
1, 685830, Control_c, 0, 67, 12
1, 685845, Control_c, 0, 67, 10
1, 685860, Control_c, 0, 67, 8
1, 685875, Control_c, 0, 67, 0
1, 685934, Control_c, 0, 64, 54
1, 685949, Control_c, 0, 64, 68
1, 685963, Control_c, 0, 64, 79
1, 685978, Control_c, 0, 64, 98
1, 685986, Note_off_c, 0, 50, 56
1, 685993, Control_c, 0, 64, 127
1, 686069, Note_on_c, 0, 54, 85
1, 686079, Note_on_c, 0, 50, 82
1, 686112, Note_off_c, 0, 50, 65
1, 686121, Note_off_c, 0, 54, 67
1, 686359, Note_on_c, 0, 83, 98
1, 686360, Note_on_c, 0, 66, 81
1, 686363, Note_on_c, 0, 78, 97
1, 686364, Note_on_c, 0, 62, 77
1, 686368, Note_on_c, 0, 71, 98
1, 686368, Note_on_c, 0, 74, 90
1, 686380, Note_off_c, 0, 66, 72
1, 686386, Note_off_c, 0, 62, 67
1, 686386, Note_off_c, 0, 71, 71
1, 686386, Note_off_c, 0, 74, 73
1, 686399, Note_off_c, 0, 78, 69
1, 686404, Note_off_c, 0, 83, 70
1, 687033, Control_c, 0, 67, 8
1, 687048, Control_c, 0, 67, 9
1, 687122, Control_c, 0, 67, 8
1, 687181, Control_c, 0, 64, 112
1, 687196, Control_c, 0, 64, 95
1, 687196, Control_c, 0, 67, 9
1, 687210, Control_c, 0, 64, 83
1, 687210, Control_c, 0, 67, 10
1, 687225, Control_c, 0, 64, 72
1, 687225, Control_c, 0, 67, 11
1, 687240, Control_c, 0, 64, 64
1, 687240, Control_c, 0, 67, 12
1, 687254, Control_c, 0, 64, 38
1, 687254, Control_c, 0, 67, 14
1, 687269, Control_c, 0, 64, 0
1, 687269, Control_c, 0, 67, 16
1, 687284, Control_c, 0, 67, 18
1, 687299, Control_c, 0, 67, 20
1, 687314, Control_c, 0, 67, 23
1, 687328, Control_c, 0, 67, 26
1, 687343, Control_c, 0, 67, 30
1, 687358, Control_c, 0, 67, 34
1, 687373, Control_c, 0, 67, 39
1, 687387, Control_c, 0, 67, 43
1, 687402, Control_c, 0, 67, 46
1, 687417, Control_c, 0, 67, 49
1, 687432, Control_c, 0, 67, 52
1, 687447, Control_c, 0, 67, 54
1, 687462, Control_c, 0, 67, 57
1, 687477, Control_c, 0, 67, 59
1, 687492, Control_c, 0, 67, 62
1, 687507, Control_c, 0, 67, 65
1, 687522, Control_c, 0, 67, 67
1, 687536, Control_c, 0, 64, 56
1, 687536, Control_c, 0, 67, 70
1, 687551, Control_c, 0, 64, 64
1, 687551, Control_c, 0, 67, 72
1, 687566, Control_c, 0, 64, 67
1, 687566, Control_c, 0, 67, 75
1, 687580, Control_c, 0, 64, 70
1, 687580, Control_c, 0, 67, 77
1, 687595, Control_c, 0, 64, 73
1, 687595, Control_c, 0, 67, 78
1, 687610, Control_c, 0, 64, 77
1, 687610, Control_c, 0, 67, 80
1, 687625, Control_c, 0, 64, 81
1, 687625, Control_c, 0, 67, 81
1, 687640, Control_c, 0, 64, 84
1, 687640, Control_c, 0, 67, 82
1, 687654, Control_c, 0, 64, 88
1, 687654, Control_c, 0, 67, 84
1, 687669, Control_c, 0, 64, 92
1, 687669, Control_c, 0, 67, 86
1, 687685, Control_c, 0, 64, 96
1, 687685, Control_c, 0, 67, 87
1, 687700, Control_c, 0, 64, 101
1, 687700, Control_c, 0, 67, 89
1, 687715, Control_c, 0, 64, 107
1, 687715, Control_c, 0, 67, 91
1, 687730, Control_c, 0, 64, 117
1, 687730, Control_c, 0, 67, 94
1, 687745, Control_c, 0, 64, 127
1, 687745, Control_c, 0, 67, 97
1, 687766, Control_c, 0, 67, 100
1, 687781, Control_c, 0, 67, 104
1, 687796, Control_c, 0, 67, 108
1, 687811, Control_c, 0, 67, 112
1, 687826, Control_c, 0, 67, 116
1, 687841, Control_c, 0, 67, 121
1, 687855, Control_c, 0, 67, 126
1, 687870, Control_c, 0, 67, 127
1, 687998, Note_on_c, 0, 78, 54
1, 688046, Note_on_c, 0, 50, 33
1, 688046, Note_on_c, 0, 56, 29
1, 688049, Note_on_c, 0, 59, 26
1, 688054, Note_on_c, 0, 64, 28
1, 688058, Note_off_c, 0, 78, 60
1, 688895, Note_on_c, 0, 68, 41
1, 688974, Control_c, 0, 64, 113
1, 688989, Control_c, 0, 64, 91
1, 689004, Control_c, 0, 64, 78
1, 689019, Control_c, 0, 64, 68
1, 689033, Control_c, 0, 64, 61
1, 689048, Control_c, 0, 64, 55
1, 689063, Control_c, 0, 64, 55
1, 689078, Control_c, 0, 64, 56
1, 689093, Control_c, 0, 64, 58
1, 689107, Control_c, 0, 64, 59
1, 689122, Control_c, 0, 64, 60
1, 689137, Control_c, 0, 64, 62
1, 689152, Control_c, 0, 64, 64
1, 689167, Control_c, 0, 64, 66
1, 689182, Control_c, 0, 64, 68
1, 689197, Control_c, 0, 64, 70
1, 689212, Control_c, 0, 64, 72
1, 689226, Control_c, 0, 64, 74
1, 689241, Control_c, 0, 64, 76
1, 689263, Control_c, 0, 64, 79
1, 689279, Control_c, 0, 64, 83
1, 689294, Control_c, 0, 64, 86
1, 689309, Control_c, 0, 64, 89
1, 689324, Control_c, 0, 64, 93
1, 689338, Control_c, 0, 64, 96
1, 689353, Control_c, 0, 64, 99
1, 689368, Control_c, 0, 64, 103
1, 689383, Control_c, 0, 64, 107
1, 689398, Control_c, 0, 64, 114
1, 689412, Control_c, 0, 64, 127
1, 689615, Note_off_c, 0, 68, 38
1, 689894, Note_on_c, 0, 69, 43
1, 689951, Note_off_c, 0, 69, 53
1, 689990, Control_c, 0, 64, 109
1, 690012, Control_c, 0, 64, 96
1, 690027, Control_c, 0, 64, 85
1, 690042, Control_c, 0, 64, 75
1, 690049, Note_on_c, 0, 71, 50
1, 690056, Control_c, 0, 64, 65
1, 690071, Control_c, 0, 64, 51
1, 690087, Control_c, 0, 64, 26
1, 690099, Note_off_c, 0, 71, 53
1, 690102, Control_c, 0, 64, 0
1, 690163, Note_on_c, 0, 73, 58
1, 690227, Note_off_c, 0, 73, 54
1, 690270, Note_on_c, 0, 74, 65
1, 690336, Note_off_c, 0, 74, 51
1, 690377, Note_on_c, 0, 76, 53
1, 690434, Note_off_c, 0, 76, 55
1, 690484, Note_on_c, 0, 78, 62
1, 690568, Note_off_c, 0, 78, 53
1, 690589, Note_on_c, 0, 80, 55
1, 690714, Note_off_c, 0, 80, 36
1, 690791, Note_on_c, 0, 81, 46
1, 690925, Control_c, 0, 64, 30
1, 690940, Control_c, 0, 64, 56
1, 690955, Control_c, 0, 64, 64
1, 690970, Control_c, 0, 64, 67
1, 690984, Control_c, 0, 64, 70
1, 690999, Control_c, 0, 64, 73
1, 691014, Control_c, 0, 64, 76
1, 691028, Control_c, 0, 64, 79
1, 691043, Control_c, 0, 64, 83
1, 691058, Control_c, 0, 64, 88
1, 691073, Control_c, 0, 64, 93
1, 691088, Control_c, 0, 64, 99
1, 691102, Control_c, 0, 64, 105
1, 691117, Control_c, 0, 64, 112
1, 691132, Control_c, 0, 64, 123
1, 691147, Control_c, 0, 64, 127
1, 691454, Note_off_c, 0, 59, 42
1, 691606, Note_off_c, 0, 64, 33
1, 691619, Note_off_c, 0, 50, 46
1, 691672, Note_off_c, 0, 56, 45
1, 691790, Note_off_c, 0, 81, 39
1, 692159, Note_on_c, 0, 81, 60
1, 692175, Note_on_c, 0, 76, 48
1, 692175, Note_on_c, 0, 64, 42
1, 692178, Note_on_c, 0, 69, 40
1, 692180, Note_on_c, 0, 49, 47
1, 692180, Note_on_c, 0, 57, 42
1, 692216, Note_off_c, 0, 64, 50
1, 692217, Note_off_c, 0, 49, 53
1, 692218, Note_off_c, 0, 76, 56
1, 692220, Note_off_c, 0, 57, 60
1, 692222, Note_off_c, 0, 69, 47
1, 692229, Note_off_c, 0, 81, 57
1, 692349, Note_on_c, 0, 64, 42
1, 692353, Note_on_c, 0, 81, 59
1, 692356, Note_on_c, 0, 69, 38
1, 692361, Note_on_c, 0, 49, 35
1, 692363, Note_on_c, 0, 57, 32
1, 692378, Note_on_c, 0, 76, 32
1, 692437, Control_c, 0, 64, 100
1, 692452, Control_c, 0, 64, 86
1, 692467, Control_c, 0, 64, 76
1, 692482, Control_c, 0, 64, 66
1, 692497, Control_c, 0, 64, 58
1, 692512, Control_c, 0, 64, 53
1, 692527, Control_c, 0, 64, 56
1, 692542, Control_c, 0, 64, 60
1, 692556, Control_c, 0, 64, 63
1, 692571, Control_c, 0, 64, 66
1, 692586, Control_c, 0, 64, 72
1, 692601, Control_c, 0, 64, 77
1, 692616, Control_c, 0, 64, 83
1, 692631, Control_c, 0, 64, 90
1, 692646, Control_c, 0, 64, 98
1, 692661, Control_c, 0, 64, 106
1, 692675, Control_c, 0, 64, 123
1, 692690, Control_c, 0, 64, 127
1, 692771, Note_off_c, 0, 49, 43
1, 692774, Note_off_c, 0, 64, 43
1, 692841, Note_off_c, 0, 57, 42
1, 692899, Note_off_c, 0, 81, 41
1, 692924, Note_off_c, 0, 76, 42
1, 692956, Control_c, 0, 67, 126
1, 692971, Control_c, 0, 67, 123
1, 692986, Control_c, 0, 67, 120
1, 693008, Control_c, 0, 67, 117
1, 693023, Control_c, 0, 67, 113
1, 693038, Control_c, 0, 67, 110
1, 693053, Control_c, 0, 67, 105
1, 693058, Note_off_c, 0, 69, 51
1, 693068, Control_c, 0, 67, 100
1, 693082, Control_c, 0, 67, 94
1, 693096, Control_c, 0, 67, 89
1, 693111, Control_c, 0, 67, 85
1, 693126, Control_c, 0, 67, 81
1, 693141, Control_c, 0, 67, 77
1, 693156, Control_c, 0, 67, 74
1, 693170, Control_c, 0, 67, 72
1, 693185, Control_c, 0, 67, 70
1, 693200, Control_c, 0, 67, 69
1, 693215, Control_c, 0, 67, 68
1, 693230, Control_c, 0, 67, 67
1, 693245, Control_c, 0, 67, 67
1, 693290, Control_c, 0, 67, 66
1, 693305, Control_c, 0, 64, 91
1, 693305, Control_c, 0, 67, 66
1, 693319, Control_c, 0, 64, 71
1, 693319, Control_c, 0, 67, 64
1, 693334, Control_c, 0, 64, 0
1, 693334, Control_c, 0, 67, 59
1, 693349, Control_c, 0, 67, 52
1, 693364, Control_c, 0, 67, 39
1, 693368, Note_on_c, 0, 69, 92
1, 693377, Note_on_c, 0, 57, 81
1, 693379, Control_c, 0, 67, 27
1, 693382, Note_on_c, 0, 45, 78
1, 693394, Control_c, 0, 67, 12
1, 693400, Note_off_c, 0, 57, 69
1, 693409, Control_c, 0, 67, 0
1, 693410, Note_off_c, 0, 45, 68
1, 693423, Control_c, 0, 64, 26
1, 693438, Control_c, 0, 64, 67
1, 693453, Control_c, 0, 64, 79
1, 693468, Control_c, 0, 64, 100
1, 693483, Control_c, 0, 64, 127
1, 693510, Note_on_c, 0, 65, 102
1, 693517, Note_on_c, 0, 41, 85
1, 693517, Note_on_c, 0, 53, 87
1, 693571, Control_c, 0, 64, 85
1, 693586, Control_c, 0, 64, 58
1, 693601, Control_c, 0, 64, 0
1, 693626, Note_off_c, 0, 69, 56
1, 693734, Control_c, 0, 64, 39
1, 693756, Control_c, 0, 64, 66
1, 693771, Control_c, 0, 64, 76
1, 693786, Control_c, 0, 64, 92
1, 693799, Note_off_c, 0, 53, 60
1, 693801, Control_c, 0, 64, 127
1, 693856, Note_off_c, 0, 41, 61
1, 694086, Note_on_c, 0, 66, 66
1, 694099, Note_on_c, 0, 54, 61
1, 694106, Note_on_c, 0, 42, 58
1, 694142, Control_c, 0, 64, 90
1, 694157, Note_off_c, 0, 65, 58
1, 694157, Control_c, 0, 64, 68
1, 694172, Control_c, 0, 64, 0
1, 694364, Control_c, 0, 64, 59
1, 694368, Note_off_c, 0, 42, 63
1, 694379, Control_c, 0, 64, 76
1, 694394, Control_c, 0, 64, 96
1, 694409, Control_c, 0, 64, 127
1, 694419, Note_off_c, 0, 66, 63
1, 694422, Note_off_c, 0, 54, 65
1, 694712, Note_on_c, 0, 81, 95
1, 694713, Note_on_c, 0, 54, 89
1, 694713, Note_on_c, 0, 66, 94
1, 694716, Note_on_c, 0, 73, 96
1, 694716, Note_on_c, 0, 78, 93
1, 694717, Note_on_c, 0, 57, 85
1, 694717, Note_on_c, 0, 61, 91
1, 694718, Note_on_c, 0, 69, 90
1, 694735, Note_off_c, 0, 66, 66
1, 694737, Note_off_c, 0, 69, 68
1, 694747, Note_off_c, 0, 54, 64
1, 694748, Note_off_c, 0, 57, 65
1, 694748, Note_off_c, 0, 73, 66
1, 694750, Note_off_c, 0, 61, 66
1, 694750, Note_off_c, 0, 81, 68
1, 694756, Note_off_c, 0, 78, 67
1, 695231, Control_c, 0, 64, 84
1, 695254, Control_c, 0, 64, 65
1, 695268, Control_c, 0, 64, 0
1, 695363, Note_on_c, 0, 66, 92
1, 695367, Note_on_c, 0, 42, 97
1, 695368, Note_on_c, 0, 54, 90
1, 695386, Control_c, 0, 64, 51
1, 695388, Note_off_c, 0, 54, 73
1, 695392, Note_off_c, 0, 42, 67
1, 695400, Control_c, 0, 64, 70
1, 695415, Control_c, 0, 64, 84
1, 695430, Control_c, 0, 64, 127
1, 695499, Note_on_c, 0, 61, 98
1, 695506, Note_on_c, 0, 49, 99
1, 695508, Note_on_c, 0, 37, 93
1, 695549, Control_c, 0, 64, 109
1, 695549, Note_off_c, 0, 66, 57
1, 695564, Control_c, 0, 64, 79
1, 695579, Control_c, 0, 64, 50
1, 695593, Control_c, 0, 64, 0
1, 695728, Control_c, 0, 64, 59
1, 695743, Control_c, 0, 64, 73
1, 695758, Control_c, 0, 64, 90
1, 695772, Control_c, 0, 64, 127
1, 695821, Note_off_c, 0, 49, 61
1, 695832, Note_off_c, 0, 37, 62
1, 696086, Note_on_c, 0, 62, 85
1, 696096, Note_on_c, 0, 50, 95
1, 696102, Note_on_c, 0, 38, 88
1, 696121, Control_c, 0, 64, 97
1, 696123, Note_off_c, 0, 61, 61
1, 696136, Control_c, 0, 64, 68
1, 696150, Control_c, 0, 64, 0
1, 696320, Note_off_c, 0, 38, 64
1, 696328, Control_c, 0, 64, 62
1, 696342, Control_c, 0, 64, 89
1, 696357, Control_c, 0, 64, 127
1, 696380, Note_off_c, 0, 50, 66
1, 696489, Note_off_c, 0, 62, 65
1, 696590, Note_on_c, 0, 54, 94
1, 696592, Note_on_c, 0, 50, 85
1, 696626, Note_off_c, 0, 50, 67
1, 696628, Note_off_c, 0, 54, 68
1, 696852, Note_on_c, 0, 62, 92
1, 696852, Note_on_c, 0, 83, 97
1, 696852, Note_on_c, 0, 66, 94
1, 696853, Note_on_c, 0, 78, 94
1, 696855, Note_on_c, 0, 71, 100
1, 696855, Note_on_c, 0, 74, 97
1, 696871, Note_off_c, 0, 62, 70
1, 696872, Note_off_c, 0, 66, 69
1, 696888, Note_off_c, 0, 71, 68
1, 696897, Note_off_c, 0, 83, 68
1, 696898, Note_off_c, 0, 74, 68
1, 696907, Note_off_c, 0, 78, 68
1, 697633, Control_c, 0, 64, 109
1, 697648, Control_c, 0, 64, 79
1, 697663, Control_c, 0, 64, 48
1, 697678, Control_c, 0, 64, 0
1, 697858, Note_on_c, 0, 50, 85
1, 697858, Note_on_c, 0, 62, 93
1, 697862, Note_on_c, 0, 38, 77
1, 697900, Control_c, 0, 64, 55
1, 697914, Control_c, 0, 64, 67
1, 697929, Control_c, 0, 64, 76
1, 697944, Control_c, 0, 64, 91
1, 697959, Control_c, 0, 64, 127
1, 698134, Note_off_c, 0, 50, 61
1, 698161, Note_off_c, 0, 38, 60
1, 698342, Note_on_c, 0, 59, 92
1, 698345, Note_on_c, 0, 47, 90
1, 698347, Note_on_c, 0, 35, 83
1, 698370, Note_off_c, 0, 62, 59
1, 698548, Note_off_c, 0, 47, 63
1, 698571, Note_off_c, 0, 35, 62
1, 698865, Note_on_c, 0, 56, 88
1, 698872, Note_on_c, 0, 32, 95
1, 698873, Note_on_c, 0, 44, 94
1, 699010, Note_off_c, 0, 59, 48
1, 699042, Control_c, 0, 64, 90
1, 699057, Control_c, 0, 64, 66
1, 699072, Control_c, 0, 64, 0
1, 699161, Control_c, 0, 64, 28
1, 699176, Control_c, 0, 64, 66
1, 699191, Control_c, 0, 64, 79
1, 699206, Control_c, 0, 64, 101
1, 699221, Control_c, 0, 64, 127
1, 699299, Note_off_c, 0, 44, 62
1, 699311, Note_off_c, 0, 32, 61
1, 699576, Note_on_c, 0, 45, 99
1, 699578, Note_on_c, 0, 33, 94
1, 699583, Note_on_c, 0, 57, 84
1, 699618, Note_off_c, 0, 56, 61
1, 699627, Note_on_c, 0, 34, 28
1, 699635, Control_c, 0, 64, 82
1, 699650, Control_c, 0, 64, 0
1, 699664, Note_off_c, 0, 34, 50
1, 699747, Control_c, 0, 64, 61
1, 699762, Control_c, 0, 64, 74
1, 699777, Control_c, 0, 64, 94
1, 699791, Control_c, 0, 64, 127
1, 699862, Note_off_c, 0, 45, 59
1, 699869, Note_off_c, 0, 33, 56
1, 699917, Note_off_c, 0, 57, 65
1, 699952, Note_on_c, 0, 45, 105
1, 699952, Note_on_c, 0, 57, 88
1, 699955, Note_on_c, 0, 33, 93
1, 700013, Control_c, 0, 64, 86
1, 700028, Control_c, 0, 64, 0
1, 700131, Control_c, 0, 64, 62
1, 700146, Control_c, 0, 64, 74
1, 700161, Control_c, 0, 64, 96
1, 700176, Control_c, 0, 64, 127
1, 700301, Note_off_c, 0, 45, 56
1, 700338, Note_off_c, 0, 33, 55
1, 700945, Note_on_c, 0, 53, 92
1, 700948, Note_on_c, 0, 41, 108
1, 700951, Note_on_c, 0, 29, 102
1, 701046, Note_off_c, 0, 57, 54
1, 701073, Control_c, 0, 64, 113
1, 701073, Control_c, 0, 67, 12
1, 701088, Control_c, 0, 64, 97
1, 701088, Control_c, 0, 67, 27
1, 701103, Control_c, 0, 64, 80
1, 701103, Control_c, 0, 67, 46
1, 701118, Control_c, 0, 64, 64
1, 701118, Control_c, 0, 67, 59
1, 701132, Control_c, 0, 64, 0
1, 701132, Control_c, 0, 67, 60
1, 701147, Control_c, 0, 67, 52
1, 701162, Control_c, 0, 67, 42
1, 701177, Control_c, 0, 67, 26
1, 701192, Control_c, 0, 67, 0
1, 701243, Control_c, 0, 64, 19
1, 701259, Control_c, 0, 64, 72
1, 701274, Control_c, 0, 64, 103
1, 701289, Control_c, 0, 64, 127
1, 701457, Note_off_c, 0, 29, 58
1, 701546, Note_off_c, 0, 41, 59
1, 701870, Note_on_c, 0, 44, 62
1, 701877, Note_off_c, 0, 53, 59
1, 701888, Note_on_c, 0, 56, 71
1, 701937, Note_off_c, 0, 56, 64
1, 701943, Note_on_c, 0, 59, 65
1, 701954, Note_off_c, 0, 44, 61
1, 701958, Note_on_c, 0, 47, 45
1, 701987, Note_on_c, 0, 49, 74
1, 701997, Note_off_c, 0, 47, 55
1, 702009, Note_off_c, 0, 59, 61
1, 702010, Note_on_c, 0, 61, 76
1, 702024, Note_off_c, 0, 49, 65
1, 702032, Note_off_c, 0, 61, 66
1, 702054, Note_on_c, 0, 53, 63
1, 702083, Note_off_c, 0, 53, 68
1, 702090, Note_on_c, 0, 65, 77
1, 702132, Note_on_c, 0, 56, 71
1, 702154, Note_off_c, 0, 65, 58
1, 702158, Note_on_c, 0, 68, 81
1, 702194, Note_on_c, 0, 59, 65
1, 702199, Note_on_c, 0, 71, 75
1, 702203, Note_off_c, 0, 56, 64
1, 702206, Note_off_c, 0, 68, 63
1, 702227, Note_off_c, 0, 59, 63
1, 702229, Note_on_c, 0, 61, 79
1, 702245, Note_on_c, 0, 73, 80
1, 702245, Note_off_c, 0, 71, 64
1, 702255, Note_off_c, 0, 61, 66
1, 702265, Note_off_c, 0, 73, 71
1, 702287, Note_on_c, 0, 65, 65
1, 702314, Note_off_c, 0, 65, 65
1, 702321, Note_on_c, 0, 77, 83
1, 702359, Note_on_c, 0, 68, 77
1, 702371, Note_off_c, 0, 77, 58
1, 702383, Note_on_c, 0, 80, 79
1, 702408, Note_on_c, 0, 83, 75
1, 702413, Note_off_c, 0, 68, 62
1, 702420, Note_on_c, 0, 71, 58
1, 702425, Note_off_c, 0, 80, 63
1, 702432, Note_off_c, 0, 83, 68
1, 702435, Note_on_c, 0, 73, 83
1, 702438, Note_off_c, 0, 71, 65
1, 702442, Note_on_c, 0, 85, 76
1, 702461, Note_off_c, 0, 73, 64
1, 702465, Note_off_c, 0, 85, 66
1, 702485, Note_on_c, 0, 77, 67
1, 702510, Note_on_c, 0, 89, 83
1, 702514, Note_off_c, 0, 77, 65
1, 702557, Note_off_c, 0, 89, 61
1, 702566, Note_on_c, 0, 92, 79
1, 702596, Note_on_c, 0, 83, 74
1, 702599, Note_on_c, 0, 95, 81
1, 702617, Note_off_c, 0, 83, 70
1, 702624, Note_off_c, 0, 92, 65
1, 702646, Note_on_c, 0, 97, 97
1, 702647, Note_on_c, 0, 85, 107
1, 702667, Note_off_c, 0, 95, 68
1, 702757, Control_c, 0, 64, 110
1, 702772, Control_c, 0, 64, 92
1, 702786, Control_c, 0, 64, 90
1, 702801, Control_c, 0, 64, 93
1, 702816, Control_c, 0, 64, 102
1, 702831, Control_c, 0, 64, 127
1, 703669, Control_c, 0, 67, 8
1, 703684, Control_c, 0, 67, 9
1, 703699, Control_c, 0, 67, 10
1, 703713, Control_c, 0, 67, 11
1, 703728, Control_c, 0, 67, 12
1, 703743, Control_c, 0, 67, 13
1, 703757, Control_c, 0, 67, 15
1, 703772, Control_c, 0, 67, 16
1, 703787, Control_c, 0, 67, 17
1, 703802, Control_c, 0, 67, 18
1, 703817, Control_c, 0, 67, 20
1, 703831, Control_c, 0, 67, 22
1, 703846, Control_c, 0, 67, 24
1, 703861, Control_c, 0, 67, 25
1, 703876, Control_c, 0, 67, 27
1, 703891, Control_c, 0, 67, 29
1, 703905, Control_c, 0, 67, 30
1, 703920, Control_c, 0, 67, 31
1, 703935, Control_c, 0, 67, 33
1, 703949, Control_c, 0, 67, 34
1, 703958, Note_off_c, 0, 85, 57
1, 703964, Control_c, 0, 67, 35
1, 703979, Control_c, 0, 67, 36
1, 703994, Control_c, 0, 67, 37
1, 704009, Control_c, 0, 67, 38
1, 704024, Control_c, 0, 67, 39
1, 704039, Control_c, 0, 67, 40
1, 704054, Control_c, 0, 67, 41
1, 704069, Control_c, 0, 67, 41
1, 704084, Control_c, 0, 67, 42
1, 704098, Control_c, 0, 67, 43
1, 704113, Control_c, 0, 67, 44
1, 704128, Control_c, 0, 67, 45
1, 704143, Control_c, 0, 67, 46
1, 704157, Control_c, 0, 67, 46
1, 704172, Control_c, 0, 67, 48
1, 704187, Control_c, 0, 67, 48
1, 704202, Control_c, 0, 67, 49
1, 704217, Control_c, 0, 67, 50
1, 704239, Control_c, 0, 67, 51
1, 704253, Control_c, 0, 67, 51
1, 704268, Control_c, 0, 67, 52
1, 704283, Control_c, 0, 67, 53
1, 704298, Control_c, 0, 67, 53
1, 704313, Control_c, 0, 67, 54
1, 704328, Control_c, 0, 67, 55
1, 704343, Control_c, 0, 67, 56
1, 704357, Control_c, 0, 67, 56
1, 704372, Control_c, 0, 67, 57
1, 704387, Control_c, 0, 67, 58
1, 704402, Control_c, 0, 67, 58
1, 704417, Control_c, 0, 67, 59
1, 704431, Control_c, 0, 67, 60
1, 704462, Control_c, 0, 67, 60
1, 704492, Control_c, 0, 67, 61
1, 704522, Control_c, 0, 67, 61
1, 704551, Control_c, 0, 67, 62
1, 704580, Control_c, 0, 67, 62
1, 704595, Control_c, 0, 67, 63
1, 704610, Control_c, 0, 67, 63
1, 704625, Control_c, 0, 67, 64
1, 704640, Control_c, 0, 67, 65
1, 704654, Control_c, 0, 67, 65
1, 704669, Control_c, 0, 67, 66
1, 704684, Control_c, 0, 67, 66
1, 704698, Control_c, 0, 67, 67
1, 704713, Control_c, 0, 67, 68
1, 704728, Control_c, 0, 67, 68
1, 704743, Control_c, 0, 67, 69
1, 704772, Control_c, 0, 67, 69
1, 704802, Control_c, 0, 67, 70
1, 704832, Control_c, 0, 67, 70
1, 704876, Control_c, 0, 67, 71
1, 704879, Note_off_c, 0, 97, 48
1, 704906, Control_c, 0, 67, 72
1, 704936, Control_c, 0, 67, 72
1, 704951, Control_c, 0, 67, 73
1, 704966, Control_c, 0, 67, 73
1, 705002, Control_c, 0, 67, 74
1, 705032, Control_c, 0, 67, 74
1, 705061, Control_c, 0, 67, 75
1, 705077, Control_c, 0, 67, 75
1, 705092, Control_c, 0, 67, 76
1, 705106, Control_c, 0, 67, 76
1, 705121, Control_c, 0, 67, 77
1, 705136, Control_c, 0, 67, 77
1, 705151, Control_c, 0, 67, 78
1, 705166, Control_c, 0, 67, 78
1, 705180, Control_c, 0, 67, 79
1, 705210, Control_c, 0, 67, 80
1, 705256, Control_c, 0, 67, 80
1, 705330, Control_c, 0, 67, 81
1, 705374, Control_c, 0, 67, 81
1, 705389, Control_c, 0, 67, 82
1, 705404, Control_c, 0, 67, 82
1, 705419, Control_c, 0, 67, 83
1, 705434, Control_c, 0, 67, 84
1, 705464, Control_c, 0, 67, 84
1, 705493, Control_c, 0, 67, 85
1, 705552, Control_c, 0, 67, 85
1, 705811, Control_c, 0, 64, 86
1, 705826, Note_on_c, 0, 74, 80
1, 705826, Control_c, 0, 64, 63
1, 705826, Control_c, 0, 67, 86
1, 705841, Control_c, 0, 64, 0
1, 705841, Control_c, 0, 67, 86
1, 705851, Note_off_c, 0, 74, 68
1, 705856, Control_c, 0, 67, 87
1, 705871, Control_c, 0, 67, 89
1, 705885, Control_c, 0, 67, 90
1, 705900, Control_c, 0, 67, 90
1, 706049, Control_c, 0, 67, 91
1, 706078, Note_on_c, 0, 62, 68
1, 706105, Note_off_c, 0, 62, 65
1, 706257, Control_c, 0, 67, 90
1, 706258, Note_on_c, 0, 64, 66
1, 706271, Control_c, 0, 67, 90
1, 706284, Note_off_c, 0, 64, 68
1, 706286, Control_c, 0, 67, 89
1, 706301, Control_c, 0, 67, 88
1, 706316, Control_c, 0, 67, 87
1, 706321, Note_on_c, 0, 65, 63
1, 706331, Control_c, 0, 67, 86
1, 706345, Control_c, 0, 64, 60
1, 706345, Control_c, 0, 67, 85
1, 706360, Control_c, 0, 64, 68
1, 706360, Control_c, 0, 67, 85
1, 706375, Control_c, 0, 64, 74
1, 706375, Control_c, 0, 67, 84
1, 706390, Control_c, 0, 64, 81
1, 706390, Control_c, 0, 67, 83
1, 706405, Control_c, 0, 64, 88
1, 706405, Control_c, 0, 67, 82
1, 706419, Control_c, 0, 64, 96
1, 706419, Control_c, 0, 67, 82
1, 706434, Control_c, 0, 64, 104
1, 706434, Control_c, 0, 67, 81
1, 706449, Control_c, 0, 64, 113
1, 706464, Control_c, 0, 64, 126
1, 706486, Control_c, 0, 64, 127
1, 706535, Note_on_c, 0, 86, 62
1, 706539, Note_on_c, 0, 80, 61
1, 706552, Note_off_c, 0, 86, 66
1, 706553, Note_on_c, 0, 77, 53
1, 706555, Note_off_c, 0, 65, 38
1, 706558, Note_off_c, 0, 80, 65
1, 706560, Control_c, 0, 67, 82
1, 706575, Control_c, 0, 67, 82
1, 706576, Note_off_c, 0, 77, 62
1, 706605, Control_c, 0, 64, 107
1, 706605, Control_c, 0, 67, 83
1, 706620, Control_c, 0, 64, 90
1, 706620, Control_c, 0, 67, 83
1, 706622, Poly_aftertouch_c, 0, 83, 0
1, 706634, Control_c, 0, 64, 74
1, 706634, Control_c, 0, 67, 84
1, 706649, Control_c, 0, 64, 40
1, 706664, Control_c, 0, 64, 0
1, 706674, Note_on_c, 0, 66, 60
1, 706708, Control_c, 0, 67, 83
1, 706716, Note_off_c, 0, 66, 56
1, 706723, Control_c, 0, 67, 83
1, 706730, Note_on_c, 0, 68, 72
1, 706738, Control_c, 0, 67, 82
1, 706747, Note_on_c, 0, 71, 59
1, 706749, Note_on_c, 0, 74, 60
1, 706752, Control_c, 0, 67, 81
1, 706755, Note_off_c, 0, 68, 67
1, 706768, Note_off_c, 0, 71, 63
1, 706769, Note_off_c, 0, 74, 64
1, 706782, Control_c, 0, 67, 81
1, 706812, Control_c, 0, 67, 80
1, 706826, Control_c, 0, 67, 79
1, 706841, Control_c, 0, 67, 78
1, 706857, Control_c, 0, 67, 77
1, 706862, Note_on_c, 0, 65, 65
1, 706872, Control_c, 0, 67, 75
1, 706887, Control_c, 0, 67, 73
1, 706901, Control_c, 0, 67, 70
1, 706916, Control_c, 0, 67, 68
1, 706919, Note_off_c, 0, 65, 62
1, 706923, Note_on_c, 0, 61, 76
1, 706931, Control_c, 0, 67, 68
1, 706948, Note_off_c, 0, 61, 68
1, 707050, Note_on_c, 0, 59, 72
1, 707050, Control_c, 0, 67, 67
1, 707089, Note_off_c, 0, 59, 58
1, 707120, Note_on_c, 0, 57, 61
1, 707129, Note_on_c, 0, 78, 71
1, 707142, Note_off_c, 0, 57, 63
1, 707145, Note_on_c, 0, 66, 55
1, 707261, Note_on_c, 0, 56, 75
1, 707289, Note_off_c, 0, 56, 67
1, 707297, Note_off_c, 0, 66, 61
1, 707320, Note_on_c, 0, 54, 79
1, 707342, Note_off_c, 0, 78, 63
1, 707348, Note_off_c, 0, 54, 69
1, 707367, Control_c, 0, 67, 68
1, 707381, Control_c, 0, 67, 68
1, 707411, Control_c, 0, 67, 69
1, 707461, Note_on_c, 0, 56, 78
1, 707485, Note_off_c, 0, 56, 71
1, 707500, Control_c, 0, 67, 68
1, 707526, Note_on_c, 0, 57, 74
1, 707559, Control_c, 0, 67, 68
1, 707574, Control_c, 0, 67, 67
1, 707589, Control_c, 0, 67, 66
1, 707604, Control_c, 0, 64, 49
1, 707604, Control_c, 0, 67, 65
1, 707619, Control_c, 0, 64, 65
1, 707619, Control_c, 0, 67, 64
1, 707634, Control_c, 0, 64, 71
1, 707634, Control_c, 0, 67, 61
1, 707649, Control_c, 0, 64, 77
1, 707649, Control_c, 0, 67, 57
1, 707664, Control_c, 0, 64, 86
1, 707664, Control_c, 0, 67, 53
1, 707678, Control_c, 0, 64, 97
1, 707678, Control_c, 0, 67, 49
1, 707693, Control_c, 0, 64, 118
1, 707693, Control_c, 0, 67, 47
1, 707694, Note_on_c, 0, 90, 80
1, 707697, Note_on_c, 0, 78, 85
1, 707703, Note_on_c, 0, 81, 61
1, 707704, Note_on_c, 0, 85, 76
1, 707708, Note_off_c, 0, 57, 51
1, 707708, Control_c, 0, 64, 127
1, 707708, Control_c, 0, 67, 45
1, 707713, Note_off_c, 0, 90, 73
1, 707720, Note_off_c, 0, 81, 66
1, 707723, Control_c, 0, 67, 43
1, 707724, Note_off_c, 0, 78, 61
1, 707725, Note_off_c, 0, 85, 70
1, 707738, Control_c, 0, 67, 41
1, 707753, Control_c, 0, 67, 40
1, 707768, Control_c, 0, 67, 40
1, 707783, Control_c, 0, 67, 39
1, 707797, Control_c, 0, 67, 38
1, 707812, Control_c, 0, 67, 38
1, 707839, Note_on_c, 0, 59, 64
1, 707842, Control_c, 0, 67, 37
1, 707861, Note_on_c, 0, 60, 28
1, 707869, Note_off_c, 0, 59, 65
1, 707881, Note_on_c, 0, 61, 80
1, 707886, Control_c, 0, 64, 88
1, 707891, Note_on_c, 0, 78, 82
1, 707893, Note_on_c, 0, 73, 73
1, 707895, Note_on_c, 0, 66, 72
1, 707895, Note_off_c, 0, 60, 55
1, 707898, Note_on_c, 0, 69, 65
1, 707901, Control_c, 0, 64, 68
1, 707915, Note_off_c, 0, 61, 62
1, 707916, Control_c, 0, 64, 0
1, 707942, Note_off_c, 0, 66, 0
1, 707942, Note_on_c, 0, 66, 39
1, 708012, Control_c, 0, 67, 37
1, 708027, Control_c, 0, 67, 36
1, 708027, Note_on_c, 0, 57, 76
1, 708042, Control_c, 0, 67, 36
1, 708057, Control_c, 0, 67, 35
1, 708061, Note_off_c, 0, 57, 65
1, 708076, Note_on_c, 0, 54, 78
1, 708086, Control_c, 0, 67, 34
1, 708102, Note_off_c, 0, 54, 70
1, 708171, Note_off_c, 0, 78, 62
1, 708174, Note_off_c, 0, 69, 63
1, 708183, Note_off_c, 0, 73, 61
1, 708190, Control_c, 0, 67, 34
1, 708199, Note_on_c, 0, 50, 72
1, 708214, Note_off_c, 0, 66, 63
1, 708233, Note_off_c, 0, 50, 68
1, 708249, Note_on_c, 0, 49, 80
1, 708274, Note_off_c, 0, 49, 66
1, 708379, Note_on_c, 0, 47, 71
1, 708415, Note_off_c, 0, 47, 66
1, 708423, Note_on_c, 0, 61, 71
1, 708423, Note_on_c, 0, 64, 68
1, 708423, Note_on_c, 0, 73, 73
1, 708426, Note_on_c, 0, 45, 71
1, 708448, Note_off_c, 0, 61, 66
1, 708448, Note_off_c, 0, 73, 69
1, 708449, Note_off_c, 0, 64, 69
1, 708451, Note_off_c, 0, 45, 66
1, 708501, Control_c, 0, 67, 33
1, 708546, Control_c, 0, 67, 33
1, 708614, Note_on_c, 0, 71, 74
1, 708616, Note_on_c, 0, 64, 53
1, 708620, Note_on_c, 0, 44, 66
1, 708624, Note_on_c, 0, 59, 58
1, 708635, Note_off_c, 0, 71, 72
1, 708641, Note_off_c, 0, 64, 65
1, 708646, Note_off_c, 0, 59, 59
1, 708647, Note_off_c, 0, 44, 65
1, 708812, Note_on_c, 0, 69, 72
1, 708813, Note_on_c, 0, 42, 61
1, 708820, Note_on_c, 0, 57, 60
1, 708830, Note_on_c, 0, 64, 47
1, 708837, Note_off_c, 0, 69, 66
1, 708841, Note_off_c, 0, 57, 60
1, 708842, Note_off_c, 0, 42, 64
1, 708858, Note_off_c, 0, 64, 57
1, 708954, Control_c, 0, 67, 33
1, 708984, Control_c, 0, 67, 34
1, 708999, Control_c, 0, 67, 34
1, 709000, Note_on_c, 0, 68, 79
1, 709005, Note_on_c, 0, 56, 63
1, 709012, Note_on_c, 0, 40, 57
1, 709021, Note_off_c, 0, 68, 70
1, 709026, Note_off_c, 0, 56, 64
1, 709042, Note_off_c, 0, 40, 62
1, 709072, Control_c, 0, 67, 35
1, 709087, Control_c, 0, 67, 35
1, 709176, Control_c, 0, 64, 30
1, 709191, Control_c, 0, 64, 73
1, 709193, Note_on_c, 0, 76, 100
1, 709197, Note_on_c, 0, 52, 71
1, 709206, Note_on_c, 0, 68, 69
1, 709206, Control_c, 0, 64, 127
1, 709207, Note_on_c, 0, 64, 53
1, 709216, Note_off_c, 0, 76, 63
1, 709222, Note_off_c, 0, 52, 65
1, 709224, Note_off_c, 0, 68, 66
1, 709231, Note_off_c, 0, 64, 63
1, 709340, Control_c, 0, 67, 36
1, 709369, Control_c, 0, 67, 36
1, 709384, Control_c, 0, 67, 37
1, 709398, Note_on_c, 0, 71, 105
1, 709414, Control_c, 0, 67, 38
1, 709424, Note_off_c, 0, 71, 70
1, 709429, Control_c, 0, 64, 85
1, 709429, Control_c, 0, 67, 38
1, 709443, Control_c, 0, 64, 26
1, 709443, Control_c, 0, 67, 39
1, 709458, Control_c, 0, 64, 0
1, 709481, Control_c, 0, 67, 40
1, 709525, Control_c, 0, 67, 40
1, 709569, Control_c, 0, 67, 41
1, 709599, Control_c, 0, 67, 42
1, 709604, Note_on_c, 0, 59, 75
1, 709614, Control_c, 0, 67, 43
1, 709626, Note_off_c, 0, 59, 69
1, 709629, Control_c, 0, 67, 44
1, 709658, Control_c, 0, 67, 44
1, 709673, Control_c, 0, 67, 45
1, 709717, Control_c, 0, 67, 45
1, 709747, Control_c, 0, 67, 46
1, 709754, Note_on_c, 0, 61, 67
1, 709797, Note_off_c, 0, 61, 61
1, 709807, Note_on_c, 0, 62, 78
1, 709822, Control_c, 0, 67, 45
1, 709837, Control_c, 0, 67, 45
1, 709851, Control_c, 0, 67, 44
1, 709866, Control_c, 0, 67, 43
1, 709881, Control_c, 0, 67, 42
1, 709895, Control_c, 0, 64, 30
1, 709895, Control_c, 0, 67, 41
1, 709910, Control_c, 0, 64, 64
1, 709910, Control_c, 0, 67, 39
1, 709925, Control_c, 0, 64, 73
1, 709925, Control_c, 0, 67, 38
1, 709940, Control_c, 0, 64, 84
1, 709940, Control_c, 0, 67, 37
1, 709955, Control_c, 0, 64, 105
1, 709955, Control_c, 0, 67, 36
1, 709962, Note_on_c, 0, 95, 94
1, 709969, Note_on_c, 0, 90, 83
1, 709969, Control_c, 0, 64, 127
1, 709969, Control_c, 0, 67, 35
1, 709971, Note_on_c, 0, 86, 70
1, 709971, Note_on_c, 0, 83, 77
1, 709983, Note_off_c, 0, 95, 67
1, 709984, Control_c, 0, 67, 34
1, 709986, Note_off_c, 0, 90, 73
1, 709992, Note_off_c, 0, 83, 72
1, 709994, Note_off_c, 0, 86, 69
1, 709999, Control_c, 0, 67, 34
1, 710089, Control_c, 0, 67, 34
1, 710096, Note_off_c, 0, 62, 60
1, 710104, Control_c, 0, 67, 35
1, 710109, Note_on_c, 0, 64, 76
1, 710119, Control_c, 0, 67, 36
1, 710133, Control_c, 0, 67, 37
1, 710148, Control_c, 0, 67, 38
1, 710150, Note_on_c, 0, 66, 92
1, 710156, Note_on_c, 0, 83, 98
1, 710160, Note_off_c, 0, 64, 62
1, 710161, Note_on_c, 0, 71, 88
1, 710162, Note_on_c, 0, 74, 87
1, 710162, Note_on_c, 0, 78, 84
1, 710163, Control_c, 0, 64, 102
1, 710163, Control_c, 0, 67, 39
1, 710178, Control_c, 0, 64, 68
1, 710178, Control_c, 0, 67, 40
1, 710187, Note_off_c, 0, 66, 67
1, 710192, Control_c, 0, 64, 0
1, 710192, Control_c, 0, 67, 41
1, 710207, Control_c, 0, 67, 41
1, 710260, Control_c, 0, 67, 41
1, 710274, Control_c, 0, 67, 40
1, 710289, Control_c, 0, 67, 39
1, 710304, Control_c, 0, 67, 38
1, 710308, Note_on_c, 0, 62, 88
1, 710317, Control_c, 0, 67, 37
1, 710332, Control_c, 0, 67, 37
1, 710345, Note_off_c, 0, 62, 61
1, 710346, Note_on_c, 0, 59, 82
1, 710347, Control_c, 0, 67, 36
1, 710370, Note_off_c, 0, 59, 68
1, 710401, Note_off_c, 0, 83, 61
1, 710412, Note_off_c, 0, 74, 64
1, 710426, Note_off_c, 0, 78, 62
1, 710452, Note_off_c, 0, 71, 59
1, 710475, Note_on_c, 0, 55, 75
1, 710516, Note_on_c, 0, 54, 88
1, 710517, Note_off_c, 0, 55, 66
1, 710547, Note_off_c, 0, 54, 68
1, 710555, Control_c, 0, 67, 37
1, 710599, Control_c, 0, 67, 37
1, 710656, Note_on_c, 0, 52, 77
1, 710688, Note_off_c, 0, 52, 66
1, 710692, Note_on_c, 0, 50, 84
1, 710696, Note_on_c, 0, 66, 81
1, 710696, Note_on_c, 0, 78, 81
1, 710704, Note_on_c, 0, 69, 64
1, 710716, Note_off_c, 0, 50, 72
1, 710722, Note_off_c, 0, 66, 63
1, 710723, Note_off_c, 0, 69, 65
1, 710732, Control_c, 0, 67, 37
1, 710734, Note_off_c, 0, 78, 63
1, 710762, Control_c, 0, 67, 36
1, 710791, Control_c, 0, 67, 36
1, 710881, Note_on_c, 0, 76, 82
1, 710885, Note_on_c, 0, 69, 64
1, 710887, Note_on_c, 0, 49, 75
1, 710890, Note_on_c, 0, 64, 67
1, 710904, Note_off_c, 0, 76, 66
1, 710909, Note_off_c, 0, 64, 67
1, 710910, Note_off_c, 0, 69, 67
1, 710912, Note_off_c, 0, 49, 66
1, 710955, Control_c, 0, 67, 35
1, 711069, Note_on_c, 0, 74, 86
1, 711074, Note_on_c, 0, 62, 75
1, 711080, Note_on_c, 0, 47, 59
1, 711083, Note_on_c, 0, 69, 58
1, 711090, Note_off_c, 0, 74, 70
1, 711099, Note_off_c, 0, 62, 68
1, 711105, Note_off_c, 0, 47, 61
1, 711107, Note_off_c, 0, 69, 60
1, 711140, Control_c, 0, 67, 36
1, 711185, Control_c, 0, 67, 36
1, 711214, Control_c, 0, 67, 37
1, 711229, Control_c, 0, 67, 37
1, 711244, Control_c, 0, 67, 38
1, 711256, Note_on_c, 0, 73, 91
1, 711259, Note_on_c, 0, 61, 72
1, 711261, Note_on_c, 0, 69, 55
1, 711265, Note_on_c, 0, 45, 61
1, 711273, Control_c, 0, 67, 38
1, 711283, Note_off_c, 0, 61, 65
1, 711283, Note_off_c, 0, 69, 59
1, 711288, Note_off_c, 0, 73, 65
1, 711288, Control_c, 0, 67, 39
1, 711291, Note_off_c, 0, 45, 66
1, 711333, Control_c, 0, 67, 39
1, 711393, Control_c, 0, 67, 40
1, 711408, Control_c, 0, 64, 60
1, 711422, Control_c, 0, 64, 69
1, 711422, Control_c, 0, 67, 41
1, 711437, Control_c, 0, 64, 78
1, 711437, Control_c, 0, 67, 42
1, 711446, Note_on_c, 0, 81, 93
1, 711452, Note_on_c, 0, 73, 76
1, 711452, Control_c, 0, 64, 94
1, 711452, Control_c, 0, 67, 43
1, 711452, Note_on_c, 0, 57, 64
1, 711458, Note_on_c, 0, 69, 64
1, 711459, Note_off_c, 0, 81, 77
1, 711466, Note_off_c, 0, 73, 70
1, 711466, Control_c, 0, 64, 127
1, 711466, Control_c, 0, 67, 44
1, 711479, Note_off_c, 0, 69, 42
1, 711481, Control_c, 0, 67, 44
1, 711482, Note_off_c, 0, 57, 65
1, 711496, Control_c, 0, 67, 45
1, 711511, Control_c, 0, 67, 46
1, 711526, Control_c, 0, 67, 46
1, 711540, Control_c, 0, 67, 47
1, 711555, Control_c, 0, 67, 48
1, 711570, Control_c, 0, 67, 50
1, 711585, Control_c, 0, 67, 52
1, 711600, Control_c, 0, 67, 55
1, 711614, Control_c, 0, 67, 57
1, 711629, Control_c, 0, 67, 58
1, 711644, Note_on_c, 0, 57, 81
1, 711645, Control_c, 0, 67, 59
1, 711651, Note_on_c, 0, 45, 69
1, 711660, Control_c, 0, 67, 59
1, 711675, Control_c, 0, 64, 100
1, 711689, Control_c, 0, 64, 79
1, 711704, Control_c, 0, 64, 64
1, 711727, Control_c, 0, 64, 0
1, 711727, Control_c, 0, 67, 59
1, 711741, Control_c, 0, 67, 58
1, 711771, Control_c, 0, 67, 58
1, 711801, Control_c, 0, 67, 57
1, 711846, Control_c, 0, 67, 57
1, 711851, Note_on_c, 0, 47, 61
1, 711854, Note_on_c, 0, 59, 66
1, 711885, Note_off_c, 0, 59, 61
1, 711890, Control_c, 0, 67, 56
1, 711896, Note_off_c, 0, 47, 61
1, 711920, Control_c, 0, 67, 56
1, 711965, Control_c, 0, 67, 55
1, 712009, Control_c, 0, 67, 55
1, 712024, Control_c, 0, 67, 54
1, 712040, Note_on_c, 0, 51, 64
1, 712042, Note_on_c, 0, 63, 65
1, 712053, Control_c, 0, 67, 54
1, 712068, Control_c, 0, 67, 53
1, 712071, Note_off_c, 0, 63, 65
1, 712074, Note_off_c, 0, 51, 60
1, 712097, Control_c, 0, 67, 53
1, 712157, Control_c, 0, 67, 52
1, 712216, Control_c, 0, 67, 53
1, 712221, Note_on_c, 0, 54, 64
1, 712227, Note_on_c, 0, 66, 68
1, 712231, Control_c, 0, 67, 55
1, 712245, Control_c, 0, 67, 56
1, 712248, Note_off_c, 0, 54, 66
1, 712254, Note_off_c, 0, 66, 64
1, 712260, Control_c, 0, 67, 56
1, 712275, Control_c, 0, 67, 57
1, 712290, Control_c, 0, 67, 58
1, 712305, Control_c, 0, 67, 59
1, 712320, Control_c, 0, 67, 60
1, 712335, Control_c, 0, 67, 61
1, 712350, Control_c, 0, 67, 63
1, 712364, Control_c, 0, 67, 66
1, 712379, Control_c, 0, 64, 57
1, 712379, Control_c, 0, 67, 68
1, 712394, Control_c, 0, 64, 73
1, 712408, Control_c, 0, 64, 96
1, 712419, Note_on_c, 0, 66, 76
1, 712423, Control_c, 0, 64, 127
1, 712423, Control_c, 0, 67, 67
1, 712424, Note_off_c, 0, 45, 62
1, 712427, Note_on_c, 0, 44, 69
1, 712428, Note_on_c, 0, 59, 61
1, 712428, Note_off_c, 0, 57, 61
1, 712436, Note_on_c, 0, 63, 64
1, 712439, Control_c, 0, 67, 67
1, 712442, Note_on_c, 0, 54, 55
1, 712454, Note_off_c, 0, 44, 65
1, 712454, Control_c, 0, 67, 66
1, 712459, Note_off_c, 0, 59, 64
1, 712474, Note_off_c, 0, 54, 64
1, 712475, Note_off_c, 0, 63, 62
1, 712476, Control_c, 0, 67, 65
1, 712491, Control_c, 0, 67, 63
1, 712506, Control_c, 0, 67, 61
1, 712516, Note_off_c, 0, 66, 58
1, 712520, Control_c, 0, 67, 60
1, 712535, Control_c, 0, 67, 59
1, 712550, Control_c, 0, 67, 57
1, 712565, Control_c, 0, 67, 56
1, 712580, Control_c, 0, 67, 54
1, 712594, Control_c, 0, 67, 53
1, 712609, Control_c, 0, 67, 50
1, 712624, Control_c, 0, 67, 48
1, 712633, Note_on_c, 0, 52, 75
1, 712639, Control_c, 0, 67, 47
1, 712648, Note_on_c, 0, 64, 66
1, 712654, Control_c, 0, 67, 46
1, 712669, Control_c, 0, 67, 45
1, 712683, Control_c, 0, 67, 45
1, 712698, Control_c, 0, 64, 96
1, 712698, Control_c, 0, 67, 44
1, 712713, Control_c, 0, 64, 75
1, 712713, Control_c, 0, 67, 44
1, 712728, Control_c, 0, 64, 29
1, 712728, Control_c, 0, 67, 43
1, 712743, Control_c, 0, 64, 0
1, 712743, Control_c, 0, 67, 42
1, 712758, Control_c, 0, 67, 41
1, 712760, Note_on_c, 0, 56, 72
1, 712769, Note_on_c, 0, 68, 77
1, 712770, Note_off_c, 0, 64, 62
1, 712773, Control_c, 0, 67, 40
1, 712788, Control_c, 0, 67, 40
1, 712790, Note_off_c, 0, 52, 61
1, 712813, Note_on_c, 0, 59, 84
1, 712814, Note_on_c, 0, 71, 87
1, 712826, Note_off_c, 0, 56, 66
1, 712828, Note_off_c, 0, 68, 63
1, 712832, Control_c, 0, 67, 41
1, 712847, Control_c, 0, 67, 42
1, 712847, Note_off_c, 0, 59, 62
1, 712862, Control_c, 0, 67, 45
1, 712867, Note_off_c, 0, 71, 65
1, 712876, Control_c, 0, 67, 48
1, 712891, Control_c, 0, 67, 50
1, 712906, Control_c, 0, 67, 52
1, 712920, Control_c, 0, 67, 54
1, 712935, Control_c, 0, 67, 56
1, 712950, Control_c, 0, 67, 57
1, 712965, Control_c, 0, 67, 58
1, 712980, Control_c, 0, 67, 59
1, 712994, Control_c, 0, 64, 68
1, 712994, Control_c, 0, 67, 60
1, 712996, Note_on_c, 0, 71, 91
1, 713000, Note_on_c, 0, 49, 87
1, 713001, Note_on_c, 0, 37, 82
1, 713005, Note_on_c, 0, 68, 76
1, 713008, Note_on_c, 0, 64, 69
1, 713009, Control_c, 0, 64, 103
1, 713022, Note_off_c, 0, 49, 67
1, 713024, Control_c, 0, 64, 127
1, 713027, Note_off_c, 0, 64, 68
1, 713028, Note_off_c, 0, 68, 68
1, 713030, Note_off_c, 0, 37, 65
1, 713038, Control_c, 0, 67, 58
1, 713047, Note_off_c, 0, 71, 66
1, 713053, Control_c, 0, 67, 56
1, 713068, Control_c, 0, 67, 54
1, 713083, Control_c, 0, 67, 52
1, 713098, Control_c, 0, 67, 49
1, 713101, Note_on_c, 0, 49, 10
1, 713113, Control_c, 0, 67, 46
1, 713128, Control_c, 0, 67, 43
1, 713134, Note_off_c, 0, 49, 48
1, 713142, Control_c, 0, 67, 39
1, 713157, Control_c, 0, 67, 34
1, 713172, Control_c, 0, 67, 31
1, 713187, Control_c, 0, 67, 27
1, 713197, Note_on_c, 0, 69, 75
1, 713198, Note_on_c, 0, 57, 83
1, 713202, Control_c, 0, 67, 23
1, 713224, Control_c, 0, 67, 19
1, 713240, Control_c, 0, 67, 14
1, 713255, Control_c, 0, 67, 9
1, 713270, Control_c, 0, 67, 0
1, 713329, Note_on_c, 0, 61, 81
1, 713330, Note_on_c, 0, 73, 92
1, 713343, Note_off_c, 0, 69, 62
1, 713348, Note_off_c, 0, 57, 60
1, 713373, Control_c, 0, 64, 87
1, 713375, Note_on_c, 0, 64, 92
1, 713383, Note_on_c, 0, 76, 92
1, 713388, Control_c, 0, 64, 0
1, 713394, Note_off_c, 0, 61, 64
1, 713396, Note_off_c, 0, 73, 64
1, 713402, Note_off_c, 0, 64, 67
1, 713427, Note_off_c, 0, 76, 64
1, 713560, Note_on_c, 0, 47, 99
1, 713563, Note_on_c, 0, 35, 88
1, 713566, Note_on_c, 0, 76, 95
1, 713566, Note_on_c, 0, 71, 90
1, 713574, Note_on_c, 0, 69, 78
1, 713581, Control_c, 0, 64, 64
1, 713582, Note_off_c, 0, 47, 73
1, 713587, Note_off_c, 0, 35, 68
1, 713589, Note_off_c, 0, 71, 68
1, 713596, Note_off_c, 0, 69, 71
1, 713596, Note_off_c, 0, 76, 63
1, 713596, Control_c, 0, 64, 91
1, 713610, Control_c, 0, 64, 127
1, 713748, Poly_aftertouch_c, 0, 35, 0
1, 713749, Note_on_c, 0, 75, 91
1, 713751, Note_on_c, 0, 51, 92
1, 713836, Poly_aftertouch_c, 0, 63, 127
1, 713861, Note_on_c, 0, 54, 87
1, 713864, Note_off_c, 0, 51, 67
1, 713873, Poly_aftertouch_c, 0, 63, 0
1, 713885, Note_on_c, 0, 78, 78
1, 713889, Note_off_c, 0, 75, 60
1, 713918, Note_on_c, 0, 69, 82
1, 713923, Note_on_c, 0, 81, 87
1, 713923, Note_on_c, 0, 57, 79
1, 713930, Note_on_c, 0, 76, 51
1, 713932, Note_off_c, 0, 54, 66
1, 713935, Control_c, 0, 64, 78
1, 713942, Note_off_c, 0, 78, 65
1, 713942, Note_off_c, 0, 69, 64
1, 713945, Note_off_c, 0, 57, 69
1, 713950, Control_c, 0, 64, 0
1, 713953, Note_off_c, 0, 76, 59
1, 713971, Note_off_c, 0, 81, 63
1, 714120, Note_on_c, 0, 80, 78
1, 714124, Note_on_c, 0, 68, 74
1, 714126, Note_on_c, 0, 52, 73
1, 714126, Note_on_c, 0, 76, 62
1, 714135, Note_on_c, 0, 40, 61
1, 714148, Note_off_c, 0, 68, 68
1, 714153, Note_off_c, 0, 80, 60
1, 714153, Note_off_c, 0, 52, 65
1, 714156, Note_off_c, 0, 76, 64
1, 714161, Note_off_c, 0, 40, 58
1, 714306, Note_on_c, 0, 54, 74
1, 714308, Note_on_c, 0, 42, 75
1, 714308, Note_on_c, 0, 81, 87
1, 714318, Note_on_c, 0, 69, 65
1, 714325, Note_off_c, 0, 81, 72
1, 714331, Note_off_c, 0, 54, 67
1, 714332, Note_off_c, 0, 42, 66
1, 714333, Note_on_c, 0, 76, 44
1, 714334, Note_off_c, 0, 76, 127
1, 714338, Note_off_c, 0, 69, 64
1, 714484, Note_on_c, 0, 56, 82
1, 714487, Note_on_c, 0, 83, 95
1, 714490, Note_on_c, 0, 44, 73
1, 714492, Note_on_c, 0, 71, 80
1, 714507, Note_off_c, 0, 56, 70
1, 714507, Note_off_c, 0, 83, 64
1, 714513, Note_off_c, 0, 44, 64
1, 714513, Note_off_c, 0, 71, 71
1, 714684, Note_on_c, 0, 57, 94
1, 714687, Note_on_c, 0, 85, 99
1, 714687, Note_on_c, 0, 45, 90
1, 714691, Note_on_c, 0, 76, 85
1, 714694, Note_on_c, 0, 73, 90
1, 714699, Control_c, 0, 64, 68
1, 714701, Note_off_c, 0, 57, 74
1, 714716, Note_off_c, 0, 45, 71
1, 714721, Control_c, 0, 64, 93
1, 714736, Control_c, 0, 64, 127
1, 714800, Note_on_c, 0, 45, 6
1, 714820, Note_off_c, 0, 45, 65
1, 714852, Note_off_c, 0, 85, 62
1, 714884, Note_off_c, 0, 73, 61
1, 714913, Note_on_c, 0, 57, 88
1, 715006, Note_on_c, 0, 61, 60
1, 715014, Note_on_c, 0, 62, 77
1, 715020, Note_off_c, 0, 57, 55
1, 715036, Note_off_c, 0, 62, 68
1, 715053, Note_on_c, 0, 66, 86
1, 715062, Note_on_c, 0, 81, 91
1, 715068, Note_on_c, 0, 69, 79
1, 715071, Note_off_c, 0, 66, 71
1, 715080, Note_off_c, 0, 76, 59
1, 715094, Note_off_c, 0, 61, 38
1, 715122, Control_c, 0, 64, 98
1, 715137, Control_c, 0, 64, 71
1, 715152, Control_c, 0, 64, 0
1, 715207, Note_on_c, 0, 73, 78
1, 715250, Note_off_c, 0, 69, 56
1, 715261, Note_on_c, 0, 59, 75
1, 715265, Note_on_c, 0, 47, 66
1, 715265, Note_on_c, 0, 78, 86
1, 715277, Note_off_c, 0, 81, 56
1, 715280, Note_off_c, 0, 59, 67
1, 715286, Control_c, 0, 64, 72
1, 715288, Note_off_c, 0, 47, 62
1, 715301, Control_c, 0, 64, 98
1, 715315, Control_c, 0, 64, 127
1, 715352, Note_off_c, 0, 73, 45
1, 715419, Control_c, 0, 67, 8
1, 715433, Control_c, 0, 67, 9
1, 715436, Note_on_c, 0, 80, 91
1, 715444, Note_off_c, 0, 78, 61
1, 715444, Note_on_c, 0, 59, 72
1, 715448, Note_on_c, 0, 69, 82
1, 715448, Control_c, 0, 67, 9
1, 715500, Control_c, 0, 67, 9
1, 715515, Control_c, 0, 67, 0
1, 715530, Control_c, 0, 64, 109
1, 715545, Control_c, 0, 64, 86
1, 715560, Control_c, 0, 64, 72
1, 715565, Note_on_c, 0, 63, 78
1, 715566, Note_off_c, 0, 59, 62
1, 715575, Control_c, 0, 64, 59
1, 715589, Control_c, 0, 64, 0
1, 715614, Note_on_c, 0, 71, 73
1, 715617, Note_on_c, 0, 68, 82
1, 715619, Note_off_c, 0, 69, 61
1, 715623, Note_off_c, 0, 63, 63
1, 715636, Note_off_c, 0, 68, 71
1, 715654, Note_off_c, 0, 80, 61
1, 715757, Note_on_c, 0, 75, 83
1, 715757, Note_off_c, 0, 71, 65
1, 715783, Control_c, 0, 67, 8
1, 715798, Control_c, 0, 67, 13
1, 715812, Control_c, 0, 67, 19
1, 715814, Note_on_c, 0, 64, 69
1, 715820, Note_on_c, 0, 76, 82
1, 715827, Control_c, 0, 67, 28
1, 715842, Control_c, 0, 67, 36
1, 715843, Note_on_c, 0, 68, 65
1, 715856, Control_c, 0, 67, 43
1, 715864, Note_off_c, 0, 75, 57
1, 715871, Control_c, 0, 64, 42
1, 715871, Control_c, 0, 67, 47
1, 715886, Control_c, 0, 64, 65
1, 715886, Control_c, 0, 67, 50
1, 715901, Control_c, 0, 64, 74
1, 715901, Control_c, 0, 67, 51
1, 715916, Control_c, 0, 64, 83
1, 715930, Control_c, 0, 64, 95
1, 715945, Control_c, 0, 64, 103
1, 715960, Control_c, 0, 64, 106
1, 715968, Note_off_c, 0, 64, 60
1, 716003, Note_off_c, 0, 76, 60
1, 716004, Control_c, 0, 64, 98
1, 716004, Control_c, 0, 67, 50
1, 716010, Note_on_c, 0, 52, 71
1, 716019, Control_c, 0, 64, 85
1, 716019, Control_c, 0, 67, 49
1, 716034, Control_c, 0, 64, 70
1, 716035, Note_off_c, 0, 68, 59
1, 716040, Note_off_c, 0, 52, 64
1, 716049, Control_c, 0, 64, 0
1, 716108, Control_c, 0, 67, 50
1, 716123, Control_c, 0, 67, 51
1, 716138, Control_c, 0, 67, 53
1, 716153, Control_c, 0, 67, 55
1, 716168, Control_c, 0, 67, 60
1, 716183, Control_c, 0, 67, 65
1, 716198, Control_c, 0, 67, 70
1, 716217, Note_on_c, 0, 64, 62
1, 716219, Control_c, 0, 67, 73
1, 716234, Control_c, 0, 67, 77
1, 716243, Note_on_c, 0, 52, 51
1, 716249, Control_c, 0, 67, 79
1, 716263, Control_c, 0, 67, 81
1, 716278, Control_c, 0, 67, 82
1, 716293, Control_c, 0, 67, 84
1, 716308, Control_c, 0, 67, 84
1, 716323, Control_c, 0, 67, 85
1, 716338, Control_c, 0, 67, 85
1, 716353, Control_c, 0, 67, 86
1, 716368, Control_c, 0, 67, 87
1, 716383, Control_c, 0, 67, 88
1, 716416, Note_on_c, 0, 65, 45
1, 716416, Note_on_c, 0, 53, 54
1, 716442, Note_off_c, 0, 65, 58
1, 716457, Note_off_c, 0, 53, 62
1, 716576, Control_c, 0, 67, 87
1, 716591, Control_c, 0, 67, 87
1, 716606, Control_c, 0, 67, 86
1, 716611, Note_on_c, 0, 57, 55
1, 716611, Note_on_c, 0, 69, 57
1, 716635, Control_c, 0, 67, 86
1, 716639, Note_off_c, 0, 57, 64
1, 716639, Note_off_c, 0, 69, 65
1, 716665, Control_c, 0, 67, 85
1, 716709, Control_c, 0, 67, 85
1, 716739, Control_c, 0, 67, 84
1, 716753, Control_c, 0, 67, 84
1, 716768, Control_c, 0, 67, 83
1, 716783, Control_c, 0, 67, 81
1, 716792, Note_on_c, 0, 60, 61
1, 716794, Note_on_c, 0, 72, 59
1, 716798, Control_c, 0, 67, 80
1, 716813, Control_c, 0, 67, 79
1, 716821, Note_off_c, 0, 60, 66
1, 716822, Note_off_c, 0, 72, 64
1, 716827, Control_c, 0, 67, 79
1, 716842, Control_c, 0, 67, 78
1, 716857, Control_c, 0, 67, 77
1, 716872, Control_c, 0, 67, 75
1, 716886, Control_c, 0, 67, 71
1, 716901, Control_c, 0, 67, 68
1, 716916, Control_c, 0, 64, 50
1, 716931, Control_c, 0, 64, 72
1, 716931, Control_c, 0, 67, 71
1, 716946, Control_c, 0, 64, 96
1, 716946, Control_c, 0, 67, 75
1, 716968, Control_c, 0, 64, 127
1, 716968, Control_c, 0, 67, 78
1, 716983, Control_c, 0, 67, 80
1, 716988, Note_on_c, 0, 72, 74
1, 716988, Note_off_c, 0, 52, 62
1, 716991, Note_on_c, 0, 51, 73
1, 716993, Note_on_c, 0, 69, 72
1, 716994, Note_on_c, 0, 60, 65
1, 716994, Note_on_c, 0, 65, 67
1, 716996, Note_off_c, 0, 64, 65
1, 716998, Control_c, 0, 67, 81
1, 717013, Note_off_c, 0, 51, 67
1, 717015, Note_off_c, 0, 69, 69
1, 717019, Note_off_c, 0, 60, 67
1, 717021, Note_off_c, 0, 65, 67
1, 717031, Note_off_c, 0, 72, 64
1, 717042, Control_c, 0, 67, 80
1, 717057, Control_c, 0, 67, 78
1, 717072, Control_c, 0, 67, 76
1, 717086, Control_c, 0, 67, 73
1, 717101, Control_c, 0, 67, 71
1, 717116, Control_c, 0, 67, 68
1, 717131, Control_c, 0, 67, 64
1, 717146, Control_c, 0, 67, 58
1, 717161, Control_c, 0, 67, 51
1, 717176, Control_c, 0, 67, 45
1, 717182, Note_on_c, 0, 57, 72
1, 717188, Note_on_c, 0, 69, 69
1, 717191, Control_c, 0, 64, 114
1, 717191, Control_c, 0, 67, 39
1, 717205, Control_c, 0, 64, 79
1, 717205, Control_c, 0, 67, 35
1, 717220, Control_c, 0, 64, 59
1, 717220, Control_c, 0, 67, 33
1, 717236, Control_c, 0, 64, 0
1, 717236, Control_c, 0, 67, 32
1, 717251, Control_c, 0, 67, 31
1, 717280, Control_c, 0, 67, 30
1, 717295, Control_c, 0, 67, 28
1, 717310, Control_c, 0, 67, 26
1, 717311, Note_on_c, 0, 60, 77
1, 717311, Note_off_c, 0, 69, 61
1, 717313, Note_on_c, 0, 72, 78
1, 717316, Note_off_c, 0, 57, 63
1, 717325, Control_c, 0, 67, 23
1, 717340, Control_c, 0, 67, 21
1, 717354, Control_c, 0, 67, 20
1, 717357, Note_off_c, 0, 60, 64
1, 717366, Note_on_c, 0, 77, 79
1, 717368, Note_on_c, 0, 65, 72
1, 717369, Note_off_c, 0, 72, 65
1, 717393, Note_off_c, 0, 65, 69
1, 717399, Control_c, 0, 67, 21
1, 717413, Note_off_c, 0, 77, 56
1, 717414, Control_c, 0, 67, 23
1, 717429, Control_c, 0, 67, 23
1, 717443, Control_c, 0, 67, 25
1, 717458, Control_c, 0, 67, 27
1, 717473, Control_c, 0, 67, 29
1, 717488, Control_c, 0, 67, 31
1, 717503, Control_c, 0, 67, 32
1, 717517, Control_c, 0, 67, 34
1, 717532, Control_c, 0, 67, 37
1, 717543, Note_on_c, 0, 77, 88
1, 717545, Note_on_c, 0, 69, 75
1, 717545, Note_on_c, 0, 72, 77
1, 717547, Control_c, 0, 64, 76
1, 717547, Control_c, 0, 67, 38
1, 717548, Note_on_c, 0, 50, 85
1, 717551, Note_on_c, 0, 65, 71
1, 717562, Control_c, 0, 64, 127
1, 717562, Control_c, 0, 67, 40
1, 717566, Note_off_c, 0, 72, 71
1, 717569, Note_off_c, 0, 65, 68
1, 717569, Note_off_c, 0, 69, 68
1, 717572, Note_off_c, 0, 50, 70
1, 717576, Control_c, 0, 67, 41
1, 717585, Note_off_c, 0, 77, 63
1, 717591, Control_c, 0, 67, 40
1, 717606, Control_c, 0, 67, 38
1, 717621, Control_c, 0, 67, 36
1, 717635, Control_c, 0, 67, 33
1, 717650, Control_c, 0, 67, 31
1, 717665, Control_c, 0, 67, 28
1, 717680, Control_c, 0, 67, 25
1, 717695, Control_c, 0, 67, 20
1, 717717, Control_c, 0, 67, 14
1, 717732, Control_c, 0, 67, 0
1, 717750, Note_on_c, 0, 62, 76
1, 717753, Note_on_c, 0, 74, 78
1, 717870, Note_on_c, 0, 65, 76
1, 717872, Note_off_c, 0, 74, 62
1, 717873, Note_on_c, 0, 77, 82
1, 717895, Control_c, 0, 64, 115
1, 717901, Note_off_c, 0, 62, 60
1, 717909, Control_c, 0, 64, 79
1, 717924, Control_c, 0, 64, 0
1, 717928, Note_off_c, 0, 65, 67
1, 717929, Note_off_c, 0, 77, 64
1, 717930, Note_on_c, 0, 70, 74
1, 717932, Note_on_c, 0, 82, 89
1, 717946, Note_off_c, 0, 70, 68
1, 717966, Note_off_c, 0, 82, 67
1, 718058, Control_c, 0, 64, 66
1, 718073, Control_c, 0, 64, 112
1, 718088, Control_c, 0, 64, 127
1, 718088, Control_c, 0, 67, 13
1, 718103, Control_c, 0, 67, 17
1, 718106, Note_on_c, 0, 66, 86
1, 718109, Note_on_c, 0, 51, 78
1, 718109, Note_on_c, 0, 82, 91
1, 718118, Control_c, 0, 67, 20
1, 718124, Note_off_c, 0, 66, 71
1, 718130, Note_off_c, 0, 51, 68
1, 718147, Control_c, 0, 67, 18
1, 718162, Control_c, 0, 67, 16
1, 718177, Control_c, 0, 67, 13
1, 718192, Control_c, 0, 67, 10
1, 718207, Control_c, 0, 67, 0
1, 718264, Note_off_c, 0, 82, 63
1, 718281, Control_c, 0, 64, 88
1, 718288, Note_on_c, 0, 65, 64
1, 718289, Note_on_c, 0, 53, 68
1, 718296, Control_c, 0, 64, 63
1, 718302, Note_on_c, 0, 81, 76
1, 718305, Note_on_c, 0, 52, 61
1, 718310, Note_off_c, 0, 65, 61
1, 718311, Control_c, 0, 64, 0
1, 718311, Note_off_c, 0, 53, 64
1, 718334, Note_off_c, 0, 52, 36
1, 718429, Note_on_c, 0, 84, 85
1, 718432, Note_off_c, 0, 81, 63
1, 718472, Note_on_c, 0, 41, 96
1, 718478, Note_on_c, 0, 89, 100
1, 718480, Note_off_c, 0, 84, 66
1, 718496, Note_off_c, 0, 89, 69
1, 718644, Control_c, 0, 67, 9
1, 718658, Control_c, 0, 67, 12
1, 718673, Note_on_c, 0, 42, 86
1, 718673, Control_c, 0, 67, 15
1, 718688, Control_c, 0, 67, 18
1, 718703, Control_c, 0, 67, 20
1, 718718, Control_c, 0, 67, 21
1, 718732, Control_c, 0, 67, 21
1, 718757, Note_off_c, 0, 42, 62
1, 718762, Control_c, 0, 67, 20
1, 718776, Control_c, 0, 67, 19
1, 718791, Control_c, 0, 67, 18
1, 718806, Control_c, 0, 67, 17
1, 718821, Control_c, 0, 67, 16
1, 718837, Control_c, 0, 67, 16
1, 718863, Note_on_c, 0, 46, 80
1, 718881, Control_c, 0, 67, 15
1, 718911, Control_c, 0, 67, 15
1, 718928, Note_off_c, 0, 46, 58
1, 718985, Control_c, 0, 67, 15
1, 719039, Note_on_c, 0, 49, 72
1, 719039, Note_on_c, 0, 53, 74
1, 719094, Note_off_c, 0, 49, 56
1, 719149, Control_c, 0, 67, 15
1, 719163, Control_c, 0, 67, 14
1, 719178, Control_c, 0, 67, 14
1, 719231, Note_on_c, 0, 40, 79
1, 719234, Note_on_c, 0, 54, 79
1, 719240, Note_off_c, 0, 41, 61
1, 719243, Note_on_c, 0, 49, 63
1, 719267, Note_off_c, 0, 53, 62
1, 719287, Note_off_c, 0, 49, 60
1, 719374, Note_off_c, 0, 54, 64
1, 719417, Note_on_c, 0, 46, 80
1, 719426, Note_on_c, 0, 58, 82
1, 719493, Note_off_c, 0, 58, 61
1, 719526, Control_c, 0, 67, 13
1, 719532, Note_on_c, 0, 49, 77
1, 719541, Control_c, 0, 67, 13
1, 719555, Control_c, 0, 67, 12
1, 719570, Control_c, 0, 67, 10
1, 719585, Control_c, 0, 64, 41
1, 719585, Control_c, 0, 67, 8
1, 719592, Note_on_c, 0, 61, 96
1, 719599, Note_on_c, 0, 54, 77
1, 719599, Control_c, 0, 64, 66
1, 719599, Control_c, 0, 67, 0
1, 719614, Control_c, 0, 64, 74
1, 719631, Control_c, 0, 64, 81
1, 719633, Note_off_c, 0, 54, 67
1, 719646, Note_off_c, 0, 49, 58
1, 719646, Control_c, 0, 64, 87
1, 719660, Control_c, 0, 64, 89
1, 719663, Note_off_c, 0, 46, 59
1, 719666, Note_off_c, 0, 40, 62
1, 719701, Note_off_c, 0, 61, 63
1, 719719, Control_c, 0, 64, 85
1, 719734, Control_c, 0, 64, 76
1, 719749, Control_c, 0, 64, 64
1, 719764, Control_c, 0, 64, 0
1, 719780, Note_on_c, 0, 61, 103
1, 719790, Note_on_c, 0, 52, 81
1, 719794, Note_on_c, 0, 38, 77
1, 719796, Note_on_c, 0, 54, 75
1, 719823, Control_c, 0, 64, 58
1, 719833, Note_off_c, 0, 54, 59
1, 719838, Control_c, 0, 64, 67
1, 719852, Note_off_c, 0, 52, 58
1, 719852, Control_c, 0, 64, 77
1, 719867, Control_c, 0, 64, 89
1, 719882, Control_c, 0, 64, 103
1, 719897, Control_c, 0, 64, 109
1, 719912, Control_c, 0, 64, 108
1, 719916, Note_off_c, 0, 61, 59
1, 719927, Control_c, 0, 64, 100
1, 719942, Control_c, 0, 64, 87
1, 719964, Control_c, 0, 64, 72
1, 719979, Control_c, 0, 64, 56
1, 719984, Note_on_c, 0, 59, 82
1, 719988, Note_on_c, 0, 50, 80
1, 719993, Control_c, 0, 64, 0
1, 720112, Note_on_c, 0, 62, 83
1, 720135, Note_off_c, 0, 59, 58
1, 720141, Control_c, 0, 64, 54
1, 720156, Control_c, 0, 64, 68
1, 720168, Note_on_c, 0, 66, 97
1, 720171, Control_c, 0, 64, 80
1, 720185, Control_c, 0, 64, 107
1, 720190, Note_off_c, 0, 62, 63
1, 720200, Control_c, 0, 64, 127
1, 720204, Note_off_c, 0, 38, 62
1, 720231, Note_off_c, 0, 50, 57
1, 720258, Note_off_c, 0, 66, 61
1, 720360, Note_on_c, 0, 66, 96
1, 720368, Note_on_c, 0, 50, 85
1, 720371, Note_on_c, 0, 59, 88
1, 720374, Note_on_c, 0, 37, 82
1, 720392, Control_c, 0, 64, 99
1, 720407, Control_c, 0, 64, 65
1, 720423, Control_c, 0, 64, 0
1, 720453, Note_off_c, 0, 50, 63
1, 720482, Note_off_c, 0, 66, 59
1, 720482, Control_c, 0, 64, 58
1, 720497, Control_c, 0, 64, 61
1, 720512, Control_c, 0, 64, 55
1, 720526, Control_c, 0, 64, 21
1, 720541, Control_c, 0, 64, 0
1, 720563, Note_on_c, 0, 65, 80
1, 720568, Note_on_c, 0, 49, 78
1, 720595, Note_off_c, 0, 49, 68
1, 720616, Note_off_c, 0, 37, 61
1, 720724, Note_on_c, 0, 68, 77
1, 720732, Note_off_c, 0, 65, 61
1, 720765, Note_on_c, 0, 37, 77
1, 720771, Control_c, 0, 67, 9
1, 720775, Note_on_c, 0, 71, 82
1, 720786, Control_c, 0, 67, 12
1, 720788, Note_off_c, 0, 68, 62
1, 720800, Control_c, 0, 67, 13
1, 720808, Note_off_c, 0, 59, 56
1, 720809, Note_off_c, 0, 71, 62
1, 720815, Control_c, 0, 67, 14
1, 720830, Control_c, 0, 67, 15
1, 720874, Control_c, 0, 67, 14
1, 720889, Control_c, 0, 67, 13
1, 720904, Control_c, 0, 67, 13
1, 720919, Control_c, 0, 67, 12
1, 720933, Control_c, 0, 67, 12
1, 720963, Control_c, 0, 67, 11
1, 720972, Note_on_c, 0, 38, 76
1, 721007, Control_c, 0, 67, 11
1, 721046, Note_off_c, 0, 38, 58
1, 721125, Control_c, 0, 67, 11
1, 721166, Note_on_c, 0, 42, 67
1, 721200, Note_off_c, 0, 42, 62
1, 721200, Control_c, 0, 67, 12
1, 721343, Note_on_c, 0, 49, 65
1, 721348, Note_on_c, 0, 45, 62
1, 721378, Note_off_c, 0, 45, 65
1, 721423, Control_c, 0, 67, 11
1, 721522, Note_off_c, 0, 49, 63
1, 721531, Note_off_c, 0, 37, 63
1, 721537, Note_on_c, 0, 36, 69
1, 721549, Note_on_c, 0, 50, 60
1, 721552, Note_on_c, 0, 45, 45
1, 721583, Note_off_c, 0, 45, 51
1, 721683, Control_c, 0, 67, 11
1, 721727, Control_c, 0, 67, 11
1, 721733, Note_on_c, 0, 42, 65
1, 721733, Note_off_c, 0, 50, 52
1, 721741, Note_on_c, 0, 54, 61
1, 721864, Note_on_c, 0, 45, 69
1, 721875, Control_c, 0, 67, 11
1, 721899, Note_off_c, 0, 36, 50
1, 721905, Control_c, 0, 64, 54
1, 721905, Control_c, 0, 67, 10
1, 721920, Control_c, 0, 64, 64
1, 721921, Note_on_c, 0, 57, 72
1, 721930, Note_on_c, 0, 50, 72
1, 721930, Note_off_c, 0, 54, 62
1, 721935, Control_c, 0, 64, 68
1, 721935, Control_c, 0, 67, 9
1, 721949, Control_c, 0, 64, 71
1, 721964, Control_c, 0, 64, 73
1, 721964, Control_c, 0, 67, 9
1, 721979, Control_c, 0, 64, 74
1, 721994, Control_c, 0, 64, 75
1, 722008, Note_off_c, 0, 50, 61
1, 722008, Control_c, 0, 64, 74
1, 722012, Note_off_c, 0, 57, 56
1, 722025, Control_c, 0, 64, 69
1, 722040, Control_c, 0, 64, 31
1, 722054, Control_c, 0, 64, 0
1, 722054, Control_c, 0, 67, 8
1, 722069, Control_c, 0, 67, 8
1, 722084, Control_c, 0, 67, 0
1, 722111, Note_off_c, 0, 45, 62
1, 722112, Note_on_c, 0, 50, 74
1, 722113, Note_on_c, 0, 62, 72
1, 722113, Note_off_c, 0, 42, 57
1, 722116, Note_on_c, 0, 57, 70
1, 722120, Note_on_c, 0, 36, 69
1, 722128, Control_c, 0, 64, 63
1, 722143, Control_c, 0, 64, 74
1, 722144, Note_off_c, 0, 57, 66
1, 722151, Note_off_c, 0, 62, 58
1, 722155, Note_off_c, 0, 50, 62
1, 722158, Control_c, 0, 64, 89
1, 722162, Note_off_c, 0, 36, 62
1, 722172, Control_c, 0, 64, 122
1, 722187, Control_c, 0, 64, 127
1, 722269, Control_c, 0, 64, 116
1, 722284, Control_c, 0, 64, 79
1, 722299, Control_c, 0, 64, 0
1, 722311, Note_on_c, 0, 50, 68
1, 722315, Note_on_c, 0, 35, 76
1, 722320, Note_on_c, 0, 55, 76
1, 722358, Control_c, 0, 64, 62
1, 722372, Control_c, 0, 64, 72
1, 722387, Control_c, 0, 64, 88
1, 722402, Control_c, 0, 64, 127
1, 722422, Note_off_c, 0, 50, 63
1, 722444, Note_on_c, 0, 62, 77
1, 722446, Note_off_c, 0, 55, 62
1, 722500, Note_off_c, 0, 62, 64
1, 722503, Note_on_c, 0, 67, 82
1, 722520, Note_off_c, 0, 35, 61
1, 722544, Note_off_c, 0, 67, 61
1, 722591, Note_on_c, 0, 34, 83
1, 722619, Note_off_c, 0, 34, 63
1, 722654, Control_c, 0, 64, 95
1, 722669, Control_c, 0, 64, 69
1, 722677, Note_on_c, 0, 52, 94
1, 722684, Control_c, 0, 64, 0
1, 722690, Note_on_c, 0, 60, 71
1, 722713, Control_c, 0, 64, 11
1, 722728, Control_c, 0, 64, 64
1, 722743, Control_c, 0, 64, 75
1, 722758, Control_c, 0, 64, 91
1, 722772, Control_c, 0, 64, 127
1, 722810, Note_on_c, 0, 67, 70
1, 722823, Note_off_c, 0, 60, 62
1, 722833, Note_off_c, 0, 52, 59
1, 722869, Note_on_c, 0, 72, 83
1, 722872, Note_off_c, 0, 67, 64
1, 722926, Note_off_c, 0, 72, 63
1, 722981, Note_on_c, 0, 33, 73
1, 723013, Note_off_c, 0, 33, 61
1, 723018, Control_c, 0, 64, 84
1, 723033, Control_c, 0, 64, 64
1, 723048, Control_c, 0, 64, 0
1, 723058, Note_on_c, 0, 65, 83
1, 723062, Control_c, 0, 64, 35
1, 723063, Note_on_c, 0, 53, 99
1, 723077, Control_c, 0, 64, 66
1, 723092, Control_c, 0, 64, 81
1, 723107, Control_c, 0, 64, 109
1, 723122, Control_c, 0, 64, 127
1, 723161, Note_off_c, 0, 53, 61
1, 723203, Note_on_c, 0, 72, 79
1, 723248, Note_off_c, 0, 65, 61
1, 723261, Note_on_c, 0, 77, 86
1, 723307, Note_off_c, 0, 72, 59
1, 723328, Note_on_c, 0, 32, 91
1, 723357, Note_off_c, 0, 32, 66
1, 723424, Note_on_c, 0, 65, 91
1, 723432, Note_on_c, 0, 50, 96
1, 723444, Note_off_c, 0, 77, 58
1, 723561, Note_off_c, 0, 50, 61
1, 723567, Note_on_c, 0, 68, 77
1, 723623, Note_off_c, 0, 65, 61
1, 723626, Note_on_c, 0, 77, 77
1, 723627, Note_on_c, 0, 74, 77
1, 723653, Note_on_c, 0, 78, 26
1, 723692, Note_off_c, 0, 78, 31
1, 723704, Note_off_c, 0, 68, 61
1, 723715, Note_on_c, 0, 33, 89
1, 723741, Note_off_c, 0, 33, 66
1, 723782, Note_off_c, 0, 77, 60
1, 723814, Note_on_c, 0, 49, 99
1, 723815, Note_off_c, 0, 74, 64
1, 723826, Note_on_c, 0, 66, 90
1, 723871, Control_c, 0, 64, 96
1, 723874, Note_on_c, 0, 48, 12
1, 723885, Control_c, 0, 64, 75
1, 723900, Control_c, 0, 64, 61
1, 723909, Note_off_c, 0, 48, 47
1, 723915, Control_c, 0, 64, 27
1, 723930, Control_c, 0, 64, 34
1, 723945, Control_c, 0, 64, 53
1, 723959, Control_c, 0, 64, 60
1, 723966, Note_on_c, 0, 69, 79
1, 723974, Control_c, 0, 64, 66
1, 723989, Control_c, 0, 64, 77
1, 724003, Control_c, 0, 64, 99
1, 724018, Control_c, 0, 64, 127
1, 724021, Note_off_c, 0, 66, 53
1, 724024, Note_on_c, 0, 78, 91
1, 724029, Note_on_c, 0, 73, 95
1, 724088, Note_off_c, 0, 49, 61
1, 724194, Note_off_c, 0, 69, 0
1, 724208, Note_on_c, 0, 47, 97
1, 724215, Note_on_c, 0, 35, 88
1, 724215, Note_on_c, 0, 66, 94
1, 724225, Control_c, 0, 64, 100
1, 724231, Poly_aftertouch_c, 0, 69, 127
1, 724240, Control_c, 0, 64, 68
1, 724251, Note_on_c, 0, 69, 3
1, 724255, Control_c, 0, 64, 0
1, 724261, Note_off_c, 0, 69, 51
1, 724263, Note_off_c, 0, 78, 52
1, 724344, Control_c, 0, 64, 50
1, 724359, Control_c, 0, 64, 69
1, 724374, Control_c, 0, 64, 83
1, 724380, Note_on_c, 0, 69, 82
1, 724388, Control_c, 0, 64, 123
1, 724398, Note_off_c, 0, 73, 59
1, 724403, Control_c, 0, 64, 127
1, 724419, Note_on_c, 0, 78, 89
1, 724428, Note_off_c, 0, 66, 62
1, 724432, Note_on_c, 0, 74, 81
1, 724497, Note_off_c, 0, 47, 60
1, 724510, Note_off_c, 0, 35, 59
1, 724634, Note_on_c, 0, 36, 99
1, 724634, Note_on_c, 0, 45, 98
1, 724641, Note_on_c, 0, 66, 99
1, 724649, Control_c, 0, 64, 103
1, 724664, Control_c, 0, 64, 71
1, 724670, Note_off_c, 0, 69, 60
1, 724679, Control_c, 0, 64, 0
1, 724717, Note_off_c, 0, 74, 38
1, 724764, Note_off_c, 0, 78, 54
1, 724797, Control_c, 0, 64, 51
1, 724812, Control_c, 0, 64, 67
1, 724813, Note_on_c, 0, 69, 86
1, 724826, Control_c, 0, 64, 78
1, 724841, Control_c, 0, 64, 97
1, 724856, Note_on_c, 0, 78, 89
1, 724856, Control_c, 0, 64, 127
1, 724865, Note_on_c, 0, 75, 86
1, 724868, Note_off_c, 0, 66, 60
1, 724876, Note_off_c, 0, 45, 60
1, 724890, Note_off_c, 0, 36, 60
1, 724999, Note_off_c, 0, 69, 51
1, 725075, Note_on_c, 0, 37, 97
1, 725076, Note_on_c, 0, 44, 95
1, 725078, Note_on_c, 0, 65, 87
1, 725093, Control_c, 0, 64, 99
1, 725098, Note_off_c, 0, 78, 39
1, 725102, Note_off_c, 0, 75, 57
1, 725108, Control_c, 0, 64, 70
1, 725123, Control_c, 0, 64, 0
1, 725238, Note_on_c, 0, 68, 83
1, 725264, Control_c, 0, 64, 42
1, 725279, Control_c, 0, 64, 78
1, 725287, Note_off_c, 0, 37, 63
1, 725294, Control_c, 0, 64, 108
1, 725302, Note_on_c, 0, 73, 90
1, 725304, Note_on_c, 0, 77, 90
1, 725307, Note_off_c, 0, 44, 65
1, 725309, Control_c, 0, 64, 127
1, 725329, Note_off_c, 0, 65, 58
1, 725331, Note_off_c, 0, 68, 64
1, 725383, Control_c, 0, 64, 106
1, 725390, Note_off_c, 0, 73, 62
1, 725397, Control_c, 0, 64, 71
1, 725406, Note_off_c, 0, 77, 61
1, 725412, Control_c, 0, 64, 0
1, 725501, Control_c, 0, 64, 58
1, 725516, Control_c, 0, 64, 76
1, 725527, Note_on_c, 0, 66, 105
1, 725531, Control_c, 0, 64, 102
1, 725546, Control_c, 0, 64, 127
1, 725564, Note_off_c, 0, 66, 66
1, 725801, Note_on_c, 0, 54, 99
1, 725843, Note_off_c, 0, 54, 69
1, 726010, Note_on_c, 0, 56, 96
1, 726043, Control_c, 0, 64, 88
1, 726058, Control_c, 0, 64, 66
1, 726060, Note_on_c, 0, 57, 90
1, 726066, Note_off_c, 0, 56, 68
1, 726072, Control_c, 0, 64, 0
1, 726250, Control_c, 0, 64, 60
1, 726261, Note_on_c, 0, 78, 90
1, 726262, Note_on_c, 0, 90, 84
1, 726263, Note_on_c, 0, 85, 85
1, 726264, Control_c, 0, 64, 76
1, 726265, Note_on_c, 0, 81, 74
1, 726279, Note_off_c, 0, 90, 74
1, 726279, Control_c, 0, 64, 101
1, 726283, Note_off_c, 0, 85, 67
1, 726284, Note_off_c, 0, 81, 72
1, 726294, Control_c, 0, 64, 127
1, 726305, Note_off_c, 0, 78, 62
1, 726312, Note_off_c, 0, 57, 58
1, 726408, Note_on_c, 0, 59, 78
1, 726457, Note_on_c, 0, 61, 87
1, 726461, Note_off_c, 0, 59, 62
1, 726464, Note_on_c, 0, 69, 81
1, 726464, Note_on_c, 0, 78, 90
1, 726465, Note_on_c, 0, 66, 82
1, 726466, Note_on_c, 0, 73, 83
1, 726487, Control_c, 0, 64, 84
1, 726498, Note_off_c, 0, 61, 66
1, 726502, Control_c, 0, 64, 62
1, 726517, Control_c, 0, 64, 0
1, 726605, Note_on_c, 0, 57, 84
1, 726642, Note_off_c, 0, 57, 64
1, 726646, Note_on_c, 0, 54, 85
1, 726687, Note_off_c, 0, 54, 67
1, 726774, Note_off_c, 0, 78, 62
1, 726786, Note_off_c, 0, 69, 61
1, 726790, Note_on_c, 0, 50, 80
1, 726798, Note_off_c, 0, 73, 61
1, 726816, Note_off_c, 0, 66, 62
1, 726834, Note_on_c, 0, 49, 90
1, 726840, Note_off_c, 0, 50, 64
1, 726875, Note_off_c, 0, 49, 64
1, 726971, Note_on_c, 0, 47, 76
1, 727013, Note_on_c, 0, 61, 80
1, 727016, Note_on_c, 0, 45, 82
1, 727016, Note_on_c, 0, 73, 80
1, 727018, Note_on_c, 0, 64, 73
1, 727018, Note_off_c, 0, 47, 66
1, 727039, Note_off_c, 0, 45, 67
1, 727039, Note_off_c, 0, 61, 64
1, 727042, Note_off_c, 0, 64, 69
1, 727045, Note_off_c, 0, 73, 62
1, 727205, Note_on_c, 0, 64, 70
1, 727205, Note_on_c, 0, 71, 80
1, 727207, Note_on_c, 0, 44, 79
1, 727208, Note_on_c, 0, 59, 71
1, 727225, Note_off_c, 0, 71, 71
1, 727229, Note_off_c, 0, 64, 68
1, 727231, Note_off_c, 0, 59, 68
1, 727236, Note_off_c, 0, 44, 65
1, 727389, Note_on_c, 0, 42, 68
1, 727391, Note_on_c, 0, 57, 75
1, 727394, Note_on_c, 0, 69, 75
1, 727405, Note_on_c, 0, 64, 55
1, 727415, Note_off_c, 0, 57, 68
1, 727415, Note_off_c, 0, 69, 70
1, 727420, Note_off_c, 0, 42, 65
1, 727427, Note_off_c, 0, 64, 62
1, 727570, Note_on_c, 0, 64, 36
1, 727582, Note_on_c, 0, 56, 73
1, 727583, Note_on_c, 0, 68, 85
1, 727590, Note_on_c, 0, 40, 66
1, 727603, Note_off_c, 0, 64, 64
1, 727606, Note_off_c, 0, 56, 68
1, 727615, Note_off_c, 0, 68, 64
1, 727627, Note_off_c, 0, 40, 66
1, 727787, Note_on_c, 0, 52, 74
1, 727789, Note_on_c, 0, 76, 102
1, 727793, Control_c, 0, 64, 66
1, 727796, Note_on_c, 0, 68, 79
1, 727799, Note_on_c, 0, 64, 71
1, 727808, Control_c, 0, 64, 97
1, 727811, Note_off_c, 0, 76, 62
1, 727812, Note_off_c, 0, 52, 65
1, 727817, Note_off_c, 0, 64, 67
1, 727817, Note_off_c, 0, 68, 68
1, 727823, Control_c, 0, 64, 127
1, 727988, Note_on_c, 0, 71, 115
1, 728013, Note_off_c, 0, 71, 73
1, 728030, Control_c, 0, 64, 79
1, 728044, Control_c, 0, 64, 0
1, 728196, Note_on_c, 0, 59, 84
1, 728223, Note_off_c, 0, 59, 65
1, 728230, Control_c, 0, 67, 9
1, 728244, Control_c, 0, 67, 10
1, 728259, Control_c, 0, 67, 11
1, 728274, Control_c, 0, 67, 11
1, 728289, Control_c, 0, 67, 12
1, 728318, Control_c, 0, 67, 13
1, 728333, Control_c, 0, 67, 13
1, 728348, Control_c, 0, 67, 14
1, 728352, Note_on_c, 0, 61, 77
1, 728363, Control_c, 0, 67, 15
1, 728397, Note_on_c, 0, 62, 86
1, 728405, Note_off_c, 0, 61, 64
1, 728423, Control_c, 0, 67, 14
1, 728438, Control_c, 0, 67, 13
1, 728453, Control_c, 0, 67, 11
1, 728467, Control_c, 0, 67, 8
1, 728482, Control_c, 0, 67, 0
1, 728557, Control_c, 0, 64, 59
1, 728572, Control_c, 0, 64, 67
1, 728578, Note_on_c, 0, 95, 92
1, 728581, Note_on_c, 0, 90, 90
1, 728584, Note_on_c, 0, 83, 84
1, 728584, Note_on_c, 0, 86, 77
1, 728587, Control_c, 0, 64, 74
1, 728595, Note_off_c, 0, 95, 72
1, 728601, Control_c, 0, 64, 86
1, 728601, Note_off_c, 0, 83, 72
1, 728603, Note_off_c, 0, 86, 72
1, 728604, Note_off_c, 0, 90, 68
1, 728616, Control_c, 0, 64, 105
1, 728631, Control_c, 0, 64, 127
1, 728692, Note_off_c, 0, 62, 60
1, 728707, Note_on_c, 0, 64, 83
1, 728759, Note_on_c, 0, 66, 87
1, 728760, Note_off_c, 0, 64, 62
1, 728773, Note_on_c, 0, 83, 101
1, 728777, Note_on_c, 0, 71, 93
1, 728780, Note_on_c, 0, 78, 87
1, 728781, Note_on_c, 0, 74, 81
1, 728799, Note_off_c, 0, 66, 68
1, 728853, Control_c, 0, 64, 126
1, 728867, Control_c, 0, 64, 86
1, 728882, Control_c, 0, 64, 61
1, 728897, Control_c, 0, 64, 0
1, 728910, Note_on_c, 0, 62, 88
1, 728967, Note_off_c, 0, 62, 64
1, 728977, Note_on_c, 0, 59, 82
1, 729013, Note_off_c, 0, 59, 64
1, 729052, Note_off_c, 0, 83, 61
1, 729067, Note_off_c, 0, 74, 65
1, 729082, Note_off_c, 0, 78, 62
1, 729100, Note_on_c, 0, 55, 82
1, 729104, Note_off_c, 0, 71, 62
1, 729151, Note_on_c, 0, 54, 88
1, 729155, Note_off_c, 0, 55, 64
1, 729192, Note_off_c, 0, 54, 66
1, 729286, Note_on_c, 0, 52, 69
1, 729318, Note_on_c, 0, 50, 84
1, 729320, Note_on_c, 0, 66, 81
1, 729323, Note_on_c, 0, 78, 85
1, 729323, Note_on_c, 0, 69, 75
1, 729323, Note_off_c, 0, 52, 65
1, 729346, Note_off_c, 0, 66, 64
1, 729346, Note_off_c, 0, 69, 71
1, 729348, Note_off_c, 0, 50, 68
1, 729356, Note_off_c, 0, 78, 62
1, 729512, Note_on_c, 0, 76, 80
1, 729514, Note_on_c, 0, 64, 76
1, 729514, Note_on_c, 0, 69, 72
1, 729519, Note_on_c, 0, 49, 74
1, 729531, Note_off_c, 0, 76, 71
1, 729537, Note_off_c, 0, 69, 70
1, 729537, Note_off_c, 0, 64, 70
1, 729543, Note_off_c, 0, 49, 67
1, 729704, Note_on_c, 0, 74, 92
1, 729707, Note_on_c, 0, 47, 69
1, 729709, Note_on_c, 0, 62, 74
1, 729716, Note_on_c, 0, 69, 66
1, 729725, Note_off_c, 0, 74, 66
1, 729733, Note_off_c, 0, 47, 67
1, 729733, Note_off_c, 0, 62, 68
1, 729734, Note_off_c, 0, 69, 65
1, 729886, Note_on_c, 0, 73, 90
1, 729887, Note_on_c, 0, 61, 78
1, 729891, Note_on_c, 0, 69, 52
1, 729901, Note_on_c, 0, 45, 67
1, 729910, Note_off_c, 0, 61, 66
1, 729915, Note_off_c, 0, 69, 59
1, 729919, Note_off_c, 0, 73, 65
1, 729933, Note_off_c, 0, 45, 64
1, 730068, Control_c, 0, 64, 57
1, 730083, Control_c, 0, 64, 69
1, 730087, Note_on_c, 0, 81, 98
1, 730093, Note_on_c, 0, 73, 89
1, 730098, Note_on_c, 0, 69, 73
1, 730098, Control_c, 0, 64, 78
1, 730101, Note_off_c, 0, 81, 77
1, 730101, Note_on_c, 0, 57, 58
1, 730110, Note_off_c, 0, 73, 72
1, 730113, Control_c, 0, 64, 89
1, 730116, Note_off_c, 0, 69, 46
1, 730125, Note_off_c, 0, 57, 63
1, 730128, Control_c, 0, 64, 105
1, 730143, Control_c, 0, 64, 127
1, 730246, Control_c, 0, 67, 10
1, 730261, Control_c, 0, 67, 15
1, 730276, Control_c, 0, 67, 20
1, 730291, Control_c, 0, 67, 24
1, 730293, Note_on_c, 0, 45, 68
1, 730295, Note_on_c, 0, 57, 81
1, 730306, Control_c, 0, 67, 26
1, 730320, Control_c, 0, 67, 27
1, 730379, Control_c, 0, 64, 116
1, 730394, Control_c, 0, 64, 91
1, 730409, Control_c, 0, 64, 71
1, 730424, Control_c, 0, 64, 23
1, 730446, Control_c, 0, 64, 0
1, 730476, Control_c, 0, 67, 28
1, 730506, Note_on_c, 0, 47, 61
1, 730506, Note_on_c, 0, 59, 75
1, 730520, Control_c, 0, 67, 27
1, 730550, Control_c, 0, 67, 27
1, 730564, Control_c, 0, 64, 62
1, 730564, Control_c, 0, 67, 26
1, 730579, Control_c, 0, 64, 69
1, 730579, Control_c, 0, 67, 25
1, 730594, Control_c, 0, 64, 74
1, 730594, Control_c, 0, 67, 25
1, 730609, Control_c, 0, 64, 77
1, 730609, Control_c, 0, 67, 24
1, 730622, Note_off_c, 0, 59, 59
1, 730624, Control_c, 0, 64, 78
1, 730624, Control_c, 0, 67, 23
1, 730631, Note_off_c, 0, 47, 64
1, 730638, Control_c, 0, 67, 22
1, 730653, Control_c, 0, 67, 21
1, 730668, Control_c, 0, 67, 20
1, 730683, Control_c, 0, 64, 76
1, 730683, Control_c, 0, 67, 19
1, 730698, Control_c, 0, 64, 74
1, 730698, Control_c, 0, 67, 18
1, 730704, Note_on_c, 0, 63, 78
1, 730705, Note_on_c, 0, 51, 74
1, 730712, Control_c, 0, 64, 72
1, 730712, Control_c, 0, 67, 18
1, 730727, Control_c, 0, 64, 70
1, 730727, Control_c, 0, 67, 17
1, 730742, Control_c, 0, 64, 69
1, 730742, Control_c, 0, 67, 16
1, 730757, Control_c, 0, 67, 15
1, 730772, Control_c, 0, 64, 70
1, 730772, Control_c, 0, 67, 14
1, 730786, Control_c, 0, 64, 73
1, 730786, Control_c, 0, 67, 12
1, 730799, Note_off_c, 0, 63, 60
1, 730801, Control_c, 0, 64, 76
1, 730801, Control_c, 0, 67, 9
1, 730817, Control_c, 0, 64, 80
1, 730817, Control_c, 0, 67, 0
1, 730824, Note_off_c, 0, 51, 61
1, 730832, Control_c, 0, 64, 84
1, 730847, Control_c, 0, 64, 88
1, 730861, Control_c, 0, 64, 91
1, 730876, Control_c, 0, 64, 92
1, 730881, Note_on_c, 0, 54, 80
1, 730886, Note_on_c, 0, 66, 84
1, 730906, Control_c, 0, 64, 92
1, 730916, Note_on_c, 0, 63, 44
1, 730921, Control_c, 0, 64, 87
1, 730931, Note_off_c, 0, 54, 62
1, 730935, Control_c, 0, 64, 77
1, 730945, Note_off_c, 0, 63, 56
1, 730950, Control_c, 0, 64, 63
1, 730965, Control_c, 0, 64, 0
1, 731003, Note_off_c, 0, 66, 58
1, 731069, Control_c, 0, 64, 65
1, 731080, Note_on_c, 0, 44, 87
1, 731082, Note_on_c, 0, 66, 84
1, 731083, Note_on_c, 0, 59, 81
1, 731084, Control_c, 0, 64, 91
1, 731085, Note_on_c, 0, 63, 75
1, 731087, Note_on_c, 0, 54, 75
1, 731096, Note_off_c, 0, 45, 63
1, 731097, Note_off_c, 0, 57, 64
1, 731099, Control_c, 0, 64, 127
1, 731114, Note_off_c, 0, 54, 69
1, 731114, Note_off_c, 0, 59, 60
1, 731114, Control_c, 0, 67, 9
1, 731121, Note_off_c, 0, 44, 65
1, 731128, Control_c, 0, 67, 11
1, 731138, Note_off_c, 0, 63, 61
1, 731143, Control_c, 0, 67, 12
1, 731148, Note_off_c, 0, 66, 64
1, 731158, Control_c, 0, 67, 13
1, 731195, Control_c, 0, 67, 12
1, 731210, Control_c, 0, 67, 12
1, 731225, Control_c, 0, 67, 11
1, 731240, Control_c, 0, 67, 10
1, 731254, Control_c, 0, 67, 8
1, 731269, Control_c, 0, 67, 0
1, 731298, Note_on_c, 0, 52, 75
1, 731299, Control_c, 0, 64, 90
1, 731305, Note_on_c, 0, 64, 76
1, 731314, Control_c, 0, 64, 68
1, 731329, Control_c, 0, 64, 0
1, 731433, Control_c, 0, 64, 65
1, 731434, Note_on_c, 0, 68, 79
1, 731439, Note_on_c, 0, 56, 75
1, 731448, Control_c, 0, 64, 75
1, 731450, Note_off_c, 0, 64, 59
1, 731459, Note_off_c, 0, 52, 59
1, 731462, Control_c, 0, 64, 89
1, 731477, Control_c, 0, 64, 112
1, 731491, Note_on_c, 0, 59, 76
1, 731492, Control_c, 0, 64, 127
1, 731502, Note_on_c, 0, 71, 85
1, 731507, Note_off_c, 0, 56, 67
1, 731511, Note_off_c, 0, 68, 62
1, 731532, Note_off_c, 0, 59, 59
1, 731552, Note_off_c, 0, 71, 64
1, 731581, Control_c, 0, 64, 96
1, 731595, Control_c, 0, 64, 69
1, 731611, Control_c, 0, 64, 0
1, 731671, Control_c, 0, 64, 69
1, 731671, Control_c, 0, 67, 8
1, 731678, Note_on_c, 0, 71, 98
1, 731679, Note_on_c, 0, 37, 94
1, 731679, Note_on_c, 0, 49, 98
1, 731680, Note_on_c, 0, 67, 94
1, 731685, Control_c, 0, 64, 110
1, 731685, Control_c, 0, 67, 12
1, 731689, Note_on_c, 0, 64, 75
1, 731699, Note_off_c, 0, 49, 72
1, 731699, Note_off_c, 0, 37, 69
1, 731700, Control_c, 0, 64, 127
1, 731700, Control_c, 0, 67, 18
1, 731702, Note_off_c, 0, 67, 65
1, 731711, Note_off_c, 0, 64, 71
1, 731715, Control_c, 0, 67, 23
1, 731719, Note_off_c, 0, 71, 69
1, 731730, Control_c, 0, 67, 25
1, 731759, Control_c, 0, 67, 25
1, 731774, Control_c, 0, 67, 24
1, 731789, Control_c, 0, 67, 24
1, 731803, Control_c, 0, 67, 23
1, 731805, Poly_aftertouch_c, 0, 37, 127
1, 731818, Control_c, 0, 67, 23
1, 731848, Control_c, 0, 67, 22
1, 731854, Poly_aftertouch_c, 0, 37, 0
1, 731863, Control_c, 0, 67, 21
1, 731877, Control_c, 0, 67, 20
1, 731890, Note_on_c, 0, 69, 83
1, 731892, Control_c, 0, 67, 18
1, 731897, Note_on_c, 0, 57, 86
1, 731907, Control_c, 0, 67, 16
1, 731922, Control_c, 0, 64, 104
1, 731922, Control_c, 0, 67, 15
1, 731945, Control_c, 0, 64, 75
1, 731945, Control_c, 0, 67, 12
1, 731959, Control_c, 0, 64, 0
1, 731959, Control_c, 0, 67, 0
1, 732020, Note_on_c, 0, 61, 70
1, 732039, Note_on_c, 0, 73, 85
1, 732039, Note_off_c, 0, 69, 59
1, 732041, Note_off_c, 0, 57, 57
1, 732048, Control_c, 0, 64, 57
1, 732063, Control_c, 0, 64, 66
1, 732066, Note_on_c, 0, 64, 78
1, 732078, Control_c, 0, 64, 71
1, 732086, Note_off_c, 0, 61, 62
1, 732092, Note_on_c, 0, 76, 88
1, 732092, Control_c, 0, 64, 77
1, 732105, Note_off_c, 0, 64, 59
1, 732107, Note_off_c, 0, 73, 64
1, 732107, Control_c, 0, 64, 85
1, 732122, Control_c, 0, 64, 101
1, 732125, Note_off_c, 0, 76, 63
1, 732137, Control_c, 0, 64, 127
1, 732293, Note_on_c, 0, 83, 104
1, 732294, Note_on_c, 0, 59, 86
1, 732296, Note_on_c, 0, 64, 89
1, 732296, Note_on_c, 0, 67, 91
1, 732297, Note_on_c, 0, 76, 96
1, 732297, Note_on_c, 0, 79, 93
1, 732298, Note_on_c, 0, 71, 98
1, 732330, Control_c, 0, 64, 94
1, 732330, Control_c, 0, 67, 8
1, 732344, Control_c, 0, 64, 65
1, 732344, Control_c, 0, 67, 9
1, 732359, Control_c, 0, 64, 0
1, 732359, Control_c, 0, 67, 9
1, 732389, Control_c, 0, 67, 8
1, 732398, Note_off_c, 0, 71, 58
1, 732404, Control_c, 0, 64, 56
1, 732404, Control_c, 0, 67, 0
1, 732420, Control_c, 0, 64, 69
1, 732434, Control_c, 0, 64, 80
1, 732449, Control_c, 0, 64, 98
1, 732464, Control_c, 0, 64, 127
1, 732471, Note_off_c, 0, 67, 55
1, 732477, Note_on_c, 0, 81, 82
1, 732484, Note_on_c, 0, 57, 74
1, 732492, Note_off_c, 0, 64, 65
1, 732494, Note_on_c, 0, 69, 71
1, 732497, Note_off_c, 0, 83, 62
1, 732503, Note_off_c, 0, 59, 60
1, 732508, Note_off_c, 0, 76, 63
1, 732509, Note_off_c, 0, 79, 55
1, 732517, Note_off_c, 0, 81, 66
1, 732521, Note_off_c, 0, 57, 63
1, 732522, Note_off_c, 0, 69, 65
1, 732553, Control_c, 0, 64, 102
1, 732567, Control_c, 0, 64, 74
1, 732582, Control_c, 0, 64, 0
1, 732656, Control_c, 0, 64, 68
1, 732671, Control_c, 0, 64, 90
1, 732688, Note_on_c, 0, 49, 94
1, 732688, Note_on_c, 0, 71, 96
1, 732689, Note_on_c, 0, 37, 90
1, 732694, Control_c, 0, 64, 127
1, 732695, Note_on_c, 0, 64, 86
1, 732697, Note_on_c, 0, 67, 82
1, 732712, Note_off_c, 0, 37, 70
1, 732712, Note_off_c, 0, 49, 69
1, 732723, Control_c, 0, 67, 8
1, 732738, Control_c, 0, 67, 12
1, 732753, Control_c, 0, 67, 18
1, 732767, Control_c, 0, 67, 26
1, 732781, Control_c, 0, 67, 32
1, 732796, Control_c, 0, 67, 36
1, 732810, Control_c, 0, 67, 37
1, 732840, Control_c, 0, 64, 76
1, 732852, Note_off_c, 0, 67, 56
1, 732855, Control_c, 0, 64, 0
1, 732855, Control_c, 0, 67, 35
1, 732870, Control_c, 0, 67, 33
1, 732877, Note_on_c, 0, 50, 92
1, 732878, Note_on_c, 0, 38, 85
1, 732885, Control_c, 0, 67, 30
1, 732887, Note_on_c, 0, 69, 81
1, 732900, Note_on_c, 0, 66, 71
1, 732900, Control_c, 0, 67, 26
1, 732906, Note_off_c, 0, 64, 64
1, 732907, Note_off_c, 0, 38, 67
1, 732907, Note_off_c, 0, 50, 67
1, 732914, Control_c, 0, 64, 64
1, 732914, Control_c, 0, 67, 21
1, 732924, Note_off_c, 0, 66, 68
1, 732929, Control_c, 0, 64, 77
1, 732929, Control_c, 0, 67, 12
1, 732936, Note_off_c, 0, 71, 60
1, 732944, Control_c, 0, 64, 100
1, 732944, Control_c, 0, 67, 0
1, 732952, Note_off_c, 0, 69, 64
1, 732958, Control_c, 0, 64, 127
1, 733008, Poly_aftertouch_c, 0, 39, 0
1, 733032, Control_c, 0, 64, 102
1, 733047, Control_c, 0, 64, 69
1, 733062, Control_c, 0, 64, 0
1, 733079, Note_on_c, 0, 69, 82
1, 733083, Note_on_c, 0, 57, 76
1, 733085, Note_on_c, 0, 59, 82
1, 733195, Control_c, 0, 64, 42
1, 733211, Control_c, 0, 64, 66
1, 733221, Note_on_c, 0, 62, 70
1, 733221, Note_off_c, 0, 59, 58
1, 733226, Control_c, 0, 64, 74
1, 733228, Note_on_c, 0, 74, 86
1, 733228, Note_off_c, 0, 57, 58
1, 733241, Control_c, 0, 64, 86
1, 733242, Note_off_c, 0, 69, 61
1, 733255, Control_c, 0, 64, 127
1, 733257, Note_on_c, 0, 78, 93
1, 733274, Note_off_c, 0, 74, 67
1, 733275, Note_on_c, 0, 66, 72
1, 733295, Note_off_c, 0, 78, 66
1, 733306, Note_off_c, 0, 62, 58
1, 733333, Note_off_c, 0, 66, 57
1, 733460, Note_on_c, 0, 62, 92
1, 733461, Note_on_c, 0, 66, 94
1, 733465, Note_on_c, 0, 59, 85
1, 733467, Note_on_c, 0, 83, 102
1, 733475, Note_on_c, 0, 71, 92
1, 733475, Note_on_c, 0, 74, 97
1, 733475, Note_on_c, 0, 78, 91
1, 733556, Note_off_c, 0, 71, 61
1, 733559, Note_off_c, 0, 83, 60
1, 733651, Note_on_c, 0, 57, 80
1, 733652, Note_off_c, 0, 66, 60
1, 733654, Note_off_c, 0, 62, 59
1, 733657, Note_on_c, 0, 81, 93
1, 733660, Note_off_c, 0, 74, 52
1, 733666, Note_on_c, 0, 69, 75
1, 733666, Note_off_c, 0, 59, 60
1, 733668, Note_off_c, 0, 78, 62
1, 733680, Note_off_c, 0, 57, 66
1, 733691, Note_off_c, 0, 69, 69
1, 733693, Control_c, 0, 64, 95
1, 733702, Note_off_c, 0, 81, 66
1, 733707, Control_c, 0, 64, 67
1, 733722, Control_c, 0, 64, 0
1, 733811, Control_c, 0, 64, 61
1, 733826, Control_c, 0, 64, 79
1, 733836, Note_on_c, 0, 47, 92
1, 733837, Note_on_c, 0, 86, 103
1, 733839, Note_on_c, 0, 35, 83
1, 733841, Control_c, 0, 64, 111
1, 733843, Note_on_c, 0, 74, 102
1, 733843, Note_on_c, 0, 83, 92
1, 733851, Note_on_c, 0, 78, 81
1, 733855, Control_c, 0, 64, 127
1, 733857, Note_off_c, 0, 47, 73
1, 733864, Note_off_c, 0, 35, 67
1, 733864, Note_off_c, 0, 74, 67
1, 733866, Note_off_c, 0, 83, 60
1, 733869, Note_off_c, 0, 78, 72
1, 733892, Note_off_c, 0, 86, 59
1, 734054, Note_on_c, 0, 37, 98
1, 734056, Note_on_c, 0, 49, 98
1, 734056, Note_on_c, 0, 83, 80
1, 734058, Note_on_c, 0, 85, 102
1, 734064, Note_on_c, 0, 73, 95
1, 734064, Note_on_c, 0, 78, 91
1, 734075, Note_off_c, 0, 37, 71
1, 734075, Note_off_c, 0, 49, 72
1, 734123, Control_c, 0, 64, 87
1, 734138, Control_c, 0, 64, 36
1, 734150, Note_on_c, 0, 49, 9
1, 734152, Control_c, 0, 64, 0
1, 734209, Note_off_c, 0, 49, 29
1, 734254, Note_off_c, 0, 73, 53
1, 734274, Note_on_c, 0, 61, 90
1, 734307, Note_off_c, 0, 78, 53
1, 734402, Note_on_c, 0, 66, 78
1, 734427, Control_c, 0, 64, 61
1, 734432, Note_off_c, 0, 61, 63
1, 734442, Control_c, 0, 64, 75
1, 734454, Note_on_c, 0, 69, 81
1, 734457, Control_c, 0, 64, 88
1, 734461, Note_on_c, 0, 73, 91
1, 734472, Control_c, 0, 64, 127
1, 734474, Note_off_c, 0, 66, 64
1, 734476, Note_off_c, 0, 69, 70
1, 734589, Note_off_c, 0, 85, 59
1, 734590, Control_c, 0, 64, 68
1, 734602, Note_on_c, 0, 78, 77
1, 734605, Note_off_c, 0, 83, 54
1, 734605, Control_c, 0, 64, 0
1, 734647, Note_on_c, 0, 81, 90
1, 734651, Note_on_c, 0, 85, 99
1, 734652, Note_on_c, 0, 49, 98
1, 734655, Note_on_c, 0, 37, 93
1, 734665, Control_c, 0, 67, 10
1, 734672, Note_off_c, 0, 49, 72
1, 734677, Note_off_c, 0, 37, 71
1, 734679, Control_c, 0, 64, 65
1, 734679, Control_c, 0, 67, 15
1, 734694, Control_c, 0, 64, 91
1, 734694, Control_c, 0, 67, 24
1, 734709, Control_c, 0, 64, 127
1, 734709, Control_c, 0, 67, 31
1, 734722, Note_off_c, 0, 78, 44
1, 734723, Control_c, 0, 67, 34
1, 734738, Control_c, 0, 67, 35
1, 734768, Control_c, 0, 67, 34
1, 734773, Note_off_c, 0, 73, 58
1, 734775, Poly_aftertouch_c, 0, 84, 0
1, 734781, Poly_aftertouch_c, 0, 37, 127
1, 734783, Control_c, 0, 67, 33
1, 734799, Control_c, 0, 67, 31
1, 734814, Control_c, 0, 67, 30
1, 734828, Control_c, 0, 67, 29
1, 734834, Poly_aftertouch_c, 0, 37, 0
1, 734843, Control_c, 0, 67, 28
1, 734858, Control_c, 0, 67, 27
1, 734873, Control_c, 0, 67, 26
1, 734888, Control_c, 0, 67, 25
1, 734902, Note_on_c, 0, 62, 79
1, 734902, Control_c, 0, 67, 24
1, 734917, Control_c, 0, 67, 22
1, 734918, Note_on_c, 0, 63, 60
1, 734939, Control_c, 0, 67, 21
1, 734954, Control_c, 0, 67, 19
1, 734963, Note_off_c, 0, 63, 57
1, 734969, Control_c, 0, 67, 16
1, 734984, Control_c, 0, 67, 10
1, 734998, Control_c, 0, 67, 0
1, 735040, Note_off_c, 0, 62, 54
1, 735055, Note_on_c, 0, 65, 79
1, 735058, Note_off_c, 0, 81, 60
1, 735073, Note_on_c, 0, 73, 86
1, 735081, Note_on_c, 0, 71, 73
1, 735109, Note_off_c, 0, 71, 61
1, 735195, Note_on_c, 0, 80, 81
1, 735204, Note_off_c, 0, 73, 61
1, 735221, Note_off_c, 0, 65, 61
1, 735238, Note_off_c, 0, 85, 57
1, 735246, Note_on_c, 0, 66, 76
1, 735249, Note_on_c, 0, 78, 96
1, 735249, Note_on_c, 0, 69, 76
1, 735249, Control_c, 0, 64, 74
1, 735264, Control_c, 0, 64, 0
1, 735266, Note_off_c, 0, 80, 64
1, 735271, Note_off_c, 0, 69, 66
1, 735273, Note_off_c, 0, 66, 65
1, 735303, Note_off_c, 0, 78, 64
1, 735437, Note_on_c, 0, 78, 84
1, 735440, Note_on_c, 0, 86, 92
1, 735442, Note_on_c, 0, 59, 84
1, 735443, Note_on_c, 0, 71, 90
1, 735444, Note_on_c, 0, 74, 88
1, 735462, Note_off_c, 0, 74, 75
1, 735465, Note_off_c, 0, 78, 63
1, 735466, Note_off_c, 0, 86, 65
1, 735472, Note_off_c, 0, 71, 63
1, 735478, Note_off_c, 0, 59, 61
1, 735635, Note_on_c, 0, 68, 91
1, 735635, Note_on_c, 0, 77, 100
1, 735639, Note_on_c, 0, 61, 85
1, 735641, Note_on_c, 0, 71, 83
1, 735646, Note_on_c, 0, 73, 75
1, 735649, Note_off_c, 0, 77, 76
1, 735654, Note_off_c, 0, 68, 69
1, 735658, Note_off_c, 0, 71, 74
1, 735662, Note_off_c, 0, 73, 70
1, 735663, Note_off_c, 0, 61, 68
1, 735836, Control_c, 0, 64, 75
1, 735844, Note_on_c, 0, 78, 108
1, 735846, Note_on_c, 0, 66, 93
1, 735848, Note_on_c, 0, 69, 95
1, 735849, Note_on_c, 0, 73, 95
1, 735851, Control_c, 0, 64, 102
1, 735863, Note_off_c, 0, 69, 77
1, 735864, Note_off_c, 0, 73, 74
1, 735865, Note_off_c, 0, 78, 65
1, 735865, Control_c, 0, 64, 127
1, 735876, Note_off_c, 0, 66, 60
1, 735925, Control_c, 0, 64, 83
1, 735939, Control_c, 0, 64, 54
1, 735954, Control_c, 0, 64, 0
1, 736115, Note_on_c, 0, 54, 99
1, 736131, Control_c, 0, 64, 63
1, 736143, Note_off_c, 0, 54, 70
1, 736146, Control_c, 0, 64, 80
1, 736161, Control_c, 0, 64, 127
1, 736177, Note_on_c, 0, 55, 14
1, 736178, Note_off_c, 0, 55, 127
1, 736222, Poly_aftertouch_c, 0, 55, 0
1, 736495, Control_c, 0, 64, 104
1, 736510, Control_c, 0, 64, 84
1, 736525, Control_c, 0, 64, 69
1, 736540, Control_c, 0, 64, 48
1, 736554, Control_c, 0, 64, 0
1, 737793, Control_c, 0, 64, 14
1, 737808, Control_c, 0, 64, 19
1, 737822, Control_c, 0, 64, 24
1, 737837, Control_c, 0, 64, 27
1, 737852, Control_c, 0, 64, 29
1, 737867, Control_c, 0, 64, 30
1, 737882, Control_c, 0, 64, 31
1, 737896, Control_c, 0, 64, 32
1, 737911, Control_c, 0, 64, 34
1, 737934, Control_c, 0, 64, 36
1, 737949, Control_c, 0, 64, 36
1, 737963, Control_c, 0, 64, 38
1, 737978, Control_c, 0, 64, 39
1, 737993, Control_c, 0, 64, 40
1, 738009, Control_c, 0, 64, 42
1, 738024, Control_c, 0, 64, 43
1, 738039, Control_c, 0, 64, 43
1, 738053, Control_c, 0, 64, 44
1, 738068, Control_c, 0, 64, 44
1, 738098, Control_c, 0, 64, 45
1, 738127, Control_c, 0, 64, 45
1, 738186, Control_c, 0, 64, 46
1, 738245, Control_c, 0, 64, 46
1, 738305, Control_c, 0, 64, 47
1, 738557, Control_c, 0, 64, 47
1, 738616, Control_c, 0, 64, 48
1, 738645, Control_c, 0, 64, 48
1, 738660, Control_c, 0, 64, 49
1, 738698, Control_c, 0, 64, 49
1, 738727, Control_c, 0, 64, 50
1, 738965, Control_c, 0, 64, 50
1, 738980, Control_c, 0, 64, 51
1, 739009, Control_c, 0, 64, 51
1, 739024, Control_c, 0, 64, 52
1, 739039, Control_c, 0, 64, 53
1, 739054, Control_c, 0, 64, 53
1, 739083, Control_c, 0, 64, 54
1, 739098, Control_c, 0, 64, 55
1, 739113, Control_c, 0, 64, 55
1, 739142, Control_c, 0, 64, 56
1, 739157, Control_c, 0, 64, 56
1, 739172, Control_c, 0, 64, 57
1, 739187, Control_c, 0, 64, 57
1, 739216, Control_c, 0, 64, 58
1, 739231, Control_c, 0, 64, 58
1, 739246, Control_c, 0, 64, 59
1, 739261, Control_c, 0, 64, 59
1, 739276, Control_c, 0, 64, 60
1, 739291, Control_c, 0, 64, 60
1, 739446, Control_c, 0, 64, 60
1, 739520, Control_c, 0, 64, 59
1, 739698, Control_c, 0, 64, 60
1, 739831, Control_c, 0, 64, 60
1, 740024, Control_c, 0, 64, 61
1, 740054, Control_c, 0, 64, 61
1, 740084, Control_c, 0, 64, 62
1, 740098, Control_c, 0, 64, 62
1, 740128, Control_c, 0, 64, 63
1, 740142, Control_c, 0, 64, 63
1, 740157, Control_c, 0, 64, 64
1, 740179, Control_c, 0, 64, 64
1, 740194, Control_c, 0, 64, 65
1, 740209, Control_c, 0, 64, 66
1, 740224, Control_c, 0, 64, 67
1, 740239, Control_c, 0, 64, 67
1, 740254, Control_c, 0, 64, 68
1, 740269, Control_c, 0, 64, 68
1, 740299, Control_c, 0, 64, 69
1, 740313, Control_c, 0, 64, 69
1, 740328, Control_c, 0, 64, 70
1, 740358, Control_c, 0, 64, 70
1, 740373, Control_c, 0, 64, 71
1, 740388, Control_c, 0, 64, 71
1, 740403, Control_c, 0, 64, 72
1, 740418, Control_c, 0, 64, 72
1, 740448, Control_c, 0, 64, 73
1, 740492, Control_c, 0, 64, 73
1, 740507, Control_c, 0, 64, 74
1, 740522, Control_c, 0, 64, 74
1, 740537, Control_c, 0, 64, 75
1, 740552, Control_c, 0, 64, 76
1, 740567, Control_c, 0, 64, 77
1, 740581, Control_c, 0, 64, 77
1, 740596, Control_c, 0, 64, 78
1, 741136, Control_c, 0, 64, 77
1, 741151, Control_c, 0, 64, 77
1, 741166, Control_c, 0, 64, 76
1, 741181, Control_c, 0, 64, 75
1, 741196, Control_c, 0, 64, 75
1, 741211, Control_c, 0, 64, 74
1, 741226, Control_c, 0, 64, 73
1, 741241, Control_c, 0, 64, 71
1, 741256, Control_c, 0, 64, 69
1, 741270, Control_c, 0, 64, 67
1, 741285, Control_c, 0, 64, 65
1, 741300, Control_c, 0, 64, 63
1, 741315, Control_c, 0, 64, 61
1, 741330, Control_c, 0, 64, 59
1, 741345, Control_c, 0, 64, 56
1, 741360, Control_c, 0, 64, 53
1, 741375, Control_c, 0, 64, 50
1, 741390, Control_c, 0, 64, 49
1, 741404, Control_c, 0, 64, 48
1, 741449, Control_c, 0, 64, 48
1, 741464, Control_c, 0, 64, 53
1, 741478, Control_c, 0, 64, 62
1, 741493, Control_c, 0, 64, 66
1, 741508, Control_c, 0, 64, 71
1, 741522, Control_c, 0, 64, 77
1, 741537, Control_c, 0, 64, 82
1, 741540, Note_on_c, 0, 66, 68
1, 741545, Note_on_c, 0, 61, 61
1, 741546, Note_on_c, 0, 54, 66
1, 741546, Note_on_c, 0, 57, 55
1, 741552, Control_c, 0, 64, 87
1, 741567, Control_c, 0, 64, 91
1, 741573, Note_off_c, 0, 57, 59
1, 741582, Control_c, 0, 64, 92
1, 741585, Note_off_c, 0, 54, 60
1, 741599, Note_off_c, 0, 61, 53
1, 741611, Note_off_c, 0, 66, 59
1, 741626, Control_c, 0, 64, 92
1, 741641, Control_c, 0, 64, 89
1, 741656, Control_c, 0, 64, 86
1, 741678, Control_c, 0, 64, 80
1, 741693, Control_c, 0, 64, 74
1, 741708, Control_c, 0, 64, 68
1, 741721, Note_on_c, 0, 68, 86
1, 741722, Control_c, 0, 64, 60
1, 741723, Note_on_c, 0, 61, 77
1, 741726, Note_on_c, 0, 56, 82
1, 741726, Note_on_c, 0, 65, 76
1, 741729, Note_on_c, 0, 49, 82
1, 741737, Control_c, 0, 64, 23
1, 741752, Control_c, 0, 64, 0
1, 741771, Note_off_c, 0, 56, 58
1, 741790, Note_off_c, 0, 61, 52
1, 741795, Note_off_c, 0, 49, 63
1, 741798, Note_off_c, 0, 68, 60
1, 741821, Note_off_c, 0, 65, 59
1, 741885, Note_on_c, 0, 68, 90
1, 741885, Control_c, 0, 64, 63
1, 741887, Note_on_c, 0, 56, 81
1, 741889, Note_on_c, 0, 49, 84
1, 741890, Note_on_c, 0, 65, 75
1, 741896, Note_on_c, 0, 61, 72
1, 741900, Control_c, 0, 64, 79
1, 741915, Control_c, 0, 64, 127
1, 741927, Note_off_c, 0, 61, 61
1, 741947, Note_off_c, 0, 56, 63
1, 741963, Note_off_c, 0, 68, 60
1, 741968, Note_off_c, 0, 49, 61
1, 741984, Note_off_c, 0, 65, 62
1, 742027, Note_on_c, 0, 69, 92
1, 742029, Note_on_c, 0, 54, 86
1, 742030, Note_on_c, 0, 61, 84
1, 742033, Note_on_c, 0, 66, 82
1, 742033, Note_on_c, 0, 57, 86
1, 742036, Note_on_c, 0, 42, 77
1, 742078, Note_off_c, 0, 57, 61
1, 742078, Note_off_c, 0, 54, 65
1, 742083, Note_off_c, 0, 42, 60
1, 742089, Note_off_c, 0, 69, 59
1, 742092, Note_off_c, 0, 61, 59
1, 742094, Note_off_c, 0, 66, 59
1, 742138, Control_c, 0, 64, 103
1, 742153, Control_c, 0, 64, 77
1, 742165, Note_on_c, 0, 54, 88
1, 742168, Note_on_c, 0, 57, 86
1, 742168, Note_on_c, 0, 61, 83
1, 742168, Control_c, 0, 64, 44
1, 742169, Note_on_c, 0, 69, 88
1, 742171, Note_on_c, 0, 42, 80
1, 742175, Note_on_c, 0, 66, 80
1, 742182, Control_c, 0, 64, 0
1, 742189, Note_off_c, 0, 54, 70
1, 742195, Note_off_c, 0, 57, 63
1, 742207, Note_off_c, 0, 61, 59
1, 742210, Note_off_c, 0, 66, 60
1, 742212, Note_off_c, 0, 42, 64
1, 742221, Note_off_c, 0, 69, 63
1, 742290, Note_on_c, 0, 71, 91
1, 742293, Note_on_c, 0, 59, 88
1, 742293, Note_on_c, 0, 64, 85
1, 742295, Note_on_c, 0, 68, 83
1, 742296, Note_on_c, 0, 52, 89
1, 742301, Note_on_c, 0, 40, 82
1, 742328, Note_off_c, 0, 59, 61
1, 742333, Note_off_c, 0, 52, 60
1, 742336, Note_off_c, 0, 40, 66
1, 742347, Note_off_c, 0, 71, 61
1, 742350, Note_off_c, 0, 64, 62
1, 742352, Note_off_c, 0, 68, 61
1, 742427, Control_c, 0, 64, 58
1, 742439, Note_on_c, 0, 52, 89
1, 742439, Note_on_c, 0, 59, 96
1, 742441, Note_on_c, 0, 71, 91
1, 742442, Control_c, 0, 64, 84
1, 742445, Note_on_c, 0, 40, 84
1, 742447, Note_on_c, 0, 64, 77
1, 742450, Note_on_c, 0, 68, 86
1, 742457, Control_c, 0, 64, 127
1, 742465, Note_off_c, 0, 52, 68
1, 742469, Note_off_c, 0, 64, 71
1, 742480, Note_off_c, 0, 40, 65
1, 742481, Note_off_c, 0, 59, 61
1, 742489, Note_off_c, 0, 71, 66
1, 742495, Note_off_c, 0, 68, 62
1, 742569, Note_on_c, 0, 73, 99
1, 742573, Note_on_c, 0, 61, 89
1, 742577, Note_on_c, 0, 45, 92
1, 742580, Note_on_c, 0, 33, 88
1, 742580, Note_on_c, 0, 69, 70
1, 742604, Note_off_c, 0, 45, 69
1, 742609, Note_off_c, 0, 33, 66
1, 742615, Note_off_c, 0, 69, 55
1, 742618, Note_off_c, 0, 61, 59
1, 742623, Note_off_c, 0, 73, 61
1, 742649, Control_c, 0, 64, 103
1, 742664, Control_c, 0, 64, 74
1, 742676, Poly_aftertouch_c, 0, 74, 0
1, 742678, Control_c, 0, 64, 0
1, 742709, Note_on_c, 0, 45, 93
1, 742710, Note_on_c, 0, 73, 102
1, 742710, Note_on_c, 0, 33, 85
1, 742712, Note_on_c, 0, 69, 75
1, 742713, Note_on_c, 0, 61, 87
1, 742732, Note_off_c, 0, 69, 72
1, 742734, Note_off_c, 0, 45, 71
1, 742734, Note_off_c, 0, 61, 70
1, 742740, Note_off_c, 0, 33, 67
1, 742760, Note_off_c, 0, 73, 66
1, 742838, Note_on_c, 0, 78, 97
1, 742840, Note_on_c, 0, 46, 95
1, 742840, Note_on_c, 0, 34, 86
1, 742843, Note_on_c, 0, 66, 91
1, 742850, Note_on_c, 0, 73, 81
1, 742862, Note_off_c, 0, 66, 71
1, 742862, Note_off_c, 0, 46, 69
1, 742867, Note_off_c, 0, 34, 66
1, 742871, Note_off_c, 0, 73, 68
1, 742886, Note_off_c, 0, 78, 67
1, 743019, Note_on_c, 0, 46, 96
1, 743020, Control_c, 0, 64, 49
1, 743023, Note_on_c, 0, 34, 89
1, 743024, Note_on_c, 0, 78, 101
1, 743029, Note_on_c, 0, 73, 95
1, 743029, Note_on_c, 0, 66, 102
1, 743035, Control_c, 0, 64, 95
1, 743038, Note_off_c, 0, 46, 70
1, 743045, Note_off_c, 0, 34, 66
1, 743049, Note_off_c, 0, 66, 67
1, 743050, Control_c, 0, 64, 127
1, 743068, Note_off_c, 0, 78, 68
1, 743071, Note_off_c, 0, 73, 61
1, 743160, Poly_aftertouch_c, 0, 46, 0
1, 743187, Poly_aftertouch_c, 0, 46, 0
1, 743209, Poly_aftertouch_c, 0, 34, 0
1, 743341, Note_on_c, 0, 66, 87
1, 743343, Note_on_c, 0, 78, 84
1, 743344, Note_on_c, 0, 73, 85
1, 743355, Note_on_c, 0, 34, 82
1, 743355, Note_on_c, 0, 46, 86
1, 743363, Note_off_c, 0, 73, 71
1, 743367, Note_off_c, 0, 66, 65
1, 743378, Note_off_c, 0, 34, 64
1, 743378, Note_off_c, 0, 46, 65
1, 743380, Note_off_c, 0, 78, 63
1, 743397, Control_c, 0, 64, 103
1, 743412, Control_c, 0, 64, 72
1, 743427, Control_c, 0, 64, 0
1, 743478, Note_on_c, 0, 74, 90
1, 743479, Note_on_c, 0, 47, 77
1, 743483, Note_on_c, 0, 35, 76
1, 743486, Note_on_c, 0, 62, 73
1, 743486, Note_on_c, 0, 71, 76
1, 743488, Note_on_c, 0, 66, 70
1, 743506, Note_off_c, 0, 47, 67
1, 743507, Note_off_c, 0, 71, 70
1, 743510, Note_off_c, 0, 35, 66
1, 743511, Note_off_c, 0, 66, 66
1, 743512, Note_off_c, 0, 62, 65
1, 743522, Note_off_c, 0, 74, 63
1, 743612, Note_on_c, 0, 66, 76
1, 743612, Note_on_c, 0, 74, 88
1, 743614, Note_on_c, 0, 47, 75
1, 743615, Note_on_c, 0, 35, 66
1, 743616, Note_on_c, 0, 62, 70
1, 743620, Control_c, 0, 64, 85
1, 743635, Control_c, 0, 64, 127
1, 743641, Note_off_c, 0, 62, 65
1, 743649, Note_off_c, 0, 47, 66
1, 743652, Note_on_c, 0, 71, 29
1, 743655, Note_off_c, 0, 74, 63
1, 743656, Note_off_c, 0, 35, 64
1, 743673, Note_off_c, 0, 66, 60
1, 743691, Note_off_c, 0, 71, 53
1, 743747, Note_on_c, 0, 73, 90
1, 743748, Note_on_c, 0, 61, 81
1, 743750, Note_on_c, 0, 49, 83
1, 743752, Note_on_c, 0, 69, 70
1, 743753, Note_on_c, 0, 37, 80
1, 743775, Note_off_c, 0, 61, 62
1, 743777, Note_off_c, 0, 49, 68
1, 743783, Control_c, 0, 64, 112
1, 743785, Note_off_c, 0, 37, 66
1, 743795, Note_off_c, 0, 73, 60
1, 743798, Control_c, 0, 64, 74
1, 743805, Note_off_c, 0, 69, 60
1, 743813, Control_c, 0, 64, 0
1, 743879, Note_on_c, 0, 64, 81
1, 743884, Note_on_c, 0, 49, 79
1, 743886, Note_on_c, 0, 69, 75
1, 743888, Note_on_c, 0, 37, 73
1, 743890, Note_on_c, 0, 61, 69
1, 743890, Note_on_c, 0, 73, 75
1, 743916, Note_off_c, 0, 61, 66
1, 743917, Note_off_c, 0, 64, 64
1, 743917, Note_off_c, 0, 69, 68
1, 743918, Note_off_c, 0, 73, 70
1, 743921, Note_off_c, 0, 49, 67
1, 743926, Note_off_c, 0, 37, 67
1, 744019, Note_on_c, 0, 50, 78
1, 744025, Note_on_c, 0, 71, 80
1, 744028, Note_on_c, 0, 38, 67
1, 744028, Note_on_c, 0, 59, 76
1, 744029, Note_on_c, 0, 66, 73
1, 744047, Note_off_c, 0, 50, 68
1, 744048, Note_off_c, 0, 71, 64
1, 744050, Note_off_c, 0, 59, 68
1, 744055, Note_off_c, 0, 66, 65
1, 744056, Note_off_c, 0, 38, 64
1, 744132, Control_c, 0, 64, 72
1, 744147, Control_c, 0, 64, 93
1, 744153, Note_on_c, 0, 71, 79
1, 744162, Control_c, 0, 64, 127
1, 744162, Note_on_c, 0, 66, 69
1, 744164, Note_on_c, 0, 50, 63
1, 744169, Note_on_c, 0, 38, 63
1, 744169, Note_on_c, 0, 59, 55
1, 744198, Note_off_c, 0, 59, 64
1, 744201, Note_off_c, 0, 50, 67
1, 744205, Note_off_c, 0, 38, 62
1, 744290, Note_on_c, 0, 69, 87
1, 744291, Note_on_c, 0, 39, 77
1, 744291, Note_on_c, 0, 51, 78
1, 744303, Note_on_c, 0, 57, 66
1, 744310, Note_off_c, 0, 66, 33
1, 744310, Control_c, 0, 64, 90
1, 744317, Note_off_c, 0, 71, 49
1, 744318, Note_off_c, 0, 51, 67
1, 744322, Note_off_c, 0, 39, 65
1, 744324, Control_c, 0, 64, 61
1, 744326, Note_off_c, 0, 57, 64
1, 744335, Note_off_c, 0, 69, 63
1, 744339, Control_c, 0, 64, 0
1, 744424, Note_on_c, 0, 51, 70
1, 744425, Note_on_c, 0, 57, 70
1, 744426, Note_on_c, 0, 69, 82
1, 744427, Note_on_c, 0, 66, 80
1, 744432, Note_on_c, 0, 39, 69
1, 744452, Note_off_c, 0, 57, 67
1, 744454, Note_off_c, 0, 69, 62
1, 744457, Note_off_c, 0, 51, 66
1, 744466, Note_off_c, 0, 39, 63
1, 744478, Note_off_c, 0, 66, 62
1, 744553, Note_on_c, 0, 68, 86
1, 744558, Note_on_c, 0, 52, 79
1, 744563, Note_on_c, 0, 40, 75
1, 744563, Note_on_c, 0, 56, 80
1, 744565, Note_on_c, 0, 64, 73
1, 744587, Note_off_c, 0, 52, 66
1, 744589, Note_off_c, 0, 56, 67
1, 744594, Note_off_c, 0, 40, 64
1, 744607, Note_off_c, 0, 64, 57
1, 744609, Note_off_c, 0, 68, 62
1, 744703, Control_c, 0, 64, 66
1, 744710, Note_on_c, 0, 68, 86
1, 744718, Control_c, 0, 64, 88
1, 744719, Note_on_c, 0, 40, 58
1, 744719, Note_on_c, 0, 56, 75
1, 744719, Note_on_c, 0, 64, 71
1, 744719, Note_on_c, 0, 52, 73
1, 744733, Control_c, 0, 64, 127
1, 744773, Note_off_c, 0, 52, 56
1, 744791, Note_off_c, 0, 40, 61
1, 744809, Note_off_c, 0, 56, 56
1, 744837, Note_on_c, 0, 66, 79
1, 744851, Note_on_c, 0, 62, 76
1, 744874, Note_off_c, 0, 64, 61
1, 744877, Note_off_c, 0, 68, 55
1, 744901, Note_off_c, 0, 62, 56
1, 744908, Note_off_c, 0, 66, 61
1, 744967, Note_on_c, 0, 68, 92
1, 744970, Note_on_c, 0, 64, 91
1, 744973, Note_on_c, 0, 52, 87
1, 744975, Note_on_c, 0, 61, 85
1, 744977, Note_on_c, 0, 40, 80
1, 745005, Note_off_c, 0, 61, 60
1, 745012, Note_off_c, 0, 64, 66
1, 745013, Control_c, 0, 64, 112
1, 745016, Note_off_c, 0, 52, 60
1, 745020, Note_off_c, 0, 40, 62
1, 745021, Note_off_c, 0, 68, 57
1, 745028, Control_c, 0, 64, 76
1, 745043, Control_c, 0, 64, 0
1, 745089, Note_on_c, 0, 68, 99
1, 745094, Note_on_c, 0, 53, 86
1, 745094, Note_on_c, 0, 62, 88
1, 745095, Note_on_c, 0, 41, 85
1, 745104, Note_on_c, 0, 59, 78
1, 745125, Note_off_c, 0, 53, 65
1, 745126, Note_off_c, 0, 59, 69
1, 745132, Note_off_c, 0, 41, 64
1, 745141, Note_off_c, 0, 62, 62
1, 745142, Note_off_c, 0, 68, 63
1, 745232, Note_on_c, 0, 68, 96
1, 745235, Note_on_c, 0, 53, 92
1, 745235, Note_on_c, 0, 41, 88
1, 745235, Note_on_c, 0, 59, 82
1, 745236, Control_c, 0, 64, 75
1, 745238, Note_on_c, 0, 62, 90
1, 745251, Control_c, 0, 64, 127
1, 745268, Note_off_c, 0, 62, 59
1, 745276, Note_off_c, 0, 53, 68
1, 745284, Note_off_c, 0, 41, 64
1, 745294, Note_off_c, 0, 59, 59
1, 745324, Note_off_c, 0, 68, 60
1, 745330, Poly_aftertouch_c, 0, 42, 127
1, 745353, Poly_aftertouch_c, 0, 42, 0
1, 745362, Note_on_c, 0, 69, 92
1, 745366, Note_on_c, 0, 61, 96
1, 745366, Note_on_c, 0, 57, 86
1, 745368, Note_on_c, 0, 54, 96
1, 745370, Note_on_c, 0, 42, 45
1, 745386, Note_on_c, 0, 43, 68
1, 745394, Note_off_c, 0, 54, 64
1, 745396, Note_on_c, 0, 44, 42
1, 745399, Note_off_c, 0, 57, 62
1, 745401, Note_off_c, 0, 42, 61
1, 745417, Note_off_c, 0, 61, 64
1, 745419, Note_off_c, 0, 69, 64
1, 745422, Control_c, 0, 64, 82
1, 745423, Note_off_c, 0, 43, 65
1, 745437, Note_off_c, 0, 44, 33
1, 745437, Control_c, 0, 64, 0
1, 745496, Note_on_c, 0, 42, 87
1, 745497, Note_on_c, 0, 54, 96
1, 745503, Note_on_c, 0, 69, 95
1, 745505, Note_on_c, 0, 57, 90
1, 745506, Note_on_c, 0, 61, 93
1, 745524, Note_off_c, 0, 54, 68
1, 745529, Note_off_c, 0, 57, 66
1, 745529, Note_off_c, 0, 61, 65
1, 745545, Note_off_c, 0, 42, 63
1, 745548, Note_off_c, 0, 69, 64
1, 745622, Note_on_c, 0, 52, 97
1, 745625, Note_on_c, 0, 71, 99
1, 745626, Note_on_c, 0, 40, 91
1, 745627, Note_on_c, 0, 59, 97
1, 745631, Note_on_c, 0, 68, 89
1, 745634, Note_on_c, 0, 64, 81
1, 745652, Note_off_c, 0, 59, 64
1, 745655, Note_off_c, 0, 52, 63
1, 745658, Note_off_c, 0, 64, 67
1, 745664, Note_off_c, 0, 40, 65
1, 745682, Note_off_c, 0, 71, 63
1, 745683, Note_off_c, 0, 68, 61
1, 745754, Note_on_c, 0, 52, 95
1, 745757, Note_on_c, 0, 40, 92
1, 745757, Note_on_c, 0, 59, 98
1, 745759, Note_on_c, 0, 71, 93
1, 745761, Note_on_c, 0, 64, 82
1, 745761, Control_c, 0, 64, 67
1, 745767, Note_on_c, 0, 68, 85
1, 745776, Control_c, 0, 64, 108
1, 745781, Note_off_c, 0, 52, 64
1, 745782, Note_off_c, 0, 64, 72
1, 745789, Note_off_c, 0, 59, 60
1, 745791, Control_c, 0, 64, 127
1, 745795, Note_off_c, 0, 40, 65
1, 745799, Note_off_c, 0, 71, 66
1, 745807, Note_off_c, 0, 68, 61
1, 745882, Note_on_c, 0, 73, 101
1, 745885, Note_on_c, 0, 61, 93
1, 745886, Note_on_c, 0, 45, 101
1, 745888, Note_on_c, 0, 33, 89
1, 745895, Note_on_c, 0, 69, 74
1, 745913, Note_off_c, 0, 45, 67
1, 745913, Note_off_c, 0, 61, 62
1, 745918, Note_off_c, 0, 33, 64
1, 745919, Note_off_c, 0, 69, 68
1, 745933, Note_off_c, 0, 73, 62
1, 746016, Note_on_c, 0, 45, 100
1, 746016, Note_on_c, 0, 33, 92
1, 746019, Note_on_c, 0, 73, 106
1, 746022, Note_on_c, 0, 61, 95
1, 746025, Note_on_c, 0, 69, 74
1, 746030, Control_c, 0, 64, 96
1, 746038, Note_off_c, 0, 61, 74
1, 746044, Note_off_c, 0, 69, 72
1, 746045, Control_c, 0, 64, 57
1, 746050, Note_off_c, 0, 33, 62
1, 746054, Note_off_c, 0, 45, 66
1, 746059, Control_c, 0, 64, 0
1, 746073, Note_off_c, 0, 73, 65
1, 746152, Note_on_c, 0, 46, 97
1, 746155, Note_on_c, 0, 34, 96
1, 746165, Note_on_c, 0, 78, 109
1, 746168, Note_on_c, 0, 66, 103
1, 746172, Note_on_c, 0, 73, 93
1, 746189, Note_off_c, 0, 46, 63
1, 746192, Note_off_c, 0, 66, 64
1, 746194, Note_off_c, 0, 34, 62
1, 746200, Note_on_c, 0, 75, 35
1, 746204, Note_off_c, 0, 73, 55
1, 746219, Note_off_c, 0, 78, 63
1, 746231, Note_off_c, 0, 75, 56
1, 746367, Note_on_c, 0, 46, 96
1, 746368, Note_on_c, 0, 34, 92
1, 746368, Note_on_c, 0, 78, 107
1, 746371, Note_on_c, 0, 73, 108
1, 746372, Note_on_c, 0, 66, 107
1, 746378, Control_c, 0, 64, 91
1, 746384, Note_off_c, 0, 46, 72
1, 746388, Note_off_c, 0, 34, 72
1, 746392, Control_c, 0, 64, 127
1, 746463, Note_off_c, 0, 66, 51
1, 746522, Poly_aftertouch_c, 0, 46, 0
1, 746527, Note_off_c, 0, 78, 52
1, 746570, Note_off_c, 0, 73, 54
1, 746699, Note_on_c, 0, 34, 87
1, 746699, Note_on_c, 0, 46, 87
1, 746699, Note_on_c, 0, 73, 100
1, 746699, Note_on_c, 0, 78, 98
1, 746701, Note_on_c, 0, 66, 93
1, 746720, Note_off_c, 0, 46, 69
1, 746723, Note_off_c, 0, 66, 68
1, 746733, Note_off_c, 0, 34, 64
1, 746734, Note_off_c, 0, 73, 66
1, 746734, Note_off_c, 0, 78, 65
1, 746882, Control_c, 0, 64, 84
1, 746897, Control_c, 0, 64, 0
1, 746923, Note_on_c, 0, 47, 87
1, 746925, Note_on_c, 0, 35, 79
1, 746926, Note_on_c, 0, 62, 93
1, 746928, Note_on_c, 0, 71, 90
1, 746928, Note_on_c, 0, 74, 91
1, 746943, Note_off_c, 0, 62, 72
1, 746946, Note_off_c, 0, 71, 74
1, 746946, Note_off_c, 0, 74, 74
1, 746946, Note_off_c, 0, 47, 69
1, 746949, Note_off_c, 0, 35, 67
1, 746979, Control_c, 0, 64, 70
1, 746994, Note_on_c, 0, 47, 88
1, 746994, Control_c, 0, 64, 88
1, 746994, Note_on_c, 0, 74, 99
1, 746997, Note_on_c, 0, 35, 81
1, 746997, Note_on_c, 0, 62, 87
1, 747009, Control_c, 0, 64, 127
1, 747023, Note_on_c, 0, 71, 50
1, 747031, Note_off_c, 0, 47, 68
1, 747032, Note_off_c, 0, 35, 66
1, 747053, Note_off_c, 0, 71, 58
1, 747057, Note_off_c, 0, 62, 61
1, 747089, Note_off_c, 0, 74, 63
1, 747098, Control_c, 0, 64, 74
1, 747113, Control_c, 0, 64, 0
1, 747127, Note_on_c, 0, 49, 90
1, 747128, Note_on_c, 0, 73, 91
1, 747129, Note_on_c, 0, 69, 82
1, 747131, Note_on_c, 0, 37, 89
1, 747155, Note_off_c, 0, 49, 65
1, 747163, Note_off_c, 0, 37, 64
1, 747172, Note_off_c, 0, 69, 62
1, 747182, Note_off_c, 0, 73, 62
1, 747255, Note_on_c, 0, 50, 91
1, 747257, Note_on_c, 0, 38, 86
1, 747259, Note_on_c, 0, 71, 85
1, 747271, Note_on_c, 0, 69, 74
1, 747273, Note_on_c, 0, 68, 72
1, 747277, Note_off_c, 0, 50, 73
1, 747283, Note_off_c, 0, 38, 68
1, 747294, Note_off_c, 0, 69, 67
1, 747297, Note_off_c, 0, 68, 69
1, 747316, Note_off_c, 0, 71, 60
1, 747377, Note_on_c, 0, 51, 87
1, 747377, Note_on_c, 0, 71, 83
1, 747379, Note_on_c, 0, 39, 88
1, 747387, Note_on_c, 0, 66, 76
1, 747394, Note_on_c, 0, 69, 46
1, 747400, Note_off_c, 0, 51, 70
1, 747408, Note_off_c, 0, 39, 66
1, 747415, Note_off_c, 0, 66, 61
1, 747422, Note_off_c, 0, 69, 57
1, 747427, Note_off_c, 0, 71, 67
1, 747527, Control_c, 0, 64, 26
1, 747538, Note_on_c, 0, 76, 99
1, 747540, Note_on_c, 0, 52, 87
1, 747542, Note_on_c, 0, 64, 88
1, 747542, Note_on_c, 0, 68, 86
1, 747542, Control_c, 0, 64, 70
1, 747542, Note_on_c, 0, 40, 82
1, 747554, Note_off_c, 0, 76, 74
1, 747557, Control_c, 0, 64, 82
1, 747559, Note_off_c, 0, 68, 72
1, 747562, Note_off_c, 0, 64, 73
1, 747564, Note_off_c, 0, 52, 68
1, 747567, Note_off_c, 0, 40, 66
1, 747572, Control_c, 0, 64, 101
1, 747587, Control_c, 0, 64, 127
1, 747802, Control_c, 0, 67, 8
1, 747809, Note_on_c, 0, 68, 91
1, 747813, Note_on_c, 0, 62, 83
1, 747814, Note_on_c, 0, 52, 82
1, 747817, Note_on_c, 0, 64, 74
1, 747817, Control_c, 0, 67, 8
1, 747819, Note_on_c, 0, 59, 74
1, 747829, Note_off_c, 0, 68, 70
1, 747832, Control_c, 0, 64, 83
1, 747832, Control_c, 0, 67, 9
1, 747833, Note_off_c, 0, 62, 70
1, 747835, Note_off_c, 0, 64, 69
1, 747841, Note_off_c, 0, 52, 65
1, 747846, Control_c, 0, 64, 55
1, 747850, Note_off_c, 0, 59, 53
1, 747861, Control_c, 0, 64, 0
1, 747861, Control_c, 0, 67, 9
1, 747868, Note_on_c, 0, 68, 90
1, 747875, Note_on_c, 0, 52, 75
1, 747875, Note_on_c, 0, 59, 67
1, 747876, Control_c, 0, 67, 10
1, 747878, Note_on_c, 0, 62, 71
1, 747882, Note_on_c, 0, 64, 79
1, 747891, Control_c, 0, 67, 11
1, 747906, Control_c, 0, 67, 11
1, 747921, Control_c, 0, 64, 57
1, 747921, Control_c, 0, 67, 13
1, 747936, Control_c, 0, 64, 69
1, 747936, Control_c, 0, 67, 15
1, 747950, Control_c, 0, 64, 79
1, 747950, Control_c, 0, 67, 16
1, 747965, Control_c, 0, 64, 91
1, 747965, Control_c, 0, 67, 18
1, 747980, Control_c, 0, 64, 104
1, 747980, Control_c, 0, 67, 18
1, 747995, Control_c, 0, 64, 114
1, 747995, Control_c, 0, 67, 19
1, 748004, Note_off_c, 0, 62, 60
1, 748010, Control_c, 0, 64, 115
1, 748025, Control_c, 0, 64, 115
1, 748025, Control_c, 0, 67, 19
1, 748038, Note_off_c, 0, 59, 46
1, 748039, Control_c, 0, 64, 116
1, 748054, Control_c, 0, 64, 120
1, 748054, Control_c, 0, 67, 20
1, 748069, Control_c, 0, 64, 127
1, 748069, Control_c, 0, 67, 21
1, 748083, Control_c, 0, 67, 23
1, 748098, Control_c, 0, 67, 23
1, 748113, Control_c, 0, 67, 24
1, 748143, Control_c, 0, 67, 24
1, 748157, Control_c, 0, 67, 25
1, 748172, Control_c, 0, 67, 25
1, 748187, Control_c, 0, 67, 26
1, 748202, Control_c, 0, 67, 28
1, 748217, Control_c, 0, 67, 29
1, 748231, Control_c, 0, 64, 103
1, 748231, Control_c, 0, 67, 29
1, 748246, Note_off_c, 0, 52, 59
1, 748246, Control_c, 0, 64, 83
1, 748246, Control_c, 0, 67, 30
1, 748253, Note_on_c, 0, 69, 69
1, 748261, Control_c, 0, 64, 64
1, 748261, Control_c, 0, 67, 30
1, 748263, Note_on_c, 0, 57, 55
1, 748271, Note_on_c, 0, 45, 61
1, 748276, Control_c, 0, 64, 0
1, 748276, Control_c, 0, 67, 31
1, 748278, Note_on_c, 0, 61, 52
1, 748287, Note_off_c, 0, 64, 64
1, 748289, Note_off_c, 0, 68, 59
1, 748290, Control_c, 0, 67, 32
1, 748380, Control_c, 0, 64, 36
1, 748395, Control_c, 0, 64, 68
1, 748395, Control_c, 0, 67, 32
1, 748400, Note_off_c, 0, 45, 64
1, 748418, Control_c, 0, 64, 81
1, 748418, Control_c, 0, 67, 33
1, 748424, Note_off_c, 0, 61, 62
1, 748429, Note_off_c, 0, 69, 64
1, 748433, Control_c, 0, 64, 108
1, 748448, Control_c, 0, 64, 127
1, 748448, Control_c, 0, 67, 33
1, 748449, Note_off_c, 0, 57, 61
1, 748462, Control_c, 0, 67, 34
1, 748477, Control_c, 0, 67, 35
1, 748492, Control_c, 0, 67, 37
1, 748506, Control_c, 0, 67, 38
1, 748521, Control_c, 0, 67, 41
1, 748536, Control_c, 0, 67, 45
1, 748551, Control_c, 0, 67, 48
1, 748566, Control_c, 0, 67, 51
1, 748580, Control_c, 0, 67, 53
1, 748595, Control_c, 0, 67, 54
1, 748610, Control_c, 0, 67, 56
1, 748625, Control_c, 0, 67, 56
1, 748640, Control_c, 0, 67, 57
1, 748669, Control_c, 0, 64, 89
1, 748669, Control_c, 0, 67, 57
1, 748684, Control_c, 0, 64, 66
1, 748699, Control_c, 0, 64, 0
1, 748699, Control_c, 0, 67, 58
1, 748714, Control_c, 0, 67, 58
1, 748717, Note_on_c, 0, 76, 67
1, 748728, Note_on_c, 0, 57, 42
1, 748738, Note_on_c, 0, 61, 38
1, 748743, Control_c, 0, 64, 38
1, 748743, Control_c, 0, 67, 59
1, 748746, Note_on_c, 0, 67, 34
1, 748758, Control_c, 0, 64, 66
1, 748758, Control_c, 0, 67, 60
1, 748773, Control_c, 0, 64, 76
1, 748773, Control_c, 0, 67, 62
1, 748788, Control_c, 0, 64, 91
1, 748788, Control_c, 0, 67, 65
1, 748800, Note_off_c, 0, 61, 56
1, 748801, Note_off_c, 0, 67, 43
1, 748803, Control_c, 0, 64, 127
1, 748803, Control_c, 0, 67, 68
1, 748813, Note_off_c, 0, 76, 55
1, 748818, Control_c, 0, 67, 70
1, 748833, Control_c, 0, 67, 73
1, 748848, Control_c, 0, 67, 76
1, 748853, Note_off_c, 0, 57, 0
1, 748862, Control_c, 0, 67, 78
1, 748874, Note_on_c, 0, 57, 29
1, 748875, Note_on_c, 0, 76, 68
1, 748877, Control_c, 0, 67, 80
1, 748892, Control_c, 0, 67, 83
1, 748898, Note_on_c, 0, 61, 42
1, 748905, Note_on_c, 0, 67, 51
1, 748906, Control_c, 0, 67, 86
1, 748921, Control_c, 0, 67, 88
1, 748925, Note_off_c, 0, 61, 55
1, 748928, Note_off_c, 0, 67, 60
1, 748936, Note_off_c, 0, 76, 59
1, 748936, Control_c, 0, 67, 90
1, 748951, Control_c, 0, 67, 92
1, 748955, Note_off_c, 0, 57, 48
1, 748966, Control_c, 0, 67, 94
1, 748980, Control_c, 0, 67, 96
1, 748995, Control_c, 0, 67, 99
1, 749010, Control_c, 0, 67, 101
1, 749015, Note_on_c, 0, 61, 59
1, 749024, Note_on_c, 0, 76, 84
1, 749025, Note_on_c, 0, 67, 60
1, 749025, Control_c, 0, 67, 103
1, 749029, Note_on_c, 0, 57, 38
1, 749039, Control_c, 0, 67, 105
1, 749054, Control_c, 0, 67, 105
1, 749062, Note_off_c, 0, 67, 62
1, 749069, Control_c, 0, 67, 106
1, 749076, Note_off_c, 0, 61, 58
1, 749084, Control_c, 0, 67, 106
1, 749153, Note_on_c, 0, 74, 86
1, 749163, Note_off_c, 0, 57, 0
1, 749163, Note_on_c, 0, 57, 4
1, 749165, Note_on_c, 0, 62, 67
1, 749169, Note_on_c, 0, 50, 61
1, 749176, Note_off_c, 0, 76, 44
1, 749179, Note_on_c, 0, 66, 69
1, 749197, Note_off_c, 0, 62, 62
1, 749202, Note_off_c, 0, 74, 67
1, 749205, Note_off_c, 0, 66, 66
1, 749223, Note_off_c, 0, 50, 58
1, 749226, Control_c, 0, 67, 106
1, 749229, Note_off_c, 0, 57, 57
1, 749241, Control_c, 0, 64, 97
1, 749256, Control_c, 0, 64, 79
1, 749271, Control_c, 0, 64, 65
1, 749285, Control_c, 0, 64, 0
1, 749290, Note_on_c, 0, 74, 85
1, 749297, Note_on_c, 0, 55, 64
1, 749298, Note_on_c, 0, 73, 91
1, 749307, Note_on_c, 0, 64, 68
1, 749317, Note_on_c, 0, 59, 43
1, 749329, Control_c, 0, 67, 105
1, 749333, Note_off_c, 0, 74, 63
1, 749334, Note_off_c, 0, 55, 61
1, 749334, Note_off_c, 0, 64, 69
1, 749343, Note_off_c, 0, 59, 57
1, 749361, Note_off_c, 0, 73, 62
1, 749426, Note_on_c, 0, 59, 57
1, 749428, Note_on_c, 0, 74, 83
1, 749431, Note_on_c, 0, 55, 61
1, 749431, Note_on_c, 0, 73, 85
1, 749433, Note_on_c, 0, 64, 69
1, 749459, Note_off_c, 0, 64, 68
1, 749468, Note_off_c, 0, 59, 58
1, 749468, Note_off_c, 0, 74, 61
1, 749469, Note_off_c, 0, 55, 64
1, 749481, Note_off_c, 0, 73, 63
1, 749564, Note_on_c, 0, 74, 74
1, 749572, Note_on_c, 0, 73, 82
1, 749574, Note_on_c, 0, 59, 57
1, 749583, Note_on_c, 0, 64, 55
1, 749585, Note_on_c, 0, 55, 57
1, 749611, Control_c, 0, 64, 62
1, 749626, Control_c, 0, 64, 69
1, 749626, Control_c, 0, 67, 105
1, 749641, Control_c, 0, 64, 77
1, 749655, Control_c, 0, 64, 85
1, 749655, Control_c, 0, 67, 104
1, 749656, Note_off_c, 0, 59, 58
1, 749670, Control_c, 0, 64, 92
1, 749680, Note_off_c, 0, 74, 36
1, 749685, Control_c, 0, 64, 97
1, 749685, Control_c, 0, 67, 104
1, 749691, Note_on_c, 0, 58, 63
1, 749697, Note_off_c, 0, 55, 60
1, 749698, Note_on_c, 0, 66, 77
1, 749700, Control_c, 0, 64, 98
1, 749704, Note_on_c, 0, 54, 57
1, 749712, Note_off_c, 0, 64, 59
1, 749713, Note_off_c, 0, 73, 63
1, 749723, Note_off_c, 0, 58, 63
1, 749750, Note_off_c, 0, 54, 60
1, 749754, Note_off_c, 0, 66, 60
1, 749789, Control_c, 0, 64, 98
1, 749803, Control_c, 0, 64, 88
1, 749818, Control_c, 0, 64, 74
1, 749833, Control_c, 0, 64, 53
1, 749838, Note_on_c, 0, 58, 52
1, 749838, Note_on_c, 0, 64, 65
1, 749842, Note_on_c, 0, 54, 57
1, 749844, Note_on_c, 0, 66, 64
1, 749848, Control_c, 0, 64, 0
1, 749886, Note_off_c, 0, 58, 60
1, 749959, Control_c, 0, 64, 64
1, 749972, Note_off_c, 0, 64, 63
1, 749974, Control_c, 0, 64, 73
1, 749975, Note_off_c, 0, 54, 59
1, 749985, Note_on_c, 0, 71, 70
1, 749985, Note_off_c, 0, 66, 60
1, 749989, Control_c, 0, 64, 85
1, 749992, Note_on_c, 0, 59, 51
1, 749996, Note_on_c, 0, 62, 57
1, 749997, Note_on_c, 0, 47, 46
1, 750004, Control_c, 0, 64, 99
1, 750019, Control_c, 0, 64, 112
1, 750028, Note_off_c, 0, 59, 60
1, 750029, Note_off_c, 0, 62, 63
1, 750031, Note_off_c, 0, 47, 61
1, 750034, Control_c, 0, 64, 119
1, 750034, Control_c, 0, 67, 103
1, 750036, Note_off_c, 0, 71, 57
1, 750079, Control_c, 0, 64, 118
1, 750079, Control_c, 0, 67, 103
1, 750093, Control_c, 0, 64, 107
1, 750108, Control_c, 0, 64, 91
1, 750123, Control_c, 0, 64, 73
1, 750135, Note_on_c, 0, 62, 46
1, 750138, Control_c, 0, 64, 0
1, 750141, Note_on_c, 0, 47, 37
1, 750141, Note_on_c, 0, 71, 62
1, 750147, Note_on_c, 0, 59, 40
1, 750227, Control_c, 0, 64, 32
1, 750241, Control_c, 0, 64, 66
1, 750256, Note_off_c, 0, 47, 63
1, 750256, Control_c, 0, 64, 76
1, 750256, Control_c, 0, 67, 102
1, 750262, Note_on_c, 0, 63, 62
1, 750271, Note_off_c, 0, 62, 58
1, 750271, Control_c, 0, 64, 90
1, 750271, Control_c, 0, 67, 102
1, 750273, Note_off_c, 0, 71, 60
1, 750285, Control_c, 0, 64, 103
1, 750285, Control_c, 0, 67, 101
1, 750293, Note_off_c, 0, 63, 66
1, 750300, Control_c, 0, 64, 109
1, 750300, Control_c, 0, 67, 101
1, 750338, Note_off_c, 0, 59, 38
1, 750345, Control_c, 0, 67, 100
1, 750374, Control_c, 0, 64, 109
1, 750389, Control_c, 0, 64, 105
1, 750404, Note_on_c, 0, 63, 64
1, 750404, Control_c, 0, 64, 99
1, 750407, Note_on_c, 0, 66, 68
1, 750411, Note_on_c, 0, 57, 58
1, 750416, Note_on_c, 0, 59, 45
1, 750419, Control_c, 0, 64, 88
1, 750434, Note_off_c, 0, 63, 62
1, 750434, Control_c, 0, 64, 76
1, 750443, Note_off_c, 0, 57, 65
1, 750443, Note_off_c, 0, 59, 57
1, 750448, Control_c, 0, 64, 63
1, 750457, Note_off_c, 0, 66, 54
1, 750463, Control_c, 0, 64, 0
1, 750529, Note_on_c, 0, 66, 69
1, 750530, Note_on_c, 0, 57, 57
1, 750532, Note_on_c, 0, 59, 51
1, 750537, Note_on_c, 0, 63, 61
1, 750538, Control_c, 0, 67, 101
1, 750565, Note_off_c, 0, 63, 64
1, 750571, Note_off_c, 0, 57, 60
1, 750571, Note_off_c, 0, 59, 59
1, 750580, Note_off_c, 0, 66, 59
1, 750681, Note_on_c, 0, 66, 59
1, 750693, Control_c, 0, 64, 62
1, 750695, Note_on_c, 0, 59, 32
1, 750696, Note_on_c, 0, 57, 54
1, 750706, Note_on_c, 0, 63, 42
1, 750708, Control_c, 0, 64, 72
1, 750723, Control_c, 0, 64, 82
1, 750723, Control_c, 0, 67, 100
1, 750738, Control_c, 0, 64, 99
1, 750753, Control_c, 0, 64, 127
1, 750753, Control_c, 0, 67, 100
1, 750767, Control_c, 0, 67, 99
1, 750782, Control_c, 0, 67, 99
1, 750812, Note_on_c, 0, 56, 63
1, 750812, Control_c, 0, 67, 98
1, 750818, Note_on_c, 0, 64, 62
1, 750824, Note_off_c, 0, 63, 57
1, 750839, Note_off_c, 0, 57, 60
1, 750842, Control_c, 0, 67, 98
1, 750851, Note_off_c, 0, 64, 64
1, 750854, Note_off_c, 0, 56, 59
1, 750857, Control_c, 0, 64, 91
1, 750857, Note_off_c, 0, 59, 51
1, 750862, Note_off_c, 0, 66, 58
1, 750872, Control_c, 0, 64, 71
1, 750887, Control_c, 0, 64, 0
1, 750938, Note_on_c, 0, 69, 78
1, 750940, Note_on_c, 0, 54, 68
1, 750947, Note_on_c, 0, 63, 67
1, 750962, Note_on_c, 0, 59, 53
1, 750972, Note_off_c, 0, 54, 64
1, 750973, Note_off_c, 0, 63, 67
1, 750985, Note_off_c, 0, 59, 58
1, 750987, Note_off_c, 0, 69, 61
1, 751020, Control_c, 0, 67, 98
1, 751057, Note_on_c, 0, 59, 65
1, 751059, Note_on_c, 0, 54, 64
1, 751064, Control_c, 0, 67, 99
1, 751071, Note_on_c, 0, 63, 72
1, 751074, Note_on_c, 0, 69, 73
1, 751098, Note_off_c, 0, 54, 66
1, 751098, Note_off_c, 0, 59, 56
1, 751104, Note_off_c, 0, 69, 60
1, 751108, Note_off_c, 0, 63, 60
1, 751182, Control_c, 0, 64, 52
1, 751182, Control_c, 0, 67, 98
1, 751197, Control_c, 0, 64, 71
1, 751197, Control_c, 0, 67, 97
1, 751206, Note_on_c, 0, 69, 69
1, 751209, Note_on_c, 0, 59, 55
1, 751210, Note_on_c, 0, 54, 68
1, 751212, Control_c, 0, 64, 83
1, 751212, Control_c, 0, 67, 97
1, 751213, Note_on_c, 0, 63, 69
1, 751226, Control_c, 0, 64, 115
1, 751226, Control_c, 0, 67, 96
1, 751241, Control_c, 0, 64, 127
1, 751241, Control_c, 0, 67, 94
1, 751256, Control_c, 0, 67, 93
1, 751271, Control_c, 0, 67, 91
1, 751286, Control_c, 0, 67, 88
1, 751301, Control_c, 0, 67, 84
1, 751316, Control_c, 0, 67, 80
1, 751322, Note_on_c, 0, 52, 63
1, 751330, Note_off_c, 0, 54, 61
1, 751331, Control_c, 0, 67, 77
1, 751331, Note_on_c, 0, 68, 78
1, 751334, Note_on_c, 0, 64, 61
1, 751340, Note_off_c, 0, 63, 59
1, 751346, Control_c, 0, 67, 73
1, 751360, Note_off_c, 0, 52, 62
1, 751360, Note_off_c, 0, 69, 61
1, 751361, Control_c, 0, 64, 104
1, 751361, Control_c, 0, 67, 69
1, 751364, Note_off_c, 0, 64, 67
1, 751366, Note_off_c, 0, 59, 60
1, 751375, Control_c, 0, 64, 80
1, 751375, Control_c, 0, 67, 67
1, 751383, Note_off_c, 0, 68, 63
1, 751390, Control_c, 0, 64, 62
1, 751390, Control_c, 0, 67, 64
1, 751412, Control_c, 0, 64, 0
1, 751412, Control_c, 0, 67, 62
1, 751426, Control_c, 0, 67, 62
1, 751441, Control_c, 0, 67, 61
1, 751462, Note_on_c, 0, 52, 67
1, 751465, Note_on_c, 0, 64, 70
1, 751472, Note_on_c, 0, 68, 80
1, 751474, Note_on_c, 0, 59, 70
1, 751560, Control_c, 0, 67, 61
1, 751581, Note_on_c, 0, 71, 86
1, 751584, Note_on_c, 0, 50, 66
1, 751588, Note_on_c, 0, 65, 82
1, 751591, Note_off_c, 0, 59, 60
1, 751592, Note_on_c, 0, 56, 70
1, 751593, Note_off_c, 0, 64, 65
1, 751599, Note_off_c, 0, 68, 62
1, 751605, Note_off_c, 0, 52, 61
1, 751621, Note_off_c, 0, 65, 62
1, 751627, Note_off_c, 0, 56, 63
1, 751638, Note_off_c, 0, 71, 65
1, 751644, Note_off_c, 0, 50, 63
1, 751680, Control_c, 0, 67, 60
1, 751709, Control_c, 0, 67, 60
1, 751713, Note_on_c, 0, 50, 72
1, 751718, Note_on_c, 0, 56, 78
1, 751721, Note_on_c, 0, 71, 89
1, 751724, Note_on_c, 0, 65, 82
1, 751724, Control_c, 0, 67, 59
1, 751739, Control_c, 0, 64, 32
1, 751739, Control_c, 0, 67, 57
1, 751754, Control_c, 0, 64, 73
1, 751754, Control_c, 0, 67, 55
1, 751769, Control_c, 0, 64, 86
1, 751769, Control_c, 0, 67, 52
1, 751784, Control_c, 0, 64, 112
1, 751784, Control_c, 0, 67, 49
1, 751790, Note_off_c, 0, 56, 58
1, 751799, Control_c, 0, 64, 127
1, 751799, Control_c, 0, 67, 45
1, 751813, Control_c, 0, 67, 40
1, 751828, Control_c, 0, 67, 36
1, 751831, Note_on_c, 0, 57, 71
1, 751833, Note_off_c, 0, 65, 61
1, 751839, Note_on_c, 0, 64, 77
1, 751843, Control_c, 0, 67, 31
1, 751857, Control_c, 0, 67, 26
1, 751872, Control_c, 0, 67, 20
1, 751887, Control_c, 0, 67, 15
1, 751889, Note_off_c, 0, 57, 60
1, 751893, Note_off_c, 0, 64, 62
1, 751902, Control_c, 0, 67, 9
1, 751903, Note_off_c, 0, 50, 63
1, 751912, Note_off_c, 0, 71, 61
1, 751917, Control_c, 0, 67, 0
1, 751959, Note_on_c, 0, 49, 83
1, 751962, Note_on_c, 0, 69, 89
1, 751966, Note_on_c, 0, 64, 83
1, 751968, Note_on_c, 0, 57, 67
1, 751997, Note_off_c, 0, 57, 66
1, 752004, Note_off_c, 0, 64, 60
1, 752020, Note_off_c, 0, 49, 63
1, 752021, Note_off_c, 0, 69, 64
1, 752035, Control_c, 0, 64, 95
1, 752049, Control_c, 0, 64, 72
1, 752064, Control_c, 0, 64, 0
1, 752083, Note_on_c, 0, 47, 75
1, 752086, Note_on_c, 0, 56, 90
1, 752087, Note_on_c, 0, 62, 93
1, 752087, Note_on_c, 0, 71, 98
1, 752119, Note_off_c, 0, 56, 64
1, 752127, Note_off_c, 0, 47, 64
1, 752130, Note_off_c, 0, 62, 61
1, 752133, Note_off_c, 0, 71, 62
1, 752213, Note_on_c, 0, 56, 85
1, 752214, Note_on_c, 0, 47, 81
1, 752220, Note_on_c, 0, 71, 100
1, 752220, Control_c, 0, 64, 36
1, 752222, Note_on_c, 0, 62, 94
1, 752235, Control_c, 0, 64, 75
1, 752250, Note_off_c, 0, 62, 62
1, 752250, Control_c, 0, 64, 92
1, 752252, Note_off_c, 0, 47, 63
1, 752255, Note_off_c, 0, 56, 57
1, 752256, Note_off_c, 0, 71, 67
1, 752264, Control_c, 0, 64, 127
1, 752340, Note_on_c, 0, 57, 88
1, 752341, Note_on_c, 0, 73, 105
1, 752345, Note_on_c, 0, 45, 78
1, 752345, Note_on_c, 0, 61, 93
1, 752369, Note_off_c, 0, 61, 66
1, 752371, Note_off_c, 0, 45, 67
1, 752374, Note_off_c, 0, 57, 60
1, 752382, Note_on_c, 0, 68, 28
1, 752389, Note_on_c, 0, 47, 25
1, 752391, Note_off_c, 0, 73, 60
1, 752419, Note_off_c, 0, 47, 58
1, 752419, Note_off_c, 0, 68, 52
1, 752457, Note_on_c, 0, 45, 76
1, 752458, Note_on_c, 0, 57, 91
1, 752461, Note_on_c, 0, 73, 102
1, 752464, Note_on_c, 0, 61, 93
1, 752487, Control_c, 0, 64, 101
1, 752492, Note_off_c, 0, 61, 64
1, 752494, Note_off_c, 0, 57, 68
1, 752502, Note_off_c, 0, 45, 64
1, 752502, Control_c, 0, 64, 70
1, 752517, Control_c, 0, 64, 0
1, 752520, Note_off_c, 0, 73, 60
1, 752579, Note_on_c, 0, 75, 94
1, 752581, Note_on_c, 0, 56, 91
1, 752582, Note_on_c, 0, 72, 83
1, 752584, Note_on_c, 0, 66, 89
1, 752586, Note_on_c, 0, 44, 89
1, 752622, Note_off_c, 0, 56, 64
1, 752623, Note_off_c, 0, 44, 63
1, 752631, Note_off_c, 0, 66, 59
1, 752645, Note_off_c, 0, 72, 62
1, 752645, Note_off_c, 0, 75, 62
1, 752701, Note_on_c, 0, 56, 91
1, 752706, Note_on_c, 0, 44, 89
1, 752708, Note_on_c, 0, 75, 91
1, 752710, Control_c, 0, 64, 21
1, 752712, Note_on_c, 0, 66, 90
1, 752717, Note_on_c, 0, 72, 83
1, 752725, Control_c, 0, 64, 79
1, 752728, Note_off_c, 0, 56, 64
1, 752740, Control_c, 0, 64, 127
1, 752747, Note_off_c, 0, 44, 62
1, 752756, Note_off_c, 0, 66, 63
1, 752765, Note_off_c, 0, 75, 63
1, 752766, Note_off_c, 0, 72, 64
1, 752830, Note_on_c, 0, 76, 95
1, 752833, Note_on_c, 0, 49, 91
1, 752836, Note_on_c, 0, 37, 89
1, 752838, Note_on_c, 0, 64, 85
1, 752838, Note_on_c, 0, 73, 92
1, 752854, Note_on_c, 0, 65, 66
1, 752860, Note_off_c, 0, 49, 67
1, 752866, Note_off_c, 0, 37, 65
1, 752866, Note_off_c, 0, 64, 64
1, 752869, Note_on_c, 0, 51, 32
1, 752873, Note_off_c, 0, 65, 66
1, 752877, Note_off_c, 0, 76, 62
1, 752880, Note_off_c, 0, 73, 59
1, 752917, Note_off_c, 0, 51, 54
1, 752956, Note_on_c, 0, 49, 100
1, 752959, Note_on_c, 0, 37, 93
1, 752961, Note_on_c, 0, 64, 100
1, 752961, Note_on_c, 0, 76, 100
1, 752964, Note_on_c, 0, 73, 99
1, 752969, Control_c, 0, 64, 87
1, 752979, Note_off_c, 0, 49, 67
1, 752981, Note_off_c, 0, 37, 66
1, 752984, Control_c, 0, 64, 51
1, 752988, Note_off_c, 0, 64, 65
1, 752998, Note_off_c, 0, 76, 66
1, 753000, Control_c, 0, 64, 0
1, 753007, Note_off_c, 0, 73, 64
1, 753080, Note_on_c, 0, 34, 97
1, 753080, Note_on_c, 0, 46, 93
1, 753083, Note_on_c, 0, 66, 102
1, 753083, Note_on_c, 0, 78, 101
1, 753087, Note_on_c, 0, 73, 101
1, 753096, Note_on_c, 0, 44, 67
1, 753103, Note_off_c, 0, 46, 69
1, 753105, Note_on_c, 0, 33, 61
1, 753106, Note_off_c, 0, 33, 127
1, 753116, Note_off_c, 0, 34, 61
1, 753121, Note_off_c, 0, 44, 61
1, 753128, Note_off_c, 0, 66, 58
1, 753151, Note_off_c, 0, 78, 58
1, 753160, Note_off_c, 0, 73, 59
1, 753243, Note_on_c, 0, 34, 93
1, 753243, Note_on_c, 0, 46, 97
1, 753248, Note_on_c, 0, 73, 103
1, 753248, Note_on_c, 0, 78, 97
1, 753251, Note_on_c, 0, 66, 100
1, 753252, Control_c, 0, 64, 74
1, 753262, Note_off_c, 0, 46, 71
1, 753265, Note_off_c, 0, 34, 69
1, 753267, Control_c, 0, 64, 99
1, 753282, Control_c, 0, 64, 127
1, 753300, Note_on_c, 0, 75, 10
1, 753350, Note_off_c, 0, 75, 28
1, 753373, Note_off_c, 0, 78, 55
1, 753417, Note_off_c, 0, 66, 53
1, 753558, Note_on_c, 0, 46, 90
1, 753561, Note_on_c, 0, 34, 90
1, 753563, Note_on_c, 0, 66, 103
1, 753564, Note_on_c, 0, 78, 94
1, 753565, Note_on_c, 0, 76, 96
1, 753578, Note_off_c, 0, 73, 63
1, 753593, Note_off_c, 0, 46, 62
1, 753599, Note_off_c, 0, 34, 62
1, 753612, Note_off_c, 0, 66, 60
1, 753634, Note_off_c, 0, 78, 59
1, 753642, Note_off_c, 0, 76, 56
1, 753763, Control_c, 0, 64, 106
1, 753777, Control_c, 0, 64, 71
1, 753786, Note_on_c, 0, 47, 95
1, 753787, Note_on_c, 0, 74, 93
1, 753788, Note_on_c, 0, 66, 91
1, 753792, Control_c, 0, 64, 0
1, 753793, Note_on_c, 0, 35, 77
1, 753796, Note_on_c, 0, 78, 81
1, 753806, Note_off_c, 0, 74, 72
1, 753811, Note_off_c, 0, 66, 70
1, 753811, Note_off_c, 0, 78, 71
1, 753811, Note_off_c, 0, 47, 68
1, 753820, Note_off_c, 0, 35, 66
1, 753851, Control_c, 0, 64, 56
1, 753852, Note_on_c, 0, 47, 88
1, 753852, Note_on_c, 0, 78, 93
1, 753854, Note_on_c, 0, 74, 93
1, 753856, Note_on_c, 0, 66, 88
1, 753860, Note_on_c, 0, 35, 81
1, 753866, Control_c, 0, 64, 71
1, 753881, Control_c, 0, 64, 90
1, 753896, Control_c, 0, 64, 127
1, 753897, Note_off_c, 0, 35, 65
1, 753903, Note_off_c, 0, 47, 65
1, 753948, Note_off_c, 0, 66, 58
1, 753986, Control_c, 0, 64, 96
1, 753995, Note_on_c, 0, 49, 93
1, 753997, Note_on_c, 0, 73, 96
1, 753998, Note_on_c, 0, 37, 88
1, 754000, Control_c, 0, 64, 67
1, 754002, Note_on_c, 0, 66, 66
1, 754009, Note_off_c, 0, 74, 54
1, 754015, Control_c, 0, 64, 0
1, 754028, Note_off_c, 0, 78, 59
1, 754032, Note_off_c, 0, 49, 61
1, 754038, Note_off_c, 0, 37, 61
1, 754044, Note_off_c, 0, 66, 61
1, 754073, Note_off_c, 0, 73, 63
1, 754124, Note_on_c, 0, 50, 98
1, 754129, Note_on_c, 0, 38, 93
1, 754130, Note_on_c, 0, 78, 87
1, 754130, Note_on_c, 0, 71, 92
1, 754137, Note_on_c, 0, 66, 86
1, 754154, Note_off_c, 0, 38, 70
1, 754159, Note_off_c, 0, 50, 66
1, 754185, Note_off_c, 0, 66, 46
1, 754186, Note_off_c, 0, 71, 62
1, 754187, Note_off_c, 0, 78, 62
1, 754268, Note_on_c, 0, 51, 94
1, 754273, Note_on_c, 0, 39, 92
1, 754276, Note_on_c, 0, 78, 92
1, 754277, Note_on_c, 0, 66, 87
1, 754277, Note_on_c, 0, 69, 92
1, 754297, Note_off_c, 0, 51, 67
1, 754301, Note_off_c, 0, 39, 65
1, 754321, Note_off_c, 0, 69, 62
1, 754321, Note_off_c, 0, 66, 46
1, 754342, Note_off_c, 0, 78, 60
1, 754465, Note_on_c, 0, 52, 95
1, 754466, Note_on_c, 0, 76, 100
1, 754467, Note_on_c, 0, 40, 88
1, 754470, Note_on_c, 0, 68, 91
1, 754476, Note_on_c, 0, 64, 78
1, 754482, Control_c, 0, 64, 69
1, 754485, Note_off_c, 0, 68, 73
1, 754485, Note_off_c, 0, 76, 68
1, 754486, Note_off_c, 0, 52, 71
1, 754490, Note_on_c, 0, 65, 56
1, 754492, Note_off_c, 0, 40, 67
1, 754492, Note_off_c, 0, 64, 71
1, 754497, Control_c, 0, 64, 85
1, 754511, Control_c, 0, 64, 120
1, 754514, Note_off_c, 0, 65, 60
1, 754526, Control_c, 0, 64, 127
1, 754744, Note_on_c, 0, 52, 84
1, 754752, Note_on_c, 0, 59, 80
1, 754753, Note_on_c, 0, 68, 94
1, 754758, Note_on_c, 0, 62, 84
1, 754763, Note_on_c, 0, 64, 74
1, 754774, Note_off_c, 0, 68, 67
1, 754779, Note_off_c, 0, 62, 69
1, 754779, Control_c, 0, 64, 89
1, 754781, Note_off_c, 0, 52, 60
1, 754781, Note_off_c, 0, 59, 60
1, 754787, Note_off_c, 0, 64, 70
1, 754794, Control_c, 0, 64, 60
1, 754809, Control_c, 0, 64, 0
1, 754812, Note_on_c, 0, 59, 74
1, 754812, Note_on_c, 0, 68, 86
1, 754817, Note_on_c, 0, 52, 75
1, 754823, Note_on_c, 0, 62, 83
1, 754824, Note_on_c, 0, 64, 78
1, 754868, Control_c, 0, 64, 56
1, 754882, Control_c, 0, 64, 68
1, 754897, Control_c, 0, 64, 80
1, 754912, Control_c, 0, 64, 100
1, 754925, Note_off_c, 0, 62, 58
1, 754927, Control_c, 0, 64, 127
1, 754944, Note_off_c, 0, 59, 54
1, 755201, Control_c, 0, 64, 97
1, 755216, Control_c, 0, 64, 71
1, 755225, Note_on_c, 0, 45, 84
1, 755225, Note_on_c, 0, 57, 80
1, 755230, Control_c, 0, 64, 0
1, 755231, Note_on_c, 0, 69, 79
1, 755233, Note_on_c, 0, 61, 84
1, 755236, Note_off_c, 0, 52, 61
1, 755246, Note_off_c, 0, 64, 66
1, 755295, Note_off_c, 0, 68, 53
1, 755394, Control_c, 0, 64, 23
1, 755408, Control_c, 0, 64, 66
1, 755423, Control_c, 0, 64, 82
1, 755434, Note_off_c, 0, 57, 62
1, 755438, Control_c, 0, 64, 110
1, 755446, Note_off_c, 0, 69, 65
1, 755453, Control_c, 0, 64, 127
1, 755453, Note_off_c, 0, 45, 65
1, 755458, Note_off_c, 0, 61, 63
1, 755676, Control_c, 0, 64, 101
1, 755691, Control_c, 0, 64, 72
1, 755705, Control_c, 0, 64, 0
1, 755705, Control_c, 0, 67, 8
1, 755720, Control_c, 0, 67, 10
1, 755735, Control_c, 0, 67, 11
1, 755750, Control_c, 0, 67, 13
1, 755765, Control_c, 0, 67, 16
1, 755779, Control_c, 0, 67, 18
1, 755794, Control_c, 0, 67, 20
1, 755809, Control_c, 0, 67, 22
1, 755823, Control_c, 0, 67, 22
1, 755853, Control_c, 0, 67, 23
1, 755883, Control_c, 0, 67, 23
1, 755905, Control_c, 0, 64, 62
1, 755905, Control_c, 0, 67, 25
1, 755913, Note_on_c, 0, 60, 82
1, 755920, Control_c, 0, 64, 70
1, 755920, Control_c, 0, 67, 28
1, 755935, Control_c, 0, 64, 77
1, 755935, Control_c, 0, 67, 32
1, 755950, Control_c, 0, 64, 85
1, 755950, Control_c, 0, 67, 36
1, 755963, Note_off_c, 0, 60, 63
1, 755965, Control_c, 0, 64, 92
1, 755965, Control_c, 0, 67, 39
1, 755979, Control_c, 0, 64, 97
1, 755979, Control_c, 0, 67, 43
1, 755994, Control_c, 0, 64, 98
1, 755994, Control_c, 0, 67, 46
1, 755995, Note_on_c, 0, 52, 91
1, 756009, Control_c, 0, 67, 49
1, 756017, Note_off_c, 0, 52, 70
1, 756023, Control_c, 0, 67, 51
1, 756038, Control_c, 0, 67, 53
1, 756053, Control_c, 0, 67, 54
1, 756068, Control_c, 0, 67, 56
1, 756083, Control_c, 0, 67, 56
1, 756097, Control_c, 0, 67, 57
1, 756112, Control_c, 0, 67, 58
1, 756127, Control_c, 0, 67, 59
1, 756142, Control_c, 0, 67, 61
1, 756157, Control_c, 0, 67, 64
1, 756172, Control_c, 0, 64, 99
1, 756172, Control_c, 0, 67, 66
1, 756187, Control_c, 0, 64, 100
1, 756187, Control_c, 0, 67, 68
1, 756202, Control_c, 0, 67, 70
1, 756216, Control_c, 0, 67, 71
1, 756231, Control_c, 0, 67, 71
1, 756274, Note_on_c, 0, 45, 85
1, 756296, Note_off_c, 0, 45, 68
1, 756305, Control_c, 0, 64, 96
1, 756305, Control_c, 0, 67, 71
1, 756320, Control_c, 0, 64, 88
1, 756333, Note_on_c, 0, 45, 96
1, 756335, Control_c, 0, 64, 76
1, 756335, Control_c, 0, 67, 70
1, 756350, Control_c, 0, 64, 65
1, 756350, Control_c, 0, 67, 70
1, 756365, Control_c, 0, 64, 0
1, 756365, Control_c, 0, 67, 69
1, 756654, Control_c, 0, 64, 21
1, 756654, Control_c, 0, 67, 70
1, 756669, Control_c, 0, 64, 63
1, 756684, Control_c, 0, 64, 70
1, 756684, Control_c, 0, 67, 70
1, 756699, Control_c, 0, 64, 77
1, 756714, Control_c, 0, 64, 86
1, 756728, Control_c, 0, 64, 95
1, 756744, Control_c, 0, 64, 107
1, 756759, Control_c, 0, 64, 120
1, 756774, Control_c, 0, 64, 127
1, 756792, Note_off_c, 0, 45, 64
1, 756803, Control_c, 0, 67, 71
1, 756818, Control_c, 0, 67, 71
1, 756847, Control_c, 0, 67, 72
1, 756907, Control_c, 0, 67, 72
1, 757010, Control_c, 0, 64, 95
1, 757025, Control_c, 0, 64, 68
1, 757027, Note_on_c, 0, 45, 79
1, 757040, Control_c, 0, 64, 0
1, 757093, Note_on_c, 0, 47, 85
1, 757105, Note_off_c, 0, 45, 59
1, 757141, Note_off_c, 0, 47, 65
1, 757248, Control_c, 0, 67, 72
1, 757278, Control_c, 0, 67, 71
1, 757293, Note_on_c, 0, 48, 87
1, 757308, Control_c, 0, 67, 71
1, 757316, Note_off_c, 0, 48, 69
1, 757366, Note_on_c, 0, 50, 80
1, 757433, Control_c, 0, 67, 71
1, 757463, Control_c, 0, 67, 72
1, 757536, Control_c, 0, 64, 62
1, 757550, Control_c, 0, 64, 71
1, 757565, Control_c, 0, 64, 82
1, 757580, Control_c, 0, 64, 100
1, 757580, Control_c, 0, 67, 71
1, 757593, Note_off_c, 0, 50, 64
1, 757594, Control_c, 0, 64, 127
1, 757594, Control_c, 0, 67, 71
1, 757609, Control_c, 0, 67, 70
1, 757728, Note_on_c, 0, 38, 78
1, 757787, Control_c, 0, 67, 71
1, 757817, Control_c, 0, 64, 95
1, 757832, Control_c, 0, 64, 74
1, 757847, Control_c, 0, 64, 44
1, 757862, Control_c, 0, 64, 0
1, 757862, Control_c, 0, 67, 71
1, 758026, Control_c, 0, 67, 71
1, 758055, Control_c, 0, 64, 59
1, 758060, Note_on_c, 0, 69, 84
1, 758070, Control_c, 0, 64, 71
1, 758085, Control_c, 0, 64, 79
1, 758085, Control_c, 0, 67, 70
1, 758099, Control_c, 0, 64, 89
1, 758114, Control_c, 0, 64, 98
1, 758114, Control_c, 0, 67, 70
1, 758129, Control_c, 0, 64, 104
1, 758132, Note_off_c, 0, 69, 49
1, 758136, Note_on_c, 0, 62, 82
1, 758151, Control_c, 0, 64, 106
1, 758163, Note_off_c, 0, 62, 69
1, 758166, Control_c, 0, 64, 107
1, 758211, Control_c, 0, 67, 70
1, 758240, Control_c, 0, 67, 71
1, 758255, Control_c, 0, 67, 71
1, 758270, Control_c, 0, 67, 72
1, 758285, Control_c, 0, 67, 72
1, 758299, Control_c, 0, 67, 73
1, 758314, Control_c, 0, 67, 73
1, 758344, Control_c, 0, 67, 74
1, 758373, Control_c, 0, 67, 74
1, 758391, Note_on_c, 0, 53, 88
1, 758403, Control_c, 0, 67, 76
1, 758416, Note_off_c, 0, 53, 69
1, 758417, Control_c, 0, 64, 107
1, 758417, Control_c, 0, 67, 78
1, 758432, Control_c, 0, 64, 102
1, 758432, Control_c, 0, 67, 78
1, 758447, Control_c, 0, 64, 90
1, 758447, Control_c, 0, 67, 79
1, 758461, Note_on_c, 0, 53, 86
1, 758462, Control_c, 0, 64, 78
1, 758462, Control_c, 0, 67, 79
1, 758477, Control_c, 0, 64, 66
1, 758477, Control_c, 0, 67, 80
1, 758491, Control_c, 0, 64, 47
1, 758491, Control_c, 0, 67, 80
1, 758506, Control_c, 0, 64, 0
1, 758536, Control_c, 0, 67, 81
1, 758580, Control_c, 0, 67, 81
1, 758610, Control_c, 0, 67, 82
1, 758625, Control_c, 0, 64, 35
1, 758640, Control_c, 0, 64, 63
1, 758655, Control_c, 0, 64, 69
1, 758655, Control_c, 0, 67, 82
1, 758670, Control_c, 0, 64, 75
1, 758685, Control_c, 0, 64, 81
1, 758685, Control_c, 0, 67, 83
1, 758699, Control_c, 0, 64, 89
1, 758699, Control_c, 0, 67, 84
1, 758714, Control_c, 0, 64, 97
1, 758714, Control_c, 0, 67, 85
1, 758729, Control_c, 0, 64, 107
1, 758729, Control_c, 0, 67, 85
1, 758744, Control_c, 0, 64, 114
1, 758744, Control_c, 0, 67, 86
1, 758759, Control_c, 0, 64, 123
1, 758759, Control_c, 0, 67, 87
1, 758774, Control_c, 0, 64, 127
1, 758774, Control_c, 0, 67, 89
1, 758789, Control_c, 0, 67, 92
1, 758804, Control_c, 0, 67, 96
1, 758819, Control_c, 0, 67, 100
1, 758833, Control_c, 0, 67, 104
1, 758848, Control_c, 0, 67, 107
1, 758858, Note_off_c, 0, 53, 65
1, 758863, Control_c, 0, 67, 111
1, 758878, Control_c, 0, 67, 115
1, 758900, Control_c, 0, 67, 118
1, 758914, Control_c, 0, 67, 121
1, 758929, Control_c, 0, 67, 122
1, 758944, Control_c, 0, 67, 123
1, 758959, Control_c, 0, 67, 124
1, 758974, Control_c, 0, 67, 125
1, 758989, Control_c, 0, 67, 126
1, 759004, Control_c, 0, 67, 126
1, 759033, Control_c, 0, 67, 127
1, 759063, Control_c, 0, 64, 126
1, 759063, Control_c, 0, 67, 127
1, 759078, Control_c, 0, 64, 113
1, 759093, Control_c, 0, 64, 99
1, 759102, Note_on_c, 0, 53, 81
1, 759108, Control_c, 0, 64, 83
1, 759122, Control_c, 0, 64, 66
1, 759137, Control_c, 0, 64, 17
1, 759152, Control_c, 0, 64, 0
1, 759155, Note_off_c, 0, 53, 62
1, 759175, Note_on_c, 0, 55, 77
1, 759212, Note_off_c, 0, 55, 64
1, 759352, Note_on_c, 0, 57, 79
1, 759383, Note_off_c, 0, 57, 62
1, 759427, Note_on_c, 0, 58, 81
1, 759582, Control_c, 0, 64, 50
1, 759597, Control_c, 0, 64, 65
1, 759612, Control_c, 0, 64, 70
1, 759627, Control_c, 0, 64, 77
1, 759649, Control_c, 0, 64, 85
1, 759664, Control_c, 0, 64, 94
1, 759678, Control_c, 0, 64, 103
1, 759693, Control_c, 0, 64, 111
1, 759708, Control_c, 0, 64, 115
1, 759723, Control_c, 0, 64, 117
1, 759842, Control_c, 0, 64, 117
1, 759854, Note_on_c, 0, 46, 61
1, 759857, Control_c, 0, 64, 108
1, 759871, Control_c, 0, 64, 93
1, 759886, Control_c, 0, 64, 74
1, 759901, Control_c, 0, 64, 56
1, 759916, Control_c, 0, 64, 0
1, 759946, Control_c, 0, 64, 56
1, 759961, Control_c, 0, 64, 67
1, 759975, Control_c, 0, 64, 77
1, 759975, Control_c, 0, 67, 126
1, 759990, Control_c, 0, 64, 89
1, 759990, Control_c, 0, 67, 126
1, 760005, Control_c, 0, 64, 106
1, 760013, Note_off_c, 0, 38, 59
1, 760020, Control_c, 0, 64, 127
1, 760020, Control_c, 0, 67, 125
1, 760050, Control_c, 0, 67, 125
1, 760168, Control_c, 0, 64, 88
1, 760169, Note_on_c, 0, 38, 71
1, 760183, Control_c, 0, 64, 68
1, 760197, Control_c, 0, 64, 0
1, 760197, Control_c, 0, 67, 125
1, 760212, Control_c, 0, 67, 126
1, 760226, Note_off_c, 0, 38, 61
1, 760234, Note_on_c, 0, 39, 79
1, 760242, Control_c, 0, 67, 126
1, 760257, Control_c, 0, 67, 127
1, 760271, Control_c, 0, 67, 127
1, 760274, Note_off_c, 0, 39, 60
1, 760364, Note_off_c, 0, 58, 54
1, 760446, Note_on_c, 0, 41, 81
1, 760472, Note_off_c, 0, 41, 66
1, 760491, Note_on_c, 0, 58, 73
1, 760512, Note_on_c, 0, 43, 80
1, 760529, Note_off_c, 0, 46, 59
1, 760753, Control_c, 0, 64, 37
1, 760768, Control_c, 0, 64, 63
1, 760783, Control_c, 0, 64, 69
1, 760798, Control_c, 0, 64, 75
1, 760812, Control_c, 0, 64, 82
1, 760827, Control_c, 0, 64, 91
1, 760842, Control_c, 0, 64, 97
1, 760857, Control_c, 0, 64, 101
1, 760872, Control_c, 0, 64, 104
1, 760886, Control_c, 0, 64, 106
1, 760901, Control_c, 0, 64, 109
1, 760916, Control_c, 0, 64, 111
1, 760931, Control_c, 0, 64, 114
1, 760941, Note_on_c, 0, 46, 66
1, 760946, Control_c, 0, 64, 116
1, 760960, Control_c, 0, 64, 119
1, 760975, Control_c, 0, 64, 124
1, 760990, Control_c, 0, 64, 126
1, 760990, Control_c, 0, 67, 127
1, 761005, Control_c, 0, 67, 126
1, 761049, Control_c, 0, 67, 126
1, 761093, Control_c, 0, 67, 125
1, 761141, Note_off_c, 0, 43, 56
1, 761161, Control_c, 0, 67, 125
1, 761221, Control_c, 0, 64, 124
1, 761236, Control_c, 0, 64, 116
1, 761250, Control_c, 0, 64, 100
1, 761250, Control_c, 0, 67, 124
1, 761265, Control_c, 0, 64, 82
1, 761278, Note_on_c, 0, 43, 69
1, 761280, Control_c, 0, 64, 66
1, 761295, Control_c, 0, 64, 0
1, 761319, Note_off_c, 0, 43, 62
1, 761324, Control_c, 0, 67, 125
1, 761354, Control_c, 0, 67, 126
1, 761359, Note_on_c, 0, 41, 72
1, 761369, Control_c, 0, 67, 127
1, 761384, Control_c, 0, 67, 127
1, 761403, Note_off_c, 0, 41, 59
1, 761447, Note_off_c, 0, 58, 46
1, 761558, Note_on_c, 0, 39, 55
1, 761597, Note_off_c, 0, 39, 63
1, 761646, Note_on_c, 0, 56, 61
1, 761649, Note_on_c, 0, 58, 57
1, 761654, Note_on_c, 0, 38, 52
1, 761773, Note_off_c, 0, 46, 56
1, 761872, Control_c, 0, 64, 38
1, 761895, Control_c, 0, 64, 61
1, 761910, Control_c, 0, 64, 66
1, 761924, Control_c, 0, 64, 71
1, 761939, Control_c, 0, 64, 74
1, 761954, Control_c, 0, 64, 78
1, 761970, Control_c, 0, 64, 80
1, 761985, Control_c, 0, 64, 80
1, 762014, Control_c, 0, 64, 80
1, 762029, Control_c, 0, 64, 77
1, 762044, Control_c, 0, 64, 72
1, 762059, Control_c, 0, 64, 65
1, 762073, Control_c, 0, 64, 48
1, 762077, Note_on_c, 0, 46, 52
1, 762088, Control_c, 0, 64, 0
1, 762133, Control_c, 0, 64, 44
1, 762147, Control_c, 0, 64, 60
1, 762162, Control_c, 0, 64, 67
1, 762177, Control_c, 0, 64, 72
1, 762191, Control_c, 0, 64, 76
1, 762194, Note_off_c, 0, 38, 62
1, 762206, Control_c, 0, 64, 81
1, 762221, Control_c, 0, 64, 83
1, 762236, Control_c, 0, 64, 85
1, 762251, Control_c, 0, 64, 86
1, 762280, Control_c, 0, 64, 86
1, 762354, Control_c, 0, 64, 86
1, 762384, Control_c, 0, 64, 83
1, 762399, Control_c, 0, 64, 77
1, 762414, Control_c, 0, 64, 68
1, 762418, Note_on_c, 0, 38, 57
1, 762429, Control_c, 0, 64, 55
1, 762444, Control_c, 0, 64, 0
1, 762462, Note_off_c, 0, 38, 59
1, 762496, Note_on_c, 0, 36, 63
1, 762504, Note_off_c, 0, 58, 38
1, 762538, Note_off_c, 0, 36, 60
1, 762689, Note_on_c, 0, 34, 65
1, 762718, Note_off_c, 0, 34, 63
1, 762782, Note_on_c, 0, 34, 58
1, 762798, Note_on_c, 0, 55, 58
1, 762804, Note_on_c, 0, 58, 53
1, 762830, Note_off_c, 0, 56, 49
1, 762858, Note_off_c, 0, 46, 34
1, 763200, Note_on_c, 0, 46, 52
1, 763207, Control_c, 0, 64, 57
1, 763222, Control_c, 0, 64, 68
1, 763237, Control_c, 0, 64, 74
1, 763252, Control_c, 0, 64, 81
1, 763267, Control_c, 0, 64, 88
1, 763281, Control_c, 0, 64, 92
1, 763296, Control_c, 0, 64, 94
1, 763345, Note_off_c, 0, 34, 37
1, 763393, Control_c, 0, 64, 93
1, 763408, Control_c, 0, 64, 91
1, 763422, Control_c, 0, 64, 89
1, 763437, Control_c, 0, 64, 86
1, 763452, Control_c, 0, 64, 80
1, 763467, Control_c, 0, 64, 72
1, 763482, Control_c, 0, 64, 63
1, 763496, Control_c, 0, 64, 0
1, 763535, Note_on_c, 0, 34, 61
1, 763583, Note_off_c, 0, 34, 58
1, 763638, Note_on_c, 0, 32, 58
1, 763672, Note_off_c, 0, 32, 64
1, 763736, Note_off_c, 0, 58, 38
1, 763851, Note_on_c, 0, 31, 48
1, 763896, Note_off_c, 0, 31, 58
1, 764006, Note_on_c, 0, 58, 43
1, 764014, Note_on_c, 0, 56, 38
1, 764030, Note_on_c, 0, 29, 42
1, 764034, Note_on_c, 0, 50, 39
1, 764220, Note_off_c, 0, 46, 51
1, 764295, Note_off_c, 0, 55, 22
1, 764348, Control_c, 0, 64, 56
1, 764364, Control_c, 0, 64, 66
1, 764379, Control_c, 0, 64, 72
1, 764394, Control_c, 0, 64, 79
1, 764408, Control_c, 0, 64, 88
1, 764423, Control_c, 0, 64, 99
1, 764438, Control_c, 0, 64, 116
1, 764453, Control_c, 0, 64, 127
1, 764609, Note_on_c, 0, 46, 43
1, 764697, Note_off_c, 0, 46, 50
1, 764731, Note_off_c, 0, 50, 57
1, 764827, Note_off_c, 0, 56, 54
1, 764862, Note_off_c, 0, 58, 55
1, 765053, Control_c, 0, 64, 112
1, 765067, Control_c, 0, 64, 88
1, 765074, Note_on_c, 0, 58, 52
1, 765082, Control_c, 0, 64, 71
1, 765097, Control_c, 0, 64, 58
1, 765112, Control_c, 0, 64, 56
1, 765127, Control_c, 0, 64, 64
1, 765141, Control_c, 0, 64, 69
1, 765157, Control_c, 0, 64, 75
1, 765165, Note_off_c, 0, 58, 60
1, 765172, Control_c, 0, 64, 83
1, 765176, Note_on_c, 0, 60, 49
1, 765187, Control_c, 0, 64, 93
1, 765202, Control_c, 0, 64, 108
1, 765213, Note_off_c, 0, 60, 64
1, 765216, Control_c, 0, 64, 127
1, 765380, Note_on_c, 0, 62, 47
1, 765395, Control_c, 0, 64, 87
1, 765409, Control_c, 0, 64, 67
1, 765424, Control_c, 0, 64, 0
1, 765434, Note_on_c, 0, 34, 48
1, 765440, Note_off_c, 0, 29, 44
1, 765457, Note_off_c, 0, 62, 58
1, 765459, Note_on_c, 0, 63, 49
1, 765469, Control_c, 0, 64, 61
1, 765481, Note_off_c, 0, 34, 61
1, 765483, Control_c, 0, 64, 71
1, 765498, Control_c, 0, 64, 80
1, 765513, Control_c, 0, 64, 95
1, 765528, Control_c, 0, 64, 127
1, 765535, Note_on_c, 0, 65, 59
1, 765541, Note_off_c, 0, 63, 60
1, 765568, Note_off_c, 0, 65, 63
1, 765723, Note_on_c, 0, 67, 56
1, 765773, Control_c, 0, 64, 100
1, 765788, Control_c, 0, 64, 79
1, 765794, Note_on_c, 0, 68, 56
1, 765797, Note_off_c, 0, 67, 57
1, 765802, Note_on_c, 0, 63, 45
1, 765803, Control_c, 0, 64, 69
1, 765806, Note_on_c, 0, 53, 43
1, 765817, Note_on_c, 0, 58, 35
1, 765817, Control_c, 0, 64, 70
1, 765832, Control_c, 0, 64, 77
1, 765847, Control_c, 0, 64, 87
1, 765862, Control_c, 0, 64, 110
1, 765863, Note_on_c, 0, 70, 65
1, 765866, Note_off_c, 0, 68, 60
1, 765877, Control_c, 0, 64, 127
1, 765889, Note_off_c, 0, 70, 66
1, 766029, Note_on_c, 0, 72, 65
1, 766070, Control_c, 0, 64, 109
1, 766085, Control_c, 0, 64, 81
1, 766088, Note_off_c, 0, 72, 62
1, 766092, Note_on_c, 0, 70, 69
1, 766096, Note_on_c, 0, 62, 58
1, 766100, Control_c, 0, 64, 65
1, 766103, Note_off_c, 0, 63, 55
1, 766114, Control_c, 0, 64, 63
1, 766123, Note_off_c, 0, 62, 64
1, 766129, Control_c, 0, 64, 70
1, 766132, Note_off_c, 0, 58, 63
1, 766144, Control_c, 0, 64, 80
1, 766157, Note_on_c, 0, 72, 72
1, 766159, Control_c, 0, 64, 108
1, 766160, Note_off_c, 0, 70, 63
1, 766174, Control_c, 0, 64, 127
1, 766183, Note_off_c, 0, 53, 43
1, 766194, Note_off_c, 0, 72, 60
1, 766313, Note_on_c, 0, 74, 68
1, 766337, Control_c, 0, 64, 109
1, 766351, Control_c, 0, 64, 79
1, 766366, Control_c, 0, 64, 56
1, 766385, Note_on_c, 0, 34, 61
1, 766388, Note_on_c, 0, 75, 69
1, 766388, Control_c, 0, 64, 0
1, 766401, Note_off_c, 0, 74, 60
1, 766403, Control_c, 0, 64, 62
1, 766417, Note_off_c, 0, 34, 62
1, 766418, Control_c, 0, 64, 73
1, 766432, Control_c, 0, 64, 93
1, 766447, Note_on_c, 0, 77, 68
1, 766447, Control_c, 0, 64, 127
1, 766448, Note_off_c, 0, 75, 63
1, 766485, Note_off_c, 0, 77, 60
1, 766611, Control_c, 0, 67, 126
1, 766626, Control_c, 0, 67, 124
1, 766633, Note_on_c, 0, 79, 66
1, 766640, Control_c, 0, 67, 123
1, 766655, Control_c, 0, 64, 102
1, 766655, Control_c, 0, 67, 121
1, 766670, Control_c, 0, 64, 74
1, 766670, Control_c, 0, 67, 120
1, 766684, Note_on_c, 0, 63, 55
1, 766685, Control_c, 0, 64, 59
1, 766685, Control_c, 0, 67, 118
1, 766693, Note_on_c, 0, 53, 52
1, 766693, Note_on_c, 0, 80, 70
1, 766700, Note_off_c, 0, 79, 59
1, 766700, Control_c, 0, 64, 64
1, 766700, Control_c, 0, 67, 116
1, 766704, Note_on_c, 0, 58, 52
1, 766714, Control_c, 0, 64, 73
1, 766714, Control_c, 0, 67, 114
1, 766729, Control_c, 0, 64, 91
1, 766729, Control_c, 0, 67, 111
1, 766744, Control_c, 0, 64, 127
1, 766744, Control_c, 0, 67, 107
1, 766760, Control_c, 0, 67, 103
1, 766766, Note_on_c, 0, 82, 78
1, 766766, Note_off_c, 0, 80, 62
1, 766775, Control_c, 0, 67, 99
1, 766789, Control_c, 0, 67, 96
1, 766798, Note_off_c, 0, 82, 60
1, 766804, Control_c, 0, 67, 93
1, 766819, Control_c, 0, 67, 89
1, 766834, Control_c, 0, 67, 83
1, 766849, Control_c, 0, 67, 77
1, 766863, Control_c, 0, 67, 72
1, 766878, Control_c, 0, 67, 68
1, 766893, Control_c, 0, 67, 65
1, 766908, Control_c, 0, 67, 63
1, 766918, Note_on_c, 0, 84, 74
1, 766923, Control_c, 0, 67, 60
1, 766937, Control_c, 0, 67, 56
1, 766952, Control_c, 0, 64, 90
1, 766952, Control_c, 0, 67, 51
1, 766967, Control_c, 0, 64, 76
1, 766967, Control_c, 0, 67, 45
1, 766973, Note_on_c, 0, 82, 86
1, 766976, Note_on_c, 0, 62, 66
1, 766978, Note_off_c, 0, 84, 63
1, 766981, Control_c, 0, 64, 75
1, 766981, Control_c, 0, 67, 36
1, 766990, Note_off_c, 0, 63, 61
1, 766996, Control_c, 0, 64, 86
1, 766996, Control_c, 0, 67, 28
1, 767006, Note_off_c, 0, 62, 66
1, 767011, Control_c, 0, 64, 118
1, 767011, Control_c, 0, 67, 22
1, 767013, Note_off_c, 0, 58, 63
1, 767026, Control_c, 0, 64, 127
1, 767026, Control_c, 0, 67, 18
1, 767041, Control_c, 0, 67, 16
1, 767052, Note_on_c, 0, 84, 84
1, 767055, Control_c, 0, 67, 15
1, 767060, Note_off_c, 0, 82, 64
1, 767089, Note_off_c, 0, 53, 35
1, 767091, Note_off_c, 0, 84, 65
1, 767115, Control_c, 0, 67, 16
1, 767137, Control_c, 0, 67, 17
1, 767152, Control_c, 0, 67, 18
1, 767167, Control_c, 0, 67, 19
1, 767181, Control_c, 0, 67, 20
1, 767204, Note_on_c, 0, 86, 82
1, 767226, Control_c, 0, 64, 86
1, 767241, Control_c, 0, 64, 65
1, 767241, Control_c, 0, 67, 20
1, 767255, Control_c, 0, 64, 29
1, 767270, Control_c, 0, 64, 61
1, 767276, Note_on_c, 0, 87, 86
1, 767278, Note_on_c, 0, 34, 65
1, 767285, Control_c, 0, 64, 71
1, 767299, Note_off_c, 0, 86, 59
1, 767300, Control_c, 0, 64, 92
1, 767315, Control_c, 0, 64, 127
1, 767318, Note_off_c, 0, 34, 62
1, 767344, Control_c, 0, 67, 20
1, 767350, Note_on_c, 0, 84, 69
1, 767361, Note_off_c, 0, 87, 65
1, 767374, Control_c, 0, 67, 19
1, 767374, Note_off_c, 0, 84, 65
1, 767523, Control_c, 0, 67, 20
1, 767525, Note_on_c, 0, 82, 64
1, 767537, Control_c, 0, 67, 20
1, 767553, Control_c, 0, 67, 21
1, 767568, Control_c, 0, 64, 110
1, 767582, Note_on_c, 0, 79, 71
1, 767583, Control_c, 0, 64, 76
1, 767583, Control_c, 0, 67, 21
1, 767597, Note_on_c, 0, 55, 53
1, 767598, Control_c, 0, 64, 61
1, 767598, Control_c, 0, 67, 22
1, 767604, Note_on_c, 0, 51, 45
1, 767612, Control_c, 0, 64, 62
1, 767619, Note_off_c, 0, 82, 62
1, 767627, Control_c, 0, 64, 69
1, 767642, Control_c, 0, 64, 78
1, 767653, Note_off_c, 0, 79, 61
1, 767657, Control_c, 0, 64, 91
1, 767666, Note_on_c, 0, 75, 66
1, 767672, Control_c, 0, 64, 127
1, 767674, Note_off_c, 0, 51, 62
1, 767693, Note_off_c, 0, 75, 65
1, 767733, Note_off_c, 0, 55, 60
1, 767835, Note_on_c, 0, 72, 66
1, 767864, Control_c, 0, 64, 103
1, 767864, Control_c, 0, 67, 21
1, 767886, Control_c, 0, 64, 78
1, 767888, Note_on_c, 0, 70, 72
1, 767900, Note_on_c, 0, 55, 49
1, 767901, Control_c, 0, 64, 62
1, 767902, Note_on_c, 0, 58, 60
1, 767911, Note_off_c, 0, 72, 61
1, 767916, Control_c, 0, 64, 24
1, 767931, Control_c, 0, 64, 53
1, 767946, Control_c, 0, 64, 66
1, 767955, Note_off_c, 0, 70, 63
1, 767960, Control_c, 0, 64, 77
1, 767960, Control_c, 0, 67, 21
1, 767962, Note_on_c, 0, 67, 79
1, 767975, Control_c, 0, 64, 90
1, 767990, Control_c, 0, 64, 118
1, 767990, Control_c, 0, 67, 20
1, 768000, Note_off_c, 0, 67, 59
1, 768004, Control_c, 0, 64, 127
1, 768150, Note_on_c, 0, 63, 75
1, 768182, Control_c, 0, 67, 21
1, 768197, Control_c, 0, 67, 22
1, 768212, Control_c, 0, 64, 99
1, 768212, Control_c, 0, 67, 23
1, 768221, Note_on_c, 0, 62, 64
1, 768224, Note_on_c, 0, 60, 69
1, 768227, Control_c, 0, 64, 76
1, 768227, Control_c, 0, 67, 24
1, 768237, Note_on_c, 0, 56, 59
1, 768237, Note_off_c, 0, 55, 58
1, 768241, Control_c, 0, 64, 23
1, 768241, Control_c, 0, 67, 24
1, 768256, Note_off_c, 0, 63, 40
1, 768256, Control_c, 0, 64, 0
1, 768256, Control_c, 0, 67, 25
1, 768290, Note_off_c, 0, 58, 59
1, 768330, Control_c, 0, 67, 25
1, 768361, Control_c, 0, 64, 65
1, 768361, Control_c, 0, 67, 26
1, 768376, Control_c, 0, 64, 75
1, 768376, Control_c, 0, 67, 26
1, 768391, Control_c, 0, 64, 90
1, 768391, Control_c, 0, 67, 27
1, 768405, Control_c, 0, 64, 127
1, 768420, Control_c, 0, 67, 27
1, 768450, Control_c, 0, 67, 28
1, 768465, Control_c, 0, 67, 28
1, 768495, Control_c, 0, 67, 29
1, 768524, Control_c, 0, 67, 30
1, 768539, Control_c, 0, 67, 32
1, 768554, Control_c, 0, 67, 34
1, 768569, Control_c, 0, 67, 36
1, 768583, Control_c, 0, 67, 37
1, 768598, Control_c, 0, 67, 38
1, 768613, Control_c, 0, 64, 89
1, 768613, Control_c, 0, 67, 39
1, 768616, Note_on_c, 0, 58, 61
1, 768620, Note_on_c, 0, 55, 53
1, 768632, Note_off_c, 0, 56, 54
1, 768635, Control_c, 0, 64, 65
1, 768635, Control_c, 0, 67, 41
1, 768650, Control_c, 0, 64, 0
1, 768650, Control_c, 0, 67, 42
1, 768665, Control_c, 0, 67, 43
1, 768680, Control_c, 0, 67, 44
1, 768681, Note_off_c, 0, 60, 51
1, 768695, Control_c, 0, 64, 62
1, 768695, Control_c, 0, 67, 45
1, 768709, Control_c, 0, 64, 70
1, 768723, Control_c, 0, 64, 85
1, 768738, Control_c, 0, 64, 114
1, 768752, Control_c, 0, 64, 127
1, 768814, Note_off_c, 0, 58, 60
1, 768841, Control_c, 0, 67, 45
1, 768886, Control_c, 0, 67, 46
1, 768908, Note_off_c, 0, 55, 54
1, 768915, Control_c, 0, 64, 121
1, 768915, Control_c, 0, 67, 46
1, 768928, Note_on_c, 0, 56, 59
1, 768930, Note_on_c, 0, 53, 51
1, 768930, Control_c, 0, 64, 84
1, 768930, Control_c, 0, 67, 48
1, 768939, Note_on_c, 0, 58, 54
1, 768945, Control_c, 0, 64, 64
1, 768945, Control_c, 0, 67, 51
1, 768960, Control_c, 0, 64, 0
1, 768960, Control_c, 0, 67, 54
1, 768975, Control_c, 0, 64, 24
1, 768975, Control_c, 0, 67, 57
1, 768985, Note_off_c, 0, 53, 63
1, 768990, Control_c, 0, 64, 62
1, 768990, Control_c, 0, 67, 59
1, 768991, Note_off_c, 0, 56, 62
1, 768996, Note_off_c, 0, 62, 35
1, 769005, Control_c, 0, 64, 71
1, 769005, Control_c, 0, 67, 60
1, 769020, Control_c, 0, 64, 82
1, 769020, Control_c, 0, 67, 62
1, 769024, Note_on_c, 0, 60, 58
1, 769025, Note_off_c, 0, 58, 60
1, 769034, Control_c, 0, 64, 101
1, 769034, Control_c, 0, 67, 64
1, 769049, Control_c, 0, 64, 127
1, 769049, Control_c, 0, 67, 65
1, 769064, Control_c, 0, 67, 67
1, 769074, Note_off_c, 0, 60, 59
1, 769079, Control_c, 0, 67, 69
1, 769094, Control_c, 0, 67, 70
1, 769108, Control_c, 0, 67, 71
1, 769123, Control_c, 0, 67, 72
1, 769138, Control_c, 0, 67, 72
1, 769168, Control_c, 0, 67, 73
1, 769195, Note_on_c, 0, 62, 55
1, 769198, Control_c, 0, 64, 105
1, 769213, Control_c, 0, 64, 78
1, 769228, Control_c, 0, 64, 53
1, 769237, Note_on_c, 0, 34, 58
1, 769243, Control_c, 0, 64, 0
1, 769243, Control_c, 0, 67, 72
1, 769246, Note_off_c, 0, 62, 56
1, 769255, Note_on_c, 0, 63, 59
1, 769257, Control_c, 0, 67, 72
1, 769272, Control_c, 0, 64, 48
1, 769273, Note_off_c, 0, 34, 63
1, 769285, Note_off_c, 0, 63, 55
1, 769287, Control_c, 0, 64, 69
1, 769287, Control_c, 0, 67, 71
1, 769302, Control_c, 0, 64, 81
1, 769317, Control_c, 0, 64, 105
1, 769317, Control_c, 0, 67, 71
1, 769327, Note_on_c, 0, 65, 67
1, 769331, Control_c, 0, 64, 127
1, 769365, Note_off_c, 0, 65, 61
1, 769457, Control_c, 0, 67, 71
1, 769473, Control_c, 0, 67, 72
1, 769502, Control_c, 0, 67, 72
1, 769507, Note_on_c, 0, 67, 59
1, 769517, Control_c, 0, 67, 73
1, 769532, Control_c, 0, 64, 104
1, 769532, Control_c, 0, 67, 73
1, 769547, Control_c, 0, 64, 75
1, 769547, Control_c, 0, 67, 74
1, 769562, Control_c, 0, 64, 19
1, 769562, Control_c, 0, 67, 76
1, 769565, Note_on_c, 0, 60, 40
1, 769566, Note_on_c, 0, 51, 34
1, 769567, Note_on_c, 0, 68, 66
1, 769571, Note_on_c, 0, 53, 30
1, 769574, Note_off_c, 0, 67, 57
1, 769576, Control_c, 0, 64, 0
1, 769576, Control_c, 0, 67, 77
1, 769591, Control_c, 0, 67, 78
1, 769606, Control_c, 0, 64, 60
1, 769621, Control_c, 0, 64, 70
1, 769636, Control_c, 0, 64, 82
1, 769636, Control_c, 0, 67, 77
1, 769640, Note_off_c, 0, 68, 62
1, 769650, Control_c, 0, 64, 107
1, 769655, Note_off_c, 0, 60, 60
1, 769657, Note_on_c, 0, 74, 68
1, 769665, Control_c, 0, 64, 127
1, 769665, Control_c, 0, 67, 77
1, 769680, Control_c, 0, 67, 76
1, 769685, Note_off_c, 0, 74, 67
1, 769694, Note_off_c, 0, 51, 47
1, 769808, Note_on_c, 0, 72, 64
1, 769813, Control_c, 0, 64, 101
1, 769828, Control_c, 0, 64, 76
1, 769843, Control_c, 0, 64, 53
1, 769857, Control_c, 0, 64, 0
1, 769863, Note_on_c, 0, 50, 45
1, 769863, Note_on_c, 0, 58, 48
1, 769871, Note_off_c, 0, 72, 62
1, 769872, Control_c, 0, 64, 29
1, 769874, Note_on_c, 0, 70, 63
1, 769887, Control_c, 0, 64, 65
1, 769887, Control_c, 0, 67, 76
1, 769902, Control_c, 0, 64, 75
1, 769902, Control_c, 0, 67, 75
1, 769910, Note_off_c, 0, 58, 61
1, 769917, Control_c, 0, 64, 93
1, 769931, Note_off_c, 0, 70, 58
1, 769932, Control_c, 0, 64, 127
1, 769932, Control_c, 0, 67, 74
1, 769937, Note_off_c, 0, 53, 55
1, 769952, Note_on_c, 0, 65, 59
1, 769958, Note_off_c, 0, 50, 64
1, 769977, Control_c, 0, 67, 75
1, 769991, Control_c, 0, 67, 75
1, 769995, Note_off_c, 0, 65, 59
1, 770006, Control_c, 0, 67, 76
1, 770021, Control_c, 0, 67, 76
1, 770036, Control_c, 0, 67, 77
1, 770066, Control_c, 0, 67, 78
1, 770105, Note_on_c, 0, 66, 62
1, 770111, Control_c, 0, 64, 86
1, 770133, Control_c, 0, 64, 63
1, 770147, Note_off_c, 0, 66, 65
1, 770148, Control_c, 0, 64, 0
1, 770162, Control_c, 0, 67, 77
1, 770168, Note_on_c, 0, 34, 58
1, 770177, Control_c, 0, 64, 19
1, 770177, Control_c, 0, 67, 77
1, 770185, Note_on_c, 0, 67, 69
1, 770192, Control_c, 0, 64, 66
1, 770192, Control_c, 0, 67, 76
1, 770199, Note_off_c, 0, 34, 62
1, 770206, Control_c, 0, 64, 77
1, 770206, Control_c, 0, 67, 76
1, 770221, Control_c, 0, 64, 97
1, 770221, Control_c, 0, 67, 75
1, 770234, Note_off_c, 0, 67, 57
1, 770236, Control_c, 0, 64, 127
1, 770236, Control_c, 0, 67, 75
1, 770251, Control_c, 0, 67, 74
1, 770253, Note_on_c, 0, 75, 65
1, 770321, Note_off_c, 0, 75, 60
1, 770340, Control_c, 0, 67, 74
1, 770428, Control_c, 0, 67, 74
1, 770435, Note_on_c, 0, 79, 60
1, 770472, Control_c, 0, 64, 87
1, 770487, Control_c, 0, 64, 66
1, 770488, Note_on_c, 0, 60, 39
1, 770491, Note_on_c, 0, 53, 41
1, 770499, Note_on_c, 0, 51, 42
1, 770499, Note_on_c, 0, 80, 71
1, 770502, Control_c, 0, 64, 0
1, 770502, Control_c, 0, 67, 75
1, 770516, Note_off_c, 0, 79, 55
1, 770517, Control_c, 0, 64, 32
1, 770531, Control_c, 0, 64, 65
1, 770546, Control_c, 0, 64, 74
1, 770557, Note_off_c, 0, 60, 61
1, 770561, Control_c, 0, 64, 89
1, 770561, Control_c, 0, 67, 75
1, 770568, Note_off_c, 0, 80, 63
1, 770576, Control_c, 0, 64, 127
1, 770576, Control_c, 0, 67, 76
1, 770581, Note_on_c, 0, 86, 64
1, 770605, Control_c, 0, 67, 76
1, 770608, Note_off_c, 0, 86, 67
1, 770620, Control_c, 0, 67, 77
1, 770635, Control_c, 0, 67, 77
1, 770650, Control_c, 0, 67, 78
1, 770665, Control_c, 0, 67, 78
1, 770666, Note_off_c, 0, 51, 50
1, 770680, Control_c, 0, 67, 79
1, 770695, Control_c, 0, 67, 79
1, 770710, Control_c, 0, 67, 80
1, 770724, Control_c, 0, 64, 106
1, 770724, Control_c, 0, 67, 81
1, 770732, Note_on_c, 0, 84, 61
1, 770739, Control_c, 0, 64, 81
1, 770739, Control_c, 0, 67, 83
1, 770755, Control_c, 0, 64, 65
1, 770755, Control_c, 0, 67, 85
1, 770769, Control_c, 0, 64, 60
1, 770769, Control_c, 0, 67, 87
1, 770784, Control_c, 0, 64, 65
1, 770784, Control_c, 0, 67, 88
1, 770799, Note_on_c, 0, 58, 49
1, 770799, Control_c, 0, 64, 75
1, 770799, Control_c, 0, 67, 90
1, 770800, Note_on_c, 0, 50, 37
1, 770801, Note_on_c, 0, 82, 69
1, 770811, Note_off_c, 0, 84, 60
1, 770814, Control_c, 0, 64, 89
1, 770814, Control_c, 0, 67, 93
1, 770829, Control_c, 0, 64, 127
1, 770829, Control_c, 0, 67, 96
1, 770844, Control_c, 0, 67, 99
1, 770852, Note_off_c, 0, 58, 59
1, 770856, Note_off_c, 0, 53, 65
1, 770859, Control_c, 0, 67, 103
1, 770880, Note_off_c, 0, 82, 61
1, 770881, Control_c, 0, 67, 106
1, 770894, Note_off_c, 0, 50, 64
1, 770895, Note_on_c, 0, 77, 63
1, 770895, Control_c, 0, 67, 110
1, 770910, Control_c, 0, 67, 113
1, 770925, Note_off_c, 0, 77, 62
1, 770925, Control_c, 0, 67, 115
1, 770940, Control_c, 0, 67, 117
1, 770954, Control_c, 0, 67, 118
1, 770969, Control_c, 0, 67, 119
1, 770984, Control_c, 0, 67, 120
1, 771028, Control_c, 0, 64, 113
1, 771036, Note_on_c, 0, 78, 66
1, 771043, Control_c, 0, 64, 82
1, 771058, Control_c, 0, 64, 62
1, 771073, Control_c, 0, 64, 0
1, 771090, Note_on_c, 0, 34, 61
1, 771097, Note_on_c, 0, 79, 70
1, 771102, Control_c, 0, 64, 64
1, 771103, Note_off_c, 0, 78, 56
1, 771117, Control_c, 0, 64, 74
1, 771125, Note_off_c, 0, 34, 63
1, 771132, Control_c, 0, 64, 89
1, 771146, Control_c, 0, 64, 127
1, 771162, Note_off_c, 0, 79, 60
1, 771195, Note_on_c, 0, 75, 53
1, 771218, Note_off_c, 0, 75, 61
1, 771309, Control_c, 0, 67, 119
1, 771347, Note_on_c, 0, 72, 55
1, 771398, Control_c, 0, 64, 84
1, 771407, Note_on_c, 0, 70, 60
1, 771409, Note_on_c, 0, 55, 47
1, 771413, Note_on_c, 0, 51, 46
1, 771413, Control_c, 0, 64, 64
1, 771415, Note_off_c, 0, 72, 58
1, 771428, Control_c, 0, 64, 0
1, 771443, Control_c, 0, 64, 41
1, 771458, Control_c, 0, 64, 64
1, 771463, Note_off_c, 0, 70, 62
1, 771473, Control_c, 0, 64, 75
1, 771488, Control_c, 0, 64, 88
1, 771490, Note_on_c, 0, 67, 56
1, 771502, Control_c, 0, 64, 127
1, 771515, Note_off_c, 0, 55, 54
1, 771520, Note_off_c, 0, 67, 64
1, 771648, Note_on_c, 0, 63, 63
1, 771673, Control_c, 0, 64, 119
1, 771688, Control_c, 0, 64, 85
1, 771703, Control_c, 0, 64, 67
1, 771713, Note_off_c, 0, 63, 60
1, 771718, Control_c, 0, 64, 51
1, 771722, Note_on_c, 0, 60, 73
1, 771729, Note_on_c, 0, 55, 56
1, 771732, Control_c, 0, 64, 62
1, 771747, Control_c, 0, 64, 69
1, 771759, Note_off_c, 0, 51, 60
1, 771759, Note_off_c, 0, 55, 65
1, 771762, Control_c, 0, 64, 82
1, 771777, Control_c, 0, 64, 103
1, 771777, Note_off_c, 0, 60, 64
1, 771789, Note_on_c, 0, 58, 64
1, 771792, Control_c, 0, 64, 127
1, 771807, Control_c, 0, 67, 119
1, 771815, Note_off_c, 0, 58, 66
1, 771822, Control_c, 0, 67, 118
1, 771851, Control_c, 0, 67, 118
1, 771925, Control_c, 0, 67, 117
1, 771955, Control_c, 0, 67, 117
1, 771969, Control_c, 0, 67, 116
1, 771983, Note_on_c, 0, 55, 67
1, 771984, Control_c, 0, 67, 116
1, 771999, Control_c, 0, 67, 115
1, 772029, Control_c, 0, 67, 115
1, 772058, Control_c, 0, 64, 110
1, 772058, Control_c, 0, 67, 114
1, 772065, Note_on_c, 0, 46, 77
1, 772073, Control_c, 0, 64, 82
1, 772088, Control_c, 0, 64, 63
1, 772088, Control_c, 0, 67, 114
1, 772103, Note_on_c, 0, 53, 55
1, 772103, Control_c, 0, 64, 0
1, 772103, Control_c, 0, 67, 113
1, 772117, Control_c, 0, 67, 112
1, 772132, Control_c, 0, 67, 111
1, 772143, Note_on_c, 0, 50, 48
1, 772147, Control_c, 0, 67, 110
1, 772148, Note_off_c, 0, 55, 57
1, 772162, Control_c, 0, 67, 109
1, 772176, Control_c, 0, 67, 107
1, 772191, Control_c, 0, 67, 104
1, 772206, Control_c, 0, 67, 100
1, 772221, Control_c, 0, 64, 59
1, 772221, Control_c, 0, 67, 96
1, 772236, Control_c, 0, 64, 71
1, 772236, Control_c, 0, 67, 91
1, 772251, Control_c, 0, 64, 82
1, 772251, Control_c, 0, 67, 86
1, 772266, Control_c, 0, 64, 99
1, 772266, Control_c, 0, 67, 80
1, 772281, Control_c, 0, 64, 127
1, 772281, Control_c, 0, 67, 74
1, 772295, Control_c, 0, 67, 69
1, 772310, Control_c, 0, 67, 65
1, 772325, Control_c, 0, 67, 61
1, 772340, Control_c, 0, 67, 60
1, 772355, Control_c, 0, 67, 58
1, 772378, Control_c, 0, 67, 57
1, 772393, Control_c, 0, 67, 55
1, 772407, Control_c, 0, 67, 52
1, 772412, Note_off_c, 0, 50, 62
1, 772422, Control_c, 0, 67, 50
1, 772437, Control_c, 0, 67, 47
1, 772452, Control_c, 0, 67, 44
1, 772468, Control_c, 0, 67, 41
1, 772482, Control_c, 0, 67, 39
1, 772492, Note_off_c, 0, 53, 65
1, 772497, Control_c, 0, 67, 38
1, 772512, Control_c, 0, 67, 36
1, 772526, Note_on_c, 0, 55, 75
1, 772527, Control_c, 0, 67, 35
1, 772542, Control_c, 0, 67, 34
1, 772556, Control_c, 0, 67, 32
1, 772571, Control_c, 0, 67, 30
1, 772586, Control_c, 0, 67, 27
1, 772600, Control_c, 0, 67, 24
1, 772615, Control_c, 0, 67, 21
1, 772630, Control_c, 0, 67, 17
1, 772645, Control_c, 0, 67, 12
1, 772660, Control_c, 0, 67, 0
1, 772718, Note_off_c, 0, 55, 61
1, 772850, Note_on_c, 0, 53, 79
1, 772871, Note_on_c, 0, 44, 66
1, 772897, Control_c, 0, 64, 99
1, 772911, Control_c, 0, 64, 78
1, 772920, Note_off_c, 0, 46, 58
1, 772926, Control_c, 0, 64, 65
1, 772941, Control_c, 0, 64, 54
1, 772956, Control_c, 0, 64, 56
1, 772971, Control_c, 0, 64, 63
1, 772986, Control_c, 0, 64, 67
1, 773000, Control_c, 0, 64, 76
1, 773015, Control_c, 0, 64, 89
1, 773030, Control_c, 0, 64, 126
1, 773045, Control_c, 0, 64, 127
1, 773081, Note_off_c, 0, 44, 62
1, 773193, Note_on_c, 0, 51, 83
1, 773223, Note_on_c, 0, 43, 63
1, 773235, Note_off_c, 0, 53, 63
1, 773261, Control_c, 0, 64, 95
1, 773276, Control_c, 0, 64, 73
1, 773291, Control_c, 0, 64, 19
1, 773305, Control_c, 0, 64, 0
1, 773522, Note_on_c, 0, 58, 82
1, 773571, Control_c, 0, 64, 58
1, 773586, Control_c, 0, 64, 68
1, 773601, Control_c, 0, 64, 79
1, 773616, Control_c, 0, 64, 98
1, 773625, Note_off_c, 0, 58, 62
1, 773631, Control_c, 0, 64, 127
1, 773693, Note_off_c, 0, 43, 40
1, 773835, Note_on_c, 0, 58, 86
1, 773835, Note_off_c, 0, 51, 57
1, 773852, Note_on_c, 0, 46, 62
1, 773857, Note_on_c, 0, 41, 59
1, 773869, Note_on_c, 0, 56, 63
1, 773890, Control_c, 0, 64, 112
1, 773905, Control_c, 0, 64, 81
1, 773920, Control_c, 0, 64, 64
1, 773935, Control_c, 0, 64, 0
1, 773950, Control_c, 0, 64, 30
1, 773965, Control_c, 0, 64, 58
1, 773980, Control_c, 0, 64, 65
1, 773995, Control_c, 0, 64, 74
1, 773996, Note_off_c, 0, 46, 58
1, 774010, Control_c, 0, 64, 87
1, 774024, Control_c, 0, 64, 127
1, 774070, Note_off_c, 0, 56, 62
1, 774218, Note_off_c, 0, 41, 55
1, 774236, Note_off_c, 0, 58, 59
1, 774319, Note_on_c, 0, 58, 78
1, 774337, Note_on_c, 0, 39, 49
1, 774352, Note_on_c, 0, 55, 50
1, 774353, Note_on_c, 0, 46, 31
1, 774439, Control_c, 0, 64, 84
1, 774454, Control_c, 0, 64, 58
1, 774469, Control_c, 0, 64, 0
1, 774528, Control_c, 0, 64, 59
1, 774543, Control_c, 0, 64, 74
1, 774558, Control_c, 0, 64, 96
1, 774572, Control_c, 0, 64, 127
1, 774627, Note_off_c, 0, 46, 35
1, 774722, Note_on_c, 0, 67, 90
1, 774738, Note_on_c, 0, 46, 52
1, 774869, Note_off_c, 0, 58, 63
1, 774903, Note_off_c, 0, 46, 34
1, 774907, Note_off_c, 0, 55, 36
1, 775023, Note_on_c, 0, 65, 88
1, 775044, Note_on_c, 0, 38, 61
1, 775054, Note_on_c, 0, 46, 44
1, 775062, Note_on_c, 0, 53, 53
1, 775068, Control_c, 0, 64, 95
1, 775075, Note_off_c, 0, 67, 65
1, 775083, Control_c, 0, 64, 68
1, 775098, Control_c, 0, 64, 0
1, 775112, Control_c, 0, 64, 36
1, 775118, Note_off_c, 0, 39, 43
1, 775127, Control_c, 0, 64, 62
1, 775142, Control_c, 0, 64, 68
1, 775157, Control_c, 0, 64, 76
1, 775158, Note_off_c, 0, 53, 63
1, 775172, Control_c, 0, 64, 87
1, 775187, Control_c, 0, 64, 119
1, 775202, Control_c, 0, 64, 127
1, 775250, Note_off_c, 0, 46, 36
1, 775402, Note_on_c, 0, 63, 72
1, 775446, Control_c, 0, 64, 97
1, 775454, Note_on_c, 0, 36, 47
1, 775462, Control_c, 0, 64, 71
1, 775476, Note_on_c, 0, 46, 36
1, 775476, Note_off_c, 0, 65, 53
1, 775476, Control_c, 0, 64, 0
1, 775483, Note_off_c, 0, 38, 37
1, 775491, Note_on_c, 0, 51, 27
1, 775536, Control_c, 0, 67, 9
1, 775550, Note_off_c, 0, 51, 49
1, 775551, Control_c, 0, 64, 65
1, 775551, Control_c, 0, 67, 12
1, 775566, Control_c, 0, 64, 81
1, 775566, Control_c, 0, 67, 15
1, 775581, Control_c, 0, 64, 113
1, 775581, Control_c, 0, 67, 18
1, 775596, Control_c, 0, 64, 127
1, 775596, Control_c, 0, 67, 20
1, 775610, Control_c, 0, 67, 23
1, 775625, Control_c, 0, 67, 25
1, 775630, Note_off_c, 0, 36, 34
1, 775630, Note_off_c, 0, 46, 51
1, 775640, Control_c, 0, 67, 27
1, 775644, Note_off_c, 0, 63, 62
1, 775655, Control_c, 0, 67, 30
1, 775670, Control_c, 0, 67, 32
1, 775685, Control_c, 0, 67, 34
1, 775700, Control_c, 0, 67, 35
1, 775715, Control_c, 0, 67, 36
1, 775730, Control_c, 0, 67, 37
1, 775744, Control_c, 0, 67, 38
1, 775759, Control_c, 0, 67, 40
1, 775767, Note_on_c, 0, 74, 88
1, 775768, Note_on_c, 0, 50, 59
1, 775774, Control_c, 0, 67, 42
1, 775789, Control_c, 0, 67, 44
1, 775793, Note_on_c, 0, 62, 44
1, 775804, Control_c, 0, 67, 46
1, 775818, Control_c, 0, 67, 48
1, 775821, Note_off_c, 0, 62, 54
1, 775833, Control_c, 0, 67, 50
1, 775848, Control_c, 0, 67, 52
1, 775863, Control_c, 0, 67, 55
1, 775878, Control_c, 0, 67, 58
1, 775892, Control_c, 0, 67, 62
1, 775907, Note_on_c, 0, 75, 90
1, 775907, Note_off_c, 0, 74, 60
1, 775907, Control_c, 0, 67, 65
1, 775914, Note_off_c, 0, 50, 62
1, 775918, Note_on_c, 0, 51, 69
1, 775922, Control_c, 0, 67, 68
1, 775929, Note_on_c, 0, 63, 65
1, 775936, Control_c, 0, 67, 73
1, 775951, Control_c, 0, 67, 78
1, 775966, Control_c, 0, 67, 82
1, 775981, Control_c, 0, 67, 85
1, 775991, Note_off_c, 0, 63, 56
1, 775996, Control_c, 0, 67, 89
1, 776010, Control_c, 0, 67, 92
1, 776025, Control_c, 0, 67, 94
1, 776040, Control_c, 0, 67, 96
1, 776055, Control_c, 0, 67, 97
1, 776070, Control_c, 0, 67, 98
1, 776084, Control_c, 0, 67, 98
1, 776161, Note_on_c, 0, 77, 82
1, 776181, Note_on_c, 0, 53, 54
1, 776186, Note_on_c, 0, 45, 46
1, 776189, Note_on_c, 0, 41, 51
1, 776189, Note_on_c, 0, 65, 53
1, 776196, Control_c, 0, 64, 118
1, 776211, Control_c, 0, 64, 83
1, 776224, Note_off_c, 0, 51, 39
1, 776225, Control_c, 0, 64, 45
1, 776240, Control_c, 0, 64, 0
1, 776240, Control_c, 0, 67, 99
1, 776270, Control_c, 0, 67, 100
1, 776272, Note_off_c, 0, 75, 54
1, 776285, Control_c, 0, 67, 100
1, 776299, Control_c, 0, 67, 102
1, 776309, Note_off_c, 0, 65, 63
1, 776314, Control_c, 0, 67, 105
1, 776329, Control_c, 0, 64, 66
1, 776329, Control_c, 0, 67, 107
1, 776345, Control_c, 0, 64, 78
1, 776345, Control_c, 0, 67, 109
1, 776360, Control_c, 0, 64, 96
1, 776360, Control_c, 0, 67, 113
1, 776374, Control_c, 0, 64, 127
1, 776374, Control_c, 0, 67, 116
1, 776389, Control_c, 0, 67, 120
1, 776404, Control_c, 0, 67, 123
1, 776419, Control_c, 0, 67, 126
1, 776434, Control_c, 0, 67, 127
1, 776477, Note_off_c, 0, 77, 62
1, 776480, Note_off_c, 0, 53, 63
1, 776484, Note_on_c, 0, 75, 79
1, 776486, Note_off_c, 0, 45, 61
1, 776487, Note_on_c, 0, 51, 59
1, 776490, Note_on_c, 0, 48, 63
1, 776514, Note_off_c, 0, 51, 65
1, 776516, Note_off_c, 0, 75, 58
1, 776517, Note_off_c, 0, 48, 65
1, 776519, Note_on_c, 0, 63, 36
1, 776548, Note_off_c, 0, 63, 0
1, 776564, Note_on_c, 0, 75, 76
1, 776567, Note_on_c, 0, 63, 55
1, 776567, Control_c, 0, 64, 97
1, 776579, Note_on_c, 0, 51, 68
1, 776582, Control_c, 0, 64, 71
1, 776594, Note_on_c, 0, 48, 52
1, 776597, Control_c, 0, 64, 0
1, 776656, Control_c, 0, 64, 49
1, 776671, Control_c, 0, 64, 66
1, 776683, Note_off_c, 0, 48, 0
1, 776683, Note_on_c, 0, 48, 4
1, 776685, Control_c, 0, 64, 75
1, 776700, Control_c, 0, 64, 91
1, 776715, Control_c, 0, 64, 115
1, 776730, Control_c, 0, 64, 127
1, 776794, Note_off_c, 0, 63, 56
1, 776970, Note_off_c, 0, 48, 41
1, 776978, Note_on_c, 0, 74, 66
1, 776988, Note_on_c, 0, 46, 48
1, 776993, Note_on_c, 0, 50, 50
1, 776993, Note_off_c, 0, 51, 51
1, 777002, Note_on_c, 0, 62, 46
1, 777019, Control_c, 0, 64, 95
1, 777034, Control_c, 0, 64, 72
1, 777048, Control_c, 0, 64, 0
1, 777080, Note_off_c, 0, 75, 38
1, 777138, Control_c, 0, 64, 36
1, 777153, Control_c, 0, 64, 67
1, 777168, Control_c, 0, 64, 78
1, 777173, Note_off_c, 0, 41, 51
1, 777183, Control_c, 0, 64, 96
1, 777197, Control_c, 0, 64, 127
1, 777208, Note_off_c, 0, 50, 62
1, 777221, Note_off_c, 0, 62, 43
1, 777411, Note_on_c, 0, 75, 62
1, 777423, Note_on_c, 0, 48, 44
1, 777436, Note_on_c, 0, 51, 45
1, 777444, Note_off_c, 0, 46, 34
1, 777445, Note_on_c, 0, 63, 48
1, 777450, Note_on_c, 0, 39, 36
1, 777464, Control_c, 0, 64, 109
1, 777479, Control_c, 0, 64, 80
1, 777494, Control_c, 0, 64, 51
1, 777496, Note_off_c, 0, 74, 36
1, 777508, Control_c, 0, 64, 0
1, 777557, Note_off_c, 0, 63, 57
1, 777568, Control_c, 0, 64, 52
1, 777582, Control_c, 0, 64, 67
1, 777597, Control_c, 0, 64, 78
1, 777619, Control_c, 0, 64, 93
1, 777634, Control_c, 0, 64, 127
1, 777665, Note_off_c, 0, 51, 37
1, 777863, Note_off_c, 0, 48, 40
1, 777881, Note_on_c, 0, 74, 65
1, 777894, Note_on_c, 0, 46, 46
1, 777906, Note_on_c, 0, 50, 33
1, 777918, Note_on_c, 0, 62, 33
1, 777923, Note_off_c, 0, 75, 60
1, 777950, Note_off_c, 0, 74, 59
1, 777953, Note_off_c, 0, 46, 55
1, 777953, Note_off_c, 0, 50, 49
1, 777957, Note_off_c, 0, 62, 50
1, 778047, Note_on_c, 0, 74, 56
1, 778050, Control_c, 0, 64, 101
1, 778062, Note_on_c, 0, 50, 36
1, 778062, Note_on_c, 0, 62, 42
1, 778065, Control_c, 0, 64, 77
1, 778074, Note_on_c, 0, 46, 41
1, 778080, Control_c, 0, 64, 55
1, 778094, Control_c, 0, 64, 0
1, 778124, Control_c, 0, 64, 38
1, 778138, Control_c, 0, 64, 63
1, 778153, Control_c, 0, 64, 70
1, 778168, Control_c, 0, 64, 79
1, 778183, Control_c, 0, 64, 94
1, 778198, Control_c, 0, 64, 127
1, 778204, Note_off_c, 0, 46, 0
1, 778204, Note_on_c, 0, 46, 3
1, 778241, Note_off_c, 0, 50, 45
1, 778247, Note_off_c, 0, 62, 35
1, 778398, Control_c, 0, 64, 97
1, 778409, Note_off_c, 0, 74, 58
1, 778412, Note_on_c, 0, 72, 58
1, 778412, Control_c, 0, 64, 73
1, 778417, Note_off_c, 0, 46, 43
1, 778427, Control_c, 0, 64, 66
1, 778432, Note_on_c, 0, 44, 46
1, 778433, Note_on_c, 0, 48, 40
1, 778442, Note_on_c, 0, 60, 41
1, 778442, Control_c, 0, 64, 69
1, 778457, Control_c, 0, 64, 74
1, 778472, Control_c, 0, 64, 82
1, 778478, Note_off_c, 0, 60, 66
1, 778484, Note_off_c, 0, 39, 41
1, 778487, Control_c, 0, 64, 91
1, 778502, Control_c, 0, 64, 99
1, 778517, Control_c, 0, 64, 98
1, 778531, Control_c, 0, 64, 86
1, 778546, Control_c, 0, 64, 73
1, 778561, Control_c, 0, 64, 63
1, 778567, Note_off_c, 0, 44, 53
1, 778576, Control_c, 0, 64, 66
1, 778577, Note_off_c, 0, 72, 57
1, 778591, Control_c, 0, 64, 72
1, 778602, Note_on_c, 0, 70, 65
1, 778603, Note_off_c, 0, 48, 51
1, 778606, Control_c, 0, 64, 83
1, 778618, Note_on_c, 0, 46, 44
1, 778620, Control_c, 0, 64, 97
1, 778624, Note_on_c, 0, 43, 47
1, 778635, Note_on_c, 0, 58, 37
1, 778635, Control_c, 0, 64, 101
1, 778650, Control_c, 0, 64, 100
1, 778664, Control_c, 0, 64, 97
1, 778669, Note_off_c, 0, 58, 52
1, 778679, Control_c, 0, 64, 93
1, 778694, Control_c, 0, 64, 83
1, 778709, Control_c, 0, 64, 71
1, 778724, Control_c, 0, 64, 57
1, 778740, Control_c, 0, 64, 60
1, 778743, Note_off_c, 0, 46, 34
1, 778755, Control_c, 0, 64, 66
1, 778759, Note_off_c, 0, 43, 58
1, 778767, Note_on_c, 0, 68, 63
1, 778769, Control_c, 0, 64, 70
1, 778778, Note_on_c, 0, 44, 48
1, 778784, Control_c, 0, 64, 69
1, 778786, Note_on_c, 0, 40, 39
1, 778792, Note_off_c, 0, 70, 62
1, 778799, Control_c, 0, 64, 51
1, 778803, Note_on_c, 0, 56, 23
1, 778814, Control_c, 0, 64, 0
1, 778831, Note_off_c, 0, 56, 48
1, 778873, Control_c, 0, 64, 45
1, 778885, Note_off_c, 0, 44, 61
1, 778888, Control_c, 0, 64, 50
1, 778895, Note_off_c, 0, 68, 58
1, 778901, Note_on_c, 0, 67, 61
1, 778903, Control_c, 0, 64, 53
1, 778904, Note_on_c, 0, 43, 49
1, 778917, Control_c, 0, 64, 61
1, 778918, Note_on_c, 0, 55, 42
1, 778928, Note_off_c, 0, 40, 56
1, 778932, Control_c, 0, 64, 66
1, 778947, Control_c, 0, 64, 71
1, 778954, Note_off_c, 0, 55, 56
1, 778976, Control_c, 0, 64, 70
1, 778991, Control_c, 0, 64, 69
1, 779006, Control_c, 0, 64, 70
1, 779021, Control_c, 0, 64, 71
1, 779035, Control_c, 0, 64, 72
1, 779050, Control_c, 0, 64, 74
1, 779065, Control_c, 0, 64, 76
1, 779071, Note_off_c, 0, 43, 48
1, 779095, Control_c, 0, 64, 75
1, 779101, Note_on_c, 0, 68, 60
1, 779110, Note_off_c, 0, 67, 58
1, 779117, Note_on_c, 0, 41, 48
1, 779117, Control_c, 0, 64, 72
1, 779123, Note_on_c, 0, 56, 41
1, 779131, Note_on_c, 0, 34, 41
1, 779132, Control_c, 0, 64, 66
1, 779147, Control_c, 0, 64, 38
1, 779161, Control_c, 0, 64, 0
1, 779250, Control_c, 0, 64, 17
1, 779265, Control_c, 0, 64, 65
1, 779275, Note_off_c, 0, 56, 62
1, 779280, Control_c, 0, 64, 77
1, 779288, Note_off_c, 0, 34, 55
1, 779294, Note_off_c, 0, 41, 61
1, 779295, Control_c, 0, 64, 91
1, 779310, Control_c, 0, 64, 122
1, 779324, Control_c, 0, 64, 127
1, 779553, Note_on_c, 0, 60, 59
1, 779574, Note_on_c, 0, 56, 52
1, 779682, Note_off_c, 0, 60, 56
1, 779760, Note_off_c, 0, 68, 61
1, 779896, Control_c, 0, 64, 88
1, 779898, Note_on_c, 0, 55, 52
1, 779902, Note_on_c, 0, 60, 58
1, 779907, Note_off_c, 0, 56, 44
1, 779910, Control_c, 0, 64, 68
1, 779912, Note_on_c, 0, 58, 43
1, 779925, Control_c, 0, 64, 62
1, 779940, Control_c, 0, 64, 68
1, 779942, Note_off_c, 0, 58, 63
1, 779945, Note_off_c, 0, 55, 62
1, 779955, Control_c, 0, 64, 75
1, 779962, Note_off_c, 0, 60, 61
1, 779970, Control_c, 0, 64, 83
1, 779982, Note_on_c, 0, 62, 54
1, 779984, Control_c, 0, 64, 97
1, 779999, Control_c, 0, 64, 127
1, 780006, Note_off_c, 0, 62, 60
1, 780136, Note_on_c, 0, 64, 61
1, 780162, Control_c, 0, 64, 91
1, 780177, Control_c, 0, 64, 64
1, 780192, Control_c, 0, 64, 0
1, 780194, Note_on_c, 0, 34, 61
1, 780201, Note_off_c, 0, 64, 62
1, 780205, Note_on_c, 0, 65, 64
1, 780222, Control_c, 0, 64, 11
1, 780230, Note_off_c, 0, 34, 63
1, 780237, Control_c, 0, 64, 66
1, 780252, Control_c, 0, 64, 79
1, 780266, Note_off_c, 0, 65, 64
1, 780266, Control_c, 0, 64, 104
1, 780277, Note_on_c, 0, 67, 68
1, 780281, Control_c, 0, 64, 127
1, 780302, Note_off_c, 0, 67, 66
1, 780430, Note_on_c, 0, 68, 70
1, 780489, Control_c, 0, 64, 88
1, 780499, Note_on_c, 0, 70, 71
1, 780503, Note_on_c, 0, 53, 44
1, 780504, Control_c, 0, 64, 54
1, 780505, Note_on_c, 0, 61, 46
1, 780506, Note_on_c, 0, 55, 48
1, 780509, Note_off_c, 0, 68, 58
1, 780519, Control_c, 0, 64, 0
1, 780533, Control_c, 0, 64, 59
1, 780548, Control_c, 0, 64, 72
1, 780563, Control_c, 0, 64, 89
1, 780569, Note_off_c, 0, 70, 63
1, 780573, Note_on_c, 0, 72, 70
1, 780578, Control_c, 0, 64, 127
1, 780598, Note_off_c, 0, 72, 64
1, 780633, Note_off_c, 0, 61, 59
1, 780731, Note_on_c, 0, 73, 70
1, 780748, Control_c, 0, 64, 122
1, 780763, Control_c, 0, 64, 79
1, 780778, Control_c, 0, 64, 58
1, 780786, Note_on_c, 0, 60, 62
1, 780788, Note_off_c, 0, 73, 62
1, 780789, Note_on_c, 0, 52, 63
1, 780791, Note_off_c, 0, 53, 46
1, 780793, Control_c, 0, 64, 62
1, 780807, Note_on_c, 0, 72, 71
1, 780807, Control_c, 0, 64, 73
1, 780814, Note_off_c, 0, 55, 34
1, 780815, Note_off_c, 0, 60, 66
1, 780822, Control_c, 0, 64, 89
1, 780837, Control_c, 0, 64, 127
1, 780839, Note_off_c, 0, 52, 62
1, 780861, Note_off_c, 0, 72, 65
1, 780863, Note_on_c, 0, 74, 79
1, 780909, Note_off_c, 0, 74, 64
1, 781015, Note_on_c, 0, 76, 79
1, 781015, Control_c, 0, 64, 111
1, 781030, Control_c, 0, 64, 73
1, 781044, Control_c, 0, 64, 0
1, 781055, Note_on_c, 0, 34, 75
1, 781074, Control_c, 0, 67, 125
1, 781078, Note_on_c, 0, 77, 78
1, 781087, Note_off_c, 0, 34, 66
1, 781089, Control_c, 0, 64, 68
1, 781089, Control_c, 0, 67, 120
1, 781089, Note_off_c, 0, 76, 61
1, 781104, Control_c, 0, 64, 92
1, 781104, Control_c, 0, 67, 113
1, 781119, Control_c, 0, 64, 127
1, 781119, Control_c, 0, 67, 105
1, 781134, Control_c, 0, 67, 94
1, 781137, Note_on_c, 0, 79, 88
1, 781143, Note_off_c, 0, 77, 64
1, 781149, Control_c, 0, 67, 85
1, 781164, Control_c, 0, 67, 78
1, 781177, Note_off_c, 0, 79, 65
1, 781179, Control_c, 0, 67, 74
1, 781194, Control_c, 0, 67, 71
1, 781208, Control_c, 0, 67, 70
1, 781296, Note_on_c, 0, 80, 75
1, 781327, Control_c, 0, 64, 114
1, 781342, Note_on_c, 0, 82, 85
1, 781342, Control_c, 0, 64, 74
1, 781342, Control_c, 0, 67, 70
1, 781347, Note_on_c, 0, 53, 68
1, 781357, Note_on_c, 0, 61, 65
1, 781357, Note_on_c, 0, 55, 61
1, 781363, Control_c, 0, 64, 0
1, 781363, Control_c, 0, 67, 69
1, 781374, Note_off_c, 0, 80, 60
1, 781378, Control_c, 0, 64, 57
1, 781378, Control_c, 0, 67, 68
1, 781393, Control_c, 0, 64, 73
1, 781393, Control_c, 0, 67, 65
1, 781408, Control_c, 0, 64, 93
1, 781408, Control_c, 0, 67, 60
1, 781417, Note_on_c, 0, 84, 80
1, 781423, Control_c, 0, 64, 127
1, 781423, Control_c, 0, 67, 54
1, 781430, Note_off_c, 0, 82, 64
1, 781438, Control_c, 0, 67, 49
1, 781453, Control_c, 0, 67, 46
1, 781465, Note_off_c, 0, 84, 64
1, 781468, Control_c, 0, 67, 44
1, 781481, Note_off_c, 0, 61, 60
1, 781482, Control_c, 0, 67, 41
1, 781497, Control_c, 0, 67, 37
1, 781512, Control_c, 0, 67, 32
1, 781527, Control_c, 0, 67, 27
1, 781542, Control_c, 0, 67, 21
1, 781556, Control_c, 0, 67, 15
1, 781558, Note_on_c, 0, 85, 91
1, 781571, Control_c, 0, 67, 0
1, 781586, Control_c, 0, 64, 120
1, 781601, Control_c, 0, 64, 81
1, 781613, Note_off_c, 0, 85, 62
1, 781616, Control_c, 0, 64, 62
1, 781619, Note_on_c, 0, 60, 65
1, 781620, Note_on_c, 0, 52, 68
1, 781621, Note_off_c, 0, 53, 60
1, 781625, Note_on_c, 0, 84, 94
1, 781630, Control_c, 0, 64, 55
1, 781636, Note_off_c, 0, 55, 62
1, 781643, Note_off_c, 0, 60, 67
1, 781645, Control_c, 0, 64, 69
1, 781660, Note_off_c, 0, 52, 63
1, 781660, Control_c, 0, 64, 82
1, 781675, Control_c, 0, 64, 127
1, 781687, Note_on_c, 0, 86, 98
1, 781703, Note_off_c, 0, 84, 67
1, 781742, Note_off_c, 0, 86, 67
1, 781793, Control_c, 0, 67, 13
1, 781808, Control_c, 0, 67, 21
1, 781823, Control_c, 0, 67, 29
1, 781837, Control_c, 0, 67, 34
1, 781843, Note_on_c, 0, 88, 87
1, 781852, Control_c, 0, 64, 112
1, 781852, Control_c, 0, 67, 38
1, 781867, Control_c, 0, 64, 72
1, 781867, Control_c, 0, 67, 41
1, 781882, Control_c, 0, 64, 0
1, 781882, Control_c, 0, 67, 44
1, 781893, Note_on_c, 0, 34, 68
1, 781897, Control_c, 0, 67, 46
1, 781909, Note_on_c, 0, 89, 88
1, 781912, Control_c, 0, 64, 61
1, 781927, Control_c, 0, 64, 83
1, 781927, Control_c, 0, 67, 44
1, 781929, Note_off_c, 0, 34, 62
1, 781931, Note_off_c, 0, 88, 66
1, 781942, Control_c, 0, 64, 127
1, 781942, Control_c, 0, 67, 40
1, 781957, Control_c, 0, 67, 37
1, 781972, Control_c, 0, 67, 35
1, 781973, Note_on_c, 0, 85, 83
1, 781986, Note_off_c, 0, 89, 64
1, 781986, Control_c, 0, 67, 32
1, 782001, Control_c, 0, 67, 29
1, 782016, Control_c, 0, 67, 28
1, 782027, Note_off_c, 0, 85, 63
1, 782046, Control_c, 0, 67, 29
1, 782061, Control_c, 0, 67, 30
1, 782076, Control_c, 0, 67, 31
1, 782091, Control_c, 0, 67, 32
1, 782123, Note_on_c, 0, 84, 71
1, 782127, Control_c, 0, 67, 32
1, 782142, Control_c, 0, 64, 91
1, 782142, Control_c, 0, 67, 33
1, 782157, Control_c, 0, 64, 68
1, 782157, Control_c, 0, 67, 33
1, 782172, Control_c, 0, 64, 53
1, 782172, Control_c, 0, 67, 35
1, 782181, Note_on_c, 0, 80, 69
1, 782186, Control_c, 0, 64, 67
1, 782186, Control_c, 0, 67, 37
1, 782189, Note_on_c, 0, 56, 56
1, 782193, Note_off_c, 0, 84, 59
1, 782198, Note_on_c, 0, 53, 35
1, 782202, Control_c, 0, 64, 82
1, 782202, Control_c, 0, 67, 39
1, 782217, Control_c, 0, 64, 127
1, 782217, Control_c, 0, 67, 41
1, 782232, Control_c, 0, 67, 43
1, 782239, Note_off_c, 0, 80, 60
1, 782247, Control_c, 0, 67, 46
1, 782255, Note_on_c, 0, 81, 3
1, 782261, Control_c, 0, 67, 47
1, 782265, Note_on_c, 0, 77, 67
1, 782276, Control_c, 0, 67, 47
1, 782290, Note_off_c, 0, 77, 68
1, 782293, Note_off_c, 0, 81, 37
1, 782328, Note_off_c, 0, 56, 52
1, 782335, Control_c, 0, 67, 47
1, 782350, Control_c, 0, 67, 46
1, 782365, Control_c, 0, 67, 46
1, 782380, Control_c, 0, 67, 45
1, 782395, Control_c, 0, 67, 44
1, 782410, Control_c, 0, 67, 42
1, 782421, Note_on_c, 0, 73, 67
1, 782425, Control_c, 0, 67, 41
1, 782440, Control_c, 0, 64, 89
1, 782440, Control_c, 0, 67, 40
1, 782454, Control_c, 0, 64, 65
1, 782454, Control_c, 0, 67, 39
1, 782461, Note_on_c, 0, 56, 53
1, 782468, Note_on_c, 0, 72, 75
1, 782469, Control_c, 0, 64, 0
1, 782469, Control_c, 0, 67, 38
1, 782471, Note_on_c, 0, 60, 52
1, 782472, Note_off_c, 0, 73, 56
1, 782484, Control_c, 0, 64, 58
1, 782499, Control_c, 0, 64, 75
1, 782499, Control_c, 0, 67, 38
1, 782513, Control_c, 0, 64, 109
1, 782523, Note_off_c, 0, 72, 63
1, 782528, Control_c, 0, 64, 127
1, 782528, Control_c, 0, 67, 38
1, 782537, Note_on_c, 0, 68, 76
1, 782543, Control_c, 0, 67, 39
1, 782562, Note_off_c, 0, 68, 67
1, 782573, Control_c, 0, 67, 40
1, 782583, Note_off_c, 0, 56, 50
1, 782587, Control_c, 0, 67, 40
1, 782611, Note_off_c, 0, 60, 37
1, 782617, Control_c, 0, 67, 41
1, 782632, Control_c, 0, 67, 41
1, 782661, Control_c, 0, 67, 42
1, 782691, Control_c, 0, 67, 42
1, 782736, Note_on_c, 0, 65, 61
1, 782741, Note_on_c, 0, 64, 72
1, 782788, Note_on_c, 0, 56, 78
1, 782788, Note_on_c, 0, 60, 82
1, 782792, Note_on_c, 0, 62, 81
1, 782796, Control_c, 0, 64, 82
1, 782799, Note_off_c, 0, 64, 56
1, 782810, Control_c, 0, 64, 0
1, 782818, Note_off_c, 0, 65, 59
1, 782863, Control_c, 0, 67, 41
1, 782878, Control_c, 0, 67, 41
1, 782884, Note_off_c, 0, 53, 38
1, 782892, Control_c, 0, 64, 67
1, 782892, Control_c, 0, 67, 40
1, 782907, Control_c, 0, 64, 84
1, 782907, Control_c, 0, 67, 39
1, 782922, Control_c, 0, 64, 127
1, 782922, Control_c, 0, 67, 37
1, 782936, Control_c, 0, 67, 35
1, 782949, Control_c, 0, 67, 31
1, 782964, Control_c, 0, 67, 24
1, 782979, Control_c, 0, 67, 13
1, 782994, Control_c, 0, 67, 0
1, 783098, Note_off_c, 0, 56, 62
1, 783126, Note_on_c, 0, 55, 85
1, 783128, Note_on_c, 0, 58, 89
1, 783128, Note_off_c, 0, 62, 61
1, 783136, Note_off_c, 0, 60, 63
1, 783165, Note_off_c, 0, 58, 69
1, 783166, Note_off_c, 0, 55, 68
1, 783408, Control_c, 0, 64, 89
1, 783423, Control_c, 0, 64, 54
1, 783426, Note_on_c, 0, 50, 79
1, 783426, Note_on_c, 0, 70, 83
1, 783427, Note_on_c, 0, 56, 86
1, 783429, Note_on_c, 0, 44, 77
1, 783433, Note_on_c, 0, 65, 72
1, 783434, Note_on_c, 0, 46, 73
1, 783437, Note_on_c, 0, 58, 76
1, 783438, Control_c, 0, 64, 0
1, 783453, Control_c, 0, 64, 52
1, 783456, Note_off_c, 0, 58, 71
1, 783460, Note_off_c, 0, 65, 67
1, 783468, Control_c, 0, 64, 74
1, 783478, Note_off_c, 0, 70, 63
1, 783483, Control_c, 0, 64, 100
1, 783498, Control_c, 0, 64, 127
1, 783515, Note_on_c, 0, 72, 90
1, 783522, Note_on_c, 0, 59, 65
1, 783525, Note_on_c, 0, 60, 72
1, 783544, Note_on_c, 0, 71, 45
1, 783547, Note_off_c, 0, 50, 57
1, 783548, Note_off_c, 0, 60, 69
1, 783549, Note_off_c, 0, 59, 66
1, 783554, Note_off_c, 0, 56, 33
1, 783560, Note_off_c, 0, 72, 64
1, 783564, Poly_aftertouch_c, 0, 70, 127
1, 783569, Note_off_c, 0, 71, 61
1, 783581, Note_off_c, 0, 44, 55
1, 783609, Poly_aftertouch_c, 0, 70, 0
1, 783669, Note_off_c, 0, 46, 32
1, 783677, Note_on_c, 0, 74, 95
1, 783681, Note_on_c, 0, 62, 74
1, 783693, Note_off_c, 0, 74, 75
1, 783706, Note_off_c, 0, 62, 67
1, 783713, Control_c, 0, 64, 112
1, 783728, Control_c, 0, 64, 69
1, 783734, Note_on_c, 0, 55, 90
1, 783736, Note_on_c, 0, 51, 88
1, 783739, Note_on_c, 0, 43, 82
1, 783743, Control_c, 0, 64, 0
1, 783745, Note_on_c, 0, 46, 73
1, 783751, Note_on_c, 0, 75, 97
1, 783751, Note_on_c, 0, 63, 93
1, 783757, Note_off_c, 0, 55, 68
1, 783762, Note_off_c, 0, 51, 70
1, 783768, Note_off_c, 0, 46, 65
1, 783772, Control_c, 0, 64, 60
1, 783775, Note_off_c, 0, 63, 68
1, 783783, Note_off_c, 0, 43, 64
1, 783785, Note_off_c, 0, 75, 68
1, 783787, Control_c, 0, 64, 83
1, 783791, Note_on_c, 0, 73, 31
1, 783792, Note_off_c, 0, 73, 127
1, 783802, Control_c, 0, 64, 127
1, 783826, Poly_aftertouch_c, 0, 73, 0
1, 783850, Note_on_c, 0, 77, 87
1, 783851, Note_on_c, 0, 65, 79
1, 783858, Note_on_c, 0, 76, 75
1, 783872, Note_off_c, 0, 65, 71
1, 783874, Note_off_c, 0, 76, 68
1, 783878, Note_off_c, 0, 77, 62
1, 783983, Note_on_c, 0, 79, 89
1, 783985, Note_on_c, 0, 77, 72
1, 783987, Note_on_c, 0, 67, 70
1, 783999, Note_off_c, 0, 79, 73
1, 784004, Note_off_c, 0, 77, 73
1, 784005, Note_off_c, 0, 67, 67
1, 784024, Control_c, 0, 64, 86
1, 784025, Note_on_c, 0, 44, 92
1, 784028, Note_on_c, 0, 51, 90
1, 784031, Note_on_c, 0, 36, 76
1, 784039, Control_c, 0, 64, 0
1, 784054, Note_off_c, 0, 51, 68
1, 784062, Note_on_c, 0, 80, 97
1, 784064, Note_on_c, 0, 68, 92
1, 784064, Note_off_c, 0, 36, 62
1, 784065, Note_off_c, 0, 44, 63
1, 784078, Note_off_c, 0, 80, 69
1, 784080, Note_off_c, 0, 68, 73
1, 784083, Control_c, 0, 64, 71
1, 784098, Control_c, 0, 64, 127
1, 784148, Note_on_c, 0, 82, 100
1, 784157, Note_on_c, 0, 70, 79
1, 784179, Note_off_c, 0, 70, 69
1, 784201, Note_off_c, 0, 82, 63
1, 784270, Note_on_c, 0, 38, 66
1, 784288, Note_on_c, 0, 84, 99
1, 784291, Note_on_c, 0, 42, 59
1, 784292, Note_on_c, 0, 41, 68
1, 784296, Note_on_c, 0, 72, 75
1, 784300, Note_on_c, 0, 46, 77
1, 784306, Control_c, 0, 64, 88
1, 784311, Note_on_c, 0, 78, 56
1, 784311, Note_off_c, 0, 38, 63
1, 784313, Note_off_c, 0, 72, 68
1, 784315, Note_off_c, 0, 84, 63
1, 784320, Note_off_c, 0, 41, 64
1, 784321, Control_c, 0, 64, 36
1, 784335, Note_off_c, 0, 78, 61
1, 784336, Control_c, 0, 64, 0
1, 784343, Note_on_c, 0, 53, 75
1, 784345, Note_off_c, 0, 42, 61
1, 784374, Note_off_c, 0, 46, 62
1, 784374, Control_c, 0, 64, 70
1, 784374, Note_on_c, 0, 82, 90
1, 784383, Note_on_c, 0, 70, 76
1, 784388, Control_c, 0, 64, 121
1, 784389, Note_off_c, 0, 53, 64
1, 784403, Control_c, 0, 64, 127
1, 784404, Note_off_c, 0, 70, 71
1, 784419, Note_off_c, 0, 82, 65
1, 784457, Note_on_c, 0, 81, 92
1, 784470, Note_on_c, 0, 69, 76
1, 784494, Note_off_c, 0, 69, 68
1, 784496, Note_on_c, 0, 71, 47
1, 784496, Note_off_c, 0, 81, 66
1, 784520, Note_off_c, 0, 71, 63
1, 784573, Note_on_c, 0, 39, 77
1, 784597, Note_on_c, 0, 43, 62
1, 784602, Note_on_c, 0, 68, 91
1, 784603, Note_on_c, 0, 80, 91
1, 784604, Note_on_c, 0, 46, 72
1, 784610, Control_c, 0, 64, 109
1, 784615, Note_off_c, 0, 39, 62
1, 784619, Note_off_c, 0, 68, 73
1, 784619, Note_off_c, 0, 80, 73
1, 784625, Control_c, 0, 64, 69
1, 784628, Note_off_c, 0, 43, 65
1, 784637, Note_on_c, 0, 75, 28
1, 784638, Note_off_c, 0, 75, 127
1, 784640, Control_c, 0, 64, 0
1, 784650, Note_on_c, 0, 55, 71
1, 784669, Note_off_c, 0, 46, 63
1, 784669, Control_c, 0, 64, 70
1, 784675, Note_on_c, 0, 80, 90
1, 784681, Note_on_c, 0, 68, 77
1, 784684, Control_c, 0, 64, 127
1, 784692, Note_off_c, 0, 55, 56
1, 784705, Note_off_c, 0, 68, 65
1, 784711, Note_off_c, 0, 80, 55
1, 784751, Note_on_c, 0, 79, 97
1, 784759, Note_on_c, 0, 67, 82
1, 784779, Note_off_c, 0, 67, 69
1, 784785, Note_off_c, 0, 79, 66
1, 784838, Note_on_c, 0, 41, 70
1, 784863, Note_on_c, 0, 44, 72
1, 784886, Note_on_c, 0, 46, 75
1, 784892, Control_c, 0, 64, 94
1, 784900, Note_on_c, 0, 77, 95
1, 784906, Control_c, 0, 64, 66
1, 784908, Note_on_c, 0, 65, 80
1, 784919, Note_off_c, 0, 77, 70
1, 784921, Control_c, 0, 64, 0
1, 784930, Note_on_c, 0, 56, 85
1, 784931, Note_off_c, 0, 65, 71
1, 784951, Control_c, 0, 64, 69
1, 784961, Note_off_c, 0, 41, 32
1, 784966, Control_c, 0, 64, 127
1, 784976, Note_off_c, 0, 46, 61
1, 784979, Note_on_c, 0, 75, 98
1, 784983, Note_off_c, 0, 56, 65
1, 784985, Note_on_c, 0, 63, 87
1, 784991, Note_off_c, 0, 44, 64
1, 785005, Note_off_c, 0, 63, 70
1, 785017, Note_off_c, 0, 75, 64
1, 785060, Note_on_c, 0, 74, 87
1, 785069, Note_on_c, 0, 62, 68
1, 785082, Note_on_c, 0, 73, 37
1, 785089, Note_on_c, 0, 64, 43
1, 785090, Note_off_c, 0, 74, 64
1, 785104, Note_off_c, 0, 62, 64
1, 785110, Note_on_c, 0, 76, 18
1, 785111, Note_off_c, 0, 76, 127
1, 785125, Note_off_c, 0, 64, 57
1, 785126, Note_off_c, 0, 73, 57
1, 785158, Poly_aftertouch_c, 0, 76, 0
1, 785226, Note_on_c, 0, 72, 85
1, 785226, Control_c, 0, 64, 103
1, 785227, Note_on_c, 0, 60, 78
1, 785239, Note_on_c, 0, 63, 59
1, 785241, Control_c, 0, 64, 70
1, 785243, Note_off_c, 0, 60, 69
1, 785244, Note_off_c, 0, 72, 72
1, 785256, Control_c, 0, 64, 0
1, 785257, Note_off_c, 0, 63, 66
1, 785280, Note_on_c, 0, 55, 80
1, 785284, Note_on_c, 0, 43, 74
1, 785285, Note_on_c, 0, 46, 77
1, 785291, Note_on_c, 0, 72, 90
1, 785297, Note_on_c, 0, 63, 91
1, 785298, Note_on_c, 0, 60, 69
1, 785301, Note_off_c, 0, 55, 68
1, 785307, Note_off_c, 0, 46, 66
1, 785310, Note_off_c, 0, 43, 66
1, 785316, Note_off_c, 0, 63, 71
1, 785316, Note_off_c, 0, 60, 67
1, 785329, Control_c, 0, 64, 63
1, 785344, Control_c, 0, 64, 78
1, 785346, Note_off_c, 0, 72, 0
1, 785359, Control_c, 0, 64, 127
1, 785379, Note_on_c, 0, 70, 93
1, 785383, Poly_aftertouch_c, 0, 72, 127
1, 785384, Note_on_c, 0, 58, 84
1, 785394, Poly_aftertouch_c, 0, 72, 0
1, 785402, Note_on_c, 0, 63, 27
1, 785403, Note_off_c, 0, 58, 71
1, 785411, Note_off_c, 0, 70, 63
1, 785444, Note_off_c, 0, 63, 53
1, 785447, Control_c, 0, 64, 101
1, 785462, Control_c, 0, 64, 65
1, 785477, Control_c, 0, 64, 0
1, 785477, Control_c, 0, 67, 9
1, 785492, Control_c, 0, 67, 14
1, 785507, Control_c, 0, 67, 21
1, 785522, Control_c, 0, 67, 27
1, 785537, Control_c, 0, 67, 33
1, 785552, Control_c, 0, 67, 39
1, 785567, Control_c, 0, 67, 46
1, 785581, Control_c, 0, 67, 54
1, 785596, Control_c, 0, 67, 63
1, 785611, Control_c, 0, 67, 72
1, 785626, Control_c, 0, 67, 80
1, 785641, Control_c, 0, 67, 83
1, 785655, Control_c, 0, 67, 84
1, 785674, Note_on_c, 0, 60, 51
1, 785679, Note_on_c, 0, 44, 64
1, 785680, Note_on_c, 0, 32, 66
1, 785693, Note_on_c, 0, 63, 45
1, 785715, Control_c, 0, 64, 56
1, 785724, Note_on_c, 0, 65, 22
1, 785729, Control_c, 0, 64, 68
1, 785730, Note_on_c, 0, 64, 6
1, 785731, Note_off_c, 0, 44, 61
1, 785731, Note_off_c, 0, 60, 60
1, 785744, Control_c, 0, 64, 77
1, 785755, Note_on_c, 0, 59, 62
1, 785759, Control_c, 0, 64, 89
1, 785774, Control_c, 0, 64, 115
1, 785774, Control_c, 0, 67, 85
1, 785786, Note_off_c, 0, 64, 36
1, 785789, Control_c, 0, 64, 127
1, 785827, Note_off_c, 0, 59, 41
1, 785870, Control_c, 0, 67, 84
1, 785885, Control_c, 0, 67, 83
1, 785894, Note_off_c, 0, 63, 52
1, 785895, Note_off_c, 0, 65, 37
1, 785900, Control_c, 0, 67, 82
1, 785930, Control_c, 0, 67, 81
1, 785932, Note_on_c, 0, 59, 67
1, 785945, Control_c, 0, 67, 81
1, 785956, Note_off_c, 0, 59, 68
1, 785975, Control_c, 0, 67, 80
1, 786005, Control_c, 0, 64, 100
1, 786006, Note_on_c, 0, 65, 73
1, 786007, Note_on_c, 0, 59, 78
1, 786013, Note_on_c, 0, 34, 65
1, 786014, Note_on_c, 0, 63, 66
1, 786015, Note_on_c, 0, 46, 61
1, 786020, Control_c, 0, 64, 68
1, 786020, Control_c, 0, 67, 80
1, 786020, Note_off_c, 0, 32, 61
1, 786034, Control_c, 0, 64, 0
1, 786049, Control_c, 0, 67, 79
1, 786064, Control_c, 0, 64, 27
1, 786064, Control_c, 0, 67, 79
1, 786070, Note_off_c, 0, 59, 49
1, 786078, Control_c, 0, 64, 68
1, 786078, Control_c, 0, 67, 78
1, 786090, Note_on_c, 0, 58, 80
1, 786093, Control_c, 0, 64, 82
1, 786093, Control_c, 0, 67, 77
1, 786108, Control_c, 0, 64, 127
1, 786108, Control_c, 0, 67, 76
1, 786123, Control_c, 0, 67, 75
1, 786138, Control_c, 0, 67, 74
1, 786142, Note_off_c, 0, 46, 52
1, 786148, Note_off_c, 0, 58, 61
1, 786152, Control_c, 0, 67, 74
1, 786167, Control_c, 0, 67, 73
1, 786182, Control_c, 0, 67, 71
1, 786197, Control_c, 0, 67, 69
1, 786212, Control_c, 0, 67, 68
1, 786225, Note_on_c, 0, 58, 94
1, 786226, Control_c, 0, 67, 65
1, 786241, Control_c, 0, 67, 64
1, 786246, Note_off_c, 0, 65, 59
1, 786256, Control_c, 0, 67, 62
1, 786259, Note_off_c, 0, 63, 60
1, 786260, Note_off_c, 0, 34, 58
1, 786262, Note_off_c, 0, 58, 57
1, 786270, Control_c, 0, 67, 60
1, 786285, Control_c, 0, 67, 56
1, 786295, Note_on_c, 0, 58, 86
1, 786300, Control_c, 0, 67, 54
1, 786311, Note_on_c, 0, 65, 75
1, 786315, Note_on_c, 0, 47, 73
1, 786315, Control_c, 0, 64, 90
1, 786315, Control_c, 0, 67, 51
1, 786316, Note_on_c, 0, 63, 57
1, 786319, Note_on_c, 0, 35, 71
1, 786321, Note_on_c, 0, 66, 55
1, 786330, Control_c, 0, 64, 62
1, 786330, Control_c, 0, 67, 45
1, 786345, Control_c, 0, 64, 0
1, 786345, Control_c, 0, 67, 37
1, 786359, Control_c, 0, 67, 28
1, 786360, Note_off_c, 0, 66, 0
1, 786374, Control_c, 0, 67, 19
1, 786382, Note_on_c, 0, 57, 87
1, 786389, Control_c, 0, 64, 59
1, 786389, Control_c, 0, 67, 9
1, 786395, Note_off_c, 0, 58, 62
1, 786398, Poly_aftertouch_c, 0, 66, 127
1, 786404, Control_c, 0, 64, 72
1, 786404, Control_c, 0, 67, 0
1, 786419, Control_c, 0, 64, 84
1, 786422, Note_off_c, 0, 47, 61
1, 786434, Control_c, 0, 64, 105
1, 786437, Poly_aftertouch_c, 0, 66, 0
1, 786449, Control_c, 0, 64, 127
1, 786473, Note_off_c, 0, 57, 60
1, 786532, Note_off_c, 0, 63, 59
1, 786540, Note_off_c, 0, 65, 59
1, 786557, Note_on_c, 0, 57, 86
1, 786705, Note_on_c, 0, 56, 75
1, 786718, Note_on_c, 0, 63, 56
1, 786721, Note_on_c, 0, 65, 55
1, 786735, Note_on_c, 0, 48, 46
1, 786747, Note_on_c, 0, 36, 45
1, 786773, Note_off_c, 0, 57, 51
1, 786780, Note_off_c, 0, 35, 49
1, 786813, Control_c, 0, 64, 90
1, 786827, Control_c, 0, 64, 68
1, 786842, Control_c, 0, 64, 0
1, 787114, Note_on_c, 0, 57, 64
1, 787123, Note_off_c, 0, 56, 64
1, 787197, Control_c, 0, 64, 59
1, 787212, Control_c, 0, 64, 75
1, 787227, Control_c, 0, 64, 101
1, 787233, Note_off_c, 0, 36, 50
1, 787242, Control_c, 0, 64, 127
1, 787264, Note_off_c, 0, 57, 60
1, 787319, Note_off_c, 0, 65, 63
1, 787325, Note_off_c, 0, 63, 62
1, 787462, Note_off_c, 0, 48, 52
1, 787475, Note_on_c, 0, 51, 83
1, 787482, Note_on_c, 0, 75, 85
1, 787498, Note_off_c, 0, 51, 69
1, 787504, Note_on_c, 0, 63, 60
1, 787507, Note_off_c, 0, 75, 64
1, 787530, Note_off_c, 0, 63, 64
1, 787606, Poly_aftertouch_c, 0, 51, 127
1, 787641, Poly_aftertouch_c, 0, 51, 0
1, 787878, Note_on_c, 0, 65, 76
1, 787881, Note_on_c, 0, 44, 73
1, 787883, Note_on_c, 0, 63, 73
1, 787883, Note_on_c, 0, 60, 74
1, 787887, Note_on_c, 0, 32, 68
1, 787931, Control_c, 0, 64, 91
1, 787938, Note_off_c, 0, 60, 64
1, 787946, Control_c, 0, 64, 64
1, 787959, Note_on_c, 0, 59, 76
1, 787961, Control_c, 0, 64, 0
1, 787991, Control_c, 0, 64, 60
1, 788005, Control_c, 0, 64, 69
1, 788020, Control_c, 0, 64, 85
1, 788035, Control_c, 0, 64, 127
1, 788041, Note_off_c, 0, 44, 59
1, 788059, Note_off_c, 0, 59, 52
1, 788120, Note_off_c, 0, 63, 55
1, 788143, Note_off_c, 0, 65, 61
1, 788163, Note_on_c, 0, 59, 69
1, 788181, Note_off_c, 0, 59, 66
1, 788218, Note_off_c, 0, 32, 58
1, 788221, Control_c, 0, 64, 85
1, 788222, Note_on_c, 0, 59, 89
1, 788226, Note_on_c, 0, 34, 76
1, 788227, Note_on_c, 0, 46, 77
1, 788229, Note_on_c, 0, 63, 77
1, 788229, Note_on_c, 0, 65, 84
1, 788236, Control_c, 0, 64, 62
1, 788250, Control_c, 0, 64, 11
1, 788265, Control_c, 0, 64, 64
1, 788280, Control_c, 0, 64, 76
1, 788295, Control_c, 0, 64, 96
1, 788303, Note_off_c, 0, 59, 41
1, 788310, Control_c, 0, 64, 127
1, 788314, Note_on_c, 0, 58, 87
1, 788314, Note_off_c, 0, 46, 56
1, 788381, Note_off_c, 0, 58, 63
1, 788403, Note_off_c, 0, 34, 58
1, 788449, Note_off_c, 0, 65, 59
1, 788464, Note_on_c, 0, 58, 93
1, 788497, Note_off_c, 0, 58, 64
1, 788509, Note_off_c, 0, 63, 37
1, 788533, Note_on_c, 0, 58, 80
1, 788533, Control_c, 0, 64, 111
1, 788537, Note_on_c, 0, 65, 87
1, 788540, Note_on_c, 0, 63, 73
1, 788541, Note_on_c, 0, 35, 71
1, 788541, Note_on_c, 0, 47, 75
1, 788547, Control_c, 0, 64, 74
1, 788562, Control_c, 0, 64, 0
1, 788622, Control_c, 0, 64, 62
1, 788634, Note_on_c, 0, 57, 84
1, 788637, Control_c, 0, 64, 75
1, 788646, Note_off_c, 0, 58, 64
1, 788652, Control_c, 0, 64, 99
1, 788666, Control_c, 0, 64, 127
1, 788667, Note_off_c, 0, 47, 54
1, 788723, Note_off_c, 0, 57, 60
1, 788795, Note_on_c, 0, 57, 85
1, 788808, Note_off_c, 0, 65, 66
1, 788816, Note_off_c, 0, 63, 59
1, 788854, Note_off_c, 0, 57, 0
1, 788872, Note_on_c, 0, 48, 81
1, 788872, Note_on_c, 0, 56, 102
1, 788878, Note_on_c, 0, 63, 74
1, 788878, Note_on_c, 0, 65, 82
1, 788880, Note_on_c, 0, 36, 76
1, 788890, Poly_aftertouch_c, 0, 57, 0
1, 788902, Note_off_c, 0, 35, 57
1, 788911, Control_c, 0, 64, 102
1, 788926, Control_c, 0, 64, 76
1, 788941, Control_c, 0, 64, 0
1, 789225, Note_on_c, 0, 57, 85
1, 789238, Control_c, 0, 64, 29
1, 789252, Control_c, 0, 64, 72
1, 789254, Note_off_c, 0, 56, 65
1, 789267, Control_c, 0, 64, 95
1, 789272, Note_off_c, 0, 36, 61
1, 789282, Control_c, 0, 64, 127
1, 789308, Note_off_c, 0, 57, 62
1, 789309, Note_off_c, 0, 48, 64
1, 789331, Note_off_c, 0, 65, 65
1, 789339, Note_off_c, 0, 63, 63
1, 789574, Note_on_c, 0, 51, 99
1, 789576, Note_on_c, 0, 63, 90
1, 789576, Note_on_c, 0, 77, 93
1, 789578, Note_on_c, 0, 65, 95
1, 789582, Note_on_c, 0, 75, 92
1, 789617, Note_off_c, 0, 63, 62
1, 789623, Note_off_c, 0, 65, 67
1, 789624, Note_off_c, 0, 51, 66
1, 789632, Note_off_c, 0, 77, 64
1, 789642, Note_off_c, 0, 75, 62
1, 789956, Control_c, 0, 64, 91
1, 789966, Note_on_c, 0, 70, 98
1, 789969, Note_on_c, 0, 34, 95
1, 789970, Note_on_c, 0, 46, 94
1, 789971, Control_c, 0, 64, 66
1, 789972, Note_on_c, 0, 58, 96
1, 789986, Control_c, 0, 64, 0
1, 790030, Control_c, 0, 64, 50
1, 790044, Control_c, 0, 64, 67
1, 790059, Control_c, 0, 64, 80
1, 790074, Control_c, 0, 64, 112
1, 790089, Control_c, 0, 64, 127
1, 790193, Note_off_c, 0, 46, 53
1, 790225, Note_off_c, 0, 58, 59
1, 790287, Note_off_c, 0, 34, 58
1, 790342, Note_off_c, 0, 70, 56
1, 790363, Control_c, 0, 64, 84
1, 790364, Note_on_c, 0, 71, 93
1, 790366, Note_on_c, 0, 35, 86
1, 790367, Note_on_c, 0, 47, 93
1, 790367, Note_on_c, 0, 59, 94
1, 790378, Control_c, 0, 64, 39
1, 790393, Control_c, 0, 64, 0
1, 790437, Control_c, 0, 64, 65
1, 790452, Control_c, 0, 64, 80
1, 790456, Note_off_c, 0, 59, 62
1, 790464, Note_off_c, 0, 47, 64
1, 790467, Control_c, 0, 64, 127
1, 790508, Note_off_c, 0, 35, 63
1, 790516, Note_off_c, 0, 71, 64
1, 790689, Control_c, 0, 64, 92
1, 790704, Control_c, 0, 64, 68
1, 790720, Control_c, 0, 64, 0
1, 790778, Note_on_c, 0, 43, 93
1, 790781, Note_on_c, 0, 31, 88
1, 790786, Note_on_c, 0, 74, 90
1, 790786, Note_on_c, 0, 79, 98
1, 790794, Note_on_c, 0, 67, 81
1, 790797, Note_on_c, 0, 65, 82
1, 790809, Control_c, 0, 64, 63
1, 790813, Note_off_c, 0, 31, 67
1, 790819, Note_off_c, 0, 65, 67
1, 790820, Note_off_c, 0, 43, 66
1, 790822, Note_off_c, 0, 74, 67
1, 790823, Control_c, 0, 64, 81
1, 790825, Note_off_c, 0, 67, 61
1, 790834, Note_off_c, 0, 79, 65
1, 790838, Control_c, 0, 64, 127
1, 791062, Note_on_c, 0, 74, 97
1, 791066, Note_on_c, 0, 55, 89
1, 791067, Note_on_c, 0, 67, 80
1, 791067, Note_on_c, 0, 71, 81
1, 791069, Note_on_c, 0, 65, 84
1, 791115, Note_off_c, 0, 55, 67
1, 791125, Note_off_c, 0, 65, 58
1, 791167, Note_off_c, 0, 74, 57
1, 791177, Note_off_c, 0, 67, 50
1, 791230, Control_c, 0, 64, 96
1, 791245, Control_c, 0, 64, 57
1, 791254, Note_off_c, 0, 71, 0
1, 791260, Control_c, 0, 64, 0
1, 791267, Note_on_c, 0, 71, 60
1, 791270, Note_on_c, 0, 74, 87
1, 791281, Note_on_c, 0, 67, 79
1, 791282, Note_on_c, 0, 55, 88
1, 791283, Note_on_c, 0, 65, 81
1, 791310, Note_off_c, 0, 65, 65
1, 791335, Control_c, 0, 64, 62
1, 791338, Note_off_c, 0, 74, 63
1, 791349, Control_c, 0, 64, 77
1, 791364, Control_c, 0, 64, 103
1, 791370, Note_off_c, 0, 67, 60
1, 791379, Control_c, 0, 64, 127
1, 791432, Note_off_c, 0, 55, 61
1, 791439, Note_on_c, 0, 72, 82
1, 791441, Note_on_c, 0, 67, 82
1, 791444, Note_on_c, 0, 60, 87
1, 791444, Note_on_c, 0, 75, 84
1, 791445, Note_on_c, 0, 63, 86
1, 791449, Note_on_c, 0, 48, 84
1, 791463, Note_off_c, 0, 71, 52
1, 791485, Note_off_c, 0, 48, 63
1, 791486, Note_off_c, 0, 60, 66
1, 791495, Note_off_c, 0, 63, 60
1, 791506, Note_off_c, 0, 67, 58
1, 791507, Note_off_c, 0, 75, 59
1, 791524, Note_off_c, 0, 72, 59
1, 791592, Note_on_c, 0, 63, 81
1, 791592, Note_on_c, 0, 72, 78
1, 791594, Note_on_c, 0, 75, 94
1, 791598, Note_on_c, 0, 60, 94
1, 791600, Note_on_c, 0, 67, 77
1, 791600, Note_on_c, 0, 48, 89
1, 791602, Control_c, 0, 64, 105
1, 791613, Note_off_c, 0, 63, 70
1, 791617, Control_c, 0, 64, 70
1, 791628, Note_off_c, 0, 67, 65
1, 791632, Control_c, 0, 64, 0
1, 791633, Note_on_c, 0, 64, 33
1, 791636, Note_off_c, 0, 60, 66
1, 791639, Note_off_c, 0, 48, 63
1, 791639, Note_off_c, 0, 72, 65
1, 791645, Note_off_c, 0, 75, 66
1, 791666, Note_off_c, 0, 64, 33
1, 791736, Note_on_c, 0, 58, 94
1, 791737, Note_on_c, 0, 46, 89
1, 791739, Note_on_c, 0, 65, 92
1, 791739, Note_on_c, 0, 74, 90
1, 791739, Note_on_c, 0, 77, 92
1, 791745, Note_on_c, 0, 70, 82
1, 791764, Note_off_c, 0, 65, 67
1, 791764, Note_off_c, 0, 70, 69
1, 791767, Note_off_c, 0, 58, 60
1, 791779, Note_off_c, 0, 46, 61
1, 791781, Note_off_c, 0, 74, 63
1, 791782, Note_off_c, 0, 77, 62
1, 791888, Note_on_c, 0, 58, 89
1, 791889, Note_on_c, 0, 77, 93
1, 791890, Control_c, 0, 64, 65
1, 791891, Note_on_c, 0, 46, 89
1, 791891, Note_on_c, 0, 65, 91
1, 791898, Note_on_c, 0, 70, 69
1, 791900, Note_on_c, 0, 74, 81
1, 791905, Control_c, 0, 64, 89
1, 791911, Note_off_c, 0, 58, 67
1, 791918, Note_on_c, 0, 69, 64
1, 791920, Control_c, 0, 64, 127
1, 791922, Note_off_c, 0, 74, 69
1, 791928, Note_off_c, 0, 70, 49
1, 791930, Note_off_c, 0, 46, 58
1, 791935, Note_off_c, 0, 65, 58
1, 791939, Note_off_c, 0, 69, 65
1, 791969, Note_off_c, 0, 77, 61
1, 792029, Note_on_c, 0, 67, 96
1, 792029, Note_on_c, 0, 79, 95
1, 792030, Note_on_c, 0, 51, 92
1, 792032, Note_on_c, 0, 39, 88
1, 792032, Note_on_c, 0, 75, 86
1, 792053, Note_off_c, 0, 51, 70
1, 792069, Note_off_c, 0, 67, 63
1, 792071, Note_off_c, 0, 39, 60
1, 792080, Note_off_c, 0, 75, 62
1, 792086, Note_off_c, 0, 79, 58
1, 792164, Note_on_c, 0, 67, 94
1, 792164, Note_on_c, 0, 79, 105
1, 792165, Note_on_c, 0, 39, 91
1, 792166, Note_on_c, 0, 51, 90
1, 792168, Note_on_c, 0, 75, 94
1, 792180, Note_off_c, 0, 67, 71
1, 792187, Note_off_c, 0, 51, 73
1, 792189, Note_off_c, 0, 39, 68
1, 792205, Note_off_c, 0, 75, 63
1, 792206, Note_off_c, 0, 79, 67
1, 792217, Control_c, 0, 64, 87
1, 792232, Control_c, 0, 64, 64
1, 792247, Control_c, 0, 64, 0
1, 792297, Note_on_c, 0, 52, 101
1, 792297, Note_on_c, 0, 84, 97
1, 792299, Note_on_c, 0, 40, 96
1, 792302, Note_on_c, 0, 72, 101
1, 792303, Note_on_c, 0, 79, 89
1, 792325, Note_off_c, 0, 52, 66
1, 792332, Note_off_c, 0, 40, 65
1, 792333, Note_on_c, 0, 74, 47
1, 792334, Note_off_c, 0, 74, 127
1, 792348, Note_off_c, 0, 72, 59
1, 792377, Note_off_c, 0, 84, 53
1, 792382, Note_off_c, 0, 79, 33
1, 792453, Note_on_c, 0, 52, 105
1, 792453, Note_on_c, 0, 72, 102
1, 792455, Note_on_c, 0, 84, 102
1, 792455, Control_c, 0, 64, 69
1, 792457, Note_on_c, 0, 40, 93
1, 792458, Note_on_c, 0, 79, 102
1, 792470, Control_c, 0, 64, 127
1, 792481, Note_off_c, 0, 40, 69
1, 792486, Note_off_c, 0, 52, 62
1, 792576, Poly_aftertouch_c, 0, 42, 0
1, 792603, Note_off_c, 0, 72, 53
1, 792622, Note_off_c, 0, 84, 52
1, 792634, Note_off_c, 0, 79, 31
1, 792745, Note_on_c, 0, 84, 95
1, 792749, Note_on_c, 0, 52, 84
1, 792754, Note_on_c, 0, 79, 79
1, 792756, Note_on_c, 0, 40, 78
1, 792757, Note_on_c, 0, 72, 79
1, 792762, Note_on_c, 0, 74, 78
1, 792772, Note_off_c, 0, 79, 72
1, 792777, Note_off_c, 0, 72, 72
1, 792780, Note_off_c, 0, 84, 66
1, 792783, Note_off_c, 0, 40, 68
1, 792783, Note_off_c, 0, 74, 71
1, 792788, Note_off_c, 0, 52, 59
1, 792788, Control_c, 0, 64, 94
1, 792803, Control_c, 0, 64, 66
1, 792818, Control_c, 0, 64, 0
1, 792888, Note_on_c, 0, 53, 85
1, 792891, Note_on_c, 0, 41, 85
1, 792891, Note_on_c, 0, 80, 90
1, 792894, Note_on_c, 0, 68, 89
1, 792904, Note_on_c, 0, 72, 69
1, 792910, Note_on_c, 0, 77, 64
1, 792912, Note_off_c, 0, 53, 71
1, 792917, Note_off_c, 0, 68, 63
1, 792921, Note_off_c, 0, 41, 66
1, 792925, Note_off_c, 0, 72, 66
1, 792929, Note_off_c, 0, 77, 63
1, 792945, Note_off_c, 0, 80, 61
1, 793019, Note_on_c, 0, 72, 68
1, 793025, Note_on_c, 0, 77, 68
1, 793025, Note_on_c, 0, 80, 87
1, 793027, Note_on_c, 0, 68, 83
1, 793031, Note_on_c, 0, 41, 85
1, 793034, Note_on_c, 0, 53, 79
1, 793040, Control_c, 0, 64, 79
1, 793055, Control_c, 0, 64, 127
1, 793080, Note_off_c, 0, 53, 63
1, 793101, Note_off_c, 0, 68, 61
1, 793130, Note_off_c, 0, 80, 59
1, 793138, Note_off_c, 0, 77, 53
1, 793168, Note_on_c, 0, 75, 79
1, 793171, Note_on_c, 0, 43, 81
1, 793171, Note_on_c, 0, 79, 80
1, 793174, Note_on_c, 0, 55, 76
1, 793176, Note_on_c, 0, 67, 74
1, 793201, Note_off_c, 0, 55, 67
1, 793201, Note_off_c, 0, 67, 67
1, 793204, Note_off_c, 0, 43, 66
1, 793210, Note_off_c, 0, 72, 63
1, 793215, Poly_aftertouch_c, 0, 77, 127
1, 793217, Note_off_c, 0, 79, 59
1, 793218, Control_c, 0, 64, 88
1, 793226, Note_off_c, 0, 41, 22
1, 793227, Note_off_c, 0, 75, 61
1, 793233, Control_c, 0, 64, 61
1, 793246, Poly_aftertouch_c, 0, 77, 0
1, 793248, Control_c, 0, 64, 0
1, 793296, Note_on_c, 0, 55, 74
1, 793300, Note_on_c, 0, 43, 77
1, 793305, Note_on_c, 0, 75, 79
1, 793308, Note_on_c, 0, 79, 89
1, 793311, Note_on_c, 0, 67, 75
1, 793311, Note_on_c, 0, 72, 71
1, 793339, Note_off_c, 0, 55, 67
1, 793341, Note_off_c, 0, 67, 67
1, 793341, Note_off_c, 0, 72, 69
1, 793342, Note_off_c, 0, 43, 66
1, 793346, Note_off_c, 0, 79, 58
1, 793359, Note_off_c, 0, 75, 63
1, 793445, Note_on_c, 0, 72, 77
1, 793446, Note_on_c, 0, 56, 83
1, 793446, Note_on_c, 0, 77, 85
1, 793449, Note_on_c, 0, 44, 80
1, 793452, Note_on_c, 0, 65, 75
1, 793467, Note_off_c, 0, 56, 71
1, 793474, Note_off_c, 0, 44, 66
1, 793475, Note_off_c, 0, 65, 70
1, 793484, Note_off_c, 0, 72, 63
1, 793489, Note_off_c, 0, 77, 61
1, 793566, Control_c, 0, 64, 61
1, 793576, Note_on_c, 0, 44, 73
1, 793579, Note_on_c, 0, 56, 74
1, 793581, Control_c, 0, 64, 85
1, 793588, Note_on_c, 0, 77, 87
1, 793592, Note_on_c, 0, 72, 77
1, 793596, Control_c, 0, 64, 127
1, 793600, Note_on_c, 0, 65, 58
1, 793605, Note_off_c, 0, 56, 67
1, 793617, Note_off_c, 0, 44, 64
1, 793624, Note_off_c, 0, 65, 64
1, 793655, Note_off_c, 0, 72, 60
1, 793699, Note_off_c, 0, 77, 39
1, 793713, Note_on_c, 0, 75, 81
1, 793714, Note_on_c, 0, 57, 79
1, 793717, Note_on_c, 0, 45, 77
1, 793729, Note_on_c, 0, 63, 74
1, 793741, Note_off_c, 0, 57, 66
1, 793750, Note_off_c, 0, 45, 67
1, 793759, Note_off_c, 0, 63, 63
1, 793773, Control_c, 0, 64, 90
1, 793776, Note_off_c, 0, 75, 63
1, 793788, Control_c, 0, 64, 67
1, 793803, Control_c, 0, 64, 0
1, 793843, Note_on_c, 0, 73, 89
1, 793847, Note_on_c, 0, 57, 81
1, 793850, Note_on_c, 0, 63, 78
1, 793853, Note_on_c, 0, 45, 78
1, 793856, Note_on_c, 0, 75, 76
1, 793875, Note_off_c, 0, 63, 66
1, 793876, Note_off_c, 0, 57, 66
1, 793876, Note_off_c, 0, 75, 70
1, 793880, Note_off_c, 0, 73, 64
1, 793884, Note_off_c, 0, 45, 67
1, 793981, Note_on_c, 0, 62, 77
1, 793982, Note_on_c, 0, 74, 84
1, 793982, Note_on_c, 0, 70, 75
1, 793984, Note_on_c, 0, 58, 81
1, 793987, Note_on_c, 0, 46, 77
1, 794003, Note_off_c, 0, 62, 68
1, 794005, Note_off_c, 0, 58, 70
1, 794009, Note_off_c, 0, 70, 63
1, 794014, Note_off_c, 0, 46, 65
1, 794018, Note_off_c, 0, 74, 59
1, 794128, Note_on_c, 0, 58, 72
1, 794129, Note_on_c, 0, 46, 62
1, 794133, Note_on_c, 0, 74, 93
1, 794137, Control_c, 0, 64, 75
1, 794140, Note_on_c, 0, 62, 79
1, 794143, Note_on_c, 0, 70, 75
1, 794152, Note_off_c, 0, 58, 66
1, 794152, Control_c, 0, 64, 112
1, 794155, Note_off_c, 0, 46, 64
1, 794166, Control_c, 0, 64, 127
1, 794220, Note_off_c, 0, 62, 50
1, 794233, Note_off_c, 0, 70, 61
1, 794277, Note_on_c, 0, 72, 69
1, 794278, Note_on_c, 0, 68, 75
1, 794301, Note_off_c, 0, 74, 60
1, 794309, Note_off_c, 0, 68, 61
1, 794315, Note_off_c, 0, 72, 60
1, 794396, Note_on_c, 0, 58, 79
1, 794399, Note_on_c, 0, 46, 78
1, 794403, Note_on_c, 0, 70, 89
1, 794403, Note_on_c, 0, 74, 94
1, 794406, Note_on_c, 0, 67, 80
1, 794426, Note_off_c, 0, 58, 60
1, 794428, Note_off_c, 0, 67, 67
1, 794434, Note_off_c, 0, 46, 65
1, 794441, Note_off_c, 0, 74, 58
1, 794444, Note_off_c, 0, 70, 62
1, 794478, Control_c, 0, 64, 82
1, 794492, Control_c, 0, 64, 41
1, 794507, Control_c, 0, 64, 0
1, 794534, Note_on_c, 0, 74, 97
1, 794535, Note_on_c, 0, 59, 86
1, 794537, Note_on_c, 0, 47, 78
1, 794537, Note_on_c, 0, 65, 87
1, 794537, Note_on_c, 0, 68, 90
1, 794559, Note_off_c, 0, 65, 67
1, 794560, Note_off_c, 0, 59, 63
1, 794569, Note_off_c, 0, 47, 67
1, 794575, Note_off_c, 0, 68, 58
1, 794578, Note_off_c, 0, 74, 62
1, 794670, Control_c, 0, 64, 77
1, 794673, Note_on_c, 0, 47, 86
1, 794678, Note_on_c, 0, 59, 77
1, 794679, Note_on_c, 0, 74, 98
1, 794682, Note_on_c, 0, 65, 82
1, 794682, Note_on_c, 0, 68, 88
1, 794685, Control_c, 0, 64, 127
1, 794716, Note_off_c, 0, 65, 62
1, 794726, Note_off_c, 0, 74, 64
1, 794727, Note_off_c, 0, 59, 61
1, 794727, Note_off_c, 0, 68, 63
1, 794805, Note_on_c, 0, 75, 87
1, 794806, Note_on_c, 0, 63, 88
1, 794808, Note_on_c, 0, 48, 87
1, 794808, Note_on_c, 0, 60, 87
1, 794811, Note_on_c, 0, 67, 86
1, 794813, Note_on_c, 0, 72, 67
1, 794820, Note_on_c, 0, 66, 29
1, 794821, Note_on_c, 0, 71, 71
1, 794834, Note_off_c, 0, 47, 64
1, 794855, Note_off_c, 0, 60, 61
1, 794855, Note_off_c, 0, 63, 62
1, 794855, Note_off_c, 0, 71, 66
1, 794861, Note_off_c, 0, 66, 53
1, 794861, Note_off_c, 0, 75, 61
1, 794863, Note_off_c, 0, 48, 62
1, 794867, Note_off_c, 0, 72, 64
1, 794869, Note_off_c, 0, 67, 58
1, 794915, Control_c, 0, 64, 100
1, 794931, Control_c, 0, 64, 67
1, 794939, Note_on_c, 0, 63, 92
1, 794940, Note_on_c, 0, 48, 90
1, 794940, Note_on_c, 0, 60, 97
1, 794940, Note_on_c, 0, 75, 89
1, 794946, Control_c, 0, 64, 0
1, 794948, Note_on_c, 0, 67, 75
1, 794950, Note_on_c, 0, 72, 75
1, 794963, Note_off_c, 0, 63, 69
1, 794974, Note_off_c, 0, 60, 63
1, 794974, Note_off_c, 0, 67, 67
1, 794975, Note_off_c, 0, 48, 66
1, 794978, Note_off_c, 0, 72, 64
1, 794994, Note_off_c, 0, 75, 64
1, 795067, Note_on_c, 0, 58, 95
1, 795069, Note_on_c, 0, 46, 88
1, 795069, Note_on_c, 0, 65, 91
1, 795070, Note_on_c, 0, 77, 86
1, 795070, Note_on_c, 0, 74, 90
1, 795074, Note_on_c, 0, 70, 82
1, 795089, Note_off_c, 0, 58, 69
1, 795091, Note_off_c, 0, 65, 68
1, 795092, Note_off_c, 0, 46, 69
1, 795095, Note_off_c, 0, 70, 68
1, 795107, Note_off_c, 0, 74, 63
1, 795110, Note_off_c, 0, 77, 63
1, 795183, Control_c, 0, 64, 69
1, 795188, Note_on_c, 0, 58, 95
1, 795194, Note_on_c, 0, 46, 92
1, 795195, Note_on_c, 0, 70, 94
1, 795195, Note_on_c, 0, 77, 99
1, 795197, Note_on_c, 0, 65, 86
1, 795198, Control_c, 0, 64, 102
1, 795208, Note_on_c, 0, 74, 79
1, 795213, Control_c, 0, 64, 127
1, 795215, Note_off_c, 0, 58, 62
1, 795216, Note_off_c, 0, 65, 72
1, 795225, Note_off_c, 0, 74, 70
1, 795228, Note_off_c, 0, 46, 62
1, 795234, Note_off_c, 0, 70, 64
1, 795240, Note_off_c, 0, 77, 62
1, 795320, Note_on_c, 0, 51, 85
1, 795328, Note_on_c, 0, 75, 93
1, 795328, Note_on_c, 0, 79, 95
1, 795329, Note_on_c, 0, 67, 91
1, 795331, Note_on_c, 0, 39, 68
1, 795338, Note_on_c, 0, 40, 57
1, 795342, Note_off_c, 0, 51, 69
1, 795349, Note_off_c, 0, 67, 69
1, 795359, Note_off_c, 0, 39, 56
1, 795360, Note_off_c, 0, 79, 50
1, 795365, Note_off_c, 0, 40, 58
1, 795368, Note_off_c, 0, 75, 58
1, 795442, Note_on_c, 0, 51, 21
1, 795445, Note_on_c, 0, 39, 83
1, 795450, Note_on_c, 0, 79, 100
1, 795453, Note_on_c, 0, 67, 89
1, 795457, Note_on_c, 0, 75, 91
1, 795468, Note_off_c, 0, 67, 75
1, 795473, Note_off_c, 0, 39, 64
1, 795474, Note_off_c, 0, 75, 68
1, 795481, Note_off_c, 0, 51, 65
1, 795493, Note_off_c, 0, 79, 66
1, 795578, Note_on_c, 0, 52, 97
1, 795588, Note_on_c, 0, 40, 90
1, 795591, Control_c, 0, 64, 90
1, 795597, Note_on_c, 0, 84, 102
1, 795600, Note_on_c, 0, 72, 101
1, 795603, Note_on_c, 0, 79, 89
1, 795606, Control_c, 0, 64, 64
1, 795621, Control_c, 0, 64, 0
1, 795627, Note_off_c, 0, 52, 63
1, 795636, Note_off_c, 0, 40, 64
1, 795645, Note_off_c, 0, 72, 55
1, 795658, Note_off_c, 0, 79, 0
1, 795677, Note_on_c, 0, 79, 48
1, 795680, Control_c, 0, 64, 57
1, 795684, Note_on_c, 0, 52, 98
1, 795685, Note_on_c, 0, 40, 84
1, 795693, Control_c, 0, 64, 79
1, 795708, Control_c, 0, 64, 127
1, 795724, Note_off_c, 0, 84, 53
1, 795738, Note_off_c, 0, 79, 54
1, 795743, Note_off_c, 0, 40, 63
1, 795759, Note_off_c, 0, 52, 59
1, 795833, Note_on_c, 0, 84, 103
1, 795836, Note_on_c, 0, 79, 103
1, 795839, Note_on_c, 0, 72, 94
1, 795841, Note_on_c, 0, 60, 99
1, 795856, Note_off_c, 0, 60, 76
1, 796060, Note_off_c, 0, 72, 56
1, 796063, Note_off_c, 0, 84, 51
1, 796094, Note_off_c, 0, 79, 55
1, 796152, Note_on_c, 0, 48, 93
1, 796153, Note_on_c, 0, 52, 91
1, 796154, Note_on_c, 0, 40, 80
1, 796156, Note_on_c, 0, 84, 104
1, 796157, Note_on_c, 0, 79, 102
1, 796158, Note_on_c, 0, 72, 93
1, 796190, Note_off_c, 0, 72, 67
1, 796196, Note_off_c, 0, 40, 62
1, 796196, Note_off_c, 0, 48, 63
1, 796199, Note_off_c, 0, 79, 65
1, 796200, Note_off_c, 0, 52, 61
1, 796205, Note_off_c, 0, 84, 61
1, 796380, Note_on_c, 0, 48, 92
1, 796383, Control_c, 0, 64, 75
1, 796384, Note_on_c, 0, 53, 85
1, 796390, Note_on_c, 0, 80, 94
1, 796390, Note_on_c, 0, 72, 95
1, 796392, Note_on_c, 0, 84, 97
1, 796393, Note_on_c, 0, 41, 70
1, 796398, Control_c, 0, 64, 0
1, 796404, Note_off_c, 0, 48, 70
1, 796406, Note_off_c, 0, 80, 70
1, 796408, Note_off_c, 0, 53, 72
1, 796409, Note_off_c, 0, 72, 69
1, 796410, Note_off_c, 0, 84, 68
1, 796417, Note_off_c, 0, 41, 60
1, 796442, Control_c, 0, 64, 66
1, 796453, Note_on_c, 0, 53, 87
1, 796453, Note_on_c, 0, 80, 94
1, 796453, Note_on_c, 0, 84, 86
1, 796455, Note_on_c, 0, 48, 89
1, 796456, Note_on_c, 0, 41, 82
1, 796457, Control_c, 0, 64, 83
1, 796459, Note_on_c, 0, 72, 85
1, 796472, Control_c, 0, 64, 127
1, 796497, Note_off_c, 0, 48, 62
1, 796500, Note_off_c, 0, 53, 62
1, 796503, Note_off_c, 0, 41, 60
1, 796534, Note_off_c, 0, 72, 57
1, 796558, Note_off_c, 0, 80, 60
1, 796589, Note_on_c, 0, 55, 94
1, 796590, Note_on_c, 0, 79, 93
1, 796593, Note_on_c, 0, 43, 86
1, 796601, Note_on_c, 0, 72, 70
1, 796617, Note_off_c, 0, 84, 62
1, 796626, Note_off_c, 0, 55, 67
1, 796626, Note_off_c, 0, 72, 61
1, 796628, Note_off_c, 0, 43, 65
1, 796654, Note_off_c, 0, 79, 61
1, 796709, Control_c, 0, 64, 86
1, 796712, Note_on_c, 0, 56, 98
1, 796715, Note_on_c, 0, 44, 86
1, 796718, Note_on_c, 0, 48, 85
1, 796721, Note_on_c, 0, 84, 86
1, 796722, Note_on_c, 0, 72, 85
1, 796722, Note_on_c, 0, 77, 90
1, 796724, Control_c, 0, 64, 50
1, 796739, Control_c, 0, 64, 0
1, 796745, Note_off_c, 0, 48, 66
1, 796751, Note_off_c, 0, 44, 63
1, 796754, Note_off_c, 0, 77, 64
1, 796757, Note_off_c, 0, 72, 61
1, 796757, Note_off_c, 0, 56, 62
1, 796761, Note_off_c, 0, 84, 62
1, 796840, Note_on_c, 0, 57, 91
1, 796846, Note_on_c, 0, 45, 85
1, 796846, Note_on_c, 0, 72, 88
1, 796846, Note_on_c, 0, 84, 87
1, 796858, Note_on_c, 0, 75, 75
1, 796864, Note_off_c, 0, 84, 69
1, 796867, Note_off_c, 0, 72, 67
1, 796868, Note_off_c, 0, 57, 66
1, 796872, Note_off_c, 0, 45, 69
1, 796882, Note_off_c, 0, 75, 62
1, 796988, Note_on_c, 0, 58, 89
1, 796989, Note_on_c, 0, 46, 88
1, 796990, Control_c, 0, 64, 67
1, 796991, Note_on_c, 0, 82, 98
1, 796993, Note_on_c, 0, 74, 91
1, 796995, Note_on_c, 0, 70, 85
1, 797004, Note_off_c, 0, 58, 73
1, 797004, Note_off_c, 0, 82, 76
1, 797004, Control_c, 0, 64, 85
1, 797010, Note_off_c, 0, 74, 75
1, 797012, Note_off_c, 0, 70, 71
1, 797013, Note_off_c, 0, 46, 67
1, 797019, Control_c, 0, 64, 127
1, 797247, Note_on_c, 0, 74, 92
1, 797249, Note_on_c, 0, 58, 82
1, 797249, Note_on_c, 0, 65, 82
1, 797249, Note_on_c, 0, 68, 85
1, 797249, Note_on_c, 0, 70, 83
1, 797250, Control_c, 0, 64, 84
1, 797264, Note_off_c, 0, 58, 74
1, 797265, Note_off_c, 0, 70, 74
1, 797265, Control_c, 0, 64, 62
1, 797269, Note_off_c, 0, 68, 71
1, 797270, Note_off_c, 0, 65, 71
1, 797280, Control_c, 0, 64, 0
1, 797281, Note_off_c, 0, 74, 57
1, 797302, Note_on_c, 0, 74, 85
1, 797309, Note_on_c, 0, 65, 87
1, 797310, Note_on_c, 0, 58, 90
1, 797312, Note_on_c, 0, 70, 89
1, 797318, Note_on_c, 0, 68, 68
1, 797324, Control_c, 0, 64, 54
1, 797339, Control_c, 0, 64, 70
1, 797354, Control_c, 0, 64, 84
1, 797369, Control_c, 0, 64, 127
1, 797378, Note_off_c, 0, 68, 0
1, 797416, Poly_aftertouch_c, 0, 68, 127
1, 797423, Note_off_c, 0, 65, 61
1, 797459, Poly_aftertouch_c, 0, 68, 0
1, 797591, Control_c, 0, 67, 8
1, 797606, Control_c, 0, 67, 8
1, 797621, Control_c, 0, 67, 9
1, 797635, Control_c, 0, 64, 106
1, 797650, Control_c, 0, 64, 74
1, 797651, Note_off_c, 0, 58, 56
1, 797657, Note_on_c, 0, 75, 81
1, 797658, Note_on_c, 0, 63, 84
1, 797660, Note_on_c, 0, 67, 79
1, 797661, Note_on_c, 0, 51, 83
1, 797665, Control_c, 0, 64, 0
1, 797680, Control_c, 0, 67, 9
1, 797687, Note_off_c, 0, 74, 59
1, 797691, Note_off_c, 0, 70, 63
1, 797709, Control_c, 0, 64, 54
1, 797709, Control_c, 0, 67, 10
1, 797712, Note_off_c, 0, 51, 65
1, 797713, Note_off_c, 0, 63, 63
1, 797714, Note_off_c, 0, 67, 63
1, 797724, Control_c, 0, 64, 70
1, 797724, Control_c, 0, 67, 10
1, 797739, Control_c, 0, 64, 83
1, 797739, Control_c, 0, 67, 11
1, 797747, Note_off_c, 0, 75, 65
1, 797754, Control_c, 0, 64, 127
1, 797798, Control_c, 0, 67, 12
1, 797813, Control_c, 0, 67, 13
1, 797835, Control_c, 0, 67, 15
1, 797850, Control_c, 0, 67, 19
1, 797865, Control_c, 0, 67, 23
1, 797880, Control_c, 0, 67, 25
1, 797895, Control_c, 0, 67, 27
1, 797940, Control_c, 0, 64, 101
1, 797955, Control_c, 0, 64, 75
1, 797955, Control_c, 0, 67, 27
1, 797970, Control_c, 0, 64, 19
1, 797985, Control_c, 0, 64, 0
1, 797985, Control_c, 0, 67, 28
1, 798000, Control_c, 0, 67, 28
1, 798015, Control_c, 0, 67, 30
1, 798027, Note_on_c, 0, 82, 71
1, 798030, Control_c, 0, 67, 32
1, 798042, Note_on_c, 0, 73, 55
1, 798045, Control_c, 0, 64, 59
1, 798045, Control_c, 0, 67, 33
1, 798054, Note_on_c, 0, 63, 49
1, 798054, Note_on_c, 0, 67, 52
1, 798059, Control_c, 0, 64, 70
1, 798059, Control_c, 0, 67, 35
1, 798061, Note_on_c, 0, 76, 48
1, 798074, Control_c, 0, 64, 81
1, 798074, Control_c, 0, 67, 37
1, 798089, Control_c, 0, 64, 102
1, 798089, Control_c, 0, 67, 39
1, 798103, Note_off_c, 0, 67, 55
1, 798104, Control_c, 0, 64, 127
1, 798104, Control_c, 0, 67, 42
1, 798116, Note_off_c, 0, 73, 54
1, 798119, Control_c, 0, 67, 44
1, 798122, Note_off_c, 0, 63, 51
1, 798125, Note_off_c, 0, 76, 53
1, 798125, Note_off_c, 0, 82, 58
1, 798133, Control_c, 0, 67, 46
1, 798148, Control_c, 0, 67, 48
1, 798163, Control_c, 0, 67, 48
1, 798177, Control_c, 0, 67, 49
1, 798192, Control_c, 0, 67, 50
1, 798207, Control_c, 0, 67, 52
1, 798209, Note_on_c, 0, 76, 60
1, 798211, Note_on_c, 0, 67, 58
1, 798214, Note_on_c, 0, 82, 57
1, 798220, Note_on_c, 0, 73, 53
1, 798222, Control_c, 0, 67, 54
1, 798225, Note_on_c, 0, 63, 42
1, 798237, Control_c, 0, 67, 56
1, 798247, Note_off_c, 0, 67, 58
1, 798247, Note_off_c, 0, 76, 59
1, 798250, Note_off_c, 0, 82, 53
1, 798252, Control_c, 0, 67, 59
1, 798256, Note_off_c, 0, 73, 50
1, 798258, Note_off_c, 0, 63, 53
1, 798266, Control_c, 0, 67, 62
1, 798281, Control_c, 0, 67, 65
1, 798296, Control_c, 0, 67, 68
1, 798311, Control_c, 0, 67, 71
1, 798325, Control_c, 0, 67, 73
1, 798336, Note_on_c, 0, 82, 76
1, 798340, Control_c, 0, 67, 75
1, 798343, Note_on_c, 0, 63, 58
1, 798355, Control_c, 0, 67, 76
1, 798358, Note_on_c, 0, 76, 62
1, 798359, Note_on_c, 0, 67, 59
1, 798370, Control_c, 0, 67, 77
1, 798380, Note_off_c, 0, 76, 66
1, 798384, Control_c, 0, 67, 78
1, 798387, Note_off_c, 0, 67, 64
1, 798465, Note_off_c, 0, 63, 0
1, 798473, Note_on_c, 0, 80, 75
1, 798474, Note_on_c, 0, 75, 75
1, 798477, Note_on_c, 0, 56, 53
1, 798484, Note_off_c, 0, 82, 62
1, 798485, Note_on_c, 0, 63, 27
1, 798492, Note_on_c, 0, 68, 52
1, 798513, Note_off_c, 0, 68, 61
1, 798520, Note_off_c, 0, 80, 62
1, 798527, Note_off_c, 0, 75, 62
1, 798533, Control_c, 0, 64, 111
1, 798536, Note_off_c, 0, 63, 47
1, 798536, Note_off_c, 0, 56, 50
1, 798548, Control_c, 0, 64, 90
1, 798563, Control_c, 0, 64, 70
1, 798584, Control_c, 0, 64, 27
1, 798584, Control_c, 0, 67, 78
1, 798594, Note_on_c, 0, 80, 74
1, 798599, Control_c, 0, 64, 0
1, 798605, Note_on_c, 0, 79, 87
1, 798608, Note_on_c, 0, 70, 78
1, 798615, Note_on_c, 0, 61, 68
1, 798619, Note_on_c, 0, 65, 62
1, 798634, Note_off_c, 0, 70, 64
1, 798649, Note_off_c, 0, 65, 65
1, 798649, Note_off_c, 0, 61, 62
1, 798649, Note_off_c, 0, 80, 61
1, 798659, Note_off_c, 0, 79, 64
1, 798674, Control_c, 0, 67, 79
1, 798730, Note_on_c, 0, 80, 76
1, 798734, Control_c, 0, 67, 79
1, 798737, Note_on_c, 0, 70, 73
1, 798740, Note_on_c, 0, 79, 78
1, 798741, Note_on_c, 0, 65, 64
1, 798746, Note_on_c, 0, 61, 60
1, 798749, Control_c, 0, 67, 80
1, 798763, Note_off_c, 0, 70, 65
1, 798771, Note_off_c, 0, 65, 65
1, 798778, Note_off_c, 0, 80, 57
1, 798778, Control_c, 0, 67, 80
1, 798781, Note_off_c, 0, 61, 61
1, 798785, Note_off_c, 0, 79, 58
1, 798793, Control_c, 0, 67, 81
1, 798823, Control_c, 0, 67, 81
1, 798870, Note_on_c, 0, 80, 69
1, 798875, Note_on_c, 0, 65, 58
1, 798878, Note_on_c, 0, 61, 60
1, 798884, Note_on_c, 0, 79, 74
1, 798891, Note_on_c, 0, 70, 53
1, 798912, Control_c, 0, 64, 56
1, 798927, Control_c, 0, 64, 68
1, 798942, Control_c, 0, 64, 78
1, 798956, Control_c, 0, 64, 89
1, 798956, Control_c, 0, 67, 81
1, 798957, Note_off_c, 0, 65, 58
1, 798966, Note_off_c, 0, 61, 56
1, 798971, Control_c, 0, 64, 99
1, 798983, Note_off_c, 0, 79, 62
1, 798986, Control_c, 0, 64, 101
1, 798986, Control_c, 0, 67, 80
1, 798987, Note_off_c, 0, 80, 38
1, 798998, Note_on_c, 0, 72, 76
1, 799000, Control_c, 0, 64, 97
1, 799006, Note_on_c, 0, 64, 59
1, 799007, Note_on_c, 0, 60, 56
1, 799015, Control_c, 0, 64, 83
1, 799030, Control_c, 0, 64, 68
1, 799038, Note_off_c, 0, 60, 65
1, 799040, Note_off_c, 0, 64, 64
1, 799041, Note_off_c, 0, 70, 48
1, 799045, Control_c, 0, 64, 0
1, 799065, Note_off_c, 0, 72, 58
1, 799074, Control_c, 0, 67, 80
1, 799136, Note_on_c, 0, 60, 50
1, 799148, Control_c, 0, 67, 79
1, 799150, Note_on_c, 0, 72, 65
1, 799153, Note_on_c, 0, 70, 43
1, 799163, Control_c, 0, 64, 63
1, 799163, Control_c, 0, 67, 79
1, 799178, Control_c, 0, 64, 72
1, 799182, Note_off_c, 0, 70, 57
1, 799193, Control_c, 0, 64, 82
1, 799193, Control_c, 0, 67, 78
1, 799207, Control_c, 0, 64, 96
1, 799222, Control_c, 0, 64, 112
1, 799222, Control_c, 0, 67, 78
1, 799223, Note_off_c, 0, 60, 63
1, 799232, Poly_aftertouch_c, 0, 64, 0
1, 799237, Control_c, 0, 64, 116
1, 799252, Control_c, 0, 64, 116
1, 799267, Control_c, 0, 64, 115
1, 799268, Note_off_c, 0, 72, 62
1, 799270, Note_on_c, 0, 77, 71
1, 799275, Note_on_c, 0, 65, 56
1, 799276, Note_on_c, 0, 53, 65
1, 799282, Control_c, 0, 64, 103
1, 799284, Note_on_c, 0, 68, 57
1, 799297, Control_c, 0, 64, 86
1, 799299, Note_off_c, 0, 65, 62
1, 799305, Note_off_c, 0, 53, 67
1, 799311, Control_c, 0, 64, 69
1, 799314, Note_off_c, 0, 68, 62
1, 799317, Note_off_c, 0, 77, 53
1, 799334, Control_c, 0, 64, 0
1, 799407, Control_c, 0, 67, 77
1, 799413, Note_on_c, 0, 68, 60
1, 799416, Note_on_c, 0, 53, 51
1, 799422, Note_on_c, 0, 77, 68
1, 799422, Note_on_c, 0, 65, 47
1, 799422, Control_c, 0, 64, 58
1, 799437, Control_c, 0, 64, 73
1, 799437, Control_c, 0, 67, 76
1, 799452, Note_off_c, 0, 53, 65
1, 799452, Control_c, 0, 64, 91
1, 799452, Control_c, 0, 67, 76
1, 799457, Note_off_c, 0, 65, 65
1, 799467, Control_c, 0, 64, 127
1, 799467, Control_c, 0, 67, 74
1, 799481, Control_c, 0, 67, 73
1, 799496, Control_c, 0, 67, 72
1, 799498, Note_off_c, 0, 68, 55
1, 799512, Control_c, 0, 67, 72
1, 799527, Control_c, 0, 67, 71
1, 799542, Control_c, 0, 67, 70
1, 799555, Note_on_c, 0, 69, 67
1, 799557, Control_c, 0, 67, 70
1, 799586, Control_c, 0, 67, 70
1, 799587, Note_off_c, 0, 69, 60
1, 799601, Control_c, 0, 67, 71
1, 799675, Control_c, 0, 64, 87
1, 799683, Note_on_c, 0, 69, 66
1, 799683, Note_on_c, 0, 72, 71
1, 799689, Note_on_c, 0, 65, 61
1, 799690, Note_on_c, 0, 63, 61
1, 799690, Control_c, 0, 64, 67
1, 799690, Control_c, 0, 67, 71
1, 799705, Control_c, 0, 64, 0
1, 799705, Control_c, 0, 67, 72
1, 799711, Note_off_c, 0, 69, 62
1, 799715, Note_off_c, 0, 77, 28
1, 799717, Note_off_c, 0, 72, 59
1, 799720, Note_off_c, 0, 63, 64
1, 799720, Note_off_c, 0, 65, 65
1, 799720, Control_c, 0, 67, 72
1, 799735, Control_c, 0, 67, 73
1, 799765, Control_c, 0, 67, 73
1, 799794, Control_c, 0, 67, 74
1, 799811, Note_on_c, 0, 69, 59
1, 799812, Note_on_c, 0, 72, 72
1, 799813, Note_on_c, 0, 63, 55
1, 799820, Note_on_c, 0, 65, 50
1, 799839, Note_off_c, 0, 69, 63
1, 799845, Note_off_c, 0, 72, 56
1, 799848, Note_off_c, 0, 63, 63
1, 799851, Note_off_c, 0, 65, 59
1, 799868, Control_c, 0, 67, 74
1, 799942, Control_c, 0, 64, 60
1, 799943, Note_on_c, 0, 69, 45
1, 799944, Note_on_c, 0, 63, 51
1, 799949, Note_on_c, 0, 72, 58
1, 799957, Note_on_c, 0, 65, 40
1, 799957, Control_c, 0, 64, 71
1, 799957, Control_c, 0, 67, 74
1, 799971, Control_c, 0, 64, 84
1, 799986, Control_c, 0, 64, 118
1, 800001, Control_c, 0, 64, 127
1, 800016, Control_c, 0, 67, 73
1, 800030, Control_c, 0, 67, 73
1, 800060, Control_c, 0, 67, 72
1, 800089, Note_on_c, 0, 62, 58
1, 800092, Note_on_c, 0, 70, 60
1, 800098, Note_off_c, 0, 69, 59
1, 800103, Note_off_c, 0, 72, 59
1, 800110, Note_off_c, 0, 63, 57
1, 800119, Note_off_c, 0, 65, 56
1, 800122, Note_off_c, 0, 62, 64
1, 800137, Note_off_c, 0, 70, 54
1, 800156, Control_c, 0, 64, 96
1, 800170, Control_c, 0, 64, 76
1, 800185, Control_c, 0, 64, 53
1, 800200, Control_c, 0, 64, 0
1, 800200, Control_c, 0, 67, 72
1, 800206, Note_on_c, 0, 75, 75
1, 800209, Note_on_c, 0, 69, 66
1, 800214, Note_on_c, 0, 60, 59
1, 800249, Note_off_c, 0, 69, 58
1, 800250, Note_off_c, 0, 60, 62
1, 800258, Note_off_c, 0, 75, 59
1, 800289, Control_c, 0, 67, 72
1, 800305, Control_c, 0, 67, 73
1, 800331, Note_on_c, 0, 75, 76
1, 800334, Control_c, 0, 67, 73
1, 800335, Note_on_c, 0, 65, 42
1, 800337, Note_on_c, 0, 60, 65
1, 800343, Note_on_c, 0, 69, 66
1, 800370, Note_off_c, 0, 60, 64
1, 800371, Note_off_c, 0, 69, 63
1, 800373, Note_off_c, 0, 65, 61
1, 800391, Note_off_c, 0, 75, 60
1, 800394, Control_c, 0, 67, 73
1, 800408, Control_c, 0, 64, 53
1, 800408, Control_c, 0, 67, 72
1, 800423, Control_c, 0, 64, 66
1, 800423, Control_c, 0, 67, 71
1, 800438, Control_c, 0, 64, 73
1, 800438, Control_c, 0, 67, 70
1, 800453, Control_c, 0, 64, 82
1, 800453, Control_c, 0, 67, 69
1, 800462, Note_on_c, 0, 75, 71
1, 800467, Note_on_c, 0, 60, 57
1, 800468, Control_c, 0, 64, 100
1, 800468, Control_c, 0, 67, 67
1, 800469, Note_on_c, 0, 65, 52
1, 800472, Note_on_c, 0, 69, 64
1, 800483, Control_c, 0, 64, 127
1, 800483, Control_c, 0, 67, 62
1, 800498, Control_c, 0, 67, 54
1, 800513, Control_c, 0, 67, 46
1, 800527, Control_c, 0, 67, 37
1, 800542, Control_c, 0, 67, 28
1, 800557, Control_c, 0, 67, 20
1, 800571, Control_c, 0, 67, 15
1, 800572, Note_off_c, 0, 60, 61
1, 800577, Note_on_c, 0, 74, 83
1, 800579, Note_on_c, 0, 58, 57
1, 800586, Control_c, 0, 67, 8
1, 800587, Note_on_c, 0, 70, 71
1, 800594, Note_off_c, 0, 69, 61
1, 800601, Control_c, 0, 67, 0
1, 800602, Note_off_c, 0, 75, 57
1, 800616, Note_off_c, 0, 58, 62
1, 800629, Note_off_c, 0, 65, 59
1, 800635, Note_off_c, 0, 70, 60
1, 800638, Note_off_c, 0, 74, 64
1, 800709, Note_on_c, 0, 58, 70
1, 800715, Note_on_c, 0, 74, 88
1, 800718, Note_on_c, 0, 65, 64
1, 800719, Control_c, 0, 64, 87
1, 800730, Note_on_c, 0, 70, 71
1, 800734, Control_c, 0, 64, 66
1, 800749, Control_c, 0, 64, 0
1, 800778, Control_c, 0, 64, 35
1, 800793, Control_c, 0, 64, 65
1, 800800, Note_off_c, 0, 65, 62
1, 800808, Control_c, 0, 64, 75
1, 800831, Control_c, 0, 64, 93
1, 800840, Note_on_c, 0, 77, 89
1, 800841, Note_on_c, 0, 56, 71
1, 800846, Control_c, 0, 64, 127
1, 800847, Note_on_c, 0, 62, 64
1, 800855, Note_on_c, 0, 71, 74
1, 800859, Note_off_c, 0, 58, 61
1, 800862, Note_off_c, 0, 74, 63
1, 800865, Note_off_c, 0, 70, 62
1, 800878, Note_off_c, 0, 71, 69
1, 800888, Note_off_c, 0, 62, 58
1, 800890, Note_off_c, 0, 56, 63
1, 800903, Note_off_c, 0, 77, 62
1, 800965, Control_c, 0, 64, 95
1, 800969, Note_on_c, 0, 56, 78
1, 800979, Control_c, 0, 64, 68
1, 800980, Note_on_c, 0, 77, 92
1, 800983, Note_on_c, 0, 71, 82
1, 800985, Note_on_c, 0, 62, 63
1, 800994, Control_c, 0, 64, 0
1, 801034, Note_off_c, 0, 62, 57
1, 801039, Control_c, 0, 64, 63
1, 801053, Control_c, 0, 64, 74
1, 801068, Control_c, 0, 64, 98
1, 801073, Note_off_c, 0, 56, 64
1, 801083, Control_c, 0, 64, 127
1, 801095, Note_on_c, 0, 63, 82
1, 801106, Note_on_c, 0, 70, 88
1, 801106, Note_off_c, 0, 71, 61
1, 801137, Note_off_c, 0, 77, 63
1, 801152, Note_off_c, 0, 63, 60
1, 801160, Note_off_c, 0, 70, 63
1, 801216, Note_on_c, 0, 55, 72
1, 801219, Note_on_c, 0, 75, 91
1, 801228, Note_on_c, 0, 63, 77
1, 801230, Note_on_c, 0, 70, 83
1, 801258, Note_off_c, 0, 70, 60
1, 801263, Note_off_c, 0, 63, 58
1, 801278, Note_off_c, 0, 55, 64
1, 801294, Note_off_c, 0, 75, 61
1, 801333, Note_on_c, 0, 53, 86
1, 801335, Note_on_c, 0, 62, 82
1, 801335, Note_on_c, 0, 77, 96
1, 801341, Note_on_c, 0, 70, 89
1, 801344, Note_on_c, 0, 68, 88
1, 801377, Note_off_c, 0, 53, 64
1, 801379, Note_off_c, 0, 68, 53
1, 801381, Note_off_c, 0, 62, 58
1, 801388, Note_off_c, 0, 70, 60
1, 801395, Control_c, 0, 64, 100
1, 801397, Note_off_c, 0, 77, 57
1, 801410, Control_c, 0, 64, 60
1, 801425, Control_c, 0, 64, 0
1, 801455, Control_c, 0, 64, 47
1, 801457, Note_on_c, 0, 62, 89
1, 801461, Note_on_c, 0, 77, 96
1, 801465, Note_on_c, 0, 70, 93
1, 801467, Note_on_c, 0, 68, 86
1, 801468, Note_on_c, 0, 52, 73
1, 801469, Control_c, 0, 64, 71
1, 801482, Note_on_c, 0, 53, 68
1, 801484, Control_c, 0, 64, 93
1, 801490, Note_off_c, 0, 68, 65
1, 801496, Note_off_c, 0, 62, 64
1, 801498, Note_off_c, 0, 52, 64
1, 801499, Control_c, 0, 64, 127
1, 801503, Note_off_c, 0, 53, 63
1, 801508, Note_off_c, 0, 70, 64
1, 801508, Note_off_c, 0, 77, 63
1, 801587, Note_on_c, 0, 63, 97
1, 801592, Note_on_c, 0, 67, 88
1, 801592, Note_on_c, 0, 79, 91
1, 801593, Note_on_c, 0, 51, 88
1, 801593, Note_on_c, 0, 75, 88
1, 801616, Note_off_c, 0, 63, 60
1, 801625, Note_off_c, 0, 67, 58
1, 801627, Note_off_c, 0, 51, 63
1, 801633, Note_off_c, 0, 79, 62
1, 801635, Note_on_c, 0, 77, 26
1, 801636, Note_off_c, 0, 77, 127
1, 801638, Note_off_c, 0, 75, 62
1, 801700, Note_on_c, 0, 63, 95
1, 801706, Note_on_c, 0, 79, 110
1, 801707, Note_on_c, 0, 67, 98
1, 801708, Note_on_c, 0, 51, 91
1, 801713, Note_on_c, 0, 75, 91
1, 801730, Note_off_c, 0, 67, 59
1, 801737, Note_off_c, 0, 63, 65
1, 801738, Note_off_c, 0, 51, 64
1, 801748, Note_off_c, 0, 79, 62
1, 801752, Note_off_c, 0, 75, 60
1, 801818, Note_on_c, 0, 62, 99
1, 801821, Note_on_c, 0, 50, 92
1, 801822, Note_on_c, 0, 81, 98
1, 801825, Note_on_c, 0, 69, 104
1, 801825, Note_on_c, 0, 78, 100
1, 801832, Note_on_c, 0, 74, 88
1, 801858, Note_off_c, 0, 62, 66
1, 801862, Control_c, 0, 64, 122
1, 801869, Note_off_c, 0, 50, 66
1, 801876, Control_c, 0, 64, 76
1, 801878, Note_off_c, 0, 69, 56
1, 801884, Note_off_c, 0, 81, 58
1, 801887, Note_off_c, 0, 74, 61
1, 801891, Control_c, 0, 64, 0
1, 801896, Note_off_c, 0, 78, 62
1, 801907, Control_c, 0, 64, 30
1, 801922, Control_c, 0, 64, 68
1, 801937, Control_c, 0, 64, 81
1, 801950, Note_on_c, 0, 62, 95
1, 801952, Control_c, 0, 64, 114
1, 801953, Note_on_c, 0, 50, 93
1, 801954, Note_on_c, 0, 69, 103
1, 801956, Note_on_c, 0, 81, 98
1, 801963, Note_on_c, 0, 74, 84
1, 801964, Note_on_c, 0, 78, 87
1, 801967, Control_c, 0, 64, 127
1, 801982, Note_off_c, 0, 74, 73
1, 801986, Note_off_c, 0, 62, 65
1, 801994, Note_off_c, 0, 69, 65
1, 801997, Note_off_c, 0, 50, 67
1, 802005, Note_off_c, 0, 78, 66
1, 802009, Note_off_c, 0, 81, 65
1, 802089, Note_on_c, 0, 55, 104
1, 802089, Note_on_c, 0, 82, 105
1, 802092, Note_on_c, 0, 43, 95
1, 802096, Note_on_c, 0, 70, 94
1, 802103, Note_on_c, 0, 79, 84
1, 802115, Note_on_c, 0, 83, 61
1, 802120, Note_off_c, 0, 55, 69
1, 802122, Note_off_c, 0, 43, 66
1, 802128, Note_off_c, 0, 79, 61
1, 802132, Note_off_c, 0, 83, 66
1, 802137, Note_off_c, 0, 70, 45
1, 802150, Note_off_c, 0, 82, 59
1, 802213, Note_on_c, 0, 55, 104
1, 802219, Note_on_c, 0, 43, 83
1, 802223, Note_on_c, 0, 82, 107
1, 802225, Note_on_c, 0, 41, 85
1, 802226, Note_on_c, 0, 70, 95
1, 802233, Note_on_c, 0, 79, 80
1, 802246, Note_off_c, 0, 55, 67
1, 802248, Note_off_c, 0, 41, 64
1, 802251, Note_off_c, 0, 43, 68
1, 802252, Note_on_c, 0, 78, 55
1, 802288, Note_off_c, 0, 78, 46
1, 802313, Note_off_c, 0, 70, 61
1, 802316, Note_off_c, 0, 79, 43
1, 802340, Note_on_c, 0, 52, 100
1, 802343, Note_on_c, 0, 40, 96
1, 802374, Note_off_c, 0, 52, 67
1, 802384, Note_off_c, 0, 40, 65
1, 802388, Note_off_c, 0, 82, 57
1, 802388, Control_c, 0, 64, 77
1, 802403, Control_c, 0, 64, 0
1, 802430, Note_on_c, 0, 52, 104
1, 802435, Note_on_c, 0, 40, 89
1, 802447, Control_c, 0, 64, 52
1, 802448, Note_on_c, 0, 72, 101
1, 802449, Note_on_c, 0, 79, 97
1, 802449, Note_on_c, 0, 84, 102
1, 802462, Control_c, 0, 64, 71
1, 802477, Control_c, 0, 64, 93
1, 802492, Control_c, 0, 64, 127
1, 802537, Note_off_c, 0, 40, 64
1, 802561, Note_off_c, 0, 52, 64
1, 802674, Note_off_c, 0, 72, 61
1, 802681, Note_off_c, 0, 84, 60
1, 802690, Note_on_c, 0, 60, 102
1, 802692, Note_off_c, 0, 79, 57
1, 802707, Note_off_c, 0, 60, 76
1, 802751, Note_on_c, 0, 79, 101
1, 802751, Note_on_c, 0, 84, 103
1, 802753, Note_on_c, 0, 72, 101
1, 803023, Note_off_c, 0, 72, 56
1, 803028, Note_off_c, 0, 84, 53
1, 803098, Note_on_c, 0, 48, 85
1, 803101, Note_on_c, 0, 52, 85
1, 803104, Note_on_c, 0, 84, 89
1, 803105, Note_on_c, 0, 82, 98
1, 803106, Note_on_c, 0, 40, 79
1, 803106, Note_on_c, 0, 72, 96
1, 803118, Note_off_c, 0, 79, 62
1, 803124, Note_off_c, 0, 48, 68
1, 803128, Note_off_c, 0, 52, 68
1, 803133, Note_off_c, 0, 40, 66
1, 803231, Note_off_c, 0, 84, 56
1, 803233, Note_off_c, 0, 82, 56
1, 803244, Note_off_c, 0, 72, 53
1, 803360, Note_on_c, 0, 48, 80
1, 803363, Note_on_c, 0, 53, 81
1, 803365, Note_on_c, 0, 80, 88
1, 803367, Note_on_c, 0, 72, 91
1, 803371, Note_on_c, 0, 41, 73
1, 803371, Note_on_c, 0, 84, 87
1, 803374, Control_c, 0, 64, 76
1, 803386, Note_off_c, 0, 48, 67
1, 803387, Note_off_c, 0, 53, 70
1, 803387, Note_off_c, 0, 80, 62
1, 803389, Control_c, 0, 64, 0
1, 803393, Note_off_c, 0, 84, 62
1, 803397, Note_off_c, 0, 41, 55
1, 803406, Note_off_c, 0, 72, 0
1, 803421, Note_on_c, 0, 80, 77
1, 803425, Note_on_c, 0, 84, 72
1, 803430, Note_on_c, 0, 41, 74
1, 803430, Note_on_c, 0, 53, 84
1, 803431, Note_on_c, 0, 48, 83
1, 803434, Control_c, 0, 64, 19
1, 803443, Poly_aftertouch_c, 0, 72, 127
1, 803448, Control_c, 0, 64, 66
1, 803463, Control_c, 0, 64, 85
1, 803476, Note_off_c, 0, 48, 59
1, 803478, Control_c, 0, 64, 127
1, 803494, Note_off_c, 0, 53, 58
1, 803497, Note_off_c, 0, 41, 59
1, 803535, Poly_aftertouch_c, 0, 72, 0
1, 803574, Note_on_c, 0, 55, 89
1, 803577, Note_on_c, 0, 79, 92
1, 803586, Note_on_c, 0, 72, 48
1, 803586, Note_on_c, 0, 43, 72
1, 803603, Note_off_c, 0, 72, 66
1, 803609, Note_off_c, 0, 84, 63
1, 803613, Note_off_c, 0, 43, 65
1, 803616, Note_off_c, 0, 55, 66
1, 803625, Note_off_c, 0, 80, 27
1, 803646, Note_off_c, 0, 79, 59
1, 803671, Control_c, 0, 64, 89
1, 803686, Control_c, 0, 64, 66
1, 803699, Note_on_c, 0, 48, 77
1, 803701, Note_on_c, 0, 72, 74
1, 803701, Control_c, 0, 64, 0
1, 803702, Note_on_c, 0, 44, 81
1, 803702, Note_on_c, 0, 56, 85
1, 803703, Note_on_c, 0, 77, 90
1, 803704, Note_on_c, 0, 84, 94
1, 803729, Note_off_c, 0, 48, 66
1, 803731, Note_off_c, 0, 56, 65
1, 803735, Note_on_c, 0, 80, 41
1, 803738, Note_off_c, 0, 44, 65
1, 803741, Note_off_c, 0, 77, 64
1, 803748, Note_off_c, 0, 72, 63
1, 803753, Note_off_c, 0, 84, 62
1, 803765, Note_off_c, 0, 80, 34
1, 803830, Note_on_c, 0, 84, 92
1, 803831, Note_on_c, 0, 57, 89
1, 803832, Note_on_c, 0, 72, 99
1, 803835, Note_on_c, 0, 45, 81
1, 803846, Note_on_c, 0, 75, 73
1, 803857, Note_off_c, 0, 57, 66
1, 803863, Note_off_c, 0, 45, 69
1, 803863, Note_off_c, 0, 75, 69
1, 803866, Note_off_c, 0, 84, 65
1, 803869, Note_off_c, 0, 72, 65
1, 803988, Note_on_c, 0, 58, 89
1, 803988, Note_on_c, 0, 74, 91
1, 803989, Note_on_c, 0, 46, 91
1, 803989, Control_c, 0, 64, 74
1, 803991, Note_on_c, 0, 82, 86
1, 803993, Note_on_c, 0, 70, 77
1, 804003, Note_off_c, 0, 82, 72
1, 804003, Control_c, 0, 64, 105
1, 804005, Note_off_c, 0, 58, 73
1, 804005, Note_off_c, 0, 74, 74
1, 804012, Note_off_c, 0, 46, 67
1, 804013, Note_off_c, 0, 70, 71
1, 804018, Control_c, 0, 64, 127
1, 804018, Control_c, 0, 67, 8
1, 804048, Control_c, 0, 67, 0
1, 804093, Poly_aftertouch_c, 0, 73, 0
1, 804114, Poly_aftertouch_c, 0, 46, 127
1, 804152, Control_c, 0, 67, 9
1, 804155, Poly_aftertouch_c, 0, 46, 0
1, 804167, Control_c, 0, 67, 10
1, 804182, Control_c, 0, 67, 11
1, 804196, Control_c, 0, 67, 12
1, 804211, Control_c, 0, 67, 13
1, 804241, Control_c, 0, 67, 13
1, 804245, Note_on_c, 0, 58, 88
1, 804246, Note_on_c, 0, 65, 85
1, 804247, Note_on_c, 0, 74, 86
1, 804251, Note_on_c, 0, 70, 82
1, 804254, Note_on_c, 0, 68, 77
1, 804256, Control_c, 0, 64, 109
1, 804266, Note_off_c, 0, 58, 68
1, 804269, Note_off_c, 0, 65, 68
1, 804270, Control_c, 0, 64, 71
1, 804270, Control_c, 0, 67, 14
1, 804272, Note_off_c, 0, 70, 70
1, 804277, Note_off_c, 0, 68, 69
1, 804285, Control_c, 0, 64, 0
1, 804285, Control_c, 0, 67, 15
1, 804313, Note_on_c, 0, 68, 74
1, 804313, Note_on_c, 0, 70, 88
1, 804316, Control_c, 0, 67, 14
1, 804317, Note_on_c, 0, 58, 90
1, 804318, Note_on_c, 0, 65, 85
1, 804331, Control_c, 0, 64, 59
1, 804331, Control_c, 0, 67, 13
1, 804346, Control_c, 0, 64, 72
1, 804361, Control_c, 0, 64, 94
1, 804375, Control_c, 0, 64, 127
1, 804375, Control_c, 0, 67, 14
1, 804390, Control_c, 0, 67, 14
1, 804405, Control_c, 0, 67, 15
1, 804412, Note_off_c, 0, 65, 62
1, 804419, Control_c, 0, 67, 15
1, 804434, Control_c, 0, 67, 16
1, 804449, Control_c, 0, 67, 16
1, 804464, Control_c, 0, 67, 17
1, 804468, Note_off_c, 0, 68, 50
1, 804479, Control_c, 0, 67, 19
1, 804493, Control_c, 0, 67, 21
1, 804508, Control_c, 0, 67, 21
1, 804553, Control_c, 0, 67, 21
1, 804575, Control_c, 0, 67, 20
1, 804619, Control_c, 0, 67, 20
1, 804724, Note_on_c, 0, 75, 82
1, 804724, Control_c, 0, 64, 99
1, 804724, Control_c, 0, 67, 20
1, 804727, Note_on_c, 0, 51, 80
1, 804727, Note_on_c, 0, 63, 84
1, 804727, Note_on_c, 0, 67, 78
1, 804727, Note_off_c, 0, 58, 62
1, 804739, Control_c, 0, 64, 72
1, 804740, Note_off_c, 0, 74, 64
1, 804753, Control_c, 0, 64, 0
1, 804753, Control_c, 0, 67, 20
1, 804767, Note_off_c, 0, 70, 57
1, 804768, Control_c, 0, 67, 19
1, 804783, Control_c, 0, 67, 18
1, 804842, Control_c, 0, 64, 19
1, 804857, Control_c, 0, 64, 65
1, 804857, Control_c, 0, 67, 17
1, 804872, Control_c, 0, 64, 76
1, 804874, Note_off_c, 0, 63, 64
1, 804883, Note_off_c, 0, 51, 66
1, 804884, Note_off_c, 0, 67, 63
1, 804887, Control_c, 0, 64, 93
1, 804887, Control_c, 0, 67, 17
1, 804892, Note_off_c, 0, 75, 64
1, 804901, Control_c, 0, 64, 127
1, 804901, Control_c, 0, 67, 16
1, 804916, Control_c, 0, 67, 15
1, 804931, Control_c, 0, 67, 15
1, 804945, Control_c, 0, 67, 14
1, 804960, Control_c, 0, 67, 13
1, 804990, Control_c, 0, 67, 14
1, 805005, Control_c, 0, 67, 15
1, 805020, Control_c, 0, 67, 16
1, 805035, Control_c, 0, 67, 17
1, 805050, Control_c, 0, 67, 17
1, 805065, Control_c, 0, 67, 19
1, 805080, Control_c, 0, 67, 19
1, 805095, Control_c, 0, 67, 20
1, 805110, Control_c, 0, 64, 113
1, 805110, Control_c, 0, 67, 20
1, 805124, Control_c, 0, 64, 78
1, 805124, Control_c, 0, 67, 21
1, 805139, Control_c, 0, 64, 55
1, 805139, Control_c, 0, 67, 21
1, 805154, Control_c, 0, 64, 0
1, 805154, Control_c, 0, 67, 22
1, 805184, Control_c, 0, 67, 23
1, 805199, Control_c, 0, 67, 24
1, 805214, Control_c, 0, 67, 27
1, 805229, Control_c, 0, 67, 29
1, 805243, Control_c, 0, 67, 31
1, 805258, Control_c, 0, 67, 33
1, 805273, Control_c, 0, 67, 35
1, 805288, Control_c, 0, 67, 37
1, 805303, Control_c, 0, 67, 38
1, 805324, Control_c, 0, 64, 60
1, 805324, Control_c, 0, 67, 39
1, 805339, Control_c, 0, 64, 69
1, 805339, Control_c, 0, 67, 40
1, 805343, Note_on_c, 0, 66, 78
1, 805354, Control_c, 0, 64, 77
1, 805354, Control_c, 0, 67, 41
1, 805369, Control_c, 0, 64, 88
1, 805369, Control_c, 0, 67, 43
1, 805384, Control_c, 0, 64, 99
1, 805384, Control_c, 0, 67, 44
1, 805388, Note_off_c, 0, 66, 57
1, 805398, Control_c, 0, 64, 106
1, 805398, Control_c, 0, 67, 45
1, 805413, Control_c, 0, 64, 108
1, 805413, Control_c, 0, 67, 46
1, 805428, Control_c, 0, 67, 46
1, 805432, Note_on_c, 0, 58, 63
1, 805453, Note_off_c, 0, 58, 62
1, 805458, Control_c, 0, 67, 47
1, 805473, Control_c, 0, 64, 108
1, 805473, Control_c, 0, 67, 47
1, 805488, Control_c, 0, 67, 48
1, 805503, Control_c, 0, 67, 49
1, 805517, Control_c, 0, 67, 50
1, 805532, Control_c, 0, 67, 51
1, 805547, Control_c, 0, 67, 51
1, 805562, Control_c, 0, 67, 52
1, 805576, Control_c, 0, 64, 109
1, 805576, Control_c, 0, 67, 53
1, 805591, Control_c, 0, 64, 109
1, 805591, Control_c, 0, 67, 54
1, 805606, Control_c, 0, 64, 110
1, 805606, Control_c, 0, 67, 55
1, 805621, Control_c, 0, 64, 110
1, 805621, Control_c, 0, 67, 57
1, 805636, Control_c, 0, 67, 58
1, 805650, Control_c, 0, 67, 59
1, 805665, Control_c, 0, 67, 59
1, 805681, Note_on_c, 0, 51, 81
1, 805703, Note_off_c, 0, 51, 68
1, 805724, Control_c, 0, 64, 110
1, 805739, Control_c, 0, 64, 103
1, 805741, Note_on_c, 0, 51, 93
1, 805754, Control_c, 0, 64, 92
1, 805768, Control_c, 0, 64, 79
1, 805783, Control_c, 0, 64, 67
1, 805798, Control_c, 0, 64, 40
1, 805813, Control_c, 0, 64, 0
1, 805858, Control_c, 0, 67, 60
1, 806036, Control_c, 0, 64, 59
1, 806051, Control_c, 0, 64, 70
1, 806073, Control_c, 0, 64, 81
1, 806073, Control_c, 0, 67, 60
1, 806088, Control_c, 0, 64, 100
1, 806103, Control_c, 0, 64, 127
1, 806103, Control_c, 0, 67, 61
1, 806118, Control_c, 0, 67, 62
1, 806133, Control_c, 0, 67, 66
1, 806142, Note_off_c, 0, 51, 62
1, 806147, Control_c, 0, 67, 68
1, 806162, Control_c, 0, 67, 70
1, 806177, Control_c, 0, 67, 71
1, 806191, Control_c, 0, 67, 72
1, 806206, Control_c, 0, 67, 72
1, 806221, Control_c, 0, 67, 73
1, 806236, Control_c, 0, 67, 74
1, 806251, Control_c, 0, 67, 75
1, 806266, Control_c, 0, 67, 75
1, 806296, Control_c, 0, 67, 76
1, 806370, Control_c, 0, 64, 88
1, 806385, Control_c, 0, 64, 68
1, 806399, Control_c, 0, 64, 0
1, 806409, Note_on_c, 0, 51, 82
1, 806457, Note_off_c, 0, 51, 66
1, 806480, Note_on_c, 0, 53, 79
1, 806514, Note_off_c, 0, 53, 62
1, 806517, Control_c, 0, 67, 75
1, 806547, Control_c, 0, 67, 75
1, 806668, Note_on_c, 0, 54, 76
1, 806692, Note_off_c, 0, 54, 68
1, 806743, Note_on_c, 0, 56, 81
1, 806837, Control_c, 0, 64, 65
1, 806852, Control_c, 0, 64, 76
1, 806867, Control_c, 0, 64, 93
1, 806868, Note_off_c, 0, 56, 62
1, 806882, Control_c, 0, 64, 127
1, 806882, Control_c, 0, 67, 74
1, 806911, Control_c, 0, 67, 73
1, 806926, Control_c, 0, 67, 73
1, 807014, Control_c, 0, 67, 73
1, 807074, Control_c, 0, 67, 74
1, 807089, Note_on_c, 0, 44, 79
1, 807118, Control_c, 0, 67, 74
1, 807133, Control_c, 0, 64, 114
1, 807148, Control_c, 0, 64, 87
1, 807163, Control_c, 0, 64, 70
1, 807163, Control_c, 0, 67, 75
1, 807178, Control_c, 0, 64, 35
1, 807193, Control_c, 0, 64, 0
1, 807355, Control_c, 0, 64, 48
1, 807370, Control_c, 0, 64, 64
1, 807385, Control_c, 0, 64, 70
1, 807393, Note_on_c, 0, 75, 82
1, 807400, Control_c, 0, 64, 78
1, 807414, Control_c, 0, 64, 89
1, 807429, Control_c, 0, 64, 99
1, 807444, Control_c, 0, 64, 105
1, 807445, Note_off_c, 0, 75, 63
1, 807459, Control_c, 0, 64, 106
1, 807466, Note_on_c, 0, 68, 82
1, 807491, Note_off_c, 0, 68, 67
1, 807519, Control_c, 0, 67, 74
1, 807706, Control_c, 0, 64, 105
1, 807711, Note_on_c, 0, 59, 84
1, 807720, Control_c, 0, 64, 103
1, 807728, Note_off_c, 0, 59, 71
1, 807735, Control_c, 0, 64, 97
1, 807750, Control_c, 0, 64, 85
1, 807764, Control_c, 0, 64, 72
1, 807764, Control_c, 0, 67, 75
1, 807779, Control_c, 0, 64, 56
1, 807786, Note_on_c, 0, 59, 87
1, 807794, Control_c, 0, 64, 0
1, 808016, Control_c, 0, 64, 59
1, 808031, Control_c, 0, 64, 68
1, 808046, Control_c, 0, 64, 76
1, 808060, Control_c, 0, 64, 86
1, 808075, Control_c, 0, 64, 99
1, 808075, Control_c, 0, 67, 76
1, 808090, Control_c, 0, 64, 111
1, 808090, Control_c, 0, 67, 76
1, 808105, Control_c, 0, 64, 127
1, 808105, Control_c, 0, 67, 77
1, 808120, Control_c, 0, 67, 77
1, 808132, Note_off_c, 0, 59, 63
1, 808179, Control_c, 0, 67, 78
1, 808209, Control_c, 0, 67, 79
1, 808224, Control_c, 0, 67, 84
1, 808238, Control_c, 0, 67, 88
1, 808253, Control_c, 0, 67, 93
1, 808268, Control_c, 0, 67, 99
1, 808284, Control_c, 0, 67, 104
1, 808299, Control_c, 0, 67, 109
1, 808321, Control_c, 0, 67, 113
1, 808336, Control_c, 0, 67, 116
1, 808350, Control_c, 0, 67, 117
1, 808365, Control_c, 0, 67, 118
1, 808409, Control_c, 0, 64, 117
1, 808423, Control_c, 0, 64, 97
1, 808433, Note_on_c, 0, 59, 77
1, 808438, Control_c, 0, 64, 80
1, 808453, Control_c, 0, 64, 63
1, 808467, Control_c, 0, 64, 0
1, 808480, Note_off_c, 0, 59, 51
1, 808496, Note_on_c, 0, 61, 79
1, 808512, Control_c, 0, 67, 118
1, 808519, Note_off_c, 0, 61, 68
1, 808527, Control_c, 0, 67, 117
1, 808556, Control_c, 0, 67, 117
1, 808694, Note_on_c, 0, 63, 77
1, 808721, Note_off_c, 0, 63, 62
1, 808770, Note_on_c, 0, 64, 79
1, 808926, Control_c, 0, 64, 47
1, 808941, Control_c, 0, 64, 62
1, 808956, Control_c, 0, 64, 67
1, 808971, Control_c, 0, 64, 71
1, 808971, Control_c, 0, 67, 116
1, 808985, Control_c, 0, 64, 77
1, 808985, Control_c, 0, 67, 115
1, 809000, Control_c, 0, 64, 84
1, 809015, Control_c, 0, 64, 94
1, 809015, Control_c, 0, 67, 115
1, 809030, Control_c, 0, 64, 104
1, 809045, Control_c, 0, 64, 114
1, 809045, Control_c, 0, 67, 114
1, 809067, Control_c, 0, 64, 127
1, 809184, Note_on_c, 0, 52, 61
1, 809275, Note_off_c, 0, 44, 62
1, 809364, Control_c, 0, 67, 115
1, 809483, Control_c, 0, 64, 126
1, 809487, Note_on_c, 0, 44, 71
1, 809497, Control_c, 0, 64, 91
1, 809512, Control_c, 0, 64, 73
1, 809512, Control_c, 0, 67, 115
1, 809527, Control_c, 0, 64, 46
1, 809527, Control_c, 0, 67, 116
1, 809540, Note_off_c, 0, 44, 59
1, 809542, Control_c, 0, 64, 0
1, 809542, Control_c, 0, 67, 116
1, 809557, Control_c, 0, 67, 117
1, 809572, Control_c, 0, 67, 118
1, 809575, Note_on_c, 0, 45, 70
1, 809587, Control_c, 0, 67, 118
1, 809607, Note_off_c, 0, 45, 66
1, 809616, Control_c, 0, 67, 119
1, 809661, Control_c, 0, 67, 119
1, 809690, Control_c, 0, 67, 120
1, 809705, Control_c, 0, 67, 121
1, 809720, Note_off_c, 0, 64, 56
1, 809720, Control_c, 0, 67, 125
1, 809734, Control_c, 0, 67, 127
1, 809762, Note_on_c, 0, 47, 74
1, 809786, Note_off_c, 0, 47, 68
1, 809851, Note_on_c, 0, 64, 64
1, 809857, Note_on_c, 0, 49, 73
1, 809867, Note_off_c, 0, 52, 60
1, 810084, Control_c, 0, 64, 40
1, 810099, Control_c, 0, 64, 57
1, 810113, Control_c, 0, 64, 63
1, 810128, Control_c, 0, 64, 66
1, 810143, Control_c, 0, 64, 68
1, 810157, Control_c, 0, 64, 70
1, 810172, Control_c, 0, 64, 72
1, 810187, Control_c, 0, 64, 75
1, 810202, Control_c, 0, 64, 78
1, 810217, Control_c, 0, 64, 82
1, 810231, Control_c, 0, 64, 87
1, 810246, Control_c, 0, 64, 91
1, 810261, Control_c, 0, 64, 97
1, 810276, Control_c, 0, 64, 101
1, 810291, Control_c, 0, 64, 106
1, 810300, Note_on_c, 0, 52, 50
1, 810305, Control_c, 0, 64, 110
1, 810320, Control_c, 0, 64, 117
1, 810335, Control_c, 0, 64, 127
1, 810445, Note_off_c, 0, 49, 61
1, 810579, Control_c, 0, 64, 120
1, 810594, Control_c, 0, 64, 99
1, 810604, Note_on_c, 0, 49, 75
1, 810609, Control_c, 0, 64, 81
1, 810624, Control_c, 0, 64, 64
1, 810639, Control_c, 0, 64, 0
1, 810640, Note_off_c, 0, 49, 64
1, 810693, Note_on_c, 0, 47, 69
1, 810752, Note_off_c, 0, 47, 65
1, 810800, Note_off_c, 0, 64, 54
1, 810880, Note_on_c, 0, 45, 68
1, 810910, Note_off_c, 0, 45, 64
1, 810969, Note_on_c, 0, 44, 68
1, 810984, Note_on_c, 0, 64, 53
1, 810988, Note_on_c, 0, 62, 51
1, 811027, Note_off_c, 0, 52, 50
1, 811158, Control_c, 0, 64, 48
1, 811173, Control_c, 0, 64, 62
1, 811187, Control_c, 0, 64, 67
1, 811202, Control_c, 0, 64, 72
1, 811217, Control_c, 0, 64, 77
1, 811232, Control_c, 0, 64, 83
1, 811247, Control_c, 0, 64, 89
1, 811262, Control_c, 0, 64, 96
1, 811277, Control_c, 0, 64, 102
1, 811292, Control_c, 0, 64, 107
1, 811313, Control_c, 0, 64, 112
1, 811328, Control_c, 0, 64, 116
1, 811343, Control_c, 0, 64, 119
1, 811358, Control_c, 0, 64, 121
1, 811373, Control_c, 0, 64, 123
1, 811387, Control_c, 0, 64, 127
1, 811456, Note_on_c, 0, 52, 48
1, 811506, Note_off_c, 0, 44, 62
1, 811744, Control_c, 0, 64, 98
1, 811759, Control_c, 0, 64, 80
1, 811774, Control_c, 0, 64, 62
1, 811775, Note_on_c, 0, 44, 66
1, 811789, Control_c, 0, 64, 0
1, 811833, Note_off_c, 0, 44, 59
1, 811870, Note_on_c, 0, 42, 63
1, 811900, Note_off_c, 0, 42, 63
1, 811982, Note_off_c, 0, 64, 50
1, 812047, Note_on_c, 0, 40, 67
1, 812088, Note_off_c, 0, 40, 64
1, 812157, Note_off_c, 0, 62, 58
1, 812162, Note_on_c, 0, 64, 48
1, 812163, Note_on_c, 0, 61, 54
1, 812180, Note_on_c, 0, 40, 56
1, 812300, Note_off_c, 0, 52, 41
1, 812359, Control_c, 0, 64, 32
1, 812374, Control_c, 0, 64, 54
1, 812389, Control_c, 0, 64, 62
1, 812404, Control_c, 0, 64, 65
1, 812419, Control_c, 0, 64, 68
1, 812433, Control_c, 0, 64, 70
1, 812448, Control_c, 0, 64, 72
1, 812463, Control_c, 0, 64, 74
1, 812478, Control_c, 0, 64, 76
1, 812493, Control_c, 0, 64, 78
1, 812508, Control_c, 0, 64, 80
1, 812523, Control_c, 0, 64, 81
1, 812538, Control_c, 0, 64, 83
1, 812552, Control_c, 0, 64, 84
1, 812567, Control_c, 0, 64, 85
1, 812580, Note_on_c, 0, 52, 47
1, 812582, Control_c, 0, 64, 86
1, 812597, Control_c, 0, 64, 88
1, 812612, Control_c, 0, 64, 90
1, 812626, Control_c, 0, 64, 93
1, 812641, Control_c, 0, 64, 96
1, 812656, Control_c, 0, 64, 98
1, 812671, Control_c, 0, 64, 100
1, 812686, Control_c, 0, 64, 102
1, 812700, Control_c, 0, 64, 103
1, 812760, Note_off_c, 0, 40, 32
1, 812871, Control_c, 0, 64, 102
1, 812885, Control_c, 0, 64, 97
1, 812900, Control_c, 0, 64, 87
1, 812915, Control_c, 0, 64, 72
1, 812920, Note_on_c, 0, 40, 49
1, 812930, Control_c, 0, 64, 54
1, 812945, Control_c, 0, 64, 0
1, 812984, Note_off_c, 0, 40, 59
1, 813011, Note_on_c, 0, 38, 54
1, 813045, Note_off_c, 0, 38, 62
1, 813063, Control_c, 0, 64, 61
1, 813079, Control_c, 0, 64, 67
1, 813094, Control_c, 0, 64, 72
1, 813109, Control_c, 0, 64, 77
1, 813124, Control_c, 0, 64, 81
1, 813138, Control_c, 0, 64, 83
1, 813153, Control_c, 0, 64, 84
1, 813225, Note_off_c, 0, 64, 55
1, 813231, Note_on_c, 0, 37, 55
1, 813256, Note_off_c, 0, 52, 33
1, 813266, Note_off_c, 0, 37, 63
1, 813372, Note_on_c, 0, 64, 52
1, 813373, Note_on_c, 0, 62, 46
1, 813390, Control_c, 0, 64, 83
1, 813391, Note_on_c, 0, 35, 42
1, 813396, Note_on_c, 0, 56, 38
1, 813399, Note_on_c, 0, 52, 33
1, 813405, Control_c, 0, 64, 80
1, 813420, Control_c, 0, 64, 75
1, 813435, Control_c, 0, 64, 67
1, 813444, Note_off_c, 0, 61, 51
1, 813449, Control_c, 0, 64, 56
1, 813464, Control_c, 0, 64, 0
1, 813620, Control_c, 0, 64, 56
1, 813635, Control_c, 0, 64, 67
1, 813650, Control_c, 0, 64, 75
1, 813665, Control_c, 0, 64, 86
1, 813679, Control_c, 0, 64, 107
1, 813694, Control_c, 0, 64, 127
1, 813762, Note_off_c, 0, 64, 56
1, 813768, Note_off_c, 0, 52, 41
1, 813908, Note_on_c, 0, 64, 55
1, 813941, Note_on_c, 0, 52, 28
1, 814021, Control_c, 0, 67, 126
1, 814036, Control_c, 0, 67, 126
1, 814051, Control_c, 0, 67, 124
1, 814066, Control_c, 0, 67, 123
1, 814080, Control_c, 0, 67, 122
1, 814095, Control_c, 0, 67, 121
1, 814110, Control_c, 0, 67, 120
1, 814125, Control_c, 0, 67, 119
1, 814138, Note_off_c, 0, 64, 47
1, 814139, Control_c, 0, 67, 118
1, 814154, Control_c, 0, 67, 116
1, 814160, Note_off_c, 0, 52, 38
1, 814169, Control_c, 0, 67, 115
1, 814184, Control_c, 0, 67, 114
1, 814198, Control_c, 0, 67, 112
1, 814213, Control_c, 0, 67, 110
1, 814228, Control_c, 0, 67, 109
1, 814243, Control_c, 0, 67, 108
1, 814258, Control_c, 0, 67, 107
1, 814273, Control_c, 0, 67, 106
1, 814285, Note_on_c, 0, 64, 61
1, 814288, Control_c, 0, 67, 105
1, 814296, Note_off_c, 0, 56, 38
1, 814310, Control_c, 0, 67, 104
1, 814316, Note_on_c, 0, 61, 56
1, 814318, Note_on_c, 0, 52, 29
1, 814325, Control_c, 0, 67, 102
1, 814339, Control_c, 0, 67, 101
1, 814354, Control_c, 0, 67, 99
1, 814369, Control_c, 0, 67, 97
1, 814384, Control_c, 0, 67, 95
1, 814399, Control_c, 0, 67, 93
1, 814413, Control_c, 0, 67, 90
1, 814428, Control_c, 0, 67, 88
1, 814443, Control_c, 0, 67, 85
1, 814457, Control_c, 0, 67, 83
1, 814472, Control_c, 0, 67, 81
1, 814487, Note_off_c, 0, 61, 55
1, 814487, Control_c, 0, 67, 80
1, 814492, Note_off_c, 0, 64, 55
1, 814502, Control_c, 0, 67, 79
1, 814503, Note_off_c, 0, 52, 41
1, 814517, Control_c, 0, 67, 78
1, 814531, Control_c, 0, 67, 77
1, 814546, Control_c, 0, 67, 76
1, 814561, Control_c, 0, 67, 75
1, 814576, Control_c, 0, 67, 74
1, 814591, Control_c, 0, 67, 73
1, 814605, Control_c, 0, 67, 73
1, 814620, Control_c, 0, 67, 72
1, 814635, Control_c, 0, 67, 72
1, 814649, Control_c, 0, 67, 71
1, 814696, Control_c, 0, 67, 70
1, 814770, Note_on_c, 0, 64, 61
1, 814794, Note_on_c, 0, 61, 47
1, 814809, Note_on_c, 0, 33, 41
1, 814826, Note_off_c, 0, 62, 47
1, 814827, Note_on_c, 0, 52, 23
1, 814828, Control_c, 0, 67, 71
1, 814832, Note_on_c, 0, 45, 24
1, 814858, Control_c, 0, 64, 100
1, 814863, Note_off_c, 0, 35, 38
1, 814873, Control_c, 0, 64, 77
1, 814873, Control_c, 0, 67, 71
1, 814888, Control_c, 0, 64, 59
1, 814902, Control_c, 0, 64, 27
1, 814917, Control_c, 0, 64, 61
1, 814932, Control_c, 0, 64, 69
1, 814946, Control_c, 0, 64, 78
1, 814946, Control_c, 0, 67, 71
1, 814961, Control_c, 0, 64, 97
1, 814961, Control_c, 0, 67, 70
1, 814976, Control_c, 0, 64, 127
1, 814976, Control_c, 0, 67, 70
1, 815006, Control_c, 0, 67, 69
1, 815021, Control_c, 0, 67, 67
1, 815032, Note_off_c, 0, 52, 40
1, 815036, Control_c, 0, 67, 65
1, 815058, Control_c, 0, 67, 62
1, 815073, Control_c, 0, 67, 61
1, 815075, Note_off_c, 0, 64, 62
1, 815088, Control_c, 0, 67, 60
1, 815103, Control_c, 0, 67, 59
1, 815117, Control_c, 0, 67, 58
1, 815132, Control_c, 0, 67, 56
1, 815147, Control_c, 0, 67, 55
1, 815161, Control_c, 0, 67, 54
1, 815188, Note_off_c, 0, 61, 52
1, 815324, Note_on_c, 0, 73, 78
1, 815355, Note_on_c, 0, 64, 41
1, 815375, Note_on_c, 0, 61, 36
1, 815384, Control_c, 0, 67, 54
1, 815414, Control_c, 0, 67, 55
1, 815428, Control_c, 0, 67, 55
1, 815443, Control_c, 0, 67, 56
1, 815458, Control_c, 0, 67, 56
1, 815461, Note_off_c, 0, 73, 65
1, 815467, Note_off_c, 0, 45, 42
1, 815489, Control_c, 0, 67, 57
1, 815533, Control_c, 0, 67, 57
1, 815539, Note_off_c, 0, 61, 50
1, 815592, Control_c, 0, 67, 58
1, 815707, Note_on_c, 0, 71, 76
1, 815710, Control_c, 0, 67, 58
1, 815725, Control_c, 0, 67, 59
1, 815740, Control_c, 0, 67, 60
1, 815742, Note_on_c, 0, 32, 46
1, 815743, Note_on_c, 0, 65, 52
1, 815747, Note_on_c, 0, 44, 38
1, 815755, Control_c, 0, 67, 60
1, 815759, Note_off_c, 0, 33, 39
1, 815769, Control_c, 0, 64, 106
1, 815774, Note_on_c, 0, 59, 31
1, 815784, Control_c, 0, 64, 81
1, 815784, Control_c, 0, 67, 61
1, 815807, Control_c, 0, 64, 69
1, 815822, Control_c, 0, 64, 67
1, 815822, Control_c, 0, 67, 61
1, 815837, Control_c, 0, 64, 71
1, 815852, Control_c, 0, 64, 77
1, 815866, Control_c, 0, 64, 91
1, 815881, Control_c, 0, 64, 127
1, 815891, Note_off_c, 0, 65, 62
1, 815896, Control_c, 0, 67, 61
1, 815920, Note_off_c, 0, 44, 42
1, 815925, Control_c, 0, 67, 60
1, 815940, Control_c, 0, 67, 60
1, 815953, Note_off_c, 0, 59, 48
1, 815955, Control_c, 0, 67, 59
1, 815961, Note_off_c, 0, 64, 64
1, 816077, Note_on_c, 0, 69, 69
1, 816103, Control_c, 0, 67, 60
1, 816103, Note_on_c, 0, 66, 51
1, 816111, Note_off_c, 0, 32, 43
1, 816116, Note_on_c, 0, 30, 44
1, 816118, Control_c, 0, 64, 91
1, 816118, Control_c, 0, 67, 61
1, 816124, Note_on_c, 0, 42, 43
1, 816133, Control_c, 0, 64, 66
1, 816133, Control_c, 0, 67, 61
1, 816148, Control_c, 0, 64, 0
1, 816151, Note_on_c, 0, 57, 33
1, 816158, Note_off_c, 0, 71, 64
1, 816163, Control_c, 0, 67, 62
1, 816192, Control_c, 0, 64, 42
1, 816207, Control_c, 0, 64, 64
1, 816222, Control_c, 0, 64, 74
1, 816237, Control_c, 0, 64, 88
1, 816251, Control_c, 0, 64, 127
1, 816270, Note_off_c, 0, 57, 59
1, 816341, Control_c, 0, 67, 62
1, 816371, Control_c, 0, 67, 63
1, 816398, Note_off_c, 0, 30, 40
1, 816400, Control_c, 0, 67, 63
1, 816416, Note_on_c, 0, 68, 70
1, 816435, Note_on_c, 0, 56, 52
1, 816449, Note_off_c, 0, 69, 62
1, 816467, Note_off_c, 0, 56, 64
1, 816489, Control_c, 0, 67, 64
1, 816518, Control_c, 0, 67, 64
1, 816556, Control_c, 0, 67, 65
1, 816560, Note_on_c, 0, 69, 79
1, 816577, Note_on_c, 0, 57, 56
1, 816586, Control_c, 0, 67, 65
1, 816600, Control_c, 0, 67, 66
1, 816615, Control_c, 0, 67, 67
1, 816624, Note_off_c, 0, 57, 51
1, 816630, Control_c, 0, 67, 68
1, 816645, Control_c, 0, 67, 69
1, 816656, Note_off_c, 0, 69, 61
1, 816660, Control_c, 0, 67, 70
1, 816673, Note_off_c, 0, 68, 29
1, 816674, Control_c, 0, 67, 70
1, 816689, Control_c, 0, 67, 71
1, 816704, Control_c, 0, 67, 72
1, 816719, Control_c, 0, 67, 72
1, 816733, Control_c, 0, 67, 73
1, 816748, Control_c, 0, 67, 74
1, 816763, Control_c, 0, 67, 76
1, 816771, Note_on_c, 0, 71, 74
1, 816778, Control_c, 0, 67, 77
1, 816787, Note_on_c, 0, 63, 59
1, 816793, Control_c, 0, 64, 109
1, 816793, Control_c, 0, 67, 80
1, 816802, Note_off_c, 0, 42, 41
1, 816807, Control_c, 0, 64, 80
1, 816807, Control_c, 0, 67, 83
1, 816808, Note_on_c, 0, 47, 42
1, 816808, Note_on_c, 0, 59, 49
1, 816809, Note_on_c, 0, 35, 45
1, 816818, Note_off_c, 0, 66, 59
1, 816822, Control_c, 0, 64, 43
1, 816822, Control_c, 0, 67, 87
1, 816837, Control_c, 0, 64, 0
1, 816837, Control_c, 0, 67, 90
1, 816852, Control_c, 0, 67, 94
1, 816867, Control_c, 0, 64, 23
1, 816867, Control_c, 0, 67, 96
1, 816881, Control_c, 0, 64, 57
1, 816881, Control_c, 0, 67, 99
1, 816896, Control_c, 0, 64, 66
1, 816896, Control_c, 0, 67, 102
1, 816911, Control_c, 0, 64, 76
1, 816911, Control_c, 0, 67, 105
1, 816926, Control_c, 0, 64, 91
1, 816926, Control_c, 0, 67, 107
1, 816929, Note_off_c, 0, 47, 54
1, 816941, Control_c, 0, 64, 127
1, 816941, Control_c, 0, 67, 110
1, 816955, Control_c, 0, 67, 113
1, 816970, Control_c, 0, 67, 116
1, 816975, Note_off_c, 0, 59, 56
1, 816985, Control_c, 0, 67, 119
1, 816997, Note_off_c, 0, 71, 60
1, 817000, Control_c, 0, 67, 122
1, 817015, Control_c, 0, 67, 124
1, 817030, Control_c, 0, 67, 127
1, 817045, Control_c, 0, 67, 127
1, 817110, Note_on_c, 0, 69, 70
1, 817114, Note_on_c, 0, 66, 66
1, 817122, Note_on_c, 0, 57, 50
1, 817122, Note_off_c, 0, 63, 62
1, 817137, Note_off_c, 0, 69, 65
1, 817140, Note_off_c, 0, 66, 66
1, 817148, Note_off_c, 0, 57, 58
1, 817213, Note_on_c, 0, 69, 62
1, 817218, Note_on_c, 0, 66, 39
1, 817243, Note_on_c, 0, 28, 46
1, 817243, Note_on_c, 0, 57, 42
1, 817247, Note_on_c, 0, 40, 42
1, 817268, Control_c, 0, 64, 105
1, 817274, Note_off_c, 0, 66, 0
1, 817274, Note_on_c, 0, 66, 32
1, 817283, Control_c, 0, 64, 75
1, 817289, Note_off_c, 0, 35, 46
1, 817304, Control_c, 0, 64, 39
1, 817319, Control_c, 0, 64, 0
1, 817379, Control_c, 0, 64, 47
1, 817394, Control_c, 0, 64, 68
1, 817409, Control_c, 0, 64, 79
1, 817423, Control_c, 0, 64, 98
1, 817438, Control_c, 0, 64, 127
1, 817483, Note_off_c, 0, 66, 57
1, 817513, Control_c, 0, 67, 127
1, 817528, Control_c, 0, 67, 126
1, 817574, Note_off_c, 0, 57, 26
1, 817587, Control_c, 0, 67, 126
1, 817690, Control_c, 0, 64, 110
1, 817705, Control_c, 0, 64, 81
1, 817707, Note_on_c, 0, 68, 57
1, 817720, Control_c, 0, 64, 63
1, 817722, Note_on_c, 0, 64, 35
1, 817735, Control_c, 0, 64, 0
1, 817741, Note_on_c, 0, 56, 34
1, 817749, Control_c, 0, 64, 50
1, 817764, Control_c, 0, 64, 66
1, 817779, Control_c, 0, 64, 74
1, 817794, Control_c, 0, 64, 86
1, 817799, Note_off_c, 0, 69, 55
1, 817802, Note_off_c, 0, 28, 49
1, 817809, Control_c, 0, 64, 114
1, 817823, Control_c, 0, 64, 127
1, 817823, Control_c, 0, 67, 125
1, 817838, Control_c, 0, 67, 124
1, 817853, Control_c, 0, 67, 123
1, 817869, Control_c, 0, 67, 122
1, 817884, Control_c, 0, 67, 122
1, 817887, Note_off_c, 0, 56, 51
1, 817889, Note_off_c, 0, 40, 40
1, 817899, Control_c, 0, 67, 121
1, 817914, Control_c, 0, 67, 121
1, 817943, Control_c, 0, 67, 120
1, 818033, Note_on_c, 0, 67, 68
1, 818054, Note_on_c, 0, 47, 72
1, 818069, Control_c, 0, 64, 116
1, 818080, Note_on_c, 0, 55, 49
1, 818084, Control_c, 0, 64, 82
1, 818094, Note_on_c, 0, 35, 42
1, 818098, Control_c, 0, 64, 64
1, 818098, Control_c, 0, 67, 121
1, 818113, Control_c, 0, 64, 26
1, 818128, Control_c, 0, 64, 58
1, 818133, Note_off_c, 0, 64, 45
1, 818143, Control_c, 0, 64, 69
1, 818158, Control_c, 0, 64, 82
1, 818158, Control_c, 0, 67, 120
1, 818172, Control_c, 0, 64, 110
1, 818172, Control_c, 0, 67, 120
1, 818187, Control_c, 0, 64, 127
1, 818187, Control_c, 0, 67, 119
1, 818202, Control_c, 0, 67, 119
1, 818217, Control_c, 0, 67, 118
1, 818232, Control_c, 0, 67, 116
1, 818246, Control_c, 0, 67, 114
1, 818261, Control_c, 0, 67, 112
1, 818276, Control_c, 0, 67, 111
1, 818291, Control_c, 0, 67, 110
1, 818295, Note_off_c, 0, 47, 63
1, 818306, Control_c, 0, 67, 109
1, 818315, Note_off_c, 0, 35, 42
1, 818321, Control_c, 0, 67, 109
1, 818332, Note_off_c, 0, 55, 38
1, 818336, Control_c, 0, 67, 107
1, 818350, Control_c, 0, 67, 105
1, 818365, Control_c, 0, 67, 103
1, 818380, Control_c, 0, 67, 101
1, 818394, Note_on_c, 0, 66, 68
1, 818395, Control_c, 0, 67, 100
1, 818395, Note_on_c, 0, 47, 77
1, 818408, Note_on_c, 0, 35, 52
1, 818410, Control_c, 0, 67, 99
1, 818425, Control_c, 0, 67, 98
1, 818440, Control_c, 0, 67, 96
1, 818454, Control_c, 0, 67, 94
1, 818469, Control_c, 0, 67, 92
1, 818470, Note_off_c, 0, 35, 61
1, 818484, Control_c, 0, 67, 88
1, 818498, Control_c, 0, 67, 85
1, 818513, Control_c, 0, 67, 81
1, 818522, Note_off_c, 0, 68, 41
1, 818528, Control_c, 0, 67, 78
1, 818543, Control_c, 0, 67, 73
1, 818558, Control_c, 0, 67, 69
1, 818572, Control_c, 0, 67, 66
1, 818574, Note_off_c, 0, 47, 65
1, 818587, Control_c, 0, 67, 63
1, 818602, Control_c, 0, 67, 60
1, 818617, Control_c, 0, 67, 59
1, 818632, Control_c, 0, 67, 57
1, 818646, Control_c, 0, 67, 56
1, 818661, Control_c, 0, 67, 55
1, 818677, Control_c, 0, 67, 54
1, 818692, Control_c, 0, 67, 53
1, 818707, Control_c, 0, 67, 52
1, 818719, Note_on_c, 0, 55, 85
1, 818721, Control_c, 0, 67, 51
1, 818736, Control_c, 0, 67, 49
1, 818746, Note_on_c, 0, 64, 61
1, 818748, Note_on_c, 0, 43, 66
1, 818751, Control_c, 0, 67, 47
1, 818766, Control_c, 0, 67, 46
1, 818781, Control_c, 0, 67, 44
1, 818803, Control_c, 0, 67, 43
1, 818818, Control_c, 0, 67, 41
1, 818833, Control_c, 0, 67, 40
1, 818848, Control_c, 0, 67, 37
1, 818863, Control_c, 0, 67, 34
1, 818877, Control_c, 0, 67, 32
1, 818892, Control_c, 0, 67, 30
1, 818906, Note_off_c, 0, 55, 63
1, 818906, Control_c, 0, 67, 28
1, 818920, Control_c, 0, 67, 27
1, 818929, Note_off_c, 0, 67, 35
1, 818935, Control_c, 0, 67, 26
1, 818950, Control_c, 0, 67, 25
1, 818965, Control_c, 0, 67, 24
1, 818994, Control_c, 0, 67, 24
1, 819034, Note_on_c, 0, 54, 88
1, 819036, Note_off_c, 0, 43, 53
1, 819045, Note_on_c, 0, 42, 73
1, 819047, Note_on_c, 0, 67, 67
1, 819054, Control_c, 0, 67, 23
1, 819069, Control_c, 0, 67, 23
1, 819072, Note_on_c, 0, 62, 56
1, 819084, Control_c, 0, 64, 99
1, 819084, Control_c, 0, 67, 22
1, 819099, Control_c, 0, 64, 72
1, 819099, Control_c, 0, 67, 21
1, 819114, Control_c, 0, 64, 55
1, 819114, Control_c, 0, 67, 20
1, 819126, Note_off_c, 0, 64, 62
1, 819128, Control_c, 0, 64, 51
1, 819128, Control_c, 0, 67, 19
1, 819143, Control_c, 0, 64, 63
1, 819143, Control_c, 0, 67, 16
1, 819158, Control_c, 0, 64, 71
1, 819158, Control_c, 0, 67, 13
1, 819161, Note_off_c, 0, 66, 59
1, 819173, Control_c, 0, 64, 82
1, 819173, Control_c, 0, 67, 9
1, 819188, Control_c, 0, 64, 127
1, 819188, Control_c, 0, 67, 0
1, 819239, Note_off_c, 0, 54, 62
1, 819367, Note_on_c, 0, 52, 84
1, 819391, Note_on_c, 0, 40, 66
1, 819391, Note_on_c, 0, 61, 60
1, 819394, Control_c, 0, 64, 88
1, 819409, Control_c, 0, 64, 61
1, 819417, Note_off_c, 0, 42, 56
1, 819424, Control_c, 0, 64, 0
1, 819440, Note_off_c, 0, 62, 51
1, 819470, Control_c, 0, 64, 40
1, 819485, Control_c, 0, 64, 70
1, 819499, Control_c, 0, 64, 87
1, 819514, Control_c, 0, 64, 127
1, 819518, Note_off_c, 0, 61, 63
1, 819566, Note_off_c, 0, 67, 61
1, 819709, Note_on_c, 0, 79, 86
1, 819732, Note_on_c, 0, 67, 67
1, 819844, Note_off_c, 0, 67, 54
1, 819879, Note_off_c, 0, 52, 59
1, 820023, Note_on_c, 0, 38, 61
1, 820023, Note_on_c, 0, 78, 80
1, 820032, Note_on_c, 0, 50, 50
1, 820042, Note_on_c, 0, 71, 59
1, 820059, Note_off_c, 0, 79, 63
1, 820068, Note_off_c, 0, 40, 51
1, 820069, Control_c, 0, 64, 88
1, 820084, Control_c, 0, 64, 66
1, 820099, Control_c, 0, 64, 0
1, 820129, Control_c, 0, 64, 31
1, 820143, Control_c, 0, 64, 63
1, 820158, Control_c, 0, 64, 71
1, 820173, Control_c, 0, 64, 85
1, 820188, Control_c, 0, 64, 127
1, 820362, Note_on_c, 0, 76, 81
1, 820419, Control_c, 0, 67, 9
1, 820434, Control_c, 0, 64, 82
1, 820434, Control_c, 0, 67, 10
1, 820435, Note_off_c, 0, 50, 64
1, 820449, Control_c, 0, 64, 68
1, 820449, Control_c, 0, 67, 12
1, 820464, Control_c, 0, 67, 13
1, 820479, Control_c, 0, 64, 75
1, 820479, Control_c, 0, 67, 13
1, 820493, Control_c, 0, 64, 85
1, 820493, Control_c, 0, 67, 14
1, 820508, Control_c, 0, 64, 105
1, 820508, Control_c, 0, 67, 16
1, 820518, Note_off_c, 0, 78, 61
1, 820523, Control_c, 0, 64, 127
1, 820523, Control_c, 0, 67, 18
1, 820538, Control_c, 0, 67, 20
1, 820553, Control_c, 0, 67, 22
1, 820568, Control_c, 0, 67, 24
1, 820582, Control_c, 0, 67, 25
1, 820597, Control_c, 0, 67, 27
1, 820612, Control_c, 0, 67, 28
1, 820627, Control_c, 0, 67, 30
1, 820642, Control_c, 0, 67, 32
1, 820656, Control_c, 0, 64, 88
1, 820656, Control_c, 0, 67, 34
1, 820657, Note_on_c, 0, 75, 75
1, 820671, Control_c, 0, 64, 66
1, 820671, Control_c, 0, 67, 36
1, 820682, Note_on_c, 0, 37, 49
1, 820686, Control_c, 0, 64, 0
1, 820686, Control_c, 0, 67, 37
1, 820688, Note_on_c, 0, 70, 49
1, 820688, Note_on_c, 0, 49, 48
1, 820696, Note_off_c, 0, 76, 59
1, 820700, Control_c, 0, 64, 31
1, 820700, Control_c, 0, 67, 38
1, 820715, Control_c, 0, 64, 63
1, 820723, Note_off_c, 0, 38, 37
1, 820730, Control_c, 0, 64, 71
1, 820745, Control_c, 0, 64, 82
1, 820745, Control_c, 0, 67, 38
1, 820749, Note_off_c, 0, 71, 52
1, 820760, Control_c, 0, 64, 103
1, 820774, Control_c, 0, 64, 127
1, 820774, Control_c, 0, 67, 39
1, 820789, Control_c, 0, 67, 40
1, 820795, Note_on_c, 0, 76, 88
1, 820804, Control_c, 0, 67, 40
1, 820819, Control_c, 0, 67, 41
1, 820822, Note_off_c, 0, 49, 62
1, 820829, Note_off_c, 0, 37, 34
1, 820834, Control_c, 0, 67, 42
1, 820848, Control_c, 0, 67, 44
1, 820863, Control_c, 0, 67, 45
1, 820878, Control_c, 0, 67, 47
1, 820893, Control_c, 0, 67, 48
1, 820908, Control_c, 0, 67, 48
1, 820923, Control_c, 0, 67, 49
1, 820953, Control_c, 0, 64, 108
1, 820966, Note_on_c, 0, 78, 77
1, 820967, Control_c, 0, 64, 80
1, 820967, Control_c, 0, 67, 49
1, 820977, Note_on_c, 0, 42, 48
1, 820982, Control_c, 0, 64, 63
1, 820982, Control_c, 0, 67, 50
1, 820988, Note_on_c, 0, 54, 40
1, 820990, Note_on_c, 0, 69, 54
1, 820997, Control_c, 0, 64, 0
1, 820997, Control_c, 0, 67, 51
1, 821010, Note_off_c, 0, 75, 62
1, 821012, Control_c, 0, 64, 40
1, 821012, Control_c, 0, 67, 51
1, 821027, Control_c, 0, 64, 63
1, 821027, Control_c, 0, 67, 52
1, 821029, Note_off_c, 0, 70, 63
1, 821033, Note_off_c, 0, 76, 58
1, 821048, Control_c, 0, 64, 70
1, 821048, Control_c, 0, 67, 52
1, 821063, Control_c, 0, 64, 80
1, 821063, Control_c, 0, 67, 53
1, 821069, Note_off_c, 0, 54, 63
1, 821079, Control_c, 0, 64, 98
1, 821079, Control_c, 0, 67, 55
1, 821094, Control_c, 0, 64, 127
1, 821094, Control_c, 0, 67, 58
1, 821109, Control_c, 0, 67, 62
1, 821123, Control_c, 0, 67, 67
1, 821138, Control_c, 0, 67, 73
1, 821152, Control_c, 0, 67, 78
1, 821167, Control_c, 0, 67, 82
1, 821182, Control_c, 0, 67, 87
1, 821196, Control_c, 0, 67, 92
1, 821211, Control_c, 0, 67, 97
1, 821226, Control_c, 0, 67, 102
1, 821230, Note_off_c, 0, 78, 63
1, 821232, Note_on_c, 0, 76, 72
1, 821241, Control_c, 0, 67, 109
1, 821252, Note_off_c, 0, 42, 62
1, 821256, Control_c, 0, 67, 115
1, 821270, Control_c, 0, 67, 121
1, 821271, Note_off_c, 0, 76, 59
1, 821285, Control_c, 0, 67, 127
1, 821300, Control_c, 0, 64, 118
1, 821300, Control_c, 0, 67, 127
1, 821314, Control_c, 0, 64, 81
1, 821320, Note_on_c, 0, 76, 66
1, 821329, Control_c, 0, 64, 58
1, 821338, Note_on_c, 0, 35, 51
1, 821344, Control_c, 0, 64, 0
1, 821349, Note_on_c, 0, 47, 42
1, 821403, Control_c, 0, 64, 63
1, 821418, Control_c, 0, 64, 74
1, 821433, Control_c, 0, 64, 90
1, 821448, Control_c, 0, 64, 127
1, 821485, Note_off_c, 0, 35, 61
1, 821569, Note_off_c, 0, 47, 41
1, 821718, Note_on_c, 0, 55, 50
1, 821718, Note_on_c, 0, 75, 55
1, 821728, Note_on_c, 0, 43, 45
1, 821744, Note_on_c, 0, 71, 42
1, 821759, Control_c, 0, 64, 89
1, 821774, Control_c, 0, 64, 68
1, 821782, Note_off_c, 0, 76, 52
1, 821796, Control_c, 0, 64, 44
1, 821811, Control_c, 0, 64, 58
1, 821826, Control_c, 0, 64, 68
1, 821840, Control_c, 0, 64, 78
1, 821840, Control_c, 0, 67, 124
1, 821855, Control_c, 0, 64, 97
1, 821855, Control_c, 0, 67, 122
1, 821871, Control_c, 0, 64, 127
1, 821871, Control_c, 0, 67, 120
1, 821886, Control_c, 0, 67, 118
1, 821901, Control_c, 0, 67, 114
1, 821904, Note_off_c, 0, 55, 63
1, 821906, Note_off_c, 0, 71, 59
1, 821913, Note_off_c, 0, 69, 49
1, 821916, Control_c, 0, 67, 111
1, 821931, Control_c, 0, 67, 106
1, 821945, Control_c, 0, 67, 102
1, 821960, Control_c, 0, 67, 98
1, 821975, Control_c, 0, 67, 96
1, 821990, Control_c, 0, 67, 94
1, 822005, Control_c, 0, 67, 94
1, 822027, Note_on_c, 0, 71, 69
1, 822032, Note_on_c, 0, 54, 64
1, 822034, Control_c, 0, 67, 93
1, 822036, Note_on_c, 0, 42, 66
1, 822040, Note_off_c, 0, 43, 62
1, 822049, Control_c, 0, 67, 93
1, 822052, Note_on_c, 0, 69, 52
1, 822064, Control_c, 0, 64, 91
1, 822064, Control_c, 0, 67, 92
1, 822079, Control_c, 0, 64, 70
1, 822079, Control_c, 0, 67, 91
1, 822093, Control_c, 0, 64, 54
1, 822093, Control_c, 0, 67, 89
1, 822108, Control_c, 0, 64, 61
1, 822108, Control_c, 0, 67, 86
1, 822123, Control_c, 0, 64, 69
1, 822123, Control_c, 0, 67, 82
1, 822137, Control_c, 0, 64, 81
1, 822137, Control_c, 0, 67, 75
1, 822152, Control_c, 0, 64, 104
1, 822152, Control_c, 0, 67, 67
1, 822167, Control_c, 0, 64, 127
1, 822167, Control_c, 0, 67, 59
1, 822182, Control_c, 0, 67, 51
1, 822197, Control_c, 0, 67, 45
1, 822211, Control_c, 0, 67, 39
1, 822226, Note_off_c, 0, 69, 58
1, 822226, Control_c, 0, 67, 35
1, 822239, Note_off_c, 0, 54, 64
1, 822241, Control_c, 0, 67, 31
1, 822256, Control_c, 0, 67, 27
1, 822270, Control_c, 0, 67, 25
1, 822276, Note_off_c, 0, 71, 63
1, 822285, Control_c, 0, 67, 23
1, 822300, Control_c, 0, 67, 21
1, 822315, Control_c, 0, 67, 19
1, 822330, Note_off_c, 0, 75, 16
1, 822330, Control_c, 0, 67, 18
1, 822345, Control_c, 0, 67, 17
1, 822370, Note_on_c, 0, 71, 68
1, 822372, Note_on_c, 0, 40, 67
1, 822372, Note_on_c, 0, 52, 57
1, 822392, Note_on_c, 0, 67, 52
1, 822405, Control_c, 0, 64, 121
1, 822419, Control_c, 0, 64, 79
1, 822428, Note_off_c, 0, 42, 61
1, 822434, Control_c, 0, 64, 47
1, 822449, Control_c, 0, 64, 0
1, 822478, Control_c, 0, 67, 17
1, 822493, Control_c, 0, 67, 16
1, 822508, Control_c, 0, 67, 15
1, 822523, Control_c, 0, 64, 64
1, 822523, Control_c, 0, 67, 12
1, 822545, Control_c, 0, 64, 74
1, 822545, Control_c, 0, 67, 0
1, 822560, Control_c, 0, 64, 88
1, 822574, Control_c, 0, 64, 123
1, 822589, Control_c, 0, 64, 127
1, 822742, Note_on_c, 0, 79, 90
1, 822909, Note_off_c, 0, 71, 55
1, 822923, Note_off_c, 0, 52, 55
1, 822944, Note_off_c, 0, 67, 55
1, 823047, Note_on_c, 0, 78, 85
1, 823063, Note_on_c, 0, 50, 65
1, 823063, Note_on_c, 0, 38, 67
1, 823064, Control_c, 0, 64, 92
1, 823079, Control_c, 0, 64, 70
1, 823091, Note_off_c, 0, 40, 49
1, 823093, Control_c, 0, 64, 36
1, 823108, Control_c, 0, 64, 54
1, 823123, Note_off_c, 0, 79, 55
1, 823123, Control_c, 0, 64, 66
1, 823138, Control_c, 0, 64, 73
1, 823153, Control_c, 0, 64, 83
1, 823168, Control_c, 0, 64, 102
1, 823183, Control_c, 0, 64, 127
1, 823208, Note_off_c, 0, 50, 63
1, 823415, Note_off_c, 0, 78, 60
1, 823439, Note_on_c, 0, 77, 69
1, 823446, Note_on_c, 0, 74, 74
1, 823477, Note_on_c, 0, 49, 74
1, 823484, Note_off_c, 0, 38, 61
1, 823488, Control_c, 0, 64, 92
1, 823503, Control_c, 0, 64, 68
1, 823507, Note_on_c, 0, 37, 45
1, 823517, Control_c, 0, 64, 0
1, 823577, Control_c, 0, 64, 51
1, 823582, Note_off_c, 0, 37, 61
1, 823591, Control_c, 0, 64, 68
1, 823606, Control_c, 0, 64, 83
1, 823621, Control_c, 0, 64, 127
1, 823665, Note_off_c, 0, 49, 63
1, 823849, Note_on_c, 0, 57, 79
1, 823871, Note_on_c, 0, 45, 72
1, 823877, Note_on_c, 0, 73, 60
1, 824017, Note_off_c, 0, 57, 60
1, 824053, Note_off_c, 0, 73, 60
1, 824138, Note_off_c, 0, 45, 63
1, 824164, Note_on_c, 0, 73, 85
1, 824166, Note_on_c, 0, 56, 90
1, 824172, Note_on_c, 0, 44, 81
1, 824181, Note_on_c, 0, 71, 68
1, 824221, Control_c, 0, 64, 115
1, 824235, Control_c, 0, 64, 82
1, 824250, Control_c, 0, 64, 66
1, 824267, Control_c, 0, 64, 53
1, 824282, Note_off_c, 0, 74, 38
1, 824282, Control_c, 0, 64, 52
1, 824296, Control_c, 0, 64, 61
1, 824311, Control_c, 0, 64, 66
1, 824326, Control_c, 0, 64, 75
1, 824340, Control_c, 0, 64, 87
1, 824355, Control_c, 0, 64, 118
1, 824370, Control_c, 0, 64, 127
1, 824403, Note_off_c, 0, 56, 61
1, 824411, Note_off_c, 0, 71, 62
1, 824435, Note_off_c, 0, 73, 62
1, 824522, Note_on_c, 0, 73, 86
1, 824550, Note_on_c, 0, 69, 58
1, 824573, Note_on_c, 0, 54, 73
1, 824601, Note_on_c, 0, 42, 64
1, 824612, Note_off_c, 0, 77, 57
1, 824637, Control_c, 0, 64, 101
1, 824643, Note_off_c, 0, 44, 58
1, 824652, Control_c, 0, 64, 81
1, 824666, Control_c, 0, 64, 67
1, 824681, Control_c, 0, 64, 26
1, 824696, Control_c, 0, 64, 0
1, 824881, Control_c, 0, 64, 63
1, 824895, Control_c, 0, 64, 72
1, 824910, Control_c, 0, 64, 82
1, 824925, Control_c, 0, 64, 95
1, 824939, Control_c, 0, 64, 113
1, 824954, Control_c, 0, 64, 127
1, 824965, Note_on_c, 0, 81, 90
1, 825013, Control_c, 0, 67, 8
1, 825028, Control_c, 0, 67, 9
1, 825043, Control_c, 0, 67, 11
1, 825059, Control_c, 0, 67, 12
1, 825074, Control_c, 0, 67, 13
1, 825088, Control_c, 0, 67, 15
1, 825101, Note_off_c, 0, 54, 61
1, 825103, Control_c, 0, 67, 17
1, 825114, Note_off_c, 0, 69, 58
1, 825118, Control_c, 0, 67, 18
1, 825125, Note_off_c, 0, 73, 61
1, 825133, Control_c, 0, 67, 20
1, 825148, Control_c, 0, 67, 21
1, 825162, Control_c, 0, 67, 21
1, 825177, Control_c, 0, 67, 22
1, 825192, Control_c, 0, 67, 23
1, 825207, Control_c, 0, 67, 24
1, 825222, Control_c, 0, 67, 25
1, 825236, Control_c, 0, 67, 26
1, 825251, Control_c, 0, 67, 27
1, 825266, Control_c, 0, 67, 28
1, 825281, Control_c, 0, 67, 30
1, 825296, Control_c, 0, 67, 31
1, 825311, Note_on_c, 0, 80, 81
1, 825311, Control_c, 0, 67, 32
1, 825321, Note_on_c, 0, 73, 68
1, 825326, Control_c, 0, 67, 34
1, 825327, Note_on_c, 0, 52, 53
1, 825338, Note_on_c, 0, 40, 53
1, 825341, Control_c, 0, 67, 37
1, 825351, Note_on_c, 0, 68, 46
1, 825356, Control_c, 0, 64, 87
1, 825356, Control_c, 0, 67, 39
1, 825361, Note_off_c, 0, 81, 61
1, 825368, Note_off_c, 0, 42, 40
1, 825370, Control_c, 0, 64, 61
1, 825370, Control_c, 0, 67, 41
1, 825385, Control_c, 0, 64, 0
1, 825385, Control_c, 0, 67, 42
1, 825400, Control_c, 0, 64, 34
1, 825400, Control_c, 0, 67, 43
1, 825415, Control_c, 0, 64, 62
1, 825415, Control_c, 0, 67, 44
1, 825429, Control_c, 0, 64, 68
1, 825429, Control_c, 0, 67, 46
1, 825444, Control_c, 0, 64, 78
1, 825444, Control_c, 0, 67, 47
1, 825459, Control_c, 0, 64, 97
1, 825459, Control_c, 0, 67, 49
1, 825474, Control_c, 0, 64, 127
1, 825474, Control_c, 0, 67, 51
1, 825488, Control_c, 0, 67, 53
1, 825497, Note_off_c, 0, 52, 60
1, 825503, Control_c, 0, 67, 54
1, 825518, Control_c, 0, 67, 57
1, 825540, Control_c, 0, 67, 58
1, 825555, Control_c, 0, 67, 59
1, 825558, Note_off_c, 0, 68, 56
1, 825570, Control_c, 0, 67, 60
1, 825585, Control_c, 0, 67, 60
1, 825600, Control_c, 0, 67, 61
1, 825615, Control_c, 0, 67, 61
1, 825630, Control_c, 0, 67, 62
1, 825644, Control_c, 0, 67, 63
1, 825659, Control_c, 0, 67, 64
1, 825674, Control_c, 0, 67, 65
1, 825684, Note_on_c, 0, 78, 74
1, 825684, Note_off_c, 0, 40, 58
1, 825688, Control_c, 0, 64, 90
1, 825688, Control_c, 0, 67, 66
1, 825698, Note_on_c, 0, 39, 54
1, 825701, Note_on_c, 0, 51, 52
1, 825703, Control_c, 0, 64, 68
1, 825703, Control_c, 0, 67, 68
1, 825711, Note_on_c, 0, 66, 51
1, 825716, Note_off_c, 0, 80, 62
1, 825718, Control_c, 0, 64, 0
1, 825718, Control_c, 0, 67, 70
1, 825733, Control_c, 0, 67, 71
1, 825748, Control_c, 0, 64, 34
1, 825762, Control_c, 0, 64, 64
1, 825777, Control_c, 0, 64, 73
1, 825777, Control_c, 0, 67, 71
1, 825792, Control_c, 0, 64, 87
1, 825806, Control_c, 0, 64, 127
1, 825854, Note_off_c, 0, 73, 62
1, 825916, Note_off_c, 0, 66, 60
1, 825971, Control_c, 0, 67, 72
1, 826030, Control_c, 0, 64, 95
1, 826045, Control_c, 0, 64, 74
1, 826049, Note_on_c, 0, 77, 59
1, 826057, Note_on_c, 0, 71, 53
1, 826059, Control_c, 0, 64, 68
1, 826071, Note_on_c, 0, 65, 38
1, 826074, Control_c, 0, 64, 73
1, 826089, Control_c, 0, 64, 81
1, 826089, Control_c, 0, 67, 72
1, 826090, Note_off_c, 0, 78, 54
1, 826104, Control_c, 0, 64, 95
1, 826119, Control_c, 0, 64, 127
1, 826124, Note_off_c, 0, 65, 52
1, 826178, Control_c, 0, 64, 123
1, 826193, Control_c, 0, 64, 96
1, 826208, Control_c, 0, 64, 86
1, 826223, Control_c, 0, 64, 83
1, 826237, Control_c, 0, 64, 87
1, 826241, Note_off_c, 0, 77, 57
1, 826245, Note_on_c, 0, 78, 66
1, 826252, Control_c, 0, 64, 92
1, 826254, Note_off_c, 0, 71, 63
1, 826267, Control_c, 0, 64, 102
1, 826267, Control_c, 0, 67, 73
1, 826273, Note_on_c, 0, 66, 40
1, 826289, Control_c, 0, 64, 124
1, 826289, Control_c, 0, 67, 73
1, 826304, Control_c, 0, 64, 127
1, 826304, Control_c, 0, 67, 74
1, 826318, Control_c, 0, 67, 76
1, 826327, Note_off_c, 0, 66, 47
1, 826333, Control_c, 0, 67, 77
1, 826342, Note_off_c, 0, 51, 36
1, 826348, Control_c, 0, 67, 78
1, 826408, Control_c, 0, 67, 78
1, 826438, Control_c, 0, 67, 79
1, 826453, Control_c, 0, 67, 79
1, 826467, Control_c, 0, 64, 109
1, 826467, Control_c, 0, 67, 80
1, 826482, Control_c, 0, 64, 82
1, 826482, Control_c, 0, 67, 81
1, 826497, Control_c, 0, 64, 65
1, 826497, Control_c, 0, 67, 82
1, 826501, Note_off_c, 0, 39, 38
1, 826512, Control_c, 0, 64, 0
1, 826512, Control_c, 0, 67, 84
1, 826514, Note_on_c, 0, 38, 40
1, 826517, Note_on_c, 0, 80, 56
1, 826518, Note_on_c, 0, 72, 47
1, 826525, Note_on_c, 0, 50, 35
1, 826527, Control_c, 0, 67, 85
1, 826533, Note_on_c, 0, 68, 39
1, 826542, Control_c, 0, 64, 39
1, 826542, Control_c, 0, 67, 86
1, 826544, Note_off_c, 0, 78, 36
1, 826557, Control_c, 0, 64, 62
1, 826557, Control_c, 0, 67, 86
1, 826572, Control_c, 0, 64, 70
1, 826572, Control_c, 0, 67, 87
1, 826586, Control_c, 0, 64, 83
1, 826586, Control_c, 0, 67, 88
1, 826601, Control_c, 0, 64, 113
1, 826616, Control_c, 0, 64, 127
1, 826679, Note_off_c, 0, 80, 57
1, 826682, Note_off_c, 0, 68, 49
1, 826714, Note_off_c, 0, 50, 35
1, 826795, Control_c, 0, 67, 88
1, 826809, Control_c, 0, 67, 89
1, 826824, Control_c, 0, 67, 89
1, 826839, Control_c, 0, 67, 90
1, 826853, Control_c, 0, 67, 93
1, 826868, Control_c, 0, 67, 94
1, 826883, Control_c, 0, 67, 96
1, 826898, Control_c, 0, 67, 97
1, 826913, Control_c, 0, 67, 98
1, 826927, Control_c, 0, 67, 100
1, 826929, Note_on_c, 0, 78, 55
1, 826938, Note_on_c, 0, 66, 45
1, 826942, Control_c, 0, 67, 101
1, 826957, Control_c, 0, 67, 103
1, 826972, Control_c, 0, 67, 104
1, 826980, Note_off_c, 0, 66, 61
1, 826987, Control_c, 0, 67, 104
1, 827001, Control_c, 0, 67, 105
1, 827022, Note_off_c, 0, 78, 50
1, 827113, Control_c, 0, 67, 105
1, 827128, Control_c, 0, 67, 106
1, 827139, Note_on_c, 0, 77, 53
1, 827142, Control_c, 0, 67, 106
1, 827144, Note_off_c, 0, 38, 41
1, 827147, Note_off_c, 0, 72, 50
1, 827157, Control_c, 0, 67, 108
1, 827159, Note_on_c, 0, 65, 39
1, 827161, Note_on_c, 0, 37, 43
1, 827165, Note_on_c, 0, 49, 42
1, 827172, Note_on_c, 0, 73, 41
1, 827172, Control_c, 0, 64, 89
1, 827172, Control_c, 0, 67, 110
1, 827187, Control_c, 0, 64, 68
1, 827187, Control_c, 0, 67, 111
1, 827202, Control_c, 0, 64, 0
1, 827202, Control_c, 0, 67, 113
1, 827216, Control_c, 0, 67, 114
1, 827231, Control_c, 0, 67, 114
1, 827246, Control_c, 0, 67, 115
1, 827275, Control_c, 0, 67, 115
1, 827290, Control_c, 0, 64, 19
1, 827305, Control_c, 0, 64, 66
1, 827320, Control_c, 0, 64, 79
1, 827332, Note_off_c, 0, 37, 55
1, 827335, Control_c, 0, 64, 106
1, 827350, Control_c, 0, 64, 127
1, 827374, Note_off_c, 0, 49, 59
1, 827424, Control_c, 0, 67, 116
1, 827439, Control_c, 0, 67, 117
1, 827454, Control_c, 0, 67, 117
1, 827469, Control_c, 0, 67, 119
1, 827484, Control_c, 0, 67, 120
1, 827499, Control_c, 0, 67, 120
1, 827514, Control_c, 0, 67, 121
1, 827529, Control_c, 0, 67, 121
1, 827532, Note_off_c, 0, 65, 35
1, 827544, Control_c, 0, 67, 122
1, 827558, Control_c, 0, 67, 123
1, 827573, Control_c, 0, 67, 124
1, 827588, Control_c, 0, 67, 125
1, 827603, Control_c, 0, 67, 126
1, 827618, Control_c, 0, 67, 127
1, 827669, Note_on_c, 0, 69, 60
1, 827714, Note_on_c, 0, 61, 39
1, 827842, Note_off_c, 0, 69, 38
1, 827932, Note_off_c, 0, 73, 45
1, 828153, Note_on_c, 0, 68, 49
1, 828178, Note_on_c, 0, 59, 44
1, 828192, Note_on_c, 0, 65, 41
1, 828214, Note_off_c, 0, 68, 59
1, 828259, Note_off_c, 0, 65, 56
1, 828271, Note_off_c, 0, 59, 55
1, 828279, Note_off_c, 0, 61, 41
1, 828282, Note_on_c, 0, 73, 49
1, 828283, Note_off_c, 0, 77, 52
1, 828310, Note_off_c, 0, 73, 59
1, 828479, Note_on_c, 0, 73, 55
1, 828485, Control_c, 0, 64, 106
1, 828499, Control_c, 0, 64, 79
1, 828514, Control_c, 0, 64, 65
1, 828515, Note_off_c, 0, 73, 60
1, 828536, Control_c, 0, 64, 68
1, 828546, Note_on_c, 0, 80, 55
1, 828551, Note_on_c, 0, 49, 50
1, 828551, Control_c, 0, 64, 76
1, 828554, Note_on_c, 0, 59, 44
1, 828566, Control_c, 0, 64, 89
1, 828581, Control_c, 0, 64, 126
1, 828596, Control_c, 0, 64, 127
1, 828614, Note_off_c, 0, 49, 54
1, 828615, Note_on_c, 0, 73, 59
1, 828620, Note_off_c, 0, 59, 48
1, 828646, Note_off_c, 0, 80, 57
1, 828661, Note_off_c, 0, 73, 56
1, 828816, Note_on_c, 0, 73, 54
1, 828875, Note_on_c, 0, 69, 62
1, 828888, Note_on_c, 0, 65, 55
1, 828894, Note_on_c, 0, 61, 56
1, 828974, Note_off_c, 0, 65, 38
1, 828982, Note_off_c, 0, 69, 48
1, 829029, Note_off_c, 0, 73, 37
1, 829183, Note_off_c, 0, 61, 0
1, 829206, Note_on_c, 0, 68, 53
1, 829220, Poly_aftertouch_c, 0, 61, 127
1, 829227, Note_on_c, 0, 59, 41
1, 829231, Note_on_c, 0, 65, 48
1, 829240, Note_off_c, 0, 68, 64
1, 829270, Note_off_c, 0, 59, 60
1, 829274, Note_off_c, 0, 65, 58
1, 829284, Poly_aftertouch_c, 0, 61, 0
1, 829300, Note_on_c, 0, 73, 60
1, 829332, Note_off_c, 0, 73, 63
1, 829477, Control_c, 0, 64, 107
1, 829478, Note_on_c, 0, 73, 55
1, 829492, Control_c, 0, 64, 79
1, 829503, Note_off_c, 0, 73, 60
1, 829507, Control_c, 0, 64, 65
1, 829520, Note_on_c, 0, 49, 53
1, 829521, Note_on_c, 0, 59, 48
1, 829522, Note_on_c, 0, 80, 59
1, 829536, Control_c, 0, 64, 72
1, 829551, Control_c, 0, 64, 85
1, 829566, Control_c, 0, 64, 114
1, 829581, Control_c, 0, 64, 127
1, 829586, Note_on_c, 0, 73, 63
1, 829606, Note_off_c, 0, 49, 60
1, 829612, Note_off_c, 0, 80, 61
1, 829618, Note_off_c, 0, 59, 57
1, 829648, Note_off_c, 0, 73, 61
1, 829780, Note_on_c, 0, 73, 59
1, 829842, Note_on_c, 0, 69, 64
1, 829855, Note_on_c, 0, 65, 54
1, 829856, Note_on_c, 0, 61, 60
1, 829943, Note_off_c, 0, 69, 52
1, 829974, Note_off_c, 0, 65, 38
1, 830003, Note_off_c, 0, 73, 36
1, 830161, Note_on_c, 0, 68, 54
1, 830178, Note_on_c, 0, 59, 47
1, 830184, Note_on_c, 0, 65, 53
1, 830190, Note_off_c, 0, 68, 65
1, 830214, Note_off_c, 0, 59, 62
1, 830217, Note_off_c, 0, 61, 49
1, 830231, Note_off_c, 0, 65, 54
1, 830256, Note_on_c, 0, 73, 68
1, 830282, Note_off_c, 0, 73, 68
1, 830419, Control_c, 0, 64, 115
1, 830425, Note_on_c, 0, 73, 63
1, 830434, Control_c, 0, 64, 79
1, 830449, Control_c, 0, 64, 44
1, 830456, Note_off_c, 0, 73, 60
1, 830464, Control_c, 0, 64, 0
1, 830465, Note_on_c, 0, 49, 59
1, 830471, Note_on_c, 0, 57, 61
1, 830474, Note_on_c, 0, 81, 65
1, 830478, Control_c, 0, 64, 28
1, 830493, Control_c, 0, 64, 66
1, 830508, Control_c, 0, 64, 82
1, 830511, Note_off_c, 0, 49, 63
1, 830523, Control_c, 0, 64, 127
1, 830535, Note_off_c, 0, 81, 59
1, 830541, Note_off_c, 0, 57, 58
1, 830545, Note_on_c, 0, 73, 63
1, 830599, Note_off_c, 0, 73, 53
1, 830727, Note_on_c, 0, 73, 60
1, 830796, Note_on_c, 0, 71, 64
1, 830802, Note_on_c, 0, 62, 58
1, 830805, Note_on_c, 0, 66, 65
1, 830854, Note_off_c, 0, 66, 52
1, 830903, Note_off_c, 0, 71, 50
1, 830918, Note_off_c, 0, 73, 38
1, 831096, Note_on_c, 0, 69, 56
1, 831114, Note_on_c, 0, 66, 58
1, 831117, Note_on_c, 0, 61, 36
1, 831125, Note_off_c, 0, 62, 53
1, 831125, Note_off_c, 0, 69, 66
1, 831151, Note_off_c, 0, 61, 53
1, 831176, Note_off_c, 0, 66, 59
1, 831188, Note_on_c, 0, 73, 62
1, 831213, Note_off_c, 0, 73, 66
1, 831345, Note_on_c, 0, 73, 60
1, 831375, Control_c, 0, 64, 78
1, 831389, Note_off_c, 0, 73, 59
1, 831390, Control_c, 0, 64, 0
1, 831398, Note_on_c, 0, 81, 66
1, 831403, Note_on_c, 0, 54, 57
1, 831404, Note_on_c, 0, 49, 56
1, 831434, Control_c, 0, 64, 65
1, 831440, Note_off_c, 0, 49, 63
1, 831450, Control_c, 0, 64, 79
1, 831455, Note_off_c, 0, 54, 61
1, 831465, Control_c, 0, 64, 104
1, 831466, Note_off_c, 0, 81, 59
1, 831480, Control_c, 0, 64, 127
1, 831491, Note_on_c, 0, 73, 62
1, 831531, Note_off_c, 0, 73, 63
1, 831681, Note_on_c, 0, 73, 69
1, 831750, Note_on_c, 0, 71, 59
1, 831753, Note_on_c, 0, 66, 65
1, 831768, Note_on_c, 0, 62, 53
1, 831782, Poly_aftertouch_c, 0, 61, 0
1, 831851, Note_off_c, 0, 66, 35
1, 831856, Note_off_c, 0, 71, 54
1, 832018, Note_off_c, 0, 73, 57
1, 832047, Note_off_c, 0, 62, 56
1, 832053, Note_on_c, 0, 66, 59
1, 832057, Note_on_c, 0, 61, 58
1, 832057, Note_on_c, 0, 69, 40
1, 832086, Note_off_c, 0, 61, 64
1, 832087, Note_off_c, 0, 69, 55
1, 832118, Note_off_c, 0, 66, 53
1, 832135, Note_on_c, 0, 73, 66
1, 832185, Note_off_c, 0, 73, 58
1, 832301, Note_on_c, 0, 73, 69
1, 832340, Control_c, 0, 64, 83
1, 832353, Note_off_c, 0, 73, 61
1, 832355, Control_c, 0, 64, 59
1, 832364, Note_on_c, 0, 37, 62
1, 832368, Note_on_c, 0, 74, 68
1, 832370, Control_c, 0, 64, 0
1, 832399, Control_c, 0, 64, 64
1, 832400, Note_off_c, 0, 37, 64
1, 832414, Control_c, 0, 64, 76
1, 832429, Control_c, 0, 64, 96
1, 832433, Note_off_c, 0, 74, 61
1, 832438, Note_on_c, 0, 73, 69
1, 832444, Control_c, 0, 64, 127
1, 832502, Note_off_c, 0, 73, 61
1, 832625, Note_on_c, 0, 73, 62
1, 832686, Note_on_c, 0, 61, 59
1, 832689, Note_on_c, 0, 66, 61
1, 832698, Note_on_c, 0, 57, 50
1, 832698, Note_off_c, 0, 73, 61
1, 832821, Note_off_c, 0, 57, 35
1, 832945, Note_off_c, 0, 61, 51
1, 833005, Note_on_c, 0, 62, 52
1, 833011, Note_on_c, 0, 57, 56
1, 833025, Note_on_c, 0, 54, 51
1, 833045, Note_off_c, 0, 57, 65
1, 833057, Note_off_c, 0, 66, 55
1, 833061, Note_off_c, 0, 54, 62
1, 833086, Note_on_c, 0, 69, 56
1, 833087, Note_off_c, 0, 62, 58
1, 833124, Note_off_c, 0, 69, 59
1, 833252, Note_on_c, 0, 69, 61
1, 833282, Control_c, 0, 64, 96
1, 833296, Control_c, 0, 64, 70
1, 833302, Note_off_c, 0, 69, 58
1, 833311, Control_c, 0, 64, 42
1, 833322, Note_on_c, 0, 37, 58
1, 833326, Control_c, 0, 64, 58
1, 833330, Note_on_c, 0, 71, 55
1, 833341, Control_c, 0, 64, 69
1, 833356, Control_c, 0, 64, 84
1, 833359, Note_off_c, 0, 37, 64
1, 833370, Control_c, 0, 64, 116
1, 833377, Note_off_c, 0, 71, 56
1, 833380, Note_on_c, 0, 69, 62
1, 833385, Control_c, 0, 64, 127
1, 833430, Note_off_c, 0, 69, 60
1, 833574, Note_on_c, 0, 69, 49
1, 833635, Note_on_c, 0, 62, 57
1, 833640, Note_on_c, 0, 57, 50
1, 833643, Note_off_c, 0, 69, 52
1, 833651, Note_on_c, 0, 54, 46
1, 833651, Control_c, 0, 64, 89
1, 833666, Control_c, 0, 64, 76
1, 833681, Control_c, 0, 64, 79
1, 833696, Control_c, 0, 64, 92
1, 833711, Control_c, 0, 64, 114
1, 833722, Note_off_c, 0, 54, 50
1, 833726, Control_c, 0, 64, 127
1, 833953, Note_on_c, 0, 59, 52
1, 833959, Note_on_c, 0, 54, 52
1, 833964, Note_off_c, 0, 57, 37
1, 833964, Note_on_c, 0, 50, 47
1, 833988, Note_off_c, 0, 54, 64
1, 833989, Note_off_c, 0, 62, 39
1, 833996, Note_off_c, 0, 50, 59
1, 834018, Note_off_c, 0, 59, 56
1, 834030, Note_on_c, 0, 66, 59
1, 834063, Note_off_c, 0, 66, 62
1, 834206, Note_on_c, 0, 66, 54
1, 834222, Control_c, 0, 64, 95
1, 834237, Control_c, 0, 64, 69
1, 834239, Note_off_c, 0, 66, 63
1, 834251, Control_c, 0, 64, 0
1, 834256, Note_on_c, 0, 37, 53
1, 834266, Note_on_c, 0, 68, 62
1, 834266, Control_c, 0, 64, 40
1, 834281, Control_c, 0, 64, 66
1, 834294, Note_off_c, 0, 37, 63
1, 834296, Control_c, 0, 64, 77
1, 834311, Control_c, 0, 64, 101
1, 834320, Note_off_c, 0, 68, 51
1, 834325, Control_c, 0, 64, 127
1, 834333, Note_on_c, 0, 66, 53
1, 834364, Note_off_c, 0, 66, 63
1, 834525, Note_on_c, 0, 66, 43
1, 834570, Control_c, 0, 64, 103
1, 834577, Note_off_c, 0, 66, 58
1, 834584, Control_c, 0, 64, 74
1, 834587, Note_on_c, 0, 54, 51
1, 834587, Note_on_c, 0, 59, 49
1, 834599, Control_c, 0, 64, 62
1, 834609, Note_on_c, 0, 50, 45
1, 834614, Control_c, 0, 64, 68
1, 834629, Control_c, 0, 64, 78
1, 834644, Control_c, 0, 64, 94
1, 834660, Control_c, 0, 64, 127
1, 834746, Note_off_c, 0, 50, 34
1, 834758, Note_off_c, 0, 54, 59
1, 834881, Note_off_c, 0, 59, 53
1, 834882, Note_on_c, 0, 50, 48
1, 834891, Note_on_c, 0, 56, 57
1, 834909, Note_on_c, 0, 47, 38
1, 834915, Note_off_c, 0, 50, 64
1, 834942, Note_off_c, 0, 47, 50
1, 834945, Note_off_c, 0, 56, 61
1, 834966, Note_on_c, 0, 62, 51
1, 835001, Note_off_c, 0, 62, 61
1, 835129, Note_on_c, 0, 62, 59
1, 835134, Control_c, 0, 64, 124
1, 835148, Control_c, 0, 64, 82
1, 835163, Control_c, 0, 64, 51
1, 835175, Note_off_c, 0, 62, 59
1, 835178, Note_on_c, 0, 37, 52
1, 835178, Control_c, 0, 64, 0
1, 835207, Control_c, 0, 64, 57
1, 835213, Note_on_c, 0, 64, 44
1, 835222, Control_c, 0, 64, 67
1, 835234, Note_off_c, 0, 37, 62
1, 835237, Control_c, 0, 64, 78
1, 835252, Control_c, 0, 64, 100
1, 835256, Note_off_c, 0, 64, 50
1, 835274, Control_c, 0, 64, 127
1, 835275, Note_on_c, 0, 62, 57
1, 835311, Note_off_c, 0, 62, 62
1, 835462, Note_on_c, 0, 62, 48
1, 835497, Control_c, 0, 64, 99
1, 835512, Control_c, 0, 64, 74
1, 835517, Note_off_c, 0, 62, 52
1, 835524, Note_on_c, 0, 56, 54
1, 835526, Control_c, 0, 64, 42
1, 835528, Note_on_c, 0, 50, 37
1, 835535, Note_on_c, 0, 47, 41
1, 835541, Control_c, 0, 64, 0
1, 835556, Control_c, 0, 64, 62
1, 835571, Control_c, 0, 64, 71
1, 835586, Control_c, 0, 64, 84
1, 835601, Control_c, 0, 64, 117
1, 835616, Control_c, 0, 64, 127
1, 835675, Note_off_c, 0, 47, 34
1, 835793, Control_c, 0, 64, 99
1, 835807, Note_off_c, 0, 56, 49
1, 835808, Control_c, 0, 64, 74
1, 835814, Note_off_c, 0, 50, 55
1, 835822, Control_c, 0, 64, 34
1, 835824, Note_on_c, 0, 53, 54
1, 835826, Note_on_c, 0, 47, 37
1, 835837, Control_c, 0, 64, 51
1, 835840, Note_on_c, 0, 44, 40
1, 835852, Control_c, 0, 64, 66
1, 835855, Note_off_c, 0, 47, 61
1, 835867, Control_c, 0, 64, 77
1, 835874, Note_off_c, 0, 44, 48
1, 835880, Note_off_c, 0, 53, 58
1, 835882, Control_c, 0, 64, 92
1, 835896, Control_c, 0, 64, 127
1, 835900, Note_on_c, 0, 61, 61
1, 835927, Note_off_c, 0, 61, 65
1, 836075, Note_on_c, 0, 61, 52
1, 836096, Control_c, 0, 64, 94
1, 836106, Note_off_c, 0, 61, 64
1, 836111, Control_c, 0, 64, 66
1, 836127, Control_c, 0, 64, 0
1, 836133, Note_on_c, 0, 37, 53
1, 836135, Note_on_c, 0, 68, 63
1, 836156, Control_c, 0, 64, 49
1, 836171, Control_c, 0, 64, 68
1, 836173, Note_off_c, 0, 37, 62
1, 836186, Control_c, 0, 64, 79
1, 836194, Note_on_c, 0, 61, 62
1, 836199, Note_off_c, 0, 68, 59
1, 836201, Control_c, 0, 64, 100
1, 836215, Control_c, 0, 64, 127
1, 836224, Note_off_c, 0, 61, 64
1, 836376, Note_on_c, 0, 61, 49
1, 836409, Control_c, 0, 64, 111
1, 836415, Note_off_c, 0, 61, 58
1, 836424, Control_c, 0, 64, 80
1, 836427, Note_on_c, 0, 57, 69
1, 836439, Note_on_c, 0, 53, 60
1, 836439, Control_c, 0, 64, 62
1, 836454, Control_c, 0, 64, 56
1, 836468, Control_c, 0, 64, 66
1, 836483, Control_c, 0, 64, 75
1, 836498, Note_off_c, 0, 53, 52
1, 836498, Control_c, 0, 64, 90
1, 836513, Control_c, 0, 64, 127
1, 836517, Note_off_c, 0, 57, 55
1, 836528, Note_on_c, 0, 49, 62
1, 836579, Note_off_c, 0, 49, 56
1, 836705, Note_on_c, 0, 49, 48
1, 836706, Control_c, 0, 64, 119
1, 836708, Note_on_c, 0, 47, 58
1, 836720, Control_c, 0, 64, 83
1, 836735, Control_c, 0, 64, 65
1, 836738, Note_on_c, 0, 53, 52
1, 836750, Control_c, 0, 64, 62
1, 836772, Control_c, 0, 64, 69
1, 836773, Note_off_c, 0, 49, 58
1, 836787, Control_c, 0, 64, 80
1, 836787, Note_on_c, 0, 56, 63
1, 836799, Note_off_c, 0, 53, 59
1, 836802, Control_c, 0, 64, 95
1, 836808, Note_off_c, 0, 47, 63
1, 836817, Control_c, 0, 64, 127
1, 836817, Note_on_c, 0, 61, 62
1, 836827, Note_off_c, 0, 56, 60
1, 836848, Note_off_c, 0, 61, 62
1, 836987, Note_on_c, 0, 61, 56
1, 837009, Control_c, 0, 64, 98
1, 837021, Note_off_c, 0, 61, 62
1, 837024, Control_c, 0, 64, 73
1, 837040, Control_c, 0, 64, 32
1, 837047, Note_on_c, 0, 37, 63
1, 837055, Control_c, 0, 64, 28
1, 837056, Note_on_c, 0, 68, 61
1, 837069, Control_c, 0, 64, 66
1, 837084, Control_c, 0, 64, 77
1, 837088, Note_off_c, 0, 37, 60
1, 837099, Control_c, 0, 64, 95
1, 837114, Control_c, 0, 64, 127
1, 837117, Note_on_c, 0, 61, 58
1, 837136, Note_off_c, 0, 68, 56
1, 837166, Note_off_c, 0, 61, 57
1, 837296, Note_on_c, 0, 61, 48
1, 837336, Control_c, 0, 64, 85
1, 837343, Note_on_c, 0, 57, 74
1, 837346, Note_off_c, 0, 61, 51
1, 837351, Control_c, 0, 64, 60
1, 837356, Note_on_c, 0, 53, 66
1, 837366, Control_c, 0, 64, 56
1, 837381, Control_c, 0, 64, 68
1, 837395, Control_c, 0, 64, 81
1, 837410, Control_c, 0, 64, 106
1, 837425, Control_c, 0, 64, 127
1, 837428, Note_off_c, 0, 57, 50
1, 837461, Note_off_c, 0, 53, 53
1, 837502, Note_on_c, 0, 57, 14
1, 837579, Note_off_c, 0, 57, 40
1, 837593, Note_on_c, 0, 49, 49
1, 837640, Control_c, 0, 64, 84
1, 837646, Note_on_c, 0, 53, 60
1, 837655, Control_c, 0, 64, 67
1, 837669, Control_c, 0, 64, 68
1, 837672, Note_on_c, 0, 47, 64
1, 837684, Control_c, 0, 64, 78
1, 837699, Control_c, 0, 64, 97
1, 837705, Note_off_c, 0, 49, 63
1, 837714, Control_c, 0, 64, 127
1, 837727, Note_on_c, 0, 61, 56
1, 837727, Note_off_c, 0, 53, 60
1, 837748, Note_off_c, 0, 47, 62
1, 837762, Note_off_c, 0, 61, 59
1, 837765, Note_on_c, 0, 56, 50
1, 837792, Note_off_c, 0, 56, 60
1, 837903, Note_on_c, 0, 61, 58
1, 837933, Note_off_c, 0, 61, 64
1, 837937, Control_c, 0, 64, 95
1, 837952, Control_c, 0, 64, 68
1, 837962, Note_on_c, 0, 69, 66
1, 837966, Control_c, 0, 64, 0
1, 837974, Note_on_c, 0, 37, 64
1, 837996, Control_c, 0, 64, 53
1, 838006, Note_off_c, 0, 37, 64
1, 838011, Control_c, 0, 64, 74
1, 838019, Note_off_c, 0, 69, 59
1, 838025, Control_c, 0, 64, 93
1, 838032, Note_on_c, 0, 61, 47
1, 838040, Control_c, 0, 64, 127
1, 838105, Note_off_c, 0, 61, 61
1, 838219, Note_on_c, 0, 61, 56
1, 838269, Note_on_c, 0, 59, 71
1, 838270, Control_c, 0, 64, 103
1, 838275, Note_on_c, 0, 54, 71
1, 838285, Control_c, 0, 64, 74
1, 838298, Note_off_c, 0, 61, 52
1, 838299, Control_c, 0, 64, 47
1, 838314, Control_c, 0, 64, 64
1, 838329, Control_c, 0, 64, 75
1, 838344, Control_c, 0, 64, 95
1, 838359, Control_c, 0, 64, 127
1, 838367, Note_off_c, 0, 59, 54
1, 838368, Note_off_c, 0, 54, 54
1, 838370, Note_on_c, 0, 50, 61
1, 838409, Note_off_c, 0, 50, 61
1, 838498, Note_on_c, 0, 50, 55
1, 838552, Note_on_c, 0, 49, 60
1, 838566, Control_c, 0, 64, 105
1, 838573, Note_off_c, 0, 50, 58
1, 838581, Control_c, 0, 64, 70
1, 838590, Note_on_c, 0, 54, 54
1, 838596, Control_c, 0, 64, 0
1, 838611, Control_c, 0, 64, 49
1, 838625, Control_c, 0, 64, 67
1, 838630, Note_off_c, 0, 49, 60
1, 838640, Note_on_c, 0, 57, 57
1, 838641, Control_c, 0, 64, 79
1, 838656, Control_c, 0, 64, 102
1, 838662, Note_off_c, 0, 54, 61
1, 838664, Note_off_c, 0, 57, 62
1, 838670, Note_on_c, 0, 61, 58
1, 838671, Control_c, 0, 64, 127
1, 838698, Note_off_c, 0, 61, 65
1, 838833, Note_on_c, 0, 61, 57
1, 838848, Control_c, 0, 64, 100
1, 838863, Control_c, 0, 64, 68
1, 838868, Note_off_c, 0, 61, 62
1, 838878, Control_c, 0, 64, 0
1, 838892, Note_on_c, 0, 37, 62
1, 838895, Note_on_c, 0, 69, 67
1, 838929, Note_off_c, 0, 37, 65
1, 838937, Control_c, 0, 64, 64
1, 838947, Note_off_c, 0, 69, 60
1, 838952, Control_c, 0, 64, 78
1, 838958, Note_on_c, 0, 61, 57
1, 838967, Control_c, 0, 64, 119
1, 838981, Control_c, 0, 64, 127
1, 839014, Note_off_c, 0, 61, 55
1, 839136, Note_on_c, 0, 61, 59
1, 839190, Note_on_c, 0, 59, 59
1, 839209, Note_on_c, 0, 54, 66
1, 839226, Control_c, 0, 64, 83
1, 839241, Control_c, 0, 64, 64
1, 839270, Control_c, 0, 64, 73
1, 839276, Note_off_c, 0, 59, 54
1, 839285, Control_c, 0, 64, 84
1, 839299, Note_on_c, 0, 50, 59
1, 839300, Control_c, 0, 64, 108
1, 839315, Control_c, 0, 64, 127
1, 839335, Note_off_c, 0, 50, 64
1, 839372, Note_off_c, 0, 54, 59
1, 839425, Note_on_c, 0, 50, 56
1, 839494, Note_off_c, 0, 61, 38
1, 839500, Note_off_c, 0, 50, 61
1, 839512, Note_on_c, 0, 49, 55
1, 839534, Note_on_c, 0, 54, 72
1, 839597, Control_c, 0, 64, 86
1, 839612, Control_c, 0, 64, 61
1, 839627, Control_c, 0, 64, 0
1, 839652, Note_on_c, 0, 61, 80
1, 839656, Control_c, 0, 64, 49
1, 839658, Note_on_c, 0, 57, 51
1, 839666, Note_off_c, 0, 49, 54
1, 839671, Control_c, 0, 64, 67
1, 839686, Control_c, 0, 64, 78
1, 839701, Control_c, 0, 64, 101
1, 839706, Note_off_c, 0, 57, 58
1, 839716, Control_c, 0, 64, 127
1, 839771, Note_off_c, 0, 61, 62
1, 839849, Note_off_c, 0, 54, 56
1, 839856, Note_on_c, 0, 61, 80
1, 839933, Note_off_c, 0, 61, 62
1, 840001, Note_on_c, 0, 61, 73
1, 840043, Note_on_c, 0, 35, 55
1, 840049, Control_c, 0, 64, 93
1, 840063, Control_c, 0, 64, 67
1, 840078, Control_c, 0, 64, 0
1, 840108, Control_c, 0, 64, 23
1, 840123, Control_c, 0, 64, 65
1, 840138, Control_c, 0, 64, 75
1, 840153, Control_c, 0, 64, 94
1, 840156, Note_off_c, 0, 35, 64
1, 840163, Note_on_c, 0, 62, 76
1, 840168, Control_c, 0, 64, 127
1, 840189, Note_off_c, 0, 61, 57
1, 840232, Note_off_c, 0, 62, 61
1, 840331, Note_on_c, 0, 62, 79
1, 840356, Note_off_c, 0, 62, 65
1, 840411, Note_on_c, 0, 62, 78
1, 840418, Note_on_c, 0, 66, 61
1, 840445, Note_off_c, 0, 66, 54
1, 840518, Note_on_c, 0, 61, 76
1, 840588, Note_off_c, 0, 61, 58
1, 840618, Note_off_c, 0, 62, 57
1, 840654, Note_on_c, 0, 61, 75
1, 840694, Note_off_c, 0, 61, 60
1, 840734, Note_on_c, 0, 54, 64
1, 840736, Note_on_c, 0, 61, 70
1, 840760, Note_on_c, 0, 62, 61
1, 840760, Note_off_c, 0, 54, 66
1, 840799, Note_off_c, 0, 61, 62
1, 840821, Note_on_c, 0, 59, 71
1, 840858, Note_off_c, 0, 59, 58
1, 840961, Control_c, 0, 64, 107
1, 840974, Note_on_c, 0, 59, 69
1, 840976, Control_c, 0, 64, 75
1, 840990, Control_c, 0, 64, 0
1, 840997, Note_off_c, 0, 59, 69
1, 841057, Note_on_c, 0, 40, 62
1, 841059, Note_on_c, 0, 59, 80
1, 841095, Control_c, 0, 64, 66
1, 841103, Note_off_c, 0, 40, 61
1, 841110, Control_c, 0, 64, 82
1, 841113, Note_off_c, 0, 59, 63
1, 841125, Control_c, 0, 64, 127
1, 841145, Note_on_c, 0, 57, 71
1, 841154, Control_c, 0, 67, 126
1, 841169, Control_c, 0, 67, 122
1, 841184, Control_c, 0, 67, 116
1, 841199, Control_c, 0, 67, 110
1, 841214, Control_c, 0, 67, 104
1, 841217, Note_off_c, 0, 57, 56
1, 841229, Control_c, 0, 67, 98
1, 841243, Control_c, 0, 67, 92
1, 841265, Control_c, 0, 67, 87
1, 841280, Control_c, 0, 67, 83
1, 841283, Note_off_c, 0, 62, 52
1, 841295, Control_c, 0, 67, 79
1, 841309, Control_c, 0, 67, 76
1, 841318, Note_on_c, 0, 57, 69
1, 841324, Control_c, 0, 67, 74
1, 841339, Control_c, 0, 67, 72
1, 841342, Note_off_c, 0, 57, 66
1, 841354, Control_c, 0, 67, 70
1, 841369, Control_c, 0, 67, 68
1, 841384, Control_c, 0, 67, 67
1, 841393, Note_on_c, 0, 57, 70
1, 841396, Note_on_c, 0, 62, 67
1, 841399, Control_c, 0, 67, 67
1, 841412, Note_on_c, 0, 71, 63
1, 841414, Control_c, 0, 67, 66
1, 841422, Note_off_c, 0, 57, 57
1, 841429, Control_c, 0, 67, 66
1, 841443, Control_c, 0, 67, 65
1, 841458, Control_c, 0, 67, 65
1, 841477, Note_on_c, 0, 56, 76
1, 841518, Note_off_c, 0, 56, 59
1, 841591, Control_c, 0, 67, 64
1, 841620, Note_off_c, 0, 62, 58
1, 841629, Note_on_c, 0, 56, 72
1, 841658, Note_off_c, 0, 56, 62
1, 841680, Control_c, 0, 67, 64
1, 841687, Note_off_c, 0, 71, 59
1, 841695, Control_c, 0, 67, 63
1, 841709, Control_c, 0, 67, 62
1, 841713, Note_on_c, 0, 64, 56
1, 841718, Note_on_c, 0, 62, 59
1, 841719, Note_on_c, 0, 56, 67
1, 841724, Control_c, 0, 67, 61
1, 841734, Note_off_c, 0, 64, 63
1, 841739, Control_c, 0, 67, 59
1, 841754, Control_c, 0, 67, 58
1, 841784, Note_off_c, 0, 56, 50
1, 841806, Note_on_c, 0, 54, 65
1, 841813, Control_c, 0, 67, 60
1, 841829, Control_c, 0, 67, 61
1, 841844, Control_c, 0, 67, 62
1, 841858, Control_c, 0, 67, 63
1, 841873, Control_c, 0, 67, 64
1, 841888, Control_c, 0, 67, 64
1, 841903, Control_c, 0, 67, 65
1, 841911, Note_off_c, 0, 54, 54
1, 841932, Control_c, 0, 67, 65
1, 841965, Note_on_c, 0, 52, 65
1, 841977, Control_c, 0, 64, 90
1, 841991, Note_off_c, 0, 52, 64
1, 841992, Note_off_c, 0, 62, 55
1, 841992, Control_c, 0, 64, 62
1, 842014, Control_c, 0, 64, 0
1, 842046, Note_on_c, 0, 33, 64
1, 842059, Control_c, 0, 64, 56
1, 842060, Note_on_c, 0, 52, 68
1, 842073, Control_c, 0, 64, 70
1, 842073, Control_c, 0, 67, 65
1, 842077, Note_off_c, 0, 33, 61
1, 842088, Control_c, 0, 64, 86
1, 842103, Note_off_c, 0, 52, 59
1, 842103, Control_c, 0, 64, 127
1, 842118, Control_c, 0, 67, 64
1, 842149, Note_on_c, 0, 61, 70
1, 842162, Control_c, 0, 67, 64
1, 842210, Note_off_c, 0, 61, 61
1, 842281, Control_c, 0, 67, 64
1, 842303, Note_on_c, 0, 61, 68
1, 842327, Note_off_c, 0, 61, 67
1, 842340, Control_c, 0, 67, 65
1, 842384, Note_on_c, 0, 61, 73
1, 842399, Control_c, 0, 67, 65
1, 842405, Note_on_c, 0, 64, 46
1, 842444, Control_c, 0, 67, 66
1, 842473, Control_c, 0, 67, 66
1, 842478, Note_on_c, 0, 59, 65
1, 842488, Control_c, 0, 67, 67
1, 842503, Control_c, 0, 67, 67
1, 842507, Note_off_c, 0, 64, 43
1, 842538, Note_off_c, 0, 59, 59
1, 842547, Control_c, 0, 67, 68
1, 842562, Control_c, 0, 67, 68
1, 842576, Control_c, 0, 67, 69
1, 842591, Control_c, 0, 67, 69
1, 842606, Control_c, 0, 67, 70
1, 842621, Control_c, 0, 67, 70
1, 842623, Note_off_c, 0, 61, 61
1, 842637, Control_c, 0, 67, 72
1, 842641, Note_on_c, 0, 59, 53
1, 842652, Control_c, 0, 67, 73
1, 842667, Control_c, 0, 67, 74
1, 842669, Note_off_c, 0, 59, 55
1, 842681, Control_c, 0, 67, 75
1, 842696, Control_c, 0, 67, 76
1, 842697, Note_on_c, 0, 52, 54
1, 842709, Note_on_c, 0, 61, 68
1, 842713, Note_on_c, 0, 59, 63
1, 842744, Note_off_c, 0, 52, 63
1, 842764, Note_off_c, 0, 59, 59
1, 842806, Note_on_c, 0, 57, 63
1, 842808, Control_c, 0, 67, 76
1, 842822, Control_c, 0, 67, 77
1, 842837, Control_c, 0, 67, 77
1, 842848, Note_off_c, 0, 57, 53
1, 842852, Control_c, 0, 67, 78
1, 842868, Control_c, 0, 67, 80
1, 842883, Control_c, 0, 67, 82
1, 842897, Control_c, 0, 67, 84
1, 842912, Control_c, 0, 67, 85
1, 842927, Control_c, 0, 67, 85
1, 842942, Control_c, 0, 67, 86
1, 842953, Note_on_c, 0, 57, 72
1, 842971, Control_c, 0, 64, 84
1, 842976, Note_off_c, 0, 57, 67
1, 842986, Control_c, 0, 64, 57
1, 842986, Control_c, 0, 67, 85
1, 843001, Control_c, 0, 64, 0
1, 843001, Control_c, 0, 67, 84
1, 843015, Control_c, 0, 67, 82
1, 843030, Control_c, 0, 67, 81
1, 843034, Note_on_c, 0, 57, 67
1, 843038, Note_on_c, 0, 38, 59
1, 843045, Control_c, 0, 64, 62
1, 843045, Control_c, 0, 67, 81
1, 843060, Control_c, 0, 64, 74
1, 843069, Note_off_c, 0, 38, 63
1, 843075, Control_c, 0, 64, 94
1, 843075, Control_c, 0, 67, 80
1, 843089, Control_c, 0, 64, 127
1, 843089, Control_c, 0, 67, 80
1, 843091, Note_off_c, 0, 57, 50
1, 843104, Control_c, 0, 67, 79
1, 843119, Control_c, 0, 67, 79
1, 843128, Note_on_c, 0, 56, 72
1, 843162, Note_off_c, 0, 56, 62
1, 843193, Control_c, 0, 67, 79
1, 843228, Note_off_c, 0, 61, 60
1, 843238, Control_c, 0, 67, 80
1, 843298, Note_on_c, 0, 56, 59
1, 843319, Note_off_c, 0, 56, 65
1, 843341, Control_c, 0, 67, 79
1, 843357, Note_on_c, 0, 61, 60
1, 843371, Control_c, 0, 67, 79
1, 843386, Note_on_c, 0, 56, 63
1, 843386, Control_c, 0, 67, 78
1, 843400, Control_c, 0, 67, 78
1, 843401, Note_on_c, 0, 71, 30
1, 843409, Note_on_c, 0, 69, 26
1, 843449, Note_off_c, 0, 56, 53
1, 843454, Note_on_c, 0, 54, 67
1, 843488, Note_off_c, 0, 54, 63
1, 843517, Note_off_c, 0, 71, 42
1, 843557, Control_c, 0, 67, 78
1, 843612, Note_on_c, 0, 54, 70
1, 843614, Note_off_c, 0, 61, 61
1, 843652, Note_off_c, 0, 54, 65
1, 843687, Note_off_c, 0, 69, 41
1, 843692, Note_on_c, 0, 62, 54
1, 843697, Note_on_c, 0, 61, 67
1, 843709, Note_on_c, 0, 54, 64
1, 843715, Note_off_c, 0, 62, 60
1, 843734, Control_c, 0, 67, 79
1, 843749, Control_c, 0, 67, 80
1, 843763, Control_c, 0, 67, 80
1, 843775, Note_off_c, 0, 54, 62
1, 843778, Control_c, 0, 67, 81
1, 843781, Note_on_c, 0, 52, 68
1, 843793, Control_c, 0, 67, 82
1, 843808, Control_c, 0, 67, 82
1, 843823, Control_c, 0, 67, 83
1, 843837, Control_c, 0, 67, 84
1, 843852, Control_c, 0, 67, 84
1, 843891, Note_off_c, 0, 52, 59
1, 843924, Note_on_c, 0, 50, 63
1, 843927, Control_c, 0, 67, 84
1, 843942, Control_c, 0, 64, 112
1, 843948, Note_off_c, 0, 61, 61
1, 843954, Note_off_c, 0, 50, 66
1, 843956, Control_c, 0, 64, 74
1, 843956, Control_c, 0, 67, 83
1, 843971, Control_c, 0, 64, 0
1, 843971, Control_c, 0, 67, 83
1, 843986, Control_c, 0, 67, 82
1, 843996, Note_on_c, 0, 32, 68
1, 844001, Control_c, 0, 67, 82
1, 844006, Note_on_c, 0, 50, 74
1, 844016, Control_c, 0, 64, 35
1, 844016, Control_c, 0, 67, 81
1, 844028, Note_off_c, 0, 32, 62
1, 844030, Control_c, 0, 64, 65
1, 844045, Control_c, 0, 64, 77
1, 844045, Control_c, 0, 67, 81
1, 844060, Control_c, 0, 64, 97
1, 844075, Control_c, 0, 64, 127
1, 844075, Control_c, 0, 67, 80
1, 844078, Note_off_c, 0, 50, 58
1, 844090, Control_c, 0, 67, 80
1, 844100, Note_on_c, 0, 54, 69
1, 844104, Control_c, 0, 67, 79
1, 844119, Control_c, 0, 67, 79
1, 844163, Control_c, 0, 67, 78
1, 844198, Note_off_c, 0, 54, 63
1, 844216, Note_on_c, 0, 61, 65
1, 844239, Control_c, 0, 67, 79
1, 844258, Note_off_c, 0, 61, 64
1, 844305, Control_c, 0, 67, 79
1, 844307, Note_on_c, 0, 59, 70
1, 844315, Note_on_c, 0, 62, 70
1, 844365, Control_c, 0, 67, 79
1, 844375, Note_off_c, 0, 62, 59
1, 844396, Note_on_c, 0, 66, 70
1, 844513, Note_off_c, 0, 66, 63
1, 844513, Control_c, 0, 67, 78
1, 844529, Note_on_c, 0, 73, 71
1, 844557, Control_c, 0, 67, 78
1, 844568, Note_off_c, 0, 73, 63
1, 844572, Control_c, 0, 67, 77
1, 844586, Control_c, 0, 67, 76
1, 844601, Control_c, 0, 67, 76
1, 844616, Control_c, 0, 67, 75
1, 844619, Note_on_c, 0, 74, 79
1, 844621, Note_on_c, 0, 71, 71
1, 844631, Control_c, 0, 67, 74
1, 844643, Note_off_c, 0, 71, 71
1, 844670, Note_off_c, 0, 74, 63
1, 844690, Control_c, 0, 67, 76
1, 844705, Control_c, 0, 67, 77
1, 844706, Note_on_c, 0, 78, 71
1, 844720, Control_c, 0, 67, 77
1, 844729, Note_off_c, 0, 59, 32
1, 844734, Control_c, 0, 67, 78
1, 844749, Control_c, 0, 67, 79
1, 844764, Control_c, 0, 67, 80
1, 844779, Control_c, 0, 67, 81
1, 844794, Control_c, 0, 67, 81
1, 844809, Control_c, 0, 67, 82
1, 844824, Control_c, 0, 67, 82
1, 844838, Note_off_c, 0, 78, 62
1, 844839, Control_c, 0, 64, 92
1, 844839, Control_c, 0, 67, 83
1, 844851, Note_on_c, 0, 85, 71
1, 844853, Control_c, 0, 64, 21
1, 844868, Control_c, 0, 64, 0
1, 844898, Control_c, 0, 67, 82
1, 844920, Note_on_c, 0, 83, 77
1, 844927, Note_on_c, 0, 37, 69
1, 844927, Control_c, 0, 67, 81
1, 844942, Control_c, 0, 67, 81
1, 844953, Note_off_c, 0, 85, 63
1, 844957, Control_c, 0, 64, 73
1, 844957, Control_c, 0, 67, 80
1, 844958, Note_off_c, 0, 37, 64
1, 844972, Control_c, 0, 64, 105
1, 844972, Control_c, 0, 67, 78
1, 844986, Control_c, 0, 64, 127
1, 844986, Control_c, 0, 67, 78
1, 845009, Control_c, 0, 67, 77
1, 845020, Note_on_c, 0, 80, 71
1, 845024, Control_c, 0, 67, 76
1, 845039, Control_c, 0, 67, 76
1, 845054, Control_c, 0, 67, 75
1, 845064, Note_off_c, 0, 83, 62
1, 845083, Control_c, 0, 67, 74
1, 845098, Control_c, 0, 67, 74
1, 845135, Note_off_c, 0, 80, 61
1, 845140, Note_on_c, 0, 75, 63
1, 845167, Note_off_c, 0, 75, 67
1, 845222, Note_on_c, 0, 71, 62
1, 845226, Note_on_c, 0, 76, 82
1, 845283, Note_off_c, 0, 71, 60
1, 845291, Control_c, 0, 67, 73
1, 845299, Note_on_c, 0, 68, 62
1, 845387, Note_off_c, 0, 68, 62
1, 845417, Note_on_c, 0, 63, 61
1, 845446, Note_off_c, 0, 63, 65
1, 845469, Control_c, 0, 67, 73
1, 845483, Control_c, 0, 67, 71
1, 845495, Note_off_c, 0, 76, 62
1, 845498, Control_c, 0, 67, 68
1, 845513, Control_c, 0, 67, 63
1, 845518, Note_on_c, 0, 64, 71
1, 845518, Note_on_c, 0, 59, 62
1, 845527, Control_c, 0, 67, 59
1, 845539, Note_on_c, 0, 57, 51
1, 845542, Note_off_c, 0, 64, 68
1, 845542, Control_c, 0, 67, 58
1, 845550, Note_off_c, 0, 59, 64
1, 845566, Note_off_c, 0, 57, 58
1, 845572, Control_c, 0, 67, 59
1, 845585, Note_on_c, 0, 56, 78
1, 845587, Control_c, 0, 67, 60
1, 845602, Control_c, 0, 67, 61
1, 845610, Note_off_c, 0, 56, 70
1, 845617, Control_c, 0, 67, 62
1, 845632, Control_c, 0, 67, 64
1, 845647, Control_c, 0, 67, 65
1, 845662, Control_c, 0, 67, 66
1, 845676, Control_c, 0, 67, 66
1, 845691, Control_c, 0, 67, 67
1, 845720, Control_c, 0, 67, 67
1, 845764, Note_on_c, 0, 52, 78
1, 845787, Control_c, 0, 67, 68
1, 845817, Control_c, 0, 64, 117
1, 845832, Control_c, 0, 64, 74
1, 845843, Note_on_c, 0, 30, 80
1, 845847, Control_c, 0, 64, 0
1, 845848, Note_on_c, 0, 49, 79
1, 845848, Note_off_c, 0, 52, 62
1, 845861, Control_c, 0, 67, 67
1, 845876, Control_c, 0, 67, 67
1, 845880, Note_off_c, 0, 30, 65
1, 845891, Control_c, 0, 64, 66
1, 845891, Control_c, 0, 67, 66
1, 845906, Control_c, 0, 64, 81
1, 845906, Control_c, 0, 67, 66
1, 845918, Note_on_c, 0, 52, 66
1, 845918, Note_off_c, 0, 49, 64
1, 845921, Control_c, 0, 64, 113
1, 845921, Control_c, 0, 67, 65
1, 845936, Control_c, 0, 64, 127
1, 845936, Control_c, 0, 67, 65
1, 845950, Control_c, 0, 67, 64
1, 845965, Control_c, 0, 67, 64
1, 845980, Control_c, 0, 67, 63
1, 845995, Control_c, 0, 67, 63
1, 846010, Control_c, 0, 67, 62
1, 846025, Control_c, 0, 67, 62
1, 846047, Note_off_c, 0, 52, 62
1, 846052, Note_on_c, 0, 59, 76
1, 846069, Control_c, 0, 67, 61
1, 846088, Note_off_c, 0, 59, 62
1, 846138, Note_on_c, 0, 57, 78
1, 846157, Note_on_c, 0, 61, 74
1, 846205, Note_off_c, 0, 61, 58
1, 846237, Note_on_c, 0, 64, 71
1, 846246, Control_c, 0, 67, 61
1, 846252, Note_off_c, 0, 57, 0
1, 846276, Control_c, 0, 67, 60
1, 846290, Poly_aftertouch_c, 0, 57, 127
1, 846349, Note_off_c, 0, 64, 63
1, 846362, Note_on_c, 0, 71, 73
1, 846388, Note_off_c, 0, 71, 70
1, 846457, Note_on_c, 0, 69, 69
1, 846460, Note_on_c, 0, 73, 79
1, 846481, Note_off_c, 0, 69, 69
1, 846501, Poly_aftertouch_c, 0, 57, 0
1, 846505, Control_c, 0, 67, 61
1, 846531, Note_off_c, 0, 73, 60
1, 846535, Control_c, 0, 67, 61
1, 846550, Control_c, 0, 67, 62
1, 846562, Note_on_c, 0, 76, 71
1, 846565, Control_c, 0, 67, 62
1, 846580, Control_c, 0, 67, 63
1, 846609, Control_c, 0, 67, 64
1, 846624, Control_c, 0, 67, 64
1, 846640, Control_c, 0, 67, 65
1, 846654, Control_c, 0, 67, 65
1, 846669, Control_c, 0, 67, 66
1, 846694, Note_off_c, 0, 76, 62
1, 846699, Control_c, 0, 67, 66
1, 846713, Note_on_c, 0, 83, 70
1, 846714, Control_c, 0, 64, 86
1, 846729, Control_c, 0, 64, 55
1, 846744, Control_c, 0, 64, 0
1, 846780, Note_on_c, 0, 35, 65
1, 846795, Note_on_c, 0, 81, 77
1, 846799, Note_off_c, 0, 83, 57
1, 846803, Control_c, 0, 67, 66
1, 846818, Control_c, 0, 64, 65
1, 846818, Control_c, 0, 67, 65
1, 846824, Note_off_c, 0, 35, 64
1, 846833, Control_c, 0, 64, 83
1, 846833, Control_c, 0, 67, 65
1, 846848, Control_c, 0, 64, 127
1, 846848, Control_c, 0, 67, 64
1, 846862, Control_c, 0, 67, 63
1, 846877, Control_c, 0, 67, 62
1, 846879, Note_off_c, 0, 81, 63
1, 846883, Note_on_c, 0, 78, 69
1, 846892, Control_c, 0, 67, 62
1, 846907, Control_c, 0, 67, 61
1, 846921, Control_c, 0, 67, 61
1, 846980, Control_c, 0, 67, 60
1, 846993, Note_off_c, 0, 78, 61
1, 847018, Note_on_c, 0, 74, 66
1, 847044, Note_off_c, 0, 74, 69
1, 847084, Note_on_c, 0, 69, 64
1, 847095, Note_on_c, 0, 75, 77
1, 847149, Note_off_c, 0, 69, 59
1, 847164, Note_on_c, 0, 66, 64
1, 847238, Note_off_c, 0, 66, 62
1, 847261, Note_on_c, 0, 62, 64
1, 847292, Note_off_c, 0, 62, 63
1, 847355, Note_off_c, 0, 75, 63
1, 847365, Note_on_c, 0, 57, 71
1, 847381, Note_on_c, 0, 63, 57
1, 847404, Note_off_c, 0, 57, 60
1, 847405, Note_off_c, 0, 63, 62
1, 847438, Note_on_c, 0, 54, 74
1, 847460, Note_off_c, 0, 54, 68
1, 847463, Control_c, 0, 67, 61
1, 847477, Control_c, 0, 67, 62
1, 847507, Control_c, 0, 67, 62
1, 847522, Control_c, 0, 67, 63
1, 847537, Control_c, 0, 67, 63
1, 847551, Control_c, 0, 67, 64
1, 847566, Control_c, 0, 67, 64
1, 847581, Control_c, 0, 67, 65
1, 847587, Note_on_c, 0, 51, 76
1, 847641, Control_c, 0, 64, 86
1, 847649, Note_off_c, 0, 51, 64
1, 847656, Control_c, 0, 64, 63
1, 847671, Control_c, 0, 64, 0
1, 847671, Note_on_c, 0, 52, 73
1, 847674, Note_on_c, 0, 28, 74
1, 847685, Control_c, 0, 64, 56
1, 847685, Control_c, 0, 67, 64
1, 847700, Control_c, 0, 64, 69
1, 847700, Control_c, 0, 67, 63
1, 847702, Note_off_c, 0, 28, 62
1, 847715, Control_c, 0, 64, 81
1, 847715, Control_c, 0, 67, 62
1, 847729, Control_c, 0, 64, 103
1, 847729, Control_c, 0, 67, 60
1, 847742, Note_off_c, 0, 52, 57
1, 847744, Control_c, 0, 64, 127
1, 847744, Control_c, 0, 67, 59
1, 847759, Control_c, 0, 67, 58
1, 847763, Note_on_c, 0, 56, 42
1, 847774, Control_c, 0, 67, 57
1, 847789, Control_c, 0, 67, 56
1, 847791, Note_on_c, 0, 55, 49
1, 847803, Control_c, 0, 67, 54
1, 847818, Control_c, 0, 67, 53
1, 847833, Control_c, 0, 67, 52
1, 847838, Note_off_c, 0, 56, 39
1, 847838, Note_off_c, 0, 55, 43
1, 847874, Note_on_c, 0, 59, 67
1, 847877, Control_c, 0, 67, 53
1, 847892, Control_c, 0, 67, 53
1, 847907, Control_c, 0, 67, 54
1, 847921, Control_c, 0, 67, 54
1, 847930, Note_off_c, 0, 59, 61
1, 847936, Control_c, 0, 64, 105
1, 847951, Control_c, 0, 64, 76
1, 847955, Note_on_c, 0, 47, 64
1, 847960, Note_on_c, 0, 32, 63
1, 847965, Note_on_c, 0, 52, 66
1, 847966, Control_c, 0, 64, 62
1, 847966, Control_c, 0, 67, 55
1, 847980, Note_off_c, 0, 47, 61
1, 847981, Control_c, 0, 64, 65
1, 847990, Note_off_c, 0, 32, 58
1, 848003, Control_c, 0, 64, 75
1, 848018, Control_c, 0, 64, 89
1, 848033, Control_c, 0, 64, 127
1, 848037, Note_on_c, 0, 59, 75
1, 848046, Note_off_c, 0, 52, 53
1, 848048, Control_c, 0, 67, 54
1, 848063, Control_c, 0, 67, 53
1, 848077, Control_c, 0, 67, 52
1, 848092, Control_c, 0, 67, 52
1, 848107, Control_c, 0, 67, 50
1, 848121, Control_c, 0, 67, 47
1, 848136, Control_c, 0, 67, 43
1, 848151, Control_c, 0, 67, 39
1, 848166, Control_c, 0, 67, 36
1, 848181, Control_c, 0, 67, 34
1, 848190, Note_on_c, 0, 64, 72
1, 848195, Control_c, 0, 67, 32
1, 848204, Note_off_c, 0, 59, 58
1, 848210, Control_c, 0, 67, 29
1, 848226, Control_c, 0, 67, 25
1, 848241, Control_c, 0, 67, 20
1, 848243, Note_off_c, 0, 64, 64
1, 848252, Note_on_c, 0, 48, 74
1, 848252, Note_on_c, 0, 33, 76
1, 848255, Note_on_c, 0, 52, 77
1, 848256, Control_c, 0, 64, 82
1, 848256, Control_c, 0, 67, 13
1, 848271, Control_c, 0, 64, 64
1, 848271, Control_c, 0, 67, 0
1, 848276, Note_off_c, 0, 33, 64
1, 848278, Note_off_c, 0, 48, 65
1, 848286, Control_c, 0, 64, 62
1, 848300, Control_c, 0, 64, 70
1, 848315, Control_c, 0, 64, 81
1, 848330, Control_c, 0, 64, 106
1, 848334, Note_on_c, 0, 60, 72
1, 848344, Control_c, 0, 64, 127
1, 848405, Note_off_c, 0, 52, 35
1, 848473, Note_on_c, 0, 65, 73
1, 848478, Note_off_c, 0, 60, 61
1, 848523, Control_c, 0, 64, 89
1, 848532, Note_on_c, 0, 49, 87
1, 848533, Note_on_c, 0, 34, 78
1, 848538, Control_c, 0, 64, 70
1, 848543, Note_off_c, 0, 65, 58
1, 848550, Note_on_c, 0, 52, 75
1, 848552, Control_c, 0, 64, 68
1, 848557, Note_off_c, 0, 49, 70
1, 848562, Note_off_c, 0, 34, 67
1, 848567, Control_c, 0, 64, 81
1, 848582, Control_c, 0, 64, 102
1, 848597, Control_c, 0, 64, 127
1, 848625, Note_on_c, 0, 61, 69
1, 848693, Note_off_c, 0, 52, 49
1, 848749, Note_on_c, 0, 66, 63
1, 848795, Note_off_c, 0, 61, 60
1, 848821, Note_off_c, 0, 66, 61
1, 848826, Control_c, 0, 64, 96
1, 848833, Note_on_c, 0, 35, 79
1, 848833, Note_on_c, 0, 50, 76
1, 848841, Note_on_c, 0, 52, 74
1, 848841, Control_c, 0, 64, 67
1, 848857, Control_c, 0, 64, 0
1, 848860, Note_off_c, 0, 50, 68
1, 848864, Note_off_c, 0, 35, 69
1, 848887, Control_c, 0, 64, 61
1, 848894, Note_on_c, 0, 62, 59
1, 848901, Control_c, 0, 64, 73
1, 848913, Note_off_c, 0, 52, 60
1, 848916, Control_c, 0, 64, 91
1, 848931, Control_c, 0, 64, 127
1, 849006, Note_on_c, 0, 67, 69
1, 849040, Note_off_c, 0, 62, 61
1, 849065, Note_off_c, 0, 67, 59
1, 849110, Control_c, 0, 64, 89
1, 849115, Note_on_c, 0, 51, 89
1, 849116, Note_on_c, 0, 36, 74
1, 849119, Note_on_c, 0, 52, 71
1, 849124, Control_c, 0, 64, 67
1, 849139, Control_c, 0, 64, 57
1, 849144, Note_off_c, 0, 51, 65
1, 849154, Control_c, 0, 64, 69
1, 849168, Control_c, 0, 64, 84
1, 849175, Note_off_c, 0, 52, 58
1, 849183, Control_c, 0, 64, 127
1, 849194, Note_on_c, 0, 63, 79
1, 849301, Note_on_c, 0, 68, 70
1, 849304, Note_off_c, 0, 63, 55
1, 849378, Note_off_c, 0, 68, 60
1, 849387, Note_off_c, 0, 36, 35
1, 849391, Control_c, 0, 64, 85
1, 849394, Note_on_c, 0, 37, 81
1, 849404, Note_on_c, 0, 57, 79
1, 849406, Control_c, 0, 64, 61
1, 849420, Control_c, 0, 64, 0
1, 849435, Control_c, 0, 64, 63
1, 849448, Note_off_c, 0, 37, 64
1, 849450, Control_c, 0, 64, 78
1, 849465, Control_c, 0, 64, 118
1, 849480, Control_c, 0, 64, 127
1, 849483, Note_on_c, 0, 64, 79
1, 849507, Note_off_c, 0, 57, 55
1, 849558, Note_on_c, 0, 52, 73
1, 849595, Note_off_c, 0, 52, 63
1, 849620, Note_off_c, 0, 64, 63
1, 849624, Note_on_c, 0, 69, 75
1, 849650, Control_c, 0, 64, 122
1, 849665, Control_c, 0, 64, 80
1, 849680, Control_c, 0, 64, 62
1, 849686, Note_off_c, 0, 69, 63
1, 849695, Control_c, 0, 64, 65
1, 849701, Note_on_c, 0, 35, 82
1, 849709, Note_on_c, 0, 59, 82
1, 849709, Control_c, 0, 64, 85
1, 849724, Control_c, 0, 64, 127
1, 849754, Note_off_c, 0, 35, 62
1, 849784, Note_on_c, 0, 68, 79
1, 849825, Note_off_c, 0, 59, 59
1, 849847, Note_on_c, 0, 52, 73
1, 849892, Note_off_c, 0, 52, 61
1, 849929, Note_on_c, 0, 72, 55
1, 849930, Note_on_c, 0, 71, 57
1, 849932, Note_off_c, 0, 68, 57
1, 849947, Control_c, 0, 64, 110
1, 849960, Note_off_c, 0, 71, 67
1, 849960, Note_off_c, 0, 72, 65
1, 849962, Control_c, 0, 64, 75
1, 849977, Control_c, 0, 64, 0
1, 849983, Note_on_c, 0, 33, 82
1, 849984, Note_on_c, 0, 60, 78
1, 849991, Control_c, 0, 64, 33
1, 850006, Control_c, 0, 64, 68
1, 850021, Control_c, 0, 64, 84
1, 850032, Note_off_c, 0, 33, 60
1, 850036, Control_c, 0, 64, 127
1, 850061, Note_on_c, 0, 69, 76
1, 850099, Note_off_c, 0, 60, 63
1, 850118, Note_on_c, 0, 52, 79
1, 850165, Note_off_c, 0, 52, 62
1, 850183, Note_on_c, 0, 72, 77
1, 850195, Note_off_c, 0, 69, 57
1, 850213, Control_c, 0, 64, 110
1, 850228, Control_c, 0, 64, 75
1, 850251, Control_c, 0, 64, 40
1, 850256, Note_off_c, 0, 72, 65
1, 850260, Note_on_c, 0, 31, 89
1, 850266, Control_c, 0, 64, 61
1, 850280, Note_on_c, 0, 61, 82
1, 850280, Control_c, 0, 64, 80
1, 850295, Control_c, 0, 64, 127
1, 850313, Note_off_c, 0, 31, 62
1, 850336, Note_on_c, 0, 70, 74
1, 850386, Note_off_c, 0, 61, 61
1, 850400, Note_on_c, 0, 52, 77
1, 850444, Note_off_c, 0, 52, 62
1, 850445, Note_on_c, 0, 73, 77
1, 850479, Note_off_c, 0, 70, 60
1, 850514, Note_off_c, 0, 73, 62
1, 850517, Control_c, 0, 64, 91
1, 850529, Note_on_c, 0, 30, 92
1, 850531, Control_c, 0, 64, 64
1, 850540, Note_on_c, 0, 62, 80
1, 850546, Control_c, 0, 64, 0
1, 850561, Control_c, 0, 64, 60
1, 850570, Note_off_c, 0, 30, 65
1, 850576, Control_c, 0, 64, 80
1, 850591, Control_c, 0, 64, 127
1, 850599, Note_on_c, 0, 71, 67
1, 850639, Note_off_c, 0, 62, 57
1, 850666, Note_on_c, 0, 52, 79
1, 850672, Note_on_c, 0, 74, 75
1, 850696, Note_off_c, 0, 71, 61
1, 850708, Note_off_c, 0, 52, 63
1, 850769, Control_c, 0, 64, 109
1, 850784, Control_c, 0, 64, 74
1, 850797, Note_on_c, 0, 29, 101
1, 850797, Note_on_c, 0, 63, 71
1, 850799, Control_c, 0, 64, 0
1, 850803, Note_off_c, 0, 74, 63
1, 850828, Control_c, 0, 64, 69
1, 850834, Note_on_c, 0, 69, 68
1, 850839, Note_off_c, 0, 29, 65
1, 850843, Control_c, 0, 64, 99
1, 850858, Control_c, 0, 64, 127
1, 850869, Note_off_c, 0, 63, 60
1, 850921, Note_on_c, 0, 75, 75
1, 850930, Note_on_c, 0, 52, 82
1, 850962, Note_off_c, 0, 52, 62
1, 850963, Note_off_c, 0, 69, 55
1, 851057, Note_off_c, 0, 75, 59
1, 851058, Control_c, 0, 64, 76
1, 851066, Note_on_c, 0, 28, 96
1, 851073, Control_c, 0, 64, 0
1, 851078, Note_on_c, 0, 64, 78
1, 851102, Control_c, 0, 64, 58
1, 851112, Note_off_c, 0, 28, 63
1, 851117, Control_c, 0, 64, 78
1, 851132, Control_c, 0, 64, 127
1, 851167, Note_on_c, 0, 68, 78
1, 851188, Note_off_c, 0, 64, 56
1, 851294, Note_on_c, 0, 76, 76
1, 851308, Note_off_c, 0, 68, 59
1, 851340, Control_c, 0, 64, 82
1, 851354, Control_c, 0, 64, 58
1, 851355, Note_on_c, 0, 44, 83
1, 851365, Note_on_c, 0, 59, 66
1, 851369, Control_c, 0, 64, 47
1, 851372, Note_on_c, 0, 64, 82
1, 851379, Note_off_c, 0, 44, 69
1, 851383, Note_off_c, 0, 76, 40
1, 851384, Control_c, 0, 64, 69
1, 851386, Note_off_c, 0, 59, 64
1, 851394, Note_on_c, 0, 57, 27
1, 851399, Control_c, 0, 64, 92
1, 851414, Control_c, 0, 64, 127
1, 851437, Note_off_c, 0, 57, 57
1, 851444, Note_on_c, 0, 71, 78
1, 851481, Note_off_c, 0, 64, 61
1, 851571, Note_on_c, 0, 76, 75
1, 851600, Note_off_c, 0, 71, 62
1, 851622, Note_on_c, 0, 60, 87
1, 851622, Control_c, 0, 64, 83
1, 851626, Note_on_c, 0, 45, 74
1, 851633, Note_off_c, 0, 76, 56
1, 851636, Control_c, 0, 64, 62
1, 851638, Note_on_c, 0, 64, 81
1, 851641, Note_off_c, 0, 60, 72
1, 851651, Control_c, 0, 64, 61
1, 851653, Note_off_c, 0, 45, 65
1, 851666, Control_c, 0, 64, 75
1, 851670, Note_on_c, 0, 47, 12
1, 851671, Note_off_c, 0, 47, 127
1, 851681, Control_c, 0, 64, 110
1, 851696, Control_c, 0, 64, 127
1, 851714, Note_on_c, 0, 72, 81
1, 851715, Poly_aftertouch_c, 0, 47, 0
1, 851763, Note_off_c, 0, 64, 58
1, 851849, Note_on_c, 0, 77, 81
1, 851857, Note_off_c, 0, 72, 63
1, 851895, Control_c, 0, 64, 96
1, 851898, Note_off_c, 0, 77, 63
1, 851899, Note_on_c, 0, 61, 86
1, 851901, Note_on_c, 0, 46, 87
1, 851910, Control_c, 0, 64, 68
1, 851915, Note_on_c, 0, 64, 81
1, 851918, Note_off_c, 0, 61, 71
1, 851925, Control_c, 0, 64, 58
1, 851927, Note_off_c, 0, 46, 67
1, 851940, Control_c, 0, 64, 71
1, 851955, Control_c, 0, 64, 94
1, 851969, Control_c, 0, 64, 127
1, 851987, Note_on_c, 0, 73, 91
1, 852063, Note_off_c, 0, 64, 52
1, 852097, Note_on_c, 0, 78, 78
1, 852114, Note_off_c, 0, 73, 59
1, 852153, Note_on_c, 0, 62, 91
1, 852160, Note_on_c, 0, 47, 78
1, 852161, Note_off_c, 0, 78, 60
1, 852163, Control_c, 0, 64, 94
1, 852172, Note_on_c, 0, 64, 82
1, 852175, Note_off_c, 0, 62, 68
1, 852177, Control_c, 0, 64, 66
1, 852182, Note_on_c, 0, 48, 52
1, 852182, Note_off_c, 0, 47, 67
1, 852186, Note_on_c, 0, 49, 44
1, 852192, Control_c, 0, 64, 64
1, 852207, Control_c, 0, 64, 76
1, 852208, Note_off_c, 0, 48, 58
1, 852220, Note_off_c, 0, 49, 33
1, 852222, Control_c, 0, 64, 100
1, 852224, Note_on_c, 0, 74, 78
1, 852227, Note_on_c, 0, 60, 2
1, 852237, Control_c, 0, 64, 127
1, 852243, Note_off_c, 0, 64, 64
1, 852272, Note_off_c, 0, 60, 46
1, 852314, Note_on_c, 0, 79, 76
1, 852321, Note_off_c, 0, 74, 65
1, 852369, Note_off_c, 0, 79, 61
1, 852400, Control_c, 0, 64, 89
1, 852409, Note_on_c, 0, 48, 86
1, 852415, Control_c, 0, 64, 62
1, 852416, Note_on_c, 0, 63, 84
1, 852418, Note_on_c, 0, 64, 76
1, 852430, Control_c, 0, 64, 0
1, 852436, Note_on_c, 0, 49, 56
1, 852442, Note_off_c, 0, 63, 63
1, 852445, Control_c, 0, 64, 61
1, 852460, Control_c, 0, 64, 83
1, 852461, Note_off_c, 0, 49, 60
1, 852474, Control_c, 0, 64, 127
1, 852475, Note_off_c, 0, 64, 61
1, 852492, Note_on_c, 0, 75, 86
1, 852590, Note_on_c, 0, 80, 78
1, 852590, Note_off_c, 0, 75, 59
1, 852599, Poly_aftertouch_c, 0, 49, 127
1, 852633, Poly_aftertouch_c, 0, 49, 0
1, 852669, Note_off_c, 0, 80, 62
1, 852675, Note_on_c, 0, 49, 87
1, 852675, Control_c, 0, 64, 118
1, 852682, Note_off_c, 0, 48, 58
1, 852689, Note_on_c, 0, 69, 92
1, 852690, Control_c, 0, 64, 75
1, 852705, Control_c, 0, 64, 0
1, 852719, Control_c, 0, 64, 52
1, 852725, Note_off_c, 0, 49, 67
1, 852734, Control_c, 0, 64, 74
1, 852749, Control_c, 0, 64, 127
1, 852762, Note_on_c, 0, 76, 84
1, 852795, Note_off_c, 0, 69, 60
1, 852820, Note_on_c, 0, 64, 84
1, 852865, Note_off_c, 0, 64, 67
1, 852871, Note_on_c, 0, 81, 73
1, 852875, Note_off_c, 0, 76, 62
1, 852926, Control_c, 0, 64, 89
1, 852932, Note_off_c, 0, 81, 63
1, 852941, Control_c, 0, 64, 72
1, 852948, Note_on_c, 0, 71, 90
1, 852950, Note_on_c, 0, 47, 91
1, 852956, Control_c, 0, 64, 79
1, 852971, Control_c, 0, 64, 113
1, 852986, Control_c, 0, 64, 127
1, 852995, Note_off_c, 0, 47, 67
1, 853036, Note_on_c, 0, 80, 88
1, 853073, Note_off_c, 0, 71, 62
1, 853081, Note_on_c, 0, 64, 79
1, 853121, Note_off_c, 0, 64, 64
1, 853141, Note_on_c, 0, 83, 79
1, 853170, Note_off_c, 0, 80, 61
1, 853179, Control_c, 0, 64, 114
1, 853194, Control_c, 0, 64, 75
1, 853203, Note_off_c, 0, 83, 64
1, 853205, Note_on_c, 0, 45, 104
1, 853209, Control_c, 0, 64, 52
1, 853222, Note_on_c, 0, 72, 91
1, 853224, Control_c, 0, 64, 69
1, 853246, Control_c, 0, 64, 90
1, 853254, Note_off_c, 0, 45, 68
1, 853261, Control_c, 0, 64, 127
1, 853299, Note_on_c, 0, 81, 89
1, 853342, Note_off_c, 0, 72, 56
1, 853350, Note_on_c, 0, 64, 88
1, 853391, Note_off_c, 0, 64, 67
1, 853394, Note_on_c, 0, 84, 83
1, 853401, Note_off_c, 0, 81, 62
1, 853454, Control_c, 0, 64, 91
1, 853469, Control_c, 0, 64, 61
1, 853469, Note_off_c, 0, 84, 65
1, 853478, Note_on_c, 0, 43, 101
1, 853483, Control_c, 0, 64, 0
1, 853494, Note_on_c, 0, 73, 92
1, 853498, Control_c, 0, 64, 64
1, 853513, Control_c, 0, 64, 90
1, 853522, Note_off_c, 0, 43, 67
1, 853528, Control_c, 0, 64, 127
1, 853563, Note_on_c, 0, 82, 85
1, 853607, Note_off_c, 0, 73, 61
1, 853615, Note_on_c, 0, 64, 85
1, 853650, Note_off_c, 0, 64, 62
1, 853662, Note_on_c, 0, 85, 80
1, 853697, Note_off_c, 0, 82, 62
1, 853720, Control_c, 0, 64, 101
1, 853724, Note_off_c, 0, 85, 63
1, 853734, Control_c, 0, 64, 67
1, 853736, Note_on_c, 0, 42, 98
1, 853749, Control_c, 0, 64, 0
1, 853754, Note_on_c, 0, 74, 84
1, 853758, Note_on_c, 0, 41, 68
1, 853764, Control_c, 0, 64, 26
1, 853779, Note_off_c, 0, 42, 67
1, 853779, Control_c, 0, 64, 71
1, 853782, Note_off_c, 0, 41, 59
1, 853794, Control_c, 0, 64, 127
1, 853834, Note_on_c, 0, 83, 74
1, 853854, Note_off_c, 0, 74, 48
1, 853856, Note_on_c, 0, 64, 97
1, 853884, Note_on_c, 0, 86, 76
1, 853897, Note_off_c, 0, 64, 68
1, 853913, Note_off_c, 0, 83, 62
1, 853957, Control_c, 0, 64, 86
1, 853972, Control_c, 0, 64, 11
1, 853978, Note_off_c, 0, 86, 61
1, 853991, Note_on_c, 0, 41, 107
1, 853993, Note_on_c, 0, 75, 78
1, 853995, Control_c, 0, 64, 0
1, 854010, Control_c, 0, 64, 62
1, 854023, Note_off_c, 0, 41, 68
1, 854025, Control_c, 0, 64, 84
1, 854034, Note_on_c, 0, 81, 73
1, 854040, Control_c, 0, 64, 127
1, 854071, Note_off_c, 0, 75, 60
1, 854114, Note_on_c, 0, 64, 85
1, 854121, Note_on_c, 0, 87, 81
1, 854134, Note_off_c, 0, 81, 62
1, 854134, Note_off_c, 0, 64, 71
1, 854191, Note_off_c, 0, 87, 65
1, 854202, Control_c, 0, 64, 76
1, 854217, Control_c, 0, 64, 0
1, 854232, Note_on_c, 0, 40, 98
1, 854241, Note_on_c, 0, 88, 101
1, 854243, Note_on_c, 0, 76, 90
1, 854244, Note_on_c, 0, 80, 98
1, 854255, Note_off_c, 0, 40, 70
1, 854263, Note_off_c, 0, 76, 67
1, 854273, Note_off_c, 0, 80, 65
1, 854276, Control_c, 0, 64, 76
1, 854290, Control_c, 0, 64, 127
1, 854292, Note_off_c, 0, 88, 66
1, 854453, Control_c, 0, 64, 89
1, 854468, Control_c, 0, 64, 0
1, 854487, Note_on_c, 0, 69, 76
1, 854488, Note_on_c, 0, 81, 87
1, 854489, Note_on_c, 0, 85, 94
1, 854490, Note_on_c, 0, 97, 107
1, 854494, Note_on_c, 0, 73, 87
1, 854495, Note_on_c, 0, 76, 78
1, 854508, Note_off_c, 0, 81, 68
1, 854512, Control_c, 0, 64, 60
1, 854516, Note_off_c, 0, 76, 69
1, 854525, Note_off_c, 0, 85, 63
1, 854527, Control_c, 0, 64, 79
1, 854528, Note_off_c, 0, 69, 65
1, 854528, Note_off_c, 0, 73, 64
1, 854542, Control_c, 0, 64, 127
1, 854560, Note_off_c, 0, 97, 63
1, 854647, Control_c, 0, 64, 102
1, 854661, Control_c, 0, 64, 67
1, 854676, Control_c, 0, 64, 0
1, 854706, Control_c, 0, 64, 61
1, 854712, Note_on_c, 0, 78, 88
1, 854712, Note_on_c, 0, 95, 76
1, 854714, Note_on_c, 0, 66, 84
1, 854716, Note_on_c, 0, 93, 92
1, 854717, Note_on_c, 0, 99, 99
1, 854718, Note_on_c, 0, 69, 80
1, 854718, Note_on_c, 0, 87, 95
1, 854720, Control_c, 0, 64, 86
1, 854721, Note_on_c, 0, 71, 74
1, 854743, Control_c, 0, 64, 127
1, 854757, Note_off_c, 0, 69, 61
1, 854762, Note_off_c, 0, 93, 62
1, 854764, Note_off_c, 0, 78, 60
1, 854768, Note_off_c, 0, 87, 65
1, 854769, Note_off_c, 0, 71, 59
1, 854774, Note_off_c, 0, 66, 62
1, 854775, Note_off_c, 0, 95, 65
1, 854794, Note_off_c, 0, 99, 67
1, 854861, Control_c, 0, 64, 85
1, 854876, Control_c, 0, 64, 56
1, 854891, Control_c, 0, 64, 0
1, 854920, Control_c, 0, 64, 29
1, 854935, Control_c, 0, 64, 84
1, 854938, Note_on_c, 0, 92, 87
1, 854941, Note_on_c, 0, 68, 88
1, 854942, Note_on_c, 0, 76, 92
1, 854944, Note_on_c, 0, 71, 78
1, 854944, Note_on_c, 0, 100, 91
1, 854947, Note_on_c, 0, 88, 101
1, 854947, Note_on_c, 0, 95, 59
1, 854947, Note_on_c, 0, 64, 78
1, 854950, Control_c, 0, 64, 127
1, 854966, Note_off_c, 0, 76, 65
1, 854971, Note_off_c, 0, 64, 71
1, 854974, Note_off_c, 0, 95, 67
1, 854980, Note_off_c, 0, 100, 64
1, 854981, Note_off_c, 0, 68, 64
1, 854983, Note_off_c, 0, 71, 63
1, 854985, Note_off_c, 0, 92, 68
1, 854991, Note_off_c, 0, 88, 64
1, 855084, Control_c, 0, 64, 110
1, 855087, Note_on_c, 0, 90, 63
1, 855099, Control_c, 0, 64, 74
1, 855111, Note_off_c, 0, 90, 59
1, 855113, Control_c, 0, 64, 0
1, 855143, Control_c, 0, 64, 17
1, 855158, Control_c, 0, 64, 75
1, 855163, Note_on_c, 0, 64, 85
1, 855163, Note_on_c, 0, 76, 91
1, 855164, Note_on_c, 0, 67, 85
1, 855168, Note_on_c, 0, 71, 80
1, 855168, Note_on_c, 0, 83, 97
1, 855168, Note_on_c, 0, 95, 102
1, 855173, Control_c, 0, 64, 127
1, 855178, Note_on_c, 0, 88, 72
1, 855179, Note_on_c, 0, 91, 84
1, 855180, Poly_aftertouch_c, 0, 87, 0
1, 855189, Note_off_c, 0, 71, 68
1, 855191, Note_off_c, 0, 76, 62
1, 855200, Note_off_c, 0, 91, 67
1, 855202, Note_off_c, 0, 88, 67
1, 855203, Note_off_c, 0, 67, 59
1, 855203, Note_off_c, 0, 83, 68
1, 855217, Note_off_c, 0, 64, 64
1, 855220, Note_off_c, 0, 95, 68
1, 855320, Control_c, 0, 64, 79
1, 855335, Control_c, 0, 64, 0
1, 855365, Control_c, 0, 64, 56
1, 855374, Note_on_c, 0, 75, 90
1, 855376, Note_on_c, 0, 85, 96
1, 855378, Note_on_c, 0, 97, 95
1, 855379, Note_on_c, 0, 63, 82
1, 855379, Note_on_c, 0, 67, 80
1, 855379, Note_on_c, 0, 69, 82
1, 855379, Note_on_c, 0, 91, 85
1, 855380, Control_c, 0, 64, 85
1, 855383, Note_on_c, 0, 93, 87
1, 855394, Control_c, 0, 64, 127
1, 855400, Poly_aftertouch_c, 0, 92, 0
1, 855402, Note_off_c, 0, 67, 67
1, 855405, Note_off_c, 0, 91, 64
1, 855409, Note_off_c, 0, 75, 59
1, 855416, Note_off_c, 0, 85, 64
1, 855422, Note_off_c, 0, 93, 61
1, 855426, Note_off_c, 0, 69, 60
1, 855429, Note_off_c, 0, 63, 58
1, 855439, Note_off_c, 0, 97, 64
1, 855536, Control_c, 0, 64, 93
1, 855551, Control_c, 0, 64, 61
1, 855566, Control_c, 0, 64, 0
1, 855581, Control_c, 0, 64, 37
1, 855586, Note_on_c, 0, 90, 83
1, 855593, Note_on_c, 0, 66, 91
1, 855594, Note_on_c, 0, 74, 96
1, 855594, Note_on_c, 0, 98, 89
1, 855596, Note_on_c, 0, 69, 82
1, 855596, Note_on_c, 0, 86, 94
1, 855597, Control_c, 0, 64, 81
1, 855605, Note_on_c, 0, 62, 73
1, 855611, Control_c, 0, 64, 127
1, 855612, Note_on_c, 0, 93, 37
1, 855615, Note_off_c, 0, 98, 68
1, 855621, Note_off_c, 0, 74, 64
1, 855630, Note_off_c, 0, 62, 65
1, 855633, Note_off_c, 0, 90, 67
1, 855634, Note_off_c, 0, 66, 66
1, 855635, Note_off_c, 0, 69, 62
1, 855639, Note_off_c, 0, 86, 68
1, 855646, Note_off_c, 0, 93, 55
1, 855759, Control_c, 0, 64, 126
1, 855770, Poly_aftertouch_c, 0, 62, 127
1, 855774, Control_c, 0, 64, 76
1, 855780, Poly_aftertouch_c, 0, 62, 0
1, 855782, Note_on_c, 0, 89, 24
1, 855789, Control_c, 0, 64, 0
1, 855797, Note_on_c, 0, 62, 42
1, 855802, Note_on_c, 0, 81, 92
1, 855803, Note_on_c, 0, 74, 96
1, 855803, Note_on_c, 0, 93, 98
1, 855804, Note_on_c, 0, 65, 82
1, 855804, Control_c, 0, 64, 56
1, 855805, Note_on_c, 0, 69, 81
1, 855818, Control_c, 0, 64, 78
1, 855819, Note_off_c, 0, 89, 54
1, 855828, Note_off_c, 0, 69, 67
1, 855832, Note_off_c, 0, 74, 66
1, 855833, Control_c, 0, 64, 127
1, 855838, Note_off_c, 0, 65, 62
1, 855847, Note_off_c, 0, 81, 64
1, 855858, Note_off_c, 0, 93, 64
1, 855865, Note_off_c, 0, 62, 61
1, 855981, Control_c, 0, 64, 84
1, 855996, Control_c, 0, 64, 44
1, 856002, Note_on_c, 0, 65, 80
1, 856002, Note_on_c, 0, 73, 93
1, 856004, Note_on_c, 0, 61, 84
1, 856005, Note_on_c, 0, 91, 90
1, 856005, Note_on_c, 0, 95, 100
1, 856005, Note_on_c, 0, 67, 78
1, 856006, Note_on_c, 0, 83, 91
1, 856011, Note_on_c, 0, 88, 86
1, 856011, Control_c, 0, 64, 0
1, 856026, Control_c, 0, 64, 70
1, 856028, Note_off_c, 0, 73, 64
1, 856033, Note_off_c, 0, 88, 65
1, 856038, Note_off_c, 0, 83, 65
1, 856041, Control_c, 0, 64, 100
1, 856046, Note_off_c, 0, 65, 64
1, 856047, Note_off_c, 0, 61, 62
1, 856048, Note_off_c, 0, 67, 56
1, 856056, Control_c, 0, 64, 127
1, 856058, Note_off_c, 0, 91, 60
1, 856063, Note_off_c, 0, 95, 62
1, 856174, Control_c, 0, 64, 94
1, 856189, Control_c, 0, 64, 66
1, 856196, Note_on_c, 0, 88, 92
1, 856196, Note_on_c, 0, 67, 60
1, 856197, Note_on_c, 0, 64, 71
1, 856199, Note_on_c, 0, 96, 89
1, 856202, Note_on_c, 0, 84, 92
1, 856203, Note_on_c, 0, 72, 89
1, 856204, Note_on_c, 0, 60, 79
1, 856205, Control_c, 0, 64, 48
1, 856217, Note_off_c, 0, 96, 72
1, 856220, Control_c, 0, 64, 70
1, 856240, Note_off_c, 0, 88, 63
1, 856241, Control_c, 0, 64, 97
1, 856242, Note_off_c, 0, 72, 65
1, 856244, Note_off_c, 0, 64, 65
1, 856251, Note_off_c, 0, 67, 63
1, 856251, Note_off_c, 0, 84, 65
1, 856256, Control_c, 0, 64, 127
1, 856345, Note_off_c, 0, 60, 47
1, 856390, Control_c, 0, 64, 86
1, 856405, Control_c, 0, 64, 62
1, 856409, Note_on_c, 0, 87, 56
1, 856414, Note_on_c, 0, 63, 78
1, 856414, Note_on_c, 0, 79, 89
1, 856415, Note_on_c, 0, 72, 80
1, 856416, Note_on_c, 0, 91, 90
1, 856420, Control_c, 0, 64, 62
1, 856434, Control_c, 0, 64, 78
1, 856435, Note_on_c, 0, 60, 50
1, 856437, Note_off_c, 0, 72, 65
1, 856447, Note_off_c, 0, 63, 61
1, 856447, Note_off_c, 0, 79, 63
1, 856449, Control_c, 0, 64, 127
1, 856455, Note_off_c, 0, 60, 64
1, 856464, Note_off_c, 0, 91, 67
1, 856467, Note_off_c, 0, 87, 65
1, 856582, Control_c, 0, 64, 79
1, 856597, Control_c, 0, 64, 23
1, 856603, Note_on_c, 0, 86, 83
1, 856604, Note_on_c, 0, 59, 75
1, 856604, Note_on_c, 0, 71, 87
1, 856604, Note_on_c, 0, 92, 94
1, 856604, Note_on_c, 0, 80, 84
1, 856607, Note_on_c, 0, 88, 79
1, 856612, Control_c, 0, 64, 50
1, 856614, Note_on_c, 0, 69, 73
1, 856622, Note_off_c, 0, 80, 72
1, 856625, Note_on_c, 0, 68, 37
1, 856626, Note_off_c, 0, 59, 68
1, 856627, Control_c, 0, 64, 74
1, 856630, Note_off_c, 0, 86, 63
1, 856633, Note_off_c, 0, 88, 63
1, 856634, Note_off_c, 0, 69, 66
1, 856638, Note_off_c, 0, 71, 66
1, 856641, Control_c, 0, 64, 127
1, 856656, Note_off_c, 0, 68, 52
1, 856667, Note_off_c, 0, 92, 66
1, 856774, Control_c, 0, 64, 119
1, 856784, Note_on_c, 0, 93, 96
1, 856787, Note_on_c, 0, 81, 94
1, 856789, Note_on_c, 0, 69, 52
1, 856789, Control_c, 0, 64, 76
1, 856794, Note_on_c, 0, 73, 87
1, 856795, Note_on_c, 0, 61, 72
1, 856804, Note_on_c, 0, 66, 67
1, 856804, Control_c, 0, 64, 23
1, 856819, Control_c, 0, 64, 51
1, 856825, Note_off_c, 0, 81, 66
1, 856825, Note_off_c, 0, 93, 66
1, 856833, Note_off_c, 0, 73, 62
1, 856834, Control_c, 0, 64, 76
1, 856837, Note_off_c, 0, 61, 61
1, 856837, Note_off_c, 0, 66, 57
1, 856849, Control_c, 0, 64, 127
1, 856899, Note_off_c, 0, 69, 30
1, 856967, Control_c, 0, 64, 112
1, 856975, Note_on_c, 0, 62, 82
1, 856985, Note_on_c, 0, 74, 88
1, 856988, Note_on_c, 0, 78, 89
1, 856989, Control_c, 0, 64, 75
1, 856990, Note_on_c, 0, 90, 89
1, 857000, Note_on_c, 0, 69, 53
1, 857004, Control_c, 0, 64, 62
1, 857011, Note_off_c, 0, 74, 67
1, 857014, Note_off_c, 0, 78, 66
1, 857020, Control_c, 0, 64, 71
1, 857021, Note_off_c, 0, 62, 56
1, 857021, Note_off_c, 0, 90, 65
1, 857028, Note_off_c, 0, 69, 63
1, 857035, Control_c, 0, 64, 103
1, 857050, Control_c, 0, 64, 127
1, 857116, Note_on_c, 0, 69, 38
1, 857168, Control_c, 0, 64, 75
1, 857174, Note_off_c, 0, 69, 0
1, 857174, Note_on_c, 0, 69, 43
1, 857180, Note_on_c, 0, 88, 89
1, 857183, Control_c, 0, 64, 0
1, 857183, Note_on_c, 0, 73, 77
1, 857189, Note_on_c, 0, 76, 78
1, 857189, Note_on_c, 0, 64, 65
1, 857191, Note_on_c, 0, 81, 74
1, 857199, Note_on_c, 0, 85, 73
1, 857207, Note_off_c, 0, 73, 69
1, 857210, Note_off_c, 0, 76, 70
1, 857213, Note_off_c, 0, 81, 67
1, 857213, Control_c, 0, 64, 66
1, 857221, Note_off_c, 0, 69, 63
1, 857225, Note_off_c, 0, 85, 61
1, 857227, Control_c, 0, 64, 91
1, 857242, Control_c, 0, 64, 127
1, 857272, Note_off_c, 0, 88, 59
1, 857317, Note_off_c, 0, 64, 26
1, 857361, Control_c, 0, 64, 79
1, 857376, Control_c, 0, 64, 0
1, 857385, Note_on_c, 0, 64, 58
1, 857387, Note_on_c, 0, 83, 92
1, 857388, Note_on_c, 0, 69, 78
1, 857391, Note_on_c, 0, 71, 80
1, 857391, Note_on_c, 0, 81, 84
1, 857400, Note_on_c, 0, 76, 76
1, 857405, Control_c, 0, 64, 42
1, 857420, Control_c, 0, 64, 78
1, 857435, Control_c, 0, 64, 127
1, 857573, Note_off_c, 0, 81, 41
1, 857591, Note_on_c, 0, 85, 96
1, 857600, Note_on_c, 0, 73, 85
1, 857603, Note_off_c, 0, 69, 60
1, 857620, Note_off_c, 0, 71, 61
1, 857625, Note_off_c, 0, 83, 64
1, 857636, Note_off_c, 0, 76, 59
1, 857650, Note_off_c, 0, 64, 62
1, 857654, Note_off_c, 0, 73, 61
1, 857772, Note_off_c, 0, 85, 63
1, 857779, Note_on_c, 0, 86, 82
1, 857788, Note_on_c, 0, 74, 80
1, 857791, Note_on_c, 0, 68, 81
1, 857792, Note_on_c, 0, 64, 67
1, 857793, Note_on_c, 0, 76, 83
1, 857795, Note_on_c, 0, 80, 86
1, 857811, Note_off_c, 0, 74, 73
1, 857815, Note_off_c, 0, 68, 68
1, 857822, Note_off_c, 0, 64, 65
1, 857833, Note_off_c, 0, 86, 65
1, 857841, Note_off_c, 0, 76, 60
1, 857947, Control_c, 0, 64, 95
1, 857961, Note_off_c, 0, 80, 63
1, 857962, Control_c, 0, 64, 66
1, 857977, Note_on_c, 0, 85, 93
1, 857977, Control_c, 0, 64, 0
1, 857979, Note_on_c, 0, 69, 86
1, 857980, Note_on_c, 0, 81, 80
1, 857981, Note_on_c, 0, 73, 87
1, 857985, Note_on_c, 0, 57, 78
1, 857992, Control_c, 0, 64, 29
1, 858007, Control_c, 0, 64, 67
1, 858012, Note_off_c, 0, 69, 65
1, 858013, Note_off_c, 0, 57, 65
1, 858014, Note_off_c, 0, 81, 64
1, 858018, Note_off_c, 0, 73, 61
1, 858021, Control_c, 0, 64, 85
1, 858031, Note_off_c, 0, 85, 64
1, 858036, Control_c, 0, 64, 127
1, 858140, Control_c, 0, 64, 97
1, 858154, Control_c, 0, 64, 68
1, 858169, Control_c, 0, 64, 0
1, 858174, Note_on_c, 0, 80, 84
1, 858177, Note_on_c, 0, 85, 90
1, 858179, Note_on_c, 0, 68, 81
1, 858179, Note_on_c, 0, 73, 88
1, 858184, Note_on_c, 0, 56, 83
1, 858199, Control_c, 0, 64, 67
1, 858202, Note_off_c, 0, 73, 67
1, 858211, Note_off_c, 0, 68, 62
1, 858214, Control_c, 0, 64, 97
1, 858220, Note_off_c, 0, 56, 59
1, 858220, Note_off_c, 0, 80, 62
1, 858229, Control_c, 0, 64, 127
1, 858242, Note_off_c, 0, 85, 60
1, 858347, Control_c, 0, 64, 77
1, 858362, Control_c, 0, 64, 0
1, 858372, Note_on_c, 0, 83, 78
1, 858373, Note_on_c, 0, 66, 81
1, 858375, Note_on_c, 0, 56, 69
1, 858376, Note_on_c, 0, 59, 73
1, 858376, Note_on_c, 0, 81, 79
1, 858379, Note_on_c, 0, 75, 86
1, 858382, Note_on_c, 0, 87, 88
1, 858383, Note_on_c, 0, 54, 68
1, 858392, Control_c, 0, 64, 66
1, 858394, Note_off_c, 0, 66, 69
1, 858395, Note_off_c, 0, 81, 72
1, 858399, Note_off_c, 0, 56, 68
1, 858406, Control_c, 0, 64, 105
1, 858407, Note_off_c, 0, 59, 63
1, 858407, Note_off_c, 0, 75, 54
1, 858414, Note_off_c, 0, 54, 66
1, 858421, Control_c, 0, 64, 127
1, 858422, Note_off_c, 0, 83, 59
1, 858460, Note_off_c, 0, 87, 61
1, 858547, Control_c, 0, 64, 75
1, 858562, Control_c, 0, 64, 0
1, 858569, Note_on_c, 0, 80, 85
1, 858573, Note_on_c, 0, 56, 70
1, 858574, Note_on_c, 0, 88, 90
1, 858578, Note_on_c, 0, 76, 95
1, 858581, Note_on_c, 0, 64, 89
1, 858588, Note_on_c, 0, 52, 65
1, 858592, Control_c, 0, 64, 64
1, 858593, Note_on_c, 0, 59, 63
1, 858599, Note_on_c, 0, 83, 33
1, 858599, Note_off_c, 0, 88, 63
1, 858603, Note_off_c, 0, 64, 70
1, 858607, Note_off_c, 0, 80, 65
1, 858607, Control_c, 0, 64, 97
1, 858615, Note_off_c, 0, 59, 63
1, 858617, Note_off_c, 0, 52, 64
1, 858618, Note_off_c, 0, 76, 62
1, 858622, Control_c, 0, 64, 127
1, 858623, Note_off_c, 0, 56, 65
1, 858638, Note_off_c, 0, 83, 29
1, 858741, Control_c, 0, 64, 89
1, 858756, Control_c, 0, 64, 0
1, 858768, Note_on_c, 0, 79, 63
1, 858769, Note_on_c, 0, 59, 54
1, 858775, Note_on_c, 0, 55, 83
1, 858775, Note_on_c, 0, 64, 92
1, 858775, Note_on_c, 0, 71, 87
1, 858776, Note_on_c, 0, 52, 74
1, 858776, Note_on_c, 0, 83, 88
1, 858784, Note_on_c, 0, 76, 67
1, 858785, Control_c, 0, 64, 54
1, 858800, Control_c, 0, 64, 87
1, 858801, Note_off_c, 0, 64, 64
1, 858805, Note_off_c, 0, 59, 65
1, 858808, Note_off_c, 0, 55, 64
1, 858808, Note_off_c, 0, 71, 66
1, 858808, Note_off_c, 0, 76, 66
1, 858810, Note_on_c, 0, 56, 39
1, 858814, Note_off_c, 0, 79, 63
1, 858815, Control_c, 0, 64, 127
1, 858825, Note_off_c, 0, 83, 65
1, 858826, Note_off_c, 0, 52, 60
1, 858846, Note_off_c, 0, 56, 56
1, 858865, Poly_aftertouch_c, 0, 77, 0
1, 858903, Control_c, 0, 64, 106
1, 858918, Control_c, 0, 64, 64
1, 858933, Control_c, 0, 64, 0
1, 858962, Control_c, 0, 64, 54
1, 858968, Note_on_c, 0, 55, 60
1, 858969, Note_on_c, 0, 73, 87
1, 858970, Note_on_c, 0, 63, 80
1, 858972, Note_on_c, 0, 85, 84
1, 858974, Note_on_c, 0, 57, 70
1, 858974, Note_on_c, 0, 81, 78
1, 858974, Note_on_c, 0, 51, 78
1, 858975, Note_on_c, 0, 79, 57
1, 858977, Control_c, 0, 64, 102
1, 858992, Note_off_c, 0, 63, 68
1, 858992, Control_c, 0, 64, 127
1, 858995, Note_off_c, 0, 79, 65
1, 859000, Note_off_c, 0, 55, 63
1, 859000, Note_off_c, 0, 73, 60
1, 859004, Note_off_c, 0, 81, 57
1, 859010, Note_off_c, 0, 57, 61
1, 859014, Note_off_c, 0, 51, 61
1, 859031, Note_off_c, 0, 85, 61
1, 859096, Control_c, 0, 64, 81
1, 859111, Control_c, 0, 64, 0
1, 859150, Note_on_c, 0, 81, 42
1, 859152, Note_on_c, 0, 78, 83
1, 859156, Note_on_c, 0, 54, 79
1, 859156, Note_on_c, 0, 86, 91
1, 859161, Note_on_c, 0, 74, 88
1, 859162, Note_on_c, 0, 57, 60
1, 859164, Note_on_c, 0, 62, 81
1, 859170, Control_c, 0, 64, 89
1, 859177, Note_on_c, 0, 50, 59
1, 859179, Note_off_c, 0, 86, 65
1, 859180, Note_off_c, 0, 81, 66
1, 859185, Control_c, 0, 64, 127
1, 859189, Note_off_c, 0, 62, 65
1, 859190, Note_off_c, 0, 74, 63
1, 859196, Note_off_c, 0, 57, 64
1, 859198, Note_off_c, 0, 78, 65
1, 859206, Note_off_c, 0, 54, 65
1, 859208, Note_off_c, 0, 50, 66
1, 859311, Control_c, 0, 64, 93
1, 859326, Control_c, 0, 64, 0
1, 859357, Note_on_c, 0, 50, 68
1, 859358, Note_on_c, 0, 81, 90
1, 859360, Note_on_c, 0, 62, 88
1, 859361, Note_on_c, 0, 74, 75
1, 859363, Note_on_c, 0, 53, 83
1, 859363, Note_on_c, 0, 57, 80
1, 859364, Note_on_c, 0, 69, 81
1, 859369, Control_c, 0, 64, 65
1, 859371, Note_on_c, 0, 77, 57
1, 859383, Note_off_c, 0, 74, 71
1, 859384, Note_off_c, 0, 57, 70
1, 859384, Control_c, 0, 64, 111
1, 859389, Note_off_c, 0, 62, 62
1, 859391, Note_off_c, 0, 53, 69
1, 859391, Note_off_c, 0, 69, 60
1, 859392, Note_off_c, 0, 77, 61
1, 859399, Control_c, 0, 64, 127
1, 859417, Note_off_c, 0, 50, 64
1, 859452, Note_off_c, 0, 81, 59
1, 859503, Control_c, 0, 64, 79
1, 859518, Control_c, 0, 64, 0
1, 859545, Note_on_c, 0, 53, 68
1, 859554, Note_on_c, 0, 79, 83
1, 859556, Note_on_c, 0, 61, 85
1, 859556, Note_on_c, 0, 71, 85
1, 859556, Note_on_c, 0, 83, 88
1, 859557, Note_on_c, 0, 55, 74
1, 859561, Note_on_c, 0, 49, 70
1, 859563, Control_c, 0, 64, 77
1, 859567, Note_on_c, 0, 76, 61
1, 859577, Control_c, 0, 64, 127
1, 859578, Note_off_c, 0, 61, 68
1, 859585, Note_off_c, 0, 71, 59
1, 859586, Note_off_c, 0, 76, 65
1, 859588, Note_off_c, 0, 55, 64
1, 859594, Note_off_c, 0, 53, 66
1, 859595, Note_off_c, 0, 49, 65
1, 859615, Note_off_c, 0, 83, 60
1, 859669, Note_off_c, 0, 79, 28
1, 859711, Control_c, 0, 64, 68
1, 859725, Control_c, 0, 64, 0
1, 859737, Note_on_c, 0, 76, 94
1, 859740, Note_on_c, 0, 52, 77
1, 859740, Note_on_c, 0, 55, 71
1, 859740, Note_on_c, 0, 84, 76
1, 859743, Note_on_c, 0, 60, 85
1, 859743, Note_on_c, 0, 72, 87
1, 859746, Note_on_c, 0, 48, 78
1, 859761, Note_on_c, 0, 83, 59
1, 859761, Note_off_c, 0, 84, 70
1, 859770, Note_off_c, 0, 60, 66
1, 859770, Note_off_c, 0, 76, 67
1, 859770, Control_c, 0, 64, 91
1, 859773, Note_off_c, 0, 52, 67
1, 859777, Note_off_c, 0, 55, 65
1, 859780, Note_off_c, 0, 72, 62
1, 859781, Note_off_c, 0, 83, 61
1, 859782, Note_off_c, 0, 48, 60
1, 859785, Control_c, 0, 64, 127
1, 859889, Control_c, 0, 64, 107
1, 859903, Control_c, 0, 64, 66
1, 859918, Control_c, 0, 64, 0
1, 859934, Note_on_c, 0, 79, 89
1, 859934, Note_on_c, 0, 67, 86
1, 859935, Note_on_c, 0, 51, 83
1, 859937, Note_on_c, 0, 60, 79
1, 859944, Note_on_c, 0, 75, 51
1, 859948, Control_c, 0, 64, 49
1, 859949, Note_on_c, 0, 48, 68
1, 859959, Note_on_c, 0, 55, 12
1, 859963, Note_off_c, 0, 60, 65
1, 859963, Control_c, 0, 64, 92
1, 859967, Note_on_c, 0, 76, 57
1, 859972, Note_off_c, 0, 67, 62
1, 859984, Note_off_c, 0, 48, 64
1, 859985, Control_c, 0, 64, 127
1, 859992, Note_off_c, 0, 51, 62
1, 859997, Note_off_c, 0, 75, 47
1, 859998, Note_off_c, 0, 79, 61
1, 860003, Note_off_c, 0, 76, 51
1, 860010, Note_off_c, 0, 55, 54
1, 860104, Control_c, 0, 64, 85
1, 860118, Control_c, 0, 64, 0
1, 860123, Note_on_c, 0, 80, 80
1, 860125, Note_on_c, 0, 59, 88
1, 860125, Note_on_c, 0, 47, 76
1, 860126, Note_on_c, 0, 68, 83
1, 860127, Note_on_c, 0, 74, 78
1, 860131, Note_on_c, 0, 76, 73
1, 860137, Note_on_c, 0, 56, 49
1, 860144, Note_on_c, 0, 57, 61
1, 860150, Note_off_c, 0, 68, 63
1, 860152, Note_off_c, 0, 47, 67
1, 860152, Note_off_c, 0, 74, 67
1, 860153, Note_on_c, 0, 81, 61
1, 860153, Note_off_c, 0, 59, 63
1, 860155, Note_off_c, 0, 76, 67
1, 860160, Note_off_c, 0, 56, 39
1, 860163, Control_c, 0, 64, 89
1, 860167, Note_off_c, 0, 57, 61
1, 860176, Note_off_c, 0, 81, 41
1, 860177, Control_c, 0, 64, 127
1, 860186, Note_off_c, 0, 80, 57
1, 860297, Control_c, 0, 64, 75
1, 860312, Note_on_c, 0, 57, 44
1, 860312, Control_c, 0, 64, 0
1, 860313, Note_on_c, 0, 69, 94
1, 860313, Note_on_c, 0, 81, 89
1, 860316, Note_on_c, 0, 61, 79
1, 860319, Note_on_c, 0, 54, 67
1, 860321, Note_on_c, 0, 49, 71
1, 860346, Note_off_c, 0, 49, 66
1, 860351, Note_off_c, 0, 61, 62
1, 860352, Note_off_c, 0, 69, 65
1, 860356, Note_off_c, 0, 81, 66
1, 860356, Control_c, 0, 64, 86
1, 860363, Note_off_c, 0, 54, 56
1, 860371, Control_c, 0, 64, 127
1, 860395, Note_off_c, 0, 57, 37
1, 860489, Control_c, 0, 64, 75
1, 860500, Note_on_c, 0, 66, 83
1, 860500, Note_on_c, 0, 78, 88
1, 860500, Note_on_c, 0, 62, 84
1, 860504, Control_c, 0, 64, 0
1, 860509, Note_on_c, 0, 52, 66
1, 860512, Note_on_c, 0, 57, 70
1, 860513, Note_on_c, 0, 50, 62
1, 860525, Note_off_c, 0, 62, 66
1, 860525, Note_off_c, 0, 66, 63
1, 860533, Control_c, 0, 64, 73
1, 860542, Note_off_c, 0, 57, 64
1, 860542, Note_off_c, 0, 50, 67
1, 860542, Note_off_c, 0, 78, 64
1, 860545, Note_off_c, 0, 52, 64
1, 860548, Control_c, 0, 64, 127
1, 860667, Control_c, 0, 64, 102
1, 860682, Control_c, 0, 64, 64
1, 860683, Note_on_c, 0, 57, 64
1, 860684, Note_on_c, 0, 61, 77
1, 860687, Note_on_c, 0, 76, 74
1, 860694, Note_on_c, 0, 64, 67
1, 860697, Control_c, 0, 64, 0
1, 860697, Note_on_c, 0, 54, 68
1, 860707, Note_on_c, 0, 65, 58
1, 860712, Control_c, 0, 64, 36
1, 860713, Note_on_c, 0, 77, 34
1, 860714, Note_off_c, 0, 77, 127
1, 860717, Note_off_c, 0, 61, 63
1, 860730, Note_off_c, 0, 64, 68
1, 860731, Note_off_c, 0, 76, 60
1, 860733, Control_c, 0, 64, 70
1, 860736, Note_off_c, 0, 65, 62
1, 860748, Note_off_c, 0, 54, 59
1, 860748, Control_c, 0, 64, 127
1, 860766, Note_off_c, 0, 57, 54
1, 860866, Control_c, 0, 64, 81
1, 860880, Note_on_c, 0, 60, 69
1, 860881, Control_c, 0, 64, 0
1, 860883, Note_on_c, 0, 75, 76
1, 860885, Note_on_c, 0, 54, 70
1, 860892, Note_on_c, 0, 63, 65
1, 860905, Note_on_c, 0, 57, 36
1, 860910, Note_off_c, 0, 60, 65
1, 860917, Note_off_c, 0, 54, 64
1, 860926, Control_c, 0, 64, 83
1, 860927, Note_off_c, 0, 63, 59
1, 860940, Control_c, 0, 64, 127
1, 860941, Note_off_c, 0, 57, 46
1, 860945, Note_off_c, 0, 75, 59
1, 861060, Control_c, 0, 64, 70
1, 861074, Control_c, 0, 64, 0
1, 861081, Note_on_c, 0, 74, 80
1, 861082, Note_on_c, 0, 56, 70
1, 861087, Note_on_c, 0, 62, 71
1, 861087, Note_on_c, 0, 64, 74
1, 861100, Note_on_c, 0, 59, 60
1, 861117, Note_off_c, 0, 62, 64
1, 861119, Control_c, 0, 64, 67
1, 861120, Note_off_c, 0, 64, 63
1, 861134, Control_c, 0, 64, 127
1, 861138, Note_off_c, 0, 56, 55
1, 861165, Note_off_c, 0, 59, 40
1, 861202, Note_off_c, 0, 74, 38
1, 861252, Control_c, 0, 64, 111
1, 861267, Control_c, 0, 64, 65
1, 861274, Note_on_c, 0, 61, 79
1, 861280, Note_on_c, 0, 57, 71
1, 861281, Note_on_c, 0, 73, 84
1, 861281, Control_c, 0, 64, 0
1, 861290, Note_on_c, 0, 69, 75
1, 861297, Note_off_c, 0, 61, 68
1, 861303, Note_off_c, 0, 57, 66
1, 861311, Control_c, 0, 64, 79
1, 861316, Note_off_c, 0, 69, 64
1, 861326, Control_c, 0, 64, 127
1, 861412, Note_off_c, 0, 73, 57
1, 861445, Control_c, 0, 64, 89
1, 861460, Control_c, 0, 64, 0
1, 861496, Control_c, 0, 64, 63
1, 861510, Note_on_c, 0, 50, 80
1, 861511, Note_on_c, 0, 38, 77
1, 861511, Control_c, 0, 64, 91
1, 861514, Note_on_c, 0, 71, 81
1, 861520, Note_on_c, 0, 69, 76
1, 861526, Control_c, 0, 64, 127
1, 861547, Note_off_c, 0, 38, 64
1, 861570, Note_off_c, 0, 50, 62
1, 861590, Note_off_c, 0, 69, 56
1, 861604, Note_off_c, 0, 71, 63
1, 861683, Note_on_c, 0, 71, 91
1, 861693, Note_on_c, 0, 54, 82
1, 861693, Note_on_c, 0, 69, 70
1, 861726, Note_off_c, 0, 69, 64
1, 861738, Note_off_c, 0, 71, 65
1, 861809, Note_on_c, 0, 59, 91
1, 861812, Note_on_c, 0, 71, 99
1, 861821, Note_on_c, 0, 69, 80
1, 861846, Note_off_c, 0, 54, 59
1, 861851, Note_off_c, 0, 69, 65
1, 861857, Note_off_c, 0, 71, 67
1, 861923, Note_on_c, 0, 71, 105
1, 861925, Note_on_c, 0, 62, 85
1, 861933, Note_on_c, 0, 69, 85
1, 861951, Note_off_c, 0, 69, 72
1, 861970, Note_off_c, 0, 71, 67
1, 861988, Note_off_c, 0, 62, 60
1, 862010, Note_off_c, 0, 59, 59
1, 862134, Note_on_c, 0, 65, 97
1, 862139, Note_on_c, 0, 53, 87
1, 862143, Note_on_c, 0, 68, 78
1, 862155, Note_on_c, 0, 70, 53
1, 862161, Note_on_c, 0, 71, 67
1, 862165, Control_c, 0, 64, 74
1, 862179, Control_c, 0, 64, 0
1, 862184, Note_off_c, 0, 71, 62
1, 862188, Note_off_c, 0, 70, 54
1, 862209, Note_off_c, 0, 68, 58
1, 862232, Control_c, 0, 64, 23
1, 862247, Control_c, 0, 64, 66
1, 862261, Control_c, 0, 64, 94
1, 862276, Control_c, 0, 64, 127
1, 862277, Note_on_c, 0, 68, 77
1, 862283, Note_on_c, 0, 70, 78
1, 862314, Note_off_c, 0, 65, 62
1, 862324, Note_off_c, 0, 53, 66
1, 862342, Note_off_c, 0, 70, 62
1, 862405, Note_on_c, 0, 78, 74
1, 862411, Note_on_c, 0, 80, 82
1, 862417, Note_on_c, 0, 62, 80
1, 862417, Note_on_c, 0, 50, 79
1, 862438, Note_off_c, 0, 78, 52
1, 862441, Note_off_c, 0, 62, 66
1, 862447, Note_off_c, 0, 50, 69
1, 862450, Note_off_c, 0, 68, 61
1, 862460, Note_on_c, 0, 77, 21
1, 862468, Note_off_c, 0, 80, 57
1, 862494, Note_on_c, 0, 80, 64
1, 862504, Note_off_c, 0, 77, 0
1, 862504, Note_on_c, 0, 77, 31
1, 862545, Note_off_c, 0, 80, 62
1, 862547, Note_off_c, 0, 77, 63
1, 862592, Note_on_c, 0, 58, 71
1, 862593, Note_on_c, 0, 46, 80
1, 862601, Note_on_c, 0, 70, 84
1, 862614, Note_on_c, 0, 68, 64
1, 862617, Note_off_c, 0, 58, 67
1, 862621, Note_off_c, 0, 46, 64
1, 862632, Note_off_c, 0, 68, 67
1, 862636, Note_off_c, 0, 70, 58
1, 862688, Note_on_c, 0, 70, 77
1, 862694, Note_on_c, 0, 68, 66
1, 862719, Note_off_c, 0, 68, 64
1, 862733, Note_off_c, 0, 70, 63
1, 862774, Note_on_c, 0, 41, 87
1, 862774, Note_on_c, 0, 53, 85
1, 862789, Note_on_c, 0, 77, 81
1, 862789, Note_on_c, 0, 80, 78
1, 862793, Note_on_c, 0, 68, 67
1, 862793, Note_off_c, 0, 53, 72
1, 862800, Note_off_c, 0, 41, 65
1, 862817, Note_off_c, 0, 68, 68
1, 862835, Note_off_c, 0, 77, 61
1, 862840, Note_off_c, 0, 80, 61
1, 862882, Note_on_c, 0, 80, 68
1, 862890, Note_on_c, 0, 77, 69
1, 862928, Control_c, 0, 64, 94
1, 862933, Poly_aftertouch_c, 0, 53, 0
1, 862943, Control_c, 0, 64, 60
1, 862951, Note_off_c, 0, 77, 62
1, 862958, Control_c, 0, 64, 0
1, 862987, Note_off_c, 0, 80, 53
1, 862995, Control_c, 0, 64, 48
1, 863001, Note_on_c, 0, 51, 91
1, 863003, Note_on_c, 0, 39, 90
1, 863010, Note_on_c, 0, 71, 79
1, 863010, Control_c, 0, 64, 73
1, 863016, Note_on_c, 0, 69, 74
1, 863025, Control_c, 0, 64, 109
1, 863025, Note_off_c, 0, 51, 69
1, 863027, Note_off_c, 0, 39, 68
1, 863040, Control_c, 0, 64, 127
1, 863091, Note_off_c, 0, 69, 56
1, 863099, Note_off_c, 0, 71, 58
1, 863180, Note_on_c, 0, 71, 85
1, 863185, Note_on_c, 0, 54, 79
1, 863186, Note_on_c, 0, 69, 73
1, 863210, Note_off_c, 0, 69, 63
1, 863223, Note_off_c, 0, 71, 66
1, 863284, Note_on_c, 0, 71, 81
1, 863289, Note_on_c, 0, 59, 80
1, 863291, Note_on_c, 0, 69, 76
1, 863317, Note_off_c, 0, 69, 67
1, 863318, Note_off_c, 0, 54, 63
1, 863327, Note_off_c, 0, 71, 65
1, 863373, Note_on_c, 0, 71, 80
1, 863377, Note_on_c, 0, 63, 85
1, 863382, Note_on_c, 0, 69, 81
1, 863404, Note_off_c, 0, 69, 64
1, 863415, Note_off_c, 0, 71, 67
1, 863420, Note_off_c, 0, 63, 62
1, 863487, Note_on_c, 0, 78, 85
1, 863488, Note_on_c, 0, 54, 80
1, 863490, Note_on_c, 0, 66, 84
1, 863492, Note_on_c, 0, 81, 77
1, 863523, Note_off_c, 0, 59, 59
1, 863530, Note_off_c, 0, 81, 55
1, 863532, Note_off_c, 0, 78, 62
1, 863538, Note_off_c, 0, 66, 61
1, 863546, Note_off_c, 0, 54, 60
1, 863584, Note_on_c, 0, 81, 71
1, 863589, Note_on_c, 0, 78, 77
1, 863639, Note_off_c, 0, 81, 60
1, 863647, Note_off_c, 0, 78, 61
1, 863687, Note_on_c, 0, 63, 80
1, 863690, Note_on_c, 0, 51, 80
1, 863692, Note_on_c, 0, 71, 80
1, 863698, Note_on_c, 0, 69, 75
1, 863711, Note_off_c, 0, 71, 72
1, 863712, Note_off_c, 0, 63, 67
1, 863714, Note_off_c, 0, 51, 71
1, 863718, Note_off_c, 0, 69, 71
1, 863791, Note_on_c, 0, 71, 85
1, 863819, Note_off_c, 0, 71, 56
1, 863877, Control_c, 0, 67, 8
1, 863892, Control_c, 0, 67, 10
1, 863897, Note_on_c, 0, 59, 82
1, 863900, Note_on_c, 0, 47, 79
1, 863903, Note_on_c, 0, 78, 72
1, 863903, Note_on_c, 0, 81, 72
1, 863907, Control_c, 0, 67, 12
1, 863918, Note_off_c, 0, 59, 69
1, 863922, Control_c, 0, 67, 16
1, 863924, Note_off_c, 0, 78, 70
1, 863926, Note_off_c, 0, 47, 68
1, 863927, Note_off_c, 0, 81, 65
1, 863937, Control_c, 0, 67, 19
1, 863951, Control_c, 0, 67, 23
1, 863966, Control_c, 0, 67, 26
1, 863981, Control_c, 0, 67, 30
1, 863996, Control_c, 0, 67, 35
1, 864009, Note_on_c, 0, 81, 71
1, 864011, Control_c, 0, 67, 39
1, 864017, Note_on_c, 0, 78, 61
1, 864025, Control_c, 0, 67, 44
1, 864040, Control_c, 0, 67, 49
1, 864045, Note_off_c, 0, 78, 65
1, 864055, Control_c, 0, 67, 55
1, 864056, Note_off_c, 0, 81, 44
1, 864069, Control_c, 0, 67, 61
1, 864084, Control_c, 0, 67, 68
1, 864099, Control_c, 0, 67, 73
1, 864112, Note_on_c, 0, 71, 76
1, 864113, Note_on_c, 0, 54, 73
1, 864114, Control_c, 0, 67, 80
1, 864119, Note_on_c, 0, 42, 74
1, 864122, Note_on_c, 0, 69, 66
1, 864129, Control_c, 0, 67, 90
1, 864136, Note_off_c, 0, 71, 64
1, 864136, Note_off_c, 0, 54, 67
1, 864143, Control_c, 0, 67, 97
1, 864146, Note_off_c, 0, 42, 65
1, 864149, Note_off_c, 0, 69, 66
1, 864158, Control_c, 0, 67, 101
1, 864173, Control_c, 0, 67, 104
1, 864188, Control_c, 0, 67, 105
1, 864204, Control_c, 0, 67, 105
1, 864215, Note_on_c, 0, 69, 65
1, 864221, Note_on_c, 0, 71, 76
1, 864248, Control_c, 0, 67, 106
1, 864278, Control_c, 0, 67, 106
1, 864286, Note_off_c, 0, 71, 54
1, 864293, Control_c, 0, 67, 108
1, 864297, Note_off_c, 0, 69, 54
1, 864307, Control_c, 0, 67, 110
1, 864322, Control_c, 0, 67, 114
1, 864337, Control_c, 0, 67, 117
1, 864352, Control_c, 0, 64, 85
1, 864352, Control_c, 0, 67, 120
1, 864367, Control_c, 0, 64, 21
1, 864367, Control_c, 0, 67, 123
1, 864382, Control_c, 0, 64, 0
1, 864382, Control_c, 0, 67, 126
1, 864397, Control_c, 0, 67, 127
1, 864411, Note_on_c, 0, 40, 59
1, 864413, Note_on_c, 0, 71, 65
1, 864417, Note_on_c, 0, 69, 59
1, 864426, Control_c, 0, 64, 47
1, 864441, Control_c, 0, 64, 70
1, 864456, Control_c, 0, 64, 88
1, 864478, Control_c, 0, 64, 127
1, 864490, Note_off_c, 0, 40, 62
1, 864500, Note_off_c, 0, 71, 61
1, 864507, Control_c, 0, 67, 127
1, 864509, Note_off_c, 0, 69, 53
1, 864522, Control_c, 0, 67, 124
1, 864537, Control_c, 0, 67, 122
1, 864552, Control_c, 0, 67, 120
1, 864567, Control_c, 0, 67, 118
1, 864581, Control_c, 0, 67, 117
1, 864596, Control_c, 0, 67, 115
1, 864611, Control_c, 0, 67, 114
1, 864613, Note_on_c, 0, 71, 75
1, 864617, Note_on_c, 0, 69, 64
1, 864625, Control_c, 0, 67, 112
1, 864635, Note_on_c, 0, 61, 62
1, 864640, Control_c, 0, 67, 111
1, 864646, Note_off_c, 0, 69, 62
1, 864655, Control_c, 0, 67, 110
1, 864656, Note_off_c, 0, 71, 58
1, 864670, Control_c, 0, 67, 110
1, 864685, Control_c, 0, 67, 109
1, 864699, Control_c, 0, 67, 108
1, 864714, Control_c, 0, 67, 107
1, 864729, Control_c, 0, 67, 106
1, 864735, Note_on_c, 0, 71, 78
1, 864736, Note_off_c, 0, 61, 60
1, 864739, Note_on_c, 0, 62, 66
1, 864744, Control_c, 0, 67, 105
1, 864751, Note_on_c, 0, 69, 51
1, 864759, Control_c, 0, 67, 103
1, 864773, Control_c, 0, 67, 102
1, 864774, Note_off_c, 0, 69, 60
1, 864780, Note_off_c, 0, 71, 60
1, 864788, Control_c, 0, 67, 100
1, 864797, Note_off_c, 0, 62, 62
1, 864803, Control_c, 0, 67, 99
1, 864818, Control_c, 0, 67, 99
1, 864828, Note_on_c, 0, 73, 86
1, 864838, Note_on_c, 0, 69, 66
1, 864842, Note_on_c, 0, 64, 71
1, 864866, Note_off_c, 0, 69, 66
1, 864873, Note_off_c, 0, 73, 63
1, 864891, Control_c, 0, 67, 99
1, 864901, Note_off_c, 0, 64, 62
1, 864906, Control_c, 0, 67, 100
1, 864929, Note_on_c, 0, 66, 72
1, 864929, Note_on_c, 0, 69, 74
1, 864929, Note_on_c, 0, 74, 93
1, 864936, Control_c, 0, 67, 100
1, 864951, Control_c, 0, 67, 101
1, 864968, Note_off_c, 0, 69, 58
1, 864981, Control_c, 0, 67, 101
1, 864982, Note_off_c, 0, 74, 65
1, 864996, Control_c, 0, 67, 102
1, 865011, Control_c, 0, 67, 102
1, 865019, Note_on_c, 0, 76, 95
1, 865026, Control_c, 0, 67, 104
1, 865031, Note_on_c, 0, 68, 71
1, 865034, Note_on_c, 0, 71, 63
1, 865034, Note_off_c, 0, 66, 52
1, 865041, Control_c, 0, 67, 104
1, 865056, Control_c, 0, 67, 105
1, 865058, Note_off_c, 0, 71, 70
1, 865061, Note_off_c, 0, 68, 62
1, 865067, Note_off_c, 0, 76, 63
1, 865070, Control_c, 0, 67, 106
1, 865085, Control_c, 0, 67, 106
1, 865100, Control_c, 0, 67, 107
1, 865118, Note_on_c, 0, 78, 94
1, 865130, Control_c, 0, 67, 107
1, 865130, Note_on_c, 0, 69, 65
1, 865133, Note_on_c, 0, 73, 83
1, 865160, Note_off_c, 0, 73, 62
1, 865169, Note_off_c, 0, 78, 64
1, 865186, Note_off_c, 0, 69, 59
1, 865222, Note_on_c, 0, 68, 77
1, 865226, Control_c, 0, 67, 107
1, 865228, Note_on_c, 0, 71, 76
1, 865229, Note_on_c, 0, 76, 78
1, 865241, Control_c, 0, 67, 106
1, 865248, Note_off_c, 0, 71, 71
1, 865249, Note_off_c, 0, 76, 69
1, 865255, Control_c, 0, 67, 106
1, 865270, Control_c, 0, 67, 105
1, 865289, Note_off_c, 0, 68, 60
1, 865300, Control_c, 0, 67, 105
1, 865321, Note_on_c, 0, 66, 74
1, 865323, Note_on_c, 0, 74, 91
1, 865324, Note_on_c, 0, 69, 81
1, 865348, Note_off_c, 0, 69, 66
1, 865373, Note_off_c, 0, 66, 61
1, 865374, Note_off_c, 0, 74, 63
1, 865404, Control_c, 0, 67, 105
1, 865416, Note_on_c, 0, 64, 67
1, 865417, Note_on_c, 0, 73, 86
1, 865431, Note_on_c, 0, 68, 77
1, 865434, Control_c, 0, 67, 106
1, 865464, Control_c, 0, 67, 106
1, 865477, Note_off_c, 0, 68, 57
1, 865485, Note_off_c, 0, 64, 61
1, 865493, Control_c, 0, 64, 115
1, 865502, Note_off_c, 0, 73, 59
1, 865508, Control_c, 0, 64, 77
1, 865520, Note_on_c, 0, 62, 67
1, 865520, Note_on_c, 0, 66, 67
1, 865523, Control_c, 0, 64, 0
1, 865529, Note_on_c, 0, 71, 58
1, 865538, Note_on_c, 0, 72, 55
1, 865553, Control_c, 0, 64, 38
1, 865568, Control_c, 0, 64, 67
1, 865580, Note_off_c, 0, 62, 62
1, 865583, Control_c, 0, 64, 81
1, 865597, Control_c, 0, 64, 109
1, 865600, Note_off_c, 0, 66, 38
1, 865603, Note_off_c, 0, 72, 37
1, 865604, Note_on_c, 0, 68, 70
1, 865607, Note_on_c, 0, 64, 67
1, 865608, Note_on_c, 0, 73, 79
1, 865612, Control_c, 0, 64, 127
1, 865615, Note_off_c, 0, 71, 64
1, 865634, Note_off_c, 0, 68, 65
1, 865635, Note_off_c, 0, 64, 67
1, 865684, Note_off_c, 0, 73, 58
1, 865686, Control_c, 0, 67, 106
1, 865701, Control_c, 0, 67, 105
1, 865711, Note_on_c, 0, 59, 80
1, 865715, Note_on_c, 0, 52, 73
1, 865715, Control_c, 0, 64, 85
1, 865715, Control_c, 0, 67, 104
1, 865718, Note_on_c, 0, 71, 81
1, 865724, Note_on_c, 0, 69, 70
1, 865730, Control_c, 0, 64, 63
1, 865730, Control_c, 0, 67, 102
1, 865741, Note_off_c, 0, 71, 66
1, 865745, Control_c, 0, 64, 43
1, 865745, Control_c, 0, 67, 101
1, 865752, Note_off_c, 0, 69, 65
1, 865760, Control_c, 0, 64, 63
1, 865760, Control_c, 0, 67, 100
1, 865764, Note_off_c, 0, 52, 57
1, 865775, Control_c, 0, 64, 71
1, 865775, Control_c, 0, 67, 100
1, 865791, Control_c, 0, 64, 86
1, 865791, Control_c, 0, 67, 99
1, 865806, Control_c, 0, 64, 127
1, 865813, Note_on_c, 0, 61, 77
1, 865818, Note_off_c, 0, 59, 51
1, 865818, Note_on_c, 0, 71, 81
1, 865820, Control_c, 0, 67, 99
1, 865822, Note_on_c, 0, 69, 67
1, 865842, Note_off_c, 0, 71, 63
1, 865851, Note_off_c, 0, 69, 66
1, 865910, Note_off_c, 0, 61, 61
1, 865915, Note_on_c, 0, 62, 71
1, 865917, Note_on_c, 0, 71, 88
1, 865930, Note_on_c, 0, 69, 55
1, 865938, Control_c, 0, 67, 98
1, 865948, Note_off_c, 0, 69, 66
1, 865953, Control_c, 0, 67, 97
1, 865958, Note_off_c, 0, 71, 63
1, 865979, Note_off_c, 0, 62, 63
1, 866009, Note_on_c, 0, 73, 89
1, 866011, Note_on_c, 0, 64, 77
1, 866015, Note_on_c, 0, 69, 74
1, 866020, Control_c, 0, 67, 98
1, 866035, Control_c, 0, 67, 98
1, 866042, Note_off_c, 0, 69, 60
1, 866050, Control_c, 0, 67, 99
1, 866051, Note_off_c, 0, 73, 64
1, 866065, Control_c, 0, 67, 100
1, 866079, Control_c, 0, 67, 101
1, 866082, Note_off_c, 0, 64, 60
1, 866094, Control_c, 0, 67, 102
1, 866101, Note_on_c, 0, 66, 76
1, 866109, Control_c, 0, 67, 103
1, 866110, Note_on_c, 0, 74, 92
1, 866120, Note_on_c, 0, 69, 76
1, 866124, Control_c, 0, 67, 104
1, 866139, Control_c, 0, 67, 105
1, 866146, Note_off_c, 0, 69, 67
1, 866153, Control_c, 0, 67, 105
1, 866158, Note_off_c, 0, 74, 66
1, 866168, Control_c, 0, 67, 106
1, 866199, Note_on_c, 0, 76, 98
1, 866200, Note_on_c, 0, 68, 79
1, 866203, Note_off_c, 0, 66, 58
1, 866213, Note_on_c, 0, 71, 71
1, 866234, Note_off_c, 0, 71, 72
1, 866245, Note_off_c, 0, 76, 64
1, 866263, Note_off_c, 0, 68, 61
1, 866290, Note_on_c, 0, 69, 49
1, 866304, Note_on_c, 0, 78, 93
1, 866319, Note_on_c, 0, 73, 83
1, 866341, Note_off_c, 0, 73, 66
1, 866346, Control_c, 0, 64, 78
1, 866351, Note_off_c, 0, 78, 65
1, 866361, Control_c, 0, 64, 61
1, 866376, Control_c, 0, 64, 65
1, 866391, Control_c, 0, 64, 72
1, 866391, Control_c, 0, 67, 105
1, 866399, Note_off_c, 0, 69, 55
1, 866403, Note_on_c, 0, 71, 85
1, 866405, Control_c, 0, 64, 81
1, 866406, Note_on_c, 0, 68, 82
1, 866408, Note_on_c, 0, 76, 80
1, 866420, Control_c, 0, 64, 95
1, 866420, Control_c, 0, 67, 104
1, 866435, Control_c, 0, 64, 127
1, 866437, Note_off_c, 0, 76, 60
1, 866439, Note_off_c, 0, 71, 62
1, 866489, Note_off_c, 0, 68, 56
1, 866509, Note_on_c, 0, 66, 80
1, 866513, Note_on_c, 0, 69, 87
1, 866515, Note_on_c, 0, 74, 96
1, 866564, Note_off_c, 0, 69, 54
1, 866580, Note_off_c, 0, 66, 61
1, 866614, Note_on_c, 0, 73, 85
1, 866615, Note_off_c, 0, 74, 62
1, 866620, Note_on_c, 0, 64, 70
1, 866632, Note_on_c, 0, 68, 72
1, 866658, Control_c, 0, 67, 104
1, 866702, Control_c, 0, 67, 103
1, 866725, Control_c, 0, 67, 102
1, 866739, Control_c, 0, 67, 101
1, 866752, Note_off_c, 0, 68, 49
1, 866754, Control_c, 0, 67, 100
1, 866761, Note_on_c, 0, 71, 83
1, 866762, Note_on_c, 0, 66, 83
1, 866765, Note_off_c, 0, 64, 58
1, 866769, Note_on_c, 0, 62, 76
1, 866769, Control_c, 0, 64, 105
1, 866769, Control_c, 0, 67, 99
1, 866784, Control_c, 0, 64, 77
1, 866784, Control_c, 0, 67, 98
1, 866789, Note_off_c, 0, 73, 62
1, 866799, Control_c, 0, 64, 62
1, 866799, Control_c, 0, 67, 97
1, 866814, Control_c, 0, 64, 62
1, 866814, Control_c, 0, 67, 96
1, 866829, Control_c, 0, 64, 67
1, 866829, Control_c, 0, 67, 92
1, 866843, Control_c, 0, 64, 73
1, 866843, Control_c, 0, 67, 88
1, 866858, Control_c, 0, 64, 84
1, 866858, Control_c, 0, 67, 82
1, 866869, Note_off_c, 0, 62, 62
1, 866873, Control_c, 0, 64, 111
1, 866873, Control_c, 0, 67, 77
1, 866888, Control_c, 0, 64, 127
1, 866888, Control_c, 0, 67, 73
1, 866890, Note_on_c, 0, 73, 89
1, 866892, Note_on_c, 0, 68, 80
1, 866898, Note_on_c, 0, 64, 76
1, 866902, Control_c, 0, 67, 69
1, 866911, Note_off_c, 0, 66, 59
1, 866917, Control_c, 0, 67, 63
1, 866922, Note_off_c, 0, 64, 71
1, 866924, Note_off_c, 0, 71, 63
1, 866932, Control_c, 0, 67, 58
1, 866944, Note_off_c, 0, 68, 60
1, 866947, Control_c, 0, 67, 52
1, 866962, Control_c, 0, 67, 46
1, 866976, Control_c, 0, 67, 41
1, 866991, Control_c, 0, 67, 36
1, 867006, Control_c, 0, 67, 32
1, 867020, Control_c, 0, 67, 28
1, 867035, Control_c, 0, 67, 26
1, 867050, Control_c, 0, 67, 24
1, 867065, Control_c, 0, 67, 23
1, 867154, Control_c, 0, 67, 24
1, 867169, Control_c, 0, 67, 24
1, 867178, Note_on_c, 0, 69, 77
1, 867178, Note_on_c, 0, 45, 56
1, 867184, Control_c, 0, 67, 25
1, 867199, Control_c, 0, 67, 26
1, 867213, Control_c, 0, 67, 28
1, 867228, Control_c, 0, 67, 29
1, 867243, Control_c, 0, 64, 95
1, 867243, Control_c, 0, 67, 30
1, 867258, Control_c, 0, 64, 71
1, 867258, Control_c, 0, 67, 32
1, 867270, Note_off_c, 0, 73, 58
1, 867273, Control_c, 0, 64, 0
1, 867273, Control_c, 0, 67, 34
1, 867286, Note_on_c, 0, 52, 67
1, 867288, Control_c, 0, 67, 36
1, 867292, Note_off_c, 0, 45, 62
1, 867302, Control_c, 0, 67, 39
1, 867317, Control_c, 0, 64, 17
1, 867317, Control_c, 0, 67, 44
1, 867332, Control_c, 0, 64, 62
1, 867332, Control_c, 0, 67, 48
1, 867336, Note_off_c, 0, 52, 61
1, 867347, Control_c, 0, 64, 72
1, 867347, Control_c, 0, 67, 53
1, 867362, Control_c, 0, 64, 87
1, 867362, Control_c, 0, 67, 57
1, 867364, Note_on_c, 0, 57, 61
1, 867376, Control_c, 0, 64, 127
1, 867376, Control_c, 0, 67, 61
1, 867391, Control_c, 0, 67, 65
1, 867407, Control_c, 0, 67, 69
1, 867421, Note_off_c, 0, 57, 61
1, 867422, Control_c, 0, 67, 73
1, 867430, Note_off_c, 0, 69, 64
1, 867437, Control_c, 0, 67, 75
1, 867439, Note_on_c, 0, 61, 81
1, 867451, Control_c, 0, 67, 76
1, 867473, Control_c, 0, 67, 77
1, 867520, Note_on_c, 0, 62, 76
1, 867525, Note_off_c, 0, 61, 53
1, 867547, Control_c, 0, 67, 76
1, 867562, Control_c, 0, 67, 76
1, 867563, Note_on_c, 0, 64, 82
1, 867574, Note_off_c, 0, 62, 62
1, 867642, Note_off_c, 0, 64, 65
1, 867643, Note_on_c, 0, 65, 83
1, 867653, Note_on_c, 0, 69, 75
1, 867666, Control_c, 0, 67, 75
1, 867681, Control_c, 0, 64, 79
1, 867681, Control_c, 0, 67, 75
1, 867696, Control_c, 0, 64, 52
1, 867696, Control_c, 0, 67, 74
1, 867711, Control_c, 0, 64, 0
1, 867711, Control_c, 0, 67, 74
1, 867725, Control_c, 0, 67, 73
1, 867729, Note_on_c, 0, 72, 79
1, 867740, Note_off_c, 0, 69, 59
1, 867740, Control_c, 0, 64, 46
1, 867740, Control_c, 0, 67, 72
1, 867755, Control_c, 0, 64, 65
1, 867755, Control_c, 0, 67, 71
1, 867770, Control_c, 0, 64, 76
1, 867770, Control_c, 0, 67, 70
1, 867785, Control_c, 0, 64, 92
1, 867785, Control_c, 0, 67, 69
1, 867790, Note_on_c, 0, 75, 85
1, 867799, Note_off_c, 0, 72, 64
1, 867799, Control_c, 0, 64, 127
1, 867799, Control_c, 0, 67, 69
1, 867814, Control_c, 0, 67, 68
1, 867829, Control_c, 0, 67, 68
1, 867866, Note_on_c, 0, 72, 84
1, 867899, Note_off_c, 0, 65, 57
1, 867900, Note_off_c, 0, 75, 64
1, 867903, Control_c, 0, 67, 68
1, 867917, Control_c, 0, 67, 69
1, 867945, Note_on_c, 0, 69, 86
1, 867947, Control_c, 0, 67, 69
1, 867948, Note_off_c, 0, 72, 65
1, 867955, Note_on_c, 0, 53, 63
1, 867977, Control_c, 0, 67, 70
1, 867984, Note_off_c, 0, 53, 66
1, 867991, Control_c, 0, 67, 70
1, 868006, Control_c, 0, 67, 71
1, 868021, Control_c, 0, 67, 71
1, 868030, Note_on_c, 0, 81, 94
1, 868036, Control_c, 0, 67, 72
1, 868051, Control_c, 0, 67, 72
1, 868058, Note_off_c, 0, 69, 60
1, 868081, Control_c, 0, 67, 73
1, 868125, Control_c, 0, 67, 73
1, 868140, Control_c, 0, 67, 74
1, 868142, Note_off_c, 0, 81, 59
1, 868169, Control_c, 0, 67, 74
1, 868200, Control_c, 0, 67, 75
1, 868229, Note_on_c, 0, 81, 82
1, 868237, Control_c, 0, 67, 76
1, 868243, Note_on_c, 0, 45, 58
1, 868259, Note_on_c, 0, 69, 55
1, 868265, Note_on_c, 0, 73, 65
1, 868267, Control_c, 0, 67, 76
1, 868281, Control_c, 0, 64, 101
1, 868281, Control_c, 0, 67, 77
1, 868296, Control_c, 0, 64, 75
1, 868296, Control_c, 0, 67, 77
1, 868311, Control_c, 0, 64, 42
1, 868311, Control_c, 0, 67, 78
1, 868327, Control_c, 0, 64, 0
1, 868327, Control_c, 0, 67, 78
1, 868342, Control_c, 0, 64, 40
1, 868342, Control_c, 0, 67, 79
1, 868345, Note_off_c, 0, 45, 63
1, 868353, Note_off_c, 0, 69, 56
1, 868356, Note_on_c, 0, 52, 55
1, 868356, Control_c, 0, 64, 65
1, 868356, Control_c, 0, 67, 80
1, 868371, Control_c, 0, 64, 73
1, 868371, Control_c, 0, 67, 83
1, 868386, Control_c, 0, 64, 86
1, 868386, Control_c, 0, 67, 86
1, 868396, Note_off_c, 0, 52, 64
1, 868401, Control_c, 0, 64, 124
1, 868401, Control_c, 0, 67, 88
1, 868416, Control_c, 0, 64, 127
1, 868416, Control_c, 0, 67, 89
1, 868424, Note_on_c, 0, 57, 58
1, 868430, Note_off_c, 0, 73, 62
1, 868430, Control_c, 0, 67, 91
1, 868445, Control_c, 0, 67, 93
1, 868460, Control_c, 0, 67, 95
1, 868467, Note_off_c, 0, 57, 54
1, 868474, Control_c, 0, 67, 97
1, 868489, Control_c, 0, 67, 100
1, 868502, Note_on_c, 0, 61, 76
1, 868504, Control_c, 0, 67, 102
1, 868519, Control_c, 0, 67, 104
1, 868534, Control_c, 0, 67, 105
1, 868549, Control_c, 0, 67, 106
1, 868571, Note_off_c, 0, 61, 58
1, 868574, Note_on_c, 0, 62, 65
1, 868620, Note_on_c, 0, 64, 75
1, 868626, Note_off_c, 0, 62, 62
1, 868682, Note_off_c, 0, 64, 65
1, 868692, Note_on_c, 0, 69, 63
1, 868699, Note_on_c, 0, 65, 78
1, 868712, Control_c, 0, 64, 88
1, 868727, Control_c, 0, 64, 67
1, 868727, Control_c, 0, 67, 105
1, 868741, Control_c, 0, 64, 59
1, 868741, Control_c, 0, 67, 104
1, 868749, Note_on_c, 0, 72, 75
1, 868754, Note_off_c, 0, 69, 61
1, 868756, Control_c, 0, 64, 64
1, 868756, Control_c, 0, 67, 103
1, 868771, Control_c, 0, 64, 70
1, 868771, Control_c, 0, 67, 101
1, 868785, Control_c, 0, 64, 77
1, 868785, Control_c, 0, 67, 100
1, 868800, Control_c, 0, 64, 90
1, 868800, Control_c, 0, 67, 98
1, 868815, Note_off_c, 0, 72, 60
1, 868815, Control_c, 0, 64, 127
1, 868815, Control_c, 0, 67, 97
1, 868817, Note_on_c, 0, 75, 81
1, 868830, Control_c, 0, 67, 95
1, 868845, Control_c, 0, 67, 93
1, 868847, Note_off_c, 0, 81, 61
1, 868859, Control_c, 0, 67, 90
1, 868874, Control_c, 0, 67, 88
1, 868880, Note_on_c, 0, 72, 71
1, 868889, Control_c, 0, 67, 85
1, 868895, Note_off_c, 0, 65, 61
1, 868897, Note_off_c, 0, 75, 63
1, 868904, Control_c, 0, 67, 83
1, 868919, Control_c, 0, 67, 82
1, 868927, Note_on_c, 0, 53, 65
1, 868933, Note_off_c, 0, 72, 66
1, 868933, Control_c, 0, 67, 81
1, 868942, Note_on_c, 0, 69, 77
1, 868965, Note_off_c, 0, 53, 66
1, 869002, Control_c, 0, 67, 82
1, 869010, Note_off_c, 0, 69, 58
1, 869017, Control_c, 0, 67, 83
1, 869032, Note_on_c, 0, 81, 91
1, 869032, Control_c, 0, 67, 84
1, 869046, Control_c, 0, 67, 84
1, 869061, Control_c, 0, 67, 85
1, 869075, Control_c, 0, 67, 86
1, 869090, Control_c, 0, 67, 87
1, 869104, Control_c, 0, 67, 88
1, 869119, Control_c, 0, 67, 88
1, 869134, Control_c, 0, 67, 89
1, 869149, Control_c, 0, 67, 90
1, 869178, Control_c, 0, 67, 90
1, 869189, Note_on_c, 0, 46, 58
1, 869192, Note_on_c, 0, 84, 80
1, 869193, Control_c, 0, 67, 91
1, 869208, Control_c, 0, 67, 91
1, 869211, Note_on_c, 0, 72, 56
1, 869223, Control_c, 0, 64, 89
1, 869223, Control_c, 0, 67, 92
1, 869227, Note_on_c, 0, 77, 50
1, 869237, Control_c, 0, 64, 66
1, 869237, Control_c, 0, 67, 93
1, 869241, Note_off_c, 0, 81, 55
1, 869252, Control_c, 0, 64, 0
1, 869252, Control_c, 0, 67, 95
1, 869267, Control_c, 0, 67, 96
1, 869282, Control_c, 0, 67, 98
1, 869284, Note_off_c, 0, 72, 61
1, 869297, Control_c, 0, 67, 99
1, 869312, Control_c, 0, 67, 102
1, 869315, Note_on_c, 0, 53, 62
1, 869327, Control_c, 0, 64, 23
1, 869327, Control_c, 0, 67, 104
1, 869339, Note_off_c, 0, 46, 61
1, 869342, Control_c, 0, 64, 65
1, 869342, Control_c, 0, 67, 106
1, 869357, Control_c, 0, 64, 77
1, 869357, Control_c, 0, 67, 108
1, 869357, Note_off_c, 0, 53, 65
1, 869371, Control_c, 0, 64, 95
1, 869371, Control_c, 0, 67, 109
1, 869386, Control_c, 0, 64, 127
1, 869386, Control_c, 0, 67, 109
1, 869396, Note_on_c, 0, 55, 66
1, 869415, Control_c, 0, 67, 110
1, 869419, Note_on_c, 0, 82, 77
1, 869423, Note_off_c, 0, 84, 63
1, 869432, Note_on_c, 0, 70, 58
1, 869455, Note_off_c, 0, 77, 62
1, 869458, Note_off_c, 0, 82, 60
1, 869462, Note_off_c, 0, 55, 61
1, 869476, Note_off_c, 0, 70, 53
1, 869480, Note_on_c, 0, 57, 66
1, 869519, Control_c, 0, 67, 109
1, 869546, Note_on_c, 0, 58, 73
1, 869552, Note_off_c, 0, 57, 61
1, 869578, Control_c, 0, 67, 109
1, 869610, Note_on_c, 0, 60, 76
1, 869622, Note_off_c, 0, 58, 62
1, 869676, Note_off_c, 0, 60, 66
1, 869684, Note_on_c, 0, 65, 69
1, 869685, Note_on_c, 0, 62, 69
1, 869697, Control_c, 0, 64, 91
1, 869697, Control_c, 0, 67, 108
1, 869719, Control_c, 0, 64, 68
1, 869734, Control_c, 0, 64, 0
1, 869734, Control_c, 0, 67, 108
1, 869749, Control_c, 0, 67, 107
1, 869760, Note_off_c, 0, 65, 57
1, 869764, Control_c, 0, 67, 107
1, 869767, Note_on_c, 0, 70, 79
1, 869778, Control_c, 0, 67, 106
1, 869794, Control_c, 0, 67, 106
1, 869809, Control_c, 0, 64, 33
1, 869809, Control_c, 0, 67, 105
1, 869824, Control_c, 0, 64, 65
1, 869824, Control_c, 0, 67, 104
1, 869831, Note_off_c, 0, 70, 64
1, 869831, Note_on_c, 0, 74, 83
1, 869839, Control_c, 0, 64, 76
1, 869839, Control_c, 0, 67, 103
1, 869853, Control_c, 0, 64, 93
1, 869853, Control_c, 0, 67, 102
1, 869868, Control_c, 0, 64, 127
1, 869868, Control_c, 0, 67, 101
1, 869898, Control_c, 0, 67, 101
1, 869902, Note_on_c, 0, 70, 79
1, 869925, Note_off_c, 0, 74, 64
1, 869927, Control_c, 0, 67, 100
1, 869931, Note_off_c, 0, 62, 58
1, 869965, Note_on_c, 0, 53, 51
1, 869965, Note_on_c, 0, 65, 80
1, 869987, Control_c, 0, 67, 101
1, 869994, Note_off_c, 0, 53, 66
1, 869995, Note_off_c, 0, 70, 62
1, 870016, Control_c, 0, 67, 101
1, 870037, Note_off_c, 0, 65, 63
1, 870042, Note_on_c, 0, 77, 58
1, 870045, Control_c, 0, 67, 102
1, 870060, Control_c, 0, 67, 102
1, 870061, Note_off_c, 0, 77, 63
1, 870090, Control_c, 0, 64, 98
1, 870090, Control_c, 0, 67, 103
1, 870105, Control_c, 0, 64, 72
1, 870111, Note_on_c, 0, 77, 86
1, 870120, Control_c, 0, 64, 0
1, 870120, Control_c, 0, 67, 104
1, 870129, Note_on_c, 0, 65, 64
1, 870132, Note_on_c, 0, 47, 61
1, 870135, Control_c, 0, 67, 104
1, 870159, Note_on_c, 0, 68, 50
1, 870162, Note_on_c, 0, 74, 43
1, 870179, Control_c, 0, 64, 58
1, 870194, Control_c, 0, 64, 69
1, 870194, Control_c, 0, 67, 105
1, 870209, Control_c, 0, 64, 80
1, 870212, Note_on_c, 0, 50, 69
1, 870216, Note_off_c, 0, 47, 63
1, 870224, Control_c, 0, 64, 98
1, 870238, Control_c, 0, 64, 127
1, 870260, Note_off_c, 0, 50, 66
1, 870287, Note_on_c, 0, 52, 70
1, 870307, Note_off_c, 0, 77, 46
1, 870342, Control_c, 0, 64, 122
1, 870357, Control_c, 0, 64, 84
1, 870367, Note_on_c, 0, 54, 74
1, 870370, Note_off_c, 0, 52, 63
1, 870372, Control_c, 0, 64, 65
1, 870386, Control_c, 0, 64, 56
1, 870386, Control_c, 0, 67, 104
1, 870401, Control_c, 0, 64, 63
1, 870416, Control_c, 0, 64, 66
1, 870416, Control_c, 0, 67, 104
1, 870424, Note_on_c, 0, 76, 73
1, 870424, Note_off_c, 0, 65, 57
1, 870426, Note_on_c, 0, 56, 70
1, 870430, Control_c, 0, 64, 71
1, 870445, Control_c, 0, 64, 75
1, 870453, Note_off_c, 0, 74, 59
1, 870468, Control_c, 0, 64, 79
1, 870471, Note_off_c, 0, 54, 61
1, 870483, Control_c, 0, 64, 81
1, 870498, Note_off_c, 0, 68, 56
1, 870505, Note_on_c, 0, 57, 68
1, 870507, Note_off_c, 0, 56, 60
1, 870512, Control_c, 0, 64, 81
1, 870527, Control_c, 0, 64, 80
1, 870542, Control_c, 0, 64, 80
1, 870542, Control_c, 0, 67, 103
1, 870557, Control_c, 0, 67, 103
1, 870563, Note_off_c, 0, 76, 59
1, 870565, Note_off_c, 0, 57, 63
1, 870571, Control_c, 0, 64, 79
1, 870588, Control_c, 0, 64, 76
1, 870588, Note_on_c, 0, 59, 68
1, 870597, Note_on_c, 0, 64, 64
1, 870603, Control_c, 0, 64, 70
1, 870617, Control_c, 0, 64, 64
1, 870632, Control_c, 0, 64, 61
1, 870647, Control_c, 0, 64, 60
1, 870650, Note_on_c, 0, 68, 69
1, 870652, Note_off_c, 0, 64, 59
1, 870691, Control_c, 0, 64, 60
1, 870706, Control_c, 0, 64, 62
1, 870709, Note_off_c, 0, 68, 61
1, 870715, Note_on_c, 0, 71, 74
1, 870721, Control_c, 0, 64, 63
1, 870736, Control_c, 0, 64, 64
1, 870750, Control_c, 0, 67, 102
1, 870765, Control_c, 0, 64, 64
1, 870780, Control_c, 0, 64, 63
1, 870780, Control_c, 0, 67, 102
1, 870795, Control_c, 0, 64, 62
1, 870800, Note_on_c, 0, 68, 69
1, 870805, Note_off_c, 0, 71, 62
1, 870810, Control_c, 0, 64, 60
1, 870811, Note_off_c, 0, 59, 54
1, 870824, Control_c, 0, 64, 53
1, 870834, Note_on_c, 0, 52, 62
1, 870839, Control_c, 0, 64, 0
1, 870859, Note_off_c, 0, 52, 65
1, 870866, Note_on_c, 0, 62, 60
1, 870898, Control_c, 0, 67, 102
1, 870906, Note_off_c, 0, 68, 61
1, 870913, Control_c, 0, 67, 103
1, 870919, Note_on_c, 0, 72, 67
1, 870919, Note_off_c, 0, 62, 59
1, 870928, Control_c, 0, 67, 104
1, 870943, Control_c, 0, 67, 104
1, 870957, Control_c, 0, 67, 105
1, 870972, Control_c, 0, 67, 105
1, 871002, Control_c, 0, 67, 106
1, 871032, Control_c, 0, 67, 106
1, 871038, Note_off_c, 0, 72, 57
1, 871047, Control_c, 0, 67, 107
1, 871049, Note_on_c, 0, 73, 64
1, 871060, Note_on_c, 0, 69, 53
1, 871061, Control_c, 0, 67, 108
1, 871062, Note_on_c, 0, 33, 50
1, 871071, Note_on_c, 0, 61, 50
1, 871076, Control_c, 0, 67, 109
1, 871091, Control_c, 0, 67, 110
1, 871106, Control_c, 0, 67, 112
1, 871121, Control_c, 0, 64, 45
1, 871121, Control_c, 0, 67, 116
1, 871126, Note_off_c, 0, 33, 59
1, 871132, Note_on_c, 0, 40, 55
1, 871135, Control_c, 0, 64, 66
1, 871135, Control_c, 0, 67, 121
1, 871150, Control_c, 0, 64, 74
1, 871150, Control_c, 0, 67, 124
1, 871165, Control_c, 0, 64, 83
1, 871165, Control_c, 0, 67, 127
1, 871168, Note_off_c, 0, 40, 65
1, 871180, Control_c, 0, 64, 95
1, 871180, Control_c, 0, 67, 127
1, 871194, Control_c, 0, 64, 110
1, 871217, Control_c, 0, 64, 124
1, 871218, Note_on_c, 0, 45, 56
1, 871232, Control_c, 0, 64, 127
1, 871239, Note_off_c, 0, 69, 58
1, 871241, Note_off_c, 0, 73, 64
1, 871253, Note_off_c, 0, 45, 63
1, 871294, Note_on_c, 0, 49, 68
1, 871306, Note_off_c, 0, 61, 53
1, 871349, Control_c, 0, 64, 122
1, 871361, Note_on_c, 0, 50, 65
1, 871364, Note_off_c, 0, 49, 60
1, 871364, Control_c, 0, 64, 113
1, 871379, Control_c, 0, 64, 101
1, 871395, Control_c, 0, 64, 88
1, 871410, Control_c, 0, 64, 76
1, 871418, Note_off_c, 0, 50, 65
1, 871424, Note_on_c, 0, 52, 66
1, 871425, Control_c, 0, 64, 65
1, 871439, Control_c, 0, 64, 49
1, 871454, Control_c, 0, 64, 0
1, 871506, Note_off_c, 0, 52, 61
1, 871515, Note_on_c, 0, 53, 62
1, 871518, Note_on_c, 0, 57, 54
1, 871562, Note_off_c, 0, 57, 57
1, 871598, Note_on_c, 0, 60, 53
1, 871637, Note_off_c, 0, 60, 63
1, 871671, Note_on_c, 0, 63, 62
1, 871721, Control_c, 0, 64, 38
1, 871735, Control_c, 0, 64, 64
1, 871750, Note_on_c, 0, 60, 48
1, 871750, Control_c, 0, 64, 70
1, 871751, Note_off_c, 0, 63, 58
1, 871765, Control_c, 0, 64, 78
1, 871774, Note_off_c, 0, 53, 60
1, 871780, Control_c, 0, 64, 88
1, 871795, Control_c, 0, 64, 99
1, 871807, Note_off_c, 0, 60, 61
1, 871809, Control_c, 0, 64, 111
1, 871820, Note_on_c, 0, 41, 43
1, 871824, Control_c, 0, 64, 127
1, 871826, Note_on_c, 0, 57, 56
1, 871869, Note_off_c, 0, 41, 59
1, 871892, Note_off_c, 0, 57, 61
1, 871921, Note_on_c, 0, 69, 64
1, 871964, Note_off_c, 0, 69, 58
1, 872086, Note_on_c, 0, 33, 53
1, 872087, Note_on_c, 0, 69, 55
1, 872098, Control_c, 0, 64, 113
1, 872111, Note_on_c, 0, 61, 53
1, 872113, Control_c, 0, 64, 82
1, 872117, Note_on_c, 0, 57, 38
1, 872128, Control_c, 0, 64, 63
1, 872143, Control_c, 0, 64, 0
1, 872168, Note_off_c, 0, 33, 59
1, 872176, Note_on_c, 0, 40, 53
1, 872188, Control_c, 0, 64, 56
1, 872203, Control_c, 0, 64, 67
1, 872211, Note_off_c, 0, 40, 63
1, 872218, Control_c, 0, 64, 75
1, 872221, Note_off_c, 0, 57, 54
1, 872232, Control_c, 0, 64, 88
1, 872246, Note_on_c, 0, 45, 54
1, 872247, Control_c, 0, 64, 103
1, 872262, Control_c, 0, 64, 116
1, 872277, Control_c, 0, 64, 118
1, 872285, Note_off_c, 0, 61, 59
1, 872292, Control_c, 0, 64, 117
1, 872296, Note_off_c, 0, 45, 61
1, 872306, Control_c, 0, 64, 109
1, 872321, Control_c, 0, 64, 99
1, 872323, Note_on_c, 0, 49, 71
1, 872336, Control_c, 0, 64, 84
1, 872351, Control_c, 0, 64, 72
1, 872366, Control_c, 0, 64, 59
1, 872380, Control_c, 0, 64, 0
1, 872394, Note_off_c, 0, 49, 59
1, 872400, Note_on_c, 0, 50, 64
1, 872444, Note_off_c, 0, 50, 66
1, 872454, Note_on_c, 0, 52, 64
1, 872520, Note_off_c, 0, 52, 62
1, 872543, Note_on_c, 0, 53, 59
1, 872555, Note_on_c, 0, 57, 49
1, 872597, Note_off_c, 0, 57, 58
1, 872612, Note_on_c, 0, 60, 62
1, 872651, Note_off_c, 0, 60, 61
1, 872689, Note_on_c, 0, 63, 67
1, 872713, Control_c, 0, 64, 63
1, 872722, Note_off_c, 0, 69, 38
1, 872728, Control_c, 0, 64, 73
1, 872743, Control_c, 0, 64, 85
1, 872758, Control_c, 0, 64, 107
1, 872766, Note_off_c, 0, 63, 62
1, 872769, Note_on_c, 0, 60, 61
1, 872773, Control_c, 0, 64, 127
1, 872800, Note_off_c, 0, 53, 62
1, 872821, Note_off_c, 0, 60, 64
1, 872825, Note_on_c, 0, 57, 71
1, 872835, Note_on_c, 0, 41, 56
1, 872865, Note_off_c, 0, 41, 63
1, 872879, Note_off_c, 0, 57, 58
1, 872914, Note_on_c, 0, 69, 84
1, 872996, Control_c, 0, 64, 123
1, 873011, Control_c, 0, 64, 85
1, 873026, Control_c, 0, 64, 65
1, 873041, Control_c, 0, 64, 0
1, 873047, Note_on_c, 0, 34, 61
1, 873065, Note_on_c, 0, 72, 75
1, 873086, Note_off_c, 0, 69, 61
1, 873092, Note_on_c, 0, 60, 32
1, 873098, Note_on_c, 0, 65, 50
1, 873123, Note_off_c, 0, 60, 57
1, 873130, Control_c, 0, 64, 54
1, 873144, Control_c, 0, 64, 69
1, 873154, Note_on_c, 0, 41, 65
1, 873159, Control_c, 0, 64, 81
1, 873174, Control_c, 0, 64, 98
1, 873175, Note_off_c, 0, 34, 59
1, 873189, Control_c, 0, 64, 127
1, 873211, Note_off_c, 0, 41, 61
1, 873239, Note_on_c, 0, 43, 68
1, 873253, Note_on_c, 0, 70, 81
1, 873274, Note_off_c, 0, 72, 63
1, 873274, Note_on_c, 0, 58, 63
1, 873300, Note_off_c, 0, 65, 63
1, 873308, Note_off_c, 0, 70, 61
1, 873311, Note_off_c, 0, 43, 54
1, 873324, Note_on_c, 0, 45, 75
1, 873364, Note_off_c, 0, 58, 59
1, 873389, Note_on_c, 0, 46, 79
1, 873411, Control_c, 0, 64, 113
1, 873413, Note_off_c, 0, 45, 60
1, 873426, Control_c, 0, 64, 100
1, 873441, Control_c, 0, 64, 87
1, 873459, Note_on_c, 0, 48, 84
1, 873462, Control_c, 0, 64, 75
1, 873469, Note_off_c, 0, 46, 63
1, 873477, Control_c, 0, 64, 61
1, 873492, Control_c, 0, 64, 0
1, 873537, Note_off_c, 0, 48, 65
1, 873542, Note_on_c, 0, 50, 81
1, 873543, Note_on_c, 0, 53, 77
1, 873617, Note_off_c, 0, 53, 59
1, 873618, Note_on_c, 0, 58, 81
1, 873670, Control_c, 0, 64, 30
1, 873673, Note_on_c, 0, 62, 79
1, 873676, Note_off_c, 0, 58, 63
1, 873685, Control_c, 0, 64, 64
1, 873700, Control_c, 0, 64, 72
1, 873715, Control_c, 0, 64, 82
1, 873730, Control_c, 0, 64, 96
1, 873744, Control_c, 0, 64, 113
1, 873757, Note_on_c, 0, 58, 83
1, 873759, Control_c, 0, 64, 127
1, 873778, Note_off_c, 0, 62, 58
1, 873793, Note_off_c, 0, 50, 60
1, 873807, Note_on_c, 0, 41, 63
1, 873809, Note_on_c, 0, 53, 81
1, 873842, Note_off_c, 0, 41, 62
1, 873850, Note_off_c, 0, 58, 58
1, 873874, Note_on_c, 0, 65, 85
1, 873894, Note_off_c, 0, 53, 66
1, 873920, Note_off_c, 0, 65, 59
1, 873923, Control_c, 0, 64, 91
1, 873938, Control_c, 0, 64, 70
1, 873953, Control_c, 0, 64, 0
1, 873954, Note_on_c, 0, 65, 71
1, 873977, Note_on_c, 0, 35, 68
1, 873978, Note_on_c, 0, 53, 71
1, 873978, Note_on_c, 0, 56, 71
1, 873992, Note_on_c, 0, 62, 57
1, 874026, Control_c, 0, 64, 54
1, 874041, Control_c, 0, 64, 66
1, 874056, Control_c, 0, 64, 72
1, 874064, Note_on_c, 0, 38, 72
1, 874071, Control_c, 0, 64, 77
1, 874072, Note_off_c, 0, 35, 62
1, 874085, Control_c, 0, 64, 80
1, 874100, Control_c, 0, 64, 81
1, 874120, Note_off_c, 0, 65, 53
1, 874126, Note_off_c, 0, 38, 59
1, 874130, Control_c, 0, 64, 80
1, 874132, Note_on_c, 0, 40, 67
1, 874145, Control_c, 0, 64, 80
1, 874159, Control_c, 0, 64, 79
1, 874174, Control_c, 0, 64, 78
1, 874189, Control_c, 0, 64, 76
1, 874211, Control_c, 0, 64, 73
1, 874225, Note_on_c, 0, 42, 72
1, 874225, Note_off_c, 0, 40, 61
1, 874226, Control_c, 0, 64, 71
1, 874241, Control_c, 0, 64, 69
1, 874256, Control_c, 0, 64, 67
1, 874271, Control_c, 0, 64, 67
1, 874281, Note_on_c, 0, 44, 67
1, 874285, Control_c, 0, 64, 66
1, 874299, Note_on_c, 0, 64, 70
1, 874300, Control_c, 0, 64, 65
1, 874317, Note_off_c, 0, 42, 62
1, 874323, Note_off_c, 0, 62, 56
1, 874331, Control_c, 0, 64, 65
1, 874333, Note_off_c, 0, 53, 62
1, 874360, Note_off_c, 0, 56, 57
1, 874360, Control_c, 0, 64, 64
1, 874361, Note_on_c, 0, 45, 69
1, 874374, Note_off_c, 0, 44, 59
1, 874390, Control_c, 0, 64, 64
1, 874392, Note_off_c, 0, 64, 61
1, 874404, Control_c, 0, 64, 63
1, 874419, Control_c, 0, 64, 63
1, 874434, Control_c, 0, 64, 62
1, 874444, Note_off_c, 0, 45, 65
1, 874464, Control_c, 0, 64, 62
1, 874476, Note_on_c, 0, 47, 59
1, 874479, Control_c, 0, 64, 61
1, 874481, Note_on_c, 0, 52, 68
1, 874493, Control_c, 0, 64, 61
1, 874508, Control_c, 0, 64, 60
1, 874523, Control_c, 0, 64, 60
1, 874538, Control_c, 0, 64, 59
1, 874549, Note_on_c, 0, 56, 70
1, 874553, Control_c, 0, 64, 58
1, 874558, Note_off_c, 0, 52, 60
1, 874567, Control_c, 0, 64, 58
1, 874583, Control_c, 0, 64, 57
1, 874598, Control_c, 0, 64, 56
1, 874606, Note_off_c, 0, 56, 63
1, 874613, Control_c, 0, 64, 54
1, 874614, Note_on_c, 0, 59, 67
1, 874628, Control_c, 0, 64, 49
1, 874642, Control_c, 0, 64, 42
1, 874657, Control_c, 0, 64, 32
1, 874672, Control_c, 0, 64, 14
1, 874687, Control_c, 0, 64, 0
1, 874693, Note_off_c, 0, 47, 58
1, 874699, Note_on_c, 0, 56, 67
1, 874742, Note_on_c, 0, 40, 54
1, 874761, Note_on_c, 0, 50, 67
1, 874774, Note_off_c, 0, 56, 60
1, 874832, Note_off_c, 0, 50, 57
1, 874885, Note_on_c, 0, 60, 68
1, 874893, Note_off_c, 0, 40, 62
1, 874895, Control_c, 0, 64, 66
1, 874906, Note_off_c, 0, 59, 60
1, 874907, Note_on_c, 0, 33, 68
1, 874909, Control_c, 0, 64, 77
1, 874924, Control_c, 0, 64, 92
1, 874935, Note_off_c, 0, 33, 62
1, 874939, Control_c, 0, 64, 127
1, 874946, Note_off_c, 0, 60, 63
1, 875111, Note_on_c, 0, 57, 51
1, 875126, Note_on_c, 0, 55, 40
1, 875155, Note_off_c, 0, 55, 52
1, 875167, Note_on_c, 0, 61, 69
1, 875170, Note_off_c, 0, 57, 60
1, 875185, Poly_aftertouch_c, 0, 56, 127
1, 875214, Poly_aftertouch_c, 0, 56, 0
1, 875226, Note_off_c, 0, 61, 61
1, 875227, Control_c, 0, 64, 110
1, 875232, Note_on_c, 0, 56, 62
1, 875235, Note_on_c, 0, 64, 61
1, 875242, Control_c, 0, 64, 95
1, 875257, Control_c, 0, 64, 86
1, 875272, Control_c, 0, 64, 78
1, 875275, Note_off_c, 0, 56, 65
1, 875287, Control_c, 0, 64, 72
1, 875301, Control_c, 0, 64, 68
1, 875310, Note_on_c, 0, 59, 71
1, 875316, Control_c, 0, 64, 66
1, 875331, Control_c, 0, 64, 65
1, 875360, Control_c, 0, 64, 64
1, 875370, Note_off_c, 0, 59, 59
1, 875373, Note_on_c, 0, 61, 73
1, 875375, Control_c, 0, 64, 63
1, 875392, Control_c, 0, 64, 62
1, 875400, Note_on_c, 0, 54, 79
1, 875406, Control_c, 0, 64, 61
1, 875410, Note_off_c, 0, 61, 61
1, 875410, Note_off_c, 0, 64, 62
1, 875421, Control_c, 0, 64, 61
1, 875431, Note_on_c, 0, 69, 72
1, 875432, Note_off_c, 0, 54, 66
1, 875451, Control_c, 0, 64, 60
1, 875465, Control_c, 0, 64, 60
1, 875480, Control_c, 0, 64, 59
1, 875522, Note_off_c, 0, 69, 63
1, 875525, Note_on_c, 0, 71, 75
1, 875536, Note_on_c, 0, 53, 77
1, 875554, Control_c, 0, 64, 60
1, 875574, Note_off_c, 0, 53, 64
1, 875591, Note_on_c, 0, 62, 65
1, 875658, Control_c, 0, 64, 61
1, 875659, Note_on_c, 0, 63, 72
1, 875662, Note_off_c, 0, 62, 59
1, 875676, Note_on_c, 0, 52, 78
1, 875688, Control_c, 0, 64, 61
1, 875710, Note_off_c, 0, 52, 67
1, 875754, Note_off_c, 0, 63, 61
1, 875759, Note_on_c, 0, 69, 70
1, 875783, Note_off_c, 0, 71, 61
1, 875813, Note_on_c, 0, 52, 73
1, 875813, Control_c, 0, 64, 61
1, 875832, Note_on_c, 0, 68, 80
1, 875843, Note_off_c, 0, 69, 61
1, 875868, Note_off_c, 0, 52, 62
1, 875888, Control_c, 0, 64, 60
1, 875903, Note_on_c, 0, 64, 71
1, 875918, Control_c, 0, 64, 60
1, 875962, Control_c, 0, 64, 60
1, 875974, Note_on_c, 0, 66, 76
1, 875975, Note_off_c, 0, 64, 63
1, 875984, Note_on_c, 0, 50, 73
1, 875991, Control_c, 0, 64, 61
1, 876006, Control_c, 0, 64, 61
1, 876013, Note_off_c, 0, 50, 66
1, 876016, Note_on_c, 0, 71, 70
1, 876028, Note_off_c, 0, 66, 63
1, 876030, Note_off_c, 0, 68, 58
1, 876053, Note_on_c, 0, 50, 84
1, 876080, Control_c, 0, 64, 62
1, 876097, Note_off_c, 0, 71, 61
1, 876105, Note_on_c, 0, 76, 91
1, 876109, Note_off_c, 0, 50, 63
1, 876116, Note_on_c, 0, 48, 81
1, 876124, Control_c, 0, 64, 61
1, 876141, Note_off_c, 0, 48, 68
1, 876168, Note_on_c, 0, 67, 69
1, 876229, Control_c, 0, 64, 61
1, 876244, Control_c, 0, 64, 60
1, 876246, Note_on_c, 0, 47, 84
1, 876252, Note_on_c, 0, 68, 82
1, 876256, Note_off_c, 0, 67, 61
1, 876259, Control_c, 0, 64, 57
1, 876273, Control_c, 0, 64, 50
1, 876282, Note_off_c, 0, 47, 65
1, 876288, Control_c, 0, 64, 27
1, 876303, Control_c, 0, 64, 0
1, 876320, Note_on_c, 0, 74, 87
1, 876338, Note_off_c, 0, 68, 62
1, 876341, Note_off_c, 0, 76, 58
1, 876392, Note_on_c, 0, 45, 81
1, 876397, Note_on_c, 0, 73, 90
1, 876420, Note_off_c, 0, 74, 65
1, 876421, Note_off_c, 0, 45, 69
1, 876487, Note_on_c, 0, 69, 72
1, 876526, Note_off_c, 0, 73, 57
1, 876541, Note_on_c, 0, 71, 82
1, 876547, Note_off_c, 0, 69, 63
1, 876557, Note_on_c, 0, 44, 42
1, 876569, Note_on_c, 0, 45, 44
1, 876594, Note_off_c, 0, 44, 37
1, 876600, Note_off_c, 0, 45, 55
1, 876615, Note_off_c, 0, 71, 64
1, 876621, Note_on_c, 0, 77, 75
1, 876701, Note_on_c, 0, 42, 75
1, 876705, Note_on_c, 0, 78, 84
1, 876711, Note_on_c, 0, 69, 75
1, 876711, Control_c, 0, 64, 68
1, 876716, Note_off_c, 0, 77, 62
1, 876726, Control_c, 0, 64, 85
1, 876730, Note_off_c, 0, 42, 65
1, 876732, Note_off_c, 0, 78, 63
1, 876735, Note_off_c, 0, 69, 68
1, 876740, Control_c, 0, 64, 110
1, 876755, Control_c, 0, 64, 127
1, 876878, Note_on_c, 0, 54, 87
1, 876932, Control_c, 0, 64, 124
1, 876934, Note_off_c, 0, 54, 61
1, 876947, Control_c, 0, 64, 99
1, 876952, Note_on_c, 0, 57, 75
1, 876962, Control_c, 0, 64, 84
1, 876978, Control_c, 0, 64, 69
1, 876993, Control_c, 0, 64, 0
1, 877021, Note_on_c, 0, 53, 84
1, 877027, Note_on_c, 0, 61, 80
1, 877033, Note_off_c, 0, 57, 62
1, 877061, Note_off_c, 0, 53, 66
1, 877113, Note_on_c, 0, 56, 73
1, 877156, Note_on_c, 0, 52, 80
1, 877176, Note_on_c, 0, 58, 78
1, 877185, Note_off_c, 0, 56, 60
1, 877188, Note_off_c, 0, 52, 65
1, 877241, Note_on_c, 0, 52, 72
1, 877274, Note_off_c, 0, 61, 58
1, 877277, Note_on_c, 0, 66, 63
1, 877289, Note_off_c, 0, 58, 61
1, 877300, Note_off_c, 0, 52, 57
1, 877325, Note_on_c, 0, 51, 81
1, 877328, Note_on_c, 0, 68, 78
1, 877343, Note_off_c, 0, 66, 62
1, 877351, Note_off_c, 0, 51, 70
1, 877420, Note_on_c, 0, 59, 67
1, 877471, Note_on_c, 0, 50, 74
1, 877486, Note_on_c, 0, 60, 60
1, 877495, Note_off_c, 0, 59, 56
1, 877504, Note_off_c, 0, 50, 68
1, 877539, Note_on_c, 0, 66, 70
1, 877543, Note_off_c, 0, 60, 63
1, 877594, Note_off_c, 0, 68, 47
1, 877620, Note_on_c, 0, 49, 84
1, 877629, Note_on_c, 0, 65, 73
1, 877638, Note_off_c, 0, 66, 62
1, 877647, Note_off_c, 0, 49, 68
1, 877689, Note_on_c, 0, 61, 58
1, 877769, Note_on_c, 0, 63, 70
1, 877777, Note_off_c, 0, 61, 61
1, 877789, Note_on_c, 0, 47, 65
1, 877816, Note_off_c, 0, 47, 67
1, 877837, Note_on_c, 0, 68, 72
1, 877860, Note_off_c, 0, 65, 58
1, 877863, Note_on_c, 0, 47, 75
1, 877863, Note_off_c, 0, 63, 59
1, 877903, Note_off_c, 0, 47, 55
1, 877914, Note_off_c, 0, 68, 62
1, 877924, Note_on_c, 0, 45, 90
1, 877942, Note_on_c, 0, 73, 68
1, 877964, Note_off_c, 0, 45, 65
1, 877996, Note_on_c, 0, 64, 59
1, 878076, Note_off_c, 0, 64, 59
1, 878082, Note_on_c, 0, 44, 86
1, 878096, Note_on_c, 0, 65, 62
1, 878106, Note_off_c, 0, 44, 70
1, 878132, Note_off_c, 0, 73, 48
1, 878149, Note_off_c, 0, 65, 61
1, 878169, Note_on_c, 0, 71, 56
1, 878231, Note_on_c, 0, 42, 82
1, 878240, Note_on_c, 0, 69, 71
1, 878246, Note_off_c, 0, 71, 63
1, 878257, Note_off_c, 0, 42, 67
1, 878321, Note_on_c, 0, 66, 66
1, 878380, Note_off_c, 0, 66, 55
1, 878388, Note_on_c, 0, 40, 83
1, 878394, Note_on_c, 0, 67, 76
1, 878408, Note_off_c, 0, 69, 61
1, 878413, Note_off_c, 0, 40, 66
1, 878475, Note_on_c, 0, 73, 82
1, 878478, Note_off_c, 0, 67, 63
1, 878552, Note_on_c, 0, 38, 82
1, 878556, Note_on_c, 0, 66, 66
1, 878565, Control_c, 0, 64, 23
1, 878574, Note_on_c, 0, 74, 81
1, 878578, Note_off_c, 0, 38, 67
1, 878580, Control_c, 0, 64, 70
1, 878586, Note_off_c, 0, 66, 65
1, 878595, Control_c, 0, 64, 86
1, 878609, Control_c, 0, 64, 108
1, 878624, Control_c, 0, 64, 127
1, 878626, Note_off_c, 0, 73, 54
1, 878729, Note_on_c, 0, 50, 87
1, 878732, Note_on_c, 0, 62, 69
1, 878765, Control_c, 0, 64, 109
1, 878780, Control_c, 0, 64, 102
1, 878795, Control_c, 0, 64, 99
1, 878796, Note_on_c, 0, 66, 76
1, 878809, Control_c, 0, 64, 98
1, 878815, Note_off_c, 0, 62, 50
1, 878824, Control_c, 0, 64, 96
1, 878831, Note_off_c, 0, 50, 51
1, 878839, Control_c, 0, 64, 91
1, 878854, Control_c, 0, 64, 81
1, 878869, Control_c, 0, 64, 70
1, 878872, Note_on_c, 0, 49, 95
1, 878874, Note_on_c, 0, 69, 73
1, 878884, Control_c, 0, 64, 59
1, 878885, Note_off_c, 0, 66, 61
1, 878899, Control_c, 0, 64, 40
1, 878914, Control_c, 0, 64, 41
1, 878921, Note_off_c, 0, 49, 67
1, 878931, Note_off_c, 0, 74, 60
1, 878943, Note_off_c, 0, 69, 63
1, 878943, Control_c, 0, 64, 40
1, 878953, Note_on_c, 0, 64, 75
1, 878958, Control_c, 0, 64, 39
1, 878973, Control_c, 0, 64, 38
1, 878988, Control_c, 0, 64, 36
1, 879002, Control_c, 0, 64, 29
1, 879017, Control_c, 0, 64, 19
1, 879021, Note_on_c, 0, 48, 91
1, 879030, Note_on_c, 0, 66, 79
1, 879032, Control_c, 0, 64, 0
1, 879057, Note_off_c, 0, 64, 62
1, 879061, Note_off_c, 0, 48, 62
1, 879092, Note_on_c, 0, 48, 76
1, 879103, Note_off_c, 0, 66, 63
1, 879106, Note_on_c, 0, 74, 78
1, 879173, Note_on_c, 0, 47, 97
1, 879173, Note_on_c, 0, 76, 84
1, 879180, Control_c, 0, 67, 127
1, 879181, Note_off_c, 0, 48, 65
1, 879186, Note_off_c, 0, 74, 66
1, 879195, Control_c, 0, 67, 122
1, 879209, Control_c, 0, 67, 118
1, 879218, Note_off_c, 0, 47, 67
1, 879224, Control_c, 0, 67, 114
1, 879239, Control_c, 0, 67, 108
1, 879254, Control_c, 0, 67, 101
1, 879255, Note_on_c, 0, 67, 78
1, 879269, Control_c, 0, 67, 93
1, 879283, Control_c, 0, 67, 84
1, 879298, Control_c, 0, 67, 79
1, 879313, Control_c, 0, 67, 77
1, 879319, Note_on_c, 0, 46, 90
1, 879324, Note_on_c, 0, 68, 81
1, 879328, Control_c, 0, 67, 77
1, 879343, Control_c, 0, 67, 76
1, 879355, Note_off_c, 0, 67, 57
1, 879358, Note_off_c, 0, 46, 64
1, 879358, Control_c, 0, 67, 76
1, 879373, Control_c, 0, 67, 75
1, 879388, Control_c, 0, 67, 74
1, 879392, Note_on_c, 0, 74, 83
1, 879396, Note_off_c, 0, 76, 60
1, 879403, Control_c, 0, 67, 72
1, 879417, Note_off_c, 0, 68, 59
1, 879418, Control_c, 0, 67, 70
1, 879432, Control_c, 0, 67, 68
1, 879455, Control_c, 0, 67, 67
1, 879457, Note_on_c, 0, 45, 96
1, 879470, Control_c, 0, 67, 66
1, 879472, Note_on_c, 0, 73, 84
1, 879485, Control_c, 0, 67, 65
1, 879495, Note_off_c, 0, 45, 64
1, 879497, Note_off_c, 0, 74, 64
1, 879514, Control_c, 0, 67, 64
1, 879540, Note_on_c, 0, 69, 74
1, 879558, Control_c, 0, 67, 64
1, 879587, Control_c, 0, 67, 63
1, 879599, Note_on_c, 0, 43, 86
1, 879602, Control_c, 0, 67, 62
1, 879613, Note_on_c, 0, 71, 82
1, 879617, Control_c, 0, 67, 61
1, 879626, Note_off_c, 0, 43, 68
1, 879632, Control_c, 0, 67, 60
1, 879635, Note_off_c, 0, 69, 60
1, 879640, Note_off_c, 0, 73, 58
1, 879647, Control_c, 0, 67, 58
1, 879662, Control_c, 0, 67, 57
1, 879675, Note_on_c, 0, 76, 82
1, 879677, Control_c, 0, 67, 57
1, 879680, Note_on_c, 0, 43, 86
1, 879685, Note_off_c, 0, 71, 65
1, 879692, Control_c, 0, 67, 55
1, 879706, Control_c, 0, 67, 54
1, 879721, Control_c, 0, 67, 53
1, 879736, Control_c, 0, 67, 52
1, 879737, Note_on_c, 0, 42, 96
1, 879746, Note_off_c, 0, 43, 66
1, 879755, Note_off_c, 0, 76, 64
1, 879756, Note_on_c, 0, 81, 88
1, 879779, Note_off_c, 0, 42, 66
1, 879832, Note_on_c, 0, 72, 65
1, 879843, Note_on_c, 0, 74, 54
1, 879887, Note_on_c, 0, 40, 88
1, 879901, Note_on_c, 0, 73, 82
1, 879908, Note_off_c, 0, 74, 36
1, 879911, Note_off_c, 0, 72, 60
1, 879923, Note_off_c, 0, 40, 65
1, 879972, Note_on_c, 0, 79, 82
1, 879974, Note_off_c, 0, 73, 63
1, 880003, Note_off_c, 0, 81, 63
1, 880030, Note_on_c, 0, 38, 93
1, 880043, Note_on_c, 0, 78, 87
1, 880070, Note_off_c, 0, 38, 65
1, 880075, Note_off_c, 0, 79, 62
1, 880108, Note_on_c, 0, 74, 77
1, 880160, Note_off_c, 0, 78, 53
1, 880176, Note_on_c, 0, 37, 87
1, 880202, Note_on_c, 0, 76, 82
1, 880213, Note_off_c, 0, 74, 62
1, 880219, Note_off_c, 0, 37, 64
1, 880248, Control_c, 0, 67, 53
1, 880262, Control_c, 0, 67, 53
1, 880267, Note_on_c, 0, 37, 61
1, 880269, Note_on_c, 0, 82, 86
1, 880287, Note_off_c, 0, 76, 62
1, 880295, Note_off_c, 0, 37, 63
1, 880362, Note_on_c, 0, 35, 94
1, 880365, Note_on_c, 0, 83, 83
1, 880380, Control_c, 0, 67, 52
1, 880392, Note_off_c, 0, 82, 62
1, 880395, Control_c, 0, 67, 52
1, 880410, Control_c, 0, 64, 54
1, 880410, Control_c, 0, 67, 50
1, 880425, Control_c, 0, 64, 84
1, 880425, Control_c, 0, 67, 50
1, 880440, Control_c, 0, 64, 127
1, 880440, Control_c, 0, 67, 47
1, 880447, Note_off_c, 0, 35, 63
1, 880455, Control_c, 0, 67, 43
1, 880470, Control_c, 0, 67, 38
1, 880476, Note_off_c, 0, 83, 64
1, 880481, Note_on_c, 0, 74, 65
1, 880484, Control_c, 0, 67, 30
1, 880499, Control_c, 0, 67, 24
1, 880514, Note_on_c, 0, 76, 33
1, 880514, Control_c, 0, 67, 19
1, 880529, Control_c, 0, 67, 15
1, 880544, Control_c, 0, 67, 13
1, 880553, Note_off_c, 0, 76, 30
1, 880559, Control_c, 0, 67, 10
1, 880573, Control_c, 0, 67, 8
1, 880583, Note_on_c, 0, 85, 89
1, 880588, Control_c, 0, 67, 0
1, 880606, Note_off_c, 0, 74, 39
1, 880619, Note_on_c, 0, 42, 79
1, 880660, Note_off_c, 0, 85, 64
1, 880669, Note_on_c, 0, 86, 70
1, 880679, Note_on_c, 0, 84, 67
1, 880756, Note_on_c, 0, 88, 91
1, 880758, Note_off_c, 0, 84, 29
1, 880765, Note_off_c, 0, 42, 63
1, 880768, Note_on_c, 0, 54, 86
1, 880779, Note_off_c, 0, 86, 63
1, 880800, Note_off_c, 0, 54, 65
1, 880862, Note_on_c, 0, 76, 80
1, 880904, Note_off_c, 0, 88, 60
1, 880928, Note_on_c, 0, 86, 74
1, 880942, Note_on_c, 0, 54, 81
1, 880961, Note_off_c, 0, 76, 57
1, 881021, Note_on_c, 0, 85, 87
1, 881054, Note_off_c, 0, 86, 63
1, 881081, Note_off_c, 0, 54, 64
1, 881083, Note_on_c, 0, 66, 78
1, 881091, Note_on_c, 0, 88, 90
1, 881110, Note_off_c, 0, 85, 63
1, 881117, Note_off_c, 0, 66, 61
1, 881169, Note_on_c, 0, 79, 73
1, 881178, Note_off_c, 0, 88, 60
1, 881242, Note_on_c, 0, 78, 90
1, 881246, Note_on_c, 0, 86, 90
1, 881258, Note_off_c, 0, 78, 71
1, 881274, Note_off_c, 0, 79, 61
1, 881325, Note_on_c, 0, 85, 88
1, 881347, Note_off_c, 0, 86, 63
1, 881400, Note_on_c, 0, 83, 91
1, 881418, Note_off_c, 0, 85, 62
1, 881469, Note_on_c, 0, 78, 79
1, 881492, Note_off_c, 0, 83, 65
1, 881549, Note_on_c, 0, 66, 84
1, 881558, Note_on_c, 0, 85, 93
1, 881570, Note_off_c, 0, 78, 60
1, 881644, Note_on_c, 0, 86, 85
1, 881671, Note_off_c, 0, 85, 64
1, 881788, Note_on_c, 0, 56, 81
1, 881789, Note_on_c, 0, 88, 86
1, 881805, Control_c, 0, 64, 92
1, 881819, Note_off_c, 0, 86, 64
1, 881820, Control_c, 0, 64, 63
1, 881835, Control_c, 0, 64, 0
1, 881853, Note_off_c, 0, 66, 51
1, 881880, Control_c, 0, 64, 49
1, 881894, Control_c, 0, 64, 67
1, 881909, Control_c, 0, 64, 80
1, 881909, Note_on_c, 0, 76, 74
1, 881924, Control_c, 0, 64, 114
1, 881939, Control_c, 0, 64, 127
1, 881978, Note_off_c, 0, 88, 39
1, 881981, Note_on_c, 0, 64, 82
1, 881985, Note_on_c, 0, 86, 80
1, 882000, Note_off_c, 0, 76, 60
1, 882059, Note_on_c, 0, 85, 88
1, 882073, Note_off_c, 0, 56, 62
1, 882082, Note_off_c, 0, 86, 61
1, 882125, Note_off_c, 0, 64, 65
1, 882128, Note_on_c, 0, 71, 86
1, 882145, Note_on_c, 0, 88, 68
1, 882148, Note_off_c, 0, 71, 70
1, 882148, Note_off_c, 0, 85, 63
1, 882158, Note_on_c, 0, 86, 64
1, 882175, Note_off_c, 0, 86, 66
1, 882177, Note_off_c, 0, 88, 55
1, 882198, Note_on_c, 0, 74, 80
1, 882262, Note_off_c, 0, 74, 59
1, 882283, Note_on_c, 0, 86, 74
1, 882285, Note_on_c, 0, 95, 93
1, 882296, Note_on_c, 0, 93, 75
1, 882300, Note_off_c, 0, 95, 74
1, 882312, Note_off_c, 0, 93, 68
1, 882367, Note_on_c, 0, 83, 84
1, 882385, Note_off_c, 0, 86, 57
1, 882431, Note_on_c, 0, 81, 90
1, 882467, Note_off_c, 0, 83, 65
1, 882532, Note_on_c, 0, 76, 75
1, 882596, Note_on_c, 0, 64, 72
1, 882600, Note_on_c, 0, 83, 88
1, 882613, Note_off_c, 0, 76, 58
1, 882645, Note_off_c, 0, 81, 60
1, 882681, Note_on_c, 0, 85, 85
1, 882722, Note_off_c, 0, 83, 61
1, 882747, Control_c, 0, 64, 81
1, 882762, Control_c, 0, 64, 0
1, 882770, Note_on_c, 0, 86, 84
1, 882777, Note_on_c, 0, 54, 78
1, 882783, Note_off_c, 0, 64, 61
1, 882806, Control_c, 0, 64, 53
1, 882807, Note_off_c, 0, 85, 62
1, 882821, Control_c, 0, 64, 68
1, 882836, Control_c, 0, 64, 83
1, 882850, Control_c, 0, 64, 127
1, 882854, Note_on_c, 0, 74, 78
1, 882896, Note_off_c, 0, 86, 61
1, 882938, Note_on_c, 0, 85, 79
1, 882941, Note_on_c, 0, 62, 80
1, 882996, Note_off_c, 0, 54, 59
1, 883018, Note_on_c, 0, 83, 76
1, 883032, Note_off_c, 0, 85, 63
1, 883048, Note_off_c, 0, 74, 62
1, 883052, Note_on_c, 0, 84, 21
1, 883053, Note_off_c, 0, 84, 127
1, 883059, Note_off_c, 0, 62, 64
1, 883077, Note_on_c, 0, 69, 80
1, 883078, Note_on_c, 0, 85, 54
1, 883079, Note_on_c, 0, 86, 77
1, 883087, Note_off_c, 0, 83, 64
1, 883092, Note_off_c, 0, 69, 71
1, 883126, Note_off_c, 0, 86, 65
1, 883151, Note_off_c, 0, 85, 59
1, 883173, Note_on_c, 0, 73, 70
1, 883232, Note_on_c, 0, 85, 78
1, 883236, Note_on_c, 0, 93, 107
1, 883258, Note_off_c, 0, 93, 63
1, 883263, Note_off_c, 0, 73, 60
1, 883310, Note_on_c, 0, 81, 77
1, 883353, Note_off_c, 0, 85, 57
1, 883389, Note_on_c, 0, 80, 88
1, 883417, Note_off_c, 0, 81, 62
1, 883455, Note_on_c, 0, 74, 82
1, 883537, Note_on_c, 0, 81, 83
1, 883543, Note_off_c, 0, 74, 62
1, 883546, Note_on_c, 0, 62, 81
1, 883590, Note_off_c, 0, 80, 58
1, 883622, Note_on_c, 0, 83, 75
1, 883651, Note_off_c, 0, 81, 62
1, 883701, Note_on_c, 0, 53, 82
1, 883702, Control_c, 0, 64, 74
1, 883707, Note_on_c, 0, 85, 82
1, 883717, Control_c, 0, 64, 0
1, 883737, Note_off_c, 0, 83, 62
1, 883759, Note_off_c, 0, 62, 58
1, 883776, Note_on_c, 0, 73, 79
1, 883776, Control_c, 0, 64, 63
1, 883790, Control_c, 0, 64, 74
1, 883805, Control_c, 0, 64, 93
1, 883813, Note_off_c, 0, 85, 60
1, 883820, Control_c, 0, 64, 127
1, 883859, Note_on_c, 0, 61, 94
1, 883863, Note_on_c, 0, 83, 73
1, 883871, Note_off_c, 0, 73, 58
1, 883877, Note_off_c, 0, 53, 66
1, 883922, Note_on_c, 0, 81, 82
1, 883962, Note_off_c, 0, 83, 62
1, 884001, Note_off_c, 0, 61, 68
1, 884011, Note_on_c, 0, 85, 81
1, 884012, Note_on_c, 0, 68, 84
1, 884017, Note_off_c, 0, 81, 64
1, 884032, Note_off_c, 0, 68, 71
1, 884034, Note_off_c, 0, 85, 68
1, 884076, Note_on_c, 0, 71, 79
1, 884152, Note_on_c, 0, 83, 73
1, 884165, Note_on_c, 0, 92, 103
1, 884179, Note_off_c, 0, 71, 56
1, 884196, Note_off_c, 0, 92, 63
1, 884249, Note_on_c, 0, 80, 75
1, 884321, Note_off_c, 0, 83, 59
1, 884336, Note_on_c, 0, 78, 80
1, 884348, Note_on_c, 0, 54, 88
1, 884362, Control_c, 0, 64, 78
1, 884377, Control_c, 0, 64, 0
1, 884377, Note_off_c, 0, 80, 60
1, 884401, Note_on_c, 0, 69, 76
1, 884407, Control_c, 0, 64, 33
1, 884412, Note_off_c, 0, 78, 62
1, 884421, Control_c, 0, 64, 66
1, 884436, Control_c, 0, 64, 80
1, 884451, Control_c, 0, 64, 114
1, 884466, Control_c, 0, 64, 127
1, 884474, Note_off_c, 0, 69, 60
1, 884484, Note_on_c, 0, 57, 71
1, 884491, Note_on_c, 0, 66, 74
1, 884491, Note_on_c, 0, 80, 86
1, 884494, Note_on_c, 0, 61, 80
1, 884509, Note_off_c, 0, 54, 65
1, 884542, Note_off_c, 0, 57, 61
1, 884547, Note_off_c, 0, 66, 62
1, 884574, Note_off_c, 0, 80, 68
1, 884575, Note_on_c, 0, 81, 85
1, 884580, Note_off_c, 0, 61, 60
1, 884643, Control_c, 0, 64, 83
1, 884647, Note_on_c, 0, 53, 102
1, 884658, Control_c, 0, 64, 0
1, 884659, Note_on_c, 0, 83, 77
1, 884679, Note_off_c, 0, 81, 65
1, 884688, Note_on_c, 0, 55, 22
1, 884710, Control_c, 0, 64, 64
1, 884725, Control_c, 0, 64, 84
1, 884734, Note_on_c, 0, 74, 80
1, 884740, Control_c, 0, 64, 127
1, 884746, Note_off_c, 0, 83, 65
1, 884786, Note_off_c, 0, 74, 62
1, 884826, Note_on_c, 0, 85, 87
1, 884827, Note_on_c, 0, 59, 75
1, 884828, Note_on_c, 0, 67, 79
1, 884833, Note_off_c, 0, 53, 68
1, 884836, Note_on_c, 0, 62, 75
1, 884850, Note_off_c, 0, 67, 70
1, 884863, Note_off_c, 0, 55, 39
1, 884884, Note_off_c, 0, 62, 62
1, 884886, Note_off_c, 0, 59, 62
1, 884905, Note_on_c, 0, 86, 80
1, 884908, Note_off_c, 0, 85, 67
1, 884990, Note_on_c, 0, 52, 96
1, 884992, Control_c, 0, 64, 105
1, 884995, Note_on_c, 0, 88, 85
1, 885007, Control_c, 0, 64, 67
1, 885015, Note_off_c, 0, 86, 63
1, 885022, Control_c, 0, 64, 0
1, 885051, Control_c, 0, 64, 59
1, 885066, Control_c, 0, 64, 80
1, 885078, Note_on_c, 0, 79, 83
1, 885081, Control_c, 0, 64, 127
1, 885088, Note_off_c, 0, 88, 64
1, 885136, Note_off_c, 0, 52, 52
1, 885153, Note_off_c, 0, 79, 58
1, 885173, Note_on_c, 0, 67, 83
1, 885174, Note_on_c, 0, 61, 82
1, 885177, Note_on_c, 0, 90, 102
1, 885179, Note_on_c, 0, 58, 77
1, 885203, Note_on_c, 0, 65, 40
1, 885208, Note_off_c, 0, 67, 57
1, 885233, Note_off_c, 0, 61, 59
1, 885234, Note_off_c, 0, 65, 59
1, 885235, Note_off_c, 0, 58, 55
1, 885275, Note_on_c, 0, 91, 106
1, 885294, Note_off_c, 0, 90, 62
1, 885482, Note_on_c, 0, 60, 91
1, 885483, Note_on_c, 0, 90, 98
1, 885485, Note_on_c, 0, 66, 96
1, 885488, Note_on_c, 0, 57, 84
1, 885489, Note_on_c, 0, 51, 85
1, 885516, Note_off_c, 0, 91, 63
1, 885561, Control_c, 0, 64, 96
1, 885576, Control_c, 0, 64, 66
1, 885591, Control_c, 0, 64, 0
1, 885621, Control_c, 0, 64, 36
1, 885635, Control_c, 0, 64, 66
1, 885650, Control_c, 0, 64, 81
1, 885652, Note_on_c, 0, 81, 73
1, 885665, Control_c, 0, 64, 127
1, 885749, Note_on_c, 0, 92, 86
1, 885800, Note_off_c, 0, 66, 59
1, 885823, Note_on_c, 0, 93, 84
1, 885831, Note_off_c, 0, 81, 56
1, 885832, Note_off_c, 0, 90, 60
1, 885907, Note_off_c, 0, 51, 63
1, 885917, Note_on_c, 0, 89, 84
1, 885918, Note_on_c, 0, 65, 95
1, 885949, Note_off_c, 0, 92, 34
1, 885965, Note_off_c, 0, 93, 63
1, 886001, Note_on_c, 0, 81, 75
1, 886052, Control_c, 0, 67, 8
1, 886066, Control_c, 0, 67, 9
1, 886068, Note_on_c, 0, 92, 82
1, 886081, Control_c, 0, 67, 10
1, 886087, Note_off_c, 0, 65, 55
1, 886096, Control_c, 0, 67, 12
1, 886108, Note_off_c, 0, 89, 61
1, 886110, Control_c, 0, 67, 13
1, 886125, Control_c, 0, 67, 14
1, 886127, Note_off_c, 0, 81, 54
1, 886134, Note_on_c, 0, 93, 80
1, 886139, Note_off_c, 0, 60, 56
1, 886139, Note_off_c, 0, 57, 55
1, 886140, Control_c, 0, 67, 15
1, 886155, Control_c, 0, 67, 15
1, 886165, Note_off_c, 0, 92, 66
1, 886199, Note_on_c, 0, 52, 81
1, 886199, Note_on_c, 0, 64, 94
1, 886203, Note_on_c, 0, 60, 69
1, 886207, Note_on_c, 0, 57, 66
1, 886207, Control_c, 0, 64, 88
1, 886214, Note_on_c, 0, 88, 85
1, 886222, Control_c, 0, 64, 64
1, 886237, Control_c, 0, 64, 0
1, 886252, Control_c, 0, 64, 42
1, 886266, Control_c, 0, 64, 64
1, 886281, Control_c, 0, 64, 74
1, 886281, Control_c, 0, 67, 16
1, 886288, Note_on_c, 0, 81, 68
1, 886296, Control_c, 0, 64, 93
1, 886296, Control_c, 0, 67, 16
1, 886311, Control_c, 0, 64, 127
1, 886311, Control_c, 0, 67, 17
1, 886320, Note_off_c, 0, 93, 38
1, 886338, Note_off_c, 0, 64, 62
1, 886340, Control_c, 0, 67, 17
1, 886353, Note_off_c, 0, 52, 57
1, 886355, Note_on_c, 0, 92, 79
1, 886370, Control_c, 0, 67, 18
1, 886375, Note_off_c, 0, 88, 60
1, 886384, Control_c, 0, 67, 19
1, 886399, Control_c, 0, 67, 20
1, 886402, Note_off_c, 0, 57, 52
1, 886414, Control_c, 0, 67, 21
1, 886415, Note_off_c, 0, 81, 61
1, 886420, Note_off_c, 0, 60, 59
1, 886429, Control_c, 0, 67, 23
1, 886443, Note_on_c, 0, 93, 74
1, 886444, Control_c, 0, 67, 24
1, 886458, Control_c, 0, 67, 25
1, 886471, Note_on_c, 0, 60, 60
1, 886473, Control_c, 0, 67, 26
1, 886478, Note_on_c, 0, 63, 78
1, 886479, Note_on_c, 0, 57, 61
1, 886482, Note_on_c, 0, 53, 71
1, 886488, Control_c, 0, 64, 96
1, 886488, Control_c, 0, 67, 28
1, 886489, Note_off_c, 0, 92, 54
1, 886493, Note_on_c, 0, 87, 82
1, 886503, Control_c, 0, 64, 63
1, 886503, Control_c, 0, 67, 30
1, 886518, Control_c, 0, 64, 0
1, 886518, Control_c, 0, 67, 32
1, 886533, Control_c, 0, 67, 34
1, 886548, Control_c, 0, 67, 36
1, 886563, Control_c, 0, 64, 61
1, 886563, Control_c, 0, 67, 37
1, 886566, Note_on_c, 0, 81, 68
1, 886578, Control_c, 0, 64, 71
1, 886578, Control_c, 0, 67, 38
1, 886593, Control_c, 0, 64, 89
1, 886593, Control_c, 0, 67, 39
1, 886595, Note_off_c, 0, 93, 54
1, 886608, Control_c, 0, 64, 127
1, 886637, Control_c, 0, 67, 40
1, 886640, Note_on_c, 0, 92, 73
1, 886678, Note_off_c, 0, 87, 64
1, 886691, Note_off_c, 0, 81, 54
1, 886699, Note_off_c, 0, 63, 59
1, 886711, Note_on_c, 0, 93, 74
1, 886759, Note_off_c, 0, 92, 65
1, 886773, Note_on_c, 0, 62, 65
1, 886780, Note_on_c, 0, 86, 73
1, 886786, Control_c, 0, 64, 81
1, 886786, Control_c, 0, 67, 40
1, 886801, Control_c, 0, 64, 66
1, 886801, Control_c, 0, 67, 41
1, 886815, Control_c, 0, 64, 67
1, 886815, Control_c, 0, 67, 41
1, 886830, Control_c, 0, 64, 74
1, 886830, Control_c, 0, 67, 42
1, 886842, Note_on_c, 0, 81, 60
1, 886844, Note_off_c, 0, 60, 51
1, 886845, Control_c, 0, 64, 85
1, 886845, Control_c, 0, 67, 44
1, 886856, Note_off_c, 0, 93, 52
1, 886858, Note_off_c, 0, 53, 57
1, 886860, Control_c, 0, 64, 113
1, 886860, Control_c, 0, 67, 45
1, 886875, Control_c, 0, 64, 127
1, 886875, Control_c, 0, 67, 46
1, 886889, Control_c, 0, 67, 47
1, 886904, Note_off_c, 0, 86, 62
1, 886904, Control_c, 0, 67, 47
1, 886906, Note_on_c, 0, 92, 72
1, 886918, Note_off_c, 0, 57, 55
1, 886954, Note_off_c, 0, 81, 55
1, 886986, Control_c, 0, 67, 47
1, 886992, Note_off_c, 0, 62, 55
1, 886994, Note_on_c, 0, 93, 65
1, 887035, Note_off_c, 0, 92, 65
1, 887055, Note_on_c, 0, 57, 54
1, 887056, Note_on_c, 0, 61, 57
1, 887057, Note_on_c, 0, 54, 52
1, 887060, Control_c, 0, 67, 46
1, 887062, Note_on_c, 0, 85, 68
1, 887075, Control_c, 0, 64, 90
1, 887089, Control_c, 0, 64, 68
1, 887104, Control_c, 0, 64, 46
1, 887119, Control_c, 0, 64, 60
1, 887119, Control_c, 0, 67, 46
1, 887134, Control_c, 0, 64, 69
1, 887134, Control_c, 0, 67, 45
1, 887142, Note_on_c, 0, 81, 63
1, 887148, Control_c, 0, 64, 82
1, 887148, Control_c, 0, 67, 45
1, 887160, Note_off_c, 0, 85, 49
1, 887163, Control_c, 0, 64, 127
1, 887163, Control_c, 0, 67, 44
1, 887178, Control_c, 0, 67, 43
1, 887186, Note_off_c, 0, 93, 56
1, 887193, Control_c, 0, 67, 42
1, 887208, Control_c, 0, 67, 41
1, 887209, Note_on_c, 0, 92, 64
1, 887222, Control_c, 0, 67, 40
1, 887237, Control_c, 0, 67, 40
1, 887242, Note_off_c, 0, 81, 51
1, 887252, Control_c, 0, 67, 38
1, 887255, Note_off_c, 0, 57, 57
1, 887257, Note_off_c, 0, 54, 58
1, 887263, Note_off_c, 0, 61, 57
1, 887267, Control_c, 0, 67, 37
1, 887282, Control_c, 0, 67, 37
1, 887288, Note_on_c, 0, 93, 76
1, 887296, Control_c, 0, 67, 36
1, 887311, Control_c, 0, 67, 37
1, 887318, Note_off_c, 0, 92, 64
1, 887326, Control_c, 0, 67, 37
1, 887336, Note_on_c, 0, 61, 51
1, 887345, Note_on_c, 0, 54, 47
1, 887353, Note_on_c, 0, 57, 50
1, 887355, Control_c, 0, 64, 78
1, 887355, Control_c, 0, 67, 38
1, 887358, Note_on_c, 0, 85, 79
1, 887371, Control_c, 0, 64, 40
1, 887386, Control_c, 0, 64, 0
1, 887401, Control_c, 0, 64, 64
1, 887416, Control_c, 0, 64, 74
1, 887416, Control_c, 0, 67, 37
1, 887431, Control_c, 0, 64, 90
1, 887431, Control_c, 0, 67, 37
1, 887431, Note_off_c, 0, 85, 63
1, 887435, Note_on_c, 0, 81, 71
1, 887445, Control_c, 0, 64, 127
1, 887445, Control_c, 0, 67, 36
1, 887460, Control_c, 0, 67, 35
1, 887475, Control_c, 0, 67, 34
1, 887487, Note_off_c, 0, 93, 62
1, 887490, Control_c, 0, 67, 31
1, 887501, Note_on_c, 0, 92, 76
1, 887505, Control_c, 0, 67, 28
1, 887510, Note_off_c, 0, 81, 60
1, 887519, Control_c, 0, 67, 26
1, 887534, Control_c, 0, 67, 24
1, 887549, Control_c, 0, 67, 22
1, 887564, Control_c, 0, 67, 20
1, 887579, Control_c, 0, 67, 17
1, 887579, Note_on_c, 0, 93, 71
1, 887594, Control_c, 0, 67, 14
1, 887607, Note_off_c, 0, 92, 65
1, 887609, Control_c, 0, 67, 11
1, 887613, Note_on_c, 0, 86, 80
1, 887616, Note_on_c, 0, 62, 69
1, 887624, Control_c, 0, 67, 9
1, 887638, Control_c, 0, 67, 0
1, 887672, Note_off_c, 0, 61, 40
1, 887691, Note_off_c, 0, 86, 65
1, 887697, Note_on_c, 0, 81, 75
1, 887715, Note_off_c, 0, 62, 61
1, 887716, Note_off_c, 0, 54, 58
1, 887716, Note_off_c, 0, 93, 58
1, 887764, Note_on_c, 0, 92, 71
1, 887771, Note_off_c, 0, 57, 48
1, 887776, Note_off_c, 0, 81, 62
1, 887823, Note_on_c, 0, 93, 79
1, 887892, Note_on_c, 0, 87, 86
1, 887894, Note_on_c, 0, 63, 82
1, 887898, Note_on_c, 0, 53, 74
1, 887901, Note_on_c, 0, 60, 70
1, 887904, Note_on_c, 0, 57, 65
1, 887907, Note_off_c, 0, 92, 49
1, 887913, Control_c, 0, 64, 102
1, 887928, Control_c, 0, 64, 67
1, 887935, Note_off_c, 0, 93, 64
1, 887943, Control_c, 0, 64, 33
1, 887955, Note_on_c, 0, 81, 76
1, 887958, Control_c, 0, 64, 63
1, 887972, Control_c, 0, 64, 72
1, 887984, Note_off_c, 0, 87, 61
1, 887987, Control_c, 0, 64, 87
1, 888002, Control_c, 0, 64, 127
1, 888015, Note_on_c, 0, 92, 73
1, 888051, Note_off_c, 0, 53, 62
1, 888057, Note_off_c, 0, 81, 62
1, 888086, Note_off_c, 0, 63, 59
1, 888090, Note_on_c, 0, 93, 82
1, 888107, Note_off_c, 0, 57, 52
1, 888121, Note_off_c, 0, 60, 55
1, 888144, Note_on_c, 0, 88, 83
1, 888151, Note_on_c, 0, 60, 65
1, 888152, Note_off_c, 0, 92, 51
1, 888154, Note_on_c, 0, 52, 83
1, 888155, Note_on_c, 0, 64, 93
1, 888161, Note_on_c, 0, 57, 62
1, 888166, Control_c, 0, 64, 94
1, 888180, Control_c, 0, 64, 65
1, 888187, Note_off_c, 0, 93, 63
1, 888195, Control_c, 0, 64, 0
1, 888210, Control_c, 0, 64, 60
1, 888217, Note_on_c, 0, 81, 73
1, 888225, Control_c, 0, 64, 72
1, 888240, Control_c, 0, 64, 89
1, 888241, Note_off_c, 0, 88, 58
1, 888254, Control_c, 0, 64, 127
1, 888269, Note_on_c, 0, 92, 75
1, 888312, Note_off_c, 0, 64, 62
1, 888324, Note_off_c, 0, 81, 61
1, 888342, Note_on_c, 0, 93, 81
1, 888408, Note_on_c, 0, 89, 82
1, 888413, Note_off_c, 0, 92, 59
1, 888419, Note_on_c, 0, 65, 96
1, 888435, Note_off_c, 0, 52, 56
1, 888444, Note_off_c, 0, 93, 64
1, 888463, Note_on_c, 0, 81, 70
1, 888528, Control_c, 0, 67, 8
1, 888529, Note_on_c, 0, 92, 77
1, 888538, Note_off_c, 0, 65, 56
1, 888543, Control_c, 0, 67, 9
1, 888558, Control_c, 0, 67, 10
1, 888573, Control_c, 0, 67, 10
1, 888587, Control_c, 0, 67, 11
1, 888592, Note_off_c, 0, 60, 62
1, 888601, Note_off_c, 0, 57, 36
1, 888602, Control_c, 0, 67, 11
1, 888604, Note_on_c, 0, 93, 81
1, 888613, Note_on_c, 0, 51, 77
1, 888616, Note_off_c, 0, 89, 61
1, 888617, Control_c, 0, 67, 12
1, 888632, Control_c, 0, 67, 13
1, 888641, Note_off_c, 0, 81, 38
1, 888642, Note_off_c, 0, 92, 65
1, 888647, Control_c, 0, 67, 14
1, 888649, Note_on_c, 0, 57, 53
1, 888661, Control_c, 0, 64, 97
1, 888661, Control_c, 0, 67, 15
1, 888672, Note_on_c, 0, 60, 71
1, 888676, Control_c, 0, 64, 68
1, 888676, Control_c, 0, 67, 15
1, 888691, Control_c, 0, 64, 0
1, 888691, Control_c, 0, 67, 16
1, 888695, Note_on_c, 0, 66, 89
1, 888701, Note_on_c, 0, 90, 84
1, 888721, Control_c, 0, 64, 46
1, 888721, Control_c, 0, 67, 16
1, 888736, Control_c, 0, 64, 66
1, 888736, Control_c, 0, 67, 17
1, 888741, Note_off_c, 0, 93, 64
1, 888750, Control_c, 0, 64, 74
1, 888750, Control_c, 0, 67, 18
1, 888765, Control_c, 0, 64, 86
1, 888765, Control_c, 0, 67, 20
1, 888777, Note_off_c, 0, 51, 62
1, 888780, Control_c, 0, 64, 114
1, 888780, Control_c, 0, 67, 22
1, 888783, Note_on_c, 0, 81, 71
1, 888795, Control_c, 0, 64, 127
1, 888795, Control_c, 0, 67, 25
1, 888810, Control_c, 0, 67, 28
1, 888825, Control_c, 0, 67, 32
1, 888835, Note_off_c, 0, 66, 61
1, 888840, Control_c, 0, 67, 36
1, 888855, Control_c, 0, 67, 40
1, 888863, Note_on_c, 0, 92, 70
1, 888869, Control_c, 0, 67, 42
1, 888878, Note_off_c, 0, 60, 61
1, 888884, Control_c, 0, 67, 42
1, 888890, Note_on_c, 0, 51, 72
1, 888899, Control_c, 0, 67, 43
1, 888904, Note_off_c, 0, 81, 40
1, 888905, Note_on_c, 0, 93, 79
1, 888906, Note_off_c, 0, 57, 0
1, 888915, Note_off_c, 0, 90, 63
1, 888933, Note_on_c, 0, 57, 24
1, 888947, Note_off_c, 0, 92, 66
1, 888959, Control_c, 0, 67, 44
1, 888981, Note_on_c, 0, 60, 71
1, 889004, Control_c, 0, 67, 44
1, 889013, Note_on_c, 0, 66, 74
1, 889018, Control_c, 0, 67, 45
1, 889033, Control_c, 0, 64, 96
1, 889033, Control_c, 0, 67, 46
1, 889048, Control_c, 0, 64, 72
1, 889048, Control_c, 0, 67, 48
1, 889049, Note_on_c, 0, 90, 81
1, 889063, Control_c, 0, 64, 0
1, 889063, Control_c, 0, 67, 49
1, 889077, Control_c, 0, 67, 50
1, 889089, Note_off_c, 0, 93, 63
1, 889092, Control_c, 0, 64, 58
1, 889092, Control_c, 0, 67, 50
1, 889107, Control_c, 0, 64, 67
1, 889107, Control_c, 0, 67, 51
1, 889122, Note_on_c, 0, 81, 66
1, 889122, Control_c, 0, 64, 74
1, 889136, Control_c, 0, 64, 86
1, 889136, Control_c, 0, 67, 52
1, 889151, Control_c, 0, 64, 108
1, 889151, Control_c, 0, 67, 53
1, 889166, Control_c, 0, 64, 127
1, 889166, Control_c, 0, 67, 54
1, 889189, Control_c, 0, 67, 54
1, 889204, Control_c, 0, 67, 55
1, 889213, Note_on_c, 0, 92, 72
1, 889218, Control_c, 0, 67, 57
1, 889233, Control_c, 0, 67, 58
1, 889248, Control_c, 0, 67, 61
1, 889254, Note_off_c, 0, 66, 55
1, 889263, Control_c, 0, 67, 63
1, 889275, Note_on_c, 0, 93, 77
1, 889278, Control_c, 0, 67, 65
1, 889280, Note_off_c, 0, 81, 39
1, 889287, Note_off_c, 0, 90, 57
1, 889292, Control_c, 0, 67, 66
1, 889307, Control_c, 0, 67, 66
1, 889309, Note_off_c, 0, 51, 58
1, 889322, Control_c, 0, 67, 67
1, 889336, Control_c, 0, 67, 67
1, 889350, Note_on_c, 0, 89, 79
1, 889351, Control_c, 0, 67, 69
1, 889355, Note_on_c, 0, 65, 62
1, 889366, Control_c, 0, 67, 70
1, 889379, Note_off_c, 0, 92, 40
1, 889381, Control_c, 0, 67, 72
1, 889383, Note_off_c, 0, 93, 62
1, 889396, Control_c, 0, 67, 74
1, 889410, Control_c, 0, 67, 76
1, 889420, Note_on_c, 0, 81, 62
1, 889425, Control_c, 0, 67, 77
1, 889432, Note_off_c, 0, 65, 56
1, 889440, Control_c, 0, 67, 78
1, 889455, Control_c, 0, 67, 80
1, 889470, Control_c, 0, 67, 81
1, 889482, Note_on_c, 0, 92, 73
1, 889484, Control_c, 0, 67, 82
1, 889499, Control_c, 0, 67, 83
1, 889511, Note_off_c, 0, 60, 51
1, 889514, Control_c, 0, 67, 84
1, 889520, Note_off_c, 0, 57, 41
1, 889520, Note_off_c, 0, 89, 60
1, 889529, Control_c, 0, 67, 85
1, 889543, Control_c, 0, 67, 86
1, 889558, Control_c, 0, 67, 86
1, 889568, Note_on_c, 0, 93, 67
1, 889570, Note_off_c, 0, 81, 56
1, 889588, Control_c, 0, 67, 87
1, 889603, Control_c, 0, 67, 88
1, 889618, Control_c, 0, 67, 89
1, 889633, Control_c, 0, 64, 91
1, 889633, Control_c, 0, 67, 90
1, 889633, Note_on_c, 0, 64, 50
1, 889637, Note_on_c, 0, 52, 44
1, 889637, Note_off_c, 0, 92, 50
1, 889638, Note_on_c, 0, 88, 71
1, 889640, Note_on_c, 0, 57, 52
1, 889641, Note_on_c, 0, 60, 47
1, 889648, Control_c, 0, 64, 69
1, 889648, Control_c, 0, 67, 93
1, 889662, Control_c, 0, 64, 26
1, 889662, Control_c, 0, 67, 96
1, 889677, Control_c, 0, 64, 0
1, 889677, Control_c, 0, 67, 98
1, 889692, Control_c, 0, 64, 46
1, 889692, Control_c, 0, 67, 100
1, 889707, Control_c, 0, 64, 64
1, 889707, Control_c, 0, 67, 102
1, 889710, Note_on_c, 0, 81, 49
1, 889722, Control_c, 0, 64, 71
1, 889722, Control_c, 0, 67, 104
1, 889736, Control_c, 0, 64, 80
1, 889736, Control_c, 0, 67, 106
1, 889751, Control_c, 0, 64, 96
1, 889751, Control_c, 0, 67, 108
1, 889760, Note_off_c, 0, 52, 55
1, 889760, Note_off_c, 0, 93, 58
1, 889762, Note_off_c, 0, 64, 58
1, 889767, Control_c, 0, 64, 127
1, 889767, Control_c, 0, 67, 111
1, 889782, Control_c, 0, 67, 113
1, 889785, Note_on_c, 0, 92, 65
1, 889797, Control_c, 0, 67, 115
1, 889812, Control_c, 0, 67, 117
1, 889827, Control_c, 0, 67, 119
1, 889828, Note_off_c, 0, 88, 61
1, 889833, Note_off_c, 0, 57, 37
1, 889841, Control_c, 0, 67, 121
1, 889847, Note_off_c, 0, 60, 37
1, 889856, Control_c, 0, 67, 124
1, 889871, Control_c, 0, 67, 125
1, 889881, Note_on_c, 0, 93, 63
1, 889886, Control_c, 0, 67, 126
1, 889897, Note_off_c, 0, 81, 39
1, 889901, Control_c, 0, 67, 127
1, 889920, Note_off_c, 0, 92, 54
1, 889987, Note_on_c, 0, 87, 60
1, 889993, Note_on_c, 0, 53, 47
1, 890000, Note_on_c, 0, 60, 41
1, 890005, Note_on_c, 0, 57, 31
1, 890005, Note_on_c, 0, 63, 42
1, 890011, Control_c, 0, 64, 97
1, 890026, Control_c, 0, 64, 74
1, 890040, Control_c, 0, 64, 55
1, 890055, Control_c, 0, 64, 0
1, 890070, Control_c, 0, 64, 36
1, 890085, Control_c, 0, 64, 61
1, 890100, Control_c, 0, 64, 67
1, 890101, Note_on_c, 0, 81, 41
1, 890114, Control_c, 0, 64, 76
1, 890129, Control_c, 0, 64, 87
1, 890144, Control_c, 0, 64, 106
1, 890158, Control_c, 0, 64, 127
1, 890171, Note_off_c, 0, 93, 58
1, 890190, Note_on_c, 0, 92, 59
1, 890210, Note_off_c, 0, 63, 58
1, 890254, Note_off_c, 0, 87, 56
1, 890295, Note_on_c, 0, 93, 63
1, 890316, Note_off_c, 0, 81, 43
1, 890362, Note_on_c, 0, 62, 39
1, 890381, Note_off_c, 0, 92, 35
1, 890387, Note_on_c, 0, 86, 52
1, 890388, Note_off_c, 0, 60, 32
1, 890423, Note_off_c, 0, 53, 44
1, 890492, Note_on_c, 0, 81, 53
1, 890494, Note_off_c, 0, 57, 40
1, 890496, Note_off_c, 0, 86, 54
1, 890572, Note_off_c, 0, 62, 39
1, 890577, Note_off_c, 0, 93, 57
1, 890608, Note_on_c, 0, 92, 55
1, 890695, Note_off_c, 0, 81, 37
1, 890706, Note_on_c, 0, 93, 57
1, 890840, Note_on_c, 0, 61, 37
1, 890843, Note_off_c, 0, 92, 34
1, 890849, Control_c, 0, 64, 107
1, 890852, Note_on_c, 0, 85, 55
1, 890861, Note_on_c, 0, 54, 29
1, 890864, Note_on_c, 0, 57, 36
1, 890864, Control_c, 0, 64, 79
1, 890879, Control_c, 0, 64, 64
1, 890894, Control_c, 0, 64, 30
1, 890908, Control_c, 0, 64, 0
1, 890923, Control_c, 0, 64, 14
1, 890938, Control_c, 0, 64, 33
1, 890953, Control_c, 0, 64, 49
1, 890968, Control_c, 0, 64, 63
1, 890982, Control_c, 0, 64, 68
1, 890989, Note_on_c, 0, 81, 37
1, 890997, Control_c, 0, 64, 75
1, 891012, Control_c, 0, 64, 85
1, 891027, Control_c, 0, 64, 97
1, 891042, Control_c, 0, 64, 111
1, 891056, Control_c, 0, 64, 127
1, 891089, Note_off_c, 0, 93, 60
1, 891122, Note_on_c, 0, 92, 55
1, 891178, Note_off_c, 0, 81, 34
1, 891196, Note_off_c, 0, 85, 58
1, 891205, Note_off_c, 0, 54, 38
1, 891231, Note_off_c, 0, 57, 30
1, 891235, Note_off_c, 0, 61, 38
1, 891263, Note_on_c, 0, 93, 63
1, 891345, Note_off_c, 0, 93, 57
1, 891595, Note_on_c, 0, 93, 49
1, 891617, Note_on_c, 0, 54, 18
1, 891618, Note_on_c, 0, 85, 39
1, 891622, Note_on_c, 0, 61, 23
1, 891626, Note_on_c, 0, 57, 33
1, 891646, Note_on_c, 0, 81, 34
1, 891776, Control_c, 0, 64, 97
1, 891791, Control_c, 0, 64, 78
1, 891805, Control_c, 0, 64, 65
1, 891807, Note_off_c, 0, 92, 61
1, 891820, Control_c, 0, 64, 36
1, 891835, Control_c, 0, 64, 17
1, 891865, Control_c, 0, 64, 29
1, 891879, Control_c, 0, 64, 48
1, 891894, Control_c, 0, 64, 62
1, 891909, Control_c, 0, 64, 68
1, 891924, Control_c, 0, 64, 78
1, 891938, Control_c, 0, 64, 92
1, 891953, Control_c, 0, 64, 127
1, 892187, Note_off_c, 0, 93, 38
1, 892195, Note_off_c, 0, 54, 42
1, 892202, Note_off_c, 0, 57, 44
1, 892352, Note_off_c, 0, 81, 43
1, 892422, Note_off_c, 0, 85, 62
1, 892494, Note_on_c, 0, 54, 38
1, 892540, Note_off_c, 0, 61, 42
1, 892598, Note_on_c, 0, 57, 36
1, 892715, Note_on_c, 0, 62, 32
1, 892810, Note_off_c, 0, 62, 36
1, 892814, Note_on_c, 0, 61, 37
1, 892878, Note_off_c, 0, 61, 56
1, 892889, Note_on_c, 0, 66, 51
1, 892889, Note_off_c, 0, 57, 43
1, 892934, Note_off_c, 0, 54, 42
1, 892974, Note_off_c, 0, 66, 56
1, 893010, Note_on_c, 0, 69, 44
1, 893087, Note_off_c, 0, 69, 56
1, 893119, Note_on_c, 0, 73, 51
1, 893178, Note_off_c, 0, 73, 52
1, 893426, Note_on_c, 0, 81, 47
1, 893466, Note_off_c, 0, 81, 47
1, 893478, Note_on_c, 0, 30, 32
1, 893948, Control_c, 0, 67, 126
1, 893963, Control_c, 0, 67, 124
1, 893978, Control_c, 0, 67, 121
1, 893993, Control_c, 0, 67, 117
1, 894007, Control_c, 0, 67, 114
1, 894022, Control_c, 0, 67, 110
1, 894037, Control_c, 0, 67, 107
1, 894052, Control_c, 0, 67, 103
1, 894067, Control_c, 0, 67, 99
1, 894081, Control_c, 0, 67, 96
1, 894095, Note_off_c, 0, 30, 42
1, 894096, Control_c, 0, 67, 92
1, 894111, Control_c, 0, 67, 89
1, 894125, Control_c, 0, 67, 86
1, 894140, Control_c, 0, 67, 84
1, 894155, Control_c, 0, 67, 81
1, 894170, Control_c, 0, 67, 78
1, 894185, Control_c, 0, 67, 76
1, 894200, Control_c, 0, 67, 75
1, 894214, Control_c, 0, 67, 73
1, 894229, Control_c, 0, 67, 72
1, 894244, Control_c, 0, 67, 71
1, 894259, Control_c, 0, 67, 70
1, 894274, Control_c, 0, 67, 69
1, 894289, Control_c, 0, 67, 68
1, 894304, Control_c, 0, 67, 67
1, 894319, Control_c, 0, 67, 67
1, 894333, Control_c, 0, 67, 66
1, 894363, Control_c, 0, 67, 65
1, 894393, Control_c, 0, 67, 65
1, 894395, Note_on_c, 0, 69, 51
1, 894504, Control_c, 0, 67, 65
1, 894519, Control_c, 0, 67, 66
1, 894533, Control_c, 0, 67, 68
1, 894548, Control_c, 0, 67, 69
1, 894563, Control_c, 0, 67, 70
1, 894578, Control_c, 0, 67, 71
1, 894593, Control_c, 0, 67, 72
1, 894608, Control_c, 0, 67, 73
1, 894623, Control_c, 0, 67, 74
1, 894638, Control_c, 0, 67, 75
1, 894653, Control_c, 0, 67, 76
1, 894668, Control_c, 0, 67, 76
1, 894682, Control_c, 0, 67, 77
1, 894697, Control_c, 0, 67, 78
1, 894712, Control_c, 0, 67, 78
1, 894727, Control_c, 0, 67, 79
1, 894742, Control_c, 0, 67, 79
1, 894756, Control_c, 0, 64, 105
1, 894757, Note_on_c, 0, 71, 65
1, 894771, Control_c, 0, 64, 82
1, 894771, Control_c, 0, 67, 80
1, 894786, Control_c, 0, 64, 71
1, 894801, Control_c, 0, 64, 67
1, 894801, Control_c, 0, 67, 80
1, 894806, Note_on_c, 0, 61, 32
1, 894814, Note_on_c, 0, 57, 27
1, 894816, Note_on_c, 0, 54, 32
1, 894816, Control_c, 0, 64, 67
1, 894830, Control_c, 0, 64, 70
1, 894845, Control_c, 0, 64, 74
1, 894847, Note_off_c, 0, 69, 61
1, 894860, Control_c, 0, 64, 84
1, 894874, Control_c, 0, 64, 97
1, 894889, Control_c, 0, 64, 117
1, 894904, Control_c, 0, 64, 127
1, 894921, Note_off_c, 0, 71, 60
1, 894948, Control_c, 0, 67, 81
1, 894960, Note_off_c, 0, 57, 31
1, 894963, Control_c, 0, 67, 81
1, 894966, Note_off_c, 0, 61, 38
1, 894978, Note_off_c, 0, 54, 41
1, 894978, Control_c, 0, 67, 83
1, 894990, Note_on_c, 0, 69, 55
1, 894993, Control_c, 0, 67, 86
1, 895008, Control_c, 0, 67, 88
1, 895022, Control_c, 0, 67, 90
1, 895029, Note_on_c, 0, 71, 68
1, 895037, Control_c, 0, 67, 90
1, 895047, Note_off_c, 0, 69, 59
1, 895067, Control_c, 0, 67, 91
1, 895085, Note_off_c, 0, 71, 65
1, 895112, Note_on_c, 0, 54, 37
1, 895112, Note_on_c, 0, 61, 35
1, 895113, Note_on_c, 0, 73, 61
1, 895120, Note_on_c, 0, 57, 32
1, 895142, Control_c, 0, 64, 95
1, 895156, Control_c, 0, 64, 80
1, 895171, Control_c, 0, 64, 68
1, 895171, Control_c, 0, 67, 90
1, 895193, Control_c, 0, 64, 58
1, 895208, Control_c, 0, 64, 36
1, 895223, Control_c, 0, 64, 0
1, 895223, Control_c, 0, 67, 90
1, 895297, Control_c, 0, 64, 42
1, 895311, Control_c, 0, 64, 60
1, 895326, Control_c, 0, 64, 66
1, 895341, Control_c, 0, 64, 72
1, 895341, Control_c, 0, 67, 89
1, 895357, Control_c, 0, 64, 77
1, 895372, Control_c, 0, 64, 83
1, 895386, Control_c, 0, 64, 89
1, 895401, Control_c, 0, 64, 96
1, 895416, Control_c, 0, 64, 104
1, 895431, Control_c, 0, 64, 118
1, 895446, Control_c, 0, 64, 127
1, 895475, Control_c, 0, 67, 90
1, 895505, Control_c, 0, 67, 90
1, 895520, Control_c, 0, 67, 91
1, 895535, Control_c, 0, 67, 91
1, 895550, Control_c, 0, 67, 92
1, 895565, Control_c, 0, 67, 92
1, 895579, Control_c, 0, 67, 93
1, 895594, Control_c, 0, 67, 94
1, 895609, Control_c, 0, 67, 98
1, 895624, Control_c, 0, 67, 101
1, 895639, Control_c, 0, 67, 104
1, 895653, Control_c, 0, 67, 106
1, 895668, Control_c, 0, 67, 109
1, 895683, Control_c, 0, 67, 111
1, 895697, Control_c, 0, 67, 114
1, 895707, Note_off_c, 0, 57, 29
1, 895712, Control_c, 0, 67, 116
1, 895727, Control_c, 0, 67, 119
1, 895729, Note_off_c, 0, 61, 33
1, 895742, Control_c, 0, 67, 121
1, 895746, Note_off_c, 0, 54, 37
1, 895757, Control_c, 0, 67, 123
1, 895771, Control_c, 0, 67, 125
1, 895786, Control_c, 0, 67, 127
1, 895991, Note_on_c, 0, 71, 53
1, 896015, Note_on_c, 0, 54, 24
1, 896015, Note_on_c, 0, 57, 35
1, 896025, Note_on_c, 0, 61, 21
1, 896114, Note_off_c, 0, 73, 59
1, 896122, Note_off_c, 0, 57, 55
1, 896132, Note_on_c, 0, 69, 52
1, 896147, Note_off_c, 0, 71, 60
1, 896149, Note_off_c, 0, 54, 47
1, 896216, Note_off_c, 0, 61, 39
1, 896271, Note_off_c, 0, 69, 38
1, 896316, Note_on_c, 0, 73, 59
1, 896352, Note_on_c, 0, 61, 34
1, 896365, Note_on_c, 0, 56, 38
1, 896366, Note_on_c, 0, 52, 40
1, 896402, Control_c, 0, 64, 114
1, 896417, Control_c, 0, 64, 88
1, 896432, Control_c, 0, 64, 71
1, 896447, Control_c, 0, 64, 56
1, 896462, Control_c, 0, 64, 0
1, 896535, Control_c, 0, 64, 23
1, 896550, Control_c, 0, 64, 60
1, 896565, Control_c, 0, 64, 68
1, 896580, Control_c, 0, 64, 75
1, 896594, Control_c, 0, 64, 84
1, 896609, Control_c, 0, 64, 96
1, 896624, Control_c, 0, 64, 117
1, 896638, Control_c, 0, 64, 127
1, 896781, Note_off_c, 0, 61, 39
1, 896810, Note_off_c, 0, 52, 39
1, 896825, Note_off_c, 0, 56, 35
1, 897126, Note_on_c, 0, 69, 48
1, 897139, Note_on_c, 0, 52, 33
1, 897140, Note_on_c, 0, 56, 39
1, 897159, Note_on_c, 0, 61, 33
1, 897261, Note_off_c, 0, 56, 37
1, 897266, Note_off_c, 0, 52, 35
1, 897267, Note_on_c, 0, 68, 56
1, 897287, Note_off_c, 0, 69, 38
1, 897312, Note_off_c, 0, 73, 61
1, 897315, Note_off_c, 0, 68, 53
1, 897325, Note_off_c, 0, 61, 25
1, 897510, Note_on_c, 0, 68, 50
1, 897555, Note_on_c, 0, 51, 36
1, 897572, Note_on_c, 0, 61, 28
1, 897572, Note_on_c, 0, 73, 52
1, 897574, Note_on_c, 0, 54, 40
1, 897616, Control_c, 0, 64, 93
1, 897631, Control_c, 0, 64, 74
1, 897646, Control_c, 0, 64, 59
1, 897661, Control_c, 0, 64, 0
1, 897751, Control_c, 0, 64, 46
1, 897766, Control_c, 0, 64, 64
1, 897780, Control_c, 0, 64, 71
1, 897795, Control_c, 0, 64, 80
1, 897810, Control_c, 0, 64, 92
1, 897825, Control_c, 0, 64, 105
1, 897840, Control_c, 0, 64, 127
1, 898088, Note_off_c, 0, 51, 39
1, 898128, Note_off_c, 0, 54, 39
1, 898185, Note_off_c, 0, 61, 34
1, 898516, Note_on_c, 0, 66, 46
1, 898552, Note_on_c, 0, 61, 23
1, 898558, Note_on_c, 0, 51, 16
1, 898567, Note_on_c, 0, 54, 26
1, 898568, Note_off_c, 0, 68, 52
1, 898701, Note_off_c, 0, 54, 45
1, 898702, Note_off_c, 0, 51, 46
1, 898702, Note_off_c, 0, 61, 41
1, 898919, Note_on_c, 0, 51, 31
1, 898921, Control_c, 0, 64, 105
1, 898926, Note_on_c, 0, 54, 36
1, 898932, Note_on_c, 0, 61, 35
1, 898936, Control_c, 0, 64, 81
1, 898951, Control_c, 0, 64, 64
1, 898966, Control_c, 0, 64, 50
1, 898981, Control_c, 0, 64, 54
1, 898996, Control_c, 0, 64, 63
1, 899011, Control_c, 0, 64, 67
1, 899026, Control_c, 0, 64, 74
1, 899041, Control_c, 0, 64, 92
1, 899055, Control_c, 0, 64, 127
1, 899159, Note_off_c, 0, 66, 54
1, 899265, Note_on_c, 0, 66, 61
1, 899307, Control_c, 0, 67, 125
1, 899321, Control_c, 0, 67, 121
1, 899337, Control_c, 0, 67, 116
1, 899352, Control_c, 0, 67, 110
1, 899367, Control_c, 0, 67, 105
1, 899373, Note_off_c, 0, 54, 50
1, 899382, Control_c, 0, 67, 98
1, 899390, Note_off_c, 0, 61, 42
1, 899397, Control_c, 0, 67, 93
1, 899402, Note_off_c, 0, 51, 46
1, 899411, Control_c, 0, 67, 88
1, 899426, Control_c, 0, 67, 83
1, 899441, Control_c, 0, 67, 80
1, 899456, Control_c, 0, 67, 77
1, 899470, Control_c, 0, 67, 75
1, 899485, Control_c, 0, 67, 73
1, 899500, Control_c, 0, 67, 70
1, 899515, Control_c, 0, 67, 69
1, 899530, Control_c, 0, 67, 68
1, 899544, Control_c, 0, 67, 67
1, 899559, Control_c, 0, 67, 66
1, 899574, Control_c, 0, 67, 66
1, 899589, Control_c, 0, 67, 65
1, 899605, Note_on_c, 0, 68, 68
1, 899619, Control_c, 0, 67, 65
1, 899628, Note_on_c, 0, 61, 35
1, 899637, Note_on_c, 0, 51, 22
1, 899637, Note_on_c, 0, 54, 33
1, 899649, Control_c, 0, 67, 64
1, 899700, Control_c, 0, 67, 64
1, 899723, Note_off_c, 0, 66, 59
1, 899730, Control_c, 0, 67, 63
1, 899781, Note_off_c, 0, 61, 43
1, 899797, Note_off_c, 0, 68, 60
1, 899800, Note_off_c, 0, 54, 46
1, 899800, Note_off_c, 0, 73, 53
1, 899803, Note_off_c, 0, 51, 45
1, 899819, Control_c, 0, 67, 65
1, 899833, Control_c, 0, 67, 66
1, 899837, Note_on_c, 0, 66, 61
1, 899848, Control_c, 0, 67, 67
1, 899863, Control_c, 0, 67, 68
1, 899878, Control_c, 0, 67, 69
1, 899892, Note_on_c, 0, 68, 71
1, 899893, Control_c, 0, 67, 70
1, 899895, Note_off_c, 0, 66, 61
1, 899908, Control_c, 0, 67, 70
1, 899923, Control_c, 0, 67, 71
1, 899938, Control_c, 0, 67, 72
1, 899941, Note_on_c, 0, 73, 62
1, 899947, Note_on_c, 0, 69, 70
1, 899947, Note_off_c, 0, 68, 60
1, 899956, Note_on_c, 0, 51, 33
1, 899959, Note_on_c, 0, 54, 23
1, 899967, Control_c, 0, 67, 72
1, 899975, Note_on_c, 0, 61, 33
1, 899997, Control_c, 0, 64, 100
1, 899997, Control_c, 0, 67, 73
1, 900012, Control_c, 0, 64, 80
1, 900012, Control_c, 0, 67, 73
1, 900026, Control_c, 0, 64, 66
1, 900026, Control_c, 0, 67, 74
1, 900041, Control_c, 0, 64, 40
1, 900056, Control_c, 0, 64, 0
1, 900085, Control_c, 0, 67, 74
1, 900100, Control_c, 0, 67, 75
1, 900115, Control_c, 0, 67, 75
1, 900130, Control_c, 0, 67, 76
1, 900146, Control_c, 0, 67, 77
1, 900161, Control_c, 0, 64, 54
1, 900161, Control_c, 0, 67, 78
1, 900175, Control_c, 0, 64, 66
1, 900175, Control_c, 0, 67, 78
1, 900190, Control_c, 0, 64, 73
1, 900190, Control_c, 0, 67, 79
1, 900205, Control_c, 0, 64, 79
1, 900220, Control_c, 0, 64, 87
1, 900235, Control_c, 0, 64, 95
1, 900249, Control_c, 0, 64, 104
1, 900249, Control_c, 0, 67, 79
1, 900264, Control_c, 0, 64, 113
1, 900264, Control_c, 0, 67, 80
1, 900279, Control_c, 0, 64, 127
1, 900279, Control_c, 0, 67, 80
1, 900293, Control_c, 0, 67, 81
1, 900308, Control_c, 0, 67, 82
1, 900323, Control_c, 0, 67, 84
1, 900338, Control_c, 0, 67, 86
1, 900353, Control_c, 0, 67, 89
1, 900367, Control_c, 0, 67, 91
1, 900382, Control_c, 0, 67, 93
1, 900397, Control_c, 0, 67, 95
1, 900420, Control_c, 0, 67, 97
1, 900435, Control_c, 0, 67, 99
1, 900449, Control_c, 0, 67, 102
1, 900464, Control_c, 0, 67, 104
1, 900468, Note_off_c, 0, 54, 42
1, 900479, Control_c, 0, 67, 106
1, 900480, Note_off_c, 0, 51, 40
1, 900493, Control_c, 0, 67, 109
1, 900498, Note_off_c, 0, 61, 35
1, 900508, Control_c, 0, 67, 111
1, 900523, Control_c, 0, 67, 113
1, 900538, Control_c, 0, 67, 116
1, 900553, Control_c, 0, 67, 119
1, 900567, Control_c, 0, 67, 121
1, 900582, Control_c, 0, 67, 123
1, 900597, Control_c, 0, 67, 124
1, 900612, Control_c, 0, 67, 126
1, 900627, Control_c, 0, 67, 127
1, 900851, Note_on_c, 0, 68, 48
1, 900877, Note_on_c, 0, 61, 34
1, 900880, Note_off_c, 0, 69, 58
1, 900880, Note_on_c, 0, 54, 32
1, 900883, Note_on_c, 0, 51, 25
1, 900893, Control_c, 0, 64, 103
1, 900908, Control_c, 0, 64, 82
1, 900923, Control_c, 0, 64, 67
1, 900939, Control_c, 0, 64, 50
1, 900954, Control_c, 0, 64, 31
1, 900969, Control_c, 0, 64, 36
1, 900984, Control_c, 0, 64, 51
1, 900998, Control_c, 0, 64, 62
1, 901013, Control_c, 0, 64, 67
1, 901028, Control_c, 0, 64, 73
1, 901034, Note_on_c, 0, 66, 39
1, 901034, Note_off_c, 0, 68, 54
1, 901043, Control_c, 0, 64, 81
1, 901053, Note_off_c, 0, 54, 42
1, 901058, Control_c, 0, 64, 88
1, 901072, Control_c, 0, 64, 94
1, 901087, Control_c, 0, 64, 100
1, 901088, Note_off_c, 0, 51, 45
1, 901089, Note_off_c, 0, 61, 41
1, 901102, Control_c, 0, 64, 106
1, 901116, Control_c, 0, 64, 112
1, 901131, Control_c, 0, 64, 124
1, 901146, Control_c, 0, 64, 127
1, 901351, Note_on_c, 0, 72, 44
1, 901363, Note_on_c, 0, 69, 43
1, 901383, Note_on_c, 0, 50, 29
1, 901389, Note_on_c, 0, 60, 30
1, 901392, Note_on_c, 0, 54, 31
1, 901420, Control_c, 0, 64, 113
1, 901434, Control_c, 0, 64, 101
1, 901446, Note_off_c, 0, 73, 38
1, 901449, Control_c, 0, 64, 88
1, 901464, Control_c, 0, 64, 75
1, 901479, Control_c, 0, 64, 64
1, 901494, Control_c, 0, 64, 38
1, 901509, Control_c, 0, 64, 0
1, 901524, Note_off_c, 0, 66, 34
1, 901642, Control_c, 0, 64, 60
1, 901657, Control_c, 0, 64, 68
1, 901672, Control_c, 0, 64, 76
1, 901687, Control_c, 0, 64, 85
1, 901702, Control_c, 0, 64, 101
1, 901716, Control_c, 0, 64, 127
1, 902030, Note_off_c, 0, 50, 33
1, 902036, Note_off_c, 0, 54, 37
1, 902072, Note_off_c, 0, 60, 29
1, 902388, Note_on_c, 0, 67, 39
1, 902402, Note_on_c, 0, 60, 29
1, 902409, Note_on_c, 0, 50, 18
1, 902412, Note_on_c, 0, 54, 30
1, 902459, Note_off_c, 0, 69, 37
1, 902505, Note_off_c, 0, 54, 39
1, 902516, Note_off_c, 0, 50, 39
1, 902518, Note_off_c, 0, 60, 37
1, 902595, Note_off_c, 0, 67, 46
1, 902613, Note_on_c, 0, 66, 44
1, 902773, Note_off_c, 0, 66, 50
1, 903015, Note_on_c, 0, 71, 39
1, 903035, Note_on_c, 0, 67, 31
1, 903038, Note_on_c, 0, 59, 29
1, 903045, Note_on_c, 0, 50, 32
1, 903055, Note_on_c, 0, 43, 30
1, 903110, Control_c, 0, 64, 115
1, 903125, Control_c, 0, 64, 85
1, 903140, Control_c, 0, 64, 68
1, 903155, Control_c, 0, 64, 0
1, 903159, Note_off_c, 0, 72, 43
1, 903259, Control_c, 0, 64, 61
1, 903273, Control_c, 0, 64, 69
1, 903288, Control_c, 0, 64, 78
1, 903303, Control_c, 0, 64, 90
1, 903318, Control_c, 0, 64, 113
1, 903333, Control_c, 0, 64, 127
1, 903510, Note_off_c, 0, 59, 35
1, 903552, Note_off_c, 0, 50, 39
1, 903566, Note_off_c, 0, 43, 28
1, 904012, Note_on_c, 0, 59, 28
1, 904016, Note_on_c, 0, 62, 37
1, 904019, Note_on_c, 0, 43, 23
1, 904029, Note_on_c, 0, 50, 28
1, 904150, Note_off_c, 0, 50, 37
1, 904155, Note_off_c, 0, 59, 34
1, 904183, Note_off_c, 0, 43, 40
1, 904269, Note_off_c, 0, 67, 41
1, 904302, Note_off_c, 0, 71, 45
1, 904412, Note_on_c, 0, 59, 28
1, 904425, Note_on_c, 0, 50, 29
1, 904436, Note_on_c, 0, 43, 27
1, 904492, Note_off_c, 0, 62, 35
1, 904642, Note_on_c, 0, 62, 41
1, 904727, Control_c, 0, 64, 96
1, 904741, Control_c, 0, 64, 74
1, 904755, Note_on_c, 0, 67, 49
1, 904756, Control_c, 0, 64, 66
1, 904764, Note_off_c, 0, 62, 44
1, 904771, Control_c, 0, 64, 67
1, 904785, Control_c, 0, 64, 70
1, 904800, Control_c, 0, 64, 75
1, 904815, Control_c, 0, 64, 83
1, 904830, Control_c, 0, 64, 94
1, 904845, Control_c, 0, 64, 126
1, 904859, Control_c, 0, 64, 127
1, 904961, Note_off_c, 0, 59, 42
1, 904976, Note_off_c, 0, 50, 47
1, 904988, Note_off_c, 0, 43, 39
1, 905125, Note_on_c, 0, 43, 39
1, 905142, Note_on_c, 0, 59, 25
1, 905146, Note_on_c, 0, 50, 18
1, 905196, Note_off_c, 0, 59, 46
1, 905204, Note_on_c, 0, 66, 58
1, 905206, Note_off_c, 0, 43, 52
1, 905211, Note_off_c, 0, 50, 49
1, 905237, Note_off_c, 0, 67, 52
1, 905349, Note_off_c, 0, 66, 63
1, 905569, Note_on_c, 0, 59, 45
1, 905578, Note_on_c, 0, 44, 47
1, 905585, Note_on_c, 0, 49, 44
1, 905670, Note_on_c, 0, 65, 65
1, 905671, Note_on_c, 0, 62, 63
1, 905676, Control_c, 0, 64, 104
1, 905690, Control_c, 0, 64, 80
1, 905705, Control_c, 0, 64, 62
1, 905720, Control_c, 0, 64, 0
1, 905754, Note_off_c, 0, 62, 59
1, 905765, Control_c, 0, 64, 31
1, 905773, Note_on_c, 0, 61, 63
1, 905780, Control_c, 0, 64, 56
1, 905795, Control_c, 0, 64, 65
1, 905810, Control_c, 0, 64, 67
1, 905818, Note_off_c, 0, 61, 60
1, 905825, Control_c, 0, 64, 65
1, 905839, Control_c, 0, 64, 61
1, 905849, Note_on_c, 0, 62, 61
1, 905854, Control_c, 0, 64, 54
1, 905869, Control_c, 0, 64, 47
1, 905884, Control_c, 0, 64, 31
1, 905885, Note_off_c, 0, 62, 60
1, 905899, Control_c, 0, 64, 0
1, 905912, Note_on_c, 0, 61, 64
1, 905942, Note_off_c, 0, 61, 64
1, 905975, Note_on_c, 0, 62, 61
1, 906008, Note_off_c, 0, 62, 63
1, 906018, Note_on_c, 0, 61, 73
1, 906061, Note_off_c, 0, 61, 59
1, 906094, Note_on_c, 0, 60, 67
1, 906129, Note_off_c, 0, 60, 63
1, 906141, Note_on_c, 0, 61, 73
1, 906189, Note_off_c, 0, 61, 59
1, 906201, Note_off_c, 0, 49, 58
1, 906205, Note_off_c, 0, 44, 57
1, 906209, Note_off_c, 0, 59, 45
1, 906211, Note_on_c, 0, 64, 62
1, 906278, Note_on_c, 0, 62, 58
1, 906282, Note_off_c, 0, 64, 55
1, 906341, Note_off_c, 0, 62, 59
1, 906369, Note_on_c, 0, 61, 51
1, 906383, Note_on_c, 0, 59, 40
1, 906410, Note_on_c, 0, 49, 33
1, 906412, Note_on_c, 0, 44, 30
1, 906484, Control_c, 0, 64, 45
1, 906499, Control_c, 0, 64, 65
1, 906514, Control_c, 0, 64, 73
1, 906529, Control_c, 0, 64, 83
1, 906544, Control_c, 0, 64, 97
1, 906559, Control_c, 0, 64, 127
1, 906648, Note_off_c, 0, 59, 37
1, 906652, Note_off_c, 0, 44, 44
1, 906654, Note_off_c, 0, 49, 43
1, 906798, Note_on_c, 0, 59, 40
1, 906803, Note_on_c, 0, 49, 36
1, 906805, Note_off_c, 0, 61, 60
1, 906815, Note_on_c, 0, 44, 30
1, 906923, Note_off_c, 0, 65, 62
1, 907038, Note_on_c, 0, 65, 59
1, 907092, Control_c, 0, 64, 95
1, 907107, Control_c, 0, 64, 73
1, 907109, Note_on_c, 0, 69, 50
1, 907122, Control_c, 0, 64, 55
1, 907137, Control_c, 0, 64, 49
1, 907159, Control_c, 0, 64, 57
1, 907174, Control_c, 0, 64, 62
1, 907187, Note_off_c, 0, 65, 60
1, 907188, Control_c, 0, 64, 65
1, 907203, Control_c, 0, 64, 69
1, 907218, Control_c, 0, 64, 76
1, 907233, Control_c, 0, 64, 89
1, 907248, Control_c, 0, 64, 109
1, 907262, Control_c, 0, 64, 127
1, 907335, Note_off_c, 0, 59, 47
1, 907344, Note_off_c, 0, 44, 44
1, 907344, Note_off_c, 0, 49, 43
1, 907456, Note_on_c, 0, 68, 70
1, 907471, Note_on_c, 0, 49, 44
1, 907472, Note_on_c, 0, 44, 38
1, 907476, Note_on_c, 0, 59, 40
1, 907525, Note_off_c, 0, 69, 62
1, 907558, Note_off_c, 0, 59, 39
1, 907602, Note_off_c, 0, 44, 36
1, 907909, Note_on_c, 0, 66, 67
1, 907920, Note_on_c, 0, 62, 61
1, 907950, Note_off_c, 0, 68, 61
1, 907974, Note_on_c, 0, 57, 41
1, 907979, Note_on_c, 0, 45, 44
1, 907980, Note_on_c, 0, 50, 45
1, 907981, Note_off_c, 0, 49, 36
1, 907982, Control_c, 0, 64, 103
1, 907997, Control_c, 0, 64, 85
1, 908011, Control_c, 0, 64, 71
1, 908026, Control_c, 0, 64, 58
1, 908041, Control_c, 0, 64, 0
1, 908046, Note_off_c, 0, 62, 60
1, 908064, Note_on_c, 0, 61, 61
1, 908129, Note_off_c, 0, 61, 60
1, 908146, Note_on_c, 0, 62, 56
1, 908181, Note_off_c, 0, 62, 65
1, 908203, Note_on_c, 0, 61, 63
1, 908243, Note_off_c, 0, 61, 61
1, 908262, Note_on_c, 0, 62, 57
1, 908289, Note_off_c, 0, 62, 62
1, 908329, Note_on_c, 0, 61, 52
1, 908356, Note_on_c, 0, 62, 67
1, 908356, Note_off_c, 0, 61, 57
1, 908385, Note_off_c, 0, 62, 65
1, 908402, Note_on_c, 0, 61, 70
1, 908454, Note_off_c, 0, 61, 62
1, 908468, Note_on_c, 0, 60, 59
1, 908496, Note_off_c, 0, 60, 57
1, 908508, Note_on_c, 0, 61, 58
1, 908562, Note_off_c, 0, 61, 61
1, 908573, Note_on_c, 0, 64, 59
1, 908573, Note_off_c, 0, 57, 37
1, 908573, Note_off_c, 0, 45, 43
1, 908635, Note_on_c, 0, 62, 59
1, 908660, Note_off_c, 0, 64, 58
1, 908702, Note_off_c, 0, 62, 62
1, 908717, Note_on_c, 0, 61, 56
1, 908719, Note_off_c, 0, 50, 55
1, 908737, Note_on_c, 0, 45, 25
1, 908737, Note_on_c, 0, 57, 29
1, 908749, Note_on_c, 0, 49, 33
1, 908893, Control_c, 0, 64, 61
1, 908907, Control_c, 0, 64, 70
1, 908922, Control_c, 0, 64, 81
1, 908938, Control_c, 0, 64, 103
1, 908953, Control_c, 0, 64, 127
1, 909024, Note_off_c, 0, 49, 44
1, 909032, Note_off_c, 0, 45, 43
1, 909038, Note_off_c, 0, 57, 35
1, 909149, Note_on_c, 0, 45, 41
1, 909151, Note_on_c, 0, 49, 36
1, 909163, Note_on_c, 0, 57, 48
1, 909430, Note_off_c, 0, 66, 53
1, 909553, Control_c, 0, 67, 127
1, 909563, Note_on_c, 0, 66, 73
1, 909568, Control_c, 0, 67, 126
1, 909597, Control_c, 0, 67, 126
1, 909612, Control_c, 0, 67, 125
1, 909642, Control_c, 0, 67, 125
1, 909671, Control_c, 0, 67, 124
1, 909701, Control_c, 0, 67, 124
1, 909716, Control_c, 0, 67, 123
1, 909732, Control_c, 0, 67, 123
1, 909746, Control_c, 0, 67, 122
1, 909776, Control_c, 0, 67, 122
1, 909805, Control_c, 0, 67, 121
1, 909820, Control_c, 0, 67, 120
1, 909835, Control_c, 0, 67, 119
1, 909846, Note_off_c, 0, 49, 43
1, 909850, Control_c, 0, 67, 118
1, 909855, Note_off_c, 0, 45, 42
1, 909855, Note_off_c, 0, 57, 31
1, 909865, Control_c, 0, 67, 118
1, 909879, Control_c, 0, 67, 117
1, 909891, Note_off_c, 0, 66, 58
1, 909894, Control_c, 0, 67, 116
1, 909909, Control_c, 0, 67, 115
1, 909924, Control_c, 0, 67, 114
1, 909939, Control_c, 0, 67, 113
1, 909954, Control_c, 0, 67, 112
1, 909969, Control_c, 0, 67, 112
1, 909983, Control_c, 0, 67, 111
1, 909998, Control_c, 0, 67, 110
1, 910013, Control_c, 0, 67, 110
1, 910028, Control_c, 0, 67, 109
1, 910034, Note_on_c, 0, 66, 69
1, 910043, Control_c, 0, 67, 109
1, 910053, Note_on_c, 0, 57, 37
1, 910063, Note_on_c, 0, 49, 38
1, 910066, Note_on_c, 0, 45, 34
1, 910087, Control_c, 0, 67, 108
1, 910124, Note_off_c, 0, 57, 54
1, 910141, Note_off_c, 0, 49, 50
1, 910161, Note_off_c, 0, 45, 39
1, 910183, Control_c, 0, 67, 109
1, 910213, Control_c, 0, 67, 109
1, 910214, Note_off_c, 0, 61, 54
1, 910228, Control_c, 0, 67, 110
1, 910243, Control_c, 0, 67, 110
1, 910258, Control_c, 0, 67, 111
1, 910273, Control_c, 0, 67, 112
1, 910287, Control_c, 0, 67, 112
1, 910302, Control_c, 0, 67, 113
1, 910317, Control_c, 0, 67, 113
1, 910347, Control_c, 0, 67, 114
1, 910376, Control_c, 0, 67, 114
1, 910405, Control_c, 0, 67, 115
1, 910420, Control_c, 0, 67, 115
1, 910450, Control_c, 0, 67, 116
1, 910465, Control_c, 0, 67, 116
1, 910509, Control_c, 0, 67, 117
1, 910540, Control_c, 0, 67, 117
1, 910584, Control_c, 0, 67, 118
1, 910628, Control_c, 0, 67, 118
1, 910673, Control_c, 0, 67, 119
1, 910702, Control_c, 0, 67, 119
1, 910717, Control_c, 0, 67, 120
1, 910732, Control_c, 0, 67, 120
1, 910739, Note_on_c, 0, 67, 47
1, 910747, Control_c, 0, 67, 121
1, 910762, Control_c, 0, 67, 122
1, 910776, Control_c, 0, 67, 124
1, 910779, Note_on_c, 0, 35, 32
1, 910779, Note_on_c, 0, 55, 30
1, 910791, Control_c, 0, 67, 127
1, 910806, Control_c, 0, 64, 105
1, 910806, Control_c, 0, 67, 127
1, 910821, Control_c, 0, 64, 84
1, 910836, Control_c, 0, 64, 66
1, 910851, Control_c, 0, 64, 0
1, 910868, Note_off_c, 0, 66, 51
1, 911065, Control_c, 0, 64, 35
1, 911080, Control_c, 0, 64, 56
1, 911095, Control_c, 0, 64, 63
1, 911109, Control_c, 0, 64, 66
1, 911124, Control_c, 0, 64, 69
1, 911139, Control_c, 0, 64, 73
1, 911153, Control_c, 0, 64, 76
1, 911168, Control_c, 0, 64, 80
1, 911183, Control_c, 0, 64, 83
1, 911198, Control_c, 0, 64, 87
1, 911213, Control_c, 0, 64, 92
1, 911227, Control_c, 0, 64, 97
1, 911242, Control_c, 0, 64, 101
1, 911257, Control_c, 0, 64, 107
1, 911272, Control_c, 0, 64, 114
1, 911287, Control_c, 0, 64, 127
1, 911668, Note_off_c, 0, 55, 33
1, 911852, Note_on_c, 0, 50, 34
1, 911865, Note_on_c, 0, 62, 32
1, 911947, Control_c, 0, 64, 117
1, 911962, Control_c, 0, 64, 93
1, 911976, Control_c, 0, 64, 76
1, 911991, Control_c, 0, 64, 65
1, 912006, Control_c, 0, 64, 48
1, 912021, Note_off_c, 0, 67, 40
1, 912021, Control_c, 0, 64, 21
1, 912036, Control_c, 0, 64, 14
1, 912065, Control_c, 0, 64, 32
1, 912080, Control_c, 0, 64, 50
1, 912095, Control_c, 0, 64, 62
1, 912110, Control_c, 0, 64, 66
1, 912126, Control_c, 0, 64, 71
1, 912141, Control_c, 0, 64, 76
1, 912155, Control_c, 0, 64, 82
1, 912170, Control_c, 0, 64, 88
1, 912185, Control_c, 0, 64, 94
1, 912199, Control_c, 0, 64, 101
1, 912214, Control_c, 0, 64, 106
1, 912229, Control_c, 0, 64, 111
1, 912244, Note_off_c, 0, 50, 43
1, 912244, Control_c, 0, 64, 115
1, 912259, Control_c, 0, 64, 122
1, 912273, Control_c, 0, 64, 127
1, 912338, Note_off_c, 0, 62, 39
1, 912780, Note_on_c, 0, 59, 44
1, 912785, Control_c, 0, 64, 101
1, 912794, Note_on_c, 0, 47, 34
1, 912799, Control_c, 0, 64, 83
1, 912814, Control_c, 0, 64, 70
1, 912829, Control_c, 0, 64, 57
1, 912844, Control_c, 0, 64, 53
1, 912859, Control_c, 0, 64, 58
1, 912873, Control_c, 0, 64, 63
1, 912888, Control_c, 0, 64, 66
1, 912903, Control_c, 0, 64, 70
1, 912919, Control_c, 0, 64, 75
1, 912934, Control_c, 0, 64, 80
1, 912949, Control_c, 0, 64, 86
1, 912964, Control_c, 0, 64, 92
1, 912978, Control_c, 0, 64, 97
1, 912993, Control_c, 0, 64, 101
1, 913008, Control_c, 0, 64, 105
1, 913022, Control_c, 0, 64, 110
1, 913037, Control_c, 0, 64, 116
1, 913052, Control_c, 0, 64, 124
1, 913067, Control_c, 0, 64, 127
1, 913178, Control_c, 0, 64, 120
1, 913193, Control_c, 0, 64, 99
1, 913200, Note_on_c, 0, 55, 45
1, 913208, Control_c, 0, 64, 78
1, 913221, Note_on_c, 0, 43, 34
1, 913222, Control_c, 0, 64, 65
1, 913236, Note_off_c, 0, 47, 41
1, 913237, Control_c, 0, 64, 62
1, 913247, Note_off_c, 0, 59, 39
1, 913253, Control_c, 0, 64, 63
1, 913268, Control_c, 0, 64, 66
1, 913283, Control_c, 0, 64, 67
1, 913297, Control_c, 0, 64, 69
1, 913312, Control_c, 0, 64, 73
1, 913327, Control_c, 0, 64, 78
1, 913342, Control_c, 0, 64, 82
1, 913357, Control_c, 0, 64, 85
1, 913371, Control_c, 0, 64, 88
1, 913386, Control_c, 0, 64, 91
1, 913401, Control_c, 0, 64, 95
1, 913416, Control_c, 0, 64, 98
1, 913430, Control_c, 0, 64, 103
1, 913445, Control_c, 0, 64, 106
1, 913460, Control_c, 0, 64, 107
1, 913475, Control_c, 0, 64, 108
1, 913489, Control_c, 0, 64, 109
1, 913504, Control_c, 0, 64, 110
1, 913519, Control_c, 0, 64, 112
1, 913534, Control_c, 0, 64, 113
1, 913549, Control_c, 0, 64, 114
1, 913683, Control_c, 0, 64, 113
1, 913689, Note_off_c, 0, 55, 41
1, 913713, Note_off_c, 0, 43, 38
1, 913722, Note_on_c, 0, 50, 41
1, 913737, Note_on_c, 0, 38, 36
1, 913742, Control_c, 0, 64, 109
1, 913757, Control_c, 0, 64, 100
1, 913772, Control_c, 0, 64, 84
1, 913787, Control_c, 0, 64, 70
1, 913802, Control_c, 0, 64, 56
1, 913817, Control_c, 0, 64, 0
1, 913876, Control_c, 0, 64, 32
1, 913898, Control_c, 0, 64, 51
1, 913913, Control_c, 0, 64, 62
1, 913927, Control_c, 0, 64, 66
1, 913942, Control_c, 0, 64, 70
1, 913957, Control_c, 0, 64, 74
1, 913972, Control_c, 0, 64, 77
1, 913987, Control_c, 0, 64, 80
1, 914002, Control_c, 0, 64, 82
1, 914017, Control_c, 0, 64, 85
1, 914032, Control_c, 0, 64, 88
1, 914046, Control_c, 0, 64, 91
1, 914061, Control_c, 0, 64, 95
1, 914076, Control_c, 0, 64, 97
1, 914091, Control_c, 0, 64, 99
1, 914106, Control_c, 0, 64, 101
1, 914120, Control_c, 0, 64, 103
1, 914135, Control_c, 0, 64, 104
1, 914150, Control_c, 0, 64, 107
1, 914165, Control_c, 0, 64, 109
1, 914179, Control_c, 0, 64, 111
1, 914194, Control_c, 0, 64, 112
1, 914209, Control_c, 0, 64, 113
1, 914224, Control_c, 0, 64, 113
1, 914276, Note_off_c, 0, 35, 40
1, 914474, Note_off_c, 0, 50, 43
1, 914587, Note_off_c, 0, 38, 28
1, 914706, Control_c, 0, 64, 113
1, 914765, Control_c, 0, 64, 112
1, 914780, Control_c, 0, 64, 110
1, 914794, Control_c, 0, 64, 106
1, 914809, Control_c, 0, 64, 100
1, 914824, Control_c, 0, 64, 91
1, 914839, Control_c, 0, 64, 82
1, 914854, Control_c, 0, 64, 74
1, 914868, Control_c, 0, 64, 65
1, 914883, Control_c, 0, 64, 54
1, 914898, Control_c, 0, 64, 27
1, 914913, Control_c, 0, 64, 0
1, 914987, Control_c, 0, 64, 23
1, 915001, Control_c, 0, 64, 47
1, 915016, Control_c, 0, 64, 61
1, 915031, Control_c, 0, 64, 65
1, 915042, Note_on_c, 0, 48, 36
1, 915046, Control_c, 0, 64, 69
1, 915051, Note_on_c, 0, 36, 36
1, 915061, Control_c, 0, 64, 74
1, 915075, Control_c, 0, 64, 79
1, 915090, Control_c, 0, 64, 85
1, 915105, Control_c, 0, 64, 93
1, 915120, Control_c, 0, 64, 101
1, 915135, Control_c, 0, 64, 109
1, 915149, Control_c, 0, 64, 119
1, 915164, Control_c, 0, 64, 127
1, 915208, Note_off_c, 0, 48, 38
1, 915633, Note_off_c, 0, 36, 38
1, 916308, Control_c, 0, 64, 111
1, 916318, Note_on_c, 0, 24, 42
1, 916319, Note_on_c, 0, 25, 47
1, 916322, Control_c, 0, 64, 86
1, 916337, Control_c, 0, 64, 70
1, 916352, Control_c, 0, 64, 54
1, 916366, Control_c, 0, 64, 54
1, 916381, Control_c, 0, 64, 62
1, 916396, Control_c, 0, 64, 67
1, 916411, Control_c, 0, 64, 74
1, 916426, Control_c, 0, 64, 85
1, 916440, Control_c, 0, 64, 111
1, 916455, Control_c, 0, 64, 127
1, 916494, Note_off_c, 0, 25, 42
1, 916583, Note_on_c, 0, 25, 42
1, 916632, Note_off_c, 0, 24, 0
1, 916643, Note_off_c, 0, 25, 51
1, 916652, Note_on_c, 0, 24, 21
1, 916716, Note_off_c, 0, 24, 52
1, 916744, Note_on_c, 0, 25, 40
1, 916786, Note_on_c, 0, 61, 56
1, 916795, Note_off_c, 0, 25, 53
1, 916813, Note_on_c, 0, 24, 33
1, 916898, Note_off_c, 0, 24, 38
1, 916917, Note_on_c, 0, 25, 39
1, 916926, Note_off_c, 0, 61, 34
1, 916969, Note_on_c, 0, 24, 26
1, 916970, Note_off_c, 0, 25, 51
1, 917050, Note_on_c, 0, 25, 42
1, 917050, Note_on_c, 0, 61, 54
1, 917097, Note_off_c, 0, 24, 0
1, 917114, Note_off_c, 0, 25, 48
1, 917117, Note_on_c, 0, 24, 27
1, 917141, Note_off_c, 0, 61, 46
1, 917212, Note_on_c, 0, 25, 42
1, 917232, Note_on_c, 0, 62, 60
1, 917234, Note_on_c, 0, 61, 42
1, 917260, Note_off_c, 0, 24, 0
1, 917272, Note_off_c, 0, 25, 55
1, 917280, Note_on_c, 0, 24, 23
1, 917340, Note_off_c, 0, 62, 57
1, 917392, Note_off_c, 0, 61, 0
1, 917396, Note_on_c, 0, 25, 52
1, 917406, Note_on_c, 0, 61, 47
1, 917412, Note_on_c, 0, 62, 48
1, 917442, Note_off_c, 0, 24, 0
1, 917465, Note_on_c, 0, 24, 19
1, 917469, Note_off_c, 0, 25, 53
1, 917494, Note_off_c, 0, 62, 57
1, 917501, Note_off_c, 0, 61, 58
1, 917569, Note_on_c, 0, 59, 64
1, 917571, Note_on_c, 0, 62, 54
1, 917586, Note_on_c, 0, 25, 55
1, 917588, Note_on_c, 0, 61, 43
1, 917627, Note_off_c, 0, 61, 57
1, 917654, Note_off_c, 0, 62, 58
1, 917661, Note_off_c, 0, 59, 51
1, 917663, Note_off_c, 0, 24, 0
1, 917665, Note_off_c, 0, 25, 57
1, 917671, Control_c, 0, 67, 127
1, 917677, Poly_aftertouch_c, 0, 22, 127
1, 917680, Note_on_c, 0, 24, 30
1, 917686, Control_c, 0, 67, 126
1, 917701, Control_c, 0, 67, 124
1, 917716, Control_c, 0, 67, 123
1, 917731, Control_c, 0, 67, 122
1, 917739, Note_on_c, 0, 59, 58
1, 917745, Note_on_c, 0, 61, 68
1, 917746, Control_c, 0, 67, 121
1, 917752, Note_on_c, 0, 62, 57
1, 917761, Control_c, 0, 67, 120
1, 917770, Note_on_c, 0, 25, 56
1, 917776, Note_off_c, 0, 24, 0
1, 917776, Control_c, 0, 67, 119
1, 917784, Note_off_c, 0, 62, 59
1, 917790, Control_c, 0, 67, 118
1, 917805, Control_c, 0, 67, 118
1, 917820, Control_c, 0, 67, 116
1, 917824, Note_off_c, 0, 59, 57
1, 917833, Note_off_c, 0, 61, 61
1, 917835, Control_c, 0, 67, 115
1, 917850, Control_c, 0, 67, 114
1, 917850, Poly_aftertouch_c, 0, 24, 0
1, 917865, Control_c, 0, 67, 113
1, 917874, Note_on_c, 0, 24, 22
1, 917880, Control_c, 0, 67, 112
1, 917894, Control_c, 0, 67, 110
1, 917895, Note_on_c, 0, 57, 71
1, 917898, Note_on_c, 0, 61, 62
1, 917909, Control_c, 0, 67, 110
1, 917918, Note_on_c, 0, 62, 52
1, 917918, Note_off_c, 0, 25, 34
1, 917924, Control_c, 0, 67, 109
1, 917938, Control_c, 0, 67, 107
1, 917953, Control_c, 0, 67, 107
1, 917958, Note_off_c, 0, 57, 60
1, 917960, Note_off_c, 0, 62, 47
1, 917968, Control_c, 0, 67, 106
1, 917979, Note_off_c, 0, 61, 61
1, 917983, Control_c, 0, 67, 105
1, 917998, Control_c, 0, 67, 104
1, 918012, Control_c, 0, 67, 104
1, 918014, Note_on_c, 0, 25, 58
1, 918025, Note_off_c, 0, 24, 40
1, 918027, Control_c, 0, 67, 103
1, 918039, Note_on_c, 0, 56, 77
1, 918041, Note_on_c, 0, 62, 71
1, 918061, Note_on_c, 0, 59, 61
1, 918072, Control_c, 0, 67, 102
1, 918085, Note_off_c, 0, 25, 58
1, 918089, Note_on_c, 0, 24, 52
1, 918102, Note_off_c, 0, 62, 60
1, 918121, Note_off_c, 0, 56, 60
1, 918127, Note_off_c, 0, 59, 56
1, 918131, Control_c, 0, 67, 102
1, 918160, Control_c, 0, 67, 101
1, 918180, Note_on_c, 0, 62, 71
1, 918189, Note_on_c, 0, 54, 70
1, 918189, Note_on_c, 0, 57, 67
1, 918197, Note_on_c, 0, 25, 64
1, 918220, Control_c, 0, 67, 101
1, 918221, Note_off_c, 0, 24, 34
1, 918235, Control_c, 0, 67, 100
1, 918244, Note_off_c, 0, 62, 60
1, 918254, Note_off_c, 0, 57, 61
1, 918264, Control_c, 0, 67, 100
1, 918274, Note_off_c, 0, 54, 61
1, 918279, Control_c, 0, 67, 99
1, 918280, Note_off_c, 0, 25, 54
1, 918282, Note_on_c, 0, 24, 51
1, 918294, Control_c, 0, 67, 98
1, 918309, Control_c, 0, 67, 98
1, 918324, Control_c, 0, 67, 97
1, 918338, Control_c, 0, 67, 96
1, 918339, Note_on_c, 0, 61, 91
1, 918349, Note_on_c, 0, 53, 75
1, 918350, Note_on_c, 0, 56, 77
1, 918353, Control_c, 0, 67, 95
1, 918360, Note_on_c, 0, 25, 64
1, 918361, Note_off_c, 0, 24, 56
1, 918368, Control_c, 0, 67, 94
1, 918390, Control_c, 0, 67, 93
1, 918405, Control_c, 0, 67, 92
1, 918419, Control_c, 0, 67, 92
1, 918434, Control_c, 0, 67, 91
1, 918436, Note_off_c, 0, 25, 60
1, 918440, Note_on_c, 0, 24, 55
1, 918464, Control_c, 0, 67, 90
1, 918488, Note_off_c, 0, 53, 60
1, 918500, Note_on_c, 0, 59, 86
1, 918513, Note_on_c, 0, 25, 69
1, 918516, Note_off_c, 0, 24, 58
1, 918539, Control_c, 0, 67, 91
1, 918554, Control_c, 0, 67, 92
1, 918571, Note_off_c, 0, 61, 52
1, 918586, Note_on_c, 0, 24, 55
1, 918589, Note_off_c, 0, 25, 60
1, 918598, Control_c, 0, 67, 92
1, 918628, Control_c, 0, 67, 93
1, 918643, Control_c, 0, 67, 93
1, 918658, Control_c, 0, 67, 94
1, 918671, Note_on_c, 0, 25, 65
1, 918673, Control_c, 0, 67, 94
1, 918676, Note_off_c, 0, 24, 52
1, 918688, Control_c, 0, 67, 95
1, 918703, Control_c, 0, 67, 96
1, 918717, Control_c, 0, 67, 96
1, 918720, Note_on_c, 0, 58, 84
1, 918732, Control_c, 0, 64, 82
1, 918732, Control_c, 0, 67, 97
1, 918733, Note_on_c, 0, 54, 68
1, 918747, Control_c, 0, 64, 57
1, 918747, Control_c, 0, 67, 97
1, 918748, Note_off_c, 0, 59, 59
1, 918750, Note_off_c, 0, 25, 61
1, 918752, Note_on_c, 0, 24, 52
1, 918756, Note_off_c, 0, 56, 60
1, 918761, Control_c, 0, 64, 0
1, 918776, Control_c, 0, 64, 54
1, 918776, Control_c, 0, 67, 98
1, 918791, Control_c, 0, 64, 68
1, 918806, Control_c, 0, 64, 80
1, 918821, Control_c, 0, 64, 121
1, 918833, Poly_aftertouch_c, 0, 22, 0
1, 918833, Note_off_c, 0, 24, 60
1, 918835, Note_on_c, 0, 25, 66
1, 918835, Control_c, 0, 64, 127
1, 918835, Control_c, 0, 67, 98
1, 918870, Poly_aftertouch_c, 0, 22, 127
1, 918876, Note_off_c, 0, 58, 63
1, 918914, Note_off_c, 0, 25, 60
1, 918923, Note_on_c, 0, 24, 53
1, 918958, Note_off_c, 0, 54, 60
1, 918989, Note_on_c, 0, 66, 74
1, 919003, Note_off_c, 0, 24, 60
1, 919013, Note_on_c, 0, 25, 61
1, 919057, Note_off_c, 0, 66, 57
1, 919057, Control_c, 0, 67, 99
1, 919066, Note_off_c, 0, 25, 55
1, 919083, Note_on_c, 0, 24, 46
1, 919154, Control_c, 0, 67, 98
1, 919158, Note_off_c, 0, 24, 59
1, 919168, Note_on_c, 0, 66, 72
1, 919170, Note_on_c, 0, 25, 58
1, 919224, Note_off_c, 0, 25, 59
1, 919228, Control_c, 0, 67, 98
1, 919239, Note_on_c, 0, 24, 50
1, 919241, Note_off_c, 0, 66, 59
1, 919272, Control_c, 0, 67, 97
1, 919299, Note_off_c, 0, 24, 60
1, 919317, Note_on_c, 0, 67, 72
1, 919320, Note_on_c, 0, 25, 60
1, 919330, Note_on_c, 0, 66, 64
1, 919374, Note_off_c, 0, 25, 55
1, 919377, Control_c, 0, 67, 97
1, 919379, Note_off_c, 0, 67, 56
1, 919388, Note_on_c, 0, 24, 47
1, 919391, Note_off_c, 0, 66, 57
1, 919441, Note_off_c, 0, 24, 60
1, 919461, Note_on_c, 0, 25, 57
1, 919482, Note_on_c, 0, 66, 66
1, 919482, Note_on_c, 0, 67, 67
1, 919510, Note_off_c, 0, 25, 60
1, 919525, Control_c, 0, 67, 96
1, 919535, Note_on_c, 0, 24, 52
1, 919539, Note_off_c, 0, 67, 55
1, 919552, Note_off_c, 0, 66, 59
1, 919599, Note_off_c, 0, 24, 57
1, 919608, Note_on_c, 0, 25, 62
1, 919629, Control_c, 0, 67, 96
1, 919638, Note_on_c, 0, 67, 70
1, 919646, Note_on_c, 0, 64, 58
1, 919660, Note_on_c, 0, 66, 50
1, 919681, Note_off_c, 0, 25, 59
1, 919683, Note_off_c, 0, 66, 61
1, 919684, Note_off_c, 0, 64, 61
1, 919695, Note_off_c, 0, 67, 58
1, 919705, Note_on_c, 0, 24, 51
1, 919718, Control_c, 0, 67, 95
1, 919747, Control_c, 0, 67, 95
1, 919776, Note_off_c, 0, 24, 51
1, 919784, Note_on_c, 0, 64, 69
1, 919785, Note_on_c, 0, 25, 65
1, 919785, Note_on_c, 0, 66, 55
1, 919791, Control_c, 0, 67, 94
1, 919793, Note_on_c, 0, 67, 70
1, 919807, Poly_aftertouch_c, 0, 21, 127
1, 919829, Note_off_c, 0, 67, 53
1, 919834, Note_off_c, 0, 64, 61
1, 919836, Control_c, 0, 67, 94
1, 919856, Note_off_c, 0, 66, 57
1, 919859, Note_off_c, 0, 25, 58
1, 919865, Control_c, 0, 67, 93
1, 919893, Note_on_c, 0, 24, 52
1, 919939, Note_on_c, 0, 62, 64
1, 919940, Note_on_c, 0, 67, 75
1, 919946, Note_on_c, 0, 66, 55
1, 919977, Control_c, 0, 67, 93
1, 919986, Note_off_c, 0, 62, 57
1, 919990, Note_on_c, 0, 25, 65
1, 919995, Note_off_c, 0, 67, 58
1, 919999, Note_off_c, 0, 66, 45
1, 920006, Control_c, 0, 67, 92
1, 920021, Control_c, 0, 67, 92
1, 920029, Note_off_c, 0, 24, 34
1, 920051, Control_c, 0, 67, 91
1, 920065, Control_c, 0, 67, 91
1, 920092, Note_on_c, 0, 61, 74
1, 920092, Note_on_c, 0, 67, 78
1, 920094, Note_on_c, 0, 24, 55
1, 920095, Note_off_c, 0, 25, 49
1, 920095, Control_c, 0, 67, 90
1, 920110, Note_on_c, 0, 64, 55
1, 920111, Control_c, 0, 67, 90
1, 920126, Control_c, 0, 67, 89
1, 920136, Note_off_c, 0, 64, 63
1, 920141, Control_c, 0, 67, 89
1, 920149, Note_off_c, 0, 67, 58
1, 920156, Control_c, 0, 67, 87
1, 920157, Note_off_c, 0, 61, 59
1, 920170, Control_c, 0, 67, 84
1, 920179, Note_off_c, 0, 24, 60
1, 920185, Control_c, 0, 67, 80
1, 920188, Note_on_c, 0, 25, 59
1, 920200, Control_c, 0, 67, 77
1, 920214, Control_c, 0, 67, 76
1, 920229, Control_c, 0, 67, 75
1, 920230, Note_on_c, 0, 67, 77
1, 920232, Note_on_c, 0, 59, 71
1, 920237, Note_on_c, 0, 62, 68
1, 920244, Control_c, 0, 67, 74
1, 920259, Control_c, 0, 67, 73
1, 920260, Note_off_c, 0, 25, 60
1, 920260, Note_off_c, 0, 59, 63
1, 920269, Note_off_c, 0, 62, 59
1, 920271, Note_on_c, 0, 24, 59
1, 920274, Control_c, 0, 67, 73
1, 920278, Note_off_c, 0, 67, 57
1, 920288, Control_c, 0, 67, 72
1, 920303, Control_c, 0, 67, 71
1, 920318, Control_c, 0, 67, 70
1, 920333, Control_c, 0, 67, 70
1, 920347, Note_off_c, 0, 24, 56
1, 920354, Note_on_c, 0, 25, 67
1, 920363, Control_c, 0, 67, 69
1, 920374, Note_on_c, 0, 66, 83
1, 920384, Note_on_c, 0, 58, 73
1, 920386, Note_on_c, 0, 61, 73
1, 920421, Note_off_c, 0, 25, 59
1, 920422, Note_on_c, 0, 24, 59
1, 920491, Note_off_c, 0, 24, 62
1, 920494, Note_on_c, 0, 25, 67
1, 920530, Note_on_c, 0, 64, 78
1, 920552, Note_on_c, 0, 24, 60
1, 920555, Note_off_c, 0, 25, 59
1, 920558, Note_off_c, 0, 58, 35
1, 920636, Note_on_c, 0, 25, 70
1, 920636, Note_off_c, 0, 24, 62
1, 920657, Note_off_c, 0, 66, 38
1, 920682, Control_c, 0, 64, 101
1, 920682, Control_c, 0, 67, 70
1, 920690, Note_on_c, 0, 62, 82
1, 920693, Note_on_c, 0, 24, 61
1, 920694, Note_off_c, 0, 25, 60
1, 920696, Control_c, 0, 64, 72
1, 920697, Note_on_c, 0, 59, 75
1, 920711, Control_c, 0, 64, 63
1, 920711, Control_c, 0, 67, 70
1, 920722, Note_off_c, 0, 61, 58
1, 920726, Control_c, 0, 64, 73
1, 920727, Poly_aftertouch_c, 0, 22, 0
1, 920740, Control_c, 0, 64, 89
1, 920753, Note_off_c, 0, 64, 48
1, 920755, Control_c, 0, 64, 127
1, 920772, Note_off_c, 0, 24, 63
1, 920774, Note_on_c, 0, 25, 70
1, 920786, Note_off_c, 0, 62, 61
1, 920800, Control_c, 0, 67, 70
1, 920814, Control_c, 0, 67, 69
1, 920829, Control_c, 0, 67, 69
1, 920830, Note_on_c, 0, 62, 62
1, 920840, Note_on_c, 0, 24, 61
1, 920843, Note_off_c, 0, 25, 60
1, 920844, Control_c, 0, 67, 68
1, 920859, Control_c, 0, 67, 68
1, 920913, Note_off_c, 0, 62, 61
1, 920918, Note_off_c, 0, 24, 61
1, 920919, Control_c, 0, 67, 67
1, 920920, Note_on_c, 0, 25, 68
1, 920963, Control_c, 0, 67, 67
1, 920984, Note_off_c, 0, 25, 60
1, 920989, Note_on_c, 0, 24, 60
1, 920997, Note_on_c, 0, 62, 72
1, 921004, Note_off_c, 0, 59, 59
1, 921023, Control_c, 0, 67, 66
1, 921052, Note_off_c, 0, 62, 62
1, 921058, Note_on_c, 0, 25, 66
1, 921062, Note_off_c, 0, 24, 54
1, 921112, Note_on_c, 0, 24, 49
1, 921117, Note_off_c, 0, 25, 61
1, 921129, Note_on_c, 0, 65, 87
1, 921139, Note_on_c, 0, 62, 73
1, 921182, Note_off_c, 0, 62, 54
1, 921186, Note_off_c, 0, 24, 62
1, 921191, Note_on_c, 0, 25, 68
1, 921204, Note_off_c, 0, 65, 58
1, 921254, Note_off_c, 0, 25, 58
1, 921258, Note_on_c, 0, 24, 62
1, 921284, Note_on_c, 0, 65, 92
1, 921287, Note_on_c, 0, 62, 76
1, 921320, Note_off_c, 0, 24, 63
1, 921323, Note_on_c, 0, 25, 63
1, 921349, Control_c, 0, 67, 66
1, 921385, Note_on_c, 0, 24, 54
1, 921386, Note_off_c, 0, 25, 61
1, 921402, Poly_aftertouch_c, 0, 21, 0
1, 921439, Poly_aftertouch_c, 0, 21, 127
1, 921446, Note_on_c, 0, 61, 78
1, 921451, Note_off_c, 0, 24, 62
1, 921455, Note_on_c, 0, 25, 67
1, 921475, Control_c, 0, 67, 65
1, 921475, Note_off_c, 0, 62, 58
1, 921511, Note_off_c, 0, 25, 57
1, 921514, Note_on_c, 0, 24, 57
1, 921525, Note_off_c, 0, 61, 58
1, 921531, Poly_aftertouch_c, 0, 21, 0
1, 921567, Poly_aftertouch_c, 0, 21, 127
1, 921588, Note_on_c, 0, 25, 71
1, 921591, Note_off_c, 0, 24, 54
1, 921615, Note_on_c, 0, 61, 81
1, 921634, Note_off_c, 0, 65, 56
1, 921658, Note_on_c, 0, 24, 56
1, 921662, Note_off_c, 0, 25, 60
1, 921713, Control_c, 0, 67, 65
1, 921739, Note_off_c, 0, 61, 51
1, 921742, Note_on_c, 0, 66, 97
1, 921746, Note_off_c, 0, 24, 63
1, 921750, Note_on_c, 0, 25, 76
1, 921754, Note_on_c, 0, 62, 77
1, 921755, Note_on_c, 0, 59, 79
1, 921802, Note_off_c, 0, 59, 56
1, 921824, Note_off_c, 0, 25, 59
1, 921827, Note_off_c, 0, 62, 58
1, 921833, Note_on_c, 0, 24, 65
1, 921833, Note_off_c, 0, 66, 60
1, 921846, Control_c, 0, 67, 64
1, 921891, Note_on_c, 0, 66, 89
1, 921898, Note_on_c, 0, 62, 76
1, 921899, Note_on_c, 0, 59, 77
1, 921905, Control_c, 0, 67, 64
1, 921910, Note_on_c, 0, 25, 76
1, 921912, Note_off_c, 0, 24, 62
1, 921949, Control_c, 0, 67, 63
1, 921970, Note_off_c, 0, 59, 57
1, 921994, Note_off_c, 0, 25, 59
1, 921994, Control_c, 0, 67, 63
1, 921998, Note_on_c, 0, 24, 68
1, 922019, Note_off_c, 0, 62, 56
1, 922023, Control_c, 0, 67, 62
1, 922047, Note_on_c, 0, 61, 77
1, 922056, Note_on_c, 0, 57, 70
1, 922070, Note_on_c, 0, 25, 69
1, 922083, Note_off_c, 0, 24, 55
1, 922098, Control_c, 0, 67, 62
1, 922104, Note_off_c, 0, 57, 52
1, 922125, Note_off_c, 0, 61, 59
1, 922160, Note_off_c, 0, 25, 59
1, 922164, Note_on_c, 0, 24, 62
1, 922196, Note_on_c, 0, 61, 70
1, 922200, Note_on_c, 0, 57, 64
1, 922227, Note_off_c, 0, 57, 65
1, 922227, Note_off_c, 0, 66, 60
1, 922251, Note_on_c, 0, 25, 76
1, 922268, Note_off_c, 0, 24, 48
1, 922275, Note_off_c, 0, 61, 62
1, 922297, Control_c, 0, 67, 61
1, 922336, Note_on_c, 0, 24, 63
1, 922336, Note_off_c, 0, 25, 60
1, 922337, Note_on_c, 0, 56, 85
1, 922338, Note_on_c, 0, 68, 79
1, 922339, Note_on_c, 0, 61, 73
1, 922343, Note_on_c, 0, 65, 70
1, 922371, Control_c, 0, 67, 61
1, 922408, Note_off_c, 0, 56, 59
1, 922426, Note_off_c, 0, 65, 59
1, 922427, Note_off_c, 0, 68, 58
1, 922430, Control_c, 0, 67, 60
1, 922435, Note_off_c, 0, 61, 59
1, 922444, Note_on_c, 0, 25, 74
1, 922444, Note_off_c, 0, 24, 59
1, 922459, Control_c, 0, 67, 60
1, 922474, Control_c, 0, 67, 59
1, 922488, Note_on_c, 0, 68, 78
1, 922489, Control_c, 0, 67, 59
1, 922494, Note_on_c, 0, 61, 73
1, 922494, Note_on_c, 0, 56, 85
1, 922539, Note_on_c, 0, 24, 76
1, 922544, Note_off_c, 0, 25, 60
1, 922552, Note_off_c, 0, 56, 61
1, 922557, Note_off_c, 0, 68, 61
1, 922575, Note_off_c, 0, 61, 62
1, 922608, Control_c, 0, 67, 58
1, 922623, Control_c, 0, 67, 58
1, 922638, Control_c, 0, 67, 56
1, 922651, Note_on_c, 0, 25, 77
1, 922653, Control_c, 0, 67, 52
1, 922654, Note_on_c, 0, 69, 84
1, 922657, Note_on_c, 0, 61, 86
1, 922658, Note_on_c, 0, 54, 86
1, 922668, Control_c, 0, 67, 43
1, 922679, Note_off_c, 0, 24, 60
1, 922682, Control_c, 0, 67, 33
1, 922697, Note_on_c, 0, 67, 26
1, 922697, Control_c, 0, 67, 25
1, 922712, Control_c, 0, 67, 19
1, 922727, Note_off_c, 0, 54, 61
1, 922727, Control_c, 0, 67, 15
1, 922732, Note_off_c, 0, 61, 59
1, 922736, Note_off_c, 0, 69, 61
1, 922738, Note_off_c, 0, 67, 31
1, 922742, Control_c, 0, 67, 11
1, 922757, Control_c, 0, 67, 8
1, 922766, Note_off_c, 0, 25, 59
1, 922772, Control_c, 0, 67, 0
1, 922778, Note_on_c, 0, 24, 71
1, 922807, Note_on_c, 0, 54, 89
1, 922813, Note_on_c, 0, 61, 84
1, 922813, Note_on_c, 0, 69, 82
1, 922827, Note_on_c, 0, 68, 57
1, 922851, Note_off_c, 0, 68, 56
1, 922855, Note_off_c, 0, 69, 63
1, 922864, Note_off_c, 0, 54, 58
1, 922869, Poly_aftertouch_c, 0, 22, 127
1, 922870, Note_on_c, 0, 25, 76
1, 922899, Note_off_c, 0, 24, 60
1, 922904, Note_off_c, 0, 61, 60
1, 922967, Note_on_c, 0, 62, 87
1, 922968, Note_on_c, 0, 70, 92
1, 922969, Note_on_c, 0, 24, 77
1, 922973, Note_on_c, 0, 55, 78
1, 922976, Note_off_c, 0, 25, 60
1, 923000, Note_on_c, 0, 57, 52
1, 923017, Note_on_c, 0, 71, 37
1, 923022, Note_off_c, 0, 55, 62
1, 923025, Note_off_c, 0, 57, 61
1, 923034, Note_off_c, 0, 70, 61
1, 923039, Note_off_c, 0, 62, 62
1, 923047, Note_off_c, 0, 71, 56
1, 923088, Poly_aftertouch_c, 0, 22, 0
1, 923093, Note_on_c, 0, 25, 77
1, 923114, Note_on_c, 0, 63, 94
1, 923114, Note_on_c, 0, 71, 89
1, 923114, Note_on_c, 0, 56, 89
1, 923126, Poly_aftertouch_c, 0, 22, 127
1, 923126, Note_off_c, 0, 24, 59
1, 923139, Note_on_c, 0, 72, 61
1, 923140, Note_off_c, 0, 72, 127
1, 923140, Note_on_c, 0, 70, 55
1, 923142, Note_on_c, 0, 58, 56
1, 923147, Note_off_c, 0, 56, 61
1, 923156, Note_off_c, 0, 70, 69
1, 923166, Note_off_c, 0, 63, 61
1, 923166, Note_off_c, 0, 71, 64
1, 923168, Note_off_c, 0, 58, 61
1, 923186, Note_on_c, 0, 24, 56
1, 923258, Note_on_c, 0, 72, 86
1, 923269, Note_on_c, 0, 64, 81
1, 923271, Note_on_c, 0, 57, 73
1, 923272, Note_on_c, 0, 59, 74
1, 923291, Note_off_c, 0, 64, 72
1, 923293, Note_off_c, 0, 57, 69
1, 923294, Note_off_c, 0, 59, 68
1, 923306, Poly_aftertouch_c, 0, 22, 0
1, 923308, Note_off_c, 0, 72, 62
1, 923319, Note_off_c, 0, 24, 60
1, 923362, Poly_aftertouch_c, 0, 21, 0
1, 923366, Note_off_c, 0, 25, 41
1, 923395, Note_on_c, 0, 56, 88
1, 923424, Note_on_c, 0, 65, 63
1, 923450, Note_off_c, 0, 56, 65
1, 923476, Control_c, 0, 64, 69
1, 923480, Note_on_c, 0, 25, 109
1, 923491, Control_c, 0, 64, 0
1, 923500, Note_on_c, 0, 73, 89
1, 923519, Note_off_c, 0, 25, 61
1, 923520, Control_c, 0, 64, 51
1, 923535, Control_c, 0, 64, 73
1, 923550, Control_c, 0, 64, 100
1, 923564, Control_c, 0, 64, 127
1, 923596, Poly_aftertouch_c, 0, 68, 0
1, 923649, Note_off_c, 0, 65, 63
1, 923731, Note_off_c, 0, 73, 57
1, 923812, Note_on_c, 0, 73, 90
1, 923821, Note_on_c, 0, 61, 96
1, 923885, Note_off_c, 0, 61, 53
1, 923962, Note_off_c, 0, 73, 59
1, 924043, Note_on_c, 0, 61, 75
1, 924046, Note_on_c, 0, 73, 88
1, 924135, Note_off_c, 0, 61, 59
1, 924159, Note_off_c, 0, 73, 62
1, 924217, Note_on_c, 0, 74, 94
1, 924226, Note_on_c, 0, 73, 85
1, 924227, Note_on_c, 0, 61, 84
1, 924227, Note_on_c, 0, 62, 75
1, 924292, Note_off_c, 0, 62, 58
1, 924301, Note_off_c, 0, 74, 60
1, 924304, Note_off_c, 0, 61, 59
1, 924314, Note_off_c, 0, 73, 61
1, 924389, Note_on_c, 0, 73, 89
1, 924390, Note_on_c, 0, 61, 83
1, 924390, Note_on_c, 0, 62, 79
1, 924391, Note_on_c, 0, 74, 94
1, 924465, Note_off_c, 0, 62, 57
1, 924482, Note_off_c, 0, 74, 59
1, 924486, Note_off_c, 0, 61, 59
1, 924494, Note_off_c, 0, 73, 61
1, 924548, Note_on_c, 0, 59, 77
1, 924548, Note_on_c, 0, 74, 93
1, 924551, Note_on_c, 0, 71, 89
1, 924561, Note_on_c, 0, 62, 72
1, 924609, Note_off_c, 0, 62, 42
1, 924615, Note_off_c, 0, 71, 60
1, 924617, Note_off_c, 0, 74, 59
1, 924619, Note_off_c, 0, 59, 61
1, 924697, Note_on_c, 0, 59, 79
1, 924698, Note_on_c, 0, 71, 92
1, 924700, Note_on_c, 0, 74, 93
1, 924703, Note_on_c, 0, 62, 69
1, 924765, Note_off_c, 0, 59, 61
1, 924767, Note_off_c, 0, 62, 56
1, 924768, Note_off_c, 0, 71, 57
1, 924769, Note_off_c, 0, 74, 59
1, 924835, Note_on_c, 0, 57, 83
1, 924844, Note_on_c, 0, 61, 79
1, 924845, Note_on_c, 0, 73, 82
1, 924846, Note_on_c, 0, 69, 81
1, 924846, Note_on_c, 0, 74, 86
1, 924848, Note_on_c, 0, 62, 68
1, 924882, Note_off_c, 0, 62, 57
1, 924895, Note_off_c, 0, 69, 60
1, 924910, Note_off_c, 0, 61, 62
1, 924910, Note_off_c, 0, 74, 62
1, 924918, Note_off_c, 0, 57, 60
1, 924919, Note_off_c, 0, 73, 62
1, 924978, Note_on_c, 0, 59, 86
1, 924980, Note_on_c, 0, 62, 83
1, 924986, Note_on_c, 0, 74, 93
1, 924989, Note_on_c, 0, 56, 67
1, 924998, Note_on_c, 0, 68, 79
1, 924998, Note_on_c, 0, 71, 79
1, 925029, Note_on_c, 0, 55, 31
1, 925033, Note_off_c, 0, 62, 60
1, 925034, Note_off_c, 0, 59, 61
1, 925045, Note_off_c, 0, 56, 43
1, 925046, Note_off_c, 0, 68, 55
1, 925049, Note_off_c, 0, 74, 59
1, 925054, Note_off_c, 0, 71, 59
1, 925068, Note_off_c, 0, 55, 46
1, 925128, Note_on_c, 0, 74, 98
1, 925132, Note_on_c, 0, 66, 87
1, 925132, Note_on_c, 0, 58, 85
1, 925133, Note_on_c, 0, 69, 82
1, 925135, Note_on_c, 0, 62, 84
1, 925145, Note_on_c, 0, 55, 72
1, 925171, Note_off_c, 0, 55, 66
1, 925177, Note_off_c, 0, 62, 56
1, 925177, Note_off_c, 0, 58, 63
1, 925203, Note_off_c, 0, 74, 58
1, 925204, Note_off_c, 0, 69, 61
1, 925222, Note_off_c, 0, 66, 55
1, 925284, Note_on_c, 0, 73, 94
1, 925289, Note_on_c, 0, 65, 89
1, 925294, Note_on_c, 0, 61, 92
1, 925298, Note_on_c, 0, 53, 77
1, 925298, Note_on_c, 0, 68, 83
1, 925300, Note_on_c, 0, 56, 76
1, 925306, Control_c, 0, 64, 110
1, 925321, Control_c, 0, 64, 79
1, 925335, Control_c, 0, 64, 57
1, 925350, Control_c, 0, 64, 0
1, 925380, Control_c, 0, 64, 32
1, 925395, Control_c, 0, 64, 58
1, 925410, Control_c, 0, 64, 67
1, 925414, Note_off_c, 0, 65, 59
1, 925424, Note_on_c, 0, 59, 91
1, 925425, Control_c, 0, 64, 75
1, 925428, Note_off_c, 0, 61, 60
1, 925432, Note_on_c, 0, 71, 93
1, 925432, Note_off_c, 0, 53, 61
1, 925439, Control_c, 0, 64, 90
1, 925452, Note_off_c, 0, 56, 66
1, 925454, Control_c, 0, 64, 127
1, 925469, Note_off_c, 0, 59, 67
1, 925551, Note_off_c, 0, 73, 52
1, 925660, Note_on_c, 0, 66, 89
1, 925662, Note_on_c, 0, 70, 96
1, 925668, Note_on_c, 0, 61, 96
1, 925669, Note_on_c, 0, 49, 90
1, 925687, Note_off_c, 0, 71, 62
1, 925691, Control_c, 0, 64, 87
1, 925707, Control_c, 0, 64, 43
1, 925713, Note_off_c, 0, 68, 53
1, 925722, Control_c, 0, 64, 0
1, 925751, Control_c, 0, 64, 48
1, 925766, Control_c, 0, 64, 73
1, 925781, Control_c, 0, 64, 127
1, 925827, Note_off_c, 0, 49, 66
1, 925843, Note_off_c, 0, 66, 60
1, 925844, Note_off_c, 0, 70, 63
1, 925875, Note_off_c, 0, 61, 61
1, 925961, Note_on_c, 0, 78, 92
1, 925968, Note_on_c, 0, 66, 84
1, 926045, Note_off_c, 0, 78, 61
1, 926059, Note_off_c, 0, 66, 59
1, 926131, Note_on_c, 0, 78, 97
1, 926140, Note_on_c, 0, 66, 82
1, 926229, Note_off_c, 0, 78, 61
1, 926231, Note_off_c, 0, 66, 58
1, 926288, Note_on_c, 0, 79, 106
1, 926293, Note_on_c, 0, 67, 85
1, 926298, Note_on_c, 0, 78, 90
1, 926301, Note_on_c, 0, 66, 79
1, 926355, Note_off_c, 0, 67, 58
1, 926369, Note_off_c, 0, 79, 56
1, 926373, Note_off_c, 0, 66, 58
1, 926381, Note_off_c, 0, 78, 62
1, 926444, Note_on_c, 0, 66, 84
1, 926444, Note_on_c, 0, 78, 91
1, 926444, Note_on_c, 0, 79, 99
1, 926447, Note_on_c, 0, 67, 81
1, 926517, Note_off_c, 0, 67, 55
1, 926524, Note_off_c, 0, 79, 57
1, 926530, Note_off_c, 0, 78, 60
1, 926533, Note_off_c, 0, 66, 59
1, 926588, Note_on_c, 0, 64, 86
1, 926590, Note_on_c, 0, 76, 98
1, 926590, Note_on_c, 0, 79, 94
1, 926599, Note_on_c, 0, 67, 81
1, 926655, Note_off_c, 0, 67, 54
1, 926660, Note_off_c, 0, 64, 61
1, 926662, Note_off_c, 0, 76, 60
1, 926664, Note_off_c, 0, 79, 57
1, 926739, Note_on_c, 0, 64, 87
1, 926744, Note_on_c, 0, 79, 99
1, 926746, Note_on_c, 0, 76, 97
1, 926749, Note_on_c, 0, 67, 82
1, 926810, Note_off_c, 0, 76, 59
1, 926811, Note_off_c, 0, 67, 55
1, 926814, Note_off_c, 0, 64, 64
1, 926818, Note_off_c, 0, 79, 57
1, 926879, Note_on_c, 0, 62, 81
1, 926881, Note_on_c, 0, 66, 87
1, 926885, Note_on_c, 0, 78, 88
1, 926885, Note_on_c, 0, 67, 78
1, 926886, Note_on_c, 0, 79, 93
1, 926887, Note_on_c, 0, 74, 94
1, 926929, Note_off_c, 0, 74, 64
1, 926932, Note_off_c, 0, 67, 53
1, 926948, Note_off_c, 0, 79, 59
1, 926956, Note_off_c, 0, 66, 61
1, 926958, Note_off_c, 0, 62, 57
1, 926960, Note_off_c, 0, 78, 62
1, 927016, Note_on_c, 0, 64, 89
1, 927020, Note_on_c, 0, 61, 88
1, 927020, Note_on_c, 0, 67, 89
1, 927020, Note_on_c, 0, 79, 100
1, 927027, Note_on_c, 0, 75, 55
1, 927031, Note_on_c, 0, 73, 92
1, 927032, Note_on_c, 0, 76, 84
1, 927058, Note_on_c, 0, 66, 17
1, 927058, Note_on_c, 0, 78, 45
1, 927061, Note_off_c, 0, 75, 48
1, 927064, Note_off_c, 0, 67, 60
1, 927066, Note_off_c, 0, 64, 62
1, 927078, Note_off_c, 0, 61, 61
1, 927080, Note_off_c, 0, 76, 58
1, 927080, Note_off_c, 0, 78, 62
1, 927084, Note_off_c, 0, 79, 59
1, 927088, Note_off_c, 0, 73, 58
1, 927095, Note_off_c, 0, 66, 52
1, 927146, Note_on_c, 0, 63, 88
1, 927153, Note_on_c, 0, 79, 98
1, 927156, Note_on_c, 0, 59, 80
1, 927159, Note_on_c, 0, 71, 87
1, 927159, Note_on_c, 0, 67, 82
1, 927160, Note_on_c, 0, 74, 90
1, 927181, Note_off_c, 0, 67, 68
1, 927183, Note_off_c, 0, 59, 60
1, 927198, Note_off_c, 0, 63, 63
1, 927198, Note_off_c, 0, 79, 60
1, 927203, Note_off_c, 0, 71, 62
1, 927215, Note_off_c, 0, 74, 62
1, 927215, Poly_aftertouch_c, 0, 78, 127
1, 927254, Poly_aftertouch_c, 0, 78, 0
1, 927303, Note_on_c, 0, 78, 97
1, 927304, Note_on_c, 0, 66, 97
1, 927307, Note_on_c, 0, 70, 91
1, 927309, Note_on_c, 0, 58, 84
1, 927318, Note_on_c, 0, 73, 86
1, 927320, Note_on_c, 0, 61, 73
1, 927353, Control_c, 0, 64, 99
1, 927376, Control_c, 0, 64, 69
1, 927391, Control_c, 0, 64, 0
1, 927405, Control_c, 0, 64, 27
1, 927420, Control_c, 0, 64, 56
1, 927435, Control_c, 0, 64, 64
1, 927443, Note_on_c, 0, 64, 90
1, 927449, Note_off_c, 0, 66, 63
1, 927450, Control_c, 0, 64, 69
1, 927452, Note_on_c, 0, 76, 93
1, 927455, Note_off_c, 0, 58, 63
1, 927465, Control_c, 0, 64, 76
1, 927474, Note_off_c, 0, 61, 64
1, 927476, Note_off_c, 0, 64, 69
1, 927479, Control_c, 0, 64, 92
1, 927481, Note_off_c, 0, 70, 61
1, 927494, Control_c, 0, 64, 127
1, 927576, Note_off_c, 0, 78, 58
1, 927654, Note_on_c, 0, 71, 81
1, 927654, Note_on_c, 0, 74, 93
1, 927662, Note_on_c, 0, 61, 99
1, 927666, Note_on_c, 0, 49, 93
1, 927687, Control_c, 0, 64, 88
1, 927691, Note_off_c, 0, 76, 55
1, 927702, Control_c, 0, 64, 64
1, 927717, Control_c, 0, 64, 61
1, 927731, Control_c, 0, 64, 75
1, 927746, Control_c, 0, 64, 121
1, 927761, Control_c, 0, 64, 127
1, 927774, Note_off_c, 0, 73, 26
1, 927791, Note_off_c, 0, 49, 66
1, 927815, Note_off_c, 0, 61, 63
1, 927816, Note_off_c, 0, 74, 66
1, 927902, Note_on_c, 0, 74, 95
1, 927905, Note_on_c, 0, 62, 79
1, 927968, Note_off_c, 0, 74, 64
1, 927990, Note_off_c, 0, 62, 61
1, 928056, Note_on_c, 0, 74, 97
1, 928063, Note_on_c, 0, 62, 69
1, 928081, Note_off_c, 0, 71, 62
1, 928152, Note_off_c, 0, 74, 66
1, 928168, Note_off_c, 0, 62, 60
1, 928199, Note_on_c, 0, 77, 102
1, 928204, Poly_aftertouch_c, 0, 62, 0
1, 928212, Note_on_c, 0, 65, 78
1, 928212, Note_on_c, 0, 62, 58
1, 928224, Note_on_c, 0, 74, 80
1, 928247, Note_off_c, 0, 74, 67
1, 928281, Note_off_c, 0, 65, 58
1, 928290, Note_off_c, 0, 62, 60
1, 928304, Note_off_c, 0, 77, 63
1, 928367, Note_on_c, 0, 77, 105
1, 928370, Note_on_c, 0, 62, 72
1, 928374, Note_on_c, 0, 65, 79
1, 928378, Note_on_c, 0, 74, 92
1, 928492, Note_on_c, 0, 61, 80
1, 928503, Note_on_c, 0, 73, 81
1, 928537, Note_off_c, 0, 62, 49
1, 928568, Note_off_c, 0, 73, 61
1, 928577, Note_off_c, 0, 61, 60
1, 928593, Note_off_c, 0, 74, 62
1, 928606, Note_off_c, 0, 77, 62
1, 928633, Note_on_c, 0, 61, 76
1, 928647, Note_on_c, 0, 73, 89
1, 928671, Note_off_c, 0, 65, 62
1, 928731, Note_off_c, 0, 61, 60
1, 928741, Note_off_c, 0, 73, 61
1, 928745, Poly_aftertouch_c, 0, 62, 127
1, 928758, Poly_aftertouch_c, 0, 62, 0
1, 928775, Note_on_c, 0, 62, 49
1, 928784, Note_on_c, 0, 66, 88
1, 928784, Note_on_c, 0, 78, 97
1, 928786, Note_on_c, 0, 59, 80
1, 928789, Note_on_c, 0, 74, 98
1, 928794, Note_on_c, 0, 71, 92
1, 928839, Note_off_c, 0, 71, 61
1, 928853, Note_off_c, 0, 66, 58
1, 928879, Note_off_c, 0, 62, 61
1, 928881, Note_off_c, 0, 74, 62
1, 928888, Note_off_c, 0, 59, 57
1, 928888, Note_off_c, 0, 78, 61
1, 928935, Note_on_c, 0, 78, 94
1, 928936, Note_on_c, 0, 59, 73
1, 928937, Note_on_c, 0, 66, 97
1, 928941, Note_on_c, 0, 62, 73
1, 928944, Note_on_c, 0, 71, 88
1, 928944, Note_on_c, 0, 74, 96
1, 928998, Note_off_c, 0, 71, 62
1, 929049, Note_off_c, 0, 66, 0
1, 929054, Note_off_c, 0, 74, 58
1, 929076, Note_on_c, 0, 57, 80
1, 929077, Note_on_c, 0, 61, 84
1, 929085, Note_off_c, 0, 62, 0
1, 929086, Note_on_c, 0, 69, 86
1, 929087, Note_on_c, 0, 73, 88
1, 929087, Poly_aftertouch_c, 0, 66, 127
1, 929103, Note_off_c, 0, 59, 31
1, 929139, Note_off_c, 0, 57, 58
1, 929146, Poly_aftertouch_c, 0, 66, 0
1, 929155, Note_off_c, 0, 69, 59
1, 929158, Poly_aftertouch_c, 0, 62, 0
1, 929167, Note_off_c, 0, 73, 63
1, 929178, Note_off_c, 0, 61, 59
1, 929213, Note_on_c, 0, 61, 69
1, 929222, Note_on_c, 0, 66, 88
1, 929223, Note_on_c, 0, 57, 86
1, 929228, Note_on_c, 0, 69, 87
1, 929229, Note_on_c, 0, 73, 96
1, 929243, Note_off_c, 0, 78, 64
1, 929272, Note_off_c, 0, 69, 63
1, 929285, Note_off_c, 0, 57, 58
1, 929298, Note_off_c, 0, 61, 61
1, 929306, Note_off_c, 0, 66, 49
1, 929324, Note_off_c, 0, 73, 61
1, 929371, Note_on_c, 0, 65, 96
1, 929371, Note_on_c, 0, 80, 93
1, 929374, Note_on_c, 0, 56, 95
1, 929374, Note_on_c, 0, 61, 91
1, 929374, Note_on_c, 0, 73, 92
1, 929377, Note_on_c, 0, 68, 95
1, 929380, Note_on_c, 0, 77, 90
1, 929392, Control_c, 0, 64, 98
1, 929407, Control_c, 0, 64, 70
1, 929422, Control_c, 0, 64, 58
1, 929437, Control_c, 0, 64, 65
1, 929446, Note_off_c, 0, 68, 59
1, 929449, Note_off_c, 0, 65, 60
1, 929452, Control_c, 0, 64, 72
1, 929463, Note_off_c, 0, 56, 62
1, 929466, Note_off_c, 0, 80, 59
1, 929467, Control_c, 0, 64, 88
1, 929467, Note_off_c, 0, 61, 60
1, 929475, Note_off_c, 0, 77, 58
1, 929478, Note_off_c, 0, 73, 61
1, 929482, Control_c, 0, 64, 127
1, 929526, Note_on_c, 0, 80, 96
1, 929526, Note_on_c, 0, 73, 91
1, 929528, Note_on_c, 0, 68, 100
1, 929529, Note_on_c, 0, 65, 98
1, 929529, Note_on_c, 0, 56, 94
1, 929532, Note_on_c, 0, 61, 92
1, 929532, Note_on_c, 0, 77, 83
1, 929584, Note_off_c, 0, 65, 65
1, 929587, Note_off_c, 0, 68, 59
1, 929598, Note_off_c, 0, 77, 61
1, 929599, Note_off_c, 0, 56, 61
1, 929608, Note_off_c, 0, 80, 61
1, 929620, Note_off_c, 0, 73, 63
1, 929623, Note_off_c, 0, 61, 60
1, 929690, Note_on_c, 0, 69, 100
1, 929690, Note_on_c, 0, 78, 93
1, 929690, Note_on_c, 0, 81, 102
1, 929693, Note_on_c, 0, 66, 98
1, 929695, Note_on_c, 0, 73, 99
1, 929696, Note_on_c, 0, 54, 93
1, 929759, Note_off_c, 0, 66, 58
1, 929764, Note_off_c, 0, 69, 58
1, 929764, Note_off_c, 0, 54, 63
1, 929768, Note_off_c, 0, 81, 57
1, 929783, Note_off_c, 0, 73, 61
1, 929786, Note_off_c, 0, 78, 60
1, 929815, Control_c, 0, 64, 100
1, 929830, Control_c, 0, 64, 68
1, 929845, Control_c, 0, 64, 42
1, 929847, Note_on_c, 0, 69, 100
1, 929847, Note_on_c, 0, 81, 100
1, 929848, Note_on_c, 0, 66, 101
1, 929848, Note_on_c, 0, 73, 95
1, 929851, Note_on_c, 0, 54, 98
1, 929851, Note_on_c, 0, 78, 88
1, 929860, Control_c, 0, 64, 68
1, 929874, Control_c, 0, 64, 87
1, 929889, Control_c, 0, 64, 127
1, 929912, Note_off_c, 0, 66, 62
1, 929914, Note_off_c, 0, 69, 63
1, 929917, Note_off_c, 0, 54, 61
1, 929922, Note_off_c, 0, 73, 62
1, 929929, Note_off_c, 0, 81, 62
1, 929932, Note_off_c, 0, 78, 62
1, 930001, Note_on_c, 0, 83, 100
1, 930003, Note_on_c, 0, 64, 101
1, 930004, Note_on_c, 0, 71, 106
1, 930004, Note_on_c, 0, 80, 96
1, 930005, Note_on_c, 0, 76, 97
1, 930006, Note_on_c, 0, 52, 95
1, 930036, Note_on_c, 0, 54, 46
1, 930046, Note_off_c, 0, 64, 67
1, 930054, Note_off_c, 0, 54, 71
1, 930054, Note_off_c, 0, 52, 61
1, 930069, Note_off_c, 0, 71, 57
1, 930084, Note_off_c, 0, 83, 59
1, 930089, Note_off_c, 0, 76, 55
1, 930090, Note_off_c, 0, 80, 58
1, 930155, Note_on_c, 0, 64, 98
1, 930155, Note_on_c, 0, 71, 102
1, 930158, Note_on_c, 0, 83, 98
1, 930161, Note_on_c, 0, 52, 88
1, 930161, Note_on_c, 0, 76, 90
1, 930162, Note_on_c, 0, 80, 92
1, 930193, Note_off_c, 0, 64, 69
1, 930200, Note_off_c, 0, 71, 64
1, 930203, Note_off_c, 0, 76, 56
1, 930209, Note_off_c, 0, 52, 64
1, 930217, Note_off_c, 0, 83, 66
1, 930236, Note_off_c, 0, 80, 63
1, 930248, Poly_aftertouch_c, 0, 50, 127
1, 930274, Poly_aftertouch_c, 0, 50, 0
1, 930319, Note_on_c, 0, 85, 102
1, 930322, Note_on_c, 0, 57, 100
1, 930323, Note_on_c, 0, 73, 101
1, 930323, Note_on_c, 0, 80, 86
1, 930326, Note_on_c, 0, 45, 99
1, 930339, Note_off_c, 0, 80, 63
1, 930345, Note_on_c, 0, 81, 68
1, 930370, Control_c, 0, 64, 77
1, 930385, Control_c, 0, 64, 0
1, 930404, Note_off_c, 0, 81, 0
1, 930409, Note_off_c, 0, 73, 59
1, 930410, Note_off_c, 0, 57, 37
1, 930415, Control_c, 0, 64, 53
1, 930418, Note_off_c, 0, 85, 60
1, 930418, Note_off_c, 0, 45, 62
1, 930429, Note_on_c, 0, 81, 10
1, 930429, Control_c, 0, 64, 68
1, 930444, Control_c, 0, 64, 81
1, 930453, Note_off_c, 0, 81, 44
1, 930459, Control_c, 0, 64, 110
1, 930474, Control_c, 0, 64, 127
1, 930493, Note_on_c, 0, 45, 93
1, 930493, Note_on_c, 0, 85, 104
1, 930494, Note_on_c, 0, 73, 107
1, 930495, Note_on_c, 0, 57, 99
1, 930495, Note_on_c, 0, 81, 69
1, 930545, Note_off_c, 0, 81, 63
1, 930548, Note_off_c, 0, 45, 65
1, 930548, Note_off_c, 0, 73, 60
1, 930551, Note_off_c, 0, 57, 63
1, 930590, Note_off_c, 0, 85, 64
1, 930679, Note_on_c, 0, 58, 100
1, 930683, Note_on_c, 0, 46, 94
1, 930685, Note_on_c, 0, 90, 108
1, 930686, Note_on_c, 0, 78, 104
1, 930691, Note_on_c, 0, 85, 95
1, 930697, Control_c, 0, 64, 78
1, 930699, Note_on_c, 0, 59, 72
1, 930709, Note_on_c, 0, 49, 64
1, 930712, Control_c, 0, 64, 0
1, 930715, Note_on_c, 0, 87, 49
1, 930718, Note_off_c, 0, 59, 64
1, 930733, Note_on_c, 0, 60, 19
1, 930734, Note_off_c, 0, 60, 127
1, 930742, Note_off_c, 0, 87, 59
1, 930756, Note_off_c, 0, 49, 0
1, 930756, Note_on_c, 0, 49, 43
1, 930771, Control_c, 0, 64, 50
1, 930786, Control_c, 0, 64, 82
1, 930787, Note_on_c, 0, 54, 93
1, 930792, Note_off_c, 0, 58, 60
1, 930801, Control_c, 0, 64, 127
1, 930818, Note_off_c, 0, 46, 61
1, 930826, Note_off_c, 0, 49, 63
1, 930848, Note_off_c, 0, 78, 49
1, 930850, Note_off_c, 0, 54, 67
1, 930891, Note_off_c, 0, 90, 55
1, 930906, Note_off_c, 0, 85, 59
1, 931005, Note_on_c, 0, 90, 109
1, 931009, Note_on_c, 0, 66, 108
1, 931009, Note_on_c, 0, 85, 109
1, 931010, Note_on_c, 0, 78, 107
1, 931020, Note_off_c, 0, 66, 80
1, 931034, Note_on_c, 0, 87, 65
1, 931064, Note_on_c, 0, 86, 20
1, 931106, Note_off_c, 0, 86, 47
1, 931160, Note_off_c, 0, 87, 31
1, 931389, Note_off_c, 0, 78, 54
1, 931392, Note_off_c, 0, 90, 57
1, 931410, Note_off_c, 0, 85, 56
1, 931546, Note_on_c, 0, 90, 108
1, 931547, Note_on_c, 0, 78, 101
1, 931547, Note_on_c, 0, 85, 103
1, 931554, Note_on_c, 0, 58, 92
1, 931559, Note_on_c, 0, 46, 85
1, 931571, Note_off_c, 0, 58, 73
1, 931577, Note_off_c, 0, 78, 67
1, 931582, Note_off_c, 0, 46, 66
1, 931582, Note_off_c, 0, 85, 64
1, 931595, Note_off_c, 0, 90, 68
1, 931687, Poly_aftertouch_c, 0, 46, 127
1, 931723, Poly_aftertouch_c, 0, 46, 0
1, 931777, Note_on_c, 0, 86, 96
1, 931780, Note_on_c, 0, 74, 102
1, 931780, Note_on_c, 0, 59, 94
1, 931781, Note_on_c, 0, 83, 99
1, 931784, Note_on_c, 0, 78, 89
1, 931787, Note_on_c, 0, 47, 76
1, 931805, Note_off_c, 0, 78, 64
1, 931812, Note_off_c, 0, 74, 65
1, 931819, Note_off_c, 0, 59, 65
1, 931819, Note_off_c, 0, 47, 69
1, 931825, Note_off_c, 0, 83, 58
1, 931843, Note_off_c, 0, 86, 59
1, 931957, Control_c, 0, 64, 77
1, 931969, Note_on_c, 0, 86, 94
1, 931972, Control_c, 0, 64, 0
1, 931973, Note_on_c, 0, 74, 96
1, 931975, Note_on_c, 0, 83, 86
1, 931976, Note_on_c, 0, 47, 81
1, 931976, Note_on_c, 0, 78, 95
1, 931977, Note_on_c, 0, 59, 84
1, 932002, Control_c, 0, 64, 34
1, 932017, Control_c, 0, 64, 66
1, 932025, Note_off_c, 0, 59, 64
1, 932028, Note_off_c, 0, 74, 54
1, 932032, Control_c, 0, 64, 80
1, 932045, Note_off_c, 0, 83, 58
1, 932045, Note_off_c, 0, 86, 65
1, 932046, Control_c, 0, 64, 108
1, 932058, Note_off_c, 0, 47, 58
1, 932061, Control_c, 0, 64, 127
1, 932075, Note_off_c, 0, 78, 63
1, 932133, Note_on_c, 0, 81, 92
1, 932133, Note_on_c, 0, 85, 100
1, 932134, Note_on_c, 0, 49, 82
1, 932135, Note_on_c, 0, 73, 95
1, 932138, Note_on_c, 0, 61, 82
1, 932172, Note_off_c, 0, 61, 60
1, 932178, Note_off_c, 0, 73, 59
1, 932188, Note_off_c, 0, 49, 63
1, 932209, Note_off_c, 0, 85, 61
1, 932224, Note_off_c, 0, 81, 59
1, 932261, Poly_aftertouch_c, 0, 81, 0
1, 932266, Note_on_c, 0, 81, 75
1, 932269, Note_on_c, 0, 85, 89
1, 932269, Note_on_c, 0, 61, 94
1, 932269, Control_c, 0, 64, 91
1, 932270, Note_on_c, 0, 73, 95
1, 932272, Note_on_c, 0, 76, 82
1, 932272, Note_on_c, 0, 49, 94
1, 932284, Control_c, 0, 64, 67
1, 932299, Control_c, 0, 64, 63
1, 932303, Note_off_c, 0, 76, 63
1, 932313, Control_c, 0, 64, 74
1, 932314, Note_off_c, 0, 73, 62
1, 932316, Note_off_c, 0, 49, 64
1, 932318, Note_off_c, 0, 61, 61
1, 932320, Note_off_c, 0, 85, 64
1, 932325, Note_off_c, 0, 81, 64
1, 932328, Control_c, 0, 64, 92
1, 932343, Control_c, 0, 64, 127
1, 932397, Note_on_c, 0, 62, 91
1, 932399, Note_on_c, 0, 83, 95
1, 932403, Note_on_c, 0, 50, 82
1, 932405, Note_on_c, 0, 78, 90
1, 932406, Note_on_c, 0, 71, 91
1, 932440, Note_off_c, 0, 62, 65
1, 932445, Note_off_c, 0, 50, 64
1, 932447, Note_off_c, 0, 71, 62
1, 932447, Note_off_c, 0, 83, 66
1, 932454, Note_off_c, 0, 78, 61
1, 932477, Control_c, 0, 64, 119
1, 932492, Control_c, 0, 64, 78
1, 932507, Control_c, 0, 64, 0
1, 932528, Note_on_c, 0, 83, 99
1, 932530, Note_on_c, 0, 62, 91
1, 932534, Note_on_c, 0, 50, 85
1, 932536, Note_on_c, 0, 71, 90
1, 932537, Note_on_c, 0, 78, 90
1, 932551, Control_c, 0, 64, 50
1, 932566, Control_c, 0, 64, 69
1, 932576, Note_off_c, 0, 62, 64
1, 932579, Note_off_c, 0, 71, 63
1, 932581, Control_c, 0, 64, 87
1, 932584, Note_off_c, 0, 50, 64
1, 932595, Control_c, 0, 64, 127
1, 932598, Note_off_c, 0, 83, 63
1, 932602, Note_off_c, 0, 78, 61
1, 932671, Note_on_c, 0, 81, 98
1, 932675, Note_on_c, 0, 51, 91
1, 932676, Note_on_c, 0, 63, 93
1, 932677, Note_on_c, 0, 69, 90
1, 932698, Note_off_c, 0, 63, 66
1, 932707, Note_off_c, 0, 69, 62
1, 932708, Note_off_c, 0, 51, 63
1, 932716, Note_off_c, 0, 81, 64
1, 932719, Note_on_c, 0, 83, 21
1, 932753, Note_off_c, 0, 83, 53
1, 932800, Note_on_c, 0, 81, 103
1, 932803, Note_on_c, 0, 63, 84
1, 932803, Note_on_c, 0, 69, 93
1, 932805, Note_on_c, 0, 51, 88
1, 932808, Note_on_c, 0, 78, 87
1, 932826, Note_off_c, 0, 63, 63
1, 932832, Note_off_c, 0, 69, 62
1, 932836, Note_off_c, 0, 81, 67
1, 932841, Note_off_c, 0, 51, 58
1, 932853, Note_off_c, 0, 78, 60
1, 932895, Poly_aftertouch_c, 0, 80, 0
1, 932933, Note_on_c, 0, 80, 88
1, 932933, Note_on_c, 0, 64, 92
1, 932937, Note_on_c, 0, 68, 96
1, 932938, Note_on_c, 0, 52, 86
1, 932939, Note_on_c, 0, 76, 89
1, 932974, Note_off_c, 0, 64, 62
1, 932976, Note_off_c, 0, 52, 60
1, 932982, Note_off_c, 0, 68, 59
1, 932989, Control_c, 0, 64, 90
1, 933003, Note_off_c, 0, 80, 61
1, 933004, Control_c, 0, 64, 65
1, 933011, Note_off_c, 0, 76, 59
1, 933018, Control_c, 0, 64, 0
1, 933075, Note_on_c, 0, 52, 92
1, 933076, Note_on_c, 0, 64, 93
1, 933080, Note_on_c, 0, 80, 95
1, 933082, Note_on_c, 0, 68, 94
1, 933087, Note_on_c, 0, 76, 81
1, 933107, Control_c, 0, 64, 48
1, 933122, Control_c, 0, 64, 71
1, 933136, Control_c, 0, 64, 91
1, 933151, Control_c, 0, 64, 127
1, 933169, Note_off_c, 0, 68, 60
1, 933211, Note_on_c, 0, 78, 76
1, 933217, Note_on_c, 0, 74, 82
1, 933237, Note_off_c, 0, 76, 37
1, 933246, Note_off_c, 0, 80, 61
1, 933251, Note_off_c, 0, 64, 63
1, 933255, Note_off_c, 0, 52, 60
1, 933271, Note_off_c, 0, 74, 62
1, 933274, Note_off_c, 0, 78, 62
1, 933342, Note_on_c, 0, 80, 95
1, 933345, Note_on_c, 0, 73, 97
1, 933348, Note_on_c, 0, 64, 83
1, 933348, Note_on_c, 0, 76, 80
1, 933351, Note_on_c, 0, 52, 78
1, 933384, Note_off_c, 0, 52, 64
1, 933390, Note_off_c, 0, 76, 54
1, 933391, Note_off_c, 0, 64, 61
1, 933395, Note_off_c, 0, 73, 62
1, 933407, Note_off_c, 0, 80, 61
1, 933474, Note_on_c, 0, 80, 95
1, 933480, Note_on_c, 0, 74, 90
1, 933481, Note_on_c, 0, 65, 87
1, 933482, Note_on_c, 0, 71, 86
1, 933484, Note_on_c, 0, 53, 83
1, 933503, Note_off_c, 0, 71, 68
1, 933514, Control_c, 0, 64, 110
1, 933515, Note_off_c, 0, 53, 67
1, 933519, Note_off_c, 0, 74, 60
1, 933521, Note_off_c, 0, 65, 63
1, 933521, Note_off_c, 0, 80, 64
1, 933529, Control_c, 0, 64, 76
1, 933543, Control_c, 0, 64, 0
1, 933607, Note_on_c, 0, 80, 97
1, 933610, Note_on_c, 0, 65, 91
1, 933610, Note_on_c, 0, 53, 87
1, 933611, Note_on_c, 0, 71, 89
1, 933617, Control_c, 0, 64, 55
1, 933619, Note_on_c, 0, 74, 79
1, 933632, Control_c, 0, 64, 75
1, 933641, Note_off_c, 0, 74, 72
1, 933647, Control_c, 0, 64, 127
1, 933652, Note_off_c, 0, 65, 65
1, 933661, Note_off_c, 0, 71, 65
1, 933665, Note_off_c, 0, 53, 64
1, 933681, Note_off_c, 0, 80, 59
1, 933737, Note_on_c, 0, 66, 87
1, 933737, Note_on_c, 0, 81, 93
1, 933740, Note_on_c, 0, 73, 93
1, 933743, Note_on_c, 0, 54, 85
1, 933744, Note_on_c, 0, 69, 83
1, 933761, Note_off_c, 0, 66, 63
1, 933765, Note_off_c, 0, 69, 70
1, 933773, Note_off_c, 0, 54, 66
1, 933780, Note_off_c, 0, 73, 64
1, 933787, Note_off_c, 0, 81, 63
1, 933858, Note_on_c, 0, 66, 89
1, 933862, Note_on_c, 0, 54, 87
1, 933862, Note_on_c, 0, 69, 91
1, 933862, Note_on_c, 0, 81, 101
1, 933865, Note_on_c, 0, 73, 94
1, 933884, Note_off_c, 0, 66, 59
1, 933887, Note_off_c, 0, 73, 68
1, 933888, Note_off_c, 0, 69, 65
1, 933898, Note_off_c, 0, 54, 65
1, 933902, Note_off_c, 0, 81, 65
1, 933979, Note_on_c, 0, 64, 95
1, 933980, Note_on_c, 0, 83, 100
1, 933983, Note_on_c, 0, 71, 100
1, 933983, Note_on_c, 0, 76, 97
1, 933985, Note_on_c, 0, 52, 85
1, 933987, Note_on_c, 0, 80, 85
1, 933989, Control_c, 0, 64, 82
1, 934004, Control_c, 0, 64, 36
1, 934008, Note_off_c, 0, 71, 66
1, 934018, Control_c, 0, 64, 0
1, 934020, Note_off_c, 0, 80, 56
1, 934021, Note_off_c, 0, 64, 66
1, 934022, Note_off_c, 0, 52, 60
1, 934024, Note_off_c, 0, 76, 63
1, 934028, Note_off_c, 0, 83, 60
1, 934078, Control_c, 0, 64, 62
1, 934092, Control_c, 0, 64, 78
1, 934102, Note_on_c, 0, 64, 95
1, 934103, Note_on_c, 0, 71, 96
1, 934104, Note_on_c, 0, 83, 97
1, 934106, Note_on_c, 0, 52, 94
1, 934107, Control_c, 0, 64, 121
1, 934116, Note_on_c, 0, 80, 88
1, 934120, Note_on_c, 0, 76, 81
1, 934129, Control_c, 0, 64, 127
1, 934141, Note_off_c, 0, 64, 63
1, 934141, Note_off_c, 0, 76, 70
1, 934144, Note_off_c, 0, 71, 61
1, 934149, Note_off_c, 0, 52, 61
1, 934156, Note_off_c, 0, 83, 66
1, 934160, Note_off_c, 0, 80, 64
1, 934234, Note_on_c, 0, 85, 102
1, 934236, Note_on_c, 0, 73, 95
1, 934237, Note_on_c, 0, 57, 95
1, 934241, Note_on_c, 0, 45, 91
1, 934245, Note_on_c, 0, 81, 71
1, 934259, Note_off_c, 0, 57, 69
1, 934266, Note_off_c, 0, 45, 69
1, 934268, Note_off_c, 0, 81, 69
1, 934272, Note_off_c, 0, 73, 57
1, 934281, Note_off_c, 0, 85, 63
1, 934351, Note_on_c, 0, 57, 92
1, 934353, Note_on_c, 0, 45, 82
1, 934358, Note_on_c, 0, 85, 104
1, 934358, Note_on_c, 0, 73, 104
1, 934364, Note_on_c, 0, 81, 75
1, 934382, Note_off_c, 0, 81, 72
1, 934383, Note_off_c, 0, 45, 66
1, 934383, Note_off_c, 0, 57, 67
1, 934394, Note_off_c, 0, 73, 62
1, 934418, Note_off_c, 0, 85, 65
1, 934478, Note_on_c, 0, 58, 99
1, 934485, Note_on_c, 0, 46, 85
1, 934487, Note_on_c, 0, 78, 101
1, 934488, Note_on_c, 0, 90, 107
1, 934498, Note_on_c, 0, 85, 89
1, 934501, Control_c, 0, 64, 73
1, 934515, Control_c, 0, 64, 0
1, 934519, Note_on_c, 0, 87, 46
1, 934520, Note_off_c, 0, 87, 127
1, 934538, Note_off_c, 0, 58, 0
1, 934559, Note_on_c, 0, 58, 46
1, 934561, Note_on_c, 0, 49, 88
1, 934572, Note_on_c, 0, 54, 90
1, 934575, Control_c, 0, 64, 71
1, 934576, Note_off_c, 0, 58, 68
1, 934589, Control_c, 0, 64, 113
1, 934594, Note_off_c, 0, 46, 63
1, 934604, Control_c, 0, 64, 127
1, 934618, Note_off_c, 0, 78, 55
1, 934618, Note_off_c, 0, 49, 62
1, 934642, Note_off_c, 0, 54, 66
1, 934653, Note_off_c, 0, 85, 56
1, 934655, Note_off_c, 0, 90, 60
1, 934731, Note_on_c, 0, 66, 108
1, 934739, Note_on_c, 0, 90, 107
1, 934742, Note_on_c, 0, 78, 102
1, 934744, Note_on_c, 0, 85, 102
1, 934749, Note_off_c, 0, 66, 70
1, 934773, Note_on_c, 0, 87, 49
1, 934804, Note_off_c, 0, 87, 51
1, 934976, Note_off_c, 0, 78, 57
1, 934987, Note_off_c, 0, 90, 60
1, 935006, Note_off_c, 0, 85, 59
1, 935068, Note_on_c, 0, 78, 100
1, 935068, Note_on_c, 0, 90, 104
1, 935069, Note_on_c, 0, 58, 95
1, 935071, Note_on_c, 0, 85, 97
1, 935072, Note_on_c, 0, 46, 95
1, 935095, Note_off_c, 0, 58, 62
1, 935099, Note_off_c, 0, 46, 66
1, 935106, Note_off_c, 0, 78, 65
1, 935109, Note_off_c, 0, 85, 66
1, 935114, Note_off_c, 0, 90, 67
1, 935178, Poly_aftertouch_c, 0, 56, 0
1, 935247, Control_c, 0, 64, 108
1, 935261, Note_on_c, 0, 59, 92
1, 935262, Control_c, 0, 64, 68
1, 935267, Note_on_c, 0, 47, 77
1, 935267, Note_on_c, 0, 74, 91
1, 935272, Note_on_c, 0, 86, 79
1, 935277, Control_c, 0, 64, 0
1, 935279, Note_off_c, 0, 59, 70
1, 935287, Note_off_c, 0, 74, 72
1, 935291, Note_off_c, 0, 47, 68
1, 935292, Note_off_c, 0, 86, 73
1, 935294, Note_on_c, 0, 88, 50
1, 935295, Note_off_c, 0, 88, 127
1, 935303, Note_on_c, 0, 83, 33
1, 935309, Note_on_c, 0, 84, 7
1, 935312, Note_off_c, 0, 83, 45
1, 935323, Control_c, 0, 64, 56
1, 935335, Note_on_c, 0, 47, 90
1, 935337, Note_on_c, 0, 59, 94
1, 935337, Note_on_c, 0, 86, 95
1, 935337, Control_c, 0, 64, 74
1, 935341, Note_on_c, 0, 74, 94
1, 935351, Note_on_c, 0, 83, 62
1, 935352, Control_c, 0, 64, 118
1, 935358, Note_off_c, 0, 84, 29
1, 935367, Control_c, 0, 64, 127
1, 935372, Note_off_c, 0, 59, 67
1, 935374, Note_off_c, 0, 47, 67
1, 935377, Note_off_c, 0, 83, 66
1, 935378, Note_off_c, 0, 74, 69
1, 935382, Note_off_c, 0, 86, 67
1, 935462, Note_on_c, 0, 61, 98
1, 935468, Note_on_c, 0, 49, 89
1, 935477, Note_on_c, 0, 73, 96
1, 935480, Note_on_c, 0, 84, 85
1, 935494, Note_off_c, 0, 73, 72
1, 935497, Note_off_c, 0, 49, 67
1, 935497, Note_off_c, 0, 61, 65
1, 935505, Note_off_c, 0, 84, 59
1, 935586, Note_on_c, 0, 62, 95
1, 935593, Note_on_c, 0, 50, 88
1, 935601, Note_on_c, 0, 83, 96
1, 935612, Note_on_c, 0, 71, 92
1, 935613, Note_on_c, 0, 81, 87
1, 935624, Note_on_c, 0, 80, 64
1, 935625, Note_off_c, 0, 50, 72
1, 935628, Note_off_c, 0, 62, 68
1, 935629, Note_off_c, 0, 71, 72
1, 935631, Note_on_c, 0, 51, 38
1, 935636, Note_off_c, 0, 80, 43
1, 935641, Control_c, 0, 64, 82
1, 935643, Note_off_c, 0, 83, 63
1, 935644, Note_off_c, 0, 81, 64
1, 935656, Control_c, 0, 64, 36
1, 935666, Note_off_c, 0, 51, 56
1, 935670, Control_c, 0, 64, 0
1, 935723, Note_on_c, 0, 83, 101
1, 935724, Note_on_c, 0, 63, 92
1, 935724, Note_on_c, 0, 51, 91
1, 935727, Note_on_c, 0, 71, 92
1, 935731, Note_on_c, 0, 81, 91
1, 935736, Note_on_c, 0, 80, 43
1, 935741, Note_off_c, 0, 71, 76
1, 935747, Note_off_c, 0, 81, 73
1, 935759, Note_off_c, 0, 83, 70
1, 935760, Note_off_c, 0, 80, 56
1, 935765, Note_off_c, 0, 63, 60
1, 935769, Note_off_c, 0, 51, 62
1, 935849, Control_c, 0, 64, 39
1, 935863, Control_c, 0, 64, 70
1, 935878, Control_c, 0, 64, 90
1, 935879, Note_on_c, 0, 88, 101
1, 935879, Note_on_c, 0, 64, 90
1, 935882, Note_on_c, 0, 52, 82
1, 935882, Note_on_c, 0, 76, 104
1, 935882, Note_on_c, 0, 80, 94
1, 935893, Control_c, 0, 64, 127
1, 935896, Note_off_c, 0, 88, 67
1, 935897, Note_off_c, 0, 64, 73
1, 935897, Note_off_c, 0, 76, 75
1, 935898, Note_off_c, 0, 80, 75
1, 935904, Note_off_c, 0, 52, 62
1, 935989, Poly_aftertouch_c, 0, 85, 0
1, 936122, Note_on_c, 0, 64, 84
1, 936123, Note_on_c, 0, 80, 98
1, 936126, Note_on_c, 0, 74, 93
1, 936128, Note_on_c, 0, 71, 77
1, 936130, Note_on_c, 0, 76, 82
1, 936138, Note_off_c, 0, 80, 72
1, 936144, Note_off_c, 0, 74, 73
1, 936146, Control_c, 0, 64, 97
1, 936150, Note_off_c, 0, 71, 70
1, 936150, Note_off_c, 0, 64, 64
1, 936151, Note_off_c, 0, 76, 70
1, 936160, Control_c, 0, 64, 69
1, 936175, Control_c, 0, 64, 0
1, 936186, Note_on_c, 0, 80, 93
1, 936189, Note_on_c, 0, 64, 83
1, 936189, Note_on_c, 0, 71, 81
1, 936189, Note_on_c, 0, 74, 87
1, 936197, Note_on_c, 0, 76, 80
1, 936205, Control_c, 0, 64, 37
1, 936220, Control_c, 0, 64, 69
1, 936234, Control_c, 0, 64, 87
1, 936249, Control_c, 0, 64, 127
1, 936285, Note_off_c, 0, 74, 63
1, 936320, Note_off_c, 0, 71, 59
1, 936508, Control_c, 0, 64, 107
1, 936508, Control_c, 0, 67, 8
1, 936523, Control_c, 0, 64, 76
1, 936532, Note_on_c, 0, 81, 83
1, 936537, Note_on_c, 0, 69, 69
1, 936538, Control_c, 0, 64, 0
1, 936538, Control_c, 0, 67, 8
1, 936540, Note_on_c, 0, 73, 88
1, 936540, Note_on_c, 0, 57, 67
1, 936553, Control_c, 0, 67, 9
1, 936567, Control_c, 0, 67, 9
1, 936578, Note_off_c, 0, 64, 65
1, 936581, Note_off_c, 0, 69, 64
1, 936582, Control_c, 0, 64, 67
1, 936582, Control_c, 0, 67, 11
1, 936583, Note_off_c, 0, 81, 66
1, 936588, Note_off_c, 0, 76, 65
1, 936590, Note_off_c, 0, 73, 63
1, 936594, Note_off_c, 0, 80, 53
1, 936597, Control_c, 0, 64, 80
1, 936597, Control_c, 0, 67, 14
1, 936601, Note_off_c, 0, 57, 60
1, 936612, Control_c, 0, 64, 106
1, 936612, Control_c, 0, 67, 16
1, 936627, Control_c, 0, 64, 127
1, 936627, Control_c, 0, 67, 18
1, 936642, Control_c, 0, 67, 19
1, 936657, Control_c, 0, 67, 20
1, 936671, Control_c, 0, 67, 21
1, 936686, Control_c, 0, 67, 22
1, 936701, Control_c, 0, 67, 24
1, 936716, Control_c, 0, 67, 28
1, 936731, Control_c, 0, 67, 32
1, 936746, Control_c, 0, 67, 36
1, 936760, Control_c, 0, 67, 37
1, 936775, Control_c, 0, 67, 37
1, 936790, Control_c, 0, 64, 115
1, 936804, Control_c, 0, 64, 80
1, 936804, Control_c, 0, 67, 38
1, 936819, Control_c, 0, 64, 56
1, 936819, Control_c, 0, 67, 38
1, 936834, Control_c, 0, 64, 0
1, 936834, Control_c, 0, 67, 40
1, 936841, Note_on_c, 0, 76, 74
1, 936841, Note_on_c, 0, 57, 58
1, 936847, Note_on_c, 0, 67, 66
1, 936849, Control_c, 0, 67, 43
1, 936850, Note_on_c, 0, 61, 49
1, 936864, Control_c, 0, 64, 47
1, 936864, Control_c, 0, 67, 48
1, 936879, Control_c, 0, 64, 68
1, 936879, Control_c, 0, 67, 52
1, 936884, Note_off_c, 0, 61, 60
1, 936888, Note_off_c, 0, 67, 59
1, 936895, Control_c, 0, 64, 81
1, 936895, Control_c, 0, 67, 55
1, 936904, Note_off_c, 0, 76, 59
1, 936909, Control_c, 0, 64, 104
1, 936909, Control_c, 0, 67, 58
1, 936924, Control_c, 0, 64, 127
1, 936924, Control_c, 0, 67, 61
1, 936939, Control_c, 0, 67, 65
1, 936949, Note_off_c, 0, 57, 0
1, 936954, Control_c, 0, 67, 69
1, 936968, Note_on_c, 0, 57, 36
1, 936969, Control_c, 0, 67, 73
1, 936976, Note_on_c, 0, 61, 59
1, 936979, Note_on_c, 0, 76, 72
1, 936983, Control_c, 0, 67, 77
1, 936993, Note_on_c, 0, 67, 63
1, 936998, Control_c, 0, 67, 79
1, 937005, Note_off_c, 0, 61, 63
1, 937013, Control_c, 0, 67, 81
1, 937022, Note_off_c, 0, 76, 52
1, 937024, Note_off_c, 0, 67, 64
1, 937028, Control_c, 0, 67, 82
1, 937043, Control_c, 0, 67, 83
1, 937057, Control_c, 0, 67, 84
1, 937072, Control_c, 0, 67, 86
1, 937083, Note_off_c, 0, 57, 0
1, 937087, Control_c, 0, 67, 88
1, 937105, Note_on_c, 0, 61, 60
1, 937108, Note_on_c, 0, 57, 34
1, 937109, Control_c, 0, 67, 90
1, 937116, Note_on_c, 0, 76, 84
1, 937123, Note_on_c, 0, 67, 61
1, 937124, Control_c, 0, 67, 94
1, 937139, Control_c, 0, 67, 97
1, 937152, Note_off_c, 0, 67, 64
1, 937154, Control_c, 0, 67, 100
1, 937165, Note_off_c, 0, 61, 62
1, 937169, Control_c, 0, 67, 101
1, 937183, Control_c, 0, 67, 102
1, 937198, Control_c, 0, 67, 103
1, 937208, Note_off_c, 0, 76, 56
1, 937238, Note_on_c, 0, 50, 67
1, 937242, Note_on_c, 0, 74, 76
1, 937249, Note_on_c, 0, 66, 71
1, 937257, Control_c, 0, 64, 84
1, 937268, Note_off_c, 0, 57, 60
1, 937268, Note_off_c, 0, 74, 65
1, 937272, Control_c, 0, 64, 64
1, 937275, Note_off_c, 0, 66, 68
1, 937287, Control_c, 0, 64, 0
1, 937287, Control_c, 0, 67, 102
1, 937296, Note_off_c, 0, 50, 59
1, 937302, Control_c, 0, 67, 102
1, 937316, Control_c, 0, 67, 101
1, 937331, Control_c, 0, 67, 101
1, 937363, Note_on_c, 0, 74, 86
1, 937378, Note_on_c, 0, 55, 55
1, 937379, Note_on_c, 0, 64, 63
1, 937380, Note_on_c, 0, 73, 74
1, 937388, Note_on_c, 0, 59, 45
1, 937406, Note_off_c, 0, 55, 64
1, 937407, Note_off_c, 0, 64, 66
1, 937407, Note_off_c, 0, 74, 61
1, 937408, Note_off_c, 0, 73, 62
1, 937416, Note_off_c, 0, 59, 55
1, 937479, Control_c, 0, 67, 101
1, 937492, Note_on_c, 0, 59, 58
1, 937494, Control_c, 0, 67, 102
1, 937497, Note_on_c, 0, 55, 55
1, 937497, Note_on_c, 0, 64, 60
1, 937498, Note_on_c, 0, 73, 74
1, 937503, Note_on_c, 0, 74, 74
1, 937509, Control_c, 0, 67, 103
1, 937524, Control_c, 0, 67, 104
1, 937524, Note_off_c, 0, 59, 62
1, 937524, Note_off_c, 0, 73, 64
1, 937526, Note_off_c, 0, 64, 66
1, 937527, Note_off_c, 0, 74, 71
1, 937529, Note_off_c, 0, 55, 64
1, 937539, Control_c, 0, 67, 106
1, 937554, Control_c, 0, 67, 110
1, 937569, Control_c, 0, 67, 113
1, 937583, Control_c, 0, 67, 116
1, 937598, Control_c, 0, 67, 119
1, 937613, Control_c, 0, 64, 60
1, 937613, Control_c, 0, 67, 122
1, 937623, Note_on_c, 0, 74, 66
1, 937627, Note_on_c, 0, 55, 55
1, 937627, Control_c, 0, 64, 70
1, 937627, Control_c, 0, 67, 125
1, 937628, Note_on_c, 0, 59, 55
1, 937631, Note_on_c, 0, 73, 70
1, 937642, Control_c, 0, 64, 83
1, 937642, Control_c, 0, 67, 127
1, 937643, Note_on_c, 0, 64, 41
1, 937657, Control_c, 0, 64, 102
1, 937672, Control_c, 0, 64, 127
1, 937730, Note_off_c, 0, 59, 58
1, 937745, Note_on_c, 0, 58, 68
1, 937747, Control_c, 0, 67, 127
1, 937750, Note_off_c, 0, 74, 57
1, 937757, Note_off_c, 0, 73, 63
1, 937757, Note_off_c, 0, 55, 61
1, 937758, Note_on_c, 0, 66, 72
1, 937762, Control_c, 0, 67, 125
1, 937766, Note_on_c, 0, 54, 62
1, 937777, Note_off_c, 0, 58, 63
1, 937777, Control_c, 0, 67, 124
1, 937780, Note_off_c, 0, 64, 53
1, 937785, Note_off_c, 0, 66, 65
1, 937792, Control_c, 0, 67, 123
1, 937798, Note_off_c, 0, 54, 64
1, 937806, Control_c, 0, 67, 122
1, 937821, Control_c, 0, 64, 104
1, 937836, Control_c, 0, 64, 75
1, 937851, Control_c, 0, 64, 0
1, 937894, Note_on_c, 0, 54, 62
1, 937895, Note_on_c, 0, 58, 66
1, 937896, Note_on_c, 0, 66, 70
1, 937898, Note_on_c, 0, 64, 62
1, 937903, Control_c, 0, 67, 123
1, 937918, Control_c, 0, 67, 123
1, 937928, Note_off_c, 0, 58, 64
1, 937932, Control_c, 0, 64, 53
1, 937932, Control_c, 0, 67, 124
1, 937947, Control_c, 0, 64, 66
1, 937947, Control_c, 0, 67, 125
1, 937962, Control_c, 0, 64, 76
1, 937962, Control_c, 0, 67, 125
1, 937977, Control_c, 0, 64, 90
1, 937977, Control_c, 0, 67, 126
1, 937992, Control_c, 0, 64, 111
1, 937992, Control_c, 0, 67, 126
1, 937997, Note_off_c, 0, 64, 60
1, 938006, Control_c, 0, 64, 127
1, 938006, Control_c, 0, 67, 127
1, 938009, Note_off_c, 0, 66, 58
1, 938016, Note_on_c, 0, 62, 68
1, 938016, Note_on_c, 0, 71, 71
1, 938021, Control_c, 0, 67, 127
1, 938025, Note_on_c, 0, 47, 58
1, 938029, Note_on_c, 0, 59, 54
1, 938040, Note_off_c, 0, 54, 34
1, 938043, Note_off_c, 0, 71, 65
1, 938046, Note_off_c, 0, 62, 62
1, 938055, Note_off_c, 0, 47, 66
1, 938055, Note_off_c, 0, 59, 63
1, 938080, Control_c, 0, 64, 107
1, 938095, Control_c, 0, 64, 85
1, 938110, Control_c, 0, 64, 65
1, 938125, Control_c, 0, 64, 0
1, 938150, Note_on_c, 0, 59, 54
1, 938157, Note_on_c, 0, 47, 53
1, 938157, Note_on_c, 0, 71, 68
1, 938166, Note_on_c, 0, 62, 54
1, 938213, Control_c, 0, 64, 62
1, 938228, Control_c, 0, 64, 73
1, 938243, Control_c, 0, 64, 85
1, 938254, Note_off_c, 0, 59, 61
1, 938257, Note_off_c, 0, 47, 64
1, 938257, Control_c, 0, 64, 99
1, 938257, Control_c, 0, 67, 127
1, 938272, Control_c, 0, 64, 108
1, 938272, Control_c, 0, 67, 123
1, 938275, Note_off_c, 0, 62, 57
1, 938284, Note_off_c, 0, 71, 58
1, 938287, Control_c, 0, 64, 112
1, 938287, Control_c, 0, 67, 120
1, 938296, Note_on_c, 0, 63, 52
1, 938302, Control_c, 0, 64, 118
1, 938302, Control_c, 0, 67, 117
1, 938317, Control_c, 0, 64, 127
1, 938317, Control_c, 0, 67, 113
1, 938320, Note_off_c, 0, 63, 59
1, 938332, Control_c, 0, 67, 111
1, 938362, Control_c, 0, 67, 112
1, 938377, Control_c, 0, 67, 113
1, 938391, Control_c, 0, 67, 114
1, 938406, Control_c, 0, 67, 115
1, 938414, Note_on_c, 0, 63, 60
1, 938418, Note_on_c, 0, 57, 59
1, 938419, Note_on_c, 0, 66, 66
1, 938421, Control_c, 0, 67, 116
1, 938426, Note_on_c, 0, 59, 58
1, 938444, Note_off_c, 0, 63, 63
1, 938445, Note_off_c, 0, 66, 66
1, 938451, Note_off_c, 0, 57, 64
1, 938458, Note_off_c, 0, 59, 62
1, 938481, Control_c, 0, 64, 120
1, 938496, Control_c, 0, 64, 115
1, 938511, Control_c, 0, 64, 112
1, 938511, Control_c, 0, 67, 117
1, 938526, Control_c, 0, 64, 104
1, 938526, Control_c, 0, 67, 117
1, 938538, Note_on_c, 0, 66, 77
1, 938541, Control_c, 0, 64, 91
1, 938541, Control_c, 0, 67, 118
1, 938547, Note_on_c, 0, 59, 58
1, 938549, Note_on_c, 0, 57, 54
1, 938555, Control_c, 0, 64, 77
1, 938555, Control_c, 0, 67, 119
1, 938569, Note_on_c, 0, 63, 31
1, 938570, Control_c, 0, 64, 63
1, 938570, Control_c, 0, 67, 119
1, 938576, Note_off_c, 0, 57, 64
1, 938582, Note_off_c, 0, 59, 62
1, 938585, Control_c, 0, 64, 0
1, 938585, Note_off_c, 0, 66, 59
1, 938607, Control_c, 0, 67, 120
1, 938609, Note_off_c, 0, 63, 32
1, 938622, Control_c, 0, 67, 120
1, 938636, Control_c, 0, 67, 121
1, 938651, Control_c, 0, 67, 121
1, 938681, Control_c, 0, 67, 122
1, 938684, Note_on_c, 0, 57, 55
1, 938690, Note_on_c, 0, 59, 52
1, 938696, Note_on_c, 0, 66, 71
1, 938701, Note_on_c, 0, 63, 59
1, 938711, Control_c, 0, 64, 64
1, 938726, Control_c, 0, 64, 76
1, 938726, Control_c, 0, 67, 121
1, 938741, Control_c, 0, 64, 96
1, 938741, Control_c, 0, 67, 119
1, 938755, Control_c, 0, 64, 127
1, 938755, Control_c, 0, 67, 117
1, 938770, Control_c, 0, 67, 115
1, 938785, Control_c, 0, 67, 113
1, 938800, Control_c, 0, 67, 111
1, 938815, Note_on_c, 0, 64, 70
1, 938815, Control_c, 0, 67, 109
1, 938821, Note_on_c, 0, 56, 69
1, 938826, Note_off_c, 0, 63, 57
1, 938830, Control_c, 0, 67, 105
1, 938845, Control_c, 0, 67, 102
1, 938845, Note_off_c, 0, 57, 61
1, 938851, Note_off_c, 0, 59, 54
1, 938853, Note_off_c, 0, 56, 65
1, 938859, Control_c, 0, 67, 101
1, 938871, Note_off_c, 0, 64, 61
1, 938874, Note_off_c, 0, 66, 57
1, 938874, Control_c, 0, 67, 100
1, 938904, Control_c, 0, 67, 101
1, 938919, Control_c, 0, 67, 102
1, 938934, Control_c, 0, 64, 104
1, 938934, Control_c, 0, 67, 103
1, 938943, Note_on_c, 0, 69, 78
1, 938944, Note_on_c, 0, 63, 74
1, 938945, Note_on_c, 0, 54, 75
1, 938949, Control_c, 0, 64, 81
1, 938949, Control_c, 0, 67, 105
1, 938961, Note_on_c, 0, 59, 64
1, 938963, Control_c, 0, 64, 62
1, 938963, Control_c, 0, 67, 105
1, 938978, Control_c, 0, 64, 0
1, 938978, Control_c, 0, 67, 106
1, 938988, Note_off_c, 0, 59, 64
1, 938993, Control_c, 0, 67, 107
1, 938995, Note_off_c, 0, 54, 59
1, 939001, Note_off_c, 0, 63, 60
1, 939001, Note_off_c, 0, 69, 62
1, 939007, Control_c, 0, 67, 107
1, 939037, Control_c, 0, 67, 108
1, 939052, Control_c, 0, 67, 109
1, 939062, Note_on_c, 0, 54, 70
1, 939065, Note_on_c, 0, 69, 79
1, 939067, Note_on_c, 0, 63, 76
1, 939067, Control_c, 0, 67, 109
1, 939069, Note_on_c, 0, 59, 70
1, 939081, Control_c, 0, 67, 110
1, 939096, Note_off_c, 0, 54, 65
1, 939096, Control_c, 0, 67, 110
1, 939098, Note_off_c, 0, 59, 61
1, 939112, Note_off_c, 0, 63, 58
1, 939122, Note_off_c, 0, 69, 61
1, 939126, Control_c, 0, 67, 111
1, 939193, Note_on_c, 0, 69, 72
1, 939194, Note_on_c, 0, 54, 73
1, 939195, Note_on_c, 0, 59, 72
1, 939199, Control_c, 0, 67, 110
1, 939202, Note_on_c, 0, 63, 76
1, 939214, Control_c, 0, 64, 64
1, 939214, Control_c, 0, 67, 108
1, 939229, Control_c, 0, 64, 77
1, 939229, Control_c, 0, 67, 106
1, 939244, Control_c, 0, 64, 98
1, 939244, Control_c, 0, 67, 104
1, 939259, Control_c, 0, 64, 127
1, 939259, Control_c, 0, 67, 102
1, 939275, Control_c, 0, 67, 100
1, 939290, Control_c, 0, 67, 98
1, 939304, Control_c, 0, 67, 95
1, 939314, Note_on_c, 0, 52, 74
1, 939317, Note_on_c, 0, 68, 82
1, 939319, Control_c, 0, 67, 90
1, 939322, Note_on_c, 0, 64, 71
1, 939333, Note_off_c, 0, 54, 64
1, 939333, Note_off_c, 0, 63, 61
1, 939333, Note_off_c, 0, 69, 60
1, 939334, Control_c, 0, 67, 85
1, 939355, Note_off_c, 0, 59, 62
1, 939357, Control_c, 0, 67, 82
1, 939361, Note_off_c, 0, 64, 65
1, 939362, Note_off_c, 0, 52, 62
1, 939372, Control_c, 0, 67, 82
1, 939376, Note_off_c, 0, 68, 63
1, 939401, Control_c, 0, 64, 84
1, 939416, Control_c, 0, 64, 50
1, 939430, Control_c, 0, 64, 0
1, 939430, Control_c, 0, 67, 81
1, 939445, Control_c, 0, 67, 79
1, 939453, Note_on_c, 0, 52, 84
1, 939455, Note_on_c, 0, 59, 79
1, 939455, Note_on_c, 0, 68, 88
1, 939456, Note_on_c, 0, 64, 80
1, 939460, Control_c, 0, 67, 76
1, 939475, Control_c, 0, 64, 40
1, 939475, Control_c, 0, 67, 72
1, 939490, Control_c, 0, 64, 68
1, 939490, Control_c, 0, 67, 69
1, 939504, Control_c, 0, 64, 84
1, 939504, Control_c, 0, 67, 65
1, 939519, Control_c, 0, 64, 127
1, 939519, Control_c, 0, 67, 62
1, 939534, Control_c, 0, 67, 57
1, 939549, Control_c, 0, 67, 54
1, 939563, Note_on_c, 0, 50, 75
1, 939564, Note_on_c, 0, 71, 85
1, 939564, Control_c, 0, 67, 51
1, 939566, Note_on_c, 0, 65, 82
1, 939572, Note_on_c, 0, 56, 77
1, 939573, Note_off_c, 0, 59, 59
1, 939575, Note_off_c, 0, 64, 62
1, 939575, Note_off_c, 0, 52, 62
1, 939579, Control_c, 0, 67, 49
1, 939584, Note_off_c, 0, 68, 60
1, 939593, Control_c, 0, 67, 49
1, 939599, Note_off_c, 0, 56, 67
1, 939602, Note_off_c, 0, 50, 65
1, 939608, Control_c, 0, 67, 48
1, 939611, Note_off_c, 0, 65, 62
1, 939614, Note_off_c, 0, 71, 67
1, 939667, Control_c, 0, 64, 83
1, 939682, Control_c, 0, 64, 0
1, 939695, Note_on_c, 0, 50, 78
1, 939696, Note_on_c, 0, 56, 80
1, 939700, Note_on_c, 0, 71, 86
1, 939703, Note_on_c, 0, 65, 88
1, 939742, Control_c, 0, 64, 49
1, 939742, Control_c, 0, 67, 48
1, 939757, Control_c, 0, 64, 70
1, 939757, Control_c, 0, 67, 47
1, 939772, Control_c, 0, 64, 90
1, 939772, Control_c, 0, 67, 46
1, 939786, Control_c, 0, 64, 127
1, 939786, Control_c, 0, 67, 44
1, 939801, Note_off_c, 0, 56, 46
1, 939801, Control_c, 0, 67, 41
1, 939801, Note_on_c, 0, 57, 80
1, 939816, Control_c, 0, 67, 39
1, 939818, Note_on_c, 0, 64, 78
1, 939823, Note_off_c, 0, 65, 62
1, 939830, Control_c, 0, 67, 36
1, 939845, Control_c, 0, 67, 35
1, 939852, Note_off_c, 0, 50, 65
1, 939854, Note_off_c, 0, 57, 61
1, 939860, Control_c, 0, 67, 34
1, 939865, Note_off_c, 0, 64, 64
1, 939870, Note_off_c, 0, 71, 64
1, 939875, Control_c, 0, 67, 34
1, 939890, Control_c, 0, 67, 33
1, 939904, Control_c, 0, 64, 92
1, 939904, Control_c, 0, 67, 33
1, 939919, Control_c, 0, 64, 38
1, 939919, Control_c, 0, 67, 32
1, 939933, Note_on_c, 0, 49, 89
1, 939934, Note_on_c, 0, 69, 89
1, 939934, Control_c, 0, 64, 0
1, 939934, Control_c, 0, 67, 29
1, 939937, Note_on_c, 0, 57, 81
1, 939940, Note_on_c, 0, 64, 83
1, 939949, Control_c, 0, 67, 27
1, 939964, Control_c, 0, 64, 67
1, 939964, Control_c, 0, 67, 23
1, 939971, Note_off_c, 0, 64, 64
1, 939971, Note_off_c, 0, 57, 62
1, 939978, Control_c, 0, 64, 83
1, 939978, Control_c, 0, 67, 18
1, 939992, Note_off_c, 0, 69, 64
1, 939993, Control_c, 0, 64, 127
1, 939993, Control_c, 0, 67, 12
1, 940007, Note_off_c, 0, 49, 61
1, 940008, Control_c, 0, 67, 0
1, 940040, Note_on_c, 0, 56, 97
1, 940043, Note_on_c, 0, 47, 74
1, 940052, Note_on_c, 0, 71, 97
1, 940052, Note_on_c, 0, 62, 91
1, 940088, Note_off_c, 0, 56, 65
1, 940103, Note_off_c, 0, 71, 64
1, 940103, Note_off_c, 0, 47, 65
1, 940103, Note_off_c, 0, 62, 63
1, 940120, Control_c, 0, 64, 79
1, 940135, Control_c, 0, 64, 0
1, 940165, Control_c, 0, 64, 23
1, 940173, Note_on_c, 0, 56, 94
1, 940176, Note_on_c, 0, 62, 93
1, 940176, Note_on_c, 0, 71, 98
1, 940177, Note_on_c, 0, 47, 81
1, 940180, Control_c, 0, 64, 67
1, 940195, Control_c, 0, 64, 81
1, 940207, Note_off_c, 0, 62, 65
1, 940208, Note_off_c, 0, 47, 67
1, 940208, Control_c, 0, 64, 127
1, 940211, Note_off_c, 0, 71, 66
1, 940218, Note_off_c, 0, 56, 62
1, 940224, Note_on_c, 0, 70, 19
1, 940269, Note_off_c, 0, 70, 47
1, 940293, Note_on_c, 0, 57, 88
1, 940295, Note_on_c, 0, 73, 101
1, 940296, Note_on_c, 0, 45, 84
1, 940298, Note_on_c, 0, 61, 90
1, 940324, Note_off_c, 0, 57, 62
1, 940326, Note_off_c, 0, 45, 67
1, 940326, Note_off_c, 0, 61, 62
1, 940341, Note_on_c, 0, 63, 26
1, 940343, Note_off_c, 0, 73, 60
1, 940371, Control_c, 0, 64, 82
1, 940380, Note_off_c, 0, 63, 54
1, 940386, Control_c, 0, 64, 57
1, 940401, Control_c, 0, 64, 51
1, 940401, Note_on_c, 0, 57, 94
1, 940408, Note_on_c, 0, 73, 99
1, 940409, Note_on_c, 0, 45, 87
1, 940411, Note_on_c, 0, 61, 99
1, 940416, Control_c, 0, 64, 69
1, 940430, Control_c, 0, 64, 84
1, 940435, Note_off_c, 0, 45, 69
1, 940439, Note_off_c, 0, 57, 68
1, 940445, Control_c, 0, 64, 127
1, 940448, Note_off_c, 0, 61, 59
1, 940469, Note_off_c, 0, 73, 61
1, 940515, Note_on_c, 0, 56, 95
1, 940517, Note_on_c, 0, 44, 85
1, 940520, Note_on_c, 0, 72, 92
1, 940520, Note_on_c, 0, 75, 96
1, 940523, Note_on_c, 0, 66, 91
1, 940531, Note_on_c, 0, 58, 75
1, 940546, Note_on_c, 0, 46, 50
1, 940549, Control_c, 0, 64, 88
1, 940553, Note_off_c, 0, 56, 67
1, 940555, Note_off_c, 0, 58, 67
1, 940561, Note_off_c, 0, 44, 65
1, 940564, Control_c, 0, 64, 41
1, 940565, Note_off_c, 0, 66, 61
1, 940578, Note_off_c, 0, 46, 53
1, 940579, Control_c, 0, 64, 0
1, 940580, Note_off_c, 0, 72, 63
1, 940580, Note_off_c, 0, 75, 62
1, 940608, Control_c, 0, 64, 66
1, 940623, Control_c, 0, 64, 84
1, 940627, Note_on_c, 0, 56, 100
1, 940633, Note_on_c, 0, 44, 90
1, 940637, Note_on_c, 0, 75, 90
1, 940638, Control_c, 0, 64, 127
1, 940639, Note_on_c, 0, 66, 93
1, 940639, Note_on_c, 0, 72, 88
1, 940651, Note_on_c, 0, 58, 38
1, 940654, Note_off_c, 0, 56, 63
1, 940676, Note_off_c, 0, 44, 63
1, 940679, Note_off_c, 0, 66, 60
1, 940682, Note_off_c, 0, 58, 58
1, 940682, Note_off_c, 0, 72, 64
1, 940685, Note_off_c, 0, 75, 64
1, 940703, Note_on_c, 0, 46, 6
1, 940740, Note_off_c, 0, 46, 34
1, 940749, Note_on_c, 0, 49, 102
1, 940750, Note_on_c, 0, 64, 96
1, 940751, Note_on_c, 0, 76, 97
1, 940753, Note_on_c, 0, 73, 93
1, 940755, Note_on_c, 0, 37, 90
1, 940771, Control_c, 0, 64, 96
1, 940780, Note_off_c, 0, 49, 64
1, 940783, Note_off_c, 0, 37, 67
1, 940786, Control_c, 0, 64, 67
1, 940788, Note_off_c, 0, 64, 67
1, 940795, Note_off_c, 0, 73, 64
1, 940795, Note_off_c, 0, 76, 61
1, 940800, Control_c, 0, 64, 0
1, 940815, Control_c, 0, 64, 57
1, 940830, Control_c, 0, 64, 73
1, 940852, Control_c, 0, 64, 99
1, 940864, Note_on_c, 0, 49, 101
1, 940867, Control_c, 0, 64, 127
1, 940870, Note_on_c, 0, 64, 100
1, 940871, Note_on_c, 0, 76, 94
1, 940872, Note_on_c, 0, 37, 91
1, 940875, Note_on_c, 0, 73, 93
1, 940894, Note_off_c, 0, 49, 65
1, 940899, Note_off_c, 0, 37, 69
1, 940905, Note_off_c, 0, 64, 63
1, 940913, Note_off_c, 0, 76, 64
1, 940923, Note_off_c, 0, 73, 64
1, 940972, Control_c, 0, 64, 77
1, 940976, Note_on_c, 0, 46, 99
1, 940982, Note_on_c, 0, 34, 92
1, 940983, Note_on_c, 0, 66, 97
1, 940986, Note_on_c, 0, 78, 93
1, 940987, Control_c, 0, 64, 0
1, 940995, Note_on_c, 0, 73, 86
1, 941006, Note_off_c, 0, 46, 61
1, 941017, Control_c, 0, 64, 51
1, 941024, Note_off_c, 0, 34, 51
1, 941031, Control_c, 0, 64, 84
1, 941046, Control_c, 0, 64, 127
1, 941056, Note_on_c, 0, 34, 70
1, 941061, Note_on_c, 0, 46, 96
1, 941072, Poly_aftertouch_c, 0, 75, 127
1, 941097, Note_off_c, 0, 46, 65
1, 941100, Note_off_c, 0, 34, 63
1, 941130, Note_off_c, 0, 78, 59
1, 941131, Note_off_c, 0, 66, 58
1, 941161, Note_off_c, 0, 73, 61
1, 941170, Poly_aftertouch_c, 0, 75, 0
1, 941226, Note_on_c, 0, 54, 116
1, 941226, Note_on_c, 0, 73, 104
1, 941228, Note_on_c, 0, 78, 102
1, 941229, Note_on_c, 0, 66, 97
1, 941239, Note_off_c, 0, 54, 79
1, 941423, Note_off_c, 0, 78, 51
1, 941439, Note_off_c, 0, 66, 46
1, 941576, Note_on_c, 0, 46, 97
1, 941578, Note_on_c, 0, 34, 94
1, 941583, Note_on_c, 0, 66, 97
1, 941584, Note_on_c, 0, 78, 94
1, 941587, Note_on_c, 0, 76, 93
1, 941605, Note_off_c, 0, 46, 69
1, 941609, Note_off_c, 0, 73, 61
1, 941614, Note_off_c, 0, 34, 66
1, 941682, Note_off_c, 0, 66, 58
1, 941697, Note_off_c, 0, 78, 57
1, 941699, Note_off_c, 0, 76, 54
1, 941796, Control_c, 0, 64, 117
1, 941811, Control_c, 0, 64, 75
1, 941825, Control_c, 0, 64, 0
1, 941827, Note_on_c, 0, 74, 96
1, 941829, Note_on_c, 0, 66, 92
1, 941831, Note_on_c, 0, 47, 95
1, 941834, Note_on_c, 0, 78, 86
1, 941841, Note_on_c, 0, 35, 75
1, 941846, Note_off_c, 0, 66, 70
1, 941846, Note_off_c, 0, 74, 68
1, 941851, Note_off_c, 0, 78, 73
1, 941853, Note_off_c, 0, 47, 74
1, 941870, Control_c, 0, 64, 31
1, 941873, Note_off_c, 0, 35, 64
1, 941885, Control_c, 0, 64, 70
1, 941897, Note_on_c, 0, 74, 95
1, 941897, Note_on_c, 0, 78, 90
1, 941898, Note_on_c, 0, 47, 103
1, 941898, Note_on_c, 0, 66, 90
1, 941899, Control_c, 0, 64, 94
1, 941903, Note_on_c, 0, 35, 78
1, 941914, Control_c, 0, 64, 127
1, 941940, Note_off_c, 0, 47, 70
1, 941945, Note_off_c, 0, 35, 63
1, 941984, Note_off_c, 0, 66, 59
1, 941998, Note_off_c, 0, 78, 55
1, 942005, Note_off_c, 0, 74, 63
1, 942038, Note_on_c, 0, 49, 101
1, 942041, Note_on_c, 0, 73, 94
1, 942043, Note_on_c, 0, 37, 90
1, 942044, Note_on_c, 0, 78, 57
1, 942046, Note_on_c, 0, 66, 80
1, 942062, Control_c, 0, 64, 116
1, 942071, Note_off_c, 0, 49, 63
1, 942073, Note_off_c, 0, 37, 65
1, 942077, Control_c, 0, 64, 78
1, 942084, Note_off_c, 0, 78, 57
1, 942092, Control_c, 0, 64, 26
1, 942097, Note_off_c, 0, 66, 59
1, 942106, Control_c, 0, 64, 0
1, 942118, Note_off_c, 0, 73, 62
1, 942169, Note_on_c, 0, 50, 101
1, 942175, Note_on_c, 0, 38, 90
1, 942179, Note_on_c, 0, 71, 88
1, 942179, Note_on_c, 0, 78, 86
1, 942183, Note_on_c, 0, 66, 85
1, 942199, Note_off_c, 0, 38, 70
1, 942204, Note_off_c, 0, 50, 66
1, 942238, Note_off_c, 0, 78, 59
1, 942240, Note_off_c, 0, 66, 53
1, 942249, Note_off_c, 0, 71, 62
1, 942318, Note_on_c, 0, 51, 102
1, 942320, Note_on_c, 0, 39, 91
1, 942323, Note_on_c, 0, 70, 61
1, 942326, Note_on_c, 0, 78, 93
1, 942329, Note_on_c, 0, 66, 83
1, 942337, Note_on_c, 0, 69, 74
1, 942340, Note_off_c, 0, 51, 72
1, 942356, Note_off_c, 0, 39, 66
1, 942356, Note_off_c, 0, 70, 59
1, 942368, Note_off_c, 0, 69, 66
1, 942380, Control_c, 0, 67, 8
1, 942383, Note_off_c, 0, 66, 56
1, 942395, Control_c, 0, 67, 8
1, 942399, Note_off_c, 0, 78, 61
1, 942440, Control_c, 0, 67, 8
1, 942454, Control_c, 0, 67, 0
1, 942514, Note_on_c, 0, 76, 97
1, 942514, Note_on_c, 0, 52, 99
1, 942515, Control_c, 0, 64, 65
1, 942517, Note_on_c, 0, 68, 97
1, 942517, Note_on_c, 0, 40, 88
1, 942518, Note_on_c, 0, 64, 87
1, 942529, Control_c, 0, 64, 80
1, 942534, Note_off_c, 0, 52, 71
1, 942536, Note_off_c, 0, 64, 73
1, 942536, Note_off_c, 0, 68, 67
1, 942536, Note_off_c, 0, 76, 63
1, 942540, Note_off_c, 0, 40, 69
1, 942544, Control_c, 0, 64, 110
1, 942559, Control_c, 0, 64, 127
1, 942663, Control_c, 0, 67, 8
1, 942678, Control_c, 0, 67, 9
1, 942693, Control_c, 0, 67, 10
1, 942708, Control_c, 0, 67, 11
1, 942722, Control_c, 0, 67, 12
1, 942796, Control_c, 0, 67, 12
1, 942804, Note_on_c, 0, 52, 82
1, 942806, Note_on_c, 0, 68, 91
1, 942807, Note_on_c, 0, 59, 79
1, 942812, Note_on_c, 0, 62, 81
1, 942815, Note_on_c, 0, 64, 77
1, 942826, Control_c, 0, 64, 94
1, 942832, Note_off_c, 0, 68, 61
1, 942833, Note_off_c, 0, 62, 70
1, 942836, Note_off_c, 0, 59, 60
1, 942838, Note_off_c, 0, 64, 70
1, 942839, Note_off_c, 0, 52, 57
1, 942841, Control_c, 0, 64, 69
1, 942855, Control_c, 0, 64, 0
1, 942869, Note_on_c, 0, 59, 71
1, 942869, Note_on_c, 0, 68, 83
1, 942870, Note_on_c, 0, 52, 76
1, 942881, Note_on_c, 0, 62, 76
1, 942887, Note_on_c, 0, 64, 73
1, 942900, Control_c, 0, 64, 53
1, 942915, Control_c, 0, 64, 68
1, 942915, Control_c, 0, 67, 13
1, 942929, Control_c, 0, 64, 80
1, 942929, Control_c, 0, 67, 13
1, 942944, Control_c, 0, 64, 101
1, 942959, Control_c, 0, 64, 127
1, 942974, Control_c, 0, 67, 13
1, 943014, Note_off_c, 0, 62, 59
1, 943027, Note_off_c, 0, 59, 54
1, 943033, Control_c, 0, 67, 12
1, 943048, Control_c, 0, 67, 12
1, 943063, Control_c, 0, 67, 11
1, 943077, Control_c, 0, 67, 9
1, 943100, Control_c, 0, 67, 8
1, 943115, Control_c, 0, 67, 0
1, 943218, Control_c, 0, 67, 8
1, 943233, Control_c, 0, 67, 9
1, 943247, Control_c, 0, 67, 10
1, 943262, Control_c, 0, 67, 11
1, 943293, Control_c, 0, 67, 11
1, 943298, Note_on_c, 0, 45, 82
1, 943300, Note_on_c, 0, 57, 83
1, 943300, Note_on_c, 0, 69, 85
1, 943303, Note_on_c, 0, 61, 82
1, 943308, Control_c, 0, 64, 105
1, 943323, Control_c, 0, 64, 76
1, 943338, Control_c, 0, 64, 0
1, 943358, Note_off_c, 0, 68, 55
1, 943367, Control_c, 0, 67, 10
1, 943382, Control_c, 0, 67, 10
1, 943396, Control_c, 0, 67, 9
1, 943411, Control_c, 0, 67, 8
1, 943426, Control_c, 0, 67, 0
1, 943471, Control_c, 0, 64, 34
1, 943486, Control_c, 0, 64, 66
1, 943501, Control_c, 0, 64, 77
1, 943507, Note_off_c, 0, 69, 65
1, 943509, Note_off_c, 0, 57, 62
1, 943514, Note_off_c, 0, 52, 64
1, 943516, Control_c, 0, 64, 95
1, 943521, Note_off_c, 0, 64, 66
1, 943526, Note_off_c, 0, 61, 61
1, 943528, Note_off_c, 0, 45, 65
1, 943531, Control_c, 0, 64, 127
1, 943708, Control_c, 0, 64, 120
1, 943723, Control_c, 0, 64, 79
1, 943738, Control_c, 0, 64, 49
1, 943752, Control_c, 0, 64, 0
1, 943849, Control_c, 0, 67, 8
1, 943864, Control_c, 0, 64, 38
1, 943864, Control_c, 0, 67, 11
1, 943877, Note_on_c, 0, 60, 84
1, 943878, Control_c, 0, 64, 66
1, 943878, Control_c, 0, 67, 14
1, 943893, Control_c, 0, 64, 76
1, 943893, Control_c, 0, 67, 19
1, 943908, Control_c, 0, 64, 88
1, 943908, Control_c, 0, 67, 25
1, 943923, Control_c, 0, 64, 110
1, 943923, Control_c, 0, 67, 31
1, 943927, Note_off_c, 0, 60, 63
1, 943938, Control_c, 0, 64, 127
1, 943938, Control_c, 0, 67, 34
1, 943951, Control_c, 0, 67, 36
1, 943957, Note_on_c, 0, 52, 91
1, 943966, Control_c, 0, 67, 37
1, 943978, Note_off_c, 0, 52, 70
1, 943981, Control_c, 0, 67, 38
1, 943996, Control_c, 0, 67, 39
1, 944010, Control_c, 0, 67, 40
1, 944025, Control_c, 0, 67, 42
1, 944040, Control_c, 0, 67, 44
1, 944055, Control_c, 0, 67, 46
1, 944070, Control_c, 0, 67, 49
1, 944086, Control_c, 0, 67, 51
1, 944100, Control_c, 0, 67, 53
1, 944115, Control_c, 0, 67, 56
1, 944130, Control_c, 0, 67, 58
1, 944145, Control_c, 0, 67, 60
1, 944160, Control_c, 0, 67, 61
1, 944174, Control_c, 0, 67, 62
1, 944264, Control_c, 0, 67, 61
1, 944275, Note_on_c, 0, 45, 88
1, 944293, Control_c, 0, 64, 98
1, 944297, Note_off_c, 0, 45, 70
1, 944308, Control_c, 0, 64, 81
1, 944323, Control_c, 0, 64, 66
1, 944338, Control_c, 0, 64, 0
1, 944341, Note_on_c, 0, 45, 84
1, 944426, Control_c, 0, 67, 62
1, 944441, Control_c, 0, 67, 62
1, 944471, Control_c, 0, 67, 63
1, 944486, Control_c, 0, 67, 63
1, 944515, Control_c, 0, 67, 64
1, 944530, Control_c, 0, 67, 66
1, 944545, Control_c, 0, 67, 68
1, 944560, Control_c, 0, 67, 70
1, 944574, Control_c, 0, 64, 55
1, 944574, Control_c, 0, 67, 72
1, 944597, Control_c, 0, 64, 68
1, 944597, Control_c, 0, 67, 74
1, 944612, Control_c, 0, 64, 77
1, 944612, Control_c, 0, 67, 77
1, 944626, Control_c, 0, 64, 91
1, 944626, Control_c, 0, 67, 80
1, 944641, Control_c, 0, 64, 117
1, 944641, Control_c, 0, 67, 82
1, 944656, Control_c, 0, 64, 127
1, 944656, Control_c, 0, 67, 86
1, 944671, Control_c, 0, 67, 90
1, 944686, Control_c, 0, 67, 94
1, 944701, Note_off_c, 0, 45, 64
1, 944701, Control_c, 0, 67, 97
1, 944716, Control_c, 0, 67, 101
1, 944731, Control_c, 0, 67, 105
1, 944746, Control_c, 0, 67, 108
1, 944761, Control_c, 0, 67, 111
1, 944775, Control_c, 0, 67, 113
1, 944790, Control_c, 0, 67, 115
1, 944805, Control_c, 0, 67, 117
1, 944819, Control_c, 0, 67, 119
1, 944834, Control_c, 0, 67, 119
1, 944849, Control_c, 0, 67, 120
1, 944864, Control_c, 0, 67, 121
1, 944969, Control_c, 0, 64, 98
1, 944984, Control_c, 0, 64, 75
1, 944986, Note_on_c, 0, 45, 87
1, 944998, Control_c, 0, 64, 36
1, 945013, Control_c, 0, 64, 0
1, 945033, Note_off_c, 0, 45, 65
1, 945069, Note_on_c, 0, 47, 86
1, 945099, Note_off_c, 0, 47, 68
1, 945256, Note_on_c, 0, 48, 85
1, 945281, Note_off_c, 0, 48, 68
1, 945339, Control_c, 0, 67, 120
1, 945340, Note_on_c, 0, 50, 73
1, 945376, Control_c, 0, 67, 119
1, 945406, Control_c, 0, 67, 119
1, 945420, Control_c, 0, 64, 59
1, 945420, Control_c, 0, 67, 118
1, 945435, Control_c, 0, 64, 71
1, 945435, Control_c, 0, 67, 118
1, 945450, Control_c, 0, 64, 82
1, 945450, Control_c, 0, 67, 117
1, 945465, Control_c, 0, 64, 102
1, 945465, Control_c, 0, 67, 117
1, 945480, Control_c, 0, 64, 127
1, 945510, Control_c, 0, 67, 116
1, 945624, Note_off_c, 0, 50, 63
1, 945699, Note_on_c, 0, 38, 67
1, 945747, Control_c, 0, 64, 94
1, 945762, Control_c, 0, 64, 71
1, 945777, Control_c, 0, 64, 0
1, 945969, Control_c, 0, 64, 42
1, 945984, Control_c, 0, 64, 66
1, 945999, Control_c, 0, 64, 76
1, 946014, Control_c, 0, 64, 87
1, 946018, Note_on_c, 0, 69, 78
1, 946029, Control_c, 0, 64, 101
1, 946029, Control_c, 0, 67, 116
1, 946043, Control_c, 0, 64, 116
1, 946043, Control_c, 0, 67, 115
1, 946058, Control_c, 0, 64, 127
1, 946079, Note_off_c, 0, 69, 60
1, 946085, Note_on_c, 0, 62, 80
1, 946117, Note_off_c, 0, 62, 67
1, 946213, Control_c, 0, 67, 116
1, 946243, Control_c, 0, 67, 116
1, 946332, Note_on_c, 0, 53, 76
1, 946357, Note_off_c, 0, 53, 68
1, 946377, Control_c, 0, 64, 105
1, 946392, Control_c, 0, 64, 86
1, 946401, Note_on_c, 0, 53, 82
1, 946406, Control_c, 0, 64, 71
1, 946406, Control_c, 0, 67, 117
1, 946421, Control_c, 0, 64, 42
1, 946436, Control_c, 0, 64, 0
1, 946436, Control_c, 0, 67, 117
1, 946467, Control_c, 0, 67, 118
1, 946511, Control_c, 0, 67, 118
1, 946600, Control_c, 0, 64, 57
1, 946614, Control_c, 0, 64, 67
1, 946629, Control_c, 0, 64, 75
1, 946644, Control_c, 0, 64, 85
1, 946659, Control_c, 0, 64, 102
1, 946674, Control_c, 0, 64, 127
1, 946727, Note_off_c, 0, 53, 64
1, 947007, Control_c, 0, 64, 103
1, 947016, Note_on_c, 0, 53, 76
1, 947021, Control_c, 0, 64, 81
1, 947036, Control_c, 0, 64, 63
1, 947036, Control_c, 0, 67, 119
1, 947051, Control_c, 0, 64, 0
1, 947051, Control_c, 0, 67, 120
1, 947063, Note_off_c, 0, 53, 64
1, 947066, Control_c, 0, 67, 120
1, 947081, Control_c, 0, 67, 121
1, 947087, Note_on_c, 0, 55, 74
1, 947111, Control_c, 0, 67, 121
1, 947115, Note_off_c, 0, 55, 67
1, 947185, Control_c, 0, 67, 122
1, 947215, Control_c, 0, 67, 122
1, 947244, Control_c, 0, 67, 123
1, 947259, Control_c, 0, 67, 123
1, 947267, Note_on_c, 0, 57, 72
1, 947275, Control_c, 0, 67, 126
1, 947289, Control_c, 0, 67, 127
1, 947292, Note_off_c, 0, 57, 66
1, 947342, Note_on_c, 0, 58, 76
1, 947452, Control_c, 0, 64, 49
1, 947467, Control_c, 0, 64, 64
1, 947482, Control_c, 0, 64, 69
1, 947497, Control_c, 0, 64, 75
1, 947511, Control_c, 0, 64, 82
1, 947526, Control_c, 0, 64, 93
1, 947541, Control_c, 0, 64, 105
1, 947556, Control_c, 0, 64, 123
1, 947571, Control_c, 0, 64, 127
1, 947740, Note_on_c, 0, 46, 62
1, 947811, Note_off_c, 0, 38, 62
1, 948056, Note_on_c, 0, 38, 71
1, 948066, Control_c, 0, 64, 97
1, 948081, Control_c, 0, 64, 77
1, 948096, Control_c, 0, 64, 40
1, 948111, Control_c, 0, 64, 0
1, 948124, Note_off_c, 0, 38, 58
1, 948136, Note_on_c, 0, 39, 71
1, 948169, Note_off_c, 0, 39, 65
1, 948248, Note_off_c, 0, 58, 38
1, 948324, Note_on_c, 0, 41, 67
1, 948362, Note_off_c, 0, 41, 64
1, 948410, Note_on_c, 0, 43, 66
1, 948430, Note_off_c, 0, 46, 57
1, 948431, Note_on_c, 0, 58, 64
1, 948578, Control_c, 0, 64, 43
1, 948592, Control_c, 0, 64, 61
1, 948607, Control_c, 0, 64, 66
1, 948622, Control_c, 0, 64, 70
1, 948637, Control_c, 0, 64, 74
1, 948652, Control_c, 0, 64, 78
1, 948667, Control_c, 0, 64, 84
1, 948682, Control_c, 0, 64, 90
1, 948696, Control_c, 0, 64, 96
1, 948711, Control_c, 0, 64, 101
1, 948726, Control_c, 0, 64, 106
1, 948741, Control_c, 0, 64, 110
1, 948756, Control_c, 0, 64, 116
1, 948771, Control_c, 0, 64, 120
1, 948785, Control_c, 0, 64, 126
1, 948800, Control_c, 0, 64, 127
1, 948828, Note_on_c, 0, 46, 55
1, 948984, Note_off_c, 0, 43, 56
1, 949135, Control_c, 0, 64, 112
1, 949150, Control_c, 0, 64, 81
1, 949161, Note_on_c, 0, 43, 67
1, 949164, Control_c, 0, 64, 62
1, 949179, Control_c, 0, 64, 0
1, 949197, Note_off_c, 0, 43, 63
1, 949235, Note_on_c, 0, 41, 71
1, 949272, Note_off_c, 0, 41, 62
1, 949353, Note_off_c, 0, 58, 39
1, 949423, Note_on_c, 0, 39, 62
1, 949453, Note_off_c, 0, 39, 63
1, 949507, Note_on_c, 0, 56, 66
1, 949521, Note_on_c, 0, 58, 59
1, 949526, Note_on_c, 0, 38, 55
1, 949649, Note_off_c, 0, 46, 22
1, 949668, Control_c, 0, 64, 27
1, 949683, Control_c, 0, 64, 48
1, 949698, Control_c, 0, 64, 59
1, 949713, Control_c, 0, 64, 64
1, 949728, Control_c, 0, 64, 67
1, 949743, Control_c, 0, 64, 70
1, 949758, Control_c, 0, 64, 72
1, 949773, Control_c, 0, 64, 74
1, 949787, Control_c, 0, 64, 77
1, 949802, Control_c, 0, 64, 79
1, 949817, Control_c, 0, 64, 80
1, 949838, Control_c, 0, 64, 81
1, 949898, Control_c, 0, 64, 81
1, 949913, Control_c, 0, 64, 82
1, 949928, Control_c, 0, 64, 83
1, 949939, Note_on_c, 0, 46, 49
1, 949942, Control_c, 0, 64, 84
1, 949957, Control_c, 0, 64, 85
1, 949972, Control_c, 0, 64, 87
1, 949978, Note_off_c, 0, 38, 61
1, 949987, Control_c, 0, 64, 90
1, 950002, Control_c, 0, 64, 92
1, 950017, Control_c, 0, 64, 94
1, 950032, Control_c, 0, 64, 95
1, 950046, Control_c, 0, 64, 96
1, 950238, Control_c, 0, 64, 91
1, 950253, Control_c, 0, 64, 83
1, 950260, Note_on_c, 0, 38, 62
1, 950268, Control_c, 0, 64, 72
1, 950283, Control_c, 0, 64, 59
1, 950298, Control_c, 0, 64, 0
1, 950317, Note_off_c, 0, 58, 36
1, 950324, Note_off_c, 0, 38, 57
1, 950343, Note_on_c, 0, 36, 65
1, 950385, Note_off_c, 0, 36, 59
1, 950527, Note_on_c, 0, 34, 61
1, 950557, Note_off_c, 0, 34, 62
1, 950640, Note_on_c, 0, 34, 52
1, 950641, Note_on_c, 0, 58, 51
1, 950648, Note_on_c, 0, 55, 45
1, 950732, Note_off_c, 0, 56, 39
1, 950800, Note_off_c, 0, 46, 42
1, 950986, Control_c, 0, 64, 32
1, 951001, Control_c, 0, 64, 57
1, 951016, Control_c, 0, 64, 64
1, 951031, Control_c, 0, 64, 69
1, 951046, Control_c, 0, 64, 74
1, 951055, Note_on_c, 0, 46, 40
1, 951060, Control_c, 0, 64, 80
1, 951075, Control_c, 0, 64, 86
1, 951090, Control_c, 0, 64, 93
1, 951105, Control_c, 0, 64, 97
1, 951120, Control_c, 0, 64, 99
1, 951205, Note_off_c, 0, 34, 37
1, 951269, Control_c, 0, 64, 99
1, 951299, Control_c, 0, 64, 98
1, 951314, Control_c, 0, 64, 97
1, 951336, Control_c, 0, 64, 97
1, 951351, Control_c, 0, 64, 96
1, 951365, Control_c, 0, 64, 95
1, 951380, Control_c, 0, 64, 93
1, 951395, Control_c, 0, 64, 91
1, 951409, Control_c, 0, 64, 87
1, 951415, Note_on_c, 0, 34, 59
1, 951424, Control_c, 0, 64, 81
1, 951440, Control_c, 0, 64, 76
1, 951455, Control_c, 0, 64, 71
1, 951470, Control_c, 0, 64, 67
1, 951480, Note_off_c, 0, 46, 47
1, 951484, Control_c, 0, 64, 64
1, 951485, Note_off_c, 0, 34, 54
1, 951499, Control_c, 0, 64, 63
1, 951514, Control_c, 0, 64, 60
1, 951522, Note_on_c, 0, 32, 54
1, 951529, Control_c, 0, 64, 57
1, 951544, Control_c, 0, 64, 53
1, 951558, Note_off_c, 0, 32, 63
1, 951558, Control_c, 0, 64, 49
1, 951573, Control_c, 0, 64, 47
1, 951648, Control_c, 0, 64, 50
1, 951662, Control_c, 0, 64, 54
1, 951677, Control_c, 0, 64, 60
1, 951692, Control_c, 0, 64, 63
1, 951707, Control_c, 0, 64, 65
1, 951722, Control_c, 0, 64, 67
1, 951736, Control_c, 0, 64, 69
1, 951751, Control_c, 0, 64, 70
1, 951760, Note_on_c, 0, 31, 47
1, 951766, Control_c, 0, 64, 72
1, 951781, Control_c, 0, 64, 74
1, 951796, Control_c, 0, 64, 77
1, 951803, Note_off_c, 0, 31, 49
1, 951810, Control_c, 0, 64, 79
1, 951825, Control_c, 0, 64, 81
1, 951840, Control_c, 0, 64, 82
1, 951855, Control_c, 0, 64, 83
1, 951870, Control_c, 0, 64, 84
1, 951884, Control_c, 0, 64, 85
1, 951899, Control_c, 0, 64, 86
1, 951914, Control_c, 0, 64, 87
1, 951929, Control_c, 0, 64, 88
1, 951943, Control_c, 0, 64, 88
1, 952011, Note_on_c, 0, 59, 37
1, 952042, Note_on_c, 0, 53, 39
1, 952056, Note_on_c, 0, 31, 32
1, 952145, Control_c, 0, 64, 87
1, 952160, Control_c, 0, 64, 84
1, 952175, Control_c, 0, 64, 79
1, 952189, Control_c, 0, 64, 70
1, 952204, Control_c, 0, 64, 61
1, 952209, Note_off_c, 0, 55, 41
1, 952219, Control_c, 0, 64, 31
1, 952233, Control_c, 0, 64, 0
1, 952242, Note_off_c, 0, 58, 34
1, 952307, Control_c, 0, 64, 51
1, 952322, Control_c, 0, 64, 64
1, 952337, Control_c, 0, 64, 69
1, 952352, Control_c, 0, 64, 74
1, 952366, Control_c, 0, 64, 80
1, 952381, Control_c, 0, 64, 86
1, 952396, Control_c, 0, 64, 91
1, 952411, Control_c, 0, 64, 97
1, 952426, Control_c, 0, 64, 103
1, 952440, Control_c, 0, 64, 108
1, 952455, Control_c, 0, 64, 113
1, 952470, Control_c, 0, 64, 121
1, 952485, Control_c, 0, 64, 127
1, 952624, Note_on_c, 0, 47, 31
1, 952746, Note_off_c, 0, 47, 35
1, 952784, Note_off_c, 0, 53, 42
1, 953111, Note_on_c, 0, 55, 41
1, 953191, Note_off_c, 0, 55, 57
1, 953224, Note_on_c, 0, 57, 45
1, 953256, Note_off_c, 0, 59, 29
1, 953266, Note_off_c, 0, 31, 40
1, 953278, Note_off_c, 0, 57, 58
1, 953404, Note_on_c, 0, 59, 43
1, 953471, Control_c, 0, 64, 106
1, 953486, Control_c, 0, 64, 84
1, 953489, Note_off_c, 0, 59, 57
1, 953501, Control_c, 0, 64, 74
1, 953505, Note_on_c, 0, 60, 48
1, 953516, Control_c, 0, 64, 72
1, 953519, Note_on_c, 0, 31, 40
1, 953530, Control_c, 0, 64, 76
1, 953545, Control_c, 0, 64, 82
1, 953560, Note_off_c, 0, 31, 61
1, 953560, Control_c, 0, 64, 91
1, 953582, Control_c, 0, 64, 105
1, 953597, Note_off_c, 0, 60, 59
1, 953597, Control_c, 0, 64, 127
1, 953615, Note_on_c, 0, 62, 45
1, 953669, Note_off_c, 0, 62, 60
1, 953791, Note_on_c, 0, 64, 48
1, 953844, Note_off_c, 0, 64, 58
1, 953850, Control_c, 0, 64, 123
1, 953860, Note_on_c, 0, 65, 52
1, 953862, Note_on_c, 0, 60, 52
1, 953865, Control_c, 0, 64, 87
1, 953874, Note_on_c, 0, 50, 36
1, 953880, Control_c, 0, 64, 71
1, 953894, Control_c, 0, 64, 66
1, 953902, Note_on_c, 0, 55, 34
1, 953909, Control_c, 0, 64, 70
1, 953924, Control_c, 0, 64, 76
1, 953939, Control_c, 0, 64, 86
1, 953944, Note_off_c, 0, 65, 56
1, 953950, Note_on_c, 0, 67, 56
1, 953953, Control_c, 0, 64, 102
1, 953968, Control_c, 0, 64, 127
1, 954003, Note_off_c, 0, 67, 56
1, 954113, Note_on_c, 0, 69, 54
1, 954160, Control_c, 0, 64, 87
1, 954175, Control_c, 0, 64, 67
1, 954176, Note_off_c, 0, 60, 63
1, 954176, Note_off_c, 0, 69, 61
1, 954181, Note_on_c, 0, 59, 54
1, 954181, Note_on_c, 0, 67, 58
1, 954190, Control_c, 0, 64, 64
1, 954205, Control_c, 0, 64, 68
1, 954211, Note_off_c, 0, 59, 63
1, 954213, Note_off_c, 0, 55, 58
1, 954220, Control_c, 0, 64, 76
1, 954235, Control_c, 0, 64, 88
1, 954250, Control_c, 0, 64, 114
1, 954250, Note_off_c, 0, 67, 61
1, 954259, Note_off_c, 0, 50, 56
1, 954265, Control_c, 0, 64, 127
1, 954265, Note_on_c, 0, 69, 58
1, 954309, Note_off_c, 0, 69, 58
1, 954417, Note_on_c, 0, 71, 63
1, 954435, Control_c, 0, 64, 107
1, 954450, Control_c, 0, 64, 80
1, 954465, Control_c, 0, 64, 64
1, 954467, Note_off_c, 0, 71, 57
1, 954479, Note_on_c, 0, 31, 60
1, 954479, Note_on_c, 0, 72, 66
1, 954480, Control_c, 0, 64, 66
1, 954495, Control_c, 0, 64, 75
1, 954509, Control_c, 0, 64, 91
1, 954515, Note_off_c, 0, 31, 64
1, 954524, Control_c, 0, 64, 127
1, 954553, Note_off_c, 0, 72, 62
1, 954569, Note_on_c, 0, 74, 63
1, 954627, Note_off_c, 0, 74, 64
1, 954712, Note_on_c, 0, 76, 62
1, 954747, Control_c, 0, 64, 95
1, 954761, Control_c, 0, 64, 73
1, 954766, Note_on_c, 0, 60, 58
1, 954769, Note_on_c, 0, 77, 66
1, 954776, Control_c, 0, 64, 62
1, 954782, Note_off_c, 0, 76, 58
1, 954790, Note_on_c, 0, 55, 42
1, 954791, Control_c, 0, 64, 65
1, 954792, Note_on_c, 0, 50, 47
1, 954806, Control_c, 0, 64, 73
1, 954821, Control_c, 0, 64, 88
1, 954835, Control_c, 0, 64, 127
1, 954845, Note_on_c, 0, 79, 71
1, 954859, Note_off_c, 0, 77, 55
1, 954895, Control_c, 0, 67, 126
1, 954899, Note_off_c, 0, 79, 62
1, 954909, Control_c, 0, 67, 123
1, 954924, Control_c, 0, 67, 121
1, 954939, Control_c, 0, 67, 118
1, 954953, Control_c, 0, 67, 115
1, 954968, Control_c, 0, 67, 113
1, 954983, Control_c, 0, 67, 111
1, 954996, Note_on_c, 0, 81, 72
1, 954998, Control_c, 0, 64, 103
1, 954998, Control_c, 0, 67, 109
1, 955013, Control_c, 0, 64, 78
1, 955013, Control_c, 0, 67, 106
1, 955028, Control_c, 0, 64, 64
1, 955028, Control_c, 0, 67, 103
1, 955043, Control_c, 0, 64, 67
1, 955043, Control_c, 0, 67, 98
1, 955058, Control_c, 0, 64, 77
1, 955058, Control_c, 0, 67, 93
1, 955059, Note_off_c, 0, 60, 64
1, 955061, Note_off_c, 0, 81, 64
1, 955064, Note_on_c, 0, 59, 56
1, 955064, Note_on_c, 0, 79, 75
1, 955080, Control_c, 0, 64, 98
1, 955080, Control_c, 0, 67, 89
1, 955090, Note_off_c, 0, 55, 63
1, 955095, Control_c, 0, 64, 127
1, 955095, Control_c, 0, 67, 84
1, 955100, Note_off_c, 0, 59, 64
1, 955109, Control_c, 0, 67, 80
1, 955124, Control_c, 0, 67, 76
1, 955135, Note_off_c, 0, 50, 65
1, 955139, Control_c, 0, 67, 73
1, 955142, Note_off_c, 0, 79, 61
1, 955146, Note_on_c, 0, 81, 73
1, 955153, Control_c, 0, 67, 72
1, 955168, Note_off_c, 0, 81, 66
1, 955168, Control_c, 0, 67, 71
1, 955198, Control_c, 0, 67, 72
1, 955213, Control_c, 0, 67, 73
1, 955228, Control_c, 0, 67, 74
1, 955243, Control_c, 0, 67, 75
1, 955258, Control_c, 0, 67, 76
1, 955273, Control_c, 0, 67, 77
1, 955288, Control_c, 0, 64, 94
1, 955288, Control_c, 0, 67, 77
1, 955291, Note_on_c, 0, 83, 68
1, 955303, Control_c, 0, 64, 72
1, 955303, Control_c, 0, 67, 78
1, 955318, Control_c, 0, 64, 49
1, 955318, Control_c, 0, 67, 78
1, 955332, Control_c, 0, 64, 62
1, 955332, Control_c, 0, 67, 79
1, 955346, Note_on_c, 0, 84, 75
1, 955347, Note_on_c, 0, 31, 61
1, 955347, Control_c, 0, 64, 72
1, 955347, Control_c, 0, 67, 80
1, 955362, Note_off_c, 0, 83, 54
1, 955362, Control_c, 0, 64, 88
1, 955377, Control_c, 0, 64, 127
1, 955377, Control_c, 0, 67, 80
1, 955386, Note_off_c, 0, 31, 62
1, 955406, Control_c, 0, 67, 81
1, 955416, Note_off_c, 0, 84, 63
1, 955424, Note_on_c, 0, 81, 73
1, 955436, Control_c, 0, 67, 81
1, 955451, Control_c, 0, 67, 82
1, 955462, Note_off_c, 0, 81, 60
1, 955466, Control_c, 0, 67, 83
1, 955481, Control_c, 0, 67, 84
1, 955496, Control_c, 0, 67, 86
1, 955511, Control_c, 0, 67, 87
1, 955526, Control_c, 0, 67, 88
1, 955555, Control_c, 0, 67, 88
1, 955574, Note_on_c, 0, 79, 67
1, 955599, Control_c, 0, 67, 89
1, 955614, Control_c, 0, 67, 89
1, 955629, Control_c, 0, 64, 90
1, 955629, Control_c, 0, 67, 90
1, 955635, Note_on_c, 0, 52, 60
1, 955639, Note_on_c, 0, 76, 69
1, 955642, Note_on_c, 0, 48, 55
1, 955644, Control_c, 0, 64, 68
1, 955653, Note_off_c, 0, 79, 58
1, 955658, Control_c, 0, 64, 57
1, 955673, Control_c, 0, 64, 65
1, 955688, Control_c, 0, 64, 76
1, 955703, Control_c, 0, 64, 92
1, 955705, Note_off_c, 0, 76, 61
1, 955718, Control_c, 0, 64, 127
1, 955730, Note_on_c, 0, 72, 61
1, 955755, Note_off_c, 0, 72, 67
1, 955762, Control_c, 0, 67, 89
1, 955782, Note_off_c, 0, 52, 61
1, 955791, Control_c, 0, 67, 89
1, 955872, Note_on_c, 0, 69, 67
1, 955932, Control_c, 0, 64, 113
1, 955945, Note_on_c, 0, 55, 79
1, 955947, Note_on_c, 0, 67, 73
1, 955947, Control_c, 0, 64, 83
1, 955949, Note_on_c, 0, 52, 71
1, 955958, Note_off_c, 0, 69, 59
1, 955962, Control_c, 0, 64, 66
1, 955962, Control_c, 0, 67, 89
1, 955977, Control_c, 0, 64, 59
1, 955991, Control_c, 0, 64, 66
1, 955991, Control_c, 0, 67, 90
1, 956001, Note_off_c, 0, 67, 62
1, 956006, Control_c, 0, 64, 75
1, 956021, Control_c, 0, 64, 89
1, 956026, Note_on_c, 0, 64, 66
1, 956030, Note_off_c, 0, 48, 53
1, 956036, Control_c, 0, 64, 123
1, 956052, Control_c, 0, 64, 127
1, 956052, Control_c, 0, 67, 89
1, 956062, Note_off_c, 0, 64, 61
1, 956205, Note_on_c, 0, 60, 72
1, 956244, Control_c, 0, 67, 90
1, 956259, Control_c, 0, 67, 90
1, 956286, Note_off_c, 0, 60, 61
1, 956289, Control_c, 0, 64, 99
1, 956289, Control_c, 0, 67, 91
1, 956292, Note_on_c, 0, 57, 71
1, 956300, Note_on_c, 0, 59, 63
1, 956301, Note_on_c, 0, 53, 61
1, 956304, Control_c, 0, 64, 74
1, 956307, Note_off_c, 0, 52, 53
1, 956319, Control_c, 0, 64, 0
1, 956319, Control_c, 0, 67, 91
1, 956331, Note_off_c, 0, 55, 61
1, 956334, Control_c, 0, 67, 92
1, 956348, Control_c, 0, 67, 92
1, 956407, Control_c, 0, 64, 59
1, 956422, Control_c, 0, 64, 71
1, 956422, Control_c, 0, 67, 92
1, 956437, Control_c, 0, 64, 83
1, 956452, Control_c, 0, 64, 117
1, 956452, Control_c, 0, 67, 91
1, 956467, Control_c, 0, 64, 127
1, 956607, Control_c, 0, 67, 92
1, 956637, Control_c, 0, 67, 92
1, 956650, Note_off_c, 0, 57, 59
1, 956652, Control_c, 0, 67, 93
1, 956659, Note_on_c, 0, 55, 64
1, 956667, Control_c, 0, 64, 92
1, 956669, Note_on_c, 0, 52, 54
1, 956672, Note_off_c, 0, 53, 61
1, 956681, Control_c, 0, 64, 71
1, 956681, Control_c, 0, 67, 93
1, 956696, Control_c, 0, 64, 11
1, 956696, Control_c, 0, 67, 94
1, 956711, Control_c, 0, 64, 0
1, 956711, Control_c, 0, 67, 94
1, 956740, Control_c, 0, 64, 59
1, 956755, Control_c, 0, 64, 68
1, 956770, Control_c, 0, 64, 80
1, 956785, Control_c, 0, 64, 103
1, 956799, Control_c, 0, 64, 127
1, 956799, Control_c, 0, 67, 94
1, 956885, Note_off_c, 0, 55, 59
1, 956963, Control_c, 0, 64, 89
1, 956963, Control_c, 0, 67, 94
1, 956978, Control_c, 0, 64, 71
1, 956983, Note_off_c, 0, 52, 56
1, 956986, Note_on_c, 0, 53, 54
1, 956993, Control_c, 0, 64, 66
1, 957000, Note_on_c, 0, 55, 56
1, 957001, Note_on_c, 0, 50, 53
1, 957008, Control_c, 0, 64, 72
1, 957008, Control_c, 0, 67, 95
1, 957022, Control_c, 0, 64, 82
1, 957034, Note_off_c, 0, 53, 66
1, 957037, Control_c, 0, 64, 100
1, 957052, Note_off_c, 0, 50, 63
1, 957052, Control_c, 0, 64, 127
1, 957055, Note_off_c, 0, 55, 63
1, 957070, Note_on_c, 0, 57, 62
1, 957080, Note_off_c, 0, 59, 25
1, 957103, Note_off_c, 0, 57, 63
1, 957186, Control_c, 0, 67, 95
1, 957207, Note_on_c, 0, 59, 63
1, 957216, Control_c, 0, 67, 96
1, 957230, Control_c, 0, 64, 121
1, 957245, Control_c, 0, 64, 81
1, 957260, Control_c, 0, 64, 53
1, 957275, Control_c, 0, 64, 0
1, 957275, Note_off_c, 0, 59, 60
1, 957278, Note_on_c, 0, 60, 63
1, 957279, Note_on_c, 0, 31, 64
1, 957304, Control_c, 0, 64, 32
1, 957319, Control_c, 0, 64, 68
1, 957319, Control_c, 0, 67, 96
1, 957341, Control_c, 0, 64, 83
1, 957341, Control_c, 0, 67, 96
1, 957345, Note_off_c, 0, 31, 61
1, 957356, Control_c, 0, 64, 122
1, 957359, Note_off_c, 0, 60, 64
1, 957371, Note_on_c, 0, 62, 69
1, 957371, Control_c, 0, 64, 127
1, 957411, Note_off_c, 0, 62, 60
1, 957431, Control_c, 0, 67, 95
1, 957490, Control_c, 0, 67, 95
1, 957526, Note_on_c, 0, 64, 58
1, 957550, Control_c, 0, 67, 95
1, 957564, Control_c, 0, 67, 96
1, 957579, Control_c, 0, 64, 110
1, 957590, Note_on_c, 0, 65, 65
1, 957593, Note_off_c, 0, 64, 62
1, 957594, Control_c, 0, 64, 75
1, 957597, Note_on_c, 0, 50, 51
1, 957600, Note_on_c, 0, 57, 47
1, 957609, Control_c, 0, 64, 21
1, 957609, Control_c, 0, 67, 96
1, 957621, Note_on_c, 0, 48, 43
1, 957624, Control_c, 0, 64, 0
1, 957638, Control_c, 0, 67, 96
1, 957654, Control_c, 0, 64, 55
1, 957669, Control_c, 0, 64, 69
1, 957669, Control_c, 0, 67, 95
1, 957674, Note_off_c, 0, 65, 62
1, 957684, Control_c, 0, 64, 82
1, 957684, Note_on_c, 0, 71, 64
1, 957699, Control_c, 0, 64, 127
1, 957699, Control_c, 0, 67, 94
1, 957720, Note_off_c, 0, 57, 54
1, 957728, Control_c, 0, 67, 94
1, 957733, Note_off_c, 0, 71, 57
1, 957817, Control_c, 0, 67, 94
1, 957839, Note_on_c, 0, 69, 63
1, 957876, Control_c, 0, 64, 98
1, 957891, Control_c, 0, 64, 69
1, 957891, Control_c, 0, 67, 95
1, 957901, Note_on_c, 0, 55, 54
1, 957901, Note_on_c, 0, 67, 65
1, 957905, Note_on_c, 0, 47, 49
1, 957905, Note_off_c, 0, 69, 61
1, 957906, Control_c, 0, 64, 0
1, 957935, Control_c, 0, 64, 54
1, 957943, Note_off_c, 0, 55, 64
1, 957945, Note_off_c, 0, 50, 65
1, 957950, Control_c, 0, 64, 70
1, 957953, Note_off_c, 0, 48, 43
1, 957953, Note_off_c, 0, 67, 59
1, 957965, Control_c, 0, 64, 87
1, 957972, Note_on_c, 0, 62, 60
1, 957977, Note_off_c, 0, 47, 65
1, 957979, Control_c, 0, 64, 127
1, 958027, Note_off_c, 0, 62, 59
1, 958091, Control_c, 0, 67, 95
1, 958106, Control_c, 0, 67, 96
1, 958111, Note_on_c, 0, 63, 61
1, 958121, Control_c, 0, 67, 96
1, 958150, Control_c, 0, 64, 88
1, 958150, Control_c, 0, 67, 97
1, 958161, Note_off_c, 0, 63, 58
1, 958165, Control_c, 0, 64, 62
1, 958165, Control_c, 0, 67, 97
1, 958179, Control_c, 0, 64, 0
1, 958181, Note_on_c, 0, 31, 64
1, 958187, Note_on_c, 0, 64, 70
1, 958194, Control_c, 0, 67, 98
1, 958209, Control_c, 0, 64, 38
1, 958216, Note_off_c, 0, 31, 62
1, 958224, Control_c, 0, 64, 68
1, 958239, Control_c, 0, 64, 82
1, 958241, Note_off_c, 0, 64, 60
1, 958252, Note_on_c, 0, 72, 70
1, 958253, Control_c, 0, 64, 110
1, 958268, Control_c, 0, 64, 127
1, 958268, Control_c, 0, 67, 97
1, 958283, Control_c, 0, 67, 97
1, 958305, Note_off_c, 0, 72, 64
1, 958328, Control_c, 0, 67, 96
1, 958372, Control_c, 0, 67, 97
1, 958402, Control_c, 0, 67, 97
1, 958432, Control_c, 0, 67, 98
1, 958444, Note_on_c, 0, 76, 66
1, 958462, Control_c, 0, 67, 98
1, 958477, Control_c, 0, 67, 99
1, 958492, Control_c, 0, 64, 104
1, 958507, Control_c, 0, 64, 76
1, 958507, Control_c, 0, 67, 100
1, 958512, Note_on_c, 0, 50, 45
1, 958512, Note_off_c, 0, 76, 60
1, 958517, Note_on_c, 0, 57, 40
1, 958518, Note_on_c, 0, 77, 62
1, 958522, Control_c, 0, 64, 47
1, 958522, Control_c, 0, 67, 101
1, 958524, Note_on_c, 0, 48, 37
1, 958536, Control_c, 0, 64, 0
1, 958536, Control_c, 0, 67, 102
1, 958551, Control_c, 0, 64, 53
1, 958551, Control_c, 0, 67, 102
1, 958566, Control_c, 0, 64, 68
1, 958581, Control_c, 0, 64, 80
1, 958581, Control_c, 0, 67, 103
1, 958583, Note_off_c, 0, 77, 64
1, 958592, Note_on_c, 0, 83, 67
1, 958595, Control_c, 0, 64, 105
1, 958610, Control_c, 0, 64, 127
1, 958610, Control_c, 0, 67, 103
1, 958621, Note_off_c, 0, 83, 64
1, 958625, Control_c, 0, 67, 104
1, 958640, Control_c, 0, 67, 104
1, 958641, Note_off_c, 0, 57, 50
1, 958669, Control_c, 0, 67, 105
1, 958684, Control_c, 0, 67, 105
1, 958699, Control_c, 0, 67, 107
1, 958714, Control_c, 0, 67, 109
1, 958729, Control_c, 0, 67, 111
1, 958742, Note_on_c, 0, 81, 65
1, 958743, Control_c, 0, 67, 113
1, 958758, Control_c, 0, 64, 90
1, 958758, Control_c, 0, 67, 114
1, 958773, Control_c, 0, 64, 69
1, 958773, Control_c, 0, 67, 115
1, 958788, Control_c, 0, 64, 30
1, 958788, Control_c, 0, 67, 115
1, 958799, Note_off_c, 0, 48, 40
1, 958802, Control_c, 0, 64, 27
1, 958802, Control_c, 0, 67, 116
1, 958809, Note_off_c, 0, 81, 60
1, 958814, Note_on_c, 0, 79, 58
1, 958815, Note_on_c, 0, 55, 48
1, 958824, Note_on_c, 0, 47, 39
1, 958825, Control_c, 0, 64, 63
1, 958825, Control_c, 0, 67, 117
1, 958840, Control_c, 0, 64, 75
1, 958840, Control_c, 0, 67, 118
1, 958855, Note_off_c, 0, 50, 64
1, 958855, Control_c, 0, 64, 92
1, 958855, Control_c, 0, 67, 118
1, 958864, Note_off_c, 0, 55, 62
1, 958870, Control_c, 0, 64, 127
1, 958870, Control_c, 0, 67, 119
1, 958870, Note_off_c, 0, 79, 60
1, 958884, Control_c, 0, 67, 120
1, 958889, Note_on_c, 0, 74, 68
1, 958894, Note_off_c, 0, 47, 62
1, 958899, Control_c, 0, 67, 121
1, 958927, Control_c, 0, 67, 121
1, 958930, Note_off_c, 0, 74, 58
1, 958942, Control_c, 0, 67, 122
1, 958957, Control_c, 0, 67, 123
1, 958972, Control_c, 0, 67, 125
1, 958987, Control_c, 0, 67, 127
1, 959001, Control_c, 0, 67, 127
1, 959022, Note_on_c, 0, 75, 63
1, 959046, Control_c, 0, 64, 91
1, 959061, Control_c, 0, 64, 69
1, 959076, Control_c, 0, 64, 0
1, 959091, Control_c, 0, 64, 38
1, 959097, Note_on_c, 0, 76, 69
1, 959101, Note_off_c, 0, 75, 53
1, 959105, Note_on_c, 0, 31, 57
1, 959106, Control_c, 0, 64, 65
1, 959120, Control_c, 0, 64, 78
1, 959135, Control_c, 0, 64, 101
1, 959150, Control_c, 0, 64, 127
1, 959160, Note_off_c, 0, 31, 61
1, 959165, Note_on_c, 0, 72, 65
1, 959165, Note_off_c, 0, 76, 61
1, 959193, Note_off_c, 0, 72, 64
1, 959329, Note_on_c, 0, 69, 60
1, 959373, Control_c, 0, 64, 90
1, 959388, Control_c, 0, 64, 67
1, 959394, Note_on_c, 0, 67, 64
1, 959403, Note_on_c, 0, 48, 50
1, 959403, Control_c, 0, 64, 0
1, 959406, Note_on_c, 0, 52, 49
1, 959415, Note_off_c, 0, 69, 60
1, 959432, Control_c, 0, 64, 60
1, 959447, Control_c, 0, 64, 71
1, 959448, Note_off_c, 0, 67, 61
1, 959462, Control_c, 0, 64, 87
1, 959470, Note_on_c, 0, 64, 65
1, 959477, Control_c, 0, 64, 127
1, 959499, Note_off_c, 0, 64, 67
1, 959521, Note_off_c, 0, 52, 57
1, 959629, Note_on_c, 0, 60, 62
1, 959662, Control_c, 0, 64, 84
1, 959669, Note_off_c, 0, 60, 59
1, 959676, Control_c, 0, 64, 64
1, 959691, Control_c, 0, 64, 0
1, 959696, Note_on_c, 0, 57, 66
1, 959699, Note_on_c, 0, 55, 63
1, 959705, Control_c, 0, 64, 57
1, 959707, Note_on_c, 0, 52, 54
1, 959712, Note_off_c, 0, 48, 63
1, 959720, Control_c, 0, 64, 69
1, 959727, Note_off_c, 0, 55, 66
1, 959727, Note_off_c, 0, 57, 64
1, 959732, Note_off_c, 0, 52, 59
1, 959735, Control_c, 0, 64, 81
1, 959750, Control_c, 0, 64, 100
1, 959765, Control_c, 0, 64, 127
1, 959772, Note_on_c, 0, 55, 66
1, 959798, Note_off_c, 0, 55, 66
1, 959961, Note_on_c, 0, 52, 58
1, 960055, Note_on_c, 0, 43, 75
1, 960107, Control_c, 0, 64, 91
1, 960121, Control_c, 0, 64, 71
1, 960136, Control_c, 0, 64, 19
1, 960151, Control_c, 0, 64, 0
1, 960158, Note_on_c, 0, 50, 51
1, 960165, Control_c, 0, 67, 127
1, 960180, Control_c, 0, 67, 126
1, 960188, Note_on_c, 0, 47, 45
1, 960195, Control_c, 0, 67, 125
1, 960210, Control_c, 0, 67, 125
1, 960225, Control_c, 0, 67, 124
1, 960240, Control_c, 0, 64, 58
1, 960240, Control_c, 0, 67, 123
1, 960244, Note_off_c, 0, 52, 37
1, 960254, Control_c, 0, 64, 71
1, 960254, Control_c, 0, 67, 122
1, 960269, Control_c, 0, 64, 83
1, 960269, Control_c, 0, 67, 120
1, 960284, Control_c, 0, 64, 104
1, 960284, Control_c, 0, 67, 119
1, 960299, Control_c, 0, 64, 127
1, 960299, Control_c, 0, 67, 118
1, 960314, Control_c, 0, 67, 117
1, 960336, Control_c, 0, 67, 115
1, 960351, Control_c, 0, 67, 114
1, 960366, Control_c, 0, 67, 111
1, 960380, Control_c, 0, 67, 109
1, 960395, Control_c, 0, 67, 106
1, 960409, Note_off_c, 0, 47, 63
1, 960410, Control_c, 0, 67, 103
1, 960425, Control_c, 0, 67, 101
1, 960440, Control_c, 0, 67, 99
1, 960454, Control_c, 0, 67, 97
1, 960469, Control_c, 0, 67, 96
1, 960484, Control_c, 0, 67, 94
1, 960498, Control_c, 0, 67, 92
1, 960512, Note_off_c, 0, 50, 65
1, 960513, Control_c, 0, 67, 91
1, 960528, Control_c, 0, 67, 90
1, 960532, Note_on_c, 0, 52, 74
1, 960543, Control_c, 0, 67, 89
1, 960558, Control_c, 0, 67, 89
1, 960572, Control_c, 0, 64, 108
1, 960572, Control_c, 0, 67, 88
1, 960587, Control_c, 0, 64, 77
1, 960602, Control_c, 0, 64, 59
1, 960602, Control_c, 0, 67, 88
1, 960617, Control_c, 0, 64, 55
1, 960632, Control_c, 0, 64, 65
1, 960632, Control_c, 0, 67, 87
1, 960647, Control_c, 0, 64, 72
1, 960647, Control_c, 0, 67, 87
1, 960662, Control_c, 0, 64, 81
1, 960662, Control_c, 0, 67, 86
1, 960677, Control_c, 0, 64, 97
1, 960677, Control_c, 0, 67, 86
1, 960691, Control_c, 0, 64, 127
1, 960691, Control_c, 0, 67, 85
1, 960706, Control_c, 0, 67, 84
1, 960721, Control_c, 0, 67, 82
1, 960736, Control_c, 0, 67, 80
1, 960751, Control_c, 0, 67, 78
1, 960763, Note_off_c, 0, 52, 60
1, 960765, Control_c, 0, 67, 76
1, 960780, Control_c, 0, 67, 75
1, 960795, Control_c, 0, 67, 74
1, 960810, Control_c, 0, 67, 74
1, 960825, Control_c, 0, 67, 73
1, 960841, Control_c, 0, 67, 73
1, 960859, Note_on_c, 0, 50, 81
1, 960872, Note_on_c, 0, 41, 73
1, 960900, Control_c, 0, 67, 72
1, 960902, Note_off_c, 0, 43, 63
1, 960915, Control_c, 0, 64, 88
1, 960930, Control_c, 0, 64, 62
1, 960944, Control_c, 0, 64, 0
1, 960988, Control_c, 0, 64, 53
1, 961003, Control_c, 0, 64, 68
1, 961017, Note_off_c, 0, 41, 63
1, 961018, Control_c, 0, 64, 82
1, 961018, Control_c, 0, 67, 72
1, 961033, Control_c, 0, 64, 110
1, 961048, Control_c, 0, 64, 127
1, 961199, Note_on_c, 0, 48, 84
1, 961240, Note_on_c, 0, 40, 60
1, 961255, Note_off_c, 0, 50, 61
1, 961263, Control_c, 0, 64, 96
1, 961277, Control_c, 0, 64, 71
1, 961292, Control_c, 0, 64, 0
1, 961321, Control_c, 0, 67, 72
1, 961535, Note_on_c, 0, 55, 73
1, 961588, Control_c, 0, 64, 61
1, 961588, Control_c, 0, 67, 72
1, 961603, Control_c, 0, 64, 69
1, 961618, Control_c, 0, 64, 78
1, 961618, Control_c, 0, 67, 71
1, 961633, Control_c, 0, 64, 94
1, 961633, Control_c, 0, 67, 71
1, 961648, Control_c, 0, 64, 127
1, 961653, Note_off_c, 0, 55, 64
1, 961663, Control_c, 0, 67, 70
1, 961693, Control_c, 0, 67, 70
1, 961708, Control_c, 0, 67, 69
1, 961723, Control_c, 0, 67, 67
1, 961727, Note_off_c, 0, 40, 61
1, 961737, Control_c, 0, 67, 65
1, 961752, Control_c, 0, 67, 64
1, 961767, Control_c, 0, 67, 62
1, 961782, Control_c, 0, 67, 60
1, 961797, Control_c, 0, 67, 59
1, 961818, Control_c, 0, 67, 58
1, 961825, Note_off_c, 0, 48, 58
1, 961833, Control_c, 0, 67, 58
1, 961862, Note_on_c, 0, 55, 75
1, 961866, Note_on_c, 0, 43, 54
1, 961896, Note_on_c, 0, 38, 56
1, 961906, Note_on_c, 0, 53, 51
1, 961923, Control_c, 0, 64, 90
1, 961938, Control_c, 0, 64, 68
1, 961952, Control_c, 0, 64, 0
1, 961982, Control_c, 0, 64, 31
1, 961982, Control_c, 0, 67, 57
1, 961997, Control_c, 0, 64, 64
1, 962003, Note_off_c, 0, 43, 60
1, 962012, Control_c, 0, 64, 73
1, 962026, Control_c, 0, 64, 87
1, 962041, Control_c, 0, 64, 127
1, 962056, Control_c, 0, 67, 57
1, 962071, Control_c, 0, 67, 56
1, 962087, Note_off_c, 0, 53, 64
1, 962100, Control_c, 0, 67, 56
1, 962115, Control_c, 0, 67, 54
1, 962130, Control_c, 0, 67, 53
1, 962144, Control_c, 0, 67, 53
1, 962159, Control_c, 0, 67, 52
1, 962189, Control_c, 0, 67, 51
1, 962198, Note_off_c, 0, 55, 63
1, 962204, Control_c, 0, 67, 51
1, 962218, Control_c, 0, 67, 50
1, 962245, Note_off_c, 0, 38, 62
1, 962254, Note_on_c, 0, 55, 66
1, 962274, Note_on_c, 0, 36, 58
1, 962285, Note_on_c, 0, 52, 54
1, 962286, Note_on_c, 0, 43, 48
1, 962307, Control_c, 0, 64, 97
1, 962322, Control_c, 0, 64, 71
1, 962337, Control_c, 0, 64, 0
1, 962382, Control_c, 0, 64, 37
1, 962397, Control_c, 0, 64, 65
1, 962411, Control_c, 0, 64, 77
1, 962411, Control_c, 0, 67, 50
1, 962426, Control_c, 0, 64, 102
1, 962426, Control_c, 0, 67, 49
1, 962441, Control_c, 0, 64, 127
1, 962441, Control_c, 0, 67, 48
1, 962456, Control_c, 0, 67, 45
1, 962471, Control_c, 0, 67, 40
1, 962486, Control_c, 0, 67, 36
1, 962501, Control_c, 0, 67, 32
1, 962516, Control_c, 0, 67, 28
1, 962522, Note_off_c, 0, 43, 41
1, 962531, Control_c, 0, 67, 25
1, 962546, Control_c, 0, 67, 22
1, 962567, Control_c, 0, 67, 20
1, 962582, Control_c, 0, 67, 18
1, 962597, Control_c, 0, 67, 16
1, 962612, Control_c, 0, 67, 15
1, 962627, Control_c, 0, 67, 14
1, 962641, Control_c, 0, 67, 13
1, 962653, Note_on_c, 0, 64, 87
1, 962663, Note_on_c, 0, 43, 48
1, 962844, Note_off_c, 0, 43, 34
1, 962849, Control_c, 0, 67, 14
1, 962864, Control_c, 0, 67, 14
1, 962879, Control_c, 0, 67, 15
1, 962881, Note_off_c, 0, 64, 60
1, 962887, Note_off_c, 0, 52, 60
1, 962893, Control_c, 0, 67, 15
1, 962908, Control_c, 0, 67, 16
1, 962923, Control_c, 0, 67, 16
1, 962938, Control_c, 0, 67, 17
1, 962953, Control_c, 0, 67, 18
1, 962965, Note_on_c, 0, 62, 84
1, 962967, Control_c, 0, 67, 18
1, 962982, Control_c, 0, 64, 111
1, 962982, Control_c, 0, 67, 19
1, 962988, Note_on_c, 0, 35, 54
1, 962990, Note_on_c, 0, 43, 47
1, 962995, Note_on_c, 0, 50, 60
1, 962997, Control_c, 0, 64, 80
1, 962997, Control_c, 0, 67, 19
1, 963012, Control_c, 0, 64, 63
1, 963027, Control_c, 0, 64, 63
1, 963041, Control_c, 0, 64, 67
1, 963052, Note_off_c, 0, 36, 48
1, 963056, Control_c, 0, 64, 74
1, 963071, Control_c, 0, 64, 86
1, 963086, Control_c, 0, 64, 108
1, 963100, Control_c, 0, 64, 127
1, 963145, Note_off_c, 0, 50, 51
1, 963145, Note_off_c, 0, 55, 63
1, 963198, Note_off_c, 0, 43, 40
1, 963336, Note_on_c, 0, 60, 81
1, 963361, Control_c, 0, 64, 115
1, 963361, Control_c, 0, 67, 20
1, 963364, Note_off_c, 0, 35, 56
1, 963376, Control_c, 0, 64, 80
1, 963379, Note_on_c, 0, 48, 47
1, 963380, Note_on_c, 0, 33, 49
1, 963390, Control_c, 0, 64, 40
1, 963390, Control_c, 0, 67, 20
1, 963398, Note_on_c, 0, 43, 43
1, 963405, Control_c, 0, 64, 0
1, 963407, Note_off_c, 0, 62, 58
1, 963420, Control_c, 0, 67, 21
1, 963435, Control_c, 0, 67, 21
1, 963450, Control_c, 0, 64, 55
1, 963450, Control_c, 0, 67, 22
1, 963464, Control_c, 0, 64, 68
1, 963476, Note_off_c, 0, 33, 59
1, 963479, Control_c, 0, 64, 80
1, 963479, Control_c, 0, 67, 23
1, 963481, Note_off_c, 0, 48, 49
1, 963494, Control_c, 0, 64, 107
1, 963494, Control_c, 0, 67, 23
1, 963509, Control_c, 0, 64, 127
1, 963509, Control_c, 0, 67, 24
1, 963538, Control_c, 0, 67, 24
1, 963545, Note_off_c, 0, 60, 66
1, 963553, Control_c, 0, 67, 25
1, 963568, Control_c, 0, 67, 25
1, 963583, Control_c, 0, 67, 26
1, 963598, Control_c, 0, 67, 28
1, 963613, Control_c, 0, 67, 30
1, 963614, Note_off_c, 0, 43, 49
1, 963628, Control_c, 0, 67, 32
1, 963643, Control_c, 0, 67, 34
1, 963658, Control_c, 0, 67, 36
1, 963662, Note_on_c, 0, 71, 88
1, 963672, Control_c, 0, 67, 38
1, 963674, Note_on_c, 0, 47, 61
1, 963681, Note_on_c, 0, 59, 65
1, 963687, Control_c, 0, 67, 41
1, 963702, Control_c, 0, 67, 45
1, 963709, Note_off_c, 0, 59, 61
1, 963716, Control_c, 0, 67, 49
1, 963731, Control_c, 0, 67, 54
1, 963746, Control_c, 0, 67, 58
1, 963761, Control_c, 0, 67, 63
1, 963776, Control_c, 0, 67, 66
1, 963790, Control_c, 0, 67, 69
1, 963795, Note_off_c, 0, 47, 63
1, 963801, Note_on_c, 0, 72, 91
1, 963805, Control_c, 0, 67, 70
1, 963816, Note_on_c, 0, 60, 71
1, 963816, Note_on_c, 0, 48, 68
1, 963830, Note_off_c, 0, 71, 65
1, 963882, Note_off_c, 0, 48, 61
1, 963887, Note_off_c, 0, 60, 50
1, 963938, Control_c, 0, 67, 71
1, 963983, Control_c, 0, 67, 71
1, 964042, Note_on_c, 0, 74, 84
1, 964043, Control_c, 0, 67, 72
1, 964065, Note_on_c, 0, 62, 57
1, 964079, Note_on_c, 0, 42, 50
1, 964081, Control_c, 0, 67, 72
1, 964084, Note_on_c, 0, 50, 51
1, 964095, Control_c, 0, 64, 84
1, 964095, Control_c, 0, 67, 73
1, 964096, Note_on_c, 0, 38, 45
1, 964110, Control_c, 0, 64, 61
1, 964110, Control_c, 0, 67, 74
1, 964118, Note_off_c, 0, 72, 56
1, 964125, Control_c, 0, 64, 0
1, 964125, Control_c, 0, 67, 76
1, 964140, Control_c, 0, 67, 77
1, 964154, Control_c, 0, 67, 78
1, 964170, Control_c, 0, 67, 81
1, 964185, Note_off_c, 0, 62, 59
1, 964185, Control_c, 0, 64, 53
1, 964185, Control_c, 0, 67, 83
1, 964200, Control_c, 0, 64, 67
1, 964200, Control_c, 0, 67, 86
1, 964214, Control_c, 0, 64, 77
1, 964214, Control_c, 0, 67, 89
1, 964229, Control_c, 0, 64, 92
1, 964229, Control_c, 0, 67, 93
1, 964244, Control_c, 0, 64, 127
1, 964244, Control_c, 0, 67, 97
1, 964250, Note_off_c, 0, 50, 62
1, 964259, Control_c, 0, 67, 102
1, 964274, Control_c, 0, 67, 109
1, 964288, Control_c, 0, 67, 113
1, 964303, Control_c, 0, 67, 118
1, 964318, Control_c, 0, 67, 122
1, 964333, Control_c, 0, 67, 125
1, 964347, Control_c, 0, 67, 127
1, 964360, Note_on_c, 0, 72, 76
1, 964364, Note_off_c, 0, 74, 55
1, 964370, Note_on_c, 0, 45, 59
1, 964374, Note_on_c, 0, 48, 55
1, 964382, Note_on_c, 0, 60, 56
1, 964382, Note_off_c, 0, 42, 58
1, 964391, Note_off_c, 0, 72, 60
1, 964397, Note_off_c, 0, 45, 65
1, 964401, Note_off_c, 0, 48, 62
1, 964408, Note_off_c, 0, 60, 65
1, 964436, Control_c, 0, 64, 96
1, 964450, Note_on_c, 0, 72, 66
1, 964451, Control_c, 0, 64, 71
1, 964466, Control_c, 0, 64, 0
1, 964471, Note_on_c, 0, 60, 42
1, 964484, Note_on_c, 0, 45, 42
1, 964486, Note_on_c, 0, 48, 30
1, 964510, Control_c, 0, 64, 53
1, 964522, Note_off_c, 0, 60, 0
1, 964522, Note_on_c, 0, 60, 13
1, 964525, Control_c, 0, 64, 65
1, 964540, Control_c, 0, 64, 73
1, 964555, Control_c, 0, 64, 81
1, 964570, Control_c, 0, 64, 93
1, 964585, Control_c, 0, 64, 106
1, 964600, Control_c, 0, 64, 118
1, 964605, Note_off_c, 0, 60, 53
1, 964614, Control_c, 0, 64, 126
1, 964644, Control_c, 0, 64, 127
1, 964677, Note_off_c, 0, 48, 42
1, 964892, Note_on_c, 0, 71, 58
1, 964914, Note_on_c, 0, 43, 42
1, 964922, Note_on_c, 0, 47, 39
1, 964922, Note_on_c, 0, 59, 44
1, 964933, Control_c, 0, 64, 113
1, 964939, Note_off_c, 0, 45, 41
1, 964948, Control_c, 0, 64, 99
1, 964963, Control_c, 0, 64, 81
1, 964977, Control_c, 0, 64, 64
1, 964992, Control_c, 0, 64, 0
1, 965030, Note_off_c, 0, 72, 37
1, 965051, Control_c, 0, 64, 28
1, 965066, Control_c, 0, 64, 63
1, 965081, Control_c, 0, 64, 73
1, 965095, Control_c, 0, 64, 85
1, 965110, Control_c, 0, 64, 111
1, 965125, Control_c, 0, 64, 127
1, 965133, Note_off_c, 0, 59, 50
1, 965144, Note_off_c, 0, 38, 40
1, 965203, Note_off_c, 0, 47, 41
1, 965390, Note_on_c, 0, 72, 58
1, 965413, Note_on_c, 0, 48, 41
1, 965414, Note_on_c, 0, 36, 38
1, 965415, Note_on_c, 0, 45, 39
1, 965423, Note_on_c, 0, 60, 40
1, 965436, Control_c, 0, 64, 98
1, 965451, Control_c, 0, 64, 75
1, 965454, Note_off_c, 0, 71, 37
1, 965466, Control_c, 0, 64, 52
1, 965473, Note_off_c, 0, 43, 41
1, 965480, Control_c, 0, 64, 0
1, 965510, Control_c, 0, 64, 30
1, 965525, Control_c, 0, 64, 61
1, 965540, Control_c, 0, 64, 67
1, 965551, Note_off_c, 0, 60, 43
1, 965562, Control_c, 0, 64, 74
1, 965577, Control_c, 0, 64, 84
1, 965592, Control_c, 0, 64, 98
1, 965607, Control_c, 0, 64, 110
1, 965622, Control_c, 0, 64, 119
1, 965637, Control_c, 0, 64, 121
1, 965667, Control_c, 0, 64, 123
1, 965682, Control_c, 0, 64, 127
1, 965696, Note_off_c, 0, 48, 41
1, 965943, Note_off_c, 0, 45, 43
1, 965953, Note_on_c, 0, 71, 58
1, 965955, Note_on_c, 0, 43, 45
1, 965962, Note_on_c, 0, 47, 38
1, 965969, Note_on_c, 0, 59, 47
1, 965998, Note_off_c, 0, 72, 52
1, 966012, Note_off_c, 0, 59, 57
1, 966016, Note_off_c, 0, 43, 59
1, 966019, Note_off_c, 0, 47, 55
1, 966040, Note_off_c, 0, 71, 58
1, 966139, Note_on_c, 0, 71, 58
1, 966141, Control_c, 0, 64, 122
1, 966153, Note_on_c, 0, 43, 43
1, 966156, Control_c, 0, 64, 97
1, 966164, Note_on_c, 0, 59, 27
1, 966169, Note_on_c, 0, 47, 38
1, 966171, Control_c, 0, 64, 79
1, 966185, Control_c, 0, 64, 64
1, 966200, Control_c, 0, 64, 0
1, 966215, Control_c, 0, 64, 21
1, 966230, Control_c, 0, 64, 57
1, 966245, Control_c, 0, 64, 66
1, 966259, Control_c, 0, 64, 72
1, 966274, Control_c, 0, 64, 79
1, 966289, Control_c, 0, 64, 89
1, 966311, Control_c, 0, 64, 101
1, 966326, Control_c, 0, 64, 115
1, 966333, Note_off_c, 0, 59, 41
1, 966340, Control_c, 0, 64, 127
1, 966364, Note_off_c, 0, 47, 43
1, 966475, Control_c, 0, 64, 111
1, 966489, Control_c, 0, 64, 100
1, 966502, Note_on_c, 0, 69, 64
1, 966504, Control_c, 0, 64, 92
1, 966518, Note_off_c, 0, 71, 40
1, 966519, Control_c, 0, 64, 91
1, 966525, Note_on_c, 0, 41, 45
1, 966529, Note_on_c, 0, 45, 45
1, 966531, Note_on_c, 0, 57, 38
1, 966534, Control_c, 0, 64, 91
1, 966534, Note_off_c, 0, 43, 41
1, 966549, Control_c, 0, 64, 93
1, 966564, Control_c, 0, 64, 94
1, 966569, Note_off_c, 0, 57, 53
1, 966579, Control_c, 0, 64, 95
1, 966585, Note_off_c, 0, 45, 55
1, 966593, Note_off_c, 0, 41, 52
1, 966678, Note_on_c, 0, 40, 54
1, 966680, Note_on_c, 0, 67, 65
1, 966702, Note_off_c, 0, 69, 39
1, 966704, Note_on_c, 0, 55, 43
1, 966706, Note_on_c, 0, 43, 45
1, 966722, Note_off_c, 0, 40, 59
1, 966734, Note_off_c, 0, 55, 61
1, 966749, Note_off_c, 0, 43, 56
1, 966774, Note_off_c, 0, 36, 39
1, 966801, Control_c, 0, 64, 92
1, 966815, Control_c, 0, 64, 78
1, 966830, Control_c, 0, 64, 63
1, 966840, Note_off_c, 0, 67, 60
1, 966845, Control_c, 0, 64, 0
1, 966856, Note_on_c, 0, 37, 52
1, 966856, Note_on_c, 0, 65, 61
1, 966874, Note_on_c, 0, 41, 45
1, 966875, Control_c, 0, 64, 50
1, 966889, Control_c, 0, 64, 66
1, 966898, Note_on_c, 0, 53, 19
1, 966904, Control_c, 0, 64, 72
1, 966919, Control_c, 0, 64, 73
1, 966934, Control_c, 0, 64, 66
1, 966942, Note_off_c, 0, 53, 43
1, 966949, Control_c, 0, 64, 54
1, 966963, Control_c, 0, 64, 0
1, 966990, Note_off_c, 0, 37, 53
1, 966993, Note_off_c, 0, 41, 49
1, 966993, Control_c, 0, 64, 47
1, 967005, Note_on_c, 0, 40, 51
1, 967005, Note_off_c, 0, 65, 57
1, 967007, Note_on_c, 0, 64, 65
1, 967008, Control_c, 0, 64, 63
1, 967023, Control_c, 0, 64, 65
1, 967038, Control_c, 0, 64, 65
1, 967059, Control_c, 0, 64, 66
1, 967074, Control_c, 0, 64, 68
1, 967089, Control_c, 0, 64, 70
1, 967104, Control_c, 0, 64, 74
1, 967114, Poly_aftertouch_c, 0, 52, 0
1, 967119, Control_c, 0, 64, 75
1, 967133, Control_c, 0, 64, 76
1, 967148, Control_c, 0, 64, 76
1, 967165, Note_off_c, 0, 40, 56
1, 967194, Control_c, 0, 64, 76
1, 967208, Control_c, 0, 64, 74
1, 967220, Note_off_c, 0, 64, 52
1, 967223, Control_c, 0, 64, 72
1, 967226, Note_on_c, 0, 65, 51
1, 967235, Note_on_c, 0, 38, 33
1, 967239, Control_c, 0, 64, 66
1, 967250, Note_on_c, 0, 53, 42
1, 967254, Control_c, 0, 64, 49
1, 967264, Note_on_c, 0, 31, 28
1, 967269, Control_c, 0, 64, 0
1, 967372, Control_c, 0, 64, 62
1, 967387, Control_c, 0, 64, 74
1, 967402, Control_c, 0, 64, 86
1, 967409, Note_off_c, 0, 53, 61
1, 967417, Control_c, 0, 64, 114
1, 967431, Control_c, 0, 64, 127
1, 967438, Note_off_c, 0, 31, 47
1, 967467, Note_off_c, 0, 38, 39
1, 967679, Note_on_c, 0, 53, 47
1, 967686, Note_on_c, 0, 57, 46
1, 967743, Control_c, 0, 64, 100
1, 967757, Control_c, 0, 64, 81
1, 967772, Control_c, 0, 64, 75
1, 967787, Control_c, 0, 64, 81
1, 967802, Control_c, 0, 64, 91
1, 967825, Control_c, 0, 64, 106
1, 967839, Control_c, 0, 64, 127
1, 967902, Note_off_c, 0, 57, 35
1, 967936, Note_off_c, 0, 65, 0
1, 967973, Poly_aftertouch_c, 0, 65, 127
1, 967986, Note_off_c, 0, 53, 55
1, 968000, Note_on_c, 0, 55, 55
1, 968002, Control_c, 0, 64, 106
1, 968003, Note_on_c, 0, 52, 46
1, 968009, Note_on_c, 0, 57, 54
1, 968017, Control_c, 0, 64, 88
1, 968026, Note_off_c, 0, 55, 64
1, 968033, Control_c, 0, 64, 84
1, 968036, Note_off_c, 0, 52, 61
1, 968046, Note_off_c, 0, 57, 65
1, 968048, Control_c, 0, 64, 88
1, 968062, Control_c, 0, 64, 100
1, 968065, Note_on_c, 0, 59, 60
1, 968077, Control_c, 0, 64, 127
1, 968086, Note_off_c, 0, 59, 60
1, 968111, Poly_aftertouch_c, 0, 65, 0
1, 968223, Note_on_c, 0, 61, 64
1, 968240, Control_c, 0, 64, 89
1, 968254, Control_c, 0, 64, 65
1, 968269, Control_c, 0, 64, 0
1, 968288, Note_off_c, 0, 61, 61
1, 968296, Note_on_c, 0, 31, 57
1, 968297, Note_on_c, 0, 62, 72
1, 968314, Control_c, 0, 64, 63
1, 968329, Control_c, 0, 64, 75
1, 968342, Note_off_c, 0, 31, 60
1, 968344, Control_c, 0, 64, 101
1, 968358, Note_off_c, 0, 62, 61
1, 968358, Control_c, 0, 64, 127
1, 968364, Note_on_c, 0, 64, 68
1, 968391, Note_off_c, 0, 64, 68
1, 968522, Note_on_c, 0, 65, 65
1, 968551, Control_c, 0, 64, 112
1, 968573, Control_c, 0, 64, 81
1, 968584, Note_on_c, 0, 50, 59
1, 968588, Control_c, 0, 64, 65
1, 968589, Note_on_c, 0, 58, 59
1, 968598, Note_on_c, 0, 67, 75
1, 968602, Note_on_c, 0, 52, 51
1, 968603, Control_c, 0, 64, 64
1, 968604, Note_off_c, 0, 65, 60
1, 968618, Control_c, 0, 64, 71
1, 968633, Control_c, 0, 64, 86
1, 968648, Control_c, 0, 64, 127
1, 968654, Note_off_c, 0, 67, 62
1, 968662, Note_on_c, 0, 69, 72
1, 968689, Note_off_c, 0, 69, 63
1, 968755, Note_off_c, 0, 58, 57
1, 968793, Note_on_c, 0, 70, 72
1, 968838, Note_off_c, 0, 70, 58
1, 968841, Control_c, 0, 64, 99
1, 968856, Control_c, 0, 64, 71
1, 968863, Note_off_c, 0, 50, 39
1, 968865, Note_on_c, 0, 69, 73
1, 968871, Control_c, 0, 64, 0
1, 968877, Note_on_c, 0, 49, 65
1, 968877, Note_on_c, 0, 57, 62
1, 968895, Note_off_c, 0, 52, 58
1, 968900, Control_c, 0, 64, 59
1, 968908, Note_off_c, 0, 57, 64
1, 968915, Control_c, 0, 64, 76
1, 968924, Note_off_c, 0, 49, 63
1, 968929, Note_on_c, 0, 71, 71
1, 968929, Note_off_c, 0, 69, 63
1, 968929, Control_c, 0, 64, 98
1, 968944, Control_c, 0, 64, 127
1, 968957, Note_off_c, 0, 71, 63
1, 969110, Note_on_c, 0, 73, 73
1, 969122, Control_c, 0, 64, 107
1, 969137, Control_c, 0, 64, 74
1, 969151, Control_c, 0, 64, 0
1, 969152, Note_on_c, 0, 31, 70
1, 969166, Control_c, 0, 64, 26
1, 969172, Note_on_c, 0, 74, 83
1, 969179, Note_off_c, 0, 73, 62
1, 969181, Control_c, 0, 64, 66
1, 969193, Note_off_c, 0, 31, 64
1, 969196, Control_c, 0, 64, 84
1, 969211, Control_c, 0, 64, 127
1, 969230, Note_off_c, 0, 74, 63
1, 969239, Note_on_c, 0, 76, 77
1, 969262, Note_off_c, 0, 76, 66
1, 969403, Note_on_c, 0, 77, 76
1, 969440, Control_c, 0, 64, 92
1, 969451, Note_on_c, 0, 50, 66
1, 969454, Note_on_c, 0, 58, 65
1, 969455, Control_c, 0, 64, 66
1, 969456, Note_on_c, 0, 79, 83
1, 969458, Note_on_c, 0, 52, 63
1, 969467, Note_off_c, 0, 77, 63
1, 969469, Control_c, 0, 64, 0
1, 969484, Control_c, 0, 64, 59
1, 969499, Control_c, 0, 64, 72
1, 969514, Control_c, 0, 64, 90
1, 969524, Note_on_c, 0, 81, 79
1, 969525, Note_off_c, 0, 79, 62
1, 969529, Control_c, 0, 64, 127
1, 969571, Note_off_c, 0, 81, 63
1, 969644, Note_off_c, 0, 58, 61
1, 969666, Note_on_c, 0, 82, 85
1, 969707, Control_c, 0, 64, 103
1, 969711, Note_off_c, 0, 50, 59
1, 969714, Note_off_c, 0, 82, 62
1, 969722, Control_c, 0, 64, 74
1, 969729, Note_off_c, 0, 52, 57
1, 969737, Note_on_c, 0, 81, 86
1, 969737, Control_c, 0, 64, 0
1, 969743, Note_on_c, 0, 49, 65
1, 969745, Note_on_c, 0, 57, 63
1, 969766, Control_c, 0, 64, 63
1, 969773, Note_off_c, 0, 57, 65
1, 969776, Note_off_c, 0, 49, 65
1, 969781, Control_c, 0, 64, 78
1, 969791, Note_on_c, 0, 83, 84
1, 969796, Control_c, 0, 64, 114
1, 969804, Note_off_c, 0, 81, 64
1, 969811, Control_c, 0, 64, 127
1, 969838, Note_off_c, 0, 83, 65
1, 969952, Note_on_c, 0, 85, 76
1, 969959, Control_c, 0, 64, 100
1, 969974, Control_c, 0, 64, 71
1, 969989, Control_c, 0, 64, 0
1, 970000, Note_on_c, 0, 31, 70
1, 970004, Control_c, 0, 64, 24
1, 970010, Note_on_c, 0, 86, 81
1, 970019, Control_c, 0, 64, 67
1, 970033, Control_c, 0, 64, 87
1, 970043, Note_off_c, 0, 31, 63
1, 970055, Control_c, 0, 64, 127
1, 970062, Note_off_c, 0, 85, 59
1, 970084, Note_off_c, 0, 86, 66
1, 970093, Note_on_c, 0, 82, 72
1, 970120, Note_off_c, 0, 82, 64
1, 970250, Note_on_c, 0, 81, 66
1, 970293, Control_c, 0, 64, 110
1, 970308, Control_c, 0, 64, 78
1, 970308, Note_on_c, 0, 77, 74
1, 970313, Note_on_c, 0, 53, 58
1, 970314, Note_on_c, 0, 50, 54
1, 970315, Note_off_c, 0, 81, 61
1, 970323, Control_c, 0, 64, 60
1, 970338, Control_c, 0, 64, 62
1, 970353, Control_c, 0, 64, 69
1, 970353, Note_off_c, 0, 77, 62
1, 970367, Control_c, 0, 64, 81
1, 970374, Note_off_c, 0, 53, 56
1, 970382, Control_c, 0, 64, 103
1, 970386, Note_on_c, 0, 74, 62
1, 970397, Control_c, 0, 64, 127
1, 970408, Note_off_c, 0, 74, 65
1, 970542, Note_on_c, 0, 70, 61
1, 970576, Control_c, 0, 64, 92
1, 970585, Note_on_c, 0, 53, 57
1, 970589, Note_on_c, 0, 57, 54
1, 970590, Control_c, 0, 64, 66
1, 970591, Note_on_c, 0, 69, 69
1, 970605, Control_c, 0, 64, 0
1, 970606, Note_off_c, 0, 70, 59
1, 970626, Note_off_c, 0, 53, 61
1, 970635, Control_c, 0, 64, 64
1, 970642, Note_off_c, 0, 69, 63
1, 970649, Note_off_c, 0, 57, 44
1, 970649, Control_c, 0, 64, 77
1, 970664, Control_c, 0, 64, 98
1, 970666, Note_on_c, 0, 65, 67
1, 970679, Control_c, 0, 64, 127
1, 970691, Note_off_c, 0, 65, 69
1, 970841, Note_on_c, 0, 62, 71
1, 970881, Note_off_c, 0, 62, 58
1, 970894, Control_c, 0, 64, 100
1, 970904, Note_on_c, 0, 59, 74
1, 970906, Note_on_c, 0, 57, 64
1, 970907, Note_on_c, 0, 53, 59
1, 970908, Control_c, 0, 64, 65
1, 970923, Control_c, 0, 64, 0
1, 971012, Control_c, 0, 64, 63
1, 971026, Control_c, 0, 64, 75
1, 971041, Control_c, 0, 64, 92
1, 971056, Control_c, 0, 64, 127
1, 971181, Note_off_c, 0, 59, 61
1, 971205, Control_c, 0, 67, 123
1, 971216, Note_off_c, 0, 57, 62
1, 971220, Control_c, 0, 67, 118
1, 971222, Note_on_c, 0, 55, 68
1, 971225, Note_off_c, 0, 53, 64
1, 971229, Note_on_c, 0, 52, 34
1, 971232, Note_off_c, 0, 50, 62
1, 971235, Control_c, 0, 67, 113
1, 971247, Note_off_c, 0, 55, 66
1, 971250, Control_c, 0, 67, 106
1, 971264, Note_off_c, 0, 52, 50
1, 971265, Control_c, 0, 67, 100
1, 971280, Control_c, 0, 67, 94
1, 971295, Control_c, 0, 67, 88
1, 971310, Control_c, 0, 67, 81
1, 971324, Control_c, 0, 67, 75
1, 971339, Control_c, 0, 67, 71
1, 971354, Control_c, 0, 67, 68
1, 971369, Control_c, 0, 67, 67
1, 971473, Control_c, 0, 64, 91
1, 971487, Control_c, 0, 64, 65
1, 971502, Control_c, 0, 64, 0
1, 971507, Note_on_c, 0, 53, 85
1, 971508, Note_on_c, 0, 67, 87
1, 971509, Note_on_c, 0, 47, 78
1, 971509, Note_on_c, 0, 43, 77
1, 971510, Note_on_c, 0, 41, 74
1, 971517, Note_on_c, 0, 62, 77
1, 971517, Control_c, 0, 67, 66
1, 971527, Note_on_c, 0, 55, 65
1, 971531, Control_c, 0, 64, 63
1, 971531, Control_c, 0, 67, 65
1, 971542, Note_off_c, 0, 62, 67
1, 971546, Control_c, 0, 64, 75
1, 971546, Control_c, 0, 67, 62
1, 971548, Note_off_c, 0, 53, 63
1, 971548, Note_off_c, 0, 55, 61
1, 971569, Control_c, 0, 64, 94
1, 971569, Control_c, 0, 67, 58
1, 971572, Note_off_c, 0, 41, 54
1, 971577, Note_off_c, 0, 47, 63
1, 971578, Note_off_c, 0, 67, 0
1, 971581, Note_off_c, 0, 43, 60
1, 971584, Control_c, 0, 64, 127
1, 971584, Control_c, 0, 67, 56
1, 971593, Note_on_c, 0, 57, 86
1, 971593, Note_on_c, 0, 69, 92
1, 971599, Control_c, 0, 67, 55
1, 971611, Poly_aftertouch_c, 0, 67, 0
1, 971613, Control_c, 0, 67, 54
1, 971628, Note_off_c, 0, 57, 64
1, 971628, Control_c, 0, 67, 53
1, 971638, Note_off_c, 0, 69, 66
1, 971643, Control_c, 0, 67, 52
1, 971657, Control_c, 0, 67, 51
1, 971750, Note_on_c, 0, 71, 84
1, 971754, Note_on_c, 0, 59, 79
1, 971766, Note_on_c, 0, 72, 72
1, 971772, Note_off_c, 0, 71, 70
1, 971778, Note_off_c, 0, 59, 68
1, 971781, Note_off_c, 0, 72, 67
1, 971791, Control_c, 0, 64, 100
1, 971805, Control_c, 0, 64, 68
1, 971819, Note_on_c, 0, 48, 88
1, 971819, Note_on_c, 0, 43, 83
1, 971820, Control_c, 0, 64, 0
1, 971822, Note_on_c, 0, 40, 83
1, 971825, Note_on_c, 0, 52, 69
1, 971826, Note_off_c, 0, 52, 127
1, 971834, Note_on_c, 0, 72, 91
1, 971835, Control_c, 0, 67, 51
1, 971843, Note_on_c, 0, 71, 71
1, 971843, Note_off_c, 0, 48, 68
1, 971845, Note_on_c, 0, 67, 74
1, 971846, Note_off_c, 0, 43, 69
1, 971848, Note_on_c, 0, 60, 71
1, 971849, Control_c, 0, 67, 50
1, 971859, Note_off_c, 0, 71, 67
1, 971861, Note_off_c, 0, 67, 67
1, 971864, Note_off_c, 0, 40, 63
1, 971864, Control_c, 0, 64, 64
1, 971864, Control_c, 0, 67, 50
1, 971865, Note_off_c, 0, 60, 68
1, 971867, Note_off_c, 0, 72, 67
1, 971879, Control_c, 0, 64, 76
1, 971879, Control_c, 0, 67, 49
1, 971894, Control_c, 0, 64, 100
1, 971909, Control_c, 0, 64, 127
1, 971916, Note_on_c, 0, 74, 102
1, 971921, Note_on_c, 0, 62, 88
1, 971939, Control_c, 0, 67, 49
1, 971941, Note_off_c, 0, 62, 71
1, 971955, Note_off_c, 0, 74, 70
1, 971968, Control_c, 0, 67, 48
1, 972042, Poly_aftertouch_c, 0, 42, 127
1, 972061, Note_on_c, 0, 77, 91
1, 972072, Note_on_c, 0, 64, 64
1, 972077, Poly_aftertouch_c, 0, 42, 0
1, 972079, Note_off_c, 0, 77, 68
1, 972085, Note_on_c, 0, 65, 49
1, 972091, Note_off_c, 0, 64, 66
1, 972103, Control_c, 0, 67, 48
1, 972110, Note_off_c, 0, 65, 60
1, 972117, Control_c, 0, 64, 85
1, 972132, Control_c, 0, 64, 0
1, 972132, Control_c, 0, 67, 47
1, 972141, Note_on_c, 0, 33, 78
1, 972141, Note_on_c, 0, 41, 85
1, 972146, Note_on_c, 0, 36, 79
1, 972146, Note_on_c, 0, 77, 96
1, 972147, Poly_aftertouch_c, 0, 76, 0
1, 972147, Control_c, 0, 67, 47
1, 972150, Note_on_c, 0, 74, 87
1, 972155, Note_on_c, 0, 65, 76
1, 972162, Control_c, 0, 67, 46
1, 972163, Note_on_c, 0, 48, 37
1, 972164, Note_off_c, 0, 48, 127
1, 972164, Note_on_c, 0, 79, 61
1, 972165, Note_off_c, 0, 79, 127
1, 972166, Note_off_c, 0, 74, 75
1, 972167, Note_on_c, 0, 67, 54
1, 972171, Note_off_c, 0, 65, 69
1, 972172, Note_off_c, 0, 36, 64
1, 972172, Note_off_c, 0, 41, 66
1, 972177, Control_c, 0, 67, 46
1, 972180, Note_off_c, 0, 77, 64
1, 972185, Note_off_c, 0, 33, 60
1, 972190, Note_off_c, 0, 67, 59
1, 972192, Control_c, 0, 64, 69
1, 972192, Control_c, 0, 67, 45
1, 972207, Control_c, 0, 64, 89
1, 972207, Control_c, 0, 67, 43
1, 972221, Control_c, 0, 64, 127
1, 972221, Control_c, 0, 67, 42
1, 972236, Control_c, 0, 67, 40
1, 972237, Note_on_c, 0, 79, 99
1, 972243, Note_on_c, 0, 67, 96
1, 972258, Note_off_c, 0, 67, 73
1, 972266, Control_c, 0, 67, 39
1, 972272, Note_off_c, 0, 79, 69
1, 972280, Control_c, 0, 67, 38
1, 972295, Control_c, 0, 67, 38
1, 972385, Note_on_c, 0, 81, 94
1, 972387, Note_on_c, 0, 69, 81
1, 972392, Control_c, 0, 67, 38
1, 972402, Note_off_c, 0, 81, 66
1, 972405, Note_off_c, 0, 69, 73
1, 972418, Note_on_c, 0, 35, 79
1, 972422, Note_on_c, 0, 38, 75
1, 972427, Note_on_c, 0, 83, 17
1, 972428, Note_off_c, 0, 83, 127
1, 972434, Control_c, 0, 64, 74
1, 972440, Note_on_c, 0, 43, 67
1, 972449, Control_c, 0, 64, 0
1, 972470, Note_on_c, 0, 79, 100
1, 972475, Note_on_c, 0, 50, 86
1, 972482, Note_on_c, 0, 67, 74
1, 972483, Note_on_c, 0, 74, 79
1, 972493, Control_c, 0, 64, 59
1, 972494, Note_off_c, 0, 35, 64
1, 972495, Note_off_c, 0, 38, 64
1, 972498, Note_off_c, 0, 67, 69
1, 972503, Note_off_c, 0, 79, 62
1, 972505, Note_off_c, 0, 74, 72
1, 972508, Control_c, 0, 64, 77
1, 972523, Control_c, 0, 64, 127
1, 972529, Note_off_c, 0, 43, 64
1, 972548, Note_on_c, 0, 78, 89
1, 972562, Note_on_c, 0, 66, 84
1, 972568, Note_off_c, 0, 50, 67
1, 972582, Note_off_c, 0, 66, 71
1, 972587, Note_off_c, 0, 78, 68
1, 972696, Note_on_c, 0, 65, 83
1, 972697, Note_on_c, 0, 77, 87
1, 972701, Control_c, 0, 67, 38
1, 972705, Note_on_c, 0, 36, 72
1, 972711, Note_on_c, 0, 40, 68
1, 972716, Note_off_c, 0, 77, 69
1, 972716, Control_c, 0, 67, 37
1, 972717, Note_off_c, 0, 65, 71
1, 972731, Control_c, 0, 64, 80
1, 972745, Control_c, 0, 64, 0
1, 972764, Note_on_c, 0, 52, 73
1, 972774, Note_on_c, 0, 77, 91
1, 972775, Note_off_c, 0, 36, 57
1, 972783, Note_on_c, 0, 72, 78
1, 972783, Note_off_c, 0, 40, 63
1, 972790, Control_c, 0, 64, 23
1, 972791, Note_on_c, 0, 65, 57
1, 972803, Note_off_c, 0, 72, 71
1, 972804, Control_c, 0, 64, 75
1, 972813, Note_off_c, 0, 65, 61
1, 972821, Control_c, 0, 64, 101
1, 972836, Control_c, 0, 64, 127
1, 972851, Note_on_c, 0, 76, 97
1, 972852, Note_off_c, 0, 52, 62
1, 972864, Note_on_c, 0, 64, 76
1, 972875, Note_off_c, 0, 77, 63
1, 972886, Note_off_c, 0, 64, 70
1, 972892, Note_off_c, 0, 76, 65
1, 972990, Note_on_c, 0, 74, 96
1, 973004, Note_on_c, 0, 62, 63
1, 973010, Note_on_c, 0, 41, 58
1, 973019, Note_on_c, 0, 38, 66
1, 973024, Note_off_c, 0, 62, 64
1, 973030, Note_off_c, 0, 74, 63
1, 973050, Control_c, 0, 64, 97
1, 973065, Control_c, 0, 64, 64
1, 973080, Control_c, 0, 64, 0
1, 973082, Note_on_c, 0, 72, 90
1, 973083, Note_on_c, 0, 53, 72
1, 973119, Note_off_c, 0, 38, 39
1, 973119, Note_off_c, 0, 72, 64
1, 973122, Note_on_c, 0, 74, 4
1, 973123, Note_off_c, 0, 74, 127
1, 973124, Control_c, 0, 64, 68
1, 973139, Control_c, 0, 64, 88
1, 973154, Control_c, 0, 64, 127
1, 973159, Note_on_c, 0, 71, 95
1, 973161, Note_off_c, 0, 41, 62
1, 973164, Note_off_c, 0, 53, 65
1, 973170, Note_on_c, 0, 59, 76
1, 973190, Note_off_c, 0, 59, 69
1, 973201, Note_off_c, 0, 71, 66
1, 973322, Note_on_c, 0, 57, 81
1, 973322, Note_on_c, 0, 69, 86
1, 973328, Note_on_c, 0, 60, 67
1, 973340, Note_off_c, 0, 69, 73
1, 973343, Note_off_c, 0, 57, 69
1, 973349, Note_off_c, 0, 60, 65
1, 973375, Control_c, 0, 64, 72
1, 973390, Control_c, 0, 64, 0
1, 973391, Note_on_c, 0, 52, 79
1, 973393, Note_on_c, 0, 69, 86
1, 973395, Note_on_c, 0, 43, 75
1, 973396, Note_on_c, 0, 40, 69
1, 973404, Note_on_c, 0, 57, 61
1, 973404, Note_on_c, 0, 60, 77
1, 973418, Note_off_c, 0, 52, 67
1, 973422, Note_off_c, 0, 57, 67
1, 973423, Note_off_c, 0, 43, 65
1, 973427, Note_off_c, 0, 40, 64
1, 973435, Control_c, 0, 64, 42
1, 973435, Control_c, 0, 67, 37
1, 973450, Control_c, 0, 64, 71
1, 973450, Control_c, 0, 67, 36
1, 973459, Note_off_c, 0, 60, 58
1, 973465, Control_c, 0, 64, 88
1, 973465, Control_c, 0, 67, 34
1, 973480, Control_c, 0, 64, 127
1, 973480, Control_c, 0, 67, 32
1, 973480, Note_on_c, 0, 67, 86
1, 973487, Note_on_c, 0, 55, 79
1, 973495, Control_c, 0, 67, 27
1, 973502, Note_off_c, 0, 69, 64
1, 973509, Control_c, 0, 67, 22
1, 973518, Note_off_c, 0, 67, 64
1, 973521, Note_off_c, 0, 55, 63
1, 973524, Control_c, 0, 67, 19
1, 973583, Control_c, 0, 67, 21
1, 973598, Control_c, 0, 64, 96
1, 973598, Control_c, 0, 67, 23
1, 973613, Control_c, 0, 64, 69
1, 973613, Control_c, 0, 67, 26
1, 973629, Control_c, 0, 64, 0
1, 973629, Control_c, 0, 67, 29
1, 973644, Control_c, 0, 67, 34
1, 973659, Control_c, 0, 67, 38
1, 973673, Control_c, 0, 67, 42
1, 973688, Control_c, 0, 67, 46
1, 973703, Control_c, 0, 67, 49
1, 973717, Control_c, 0, 67, 54
1, 973732, Control_c, 0, 67, 60
1, 973747, Control_c, 0, 67, 65
1, 973762, Control_c, 0, 67, 69
1, 973777, Control_c, 0, 67, 72
1, 973799, Control_c, 0, 67, 75
1, 973814, Control_c, 0, 67, 77
1, 973828, Control_c, 0, 67, 78
1, 973843, Control_c, 0, 67, 80
1, 973852, Note_on_c, 0, 41, 46
1, 973857, Note_on_c, 0, 57, 50
1, 973857, Note_on_c, 0, 62, 52
1, 973858, Note_on_c, 0, 29, 50
1, 973858, Control_c, 0, 64, 37
1, 973858, Control_c, 0, 67, 80
1, 973867, Note_on_c, 0, 60, 46
1, 973873, Control_c, 0, 64, 62
1, 973888, Control_c, 0, 64, 67
1, 973903, Control_c, 0, 64, 74
1, 973903, Control_c, 0, 67, 80
1, 973918, Control_c, 0, 64, 83
1, 973918, Control_c, 0, 67, 79
1, 973933, Control_c, 0, 64, 98
1, 973933, Control_c, 0, 67, 79
1, 973937, Note_on_c, 0, 56, 72
1, 973939, Note_off_c, 0, 57, 56
1, 973948, Control_c, 0, 64, 127
1, 973948, Control_c, 0, 67, 78
1, 973963, Control_c, 0, 67, 78
1, 973977, Control_c, 0, 67, 77
1, 973979, Note_off_c, 0, 56, 57
1, 973992, Control_c, 0, 67, 77
1, 973997, Note_off_c, 0, 41, 34
1, 974007, Control_c, 0, 67, 76
1, 974037, Control_c, 0, 67, 76
1, 974051, Control_c, 0, 67, 75
1, 974066, Control_c, 0, 67, 75
1, 974101, Note_on_c, 0, 56, 63
1, 974126, Note_off_c, 0, 62, 58
1, 974130, Note_off_c, 0, 56, 61
1, 974147, Note_off_c, 0, 60, 40
1, 974168, Note_on_c, 0, 56, 81
1, 974170, Control_c, 0, 64, 96
1, 974173, Note_off_c, 0, 29, 41
1, 974174, Note_on_c, 0, 31, 62
1, 974179, Note_on_c, 0, 43, 60
1, 974185, Control_c, 0, 64, 70
1, 974185, Control_c, 0, 67, 75
1, 974195, Note_on_c, 0, 60, 38
1, 974196, Note_on_c, 0, 62, 26
1, 974199, Control_c, 0, 64, 0
1, 974229, Control_c, 0, 67, 75
1, 974244, Control_c, 0, 64, 63
1, 974244, Control_c, 0, 67, 74
1, 974248, Note_off_c, 0, 62, 0
1, 974248, Note_on_c, 0, 62, 25
1, 974250, Note_off_c, 0, 56, 62
1, 974258, Note_on_c, 0, 55, 78
1, 974258, Control_c, 0, 64, 75
1, 974258, Control_c, 0, 67, 74
1, 974273, Control_c, 0, 64, 94
1, 974273, Control_c, 0, 67, 73
1, 974281, Note_off_c, 0, 43, 63
1, 974288, Control_c, 0, 64, 127
1, 974288, Control_c, 0, 67, 72
1, 974303, Control_c, 0, 67, 72
1, 974318, Control_c, 0, 67, 71
1, 974332, Control_c, 0, 67, 70
1, 974335, Note_off_c, 0, 55, 61
1, 974347, Control_c, 0, 67, 69
1, 974362, Control_c, 0, 67, 67
1, 974377, Control_c, 0, 67, 65
1, 974383, Note_off_c, 0, 60, 63
1, 974392, Control_c, 0, 67, 64
1, 974407, Control_c, 0, 67, 62
1, 974408, Note_off_c, 0, 62, 50
1, 974422, Control_c, 0, 67, 61
1, 974424, Note_on_c, 0, 55, 85
1, 974437, Control_c, 0, 67, 60
1, 974452, Control_c, 0, 67, 59
1, 974455, Note_off_c, 0, 55, 58
1, 974466, Control_c, 0, 67, 57
1, 974481, Control_c, 0, 64, 81
1, 974481, Control_c, 0, 67, 54
1, 974488, Note_off_c, 0, 31, 59
1, 974491, Note_on_c, 0, 55, 75
1, 974492, Note_on_c, 0, 44, 70
1, 974493, Note_on_c, 0, 62, 82
1, 974496, Control_c, 0, 64, 11
1, 974496, Control_c, 0, 67, 50
1, 974498, Note_on_c, 0, 32, 67
1, 974500, Note_on_c, 0, 60, 70
1, 974511, Control_c, 0, 64, 0
1, 974511, Control_c, 0, 67, 42
1, 974526, Control_c, 0, 67, 36
1, 974548, Control_c, 0, 67, 31
1, 974563, Control_c, 0, 67, 28
1, 974578, Control_c, 0, 64, 46
1, 974578, Control_c, 0, 67, 27
1, 974589, Note_off_c, 0, 55, 62
1, 974593, Control_c, 0, 64, 64
1, 974599, Note_on_c, 0, 54, 81
1, 974608, Control_c, 0, 64, 70
1, 974622, Control_c, 0, 64, 78
1, 974622, Control_c, 0, 67, 28
1, 974637, Control_c, 0, 64, 85
1, 974637, Control_c, 0, 67, 30
1, 974652, Note_off_c, 0, 54, 64
1, 974652, Control_c, 0, 64, 91
1, 974652, Control_c, 0, 67, 32
1, 974667, Control_c, 0, 64, 95
1, 974667, Control_c, 0, 67, 34
1, 974680, Note_off_c, 0, 44, 37
1, 974681, Control_c, 0, 64, 97
1, 974681, Control_c, 0, 67, 36
1, 974696, Control_c, 0, 64, 99
1, 974696, Control_c, 0, 67, 37
1, 974711, Control_c, 0, 64, 100
1, 974711, Control_c, 0, 67, 38
1, 974726, Control_c, 0, 64, 102
1, 974726, Control_c, 0, 67, 40
1, 974741, Control_c, 0, 64, 103
1, 974741, Control_c, 0, 67, 44
1, 974756, Control_c, 0, 64, 105
1, 974756, Control_c, 0, 67, 47
1, 974770, Control_c, 0, 64, 107
1, 974770, Control_c, 0, 67, 50
1, 974771, Note_on_c, 0, 54, 81
1, 974785, Control_c, 0, 64, 108
1, 974785, Control_c, 0, 67, 53
1, 974800, Control_c, 0, 64, 109
1, 974800, Control_c, 0, 67, 55
1, 974801, Note_off_c, 0, 32, 47
1, 974814, Note_off_c, 0, 62, 57
1, 974815, Control_c, 0, 64, 111
1, 974815, Control_c, 0, 67, 56
1, 974825, Note_off_c, 0, 60, 50
1, 974830, Control_c, 0, 64, 115
1, 974830, Control_c, 0, 67, 57
1, 974845, Control_c, 0, 64, 119
1, 974860, Control_c, 0, 64, 126
1, 974860, Control_c, 0, 67, 57
1, 974874, Control_c, 0, 64, 127
1, 974889, Control_c, 0, 67, 57
1, 974908, Note_off_c, 0, 54, 64
1, 974911, Note_on_c, 0, 53, 74
1, 974919, Control_c, 0, 67, 56
1, 974923, Note_on_c, 0, 62, 63
1, 974934, Note_on_c, 0, 60, 57
1, 974934, Control_c, 0, 64, 120
1, 974934, Control_c, 0, 67, 56
1, 974937, Note_on_c, 0, 33, 46
1, 974941, Note_on_c, 0, 45, 47
1, 974948, Control_c, 0, 64, 110
1, 974963, Control_c, 0, 64, 98
1, 974963, Control_c, 0, 67, 55
1, 974978, Control_c, 0, 64, 84
1, 974993, Control_c, 0, 64, 68
1, 975008, Control_c, 0, 64, 0
1, 975096, Control_c, 0, 67, 55
1, 975111, Control_c, 0, 67, 54
1, 975126, Control_c, 0, 67, 54
1, 975231, Control_c, 0, 67, 53
1, 975260, Control_c, 0, 67, 53
1, 975275, Control_c, 0, 67, 52
1, 975312, Control_c, 0, 67, 52
1, 975342, Note_on_c, 0, 54, 74
1, 975342, Control_c, 0, 67, 51
1, 975357, Control_c, 0, 64, 40
1, 975357, Control_c, 0, 67, 50
1, 975371, Note_off_c, 0, 53, 63
1, 975372, Control_c, 0, 64, 70
1, 975372, Control_c, 0, 67, 50
1, 975386, Control_c, 0, 64, 95
1, 975386, Control_c, 0, 67, 49
1, 975390, Note_off_c, 0, 33, 60
1, 975400, Control_c, 0, 64, 127
1, 975427, Note_off_c, 0, 54, 65
1, 975446, Note_off_c, 0, 60, 63
1, 975456, Note_off_c, 0, 62, 63
1, 975459, Control_c, 0, 67, 49
1, 975599, Note_off_c, 0, 45, 36
1, 975660, Note_on_c, 0, 48, 77
1, 975664, Note_on_c, 0, 72, 74
1, 975673, Note_on_c, 0, 60, 59
1, 975682, Note_off_c, 0, 48, 66
1, 975686, Note_off_c, 0, 72, 69
1, 975696, Control_c, 0, 67, 48
1, 975697, Note_off_c, 0, 60, 66
1, 975756, Control_c, 0, 67, 48
1, 975829, Control_c, 0, 67, 48
1, 975859, Control_c, 0, 67, 48
1, 975874, Control_c, 0, 67, 47
1, 975888, Control_c, 0, 67, 47
1, 975903, Control_c, 0, 67, 46
1, 975918, Control_c, 0, 67, 46
1, 975966, Note_on_c, 0, 29, 82
1, 975966, Note_on_c, 0, 41, 86
1, 975969, Note_on_c, 0, 62, 74
1, 975970, Note_on_c, 0, 57, 75
1, 975978, Control_c, 0, 64, 87
1, 975978, Control_c, 0, 67, 45
1, 975981, Note_on_c, 0, 60, 65
1, 975993, Control_c, 0, 64, 56
1, 976007, Control_c, 0, 64, 0
1, 976038, Control_c, 0, 64, 62
1, 976038, Control_c, 0, 67, 45
1, 976060, Note_off_c, 0, 57, 57
1, 976061, Control_c, 0, 64, 72
1, 976064, Note_on_c, 0, 56, 80
1, 976075, Control_c, 0, 64, 86
1, 976075, Control_c, 0, 67, 44
1, 976090, Control_c, 0, 64, 124
1, 976090, Control_c, 0, 67, 44
1, 976105, Control_c, 0, 64, 127
1, 976105, Control_c, 0, 67, 43
1, 976120, Control_c, 0, 67, 42
1, 976129, Note_off_c, 0, 56, 64
1, 976133, Note_off_c, 0, 41, 61
1, 976134, Control_c, 0, 67, 39
1, 976149, Control_c, 0, 67, 37
1, 976164, Control_c, 0, 67, 34
1, 976179, Control_c, 0, 67, 32
1, 976194, Control_c, 0, 67, 30
1, 976208, Control_c, 0, 67, 28
1, 976223, Control_c, 0, 67, 27
1, 976225, Note_off_c, 0, 62, 60
1, 976230, Note_on_c, 0, 56, 54
1, 976231, Note_off_c, 0, 60, 63
1, 976238, Control_c, 0, 67, 25
1, 976252, Control_c, 0, 67, 23
1, 976258, Note_off_c, 0, 56, 0
1, 976265, Note_off_c, 0, 29, 56
1, 976267, Control_c, 0, 64, 102
1, 976267, Control_c, 0, 67, 22
1, 976271, Note_on_c, 0, 56, 73
1, 976273, Note_on_c, 0, 43, 82
1, 976277, Note_on_c, 0, 31, 76
1, 976282, Control_c, 0, 64, 70
1, 976282, Control_c, 0, 67, 21
1, 976288, Note_on_c, 0, 62, 65
1, 976289, Note_on_c, 0, 60, 60
1, 976297, Control_c, 0, 64, 0
1, 976297, Control_c, 0, 67, 21
1, 976326, Control_c, 0, 67, 20
1, 976341, Control_c, 0, 64, 58
1, 976356, Control_c, 0, 64, 74
1, 976356, Control_c, 0, 67, 20
1, 976369, Note_off_c, 0, 56, 65
1, 976371, Control_c, 0, 64, 97
1, 976371, Control_c, 0, 67, 19
1, 976373, Note_on_c, 0, 55, 77
1, 976378, Note_off_c, 0, 43, 63
1, 976386, Control_c, 0, 64, 127
1, 976386, Control_c, 0, 67, 17
1, 976401, Control_c, 0, 67, 13
1, 976416, Control_c, 0, 67, 0
1, 976443, Note_off_c, 0, 55, 61
1, 976475, Note_off_c, 0, 60, 61
1, 976496, Note_off_c, 0, 62, 60
1, 976526, Note_on_c, 0, 55, 82
1, 976553, Note_off_c, 0, 55, 59
1, 976588, Note_on_c, 0, 44, 86
1, 976589, Note_on_c, 0, 55, 79
1, 976589, Note_on_c, 0, 32, 82
1, 976590, Note_on_c, 0, 62, 86
1, 976592, Note_on_c, 0, 60, 76
1, 976593, Control_c, 0, 64, 77
1, 976607, Note_off_c, 0, 31, 57
1, 976608, Control_c, 0, 64, 0
1, 976667, Control_c, 0, 64, 66
1, 976675, Note_on_c, 0, 54, 88
1, 976681, Note_off_c, 0, 55, 63
1, 976682, Control_c, 0, 64, 79
1, 976697, Control_c, 0, 64, 127
1, 976744, Note_off_c, 0, 54, 65
1, 976801, Note_off_c, 0, 44, 58
1, 976840, Note_on_c, 0, 54, 93
1, 976859, Note_off_c, 0, 62, 61
1, 976869, Note_off_c, 0, 60, 63
1, 976875, Note_off_c, 0, 32, 62
1, 976887, Note_off_c, 0, 54, 65
1, 976920, Note_on_c, 0, 45, 92
1, 976920, Note_on_c, 0, 62, 83
1, 976921, Note_on_c, 0, 53, 94
1, 976923, Note_on_c, 0, 33, 87
1, 976924, Note_on_c, 0, 60, 76
1, 976958, Control_c, 0, 64, 79
1, 976973, Control_c, 0, 64, 0
1, 977180, Control_c, 0, 64, 58
1, 977195, Control_c, 0, 64, 66
1, 977210, Control_c, 0, 64, 73
1, 977224, Control_c, 0, 64, 84
1, 977239, Control_c, 0, 64, 108
1, 977254, Control_c, 0, 64, 127
1, 977260, Note_on_c, 0, 54, 95
1, 977276, Note_off_c, 0, 53, 64
1, 977292, Note_off_c, 0, 33, 60
1, 977307, Note_off_c, 0, 54, 69
1, 977319, Note_off_c, 0, 45, 63
1, 977323, Note_off_c, 0, 60, 64
1, 977325, Note_off_c, 0, 62, 63
1, 977587, Note_on_c, 0, 74, 93
1, 977590, Note_on_c, 0, 62, 97
1, 977593, Note_on_c, 0, 72, 88
1, 977593, Note_on_c, 0, 60, 93
1, 977594, Note_on_c, 0, 48, 85
1, 977633, Note_off_c, 0, 60, 69
1, 977642, Note_off_c, 0, 74, 68
1, 977643, Note_on_c, 0, 70, 16
1, 977647, Note_off_c, 0, 48, 65
1, 977647, Note_off_c, 0, 62, 62
1, 977653, Note_off_c, 0, 72, 66
1, 977683, Note_off_c, 0, 70, 51
1, 977988, Note_on_c, 0, 67, 91
1, 977988, Control_c, 0, 64, 84
1, 977990, Note_on_c, 0, 55, 87
1, 977993, Note_on_c, 0, 31, 90
1, 977993, Note_on_c, 0, 43, 101
1, 978003, Control_c, 0, 64, 54
1, 978017, Control_c, 0, 64, 0
1, 978047, Control_c, 0, 64, 60
1, 978062, Control_c, 0, 64, 70
1, 978077, Control_c, 0, 64, 83
1, 978091, Control_c, 0, 64, 127
1, 978189, Note_off_c, 0, 55, 60
1, 978246, Note_off_c, 0, 43, 62
1, 978381, Note_on_c, 0, 44, 100
1, 978383, Note_on_c, 0, 32, 88
1, 978383, Note_on_c, 0, 68, 95
1, 978387, Note_on_c, 0, 56, 94
1, 978395, Control_c, 0, 64, 79
1, 978410, Control_c, 0, 64, 0
1, 978419, Note_off_c, 0, 67, 63
1, 978426, Note_off_c, 0, 31, 63
1, 978455, Control_c, 0, 64, 49
1, 978470, Control_c, 0, 64, 71
1, 978484, Note_off_c, 0, 56, 66
1, 978485, Control_c, 0, 64, 92
1, 978495, Note_off_c, 0, 44, 62
1, 978500, Control_c, 0, 64, 127
1, 978545, Note_off_c, 0, 32, 64
1, 978561, Note_off_c, 0, 68, 63
1, 978826, Control_c, 0, 64, 94
1, 978840, Control_c, 0, 64, 65
1, 978855, Control_c, 0, 64, 0
1, 978868, Note_on_c, 0, 76, 99
1, 978871, Note_on_c, 0, 64, 100
1, 978873, Note_on_c, 0, 68, 94
1, 978874, Note_on_c, 0, 71, 87
1, 978881, Note_on_c, 0, 40, 96
1, 978884, Note_on_c, 0, 28, 88
1, 978900, Control_c, 0, 64, 49
1, 978914, Control_c, 0, 64, 68
1, 978929, Note_off_c, 0, 28, 58
1, 978929, Control_c, 0, 64, 84
1, 978944, Control_c, 0, 64, 127
1, 978968, Note_off_c, 0, 71, 65
1, 978971, Note_off_c, 0, 76, 62
1, 978985, Note_off_c, 0, 40, 63
1, 979002, Note_off_c, 0, 68, 59
1, 979004, Note_off_c, 0, 64, 63
1, 979193, Note_on_c, 0, 71, 98
1, 979197, Note_on_c, 0, 59, 96
1, 979198, Note_on_c, 0, 64, 87
1, 979201, Note_on_c, 0, 68, 91
1, 979210, Note_on_c, 0, 52, 87
1, 979283, Note_off_c, 0, 59, 58
1, 979298, Note_off_c, 0, 52, 58
1, 979308, Note_off_c, 0, 71, 61
1, 979313, Note_off_c, 0, 64, 59
1, 979317, Note_off_c, 0, 68, 60
1, 979382, Control_c, 0, 64, 83
1, 979395, Note_on_c, 0, 71, 93
1, 979397, Control_c, 0, 64, 0
1, 979401, Note_on_c, 0, 52, 82
1, 979402, Note_on_c, 0, 59, 87
1, 979403, Note_on_c, 0, 68, 88
1, 979415, Note_on_c, 0, 64, 68
1, 979451, Note_off_c, 0, 64, 50
1, 979456, Control_c, 0, 64, 64
1, 979471, Control_c, 0, 64, 75
1, 979486, Control_c, 0, 64, 94
1, 979492, Note_off_c, 0, 59, 58
1, 979501, Control_c, 0, 64, 127
1, 979501, Note_off_c, 0, 71, 61
1, 979570, Note_on_c, 0, 57, 88
1, 979573, Note_on_c, 0, 72, 91
1, 979574, Note_on_c, 0, 45, 82
1, 979576, Note_on_c, 0, 60, 89
1, 979576, Note_on_c, 0, 69, 84
1, 979577, Note_on_c, 0, 64, 85
1, 979584, Note_off_c, 0, 52, 54
1, 979626, Note_off_c, 0, 57, 63
1, 979628, Note_off_c, 0, 60, 61
1, 979632, Note_off_c, 0, 45, 64
1, 979650, Note_off_c, 0, 72, 58
1, 979652, Note_off_c, 0, 68, 59
1, 979656, Note_off_c, 0, 64, 61
1, 979661, Note_off_c, 0, 69, 60
1, 979708, Control_c, 0, 64, 103
1, 979713, Note_on_c, 0, 64, 84
1, 979714, Note_on_c, 0, 57, 90
1, 979715, Note_on_c, 0, 60, 93
1, 979717, Note_on_c, 0, 72, 89
1, 979722, Note_on_c, 0, 45, 87
1, 979723, Control_c, 0, 64, 75
1, 979724, Note_on_c, 0, 69, 71
1, 979737, Control_c, 0, 64, 0
1, 979754, Note_off_c, 0, 64, 64
1, 979759, Note_off_c, 0, 69, 64
1, 979762, Note_off_c, 0, 57, 64
1, 979768, Note_off_c, 0, 60, 64
1, 979772, Note_off_c, 0, 45, 64
1, 979780, Note_off_c, 0, 72, 64
1, 979849, Note_on_c, 0, 74, 96
1, 979853, Note_on_c, 0, 62, 88
1, 979853, Note_on_c, 0, 71, 89
1, 979853, Note_on_c, 0, 55, 91
1, 979858, Note_on_c, 0, 67, 80
1, 979859, Note_on_c, 0, 43, 86
1, 979902, Note_off_c, 0, 62, 62
1, 979904, Note_off_c, 0, 55, 65
1, 979908, Note_off_c, 0, 74, 64
1, 979909, Note_off_c, 0, 43, 64
1, 979921, Note_off_c, 0, 67, 60
1, 979928, Note_off_c, 0, 71, 64
1, 979982, Control_c, 0, 64, 63
1, 979987, Note_on_c, 0, 55, 96
1, 979988, Note_on_c, 0, 71, 84
1, 979990, Note_on_c, 0, 62, 97
1, 979991, Note_on_c, 0, 74, 95
1, 979993, Note_on_c, 0, 43, 88
1, 979995, Note_on_c, 0, 67, 77
1, 979996, Control_c, 0, 64, 77
1, 980011, Control_c, 0, 64, 108
1, 980028, Control_c, 0, 64, 127
1, 980032, Note_off_c, 0, 55, 65
1, 980041, Note_off_c, 0, 43, 65
1, 980049, Note_off_c, 0, 67, 60
1, 980054, Note_off_c, 0, 62, 58
1, 980062, Note_off_c, 0, 74, 62
1, 980088, Note_off_c, 0, 71, 65
1, 980128, Note_on_c, 0, 48, 94
1, 980130, Note_on_c, 0, 67, 96
1, 980130, Note_on_c, 0, 72, 91
1, 980133, Note_on_c, 0, 64, 92
1, 980133, Note_on_c, 0, 36, 90
1, 980133, Note_on_c, 0, 76, 90
1, 980151, Note_on_c, 0, 71, 40
1, 980162, Note_off_c, 0, 48, 64
1, 980165, Note_off_c, 0, 36, 64
1, 980177, Note_off_c, 0, 64, 64
1, 980181, Note_off_c, 0, 71, 57
1, 980195, Note_off_c, 0, 76, 61
1, 980196, Note_off_c, 0, 67, 59
1, 980199, Note_off_c, 0, 72, 63
1, 980257, Note_on_c, 0, 48, 96
1, 980259, Note_on_c, 0, 36, 89
1, 980262, Note_on_c, 0, 67, 95
1, 980266, Note_on_c, 0, 64, 93
1, 980268, Note_on_c, 0, 76, 93
1, 980291, Note_on_c, 0, 72, 54
1, 980293, Note_off_c, 0, 48, 67
1, 980297, Note_off_c, 0, 64, 55
1, 980298, Note_off_c, 0, 67, 65
1, 980300, Note_off_c, 0, 36, 61
1, 980306, Note_off_c, 0, 72, 69
1, 980324, Note_off_c, 0, 76, 65
1, 980339, Control_c, 0, 64, 91
1, 980354, Control_c, 0, 64, 70
1, 980368, Control_c, 0, 64, 0
1, 980391, Note_on_c, 0, 49, 100
1, 980392, Note_on_c, 0, 37, 93
1, 980397, Note_on_c, 0, 76, 99
1, 980397, Note_on_c, 0, 81, 104
1, 980398, Note_on_c, 0, 69, 102
1, 980427, Note_off_c, 0, 49, 62
1, 980434, Note_off_c, 0, 37, 65
1, 980470, Note_off_c, 0, 69, 54
1, 980486, Note_off_c, 0, 81, 58
1, 980500, Note_off_c, 0, 76, 59
1, 980568, Note_on_c, 0, 49, 102
1, 980572, Note_on_c, 0, 37, 96
1, 980578, Note_on_c, 0, 69, 101
1, 980580, Note_on_c, 0, 81, 104
1, 980583, Control_c, 0, 64, 73
1, 980583, Note_on_c, 0, 76, 101
1, 980588, Note_off_c, 0, 49, 72
1, 980594, Note_off_c, 0, 37, 72
1, 980598, Control_c, 0, 64, 127
1, 980753, Note_off_c, 0, 81, 53
1, 980765, Note_off_c, 0, 69, 56
1, 980777, Note_off_c, 0, 76, 56
1, 980870, Note_on_c, 0, 49, 91
1, 980871, Note_on_c, 0, 69, 91
1, 980872, Note_on_c, 0, 81, 94
1, 980872, Note_on_c, 0, 76, 94
1, 980873, Note_on_c, 0, 37, 86
1, 980895, Note_off_c, 0, 49, 68
1, 980898, Note_off_c, 0, 76, 62
1, 980903, Note_off_c, 0, 37, 67
1, 980904, Note_off_c, 0, 81, 60
1, 980906, Note_off_c, 0, 69, 61
1, 980909, Control_c, 0, 64, 82
1, 980924, Control_c, 0, 64, 0
1, 981012, Note_on_c, 0, 65, 87
1, 981012, Note_on_c, 0, 69, 84
1, 981012, Note_on_c, 0, 77, 86
1, 981014, Note_on_c, 0, 50, 85
1, 981020, Note_on_c, 0, 38, 77
1, 981021, Note_on_c, 0, 74, 76
1, 981034, Note_off_c, 0, 65, 67
1, 981035, Note_off_c, 0, 69, 66
1, 981039, Note_off_c, 0, 50, 70
1, 981042, Note_off_c, 0, 74, 72
1, 981045, Note_off_c, 0, 38, 66
1, 981051, Note_off_c, 0, 77, 62
1, 981147, Control_c, 0, 64, 41
1, 981150, Note_on_c, 0, 38, 70
1, 981156, Note_on_c, 0, 77, 94
1, 981157, Note_on_c, 0, 69, 89
1, 981159, Note_on_c, 0, 50, 76
1, 981160, Note_on_c, 0, 65, 83
1, 981160, Note_on_c, 0, 74, 82
1, 981161, Control_c, 0, 64, 89
1, 981176, Control_c, 0, 64, 127
1, 981187, Note_off_c, 0, 65, 61
1, 981200, Note_off_c, 0, 50, 62
1, 981239, Note_off_c, 0, 77, 58
1, 981263, Note_off_c, 0, 74, 59
1, 981303, Note_on_c, 0, 40, 76
1, 981303, Note_on_c, 0, 72, 80
1, 981305, Note_on_c, 0, 52, 78
1, 981306, Note_on_c, 0, 76, 89
1, 981310, Note_on_c, 0, 64, 77
1, 981316, Note_off_c, 0, 38, 61
1, 981331, Control_c, 0, 64, 103
1, 981332, Note_off_c, 0, 64, 71
1, 981334, Note_off_c, 0, 52, 66
1, 981335, Note_off_c, 0, 69, 64
1, 981337, Note_off_c, 0, 40, 65
1, 981345, Note_off_c, 0, 72, 66
1, 981346, Note_off_c, 0, 76, 58
1, 981346, Control_c, 0, 64, 68
1, 981361, Control_c, 0, 64, 0
1, 981427, Note_on_c, 0, 52, 77
1, 981431, Note_on_c, 0, 40, 80
1, 981435, Note_on_c, 0, 72, 83
1, 981436, Note_on_c, 0, 76, 87
1, 981437, Note_on_c, 0, 69, 77
1, 981439, Note_on_c, 0, 64, 76
1, 981460, Note_off_c, 0, 52, 64
1, 981461, Note_off_c, 0, 64, 70
1, 981461, Note_off_c, 0, 69, 66
1, 981462, Note_off_c, 0, 76, 58
1, 981466, Note_off_c, 0, 40, 66
1, 981472, Note_off_c, 0, 72, 64
1, 981565, Note_on_c, 0, 53, 83
1, 981567, Note_on_c, 0, 69, 80
1, 981567, Note_on_c, 0, 74, 90
1, 981568, Note_on_c, 0, 41, 82
1, 981570, Note_on_c, 0, 62, 80
1, 981591, Note_off_c, 0, 53, 71
1, 981591, Note_off_c, 0, 62, 68
1, 981592, Note_off_c, 0, 74, 63
1, 981593, Note_off_c, 0, 69, 65
1, 981599, Note_off_c, 0, 41, 65
1, 981673, Control_c, 0, 64, 31
1, 981688, Control_c, 0, 64, 81
1, 981703, Control_c, 0, 64, 127
1, 981704, Note_on_c, 0, 74, 94
1, 981705, Note_on_c, 0, 53, 72
1, 981706, Note_on_c, 0, 41, 66
1, 981707, Note_on_c, 0, 69, 81
1, 981713, Note_on_c, 0, 62, 76
1, 981734, Note_off_c, 0, 53, 68
1, 981745, Note_off_c, 0, 41, 63
1, 981745, Note_off_c, 0, 62, 62
1, 981841, Note_on_c, 0, 42, 79
1, 981844, Note_on_c, 0, 54, 75
1, 981844, Note_on_c, 0, 72, 82
1, 981850, Note_on_c, 0, 60, 73
1, 981855, Note_off_c, 0, 74, 62
1, 981863, Note_off_c, 0, 69, 61
1, 981865, Control_c, 0, 64, 95
1, 981867, Note_off_c, 0, 54, 68
1, 981875, Note_off_c, 0, 60, 69
1, 981876, Note_off_c, 0, 42, 65
1, 981880, Control_c, 0, 64, 64
1, 981884, Note_off_c, 0, 72, 61
1, 981895, Control_c, 0, 64, 0
1, 981970, Note_on_c, 0, 54, 63
1, 981979, Note_on_c, 0, 42, 68
1, 981981, Note_on_c, 0, 69, 75
1, 981981, Note_on_c, 0, 60, 74
1, 981981, Note_on_c, 0, 72, 77
1, 982001, Note_off_c, 0, 72, 69
1, 982004, Note_off_c, 0, 54, 67
1, 982005, Note_off_c, 0, 60, 69
1, 982008, Note_off_c, 0, 42, 66
1, 982014, Note_off_c, 0, 69, 61
1, 982115, Note_on_c, 0, 55, 78
1, 982124, Note_on_c, 0, 43, 70
1, 982130, Note_on_c, 0, 71, 72
1, 982132, Note_on_c, 0, 67, 63
1, 982133, Note_on_c, 0, 59, 62
1, 982143, Note_off_c, 0, 55, 66
1, 982146, Note_off_c, 0, 71, 68
1, 982152, Note_off_c, 0, 43, 64
1, 982154, Note_off_c, 0, 59, 61
1, 982161, Note_off_c, 0, 67, 64
1, 982229, Control_c, 0, 64, 70
1, 982244, Control_c, 0, 64, 89
1, 982258, Note_on_c, 0, 71, 66
1, 982258, Control_c, 0, 64, 127
1, 982259, Note_on_c, 0, 43, 63
1, 982261, Note_on_c, 0, 59, 60
1, 982262, Note_on_c, 0, 55, 66
1, 982263, Note_on_c, 0, 67, 66
1, 982342, Note_off_c, 0, 59, 59
1, 982363, Note_off_c, 0, 67, 57
1, 982402, Note_on_c, 0, 69, 57
1, 982409, Note_on_c, 0, 65, 60
1, 982428, Note_off_c, 0, 43, 60
1, 982428, Note_off_c, 0, 55, 61
1, 982432, Note_off_c, 0, 71, 52
1, 982434, Note_off_c, 0, 69, 66
1, 982439, Note_off_c, 0, 65, 65
1, 982532, Note_on_c, 0, 55, 77
1, 982534, Note_on_c, 0, 71, 84
1, 982538, Note_on_c, 0, 43, 67
1, 982539, Note_on_c, 0, 67, 70
1, 982540, Note_on_c, 0, 64, 74
1, 982560, Note_off_c, 0, 55, 65
1, 982561, Note_off_c, 0, 67, 64
1, 982563, Note_off_c, 0, 64, 70
1, 982563, Note_off_c, 0, 43, 66
1, 982568, Note_off_c, 0, 71, 51
1, 982644, Control_c, 0, 64, 80
1, 982652, Note_on_c, 0, 56, 82
1, 982653, Note_on_c, 0, 71, 87
1, 982657, Note_on_c, 0, 65, 81
1, 982659, Note_on_c, 0, 44, 74
1, 982659, Note_on_c, 0, 62, 70
1, 982659, Control_c, 0, 64, 0
1, 982676, Note_off_c, 0, 56, 69
1, 982682, Note_off_c, 0, 65, 68
1, 982683, Note_off_c, 0, 62, 68
1, 982685, Note_off_c, 0, 71, 64
1, 982691, Note_off_c, 0, 44, 66
1, 982777, Control_c, 0, 64, 72
1, 982795, Note_on_c, 0, 71, 96
1, 982796, Note_on_c, 0, 44, 77
1, 982796, Note_on_c, 0, 56, 86
1, 982800, Control_c, 0, 64, 127
1, 982803, Note_on_c, 0, 62, 74
1, 982805, Note_on_c, 0, 65, 77
1, 982826, Note_off_c, 0, 65, 70
1, 982839, Note_off_c, 0, 56, 64
1, 982849, Note_off_c, 0, 62, 57
1, 982851, Note_off_c, 0, 44, 63
1, 982927, Note_on_c, 0, 57, 87
1, 982928, Note_on_c, 0, 72, 85
1, 982929, Note_on_c, 0, 60, 79
1, 982931, Note_on_c, 0, 45, 84
1, 982935, Note_off_c, 0, 71, 57
1, 982936, Note_on_c, 0, 64, 80
1, 982958, Note_off_c, 0, 60, 63
1, 982959, Note_off_c, 0, 64, 70
1, 982962, Note_off_c, 0, 57, 61
1, 982968, Note_off_c, 0, 45, 64
1, 982973, Note_off_c, 0, 72, 63
1, 982992, Control_c, 0, 64, 79
1, 983007, Control_c, 0, 64, 0
1, 983047, Note_on_c, 0, 57, 85
1, 983056, Note_on_c, 0, 45, 86
1, 983057, Note_on_c, 0, 72, 95
1, 983057, Note_on_c, 0, 60, 84
1, 983060, Note_on_c, 0, 64, 77
1, 983077, Note_off_c, 0, 57, 66
1, 983079, Note_off_c, 0, 60, 72
1, 983080, Note_off_c, 0, 45, 71
1, 983082, Note_off_c, 0, 64, 72
1, 983096, Note_off_c, 0, 72, 63
1, 983167, Note_on_c, 0, 55, 93
1, 983171, Note_on_c, 0, 74, 95
1, 983174, Note_on_c, 0, 43, 84
1, 983175, Note_on_c, 0, 62, 86
1, 983177, Note_on_c, 0, 71, 85
1, 983178, Note_on_c, 0, 67, 83
1, 983197, Note_off_c, 0, 55, 67
1, 983197, Note_off_c, 0, 62, 65
1, 983200, Note_off_c, 0, 67, 67
1, 983203, Note_off_c, 0, 43, 68
1, 983217, Note_off_c, 0, 71, 58
1, 983219, Note_off_c, 0, 74, 62
1, 983275, Control_c, 0, 64, 70
1, 983290, Control_c, 0, 64, 107
1, 983300, Note_on_c, 0, 55, 95
1, 983305, Note_on_c, 0, 43, 88
1, 983305, Control_c, 0, 64, 127
1, 983308, Note_on_c, 0, 71, 90
1, 983309, Note_on_c, 0, 62, 90
1, 983309, Note_on_c, 0, 74, 99
1, 983310, Note_on_c, 0, 67, 87
1, 983332, Note_off_c, 0, 55, 63
1, 983338, Note_off_c, 0, 62, 62
1, 983343, Note_off_c, 0, 43, 64
1, 983356, Note_off_c, 0, 74, 59
1, 983363, Note_off_c, 0, 67, 56
1, 983370, Note_off_c, 0, 71, 63
1, 983432, Note_on_c, 0, 48, 95
1, 983434, Note_on_c, 0, 72, 93
1, 983436, Note_on_c, 0, 36, 89
1, 983438, Note_on_c, 0, 64, 88
1, 983439, Note_on_c, 0, 76, 87
1, 983457, Note_off_c, 0, 48, 68
1, 983463, Note_off_c, 0, 64, 66
1, 983463, Note_off_c, 0, 36, 67
1, 983478, Note_off_c, 0, 72, 63
1, 983481, Note_off_c, 0, 76, 63
1, 983555, Note_on_c, 0, 48, 98
1, 983559, Note_on_c, 0, 36, 87
1, 983561, Note_on_c, 0, 76, 97
1, 983562, Note_on_c, 0, 64, 89
1, 983570, Note_on_c, 0, 72, 83
1, 983585, Note_off_c, 0, 72, 73
1, 983586, Note_off_c, 0, 64, 70
1, 983592, Note_off_c, 0, 36, 63
1, 983593, Note_off_c, 0, 48, 65
1, 983608, Control_c, 0, 64, 75
1, 983612, Note_off_c, 0, 76, 66
1, 983623, Control_c, 0, 64, 0
1, 983680, Note_on_c, 0, 49, 96
1, 983686, Note_on_c, 0, 37, 85
1, 983691, Note_on_c, 0, 81, 98
1, 983696, Note_on_c, 0, 69, 93
1, 983703, Note_on_c, 0, 76, 82
1, 983703, Note_off_c, 0, 49, 69
1, 983711, Note_off_c, 0, 37, 65
1, 983711, Control_c, 0, 64, 37
1, 983726, Control_c, 0, 64, 71
1, 983741, Control_c, 0, 64, 94
1, 983756, Control_c, 0, 64, 127
1, 983761, Note_on_c, 0, 49, 100
1, 983764, Note_on_c, 0, 37, 85
1, 983797, Note_off_c, 0, 37, 64
1, 983800, Note_off_c, 0, 49, 65
1, 983810, Note_off_c, 0, 69, 61
1, 983823, Note_off_c, 0, 81, 59
1, 983829, Note_off_c, 0, 76, 63
1, 983901, Note_on_c, 0, 57, 95
1, 983909, Note_on_c, 0, 81, 105
1, 983910, Note_on_c, 0, 76, 104
1, 983912, Note_on_c, 0, 69, 95
1, 983917, Note_off_c, 0, 57, 72
1, 984119, Note_off_c, 0, 81, 53
1, 984137, Note_off_c, 0, 69, 57
1, 984244, Note_on_c, 0, 49, 99
1, 984247, Note_on_c, 0, 37, 96
1, 984252, Note_on_c, 0, 81, 98
1, 984253, Note_on_c, 0, 69, 90
1, 984253, Note_on_c, 0, 79, 94
1, 984263, Note_off_c, 0, 49, 72
1, 984270, Note_off_c, 0, 76, 62
1, 984271, Note_off_c, 0, 37, 69
1, 984306, Note_off_c, 0, 69, 65
1, 984330, Note_off_c, 0, 79, 63
1, 984333, Note_off_c, 0, 81, 61
1, 984505, Control_c, 0, 64, 105
1, 984518, Note_on_c, 0, 50, 91
1, 984520, Control_c, 0, 64, 70
1, 984522, Note_on_c, 0, 69, 90
1, 984524, Note_on_c, 0, 77, 90
1, 984530, Note_on_c, 0, 81, 75
1, 984534, Control_c, 0, 64, 0
1, 984541, Note_off_c, 0, 50, 70
1, 984542, Note_off_c, 0, 69, 68
1, 984542, Note_off_c, 0, 77, 71
1, 984544, Note_off_c, 0, 81, 72
1, 984545, Note_on_c, 0, 36, 46
1, 984547, Note_on_c, 0, 83, 52
1, 984555, Note_on_c, 0, 38, 37
1, 984566, Note_off_c, 0, 83, 63
1, 984578, Note_off_c, 0, 36, 52
1, 984585, Note_off_c, 0, 38, 0
1, 984585, Note_on_c, 0, 38, 42
1, 984589, Note_on_c, 0, 77, 88
1, 984590, Note_on_c, 0, 50, 94
1, 984590, Note_on_c, 0, 69, 81
1, 984593, Control_c, 0, 64, 65
1, 984594, Note_on_c, 0, 81, 91
1, 984608, Control_c, 0, 64, 82
1, 984623, Control_c, 0, 64, 127
1, 984637, Note_off_c, 0, 50, 66
1, 984655, Note_off_c, 0, 38, 58
1, 984707, Note_off_c, 0, 69, 0
1, 984725, Note_on_c, 0, 69, 54
1, 984730, Note_on_c, 0, 52, 87
1, 984733, Note_on_c, 0, 76, 94
1, 984736, Note_on_c, 0, 40, 82
1, 984751, Note_off_c, 0, 77, 62
1, 984756, Control_c, 0, 64, 82
1, 984758, Note_off_c, 0, 81, 62
1, 984764, Note_off_c, 0, 40, 68
1, 984766, Note_off_c, 0, 52, 63
1, 984771, Note_off_c, 0, 69, 60
1, 984771, Control_c, 0, 64, 55
1, 984783, Note_off_c, 0, 76, 64
1, 984786, Control_c, 0, 64, 0
1, 984861, Note_on_c, 0, 53, 95
1, 984867, Note_on_c, 0, 81, 92
1, 984869, Note_on_c, 0, 41, 85
1, 984874, Note_on_c, 0, 69, 83
1, 984874, Note_on_c, 0, 74, 81
1, 984891, Note_on_c, 0, 72, 57
1, 984893, Note_off_c, 0, 53, 65
1, 984893, Note_off_c, 0, 69, 71
1, 984894, Note_off_c, 0, 74, 70
1, 984896, Note_off_c, 0, 41, 66
1, 984903, Note_off_c, 0, 81, 63
1, 984914, Note_off_c, 0, 72, 38
1, 984997, Note_on_c, 0, 54, 90
1, 985001, Note_on_c, 0, 42, 85
1, 985004, Note_on_c, 0, 72, 75
1, 985004, Note_on_c, 0, 81, 93
1, 985009, Note_on_c, 0, 69, 82
1, 985031, Note_off_c, 0, 54, 68
1, 985031, Note_off_c, 0, 81, 64
1, 985031, Control_c, 0, 67, 10
1, 985032, Note_off_c, 0, 72, 71
1, 985035, Note_off_c, 0, 42, 68
1, 985035, Note_off_c, 0, 69, 72
1, 985046, Control_c, 0, 67, 12
1, 985061, Control_c, 0, 67, 13
1, 985076, Control_c, 0, 67, 14
1, 985090, Control_c, 0, 67, 14
1, 985150, Control_c, 0, 64, 59
1, 985164, Note_on_c, 0, 79, 99
1, 985164, Control_c, 0, 64, 77
1, 985166, Note_on_c, 0, 55, 86
1, 985167, Note_on_c, 0, 71, 90
1, 985171, Note_on_c, 0, 43, 81
1, 985174, Note_on_c, 0, 67, 75
1, 985179, Control_c, 0, 64, 102
1, 985181, Note_off_c, 0, 79, 69
1, 985183, Note_off_c, 0, 71, 75
1, 985188, Note_off_c, 0, 55, 71
1, 985190, Note_off_c, 0, 67, 69
1, 985194, Control_c, 0, 64, 127
1, 985197, Note_on_c, 0, 69, 40
1, 985197, Note_off_c, 0, 43, 65
1, 985208, Control_c, 0, 67, 15
1, 985227, Note_off_c, 0, 69, 58
1, 985238, Control_c, 0, 67, 15
1, 985253, Control_c, 0, 67, 16
1, 985297, Control_c, 0, 67, 16
1, 985312, Control_c, 0, 67, 17
1, 985327, Control_c, 0, 67, 18
1, 985342, Control_c, 0, 67, 21
1, 985356, Control_c, 0, 67, 27
1, 985371, Control_c, 0, 67, 32
1, 985386, Control_c, 0, 67, 35
1, 985401, Control_c, 0, 67, 37
1, 985415, Control_c, 0, 67, 38
1, 985432, Note_on_c, 0, 55, 76
1, 985434, Note_on_c, 0, 62, 77
1, 985436, Note_on_c, 0, 71, 93
1, 985439, Note_on_c, 0, 65, 80
1, 985445, Note_on_c, 0, 67, 70
1, 985445, Control_c, 0, 64, 91
1, 985445, Control_c, 0, 67, 39
1, 985454, Note_off_c, 0, 71, 73
1, 985458, Note_off_c, 0, 55, 66
1, 985458, Note_off_c, 0, 65, 72
1, 985460, Note_off_c, 0, 62, 67
1, 985460, Control_c, 0, 64, 66
1, 985460, Control_c, 0, 67, 40
1, 985461, Note_off_c, 0, 67, 68
1, 985475, Control_c, 0, 64, 0
1, 985475, Control_c, 0, 67, 41
1, 985490, Control_c, 0, 67, 43
1, 985499, Note_on_c, 0, 71, 90
1, 985502, Note_on_c, 0, 62, 81
1, 985503, Note_on_c, 0, 55, 86
1, 985503, Note_on_c, 0, 67, 88
1, 985505, Control_c, 0, 67, 43
1, 985507, Note_on_c, 0, 65, 76
1, 985520, Control_c, 0, 64, 65
1, 985520, Control_c, 0, 67, 44
1, 985534, Control_c, 0, 64, 77
1, 985534, Control_c, 0, 67, 45
1, 985549, Control_c, 0, 64, 104
1, 985549, Control_c, 0, 67, 45
1, 985564, Control_c, 0, 64, 127
1, 985579, Control_c, 0, 67, 46
1, 985594, Control_c, 0, 67, 46
1, 985609, Control_c, 0, 67, 48
1, 985624, Control_c, 0, 67, 49
1, 985633, Note_off_c, 0, 65, 54
1, 985639, Control_c, 0, 67, 51
1, 985654, Control_c, 0, 67, 53
1, 985663, Note_off_c, 0, 62, 50
1, 985669, Control_c, 0, 67, 56
1, 985684, Control_c, 0, 67, 58
1, 985698, Control_c, 0, 67, 61
1, 985713, Control_c, 0, 67, 62
1, 985728, Control_c, 0, 67, 64
1, 985743, Control_c, 0, 67, 64
1, 985758, Control_c, 0, 67, 65
1, 985794, Control_c, 0, 67, 65
1, 985868, Control_c, 0, 64, 96
1, 985883, Control_c, 0, 64, 70
1, 985888, Note_on_c, 0, 60, 67
1, 985889, Note_on_c, 0, 48, 75
1, 985889, Note_on_c, 0, 72, 74
1, 985891, Note_off_c, 0, 55, 61
1, 985897, Note_on_c, 0, 64, 69
1, 985898, Control_c, 0, 64, 0
1, 985912, Control_c, 0, 67, 66
1, 985927, Control_c, 0, 67, 67
1, 985928, Note_off_c, 0, 67, 63
1, 985940, Note_off_c, 0, 71, 62
1, 985942, Control_c, 0, 67, 69
1, 985957, Control_c, 0, 64, 57
1, 985957, Control_c, 0, 67, 71
1, 985972, Control_c, 0, 64, 70
1, 985972, Control_c, 0, 67, 73
1, 985979, Note_off_c, 0, 48, 64
1, 985980, Note_off_c, 0, 64, 65
1, 985982, Note_off_c, 0, 60, 65
1, 985986, Control_c, 0, 64, 87
1, 985986, Control_c, 0, 67, 74
1, 986001, Control_c, 0, 64, 127
1, 986001, Control_c, 0, 67, 75
1, 986002, Note_off_c, 0, 72, 66
1, 986016, Control_c, 0, 67, 76
1, 986030, Control_c, 0, 67, 76
1, 986045, Control_c, 0, 67, 77
1, 986060, Control_c, 0, 67, 77
1, 986075, Control_c, 0, 67, 78
1, 986090, Control_c, 0, 67, 80
1, 986104, Control_c, 0, 67, 82
1, 986119, Control_c, 0, 67, 84
1, 986134, Control_c, 0, 67, 85
1, 986149, Control_c, 0, 67, 86
1, 986163, Control_c, 0, 64, 89
1, 986178, Control_c, 0, 64, 69
1, 986193, Control_c, 0, 64, 0
1, 986238, Control_c, 0, 67, 86
1, 986252, Note_on_c, 0, 79, 67
1, 986253, Control_c, 0, 67, 87
1, 986268, Control_c, 0, 64, 62
1, 986268, Control_c, 0, 67, 88
1, 986276, Note_on_c, 0, 60, 43
1, 986277, Note_on_c, 0, 70, 41
1, 986281, Note_on_c, 0, 72, 37
1, 986283, Control_c, 0, 64, 72
1, 986283, Control_c, 0, 67, 91
1, 986283, Note_on_c, 0, 64, 43
1, 986298, Control_c, 0, 64, 90
1, 986298, Control_c, 0, 67, 94
1, 986312, Control_c, 0, 64, 127
1, 986312, Control_c, 0, 67, 97
1, 986327, Control_c, 0, 67, 99
1, 986339, Note_off_c, 0, 70, 58
1, 986341, Note_off_c, 0, 64, 57
1, 986342, Control_c, 0, 67, 101
1, 986351, Note_off_c, 0, 60, 51
1, 986355, Note_off_c, 0, 72, 57
1, 986356, Control_c, 0, 67, 102
1, 986360, Note_off_c, 0, 79, 54
1, 986371, Control_c, 0, 67, 103
1, 986386, Control_c, 0, 67, 104
1, 986417, Control_c, 0, 67, 105
1, 986432, Note_on_c, 0, 79, 63
1, 986435, Note_on_c, 0, 64, 53
1, 986440, Note_on_c, 0, 60, 42
1, 986442, Note_on_c, 0, 70, 58
1, 986447, Note_on_c, 0, 72, 53
1, 986447, Control_c, 0, 67, 105
1, 986461, Control_c, 0, 67, 106
1, 986474, Note_off_c, 0, 64, 61
1, 986476, Control_c, 0, 67, 106
1, 986477, Note_off_c, 0, 70, 60
1, 986484, Note_off_c, 0, 60, 59
1, 986491, Control_c, 0, 67, 107
1, 986494, Note_off_c, 0, 79, 60
1, 986497, Note_off_c, 0, 72, 57
1, 986506, Control_c, 0, 67, 108
1, 986527, Control_c, 0, 67, 109
1, 986542, Control_c, 0, 67, 110
1, 986557, Control_c, 0, 67, 111
1, 986572, Control_c, 0, 67, 113
1, 986587, Control_c, 0, 67, 114
1, 986593, Note_on_c, 0, 64, 55
1, 986593, Note_on_c, 0, 79, 73
1, 986596, Note_on_c, 0, 60, 58
1, 986599, Note_on_c, 0, 70, 52
1, 986602, Control_c, 0, 67, 115
1, 986606, Note_on_c, 0, 72, 55
1, 986617, Control_c, 0, 67, 116
1, 986631, Note_off_c, 0, 64, 63
1, 986632, Control_c, 0, 67, 117
1, 986647, Control_c, 0, 67, 118
1, 986653, Note_off_c, 0, 70, 48
1, 986658, Note_off_c, 0, 60, 49
1, 986672, Note_off_c, 0, 72, 55
1, 986689, Note_on_c, 0, 53, 34
1, 986703, Note_off_c, 0, 79, 55
1, 986715, Note_on_c, 0, 77, 76
1, 986725, Note_on_c, 0, 60, 44
1, 986727, Note_on_c, 0, 69, 72
1, 986737, Note_on_c, 0, 65, 56
1, 986758, Note_off_c, 0, 60, 65
1, 986760, Note_off_c, 0, 65, 63
1, 986760, Note_off_c, 0, 69, 60
1, 986765, Note_off_c, 0, 77, 64
1, 986766, Control_c, 0, 64, 103
1, 986775, Note_off_c, 0, 53, 59
1, 986780, Control_c, 0, 64, 77
1, 986795, Control_c, 0, 64, 59
1, 986810, Control_c, 0, 64, 0
1, 986810, Control_c, 0, 67, 118
1, 986845, Note_on_c, 0, 58, 67
1, 986848, Note_on_c, 0, 77, 79
1, 986852, Note_on_c, 0, 76, 83
1, 986852, Note_on_c, 0, 67, 75
1, 986879, Note_off_c, 0, 67, 65
1, 986882, Note_off_c, 0, 58, 60
1, 986888, Note_off_c, 0, 77, 56
1, 986895, Note_off_c, 0, 76, 62
1, 986975, Note_on_c, 0, 77, 78
1, 986980, Note_on_c, 0, 67, 69
1, 986981, Note_on_c, 0, 62, 57
1, 986983, Note_on_c, 0, 76, 74
1, 986986, Note_on_c, 0, 58, 59
1, 987006, Note_off_c, 0, 67, 67
1, 987007, Note_off_c, 0, 76, 69
1, 987010, Note_off_c, 0, 62, 63
1, 987011, Note_off_c, 0, 58, 64
1, 987017, Note_off_c, 0, 77, 58
1, 987061, Control_c, 0, 67, 118
1, 987076, Control_c, 0, 67, 117
1, 987091, Control_c, 0, 67, 117
1, 987096, Note_on_c, 0, 58, 57
1, 987105, Note_on_c, 0, 62, 54
1, 987106, Control_c, 0, 64, 63
1, 987106, Control_c, 0, 67, 116
1, 987109, Note_on_c, 0, 76, 66
1, 987114, Note_on_c, 0, 77, 64
1, 987121, Control_c, 0, 64, 73
1, 987121, Control_c, 0, 67, 115
1, 987128, Note_on_c, 0, 67, 42
1, 987135, Control_c, 0, 64, 87
1, 987135, Control_c, 0, 67, 115
1, 987150, Control_c, 0, 64, 117
1, 987150, Control_c, 0, 67, 114
1, 987165, Control_c, 0, 64, 127
1, 987180, Control_c, 0, 67, 114
1, 987198, Note_off_c, 0, 62, 58
1, 987231, Note_off_c, 0, 76, 55
1, 987238, Note_off_c, 0, 77, 40
1, 987240, Note_on_c, 0, 57, 62
1, 987248, Note_off_c, 0, 58, 37
1, 987253, Note_on_c, 0, 69, 75
1, 987266, Note_on_c, 0, 61, 43
1, 987269, Note_off_c, 0, 57, 64
1, 987287, Note_off_c, 0, 69, 63
1, 987305, Note_off_c, 0, 61, 52
1, 987307, Control_c, 0, 67, 114
1, 987319, Note_off_c, 0, 67, 41
1, 987322, Control_c, 0, 67, 115
1, 987352, Control_c, 0, 64, 84
1, 987352, Control_c, 0, 67, 115
1, 987366, Control_c, 0, 64, 63
1, 987381, Control_c, 0, 64, 0
1, 987395, Note_on_c, 0, 61, 52
1, 987395, Note_on_c, 0, 69, 60
1, 987406, Note_on_c, 0, 57, 32
1, 987406, Note_on_c, 0, 67, 66
1, 987440, Control_c, 0, 64, 34
1, 987455, Control_c, 0, 64, 66
1, 987467, Note_off_c, 0, 61, 61
1, 987470, Control_c, 0, 64, 76
1, 987476, Note_off_c, 0, 57, 58
1, 987484, Control_c, 0, 64, 89
1, 987499, Control_c, 0, 64, 111
1, 987499, Control_c, 0, 67, 115
1, 987511, Note_off_c, 0, 67, 60
1, 987514, Control_c, 0, 64, 127
1, 987520, Note_off_c, 0, 69, 63
1, 987523, Note_on_c, 0, 74, 71
1, 987529, Note_on_c, 0, 65, 59
1, 987534, Note_on_c, 0, 62, 45
1, 987548, Note_on_c, 0, 50, 45
1, 987556, Note_off_c, 0, 65, 59
1, 987561, Note_off_c, 0, 74, 55
1, 987566, Note_off_c, 0, 62, 55
1, 987580, Note_off_c, 0, 50, 56
1, 987633, Control_c, 0, 64, 118
1, 987648, Control_c, 0, 64, 91
1, 987663, Control_c, 0, 64, 73
1, 987677, Control_c, 0, 64, 39
1, 987682, Note_on_c, 0, 50, 40
1, 987692, Control_c, 0, 64, 0
1, 987694, Note_on_c, 0, 74, 62
1, 987696, Note_on_c, 0, 62, 36
1, 987698, Note_on_c, 0, 65, 44
1, 987781, Control_c, 0, 64, 38
1, 987795, Control_c, 0, 64, 67
1, 987795, Control_c, 0, 67, 114
1, 987810, Note_off_c, 0, 50, 64
1, 987810, Control_c, 0, 64, 78
1, 987810, Control_c, 0, 67, 114
1, 987812, Note_off_c, 0, 65, 60
1, 987824, Note_on_c, 0, 66, 51
1, 987825, Control_c, 0, 64, 96
1, 987825, Control_c, 0, 67, 113
1, 987840, Control_c, 0, 64, 127
1, 987840, Control_c, 0, 67, 112
1, 987855, Control_c, 0, 67, 112
1, 987861, Note_off_c, 0, 66, 60
1, 987869, Control_c, 0, 67, 111
1, 987884, Control_c, 0, 67, 111
1, 987903, Note_off_c, 0, 62, 35
1, 987965, Note_on_c, 0, 69, 71
1, 987976, Note_on_c, 0, 66, 49
1, 987977, Note_on_c, 0, 60, 57
1, 987980, Note_on_c, 0, 62, 46
1, 988003, Note_off_c, 0, 66, 61
1, 988008, Note_off_c, 0, 60, 65
1, 988016, Note_off_c, 0, 69, 60
1, 988019, Note_off_c, 0, 62, 59
1, 988056, Control_c, 0, 64, 111
1, 988071, Control_c, 0, 64, 95
1, 988071, Control_c, 0, 67, 111
1, 988086, Control_c, 0, 64, 84
1, 988095, Note_on_c, 0, 60, 58
1, 988095, Note_on_c, 0, 66, 68
1, 988101, Note_on_c, 0, 69, 70
1, 988101, Control_c, 0, 64, 74
1, 988110, Note_on_c, 0, 62, 60
1, 988115, Control_c, 0, 64, 64
1, 988115, Control_c, 0, 67, 112
1, 988128, Note_off_c, 0, 60, 62
1, 988130, Control_c, 0, 64, 14
1, 988141, Note_off_c, 0, 66, 59
1, 988143, Note_off_c, 0, 62, 60
1, 988145, Control_c, 0, 64, 0
1, 988145, Control_c, 0, 67, 112
1, 988150, Note_off_c, 0, 69, 60
1, 988155, Note_off_c, 0, 74, 44
1, 988233, Note_on_c, 0, 69, 72
1, 988234, Note_on_c, 0, 60, 60
1, 988237, Note_on_c, 0, 62, 53
1, 988255, Note_on_c, 0, 66, 60
1, 988263, Control_c, 0, 64, 21
1, 988278, Control_c, 0, 64, 66
1, 988293, Control_c, 0, 64, 78
1, 988293, Control_c, 0, 67, 111
1, 988307, Control_c, 0, 64, 107
1, 988307, Control_c, 0, 67, 109
1, 988322, Control_c, 0, 64, 127
1, 988322, Control_c, 0, 67, 107
1, 988337, Control_c, 0, 67, 105
1, 988352, Control_c, 0, 67, 102
1, 988357, Note_on_c, 0, 67, 73
1, 988359, Note_on_c, 0, 59, 69
1, 988366, Note_off_c, 0, 66, 58
1, 988367, Control_c, 0, 67, 96
1, 988377, Note_off_c, 0, 60, 62
1, 988381, Control_c, 0, 67, 87
1, 988390, Note_off_c, 0, 59, 63
1, 988395, Note_off_c, 0, 67, 59
1, 988396, Note_off_c, 0, 62, 59
1, 988396, Control_c, 0, 67, 78
1, 988407, Note_off_c, 0, 69, 57
1, 988411, Control_c, 0, 64, 113
1, 988411, Control_c, 0, 67, 68
1, 988426, Control_c, 0, 64, 84
1, 988426, Control_c, 0, 67, 61
1, 988441, Control_c, 0, 64, 66
1, 988441, Control_c, 0, 67, 56
1, 988456, Control_c, 0, 64, 0
1, 988456, Control_c, 0, 67, 53
1, 988471, Control_c, 0, 67, 52
1, 988486, Control_c, 0, 67, 51
1, 988490, Note_on_c, 0, 72, 81
1, 988497, Note_on_c, 0, 57, 66
1, 988498, Note_on_c, 0, 66, 72
1, 988506, Note_on_c, 0, 62, 58
1, 988515, Control_c, 0, 67, 52
1, 988526, Note_off_c, 0, 57, 64
1, 988526, Note_off_c, 0, 66, 63
1, 988530, Control_c, 0, 67, 53
1, 988535, Note_off_c, 0, 62, 63
1, 988543, Note_off_c, 0, 72, 63
1, 988544, Control_c, 0, 67, 54
1, 988559, Control_c, 0, 67, 55
1, 988574, Control_c, 0, 67, 56
1, 988589, Control_c, 0, 67, 58
1, 988604, Control_c, 0, 67, 59
1, 988607, Note_on_c, 0, 57, 66
1, 988611, Note_on_c, 0, 62, 64
1, 988617, Note_on_c, 0, 72, 80
1, 988618, Note_on_c, 0, 66, 77
1, 988618, Control_c, 0, 67, 59
1, 988633, Control_c, 0, 67, 60
1, 988661, Note_off_c, 0, 62, 55
1, 988664, Note_off_c, 0, 57, 59
1, 988667, Note_off_c, 0, 66, 59
1, 988672, Note_off_c, 0, 72, 62
1, 988692, Control_c, 0, 67, 59
1, 988707, Control_c, 0, 67, 58
1, 988722, Control_c, 0, 67, 58
1, 988737, Control_c, 0, 67, 57
1, 988746, Note_on_c, 0, 72, 80
1, 988751, Control_c, 0, 64, 53
1, 988751, Control_c, 0, 67, 56
1, 988755, Note_on_c, 0, 57, 64
1, 988755, Note_on_c, 0, 66, 75
1, 988774, Control_c, 0, 64, 71
1, 988774, Control_c, 0, 67, 56
1, 988775, Note_on_c, 0, 62, 57
1, 988789, Control_c, 0, 64, 84
1, 988789, Control_c, 0, 67, 55
1, 988805, Control_c, 0, 64, 112
1, 988805, Control_c, 0, 67, 54
1, 988819, Control_c, 0, 64, 127
1, 988819, Control_c, 0, 67, 53
1, 988834, Control_c, 0, 67, 52
1, 988849, Control_c, 0, 67, 51
1, 988864, Control_c, 0, 67, 50
1, 988877, Note_on_c, 0, 55, 66
1, 988877, Note_on_c, 0, 71, 80
1, 988879, Control_c, 0, 67, 48
1, 988879, Note_off_c, 0, 57, 59
1, 988888, Note_on_c, 0, 67, 72
1, 988888, Note_off_c, 0, 66, 59
1, 988894, Control_c, 0, 67, 45
1, 988905, Note_off_c, 0, 72, 64
1, 988909, Control_c, 0, 67, 42
1, 988921, Note_off_c, 0, 67, 62
1, 988924, Control_c, 0, 67, 41
1, 988927, Note_off_c, 0, 55, 61
1, 988928, Note_off_c, 0, 62, 58
1, 988938, Control_c, 0, 67, 41
1, 988939, Note_off_c, 0, 71, 66
1, 988997, Control_c, 0, 64, 109
1, 989012, Control_c, 0, 64, 79
1, 989016, Note_on_c, 0, 71, 84
1, 989025, Note_on_c, 0, 55, 69
1, 989025, Note_on_c, 0, 67, 66
1, 989027, Control_c, 0, 64, 50
1, 989037, Note_on_c, 0, 62, 58
1, 989042, Control_c, 0, 64, 0
1, 989071, Control_c, 0, 67, 40
1, 989101, Control_c, 0, 64, 64
1, 989101, Control_c, 0, 67, 40
1, 989116, Control_c, 0, 64, 76
1, 989130, Control_c, 0, 64, 96
1, 989130, Control_c, 0, 67, 39
1, 989131, Note_off_c, 0, 62, 58
1, 989134, Note_on_c, 0, 74, 90
1, 989134, Note_off_c, 0, 67, 51
1, 989139, Note_on_c, 0, 53, 69
1, 989139, Note_on_c, 0, 59, 71
1, 989144, Note_on_c, 0, 68, 78
1, 989145, Control_c, 0, 64, 127
1, 989145, Control_c, 0, 67, 38
1, 989147, Note_off_c, 0, 71, 66
1, 989156, Note_off_c, 0, 55, 63
1, 989160, Control_c, 0, 67, 37
1, 989174, Note_off_c, 0, 59, 60
1, 989174, Control_c, 0, 67, 37
1, 989180, Note_off_c, 0, 53, 64
1, 989180, Note_off_c, 0, 68, 56
1, 989192, Note_off_c, 0, 74, 64
1, 989249, Control_c, 0, 64, 94
1, 989264, Control_c, 0, 64, 68
1, 989273, Note_on_c, 0, 53, 78
1, 989273, Note_on_c, 0, 59, 75
1, 989273, Note_on_c, 0, 74, 94
1, 989278, Note_on_c, 0, 68, 82
1, 989278, Control_c, 0, 64, 0
1, 989338, Control_c, 0, 67, 36
1, 989343, Note_off_c, 0, 59, 55
1, 989353, Control_c, 0, 64, 23
1, 989353, Control_c, 0, 67, 36
1, 989368, Control_c, 0, 64, 69
1, 989368, Control_c, 0, 67, 35
1, 989382, Control_c, 0, 64, 90
1, 989382, Control_c, 0, 67, 34
1, 989387, Note_on_c, 0, 60, 75
1, 989395, Note_on_c, 0, 67, 77
1, 989397, Control_c, 0, 64, 127
1, 989397, Control_c, 0, 67, 32
1, 989399, Note_off_c, 0, 68, 61
1, 989412, Control_c, 0, 67, 29
1, 989427, Control_c, 0, 67, 25
1, 989442, Note_off_c, 0, 67, 61
1, 989442, Control_c, 0, 67, 21
1, 989443, Note_off_c, 0, 60, 61
1, 989449, Note_off_c, 0, 74, 61
1, 989456, Control_c, 0, 67, 18
1, 989471, Control_c, 0, 67, 15
1, 989486, Control_c, 0, 67, 14
1, 989501, Control_c, 0, 67, 13
1, 989529, Note_on_c, 0, 60, 79
1, 989529, Note_on_c, 0, 72, 97
1, 989537, Note_on_c, 0, 67, 87
1, 989549, Note_on_c, 0, 52, 53
1, 989558, Note_off_c, 0, 67, 66
1, 989559, Note_off_c, 0, 60, 66
1, 989564, Note_off_c, 0, 53, 63
1, 989580, Note_off_c, 0, 52, 63
1, 989584, Note_off_c, 0, 72, 64
1, 989643, Control_c, 0, 64, 96
1, 989655, Note_on_c, 0, 74, 102
1, 989658, Control_c, 0, 64, 74
1, 989658, Control_c, 0, 67, 13
1, 989661, Note_on_c, 0, 50, 69
1, 989661, Note_on_c, 0, 59, 77
1, 989661, Note_on_c, 0, 65, 87
1, 989663, Note_on_c, 0, 67, 86
1, 989672, Control_c, 0, 64, 40
1, 989672, Control_c, 0, 67, 14
1, 989677, Note_on_c, 0, 52, 50
1, 989687, Note_off_c, 0, 59, 64
1, 989687, Note_off_c, 0, 65, 64
1, 989687, Control_c, 0, 64, 0
1, 989695, Note_off_c, 0, 50, 68
1, 989701, Note_off_c, 0, 67, 56
1, 989702, Note_off_c, 0, 52, 58
1, 989713, Note_off_c, 0, 74, 63
1, 989788, Note_on_c, 0, 50, 83
1, 989789, Note_on_c, 0, 59, 77
1, 989791, Note_on_c, 0, 74, 101
1, 989791, Control_c, 0, 64, 65
1, 989797, Note_on_c, 0, 67, 88
1, 989798, Note_on_c, 0, 65, 83
1, 989806, Control_c, 0, 64, 79
1, 989806, Control_c, 0, 67, 13
1, 989821, Control_c, 0, 64, 127
1, 989821, Control_c, 0, 67, 13
1, 989821, Note_off_c, 0, 59, 60
1, 989821, Note_off_c, 0, 65, 67
1, 989830, Note_off_c, 0, 50, 64
1, 989836, Control_c, 0, 67, 12
1, 989843, Note_off_c, 0, 67, 61
1, 989848, Note_off_c, 0, 74, 63
1, 989866, Control_c, 0, 67, 12
1, 989880, Control_c, 0, 67, 11
1, 989895, Control_c, 0, 67, 10
1, 989910, Control_c, 0, 67, 9
1, 989914, Note_on_c, 0, 76, 95
1, 989916, Note_on_c, 0, 48, 92
1, 989916, Note_on_c, 0, 60, 89
1, 989916, Note_on_c, 0, 64, 88
1, 989918, Note_on_c, 0, 67, 86
1, 989923, Note_on_c, 0, 72, 82
1, 989925, Control_c, 0, 67, 8
1, 989940, Control_c, 0, 67, 0
1, 989950, Note_off_c, 0, 60, 61
1, 989952, Note_off_c, 0, 72, 58
1, 989955, Note_off_c, 0, 67, 62
1, 989959, Note_off_c, 0, 48, 64
1, 989959, Note_off_c, 0, 64, 62
1, 989973, Note_off_c, 0, 76, 58
1, 990030, Note_on_c, 0, 60, 93
1, 990035, Note_on_c, 0, 48, 90
1, 990036, Note_on_c, 0, 76, 93
1, 990038, Note_on_c, 0, 64, 92
1, 990044, Note_on_c, 0, 72, 77
1, 990059, Note_off_c, 0, 64, 72
1, 990060, Note_on_c, 0, 67, 47
1, 990062, Note_off_c, 0, 72, 70
1, 990063, Note_off_c, 0, 60, 63
1, 990065, Note_off_c, 0, 48, 64
1, 990076, Note_off_c, 0, 76, 61
1, 990088, Note_off_c, 0, 67, 55
1, 990146, Control_c, 0, 64, 87
1, 990150, Note_on_c, 0, 59, 100
1, 990153, Note_on_c, 0, 75, 95
1, 990154, Note_on_c, 0, 66, 97
1, 990155, Note_on_c, 0, 47, 91
1, 990157, Note_on_c, 0, 78, 88
1, 990161, Control_c, 0, 64, 63
1, 990164, Note_on_c, 0, 71, 77
1, 990176, Control_c, 0, 64, 0
1, 990183, Note_off_c, 0, 71, 72
1, 990187, Note_off_c, 0, 59, 67
1, 990187, Note_off_c, 0, 66, 53
1, 990199, Note_off_c, 0, 47, 64
1, 990203, Note_off_c, 0, 75, 64
1, 990209, Note_off_c, 0, 78, 62
1, 990265, Control_c, 0, 64, 42
1, 990276, Note_on_c, 0, 59, 95
1, 990279, Note_on_c, 0, 66, 93
1, 990281, Note_on_c, 0, 78, 86
1, 990283, Note_on_c, 0, 47, 87
1, 990283, Note_on_c, 0, 71, 77
1, 990284, Note_on_c, 0, 75, 87
1, 990287, Control_c, 0, 64, 69
1, 990302, Control_c, 0, 64, 90
1, 990311, Note_off_c, 0, 59, 65
1, 990317, Control_c, 0, 64, 127
1, 990322, Note_off_c, 0, 47, 66
1, 990325, Note_off_c, 0, 66, 59
1, 990331, Note_off_c, 0, 71, 61
1, 990333, Note_off_c, 0, 75, 64
1, 990340, Note_off_c, 0, 78, 62
1, 990405, Note_on_c, 0, 52, 95
1, 990405, Note_on_c, 0, 79, 95
1, 990407, Note_on_c, 0, 40, 91
1, 990407, Note_on_c, 0, 76, 87
1, 990408, Note_on_c, 0, 67, 90
1, 990428, Note_off_c, 0, 52, 68
1, 990435, Note_off_c, 0, 40, 67
1, 990440, Note_off_c, 0, 67, 59
1, 990446, Note_off_c, 0, 76, 65
1, 990447, Note_off_c, 0, 79, 63
1, 990507, Poly_aftertouch_c, 0, 72, 0
1, 990517, Note_on_c, 0, 52, 89
1, 990521, Note_on_c, 0, 40, 90
1, 990523, Note_on_c, 0, 79, 101
1, 990526, Note_on_c, 0, 67, 95
1, 990530, Note_on_c, 0, 76, 90
1, 990546, Note_off_c, 0, 40, 67
1, 990546, Note_off_c, 0, 67, 69
1, 990551, Note_off_c, 0, 52, 65
1, 990554, Note_off_c, 0, 76, 65
1, 990567, Note_off_c, 0, 79, 63
1, 990614, Control_c, 0, 64, 93
1, 990628, Control_c, 0, 64, 61
1, 990638, Note_on_c, 0, 49, 93
1, 990643, Control_c, 0, 64, 0
1, 990645, Note_on_c, 0, 37, 86
1, 990645, Note_on_c, 0, 81, 102
1, 990649, Note_on_c, 0, 69, 95
1, 990652, Note_on_c, 0, 76, 93
1, 990662, Note_off_c, 0, 49, 68
1, 990672, Note_off_c, 0, 37, 68
1, 990688, Control_c, 0, 64, 31
1, 990702, Control_c, 0, 64, 67
1, 990717, Control_c, 0, 64, 87
1, 990721, Note_on_c, 0, 49, 100
1, 990730, Note_on_c, 0, 37, 91
1, 990732, Control_c, 0, 64, 127
1, 990763, Note_off_c, 0, 37, 65
1, 990775, Note_off_c, 0, 49, 58
1, 990803, Note_off_c, 0, 69, 60
1, 990814, Note_off_c, 0, 81, 57
1, 990831, Note_off_c, 0, 76, 63
1, 990898, Note_on_c, 0, 57, 96
1, 990901, Note_on_c, 0, 81, 104
1, 990903, Note_on_c, 0, 76, 105
1, 990905, Note_on_c, 0, 69, 95
1, 990915, Note_off_c, 0, 57, 72
1, 991154, Note_off_c, 0, 81, 53
1, 991172, Note_off_c, 0, 69, 54
1, 991299, Note_on_c, 0, 69, 94
1, 991299, Note_on_c, 0, 79, 96
1, 991299, Note_on_c, 0, 81, 102
1, 991300, Note_on_c, 0, 49, 93
1, 991305, Note_on_c, 0, 37, 88
1, 991316, Note_off_c, 0, 76, 65
1, 991318, Note_off_c, 0, 49, 71
1, 991332, Note_off_c, 0, 37, 66
1, 991379, Note_on_c, 0, 49, 32
1, 991410, Note_off_c, 0, 49, 55
1, 991413, Poly_aftertouch_c, 0, 78, 0
1, 991470, Note_off_c, 0, 81, 55
1, 991484, Note_off_c, 0, 69, 59
1, 991499, Note_off_c, 0, 79, 58
1, 991625, Note_on_c, 0, 50, 89
1, 991627, Note_on_c, 0, 77, 93
1, 991630, Note_on_c, 0, 69, 96
1, 991632, Note_on_c, 0, 81, 96
1, 991637, Note_on_c, 0, 38, 73
1, 991643, Control_c, 0, 64, 96
1, 991646, Note_off_c, 0, 50, 73
1, 991653, Note_off_c, 0, 69, 67
1, 991655, Note_off_c, 0, 81, 60
1, 991658, Control_c, 0, 64, 64
1, 991660, Note_off_c, 0, 77, 62
1, 991663, Note_off_c, 0, 38, 63
1, 991673, Control_c, 0, 64, 0
1, 991692, Note_on_c, 0, 77, 80
1, 991692, Note_on_c, 0, 81, 88
1, 991695, Note_on_c, 0, 69, 85
1, 991696, Note_on_c, 0, 50, 93
1, 991698, Note_on_c, 0, 38, 80
1, 991732, Control_c, 0, 64, 49
1, 991747, Control_c, 0, 64, 72
1, 991762, Control_c, 0, 64, 99
1, 991784, Control_c, 0, 64, 127
1, 991795, Note_off_c, 0, 38, 59
1, 991807, Note_off_c, 0, 50, 54
1, 991860, Note_off_c, 0, 69, 0
1, 991882, Note_on_c, 0, 69, 42
1, 991888, Note_on_c, 0, 52, 92
1, 991891, Note_on_c, 0, 76, 89
1, 991896, Note_on_c, 0, 40, 80
1, 991918, Note_off_c, 0, 77, 62
1, 991922, Note_off_c, 0, 81, 60
1, 991930, Note_off_c, 0, 52, 65
1, 991931, Note_off_c, 0, 40, 65
1, 991937, Note_off_c, 0, 69, 56
1, 991964, Note_off_c, 0, 76, 60
1, 992022, Control_c, 0, 64, 123
1, 992026, Note_on_c, 0, 53, 93
1, 992027, Note_on_c, 0, 74, 94
1, 992027, Note_on_c, 0, 81, 89
1, 992029, Note_on_c, 0, 41, 88
1, 992031, Note_on_c, 0, 69, 87
1, 992037, Control_c, 0, 64, 83
1, 992052, Control_c, 0, 64, 61
1, 992063, Note_off_c, 0, 41, 65
1, 992063, Note_off_c, 0, 69, 64
1, 992063, Note_off_c, 0, 53, 68
1, 992067, Note_off_c, 0, 74, 68
1, 992067, Control_c, 0, 64, 0
1, 992069, Note_off_c, 0, 81, 65
1, 992146, Note_on_c, 0, 54, 95
1, 992149, Note_on_c, 0, 81, 96
1, 992150, Note_on_c, 0, 42, 92
1, 992153, Note_on_c, 0, 72, 86
1, 992154, Note_on_c, 0, 69, 86
1, 992170, Control_c, 0, 67, 9
1, 992176, Note_off_c, 0, 54, 66
1, 992176, Note_off_c, 0, 72, 66
1, 992177, Note_off_c, 0, 69, 64
1, 992179, Note_off_c, 0, 42, 66
1, 992185, Control_c, 0, 67, 14
1, 992193, Note_off_c, 0, 81, 63
1, 992200, Control_c, 0, 67, 18
1, 992215, Control_c, 0, 67, 20
1, 992230, Control_c, 0, 67, 21
1, 992244, Control_c, 0, 67, 22
1, 992259, Control_c, 0, 67, 23
1, 992274, Control_c, 0, 67, 23
1, 992289, Control_c, 0, 64, 60
1, 992289, Control_c, 0, 67, 24
1, 992295, Note_on_c, 0, 55, 98
1, 992299, Note_on_c, 0, 43, 89
1, 992301, Note_on_c, 0, 79, 98
1, 992304, Note_on_c, 0, 71, 94
1, 992304, Control_c, 0, 64, 77
1, 992304, Control_c, 0, 67, 24
1, 992307, Note_on_c, 0, 67, 87
1, 992316, Note_off_c, 0, 55, 71
1, 992319, Control_c, 0, 64, 102
1, 992319, Control_c, 0, 67, 25
1, 992319, Note_off_c, 0, 71, 76
1, 992325, Note_off_c, 0, 43, 68
1, 992325, Note_off_c, 0, 67, 73
1, 992331, Note_off_c, 0, 79, 57
1, 992334, Control_c, 0, 64, 127
1, 992348, Control_c, 0, 67, 25
1, 992392, Control_c, 0, 67, 25
1, 992422, Control_c, 0, 67, 24
1, 992452, Control_c, 0, 67, 25
1, 992466, Control_c, 0, 67, 25
1, 992481, Control_c, 0, 67, 27
1, 992496, Control_c, 0, 67, 28
1, 992518, Control_c, 0, 67, 31
1, 992533, Control_c, 0, 67, 34
1, 992548, Control_c, 0, 67, 36
1, 992563, Control_c, 0, 67, 37
1, 992605, Note_on_c, 0, 62, 77
1, 992606, Note_on_c, 0, 71, 94
1, 992607, Control_c, 0, 67, 38
1, 992608, Note_on_c, 0, 55, 78
1, 992614, Note_on_c, 0, 65, 76
1, 992617, Note_on_c, 0, 67, 76
1, 992623, Control_c, 0, 64, 107
1, 992623, Control_c, 0, 67, 38
1, 992628, Note_off_c, 0, 71, 63
1, 992630, Note_off_c, 0, 55, 70
1, 992633, Note_off_c, 0, 62, 63
1, 992635, Note_off_c, 0, 65, 71
1, 992638, Control_c, 0, 64, 79
1, 992638, Control_c, 0, 67, 39
1, 992644, Note_off_c, 0, 67, 64
1, 992653, Control_c, 0, 64, 59
1, 992653, Control_c, 0, 67, 40
1, 992668, Control_c, 0, 64, 0
1, 992668, Control_c, 0, 67, 42
1, 992672, Note_on_c, 0, 71, 86
1, 992674, Note_on_c, 0, 62, 73
1, 992680, Note_on_c, 0, 55, 87
1, 992680, Note_on_c, 0, 65, 77
1, 992682, Control_c, 0, 67, 43
1, 992688, Note_on_c, 0, 67, 76
1, 992697, Control_c, 0, 64, 43
1, 992697, Control_c, 0, 67, 46
1, 992712, Control_c, 0, 64, 64
1, 992712, Control_c, 0, 67, 49
1, 992726, Control_c, 0, 64, 73
1, 992726, Control_c, 0, 67, 52
1, 992741, Control_c, 0, 64, 85
1, 992741, Control_c, 0, 67, 56
1, 992756, Control_c, 0, 64, 109
1, 992756, Control_c, 0, 67, 60
1, 992771, Control_c, 0, 64, 127
1, 992771, Control_c, 0, 67, 65
1, 992786, Control_c, 0, 67, 71
1, 992802, Control_c, 0, 67, 77
1, 992817, Control_c, 0, 67, 82
1, 992826, Note_off_c, 0, 65, 54
1, 992831, Control_c, 0, 67, 86
1, 992846, Control_c, 0, 67, 89
1, 992861, Control_c, 0, 67, 90
1, 992876, Control_c, 0, 67, 92
1, 992885, Note_off_c, 0, 62, 55
1, 992891, Control_c, 0, 67, 93
1, 992905, Control_c, 0, 67, 94
1, 992920, Control_c, 0, 67, 95
1, 992935, Control_c, 0, 67, 96
1, 992949, Control_c, 0, 67, 96
1, 992964, Control_c, 0, 67, 97
1, 992979, Control_c, 0, 67, 97
1, 992994, Control_c, 0, 67, 98
1, 993009, Control_c, 0, 67, 99
1, 993023, Control_c, 0, 67, 99
1, 993038, Control_c, 0, 67, 100
1, 993118, Note_on_c, 0, 72, 76
1, 993126, Note_on_c, 0, 64, 64
1, 993127, Note_on_c, 0, 60, 60
1, 993133, Note_on_c, 0, 48, 66
1, 993142, Control_c, 0, 64, 113
1, 993157, Control_c, 0, 64, 83
1, 993172, Control_c, 0, 64, 63
1, 993186, Control_c, 0, 64, 0
1, 993192, Note_off_c, 0, 71, 61
1, 993216, Control_c, 0, 67, 99
1, 993231, Control_c, 0, 67, 98
1, 993246, Control_c, 0, 67, 97
1, 993268, Control_c, 0, 67, 96
1, 993283, Control_c, 0, 67, 95
1, 993297, Control_c, 0, 67, 93
1, 993312, Control_c, 0, 67, 91
1, 993327, Control_c, 0, 64, 62
1, 993327, Control_c, 0, 67, 89
1, 993341, Control_c, 0, 64, 72
1, 993341, Control_c, 0, 67, 88
1, 993346, Note_off_c, 0, 55, 64
1, 993347, Note_off_c, 0, 67, 62
1, 993350, Note_off_c, 0, 60, 63
1, 993356, Control_c, 0, 64, 83
1, 993356, Control_c, 0, 67, 88
1, 993361, Note_off_c, 0, 64, 65
1, 993362, Note_off_c, 0, 72, 65
1, 993365, Note_off_c, 0, 48, 63
1, 993371, Control_c, 0, 64, 100
1, 993371, Control_c, 0, 67, 87
1, 993386, Control_c, 0, 64, 127
1, 993386, Control_c, 0, 67, 86
1, 993401, Control_c, 0, 67, 87
1, 993416, Control_c, 0, 67, 89
1, 993431, Control_c, 0, 67, 91
1, 993446, Control_c, 0, 67, 93
1, 993461, Control_c, 0, 67, 95
1, 993476, Control_c, 0, 67, 98
1, 993490, Control_c, 0, 67, 102
1, 993505, Control_c, 0, 67, 109
1, 993520, Control_c, 0, 67, 118
1, 993535, Control_c, 0, 67, 126
1, 993549, Control_c, 0, 67, 127
1, 993595, Control_c, 0, 64, 89
1, 993610, Control_c, 0, 64, 71
1, 993625, Control_c, 0, 64, 17
1, 993639, Control_c, 0, 64, 0
1, 993787, Control_c, 0, 64, 50
1, 993802, Control_c, 0, 64, 65
1, 993817, Control_c, 0, 64, 72
1, 993832, Control_c, 0, 64, 79
1, 993846, Control_c, 0, 64, 87
1, 993859, Note_on_c, 0, 58, 40
1, 993861, Control_c, 0, 64, 93
1, 993876, Control_c, 0, 64, 99
1, 993891, Control_c, 0, 64, 103
1, 993906, Control_c, 0, 64, 108
1, 993920, Control_c, 0, 64, 112
1, 993935, Control_c, 0, 64, 119
1, 993950, Control_c, 0, 64, 127
1, 993979, Note_off_c, 0, 58, 49
1, 993986, Note_on_c, 0, 60, 49
1, 994032, Note_off_c, 0, 60, 64
1, 994235, Note_on_c, 0, 62, 42
1, 994297, Control_c, 0, 64, 116
1, 994312, Control_c, 0, 64, 85
1, 994327, Control_c, 0, 64, 67
1, 994342, Control_c, 0, 64, 17
1, 994347, Note_off_c, 0, 62, 54
1, 994351, Note_on_c, 0, 63, 46
1, 994356, Note_on_c, 0, 34, 40
1, 994357, Control_c, 0, 64, 0
1, 994371, Control_c, 0, 64, 44
1, 994387, Control_c, 0, 64, 63
1, 994398, Note_off_c, 0, 34, 59
1, 994402, Control_c, 0, 64, 67
1, 994417, Control_c, 0, 64, 74
1, 994432, Control_c, 0, 64, 83
1, 994447, Control_c, 0, 64, 96
1, 994461, Control_c, 0, 64, 117
1, 994463, Note_on_c, 0, 65, 48
1, 994476, Control_c, 0, 64, 127
1, 994480, Note_off_c, 0, 63, 55
1, 994532, Note_off_c, 0, 65, 61
1, 994683, Note_on_c, 0, 67, 54
1, 994757, Note_on_c, 0, 63, 45
1, 994769, Note_on_c, 0, 56, 42
1, 994773, Note_off_c, 0, 67, 56
1, 994775, Note_on_c, 0, 53, 39
1, 994779, Note_on_c, 0, 68, 56
1, 994825, Note_off_c, 0, 68, 59
1, 994831, Note_on_c, 0, 70, 55
1, 994856, Note_off_c, 0, 70, 64
1, 995018, Note_on_c, 0, 72, 38
1, 995061, Note_off_c, 0, 72, 50
1, 995066, Note_on_c, 0, 70, 69
1, 995074, Note_on_c, 0, 62, 57
1, 995079, Note_off_c, 0, 63, 59
1, 995103, Note_off_c, 0, 62, 64
1, 995134, Note_off_c, 0, 56, 61
1, 995139, Note_off_c, 0, 70, 62
1, 995144, Note_on_c, 0, 72, 65
1, 995167, Note_off_c, 0, 53, 44
1, 995182, Note_off_c, 0, 72, 59
1, 995299, Control_c, 0, 64, 109
1, 995303, Note_on_c, 0, 74, 68
1, 995314, Control_c, 0, 64, 78
1, 995329, Control_c, 0, 64, 0
1, 995369, Note_on_c, 0, 34, 56
1, 995372, Note_on_c, 0, 75, 67
1, 995373, Control_c, 0, 64, 64
1, 995383, Note_off_c, 0, 74, 60
1, 995388, Control_c, 0, 64, 73
1, 995403, Control_c, 0, 64, 90
1, 995404, Note_off_c, 0, 34, 62
1, 995417, Control_c, 0, 64, 127
1, 995440, Note_on_c, 0, 77, 69
1, 995449, Note_off_c, 0, 75, 62
1, 995474, Note_off_c, 0, 77, 62
1, 995624, Note_on_c, 0, 79, 69
1, 995677, Control_c, 0, 64, 82
1, 995684, Note_on_c, 0, 80, 66
1, 995685, Note_on_c, 0, 56, 54
1, 995687, Note_on_c, 0, 63, 47
1, 995691, Control_c, 0, 64, 65
1, 995696, Note_off_c, 0, 79, 58
1, 995698, Note_on_c, 0, 53, 41
1, 995706, Control_c, 0, 64, 66
1, 995721, Control_c, 0, 64, 75
1, 995736, Control_c, 0, 64, 88
1, 995750, Control_c, 0, 64, 127
1, 995758, Note_on_c, 0, 82, 76
1, 995762, Note_off_c, 0, 80, 63
1, 995782, Note_off_c, 0, 82, 67
1, 995825, Control_c, 0, 67, 126
1, 995839, Control_c, 0, 67, 123
1, 995854, Control_c, 0, 67, 119
1, 995869, Control_c, 0, 67, 115
1, 995884, Control_c, 0, 67, 110
1, 995899, Control_c, 0, 67, 104
1, 995910, Note_on_c, 0, 84, 69
1, 995914, Control_c, 0, 67, 96
1, 995929, Control_c, 0, 67, 88
1, 995943, Control_c, 0, 67, 79
1, 995958, Control_c, 0, 67, 71
1, 995965, Note_on_c, 0, 82, 87
1, 995966, Note_off_c, 0, 84, 64
1, 995969, Note_on_c, 0, 62, 64
1, 995973, Control_c, 0, 67, 63
1, 995979, Note_off_c, 0, 63, 59
1, 995988, Control_c, 0, 67, 53
1, 996000, Note_off_c, 0, 62, 64
1, 996003, Control_c, 0, 67, 48
1, 996018, Control_c, 0, 67, 46
1, 996031, Note_off_c, 0, 56, 62
1, 996033, Note_off_c, 0, 82, 63
1, 996044, Note_on_c, 0, 84, 82
1, 996060, Note_off_c, 0, 53, 45
1, 996063, Control_c, 0, 67, 48
1, 996072, Note_off_c, 0, 84, 63
1, 996078, Control_c, 0, 67, 52
1, 996093, Control_c, 0, 67, 54
1, 996107, Control_c, 0, 67, 58
1, 996122, Control_c, 0, 67, 61
1, 996137, Control_c, 0, 67, 66
1, 996152, Control_c, 0, 67, 71
1, 996166, Control_c, 0, 67, 74
1, 996181, Control_c, 0, 67, 76
1, 996191, Note_on_c, 0, 86, 83
1, 996196, Control_c, 0, 67, 78
1, 996211, Control_c, 0, 64, 99
1, 996211, Control_c, 0, 67, 81
1, 996226, Control_c, 0, 64, 71
1, 996226, Control_c, 0, 67, 86
1, 996240, Control_c, 0, 64, 0
1, 996240, Control_c, 0, 67, 90
1, 996263, Control_c, 0, 64, 31
1, 996263, Control_c, 0, 67, 93
1, 996273, Note_on_c, 0, 87, 77
1, 996278, Control_c, 0, 64, 64
1, 996278, Control_c, 0, 67, 95
1, 996282, Note_on_c, 0, 34, 59
1, 996284, Note_off_c, 0, 86, 58
1, 996293, Control_c, 0, 64, 75
1, 996293, Control_c, 0, 67, 95
1, 996307, Control_c, 0, 64, 90
1, 996322, Control_c, 0, 64, 127
1, 996322, Control_c, 0, 67, 94
1, 996323, Note_off_c, 0, 34, 61
1, 996337, Control_c, 0, 67, 93
1, 996341, Note_on_c, 0, 84, 66
1, 996352, Note_off_c, 0, 87, 65
1, 996352, Control_c, 0, 67, 92
1, 996361, Note_off_c, 0, 84, 67
1, 996367, Control_c, 0, 67, 91
1, 996382, Control_c, 0, 67, 90
1, 996397, Control_c, 0, 67, 90
1, 996412, Control_c, 0, 67, 89
1, 996427, Control_c, 0, 67, 89
1, 996441, Control_c, 0, 67, 88
1, 996456, Control_c, 0, 67, 88
1, 996498, Note_on_c, 0, 82, 63
1, 996515, Control_c, 0, 67, 88
1, 996530, Control_c, 0, 67, 89
1, 996545, Control_c, 0, 67, 90
1, 996560, Control_c, 0, 64, 100
1, 996560, Control_c, 0, 67, 90
1, 996567, Note_on_c, 0, 79, 72
1, 996574, Control_c, 0, 64, 74
1, 996574, Control_c, 0, 67, 91
1, 996589, Control_c, 0, 64, 67
1, 996601, Note_on_c, 0, 55, 51
1, 996603, Note_on_c, 0, 51, 47
1, 996603, Note_off_c, 0, 82, 62
1, 996604, Control_c, 0, 64, 73
1, 996619, Control_c, 0, 64, 81
1, 996633, Note_off_c, 0, 79, 61
1, 996634, Control_c, 0, 64, 97
1, 996634, Control_c, 0, 67, 90
1, 996648, Control_c, 0, 64, 127
1, 996653, Note_on_c, 0, 75, 62
1, 996659, Note_off_c, 0, 51, 63
1, 996678, Control_c, 0, 67, 90
1, 996680, Note_off_c, 0, 75, 66
1, 996707, Control_c, 0, 67, 89
1, 996722, Note_off_c, 0, 55, 60
1, 996722, Control_c, 0, 67, 89
1, 996737, Control_c, 0, 67, 88
1, 996802, Note_on_c, 0, 72, 63
1, 996827, Control_c, 0, 67, 88
1, 996857, Control_c, 0, 64, 109
1, 996863, Note_on_c, 0, 70, 69
1, 996865, Note_on_c, 0, 58, 79
1, 996871, Note_on_c, 0, 55, 62
1, 996871, Control_c, 0, 64, 85
1, 996871, Control_c, 0, 67, 88
1, 996877, Note_off_c, 0, 72, 60
1, 996886, Control_c, 0, 64, 72
1, 996901, Control_c, 0, 64, 70
1, 996916, Control_c, 0, 64, 76
1, 996922, Note_off_c, 0, 70, 63
1, 996930, Control_c, 0, 64, 85
1, 996930, Control_c, 0, 67, 88
1, 996939, Note_on_c, 0, 67, 72
1, 996945, Control_c, 0, 64, 103
1, 996945, Control_c, 0, 67, 87
1, 996960, Control_c, 0, 64, 127
1, 996960, Control_c, 0, 67, 87
1, 996975, Note_off_c, 0, 67, 60
1, 996975, Control_c, 0, 67, 86
1, 996990, Control_c, 0, 67, 86
1, 997057, Control_c, 0, 67, 85
1, 997086, Control_c, 0, 67, 85
1, 997116, Control_c, 0, 67, 84
1, 997118, Note_on_c, 0, 63, 66
1, 997190, Note_on_c, 0, 60, 72
1, 997190, Control_c, 0, 67, 85
1, 997198, Note_off_c, 0, 55, 59
1, 997202, Note_on_c, 0, 62, 60
1, 997205, Control_c, 0, 67, 85
1, 997210, Note_on_c, 0, 56, 62
1, 997211, Note_off_c, 0, 63, 55
1, 997220, Control_c, 0, 64, 109
1, 997220, Control_c, 0, 67, 86
1, 997235, Control_c, 0, 64, 78
1, 997235, Control_c, 0, 67, 86
1, 997249, Control_c, 0, 64, 55
1, 997264, Control_c, 0, 64, 0
1, 997264, Control_c, 0, 67, 87
1, 997295, Note_off_c, 0, 58, 58
1, 997353, Control_c, 0, 64, 42
1, 997368, Control_c, 0, 64, 67
1, 997383, Control_c, 0, 64, 78
1, 997397, Control_c, 0, 64, 95
1, 997412, Control_c, 0, 64, 127
1, 997442, Control_c, 0, 67, 88
1, 997457, Control_c, 0, 67, 89
1, 997471, Control_c, 0, 67, 90
1, 997486, Control_c, 0, 67, 91
1, 997501, Control_c, 0, 67, 92
1, 997515, Control_c, 0, 67, 93
1, 997530, Control_c, 0, 64, 99
1, 997530, Control_c, 0, 67, 94
1, 997545, Control_c, 0, 64, 75
1, 997545, Control_c, 0, 67, 95
1, 997559, Note_on_c, 0, 58, 59
1, 997560, Control_c, 0, 64, 42
1, 997560, Control_c, 0, 67, 96
1, 997564, Note_off_c, 0, 56, 57
1, 997572, Note_on_c, 0, 55, 52
1, 997575, Control_c, 0, 64, 0
1, 997575, Control_c, 0, 67, 98
1, 997590, Note_off_c, 0, 60, 55
1, 997591, Control_c, 0, 67, 101
1, 997606, Control_c, 0, 67, 104
1, 997620, Control_c, 0, 67, 106
1, 997635, Control_c, 0, 64, 47
1, 997635, Control_c, 0, 67, 108
1, 997650, Control_c, 0, 64, 66
1, 997650, Control_c, 0, 67, 111
1, 997665, Control_c, 0, 64, 77
1, 997665, Control_c, 0, 67, 113
1, 997680, Control_c, 0, 64, 96
1, 997680, Control_c, 0, 67, 116
1, 997694, Control_c, 0, 64, 127
1, 997694, Control_c, 0, 67, 119
1, 997709, Control_c, 0, 67, 122
1, 997724, Control_c, 0, 67, 125
1, 997738, Control_c, 0, 67, 127
1, 997748, Note_off_c, 0, 58, 55
1, 997830, Note_off_c, 0, 55, 56
1, 997863, Control_c, 0, 64, 86
1, 997874, Note_on_c, 0, 56, 49
1, 997877, Note_on_c, 0, 53, 44
1, 997878, Control_c, 0, 64, 66
1, 997879, Note_on_c, 0, 58, 59
1, 997888, Note_off_c, 0, 62, 43
1, 997893, Control_c, 0, 64, 0
1, 997908, Control_c, 0, 64, 44
1, 997923, Control_c, 0, 64, 64
1, 997937, Control_c, 0, 64, 73
1, 997939, Note_off_c, 0, 53, 62
1, 997947, Note_off_c, 0, 56, 62
1, 997952, Control_c, 0, 64, 85
1, 997959, Note_off_c, 0, 58, 59
1, 997963, Note_on_c, 0, 60, 59
1, 997967, Control_c, 0, 64, 107
1, 997982, Control_c, 0, 64, 127
1, 998021, Note_off_c, 0, 60, 64
1, 998121, Note_on_c, 0, 62, 63
1, 998129, Control_c, 0, 64, 100
1, 998144, Control_c, 0, 64, 77
1, 998159, Control_c, 0, 64, 60
1, 998174, Control_c, 0, 64, 0
1, 998177, Note_on_c, 0, 34, 60
1, 998182, Note_off_c, 0, 62, 59
1, 998183, Note_on_c, 0, 63, 64
1, 998189, Control_c, 0, 64, 41
1, 998203, Control_c, 0, 64, 65
1, 998218, Note_off_c, 0, 34, 62
1, 998218, Control_c, 0, 64, 75
1, 998233, Control_c, 0, 64, 89
1, 998248, Control_c, 0, 64, 127
1, 998249, Note_off_c, 0, 63, 61
1, 998252, Note_on_c, 0, 65, 68
1, 998289, Note_off_c, 0, 65, 60
1, 998406, Note_on_c, 0, 67, 65
1, 998427, Control_c, 0, 64, 111
1, 998442, Control_c, 0, 64, 81
1, 998457, Control_c, 0, 64, 63
1, 998463, Note_on_c, 0, 51, 35
1, 998465, Note_on_c, 0, 68, 63
1, 998468, Note_on_c, 0, 53, 51
1, 998472, Control_c, 0, 64, 0
1, 998473, Note_on_c, 0, 60, 48
1, 998486, Note_off_c, 0, 67, 58
1, 998501, Control_c, 0, 64, 34
1, 998523, Control_c, 0, 64, 65
1, 998538, Control_c, 0, 64, 75
1, 998546, Note_off_c, 0, 68, 62
1, 998553, Control_c, 0, 64, 91
1, 998556, Note_on_c, 0, 74, 69
1, 998560, Note_off_c, 0, 60, 63
1, 998567, Control_c, 0, 64, 127
1, 998583, Note_off_c, 0, 74, 67
1, 998647, Note_off_c, 0, 51, 44
1, 998713, Note_on_c, 0, 72, 61
1, 998716, Control_c, 0, 64, 98
1, 998731, Control_c, 0, 64, 74
1, 998746, Control_c, 0, 64, 41
1, 998756, Note_on_c, 0, 58, 53
1, 998760, Control_c, 0, 64, 0
1, 998768, Note_on_c, 0, 50, 45
1, 998772, Note_on_c, 0, 70, 64
1, 998775, Control_c, 0, 64, 61
1, 998776, Note_off_c, 0, 72, 61
1, 998790, Control_c, 0, 64, 71
1, 998805, Control_c, 0, 64, 84
1, 998820, Control_c, 0, 64, 116
1, 998824, Note_off_c, 0, 58, 60
1, 998829, Note_off_c, 0, 53, 65
1, 998834, Control_c, 0, 64, 127
1, 998837, Note_off_c, 0, 70, 60
1, 998841, Note_on_c, 0, 65, 63
1, 998866, Note_off_c, 0, 50, 64
1, 998878, Note_off_c, 0, 65, 61
1, 998997, Control_c, 0, 64, 101
1, 998999, Note_on_c, 0, 66, 58
1, 999012, Control_c, 0, 64, 74
1, 999026, Control_c, 0, 64, 19
1, 999027, Note_off_c, 0, 66, 58
1, 999041, Control_c, 0, 64, 0
1, 999050, Note_on_c, 0, 34, 62
1, 999061, Note_on_c, 0, 67, 68
1, 999071, Control_c, 0, 64, 60
1, 999086, Note_off_c, 0, 34, 63
1, 999086, Control_c, 0, 64, 71
1, 999098, Note_off_c, 0, 67, 56
1, 999101, Control_c, 0, 64, 86
1, 999115, Control_c, 0, 64, 127
1, 999133, Note_on_c, 0, 75, 70
1, 999196, Note_off_c, 0, 75, 57
1, 999300, Note_on_c, 0, 79, 69
1, 999346, Control_c, 0, 64, 104
1, 999357, Note_on_c, 0, 60, 57
1, 999362, Control_c, 0, 64, 74
1, 999365, Note_on_c, 0, 53, 47
1, 999370, Note_on_c, 0, 80, 70
1, 999377, Control_c, 0, 64, 0
1, 999380, Note_on_c, 0, 51, 44
1, 999396, Note_off_c, 0, 79, 60
1, 999406, Control_c, 0, 64, 17
1, 999421, Control_c, 0, 64, 66
1, 999436, Control_c, 0, 64, 77
1, 999446, Note_on_c, 0, 86, 70
1, 999446, Note_off_c, 0, 80, 63
1, 999450, Note_off_c, 0, 60, 62
1, 999451, Control_c, 0, 64, 94
1, 999465, Control_c, 0, 64, 127
1, 999485, Note_off_c, 0, 86, 59
1, 999542, Note_off_c, 0, 51, 37
1, 999598, Control_c, 0, 64, 102
1, 999613, Control_c, 0, 64, 75
1, 999617, Note_on_c, 0, 84, 59
1, 999628, Control_c, 0, 64, 58
1, 999643, Control_c, 0, 64, 11
1, 999658, Control_c, 0, 64, 50
1, 999667, Note_on_c, 0, 50, 47
1, 999672, Note_on_c, 0, 58, 42
1, 999672, Note_on_c, 0, 82, 69
1, 999673, Control_c, 0, 64, 66
1, 999688, Control_c, 0, 64, 77
1, 999698, Note_off_c, 0, 84, 59
1, 999703, Control_c, 0, 64, 104
1, 999717, Control_c, 0, 64, 127
1, 999724, Note_off_c, 0, 58, 59
1, 999739, Note_off_c, 0, 53, 65
1, 999741, Note_off_c, 0, 82, 63
1, 999765, Note_on_c, 0, 77, 64
1, 999770, Note_off_c, 0, 50, 62
1, 999792, Note_off_c, 0, 77, 64
1, 999895, Control_c, 0, 64, 99
1, 999901, Note_on_c, 0, 78, 68
1, 999909, Control_c, 0, 64, 73
1, 999924, Control_c, 0, 64, 0
1, 999958, Note_on_c, 0, 34, 60
1, 999968, Note_on_c, 0, 79, 69
1, 999969, Control_c, 0, 64, 46
1, 999977, Note_off_c, 0, 78, 54
1, 999985, Control_c, 0, 64, 67
1, 999995, Note_off_c, 0, 34, 63
1, 1000000, Control_c, 0, 64, 80
1, 1000022, Control_c, 0, 64, 104
1, 1000036, Note_off_c, 0, 79, 61
1, 1000037, Control_c, 0, 64, 127
1, 1000057, Note_on_c, 0, 75, 62
1, 1000081, Note_off_c, 0, 75, 66
1, 1000206, Note_on_c, 0, 72, 65
1, 1000244, Control_c, 0, 64, 96
1, 1000259, Control_c, 0, 64, 73
1, 1000273, Note_on_c, 0, 70, 64
1, 1000274, Control_c, 0, 64, 38
1, 1000276, Note_off_c, 0, 72, 62
1, 1000279, Note_on_c, 0, 51, 45
1, 1000279, Note_on_c, 0, 55, 46
1, 1000288, Control_c, 0, 64, 48
1, 1000303, Control_c, 0, 64, 65
1, 1000318, Control_c, 0, 64, 75
1, 1000323, Note_off_c, 0, 70, 62
1, 1000332, Control_c, 0, 64, 89
1, 1000344, Note_off_c, 0, 55, 59
1, 1000347, Control_c, 0, 64, 127
1, 1000349, Note_on_c, 0, 67, 61
1, 1000379, Note_off_c, 0, 67, 64
1, 1000493, Note_on_c, 0, 63, 68
1, 1000525, Control_c, 0, 64, 92
1, 1000540, Control_c, 0, 64, 72
1, 1000555, Control_c, 0, 64, 56
1, 1000564, Note_on_c, 0, 60, 70
1, 1000565, Note_off_c, 0, 63, 62
1, 1000570, Control_c, 0, 64, 59
1, 1000575, Note_on_c, 0, 55, 55
1, 1000585, Control_c, 0, 64, 67
1, 1000600, Control_c, 0, 64, 75
1, 1000607, Note_off_c, 0, 55, 64
1, 1000614, Control_c, 0, 64, 88
1, 1000629, Control_c, 0, 64, 111
1, 1000630, Note_off_c, 0, 60, 65
1, 1000632, Note_on_c, 0, 58, 70
1, 1000644, Control_c, 0, 64, 127
1, 1000657, Note_off_c, 0, 58, 67
1, 1000657, Note_off_c, 0, 51, 37
1, 1000839, Note_on_c, 0, 55, 68
1, 1000903, Control_c, 0, 64, 101
1, 1000918, Control_c, 0, 64, 79
1, 1000920, Note_on_c, 0, 46, 78
1, 1000933, Control_c, 0, 64, 63
1, 1000948, Control_c, 0, 64, 0
1, 1001002, Note_on_c, 0, 53, 55
1, 1001028, Note_on_c, 0, 50, 48
1, 1001036, Control_c, 0, 64, 27
1, 1001051, Control_c, 0, 64, 65
1, 1001054, Note_off_c, 0, 55, 53
1, 1001066, Control_c, 0, 64, 74
1, 1001081, Control_c, 0, 64, 87
1, 1001096, Control_c, 0, 64, 111
1, 1001110, Control_c, 0, 64, 127
1, 1001184, Control_c, 0, 67, 125
1, 1001199, Control_c, 0, 67, 123
1, 1001214, Control_c, 0, 67, 121
1, 1001229, Control_c, 0, 67, 119
1, 1001244, Control_c, 0, 67, 117
1, 1001259, Control_c, 0, 67, 116
1, 1001274, Control_c, 0, 67, 115
1, 1001303, Control_c, 0, 64, 87
1, 1001318, Control_c, 0, 64, 61
1, 1001333, Control_c, 0, 64, 0
1, 1001370, Note_on_c, 0, 55, 74
1, 1001399, Note_off_c, 0, 50, 58
1, 1001422, Control_c, 0, 64, 26
1, 1001422, Control_c, 0, 67, 114
1, 1001436, Control_c, 0, 64, 67
1, 1001451, Control_c, 0, 64, 84
1, 1001451, Control_c, 0, 67, 114
1, 1001466, Control_c, 0, 64, 127
1, 1001466, Control_c, 0, 67, 113
1, 1001480, Control_c, 0, 67, 113
1, 1001495, Control_c, 0, 67, 110
1, 1001518, Control_c, 0, 67, 107
1, 1001533, Control_c, 0, 67, 102
1, 1001548, Control_c, 0, 67, 98
1, 1001562, Control_c, 0, 67, 93
1, 1001578, Control_c, 0, 67, 88
1, 1001589, Note_off_c, 0, 55, 62
1, 1001590, Note_off_c, 0, 53, 65
1, 1001593, Control_c, 0, 67, 84
1, 1001607, Control_c, 0, 67, 81
1, 1001622, Control_c, 0, 67, 79
1, 1001637, Control_c, 0, 67, 77
1, 1001652, Control_c, 0, 67, 77
1, 1001667, Control_c, 0, 67, 76
1, 1001696, Note_on_c, 0, 53, 80
1, 1001716, Note_on_c, 0, 44, 62
1, 1001741, Control_c, 0, 64, 124
1, 1001756, Control_c, 0, 64, 81
1, 1001771, Control_c, 0, 64, 62
1, 1001775, Note_off_c, 0, 46, 61
1, 1001785, Control_c, 0, 64, 26
1, 1001800, Control_c, 0, 64, 62
1, 1001815, Control_c, 0, 64, 70
1, 1001830, Control_c, 0, 64, 80
1, 1001845, Control_c, 0, 64, 100
1, 1001859, Control_c, 0, 64, 127
1, 1001874, Control_c, 0, 67, 76
1, 1001895, Note_off_c, 0, 44, 63
1, 1001918, Control_c, 0, 67, 75
1, 1002034, Note_on_c, 0, 51, 89
1, 1002073, Note_on_c, 0, 43, 56
1, 1002094, Note_off_c, 0, 53, 54
1, 1002126, Control_c, 0, 64, 101
1, 1002141, Control_c, 0, 64, 77
1, 1002156, Control_c, 0, 64, 55
1, 1002171, Control_c, 0, 64, 0
1, 1002230, Control_c, 0, 67, 75
1, 1002266, Control_c, 0, 64, 64
1, 1002281, Control_c, 0, 64, 76
1, 1002296, Control_c, 0, 64, 91
1, 1002296, Control_c, 0, 67, 74
1, 1002311, Control_c, 0, 64, 127
1, 1002341, Control_c, 0, 67, 74
1, 1002386, Note_on_c, 0, 58, 85
1, 1002387, Control_c, 0, 67, 73
1, 1002402, Control_c, 0, 67, 72
1, 1002416, Control_c, 0, 67, 68
1, 1002431, Control_c, 0, 67, 64
1, 1002446, Control_c, 0, 67, 61
1, 1002461, Control_c, 0, 67, 58
1, 1002476, Control_c, 0, 67, 54
1, 1002487, Note_off_c, 0, 58, 63
1, 1002490, Control_c, 0, 67, 49
1, 1002505, Control_c, 0, 67, 44
1, 1002520, Control_c, 0, 67, 38
1, 1002535, Control_c, 0, 67, 32
1, 1002549, Control_c, 0, 67, 27
1, 1002564, Control_c, 0, 67, 22
1, 1002567, Note_off_c, 0, 43, 40
1, 1002579, Control_c, 0, 67, 19
1, 1002594, Control_c, 0, 67, 17
1, 1002609, Control_c, 0, 67, 15
1, 1002624, Control_c, 0, 67, 13
1, 1002639, Control_c, 0, 67, 13
1, 1002703, Note_off_c, 0, 51, 54
1, 1002752, Note_on_c, 0, 58, 79
1, 1002772, Control_c, 0, 67, 13
1, 1002776, Note_on_c, 0, 46, 52
1, 1002781, Note_on_c, 0, 41, 61
1, 1002787, Control_c, 0, 67, 14
1, 1002788, Note_on_c, 0, 56, 53
1, 1002801, Control_c, 0, 67, 15
1, 1002816, Control_c, 0, 67, 16
1, 1002831, Control_c, 0, 64, 100
1, 1002831, Control_c, 0, 67, 17
1, 1002846, Control_c, 0, 64, 71
1, 1002846, Control_c, 0, 67, 18
1, 1002861, Control_c, 0, 64, 47
1, 1002861, Control_c, 0, 67, 20
1, 1002875, Control_c, 0, 64, 54
1, 1002875, Control_c, 0, 67, 21
1, 1002890, Control_c, 0, 64, 64
1, 1002890, Control_c, 0, 67, 21
1, 1002905, Control_c, 0, 64, 70
1, 1002905, Control_c, 0, 67, 22
1, 1002919, Control_c, 0, 64, 79
1, 1002919, Control_c, 0, 67, 23
1, 1002931, Note_off_c, 0, 46, 51
1, 1002934, Control_c, 0, 64, 103
1, 1002934, Control_c, 0, 67, 24
1, 1002949, Control_c, 0, 64, 127
1, 1002949, Control_c, 0, 67, 25
1, 1002964, Control_c, 0, 67, 28
1, 1002979, Control_c, 0, 67, 31
1, 1002988, Note_off_c, 0, 56, 62
1, 1002994, Control_c, 0, 67, 35
1, 1003016, Control_c, 0, 67, 40
1, 1003031, Control_c, 0, 67, 46
1, 1003046, Control_c, 0, 67, 52
1, 1003054, Note_off_c, 0, 41, 60
1, 1003060, Control_c, 0, 67, 58
1, 1003075, Control_c, 0, 67, 65
1, 1003090, Control_c, 0, 67, 69
1, 1003105, Control_c, 0, 67, 72
1, 1003120, Control_c, 0, 67, 74
1, 1003134, Control_c, 0, 67, 76
1, 1003138, Note_off_c, 0, 58, 59
1, 1003149, Control_c, 0, 67, 77
1, 1003164, Control_c, 0, 67, 78
1, 1003180, Control_c, 0, 67, 79
1, 1003199, Note_on_c, 0, 58, 67
1, 1003214, Note_on_c, 0, 55, 60
1, 1003217, Note_on_c, 0, 46, 58
1, 1003225, Control_c, 0, 67, 79
1, 1003228, Note_on_c, 0, 39, 53
1, 1003239, Control_c, 0, 67, 80
1, 1003284, Control_c, 0, 64, 108
1, 1003286, Poly_aftertouch_c, 0, 41, 127
1, 1003299, Control_c, 0, 64, 81
1, 1003313, Control_c, 0, 64, 63
1, 1003328, Control_c, 0, 64, 0
1, 1003333, Poly_aftertouch_c, 0, 41, 0
1, 1003387, Control_c, 0, 67, 79
1, 1003402, Control_c, 0, 67, 78
1, 1003417, Control_c, 0, 67, 78
1, 1003432, Control_c, 0, 67, 77
1, 1003447, Control_c, 0, 64, 34
1, 1003447, Control_c, 0, 67, 77
1, 1003462, Control_c, 0, 64, 60
1, 1003462, Control_c, 0, 67, 76
1, 1003476, Control_c, 0, 64, 64
1, 1003476, Control_c, 0, 67, 75
1, 1003491, Control_c, 0, 64, 66
1, 1003491, Control_c, 0, 67, 75
1, 1003506, Control_c, 0, 64, 68
1, 1003506, Control_c, 0, 67, 74
1, 1003521, Control_c, 0, 64, 69
1, 1003521, Control_c, 0, 67, 74
1, 1003536, Control_c, 0, 64, 71
1, 1003550, Control_c, 0, 67, 73
1, 1003565, Control_c, 0, 64, 70
1, 1003580, Control_c, 0, 64, 67
1, 1003595, Control_c, 0, 64, 64
1, 1003610, Control_c, 0, 64, 61
1, 1003624, Control_c, 0, 64, 51
1, 1003639, Control_c, 0, 64, 0
1, 1003668, Control_c, 0, 67, 74
1, 1003687, Note_on_c, 0, 67, 83
1, 1003780, Control_c, 0, 67, 73
1, 1003795, Control_c, 0, 64, 64
1, 1003810, Control_c, 0, 64, 76
1, 1003810, Control_c, 0, 67, 73
1, 1003825, Control_c, 0, 64, 97
1, 1003839, Control_c, 0, 64, 127
1, 1003839, Control_c, 0, 67, 72
1, 1003869, Control_c, 0, 67, 72
1, 1003879, Note_off_c, 0, 55, 62
1, 1003885, Note_off_c, 0, 58, 61
1, 1003972, Control_c, 0, 67, 72
1, 1003988, Control_c, 0, 67, 73
1, 1004018, Control_c, 0, 67, 73
1, 1004020, Note_on_c, 0, 65, 79
1, 1004033, Control_c, 0, 67, 74
1, 1004034, Note_on_c, 0, 50, 56
1, 1004037, Note_on_c, 0, 59, 56
1, 1004040, Note_off_c, 0, 39, 37
1, 1004044, Note_on_c, 0, 38, 50
1, 1004048, Control_c, 0, 64, 97
1, 1004052, Note_on_c, 0, 53, 53
1, 1004062, Control_c, 0, 64, 73
1, 1004062, Control_c, 0, 67, 74
1, 1004066, Note_off_c, 0, 46, 51
1, 1004070, Note_off_c, 0, 67, 63
1, 1004077, Control_c, 0, 64, 39
1, 1004092, Control_c, 0, 64, 0
1, 1004121, Control_c, 0, 64, 26
1, 1004136, Control_c, 0, 64, 60
1, 1004151, Control_c, 0, 64, 69
1, 1004151, Control_c, 0, 67, 74
1, 1004166, Control_c, 0, 64, 80
1, 1004172, Note_off_c, 0, 53, 62
1, 1004180, Control_c, 0, 64, 106
1, 1004180, Control_c, 0, 67, 73
1, 1004195, Control_c, 0, 64, 127
1, 1004208, Note_off_c, 0, 50, 53
1, 1004356, Note_on_c, 0, 63, 68
1, 1004359, Control_c, 0, 67, 74
1, 1004367, Note_off_c, 0, 65, 57
1, 1004373, Control_c, 0, 67, 74
1, 1004387, Note_off_c, 0, 38, 50
1, 1004388, Control_c, 0, 64, 109
1, 1004388, Control_c, 0, 67, 75
1, 1004392, Note_on_c, 0, 60, 51
1, 1004401, Note_on_c, 0, 36, 49
1, 1004402, Note_on_c, 0, 48, 47
1, 1004403, Control_c, 0, 64, 79
1, 1004409, Note_on_c, 0, 51, 44
1, 1004418, Control_c, 0, 64, 53
1, 1004418, Control_c, 0, 67, 76
1, 1004433, Control_c, 0, 64, 0
1, 1004457, Note_off_c, 0, 59, 58
1, 1004477, Control_c, 0, 64, 27
1, 1004499, Control_c, 0, 64, 63
1, 1004514, Control_c, 0, 64, 73
1, 1004514, Control_c, 0, 67, 76
1, 1004529, Control_c, 0, 64, 88
1, 1004544, Control_c, 0, 64, 127
1, 1004550, Note_off_c, 0, 51, 61
1, 1004645, Note_off_c, 0, 48, 56
1, 1004675, Note_on_c, 0, 62, 71
1, 1004690, Note_on_c, 0, 50, 48
1, 1004721, Note_off_c, 0, 50, 56
1, 1004721, Note_off_c, 0, 63, 57
1, 1004801, Note_on_c, 0, 63, 80
1, 1004816, Note_on_c, 0, 51, 53
1, 1004865, Note_off_c, 0, 51, 59
1, 1004872, Note_off_c, 0, 62, 32
1, 1004875, Note_off_c, 0, 60, 39
1, 1004884, Control_c, 0, 67, 76
1, 1004928, Control_c, 0, 67, 75
1, 1004958, Control_c, 0, 67, 75
1, 1005003, Control_c, 0, 64, 97
1, 1005004, Note_on_c, 0, 65, 68
1, 1005004, Note_off_c, 0, 63, 55
1, 1005013, Note_on_c, 0, 29, 60
1, 1005014, Note_on_c, 0, 57, 52
1, 1005018, Control_c, 0, 64, 71
1, 1005023, Note_on_c, 0, 41, 51
1, 1005029, Note_off_c, 0, 36, 44
1, 1005031, Note_on_c, 0, 53, 37
1, 1005033, Control_c, 0, 64, 0
1, 1005047, Control_c, 0, 67, 74
1, 1005092, Control_c, 0, 64, 49
1, 1005092, Control_c, 0, 67, 74
1, 1005095, Note_off_c, 0, 53, 63
1, 1005107, Control_c, 0, 64, 66
1, 1005114, Note_off_c, 0, 65, 60
1, 1005121, Control_c, 0, 64, 81
1, 1005136, Control_c, 0, 64, 108
1, 1005136, Control_c, 0, 67, 73
1, 1005137, Note_off_c, 0, 29, 60
1, 1005151, Control_c, 0, 64, 127
1, 1005151, Control_c, 0, 67, 73
1, 1005179, Note_off_c, 0, 41, 59
1, 1005225, Control_c, 0, 67, 73
1, 1005240, Control_c, 0, 67, 74
1, 1005262, Control_c, 0, 67, 75
1, 1005269, Note_off_c, 0, 57, 61
1, 1005274, Note_on_c, 0, 60, 69
1, 1005276, Note_on_c, 0, 63, 69
1, 1005277, Control_c, 0, 67, 76
1, 1005281, Note_on_c, 0, 51, 60
1, 1005292, Control_c, 0, 67, 76
1, 1005298, Note_off_c, 0, 60, 67
1, 1005304, Note_off_c, 0, 63, 64
1, 1005306, Note_off_c, 0, 51, 61
1, 1005307, Control_c, 0, 67, 77
1, 1005322, Control_c, 0, 67, 77
1, 1005336, Control_c, 0, 67, 78
1, 1005352, Control_c, 0, 64, 83
1, 1005352, Control_c, 0, 67, 79
1, 1005353, Note_on_c, 0, 60, 66
1, 1005359, Note_on_c, 0, 63, 73
1, 1005364, Note_on_c, 0, 34, 53
1, 1005366, Control_c, 0, 64, 59
1, 1005366, Control_c, 0, 67, 81
1, 1005376, Note_on_c, 0, 46, 42
1, 1005381, Control_c, 0, 64, 0
1, 1005381, Control_c, 0, 67, 82
1, 1005396, Control_c, 0, 67, 85
1, 1005401, Note_on_c, 0, 51, 33
1, 1005411, Control_c, 0, 67, 86
1, 1005426, Control_c, 0, 67, 88
1, 1005441, Control_c, 0, 67, 90
1, 1005455, Control_c, 0, 64, 57
1, 1005455, Control_c, 0, 67, 92
1, 1005470, Control_c, 0, 64, 71
1, 1005470, Control_c, 0, 67, 94
1, 1005485, Control_c, 0, 64, 85
1, 1005485, Control_c, 0, 67, 95
1, 1005500, Control_c, 0, 64, 118
1, 1005500, Control_c, 0, 67, 96
1, 1005515, Control_c, 0, 64, 127
1, 1005617, Note_off_c, 0, 63, 59
1, 1005630, Note_off_c, 0, 46, 42
1, 1005646, Note_off_c, 0, 51, 50
1, 1005820, Note_on_c, 0, 62, 61
1, 1005841, Control_c, 0, 67, 96
1, 1005843, Note_on_c, 0, 58, 53
1, 1005847, Note_on_c, 0, 50, 49
1, 1005885, Control_c, 0, 64, 83
1, 1005900, Control_c, 0, 64, 63
1, 1005911, Note_off_c, 0, 60, 55
1, 1005915, Control_c, 0, 64, 0
1, 1005989, Control_c, 0, 64, 45
1, 1006012, Control_c, 0, 64, 67
1, 1006012, Control_c, 0, 67, 96
1, 1006026, Control_c, 0, 64, 79
1, 1006026, Control_c, 0, 67, 95
1, 1006041, Control_c, 0, 64, 99
1, 1006041, Control_c, 0, 67, 94
1, 1006056, Control_c, 0, 64, 127
1, 1006056, Control_c, 0, 67, 93
1, 1006064, Note_off_c, 0, 50, 63
1, 1006085, Control_c, 0, 67, 93
1, 1006100, Control_c, 0, 67, 92
1, 1006115, Control_c, 0, 67, 91
1, 1006130, Control_c, 0, 67, 90
1, 1006145, Control_c, 0, 67, 89
1, 1006159, Control_c, 0, 67, 88
1, 1006174, Control_c, 0, 67, 88
1, 1006189, Control_c, 0, 67, 87
1, 1006237, Note_on_c, 0, 61, 72
1, 1006249, Control_c, 0, 67, 86
1, 1006273, Note_off_c, 0, 62, 60
1, 1006278, Control_c, 0, 67, 86
1, 1006284, Note_on_c, 0, 41, 74
1, 1006287, Note_on_c, 0, 49, 48
1, 1006299, Note_on_c, 0, 29, 55
1, 1006308, Control_c, 0, 67, 85
1, 1006323, Control_c, 0, 64, 99
1, 1006323, Control_c, 0, 67, 85
1, 1006338, Control_c, 0, 64, 74
1, 1006338, Control_c, 0, 67, 84
1, 1006352, Control_c, 0, 64, 64
1, 1006352, Control_c, 0, 67, 84
1, 1006368, Control_c, 0, 64, 69
1, 1006368, Control_c, 0, 67, 82
1, 1006383, Control_c, 0, 64, 75
1, 1006383, Control_c, 0, 67, 81
1, 1006398, Control_c, 0, 64, 88
1, 1006398, Control_c, 0, 67, 81
1, 1006413, Control_c, 0, 64, 121
1, 1006413, Control_c, 0, 67, 80
1, 1006428, Control_c, 0, 64, 127
1, 1006428, Control_c, 0, 67, 79
1, 1006442, Control_c, 0, 67, 78
1, 1006457, Control_c, 0, 67, 76
1, 1006472, Control_c, 0, 67, 73
1, 1006487, Control_c, 0, 67, 71
1, 1006501, Control_c, 0, 67, 68
1, 1006514, Note_off_c, 0, 41, 60
1, 1006516, Control_c, 0, 67, 66
1, 1006531, Control_c, 0, 67, 64
1, 1006546, Control_c, 0, 67, 62
1, 1006561, Control_c, 0, 67, 60
1, 1006573, Note_off_c, 0, 29, 36
1, 1006575, Control_c, 0, 67, 59
1, 1006590, Control_c, 0, 67, 57
1, 1006605, Control_c, 0, 67, 55
1, 1006620, Control_c, 0, 67, 54
1, 1006635, Control_c, 0, 67, 53
1, 1006649, Control_c, 0, 67, 52
1, 1006656, Note_off_c, 0, 49, 48
1, 1006658, Note_on_c, 0, 60, 64
1, 1006664, Control_c, 0, 67, 51
1, 1006681, Note_on_c, 0, 41, 88
1, 1006693, Control_c, 0, 67, 50
1, 1006700, Note_on_c, 0, 29, 56
1, 1006708, Control_c, 0, 67, 49
1, 1006723, Control_c, 0, 67, 48
1, 1006738, Control_c, 0, 67, 47
1, 1006752, Note_off_c, 0, 29, 53
1, 1006761, Control_c, 0, 67, 45
1, 1006771, Note_off_c, 0, 58, 57
1, 1006772, Note_off_c, 0, 34, 53
1, 1006775, Control_c, 0, 67, 44
1, 1006790, Control_c, 0, 67, 43
1, 1006805, Control_c, 0, 67, 41
1, 1006820, Control_c, 0, 67, 39
1, 1006835, Control_c, 0, 67, 38
1, 1006849, Control_c, 0, 67, 36
1, 1006864, Control_c, 0, 67, 36
1, 1006887, Note_off_c, 0, 41, 64
1, 1007033, Note_on_c, 0, 49, 90
1, 1007050, Note_on_c, 0, 58, 65
1, 1007060, Note_on_c, 0, 37, 67
1, 1007086, Control_c, 0, 64, 88
1, 1007101, Control_c, 0, 64, 68
1, 1007116, Control_c, 0, 64, 57
1, 1007116, Control_c, 0, 67, 35
1, 1007131, Control_c, 0, 64, 65
1, 1007146, Control_c, 0, 64, 74
1, 1007146, Control_c, 0, 67, 35
1, 1007161, Control_c, 0, 64, 87
1, 1007161, Control_c, 0, 67, 34
1, 1007176, Control_c, 0, 64, 127
1, 1007176, Control_c, 0, 67, 33
1, 1007178, Note_off_c, 0, 61, 37
1, 1007191, Control_c, 0, 67, 33
1, 1007206, Control_c, 0, 67, 32
1, 1007221, Control_c, 0, 67, 32
1, 1007235, Control_c, 0, 67, 31
1, 1007265, Control_c, 0, 67, 31
1, 1007271, Note_off_c, 0, 49, 60
1, 1007348, Note_on_c, 0, 48, 90
1, 1007363, Note_on_c, 0, 61, 69
1, 1007376, Note_on_c, 0, 36, 63
1, 1007384, Control_c, 0, 64, 90
1, 1007384, Control_c, 0, 67, 30
1, 1007385, Note_off_c, 0, 37, 60
1, 1007398, Control_c, 0, 64, 74
1, 1007413, Control_c, 0, 64, 71
1, 1007413, Control_c, 0, 67, 30
1, 1007422, Note_on_c, 0, 56, 43
1, 1007428, Control_c, 0, 64, 80
1, 1007443, Control_c, 0, 64, 97
1, 1007443, Control_c, 0, 67, 29
1, 1007458, Control_c, 0, 64, 127
1, 1007458, Control_c, 0, 67, 29
1, 1007472, Control_c, 0, 67, 28
1, 1007487, Control_c, 0, 67, 27
1, 1007512, Note_off_c, 0, 48, 57
1, 1007524, Control_c, 0, 67, 27
1, 1007598, Control_c, 0, 67, 26
1, 1007676, Note_on_c, 0, 46, 88
1, 1007685, Note_off_c, 0, 60, 19
1, 1007692, Note_on_c, 0, 55, 58
1, 1007697, Note_off_c, 0, 36, 61
1, 1007702, Note_on_c, 0, 34, 65
1, 1007718, Note_off_c, 0, 58, 17
1, 1007746, Control_c, 0, 64, 83
1, 1007761, Control_c, 0, 64, 50
1, 1007776, Control_c, 0, 64, 0
1, 1007835, Control_c, 0, 64, 52
1, 1007842, Note_off_c, 0, 55, 60
1, 1007850, Control_c, 0, 64, 70
1, 1007850, Control_c, 0, 67, 26
1, 1007854, Note_off_c, 0, 56, 63
1, 1007864, Control_c, 0, 64, 88
1, 1007864, Control_c, 0, 67, 25
1, 1007879, Control_c, 0, 64, 127
1, 1007883, Note_off_c, 0, 61, 63
1, 1007894, Control_c, 0, 67, 24
1, 1007909, Control_c, 0, 67, 24
1, 1007924, Control_c, 0, 67, 22
1, 1007939, Control_c, 0, 67, 20
1, 1007954, Control_c, 0, 67, 19
1, 1007969, Control_c, 0, 67, 19
1, 1007984, Control_c, 0, 67, 18
1, 1007999, Control_c, 0, 67, 18
1, 1008014, Control_c, 0, 67, 17
1, 1008024, Note_on_c, 0, 73, 82
1, 1008028, Control_c, 0, 67, 17
1, 1008043, Control_c, 0, 67, 16
1, 1008049, Note_on_c, 0, 61, 50
1, 1008058, Control_c, 0, 67, 16
1, 1008073, Control_c, 0, 67, 15
1, 1008127, Note_off_c, 0, 61, 59
1, 1008165, Note_off_c, 0, 46, 56
1, 1008362, Control_c, 0, 67, 16
1, 1008377, Note_on_c, 0, 72, 70
1, 1008398, Note_on_c, 0, 32, 48
1, 1008399, Note_on_c, 0, 44, 55
1, 1008415, Note_on_c, 0, 65, 52
1, 1008436, Control_c, 0, 67, 16
1, 1008451, Control_c, 0, 67, 17
1, 1008466, Control_c, 0, 67, 18
1, 1008473, Note_off_c, 0, 34, 36
1, 1008480, Control_c, 0, 67, 18
1, 1008495, Control_c, 0, 64, 85
1, 1008495, Control_c, 0, 67, 19
1, 1008510, Control_c, 0, 64, 64
1, 1008510, Control_c, 0, 67, 20
1, 1008519, Note_off_c, 0, 73, 61
1, 1008525, Control_c, 0, 64, 0
1, 1008540, Control_c, 0, 67, 20
1, 1008643, Control_c, 0, 64, 63
1, 1008658, Control_c, 0, 64, 73
1, 1008658, Control_c, 0, 67, 20
1, 1008672, Control_c, 0, 64, 85
1, 1008672, Control_c, 0, 67, 19
1, 1008687, Control_c, 0, 64, 109
1, 1008702, Control_c, 0, 64, 127
1, 1008702, Control_c, 0, 67, 19
1, 1008713, Note_on_c, 0, 70, 75
1, 1008777, Control_c, 0, 67, 18
1, 1008791, Note_off_c, 0, 72, 57
1, 1008854, Note_off_c, 0, 65, 62
1, 1008862, Note_off_c, 0, 44, 61
1, 1008911, Control_c, 0, 67, 19
1, 1008926, Control_c, 0, 67, 19
1, 1008941, Control_c, 0, 67, 20
1, 1008955, Control_c, 0, 67, 20
1, 1008970, Control_c, 0, 67, 21
1, 1008985, Control_c, 0, 67, 22
1, 1009007, Control_c, 0, 67, 23
1, 1009022, Control_c, 0, 67, 23
1, 1009024, Note_on_c, 0, 69, 71
1, 1009037, Control_c, 0, 67, 24
1, 1009045, Note_on_c, 0, 64, 61
1, 1009051, Control_c, 0, 64, 98
1, 1009051, Control_c, 0, 67, 25
1, 1009052, Note_on_c, 0, 43, 53
1, 1009054, Note_on_c, 0, 31, 52
1, 1009066, Control_c, 0, 64, 75
1, 1009066, Control_c, 0, 67, 26
1, 1009071, Note_off_c, 0, 32, 47
1, 1009078, Note_off_c, 0, 70, 57
1, 1009081, Control_c, 0, 64, 56
1, 1009081, Control_c, 0, 67, 27
1, 1009096, Control_c, 0, 64, 0
1, 1009096, Control_c, 0, 67, 28
1, 1009110, Control_c, 0, 67, 30
1, 1009125, Control_c, 0, 64, 48
1, 1009125, Control_c, 0, 67, 32
1, 1009140, Control_c, 0, 64, 64
1, 1009140, Control_c, 0, 67, 34
1, 1009149, Note_off_c, 0, 31, 58
1, 1009151, Note_off_c, 0, 64, 62
1, 1009155, Control_c, 0, 64, 70
1, 1009155, Control_c, 0, 67, 37
1, 1009166, Note_on_c, 0, 70, 79
1, 1009170, Control_c, 0, 64, 79
1, 1009170, Control_c, 0, 67, 40
1, 1009185, Control_c, 0, 64, 93
1, 1009185, Control_c, 0, 67, 44
1, 1009200, Control_c, 0, 64, 127
1, 1009200, Control_c, 0, 67, 49
1, 1009215, Control_c, 0, 67, 53
1, 1009230, Control_c, 0, 67, 58
1, 1009244, Control_c, 0, 67, 62
1, 1009259, Control_c, 0, 67, 65
1, 1009274, Control_c, 0, 67, 67
1, 1009288, Control_c, 0, 67, 69
1, 1009303, Control_c, 0, 67, 70
1, 1009318, Control_c, 0, 67, 70
1, 1009349, Note_on_c, 0, 72, 75
1, 1009362, Note_on_c, 0, 63, 62
1, 1009362, Control_c, 0, 67, 71
1, 1009377, Control_c, 0, 64, 92
1, 1009386, Note_off_c, 0, 69, 62
1, 1009392, Control_c, 0, 64, 71
1, 1009392, Control_c, 0, 67, 72
1, 1009399, Note_on_c, 0, 48, 49
1, 1009403, Note_off_c, 0, 70, 62
1, 1009404, Note_off_c, 0, 43, 56
1, 1009407, Control_c, 0, 64, 0
1, 1009407, Control_c, 0, 67, 73
1, 1009409, Note_on_c, 0, 36, 37
1, 1009421, Control_c, 0, 67, 74
1, 1009436, Control_c, 0, 67, 76
1, 1009451, Control_c, 0, 64, 52
1, 1009451, Control_c, 0, 67, 78
1, 1009466, Control_c, 0, 64, 65
1, 1009466, Control_c, 0, 67, 80
1, 1009481, Control_c, 0, 64, 73
1, 1009481, Control_c, 0, 67, 82
1, 1009486, Note_off_c, 0, 48, 61
1, 1009495, Control_c, 0, 64, 87
1, 1009495, Control_c, 0, 67, 87
1, 1009510, Control_c, 0, 64, 110
1, 1009510, Control_c, 0, 67, 92
1, 1009525, Control_c, 0, 64, 127
1, 1009525, Control_c, 0, 67, 97
1, 1009540, Control_c, 0, 67, 103
1, 1009555, Control_c, 0, 67, 107
1, 1009571, Control_c, 0, 67, 110
1, 1009586, Control_c, 0, 67, 113
1, 1009600, Control_c, 0, 67, 115
1, 1009615, Control_c, 0, 67, 117
1, 1009629, Note_off_c, 0, 72, 62
1, 1009630, Control_c, 0, 67, 118
1, 1009637, Note_on_c, 0, 70, 74
1, 1009645, Control_c, 0, 67, 119
1, 1009660, Control_c, 0, 67, 119
1, 1009668, Note_off_c, 0, 70, 58
1, 1009732, Note_on_c, 0, 70, 68
1, 1009733, Control_c, 0, 64, 90
1, 1009756, Control_c, 0, 64, 70
1, 1009766, Note_off_c, 0, 36, 42
1, 1009771, Control_c, 0, 64, 0
1, 1009782, Note_on_c, 0, 29, 43
1, 1009784, Note_on_c, 0, 41, 42
1, 1009845, Control_c, 0, 64, 36
1, 1009860, Control_c, 0, 64, 65
1, 1009860, Control_c, 0, 67, 118
1, 1009874, Control_c, 0, 64, 75
1, 1009874, Control_c, 0, 67, 118
1, 1009889, Control_c, 0, 64, 95
1, 1009889, Control_c, 0, 67, 117
1, 1009904, Control_c, 0, 64, 127
1, 1009918, Control_c, 0, 67, 116
1, 1009933, Control_c, 0, 67, 115
1, 1009945, Note_off_c, 0, 29, 41
1, 1009948, Control_c, 0, 67, 115
1, 1009978, Control_c, 0, 67, 114
1, 1009993, Control_c, 0, 67, 114
1, 1009999, Note_off_c, 0, 41, 41
1, 1010023, Control_c, 0, 67, 113
1, 1010067, Control_c, 0, 67, 113
1, 1010156, Control_c, 0, 67, 112
1, 1010157, Note_on_c, 0, 69, 60
1, 1010160, Note_on_c, 0, 49, 72
1, 1010189, Note_on_c, 0, 65, 44
1, 1010200, Control_c, 0, 64, 108
1, 1010201, Note_on_c, 0, 37, 46
1, 1010215, Control_c, 0, 64, 80
1, 1010230, Control_c, 0, 64, 61
1, 1010230, Control_c, 0, 67, 112
1, 1010244, Control_c, 0, 64, 0
1, 1010259, Control_c, 0, 67, 111
1, 1010272, Note_off_c, 0, 70, 46
1, 1010289, Control_c, 0, 67, 111
1, 1010304, Control_c, 0, 64, 43
1, 1010318, Control_c, 0, 64, 66
1, 1010333, Control_c, 0, 64, 77
1, 1010333, Control_c, 0, 67, 110
1, 1010348, Control_c, 0, 64, 103
1, 1010348, Control_c, 0, 67, 110
1, 1010364, Control_c, 0, 64, 127
1, 1010377, Note_off_c, 0, 65, 55
1, 1010379, Control_c, 0, 67, 109
1, 1010394, Note_off_c, 0, 63, 38
1, 1010423, Control_c, 0, 67, 109
1, 1010438, Note_off_c, 0, 49, 62
1, 1010515, Note_on_c, 0, 48, 77
1, 1010527, Note_on_c, 0, 65, 55
1, 1010534, Note_off_c, 0, 69, 55
1, 1010535, Control_c, 0, 64, 100
1, 1010544, Note_on_c, 0, 36, 54
1, 1010546, Note_on_c, 0, 63, 45
1, 1010549, Control_c, 0, 64, 76
1, 1010564, Control_c, 0, 64, 51
1, 1010578, Note_off_c, 0, 37, 44
1, 1010579, Control_c, 0, 64, 37
1, 1010593, Control_c, 0, 64, 61
1, 1010608, Control_c, 0, 64, 69
1, 1010622, Control_c, 0, 64, 77
1, 1010637, Control_c, 0, 64, 92
1, 1010652, Control_c, 0, 64, 120
1, 1010666, Control_c, 0, 64, 127
1, 1010681, Note_off_c, 0, 48, 49
1, 1010766, Note_off_c, 0, 63, 57
1, 1010789, Note_off_c, 0, 65, 56
1, 1010845, Control_c, 0, 67, 108
1, 1010914, Note_on_c, 0, 65, 54
1, 1010939, Note_on_c, 0, 61, 41
1, 1010947, Note_on_c, 0, 46, 73
1, 1010956, Note_off_c, 0, 36, 59
1, 1010970, Note_on_c, 0, 34, 47
1, 1011066, Control_c, 0, 64, 110
1, 1011081, Control_c, 0, 64, 84
1, 1011096, Control_c, 0, 64, 66
1, 1011111, Control_c, 0, 64, 0
1, 1011156, Control_c, 0, 67, 107
1, 1011171, Control_c, 0, 67, 107
1, 1011186, Control_c, 0, 67, 106
1, 1011201, Control_c, 0, 67, 105
1, 1011216, Control_c, 0, 64, 57
1, 1011216, Control_c, 0, 67, 101
1, 1011238, Control_c, 0, 64, 68
1, 1011238, Control_c, 0, 67, 97
1, 1011253, Control_c, 0, 64, 77
1, 1011253, Control_c, 0, 67, 93
1, 1011268, Control_c, 0, 64, 87
1, 1011268, Control_c, 0, 67, 90
1, 1011283, Control_c, 0, 64, 99
1, 1011283, Control_c, 0, 67, 88
1, 1011297, Control_c, 0, 64, 110
1, 1011297, Control_c, 0, 67, 86
1, 1011312, Control_c, 0, 64, 127
1, 1011312, Control_c, 0, 67, 84
1, 1011327, Control_c, 0, 67, 81
1, 1011341, Control_c, 0, 67, 78
1, 1011356, Control_c, 0, 67, 76
1, 1011370, Control_c, 0, 67, 74
1, 1011385, Control_c, 0, 67, 72
1, 1011400, Control_c, 0, 67, 70
1, 1011404, Note_on_c, 0, 73, 70
1, 1011415, Control_c, 0, 67, 67
1, 1011430, Control_c, 0, 67, 65
1, 1011444, Control_c, 0, 67, 62
1, 1011459, Control_c, 0, 67, 59
1, 1011474, Control_c, 0, 67, 56
1, 1011489, Control_c, 0, 67, 53
1, 1011504, Control_c, 0, 67, 51
1, 1011519, Control_c, 0, 67, 50
1, 1011524, Note_off_c, 0, 46, 54
1, 1011526, Note_off_c, 0, 61, 41
1, 1011532, Note_off_c, 0, 65, 61
1, 1011534, Control_c, 0, 67, 49
1, 1011549, Control_c, 0, 67, 48
1, 1011578, Control_c, 0, 67, 47
1, 1011622, Control_c, 0, 67, 48
1, 1011637, Control_c, 0, 67, 50
1, 1011652, Control_c, 0, 67, 52
1, 1011667, Control_c, 0, 67, 53
1, 1011682, Control_c, 0, 67, 54
1, 1011696, Control_c, 0, 67, 56
1, 1011711, Control_c, 0, 67, 57
1, 1011726, Control_c, 0, 67, 58
1, 1011737, Note_on_c, 0, 72, 58
1, 1011741, Control_c, 0, 67, 60
1, 1011756, Control_c, 0, 67, 62
1, 1011757, Note_on_c, 0, 44, 51
1, 1011759, Note_on_c, 0, 32, 39
1, 1011763, Note_off_c, 0, 34, 37
1, 1011764, Note_on_c, 0, 65, 44
1, 1011770, Control_c, 0, 67, 65
1, 1011785, Control_c, 0, 64, 90
1, 1011785, Control_c, 0, 67, 69
1, 1011800, Control_c, 0, 64, 71
1, 1011800, Control_c, 0, 67, 72
1, 1011814, Control_c, 0, 64, 40
1, 1011814, Control_c, 0, 67, 74
1, 1011824, Note_off_c, 0, 73, 59
1, 1011829, Control_c, 0, 64, 0
1, 1011829, Control_c, 0, 67, 76
1, 1011844, Control_c, 0, 67, 79
1, 1011859, Control_c, 0, 67, 81
1, 1011874, Control_c, 0, 67, 84
1, 1011889, Control_c, 0, 67, 87
1, 1011904, Control_c, 0, 64, 54
1, 1011904, Control_c, 0, 67, 90
1, 1011918, Control_c, 0, 64, 66
1, 1011918, Control_c, 0, 67, 93
1, 1011933, Control_c, 0, 64, 74
1, 1011933, Control_c, 0, 67, 98
1, 1011948, Control_c, 0, 64, 83
1, 1011948, Control_c, 0, 67, 101
1, 1011964, Control_c, 0, 64, 95
1, 1011964, Control_c, 0, 67, 105
1, 1011986, Control_c, 0, 64, 104
1, 1011986, Control_c, 0, 67, 109
1, 1012001, Control_c, 0, 64, 113
1, 1012001, Control_c, 0, 67, 113
1, 1012016, Control_c, 0, 64, 127
1, 1012016, Control_c, 0, 67, 116
1, 1012031, Control_c, 0, 67, 119
1, 1012046, Control_c, 0, 67, 123
1, 1012060, Control_c, 0, 67, 126
1, 1012075, Control_c, 0, 67, 127
1, 1012085, Note_off_c, 0, 44, 33
1, 1012265, Note_on_c, 0, 71, 46
1, 1012280, Note_on_c, 0, 68, 50
1, 1012296, Note_on_c, 0, 31, 36
1, 1012297, Note_off_c, 0, 32, 40
1, 1012306, Note_on_c, 0, 43, 39
1, 1012312, Control_c, 0, 64, 109
1, 1012327, Control_c, 0, 64, 86
1, 1012339, Note_off_c, 0, 72, 38
1, 1012342, Control_c, 0, 64, 68
1, 1012357, Control_c, 0, 64, 0
1, 1012431, Note_off_c, 0, 65, 47
1, 1012461, Control_c, 0, 64, 60
1, 1012476, Control_c, 0, 64, 71
1, 1012491, Control_c, 0, 64, 82
1, 1012506, Control_c, 0, 64, 102
1, 1012520, Control_c, 0, 64, 127
1, 1012533, Note_off_c, 0, 31, 38
1, 1012583, Note_off_c, 0, 43, 49
1, 1012796, Note_on_c, 0, 51, 53
1, 1012796, Note_on_c, 0, 67, 48
1, 1012828, Note_on_c, 0, 39, 39
1, 1012863, Note_off_c, 0, 68, 53
1, 1012977, Note_off_c, 0, 67, 55
1, 1012995, Note_off_c, 0, 51, 61
1, 1013135, Control_c, 0, 64, 102
1, 1013146, Note_on_c, 0, 67, 51
1, 1013150, Control_c, 0, 64, 78
1, 1013161, Note_off_c, 0, 39, 46
1, 1013163, Note_on_c, 0, 50, 41
1, 1013165, Control_c, 0, 64, 62
1, 1013166, Note_on_c, 0, 65, 37
1, 1013173, Note_on_c, 0, 38, 36
1, 1013180, Control_c, 0, 64, 40
1, 1013195, Control_c, 0, 64, 55
1, 1013209, Control_c, 0, 64, 66
1, 1013212, Note_off_c, 0, 71, 61
1, 1013224, Control_c, 0, 64, 72
1, 1013239, Control_c, 0, 64, 80
1, 1013254, Control_c, 0, 64, 91
1, 1013269, Control_c, 0, 64, 108
1, 1013284, Control_c, 0, 64, 127
1, 1013320, Note_off_c, 0, 65, 53
1, 1013382, Note_off_c, 0, 50, 37
1, 1013403, Note_off_c, 0, 67, 57
1, 1013656, Note_on_c, 0, 67, 39
1, 1013669, Note_on_c, 0, 63, 35
1, 1013680, Note_on_c, 0, 36, 33
1, 1013684, Note_on_c, 0, 48, 29
1, 1013737, Control_c, 0, 64, 123
1, 1013752, Control_c, 0, 64, 94
1, 1013766, Control_c, 0, 64, 78
1, 1013773, Note_off_c, 0, 38, 41
1, 1013781, Control_c, 0, 64, 62
1, 1013796, Control_c, 0, 64, 0
1, 1013958, Control_c, 0, 64, 56
1, 1013973, Control_c, 0, 64, 69
1, 1013988, Control_c, 0, 64, 77
1, 1014002, Control_c, 0, 64, 87
1, 1014017, Control_c, 0, 64, 98
1, 1014032, Control_c, 0, 64, 110
1, 1014047, Control_c, 0, 64, 127
1, 1014140, Note_off_c, 0, 48, 40
1, 1014178, Note_on_c, 0, 75, 52
1, 1014396, Note_off_c, 0, 75, 60
1, 1014405, Note_off_c, 0, 63, 57
1, 1014423, Note_off_c, 0, 67, 32
1, 1014506, Note_off_c, 0, 36, 39
1, 1014531, Note_on_c, 0, 74, 63
1, 1014539, Note_on_c, 0, 34, 35
1, 1014544, Note_on_c, 0, 46, 33
1, 1014545, Control_c, 0, 64, 116
1, 1014551, Note_on_c, 0, 67, 28
1, 1014560, Control_c, 0, 64, 86
1, 1014562, Note_on_c, 0, 62, 32
1, 1014574, Control_c, 0, 64, 68
1, 1014589, Control_c, 0, 64, 60
1, 1014604, Control_c, 0, 64, 63
1, 1014619, Control_c, 0, 64, 66
1, 1014633, Control_c, 0, 64, 72
1, 1014648, Control_c, 0, 64, 79
1, 1014663, Control_c, 0, 64, 92
1, 1014678, Control_c, 0, 64, 127
1, 1014738, Note_off_c, 0, 62, 39
1, 1014758, Note_off_c, 0, 46, 40
1, 1014905, Note_on_c, 0, 72, 59
1, 1014934, Note_off_c, 0, 34, 42
1, 1014944, Note_on_c, 0, 33, 37
1, 1014948, Note_off_c, 0, 74, 62
1, 1014952, Note_on_c, 0, 45, 29
1, 1014959, Control_c, 0, 64, 98
1, 1014970, Note_on_c, 0, 60, 25
1, 1014981, Control_c, 0, 64, 77
1, 1014996, Control_c, 0, 64, 60
1, 1015011, Control_c, 0, 64, 0
1, 1015070, Control_c, 0, 64, 58
1, 1015078, Note_off_c, 0, 67, 51
1, 1015085, Control_c, 0, 64, 69
1, 1015100, Control_c, 0, 64, 79
1, 1015114, Control_c, 0, 64, 97
1, 1015129, Control_c, 0, 64, 126
1, 1015141, Note_off_c, 0, 60, 51
1, 1015144, Control_c, 0, 64, 127
1, 1015298, Note_on_c, 0, 65, 40
1, 1015302, Note_off_c, 0, 72, 52
1, 1015308, Note_on_c, 0, 71, 52
1, 1015333, Note_on_c, 0, 59, 28
1, 1015343, Note_off_c, 0, 45, 42
1, 1015373, Note_off_c, 0, 59, 51
1, 1015486, Note_off_c, 0, 71, 58
1, 1015500, Note_on_c, 0, 72, 60
1, 1015507, Note_off_c, 0, 65, 41
1, 1015521, Note_on_c, 0, 60, 33
1, 1015569, Note_off_c, 0, 60, 49
1, 1015824, Note_on_c, 0, 74, 51
1, 1015825, Note_off_c, 0, 72, 39
1, 1015831, Note_off_c, 0, 33, 37
1, 1015833, Note_on_c, 0, 66, 38
1, 1015837, Note_on_c, 0, 32, 39
1, 1015840, Note_on_c, 0, 44, 40
1, 1015856, Note_on_c, 0, 62, 36
1, 1015863, Control_c, 0, 64, 90
1, 1015878, Control_c, 0, 64, 67
1, 1015893, Control_c, 0, 64, 0
1, 1015937, Control_c, 0, 64, 37
1, 1015952, Control_c, 0, 64, 61
1, 1015968, Control_c, 0, 64, 68
1, 1015983, Control_c, 0, 64, 76
1, 1015998, Control_c, 0, 64, 86
1, 1016013, Control_c, 0, 64, 99
1, 1016028, Control_c, 0, 64, 112
1, 1016042, Control_c, 0, 64, 127
1, 1016089, Note_off_c, 0, 44, 35
1, 1016092, Note_off_c, 0, 74, 51
1, 1016110, Note_off_c, 0, 62, 39
1, 1016384, Note_on_c, 0, 72, 49
1, 1016404, Note_on_c, 0, 60, 39
1, 1016433, Note_off_c, 0, 66, 42
1, 1016439, Note_off_c, 0, 60, 60
1, 1016577, Note_off_c, 0, 32, 39
1, 1016577, Note_off_c, 0, 72, 52
1, 1016595, Note_on_c, 0, 71, 38
1, 1016613, Note_on_c, 0, 31, 33
1, 1016617, Note_on_c, 0, 59, 31
1, 1016622, Note_on_c, 0, 43, 30
1, 1016623, Note_on_c, 0, 67, 39
1, 1016627, Control_c, 0, 64, 91
1, 1016642, Control_c, 0, 64, 73
1, 1016657, Control_c, 0, 64, 49
1, 1016672, Control_c, 0, 64, 0
1, 1016762, Control_c, 0, 64, 59
1, 1016776, Control_c, 0, 64, 71
1, 1016791, Note_off_c, 0, 31, 56
1, 1016791, Control_c, 0, 64, 84
1, 1016806, Control_c, 0, 64, 110
1, 1016821, Control_c, 0, 64, 127
1, 1016834, Note_off_c, 0, 43, 52
1, 1016932, Note_off_c, 0, 59, 42
1, 1017025, Note_off_c, 0, 67, 47
1, 1017147, Note_on_c, 0, 63, 45
1, 1017167, Note_on_c, 0, 55, 41
1, 1017248, Note_off_c, 0, 63, 54
1, 1017563, Note_on_c, 0, 62, 39
1, 1017588, Note_on_c, 0, 59, 44
1, 1017618, Note_off_c, 0, 62, 57
1, 1017628, Note_on_c, 0, 53, 27
1, 1017650, Note_off_c, 0, 59, 55
1, 1017651, Note_off_c, 0, 55, 40
1, 1017665, Note_off_c, 0, 53, 59
1, 1017728, Poly_aftertouch_c, 0, 67, 127
1, 1017755, Poly_aftertouch_c, 0, 67, 0
1, 1017815, Note_off_c, 0, 71, 42
1, 1017853, Note_on_c, 0, 67, 57
1, 1017865, Control_c, 0, 64, 88
1, 1017880, Control_c, 0, 64, 67
1, 1017895, Control_c, 0, 64, 51
1, 1017908, Note_off_c, 0, 67, 56
1, 1017910, Control_c, 0, 64, 60
1, 1017913, Note_on_c, 0, 43, 58
1, 1017925, Control_c, 0, 64, 66
1, 1017937, Note_on_c, 0, 74, 61
1, 1017940, Control_c, 0, 64, 74
1, 1017955, Control_c, 0, 64, 88
1, 1017955, Note_off_c, 0, 43, 60
1, 1017970, Control_c, 0, 64, 127
1, 1018016, Note_off_c, 0, 74, 62
1, 1018037, Note_on_c, 0, 67, 29
1, 1018074, Note_off_c, 0, 67, 50
1, 1018213, Note_on_c, 0, 67, 50
1, 1018277, Note_on_c, 0, 63, 52
1, 1018288, Note_on_c, 0, 55, 45
1, 1018295, Note_on_c, 0, 59, 52
1, 1018331, Note_off_c, 0, 59, 60
1, 1018336, Note_off_c, 0, 67, 50
1, 1018347, Note_off_c, 0, 63, 52
1, 1018585, Note_on_c, 0, 62, 53
1, 1018609, Note_on_c, 0, 53, 49
1, 1018614, Note_on_c, 0, 59, 55
1, 1018615, Note_off_c, 0, 62, 63
1, 1018637, Note_off_c, 0, 53, 63
1, 1018637, Note_off_c, 0, 55, 36
1, 1018664, Note_off_c, 0, 59, 57
1, 1018685, Note_on_c, 0, 67, 55
1, 1018715, Note_off_c, 0, 67, 64
1, 1018845, Control_c, 0, 64, 113
1, 1018859, Note_on_c, 0, 67, 55
1, 1018860, Control_c, 0, 64, 82
1, 1018875, Control_c, 0, 64, 64
1, 1018889, Control_c, 0, 64, 0
1, 1018891, Note_off_c, 0, 67, 63
1, 1018904, Control_c, 0, 64, 46
1, 1018910, Note_on_c, 0, 53, 56
1, 1018919, Control_c, 0, 64, 67
1, 1018920, Note_on_c, 0, 74, 60
1, 1018921, Note_on_c, 0, 43, 39
1, 1018934, Control_c, 0, 64, 77
1, 1018949, Control_c, 0, 64, 96
1, 1018954, Note_off_c, 0, 43, 53
1, 1018963, Control_c, 0, 64, 127
1, 1018964, Note_off_c, 0, 53, 64
1, 1018986, Note_off_c, 0, 74, 55
1, 1019005, Note_on_c, 0, 67, 43
1, 1019035, Note_off_c, 0, 67, 55
1, 1019194, Note_on_c, 0, 67, 46
1, 1019243, Note_on_c, 0, 63, 51
1, 1019250, Note_on_c, 0, 55, 50
1, 1019262, Note_on_c, 0, 59, 52
1, 1019296, Note_off_c, 0, 59, 60
1, 1019299, Note_off_c, 0, 67, 60
1, 1019335, Note_off_c, 0, 63, 46
1, 1019556, Note_on_c, 0, 62, 54
1, 1019564, Note_on_c, 0, 53, 54
1, 1019565, Note_on_c, 0, 59, 57
1, 1019587, Note_off_c, 0, 62, 63
1, 1019588, Note_off_c, 0, 55, 33
1, 1019598, Note_off_c, 0, 53, 66
1, 1019615, Note_off_c, 0, 59, 53
1, 1019642, Note_on_c, 0, 67, 50
1, 1019667, Note_off_c, 0, 67, 58
1, 1019771, Control_c, 0, 64, 98
1, 1019780, Note_on_c, 0, 67, 57
1, 1019785, Control_c, 0, 64, 72
1, 1019800, Control_c, 0, 64, 0
1, 1019825, Note_off_c, 0, 67, 61
1, 1019839, Note_on_c, 0, 75, 70
1, 1019845, Control_c, 0, 64, 11
1, 1019850, Note_on_c, 0, 43, 56
1, 1019852, Note_on_c, 0, 51, 55
1, 1019860, Control_c, 0, 64, 66
1, 1019874, Control_c, 0, 64, 78
1, 1019883, Note_off_c, 0, 43, 64
1, 1019889, Control_c, 0, 64, 100
1, 1019901, Note_off_c, 0, 51, 61
1, 1019904, Control_c, 0, 64, 127
1, 1019907, Note_on_c, 0, 67, 66
1, 1019925, Note_off_c, 0, 75, 61
1, 1019934, Note_off_c, 0, 67, 65
1, 1020084, Note_on_c, 0, 67, 61
1, 1020152, Note_off_c, 0, 67, 58
1, 1020157, Note_on_c, 0, 65, 61
1, 1020170, Note_on_c, 0, 56, 53
1, 1020176, Note_on_c, 0, 60, 53
1, 1020216, Note_off_c, 0, 60, 56
1, 1020220, Note_off_c, 0, 56, 56
1, 1020434, Note_off_c, 0, 65, 59
1, 1020455, Note_on_c, 0, 63, 60
1, 1020459, Note_on_c, 0, 55, 50
1, 1020474, Note_on_c, 0, 60, 55
1, 1020485, Note_off_c, 0, 63, 65
1, 1020490, Note_off_c, 0, 55, 64
1, 1020522, Note_off_c, 0, 60, 58
1, 1020545, Note_on_c, 0, 67, 60
1, 1020573, Note_off_c, 0, 67, 64
1, 1020652, Control_c, 0, 64, 91
1, 1020667, Control_c, 0, 64, 68
1, 1020682, Control_c, 0, 64, 0
1, 1020697, Note_on_c, 0, 67, 57
1, 1020730, Note_off_c, 0, 67, 62
1, 1020742, Note_on_c, 0, 48, 51
1, 1020742, Control_c, 0, 64, 56
1, 1020746, Note_on_c, 0, 43, 43
1, 1020749, Note_on_c, 0, 75, 64
1, 1020757, Control_c, 0, 64, 71
1, 1020772, Control_c, 0, 64, 91
1, 1020778, Note_off_c, 0, 48, 64
1, 1020781, Note_off_c, 0, 43, 63
1, 1020787, Control_c, 0, 64, 127
1, 1020810, Note_off_c, 0, 75, 63
1, 1020837, Note_on_c, 0, 67, 51
1, 1020859, Note_off_c, 0, 67, 61
1, 1020983, Note_on_c, 0, 67, 56
1, 1021055, Note_on_c, 0, 65, 55
1, 1021063, Note_on_c, 0, 56, 43
1, 1021065, Note_on_c, 0, 60, 65
1, 1021083, Note_off_c, 0, 67, 61
1, 1021089, Note_off_c, 0, 60, 68
1, 1021118, Note_off_c, 0, 56, 54
1, 1021295, Note_off_c, 0, 65, 53
1, 1021331, Note_on_c, 0, 55, 56
1, 1021332, Note_on_c, 0, 63, 60
1, 1021340, Note_on_c, 0, 72, 66
1, 1021360, Note_off_c, 0, 63, 65
1, 1021363, Note_off_c, 0, 55, 64
1, 1021402, Note_off_c, 0, 72, 60
1, 1021416, Note_on_c, 0, 79, 65
1, 1021446, Note_off_c, 0, 79, 60
1, 1021520, Control_c, 0, 64, 110
1, 1021535, Control_c, 0, 64, 79
1, 1021551, Control_c, 0, 64, 54
1, 1021565, Note_on_c, 0, 79, 69
1, 1021566, Control_c, 0, 64, 0
1, 1021601, Note_off_c, 0, 79, 58
1, 1021610, Control_c, 0, 64, 40
1, 1021617, Note_on_c, 0, 43, 46
1, 1021618, Note_on_c, 0, 80, 74
1, 1021624, Control_c, 0, 64, 66
1, 1021639, Control_c, 0, 64, 79
1, 1021650, Note_off_c, 0, 43, 61
1, 1021654, Control_c, 0, 64, 105
1, 1021669, Control_c, 0, 64, 127
1, 1021692, Note_on_c, 0, 79, 81
1, 1021706, Note_off_c, 0, 80, 60
1, 1021729, Note_off_c, 0, 79, 59
1, 1021875, Note_on_c, 0, 79, 67
1, 1021943, Note_on_c, 0, 63, 44
1, 1021949, Note_on_c, 0, 72, 63
1, 1021952, Note_on_c, 0, 67, 49
1, 1021970, Note_off_c, 0, 79, 58
1, 1022023, Note_off_c, 0, 63, 57
1, 1022209, Note_off_c, 0, 67, 58
1, 1022225, Note_off_c, 0, 72, 60
1, 1022240, Note_on_c, 0, 68, 60
1, 1022242, Note_on_c, 0, 60, 53
1, 1022242, Note_on_c, 0, 63, 54
1, 1022265, Note_off_c, 0, 60, 62
1, 1022266, Note_off_c, 0, 63, 64
1, 1022286, Note_off_c, 0, 68, 56
1, 1022316, Note_on_c, 0, 75, 64
1, 1022342, Note_off_c, 0, 75, 66
1, 1022475, Note_on_c, 0, 75, 67
1, 1022486, Control_c, 0, 64, 99
1, 1022501, Control_c, 0, 64, 70
1, 1022509, Note_off_c, 0, 75, 60
1, 1022516, Control_c, 0, 64, 0
1, 1022520, Note_on_c, 0, 43, 53
1, 1022530, Control_c, 0, 64, 45
1, 1022533, Note_on_c, 0, 77, 69
1, 1022545, Control_c, 0, 64, 65
1, 1022560, Control_c, 0, 64, 75
1, 1022563, Note_off_c, 0, 43, 61
1, 1022575, Control_c, 0, 64, 89
1, 1022590, Control_c, 0, 64, 127
1, 1022598, Note_off_c, 0, 77, 61
1, 1022603, Note_on_c, 0, 75, 68
1, 1022629, Note_off_c, 0, 75, 67
1, 1022775, Note_on_c, 0, 75, 62
1, 1022811, Control_c, 0, 64, 105
1, 1022823, Note_on_c, 0, 68, 65
1, 1022826, Control_c, 0, 64, 72
1, 1022828, Note_on_c, 0, 63, 49
1, 1022835, Note_on_c, 0, 60, 43
1, 1022841, Control_c, 0, 64, 0
1, 1022855, Control_c, 0, 64, 14
1, 1022870, Control_c, 0, 64, 65
1, 1022883, Note_off_c, 0, 75, 51
1, 1022885, Control_c, 0, 64, 77
1, 1022900, Control_c, 0, 64, 107
1, 1022915, Control_c, 0, 64, 127
1, 1022957, Note_off_c, 0, 60, 51
1, 1023108, Control_c, 0, 64, 110
1, 1023122, Control_c, 0, 64, 81
1, 1023124, Note_on_c, 0, 60, 43
1, 1023127, Note_off_c, 0, 68, 53
1, 1023129, Note_off_c, 0, 63, 38
1, 1023135, Note_on_c, 0, 56, 50
1, 1023138, Control_c, 0, 64, 71
1, 1023143, Note_on_c, 0, 65, 48
1, 1023153, Control_c, 0, 64, 76
1, 1023168, Control_c, 0, 64, 88
1, 1023173, Note_off_c, 0, 56, 63
1, 1023176, Note_off_c, 0, 60, 63
1, 1023183, Control_c, 0, 64, 127
1, 1023198, Note_off_c, 0, 65, 56
1, 1023210, Note_on_c, 0, 72, 58
1, 1023246, Note_off_c, 0, 72, 66
1, 1023381, Note_on_c, 0, 72, 58
1, 1023425, Note_off_c, 0, 72, 60
1, 1023425, Control_c, 0, 64, 101
1, 1023434, Note_on_c, 0, 43, 53
1, 1023440, Control_c, 0, 64, 75
1, 1023455, Control_c, 0, 64, 61
1, 1023469, Control_c, 0, 64, 65
1, 1023481, Note_on_c, 0, 74, 30
1, 1023484, Control_c, 0, 64, 73
1, 1023499, Note_off_c, 0, 43, 60
1, 1023499, Control_c, 0, 64, 89
1, 1023514, Control_c, 0, 64, 127
1, 1023517, Note_off_c, 0, 74, 55
1, 1023523, Note_on_c, 0, 72, 60
1, 1023549, Note_off_c, 0, 72, 67
1, 1023710, Note_on_c, 0, 72, 57
1, 1023766, Control_c, 0, 64, 86
1, 1023770, Note_on_c, 0, 65, 57
1, 1023771, Note_on_c, 0, 56, 50
1, 1023772, Note_on_c, 0, 60, 46
1, 1023781, Control_c, 0, 64, 66
1, 1023782, Note_off_c, 0, 72, 58
1, 1023795, Control_c, 0, 64, 59
1, 1023810, Control_c, 0, 64, 67
1, 1023825, Control_c, 0, 64, 79
1, 1023840, Control_c, 0, 64, 101
1, 1023855, Control_c, 0, 64, 127
1, 1023888, Note_off_c, 0, 65, 0
1, 1023888, Note_on_c, 0, 65, 5
1, 1023923, Note_off_c, 0, 56, 54
1, 1024056, Control_c, 0, 64, 94
1, 1024070, Note_off_c, 0, 65, 54
1, 1024071, Control_c, 0, 64, 72
1, 1024072, Note_off_c, 0, 60, 58
1, 1024086, Control_c, 0, 64, 65
1, 1024095, Note_on_c, 0, 56, 42
1, 1024100, Note_on_c, 0, 53, 44
1, 1024100, Control_c, 0, 64, 71
1, 1024102, Note_on_c, 0, 62, 43
1, 1024115, Control_c, 0, 64, 81
1, 1024129, Note_off_c, 0, 56, 65
1, 1024130, Control_c, 0, 64, 103
1, 1024132, Note_off_c, 0, 53, 53
1, 1024145, Control_c, 0, 64, 127
1, 1024154, Note_off_c, 0, 62, 57
1, 1024170, Note_on_c, 0, 68, 52
1, 1024230, Note_off_c, 0, 68, 56
1, 1024345, Note_on_c, 0, 68, 62
1, 1024389, Note_off_c, 0, 68, 58
1, 1024397, Control_c, 0, 64, 91
1, 1024411, Control_c, 0, 64, 70
1, 1024414, Note_on_c, 0, 70, 57
1, 1024415, Note_on_c, 0, 43, 40
1, 1024426, Control_c, 0, 64, 63
1, 1024441, Control_c, 0, 64, 68
1, 1024456, Control_c, 0, 64, 77
1, 1024468, Note_off_c, 0, 43, 59
1, 1024471, Control_c, 0, 64, 94
1, 1024486, Control_c, 0, 64, 127
1, 1024488, Note_off_c, 0, 70, 62
1, 1024495, Note_on_c, 0, 68, 55
1, 1024516, Note_off_c, 0, 68, 62
1, 1024672, Note_on_c, 0, 68, 45
1, 1024730, Control_c, 0, 64, 117
1, 1024745, Control_c, 0, 64, 82
1, 1024760, Control_c, 0, 64, 62
1, 1024763, Note_on_c, 0, 56, 36
1, 1024764, Note_on_c, 0, 62, 36
1, 1024769, Note_on_c, 0, 53, 35
1, 1024775, Control_c, 0, 64, 0
1, 1024790, Control_c, 0, 64, 34
1, 1024796, Note_off_c, 0, 68, 46
1, 1024805, Control_c, 0, 64, 67
1, 1024820, Control_c, 0, 64, 79
1, 1024835, Control_c, 0, 64, 107
1, 1024850, Control_c, 0, 64, 127
1, 1024916, Note_off_c, 0, 53, 36
1, 1025005, Note_off_c, 0, 56, 41
1, 1025057, Control_c, 0, 64, 105
1, 1025072, Control_c, 0, 64, 77
1, 1025077, Note_on_c, 0, 59, 45
1, 1025079, Note_off_c, 0, 62, 42
1, 1025085, Note_on_c, 0, 53, 34
1, 1025087, Control_c, 0, 64, 63
1, 1025094, Note_on_c, 0, 50, 47
1, 1025102, Control_c, 0, 64, 66
1, 1025116, Control_c, 0, 64, 74
1, 1025131, Control_c, 0, 64, 85
1, 1025146, Control_c, 0, 64, 107
1, 1025157, Note_off_c, 0, 59, 50
1, 1025161, Control_c, 0, 64, 127
1, 1025163, Note_off_c, 0, 53, 63
1, 1025170, Note_off_c, 0, 50, 62
1, 1025172, Note_on_c, 0, 67, 49
1, 1025205, Note_off_c, 0, 67, 63
1, 1025341, Note_on_c, 0, 67, 48
1, 1025368, Control_c, 0, 64, 112
1, 1025377, Note_off_c, 0, 67, 63
1, 1025383, Control_c, 0, 64, 80
1, 1025398, Control_c, 0, 64, 63
1, 1025401, Note_on_c, 0, 74, 59
1, 1025404, Note_on_c, 0, 31, 52
1, 1025413, Control_c, 0, 64, 62
1, 1025428, Control_c, 0, 64, 70
1, 1025441, Note_off_c, 0, 31, 62
1, 1025442, Control_c, 0, 64, 82
1, 1025457, Control_c, 0, 64, 117
1, 1025469, Note_on_c, 0, 67, 58
1, 1025479, Control_c, 0, 64, 127
1, 1025484, Note_off_c, 0, 74, 58
1, 1025502, Note_off_c, 0, 67, 64
1, 1025654, Note_on_c, 0, 67, 58
1, 1025718, Note_on_c, 0, 63, 66
1, 1025732, Control_c, 0, 64, 98
1, 1025746, Control_c, 0, 64, 76
1, 1025757, Note_on_c, 0, 59, 37
1, 1025761, Control_c, 0, 64, 73
1, 1025770, Note_off_c, 0, 67, 56
1, 1025776, Control_c, 0, 64, 80
1, 1025791, Control_c, 0, 64, 92
1, 1025805, Control_c, 0, 64, 126
1, 1025819, Note_on_c, 0, 55, 59
1, 1025820, Control_c, 0, 64, 127
1, 1025835, Note_off_c, 0, 63, 51
1, 1025852, Note_off_c, 0, 55, 62
1, 1025858, Note_off_c, 0, 59, 36
1, 1025970, Note_on_c, 0, 55, 54
1, 1025997, Control_c, 0, 64, 88
1, 1026012, Control_c, 0, 64, 68
1, 1026026, Note_on_c, 0, 53, 54
1, 1026027, Control_c, 0, 64, 64
1, 1026040, Note_on_c, 0, 59, 55
1, 1026042, Control_c, 0, 64, 70
1, 1026057, Control_c, 0, 64, 80
1, 1026059, Note_off_c, 0, 55, 58
1, 1026072, Control_c, 0, 64, 98
1, 1026087, Control_c, 0, 64, 127
1, 1026096, Note_on_c, 0, 62, 60
1, 1026103, Note_off_c, 0, 59, 54
1, 1026107, Note_off_c, 0, 53, 64
1, 1026111, Note_on_c, 0, 67, 56
1, 1026125, Note_off_c, 0, 62, 64
1, 1026144, Note_off_c, 0, 67, 63
1, 1026295, Note_on_c, 0, 67, 60
1, 1026301, Control_c, 0, 64, 91
1, 1026316, Control_c, 0, 64, 67
1, 1026327, Note_off_c, 0, 67, 62
1, 1026331, Control_c, 0, 64, 0
1, 1026338, Note_on_c, 0, 31, 64
1, 1026351, Note_on_c, 0, 74, 71
1, 1026362, Control_c, 0, 64, 58
1, 1026374, Note_off_c, 0, 31, 61
1, 1026376, Control_c, 0, 64, 72
1, 1026391, Control_c, 0, 64, 90
1, 1026406, Control_c, 0, 64, 127
1, 1026415, Note_on_c, 0, 67, 48
1, 1026418, Note_off_c, 0, 74, 59
1, 1026442, Note_off_c, 0, 67, 59
1, 1026593, Note_on_c, 0, 67, 57
1, 1026643, Control_c, 0, 64, 119
1, 1026649, Note_on_c, 0, 63, 70
1, 1026658, Control_c, 0, 64, 83
1, 1026672, Note_on_c, 0, 59, 56
1, 1026673, Control_c, 0, 64, 66
1, 1026687, Control_c, 0, 64, 64
1, 1026702, Control_c, 0, 64, 73
1, 1026717, Control_c, 0, 64, 85
1, 1026732, Control_c, 0, 64, 113
1, 1026747, Control_c, 0, 64, 127
1, 1026754, Note_off_c, 0, 67, 56
1, 1026771, Note_on_c, 0, 55, 50
1, 1026772, Note_off_c, 0, 63, 46
1, 1026790, Note_off_c, 0, 59, 32
1, 1026805, Note_off_c, 0, 55, 63
1, 1026901, Note_on_c, 0, 55, 56
1, 1026924, Control_c, 0, 64, 105
1, 1026939, Control_c, 0, 64, 82
1, 1026954, Control_c, 0, 64, 72
1, 1026965, Note_on_c, 0, 59, 53
1, 1026966, Note_on_c, 0, 53, 59
1, 1026976, Control_c, 0, 64, 73
1, 1026991, Control_c, 0, 64, 85
1, 1026993, Note_off_c, 0, 55, 59
1, 1027006, Control_c, 0, 64, 105
1, 1027020, Control_c, 0, 64, 127
1, 1027030, Note_on_c, 0, 62, 54
1, 1027034, Note_off_c, 0, 59, 49
1, 1027038, Note_off_c, 0, 53, 65
1, 1027047, Note_on_c, 0, 67, 61
1, 1027056, Note_off_c, 0, 62, 63
1, 1027078, Note_off_c, 0, 67, 63
1, 1027213, Note_on_c, 0, 67, 61
1, 1027243, Note_off_c, 0, 67, 64
1, 1027243, Control_c, 0, 64, 82
1, 1027253, Note_on_c, 0, 75, 68
1, 1027258, Control_c, 0, 64, 55
1, 1027270, Note_on_c, 0, 31, 65
1, 1027273, Control_c, 0, 64, 0
1, 1027303, Control_c, 0, 64, 52
1, 1027311, Note_off_c, 0, 31, 64
1, 1027318, Control_c, 0, 64, 70
1, 1027324, Note_off_c, 0, 75, 62
1, 1027325, Note_on_c, 0, 67, 65
1, 1027333, Control_c, 0, 64, 89
1, 1027348, Control_c, 0, 64, 127
1, 1027383, Note_off_c, 0, 67, 59
1, 1027499, Note_on_c, 0, 67, 61
1, 1027555, Control_c, 0, 64, 108
1, 1027559, Note_on_c, 0, 65, 75
1, 1027569, Control_c, 0, 64, 78
1, 1027570, Note_off_c, 0, 67, 58
1, 1027580, Note_on_c, 0, 60, 61
1, 1027584, Control_c, 0, 64, 67
1, 1027599, Control_c, 0, 64, 73
1, 1027614, Control_c, 0, 64, 85
1, 1027629, Control_c, 0, 64, 110
1, 1027643, Control_c, 0, 64, 127
1, 1027657, Note_on_c, 0, 56, 64
1, 1027657, Note_off_c, 0, 65, 51
1, 1027694, Note_off_c, 0, 60, 49
1, 1027705, Note_off_c, 0, 56, 54
1, 1027802, Note_on_c, 0, 56, 61
1, 1027844, Control_c, 0, 64, 101
1, 1027849, Note_on_c, 0, 55, 67
1, 1027859, Control_c, 0, 64, 76
1, 1027865, Note_off_c, 0, 56, 61
1, 1027871, Note_on_c, 0, 60, 55
1, 1027874, Control_c, 0, 64, 65
1, 1027889, Control_c, 0, 64, 68
1, 1027904, Control_c, 0, 64, 76
1, 1027917, Note_off_c, 0, 55, 63
1, 1027918, Control_c, 0, 64, 89
1, 1027930, Note_on_c, 0, 63, 66
1, 1027933, Control_c, 0, 64, 127
1, 1027943, Note_on_c, 0, 67, 64
1, 1027947, Note_off_c, 0, 60, 59
1, 1027952, Note_off_c, 0, 63, 65
1, 1027983, Note_off_c, 0, 67, 58
1, 1028114, Note_on_c, 0, 67, 60
1, 1028141, Control_c, 0, 64, 85
1, 1028146, Note_off_c, 0, 67, 61
1, 1028156, Control_c, 0, 64, 62
1, 1028164, Note_on_c, 0, 75, 66
1, 1028171, Note_on_c, 0, 31, 64
1, 1028171, Control_c, 0, 64, 0
1, 1028200, Control_c, 0, 64, 63
1, 1028209, Note_off_c, 0, 31, 64
1, 1028215, Control_c, 0, 64, 76
1, 1028230, Control_c, 0, 64, 107
1, 1028242, Note_off_c, 0, 75, 59
1, 1028245, Control_c, 0, 64, 127
1, 1028249, Note_on_c, 0, 67, 57
1, 1028276, Note_off_c, 0, 67, 63
1, 1028398, Note_on_c, 0, 67, 55
1, 1028473, Note_on_c, 0, 65, 70
1, 1028474, Control_c, 0, 64, 99
1, 1028482, Note_off_c, 0, 67, 57
1, 1028489, Control_c, 0, 64, 75
1, 1028492, Note_on_c, 0, 60, 55
1, 1028504, Control_c, 0, 64, 67
1, 1028519, Control_c, 0, 64, 75
1, 1028534, Control_c, 0, 64, 86
1, 1028549, Control_c, 0, 64, 107
1, 1028564, Control_c, 0, 64, 127
1, 1028583, Note_on_c, 0, 56, 57
1, 1028584, Note_off_c, 0, 65, 37
1, 1028614, Note_off_c, 0, 60, 47
1, 1028635, Note_off_c, 0, 56, 55
1, 1028753, Note_on_c, 0, 56, 46
1, 1028773, Note_on_c, 0, 55, 54
1, 1028780, Note_off_c, 0, 56, 56
1, 1028811, Note_on_c, 0, 60, 66
1, 1028831, Control_c, 0, 64, 94
1, 1028846, Control_c, 0, 64, 71
1, 1028861, Control_c, 0, 64, 33
1, 1028876, Control_c, 0, 64, 0
1, 1028886, Note_off_c, 0, 55, 62
1, 1028890, Control_c, 0, 64, 61
1, 1028898, Note_on_c, 0, 63, 46
1, 1028902, Note_on_c, 0, 67, 69
1, 1028905, Control_c, 0, 64, 70
1, 1028920, Control_c, 0, 64, 81
1, 1028925, Note_off_c, 0, 63, 60
1, 1028935, Control_c, 0, 64, 104
1, 1028950, Control_c, 0, 64, 127
1, 1028971, Note_off_c, 0, 60, 38
1, 1028972, Note_off_c, 0, 67, 59
1, 1029079, Note_on_c, 0, 67, 74
1, 1029117, Note_off_c, 0, 67, 60
1, 1029201, Note_on_c, 0, 67, 65
1, 1029202, Control_c, 0, 64, 87
1, 1029214, Note_on_c, 0, 41, 58
1, 1029223, Control_c, 0, 64, 65
1, 1029238, Control_c, 0, 64, 33
1, 1029253, Control_c, 0, 64, 60
1, 1029268, Control_c, 0, 64, 70
1, 1029283, Control_c, 0, 64, 86
1, 1029297, Control_c, 0, 64, 127
1, 1029306, Note_off_c, 0, 41, 62
1, 1029330, Note_on_c, 0, 68, 69
1, 1029343, Note_off_c, 0, 67, 54
1, 1029376, Note_off_c, 0, 68, 51
1, 1029480, Note_on_c, 0, 68, 70
1, 1029500, Note_off_c, 0, 68, 70
1, 1029557, Note_on_c, 0, 68, 84
1, 1029564, Note_on_c, 0, 72, 71
1, 1029624, Note_off_c, 0, 72, 56
1, 1029658, Note_on_c, 0, 67, 77
1, 1029719, Note_off_c, 0, 67, 60
1, 1029791, Note_off_c, 0, 68, 58
1, 1029807, Note_on_c, 0, 67, 68
1, 1029833, Note_off_c, 0, 67, 65
1, 1029876, Control_c, 0, 67, 126
1, 1029881, Note_on_c, 0, 60, 64
1, 1029881, Note_on_c, 0, 67, 79
1, 1029884, Note_on_c, 0, 68, 74
1, 1029891, Control_c, 0, 67, 124
1, 1029905, Control_c, 0, 67, 122
1, 1029912, Note_off_c, 0, 60, 66
1, 1029920, Control_c, 0, 67, 118
1, 1029935, Note_off_c, 0, 67, 57
1, 1029935, Control_c, 0, 67, 116
1, 1029950, Control_c, 0, 67, 115
1, 1029972, Control_c, 0, 67, 115
1, 1029975, Note_on_c, 0, 65, 75
1, 1029987, Control_c, 0, 67, 116
1, 1030002, Control_c, 0, 67, 118
1, 1030017, Control_c, 0, 67, 119
1, 1030027, Note_off_c, 0, 65, 61
1, 1030032, Control_c, 0, 67, 120
1, 1030046, Control_c, 0, 67, 121
1, 1030060, Control_c, 0, 67, 121
1, 1030075, Control_c, 0, 67, 122
1, 1030090, Control_c, 0, 67, 122
1, 1030105, Control_c, 0, 67, 123
1, 1030120, Control_c, 0, 64, 83
1, 1030120, Control_c, 0, 67, 123
1, 1030123, Note_on_c, 0, 65, 69
1, 1030135, Control_c, 0, 64, 56
1, 1030143, Note_off_c, 0, 65, 63
1, 1030150, Control_c, 0, 64, 0
1, 1030150, Control_c, 0, 67, 124
1, 1030181, Note_on_c, 0, 46, 70
1, 1030194, Control_c, 0, 67, 123
1, 1030197, Note_on_c, 0, 65, 81
1, 1030209, Control_c, 0, 67, 123
1, 1030212, Note_off_c, 0, 46, 62
1, 1030224, Control_c, 0, 64, 49
1, 1030224, Control_c, 0, 67, 122
1, 1030238, Control_c, 0, 64, 70
1, 1030253, Control_c, 0, 64, 86
1, 1030253, Control_c, 0, 67, 122
1, 1030264, Note_off_c, 0, 65, 59
1, 1030268, Control_c, 0, 64, 127
1, 1030283, Control_c, 0, 67, 121
1, 1030302, Note_on_c, 0, 63, 67
1, 1030327, Control_c, 0, 67, 121
1, 1030329, Note_off_c, 0, 63, 64
1, 1030373, Control_c, 0, 67, 120
1, 1030395, Note_off_c, 0, 68, 60
1, 1030447, Note_on_c, 0, 63, 68
1, 1030447, Control_c, 0, 67, 120
1, 1030461, Control_c, 0, 67, 119
1, 1030472, Note_off_c, 0, 63, 67
1, 1030476, Control_c, 0, 67, 119
1, 1030505, Note_on_c, 0, 68, 70
1, 1030506, Control_c, 0, 67, 118
1, 1030514, Note_on_c, 0, 63, 73
1, 1030521, Note_on_c, 0, 77, 71
1, 1030535, Control_c, 0, 67, 118
1, 1030550, Control_c, 0, 67, 117
1, 1030579, Control_c, 0, 67, 117
1, 1030588, Note_off_c, 0, 63, 50
1, 1030594, Control_c, 0, 67, 116
1, 1030600, Note_on_c, 0, 62, 67
1, 1030609, Control_c, 0, 67, 115
1, 1030624, Control_c, 0, 67, 115
1, 1030636, Note_off_c, 0, 62, 58
1, 1030639, Control_c, 0, 67, 114
1, 1030653, Control_c, 0, 67, 113
1, 1030668, Control_c, 0, 67, 111
1, 1030683, Control_c, 0, 67, 106
1, 1030698, Control_c, 0, 67, 102
1, 1030721, Control_c, 0, 67, 98
1, 1030735, Control_c, 0, 67, 94
1, 1030744, Note_off_c, 0, 68, 59
1, 1030750, Control_c, 0, 67, 91
1, 1030752, Note_on_c, 0, 62, 67
1, 1030765, Control_c, 0, 67, 88
1, 1030778, Note_off_c, 0, 62, 64
1, 1030780, Control_c, 0, 67, 85
1, 1030794, Control_c, 0, 67, 82
1, 1030795, Note_off_c, 0, 77, 37
1, 1030810, Control_c, 0, 67, 80
1, 1030833, Note_on_c, 0, 70, 57
1, 1030840, Note_on_c, 0, 62, 72
1, 1030855, Note_on_c, 0, 68, 52
1, 1030855, Control_c, 0, 67, 81
1, 1030860, Note_off_c, 0, 70, 66
1, 1030869, Control_c, 0, 67, 83
1, 1030883, Note_off_c, 0, 62, 56
1, 1030884, Control_c, 0, 67, 85
1, 1030899, Control_c, 0, 67, 89
1, 1030913, Control_c, 0, 67, 92
1, 1030924, Note_on_c, 0, 60, 66
1, 1030928, Control_c, 0, 67, 96
1, 1030943, Control_c, 0, 67, 102
1, 1030954, Note_off_c, 0, 60, 65
1, 1030958, Control_c, 0, 67, 109
1, 1030973, Control_c, 0, 67, 114
1, 1030987, Control_c, 0, 67, 119
1, 1031002, Control_c, 0, 67, 121
1, 1031017, Control_c, 0, 67, 124
1, 1031032, Control_c, 0, 67, 125
1, 1031047, Control_c, 0, 67, 126
1, 1031062, Control_c, 0, 64, 116
1, 1031077, Control_c, 0, 64, 77
1, 1031077, Note_on_c, 0, 58, 69
1, 1031092, Control_c, 0, 64, 17
1, 1031092, Control_c, 0, 67, 127
1, 1031104, Note_off_c, 0, 58, 67
1, 1031106, Control_c, 0, 64, 0
1, 1031126, Note_off_c, 0, 68, 49
1, 1031159, Note_on_c, 0, 39, 65
1, 1031165, Note_on_c, 0, 58, 66
1, 1031166, Control_c, 0, 67, 126
1, 1031181, Control_c, 0, 64, 31
1, 1031194, Note_off_c, 0, 39, 62
1, 1031196, Control_c, 0, 64, 66
1, 1031196, Control_c, 0, 67, 126
1, 1031199, Note_off_c, 0, 58, 62
1, 1031211, Control_c, 0, 64, 79
1, 1031211, Control_c, 0, 67, 125
1, 1031226, Control_c, 0, 64, 105
1, 1031241, Control_c, 0, 64, 127
1, 1031241, Control_c, 0, 67, 125
1, 1031250, Note_on_c, 0, 67, 62
1, 1031256, Control_c, 0, 67, 124
1, 1031270, Control_c, 0, 67, 124
1, 1031284, Note_off_c, 0, 67, 61
1, 1031285, Control_c, 0, 67, 123
1, 1031300, Control_c, 0, 67, 123
1, 1031315, Control_c, 0, 67, 122
1, 1031407, Note_on_c, 0, 67, 74
1, 1031431, Note_off_c, 0, 67, 67
1, 1031470, Control_c, 0, 67, 123
1, 1031498, Note_on_c, 0, 70, 67
1, 1031500, Control_c, 0, 67, 123
1, 1031515, Note_on_c, 0, 67, 75
1, 1031559, Control_c, 0, 67, 123
1, 1031586, Note_on_c, 0, 65, 66
1, 1031618, Control_c, 0, 67, 123
1, 1031623, Note_off_c, 0, 65, 59
1, 1031663, Control_c, 0, 67, 124
1, 1031678, Control_c, 0, 67, 124
1, 1031698, Note_off_c, 0, 70, 43
1, 1031727, Note_on_c, 0, 65, 73
1, 1031747, Note_off_c, 0, 67, 53
1, 1031752, Note_off_c, 0, 65, 65
1, 1031809, Note_on_c, 0, 58, 62
1, 1031815, Note_on_c, 0, 65, 71
1, 1031818, Note_on_c, 0, 67, 63
1, 1031825, Control_c, 0, 67, 125
1, 1031837, Note_off_c, 0, 58, 66
1, 1031861, Note_off_c, 0, 65, 59
1, 1031870, Control_c, 0, 67, 125
1, 1031885, Control_c, 0, 67, 126
1, 1031899, Control_c, 0, 67, 126
1, 1031903, Note_on_c, 0, 63, 70
1, 1031930, Control_c, 0, 67, 127
1, 1031935, Note_off_c, 0, 63, 63
1, 1031959, Control_c, 0, 67, 127
1, 1032048, Control_c, 0, 64, 98
1, 1032055, Note_on_c, 0, 63, 67
1, 1032063, Control_c, 0, 64, 68
1, 1032078, Note_off_c, 0, 63, 70
1, 1032078, Control_c, 0, 64, 0
1, 1032126, Note_on_c, 0, 44, 68
1, 1032129, Note_on_c, 0, 63, 69
1, 1032152, Control_c, 0, 64, 67
1, 1032154, Note_off_c, 0, 44, 64
1, 1032167, Control_c, 0, 64, 81
1, 1032182, Control_c, 0, 64, 122
1, 1032197, Control_c, 0, 64, 127
1, 1032197, Control_c, 0, 67, 127
1, 1032215, Note_off_c, 0, 63, 51
1, 1032219, Control_c, 0, 67, 126
1, 1032226, Note_on_c, 0, 62, 66
1, 1032260, Note_off_c, 0, 62, 60
1, 1032263, Control_c, 0, 67, 126
1, 1032373, Note_off_c, 0, 67, 58
1, 1032380, Note_on_c, 0, 62, 60
1, 1032409, Note_off_c, 0, 62, 63
1, 1032454, Note_on_c, 0, 67, 65
1, 1032469, Note_on_c, 0, 62, 63
1, 1032471, Note_on_c, 0, 75, 60
1, 1032497, Note_off_c, 0, 62, 62
1, 1032515, Control_c, 0, 67, 125
1, 1032551, Note_on_c, 0, 60, 58
1, 1032574, Control_c, 0, 67, 126
1, 1032588, Note_off_c, 0, 60, 60
1, 1032675, Note_off_c, 0, 67, 55
1, 1032689, Note_on_c, 0, 60, 65
1, 1032721, Note_off_c, 0, 60, 65
1, 1032740, Note_off_c, 0, 75, 35
1, 1032760, Note_on_c, 0, 68, 58
1, 1032773, Note_on_c, 0, 67, 71
1, 1032774, Note_on_c, 0, 60, 64
1, 1032788, Note_off_c, 0, 68, 66
1, 1032821, Note_off_c, 0, 60, 59
1, 1032827, Control_c, 0, 67, 127
1, 1032842, Control_c, 0, 67, 127
1, 1032857, Note_on_c, 0, 58, 69
1, 1032885, Note_off_c, 0, 58, 66
1, 1033022, Note_on_c, 0, 56, 65
1, 1033027, Control_c, 0, 64, 102
1, 1033042, Control_c, 0, 64, 68
1, 1033047, Note_off_c, 0, 56, 65
1, 1033056, Control_c, 0, 64, 0
1, 1033071, Note_off_c, 0, 67, 35
1, 1033101, Note_on_c, 0, 56, 76
1, 1033106, Note_on_c, 0, 38, 61
1, 1033116, Control_c, 0, 64, 19
1, 1033131, Control_c, 0, 64, 65
1, 1033145, Control_c, 0, 64, 76
1, 1033154, Note_off_c, 0, 38, 62
1, 1033157, Note_off_c, 0, 56, 63
1, 1033160, Control_c, 0, 64, 94
1, 1033175, Control_c, 0, 64, 127
1, 1033187, Note_on_c, 0, 60, 62
1, 1033285, Note_off_c, 0, 60, 63
1, 1033306, Note_on_c, 0, 67, 64
1, 1033332, Note_off_c, 0, 67, 65
1, 1033392, Note_on_c, 0, 68, 75
1, 1033396, Note_on_c, 0, 65, 68
1, 1033443, Note_off_c, 0, 68, 61
1, 1033479, Note_on_c, 0, 72, 66
1, 1033587, Note_off_c, 0, 72, 63
1, 1033602, Note_on_c, 0, 79, 76
1, 1033622, Note_off_c, 0, 79, 69
1, 1033682, Note_on_c, 0, 77, 65
1, 1033685, Note_on_c, 0, 80, 75
1, 1033686, Note_off_c, 0, 65, 53
1, 1033714, Note_off_c, 0, 77, 67
1, 1033754, Note_off_c, 0, 80, 62
1, 1033781, Note_on_c, 0, 84, 64
1, 1033879, Control_c, 0, 64, 85
1, 1033891, Note_off_c, 0, 84, 64
1, 1033894, Control_c, 0, 64, 0
1, 1033929, Note_on_c, 0, 91, 70
1, 1033990, Note_on_c, 0, 89, 81
1, 1033998, Note_on_c, 0, 43, 59
1, 1034001, Note_off_c, 0, 91, 61
1, 1034027, Control_c, 0, 64, 66
1, 1034042, Control_c, 0, 64, 79
1, 1034043, Note_off_c, 0, 43, 63
1, 1034057, Control_c, 0, 64, 105
1, 1034072, Control_c, 0, 64, 127
1, 1034074, Note_on_c, 0, 86, 72
1, 1034074, Note_off_c, 0, 89, 61
1, 1034178, Note_off_c, 0, 86, 61
1, 1034223, Note_on_c, 0, 81, 66
1, 1034257, Note_off_c, 0, 81, 57
1, 1034293, Note_on_c, 0, 77, 55
1, 1034299, Note_on_c, 0, 82, 73
1, 1034344, Note_off_c, 0, 77, 59
1, 1034373, Note_on_c, 0, 74, 65
1, 1034460, Note_off_c, 0, 74, 64
1, 1034501, Note_on_c, 0, 69, 55
1, 1034529, Note_off_c, 0, 69, 64
1, 1034559, Note_off_c, 0, 82, 64
1, 1034585, Note_on_c, 0, 65, 68
1, 1034588, Note_on_c, 0, 70, 64
1, 1034615, Note_off_c, 0, 65, 67
1, 1034615, Note_off_c, 0, 70, 67
1, 1034661, Note_on_c, 0, 62, 64
1, 1034686, Note_off_c, 0, 62, 65
1, 1034824, Note_on_c, 0, 58, 70
1, 1034865, Control_c, 0, 64, 100
1, 1034880, Control_c, 0, 64, 62
1, 1034891, Note_off_c, 0, 58, 61
1, 1034895, Control_c, 0, 64, 0
1, 1034898, Note_on_c, 0, 55, 66
1, 1034901, Note_on_c, 0, 36, 72
1, 1034949, Note_off_c, 0, 36, 59
1, 1034954, Control_c, 0, 64, 57
1, 1034969, Control_c, 0, 64, 71
1, 1034984, Control_c, 0, 64, 87
1, 1034988, Note_on_c, 0, 58, 69
1, 1034988, Note_off_c, 0, 55, 56
1, 1034999, Control_c, 0, 64, 127
1, 1035081, Note_off_c, 0, 58, 64
1, 1035111, Note_on_c, 0, 65, 62
1, 1035143, Note_off_c, 0, 65, 66
1, 1035211, Note_on_c, 0, 67, 69
1, 1035217, Note_on_c, 0, 63, 58
1, 1035292, Note_on_c, 0, 70, 73
1, 1035296, Note_off_c, 0, 67, 56
1, 1035390, Note_off_c, 0, 70, 63
1, 1035442, Note_on_c, 0, 77, 47
1, 1035466, Note_off_c, 0, 77, 62
1, 1035499, Note_off_c, 0, 63, 60
1, 1035511, Note_on_c, 0, 79, 80
1, 1035515, Note_on_c, 0, 75, 58
1, 1035539, Note_off_c, 0, 75, 65
1, 1035584, Note_off_c, 0, 79, 43
1, 1035593, Note_on_c, 0, 82, 75
1, 1035716, Note_off_c, 0, 82, 63
1, 1035733, Control_c, 0, 64, 93
1, 1035742, Note_on_c, 0, 89, 71
1, 1035748, Control_c, 0, 64, 67
1, 1035763, Control_c, 0, 64, 0
1, 1035802, Note_on_c, 0, 41, 73
1, 1035809, Note_on_c, 0, 87, 78
1, 1035819, Note_off_c, 0, 89, 54
1, 1035837, Control_c, 0, 64, 56
1, 1035841, Note_off_c, 0, 41, 64
1, 1035851, Control_c, 0, 64, 72
1, 1035866, Control_c, 0, 64, 91
1, 1035881, Control_c, 0, 64, 127
1, 1035893, Note_on_c, 0, 84, 69
1, 1035907, Note_off_c, 0, 87, 64
1, 1036005, Note_off_c, 0, 84, 63
1, 1036014, Note_on_c, 0, 80, 64
1, 1036040, Note_off_c, 0, 80, 66
1, 1036117, Note_on_c, 0, 81, 83
1, 1036126, Note_on_c, 0, 75, 61
1, 1036138, Note_on_c, 0, 73, 35
1, 1036171, Note_off_c, 0, 75, 53
1, 1036196, Note_on_c, 0, 72, 72
1, 1036256, Note_off_c, 0, 73, 42
1, 1036280, Note_off_c, 0, 72, 61
1, 1036312, Note_on_c, 0, 68, 63
1, 1036335, Note_off_c, 0, 68, 66
1, 1036378, Note_off_c, 0, 81, 62
1, 1036389, Note_on_c, 0, 69, 76
1, 1036399, Note_on_c, 0, 63, 79
1, 1036426, Note_off_c, 0, 69, 61
1, 1036434, Note_off_c, 0, 63, 60
1, 1036458, Note_on_c, 0, 61, 65
1, 1036482, Note_off_c, 0, 61, 67
1, 1036639, Note_on_c, 0, 57, 66
1, 1036710, Control_c, 0, 64, 97
1, 1036723, Note_on_c, 0, 58, 71
1, 1036726, Control_c, 0, 64, 67
1, 1036733, Note_off_c, 0, 57, 55
1, 1036736, Note_on_c, 0, 34, 66
1, 1036740, Control_c, 0, 64, 0
1, 1036768, Note_off_c, 0, 34, 62
1, 1036770, Control_c, 0, 64, 48
1, 1036785, Control_c, 0, 64, 70
1, 1036800, Control_c, 0, 64, 84
1, 1036815, Control_c, 0, 64, 127
1, 1036822, Note_on_c, 0, 62, 75
1, 1036845, Note_off_c, 0, 58, 58
1, 1036903, Control_c, 0, 67, 127
1, 1036918, Control_c, 0, 67, 125
1, 1036933, Control_c, 0, 67, 123
1, 1036936, Note_on_c, 0, 65, 68
1, 1036947, Control_c, 0, 67, 121
1, 1036955, Note_off_c, 0, 62, 54
1, 1036962, Control_c, 0, 67, 118
1, 1036977, Control_c, 0, 67, 115
1, 1036992, Control_c, 0, 67, 111
1, 1036998, Note_off_c, 0, 65, 63
1, 1037007, Control_c, 0, 67, 108
1, 1037016, Note_on_c, 0, 53, 75
1, 1037020, Note_on_c, 0, 38, 69
1, 1037021, Control_c, 0, 64, 88
1, 1037021, Control_c, 0, 67, 104
1, 1037025, Note_on_c, 0, 58, 74
1, 1037036, Control_c, 0, 64, 81
1, 1037036, Control_c, 0, 67, 101
1, 1037041, Note_off_c, 0, 53, 69
1, 1037048, Note_off_c, 0, 38, 65
1, 1037051, Control_c, 0, 64, 90
1, 1037051, Control_c, 0, 67, 98
1, 1037066, Control_c, 0, 64, 127
1, 1037066, Control_c, 0, 67, 95
1, 1037081, Control_c, 0, 67, 91
1, 1037095, Control_c, 0, 67, 86
1, 1037100, Note_on_c, 0, 65, 66
1, 1037102, Note_off_c, 0, 58, 56
1, 1037110, Control_c, 0, 67, 80
1, 1037125, Control_c, 0, 67, 74
1, 1037140, Control_c, 0, 67, 69
1, 1037155, Control_c, 0, 67, 65
1, 1037170, Control_c, 0, 67, 62
1, 1037185, Control_c, 0, 67, 61
1, 1037240, Note_on_c, 0, 70, 68
1, 1037247, Note_off_c, 0, 65, 61
1, 1037273, Control_c, 0, 64, 111
1, 1037288, Control_c, 0, 64, 76
1, 1037289, Note_on_c, 0, 54, 77
1, 1037292, Note_on_c, 0, 39, 70
1, 1037292, Note_off_c, 0, 70, 62
1, 1037303, Control_c, 0, 64, 62
1, 1037307, Note_on_c, 0, 58, 71
1, 1037314, Note_off_c, 0, 54, 68
1, 1037318, Control_c, 0, 64, 68
1, 1037318, Control_c, 0, 67, 61
1, 1037321, Note_off_c, 0, 39, 64
1, 1037333, Control_c, 0, 64, 82
1, 1037347, Control_c, 0, 64, 127
1, 1037362, Control_c, 0, 67, 60
1, 1037374, Note_on_c, 0, 66, 70
1, 1037377, Control_c, 0, 67, 60
1, 1037392, Control_c, 0, 67, 58
1, 1037407, Control_c, 0, 67, 56
1, 1037419, Note_off_c, 0, 58, 53
1, 1037421, Control_c, 0, 67, 53
1, 1037436, Control_c, 0, 67, 50
1, 1037459, Control_c, 0, 67, 47
1, 1037473, Control_c, 0, 67, 46
1, 1037513, Note_on_c, 0, 71, 68
1, 1037533, Note_off_c, 0, 66, 59
1, 1037564, Control_c, 0, 64, 124
1, 1037564, Control_c, 0, 67, 45
1, 1037575, Note_on_c, 0, 55, 76
1, 1037576, Note_on_c, 0, 40, 80
1, 1037578, Control_c, 0, 64, 78
1, 1037584, Note_on_c, 0, 58, 75
1, 1037593, Control_c, 0, 64, 56
1, 1037601, Note_off_c, 0, 55, 67
1, 1037605, Note_off_c, 0, 40, 68
1, 1037608, Control_c, 0, 64, 63
1, 1037623, Control_c, 0, 64, 75
1, 1037623, Control_c, 0, 67, 45
1, 1037636, Note_off_c, 0, 71, 39
1, 1037638, Control_c, 0, 64, 110
1, 1037653, Control_c, 0, 64, 127
1, 1037653, Control_c, 0, 67, 44
1, 1037655, Note_on_c, 0, 67, 70
1, 1037667, Control_c, 0, 67, 42
1, 1037682, Control_c, 0, 67, 40
1, 1037697, Control_c, 0, 67, 37
1, 1037703, Note_off_c, 0, 58, 57
1, 1037712, Control_c, 0, 67, 35
1, 1037727, Control_c, 0, 67, 34
1, 1037742, Control_c, 0, 67, 33
1, 1037802, Note_on_c, 0, 72, 73
1, 1037802, Note_off_c, 0, 67, 60
1, 1037850, Note_on_c, 0, 41, 77
1, 1037852, Note_on_c, 0, 56, 84
1, 1037860, Control_c, 0, 64, 91
1, 1037873, Note_off_c, 0, 56, 72
1, 1037874, Note_on_c, 0, 58, 79
1, 1037875, Control_c, 0, 64, 67
1, 1037885, Note_off_c, 0, 41, 65
1, 1037890, Control_c, 0, 64, 56
1, 1037904, Control_c, 0, 64, 69
1, 1037919, Control_c, 0, 64, 92
1, 1037919, Control_c, 0, 67, 32
1, 1037934, Control_c, 0, 64, 127
1, 1037934, Control_c, 0, 67, 32
1, 1037935, Note_on_c, 0, 68, 75
1, 1037936, Note_off_c, 0, 72, 60
1, 1037949, Control_c, 0, 67, 31
1, 1037964, Control_c, 0, 67, 29
1, 1037978, Control_c, 0, 67, 27
1, 1037983, Note_off_c, 0, 58, 58
1, 1037993, Control_c, 0, 67, 25
1, 1038008, Control_c, 0, 67, 24
1, 1038023, Control_c, 0, 67, 23
1, 1038084, Note_on_c, 0, 73, 76
1, 1038106, Note_off_c, 0, 68, 57
1, 1038127, Control_c, 0, 64, 97
1, 1038138, Note_on_c, 0, 57, 76
1, 1038141, Control_c, 0, 64, 68
1, 1038144, Note_on_c, 0, 42, 71
1, 1038145, Note_on_c, 0, 58, 80
1, 1038156, Control_c, 0, 64, 0
1, 1038163, Note_off_c, 0, 57, 65
1, 1038167, Note_off_c, 0, 42, 65
1, 1038171, Control_c, 0, 64, 47
1, 1038193, Control_c, 0, 64, 71
1, 1038204, Note_off_c, 0, 73, 60
1, 1038206, Note_off_c, 0, 58, 63
1, 1038208, Control_c, 0, 64, 103
1, 1038208, Control_c, 0, 67, 23
1, 1038223, Note_on_c, 0, 69, 75
1, 1038223, Control_c, 0, 64, 127
1, 1038223, Control_c, 0, 67, 22
1, 1038238, Control_c, 0, 67, 21
1, 1038246, Poly_aftertouch_c, 0, 55, 0
1, 1038252, Control_c, 0, 67, 20
1, 1038267, Control_c, 0, 67, 18
1, 1038282, Control_c, 0, 67, 15
1, 1038296, Control_c, 0, 67, 13
1, 1038311, Control_c, 0, 67, 11
1, 1038350, Note_on_c, 0, 74, 80
1, 1038353, Note_off_c, 0, 69, 60
1, 1038401, Control_c, 0, 64, 106
1, 1038416, Control_c, 0, 64, 73
1, 1038431, Control_c, 0, 64, 0
1, 1038431, Control_c, 0, 67, 11
1, 1038437, Note_on_c, 0, 43, 77
1, 1038439, Note_on_c, 0, 63, 81
1, 1038461, Control_c, 0, 64, 63
1, 1038461, Control_c, 0, 67, 10
1, 1038470, Note_off_c, 0, 74, 45
1, 1038475, Control_c, 0, 64, 82
1, 1038475, Control_c, 0, 67, 9
1, 1038478, Note_off_c, 0, 43, 62
1, 1038490, Control_c, 0, 64, 127
1, 1038490, Control_c, 0, 67, 8
1, 1038505, Control_c, 0, 67, 0
1, 1038519, Note_on_c, 0, 70, 76
1, 1038550, Note_off_c, 0, 63, 55
1, 1038578, Note_on_c, 0, 58, 77
1, 1038621, Note_off_c, 0, 58, 65
1, 1038645, Note_on_c, 0, 75, 64
1, 1038672, Note_off_c, 0, 70, 61
1, 1038683, Control_c, 0, 64, 112
1, 1038698, Control_c, 0, 64, 76
1, 1038708, Note_off_c, 0, 75, 63
1, 1038713, Note_on_c, 0, 41, 90
1, 1038713, Control_c, 0, 64, 52
1, 1038724, Note_on_c, 0, 65, 77
1, 1038727, Control_c, 0, 64, 62
1, 1038742, Control_c, 0, 64, 73
1, 1038757, Control_c, 0, 64, 92
1, 1038758, Note_off_c, 0, 41, 63
1, 1038772, Control_c, 0, 64, 127
1, 1038800, Note_on_c, 0, 74, 80
1, 1038830, Note_off_c, 0, 65, 63
1, 1038848, Note_on_c, 0, 58, 79
1, 1038885, Note_off_c, 0, 58, 59
1, 1038913, Note_on_c, 0, 77, 74
1, 1038921, Note_off_c, 0, 74, 62
1, 1038972, Control_c, 0, 64, 85
1, 1038987, Control_c, 0, 64, 64
1, 1038990, Note_on_c, 0, 39, 90
1, 1039001, Control_c, 0, 64, 62
1, 1039009, Note_on_c, 0, 66, 85
1, 1039016, Control_c, 0, 64, 74
1, 1039028, Note_off_c, 0, 39, 65
1, 1039031, Control_c, 0, 64, 102
1, 1039046, Control_c, 0, 64, 127
1, 1039059, Note_off_c, 0, 77, 44
1, 1039077, Note_on_c, 0, 75, 81
1, 1039119, Note_off_c, 0, 66, 60
1, 1039138, Note_on_c, 0, 58, 63
1, 1039173, Note_off_c, 0, 58, 63
1, 1039203, Note_on_c, 0, 78, 81
1, 1039235, Note_off_c, 0, 75, 59
1, 1039254, Control_c, 0, 64, 88
1, 1039269, Note_on_c, 0, 37, 89
1, 1039269, Control_c, 0, 64, 59
1, 1039284, Control_c, 0, 64, 0
1, 1039287, Note_on_c, 0, 67, 86
1, 1039298, Control_c, 0, 64, 64
1, 1039309, Note_off_c, 0, 37, 64
1, 1039311, Note_off_c, 0, 78, 60
1, 1039313, Control_c, 0, 64, 81
1, 1039328, Control_c, 0, 64, 127
1, 1039359, Note_on_c, 0, 76, 81
1, 1039387, Note_off_c, 0, 67, 54
1, 1039412, Note_on_c, 0, 58, 79
1, 1039453, Note_off_c, 0, 58, 61
1, 1039462, Note_on_c, 0, 79, 70
1, 1039501, Note_off_c, 0, 76, 59
1, 1039521, Control_c, 0, 64, 93
1, 1039536, Control_c, 0, 64, 69
1, 1039537, Note_off_c, 0, 79, 63
1, 1039545, Note_on_c, 0, 36, 88
1, 1039550, Control_c, 0, 64, 70
1, 1039551, Note_on_c, 0, 68, 83
1, 1039565, Control_c, 0, 64, 89
1, 1039580, Control_c, 0, 64, 127
1, 1039587, Note_off_c, 0, 36, 64
1, 1039624, Note_on_c, 0, 77, 81
1, 1039661, Note_off_c, 0, 68, 59
1, 1039683, Note_on_c, 0, 58, 82
1, 1039701, Note_on_c, 0, 80, 74
1, 1039730, Note_off_c, 0, 58, 63
1, 1039795, Note_off_c, 0, 80, 60
1, 1039795, Control_c, 0, 64, 93
1, 1039810, Control_c, 0, 64, 67
1, 1039815, Note_on_c, 0, 35, 92
1, 1039817, Note_on_c, 0, 69, 76
1, 1039824, Control_c, 0, 64, 29
1, 1039839, Control_c, 0, 64, 65
1, 1039854, Note_off_c, 0, 35, 66
1, 1039854, Control_c, 0, 64, 83
1, 1039868, Control_c, 0, 64, 127
1, 1039891, Note_on_c, 0, 75, 79
1, 1039925, Note_off_c, 0, 69, 61
1, 1039942, Note_on_c, 0, 58, 81
1, 1039965, Note_off_c, 0, 58, 66
1, 1039989, Note_on_c, 0, 81, 68
1, 1040016, Note_off_c, 0, 75, 61
1, 1040054, Note_off_c, 0, 77, 27
1, 1040062, Control_c, 0, 64, 89
1, 1040067, Note_off_c, 0, 81, 63
1, 1040077, Control_c, 0, 64, 55
1, 1040080, Note_on_c, 0, 34, 91
1, 1040091, Control_c, 0, 64, 0
1, 1040091, Control_c, 0, 67, 8
1, 1040092, Note_on_c, 0, 70, 82
1, 1040106, Control_c, 0, 67, 8
1, 1040118, Note_off_c, 0, 34, 61
1, 1040121, Control_c, 0, 64, 67
1, 1040136, Control_c, 0, 64, 88
1, 1040136, Control_c, 0, 67, 8
1, 1040151, Control_c, 0, 64, 127
1, 1040151, Control_c, 0, 67, 0
1, 1040158, Note_on_c, 0, 74, 78
1, 1040192, Note_off_c, 0, 70, 60
1, 1040276, Note_on_c, 0, 82, 75
1, 1040344, Control_c, 0, 64, 85
1, 1040359, Control_c, 0, 64, 63
1, 1040360, Note_off_c, 0, 74, 55
1, 1040362, Note_on_c, 0, 65, 89
1, 1040370, Note_on_c, 0, 70, 89
1, 1040373, Control_c, 0, 64, 45
1, 1040385, Note_on_c, 0, 52, 55
1, 1040386, Note_on_c, 0, 50, 53
1, 1040388, Control_c, 0, 64, 70
1, 1040392, Note_off_c, 0, 65, 65
1, 1040403, Control_c, 0, 64, 92
1, 1040410, Note_off_c, 0, 52, 59
1, 1040410, Note_off_c, 0, 82, 59
1, 1040416, Note_off_c, 0, 50, 59
1, 1040418, Control_c, 0, 64, 127
1, 1040452, Note_on_c, 0, 77, 80
1, 1040487, Note_off_c, 0, 70, 62
1, 1040567, Note_on_c, 0, 82, 77
1, 1040592, Note_off_c, 0, 77, 61
1, 1040633, Control_c, 0, 64, 82
1, 1040636, Note_on_c, 0, 66, 85
1, 1040639, Note_on_c, 0, 51, 80
1, 1040643, Note_on_c, 0, 70, 83
1, 1040645, Note_off_c, 0, 82, 52
1, 1040647, Control_c, 0, 64, 68
1, 1040662, Control_c, 0, 64, 73
1, 1040666, Note_off_c, 0, 51, 70
1, 1040674, Note_off_c, 0, 66, 60
1, 1040677, Control_c, 0, 64, 97
1, 1040691, Control_c, 0, 64, 127
1, 1040705, Note_on_c, 0, 78, 85
1, 1040756, Note_off_c, 0, 70, 62
1, 1040839, Note_on_c, 0, 83, 78
1, 1040863, Note_off_c, 0, 78, 59
1, 1040899, Note_on_c, 0, 67, 86
1, 1040900, Control_c, 0, 64, 83
1, 1040906, Note_on_c, 0, 52, 76
1, 1040914, Control_c, 0, 64, 64
1, 1040917, Note_off_c, 0, 67, 69
1, 1040918, Note_on_c, 0, 70, 86
1, 1040925, Note_off_c, 0, 52, 64
1, 1040929, Control_c, 0, 64, 65
1, 1040931, Note_on_c, 0, 65, 42
1, 1040932, Note_off_c, 0, 65, 127
1, 1040944, Control_c, 0, 64, 77
1, 1040959, Note_off_c, 0, 83, 55
1, 1040959, Control_c, 0, 64, 127
1, 1040973, Note_on_c, 0, 79, 77
1, 1041012, Poly_aftertouch_c, 0, 54, 0
1, 1041019, Note_off_c, 0, 70, 60
1, 1041088, Note_on_c, 0, 84, 77
1, 1041096, Note_off_c, 0, 79, 60
1, 1041152, Control_c, 0, 64, 95
1, 1041157, Note_on_c, 0, 53, 83
1, 1041158, Note_on_c, 0, 68, 92
1, 1041167, Control_c, 0, 64, 72
1, 1041169, Note_on_c, 0, 70, 82
1, 1041182, Control_c, 0, 64, 68
1, 1041195, Note_off_c, 0, 68, 63
1, 1041203, Note_off_c, 0, 53, 65
1, 1041203, Control_c, 0, 64, 83
1, 1041218, Control_c, 0, 64, 127
1, 1041223, Note_off_c, 0, 84, 61
1, 1041230, Note_on_c, 0, 80, 77
1, 1041273, Poly_aftertouch_c, 0, 54, 0
1, 1041283, Note_off_c, 0, 70, 62
1, 1041337, Note_on_c, 0, 85, 83
1, 1041354, Note_off_c, 0, 80, 55
1, 1041396, Control_c, 0, 64, 119
1, 1041411, Control_c, 0, 64, 78
1, 1041416, Note_on_c, 0, 69, 88
1, 1041419, Note_on_c, 0, 70, 87
1, 1041422, Note_on_c, 0, 54, 81
1, 1041426, Control_c, 0, 64, 62
1, 1041440, Control_c, 0, 64, 71
1, 1041441, Note_off_c, 0, 54, 70
1, 1041445, Note_off_c, 0, 85, 60
1, 1041447, Note_off_c, 0, 69, 66
1, 1041455, Control_c, 0, 64, 95
1, 1041470, Control_c, 0, 64, 127
1, 1041475, Note_off_c, 0, 70, 65
1, 1041488, Note_on_c, 0, 81, 85
1, 1041578, Note_on_c, 0, 85, 54
1, 1041580, Poly_aftertouch_c, 0, 54, 0
1, 1041590, Note_on_c, 0, 86, 80
1, 1041592, Note_off_c, 0, 81, 61
1, 1041604, Note_off_c, 0, 85, 57
1, 1041649, Control_c, 0, 64, 109
1, 1041660, Note_off_c, 0, 86, 63
1, 1041664, Control_c, 0, 64, 74
1, 1041674, Note_on_c, 0, 55, 90
1, 1041677, Note_on_c, 0, 75, 88
1, 1041679, Control_c, 0, 64, 45
1, 1041693, Control_c, 0, 64, 64
1, 1041708, Control_c, 0, 64, 83
1, 1041723, Control_c, 0, 64, 127
1, 1041724, Note_off_c, 0, 55, 63
1, 1041756, Note_on_c, 0, 82, 88
1, 1041772, Note_off_c, 0, 75, 63
1, 1041802, Note_on_c, 0, 70, 93
1, 1041842, Note_off_c, 0, 70, 68
1, 1041860, Note_on_c, 0, 87, 88
1, 1041883, Note_off_c, 0, 82, 61
1, 1041927, Note_off_c, 0, 87, 67
1, 1041930, Control_c, 0, 64, 100
1, 1041945, Note_on_c, 0, 53, 96
1, 1041949, Note_on_c, 0, 77, 90
1, 1041952, Control_c, 0, 64, 68
1, 1041967, Control_c, 0, 64, 0
1, 1041982, Control_c, 0, 64, 64
1, 1041989, Note_off_c, 0, 53, 68
1, 1041997, Control_c, 0, 64, 80
1, 1042012, Control_c, 0, 64, 127
1, 1042024, Note_on_c, 0, 86, 85
1, 1042058, Note_on_c, 0, 79, 27
1, 1042073, Note_on_c, 0, 70, 86
1, 1042073, Note_off_c, 0, 77, 61
1, 1042095, Note_off_c, 0, 79, 52
1, 1042102, Note_on_c, 0, 89, 78
1, 1042115, Note_off_c, 0, 70, 66
1, 1042127, Note_off_c, 0, 86, 62
1, 1042175, Control_c, 0, 64, 84
1, 1042184, Note_off_c, 0, 89, 64
1, 1042190, Control_c, 0, 64, 58
1, 1042200, Note_on_c, 0, 51, 98
1, 1042204, Note_on_c, 0, 78, 91
1, 1042204, Control_c, 0, 64, 61
1, 1042219, Control_c, 0, 64, 76
1, 1042232, Note_off_c, 0, 51, 64
1, 1042234, Control_c, 0, 64, 127
1, 1042281, Note_on_c, 0, 87, 93
1, 1042320, Note_off_c, 0, 78, 62
1, 1042331, Note_on_c, 0, 70, 91
1, 1042365, Note_on_c, 0, 90, 84
1, 1042368, Note_off_c, 0, 70, 68
1, 1042402, Note_off_c, 0, 87, 62
1, 1042442, Control_c, 0, 64, 81
1, 1042448, Note_off_c, 0, 90, 62
1, 1042455, Note_on_c, 0, 49, 95
1, 1042455, Note_on_c, 0, 79, 90
1, 1042457, Control_c, 0, 64, 62
1, 1042472, Control_c, 0, 64, 66
1, 1042486, Control_c, 0, 64, 88
1, 1042491, Note_off_c, 0, 49, 65
1, 1042501, Control_c, 0, 64, 127
1, 1042526, Note_on_c, 0, 88, 85
1, 1042568, Note_on_c, 0, 81, 18
1, 1042580, Note_off_c, 0, 79, 61
1, 1042581, Note_on_c, 0, 70, 92
1, 1042607, Note_off_c, 0, 81, 43
1, 1042618, Note_off_c, 0, 70, 68
1, 1042625, Note_on_c, 0, 91, 81
1, 1042652, Note_off_c, 0, 88, 63
1, 1042664, Control_c, 0, 64, 106
1, 1042679, Control_c, 0, 64, 67
1, 1042698, Note_off_c, 0, 91, 67
1, 1042701, Control_c, 0, 64, 0
1, 1042712, Note_on_c, 0, 48, 99
1, 1042716, Control_c, 0, 64, 63
1, 1042720, Note_on_c, 0, 80, 85
1, 1042731, Control_c, 0, 64, 82
1, 1042746, Control_c, 0, 64, 127
1, 1042747, Note_off_c, 0, 48, 66
1, 1042783, Note_on_c, 0, 89, 83
1, 1042815, Note_off_c, 0, 80, 62
1, 1042834, Note_on_c, 0, 70, 91
1, 1042843, Note_on_c, 0, 92, 81
1, 1042872, Note_off_c, 0, 70, 67
1, 1042908, Control_c, 0, 64, 111
1, 1042923, Control_c, 0, 64, 71
1, 1042930, Note_off_c, 0, 92, 65
1, 1042938, Control_c, 0, 64, 0
1, 1042947, Note_on_c, 0, 81, 88
1, 1042952, Note_on_c, 0, 47, 96
1, 1042968, Control_c, 0, 64, 68
1, 1042982, Note_off_c, 0, 47, 68
1, 1042982, Control_c, 0, 64, 95
1, 1042997, Control_c, 0, 64, 127
1, 1043030, Note_on_c, 0, 87, 84
1, 1043063, Note_on_c, 0, 70, 88
1, 1043063, Note_off_c, 0, 81, 62
1, 1043087, Note_on_c, 0, 93, 78
1, 1043100, Note_off_c, 0, 70, 67
1, 1043116, Note_off_c, 0, 87, 65
1, 1043144, Note_off_c, 0, 93, 64
1, 1043146, Control_c, 0, 64, 77
1, 1043153, Note_off_c, 0, 89, 61
1, 1043161, Control_c, 0, 64, 0
1, 1043191, Note_on_c, 0, 46, 99
1, 1043191, Control_c, 0, 64, 31
1, 1043199, Note_on_c, 0, 82, 100
1, 1043199, Note_on_c, 0, 86, 100
1, 1043200, Note_on_c, 0, 94, 105
1, 1043206, Control_c, 0, 64, 76
1, 1043212, Note_off_c, 0, 46, 71
1, 1043219, Note_off_c, 0, 86, 69
1, 1043221, Control_c, 0, 64, 127
1, 1043232, Note_off_c, 0, 94, 68
1, 1043239, Note_off_c, 0, 82, 62
1, 1043287, Poly_aftertouch_c, 0, 44, 0
1, 1043318, Poly_aftertouch_c, 0, 44, 0
1, 1043369, Control_c, 0, 64, 109
1, 1043383, Control_c, 0, 64, 72
1, 1043398, Control_c, 0, 64, 0
1, 1043445, Note_on_c, 0, 79, 96
1, 1043445, Note_on_c, 0, 91, 101
1, 1043446, Note_on_c, 0, 75, 93
1, 1043447, Note_on_c, 0, 63, 83
1, 1043447, Note_on_c, 0, 67, 77
1, 1043447, Note_on_c, 0, 70, 86
1, 1043449, Note_on_c, 0, 87, 94
1, 1043450, Control_c, 0, 64, 70
1, 1043460, Note_on_c, 0, 83, 67
1, 1043462, Note_off_c, 0, 75, 74
1, 1043465, Control_c, 0, 64, 109
1, 1043468, Note_off_c, 0, 79, 65
1, 1043476, Note_off_c, 0, 83, 67
1, 1043478, Note_off_c, 0, 67, 62
1, 1043480, Control_c, 0, 64, 127
1, 1043483, Note_off_c, 0, 70, 61
1, 1043488, Note_off_c, 0, 87, 66
1, 1043493, Note_off_c, 0, 91, 67
1, 1043495, Note_off_c, 0, 63, 61
1, 1043598, Control_c, 0, 64, 76
1, 1043613, Control_c, 0, 64, 0
1, 1043657, Control_c, 0, 64, 40
1, 1043672, Control_c, 0, 64, 77
1, 1043678, Note_on_c, 0, 90, 98
1, 1043679, Note_on_c, 0, 72, 91
1, 1043681, Note_on_c, 0, 93, 100
1, 1043683, Note_on_c, 0, 63, 90
1, 1043684, Note_on_c, 0, 81, 93
1, 1043687, Control_c, 0, 64, 127
1, 1043688, Note_on_c, 0, 60, 75
1, 1043689, Note_on_c, 0, 65, 86
1, 1043689, Note_on_c, 0, 87, 86
1, 1043691, Note_on_c, 0, 59, 77
1, 1043693, Note_on_c, 0, 71, 73
1, 1043710, Note_off_c, 0, 71, 41
1, 1043711, Note_off_c, 0, 72, 62
1, 1043712, Note_off_c, 0, 59, 68
1, 1043713, Note_off_c, 0, 60, 69
1, 1043713, Note_off_c, 0, 65, 66
1, 1043717, Note_off_c, 0, 81, 63
1, 1043723, Note_off_c, 0, 90, 69
1, 1043727, Note_off_c, 0, 87, 62
1, 1043728, Note_off_c, 0, 63, 63
1, 1043728, Note_off_c, 0, 93, 64
1, 1043805, Control_c, 0, 64, 77
1, 1043820, Control_c, 0, 64, 0
1, 1043859, Note_on_c, 0, 86, 26
1, 1043895, Control_c, 0, 64, 69
1, 1043909, Note_on_c, 0, 82, 103
1, 1043910, Note_on_c, 0, 94, 104
1, 1043910, Control_c, 0, 64, 127
1, 1043911, Note_on_c, 0, 65, 81
1, 1043912, Note_on_c, 0, 70, 94
1, 1043912, Note_off_c, 0, 86, 0
1, 1043912, Note_on_c, 0, 86, 73
1, 1043914, Note_on_c, 0, 58, 87
1, 1043915, Note_on_c, 0, 62, 81
1, 1043919, Note_on_c, 0, 89, 88
1, 1043936, Note_off_c, 0, 94, 70
1, 1043937, Note_off_c, 0, 89, 68
1, 1043940, Note_off_c, 0, 86, 68
1, 1043941, Note_off_c, 0, 62, 65
1, 1043941, Note_off_c, 0, 70, 62
1, 1043956, Note_off_c, 0, 65, 65
1, 1043957, Note_off_c, 0, 82, 62
1, 1043959, Note_off_c, 0, 58, 64
1, 1044044, Control_c, 0, 64, 95
1, 1044059, Control_c, 0, 64, 60
1, 1044073, Control_c, 0, 64, 0
1, 1044132, Control_c, 0, 64, 79
1, 1044136, Note_on_c, 0, 70, 96
1, 1044139, Note_on_c, 0, 65, 87
1, 1044140, Note_on_c, 0, 58, 81
1, 1044140, Note_on_c, 0, 89, 97
1, 1044141, Note_on_c, 0, 77, 95
1, 1044142, Note_on_c, 0, 61, 82
1, 1044147, Note_on_c, 0, 85, 85
1, 1044147, Control_c, 0, 64, 127
1, 1044158, Note_on_c, 0, 82, 59
1, 1044160, Note_off_c, 0, 85, 72
1, 1044163, Note_on_c, 0, 87, 63
1, 1044167, Note_off_c, 0, 70, 61
1, 1044175, Note_on_c, 0, 86, 56
1, 1044177, Note_off_c, 0, 65, 61
1, 1044178, Note_off_c, 0, 77, 63
1, 1044178, Note_off_c, 0, 82, 65
1, 1044190, Note_off_c, 0, 87, 64
1, 1044193, Note_off_c, 0, 58, 60
1, 1044197, Note_off_c, 0, 61, 64
1, 1044201, Note_off_c, 0, 89, 66
1, 1044204, Note_off_c, 0, 86, 64
1, 1044303, Control_c, 0, 64, 88
1, 1044318, Control_c, 0, 64, 0
1, 1044362, Control_c, 0, 64, 61
1, 1044365, Note_on_c, 0, 70, 91
1, 1044366, Note_on_c, 0, 91, 100
1, 1044367, Note_on_c, 0, 63, 90
1, 1044367, Note_on_c, 0, 87, 84
1, 1044369, Note_on_c, 0, 79, 98
1, 1044369, Note_on_c, 0, 61, 81
1, 1044371, Note_on_c, 0, 85, 83
1, 1044372, Note_on_c, 0, 58, 83
1, 1044377, Control_c, 0, 64, 87
1, 1044386, Note_off_c, 0, 70, 66
1, 1044392, Control_c, 0, 64, 127
1, 1044399, Note_off_c, 0, 79, 63
1, 1044401, Note_off_c, 0, 85, 62
1, 1044410, Note_off_c, 0, 63, 65
1, 1044414, Note_off_c, 0, 87, 67
1, 1044414, Note_off_c, 0, 91, 66
1, 1044417, Note_off_c, 0, 58, 54
1, 1044418, Note_off_c, 0, 61, 61
1, 1044510, Control_c, 0, 64, 90
1, 1044525, Control_c, 0, 64, 0
1, 1044569, Control_c, 0, 64, 74
1, 1044573, Note_on_c, 0, 84, 30
1, 1044575, Note_on_c, 0, 63, 88
1, 1044575, Note_on_c, 0, 92, 91
1, 1044576, Note_on_c, 0, 60, 77
1, 1044576, Note_on_c, 0, 68, 92
1, 1044576, Note_on_c, 0, 80, 93
1, 1044577, Note_on_c, 0, 56, 90
1, 1044577, Note_on_c, 0, 87, 81
1, 1044584, Control_c, 0, 64, 127
1, 1044601, Note_off_c, 0, 92, 66
1, 1044606, Note_off_c, 0, 68, 59
1, 1044613, Note_off_c, 0, 84, 64
1, 1044617, Note_off_c, 0, 87, 64
1, 1044619, Note_off_c, 0, 80, 62
1, 1044620, Note_off_c, 0, 60, 64
1, 1044628, Note_off_c, 0, 63, 60
1, 1044631, Note_off_c, 0, 56, 60
1, 1044701, Note_on_c, 0, 56, 29
1, 1044718, Control_c, 0, 64, 86
1, 1044731, Note_off_c, 0, 56, 59
1, 1044733, Control_c, 0, 64, 0
1, 1044750, Poly_aftertouch_c, 0, 63, 127
1, 1044777, Note_on_c, 0, 63, 23
1, 1044777, Control_c, 0, 64, 76
1, 1044780, Note_on_c, 0, 80, 66
1, 1044786, Note_on_c, 0, 68, 83
1, 1044788, Note_on_c, 0, 56, 84
1, 1044788, Note_on_c, 0, 87, 95
1, 1044789, Note_on_c, 0, 75, 94
1, 1044790, Note_on_c, 0, 59, 80
1, 1044792, Note_on_c, 0, 83, 71
1, 1044792, Control_c, 0, 64, 127
1, 1044815, Note_off_c, 0, 83, 69
1, 1044822, Note_off_c, 0, 80, 64
1, 1044829, Note_off_c, 0, 68, 59
1, 1044833, Note_off_c, 0, 75, 62
1, 1044840, Note_off_c, 0, 59, 58
1, 1044841, Note_off_c, 0, 63, 61
1, 1044847, Note_off_c, 0, 56, 58
1, 1044867, Note_off_c, 0, 87, 64
1, 1044926, Control_c, 0, 64, 111
1, 1044944, Note_on_c, 0, 85, 57
1, 1044948, Control_c, 0, 64, 68
1, 1044962, Control_c, 0, 64, 0
1, 1044982, Note_off_c, 0, 85, 0
1, 1044992, Note_on_c, 0, 85, 77
1, 1044992, Control_c, 0, 64, 66
1, 1044994, Note_on_c, 0, 56, 84
1, 1044994, Note_on_c, 0, 83, 73
1, 1044995, Note_on_c, 0, 89, 92
1, 1044995, Note_on_c, 0, 77, 87
1, 1044997, Note_on_c, 0, 68, 85
1, 1045001, Note_on_c, 0, 59, 67
1, 1045001, Note_on_c, 0, 61, 82
1, 1045007, Control_c, 0, 64, 110
1, 1045020, Note_on_c, 0, 87, 59
1, 1045022, Control_c, 0, 64, 127
1, 1045030, Note_off_c, 0, 59, 61
1, 1045033, Note_off_c, 0, 77, 62
1, 1045036, Note_off_c, 0, 83, 64
1, 1045039, Note_off_c, 0, 87, 63
1, 1045040, Note_off_c, 0, 68, 61
1, 1045046, Note_off_c, 0, 61, 64
1, 1045054, Note_off_c, 0, 56, 63
1, 1045055, Note_off_c, 0, 89, 63
1, 1045058, Note_off_c, 0, 85, 64
1, 1045141, Control_c, 0, 64, 84
1, 1045156, Control_c, 0, 64, 0
1, 1045185, Control_c, 0, 64, 23
1, 1045193, Note_on_c, 0, 61, 82
1, 1045193, Note_on_c, 0, 82, 84
1, 1045194, Note_on_c, 0, 78, 88
1, 1045195, Note_on_c, 0, 90, 78
1, 1045197, Note_on_c, 0, 66, 89
1, 1045198, Note_on_c, 0, 85, 69
1, 1045200, Control_c, 0, 64, 88
1, 1045200, Note_on_c, 0, 54, 84
1, 1045200, Note_on_c, 0, 58, 69
1, 1045215, Note_off_c, 0, 90, 72
1, 1045215, Control_c, 0, 64, 127
1, 1045224, Note_off_c, 0, 85, 67
1, 1045230, Note_off_c, 0, 66, 58
1, 1045233, Note_off_c, 0, 58, 62
1, 1045243, Note_off_c, 0, 82, 62
1, 1045248, Note_off_c, 0, 78, 59
1, 1045254, Note_off_c, 0, 54, 61
1, 1045258, Note_off_c, 0, 61, 62
1, 1045320, Note_on_c, 0, 82, 45
1, 1045333, Control_c, 0, 64, 88
1, 1045348, Control_c, 0, 64, 0
1, 1045365, Note_off_c, 0, 82, 51
1, 1045388, Note_on_c, 0, 78, 80
1, 1045389, Note_on_c, 0, 61, 83
1, 1045391, Note_on_c, 0, 66, 88
1, 1045391, Note_on_c, 0, 54, 80
1, 1045391, Note_on_c, 0, 85, 86
1, 1045392, Control_c, 0, 64, 81
1, 1045393, Note_on_c, 0, 73, 84
1, 1045404, Poly_aftertouch_c, 0, 57, 127
1, 1045406, Note_on_c, 0, 81, 57
1, 1045406, Control_c, 0, 64, 127
1, 1045420, Note_off_c, 0, 73, 59
1, 1045424, Note_off_c, 0, 81, 67
1, 1045425, Note_off_c, 0, 66, 58
1, 1045439, Note_off_c, 0, 54, 63
1, 1045441, Note_off_c, 0, 78, 59
1, 1045449, Poly_aftertouch_c, 0, 57, 0
1, 1045449, Note_off_c, 0, 61, 62
1, 1045484, Note_off_c, 0, 85, 56
1, 1045556, Control_c, 0, 64, 88
1, 1045571, Control_c, 0, 64, 56
1, 1045576, Note_on_c, 0, 65, 94
1, 1045578, Note_on_c, 0, 53, 82
1, 1045579, Note_on_c, 0, 86, 96
1, 1045584, Note_on_c, 0, 74, 86
1, 1045585, Control_c, 0, 64, 0
1, 1045600, Control_c, 0, 64, 66
1, 1045609, Note_off_c, 0, 53, 64
1, 1045613, Note_on_c, 0, 79, 46
1, 1045615, Control_c, 0, 64, 111
1, 1045616, Note_off_c, 0, 65, 61
1, 1045621, Note_off_c, 0, 74, 66
1, 1045627, Note_off_c, 0, 86, 67
1, 1045630, Control_c, 0, 64, 127
1, 1045641, Note_off_c, 0, 79, 55
1, 1045642, Note_on_c, 0, 56, 12
1, 1045690, Note_off_c, 0, 56, 44
1, 1045741, Control_c, 0, 64, 79
1, 1045756, Control_c, 0, 64, 0
1, 1045780, Note_on_c, 0, 79, 59
1, 1045782, Note_on_c, 0, 75, 91
1, 1045782, Note_on_c, 0, 55, 82
1, 1045784, Note_on_c, 0, 67, 90
1, 1045784, Note_on_c, 0, 87, 89
1, 1045786, Control_c, 0, 64, 71
1, 1045787, Note_on_c, 0, 63, 88
1, 1045800, Control_c, 0, 64, 127
1, 1045808, Note_off_c, 0, 79, 65
1, 1045812, Note_off_c, 0, 67, 63
1, 1045818, Note_off_c, 0, 55, 61
1, 1045826, Note_off_c, 0, 63, 53
1, 1045827, Note_off_c, 0, 75, 65
1, 1045832, Note_off_c, 0, 87, 64
1, 1045851, Note_on_c, 0, 58, 20
1, 1045898, Note_off_c, 0, 58, 46
1, 1045934, Control_c, 0, 64, 118
1, 1045948, Control_c, 0, 64, 68
1, 1045963, Control_c, 0, 64, 0
1, 1045970, Note_on_c, 0, 68, 86
1, 1045972, Note_on_c, 0, 84, 90
1, 1045973, Note_on_c, 0, 72, 90
1, 1045976, Note_on_c, 0, 63, 80
1, 1045981, Note_on_c, 0, 56, 75
1, 1045989, Note_off_c, 0, 68, 70
1, 1046000, Note_off_c, 0, 63, 69
1, 1046005, Note_off_c, 0, 56, 68
1, 1046008, Control_c, 0, 64, 85
1, 1046008, Note_off_c, 0, 72, 66
1, 1046008, Note_off_c, 0, 84, 65
1, 1046023, Control_c, 0, 64, 127
1, 1046141, Control_c, 0, 64, 78
1, 1046156, Control_c, 0, 64, 60
1, 1046163, Note_on_c, 0, 82, 95
1, 1046164, Note_on_c, 0, 67, 86
1, 1046166, Note_on_c, 0, 63, 83
1, 1046170, Note_on_c, 0, 58, 77
1, 1046171, Note_on_c, 0, 70, 86
1, 1046171, Control_c, 0, 64, 73
1, 1046184, Note_on_c, 0, 78, 55
1, 1046185, Control_c, 0, 64, 127
1, 1046193, Note_off_c, 0, 63, 66
1, 1046193, Note_off_c, 0, 67, 56
1, 1046207, Note_off_c, 0, 78, 59
1, 1046236, Note_off_c, 0, 70, 56
1, 1046255, Note_off_c, 0, 82, 63
1, 1046284, Note_off_c, 0, 58, 27
1, 1046320, Control_c, 0, 64, 99
1, 1046334, Control_c, 0, 64, 64
1, 1046349, Control_c, 0, 64, 0
1, 1046358, Note_on_c, 0, 65, 75
1, 1046359, Note_on_c, 0, 63, 79
1, 1046359, Note_on_c, 0, 75, 86
1, 1046360, Note_on_c, 0, 70, 88
1, 1046360, Note_on_c, 0, 58, 69
1, 1046361, Note_on_c, 0, 77, 89
1, 1046379, Control_c, 0, 64, 82
1, 1046394, Control_c, 0, 64, 127
1, 1046547, Note_off_c, 0, 63, 56
1, 1046560, Note_on_c, 0, 79, 96
1, 1046562, Note_on_c, 0, 67, 88
1, 1046590, Note_off_c, 0, 75, 63
1, 1046592, Note_off_c, 0, 77, 58
1, 1046595, Note_off_c, 0, 70, 63
1, 1046603, Note_off_c, 0, 58, 61
1, 1046608, Note_off_c, 0, 67, 63
1, 1046685, Note_off_c, 0, 65, 53
1, 1046712, Note_off_c, 0, 79, 50
1, 1046712, Control_c, 0, 64, 86
1, 1046727, Control_c, 0, 64, 26
1, 1046734, Note_on_c, 0, 68, 91
1, 1046736, Note_on_c, 0, 62, 73
1, 1046740, Note_on_c, 0, 58, 81
1, 1046742, Control_c, 0, 64, 0
1, 1046744, Note_on_c, 0, 74, 90
1, 1046744, Note_on_c, 0, 79, 46
1, 1046745, Note_on_c, 0, 80, 90
1, 1046749, Note_on_c, 0, 70, 83
1, 1046757, Control_c, 0, 64, 46
1, 1046765, Note_off_c, 0, 62, 67
1, 1046767, Note_off_c, 0, 79, 61
1, 1046768, Note_off_c, 0, 68, 59
1, 1046772, Control_c, 0, 64, 74
1, 1046787, Note_off_c, 0, 58, 65
1, 1046787, Control_c, 0, 64, 119
1, 1046799, Note_off_c, 0, 70, 61
1, 1046802, Control_c, 0, 64, 127
1, 1046820, Note_off_c, 0, 80, 62
1, 1046890, Control_c, 0, 64, 126
1, 1046905, Control_c, 0, 64, 78
1, 1046920, Control_c, 0, 64, 56
1, 1046929, Note_on_c, 0, 75, 84
1, 1046930, Note_on_c, 0, 67, 89
1, 1046932, Note_on_c, 0, 51, 89
1, 1046933, Note_on_c, 0, 79, 90
1, 1046935, Control_c, 0, 64, 65
1, 1046935, Note_on_c, 0, 63, 86
1, 1046947, Note_off_c, 0, 74, 65
1, 1046950, Control_c, 0, 64, 80
1, 1046956, Note_off_c, 0, 63, 69
1, 1046962, Note_off_c, 0, 67, 57
1, 1046965, Control_c, 0, 64, 127
1, 1046968, Note_off_c, 0, 51, 58
1, 1046992, Note_off_c, 0, 79, 49
1, 1047024, Control_c, 0, 64, 121
1, 1047039, Control_c, 0, 64, 72
1, 1047051, Note_off_c, 0, 75, 56
1, 1047053, Control_c, 0, 64, 0
1, 1047114, Control_c, 0, 64, 64
1, 1047116, Note_on_c, 0, 62, 91
1, 1047120, Note_on_c, 0, 50, 80
1, 1047120, Note_on_c, 0, 75, 74
1, 1047120, Note_on_c, 0, 74, 69
1, 1047120, Note_on_c, 0, 79, 84
1, 1047121, Note_on_c, 0, 51, 86
1, 1047123, Note_on_c, 0, 67, 87
1, 1047129, Control_c, 0, 64, 89
1, 1047144, Note_off_c, 0, 62, 62
1, 1047144, Control_c, 0, 64, 127
1, 1047145, Note_off_c, 0, 74, 70
1, 1047148, Note_off_c, 0, 51, 68
1, 1047148, Note_off_c, 0, 67, 62
1, 1047156, Note_off_c, 0, 50, 63
1, 1047164, Note_off_c, 0, 75, 64
1, 1047168, Note_off_c, 0, 79, 63
1, 1047239, Control_c, 0, 64, 93
1, 1047254, Control_c, 0, 64, 50
1, 1047269, Control_c, 0, 64, 0
1, 1047314, Note_on_c, 0, 51, 84
1, 1047314, Note_on_c, 0, 77, 86
1, 1047314, Note_on_c, 0, 81, 89
1, 1047316, Note_on_c, 0, 60, 86
1, 1047316, Note_on_c, 0, 69, 85
1, 1047320, Note_on_c, 0, 75, 64
1, 1047322, Note_on_c, 0, 48, 74
1, 1047329, Note_on_c, 0, 53, 65
1, 1047329, Control_c, 0, 64, 92
1, 1047341, Note_off_c, 0, 60, 68
1, 1047344, Control_c, 0, 64, 127
1, 1047345, Note_off_c, 0, 75, 66
1, 1047347, Note_off_c, 0, 48, 65
1, 1047352, Note_off_c, 0, 69, 64
1, 1047355, Note_off_c, 0, 53, 66
1, 1047358, Note_off_c, 0, 81, 63
1, 1047365, Note_off_c, 0, 51, 64
1, 1047365, Note_off_c, 0, 77, 62
1, 1047433, Control_c, 0, 64, 72
1, 1047448, Control_c, 0, 64, 0
1, 1047492, Control_c, 0, 64, 37
1, 1047500, Note_on_c, 0, 82, 93
1, 1047501, Note_on_c, 0, 70, 96
1, 1047502, Note_on_c, 0, 74, 82
1, 1047507, Note_on_c, 0, 77, 63
1, 1047507, Control_c, 0, 64, 108
1, 1047509, Note_on_c, 0, 50, 84
1, 1047509, Note_on_c, 0, 58, 89
1, 1047510, Note_on_c, 0, 53, 81
1, 1047513, Note_on_c, 0, 46, 81
1, 1047522, Control_c, 0, 64, 127
1, 1047522, Note_off_c, 0, 74, 75
1, 1047528, Note_off_c, 0, 77, 64
1, 1047528, Note_off_c, 0, 82, 63
1, 1047531, Note_off_c, 0, 58, 68
1, 1047537, Note_off_c, 0, 50, 69
1, 1047546, Note_off_c, 0, 70, 61
1, 1047564, Note_off_c, 0, 53, 61
1, 1047626, Control_c, 0, 64, 80
1, 1047640, Control_c, 0, 64, 0
1, 1047647, Note_off_c, 0, 46, 25
1, 1047668, Note_on_c, 0, 73, 20
1, 1047668, Poly_aftertouch_c, 0, 53, 0
1, 1047684, Control_c, 0, 64, 58
1, 1047686, Note_on_c, 0, 53, 51
1, 1047689, Note_on_c, 0, 70, 67
1, 1047692, Note_on_c, 0, 58, 91
1, 1047698, Note_on_c, 0, 46, 73
1, 1047699, Note_on_c, 0, 65, 88
1, 1047699, Control_c, 0, 64, 91
1, 1047700, Note_on_c, 0, 77, 91
1, 1047701, Note_on_c, 0, 49, 81
1, 1047714, Control_c, 0, 64, 127
1, 1047719, Note_off_c, 0, 58, 62
1, 1047721, Note_off_c, 0, 65, 68
1, 1047734, Note_off_c, 0, 70, 65
1, 1047739, Note_off_c, 0, 53, 67
1, 1047750, Note_off_c, 0, 46, 59
1, 1047754, Note_off_c, 0, 49, 60
1, 1047755, Note_off_c, 0, 73, 55
1, 1047761, Note_off_c, 0, 77, 60
1, 1047788, Poly_aftertouch_c, 0, 75, 127
1, 1047788, Control_c, 0, 64, 100
1, 1047803, Control_c, 0, 64, 52
1, 1047805, Poly_aftertouch_c, 0, 75, 0
1, 1047817, Control_c, 0, 64, 0
1, 1047847, Control_c, 0, 64, 42
1, 1047862, Control_c, 0, 64, 75
1, 1047877, Control_c, 0, 64, 127
1, 1047879, Note_on_c, 0, 58, 89
1, 1047882, Note_on_c, 0, 79, 89
1, 1047883, Note_on_c, 0, 46, 76
1, 1047883, Note_on_c, 0, 49, 78
1, 1047883, Note_on_c, 0, 75, 87
1, 1047885, Note_on_c, 0, 51, 83
1, 1047885, Note_on_c, 0, 67, 93
1, 1047890, Note_on_c, 0, 73, 73
1, 1047908, Note_off_c, 0, 58, 62
1, 1047914, Note_off_c, 0, 67, 61
1, 1047916, Note_off_c, 0, 73, 68
1, 1047920, Note_off_c, 0, 49, 65
1, 1047938, Note_off_c, 0, 79, 61
1, 1047946, Note_off_c, 0, 51, 64
1, 1047946, Note_off_c, 0, 75, 64
1, 1047952, Note_off_c, 0, 46, 60
1, 1047989, Control_c, 0, 64, 84
1, 1048004, Control_c, 0, 64, 0
1, 1048049, Control_c, 0, 64, 33
1, 1048063, Control_c, 0, 64, 88
1, 1048077, Note_on_c, 0, 56, 94
1, 1048078, Note_on_c, 0, 44, 88
1, 1048078, Note_on_c, 0, 51, 89
1, 1048078, Note_on_c, 0, 80, 87
1, 1048078, Control_c, 0, 64, 127
1, 1048080, Note_on_c, 0, 48, 90
1, 1048080, Note_on_c, 0, 68, 91
1, 1048080, Note_on_c, 0, 72, 83
1, 1048080, Note_on_c, 0, 75, 79
1, 1048101, Note_off_c, 0, 72, 70
1, 1048104, Note_off_c, 0, 75, 68
1, 1048105, Note_off_c, 0, 80, 63
1, 1048107, Note_off_c, 0, 56, 64
1, 1048110, Note_off_c, 0, 48, 65
1, 1048120, Note_off_c, 0, 68, 61
1, 1048126, Note_off_c, 0, 51, 66
1, 1048127, Note_off_c, 0, 44, 64
1, 1048196, Control_c, 0, 64, 84
1, 1048211, Control_c, 0, 64, 0
1, 1048256, Control_c, 0, 64, 51
1, 1048268, Note_on_c, 0, 68, 74
1, 1048270, Note_on_c, 0, 51, 90
1, 1048271, Control_c, 0, 64, 91
1, 1048271, Note_on_c, 0, 44, 78
1, 1048274, Note_on_c, 0, 56, 88
1, 1048275, Note_on_c, 0, 63, 87
1, 1048275, Note_on_c, 0, 75, 92
1, 1048277, Note_on_c, 0, 47, 85
1, 1048279, Note_on_c, 0, 71, 71
1, 1048285, Control_c, 0, 64, 127
1, 1048297, Note_off_c, 0, 56, 68
1, 1048301, Note_off_c, 0, 68, 58
1, 1048301, Note_off_c, 0, 71, 71
1, 1048313, Note_off_c, 0, 47, 63
1, 1048321, Note_off_c, 0, 51, 65
1, 1048323, Note_off_c, 0, 63, 57
1, 1048324, Note_off_c, 0, 44, 61
1, 1048358, Note_off_c, 0, 75, 62
1, 1048404, Control_c, 0, 64, 78
1, 1048419, Control_c, 0, 64, 0
1, 1048456, Note_on_c, 0, 73, 94
1, 1048458, Note_on_c, 0, 65, 87
1, 1048459, Note_on_c, 0, 77, 90
1, 1048461, Note_on_c, 0, 56, 89
1, 1048462, Note_on_c, 0, 49, 88
1, 1048462, Note_on_c, 0, 71, 78
1, 1048463, Control_c, 0, 64, 56
1, 1048464, Note_on_c, 0, 44, 80
1, 1048468, Note_on_c, 0, 47, 69
1, 1048478, Control_c, 0, 64, 81
1, 1048481, Note_on_c, 0, 75, 59
1, 1048482, Note_off_c, 0, 71, 73
1, 1048484, Note_off_c, 0, 56, 69
1, 1048486, Note_off_c, 0, 65, 63
1, 1048493, Control_c, 0, 64, 127
1, 1048495, Note_off_c, 0, 47, 66
1, 1048500, Note_off_c, 0, 75, 63
1, 1048512, Note_off_c, 0, 49, 64
1, 1048514, Note_off_c, 0, 77, 61
1, 1048515, Note_off_c, 0, 44, 61
1, 1048516, Note_off_c, 0, 73, 60
1, 1048567, Control_c, 0, 64, 84
1, 1048581, Control_c, 0, 64, 0
1, 1048640, Note_on_c, 0, 78, 90
1, 1048640, Control_c, 0, 64, 83
1, 1048643, Note_on_c, 0, 70, 88
1, 1048643, Note_on_c, 0, 66, 90
1, 1048646, Note_on_c, 0, 54, 93
1, 1048648, Note_on_c, 0, 73, 76
1, 1048650, Note_on_c, 0, 49, 88
1, 1048654, Note_on_c, 0, 46, 82
1, 1048655, Note_on_c, 0, 42, 77
1, 1048655, Control_c, 0, 64, 127
1, 1048658, Note_off_c, 0, 78, 70
1, 1048670, Note_off_c, 0, 73, 70
1, 1048672, Note_off_c, 0, 54, 65
1, 1048685, Note_off_c, 0, 66, 59
1, 1048690, Note_off_c, 0, 70, 63
1, 1048696, Note_off_c, 0, 46, 61
1, 1048701, Note_off_c, 0, 42, 61
1, 1048701, Note_off_c, 0, 49, 61
1, 1048768, Control_c, 0, 64, 111
1, 1048781, Control_c, 0, 64, 66
1, 1048796, Control_c, 0, 64, 0
1, 1048834, Note_on_c, 0, 69, 33
1, 1048839, Note_on_c, 0, 49, 81
1, 1048840, Note_on_c, 0, 66, 80
1, 1048840, Control_c, 0, 64, 90
1, 1048843, Note_on_c, 0, 42, 77
1, 1048843, Note_on_c, 0, 61, 84
1, 1048845, Note_on_c, 0, 54, 75
1, 1048845, Note_on_c, 0, 73, 94
1, 1048849, Note_on_c, 0, 45, 68
1, 1048855, Control_c, 0, 64, 127
1, 1048866, Note_off_c, 0, 69, 62
1, 1048873, Note_off_c, 0, 45, 64
1, 1048876, Note_off_c, 0, 61, 57
1, 1048883, Note_off_c, 0, 66, 58
1, 1048885, Note_off_c, 0, 54, 62
1, 1048898, Note_off_c, 0, 42, 60
1, 1048903, Note_off_c, 0, 49, 63
1, 1048927, Note_off_c, 0, 73, 56
1, 1048974, Control_c, 0, 64, 97
1, 1048989, Control_c, 0, 64, 42
1, 1049003, Control_c, 0, 64, 0
1, 1049017, Note_on_c, 0, 41, 84
1, 1049018, Note_on_c, 0, 53, 88
1, 1049023, Note_on_c, 0, 62, 88
1, 1049023, Note_on_c, 0, 74, 89
1, 1049024, Note_on_c, 0, 70, 82
1, 1049034, Note_on_c, 0, 68, 68
1, 1049048, Control_c, 0, 64, 79
1, 1049050, Note_off_c, 0, 62, 64
1, 1049053, Note_on_c, 0, 51, 13
1, 1049054, Note_off_c, 0, 51, 127
1, 1049054, Note_off_c, 0, 53, 58
1, 1049054, Note_off_c, 0, 41, 61
1, 1049058, Note_off_c, 0, 68, 66
1, 1049062, Control_c, 0, 64, 127
1, 1049069, Note_off_c, 0, 74, 61
1, 1049086, Note_off_c, 0, 70, 61
1, 1049100, Poly_aftertouch_c, 0, 51, 0
1, 1049151, Control_c, 0, 64, 97
1, 1049166, Control_c, 0, 64, 61
1, 1049181, Control_c, 0, 64, 0
1, 1049206, Note_on_c, 0, 51, 86
1, 1049206, Note_on_c, 0, 55, 85
1, 1049209, Note_on_c, 0, 63, 85
1, 1049210, Note_on_c, 0, 75, 86
1, 1049210, Control_c, 0, 64, 64
1, 1049211, Note_on_c, 0, 43, 75
1, 1049213, Note_on_c, 0, 67, 70
1, 1049216, Note_on_c, 0, 70, 67
1, 1049225, Control_c, 0, 64, 127
1, 1049228, Note_off_c, 0, 55, 71
1, 1049236, Note_off_c, 0, 51, 61
1, 1049236, Note_off_c, 0, 67, 68
1, 1049239, Note_off_c, 0, 70, 68
1, 1049239, Note_off_c, 0, 43, 65
1, 1049244, Note_off_c, 0, 75, 64
1, 1049251, Note_off_c, 0, 63, 52
1, 1049344, Control_c, 0, 64, 101
1, 1049359, Control_c, 0, 64, 61
1, 1049373, Control_c, 0, 64, 0
1, 1049395, Note_on_c, 0, 56, 90
1, 1049395, Note_on_c, 0, 72, 90
1, 1049397, Note_on_c, 0, 60, 88
1, 1049403, Control_c, 0, 64, 35
1, 1049403, Note_on_c, 0, 51, 74
1, 1049405, Note_on_c, 0, 44, 72
1, 1049415, Note_off_c, 0, 56, 71
1, 1049418, Control_c, 0, 64, 106
1, 1049434, Note_off_c, 0, 60, 64
1, 1049440, Control_c, 0, 64, 127
1, 1049441, Note_off_c, 0, 51, 64
1, 1049441, Note_off_c, 0, 72, 63
1, 1049447, Note_off_c, 0, 44, 64
1, 1049530, Control_c, 0, 64, 107
1, 1049545, Control_c, 0, 64, 66
1, 1049559, Control_c, 0, 64, 0
1, 1049585, Note_on_c, 0, 55, 89
1, 1049585, Note_on_c, 0, 58, 89
1, 1049585, Note_on_c, 0, 70, 89
1, 1049589, Control_c, 0, 64, 71
1, 1049591, Note_on_c, 0, 46, 73
1, 1049598, Note_on_c, 0, 51, 62
1, 1049604, Control_c, 0, 64, 127
1, 1049607, Note_off_c, 0, 55, 69
1, 1049613, Note_off_c, 0, 46, 62
1, 1049622, Note_off_c, 0, 51, 63
1, 1049626, Note_off_c, 0, 58, 59
1, 1049629, Note_off_c, 0, 70, 65
1, 1049722, Control_c, 0, 64, 87
1, 1049737, Control_c, 0, 64, 0
1, 1049773, Note_on_c, 0, 69, 81
1, 1049779, Note_on_c, 0, 51, 59
1, 1049779, Note_on_c, 0, 57, 75
1, 1049782, Control_c, 0, 64, 67
1, 1049788, Note_on_c, 0, 63, 66
1, 1049797, Control_c, 0, 64, 127
1, 1049797, Note_on_c, 0, 48, 46
1, 1049797, Note_on_c, 0, 66, 56
1, 1049806, Note_off_c, 0, 57, 64
1, 1049812, Note_on_c, 0, 47, 34
1, 1049814, Note_off_c, 0, 69, 57
1, 1049830, Note_off_c, 0, 66, 58
1, 1049841, Note_off_c, 0, 51, 52
1, 1049847, Note_off_c, 0, 47, 51
1, 1049860, Note_off_c, 0, 63, 36
1, 1049893, Note_off_c, 0, 48, 57
1, 1049900, Control_c, 0, 64, 109
1, 1049915, Control_c, 0, 64, 66
1, 1049930, Control_c, 0, 64, 0
1, 1049952, Note_on_c, 0, 68, 82
1, 1049957, Note_on_c, 0, 50, 74
1, 1049957, Note_on_c, 0, 53, 79
1, 1049959, Control_c, 0, 64, 63
1, 1049963, Note_on_c, 0, 63, 69
1, 1049974, Control_c, 0, 64, 101
1, 1049989, Control_c, 0, 64, 127
1, 1050023, Note_off_c, 0, 53, 58
1, 1050025, Note_off_c, 0, 50, 60
1, 1050026, Note_off_c, 0, 68, 58
1, 1050063, Control_c, 0, 64, 105
1, 1050073, Note_off_c, 0, 63, 33
1, 1050077, Control_c, 0, 64, 64
1, 1050092, Control_c, 0, 64, 0
1, 1050122, Control_c, 0, 64, 65
1, 1050131, Note_on_c, 0, 55, 76
1, 1050131, Note_on_c, 0, 51, 86
1, 1050135, Note_on_c, 0, 67, 82
1, 1050137, Control_c, 0, 64, 107
1, 1050143, Note_on_c, 0, 58, 71
1, 1050152, Control_c, 0, 64, 127
1, 1050154, Note_off_c, 0, 55, 68
1, 1050155, Note_off_c, 0, 51, 74
1, 1050181, Note_off_c, 0, 58, 62
1, 1050212, Note_on_c, 0, 63, 2
1, 1050248, Control_c, 0, 64, 86
1, 1050251, Note_off_c, 0, 67, 49
1, 1050261, Note_off_c, 0, 63, 48
1, 1050263, Control_c, 0, 64, 0
1, 1050293, Control_c, 0, 64, 63
1, 1050309, Control_c, 0, 64, 88
1, 1050324, Control_c, 0, 64, 127
1, 1050336, Note_on_c, 0, 32, 86
1, 1050338, Note_on_c, 0, 44, 85
1, 1050345, Note_on_c, 0, 65, 82
1, 1050346, Note_on_c, 0, 63, 77
1, 1050361, Note_off_c, 0, 32, 65
1, 1050361, Note_off_c, 0, 44, 66
1, 1050410, Note_off_c, 0, 63, 60
1, 1050413, Note_off_c, 0, 65, 64
1, 1050485, Note_on_c, 0, 48, 92
1, 1050485, Note_on_c, 0, 65, 83
1, 1050492, Note_on_c, 0, 63, 80
1, 1050527, Note_off_c, 0, 63, 57
1, 1050530, Note_off_c, 0, 65, 65
1, 1050585, Note_on_c, 0, 53, 94
1, 1050593, Note_on_c, 0, 65, 88
1, 1050599, Note_on_c, 0, 63, 87
1, 1050625, Note_off_c, 0, 63, 61
1, 1050630, Note_off_c, 0, 65, 68
1, 1050681, Note_on_c, 0, 56, 101
1, 1050689, Note_on_c, 0, 63, 81
1, 1050691, Note_on_c, 0, 65, 87
1, 1050702, Note_off_c, 0, 48, 59
1, 1050711, Note_off_c, 0, 53, 66
1, 1050715, Note_off_c, 0, 63, 64
1, 1050744, Note_off_c, 0, 65, 65
1, 1050753, Note_off_c, 0, 56, 68
1, 1050754, Control_c, 0, 64, 91
1, 1050769, Control_c, 0, 64, 37
1, 1050783, Control_c, 0, 64, 0
1, 1050790, Note_on_c, 0, 59, 95
1, 1050798, Note_on_c, 0, 47, 90
1, 1050801, Note_on_c, 0, 64, 91
1, 1050804, Note_on_c, 0, 62, 74
1, 1050813, Control_c, 0, 64, 51
1, 1050827, Control_c, 0, 64, 73
1, 1050831, Note_off_c, 0, 62, 65
1, 1050834, Note_off_c, 0, 64, 64
1, 1050837, Note_off_c, 0, 59, 63
1, 1050842, Control_c, 0, 64, 103
1, 1050852, Note_off_c, 0, 47, 64
1, 1050857, Control_c, 0, 64, 127
1, 1050885, Note_on_c, 0, 64, 82
1, 1050887, Note_on_c, 0, 65, 77
1, 1050935, Note_off_c, 0, 64, 66
1, 1050938, Note_off_c, 0, 65, 60
1, 1050981, Note_on_c, 0, 44, 90
1, 1050983, Note_on_c, 0, 56, 90
1, 1050990, Note_on_c, 0, 74, 90
1, 1050993, Note_on_c, 0, 71, 83
1, 1051006, Note_off_c, 0, 56, 70
1, 1051013, Note_off_c, 0, 44, 67
1, 1051015, Note_off_c, 0, 71, 69
1, 1051034, Note_off_c, 0, 74, 62
1, 1051071, Note_on_c, 0, 74, 76
1, 1051088, Note_on_c, 0, 71, 82
1, 1051104, Note_on_c, 0, 70, 52
1, 1051126, Note_off_c, 0, 70, 37
1, 1051136, Note_off_c, 0, 71, 62
1, 1051153, Note_off_c, 0, 74, 53
1, 1051180, Note_on_c, 0, 52, 96
1, 1051184, Note_on_c, 0, 40, 89
1, 1051185, Note_on_c, 0, 64, 86
1, 1051196, Note_on_c, 0, 62, 73
1, 1051199, Note_off_c, 0, 52, 71
1, 1051207, Note_off_c, 0, 40, 66
1, 1051211, Note_off_c, 0, 64, 63
1, 1051222, Note_off_c, 0, 62, 61
1, 1051278, Note_on_c, 0, 64, 90
1, 1051281, Note_on_c, 0, 62, 57
1, 1051310, Note_off_c, 0, 62, 59
1, 1051318, Note_off_c, 0, 64, 65
1, 1051387, Note_on_c, 0, 71, 83
1, 1051389, Note_on_c, 0, 47, 99
1, 1051391, Note_on_c, 0, 74, 84
1, 1051393, Note_on_c, 0, 35, 87
1, 1051406, Note_off_c, 0, 47, 75
1, 1051418, Note_off_c, 0, 35, 67
1, 1051443, Note_off_c, 0, 71, 54
1, 1051484, Note_on_c, 0, 71, 52
1, 1051556, Note_off_c, 0, 74, 53
1, 1051588, Note_off_c, 0, 71, 60
1, 1051719, Note_on_c, 0, 65, 62
1, 1051721, Note_on_c, 0, 33, 93
1, 1051722, Note_on_c, 0, 45, 97
1, 1051725, Note_on_c, 0, 63, 74
1, 1051746, Control_c, 0, 64, 96
1, 1051761, Control_c, 0, 64, 65
1, 1051776, Control_c, 0, 64, 0
1, 1051835, Control_c, 0, 64, 56
1, 1051849, Control_c, 0, 64, 77
1, 1051864, Control_c, 0, 64, 127
1, 1051878, Note_off_c, 0, 33, 61
1, 1051925, Note_off_c, 0, 45, 65
1, 1051939, Note_off_c, 0, 63, 56
1, 1051945, Note_off_c, 0, 65, 61
1, 1052019, Note_on_c, 0, 65, 76
1, 1052020, Note_on_c, 0, 63, 76
1, 1052024, Note_on_c, 0, 48, 85
1, 1052071, Note_off_c, 0, 63, 54
1, 1052097, Note_off_c, 0, 65, 61
1, 1052153, Note_on_c, 0, 53, 91
1, 1052159, Note_on_c, 0, 65, 81
1, 1052167, Note_on_c, 0, 63, 77
1, 1052195, Note_off_c, 0, 63, 65
1, 1052208, Note_off_c, 0, 65, 63
1, 1052255, Note_on_c, 0, 57, 90
1, 1052261, Note_on_c, 0, 65, 84
1, 1052265, Note_on_c, 0, 63, 82
1, 1052284, Note_off_c, 0, 48, 57
1, 1052376, Note_on_c, 0, 60, 93
1, 1052381, Note_on_c, 0, 48, 81
1, 1052384, Note_on_c, 0, 72, 83
1, 1052385, Note_on_c, 0, 75, 88
1, 1052396, Note_off_c, 0, 63, 0
1, 1052396, Note_on_c, 0, 63, 10
1, 1052414, Note_off_c, 0, 53, 63
1, 1052439, Note_off_c, 0, 57, 53
1, 1052440, Note_off_c, 0, 63, 51
1, 1052446, Note_off_c, 0, 60, 65
1, 1052447, Note_off_c, 0, 65, 63
1, 1052449, Note_off_c, 0, 72, 62
1, 1052452, Note_off_c, 0, 75, 61
1, 1052478, Note_off_c, 0, 48, 61
1, 1052489, Poly_aftertouch_c, 0, 75, 0
1, 1052497, Note_on_c, 0, 75, 74
1, 1052503, Note_on_c, 0, 72, 78
1, 1052579, Note_off_c, 0, 75, 63
1, 1052610, Note_on_c, 0, 65, 92
1, 1052619, Note_on_c, 0, 57, 78
1, 1052620, Note_on_c, 0, 45, 80
1, 1052620, Note_on_c, 0, 63, 78
1, 1052642, Note_off_c, 0, 57, 67
1, 1052650, Note_off_c, 0, 45, 67
1, 1052669, Note_off_c, 0, 63, 57
1, 1052682, Note_off_c, 0, 65, 61
1, 1052684, Note_off_c, 0, 72, 34
1, 1052733, Note_on_c, 0, 65, 80
1, 1052736, Note_on_c, 0, 63, 77
1, 1052748, Control_c, 0, 67, 8
1, 1052763, Control_c, 0, 67, 9
1, 1052777, Control_c, 0, 67, 10
1, 1052792, Control_c, 0, 67, 12
1, 1052807, Control_c, 0, 67, 13
1, 1052822, Control_c, 0, 67, 15
1, 1052837, Control_c, 0, 67, 16
1, 1052851, Control_c, 0, 67, 17
1, 1052853, Note_on_c, 0, 72, 81
1, 1052855, Note_on_c, 0, 41, 78
1, 1052855, Note_on_c, 0, 53, 76
1, 1052859, Note_on_c, 0, 75, 79
1, 1052866, Control_c, 0, 67, 19
1, 1052880, Note_off_c, 0, 53, 71
1, 1052881, Note_off_c, 0, 41, 64
1, 1052881, Control_c, 0, 67, 21
1, 1052895, Control_c, 0, 67, 23
1, 1052910, Control_c, 0, 67, 25
1, 1052917, Note_off_c, 0, 75, 60
1, 1052925, Control_c, 0, 67, 26
1, 1052927, Note_off_c, 0, 72, 59
1, 1052940, Control_c, 0, 67, 27
1, 1052955, Control_c, 0, 67, 28
1, 1052969, Control_c, 0, 67, 28
1, 1052980, Note_on_c, 0, 75, 77
1, 1052983, Note_on_c, 0, 72, 67
1, 1052984, Control_c, 0, 67, 30
1, 1052999, Control_c, 0, 67, 32
1, 1053014, Control_c, 0, 67, 34
1, 1053022, Note_off_c, 0, 65, 59
1, 1053023, Note_off_c, 0, 63, 59
1, 1053028, Control_c, 0, 67, 37
1, 1053043, Control_c, 0, 67, 40
1, 1053058, Control_c, 0, 67, 42
1, 1053073, Control_c, 0, 67, 44
1, 1053088, Control_c, 0, 67, 45
1, 1053092, Note_on_c, 0, 36, 84
1, 1053093, Note_on_c, 0, 48, 82
1, 1053103, Control_c, 0, 67, 46
1, 1053113, Note_on_c, 0, 65, 91
1, 1053115, Note_off_c, 0, 48, 66
1, 1053118, Control_c, 0, 67, 46
1, 1053119, Note_off_c, 0, 36, 66
1, 1053120, Note_on_c, 0, 63, 78
1, 1053189, Note_off_c, 0, 63, 56
1, 1053197, Note_off_c, 0, 75, 59
1, 1053205, Note_off_c, 0, 65, 60
1, 1053214, Control_c, 0, 67, 47
1, 1053228, Control_c, 0, 67, 47
1, 1053238, Poly_aftertouch_c, 0, 48, 127
1, 1053243, Control_c, 0, 67, 49
1, 1053248, Note_on_c, 0, 65, 72
1, 1053257, Note_on_c, 0, 63, 68
1, 1053258, Control_c, 0, 67, 51
1, 1053260, Poly_aftertouch_c, 0, 48, 0
1, 1053268, Note_off_c, 0, 72, 49
1, 1053274, Control_c, 0, 67, 56
1, 1053289, Control_c, 0, 67, 60
1, 1053303, Control_c, 0, 67, 63
1, 1053318, Control_c, 0, 67, 65
1, 1053332, Note_off_c, 0, 65, 55
1, 1053333, Control_c, 0, 67, 65
1, 1053357, Note_off_c, 0, 63, 57
1, 1053377, Control_c, 0, 67, 65
1, 1053392, Control_c, 0, 67, 64
1, 1053407, Control_c, 0, 67, 64
1, 1053436, Control_c, 0, 67, 63
1, 1053451, Control_c, 0, 64, 98
1, 1053466, Control_c, 0, 64, 65
1, 1053477, Note_on_c, 0, 65, 80
1, 1053480, Note_on_c, 0, 34, 81
1, 1053481, Note_on_c, 0, 63, 71
1, 1053481, Control_c, 0, 64, 0
1, 1053481, Control_c, 0, 67, 64
1, 1053526, Control_c, 0, 64, 61
1, 1053541, Control_c, 0, 64, 71
1, 1053541, Control_c, 0, 67, 62
1, 1053556, Control_c, 0, 64, 88
1, 1053556, Control_c, 0, 67, 61
1, 1053571, Control_c, 0, 64, 127
1, 1053571, Control_c, 0, 67, 60
1, 1053574, Note_off_c, 0, 34, 60
1, 1053586, Control_c, 0, 67, 59
1, 1053600, Control_c, 0, 67, 57
1, 1053608, Note_off_c, 0, 63, 59
1, 1053615, Control_c, 0, 67, 56
1, 1053618, Note_off_c, 0, 65, 63
1, 1053630, Control_c, 0, 67, 54
1, 1053645, Control_c, 0, 67, 52
1, 1053660, Control_c, 0, 67, 50
1, 1053675, Control_c, 0, 67, 48
1, 1053690, Control_c, 0, 67, 46
1, 1053705, Note_on_c, 0, 63, 75
1, 1053705, Note_on_c, 0, 65, 76
1, 1053705, Control_c, 0, 67, 44
1, 1053707, Note_on_c, 0, 55, 70
1, 1053719, Control_c, 0, 67, 42
1, 1053734, Note_off_c, 0, 63, 60
1, 1053734, Control_c, 0, 67, 39
1, 1053749, Control_c, 0, 67, 36
1, 1053756, Note_off_c, 0, 65, 63
1, 1053764, Control_c, 0, 67, 34
1, 1053779, Control_c, 0, 67, 33
1, 1053784, Note_off_c, 0, 55, 57
1, 1053793, Control_c, 0, 67, 32
1, 1053808, Control_c, 0, 67, 32
1, 1053819, Note_on_c, 0, 56, 72
1, 1053824, Note_on_c, 0, 65, 77
1, 1053837, Note_on_c, 0, 63, 68
1, 1053875, Note_off_c, 0, 63, 60
1, 1053885, Note_off_c, 0, 65, 60
1, 1053940, Note_on_c, 0, 58, 80
1, 1053940, Note_on_c, 0, 67, 82
1, 1053950, Note_off_c, 0, 56, 59
1, 1053956, Note_on_c, 0, 63, 72
1, 1053964, Control_c, 0, 67, 31
1, 1053987, Note_off_c, 0, 63, 64
1, 1053991, Note_off_c, 0, 67, 64
1, 1053994, Control_c, 0, 67, 31
1, 1054038, Control_c, 0, 67, 31
1, 1054043, Note_on_c, 0, 68, 92
1, 1054044, Note_off_c, 0, 58, 59
1, 1054052, Control_c, 0, 67, 32
1, 1054056, Note_on_c, 0, 60, 77
1, 1054067, Control_c, 0, 67, 32
1, 1054082, Control_c, 0, 67, 33
1, 1054097, Control_c, 0, 67, 34
1, 1054112, Control_c, 0, 67, 35
1, 1054113, Note_off_c, 0, 60, 66
1, 1054126, Control_c, 0, 67, 35
1, 1054135, Note_on_c, 0, 65, 83
1, 1054136, Note_on_c, 0, 70, 87
1, 1054141, Control_c, 0, 67, 36
1, 1054148, Note_on_c, 0, 62, 76
1, 1054156, Control_c, 0, 67, 37
1, 1054166, Note_off_c, 0, 68, 59
1, 1054170, Control_c, 0, 67, 38
1, 1054179, Note_off_c, 0, 65, 66
1, 1054184, Note_off_c, 0, 70, 64
1, 1054185, Control_c, 0, 67, 39
1, 1054200, Control_c, 0, 67, 40
1, 1054241, Note_on_c, 0, 72, 89
1, 1054244, Note_off_c, 0, 62, 45
1, 1054245, Control_c, 0, 64, 100
1, 1054246, Note_on_c, 0, 67, 90
1, 1054252, Note_on_c, 0, 63, 79
1, 1054259, Control_c, 0, 64, 69
1, 1054274, Control_c, 0, 64, 0
1, 1054320, Control_c, 0, 67, 40
1, 1054324, Note_off_c, 0, 63, 62
1, 1054327, Note_off_c, 0, 67, 58
1, 1054349, Control_c, 0, 67, 39
1, 1054350, Note_on_c, 0, 62, 73
1, 1054352, Note_on_c, 0, 70, 80
1, 1054358, Note_on_c, 0, 65, 77
1, 1054364, Control_c, 0, 64, 63
1, 1054364, Control_c, 0, 67, 38
1, 1054379, Control_c, 0, 64, 73
1, 1054394, Control_c, 0, 64, 88
1, 1054394, Control_c, 0, 67, 37
1, 1054395, Note_off_c, 0, 72, 58
1, 1054409, Control_c, 0, 64, 127
1, 1054442, Note_on_c, 0, 68, 80
1, 1054444, Note_off_c, 0, 62, 53
1, 1054448, Note_on_c, 0, 60, 80
1, 1054453, Control_c, 0, 67, 38
1, 1054459, Note_off_c, 0, 65, 62
1, 1054464, Note_off_c, 0, 70, 63
1, 1054465, Note_on_c, 0, 63, 73
1, 1054498, Control_c, 0, 64, 92
1, 1054508, Note_off_c, 0, 68, 62
1, 1054513, Control_c, 0, 64, 74
1, 1054527, Control_c, 0, 64, 68
1, 1054529, Note_off_c, 0, 63, 61
1, 1054542, Control_c, 0, 64, 73
1, 1054548, Note_on_c, 0, 67, 75
1, 1054549, Note_on_c, 0, 58, 77
1, 1054553, Note_on_c, 0, 62, 71
1, 1054557, Control_c, 0, 64, 81
1, 1054572, Control_c, 0, 64, 87
1, 1054572, Control_c, 0, 67, 39
1, 1054587, Control_c, 0, 64, 84
1, 1054587, Control_c, 0, 67, 39
1, 1054595, Note_off_c, 0, 60, 34
1, 1054602, Control_c, 0, 64, 71
1, 1054602, Control_c, 0, 67, 40
1, 1054616, Control_c, 0, 64, 53
1, 1054631, Control_c, 0, 64, 0
1, 1054647, Note_off_c, 0, 62, 49
1, 1054649, Note_off_c, 0, 58, 63
1, 1054655, Note_on_c, 0, 65, 70
1, 1054660, Note_on_c, 0, 56, 76
1, 1054661, Control_c, 0, 67, 39
1, 1054662, Note_on_c, 0, 60, 59
1, 1054664, Note_off_c, 0, 67, 58
1, 1054697, Control_c, 0, 64, 35
1, 1054712, Control_c, 0, 64, 65
1, 1054727, Control_c, 0, 64, 75
1, 1054727, Control_c, 0, 67, 39
1, 1054730, Note_off_c, 0, 56, 63
1, 1054731, Note_off_c, 0, 60, 62
1, 1054742, Control_c, 0, 64, 89
1, 1054742, Control_c, 0, 67, 38
1, 1054750, Note_off_c, 0, 65, 60
1, 1054757, Control_c, 0, 64, 127
1, 1054764, Note_on_c, 0, 58, 74
1, 1054767, Note_on_c, 0, 62, 73
1, 1054768, Note_on_c, 0, 67, 76
1, 1054830, Control_c, 0, 64, 90
1, 1054845, Control_c, 0, 64, 65
1, 1054849, Note_off_c, 0, 58, 56
1, 1054860, Control_c, 0, 64, 0
1, 1054880, Note_on_c, 0, 53, 64
1, 1054885, Note_on_c, 0, 65, 66
1, 1054891, Note_off_c, 0, 62, 41
1, 1054892, Note_on_c, 0, 63, 67
1, 1054893, Note_off_c, 0, 67, 56
1, 1054900, Note_on_c, 0, 46, 55
1, 1054929, Note_off_c, 0, 65, 64
1, 1054933, Note_off_c, 0, 63, 58
1, 1054963, Control_c, 0, 64, 56
1, 1054978, Control_c, 0, 64, 70
1, 1054989, Note_off_c, 0, 53, 65
1, 1054992, Note_on_c, 0, 63, 70
1, 1054992, Control_c, 0, 64, 83
1, 1055001, Note_on_c, 0, 65, 71
1, 1055003, Note_off_c, 0, 46, 60
1, 1055007, Note_on_c, 0, 55, 65
1, 1055007, Control_c, 0, 64, 109
1, 1055007, Control_c, 0, 67, 37
1, 1055022, Control_c, 0, 64, 127
1, 1055022, Control_c, 0, 67, 37
1, 1055030, Note_off_c, 0, 63, 58
1, 1055034, Note_off_c, 0, 65, 62
1, 1055037, Control_c, 0, 67, 36
1, 1055052, Control_c, 0, 67, 35
1, 1055067, Control_c, 0, 67, 35
1, 1055082, Control_c, 0, 67, 34
1, 1055097, Control_c, 0, 67, 34
1, 1055109, Note_off_c, 0, 55, 60
1, 1055112, Note_on_c, 0, 56, 76
1, 1055112, Note_on_c, 0, 65, 76
1, 1055117, Note_on_c, 0, 63, 78
1, 1055127, Control_c, 0, 67, 33
1, 1055163, Note_off_c, 0, 63, 53
1, 1055169, Note_off_c, 0, 65, 60
1, 1055201, Control_c, 0, 67, 34
1, 1055204, Note_on_c, 0, 67, 83
1, 1055210, Note_on_c, 0, 58, 76
1, 1055212, Note_on_c, 0, 63, 58
1, 1055222, Note_off_c, 0, 56, 58
1, 1055231, Control_c, 0, 67, 34
1, 1055242, Note_off_c, 0, 63, 64
1, 1055254, Note_off_c, 0, 67, 63
1, 1055305, Control_c, 0, 67, 35
1, 1055306, Note_on_c, 0, 68, 93
1, 1055308, Note_on_c, 0, 63, 77
1, 1055316, Note_on_c, 0, 60, 78
1, 1055320, Control_c, 0, 67, 36
1, 1055323, Note_off_c, 0, 58, 61
1, 1055335, Control_c, 0, 67, 36
1, 1055343, Note_off_c, 0, 63, 54
1, 1055350, Control_c, 0, 67, 37
1, 1055364, Control_c, 0, 67, 38
1, 1055379, Control_c, 0, 67, 39
1, 1055385, Note_off_c, 0, 60, 66
1, 1055394, Control_c, 0, 67, 40
1, 1055405, Note_on_c, 0, 70, 88
1, 1055409, Control_c, 0, 67, 41
1, 1055413, Note_on_c, 0, 65, 83
1, 1055422, Note_on_c, 0, 62, 79
1, 1055431, Control_c, 0, 67, 42
1, 1055445, Note_off_c, 0, 68, 60
1, 1055446, Control_c, 0, 67, 42
1, 1055460, Control_c, 0, 67, 43
1, 1055472, Note_off_c, 0, 70, 64
1, 1055475, Control_c, 0, 67, 44
1, 1055480, Note_off_c, 0, 65, 63
1, 1055520, Note_on_c, 0, 72, 90
1, 1055535, Note_on_c, 0, 63, 83
1, 1055535, Control_c, 0, 67, 43
1, 1055538, Note_on_c, 0, 67, 84
1, 1055540, Note_off_c, 0, 62, 49
1, 1055565, Control_c, 0, 64, 101
1, 1055565, Control_c, 0, 67, 43
1, 1055579, Control_c, 0, 64, 70
1, 1055594, Control_c, 0, 64, 0
1, 1055609, Control_c, 0, 67, 42
1, 1055610, Note_off_c, 0, 63, 62
1, 1055622, Note_off_c, 0, 67, 59
1, 1055623, Control_c, 0, 64, 50
1, 1055623, Control_c, 0, 67, 41
1, 1055630, Note_on_c, 0, 70, 87
1, 1055637, Note_on_c, 0, 62, 75
1, 1055638, Control_c, 0, 64, 65
1, 1055638, Control_c, 0, 67, 40
1, 1055642, Note_on_c, 0, 65, 80
1, 1055653, Control_c, 0, 64, 74
1, 1055653, Control_c, 0, 67, 39
1, 1055667, Note_off_c, 0, 72, 55
1, 1055668, Control_c, 0, 64, 86
1, 1055668, Control_c, 0, 67, 38
1, 1055683, Control_c, 0, 64, 112
1, 1055683, Control_c, 0, 67, 38
1, 1055697, Control_c, 0, 64, 127
1, 1055697, Control_c, 0, 67, 37
1, 1055727, Control_c, 0, 67, 37
1, 1055737, Note_on_c, 0, 68, 85
1, 1055747, Note_on_c, 0, 60, 82
1, 1055755, Note_off_c, 0, 65, 61
1, 1055757, Control_c, 0, 67, 36
1, 1055758, Note_off_c, 0, 62, 61
1, 1055763, Note_on_c, 0, 63, 76
1, 1055765, Note_off_c, 0, 70, 64
1, 1055771, Control_c, 0, 64, 92
1, 1055786, Control_c, 0, 64, 70
1, 1055786, Control_c, 0, 67, 36
1, 1055801, Control_c, 0, 64, 63
1, 1055815, Control_c, 0, 64, 67
1, 1055815, Control_c, 0, 67, 35
1, 1055820, Note_off_c, 0, 68, 61
1, 1055830, Control_c, 0, 64, 74
1, 1055830, Control_c, 0, 67, 34
1, 1055845, Control_c, 0, 64, 82
1, 1055848, Note_off_c, 0, 63, 63
1, 1055852, Note_on_c, 0, 67, 83
1, 1055860, Note_on_c, 0, 62, 79
1, 1055860, Control_c, 0, 64, 92
1, 1055860, Control_c, 0, 67, 34
1, 1055861, Note_on_c, 0, 58, 83
1, 1055870, Note_off_c, 0, 60, 62
1, 1055875, Control_c, 0, 64, 103
1, 1055891, Control_c, 0, 64, 106
1, 1055891, Control_c, 0, 67, 33
1, 1055906, Control_c, 0, 64, 104
1, 1055920, Control_c, 0, 64, 91
1, 1055920, Control_c, 0, 67, 33
1, 1055935, Control_c, 0, 64, 75
1, 1055935, Control_c, 0, 67, 32
1, 1055950, Control_c, 0, 64, 47
1, 1055965, Control_c, 0, 64, 0
1, 1055965, Control_c, 0, 67, 31
1, 1055980, Control_c, 0, 67, 30
1, 1055991, Note_off_c, 0, 58, 62
1, 1055992, Note_on_c, 0, 65, 87
1, 1055994, Control_c, 0, 67, 28
1, 1056004, Note_on_c, 0, 56, 75
1, 1056009, Control_c, 0, 67, 24
1, 1056010, Note_off_c, 0, 62, 61
1, 1056011, Note_on_c, 0, 60, 73
1, 1056022, Note_off_c, 0, 67, 62
1, 1056024, Control_c, 0, 67, 19
1, 1056039, Control_c, 0, 67, 13
1, 1056054, Control_c, 0, 64, 61
1, 1056054, Control_c, 0, 67, 9
1, 1056069, Control_c, 0, 64, 73
1, 1056069, Control_c, 0, 67, 0
1, 1056084, Control_c, 0, 64, 87
1, 1056098, Control_c, 0, 64, 116
1, 1056104, Note_off_c, 0, 60, 58
1, 1056113, Control_c, 0, 64, 127
1, 1056119, Note_off_c, 0, 56, 63
1, 1056125, Note_on_c, 0, 62, 83
1, 1056127, Note_on_c, 0, 67, 95
1, 1056138, Note_on_c, 0, 58, 78
1, 1056143, Note_off_c, 0, 65, 64
1, 1056173, Note_off_c, 0, 58, 66
1, 1056410, Note_on_c, 0, 63, 80
1, 1056428, Note_on_c, 0, 39, 73
1, 1056446, Control_c, 0, 64, 109
1, 1056461, Control_c, 0, 64, 70
1, 1056474, Note_off_c, 0, 62, 53
1, 1056476, Control_c, 0, 64, 0
1, 1056511, Note_on_c, 0, 46, 74
1, 1056512, Note_off_c, 0, 67, 53
1, 1056531, Note_off_c, 0, 39, 60
1, 1056564, Control_c, 0, 64, 55
1, 1056579, Control_c, 0, 64, 71
1, 1056594, Control_c, 0, 64, 87
1, 1056596, Note_on_c, 0, 50, 77
1, 1056608, Note_off_c, 0, 46, 62
1, 1056609, Control_c, 0, 64, 127
1, 1056652, Note_off_c, 0, 50, 66
1, 1056653, Note_off_c, 0, 63, 63
1, 1056653, Control_c, 0, 67, 8
1, 1056659, Note_on_c, 0, 55, 81
1, 1056729, Control_c, 0, 67, 0
1, 1056757, Note_on_c, 0, 56, 85
1, 1056760, Note_off_c, 0, 55, 63
1, 1056824, Note_on_c, 0, 58, 81
1, 1056842, Note_off_c, 0, 56, 62
1, 1056900, Note_on_c, 0, 63, 77
1, 1056903, Note_on_c, 0, 59, 85
1, 1056922, Note_off_c, 0, 58, 59
1, 1056958, Control_c, 0, 64, 107
1, 1056973, Control_c, 0, 64, 81
1, 1056984, Note_on_c, 0, 66, 79
1, 1056988, Control_c, 0, 64, 62
1, 1057001, Note_off_c, 0, 63, 60
1, 1057002, Control_c, 0, 64, 0
1, 1057056, Note_on_c, 0, 69, 81
1, 1057068, Note_off_c, 0, 66, 62
1, 1057134, Note_on_c, 0, 66, 80
1, 1057137, Control_c, 0, 64, 58
1, 1057151, Control_c, 0, 64, 68
1, 1057166, Control_c, 0, 64, 76
1, 1057181, Control_c, 0, 64, 85
1, 1057192, Note_off_c, 0, 59, 55
1, 1057195, Control_c, 0, 64, 98
1, 1057210, Control_c, 0, 64, 127
1, 1057218, Note_on_c, 0, 63, 86
1, 1057234, Note_on_c, 0, 47, 66
1, 1057263, Note_off_c, 0, 66, 56
1, 1057267, Note_off_c, 0, 47, 65
1, 1057295, Note_on_c, 0, 75, 93
1, 1057314, Note_off_c, 0, 63, 63
1, 1057414, Note_off_c, 0, 75, 59
1, 1057511, Note_on_c, 0, 75, 84
1, 1057524, Note_on_c, 0, 39, 65
1, 1057532, Note_on_c, 0, 67, 65
1, 1057533, Note_on_c, 0, 63, 62
1, 1057567, Control_c, 0, 64, 87
1, 1057568, Note_off_c, 0, 69, 59
1, 1057582, Control_c, 0, 64, 63
1, 1057597, Control_c, 0, 64, 0
1, 1057616, Note_on_c, 0, 46, 64
1, 1057618, Note_off_c, 0, 39, 61
1, 1057678, Control_c, 0, 64, 59
1, 1057693, Control_c, 0, 64, 71
1, 1057699, Note_on_c, 0, 51, 72
1, 1057702, Note_off_c, 0, 46, 62
1, 1057708, Control_c, 0, 64, 82
1, 1057723, Control_c, 0, 64, 100
1, 1057735, Note_off_c, 0, 51, 65
1, 1057738, Control_c, 0, 64, 127
1, 1057765, Note_on_c, 0, 55, 73
1, 1057775, Note_off_c, 0, 63, 38
1, 1057826, Control_c, 0, 67, 8
1, 1057830, Note_on_c, 0, 56, 84
1, 1057842, Note_off_c, 0, 55, 59
1, 1057850, Note_off_c, 0, 67, 57
1, 1057886, Control_c, 0, 67, 8
1, 1057887, Note_on_c, 0, 58, 86
1, 1057915, Control_c, 0, 67, 9
1, 1057919, Note_off_c, 0, 56, 62
1, 1057945, Control_c, 0, 67, 9
1, 1057950, Note_on_c, 0, 63, 76
1, 1057974, Control_c, 0, 64, 112
1, 1057975, Note_on_c, 0, 59, 80
1, 1057983, Note_off_c, 0, 58, 60
1, 1057989, Control_c, 0, 64, 81
1, 1058000, Note_on_c, 0, 66, 71
1, 1058004, Control_c, 0, 64, 57
1, 1058004, Control_c, 0, 67, 9
1, 1058018, Control_c, 0, 64, 0
1, 1058018, Control_c, 0, 67, 8
1, 1058024, Note_off_c, 0, 63, 58
1, 1058033, Control_c, 0, 67, 0
1, 1058070, Note_on_c, 0, 69, 78
1, 1058074, Note_off_c, 0, 66, 64
1, 1058122, Control_c, 0, 64, 65
1, 1058137, Control_c, 0, 64, 77
1, 1058140, Note_on_c, 0, 66, 81
1, 1058151, Note_off_c, 0, 75, 56
1, 1058152, Control_c, 0, 64, 97
1, 1058167, Control_c, 0, 64, 127
1, 1058167, Note_off_c, 0, 69, 64
1, 1058188, Note_off_c, 0, 59, 60
1, 1058210, Note_on_c, 0, 63, 82
1, 1058214, Note_off_c, 0, 66, 64
1, 1058230, Note_on_c, 0, 47, 65
1, 1058260, Note_off_c, 0, 47, 66
1, 1058295, Note_on_c, 0, 75, 85
1, 1058310, Note_off_c, 0, 63, 60
1, 1058486, Control_c, 0, 64, 111
1, 1058488, Note_on_c, 0, 78, 89
1, 1058501, Control_c, 0, 64, 75
1, 1058501, Control_c, 0, 67, 9
1, 1058509, Note_on_c, 0, 40, 55
1, 1058514, Note_on_c, 0, 71, 61
1, 1058516, Control_c, 0, 64, 0
1, 1058516, Control_c, 0, 67, 11
1, 1058519, Note_on_c, 0, 66, 55
1, 1058531, Control_c, 0, 67, 13
1, 1058546, Control_c, 0, 67, 14
1, 1058561, Control_c, 0, 67, 15
1, 1058575, Note_off_c, 0, 75, 52
1, 1058576, Control_c, 0, 64, 64
1, 1058576, Control_c, 0, 67, 16
1, 1058590, Control_c, 0, 64, 76
1, 1058590, Control_c, 0, 67, 17
1, 1058605, Control_c, 0, 64, 100
1, 1058605, Control_c, 0, 67, 17
1, 1058615, Note_off_c, 0, 40, 61
1, 1058620, Control_c, 0, 64, 127
1, 1058633, Note_on_c, 0, 47, 63
1, 1058649, Control_c, 0, 67, 17
1, 1058653, Note_off_c, 0, 66, 59
1, 1058659, Note_off_c, 0, 78, 61
1, 1058664, Control_c, 0, 67, 16
1, 1058679, Control_c, 0, 67, 16
1, 1058694, Control_c, 0, 67, 15
1, 1058707, Note_off_c, 0, 47, 61
1, 1058709, Control_c, 0, 67, 13
1, 1058722, Note_on_c, 0, 49, 71
1, 1058723, Control_c, 0, 67, 12
1, 1058732, Note_on_c, 0, 76, 86
1, 1058738, Control_c, 0, 67, 11
1, 1058748, Note_on_c, 0, 64, 68
1, 1058753, Control_c, 0, 67, 10
1, 1058768, Control_c, 0, 67, 10
1, 1058771, Note_off_c, 0, 71, 62
1, 1058783, Control_c, 0, 67, 9
1, 1058797, Control_c, 0, 67, 9
1, 1058801, Note_on_c, 0, 51, 75
1, 1058803, Note_off_c, 0, 76, 62
1, 1058813, Note_off_c, 0, 49, 63
1, 1058823, Note_off_c, 0, 64, 60
1, 1058856, Note_off_c, 0, 51, 64
1, 1058868, Note_on_c, 0, 52, 75
1, 1058871, Control_c, 0, 67, 9
1, 1058886, Control_c, 0, 67, 10
1, 1058901, Control_c, 0, 67, 10
1, 1058915, Control_c, 0, 67, 11
1, 1058930, Control_c, 0, 67, 12
1, 1058937, Note_on_c, 0, 54, 82
1, 1058945, Control_c, 0, 67, 13
1, 1058946, Note_off_c, 0, 52, 62
1, 1058960, Control_c, 0, 67, 14
1, 1058975, Control_c, 0, 67, 15
1, 1058990, Control_c, 0, 67, 16
1, 1059005, Control_c, 0, 67, 17
1, 1059012, Note_on_c, 0, 56, 79
1, 1059020, Control_c, 0, 67, 18
1, 1059026, Note_off_c, 0, 54, 63
1, 1059033, Note_on_c, 0, 59, 72
1, 1059049, Control_c, 0, 67, 18
1, 1059064, Control_c, 0, 64, 98
1, 1059064, Control_c, 0, 67, 19
1, 1059079, Control_c, 0, 64, 73
1, 1059079, Control_c, 0, 67, 19
1, 1059094, Control_c, 0, 64, 0
1, 1059094, Control_c, 0, 67, 20
1, 1059104, Note_on_c, 0, 64, 81
1, 1059110, Note_off_c, 0, 59, 59
1, 1059124, Control_c, 0, 67, 19
1, 1059139, Control_c, 0, 67, 19
1, 1059176, Control_c, 0, 67, 18
1, 1059178, Note_off_c, 0, 64, 64
1, 1059178, Note_on_c, 0, 68, 81
1, 1059206, Control_c, 0, 67, 17
1, 1059220, Control_c, 0, 64, 64
1, 1059220, Control_c, 0, 67, 16
1, 1059235, Control_c, 0, 64, 75
1, 1059235, Control_c, 0, 67, 16
1, 1059248, Note_on_c, 0, 64, 78
1, 1059250, Control_c, 0, 64, 90
1, 1059250, Control_c, 0, 67, 15
1, 1059264, Control_c, 0, 64, 127
1, 1059264, Control_c, 0, 67, 14
1, 1059266, Note_off_c, 0, 56, 64
1, 1059276, Note_off_c, 0, 68, 62
1, 1059279, Control_c, 0, 67, 14
1, 1059294, Control_c, 0, 67, 13
1, 1059310, Note_on_c, 0, 47, 61
1, 1059320, Note_on_c, 0, 59, 79
1, 1059325, Note_off_c, 0, 64, 65
1, 1059348, Note_off_c, 0, 47, 65
1, 1059386, Note_on_c, 0, 71, 87
1, 1059401, Note_off_c, 0, 59, 62
1, 1059412, Control_c, 0, 67, 14
1, 1059431, Note_off_c, 0, 71, 62
1, 1059457, Control_c, 0, 67, 14
1, 1059471, Control_c, 0, 67, 15
1, 1059486, Control_c, 0, 64, 106
1, 1059491, Note_on_c, 0, 41, 62
1, 1059491, Note_on_c, 0, 71, 78
1, 1059501, Control_c, 0, 64, 73
1, 1059501, Control_c, 0, 67, 15
1, 1059508, Note_on_c, 0, 59, 61
1, 1059516, Control_c, 0, 64, 0
1, 1059516, Control_c, 0, 67, 16
1, 1059523, Note_on_c, 0, 68, 65
1, 1059530, Control_c, 0, 67, 16
1, 1059535, Note_on_c, 0, 62, 46
1, 1059545, Control_c, 0, 67, 17
1, 1059560, Control_c, 0, 67, 18
1, 1059565, Note_on_c, 0, 44, 67
1, 1059575, Control_c, 0, 67, 19
1, 1059583, Note_off_c, 0, 41, 59
1, 1059589, Control_c, 0, 67, 20
1, 1059604, Control_c, 0, 64, 61
1, 1059604, Control_c, 0, 67, 21
1, 1059619, Control_c, 0, 64, 70
1, 1059619, Control_c, 0, 67, 24
1, 1059634, Control_c, 0, 64, 78
1, 1059634, Control_c, 0, 67, 28
1, 1059638, Note_on_c, 0, 46, 72
1, 1059646, Note_off_c, 0, 44, 63
1, 1059646, Note_off_c, 0, 71, 61
1, 1059649, Control_c, 0, 64, 89
1, 1059649, Control_c, 0, 67, 33
1, 1059664, Control_c, 0, 64, 98
1, 1059664, Control_c, 0, 67, 38
1, 1059676, Note_off_c, 0, 59, 57
1, 1059678, Control_c, 0, 64, 100
1, 1059678, Control_c, 0, 67, 42
1, 1059693, Control_c, 0, 67, 46
1, 1059699, Note_off_c, 0, 46, 62
1, 1059708, Control_c, 0, 67, 48
1, 1059711, Note_on_c, 0, 48, 69
1, 1059723, Control_c, 0, 67, 51
1, 1059738, Control_c, 0, 67, 53
1, 1059753, Control_c, 0, 64, 98
1, 1059753, Control_c, 0, 67, 55
1, 1059768, Control_c, 0, 64, 93
1, 1059768, Control_c, 0, 67, 57
1, 1059783, Control_c, 0, 64, 84
1, 1059783, Control_c, 0, 67, 58
1, 1059797, Control_c, 0, 64, 75
1, 1059797, Control_c, 0, 67, 60
1, 1059801, Note_off_c, 0, 48, 61
1, 1059805, Note_on_c, 0, 50, 66
1, 1059812, Control_c, 0, 64, 66
1, 1059812, Control_c, 0, 67, 61
1, 1059821, Note_on_c, 0, 70, 72
1, 1059827, Control_c, 0, 64, 52
1, 1059827, Control_c, 0, 67, 62
1, 1059840, Note_off_c, 0, 68, 61
1, 1059841, Note_off_c, 0, 62, 55
1, 1059842, Control_c, 0, 64, 0
1, 1059842, Control_c, 0, 67, 63
1, 1059850, Note_on_c, 0, 58, 37
1, 1059857, Control_c, 0, 67, 65
1, 1059871, Control_c, 0, 67, 67
1, 1059876, Note_off_c, 0, 50, 64
1, 1059879, Note_on_c, 0, 51, 67
1, 1059880, Note_off_c, 0, 58, 52
1, 1059887, Control_c, 0, 67, 69
1, 1059902, Control_c, 0, 67, 71
1, 1059924, Control_c, 0, 67, 74
1, 1059939, Control_c, 0, 67, 77
1, 1059954, Control_c, 0, 67, 80
1, 1059968, Control_c, 0, 67, 81
1, 1059976, Note_on_c, 0, 58, 64
1, 1059977, Note_off_c, 0, 51, 64
1, 1059983, Control_c, 0, 67, 83
1, 1059998, Control_c, 0, 67, 84
1, 1060005, Note_on_c, 0, 53, 57
1, 1060013, Control_c, 0, 67, 84
1, 1060028, Control_c, 0, 67, 85
1, 1060057, Note_off_c, 0, 58, 62
1, 1060070, Note_on_c, 0, 62, 56
1, 1060102, Control_c, 0, 67, 85
1, 1060109, Note_off_c, 0, 70, 62
1, 1060117, Note_on_c, 0, 65, 71
1, 1060117, Note_off_c, 0, 62, 61
1, 1060132, Control_c, 0, 67, 86
1, 1060161, Control_c, 0, 67, 87
1, 1060176, Control_c, 0, 67, 88
1, 1060190, Note_on_c, 0, 62, 62
1, 1060191, Control_c, 0, 67, 90
1, 1060194, Note_off_c, 0, 65, 62
1, 1060206, Control_c, 0, 67, 92
1, 1060221, Control_c, 0, 67, 94
1, 1060236, Control_c, 0, 67, 96
1, 1060241, Note_off_c, 0, 53, 56
1, 1060251, Control_c, 0, 67, 98
1, 1060266, Control_c, 0, 67, 99
1, 1060270, Note_on_c, 0, 56, 62
1, 1060281, Note_on_c, 0, 46, 55
1, 1060281, Control_c, 0, 67, 100
1, 1060295, Control_c, 0, 67, 101
1, 1060340, Control_c, 0, 67, 101
1, 1060349, Note_on_c, 0, 66, 61
1, 1060349, Note_off_c, 0, 56, 64
1, 1060352, Note_off_c, 0, 62, 59
1, 1060380, Note_off_c, 0, 46, 46
1, 1060442, Note_off_c, 0, 66, 50
1, 1060458, Note_on_c, 0, 67, 58
1, 1060465, Note_on_c, 0, 39, 51
1, 1060471, Note_on_c, 0, 55, 39
1, 1060476, Note_on_c, 0, 63, 39
1, 1060527, Note_off_c, 0, 39, 60
1, 1060546, Control_c, 0, 64, 65
1, 1060552, Note_on_c, 0, 46, 52
1, 1060561, Control_c, 0, 64, 74
1, 1060576, Control_c, 0, 64, 85
1, 1060591, Control_c, 0, 64, 105
1, 1060603, Note_off_c, 0, 46, 62
1, 1060603, Note_off_c, 0, 55, 37
1, 1060606, Control_c, 0, 64, 127
1, 1060606, Control_c, 0, 67, 103
1, 1060620, Control_c, 0, 67, 105
1, 1060627, Note_on_c, 0, 51, 64
1, 1060635, Control_c, 0, 67, 111
1, 1060650, Control_c, 0, 67, 119
1, 1060660, Note_off_c, 0, 51, 66
1, 1060673, Control_c, 0, 67, 127
1, 1060677, Note_off_c, 0, 67, 61
1, 1060685, Note_off_c, 0, 63, 50
1, 1060692, Note_on_c, 0, 55, 63
1, 1060748, Control_c, 0, 64, 103
1, 1060763, Control_c, 0, 64, 80
1, 1060768, Note_off_c, 0, 55, 63
1, 1060772, Note_on_c, 0, 56, 60
1, 1060778, Control_c, 0, 64, 64
1, 1060792, Control_c, 0, 64, 0
1, 1060841, Note_off_c, 0, 56, 62
1, 1060842, Note_on_c, 0, 58, 62
1, 1060919, Note_off_c, 0, 58, 60
1, 1060939, Note_on_c, 0, 63, 52
1, 1060953, Note_on_c, 0, 59, 54
1, 1061005, Note_off_c, 0, 63, 55
1, 1061025, Note_on_c, 0, 66, 47
1, 1061088, Control_c, 0, 64, 58
1, 1061100, Note_off_c, 0, 66, 60
1, 1061103, Control_c, 0, 64, 68
1, 1061118, Note_on_c, 0, 69, 56
1, 1061118, Control_c, 0, 64, 79
1, 1061133, Control_c, 0, 64, 92
1, 1061148, Control_c, 0, 64, 114
1, 1061162, Control_c, 0, 64, 127
1, 1061219, Note_off_c, 0, 59, 35
1, 1061225, Note_on_c, 0, 66, 54
1, 1061316, Note_on_c, 0, 63, 49
1, 1061325, Note_on_c, 0, 47, 33
1, 1061340, Note_off_c, 0, 66, 37
1, 1061363, Note_off_c, 0, 47, 53
1, 1061378, Note_off_c, 0, 63, 53
1, 1061434, Note_on_c, 0, 75, 58
1, 1061527, Note_off_c, 0, 75, 54
1, 1061657, Note_on_c, 0, 75, 52
1, 1061667, Note_on_c, 0, 39, 44
1, 1061676, Note_on_c, 0, 63, 36
1, 1061689, Note_on_c, 0, 67, 45
1, 1061703, Control_c, 0, 64, 110
1, 1061717, Control_c, 0, 64, 82
1, 1061732, Control_c, 0, 64, 63
1, 1061747, Control_c, 0, 64, 0
1, 1061760, Note_off_c, 0, 69, 43
1, 1061794, Note_off_c, 0, 39, 54
1, 1061806, Control_c, 0, 64, 46
1, 1061817, Note_on_c, 0, 46, 43
1, 1061821, Control_c, 0, 64, 63
1, 1061836, Control_c, 0, 64, 70
1, 1061851, Control_c, 0, 64, 79
1, 1061865, Control_c, 0, 64, 92
1, 1061869, Note_off_c, 0, 46, 60
1, 1061880, Control_c, 0, 64, 113
1, 1061895, Control_c, 0, 64, 127
1, 1061900, Note_on_c, 0, 51, 58
1, 1061930, Note_off_c, 0, 51, 65
1, 1061971, Note_on_c, 0, 55, 55
1, 1062024, Note_off_c, 0, 63, 36
1, 1062033, Note_off_c, 0, 55, 59
1, 1062039, Note_on_c, 0, 56, 67
1, 1062111, Note_off_c, 0, 56, 60
1, 1062118, Note_on_c, 0, 58, 62
1, 1062123, Note_off_c, 0, 67, 38
1, 1062188, Note_off_c, 0, 58, 62
1, 1062210, Note_on_c, 0, 59, 64
1, 1062220, Note_on_c, 0, 63, 63
1, 1062243, Control_c, 0, 64, 104
1, 1062257, Control_c, 0, 64, 76
1, 1062272, Control_c, 0, 64, 55
1, 1062276, Note_off_c, 0, 63, 58
1, 1062284, Note_on_c, 0, 66, 68
1, 1062288, Control_c, 0, 64, 0
1, 1062347, Note_off_c, 0, 66, 61
1, 1062348, Control_c, 0, 64, 52
1, 1062358, Note_on_c, 0, 69, 69
1, 1062362, Control_c, 0, 64, 67
1, 1062377, Control_c, 0, 64, 77
1, 1062392, Control_c, 0, 64, 92
1, 1062406, Control_c, 0, 64, 118
1, 1062421, Control_c, 0, 64, 127
1, 1062426, Note_off_c, 0, 75, 44
1, 1062431, Note_on_c, 0, 66, 75
1, 1062436, Note_off_c, 0, 59, 55
1, 1062445, Note_off_c, 0, 69, 62
1, 1062481, Control_c, 0, 67, 126
1, 1062495, Control_c, 0, 67, 125
1, 1062496, Note_on_c, 0, 47, 40
1, 1062496, Note_off_c, 0, 66, 63
1, 1062499, Note_on_c, 0, 63, 74
1, 1062528, Note_off_c, 0, 47, 61
1, 1062540, Control_c, 0, 67, 126
1, 1062555, Control_c, 0, 67, 126
1, 1062570, Control_c, 0, 67, 127
1, 1062594, Note_on_c, 0, 75, 82
1, 1062600, Control_c, 0, 67, 127
1, 1062621, Note_off_c, 0, 63, 59
1, 1062780, Note_on_c, 0, 78, 79
1, 1062786, Note_on_c, 0, 40, 50
1, 1062806, Control_c, 0, 64, 96
1, 1062817, Note_on_c, 0, 71, 49
1, 1062821, Control_c, 0, 64, 66
1, 1062826, Note_on_c, 0, 66, 44
1, 1062836, Control_c, 0, 64, 0
1, 1062847, Note_off_c, 0, 75, 45
1, 1062895, Control_c, 0, 64, 58
1, 1062916, Note_off_c, 0, 40, 61
1, 1062918, Control_c, 0, 64, 71
1, 1062932, Control_c, 0, 64, 84
1, 1062940, Note_on_c, 0, 47, 54
1, 1062947, Control_c, 0, 64, 112
1, 1062962, Control_c, 0, 64, 127
1, 1062982, Note_off_c, 0, 66, 54
1, 1062997, Note_off_c, 0, 78, 61
1, 1063030, Note_off_c, 0, 47, 56
1, 1063059, Note_on_c, 0, 49, 58
1, 1063078, Note_on_c, 0, 76, 75
1, 1063092, Note_off_c, 0, 71, 57
1, 1063097, Note_on_c, 0, 64, 58
1, 1063148, Note_on_c, 0, 51, 66
1, 1063151, Note_off_c, 0, 49, 63
1, 1063158, Note_off_c, 0, 76, 58
1, 1063176, Note_off_c, 0, 64, 58
1, 1063208, Note_off_c, 0, 51, 64
1, 1063229, Note_on_c, 0, 52, 61
1, 1063296, Note_on_c, 0, 54, 72
1, 1063297, Note_off_c, 0, 52, 59
1, 1063363, Control_c, 0, 64, 112
1, 1063371, Note_on_c, 0, 56, 76
1, 1063378, Control_c, 0, 64, 81
1, 1063379, Note_on_c, 0, 59, 69
1, 1063388, Note_off_c, 0, 54, 62
1, 1063393, Control_c, 0, 64, 40
1, 1063408, Control_c, 0, 64, 0
1, 1063451, Note_on_c, 0, 64, 80
1, 1063458, Note_off_c, 0, 59, 59
1, 1063497, Control_c, 0, 64, 49
1, 1063509, Note_on_c, 0, 68, 77
1, 1063509, Note_off_c, 0, 64, 65
1, 1063512, Control_c, 0, 64, 67
1, 1063527, Control_c, 0, 64, 77
1, 1063542, Control_c, 0, 64, 91
1, 1063556, Control_c, 0, 64, 116
1, 1063571, Control_c, 0, 64, 127
1, 1063589, Note_on_c, 0, 64, 79
1, 1063613, Note_off_c, 0, 68, 61
1, 1063655, Note_off_c, 0, 56, 63
1, 1063664, Note_on_c, 0, 59, 80
1, 1063673, Note_off_c, 0, 64, 64
1, 1063673, Note_on_c, 0, 47, 63
1, 1063703, Note_off_c, 0, 47, 66
1, 1063732, Note_on_c, 0, 71, 84
1, 1063745, Note_off_c, 0, 59, 62
1, 1063757, Note_off_c, 0, 71, 62
1, 1063801, Control_c, 0, 64, 110
1, 1063816, Control_c, 0, 64, 81
1, 1063830, Control_c, 0, 64, 58
1, 1063837, Note_on_c, 0, 71, 82
1, 1063839, Note_on_c, 0, 41, 61
1, 1063842, Note_on_c, 0, 59, 71
1, 1063845, Control_c, 0, 64, 0
1, 1063868, Note_on_c, 0, 62, 52
1, 1063885, Note_on_c, 0, 68, 56
1, 1063921, Note_off_c, 0, 41, 60
1, 1063923, Note_on_c, 0, 44, 63
1, 1063950, Control_c, 0, 64, 64
1, 1063965, Control_c, 0, 64, 75
1, 1063979, Control_c, 0, 64, 88
1, 1063982, Note_off_c, 0, 71, 60
1, 1063993, Note_on_c, 0, 46, 68
1, 1063994, Control_c, 0, 64, 105
1, 1064003, Note_off_c, 0, 44, 62
1, 1064009, Control_c, 0, 64, 127
1, 1064051, Note_off_c, 0, 46, 61
1, 1064065, Note_on_c, 0, 48, 68
1, 1064142, Control_c, 0, 64, 119
1, 1064157, Control_c, 0, 64, 102
1, 1064167, Note_off_c, 0, 48, 55
1, 1064172, Control_c, 0, 64, 87
1, 1064177, Note_on_c, 0, 70, 74
1, 1064179, Note_on_c, 0, 50, 68
1, 1064186, Control_c, 0, 64, 71
1, 1064201, Control_c, 0, 64, 30
1, 1064203, Note_off_c, 0, 68, 59
1, 1064206, Note_off_c, 0, 59, 56
1, 1064216, Control_c, 0, 64, 0
1, 1064251, Note_off_c, 0, 62, 37
1, 1064253, Note_off_c, 0, 50, 64
1, 1064264, Note_on_c, 0, 51, 65
1, 1064341, Note_off_c, 0, 51, 63
1, 1064357, Note_on_c, 0, 53, 61
1, 1064358, Note_on_c, 0, 58, 64
1, 1064438, Note_off_c, 0, 58, 57
1, 1064445, Note_on_c, 0, 62, 51
1, 1064484, Note_off_c, 0, 62, 62
1, 1064492, Note_on_c, 0, 65, 70
1, 1064496, Note_off_c, 0, 70, 59
1, 1064567, Note_off_c, 0, 65, 63
1, 1064569, Note_on_c, 0, 62, 65
1, 1064599, Note_off_c, 0, 53, 59
1, 1064644, Note_on_c, 0, 56, 58
1, 1064652, Note_on_c, 0, 46, 63
1, 1064699, Note_off_c, 0, 46, 56
1, 1064701, Note_off_c, 0, 56, 58
1, 1064707, Note_on_c, 0, 66, 70
1, 1064712, Note_off_c, 0, 62, 61
1, 1064772, Note_off_c, 0, 66, 57
1, 1064800, Note_on_c, 0, 39, 63
1, 1064806, Note_on_c, 0, 63, 71
1, 1064814, Note_on_c, 0, 67, 75
1, 1064815, Note_on_c, 0, 55, 55
1, 1064817, Control_c, 0, 64, 67
1, 1064831, Note_off_c, 0, 39, 62
1, 1064832, Control_c, 0, 64, 78
1, 1064835, Note_off_c, 0, 63, 65
1, 1064841, Note_off_c, 0, 55, 58
1, 1064847, Control_c, 0, 64, 93
1, 1064862, Control_c, 0, 64, 127
1, 1064870, Note_off_c, 0, 67, 64
1, 1064974, Note_on_c, 0, 63, 75
1, 1064979, Note_on_c, 0, 51, 74
1, 1065002, Note_off_c, 0, 63, 64
1, 1065008, Note_off_c, 0, 51, 67
1, 1065068, Note_on_c, 0, 67, 65
1, 1065113, Control_c, 0, 64, 119
1, 1065128, Control_c, 0, 64, 93
1, 1065132, Note_off_c, 0, 67, 59
1, 1065137, Note_on_c, 0, 70, 73
1, 1065138, Note_on_c, 0, 62, 72
1, 1065142, Control_c, 0, 64, 77
1, 1065158, Note_on_c, 0, 50, 50
1, 1065165, Control_c, 0, 64, 64
1, 1065169, Note_off_c, 0, 62, 67
1, 1065180, Control_c, 0, 64, 0
1, 1065187, Note_off_c, 0, 50, 58
1, 1065223, Note_off_c, 0, 70, 60
1, 1065229, Note_on_c, 0, 65, 70
1, 1065288, Note_on_c, 0, 67, 75
1, 1065288, Note_off_c, 0, 65, 62
1, 1065292, Note_on_c, 0, 61, 74
1, 1065298, Note_on_c, 0, 49, 68
1, 1065315, Note_off_c, 0, 61, 66
1, 1065327, Note_off_c, 0, 49, 64
1, 1065357, Note_off_c, 0, 67, 56
1, 1065357, Note_on_c, 0, 61, 86
1, 1065367, Note_on_c, 0, 75, 78
1, 1065369, Note_on_c, 0, 49, 78
1, 1065384, Note_off_c, 0, 61, 66
1, 1065397, Note_off_c, 0, 49, 69
1, 1065447, Note_on_c, 0, 77, 78
1, 1065450, Note_off_c, 0, 75, 60
1, 1065450, Note_on_c, 0, 60, 83
1, 1065453, Note_on_c, 0, 48, 80
1, 1065470, Note_off_c, 0, 60, 71
1, 1065478, Note_off_c, 0, 48, 66
1, 1065533, Note_on_c, 0, 68, 61
1, 1065581, Note_off_c, 0, 68, 56
1, 1065605, Note_on_c, 0, 59, 75
1, 1065609, Note_on_c, 0, 47, 68
1, 1065620, Note_on_c, 0, 69, 73
1, 1065626, Note_off_c, 0, 59, 67
1, 1065634, Note_off_c, 0, 47, 67
1, 1065684, Note_on_c, 0, 75, 72
1, 1065708, Note_off_c, 0, 69, 59
1, 1065710, Note_off_c, 0, 77, 55
1, 1065760, Note_on_c, 0, 58, 75
1, 1065762, Note_on_c, 0, 46, 78
1, 1065767, Note_on_c, 0, 74, 77
1, 1065772, Control_c, 0, 67, 126
1, 1065783, Note_off_c, 0, 58, 69
1, 1065787, Note_off_c, 0, 46, 64
1, 1065787, Control_c, 0, 67, 123
1, 1065801, Note_off_c, 0, 75, 60
1, 1065802, Control_c, 0, 67, 118
1, 1065817, Control_c, 0, 67, 112
1, 1065831, Control_c, 0, 67, 105
1, 1065834, Note_on_c, 0, 70, 76
1, 1065846, Control_c, 0, 67, 96
1, 1065854, Note_off_c, 0, 74, 64
1, 1065861, Control_c, 0, 67, 86
1, 1065876, Control_c, 0, 67, 80
1, 1065888, Note_off_c, 0, 70, 65
1, 1065891, Control_c, 0, 67, 77
1, 1065894, Note_on_c, 0, 56, 85
1, 1065909, Note_on_c, 0, 44, 75
1, 1065911, Note_on_c, 0, 72, 76
1, 1065913, Control_c, 0, 67, 76
1, 1065923, Note_off_c, 0, 56, 72
1, 1065934, Note_off_c, 0, 44, 66
1, 1065957, Control_c, 0, 67, 77
1, 1065972, Control_c, 0, 67, 78
1, 1065978, Note_on_c, 0, 77, 73
1, 1065979, Note_on_c, 0, 56, 84
1, 1065987, Note_on_c, 0, 44, 79
1, 1065987, Control_c, 0, 67, 79
1, 1065999, Note_off_c, 0, 72, 59
1, 1066003, Control_c, 0, 67, 79
1, 1066007, Note_off_c, 0, 56, 68
1, 1066012, Note_off_c, 0, 44, 67
1, 1066018, Control_c, 0, 67, 80
1, 1066056, Note_off_c, 0, 77, 61
1, 1066058, Note_on_c, 0, 82, 94
1, 1066064, Note_on_c, 0, 43, 88
1, 1066064, Note_on_c, 0, 55, 85
1, 1066085, Note_off_c, 0, 55, 71
1, 1066092, Note_off_c, 0, 43, 68
1, 1066097, Note_on_c, 0, 44, 18
1, 1066098, Note_off_c, 0, 44, 127
1, 1066150, Note_on_c, 0, 73, 72
1, 1066151, Control_c, 0, 67, 79
1, 1066213, Note_off_c, 0, 73, 61
1, 1066226, Note_on_c, 0, 41, 75
1, 1066228, Note_on_c, 0, 53, 76
1, 1066231, Note_on_c, 0, 74, 77
1, 1066250, Note_off_c, 0, 41, 65
1, 1066251, Note_off_c, 0, 53, 69
1, 1066281, Note_on_c, 0, 80, 69
1, 1066302, Note_off_c, 0, 74, 61
1, 1066358, Note_off_c, 0, 82, 57
1, 1066359, Control_c, 0, 67, 80
1, 1066366, Note_on_c, 0, 79, 79
1, 1066374, Control_c, 0, 67, 80
1, 1066375, Note_on_c, 0, 39, 77
1, 1066377, Note_on_c, 0, 51, 73
1, 1066378, Note_off_c, 0, 80, 65
1, 1066388, Control_c, 0, 67, 81
1, 1066400, Note_off_c, 0, 51, 67
1, 1066403, Note_off_c, 0, 39, 63
1, 1066403, Control_c, 0, 67, 81
1, 1066437, Note_on_c, 0, 75, 73
1, 1066478, Control_c, 0, 67, 81
1, 1066493, Control_c, 0, 67, 80
1, 1066505, Note_off_c, 0, 79, 57
1, 1066518, Note_on_c, 0, 77, 81
1, 1066518, Note_off_c, 0, 75, 61
1, 1066529, Note_on_c, 0, 50, 76
1, 1066536, Note_on_c, 0, 38, 68
1, 1066554, Note_off_c, 0, 50, 68
1, 1066560, Note_off_c, 0, 38, 61
1, 1066574, Note_off_c, 0, 77, 54
1, 1066596, Control_c, 0, 67, 81
1, 1066606, Note_on_c, 0, 83, 78
1, 1066615, Note_on_c, 0, 82, 51
1, 1066663, Control_c, 0, 67, 81
1, 1066678, Control_c, 0, 67, 82
1, 1066693, Control_c, 0, 67, 83
1, 1066697, Note_on_c, 0, 84, 86
1, 1066701, Note_on_c, 0, 48, 77
1, 1066704, Note_on_c, 0, 36, 75
1, 1066707, Control_c, 0, 67, 84
1, 1066709, Note_off_c, 0, 82, 47
1, 1066710, Note_on_c, 0, 75, 77
1, 1066716, Note_off_c, 0, 83, 61
1, 1066722, Control_c, 0, 64, 65
1, 1066722, Control_c, 0, 67, 85
1, 1066723, Note_off_c, 0, 48, 67
1, 1066724, Note_off_c, 0, 84, 68
1, 1066728, Note_off_c, 0, 75, 70
1, 1066729, Note_off_c, 0, 36, 62
1, 1066737, Control_c, 0, 64, 79
1, 1066752, Control_c, 0, 64, 107
1, 1066752, Control_c, 0, 67, 85
1, 1066767, Control_c, 0, 64, 127
1, 1066796, Control_c, 0, 67, 84
1, 1066870, Control_c, 0, 67, 85
1, 1066874, Note_on_c, 0, 60, 79
1, 1066881, Note_on_c, 0, 48, 63
1, 1066898, Note_off_c, 0, 60, 69
1, 1066910, Note_off_c, 0, 48, 64
1, 1066929, Control_c, 0, 67, 84
1, 1066944, Control_c, 0, 67, 84
1, 1066960, Note_on_c, 0, 63, 65
1, 1067011, Note_on_c, 0, 67, 80
1, 1067017, Note_off_c, 0, 63, 62
1, 1067018, Control_c, 0, 64, 95
1, 1067029, Note_on_c, 0, 59, 80
1, 1067033, Control_c, 0, 64, 75
1, 1067035, Note_on_c, 0, 47, 74
1, 1067047, Control_c, 0, 64, 60
1, 1067050, Note_off_c, 0, 59, 68
1, 1067056, Note_off_c, 0, 47, 68
1, 1067062, Control_c, 0, 64, 0
1, 1067062, Control_c, 0, 67, 84
1, 1067116, Note_on_c, 0, 62, 69
1, 1067138, Control_c, 0, 67, 84
1, 1067152, Control_c, 0, 67, 83
1, 1067155, Note_off_c, 0, 62, 59
1, 1067167, Control_c, 0, 67, 83
1, 1067169, Note_on_c, 0, 58, 79
1, 1067182, Note_on_c, 0, 64, 76
1, 1067182, Control_c, 0, 67, 82
1, 1067184, Note_on_c, 0, 46, 61
1, 1067190, Note_off_c, 0, 58, 70
1, 1067208, Note_off_c, 0, 46, 57
1, 1067236, Note_off_c, 0, 64, 59
1, 1067241, Control_c, 0, 67, 82
1, 1067245, Note_on_c, 0, 58, 82
1, 1067251, Note_on_c, 0, 46, 72
1, 1067255, Note_on_c, 0, 72, 78
1, 1067263, Note_off_c, 0, 67, 60
1, 1067267, Note_off_c, 0, 58, 70
1, 1067271, Control_c, 0, 67, 82
1, 1067278, Note_off_c, 0, 46, 64
1, 1067301, Control_c, 0, 67, 83
1, 1067327, Note_on_c, 0, 57, 88
1, 1067329, Note_on_c, 0, 45, 80
1, 1067342, Note_on_c, 0, 74, 87
1, 1067346, Note_off_c, 0, 72, 64
1, 1067347, Note_off_c, 0, 57, 70
1, 1067356, Note_off_c, 0, 45, 68
1, 1067385, Note_on_c, 0, 46, 10
1, 1067386, Note_off_c, 0, 46, 127
1, 1067421, Note_on_c, 0, 65, 61
1, 1067456, Control_c, 0, 67, 84
1, 1067471, Control_c, 0, 67, 84
1, 1067485, Control_c, 0, 67, 85
1, 1067491, Note_on_c, 0, 56, 77
1, 1067494, Note_on_c, 0, 44, 79
1, 1067500, Control_c, 0, 67, 85
1, 1067508, Note_off_c, 0, 65, 59
1, 1067514, Note_off_c, 0, 56, 68
1, 1067516, Note_on_c, 0, 66, 72
1, 1067521, Note_off_c, 0, 44, 66
1, 1067578, Note_on_c, 0, 72, 74
1, 1067581, Note_off_c, 0, 66, 62
1, 1067590, Control_c, 0, 67, 85
1, 1067598, Note_off_c, 0, 74, 55
1, 1067604, Control_c, 0, 67, 84
1, 1067619, Control_c, 0, 67, 84
1, 1067634, Control_c, 0, 67, 83
1, 1067642, Note_on_c, 0, 55, 78
1, 1067643, Note_on_c, 0, 43, 80
1, 1067649, Control_c, 0, 67, 83
1, 1067658, Note_on_c, 0, 71, 82
1, 1067664, Control_c, 0, 67, 82
1, 1067666, Note_off_c, 0, 55, 69
1, 1067671, Note_off_c, 0, 43, 67
1, 1067682, Note_off_c, 0, 72, 62
1, 1067693, Control_c, 0, 67, 82
1, 1067708, Control_c, 0, 67, 81
1, 1067733, Note_on_c, 0, 67, 70
1, 1067737, Control_c, 0, 67, 81
1, 1067780, Note_on_c, 0, 41, 81
1, 1067781, Note_on_c, 0, 53, 79
1, 1067802, Note_off_c, 0, 53, 69
1, 1067803, Note_on_c, 0, 69, 80
1, 1067804, Note_off_c, 0, 41, 65
1, 1067808, Note_off_c, 0, 67, 54
1, 1067826, Control_c, 0, 67, 81
1, 1067846, Note_on_c, 0, 53, 85
1, 1067856, Control_c, 0, 67, 82
1, 1067870, Note_off_c, 0, 53, 71
1, 1067872, Note_off_c, 0, 69, 62
1, 1067872, Control_c, 0, 67, 82
1, 1067878, Note_off_c, 0, 71, 61
1, 1067879, Note_on_c, 0, 41, 36
1, 1067880, Note_off_c, 0, 41, 127
1, 1067880, Note_on_c, 0, 74, 85
1, 1067887, Control_c, 0, 67, 83
1, 1067901, Control_c, 0, 67, 84
1, 1067916, Control_c, 0, 67, 85
1, 1067931, Control_c, 0, 67, 86
1, 1067945, Control_c, 0, 67, 87
1, 1067946, Note_on_c, 0, 39, 86
1, 1067946, Note_on_c, 0, 51, 84
1, 1067959, Note_on_c, 0, 79, 90
1, 1067959, Note_off_c, 0, 74, 67
1, 1067960, Control_c, 0, 67, 88
1, 1067969, Note_off_c, 0, 51, 71
1, 1067975, Control_c, 0, 67, 89
1, 1067978, Note_off_c, 0, 39, 64
1, 1067990, Control_c, 0, 67, 90
1, 1068005, Control_c, 0, 67, 90
1, 1068031, Note_on_c, 0, 71, 76
1, 1068034, Control_c, 0, 67, 90
1, 1068049, Control_c, 0, 67, 89
1, 1068064, Control_c, 0, 67, 89
1, 1068079, Control_c, 0, 67, 88
1, 1068094, Control_c, 0, 67, 87
1, 1068108, Control_c, 0, 67, 87
1, 1068113, Note_on_c, 0, 50, 65
1, 1068114, Note_on_c, 0, 38, 68
1, 1068123, Control_c, 0, 67, 86
1, 1068136, Note_off_c, 0, 50, 63
1, 1068138, Note_off_c, 0, 38, 60
1, 1068138, Control_c, 0, 67, 85
1, 1068159, Note_off_c, 0, 71, 64
1, 1068160, Control_c, 0, 67, 85
1, 1068175, Control_c, 0, 67, 84
1, 1068178, Note_on_c, 0, 77, 81
1, 1068190, Control_c, 0, 67, 84
1, 1068212, Note_off_c, 0, 79, 61
1, 1068246, Note_on_c, 0, 75, 88
1, 1068268, Note_on_c, 0, 36, 76
1, 1068272, Note_on_c, 0, 48, 77
1, 1068277, Note_off_c, 0, 77, 61
1, 1068293, Note_off_c, 0, 36, 64
1, 1068298, Note_off_c, 0, 48, 64
1, 1068326, Note_on_c, 0, 72, 77
1, 1068338, Control_c, 0, 67, 84
1, 1068398, Control_c, 0, 67, 85
1, 1068410, Note_on_c, 0, 46, 83
1, 1068410, Note_on_c, 0, 34, 89
1, 1068418, Note_off_c, 0, 72, 64
1, 1068418, Note_on_c, 0, 73, 76
1, 1068431, Note_off_c, 0, 46, 66
1, 1068436, Note_off_c, 0, 34, 65
1, 1068475, Note_off_c, 0, 75, 63
1, 1068477, Note_on_c, 0, 79, 88
1, 1068481, Note_off_c, 0, 73, 62
1, 1068487, Control_c, 0, 67, 84
1, 1068531, Control_c, 0, 67, 85
1, 1068545, Control_c, 0, 67, 86
1, 1068560, Control_c, 0, 67, 87
1, 1068575, Control_c, 0, 67, 88
1, 1068583, Note_on_c, 0, 80, 94
1, 1068584, Note_on_c, 0, 44, 96
1, 1068586, Note_on_c, 0, 32, 90
1, 1068590, Control_c, 0, 67, 89
1, 1068595, Note_on_c, 0, 72, 84
1, 1068603, Note_off_c, 0, 79, 60
1, 1068605, Control_c, 0, 64, 27
1, 1068605, Control_c, 0, 67, 90
1, 1068606, Note_off_c, 0, 44, 69
1, 1068609, Note_off_c, 0, 32, 67
1, 1068617, Note_off_c, 0, 72, 66
1, 1068619, Control_c, 0, 64, 69
1, 1068621, Note_off_c, 0, 80, 67
1, 1068634, Control_c, 0, 64, 85
1, 1068649, Control_c, 0, 64, 127
1, 1068649, Control_c, 0, 67, 89
1, 1068711, Poly_aftertouch_c, 0, 44, 127
1, 1068724, Control_c, 0, 67, 90
1, 1068749, Poly_aftertouch_c, 0, 44, 0
1, 1068767, Poly_aftertouch_c, 0, 32, 0
1, 1068783, Control_c, 0, 67, 89
1, 1068798, Control_c, 0, 67, 88
1, 1068807, Note_on_c, 0, 56, 62
1, 1068813, Control_c, 0, 67, 86
1, 1068818, Note_on_c, 0, 45, 52
1, 1068828, Control_c, 0, 67, 85
1, 1068830, Note_off_c, 0, 56, 61
1, 1068842, Control_c, 0, 67, 84
1, 1068847, Note_off_c, 0, 45, 56
1, 1068857, Control_c, 0, 67, 84
1, 1068872, Note_on_c, 0, 60, 84
1, 1068887, Control_c, 0, 67, 83
1, 1068937, Note_off_c, 0, 60, 63
1, 1068939, Control_c, 0, 67, 82
1, 1068970, Note_on_c, 0, 63, 89
1, 1068972, Note_on_c, 0, 55, 98
1, 1068981, Note_on_c, 0, 43, 80
1, 1068991, Note_off_c, 0, 55, 72
1, 1069006, Note_off_c, 0, 43, 66
1, 1069076, Note_on_c, 0, 58, 77
1, 1069087, Control_c, 0, 67, 83
1, 1069102, Note_off_c, 0, 58, 64
1, 1069122, Note_off_c, 0, 63, 58
1, 1069133, Note_on_c, 0, 54, 88
1, 1069140, Note_on_c, 0, 42, 77
1, 1069145, Note_on_c, 0, 60, 79
1, 1069146, Control_c, 0, 67, 83
1, 1069153, Note_off_c, 0, 54, 72
1, 1069167, Note_off_c, 0, 42, 65
1, 1069176, Control_c, 0, 67, 84
1, 1069191, Control_c, 0, 67, 83
1, 1069208, Note_on_c, 0, 54, 87
1, 1069212, Note_on_c, 0, 42, 85
1, 1069220, Note_on_c, 0, 68, 80
1, 1069220, Control_c, 0, 67, 83
1, 1069232, Note_off_c, 0, 54, 71
1, 1069235, Control_c, 0, 64, 108
1, 1069242, Note_off_c, 0, 42, 64
1, 1069250, Control_c, 0, 64, 81
1, 1069250, Control_c, 0, 67, 83
1, 1069259, Note_off_c, 0, 60, 57
1, 1069265, Control_c, 0, 64, 61
1, 1069265, Control_c, 0, 67, 84
1, 1069280, Control_c, 0, 64, 0
1, 1069280, Control_c, 0, 67, 85
1, 1069292, Note_on_c, 0, 41, 87
1, 1069293, Note_on_c, 0, 70, 86
1, 1069294, Control_c, 0, 67, 85
1, 1069297, Note_on_c, 0, 53, 81
1, 1069316, Note_off_c, 0, 68, 60
1, 1069319, Note_on_c, 0, 52, 50
1, 1069322, Note_off_c, 0, 53, 69
1, 1069327, Note_off_c, 0, 41, 65
1, 1069351, Note_off_c, 0, 52, 35
1, 1069381, Note_on_c, 0, 61, 78
1, 1069435, Note_off_c, 0, 61, 62
1, 1069441, Note_on_c, 0, 52, 80
1, 1069446, Note_on_c, 0, 40, 77
1, 1069460, Note_on_c, 0, 62, 72
1, 1069469, Note_off_c, 0, 52, 66
1, 1069473, Control_c, 0, 67, 85
1, 1069475, Note_off_c, 0, 40, 66
1, 1069487, Note_on_c, 0, 41, 21
1, 1069488, Note_off_c, 0, 41, 127
1, 1069488, Control_c, 0, 67, 84
1, 1069503, Control_c, 0, 67, 84
1, 1069518, Control_c, 0, 67, 83
1, 1069525, Note_on_c, 0, 68, 76
1, 1069533, Control_c, 0, 67, 83
1, 1069547, Control_c, 0, 67, 82
1, 1069560, Note_off_c, 0, 62, 58
1, 1069562, Control_c, 0, 67, 82
1, 1069575, Note_off_c, 0, 70, 60
1, 1069577, Control_c, 0, 67, 81
1, 1069599, Note_on_c, 0, 51, 84
1, 1069600, Note_on_c, 0, 67, 80
1, 1069602, Note_on_c, 0, 39, 87
1, 1069606, Control_c, 0, 67, 81
1, 1069621, Control_c, 0, 67, 80
1, 1069622, Note_off_c, 0, 51, 72
1, 1069628, Note_off_c, 0, 39, 66
1, 1069636, Control_c, 0, 67, 80
1, 1069659, Note_off_c, 0, 68, 54
1, 1069659, Control_c, 0, 67, 78
1, 1069673, Control_c, 0, 67, 76
1, 1069675, Note_on_c, 0, 63, 79
1, 1069688, Control_c, 0, 67, 73
1, 1069694, Note_off_c, 0, 67, 63
1, 1069703, Control_c, 0, 67, 69
1, 1069718, Control_c, 0, 67, 65
1, 1069733, Control_c, 0, 67, 61
1, 1069736, Note_off_c, 0, 63, 63
1, 1069741, Note_on_c, 0, 65, 78
1, 1069747, Note_on_c, 0, 49, 88
1, 1069747, Control_c, 0, 67, 59
1, 1069757, Note_on_c, 0, 37, 67
1, 1069762, Control_c, 0, 67, 57
1, 1069769, Note_off_c, 0, 49, 68
1, 1069777, Control_c, 0, 67, 56
1, 1069783, Note_off_c, 0, 37, 62
1, 1069792, Control_c, 0, 67, 54
1, 1069806, Control_c, 0, 67, 52
1, 1069815, Note_on_c, 0, 49, 84
1, 1069820, Note_on_c, 0, 70, 80
1, 1069821, Control_c, 0, 67, 51
1, 1069833, Note_on_c, 0, 37, 69
1, 1069836, Control_c, 0, 67, 49
1, 1069839, Note_off_c, 0, 65, 63
1, 1069849, Note_off_c, 0, 49, 66
1, 1069851, Control_c, 0, 67, 48
1, 1069859, Note_off_c, 0, 37, 65
1, 1069866, Control_c, 0, 67, 46
1, 1069880, Control_c, 0, 67, 45
1, 1069888, Note_off_c, 0, 70, 63
1, 1069889, Note_on_c, 0, 75, 85
1, 1069895, Control_c, 0, 67, 44
1, 1069900, Note_on_c, 0, 48, 91
1, 1069900, Note_on_c, 0, 36, 84
1, 1069910, Control_c, 0, 67, 42
1, 1069921, Note_off_c, 0, 48, 70
1, 1069924, Control_c, 0, 67, 39
1, 1069928, Note_off_c, 0, 36, 66
1, 1069939, Control_c, 0, 67, 36
1, 1069954, Control_c, 0, 67, 33
1, 1069969, Control_c, 0, 67, 29
1, 1069977, Note_on_c, 0, 66, 66
1, 1069984, Control_c, 0, 67, 25
1, 1069998, Control_c, 0, 67, 23
1, 1070013, Control_c, 0, 67, 21
1, 1070025, Note_off_c, 0, 66, 60
1, 1070028, Control_c, 0, 67, 20
1, 1070043, Control_c, 0, 67, 19
1, 1070050, Note_on_c, 0, 67, 74
1, 1070052, Note_on_c, 0, 46, 87
1, 1070055, Note_on_c, 0, 34, 88
1, 1070058, Control_c, 0, 67, 17
1, 1070073, Control_c, 0, 67, 15
1, 1070073, Note_off_c, 0, 46, 66
1, 1070080, Note_off_c, 0, 34, 64
1, 1070088, Control_c, 0, 67, 11
1, 1070100, Note_on_c, 0, 73, 71
1, 1070103, Control_c, 0, 67, 0
1, 1070119, Note_off_c, 0, 67, 56
1, 1070179, Note_on_c, 0, 72, 77
1, 1070183, Note_off_c, 0, 75, 59
1, 1070201, Note_on_c, 0, 44, 90
1, 1070201, Note_on_c, 0, 32, 85
1, 1070211, Note_off_c, 0, 73, 61
1, 1070223, Note_off_c, 0, 44, 67
1, 1070223, Note_off_c, 0, 32, 66
1, 1070266, Note_on_c, 0, 68, 72
1, 1070296, Note_off_c, 0, 72, 56
1, 1070352, Note_on_c, 0, 70, 81
1, 1070353, Note_on_c, 0, 43, 86
1, 1070356, Note_on_c, 0, 31, 80
1, 1070360, Note_off_c, 0, 68, 61
1, 1070376, Note_off_c, 0, 43, 67
1, 1070383, Note_off_c, 0, 31, 61
1, 1070428, Note_on_c, 0, 43, 92
1, 1070431, Note_on_c, 0, 76, 82
1, 1070433, Note_off_c, 0, 70, 64
1, 1070438, Note_on_c, 0, 31, 86
1, 1070451, Note_off_c, 0, 43, 72
1, 1070466, Note_off_c, 0, 31, 58
1, 1070554, Note_on_c, 0, 41, 98
1, 1070557, Note_on_c, 0, 77, 83
1, 1070559, Note_on_c, 0, 29, 89
1, 1070577, Note_off_c, 0, 41, 70
1, 1070584, Note_off_c, 0, 76, 61
1, 1070584, Note_off_c, 0, 29, 70
1, 1070585, Control_c, 0, 64, 69
1, 1070600, Control_c, 0, 64, 98
1, 1070615, Control_c, 0, 64, 127
1, 1070655, Note_off_c, 0, 77, 62
1, 1070658, Note_on_c, 0, 68, 73
1, 1070740, Note_off_c, 0, 68, 57
1, 1070814, Note_on_c, 0, 79, 91
1, 1070827, Note_on_c, 0, 36, 81
1, 1070833, Poly_aftertouch_c, 0, 78, 0
1, 1070905, Note_on_c, 0, 80, 88
1, 1070938, Note_off_c, 0, 79, 58
1, 1070990, Note_off_c, 0, 36, 58
1, 1070992, Note_on_c, 0, 82, 87
1, 1070993, Note_on_c, 0, 48, 76
1, 1071019, Note_off_c, 0, 80, 63
1, 1071026, Note_off_c, 0, 48, 65
1, 1071065, Note_on_c, 0, 70, 71
1, 1071153, Note_on_c, 0, 80, 78
1, 1071161, Note_off_c, 0, 70, 62
1, 1071168, Note_on_c, 0, 48, 77
1, 1071191, Note_off_c, 0, 82, 59
1, 1071238, Note_on_c, 0, 79, 84
1, 1071296, Note_off_c, 0, 48, 61
1, 1071316, Note_on_c, 0, 60, 71
1, 1071325, Note_on_c, 0, 82, 89
1, 1071328, Note_off_c, 0, 80, 39
1, 1071341, Note_off_c, 0, 79, 59
1, 1071360, Note_off_c, 0, 60, 63
1, 1071392, Note_on_c, 0, 73, 63
1, 1071441, Note_off_c, 0, 73, 52
1, 1071451, Note_on_c, 0, 80, 80
1, 1071464, Note_on_c, 0, 72, 81
1, 1071483, Note_off_c, 0, 72, 72
1, 1071524, Note_off_c, 0, 82, 62
1, 1071525, Note_on_c, 0, 79, 83
1, 1071578, Note_off_c, 0, 80, 55
1, 1071598, Note_on_c, 0, 77, 87
1, 1071633, Note_off_c, 0, 79, 61
1, 1071682, Note_on_c, 0, 72, 75
1, 1071757, Note_on_c, 0, 79, 91
1, 1071761, Note_off_c, 0, 72, 61
1, 1071763, Note_on_c, 0, 78, 47
1, 1071769, Note_on_c, 0, 53, 65
1, 1071776, Note_on_c, 0, 55, 69
1, 1071793, Note_off_c, 0, 77, 61
1, 1071807, Note_off_c, 0, 78, 44
1, 1071808, Note_off_c, 0, 55, 59
1, 1071847, Note_on_c, 0, 80, 80
1, 1071867, Control_c, 0, 64, 86
1, 1071882, Control_c, 0, 64, 0
1, 1071925, Note_off_c, 0, 79, 47
1, 1071944, Note_on_c, 0, 50, 76
1, 1071951, Note_on_c, 0, 82, 90
1, 1071978, Note_off_c, 0, 80, 64
1, 1071979, Note_off_c, 0, 53, 58
1, 1071993, Control_c, 0, 64, 40
1, 1072008, Control_c, 0, 64, 71
1, 1072023, Control_c, 0, 64, 91
1, 1072033, Note_on_c, 0, 70, 76
1, 1072038, Control_c, 0, 64, 127
1, 1072062, Note_off_c, 0, 82, 62
1, 1072103, Note_on_c, 0, 58, 98
1, 1072109, Note_on_c, 0, 80, 80
1, 1072125, Note_off_c, 0, 70, 61
1, 1072197, Note_on_c, 0, 79, 73
1, 1072204, Note_off_c, 0, 50, 61
1, 1072219, Note_off_c, 0, 80, 61
1, 1072227, Note_on_c, 0, 78, 44
1, 1072243, Note_off_c, 0, 78, 41
1, 1072258, Note_on_c, 0, 82, 84
1, 1072266, Note_on_c, 0, 65, 92
1, 1072266, Note_off_c, 0, 58, 66
1, 1072285, Note_off_c, 0, 65, 73
1, 1072289, Note_off_c, 0, 79, 62
1, 1072329, Note_off_c, 0, 82, 64
1, 1072341, Note_on_c, 0, 68, 70
1, 1072423, Note_off_c, 0, 68, 51
1, 1072429, Note_on_c, 0, 80, 75
1, 1072429, Note_on_c, 0, 89, 107
1, 1072455, Note_off_c, 0, 89, 62
1, 1072524, Note_on_c, 0, 77, 79
1, 1072556, Note_off_c, 0, 80, 57
1, 1072599, Note_on_c, 0, 75, 84
1, 1072644, Note_off_c, 0, 77, 60
1, 1072670, Note_on_c, 0, 70, 80
1, 1072768, Note_on_c, 0, 77, 79
1, 1072777, Note_off_c, 0, 70, 61
1, 1072780, Note_on_c, 0, 51, 76
1, 1072833, Note_off_c, 0, 75, 52
1, 1072846, Note_on_c, 0, 79, 83
1, 1072891, Note_off_c, 0, 77, 57
1, 1072964, Note_on_c, 0, 80, 85
1, 1072980, Note_on_c, 0, 48, 75
1, 1072980, Control_c, 0, 64, 77
1, 1072994, Note_off_c, 0, 79, 62
1, 1072995, Control_c, 0, 64, 0
1, 1073005, Note_off_c, 0, 51, 56
1, 1073054, Note_on_c, 0, 68, 80
1, 1073069, Control_c, 0, 64, 37
1, 1073072, Note_off_c, 0, 80, 61
1, 1073084, Control_c, 0, 64, 65
1, 1073099, Control_c, 0, 64, 75
1, 1073113, Control_c, 0, 64, 89
1, 1073128, Control_c, 0, 64, 127
1, 1073146, Note_on_c, 0, 79, 83
1, 1073151, Note_on_c, 0, 56, 87
1, 1073161, Note_off_c, 0, 68, 59
1, 1073189, Note_on_c, 0, 55, 56
1, 1073206, Note_on_c, 0, 77, 77
1, 1073230, Note_off_c, 0, 79, 60
1, 1073242, Note_off_c, 0, 48, 61
1, 1073289, Note_off_c, 0, 55, 39
1, 1073299, Note_on_c, 0, 63, 83
1, 1073301, Note_on_c, 0, 80, 80
1, 1073304, Note_off_c, 0, 56, 65
1, 1073310, Note_off_c, 0, 77, 63
1, 1073321, Note_off_c, 0, 63, 70
1, 1073361, Note_off_c, 0, 80, 61
1, 1073373, Note_on_c, 0, 67, 76
1, 1073441, Note_off_c, 0, 67, 58
1, 1073467, Note_on_c, 0, 79, 79
1, 1073471, Note_on_c, 0, 87, 106
1, 1073484, Note_off_c, 0, 87, 78
1, 1073544, Note_on_c, 0, 75, 72
1, 1073546, Note_off_c, 0, 79, 60
1, 1073626, Note_on_c, 0, 74, 85
1, 1073652, Note_off_c, 0, 75, 60
1, 1073706, Note_on_c, 0, 68, 80
1, 1073788, Note_off_c, 0, 68, 59
1, 1073795, Note_on_c, 0, 75, 81
1, 1073808, Note_on_c, 0, 50, 70
1, 1073822, Note_off_c, 0, 74, 55
1, 1073885, Note_on_c, 0, 77, 76
1, 1073915, Note_off_c, 0, 75, 61
1, 1074021, Note_on_c, 0, 47, 68
1, 1074028, Note_on_c, 0, 79, 86
1, 1074039, Control_c, 0, 64, 84
1, 1074042, Note_off_c, 0, 50, 59
1, 1074054, Control_c, 0, 64, 33
1, 1074065, Note_off_c, 0, 77, 62
1, 1074069, Control_c, 0, 64, 0
1, 1074151, Note_on_c, 0, 67, 72
1, 1074151, Control_c, 0, 64, 63
1, 1074165, Control_c, 0, 64, 76
1, 1074180, Control_c, 0, 64, 97
1, 1074195, Control_c, 0, 64, 127
1, 1074226, Note_on_c, 0, 55, 68
1, 1074234, Note_on_c, 0, 77, 76
1, 1074249, Note_off_c, 0, 79, 49
1, 1074276, Note_off_c, 0, 47, 53
1, 1074308, Note_on_c, 0, 75, 86
1, 1074336, Note_off_c, 0, 77, 64
1, 1074336, Note_off_c, 0, 67, 59
1, 1074359, Note_off_c, 0, 55, 65
1, 1074378, Note_on_c, 0, 62, 75
1, 1074397, Note_on_c, 0, 79, 85
1, 1074402, Note_off_c, 0, 62, 67
1, 1074410, Note_off_c, 0, 75, 63
1, 1074467, Note_on_c, 0, 65, 75
1, 1074469, Note_off_c, 0, 79, 54
1, 1074539, Note_off_c, 0, 65, 60
1, 1074547, Note_on_c, 0, 88, 79
1, 1074550, Note_on_c, 0, 77, 74
1, 1074553, Note_on_c, 0, 86, 78
1, 1074568, Note_off_c, 0, 88, 70
1, 1074573, Note_off_c, 0, 86, 72
1, 1074626, Note_on_c, 0, 74, 84
1, 1074661, Note_off_c, 0, 77, 60
1, 1074700, Note_on_c, 0, 72, 85
1, 1074724, Note_off_c, 0, 74, 64
1, 1074776, Note_on_c, 0, 67, 79
1, 1074858, Note_on_c, 0, 48, 79
1, 1074860, Note_on_c, 0, 74, 92
1, 1074890, Note_off_c, 0, 67, 58
1, 1074908, Note_off_c, 0, 72, 55
1, 1074950, Note_on_c, 0, 75, 84
1, 1075017, Control_c, 0, 64, 82
1, 1075032, Note_off_c, 0, 74, 54
1, 1075032, Control_c, 0, 64, 0
1, 1075043, Note_on_c, 0, 45, 85
1, 1075054, Note_on_c, 0, 77, 87
1, 1075075, Note_off_c, 0, 48, 42
1, 1075089, Note_on_c, 0, 65, 69
1, 1075091, Note_off_c, 0, 75, 63
1, 1075107, Control_c, 0, 64, 58
1, 1075122, Control_c, 0, 64, 72
1, 1075136, Control_c, 0, 64, 95
1, 1075151, Control_c, 0, 64, 127
1, 1075208, Note_on_c, 0, 75, 87
1, 1075223, Note_on_c, 0, 53, 90
1, 1075255, Note_off_c, 0, 77, 58
1, 1075308, Note_on_c, 0, 72, 83
1, 1075321, Note_off_c, 0, 45, 58
1, 1075334, Note_off_c, 0, 65, 61
1, 1075355, Note_off_c, 0, 75, 51
1, 1075376, Note_on_c, 0, 60, 94
1, 1075376, Note_off_c, 0, 53, 68
1, 1075387, Note_on_c, 0, 77, 75
1, 1075393, Note_off_c, 0, 60, 75
1, 1075418, Note_off_c, 0, 72, 64
1, 1075446, Note_off_c, 0, 77, 61
1, 1075471, Note_on_c, 0, 63, 81
1, 1075581, Note_off_c, 0, 63, 47
1, 1075582, Note_on_c, 0, 84, 106
1, 1075582, Note_on_c, 0, 75, 79
1, 1075596, Note_off_c, 0, 84, 72
1, 1075683, Note_on_c, 0, 72, 79
1, 1075717, Note_off_c, 0, 75, 59
1, 1075825, Control_c, 0, 64, 109
1, 1075840, Control_c, 0, 64, 74
1, 1075844, Note_on_c, 0, 46, 86
1, 1075844, Note_on_c, 0, 70, 83
1, 1075855, Control_c, 0, 64, 0
1, 1075875, Note_off_c, 0, 72, 61
1, 1075901, Control_c, 0, 64, 65
1, 1075915, Control_c, 0, 64, 80
1, 1075927, Note_on_c, 0, 61, 71
1, 1075930, Control_c, 0, 64, 126
1, 1075945, Control_c, 0, 64, 127
1, 1075954, Note_on_c, 0, 63, 41
1, 1075976, Note_off_c, 0, 61, 60
1, 1075989, Note_off_c, 0, 63, 52
1, 1076025, Note_on_c, 0, 73, 86
1, 1076027, Note_on_c, 0, 58, 79
1, 1076032, Note_on_c, 0, 49, 76
1, 1076033, Note_on_c, 0, 53, 67
1, 1076041, Note_off_c, 0, 46, 60
1, 1076052, Note_off_c, 0, 70, 59
1, 1076056, Note_off_c, 0, 58, 62
1, 1076120, Note_on_c, 0, 75, 71
1, 1076130, Note_off_c, 0, 49, 57
1, 1076157, Note_off_c, 0, 73, 63
1, 1076171, Note_off_c, 0, 53, 39
1, 1076171, Note_off_c, 0, 75, 64
1, 1076200, Note_on_c, 0, 45, 95
1, 1076211, Control_c, 0, 64, 115
1, 1076226, Control_c, 0, 64, 71
1, 1076234, Note_on_c, 0, 75, 73
1, 1076240, Control_c, 0, 64, 58
1, 1076243, Note_on_c, 0, 76, 91
1, 1076255, Control_c, 0, 64, 70
1, 1076270, Control_c, 0, 64, 89
1, 1076285, Control_c, 0, 64, 127
1, 1076333, Poly_aftertouch_c, 0, 49, 0
1, 1076336, Note_off_c, 0, 76, 56
1, 1076342, Note_on_c, 0, 66, 69
1, 1076351, Note_off_c, 0, 75, 56
1, 1076365, Note_off_c, 0, 66, 66
1, 1076384, Note_off_c, 0, 45, 61
1, 1076400, Note_on_c, 0, 51, 82
1, 1076403, Note_on_c, 0, 59, 77
1, 1076405, Note_on_c, 0, 77, 80
1, 1076407, Note_on_c, 0, 54, 72
1, 1076434, Note_off_c, 0, 59, 60
1, 1076440, Note_off_c, 0, 54, 60
1, 1076456, Note_off_c, 0, 51, 62
1, 1076474, Note_off_c, 0, 77, 60
1, 1076487, Note_on_c, 0, 78, 90
1, 1076573, Note_on_c, 0, 44, 88
1, 1076574, Control_c, 0, 64, 78
1, 1076580, Note_on_c, 0, 80, 90
1, 1076586, Note_off_c, 0, 78, 65
1, 1076589, Control_c, 0, 64, 0
1, 1076634, Control_c, 0, 64, 66
1, 1076648, Control_c, 0, 64, 81
1, 1076664, Control_c, 0, 64, 127
1, 1076664, Note_on_c, 0, 71, 82
1, 1076688, Note_off_c, 0, 80, 63
1, 1076718, Note_off_c, 0, 44, 57
1, 1076724, Note_off_c, 0, 71, 63
1, 1076750, Note_on_c, 0, 59, 82
1, 1076753, Note_on_c, 0, 49, 75
1, 1076754, Note_on_c, 0, 53, 74
1, 1076762, Note_on_c, 0, 82, 95
1, 1076773, Note_off_c, 0, 59, 67
1, 1076850, Note_on_c, 0, 83, 97
1, 1076858, Note_off_c, 0, 49, 52
1, 1076858, Note_off_c, 0, 53, 52
1, 1076875, Note_on_c, 0, 43, 82
1, 1076875, Note_off_c, 0, 82, 62
1, 1077070, Note_on_c, 0, 82, 91
1, 1077078, Note_on_c, 0, 52, 68
1, 1077081, Note_on_c, 0, 58, 78
1, 1077081, Note_off_c, 0, 83, 60
1, 1077082, Note_on_c, 0, 49, 69
1, 1077108, Control_c, 0, 64, 81
1, 1077123, Control_c, 0, 64, 29
1, 1077145, Control_c, 0, 64, 0
1, 1077189, Control_c, 0, 64, 58
1, 1077204, Control_c, 0, 64, 71
1, 1077218, Note_on_c, 0, 73, 74
1, 1077219, Control_c, 0, 64, 90
1, 1077234, Control_c, 0, 64, 127
1, 1077305, Note_on_c, 0, 84, 75
1, 1077336, Note_off_c, 0, 58, 58
1, 1077349, Note_off_c, 0, 73, 57
1, 1077370, Note_off_c, 0, 82, 61
1, 1077373, Note_on_c, 0, 85, 82
1, 1077404, Note_off_c, 0, 84, 62
1, 1077437, Note_on_c, 0, 57, 67
1, 1077442, Note_on_c, 0, 81, 81
1, 1077482, Note_off_c, 0, 85, 62
1, 1077489, Note_off_c, 0, 43, 38
1, 1077519, Note_on_c, 0, 73, 80
1, 1077553, Note_off_c, 0, 57, 59
1, 1077558, Note_on_c, 0, 84, 72
1, 1077561, Note_off_c, 0, 81, 55
1, 1077573, Note_off_c, 0, 49, 55
1, 1077609, Note_off_c, 0, 52, 53
1, 1077634, Note_off_c, 0, 73, 59
1, 1077637, Note_on_c, 0, 85, 80
1, 1077675, Note_off_c, 0, 84, 61
1, 1077697, Note_on_c, 0, 44, 70
1, 1077701, Note_on_c, 0, 56, 71
1, 1077701, Note_on_c, 0, 52, 61
1, 1077704, Note_on_c, 0, 49, 61
1, 1077707, Note_on_c, 0, 80, 83
1, 1077709, Control_c, 0, 64, 106
1, 1077724, Control_c, 0, 64, 72
1, 1077738, Control_c, 0, 64, 0
1, 1077738, Control_c, 0, 67, 8
1, 1077746, Note_off_c, 0, 85, 61
1, 1077753, Control_c, 0, 67, 11
1, 1077768, Control_c, 0, 64, 43
1, 1077768, Control_c, 0, 67, 14
1, 1077783, Control_c, 0, 64, 65
1, 1077783, Control_c, 0, 67, 18
1, 1077785, Note_on_c, 0, 73, 69
1, 1077798, Control_c, 0, 64, 77
1, 1077798, Control_c, 0, 67, 24
1, 1077812, Control_c, 0, 64, 99
1, 1077812, Control_c, 0, 67, 31
1, 1077827, Control_c, 0, 64, 127
1, 1077827, Control_c, 0, 67, 38
1, 1077842, Control_c, 0, 67, 44
1, 1077853, Note_off_c, 0, 44, 62
1, 1077855, Note_on_c, 0, 84, 71
1, 1077856, Control_c, 0, 67, 48
1, 1077863, Note_off_c, 0, 56, 62
1, 1077871, Control_c, 0, 67, 51
1, 1077892, Note_off_c, 0, 49, 58
1, 1077894, Note_off_c, 0, 80, 60
1, 1077894, Control_c, 0, 67, 53
1, 1077909, Control_c, 0, 67, 55
1, 1077922, Note_on_c, 0, 85, 72
1, 1077924, Control_c, 0, 67, 56
1, 1077925, Note_off_c, 0, 73, 52
1, 1077938, Control_c, 0, 67, 58
1, 1077953, Note_off_c, 0, 52, 36
1, 1077953, Control_c, 0, 67, 60
1, 1077968, Control_c, 0, 67, 61
1, 1077983, Control_c, 0, 67, 62
1, 1077984, Note_off_c, 0, 84, 53
1, 1077998, Control_c, 0, 67, 62
1, 1078012, Note_on_c, 0, 52, 45
1, 1078012, Control_c, 0, 67, 63
1, 1078017, Note_on_c, 0, 55, 65
1, 1078020, Note_on_c, 0, 49, 55
1, 1078021, Note_on_c, 0, 79, 75
1, 1078023, Note_on_c, 0, 45, 56
1, 1078027, Control_c, 0, 64, 98
1, 1078027, Control_c, 0, 67, 64
1, 1078042, Control_c, 0, 64, 64
1, 1078042, Control_c, 0, 67, 66
1, 1078056, Control_c, 0, 64, 0
1, 1078056, Control_c, 0, 67, 68
1, 1078063, Note_off_c, 0, 85, 59
1, 1078071, Control_c, 0, 67, 69
1, 1078086, Control_c, 0, 67, 70
1, 1078101, Note_on_c, 0, 73, 61
1, 1078101, Control_c, 0, 67, 70
1, 1078124, Note_off_c, 0, 55, 60
1, 1078130, Control_c, 0, 64, 66
1, 1078145, Control_c, 0, 64, 79
1, 1078145, Control_c, 0, 67, 71
1, 1078160, Control_c, 0, 64, 106
1, 1078160, Control_c, 0, 67, 71
1, 1078175, Control_c, 0, 64, 127
1, 1078175, Control_c, 0, 67, 72
1, 1078180, Note_on_c, 0, 84, 63
1, 1078190, Control_c, 0, 67, 73
1, 1078205, Note_off_c, 0, 79, 58
1, 1078205, Control_c, 0, 67, 74
1, 1078220, Control_c, 0, 67, 74
1, 1078249, Note_off_c, 0, 52, 54
1, 1078250, Control_c, 0, 67, 75
1, 1078253, Note_off_c, 0, 73, 35
1, 1078258, Note_on_c, 0, 85, 67
1, 1078280, Control_c, 0, 67, 75
1, 1078295, Control_c, 0, 67, 76
1, 1078309, Control_c, 0, 67, 76
1, 1078312, Note_on_c, 0, 54, 50
1, 1078323, Note_off_c, 0, 84, 38
1, 1078337, Note_on_c, 0, 78, 65
1, 1078339, Control_c, 0, 67, 77
1, 1078363, Note_off_c, 0, 85, 61
1, 1078369, Control_c, 0, 67, 77
1, 1078404, Note_on_c, 0, 73, 55
1, 1078410, Note_off_c, 0, 49, 47
1, 1078458, Control_c, 0, 67, 78
1, 1078474, Note_off_c, 0, 54, 33
1, 1078476, Note_off_c, 0, 78, 57
1, 1078482, Note_off_c, 0, 73, 55
1, 1078485, Note_on_c, 0, 84, 54
1, 1078490, Note_off_c, 0, 45, 58
1, 1078525, Note_on_c, 0, 85, 62
1, 1078547, Note_off_c, 0, 84, 42
1, 1078600, Note_on_c, 0, 49, 42
1, 1078608, Note_on_c, 0, 46, 46
1, 1078614, Note_on_c, 0, 53, 45
1, 1078621, Control_c, 0, 64, 86
1, 1078643, Control_c, 0, 64, 66
1, 1078653, Note_on_c, 0, 77, 58
1, 1078658, Control_c, 0, 64, 21
1, 1078661, Poly_aftertouch_c, 0, 78, 127
1, 1078661, Note_off_c, 0, 85, 55
1, 1078673, Control_c, 0, 64, 51
1, 1078687, Control_c, 0, 64, 65
1, 1078702, Control_c, 0, 64, 75
1, 1078702, Control_c, 0, 67, 77
1, 1078706, Note_on_c, 0, 73, 51
1, 1078717, Control_c, 0, 64, 89
1, 1078717, Control_c, 0, 67, 76
1, 1078732, Control_c, 0, 64, 127
1, 1078732, Control_c, 0, 67, 75
1, 1078747, Control_c, 0, 67, 74
1, 1078762, Control_c, 0, 67, 74
1, 1078777, Control_c, 0, 67, 73
1, 1078780, Note_on_c, 0, 84, 47
1, 1078780, Poly_aftertouch_c, 0, 78, 0
1, 1078792, Control_c, 0, 67, 72
1, 1078794, Note_off_c, 0, 53, 52
1, 1078798, Note_off_c, 0, 77, 53
1, 1078806, Note_off_c, 0, 73, 41
1, 1078807, Control_c, 0, 67, 72
1, 1078809, Note_off_c, 0, 49, 46
1, 1078822, Control_c, 0, 67, 71
1, 1078834, Note_on_c, 0, 85, 71
1, 1078836, Control_c, 0, 67, 70
1, 1078849, Note_off_c, 0, 46, 41
1, 1078851, Control_c, 0, 67, 70
1, 1078866, Control_c, 0, 67, 69
1, 1078874, Note_off_c, 0, 84, 38
1, 1078880, Control_c, 0, 67, 68
1, 1078895, Control_c, 0, 67, 68
1, 1078922, Note_on_c, 0, 77, 66
1, 1078923, Note_on_c, 0, 53, 55
1, 1078929, Note_on_c, 0, 49, 46
1, 1078930, Note_on_c, 0, 46, 49
1, 1078936, Note_off_c, 0, 85, 59
1, 1078954, Control_c, 0, 67, 68
1, 1078969, Control_c, 0, 64, 80
1, 1078984, Control_c, 0, 64, 19
1, 1078994, Note_on_c, 0, 73, 62
1, 1078999, Control_c, 0, 64, 46
1, 1079014, Control_c, 0, 64, 68
1, 1079014, Control_c, 0, 67, 68
1, 1079027, Note_off_c, 0, 77, 59
1, 1079028, Control_c, 0, 64, 79
1, 1079028, Control_c, 0, 67, 67
1, 1079043, Control_c, 0, 64, 103
1, 1079043, Control_c, 0, 67, 66
1, 1079053, Note_on_c, 0, 84, 62
1, 1079059, Control_c, 0, 64, 127
1, 1079059, Control_c, 0, 67, 65
1, 1079074, Control_c, 0, 67, 64
1, 1079089, Control_c, 0, 67, 62
1, 1079096, Note_off_c, 0, 73, 60
1, 1079103, Control_c, 0, 67, 60
1, 1079118, Control_c, 0, 67, 58
1, 1079125, Note_on_c, 0, 85, 79
1, 1079133, Control_c, 0, 67, 57
1, 1079148, Control_c, 0, 67, 56
1, 1079155, Note_off_c, 0, 84, 60
1, 1079163, Control_c, 0, 67, 55
1, 1079193, Note_on_c, 0, 78, 81
1, 1079197, Note_on_c, 0, 54, 75
1, 1079207, Control_c, 0, 67, 56
1, 1079217, Note_off_c, 0, 53, 53
1, 1079224, Note_off_c, 0, 85, 59
1, 1079251, Control_c, 0, 67, 56
1, 1079269, Note_on_c, 0, 73, 81
1, 1079308, Note_off_c, 0, 78, 61
1, 1079310, Note_off_c, 0, 46, 34
1, 1079326, Note_on_c, 0, 84, 67
1, 1079332, Note_off_c, 0, 54, 64
1, 1079355, Control_c, 0, 67, 57
1, 1079370, Note_off_c, 0, 73, 61
1, 1079395, Note_on_c, 0, 85, 77
1, 1079407, Control_c, 0, 67, 57
1, 1079435, Note_off_c, 0, 84, 60
1, 1079439, Note_off_c, 0, 49, 0
1, 1079452, Control_c, 0, 64, 82
1, 1079455, Note_on_c, 0, 55, 82
1, 1079458, Note_on_c, 0, 79, 81
1, 1079462, Note_on_c, 0, 49, 44
1, 1079463, Note_on_c, 0, 45, 66
1, 1079463, Note_on_c, 0, 52, 71
1, 1079466, Control_c, 0, 64, 31
1, 1079481, Control_c, 0, 64, 30
1, 1079481, Control_c, 0, 67, 57
1, 1079493, Note_off_c, 0, 85, 60
1, 1079496, Control_c, 0, 64, 67
1, 1079496, Control_c, 0, 67, 56
1, 1079510, Control_c, 0, 64, 79
1, 1079510, Control_c, 0, 67, 56
1, 1079525, Control_c, 0, 64, 106
1, 1079525, Control_c, 0, 67, 55
1, 1079539, Note_on_c, 0, 73, 79
1, 1079540, Control_c, 0, 64, 127
1, 1079540, Control_c, 0, 67, 54
1, 1079555, Control_c, 0, 67, 54
1, 1079563, Note_off_c, 0, 45, 62
1, 1079570, Control_c, 0, 67, 52
1, 1079585, Control_c, 0, 67, 48
1, 1079587, Note_off_c, 0, 55, 62
1, 1079600, Control_c, 0, 67, 42
1, 1079606, Note_on_c, 0, 84, 75
1, 1079612, Note_off_c, 0, 79, 60
1, 1079615, Control_c, 0, 67, 36
1, 1079630, Control_c, 0, 67, 32
1, 1079639, Note_off_c, 0, 73, 59
1, 1079645, Control_c, 0, 67, 28
1, 1079648, Note_off_c, 0, 52, 59
1, 1079656, Note_off_c, 0, 49, 36
1, 1079659, Control_c, 0, 67, 25
1, 1079672, Note_on_c, 0, 85, 79
1, 1079674, Control_c, 0, 67, 24
1, 1079689, Control_c, 0, 67, 23
1, 1079717, Note_off_c, 0, 84, 55
1, 1079718, Control_c, 0, 64, 113
1, 1079725, Note_on_c, 0, 56, 83
1, 1079725, Note_on_c, 0, 52, 73
1, 1079728, Note_on_c, 0, 80, 87
1, 1079732, Note_on_c, 0, 44, 70
1, 1079733, Control_c, 0, 64, 72
1, 1079737, Note_on_c, 0, 49, 67
1, 1079748, Control_c, 0, 64, 0
1, 1079748, Control_c, 0, 67, 23
1, 1079763, Control_c, 0, 67, 22
1, 1079766, Note_off_c, 0, 85, 62
1, 1079777, Control_c, 0, 64, 59
1, 1079777, Control_c, 0, 67, 21
1, 1079792, Control_c, 0, 64, 70
1, 1079792, Control_c, 0, 67, 20
1, 1079806, Note_on_c, 0, 73, 82
1, 1079807, Control_c, 0, 64, 88
1, 1079807, Control_c, 0, 67, 19
1, 1079822, Control_c, 0, 64, 127
1, 1079822, Control_c, 0, 67, 16
1, 1079836, Control_c, 0, 67, 12
1, 1079853, Control_c, 0, 67, 10
1, 1079859, Note_off_c, 0, 80, 55
1, 1079863, Note_on_c, 0, 84, 69
1, 1079867, Note_off_c, 0, 56, 59
1, 1079868, Control_c, 0, 67, 8
1, 1079882, Control_c, 0, 67, 0
1, 1079912, Note_off_c, 0, 73, 62
1, 1079934, Note_on_c, 0, 85, 77
1, 1079985, Note_off_c, 0, 44, 62
1, 1079992, Note_on_c, 0, 81, 90
1, 1080000, Note_on_c, 0, 57, 76
1, 1080019, Note_off_c, 0, 84, 60
1, 1080020, Note_off_c, 0, 85, 62
1, 1080034, Note_off_c, 0, 49, 55
1, 1080045, Control_c, 0, 67, 8
1, 1080060, Note_on_c, 0, 73, 75
1, 1080060, Control_c, 0, 67, 9
1, 1080071, Note_off_c, 0, 57, 60
1, 1080074, Control_c, 0, 67, 10
1, 1080089, Control_c, 0, 67, 10
1, 1080104, Control_c, 0, 67, 11
1, 1080114, Note_off_c, 0, 52, 54
1, 1080127, Note_on_c, 0, 84, 60
1, 1080170, Note_on_c, 0, 43, 73
1, 1080181, Note_on_c, 0, 85, 79
1, 1080188, Note_off_c, 0, 73, 59
1, 1080215, Note_off_c, 0, 81, 62
1, 1080215, Note_off_c, 0, 84, 61
1, 1080229, Control_c, 0, 67, 11
1, 1080236, Note_on_c, 0, 49, 69
1, 1080244, Control_c, 0, 64, 112
1, 1080244, Control_c, 0, 67, 12
1, 1080259, Control_c, 0, 64, 77
1, 1080259, Control_c, 0, 67, 13
1, 1080259, Note_on_c, 0, 52, 49
1, 1080274, Control_c, 0, 64, 17
1, 1080274, Control_c, 0, 67, 15
1, 1080288, Control_c, 0, 64, 0
1, 1080288, Control_c, 0, 67, 17
1, 1080303, Control_c, 0, 67, 19
1, 1080306, Note_on_c, 0, 58, 81
1, 1080318, Control_c, 0, 64, 64
1, 1080318, Control_c, 0, 67, 21
1, 1080328, Note_on_c, 0, 82, 92
1, 1080333, Control_c, 0, 64, 72
1, 1080333, Control_c, 0, 67, 24
1, 1080348, Control_c, 0, 64, 85
1, 1080348, Control_c, 0, 67, 27
1, 1080362, Note_off_c, 0, 85, 62
1, 1080363, Control_c, 0, 64, 113
1, 1080363, Control_c, 0, 67, 29
1, 1080378, Control_c, 0, 64, 127
1, 1080378, Control_c, 0, 67, 31
1, 1080393, Control_c, 0, 67, 34
1, 1080404, Note_off_c, 0, 58, 64
1, 1080407, Control_c, 0, 67, 35
1, 1080422, Control_c, 0, 67, 36
1, 1080429, Note_on_c, 0, 73, 80
1, 1080437, Control_c, 0, 67, 36
1, 1080441, Note_off_c, 0, 43, 37
1, 1080451, Control_c, 0, 67, 37
1, 1080464, Note_on_c, 0, 84, 70
1, 1080466, Control_c, 0, 67, 38
1, 1080476, Note_off_c, 0, 49, 62
1, 1080479, Note_off_c, 0, 52, 58
1, 1080481, Control_c, 0, 67, 39
1, 1080496, Control_c, 0, 67, 40
1, 1080511, Control_c, 0, 67, 40
1, 1080521, Note_on_c, 0, 43, 77
1, 1080524, Note_off_c, 0, 82, 52
1, 1080525, Control_c, 0, 67, 41
1, 1080527, Note_off_c, 0, 73, 60
1, 1080540, Control_c, 0, 67, 43
1, 1080555, Control_c, 0, 67, 46
1, 1080558, Note_on_c, 0, 85, 83
1, 1080566, Note_on_c, 0, 49, 52
1, 1080570, Control_c, 0, 67, 49
1, 1080584, Note_off_c, 0, 84, 63
1, 1080585, Control_c, 0, 67, 51
1, 1080600, Control_c, 0, 67, 53
1, 1080614, Control_c, 0, 67, 54
1, 1080628, Note_on_c, 0, 52, 66
1, 1080629, Control_c, 0, 67, 55
1, 1080644, Control_c, 0, 67, 55
1, 1080660, Control_c, 0, 67, 56
1, 1080693, Note_on_c, 0, 58, 75
1, 1080719, Control_c, 0, 64, 109
1, 1080734, Control_c, 0, 64, 78
1, 1080738, Note_on_c, 0, 82, 88
1, 1080748, Control_c, 0, 64, 49
1, 1080763, Control_c, 0, 64, 0
1, 1080773, Note_off_c, 0, 85, 58
1, 1080793, Control_c, 0, 64, 56
1, 1080808, Control_c, 0, 64, 67
1, 1080822, Control_c, 0, 64, 77
1, 1080835, Note_on_c, 0, 73, 69
1, 1080837, Control_c, 0, 64, 98
1, 1080852, Control_c, 0, 64, 127
1, 1080867, Control_c, 0, 67, 56
1, 1080910, Note_on_c, 0, 84, 69
1, 1080921, Note_off_c, 0, 58, 54
1, 1080934, Control_c, 0, 67, 57
1, 1080942, Note_off_c, 0, 73, 57
1, 1080944, Note_off_c, 0, 82, 61
1, 1080963, Control_c, 0, 67, 57
1, 1080978, Control_c, 0, 67, 58
1, 1080979, Note_on_c, 0, 85, 74
1, 1080993, Control_c, 0, 67, 58
1, 1081023, Note_off_c, 0, 43, 53
1, 1081023, Control_c, 0, 67, 59
1, 1081028, Note_off_c, 0, 84, 58
1, 1081037, Control_c, 0, 67, 59
1, 1081043, Note_on_c, 0, 81, 79
1, 1081055, Note_on_c, 0, 57, 60
1, 1081067, Control_c, 0, 67, 60
1, 1081074, Note_off_c, 0, 85, 61
1, 1081081, Control_c, 0, 67, 61
1, 1081096, Control_c, 0, 67, 62
1, 1081111, Control_c, 0, 67, 63
1, 1081120, Note_on_c, 0, 73, 68
1, 1081146, Note_off_c, 0, 57, 53
1, 1081156, Control_c, 0, 67, 64
1, 1081191, Note_off_c, 0, 52, 35
1, 1081194, Note_on_c, 0, 84, 66
1, 1081196, Note_off_c, 0, 49, 32
1, 1081201, Control_c, 0, 67, 64
1, 1081221, Note_off_c, 0, 73, 52
1, 1081227, Note_off_c, 0, 81, 60
1, 1081268, Note_on_c, 0, 85, 70
1, 1081289, Control_c, 0, 67, 65
1, 1081299, Note_off_c, 0, 84, 59
1, 1081319, Control_c, 0, 64, 114
1, 1081319, Control_c, 0, 67, 65
1, 1081325, Note_on_c, 0, 56, 58
1, 1081329, Note_on_c, 0, 44, 53
1, 1081330, Note_on_c, 0, 52, 47
1, 1081334, Note_on_c, 0, 49, 44
1, 1081334, Control_c, 0, 64, 81
1, 1081334, Control_c, 0, 67, 66
1, 1081341, Note_on_c, 0, 80, 69
1, 1081349, Control_c, 0, 64, 59
1, 1081349, Control_c, 0, 67, 68
1, 1081362, Note_off_c, 0, 85, 59
1, 1081363, Control_c, 0, 64, 0
1, 1081363, Control_c, 0, 67, 69
1, 1081378, Control_c, 0, 67, 69
1, 1081393, Control_c, 0, 64, 34
1, 1081393, Control_c, 0, 67, 70
1, 1081408, Control_c, 0, 64, 63
1, 1081408, Control_c, 0, 67, 70
1, 1081422, Control_c, 0, 64, 71
1, 1081422, Control_c, 0, 67, 71
1, 1081424, Note_on_c, 0, 73, 55
1, 1081437, Control_c, 0, 64, 85
1, 1081437, Control_c, 0, 67, 72
1, 1081453, Control_c, 0, 64, 127
1, 1081453, Control_c, 0, 67, 73
1, 1081468, Control_c, 0, 67, 75
1, 1081483, Control_c, 0, 67, 76
1, 1081495, Note_off_c, 0, 44, 55
1, 1081497, Control_c, 0, 67, 78
1, 1081501, Note_on_c, 0, 84, 57
1, 1081505, Note_off_c, 0, 56, 58
1, 1081512, Control_c, 0, 67, 80
1, 1081517, Note_off_c, 0, 73, 54
1, 1081527, Control_c, 0, 67, 82
1, 1081534, Note_off_c, 0, 80, 59
1, 1081540, Note_off_c, 0, 49, 41
1, 1081542, Control_c, 0, 67, 83
1, 1081557, Control_c, 0, 67, 84
1, 1081569, Note_off_c, 0, 52, 36
1, 1081571, Control_c, 0, 67, 85
1, 1081578, Note_on_c, 0, 85, 66
1, 1081586, Control_c, 0, 67, 85
1, 1081601, Control_c, 0, 67, 86
1, 1081634, Note_off_c, 0, 84, 37
1, 1081639, Control_c, 0, 67, 86
1, 1081653, Control_c, 0, 67, 87
1, 1081666, Note_on_c, 0, 52, 37
1, 1081668, Control_c, 0, 67, 88
1, 1081676, Note_on_c, 0, 49, 39
1, 1081683, Control_c, 0, 67, 89
1, 1081685, Note_on_c, 0, 55, 43
1, 1081691, Note_on_c, 0, 45, 40
1, 1081692, Note_on_c, 0, 79, 55
1, 1081698, Control_c, 0, 64, 84
1, 1081698, Control_c, 0, 67, 91
1, 1081712, Control_c, 0, 64, 63
1, 1081712, Control_c, 0, 67, 92
1, 1081727, Control_c, 0, 64, 0
1, 1081727, Control_c, 0, 67, 93
1, 1081742, Control_c, 0, 67, 93
1, 1081772, Control_c, 0, 64, 61
1, 1081773, Note_off_c, 0, 85, 53
1, 1081786, Note_on_c, 0, 73, 43
1, 1081786, Control_c, 0, 64, 69
1, 1081801, Control_c, 0, 64, 80
1, 1081816, Control_c, 0, 64, 99
1, 1081831, Note_off_c, 0, 55, 43
1, 1081831, Control_c, 0, 64, 127
1, 1081880, Note_on_c, 0, 84, 52
1, 1081911, Note_off_c, 0, 79, 59
1, 1081969, Note_off_c, 0, 84, 53
1, 1081975, Note_on_c, 0, 85, 58
1, 1082036, Note_off_c, 0, 52, 41
1, 1082053, Control_c, 0, 67, 94
1, 1082068, Control_c, 0, 64, 110
1, 1082070, Note_on_c, 0, 54, 44
1, 1082070, Note_off_c, 0, 73, 44
1, 1082083, Control_c, 0, 64, 78
1, 1082083, Control_c, 0, 67, 94
1, 1082088, Note_on_c, 0, 78, 50
1, 1082098, Control_c, 0, 64, 56
1, 1082112, Control_c, 0, 64, 38
1, 1082112, Control_c, 0, 67, 95
1, 1082127, Control_c, 0, 64, 64
1, 1082142, Control_c, 0, 64, 71
1, 1082142, Control_c, 0, 67, 95
1, 1082157, Control_c, 0, 64, 81
1, 1082157, Control_c, 0, 67, 96
1, 1082172, Control_c, 0, 64, 97
1, 1082186, Control_c, 0, 64, 127
1, 1082186, Control_c, 0, 67, 96
1, 1082199, Note_on_c, 0, 73, 46
1, 1082201, Control_c, 0, 67, 97
1, 1082216, Control_c, 0, 67, 97
1, 1082230, Control_c, 0, 67, 98
1, 1082247, Control_c, 0, 67, 98
1, 1082257, Note_off_c, 0, 85, 52
1, 1082262, Control_c, 0, 67, 100
1, 1082274, Note_off_c, 0, 49, 45
1, 1082276, Control_c, 0, 67, 101
1, 1082291, Control_c, 0, 67, 102
1, 1082306, Control_c, 0, 67, 104
1, 1082320, Control_c, 0, 67, 105
1, 1082321, Note_off_c, 0, 45, 43
1, 1082321, Note_off_c, 0, 54, 34
1, 1082335, Control_c, 0, 67, 105
1, 1082339, Note_on_c, 0, 84, 43
1, 1082350, Control_c, 0, 67, 107
1, 1082365, Control_c, 0, 67, 108
1, 1082387, Control_c, 0, 67, 109
1, 1082388, Note_off_c, 0, 78, 51
1, 1082402, Control_c, 0, 67, 111
1, 1082417, Control_c, 0, 67, 112
1, 1082432, Control_c, 0, 67, 113
1, 1082435, Note_on_c, 0, 85, 54
1, 1082447, Control_c, 0, 67, 114
1, 1082456, Note_off_c, 0, 84, 37
1, 1082462, Control_c, 0, 67, 114
1, 1082476, Control_c, 0, 67, 115
1, 1082491, Control_c, 0, 67, 116
1, 1082506, Control_c, 0, 67, 117
1, 1082521, Control_c, 0, 67, 117
1, 1082526, Note_off_c, 0, 73, 27
1, 1082536, Control_c, 0, 67, 118
1, 1082551, Control_c, 0, 67, 119
1, 1082566, Control_c, 0, 67, 119
1, 1082581, Control_c, 0, 67, 120
1, 1082596, Control_c, 0, 67, 120
1, 1082601, Note_on_c, 0, 49, 31
1, 1082617, Note_on_c, 0, 53, 35
1, 1082618, Note_on_c, 0, 77, 48
1, 1082625, Control_c, 0, 64, 94
1, 1082625, Control_c, 0, 67, 121
1, 1082631, Note_on_c, 0, 46, 34
1, 1082640, Control_c, 0, 64, 72
1, 1082640, Control_c, 0, 67, 121
1, 1082654, Control_c, 0, 64, 49
1, 1082654, Control_c, 0, 67, 122
1, 1082669, Control_c, 0, 64, 0
1, 1082669, Control_c, 0, 67, 123
1, 1082699, Control_c, 0, 64, 56
1, 1082699, Control_c, 0, 67, 124
1, 1082714, Control_c, 0, 64, 64
1, 1082728, Control_c, 0, 64, 70
1, 1082743, Control_c, 0, 64, 78
1, 1082743, Control_c, 0, 67, 124
1, 1082758, Control_c, 0, 64, 89
1, 1082773, Control_c, 0, 64, 104
1, 1082775, Note_on_c, 0, 73, 46
1, 1082788, Control_c, 0, 64, 127
1, 1082831, Note_off_c, 0, 85, 51
1, 1082927, Note_on_c, 0, 84, 58
1, 1082935, Note_off_c, 0, 46, 35
1, 1082940, Note_off_c, 0, 53, 38
1, 1082959, Note_off_c, 0, 49, 36
1, 1083025, Note_off_c, 0, 73, 21
1, 1083093, Note_on_c, 0, 85, 61
1, 1083109, Note_off_c, 0, 77, 38
1, 1083164, Note_off_c, 0, 85, 54
1, 1083389, Control_c, 0, 67, 125
1, 1083448, Control_c, 0, 67, 125
1, 1083457, Note_on_c, 0, 85, 57
1, 1083511, Note_on_c, 0, 77, 29
1, 1083517, Note_on_c, 0, 53, 19
1, 1083518, Note_on_c, 0, 49, 24
1, 1083520, Note_on_c, 0, 46, 20
1, 1083521, Note_on_c, 0, 73, 28
1, 1083551, Control_c, 0, 64, 110
1, 1083551, Control_c, 0, 67, 126
1, 1083566, Control_c, 0, 64, 86
1, 1083566, Control_c, 0, 67, 127
1, 1083581, Control_c, 0, 64, 69
1, 1083596, Control_c, 0, 64, 43
1, 1083611, Control_c, 0, 64, 0
1, 1083652, Note_off_c, 0, 84, 38
1, 1083684, Control_c, 0, 64, 44
1, 1083699, Control_c, 0, 64, 64
1, 1083714, Control_c, 0, 64, 71
1, 1083729, Control_c, 0, 64, 82
1, 1083743, Control_c, 0, 64, 95
1, 1083758, Control_c, 0, 64, 110
1, 1083773, Control_c, 0, 64, 127
1, 1083944, Note_off_c, 0, 46, 42
1, 1083975, Note_off_c, 0, 49, 47
1, 1084069, Note_off_c, 0, 53, 45
1, 1084186, Note_off_c, 0, 73, 43
1, 1084531, Note_off_c, 0, 85, 58
1, 1084557, Note_off_c, 0, 77, 51
1, 1084580, Note_on_c, 0, 58, 29
1, 1084720, Note_on_c, 0, 61, 34
1, 1084822, Note_on_c, 0, 66, 36
1, 1084855, Note_off_c, 0, 58, 29
1, 1084867, Note_off_c, 0, 61, 42
1, 1084898, Note_off_c, 0, 66, 55
1, 1084936, Note_on_c, 0, 65, 38
1, 1084999, Note_off_c, 0, 65, 54
1, 1085046, Note_on_c, 0, 70, 43
1, 1085100, Note_off_c, 0, 70, 57
1, 1085147, Note_on_c, 0, 73, 40
1, 1085255, Note_off_c, 0, 73, 38
1, 1085270, Note_on_c, 0, 77, 45
1, 1085302, Note_off_c, 0, 77, 53
1, 1085576, Note_on_c, 0, 85, 52
1, 1085598, Note_off_c, 0, 85, 62
1, 1085648, Note_on_c, 0, 34, 26
1, 1086136, Note_off_c, 0, 34, 40
1, 1086892, Note_on_c, 0, 73, 50
1, 1087276, Note_on_c, 0, 75, 53
1, 1087294, Control_c, 0, 64, 102
1, 1087309, Control_c, 0, 64, 83
1, 1087323, Control_c, 0, 64, 70
1, 1087324, Note_on_c, 0, 61, 21
1, 1087329, Note_on_c, 0, 65, 19
1, 1087335, Note_on_c, 0, 58, 24
1, 1087338, Control_c, 0, 64, 64
1, 1087353, Control_c, 0, 64, 65
1, 1087368, Control_c, 0, 64, 68
1, 1087383, Note_off_c, 0, 73, 56
1, 1087383, Control_c, 0, 64, 72
1, 1087398, Control_c, 0, 64, 78
1, 1087413, Control_c, 0, 64, 88
1, 1087428, Control_c, 0, 64, 101
1, 1087442, Control_c, 0, 64, 122
1, 1087456, Note_off_c, 0, 75, 60
1, 1087457, Control_c, 0, 64, 127
1, 1087471, Note_off_c, 0, 65, 46
1, 1087478, Note_off_c, 0, 58, 45
1, 1087478, Note_off_c, 0, 61, 39
1, 1087500, Note_on_c, 0, 73, 60
1, 1087516, Control_c, 0, 67, 123
1, 1087526, Note_off_c, 0, 73, 59
1, 1087531, Control_c, 0, 67, 119
1, 1087546, Control_c, 0, 67, 117
1, 1087561, Control_c, 0, 67, 115
1, 1087563, Note_on_c, 0, 75, 65
1, 1087576, Control_c, 0, 67, 113
1, 1087590, Note_off_c, 0, 75, 66
1, 1087590, Control_c, 0, 67, 111
1, 1087605, Control_c, 0, 64, 111
1, 1087605, Control_c, 0, 67, 109
1, 1087627, Control_c, 0, 64, 94
1, 1087627, Control_c, 0, 67, 108
1, 1087633, Note_on_c, 0, 77, 70
1, 1087639, Note_on_c, 0, 65, 24
1, 1087642, Control_c, 0, 64, 79
1, 1087642, Control_c, 0, 67, 108
1, 1087645, Note_on_c, 0, 58, 25
1, 1087651, Note_on_c, 0, 61, 31
1, 1087657, Control_c, 0, 64, 68
1, 1087672, Control_c, 0, 64, 59
1, 1087672, Control_c, 0, 67, 107
1, 1087687, Control_c, 0, 64, 36
1, 1087702, Control_c, 0, 64, 0
1, 1087702, Control_c, 0, 67, 107
1, 1087717, Control_c, 0, 67, 106
1, 1087731, Control_c, 0, 67, 106
1, 1087746, Control_c, 0, 67, 105
1, 1087761, Control_c, 0, 67, 104
1, 1087776, Control_c, 0, 67, 104
1, 1087791, Control_c, 0, 64, 59
1, 1087791, Control_c, 0, 67, 103
1, 1087805, Control_c, 0, 64, 68
1, 1087805, Control_c, 0, 67, 102
1, 1087820, Control_c, 0, 64, 75
1, 1087820, Control_c, 0, 67, 100
1, 1087835, Control_c, 0, 64, 81
1, 1087835, Control_c, 0, 67, 97
1, 1087851, Control_c, 0, 64, 89
1, 1087851, Control_c, 0, 67, 94
1, 1087865, Control_c, 0, 64, 97
1, 1087865, Control_c, 0, 67, 91
1, 1087880, Control_c, 0, 64, 108
1, 1087880, Control_c, 0, 67, 89
1, 1087895, Control_c, 0, 64, 127
1, 1087895, Control_c, 0, 67, 88
1, 1087910, Control_c, 0, 67, 87
1, 1087925, Control_c, 0, 67, 86
1, 1087969, Control_c, 0, 67, 87
1, 1087984, Control_c, 0, 67, 88
1, 1087999, Control_c, 0, 67, 88
1, 1088013, Control_c, 0, 67, 89
1, 1088028, Control_c, 0, 67, 90
1, 1088043, Control_c, 0, 67, 91
1, 1088058, Control_c, 0, 67, 92
1, 1088072, Control_c, 0, 67, 92
1, 1088087, Control_c, 0, 67, 93
1, 1088102, Control_c, 0, 67, 93
1, 1088132, Control_c, 0, 67, 94
1, 1088161, Control_c, 0, 67, 94
1, 1088164, Note_off_c, 0, 65, 38
1, 1088170, Note_off_c, 0, 58, 40
1, 1088176, Control_c, 0, 67, 95
1, 1088179, Note_off_c, 0, 61, 38
1, 1088191, Control_c, 0, 67, 96
1, 1088206, Control_c, 0, 67, 97
1, 1088221, Control_c, 0, 67, 98
1, 1088236, Control_c, 0, 67, 99
1, 1088250, Control_c, 0, 67, 101
1, 1088265, Control_c, 0, 67, 103
1, 1088280, Control_c, 0, 67, 106
1, 1088295, Control_c, 0, 67, 108
1, 1088310, Control_c, 0, 67, 110
1, 1088325, Control_c, 0, 67, 111
1, 1088339, Control_c, 0, 67, 113
1, 1088354, Control_c, 0, 67, 114
1, 1088376, Control_c, 0, 67, 115
1, 1088391, Control_c, 0, 67, 116
1, 1088406, Control_c, 0, 67, 117
1, 1088420, Control_c, 0, 67, 118
1, 1088435, Control_c, 0, 67, 119
1, 1088450, Control_c, 0, 67, 120
1, 1088465, Control_c, 0, 67, 121
1, 1088480, Note_on_c, 0, 75, 49
1, 1088480, Control_c, 0, 67, 122
1, 1088493, Note_on_c, 0, 61, 29
1, 1088495, Control_c, 0, 67, 122
1, 1088497, Note_on_c, 0, 58, 30
1, 1088501, Note_on_c, 0, 65, 27
1, 1088510, Control_c, 0, 67, 123
1, 1088525, Control_c, 0, 67, 123
1, 1088554, Control_c, 0, 67, 124
1, 1088569, Control_c, 0, 67, 124
1, 1088599, Control_c, 0, 67, 125
1, 1088622, Note_off_c, 0, 58, 42
1, 1088626, Note_off_c, 0, 61, 41
1, 1088630, Note_on_c, 0, 73, 61
1, 1088634, Note_off_c, 0, 65, 31
1, 1088644, Control_c, 0, 67, 125
1, 1088656, Note_off_c, 0, 77, 60
1, 1088659, Control_c, 0, 67, 126
1, 1088666, Note_off_c, 0, 75, 61
1, 1088674, Control_c, 0, 67, 126
1, 1088689, Control_c, 0, 67, 127
1, 1088718, Control_c, 0, 67, 127
1, 1088746, Note_off_c, 0, 73, 62
1, 1088812, Note_on_c, 0, 77, 56
1, 1088853, Note_on_c, 0, 60, 39
1, 1088858, Note_on_c, 0, 65, 29
1, 1088863, Note_on_c, 0, 56, 39
1, 1088867, Control_c, 0, 64, 104
1, 1088882, Control_c, 0, 64, 83
1, 1088896, Control_c, 0, 64, 68
1, 1088911, Control_c, 0, 64, 49
1, 1088926, Control_c, 0, 64, 0
1, 1088985, Control_c, 0, 64, 24
1, 1089000, Control_c, 0, 64, 56
1, 1089014, Control_c, 0, 64, 65
1, 1089029, Control_c, 0, 64, 71
1, 1089044, Control_c, 0, 64, 77
1, 1089059, Control_c, 0, 64, 85
1, 1089074, Control_c, 0, 64, 93
1, 1089088, Control_c, 0, 64, 102
1, 1089103, Control_c, 0, 64, 112
1, 1089126, Control_c, 0, 64, 127
1, 1089291, Note_off_c, 0, 56, 39
1, 1089294, Note_off_c, 0, 65, 36
1, 1089305, Note_off_c, 0, 60, 37
1, 1089567, Note_on_c, 0, 73, 48
1, 1089594, Note_on_c, 0, 60, 36
1, 1089604, Note_on_c, 0, 56, 30
1, 1089605, Note_on_c, 0, 65, 28
1, 1089673, Note_off_c, 0, 56, 45
1, 1089724, Note_on_c, 0, 72, 45
1, 1089735, Note_off_c, 0, 65, 30
1, 1089745, Note_off_c, 0, 73, 37
1, 1089793, Note_off_c, 0, 72, 51
1, 1089849, Note_off_c, 0, 77, 52
1, 1089866, Note_off_c, 0, 60, 44
1, 1089979, Note_on_c, 0, 72, 35
1, 1090026, Note_on_c, 0, 77, 42
1, 1090042, Note_on_c, 0, 65, 27
1, 1090051, Note_on_c, 0, 55, 26
1, 1090078, Note_on_c, 0, 58, 28
1, 1090097, Control_c, 0, 64, 94
1, 1090111, Control_c, 0, 64, 74
1, 1090126, Control_c, 0, 64, 60
1, 1090141, Control_c, 0, 64, 0
1, 1090215, Control_c, 0, 64, 42
1, 1090230, Control_c, 0, 64, 63
1, 1090246, Control_c, 0, 64, 69
1, 1090260, Control_c, 0, 64, 77
1, 1090275, Control_c, 0, 64, 88
1, 1090290, Control_c, 0, 64, 107
1, 1090305, Control_c, 0, 64, 127
1, 1090417, Note_off_c, 0, 58, 41
1, 1090419, Note_off_c, 0, 65, 35
1, 1090464, Note_off_c, 0, 55, 33
1, 1090837, Note_on_c, 0, 70, 42
1, 1090856, Note_on_c, 0, 65, 25
1, 1090857, Note_on_c, 0, 58, 27
1, 1090858, Note_off_c, 0, 72, 38
1, 1090863, Note_on_c, 0, 55, 24
1, 1090966, Note_off_c, 0, 58, 34
1, 1090975, Note_off_c, 0, 65, 35
1, 1090998, Note_off_c, 0, 55, 30
1, 1091050, Note_off_c, 0, 70, 56
1, 1091202, Note_on_c, 0, 58, 33
1, 1091205, Note_on_c, 0, 65, 33
1, 1091207, Note_on_c, 0, 55, 30
1, 1091535, Note_on_c, 0, 70, 52
1, 1091610, Control_c, 0, 67, 125
1, 1091624, Control_c, 0, 67, 122
1, 1091635, Note_off_c, 0, 58, 44
1, 1091639, Control_c, 0, 67, 118
1, 1091643, Note_off_c, 0, 65, 38
1, 1091651, Note_off_c, 0, 55, 40
1, 1091654, Control_c, 0, 67, 115
1, 1091669, Control_c, 0, 67, 113
1, 1091683, Control_c, 0, 67, 110
1, 1091698, Control_c, 0, 67, 108
1, 1091713, Control_c, 0, 67, 106
1, 1091728, Control_c, 0, 67, 102
1, 1091743, Control_c, 0, 67, 99
1, 1091757, Control_c, 0, 67, 96
1, 1091772, Control_c, 0, 67, 94
1, 1091787, Control_c, 0, 67, 93
1, 1091802, Control_c, 0, 67, 92
1, 1091816, Control_c, 0, 67, 91
1, 1091832, Control_c, 0, 67, 91
1, 1091892, Control_c, 0, 67, 92
1, 1091906, Control_c, 0, 67, 92
1, 1091910, Note_on_c, 0, 72, 60
1, 1091921, Control_c, 0, 67, 93
1, 1091936, Control_c, 0, 67, 94
1, 1091949, Note_on_c, 0, 65, 31
1, 1091951, Control_c, 0, 67, 94
1, 1091953, Note_on_c, 0, 55, 27
1, 1091953, Note_on_c, 0, 58, 31
1, 1091966, Control_c, 0, 67, 95
1, 1091980, Control_c, 0, 67, 95
1, 1091989, Note_off_c, 0, 70, 56
1, 1091995, Control_c, 0, 67, 96
1, 1092010, Control_c, 0, 67, 96
1, 1092025, Control_c, 0, 67, 97
1, 1092039, Control_c, 0, 67, 97
1, 1092066, Note_off_c, 0, 65, 36
1, 1092069, Control_c, 0, 67, 98
1, 1092071, Note_off_c, 0, 72, 57
1, 1092073, Note_off_c, 0, 58, 35
1, 1092084, Control_c, 0, 67, 99
1, 1092089, Note_off_c, 0, 77, 57
1, 1092099, Note_off_c, 0, 55, 39
1, 1092099, Control_c, 0, 67, 100
1, 1092121, Control_c, 0, 67, 100
1, 1092129, Note_on_c, 0, 70, 53
1, 1092136, Control_c, 0, 67, 101
1, 1092151, Control_c, 0, 67, 101
1, 1092181, Control_c, 0, 67, 102
1, 1092183, Note_off_c, 0, 70, 59
1, 1092186, Note_on_c, 0, 72, 67
1, 1092210, Control_c, 0, 67, 102
1, 1092242, Note_off_c, 0, 72, 64
1, 1092245, Note_on_c, 0, 77, 54
1, 1092251, Note_on_c, 0, 73, 72
1, 1092281, Note_on_c, 0, 55, 18
1, 1092289, Note_on_c, 0, 58, 33
1, 1092296, Note_on_c, 0, 65, 32
1, 1092299, Control_c, 0, 64, 119
1, 1092313, Control_c, 0, 64, 90
1, 1092313, Control_c, 0, 67, 103
1, 1092328, Control_c, 0, 64, 73
1, 1092328, Control_c, 0, 67, 103
1, 1092343, Control_c, 0, 64, 60
1, 1092343, Control_c, 0, 67, 104
1, 1092358, Control_c, 0, 64, 0
1, 1092358, Control_c, 0, 67, 104
1, 1092403, Control_c, 0, 67, 105
1, 1092418, Control_c, 0, 67, 105
1, 1092433, Control_c, 0, 67, 106
1, 1092447, Control_c, 0, 64, 19
1, 1092447, Control_c, 0, 67, 107
1, 1092462, Control_c, 0, 64, 60
1, 1092462, Control_c, 0, 67, 108
1, 1092477, Control_c, 0, 64, 67
1, 1092477, Control_c, 0, 67, 109
1, 1092492, Control_c, 0, 64, 72
1, 1092492, Control_c, 0, 67, 110
1, 1092507, Control_c, 0, 64, 77
1, 1092507, Control_c, 0, 67, 111
1, 1092521, Control_c, 0, 64, 82
1, 1092521, Control_c, 0, 67, 112
1, 1092536, Control_c, 0, 64, 88
1, 1092536, Control_c, 0, 67, 114
1, 1092551, Control_c, 0, 64, 95
1, 1092551, Control_c, 0, 67, 116
1, 1092565, Control_c, 0, 64, 103
1, 1092565, Control_c, 0, 67, 117
1, 1092580, Control_c, 0, 64, 117
1, 1092580, Control_c, 0, 67, 118
1, 1092595, Control_c, 0, 64, 127
1, 1092595, Control_c, 0, 67, 120
1, 1092610, Control_c, 0, 67, 122
1, 1092625, Control_c, 0, 67, 124
1, 1092641, Control_c, 0, 67, 126
1, 1092655, Control_c, 0, 67, 127
1, 1092810, Note_off_c, 0, 58, 41
1, 1092818, Note_off_c, 0, 55, 38
1, 1092823, Note_off_c, 0, 65, 38
1, 1093154, Note_on_c, 0, 72, 56
1, 1093177, Note_on_c, 0, 65, 30
1, 1093185, Note_on_c, 0, 55, 25
1, 1093189, Note_on_c, 0, 58, 29
1, 1093281, Note_off_c, 0, 73, 39
1, 1093299, Note_off_c, 0, 65, 36
1, 1093318, Note_off_c, 0, 72, 62
1, 1093324, Note_off_c, 0, 55, 42
1, 1093327, Note_on_c, 0, 70, 59
1, 1093342, Note_off_c, 0, 58, 42
1, 1093613, Note_off_c, 0, 70, 36
1, 1093631, Note_on_c, 0, 76, 49
1, 1093649, Note_on_c, 0, 73, 42
1, 1093672, Note_on_c, 0, 54, 27
1, 1093677, Note_on_c, 0, 58, 30
1, 1093677, Note_on_c, 0, 64, 30
1, 1093722, Note_off_c, 0, 77, 39
1, 1093723, Control_c, 0, 64, 100
1, 1093738, Control_c, 0, 64, 84
1, 1093753, Control_c, 0, 64, 70
1, 1093767, Control_c, 0, 64, 54
1, 1093782, Control_c, 0, 64, 0
1, 1093885, Control_c, 0, 64, 47
1, 1093900, Control_c, 0, 64, 64
1, 1093915, Control_c, 0, 64, 71
1, 1093930, Control_c, 0, 64, 78
1, 1093945, Control_c, 0, 64, 86
1, 1093959, Control_c, 0, 64, 96
1, 1093974, Control_c, 0, 64, 112
1, 1093989, Control_c, 0, 64, 127
1, 1094119, Note_off_c, 0, 54, 36
1, 1094166, Note_off_c, 0, 58, 35
1, 1094205, Note_off_c, 0, 64, 32
1, 1094556, Note_on_c, 0, 71, 39
1, 1094590, Note_on_c, 0, 64, 21
1, 1094593, Note_on_c, 0, 54, 23
1, 1094602, Note_on_c, 0, 58, 19
1, 1094714, Note_off_c, 0, 58, 36
1, 1094715, Note_off_c, 0, 76, 40
1, 1094726, Note_off_c, 0, 64, 42
1, 1094727, Note_off_c, 0, 73, 60
1, 1094731, Note_off_c, 0, 54, 44
1, 1094734, Note_off_c, 0, 71, 55
1, 1094755, Note_on_c, 0, 70, 42
1, 1094844, Note_off_c, 0, 70, 59
1, 1095115, Note_on_c, 0, 71, 43
1, 1095123, Note_on_c, 0, 75, 40
1, 1095154, Note_on_c, 0, 63, 28
1, 1095168, Note_on_c, 0, 47, 25
1, 1095178, Note_on_c, 0, 54, 20
1, 1095235, Control_c, 0, 64, 109
1, 1095250, Control_c, 0, 64, 83
1, 1095265, Control_c, 0, 64, 68
1, 1095279, Control_c, 0, 64, 42
1, 1095294, Control_c, 0, 64, 0
1, 1095339, Control_c, 0, 64, 14
1, 1095354, Control_c, 0, 64, 53
1, 1095369, Control_c, 0, 64, 64
1, 1095383, Control_c, 0, 64, 70
1, 1095398, Control_c, 0, 64, 77
1, 1095413, Control_c, 0, 64, 87
1, 1095428, Control_c, 0, 64, 101
1, 1095443, Control_c, 0, 64, 124
1, 1095457, Control_c, 0, 64, 127
1, 1095663, Note_off_c, 0, 47, 36
1, 1095675, Note_off_c, 0, 54, 36
1, 1095730, Note_off_c, 0, 63, 40
1, 1096042, Note_on_c, 0, 66, 38
1, 1096075, Note_on_c, 0, 54, 21
1, 1096077, Note_on_c, 0, 63, 27
1, 1096078, Note_on_c, 0, 47, 20
1, 1096247, Note_off_c, 0, 47, 43
1, 1096247, Note_off_c, 0, 54, 44
1, 1096249, Note_off_c, 0, 63, 42
1, 1096385, Note_off_c, 0, 75, 43
1, 1096455, Note_on_c, 0, 63, 29
1, 1096478, Note_on_c, 0, 54, 24
1, 1096490, Note_on_c, 0, 47, 16
1, 1096542, Note_off_c, 0, 66, 42
1, 1096542, Note_off_c, 0, 71, 38
1, 1096746, Note_on_c, 0, 66, 39
1, 1096849, Note_on_c, 0, 71, 52
1, 1096934, Note_off_c, 0, 66, 46
1, 1096982, Note_off_c, 0, 54, 42
1, 1096989, Note_off_c, 0, 63, 42
1, 1096993, Note_off_c, 0, 47, 42
1, 1097170, Note_on_c, 0, 70, 61
1, 1097214, Note_off_c, 0, 71, 59
1, 1097217, Note_on_c, 0, 63, 40
1, 1097220, Note_on_c, 0, 47, 26
1, 1097224, Note_on_c, 0, 54, 26
1, 1097308, Note_off_c, 0, 47, 39
1, 1097325, Note_off_c, 0, 63, 50
1, 1097380, Note_off_c, 0, 54, 39
1, 1097611, Note_on_c, 0, 69, 57
1, 1097638, Note_on_c, 0, 63, 66
1, 1097662, Note_on_c, 0, 53, 41
1, 1097675, Note_off_c, 0, 70, 53
1, 1097677, Note_on_c, 0, 66, 43
1, 1097683, Note_on_c, 0, 48, 36
1, 1097719, Control_c, 0, 64, 116
1, 1097733, Control_c, 0, 64, 94
1, 1097748, Control_c, 0, 64, 78
1, 1097760, Note_off_c, 0, 66, 58
1, 1097763, Control_c, 0, 64, 66
1, 1097777, Control_c, 0, 64, 51
1, 1097792, Control_c, 0, 64, 43
1, 1097801, Note_on_c, 0, 65, 54
1, 1097807, Control_c, 0, 64, 47
1, 1097822, Control_c, 0, 64, 56
1, 1097837, Control_c, 0, 64, 62
1, 1097838, Note_off_c, 0, 65, 62
1, 1097852, Control_c, 0, 64, 65
1, 1097867, Note_on_c, 0, 66, 63
1, 1097867, Control_c, 0, 64, 68
1, 1097882, Control_c, 0, 64, 68
1, 1097897, Control_c, 0, 64, 67
1, 1097909, Note_off_c, 0, 66, 58
1, 1097912, Control_c, 0, 64, 65
1, 1097926, Control_c, 0, 64, 64
1, 1097941, Control_c, 0, 64, 63
1, 1097944, Note_on_c, 0, 65, 56
1, 1097956, Control_c, 0, 64, 62
1, 1097971, Control_c, 0, 64, 59
1, 1097978, Note_off_c, 0, 65, 65
1, 1097985, Control_c, 0, 64, 53
1, 1097999, Note_on_c, 0, 66, 64
1, 1098000, Control_c, 0, 64, 39
1, 1098015, Control_c, 0, 64, 14
1, 1098026, Note_off_c, 0, 66, 64
1, 1098030, Control_c, 0, 64, 0
1, 1098089, Note_on_c, 0, 66, 54
1, 1098108, Note_on_c, 0, 65, 27
1, 1098118, Note_off_c, 0, 66, 62
1, 1098155, Note_off_c, 0, 65, 62
1, 1098183, Note_on_c, 0, 64, 56
1, 1098207, Note_off_c, 0, 64, 61
1, 1098232, Note_on_c, 0, 65, 54
1, 1098272, Note_off_c, 0, 65, 61
1, 1098279, Note_off_c, 0, 48, 49
1, 1098284, Note_off_c, 0, 53, 51
1, 1098286, Note_off_c, 0, 63, 56
1, 1098294, Note_on_c, 0, 68, 56
1, 1098339, Note_on_c, 0, 66, 53
1, 1098376, Note_off_c, 0, 68, 55
1, 1098400, Note_off_c, 0, 66, 62
1, 1098420, Note_on_c, 0, 65, 47
1, 1098432, Note_on_c, 0, 63, 39
1, 1098436, Note_on_c, 0, 53, 40
1, 1098453, Note_on_c, 0, 48, 31
1, 1098543, Control_c, 0, 64, 28
1, 1098557, Control_c, 0, 64, 64
1, 1098572, Control_c, 0, 64, 74
1, 1098587, Control_c, 0, 64, 87
1, 1098601, Control_c, 0, 64, 113
1, 1098616, Control_c, 0, 64, 127
1, 1098702, Note_off_c, 0, 63, 35
1, 1098713, Note_off_c, 0, 48, 37
1, 1098717, Note_off_c, 0, 53, 40
1, 1098859, Note_off_c, 0, 69, 63
1, 1098880, Note_on_c, 0, 48, 36
1, 1098883, Note_on_c, 0, 63, 32
1, 1098889, Note_on_c, 0, 53, 39
1, 1099166, Note_on_c, 0, 69, 43
1, 1099167, Note_off_c, 0, 65, 42
1, 1099273, Note_on_c, 0, 73, 57
1, 1099275, Control_c, 0, 64, 94
1, 1099290, Control_c, 0, 64, 76
1, 1099304, Control_c, 0, 64, 65
1, 1099319, Control_c, 0, 64, 64
1, 1099334, Control_c, 0, 64, 68
1, 1099349, Control_c, 0, 64, 75
1, 1099364, Note_off_c, 0, 69, 36
1, 1099364, Control_c, 0, 64, 85
1, 1099378, Control_c, 0, 64, 103
1, 1099393, Control_c, 0, 64, 127
1, 1099510, Note_off_c, 0, 48, 40
1, 1099521, Note_off_c, 0, 53, 47
1, 1099530, Note_off_c, 0, 63, 42
1, 1099662, Note_on_c, 0, 72, 57
1, 1099672, Note_on_c, 0, 63, 39
1, 1099685, Note_on_c, 0, 53, 34
1, 1099689, Note_off_c, 0, 73, 64
1, 1099694, Note_on_c, 0, 48, 31
1, 1099727, Control_c, 0, 64, 105
1, 1099742, Control_c, 0, 64, 84
1, 1099756, Control_c, 0, 64, 77
1, 1099771, Control_c, 0, 64, 78
1, 1099786, Control_c, 0, 64, 81
1, 1099801, Control_c, 0, 64, 86
1, 1099816, Control_c, 0, 64, 93
1, 1099831, Control_c, 0, 64, 110
1, 1099846, Control_c, 0, 64, 127
1, 1099903, Note_off_c, 0, 63, 53
1, 1099909, Note_off_c, 0, 48, 42
1, 1100183, Note_on_c, 0, 70, 61
1, 1100228, Note_off_c, 0, 72, 60
1, 1100228, Note_on_c, 0, 54, 40
1, 1100229, Note_on_c, 0, 66, 36
1, 1100237, Note_on_c, 0, 61, 38
1, 1100258, Note_on_c, 0, 49, 33
1, 1100272, Note_off_c, 0, 53, 40
1, 1100275, Control_c, 0, 64, 92
1, 1100290, Control_c, 0, 64, 72
1, 1100305, Control_c, 0, 64, 52
1, 1100320, Control_c, 0, 64, 0
1, 1100371, Control_c, 0, 64, 21
1, 1100386, Control_c, 0, 64, 59
1, 1100401, Control_c, 0, 64, 67
1, 1100412, Note_off_c, 0, 66, 57
1, 1100416, Control_c, 0, 64, 73
1, 1100431, Note_on_c, 0, 65, 42
1, 1100431, Control_c, 0, 64, 77
1, 1100460, Control_c, 0, 64, 74
1, 1100475, Control_c, 0, 64, 69
1, 1100483, Note_off_c, 0, 65, 50
1, 1100490, Control_c, 0, 64, 65
1, 1100505, Control_c, 0, 64, 63
1, 1100508, Note_on_c, 0, 66, 57
1, 1100520, Control_c, 0, 64, 56
1, 1100535, Control_c, 0, 64, 28
1, 1100550, Control_c, 0, 64, 0
1, 1100550, Note_off_c, 0, 66, 59
1, 1100585, Note_on_c, 0, 65, 59
1, 1100624, Note_off_c, 0, 65, 63
1, 1100643, Note_on_c, 0, 66, 57
1, 1100666, Note_off_c, 0, 66, 63
1, 1100711, Note_on_c, 0, 65, 28
1, 1100731, Note_on_c, 0, 66, 68
1, 1100741, Note_off_c, 0, 65, 0
1, 1100761, Note_off_c, 0, 66, 65
1, 1100772, Note_on_c, 0, 65, 37
1, 1100806, Note_off_c, 0, 65, 65
1, 1100827, Note_on_c, 0, 64, 56
1, 1100850, Note_off_c, 0, 64, 61
1, 1100884, Note_on_c, 0, 65, 49
1, 1100885, Note_off_c, 0, 61, 43
1, 1100911, Note_off_c, 0, 65, 59
1, 1100918, Note_off_c, 0, 49, 43
1, 1100944, Note_on_c, 0, 68, 51
1, 1100979, Note_on_c, 0, 66, 54
1, 1100990, Note_off_c, 0, 68, 49
1, 1101043, Note_off_c, 0, 66, 61
1, 1101065, Note_on_c, 0, 65, 40
1, 1101073, Note_on_c, 0, 49, 31
1, 1101104, Note_on_c, 0, 61, 33
1, 1101107, Note_on_c, 0, 53, 36
1, 1101140, Note_off_c, 0, 54, 38
1, 1101209, Control_c, 0, 64, 47
1, 1101224, Control_c, 0, 64, 65
1, 1101239, Control_c, 0, 64, 73
1, 1101254, Control_c, 0, 64, 82
1, 1101268, Control_c, 0, 64, 93
1, 1101283, Control_c, 0, 64, 106
1, 1101298, Control_c, 0, 64, 127
1, 1101365, Note_off_c, 0, 53, 46
1, 1101368, Note_off_c, 0, 61, 41
1, 1101372, Note_off_c, 0, 49, 44
1, 1101505, Note_on_c, 0, 61, 42
1, 1101510, Note_on_c, 0, 49, 33
1, 1101517, Note_on_c, 0, 53, 31
1, 1101551, Control_c, 0, 64, 90
1, 1101566, Control_c, 0, 64, 72
1, 1101581, Control_c, 0, 64, 57
1, 1101596, Control_c, 0, 64, 49
1, 1101611, Control_c, 0, 64, 61
1, 1101625, Control_c, 0, 64, 67
1, 1101640, Control_c, 0, 64, 73
1, 1101655, Control_c, 0, 64, 84
1, 1101670, Control_c, 0, 64, 106
1, 1101685, Control_c, 0, 64, 127
1, 1101814, Note_off_c, 0, 70, 60
1, 1101937, Note_on_c, 0, 70, 67
1, 1102068, Note_off_c, 0, 49, 36
1, 1102121, Note_off_c, 0, 61, 26
1, 1102137, Note_off_c, 0, 53, 37
1, 1102264, Note_off_c, 0, 70, 53
1, 1102436, Note_on_c, 0, 70, 52
1, 1102478, Note_on_c, 0, 61, 32
1, 1102479, Note_on_c, 0, 49, 31
1, 1102483, Note_on_c, 0, 53, 35
1, 1102511, Note_off_c, 0, 65, 48
1, 1102543, Note_off_c, 0, 53, 57
1, 1102563, Note_off_c, 0, 61, 38
1, 1102629, Note_off_c, 0, 49, 38
1, 1103252, Note_on_c, 0, 71, 51
1, 1103280, Note_on_c, 0, 59, 36
1, 1103299, Note_on_c, 0, 39, 28
1, 1103396, Control_c, 0, 64, 106
1, 1103411, Control_c, 0, 64, 87
1, 1103416, Note_off_c, 0, 70, 33
1, 1103426, Control_c, 0, 64, 75
1, 1103441, Control_c, 0, 64, 66
1, 1103456, Control_c, 0, 64, 58
1, 1103471, Control_c, 0, 64, 44
1, 1103486, Control_c, 0, 64, 0
1, 1103634, Control_c, 0, 64, 50
1, 1103649, Control_c, 0, 64, 64
1, 1103664, Control_c, 0, 64, 69
1, 1103678, Control_c, 0, 64, 74
1, 1103693, Control_c, 0, 64, 80
1, 1103708, Control_c, 0, 64, 86
1, 1103722, Control_c, 0, 64, 92
1, 1103737, Control_c, 0, 64, 99
1, 1103752, Control_c, 0, 64, 105
1, 1103767, Control_c, 0, 64, 113
1, 1103782, Control_c, 0, 64, 127
1, 1104055, Note_off_c, 0, 59, 29
1, 1104532, Note_on_c, 0, 54, 28
1, 1104540, Note_on_c, 0, 66, 21
1, 1104632, Note_off_c, 0, 66, 0
1, 1104632, Note_on_c, 0, 66, 3
1, 1104659, Note_off_c, 0, 71, 39
1, 1104665, Control_c, 0, 64, 109
1, 1104680, Control_c, 0, 64, 87
1, 1104695, Control_c, 0, 64, 73
1, 1104709, Control_c, 0, 64, 63
1, 1104724, Control_c, 0, 64, 52
1, 1104739, Control_c, 0, 64, 51
1, 1104754, Control_c, 0, 64, 56
1, 1104768, Control_c, 0, 64, 61
1, 1104783, Control_c, 0, 64, 65
1, 1104798, Control_c, 0, 64, 71
1, 1104813, Control_c, 0, 64, 79
1, 1104828, Control_c, 0, 64, 90
1, 1104850, Control_c, 0, 64, 104
1, 1104865, Control_c, 0, 64, 119
1, 1104880, Control_c, 0, 64, 127
1, 1105031, Note_off_c, 0, 54, 44
1, 1105039, Note_off_c, 0, 66, 42
1, 1105527, Note_on_c, 0, 63, 40
1, 1105547, Note_on_c, 0, 51, 28
1, 1105577, Control_c, 0, 64, 93
1, 1105599, Control_c, 0, 64, 79
1, 1105614, Control_c, 0, 64, 75
1, 1105629, Control_c, 0, 64, 77
1, 1105644, Control_c, 0, 64, 83
1, 1105659, Control_c, 0, 64, 92
1, 1105673, Control_c, 0, 64, 108
1, 1105688, Control_c, 0, 64, 127
1, 1105999, Note_on_c, 0, 59, 42
1, 1106009, Note_off_c, 0, 51, 39
1, 1106023, Note_on_c, 0, 47, 32
1, 1106297, Note_off_c, 0, 47, 38
1, 1106308, Note_off_c, 0, 59, 24
1, 1106569, Note_on_c, 0, 54, 40
1, 1106592, Note_on_c, 0, 42, 33
1, 1106600, Control_c, 0, 64, 111
1, 1106614, Control_c, 0, 64, 90
1, 1106629, Control_c, 0, 64, 75
1, 1106644, Control_c, 0, 64, 61
1, 1106659, Control_c, 0, 64, 0
1, 1106753, Note_off_c, 0, 63, 42
1, 1106762, Control_c, 0, 64, 38
1, 1106777, Control_c, 0, 64, 59
1, 1106792, Control_c, 0, 64, 65
1, 1106807, Control_c, 0, 64, 68
1, 1106821, Control_c, 0, 64, 72
1, 1106836, Control_c, 0, 64, 77
1, 1106851, Control_c, 0, 64, 82
1, 1106866, Control_c, 0, 64, 87
1, 1106881, Control_c, 0, 64, 91
1, 1106896, Control_c, 0, 64, 95
1, 1106911, Control_c, 0, 64, 99
1, 1106926, Control_c, 0, 64, 104
1, 1106940, Control_c, 0, 64, 109
1, 1106955, Control_c, 0, 64, 114
1, 1106970, Control_c, 0, 64, 124
1, 1106985, Control_c, 0, 64, 127
1, 1107090, Note_off_c, 0, 39, 37
1, 1107244, Note_off_c, 0, 54, 38
1, 1107269, Note_off_c, 0, 42, 33
1, 1107674, Control_c, 0, 64, 120
1, 1107689, Control_c, 0, 64, 113
1, 1107704, Control_c, 0, 64, 107
1, 1107719, Control_c, 0, 64, 102
1, 1107734, Control_c, 0, 64, 96
1, 1107749, Control_c, 0, 64, 90
1, 1107763, Control_c, 0, 64, 84
1, 1107778, Control_c, 0, 64, 77
1, 1107793, Control_c, 0, 64, 72
1, 1107808, Control_c, 0, 64, 68
1, 1107823, Control_c, 0, 64, 66
1, 1107846, Control_c, 0, 64, 64
1, 1107860, Control_c, 0, 64, 64
1, 1107875, Control_c, 0, 64, 63
1, 1107890, Control_c, 0, 64, 60
1, 1107905, Control_c, 0, 64, 52
1, 1107920, Control_c, 0, 64, 38
1, 1107936, Control_c, 0, 64, 23
1, 1107950, Control_c, 0, 64, 14
1, 1107965, Control_c, 0, 64, 11
1, 1108024, Control_c, 0, 64, 26
1, 1108039, Control_c, 0, 64, 49
1, 1108054, Control_c, 0, 64, 63
1, 1108068, Control_c, 0, 64, 71
1, 1108081, Note_on_c, 0, 53, 35
1, 1108083, Control_c, 0, 64, 78
1, 1108094, Note_on_c, 0, 41, 30
1, 1108098, Control_c, 0, 64, 87
1, 1108112, Control_c, 0, 64, 96
1, 1108127, Control_c, 0, 64, 106
1, 1108142, Control_c, 0, 64, 127
1, 1108274, Note_off_c, 0, 53, 39
1, 1108646, Note_off_c, 0, 41, 40
1, 1109506, Control_c, 0, 64, 106
1, 1109520, Note_on_c, 0, 46, 44
1, 1109521, Control_c, 0, 64, 82
1, 1109529, Note_on_c, 0, 34, 30
1, 1109536, Control_c, 0, 64, 66
1, 1109551, Control_c, 0, 64, 54
1, 1109565, Control_c, 0, 64, 57
1, 1109580, Control_c, 0, 64, 64
1, 1109595, Control_c, 0, 64, 68
1, 1109610, Control_c, 0, 64, 75
1, 1109614, Note_off_c, 0, 34, 39
1, 1109625, Control_c, 0, 64, 84
1, 1109638, Note_on_c, 0, 33, 27
1, 1109639, Control_c, 0, 64, 100
1, 1109654, Control_c, 0, 64, 127
1, 1109725, Note_off_c, 0, 33, 49
1, 1109758, Note_on_c, 0, 34, 42
1, 1109811, Note_off_c, 0, 34, 52
1, 1109833, Note_on_c, 0, 33, 32
1, 1109883, Note_off_c, 0, 33, 53
1, 1109917, Note_on_c, 0, 34, 38
1, 1109964, Note_off_c, 0, 34, 52
1, 1109992, Note_on_c, 0, 58, 44
1, 1109999, Note_on_c, 0, 33, 36
1, 1110039, Note_off_c, 0, 33, 50
1, 1110061, Note_on_c, 0, 34, 43
1, 1110112, Note_off_c, 0, 34, 56
1, 1110125, Note_off_c, 0, 58, 50
1, 1110154, Note_on_c, 0, 33, 33
1, 1110170, Note_off_c, 0, 46, 41
1, 1110195, Note_off_c, 0, 33, 49
1, 1110212, Note_on_c, 0, 34, 43
1, 1110244, Note_on_c, 0, 58, 62
1, 1110260, Note_off_c, 0, 34, 50
1, 1110300, Note_on_c, 0, 33, 33
1, 1110336, Note_off_c, 0, 33, 50
1, 1110347, Note_on_c, 0, 34, 41
1, 1110389, Note_off_c, 0, 34, 55
1, 1110417, Note_off_c, 0, 58, 36
1, 1110427, Note_on_c, 0, 33, 33
1, 1110452, Note_on_c, 0, 59, 69
1, 1110456, Note_on_c, 0, 58, 52
1, 1110467, Note_off_c, 0, 33, 50
1, 1110480, Note_on_c, 0, 34, 45
1, 1110527, Note_off_c, 0, 34, 51
1, 1110557, Note_off_c, 0, 59, 54
1, 1110565, Note_on_c, 0, 33, 36
1, 1110568, Note_off_c, 0, 58, 54
1, 1110600, Note_off_c, 0, 33, 52
1, 1110628, Note_on_c, 0, 34, 49
1, 1110655, Note_on_c, 0, 58, 57
1, 1110657, Note_on_c, 0, 59, 63
1, 1110676, Note_off_c, 0, 34, 54
1, 1110703, Note_on_c, 0, 33, 46
1, 1110747, Note_off_c, 0, 59, 49
1, 1110750, Note_off_c, 0, 33, 54
1, 1110757, Note_off_c, 0, 58, 55
1, 1110778, Note_on_c, 0, 34, 50
1, 1110808, Note_on_c, 0, 59, 57
1, 1110817, Note_on_c, 0, 56, 65
1, 1110823, Note_off_c, 0, 34, 56
1, 1110862, Note_on_c, 0, 33, 46
1, 1110902, Note_off_c, 0, 59, 52
1, 1110906, Note_off_c, 0, 33, 57
1, 1110912, Note_off_c, 0, 56, 53
1, 1110928, Note_on_c, 0, 34, 53
1, 1110988, Note_off_c, 0, 34, 55
1, 1110989, Note_on_c, 0, 56, 57
1, 1110990, Note_on_c, 0, 59, 67
1, 1111017, Note_on_c, 0, 33, 51
1, 1111060, Note_off_c, 0, 56, 63
1, 1111067, Note_off_c, 0, 59, 53
1, 1111077, Note_off_c, 0, 33, 56
1, 1111104, Note_on_c, 0, 34, 52
1, 1111143, Note_on_c, 0, 59, 63
1, 1111155, Note_on_c, 0, 54, 63
1, 1111155, Note_on_c, 0, 58, 63
1, 1111168, Note_off_c, 0, 34, 52
1, 1111196, Note_on_c, 0, 33, 49
1, 1111213, Note_off_c, 0, 59, 55
1, 1111217, Note_off_c, 0, 54, 59
1, 1111221, Note_off_c, 0, 58, 59
1, 1111260, Note_off_c, 0, 33, 57
1, 1111296, Note_on_c, 0, 34, 57
1, 1111298, Note_on_c, 0, 56, 70
1, 1111303, Note_on_c, 0, 59, 73
1, 1111308, Note_on_c, 0, 53, 62
1, 1111336, Note_off_c, 0, 53, 68
1, 1111343, Note_off_c, 0, 34, 53
1, 1111360, Note_off_c, 0, 59, 60
1, 1111383, Note_on_c, 0, 33, 51
1, 1111387, Note_off_c, 0, 56, 61
1, 1111439, Note_off_c, 0, 33, 57
1, 1111449, Note_on_c, 0, 59, 76
1, 1111455, Note_on_c, 0, 51, 71
1, 1111455, Note_on_c, 0, 54, 70
1, 1111464, Note_on_c, 0, 34, 59
1, 1111501, Note_off_c, 0, 59, 58
1, 1111511, Note_off_c, 0, 34, 58
1, 1111526, Note_off_c, 0, 54, 63
1, 1111532, Note_off_c, 0, 51, 59
1, 1111550, Note_on_c, 0, 33, 51
1, 1111604, Note_off_c, 0, 33, 58
1, 1111606, Note_on_c, 0, 58, 85
1, 1111609, Note_on_c, 0, 34, 63
1, 1111620, Note_on_c, 0, 50, 68
1, 1111624, Note_on_c, 0, 53, 71
1, 1111671, Note_off_c, 0, 34, 59
1, 1111692, Note_on_c, 0, 33, 63
1, 1111728, Note_off_c, 0, 50, 63
1, 1111736, Note_off_c, 0, 33, 60
1, 1111750, Note_on_c, 0, 56, 83
1, 1111752, Note_on_c, 0, 34, 68
1, 1111811, Note_off_c, 0, 34, 59
1, 1111821, Note_off_c, 0, 58, 52
1, 1111825, Note_on_c, 0, 33, 64
1, 1111879, Note_off_c, 0, 33, 56
1, 1111883, Note_on_c, 0, 34, 64
1, 1111943, Note_off_c, 0, 34, 59
1, 1111948, Note_on_c, 0, 33, 61
1, 1111974, Control_c, 0, 64, 94
1, 1111975, Note_on_c, 0, 54, 86
1, 1111984, Note_on_c, 0, 51, 64
1, 1111989, Control_c, 0, 64, 69
1, 1111998, Note_off_c, 0, 53, 67
1, 1112002, Note_on_c, 0, 34, 62
1, 1112004, Note_off_c, 0, 33, 60
1, 1112004, Control_c, 0, 64, 42
1, 1112017, Note_off_c, 0, 56, 61
1, 1112019, Control_c, 0, 64, 57
1, 1112033, Control_c, 0, 64, 68
1, 1112048, Control_c, 0, 64, 77
1, 1112063, Control_c, 0, 64, 98
1, 1112070, Note_off_c, 0, 34, 60
1, 1112077, Note_on_c, 0, 33, 62
1, 1112078, Control_c, 0, 64, 127
1, 1112128, Note_off_c, 0, 54, 64
1, 1112136, Note_on_c, 0, 34, 59
1, 1112140, Note_off_c, 0, 33, 58
1, 1112207, Note_off_c, 0, 34, 57
1, 1112220, Note_off_c, 0, 51, 60
1, 1112224, Note_on_c, 0, 33, 52
1, 1112263, Note_on_c, 0, 63, 68
1, 1112277, Note_off_c, 0, 33, 58
1, 1112285, Note_on_c, 0, 34, 57
1, 1112351, Note_off_c, 0, 63, 54
1, 1112354, Note_off_c, 0, 34, 59
1, 1112384, Note_on_c, 0, 33, 56
1, 1112429, Note_on_c, 0, 63, 72
1, 1112429, Note_off_c, 0, 33, 59
1, 1112452, Note_on_c, 0, 34, 58
1, 1112488, Note_off_c, 0, 34, 60
1, 1112515, Control_c, 0, 67, 127
1, 1112524, Note_off_c, 0, 63, 60
1, 1112527, Note_on_c, 0, 33, 56
1, 1112559, Control_c, 0, 67, 126
1, 1112572, Note_off_c, 0, 33, 58
1, 1112578, Note_on_c, 0, 64, 80
1, 1112588, Note_on_c, 0, 63, 73
1, 1112589, Control_c, 0, 67, 126
1, 1112591, Note_on_c, 0, 34, 64
1, 1112604, Control_c, 0, 67, 125
1, 1112619, Control_c, 0, 67, 124
1, 1112634, Control_c, 0, 67, 123
1, 1112644, Note_off_c, 0, 34, 60
1, 1112649, Control_c, 0, 67, 122
1, 1112655, Note_off_c, 0, 64, 59
1, 1112673, Note_on_c, 0, 33, 57
1, 1112673, Note_off_c, 0, 63, 58
1, 1112679, Control_c, 0, 67, 122
1, 1112694, Control_c, 0, 67, 121
1, 1112709, Control_c, 0, 67, 121
1, 1112723, Control_c, 0, 67, 120
1, 1112727, Note_off_c, 0, 33, 52
1, 1112738, Note_on_c, 0, 34, 63
1, 1112738, Control_c, 0, 67, 120
1, 1112740, Note_on_c, 0, 63, 71
1, 1112741, Note_on_c, 0, 64, 77
1, 1112753, Control_c, 0, 67, 119
1, 1112768, Control_c, 0, 67, 119
1, 1112782, Control_c, 0, 67, 118
1, 1112804, Note_off_c, 0, 64, 59
1, 1112811, Note_off_c, 0, 34, 57
1, 1112812, Control_c, 0, 67, 118
1, 1112827, Control_c, 0, 67, 117
1, 1112828, Note_off_c, 0, 63, 60
1, 1112840, Note_on_c, 0, 33, 50
1, 1112842, Control_c, 0, 67, 117
1, 1112856, Control_c, 0, 67, 116
1, 1112871, Control_c, 0, 67, 115
1, 1112886, Control_c, 0, 67, 114
1, 1112888, Note_on_c, 0, 61, 77
1, 1112890, Note_off_c, 0, 33, 58
1, 1112891, Note_on_c, 0, 64, 79
1, 1112901, Note_on_c, 0, 34, 59
1, 1112915, Control_c, 0, 67, 114
1, 1112930, Control_c, 0, 67, 113
1, 1112951, Note_off_c, 0, 64, 58
1, 1112954, Note_off_c, 0, 61, 56
1, 1112960, Control_c, 0, 67, 113
1, 1112967, Note_off_c, 0, 34, 57
1, 1112974, Control_c, 0, 67, 112
1, 1112989, Control_c, 0, 67, 112
1, 1113004, Note_on_c, 0, 33, 50
1, 1113004, Control_c, 0, 67, 111
1, 1113019, Control_c, 0, 67, 111
1, 1113028, Note_on_c, 0, 61, 75
1, 1113031, Note_on_c, 0, 64, 72
1, 1113034, Control_c, 0, 67, 110
1, 1113040, Note_off_c, 0, 33, 58
1, 1113047, Note_on_c, 0, 34, 57
1, 1113049, Control_c, 0, 67, 110
1, 1113063, Control_c, 0, 67, 109
1, 1113086, Control_c, 0, 67, 109
1, 1113101, Note_off_c, 0, 64, 60
1, 1113101, Control_c, 0, 67, 108
1, 1113108, Note_off_c, 0, 61, 57
1, 1113115, Control_c, 0, 67, 107
1, 1113120, Note_off_c, 0, 34, 60
1, 1113130, Control_c, 0, 67, 107
1, 1113138, Note_on_c, 0, 33, 57
1, 1113145, Control_c, 0, 67, 106
1, 1113160, Control_c, 0, 67, 105
1, 1113180, Note_on_c, 0, 64, 74
1, 1113181, Note_on_c, 0, 59, 70
1, 1113186, Note_on_c, 0, 63, 71
1, 1113189, Control_c, 0, 67, 105
1, 1113204, Control_c, 0, 67, 104
1, 1113211, Note_off_c, 0, 33, 59
1, 1113219, Control_c, 0, 67, 104
1, 1113222, Note_on_c, 0, 34, 67
1, 1113230, Note_off_c, 0, 59, 59
1, 1113234, Control_c, 0, 67, 103
1, 1113249, Control_c, 0, 67, 103
1, 1113257, Note_off_c, 0, 64, 60
1, 1113263, Control_c, 0, 67, 102
1, 1113265, Note_off_c, 0, 63, 60
1, 1113278, Control_c, 0, 67, 101
1, 1113289, Note_off_c, 0, 34, 58
1, 1113293, Control_c, 0, 67, 100
1, 1113308, Control_c, 0, 67, 100
1, 1113311, Note_on_c, 0, 33, 61
1, 1113332, Note_on_c, 0, 64, 77
1, 1113335, Note_on_c, 0, 61, 74
1, 1113336, Note_on_c, 0, 58, 72
1, 1113338, Control_c, 0, 67, 99
1, 1113353, Control_c, 0, 67, 99
1, 1113368, Note_off_c, 0, 33, 59
1, 1113372, Note_on_c, 0, 34, 62
1, 1113382, Control_c, 0, 67, 98
1, 1113385, Note_off_c, 0, 64, 63
1, 1113387, Note_off_c, 0, 58, 61
1, 1113412, Note_off_c, 0, 61, 61
1, 1113412, Control_c, 0, 67, 98
1, 1113441, Note_off_c, 0, 34, 59
1, 1113457, Control_c, 0, 67, 97
1, 1113469, Note_on_c, 0, 33, 59
1, 1113470, Note_on_c, 0, 64, 86
1, 1113473, Note_on_c, 0, 59, 79
1, 1113475, Note_on_c, 0, 56, 78
1, 1113512, Note_off_c, 0, 33, 61
1, 1113517, Note_on_c, 0, 34, 63
1, 1113533, Note_off_c, 0, 64, 59
1, 1113544, Note_off_c, 0, 59, 60
1, 1113546, Control_c, 0, 67, 97
1, 1113552, Note_off_c, 0, 56, 59
1, 1113576, Control_c, 0, 67, 96
1, 1113586, Note_off_c, 0, 34, 57
1, 1113605, Control_c, 0, 67, 96
1, 1113609, Note_on_c, 0, 33, 65
1, 1113624, Note_on_c, 0, 63, 86
1, 1113633, Note_on_c, 0, 55, 75
1, 1113635, Note_on_c, 0, 58, 80
1, 1113635, Control_c, 0, 67, 95
1, 1113650, Control_c, 0, 67, 95
1, 1113661, Note_on_c, 0, 34, 64
1, 1113664, Note_off_c, 0, 33, 58
1, 1113665, Control_c, 0, 67, 94
1, 1113679, Control_c, 0, 67, 94
1, 1113725, Note_off_c, 0, 34, 61
1, 1113740, Note_on_c, 0, 33, 66
1, 1113753, Control_c, 0, 67, 93
1, 1113767, Note_off_c, 0, 55, 61
1, 1113781, Note_on_c, 0, 61, 90
1, 1113797, Note_on_c, 0, 34, 76
1, 1113797, Note_off_c, 0, 33, 60
1, 1113797, Control_c, 0, 67, 93
1, 1113812, Control_c, 0, 67, 92
1, 1113843, Note_off_c, 0, 63, 56
1, 1113850, Control_c, 0, 67, 92
1, 1113872, Note_off_c, 0, 34, 60
1, 1113879, Control_c, 0, 67, 91
1, 1113883, Note_on_c, 0, 33, 68
1, 1113894, Control_c, 0, 67, 91
1, 1113925, Control_c, 0, 67, 90
1, 1113948, Note_off_c, 0, 33, 59
1, 1113949, Note_on_c, 0, 34, 72
1, 1113984, Control_c, 0, 64, 109
1, 1113991, Note_on_c, 0, 59, 87
1, 1113999, Note_on_c, 0, 56, 80
1, 1113999, Control_c, 0, 64, 80
1, 1114008, Note_off_c, 0, 58, 61
1, 1114010, Note_off_c, 0, 34, 61
1, 1114013, Control_c, 0, 64, 68
1, 1114017, Note_on_c, 0, 33, 62
1, 1114028, Control_c, 0, 64, 70
1, 1114043, Control_c, 0, 64, 79
1, 1114044, Note_off_c, 0, 61, 55
1, 1114057, Control_c, 0, 64, 94
1, 1114072, Control_c, 0, 64, 127
1, 1114088, Note_on_c, 0, 34, 70
1, 1114088, Note_off_c, 0, 33, 59
1, 1114101, Note_off_c, 0, 59, 63
1, 1114117, Control_c, 0, 67, 90
1, 1114152, Note_on_c, 0, 59, 78
1, 1114153, Note_off_c, 0, 34, 60
1, 1114160, Note_on_c, 0, 33, 61
1, 1114161, Control_c, 0, 67, 89
1, 1114213, Note_off_c, 0, 33, 55
1, 1114214, Note_on_c, 0, 34, 59
1, 1114232, Note_off_c, 0, 59, 62
1, 1114236, Control_c, 0, 67, 89
1, 1114277, Note_off_c, 0, 34, 60
1, 1114291, Note_on_c, 0, 33, 63
1, 1114301, Note_on_c, 0, 59, 87
1, 1114343, Note_off_c, 0, 33, 59
1, 1114348, Note_off_c, 0, 56, 63
1, 1114349, Note_on_c, 0, 34, 65
1, 1114390, Note_off_c, 0, 59, 59
1, 1114405, Note_off_c, 0, 34, 56
1, 1114420, Note_on_c, 0, 33, 64
1, 1114429, Control_c, 0, 67, 88
1, 1114442, Note_on_c, 0, 62, 96
1, 1114453, Note_on_c, 0, 59, 86
1, 1114476, Note_off_c, 0, 33, 59
1, 1114480, Note_on_c, 0, 34, 69
1, 1114493, Note_off_c, 0, 59, 54
1, 1114525, Note_off_c, 0, 62, 60
1, 1114533, Control_c, 0, 67, 88
1, 1114541, Note_off_c, 0, 34, 58
1, 1114581, Note_on_c, 0, 33, 52
1, 1114603, Note_on_c, 0, 62, 91
1, 1114608, Note_on_c, 0, 59, 84
1, 1114618, Note_on_c, 0, 34, 69
1, 1114622, Note_off_c, 0, 33, 60
1, 1114688, Note_off_c, 0, 34, 58
1, 1114706, Note_on_c, 0, 33, 66
1, 1114751, Note_off_c, 0, 33, 58
1, 1114753, Note_on_c, 0, 34, 69
1, 1114768, Note_on_c, 0, 58, 77
1, 1114806, Note_off_c, 0, 34, 62
1, 1114831, Note_off_c, 0, 58, 60
1, 1114921, Note_on_c, 0, 34, 57
1, 1114926, Note_on_c, 0, 58, 81
1, 1114926, Note_off_c, 0, 62, 59
1, 1114928, Note_off_c, 0, 59, 59
1, 1114954, Note_on_c, 0, 46, 66
1, 1114966, Note_off_c, 0, 34, 59
1, 1115025, Note_off_c, 0, 46, 61
1, 1115057, Note_off_c, 0, 58, 57
1, 1115066, Note_on_c, 0, 34, 59
1, 1115076, Note_on_c, 0, 63, 92
1, 1115080, Note_on_c, 0, 59, 68
1, 1115085, Note_on_c, 0, 56, 84
1, 1115103, Note_off_c, 0, 34, 60
1, 1115103, Control_c, 0, 67, 87
1, 1115107, Note_on_c, 0, 46, 71
1, 1115118, Control_c, 0, 67, 87
1, 1115132, Note_off_c, 0, 56, 57
1, 1115148, Control_c, 0, 67, 86
1, 1115163, Control_c, 0, 67, 86
1, 1115169, Note_off_c, 0, 63, 59
1, 1115170, Note_off_c, 0, 59, 60
1, 1115172, Note_off_c, 0, 46, 59
1, 1115177, Control_c, 0, 67, 85
1, 1115192, Control_c, 0, 67, 81
1, 1115194, Note_on_c, 0, 34, 56
1, 1115207, Control_c, 0, 67, 78
1, 1115222, Control_c, 0, 67, 75
1, 1115228, Note_on_c, 0, 63, 91
1, 1115234, Note_on_c, 0, 59, 79
1, 1115237, Control_c, 0, 67, 73
1, 1115240, Note_on_c, 0, 56, 81
1, 1115251, Control_c, 0, 67, 71
1, 1115257, Note_off_c, 0, 34, 52
1, 1115264, Note_on_c, 0, 46, 72
1, 1115266, Control_c, 0, 67, 69
1, 1115281, Control_c, 0, 67, 66
1, 1115296, Control_c, 0, 67, 64
1, 1115308, Note_off_c, 0, 56, 64
1, 1115311, Control_c, 0, 67, 61
1, 1115333, Control_c, 0, 67, 57
1, 1115340, Note_off_c, 0, 46, 58
1, 1115348, Control_c, 0, 67, 54
1, 1115363, Control_c, 0, 67, 51
1, 1115377, Control_c, 0, 67, 47
1, 1115379, Note_off_c, 0, 59, 50
1, 1115386, Note_on_c, 0, 34, 65
1, 1115392, Control_c, 0, 67, 45
1, 1115399, Note_on_c, 0, 58, 76
1, 1115406, Note_on_c, 0, 54, 74
1, 1115407, Control_c, 0, 67, 42
1, 1115421, Control_c, 0, 67, 39
1, 1115434, Note_off_c, 0, 34, 53
1, 1115436, Control_c, 0, 67, 36
1, 1115448, Note_on_c, 0, 46, 66
1, 1115451, Control_c, 0, 67, 33
1, 1115466, Control_c, 0, 67, 30
1, 1115469, Note_off_c, 0, 54, 59
1, 1115481, Control_c, 0, 67, 27
1, 1115483, Note_off_c, 0, 58, 56
1, 1115496, Control_c, 0, 67, 24
1, 1115498, Note_off_c, 0, 46, 52
1, 1115510, Control_c, 0, 67, 21
1, 1115525, Control_c, 0, 67, 18
1, 1115540, Control_c, 0, 67, 15
1, 1115546, Note_on_c, 0, 34, 69
1, 1115546, Note_on_c, 0, 58, 75
1, 1115554, Note_on_c, 0, 54, 71
1, 1115555, Control_c, 0, 67, 11
1, 1115570, Control_c, 0, 67, 8
1, 1115580, Note_off_c, 0, 63, 62
1, 1115584, Control_c, 0, 67, 0
1, 1115604, Note_on_c, 0, 46, 70
1, 1115609, Note_off_c, 0, 34, 57
1, 1115615, Note_off_c, 0, 54, 64
1, 1115644, Note_off_c, 0, 58, 58
1, 1115678, Note_off_c, 0, 46, 58
1, 1115682, Note_on_c, 0, 65, 92
1, 1115684, Note_on_c, 0, 58, 65
1, 1115690, Note_on_c, 0, 53, 79
1, 1115690, Note_on_c, 0, 62, 74
1, 1115711, Note_on_c, 0, 34, 67
1, 1115738, Note_off_c, 0, 53, 61
1, 1115770, Note_off_c, 0, 65, 59
1, 1115772, Note_off_c, 0, 62, 59
1, 1115773, Note_off_c, 0, 34, 57
1, 1115783, Note_off_c, 0, 58, 59
1, 1115790, Note_on_c, 0, 46, 62
1, 1115843, Note_on_c, 0, 65, 87
1, 1115845, Note_on_c, 0, 53, 87
1, 1115854, Note_on_c, 0, 58, 74
1, 1115856, Note_on_c, 0, 62, 72
1, 1115885, Note_on_c, 0, 34, 70
1, 1115889, Note_off_c, 0, 46, 58
1, 1115890, Note_off_c, 0, 53, 65
1, 1115907, Note_off_c, 0, 65, 59
1, 1115913, Note_off_c, 0, 62, 59
1, 1115925, Note_off_c, 0, 58, 63
1, 1115972, Note_off_c, 0, 34, 59
1, 1115998, Note_on_c, 0, 46, 73
1, 1116014, Note_on_c, 0, 66, 92
1, 1116015, Note_on_c, 0, 58, 90
1, 1116017, Note_on_c, 0, 51, 87
1, 1116085, Note_off_c, 0, 51, 62
1, 1116099, Note_off_c, 0, 66, 60
1, 1116104, Note_off_c, 0, 58, 61
1, 1116110, Note_off_c, 0, 46, 59
1, 1116159, Note_on_c, 0, 34, 69
1, 1116170, Note_on_c, 0, 66, 87
1, 1116170, Note_on_c, 0, 51, 88
1, 1116172, Note_on_c, 0, 58, 82
1, 1116211, Note_off_c, 0, 51, 67
1, 1116242, Note_off_c, 0, 66, 62
1, 1116244, Note_off_c, 0, 58, 63
1, 1116312, Note_on_c, 0, 46, 68
1, 1116313, Note_on_c, 0, 58, 90
1, 1116316, Note_on_c, 0, 67, 90
1, 1116320, Note_on_c, 0, 53, 77
1, 1116323, Note_off_c, 0, 34, 54
1, 1116331, Note_on_c, 0, 52, 64
1, 1116345, Note_off_c, 0, 53, 66
1, 1116353, Note_off_c, 0, 52, 62
1, 1116377, Note_off_c, 0, 67, 61
1, 1116390, Note_off_c, 0, 58, 56
1, 1116418, Note_off_c, 0, 46, 57
1, 1116452, Note_on_c, 0, 34, 70
1, 1116458, Note_on_c, 0, 59, 95
1, 1116459, Note_on_c, 0, 68, 94
1, 1116512, Note_off_c, 0, 59, 55
1, 1116518, Note_off_c, 0, 68, 62
1, 1116577, Note_off_c, 0, 34, 56
1, 1116592, Note_on_c, 0, 46, 70
1, 1116625, Note_on_c, 0, 68, 94
1, 1116629, Note_on_c, 0, 60, 87
1, 1116673, Note_off_c, 0, 68, 0
1, 1116677, Note_off_c, 0, 46, 60
1, 1116679, Note_off_c, 0, 60, 0
1, 1116699, Note_on_c, 0, 34, 70
1, 1116699, Note_on_c, 0, 69, 67
1, 1116703, Note_on_c, 0, 61, 79
1, 1116707, Poly_aftertouch_c, 0, 60, 0
1, 1116710, Poly_aftertouch_c, 0, 68, 127
1, 1116726, Note_off_c, 0, 61, 66
1, 1116748, Poly_aftertouch_c, 0, 68, 0
1, 1116769, Note_off_c, 0, 69, 64
1, 1116775, Note_off_c, 0, 34, 59
1, 1116800, Note_on_c, 0, 46, 58
1, 1116830, Control_c, 0, 64, 104
1, 1116845, Control_c, 0, 64, 68
1, 1116855, Note_on_c, 0, 34, 89
1, 1116860, Note_on_c, 0, 62, 82
1, 1116860, Note_on_c, 0, 70, 95
1, 1116860, Control_c, 0, 64, 0
1, 1116890, Note_on_c, 0, 71, 58
1, 1116904, Control_c, 0, 64, 64
1, 1116919, Control_c, 0, 64, 88
1, 1116920, Note_off_c, 0, 71, 50
1, 1116934, Control_c, 0, 64, 127
1, 1116964, Note_off_c, 0, 34, 60
1, 1116991, Note_off_c, 0, 46, 62
1, 1117034, Note_off_c, 0, 70, 64
1, 1117121, Note_on_c, 0, 58, 91
1, 1117121, Note_on_c, 0, 70, 96
1, 1117225, Note_off_c, 0, 70, 61
1, 1117240, Note_off_c, 0, 58, 59
1, 1117321, Note_on_c, 0, 70, 92
1, 1117323, Note_on_c, 0, 58, 90
1, 1117421, Note_off_c, 0, 70, 63
1, 1117426, Note_off_c, 0, 58, 57
1, 1117499, Note_on_c, 0, 58, 83
1, 1117499, Note_on_c, 0, 71, 90
1, 1117500, Note_on_c, 0, 59, 76
1, 1117505, Note_on_c, 0, 70, 83
1, 1117512, Note_off_c, 0, 62, 38
1, 1117566, Note_off_c, 0, 59, 59
1, 1117580, Note_off_c, 0, 58, 59
1, 1117588, Note_off_c, 0, 71, 61
1, 1117596, Note_off_c, 0, 70, 62
1, 1117664, Note_on_c, 0, 59, 73
1, 1117666, Note_on_c, 0, 58, 86
1, 1117666, Note_on_c, 0, 71, 87
1, 1117670, Note_on_c, 0, 70, 79
1, 1117721, Note_off_c, 0, 59, 59
1, 1117735, Note_off_c, 0, 71, 60
1, 1117738, Note_off_c, 0, 58, 59
1, 1117743, Note_off_c, 0, 70, 61
1, 1117800, Note_on_c, 0, 71, 83
1, 1117804, Note_on_c, 0, 56, 88
1, 1117805, Note_on_c, 0, 68, 82
1, 1117810, Note_on_c, 0, 59, 80
1, 1117857, Note_off_c, 0, 71, 62
1, 1117862, Note_off_c, 0, 56, 64
1, 1117863, Note_off_c, 0, 59, 59
1, 1117865, Note_off_c, 0, 68, 59
1, 1117942, Note_on_c, 0, 71, 92
1, 1117946, Note_on_c, 0, 56, 90
1, 1117953, Note_on_c, 0, 59, 79
1, 1117955, Note_on_c, 0, 68, 82
1, 1118005, Note_off_c, 0, 59, 56
1, 1118006, Note_off_c, 0, 68, 60
1, 1118010, Note_off_c, 0, 71, 60
1, 1118013, Note_off_c, 0, 56, 64
1, 1118083, Note_on_c, 0, 54, 85
1, 1118084, Note_on_c, 0, 58, 85
1, 1118086, Note_on_c, 0, 71, 88
1, 1118097, Note_on_c, 0, 66, 71
1, 1118098, Note_on_c, 0, 59, 65
1, 1118100, Note_on_c, 0, 70, 81
1, 1118125, Note_on_c, 0, 67, 53
1, 1118125, Note_off_c, 0, 59, 65
1, 1118133, Note_off_c, 0, 66, 50
1, 1118149, Note_off_c, 0, 67, 60
1, 1118154, Note_off_c, 0, 70, 62
1, 1118154, Note_off_c, 0, 71, 60
1, 1118157, Note_off_c, 0, 54, 64
1, 1118157, Note_off_c, 0, 58, 59
1, 1118220, Note_on_c, 0, 59, 80
1, 1118226, Note_on_c, 0, 56, 95
1, 1118228, Note_on_c, 0, 71, 98
1, 1118230, Note_on_c, 0, 65, 83
1, 1118235, Note_on_c, 0, 68, 82
1, 1118244, Note_on_c, 0, 53, 62
1, 1118260, Note_on_c, 0, 54, 41
1, 1118265, Note_off_c, 0, 65, 62
1, 1118271, Note_off_c, 0, 53, 68
1, 1118273, Note_off_c, 0, 59, 62
1, 1118286, Note_off_c, 0, 54, 60
1, 1118289, Note_off_c, 0, 56, 64
1, 1118291, Note_off_c, 0, 71, 63
1, 1118298, Note_off_c, 0, 68, 59
1, 1118372, Note_on_c, 0, 71, 95
1, 1118376, Note_on_c, 0, 66, 87
1, 1118377, Poly_aftertouch_c, 0, 70, 0
1, 1118378, Note_on_c, 0, 54, 53
1, 1118385, Note_on_c, 0, 51, 72
1, 1118387, Note_on_c, 0, 63, 79
1, 1118390, Note_on_c, 0, 58, 53
1, 1118410, Note_off_c, 0, 51, 67
1, 1118415, Note_on_c, 0, 55, 38
1, 1118419, Note_off_c, 0, 58, 59
1, 1118422, Note_off_c, 0, 54, 51
1, 1118423, Poly_aftertouch_c, 0, 70, 0
1, 1118431, Note_off_c, 0, 71, 58
1, 1118447, Note_off_c, 0, 55, 49
1, 1118448, Note_off_c, 0, 66, 57
1, 1118455, Note_off_c, 0, 63, 57
1, 1118518, Note_on_c, 0, 70, 91
1, 1118522, Note_on_c, 0, 58, 77
1, 1118528, Note_on_c, 0, 65, 86
1, 1118530, Note_on_c, 0, 62, 81
1, 1118530, Note_on_c, 0, 50, 73
1, 1118536, Control_c, 0, 64, 79
1, 1118543, Note_on_c, 0, 54, 21
1, 1118551, Control_c, 0, 64, 17
1, 1118560, Note_on_c, 0, 53, 52
1, 1118566, Control_c, 0, 64, 0
1, 1118569, Poly_aftertouch_c, 0, 51, 127
1, 1118581, Control_c, 0, 64, 48
1, 1118594, Note_off_c, 0, 54, 30
1, 1118595, Control_c, 0, 64, 67
1, 1118610, Control_c, 0, 64, 77
1, 1118625, Control_c, 0, 64, 105
1, 1118635, Note_off_c, 0, 62, 60
1, 1118640, Control_c, 0, 64, 127
1, 1118641, Poly_aftertouch_c, 0, 51, 0
1, 1118654, Note_off_c, 0, 50, 49
1, 1118656, Note_on_c, 0, 68, 89
1, 1118659, Note_on_c, 0, 56, 89
1, 1118668, Note_off_c, 0, 58, 62
1, 1118690, Note_off_c, 0, 53, 65
1, 1118712, Note_off_c, 0, 56, 63
1, 1118713, Note_off_c, 0, 70, 59
1, 1118832, Control_c, 0, 64, 106
1, 1118846, Control_c, 0, 64, 68
1, 1118848, Note_on_c, 0, 66, 93
1, 1118849, Note_on_c, 0, 58, 98
1, 1118849, Note_on_c, 0, 63, 86
1, 1118852, Note_on_c, 0, 46, 92
1, 1118861, Control_c, 0, 64, 0
1, 1118872, Note_off_c, 0, 65, 59
1, 1118891, Control_c, 0, 64, 66
1, 1118897, Note_off_c, 0, 68, 50
1, 1118906, Control_c, 0, 64, 127
1, 1118970, Note_off_c, 0, 66, 64
1, 1118979, Note_off_c, 0, 46, 64
1, 1118999, Note_off_c, 0, 63, 60
1, 1119012, Note_off_c, 0, 58, 63
1, 1119096, Note_on_c, 0, 75, 95
1, 1119097, Note_on_c, 0, 63, 96
1, 1119174, Note_off_c, 0, 75, 63
1, 1119179, Note_off_c, 0, 63, 56
1, 1119259, Note_on_c, 0, 63, 96
1, 1119259, Note_on_c, 0, 75, 102
1, 1119353, Note_off_c, 0, 63, 57
1, 1119354, Note_off_c, 0, 75, 60
1, 1119422, Note_on_c, 0, 76, 105
1, 1119423, Note_on_c, 0, 64, 84
1, 1119425, Note_on_c, 0, 63, 85
1, 1119431, Note_on_c, 0, 75, 89
1, 1119503, Note_off_c, 0, 76, 61
1, 1119504, Note_off_c, 0, 64, 59
1, 1119511, Note_off_c, 0, 63, 57
1, 1119516, Note_off_c, 0, 75, 64
1, 1119576, Note_on_c, 0, 63, 87
1, 1119576, Note_on_c, 0, 75, 89
1, 1119576, Note_on_c, 0, 76, 100
1, 1119577, Note_on_c, 0, 64, 83
1, 1119643, Note_off_c, 0, 64, 57
1, 1119651, Note_off_c, 0, 76, 60
1, 1119666, Note_off_c, 0, 75, 65
1, 1119668, Note_off_c, 0, 63, 60
1, 1119726, Note_on_c, 0, 61, 93
1, 1119726, Note_on_c, 0, 76, 102
1, 1119729, Note_on_c, 0, 73, 97
1, 1119731, Note_on_c, 0, 64, 84
1, 1119789, Note_off_c, 0, 64, 57
1, 1119794, Note_off_c, 0, 73, 60
1, 1119796, Note_off_c, 0, 76, 57
1, 1119807, Note_off_c, 0, 61, 56
1, 1119865, Note_on_c, 0, 61, 80
1, 1119873, Note_on_c, 0, 76, 98
1, 1119875, Note_on_c, 0, 64, 86
1, 1119875, Note_on_c, 0, 73, 101
1, 1119937, Note_off_c, 0, 64, 56
1, 1119945, Note_off_c, 0, 76, 56
1, 1119946, Note_off_c, 0, 73, 60
1, 1119955, Note_off_c, 0, 61, 59
1, 1120012, Note_on_c, 0, 59, 84
1, 1120012, Note_on_c, 0, 64, 91
1, 1120013, Note_on_c, 0, 76, 102
1, 1120018, Note_on_c, 0, 71, 95
1, 1120022, Note_on_c, 0, 75, 91
1, 1120023, Note_on_c, 0, 63, 77
1, 1120063, Note_off_c, 0, 71, 62
1, 1120072, Note_off_c, 0, 64, 61
1, 1120085, Note_off_c, 0, 76, 63
1, 1120086, Note_off_c, 0, 63, 58
1, 1120087, Note_off_c, 0, 59, 61
1, 1120088, Note_off_c, 0, 75, 64
1, 1120153, Note_on_c, 0, 61, 92
1, 1120156, Note_on_c, 0, 64, 92
1, 1120159, Note_on_c, 0, 76, 102
1, 1120161, Note_on_c, 0, 58, 83
1, 1120164, Note_on_c, 0, 73, 90
1, 1120173, Note_on_c, 0, 70, 82
1, 1120215, Note_off_c, 0, 64, 63
1, 1120221, Note_off_c, 0, 76, 62
1, 1120224, Note_off_c, 0, 70, 61
1, 1120226, Note_off_c, 0, 58, 60
1, 1120232, Note_off_c, 0, 61, 63
1, 1120233, Note_off_c, 0, 73, 61
1, 1120289, Note_on_c, 0, 64, 93
1, 1120291, Note_on_c, 0, 76, 99
1, 1120294, Note_on_c, 0, 68, 91
1, 1120296, Note_on_c, 0, 71, 87
1, 1120307, Note_on_c, 0, 57, 64
1, 1120317, Note_on_c, 0, 60, 50
1, 1120340, Note_off_c, 0, 57, 63
1, 1120343, Note_off_c, 0, 60, 59
1, 1120355, Note_off_c, 0, 64, 60
1, 1120360, Note_off_c, 0, 71, 60
1, 1120361, Note_off_c, 0, 76, 57
1, 1120364, Note_off_c, 0, 68, 57
1, 1120376, Poly_aftertouch_c, 0, 59, 127
1, 1120417, Poly_aftertouch_c, 0, 59, 0
1, 1120429, Note_on_c, 0, 54, 84
1, 1120441, Note_on_c, 0, 75, 96
1, 1120444, Note_on_c, 0, 67, 90
1, 1120448, Note_on_c, 0, 63, 76
1, 1120452, Note_on_c, 0, 70, 86
1, 1120456, Note_on_c, 0, 58, 63
1, 1120493, Note_off_c, 0, 54, 65
1, 1120529, Note_on_c, 0, 55, 41
1, 1120536, Note_off_c, 0, 67, 58
1, 1120568, Note_off_c, 0, 63, 0
1, 1120575, Note_on_c, 0, 61, 95
1, 1120584, Note_on_c, 0, 73, 101
1, 1120608, Note_off_c, 0, 75, 69
1, 1120611, Note_off_c, 0, 58, 63
1, 1120614, Note_off_c, 0, 61, 67
1, 1120629, Note_off_c, 0, 55, 40
1, 1120632, Poly_aftertouch_c, 0, 63, 0
1, 1120788, Note_on_c, 0, 71, 96
1, 1120790, Note_on_c, 0, 68, 86
1, 1120796, Note_on_c, 0, 58, 97
1, 1120797, Control_c, 0, 64, 100
1, 1120799, Note_on_c, 0, 46, 94
1, 1120812, Control_c, 0, 64, 63
1, 1120827, Note_off_c, 0, 73, 58
1, 1120827, Control_c, 0, 64, 0
1, 1120856, Control_c, 0, 64, 49
1, 1120871, Control_c, 0, 64, 76
1, 1120886, Control_c, 0, 64, 127
1, 1120899, Note_off_c, 0, 70, 59
1, 1120936, Note_off_c, 0, 46, 66
1, 1120938, Note_off_c, 0, 71, 65
1, 1120954, Note_off_c, 0, 58, 63
1, 1121030, Note_on_c, 0, 71, 92
1, 1121045, Note_on_c, 0, 59, 86
1, 1121080, Note_off_c, 0, 68, 59
1, 1121105, Note_off_c, 0, 59, 60
1, 1121114, Note_off_c, 0, 71, 61
1, 1121176, Note_on_c, 0, 59, 82
1, 1121179, Note_on_c, 0, 71, 93
1, 1121261, Note_off_c, 0, 71, 65
1, 1121265, Note_off_c, 0, 59, 56
1, 1121336, Note_on_c, 0, 74, 111
1, 1121352, Note_on_c, 0, 62, 77
1, 1121353, Note_on_c, 0, 59, 80
1, 1121364, Note_on_c, 0, 71, 66
1, 1121380, Note_off_c, 0, 71, 68
1, 1121461, Note_off_c, 0, 59, 53
1, 1121461, Note_off_c, 0, 62, 55
1, 1121470, Note_off_c, 0, 74, 62
1, 1121552, Note_on_c, 0, 74, 112
1, 1121557, Note_on_c, 0, 59, 85
1, 1121563, Note_on_c, 0, 62, 80
1, 1121568, Note_on_c, 0, 71, 87
1, 1121749, Note_on_c, 0, 58, 80
1, 1121753, Note_on_c, 0, 70, 73
1, 1121794, Note_off_c, 0, 59, 59
1, 1121825, Note_off_c, 0, 70, 63
1, 1121827, Note_off_c, 0, 58, 62
1, 1121856, Note_off_c, 0, 74, 62
1, 1121862, Note_off_c, 0, 71, 59
1, 1121910, Note_on_c, 0, 58, 84
1, 1121911, Note_on_c, 0, 70, 63
1, 1121928, Note_off_c, 0, 62, 58
1, 1121975, Note_off_c, 0, 70, 61
1, 1121997, Note_off_c, 0, 58, 58
1, 1122046, Note_on_c, 0, 71, 64
1, 1122048, Note_on_c, 0, 75, 98
1, 1122050, Note_on_c, 0, 59, 92
1, 1122054, Note_on_c, 0, 63, 91
1, 1122054, Note_on_c, 0, 68, 100
1, 1122055, Note_on_c, 0, 56, 81
1, 1122129, Note_off_c, 0, 68, 55
1, 1122133, Note_off_c, 0, 63, 53
1, 1122139, Note_off_c, 0, 59, 58
1, 1122149, Note_off_c, 0, 56, 62
1, 1122151, Note_off_c, 0, 71, 64
1, 1122153, Note_off_c, 0, 75, 60
1, 1122199, Note_on_c, 0, 56, 73
1, 1122200, Note_on_c, 0, 75, 88
1, 1122203, Note_on_c, 0, 59, 84
1, 1122204, Note_on_c, 0, 63, 85
1, 1122208, Note_on_c, 0, 71, 85
1, 1122210, Note_on_c, 0, 68, 95
1, 1122269, Note_off_c, 0, 68, 58
1, 1122346, Note_on_c, 0, 58, 84
1, 1122351, Note_on_c, 0, 66, 84
1, 1122352, Note_on_c, 0, 70, 80
1, 1122352, Note_on_c, 0, 54, 72
1, 1122354, Note_off_c, 0, 59, 57
1, 1122358, Note_off_c, 0, 71, 56
1, 1122386, Note_off_c, 0, 56, 63
1, 1122406, Note_off_c, 0, 66, 57
1, 1122407, Note_off_c, 0, 63, 58
1, 1122413, Note_off_c, 0, 54, 63
1, 1122424, Note_off_c, 0, 70, 62
1, 1122426, Note_off_c, 0, 58, 59
1, 1122480, Note_on_c, 0, 58, 75
1, 1122482, Note_on_c, 0, 70, 83
1, 1122483, Note_on_c, 0, 63, 79
1, 1122484, Note_on_c, 0, 54, 74
1, 1122488, Note_on_c, 0, 66, 81
1, 1122497, Note_off_c, 0, 75, 66
1, 1122537, Note_off_c, 0, 66, 62
1, 1122550, Note_off_c, 0, 58, 63
1, 1122554, Note_off_c, 0, 54, 63
1, 1122557, Note_off_c, 0, 63, 58
1, 1122560, Note_off_c, 0, 70, 62
1, 1122611, Note_on_c, 0, 77, 96
1, 1122611, Note_on_c, 0, 53, 94
1, 1122612, Note_on_c, 0, 58, 92
1, 1122613, Note_on_c, 0, 70, 87
1, 1122614, Note_on_c, 0, 65, 92
1, 1122615, Note_on_c, 0, 62, 87
1, 1122617, Note_on_c, 0, 74, 92
1, 1122650, Control_c, 0, 64, 102
1, 1122665, Control_c, 0, 64, 70
1, 1122673, Note_off_c, 0, 65, 63
1, 1122674, Note_off_c, 0, 62, 61
1, 1122679, Note_off_c, 0, 53, 62
1, 1122680, Control_c, 0, 64, 0
1, 1122690, Note_off_c, 0, 58, 58
1, 1122692, Note_off_c, 0, 77, 58
1, 1122698, Note_off_c, 0, 74, 61
1, 1122701, Note_off_c, 0, 70, 64
1, 1122725, Control_c, 0, 64, 64
1, 1122739, Control_c, 0, 64, 73
1, 1122754, Control_c, 0, 64, 90
1, 1122757, Note_on_c, 0, 53, 91
1, 1122757, Note_on_c, 0, 77, 96
1, 1122759, Note_on_c, 0, 58, 91
1, 1122759, Note_on_c, 0, 62, 88
1, 1122760, Note_on_c, 0, 65, 102
1, 1122762, Note_on_c, 0, 70, 90
1, 1122767, Note_on_c, 0, 74, 84
1, 1122769, Control_c, 0, 64, 127
1, 1122797, Note_off_c, 0, 53, 69
1, 1122802, Note_off_c, 0, 62, 63
1, 1122813, Note_off_c, 0, 65, 65
1, 1122823, Note_off_c, 0, 74, 64
1, 1122823, Note_off_c, 0, 77, 63
1, 1122836, Note_off_c, 0, 58, 63
1, 1122839, Note_off_c, 0, 70, 66
1, 1122915, Note_on_c, 0, 78, 96
1, 1122916, Note_on_c, 0, 63, 100
1, 1122919, Note_on_c, 0, 66, 97
1, 1122919, Note_on_c, 0, 75, 94
1, 1122920, Note_on_c, 0, 51, 95
1, 1122924, Note_on_c, 0, 70, 87
1, 1122960, Note_off_c, 0, 63, 63
1, 1122965, Note_off_c, 0, 51, 66
1, 1122966, Note_off_c, 0, 66, 58
1, 1122981, Note_off_c, 0, 70, 56
1, 1122987, Note_off_c, 0, 75, 60
1, 1122996, Note_off_c, 0, 78, 60
1, 1123051, Note_on_c, 0, 63, 98
1, 1123055, Note_on_c, 0, 66, 101
1, 1123058, Note_on_c, 0, 78, 90
1, 1123060, Note_on_c, 0, 51, 92
1, 1123060, Note_on_c, 0, 70, 89
1, 1123060, Note_on_c, 0, 75, 88
1, 1123101, Note_off_c, 0, 63, 62
1, 1123102, Note_off_c, 0, 51, 64
1, 1123102, Note_off_c, 0, 66, 62
1, 1123105, Note_off_c, 0, 70, 62
1, 1123124, Note_off_c, 0, 78, 63
1, 1123127, Note_off_c, 0, 75, 62
1, 1123185, Note_on_c, 0, 61, 101
1, 1123187, Note_on_c, 0, 80, 93
1, 1123187, Note_on_c, 0, 68, 98
1, 1123188, Note_on_c, 0, 77, 94
1, 1123192, Note_on_c, 0, 49, 95
1, 1123193, Note_on_c, 0, 73, 92
1, 1123231, Note_off_c, 0, 61, 65
1, 1123241, Note_off_c, 0, 49, 65
1, 1123253, Note_off_c, 0, 68, 55
1, 1123265, Note_off_c, 0, 80, 58
1, 1123266, Control_c, 0, 64, 91
1, 1123270, Note_off_c, 0, 73, 61
1, 1123273, Note_off_c, 0, 77, 59
1, 1123281, Control_c, 0, 64, 42
1, 1123296, Control_c, 0, 64, 0
1, 1123325, Control_c, 0, 64, 63
1, 1123327, Note_on_c, 0, 61, 102
1, 1123332, Note_on_c, 0, 49, 94
1, 1123332, Note_on_c, 0, 80, 86
1, 1123333, Note_on_c, 0, 68, 91
1, 1123333, Note_on_c, 0, 73, 92
1, 1123339, Note_on_c, 0, 77, 74
1, 1123340, Control_c, 0, 64, 78
1, 1123355, Control_c, 0, 64, 121
1, 1123365, Note_off_c, 0, 61, 66
1, 1123370, Control_c, 0, 64, 127
1, 1123376, Note_off_c, 0, 68, 60
1, 1123380, Note_on_c, 0, 78, 16
1, 1123381, Note_off_c, 0, 78, 127
1, 1123382, Note_on_c, 0, 81, 29
1, 1123386, Note_off_c, 0, 49, 63
1, 1123386, Note_off_c, 0, 77, 62
1, 1123391, Note_off_c, 0, 73, 66
1, 1123404, Note_off_c, 0, 80, 62
1, 1123414, Note_off_c, 0, 81, 53
1, 1123474, Note_on_c, 0, 54, 90
1, 1123476, Note_on_c, 0, 82, 96
1, 1123477, Note_on_c, 0, 70, 98
1, 1123480, Note_on_c, 0, 78, 97
1, 1123485, Note_on_c, 0, 44, 70
1, 1123494, Note_on_c, 0, 43, 71
1, 1123505, Note_off_c, 0, 54, 63
1, 1123515, Note_off_c, 0, 44, 62
1, 1123515, Note_off_c, 0, 70, 63
1, 1123516, Note_on_c, 0, 56, 27
1, 1123518, Note_off_c, 0, 43, 63
1, 1123539, Note_off_c, 0, 82, 63
1, 1123542, Note_off_c, 0, 78, 61
1, 1123565, Note_off_c, 0, 56, 54
1, 1123627, Note_on_c, 0, 54, 99
1, 1123631, Note_on_c, 0, 42, 92
1, 1123632, Note_on_c, 0, 70, 100
1, 1123633, Note_on_c, 0, 82, 100
1, 1123634, Note_on_c, 0, 78, 98
1, 1123667, Note_off_c, 0, 42, 64
1, 1123667, Note_off_c, 0, 54, 64
1, 1123670, Note_off_c, 0, 70, 64
1, 1123693, Note_off_c, 0, 78, 63
1, 1123701, Note_off_c, 0, 82, 66
1, 1123773, Note_on_c, 0, 55, 102
1, 1123777, Control_c, 0, 64, 88
1, 1123783, Note_on_c, 0, 43, 91
1, 1123793, Control_c, 0, 64, 40
1, 1123795, Note_on_c, 0, 75, 100
1, 1123796, Note_on_c, 0, 87, 103
1, 1123798, Note_on_c, 0, 82, 96
1, 1123807, Control_c, 0, 64, 0
1, 1123846, Note_on_c, 0, 85, 10
1, 1123847, Note_off_c, 0, 85, 127
1, 1123852, Control_c, 0, 64, 47
1, 1123861, Note_on_c, 0, 46, 87
1, 1123866, Control_c, 0, 64, 73
1, 1123873, Note_off_c, 0, 55, 67
1, 1123875, Note_on_c, 0, 51, 90
1, 1123881, Control_c, 0, 64, 97
1, 1123890, Note_off_c, 0, 43, 64
1, 1123896, Control_c, 0, 64, 127
1, 1123908, Note_off_c, 0, 46, 64
1, 1123916, Note_off_c, 0, 75, 53
1, 1123927, Note_off_c, 0, 51, 66
1, 1123949, Note_off_c, 0, 87, 61
1, 1123985, Note_off_c, 0, 82, 61
1, 1124089, Note_on_c, 0, 63, 108
1, 1124096, Note_on_c, 0, 87, 108
1, 1124097, Note_on_c, 0, 82, 99
1, 1124099, Note_on_c, 0, 75, 100
1, 1124102, Note_off_c, 0, 63, 79
1, 1124489, Note_off_c, 0, 87, 56
1, 1124492, Note_off_c, 0, 75, 55
1, 1124518, Note_off_c, 0, 82, 58
1, 1124598, Note_on_c, 0, 87, 102
1, 1124600, Note_on_c, 0, 75, 101
1, 1124600, Note_on_c, 0, 82, 103
1, 1124608, Note_on_c, 0, 55, 83
1, 1124610, Note_on_c, 0, 43, 80
1, 1124629, Note_off_c, 0, 55, 70
1, 1124633, Note_off_c, 0, 75, 67
1, 1124636, Note_off_c, 0, 43, 65
1, 1124640, Note_off_c, 0, 82, 66
1, 1124646, Note_off_c, 0, 87, 67
1, 1124820, Note_on_c, 0, 56, 77
1, 1124821, Note_on_c, 0, 83, 96
1, 1124823, Note_on_c, 0, 71, 101
1, 1124824, Note_on_c, 0, 44, 74
1, 1124829, Note_on_c, 0, 80, 88
1, 1124830, Note_on_c, 0, 75, 83
1, 1124844, Note_off_c, 0, 71, 67
1, 1124845, Note_off_c, 0, 56, 68
1, 1124846, Note_off_c, 0, 75, 73
1, 1124847, Note_off_c, 0, 80, 68
1, 1124854, Note_off_c, 0, 44, 65
1, 1124858, Note_off_c, 0, 83, 67
1, 1124970, Control_c, 0, 64, 84
1, 1124978, Note_on_c, 0, 44, 66
1, 1124983, Note_on_c, 0, 83, 93
1, 1124985, Control_c, 0, 64, 0
1, 1124986, Note_on_c, 0, 56, 71
1, 1124988, Note_on_c, 0, 71, 92
1, 1124991, Note_on_c, 0, 80, 87
1, 1124996, Note_on_c, 0, 75, 79
1, 1125037, Note_off_c, 0, 56, 62
1, 1125037, Note_off_c, 0, 71, 57
1, 1125065, Note_off_c, 0, 83, 62
1, 1125067, Control_c, 0, 64, 59
1, 1125082, Control_c, 0, 64, 71
1, 1125085, Note_off_c, 0, 80, 64
1, 1125096, Control_c, 0, 64, 88
1, 1125102, Note_off_c, 0, 75, 60
1, 1125111, Control_c, 0, 64, 127
1, 1125142, Note_on_c, 0, 58, 80
1, 1125145, Note_on_c, 0, 46, 78
1, 1125147, Note_on_c, 0, 82, 99
1, 1125148, Note_on_c, 0, 70, 90
1, 1125148, Poly_aftertouch_c, 0, 75, 0
1, 1125153, Note_on_c, 0, 78, 84
1, 1125154, Note_on_c, 0, 75, 65
1, 1125159, Note_off_c, 0, 44, 63
1, 1125176, Note_on_c, 0, 80, 48
1, 1125184, Note_off_c, 0, 58, 57
1, 1125190, Note_off_c, 0, 46, 58
1, 1125191, Note_off_c, 0, 70, 58
1, 1125199, Note_off_c, 0, 80, 59
1, 1125209, Note_off_c, 0, 82, 63
1, 1125212, Note_off_c, 0, 75, 60
1, 1125216, Note_off_c, 0, 78, 61
1, 1125281, Note_on_c, 0, 58, 81
1, 1125285, Note_on_c, 0, 46, 82
1, 1125286, Note_on_c, 0, 82, 99
1, 1125287, Note_on_c, 0, 70, 99
1, 1125291, Note_on_c, 0, 78, 90
1, 1125298, Note_on_c, 0, 75, 78
1, 1125322, Note_off_c, 0, 58, 57
1, 1125324, Note_off_c, 0, 70, 62
1, 1125325, Note_off_c, 0, 46, 58
1, 1125326, Note_off_c, 0, 82, 66
1, 1125327, Note_off_c, 0, 75, 55
1, 1125345, Note_off_c, 0, 78, 60
1, 1125417, Note_on_c, 0, 80, 100
1, 1125419, Note_on_c, 0, 59, 84
1, 1125420, Note_on_c, 0, 68, 95
1, 1125420, Note_on_c, 0, 75, 99
1, 1125423, Note_on_c, 0, 47, 79
1, 1125459, Note_off_c, 0, 68, 62
1, 1125462, Note_off_c, 0, 47, 64
1, 1125464, Note_off_c, 0, 59, 58
1, 1125471, Note_off_c, 0, 80, 59
1, 1125477, Note_off_c, 0, 75, 55
1, 1125482, Control_c, 0, 64, 89
1, 1125497, Control_c, 0, 64, 65
1, 1125512, Control_c, 0, 64, 0
1, 1125552, Note_on_c, 0, 80, 95
1, 1125553, Note_on_c, 0, 68, 92
1, 1125554, Note_on_c, 0, 59, 86
1, 1125556, Control_c, 0, 64, 47
1, 1125558, Note_on_c, 0, 75, 87
1, 1125559, Note_on_c, 0, 47, 80
1, 1125571, Control_c, 0, 64, 67
1, 1125586, Control_c, 0, 64, 79
1, 1125592, Note_off_c, 0, 68, 60
1, 1125595, Note_off_c, 0, 47, 63
1, 1125600, Note_off_c, 0, 80, 62
1, 1125601, Control_c, 0, 64, 101
1, 1125603, Note_off_c, 0, 59, 59
1, 1125614, Note_off_c, 0, 75, 60
1, 1125616, Control_c, 0, 64, 127
1, 1125677, Note_on_c, 0, 78, 94
1, 1125683, Note_on_c, 0, 66, 88
1, 1125683, Note_on_c, 0, 75, 81
1, 1125688, Note_on_c, 0, 60, 81
1, 1125693, Note_on_c, 0, 48, 79
1, 1125712, Note_off_c, 0, 66, 60
1, 1125721, Note_off_c, 0, 60, 59
1, 1125726, Note_off_c, 0, 48, 63
1, 1125732, Note_off_c, 0, 78, 59
1, 1125732, Note_off_c, 0, 75, 62
1, 1125822, Note_on_c, 0, 60, 87
1, 1125825, Note_on_c, 0, 78, 90
1, 1125827, Note_on_c, 0, 48, 72
1, 1125827, Note_on_c, 0, 66, 85
1, 1125829, Note_on_c, 0, 75, 85
1, 1125849, Note_off_c, 0, 66, 68
1, 1125859, Note_off_c, 0, 48, 66
1, 1125859, Note_off_c, 0, 60, 63
1, 1125868, Note_off_c, 0, 78, 66
1, 1125872, Note_off_c, 0, 75, 60
1, 1125950, Note_on_c, 0, 65, 93
1, 1125950, Note_on_c, 0, 77, 91
1, 1125953, Note_on_c, 0, 61, 85
1, 1125956, Note_on_c, 0, 73, 86
1, 1125957, Note_on_c, 0, 49, 84
1, 1125976, Note_off_c, 0, 61, 68
1, 1125987, Note_off_c, 0, 49, 67
1, 1125990, Note_off_c, 0, 65, 63
1, 1125992, Control_c, 0, 64, 89
1, 1125995, Note_off_c, 0, 73, 55
1, 1125996, Note_off_c, 0, 77, 62
1, 1126007, Control_c, 0, 64, 67
1, 1126022, Control_c, 0, 64, 0
1, 1126090, Note_on_c, 0, 49, 78
1, 1126090, Note_on_c, 0, 61, 80
1, 1126090, Note_on_c, 0, 77, 90
1, 1126093, Note_on_c, 0, 65, 88
1, 1126096, Note_on_c, 0, 73, 84
1, 1126141, Control_c, 0, 64, 67
1, 1126156, Control_c, 0, 64, 84
1, 1126171, Control_c, 0, 64, 127
1, 1126216, Note_off_c, 0, 73, 56
1, 1126226, Note_on_c, 0, 75, 79
1, 1126239, Note_on_c, 0, 71, 76
1, 1126242, Note_off_c, 0, 65, 63
1, 1126249, Note_off_c, 0, 77, 60
1, 1126272, Note_off_c, 0, 61, 60
1, 1126283, Note_off_c, 0, 49, 62
1, 1126289, Note_off_c, 0, 71, 64
1, 1126305, Note_off_c, 0, 75, 61
1, 1126367, Note_on_c, 0, 73, 87
1, 1126368, Note_on_c, 0, 61, 76
1, 1126369, Note_on_c, 0, 70, 86
1, 1126370, Note_on_c, 0, 77, 81
1, 1126371, Note_on_c, 0, 49, 76
1, 1126394, Note_off_c, 0, 70, 62
1, 1126397, Note_off_c, 0, 77, 58
1, 1126400, Note_off_c, 0, 61, 63
1, 1126406, Note_off_c, 0, 49, 64
1, 1126417, Note_off_c, 0, 73, 62
1, 1126491, Note_on_c, 0, 77, 84
1, 1126492, Note_on_c, 0, 62, 88
1, 1126495, Note_on_c, 0, 71, 82
1, 1126496, Note_on_c, 0, 68, 84
1, 1126497, Note_on_c, 0, 50, 82
1, 1126497, Control_c, 0, 64, 86
1, 1126512, Control_c, 0, 64, 61
1, 1126519, Note_off_c, 0, 68, 66
1, 1126526, Control_c, 0, 64, 0
1, 1126530, Note_off_c, 0, 50, 64
1, 1126530, Note_off_c, 0, 62, 58
1, 1126539, Note_off_c, 0, 77, 60
1, 1126546, Note_off_c, 0, 71, 60
1, 1126632, Note_on_c, 0, 50, 88
1, 1126635, Note_on_c, 0, 77, 88
1, 1126636, Note_on_c, 0, 62, 87
1, 1126638, Control_c, 0, 64, 69
1, 1126639, Note_on_c, 0, 68, 77
1, 1126641, Note_on_c, 0, 71, 76
1, 1126653, Control_c, 0, 64, 92
1, 1126668, Control_c, 0, 64, 127
1, 1126677, Note_off_c, 0, 71, 57
1, 1126681, Note_off_c, 0, 62, 63
1, 1126689, Note_off_c, 0, 68, 62
1, 1126708, Note_off_c, 0, 50, 64
1, 1126728, Note_off_c, 0, 77, 61
1, 1126764, Note_on_c, 0, 51, 84
1, 1126764, Note_on_c, 0, 63, 89
1, 1126764, Note_on_c, 0, 70, 92
1, 1126765, Note_on_c, 0, 78, 85
1, 1126767, Note_on_c, 0, 66, 85
1, 1126801, Note_off_c, 0, 63, 58
1, 1126803, Note_off_c, 0, 66, 58
1, 1126811, Note_off_c, 0, 51, 65
1, 1126816, Note_off_c, 0, 70, 64
1, 1126823, Note_off_c, 0, 78, 60
1, 1126885, Note_on_c, 0, 63, 93
1, 1126889, Note_on_c, 0, 78, 95
1, 1126893, Note_on_c, 0, 66, 88
1, 1126894, Note_on_c, 0, 51, 85
1, 1126897, Note_on_c, 0, 70, 89
1, 1126913, Note_off_c, 0, 70, 69
1, 1126922, Note_off_c, 0, 66, 62
1, 1126926, Note_off_c, 0, 63, 59
1, 1126928, Note_off_c, 0, 51, 60
1, 1126946, Note_off_c, 0, 78, 58
1, 1127004, Note_on_c, 0, 61, 94
1, 1127008, Note_on_c, 0, 68, 98
1, 1127008, Note_on_c, 0, 77, 92
1, 1127009, Note_on_c, 0, 49, 89
1, 1127010, Control_c, 0, 64, 106
1, 1127013, Note_on_c, 0, 80, 79
1, 1127025, Control_c, 0, 64, 74
1, 1127035, Note_on_c, 0, 72, 57
1, 1127039, Control_c, 0, 64, 0
1, 1127046, Note_off_c, 0, 61, 63
1, 1127053, Note_off_c, 0, 68, 60
1, 1127056, Note_off_c, 0, 80, 61
1, 1127057, Note_off_c, 0, 72, 61
1, 1127059, Note_off_c, 0, 49, 62
1, 1127072, Note_off_c, 0, 77, 60
1, 1127128, Control_c, 0, 64, 65
1, 1127138, Note_on_c, 0, 61, 94
1, 1127139, Note_on_c, 0, 80, 95
1, 1127139, Note_on_c, 0, 68, 86
1, 1127140, Note_on_c, 0, 73, 90
1, 1127142, Note_on_c, 0, 49, 89
1, 1127143, Control_c, 0, 64, 84
1, 1127157, Control_c, 0, 64, 127
1, 1127159, Note_on_c, 0, 77, 58
1, 1127160, Note_off_c, 0, 61, 68
1, 1127160, Note_off_c, 0, 68, 66
1, 1127171, Note_off_c, 0, 49, 63
1, 1127178, Note_off_c, 0, 73, 56
1, 1127180, Note_off_c, 0, 77, 64
1, 1127194, Note_off_c, 0, 80, 63
1, 1127262, Note_on_c, 0, 54, 85
1, 1127262, Note_on_c, 0, 82, 91
1, 1127265, Note_on_c, 0, 70, 96
1, 1127266, Note_on_c, 0, 44, 80
1, 1127267, Note_on_c, 0, 78, 90
1, 1127273, Note_on_c, 0, 56, 75
1, 1127286, Note_off_c, 0, 54, 70
1, 1127291, Note_on_c, 0, 43, 54
1, 1127291, Note_off_c, 0, 56, 68
1, 1127291, Note_off_c, 0, 70, 61
1, 1127294, Note_off_c, 0, 44, 64
1, 1127306, Note_off_c, 0, 78, 60
1, 1127318, Note_off_c, 0, 82, 65
1, 1127319, Note_on_c, 0, 80, 17
1, 1127327, Note_off_c, 0, 43, 57
1, 1127355, Note_off_c, 0, 80, 47
1, 1127396, Note_on_c, 0, 54, 91
1, 1127397, Note_on_c, 0, 42, 86
1, 1127402, Note_on_c, 0, 70, 88
1, 1127402, Note_on_c, 0, 82, 102
1, 1127402, Note_on_c, 0, 78, 92
1, 1127422, Note_off_c, 0, 54, 62
1, 1127423, Note_off_c, 0, 70, 61
1, 1127434, Note_off_c, 0, 42, 64
1, 1127444, Note_off_c, 0, 78, 63
1, 1127458, Note_off_c, 0, 82, 65
1, 1127506, Poly_aftertouch_c, 0, 80, 0
1, 1127511, Note_on_c, 0, 55, 101
1, 1127516, Note_on_c, 0, 43, 92
1, 1127521, Control_c, 0, 64, 104
1, 1127536, Note_on_c, 0, 87, 106
1, 1127536, Control_c, 0, 64, 68
1, 1127538, Note_on_c, 0, 75, 98
1, 1127543, Note_on_c, 0, 82, 92
1, 1127551, Control_c, 0, 64, 0
1, 1127556, Note_off_c, 0, 55, 63
1, 1127591, Note_on_c, 0, 55, 60
1, 1127594, Note_on_c, 0, 46, 91
1, 1127595, Control_c, 0, 64, 19
1, 1127603, Note_on_c, 0, 51, 93
1, 1127609, Control_c, 0, 64, 70
1, 1127611, Note_off_c, 0, 55, 64
1, 1127619, Note_off_c, 0, 43, 65
1, 1127624, Control_c, 0, 64, 92
1, 1127638, Note_off_c, 0, 46, 64
1, 1127639, Control_c, 0, 64, 127
1, 1127664, Note_off_c, 0, 51, 67
1, 1127674, Note_off_c, 0, 75, 57
1, 1127699, Note_off_c, 0, 87, 62
1, 1127706, Note_off_c, 0, 82, 57
1, 1127769, Note_on_c, 0, 63, 103
1, 1127777, Note_on_c, 0, 87, 108
1, 1127778, Note_on_c, 0, 82, 105
1, 1127779, Note_on_c, 0, 75, 100
1, 1127790, Note_off_c, 0, 63, 67
1, 1127825, Note_on_c, 0, 83, 35
1, 1127860, Note_off_c, 0, 83, 54
1, 1128002, Note_off_c, 0, 75, 56
1, 1128010, Note_off_c, 0, 87, 58
1, 1128022, Note_off_c, 0, 82, 55
1, 1128103, Note_on_c, 0, 55, 97
1, 1128104, Note_on_c, 0, 75, 100
1, 1128104, Note_on_c, 0, 87, 101
1, 1128106, Note_on_c, 0, 43, 89
1, 1128108, Note_on_c, 0, 82, 103
1, 1128134, Note_off_c, 0, 43, 69
1, 1128135, Note_off_c, 0, 55, 65
1, 1128139, Note_off_c, 0, 75, 67
1, 1128145, Note_off_c, 0, 87, 68
1, 1128147, Note_off_c, 0, 82, 65
1, 1128308, Note_on_c, 0, 56, 91
1, 1128313, Note_on_c, 0, 71, 95
1, 1128314, Control_c, 0, 64, 79
1, 1128314, Note_on_c, 0, 83, 95
1, 1128316, Note_on_c, 0, 44, 79
1, 1128328, Note_off_c, 0, 56, 72
1, 1128329, Control_c, 0, 64, 0
1, 1128331, Note_off_c, 0, 71, 72
1, 1128332, Note_off_c, 0, 83, 69
1, 1128333, Note_on_c, 0, 80, 54
1, 1128339, Note_off_c, 0, 44, 65
1, 1128352, Note_off_c, 0, 80, 40
1, 1128373, Control_c, 0, 64, 27
1, 1128376, Note_on_c, 0, 83, 91
1, 1128381, Note_on_c, 0, 71, 89
1, 1128384, Note_on_c, 0, 56, 91
1, 1128388, Control_c, 0, 64, 69
1, 1128389, Note_on_c, 0, 44, 88
1, 1128394, Note_on_c, 0, 80, 81
1, 1128403, Control_c, 0, 64, 88
1, 1128411, Note_off_c, 0, 71, 66
1, 1128416, Note_off_c, 0, 56, 65
1, 1128417, Note_off_c, 0, 44, 68
1, 1128418, Control_c, 0, 64, 127
1, 1128418, Note_off_c, 0, 83, 67
1, 1128441, Note_off_c, 0, 80, 62
1, 1128508, Note_on_c, 0, 58, 92
1, 1128511, Note_on_c, 0, 82, 112
1, 1128512, Note_on_c, 0, 70, 99
1, 1128516, Note_on_c, 0, 46, 86
1, 1128523, Note_on_c, 0, 80, 79
1, 1128542, Note_off_c, 0, 46, 67
1, 1128542, Note_off_c, 0, 70, 60
1, 1128542, Note_off_c, 0, 80, 66
1, 1128544, Note_off_c, 0, 58, 62
1, 1128544, Note_off_c, 0, 82, 70
1, 1128628, Note_on_c, 0, 80, 85
1, 1128629, Note_on_c, 0, 59, 100
1, 1128633, Note_on_c, 0, 68, 103
1, 1128634, Note_on_c, 0, 47, 90
1, 1128634, Note_on_c, 0, 51, 96
1, 1128641, Note_on_c, 0, 78, 83
1, 1128653, Note_off_c, 0, 59, 61
1, 1128655, Note_off_c, 0, 51, 72
1, 1128662, Note_off_c, 0, 47, 68
1, 1128662, Note_off_c, 0, 78, 67
1, 1128664, Note_off_c, 0, 68, 57
1, 1128676, Note_off_c, 0, 80, 64
1, 1128700, Control_c, 0, 64, 87
1, 1128715, Control_c, 0, 64, 64
1, 1128728, Poly_aftertouch_c, 0, 75, 0
1, 1128729, Control_c, 0, 64, 0
1, 1128751, Note_on_c, 0, 60, 99
1, 1128752, Note_on_c, 0, 48, 91
1, 1128753, Note_on_c, 0, 68, 96
1, 1128753, Note_on_c, 0, 80, 102
1, 1128764, Note_on_c, 0, 78, 77
1, 1128773, Note_off_c, 0, 68, 63
1, 1128776, Note_off_c, 0, 60, 66
1, 1128783, Note_off_c, 0, 48, 64
1, 1128789, Note_off_c, 0, 78, 62
1, 1128809, Note_off_c, 0, 80, 61
1, 1128907, Note_on_c, 0, 78, 92
1, 1128915, Note_on_c, 0, 85, 100
1, 1128915, Control_c, 0, 64, 69
1, 1128920, Note_on_c, 0, 49, 93
1, 1128920, Note_on_c, 0, 61, 97
1, 1128925, Note_on_c, 0, 73, 79
1, 1128929, Control_c, 0, 64, 103
1, 1128938, Note_off_c, 0, 61, 71
1, 1128941, Note_off_c, 0, 49, 71
1, 1128943, Note_off_c, 0, 73, 68
1, 1128944, Note_off_c, 0, 78, 69
1, 1128944, Control_c, 0, 64, 127
1, 1128946, Note_off_c, 0, 85, 68
1, 1129080, Poly_aftertouch_c, 0, 49, 0
1, 1129168, Note_on_c, 0, 68, 88
1, 1129171, Note_on_c, 0, 61, 83
1, 1129175, Note_on_c, 0, 77, 98
1, 1129177, Note_on_c, 0, 71, 85
1, 1129185, Note_off_c, 0, 68, 71
1, 1129190, Note_off_c, 0, 61, 70
1, 1129190, Note_off_c, 0, 77, 77
1, 1129193, Note_off_c, 0, 71, 75
1, 1129194, Note_on_c, 0, 73, 56
1, 1129195, Note_off_c, 0, 73, 127
1, 1129196, Control_c, 0, 64, 91
1, 1129211, Control_c, 0, 64, 63
1, 1129226, Control_c, 0, 64, 0
1, 1129232, Note_on_c, 0, 77, 93
1, 1129238, Note_on_c, 0, 71, 90
1, 1129241, Note_on_c, 0, 61, 86
1, 1129242, Note_on_c, 0, 68, 85
1, 1129243, Note_on_c, 0, 73, 80
1, 1129270, Control_c, 0, 64, 11
1, 1129285, Control_c, 0, 64, 64
1, 1129298, Note_off_c, 0, 71, 57
1, 1129300, Control_c, 0, 64, 75
1, 1129315, Control_c, 0, 64, 90
1, 1129321, Note_off_c, 0, 68, 54
1, 1129329, Control_c, 0, 64, 127
1, 1129369, Note_off_c, 0, 73, 59
1, 1129375, Control_c, 0, 67, 8
1, 1129390, Control_c, 0, 67, 9
1, 1129405, Control_c, 0, 67, 11
1, 1129419, Control_c, 0, 67, 11
1, 1129434, Control_c, 0, 67, 12
1, 1129449, Control_c, 0, 67, 12
1, 1129523, Control_c, 0, 67, 13
1, 1129560, Control_c, 0, 67, 13
1, 1129575, Control_c, 0, 67, 14
1, 1129584, Note_on_c, 0, 78, 87
1, 1129587, Note_on_c, 0, 54, 76
1, 1129590, Note_on_c, 0, 66, 80
1, 1129590, Control_c, 0, 64, 84
1, 1129590, Control_c, 0, 67, 15
1, 1129597, Note_on_c, 0, 70, 74
1, 1129601, Note_on_c, 0, 73, 76
1, 1129604, Control_c, 0, 64, 11
1, 1129604, Control_c, 0, 67, 18
1, 1129619, Control_c, 0, 64, 0
1, 1129619, Control_c, 0, 67, 20
1, 1129621, Note_off_c, 0, 77, 56
1, 1129634, Control_c, 0, 67, 23
1, 1129649, Control_c, 0, 67, 24
1, 1129664, Control_c, 0, 67, 26
1, 1129677, Note_off_c, 0, 70, 63
1, 1129678, Control_c, 0, 64, 67
1, 1129678, Control_c, 0, 67, 28
1, 1129693, Control_c, 0, 64, 83
1, 1129693, Control_c, 0, 67, 29
1, 1129694, Note_off_c, 0, 73, 63
1, 1129697, Note_off_c, 0, 54, 65
1, 1129697, Note_off_c, 0, 61, 63
1, 1129703, Note_off_c, 0, 66, 63
1, 1129708, Control_c, 0, 64, 127
1, 1129708, Control_c, 0, 67, 32
1, 1129712, Note_off_c, 0, 78, 65
1, 1129723, Control_c, 0, 67, 34
1, 1129738, Control_c, 0, 67, 36
1, 1129767, Control_c, 0, 67, 35
1, 1129885, Control_c, 0, 67, 35
1, 1129930, Control_c, 0, 67, 35
1, 1129959, Control_c, 0, 64, 91
1, 1129959, Control_c, 0, 67, 36
1, 1129974, Control_c, 0, 64, 62
1, 1129974, Control_c, 0, 67, 36
1, 1129989, Control_c, 0, 64, 0
1, 1129989, Control_c, 0, 67, 37
1, 1129993, Note_on_c, 0, 85, 83
1, 1130007, Note_on_c, 0, 66, 62
1, 1130019, Note_on_c, 0, 70, 50
1, 1130019, Control_c, 0, 67, 37
1, 1130019, Note_on_c, 0, 76, 53
1, 1130034, Control_c, 0, 64, 58
1, 1130034, Control_c, 0, 67, 38
1, 1130049, Control_c, 0, 64, 71
1, 1130049, Control_c, 0, 67, 39
1, 1130055, Note_off_c, 0, 76, 52
1, 1130061, Note_off_c, 0, 70, 58
1, 1130064, Control_c, 0, 64, 86
1, 1130064, Control_c, 0, 67, 40
1, 1130078, Control_c, 0, 64, 127
1, 1130078, Control_c, 0, 67, 40
1, 1130084, Note_off_c, 0, 85, 62
1, 1130085, Note_off_c, 0, 66, 56
1, 1130144, Note_on_c, 0, 70, 67
1, 1130150, Note_on_c, 0, 85, 76
1, 1130151, Note_on_c, 0, 66, 54
1, 1130158, Note_on_c, 0, 76, 64
1, 1130183, Control_c, 0, 67, 41
1, 1130184, Note_off_c, 0, 70, 55
1, 1130189, Note_off_c, 0, 76, 63
1, 1130198, Control_c, 0, 67, 41
1, 1130201, Note_off_c, 0, 66, 58
1, 1130213, Control_c, 0, 67, 42
1, 1130219, Note_off_c, 0, 85, 60
1, 1130227, Control_c, 0, 67, 45
1, 1130242, Control_c, 0, 67, 47
1, 1130257, Control_c, 0, 67, 49
1, 1130272, Control_c, 0, 67, 52
1, 1130273, Note_on_c, 0, 85, 76
1, 1130286, Note_on_c, 0, 70, 63
1, 1130287, Control_c, 0, 67, 55
1, 1130305, Note_on_c, 0, 66, 58
1, 1130308, Control_c, 0, 67, 58
1, 1130309, Note_on_c, 0, 76, 56
1, 1130323, Control_c, 0, 67, 61
1, 1130329, Note_off_c, 0, 76, 61
1, 1130338, Control_c, 0, 67, 64
1, 1130339, Note_off_c, 0, 70, 53
1, 1130353, Control_c, 0, 67, 66
1, 1130368, Control_c, 0, 67, 68
1, 1130383, Control_c, 0, 67, 70
1, 1130397, Control_c, 0, 67, 71
1, 1130412, Note_on_c, 0, 83, 82
1, 1130412, Control_c, 0, 67, 71
1, 1130417, Note_on_c, 0, 71, 69
1, 1130418, Note_on_c, 0, 59, 61
1, 1130426, Note_on_c, 0, 75, 71
1, 1130427, Control_c, 0, 67, 72
1, 1130434, Note_off_c, 0, 66, 51
1, 1130439, Note_off_c, 0, 85, 60
1, 1130448, Note_off_c, 0, 75, 69
1, 1130460, Note_off_c, 0, 71, 60
1, 1130460, Note_off_c, 0, 83, 63
1, 1130487, Control_c, 0, 64, 98
1, 1130495, Note_off_c, 0, 59, 55
1, 1130501, Control_c, 0, 64, 78
1, 1130516, Control_c, 0, 64, 66
1, 1130531, Control_c, 0, 64, 45
1, 1130532, Note_on_c, 0, 83, 85
1, 1130545, Note_on_c, 0, 82, 80
1, 1130546, Control_c, 0, 64, 0
1, 1130546, Note_on_c, 0, 73, 74
1, 1130555, Note_on_c, 0, 64, 61
1, 1130561, Control_c, 0, 67, 72
1, 1130561, Note_on_c, 0, 68, 50
1, 1130574, Note_off_c, 0, 73, 65
1, 1130585, Note_off_c, 0, 83, 62
1, 1130586, Note_off_c, 0, 64, 65
1, 1130586, Note_off_c, 0, 68, 58
1, 1130597, Note_off_c, 0, 82, 65
1, 1130605, Control_c, 0, 67, 73
1, 1130649, Control_c, 0, 67, 73
1, 1130664, Control_c, 0, 67, 74
1, 1130670, Note_on_c, 0, 64, 67
1, 1130670, Note_on_c, 0, 73, 79
1, 1130671, Note_on_c, 0, 82, 80
1, 1130672, Note_on_c, 0, 83, 78
1, 1130677, Note_on_c, 0, 68, 52
1, 1130679, Control_c, 0, 67, 75
1, 1130694, Control_c, 0, 67, 76
1, 1130698, Note_off_c, 0, 73, 62
1, 1130701, Note_off_c, 0, 68, 57
1, 1130707, Note_off_c, 0, 64, 62
1, 1130707, Note_off_c, 0, 83, 57
1, 1130708, Control_c, 0, 67, 77
1, 1130721, Note_off_c, 0, 82, 63
1, 1130723, Control_c, 0, 67, 78
1, 1130738, Control_c, 0, 67, 79
1, 1130753, Control_c, 0, 67, 79
1, 1130768, Control_c, 0, 67, 80
1, 1130782, Control_c, 0, 67, 81
1, 1130797, Control_c, 0, 67, 82
1, 1130802, Note_on_c, 0, 82, 74
1, 1130812, Note_on_c, 0, 68, 47
1, 1130812, Control_c, 0, 67, 82
1, 1130814, Note_on_c, 0, 83, 68
1, 1130827, Control_c, 0, 64, 61
1, 1130827, Control_c, 0, 67, 83
1, 1130830, Note_on_c, 0, 64, 53
1, 1130838, Note_on_c, 0, 73, 50
1, 1130842, Control_c, 0, 64, 71
1, 1130856, Control_c, 0, 64, 83
1, 1130856, Control_c, 0, 67, 83
1, 1130871, Control_c, 0, 64, 104
1, 1130878, Note_off_c, 0, 83, 39
1, 1130886, Control_c, 0, 64, 127
1, 1130887, Note_off_c, 0, 64, 51
1, 1130916, Control_c, 0, 67, 83
1, 1130920, Note_off_c, 0, 82, 58
1, 1130928, Note_off_c, 0, 68, 55
1, 1130935, Note_on_c, 0, 63, 55
1, 1130936, Note_on_c, 0, 75, 71
1, 1130939, Note_on_c, 0, 67, 56
1, 1130945, Control_c, 0, 67, 82
1, 1130961, Note_off_c, 0, 73, 57
1, 1130974, Note_off_c, 0, 67, 62
1, 1130975, Note_off_c, 0, 63, 60
1, 1130976, Control_c, 0, 67, 82
1, 1130979, Note_off_c, 0, 75, 56
1, 1131035, Control_c, 0, 64, 116
1, 1131057, Control_c, 0, 64, 80
1, 1131072, Control_c, 0, 64, 23
1, 1131080, Note_on_c, 0, 63, 59
1, 1131080, Note_on_c, 0, 73, 63
1, 1131087, Control_c, 0, 64, 0
1, 1131089, Note_on_c, 0, 75, 63
1, 1131102, Control_c, 0, 67, 81
1, 1131117, Control_c, 0, 64, 48
1, 1131131, Control_c, 0, 64, 65
1, 1131131, Control_c, 0, 67, 81
1, 1131146, Control_c, 0, 64, 74
1, 1131146, Control_c, 0, 67, 80
1, 1131161, Control_c, 0, 64, 87
1, 1131161, Control_c, 0, 67, 80
1, 1131166, Note_off_c, 0, 63, 58
1, 1131175, Note_off_c, 0, 73, 61
1, 1131176, Control_c, 0, 64, 127
1, 1131176, Control_c, 0, 67, 79
1, 1131191, Control_c, 0, 67, 79
1, 1131200, Note_off_c, 0, 75, 58
1, 1131205, Note_on_c, 0, 80, 71
1, 1131209, Note_on_c, 0, 71, 63
1, 1131219, Note_on_c, 0, 56, 62
1, 1131220, Note_on_c, 0, 68, 56
1, 1131220, Control_c, 0, 67, 78
1, 1131238, Note_off_c, 0, 71, 65
1, 1131247, Note_off_c, 0, 56, 65
1, 1131250, Note_off_c, 0, 68, 62
1, 1131253, Note_off_c, 0, 80, 47
1, 1131295, Control_c, 0, 64, 104
1, 1131310, Control_c, 0, 64, 79
1, 1131324, Control_c, 0, 64, 59
1, 1131337, Note_on_c, 0, 71, 62
1, 1131339, Control_c, 0, 64, 0
1, 1131340, Note_on_c, 0, 80, 64
1, 1131342, Note_on_c, 0, 68, 44
1, 1131344, Note_on_c, 0, 56, 44
1, 1131369, Control_c, 0, 67, 78
1, 1131398, Control_c, 0, 67, 77
1, 1131428, Control_c, 0, 64, 64
1, 1131428, Control_c, 0, 67, 76
1, 1131443, Control_c, 0, 64, 76
1, 1131443, Control_c, 0, 67, 76
1, 1131450, Note_off_c, 0, 56, 61
1, 1131457, Control_c, 0, 64, 98
1, 1131457, Control_c, 0, 67, 74
1, 1131459, Note_off_c, 0, 71, 60
1, 1131466, Note_on_c, 0, 72, 65
1, 1131472, Control_c, 0, 64, 127
1, 1131472, Control_c, 0, 67, 73
1, 1131487, Control_c, 0, 67, 73
1, 1131494, Note_off_c, 0, 72, 65
1, 1131502, Control_c, 0, 67, 72
1, 1131503, Note_off_c, 0, 68, 49
1, 1131546, Control_c, 0, 67, 72
1, 1131594, Note_on_c, 0, 75, 74
1, 1131605, Note_on_c, 0, 66, 58
1, 1131605, Note_on_c, 0, 68, 56
1, 1131606, Note_on_c, 0, 72, 58
1, 1131632, Note_off_c, 0, 68, 63
1, 1131633, Note_off_c, 0, 72, 66
1, 1131635, Note_off_c, 0, 66, 64
1, 1131635, Control_c, 0, 67, 72
1, 1131642, Note_off_c, 0, 75, 58
1, 1131717, Note_on_c, 0, 66, 62
1, 1131717, Note_off_c, 0, 80, 0
1, 1131717, Note_on_c, 0, 80, 23
1, 1131721, Note_on_c, 0, 75, 74
1, 1131725, Note_on_c, 0, 68, 51
1, 1131728, Note_on_c, 0, 72, 61
1, 1131754, Note_off_c, 0, 72, 67
1, 1131755, Note_off_c, 0, 66, 58
1, 1131757, Note_off_c, 0, 68, 62
1, 1131763, Note_off_c, 0, 75, 55
1, 1131822, Control_c, 0, 64, 106
1, 1131822, Control_c, 0, 67, 72
1, 1131836, Control_c, 0, 64, 78
1, 1131851, Control_c, 0, 64, 59
1, 1131853, Note_off_c, 0, 80, 0
1, 1131853, Note_on_c, 0, 80, 6
1, 1131866, Control_c, 0, 64, 0
1, 1131866, Control_c, 0, 67, 72
1, 1131873, Note_on_c, 0, 72, 52
1, 1131874, Note_on_c, 0, 66, 54
1, 1131876, Note_on_c, 0, 75, 68
1, 1131893, Note_on_c, 0, 68, 38
1, 1131925, Control_c, 0, 67, 72
1, 1131954, Control_c, 0, 64, 56
1, 1131969, Control_c, 0, 64, 70
1, 1131969, Control_c, 0, 67, 71
1, 1131977, Note_off_c, 0, 80, 46
1, 1131984, Control_c, 0, 64, 81
1, 1131984, Control_c, 0, 67, 71
1, 1131993, Note_on_c, 0, 65, 60
1, 1131998, Control_c, 0, 64, 99
1, 1131998, Control_c, 0, 67, 70
1, 1132010, Note_on_c, 0, 73, 72
1, 1132013, Control_c, 0, 64, 127
1, 1132013, Control_c, 0, 67, 69
1, 1132024, Note_off_c, 0, 72, 56
1, 1132025, Note_off_c, 0, 68, 56
1, 1132027, Note_off_c, 0, 66, 53
1, 1132028, Control_c, 0, 67, 68
1, 1132042, Note_off_c, 0, 65, 60
1, 1132043, Note_off_c, 0, 75, 58
1, 1132043, Control_c, 0, 67, 64
1, 1132058, Control_c, 0, 67, 62
1, 1132073, Control_c, 0, 67, 60
1, 1132079, Note_off_c, 0, 73, 58
1, 1132088, Control_c, 0, 67, 59
1, 1132103, Control_c, 0, 64, 126
1, 1132103, Control_c, 0, 67, 59
1, 1132117, Control_c, 0, 64, 85
1, 1132130, Note_on_c, 0, 78, 80
1, 1132132, Control_c, 0, 64, 67
1, 1132132, Control_c, 0, 67, 58
1, 1132133, Note_on_c, 0, 72, 73
1, 1132135, Note_on_c, 0, 63, 66
1, 1132138, Note_on_c, 0, 68, 59
1, 1132147, Control_c, 0, 64, 53
1, 1132162, Control_c, 0, 64, 62
1, 1132162, Control_c, 0, 67, 58
1, 1132174, Note_off_c, 0, 68, 62
1, 1132177, Control_c, 0, 64, 68
1, 1132177, Control_c, 0, 67, 57
1, 1132182, Note_off_c, 0, 72, 59
1, 1132184, Note_off_c, 0, 63, 53
1, 1132192, Control_c, 0, 64, 74
1, 1132192, Control_c, 0, 67, 56
1, 1132195, Note_off_c, 0, 78, 60
1, 1132206, Control_c, 0, 64, 83
1, 1132206, Control_c, 0, 67, 54
1, 1132221, Control_c, 0, 64, 97
1, 1132221, Control_c, 0, 67, 53
1, 1132236, Control_c, 0, 64, 109
1, 1132236, Control_c, 0, 67, 52
1, 1132247, Note_on_c, 0, 63, 67
1, 1132249, Note_on_c, 0, 78, 80
1, 1132251, Control_c, 0, 64, 118
1, 1132251, Control_c, 0, 67, 52
1, 1132255, Note_on_c, 0, 68, 66
1, 1132264, Note_on_c, 0, 72, 71
1, 1132266, Control_c, 0, 67, 51
1, 1132280, Control_c, 0, 64, 116
1, 1132280, Control_c, 0, 67, 50
1, 1132286, Note_off_c, 0, 72, 68
1, 1132287, Note_off_c, 0, 68, 63
1, 1132292, Note_off_c, 0, 63, 52
1, 1132295, Control_c, 0, 64, 102
1, 1132295, Control_c, 0, 67, 49
1, 1132308, Note_off_c, 0, 78, 62
1, 1132310, Control_c, 0, 64, 83
1, 1132310, Control_c, 0, 67, 49
1, 1132325, Control_c, 0, 64, 67
1, 1132340, Control_c, 0, 64, 0
1, 1132340, Control_c, 0, 67, 48
1, 1132383, Note_on_c, 0, 78, 83
1, 1132384, Control_c, 0, 67, 48
1, 1132386, Note_on_c, 0, 68, 58
1, 1132392, Note_on_c, 0, 72, 64
1, 1132394, Note_on_c, 0, 63, 69
1, 1132398, Control_c, 0, 67, 46
1, 1132413, Control_c, 0, 67, 44
1, 1132428, Control_c, 0, 67, 41
1, 1132443, Control_c, 0, 67, 38
1, 1132458, Control_c, 0, 64, 64
1, 1132458, Control_c, 0, 67, 33
1, 1132472, Control_c, 0, 64, 76
1, 1132472, Control_c, 0, 67, 28
1, 1132487, Control_c, 0, 64, 94
1, 1132487, Control_c, 0, 67, 23
1, 1132502, Note_on_c, 0, 61, 70
1, 1132502, Control_c, 0, 64, 127
1, 1132502, Control_c, 0, 67, 16
1, 1132504, Note_on_c, 0, 77, 79
1, 1132516, Note_on_c, 0, 73, 74
1, 1132517, Control_c, 0, 67, 9
1, 1132520, Note_off_c, 0, 63, 57
1, 1132532, Note_off_c, 0, 72, 61
1, 1132532, Control_c, 0, 67, 0
1, 1132550, Note_off_c, 0, 68, 60
1, 1132551, Note_off_c, 0, 61, 57
1, 1132571, Note_off_c, 0, 78, 59
1, 1132576, Note_off_c, 0, 73, 60
1, 1132576, Note_off_c, 0, 77, 61
1, 1132615, Control_c, 0, 64, 109
1, 1132629, Control_c, 0, 64, 79
1, 1132644, Control_c, 0, 64, 49
1, 1132645, Note_on_c, 0, 77, 76
1, 1132654, Note_on_c, 0, 61, 70
1, 1132654, Note_on_c, 0, 73, 71
1, 1132655, Note_on_c, 0, 68, 65
1, 1132659, Control_c, 0, 64, 0
1, 1132733, Control_c, 0, 64, 64
1, 1132748, Control_c, 0, 64, 78
1, 1132762, Note_on_c, 0, 80, 83
1, 1132763, Note_off_c, 0, 68, 54
1, 1132763, Control_c, 0, 64, 105
1, 1132767, Note_on_c, 0, 59, 67
1, 1132773, Note_on_c, 0, 65, 68
1, 1132777, Control_c, 0, 64, 127
1, 1132779, Note_on_c, 0, 74, 66
1, 1132785, Note_off_c, 0, 77, 61
1, 1132788, Note_off_c, 0, 73, 60
1, 1132798, Note_off_c, 0, 61, 61
1, 1132808, Note_off_c, 0, 74, 66
1, 1132810, Note_off_c, 0, 59, 56
1, 1132824, Note_off_c, 0, 65, 58
1, 1132833, Note_off_c, 0, 80, 63
1, 1132881, Control_c, 0, 64, 82
1, 1132895, Control_c, 0, 64, 24
1, 1132896, Note_on_c, 0, 80, 82
1, 1132901, Note_on_c, 0, 59, 74
1, 1132902, Note_on_c, 0, 74, 82
1, 1132907, Note_on_c, 0, 65, 62
1, 1132910, Control_c, 0, 64, 0
1, 1132955, Control_c, 0, 64, 45
1, 1132965, Note_off_c, 0, 65, 61
1, 1132970, Control_c, 0, 64, 70
1, 1132985, Control_c, 0, 64, 89
1, 1133000, Control_c, 0, 64, 127
1, 1133009, Note_on_c, 0, 66, 75
1, 1133026, Note_off_c, 0, 74, 61
1, 1133032, Note_on_c, 0, 73, 75
1, 1133049, Note_off_c, 0, 66, 57
1, 1133060, Note_off_c, 0, 73, 63
1, 1133068, Note_off_c, 0, 59, 59
1, 1133133, Control_c, 0, 64, 80
1, 1133140, Note_on_c, 0, 78, 87
1, 1133144, Note_on_c, 0, 58, 79
1, 1133146, Note_on_c, 0, 66, 73
1, 1133148, Control_c, 0, 64, 36
1, 1133150, Note_on_c, 0, 73, 81
1, 1133163, Control_c, 0, 64, 0
1, 1133173, Note_off_c, 0, 80, 57
1, 1133177, Control_c, 0, 64, 65
1, 1133179, Note_off_c, 0, 66, 59
1, 1133192, Control_c, 0, 64, 81
1, 1133197, Note_off_c, 0, 73, 59
1, 1133203, Note_off_c, 0, 58, 61
1, 1133207, Control_c, 0, 64, 127
1, 1133214, Note_off_c, 0, 78, 63
1, 1133257, Note_on_c, 0, 80, 88
1, 1133261, Note_on_c, 0, 56, 80
1, 1133265, Note_on_c, 0, 65, 77
1, 1133266, Note_on_c, 0, 71, 88
1, 1133301, Note_off_c, 0, 65, 62
1, 1133303, Note_off_c, 0, 56, 57
1, 1133313, Note_off_c, 0, 71, 62
1, 1133330, Note_off_c, 0, 80, 58
1, 1133362, Control_c, 0, 64, 87
1, 1133378, Control_c, 0, 64, 53
1, 1133394, Control_c, 0, 64, 0
1, 1133398, Note_on_c, 0, 80, 93
1, 1133399, Note_on_c, 0, 56, 86
1, 1133399, Note_on_c, 0, 65, 79
1, 1133405, Note_on_c, 0, 71, 84
1, 1133408, Control_c, 0, 64, 11
1, 1133423, Control_c, 0, 64, 68
1, 1133426, Note_off_c, 0, 71, 71
1, 1133433, Note_off_c, 0, 65, 64
1, 1133438, Control_c, 0, 64, 86
1, 1133449, Note_off_c, 0, 56, 64
1, 1133452, Note_off_c, 0, 80, 63
1, 1133453, Control_c, 0, 64, 127
1, 1133515, Note_on_c, 0, 82, 100
1, 1133516, Note_on_c, 0, 70, 92
1, 1133521, Note_on_c, 0, 66, 88
1, 1133524, Note_on_c, 0, 54, 80
1, 1133542, Note_off_c, 0, 66, 65
1, 1133552, Note_off_c, 0, 70, 61
1, 1133557, Note_off_c, 0, 54, 64
1, 1133561, Note_off_c, 0, 82, 64
1, 1133629, Note_on_c, 0, 82, 107
1, 1133635, Note_on_c, 0, 66, 85
1, 1133635, Note_on_c, 0, 70, 85
1, 1133641, Note_on_c, 0, 54, 82
1, 1133658, Note_off_c, 0, 70, 65
1, 1133670, Note_off_c, 0, 66, 58
1, 1133673, Note_off_c, 0, 54, 67
1, 1133692, Note_off_c, 0, 82, 61
1, 1133739, Note_on_c, 0, 65, 102
1, 1133742, Note_on_c, 0, 84, 97
1, 1133743, Note_on_c, 0, 53, 95
1, 1133743, Note_on_c, 0, 81, 93
1, 1133749, Note_on_c, 0, 75, 89
1, 1133764, Control_c, 0, 64, 93
1, 1133778, Control_c, 0, 64, 61
1, 1133783, Note_off_c, 0, 65, 66
1, 1133790, Note_off_c, 0, 53, 66
1, 1133793, Control_c, 0, 64, 0
1, 1133796, Note_off_c, 0, 75, 63
1, 1133800, Note_off_c, 0, 84, 60
1, 1133814, Note_off_c, 0, 81, 61
1, 1133823, Control_c, 0, 64, 52
1, 1133837, Control_c, 0, 64, 73
1, 1133852, Control_c, 0, 64, 96
1, 1133858, Note_on_c, 0, 65, 104
1, 1133861, Note_on_c, 0, 84, 100
1, 1133863, Note_on_c, 0, 81, 85
1, 1133864, Note_on_c, 0, 53, 90
1, 1133866, Note_on_c, 0, 75, 97
1, 1133867, Control_c, 0, 64, 127
1, 1133894, Note_off_c, 0, 65, 65
1, 1133905, Note_off_c, 0, 53, 66
1, 1133909, Note_off_c, 0, 84, 63
1, 1133914, Note_off_c, 0, 75, 60
1, 1133921, Note_off_c, 0, 81, 64
1, 1133996, Note_on_c, 0, 58, 97
1, 1133997, Note_on_c, 0, 85, 100
1, 1134000, Note_on_c, 0, 73, 105
1, 1134000, Note_on_c, 0, 82, 97
1, 1134004, Note_on_c, 0, 46, 84
1, 1134024, Note_off_c, 0, 58, 62
1, 1134030, Note_off_c, 0, 46, 67
1, 1134046, Note_off_c, 0, 73, 63
1, 1134062, Note_off_c, 0, 85, 63
1, 1134064, Note_off_c, 0, 82, 62
1, 1134130, Note_on_c, 0, 58, 95
1, 1134132, Note_on_c, 0, 46, 76
1, 1134138, Note_on_c, 0, 85, 100
1, 1134138, Note_on_c, 0, 73, 103
1, 1134143, Note_on_c, 0, 82, 98
1, 1134162, Note_off_c, 0, 58, 63
1, 1134163, Note_on_c, 0, 72, 62
1, 1134166, Note_on_c, 0, 84, 81
1, 1134172, Note_off_c, 0, 46, 65
1, 1134174, Note_off_c, 0, 85, 58
1, 1134183, Note_off_c, 0, 72, 66
1, 1134207, Note_off_c, 0, 73, 59
1, 1134216, Note_off_c, 0, 84, 63
1, 1134225, Note_off_c, 0, 82, 64
1, 1134268, Note_on_c, 0, 55, 101
1, 1134278, Note_on_c, 0, 43, 92
1, 1134317, Note_on_c, 0, 87, 107
1, 1134319, Note_on_c, 0, 75, 97
1, 1134320, Note_on_c, 0, 82, 105
1, 1134320, Control_c, 0, 64, 96
1, 1134335, Control_c, 0, 64, 62
1, 1134349, Note_on_c, 0, 46, 69
1, 1134349, Control_c, 0, 64, 0
1, 1134366, Note_on_c, 0, 83, 39
1, 1134390, Note_on_c, 0, 51, 93
1, 1134390, Note_off_c, 0, 55, 63
1, 1134395, Note_off_c, 0, 83, 50
1, 1134408, Control_c, 0, 64, 65
1, 1134416, Note_off_c, 0, 43, 63
1, 1134423, Control_c, 0, 64, 82
1, 1134429, Note_off_c, 0, 46, 63
1, 1134438, Control_c, 0, 64, 127
1, 1134450, Note_off_c, 0, 51, 67
1, 1134497, Note_off_c, 0, 75, 56
1, 1134523, Note_off_c, 0, 87, 61
1, 1134527, Note_off_c, 0, 82, 60
1, 1134599, Note_on_c, 0, 63, 103
1, 1134600, Note_on_c, 0, 87, 105
1, 1134604, Note_on_c, 0, 75, 95
1, 1134606, Note_on_c, 0, 82, 103
1, 1134613, Note_off_c, 0, 63, 75
1, 1134934, Note_off_c, 0, 87, 57
1, 1134965, Note_off_c, 0, 75, 55
1, 1135039, Note_on_c, 0, 55, 94
1, 1135039, Note_on_c, 0, 87, 102
1, 1135042, Note_on_c, 0, 75, 96
1, 1135045, Note_on_c, 0, 85, 95
1, 1135046, Note_on_c, 0, 43, 88
1, 1135054, Note_off_c, 0, 82, 67
1, 1135057, Note_off_c, 0, 55, 71
1, 1135071, Note_off_c, 0, 43, 67
1, 1135142, Note_off_c, 0, 75, 52
1, 1135157, Note_off_c, 0, 87, 60
1, 1135157, Note_off_c, 0, 85, 58
1, 1135276, Control_c, 0, 64, 103
1, 1135280, Note_on_c, 0, 83, 90
1, 1135284, Note_on_c, 0, 75, 86
1, 1135284, Note_on_c, 0, 87, 90
1, 1135289, Note_on_c, 0, 56, 89
1, 1135290, Control_c, 0, 64, 68
1, 1135294, Note_on_c, 0, 44, 79
1, 1135301, Note_off_c, 0, 75, 70
1, 1135305, Control_c, 0, 64, 0
1, 1135306, Note_off_c, 0, 87, 65
1, 1135306, Note_off_c, 0, 83, 67
1, 1135310, Note_off_c, 0, 56, 71
1, 1135313, Note_off_c, 0, 44, 64
1, 1135350, Note_on_c, 0, 83, 83
1, 1135350, Control_c, 0, 64, 44
1, 1135352, Note_on_c, 0, 87, 89
1, 1135355, Note_on_c, 0, 75, 82
1, 1135355, Note_on_c, 0, 56, 87
1, 1135361, Note_on_c, 0, 44, 93
1, 1135364, Control_c, 0, 64, 68
1, 1135379, Control_c, 0, 64, 87
1, 1135387, Note_off_c, 0, 56, 64
1, 1135389, Note_off_c, 0, 44, 66
1, 1135394, Control_c, 0, 64, 127
1, 1135429, Note_off_c, 0, 75, 60
1, 1135450, Note_off_c, 0, 83, 63
1, 1135482, Note_on_c, 0, 58, 93
1, 1135483, Note_on_c, 0, 46, 91
1, 1135487, Note_on_c, 0, 82, 90
1, 1135487, Note_on_c, 0, 75, 74
1, 1135503, Note_off_c, 0, 58, 67
1, 1135516, Note_off_c, 0, 46, 60
1, 1135530, Note_off_c, 0, 87, 63
1, 1135544, Note_off_c, 0, 75, 60
1, 1135547, Note_off_c, 0, 82, 63
1, 1135612, Note_on_c, 0, 87, 98
1, 1135614, Note_on_c, 0, 59, 93
1, 1135615, Note_on_c, 0, 47, 89
1, 1135615, Note_on_c, 0, 75, 86
1, 1135636, Note_off_c, 0, 59, 65
1, 1135640, Note_on_c, 0, 82, 56
1, 1135640, Note_off_c, 0, 47, 70
1, 1135653, Note_off_c, 0, 75, 58
1, 1135662, Note_off_c, 0, 82, 60
1, 1135668, Note_off_c, 0, 87, 63
1, 1135732, Note_on_c, 0, 60, 102
1, 1135733, Note_on_c, 0, 87, 101
1, 1135734, Note_on_c, 0, 75, 101
1, 1135738, Note_on_c, 0, 48, 88
1, 1135754, Note_off_c, 0, 60, 68
1, 1135761, Note_off_c, 0, 48, 67
1, 1135769, Note_on_c, 0, 78, 43
1, 1135775, Note_off_c, 0, 87, 67
1, 1135781, Note_off_c, 0, 75, 54
1, 1135787, Control_c, 0, 64, 87
1, 1135797, Note_off_c, 0, 78, 58
1, 1135802, Control_c, 0, 64, 63
1, 1135817, Control_c, 0, 64, 0
1, 1135883, Note_on_c, 0, 61, 97
1, 1135883, Note_on_c, 0, 85, 105
1, 1135885, Note_on_c, 0, 77, 95
1, 1135885, Note_on_c, 0, 49, 97
1, 1135885, Note_on_c, 0, 73, 96
1, 1135891, Control_c, 0, 64, 66
1, 1135901, Note_off_c, 0, 61, 72
1, 1135906, Note_off_c, 0, 49, 73
1, 1135906, Control_c, 0, 64, 90
1, 1135913, Note_off_c, 0, 73, 64
1, 1135915, Note_off_c, 0, 77, 65
1, 1135916, Note_off_c, 0, 85, 68
1, 1135921, Control_c, 0, 64, 127
1, 1136143, Control_c, 0, 64, 110
1, 1136144, Note_on_c, 0, 61, 79
1, 1136145, Note_on_c, 0, 77, 99
1, 1136145, Note_on_c, 0, 68, 83
1, 1136146, Note_on_c, 0, 71, 88
1, 1136158, Control_c, 0, 64, 72
1, 1136159, Note_on_c, 0, 73, 67
1, 1136162, Note_off_c, 0, 77, 68
1, 1136164, Note_off_c, 0, 71, 70
1, 1136165, Note_off_c, 0, 68, 69
1, 1136165, Note_off_c, 0, 61, 64
1, 1136172, Control_c, 0, 64, 0
1, 1136176, Note_off_c, 0, 73, 65
1, 1136198, Note_on_c, 0, 77, 89
1, 1136204, Note_on_c, 0, 71, 79
1, 1136216, Note_on_c, 0, 68, 84
1, 1136217, Note_on_c, 0, 61, 89
1, 1136217, Control_c, 0, 64, 52
1, 1136219, Note_on_c, 0, 73, 82
1, 1136232, Control_c, 0, 64, 70
1, 1136246, Control_c, 0, 64, 92
1, 1136261, Control_c, 0, 64, 127
1, 1136279, Note_off_c, 0, 71, 62
1, 1136306, Note_off_c, 0, 68, 43
1, 1136393, Note_off_c, 0, 73, 54
1, 1136462, Control_c, 0, 64, 87
1, 1136477, Control_c, 0, 64, 57
1, 1136490, Note_on_c, 0, 78, 92
1, 1136492, Control_c, 0, 64, 0
1, 1136496, Note_on_c, 0, 70, 89
1, 1136502, Note_on_c, 0, 66, 89
1, 1136505, Note_on_c, 0, 54, 83
1, 1136512, Note_off_c, 0, 77, 62
1, 1136521, Control_c, 0, 64, 64
1, 1136536, Control_c, 0, 64, 86
1, 1136541, Note_off_c, 0, 70, 64
1, 1136551, Control_c, 0, 64, 127
1, 1136564, Note_off_c, 0, 61, 0
1, 1136564, Note_off_c, 0, 78, 68
1, 1136587, Note_on_c, 0, 61, 49
1, 1136605, Note_off_c, 0, 66, 59
1, 1136623, Note_off_c, 0, 54, 60
1, 1136700, Control_c, 0, 64, 102
1, 1136715, Control_c, 0, 64, 70
1, 1136730, Control_c, 0, 64, 0
1, 1136788, Control_c, 0, 64, 63
1, 1136796, Note_on_c, 0, 66, 97
1, 1136796, Note_on_c, 0, 90, 115
1, 1136797, Note_on_c, 0, 78, 102
1, 1136802, Note_on_c, 0, 54, 85
1, 1136803, Control_c, 0, 64, 93
1, 1136809, Note_off_c, 0, 61, 40
1, 1136818, Note_off_c, 0, 66, 66
1, 1136818, Control_c, 0, 64, 127
1, 1136819, Note_off_c, 0, 90, 73
1, 1136822, Note_off_c, 0, 78, 65
1, 1136824, Note_off_c, 0, 54, 72
1, 1136850, Note_on_c, 0, 87, 5
1, 1136851, Note_off_c, 0, 87, 127
1, 1137055, Note_on_c, 0, 54, 83
1, 1137056, Note_on_c, 0, 78, 84
1, 1137059, Note_on_c, 0, 42, 76
1, 1137072, Note_on_c, 0, 66, 53
1, 1137076, Note_off_c, 0, 54, 69
1, 1137077, Note_off_c, 0, 78, 66
1, 1137081, Note_off_c, 0, 42, 66
1, 1137089, Note_off_c, 0, 66, 68
1, 1137107, Control_c, 0, 64, 115
1, 1137112, Note_on_c, 0, 79, 92
1, 1137119, Note_on_c, 0, 67, 90
1, 1137122, Control_c, 0, 64, 69
1, 1137124, Note_on_c, 0, 55, 94
1, 1137125, Note_on_c, 0, 43, 86
1, 1137136, Control_c, 0, 64, 0
1, 1137165, Control_c, 0, 64, 36
1, 1137167, Note_off_c, 0, 55, 62
1, 1137176, Note_off_c, 0, 67, 62
1, 1137180, Control_c, 0, 64, 70
1, 1137194, Control_c, 0, 64, 88
1, 1137209, Control_c, 0, 64, 127
1, 1137290, Note_off_c, 0, 43, 59
1, 1137331, Note_off_c, 0, 79, 55
1, 1137347, Note_on_c, 0, 80, 80
1, 1137352, Note_on_c, 0, 56, 77
1, 1137354, Note_on_c, 0, 44, 80
1, 1137357, Note_on_c, 0, 68, 76
1, 1137377, Note_off_c, 0, 56, 67
1, 1137382, Note_off_c, 0, 68, 68
1, 1137387, Note_off_c, 0, 44, 66
1, 1137388, Note_off_c, 0, 80, 62
1, 1137432, Control_c, 0, 64, 80
1, 1137447, Control_c, 0, 64, 0
1, 1137492, Control_c, 0, 64, 69
1, 1137507, Control_c, 0, 64, 92
1, 1137522, Control_c, 0, 64, 127
1, 1137584, Note_on_c, 0, 54, 83
1, 1137586, Note_on_c, 0, 42, 84
1, 1137591, Note_on_c, 0, 66, 89
1, 1137594, Note_on_c, 0, 78, 91
1, 1137608, Note_off_c, 0, 54, 70
1, 1137609, Note_off_c, 0, 78, 75
1, 1137612, Note_off_c, 0, 66, 67
1, 1137623, Note_off_c, 0, 42, 64
1, 1137778, Note_on_c, 0, 43, 77
1, 1137781, Note_on_c, 0, 31, 72
1, 1137810, Note_on_c, 0, 55, 48
1, 1137811, Note_off_c, 0, 43, 65
1, 1137817, Note_off_c, 0, 31, 56
1, 1137819, Note_on_c, 0, 67, 36
1, 1137835, Note_off_c, 0, 55, 58
1, 1137853, Note_off_c, 0, 67, 55
1, 1137853, Note_on_c, 0, 44, 98
1, 1137855, Note_on_c, 0, 32, 88
1, 1137862, Note_on_c, 0, 68, 89
1, 1137867, Note_on_c, 0, 56, 85
1, 1137885, Control_c, 0, 64, 76
1, 1137899, Control_c, 0, 64, 0
1, 1137943, Control_c, 0, 64, 60
1, 1137956, Note_off_c, 0, 56, 63
1, 1137958, Control_c, 0, 64, 69
1, 1137973, Control_c, 0, 64, 77
1, 1137988, Control_c, 0, 64, 84
1, 1137999, Note_off_c, 0, 44, 63
1, 1138003, Control_c, 0, 64, 87
1, 1138011, Note_off_c, 0, 32, 61
1, 1138017, Control_c, 0, 64, 87
1, 1138032, Control_c, 0, 64, 87
1, 1138047, Control_c, 0, 64, 91
1, 1138062, Control_c, 0, 64, 112
1, 1138069, Note_on_c, 0, 69, 74
1, 1138070, Note_on_c, 0, 45, 91
1, 1138070, Note_on_c, 0, 71, 78
1, 1138073, Note_on_c, 0, 33, 81
1, 1138076, Note_on_c, 0, 57, 45
1, 1138077, Control_c, 0, 64, 127
1, 1138091, Note_off_c, 0, 68, 61
1, 1138091, Note_off_c, 0, 71, 69
1, 1138094, Note_off_c, 0, 45, 70
1, 1138095, Note_on_c, 0, 59, 27
1, 1138099, Note_off_c, 0, 33, 62
1, 1138101, Note_off_c, 0, 69, 65
1, 1138106, Note_off_c, 0, 57, 56
1, 1138132, Note_off_c, 0, 59, 51
1, 1138300, Control_c, 0, 64, 95
1, 1138315, Control_c, 0, 64, 74
1, 1138329, Note_on_c, 0, 66, 96
1, 1138330, Control_c, 0, 64, 71
1, 1138330, Note_on_c, 0, 90, 110
1, 1138333, Note_on_c, 0, 78, 101
1, 1138335, Note_on_c, 0, 54, 93
1, 1138345, Control_c, 0, 64, 84
1, 1138348, Note_off_c, 0, 66, 70
1, 1138349, Note_off_c, 0, 78, 69
1, 1138353, Note_off_c, 0, 90, 73
1, 1138359, Control_c, 0, 64, 114
1, 1138359, Note_off_c, 0, 54, 69
1, 1138374, Control_c, 0, 64, 127
1, 1138515, Note_on_c, 0, 56, 87
1, 1138516, Note_on_c, 0, 44, 83
1, 1138519, Note_on_c, 0, 80, 86
1, 1138524, Note_on_c, 0, 68, 84
1, 1138541, Note_off_c, 0, 56, 73
1, 1138545, Note_off_c, 0, 44, 71
1, 1138546, Note_on_c, 0, 78, 61
1, 1138551, Note_off_c, 0, 68, 71
1, 1138565, Note_off_c, 0, 78, 66
1, 1138574, Control_c, 0, 64, 103
1, 1138584, Note_on_c, 0, 81, 91
1, 1138585, Note_on_c, 0, 57, 99
1, 1138586, Note_on_c, 0, 45, 93
1, 1138589, Control_c, 0, 64, 60
1, 1138595, Note_on_c, 0, 69, 83
1, 1138604, Control_c, 0, 64, 0
1, 1138612, Note_off_c, 0, 80, 63
1, 1138634, Note_on_c, 0, 47, 22
1, 1138635, Note_off_c, 0, 47, 127
1, 1138637, Note_off_c, 0, 57, 61
1, 1138648, Control_c, 0, 64, 58
1, 1138663, Control_c, 0, 64, 75
1, 1138673, Note_off_c, 0, 45, 0
1, 1138678, Control_c, 0, 64, 127
1, 1138685, Note_off_c, 0, 69, 45
1, 1138693, Note_on_c, 0, 45, 43
1, 1138744, Note_off_c, 0, 45, 61
1, 1138768, Note_off_c, 0, 81, 64
1, 1138813, Note_on_c, 0, 82, 95
1, 1138813, Note_on_c, 0, 46, 76
1, 1138814, Note_on_c, 0, 58, 74
1, 1138816, Note_on_c, 0, 70, 88
1, 1138833, Note_off_c, 0, 58, 67
1, 1138837, Note_off_c, 0, 70, 67
1, 1138839, Note_off_c, 0, 46, 65
1, 1138843, Note_off_c, 0, 82, 63
1, 1138960, Control_c, 0, 64, 77
1, 1138975, Control_c, 0, 64, 0
1, 1139019, Control_c, 0, 64, 66
1, 1139034, Control_c, 0, 64, 88
1, 1139039, Note_on_c, 0, 54, 91
1, 1139039, Note_on_c, 0, 66, 86
1, 1139039, Note_on_c, 0, 78, 99
1, 1139040, Note_on_c, 0, 42, 88
1, 1139049, Control_c, 0, 64, 127
1, 1139060, Note_off_c, 0, 54, 72
1, 1139069, Note_off_c, 0, 78, 68
1, 1139069, Note_off_c, 0, 66, 64
1, 1139081, Note_off_c, 0, 42, 62
1, 1139199, Note_on_c, 0, 46, 84
1, 1139205, Note_on_c, 0, 34, 79
1, 1139207, Note_on_c, 0, 70, 93
1, 1139215, Note_on_c, 0, 58, 68
1, 1139221, Note_off_c, 0, 46, 67
1, 1139231, Note_off_c, 0, 34, 64
1, 1139235, Note_off_c, 0, 58, 65
1, 1139242, Control_c, 0, 64, 106
1, 1139256, Control_c, 0, 64, 70
1, 1139262, Note_on_c, 0, 71, 91
1, 1139271, Note_on_c, 0, 47, 94
1, 1139271, Control_c, 0, 64, 0
1, 1139272, Note_on_c, 0, 35, 88
1, 1139275, Note_on_c, 0, 59, 77
1, 1139312, Note_on_c, 0, 57, 26
1, 1139313, Note_off_c, 0, 57, 127
1, 1139313, Note_off_c, 0, 70, 30
1, 1139323, Control_c, 0, 64, 64
1, 1139331, Note_off_c, 0, 47, 61
1, 1139334, Note_on_c, 0, 69, 3
1, 1139337, Control_c, 0, 64, 78
1, 1139352, Control_c, 0, 64, 107
1, 1139367, Control_c, 0, 64, 127
1, 1139375, Note_off_c, 0, 69, 26
1, 1139376, Note_off_c, 0, 59, 51
1, 1139403, Note_off_c, 0, 35, 57
1, 1139418, Note_off_c, 0, 71, 61
1, 1139505, Note_on_c, 0, 48, 90
1, 1139517, Note_on_c, 0, 60, 80
1, 1139518, Note_on_c, 0, 36, 74
1, 1139518, Note_on_c, 0, 72, 89
1, 1139528, Note_off_c, 0, 48, 69
1, 1139531, Note_on_c, 0, 35, 50
1, 1139543, Note_off_c, 0, 60, 66
1, 1139543, Note_off_c, 0, 36, 63
1, 1139550, Note_off_c, 0, 35, 66
1, 1139562, Note_off_c, 0, 72, 63
1, 1139664, Control_c, 0, 64, 105
1, 1139679, Control_c, 0, 64, 70
1, 1139694, Control_c, 0, 64, 0
1, 1139723, Control_c, 0, 64, 58
1, 1139738, Control_c, 0, 64, 73
1, 1139739, Note_on_c, 0, 61, 98
1, 1139742, Note_on_c, 0, 73, 91
1, 1139743, Note_on_c, 0, 49, 90
1, 1139744, Note_on_c, 0, 68, 86
1, 1139753, Control_c, 0, 64, 94
1, 1139756, Note_off_c, 0, 61, 74
1, 1139766, Note_off_c, 0, 49, 71
1, 1139769, Control_c, 0, 64, 127
1, 1139913, Note_on_c, 0, 49, 96
1, 1139918, Note_on_c, 0, 37, 92
1, 1139932, Note_off_c, 0, 49, 74
1, 1139940, Note_off_c, 0, 37, 70
1, 1139989, Note_on_c, 0, 50, 97
1, 1139993, Note_on_c, 0, 38, 90
1, 1140003, Note_on_c, 0, 40, 73
1, 1140005, Control_c, 0, 64, 90
1, 1140020, Control_c, 0, 64, 35
1, 1140037, Note_off_c, 0, 40, 54
1, 1140043, Control_c, 0, 64, 0
1, 1140073, Control_c, 0, 64, 36
1, 1140087, Control_c, 0, 64, 66
1, 1140102, Control_c, 0, 64, 79
1, 1140117, Control_c, 0, 64, 113
1, 1140129, Note_off_c, 0, 50, 59
1, 1140132, Control_c, 0, 64, 127
1, 1140136, Note_off_c, 0, 38, 63
1, 1140195, Note_off_c, 0, 73, 48
1, 1140219, Note_on_c, 0, 51, 94
1, 1140223, Note_on_c, 0, 39, 88
1, 1140246, Note_off_c, 0, 51, 68
1, 1140250, Note_off_c, 0, 39, 67
1, 1140418, Note_on_c, 0, 73, 87
1, 1140422, Note_on_c, 0, 61, 90
1, 1140422, Note_on_c, 0, 52, 97
1, 1140425, Note_on_c, 0, 40, 91
1, 1140428, Control_c, 0, 64, 106
1, 1140434, Note_off_c, 0, 68, 52
1, 1140443, Control_c, 0, 64, 80
1, 1140458, Note_off_c, 0, 61, 61
1, 1140458, Control_c, 0, 64, 68
1, 1140461, Note_off_c, 0, 73, 63
1, 1140473, Control_c, 0, 64, 66
1, 1140487, Control_c, 0, 64, 71
1, 1140502, Control_c, 0, 64, 74
1, 1140517, Control_c, 0, 64, 76
1, 1140531, Control_c, 0, 64, 74
1, 1140546, Control_c, 0, 64, 68
1, 1140562, Control_c, 0, 64, 60
1, 1140577, Control_c, 0, 64, 0
1, 1140580, Note_on_c, 0, 66, 89
1, 1140589, Note_on_c, 0, 54, 73
1, 1140612, Note_off_c, 0, 54, 68
1, 1140642, Note_on_c, 0, 67, 81
1, 1140656, Note_on_c, 0, 55, 67
1, 1140661, Note_on_c, 0, 57, 76
1, 1140666, Control_c, 0, 64, 62
1, 1140673, Note_off_c, 0, 66, 61
1, 1140681, Control_c, 0, 64, 75
1, 1140696, Control_c, 0, 64, 92
1, 1140702, Note_off_c, 0, 57, 59
1, 1140710, Control_c, 0, 64, 127
1, 1140723, Note_off_c, 0, 55, 51
1, 1140752, Note_off_c, 0, 40, 62
1, 1140762, Note_off_c, 0, 67, 59
1, 1140767, Note_off_c, 0, 52, 57
1, 1140874, Note_on_c, 0, 68, 96
1, 1140877, Note_on_c, 0, 53, 93
1, 1140877, Note_on_c, 0, 41, 87
1, 1140881, Note_on_c, 0, 56, 88
1, 1140914, Note_off_c, 0, 53, 67
1, 1140918, Note_off_c, 0, 41, 62
1, 1140943, Note_off_c, 0, 56, 64
1, 1141030, Note_off_c, 0, 68, 58
1, 1141042, Control_c, 0, 64, 116
1, 1141057, Control_c, 0, 64, 70
1, 1141072, Control_c, 0, 64, 0
1, 1141090, Note_on_c, 0, 69, 93
1, 1141090, Note_on_c, 0, 57, 84
1, 1141091, Note_on_c, 0, 61, 87
1, 1141093, Note_on_c, 0, 54, 94
1, 1141098, Note_on_c, 0, 42, 92
1, 1141102, Control_c, 0, 64, 51
1, 1141112, Note_off_c, 0, 54, 75
1, 1141117, Control_c, 0, 64, 70
1, 1141126, Note_off_c, 0, 42, 65
1, 1141132, Control_c, 0, 64, 88
1, 1141147, Control_c, 0, 64, 127
1, 1141225, Poly_aftertouch_c, 0, 41, 0
1, 1141250, Control_c, 0, 64, 91
1, 1141257, Note_on_c, 0, 42, 95
1, 1141260, Note_on_c, 0, 30, 88
1, 1141265, Control_c, 0, 64, 69
1, 1141280, Control_c, 0, 64, 67
1, 1141282, Note_on_c, 0, 29, 61
1, 1141289, Note_off_c, 0, 30, 68
1, 1141290, Note_off_c, 0, 42, 63
1, 1141295, Control_c, 0, 64, 84
1, 1141309, Control_c, 0, 64, 127
1, 1141320, Note_off_c, 0, 29, 57
1, 1141336, Note_on_c, 0, 44, 102
1, 1141339, Note_on_c, 0, 32, 96
1, 1141362, Note_on_c, 0, 31, 66
1, 1141375, Note_off_c, 0, 44, 66
1, 1141394, Note_off_c, 0, 32, 60
1, 1141395, Note_off_c, 0, 31, 63
1, 1141458, Poly_aftertouch_c, 0, 42, 0
1, 1141579, Note_on_c, 0, 45, 100
1, 1141584, Note_on_c, 0, 33, 93
1, 1141608, Note_off_c, 0, 45, 66
1, 1141612, Note_off_c, 0, 33, 66
1, 1141648, Note_off_c, 0, 57, 49
1, 1141683, Note_off_c, 0, 69, 57
1, 1141747, Control_c, 0, 64, 94
1, 1141762, Control_c, 0, 64, 63
1, 1141774, Note_on_c, 0, 57, 85
1, 1141775, Note_on_c, 0, 69, 85
1, 1141777, Note_on_c, 0, 47, 94
1, 1141777, Control_c, 0, 64, 0
1, 1141781, Note_on_c, 0, 35, 90
1, 1141795, Note_off_c, 0, 61, 63
1, 1141810, Note_off_c, 0, 69, 60
1, 1141819, Note_off_c, 0, 57, 65
1, 1141821, Control_c, 0, 64, 60
1, 1141836, Control_c, 0, 64, 70
1, 1141851, Control_c, 0, 64, 83
1, 1141865, Control_c, 0, 64, 105
1, 1141880, Control_c, 0, 64, 127
1, 1141924, Note_on_c, 0, 61, 94
1, 1141925, Note_on_c, 0, 49, 93
1, 1141939, Control_c, 0, 64, 88
1, 1141947, Note_off_c, 0, 49, 70
1, 1141954, Control_c, 0, 64, 64
1, 1141960, Note_off_c, 0, 61, 55
1, 1141962, Note_on_c, 0, 62, 33
1, 1141969, Control_c, 0, 64, 14
1, 1141984, Control_c, 0, 64, 63
1, 1141999, Control_c, 0, 64, 73
1, 1142008, Note_off_c, 0, 62, 0
1, 1142008, Note_on_c, 0, 62, 73
1, 1142014, Control_c, 0, 64, 87
1, 1142014, Note_on_c, 0, 50, 86
1, 1142029, Control_c, 0, 64, 127
1, 1142115, Note_off_c, 0, 35, 62
1, 1142121, Note_off_c, 0, 47, 64
1, 1142146, Note_off_c, 0, 50, 58
1, 1142181, Note_off_c, 0, 62, 62
1, 1142207, Control_c, 0, 64, 83
1, 1142222, Control_c, 0, 64, 0
1, 1142241, Note_on_c, 0, 64, 96
1, 1142245, Note_on_c, 0, 52, 90
1, 1142247, Note_on_c, 0, 49, 91
1, 1142251, Note_on_c, 0, 37, 83
1, 1142267, Control_c, 0, 64, 67
1, 1142288, Control_c, 0, 64, 84
1, 1142303, Control_c, 0, 64, 127
1, 1142360, Note_off_c, 0, 52, 61
1, 1142367, Note_off_c, 0, 37, 63
1, 1142378, Note_off_c, 0, 49, 63
1, 1142399, Note_off_c, 0, 64, 42
1, 1142452, Control_c, 0, 64, 89
1, 1142467, Control_c, 0, 64, 53
1, 1142472, Note_on_c, 0, 57, 17
1, 1142481, Control_c, 0, 64, 0
1, 1142482, Note_on_c, 0, 54, 92
1, 1142482, Note_on_c, 0, 66, 94
1, 1142487, Note_on_c, 0, 50, 83
1, 1142491, Note_on_c, 0, 38, 81
1, 1142496, Control_c, 0, 64, 30
1, 1142511, Note_off_c, 0, 50, 72
1, 1142511, Control_c, 0, 64, 70
1, 1142522, Note_off_c, 0, 38, 66
1, 1142526, Control_c, 0, 64, 89
1, 1142540, Control_c, 0, 64, 127
1, 1142644, Control_c, 0, 64, 91
1, 1142658, Note_on_c, 0, 38, 89
1, 1142659, Control_c, 0, 64, 64
1, 1142660, Note_on_c, 0, 26, 89
1, 1142674, Control_c, 0, 64, 0
1, 1142678, Note_off_c, 0, 38, 72
1, 1142684, Note_off_c, 0, 26, 69
1, 1142688, Control_c, 0, 64, 62
1, 1142703, Control_c, 0, 64, 77
1, 1142718, Control_c, 0, 64, 127
1, 1142729, Note_on_c, 0, 40, 99
1, 1142734, Note_on_c, 0, 28, 89
1, 1142771, Note_off_c, 0, 28, 61
1, 1142779, Note_off_c, 0, 40, 66
1, 1142925, Control_c, 0, 64, 80
1, 1142935, Note_on_c, 0, 42, 95
1, 1142940, Note_on_c, 0, 30, 91
1, 1142940, Control_c, 0, 64, 31
1, 1142956, Control_c, 0, 64, 51
1, 1142971, Control_c, 0, 64, 71
1, 1142974, Note_off_c, 0, 30, 66
1, 1142974, Note_off_c, 0, 42, 63
1, 1142986, Control_c, 0, 64, 95
1, 1143001, Control_c, 0, 64, 127
1, 1143054, Note_off_c, 0, 54, 60
1, 1143059, Note_off_c, 0, 66, 56
1, 1143127, Control_c, 0, 64, 117
1, 1143128, Note_off_c, 0, 57, 52
1, 1143142, Control_c, 0, 64, 74
1, 1143153, Note_on_c, 0, 66, 88
1, 1143154, Note_on_c, 0, 54, 90
1, 1143156, Control_c, 0, 64, 0
1, 1143161, Note_on_c, 0, 43, 91
1, 1143166, Note_on_c, 0, 31, 84
1, 1143171, Control_c, 0, 64, 56
1, 1143186, Control_c, 0, 64, 70
1, 1143190, Note_off_c, 0, 66, 67
1, 1143192, Note_off_c, 0, 54, 67
1, 1143201, Control_c, 0, 64, 82
1, 1143216, Control_c, 0, 64, 107
1, 1143230, Control_c, 0, 64, 127
1, 1143254, Poly_aftertouch_c, 0, 32, 127
1, 1143293, Note_off_c, 0, 43, 45
1, 1143299, Poly_aftertouch_c, 0, 32, 0
1, 1143332, Note_on_c, 0, 58, 98
1, 1143336, Note_on_c, 0, 46, 89
1, 1143347, Note_off_c, 0, 31, 61
1, 1143358, Note_off_c, 0, 46, 66
1, 1143373, Note_off_c, 0, 58, 64
1, 1143405, Note_on_c, 0, 58, 65
1, 1143409, Control_c, 0, 64, 85
1, 1143412, Note_on_c, 0, 32, 93
1, 1143412, Note_on_c, 0, 44, 99
1, 1143418, Note_on_c, 0, 47, 81
1, 1143420, Note_on_c, 0, 59, 87
1, 1143424, Control_c, 0, 64, 54
1, 1143438, Control_c, 0, 64, 0
1, 1143459, Note_on_c, 0, 31, 37
1, 1143468, Control_c, 0, 64, 62
1, 1143483, Control_c, 0, 64, 74
1, 1143496, Note_off_c, 0, 31, 54
1, 1143498, Control_c, 0, 64, 97
1, 1143512, Control_c, 0, 64, 127
1, 1143564, Note_off_c, 0, 47, 62
1, 1143592, Note_off_c, 0, 32, 60
1, 1143601, Note_off_c, 0, 44, 59
1, 1143603, Note_off_c, 0, 59, 60
1, 1143610, Note_off_c, 0, 58, 21
1, 1143689, Control_c, 0, 64, 88
1, 1143702, Note_on_c, 0, 34, 87
1, 1143703, Note_on_c, 0, 46, 88
1, 1143704, Note_on_c, 0, 61, 96
1, 1143704, Control_c, 0, 64, 63
1, 1143710, Note_on_c, 0, 49, 95
1, 1143719, Control_c, 0, 64, 57
1, 1143734, Control_c, 0, 64, 70
1, 1143750, Control_c, 0, 64, 87
1, 1143765, Control_c, 0, 64, 127
1, 1143881, Note_off_c, 0, 49, 62
1, 1143904, Note_off_c, 0, 46, 62
1, 1143925, Note_off_c, 0, 34, 59
1, 1143940, Note_off_c, 0, 61, 59
1, 1143994, Control_c, 0, 64, 100
1, 1144008, Note_on_c, 0, 62, 99
1, 1144009, Control_c, 0, 64, 67
1, 1144012, Note_on_c, 0, 47, 85
1, 1144013, Note_on_c, 0, 50, 92
1, 1144015, Note_on_c, 0, 35, 80
1, 1144024, Control_c, 0, 64, 0
1, 1144052, Note_on_c, 0, 45, 32
1, 1144053, Note_off_c, 0, 45, 127
1, 1144053, Control_c, 0, 64, 17
1, 1144068, Control_c, 0, 64, 65
1, 1144083, Control_c, 0, 64, 78
1, 1144098, Control_c, 0, 64, 110
1, 1144113, Control_c, 0, 64, 127
1, 1144130, Note_off_c, 0, 47, 60
1, 1144138, Note_off_c, 0, 50, 59
1, 1144178, Note_off_c, 0, 35, 60
1, 1144310, Note_off_c, 0, 62, 59
1, 1144313, Note_on_c, 0, 33, 86
1, 1144333, Note_on_c, 0, 52, 84
1, 1144469, Note_on_c, 0, 64, 99
1, 1144478, Note_on_c, 0, 61, 96
1, 1144479, Note_on_c, 0, 45, 83
1, 1144497, Control_c, 0, 64, 84
1, 1144512, Control_c, 0, 64, 56
1, 1144535, Control_c, 0, 64, 0
1, 1144581, Control_c, 0, 64, 67
1, 1144595, Control_c, 0, 64, 82
1, 1144610, Control_c, 0, 64, 115
1, 1144624, Control_c, 0, 64, 127
1, 1144644, Note_off_c, 0, 33, 58
1, 1144656, Note_off_c, 0, 52, 60
1, 1144688, Note_off_c, 0, 64, 59
1, 1144721, Note_off_c, 0, 45, 61
1, 1144764, Note_off_c, 0, 61, 59
1, 1144802, Note_on_c, 0, 38, 81
1, 1144812, Note_on_c, 0, 54, 79
1, 1144846, Control_c, 0, 64, 87
1, 1144861, Note_on_c, 0, 66, 95
1, 1144861, Control_c, 0, 64, 70
1, 1144866, Note_on_c, 0, 62, 85
1, 1144873, Note_on_c, 0, 50, 92
1, 1144876, Control_c, 0, 64, 78
1, 1144891, Control_c, 0, 64, 114
1, 1144905, Note_on_c, 0, 65, 44
1, 1144905, Control_c, 0, 64, 127
1, 1144953, Note_off_c, 0, 65, 41
1, 1144956, Note_off_c, 0, 54, 59
1, 1144959, Note_off_c, 0, 50, 63
1, 1144976, Note_off_c, 0, 38, 60
1, 1145065, Note_off_c, 0, 66, 57
1, 1145070, Note_off_c, 0, 62, 54
1, 1145083, Control_c, 0, 64, 94
1, 1145095, Note_on_c, 0, 35, 78
1, 1145098, Control_c, 0, 64, 70
1, 1145102, Note_on_c, 0, 55, 74
1, 1145113, Control_c, 0, 64, 62
1, 1145127, Control_c, 0, 64, 70
1, 1145129, Note_on_c, 0, 62, 80
1, 1145129, Note_on_c, 0, 67, 98
1, 1145141, Note_on_c, 0, 47, 84
1, 1145142, Control_c, 0, 64, 92
1, 1145157, Control_c, 0, 64, 127
1, 1145215, Note_off_c, 0, 55, 62
1, 1145218, Note_off_c, 0, 35, 60
1, 1145250, Note_off_c, 0, 47, 54
1, 1145275, Poly_aftertouch_c, 0, 65, 0
1, 1145297, Note_off_c, 0, 67, 60
1, 1145313, Control_c, 0, 64, 89
1, 1145324, Note_off_c, 0, 62, 61
1, 1145327, Control_c, 0, 64, 64
1, 1145334, Note_on_c, 0, 55, 72
1, 1145335, Note_on_c, 0, 35, 74
1, 1145342, Control_c, 0, 64, 61
1, 1145358, Control_c, 0, 64, 71
1, 1145373, Control_c, 0, 64, 91
1, 1145380, Note_on_c, 0, 67, 90
1, 1145385, Note_on_c, 0, 62, 76
1, 1145388, Control_c, 0, 64, 127
1, 1145389, Note_on_c, 0, 47, 78
1, 1145425, Note_off_c, 0, 55, 64
1, 1145453, Note_off_c, 0, 35, 61
1, 1145466, Note_off_c, 0, 47, 62
1, 1145468, Note_off_c, 0, 67, 58
1, 1145541, Note_off_c, 0, 62, 55
1, 1145550, Control_c, 0, 64, 91
1, 1145554, Note_on_c, 0, 33, 74
1, 1145565, Control_c, 0, 64, 75
1, 1145574, Note_on_c, 0, 54, 85
1, 1145580, Control_c, 0, 64, 79
1, 1145587, Note_on_c, 0, 66, 87
1, 1145595, Control_c, 0, 64, 121
1, 1145599, Note_on_c, 0, 62, 59
1, 1145610, Control_c, 0, 64, 127
1, 1145613, Note_on_c, 0, 45, 78
1, 1145626, Note_off_c, 0, 33, 60
1, 1145676, Note_off_c, 0, 54, 63
1, 1145681, Note_off_c, 0, 45, 61
1, 1145713, Note_off_c, 0, 66, 60
1, 1145743, Note_off_c, 0, 62, 61
1, 1145743, Control_c, 0, 64, 99
1, 1145745, Note_on_c, 0, 38, 74
1, 1145758, Control_c, 0, 64, 76
1, 1145768, Note_on_c, 0, 45, 75
1, 1145770, Note_on_c, 0, 60, 87
1, 1145770, Note_on_c, 0, 54, 92
1, 1145773, Control_c, 0, 64, 75
1, 1145773, Note_on_c, 0, 66, 88
1, 1145783, Note_on_c, 0, 50, 83
1, 1145788, Control_c, 0, 64, 104
1, 1145803, Control_c, 0, 64, 127
1, 1145839, Note_off_c, 0, 54, 62
1, 1145841, Note_off_c, 0, 38, 61
1, 1145876, Note_off_c, 0, 50, 61
1, 1145886, Note_off_c, 0, 66, 59
1, 1145901, Note_off_c, 0, 45, 61
1, 1145901, Note_off_c, 0, 60, 63
1, 1145921, Control_c, 0, 64, 103
1, 1145936, Control_c, 0, 64, 73
1, 1145948, Note_on_c, 0, 54, 83
1, 1145950, Control_c, 0, 64, 64
1, 1145951, Note_on_c, 0, 38, 74
1, 1145961, Note_on_c, 0, 66, 95
1, 1145964, Note_on_c, 0, 45, 83
1, 1145965, Control_c, 0, 64, 77
1, 1145966, Note_on_c, 0, 50, 84
1, 1145966, Note_on_c, 0, 60, 82
1, 1145980, Control_c, 0, 64, 127
1, 1146005, Note_on_c, 0, 61, 15
1, 1146034, Note_off_c, 0, 38, 61
1, 1146040, Note_off_c, 0, 54, 61
1, 1146059, Note_off_c, 0, 50, 67
1, 1146069, Note_off_c, 0, 45, 64
1, 1146089, Note_off_c, 0, 60, 64
1, 1146093, Note_off_c, 0, 66, 60
1, 1146095, Note_off_c, 0, 61, 33
1, 1146122, Control_c, 0, 64, 97
1, 1146131, Note_on_c, 0, 37, 73
1, 1146135, Note_on_c, 0, 54, 78
1, 1146137, Control_c, 0, 64, 72
1, 1146152, Note_on_c, 0, 49, 90
1, 1146152, Control_c, 0, 64, 70
1, 1146159, Note_on_c, 0, 46, 79
1, 1146162, Note_on_c, 0, 66, 88
1, 1146167, Control_c, 0, 64, 97
1, 1146181, Control_c, 0, 64, 127
1, 1146182, Note_on_c, 0, 61, 81
1, 1146216, Note_off_c, 0, 54, 65
1, 1146234, Note_off_c, 0, 37, 59
1, 1146241, Note_off_c, 0, 49, 62
1, 1146256, Note_off_c, 0, 46, 61
1, 1146274, Note_off_c, 0, 66, 60
1, 1146284, Note_off_c, 0, 61, 62
1, 1146286, Control_c, 0, 64, 93
1, 1146301, Control_c, 0, 64, 75
1, 1146311, Note_on_c, 0, 37, 66
1, 1146315, Control_c, 0, 64, 77
1, 1146322, Note_on_c, 0, 56, 85
1, 1146324, Note_on_c, 0, 41, 82
1, 1146329, Note_on_c, 0, 49, 93
1, 1146330, Control_c, 0, 64, 127
1, 1146336, Note_on_c, 0, 68, 93
1, 1146345, Note_on_c, 0, 61, 79
1, 1146393, Note_off_c, 0, 56, 64
1, 1146402, Note_off_c, 0, 37, 57
1, 1146424, Poly_aftertouch_c, 0, 63, 127
1, 1146426, Note_off_c, 0, 49, 61
1, 1146444, Note_off_c, 0, 41, 61
1, 1146452, Note_off_c, 0, 68, 58
1, 1146463, Control_c, 0, 64, 110
1, 1146468, Note_off_c, 0, 61, 61
1, 1146476, Poly_aftertouch_c, 0, 63, 0
1, 1146478, Control_c, 0, 64, 71
1, 1146493, Control_c, 0, 64, 50
1, 1146494, Note_on_c, 0, 37, 81
1, 1146496, Note_on_c, 0, 56, 95
1, 1146506, Note_on_c, 0, 41, 70
1, 1146507, Control_c, 0, 64, 68
1, 1146511, Note_on_c, 0, 68, 82
1, 1146519, Note_on_c, 0, 49, 72
1, 1146522, Control_c, 0, 64, 101
1, 1146533, Note_on_c, 0, 61, 64
1, 1146537, Control_c, 0, 64, 127
1, 1146581, Note_off_c, 0, 56, 63
1, 1146611, Note_off_c, 0, 49, 62
1, 1146622, Note_on_c, 0, 63, 26
1, 1146628, Note_off_c, 0, 68, 60
1, 1146647, Note_off_c, 0, 61, 63
1, 1146655, Control_c, 0, 64, 80
1, 1146662, Note_off_c, 0, 63, 56
1, 1146670, Control_c, 0, 64, 46
1, 1146673, Note_off_c, 0, 41, 54
1, 1146681, Note_on_c, 0, 58, 77
1, 1146685, Control_c, 0, 64, 65
1, 1146697, Note_on_c, 0, 42, 75
1, 1146698, Note_on_c, 0, 49, 90
1, 1146698, Note_off_c, 0, 37, 63
1, 1146700, Control_c, 0, 64, 89
1, 1146712, Note_on_c, 0, 61, 84
1, 1146715, Note_on_c, 0, 70, 85
1, 1146715, Control_c, 0, 64, 127
1, 1146728, Note_off_c, 0, 42, 64
1, 1146744, Note_off_c, 0, 58, 64
1, 1146754, Note_off_c, 0, 49, 64
1, 1146786, Note_off_c, 0, 61, 64
1, 1146808, Note_off_c, 0, 70, 63
1, 1146875, Note_on_c, 0, 47, 78
1, 1146893, Note_on_c, 0, 62, 86
1, 1146900, Control_c, 0, 64, 80
1, 1146901, Note_on_c, 0, 55, 89
1, 1146912, Note_on_c, 0, 59, 82
1, 1146915, Control_c, 0, 64, 62
1, 1146929, Note_on_c, 0, 74, 85
1, 1146930, Control_c, 0, 64, 66
1, 1146935, Note_on_c, 0, 71, 84
1, 1146945, Control_c, 0, 64, 83
1, 1146960, Control_c, 0, 64, 127
1, 1146970, Note_off_c, 0, 62, 63
1, 1146980, Note_off_c, 0, 59, 62
1, 1146993, Note_off_c, 0, 55, 62
1, 1146994, Note_off_c, 0, 47, 64
1, 1147043, Note_off_c, 0, 71, 65
1, 1147070, Note_off_c, 0, 74, 64
1, 1147120, Note_on_c, 0, 64, 79
1, 1147130, Note_on_c, 0, 45, 73
1, 1147158, Note_on_c, 0, 52, 70
1, 1147168, Control_c, 0, 64, 80
1, 1147182, Note_on_c, 0, 57, 69
1, 1147183, Control_c, 0, 64, 0
1, 1147188, Note_on_c, 0, 76, 71
1, 1147201, Note_on_c, 0, 73, 60
1, 1147212, Control_c, 0, 64, 60
1, 1147213, Note_on_c, 0, 74, 48
1, 1147227, Control_c, 0, 64, 78
1, 1147228, Note_off_c, 0, 45, 64
1, 1147231, Note_on_c, 0, 72, 55
1, 1147234, Note_off_c, 0, 64, 62
1, 1147242, Note_off_c, 0, 74, 34
1, 1147242, Control_c, 0, 64, 127
1, 1147243, Note_off_c, 0, 73, 0
1, 1147243, Note_on_c, 0, 73, 25
1, 1147269, Note_off_c, 0, 76, 61
1, 1147275, Note_off_c, 0, 52, 62
1, 1147283, Note_off_c, 0, 72, 61
1, 1147301, Note_off_c, 0, 57, 62
1, 1147303, Note_off_c, 0, 73, 43
1, 1147345, Control_c, 0, 64, 86
1, 1147360, Control_c, 0, 64, 64
1, 1147367, Note_on_c, 0, 50, 71
1, 1147368, Note_on_c, 0, 66, 77
1, 1147375, Control_c, 0, 64, 65
1, 1147390, Control_c, 0, 64, 82
1, 1147392, Note_on_c, 0, 78, 82
1, 1147396, Note_on_c, 0, 57, 80
1, 1147403, Note_on_c, 0, 62, 78
1, 1147404, Control_c, 0, 64, 127
1, 1147406, Note_on_c, 0, 74, 72
1, 1147441, Note_off_c, 0, 66, 62
1, 1147449, Note_off_c, 0, 50, 64
1, 1147484, Note_off_c, 0, 57, 63
1, 1147484, Note_off_c, 0, 62, 60
1, 1147504, Note_off_c, 0, 74, 63
1, 1147505, Note_off_c, 0, 78, 61
1, 1147544, Note_on_c, 0, 50, 88
1, 1147545, Control_c, 0, 64, 85
1, 1147546, Note_on_c, 0, 67, 91
1, 1147560, Control_c, 0, 64, 67
1, 1147567, Note_on_c, 0, 59, 93
1, 1147570, Note_on_c, 0, 79, 84
1, 1147572, Note_on_c, 0, 74, 69
1, 1147575, Control_c, 0, 64, 69
1, 1147579, Note_on_c, 0, 62, 83
1, 1147590, Control_c, 0, 64, 90
1, 1147604, Control_c, 0, 64, 127
1, 1147628, Note_off_c, 0, 50, 61
1, 1147636, Note_off_c, 0, 67, 61
1, 1147670, Note_off_c, 0, 59, 63
1, 1147672, Note_off_c, 0, 62, 61
1, 1147684, Note_off_c, 0, 79, 61
1, 1147693, Note_off_c, 0, 74, 65
1, 1147708, Control_c, 0, 64, 103
1, 1147722, Note_on_c, 0, 50, 80
1, 1147722, Control_c, 0, 64, 78
1, 1147725, Note_on_c, 0, 67, 76
1, 1147737, Control_c, 0, 64, 72
1, 1147746, Note_on_c, 0, 59, 80
1, 1147750, Note_on_c, 0, 79, 89
1, 1147753, Control_c, 0, 64, 82
1, 1147759, Note_on_c, 0, 74, 82
1, 1147762, Note_on_c, 0, 62, 80
1, 1147765, Note_on_c, 0, 60, 64
1, 1147768, Control_c, 0, 64, 127
1, 1147801, Note_off_c, 0, 67, 61
1, 1147821, Note_off_c, 0, 50, 62
1, 1147822, Note_off_c, 0, 79, 61
1, 1147830, Note_off_c, 0, 62, 61
1, 1147842, Note_off_c, 0, 59, 61
1, 1147866, Note_off_c, 0, 60, 23
1, 1147869, Note_off_c, 0, 74, 64
1, 1147887, Control_c, 0, 64, 110
1, 1147901, Control_c, 0, 64, 79
1, 1147903, Note_on_c, 0, 50, 64
1, 1147916, Note_on_c, 0, 66, 80
1, 1147916, Control_c, 0, 64, 76
1, 1147922, Note_on_c, 0, 57, 83
1, 1147928, Note_on_c, 0, 78, 90
1, 1147931, Note_on_c, 0, 62, 79
1, 1147931, Control_c, 0, 64, 100
1, 1147932, Note_on_c, 0, 74, 83
1, 1147946, Control_c, 0, 64, 127
1, 1147997, Note_off_c, 0, 50, 61
1, 1148003, Note_off_c, 0, 66, 60
1, 1148018, Note_off_c, 0, 62, 60
1, 1148032, Note_off_c, 0, 78, 62
1, 1148035, Note_off_c, 0, 57, 59
1, 1148035, Note_off_c, 0, 74, 64
1, 1148050, Control_c, 0, 64, 94
1, 1148065, Control_c, 0, 64, 74
1, 1148080, Control_c, 0, 64, 72
1, 1148089, Note_on_c, 0, 50, 79
1, 1148089, Note_on_c, 0, 66, 93
1, 1148090, Note_on_c, 0, 57, 77
1, 1148092, Note_on_c, 0, 72, 90
1, 1148094, Control_c, 0, 64, 90
1, 1148098, Note_on_c, 0, 78, 85
1, 1148099, Note_on_c, 0, 62, 78
1, 1148109, Control_c, 0, 64, 127
1, 1148122, Note_on_c, 0, 73, 49
1, 1148157, Note_off_c, 0, 66, 61
1, 1148157, Note_off_c, 0, 73, 47
1, 1148169, Note_off_c, 0, 50, 62
1, 1148183, Note_off_c, 0, 62, 59
1, 1148186, Note_off_c, 0, 78, 61
1, 1148192, Note_off_c, 0, 72, 62
1, 1148199, Note_off_c, 0, 57, 60
1, 1148213, Control_c, 0, 64, 87
1, 1148227, Control_c, 0, 64, 68
1, 1148248, Note_on_c, 0, 66, 93
1, 1148250, Note_on_c, 0, 72, 91
1, 1148253, Note_on_c, 0, 50, 78
1, 1148253, Note_on_c, 0, 57, 76
1, 1148254, Note_on_c, 0, 62, 79
1, 1148254, Note_on_c, 0, 78, 87
1, 1148257, Control_c, 0, 64, 85
1, 1148279, Control_c, 0, 64, 127
1, 1148306, Note_off_c, 0, 50, 62
1, 1148328, Note_off_c, 0, 66, 61
1, 1148330, Note_off_c, 0, 62, 61
1, 1148338, Poly_aftertouch_c, 0, 73, 127
1, 1148344, Note_off_c, 0, 57, 64
1, 1148359, Note_off_c, 0, 72, 63
1, 1148363, Note_off_c, 0, 78, 62
1, 1148383, Control_c, 0, 64, 117
1, 1148386, Poly_aftertouch_c, 0, 73, 0
1, 1148398, Control_c, 0, 64, 78
1, 1148409, Note_on_c, 0, 49, 74
1, 1148413, Control_c, 0, 64, 65
1, 1148415, Note_on_c, 0, 61, 97
1, 1148415, Note_on_c, 0, 66, 86
1, 1148423, Note_on_c, 0, 58, 83
1, 1148427, Control_c, 0, 64, 74
1, 1148428, Note_on_c, 0, 78, 91
1, 1148434, Note_on_c, 0, 73, 88
1, 1148442, Control_c, 0, 64, 106
1, 1148457, Control_c, 0, 64, 127
1, 1148486, Note_off_c, 0, 66, 62
1, 1148496, Note_off_c, 0, 49, 62
1, 1148504, Note_off_c, 0, 61, 61
1, 1148531, Note_off_c, 0, 58, 61
1, 1148532, Note_off_c, 0, 78, 62
1, 1148539, Note_off_c, 0, 73, 62
1, 1148547, Control_c, 0, 64, 93
1, 1148562, Control_c, 0, 64, 67
1, 1148576, Control_c, 0, 64, 69
1, 1148578, Note_on_c, 0, 49, 77
1, 1148580, Note_on_c, 0, 68, 88
1, 1148584, Note_on_c, 0, 53, 89
1, 1148587, Note_on_c, 0, 61, 97
1, 1148591, Control_c, 0, 64, 92
1, 1148595, Note_on_c, 0, 80, 97
1, 1148602, Note_on_c, 0, 73, 87
1, 1148606, Control_c, 0, 64, 127
1, 1148629, Note_on_c, 0, 75, 44
1, 1148648, Note_off_c, 0, 68, 63
1, 1148655, Note_off_c, 0, 49, 60
1, 1148657, Note_off_c, 0, 75, 57
1, 1148678, Note_off_c, 0, 61, 62
1, 1148696, Note_off_c, 0, 80, 63
1, 1148700, Note_off_c, 0, 53, 59
1, 1148710, Note_off_c, 0, 73, 62
1, 1148710, Control_c, 0, 64, 118
1, 1148724, Control_c, 0, 64, 75
1, 1148739, Control_c, 0, 64, 0
1, 1148748, Note_on_c, 0, 68, 82
1, 1148748, Note_on_c, 0, 49, 80
1, 1148755, Note_on_c, 0, 53, 78
1, 1148759, Note_on_c, 0, 61, 91
1, 1148769, Control_c, 0, 64, 62
1, 1148774, Note_on_c, 0, 80, 90
1, 1148778, Note_on_c, 0, 73, 86
1, 1148784, Control_c, 0, 64, 85
1, 1148799, Control_c, 0, 64, 127
1, 1148825, Note_off_c, 0, 68, 62
1, 1148840, Note_off_c, 0, 61, 61
1, 1148868, Note_off_c, 0, 80, 65
1, 1148888, Note_off_c, 0, 73, 62
1, 1148891, Note_off_c, 0, 53, 62
1, 1148902, Control_c, 0, 64, 98
1, 1148917, Control_c, 0, 64, 73
1, 1148918, Note_off_c, 0, 49, 65
1, 1148924, Note_on_c, 0, 70, 77
1, 1148926, Note_on_c, 0, 54, 83
1, 1148932, Control_c, 0, 64, 68
1, 1148935, Note_on_c, 0, 61, 87
1, 1148943, Note_on_c, 0, 82, 89
1, 1148947, Control_c, 0, 64, 87
1, 1148954, Note_on_c, 0, 73, 79
1, 1148962, Control_c, 0, 64, 127
1, 1148994, Note_off_c, 0, 54, 64
1, 1148995, Note_off_c, 0, 82, 66
1, 1148998, Note_off_c, 0, 61, 64
1, 1149001, Note_off_c, 0, 70, 64
1, 1149003, Note_on_c, 0, 80, 13
1, 1149065, Note_off_c, 0, 73, 63
1, 1149068, Note_off_c, 0, 80, 51
1, 1149095, Note_on_c, 0, 50, 78
1, 1149100, Note_on_c, 0, 66, 98
1, 1149102, Control_c, 0, 64, 84
1, 1149103, Note_on_c, 0, 57, 81
1, 1149106, Note_on_c, 0, 62, 83
1, 1149112, Note_on_c, 0, 78, 99
1, 1149117, Control_c, 0, 64, 66
1, 1149132, Control_c, 0, 64, 71
1, 1149133, Note_on_c, 0, 72, 68
1, 1149138, Note_on_c, 0, 71, 62
1, 1149147, Control_c, 0, 64, 110
1, 1149162, Control_c, 0, 64, 127
1, 1149189, Note_off_c, 0, 50, 64
1, 1149192, Note_off_c, 0, 66, 62
1, 1149199, Note_off_c, 0, 71, 58
1, 1149211, Note_off_c, 0, 62, 62
1, 1149224, Note_off_c, 0, 78, 61
1, 1149231, Note_off_c, 0, 57, 61
1, 1149240, Note_off_c, 0, 72, 63
1, 1149250, Control_c, 0, 64, 86
1, 1149265, Control_c, 0, 64, 63
1, 1149280, Control_c, 0, 64, 50
1, 1149288, Note_on_c, 0, 57, 85
1, 1149290, Note_on_c, 0, 66, 95
1, 1149290, Note_on_c, 0, 50, 80
1, 1149291, Note_on_c, 0, 62, 87
1, 1149294, Control_c, 0, 64, 70
1, 1149296, Note_on_c, 0, 72, 83
1, 1149297, Note_on_c, 0, 78, 94
1, 1149309, Control_c, 0, 64, 99
1, 1149324, Control_c, 0, 64, 127
1, 1149357, Note_off_c, 0, 50, 65
1, 1149366, Note_off_c, 0, 62, 61
1, 1149369, Note_off_c, 0, 66, 59
1, 1149383, Note_off_c, 0, 57, 62
1, 1149397, Note_off_c, 0, 78, 61
1, 1149402, Note_off_c, 0, 72, 58
1, 1149429, Control_c, 0, 64, 78
1, 1149444, Control_c, 0, 64, 34
1, 1149457, Note_on_c, 0, 65, 90
1, 1149459, Control_c, 0, 64, 50
1, 1149460, Note_on_c, 0, 49, 76
1, 1149461, Note_on_c, 0, 61, 94
1, 1149465, Note_on_c, 0, 77, 94
1, 1149466, Note_on_c, 0, 56, 90
1, 1149469, Note_on_c, 0, 73, 97
1, 1149473, Control_c, 0, 64, 70
1, 1149483, Note_off_c, 0, 49, 67
1, 1149488, Control_c, 0, 64, 93
1, 1149492, Note_on_c, 0, 75, 55
1, 1149499, Note_off_c, 0, 65, 66
1, 1149503, Control_c, 0, 64, 127
1, 1149519, Note_off_c, 0, 75, 54
1, 1149526, Note_off_c, 0, 61, 59
1, 1149530, Note_off_c, 0, 56, 64
1, 1149543, Note_off_c, 0, 77, 63
1, 1149548, Note_off_c, 0, 73, 65
1, 1149646, Note_on_c, 0, 53, 87
1, 1149651, Note_on_c, 0, 71, 101
1, 1149651, Control_c, 0, 64, 81
1, 1149662, Note_on_c, 0, 83, 99
1, 1149666, Control_c, 0, 64, 66
1, 1149670, Note_on_c, 0, 61, 95
1, 1149673, Note_on_c, 0, 68, 90
1, 1149673, Note_on_c, 0, 73, 76
1, 1149678, Note_on_c, 0, 74, 92
1, 1149681, Control_c, 0, 64, 73
1, 1149683, Note_on_c, 0, 80, 69
1, 1149687, Note_on_c, 0, 55, 53
1, 1149696, Control_c, 0, 64, 108
1, 1149708, Note_off_c, 0, 73, 0
1, 1149708, Note_on_c, 0, 73, 40
1, 1149710, Control_c, 0, 64, 127
1, 1149721, Note_off_c, 0, 55, 60
1, 1149726, Note_off_c, 0, 53, 63
1, 1149737, Note_off_c, 0, 71, 62
1, 1149746, Note_off_c, 0, 80, 35
1, 1149751, Note_off_c, 0, 68, 59
1, 1149769, Note_off_c, 0, 73, 55
1, 1149774, Note_off_c, 0, 83, 58
1, 1149775, Note_off_c, 0, 74, 62
1, 1149792, Note_off_c, 0, 61, 58
1, 1149836, Control_c, 0, 64, 100
1, 1149851, Control_c, 0, 64, 70
1, 1149852, Note_on_c, 0, 53, 80
1, 1149866, Note_on_c, 0, 71, 95
1, 1149866, Control_c, 0, 64, 0
1, 1149869, Note_on_c, 0, 83, 99
1, 1149874, Note_on_c, 0, 73, 101
1, 1149880, Control_c, 0, 64, 60
1, 1149883, Note_on_c, 0, 61, 82
1, 1149889, Note_on_c, 0, 80, 66
1, 1149890, Note_on_c, 0, 68, 80
1, 1149895, Control_c, 0, 64, 81
1, 1149910, Control_c, 0, 64, 127
1, 1149916, Note_off_c, 0, 53, 50
1, 1149927, Note_off_c, 0, 71, 61
1, 1149934, Note_off_c, 0, 83, 63
1, 1149948, Note_off_c, 0, 80, 61
1, 1149961, Note_off_c, 0, 68, 61
1, 1149982, Note_off_c, 0, 73, 62
1, 1149990, Note_off_c, 0, 61, 62
1, 1150013, Control_c, 0, 64, 103
1, 1150028, Control_c, 0, 64, 79
1, 1150039, Note_on_c, 0, 54, 63
1, 1150043, Control_c, 0, 64, 80
1, 1150048, Note_on_c, 0, 70, 97
1, 1150049, Note_on_c, 0, 66, 85
1, 1150055, Note_on_c, 0, 82, 99
1, 1150056, Note_on_c, 0, 61, 70
1, 1150058, Control_c, 0, 64, 127
1, 1150059, Note_on_c, 0, 73, 100
1, 1150084, Note_off_c, 0, 66, 59
1, 1150095, Note_off_c, 0, 70, 63
1, 1150101, Note_off_c, 0, 54, 64
1, 1150104, Note_off_c, 0, 82, 67
1, 1150107, Note_on_c, 0, 80, 11
1, 1150110, Note_off_c, 0, 61, 62
1, 1150154, Note_off_c, 0, 73, 62
1, 1150158, Note_off_c, 0, 80, 52
1, 1150192, Control_c, 0, 64, 92
1, 1150196, Note_on_c, 0, 50, 80
1, 1150205, Note_on_c, 0, 57, 77
1, 1150207, Control_c, 0, 64, 66
1, 1150209, Note_on_c, 0, 66, 99
1, 1150213, Note_on_c, 0, 78, 102
1, 1150217, Note_on_c, 0, 72, 90
1, 1150218, Note_on_c, 0, 62, 71
1, 1150221, Control_c, 0, 64, 65
1, 1150236, Control_c, 0, 64, 86
1, 1150251, Control_c, 0, 64, 127
1, 1150280, Note_off_c, 0, 66, 59
1, 1150286, Note_off_c, 0, 50, 63
1, 1150301, Note_off_c, 0, 62, 60
1, 1150307, Note_off_c, 0, 78, 61
1, 1150312, Note_off_c, 0, 72, 61
1, 1150314, Note_off_c, 0, 57, 60
1, 1150325, Control_c, 0, 64, 124
1, 1150340, Control_c, 0, 64, 79
1, 1150355, Control_c, 0, 64, 64
1, 1150369, Control_c, 0, 64, 72
1, 1150372, Note_on_c, 0, 66, 100
1, 1150373, Note_on_c, 0, 72, 93
1, 1150373, Note_on_c, 0, 78, 100
1, 1150379, Note_on_c, 0, 50, 73
1, 1150384, Note_on_c, 0, 56, 63
1, 1150385, Note_off_c, 0, 56, 127
1, 1150385, Control_c, 0, 64, 97
1, 1150385, Note_on_c, 0, 62, 82
1, 1150393, Note_on_c, 0, 57, 78
1, 1150399, Control_c, 0, 64, 127
1, 1150428, Note_off_c, 0, 50, 64
1, 1150433, Note_off_c, 0, 66, 62
1, 1150438, Note_off_c, 0, 62, 61
1, 1150449, Note_off_c, 0, 78, 62
1, 1150450, Note_off_c, 0, 57, 63
1, 1150453, Note_off_c, 0, 72, 61
1, 1150503, Control_c, 0, 64, 99
1, 1150525, Control_c, 0, 64, 68
1, 1150531, Note_on_c, 0, 49, 73
1, 1150535, Note_on_c, 0, 65, 95
1, 1150539, Note_on_c, 0, 61, 92
1, 1150539, Control_c, 0, 64, 0
1, 1150540, Note_on_c, 0, 77, 100
1, 1150541, Note_on_c, 0, 56, 87
1, 1150545, Note_on_c, 0, 73, 96
1, 1150554, Control_c, 0, 64, 56
1, 1150564, Note_off_c, 0, 49, 64
1, 1150567, Note_on_c, 0, 75, 49
1, 1150569, Control_c, 0, 64, 77
1, 1150573, Note_off_c, 0, 65, 67
1, 1150584, Control_c, 0, 64, 127
1, 1150596, Note_off_c, 0, 75, 55
1, 1150606, Note_off_c, 0, 61, 60
1, 1150609, Note_off_c, 0, 56, 63
1, 1150614, Note_off_c, 0, 77, 62
1, 1150620, Note_off_c, 0, 73, 64
1, 1150703, Control_c, 0, 64, 81
1, 1150706, Note_on_c, 0, 53, 83
1, 1150718, Control_c, 0, 64, 67
1, 1150721, Note_on_c, 0, 71, 96
1, 1150728, Note_on_c, 0, 83, 103
1, 1150729, Note_on_c, 0, 73, 105
1, 1150733, Control_c, 0, 64, 75
1, 1150735, Note_on_c, 0, 61, 98
1, 1150742, Note_on_c, 0, 68, 84
1, 1150746, Note_on_c, 0, 80, 72
1, 1150747, Control_c, 0, 64, 116
1, 1150757, Note_off_c, 0, 71, 66
1, 1150760, Note_on_c, 0, 55, 49
1, 1150762, Control_c, 0, 64, 127
1, 1150767, Note_off_c, 0, 80, 59
1, 1150785, Note_off_c, 0, 55, 58
1, 1150791, Note_off_c, 0, 53, 63
1, 1150794, Note_off_c, 0, 68, 64
1, 1150809, Note_off_c, 0, 83, 63
1, 1150820, Note_off_c, 0, 73, 61
1, 1150826, Note_off_c, 0, 61, 62
1, 1150865, Control_c, 0, 64, 103
1, 1150880, Control_c, 0, 64, 71
1, 1150888, Note_on_c, 0, 53, 86
1, 1150895, Control_c, 0, 64, 29
1, 1150905, Note_on_c, 0, 71, 94
1, 1150910, Control_c, 0, 64, 62
1, 1150913, Note_on_c, 0, 83, 93
1, 1150919, Note_on_c, 0, 73, 92
1, 1150920, Note_on_c, 0, 61, 85
1, 1150925, Note_on_c, 0, 68, 78
1, 1150925, Control_c, 0, 64, 77
1, 1150941, Note_on_c, 0, 80, 56
1, 1150941, Control_c, 0, 64, 127
1, 1150946, Note_off_c, 0, 53, 56
1, 1150958, Note_off_c, 0, 71, 65
1, 1150975, Note_off_c, 0, 83, 64
1, 1150978, Note_off_c, 0, 80, 58
1, 1150992, Note_off_c, 0, 68, 61
1, 1151008, Note_off_c, 0, 61, 62
1, 1151010, Poly_aftertouch_c, 0, 55, 0
1, 1151019, Note_off_c, 0, 73, 63
1, 1151059, Control_c, 0, 64, 90
1, 1151069, Note_on_c, 0, 54, 74
1, 1151074, Control_c, 0, 64, 68
1, 1151088, Note_on_c, 0, 66, 87
1, 1151088, Control_c, 0, 64, 65
1, 1151089, Note_on_c, 0, 70, 91
1, 1151095, Note_on_c, 0, 61, 77
1, 1151095, Note_on_c, 0, 82, 97
1, 1151100, Note_on_c, 0, 73, 98
1, 1151103, Control_c, 0, 64, 82
1, 1151118, Control_c, 0, 64, 127
1, 1151125, Note_off_c, 0, 54, 63
1, 1151130, Note_off_c, 0, 70, 65
1, 1151155, Note_off_c, 0, 66, 63
1, 1151162, Note_off_c, 0, 61, 60
1, 1151171, Note_off_c, 0, 73, 63
1, 1151189, Poly_aftertouch_c, 0, 80, 127
1, 1151199, Note_off_c, 0, 82, 65
1, 1151221, Poly_aftertouch_c, 0, 80, 0
1, 1151289, Note_on_c, 0, 59, 82
1, 1151294, Note_on_c, 0, 75, 82
1, 1151303, Control_c, 0, 64, 88
1, 1151318, Control_c, 0, 64, 48
1, 1151321, Note_on_c, 0, 87, 98
1, 1151325, Note_on_c, 0, 78, 94
1, 1151326, Note_on_c, 0, 71, 83
1, 1151327, Note_on_c, 0, 66, 86
1, 1151333, Control_c, 0, 64, 0
1, 1151348, Control_c, 0, 64, 63
1, 1151353, Note_off_c, 0, 75, 64
1, 1151359, Note_off_c, 0, 59, 58
1, 1151362, Control_c, 0, 64, 84
1, 1151377, Control_c, 0, 64, 127
1, 1151420, Note_off_c, 0, 71, 60
1, 1151437, Note_off_c, 0, 66, 58
1, 1151443, Note_off_c, 0, 87, 63
1, 1151446, Note_off_c, 0, 78, 60
1, 1151488, Note_on_c, 0, 59, 74
1, 1151491, Note_on_c, 0, 75, 73
1, 1151495, Control_c, 0, 64, 86
1, 1151510, Control_c, 0, 64, 66
1, 1151523, Note_on_c, 0, 87, 93
1, 1151525, Note_on_c, 0, 71, 85
1, 1151525, Control_c, 0, 64, 70
1, 1151532, Note_on_c, 0, 66, 84
1, 1151537, Note_on_c, 0, 78, 83
1, 1151540, Control_c, 0, 64, 88
1, 1151555, Control_c, 0, 64, 127
1, 1151562, Note_off_c, 0, 59, 61
1, 1151565, Note_on_c, 0, 82, 42
1, 1151565, Note_off_c, 0, 75, 63
1, 1151589, Note_off_c, 0, 71, 62
1, 1151595, Note_off_c, 0, 82, 57
1, 1151605, Note_off_c, 0, 87, 65
1, 1151611, Note_off_c, 0, 66, 61
1, 1151633, Note_off_c, 0, 78, 62
1, 1151673, Control_c, 0, 64, 98
1, 1151678, Note_on_c, 0, 61, 81
1, 1151687, Control_c, 0, 64, 75
1, 1151690, Note_on_c, 0, 73, 84
1, 1151699, Note_on_c, 0, 85, 89
1, 1151702, Control_c, 0, 64, 73
1, 1151708, Note_on_c, 0, 66, 68
1, 1151711, Note_on_c, 0, 78, 82
1, 1151717, Note_on_c, 0, 70, 71
1, 1151717, Control_c, 0, 64, 96
1, 1151733, Control_c, 0, 64, 127
1, 1151740, Note_on_c, 0, 80, 37
1, 1151772, Note_off_c, 0, 80, 53
1, 1151773, Note_off_c, 0, 73, 62
1, 1151775, Note_off_c, 0, 70, 62
1, 1151778, Note_off_c, 0, 61, 59
1, 1151783, Note_off_c, 0, 66, 62
1, 1151789, Note_off_c, 0, 85, 65
1, 1151800, Note_off_c, 0, 78, 62
1, 1151855, Note_on_c, 0, 62, 72
1, 1151866, Control_c, 0, 64, 92
1, 1151869, Note_on_c, 0, 65, 77
1, 1151872, Note_on_c, 0, 71, 81
1, 1151878, Note_on_c, 0, 83, 83
1, 1151881, Control_c, 0, 64, 66
1, 1151883, Note_on_c, 0, 77, 74
1, 1151896, Control_c, 0, 64, 50
1, 1151905, Note_on_c, 0, 68, 71
1, 1151911, Control_c, 0, 64, 67
1, 1151926, Control_c, 0, 64, 84
1, 1151940, Control_c, 0, 64, 127
1, 1151942, Note_off_c, 0, 62, 58
1, 1151945, Note_off_c, 0, 71, 64
1, 1151974, Note_off_c, 0, 68, 61
1, 1151977, Note_off_c, 0, 65, 59
1, 1151977, Note_off_c, 0, 83, 63
1, 1151981, Note_off_c, 0, 77, 62
1, 1152037, Control_c, 0, 64, 91
1, 1152045, Note_on_c, 0, 62, 74
1, 1152052, Control_c, 0, 64, 74
1, 1152054, Note_on_c, 0, 71, 84
1, 1152060, Note_on_c, 0, 83, 82
1, 1152066, Note_on_c, 0, 65, 66
1, 1152066, Control_c, 0, 64, 73
1, 1152076, Note_on_c, 0, 77, 74
1, 1152081, Control_c, 0, 64, 84
1, 1152087, Note_on_c, 0, 68, 68
1, 1152096, Control_c, 0, 64, 107
1, 1152112, Control_c, 0, 64, 127
1, 1152119, Note_off_c, 0, 71, 63
1, 1152122, Note_off_c, 0, 83, 64
1, 1152141, Control_c, 0, 64, 97
1, 1152148, Note_off_c, 0, 68, 61
1, 1152156, Control_c, 0, 64, 76
1, 1152158, Note_off_c, 0, 62, 53
1, 1152162, Note_off_c, 0, 77, 61
1, 1152171, Control_c, 0, 64, 67
1, 1152186, Control_c, 0, 64, 78
1, 1152187, Note_off_c, 0, 65, 56
1, 1152200, Control_c, 0, 64, 101
1, 1152215, Control_c, 0, 64, 127
1, 1152233, Note_on_c, 0, 63, 70
1, 1152236, Note_on_c, 0, 78, 80
1, 1152236, Note_on_c, 0, 82, 84
1, 1152238, Note_on_c, 0, 70, 78
1, 1152242, Note_on_c, 0, 66, 75
1, 1152268, Note_off_c, 0, 66, 64
1, 1152280, Note_off_c, 0, 63, 60
1, 1152307, Note_off_c, 0, 70, 60
1, 1152325, Note_off_c, 0, 78, 60
1, 1152328, Note_off_c, 0, 82, 59
1, 1152393, Control_c, 0, 64, 99
1, 1152408, Control_c, 0, 64, 75
1, 1152414, Note_on_c, 0, 44, 62
1, 1152423, Control_c, 0, 64, 70
1, 1152426, Note_on_c, 0, 71, 69
1, 1152437, Control_c, 0, 64, 80
1, 1152441, Note_on_c, 0, 75, 76
1, 1152443, Note_off_c, 0, 44, 64
1, 1152447, Note_on_c, 0, 83, 73
1, 1152452, Note_on_c, 0, 52, 62
1, 1152452, Control_c, 0, 64, 107
1, 1152467, Control_c, 0, 64, 127
1, 1152481, Note_on_c, 0, 59, 31
1, 1152483, Note_on_c, 0, 60, 39
1, 1152484, Note_off_c, 0, 71, 62
1, 1152492, Note_off_c, 0, 52, 60
1, 1152513, Note_off_c, 0, 59, 54
1, 1152516, Note_off_c, 0, 60, 54
1, 1152527, Note_off_c, 0, 83, 62
1, 1152539, Note_off_c, 0, 75, 60
1, 1152577, Note_on_c, 0, 44, 64
1, 1152587, Control_c, 0, 64, 94
1, 1152602, Control_c, 0, 64, 68
1, 1152616, Control_c, 0, 64, 32
1, 1152617, Note_on_c, 0, 71, 76
1, 1152628, Note_on_c, 0, 83, 79
1, 1152631, Control_c, 0, 64, 63
1, 1152634, Note_on_c, 0, 51, 65
1, 1152638, Note_on_c, 0, 75, 79
1, 1152638, Note_off_c, 0, 44, 64
1, 1152641, Note_on_c, 0, 59, 56
1, 1152646, Control_c, 0, 64, 83
1, 1152656, Note_off_c, 0, 71, 60
1, 1152661, Control_c, 0, 64, 127
1, 1152673, Note_off_c, 0, 83, 61
1, 1152683, Note_off_c, 0, 59, 56
1, 1152710, Note_off_c, 0, 51, 60
1, 1152721, Note_off_c, 0, 75, 61
1, 1152775, Note_on_c, 0, 46, 69
1, 1152802, Control_c, 0, 64, 82
1, 1152814, Note_on_c, 0, 70, 80
1, 1152816, Control_c, 0, 64, 56
1, 1152817, Note_off_c, 0, 46, 63
1, 1152820, Note_on_c, 0, 82, 85
1, 1152822, Note_on_c, 0, 51, 59
1, 1152831, Control_c, 0, 64, 56
1, 1152835, Note_on_c, 0, 75, 79
1, 1152839, Note_on_c, 0, 61, 65
1, 1152846, Control_c, 0, 64, 79
1, 1152861, Control_c, 0, 64, 127
1, 1152863, Note_off_c, 0, 70, 63
1, 1152866, Note_off_c, 0, 61, 65
1, 1152869, Note_off_c, 0, 51, 62
1, 1152877, Note_off_c, 0, 82, 62
1, 1152897, Note_off_c, 0, 75, 61
1, 1152963, Note_on_c, 0, 47, 57
1, 1152979, Control_c, 0, 64, 80
1, 1152984, Note_on_c, 0, 68, 77
1, 1152987, Note_off_c, 0, 47, 61
1, 1152994, Control_c, 0, 64, 65
1, 1152999, Note_on_c, 0, 80, 80
1, 1153009, Control_c, 0, 64, 71
1, 1153017, Note_on_c, 0, 56, 70
1, 1153022, Note_on_c, 0, 71, 56
1, 1153023, Control_c, 0, 64, 99
1, 1153024, Note_on_c, 0, 75, 56
1, 1153037, Note_on_c, 0, 63, 51
1, 1153037, Note_off_c, 0, 68, 62
1, 1153038, Control_c, 0, 64, 127
1, 1153055, Note_off_c, 0, 80, 64
1, 1153063, Note_off_c, 0, 63, 60
1, 1153072, Note_off_c, 0, 75, 61
1, 1153073, Note_off_c, 0, 56, 44
1, 1153100, Note_off_c, 0, 71, 50
1, 1153163, Note_on_c, 0, 49, 58
1, 1153172, Control_c, 0, 64, 85
1, 1153186, Control_c, 0, 64, 51
1, 1153198, Note_on_c, 0, 65, 75
1, 1153201, Control_c, 0, 64, 0
1, 1153214, Note_on_c, 0, 77, 68
1, 1153216, Control_c, 0, 64, 63
1, 1153222, Note_on_c, 0, 71, 60
1, 1153231, Control_c, 0, 64, 83
1, 1153234, Note_on_c, 0, 56, 49
1, 1153236, Note_on_c, 0, 61, 58
1, 1153237, Note_on_c, 0, 73, 67
1, 1153246, Control_c, 0, 64, 127
1, 1153255, Note_off_c, 0, 65, 63
1, 1153276, Note_off_c, 0, 61, 61
1, 1153279, Note_off_c, 0, 77, 60
1, 1153324, Note_off_c, 0, 56, 60
1, 1153338, Note_off_c, 0, 71, 45
1, 1153365, Control_c, 0, 64, 101
1, 1153380, Control_c, 0, 64, 70
1, 1153391, Note_off_c, 0, 73, 60
1, 1153395, Control_c, 0, 64, 0
1, 1153425, Control_c, 0, 64, 57
1, 1153439, Note_on_c, 0, 66, 66
1, 1153439, Control_c, 0, 64, 77
1, 1153447, Note_off_c, 0, 49, 63
1, 1153454, Control_c, 0, 64, 127
1, 1153456, Note_on_c, 0, 78, 77
1, 1153458, Note_on_c, 0, 54, 61
1, 1153475, Note_on_c, 0, 61, 46
1, 1153479, Note_on_c, 0, 70, 68
1, 1153482, Note_off_c, 0, 54, 67
1, 1153482, Note_off_c, 0, 66, 63
1, 1153482, Note_off_c, 0, 78, 62
1, 1153493, Note_on_c, 0, 73, 46
1, 1153503, Note_off_c, 0, 70, 67
1, 1153504, Note_off_c, 0, 61, 55
1, 1153527, Note_off_c, 0, 73, 57
1, 1153684, Control_c, 0, 64, 101
1, 1153693, Note_on_c, 0, 54, 78
1, 1153698, Control_c, 0, 64, 63
1, 1153711, Note_on_c, 0, 60, 68
1, 1153713, Control_c, 0, 64, 0
1, 1153716, Note_on_c, 0, 44, 74
1, 1153717, Note_on_c, 0, 50, 70
1, 1153726, Note_on_c, 0, 66, 61
1, 1153726, Note_off_c, 0, 54, 64
1, 1153727, Note_on_c, 0, 38, 17
1, 1153743, Note_off_c, 0, 50, 68
1, 1153745, Note_off_c, 0, 44, 65
1, 1153748, Note_off_c, 0, 60, 64
1, 1153754, Note_off_c, 0, 66, 65
1, 1153773, Note_off_c, 0, 38, 42
1, 1153883, Note_on_c, 0, 54, 72
1, 1153884, Note_on_c, 0, 66, 68
1, 1153887, Note_on_c, 0, 38, 42
1, 1153890, Note_on_c, 0, 44, 74
1, 1153899, Note_on_c, 0, 50, 59
1, 1153906, Note_off_c, 0, 54, 68
1, 1153908, Note_off_c, 0, 66, 66
1, 1153917, Note_off_c, 0, 38, 58
1, 1153921, Note_off_c, 0, 44, 64
1, 1153926, Note_off_c, 0, 50, 61
1, 1153979, Poly_aftertouch_c, 0, 60, 0
1, 1154042, Note_on_c, 0, 53, 63
1, 1154044, Note_on_c, 0, 44, 64
1, 1154045, Note_on_c, 0, 65, 68
1, 1154048, Note_on_c, 0, 49, 70
1, 1154050, Note_on_c, 0, 61, 63
1, 1154064, Note_off_c, 0, 53, 65
1, 1154069, Note_off_c, 0, 65, 69
1, 1154071, Note_off_c, 0, 61, 62
1, 1154072, Note_off_c, 0, 44, 65
1, 1154075, Note_off_c, 0, 49, 66
1, 1154192, Note_on_c, 0, 59, 75
1, 1154196, Note_on_c, 0, 61, 79
1, 1154197, Note_on_c, 0, 41, 48
1, 1154198, Note_on_c, 0, 71, 83
1, 1154209, Note_on_c, 0, 49, 44
1, 1154212, Note_on_c, 0, 56, 72
1, 1154212, Note_off_c, 0, 49, 39
1, 1154215, Note_off_c, 0, 59, 67
1, 1154218, Note_off_c, 0, 71, 72
1, 1154219, Note_off_c, 0, 61, 69
1, 1154230, Note_off_c, 0, 41, 52
1, 1154239, Note_off_c, 0, 56, 67
1, 1154339, Note_on_c, 0, 41, 56
1, 1154354, Note_on_c, 0, 59, 80
1, 1154356, Note_on_c, 0, 49, 71
1, 1154357, Note_on_c, 0, 71, 80
1, 1154360, Note_on_c, 0, 61, 81
1, 1154367, Note_off_c, 0, 41, 59
1, 1154376, Note_on_c, 0, 56, 45
1, 1154377, Note_off_c, 0, 59, 66
1, 1154377, Note_off_c, 0, 71, 71
1, 1154383, Note_off_c, 0, 61, 70
1, 1154391, Note_off_c, 0, 49, 66
1, 1154402, Note_off_c, 0, 56, 59
1, 1154504, Note_on_c, 0, 54, 70
1, 1154505, Note_on_c, 0, 49, 70
1, 1154506, Note_on_c, 0, 58, 74
1, 1154507, Note_on_c, 0, 70, 77
1, 1154510, Note_on_c, 0, 61, 75
1, 1154515, Note_on_c, 0, 42, 52
1, 1154528, Note_off_c, 0, 70, 70
1, 1154528, Note_off_c, 0, 54, 67
1, 1154528, Note_off_c, 0, 58, 69
1, 1154531, Note_off_c, 0, 49, 66
1, 1154537, Note_off_c, 0, 61, 65
1, 1154546, Note_off_c, 0, 42, 55
1, 1154648, Note_on_c, 0, 54, 75
1, 1154655, Note_on_c, 0, 38, 58
1, 1154656, Note_on_c, 0, 60, 75
1, 1154657, Note_on_c, 0, 66, 76
1, 1154659, Note_on_c, 0, 50, 72
1, 1154661, Note_on_c, 0, 44, 71
1, 1154677, Note_off_c, 0, 54, 68
1, 1154682, Note_off_c, 0, 38, 61
1, 1154686, Note_off_c, 0, 44, 66
1, 1154686, Note_off_c, 0, 60, 65
1, 1154686, Note_off_c, 0, 66, 59
1, 1154694, Note_off_c, 0, 50, 66
1, 1154807, Note_on_c, 0, 50, 81
1, 1154810, Note_on_c, 0, 44, 71
1, 1154813, Note_on_c, 0, 54, 65
1, 1154814, Note_on_c, 0, 60, 64
1, 1154816, Note_on_c, 0, 66, 62
1, 1154829, Note_on_c, 0, 38, 32
1, 1154833, Note_off_c, 0, 50, 70
1, 1154835, Note_off_c, 0, 66, 64
1, 1154839, Note_off_c, 0, 60, 65
1, 1154840, Note_off_c, 0, 54, 67
1, 1154843, Note_off_c, 0, 44, 65
1, 1154868, Note_off_c, 0, 38, 30
1, 1154947, Note_on_c, 0, 53, 86
1, 1154951, Note_on_c, 0, 65, 85
1, 1154955, Note_on_c, 0, 61, 82
1, 1154957, Note_on_c, 0, 49, 76
1, 1154965, Note_on_c, 0, 44, 56
1, 1154966, Note_on_c, 0, 37, 47
1, 1154970, Note_off_c, 0, 53, 69
1, 1154975, Note_off_c, 0, 65, 67
1, 1154977, Note_off_c, 0, 61, 67
1, 1154984, Note_off_c, 0, 49, 66
1, 1154993, Note_off_c, 0, 44, 60
1, 1155008, Note_off_c, 0, 37, 55
1, 1155100, Note_on_c, 0, 41, 71
1, 1155101, Note_on_c, 0, 59, 89
1, 1155103, Note_on_c, 0, 49, 69
1, 1155106, Note_on_c, 0, 71, 88
1, 1155107, Note_on_c, 0, 61, 83
1, 1155120, Note_off_c, 0, 59, 71
1, 1155127, Note_off_c, 0, 71, 68
1, 1155129, Note_off_c, 0, 49, 66
1, 1155130, Note_off_c, 0, 41, 64
1, 1155138, Note_off_c, 0, 61, 64
1, 1155247, Note_on_c, 0, 71, 92
1, 1155250, Note_on_c, 0, 59, 83
1, 1155251, Note_on_c, 0, 49, 76
1, 1155251, Note_on_c, 0, 61, 87
1, 1155257, Note_on_c, 0, 56, 73
1, 1155258, Note_on_c, 0, 41, 38
1, 1155269, Note_on_c, 0, 42, 29
1, 1155270, Note_off_c, 0, 59, 70
1, 1155270, Note_off_c, 0, 71, 65
1, 1155278, Note_off_c, 0, 61, 64
1, 1155280, Note_off_c, 0, 49, 67
1, 1155282, Note_off_c, 0, 56, 67
1, 1155296, Note_off_c, 0, 41, 43
1, 1155312, Note_off_c, 0, 42, 29
1, 1155390, Note_on_c, 0, 49, 78
1, 1155393, Note_on_c, 0, 54, 83
1, 1155395, Note_on_c, 0, 58, 88
1, 1155397, Note_on_c, 0, 42, 65
1, 1155400, Note_on_c, 0, 70, 91
1, 1155405, Note_on_c, 0, 61, 84
1, 1155413, Note_off_c, 0, 58, 71
1, 1155416, Note_off_c, 0, 54, 68
1, 1155419, Note_off_c, 0, 49, 67
1, 1155426, Note_off_c, 0, 42, 64
1, 1155426, Note_off_c, 0, 61, 68
1, 1155443, Note_off_c, 0, 70, 65
1, 1155544, Note_on_c, 0, 63, 81
1, 1155548, Note_on_c, 0, 47, 65
1, 1155557, Note_on_c, 0, 75, 87
1, 1155558, Note_on_c, 0, 54, 70
1, 1155563, Note_on_c, 0, 59, 66
1, 1155564, Note_on_c, 0, 66, 84
1, 1155566, Note_off_c, 0, 63, 68
1, 1155576, Note_off_c, 0, 47, 66
1, 1155586, Note_off_c, 0, 66, 70
1, 1155590, Note_off_c, 0, 59, 66
1, 1155591, Note_off_c, 0, 54, 68
1, 1155604, Note_off_c, 0, 75, 60
1, 1155701, Note_on_c, 0, 47, 59
1, 1155707, Note_on_c, 0, 63, 83
1, 1155713, Note_on_c, 0, 75, 83
1, 1155735, Note_off_c, 0, 63, 65
1, 1155735, Note_on_c, 0, 54, 58
1, 1155735, Note_on_c, 0, 59, 42
1, 1155742, Note_on_c, 0, 66, 64
1, 1155742, Note_off_c, 0, 47, 66
1, 1155771, Note_off_c, 0, 54, 66
1, 1155772, Note_off_c, 0, 59, 52
1, 1155777, Note_off_c, 0, 75, 62
1, 1155778, Note_off_c, 0, 66, 65
1, 1155870, Note_on_c, 0, 49, 72
1, 1155874, Note_on_c, 0, 61, 77
1, 1155878, Note_on_c, 0, 73, 74
1, 1155883, Note_on_c, 0, 66, 62
1, 1155884, Note_on_c, 0, 54, 57
1, 1155895, Note_on_c, 0, 58, 54
1, 1155900, Note_off_c, 0, 61, 65
1, 1155910, Note_off_c, 0, 49, 61
1, 1155919, Note_off_c, 0, 66, 61
1, 1155921, Note_off_c, 0, 58, 59
1, 1155924, Note_off_c, 0, 73, 61
1, 1155926, Note_off_c, 0, 54, 62
1, 1156014, Note_on_c, 0, 50, 70
1, 1156027, Note_on_c, 0, 59, 77
1, 1156030, Note_on_c, 0, 53, 66
1, 1156035, Note_on_c, 0, 71, 74
1, 1156037, Note_on_c, 0, 65, 65
1, 1156054, Note_on_c, 0, 56, 68
1, 1156056, Note_off_c, 0, 59, 61
1, 1156072, Note_off_c, 0, 50, 65
1, 1156075, Note_off_c, 0, 65, 62
1, 1156077, Note_off_c, 0, 71, 57
1, 1156081, Note_off_c, 0, 53, 63
1, 1156083, Note_off_c, 0, 56, 65
1, 1156170, Note_on_c, 0, 50, 72
1, 1156181, Note_on_c, 0, 71, 79
1, 1156190, Note_on_c, 0, 59, 67
1, 1156193, Note_on_c, 0, 65, 70
1, 1156204, Note_on_c, 0, 53, 55
1, 1156208, Note_off_c, 0, 71, 63
1, 1156215, Note_on_c, 0, 56, 38
1, 1156216, Note_off_c, 0, 59, 65
1, 1156228, Note_off_c, 0, 65, 62
1, 1156236, Note_off_c, 0, 50, 62
1, 1156245, Note_off_c, 0, 56, 54
1, 1156251, Note_off_c, 0, 53, 60
1, 1156340, Note_on_c, 0, 70, 79
1, 1156340, Note_on_c, 0, 58, 80
1, 1156345, Note_on_c, 0, 66, 70
1, 1156353, Note_on_c, 0, 51, 58
1, 1156355, Note_on_c, 0, 54, 61
1, 1156368, Note_off_c, 0, 58, 63
1, 1156373, Note_off_c, 0, 66, 65
1, 1156379, Note_off_c, 0, 54, 63
1, 1156379, Note_off_c, 0, 51, 61
1, 1156391, Note_off_c, 0, 70, 60
1, 1156485, Note_on_c, 0, 59, 78
1, 1156515, Note_on_c, 0, 32, 69
1, 1156515, Control_c, 0, 64, 49
1, 1156530, Control_c, 0, 64, 64
1, 1156546, Control_c, 0, 64, 70
1, 1156561, Control_c, 0, 64, 78
1, 1156576, Control_c, 0, 64, 88
1, 1156590, Control_c, 0, 64, 104
1, 1156605, Control_c, 0, 64, 127
1, 1156610, Note_off_c, 0, 32, 59
1, 1156620, Note_on_c, 0, 63, 64
1, 1156624, Note_on_c, 0, 44, 58
1, 1156644, Note_on_c, 0, 71, 40
1, 1156644, Note_off_c, 0, 59, 60
1, 1156658, Note_off_c, 0, 44, 63
1, 1156670, Note_off_c, 0, 71, 58
1, 1156671, Note_off_c, 0, 63, 57
1, 1156717, Note_on_c, 0, 32, 69
1, 1156722, Note_on_c, 0, 59, 86
1, 1156756, Note_on_c, 0, 71, 45
1, 1156799, Note_off_c, 0, 71, 0
1, 1156799, Note_on_c, 0, 71, 44
1, 1156813, Note_on_c, 0, 44, 71
1, 1156815, Note_on_c, 0, 63, 77
1, 1156825, Note_off_c, 0, 59, 65
1, 1156837, Note_off_c, 0, 71, 67
1, 1156838, Note_off_c, 0, 32, 60
1, 1156853, Note_off_c, 0, 44, 61
1, 1156867, Note_off_c, 0, 63, 60
1, 1156886, Control_c, 0, 64, 117
1, 1156901, Control_c, 0, 64, 81
1, 1156908, Note_on_c, 0, 34, 75
1, 1156908, Note_on_c, 0, 58, 92
1, 1156916, Control_c, 0, 64, 63
1, 1156930, Control_c, 0, 64, 65
1, 1156945, Control_c, 0, 64, 74
1, 1156960, Control_c, 0, 64, 88
1, 1156970, Note_on_c, 0, 70, 45
1, 1156975, Control_c, 0, 64, 127
1, 1156990, Note_on_c, 0, 63, 80
1, 1157010, Note_on_c, 0, 46, 64
1, 1157010, Note_off_c, 0, 58, 66
1, 1157011, Note_off_c, 0, 34, 56
1, 1157029, Note_off_c, 0, 70, 63
1, 1157035, Note_off_c, 0, 46, 64
1, 1157047, Note_off_c, 0, 63, 61
1, 1157079, Control_c, 0, 64, 88
1, 1157085, Note_on_c, 0, 56, 103
1, 1157088, Note_on_c, 0, 35, 73
1, 1157094, Control_c, 0, 64, 60
1, 1157105, Note_on_c, 0, 68, 63
1, 1157108, Control_c, 0, 64, 0
1, 1157123, Control_c, 0, 64, 32
1, 1157135, Note_off_c, 0, 68, 63
1, 1157138, Control_c, 0, 64, 68
1, 1157153, Control_c, 0, 64, 87
1, 1157168, Control_c, 0, 64, 127
1, 1157171, Note_on_c, 0, 63, 35
1, 1157175, Note_off_c, 0, 35, 62
1, 1157192, Note_on_c, 0, 47, 65
1, 1157205, Note_off_c, 0, 56, 63
1, 1157208, Poly_aftertouch_c, 0, 68, 0
1, 1157232, Note_off_c, 0, 47, 63
1, 1157236, Note_off_c, 0, 63, 60
1, 1157307, Note_on_c, 0, 53, 95
1, 1157321, Note_on_c, 0, 38, 62
1, 1157354, Note_on_c, 0, 58, 29
1, 1157354, Control_c, 0, 64, 97
1, 1157369, Control_c, 0, 64, 71
1, 1157384, Control_c, 0, 64, 0
1, 1157400, Note_off_c, 0, 58, 53
1, 1157413, Control_c, 0, 64, 56
1, 1157428, Control_c, 0, 64, 69
1, 1157443, Control_c, 0, 64, 79
1, 1157449, Note_on_c, 0, 65, 55
1, 1157451, Note_on_c, 0, 50, 58
1, 1157453, Note_on_c, 0, 59, 58
1, 1157458, Control_c, 0, 64, 93
1, 1157473, Control_c, 0, 64, 110
1, 1157488, Control_c, 0, 64, 127
1, 1157503, Control_c, 0, 67, 9
1, 1157509, Note_off_c, 0, 53, 63
1, 1157510, Note_off_c, 0, 50, 60
1, 1157518, Control_c, 0, 67, 13
1, 1157532, Control_c, 0, 67, 17
1, 1157539, Note_off_c, 0, 65, 58
1, 1157547, Control_c, 0, 67, 20
1, 1157562, Control_c, 0, 67, 24
1, 1157576, Note_off_c, 0, 59, 60
1, 1157577, Control_c, 0, 67, 26
1, 1157592, Control_c, 0, 67, 27
1, 1157594, Note_off_c, 0, 38, 32
1, 1157599, Note_on_c, 0, 54, 86
1, 1157606, Control_c, 0, 67, 28
1, 1157616, Note_on_c, 0, 39, 63
1, 1157621, Control_c, 0, 67, 28
1, 1157636, Control_c, 0, 67, 29
1, 1157651, Control_c, 0, 64, 87
1, 1157651, Control_c, 0, 67, 32
1, 1157665, Control_c, 0, 64, 63
1, 1157665, Control_c, 0, 67, 36
1, 1157680, Control_c, 0, 64, 0
1, 1157680, Control_c, 0, 67, 40
1, 1157695, Control_c, 0, 67, 44
1, 1157710, Control_c, 0, 67, 48
1, 1157725, Control_c, 0, 64, 60
1, 1157725, Control_c, 0, 67, 50
1, 1157739, Control_c, 0, 64, 70
1, 1157739, Control_c, 0, 67, 52
1, 1157754, Control_c, 0, 64, 81
1, 1157754, Control_c, 0, 67, 55
1, 1157769, Note_on_c, 0, 58, 58
1, 1157769, Control_c, 0, 64, 99
1, 1157769, Control_c, 0, 67, 57
1, 1157771, Note_off_c, 0, 39, 59
1, 1157780, Note_on_c, 0, 51, 50
1, 1157780, Note_off_c, 0, 54, 62
1, 1157784, Control_c, 0, 64, 127
1, 1157784, Control_c, 0, 67, 60
1, 1157799, Control_c, 0, 67, 62
1, 1157801, Note_on_c, 0, 66, 56
1, 1157813, Control_c, 0, 67, 64
1, 1157828, Control_c, 0, 67, 65
1, 1157835, Note_off_c, 0, 51, 63
1, 1157843, Control_c, 0, 67, 66
1, 1157858, Control_c, 0, 67, 66
1, 1157865, Note_off_c, 0, 58, 61
1, 1157872, Control_c, 0, 67, 67
1, 1157887, Control_c, 0, 67, 68
1, 1157902, Control_c, 0, 67, 68
1, 1157917, Control_c, 0, 67, 69
1, 1157925, Note_off_c, 0, 66, 51
1, 1157926, Note_on_c, 0, 41, 60
1, 1157929, Note_on_c, 0, 59, 76
1, 1157947, Control_c, 0, 67, 69
1, 1157977, Control_c, 0, 67, 70
1, 1158013, Control_c, 0, 67, 70
1, 1158043, Control_c, 0, 67, 71
1, 1158207, Control_c, 0, 64, 100
1, 1158222, Control_c, 0, 64, 83
1, 1158229, Note_on_c, 0, 71, 57
1, 1158236, Note_on_c, 0, 56, 43
1, 1158236, Control_c, 0, 64, 70
1, 1158245, Note_on_c, 0, 49, 39
1, 1158250, Note_on_c, 0, 61, 42
1, 1158251, Control_c, 0, 64, 50
1, 1158266, Control_c, 0, 64, 0
1, 1158326, Control_c, 0, 67, 70
1, 1158355, Control_c, 0, 64, 61
1, 1158355, Control_c, 0, 67, 70
1, 1158370, Control_c, 0, 64, 70
1, 1158370, Control_c, 0, 67, 69
1, 1158385, Control_c, 0, 64, 81
1, 1158385, Control_c, 0, 67, 69
1, 1158400, Control_c, 0, 64, 101
1, 1158400, Control_c, 0, 67, 68
1, 1158415, Control_c, 0, 64, 127
1, 1158415, Control_c, 0, 67, 67
1, 1158429, Control_c, 0, 67, 67
1, 1158444, Control_c, 0, 67, 66
1, 1158459, Control_c, 0, 67, 66
1, 1158516, Note_off_c, 0, 71, 51
1, 1158537, Note_off_c, 0, 56, 51
1, 1158572, Note_off_c, 0, 41, 38
1, 1158594, Note_off_c, 0, 59, 47
1, 1158651, Control_c, 0, 67, 65
1, 1158680, Control_c, 0, 67, 65
1, 1158761, Note_off_c, 0, 61, 50
1, 1158762, Control_c, 0, 67, 64
1, 1158770, Note_on_c, 0, 58, 77
1, 1158776, Note_on_c, 0, 42, 61
1, 1158777, Control_c, 0, 67, 64
1, 1158782, Note_off_c, 0, 49, 41
1, 1158807, Control_c, 0, 64, 96
1, 1158807, Control_c, 0, 67, 63
1, 1158822, Control_c, 0, 64, 74
1, 1158822, Control_c, 0, 67, 62
1, 1158836, Control_c, 0, 64, 43
1, 1158836, Control_c, 0, 67, 62
1, 1158852, Control_c, 0, 64, 0
1, 1158867, Control_c, 0, 64, 40
1, 1158867, Control_c, 0, 67, 61
1, 1158881, Control_c, 0, 64, 63
1, 1158896, Control_c, 0, 64, 69
1, 1158899, Note_off_c, 0, 58, 62
1, 1158901, Note_on_c, 0, 61, 64
1, 1158905, Note_off_c, 0, 42, 61
1, 1158907, Note_on_c, 0, 49, 56
1, 1158911, Control_c, 0, 64, 78
1, 1158913, Note_on_c, 0, 54, 55
1, 1158918, Note_on_c, 0, 70, 64
1, 1158927, Control_c, 0, 64, 96
1, 1158934, Note_off_c, 0, 61, 65
1, 1158937, Note_off_c, 0, 49, 64
1, 1158940, Note_off_c, 0, 54, 65
1, 1158942, Control_c, 0, 64, 127
1, 1158961, Note_off_c, 0, 70, 54
1, 1159029, Note_on_c, 0, 63, 80
1, 1159031, Control_c, 0, 67, 62
1, 1159048, Note_on_c, 0, 45, 60
1, 1159090, Control_c, 0, 67, 62
1, 1159119, Control_c, 0, 67, 63
1, 1159134, Control_c, 0, 67, 63
1, 1159149, Control_c, 0, 67, 64
1, 1159303, Note_on_c, 0, 66, 54
1, 1159303, Note_on_c, 0, 75, 52
1, 1159308, Note_on_c, 0, 60, 40
1, 1159312, Control_c, 0, 67, 63
1, 1159318, Note_on_c, 0, 54, 48
1, 1159357, Control_c, 0, 64, 101
1, 1159372, Control_c, 0, 64, 79
1, 1159386, Control_c, 0, 64, 63
1, 1159401, Control_c, 0, 64, 0
1, 1159475, Control_c, 0, 64, 28
1, 1159490, Control_c, 0, 64, 64
1, 1159512, Control_c, 0, 64, 71
1, 1159512, Control_c, 0, 67, 64
1, 1159527, Control_c, 0, 64, 81
1, 1159527, Control_c, 0, 67, 64
1, 1159542, Control_c, 0, 64, 98
1, 1159542, Control_c, 0, 67, 65
1, 1159557, Control_c, 0, 64, 127
1, 1159557, Control_c, 0, 67, 66
1, 1159572, Control_c, 0, 67, 66
1, 1159586, Control_c, 0, 67, 67
1, 1159600, Control_c, 0, 67, 68
1, 1159629, Control_c, 0, 67, 68
1, 1159638, Note_off_c, 0, 45, 44
1, 1159644, Control_c, 0, 67, 69
1, 1159648, Note_off_c, 0, 60, 36
1, 1159659, Control_c, 0, 67, 69
1, 1159689, Control_c, 0, 67, 70
1, 1159718, Control_c, 0, 67, 70
1, 1159742, Note_off_c, 0, 75, 63
1, 1159764, Control_c, 0, 67, 71
1, 1159765, Note_off_c, 0, 63, 56
1, 1159808, Control_c, 0, 67, 71
1, 1159838, Control_c, 0, 67, 72
1, 1159867, Control_c, 0, 67, 72
1, 1159897, Control_c, 0, 67, 73
1, 1159932, Note_on_c, 0, 61, 58
1, 1159939, Note_off_c, 0, 54, 42
1, 1159941, Control_c, 0, 67, 73
1, 1159950, Note_on_c, 0, 46, 53
1, 1159956, Control_c, 0, 67, 75
1, 1159971, Control_c, 0, 64, 87
1, 1159971, Control_c, 0, 67, 77
1, 1159974, Note_off_c, 0, 66, 38
1, 1159986, Control_c, 0, 64, 68
1, 1159986, Control_c, 0, 67, 78
1, 1160001, Control_c, 0, 64, 38
1, 1160001, Control_c, 0, 67, 80
1, 1160016, Control_c, 0, 64, 24
1, 1160016, Control_c, 0, 67, 81
1, 1160031, Control_c, 0, 64, 55
1, 1160031, Control_c, 0, 67, 82
1, 1160045, Control_c, 0, 64, 65
1, 1160045, Control_c, 0, 67, 83
1, 1160060, Control_c, 0, 64, 72
1, 1160060, Control_c, 0, 67, 84
1, 1160075, Control_c, 0, 64, 80
1, 1160075, Control_c, 0, 67, 86
1, 1160090, Control_c, 0, 64, 92
1, 1160090, Control_c, 0, 67, 88
1, 1160105, Control_c, 0, 64, 109
1, 1160105, Control_c, 0, 67, 90
1, 1160120, Note_on_c, 0, 73, 53
1, 1160120, Control_c, 0, 64, 127
1, 1160120, Control_c, 0, 67, 93
1, 1160122, Note_off_c, 0, 46, 52
1, 1160129, Note_on_c, 0, 58, 46
1, 1160134, Control_c, 0, 67, 95
1, 1160139, Note_on_c, 0, 65, 43
1, 1160149, Control_c, 0, 67, 99
1, 1160152, Note_on_c, 0, 53, 46
1, 1160161, Note_off_c, 0, 58, 63
1, 1160164, Note_off_c, 0, 73, 61
1, 1160164, Control_c, 0, 67, 103
1, 1160165, Note_off_c, 0, 61, 58
1, 1160179, Control_c, 0, 67, 107
1, 1160182, Note_off_c, 0, 53, 57
1, 1160187, Note_off_c, 0, 65, 58
1, 1160194, Control_c, 0, 67, 111
1, 1160208, Control_c, 0, 67, 114
1, 1160223, Control_c, 0, 67, 116
1, 1160238, Control_c, 0, 67, 117
1, 1160307, Note_on_c, 0, 59, 56
1, 1160322, Note_on_c, 0, 41, 57
1, 1160631, Note_on_c, 0, 71, 44
1, 1160637, Note_on_c, 0, 56, 37
1, 1160637, Note_on_c, 0, 62, 41
1, 1160654, Note_on_c, 0, 50, 38
1, 1160661, Control_c, 0, 64, 108
1, 1160675, Control_c, 0, 64, 89
1, 1160690, Control_c, 0, 64, 74
1, 1160705, Control_c, 0, 64, 60
1, 1160720, Control_c, 0, 64, 0
1, 1160720, Control_c, 0, 67, 116
1, 1160735, Control_c, 0, 67, 116
1, 1160749, Control_c, 0, 67, 115
1, 1160764, Control_c, 0, 64, 36
1, 1160764, Control_c, 0, 67, 115
1, 1160779, Control_c, 0, 64, 59
1, 1160794, Control_c, 0, 64, 66
1, 1160809, Control_c, 0, 64, 73
1, 1160809, Control_c, 0, 67, 114
1, 1160824, Control_c, 0, 64, 83
1, 1160838, Control_c, 0, 64, 96
1, 1160853, Control_c, 0, 64, 115
1, 1160868, Control_c, 0, 64, 127
1, 1160949, Note_off_c, 0, 56, 45
1, 1160973, Note_off_c, 0, 71, 39
1, 1160987, Control_c, 0, 67, 115
1, 1161009, Note_off_c, 0, 41, 36
1, 1161009, Control_c, 0, 67, 115
1, 1161038, Control_c, 0, 67, 116
1, 1161068, Control_c, 0, 67, 117
1, 1161083, Control_c, 0, 67, 117
1, 1161098, Control_c, 0, 67, 118
1, 1161128, Control_c, 0, 67, 118
1, 1161142, Control_c, 0, 67, 119
1, 1161155, Note_off_c, 0, 59, 55
1, 1161157, Control_c, 0, 67, 119
1, 1161172, Control_c, 0, 67, 122
1, 1161187, Control_c, 0, 67, 125
1, 1161201, Control_c, 0, 67, 127
1, 1161375, Note_off_c, 0, 50, 41
1, 1161414, Note_off_c, 0, 62, 36
1, 1161431, Note_on_c, 0, 58, 44
1, 1161432, Note_on_c, 0, 42, 45
1, 1161440, Control_c, 0, 64, 120
1, 1161454, Control_c, 0, 64, 88
1, 1161469, Control_c, 0, 64, 70
1, 1161484, Control_c, 0, 64, 54
1, 1161498, Control_c, 0, 64, 36
1, 1161513, Control_c, 0, 64, 50
1, 1161528, Control_c, 0, 64, 63
1, 1161543, Control_c, 0, 64, 67
1, 1161558, Control_c, 0, 64, 72
1, 1161572, Control_c, 0, 64, 78
1, 1161587, Control_c, 0, 64, 87
1, 1161602, Control_c, 0, 64, 96
1, 1161610, Note_off_c, 0, 58, 58
1, 1161617, Control_c, 0, 64, 104
1, 1161622, Note_on_c, 0, 61, 50
1, 1161631, Control_c, 0, 64, 110
1, 1161634, Note_on_c, 0, 54, 41
1, 1161635, Note_on_c, 0, 70, 47
1, 1161643, Note_on_c, 0, 49, 38
1, 1161646, Control_c, 0, 64, 115
1, 1161655, Note_off_c, 0, 42, 44
1, 1161661, Note_off_c, 0, 61, 60
1, 1161661, Control_c, 0, 64, 124
1, 1161673, Note_off_c, 0, 54, 62
1, 1161676, Control_c, 0, 64, 127
1, 1161682, Note_off_c, 0, 49, 53
1, 1161800, Note_off_c, 0, 70, 36
1, 1161811, Note_on_c, 0, 63, 57
1, 1161849, Note_on_c, 0, 45, 44
1, 1162195, Note_on_c, 0, 75, 47
1, 1162218, Note_on_c, 0, 66, 35
1, 1162220, Note_on_c, 0, 60, 31
1, 1162231, Note_on_c, 0, 54, 31
1, 1162293, Control_c, 0, 64, 98
1, 1162308, Control_c, 0, 64, 80
1, 1162322, Control_c, 0, 64, 65
1, 1162337, Control_c, 0, 64, 24
1, 1162352, Control_c, 0, 64, 0
1, 1162367, Control_c, 0, 64, 42
1, 1162382, Control_c, 0, 64, 61
1, 1162396, Control_c, 0, 64, 67
1, 1162411, Control_c, 0, 64, 73
1, 1162426, Control_c, 0, 64, 81
1, 1162441, Control_c, 0, 64, 96
1, 1162455, Control_c, 0, 64, 112
1, 1162470, Control_c, 0, 64, 127
1, 1162710, Note_off_c, 0, 45, 43
1, 1162843, Note_off_c, 0, 60, 43
1, 1162856, Note_off_c, 0, 63, 37
1, 1162934, Note_off_c, 0, 54, 44
1, 1163395, Note_on_c, 0, 64, 42
1, 1163412, Note_on_c, 0, 46, 39
1, 1163568, Note_off_c, 0, 75, 49
1, 1163568, Note_off_c, 0, 66, 42
1, 1163902, Note_on_c, 0, 76, 39
1, 1163938, Note_on_c, 0, 67, 17
1, 1163948, Note_on_c, 0, 55, 23
1, 1163960, Note_on_c, 0, 61, 23
1, 1164019, Control_c, 0, 64, 106
1, 1164033, Control_c, 0, 64, 89
1, 1164048, Control_c, 0, 64, 75
1, 1164063, Control_c, 0, 64, 62
1, 1164078, Control_c, 0, 64, 42
1, 1164093, Control_c, 0, 64, 47
1, 1164107, Control_c, 0, 64, 62
1, 1164122, Control_c, 0, 64, 67
1, 1164137, Control_c, 0, 64, 74
1, 1164152, Control_c, 0, 64, 86
1, 1164167, Control_c, 0, 64, 103
1, 1164181, Control_c, 0, 64, 127
1, 1164460, Note_off_c, 0, 61, 42
1, 1164624, Note_off_c, 0, 46, 40
1, 1164660, Note_off_c, 0, 64, 38
1, 1164915, Note_on_c, 0, 65, 37
1, 1164938, Note_on_c, 0, 47, 35
1, 1165047, Note_off_c, 0, 67, 51
1, 1165054, Note_off_c, 0, 55, 41
1, 1165107, Note_off_c, 0, 76, 50
1, 1165326, Note_on_c, 0, 77, 52
1, 1165331, Control_c, 0, 64, 109
1, 1165335, Note_on_c, 0, 56, 40
1, 1165344, Note_on_c, 0, 62, 31
1, 1165346, Control_c, 0, 64, 85
1, 1165347, Note_on_c, 0, 68, 32
1, 1165360, Control_c, 0, 64, 70
1, 1165375, Control_c, 0, 64, 63
1, 1165390, Control_c, 0, 64, 65
1, 1165405, Control_c, 0, 64, 68
1, 1165420, Control_c, 0, 64, 73
1, 1165435, Control_c, 0, 64, 79
1, 1165450, Control_c, 0, 64, 89
1, 1165459, Note_off_c, 0, 65, 62
1, 1165464, Control_c, 0, 64, 107
1, 1165479, Control_c, 0, 64, 127
1, 1165515, Note_off_c, 0, 47, 42
1, 1165518, Note_off_c, 0, 62, 40
1, 1165643, Note_on_c, 0, 66, 60
1, 1165644, Note_off_c, 0, 68, 46
1, 1165673, Note_off_c, 0, 56, 46
1, 1165680, Note_on_c, 0, 48, 47
1, 1165768, Note_off_c, 0, 77, 20
1, 1165812, Control_c, 0, 64, 113
1, 1165827, Control_c, 0, 64, 87
1, 1165842, Control_c, 0, 64, 74
1, 1165857, Control_c, 0, 64, 71
1, 1165871, Control_c, 0, 64, 77
1, 1165886, Control_c, 0, 64, 87
1, 1165901, Control_c, 0, 64, 108
1, 1165916, Control_c, 0, 64, 127
1, 1165925, Note_on_c, 0, 78, 59
1, 1165929, Note_on_c, 0, 57, 43
1, 1165929, Note_on_c, 0, 63, 47
1, 1165939, Note_on_c, 0, 69, 52
1, 1165983, Note_off_c, 0, 48, 41
1, 1166017, Note_off_c, 0, 63, 58
1, 1166027, Note_off_c, 0, 66, 60
1, 1166070, Note_off_c, 0, 69, 48
1, 1166083, Note_off_c, 0, 57, 36
1, 1166112, Note_on_c, 0, 67, 76
1, 1166114, Note_on_c, 0, 49, 71
1, 1166114, Note_off_c, 0, 78, 54
1, 1166154, Control_c, 0, 64, 99
1, 1166168, Control_c, 0, 64, 76
1, 1166183, Control_c, 0, 64, 67
1, 1166198, Control_c, 0, 64, 70
1, 1166213, Control_c, 0, 64, 77
1, 1166228, Control_c, 0, 64, 88
1, 1166250, Control_c, 0, 64, 127
1, 1166265, Control_c, 0, 67, 127
1, 1166267, Note_on_c, 0, 64, 63
1, 1166276, Note_on_c, 0, 79, 75
1, 1166277, Note_on_c, 0, 70, 74
1, 1166278, Note_off_c, 0, 49, 61
1, 1166285, Note_on_c, 0, 58, 61
1, 1166311, Note_off_c, 0, 67, 61
1, 1166320, Note_off_c, 0, 64, 57
1, 1166339, Control_c, 0, 67, 127
1, 1166343, Note_off_c, 0, 79, 55
1, 1166367, Note_off_c, 0, 58, 57
1, 1166374, Note_off_c, 0, 70, 63
1, 1166383, Control_c, 0, 67, 127
1, 1166398, Control_c, 0, 64, 87
1, 1166398, Control_c, 0, 67, 126
1, 1166413, Note_on_c, 0, 50, 68
1, 1166413, Control_c, 0, 64, 73
1, 1166413, Control_c, 0, 67, 126
1, 1166415, Note_on_c, 0, 68, 84
1, 1166428, Control_c, 0, 67, 125
1, 1166443, Control_c, 0, 64, 84
1, 1166443, Control_c, 0, 67, 121
1, 1166457, Control_c, 0, 64, 107
1, 1166457, Control_c, 0, 67, 118
1, 1166472, Control_c, 0, 64, 127
1, 1166472, Control_c, 0, 67, 115
1, 1166487, Control_c, 0, 67, 111
1, 1166492, Note_off_c, 0, 50, 58
1, 1166502, Control_c, 0, 67, 106
1, 1166517, Control_c, 0, 67, 100
1, 1166532, Control_c, 0, 67, 90
1, 1166538, Note_on_c, 0, 71, 82
1, 1166541, Note_on_c, 0, 65, 72
1, 1166547, Note_on_c, 0, 80, 77
1, 1166547, Control_c, 0, 67, 82
1, 1166551, Note_on_c, 0, 59, 62
1, 1166561, Control_c, 0, 67, 74
1, 1166562, Note_off_c, 0, 68, 61
1, 1166576, Control_c, 0, 67, 69
1, 1166577, Note_off_c, 0, 65, 60
1, 1166591, Control_c, 0, 67, 66
1, 1166601, Note_off_c, 0, 71, 63
1, 1166635, Control_c, 0, 67, 66
1, 1166642, Note_on_c, 0, 69, 86
1, 1166651, Note_on_c, 0, 51, 83
1, 1166655, Note_off_c, 0, 80, 50
1, 1166659, Note_off_c, 0, 59, 57
1, 1166665, Control_c, 0, 64, 96
1, 1166680, Control_c, 0, 64, 71
1, 1166694, Control_c, 0, 64, 42
1, 1166709, Control_c, 0, 64, 54
1, 1166709, Control_c, 0, 67, 65
1, 1166724, Control_c, 0, 64, 71
1, 1166736, Note_on_c, 0, 56, 43
1, 1166739, Control_c, 0, 64, 88
1, 1166750, Note_off_c, 0, 51, 66
1, 1166754, Note_on_c, 0, 72, 87
1, 1166754, Note_on_c, 0, 81, 85
1, 1166754, Control_c, 0, 64, 127
1, 1166757, Note_on_c, 0, 60, 75
1, 1166762, Note_on_c, 0, 66, 77
1, 1166765, Note_off_c, 0, 69, 62
1, 1166768, Control_c, 0, 67, 65
1, 1166779, Note_off_c, 0, 56, 65
1, 1166782, Note_off_c, 0, 66, 68
1, 1166786, Note_on_c, 0, 73, 21
1, 1166806, Note_off_c, 0, 81, 63
1, 1166811, Note_off_c, 0, 72, 66
1, 1166830, Note_off_c, 0, 73, 28
1, 1166860, Note_on_c, 0, 52, 83
1, 1166869, Note_off_c, 0, 60, 55
1, 1166870, Note_on_c, 0, 70, 92
1, 1166902, Control_c, 0, 64, 85
1, 1166902, Control_c, 0, 67, 64
1, 1166917, Control_c, 0, 64, 67
1, 1166917, Control_c, 0, 67, 63
1, 1166925, Note_off_c, 0, 52, 63
1, 1166932, Control_c, 0, 64, 65
1, 1166932, Control_c, 0, 67, 62
1, 1166947, Control_c, 0, 64, 75
1, 1166947, Control_c, 0, 67, 61
1, 1166962, Control_c, 0, 64, 90
1, 1166962, Control_c, 0, 67, 60
1, 1166963, Note_on_c, 0, 61, 87
1, 1166967, Note_on_c, 0, 73, 93
1, 1166969, Note_on_c, 0, 67, 80
1, 1166976, Note_off_c, 0, 70, 58
1, 1166977, Control_c, 0, 64, 127
1, 1166977, Control_c, 0, 67, 58
1, 1166979, Note_on_c, 0, 82, 87
1, 1166999, Control_c, 0, 67, 56
1, 1167014, Control_c, 0, 67, 52
1, 1167015, Note_off_c, 0, 67, 56
1, 1167029, Control_c, 0, 67, 47
1, 1167043, Control_c, 0, 67, 38
1, 1167051, Note_off_c, 0, 61, 61
1, 1167058, Control_c, 0, 67, 25
1, 1167066, Note_off_c, 0, 82, 63
1, 1167073, Control_c, 0, 67, 0
1, 1167081, Note_on_c, 0, 71, 89
1, 1167088, Note_on_c, 0, 53, 91
1, 1167093, Note_off_c, 0, 73, 39
1, 1167325, Control_c, 0, 64, 109
1, 1167326, Note_on_c, 0, 62, 88
1, 1167330, Note_on_c, 0, 68, 91
1, 1167331, Note_on_c, 0, 74, 110
1, 1167339, Note_on_c, 0, 83, 101
1, 1167340, Control_c, 0, 64, 72
1, 1167355, Control_c, 0, 64, 0
1, 1167358, Note_off_c, 0, 71, 66
1, 1167414, Control_c, 0, 64, 63
1, 1167429, Control_c, 0, 64, 77
1, 1167443, Control_c, 0, 64, 109
1, 1167444, Note_off_c, 0, 68, 62
1, 1167458, Control_c, 0, 64, 127
1, 1167568, Note_off_c, 0, 83, 63
1, 1167580, Note_off_c, 0, 74, 69
1, 1167658, Note_off_c, 0, 62, 57
1, 1167667, Note_on_c, 0, 61, 81
1, 1167677, Note_on_c, 0, 73, 99
1, 1167728, Note_off_c, 0, 73, 65
1, 1167803, Poly_aftertouch_c, 0, 85, 0
1, 1167855, Note_on_c, 0, 62, 78
1, 1167856, Note_on_c, 0, 74, 103
1, 1167858, Note_on_c, 0, 86, 100
1, 1167891, Note_off_c, 0, 74, 68
1, 1167913, Note_off_c, 0, 61, 55
1, 1168014, Control_c, 0, 64, 107
1, 1168026, Note_on_c, 0, 63, 87
1, 1168029, Control_c, 0, 64, 73
1, 1168034, Note_on_c, 0, 87, 94
1, 1168040, Note_on_c, 0, 75, 92
1, 1168044, Control_c, 0, 64, 59
1, 1168056, Note_off_c, 0, 62, 63
1, 1168058, Note_off_c, 0, 86, 64
1, 1168059, Control_c, 0, 64, 69
1, 1168073, Control_c, 0, 64, 80
1, 1168082, Note_off_c, 0, 75, 65
1, 1168088, Control_c, 0, 64, 101
1, 1168103, Control_c, 0, 64, 127
1, 1168131, Note_off_c, 0, 87, 65
1, 1168168, Note_on_c, 0, 61, 81
1, 1168168, Note_on_c, 0, 85, 99
1, 1168174, Note_on_c, 0, 73, 86
1, 1168193, Note_off_c, 0, 63, 61
1, 1168195, Note_off_c, 0, 73, 69
1, 1168207, Note_off_c, 0, 85, 67
1, 1168241, Note_off_c, 0, 61, 62
1, 1168289, Note_on_c, 0, 83, 97
1, 1168297, Note_on_c, 0, 71, 84
1, 1168302, Note_on_c, 0, 59, 74
1, 1168314, Note_off_c, 0, 71, 74
1, 1168323, Note_off_c, 0, 83, 68
1, 1168357, Note_off_c, 0, 53, 56
1, 1168361, Note_off_c, 0, 59, 58
1, 1168409, Note_on_c, 0, 80, 95
1, 1168412, Note_on_c, 0, 56, 75
1, 1168417, Note_on_c, 0, 68, 81
1, 1168437, Note_off_c, 0, 68, 70
1, 1168440, Note_off_c, 0, 56, 66
1, 1168449, Note_off_c, 0, 80, 59
1, 1168542, Note_on_c, 0, 77, 96
1, 1168550, Note_on_c, 0, 65, 79
1, 1168552, Note_on_c, 0, 53, 56
1, 1168564, Note_off_c, 0, 77, 63
1, 1168571, Note_off_c, 0, 65, 71
1, 1168600, Note_off_c, 0, 53, 59
1, 1168661, Note_on_c, 0, 73, 96
1, 1168667, Note_on_c, 0, 49, 70
1, 1168671, Note_on_c, 0, 61, 77
1, 1168693, Note_off_c, 0, 61, 66
1, 1168698, Note_off_c, 0, 73, 63
1, 1168768, Note_off_c, 0, 49, 57
1, 1168789, Note_on_c, 0, 47, 64
1, 1168798, Note_on_c, 0, 71, 91
1, 1168811, Note_on_c, 0, 59, 65
1, 1168818, Note_off_c, 0, 71, 64
1, 1168830, Note_off_c, 0, 59, 65
1, 1168906, Note_off_c, 0, 47, 59
1, 1168927, Note_on_c, 0, 68, 90
1, 1168938, Note_on_c, 0, 44, 69
1, 1168938, Note_on_c, 0, 56, 73
1, 1168958, Note_off_c, 0, 56, 67
1, 1168969, Note_off_c, 0, 68, 60
1, 1168990, Note_off_c, 0, 44, 62
1, 1169075, Note_on_c, 0, 65, 84
1, 1169089, Note_on_c, 0, 41, 64
1, 1169094, Note_on_c, 0, 53, 54
1, 1169097, Note_off_c, 0, 65, 71
1, 1169118, Note_off_c, 0, 53, 64
1, 1169120, Note_off_c, 0, 41, 62
1, 1169225, Note_on_c, 0, 61, 75
1, 1169227, Note_on_c, 0, 49, 80
1, 1169245, Note_on_c, 0, 37, 61
1, 1169254, Note_off_c, 0, 61, 66
1, 1169261, Note_off_c, 0, 49, 66
1, 1169273, Note_off_c, 0, 37, 61
1, 1169429, Poly_aftertouch_c, 0, 49, 0
1, 1169483, Control_c, 0, 64, 87
1, 1169495, Note_on_c, 0, 30, 67
1, 1169498, Control_c, 0, 64, 32
1, 1169504, Note_on_c, 0, 37, 61
1, 1169510, Note_on_c, 0, 49, 74
1, 1169513, Control_c, 0, 64, 0
1, 1169543, Control_c, 0, 64, 60
1, 1169558, Control_c, 0, 64, 71
1, 1169572, Control_c, 0, 64, 88
1, 1169587, Control_c, 0, 64, 127
1, 1169656, Note_off_c, 0, 30, 50
1, 1169682, Note_on_c, 0, 51, 74
1, 1169683, Note_off_c, 0, 49, 62
1, 1169696, Note_on_c, 0, 39, 61
1, 1169698, Note_off_c, 0, 37, 60
1, 1169740, Note_off_c, 0, 51, 63
1, 1169744, Note_off_c, 0, 39, 59
1, 1169790, Note_on_c, 0, 53, 69
1, 1169802, Note_on_c, 0, 41, 64
1, 1169849, Note_off_c, 0, 41, 57
1, 1169856, Note_off_c, 0, 53, 56
1, 1169890, Note_on_c, 0, 54, 79
1, 1169893, Note_on_c, 0, 42, 65
1, 1169958, Note_off_c, 0, 54, 56
1, 1169974, Note_off_c, 0, 42, 56
1, 1170001, Note_on_c, 0, 56, 81
1, 1170010, Note_on_c, 0, 44, 64
1, 1170083, Note_off_c, 0, 44, 62
1, 1170087, Note_on_c, 0, 46, 73
1, 1170091, Note_on_c, 0, 58, 79
1, 1170091, Note_off_c, 0, 56, 63
1, 1170143, Note_off_c, 0, 46, 59
1, 1170151, Note_off_c, 0, 58, 62
1, 1170172, Control_c, 0, 64, 90
1, 1170187, Control_c, 0, 64, 65
1, 1170194, Note_on_c, 0, 59, 83
1, 1170196, Note_on_c, 0, 47, 70
1, 1170202, Control_c, 0, 64, 47
1, 1170216, Control_c, 0, 64, 65
1, 1170231, Control_c, 0, 64, 75
1, 1170237, Note_off_c, 0, 47, 63
1, 1170246, Control_c, 0, 64, 94
1, 1170259, Note_off_c, 0, 59, 61
1, 1170261, Control_c, 0, 64, 127
1, 1170294, Note_on_c, 0, 58, 82
1, 1170297, Note_on_c, 0, 46, 71
1, 1170350, Note_off_c, 0, 58, 62
1, 1170353, Note_off_c, 0, 46, 60
1, 1170389, Note_on_c, 0, 57, 74
1, 1170397, Note_on_c, 0, 45, 71
1, 1170440, Note_off_c, 0, 57, 62
1, 1170464, Note_off_c, 0, 45, 60
1, 1170472, Note_on_c, 0, 46, 77
1, 1170477, Note_on_c, 0, 58, 85
1, 1170521, Note_off_c, 0, 58, 61
1, 1170532, Note_off_c, 0, 46, 61
1, 1170570, Note_on_c, 0, 49, 81
1, 1170571, Note_on_c, 0, 61, 90
1, 1170616, Note_off_c, 0, 49, 63
1, 1170627, Note_off_c, 0, 61, 60
1, 1170646, Note_on_c, 0, 66, 92
1, 1170656, Note_on_c, 0, 54, 78
1, 1170707, Note_off_c, 0, 66, 65
1, 1170711, Note_off_c, 0, 54, 62
1, 1170802, Note_on_c, 0, 42, 89
1, 1170810, Note_on_c, 0, 70, 97
1, 1170816, Note_on_c, 0, 58, 90
1, 1170816, Control_c, 0, 64, 103
1, 1170831, Control_c, 0, 64, 70
1, 1170846, Control_c, 0, 64, 40
1, 1170860, Control_c, 0, 64, 65
1, 1170875, Control_c, 0, 64, 80
1, 1170890, Control_c, 0, 64, 124
1, 1170905, Control_c, 0, 64, 127
1, 1170979, Note_on_c, 0, 66, 66
1, 1171008, Note_on_c, 0, 54, 72
1, 1171079, Note_off_c, 0, 70, 56
1, 1171093, Note_off_c, 0, 54, 60
1, 1171129, Note_on_c, 0, 61, 68
1, 1171132, Note_on_c, 0, 49, 67
1, 1171137, Note_off_c, 0, 66, 57
1, 1171165, Note_off_c, 0, 58, 56
1, 1171175, Note_off_c, 0, 49, 62
1, 1171178, Note_off_c, 0, 61, 58
1, 1171230, Note_on_c, 0, 66, 90
1, 1171230, Note_on_c, 0, 54, 67
1, 1171307, Note_off_c, 0, 54, 59
1, 1171320, Note_on_c, 0, 49, 65
1, 1171343, Note_on_c, 0, 61, 68
1, 1171379, Note_off_c, 0, 66, 59
1, 1171420, Note_on_c, 0, 46, 64
1, 1171427, Note_on_c, 0, 58, 59
1, 1171430, Note_off_c, 0, 49, 62
1, 1171433, Note_off_c, 0, 61, 62
1, 1171451, Note_off_c, 0, 58, 67
1, 1171455, Note_off_c, 0, 46, 62
1, 1171458, Note_off_c, 0, 42, 45
1, 1171525, Note_on_c, 0, 61, 85
1, 1171546, Note_on_c, 0, 49, 59
1, 1171599, Note_off_c, 0, 49, 58
1, 1171611, Note_on_c, 0, 46, 59
1, 1171631, Note_on_c, 0, 58, 64
1, 1171695, Note_off_c, 0, 61, 59
1, 1171700, Note_on_c, 0, 42, 66
1, 1171716, Note_off_c, 0, 46, 50
1, 1171722, Note_off_c, 0, 58, 60
1, 1171728, Note_on_c, 0, 54, 63
1, 1171754, Note_off_c, 0, 42, 60
1, 1171754, Note_off_c, 0, 54, 66
1, 1171820, Note_on_c, 0, 58, 82
1, 1171823, Note_on_c, 0, 46, 55
1, 1171876, Note_off_c, 0, 46, 55
1, 1171902, Note_on_c, 0, 42, 62
1, 1171905, Note_on_c, 0, 54, 65
1, 1171950, Note_off_c, 0, 58, 59
1, 1171972, Note_off_c, 0, 42, 61
1, 1171978, Note_on_c, 0, 37, 59
1, 1172019, Note_off_c, 0, 37, 62
1, 1172041, Control_c, 0, 64, 105
1, 1172056, Control_c, 0, 64, 88
1, 1172065, Note_off_c, 0, 54, 61
1, 1172070, Control_c, 0, 64, 87
1, 1172085, Control_c, 0, 64, 100
1, 1172098, Note_on_c, 0, 58, 82
1, 1172100, Note_on_c, 0, 30, 73
1, 1172100, Control_c, 0, 64, 127
1, 1172105, Note_on_c, 0, 37, 77
1, 1172151, Note_on_c, 0, 47, 34
1, 1172182, Note_off_c, 0, 47, 0
1, 1172182, Note_on_c, 0, 47, 26
1, 1172189, Note_on_c, 0, 59, 85
1, 1172211, Note_on_c, 0, 39, 70
1, 1172218, Note_off_c, 0, 47, 63
1, 1172223, Note_off_c, 0, 58, 60
1, 1172225, Note_off_c, 0, 59, 59
1, 1172234, Note_off_c, 0, 30, 60
1, 1172237, Note_off_c, 0, 37, 59
1, 1172283, Note_off_c, 0, 39, 59
1, 1172299, Note_on_c, 0, 41, 68
1, 1172305, Note_on_c, 0, 61, 88
1, 1172315, Note_on_c, 0, 49, 68
1, 1172324, Note_off_c, 0, 61, 70
1, 1172338, Note_off_c, 0, 49, 62
1, 1172360, Note_off_c, 0, 41, 59
1, 1172385, Note_on_c, 0, 63, 96
1, 1172392, Note_on_c, 0, 42, 77
1, 1172392, Note_on_c, 0, 51, 76
1, 1172416, Note_off_c, 0, 51, 67
1, 1172428, Note_off_c, 0, 63, 65
1, 1172484, Note_on_c, 0, 65, 89
1, 1172484, Note_off_c, 0, 42, 46
1, 1172487, Note_on_c, 0, 53, 80
1, 1172488, Note_on_c, 0, 44, 80
1, 1172504, Note_off_c, 0, 65, 68
1, 1172512, Note_off_c, 0, 53, 70
1, 1172545, Note_off_c, 0, 44, 64
1, 1172576, Note_on_c, 0, 66, 86
1, 1172580, Note_on_c, 0, 46, 82
1, 1172585, Note_on_c, 0, 56, 69
1, 1172592, Note_on_c, 0, 67, 68
1, 1172594, Note_off_c, 0, 66, 68
1, 1172603, Note_off_c, 0, 56, 68
1, 1172618, Note_off_c, 0, 67, 63
1, 1172625, Note_off_c, 0, 46, 63
1, 1172657, Control_c, 0, 64, 106
1, 1172667, Note_on_c, 0, 47, 81
1, 1172672, Control_c, 0, 64, 86
1, 1172678, Note_on_c, 0, 68, 93
1, 1172682, Note_on_c, 0, 56, 68
1, 1172687, Control_c, 0, 64, 87
1, 1172695, Note_off_c, 0, 68, 72
1, 1172697, Note_on_c, 0, 58, 55
1, 1172702, Control_c, 0, 64, 107
1, 1172707, Note_off_c, 0, 56, 67
1, 1172710, Poly_aftertouch_c, 0, 66, 127
1, 1172717, Control_c, 0, 64, 127
1, 1172717, Note_off_c, 0, 47, 64
1, 1172728, Note_off_c, 0, 58, 61
1, 1172748, Poly_aftertouch_c, 0, 66, 0
1, 1172762, Note_on_c, 0, 46, 80
1, 1172764, Note_on_c, 0, 66, 76
1, 1172774, Note_on_c, 0, 54, 80
1, 1172796, Note_off_c, 0, 54, 68
1, 1172801, Note_off_c, 0, 46, 58
1, 1172804, Note_on_c, 0, 67, 33
1, 1172810, Note_off_c, 0, 66, 63
1, 1172841, Note_off_c, 0, 67, 51
1, 1172852, Note_on_c, 0, 65, 96
1, 1172854, Note_on_c, 0, 45, 89
1, 1172854, Note_on_c, 0, 53, 94
1, 1172856, Poly_aftertouch_c, 0, 56, 0
1, 1172874, Note_off_c, 0, 65, 64
1, 1172875, Note_off_c, 0, 53, 73
1, 1172904, Poly_aftertouch_c, 0, 54, 127
1, 1172905, Note_off_c, 0, 45, 62
1, 1172932, Note_on_c, 0, 46, 80
1, 1172937, Poly_aftertouch_c, 0, 54, 0
1, 1172947, Note_on_c, 0, 66, 100
1, 1172948, Note_on_c, 0, 54, 75
1, 1172950, Note_on_c, 0, 47, 75
1, 1172954, Note_off_c, 0, 46, 62
1, 1172965, Note_off_c, 0, 66, 64
1, 1172968, Note_off_c, 0, 54, 73
1, 1172974, Note_off_c, 0, 47, 68
1, 1172993, Note_on_c, 0, 49, 66
1, 1173046, Note_on_c, 0, 54, 68
1, 1173046, Note_off_c, 0, 49, 62
1, 1173049, Note_on_c, 0, 70, 97
1, 1173051, Note_on_c, 0, 58, 93
1, 1173064, Note_off_c, 0, 70, 74
1, 1173066, Note_off_c, 0, 58, 74
1, 1173085, Note_off_c, 0, 54, 65
1, 1173093, Poly_aftertouch_c, 0, 46, 0
1, 1173138, Note_on_c, 0, 73, 103
1, 1173139, Note_on_c, 0, 42, 70
1, 1173159, Note_on_c, 0, 61, 55
1, 1173166, Note_off_c, 0, 73, 55
1, 1173176, Note_off_c, 0, 42, 65
1, 1173182, Note_off_c, 0, 61, 63
1, 1173227, Control_c, 0, 64, 85
1, 1173242, Control_c, 0, 64, 61
1, 1173257, Control_c, 0, 64, 65
1, 1173263, Note_on_c, 0, 78, 99
1, 1173272, Note_on_c, 0, 58, 81
1, 1173272, Control_c, 0, 64, 91
1, 1173273, Note_on_c, 0, 66, 81
1, 1173287, Control_c, 0, 64, 127
1, 1173294, Note_off_c, 0, 66, 69
1, 1173337, Note_off_c, 0, 58, 57
1, 1173370, Note_on_c, 0, 75, 69
1, 1173371, Note_on_c, 0, 54, 75
1, 1173402, Note_off_c, 0, 78, 61
1, 1173434, Note_off_c, 0, 75, 60
1, 1173440, Note_off_c, 0, 54, 61
1, 1173456, Note_on_c, 0, 49, 71
1, 1173466, Note_on_c, 0, 70, 65
1, 1173486, Note_off_c, 0, 49, 63
1, 1173491, Note_off_c, 0, 70, 66
1, 1173533, Note_on_c, 0, 54, 87
1, 1173543, Note_on_c, 0, 73, 95
1, 1173553, Note_on_c, 0, 61, 82
1, 1173581, Note_on_c, 0, 74, 47
1, 1173587, Note_off_c, 0, 54, 63
1, 1173591, Note_off_c, 0, 61, 57
1, 1173606, Note_off_c, 0, 74, 60
1, 1173640, Note_on_c, 0, 49, 57
1, 1173660, Note_on_c, 0, 70, 51
1, 1173704, Note_on_c, 0, 46, 73
1, 1173707, Note_off_c, 0, 73, 59
1, 1173712, Note_on_c, 0, 66, 71
1, 1173732, Note_off_c, 0, 49, 62
1, 1173740, Note_off_c, 0, 70, 63
1, 1173762, Note_off_c, 0, 46, 61
1, 1173773, Note_off_c, 0, 66, 61
1, 1173825, Note_on_c, 0, 49, 80
1, 1173828, Note_on_c, 0, 70, 92
1, 1173836, Note_on_c, 0, 58, 77
1, 1173874, Note_off_c, 0, 58, 48
1, 1173892, Note_off_c, 0, 49, 60
1, 1173917, Note_on_c, 0, 46, 59
1, 1173932, Note_off_c, 0, 70, 61
1, 1173934, Note_on_c, 0, 66, 56
1, 1173981, Note_on_c, 0, 42, 68
1, 1173993, Note_off_c, 0, 46, 61
1, 1173996, Note_off_c, 0, 66, 63
1, 1174002, Note_on_c, 0, 61, 67
1, 1174028, Note_off_c, 0, 42, 61
1, 1174044, Note_off_c, 0, 61, 57
1, 1174093, Note_on_c, 0, 46, 74
1, 1174110, Note_on_c, 0, 66, 80
1, 1174124, Note_on_c, 0, 54, 66
1, 1174151, Note_off_c, 0, 66, 63
1, 1174156, Note_off_c, 0, 46, 59
1, 1174177, Note_off_c, 0, 54, 53
1, 1174189, Note_on_c, 0, 42, 56
1, 1174209, Note_on_c, 0, 61, 63
1, 1174221, Poly_aftertouch_c, 0, 65, 127
1, 1174224, Note_off_c, 0, 42, 61
1, 1174229, Poly_aftertouch_c, 0, 65, 0
1, 1174235, Note_on_c, 0, 37, 61
1, 1174243, Note_on_c, 0, 58, 50
1, 1174259, Poly_aftertouch_c, 0, 65, 0
1, 1174262, Note_off_c, 0, 37, 58
1, 1174273, Note_off_c, 0, 61, 53
1, 1174285, Note_off_c, 0, 58, 60
1, 1174332, Control_c, 0, 64, 76
1, 1174347, Control_c, 0, 64, 65
1, 1174361, Control_c, 0, 64, 73
1, 1174376, Control_c, 0, 64, 89
1, 1174378, Note_on_c, 0, 37, 60
1, 1174382, Note_on_c, 0, 61, 88
1, 1174384, Note_on_c, 0, 30, 66
1, 1174385, Note_on_c, 0, 49, 84
1, 1174391, Control_c, 0, 64, 127
1, 1174410, Note_off_c, 0, 49, 66
1, 1174410, Note_off_c, 0, 61, 58
1, 1174473, Note_on_c, 0, 39, 75
1, 1174487, Note_on_c, 0, 51, 72
1, 1174498, Note_on_c, 0, 63, 54
1, 1174506, Note_off_c, 0, 30, 58
1, 1174511, Note_off_c, 0, 51, 67
1, 1174517, Note_on_c, 0, 62, 36
1, 1174524, Note_off_c, 0, 63, 60
1, 1174524, Poly_aftertouch_c, 0, 49, 127
1, 1174546, Note_off_c, 0, 37, 34
1, 1174551, Note_off_c, 0, 62, 52
1, 1174552, Note_off_c, 0, 39, 59
1, 1174560, Poly_aftertouch_c, 0, 49, 0
1, 1174577, Note_on_c, 0, 41, 76
1, 1174578, Note_on_c, 0, 65, 91
1, 1174583, Note_on_c, 0, 53, 75
1, 1174597, Note_off_c, 0, 65, 73
1, 1174610, Note_off_c, 0, 53, 67
1, 1174625, Note_off_c, 0, 41, 60
1, 1174666, Note_on_c, 0, 42, 79
1, 1174667, Note_on_c, 0, 66, 93
1, 1174678, Note_on_c, 0, 54, 72
1, 1174685, Note_off_c, 0, 66, 69
1, 1174700, Note_off_c, 0, 54, 65
1, 1174713, Note_off_c, 0, 42, 60
1, 1174759, Note_on_c, 0, 44, 80
1, 1174764, Note_on_c, 0, 68, 90
1, 1174779, Note_on_c, 0, 56, 63
1, 1174781, Note_off_c, 0, 68, 72
1, 1174803, Note_off_c, 0, 56, 66
1, 1174816, Note_off_c, 0, 44, 62
1, 1174847, Note_on_c, 0, 46, 83
1, 1174852, Note_on_c, 0, 70, 94
1, 1174875, Note_on_c, 0, 58, 48
1, 1174884, Note_off_c, 0, 70, 56
1, 1174895, Note_off_c, 0, 46, 60
1, 1174900, Note_off_c, 0, 58, 61
1, 1174936, Note_on_c, 0, 47, 81
1, 1174941, Note_on_c, 0, 71, 94
1, 1174950, Note_on_c, 0, 59, 77
1, 1174967, Note_off_c, 0, 71, 64
1, 1174968, Note_off_c, 0, 59, 68
1, 1174974, Note_off_c, 0, 47, 64
1, 1175033, Note_on_c, 0, 46, 78
1, 1175033, Note_on_c, 0, 70, 89
1, 1175045, Note_on_c, 0, 58, 64
1, 1175065, Note_off_c, 0, 46, 64
1, 1175066, Note_off_c, 0, 58, 63
1, 1175072, Note_off_c, 0, 70, 65
1, 1175121, Note_on_c, 0, 45, 92
1, 1175128, Note_on_c, 0, 69, 87
1, 1175129, Note_on_c, 0, 57, 84
1, 1175146, Note_off_c, 0, 69, 73
1, 1175149, Note_off_c, 0, 57, 70
1, 1175165, Note_off_c, 0, 45, 63
1, 1175196, Note_on_c, 0, 46, 87
1, 1175210, Note_on_c, 0, 70, 97
1, 1175213, Note_on_c, 0, 58, 88
1, 1175231, Note_off_c, 0, 46, 66
1, 1175233, Note_off_c, 0, 70, 72
1, 1175238, Note_off_c, 0, 58, 73
1, 1175239, Poly_aftertouch_c, 0, 67, 0
1, 1175241, Note_on_c, 0, 71, 64
1, 1175260, Note_off_c, 0, 71, 68
1, 1175284, Note_on_c, 0, 49, 56
1, 1175310, Note_on_c, 0, 73, 109
1, 1175312, Note_on_c, 0, 61, 97
1, 1175313, Note_off_c, 0, 49, 64
1, 1175323, Note_on_c, 0, 54, 74
1, 1175331, Note_off_c, 0, 61, 69
1, 1175338, Note_off_c, 0, 73, 57
1, 1175345, Note_off_c, 0, 54, 71
1, 1175397, Note_on_c, 0, 78, 101
1, 1175412, Note_on_c, 0, 42, 68
1, 1175430, Note_off_c, 0, 78, 63
1, 1175437, Note_off_c, 0, 42, 66
1, 1175473, Control_c, 0, 64, 97
1, 1175488, Control_c, 0, 64, 63
1, 1175491, Poly_aftertouch_c, 0, 66, 0
1, 1175503, Control_c, 0, 64, 0
1, 1175516, Note_on_c, 0, 82, 92
1, 1175517, Note_on_c, 0, 58, 86
1, 1175518, Control_c, 0, 64, 73
1, 1175519, Note_on_c, 0, 70, 84
1, 1175532, Control_c, 0, 64, 117
1, 1175538, Note_off_c, 0, 70, 66
1, 1175546, Note_on_c, 0, 83, 50
1, 1175547, Control_c, 0, 64, 127
1, 1175562, Note_off_c, 0, 58, 62
1, 1175569, Note_off_c, 0, 83, 61
1, 1175618, Note_on_c, 0, 80, 67
1, 1175625, Note_on_c, 0, 49, 85
1, 1175651, Note_off_c, 0, 80, 56
1, 1175656, Note_off_c, 0, 82, 56
1, 1175659, Note_on_c, 0, 78, 48
1, 1175683, Note_off_c, 0, 49, 63
1, 1175697, Note_off_c, 0, 78, 49
1, 1175705, Note_on_c, 0, 73, 81
1, 1175723, Note_on_c, 0, 42, 66
1, 1175754, Note_off_c, 0, 42, 63
1, 1175758, Note_off_c, 0, 73, 62
1, 1175801, Note_on_c, 0, 81, 97
1, 1175803, Note_on_c, 0, 57, 77
1, 1175808, Note_on_c, 0, 69, 85
1, 1175845, Note_off_c, 0, 69, 58
1, 1175851, Note_off_c, 0, 57, 62
1, 1175889, Note_on_c, 0, 78, 84
1, 1175901, Note_on_c, 0, 49, 67
1, 1175912, Note_off_c, 0, 81, 59
1, 1175930, Note_off_c, 0, 49, 64
1, 1175959, Note_on_c, 0, 42, 61
1, 1175994, Note_off_c, 0, 42, 64
1, 1175999, Note_on_c, 0, 73, 82
1, 1176017, Note_off_c, 0, 78, 61
1, 1176059, Note_off_c, 0, 73, 62
1, 1176074, Control_c, 0, 64, 97
1, 1176075, Note_on_c, 0, 56, 79
1, 1176077, Note_on_c, 0, 80, 90
1, 1176088, Control_c, 0, 64, 68
1, 1176089, Note_on_c, 0, 68, 76
1, 1176103, Control_c, 0, 64, 59
1, 1176118, Control_c, 0, 64, 67
1, 1176133, Control_c, 0, 64, 78
1, 1176148, Control_c, 0, 64, 108
1, 1176162, Control_c, 0, 64, 127
1, 1176164, Note_on_c, 0, 54, 70
1, 1176173, Note_on_c, 0, 78, 73
1, 1176184, Note_off_c, 0, 56, 50
1, 1176206, Note_off_c, 0, 68, 56
1, 1176228, Note_on_c, 0, 73, 70
1, 1176241, Note_off_c, 0, 80, 62
1, 1176244, Note_on_c, 0, 49, 60
1, 1176267, Note_off_c, 0, 73, 62
1, 1176290, Note_off_c, 0, 54, 65
1, 1176292, Note_off_c, 0, 78, 64
1, 1176314, Note_off_c, 0, 49, 63
1, 1176335, Note_on_c, 0, 61, 79
1, 1176339, Note_on_c, 0, 85, 94
1, 1176347, Note_on_c, 0, 73, 84
1, 1176413, Note_off_c, 0, 61, 56
1, 1176415, Note_on_c, 0, 80, 63
1, 1176449, Note_on_c, 0, 53, 57
1, 1176466, Note_off_c, 0, 85, 64
1, 1176478, Note_off_c, 0, 53, 67
1, 1176482, Note_on_c, 0, 77, 81
1, 1176483, Poly_aftertouch_c, 0, 54, 127
1, 1176491, Note_on_c, 0, 49, 60
1, 1176496, Note_off_c, 0, 73, 55
1, 1176512, Note_off_c, 0, 80, 61
1, 1176519, Note_off_c, 0, 49, 65
1, 1176529, Poly_aftertouch_c, 0, 54, 0
1, 1176559, Note_off_c, 0, 77, 59
1, 1176598, Note_on_c, 0, 82, 93
1, 1176601, Note_on_c, 0, 58, 72
1, 1176601, Note_on_c, 0, 70, 86
1, 1176637, Control_c, 0, 64, 103
1, 1176652, Control_c, 0, 64, 73
1, 1176656, Note_off_c, 0, 58, 63
1, 1176667, Control_c, 0, 64, 70
1, 1176682, Control_c, 0, 64, 88
1, 1176685, Note_on_c, 0, 49, 73
1, 1176691, Note_on_c, 0, 78, 76
1, 1176696, Control_c, 0, 64, 127
1, 1176750, Note_on_c, 0, 73, 88
1, 1176754, Note_off_c, 0, 70, 62
1, 1176770, Note_on_c, 0, 42, 77
1, 1176771, Note_off_c, 0, 82, 62
1, 1176774, Note_off_c, 0, 49, 63
1, 1176790, Note_off_c, 0, 78, 63
1, 1176812, Note_off_c, 0, 42, 63
1, 1176812, Note_off_c, 0, 73, 65
1, 1176852, Note_on_c, 0, 57, 83
1, 1176860, Note_on_c, 0, 81, 101
1, 1176863, Note_on_c, 0, 69, 102
1, 1176905, Note_off_c, 0, 57, 58
1, 1176940, Note_on_c, 0, 49, 80
1, 1176945, Note_on_c, 0, 78, 81
1, 1176991, Note_off_c, 0, 69, 56
1, 1176992, Note_off_c, 0, 81, 61
1, 1176998, Note_on_c, 0, 42, 69
1, 1177012, Note_on_c, 0, 73, 85
1, 1177034, Note_off_c, 0, 49, 62
1, 1177041, Note_off_c, 0, 42, 63
1, 1177079, Note_off_c, 0, 78, 62
1, 1177087, Note_off_c, 0, 73, 61
1, 1177106, Note_on_c, 0, 56, 94
1, 1177112, Note_on_c, 0, 80, 97
1, 1177116, Note_on_c, 0, 68, 92
1, 1177118, Control_c, 0, 64, 104
1, 1177133, Control_c, 0, 64, 73
1, 1177147, Control_c, 0, 64, 63
1, 1177162, Control_c, 0, 64, 71
1, 1177177, Control_c, 0, 64, 85
1, 1177192, Control_c, 0, 64, 127
1, 1177195, Note_on_c, 0, 54, 83
1, 1177198, Note_on_c, 0, 78, 77
1, 1177245, Note_off_c, 0, 68, 61
1, 1177247, Note_off_c, 0, 56, 60
1, 1177250, Note_on_c, 0, 73, 79
1, 1177278, Note_off_c, 0, 80, 60
1, 1177295, Note_on_c, 0, 49, 67
1, 1177309, Note_off_c, 0, 73, 63
1, 1177339, Note_off_c, 0, 54, 63
1, 1177340, Note_off_c, 0, 78, 64
1, 1177369, Note_off_c, 0, 49, 64
1, 1177385, Note_on_c, 0, 61, 94
1, 1177388, Note_on_c, 0, 85, 101
1, 1177394, Note_on_c, 0, 73, 99
1, 1177474, Note_on_c, 0, 80, 72
1, 1177497, Note_on_c, 0, 53, 76
1, 1177499, Note_off_c, 0, 61, 61
1, 1177534, Note_on_c, 0, 77, 71
1, 1177542, Note_on_c, 0, 49, 71
1, 1177543, Note_off_c, 0, 85, 61
1, 1177546, Note_off_c, 0, 53, 66
1, 1177548, Note_off_c, 0, 73, 46
1, 1177579, Note_off_c, 0, 49, 65
1, 1177583, Note_off_c, 0, 80, 61
1, 1177650, Note_off_c, 0, 77, 56
1, 1177702, Note_on_c, 0, 58, 73
1, 1177703, Note_on_c, 0, 82, 89
1, 1177713, Note_on_c, 0, 70, 78
1, 1177749, Control_c, 0, 64, 91
1, 1177764, Control_c, 0, 64, 62
1, 1177778, Control_c, 0, 64, 0
1, 1177793, Control_c, 0, 64, 65
1, 1177807, Note_off_c, 0, 58, 59
1, 1177808, Control_c, 0, 64, 82
1, 1177818, Note_on_c, 0, 49, 66
1, 1177823, Control_c, 0, 64, 127
1, 1177864, Note_on_c, 0, 78, 60
1, 1177907, Note_off_c, 0, 49, 60
1, 1177928, Note_on_c, 0, 42, 69
1, 1177928, Note_off_c, 0, 70, 59
1, 1177934, Note_on_c, 0, 73, 65
1, 1177945, Note_off_c, 0, 82, 57
1, 1177970, Note_off_c, 0, 42, 63
1, 1177983, Note_off_c, 0, 78, 53
1, 1178025, Note_on_c, 0, 57, 68
1, 1178040, Note_on_c, 0, 81, 79
1, 1178056, Note_off_c, 0, 73, 43
1, 1178062, Note_on_c, 0, 69, 59
1, 1178089, Note_off_c, 0, 57, 59
1, 1178107, Note_on_c, 0, 49, 74
1, 1178126, Note_on_c, 0, 78, 75
1, 1178131, Note_off_c, 0, 69, 63
1, 1178141, Note_off_c, 0, 81, 61
1, 1178177, Note_off_c, 0, 49, 63
1, 1178182, Note_on_c, 0, 42, 61
1, 1178210, Note_off_c, 0, 42, 65
1, 1178217, Note_on_c, 0, 73, 52
1, 1178229, Note_off_c, 0, 78, 63
1, 1178248, Note_off_c, 0, 73, 61
1, 1178283, Note_on_c, 0, 82, 100
1, 1178285, Note_on_c, 0, 70, 90
1, 1178287, Note_on_c, 0, 58, 73
1, 1178345, Note_off_c, 0, 58, 62
1, 1178377, Note_on_c, 0, 49, 70
1, 1178383, Note_on_c, 0, 78, 79
1, 1178437, Note_off_c, 0, 70, 52
1, 1178441, Note_on_c, 0, 73, 83
1, 1178449, Note_off_c, 0, 82, 59
1, 1178458, Note_on_c, 0, 42, 69
1, 1178464, Note_off_c, 0, 49, 63
1, 1178475, Note_off_c, 0, 78, 62
1, 1178497, Note_off_c, 0, 42, 63
1, 1178500, Note_off_c, 0, 73, 63
1, 1178535, Note_on_c, 0, 57, 75
1, 1178537, Note_on_c, 0, 81, 99
1, 1178542, Note_on_c, 0, 69, 96
1, 1178590, Note_off_c, 0, 57, 62
1, 1178613, Note_on_c, 0, 78, 83
1, 1178614, Note_on_c, 0, 49, 78
1, 1178652, Note_off_c, 0, 69, 57
1, 1178661, Note_off_c, 0, 81, 55
1, 1178685, Note_on_c, 0, 42, 73
1, 1178688, Note_on_c, 0, 73, 78
1, 1178694, Note_off_c, 0, 49, 64
1, 1178719, Note_off_c, 0, 42, 61
1, 1178725, Note_off_c, 0, 78, 64
1, 1178733, Note_off_c, 0, 73, 64
1, 1178782, Note_on_c, 0, 70, 98
1, 1178783, Note_on_c, 0, 82, 104
1, 1178791, Note_on_c, 0, 58, 81
1, 1178834, Note_off_c, 0, 58, 63
1, 1178868, Note_on_c, 0, 78, 70
1, 1178876, Note_on_c, 0, 49, 81
1, 1178915, Note_on_c, 0, 73, 88
1, 1178922, Note_off_c, 0, 70, 58
1, 1178931, Note_off_c, 0, 82, 58
1, 1178950, Note_off_c, 0, 78, 63
1, 1178958, Note_off_c, 0, 49, 63
1, 1178959, Note_on_c, 0, 42, 77
1, 1178985, Note_off_c, 0, 73, 64
1, 1179005, Note_off_c, 0, 42, 64
1, 1179026, Note_on_c, 0, 81, 97
1, 1179029, Note_on_c, 0, 69, 98
1, 1179043, Note_on_c, 0, 57, 79
1, 1179087, Note_on_c, 0, 80, 6
1, 1179099, Note_off_c, 0, 57, 59
1, 1179111, Note_on_c, 0, 78, 85
1, 1179126, Note_on_c, 0, 49, 89
1, 1179139, Note_off_c, 0, 80, 51
1, 1179143, Note_off_c, 0, 81, 58
1, 1179151, Note_off_c, 0, 69, 59
1, 1179177, Note_on_c, 0, 73, 73
1, 1179186, Poly_aftertouch_c, 0, 71, 127
1, 1179197, Note_off_c, 0, 49, 64
1, 1179198, Note_on_c, 0, 42, 72
1, 1179205, Note_off_c, 0, 78, 64
1, 1179209, Note_off_c, 0, 73, 65
1, 1179216, Poly_aftertouch_c, 0, 71, 0
1, 1179225, Note_off_c, 0, 42, 65
1, 1179267, Note_on_c, 0, 70, 100
1, 1179268, Note_on_c, 0, 82, 104
1, 1179288, Note_on_c, 0, 58, 80
1, 1179345, Note_off_c, 0, 58, 61
1, 1179362, Note_on_c, 0, 78, 77
1, 1179378, Note_on_c, 0, 49, 80
1, 1179395, Note_off_c, 0, 70, 57
1, 1179401, Note_on_c, 0, 73, 82
1, 1179427, Note_off_c, 0, 82, 61
1, 1179431, Note_off_c, 0, 49, 65
1, 1179444, Note_off_c, 0, 73, 65
1, 1179457, Note_on_c, 0, 42, 71
1, 1179457, Note_off_c, 0, 78, 64
1, 1179485, Note_off_c, 0, 42, 64
1, 1179539, Note_on_c, 0, 85, 109
1, 1179541, Note_on_c, 0, 73, 103
1, 1179554, Note_on_c, 0, 61, 83
1, 1179590, Note_off_c, 0, 61, 62
1, 1179594, Note_off_c, 0, 73, 0
1, 1179602, Note_on_c, 0, 84, 69
1, 1179612, Note_on_c, 0, 82, 63
1, 1179634, Poly_aftertouch_c, 0, 73, 0
1, 1179676, Note_off_c, 0, 84, 63
1, 1179676, Note_off_c, 0, 85, 57
1, 1179690, Note_on_c, 0, 42, 67
1, 1179704, Note_on_c, 0, 77, 66
1, 1179712, Note_off_c, 0, 82, 64
1, 1179725, Note_off_c, 0, 42, 65
1, 1179728, Note_off_c, 0, 77, 67
1, 1179874, Note_on_c, 0, 66, 110
1, 1179874, Note_on_c, 0, 90, 109
1, 1179877, Note_on_c, 0, 78, 105
1, 1179887, Note_off_c, 0, 66, 78
1, 1179890, Note_off_c, 0, 78, 78
1, 1179895, Note_off_c, 0, 90, 73
1, 1180307, Control_c, 0, 64, 103
1, 1180322, Control_c, 0, 64, 74
1, 1180337, Control_c, 0, 64, 28
1, 1180351, Control_c, 0, 64, 0
1, 1180426, Note_on_c, 0, 49, 90
1, 1180426, Note_on_c, 0, 56, 100
1, 1180428, Note_on_c, 0, 61, 99
1, 1180429, Note_on_c, 0, 80, 101
1, 1180432, Note_on_c, 0, 68, 106
1, 1180433, Note_on_c, 0, 73, 97
1, 1180435, Note_on_c, 0, 77, 94
1, 1180446, Note_off_c, 0, 61, 72
1, 1180450, Note_off_c, 0, 49, 70
1, 1180455, Note_off_c, 0, 68, 67
1, 1180455, Control_c, 0, 64, 71
1, 1180456, Note_off_c, 0, 77, 66
1, 1180458, Note_off_c, 0, 56, 68
1, 1180461, Note_off_c, 0, 80, 71
1, 1180470, Note_off_c, 0, 73, 68
1, 1180477, Control_c, 0, 64, 127
1, 1180877, Control_c, 0, 64, 113
1, 1180892, Control_c, 0, 64, 65
1, 1180907, Control_c, 0, 64, 0
1, 1181090, Note_on_c, 0, 54, 98
1, 1181091, Note_on_c, 0, 42, 88
1, 1181091, Note_on_c, 0, 49, 100
1, 1181093, Note_on_c, 0, 70, 105
1, 1181093, Note_on_c, 0, 82, 96
1, 1181094, Note_on_c, 0, 73, 103
1, 1181095, Note_on_c, 0, 78, 97
1, 1181112, Note_off_c, 0, 54, 71
1, 1181115, Note_off_c, 0, 42, 69
1, 1181117, Note_off_c, 0, 78, 70
1, 1181117, Note_off_c, 0, 82, 70
1, 1181118, Note_off_c, 0, 70, 68
1, 1181123, Note_off_c, 0, 49, 66
1, 1181125, Note_off_c, 0, 73, 67
1, 1181129, Control_c, 0, 64, 90
1, 1181144, Control_c, 0, 64, 127
1, 1181642, Control_c, 0, 64, 79
1, 1181657, Control_c, 0, 64, 0
1, 1181846, Note_on_c, 0, 44, 99
1, 1181850, Note_on_c, 0, 37, 92
1, 1181850, Note_on_c, 0, 49, 96
1, 1181852, Note_on_c, 0, 85, 104
1, 1181854, Note_on_c, 0, 73, 103
1, 1181854, Note_on_c, 0, 77, 101
1, 1181854, Note_on_c, 0, 80, 98
1, 1181864, Control_c, 0, 64, 77
1, 1181879, Control_c, 0, 64, 127
1, 1181880, Note_off_c, 0, 49, 65
1, 1181884, Note_on_c, 0, 82, 70
1, 1181886, Note_off_c, 0, 37, 64
1, 1181891, Note_off_c, 0, 44, 67
1, 1181958, Note_off_c, 0, 82, 51
1, 1182293, Note_off_c, 0, 73, 55
1, 1182326, Note_off_c, 0, 85, 59
1, 1182539, Note_off_c, 0, 77, 51
1, 1182634, Note_on_c, 0, 84, 93
1, 1182635, Note_on_c, 0, 72, 94
1, 1182640, Note_on_c, 0, 60, 101
1, 1182642, Note_on_c, 0, 48, 94
1, 1182667, Note_off_c, 0, 60, 66
1, 1182668, Note_off_c, 0, 48, 68
1, 1182727, Note_off_c, 0, 72, 59
1, 1182736, Note_off_c, 0, 84, 62
1, 1182767, Poly_aftertouch_c, 0, 50, 0
1, 1182873, Note_on_c, 0, 49, 101
1, 1182873, Note_on_c, 0, 61, 101
1, 1182873, Note_off_c, 0, 80, 60
1, 1182874, Note_on_c, 0, 85, 107
1, 1182876, Note_on_c, 0, 73, 101
1, 1182891, Note_off_c, 0, 61, 71
1, 1182900, Note_off_c, 0, 49, 67
1, 1183080, Control_c, 0, 64, 95
1, 1183095, Control_c, 0, 64, 64
1, 1183110, Control_c, 0, 64, 0
1, 1183124, Note_on_c, 0, 30, 112
1, 1183126, Note_on_c, 0, 42, 121
1, 1183139, Control_c, 0, 64, 49
1, 1183145, Note_off_c, 0, 42, 73
1, 1183153, Note_off_c, 0, 30, 66
1, 1183154, Control_c, 0, 64, 79
1, 1183169, Control_c, 0, 64, 127
1, 1183184, Note_off_c, 0, 73, 59
1, 1183208, Poly_aftertouch_c, 0, 29, 0
1, 1183247, Note_off_c, 0, 85, 60
1, 1183268, Poly_aftertouch_c, 0, 29, 0
1, 1183643, Note_on_c, 0, 66, 100
1, 1183644, Note_on_c, 0, 58, 94
1, 1183645, Note_on_c, 0, 70, 104
1, 1183645, Note_on_c, 0, 90, 106
1, 1183645, Note_on_c, 0, 82, 110
1, 1183645, Note_on_c, 0, 85, 106
1, 1183647, Note_on_c, 0, 94, 105
1, 1183648, Note_on_c, 0, 61, 95
1, 1183695, Note_on_c, 0, 92, 36
1, 1183726, Note_off_c, 0, 92, 54
1, 1185548, Note_off_c, 0, 58, 68
1, 1185575, Note_off_c, 0, 61, 63
1, 1185579, Note_off_c, 0, 70, 63
1, 1185584, Note_off_c, 0, 66, 62
1, 1185586, Note_off_c, 0, 82, 61
1, 1185616, Note_off_c, 0, 85, 63
1, 1185632, Note_off_c, 0, 90, 62
1, 1185648, Note_off_c, 0, 94, 67
1, 1185682, Control_c, 0, 64, 104
1, 1185697, Control_c, 0, 64, 79
1, 1185719, Control_c, 0, 64, 60
1, 1185734, Control_c, 0, 64, 0
1, 1185809, End_track
0, 0, End_of_file
