0, 0, Header, 0, 1, 384
1, 0, Start_track
1, 0, Title_t, "Sonata in C,K179--Staupe        "
1, 0, Text_t, "2009 International Piano-e-Competition finals"
1, 0, Text_t, "captured June-July 2009"
1, 0, Text_t, "http://www.piano-e-competition.com/"
1, 0, Text_t, "standard-resolution version"
1, 0, Text_t, "File processed for distribution by software from Zenph Studios, Inc., http://www.zenph.com"
1, 0, Instrument_name_t, "Yamaha Disklavier Pro Mark IV concert grand piano, model DCFIIISM4PRO"
1, 0, Sequencer_specific, 39, 67, 113, 0, 1, 0, 1, 0, 83, 111, 110, 97, 116, 97, 32, 105, 110, 32, 67, 44, 75, 49, 55, 57, 65, 110, 100, 114, 101, 119, 32, 83, 116, 97, 117, 112, 101, 32, 32, 32
1, 0, Sequencer_specific, 6, 67, 113, 0, 0, 0, 69
1, 0, System_exclusive, 21, 67, 113, 126, 21, 0, 2, 2, 2, 3, 12, 8, 4, 10, 4, 14, 6, 1, 8, 0, 7, 247
1, 0, Sequencer_specific, 5, 67, 123, 12, 2, 1
1, 0, Tempo, 512820
1, 0, Time_signature, 4, 2, 24, 8
1, 0, System_exclusive, 5, 126, 127, 9, 1, 247
1, 1, System_exclusive, 8, 67, 16, 76, 0, 0, 126, 0, 247
1, 2, System_exclusive, 8, 67, 16, 76, 8, 9, 7, 1, 247
1, 3, Control_c, 0, 0, 0
1, 3, Control_c, 1, 0, 0
1, 3, Control_c, 2, 0, 0
1, 3, Control_c, 3, 0, 0
1, 3, Control_c, 4, 0, 0
1, 3, Control_c, 5, 0, 0
1, 3, Control_c, 6, 0, 0
1, 3, Control_c, 7, 0, 0
1, 3, Control_c, 8, 0, 0
1, 3, Control_c, 9, 0, 127
1, 3, Control_c, 10, 0, 0
1, 3, Control_c, 11, 0, 0
1, 3, Control_c, 12, 0, 0
1, 3, Control_c, 13, 0, 0
1, 3, Control_c, 14, 0, 0
1, 3, Control_c, 15, 0, 0
1, 4, Control_c, 0, 32, 0
1, 4, Control_c, 1, 32, 0
1, 4, Control_c, 2, 32, 0
1, 4, Control_c, 3, 32, 0
1, 4, Control_c, 4, 32, 0
1, 4, Control_c, 5, 32, 0
1, 4, Control_c, 6, 32, 0
1, 4, Control_c, 7, 32, 0
1, 4, Control_c, 8, 32, 0
1, 4, Control_c, 9, 32, 0
1, 4, Control_c, 10, 32, 0
1, 4, Control_c, 11, 32, 0
1, 4, Control_c, 12, 32, 0
1, 4, Control_c, 13, 32, 0
1, 4, Control_c, 14, 32, 0
1, 4, Control_c, 15, 32, 0
1, 5, Program_c, 0, 0
1, 5, Program_c, 1, 0
1, 5, Program_c, 2, 0
1, 5, Program_c, 3, 0
1, 5, Program_c, 4, 0
1, 5, Program_c, 5, 0
1, 5, Program_c, 6, 0
1, 5, Program_c, 7, 0
1, 5, Program_c, 8, 0
1, 5, Program_c, 9, 0
1, 5, Program_c, 10, 0
1, 5, Program_c, 11, 0
1, 5, Program_c, 12, 0
1, 5, Program_c, 13, 0
1, 5, Program_c, 14, 0
1, 5, Program_c, 15, 0
1, 6, Control_c, 0, 7, 100
1, 6, Control_c, 1, 7, 100
1, 6, Control_c, 2, 7, 100
1, 6, Control_c, 3, 7, 100
1, 6, Control_c, 4, 7, 100
1, 6, Control_c, 5, 7, 100
1, 6, Control_c, 6, 7, 100
1, 6, Control_c, 7, 7, 100
1, 6, Control_c, 8, 7, 100
1, 6, Control_c, 9, 7, 100
1, 6, Control_c, 10, 7, 100
1, 6, Control_c, 11, 7, 100
1, 6, Control_c, 12, 7, 100
1, 6, Control_c, 13, 7, 100
1, 6, Control_c, 14, 7, 100
1, 6, Control_c, 15, 7, 100
1, 1129, Note_on_c, 0, 79, 72
1, 1134, Note_on_c, 0, 76, 63
1, 1156, Note_off_c, 0, 79, 62
1, 1165, Note_off_c, 0, 76, 65
1, 1246, Note_on_c, 0, 74, 74
1, 1247, Note_on_c, 0, 77, 80
1, 1282, Note_off_c, 0, 74, 60
1, 1295, Note_off_c, 0, 77, 62
1, 1361, Note_on_c, 0, 76, 86
1, 1370, Note_on_c, 0, 72, 72
1, 1391, Note_off_c, 0, 72, 70
1, 1406, Note_off_c, 0, 76, 62
1, 1497, Note_on_c, 0, 76, 78
1, 1501, Note_on_c, 0, 72, 62
1, 1524, Note_off_c, 0, 76, 64
1, 1534, Note_off_c, 0, 72, 63
1, 1624, Note_on_c, 0, 74, 78
1, 1630, Note_on_c, 0, 67, 63
1, 1659, Note_off_c, 0, 67, 65
1, 1661, Note_off_c, 0, 74, 61
1, 1750, Note_on_c, 0, 72, 82
1, 1754, Note_on_c, 0, 64, 66
1, 1773, Note_off_c, 0, 64, 66
1, 1791, Note_off_c, 0, 72, 63
1, 1877, Note_on_c, 0, 64, 57
1, 1883, Note_on_c, 0, 72, 75
1, 1906, Note_off_c, 0, 64, 67
1, 1908, Note_off_c, 0, 72, 64
1, 1998, Note_on_c, 0, 74, 76
1, 2008, Note_on_c, 0, 67, 51
1, 2030, Note_off_c, 0, 74, 63
1, 2035, Note_off_c, 0, 67, 57
1, 2110, Control_c, 0, 64, 74
1, 2112, Note_on_c, 0, 72, 77
1, 2118, Note_on_c, 0, 77, 92
1, 2125, Control_c, 0, 64, 91
1, 2140, Control_c, 0, 64, 99
1, 2153, Note_off_c, 0, 72, 60
1, 2154, Control_c, 0, 64, 101
1, 2159, Note_off_c, 0, 77, 63
1, 2167, Note_on_c, 0, 76, 74
1, 2169, Control_c, 0, 64, 104
1, 2184, Control_c, 0, 64, 111
1, 2187, Note_off_c, 0, 76, 63
1, 2199, Control_c, 0, 64, 112
1, 2207, Note_on_c, 0, 77, 75
1, 2236, Control_c, 0, 64, 109
1, 2251, Control_c, 0, 64, 103
1, 2265, Note_on_c, 0, 76, 75
1, 2265, Note_off_c, 0, 77, 62
1, 2266, Control_c, 0, 64, 94
1, 2281, Control_c, 0, 64, 79
1, 2296, Control_c, 0, 64, 66
1, 2310, Control_c, 0, 64, 0
1, 2348, Note_off_c, 0, 76, 59
1, 2358, Note_on_c, 0, 67, 72
1, 2360, Note_on_c, 0, 74, 84
1, 2383, Note_off_c, 0, 67, 68
1, 2399, Note_off_c, 0, 74, 65
1, 2484, Note_on_c, 0, 67, 73
1, 2491, Note_on_c, 0, 74, 87
1, 2512, Note_off_c, 0, 67, 64
1, 2522, Note_off_c, 0, 74, 66
1, 2622, Note_on_c, 0, 79, 77
1, 2629, Note_on_c, 0, 76, 50
1, 2643, Note_off_c, 0, 79, 69
1, 2655, Note_off_c, 0, 76, 57
1, 2742, Note_on_c, 0, 77, 72
1, 2748, Note_on_c, 0, 74, 61
1, 2775, Note_off_c, 0, 77, 60
1, 2777, Note_off_c, 0, 74, 68
1, 2867, Note_on_c, 0, 76, 76
1, 2873, Note_on_c, 0, 72, 50
1, 2896, Note_off_c, 0, 72, 59
1, 2903, Note_off_c, 0, 76, 59
1, 2989, Note_on_c, 0, 72, 55
1, 2995, Note_on_c, 0, 76, 75
1, 3024, Note_off_c, 0, 72, 63
1, 3027, Note_off_c, 0, 76, 59
1, 3108, Note_on_c, 0, 74, 86
1, 3112, Note_on_c, 0, 67, 65
1, 3139, Note_off_c, 0, 67, 66
1, 3159, Note_off_c, 0, 74, 64
1, 3234, Note_on_c, 0, 72, 89
1, 3238, Note_on_c, 0, 64, 72
1, 3256, Note_off_c, 0, 64, 68
1, 3278, Note_off_c, 0, 72, 64
1, 3350, Note_on_c, 0, 64, 69
1, 3354, Note_on_c, 0, 72, 90
1, 3381, Note_off_c, 0, 64, 66
1, 3394, Note_off_c, 0, 72, 64
1, 3473, Note_on_c, 0, 74, 95
1, 3483, Note_on_c, 0, 67, 75
1, 3505, Note_off_c, 0, 67, 68
1, 3517, Note_off_c, 0, 74, 67
1, 3596, Note_on_c, 0, 72, 85
1, 3600, Note_on_c, 0, 77, 91
1, 3607, Control_c, 0, 64, 81
1, 3622, Control_c, 0, 64, 108
1, 3637, Control_c, 0, 64, 127
1, 3641, Note_off_c, 0, 72, 62
1, 3642, Note_off_c, 0, 77, 63
1, 3651, Note_on_c, 0, 76, 77
1, 3679, Note_off_c, 0, 76, 60
1, 3694, Note_on_c, 0, 77, 83
1, 3740, Note_off_c, 0, 77, 55
1, 3768, Note_on_c, 0, 76, 74
1, 3779, Control_c, 0, 64, 123
1, 3794, Control_c, 0, 64, 82
1, 3808, Control_c, 0, 64, 0
1, 3817, Note_off_c, 0, 76, 60
1, 3837, Note_on_c, 0, 74, 92
1, 3841, Note_on_c, 0, 67, 73
1, 3863, Note_off_c, 0, 67, 68
1, 3880, Note_off_c, 0, 74, 67
1, 3961, Note_on_c, 0, 67, 79
1, 3966, Note_on_c, 0, 74, 96
1, 3992, Note_off_c, 0, 67, 62
1, 4009, Note_off_c, 0, 74, 68
1, 4090, Note_on_c, 0, 79, 100
1, 4131, Note_off_c, 0, 79, 63
1, 4216, Note_on_c, 0, 76, 94
1, 4217, Note_on_c, 0, 72, 78
1, 4243, Note_off_c, 0, 72, 66
1, 4268, Note_off_c, 0, 76, 63
1, 4362, Note_on_c, 0, 71, 86
1, 4363, Note_on_c, 0, 77, 83
1, 4386, Control_c, 0, 64, 81
1, 4388, Note_off_c, 0, 71, 64
1, 4397, Note_off_c, 0, 77, 61
1, 4400, Control_c, 0, 64, 101
1, 4409, Note_on_c, 0, 76, 71
1, 4415, Control_c, 0, 64, 112
1, 4434, Note_off_c, 0, 76, 64
1, 4450, Note_on_c, 0, 77, 69
1, 4461, Control_c, 0, 64, 113
1, 4502, Note_off_c, 0, 77, 61
1, 4509, Note_on_c, 0, 76, 78
1, 4512, Control_c, 0, 64, 110
1, 4527, Control_c, 0, 64, 95
1, 4542, Control_c, 0, 64, 74
1, 4557, Control_c, 0, 64, 0
1, 4566, Note_off_c, 0, 76, 64
1, 4596, Note_on_c, 0, 74, 70
1, 4606, Note_on_c, 0, 71, 66
1, 4614, Note_off_c, 0, 74, 67
1, 4623, Note_off_c, 0, 71, 68
1, 4742, Note_on_c, 0, 69, 72
1, 4764, Note_off_c, 0, 69, 70
1, 4870, Note_on_c, 0, 79, 76
1, 4898, Note_off_c, 0, 79, 61
1, 4989, Note_on_c, 0, 72, 76
1, 4997, Note_on_c, 0, 69, 58
1, 5019, Note_off_c, 0, 69, 61
1, 5027, Note_off_c, 0, 72, 64
1, 5123, Note_on_c, 0, 74, 78
1, 5126, Note_on_c, 0, 67, 77
1, 5147, Note_off_c, 0, 67, 69
1, 5149, Note_off_c, 0, 74, 67
1, 5149, Control_c, 0, 64, 40
1, 5159, Note_on_c, 0, 72, 73
1, 5164, Control_c, 0, 64, 84
1, 5179, Control_c, 0, 64, 97
1, 5185, Note_off_c, 0, 72, 64
1, 5194, Control_c, 0, 64, 101
1, 5207, Note_on_c, 0, 74, 78
1, 5246, Control_c, 0, 64, 101
1, 5257, Note_off_c, 0, 74, 62
1, 5261, Control_c, 0, 64, 98
1, 5276, Control_c, 0, 64, 94
1, 5280, Note_on_c, 0, 72, 63
1, 5291, Control_c, 0, 64, 85
1, 5295, Note_off_c, 0, 72, 68
1, 5305, Note_on_c, 0, 74, 56
1, 5305, Control_c, 0, 64, 70
1, 5320, Control_c, 0, 64, 0
1, 5329, Note_off_c, 0, 74, 59
1, 5369, Note_on_c, 0, 72, 48
1, 5371, Note_on_c, 0, 71, 74
1, 5386, Note_on_c, 0, 67, 58
1, 5390, Note_off_c, 0, 71, 72
1, 5394, Note_off_c, 0, 72, 59
1, 5408, Note_off_c, 0, 67, 59
1, 5513, Note_on_c, 0, 72, 59
1, 5549, Note_off_c, 0, 72, 63
1, 5648, Note_on_c, 0, 79, 61
1, 5678, Note_off_c, 0, 79, 64
1, 5764, Note_on_c, 0, 76, 64
1, 5769, Note_on_c, 0, 72, 58
1, 5791, Note_off_c, 0, 72, 65
1, 5792, Note_off_c, 0, 76, 65
1, 5884, Note_on_c, 0, 77, 68
1, 5892, Note_on_c, 0, 71, 74
1, 5895, Note_on_c, 0, 76, 70
1, 5926, Note_off_c, 0, 71, 59
1, 5945, Note_off_c, 0, 77, 57
1, 6027, Note_on_c, 0, 74, 77
1, 6029, Note_off_c, 0, 76, 60
1, 6058, Note_off_c, 0, 74, 64
1, 6146, Note_on_c, 0, 74, 84
1, 6151, Note_on_c, 0, 71, 64
1, 6177, Note_off_c, 0, 71, 69
1, 6187, Note_off_c, 0, 74, 63
1, 6256, Note_on_c, 0, 76, 86
1, 6269, Note_on_c, 0, 69, 77
1, 6274, Note_on_c, 0, 74, 87
1, 6302, Note_off_c, 0, 69, 58
1, 6329, Note_off_c, 0, 76, 59
1, 6396, Note_on_c, 0, 72, 82
1, 6398, Note_off_c, 0, 74, 65
1, 6435, Note_off_c, 0, 72, 64
1, 6510, Note_on_c, 0, 72, 87
1, 6515, Note_on_c, 0, 69, 63
1, 6542, Note_off_c, 0, 69, 67
1, 6551, Note_off_c, 0, 72, 63
1, 6626, Note_on_c, 0, 74, 86
1, 6636, Note_on_c, 0, 67, 75
1, 6644, Note_on_c, 0, 72, 77
1, 6676, Note_off_c, 0, 67, 58
1, 6683, Note_off_c, 0, 74, 62
1, 6714, Note_off_c, 0, 72, 58
1, 6770, Note_on_c, 0, 71, 68
1, 6796, Note_off_c, 0, 71, 69
1, 6890, Note_on_c, 0, 67, 57
1, 6904, Note_on_c, 0, 71, 48
1, 6924, Note_off_c, 0, 67, 62
1, 6930, Note_off_c, 0, 71, 58
1, 7028, Note_on_c, 0, 64, 65
1, 7089, Note_off_c, 0, 64, 63
1, 7140, Note_on_c, 0, 86, 80
1, 7190, Note_off_c, 0, 86, 66
1, 7265, Note_on_c, 0, 79, 84
1, 7269, Note_on_c, 0, 72, 65
1, 7299, Note_off_c, 0, 72, 61
1, 7301, Note_off_c, 0, 79, 63
1, 7389, Note_on_c, 0, 81, 81
1, 7392, Note_on_c, 0, 62, 71
1, 7414, Note_off_c, 0, 81, 64
1, 7425, Note_on_c, 0, 79, 73
1, 7425, Control_c, 0, 64, 76
1, 7440, Control_c, 0, 64, 90
1, 7455, Control_c, 0, 64, 92
1, 7457, Note_off_c, 0, 79, 54
1, 7463, Note_off_c, 0, 62, 53
1, 7475, Note_on_c, 0, 81, 78
1, 7477, Control_c, 0, 64, 92
1, 7522, Control_c, 0, 64, 90
1, 7524, Note_off_c, 0, 81, 60
1, 7537, Control_c, 0, 64, 84
1, 7538, Note_on_c, 0, 79, 67
1, 7551, Control_c, 0, 64, 73
1, 7566, Control_c, 0, 64, 46
1, 7581, Control_c, 0, 64, 0
1, 7616, Note_on_c, 0, 78, 80
1, 7621, Note_off_c, 0, 79, 62
1, 7631, Note_on_c, 0, 71, 64
1, 7633, Note_off_c, 0, 78, 72
1, 7663, Note_off_c, 0, 71, 63
1, 7769, Note_on_c, 0, 60, 62
1, 7805, Note_off_c, 0, 60, 64
1, 7894, Note_on_c, 0, 79, 67
1, 7923, Note_off_c, 0, 79, 61
1, 8005, Note_on_c, 0, 69, 56
1, 8014, Note_on_c, 0, 76, 63
1, 8037, Note_off_c, 0, 69, 65
1, 8042, Note_off_c, 0, 76, 65
1, 8131, Note_on_c, 0, 78, 70
1, 8146, Note_on_c, 0, 59, 56
1, 8155, Note_off_c, 0, 78, 70
1, 8170, Note_on_c, 0, 76, 67
1, 8188, Note_off_c, 0, 59, 57
1, 8190, Note_off_c, 0, 76, 65
1, 8208, Note_on_c, 0, 78, 81
1, 8271, Note_off_c, 0, 78, 62
1, 8273, Note_on_c, 0, 76, 74
1, 8336, Note_off_c, 0, 76, 61
1, 8347, Note_on_c, 0, 74, 76
1, 8356, Note_on_c, 0, 67, 52
1, 8370, Note_off_c, 0, 74, 72
1, 8383, Note_off_c, 0, 67, 59
1, 8505, Note_on_c, 0, 64, 59
1, 8541, Note_off_c, 0, 64, 64
1, 8630, Note_on_c, 0, 86, 44
1, 8656, Note_off_c, 0, 86, 58
1, 8738, Note_on_c, 0, 72, 58
1, 8748, Note_on_c, 0, 79, 65
1, 8769, Note_off_c, 0, 72, 66
1, 8776, Note_off_c, 0, 79, 65
1, 8861, Note_on_c, 0, 81, 64
1, 8870, Note_on_c, 0, 79, 67
1, 8882, Note_on_c, 0, 62, 51
1, 8906, Note_off_c, 0, 81, 57
1, 8920, Note_off_c, 0, 62, 61
1, 8972, Note_off_c, 0, 79, 58
1, 8998, Note_on_c, 0, 78, 68
1, 9025, Note_off_c, 0, 78, 64
1, 9118, Note_on_c, 0, 78, 75
1, 9123, Note_on_c, 0, 71, 51
1, 9142, Note_off_c, 0, 78, 66
1, 9155, Note_off_c, 0, 71, 65
1, 9228, Note_on_c, 0, 79, 74
1, 9244, Note_on_c, 0, 60, 59
1, 9252, Note_on_c, 0, 78, 78
1, 9282, Note_off_c, 0, 60, 63
1, 9294, Note_off_c, 0, 79, 61
1, 9359, Note_off_c, 0, 78, 60
1, 9369, Note_on_c, 0, 76, 74
1, 9404, Note_off_c, 0, 76, 60
1, 9486, Note_on_c, 0, 76, 85
1, 9493, Note_on_c, 0, 69, 59
1, 9523, Note_off_c, 0, 69, 66
1, 9532, Note_off_c, 0, 76, 63
1, 9604, Note_on_c, 0, 78, 76
1, 9615, Note_on_c, 0, 59, 67
1, 9621, Note_on_c, 0, 76, 90
1, 9660, Note_off_c, 0, 78, 61
1, 9669, Note_off_c, 0, 59, 55
1, 9720, Note_off_c, 0, 76, 58
1, 9741, Note_on_c, 0, 74, 86
1, 9784, Note_off_c, 0, 74, 65
1, 9864, Note_on_c, 0, 74, 94
1, 9868, Note_on_c, 0, 67, 58
1, 9900, Note_off_c, 0, 67, 64
1, 9914, Note_off_c, 0, 74, 64
1, 9977, Note_on_c, 0, 76, 80
1, 9986, Note_on_c, 0, 57, 66
1, 10006, Note_on_c, 0, 74, 79
1, 10045, Note_off_c, 0, 76, 61
1, 10059, Note_off_c, 0, 57, 53
1, 10110, Note_off_c, 0, 74, 61
1, 10125, Note_on_c, 0, 72, 76
1, 10151, Note_off_c, 0, 72, 63
1, 10221, Note_on_c, 0, 66, 69
1, 10233, Note_on_c, 0, 72, 81
1, 10245, Note_off_c, 0, 66, 66
1, 10283, Note_off_c, 0, 72, 61
1, 10355, Note_on_c, 0, 55, 72
1, 10356, Note_on_c, 0, 71, 86
1, 10360, Note_on_c, 0, 67, 77
1, 10398, Note_off_c, 0, 67, 60
1, 10402, Note_off_c, 0, 71, 64
1, 10412, Note_off_c, 0, 55, 60
1, 10482, Note_on_c, 0, 72, 80
1, 10492, Note_on_c, 0, 69, 74
1, 10523, Note_off_c, 0, 69, 61
1, 10538, Note_off_c, 0, 72, 64
1, 10602, Note_on_c, 0, 71, 77
1, 10602, Note_on_c, 0, 74, 80
1, 10604, Note_on_c, 0, 47, 70
1, 10642, Note_off_c, 0, 47, 65
1, 10654, Note_off_c, 0, 71, 59
1, 10657, Note_off_c, 0, 74, 63
1, 10727, Note_on_c, 0, 72, 80
1, 10732, Note_on_c, 0, 69, 77
1, 10733, Note_on_c, 0, 48, 77
1, 10773, Note_off_c, 0, 48, 60
1, 10775, Note_off_c, 0, 69, 61
1, 10787, Note_off_c, 0, 72, 62
1, 10850, Note_on_c, 0, 71, 81
1, 10853, Note_on_c, 0, 67, 73
1, 10877, Note_off_c, 0, 67, 67
1, 10892, Note_off_c, 0, 71, 65
1, 10966, Note_on_c, 0, 50, 66
1, 10973, Note_on_c, 0, 66, 74
1, 10973, Note_on_c, 0, 69, 76
1, 11000, Note_off_c, 0, 50, 66
1, 11005, Note_off_c, 0, 66, 59
1, 11016, Note_off_c, 0, 69, 62
1, 11102, Note_on_c, 0, 55, 64
1, 11105, Note_on_c, 0, 71, 74
1, 11120, Note_on_c, 0, 67, 55
1, 11136, Note_off_c, 0, 55, 64
1, 11226, Note_off_c, 0, 71, 62
1, 11234, Note_on_c, 0, 50, 66
1, 11266, Note_off_c, 0, 50, 66
1, 11369, Note_on_c, 0, 43, 55
1, 11376, Note_on_c, 0, 79, 77
1, 11401, Note_off_c, 0, 43, 64
1, 11430, Control_c, 0, 64, 60
1, 11444, Control_c, 0, 64, 78
1, 11449, Note_off_c, 0, 79, 60
1, 11459, Control_c, 0, 64, 92
1, 11474, Control_c, 0, 64, 105
1, 11489, Control_c, 0, 64, 115
1, 11490, Note_off_c, 0, 67, 55
1, 11496, Note_on_c, 0, 38, 72
1, 11504, Control_c, 0, 64, 127
1, 11529, Note_off_c, 0, 38, 63
1, 11607, Control_c, 0, 64, 93
1, 11622, Control_c, 0, 64, 72
1, 11624, Note_on_c, 0, 69, 74
1, 11627, Note_on_c, 0, 66, 65
1, 11638, Control_c, 0, 64, 0
1, 11658, Note_off_c, 0, 66, 64
1, 11678, Note_off_c, 0, 69, 53
1, 11745, Note_on_c, 0, 72, 76
1, 11795, Note_off_c, 0, 72, 61
1, 11864, Note_on_c, 0, 55, 69
1, 11868, Note_on_c, 0, 71, 82
1, 11875, Note_on_c, 0, 67, 69
1, 11896, Note_off_c, 0, 55, 66
1, 11927, Note_off_c, 0, 71, 63
1, 11993, Note_on_c, 0, 50, 74
1, 12024, Note_off_c, 0, 50, 67
1, 12109, Note_on_c, 0, 43, 64
1, 12112, Note_on_c, 0, 79, 90
1, 12155, Note_off_c, 0, 43, 62
1, 12192, Control_c, 0, 64, 72
1, 12201, Note_off_c, 0, 79, 60
1, 12207, Control_c, 0, 64, 86
1, 12221, Control_c, 0, 64, 102
1, 12230, Note_off_c, 0, 67, 61
1, 12236, Control_c, 0, 64, 114
1, 12237, Note_on_c, 0, 38, 82
1, 12251, Control_c, 0, 64, 127
1, 12274, Note_off_c, 0, 38, 63
1, 12355, Control_c, 0, 64, 96
1, 12367, Note_on_c, 0, 69, 83
1, 12370, Control_c, 0, 64, 71
1, 12370, Note_on_c, 0, 66, 68
1, 12385, Control_c, 0, 64, 0
1, 12399, Note_off_c, 0, 66, 65
1, 12427, Note_off_c, 0, 69, 61
1, 12483, Note_on_c, 0, 72, 86
1, 12537, Note_off_c, 0, 72, 65
1, 12611, Note_on_c, 0, 71, 85
1, 12612, Note_on_c, 0, 55, 71
1, 12620, Note_on_c, 0, 67, 70
1, 12645, Note_off_c, 0, 55, 66
1, 12665, Note_off_c, 0, 71, 64
1, 12739, Note_on_c, 0, 50, 64
1, 12766, Note_off_c, 0, 50, 67
1, 12859, Note_on_c, 0, 43, 57
1, 12860, Note_on_c, 0, 79, 77
1, 12890, Note_off_c, 0, 43, 64
1, 12926, Control_c, 0, 64, 57
1, 12941, Control_c, 0, 64, 74
1, 12949, Note_off_c, 0, 79, 55
1, 12956, Control_c, 0, 64, 86
1, 12970, Control_c, 0, 64, 97
1, 12976, Note_off_c, 0, 67, 58
1, 12985, Control_c, 0, 64, 102
1, 12988, Note_on_c, 0, 38, 74
1, 13000, Control_c, 0, 64, 106
1, 13014, Control_c, 0, 64, 110
1, 13019, Note_off_c, 0, 38, 64
1, 13029, Control_c, 0, 64, 111
1, 13059, Control_c, 0, 64, 110
1, 13074, Control_c, 0, 64, 96
1, 13088, Control_c, 0, 64, 77
1, 13103, Control_c, 0, 64, 54
1, 13118, Note_on_c, 0, 66, 56
1, 13118, Note_on_c, 0, 69, 65
1, 13118, Control_c, 0, 64, 0
1, 13147, Note_off_c, 0, 66, 64
1, 13151, Note_off_c, 0, 69, 61
1, 13241, Note_on_c, 0, 72, 64
1, 13272, Note_off_c, 0, 72, 62
1, 13353, Note_on_c, 0, 55, 70
1, 13360, Note_on_c, 0, 71, 75
1, 13369, Note_on_c, 0, 67, 67
1, 13393, Note_off_c, 0, 55, 65
1, 13398, Note_off_c, 0, 67, 63
1, 13399, Note_off_c, 0, 71, 62
1, 13483, Note_on_c, 0, 72, 76
1, 13493, Note_on_c, 0, 69, 72
1, 13521, Note_off_c, 0, 69, 64
1, 13539, Note_off_c, 0, 72, 62
1, 13603, Note_on_c, 0, 71, 76
1, 13604, Note_on_c, 0, 47, 69
1, 13604, Note_on_c, 0, 74, 82
1, 13638, Note_off_c, 0, 47, 66
1, 13650, Note_off_c, 0, 71, 62
1, 13657, Note_off_c, 0, 74, 62
1, 13723, Note_on_c, 0, 48, 67
1, 13725, Note_on_c, 0, 72, 76
1, 13739, Note_on_c, 0, 69, 67
1, 13756, Note_off_c, 0, 48, 62
1, 13766, Note_off_c, 0, 69, 67
1, 13782, Note_off_c, 0, 72, 63
1, 13842, Note_on_c, 0, 71, 75
1, 13848, Note_on_c, 0, 67, 66
1, 13875, Note_off_c, 0, 67, 67
1, 13878, Note_off_c, 0, 71, 57
1, 13952, Note_on_c, 0, 50, 60
1, 13961, Note_on_c, 0, 69, 53
1, 13967, Note_on_c, 0, 66, 55
1, 13983, Note_off_c, 0, 50, 67
1, 13994, Note_off_c, 0, 66, 65
1, 13995, Note_off_c, 0, 69, 63
1, 14090, Note_on_c, 0, 55, 63
1, 14097, Note_on_c, 0, 71, 66
1, 14113, Note_on_c, 0, 67, 48
1, 14123, Note_off_c, 0, 55, 64
1, 14146, Note_off_c, 0, 71, 63
1, 14222, Note_on_c, 0, 50, 53
1, 14252, Note_off_c, 0, 50, 63
1, 14354, Note_on_c, 0, 79, 68
1, 14357, Note_on_c, 0, 43, 39
1, 14388, Note_off_c, 0, 43, 49
1, 14409, Control_c, 0, 64, 40
1, 14424, Control_c, 0, 64, 69
1, 14433, Note_off_c, 0, 79, 60
1, 14439, Control_c, 0, 64, 81
1, 14454, Control_c, 0, 64, 95
1, 14465, Note_off_c, 0, 67, 55
1, 14469, Control_c, 0, 64, 103
1, 14478, Note_on_c, 0, 38, 68
1, 14483, Control_c, 0, 64, 109
1, 14498, Control_c, 0, 64, 122
1, 14507, Note_off_c, 0, 38, 65
1, 14513, Control_c, 0, 64, 127
1, 14558, Control_c, 0, 64, 116
1, 14573, Control_c, 0, 64, 89
1, 14588, Control_c, 0, 64, 69
1, 14603, Control_c, 0, 64, 0
1, 14609, Note_on_c, 0, 69, 67
1, 14611, Note_on_c, 0, 66, 59
1, 14643, Note_off_c, 0, 66, 64
1, 14649, Note_off_c, 0, 69, 56
1, 14725, Note_on_c, 0, 72, 70
1, 14772, Note_off_c, 0, 72, 61
1, 14835, Note_on_c, 0, 55, 76
1, 14843, Note_on_c, 0, 71, 81
1, 14846, Note_on_c, 0, 67, 73
1, 14870, Note_off_c, 0, 67, 66
1, 14870, Control_c, 0, 64, 70
1, 14871, Note_off_c, 0, 55, 64
1, 14871, Note_off_c, 0, 71, 63
1, 14884, Control_c, 0, 64, 104
1, 14914, Control_c, 0, 64, 89
1, 14929, Control_c, 0, 64, 80
1, 14944, Control_c, 0, 64, 73
1, 14955, Note_on_c, 0, 50, 60
1, 14966, Control_c, 0, 64, 65
1, 14981, Control_c, 0, 64, 0
1, 14993, Note_off_c, 0, 50, 68
1, 15076, Note_on_c, 0, 43, 69
1, 15083, Note_on_c, 0, 83, 86
1, 15114, Control_c, 0, 64, 94
1, 15115, Note_off_c, 0, 43, 65
1, 15129, Control_c, 0, 64, 127
1, 15130, Note_off_c, 0, 83, 65
1, 15206, Note_on_c, 0, 38, 82
1, 15246, Note_off_c, 0, 38, 62
1, 15262, Control_c, 0, 64, 122
1, 15277, Control_c, 0, 64, 85
1, 15291, Control_c, 0, 64, 65
1, 15306, Control_c, 0, 64, 0
1, 15336, Note_on_c, 0, 69, 81
1, 15349, Note_on_c, 0, 66, 60
1, 15372, Note_off_c, 0, 66, 65
1, 15384, Note_off_c, 0, 69, 62
1, 15452, Note_on_c, 0, 72, 86
1, 15501, Note_off_c, 0, 72, 63
1, 15568, Note_on_c, 0, 55, 79
1, 15574, Note_on_c, 0, 71, 93
1, 15575, Note_on_c, 0, 67, 84
1, 15598, Note_off_c, 0, 67, 65
1, 15610, Note_off_c, 0, 71, 66
1, 15612, Note_off_c, 0, 55, 64
1, 15617, Control_c, 0, 64, 81
1, 15634, Control_c, 0, 64, 127
1, 15689, Note_on_c, 0, 50, 70
1, 15715, Control_c, 0, 64, 103
1, 15726, Note_off_c, 0, 50, 66
1, 15729, Control_c, 0, 64, 67
1, 15744, Control_c, 0, 64, 0
1, 15810, Note_on_c, 0, 86, 94
1, 15815, Note_on_c, 0, 43, 72
1, 15834, Control_c, 0, 64, 62
1, 15849, Control_c, 0, 64, 104
1, 15849, Note_off_c, 0, 86, 69
1, 15858, Note_off_c, 0, 43, 63
1, 15863, Control_c, 0, 64, 127
1, 15944, Note_on_c, 0, 38, 84
1, 15990, Note_off_c, 0, 38, 64
1, 16040, Control_c, 0, 64, 95
1, 16055, Control_c, 0, 64, 69
1, 16070, Control_c, 0, 64, 0
1, 16073, Note_on_c, 0, 69, 80
1, 16075, Note_on_c, 0, 66, 67
1, 16102, Note_off_c, 0, 66, 66
1, 16120, Note_off_c, 0, 69, 61
1, 16191, Note_on_c, 0, 72, 77
1, 16233, Note_off_c, 0, 72, 63
1, 16308, Note_on_c, 0, 55, 78
1, 16314, Note_on_c, 0, 71, 81
1, 16317, Note_on_c, 0, 67, 79
1, 16354, Note_off_c, 0, 67, 62
1, 16355, Note_off_c, 0, 71, 65
1, 16360, Note_off_c, 0, 55, 63
1, 16435, Note_on_c, 0, 72, 79
1, 16445, Note_on_c, 0, 69, 68
1, 16477, Note_off_c, 0, 69, 67
1, 16493, Note_off_c, 0, 72, 63
1, 16567, Note_on_c, 0, 47, 77
1, 16567, Note_on_c, 0, 71, 80
1, 16568, Note_on_c, 0, 74, 82
1, 16609, Note_off_c, 0, 47, 64
1, 16612, Note_off_c, 0, 74, 64
1, 16615, Note_off_c, 0, 71, 61
1, 16687, Note_on_c, 0, 48, 83
1, 16689, Note_on_c, 0, 72, 85
1, 16692, Note_on_c, 0, 69, 79
1, 16734, Note_off_c, 0, 69, 62
1, 16736, Note_off_c, 0, 48, 60
1, 16749, Note_off_c, 0, 72, 60
1, 16809, Note_on_c, 0, 71, 78
1, 16824, Note_on_c, 0, 67, 67
1, 16851, Note_off_c, 0, 67, 66
1, 16853, Note_off_c, 0, 71, 64
1, 16937, Note_on_c, 0, 66, 69
1, 16940, Note_on_c, 0, 69, 67
1, 16941, Note_on_c, 0, 50, 62
1, 16961, Note_off_c, 0, 66, 67
1, 16974, Note_off_c, 0, 50, 65
1, 16978, Note_off_c, 0, 69, 57
1, 17063, Note_on_c, 0, 74, 76
1, 17068, Note_on_c, 0, 71, 63
1, 17071, Note_on_c, 0, 47, 59
1, 17097, Note_off_c, 0, 71, 66
1, 17098, Note_off_c, 0, 47, 65
1, 17105, Note_off_c, 0, 74, 63
1, 17190, Note_on_c, 0, 72, 66
1, 17195, Note_on_c, 0, 69, 58
1, 17231, Note_off_c, 0, 69, 65
1, 17231, Note_off_c, 0, 72, 59
1, 17330, Note_on_c, 0, 52, 58
1, 17338, Note_on_c, 0, 71, 52
1, 17339, Note_on_c, 0, 67, 50
1, 17365, Note_off_c, 0, 71, 58
1, 17368, Note_off_c, 0, 52, 61
1, 17371, Note_off_c, 0, 67, 62
1, 17463, Note_on_c, 0, 48, 58
1, 17463, Note_on_c, 0, 72, 64
1, 17464, Note_on_c, 0, 69, 65
1, 17491, Note_off_c, 0, 48, 63
1, 17492, Note_off_c, 0, 69, 64
1, 17498, Note_off_c, 0, 72, 60
1, 17582, Note_on_c, 0, 71, 70
1, 17603, Note_on_c, 0, 67, 53
1, 17612, Note_off_c, 0, 71, 62
1, 17627, Note_off_c, 0, 67, 58
1, 17702, Note_on_c, 0, 69, 73
1, 17703, Note_on_c, 0, 66, 70
1, 17705, Note_on_c, 0, 50, 68
1, 17728, Note_off_c, 0, 66, 68
1, 17745, Note_off_c, 0, 50, 65
1, 17749, Note_off_c, 0, 69, 60
1, 17818, Note_on_c, 0, 74, 90
1, 17824, Note_on_c, 0, 71, 77
1, 17833, Note_on_c, 0, 47, 70
1, 17863, Note_off_c, 0, 47, 65
1, 17863, Note_off_c, 0, 71, 61
1, 17868, Note_off_c, 0, 74, 66
1, 17938, Note_on_c, 0, 72, 84
1, 17941, Note_on_c, 0, 69, 79
1, 17974, Note_off_c, 0, 69, 64
1, 17989, Note_off_c, 0, 72, 64
1, 18069, Note_on_c, 0, 71, 88
1, 18077, Note_on_c, 0, 67, 80
1, 18078, Note_on_c, 0, 52, 72
1, 18104, Note_off_c, 0, 67, 63
1, 18112, Note_off_c, 0, 71, 64
1, 18119, Note_off_c, 0, 52, 61
1, 18201, Note_on_c, 0, 72, 78
1, 18204, Note_on_c, 0, 69, 73
1, 18209, Note_on_c, 0, 48, 65
1, 18228, Note_off_c, 0, 69, 69
1, 18240, Note_off_c, 0, 48, 63
1, 18240, Note_off_c, 0, 72, 63
1, 18322, Note_on_c, 0, 71, 75
1, 18335, Note_on_c, 0, 67, 60
1, 18355, Note_off_c, 0, 71, 58
1, 18357, Note_off_c, 0, 67, 62
1, 18460, Note_on_c, 0, 50, 55
1, 18463, Note_on_c, 0, 66, 52
1, 18469, Note_on_c, 0, 69, 48
1, 18488, Note_off_c, 0, 66, 59
1, 18496, Note_off_c, 0, 69, 58
1, 18497, Note_off_c, 0, 50, 66
1, 18579, Note_on_c, 0, 74, 63
1, 18584, Note_on_c, 0, 71, 53
1, 18585, Note_on_c, 0, 47, 59
1, 18608, Note_off_c, 0, 71, 61
1, 18612, Note_off_c, 0, 74, 65
1, 18614, Note_off_c, 0, 47, 66
1, 18686, Note_on_c, 0, 72, 71
1, 18718, Note_on_c, 0, 69, 46
1, 18739, Note_off_c, 0, 72, 56
1, 18745, Note_off_c, 0, 69, 57
1, 18812, Note_on_c, 0, 71, 77
1, 18817, Note_on_c, 0, 52, 67
1, 18824, Note_on_c, 0, 67, 68
1, 18839, Note_off_c, 0, 71, 65
1, 18853, Note_off_c, 0, 67, 63
1, 18856, Note_off_c, 0, 52, 64
1, 18934, Note_on_c, 0, 48, 72
1, 18937, Note_on_c, 0, 71, 53
1, 18953, Note_on_c, 0, 69, 76
1, 18958, Note_off_c, 0, 71, 63
1, 18967, Note_off_c, 0, 48, 66
1, 18991, Note_on_c, 0, 71, 72
1, 18991, Note_off_c, 0, 69, 62
1, 19035, Note_off_c, 0, 71, 65
1, 19038, Note_on_c, 0, 69, 69
1, 19075, Note_off_c, 0, 69, 65
1, 19093, Note_on_c, 0, 67, 66
1, 19120, Note_off_c, 0, 67, 66
1, 19175, Note_on_c, 0, 50, 60
1, 19178, Note_on_c, 0, 66, 80
1, 19205, Note_off_c, 0, 50, 67
1, 19206, Note_off_c, 0, 66, 63
1, 19311, Note_on_c, 0, 67, 83
1, 19317, Note_on_c, 0, 43, 65
1, 19354, Note_off_c, 0, 67, 60
1, 19357, Note_off_c, 0, 43, 62
1, 19437, Note_on_c, 0, 62, 82
1, 19474, Note_off_c, 0, 62, 63
1, 19569, Note_on_c, 0, 59, 86
1, 19596, Note_off_c, 0, 59, 65
1, 19679, Note_on_c, 0, 55, 70
1, 19712, Note_off_c, 0, 55, 63
1, 19792, Note_on_c, 0, 50, 69
1, 19824, Note_off_c, 0, 50, 67
1, 19917, Note_on_c, 0, 47, 54
1, 19945, Note_off_c, 0, 47, 62
1, 20052, Control_c, 0, 64, 41
1, 20067, Control_c, 0, 64, 80
1, 20069, Note_on_c, 0, 43, 55
1, 20081, Control_c, 0, 64, 95
1, 20096, Control_c, 0, 64, 108
1, 20097, Note_off_c, 0, 43, 61
1, 20111, Control_c, 0, 64, 113
1, 20126, Control_c, 0, 64, 127
1, 20384, Control_c, 0, 64, 113
1, 20399, Control_c, 0, 64, 98
1, 20413, Control_c, 0, 64, 82
1, 20429, Control_c, 0, 64, 66
1, 20444, Control_c, 0, 64, 0
1, 20624, Note_on_c, 0, 76, 72
1, 20627, Note_on_c, 0, 79, 86
1, 20660, Note_off_c, 0, 76, 60
1, 20672, Note_off_c, 0, 79, 62
1, 20740, Note_on_c, 0, 74, 81
1, 20742, Note_on_c, 0, 77, 96
1, 20793, Note_off_c, 0, 74, 63
1, 20794, Note_off_c, 0, 77, 64
1, 20866, Note_on_c, 0, 76, 95
1, 20870, Note_on_c, 0, 72, 78
1, 20891, Note_off_c, 0, 72, 68
1, 20907, Note_off_c, 0, 76, 65
1, 20995, Note_on_c, 0, 72, 71
1, 21010, Note_on_c, 0, 76, 74
1, 21031, Note_off_c, 0, 72, 61
1, 21032, Note_off_c, 0, 76, 69
1, 21124, Note_on_c, 0, 74, 78
1, 21128, Note_on_c, 0, 67, 68
1, 21152, Note_off_c, 0, 67, 67
1, 21161, Note_off_c, 0, 74, 61
1, 21246, Note_on_c, 0, 64, 73
1, 21249, Note_on_c, 0, 72, 80
1, 21263, Note_off_c, 0, 64, 68
1, 21276, Note_off_c, 0, 72, 63
1, 21360, Note_on_c, 0, 64, 63
1, 21369, Note_on_c, 0, 72, 74
1, 21390, Note_off_c, 0, 64, 66
1, 21394, Note_off_c, 0, 72, 65
1, 21486, Note_on_c, 0, 67, 69
1, 21486, Note_on_c, 0, 74, 84
1, 21511, Note_off_c, 0, 67, 67
1, 21529, Note_off_c, 0, 74, 64
1, 21593, Control_c, 0, 64, 65
1, 21595, Note_on_c, 0, 72, 85
1, 21601, Note_on_c, 0, 77, 93
1, 21608, Control_c, 0, 64, 103
1, 21623, Control_c, 0, 64, 127
1, 21639, Note_off_c, 0, 72, 66
1, 21641, Note_off_c, 0, 77, 67
1, 21659, Note_on_c, 0, 76, 72
1, 21679, Note_off_c, 0, 76, 62
1, 21710, Note_on_c, 0, 77, 78
1, 21741, Note_off_c, 0, 77, 63
1, 21749, Note_on_c, 0, 76, 80
1, 21778, Control_c, 0, 64, 100
1, 21787, Note_off_c, 0, 76, 56
1, 21793, Control_c, 0, 64, 69
1, 21795, Note_on_c, 0, 77, 55
1, 21808, Control_c, 0, 64, 0
1, 21822, Note_off_c, 0, 77, 57
1, 21825, Note_on_c, 0, 76, 69
1, 21849, Note_on_c, 0, 67, 69
1, 21860, Note_off_c, 0, 76, 63
1, 21861, Note_on_c, 0, 74, 83
1, 21874, Note_off_c, 0, 67, 68
1, 21898, Note_off_c, 0, 74, 65
1, 21977, Note_on_c, 0, 67, 67
1, 21995, Note_on_c, 0, 74, 83
1, 22004, Note_off_c, 0, 67, 67
1, 22019, Note_off_c, 0, 74, 69
1, 22031, Control_c, 0, 67, 9
1, 22046, Control_c, 0, 67, 18
1, 22061, Control_c, 0, 67, 32
1, 22076, Control_c, 0, 67, 52
1, 22091, Control_c, 0, 67, 74
1, 22106, Control_c, 0, 67, 100
1, 22110, Note_on_c, 0, 76, 63
1, 22121, Control_c, 0, 67, 121
1, 22122, Note_on_c, 0, 79, 59
1, 22135, Control_c, 0, 67, 127
1, 22138, Note_off_c, 0, 76, 64
1, 22141, Note_off_c, 0, 79, 62
1, 22234, Note_on_c, 0, 77, 62
1, 22239, Note_on_c, 0, 74, 58
1, 22258, Note_off_c, 0, 77, 65
1, 22260, Note_off_c, 0, 74, 65
1, 22361, Note_on_c, 0, 72, 53
1, 22362, Note_on_c, 0, 76, 69
1, 22381, Note_off_c, 0, 72, 62
1, 22388, Note_off_c, 0, 76, 67
1, 22475, Note_on_c, 0, 72, 56
1, 22486, Note_on_c, 0, 76, 59
1, 22511, Note_off_c, 0, 72, 62
1, 22517, Note_off_c, 0, 76, 64
1, 22615, Note_on_c, 0, 74, 51
1, 22618, Note_on_c, 0, 67, 39
1, 22639, Note_off_c, 0, 74, 61
1, 22648, Note_off_c, 0, 67, 51
1, 22735, Note_on_c, 0, 64, 51
1, 22738, Note_on_c, 0, 72, 58
1, 22759, Note_off_c, 0, 72, 65
1, 22761, Note_off_c, 0, 64, 59
1, 22852, Note_on_c, 0, 64, 48
1, 22860, Note_on_c, 0, 72, 43
1, 22877, Note_off_c, 0, 64, 61
1, 22887, Note_off_c, 0, 72, 58
1, 22987, Note_on_c, 0, 74, 55
1, 23001, Note_on_c, 0, 67, 22
1, 23008, Note_off_c, 0, 74, 63
1, 23045, Note_off_c, 0, 67, 29
1, 23102, Note_on_c, 0, 72, 52
1, 23103, Note_on_c, 0, 77, 55
1, 23124, Note_off_c, 0, 77, 63
1, 23152, Note_on_c, 0, 76, 52
1, 23175, Note_off_c, 0, 76, 59
1, 23215, Note_on_c, 0, 77, 38
1, 23216, Note_off_c, 0, 77, 127
1, 23268, Note_on_c, 0, 76, 35
1, 23273, Note_off_c, 0, 72, 60
1, 23280, Note_on_c, 0, 77, 57
1, 23305, Note_off_c, 0, 77, 55
1, 23319, Note_off_c, 0, 76, 0
1, 23319, Note_on_c, 0, 76, 50
1, 23356, Note_off_c, 0, 76, 64
1, 23360, Note_on_c, 0, 67, 50
1, 23361, Note_on_c, 0, 74, 73
1, 23384, Note_off_c, 0, 67, 59
1, 23387, Note_off_c, 0, 74, 65
1, 23410, Control_c, 0, 67, 107
1, 23424, Control_c, 0, 67, 81
1, 23439, Control_c, 0, 67, 53
1, 23454, Control_c, 0, 67, 28
1, 23469, Control_c, 0, 67, 0
1, 23483, Note_on_c, 0, 67, 61
1, 23494, Note_on_c, 0, 74, 76
1, 23512, Note_off_c, 0, 67, 64
1, 23519, Note_off_c, 0, 74, 67
1, 23627, Note_on_c, 0, 79, 76
1, 23647, Note_off_c, 0, 79, 69
1, 23745, Note_on_c, 0, 72, 82
1, 23755, Note_on_c, 0, 76, 79
1, 23766, Note_off_c, 0, 72, 67
1, 23788, Note_off_c, 0, 76, 62
1, 23906, Note_on_c, 0, 71, 84
1, 23915, Control_c, 0, 64, 54
1, 23928, Note_on_c, 0, 77, 49
1, 23929, Control_c, 0, 64, 72
1, 23951, Control_c, 0, 64, 81
1, 23960, Note_on_c, 0, 76, 66
1, 23961, Note_off_c, 0, 77, 58
1, 23966, Control_c, 0, 64, 86
1, 23981, Control_c, 0, 64, 88
1, 23993, Note_off_c, 0, 76, 63
1, 23996, Control_c, 0, 64, 89
1, 24008, Note_off_c, 0, 71, 62
1, 24010, Control_c, 0, 64, 90
1, 24019, Note_on_c, 0, 77, 70
1, 24036, Note_off_c, 0, 77, 67
1, 24064, Note_on_c, 0, 76, 64
1, 24070, Control_c, 0, 64, 89
1, 24085, Control_c, 0, 64, 81
1, 24094, Note_on_c, 0, 77, 72
1, 24100, Control_c, 0, 64, 68
1, 24115, Control_c, 0, 64, 0
1, 24119, Note_off_c, 0, 76, 0
1, 24121, Note_off_c, 0, 77, 59
1, 24133, Note_on_c, 0, 76, 54
1, 24156, Note_on_c, 0, 71, 69
1, 24156, Note_on_c, 0, 74, 77
1, 24161, Note_off_c, 0, 76, 64
1, 24179, Note_off_c, 0, 74, 72
1, 24180, Note_off_c, 0, 71, 70
1, 24306, Note_on_c, 0, 69, 81
1, 24341, Note_off_c, 0, 69, 62
1, 24436, Note_on_c, 0, 79, 62
1, 24463, Note_off_c, 0, 79, 66
1, 24547, Note_on_c, 0, 69, 72
1, 24547, Note_on_c, 0, 72, 73
1, 24570, Note_off_c, 0, 69, 70
1, 24576, Note_off_c, 0, 72, 62
1, 24675, Note_on_c, 0, 74, 63
1, 24678, Note_on_c, 0, 67, 64
1, 24678, Control_c, 0, 64, 57
1, 24701, Control_c, 0, 64, 82
1, 24702, Note_off_c, 0, 74, 65
1, 24708, Note_off_c, 0, 67, 64
1, 24716, Control_c, 0, 64, 95
1, 24717, Note_on_c, 0, 72, 66
1, 24731, Control_c, 0, 64, 96
1, 24738, Note_off_c, 0, 72, 65
1, 24762, Note_on_c, 0, 74, 73
1, 24775, Control_c, 0, 64, 95
1, 24782, Note_off_c, 0, 74, 63
1, 24790, Control_c, 0, 64, 92
1, 24791, Note_on_c, 0, 72, 78
1, 24804, Control_c, 0, 64, 86
1, 24818, Control_c, 0, 64, 72
1, 24822, Note_off_c, 0, 72, 63
1, 24833, Control_c, 0, 64, 42
1, 24842, Note_on_c, 0, 74, 66
1, 24848, Control_c, 0, 64, 0
1, 24863, Note_off_c, 0, 74, 61
1, 24878, Note_on_c, 0, 72, 71
1, 24911, Note_off_c, 0, 72, 64
1, 24911, Note_on_c, 0, 71, 76
1, 24920, Note_on_c, 0, 67, 65
1, 24932, Note_off_c, 0, 71, 71
1, 24946, Note_off_c, 0, 67, 65
1, 25072, Note_on_c, 0, 72, 61
1, 25101, Note_off_c, 0, 72, 64
1, 25179, Note_on_c, 0, 79, 63
1, 25206, Note_off_c, 0, 79, 63
1, 25312, Note_on_c, 0, 76, 66
1, 25313, Note_on_c, 0, 72, 52
1, 25337, Note_off_c, 0, 72, 63
1, 25339, Note_off_c, 0, 76, 66
1, 25428, Note_on_c, 0, 77, 65
1, 25454, Note_on_c, 0, 76, 65
1, 25458, Note_on_c, 0, 71, 66
1, 25495, Note_off_c, 0, 77, 52
1, 25513, Note_off_c, 0, 71, 56
1, 25571, Note_off_c, 0, 76, 59
1, 25580, Note_on_c, 0, 74, 65
1, 25609, Note_off_c, 0, 74, 67
1, 25692, Note_on_c, 0, 74, 76
1, 25707, Note_on_c, 0, 71, 59
1, 25732, Note_off_c, 0, 74, 63
1, 25737, Note_off_c, 0, 71, 65
1, 25811, Note_on_c, 0, 76, 77
1, 25819, Note_on_c, 0, 69, 75
1, 25824, Note_on_c, 0, 74, 86
1, 25866, Note_off_c, 0, 76, 57
1, 25876, Note_off_c, 0, 69, 58
1, 25940, Note_off_c, 0, 74, 64
1, 25945, Note_on_c, 0, 72, 77
1, 25981, Note_off_c, 0, 72, 64
1, 26064, Note_on_c, 0, 69, 68
1, 26067, Note_on_c, 0, 72, 81
1, 26092, Note_off_c, 0, 69, 65
1, 26103, Note_off_c, 0, 72, 62
1, 26186, Note_on_c, 0, 74, 75
1, 26204, Note_on_c, 0, 67, 74
1, 26207, Note_on_c, 0, 72, 76
1, 26244, Note_off_c, 0, 74, 59
1, 26274, Note_off_c, 0, 67, 55
1, 26281, Note_off_c, 0, 72, 53
1, 26327, Note_on_c, 0, 71, 67
1, 26352, Note_off_c, 0, 71, 70
1, 26465, Note_on_c, 0, 71, 48
1, 26473, Note_on_c, 0, 67, 44
1, 26491, Note_off_c, 0, 71, 59
1, 26500, Note_off_c, 0, 67, 57
1, 26575, Note_on_c, 0, 64, 82
1, 26646, Note_off_c, 0, 64, 65
1, 26714, Note_on_c, 0, 86, 59
1, 26737, Note_off_c, 0, 86, 63
1, 26815, Note_on_c, 0, 72, 65
1, 26846, Note_on_c, 0, 79, 55
1, 26852, Note_off_c, 0, 72, 58
1, 26866, Note_off_c, 0, 79, 61
1, 26946, Control_c, 0, 64, 55
1, 26949, Note_on_c, 0, 62, 80
1, 26950, Note_on_c, 0, 81, 79
1, 26961, Control_c, 0, 64, 74
1, 26973, Note_off_c, 0, 81, 66
1, 26976, Control_c, 0, 64, 75
1, 26985, Note_on_c, 0, 79, 60
1, 26990, Control_c, 0, 64, 71
1, 27005, Control_c, 0, 64, 63
1, 27015, Note_off_c, 0, 79, 64
1, 27020, Control_c, 0, 64, 41
1, 27030, Note_on_c, 0, 81, 76
1, 27035, Control_c, 0, 64, 0
1, 27074, Note_off_c, 0, 81, 62
1, 27075, Note_off_c, 0, 62, 61
1, 27096, Note_on_c, 0, 79, 49
1, 27138, Note_off_c, 0, 79, 0
1, 27138, Note_on_c, 0, 79, 31
1, 27179, Note_off_c, 0, 79, 64
1, 27185, Note_on_c, 0, 78, 65
1, 27188, Note_on_c, 0, 71, 66
1, 27203, Note_off_c, 0, 78, 67
1, 27215, Note_off_c, 0, 71, 65
1, 27326, Note_on_c, 0, 60, 75
1, 27400, Note_off_c, 0, 60, 62
1, 27447, Note_on_c, 0, 79, 69
1, 27473, Note_off_c, 0, 79, 65
1, 27560, Note_on_c, 0, 69, 67
1, 27568, Note_on_c, 0, 76, 62
1, 27590, Note_off_c, 0, 69, 62
1, 27593, Note_off_c, 0, 76, 64
1, 27692, Note_on_c, 0, 78, 61
1, 27704, Note_on_c, 0, 59, 66
1, 27710, Control_c, 0, 64, 59
1, 27710, Note_off_c, 0, 78, 63
1, 27725, Control_c, 0, 64, 73
1, 27733, Note_on_c, 0, 76, 61
1, 27740, Control_c, 0, 64, 74
1, 27754, Note_off_c, 0, 76, 62
1, 27754, Control_c, 0, 64, 72
1, 27762, Note_off_c, 0, 59, 51
1, 27763, Note_on_c, 0, 78, 85
1, 27769, Control_c, 0, 64, 67
1, 27784, Control_c, 0, 64, 60
1, 27799, Control_c, 0, 64, 17
1, 27813, Control_c, 0, 64, 0
1, 27817, Note_off_c, 0, 78, 56
1, 27823, Note_on_c, 0, 76, 67
1, 27849, Note_on_c, 0, 78, 46
1, 27878, Note_off_c, 0, 76, 0
1, 27880, Note_off_c, 0, 78, 58
1, 27896, Note_on_c, 0, 76, 42
1, 27918, Note_on_c, 0, 67, 47
1, 27919, Note_on_c, 0, 74, 77
1, 27921, Note_off_c, 0, 76, 60
1, 27945, Note_off_c, 0, 74, 68
1, 27953, Note_off_c, 0, 67, 52
1, 28079, Note_on_c, 0, 64, 55
1, 28112, Note_off_c, 0, 64, 66
1, 28184, Control_c, 0, 67, 9
1, 28187, Note_on_c, 0, 86, 54
1, 28199, Control_c, 0, 67, 11
1, 28213, Note_off_c, 0, 86, 61
1, 28213, Control_c, 0, 67, 13
1, 28228, Control_c, 0, 67, 17
1, 28243, Control_c, 0, 67, 20
1, 28258, Control_c, 0, 67, 21
1, 28273, Control_c, 0, 67, 20
1, 28287, Control_c, 0, 67, 17
1, 28302, Control_c, 0, 67, 15
1, 28317, Control_c, 0, 67, 12
1, 28321, Note_on_c, 0, 79, 62
1, 28324, Note_on_c, 0, 72, 44
1, 28331, Control_c, 0, 67, 9
1, 28346, Note_off_c, 0, 79, 56
1, 28346, Control_c, 0, 67, 0
1, 28353, Note_off_c, 0, 72, 56
1, 28443, Note_on_c, 0, 81, 60
1, 28455, Note_on_c, 0, 79, 53
1, 28470, Note_on_c, 0, 62, 42
1, 28491, Note_off_c, 0, 81, 53
1, 28507, Note_off_c, 0, 62, 54
1, 28556, Note_off_c, 0, 79, 59
1, 28582, Note_on_c, 0, 78, 53
1, 28605, Note_off_c, 0, 78, 62
1, 28693, Note_on_c, 0, 78, 60
1, 28712, Note_on_c, 0, 71, 38
1, 28722, Note_off_c, 0, 78, 65
1, 28741, Note_off_c, 0, 71, 56
1, 28813, Note_on_c, 0, 79, 64
1, 28827, Note_on_c, 0, 60, 56
1, 28827, Note_on_c, 0, 78, 67
1, 28862, Note_off_c, 0, 79, 53
1, 28865, Note_off_c, 0, 60, 64
1, 28932, Note_off_c, 0, 78, 60
1, 28952, Note_on_c, 0, 76, 63
1, 28972, Note_off_c, 0, 76, 64
1, 29060, Note_on_c, 0, 76, 72
1, 29069, Note_on_c, 0, 69, 54
1, 29098, Note_off_c, 0, 69, 64
1, 29108, Note_off_c, 0, 76, 61
1, 29178, Note_on_c, 0, 78, 69
1, 29182, Note_on_c, 0, 59, 68
1, 29205, Note_on_c, 0, 76, 76
1, 29236, Note_off_c, 0, 59, 55
1, 29251, Note_off_c, 0, 78, 55
1, 29284, Note_off_c, 0, 76, 58
1, 29317, Note_on_c, 0, 74, 68
1, 29342, Note_off_c, 0, 74, 70
1, 29433, Note_on_c, 0, 74, 75
1, 29442, Note_on_c, 0, 67, 54
1, 29468, Note_off_c, 0, 67, 61
1, 29476, Note_off_c, 0, 74, 64
1, 29552, Note_on_c, 0, 57, 70
1, 29557, Note_on_c, 0, 76, 70
1, 29572, Note_on_c, 0, 74, 82
1, 29608, Note_off_c, 0, 76, 58
1, 29627, Note_off_c, 0, 57, 56
1, 29652, Note_off_c, 0, 74, 62
1, 29685, Note_on_c, 0, 72, 70
1, 29708, Note_off_c, 0, 72, 68
1, 29803, Note_on_c, 0, 66, 63
1, 29804, Note_on_c, 0, 72, 71
1, 29823, Note_off_c, 0, 66, 64
1, 29854, Note_off_c, 0, 72, 58
1, 29931, Note_on_c, 0, 55, 75
1, 29944, Note_on_c, 0, 71, 76
1, 29946, Note_on_c, 0, 67, 75
1, 29979, Note_off_c, 0, 71, 58
1, 29981, Note_off_c, 0, 67, 62
1, 29996, Note_off_c, 0, 55, 59
1, 30059, Note_on_c, 0, 72, 76
1, 30069, Note_on_c, 0, 69, 72
1, 30097, Note_off_c, 0, 69, 64
1, 30112, Note_off_c, 0, 72, 63
1, 30175, Note_on_c, 0, 47, 77
1, 30178, Note_on_c, 0, 71, 79
1, 30178, Note_on_c, 0, 74, 78
1, 30217, Note_off_c, 0, 47, 64
1, 30226, Note_off_c, 0, 71, 62
1, 30229, Note_off_c, 0, 74, 65
1, 30294, Note_on_c, 0, 48, 82
1, 30294, Note_on_c, 0, 72, 82
1, 30301, Note_on_c, 0, 69, 77
1, 30344, Note_off_c, 0, 69, 61
1, 30360, Note_off_c, 0, 72, 60
1, 30362, Note_off_c, 0, 48, 59
1, 30417, Note_on_c, 0, 71, 74
1, 30423, Note_on_c, 0, 67, 74
1, 30448, Note_off_c, 0, 67, 67
1, 30458, Note_off_c, 0, 71, 58
1, 30533, Note_on_c, 0, 50, 67
1, 30539, Note_on_c, 0, 69, 73
1, 30548, Note_on_c, 0, 66, 65
1, 30566, Note_off_c, 0, 50, 66
1, 30579, Note_off_c, 0, 66, 62
1, 30586, Note_off_c, 0, 69, 62
1, 30662, Note_on_c, 0, 55, 69
1, 30671, Note_on_c, 0, 71, 77
1, 30686, Note_on_c, 0, 67, 65
1, 30702, Note_off_c, 0, 55, 66
1, 30741, Note_off_c, 0, 71, 62
1, 30787, Note_on_c, 0, 50, 70
1, 30822, Note_off_c, 0, 50, 67
1, 30910, Note_on_c, 0, 79, 82
1, 30911, Note_on_c, 0, 43, 61
1, 30941, Note_off_c, 0, 43, 65
1, 31016, Control_c, 0, 64, 59
1, 31017, Note_off_c, 0, 79, 61
1, 31030, Control_c, 0, 64, 83
1, 31033, Note_on_c, 0, 38, 78
1, 31038, Note_off_c, 0, 67, 61
1, 31045, Control_c, 0, 64, 102
1, 31060, Note_off_c, 0, 38, 65
1, 31060, Control_c, 0, 64, 126
1, 31075, Control_c, 0, 64, 127
1, 31150, Control_c, 0, 64, 119
1, 31164, Control_c, 0, 64, 101
1, 31165, Note_on_c, 0, 69, 73
1, 31168, Note_on_c, 0, 66, 63
1, 31179, Control_c, 0, 64, 79
1, 31194, Control_c, 0, 64, 63
1, 31197, Note_off_c, 0, 66, 66
1, 31209, Control_c, 0, 64, 0
1, 31221, Note_off_c, 0, 69, 59
1, 31273, Note_on_c, 0, 72, 73
1, 31319, Note_off_c, 0, 72, 62
1, 31397, Note_on_c, 0, 55, 72
1, 31400, Note_on_c, 0, 71, 71
1, 31404, Note_on_c, 0, 67, 67
1, 31436, Note_off_c, 0, 55, 66
1, 31438, Note_off_c, 0, 71, 65
1, 31521, Note_on_c, 0, 50, 60
1, 31551, Note_off_c, 0, 50, 66
1, 31591, Poly_aftertouch_c, 0, 73, 127
1, 31626, Poly_aftertouch_c, 0, 73, 0
1, 31643, Note_on_c, 0, 79, 77
1, 31649, Note_on_c, 0, 43, 50
1, 31679, Note_off_c, 0, 43, 61
1, 31721, Control_c, 0, 64, 67
1, 31725, Note_off_c, 0, 79, 60
1, 31735, Control_c, 0, 64, 86
1, 31750, Control_c, 0, 64, 99
1, 31755, Note_off_c, 0, 67, 59
1, 31765, Control_c, 0, 64, 100
1, 31773, Note_on_c, 0, 38, 63
1, 31779, Control_c, 0, 64, 101
1, 31794, Control_c, 0, 64, 103
1, 31801, Note_off_c, 0, 38, 56
1, 31809, Control_c, 0, 64, 104
1, 31839, Control_c, 0, 64, 103
1, 31853, Control_c, 0, 64, 92
1, 31868, Control_c, 0, 64, 76
1, 31883, Control_c, 0, 64, 55
1, 31892, Note_on_c, 0, 69, 64
1, 31898, Control_c, 0, 64, 0
1, 31901, Note_on_c, 0, 66, 54
1, 31925, Note_off_c, 0, 66, 62
1, 31927, Note_off_c, 0, 69, 58
1, 32008, Note_on_c, 0, 72, 60
1, 32048, Note_off_c, 0, 72, 57
1, 32132, Note_on_c, 0, 55, 58
1, 32148, Note_on_c, 0, 71, 58
1, 32150, Note_on_c, 0, 67, 45
1, 32161, Note_off_c, 0, 55, 64
1, 32172, Note_off_c, 0, 71, 62
1, 32268, Note_on_c, 0, 50, 46
1, 32300, Note_off_c, 0, 50, 58
1, 32393, Note_on_c, 0, 43, 41
1, 32400, Note_on_c, 0, 79, 58
1, 32428, Note_off_c, 0, 43, 48
1, 32440, Control_c, 0, 64, 14
1, 32455, Control_c, 0, 64, 71
1, 32457, Note_off_c, 0, 79, 60
1, 32470, Control_c, 0, 64, 83
1, 32484, Control_c, 0, 64, 93
1, 32488, Note_off_c, 0, 67, 53
1, 32499, Control_c, 0, 64, 97
1, 32512, Note_on_c, 0, 38, 63
1, 32514, Control_c, 0, 64, 101
1, 32529, Control_c, 0, 64, 109
1, 32540, Note_off_c, 0, 38, 58
1, 32544, Control_c, 0, 64, 126
1, 32558, Control_c, 0, 64, 127
1, 32588, Control_c, 0, 64, 121
1, 32602, Control_c, 0, 64, 95
1, 32617, Control_c, 0, 64, 77
1, 32632, Note_on_c, 0, 66, 53
1, 32632, Control_c, 0, 64, 65
1, 32634, Note_on_c, 0, 69, 59
1, 32647, Control_c, 0, 64, 28
1, 32661, Note_off_c, 0, 66, 65
1, 32662, Control_c, 0, 64, 0
1, 32676, Note_off_c, 0, 69, 54
1, 32753, Note_on_c, 0, 72, 65
1, 32795, Note_off_c, 0, 72, 64
1, 32859, Note_on_c, 0, 55, 68
1, 32873, Note_on_c, 0, 71, 77
1, 32880, Note_on_c, 0, 67, 73
1, 32911, Note_off_c, 0, 55, 60
1, 32914, Note_off_c, 0, 67, 60
1, 32919, Note_off_c, 0, 71, 65
1, 32993, Note_on_c, 0, 72, 79
1, 33001, Note_on_c, 0, 69, 77
1, 33043, Note_off_c, 0, 69, 62
1, 33046, Note_off_c, 0, 72, 64
1, 33103, Note_on_c, 0, 47, 71
1, 33108, Note_on_c, 0, 71, 81
1, 33109, Note_on_c, 0, 74, 82
1, 33143, Note_off_c, 0, 47, 63
1, 33158, Note_off_c, 0, 71, 62
1, 33161, Note_off_c, 0, 74, 63
1, 33230, Note_on_c, 0, 48, 79
1, 33231, Note_on_c, 0, 72, 80
1, 33246, Note_on_c, 0, 69, 75
1, 33275, Note_off_c, 0, 48, 59
1, 33282, Note_off_c, 0, 69, 59
1, 33294, Note_off_c, 0, 72, 63
1, 33353, Note_on_c, 0, 71, 70
1, 33359, Note_on_c, 0, 67, 60
1, 33380, Note_off_c, 0, 67, 62
1, 33380, Note_off_c, 0, 71, 63
1, 33472, Note_on_c, 0, 66, 62
1, 33479, Note_on_c, 0, 50, 59
1, 33480, Note_on_c, 0, 69, 56
1, 33502, Note_off_c, 0, 66, 66
1, 33510, Note_off_c, 0, 50, 67
1, 33511, Note_off_c, 0, 69, 65
1, 33604, Note_on_c, 0, 71, 69
1, 33609, Note_on_c, 0, 55, 54
1, 33609, Note_on_c, 0, 67, 61
1, 33633, Note_off_c, 0, 71, 65
1, 33633, Control_c, 0, 67, 9
1, 33633, Note_off_c, 0, 55, 63
1, 33648, Control_c, 0, 67, 15
1, 33663, Control_c, 0, 67, 22
1, 33685, Control_c, 0, 67, 34
1, 33700, Control_c, 0, 67, 47
1, 33714, Control_c, 0, 67, 63
1, 33728, Note_on_c, 0, 50, 51
1, 33729, Control_c, 0, 67, 82
1, 33744, Control_c, 0, 67, 101
1, 33757, Note_off_c, 0, 50, 59
1, 33758, Control_c, 0, 67, 118
1, 33773, Control_c, 0, 67, 127
1, 33849, Note_on_c, 0, 79, 71
1, 33853, Note_on_c, 0, 43, 42
1, 33885, Note_off_c, 0, 43, 51
1, 33907, Control_c, 0, 64, 73
1, 33922, Control_c, 0, 64, 86
1, 33934, Note_off_c, 0, 79, 59
1, 33937, Control_c, 0, 64, 96
1, 33952, Control_c, 0, 64, 97
1, 33964, Note_off_c, 0, 67, 58
1, 33973, Note_on_c, 0, 38, 63
1, 33982, Control_c, 0, 64, 96
1, 33996, Control_c, 0, 64, 89
1, 33999, Note_off_c, 0, 38, 58
1, 34012, Control_c, 0, 64, 75
1, 34027, Control_c, 0, 64, 37
1, 34042, Control_c, 0, 64, 0
1, 34092, Note_on_c, 0, 69, 66
1, 34104, Note_on_c, 0, 66, 49
1, 34122, Note_off_c, 0, 69, 63
1, 34127, Note_off_c, 0, 66, 59
1, 34205, Note_on_c, 0, 72, 56
1, 34238, Note_off_c, 0, 72, 64
1, 34324, Note_on_c, 0, 71, 62
1, 34328, Note_on_c, 0, 55, 55
1, 34330, Note_on_c, 0, 67, 52
1, 34350, Note_off_c, 0, 71, 66
1, 34353, Control_c, 0, 64, 63
1, 34354, Note_off_c, 0, 55, 61
1, 34354, Note_off_c, 0, 67, 58
1, 34368, Control_c, 0, 64, 87
1, 34382, Control_c, 0, 64, 95
1, 34397, Control_c, 0, 64, 97
1, 34412, Control_c, 0, 64, 93
1, 34435, Control_c, 0, 64, 86
1, 34446, Note_on_c, 0, 50, 50
1, 34450, Control_c, 0, 64, 73
1, 34464, Control_c, 0, 64, 0
1, 34475, Note_off_c, 0, 50, 58
1, 34575, Note_on_c, 0, 83, 73
1, 34579, Note_on_c, 0, 43, 49
1, 34599, Note_off_c, 0, 83, 66
1, 34611, Note_off_c, 0, 43, 62
1, 34612, Control_c, 0, 64, 94
1, 34627, Control_c, 0, 64, 127
1, 34707, Note_on_c, 0, 38, 65
1, 34730, Control_c, 0, 64, 118
1, 34735, Note_off_c, 0, 38, 63
1, 34745, Control_c, 0, 64, 84
1, 34760, Control_c, 0, 64, 57
1, 34774, Control_c, 0, 64, 0
1, 34833, Note_on_c, 0, 69, 60
1, 34837, Note_on_c, 0, 66, 42
1, 34864, Note_off_c, 0, 66, 55
1, 34865, Note_off_c, 0, 69, 61
1, 34945, Note_on_c, 0, 72, 57
1, 34974, Note_off_c, 0, 72, 66
1, 35055, Note_on_c, 0, 71, 68
1, 35061, Note_on_c, 0, 55, 63
1, 35063, Note_on_c, 0, 67, 51
1, 35073, Note_off_c, 0, 71, 68
1, 35073, Control_c, 0, 64, 88
1, 35087, Control_c, 0, 64, 108
1, 35088, Note_off_c, 0, 55, 65
1, 35090, Note_off_c, 0, 67, 56
1, 35102, Control_c, 0, 64, 119
1, 35117, Control_c, 0, 64, 115
1, 35131, Control_c, 0, 64, 103
1, 35146, Control_c, 0, 64, 84
1, 35161, Control_c, 0, 64, 63
1, 35179, Note_on_c, 0, 50, 52
1, 35183, Control_c, 0, 64, 0
1, 35209, Note_off_c, 0, 50, 62
1, 35287, Control_c, 0, 64, 27
1, 35290, Note_on_c, 0, 86, 73
1, 35301, Control_c, 0, 64, 83
1, 35307, Note_on_c, 0, 43, 40
1, 35311, Note_off_c, 0, 86, 71
1, 35316, Control_c, 0, 64, 106
1, 35330, Control_c, 0, 64, 127
1, 35343, Note_off_c, 0, 43, 52
1, 35415, Note_on_c, 0, 38, 60
1, 35444, Note_off_c, 0, 38, 59
1, 35449, Control_c, 0, 64, 98
1, 35464, Control_c, 0, 64, 73
1, 35478, Control_c, 0, 64, 0
1, 35537, Note_on_c, 0, 69, 64
1, 35538, Note_on_c, 0, 66, 45
1, 35564, Note_off_c, 0, 66, 59
1, 35568, Note_off_c, 0, 69, 62
1, 35663, Note_on_c, 0, 72, 54
1, 35694, Note_off_c, 0, 72, 66
1, 35772, Note_on_c, 0, 55, 62
1, 35775, Note_on_c, 0, 71, 65
1, 35788, Note_on_c, 0, 67, 47
1, 35802, Note_off_c, 0, 55, 64
1, 35803, Note_off_c, 0, 71, 64
1, 35813, Note_off_c, 0, 67, 58
1, 35895, Note_on_c, 0, 72, 64
1, 35902, Note_on_c, 0, 69, 57
1, 35929, Note_off_c, 0, 72, 63
1, 35937, Note_off_c, 0, 69, 65
1, 36029, Note_on_c, 0, 71, 60
1, 36030, Note_on_c, 0, 74, 61
1, 36034, Note_on_c, 0, 47, 49
1, 36059, Note_off_c, 0, 71, 64
1, 36061, Note_off_c, 0, 47, 60
1, 36062, Note_off_c, 0, 74, 64
1, 36152, Note_on_c, 0, 72, 65
1, 36155, Note_on_c, 0, 69, 64
1, 36161, Note_on_c, 0, 48, 59
1, 36186, Note_off_c, 0, 72, 58
1, 36186, Note_off_c, 0, 48, 63
1, 36192, Note_off_c, 0, 69, 58
1, 36278, Note_on_c, 0, 71, 63
1, 36299, Note_on_c, 0, 67, 39
1, 36302, Note_off_c, 0, 71, 70
1, 36330, Note_off_c, 0, 67, 49
1, 36400, Note_on_c, 0, 50, 59
1, 36403, Note_on_c, 0, 66, 65
1, 36414, Note_on_c, 0, 69, 52
1, 36431, Note_off_c, 0, 66, 65
1, 36435, Note_off_c, 0, 50, 65
1, 36438, Note_off_c, 0, 69, 61
1, 36524, Control_c, 0, 67, 113
1, 36526, Note_on_c, 0, 74, 70
1, 36528, Note_on_c, 0, 47, 61
1, 36536, Note_on_c, 0, 71, 55
1, 36539, Control_c, 0, 67, 90
1, 36554, Control_c, 0, 67, 66
1, 36557, Note_off_c, 0, 47, 66
1, 36564, Note_off_c, 0, 74, 56
1, 36568, Note_off_c, 0, 71, 66
1, 36569, Control_c, 0, 67, 42
1, 36584, Control_c, 0, 67, 23
1, 36599, Control_c, 0, 67, 0
1, 36644, Note_on_c, 0, 72, 65
1, 36648, Note_on_c, 0, 69, 63
1, 36682, Note_off_c, 0, 72, 62
1, 36685, Note_off_c, 0, 69, 66
1, 36771, Note_on_c, 0, 71, 72
1, 36774, Note_on_c, 0, 52, 61
1, 36778, Note_on_c, 0, 67, 66
1, 36812, Note_off_c, 0, 67, 62
1, 36813, Note_off_c, 0, 52, 62
1, 36814, Note_off_c, 0, 71, 63
1, 36900, Note_on_c, 0, 48, 71
1, 36901, Note_on_c, 0, 72, 77
1, 36904, Note_on_c, 0, 69, 77
1, 36933, Note_off_c, 0, 48, 63
1, 36940, Note_off_c, 0, 69, 60
1, 36952, Note_off_c, 0, 72, 63
1, 37017, Note_on_c, 0, 71, 82
1, 37029, Note_on_c, 0, 67, 68
1, 37056, Note_off_c, 0, 67, 66
1, 37058, Note_off_c, 0, 71, 64
1, 37136, Note_on_c, 0, 66, 79
1, 37139, Note_on_c, 0, 50, 78
1, 37140, Note_on_c, 0, 69, 77
1, 37172, Note_off_c, 0, 66, 62
1, 37183, Note_off_c, 0, 50, 63
1, 37190, Note_off_c, 0, 69, 61
1, 37261, Note_on_c, 0, 74, 85
1, 37266, Note_on_c, 0, 47, 71
1, 37267, Note_on_c, 0, 71, 76
1, 37297, Note_off_c, 0, 47, 66
1, 37299, Note_off_c, 0, 71, 60
1, 37307, Note_off_c, 0, 74, 64
1, 37379, Note_on_c, 0, 69, 74
1, 37381, Note_on_c, 0, 72, 78
1, 37407, Note_off_c, 0, 69, 65
1, 37432, Note_off_c, 0, 72, 62
1, 37508, Note_on_c, 0, 52, 58
1, 37517, Note_on_c, 0, 67, 70
1, 37517, Note_on_c, 0, 71, 71
1, 37538, Note_off_c, 0, 52, 64
1, 37540, Note_off_c, 0, 71, 69
1, 37548, Note_off_c, 0, 67, 60
1, 37639, Note_on_c, 0, 72, 68
1, 37641, Note_on_c, 0, 48, 58
1, 37642, Note_on_c, 0, 69, 67
1, 37667, Note_off_c, 0, 48, 61
1, 37670, Note_off_c, 0, 69, 65
1, 37673, Note_off_c, 0, 72, 60
1, 37757, Note_on_c, 0, 71, 74
1, 37785, Note_off_c, 0, 71, 65
1, 37787, Note_on_c, 0, 67, 29
1, 37825, Note_off_c, 0, 67, 30
1, 37891, Note_on_c, 0, 66, 51
1, 37892, Note_on_c, 0, 50, 48
1, 37896, Note_on_c, 0, 69, 56
1, 37915, Note_off_c, 0, 66, 62
1, 37922, Note_off_c, 0, 69, 61
1, 37923, Note_off_c, 0, 50, 60
1, 38011, Note_on_c, 0, 74, 70
1, 38016, Note_on_c, 0, 71, 61
1, 38017, Note_on_c, 0, 47, 61
1, 38021, Control_c, 0, 67, 8
1, 38036, Control_c, 0, 67, 14
1, 38044, Note_off_c, 0, 71, 69
1, 38045, Note_off_c, 0, 47, 66
1, 38049, Note_off_c, 0, 74, 58
1, 38051, Control_c, 0, 67, 22
1, 38066, Control_c, 0, 67, 31
1, 38081, Control_c, 0, 67, 39
1, 38095, Control_c, 0, 67, 47
1, 38110, Control_c, 0, 67, 57
1, 38124, Note_on_c, 0, 72, 70
1, 38125, Note_on_c, 0, 69, 64
1, 38125, Control_c, 0, 67, 70
1, 38140, Control_c, 0, 67, 86
1, 38154, Note_off_c, 0, 69, 67
1, 38155, Control_c, 0, 67, 107
1, 38177, Control_c, 0, 67, 124
1, 38179, Note_off_c, 0, 72, 58
1, 38192, Control_c, 0, 67, 127
1, 38256, Note_on_c, 0, 71, 66
1, 38267, Note_on_c, 0, 67, 55
1, 38268, Note_on_c, 0, 52, 47
1, 38281, Note_off_c, 0, 71, 71
1, 38292, Note_off_c, 0, 67, 61
1, 38298, Note_off_c, 0, 52, 56
1, 38370, Note_on_c, 0, 71, 63
1, 38379, Note_on_c, 0, 48, 65
1, 38388, Note_off_c, 0, 71, 67
1, 38408, Note_on_c, 0, 69, 69
1, 38411, Note_off_c, 0, 48, 63
1, 38432, Note_off_c, 0, 69, 70
1, 38443, Note_on_c, 0, 71, 79
1, 38465, Note_off_c, 0, 71, 69
1, 38495, Note_on_c, 0, 69, 71
1, 38518, Note_off_c, 0, 69, 69
1, 38545, Note_on_c, 0, 67, 59
1, 38566, Note_off_c, 0, 67, 61
1, 38618, Note_on_c, 0, 50, 57
1, 38623, Note_on_c, 0, 66, 74
1, 38646, Note_off_c, 0, 66, 68
1, 38649, Note_off_c, 0, 50, 66
1, 38752, Note_on_c, 0, 43, 57
1, 38756, Note_on_c, 0, 67, 63
1, 38782, Note_off_c, 0, 67, 67
1, 38790, Note_off_c, 0, 43, 64
1, 38873, Note_on_c, 0, 62, 70
1, 38900, Note_off_c, 0, 62, 66
1, 38998, Note_on_c, 0, 59, 64
1, 39022, Note_off_c, 0, 59, 64
1, 39106, Note_on_c, 0, 55, 60
1, 39136, Note_off_c, 0, 55, 64
1, 39225, Note_on_c, 0, 50, 53
1, 39254, Note_off_c, 0, 50, 64
1, 39332, Note_on_c, 0, 47, 53
1, 39359, Note_off_c, 0, 47, 60
1, 39488, Control_c, 0, 64, 65
1, 39503, Control_c, 0, 64, 76
1, 39514, Note_on_c, 0, 43, 30
1, 39518, Control_c, 0, 64, 86
1, 39533, Control_c, 0, 64, 95
1, 39548, Control_c, 0, 64, 103
1, 39553, Note_off_c, 0, 43, 55
1, 39563, Control_c, 0, 64, 118
1, 39577, Control_c, 0, 64, 127
1, 39823, Control_c, 0, 64, 120
1, 39838, Control_c, 0, 64, 95
1, 39853, Control_c, 0, 64, 81
1, 39868, Control_c, 0, 64, 69
1, 39882, Control_c, 0, 64, 36
1, 39897, Control_c, 0, 64, 0
1, 40072, Note_on_c, 0, 79, 55
1, 40106, Note_off_c, 0, 79, 63
1, 40195, Note_on_c, 0, 75, 53
1, 40216, Note_on_c, 0, 72, 24
1, 40217, Note_off_c, 0, 75, 62
1, 40250, Note_off_c, 0, 72, 50
1, 40305, Note_on_c, 0, 77, 64
1, 40325, Note_on_c, 0, 75, 57
1, 40330, Note_on_c, 0, 71, 53
1, 40364, Note_off_c, 0, 71, 62
1, 40365, Note_off_c, 0, 77, 57
1, 40444, Note_off_c, 0, 75, 59
1, 40452, Note_on_c, 0, 74, 59
1, 40482, Note_off_c, 0, 74, 68
1, 40576, Note_on_c, 0, 71, 55
1, 40577, Note_on_c, 0, 74, 57
1, 40585, Note_on_c, 0, 67, 47
1, 40600, Note_off_c, 0, 71, 62
1, 40602, Note_off_c, 0, 74, 63
1, 40611, Note_off_c, 0, 67, 58
1, 40686, Note_on_c, 0, 75, 63
1, 40695, Note_on_c, 0, 67, 53
1, 40706, Note_on_c, 0, 74, 63
1, 40712, Note_on_c, 0, 68, 50
1, 40737, Note_off_c, 0, 75, 49
1, 40762, Note_off_c, 0, 68, 56
1, 40769, Note_off_c, 0, 67, 59
1, 40814, Note_off_c, 0, 74, 63
1, 40832, Note_on_c, 0, 72, 59
1, 40860, Note_off_c, 0, 72, 67
1, 40946, Note_on_c, 0, 72, 61
1, 40948, Note_on_c, 0, 65, 42
1, 40955, Note_on_c, 0, 68, 36
1, 40976, Note_off_c, 0, 65, 58
1, 40978, Note_off_c, 0, 72, 61
1, 40985, Note_off_c, 0, 68, 56
1, 41069, Note_on_c, 0, 74, 58
1, 41074, Note_on_c, 0, 67, 54
1, 41083, Note_on_c, 0, 72, 64
1, 41109, Note_off_c, 0, 74, 61
1, 41116, Note_off_c, 0, 67, 58
1, 41175, Note_off_c, 0, 72, 61
1, 41194, Note_on_c, 0, 71, 63
1, 41223, Note_off_c, 0, 71, 65
1, 41247, Control_c, 0, 67, 121
1, 41262, Control_c, 0, 67, 104
1, 41277, Control_c, 0, 67, 87
1, 41291, Control_c, 0, 67, 67
1, 41306, Control_c, 0, 67, 46
1, 41315, Note_on_c, 0, 67, 62
1, 41321, Control_c, 0, 67, 27
1, 41325, Note_on_c, 0, 71, 64
1, 41335, Control_c, 0, 67, 0
1, 41344, Note_off_c, 0, 67, 65
1, 41354, Note_off_c, 0, 71, 65
1, 41447, Note_on_c, 0, 67, 72
1, 41449, Note_on_c, 0, 72, 80
1, 41523, Note_off_c, 0, 72, 59
1, 41532, Note_off_c, 0, 67, 60
1, 41559, Note_on_c, 0, 79, 81
1, 41613, Note_off_c, 0, 79, 63
1, 41675, Note_on_c, 0, 75, 91
1, 41679, Note_on_c, 0, 72, 74
1, 41685, Note_on_c, 0, 67, 67
1, 41707, Note_off_c, 0, 72, 63
1, 41710, Note_off_c, 0, 67, 66
1, 41723, Note_off_c, 0, 75, 66
1, 41787, Note_on_c, 0, 77, 82
1, 41803, Note_on_c, 0, 75, 88
1, 41807, Note_on_c, 0, 71, 74
1, 41815, Note_on_c, 0, 67, 49
1, 41836, Note_off_c, 0, 71, 61
1, 41845, Note_off_c, 0, 77, 64
1, 41851, Note_off_c, 0, 67, 62
1, 41924, Note_off_c, 0, 75, 63
1, 41935, Note_on_c, 0, 74, 88
1, 41976, Note_off_c, 0, 74, 67
1, 42047, Note_on_c, 0, 74, 91
1, 42049, Note_on_c, 0, 67, 70
1, 42049, Note_on_c, 0, 71, 67
1, 42075, Note_off_c, 0, 71, 67
1, 42084, Note_off_c, 0, 67, 57
1, 42087, Note_off_c, 0, 74, 66
1, 42161, Note_on_c, 0, 75, 86
1, 42176, Note_on_c, 0, 67, 69
1, 42177, Note_on_c, 0, 74, 87
1, 42178, Note_on_c, 0, 68, 64
1, 42224, Note_off_c, 0, 75, 58
1, 42246, Note_off_c, 0, 67, 56
1, 42249, Note_off_c, 0, 68, 58
1, 42284, Note_off_c, 0, 74, 64
1, 42295, Note_on_c, 0, 72, 79
1, 42332, Note_off_c, 0, 72, 64
1, 42406, Note_on_c, 0, 72, 87
1, 42407, Note_on_c, 0, 68, 62
1, 42416, Note_on_c, 0, 65, 55
1, 42444, Note_off_c, 0, 68, 59
1, 42447, Note_off_c, 0, 65, 66
1, 42452, Note_off_c, 0, 72, 63
1, 42525, Note_on_c, 0, 74, 86
1, 42539, Note_on_c, 0, 67, 75
1, 42543, Note_on_c, 0, 72, 87
1, 42575, Note_off_c, 0, 74, 65
1, 42601, Note_off_c, 0, 67, 58
1, 42616, Note_off_c, 0, 72, 60
1, 42672, Note_on_c, 0, 71, 73
1, 42713, Note_off_c, 0, 71, 63
1, 42801, Note_on_c, 0, 67, 56
1, 42806, Note_on_c, 0, 71, 61
1, 42823, Note_off_c, 0, 67, 60
1, 42825, Note_off_c, 0, 71, 64
1, 42936, Note_on_c, 0, 72, 60
1, 42945, Note_on_c, 0, 65, 48
1, 42945, Note_on_c, 0, 68, 47
1, 42999, Note_off_c, 0, 65, 56
1, 43004, Note_off_c, 0, 68, 54
1, 43007, Note_off_c, 0, 72, 58
1, 43059, Note_on_c, 0, 84, 57
1, 43088, Note_off_c, 0, 84, 66
1, 43179, Note_on_c, 0, 68, 58
1, 43182, Note_on_c, 0, 80, 72
1, 43193, Note_on_c, 0, 72, 43
1, 43206, Note_off_c, 0, 80, 66
1, 43214, Note_off_c, 0, 68, 62
1, 43217, Note_off_c, 0, 72, 59
1, 43299, Note_on_c, 0, 82, 70
1, 43309, Note_on_c, 0, 72, 63
1, 43315, Note_on_c, 0, 80, 78
1, 43318, Note_on_c, 0, 64, 61
1, 43327, Note_on_c, 0, 67, 53
1, 43333, Note_on_c, 0, 70, 46
1, 43348, Note_off_c, 0, 82, 59
1, 43352, Note_off_c, 0, 72, 57
1, 43355, Note_off_c, 0, 64, 63
1, 43364, Note_off_c, 0, 67, 63
1, 43364, Note_off_c, 0, 70, 63
1, 43427, Note_off_c, 0, 80, 59
1, 43444, Note_on_c, 0, 79, 66
1, 43468, Note_off_c, 0, 79, 67
1, 43559, Note_on_c, 0, 79, 70
1, 43565, Note_on_c, 0, 72, 52
1, 43568, Note_on_c, 0, 64, 46
1, 43582, Note_on_c, 0, 70, 39
1, 43587, Note_off_c, 0, 72, 61
1, 43596, Note_off_c, 0, 64, 57
1, 43596, Note_off_c, 0, 79, 59
1, 43610, Note_off_c, 0, 70, 54
1, 43678, Note_on_c, 0, 80, 73
1, 43684, Note_on_c, 0, 73, 75
1, 43687, Note_on_c, 0, 70, 62
1, 43688, Note_on_c, 0, 65, 66
1, 43697, Note_on_c, 0, 79, 76
1, 43729, Note_off_c, 0, 73, 56
1, 43736, Note_off_c, 0, 65, 52
1, 43744, Note_off_c, 0, 70, 59
1, 43747, Note_off_c, 0, 80, 53
1, 43807, Note_off_c, 0, 79, 59
1, 43826, Note_on_c, 0, 77, 60
1, 43850, Note_off_c, 0, 77, 66
1, 43929, Note_on_c, 0, 73, 61
1, 43932, Note_on_c, 0, 77, 73
1, 43934, Note_on_c, 0, 65, 52
1, 43937, Note_on_c, 0, 70, 52
1, 43955, Note_off_c, 0, 73, 65
1, 43958, Note_off_c, 0, 65, 61
1, 43959, Note_off_c, 0, 70, 63
1, 43971, Note_off_c, 0, 77, 63
1, 44059, Note_on_c, 0, 72, 67
1, 44059, Note_on_c, 0, 79, 71
1, 44060, Note_on_c, 0, 67, 68
1, 44065, Note_on_c, 0, 60, 61
1, 44066, Note_on_c, 0, 77, 74
1, 44089, Note_off_c, 0, 72, 60
1, 44099, Note_off_c, 0, 60, 61
1, 44105, Note_off_c, 0, 67, 54
1, 44107, Note_off_c, 0, 79, 55
1, 44144, Note_off_c, 0, 77, 60
1, 44176, Note_on_c, 0, 76, 70
1, 44218, Note_off_c, 0, 76, 60
1, 44303, Note_on_c, 0, 60, 58
1, 44303, Note_on_c, 0, 67, 65
1, 44308, Note_on_c, 0, 72, 53
1, 44316, Note_on_c, 0, 76, 76
1, 44325, Note_off_c, 0, 60, 61
1, 44331, Note_off_c, 0, 67, 66
1, 44331, Note_off_c, 0, 72, 58
1, 44343, Note_off_c, 0, 76, 64
1, 44433, Note_on_c, 0, 72, 69
1, 44442, Note_on_c, 0, 65, 73
1, 44442, Note_on_c, 0, 68, 70
1, 44507, Note_off_c, 0, 65, 61
1, 44507, Note_off_c, 0, 72, 59
1, 44516, Note_off_c, 0, 68, 59
1, 44540, Note_on_c, 0, 84, 91
1, 44597, Note_off_c, 0, 84, 64
1, 44659, Note_on_c, 0, 72, 72
1, 44661, Note_on_c, 0, 65, 70
1, 44661, Note_on_c, 0, 68, 71
1, 44662, Note_on_c, 0, 80, 96
1, 44688, Note_off_c, 0, 72, 62
1, 44695, Note_off_c, 0, 65, 61
1, 44697, Note_off_c, 0, 68, 62
1, 44707, Note_off_c, 0, 80, 64
1, 44776, Note_on_c, 0, 82, 88
1, 44791, Note_on_c, 0, 72, 75
1, 44794, Note_on_c, 0, 80, 96
1, 44797, Note_on_c, 0, 70, 70
1, 44802, Note_on_c, 0, 67, 67
1, 44807, Note_on_c, 0, 64, 57
1, 44836, Note_off_c, 0, 82, 64
1, 44840, Note_off_c, 0, 64, 66
1, 44847, Note_off_c, 0, 72, 58
1, 44854, Note_off_c, 0, 67, 53
1, 44859, Note_off_c, 0, 70, 60
1, 44902, Note_off_c, 0, 80, 60
1, 44921, Note_on_c, 0, 79, 86
1, 44971, Note_off_c, 0, 79, 63
1, 45020, Note_on_c, 0, 72, 68
1, 45024, Note_on_c, 0, 64, 60
1, 45031, Note_on_c, 0, 79, 90
1, 45040, Note_on_c, 0, 70, 56
1, 45045, Note_off_c, 0, 72, 68
1, 45053, Note_off_c, 0, 64, 59
1, 45071, Note_off_c, 0, 79, 63
1, 45073, Note_off_c, 0, 70, 65
1, 45142, Note_on_c, 0, 80, 86
1, 45148, Note_on_c, 0, 73, 78
1, 45151, Note_on_c, 0, 70, 71
1, 45154, Note_on_c, 0, 65, 65
1, 45160, Note_on_c, 0, 79, 92
1, 45195, Note_off_c, 0, 65, 55
1, 45210, Note_off_c, 0, 80, 59
1, 45220, Note_off_c, 0, 70, 58
1, 45223, Note_off_c, 0, 73, 55
1, 45268, Note_off_c, 0, 79, 61
1, 45276, Note_on_c, 0, 77, 75
1, 45317, Note_off_c, 0, 77, 63
1, 45389, Note_on_c, 0, 77, 85
1, 45390, Note_on_c, 0, 65, 53
1, 45398, Note_on_c, 0, 73, 50
1, 45400, Note_on_c, 0, 70, 61
1, 45417, Note_off_c, 0, 65, 64
1, 45425, Note_off_c, 0, 73, 58
1, 45426, Note_off_c, 0, 70, 65
1, 45437, Note_off_c, 0, 77, 61
1, 45505, Note_on_c, 0, 79, 88
1, 45519, Note_on_c, 0, 72, 75
1, 45523, Note_on_c, 0, 77, 84
1, 45524, Note_on_c, 0, 67, 71
1, 45528, Note_on_c, 0, 60, 66
1, 45559, Note_off_c, 0, 72, 59
1, 45561, Note_off_c, 0, 60, 63
1, 45562, Note_off_c, 0, 79, 62
1, 45564, Note_off_c, 0, 67, 54
1, 45634, Note_off_c, 0, 77, 59
1, 45647, Note_on_c, 0, 76, 84
1, 45699, Note_off_c, 0, 76, 62
1, 45766, Note_on_c, 0, 67, 60
1, 45770, Note_on_c, 0, 72, 54
1, 45773, Note_on_c, 0, 60, 31
1, 45776, Note_on_c, 0, 76, 84
1, 45794, Note_off_c, 0, 72, 61
1, 45795, Note_off_c, 0, 67, 65
1, 45808, Note_off_c, 0, 60, 56
1, 45828, Note_off_c, 0, 76, 61
1, 45895, Note_on_c, 0, 67, 70
1, 45899, Note_on_c, 0, 72, 62
1, 45904, Note_on_c, 0, 64, 65
1, 45978, Note_off_c, 0, 72, 58
1, 45990, Note_off_c, 0, 67, 58
1, 45990, Note_off_c, 0, 64, 60
1, 46013, Note_on_c, 0, 79, 96
1, 46057, Note_off_c, 0, 79, 66
1, 46129, Note_on_c, 0, 64, 63
1, 46132, Note_on_c, 0, 67, 64
1, 46135, Note_on_c, 0, 72, 60
1, 46135, Note_on_c, 0, 79, 103
1, 46176, Note_off_c, 0, 72, 58
1, 46177, Note_off_c, 0, 67, 60
1, 46186, Note_off_c, 0, 64, 60
1, 46194, Note_off_c, 0, 79, 60
1, 46290, Note_on_c, 0, 79, 94
1, 46296, Note_on_c, 0, 72, 65
1, 46300, Note_on_c, 0, 65, 65
1, 46307, Note_on_c, 0, 68, 60
1, 46400, Note_off_c, 0, 72, 56
1, 46412, Note_off_c, 0, 65, 58
1, 46420, Note_off_c, 0, 68, 57
1, 46439, Note_on_c, 0, 82, 80
1, 46448, Note_off_c, 0, 79, 60
1, 46552, Note_on_c, 0, 72, 48
1, 46554, Note_on_c, 0, 68, 55
1, 46555, Note_off_c, 0, 82, 47
1, 46558, Note_on_c, 0, 65, 46
1, 46562, Note_on_c, 0, 80, 75
1, 46575, Note_off_c, 0, 72, 59
1, 46584, Note_off_c, 0, 65, 59
1, 46586, Note_off_c, 0, 68, 64
1, 46590, Note_off_c, 0, 80, 63
1, 46695, Note_on_c, 0, 65, 52
1, 46764, Poly_aftertouch_c, 0, 62, 127
1, 46786, Note_off_c, 0, 65, 57
1, 46797, Poly_aftertouch_c, 0, 62, 0
1, 46823, Note_on_c, 0, 77, 74
1, 46848, Note_off_c, 0, 77, 67
1, 46935, Note_on_c, 0, 77, 80
1, 46937, Note_on_c, 0, 65, 61
1, 46939, Note_on_c, 0, 62, 60
1, 46966, Note_off_c, 0, 65, 66
1, 46969, Note_off_c, 0, 62, 64
1, 46978, Note_off_c, 0, 77, 63
1, 47062, Note_on_c, 0, 78, 81
1, 47072, Note_on_c, 0, 63, 61
1, 47075, Note_on_c, 0, 67, 59
1, 47130, Note_off_c, 0, 67, 49
1, 47140, Note_off_c, 0, 63, 58
1, 47187, Note_off_c, 0, 78, 62
1, 47189, Note_on_c, 0, 80, 69
1, 47301, Note_off_c, 0, 80, 36
1, 47315, Note_on_c, 0, 79, 69
1, 47317, Note_on_c, 0, 67, 44
1, 47322, Note_on_c, 0, 63, 49
1, 47339, Note_off_c, 0, 79, 69
1, 47345, Note_off_c, 0, 67, 56
1, 47357, Note_off_c, 0, 63, 64
1, 47461, Note_on_c, 0, 63, 59
1, 47469, Note_on_c, 0, 60, 53
1, 47519, Note_off_c, 0, 60, 55
1, 47538, Note_off_c, 0, 63, 57
1, 47589, Note_on_c, 0, 75, 66
1, 47614, Note_off_c, 0, 75, 68
1, 47703, Note_on_c, 0, 75, 70
1, 47709, Note_on_c, 0, 63, 52
1, 47718, Note_on_c, 0, 60, 39
1, 47738, Note_off_c, 0, 63, 62
1, 47739, Note_off_c, 0, 75, 60
1, 47748, Note_off_c, 0, 60, 55
1, 47837, Note_on_c, 0, 62, 56
1, 47838, Note_on_c, 0, 76, 71
1, 47855, Note_on_c, 0, 65, 48
1, 47918, Note_off_c, 0, 65, 55
1, 47926, Note_off_c, 0, 62, 58
1, 47940, Note_off_c, 0, 76, 52
1, 47966, Note_on_c, 0, 79, 58
1, 48066, Note_off_c, 0, 79, 51
1, 48104, Note_on_c, 0, 62, 46
1, 48115, Note_on_c, 0, 65, 38
1, 48120, Note_on_c, 0, 77, 42
1, 48131, Note_off_c, 0, 62, 59
1, 48147, Note_off_c, 0, 65, 50
1, 48147, Note_off_c, 0, 77, 57
1, 48233, Note_on_c, 0, 62, 51
1, 48246, Note_on_c, 0, 59, 51
1, 48307, Note_off_c, 0, 59, 45
1, 48319, Note_off_c, 0, 62, 49
1, 48361, Note_on_c, 0, 74, 64
1, 48392, Note_off_c, 0, 74, 67
1, 48481, Note_on_c, 0, 74, 68
1, 48484, Note_on_c, 0, 62, 42
1, 48487, Note_on_c, 0, 59, 38
1, 48513, Note_off_c, 0, 62, 55
1, 48514, Note_off_c, 0, 74, 63
1, 48519, Note_off_c, 0, 59, 49
1, 48612, Note_on_c, 0, 75, 71
1, 48617, Note_on_c, 0, 60, 51
1, 48626, Note_on_c, 0, 67, 45
1, 48640, Note_off_c, 0, 75, 63
1, 48644, Note_on_c, 0, 63, 30
1, 48662, Note_off_c, 0, 67, 56
1, 48665, Note_off_c, 0, 60, 62
1, 48685, Note_off_c, 0, 63, 52
1, 48743, Note_on_c, 0, 79, 61
1, 48771, Note_off_c, 0, 79, 64
1, 48854, Note_on_c, 0, 75, 71
1, 48856, Note_on_c, 0, 60, 51
1, 48861, Note_on_c, 0, 63, 44
1, 48881, Note_off_c, 0, 60, 63
1, 48886, Note_off_c, 0, 75, 60
1, 48893, Note_off_c, 0, 63, 62
1, 48974, Poly_aftertouch_c, 0, 67, 0
1, 48981, Note_on_c, 0, 74, 79
1, 48989, Note_on_c, 0, 58, 50
1, 48991, Note_on_c, 0, 67, 32
1, 48992, Note_on_c, 0, 62, 50
1, 49014, Note_off_c, 0, 58, 61
1, 49017, Note_off_c, 0, 74, 63
1, 49018, Note_off_c, 0, 62, 61
1, 49024, Note_off_c, 0, 67, 51
1, 49098, Note_on_c, 0, 79, 75
1, 49209, Note_off_c, 0, 79, 0
1, 49222, Note_on_c, 0, 67, 60
1, 49224, Note_on_c, 0, 58, 62
1, 49226, Note_on_c, 0, 74, 80
1, 49237, Note_on_c, 0, 62, 47
1, 49238, Note_on_c, 0, 79, 11
1, 49251, Note_off_c, 0, 67, 64
1, 49257, Note_off_c, 0, 58, 61
1, 49258, Note_off_c, 0, 74, 61
1, 49265, Note_off_c, 0, 62, 58
1, 49345, Note_on_c, 0, 67, 62
1, 49346, Note_on_c, 0, 74, 62
1, 49347, Note_on_c, 0, 62, 60
1, 49349, Note_on_c, 0, 60, 63
1, 49356, Note_on_c, 0, 56, 60
1, 49366, Note_off_c, 0, 74, 64
1, 49367, Note_on_c, 0, 72, 77
1, 49371, Note_off_c, 0, 67, 63
1, 49378, Note_off_c, 0, 60, 66
1, 49379, Note_off_c, 0, 62, 62
1, 49387, Note_off_c, 0, 56, 64
1, 49393, Note_off_c, 0, 72, 62
1, 49408, Note_on_c, 0, 74, 72
1, 49452, Note_on_c, 0, 72, 72
1, 49454, Note_off_c, 0, 74, 65
1, 49492, Note_off_c, 0, 72, 66
1, 49513, Note_on_c, 0, 71, 66
1, 49542, Note_off_c, 0, 71, 64
1, 49603, Note_on_c, 0, 60, 57
1, 49605, Note_on_c, 0, 56, 57
1, 49605, Note_on_c, 0, 72, 70
1, 49607, Note_on_c, 0, 62, 54
1, 49610, Note_on_c, 0, 67, 43
1, 49631, Note_off_c, 0, 56, 63
1, 49638, Note_off_c, 0, 60, 63
1, 49638, Note_off_c, 0, 62, 66
1, 49639, Note_off_c, 0, 67, 54
1, 49643, Note_off_c, 0, 72, 62
1, 49736, Note_on_c, 0, 56, 61
1, 49738, Note_on_c, 0, 77, 83
1, 49743, Note_on_c, 0, 62, 53
1, 49743, Note_on_c, 0, 65, 63
1, 49745, Note_on_c, 0, 60, 47
1, 49748, Note_on_c, 0, 72, 74
1, 49770, Note_off_c, 0, 65, 65
1, 49770, Note_off_c, 0, 79, 54
1, 49774, Note_off_c, 0, 56, 61
1, 49775, Note_off_c, 0, 60, 63
1, 49780, Note_off_c, 0, 62, 62
1, 49783, Note_off_c, 0, 72, 57
1, 49880, Note_on_c, 0, 71, 73
1, 49904, Note_off_c, 0, 71, 66
1, 49999, Note_on_c, 0, 56, 55
1, 49999, Note_on_c, 0, 65, 56
1, 50001, Note_on_c, 0, 60, 58
1, 50003, Note_on_c, 0, 72, 79
1, 50013, Note_on_c, 0, 62, 48
1, 50023, Note_off_c, 0, 65, 62
1, 50029, Note_off_c, 0, 56, 65
1, 50048, Note_off_c, 0, 72, 61
1, 50052, Note_off_c, 0, 60, 57
1, 50055, Note_off_c, 0, 62, 61
1, 50081, Note_off_c, 0, 77, 59
1, 50126, Note_on_c, 0, 79, 84
1, 50132, Note_on_c, 0, 74, 87
1, 50138, Note_on_c, 0, 67, 66
1, 50141, Note_on_c, 0, 55, 62
1, 50156, Note_on_c, 0, 62, 51
1, 50162, Note_on_c, 0, 60, 49
1, 50175, Note_off_c, 0, 67, 66
1, 50177, Note_off_c, 0, 74, 65
1, 50185, Note_off_c, 0, 55, 62
1, 50189, Note_off_c, 0, 62, 63
1, 50189, Note_off_c, 0, 60, 60
1, 50272, Note_on_c, 0, 75, 70
1, 50344, Note_off_c, 0, 75, 55
1, 50365, Control_c, 0, 64, 45
1, 50380, Control_c, 0, 64, 66
1, 50382, Note_on_c, 0, 55, 55
1, 50382, Note_on_c, 0, 67, 60
1, 50385, Note_on_c, 0, 74, 78
1, 50391, Note_on_c, 0, 60, 56
1, 50395, Control_c, 0, 64, 74
1, 50396, Note_on_c, 0, 62, 49
1, 50409, Control_c, 0, 64, 83
1, 50410, Note_off_c, 0, 55, 64
1, 50412, Note_off_c, 0, 67, 64
1, 50415, Note_off_c, 0, 79, 59
1, 50424, Control_c, 0, 64, 95
1, 50431, Note_off_c, 0, 60, 61
1, 50436, Note_off_c, 0, 74, 62
1, 50439, Note_off_c, 0, 62, 59
1, 50439, Control_c, 0, 64, 102
1, 50454, Control_c, 0, 64, 102
1, 50469, Control_c, 0, 64, 92
1, 50484, Control_c, 0, 64, 73
1, 50498, Note_on_c, 0, 72, 76
1, 50499, Control_c, 0, 64, 0
1, 50501, Note_on_c, 0, 65, 70
1, 50507, Note_on_c, 0, 56, 71
1, 50516, Note_on_c, 0, 77, 73
1, 50523, Note_off_c, 0, 72, 67
1, 50526, Note_off_c, 0, 65, 68
1, 50534, Note_on_c, 0, 74, 72
1, 50534, Note_on_c, 0, 62, 32
1, 50537, Note_off_c, 0, 56, 64
1, 50560, Note_on_c, 0, 72, 70
1, 50570, Note_off_c, 0, 62, 47
1, 50575, Note_off_c, 0, 74, 64
1, 50618, Note_off_c, 0, 72, 65
1, 50630, Note_on_c, 0, 71, 69
1, 50678, Note_off_c, 0, 71, 61
1, 50751, Note_on_c, 0, 56, 61
1, 50753, Note_on_c, 0, 65, 62
1, 50760, Note_on_c, 0, 60, 53
1, 50764, Note_on_c, 0, 72, 79
1, 50774, Note_on_c, 0, 62, 46
1, 50776, Note_off_c, 0, 65, 65
1, 50780, Note_off_c, 0, 56, 66
1, 50803, Note_off_c, 0, 60, 61
1, 50807, Note_off_c, 0, 72, 63
1, 50808, Note_off_c, 0, 62, 63
1, 50809, Note_off_c, 0, 77, 59
1, 50907, Note_on_c, 0, 79, 87
1, 50908, Note_on_c, 0, 74, 85
1, 50912, Note_on_c, 0, 67, 67
1, 50913, Note_on_c, 0, 55, 66
1, 50915, Note_on_c, 0, 60, 58
1, 50916, Note_on_c, 0, 62, 52
1, 50922, Control_c, 0, 64, 67
1, 50937, Control_c, 0, 64, 81
1, 50938, Note_off_c, 0, 67, 63
1, 50946, Note_off_c, 0, 55, 62
1, 50949, Note_off_c, 0, 60, 65
1, 50949, Note_off_c, 0, 62, 63
1, 50950, Note_off_c, 0, 74, 63
1, 50952, Control_c, 0, 64, 79
1, 50966, Control_c, 0, 64, 64
1, 50981, Control_c, 0, 64, 0
1, 51045, Note_on_c, 0, 75, 77
1, 51113, Note_off_c, 0, 75, 59
1, 51169, Note_on_c, 0, 67, 70
1, 51171, Note_on_c, 0, 55, 63
1, 51171, Note_on_c, 0, 74, 82
1, 51175, Note_on_c, 0, 60, 62
1, 51184, Note_on_c, 0, 62, 57
1, 51192, Note_off_c, 0, 79, 60
1, 51193, Note_off_c, 0, 67, 67
1, 51200, Note_off_c, 0, 55, 66
1, 51220, Note_off_c, 0, 60, 60
1, 51220, Note_off_c, 0, 74, 65
1, 51223, Note_off_c, 0, 62, 61
1, 51292, Note_on_c, 0, 72, 86
1, 51293, Note_on_c, 0, 56, 76
1, 51294, Note_on_c, 0, 65, 74
1, 51303, Note_on_c, 0, 77, 83
1, 51307, Control_c, 0, 64, 67
1, 51313, Note_on_c, 0, 62, 47
1, 51318, Note_off_c, 0, 65, 68
1, 51321, Control_c, 0, 64, 96
1, 51326, Note_off_c, 0, 72, 65
1, 51327, Note_off_c, 0, 56, 59
1, 51330, Note_on_c, 0, 74, 64
1, 51336, Control_c, 0, 64, 87
1, 51348, Note_off_c, 0, 62, 63
1, 51351, Control_c, 0, 64, 68
1, 51363, Note_on_c, 0, 72, 71
1, 51366, Control_c, 0, 64, 0
1, 51368, Poly_aftertouch_c, 0, 60, 0
1, 51370, Note_off_c, 0, 74, 63
1, 51424, Note_off_c, 0, 72, 64
1, 51447, Note_on_c, 0, 71, 67
1, 51493, Note_off_c, 0, 71, 58
1, 51576, Note_on_c, 0, 72, 81
1, 51581, Note_on_c, 0, 65, 58
1, 51585, Note_on_c, 0, 56, 52
1, 51587, Note_on_c, 0, 60, 57
1, 51596, Note_on_c, 0, 62, 49
1, 51606, Note_off_c, 0, 65, 65
1, 51611, Note_off_c, 0, 56, 61
1, 51614, Note_off_c, 0, 77, 60
1, 51623, Note_off_c, 0, 62, 59
1, 51623, Note_off_c, 0, 60, 64
1, 51634, Note_off_c, 0, 72, 62
1, 51766, Note_on_c, 0, 55, 75
1, 51777, Note_on_c, 0, 74, 84
1, 51788, Control_c, 0, 64, 63
1, 51801, Note_off_c, 0, 55, 66
1, 51803, Control_c, 0, 64, 103
1, 51818, Control_c, 0, 64, 127
1, 51851, Note_off_c, 0, 74, 64
1, 51873, Note_on_c, 0, 79, 72
1, 51940, Note_on_c, 0, 77, 72
1, 51946, Note_off_c, 0, 79, 62
1, 51992, Note_on_c, 0, 75, 76
1, 52006, Note_off_c, 0, 77, 60
1, 52041, Note_on_c, 0, 74, 75
1, 52050, Note_off_c, 0, 75, 65
1, 52064, Note_off_c, 0, 74, 71
1, 52087, Note_on_c, 0, 72, 74
1, 52138, Note_off_c, 0, 72, 61
1, 52154, Note_on_c, 0, 71, 69
1, 52180, Note_on_c, 0, 69, 75
1, 52187, Note_off_c, 0, 71, 60
1, 52204, Note_off_c, 0, 69, 67
1, 52215, Note_on_c, 0, 67, 70
1, 52217, Control_c, 0, 64, 98
1, 52232, Control_c, 0, 64, 80
1, 52239, Note_off_c, 0, 67, 67
1, 52247, Control_c, 0, 64, 66
1, 52257, Note_on_c, 0, 65, 73
1, 52262, Control_c, 0, 64, 0
1, 52288, Note_off_c, 0, 65, 66
1, 52306, Note_on_c, 0, 63, 80
1, 52359, Note_on_c, 0, 62, 69
1, 52362, Note_off_c, 0, 63, 64
1, 52386, Note_off_c, 0, 62, 66
1, 52409, Note_on_c, 0, 60, 74
1, 52457, Note_off_c, 0, 60, 60
1, 52475, Note_on_c, 0, 59, 63
1, 52500, Note_off_c, 0, 59, 65
1, 52511, Note_on_c, 0, 57, 70
1, 52537, Note_off_c, 0, 57, 66
1, 52579, Note_on_c, 0, 55, 65
1, 52603, Note_on_c, 0, 54, 65
1, 52607, Note_off_c, 0, 55, 65
1, 52651, Note_off_c, 0, 54, 61
1, 52671, Note_on_c, 0, 55, 76
1, 52684, Note_on_c, 0, 43, 62
1, 52789, Control_c, 0, 64, 39
1, 52803, Control_c, 0, 64, 56
1, 52818, Control_c, 0, 64, 65
1, 52833, Control_c, 0, 64, 73
1, 52848, Control_c, 0, 64, 89
1, 52859, Note_off_c, 0, 43, 63
1, 52863, Control_c, 0, 64, 127
1, 52877, Note_off_c, 0, 55, 59
1, 53241, Control_c, 0, 64, 96
1, 53256, Control_c, 0, 64, 75
1, 53271, Control_c, 0, 64, 53
1, 53286, Control_c, 0, 64, 0
1, 53921, Note_on_c, 0, 76, 55
1, 53922, Note_on_c, 0, 79, 54
1, 53948, Note_off_c, 0, 79, 63
1, 53955, Note_off_c, 0, 76, 53
1, 54041, Note_on_c, 0, 77, 65
1, 54046, Note_on_c, 0, 74, 53
1, 54067, Note_off_c, 0, 77, 67
1, 54070, Note_off_c, 0, 74, 60
1, 54156, Note_on_c, 0, 76, 77
1, 54159, Note_on_c, 0, 72, 66
1, 54184, Note_off_c, 0, 72, 68
1, 54194, Note_off_c, 0, 76, 60
1, 54280, Note_on_c, 0, 76, 69
1, 54281, Note_on_c, 0, 72, 57
1, 54306, Note_off_c, 0, 76, 66
1, 54308, Note_off_c, 0, 72, 59
1, 54399, Note_on_c, 0, 74, 67
1, 54403, Note_on_c, 0, 67, 54
1, 54425, Note_off_c, 0, 67, 59
1, 54427, Note_off_c, 0, 74, 68
1, 54524, Note_on_c, 0, 64, 60
1, 54527, Note_on_c, 0, 72, 54
1, 54545, Note_off_c, 0, 64, 64
1, 54548, Note_off_c, 0, 72, 62
1, 54648, Note_on_c, 0, 64, 55
1, 54651, Note_on_c, 0, 72, 52
1, 54675, Note_off_c, 0, 64, 62
1, 54684, Note_off_c, 0, 72, 64
1, 54787, Note_on_c, 0, 74, 55
1, 54794, Note_on_c, 0, 67, 28
1, 54809, Note_off_c, 0, 74, 62
1, 54832, Note_off_c, 0, 67, 44
1, 54896, Note_on_c, 0, 77, 66
1, 54898, Note_on_c, 0, 72, 61
1, 54921, Note_off_c, 0, 77, 68
1, 54939, Note_on_c, 0, 76, 66
1, 54958, Note_off_c, 0, 76, 65
1, 54987, Note_on_c, 0, 77, 56
1, 55007, Note_off_c, 0, 77, 61
1, 55019, Note_on_c, 0, 76, 77
1, 55045, Note_off_c, 0, 76, 61
1, 55051, Note_off_c, 0, 72, 59
1, 55070, Note_on_c, 0, 77, 66
1, 55089, Note_off_c, 0, 77, 64
1, 55116, Note_on_c, 0, 76, 59
1, 55143, Note_off_c, 0, 76, 65
1, 55144, Note_on_c, 0, 67, 57
1, 55146, Note_on_c, 0, 74, 70
1, 55171, Note_off_c, 0, 67, 63
1, 55173, Note_off_c, 0, 74, 64
1, 55268, Note_on_c, 0, 67, 70
1, 55277, Note_on_c, 0, 74, 67
1, 55299, Note_off_c, 0, 67, 63
1, 55305, Note_off_c, 0, 74, 67
1, 55386, Note_on_c, 0, 79, 86
1, 55390, Note_on_c, 0, 76, 91
1, 55440, Note_off_c, 0, 79, 62
1, 55447, Note_off_c, 0, 76, 63
1, 55513, Note_on_c, 0, 74, 93
1, 55515, Note_on_c, 0, 77, 92
1, 55554, Note_off_c, 0, 74, 65
1, 55563, Note_off_c, 0, 77, 64
1, 55633, Note_on_c, 0, 76, 93
1, 55637, Note_on_c, 0, 72, 88
1, 55666, Note_off_c, 0, 72, 62
1, 55679, Note_off_c, 0, 76, 66
1, 55757, Note_on_c, 0, 76, 88
1, 55758, Note_on_c, 0, 72, 77
1, 55795, Note_off_c, 0, 72, 64
1, 55797, Note_off_c, 0, 76, 63
1, 55876, Note_on_c, 0, 74, 85
1, 55879, Note_on_c, 0, 67, 75
1, 55905, Note_off_c, 0, 67, 67
1, 55918, Note_off_c, 0, 74, 64
1, 55997, Note_on_c, 0, 72, 87
1, 56004, Note_on_c, 0, 64, 81
1, 56026, Note_off_c, 0, 64, 71
1, 56039, Note_off_c, 0, 72, 63
1, 56120, Note_on_c, 0, 72, 84
1, 56121, Note_on_c, 0, 64, 78
1, 56156, Note_off_c, 0, 64, 64
1, 56162, Note_off_c, 0, 72, 63
1, 56240, Note_on_c, 0, 74, 90
1, 56252, Note_on_c, 0, 67, 76
1, 56274, Note_off_c, 0, 67, 69
1, 56284, Note_off_c, 0, 74, 66
1, 56358, Note_on_c, 0, 72, 88
1, 56360, Note_on_c, 0, 77, 85
1, 56371, Control_c, 0, 64, 31
1, 56386, Control_c, 0, 64, 110
1, 56399, Note_off_c, 0, 77, 65
1, 56401, Control_c, 0, 64, 127
1, 56413, Note_off_c, 0, 72, 62
1, 56414, Note_on_c, 0, 76, 76
1, 56452, Note_off_c, 0, 76, 59
1, 56456, Note_on_c, 0, 77, 78
1, 56493, Note_off_c, 0, 77, 60
1, 56505, Note_on_c, 0, 76, 67
1, 56541, Note_on_c, 0, 77, 60
1, 56544, Note_off_c, 0, 76, 60
1, 56549, Control_c, 0, 64, 86
1, 56564, Control_c, 0, 64, 61
1, 56578, Control_c, 0, 64, 0
1, 56579, Note_off_c, 0, 77, 58
1, 56593, Note_on_c, 0, 67, 73
1, 56610, Note_on_c, 0, 74, 92
1, 56625, Note_off_c, 0, 67, 61
1, 56653, Note_off_c, 0, 74, 66
1, 56731, Note_on_c, 0, 74, 97
1, 56732, Note_on_c, 0, 67, 75
1, 56768, Note_off_c, 0, 67, 60
1, 56776, Note_off_c, 0, 74, 66
1, 56852, Note_on_c, 0, 84, 93
1, 56903, Note_off_c, 0, 84, 65
1, 56985, Note_on_c, 0, 81, 97
1, 56991, Note_on_c, 0, 65, 73
1, 56993, Note_on_c, 0, 72, 73
1, 57000, Note_on_c, 0, 69, 63
1, 57015, Note_off_c, 0, 72, 70
1, 57016, Note_off_c, 0, 65, 66
1, 57018, Note_off_c, 0, 69, 64
1, 57026, Note_off_c, 0, 81, 65
1, 57138, Note_on_c, 0, 83, 92
1, 57140, Note_on_c, 0, 72, 77
1, 57149, Control_c, 0, 64, 65
1, 57157, Note_on_c, 0, 67, 48
1, 57161, Note_off_c, 0, 72, 70
1, 57164, Control_c, 0, 64, 127
1, 57165, Note_on_c, 0, 64, 41
1, 57182, Note_off_c, 0, 83, 65
1, 57183, Note_off_c, 0, 67, 58
1, 57194, Note_on_c, 0, 81, 79
1, 57198, Note_off_c, 0, 64, 55
1, 57216, Note_off_c, 0, 81, 67
1, 57230, Note_on_c, 0, 83, 76
1, 57243, Poly_aftertouch_c, 0, 65, 0
1, 57262, Note_off_c, 0, 83, 53
1, 57285, Note_on_c, 0, 81, 82
1, 57298, Control_c, 0, 64, 91
1, 57313, Control_c, 0, 64, 68
1, 57327, Control_c, 0, 64, 0
1, 57331, Note_off_c, 0, 81, 63
1, 57343, Note_on_c, 0, 83, 52
1, 57367, Note_off_c, 0, 83, 58
1, 57370, Note_on_c, 0, 79, 78
1, 57382, Note_on_c, 0, 72, 62
1, 57385, Note_on_c, 0, 67, 63
1, 57390, Note_off_c, 0, 79, 70
1, 57407, Note_on_c, 0, 64, 30
1, 57408, Note_off_c, 0, 72, 65
1, 57411, Note_off_c, 0, 67, 65
1, 57443, Note_off_c, 0, 64, 48
1, 57514, Note_on_c, 0, 71, 71
1, 57519, Note_on_c, 0, 62, 54
1, 57519, Note_on_c, 0, 65, 53
1, 57537, Note_off_c, 0, 71, 71
1, 57543, Note_off_c, 0, 62, 59
1, 57543, Note_off_c, 0, 65, 60
1, 57630, Note_on_c, 0, 84, 77
1, 57671, Note_off_c, 0, 84, 65
1, 57753, Note_on_c, 0, 71, 74
1, 57758, Note_on_c, 0, 77, 86
1, 57759, Note_on_c, 0, 62, 61
1, 57765, Note_on_c, 0, 65, 52
1, 57774, Note_off_c, 0, 71, 72
1, 57788, Note_off_c, 0, 65, 59
1, 57790, Note_off_c, 0, 62, 64
1, 57802, Note_off_c, 0, 77, 63
1, 57878, Note_on_c, 0, 79, 82
1, 57885, Note_on_c, 0, 67, 77
1, 57886, Note_on_c, 0, 72, 72
1, 57897, Control_c, 0, 64, 92
1, 57899, Note_on_c, 0, 60, 61
1, 57900, Note_off_c, 0, 79, 66
1, 57907, Note_off_c, 0, 67, 69
1, 57909, Note_on_c, 0, 77, 72
1, 57910, Note_off_c, 0, 72, 69
1, 57912, Control_c, 0, 64, 127
1, 57921, Note_off_c, 0, 60, 61
1, 57932, Note_off_c, 0, 77, 65
1, 57952, Note_on_c, 0, 79, 83
1, 57999, Note_off_c, 0, 79, 61
1, 58002, Control_c, 0, 64, 104
1, 58010, Note_on_c, 0, 77, 77
1, 58017, Control_c, 0, 64, 80
1, 58031, Control_c, 0, 64, 63
1, 58046, Control_c, 0, 64, 0
1, 58058, Note_on_c, 0, 79, 54
1, 58081, Note_off_c, 0, 79, 61
1, 58097, Note_off_c, 0, 77, 35
1, 58109, Note_on_c, 0, 76, 79
1, 58117, Note_on_c, 0, 67, 63
1, 58120, Note_on_c, 0, 72, 56
1, 58136, Note_off_c, 0, 76, 65
1, 58140, Note_on_c, 0, 60, 20
1, 58144, Note_off_c, 0, 72, 61
1, 58145, Note_off_c, 0, 67, 65
1, 58182, Note_off_c, 0, 60, 29
1, 58267, Note_on_c, 0, 72, 57
1, 58269, Note_on_c, 0, 69, 69
1, 58276, Note_on_c, 0, 65, 54
1, 58297, Note_off_c, 0, 72, 65
1, 58298, Note_off_c, 0, 69, 63
1, 58309, Note_off_c, 0, 65, 65
1, 58377, Note_on_c, 0, 84, 70
1, 58427, Note_off_c, 0, 84, 59
1, 58515, Note_on_c, 0, 81, 81
1, 58519, Note_on_c, 0, 69, 59
1, 58523, Note_on_c, 0, 65, 48
1, 58526, Note_on_c, 0, 72, 48
1, 58548, Note_off_c, 0, 69, 67
1, 58548, Note_off_c, 0, 72, 61
1, 58553, Note_off_c, 0, 65, 58
1, 58557, Note_off_c, 0, 81, 63
1, 58633, Note_on_c, 0, 83, 80
1, 58646, Note_on_c, 0, 81, 87
1, 58651, Note_on_c, 0, 72, 66
1, 58655, Note_on_c, 0, 67, 70
1, 58664, Note_on_c, 0, 64, 61
1, 58699, Note_off_c, 0, 83, 60
1, 58702, Note_off_c, 0, 64, 62
1, 58720, Note_off_c, 0, 72, 61
1, 58728, Note_off_c, 0, 67, 59
1, 58741, Note_off_c, 0, 81, 62
1, 58771, Note_on_c, 0, 79, 68
1, 58800, Note_off_c, 0, 79, 62
1, 58890, Note_on_c, 0, 72, 67
1, 58890, Note_on_c, 0, 79, 75
1, 58895, Note_on_c, 0, 64, 59
1, 58897, Note_on_c, 0, 67, 60
1, 58914, Note_off_c, 0, 72, 69
1, 58921, Note_off_c, 0, 79, 60
1, 58927, Note_off_c, 0, 67, 65
1, 58929, Note_off_c, 0, 64, 65
1, 59004, Note_on_c, 0, 81, 84
1, 59016, Note_on_c, 0, 71, 79
1, 59016, Note_on_c, 0, 79, 88
1, 59020, Note_on_c, 0, 62, 69
1, 59024, Note_on_c, 0, 65, 69
1, 59057, Note_off_c, 0, 62, 60
1, 59060, Note_off_c, 0, 65, 62
1, 59060, Note_off_c, 0, 71, 63
1, 59064, Note_off_c, 0, 81, 62
1, 59108, Note_off_c, 0, 79, 61
1, 59145, Note_on_c, 0, 77, 72
1, 59173, Note_off_c, 0, 77, 63
1, 59258, Note_on_c, 0, 77, 85
1, 59259, Note_on_c, 0, 71, 71
1, 59263, Note_on_c, 0, 62, 60
1, 59266, Note_on_c, 0, 65, 60
1, 59283, Note_off_c, 0, 71, 70
1, 59295, Note_off_c, 0, 65, 65
1, 59295, Note_off_c, 0, 62, 63
1, 59302, Note_off_c, 0, 77, 62
1, 59372, Note_on_c, 0, 79, 84
1, 59384, Note_on_c, 0, 60, 79
1, 59385, Note_on_c, 0, 67, 79
1, 59385, Note_on_c, 0, 77, 87
1, 59386, Note_on_c, 0, 72, 76
1, 59435, Note_off_c, 0, 79, 60
1, 59438, Note_off_c, 0, 72, 59
1, 59442, Note_off_c, 0, 60, 61
1, 59460, Note_off_c, 0, 67, 58
1, 59474, Note_off_c, 0, 77, 62
1, 59486, Note_on_c, 0, 76, 73
1, 59528, Note_off_c, 0, 76, 63
1, 59605, Note_on_c, 0, 76, 85
1, 59621, Note_on_c, 0, 60, 63
1, 59622, Note_on_c, 0, 72, 67
1, 59631, Note_on_c, 0, 67, 56
1, 59644, Note_off_c, 0, 72, 69
1, 59648, Note_off_c, 0, 60, 66
1, 59651, Note_off_c, 0, 76, 62
1, 59656, Note_off_c, 0, 67, 62
1, 59732, Note_on_c, 0, 77, 85
1, 59743, Note_on_c, 0, 71, 82
1, 59744, Note_on_c, 0, 67, 70
1, 59745, Note_on_c, 0, 76, 87
1, 59789, Note_off_c, 0, 67, 57
1, 59790, Note_off_c, 0, 77, 61
1, 59796, Note_off_c, 0, 71, 61
1, 59835, Note_off_c, 0, 76, 57
1, 59866, Note_on_c, 0, 74, 78
1, 59911, Note_off_c, 0, 74, 62
1, 59994, Note_on_c, 0, 71, 70
1, 60002, Note_on_c, 0, 67, 58
1, 60002, Note_on_c, 0, 74, 78
1, 60017, Note_off_c, 0, 71, 72
1, 60028, Note_off_c, 0, 74, 63
1, 60029, Note_off_c, 0, 67, 63
1, 60121, Note_on_c, 0, 69, 78
1, 60122, Note_on_c, 0, 72, 83
1, 60162, Note_off_c, 0, 69, 63
1, 60249, Note_on_c, 0, 67, 79
1, 60276, Note_off_c, 0, 67, 64
1, 60362, Note_on_c, 0, 84, 74
1, 60369, Note_on_c, 0, 65, 75
1, 60393, Note_off_c, 0, 84, 60
1, 60400, Note_off_c, 0, 65, 63
1, 60411, Note_off_c, 0, 72, 64
1, 60486, Note_on_c, 0, 76, 84
1, 60488, Note_on_c, 0, 67, 79
1, 60498, Note_on_c, 0, 72, 76
1, 60500, Control_c, 0, 64, 65
1, 60515, Control_c, 0, 64, 90
1, 60530, Control_c, 0, 64, 100
1, 60544, Control_c, 0, 64, 99
1, 60553, Note_off_c, 0, 67, 58
1, 60559, Control_c, 0, 64, 91
1, 60574, Control_c, 0, 64, 87
1, 60589, Control_c, 0, 64, 83
1, 60600, Note_on_c, 0, 77, 77
1, 60604, Control_c, 0, 64, 77
1, 60611, Note_off_c, 0, 76, 51
1, 60619, Note_off_c, 0, 72, 59
1, 60619, Control_c, 0, 64, 66
1, 60641, Control_c, 0, 64, 0
1, 60661, Note_off_c, 0, 77, 62
1, 60731, Note_on_c, 0, 55, 64
1, 60737, Note_on_c, 0, 71, 72
1, 60737, Note_on_c, 0, 74, 80
1, 60760, Note_off_c, 0, 55, 65
1, 60763, Note_off_c, 0, 71, 67
1, 60771, Note_off_c, 0, 74, 63
1, 60863, Note_on_c, 0, 60, 69
1, 60866, Note_on_c, 0, 72, 82
1, 60897, Note_off_c, 0, 60, 64
1, 60980, Note_on_c, 0, 55, 63
1, 61006, Note_off_c, 0, 55, 66
1, 61106, Note_on_c, 0, 48, 65
1, 61107, Note_on_c, 0, 84, 84
1, 61139, Note_off_c, 0, 48, 64
1, 61190, Control_c, 0, 64, 74
1, 61200, Note_off_c, 0, 84, 57
1, 61205, Control_c, 0, 64, 93
1, 61219, Control_c, 0, 64, 110
1, 61230, Note_off_c, 0, 72, 61
1, 61234, Control_c, 0, 64, 114
1, 61236, Note_on_c, 0, 43, 80
1, 61262, Note_off_c, 0, 43, 67
1, 61308, Control_c, 0, 64, 112
1, 61323, Control_c, 0, 64, 94
1, 61338, Control_c, 0, 64, 72
1, 61353, Control_c, 0, 64, 0
1, 61358, Note_on_c, 0, 71, 75
1, 61358, Note_on_c, 0, 74, 79
1, 61391, Note_off_c, 0, 71, 66
1, 61397, Note_off_c, 0, 74, 62
1, 61477, Note_on_c, 0, 77, 86
1, 61528, Note_off_c, 0, 77, 64
1, 61602, Note_on_c, 0, 60, 73
1, 61606, Note_on_c, 0, 76, 87
1, 61613, Note_on_c, 0, 72, 73
1, 61630, Note_off_c, 0, 60, 65
1, 61655, Note_off_c, 0, 76, 62
1, 61724, Note_on_c, 0, 55, 63
1, 61752, Note_off_c, 0, 55, 66
1, 61850, Note_on_c, 0, 48, 56
1, 61854, Note_on_c, 0, 84, 94
1, 61880, Note_off_c, 0, 48, 65
1, 61893, Control_c, 0, 64, 75
1, 61908, Control_c, 0, 64, 95
1, 61914, Note_off_c, 0, 84, 66
1, 61923, Control_c, 0, 64, 127
1, 61942, Note_off_c, 0, 72, 56
1, 61973, Note_on_c, 0, 43, 71
1, 61999, Note_off_c, 0, 43, 65
1, 62102, Control_c, 0, 64, 98
1, 62107, Note_on_c, 0, 74, 82
1, 62109, Note_on_c, 0, 71, 71
1, 62116, Control_c, 0, 64, 66
1, 62139, Control_c, 0, 64, 0
1, 62141, Note_off_c, 0, 71, 66
1, 62145, Note_off_c, 0, 74, 64
1, 62224, Note_on_c, 0, 77, 83
1, 62269, Note_off_c, 0, 77, 64
1, 62348, Note_on_c, 0, 76, 80
1, 62349, Note_on_c, 0, 60, 68
1, 62355, Note_on_c, 0, 72, 70
1, 62377, Note_off_c, 0, 60, 67
1, 62388, Note_off_c, 0, 76, 64
1, 62471, Note_on_c, 0, 55, 57
1, 62500, Note_off_c, 0, 55, 64
1, 62592, Note_on_c, 0, 84, 74
1, 62597, Note_on_c, 0, 48, 46
1, 62626, Note_off_c, 0, 48, 58
1, 62628, Control_c, 0, 64, 34
1, 62643, Control_c, 0, 64, 75
1, 62652, Note_off_c, 0, 84, 65
1, 62658, Control_c, 0, 64, 96
1, 62673, Control_c, 0, 64, 127
1, 62691, Note_off_c, 0, 72, 59
1, 62717, Note_on_c, 0, 43, 68
1, 62747, Note_off_c, 0, 43, 64
1, 62792, Control_c, 0, 64, 86
1, 62807, Control_c, 0, 64, 63
1, 62822, Control_c, 0, 64, 0
1, 62853, Note_on_c, 0, 71, 65
1, 62855, Note_on_c, 0, 74, 66
1, 62887, Note_off_c, 0, 71, 68
1, 62901, Note_off_c, 0, 74, 60
1, 62981, Note_on_c, 0, 77, 77
1, 63024, Note_off_c, 0, 77, 63
1, 63094, Note_on_c, 0, 60, 71
1, 63098, Note_on_c, 0, 76, 88
1, 63111, Note_on_c, 0, 72, 70
1, 63133, Note_off_c, 0, 60, 62
1, 63135, Note_off_c, 0, 72, 68
1, 63149, Note_off_c, 0, 76, 63
1, 63224, Note_on_c, 0, 77, 81
1, 63228, Note_on_c, 0, 74, 82
1, 63262, Note_off_c, 0, 74, 65
1, 63270, Note_off_c, 0, 77, 64
1, 63336, Note_on_c, 0, 76, 86
1, 63337, Note_on_c, 0, 79, 84
1, 63340, Note_on_c, 0, 52, 78
1, 63379, Note_off_c, 0, 52, 61
1, 63389, Note_off_c, 0, 76, 61
1, 63392, Note_off_c, 0, 79, 63
1, 63460, Note_on_c, 0, 74, 84
1, 63463, Note_on_c, 0, 77, 82
1, 63465, Note_on_c, 0, 53, 80
1, 63500, Note_off_c, 0, 53, 63
1, 63512, Note_off_c, 0, 74, 65
1, 63520, Note_off_c, 0, 77, 60
1, 63583, Note_on_c, 0, 76, 82
1, 63598, Note_on_c, 0, 72, 63
1, 63617, Note_off_c, 0, 76, 59
1, 63623, Note_off_c, 0, 72, 65
1, 63713, Note_on_c, 0, 55, 64
1, 63719, Note_on_c, 0, 74, 74
1, 63720, Note_on_c, 0, 72, 51
1, 63741, Note_off_c, 0, 55, 65
1, 63742, Note_off_c, 0, 74, 71
1, 63746, Note_off_c, 0, 72, 59
1, 63814, Control_c, 0, 67, 16
1, 63829, Control_c, 0, 67, 35
1, 63838, Note_on_c, 0, 72, 60
1, 63844, Control_c, 0, 67, 62
1, 63853, Note_on_c, 0, 60, 50
1, 63859, Control_c, 0, 67, 94
1, 63874, Control_c, 0, 67, 127
1, 63879, Note_off_c, 0, 60, 59
1, 63962, Note_on_c, 0, 55, 53
1, 63991, Note_off_c, 0, 55, 64
1, 64090, Note_on_c, 0, 48, 40
1, 64099, Note_on_c, 0, 84, 59
1, 64120, Note_off_c, 0, 48, 53
1, 64169, Control_c, 0, 64, 65
1, 64184, Control_c, 0, 64, 74
1, 64187, Note_off_c, 0, 84, 61
1, 64199, Control_c, 0, 64, 79
1, 64213, Note_off_c, 0, 72, 60
1, 64214, Control_c, 0, 64, 82
1, 64229, Control_c, 0, 64, 84
1, 64231, Note_on_c, 0, 43, 49
1, 64244, Control_c, 0, 64, 84
1, 64259, Control_c, 0, 64, 84
1, 64261, Note_off_c, 0, 43, 53
1, 64273, Control_c, 0, 64, 78
1, 64288, Control_c, 0, 64, 68
1, 64303, Control_c, 0, 64, 0
1, 64349, Note_on_c, 0, 71, 57
1, 64356, Note_on_c, 0, 74, 53
1, 64369, Note_off_c, 0, 71, 65
1, 64386, Note_off_c, 0, 74, 61
1, 64468, Note_on_c, 0, 77, 63
1, 64496, Note_off_c, 0, 77, 67
1, 64594, Note_on_c, 0, 76, 60
1, 64601, Note_on_c, 0, 60, 44
1, 64608, Note_on_c, 0, 72, 45
1, 64617, Note_off_c, 0, 76, 60
1, 64628, Note_off_c, 0, 60, 59
1, 64720, Note_on_c, 0, 55, 35
1, 64752, Note_off_c, 0, 55, 47
1, 64849, Note_on_c, 0, 84, 61
1, 64889, Control_c, 0, 64, 62
1, 64903, Control_c, 0, 64, 72
1, 64918, Control_c, 0, 64, 83
1, 64933, Control_c, 0, 64, 94
1, 64938, Note_off_c, 0, 84, 60
1, 64948, Control_c, 0, 64, 99
1, 64962, Control_c, 0, 64, 102
1, 64965, Note_off_c, 0, 72, 57
1, 64977, Control_c, 0, 64, 104
1, 64992, Control_c, 0, 64, 105
1, 65022, Control_c, 0, 64, 104
1, 65037, Control_c, 0, 64, 99
1, 65047, Poly_aftertouch_c, 0, 43, 0
1, 65051, Control_c, 0, 64, 89
1, 65066, Control_c, 0, 64, 77
1, 65074, Poly_aftertouch_c, 0, 43, 0
1, 65081, Control_c, 0, 64, 65
1, 65096, Control_c, 0, 64, 0
1, 65114, Note_on_c, 0, 71, 55
1, 65120, Note_on_c, 0, 74, 49
1, 65146, Note_off_c, 0, 71, 62
1, 65154, Note_off_c, 0, 74, 59
1, 65232, Note_on_c, 0, 77, 65
1, 65257, Note_off_c, 0, 77, 68
1, 65347, Note_on_c, 0, 76, 69
1, 65349, Note_on_c, 0, 60, 55
1, 65362, Note_on_c, 0, 72, 50
1, 65381, Note_off_c, 0, 60, 66
1, 65382, Note_off_c, 0, 76, 58
1, 65469, Note_on_c, 0, 55, 53
1, 65496, Note_off_c, 0, 55, 62
1, 65602, Note_on_c, 0, 48, 49
1, 65615, Note_on_c, 0, 84, 58
1, 65632, Note_off_c, 0, 48, 61
1, 65667, Control_c, 0, 64, 67
1, 65682, Control_c, 0, 64, 77
1, 65697, Note_off_c, 0, 84, 60
1, 65697, Control_c, 0, 64, 89
1, 65712, Control_c, 0, 64, 95
1, 65726, Control_c, 0, 64, 96
1, 65729, Note_off_c, 0, 72, 59
1, 65741, Control_c, 0, 64, 97
1, 65757, Note_on_c, 0, 43, 39
1, 65785, Control_c, 0, 64, 97
1, 65794, Note_off_c, 0, 43, 49
1, 65830, Control_c, 0, 64, 96
1, 65845, Control_c, 0, 64, 96
1, 65859, Control_c, 0, 64, 95
1, 65882, Control_c, 0, 64, 90
1, 65892, Note_on_c, 0, 71, 57
1, 65897, Control_c, 0, 64, 82
1, 65901, Note_on_c, 0, 74, 53
1, 65911, Control_c, 0, 64, 71
1, 65913, Note_off_c, 0, 71, 64
1, 65926, Control_c, 0, 64, 53
1, 65938, Note_off_c, 0, 74, 62
1, 65941, Control_c, 0, 64, 0
1, 66024, Note_on_c, 0, 77, 60
1, 66054, Note_off_c, 0, 77, 66
1, 66141, Note_on_c, 0, 60, 54
1, 66150, Note_on_c, 0, 76, 62
1, 66152, Note_on_c, 0, 72, 58
1, 66175, Note_off_c, 0, 60, 66
1, 66180, Note_off_c, 0, 72, 66
1, 66182, Note_off_c, 0, 76, 62
1, 66271, Note_on_c, 0, 77, 62
1, 66277, Note_on_c, 0, 74, 55
1, 66300, Note_off_c, 0, 74, 63
1, 66300, Note_off_c, 0, 77, 63
1, 66380, Note_on_c, 0, 52, 50
1, 66383, Note_on_c, 0, 76, 59
1, 66389, Note_on_c, 0, 79, 58
1, 66408, Note_off_c, 0, 52, 60
1, 66422, Note_off_c, 0, 76, 58
1, 66423, Note_off_c, 0, 79, 62
1, 66504, Note_on_c, 0, 53, 63
1, 66507, Note_on_c, 0, 77, 66
1, 66509, Note_on_c, 0, 74, 63
1, 66543, Note_off_c, 0, 53, 64
1, 66547, Note_off_c, 0, 74, 59
1, 66551, Note_off_c, 0, 77, 59
1, 66614, Note_on_c, 0, 76, 71
1, 66634, Note_on_c, 0, 72, 54
1, 66654, Note_off_c, 0, 72, 64
1, 66654, Note_off_c, 0, 76, 59
1, 66743, Note_on_c, 0, 55, 62
1, 66744, Note_on_c, 0, 74, 71
1, 66745, Note_on_c, 0, 71, 62
1, 66766, Control_c, 0, 67, 121
1, 66774, Note_off_c, 0, 71, 66
1, 66775, Note_off_c, 0, 74, 64
1, 66776, Note_off_c, 0, 55, 63
1, 66780, Control_c, 0, 67, 100
1, 66795, Control_c, 0, 67, 76
1, 66810, Control_c, 0, 67, 46
1, 66825, Control_c, 0, 67, 18
1, 66839, Control_c, 0, 67, 0
1, 66870, Note_on_c, 0, 79, 65
1, 66876, Note_on_c, 0, 76, 59
1, 66878, Note_on_c, 0, 52, 59
1, 66903, Note_off_c, 0, 79, 59
1, 66903, Note_off_c, 0, 76, 61
1, 66908, Note_off_c, 0, 52, 64
1, 66992, Note_on_c, 0, 74, 66
1, 66993, Note_on_c, 0, 77, 67
1, 67021, Note_off_c, 0, 74, 68
1, 67023, Note_off_c, 0, 77, 60
1, 67113, Note_on_c, 0, 76, 68
1, 67114, Note_on_c, 0, 57, 53
1, 67116, Note_on_c, 0, 72, 66
1, 67145, Note_off_c, 0, 76, 60
1, 67148, Note_off_c, 0, 72, 62
1, 67149, Note_off_c, 0, 57, 64
1, 67237, Note_on_c, 0, 74, 82
1, 67239, Note_on_c, 0, 53, 71
1, 67244, Note_on_c, 0, 77, 74
1, 67276, Note_off_c, 0, 53, 65
1, 67284, Note_off_c, 0, 74, 65
1, 67286, Note_off_c, 0, 77, 59
1, 67355, Note_on_c, 0, 76, 80
1, 67363, Note_on_c, 0, 72, 70
1, 67393, Note_off_c, 0, 72, 70
1, 67406, Note_off_c, 0, 76, 62
1, 67479, Note_on_c, 0, 74, 83
1, 67480, Note_on_c, 0, 55, 66
1, 67481, Note_on_c, 0, 71, 77
1, 67509, Note_off_c, 0, 71, 61
1, 67519, Note_off_c, 0, 55, 62
1, 67525, Note_off_c, 0, 74, 64
1, 67603, Note_on_c, 0, 76, 79
1, 67606, Note_on_c, 0, 79, 79
1, 67611, Note_on_c, 0, 52, 66
1, 67641, Note_off_c, 0, 52, 64
1, 67642, Note_off_c, 0, 79, 61
1, 67644, Note_off_c, 0, 76, 62
1, 67735, Note_on_c, 0, 77, 69
1, 67737, Note_on_c, 0, 74, 68
1, 67762, Note_off_c, 0, 74, 70
1, 67766, Note_off_c, 0, 77, 61
1, 67853, Note_on_c, 0, 57, 49
1, 67862, Note_on_c, 0, 76, 63
1, 67868, Note_on_c, 0, 72, 54
1, 67881, Note_off_c, 0, 57, 56
1, 67884, Note_off_c, 0, 76, 64
1, 67889, Note_off_c, 0, 72, 61
1, 67979, Note_on_c, 0, 53, 54
1, 67979, Note_on_c, 0, 77, 66
1, 67981, Note_on_c, 0, 74, 62
1, 68006, Note_off_c, 0, 53, 64
1, 68009, Note_off_c, 0, 77, 62
1, 68012, Note_off_c, 0, 74, 68
1, 68100, Note_on_c, 0, 76, 67
1, 68104, Note_on_c, 0, 72, 57
1, 68135, Note_off_c, 0, 76, 64
1, 68138, Note_off_c, 0, 72, 64
1, 68229, Note_on_c, 0, 74, 66
1, 68233, Note_on_c, 0, 71, 63
1, 68235, Note_on_c, 0, 55, 51
1, 68259, Note_off_c, 0, 74, 65
1, 68261, Note_off_c, 0, 71, 68
1, 68265, Note_off_c, 0, 55, 64
1, 68356, Note_on_c, 0, 76, 61
1, 68359, Note_on_c, 0, 52, 60
1, 68360, Note_on_c, 0, 79, 61
1, 68390, Note_off_c, 0, 52, 64
1, 68392, Note_off_c, 0, 76, 61
1, 68392, Note_off_c, 0, 79, 62
1, 68468, Note_on_c, 0, 77, 72
1, 68477, Note_on_c, 0, 74, 62
1, 68507, Note_off_c, 0, 74, 67
1, 68515, Note_off_c, 0, 77, 58
1, 68581, Note_on_c, 0, 57, 60
1, 68585, Note_on_c, 0, 76, 70
1, 68602, Note_on_c, 0, 72, 53
1, 68609, Note_off_c, 0, 76, 67
1, 68619, Note_off_c, 0, 57, 61
1, 68626, Note_off_c, 0, 72, 59
1, 68694, Note_on_c, 0, 76, 64
1, 68705, Note_on_c, 0, 53, 64
1, 68713, Note_off_c, 0, 76, 63
1, 68726, Note_on_c, 0, 74, 74
1, 68736, Note_off_c, 0, 53, 65
1, 68748, Note_off_c, 0, 74, 71
1, 68755, Note_on_c, 0, 76, 78
1, 68788, Note_off_c, 0, 76, 57
1, 68808, Note_on_c, 0, 74, 70
1, 68835, Note_off_c, 0, 74, 69
1, 68836, Note_on_c, 0, 72, 70
1, 68867, Note_off_c, 0, 72, 60
1, 68965, Note_on_c, 0, 71, 73
1, 68977, Note_on_c, 0, 55, 45
1, 68992, Note_off_c, 0, 71, 65
1, 69007, Note_off_c, 0, 55, 58
1, 69038, Note_on_c, 0, 72, 61
1, 69064, Note_off_c, 0, 72, 65
1, 69083, Note_on_c, 0, 71, 63
1, 69101, Note_off_c, 0, 71, 66
1, 69117, Note_on_c, 0, 48, 40
1, 69128, Note_on_c, 0, 72, 56
1, 69201, Note_off_c, 0, 72, 0
1, 69218, Note_on_c, 0, 72, 37
1, 69234, Control_c, 0, 64, 62
1, 69249, Control_c, 0, 64, 70
1, 69264, Control_c, 0, 64, 80
1, 69279, Control_c, 0, 64, 97
1, 69293, Note_off_c, 0, 48, 53
1, 69294, Control_c, 0, 64, 112
1, 69308, Control_c, 0, 64, 122
1, 69314, Note_off_c, 0, 72, 58
1, 69323, Control_c, 0, 64, 127
1, 69487, Control_c, 0, 64, 101
1, 69501, Control_c, 0, 64, 69
1, 69516, Control_c, 0, 64, 0
1, 69659, Note_on_c, 0, 79, 52
1, 69692, Note_off_c, 0, 79, 63
1, 69767, Note_on_c, 0, 72, 59
1, 69767, Note_on_c, 0, 75, 71
1, 69772, Note_on_c, 0, 67, 54
1, 69799, Note_off_c, 0, 72, 65
1, 69802, Note_off_c, 0, 75, 57
1, 69807, Note_off_c, 0, 67, 63
1, 69891, Note_on_c, 0, 77, 62
1, 69898, Note_on_c, 0, 71, 69
1, 69902, Note_on_c, 0, 67, 68
1, 69903, Note_on_c, 0, 75, 81
1, 69934, Note_off_c, 0, 77, 58
1, 69969, Note_off_c, 0, 71, 54
1, 69994, Note_off_c, 0, 67, 51
1, 70031, Note_on_c, 0, 74, 78
1, 70047, Note_off_c, 0, 75, 55
1, 70083, Note_off_c, 0, 74, 64
1, 70148, Note_on_c, 0, 74, 87
1, 70151, Note_on_c, 0, 67, 72
1, 70152, Note_on_c, 0, 71, 70
1, 70177, Note_off_c, 0, 71, 67
1, 70186, Note_off_c, 0, 67, 58
1, 70199, Note_off_c, 0, 74, 65
1, 70264, Note_on_c, 0, 75, 83
1, 70277, Note_on_c, 0, 67, 74
1, 70280, Note_on_c, 0, 68, 68
1, 70285, Note_on_c, 0, 74, 90
1, 70338, Note_off_c, 0, 75, 55
1, 70378, Note_off_c, 0, 67, 54
1, 70380, Note_off_c, 0, 68, 50
1, 70414, Note_on_c, 0, 72, 81
1, 70417, Note_off_c, 0, 74, 64
1, 70460, Note_off_c, 0, 72, 63
1, 70527, Note_on_c, 0, 72, 90
1, 70528, Note_on_c, 0, 68, 69
1, 70532, Note_on_c, 0, 65, 64
1, 70563, Note_off_c, 0, 65, 65
1, 70569, Note_off_c, 0, 68, 61
1, 70576, Note_off_c, 0, 72, 65
1, 70645, Note_on_c, 0, 74, 85
1, 70654, Note_on_c, 0, 67, 84
1, 70664, Note_on_c, 0, 72, 81
1, 70699, Note_off_c, 0, 74, 62
1, 70736, Note_off_c, 0, 67, 57
1, 70773, Note_off_c, 0, 72, 62
1, 70789, Note_on_c, 0, 71, 74
1, 70818, Note_off_c, 0, 71, 62
1, 70904, Note_on_c, 0, 67, 60
1, 70909, Note_on_c, 0, 71, 68
1, 70927, Note_off_c, 0, 67, 63
1, 70934, Note_off_c, 0, 71, 68
1, 70983, Control_c, 0, 67, 12
1, 70998, Control_c, 0, 67, 23
1, 71013, Control_c, 0, 67, 40
1, 71028, Control_c, 0, 67, 57
1, 71043, Control_c, 0, 67, 72
1, 71045, Note_on_c, 0, 67, 46
1, 71049, Note_on_c, 0, 72, 64
1, 71058, Control_c, 0, 67, 89
1, 71072, Control_c, 0, 67, 109
1, 71087, Control_c, 0, 67, 127
1, 71106, Note_off_c, 0, 72, 54
1, 71128, Note_off_c, 0, 67, 53
1, 71189, Note_on_c, 0, 79, 44
1, 71216, Note_off_c, 0, 79, 55
1, 71308, Note_on_c, 0, 72, 49
1, 71309, Note_on_c, 0, 67, 44
1, 71317, Note_on_c, 0, 75, 43
1, 71332, Note_off_c, 0, 72, 58
1, 71338, Note_off_c, 0, 67, 60
1, 71343, Note_off_c, 0, 75, 58
1, 71428, Note_on_c, 0, 77, 55
1, 71434, Note_on_c, 0, 67, 54
1, 71437, Note_on_c, 0, 75, 53
1, 71453, Note_on_c, 0, 71, 41
1, 71473, Note_off_c, 0, 77, 58
1, 71496, Note_off_c, 0, 71, 50
1, 71508, Note_off_c, 0, 67, 54
1, 71553, Note_off_c, 0, 75, 60
1, 71587, Note_on_c, 0, 74, 44
1, 71614, Note_off_c, 0, 74, 58
1, 71680, Note_on_c, 0, 67, 55
1, 71688, Note_on_c, 0, 71, 48
1, 71688, Note_on_c, 0, 74, 60
1, 71710, Note_off_c, 0, 71, 60
1, 71715, Note_off_c, 0, 67, 63
1, 71720, Note_off_c, 0, 74, 65
1, 71813, Note_on_c, 0, 75, 58
1, 71818, Note_on_c, 0, 68, 62
1, 71827, Note_on_c, 0, 74, 59
1, 71839, Note_on_c, 0, 65, 50
1, 71884, Note_off_c, 0, 65, 62
1, 71902, Note_off_c, 0, 75, 39
1, 71929, Note_off_c, 0, 74, 62
1, 71953, Note_off_c, 0, 68, 53
1, 71990, Note_on_c, 0, 72, 13
1, 72057, Note_off_c, 0, 72, 0
1, 72070, Note_on_c, 0, 67, 40
1, 72072, Note_on_c, 0, 72, 44
1, 72072, Note_on_c, 0, 68, 43
1, 72096, Note_off_c, 0, 67, 57
1, 72097, Note_off_c, 0, 72, 59
1, 72099, Note_off_c, 0, 68, 60
1, 72182, Note_on_c, 0, 74, 59
1, 72183, Note_on_c, 0, 67, 61
1, 72188, Note_on_c, 0, 72, 58
1, 72221, Note_off_c, 0, 74, 60
1, 72253, Note_off_c, 0, 67, 58
1, 72311, Note_off_c, 0, 72, 60
1, 72340, Note_on_c, 0, 71, 57
1, 72361, Note_off_c, 0, 71, 63
1, 72393, Control_c, 0, 67, 113
1, 72408, Control_c, 0, 67, 89
1, 72423, Control_c, 0, 67, 63
1, 72438, Control_c, 0, 67, 41
1, 72444, Note_on_c, 0, 71, 62
1, 72452, Control_c, 0, 67, 21
1, 72453, Note_on_c, 0, 67, 47
1, 72467, Control_c, 0, 67, 0
1, 72470, Note_off_c, 0, 71, 69
1, 72481, Note_off_c, 0, 67, 56
1, 72576, Note_on_c, 0, 65, 79
1, 72578, Note_on_c, 0, 72, 79
1, 72584, Note_on_c, 0, 68, 75
1, 72662, Note_off_c, 0, 72, 57
1, 72665, Note_off_c, 0, 65, 60
1, 72676, Note_off_c, 0, 68, 57
1, 72715, Note_on_c, 0, 84, 73
1, 72751, Note_off_c, 0, 84, 65
1, 72823, Note_on_c, 0, 68, 72
1, 72829, Note_on_c, 0, 72, 69
1, 72835, Note_on_c, 0, 80, 85
1, 72838, Note_on_c, 0, 65, 56
1, 72855, Note_off_c, 0, 72, 65
1, 72856, Note_off_c, 0, 68, 60
1, 72859, Note_off_c, 0, 65, 61
1, 72870, Note_off_c, 0, 80, 63
1, 72943, Note_on_c, 0, 82, 81
1, 72949, Note_on_c, 0, 72, 82
1, 72957, Note_on_c, 0, 80, 95
1, 72963, Note_on_c, 0, 67, 69
1, 72964, Note_on_c, 0, 70, 64
1, 72980, Note_on_c, 0, 64, 45
1, 72998, Note_off_c, 0, 82, 64
1, 73004, Note_off_c, 0, 67, 57
1, 73005, Note_off_c, 0, 70, 59
1, 73005, Note_off_c, 0, 72, 58
1, 73010, Note_off_c, 0, 64, 57
1, 73064, Note_off_c, 0, 80, 60
1, 73079, Note_on_c, 0, 79, 83
1, 73126, Note_off_c, 0, 79, 62
1, 73192, Note_on_c, 0, 64, 75
1, 73195, Note_on_c, 0, 72, 67
1, 73196, Note_on_c, 0, 79, 94
1, 73198, Note_on_c, 0, 70, 65
1, 73220, Note_off_c, 0, 72, 68
1, 73228, Note_off_c, 0, 70, 65
1, 73229, Note_off_c, 0, 64, 59
1, 73243, Note_off_c, 0, 79, 62
1, 73311, Note_on_c, 0, 80, 84
1, 73321, Note_on_c, 0, 73, 74
1, 73324, Note_on_c, 0, 65, 68
1, 73330, Note_on_c, 0, 70, 67
1, 73330, Note_on_c, 0, 79, 90
1, 73386, Note_off_c, 0, 80, 61
1, 73389, Note_off_c, 0, 65, 60
1, 73392, Note_off_c, 0, 73, 59
1, 73398, Note_off_c, 0, 70, 57
1, 73449, Note_off_c, 0, 79, 61
1, 73464, Note_on_c, 0, 77, 76
1, 73498, Note_off_c, 0, 77, 60
1, 73558, Note_on_c, 0, 73, 61
1, 73569, Note_on_c, 0, 65, 38
1, 73579, Note_on_c, 0, 70, 44
1, 73583, Note_on_c, 0, 77, 81
1, 73584, Note_off_c, 0, 73, 65
1, 73598, Note_off_c, 0, 65, 53
1, 73604, Note_off_c, 0, 70, 55
1, 73617, Note_off_c, 0, 77, 61
1, 73698, Note_on_c, 0, 79, 84
1, 73700, Note_on_c, 0, 72, 72
1, 73702, Note_on_c, 0, 67, 70
1, 73704, Note_on_c, 0, 60, 71
1, 73710, Note_on_c, 0, 77, 79
1, 73733, Note_off_c, 0, 72, 59
1, 73739, Note_off_c, 0, 67, 54
1, 73741, Note_off_c, 0, 60, 60
1, 73757, Note_off_c, 0, 79, 62
1, 73789, Note_off_c, 0, 77, 62
1, 73815, Note_on_c, 0, 76, 71
1, 73846, Note_off_c, 0, 76, 62
1, 73934, Note_on_c, 0, 67, 58
1, 73937, Note_on_c, 0, 60, 43
1, 73951, Note_on_c, 0, 72, 35
1, 73953, Note_on_c, 0, 76, 64
1, 73965, Note_off_c, 0, 67, 64
1, 73967, Note_off_c, 0, 60, 57
1, 73980, Note_off_c, 0, 72, 54
1, 73985, Note_off_c, 0, 76, 63
1, 74075, Note_on_c, 0, 72, 52
1, 74090, Note_on_c, 0, 68, 49
1, 74096, Note_on_c, 0, 65, 44
1, 74149, Note_off_c, 0, 65, 59
1, 74155, Note_off_c, 0, 72, 49
1, 74155, Note_off_c, 0, 68, 54
1, 74212, Note_on_c, 0, 84, 48
1, 74237, Note_off_c, 0, 84, 57
1, 74329, Note_on_c, 0, 80, 60
1, 74331, Note_on_c, 0, 68, 43
1, 74340, Note_on_c, 0, 72, 37
1, 74346, Note_on_c, 0, 65, 26
1, 74352, Note_off_c, 0, 80, 61
1, 74370, Note_off_c, 0, 72, 53
1, 74370, Note_off_c, 0, 68, 62
1, 74382, Note_off_c, 0, 65, 45
1, 74451, Note_on_c, 0, 82, 66
1, 74462, Note_on_c, 0, 72, 47
1, 74469, Note_on_c, 0, 80, 60
1, 74474, Note_on_c, 0, 64, 51
1, 74481, Note_on_c, 0, 67, 47
1, 74497, Note_on_c, 0, 70, 35
1, 74504, Note_off_c, 0, 82, 53
1, 74534, Note_off_c, 0, 64, 56
1, 74534, Note_off_c, 0, 72, 47
1, 74539, Note_off_c, 0, 67, 54
1, 74539, Note_off_c, 0, 70, 55
1, 74581, Note_off_c, 0, 80, 60
1, 74592, Note_on_c, 0, 79, 61
1, 74620, Note_off_c, 0, 79, 65
1, 74703, Note_on_c, 0, 79, 72
1, 74722, Note_on_c, 0, 72, 36
1, 74723, Note_on_c, 0, 64, 20
1, 74747, Note_off_c, 0, 79, 60
1, 74754, Note_off_c, 0, 72, 56
1, 74769, Note_off_c, 0, 64, 28
1, 74826, Note_on_c, 0, 80, 70
1, 74839, Note_on_c, 0, 73, 65
1, 74847, Note_on_c, 0, 79, 79
1, 74848, Note_on_c, 0, 65, 50
1, 74871, Note_on_c, 0, 70, 40
1, 74917, Note_off_c, 0, 80, 48
1, 74924, Note_off_c, 0, 73, 55
1, 74930, Note_off_c, 0, 70, 56
1, 74960, Note_off_c, 0, 65, 45
1, 74966, Note_off_c, 0, 79, 59
1, 74984, Note_on_c, 0, 77, 60
1, 75006, Note_off_c, 0, 77, 65
1, 75077, Note_on_c, 0, 65, 41
1, 75090, Note_on_c, 0, 77, 65
1, 75098, Note_on_c, 0, 70, 41
1, 75098, Note_on_c, 0, 73, 33
1, 75106, Note_off_c, 0, 65, 59
1, 75124, Note_off_c, 0, 77, 60
1, 75126, Note_off_c, 0, 70, 53
1, 75133, Note_off_c, 0, 73, 53
1, 75216, Note_on_c, 0, 79, 69
1, 75219, Note_on_c, 0, 72, 64
1, 75227, Note_on_c, 0, 67, 57
1, 75228, Note_on_c, 0, 77, 67
1, 75237, Note_on_c, 0, 60, 45
1, 75276, Note_off_c, 0, 79, 53
1, 75290, Note_off_c, 0, 60, 56
1, 75303, Note_off_c, 0, 72, 38
1, 75309, Note_off_c, 0, 67, 37
1, 75321, Note_off_c, 0, 77, 61
1, 75337, Note_on_c, 0, 76, 70
1, 75366, Note_off_c, 0, 76, 63
1, 75463, Note_on_c, 0, 67, 59
1, 75467, Note_on_c, 0, 72, 49
1, 75470, Note_on_c, 0, 60, 38
1, 75472, Note_on_c, 0, 76, 72
1, 75494, Note_off_c, 0, 67, 64
1, 75495, Note_off_c, 0, 72, 57
1, 75501, Note_off_c, 0, 60, 55
1, 75517, Note_off_c, 0, 76, 61
1, 75604, Note_on_c, 0, 67, 63
1, 75617, Note_on_c, 0, 72, 54
1, 75624, Note_on_c, 0, 64, 61
1, 75714, Note_off_c, 0, 72, 59
1, 75718, Note_off_c, 0, 64, 59
1, 75728, Note_on_c, 0, 79, 89
1, 75733, Note_off_c, 0, 67, 58
1, 75783, Note_off_c, 0, 79, 63
1, 75853, Note_on_c, 0, 64, 58
1, 75853, Note_on_c, 0, 67, 65
1, 75857, Note_on_c, 0, 72, 58
1, 75858, Note_on_c, 0, 79, 94
1, 75903, Note_off_c, 0, 72, 56
1, 75907, Note_off_c, 0, 67, 59
1, 75914, Note_off_c, 0, 64, 59
1, 75920, Note_off_c, 0, 79, 60
1, 76015, Note_on_c, 0, 79, 85
1, 76021, Note_on_c, 0, 72, 63
1, 76030, Note_on_c, 0, 65, 58
1, 76042, Note_on_c, 0, 68, 52
1, 76143, Note_off_c, 0, 72, 54
1, 76150, Note_off_c, 0, 65, 57
1, 76160, Note_on_c, 0, 82, 76
1, 76161, Note_off_c, 0, 68, 55
1, 76165, Note_off_c, 0, 79, 59
1, 76283, Note_on_c, 0, 65, 46
1, 76284, Note_on_c, 0, 68, 53
1, 76284, Note_on_c, 0, 72, 33
1, 76289, Note_on_c, 0, 80, 71
1, 76295, Note_off_c, 0, 82, 40
1, 76309, Note_off_c, 0, 65, 59
1, 76313, Note_off_c, 0, 68, 64
1, 76314, Note_off_c, 0, 72, 52
1, 76324, Note_off_c, 0, 80, 61
1, 76427, Note_on_c, 0, 65, 55
1, 76443, Note_on_c, 0, 62, 54
1, 76505, Note_off_c, 0, 62, 53
1, 76514, Note_off_c, 0, 65, 58
1, 76551, Note_on_c, 0, 77, 74
1, 76584, Note_off_c, 0, 77, 59
1, 76662, Note_on_c, 0, 65, 68
1, 76674, Note_on_c, 0, 62, 53
1, 76674, Note_on_c, 0, 77, 80
1, 76701, Note_off_c, 0, 62, 60
1, 76705, Note_off_c, 0, 65, 61
1, 76717, Note_off_c, 0, 77, 64
1, 76803, Note_on_c, 0, 78, 83
1, 76805, Note_on_c, 0, 63, 66
1, 76816, Note_on_c, 0, 67, 59
1, 76879, Note_off_c, 0, 67, 50
1, 76894, Note_off_c, 0, 63, 58
1, 76914, Note_off_c, 0, 78, 61
1, 76918, Note_on_c, 0, 80, 69
1, 77044, Note_on_c, 0, 79, 65
1, 77056, Note_on_c, 0, 67, 38
1, 77062, Note_on_c, 0, 63, 41
1, 77068, Note_off_c, 0, 79, 68
1, 77070, Note_off_c, 0, 80, 36
1, 77088, Note_off_c, 0, 67, 51
1, 77091, Note_off_c, 0, 63, 58
1, 77193, Note_on_c, 0, 63, 60
1, 77204, Note_on_c, 0, 60, 61
1, 77254, Note_off_c, 0, 60, 54
1, 77264, Note_off_c, 0, 63, 60
1, 77306, Note_on_c, 0, 75, 74
1, 77339, Note_off_c, 0, 75, 58
1, 77421, Note_on_c, 0, 75, 86
1, 77422, Note_on_c, 0, 63, 62
1, 77434, Note_on_c, 0, 60, 43
1, 77455, Note_off_c, 0, 63, 62
1, 77462, Note_off_c, 0, 60, 58
1, 77470, Note_off_c, 0, 75, 64
1, 77552, Note_on_c, 0, 76, 84
1, 77556, Note_on_c, 0, 62, 61
1, 77563, Note_on_c, 0, 65, 59
1, 77607, Note_off_c, 0, 65, 58
1, 77616, Note_off_c, 0, 62, 59
1, 77672, Note_on_c, 0, 79, 74
1, 77674, Note_off_c, 0, 76, 61
1, 77775, Note_off_c, 0, 79, 51
1, 77799, Note_on_c, 0, 65, 65
1, 77799, Note_on_c, 0, 77, 71
1, 77800, Note_on_c, 0, 62, 64
1, 77828, Note_off_c, 0, 65, 65
1, 77835, Note_off_c, 0, 62, 62
1, 77835, Note_off_c, 0, 77, 60
1, 77942, Note_on_c, 0, 62, 81
1, 77947, Note_on_c, 0, 59, 74
1, 78005, Note_off_c, 0, 59, 60
1, 78019, Note_off_c, 0, 62, 59
1, 78058, Note_on_c, 0, 74, 86
1, 78103, Note_off_c, 0, 74, 66
1, 78179, Note_on_c, 0, 74, 90
1, 78181, Note_on_c, 0, 59, 62
1, 78182, Note_on_c, 0, 62, 58
1, 78212, Note_off_c, 0, 59, 62
1, 78212, Note_off_c, 0, 62, 64
1, 78236, Note_off_c, 0, 74, 64
1, 78340, Note_on_c, 0, 75, 84
1, 78348, Note_on_c, 0, 67, 64
1, 78352, Note_on_c, 0, 60, 54
1, 78357, Note_on_c, 0, 63, 58
1, 78394, Note_off_c, 0, 67, 59
1, 78395, Note_off_c, 0, 75, 63
1, 78398, Note_off_c, 0, 63, 59
1, 78404, Note_off_c, 0, 60, 61
1, 78477, Note_on_c, 0, 79, 71
1, 78508, Note_off_c, 0, 79, 59
1, 78588, Note_on_c, 0, 63, 62
1, 78588, Note_on_c, 0, 75, 73
1, 78602, Note_on_c, 0, 67, 43
1, 78612, Note_on_c, 0, 60, 42
1, 78631, Note_off_c, 0, 63, 61
1, 78631, Note_off_c, 0, 75, 61
1, 78638, Note_off_c, 0, 67, 55
1, 78642, Note_off_c, 0, 60, 54
1, 78721, Note_on_c, 0, 67, 60
1, 78722, Note_on_c, 0, 74, 78
1, 78734, Note_on_c, 0, 58, 54
1, 78742, Note_on_c, 0, 62, 46
1, 78755, Note_off_c, 0, 67, 64
1, 78767, Note_off_c, 0, 58, 63
1, 78767, Note_off_c, 0, 74, 62
1, 78770, Note_off_c, 0, 62, 59
1, 78837, Note_on_c, 0, 79, 76
1, 78907, Note_off_c, 0, 79, 57
1, 78955, Note_on_c, 0, 58, 65
1, 78962, Note_on_c, 0, 67, 53
1, 78967, Note_on_c, 0, 62, 52
1, 78967, Note_on_c, 0, 74, 76
1, 78969, Note_on_c, 0, 79, 48
1, 78986, Note_off_c, 0, 67, 59
1, 78989, Note_off_c, 0, 74, 72
1, 78991, Note_off_c, 0, 58, 62
1, 79000, Note_off_c, 0, 62, 61
1, 79072, Note_on_c, 0, 74, 70
1, 79077, Note_off_c, 0, 79, 0
1, 79077, Note_on_c, 0, 79, 20
1, 79081, Note_on_c, 0, 67, 55
1, 79088, Note_on_c, 0, 62, 55
1, 79095, Note_on_c, 0, 56, 53
1, 79098, Note_on_c, 0, 60, 49
1, 79098, Note_off_c, 0, 74, 69
1, 79106, Note_on_c, 0, 72, 74
1, 79106, Note_off_c, 0, 67, 61
1, 79123, Note_off_c, 0, 62, 62
1, 79124, Note_off_c, 0, 56, 57
1, 79127, Note_off_c, 0, 72, 69
1, 79130, Note_off_c, 0, 60, 64
1, 79137, Note_on_c, 0, 74, 80
1, 79182, Note_off_c, 0, 74, 65
1, 79190, Note_on_c, 0, 72, 81
1, 79229, Note_off_c, 0, 72, 65
1, 79244, Note_on_c, 0, 71, 73
1, 79280, Note_off_c, 0, 71, 58
1, 79335, Note_on_c, 0, 67, 56
1, 79339, Note_on_c, 0, 62, 55
1, 79340, Note_on_c, 0, 72, 76
1, 79342, Note_on_c, 0, 56, 52
1, 79346, Note_on_c, 0, 60, 43
1, 79369, Note_off_c, 0, 67, 62
1, 79377, Note_off_c, 0, 56, 59
1, 79387, Note_off_c, 0, 62, 62
1, 79387, Note_off_c, 0, 60, 60
1, 79387, Note_off_c, 0, 72, 63
1, 79469, Note_on_c, 0, 56, 58
1, 79473, Note_on_c, 0, 60, 58
1, 79474, Note_on_c, 0, 77, 82
1, 79476, Note_on_c, 0, 65, 59
1, 79485, Note_on_c, 0, 62, 52
1, 79493, Note_on_c, 0, 72, 60
1, 79497, Note_off_c, 0, 79, 57
1, 79502, Note_off_c, 0, 56, 62
1, 79502, Note_off_c, 0, 65, 64
1, 79512, Note_off_c, 0, 60, 64
1, 79512, Note_off_c, 0, 72, 64
1, 79520, Note_off_c, 0, 62, 64
1, 79607, Note_on_c, 0, 71, 72
1, 79639, Note_off_c, 0, 71, 62
1, 79715, Note_on_c, 0, 56, 49
1, 79724, Note_on_c, 0, 65, 40
1, 79729, Note_on_c, 0, 72, 69
1, 79736, Note_on_c, 0, 62, 46
1, 79737, Note_on_c, 0, 60, 44
1, 79742, Note_off_c, 0, 56, 59
1, 79754, Note_off_c, 0, 65, 52
1, 79765, Note_off_c, 0, 72, 61
1, 79771, Note_off_c, 0, 62, 63
1, 79774, Note_off_c, 0, 60, 63
1, 79818, Note_off_c, 0, 77, 55
1, 79855, Note_on_c, 0, 79, 83
1, 79863, Note_on_c, 0, 74, 75
1, 79865, Note_on_c, 0, 67, 51
1, 79867, Note_on_c, 0, 60, 51
1, 79871, Note_on_c, 0, 55, 44
1, 79875, Note_on_c, 0, 62, 37
1, 79890, Note_off_c, 0, 67, 58
1, 79890, Note_off_c, 0, 74, 62
1, 79892, Note_off_c, 0, 60, 61
1, 79899, Note_off_c, 0, 55, 53
1, 79904, Note_off_c, 0, 62, 55
1, 79980, Note_on_c, 0, 75, 65
1, 79983, Control_c, 0, 67, 11
1, 79998, Control_c, 0, 67, 16
1, 80013, Control_c, 0, 67, 22
1, 80026, Note_off_c, 0, 75, 50
1, 80028, Control_c, 0, 67, 28
1, 80042, Control_c, 0, 67, 33
1, 80057, Control_c, 0, 67, 38
1, 80072, Control_c, 0, 67, 44
1, 80087, Control_c, 0, 67, 52
1, 80109, Control_c, 0, 67, 61
1, 80114, Note_on_c, 0, 67, 48
1, 80116, Note_on_c, 0, 74, 65
1, 80117, Note_on_c, 0, 60, 51
1, 80124, Control_c, 0, 64, 60
1, 80124, Control_c, 0, 67, 75
1, 80127, Note_on_c, 0, 55, 34
1, 80130, Note_on_c, 0, 62, 46
1, 80139, Note_off_c, 0, 67, 58
1, 80139, Control_c, 0, 64, 68
1, 80139, Control_c, 0, 67, 91
1, 80142, Note_off_c, 0, 79, 60
1, 80154, Control_c, 0, 64, 72
1, 80154, Control_c, 0, 67, 109
1, 80156, Note_off_c, 0, 74, 61
1, 80162, Note_off_c, 0, 55, 46
1, 80168, Note_off_c, 0, 60, 61
1, 80168, Control_c, 0, 64, 73
1, 80168, Control_c, 0, 67, 127
1, 80171, Note_off_c, 0, 62, 61
1, 80183, Control_c, 0, 64, 74
1, 80198, Control_c, 0, 64, 73
1, 80213, Control_c, 0, 64, 69
1, 80228, Control_c, 0, 64, 56
1, 80242, Control_c, 0, 64, 0
1, 80245, Note_on_c, 0, 72, 68
1, 80245, Note_on_c, 0, 56, 62
1, 80245, Note_on_c, 0, 65, 57
1, 80253, Note_on_c, 0, 77, 73
1, 80263, Note_on_c, 0, 74, 62
1, 80268, Note_off_c, 0, 72, 67
1, 80269, Note_off_c, 0, 65, 64
1, 80273, Note_off_c, 0, 56, 65
1, 80283, Note_off_c, 0, 74, 64
1, 80309, Note_on_c, 0, 72, 65
1, 80355, Note_off_c, 0, 72, 63
1, 80369, Note_on_c, 0, 71, 66
1, 80402, Note_off_c, 0, 71, 58
1, 80500, Note_on_c, 0, 56, 54
1, 80507, Note_on_c, 0, 72, 62
1, 80511, Note_on_c, 0, 65, 36
1, 80530, Note_off_c, 0, 56, 65
1, 80534, Note_on_c, 0, 60, 23
1, 80542, Note_off_c, 0, 72, 61
1, 80544, Note_off_c, 0, 65, 50
1, 80558, Note_off_c, 0, 77, 61
1, 80570, Note_off_c, 0, 60, 53
1, 80601, Poly_aftertouch_c, 0, 62, 0
1, 80644, Control_c, 0, 64, 61
1, 80654, Note_on_c, 0, 60, 48
1, 80658, Control_c, 0, 64, 72
1, 80661, Note_on_c, 0, 55, 53
1, 80662, Note_on_c, 0, 79, 69
1, 80671, Note_on_c, 0, 74, 51
1, 80676, Note_on_c, 0, 67, 24
1, 80686, Note_off_c, 0, 60, 64
1, 80688, Control_c, 0, 64, 65
1, 80692, Note_off_c, 0, 55, 62
1, 80695, Note_off_c, 0, 74, 62
1, 80702, Control_c, 0, 64, 0
1, 80715, Note_off_c, 0, 67, 41
1, 80792, Note_on_c, 0, 75, 50
1, 80833, Note_off_c, 0, 75, 55
1, 80919, Note_on_c, 0, 74, 57
1, 80922, Note_on_c, 0, 55, 46
1, 80928, Note_on_c, 0, 67, 45
1, 80930, Note_on_c, 0, 60, 47
1, 80942, Note_on_c, 0, 62, 40
1, 80949, Note_off_c, 0, 55, 61
1, 80955, Note_off_c, 0, 67, 57
1, 80962, Control_c, 0, 64, 65
1, 80968, Note_off_c, 0, 79, 58
1, 80972, Note_off_c, 0, 60, 62
1, 80973, Note_off_c, 0, 62, 60
1, 80975, Note_off_c, 0, 74, 60
1, 80976, Control_c, 0, 64, 74
1, 80990, Control_c, 0, 64, 76
1, 81005, Control_c, 0, 64, 73
1, 81020, Control_c, 0, 64, 68
1, 81035, Control_c, 0, 64, 58
1, 81050, Control_c, 0, 64, 0
1, 81062, Note_on_c, 0, 56, 51
1, 81062, Note_on_c, 0, 72, 63
1, 81067, Note_on_c, 0, 62, 43
1, 81069, Note_on_c, 0, 65, 37
1, 81076, Note_on_c, 0, 60, 21
1, 81079, Note_on_c, 0, 77, 59
1, 81086, Note_off_c, 0, 72, 65
1, 81088, Note_off_c, 0, 56, 59
1, 81095, Note_off_c, 0, 62, 59
1, 81099, Note_on_c, 0, 74, 51
1, 81101, Note_off_c, 0, 65, 50
1, 81111, Note_off_c, 0, 60, 50
1, 81125, Note_off_c, 0, 74, 65
1, 81142, Note_on_c, 0, 72, 63
1, 81178, Note_off_c, 0, 72, 62
1, 81199, Note_on_c, 0, 71, 54
1, 81247, Note_off_c, 0, 71, 57
1, 81362, Note_on_c, 0, 72, 57
1, 81368, Note_on_c, 0, 65, 35
1, 81381, Note_on_c, 0, 60, 25
1, 81385, Note_on_c, 0, 62, 22
1, 81400, Note_off_c, 0, 65, 55
1, 81414, Note_off_c, 0, 72, 54
1, 81424, Note_off_c, 0, 60, 50
1, 81424, Note_off_c, 0, 62, 51
1, 81492, Note_off_c, 0, 77, 57
1, 81525, Control_c, 0, 64, 64
1, 81539, Note_on_c, 0, 55, 41
1, 81539, Control_c, 0, 64, 75
1, 81554, Control_c, 0, 64, 80
1, 81559, Note_on_c, 0, 74, 60
1, 81569, Control_c, 0, 64, 84
1, 81574, Note_off_c, 0, 55, 57
1, 81584, Control_c, 0, 64, 88
1, 81606, Control_c, 0, 64, 94
1, 81613, Note_off_c, 0, 74, 56
1, 81621, Control_c, 0, 64, 99
1, 81636, Control_c, 0, 64, 102
1, 81651, Control_c, 0, 64, 103
1, 81658, Note_on_c, 0, 79, 58
1, 81696, Note_off_c, 0, 79, 61
1, 81707, Note_on_c, 0, 77, 64
1, 81760, Note_on_c, 0, 75, 68
1, 81771, Note_off_c, 0, 77, 60
1, 81785, Control_c, 0, 64, 103
1, 81800, Control_c, 0, 64, 101
1, 81804, Note_on_c, 0, 74, 69
1, 81813, Note_off_c, 0, 75, 61
1, 81814, Control_c, 0, 64, 97
1, 81829, Note_off_c, 0, 74, 68
1, 81829, Control_c, 0, 64, 89
1, 81844, Control_c, 0, 64, 80
1, 81850, Note_on_c, 0, 72, 69
1, 81858, Control_c, 0, 64, 70
1, 81873, Control_c, 0, 64, 61
1, 81888, Note_off_c, 0, 72, 49
1, 81888, Control_c, 0, 64, 0
1, 81923, Note_on_c, 0, 71, 55
1, 81943, Note_on_c, 0, 69, 68
1, 81948, Note_off_c, 0, 71, 64
1, 81968, Note_off_c, 0, 69, 68
1, 81992, Note_on_c, 0, 67, 50
1, 82017, Note_off_c, 0, 67, 58
1, 82034, Note_on_c, 0, 65, 65
1, 82071, Note_off_c, 0, 65, 63
1, 82079, Note_on_c, 0, 63, 68
1, 82136, Note_off_c, 0, 63, 61
1, 82149, Note_on_c, 0, 62, 53
1, 82172, Note_off_c, 0, 62, 59
1, 82200, Note_on_c, 0, 60, 61
1, 82241, Note_off_c, 0, 60, 64
1, 82257, Note_on_c, 0, 59, 60
1, 82285, Note_off_c, 0, 59, 64
1, 82316, Note_on_c, 0, 57, 48
1, 82343, Note_off_c, 0, 57, 58
1, 82392, Note_on_c, 0, 55, 44
1, 82421, Note_on_c, 0, 54, 47
1, 82423, Note_off_c, 0, 55, 53
1, 82467, Note_off_c, 0, 54, 60
1, 82508, Note_on_c, 0, 55, 49
1, 82523, Note_on_c, 0, 43, 32
1, 82964, Note_off_c, 0, 43, 58
1, 82964, Note_off_c, 0, 55, 59
1, 83822, Note_on_c, 0, 79, 51
1, 83852, Note_off_c, 0, 79, 60
1, 83950, Note_on_c, 0, 74, 46
1, 83957, Note_on_c, 0, 77, 47
1, 83979, Note_off_c, 0, 74, 58
1, 83982, Note_off_c, 0, 77, 60
1, 84070, Note_on_c, 0, 72, 56
1, 84078, Note_on_c, 0, 76, 58
1, 84089, Note_off_c, 0, 72, 63
1, 84099, Note_off_c, 0, 76, 63
1, 84183, Note_on_c, 0, 76, 57
1, 84192, Note_on_c, 0, 72, 38
1, 84215, Note_off_c, 0, 76, 64
1, 84220, Note_off_c, 0, 72, 58
1, 84310, Note_on_c, 0, 74, 58
1, 84315, Note_on_c, 0, 67, 49
1, 84340, Note_off_c, 0, 67, 59
1, 84343, Note_off_c, 0, 74, 67
1, 84434, Note_on_c, 0, 72, 58
1, 84436, Note_on_c, 0, 64, 56
1, 84460, Note_off_c, 0, 64, 61
1, 84464, Note_off_c, 0, 72, 65
1, 84553, Note_on_c, 0, 64, 48
1, 84571, Note_on_c, 0, 72, 48
1, 84581, Note_off_c, 0, 64, 60
1, 84602, Note_off_c, 0, 72, 59
1, 84685, Note_on_c, 0, 67, 53
1, 84689, Note_on_c, 0, 74, 54
1, 84710, Note_off_c, 0, 67, 59
1, 84712, Note_off_c, 0, 74, 62
1, 84792, Note_on_c, 0, 77, 67
1, 84806, Note_on_c, 0, 72, 61
1, 84816, Note_off_c, 0, 77, 70
1, 84847, Note_on_c, 0, 76, 54
1, 84870, Note_off_c, 0, 76, 59
1, 84886, Note_on_c, 0, 77, 58
1, 84907, Note_off_c, 0, 77, 64
1, 84934, Note_on_c, 0, 76, 55
1, 84950, Note_off_c, 0, 72, 45
1, 84956, Note_off_c, 0, 76, 60
1, 84975, Note_on_c, 0, 77, 53
1, 84997, Note_off_c, 0, 77, 60
1, 85043, Note_on_c, 0, 67, 46
1, 85047, Note_on_c, 0, 74, 57
1, 85068, Note_off_c, 0, 74, 63
1, 85070, Note_off_c, 0, 67, 56
1, 85160, Note_on_c, 0, 74, 54
1, 85166, Note_on_c, 0, 67, 44
1, 85193, Note_off_c, 0, 74, 65
1, 85193, Note_off_c, 0, 67, 55
1, 85284, Note_on_c, 0, 76, 77
1, 85285, Note_on_c, 0, 79, 58
1, 85312, Note_off_c, 0, 79, 57
1, 85322, Note_off_c, 0, 76, 62
1, 85408, Note_on_c, 0, 74, 81
1, 85417, Note_on_c, 0, 77, 63
1, 85436, Note_off_c, 0, 74, 63
1, 85447, Note_off_c, 0, 77, 64
1, 85531, Note_on_c, 0, 72, 77
1, 85541, Note_on_c, 0, 76, 65
1, 85551, Note_off_c, 0, 72, 71
1, 85575, Note_off_c, 0, 76, 59
1, 85653, Note_on_c, 0, 72, 66
1, 85673, Note_on_c, 0, 76, 54
1, 85678, Note_off_c, 0, 72, 67
1, 85697, Note_off_c, 0, 76, 59
1, 85772, Note_on_c, 0, 67, 73
1, 85786, Note_on_c, 0, 74, 63
1, 85796, Note_off_c, 0, 67, 68
1, 85816, Note_off_c, 0, 74, 68
1, 85897, Note_on_c, 0, 64, 76
1, 85903, Note_on_c, 0, 72, 68
1, 85916, Note_off_c, 0, 64, 69
1, 85933, Note_off_c, 0, 72, 61
1, 86011, Note_on_c, 0, 64, 58
1, 86028, Note_on_c, 0, 72, 67
1, 86038, Note_off_c, 0, 64, 66
1, 86055, Note_off_c, 0, 72, 65
1, 86150, Note_on_c, 0, 74, 61
1, 86163, Note_on_c, 0, 67, 36
1, 86171, Note_off_c, 0, 74, 66
1, 86198, Note_off_c, 0, 67, 32
1, 86255, Note_on_c, 0, 77, 65
1, 86267, Note_on_c, 0, 72, 66
1, 86278, Note_off_c, 0, 77, 66
1, 86296, Note_on_c, 0, 76, 68
1, 86322, Note_off_c, 0, 76, 64
1, 86336, Note_on_c, 0, 77, 74
1, 86362, Note_off_c, 0, 77, 64
1, 86378, Note_on_c, 0, 76, 76
1, 86410, Note_off_c, 0, 72, 58
1, 86410, Note_off_c, 0, 76, 57
1, 86437, Note_on_c, 0, 77, 30
1, 86472, Note_off_c, 0, 77, 52
1, 86492, Note_on_c, 0, 74, 78
1, 86498, Note_on_c, 0, 67, 62
1, 86500, Control_c, 0, 67, 114
1, 86515, Control_c, 0, 67, 78
1, 86526, Note_off_c, 0, 67, 65
1, 86528, Note_off_c, 0, 74, 58
1, 86529, Control_c, 0, 67, 39
1, 86544, Control_c, 0, 67, 0
1, 86623, Note_on_c, 0, 74, 86
1, 86635, Note_on_c, 0, 67, 66
1, 86660, Note_off_c, 0, 74, 64
1, 86661, Note_off_c, 0, 67, 66
1, 86744, Note_on_c, 0, 84, 94
1, 86790, Note_off_c, 0, 84, 65
1, 86883, Note_on_c, 0, 81, 97
1, 86890, Note_on_c, 0, 65, 75
1, 86890, Note_on_c, 0, 69, 76
1, 86890, Note_on_c, 0, 72, 77
1, 86910, Note_off_c, 0, 72, 71
1, 86912, Note_off_c, 0, 69, 70
1, 86913, Note_off_c, 0, 65, 69
1, 86922, Note_off_c, 0, 81, 64
1, 87046, Note_on_c, 0, 83, 94
1, 87057, Note_on_c, 0, 64, 73
1, 87057, Note_on_c, 0, 72, 74
1, 87060, Note_on_c, 0, 67, 71
1, 87071, Control_c, 0, 64, 85
1, 87080, Note_off_c, 0, 72, 65
1, 87085, Note_off_c, 0, 64, 62
1, 87086, Control_c, 0, 64, 127
1, 87087, Note_off_c, 0, 83, 66
1, 87101, Note_on_c, 0, 81, 73
1, 87110, Note_off_c, 0, 67, 53
1, 87123, Note_off_c, 0, 81, 69
1, 87138, Note_on_c, 0, 83, 84
1, 87182, Note_off_c, 0, 83, 64
1, 87186, Note_on_c, 0, 81, 90
1, 87219, Control_c, 0, 64, 81
1, 87234, Control_c, 0, 64, 0
1, 87239, Note_off_c, 0, 81, 64
1, 87259, Note_on_c, 0, 79, 82
1, 87269, Note_on_c, 0, 72, 70
1, 87279, Note_on_c, 0, 67, 54
1, 87280, Note_off_c, 0, 79, 68
1, 87283, Note_on_c, 0, 64, 52
1, 87293, Note_off_c, 0, 72, 69
1, 87301, Note_off_c, 0, 67, 59
1, 87310, Note_off_c, 0, 64, 60
1, 87408, Note_on_c, 0, 71, 75
1, 87410, Note_on_c, 0, 62, 68
1, 87414, Note_on_c, 0, 65, 66
1, 87430, Note_off_c, 0, 71, 70
1, 87438, Note_off_c, 0, 62, 64
1, 87441, Note_off_c, 0, 65, 68
1, 87516, Note_on_c, 0, 84, 81
1, 87564, Note_off_c, 0, 84, 64
1, 87643, Note_on_c, 0, 77, 89
1, 87644, Note_on_c, 0, 71, 75
1, 87645, Note_on_c, 0, 62, 70
1, 87653, Note_on_c, 0, 65, 59
1, 87664, Note_off_c, 0, 71, 72
1, 87675, Note_off_c, 0, 65, 61
1, 87677, Note_off_c, 0, 62, 63
1, 87690, Note_off_c, 0, 77, 62
1, 87766, Note_on_c, 0, 79, 84
1, 87775, Note_on_c, 0, 67, 78
1, 87775, Note_on_c, 0, 72, 76
1, 87788, Note_on_c, 0, 60, 54
1, 87789, Control_c, 0, 64, 70
1, 87799, Note_off_c, 0, 79, 63
1, 87800, Note_on_c, 0, 77, 75
1, 87800, Note_off_c, 0, 72, 65
1, 87804, Note_off_c, 0, 67, 60
1, 87804, Control_c, 0, 64, 84
1, 87810, Note_off_c, 0, 60, 61
1, 87819, Control_c, 0, 64, 107
1, 87827, Note_off_c, 0, 77, 61
1, 87834, Control_c, 0, 64, 127
1, 87841, Note_on_c, 0, 79, 75
1, 87888, Note_off_c, 0, 79, 64
1, 87895, Note_on_c, 0, 77, 79
1, 87922, Control_c, 0, 64, 115
1, 87937, Control_c, 0, 64, 81
1, 87951, Note_off_c, 0, 77, 58
1, 87952, Control_c, 0, 64, 14
1, 87966, Note_on_c, 0, 79, 37
1, 87966, Control_c, 0, 64, 0
1, 87990, Note_on_c, 0, 76, 82
1, 87991, Note_on_c, 0, 67, 71
1, 87993, Note_off_c, 0, 79, 56
1, 87998, Note_on_c, 0, 72, 59
1, 88009, Note_on_c, 0, 60, 35
1, 88010, Note_off_c, 0, 76, 69
1, 88016, Note_off_c, 0, 67, 67
1, 88021, Note_off_c, 0, 72, 64
1, 88043, Note_off_c, 0, 60, 56
1, 88133, Note_on_c, 0, 72, 67
1, 88142, Note_on_c, 0, 69, 72
1, 88143, Note_on_c, 0, 65, 65
1, 88160, Note_off_c, 0, 72, 65
1, 88165, Note_off_c, 0, 69, 69
1, 88172, Note_off_c, 0, 65, 67
1, 88251, Note_on_c, 0, 84, 74
1, 88296, Note_off_c, 0, 84, 59
1, 88383, Note_on_c, 0, 69, 58
1, 88385, Note_on_c, 0, 81, 79
1, 88389, Note_on_c, 0, 65, 48
1, 88389, Note_on_c, 0, 72, 52
1, 88410, Note_off_c, 0, 72, 61
1, 88413, Note_off_c, 0, 69, 67
1, 88416, Note_off_c, 0, 65, 59
1, 88418, Note_off_c, 0, 81, 61
1, 88496, Note_on_c, 0, 83, 76
1, 88509, Note_on_c, 0, 72, 67
1, 88514, Note_on_c, 0, 81, 86
1, 88515, Note_on_c, 0, 67, 73
1, 88521, Note_on_c, 0, 64, 60
1, 88550, Note_off_c, 0, 64, 67
1, 88556, Note_off_c, 0, 72, 59
1, 88564, Note_off_c, 0, 83, 59
1, 88573, Note_off_c, 0, 67, 60
1, 88616, Note_off_c, 0, 81, 60
1, 88631, Note_on_c, 0, 79, 79
1, 88668, Note_off_c, 0, 79, 61
1, 88746, Note_on_c, 0, 79, 88
1, 88749, Note_on_c, 0, 72, 67
1, 88753, Note_on_c, 0, 64, 62
1, 88759, Note_on_c, 0, 67, 57
1, 88775, Note_off_c, 0, 72, 66
1, 88787, Note_off_c, 0, 64, 65
1, 88789, Note_off_c, 0, 67, 64
1, 88791, Note_off_c, 0, 79, 62
1, 88857, Note_on_c, 0, 81, 86
1, 88870, Note_on_c, 0, 71, 80
1, 88874, Note_on_c, 0, 62, 68
1, 88875, Note_on_c, 0, 79, 88
1, 88875, Note_on_c, 0, 65, 74
1, 88896, Note_off_c, 0, 71, 64
1, 88901, Note_off_c, 0, 62, 65
1, 88902, Note_off_c, 0, 65, 67
1, 88914, Note_off_c, 0, 81, 63
1, 88982, Note_off_c, 0, 79, 60
1, 88994, Note_on_c, 0, 77, 74
1, 89024, Note_off_c, 0, 77, 63
1, 89110, Note_on_c, 0, 62, 61
1, 89114, Note_on_c, 0, 77, 86
1, 89118, Note_on_c, 0, 65, 61
1, 89122, Note_on_c, 0, 71, 49
1, 89144, Note_off_c, 0, 71, 61
1, 89149, Note_off_c, 0, 62, 60
1, 89149, Note_off_c, 0, 65, 65
1, 89160, Note_off_c, 0, 77, 61
1, 89230, Note_on_c, 0, 79, 86
1, 89238, Note_on_c, 0, 77, 87
1, 89239, Note_on_c, 0, 67, 82
1, 89240, Note_on_c, 0, 60, 77
1, 89242, Note_on_c, 0, 72, 75
1, 89289, Note_off_c, 0, 79, 58
1, 89295, Note_off_c, 0, 72, 59
1, 89302, Note_off_c, 0, 60, 61
1, 89312, Note_off_c, 0, 67, 59
1, 89352, Note_off_c, 0, 77, 62
1, 89354, Note_on_c, 0, 76, 81
1, 89397, Note_off_c, 0, 76, 62
1, 89465, Note_on_c, 0, 76, 88
1, 89467, Note_on_c, 0, 60, 71
1, 89473, Note_on_c, 0, 72, 69
1, 89494, Note_off_c, 0, 60, 66
1, 89498, Note_off_c, 0, 72, 68
1, 89509, Note_off_c, 0, 76, 63
1, 89584, Note_on_c, 0, 77, 87
1, 89593, Note_on_c, 0, 76, 87
1, 89601, Note_on_c, 0, 71, 77
1, 89609, Note_on_c, 0, 67, 62
1, 89648, Note_off_c, 0, 77, 59
1, 89701, Note_off_c, 0, 71, 58
1, 89704, Note_off_c, 0, 67, 60
1, 89704, Note_off_c, 0, 76, 63
1, 89713, Note_on_c, 0, 74, 80
1, 89755, Note_off_c, 0, 74, 65
1, 89830, Note_on_c, 0, 74, 88
1, 89834, Note_on_c, 0, 71, 72
1, 89835, Note_on_c, 0, 67, 72
1, 89865, Note_off_c, 0, 71, 71
1, 89877, Note_off_c, 0, 67, 60
1, 89888, Note_off_c, 0, 74, 65
1, 89957, Note_on_c, 0, 72, 87
1, 89965, Note_on_c, 0, 69, 79
1, 90014, Note_off_c, 0, 69, 62
1, 90080, Note_on_c, 0, 67, 83
1, 90124, Note_off_c, 0, 67, 61
1, 90192, Note_on_c, 0, 84, 76
1, 90196, Note_on_c, 0, 65, 80
1, 90231, Note_off_c, 0, 65, 61
1, 90236, Note_off_c, 0, 84, 63
1, 90249, Note_off_c, 0, 72, 63
1, 90318, Note_on_c, 0, 76, 85
1, 90322, Note_on_c, 0, 67, 78
1, 90333, Note_on_c, 0, 72, 67
1, 90417, Note_off_c, 0, 67, 51
1, 90448, Note_on_c, 0, 77, 77
1, 90458, Note_off_c, 0, 72, 62
1, 90460, Note_off_c, 0, 76, 61
1, 90509, Note_off_c, 0, 77, 57
1, 90567, Note_on_c, 0, 55, 66
1, 90568, Note_on_c, 0, 71, 78
1, 90572, Note_on_c, 0, 74, 77
1, 90604, Note_off_c, 0, 55, 65
1, 90612, Note_off_c, 0, 71, 61
1, 90614, Note_off_c, 0, 74, 61
1, 90702, Note_on_c, 0, 60, 62
1, 90702, Note_on_c, 0, 72, 85
1, 90734, Note_off_c, 0, 60, 66
1, 90812, Note_on_c, 0, 55, 73
1, 90841, Note_off_c, 0, 55, 66
1, 90929, Note_on_c, 0, 48, 68
1, 90936, Note_on_c, 0, 84, 86
1, 90966, Note_off_c, 0, 48, 65
1, 91036, Control_c, 0, 64, 63
1, 91043, Note_off_c, 0, 84, 61
1, 91051, Control_c, 0, 64, 77
1, 91060, Note_on_c, 0, 43, 81
1, 91066, Control_c, 0, 64, 85
1, 91071, Note_off_c, 0, 72, 62
1, 91081, Control_c, 0, 64, 95
1, 91085, Note_off_c, 0, 43, 67
1, 91096, Control_c, 0, 64, 100
1, 91111, Control_c, 0, 64, 105
1, 91125, Control_c, 0, 64, 107
1, 91170, Control_c, 0, 64, 105
1, 91185, Control_c, 0, 64, 93
1, 91186, Note_on_c, 0, 71, 74
1, 91188, Note_on_c, 0, 74, 79
1, 91200, Control_c, 0, 64, 77
1, 91215, Control_c, 0, 64, 63
1, 91217, Note_off_c, 0, 71, 63
1, 91230, Control_c, 0, 64, 0
1, 91236, Note_off_c, 0, 74, 59
1, 91299, Note_on_c, 0, 77, 84
1, 91358, Note_off_c, 0, 77, 63
1, 91427, Note_on_c, 0, 60, 72
1, 91431, Note_on_c, 0, 76, 86
1, 91437, Note_on_c, 0, 72, 75
1, 91459, Note_off_c, 0, 60, 65
1, 91487, Note_off_c, 0, 76, 64
1, 91552, Note_on_c, 0, 55, 59
1, 91582, Note_off_c, 0, 55, 65
1, 91670, Note_on_c, 0, 48, 59
1, 91672, Note_on_c, 0, 84, 93
1, 91705, Note_off_c, 0, 48, 65
1, 91741, Control_c, 0, 64, 73
1, 91754, Note_off_c, 0, 84, 63
1, 91756, Control_c, 0, 64, 94
1, 91771, Control_c, 0, 64, 117
1, 91786, Control_c, 0, 64, 127
1, 91794, Note_on_c, 0, 43, 75
1, 91811, Note_off_c, 0, 72, 60
1, 91818, Note_off_c, 0, 43, 66
1, 91925, Note_on_c, 0, 71, 77
1, 91926, Note_on_c, 0, 74, 80
1, 91933, Control_c, 0, 64, 85
1, 91948, Control_c, 0, 64, 51
1, 91952, Note_off_c, 0, 71, 65
1, 91960, Note_off_c, 0, 74, 61
1, 91963, Control_c, 0, 64, 0
1, 92039, Note_on_c, 0, 77, 78
1, 92091, Note_off_c, 0, 77, 60
1, 92166, Note_on_c, 0, 60, 59
1, 92175, Note_on_c, 0, 76, 72
1, 92190, Note_on_c, 0, 72, 45
1, 92196, Note_off_c, 0, 60, 66
1, 92222, Note_off_c, 0, 76, 61
1, 92288, Note_on_c, 0, 55, 47
1, 92316, Note_off_c, 0, 55, 58
1, 92410, Note_on_c, 0, 48, 47
1, 92415, Note_on_c, 0, 84, 66
1, 92438, Note_off_c, 0, 48, 58
1, 92490, Control_c, 0, 64, 68
1, 92505, Control_c, 0, 64, 81
1, 92513, Note_off_c, 0, 84, 59
1, 92520, Control_c, 0, 64, 96
1, 92535, Control_c, 0, 64, 105
1, 92540, Note_on_c, 0, 43, 61
1, 92550, Control_c, 0, 64, 107
1, 92564, Control_c, 0, 64, 108
1, 92566, Note_off_c, 0, 43, 59
1, 92578, Note_off_c, 0, 72, 40
1, 92594, Control_c, 0, 64, 107
1, 92609, Control_c, 0, 64, 93
1, 92623, Control_c, 0, 64, 75
1, 92638, Control_c, 0, 64, 50
1, 92653, Control_c, 0, 64, 0
1, 92664, Note_on_c, 0, 71, 64
1, 92684, Note_on_c, 0, 74, 43
1, 92697, Note_off_c, 0, 71, 60
1, 92714, Note_off_c, 0, 74, 56
1, 92771, Control_c, 0, 67, 9
1, 92786, Control_c, 0, 67, 11
1, 92789, Note_on_c, 0, 77, 64
1, 92801, Control_c, 0, 67, 12
1, 92819, Note_off_c, 0, 77, 64
1, 92853, Control_c, 0, 67, 11
1, 92868, Control_c, 0, 67, 9
1, 92883, Control_c, 0, 67, 8
1, 92897, Control_c, 0, 67, 0
1, 92905, Note_on_c, 0, 60, 61
1, 92919, Note_on_c, 0, 76, 69
1, 92926, Note_on_c, 0, 72, 58
1, 92956, Note_off_c, 0, 60, 59
1, 92956, Note_off_c, 0, 72, 64
1, 92957, Note_off_c, 0, 76, 56
1, 93045, Note_on_c, 0, 74, 64
1, 93046, Note_on_c, 0, 77, 60
1, 93075, Note_off_c, 0, 74, 67
1, 93078, Note_off_c, 0, 77, 64
1, 93149, Note_on_c, 0, 52, 57
1, 93157, Note_on_c, 0, 76, 65
1, 93161, Note_on_c, 0, 79, 64
1, 93182, Note_off_c, 0, 52, 64
1, 93191, Note_off_c, 0, 76, 59
1, 93194, Note_off_c, 0, 79, 59
1, 93279, Note_on_c, 0, 53, 65
1, 93282, Note_on_c, 0, 77, 63
1, 93284, Note_on_c, 0, 74, 61
1, 93316, Note_off_c, 0, 53, 65
1, 93319, Note_off_c, 0, 74, 65
1, 93325, Note_off_c, 0, 77, 59
1, 93397, Note_on_c, 0, 76, 63
1, 93419, Note_off_c, 0, 76, 64
1, 93510, Note_on_c, 0, 55, 58
1, 93517, Note_on_c, 0, 74, 64
1, 93542, Note_off_c, 0, 55, 65
1, 93546, Note_off_c, 0, 74, 69
1, 93646, Note_on_c, 0, 60, 62
1, 93649, Note_on_c, 0, 72, 67
1, 93677, Note_off_c, 0, 60, 66
1, 93760, Note_on_c, 0, 55, 62
1, 93788, Note_off_c, 0, 55, 65
1, 93881, Note_on_c, 0, 48, 59
1, 93882, Note_on_c, 0, 84, 78
1, 93914, Note_off_c, 0, 48, 64
1, 93963, Note_off_c, 0, 84, 61
1, 93988, Control_c, 0, 64, 55
1, 94000, Note_off_c, 0, 72, 60
1, 94003, Control_c, 0, 64, 90
1, 94008, Note_on_c, 0, 43, 71
1, 94017, Control_c, 0, 64, 127
1, 94037, Note_off_c, 0, 43, 63
1, 94106, Control_c, 0, 64, 108
1, 94121, Control_c, 0, 64, 74
1, 94124, Note_on_c, 0, 71, 73
1, 94124, Note_on_c, 0, 74, 76
1, 94136, Control_c, 0, 64, 0
1, 94155, Note_off_c, 0, 71, 63
1, 94161, Note_off_c, 0, 74, 61
1, 94239, Note_on_c, 0, 77, 84
1, 94289, Note_off_c, 0, 77, 62
1, 94357, Note_on_c, 0, 60, 77
1, 94366, Note_on_c, 0, 76, 88
1, 94369, Note_on_c, 0, 72, 81
1, 94388, Note_off_c, 0, 72, 69
1, 94395, Control_c, 0, 64, 45
1, 94396, Note_off_c, 0, 60, 62
1, 94404, Note_off_c, 0, 76, 63
1, 94410, Control_c, 0, 64, 107
1, 94425, Control_c, 0, 64, 127
1, 94473, Note_on_c, 0, 55, 73
1, 94500, Control_c, 0, 64, 114
1, 94509, Note_off_c, 0, 55, 63
1, 94515, Control_c, 0, 64, 78
1, 94530, Control_c, 0, 64, 0
1, 94595, Note_on_c, 0, 48, 77
1, 94596, Note_on_c, 0, 88, 97
1, 94618, Control_c, 0, 64, 76
1, 94633, Control_c, 0, 64, 127
1, 94641, Note_off_c, 0, 88, 66
1, 94642, Note_off_c, 0, 48, 61
1, 94721, Note_on_c, 0, 43, 90
1, 94753, Control_c, 0, 64, 91
1, 94764, Note_off_c, 0, 43, 65
1, 94767, Control_c, 0, 64, 63
1, 94782, Control_c, 0, 64, 0
1, 94855, Note_on_c, 0, 74, 88
1, 94857, Note_on_c, 0, 71, 73
1, 94881, Note_off_c, 0, 71, 68
1, 94901, Note_off_c, 0, 74, 66
1, 94962, Note_on_c, 0, 77, 89
1, 95011, Note_off_c, 0, 77, 64
1, 95074, Note_on_c, 0, 60, 79
1, 95084, Note_on_c, 0, 76, 97
1, 95089, Note_on_c, 0, 72, 82
1, 95108, Note_off_c, 0, 72, 70
1, 95115, Control_c, 0, 64, 64
1, 95120, Note_off_c, 0, 76, 64
1, 95129, Note_off_c, 0, 60, 63
1, 95130, Control_c, 0, 64, 106
1, 95145, Control_c, 0, 64, 127
1, 95188, Note_on_c, 0, 55, 74
1, 95227, Note_off_c, 0, 55, 60
1, 95263, Control_c, 0, 64, 83
1, 95278, Control_c, 0, 64, 38
1, 95293, Control_c, 0, 64, 0
1, 95296, Note_on_c, 0, 91, 100
1, 95298, Note_on_c, 0, 48, 73
1, 95308, Control_c, 0, 64, 63
1, 95323, Control_c, 0, 64, 80
1, 95324, Note_off_c, 0, 91, 65
1, 95337, Control_c, 0, 64, 105
1, 95347, Note_off_c, 0, 48, 61
1, 95352, Control_c, 0, 64, 127
1, 95426, Note_on_c, 0, 43, 84
1, 95464, Note_off_c, 0, 43, 65
1, 95471, Control_c, 0, 64, 114
1, 95485, Control_c, 0, 64, 84
1, 95500, Control_c, 0, 64, 63
1, 95516, Control_c, 0, 64, 0
1, 95550, Note_on_c, 0, 71, 72
1, 95557, Note_on_c, 0, 74, 77
1, 95576, Note_off_c, 0, 71, 67
1, 95583, Note_off_c, 0, 74, 65
1, 95664, Note_on_c, 0, 77, 82
1, 95707, Note_off_c, 0, 77, 64
1, 95784, Note_on_c, 0, 60, 81
1, 95789, Note_on_c, 0, 76, 89
1, 95794, Note_on_c, 0, 72, 83
1, 95833, Note_off_c, 0, 72, 66
1, 95834, Note_off_c, 0, 60, 61
1, 95836, Note_off_c, 0, 76, 65
1, 95923, Note_on_c, 0, 77, 79
1, 95931, Note_on_c, 0, 74, 76
1, 95955, Note_off_c, 0, 74, 69
1, 95966, Note_off_c, 0, 77, 61
1, 96040, Note_on_c, 0, 52, 73
1, 96045, Note_on_c, 0, 79, 75
1, 96047, Note_on_c, 0, 76, 70
1, 96074, Note_off_c, 0, 52, 65
1, 96089, Note_off_c, 0, 76, 59
1, 96092, Note_off_c, 0, 79, 58
1, 96166, Note_on_c, 0, 53, 82
1, 96166, Note_on_c, 0, 74, 89
1, 96172, Note_on_c, 0, 77, 81
1, 96199, Note_off_c, 0, 53, 64
1, 96218, Note_off_c, 0, 74, 64
1, 96226, Note_off_c, 0, 77, 61
1, 96284, Note_on_c, 0, 76, 81
1, 96297, Note_on_c, 0, 72, 71
1, 96321, Note_off_c, 0, 72, 68
1, 96327, Note_off_c, 0, 76, 62
1, 96406, Note_on_c, 0, 55, 74
1, 96410, Note_on_c, 0, 74, 82
1, 96414, Note_on_c, 0, 71, 73
1, 96440, Note_off_c, 0, 71, 67
1, 96443, Note_off_c, 0, 55, 64
1, 96456, Note_off_c, 0, 74, 64
1, 96529, Note_on_c, 0, 76, 84
1, 96531, Note_on_c, 0, 52, 74
1, 96533, Note_on_c, 0, 79, 80
1, 96560, Note_off_c, 0, 52, 64
1, 96570, Note_off_c, 0, 76, 63
1, 96570, Note_off_c, 0, 79, 60
1, 96658, Note_on_c, 0, 74, 73
1, 96661, Note_on_c, 0, 77, 69
1, 96688, Note_off_c, 0, 74, 65
1, 96706, Note_off_c, 0, 77, 61
1, 96780, Note_on_c, 0, 57, 66
1, 96787, Note_on_c, 0, 76, 70
1, 96790, Note_on_c, 0, 72, 66
1, 96815, Note_off_c, 0, 76, 65
1, 96817, Note_off_c, 0, 57, 60
1, 96822, Note_off_c, 0, 72, 61
1, 96906, Note_on_c, 0, 74, 77
1, 96907, Note_on_c, 0, 53, 67
1, 96910, Note_on_c, 0, 77, 68
1, 96936, Note_off_c, 0, 53, 66
1, 96943, Note_off_c, 0, 77, 59
1, 96949, Note_off_c, 0, 74, 63
1, 97027, Note_on_c, 0, 76, 79
1, 97039, Note_on_c, 0, 72, 63
1, 97065, Note_off_c, 0, 72, 66
1, 97072, Note_off_c, 0, 76, 62
1, 97142, Note_on_c, 0, 74, 86
1, 97144, Note_on_c, 0, 71, 84
1, 97146, Note_on_c, 0, 55, 73
1, 97184, Note_off_c, 0, 71, 65
1, 97185, Note_off_c, 0, 55, 63
1, 97195, Note_off_c, 0, 74, 65
1, 97263, Note_on_c, 0, 76, 90
1, 97265, Note_on_c, 0, 79, 88
1, 97269, Note_on_c, 0, 52, 83
1, 97297, Note_off_c, 0, 52, 66
1, 97307, Note_off_c, 0, 76, 63
1, 97307, Note_off_c, 0, 79, 63
1, 97398, Note_on_c, 0, 77, 80
1, 97400, Note_on_c, 0, 74, 79
1, 97427, Note_off_c, 0, 74, 66
1, 97446, Note_off_c, 0, 77, 63
1, 97503, Note_on_c, 0, 57, 76
1, 97505, Note_on_c, 0, 76, 89
1, 97515, Note_on_c, 0, 72, 81
1, 97545, Note_off_c, 0, 57, 60
1, 97553, Note_off_c, 0, 72, 63
1, 97557, Note_off_c, 0, 76, 64
1, 97634, Note_on_c, 0, 74, 90
1, 97635, Note_on_c, 0, 53, 79
1, 97636, Note_on_c, 0, 77, 87
1, 97663, Note_off_c, 0, 53, 69
1, 97674, Note_off_c, 0, 74, 67
1, 97689, Note_off_c, 0, 77, 62
1, 97758, Note_on_c, 0, 76, 88
1, 97768, Note_on_c, 0, 72, 76
1, 97796, Note_off_c, 0, 72, 62
1, 97802, Note_off_c, 0, 76, 62
1, 97881, Note_on_c, 0, 55, 78
1, 97885, Note_on_c, 0, 74, 91
1, 97886, Note_on_c, 0, 71, 85
1, 97921, Note_off_c, 0, 55, 63
1, 97927, Note_off_c, 0, 71, 65
1, 97934, Note_off_c, 0, 74, 65
1, 98017, Note_on_c, 0, 76, 92
1, 98018, Note_on_c, 0, 79, 89
1, 98024, Note_on_c, 0, 52, 83
1, 98061, Note_off_c, 0, 52, 62
1, 98063, Note_off_c, 0, 76, 64
1, 98082, Note_off_c, 0, 79, 62
1, 98158, Note_on_c, 0, 74, 87
1, 98160, Note_on_c, 0, 77, 86
1, 98205, Note_off_c, 0, 74, 64
1, 98228, Note_off_c, 0, 77, 61
1, 98285, Note_on_c, 0, 76, 90
1, 98289, Note_on_c, 0, 72, 78
1, 98290, Note_on_c, 0, 57, 72
1, 98317, Note_off_c, 0, 76, 62
1, 98323, Note_off_c, 0, 72, 63
1, 98328, Note_off_c, 0, 57, 60
1, 98375, Note_on_c, 0, 76, 83
1, 98406, Note_on_c, 0, 53, 78
1, 98411, Note_on_c, 0, 74, 86
1, 98414, Note_off_c, 0, 76, 63
1, 98445, Note_on_c, 0, 76, 70
1, 98453, Note_off_c, 0, 53, 60
1, 98464, Note_off_c, 0, 74, 64
1, 98497, Note_on_c, 0, 74, 67
1, 98502, Note_off_c, 0, 76, 61
1, 98550, Note_off_c, 0, 74, 65
1, 98605, Note_on_c, 0, 72, 89
1, 98645, Note_off_c, 0, 72, 63
1, 98777, Note_on_c, 0, 71, 86
1, 98786, Note_on_c, 0, 55, 71
1, 98819, Note_off_c, 0, 55, 64
1, 98829, Note_off_c, 0, 71, 65
1, 98991, Note_on_c, 0, 72, 60
1, 99010, Note_off_c, 0, 72, 64
1, 99016, Note_on_c, 0, 71, 83
1, 99046, Note_on_c, 0, 48, 71
1, 99058, Note_on_c, 0, 72, 87
1, 99060, Note_off_c, 0, 71, 65
1, 99765, Note_off_c, 0, 72, 68
1, 99767, Note_off_c, 0, 48, 66
1, 99842, End_track
0, 0, End_of_file
