0, 0, Header, 0, 1, 384
1, 0, Start_track
1, 0, Title_t, "Etude Op. 10/12--Andrew Staupe  "
1, 0, Text_t, "2009 Piano-e-Competition audition round"
1, 0, Text_t, "captured January 2009"
1, 0, Text_t, "http://www.piano-e-competition.com/"
1, 0, Text_t, "File processed for distribution by software from Zenph Studios, Inc., http://www.zenph.com"
1, 0, Instrument_name_t, "Yamaha Disklavier Pro Mark IV concert grand piano, model DCFIIISM4PRO"
1, 0, Sequencer_specific, 39, 67, 113, 0, 1, 0, 1, 0, 69, 116, 117, 100, 101, 32, 79, 112, 46, 32, 49, 48, 47, 49, 50, 32, 65, 110, 100, 114, 101, 119, 32, 83, 116, 97, 117, 112, 101, 32, 32, 32
1, 0, Sequencer_specific, 6, 67, 113, 0, 0, 0, 69
1, 0, System_exclusive, 21, 67, 113, 126, 21, 0, 2, 2, 0, 3, 14, 1, 4, 1, 13, 13, 10, 11, 9, 2, 7, 247
1, 0, Sequencer_specific, 5, 67, 123, 12, 2, 1
1, 0, Tempo, 512820
1, 0, Time_signature, 4, 2, 24, 8
1, 0, System_exclusive, 5, 126, 127, 9, 1, 247
1, 1, System_exclusive, 8, 67, 16, 76, 0, 0, 126, 0, 247
1, 2, System_exclusive, 8, 67, 16, 76, 8, 9, 7, 1, 247
1, 3, Control_c, 0, 0, 0
1, 3, Control_c, 1, 0, 0
1, 3, Control_c, 2, 0, 0
1, 3, Control_c, 3, 0, 0
1, 3, Control_c, 4, 0, 0
1, 3, Control_c, 5, 0, 0
1, 3, Control_c, 6, 0, 0
1, 3, Control_c, 7, 0, 0
1, 3, Control_c, 8, 0, 0
1, 3, Control_c, 9, 0, 127
1, 3, Control_c, 10, 0, 0
1, 3, Control_c, 11, 0, 0
1, 3, Control_c, 12, 0, 0
1, 3, Control_c, 13, 0, 0
1, 3, Control_c, 14, 0, 0
1, 3, Control_c, 15, 0, 0
1, 4, Control_c, 0, 32, 0
1, 4, Control_c, 1, 32, 0
1, 4, Control_c, 2, 32, 0
1, 4, Control_c, 3, 32, 0
1, 4, Control_c, 4, 32, 0
1, 4, Control_c, 5, 32, 0
1, 4, Control_c, 6, 32, 0
1, 4, Control_c, 7, 32, 0
1, 4, Control_c, 8, 32, 0
1, 4, Control_c, 9, 32, 0
1, 4, Control_c, 10, 32, 0
1, 4, Control_c, 11, 32, 0
1, 4, Control_c, 12, 32, 0
1, 4, Control_c, 13, 32, 0
1, 4, Control_c, 14, 32, 0
1, 4, Control_c, 15, 32, 0
1, 5, Program_c, 0, 0
1, 5, Program_c, 1, 0
1, 5, Program_c, 2, 0
1, 5, Program_c, 3, 0
1, 5, Program_c, 4, 0
1, 5, Program_c, 5, 0
1, 5, Program_c, 6, 0
1, 5, Program_c, 7, 0
1, 5, Program_c, 8, 0
1, 5, Program_c, 9, 0
1, 5, Program_c, 10, 0
1, 5, Program_c, 11, 0
1, 5, Program_c, 12, 0
1, 5, Program_c, 13, 0
1, 5, Program_c, 14, 0
1, 5, Program_c, 15, 0
1, 6, Control_c, 0, 7, 100
1, 6, Control_c, 1, 7, 100
1, 6, Control_c, 2, 7, 100
1, 6, Control_c, 3, 7, 100
1, 6, Control_c, 4, 7, 100
1, 6, Control_c, 5, 7, 100
1, 6, Control_c, 6, 7, 100
1, 6, Control_c, 7, 7, 100
1, 6, Control_c, 8, 7, 100
1, 6, Control_c, 9, 7, 100
1, 6, Control_c, 10, 7, 100
1, 6, Control_c, 11, 7, 100
1, 6, Control_c, 12, 7, 100
1, 6, Control_c, 13, 7, 100
1, 6, Control_c, 14, 7, 100
1, 6, Control_c, 15, 7, 100
1, 1129, Note_on_c, 0, 83, 97
1, 1131, Note_on_c, 0, 71, 100
1, 1134, Note_on_c, 0, 74, 94
1, 1134, Note_on_c, 0, 77, 83
1, 1135, Note_on_c, 0, 79, 89
1, 1153, Control_c, 0, 64, 58
1, 1168, Control_c, 0, 64, 69
1, 1183, Control_c, 0, 64, 79
1, 1198, Control_c, 0, 64, 91
1, 1212, Control_c, 0, 64, 104
1, 1227, Control_c, 0, 64, 127
1, 1336, Note_on_c, 0, 68, 61
1, 1386, Note_off_c, 0, 68, 62
1, 1411, Note_on_c, 0, 67, 65
1, 1467, Note_off_c, 0, 67, 56
1, 1473, Note_on_c, 0, 65, 74
1, 1538, Note_on_c, 0, 62, 65
1, 1546, Note_off_c, 0, 65, 60
1, 1604, Note_on_c, 0, 63, 72
1, 1607, Note_off_c, 0, 62, 62
1, 1633, Note_off_c, 0, 63, 67
1, 1659, Note_on_c, 0, 62, 66
1, 1722, Note_off_c, 0, 62, 61
1, 1724, Note_on_c, 0, 59, 78
1, 1739, Control_c, 0, 64, 106
1, 1754, Control_c, 0, 64, 74
1, 1768, Control_c, 0, 64, 60
1, 1772, Note_on_c, 0, 55, 69
1, 1780, Note_off_c, 0, 59, 62
1, 1783, Control_c, 0, 64, 64
1, 1798, Control_c, 0, 64, 74
1, 1813, Control_c, 0, 64, 99
1, 1828, Note_on_c, 0, 56, 82
1, 1828, Control_c, 0, 64, 127
1, 1840, Note_off_c, 0, 55, 61
1, 1873, Note_off_c, 0, 56, 61
1, 1902, Note_on_c, 0, 55, 75
1, 1951, Note_off_c, 0, 55, 63
1, 1953, Note_on_c, 0, 53, 78
1, 1979, Note_off_c, 0, 74, 52
1, 1995, Note_off_c, 0, 71, 57
1, 1996, Note_off_c, 0, 83, 56
1, 1997, Note_off_c, 0, 79, 51
1, 2004, Note_on_c, 0, 50, 80
1, 2009, Note_off_c, 0, 53, 65
1, 2014, Note_off_c, 0, 77, 60
1, 2058, Note_on_c, 0, 51, 80
1, 2072, Note_off_c, 0, 50, 66
1, 2106, Note_off_c, 0, 51, 62
1, 2124, Note_on_c, 0, 50, 79
1, 2184, Note_off_c, 0, 50, 66
1, 2186, Note_on_c, 0, 47, 81
1, 2198, Control_c, 0, 64, 119
1, 2213, Control_c, 0, 64, 72
1, 2228, Control_c, 0, 64, 0
1, 2236, Note_on_c, 0, 43, 79
1, 2242, Control_c, 0, 64, 12
1, 2245, Note_off_c, 0, 47, 66
1, 2257, Control_c, 0, 64, 62
1, 2272, Control_c, 0, 64, 78
1, 2287, Control_c, 0, 64, 111
1, 2293, Note_on_c, 0, 44, 78
1, 2302, Control_c, 0, 64, 127
1, 2311, Note_off_c, 0, 43, 61
1, 2344, Note_off_c, 0, 44, 59
1, 2367, Note_on_c, 0, 43, 81
1, 2424, Note_on_c, 0, 41, 81
1, 2427, Note_off_c, 0, 43, 63
1, 2470, Note_on_c, 0, 38, 78
1, 2502, Note_off_c, 0, 41, 62
1, 2529, Note_on_c, 0, 39, 83
1, 2563, Note_off_c, 0, 38, 60
1, 2596, Note_off_c, 0, 39, 59
1, 2615, Note_on_c, 0, 38, 69
1, 2669, Note_off_c, 0, 38, 59
1, 2681, Control_c, 0, 64, 86
1, 2696, Control_c, 0, 64, 0
1, 2697, Note_on_c, 0, 36, 94
1, 2755, Control_c, 0, 64, 13
1, 2770, Control_c, 0, 64, 76
1, 2780, Note_off_c, 0, 36, 60
1, 2783, Note_on_c, 0, 31, 78
1, 2785, Control_c, 0, 64, 127
1, 2853, Note_on_c, 0, 36, 83
1, 2868, Note_off_c, 0, 31, 61
1, 2920, Note_off_c, 0, 36, 56
1, 2946, Note_on_c, 0, 31, 85
1, 2969, Note_on_c, 0, 68, 100
1, 2970, Note_on_c, 0, 75, 91
1, 2971, Note_on_c, 0, 80, 96
1, 2977, Note_on_c, 0, 77, 69
1, 2982, Note_on_c, 0, 36, 82
1, 2995, Note_off_c, 0, 31, 63
1, 3000, Note_off_c, 0, 77, 67
1, 3009, Note_off_c, 0, 68, 67
1, 3011, Note_off_c, 0, 75, 66
1, 3014, Note_off_c, 0, 80, 65
1, 3056, Note_off_c, 0, 36, 56
1, 3067, Note_on_c, 0, 31, 86
1, 3105, Note_on_c, 0, 36, 60
1, 3172, Note_off_c, 0, 31, 0
1, 3182, Note_on_c, 0, 31, 51
1, 3196, Note_off_c, 0, 36, 54
1, 3220, Note_on_c, 0, 79, 93
1, 3236, Note_on_c, 0, 67, 82
1, 3258, Note_off_c, 0, 67, 70
1, 3265, Note_off_c, 0, 79, 63
1, 3288, Note_off_c, 0, 31, 58
1, 3327, Control_c, 0, 64, 89
1, 3335, Note_on_c, 0, 35, 87
1, 3341, Control_c, 0, 64, 51
1, 3347, Note_on_c, 0, 79, 95
1, 3348, Note_on_c, 0, 74, 92
1, 3355, Note_on_c, 0, 86, 67
1, 3356, Note_off_c, 0, 86, 127
1, 3356, Note_on_c, 0, 77, 80
1, 3356, Control_c, 0, 64, 0
1, 3415, Control_c, 0, 64, 24
1, 3430, Control_c, 0, 64, 70
1, 3445, Control_c, 0, 64, 87
1, 3447, Note_off_c, 0, 35, 65
1, 3460, Control_c, 0, 64, 104
1, 3475, Control_c, 0, 64, 109
1, 3489, Control_c, 0, 64, 113
1, 3504, Control_c, 0, 64, 127
1, 3615, Note_on_c, 0, 68, 78
1, 3640, Note_off_c, 0, 68, 67
1, 3670, Note_on_c, 0, 67, 79
1, 3729, Note_on_c, 0, 65, 85
1, 3730, Note_off_c, 0, 67, 60
1, 3739, Note_off_c, 0, 74, 58
1, 3739, Note_off_c, 0, 77, 56
1, 3752, Note_off_c, 0, 79, 56
1, 3756, Control_c, 0, 64, 113
1, 3771, Control_c, 0, 64, 83
1, 3772, Note_on_c, 0, 62, 66
1, 3780, Note_off_c, 0, 65, 62
1, 3786, Control_c, 0, 64, 65
1, 3801, Control_c, 0, 64, 54
1, 3815, Control_c, 0, 64, 61
1, 3829, Note_on_c, 0, 63, 83
1, 3830, Control_c, 0, 64, 75
1, 3840, Note_off_c, 0, 62, 62
1, 3845, Control_c, 0, 64, 97
1, 3859, Control_c, 0, 64, 127
1, 3882, Note_off_c, 0, 63, 61
1, 3893, Note_on_c, 0, 62, 62
1, 3919, Control_c, 0, 64, 108
1, 3933, Control_c, 0, 64, 81
1, 3948, Control_c, 0, 64, 59
1, 3949, Note_on_c, 0, 59, 86
1, 3957, Note_off_c, 0, 62, 64
1, 3963, Control_c, 0, 64, 0
1, 4001, Control_c, 0, 64, 53
1, 4004, Note_on_c, 0, 55, 71
1, 4010, Note_off_c, 0, 59, 64
1, 4015, Control_c, 0, 64, 76
1, 4030, Control_c, 0, 64, 112
1, 4045, Control_c, 0, 64, 127
1, 4062, Note_on_c, 0, 56, 81
1, 4076, Note_off_c, 0, 55, 61
1, 4108, Note_off_c, 0, 56, 61
1, 4134, Note_on_c, 0, 55, 78
1, 4164, Control_c, 0, 64, 93
1, 4179, Control_c, 0, 64, 70
1, 4186, Note_on_c, 0, 53, 81
1, 4189, Note_off_c, 0, 55, 62
1, 4194, Control_c, 0, 64, 53
1, 4209, Control_c, 0, 64, 60
1, 4224, Control_c, 0, 64, 74
1, 4238, Note_on_c, 0, 50, 76
1, 4238, Control_c, 0, 64, 106
1, 4245, Note_off_c, 0, 53, 67
1, 4253, Control_c, 0, 64, 127
1, 4292, Note_on_c, 0, 51, 82
1, 4305, Note_off_c, 0, 50, 66
1, 4339, Note_off_c, 0, 51, 63
1, 4362, Note_on_c, 0, 50, 77
1, 4371, Control_c, 0, 64, 108
1, 4386, Control_c, 0, 64, 77
1, 4401, Control_c, 0, 64, 0
1, 4420, Note_on_c, 0, 47, 84
1, 4423, Note_off_c, 0, 50, 67
1, 4430, Control_c, 0, 64, 39
1, 4445, Control_c, 0, 64, 75
1, 4460, Control_c, 0, 64, 127
1, 4463, Note_on_c, 0, 43, 84
1, 4483, Note_off_c, 0, 47, 64
1, 4524, Note_on_c, 0, 44, 79
1, 4550, Note_off_c, 0, 43, 61
1, 4577, Note_off_c, 0, 44, 60
1, 4594, Control_c, 0, 64, 73
1, 4597, Note_on_c, 0, 43, 80
1, 4609, Control_c, 0, 64, 0
1, 4653, Control_c, 0, 64, 66
1, 4659, Note_on_c, 0, 41, 80
1, 4662, Note_off_c, 0, 43, 63
1, 4668, Control_c, 0, 64, 105
1, 4682, Control_c, 0, 64, 127
1, 4696, Note_on_c, 0, 38, 74
1, 4731, Note_off_c, 0, 41, 61
1, 4763, Note_on_c, 0, 39, 82
1, 4800, Note_off_c, 0, 38, 58
1, 4832, Note_off_c, 0, 39, 60
1, 4867, Note_on_c, 0, 38, 38
1, 4883, Control_c, 0, 64, 98
1, 4898, Control_c, 0, 64, 60
1, 4913, Control_c, 0, 64, 0
1, 4915, Note_on_c, 0, 36, 92
1, 4919, Note_off_c, 0, 38, 54
1, 4958, Control_c, 0, 64, 63
1, 4973, Control_c, 0, 64, 127
1, 4983, Note_on_c, 0, 31, 82
1, 4986, Note_off_c, 0, 36, 60
1, 5043, Note_on_c, 0, 36, 80
1, 5059, Note_off_c, 0, 31, 61
1, 5110, Note_off_c, 0, 36, 59
1, 5124, Note_on_c, 0, 31, 87
1, 5167, Note_on_c, 0, 36, 77
1, 5184, Note_off_c, 0, 31, 62
1, 5184, Note_on_c, 0, 68, 98
1, 5188, Note_on_c, 0, 75, 90
1, 5190, Note_on_c, 0, 77, 74
1, 5190, Note_on_c, 0, 80, 91
1, 5214, Note_off_c, 0, 77, 73
1, 5228, Note_off_c, 0, 68, 68
1, 5228, Note_off_c, 0, 75, 65
1, 5234, Note_off_c, 0, 80, 64
1, 5246, Note_off_c, 0, 36, 54
1, 5252, Note_on_c, 0, 31, 86
1, 5295, Note_on_c, 0, 36, 66
1, 5322, Note_off_c, 0, 31, 59
1, 5365, Note_off_c, 0, 36, 59
1, 5381, Note_on_c, 0, 31, 66
1, 5417, Note_on_c, 0, 79, 96
1, 5423, Note_on_c, 0, 67, 83
1, 5427, Note_on_c, 0, 65, 74
1, 5429, Note_on_c, 0, 77, 78
1, 5444, Note_off_c, 0, 65, 66
1, 5444, Note_off_c, 0, 67, 70
1, 5444, Note_off_c, 0, 77, 67
1, 5456, Note_off_c, 0, 79, 64
1, 5538, Note_off_c, 0, 31, 58
1, 5542, Control_c, 0, 64, 108
1, 5557, Control_c, 0, 64, 66
1, 5566, Note_on_c, 0, 35, 92
1, 5572, Control_c, 0, 64, 0
1, 5584, Note_on_c, 0, 79, 104
1, 5584, Note_on_c, 0, 89, 106
1, 5591, Note_on_c, 0, 77, 71
1, 5592, Note_on_c, 0, 86, 87
1, 5610, Note_off_c, 0, 86, 73
1, 5612, Note_off_c, 0, 35, 62
1, 5612, Note_off_c, 0, 79, 66
1, 5617, Note_off_c, 0, 77, 68
1, 5617, Control_c, 0, 64, 51
1, 5632, Control_c, 0, 64, 88
1, 5639, Note_off_c, 0, 89, 64
1, 5646, Control_c, 0, 64, 127
1, 5810, Control_c, 0, 64, 78
1, 5817, Note_on_c, 0, 80, 94
1, 5819, Note_on_c, 0, 92, 93
1, 5825, Control_c, 0, 64, 0
1, 5870, Control_c, 0, 64, 41
1, 5884, Note_off_c, 0, 80, 63
1, 5884, Control_c, 0, 64, 83
1, 5899, Control_c, 0, 64, 127
1, 5908, Note_off_c, 0, 92, 66
1, 5912, Note_on_c, 0, 79, 87
1, 5921, Note_on_c, 0, 91, 86
1, 5958, Control_c, 0, 64, 94
1, 5968, Note_off_c, 0, 79, 51
1, 5973, Control_c, 0, 64, 62
1, 5988, Control_c, 0, 64, 0
1, 5989, Note_off_c, 0, 91, 64
1, 5990, Note_on_c, 0, 77, 83
1, 5998, Note_on_c, 0, 89, 77
1, 6032, Control_c, 0, 64, 69
1, 6039, Note_off_c, 0, 89, 65
1, 6040, Note_on_c, 0, 74, 67
1, 6047, Control_c, 0, 64, 96
1, 6056, Note_off_c, 0, 77, 60
1, 6058, Note_on_c, 0, 86, 79
1, 6062, Control_c, 0, 64, 127
1, 6104, Note_on_c, 0, 75, 80
1, 6106, Note_off_c, 0, 86, 64
1, 6106, Note_off_c, 0, 74, 66
1, 6124, Note_on_c, 0, 87, 83
1, 6132, Note_off_c, 0, 75, 60
1, 6174, Note_on_c, 0, 74, 66
1, 6177, Note_on_c, 0, 86, 87
1, 6180, Control_c, 0, 64, 82
1, 6195, Control_c, 0, 64, 50
1, 6204, Note_off_c, 0, 87, 63
1, 6210, Control_c, 0, 64, 0
1, 6232, Note_on_c, 0, 71, 81
1, 6232, Note_off_c, 0, 74, 63
1, 6239, Note_on_c, 0, 83, 84
1, 6244, Note_off_c, 0, 86, 65
1, 6275, Note_off_c, 0, 71, 67
1, 6276, Control_c, 0, 64, 55
1, 6282, Note_on_c, 0, 67, 69
1, 6291, Control_c, 0, 64, 73
1, 6293, Note_off_c, 0, 83, 64
1, 6303, Note_on_c, 0, 79, 77
1, 6306, Control_c, 0, 64, 74
1, 6321, Control_c, 0, 64, 69
1, 6335, Control_c, 0, 64, 64
1, 6338, Note_on_c, 0, 68, 79
1, 6341, Note_off_c, 0, 67, 62
1, 6350, Control_c, 0, 64, 63
1, 6365, Control_c, 0, 64, 67
1, 6368, Note_off_c, 0, 79, 62
1, 6377, Note_off_c, 0, 68, 62
1, 6380, Control_c, 0, 64, 73
1, 6392, Note_on_c, 0, 81, 67
1, 6395, Control_c, 0, 64, 76
1, 6402, Note_on_c, 0, 67, 67
1, 6410, Control_c, 0, 64, 74
1, 6415, Note_on_c, 0, 79, 73
1, 6424, Control_c, 0, 64, 70
1, 6433, Note_off_c, 0, 81, 63
1, 6439, Control_c, 0, 64, 67
1, 6460, Note_on_c, 0, 65, 78
1, 6461, Note_off_c, 0, 67, 63
1, 6470, Control_c, 0, 64, 71
1, 6481, Note_off_c, 0, 79, 63
1, 6485, Note_on_c, 0, 77, 75
1, 6485, Control_c, 0, 64, 76
1, 6500, Control_c, 0, 64, 84
1, 6513, Note_off_c, 0, 65, 63
1, 6514, Note_on_c, 0, 62, 71
1, 6514, Control_c, 0, 64, 99
1, 6517, Note_off_c, 0, 77, 62
1, 6529, Control_c, 0, 64, 127
1, 6540, Note_on_c, 0, 74, 75
1, 6569, Note_on_c, 0, 63, 73
1, 6574, Note_off_c, 0, 62, 61
1, 6596, Note_off_c, 0, 63, 66
1, 6600, Note_on_c, 0, 75, 79
1, 6600, Note_off_c, 0, 74, 65
1, 6627, Note_on_c, 0, 62, 71
1, 6654, Note_on_c, 0, 74, 66
1, 6663, Control_c, 0, 64, 82
1, 6677, Control_c, 0, 64, 0
1, 6679, Note_on_c, 0, 72, 44
1, 6680, Note_off_c, 0, 72, 127
1, 6684, Note_on_c, 0, 59, 86
1, 6687, Note_off_c, 0, 62, 63
1, 6687, Note_off_c, 0, 75, 60
1, 6702, Note_on_c, 0, 71, 85
1, 6708, Note_off_c, 0, 74, 65
1, 6737, Control_c, 0, 64, 39
1, 6740, Note_off_c, 0, 59, 64
1, 6743, Note_on_c, 0, 55, 68
1, 6747, Note_off_c, 0, 71, 66
1, 6751, Control_c, 0, 64, 80
1, 6766, Note_on_c, 0, 67, 79
1, 6766, Control_c, 0, 64, 111
1, 6781, Control_c, 0, 64, 127
1, 6796, Note_on_c, 0, 56, 78
1, 6804, Note_off_c, 0, 55, 61
1, 6826, Note_on_c, 0, 68, 82
1, 6826, Note_off_c, 0, 67, 62
1, 6831, Note_off_c, 0, 56, 61
1, 6855, Control_c, 0, 64, 116
1, 6869, Note_on_c, 0, 55, 72
1, 6870, Control_c, 0, 64, 82
1, 6879, Note_on_c, 0, 67, 70
1, 6884, Control_c, 0, 64, 62
1, 6899, Control_c, 0, 64, 0
1, 6903, Note_off_c, 0, 68, 64
1, 6913, Note_off_c, 0, 55, 63
1, 6918, Note_on_c, 0, 53, 76
1, 6928, Note_off_c, 0, 67, 64
1, 6936, Note_on_c, 0, 65, 76
1, 6958, Control_c, 0, 64, 57
1, 6968, Note_off_c, 0, 65, 63
1, 6970, Note_on_c, 0, 50, 66
1, 6981, Control_c, 0, 64, 79
1, 6982, Note_off_c, 0, 53, 64
1, 6994, Note_on_c, 0, 62, 71
1, 6996, Control_c, 0, 64, 109
1, 7011, Control_c, 0, 64, 127
1, 7028, Note_on_c, 0, 51, 74
1, 7039, Note_off_c, 0, 50, 65
1, 7057, Note_off_c, 0, 51, 65
1, 7059, Note_off_c, 0, 62, 60
1, 7061, Note_on_c, 0, 63, 78
1, 7070, Control_c, 0, 64, 93
1, 7084, Control_c, 0, 64, 72
1, 7093, Note_on_c, 0, 50, 64
1, 7099, Control_c, 0, 64, 39
1, 7114, Control_c, 0, 64, 0
1, 7115, Note_on_c, 0, 62, 63
1, 7129, Note_off_c, 0, 63, 62
1, 7151, Note_on_c, 0, 47, 75
1, 7155, Note_off_c, 0, 50, 65
1, 7161, Note_off_c, 0, 62, 65
1, 7167, Note_on_c, 0, 59, 82
1, 7173, Control_c, 0, 64, 62
1, 7188, Control_c, 0, 64, 76
1, 7194, Note_off_c, 0, 59, 66
1, 7203, Control_c, 0, 64, 105
1, 7206, Note_off_c, 0, 47, 63
1, 7213, Note_on_c, 0, 43, 73
1, 7218, Control_c, 0, 64, 127
1, 7232, Note_on_c, 0, 55, 70
1, 7263, Control_c, 0, 64, 95
1, 7265, Note_on_c, 0, 44, 70
1, 7265, Note_off_c, 0, 43, 60
1, 7278, Control_c, 0, 64, 73
1, 7283, Note_off_c, 0, 55, 60
1, 7293, Control_c, 0, 64, 48
1, 7296, Note_on_c, 0, 56, 73
1, 7298, Note_off_c, 0, 44, 63
1, 7307, Control_c, 0, 64, 0
1, 7322, Control_c, 0, 64, 45
1, 7331, Note_on_c, 0, 43, 75
1, 7337, Control_c, 0, 64, 69
1, 7348, Note_on_c, 0, 55, 59
1, 7352, Control_c, 0, 64, 96
1, 7358, Note_off_c, 0, 56, 64
1, 7367, Control_c, 0, 64, 127
1, 7379, Note_on_c, 0, 41, 72
1, 7381, Note_off_c, 0, 43, 61
1, 7381, Control_c, 0, 64, 125
1, 7386, Note_off_c, 0, 55, 64
1, 7396, Control_c, 0, 64, 87
1, 7399, Note_on_c, 0, 53, 66
1, 7411, Control_c, 0, 64, 68
1, 7425, Note_off_c, 0, 41, 63
1, 7426, Control_c, 0, 64, 0
1, 7429, Note_off_c, 0, 53, 68
1, 7433, Note_on_c, 0, 38, 67
1, 7456, Note_on_c, 0, 50, 69
1, 7468, Note_off_c, 0, 38, 63
1, 7471, Control_c, 0, 64, 22
1, 7486, Control_c, 0, 64, 59
1, 7494, Note_off_c, 0, 50, 63
1, 7500, Control_c, 0, 64, 71
1, 7515, Control_c, 0, 64, 88
1, 7521, Note_on_c, 0, 39, 75
1, 7524, Note_on_c, 0, 51, 74
1, 7530, Control_c, 0, 64, 122
1, 7545, Control_c, 0, 64, 127
1, 7554, Note_off_c, 0, 39, 63
1, 7567, Note_on_c, 0, 38, 65
1, 7572, Note_on_c, 0, 50, 69
1, 7611, Note_off_c, 0, 51, 61
1, 7630, Note_off_c, 0, 50, 65
1, 7632, Note_on_c, 0, 48, 71
1, 7632, Note_on_c, 0, 36, 75
1, 7642, Note_off_c, 0, 38, 61
1, 7680, Note_off_c, 0, 48, 61
1, 7683, Note_on_c, 0, 35, 59
1, 7683, Note_off_c, 0, 36, 59
1, 7688, Note_on_c, 0, 47, 64
1, 7693, Control_c, 0, 64, 112
1, 7707, Control_c, 0, 64, 85
1, 7710, Note_off_c, 0, 47, 62
1, 7714, Note_off_c, 0, 35, 62
1, 7730, Control_c, 0, 64, 56
1, 7745, Control_c, 0, 64, 0
1, 7770, Note_on_c, 0, 55, 75
1, 7775, Note_on_c, 0, 43, 82
1, 7789, Control_c, 0, 64, 39
1, 7804, Control_c, 0, 64, 72
1, 7819, Control_c, 0, 64, 94
1, 7822, Note_on_c, 0, 41, 67
1, 7831, Note_off_c, 0, 43, 62
1, 7834, Control_c, 0, 64, 127
1, 7849, Note_off_c, 0, 55, 63
1, 7854, Note_on_c, 0, 53, 55
1, 7864, Note_on_c, 0, 39, 71
1, 7882, Note_off_c, 0, 53, 65
1, 7884, Note_off_c, 0, 41, 60
1, 7885, Note_on_c, 0, 51, 67
1, 7887, Note_on_c, 0, 52, 9
1, 7921, Note_on_c, 0, 38, 65
1, 7922, Note_off_c, 0, 39, 59
1, 7930, Note_off_c, 0, 51, 61
1, 7944, Note_off_c, 0, 52, 51
1, 7949, Note_on_c, 0, 50, 73
1, 7957, Note_off_c, 0, 38, 62
1, 7967, Control_c, 0, 64, 96
1, 7981, Note_off_c, 0, 50, 67
1, 7981, Control_c, 0, 64, 69
1, 7996, Control_c, 0, 64, 0
1, 8012, Note_on_c, 0, 39, 82
1, 8017, Note_on_c, 0, 51, 77
1, 8040, Control_c, 0, 64, 37
1, 8057, Control_c, 0, 64, 70
1, 8060, Note_on_c, 0, 38, 64
1, 8070, Note_off_c, 0, 39, 58
1, 8071, Control_c, 0, 64, 96
1, 8077, Note_on_c, 0, 50, 69
1, 8086, Control_c, 0, 64, 127
1, 8116, Note_off_c, 0, 51, 62
1, 8121, Note_on_c, 0, 36, 71
1, 8128, Note_off_c, 0, 50, 66
1, 8130, Note_on_c, 0, 48, 65
1, 8138, Note_off_c, 0, 38, 60
1, 8156, Note_on_c, 0, 35, 68
1, 8162, Note_off_c, 0, 36, 61
1, 8167, Note_off_c, 0, 48, 62
1, 8168, Note_on_c, 0, 47, 71
1, 8189, Note_off_c, 0, 35, 65
1, 8197, Note_off_c, 0, 47, 66
1, 8219, Control_c, 0, 64, 91
1, 8234, Control_c, 0, 64, 59
1, 8249, Control_c, 0, 64, 0
1, 8259, Note_on_c, 0, 58, 81
1, 8264, Note_on_c, 0, 46, 83
1, 8279, Control_c, 0, 64, 33
1, 8293, Control_c, 0, 64, 76
1, 8296, Note_on_c, 0, 44, 70
1, 8308, Control_c, 0, 64, 127
1, 8311, Note_on_c, 0, 56, 73
1, 8317, Note_off_c, 0, 46, 63
1, 8338, Note_off_c, 0, 58, 54
1, 8343, Note_on_c, 0, 43, 77
1, 8359, Note_on_c, 0, 55, 72
1, 8376, Note_off_c, 0, 56, 61
1, 8396, Note_on_c, 0, 41, 76
1, 8404, Note_off_c, 0, 44, 59
1, 8418, Note_off_c, 0, 43, 63
1, 8419, Note_on_c, 0, 53, 77
1, 8424, Note_off_c, 0, 55, 63
1, 8433, Note_off_c, 0, 41, 63
1, 8451, Note_off_c, 0, 53, 67
1, 8478, Control_c, 0, 64, 125
1, 8493, Control_c, 0, 64, 71
1, 8499, Note_on_c, 0, 43, 90
1, 8508, Note_on_c, 0, 55, 85
1, 8508, Control_c, 0, 64, 0
1, 8536, Note_on_c, 0, 41, 78
1, 8553, Control_c, 0, 64, 41
1, 8553, Note_on_c, 0, 53, 78
1, 8559, Note_off_c, 0, 43, 62
1, 8568, Control_c, 0, 64, 71
1, 8583, Note_off_c, 0, 55, 58
1, 8583, Control_c, 0, 64, 99
1, 8585, Note_on_c, 0, 39, 83
1, 8598, Control_c, 0, 64, 127
1, 8604, Note_on_c, 0, 51, 85
1, 8608, Note_off_c, 0, 41, 63
1, 8614, Note_off_c, 0, 53, 65
1, 8626, Note_on_c, 0, 38, 82
1, 8649, Note_on_c, 0, 50, 84
1, 8656, Note_off_c, 0, 39, 60
1, 8660, Note_off_c, 0, 51, 65
1, 8663, Note_off_c, 0, 38, 64
1, 8681, Note_off_c, 0, 50, 68
1, 8715, Control_c, 0, 64, 113
1, 8729, Control_c, 0, 64, 71
1, 8744, Control_c, 0, 64, 0
1, 8781, Note_on_c, 0, 51, 81
1, 8781, Note_on_c, 0, 63, 79
1, 8818, Control_c, 0, 64, 52
1, 8832, Note_on_c, 0, 50, 79
1, 8833, Control_c, 0, 64, 94
1, 8838, Note_off_c, 0, 51, 64
1, 8849, Control_c, 0, 64, 127
1, 8854, Note_on_c, 0, 62, 75
1, 8881, Note_off_c, 0, 63, 63
1, 8896, Note_on_c, 0, 48, 74
1, 8907, Note_off_c, 0, 50, 65
1, 8911, Note_on_c, 0, 60, 80
1, 8917, Note_off_c, 0, 62, 61
1, 8923, Control_c, 0, 64, 101
1, 8932, Note_on_c, 0, 47, 76
1, 8938, Control_c, 0, 64, 75
1, 8939, Note_off_c, 0, 48, 63
1, 8952, Control_c, 0, 64, 0
1, 8960, Note_off_c, 0, 60, 66
1, 8976, Note_on_c, 0, 59, 78
1, 8991, Note_off_c, 0, 47, 63
1, 9014, Note_on_c, 0, 48, 73
1, 9035, Note_on_c, 0, 60, 85
1, 9035, Note_off_c, 0, 59, 54
1, 9042, Control_c, 0, 64, 36
1, 9045, Note_on_c, 0, 47, 66
1, 9057, Control_c, 0, 64, 72
1, 9062, Note_off_c, 0, 48, 61
1, 9071, Control_c, 0, 64, 87
1, 9083, Note_on_c, 0, 59, 73
1, 9086, Control_c, 0, 64, 96
1, 9101, Control_c, 0, 64, 95
1, 9107, Note_on_c, 0, 44, 77
1, 9110, Note_off_c, 0, 60, 58
1, 9116, Control_c, 0, 64, 94
1, 9116, Note_off_c, 0, 47, 64
1, 9135, Note_on_c, 0, 56, 86
1, 9140, Note_off_c, 0, 59, 64
1, 9145, Control_c, 0, 64, 94
1, 9160, Control_c, 0, 64, 84
1, 9162, Note_on_c, 0, 43, 77
1, 9164, Note_off_c, 0, 44, 61
1, 9175, Control_c, 0, 64, 69
1, 9186, Note_off_c, 0, 56, 64
1, 9190, Control_c, 0, 64, 33
1, 9191, Note_on_c, 0, 55, 78
1, 9205, Control_c, 0, 64, 0
1, 9241, Note_on_c, 0, 44, 82
1, 9241, Control_c, 0, 64, 60
1, 9254, Note_off_c, 0, 55, 58
1, 9255, Note_on_c, 0, 56, 81
1, 9256, Control_c, 0, 64, 77
1, 9271, Control_c, 0, 64, 88
1, 9274, Note_off_c, 0, 43, 0
1, 9286, Control_c, 0, 64, 91
1, 9287, Note_on_c, 0, 43, 27
1, 9293, Note_off_c, 0, 44, 58
1, 9301, Control_c, 0, 64, 86
1, 9316, Control_c, 0, 64, 80
1, 9316, Note_on_c, 0, 55, 72
1, 9322, Note_off_c, 0, 56, 63
1, 9331, Control_c, 0, 64, 76
1, 9346, Control_c, 0, 64, 74
1, 9360, Note_on_c, 0, 41, 86
1, 9362, Note_off_c, 0, 55, 62
1, 9367, Note_off_c, 0, 43, 63
1, 9379, Note_on_c, 0, 52, 69
1, 9382, Note_on_c, 0, 53, 66
1, 9390, Control_c, 0, 64, 73
1, 9405, Control_c, 0, 64, 70
1, 9414, Note_on_c, 0, 39, 78
1, 9414, Note_off_c, 0, 53, 63
1, 9415, Note_off_c, 0, 52, 59
1, 9418, Note_off_c, 0, 41, 63
1, 9420, Control_c, 0, 64, 63
1, 9434, Control_c, 0, 64, 16
1, 9445, Note_on_c, 0, 51, 84
1, 9449, Control_c, 0, 64, 0
1, 9475, Note_off_c, 0, 39, 60
1, 9485, Note_on_c, 0, 41, 80
1, 9507, Note_off_c, 0, 51, 61
1, 9523, Note_on_c, 0, 53, 71
1, 9550, Note_off_c, 0, 41, 63
1, 9556, Note_on_c, 0, 39, 77
1, 9581, Note_on_c, 0, 51, 75
1, 9586, Note_off_c, 0, 53, 65
1, 9606, Note_off_c, 0, 39, 60
1, 9660, Note_off_c, 0, 51, 56
1, 9692, Note_on_c, 0, 36, 89
1, 9695, Note_on_c, 0, 48, 98
1, 9746, Control_c, 0, 64, 60
1, 9750, Note_off_c, 0, 48, 65
1, 9761, Control_c, 0, 64, 84
1, 9775, Control_c, 0, 64, 114
1, 9790, Control_c, 0, 64, 127
1, 9804, Note_off_c, 0, 36, 60
1, 9810, Note_on_c, 0, 43, 84
1, 9855, Note_off_c, 0, 43, 60
1, 9897, Note_on_c, 0, 48, 58
1, 9911, Note_off_c, 0, 48, 70
1, 9966, Note_on_c, 0, 50, 82
1, 10035, Poly_aftertouch_c, 0, 48, 127
1, 10038, Note_on_c, 0, 51, 77
1, 10040, Note_off_c, 0, 50, 66
1, 10067, Poly_aftertouch_c, 0, 48, 0
1, 10098, Note_off_c, 0, 51, 62
1, 10102, Note_on_c, 0, 55, 73
1, 10127, Note_off_c, 0, 55, 67
1, 10160, Note_on_c, 0, 60, 75
1, 10231, Note_on_c, 0, 62, 77
1, 10250, Note_off_c, 0, 60, 50
1, 10285, Note_on_c, 0, 63, 87
1, 10286, Note_off_c, 0, 62, 60
1, 10287, Control_c, 0, 64, 102
1, 10301, Control_c, 0, 64, 66
1, 10316, Control_c, 0, 64, 0
1, 10344, Note_on_c, 0, 62, 78
1, 10346, Control_c, 0, 64, 45
1, 10354, Note_off_c, 0, 63, 64
1, 10361, Control_c, 0, 64, 72
1, 10375, Control_c, 0, 64, 98
1, 10382, Note_off_c, 0, 62, 63
1, 10390, Control_c, 0, 64, 127
1, 10428, Note_on_c, 0, 60, 70
1, 10484, Note_off_c, 0, 60, 54
1, 10494, Note_on_c, 0, 55, 78
1, 10547, Note_off_c, 0, 55, 60
1, 10553, Note_on_c, 0, 51, 68
1, 10618, Note_on_c, 0, 50, 62
1, 10619, Note_off_c, 0, 51, 61
1, 10645, Note_off_c, 0, 50, 69
1, 10686, Note_on_c, 0, 48, 75
1, 10764, Note_off_c, 0, 48, 59
1, 10765, Note_on_c, 0, 43, 83
1, 10801, Note_off_c, 0, 43, 65
1, 10828, Control_c, 0, 64, 100
1, 10832, Note_on_c, 0, 36, 82
1, 10842, Control_c, 0, 64, 67
1, 10857, Control_c, 0, 64, 0
1, 10887, Control_c, 0, 64, 57
1, 10893, Note_off_c, 0, 36, 60
1, 10899, Note_on_c, 0, 43, 81
1, 10902, Control_c, 0, 64, 73
1, 10917, Control_c, 0, 64, 93
1, 10930, Note_off_c, 0, 43, 66
1, 10932, Control_c, 0, 64, 127
1, 10965, Note_on_c, 0, 48, 70
1, 11023, Note_off_c, 0, 48, 46
1, 11037, Note_on_c, 0, 50, 71
1, 11075, Note_off_c, 0, 50, 65
1, 11102, Note_on_c, 0, 51, 73
1, 11147, Note_off_c, 0, 51, 61
1, 11161, Note_on_c, 0, 50, 71
1, 11189, Note_off_c, 0, 50, 71
1, 11220, Note_on_c, 0, 48, 79
1, 11277, Note_off_c, 0, 48, 56
1, 11295, Note_on_c, 0, 43, 89
1, 11330, Note_off_c, 0, 43, 66
1, 11377, Control_c, 0, 64, 89
1, 11378, Note_on_c, 0, 36, 85
1, 11392, Control_c, 0, 64, 53
1, 11407, Control_c, 0, 64, 0
1, 11428, Note_on_c, 0, 43, 87
1, 11436, Control_c, 0, 64, 60
1, 11446, Note_off_c, 0, 36, 60
1, 11451, Control_c, 0, 64, 83
1, 11473, Control_c, 0, 64, 127
1, 11492, Note_off_c, 0, 43, 63
1, 11507, Note_on_c, 0, 48, 73
1, 11590, Note_on_c, 0, 50, 84
1, 11594, Note_off_c, 0, 48, 48
1, 11611, Note_on_c, 0, 84, 71
1, 11614, Note_on_c, 0, 72, 64
1, 11627, Note_off_c, 0, 84, 69
1, 11630, Note_off_c, 0, 72, 64
1, 11642, Note_off_c, 0, 50, 65
1, 11655, Note_on_c, 0, 51, 77
1, 11668, Note_on_c, 0, 86, 93
1, 11669, Note_on_c, 0, 74, 87
1, 11687, Note_off_c, 0, 74, 72
1, 11691, Note_off_c, 0, 86, 66
1, 11704, Note_off_c, 0, 51, 61
1, 11706, Note_on_c, 0, 50, 68
1, 11734, Note_off_c, 0, 50, 69
1, 11777, Note_on_c, 0, 48, 73
1, 11878, Note_on_c, 0, 43, 85
1, 11898, Note_off_c, 0, 48, 55
1, 11947, Note_on_c, 0, 87, 95
1, 11947, Note_off_c, 0, 43, 62
1, 11949, Note_on_c, 0, 75, 95
1, 11971, Note_off_c, 0, 87, 61
1, 11973, Note_off_c, 0, 75, 62
1, 12005, Note_on_c, 0, 36, 78
1, 12019, Note_on_c, 0, 87, 103
1, 12020, Note_on_c, 0, 75, 93
1, 12035, Control_c, 0, 64, 82
1, 12051, Control_c, 0, 64, 56
1, 12066, Control_c, 0, 64, 0
1, 12088, Note_on_c, 0, 43, 82
1, 12100, Note_off_c, 0, 36, 59
1, 12110, Control_c, 0, 64, 30
1, 12125, Control_c, 0, 64, 65
1, 12137, Note_off_c, 0, 43, 61
1, 12140, Control_c, 0, 64, 80
1, 12143, Note_on_c, 0, 48, 76
1, 12155, Control_c, 0, 64, 100
1, 12169, Control_c, 0, 64, 127
1, 12177, Note_off_c, 0, 48, 63
1, 12243, Note_on_c, 0, 50, 72
1, 12296, Note_off_c, 0, 87, 61
1, 12303, Note_on_c, 0, 51, 78
1, 12306, Note_off_c, 0, 75, 57
1, 12318, Note_off_c, 0, 50, 65
1, 12367, Note_off_c, 0, 51, 63
1, 12369, Note_on_c, 0, 55, 74
1, 12398, Note_off_c, 0, 55, 64
1, 12423, Note_on_c, 0, 60, 78
1, 12461, Note_off_c, 0, 60, 61
1, 12492, Note_on_c, 0, 62, 81
1, 12538, Note_off_c, 0, 62, 63
1, 12544, Note_on_c, 0, 63, 78
1, 12563, Control_c, 0, 64, 78
1, 12577, Control_c, 0, 64, 8
1, 12592, Control_c, 0, 64, 24
1, 12603, Note_on_c, 0, 62, 76
1, 12604, Note_off_c, 0, 63, 65
1, 12607, Control_c, 0, 64, 70
1, 12622, Control_c, 0, 64, 95
1, 12637, Note_off_c, 0, 62, 63
1, 12637, Control_c, 0, 64, 127
1, 12684, Note_on_c, 0, 60, 80
1, 12744, Note_off_c, 0, 60, 60
1, 12770, Note_on_c, 0, 55, 74
1, 12785, Note_on_c, 0, 72, 73
1, 12786, Note_on_c, 0, 67, 69
1, 12786, Note_on_c, 0, 75, 68
1, 12809, Note_off_c, 0, 67, 63
1, 12810, Note_off_c, 0, 72, 70
1, 12813, Note_off_c, 0, 75, 66
1, 12815, Note_on_c, 0, 79, 25
1, 12823, Note_off_c, 0, 55, 61
1, 12833, Note_on_c, 0, 51, 63
1, 12844, Note_off_c, 0, 79, 0
1, 12844, Note_on_c, 0, 79, 21
1, 12845, Note_on_c, 0, 67, 87
1, 12851, Note_on_c, 0, 72, 78
1, 12860, Note_on_c, 0, 75, 69
1, 12869, Note_off_c, 0, 67, 60
1, 12878, Note_off_c, 0, 72, 65
1, 12881, Note_on_c, 0, 50, 69
1, 12883, Note_off_c, 0, 75, 69
1, 12890, Note_off_c, 0, 51, 62
1, 12896, Note_off_c, 0, 79, 61
1, 12910, Note_off_c, 0, 50, 69
1, 12954, Note_on_c, 0, 48, 75
1, 13054, Note_on_c, 0, 43, 79
1, 13056, Note_off_c, 0, 48, 61
1, 13097, Note_on_c, 0, 75, 72
1, 13100, Note_on_c, 0, 67, 69
1, 13100, Note_on_c, 0, 79, 64
1, 13108, Note_on_c, 0, 72, 63
1, 13109, Note_off_c, 0, 43, 60
1, 13117, Note_off_c, 0, 79, 64
1, 13120, Note_off_c, 0, 67, 62
1, 13121, Note_off_c, 0, 75, 67
1, 13127, Note_off_c, 0, 72, 63
1, 13149, Control_c, 0, 64, 105
1, 13151, Note_on_c, 0, 36, 76
1, 13164, Control_c, 0, 64, 73
1, 13179, Control_c, 0, 64, 0
1, 13181, Note_on_c, 0, 68, 65
1, 13182, Note_on_c, 0, 80, 73
1, 13188, Note_on_c, 0, 75, 60
1, 13192, Note_on_c, 0, 72, 65
1, 13224, Note_on_c, 0, 43, 76
1, 13237, Note_off_c, 0, 36, 59
1, 13238, Control_c, 0, 64, 32
1, 13252, Control_c, 0, 64, 63
1, 13267, Control_c, 0, 64, 73
1, 13274, Note_off_c, 0, 43, 61
1, 13282, Control_c, 0, 64, 82
1, 13296, Note_on_c, 0, 48, 73
1, 13297, Control_c, 0, 64, 97
1, 13312, Control_c, 0, 64, 127
1, 13336, Note_off_c, 0, 48, 59
1, 13380, Note_on_c, 0, 50, 75
1, 13431, Note_off_c, 0, 50, 63
1, 13453, Note_on_c, 0, 51, 68
1, 13477, Note_off_c, 0, 68, 62
1, 13495, Note_off_c, 0, 80, 53
1, 13496, Note_off_c, 0, 72, 56
1, 13504, Note_off_c, 0, 51, 60
1, 13510, Note_on_c, 0, 50, 66
1, 13543, Note_off_c, 0, 50, 67
1, 13576, Note_on_c, 0, 48, 78
1, 13650, Note_on_c, 0, 43, 87
1, 13651, Note_off_c, 0, 48, 57
1, 13682, Note_off_c, 0, 43, 65
1, 13720, Control_c, 0, 64, 80
1, 13724, Note_on_c, 0, 36, 87
1, 13735, Control_c, 0, 64, 46
1, 13746, Note_on_c, 0, 67, 83
1, 13746, Note_on_c, 0, 79, 81
1, 13749, Control_c, 0, 64, 0
1, 13760, Note_off_c, 0, 75, 42
1, 13764, Control_c, 0, 64, 63
1, 13779, Control_c, 0, 64, 84
1, 13784, Note_on_c, 0, 43, 81
1, 13787, Note_off_c, 0, 36, 60
1, 13790, Note_off_c, 0, 67, 61
1, 13794, Control_c, 0, 64, 127
1, 13799, Note_off_c, 0, 79, 63
1, 13837, Note_off_c, 0, 43, 63
1, 13854, Note_on_c, 0, 48, 70
1, 13911, Note_off_c, 0, 48, 56
1, 13937, Note_on_c, 0, 50, 76
1, 13948, Note_on_c, 0, 72, 81
1, 13951, Note_on_c, 0, 84, 80
1, 13966, Note_off_c, 0, 72, 72
1, 13972, Note_off_c, 0, 84, 71
1, 13990, Note_off_c, 0, 50, 63
1, 14002, Note_on_c, 0, 51, 79
1, 14014, Note_on_c, 0, 74, 97
1, 14014, Note_on_c, 0, 86, 99
1, 14038, Note_off_c, 0, 74, 66
1, 14046, Note_off_c, 0, 86, 63
1, 14053, Note_on_c, 0, 50, 75
1, 14055, Note_off_c, 0, 51, 62
1, 14102, Note_off_c, 0, 50, 63
1, 14136, Note_on_c, 0, 48, 81
1, 14228, Note_on_c, 0, 43, 87
1, 14247, Note_off_c, 0, 48, 56
1, 14270, Note_on_c, 0, 87, 93
1, 14272, Note_on_c, 0, 75, 91
1, 14287, Note_off_c, 0, 43, 63
1, 14292, Note_off_c, 0, 75, 67
1, 14292, Note_off_c, 0, 87, 62
1, 14337, Note_on_c, 0, 36, 85
1, 14342, Note_on_c, 0, 87, 103
1, 14342, Control_c, 0, 64, 97
1, 14345, Note_on_c, 0, 75, 95
1, 14357, Control_c, 0, 64, 69
1, 14372, Control_c, 0, 64, 0
1, 14406, Note_on_c, 0, 43, 82
1, 14416, Control_c, 0, 64, 50
1, 14417, Note_off_c, 0, 36, 59
1, 14431, Control_c, 0, 64, 74
1, 14446, Control_c, 0, 64, 95
1, 14469, Control_c, 0, 64, 127
1, 14470, Note_off_c, 0, 43, 61
1, 14482, Note_on_c, 0, 48, 71
1, 14509, Note_off_c, 0, 48, 65
1, 14555, Note_on_c, 0, 50, 84
1, 14585, Note_off_c, 0, 87, 63
1, 14592, Note_off_c, 0, 75, 58
1, 14622, Note_on_c, 0, 51, 83
1, 14636, Note_off_c, 0, 50, 64
1, 14689, Note_on_c, 0, 55, 78
1, 14691, Note_off_c, 0, 51, 63
1, 14722, Note_off_c, 0, 55, 61
1, 14741, Note_on_c, 0, 60, 79
1, 14810, Note_on_c, 0, 62, 83
1, 14813, Note_off_c, 0, 60, 54
1, 14854, Control_c, 0, 64, 77
1, 14859, Note_off_c, 0, 62, 62
1, 14864, Note_on_c, 0, 63, 79
1, 14869, Control_c, 0, 64, 0
1, 14898, Control_c, 0, 64, 37
1, 14913, Control_c, 0, 64, 68
1, 14928, Note_on_c, 0, 62, 76
1, 14928, Control_c, 0, 64, 92
1, 14932, Note_off_c, 0, 63, 64
1, 14943, Control_c, 0, 64, 127
1, 14962, Note_off_c, 0, 62, 61
1, 15006, Note_on_c, 0, 60, 81
1, 15063, Note_off_c, 0, 60, 60
1, 15078, Note_on_c, 0, 67, 80
1, 15081, Note_on_c, 0, 75, 71
1, 15084, Note_on_c, 0, 72, 69
1, 15089, Note_on_c, 0, 55, 78
1, 15099, Note_off_c, 0, 67, 69
1, 15104, Note_off_c, 0, 75, 68
1, 15110, Note_off_c, 0, 72, 69
1, 15119, Note_on_c, 0, 79, 6
1, 15136, Poly_aftertouch_c, 0, 72, 0
1, 15141, Note_on_c, 0, 67, 95
1, 15142, Note_on_c, 0, 72, 79
1, 15147, Note_on_c, 0, 75, 86
1, 15155, Note_off_c, 0, 55, 61
1, 15156, Note_on_c, 0, 51, 75
1, 15186, Note_off_c, 0, 67, 60
1, 15194, Note_off_c, 0, 72, 63
1, 15194, Note_off_c, 0, 75, 56
1, 15199, Note_on_c, 0, 50, 77
1, 15203, Note_off_c, 0, 79, 54
1, 15224, Note_off_c, 0, 51, 63
1, 15234, Note_off_c, 0, 50, 68
1, 15283, Note_on_c, 0, 48, 80
1, 15358, Note_on_c, 0, 43, 88
1, 15364, Note_off_c, 0, 48, 61
1, 15396, Note_on_c, 0, 67, 87
1, 15398, Note_on_c, 0, 79, 82
1, 15400, Note_on_c, 0, 72, 79
1, 15401, Note_on_c, 0, 75, 80
1, 15403, Note_off_c, 0, 43, 62
1, 15415, Note_off_c, 0, 67, 72
1, 15421, Note_off_c, 0, 79, 65
1, 15424, Note_off_c, 0, 72, 70
1, 15427, Note_off_c, 0, 75, 62
1, 15454, Note_on_c, 0, 36, 85
1, 15455, Control_c, 0, 64, 98
1, 15466, Note_on_c, 0, 69, 97
1, 15466, Note_on_c, 0, 75, 83
1, 15466, Note_on_c, 0, 81, 95
1, 15470, Control_c, 0, 64, 66
1, 15472, Note_on_c, 0, 72, 89
1, 15485, Control_c, 0, 64, 0
1, 15544, Control_c, 0, 64, 35
1, 15548, Note_on_c, 0, 42, 74
1, 15552, Note_off_c, 0, 36, 61
1, 15559, Control_c, 0, 64, 65
1, 15574, Control_c, 0, 64, 79
1, 15588, Control_c, 0, 64, 94
1, 15600, Note_off_c, 0, 42, 60
1, 15603, Control_c, 0, 64, 127
1, 15616, Note_on_c, 0, 48, 73
1, 15651, Note_off_c, 0, 48, 60
1, 15689, Note_on_c, 0, 50, 80
1, 15742, Note_off_c, 0, 50, 65
1, 15751, Note_on_c, 0, 51, 75
1, 15800, Note_on_c, 0, 50, 79
1, 15805, Note_off_c, 0, 51, 61
1, 15840, Note_off_c, 0, 50, 68
1, 15871, Note_on_c, 0, 48, 73
1, 15953, Note_on_c, 0, 42, 83
1, 15971, Note_off_c, 0, 48, 58
1, 16011, Control_c, 0, 64, 77
1, 16017, Note_on_c, 0, 36, 91
1, 16022, Note_off_c, 0, 42, 59
1, 16026, Control_c, 0, 64, 27
1, 16033, Note_off_c, 0, 69, 63
1, 16041, Control_c, 0, 64, 0
1, 16054, Note_off_c, 0, 72, 62
1, 16056, Control_c, 0, 64, 63
1, 16071, Control_c, 0, 64, 82
1, 16071, Note_on_c, 0, 42, 69
1, 16074, Note_off_c, 0, 75, 61
1, 16083, Note_off_c, 0, 81, 62
1, 16086, Control_c, 0, 64, 127
1, 16091, Note_off_c, 0, 36, 60
1, 16142, Note_off_c, 0, 42, 61
1, 16149, Note_on_c, 0, 48, 74
1, 16220, Note_on_c, 0, 50, 88
1, 16222, Note_off_c, 0, 48, 61
1, 16276, Note_off_c, 0, 50, 67
1, 16282, Note_on_c, 0, 51, 82
1, 16344, Note_off_c, 0, 51, 62
1, 16349, Note_on_c, 0, 50, 79
1, 16371, Note_off_c, 0, 50, 72
1, 16408, Note_on_c, 0, 48, 75
1, 16476, Note_off_c, 0, 48, 48
1, 16495, Note_on_c, 0, 42, 88
1, 16556, Note_off_c, 0, 42, 58
1, 16618, Control_c, 0, 64, 116
1, 16631, Note_on_c, 0, 86, 97
1, 16632, Note_on_c, 0, 81, 90
1, 16633, Control_c, 0, 64, 72
1, 16637, Note_on_c, 0, 35, 89
1, 16637, Note_on_c, 0, 74, 92
1, 16648, Control_c, 0, 64, 0
1, 16715, Control_c, 0, 64, 34
1, 16726, Note_off_c, 0, 35, 64
1, 16729, Control_c, 0, 64, 69
1, 16744, Control_c, 0, 64, 89
1, 16745, Note_on_c, 0, 47, 77
1, 16749, Note_off_c, 0, 74, 65
1, 16750, Note_off_c, 0, 86, 66
1, 16759, Control_c, 0, 64, 127
1, 16773, Note_off_c, 0, 47, 67
1, 16774, Note_off_c, 0, 81, 66
1, 16863, Note_on_c, 0, 50, 69
1, 16945, Note_on_c, 0, 55, 70
1, 16947, Note_off_c, 0, 50, 64
1, 17004, Note_off_c, 0, 55, 61
1, 17024, Note_on_c, 0, 62, 74
1, 17024, Note_on_c, 0, 74, 85
1, 17024, Note_on_c, 0, 79, 95
1, 17026, Note_on_c, 0, 67, 91
1, 17075, Note_off_c, 0, 62, 63
1, 17084, Note_on_c, 0, 55, 59
1, 17108, Note_on_c, 0, 50, 73
1, 17112, Note_off_c, 0, 55, 64
1, 17134, Note_off_c, 0, 50, 69
1, 17216, Note_on_c, 0, 45, 60
1, 17257, Note_off_c, 0, 45, 64
1, 17308, Control_c, 0, 64, 108
1, 17317, Poly_aftertouch_c, 0, 47, 0
1, 17323, Control_c, 0, 64, 66
1, 17336, Note_on_c, 0, 34, 93
1, 17338, Control_c, 0, 64, 0
1, 17367, Control_c, 0, 64, 23
1, 17382, Control_c, 0, 64, 68
1, 17391, Note_off_c, 0, 74, 61
1, 17397, Control_c, 0, 64, 99
1, 17400, Note_off_c, 0, 67, 55
1, 17411, Control_c, 0, 64, 127
1, 17412, Note_off_c, 0, 79, 58
1, 17414, Note_on_c, 0, 46, 85
1, 17421, Note_off_c, 0, 34, 61
1, 17449, Note_off_c, 0, 46, 64
1, 17545, Note_on_c, 0, 49, 77
1, 17581, Note_on_c, 0, 67, 86
1, 17582, Note_on_c, 0, 73, 81
1, 17583, Note_on_c, 0, 79, 76
1, 17601, Note_off_c, 0, 67, 71
1, 17605, Note_on_c, 0, 55, 67
1, 17605, Note_off_c, 0, 79, 69
1, 17606, Note_off_c, 0, 73, 69
1, 17608, Note_off_c, 0, 49, 62
1, 17658, Note_on_c, 0, 68, 103
1, 17661, Note_on_c, 0, 80, 94
1, 17662, Note_on_c, 0, 61, 80
1, 17662, Note_on_c, 0, 73, 94
1, 17686, Note_off_c, 0, 61, 69
1, 17697, Note_off_c, 0, 55, 62
1, 17704, Note_on_c, 0, 49, 81
1, 17707, Note_off_c, 0, 80, 63
1, 17708, Note_off_c, 0, 73, 60
1, 17710, Note_off_c, 0, 68, 62
1, 17731, Note_off_c, 0, 49, 68
1, 17812, Note_on_c, 0, 46, 73
1, 17865, Note_on_c, 0, 73, 93
1, 17870, Note_off_c, 0, 46, 62
1, 17874, Note_on_c, 0, 67, 83
1, 17890, Note_on_c, 0, 79, 57
1, 17895, Note_off_c, 0, 67, 70
1, 17899, Note_off_c, 0, 73, 62
1, 17908, Control_c, 0, 64, 100
1, 17910, Note_off_c, 0, 79, 62
1, 17923, Control_c, 0, 64, 71
1, 17936, Note_on_c, 0, 33, 84
1, 17938, Note_on_c, 0, 72, 85
1, 17938, Control_c, 0, 64, 0
1, 17941, Note_on_c, 0, 79, 96
1, 17942, Note_on_c, 0, 67, 100
1, 17953, Control_c, 0, 64, 8
1, 17968, Control_c, 0, 64, 68
1, 17970, Note_off_c, 0, 67, 64
1, 17975, Note_off_c, 0, 72, 68
1, 17979, Note_off_c, 0, 79, 63
1, 17982, Control_c, 0, 64, 93
1, 17985, Note_off_c, 0, 33, 61
1, 17997, Note_on_c, 0, 45, 86
1, 17997, Control_c, 0, 64, 127
1, 18025, Note_off_c, 0, 45, 68
1, 18079, Note_on_c, 0, 72, 97
1, 18079, Note_on_c, 0, 84, 97
1, 18094, Note_off_c, 0, 84, 75
1, 18095, Note_off_c, 0, 72, 72
1, 18105, Note_on_c, 0, 48, 67
1, 18210, Note_off_c, 0, 48, 60
1, 18228, Note_on_c, 0, 53, 62
1, 18271, Note_on_c, 0, 60, 73
1, 18280, Note_on_c, 0, 77, 87
1, 18281, Note_on_c, 0, 72, 86
1, 18282, Note_on_c, 0, 65, 87
1, 18286, Control_c, 0, 64, 86
1, 18301, Control_c, 0, 64, 58
1, 18315, Control_c, 0, 64, 0
1, 18324, Note_off_c, 0, 60, 65
1, 18345, Control_c, 0, 64, 53
1, 18353, Note_on_c, 0, 48, 70
1, 18356, Note_off_c, 0, 53, 66
1, 18361, Control_c, 0, 64, 76
1, 18376, Control_c, 0, 64, 109
1, 18386, Note_off_c, 0, 48, 66
1, 18390, Control_c, 0, 64, 127
1, 18459, Note_on_c, 0, 45, 71
1, 18507, Note_off_c, 0, 45, 64
1, 18584, Control_c, 0, 64, 79
1, 18596, Note_on_c, 0, 32, 90
1, 18599, Control_c, 0, 64, 0
1, 18643, Control_c, 0, 64, 58
1, 18658, Control_c, 0, 64, 93
1, 18664, Note_off_c, 0, 32, 61
1, 18672, Note_on_c, 0, 44, 76
1, 18673, Control_c, 0, 64, 127
1, 18673, Note_off_c, 0, 77, 56
1, 18685, Note_off_c, 0, 65, 54
1, 18686, Note_off_c, 0, 72, 60
1, 18703, Note_off_c, 0, 44, 64
1, 18810, Note_on_c, 0, 48, 66
1, 18836, Note_on_c, 0, 77, 72
1, 18843, Note_on_c, 0, 65, 70
1, 18858, Note_on_c, 0, 72, 49
1, 18860, Note_off_c, 0, 77, 68
1, 18868, Note_off_c, 0, 65, 63
1, 18869, Note_off_c, 0, 48, 62
1, 18870, Note_on_c, 0, 53, 72
1, 18881, Note_off_c, 0, 72, 58
1, 18912, Note_on_c, 0, 72, 75
1, 18913, Note_on_c, 0, 79, 90
1, 18916, Note_on_c, 0, 67, 81
1, 18934, Note_off_c, 0, 53, 61
1, 18946, Note_off_c, 0, 72, 61
1, 18958, Note_off_c, 0, 67, 52
1, 18968, Note_off_c, 0, 79, 58
1, 18969, Note_on_c, 0, 60, 42
1, 18971, Note_on_c, 0, 59, 55
1, 18995, Note_off_c, 0, 59, 62
1, 18997, Note_off_c, 0, 60, 55
1, 19008, Note_on_c, 0, 53, 43
1, 19037, Note_on_c, 0, 48, 58
1, 19051, Note_off_c, 0, 53, 49
1, 19068, Note_off_c, 0, 48, 65
1, 19185, Note_on_c, 0, 44, 51
1, 19188, Note_on_c, 0, 77, 68
1, 19189, Note_on_c, 0, 72, 75
1, 19192, Note_on_c, 0, 65, 72
1, 19211, Note_off_c, 0, 72, 69
1, 19214, Note_off_c, 0, 77, 68
1, 19216, Note_off_c, 0, 65, 69
1, 19220, Note_off_c, 0, 44, 62
1, 19303, Control_c, 0, 64, 109
1, 19305, Note_on_c, 0, 31, 73
1, 19307, Note_on_c, 0, 76, 83
1, 19315, Note_on_c, 0, 72, 62
1, 19318, Control_c, 0, 64, 78
1, 19326, Note_on_c, 0, 64, 62
1, 19333, Control_c, 0, 64, 35
1, 19348, Control_c, 0, 64, 0
1, 19379, Note_off_c, 0, 31, 62
1, 19392, Control_c, 0, 64, 43
1, 19406, Note_on_c, 0, 43, 76
1, 19407, Control_c, 0, 64, 68
1, 19422, Control_c, 0, 64, 86
1, 19435, Note_off_c, 0, 43, 62
1, 19436, Control_c, 0, 64, 103
1, 19451, Control_c, 0, 64, 109
1, 19496, Control_c, 0, 64, 112
1, 19503, Note_on_c, 0, 48, 64
1, 19511, Control_c, 0, 64, 121
1, 19526, Control_c, 0, 64, 127
1, 19539, Note_off_c, 0, 48, 62
1, 19553, Note_on_c, 0, 47, 66
1, 19619, Note_off_c, 0, 47, 62
1, 19630, Note_on_c, 0, 49, 69
1, 19681, Note_on_c, 0, 48, 66
1, 19686, Note_off_c, 0, 49, 60
1, 19727, Note_off_c, 0, 48, 62
1, 19759, Note_on_c, 0, 50, 74
1, 19821, Note_on_c, 0, 49, 60
1, 19830, Note_off_c, 0, 50, 61
1, 19844, Control_c, 0, 64, 99
1, 19856, Note_off_c, 0, 49, 65
1, 19858, Control_c, 0, 64, 85
1, 19868, Note_on_c, 0, 51, 78
1, 19873, Control_c, 0, 64, 78
1, 19887, Control_c, 0, 64, 80
1, 19902, Control_c, 0, 64, 90
1, 19917, Control_c, 0, 64, 103
1, 19928, Note_off_c, 0, 51, 54
1, 19932, Control_c, 0, 64, 127
1, 19942, Note_on_c, 0, 50, 72
1, 19976, Control_c, 0, 64, 103
1, 19991, Control_c, 0, 64, 83
1, 19994, Note_on_c, 0, 52, 74
1, 20004, Note_off_c, 0, 50, 66
1, 20005, Control_c, 0, 64, 77
1, 20020, Control_c, 0, 64, 80
1, 20036, Control_c, 0, 64, 92
1, 20051, Control_c, 0, 64, 115
1, 20061, Note_off_c, 0, 76, 61
1, 20064, Note_off_c, 0, 52, 57
1, 20066, Control_c, 0, 64, 127
1, 20070, Note_on_c, 0, 51, 76
1, 20088, Note_off_c, 0, 64, 63
1, 20118, Note_off_c, 0, 51, 64
1, 20163, Note_on_c, 0, 55, 74
1, 20163, Note_on_c, 0, 53, 64
1, 20210, Note_off_c, 0, 55, 52
1, 20212, Note_off_c, 0, 53, 51
1, 20217, Note_off_c, 0, 72, 54
1, 20228, Note_on_c, 0, 52, 56
1, 20256, Note_on_c, 0, 54, 65
1, 20261, Poly_aftertouch_c, 0, 53, 0
1, 20265, Note_off_c, 0, 52, 58
1, 20307, Note_on_c, 0, 75, 79
1, 20315, Note_on_c, 0, 63, 71
1, 20327, Note_off_c, 0, 54, 61
1, 20338, Note_on_c, 0, 53, 62
1, 20347, Note_off_c, 0, 63, 67
1, 20348, Control_c, 0, 64, 109
1, 20363, Control_c, 0, 64, 82
1, 20368, Note_off_c, 0, 75, 0
1, 20369, Note_off_c, 0, 53, 65
1, 20377, Control_c, 0, 64, 57
1, 20392, Control_c, 0, 64, 0
1, 20399, Note_on_c, 0, 71, 66
1, 20405, Note_on_c, 0, 55, 70
1, 20405, Poly_aftertouch_c, 0, 75, 127
1, 20405, Note_on_c, 0, 63, 65
1, 20459, Control_c, 0, 64, 41
1, 20473, Control_c, 0, 64, 65
1, 20488, Control_c, 0, 64, 76
1, 20503, Note_off_c, 0, 55, 53
1, 20503, Control_c, 0, 64, 90
1, 20510, Note_on_c, 0, 54, 52
1, 20518, Control_c, 0, 64, 106
1, 20533, Control_c, 0, 64, 122
1, 20548, Control_c, 0, 64, 127
1, 20560, Note_off_c, 0, 54, 60
1, 20573, Poly_aftertouch_c, 0, 75, 0
1, 20593, Note_on_c, 0, 56, 53
1, 20612, Note_off_c, 0, 63, 60
1, 20644, Note_off_c, 0, 56, 62
1, 20662, Note_on_c, 0, 55, 54
1, 20755, Control_c, 0, 64, 116
1, 20763, Note_off_c, 0, 55, 55
1, 20766, Note_on_c, 0, 58, 62
1, 20769, Note_on_c, 0, 74, 68
1, 20770, Control_c, 0, 64, 86
1, 20784, Note_on_c, 0, 62, 42
1, 20784, Control_c, 0, 64, 68
1, 20799, Control_c, 0, 64, 42
1, 20814, Control_c, 0, 64, 0
1, 20819, Note_off_c, 0, 58, 57
1, 20830, Control_c, 0, 64, 49
1, 20843, Note_on_c, 0, 56, 51
1, 20845, Control_c, 0, 64, 70
1, 20859, Control_c, 0, 64, 84
1, 20873, Note_off_c, 0, 56, 64
1, 20874, Control_c, 0, 64, 101
1, 20885, Note_off_c, 0, 71, 33
1, 20889, Control_c, 0, 64, 109
1, 20921, Note_on_c, 0, 55, 56
1, 20955, Note_off_c, 0, 62, 39
1, 20974, Note_off_c, 0, 55, 50
1, 20993, Note_on_c, 0, 53, 68
1, 21000, Note_off_c, 0, 74, 57
1, 21042, Note_off_c, 0, 53, 62
1, 21052, Control_c, 0, 64, 109
1, 21063, Note_on_c, 0, 51, 62
1, 21082, Control_c, 0, 64, 108
1, 21093, Note_off_c, 0, 51, 64
1, 21096, Control_c, 0, 64, 108
1, 21111, Control_c, 0, 64, 107
1, 21126, Control_c, 0, 64, 105
1, 21129, Note_on_c, 0, 50, 71
1, 21141, Control_c, 0, 64, 101
1, 21156, Control_c, 0, 64, 93
1, 21171, Control_c, 0, 64, 85
1, 21185, Note_off_c, 0, 50, 60
1, 21186, Control_c, 0, 64, 78
1, 21207, Control_c, 0, 64, 72
1, 21217, Note_on_c, 0, 48, 44
1, 21222, Control_c, 0, 64, 68
1, 21237, Control_c, 0, 64, 62
1, 21251, Note_off_c, 0, 48, 55
1, 21252, Control_c, 0, 64, 55
1, 21254, Note_on_c, 0, 47, 58
1, 21266, Control_c, 0, 64, 50
1, 21281, Control_c, 0, 64, 49
1, 21320, Note_off_c, 0, 47, 63
1, 21326, Control_c, 0, 64, 51
1, 21329, Note_on_c, 0, 44, 62
1, 21341, Control_c, 0, 64, 58
1, 21355, Control_c, 0, 64, 64
1, 21369, Note_off_c, 0, 44, 60
1, 21370, Control_c, 0, 64, 70
1, 21385, Control_c, 0, 64, 74
1, 21400, Control_c, 0, 64, 75
1, 21407, Note_on_c, 0, 43, 68
1, 21446, Note_off_c, 0, 43, 62
1, 21478, Note_on_c, 0, 41, 54
1, 21524, Note_off_c, 0, 41, 61
1, 21532, Control_c, 0, 64, 75
1, 21539, Note_on_c, 0, 38, 54
1, 21547, Control_c, 0, 64, 73
1, 21562, Control_c, 0, 64, 69
1, 21576, Control_c, 0, 64, 62
1, 21591, Control_c, 0, 64, 16
1, 21603, Note_off_c, 0, 38, 57
1, 21606, Control_c, 0, 64, 0
1, 21640, Note_on_c, 0, 36, 66
1, 21667, Control_c, 0, 64, 55
1, 21681, Control_c, 0, 64, 69
1, 21696, Control_c, 0, 64, 80
1, 21711, Control_c, 0, 64, 93
1, 21718, Note_off_c, 0, 36, 58
1, 21726, Control_c, 0, 64, 98
1, 21733, Note_on_c, 0, 43, 67
1, 21741, Control_c, 0, 64, 101
1, 21755, Control_c, 0, 64, 104
1, 21770, Control_c, 0, 64, 111
1, 21772, Note_off_c, 0, 43, 62
1, 21785, Control_c, 0, 64, 127
1, 21787, Note_on_c, 0, 48, 66
1, 21816, Note_off_c, 0, 48, 65
1, 21877, Note_on_c, 0, 50, 70
1, 21941, Note_off_c, 0, 50, 65
1, 21943, Note_on_c, 0, 51, 73
1, 22012, Note_off_c, 0, 51, 62
1, 22015, Note_on_c, 0, 55, 69
1, 22049, Note_off_c, 0, 55, 60
1, 22069, Note_on_c, 0, 60, 78
1, 22118, Note_off_c, 0, 60, 62
1, 22148, Note_on_c, 0, 62, 70
1, 22149, Control_c, 0, 64, 104
1, 22163, Control_c, 0, 64, 78
1, 22178, Control_c, 0, 64, 59
1, 22185, Note_off_c, 0, 62, 62
1, 22193, Control_c, 0, 64, 57
1, 22196, Note_on_c, 0, 63, 66
1, 22207, Control_c, 0, 64, 68
1, 22222, Control_c, 0, 64, 85
1, 22237, Control_c, 0, 64, 127
1, 22243, Note_off_c, 0, 63, 61
1, 22254, Note_on_c, 0, 62, 68
1, 22282, Note_off_c, 0, 62, 66
1, 22331, Note_on_c, 0, 60, 70
1, 22392, Note_off_c, 0, 60, 55
1, 22399, Control_c, 0, 67, 10
1, 22414, Control_c, 0, 67, 14
1, 22415, Note_on_c, 0, 55, 66
1, 22430, Control_c, 0, 67, 22
1, 22445, Control_c, 0, 67, 32
1, 22458, Note_off_c, 0, 55, 59
1, 22460, Control_c, 0, 67, 48
1, 22470, Note_on_c, 0, 51, 62
1, 22475, Control_c, 0, 67, 65
1, 22490, Control_c, 0, 67, 81
1, 22504, Control_c, 0, 67, 98
1, 22519, Control_c, 0, 67, 114
1, 22531, Note_on_c, 0, 50, 67
1, 22534, Control_c, 0, 67, 127
1, 22535, Note_off_c, 0, 51, 60
1, 22557, Note_off_c, 0, 50, 69
1, 22603, Note_on_c, 0, 48, 67
1, 22672, Note_off_c, 0, 48, 40
1, 22674, Note_on_c, 0, 43, 81
1, 22719, Control_c, 0, 64, 103
1, 22722, Note_off_c, 0, 43, 62
1, 22734, Control_c, 0, 64, 75
1, 22741, Note_on_c, 0, 36, 72
1, 22749, Control_c, 0, 64, 8
1, 22764, Control_c, 0, 64, 0
1, 22793, Control_c, 0, 64, 55
1, 22808, Control_c, 0, 64, 70
1, 22815, Note_off_c, 0, 36, 59
1, 22820, Note_on_c, 0, 43, 72
1, 22823, Control_c, 0, 64, 82
1, 22837, Control_c, 0, 64, 96
1, 22852, Note_off_c, 0, 43, 63
1, 22852, Control_c, 0, 64, 104
1, 22876, Note_on_c, 0, 48, 64
1, 22882, Control_c, 0, 64, 105
1, 22912, Control_c, 0, 64, 106
1, 22913, Note_off_c, 0, 48, 60
1, 22927, Control_c, 0, 64, 107
1, 22942, Control_c, 0, 64, 110
1, 22957, Control_c, 0, 64, 112
1, 22957, Note_on_c, 0, 50, 61
1, 22971, Control_c, 0, 64, 113
1, 22986, Control_c, 0, 64, 115
1, 22991, Note_off_c, 0, 50, 67
1, 23001, Control_c, 0, 64, 115
1, 23016, Control_c, 0, 64, 116
1, 23016, Note_on_c, 0, 51, 64
1, 23045, Control_c, 0, 64, 116
1, 23050, Note_off_c, 0, 51, 64
1, 23060, Control_c, 0, 64, 118
1, 23065, Note_on_c, 0, 50, 66
1, 23075, Control_c, 0, 64, 123
1, 23090, Control_c, 0, 64, 127
1, 23096, Note_off_c, 0, 50, 69
1, 23139, Note_on_c, 0, 48, 69
1, 23197, Note_off_c, 0, 48, 50
1, 23222, Note_on_c, 0, 43, 67
1, 23255, Note_off_c, 0, 43, 63
1, 23283, Control_c, 0, 64, 99
1, 23286, Note_on_c, 0, 36, 75
1, 23298, Control_c, 0, 64, 75
1, 23313, Control_c, 0, 64, 47
1, 23327, Control_c, 0, 64, 26
1, 23342, Control_c, 0, 64, 53
1, 23349, Note_on_c, 0, 43, 67
1, 23351, Note_off_c, 0, 36, 58
1, 23357, Control_c, 0, 64, 68
1, 23372, Control_c, 0, 64, 83
1, 23387, Control_c, 0, 64, 103
1, 23399, Note_off_c, 0, 43, 63
1, 23401, Control_c, 0, 64, 127
1, 23430, Note_on_c, 0, 48, 64
1, 23500, Note_off_c, 0, 48, 45
1, 23510, Note_on_c, 0, 84, 68
1, 23522, Note_on_c, 0, 50, 66
1, 23524, Note_on_c, 0, 72, 46
1, 23535, Note_off_c, 0, 84, 68
1, 23547, Note_off_c, 0, 72, 58
1, 23563, Note_off_c, 0, 50, 65
1, 23586, Note_on_c, 0, 86, 77
1, 23589, Note_on_c, 0, 51, 62
1, 23593, Note_on_c, 0, 74, 54
1, 23599, Note_off_c, 0, 86, 70
1, 23613, Note_off_c, 0, 74, 64
1, 23624, Note_off_c, 0, 51, 63
1, 23653, Note_on_c, 0, 50, 58
1, 23681, Note_off_c, 0, 50, 66
1, 23730, Note_on_c, 0, 48, 66
1, 23835, Note_on_c, 0, 43, 71
1, 23841, Note_off_c, 0, 48, 56
1, 23878, Note_on_c, 0, 87, 83
1, 23891, Note_on_c, 0, 75, 62
1, 23904, Note_off_c, 0, 87, 64
1, 23910, Note_off_c, 0, 75, 65
1, 23912, Note_off_c, 0, 43, 59
1, 23957, Note_on_c, 0, 36, 64
1, 23957, Control_c, 0, 64, 91
1, 23964, Note_on_c, 0, 87, 83
1, 23971, Control_c, 0, 64, 67
1, 23979, Note_on_c, 0, 75, 60
1, 23986, Control_c, 0, 64, 0
1, 24032, Control_c, 0, 64, 38
1, 24036, Note_on_c, 0, 43, 69
1, 24040, Note_off_c, 0, 36, 58
1, 24047, Control_c, 0, 64, 66
1, 24062, Control_c, 0, 64, 78
1, 24076, Control_c, 0, 64, 92
1, 24083, Note_off_c, 0, 43, 61
1, 24091, Control_c, 0, 64, 101
1, 24106, Control_c, 0, 64, 106
1, 24111, Note_on_c, 0, 48, 63
1, 24121, Control_c, 0, 64, 110
1, 24136, Control_c, 0, 64, 113
1, 24142, Note_off_c, 0, 48, 65
1, 24150, Control_c, 0, 64, 118
1, 24165, Control_c, 0, 64, 127
1, 24209, Note_on_c, 0, 50, 67
1, 24261, Note_off_c, 0, 75, 53
1, 24268, Note_off_c, 0, 87, 61
1, 24274, Note_on_c, 0, 51, 74
1, 24277, Note_off_c, 0, 50, 66
1, 24343, Note_off_c, 0, 51, 62
1, 24352, Note_on_c, 0, 55, 62
1, 24383, Note_off_c, 0, 55, 64
1, 24402, Note_on_c, 0, 60, 72
1, 24438, Note_off_c, 0, 60, 59
1, 24474, Note_on_c, 0, 62, 68
1, 24483, Control_c, 0, 64, 107
1, 24498, Control_c, 0, 64, 79
1, 24511, Note_off_c, 0, 62, 62
1, 24513, Control_c, 0, 64, 57
1, 24528, Control_c, 0, 64, 0
1, 24538, Note_on_c, 0, 63, 68
1, 24543, Control_c, 0, 64, 41
1, 24557, Control_c, 0, 64, 68
1, 24572, Note_off_c, 0, 63, 63
1, 24572, Control_c, 0, 64, 84
1, 24587, Control_c, 0, 64, 113
1, 24590, Note_on_c, 0, 62, 61
1, 24602, Control_c, 0, 64, 127
1, 24620, Note_off_c, 0, 62, 65
1, 24667, Note_on_c, 0, 60, 70
1, 24718, Note_off_c, 0, 60, 53
1, 24736, Control_c, 0, 67, 126
1, 24740, Note_on_c, 0, 67, 70
1, 24742, Note_on_c, 0, 75, 65
1, 24744, Note_on_c, 0, 72, 63
1, 24747, Note_on_c, 0, 79, 60
1, 24750, Control_c, 0, 67, 115
1, 24754, Note_on_c, 0, 55, 65
1, 24765, Control_c, 0, 67, 103
1, 24766, Note_off_c, 0, 72, 64
1, 24767, Note_off_c, 0, 79, 63
1, 24769, Note_off_c, 0, 67, 66
1, 24770, Note_off_c, 0, 75, 66
1, 24780, Control_c, 0, 67, 87
1, 24794, Control_c, 0, 67, 69
1, 24805, Note_off_c, 0, 55, 60
1, 24809, Control_c, 0, 67, 51
1, 24818, Note_on_c, 0, 51, 65
1, 24819, Note_on_c, 0, 67, 65
1, 24823, Note_on_c, 0, 75, 66
1, 24823, Note_on_c, 0, 72, 67
1, 24824, Note_on_c, 0, 79, 61
1, 24825, Control_c, 0, 67, 36
1, 24836, Note_off_c, 0, 67, 67
1, 24840, Control_c, 0, 67, 24
1, 24843, Note_off_c, 0, 72, 65
1, 24846, Note_off_c, 0, 79, 62
1, 24852, Note_off_c, 0, 75, 65
1, 24855, Control_c, 0, 67, 13
1, 24870, Control_c, 0, 67, 0
1, 24873, Note_off_c, 0, 51, 57
1, 24885, Note_on_c, 0, 50, 57
1, 24914, Note_off_c, 0, 50, 64
1, 24959, Note_on_c, 0, 48, 71
1, 25052, Note_on_c, 0, 43, 77
1, 25060, Note_on_c, 0, 79, 66
1, 25064, Note_on_c, 0, 75, 67
1, 25064, Note_off_c, 0, 48, 37
1, 25069, Note_on_c, 0, 72, 68
1, 25078, Note_on_c, 0, 67, 46
1, 25079, Note_off_c, 0, 79, 64
1, 25089, Note_off_c, 0, 75, 66
1, 25094, Note_off_c, 0, 72, 69
1, 25096, Note_off_c, 0, 43, 63
1, 25105, Note_off_c, 0, 67, 56
1, 25115, Control_c, 0, 64, 110
1, 25130, Control_c, 0, 64, 71
1, 25141, Note_on_c, 0, 36, 68
1, 25142, Note_on_c, 0, 68, 70
1, 25145, Note_on_c, 0, 75, 72
1, 25145, Note_on_c, 0, 80, 77
1, 25145, Control_c, 0, 64, 0
1, 25151, Note_on_c, 0, 72, 70
1, 25203, Note_on_c, 0, 43, 78
1, 25204, Control_c, 0, 64, 65
1, 25209, Note_off_c, 0, 36, 57
1, 25219, Control_c, 0, 64, 86
1, 25233, Control_c, 0, 64, 115
1, 25248, Control_c, 0, 64, 127
1, 25253, Note_off_c, 0, 43, 61
1, 25265, Note_on_c, 0, 48, 72
1, 25311, Note_off_c, 0, 48, 61
1, 25354, Note_on_c, 0, 50, 73
1, 25386, Note_off_c, 0, 68, 61
1, 25398, Note_off_c, 0, 50, 65
1, 25408, Note_off_c, 0, 80, 53
1, 25416, Note_off_c, 0, 72, 53
1, 25425, Note_on_c, 0, 51, 66
1, 25464, Note_off_c, 0, 51, 62
1, 25483, Note_on_c, 0, 50, 70
1, 25513, Note_off_c, 0, 50, 67
1, 25544, Note_on_c, 0, 48, 81
1, 25577, Note_off_c, 0, 75, 22
1, 25616, Note_on_c, 0, 43, 87
1, 25626, Note_off_c, 0, 48, 61
1, 25657, Note_off_c, 0, 43, 61
1, 25663, Control_c, 0, 64, 104
1, 25678, Control_c, 0, 64, 75
1, 25685, Note_on_c, 0, 36, 93
1, 25690, Note_on_c, 0, 79, 83
1, 25699, Note_on_c, 0, 67, 85
1, 25701, Control_c, 0, 64, 55
1, 25716, Control_c, 0, 64, 64
1, 25730, Control_c, 0, 64, 77
1, 25735, Note_off_c, 0, 67, 64
1, 25745, Control_c, 0, 64, 101
1, 25750, Note_on_c, 0, 43, 84
1, 25750, Note_off_c, 0, 79, 63
1, 25760, Control_c, 0, 64, 127
1, 25765, Note_off_c, 0, 36, 59
1, 25803, Note_off_c, 0, 43, 62
1, 25812, Note_on_c, 0, 48, 80
1, 25865, Note_off_c, 0, 48, 61
1, 25901, Note_on_c, 0, 84, 83
1, 25903, Note_on_c, 0, 72, 79
1, 25904, Note_on_c, 0, 50, 83
1, 25920, Note_off_c, 0, 84, 72
1, 25926, Note_off_c, 0, 72, 70
1, 25957, Note_off_c, 0, 50, 65
1, 25964, Note_on_c, 0, 86, 95
1, 25967, Note_on_c, 0, 74, 85
1, 25969, Note_on_c, 0, 51, 83
1, 25985, Note_off_c, 0, 74, 74
1, 25997, Note_off_c, 0, 86, 62
1, 26013, Note_on_c, 0, 50, 77
1, 26019, Note_off_c, 0, 51, 64
1, 26048, Note_off_c, 0, 50, 64
1, 26095, Note_on_c, 0, 48, 77
1, 26176, Note_on_c, 0, 43, 89
1, 26197, Note_off_c, 0, 48, 57
1, 26203, Note_on_c, 0, 87, 93
1, 26212, Note_on_c, 0, 75, 75
1, 26223, Note_off_c, 0, 87, 69
1, 26227, Note_off_c, 0, 43, 63
1, 26235, Note_off_c, 0, 75, 70
1, 26248, Control_c, 0, 64, 80
1, 26263, Control_c, 0, 64, 0
1, 26265, Note_on_c, 0, 36, 84
1, 26268, Note_on_c, 0, 75, 91
1, 26268, Note_on_c, 0, 87, 110
1, 26325, Note_on_c, 0, 43, 92
1, 26337, Control_c, 0, 64, 70
1, 26340, Note_off_c, 0, 36, 60
1, 26352, Control_c, 0, 64, 127
1, 26376, Note_off_c, 0, 43, 61
1, 26381, Note_on_c, 0, 48, 78
1, 26407, Note_off_c, 0, 48, 66
1, 26472, Note_on_c, 0, 50, 79
1, 26503, Note_off_c, 0, 87, 58
1, 26512, Note_on_c, 0, 48, 5
1, 26525, Note_off_c, 0, 75, 49
1, 26540, Note_on_c, 0, 51, 81
1, 26552, Note_off_c, 0, 50, 64
1, 26558, Note_off_c, 0, 48, 52
1, 26604, Note_off_c, 0, 51, 62
1, 26613, Note_on_c, 0, 55, 70
1, 26639, Note_off_c, 0, 55, 65
1, 26668, Note_on_c, 0, 60, 79
1, 26724, Note_off_c, 0, 60, 56
1, 26733, Note_on_c, 0, 62, 77
1, 26788, Note_on_c, 0, 63, 85
1, 26790, Note_off_c, 0, 62, 61
1, 26790, Control_c, 0, 64, 82
1, 26804, Control_c, 0, 64, 65
1, 26819, Control_c, 0, 64, 67
1, 26834, Control_c, 0, 64, 83
1, 26837, Note_on_c, 0, 62, 76
1, 26849, Control_c, 0, 64, 127
1, 26853, Note_off_c, 0, 63, 64
1, 26881, Note_off_c, 0, 62, 62
1, 26926, Note_on_c, 0, 60, 80
1, 27002, Note_on_c, 0, 55, 82
1, 27002, Note_on_c, 0, 67, 85
1, 27002, Note_off_c, 0, 60, 60
1, 27005, Note_on_c, 0, 72, 81
1, 27006, Note_on_c, 0, 75, 74
1, 27023, Note_on_c, 0, 79, 50
1, 27023, Note_off_c, 0, 67, 70
1, 27028, Note_off_c, 0, 72, 70
1, 27028, Note_off_c, 0, 75, 68
1, 27052, Note_off_c, 0, 79, 0
1, 27063, Note_off_c, 0, 55, 61
1, 27064, Note_on_c, 0, 79, 79
1, 27065, Note_on_c, 0, 67, 100
1, 27067, Note_on_c, 0, 51, 70
1, 27067, Note_on_c, 0, 72, 94
1, 27070, Note_on_c, 0, 75, 91
1, 27108, Note_off_c, 0, 67, 65
1, 27109, Note_on_c, 0, 50, 79
1, 27120, Note_off_c, 0, 75, 61
1, 27121, Note_off_c, 0, 72, 62
1, 27129, Note_off_c, 0, 79, 61
1, 27131, Note_off_c, 0, 51, 64
1, 27136, Note_off_c, 0, 50, 70
1, 27198, Note_on_c, 0, 48, 83
1, 27270, Note_on_c, 0, 43, 88
1, 27275, Note_off_c, 0, 48, 60
1, 27325, Note_off_c, 0, 43, 63
1, 27327, Note_on_c, 0, 67, 89
1, 27330, Note_on_c, 0, 75, 88
1, 27330, Note_on_c, 0, 79, 83
1, 27332, Note_on_c, 0, 72, 84
1, 27356, Note_off_c, 0, 72, 67
1, 27363, Note_off_c, 0, 67, 60
1, 27363, Note_off_c, 0, 79, 57
1, 27376, Note_off_c, 0, 75, 64
1, 27404, Note_on_c, 0, 36, 88
1, 27414, Note_on_c, 0, 69, 103
1, 27414, Note_on_c, 0, 75, 74
1, 27416, Note_on_c, 0, 81, 98
1, 27428, Note_on_c, 0, 77, 82
1, 27434, Control_c, 0, 64, 78
1, 27439, Note_on_c, 0, 78, 55
1, 27449, Control_c, 0, 64, 0
1, 27502, Note_off_c, 0, 78, 27
1, 27523, Note_on_c, 0, 41, 65
1, 27527, Note_off_c, 0, 36, 60
1, 27538, Control_c, 0, 64, 64
1, 27553, Control_c, 0, 64, 76
1, 27565, Note_off_c, 0, 41, 64
1, 27568, Control_c, 0, 64, 96
1, 27583, Control_c, 0, 64, 127
1, 27584, Note_on_c, 0, 48, 74
1, 27625, Note_off_c, 0, 48, 62
1, 27660, Note_on_c, 0, 50, 79
1, 27711, Note_off_c, 0, 50, 63
1, 27719, Note_on_c, 0, 51, 76
1, 27777, Note_off_c, 0, 51, 61
1, 27780, Note_on_c, 0, 50, 68
1, 27806, Note_off_c, 0, 50, 68
1, 27845, Note_on_c, 0, 48, 72
1, 27901, Note_off_c, 0, 48, 59
1, 27929, Note_on_c, 0, 41, 71
1, 27976, Note_off_c, 0, 41, 58
1, 27994, Note_on_c, 0, 36, 80
1, 28005, Control_c, 0, 64, 90
1, 28021, Control_c, 0, 64, 64
1, 28036, Control_c, 0, 64, 0
1, 28054, Note_off_c, 0, 36, 61
1, 28057, Note_on_c, 0, 41, 73
1, 28065, Control_c, 0, 64, 60
1, 28080, Control_c, 0, 64, 86
1, 28096, Control_c, 0, 64, 127
1, 28105, Note_off_c, 0, 41, 61
1, 28124, Note_on_c, 0, 48, 66
1, 28179, Note_off_c, 0, 48, 63
1, 28209, Note_on_c, 0, 50, 75
1, 28218, Note_off_c, 0, 69, 54
1, 28242, Note_off_c, 0, 50, 66
1, 28263, Note_off_c, 0, 77, 55
1, 28283, Note_on_c, 0, 51, 53
1, 28284, Note_off_c, 0, 75, 55
1, 28292, Note_off_c, 0, 81, 60
1, 28314, Note_off_c, 0, 51, 63
1, 28390, Note_on_c, 0, 48, 46
1, 28516, Note_off_c, 0, 48, 35
1, 28574, Poly_aftertouch_c, 0, 43, 0
1, 28710, Note_on_c, 0, 38, 55
1, 28722, Note_on_c, 0, 82, 76
1, 28725, Control_c, 0, 64, 98
1, 28740, Control_c, 0, 64, 73
1, 28741, Note_on_c, 0, 77, 51
1, 28748, Note_on_c, 0, 70, 47
1, 28754, Control_c, 0, 64, 41
1, 28769, Control_c, 0, 64, 0
1, 28829, Control_c, 0, 64, 32
1, 28844, Note_off_c, 0, 38, 61
1, 28844, Control_c, 0, 64, 65
1, 28859, Control_c, 0, 64, 76
1, 28874, Control_c, 0, 64, 88
1, 28885, Note_on_c, 0, 46, 52
1, 28889, Control_c, 0, 64, 99
1, 28903, Control_c, 0, 64, 106
1, 28918, Control_c, 0, 64, 118
1, 28930, Note_off_c, 0, 46, 64
1, 28933, Control_c, 0, 64, 127
1, 28957, Note_on_c, 0, 47, 44
1, 28990, Note_off_c, 0, 47, 53
1, 29029, Note_off_c, 0, 82, 58
1, 29058, Note_on_c, 0, 58, 67
1, 29059, Note_off_c, 0, 77, 51
1, 29070, Note_off_c, 0, 70, 50
1, 29083, Note_off_c, 0, 58, 67
1, 29154, Note_on_c, 0, 46, 39
1, 29187, Note_off_c, 0, 46, 54
1, 29208, Note_on_c, 0, 47, 51
1, 29223, Note_on_c, 0, 82, 73
1, 29229, Note_on_c, 0, 77, 58
1, 29237, Note_on_c, 0, 70, 62
1, 29256, Note_off_c, 0, 47, 62
1, 29261, Note_on_c, 0, 46, 56
1, 29296, Note_off_c, 0, 46, 52
1, 29348, Control_c, 0, 64, 82
1, 29356, Note_on_c, 0, 39, 76
1, 29363, Control_c, 0, 64, 54
1, 29377, Control_c, 0, 64, 0
1, 29407, Control_c, 0, 64, 56
1, 29422, Control_c, 0, 64, 75
1, 29425, Note_off_c, 0, 82, 57
1, 29431, Note_on_c, 0, 46, 67
1, 29434, Note_off_c, 0, 39, 60
1, 29444, Control_c, 0, 64, 93
1, 29459, Control_c, 0, 64, 118
1, 29470, Note_off_c, 0, 70, 50
1, 29473, Control_c, 0, 64, 127
1, 29490, Note_off_c, 0, 46, 62
1, 29491, Note_on_c, 0, 47, 75
1, 29493, Note_off_c, 0, 77, 39
1, 29535, Note_on_c, 0, 82, 85
1, 29541, Note_off_c, 0, 47, 62
1, 29541, Note_on_c, 0, 70, 74
1, 29544, Note_on_c, 0, 79, 76
1, 29547, Note_on_c, 0, 46, 65
1, 29597, Note_off_c, 0, 46, 63
1, 29602, Note_off_c, 0, 79, 58
1, 29628, Note_on_c, 0, 58, 85
1, 29632, Note_off_c, 0, 70, 59
1, 29644, Note_off_c, 0, 82, 62
1, 29681, Note_off_c, 0, 58, 62
1, 29707, Note_on_c, 0, 46, 77
1, 29751, Note_off_c, 0, 46, 64
1, 29780, Note_on_c, 0, 47, 69
1, 29805, Note_on_c, 0, 71, 92
1, 29805, Note_on_c, 0, 83, 92
1, 29807, Note_on_c, 0, 79, 78
1, 29830, Note_on_c, 0, 46, 82
1, 29836, Note_off_c, 0, 47, 62
1, 29879, Note_off_c, 0, 46, 63
1, 29908, Note_on_c, 0, 40, 90
1, 29919, Control_c, 0, 64, 118
1, 29934, Control_c, 0, 64, 75
1, 29949, Control_c, 0, 64, 0
1, 29959, Note_off_c, 0, 71, 58
1, 29981, Note_on_c, 0, 46, 86
1, 29991, Note_off_c, 0, 83, 55
1, 29993, Note_off_c, 0, 40, 59
1, 29993, Control_c, 0, 64, 65
1, 30008, Control_c, 0, 64, 90
1, 30022, Control_c, 0, 64, 127
1, 30030, Note_off_c, 0, 79, 57
1, 30052, Note_off_c, 0, 46, 63
1, 30056, Note_on_c, 0, 48, 82
1, 30081, Note_on_c, 0, 84, 92
1, 30082, Note_on_c, 0, 82, 94
1, 30083, Note_on_c, 0, 72, 91
1, 30105, Note_on_c, 0, 46, 71
1, 30117, Note_off_c, 0, 48, 64
1, 30123, Note_off_c, 0, 72, 65
1, 30141, Note_off_c, 0, 84, 60
1, 30143, Note_off_c, 0, 82, 58
1, 30158, Note_off_c, 0, 46, 64
1, 30203, Note_on_c, 0, 58, 83
1, 30248, Note_off_c, 0, 58, 65
1, 30283, Note_on_c, 0, 46, 73
1, 30329, Note_off_c, 0, 46, 63
1, 30343, Note_on_c, 0, 48, 75
1, 30357, Note_on_c, 0, 82, 94
1, 30358, Note_on_c, 0, 73, 102
1, 30360, Note_on_c, 0, 85, 100
1, 30401, Note_on_c, 0, 46, 79
1, 30407, Note_off_c, 0, 48, 64
1, 30468, Note_off_c, 0, 46, 63
1, 30489, Note_on_c, 0, 41, 93
1, 30504, Control_c, 0, 64, 78
1, 30511, Note_on_c, 0, 43, 65
1, 30512, Note_off_c, 0, 43, 127
1, 30519, Control_c, 0, 64, 0
1, 30555, Note_off_c, 0, 41, 64
1, 30564, Control_c, 0, 64, 65
1, 30575, Note_off_c, 0, 73, 61
1, 30579, Control_c, 0, 64, 116
1, 30581, Note_off_c, 0, 85, 59
1, 30582, Note_on_c, 0, 46, 73
1, 30588, Note_off_c, 0, 82, 52
1, 30593, Control_c, 0, 64, 127
1, 30652, Note_off_c, 0, 46, 63
1, 30662, Note_on_c, 0, 58, 81
1, 30666, Note_on_c, 0, 74, 96
1, 30668, Note_on_c, 0, 82, 86
1, 30670, Note_on_c, 0, 86, 93
1, 30701, Note_off_c, 0, 58, 62
1, 30708, Note_off_c, 0, 74, 68
1, 30711, Note_off_c, 0, 86, 64
1, 30730, Note_on_c, 0, 46, 77
1, 30750, Note_off_c, 0, 82, 45
1, 30792, Note_off_c, 0, 46, 63
1, 30800, Control_c, 0, 64, 117
1, 30806, Note_on_c, 0, 42, 90
1, 30815, Control_c, 0, 64, 82
1, 30819, Note_on_c, 0, 75, 97
1, 30820, Note_on_c, 0, 87, 96
1, 30821, Note_on_c, 0, 82, 94
1, 30830, Control_c, 0, 64, 62
1, 30841, Note_on_c, 0, 44, 40
1, 30842, Note_off_c, 0, 44, 127
1, 30844, Control_c, 0, 64, 70
1, 30859, Control_c, 0, 64, 127
1, 30874, Note_off_c, 0, 42, 61
1, 30883, Note_on_c, 0, 46, 70
1, 30883, Note_off_c, 0, 75, 64
1, 30886, Note_off_c, 0, 87, 66
1, 30907, Note_off_c, 0, 82, 61
1, 30959, Note_on_c, 0, 58, 63
1, 30963, Note_on_c, 0, 82, 90
1, 30966, Note_on_c, 0, 76, 103
1, 30969, Note_off_c, 0, 46, 57
1, 30970, Note_on_c, 0, 88, 98
1, 30984, Note_off_c, 0, 58, 68
1, 31020, Note_on_c, 0, 46, 37
1, 31021, Note_off_c, 0, 76, 61
1, 31052, Note_off_c, 0, 88, 65
1, 31071, Note_off_c, 0, 82, 61
1, 31104, Note_off_c, 0, 46, 62
1, 31149, Control_c, 0, 64, 80
1, 31150, Note_on_c, 0, 41, 86
1, 31151, Note_on_c, 0, 89, 108
1, 31152, Note_on_c, 0, 77, 98
1, 31152, Note_on_c, 0, 82, 97
1, 31154, Note_on_c, 0, 86, 91
1, 31163, Control_c, 0, 64, 0
1, 31224, Control_c, 0, 64, 69
1, 31227, Note_off_c, 0, 41, 58
1, 31228, Note_on_c, 0, 47, 69
1, 31239, Control_c, 0, 64, 96
1, 31254, Control_c, 0, 64, 127
1, 31266, Note_on_c, 0, 50, 79
1, 31277, Note_off_c, 0, 47, 62
1, 31313, Note_off_c, 0, 50, 66
1, 31327, Note_on_c, 0, 53, 72
1, 31350, Note_off_c, 0, 53, 69
1, 31387, Note_off_c, 0, 89, 62
1, 31398, Note_off_c, 0, 86, 63
1, 31414, Note_off_c, 0, 77, 64
1, 31416, Note_on_c, 0, 58, 83
1, 31420, Note_off_c, 0, 82, 63
1, 31481, Note_off_c, 0, 58, 64
1, 31483, Note_on_c, 0, 62, 51
1, 31507, Note_off_c, 0, 62, 58
1, 31539, Note_on_c, 0, 67, 74
1, 31591, Note_off_c, 0, 67, 0
1, 31596, Note_on_c, 0, 65, 39
1, 31617, Poly_aftertouch_c, 0, 67, 0
1, 31631, Note_off_c, 0, 65, 64
1, 31691, Control_c, 0, 64, 98
1, 31698, Note_on_c, 0, 86, 92
1, 31702, Note_on_c, 0, 65, 91
1, 31702, Note_on_c, 0, 74, 96
1, 31702, Note_on_c, 0, 82, 93
1, 31706, Control_c, 0, 64, 66
1, 31706, Note_on_c, 0, 77, 87
1, 31720, Control_c, 0, 64, 0
1, 31750, Control_c, 0, 64, 52
1, 31761, Note_off_c, 0, 74, 64
1, 31765, Control_c, 0, 64, 78
1, 31780, Control_c, 0, 64, 127
1, 31784, Note_on_c, 0, 62, 56
1, 31786, Note_off_c, 0, 65, 58
1, 31786, Note_off_c, 0, 86, 63
1, 31797, Note_on_c, 0, 64, 58
1, 31800, Note_off_c, 0, 77, 60
1, 31818, Note_on_c, 0, 58, 75
1, 31820, Note_off_c, 0, 64, 61
1, 31822, Note_off_c, 0, 82, 60
1, 31831, Note_off_c, 0, 62, 62
1, 31877, Note_on_c, 0, 55, 73
1, 31900, Note_off_c, 0, 58, 63
1, 31914, Note_off_c, 0, 55, 63
1, 31928, Note_on_c, 0, 75, 70
1, 31947, Note_on_c, 0, 77, 75
1, 31961, Note_on_c, 0, 81, 68
1, 31988, Note_off_c, 0, 75, 0
1, 32013, Note_on_c, 0, 53, 84
1, 32017, Control_c, 0, 64, 120
1, 32019, Note_on_c, 0, 86, 95
1, 32026, Poly_aftertouch_c, 0, 75, 127
1, 32032, Control_c, 0, 64, 79
1, 32047, Control_c, 0, 64, 21
1, 32062, Control_c, 0, 64, 0
1, 32091, Control_c, 0, 64, 62
1, 32106, Control_c, 0, 64, 85
1, 32116, Note_on_c, 0, 51, 71
1, 32121, Control_c, 0, 64, 127
1, 32123, Note_off_c, 0, 86, 61
1, 32126, Note_off_c, 0, 53, 56
1, 32154, Note_on_c, 0, 48, 63
1, 32180, Note_off_c, 0, 51, 60
1, 32196, Poly_aftertouch_c, 0, 75, 0
1, 32231, Note_on_c, 0, 41, 74
1, 32239, Note_off_c, 0, 48, 63
1, 32277, Note_off_c, 0, 41, 59
1, 32280, Note_on_c, 0, 84, 84
1, 32284, Note_off_c, 0, 81, 61
1, 32319, Note_off_c, 0, 77, 62
1, 32349, Note_off_c, 0, 84, 59
1, 32373, Control_c, 0, 64, 105
1, 32376, Note_on_c, 0, 82, 99
1, 32382, Note_on_c, 0, 34, 83
1, 32385, Note_on_c, 0, 74, 82
1, 32388, Control_c, 0, 64, 72
1, 32402, Control_c, 0, 64, 0
1, 32442, Note_off_c, 0, 34, 59
1, 32454, Control_c, 0, 64, 68
1, 32469, Control_c, 0, 64, 91
1, 32484, Control_c, 0, 64, 127
1, 32552, Note_on_c, 0, 49, 71
1, 32596, Note_on_c, 0, 48, 69
1, 32642, Note_off_c, 0, 49, 38
1, 32665, Note_on_c, 0, 47, 75
1, 32667, Note_off_c, 0, 74, 24
1, 32722, Note_on_c, 0, 46, 82
1, 32726, Note_off_c, 0, 48, 58
1, 32731, Note_off_c, 0, 47, 64
1, 32735, Control_c, 0, 64, 95
1, 32750, Control_c, 0, 64, 79
1, 32765, Control_c, 0, 64, 79
1, 32780, Control_c, 0, 64, 97
1, 32786, Note_off_c, 0, 46, 65
1, 32795, Control_c, 0, 64, 127
1, 32803, Note_on_c, 0, 48, 79
1, 32806, Note_off_c, 0, 82, 55
1, 32861, Note_on_c, 0, 47, 75
1, 32895, Note_off_c, 0, 48, 62
1, 32918, Note_on_c, 0, 46, 74
1, 32953, Note_off_c, 0, 47, 63
1, 32958, Control_c, 0, 64, 88
1, 32973, Control_c, 0, 64, 47
1, 32982, Note_on_c, 0, 45, 74
1, 32988, Control_c, 0, 64, 0
1, 32997, Note_off_c, 0, 46, 62
1, 33032, Control_c, 0, 64, 64
1, 33034, Note_off_c, 0, 45, 62
1, 33044, Note_on_c, 0, 47, 76
1, 33047, Control_c, 0, 64, 93
1, 33062, Control_c, 0, 64, 127
1, 33115, Note_on_c, 0, 46, 71
1, 33139, Note_off_c, 0, 47, 58
1, 33153, Note_on_c, 0, 45, 73
1, 33233, Control_c, 0, 64, 94
1, 33247, Control_c, 0, 64, 65
1, 33249, Note_on_c, 0, 44, 86
1, 33254, Note_off_c, 0, 45, 65
1, 33254, Note_off_c, 0, 46, 63
1, 33262, Control_c, 0, 64, 0
1, 33306, Control_c, 0, 64, 56
1, 33320, Note_off_c, 0, 44, 59
1, 33321, Control_c, 0, 64, 80
1, 33334, Note_on_c, 0, 46, 74
1, 33335, Control_c, 0, 64, 111
1, 33350, Control_c, 0, 64, 127
1, 33425, Note_on_c, 0, 45, 70
1, 33459, Note_off_c, 0, 46, 60
1, 33462, Note_off_c, 0, 45, 65
1, 33470, Note_on_c, 0, 44, 68
1, 33500, Note_off_c, 0, 44, 63
1, 33632, Control_c, 0, 64, 100
1, 33647, Control_c, 0, 64, 67
1, 33653, Note_on_c, 0, 32, 81
1, 33655, Note_on_c, 0, 83, 97
1, 33657, Note_on_c, 0, 71, 94
1, 33659, Note_on_c, 0, 80, 89
1, 33660, Note_on_c, 0, 75, 90
1, 33661, Control_c, 0, 64, 0
1, 33721, Control_c, 0, 64, 58
1, 33733, Note_off_c, 0, 32, 61
1, 33736, Control_c, 0, 64, 72
1, 33750, Control_c, 0, 64, 85
1, 33765, Control_c, 0, 64, 127
1, 33978, Note_on_c, 0, 44, 70
1, 34058, Note_off_c, 0, 44, 59
1, 34059, Note_on_c, 0, 47, 71
1, 34111, Note_on_c, 0, 51, 68
1, 34117, Note_off_c, 0, 47, 64
1, 34162, Note_off_c, 0, 51, 46
1, 34198, Note_on_c, 0, 46, 55
1, 34242, Note_on_c, 0, 47, 66
1, 34276, Note_off_c, 0, 46, 59
1, 34316, Note_off_c, 0, 83, 60
1, 34323, Note_on_c, 0, 51, 75
1, 34334, Note_off_c, 0, 75, 62
1, 34334, Note_off_c, 0, 47, 63
1, 34338, Note_off_c, 0, 71, 65
1, 34340, Note_on_c, 0, 56, 78
1, 34340, Note_off_c, 0, 80, 62
1, 34366, Note_off_c, 0, 51, 61
1, 34388, Note_off_c, 0, 56, 62
1, 34434, Note_on_c, 0, 50, 81
1, 34502, Note_off_c, 0, 50, 65
1, 34510, Note_on_c, 0, 51, 68
1, 34559, Note_on_c, 0, 56, 82
1, 34570, Note_off_c, 0, 51, 62
1, 34612, Note_off_c, 0, 56, 62
1, 34618, Note_on_c, 0, 75, 91
1, 34619, Note_on_c, 0, 63, 93
1, 34619, Note_on_c, 0, 71, 78
1, 34623, Note_on_c, 0, 68, 81
1, 34634, Note_on_c, 0, 59, 75
1, 34682, Note_off_c, 0, 71, 64
1, 34686, Note_off_c, 0, 68, 62
1, 34688, Note_off_c, 0, 63, 61
1, 34698, Note_off_c, 0, 59, 61
1, 34701, Note_off_c, 0, 75, 60
1, 34704, Note_on_c, 0, 55, 67
1, 34749, Note_on_c, 0, 56, 79
1, 34758, Note_off_c, 0, 55, 62
1, 34785, Note_off_c, 0, 56, 64
1, 34836, Note_on_c, 0, 77, 81
1, 34838, Note_on_c, 0, 65, 83
1, 34861, Note_off_c, 0, 65, 70
1, 34865, Note_off_c, 0, 77, 60
1, 34875, Note_on_c, 0, 75, 8
1, 34878, Control_c, 0, 64, 91
1, 34892, Control_c, 0, 64, 62
1, 34907, Poly_aftertouch_c, 0, 70, 0
1, 34907, Control_c, 0, 64, 0
1, 34909, Note_off_c, 0, 75, 0
1, 34910, Note_on_c, 0, 39, 80
1, 34919, Note_on_c, 0, 78, 94
1, 34921, Note_on_c, 0, 70, 39
1, 34923, Note_on_c, 0, 75, 52
1, 34926, Note_on_c, 0, 66, 80
1, 34937, Control_c, 0, 64, 54
1, 34944, Note_off_c, 0, 39, 65
1, 34952, Control_c, 0, 64, 74
1, 34967, Control_c, 0, 64, 93
1, 34982, Control_c, 0, 64, 127
1, 35068, Note_on_c, 0, 63, 69
1, 35101, Note_on_c, 0, 54, 70
1, 35103, Note_off_c, 0, 63, 63
1, 35256, Note_on_c, 0, 58, 78
1, 35259, Note_off_c, 0, 54, 62
1, 35266, Poly_aftertouch_c, 0, 53, 0
1, 35314, Note_off_c, 0, 58, 62
1, 35334, Note_on_c, 0, 63, 38
1, 35371, Note_off_c, 0, 63, 52
1, 35390, Note_on_c, 0, 50, 74
1, 35449, Note_on_c, 0, 51, 78
1, 35453, Note_off_c, 0, 50, 67
1, 35527, Note_on_c, 0, 54, 82
1, 35531, Note_off_c, 0, 51, 61
1, 35573, Note_off_c, 0, 54, 64
1, 35577, Note_on_c, 0, 58, 63
1, 35606, Note_off_c, 0, 58, 67
1, 35643, Note_on_c, 0, 45, 84
1, 35681, Note_off_c, 0, 78, 53
1, 35698, Note_on_c, 0, 46, 73
1, 35703, Note_off_c, 0, 45, 63
1, 35712, Note_off_c, 0, 66, 38
1, 35721, Note_off_c, 0, 70, 35
1, 35736, Note_off_c, 0, 75, 33
1, 35762, Note_on_c, 0, 51, 79
1, 35783, Note_off_c, 0, 46, 63
1, 35789, Control_c, 0, 64, 89
1, 35796, Note_on_c, 0, 54, 74
1, 35804, Control_c, 0, 64, 73
1, 35816, Note_off_c, 0, 51, 63
1, 35819, Control_c, 0, 64, 68
1, 35821, Note_on_c, 0, 66, 92
1, 35824, Note_on_c, 0, 78, 88
1, 35824, Note_off_c, 0, 54, 68
1, 35834, Control_c, 0, 64, 74
1, 35844, Note_on_c, 0, 70, 50
1, 35849, Control_c, 0, 64, 91
1, 35864, Control_c, 0, 64, 127
1, 35867, Note_off_c, 0, 70, 59
1, 35870, Note_off_c, 0, 66, 65
1, 35875, Note_on_c, 0, 41, 68
1, 35894, Note_off_c, 0, 78, 62
1, 35906, Note_off_c, 0, 41, 63
1, 35963, Note_on_c, 0, 42, 76
1, 36037, Note_on_c, 0, 68, 81
1, 36038, Note_on_c, 0, 80, 79
1, 36049, Note_off_c, 0, 42, 46
1, 36061, Note_off_c, 0, 80, 68
1, 36064, Note_off_c, 0, 68, 66
1, 36065, Note_on_c, 0, 73, 42
1, 36068, Note_on_c, 0, 78, 40
1, 36072, Control_c, 0, 64, 111
1, 36087, Control_c, 0, 64, 75
1, 36088, Note_on_c, 0, 30, 84
1, 36093, Note_off_c, 0, 78, 0
1, 36099, Note_off_c, 0, 73, 0
1, 36102, Control_c, 0, 64, 0
1, 36106, Note_on_c, 0, 81, 77
1, 36110, Note_on_c, 0, 69, 98
1, 36110, Note_on_c, 0, 78, 68
1, 36114, Note_on_c, 0, 73, 77
1, 36116, Note_on_c, 0, 32, 50
1, 36153, Note_off_c, 0, 30, 62
1, 36153, Note_off_c, 0, 32, 51
1, 36161, Control_c, 0, 64, 61
1, 36183, Control_c, 0, 64, 82
1, 36198, Control_c, 0, 64, 112
1, 36213, Control_c, 0, 64, 127
1, 36282, Note_on_c, 0, 41, 68
1, 36320, Note_on_c, 0, 42, 74
1, 36331, Note_off_c, 0, 41, 57
1, 36391, Note_on_c, 0, 45, 71
1, 36408, Note_off_c, 0, 42, 61
1, 36435, Note_on_c, 0, 49, 80
1, 36445, Note_off_c, 0, 45, 62
1, 36497, Note_off_c, 0, 49, 58
1, 36534, Note_on_c, 0, 44, 68
1, 36582, Note_on_c, 0, 45, 69
1, 36612, Control_c, 0, 64, 93
1, 36621, Note_off_c, 0, 44, 59
1, 36627, Control_c, 0, 64, 68
1, 36642, Control_c, 0, 64, 57
1, 36657, Control_c, 0, 64, 64
1, 36662, Note_on_c, 0, 49, 83
1, 36667, Note_off_c, 0, 81, 64
1, 36672, Control_c, 0, 64, 79
1, 36681, Note_off_c, 0, 45, 64
1, 36687, Control_c, 0, 64, 127
1, 36689, Note_off_c, 0, 69, 65
1, 36696, Note_off_c, 0, 73, 62
1, 36696, Note_off_c, 0, 78, 63
1, 36710, Note_on_c, 0, 54, 69
1, 36717, Note_off_c, 0, 49, 63
1, 36740, Note_off_c, 0, 54, 65
1, 36805, Note_on_c, 0, 48, 69
1, 36872, Note_off_c, 0, 48, 60
1, 36875, Note_on_c, 0, 49, 71
1, 36910, Control_c, 0, 64, 111
1, 36932, Control_c, 0, 64, 81
1, 36943, Note_on_c, 0, 54, 71
1, 36947, Control_c, 0, 64, 70
1, 36954, Note_on_c, 0, 73, 82
1, 36955, Note_on_c, 0, 61, 80
1, 36960, Note_off_c, 0, 49, 56
1, 36961, Note_on_c, 0, 69, 66
1, 36961, Control_c, 0, 64, 71
1, 36962, Note_on_c, 0, 66, 69
1, 36976, Control_c, 0, 64, 83
1, 36988, Note_on_c, 0, 57, 76
1, 36991, Control_c, 0, 64, 113
1, 36992, Note_off_c, 0, 54, 59
1, 36992, Note_off_c, 0, 61, 61
1, 36992, Note_off_c, 0, 69, 67
1, 36997, Note_off_c, 0, 66, 59
1, 37006, Control_c, 0, 64, 127
1, 37017, Note_off_c, 0, 73, 62
1, 37052, Note_off_c, 0, 57, 62
1, 37053, Note_on_c, 0, 53, 67
1, 37102, Note_off_c, 0, 53, 64
1, 37107, Note_on_c, 0, 54, 51
1, 37127, Note_off_c, 0, 54, 64
1, 37152, Note_on_c, 0, 63, 79
1, 37154, Note_on_c, 0, 75, 73
1, 37178, Note_off_c, 0, 63, 67
1, 37180, Note_off_c, 0, 75, 64
1, 37183, Control_c, 0, 64, 82
1, 37198, Control_c, 0, 64, 0
1, 37221, Note_on_c, 0, 37, 80
1, 37226, Note_on_c, 0, 68, 70
1, 37227, Note_on_c, 0, 76, 91
1, 37229, Note_on_c, 0, 64, 92
1, 37232, Note_on_c, 0, 73, 81
1, 37242, Control_c, 0, 64, 34
1, 37252, Note_off_c, 0, 37, 64
1, 37257, Control_c, 0, 64, 70
1, 37272, Control_c, 0, 64, 96
1, 37286, Control_c, 0, 64, 127
1, 37382, Note_on_c, 0, 61, 57
1, 37404, Note_on_c, 0, 51, 62
1, 37413, Note_off_c, 0, 61, 64
1, 37467, Note_on_c, 0, 52, 60
1, 37470, Note_off_c, 0, 51, 61
1, 37509, Control_c, 0, 64, 105
1, 37523, Control_c, 0, 64, 86
1, 37524, Note_on_c, 0, 56, 81
1, 37538, Control_c, 0, 64, 83
1, 37539, Note_off_c, 0, 52, 64
1, 37553, Control_c, 0, 64, 96
1, 37564, Poly_aftertouch_c, 0, 53, 0
1, 37568, Control_c, 0, 64, 127
1, 37593, Note_on_c, 0, 61, 71
1, 37600, Note_off_c, 0, 56, 63
1, 37621, Note_off_c, 0, 61, 66
1, 37668, Note_on_c, 0, 48, 76
1, 37735, Note_off_c, 0, 76, 51
1, 37741, Note_on_c, 0, 49, 76
1, 37742, Note_off_c, 0, 48, 62
1, 37771, Note_off_c, 0, 64, 31
1, 37810, Note_on_c, 0, 52, 78
1, 37830, Note_off_c, 0, 49, 61
1, 37852, Note_on_c, 0, 56, 71
1, 37863, Note_off_c, 0, 52, 64
1, 37883, Note_off_c, 0, 56, 65
1, 37894, Note_off_c, 0, 73, 20
1, 37912, Note_off_c, 0, 68, 20
1, 37942, Note_on_c, 0, 43, 86
1, 37995, Note_on_c, 0, 44, 70
1, 38011, Note_off_c, 0, 43, 60
1, 38051, Control_c, 0, 64, 91
1, 38061, Note_on_c, 0, 49, 77
1, 38066, Control_c, 0, 64, 69
1, 38081, Control_c, 0, 64, 30
1, 38096, Control_c, 0, 64, 0
1, 38098, Note_on_c, 0, 76, 87
1, 38101, Note_on_c, 0, 64, 83
1, 38102, Note_off_c, 0, 44, 48
1, 38106, Note_on_c, 0, 68, 75
1, 38110, Control_c, 0, 64, 48
1, 38123, Note_on_c, 0, 73, 49
1, 38124, Note_on_c, 0, 52, 61
1, 38125, Control_c, 0, 64, 69
1, 38126, Note_off_c, 0, 49, 62
1, 38140, Control_c, 0, 64, 91
1, 38142, Note_off_c, 0, 64, 64
1, 38148, Note_off_c, 0, 73, 57
1, 38150, Note_off_c, 0, 68, 61
1, 38153, Note_off_c, 0, 52, 63
1, 38154, Control_c, 0, 64, 127
1, 38178, Note_off_c, 0, 76, 64
1, 38255, Note_on_c, 0, 39, 63
1, 38335, Note_off_c, 0, 39, 57
1, 38344, Note_on_c, 0, 40, 56
1, 38359, Note_on_c, 0, 78, 78
1, 38364, Note_on_c, 0, 66, 63
1, 38383, Note_off_c, 0, 66, 66
1, 38396, Note_off_c, 0, 40, 57
1, 38406, Note_off_c, 0, 78, 52
1, 38430, Control_c, 0, 64, 90
1, 38445, Control_c, 0, 64, 60
1, 38459, Control_c, 0, 64, 0
1, 38463, Note_on_c, 0, 78, 65
1, 38464, Note_on_c, 0, 80, 80
1, 38471, Note_on_c, 0, 36, 65
1, 38477, Note_on_c, 0, 68, 60
1, 38477, Note_on_c, 0, 75, 43
1, 38514, Note_off_c, 0, 36, 62
1, 38519, Control_c, 0, 64, 58
1, 38533, Control_c, 0, 64, 78
1, 38548, Control_c, 0, 64, 103
1, 38563, Control_c, 0, 64, 127
1, 38669, Note_on_c, 0, 63, 57
1, 38714, Note_off_c, 0, 63, 61
1, 38740, Note_on_c, 0, 55, 54
1, 38803, Note_on_c, 0, 56, 70
1, 38804, Note_off_c, 0, 55, 60
1, 38854, Note_off_c, 0, 56, 49
1, 38883, Note_on_c, 0, 57, 72
1, 38952, Note_on_c, 0, 56, 70
1, 38958, Note_off_c, 0, 57, 54
1, 38993, Note_off_c, 0, 56, 54
1, 39006, Note_on_c, 0, 54, 78
1, 39039, Note_off_c, 0, 54, 62
1, 39097, Note_on_c, 0, 52, 73
1, 39149, Note_on_c, 0, 51, 73
1, 39168, Note_off_c, 0, 52, 62
1, 39211, Note_off_c, 0, 51, 62
1, 39214, Note_on_c, 0, 49, 82
1, 39234, Note_off_c, 0, 75, 51
1, 39234, Note_off_c, 0, 80, 47
1, 39242, Note_off_c, 0, 78, 57
1, 39243, Note_off_c, 0, 49, 66
1, 39262, Note_off_c, 0, 68, 55
1, 39291, Note_on_c, 0, 48, 74
1, 39334, Note_on_c, 0, 45, 77
1, 39343, Note_off_c, 0, 48, 61
1, 39371, Control_c, 0, 64, 97
1, 39382, Note_off_c, 0, 45, 62
1, 39386, Control_c, 0, 64, 59
1, 39399, Note_on_c, 0, 43, 78
1, 39400, Control_c, 0, 64, 0
1, 39411, Note_on_c, 0, 68, 89
1, 39416, Note_on_c, 0, 80, 79
1, 39417, Note_on_c, 0, 75, 77
1, 39420, Note_on_c, 0, 78, 77
1, 39432, Note_off_c, 0, 43, 63
1, 39460, Control_c, 0, 64, 69
1, 39474, Note_off_c, 0, 68, 61
1, 39474, Control_c, 0, 64, 107
1, 39481, Note_off_c, 0, 75, 54
1, 39487, Note_on_c, 0, 44, 73
1, 39489, Control_c, 0, 64, 127
1, 39497, Note_off_c, 0, 80, 61
1, 39501, Note_off_c, 0, 78, 57
1, 39520, Note_off_c, 0, 44, 64
1, 39547, Note_on_c, 0, 39, 70
1, 39614, Note_on_c, 0, 44, 75
1, 39616, Note_on_c, 0, 70, 83
1, 39616, Note_on_c, 0, 82, 80
1, 39626, Note_off_c, 0, 39, 59
1, 39636, Note_off_c, 0, 82, 71
1, 39638, Control_c, 0, 64, 116
1, 39644, Note_off_c, 0, 70, 63
1, 39653, Control_c, 0, 64, 73
1, 39668, Control_c, 0, 64, 0
1, 39670, Note_off_c, 0, 44, 60
1, 39674, Note_on_c, 0, 38, 84
1, 39679, Note_on_c, 0, 77, 71
1, 39681, Note_on_c, 0, 80, 73
1, 39684, Note_on_c, 0, 71, 98
1, 39686, Note_on_c, 0, 83, 94
1, 39702, Note_off_c, 0, 38, 65
1, 39712, Control_c, 0, 64, 62
1, 39726, Control_c, 0, 64, 82
1, 39741, Control_c, 0, 64, 127
1, 39753, Note_off_c, 0, 83, 60
1, 39775, Note_off_c, 0, 77, 61
1, 39780, Note_off_c, 0, 71, 62
1, 39814, Note_off_c, 0, 80, 58
1, 39837, Note_on_c, 0, 64, 60
1, 39845, Note_on_c, 0, 65, 28
1, 39875, Note_off_c, 0, 64, 61
1, 39881, Note_off_c, 0, 65, 46
1, 39892, Note_on_c, 0, 57, 54
1, 39902, Note_on_c, 0, 55, 55
1, 39942, Note_off_c, 0, 55, 59
1, 39944, Note_on_c, 0, 58, 80
1, 39945, Note_off_c, 0, 57, 64
1, 40010, Note_off_c, 0, 58, 62
1, 40023, Note_on_c, 0, 77, 79
1, 40025, Note_on_c, 0, 70, 90
1, 40025, Note_on_c, 0, 80, 81
1, 40025, Note_on_c, 0, 82, 89
1, 40031, Note_on_c, 0, 59, 82
1, 40090, Note_on_c, 0, 58, 74
1, 40099, Note_off_c, 0, 59, 58
1, 40145, Note_on_c, 0, 56, 75
1, 40149, Note_off_c, 0, 58, 64
1, 40201, Note_on_c, 0, 54, 71
1, 40204, Note_off_c, 0, 56, 64
1, 40223, Note_off_c, 0, 54, 67
1, 40269, Note_on_c, 0, 53, 85
1, 40302, Note_off_c, 0, 80, 57
1, 40308, Note_off_c, 0, 77, 53
1, 40308, Note_off_c, 0, 82, 54
1, 40326, Note_off_c, 0, 70, 54
1, 40327, Note_on_c, 0, 51, 76
1, 40331, Note_off_c, 0, 53, 58
1, 40380, Note_on_c, 0, 50, 83
1, 40381, Note_off_c, 0, 51, 63
1, 40404, Note_off_c, 0, 50, 72
1, 40468, Note_on_c, 0, 47, 80
1, 40523, Note_on_c, 0, 45, 84
1, 40524, Note_off_c, 0, 47, 64
1, 40538, Note_on_c, 0, 70, 101
1, 40538, Note_on_c, 0, 77, 88
1, 40541, Note_on_c, 0, 80, 91
1, 40544, Note_on_c, 0, 82, 89
1, 40574, Note_off_c, 0, 45, 63
1, 40585, Note_off_c, 0, 70, 64
1, 40585, Note_off_c, 0, 77, 65
1, 40586, Note_on_c, 0, 46, 84
1, 40598, Note_off_c, 0, 80, 62
1, 40601, Note_off_c, 0, 82, 62
1, 40648, Note_off_c, 0, 46, 63
1, 40661, Note_on_c, 0, 41, 77
1, 40752, Note_on_c, 0, 46, 82
1, 40761, Note_on_c, 0, 72, 89
1, 40766, Note_on_c, 0, 84, 76
1, 40771, Note_off_c, 0, 41, 61
1, 40779, Note_off_c, 0, 72, 71
1, 40788, Note_off_c, 0, 84, 71
1, 40794, Control_c, 0, 64, 108
1, 40809, Note_off_c, 0, 46, 64
1, 40809, Control_c, 0, 64, 67
1, 40824, Control_c, 0, 64, 0
1, 40825, Note_on_c, 0, 40, 87
1, 40830, Note_on_c, 0, 85, 94
1, 40833, Note_on_c, 0, 73, 97
1, 40837, Note_on_c, 0, 79, 82
1, 40839, Note_on_c, 0, 82, 85
1, 40856, Note_on_c, 0, 80, 58
1, 40869, Control_c, 0, 64, 21
1, 40871, Note_off_c, 0, 40, 61
1, 40879, Note_off_c, 0, 80, 40
1, 40884, Control_c, 0, 64, 68
1, 40899, Control_c, 0, 64, 90
1, 40914, Control_c, 0, 64, 127
1, 40982, Note_off_c, 0, 73, 59
1, 40991, Note_off_c, 0, 85, 58
1, 40998, Note_off_c, 0, 82, 56
1, 41002, Note_on_c, 0, 67, 66
1, 41009, Note_off_c, 0, 79, 47
1, 41018, Note_on_c, 0, 69, 23
1, 41032, Note_off_c, 0, 67, 65
1, 41052, Note_on_c, 0, 59, 79
1, 41055, Note_off_c, 0, 69, 53
1, 41119, Note_on_c, 0, 60, 77
1, 41119, Note_off_c, 0, 59, 59
1, 41166, Note_on_c, 0, 61, 80
1, 41171, Note_off_c, 0, 60, 65
1, 41173, Note_on_c, 0, 72, 93
1, 41174, Note_on_c, 0, 82, 90
1, 41175, Note_on_c, 0, 79, 80
1, 41175, Note_on_c, 0, 84, 88
1, 41179, Control_c, 0, 64, 108
1, 41194, Control_c, 0, 64, 69
1, 41209, Control_c, 0, 64, 0
1, 41219, Note_off_c, 0, 61, 63
1, 41224, Control_c, 0, 64, 27
1, 41239, Control_c, 0, 64, 73
1, 41244, Note_on_c, 0, 60, 72
1, 41253, Control_c, 0, 64, 127
1, 41301, Note_off_c, 0, 79, 58
1, 41309, Note_off_c, 0, 72, 56
1, 41310, Note_on_c, 0, 58, 84
1, 41310, Note_off_c, 0, 60, 59
1, 41321, Note_off_c, 0, 84, 56
1, 41332, Note_off_c, 0, 82, 59
1, 41364, Note_off_c, 0, 58, 63
1, 41367, Note_on_c, 0, 56, 83
1, 41423, Note_off_c, 0, 56, 63
1, 41453, Note_on_c, 0, 55, 80
1, 41453, Control_c, 0, 64, 105
1, 41468, Control_c, 0, 64, 78
1, 41483, Control_c, 0, 64, 72
1, 41498, Control_c, 0, 64, 90
1, 41513, Control_c, 0, 64, 127
1, 41525, Note_off_c, 0, 55, 61
1, 41528, Note_on_c, 0, 53, 71
1, 41581, Note_on_c, 0, 52, 88
1, 41585, Note_off_c, 0, 53, 66
1, 41635, Note_off_c, 0, 52, 62
1, 41656, Note_on_c, 0, 55, 83
1, 41662, Control_c, 0, 64, 82
1, 41677, Control_c, 0, 64, 66
1, 41692, Control_c, 0, 64, 69
1, 41706, Control_c, 0, 64, 86
1, 41712, Note_on_c, 0, 53, 81
1, 41719, Note_off_c, 0, 55, 59
1, 41721, Control_c, 0, 64, 127
1, 41772, Note_on_c, 0, 52, 78
1, 41784, Note_off_c, 0, 53, 63
1, 41831, Note_on_c, 0, 49, 78
1, 41839, Note_off_c, 0, 52, 62
1, 41881, Note_off_c, 0, 49, 64
1, 41899, Control_c, 0, 64, 115
1, 41906, Note_on_c, 0, 48, 87
1, 41914, Control_c, 0, 64, 70
1, 41928, Control_c, 0, 64, 0
1, 41968, Note_on_c, 0, 47, 85
1, 41969, Note_off_c, 0, 48, 62
1, 42024, Note_off_c, 0, 47, 64
1, 42040, Note_on_c, 0, 48, 79
1, 42111, Note_on_c, 0, 49, 85
1, 42112, Note_off_c, 0, 48, 62
1, 42121, Control_c, 0, 64, 48
1, 42136, Control_c, 0, 64, 65
1, 42137, Note_off_c, 0, 49, 68
1, 42151, Control_c, 0, 64, 72
1, 42173, Control_c, 0, 64, 85
1, 42183, Note_on_c, 0, 48, 77
1, 42188, Control_c, 0, 64, 103
1, 42202, Control_c, 0, 64, 127
1, 42240, Note_on_c, 0, 46, 81
1, 42268, Note_off_c, 0, 48, 60
1, 42291, Note_on_c, 0, 44, 83
1, 42297, Note_off_c, 0, 46, 64
1, 42338, Note_off_c, 0, 44, 60
1, 42368, Note_on_c, 0, 43, 89
1, 42411, Control_c, 0, 64, 111
1, 42425, Control_c, 0, 64, 70
1, 42429, Note_on_c, 0, 41, 68
1, 42434, Note_on_c, 0, 40, 67
1, 42440, Control_c, 0, 64, 0
1, 42442, Note_off_c, 0, 43, 63
1, 42485, Control_c, 0, 64, 20
1, 42499, Control_c, 0, 64, 72
1, 42505, Note_off_c, 0, 41, 63
1, 42514, Control_c, 0, 64, 127
1, 42528, Note_on_c, 0, 37, 80
1, 42538, Note_off_c, 0, 40, 63
1, 42554, Note_off_c, 0, 37, 69
1, 42607, Note_on_c, 0, 36, 86
1, 42701, Note_off_c, 0, 36, 61
1, 42735, Note_on_c, 0, 38, 88
1, 42739, Note_on_c, 0, 36, 71
1, 42798, Note_on_c, 0, 34, 86
1, 42827, Note_off_c, 0, 36, 59
1, 42828, Note_off_c, 0, 38, 59
1, 42873, Note_off_c, 0, 34, 61
1, 42890, Note_on_c, 0, 33, 64
1, 42926, Note_on_c, 0, 32, 23
1, 42933, Note_on_c, 0, 31, 72
1, 42966, Note_off_c, 0, 32, 30
1, 42973, Note_off_c, 0, 33, 58
1, 43000, Note_off_c, 0, 31, 62
1, 43048, Note_on_c, 0, 92, 100
1, 43049, Note_on_c, 0, 80, 109
1, 43051, Note_on_c, 0, 84, 99
1, 43053, Note_on_c, 0, 28, 86
1, 43054, Note_on_c, 0, 89, 95
1, 43055, Control_c, 0, 64, 81
1, 43057, Note_on_c, 0, 29, 86
1, 43069, Control_c, 0, 64, 0
1, 43113, Note_off_c, 0, 28, 60
1, 43158, Control_c, 0, 64, 88
1, 43173, Control_c, 0, 64, 127
1, 43182, Note_on_c, 0, 36, 73
1, 43210, Note_off_c, 0, 29, 62
1, 43214, Note_off_c, 0, 92, 62
1, 43232, Note_off_c, 0, 89, 58
1, 43239, Note_off_c, 0, 36, 57
1, 43242, Note_off_c, 0, 84, 58
1, 43243, Note_on_c, 0, 41, 78
1, 43266, Note_off_c, 0, 80, 59
1, 43273, Note_off_c, 0, 41, 64
1, 43325, Note_on_c, 0, 43, 87
1, 43393, Note_on_c, 0, 44, 75
1, 43406, Note_off_c, 0, 43, 60
1, 43439, Note_on_c, 0, 48, 81
1, 43454, Note_off_c, 0, 44, 61
1, 43489, Note_off_c, 0, 48, 62
1, 43494, Note_on_c, 0, 53, 77
1, 43520, Note_off_c, 0, 53, 69
1, 43572, Note_on_c, 0, 55, 82
1, 43605, Note_on_c, 0, 84, 83
1, 43606, Note_on_c, 0, 77, 94
1, 43607, Note_on_c, 0, 89, 95
1, 43623, Note_on_c, 0, 56, 82
1, 43647, Note_off_c, 0, 89, 64
1, 43650, Note_off_c, 0, 55, 59
1, 43650, Note_off_c, 0, 84, 66
1, 43653, Note_off_c, 0, 77, 66
1, 43692, Note_on_c, 0, 60, 81
1, 43698, Note_off_c, 0, 56, 63
1, 43722, Note_off_c, 0, 60, 67
1, 43757, Note_on_c, 0, 65, 80
1, 43801, Note_off_c, 0, 65, 60
1, 43837, Note_on_c, 0, 67, 77
1, 43874, Note_on_c, 0, 68, 79
1, 43880, Note_off_c, 0, 67, 61
1, 43891, Note_on_c, 0, 72, 103
1, 43891, Note_on_c, 0, 84, 91
1, 43892, Note_on_c, 0, 77, 97
1, 43909, Note_off_c, 0, 68, 67
1, 43928, Note_off_c, 0, 84, 66
1, 43931, Note_off_c, 0, 72, 66
1, 43942, Note_off_c, 0, 77, 64
1, 43981, Note_on_c, 0, 65, 60
1, 44064, Note_off_c, 0, 65, 60
1, 44066, Note_on_c, 0, 60, 75
1, 44118, Note_off_c, 0, 60, 63
1, 44145, Control_c, 0, 64, 112
1, 44148, Note_on_c, 0, 61, 89
1, 44160, Control_c, 0, 64, 71
1, 44172, Note_on_c, 0, 77, 82
1, 44174, Note_on_c, 0, 70, 97
1, 44175, Note_on_c, 0, 82, 101
1, 44175, Control_c, 0, 64, 0
1, 44230, Note_off_c, 0, 61, 60
1, 44234, Control_c, 0, 64, 71
1, 44237, Note_on_c, 0, 65, 80
1, 44249, Control_c, 0, 64, 114
1, 44264, Control_c, 0, 64, 127
1, 44311, Note_on_c, 0, 61, 62
1, 44312, Note_off_c, 0, 65, 60
1, 44340, Note_on_c, 0, 56, 53
1, 44344, Note_off_c, 0, 61, 64
1, 44376, Note_off_c, 0, 56, 65
1, 44450, Note_on_c, 0, 53, 61
1, 44482, Note_on_c, 0, 52, 44
1, 44508, Note_on_c, 0, 49, 73
1, 44509, Note_off_c, 0, 53, 62
1, 44514, Note_off_c, 0, 52, 54
1, 44532, Note_off_c, 0, 82, 54
1, 44564, Note_off_c, 0, 49, 61
1, 44580, Note_off_c, 0, 70, 56
1, 44586, Note_on_c, 0, 44, 71
1, 44616, Note_off_c, 0, 44, 63
1, 44669, Note_on_c, 0, 41, 78
1, 44734, Note_on_c, 0, 37, 73
1, 44744, Note_off_c, 0, 41, 58
1, 44768, Note_on_c, 0, 80, 80
1, 44769, Note_on_c, 0, 68, 82
1, 44801, Note_on_c, 0, 32, 80
1, 44804, Note_off_c, 0, 37, 60
1, 44804, Note_off_c, 0, 77, 62
1, 44810, Note_off_c, 0, 68, 62
1, 44817, Note_off_c, 0, 80, 63
1, 44881, Note_on_c, 0, 37, 84
1, 44903, Note_off_c, 0, 32, 57
1, 44949, Note_on_c, 0, 41, 82
1, 44955, Note_off_c, 0, 37, 63
1, 45021, Note_on_c, 0, 37, 83
1, 45071, Note_off_c, 0, 41, 58
1, 45085, Note_on_c, 0, 32, 83
1, 45100, Note_off_c, 0, 37, 64
1, 45173, Note_on_c, 0, 37, 85
1, 45219, Note_off_c, 0, 32, 57
1, 45248, Note_on_c, 0, 41, 89
1, 45272, Note_off_c, 0, 37, 61
1, 45347, Note_off_c, 0, 41, 49
1, 45411, Note_on_c, 0, 92, 101
1, 45412, Note_on_c, 0, 80, 103
1, 45414, Note_on_c, 0, 29, 95
1, 45414, Note_on_c, 0, 89, 91
1, 45417, Note_on_c, 0, 84, 91
1, 45420, Control_c, 0, 64, 72
1, 45435, Control_c, 0, 64, 0
1, 45509, Control_c, 0, 64, 80
1, 45524, Control_c, 0, 64, 127
1, 45537, Note_on_c, 0, 36, 71
1, 45561, Note_off_c, 0, 29, 62
1, 45564, Note_on_c, 0, 35, 35
1, 45577, Note_off_c, 0, 92, 63
1, 45590, Note_off_c, 0, 89, 59
1, 45594, Note_on_c, 0, 41, 74
1, 45599, Note_off_c, 0, 36, 60
1, 45605, Note_off_c, 0, 35, 48
1, 45605, Note_off_c, 0, 84, 61
1, 45617, Note_off_c, 0, 80, 60
1, 45623, Note_off_c, 0, 41, 63
1, 45692, Note_on_c, 0, 43, 79
1, 45756, Note_on_c, 0, 44, 73
1, 45786, Note_off_c, 0, 43, 59
1, 45826, Note_on_c, 0, 48, 77
1, 45836, Note_off_c, 0, 44, 60
1, 45865, Note_off_c, 0, 48, 58
1, 45884, Note_on_c, 0, 53, 71
1, 45921, Note_off_c, 0, 53, 67
1, 45966, Note_on_c, 0, 55, 86
1, 45993, Note_on_c, 0, 77, 93
1, 45993, Note_on_c, 0, 84, 87
1, 45995, Note_on_c, 0, 89, 91
1, 46036, Note_on_c, 0, 56, 77
1, 46037, Note_off_c, 0, 89, 64
1, 46044, Note_off_c, 0, 84, 65
1, 46047, Note_off_c, 0, 77, 63
1, 46066, Note_off_c, 0, 55, 56
1, 46094, Note_on_c, 0, 60, 81
1, 46104, Note_off_c, 0, 56, 62
1, 46133, Note_off_c, 0, 60, 64
1, 46171, Note_on_c, 0, 65, 76
1, 46215, Note_off_c, 0, 65, 48
1, 46247, Note_on_c, 0, 67, 70
1, 46269, Note_on_c, 0, 84, 95
1, 46270, Note_on_c, 0, 72, 104
1, 46272, Note_on_c, 0, 77, 93
1, 46288, Note_on_c, 0, 68, 80
1, 46294, Note_off_c, 0, 67, 61
1, 46314, Note_on_c, 0, 78, 18
1, 46315, Note_off_c, 0, 78, 127
1, 46328, Note_off_c, 0, 68, 67
1, 46360, Note_on_c, 0, 67, 46
1, 46387, Note_off_c, 0, 72, 56
1, 46395, Note_off_c, 0, 67, 52
1, 46417, Note_on_c, 0, 65, 72
1, 46456, Note_off_c, 0, 77, 52
1, 46456, Note_off_c, 0, 84, 52
1, 46481, Note_on_c, 0, 60, 74
1, 46481, Note_off_c, 0, 65, 60
1, 46540, Note_off_c, 0, 60, 64
1, 46583, Note_on_c, 0, 84, 94
1, 46584, Note_on_c, 0, 62, 98
1, 46584, Control_c, 0, 64, 77
1, 46585, Note_on_c, 0, 72, 108
1, 46586, Note_on_c, 0, 77, 97
1, 46598, Control_c, 0, 64, 0
1, 46680, Control_c, 0, 64, 49
1, 46681, Note_off_c, 0, 62, 59
1, 46695, Note_on_c, 0, 65, 76
1, 46695, Control_c, 0, 64, 69
1, 46710, Control_c, 0, 64, 87
1, 46724, Control_c, 0, 64, 127
1, 46754, Note_off_c, 0, 65, 62
1, 46755, Note_on_c, 0, 62, 76
1, 46827, Note_on_c, 0, 60, 58
1, 46829, Note_off_c, 0, 62, 61
1, 46859, Note_off_c, 0, 60, 66
1, 46863, Note_on_c, 0, 56, 76
1, 46890, Note_off_c, 0, 56, 68
1, 46950, Note_on_c, 0, 53, 74
1, 47011, Note_off_c, 0, 53, 63
1, 47012, Note_on_c, 0, 50, 79
1, 47015, Note_off_c, 0, 84, 52
1, 47059, Note_off_c, 0, 72, 54
1, 47066, Note_off_c, 0, 77, 48
1, 47095, Note_on_c, 0, 48, 58
1, 47097, Note_on_c, 0, 47, 67
1, 47097, Note_off_c, 0, 50, 64
1, 47123, Note_off_c, 0, 48, 65
1, 47124, Note_on_c, 0, 44, 80
1, 47133, Note_off_c, 0, 47, 65
1, 47153, Note_off_c, 0, 44, 65
1, 47219, Note_on_c, 0, 40, 71
1, 47282, Note_off_c, 0, 40, 60
1, 47284, Note_on_c, 0, 38, 71
1, 47347, Note_on_c, 0, 36, 58
1, 47361, Note_off_c, 0, 38, 57
1, 47382, Note_on_c, 0, 35, 28
1, 47388, Note_off_c, 0, 36, 61
1, 47407, Control_c, 0, 64, 80
1, 47408, Note_on_c, 0, 71, 100
1, 47408, Note_on_c, 0, 83, 99
1, 47416, Note_on_c, 0, 77, 94
1, 47420, Note_on_c, 0, 32, 88
1, 47429, Note_off_c, 0, 35, 51
1, 47429, Control_c, 0, 64, 43
1, 47444, Control_c, 0, 64, 0
1, 47474, Control_c, 0, 64, 67
1, 47488, Control_c, 0, 64, 125
1, 47490, Note_on_c, 0, 36, 78
1, 47503, Control_c, 0, 64, 127
1, 47513, Note_off_c, 0, 71, 63
1, 47527, Note_off_c, 0, 32, 59
1, 47542, Note_off_c, 0, 83, 56
1, 47558, Note_on_c, 0, 38, 73
1, 47594, Note_off_c, 0, 36, 59
1, 47615, Note_off_c, 0, 77, 57
1, 47644, Note_on_c, 0, 44, 64
1, 47655, Note_off_c, 0, 38, 59
1, 47674, Note_off_c, 0, 44, 63
1, 47682, Note_on_c, 0, 84, 91
1, 47683, Note_on_c, 0, 72, 94
1, 47719, Note_off_c, 0, 72, 62
1, 47722, Note_off_c, 0, 84, 67
1, 47755, Control_c, 0, 64, 89
1, 47770, Control_c, 0, 64, 49
1, 47773, Note_on_c, 0, 74, 104
1, 47774, Note_on_c, 0, 77, 103
1, 47776, Note_on_c, 0, 86, 102
1, 47779, Note_on_c, 0, 83, 92
1, 47779, Note_on_c, 0, 31, 87
1, 47784, Note_on_c, 0, 43, 88
1, 47785, Control_c, 0, 64, 0
1, 47858, Control_c, 0, 64, 37
1, 47868, Note_off_c, 0, 31, 62
1, 47873, Control_c, 0, 64, 73
1, 47888, Control_c, 0, 64, 96
1, 47903, Control_c, 0, 64, 127
1, 47910, Note_off_c, 0, 43, 64
1, 48063, Note_on_c, 0, 68, 96
1, 48121, Note_off_c, 0, 68, 64
1, 48153, Note_on_c, 0, 67, 83
1, 48210, Note_off_c, 0, 74, 59
1, 48223, Note_off_c, 0, 86, 58
1, 48227, Note_off_c, 0, 77, 53
1, 48230, Note_off_c, 0, 83, 56
1, 48232, Note_on_c, 0, 65, 86
1, 48239, Note_off_c, 0, 67, 61
1, 48296, Note_on_c, 0, 62, 77
1, 48309, Note_off_c, 0, 65, 61
1, 48326, Control_c, 0, 64, 100
1, 48341, Control_c, 0, 64, 65
1, 48356, Control_c, 0, 64, 0
1, 48365, Note_on_c, 0, 63, 81
1, 48377, Note_off_c, 0, 62, 62
1, 48385, Control_c, 0, 64, 41
1, 48400, Control_c, 0, 64, 75
1, 48408, Note_off_c, 0, 63, 59
1, 48415, Control_c, 0, 64, 127
1, 48431, Note_on_c, 0, 62, 71
1, 48506, Note_off_c, 0, 62, 60
1, 48509, Note_on_c, 0, 59, 75
1, 48543, Note_on_c, 0, 55, 81
1, 48557, Note_off_c, 0, 59, 63
1, 48608, Note_on_c, 0, 56, 74
1, 48618, Note_off_c, 0, 55, 62
1, 48640, Note_off_c, 0, 56, 61
1, 48682, Note_on_c, 0, 55, 83
1, 48751, Note_off_c, 0, 55, 61
1, 48759, Note_on_c, 0, 53, 65
1, 48768, Note_on_c, 0, 52, 65
1, 48770, Control_c, 0, 64, 111
1, 48786, Control_c, 0, 64, 93
1, 48798, Note_on_c, 0, 50, 77
1, 48801, Control_c, 0, 64, 107
1, 48804, Note_off_c, 0, 52, 55
1, 48813, Note_off_c, 0, 53, 62
1, 48816, Control_c, 0, 64, 127
1, 48856, Note_on_c, 0, 51, 75
1, 48872, Note_off_c, 0, 50, 65
1, 48875, Note_off_c, 0, 51, 63
1, 48888, Note_on_c, 0, 52, 46
1, 48916, Note_off_c, 0, 52, 63
1, 48942, Note_on_c, 0, 50, 78
1, 48986, Control_c, 0, 64, 125
1, 49001, Control_c, 0, 64, 83
1, 49004, Note_on_c, 0, 47, 88
1, 49014, Note_off_c, 0, 50, 65
1, 49016, Control_c, 0, 64, 70
1, 49031, Control_c, 0, 64, 75
1, 49045, Control_c, 0, 64, 99
1, 49051, Note_on_c, 0, 43, 81
1, 49060, Control_c, 0, 64, 127
1, 49084, Note_off_c, 0, 47, 62
1, 49109, Note_on_c, 0, 44, 83
1, 49135, Note_off_c, 0, 43, 62
1, 49159, Note_off_c, 0, 44, 61
1, 49193, Note_on_c, 0, 43, 89
1, 49223, Control_c, 0, 64, 87
1, 49238, Control_c, 0, 64, 52
1, 49248, Note_on_c, 0, 41, 80
1, 49253, Control_c, 0, 64, 0
1, 49276, Note_off_c, 0, 43, 55
1, 49282, Control_c, 0, 64, 19
1, 49287, Note_on_c, 0, 38, 79
1, 49297, Control_c, 0, 64, 68
1, 49311, Control_c, 0, 64, 85
1, 49319, Note_off_c, 0, 41, 62
1, 49326, Control_c, 0, 64, 127
1, 49352, Note_on_c, 0, 39, 77
1, 49377, Note_off_c, 0, 38, 57
1, 49418, Note_off_c, 0, 39, 59
1, 49427, Note_on_c, 0, 38, 60
1, 49460, Control_c, 0, 64, 85
1, 49475, Control_c, 0, 64, 21
1, 49477, Note_off_c, 0, 38, 52
1, 49490, Control_c, 0, 64, 0
1, 49499, Note_on_c, 0, 36, 93
1, 49564, Control_c, 0, 64, 87
1, 49573, Note_off_c, 0, 36, 59
1, 49579, Note_on_c, 0, 31, 73
1, 49579, Control_c, 0, 64, 127
1, 49642, Note_on_c, 0, 36, 81
1, 49664, Note_off_c, 0, 31, 61
1, 49724, Note_off_c, 0, 36, 56
1, 49749, Note_on_c, 0, 31, 86
1, 49776, Note_on_c, 0, 68, 100
1, 49778, Note_on_c, 0, 36, 73
1, 49778, Note_on_c, 0, 80, 96
1, 49782, Note_on_c, 0, 75, 91
1, 49788, Note_on_c, 0, 77, 67
1, 49797, Note_off_c, 0, 31, 63
1, 49812, Note_off_c, 0, 77, 67
1, 49818, Note_off_c, 0, 68, 66
1, 49820, Note_off_c, 0, 75, 66
1, 49823, Note_off_c, 0, 80, 66
1, 49848, Note_off_c, 0, 36, 54
1, 49879, Note_on_c, 0, 31, 87
1, 49922, Note_on_c, 0, 36, 77
1, 49936, Note_off_c, 0, 31, 61
1, 50006, Note_off_c, 0, 36, 56
1, 50020, Note_on_c, 0, 31, 79
1, 50023, Note_on_c, 0, 67, 97
1, 50023, Note_on_c, 0, 79, 102
1, 50053, Note_off_c, 0, 67, 63
1, 50063, Note_off_c, 0, 79, 67
1, 50105, Control_c, 0, 64, 97
1, 50120, Control_c, 0, 64, 54
1, 50126, Note_off_c, 0, 31, 60
1, 50134, Control_c, 0, 64, 0
1, 50139, Note_on_c, 0, 35, 96
1, 50156, Note_on_c, 0, 89, 101
1, 50157, Note_on_c, 0, 77, 101
1, 50160, Note_on_c, 0, 86, 93
1, 50164, Control_c, 0, 64, 23
1, 50169, Note_on_c, 0, 79, 81
1, 50179, Control_c, 0, 64, 69
1, 50184, Note_off_c, 0, 35, 62
1, 50194, Control_c, 0, 64, 106
1, 50208, Control_c, 0, 64, 127
1, 50219, Note_off_c, 0, 79, 0
1, 50232, Note_on_c, 0, 79, 35
1, 50265, Note_off_c, 0, 79, 0
1, 50265, Note_on_c, 0, 79, 10
1, 50342, Control_c, 0, 64, 84
1, 50357, Control_c, 0, 64, 23
1, 50364, Note_on_c, 0, 68, 87
1, 50372, Control_c, 0, 64, 0
1, 50437, Note_off_c, 0, 68, 65
1, 50450, Note_on_c, 0, 67, 80
1, 50454, Control_c, 0, 64, 63
1, 50469, Control_c, 0, 64, 87
1, 50483, Control_c, 0, 64, 127
1, 50515, Note_on_c, 0, 65, 78
1, 50518, Note_off_c, 0, 67, 61
1, 50558, Note_on_c, 0, 62, 71
1, 50579, Note_off_c, 0, 65, 59
1, 50625, Note_on_c, 0, 63, 78
1, 50637, Note_off_c, 0, 62, 62
1, 50652, Note_off_c, 0, 63, 65
1, 50674, Note_off_c, 0, 77, 55
1, 50679, Note_off_c, 0, 79, 42
1, 50685, Note_off_c, 0, 89, 58
1, 50691, Note_on_c, 0, 62, 77
1, 50694, Note_off_c, 0, 86, 60
1, 50706, Control_c, 0, 64, 116
1, 50721, Control_c, 0, 64, 78
1, 50736, Control_c, 0, 64, 20
1, 50745, Note_off_c, 0, 62, 61
1, 50748, Note_on_c, 0, 59, 82
1, 50751, Control_c, 0, 64, 0
1, 50780, Control_c, 0, 64, 36
1, 50795, Control_c, 0, 64, 75
1, 50801, Note_on_c, 0, 55, 77
1, 50810, Control_c, 0, 64, 110
1, 50812, Note_off_c, 0, 59, 62
1, 50825, Control_c, 0, 64, 127
1, 50857, Note_on_c, 0, 56, 80
1, 50867, Note_off_c, 0, 55, 62
1, 50888, Note_off_c, 0, 56, 62
1, 50924, Note_on_c, 0, 55, 83
1, 50973, Control_c, 0, 64, 99
1, 50981, Note_on_c, 0, 53, 84
1, 50988, Control_c, 0, 64, 65
1, 50992, Note_off_c, 0, 55, 57
1, 51003, Control_c, 0, 64, 0
1, 51032, Control_c, 0, 64, 60
1, 51039, Note_on_c, 0, 50, 79
1, 51047, Control_c, 0, 64, 88
1, 51055, Note_off_c, 0, 53, 65
1, 51062, Control_c, 0, 64, 127
1, 51098, Note_on_c, 0, 51, 76
1, 51105, Note_off_c, 0, 50, 67
1, 51123, Note_off_c, 0, 51, 66
1, 51174, Note_on_c, 0, 50, 75
1, 51184, Note_on_c, 0, 48, 72
1, 51189, Control_c, 0, 64, 94
1, 51204, Control_c, 0, 64, 62
1, 51219, Control_c, 0, 64, 0
1, 51225, Note_off_c, 0, 48, 55
1, 51227, Note_off_c, 0, 50, 65
1, 51236, Note_on_c, 0, 47, 80
1, 51248, Control_c, 0, 64, 66
1, 51263, Control_c, 0, 64, 104
1, 51278, Control_c, 0, 64, 127
1, 51280, Note_on_c, 0, 43, 80
1, 51304, Note_off_c, 0, 47, 62
1, 51338, Note_on_c, 0, 44, 74
1, 51356, Note_off_c, 0, 43, 62
1, 51369, Note_off_c, 0, 44, 65
1, 51410, Note_on_c, 0, 43, 82
1, 51454, Control_c, 0, 64, 86
1, 51463, Note_on_c, 0, 41, 81
1, 51466, Note_off_c, 0, 43, 63
1, 51469, Control_c, 0, 64, 58
1, 51484, Control_c, 0, 64, 0
1, 51499, Control_c, 0, 64, 63
1, 51511, Note_on_c, 0, 38, 70
1, 51514, Control_c, 0, 64, 103
1, 51529, Control_c, 0, 64, 127
1, 51539, Note_off_c, 0, 41, 61
1, 51561, Note_on_c, 0, 39, 77
1, 51594, Note_off_c, 0, 38, 61
1, 51637, Note_on_c, 0, 38, 66
1, 51638, Note_off_c, 0, 39, 58
1, 51684, Note_off_c, 0, 38, 62
1, 51692, Control_c, 0, 64, 88
1, 51706, Control_c, 0, 64, 45
1, 51719, Note_on_c, 0, 36, 93
1, 51721, Control_c, 0, 64, 0
1, 51766, Control_c, 0, 64, 67
1, 51780, Control_c, 0, 64, 127
1, 51785, Note_on_c, 0, 31, 69
1, 51785, Note_off_c, 0, 36, 59
1, 51839, Note_on_c, 0, 36, 80
1, 51860, Note_off_c, 0, 31, 61
1, 51940, Note_on_c, 0, 31, 88
1, 51946, Note_off_c, 0, 36, 59
1, 51994, Note_on_c, 0, 36, 76
1, 52010, Note_on_c, 0, 68, 103
1, 52012, Note_on_c, 0, 80, 98
1, 52012, Note_off_c, 0, 31, 62
1, 52013, Note_on_c, 0, 75, 97
1, 52013, Note_on_c, 0, 77, 85
1, 52060, Note_off_c, 0, 77, 65
1, 52077, Note_off_c, 0, 68, 64
1, 52077, Note_off_c, 0, 75, 64
1, 52081, Note_on_c, 0, 31, 88
1, 52081, Note_off_c, 0, 80, 63
1, 52089, Note_off_c, 0, 36, 49
1, 52128, Note_on_c, 0, 36, 68
1, 52157, Note_off_c, 0, 31, 61
1, 52212, Note_off_c, 0, 36, 51
1, 52233, Note_on_c, 0, 31, 85
1, 52260, Note_on_c, 0, 67, 100
1, 52260, Note_on_c, 0, 79, 102
1, 52292, Note_off_c, 0, 67, 64
1, 52306, Note_off_c, 0, 79, 64
1, 52417, Note_off_c, 0, 31, 60
1, 52426, Control_c, 0, 64, 86
1, 52441, Control_c, 0, 64, 26
1, 52442, Note_on_c, 0, 35, 102
1, 52452, Note_on_c, 0, 79, 96
1, 52452, Note_on_c, 0, 91, 106
1, 52455, Note_on_c, 0, 86, 97
1, 52455, Control_c, 0, 64, 0
1, 52461, Note_on_c, 0, 77, 93
1, 52470, Note_on_c, 0, 89, 68
1, 52476, Note_off_c, 0, 77, 64
1, 52483, Note_off_c, 0, 79, 68
1, 52485, Control_c, 0, 64, 20
1, 52488, Note_off_c, 0, 35, 65
1, 52491, Note_off_c, 0, 89, 41
1, 52500, Control_c, 0, 64, 77
1, 52509, Note_off_c, 0, 86, 63
1, 52515, Control_c, 0, 64, 127
1, 52535, Note_off_c, 0, 91, 66
1, 52646, Note_on_c, 0, 92, 17
1, 52689, Note_off_c, 0, 92, 41
1, 52700, Control_c, 0, 64, 118
1, 52712, Note_on_c, 0, 92, 88
1, 52715, Control_c, 0, 64, 75
1, 52722, Note_on_c, 0, 80, 99
1, 52729, Control_c, 0, 64, 0
1, 52846, Note_on_c, 0, 91, 96
1, 52847, Note_on_c, 0, 79, 87
1, 52849, Note_off_c, 0, 80, 65
1, 52849, Control_c, 0, 64, 55
1, 52852, Note_off_c, 0, 92, 62
1, 52864, Control_c, 0, 64, 82
1, 52878, Control_c, 0, 64, 127
1, 52933, Note_off_c, 0, 91, 60
1, 52937, Note_on_c, 0, 89, 98
1, 52941, Note_on_c, 0, 77, 85
1, 52947, Note_off_c, 0, 79, 38
1, 52985, Note_on_c, 0, 74, 72
1, 52995, Note_off_c, 0, 89, 61
1, 53010, Note_off_c, 0, 77, 61
1, 53017, Note_on_c, 0, 86, 90
1, 53073, Note_on_c, 0, 75, 80
1, 53075, Note_off_c, 0, 86, 60
1, 53079, Note_off_c, 0, 74, 65
1, 53094, Note_on_c, 0, 87, 82
1, 53114, Note_off_c, 0, 75, 55
1, 53117, Note_on_c, 0, 86, 59
1, 53144, Note_on_c, 0, 74, 70
1, 53152, Note_on_c, 0, 84, 73
1, 53159, Note_off_c, 0, 87, 32
1, 53159, Control_c, 0, 64, 90
1, 53174, Control_c, 0, 64, 41
1, 53186, Note_off_c, 0, 74, 65
1, 53189, Control_c, 0, 64, 0
1, 53208, Note_on_c, 0, 71, 84
1, 53210, Note_off_c, 0, 84, 60
1, 53211, Note_off_c, 0, 86, 63
1, 53218, Note_on_c, 0, 83, 81
1, 53234, Control_c, 0, 64, 64
1, 53247, Note_on_c, 0, 67, 76
1, 53249, Control_c, 0, 64, 104
1, 53251, Note_off_c, 0, 83, 61
1, 53263, Control_c, 0, 64, 127
1, 53272, Note_off_c, 0, 71, 64
1, 53278, Note_on_c, 0, 79, 85
1, 53321, Note_on_c, 0, 68, 78
1, 53329, Note_off_c, 0, 67, 63
1, 53339, Note_off_c, 0, 79, 61
1, 53344, Note_on_c, 0, 80, 84
1, 53344, Note_off_c, 0, 68, 70
1, 53392, Note_on_c, 0, 67, 83
1, 53408, Note_on_c, 0, 79, 77
1, 53419, Control_c, 0, 64, 103
1, 53423, Note_off_c, 0, 80, 66
1, 53433, Control_c, 0, 64, 71
1, 53448, Control_c, 0, 64, 0
1, 53453, Note_on_c, 0, 65, 80
1, 53454, Note_off_c, 0, 67, 63
1, 53460, Note_off_c, 0, 79, 64
1, 53464, Note_on_c, 0, 77, 79
1, 53478, Control_c, 0, 64, 44
1, 53493, Control_c, 0, 64, 75
1, 53503, Note_off_c, 0, 77, 67
1, 53507, Note_on_c, 0, 62, 73
1, 53508, Control_c, 0, 64, 127
1, 53522, Note_off_c, 0, 65, 62
1, 53526, Note_on_c, 0, 74, 82
1, 53563, Note_on_c, 0, 63, 75
1, 53569, Note_off_c, 0, 62, 63
1, 53586, Note_off_c, 0, 74, 65
1, 53590, Note_off_c, 0, 63, 69
1, 53591, Note_on_c, 0, 75, 77
1, 53635, Note_on_c, 0, 62, 75
1, 53643, Note_on_c, 0, 74, 77
1, 53651, Note_off_c, 0, 75, 64
1, 53657, Control_c, 0, 64, 99
1, 53672, Control_c, 0, 64, 69
1, 53687, Control_c, 0, 64, 0
1, 53692, Note_on_c, 0, 59, 81
1, 53695, Note_off_c, 0, 62, 63
1, 53698, Note_off_c, 0, 74, 67
1, 53702, Note_on_c, 0, 71, 84
1, 53731, Control_c, 0, 64, 68
1, 53744, Note_off_c, 0, 71, 65
1, 53746, Control_c, 0, 64, 113
1, 53748, Note_on_c, 0, 55, 74
1, 53753, Note_off_c, 0, 59, 63
1, 53759, Note_on_c, 0, 67, 84
1, 53761, Control_c, 0, 64, 127
1, 53800, Note_on_c, 0, 56, 73
1, 53807, Note_off_c, 0, 55, 61
1, 53826, Note_off_c, 0, 56, 66
1, 53830, Note_off_c, 0, 67, 60
1, 53831, Note_on_c, 0, 68, 82
1, 53861, Note_on_c, 0, 55, 73
1, 53865, Control_c, 0, 64, 87
1, 53880, Control_c, 0, 64, 41
1, 53884, Note_on_c, 0, 67, 69
1, 53895, Control_c, 0, 64, 0
1, 53902, Note_off_c, 0, 68, 66
1, 53916, Note_off_c, 0, 55, 62
1, 53920, Note_on_c, 0, 53, 78
1, 53936, Note_off_c, 0, 67, 65
1, 53939, Control_c, 0, 64, 63
1, 53940, Note_on_c, 0, 65, 84
1, 53954, Control_c, 0, 64, 84
1, 53969, Control_c, 0, 64, 127
1, 53974, Note_on_c, 0, 50, 75
1, 53974, Note_off_c, 0, 65, 61
1, 53988, Note_off_c, 0, 53, 66
1, 54003, Note_on_c, 0, 62, 78
1, 54016, Note_on_c, 0, 51, 70
1, 54030, Note_off_c, 0, 50, 67
1, 54042, Note_off_c, 0, 51, 64
1, 54066, Note_on_c, 0, 63, 79
1, 54067, Note_off_c, 0, 62, 61
1, 54091, Note_on_c, 0, 50, 76
1, 54101, Control_c, 0, 64, 96
1, 54116, Note_on_c, 0, 62, 61
1, 54116, Control_c, 0, 64, 61
1, 54131, Control_c, 0, 64, 0
1, 54156, Note_off_c, 0, 63, 57
1, 54158, Note_off_c, 0, 50, 66
1, 54164, Note_on_c, 0, 47, 73
1, 54176, Note_off_c, 0, 62, 63
1, 54178, Note_on_c, 0, 59, 81
1, 54198, Control_c, 0, 64, 58
1, 54209, Note_on_c, 0, 43, 79
1, 54213, Control_c, 0, 64, 85
1, 54214, Note_off_c, 0, 59, 63
1, 54226, Note_off_c, 0, 47, 65
1, 54227, Control_c, 0, 64, 127
1, 54238, Note_on_c, 0, 55, 81
1, 54253, Note_on_c, 0, 44, 65
1, 54268, Note_off_c, 0, 43, 63
1, 54286, Note_off_c, 0, 44, 63
1, 54304, Note_off_c, 0, 55, 58
1, 54307, Note_on_c, 0, 56, 80
1, 54328, Note_on_c, 0, 43, 80
1, 54346, Control_c, 0, 64, 96
1, 54354, Note_on_c, 0, 55, 61
1, 54361, Control_c, 0, 64, 69
1, 54377, Control_c, 0, 64, 43
1, 54380, Note_off_c, 0, 56, 64
1, 54392, Control_c, 0, 64, 55
1, 54405, Note_off_c, 0, 55, 65
1, 54406, Control_c, 0, 64, 73
1, 54410, Note_on_c, 0, 53, 74
1, 54421, Control_c, 0, 64, 108
1, 54422, Note_off_c, 0, 43, 63
1, 54434, Note_on_c, 0, 38, 51
1, 54434, Note_on_c, 0, 40, 58
1, 54436, Control_c, 0, 64, 127
1, 54438, Note_off_c, 0, 53, 68
1, 54465, Note_off_c, 0, 38, 53
1, 54469, Note_off_c, 0, 40, 61
1, 54471, Note_on_c, 0, 50, 64
1, 54480, Note_on_c, 0, 52, 59
1, 54480, Control_c, 0, 64, 96
1, 54495, Control_c, 0, 64, 63
1, 54502, Note_off_c, 0, 50, 68
1, 54504, Note_off_c, 0, 52, 61
1, 54510, Control_c, 0, 64, 0
1, 54530, Note_on_c, 0, 39, 86
1, 54541, Note_on_c, 0, 51, 81
1, 54554, Control_c, 0, 64, 43
1, 54569, Control_c, 0, 64, 81
1, 54584, Control_c, 0, 64, 127
1, 54589, Note_on_c, 0, 38, 63
1, 54593, Note_on_c, 0, 50, 67
1, 54611, Note_off_c, 0, 39, 57
1, 54646, Note_on_c, 0, 36, 75
1, 54655, Note_on_c, 0, 48, 77
1, 54657, Note_off_c, 0, 51, 60
1, 54658, Note_off_c, 0, 50, 65
1, 54672, Note_off_c, 0, 38, 61
1, 54700, Note_off_c, 0, 36, 60
1, 54709, Note_on_c, 0, 47, 70
1, 54709, Note_off_c, 0, 48, 62
1, 54710, Note_on_c, 0, 35, 40
1, 54732, Control_c, 0, 64, 85
1, 54736, Note_off_c, 0, 47, 66
1, 54743, Note_off_c, 0, 35, 55
1, 54747, Control_c, 0, 64, 55
1, 54762, Control_c, 0, 64, 0
1, 54783, Note_on_c, 0, 55, 80
1, 54784, Note_on_c, 0, 43, 88
1, 54821, Control_c, 0, 64, 70
1, 54836, Control_c, 0, 64, 98
1, 54837, Note_on_c, 0, 41, 67
1, 54849, Note_on_c, 0, 53, 70
1, 54850, Control_c, 0, 64, 127
1, 54852, Note_off_c, 0, 43, 57
1, 54863, Note_off_c, 0, 55, 55
1, 54888, Note_on_c, 0, 39, 66
1, 54891, Note_on_c, 0, 51, 73
1, 54894, Note_off_c, 0, 53, 64
1, 54920, Note_off_c, 0, 41, 60
1, 54936, Note_on_c, 0, 38, 65
1, 54944, Note_off_c, 0, 39, 60
1, 54951, Note_off_c, 0, 51, 63
1, 54962, Note_on_c, 0, 50, 78
1, 54962, Control_c, 0, 64, 118
1, 54971, Note_off_c, 0, 38, 62
1, 54977, Control_c, 0, 64, 69
1, 54992, Control_c, 0, 64, 0
1, 54998, Note_off_c, 0, 50, 68
1, 55028, Note_on_c, 0, 39, 80
1, 55035, Note_on_c, 0, 51, 83
1, 55050, Control_c, 0, 64, 41
1, 55065, Control_c, 0, 64, 82
1, 55066, Note_on_c, 0, 38, 66
1, 55080, Control_c, 0, 64, 127
1, 55094, Note_on_c, 0, 50, 74
1, 55108, Note_off_c, 0, 39, 54
1, 55132, Note_on_c, 0, 48, 74
1, 55134, Note_off_c, 0, 50, 66
1, 55134, Note_off_c, 0, 51, 62
1, 55138, Note_on_c, 0, 36, 75
1, 55159, Note_off_c, 0, 38, 61
1, 55163, Note_on_c, 0, 35, 74
1, 55176, Note_on_c, 0, 47, 74
1, 55177, Note_off_c, 0, 36, 60
1, 55182, Note_off_c, 0, 48, 61
1, 55194, Note_off_c, 0, 35, 65
1, 55200, Note_off_c, 0, 47, 67
1, 55229, Control_c, 0, 64, 105
1, 55244, Control_c, 0, 64, 69
1, 55259, Control_c, 0, 64, 0
1, 55270, Note_on_c, 0, 46, 84
1, 55272, Note_on_c, 0, 58, 81
1, 55288, Control_c, 0, 64, 27
1, 55303, Control_c, 0, 64, 69
1, 55318, Control_c, 0, 64, 110
1, 55324, Note_on_c, 0, 56, 75
1, 55331, Note_off_c, 0, 46, 64
1, 55333, Control_c, 0, 64, 127
1, 55342, Note_on_c, 0, 44, 65
1, 55347, Note_off_c, 0, 58, 57
1, 55351, Note_on_c, 0, 45, 46
1, 55383, Note_on_c, 0, 55, 76
1, 55385, Note_off_c, 0, 45, 52
1, 55389, Note_on_c, 0, 43, 84
1, 55393, Note_off_c, 0, 56, 62
1, 55403, Note_off_c, 0, 44, 60
1, 55428, Note_on_c, 0, 41, 66
1, 55432, Note_off_c, 0, 43, 62
1, 55442, Note_off_c, 0, 55, 64
1, 55443, Note_on_c, 0, 53, 78
1, 55461, Note_off_c, 0, 41, 62
1, 55473, Note_off_c, 0, 53, 68
1, 55496, Control_c, 0, 64, 70
1, 55509, Note_on_c, 0, 43, 91
1, 55511, Control_c, 0, 64, 0
1, 55520, Note_on_c, 0, 55, 92
1, 55555, Note_on_c, 0, 41, 68
1, 55570, Control_c, 0, 64, 67
1, 55573, Note_on_c, 0, 53, 80
1, 55581, Note_off_c, 0, 43, 55
1, 55585, Control_c, 0, 64, 90
1, 55600, Control_c, 0, 64, 127
1, 55601, Note_on_c, 0, 39, 81
1, 55606, Note_off_c, 0, 55, 53
1, 55617, Note_on_c, 0, 51, 83
1, 55630, Note_off_c, 0, 53, 66
1, 55640, Note_on_c, 0, 38, 78
1, 55643, Note_off_c, 0, 41, 61
1, 55681, Note_on_c, 0, 50, 78
1, 55682, Note_off_c, 0, 38, 62
1, 55682, Note_off_c, 0, 39, 58
1, 55685, Note_off_c, 0, 51, 65
1, 55706, Note_off_c, 0, 50, 70
1, 55741, Control_c, 0, 64, 84
1, 55755, Control_c, 0, 64, 51
1, 55770, Control_c, 0, 64, 0
1, 55788, Note_on_c, 0, 51, 83
1, 55790, Note_on_c, 0, 63, 83
1, 55814, Control_c, 0, 64, 54
1, 55828, Control_c, 0, 64, 91
1, 55836, Note_on_c, 0, 50, 71
1, 55843, Control_c, 0, 64, 127
1, 55845, Note_off_c, 0, 51, 64
1, 55857, Note_on_c, 0, 62, 74
1, 55902, Note_on_c, 0, 48, 72
1, 55915, Note_off_c, 0, 63, 61
1, 55917, Note_on_c, 0, 60, 79
1, 55924, Note_off_c, 0, 62, 60
1, 55936, Note_off_c, 0, 50, 66
1, 55952, Note_on_c, 0, 47, 64
1, 55952, Note_off_c, 0, 48, 63
1, 55961, Control_c, 0, 64, 122
1, 55971, Note_off_c, 0, 60, 65
1, 55973, Note_on_c, 0, 59, 86
1, 55976, Note_off_c, 0, 47, 62
1, 55977, Control_c, 0, 64, 74
1, 55992, Control_c, 0, 64, 0
1, 56005, Note_off_c, 0, 59, 64
1, 56023, Note_on_c, 0, 48, 78
1, 56037, Control_c, 0, 64, 45
1, 56051, Control_c, 0, 64, 83
1, 56053, Note_on_c, 0, 60, 86
1, 56066, Control_c, 0, 64, 127
1, 56070, Note_on_c, 0, 47, 55
1, 56092, Note_off_c, 0, 48, 60
1, 56108, Note_on_c, 0, 59, 84
1, 56131, Note_on_c, 0, 44, 76
1, 56143, Note_off_c, 0, 60, 60
1, 56157, Note_off_c, 0, 47, 63
1, 56161, Note_on_c, 0, 56, 80
1, 56161, Note_off_c, 0, 59, 64
1, 56194, Note_on_c, 0, 43, 78
1, 56200, Note_off_c, 0, 44, 60
1, 56200, Control_c, 0, 64, 102
1, 56211, Note_off_c, 0, 56, 64
1, 56215, Control_c, 0, 64, 65
1, 56215, Note_on_c, 0, 55, 80
1, 56229, Control_c, 0, 64, 0
1, 56244, Control_c, 0, 64, 60
1, 56259, Control_c, 0, 64, 87
1, 56264, Note_on_c, 0, 44, 75
1, 56274, Control_c, 0, 64, 127
1, 56281, Note_on_c, 0, 56, 90
1, 56288, Note_off_c, 0, 55, 60
1, 56316, Note_off_c, 0, 44, 61
1, 56352, Note_on_c, 0, 55, 70
1, 56361, Note_off_c, 0, 56, 62
1, 56411, Note_off_c, 0, 55, 63
1, 56417, Note_on_c, 0, 53, 84
1, 56421, Note_on_c, 0, 41, 82
1, 56441, Note_off_c, 0, 43, 0
1, 56441, Note_on_c, 0, 43, 9
1, 56444, Control_c, 0, 64, 103
1, 56449, Note_off_c, 0, 43, 0
1, 56459, Control_c, 0, 64, 89
1, 56474, Control_c, 0, 64, 104
1, 56483, Poly_aftertouch_c, 0, 43, 0
1, 56487, Note_on_c, 0, 51, 94
1, 56489, Control_c, 0, 64, 127
1, 56493, Note_off_c, 0, 41, 63
1, 56495, Note_on_c, 0, 39, 79
1, 56501, Note_off_c, 0, 53, 63
1, 56572, Note_off_c, 0, 51, 61
1, 56574, Note_off_c, 0, 39, 58
1, 56575, Note_on_c, 0, 53, 85
1, 56584, Note_on_c, 0, 41, 88
1, 56640, Note_on_c, 0, 51, 88
1, 56653, Note_on_c, 0, 39, 72
1, 56653, Note_off_c, 0, 53, 63
1, 56656, Note_off_c, 0, 41, 62
1, 56717, Note_off_c, 0, 39, 57
1, 56786, Control_c, 0, 64, 107
1, 56787, Note_off_c, 0, 51, 62
1, 56800, Control_c, 0, 64, 70
1, 56807, Note_on_c, 0, 36, 95
1, 56808, Note_on_c, 0, 48, 103
1, 56815, Control_c, 0, 64, 0
1, 56948, Control_c, 0, 64, 70
1, 56955, Note_off_c, 0, 48, 59
1, 56963, Control_c, 0, 64, 92
1, 56978, Control_c, 0, 64, 127
1, 57003, Note_off_c, 0, 36, 56
1, 57033, Note_on_c, 0, 43, 80
1, 57079, Note_off_c, 0, 43, 61
1, 57104, Note_on_c, 0, 48, 66
1, 57132, Note_off_c, 0, 48, 67
1, 57191, Note_on_c, 0, 50, 82
1, 57251, Note_on_c, 0, 51, 78
1, 57274, Note_off_c, 0, 50, 62
1, 57324, Note_on_c, 0, 55, 73
1, 57330, Note_off_c, 0, 51, 62
1, 57351, Note_off_c, 0, 55, 66
1, 57383, Note_on_c, 0, 60, 74
1, 57423, Note_off_c, 0, 60, 65
1, 57460, Note_on_c, 0, 62, 78
1, 57490, Control_c, 0, 64, 87
1, 57505, Control_c, 0, 64, 68
1, 57506, Note_on_c, 0, 63, 80
1, 57512, Note_off_c, 0, 62, 63
1, 57519, Control_c, 0, 64, 71
1, 57534, Control_c, 0, 64, 90
1, 57549, Control_c, 0, 64, 127
1, 57565, Note_on_c, 0, 62, 66
1, 57579, Note_off_c, 0, 63, 63
1, 57598, Note_off_c, 0, 62, 62
1, 57650, Note_on_c, 0, 60, 76
1, 57726, Note_on_c, 0, 55, 76
1, 57727, Note_off_c, 0, 60, 60
1, 57781, Note_on_c, 0, 51, 68
1, 57791, Note_off_c, 0, 55, 60
1, 57842, Note_on_c, 0, 50, 71
1, 57852, Note_off_c, 0, 51, 62
1, 57868, Note_off_c, 0, 50, 70
1, 57917, Note_on_c, 0, 48, 78
1, 57999, Note_off_c, 0, 48, 59
1, 58002, Note_on_c, 0, 43, 80
1, 58031, Control_c, 0, 64, 83
1, 58039, Note_off_c, 0, 43, 54
1, 58045, Note_on_c, 0, 36, 85
1, 58046, Control_c, 0, 64, 57
1, 58061, Control_c, 0, 64, 0
1, 58075, Control_c, 0, 64, 38
1, 58090, Control_c, 0, 64, 70
1, 58105, Control_c, 0, 64, 99
1, 58118, Note_off_c, 0, 36, 59
1, 58119, Note_on_c, 0, 43, 84
1, 58120, Control_c, 0, 64, 127
1, 58170, Note_off_c, 0, 43, 61
1, 58176, Note_on_c, 0, 48, 73
1, 58221, Note_off_c, 0, 48, 61
1, 58263, Note_on_c, 0, 50, 78
1, 58310, Note_off_c, 0, 50, 64
1, 58320, Note_on_c, 0, 51, 71
1, 58370, Note_on_c, 0, 50, 67
1, 58373, Note_off_c, 0, 51, 59
1, 58420, Note_off_c, 0, 50, 57
1, 58453, Note_on_c, 0, 48, 73
1, 58544, Note_on_c, 0, 43, 80
1, 58549, Note_off_c, 0, 48, 54
1, 58576, Note_off_c, 0, 43, 64
1, 58595, Control_c, 0, 64, 85
1, 58602, Note_on_c, 0, 36, 88
1, 58610, Control_c, 0, 64, 63
1, 58625, Control_c, 0, 64, 44
1, 58640, Control_c, 0, 64, 71
1, 58662, Control_c, 0, 64, 106
1, 58677, Control_c, 0, 64, 127
1, 58677, Note_on_c, 0, 43, 84
1, 58701, Note_off_c, 0, 36, 60
1, 58748, Note_on_c, 0, 48, 83
1, 58751, Note_off_c, 0, 43, 61
1, 58808, Note_off_c, 0, 48, 63
1, 58835, Note_on_c, 0, 84, 86
1, 58841, Note_on_c, 0, 72, 77
1, 58845, Note_on_c, 0, 50, 87
1, 58865, Note_off_c, 0, 72, 67
1, 58866, Note_off_c, 0, 84, 63
1, 58918, Note_off_c, 0, 50, 63
1, 58919, Note_on_c, 0, 51, 79
1, 58933, Note_on_c, 0, 73, 98
1, 58934, Note_on_c, 0, 85, 100
1, 58960, Note_on_c, 0, 50, 64
1, 58963, Note_off_c, 0, 73, 62
1, 58975, Note_off_c, 0, 85, 64
1, 58976, Note_off_c, 0, 51, 62
1, 59007, Note_off_c, 0, 50, 68
1, 59027, Note_on_c, 0, 74, 95
1, 59031, Note_on_c, 0, 86, 95
1, 59049, Note_off_c, 0, 74, 65
1, 59059, Note_off_c, 0, 86, 63
1, 59061, Note_on_c, 0, 48, 71
1, 59088, Note_on_c, 0, 47, 40
1, 59133, Note_off_c, 0, 47, 30
1, 59157, Note_on_c, 0, 43, 87
1, 59212, Note_off_c, 0, 48, 35
1, 59252, Note_on_c, 0, 87, 102
1, 59256, Note_on_c, 0, 75, 92
1, 59272, Note_off_c, 0, 87, 65
1, 59276, Note_off_c, 0, 43, 59
1, 59276, Note_off_c, 0, 75, 67
1, 59324, Note_on_c, 0, 75, 99
1, 59324, Note_on_c, 0, 87, 113
1, 59325, Note_on_c, 0, 36, 83
1, 59327, Control_c, 0, 64, 86
1, 59342, Control_c, 0, 64, 15
1, 59357, Control_c, 0, 64, 0
1, 59409, Control_c, 0, 64, 61
1, 59414, Note_on_c, 0, 43, 85
1, 59424, Control_c, 0, 64, 82
1, 59425, Note_off_c, 0, 36, 59
1, 59439, Control_c, 0, 64, 127
1, 59461, Note_off_c, 0, 43, 63
1, 59469, Note_on_c, 0, 48, 77
1, 59494, Note_off_c, 0, 48, 66
1, 59561, Note_on_c, 0, 50, 85
1, 59568, Note_off_c, 0, 75, 58
1, 59574, Note_off_c, 0, 87, 61
1, 59635, Note_on_c, 0, 51, 78
1, 59643, Note_off_c, 0, 50, 63
1, 59692, Note_on_c, 0, 55, 76
1, 59701, Note_off_c, 0, 51, 62
1, 59726, Note_off_c, 0, 55, 62
1, 59761, Note_on_c, 0, 60, 75
1, 59791, Note_off_c, 0, 60, 64
1, 59835, Note_on_c, 0, 62, 78
1, 59883, Control_c, 0, 64, 86
1, 59887, Note_on_c, 0, 63, 82
1, 59894, Note_off_c, 0, 62, 63
1, 59898, Control_c, 0, 64, 69
1, 59912, Control_c, 0, 64, 73
1, 59927, Control_c, 0, 64, 105
1, 59942, Note_on_c, 0, 62, 65
1, 59942, Control_c, 0, 64, 127
1, 59953, Note_off_c, 0, 63, 62
1, 60000, Note_off_c, 0, 62, 59
1, 60049, Note_on_c, 0, 60, 66
1, 60105, Note_on_c, 0, 67, 79
1, 60108, Note_on_c, 0, 72, 73
1, 60108, Note_on_c, 0, 75, 69
1, 60111, Note_off_c, 0, 60, 54
1, 60122, Note_on_c, 0, 79, 51
1, 60126, Note_off_c, 0, 67, 69
1, 60131, Note_off_c, 0, 75, 68
1, 60132, Note_off_c, 0, 72, 69
1, 60150, Note_on_c, 0, 55, 64
1, 60151, Note_off_c, 0, 79, 59
1, 60155, Note_on_c, 0, 53, 66
1, 60176, Note_on_c, 0, 67, 95
1, 60178, Note_on_c, 0, 79, 76
1, 60182, Note_on_c, 0, 72, 83
1, 60183, Note_on_c, 0, 75, 80
1, 60189, Note_off_c, 0, 53, 59
1, 60191, Note_off_c, 0, 55, 57
1, 60207, Note_off_c, 0, 67, 55
1, 60208, Note_off_c, 0, 75, 65
1, 60209, Note_off_c, 0, 72, 67
1, 60213, Note_on_c, 0, 51, 72
1, 60220, Note_off_c, 0, 79, 60
1, 60268, Note_on_c, 0, 50, 66
1, 60274, Note_off_c, 0, 51, 63
1, 60292, Note_off_c, 0, 50, 65
1, 60341, Note_on_c, 0, 48, 74
1, 60410, Note_on_c, 0, 67, 76
1, 60411, Note_on_c, 0, 79, 71
1, 60412, Note_on_c, 0, 75, 73
1, 60413, Note_on_c, 0, 72, 75
1, 60427, Note_off_c, 0, 79, 67
1, 60432, Note_off_c, 0, 48, 49
1, 60434, Note_off_c, 0, 75, 67
1, 60435, Note_off_c, 0, 72, 70
1, 60436, Note_off_c, 0, 67, 64
1, 60455, Control_c, 0, 64, 121
1, 60469, Control_c, 0, 64, 76
1, 60484, Note_on_c, 0, 80, 86
1, 60484, Control_c, 0, 64, 0
1, 60485, Note_on_c, 0, 68, 81
1, 60489, Note_on_c, 0, 75, 76
1, 60493, Note_on_c, 0, 36, 79
1, 60494, Note_on_c, 0, 72, 78
1, 60529, Control_c, 0, 64, 62
1, 60543, Control_c, 0, 64, 84
1, 60558, Control_c, 0, 64, 127
1, 60568, Note_on_c, 0, 43, 62
1, 60577, Note_off_c, 0, 36, 58
1, 60629, Note_off_c, 0, 43, 62
1, 60637, Note_on_c, 0, 48, 77
1, 60686, Note_off_c, 0, 48, 63
1, 60728, Note_on_c, 0, 50, 77
1, 60747, Note_off_c, 0, 68, 60
1, 60760, Note_off_c, 0, 72, 55
1, 60764, Note_off_c, 0, 80, 55
1, 60785, Note_off_c, 0, 50, 64
1, 60794, Note_on_c, 0, 51, 71
1, 60849, Note_on_c, 0, 50, 61
1, 60856, Note_off_c, 0, 51, 62
1, 60890, Note_off_c, 0, 50, 62
1, 60930, Note_on_c, 0, 48, 82
1, 60942, Note_off_c, 0, 75, 19
1, 61017, Note_off_c, 0, 48, 51
1, 61041, Control_c, 0, 64, 94
1, 61051, Note_on_c, 0, 36, 96
1, 61053, Note_on_c, 0, 67, 92
1, 61055, Note_on_c, 0, 79, 85
1, 61055, Control_c, 0, 64, 92
1, 61070, Control_c, 0, 64, 127
1, 61100, Note_off_c, 0, 67, 64
1, 61106, Note_off_c, 0, 79, 63
1, 61141, Note_on_c, 0, 43, 75
1, 61158, Note_off_c, 0, 36, 60
1, 61210, Note_off_c, 0, 43, 62
1, 61213, Note_on_c, 0, 71, 94
1, 61214, Note_on_c, 0, 83, 93
1, 61216, Note_on_c, 0, 48, 78
1, 61248, Note_off_c, 0, 71, 62
1, 61254, Note_off_c, 0, 83, 63
1, 61268, Note_off_c, 0, 48, 60
1, 61307, Note_on_c, 0, 50, 86
1, 61315, Note_on_c, 0, 72, 95
1, 61319, Note_on_c, 0, 84, 92
1, 61342, Note_off_c, 0, 84, 67
1, 61346, Note_off_c, 0, 72, 63
1, 61367, Note_on_c, 0, 51, 72
1, 61374, Note_off_c, 0, 50, 64
1, 61404, Note_on_c, 0, 73, 94
1, 61407, Note_on_c, 0, 85, 99
1, 61408, Note_on_c, 0, 50, 64
1, 61434, Note_off_c, 0, 51, 60
1, 61438, Note_off_c, 0, 73, 61
1, 61452, Note_off_c, 0, 85, 61
1, 61459, Note_off_c, 0, 50, 64
1, 61483, Note_on_c, 0, 74, 100
1, 61485, Note_on_c, 0, 86, 100
1, 61492, Note_on_c, 0, 85, 49
1, 61509, Note_off_c, 0, 85, 64
1, 61511, Note_off_c, 0, 74, 64
1, 61515, Note_off_c, 0, 86, 70
1, 61516, Note_on_c, 0, 48, 81
1, 61621, Note_off_c, 0, 48, 64
1, 61623, Note_on_c, 0, 43, 86
1, 61713, Note_on_c, 0, 87, 103
1, 61714, Note_on_c, 0, 75, 94
1, 61714, Note_off_c, 0, 43, 61
1, 61732, Note_off_c, 0, 87, 67
1, 61734, Note_off_c, 0, 75, 66
1, 61769, Note_on_c, 0, 36, 84
1, 61775, Control_c, 0, 64, 112
1, 61780, Note_on_c, 0, 75, 103
1, 61780, Note_on_c, 0, 87, 111
1, 61789, Control_c, 0, 64, 72
1, 61804, Control_c, 0, 64, 0
1, 61848, Note_on_c, 0, 43, 88
1, 61863, Control_c, 0, 64, 68
1, 61867, Note_off_c, 0, 36, 59
1, 61878, Control_c, 0, 64, 110
1, 61893, Control_c, 0, 64, 127
1, 61905, Note_on_c, 0, 48, 85
1, 61909, Note_off_c, 0, 43, 61
1, 61936, Note_off_c, 0, 48, 67
1, 61980, Note_off_c, 0, 87, 63
1, 61990, Note_off_c, 0, 75, 56
1, 61998, Note_on_c, 0, 50, 86
1, 62060, Note_on_c, 0, 51, 77
1, 62083, Note_off_c, 0, 50, 62
1, 62135, Note_on_c, 0, 55, 70
1, 62135, Note_off_c, 0, 51, 62
1, 62161, Note_off_c, 0, 55, 65
1, 62182, Note_on_c, 0, 60, 80
1, 62224, Note_off_c, 0, 60, 64
1, 62268, Note_on_c, 0, 62, 77
1, 62306, Note_on_c, 0, 63, 79
1, 62307, Control_c, 0, 64, 104
1, 62316, Note_off_c, 0, 62, 61
1, 62322, Control_c, 0, 64, 90
1, 62337, Control_c, 0, 64, 116
1, 62352, Control_c, 0, 64, 127
1, 62367, Note_on_c, 0, 62, 72
1, 62394, Note_off_c, 0, 63, 57
1, 62421, Poly_aftertouch_c, 0, 64, 127
1, 62422, Note_off_c, 0, 62, 63
1, 62451, Poly_aftertouch_c, 0, 64, 0
1, 62465, Note_on_c, 0, 60, 77
1, 62530, Note_on_c, 0, 67, 85
1, 62533, Note_off_c, 0, 60, 62
1, 62534, Note_on_c, 0, 72, 78
1, 62534, Note_on_c, 0, 75, 75
1, 62544, Note_on_c, 0, 55, 77
1, 62550, Note_on_c, 0, 79, 47
1, 62550, Note_off_c, 0, 67, 70
1, 62554, Note_off_c, 0, 72, 70
1, 62556, Note_off_c, 0, 75, 67
1, 62573, Note_off_c, 0, 79, 0
1, 62587, Note_on_c, 0, 67, 102
1, 62587, Note_on_c, 0, 79, 69
1, 62594, Note_on_c, 0, 72, 102
1, 62594, Note_on_c, 0, 75, 92
1, 62603, Note_on_c, 0, 51, 75
1, 62612, Note_off_c, 0, 55, 62
1, 62638, Note_off_c, 0, 67, 61
1, 62645, Note_off_c, 0, 72, 61
1, 62650, Note_off_c, 0, 75, 62
1, 62656, Note_on_c, 0, 50, 70
1, 62656, Note_off_c, 0, 79, 61
1, 62663, Note_off_c, 0, 51, 63
1, 62674, Note_off_c, 0, 50, 68
1, 62726, Note_on_c, 0, 48, 81
1, 62814, Note_off_c, 0, 48, 60
1, 62815, Note_on_c, 0, 43, 84
1, 62828, Note_on_c, 0, 67, 82
1, 62828, Note_on_c, 0, 72, 85
1, 62829, Note_on_c, 0, 75, 81
1, 62833, Note_on_c, 0, 79, 79
1, 62849, Note_off_c, 0, 72, 69
1, 62853, Note_off_c, 0, 43, 63
1, 62853, Note_off_c, 0, 75, 60
1, 62855, Note_off_c, 0, 67, 66
1, 62855, Note_off_c, 0, 79, 68
1, 62893, Note_on_c, 0, 36, 92
1, 62893, Control_c, 0, 64, 93
1, 62897, Note_on_c, 0, 69, 99
1, 62897, Note_on_c, 0, 75, 88
1, 62897, Note_on_c, 0, 81, 102
1, 62900, Note_on_c, 0, 72, 103
1, 62908, Control_c, 0, 64, 61
1, 62923, Control_c, 0, 64, 0
1, 62981, Note_on_c, 0, 42, 79
1, 62981, Control_c, 0, 64, 53
1, 62982, Note_off_c, 0, 36, 60
1, 62996, Control_c, 0, 64, 83
1, 63011, Control_c, 0, 64, 127
1, 63042, Note_on_c, 0, 48, 76
1, 63046, Note_off_c, 0, 42, 60
1, 63084, Note_off_c, 0, 48, 62
1, 63139, Note_on_c, 0, 50, 76
1, 63198, Note_off_c, 0, 50, 64
1, 63201, Note_on_c, 0, 51, 73
1, 63252, Note_on_c, 0, 50, 69
1, 63258, Note_off_c, 0, 51, 62
1, 63298, Note_off_c, 0, 50, 55
1, 63335, Note_on_c, 0, 48, 75
1, 63423, Note_on_c, 0, 42, 78
1, 63428, Note_off_c, 0, 48, 52
1, 63465, Control_c, 0, 64, 89
1, 63480, Control_c, 0, 64, 60
1, 63481, Note_on_c, 0, 36, 94
1, 63488, Note_off_c, 0, 42, 62
1, 63494, Control_c, 0, 64, 0
1, 63524, Control_c, 0, 64, 63
1, 63539, Control_c, 0, 64, 103
1, 63548, Note_on_c, 0, 42, 69
1, 63554, Control_c, 0, 64, 127
1, 63555, Note_off_c, 0, 36, 56
1, 63594, Note_off_c, 0, 69, 57
1, 63595, Note_off_c, 0, 72, 57
1, 63597, Note_on_c, 0, 48, 76
1, 63603, Note_off_c, 0, 42, 62
1, 63643, Note_off_c, 0, 75, 58
1, 63652, Note_off_c, 0, 48, 62
1, 63658, Note_off_c, 0, 81, 62
1, 63703, Note_on_c, 0, 50, 67
1, 63707, Note_on_c, 0, 52, 63
1, 63738, Note_off_c, 0, 52, 64
1, 63744, Note_off_c, 0, 50, 65
1, 63754, Note_on_c, 0, 51, 72
1, 63809, Note_off_c, 0, 51, 62
1, 63818, Note_on_c, 0, 48, 41
1, 63843, Note_off_c, 0, 48, 58
1, 63886, Note_on_c, 0, 69, 76
1, 63909, Note_on_c, 0, 74, 80
1, 63935, Note_off_c, 0, 69, 67
1, 63953, Note_on_c, 0, 81, 83
1, 63966, Note_off_c, 0, 74, 66
1, 63977, Control_c, 0, 64, 74
1, 63989, Note_on_c, 0, 86, 102
1, 63992, Control_c, 0, 64, 0
1, 63997, Note_on_c, 0, 35, 97
1, 64000, Note_off_c, 0, 81, 69
1, 64016, Note_off_c, 0, 86, 71
1, 64036, Control_c, 0, 64, 67
1, 64051, Control_c, 0, 64, 113
1, 64057, Note_off_c, 0, 35, 64
1, 64066, Control_c, 0, 64, 127
1, 64079, Note_on_c, 0, 47, 87
1, 64105, Note_off_c, 0, 47, 69
1, 64206, Note_on_c, 0, 50, 63
1, 64263, Note_on_c, 0, 52, 11
1, 64269, Note_on_c, 0, 55, 81
1, 64274, Note_off_c, 0, 50, 66
1, 64318, Note_off_c, 0, 52, 47
1, 64334, Note_off_c, 0, 55, 60
1, 64358, Note_on_c, 0, 62, 66
1, 64361, Note_on_c, 0, 79, 95
1, 64364, Note_on_c, 0, 67, 90
1, 64364, Note_on_c, 0, 74, 90
1, 64376, Note_on_c, 0, 60, 58
1, 64395, Note_off_c, 0, 62, 64
1, 64400, Note_off_c, 0, 60, 64
1, 64433, Note_on_c, 0, 55, 43
1, 64436, Note_on_c, 0, 50, 66
1, 64453, Note_off_c, 0, 55, 63
1, 64464, Note_off_c, 0, 50, 71
1, 64532, Note_on_c, 0, 47, 66
1, 64589, Note_off_c, 0, 47, 64
1, 64650, Control_c, 0, 64, 86
1, 64665, Control_c, 0, 64, 50
1, 64672, Note_on_c, 0, 34, 98
1, 64680, Control_c, 0, 64, 0
1, 64710, Control_c, 0, 64, 56
1, 64710, Note_off_c, 0, 79, 49
1, 64719, Note_off_c, 0, 74, 60
1, 64725, Control_c, 0, 64, 95
1, 64734, Note_off_c, 0, 67, 53
1, 64740, Control_c, 0, 64, 127
1, 64753, Note_off_c, 0, 34, 61
1, 64770, Note_on_c, 0, 46, 76
1, 64795, Note_off_c, 0, 46, 68
1, 64850, Note_on_c, 0, 67, 87
1, 64853, Note_on_c, 0, 73, 88
1, 64858, Note_on_c, 0, 79, 72
1, 64877, Note_on_c, 0, 49, 78
1, 64880, Note_off_c, 0, 73, 63
1, 64883, Note_off_c, 0, 79, 67
1, 64886, Note_off_c, 0, 67, 59
1, 64941, Note_on_c, 0, 55, 73
1, 64953, Note_off_c, 0, 49, 61
1, 64955, Note_on_c, 0, 67, 89
1, 64957, Note_on_c, 0, 73, 86
1, 64960, Note_on_c, 0, 79, 77
1, 64979, Note_off_c, 0, 73, 69
1, 64985, Note_off_c, 0, 79, 67
1, 64989, Note_off_c, 0, 67, 59
1, 65023, Note_on_c, 0, 61, 73
1, 65047, Note_off_c, 0, 55, 61
1, 65047, Note_off_c, 0, 61, 67
1, 65049, Note_on_c, 0, 67, 94
1, 65050, Note_on_c, 0, 73, 96
1, 65053, Note_on_c, 0, 79, 83
1, 65058, Note_on_c, 0, 49, 79
1, 65077, Note_off_c, 0, 79, 62
1, 65081, Note_off_c, 0, 67, 65
1, 65083, Note_off_c, 0, 49, 69
1, 65089, Note_off_c, 0, 73, 63
1, 65144, Note_on_c, 0, 68, 106
1, 65148, Note_on_c, 0, 80, 96
1, 65154, Note_on_c, 0, 73, 72
1, 65167, Note_on_c, 0, 74, 70
1, 65169, Note_on_c, 0, 46, 76
1, 65182, Note_off_c, 0, 73, 49
1, 65183, Note_off_c, 0, 74, 69
1, 65208, Note_off_c, 0, 68, 63
1, 65208, Note_off_c, 0, 80, 61
1, 65224, Note_off_c, 0, 46, 64
1, 65288, Note_on_c, 0, 73, 85
1, 65303, Note_on_c, 0, 67, 80
1, 65318, Control_c, 0, 64, 98
1, 65320, Note_off_c, 0, 73, 62
1, 65321, Note_on_c, 0, 79, 51
1, 65322, Note_off_c, 0, 67, 72
1, 65333, Control_c, 0, 64, 65
1, 65339, Note_on_c, 0, 33, 80
1, 65341, Note_off_c, 0, 79, 61
1, 65348, Control_c, 0, 64, 0
1, 65362, Note_on_c, 0, 67, 99
1, 65362, Note_on_c, 0, 72, 76
1, 65370, Note_on_c, 0, 79, 88
1, 65384, Control_c, 0, 64, 67
1, 65399, Control_c, 0, 64, 91
1, 65402, Note_off_c, 0, 33, 60
1, 65403, Note_off_c, 0, 67, 67
1, 65404, Note_on_c, 0, 43, 81
1, 65414, Note_off_c, 0, 72, 66
1, 65414, Control_c, 0, 64, 127
1, 65417, Note_on_c, 0, 45, 64
1, 65420, Note_off_c, 0, 79, 58
1, 65438, Note_off_c, 0, 43, 65
1, 65447, Note_off_c, 0, 45, 66
1, 65488, Note_on_c, 0, 84, 104
1, 65490, Note_on_c, 0, 72, 106
1, 65505, Note_off_c, 0, 84, 69
1, 65508, Note_off_c, 0, 72, 69
1, 65526, Note_on_c, 0, 50, 71
1, 65532, Note_on_c, 0, 48, 68
1, 65556, Note_off_c, 0, 48, 58
1, 65601, Note_on_c, 0, 53, 64
1, 65601, Note_off_c, 0, 50, 61
1, 65617, Note_on_c, 0, 55, 68
1, 65639, Note_off_c, 0, 55, 56
1, 65663, Note_off_c, 0, 53, 58
1, 65679, Note_on_c, 0, 60, 68
1, 65708, Note_on_c, 0, 77, 90
1, 65710, Note_on_c, 0, 72, 90
1, 65712, Note_on_c, 0, 65, 96
1, 65713, Note_off_c, 0, 60, 66
1, 65718, Note_on_c, 0, 53, 43
1, 65727, Control_c, 0, 64, 92
1, 65741, Control_c, 0, 64, 73
1, 65752, Note_on_c, 0, 48, 72
1, 65756, Control_c, 0, 64, 66
1, 65757, Note_off_c, 0, 53, 68
1, 65771, Control_c, 0, 64, 71
1, 65784, Note_off_c, 0, 48, 66
1, 65786, Control_c, 0, 64, 88
1, 65801, Control_c, 0, 64, 127
1, 65869, Note_on_c, 0, 45, 56
1, 65885, Note_on_c, 0, 47, 31
1, 65904, Note_off_c, 0, 45, 65
1, 65926, Note_off_c, 0, 47, 53
1, 65978, Control_c, 0, 64, 114
1, 65993, Control_c, 0, 64, 72
1, 66003, Note_on_c, 0, 32, 90
1, 66007, Control_c, 0, 64, 0
1, 66037, Control_c, 0, 64, 48
1, 66052, Control_c, 0, 64, 84
1, 66067, Control_c, 0, 64, 127
1, 66072, Note_off_c, 0, 32, 60
1, 66087, Note_on_c, 0, 44, 73
1, 66090, Note_off_c, 0, 65, 51
1, 66092, Note_off_c, 0, 72, 57
1, 66115, Note_off_c, 0, 77, 45
1, 66117, Note_off_c, 0, 44, 63
1, 66138, Poly_aftertouch_c, 0, 34, 0
1, 66208, Note_on_c, 0, 72, 82
1, 66209, Note_on_c, 0, 65, 86
1, 66223, Note_on_c, 0, 77, 71
1, 66233, Note_on_c, 0, 48, 75
1, 66242, Note_off_c, 0, 65, 58
1, 66249, Note_off_c, 0, 72, 58
1, 66250, Note_off_c, 0, 77, 68
1, 66309, Note_on_c, 0, 77, 79
1, 66310, Note_on_c, 0, 65, 86
1, 66311, Note_on_c, 0, 72, 79
1, 66311, Note_off_c, 0, 48, 60
1, 66317, Note_on_c, 0, 53, 83
1, 66335, Note_off_c, 0, 77, 64
1, 66341, Note_off_c, 0, 72, 57
1, 66345, Note_off_c, 0, 65, 61
1, 66392, Note_on_c, 0, 60, 71
1, 66419, Note_on_c, 0, 64, 90
1, 66421, Note_off_c, 0, 60, 69
1, 66424, Note_on_c, 0, 72, 77
1, 66430, Note_on_c, 0, 76, 71
1, 66437, Note_off_c, 0, 64, 73
1, 66437, Note_off_c, 0, 72, 70
1, 66445, Note_off_c, 0, 53, 64
1, 66447, Note_on_c, 0, 48, 72
1, 66447, Note_off_c, 0, 76, 67
1, 66469, Note_off_c, 0, 48, 70
1, 66495, Note_on_c, 0, 72, 87
1, 66500, Note_on_c, 0, 65, 90
1, 66505, Note_on_c, 0, 77, 79
1, 66517, Note_off_c, 0, 65, 73
1, 66518, Note_off_c, 0, 72, 63
1, 66522, Note_on_c, 0, 76, 51
1, 66531, Note_off_c, 0, 77, 66
1, 66548, Note_off_c, 0, 76, 58
1, 66576, Note_on_c, 0, 72, 86
1, 66577, Note_on_c, 0, 67, 99
1, 66579, Note_on_c, 0, 79, 96
1, 66603, Note_on_c, 0, 44, 76
1, 66621, Note_off_c, 0, 72, 65
1, 66626, Note_off_c, 0, 67, 61
1, 66628, Note_off_c, 0, 79, 63
1, 66674, Note_off_c, 0, 44, 55
1, 66739, Note_on_c, 0, 32, 40
1, 66750, Note_on_c, 0, 31, 50
1, 66760, Note_off_c, 0, 32, 59
1, 66788, Note_off_c, 0, 31, 57
1, 66794, Note_on_c, 0, 72, 82
1, 66810, Note_on_c, 0, 77, 59
1, 66812, Note_on_c, 0, 65, 65
1, 66813, Note_off_c, 0, 72, 70
1, 66827, Note_off_c, 0, 65, 69
1, 66828, Note_off_c, 0, 77, 65
1, 66859, Control_c, 0, 64, 92
1, 66862, Note_on_c, 0, 31, 86
1, 66868, Note_on_c, 0, 76, 99
1, 66882, Control_c, 0, 64, 67
1, 66892, Note_on_c, 0, 64, 92
1, 66892, Note_on_c, 0, 72, 88
1, 66897, Control_c, 0, 64, 0
1, 66955, Control_c, 0, 64, 64
1, 66958, Note_off_c, 0, 31, 61
1, 66970, Note_on_c, 0, 43, 86
1, 66970, Control_c, 0, 64, 82
1, 66985, Control_c, 0, 64, 115
1, 67000, Control_c, 0, 64, 127
1, 67006, Note_off_c, 0, 43, 64
1, 67053, Note_off_c, 0, 76, 61
1, 67080, Note_off_c, 0, 64, 62
1, 67087, Note_on_c, 0, 48, 65
1, 67119, Note_off_c, 0, 48, 63
1, 67122, Note_off_c, 0, 72, 39
1, 67129, Note_on_c, 0, 47, 65
1, 67218, Note_off_c, 0, 47, 61
1, 67222, Note_on_c, 0, 49, 69
1, 67251, Note_on_c, 0, 75, 93
1, 67264, Note_on_c, 0, 72, 75
1, 67266, Note_on_c, 0, 63, 80
1, 67283, Control_c, 0, 64, 101
1, 67292, Note_on_c, 0, 48, 68
1, 67298, Note_off_c, 0, 49, 61
1, 67298, Control_c, 0, 64, 76
1, 67313, Control_c, 0, 64, 57
1, 67327, Control_c, 0, 64, 41
1, 67342, Control_c, 0, 64, 63
1, 67349, Note_off_c, 0, 48, 61
1, 67357, Control_c, 0, 64, 79
1, 67369, Note_on_c, 0, 50, 69
1, 67372, Control_c, 0, 64, 127
1, 67427, Note_on_c, 0, 49, 57
1, 67473, Note_off_c, 0, 50, 38
1, 67479, Note_off_c, 0, 49, 60
1, 67485, Note_on_c, 0, 51, 69
1, 67521, Control_c, 0, 64, 98
1, 67535, Control_c, 0, 64, 70
1, 67542, Note_off_c, 0, 51, 61
1, 67550, Control_c, 0, 64, 22
1, 67565, Note_on_c, 0, 50, 70
1, 67565, Control_c, 0, 64, 16
1, 67579, Control_c, 0, 64, 61
1, 67594, Control_c, 0, 64, 78
1, 67609, Control_c, 0, 64, 119
1, 67631, Control_c, 0, 64, 127
1, 67643, Note_off_c, 0, 50, 64
1, 67645, Note_on_c, 0, 52, 66
1, 67691, Control_c, 0, 64, 109
1, 67698, Note_off_c, 0, 52, 53
1, 67706, Control_c, 0, 64, 87
1, 67708, Note_on_c, 0, 51, 66
1, 67721, Control_c, 0, 64, 78
1, 67735, Control_c, 0, 64, 83
1, 67750, Control_c, 0, 64, 102
1, 67756, Note_off_c, 0, 51, 60
1, 67765, Control_c, 0, 64, 127
1, 67807, Note_on_c, 0, 53, 68
1, 67865, Note_off_c, 0, 75, 53
1, 67872, Note_off_c, 0, 53, 59
1, 67876, Note_off_c, 0, 63, 55
1, 67878, Note_on_c, 0, 52, 56
1, 67886, Note_off_c, 0, 72, 59
1, 67937, Note_on_c, 0, 54, 63
1, 67945, Note_off_c, 0, 52, 57
1, 68003, Note_on_c, 0, 53, 63
1, 68005, Note_off_c, 0, 54, 60
1, 68044, Note_on_c, 0, 75, 75
1, 68056, Note_on_c, 0, 63, 56
1, 68058, Note_off_c, 0, 53, 64
1, 68062, Control_c, 0, 64, 103
1, 68067, Note_off_c, 0, 75, 69
1, 68076, Control_c, 0, 64, 80
1, 68079, Note_off_c, 0, 63, 59
1, 68091, Control_c, 0, 64, 55
1, 68095, Note_on_c, 0, 55, 62
1, 68106, Control_c, 0, 64, 0
1, 68122, Note_on_c, 0, 75, 77
1, 68137, Note_on_c, 0, 63, 48
1, 68137, Note_on_c, 0, 71, 54
1, 68165, Control_c, 0, 64, 41
1, 68170, Note_off_c, 0, 63, 0
1, 68170, Note_on_c, 0, 63, 18
1, 68180, Control_c, 0, 64, 62
1, 68195, Control_c, 0, 64, 75
1, 68206, Note_off_c, 0, 55, 49
1, 68207, Note_on_c, 0, 54, 50
1, 68210, Control_c, 0, 64, 92
1, 68225, Control_c, 0, 64, 115
1, 68239, Control_c, 0, 64, 127
1, 68251, Note_off_c, 0, 75, 58
1, 68256, Note_off_c, 0, 54, 62
1, 68275, Note_on_c, 0, 56, 51
1, 68284, Note_off_c, 0, 63, 61
1, 68322, Note_off_c, 0, 56, 63
1, 68358, Note_on_c, 0, 55, 54
1, 68460, Note_off_c, 0, 55, 54
1, 68483, Note_on_c, 0, 58, 47
1, 68504, Note_on_c, 0, 74, 63
1, 68514, Note_on_c, 0, 62, 53
1, 68514, Control_c, 0, 64, 96
1, 68529, Control_c, 0, 64, 76
1, 68544, Control_c, 0, 64, 60
1, 68545, Note_off_c, 0, 58, 59
1, 68550, Note_on_c, 0, 56, 52
1, 68558, Control_c, 0, 64, 37
1, 68573, Control_c, 0, 64, 51
1, 68585, Note_off_c, 0, 56, 63
1, 68588, Control_c, 0, 64, 66
1, 68602, Control_c, 0, 64, 79
1, 68613, Note_off_c, 0, 62, 0
1, 68617, Control_c, 0, 64, 98
1, 68632, Control_c, 0, 64, 127
1, 68639, Note_on_c, 0, 55, 63
1, 68651, Poly_aftertouch_c, 0, 62, 127
1, 68696, Note_off_c, 0, 55, 56
1, 68698, Poly_aftertouch_c, 0, 62, 0
1, 68708, Note_on_c, 0, 53, 64
1, 68709, Note_off_c, 0, 71, 45
1, 68731, Note_off_c, 0, 74, 59
1, 68754, Note_off_c, 0, 53, 64
1, 68782, Note_on_c, 0, 51, 56
1, 68811, Note_off_c, 0, 51, 63
1, 68849, Note_on_c, 0, 50, 67
1, 68885, Control_c, 0, 64, 125
1, 68900, Control_c, 0, 64, 106
1, 68914, Control_c, 0, 64, 96
1, 68915, Note_off_c, 0, 50, 63
1, 68922, Note_on_c, 0, 48, 62
1, 68929, Control_c, 0, 64, 88
1, 68944, Control_c, 0, 64, 82
1, 68944, Control_c, 0, 67, 8
1, 68959, Control_c, 0, 64, 76
1, 68959, Control_c, 0, 67, 12
1, 68964, Note_off_c, 0, 48, 63
1, 68973, Control_c, 0, 64, 70
1, 68973, Control_c, 0, 67, 19
1, 68978, Note_on_c, 0, 47, 60
1, 68988, Control_c, 0, 64, 65
1, 68988, Control_c, 0, 67, 30
1, 69003, Control_c, 0, 64, 62
1, 69003, Control_c, 0, 67, 44
1, 69018, Control_c, 0, 67, 61
1, 69032, Control_c, 0, 64, 64
1, 69032, Control_c, 0, 67, 75
1, 69035, Note_off_c, 0, 47, 61
1, 69044, Note_on_c, 0, 44, 64
1, 69047, Control_c, 0, 64, 67
1, 69047, Control_c, 0, 67, 90
1, 69062, Control_c, 0, 64, 71
1, 69062, Control_c, 0, 67, 105
1, 69077, Control_c, 0, 64, 79
1, 69077, Control_c, 0, 67, 121
1, 69086, Note_off_c, 0, 44, 63
1, 69092, Control_c, 0, 64, 86
1, 69092, Control_c, 0, 67, 127
1, 69107, Control_c, 0, 64, 90
1, 69144, Note_on_c, 0, 43, 69
1, 69174, Note_off_c, 0, 43, 58
1, 69200, Note_on_c, 0, 41, 62
1, 69247, Note_off_c, 0, 41, 60
1, 69266, Note_on_c, 0, 38, 55
1, 69277, Control_c, 0, 64, 89
1, 69319, Note_off_c, 0, 38, 58
1, 69322, Control_c, 0, 64, 89
1, 69336, Control_c, 0, 64, 87
1, 69351, Control_c, 0, 64, 82
1, 69366, Control_c, 0, 64, 72
1, 69379, Note_on_c, 0, 36, 63
1, 69381, Control_c, 0, 64, 59
1, 69396, Control_c, 0, 64, 0
1, 69440, Control_c, 0, 64, 56
1, 69455, Control_c, 0, 64, 70
1, 69458, Note_off_c, 0, 36, 56
1, 69470, Control_c, 0, 64, 85
1, 69474, Note_on_c, 0, 43, 71
1, 69485, Control_c, 0, 64, 107
1, 69499, Control_c, 0, 64, 127
1, 69515, Note_off_c, 0, 43, 62
1, 69532, Note_on_c, 0, 48, 70
1, 69561, Note_off_c, 0, 48, 65
1, 69617, Note_on_c, 0, 50, 76
1, 69690, Note_on_c, 0, 51, 70
1, 69692, Note_off_c, 0, 50, 64
1, 69747, Note_on_c, 0, 55, 70
1, 69754, Note_off_c, 0, 51, 62
1, 69780, Note_off_c, 0, 55, 61
1, 69807, Note_on_c, 0, 60, 70
1, 69843, Note_off_c, 0, 60, 65
1, 69891, Note_on_c, 0, 62, 67
1, 69923, Control_c, 0, 64, 109
1, 69927, Note_on_c, 0, 63, 79
1, 69927, Note_off_c, 0, 62, 62
1, 69937, Control_c, 0, 64, 81
1, 69952, Control_c, 0, 64, 61
1, 69967, Control_c, 0, 64, 35
1, 69981, Control_c, 0, 64, 50
1, 69996, Control_c, 0, 64, 68
1, 70001, Note_off_c, 0, 63, 63
1, 70007, Note_on_c, 0, 62, 58
1, 70011, Control_c, 0, 64, 85
1, 70026, Control_c, 0, 64, 127
1, 70029, Note_off_c, 0, 62, 61
1, 70081, Note_on_c, 0, 60, 66
1, 70136, Note_off_c, 0, 60, 49
1, 70156, Note_on_c, 0, 55, 68
1, 70211, Note_off_c, 0, 55, 59
1, 70213, Note_on_c, 0, 51, 57
1, 70277, Note_on_c, 0, 50, 67
1, 70281, Note_off_c, 0, 51, 62
1, 70308, Note_off_c, 0, 50, 68
1, 70352, Note_on_c, 0, 48, 65
1, 70424, Note_off_c, 0, 48, 55
1, 70427, Note_on_c, 0, 43, 76
1, 70442, Control_c, 0, 67, 124
1, 70457, Control_c, 0, 64, 91
1, 70457, Control_c, 0, 67, 116
1, 70467, Note_off_c, 0, 43, 61
1, 70471, Control_c, 0, 64, 62
1, 70471, Control_c, 0, 67, 103
1, 70481, Note_on_c, 0, 36, 75
1, 70486, Control_c, 0, 64, 0
1, 70486, Control_c, 0, 67, 86
1, 70501, Control_c, 0, 67, 66
1, 70516, Control_c, 0, 64, 59
1, 70516, Control_c, 0, 67, 42
1, 70531, Control_c, 0, 64, 74
1, 70531, Control_c, 0, 67, 23
1, 70545, Control_c, 0, 64, 97
1, 70545, Control_c, 0, 67, 0
1, 70551, Note_off_c, 0, 36, 59
1, 70552, Note_on_c, 0, 43, 79
1, 70560, Control_c, 0, 64, 127
1, 70594, Note_off_c, 0, 43, 61
1, 70601, Note_on_c, 0, 48, 73
1, 70654, Note_off_c, 0, 48, 60
1, 70711, Note_on_c, 0, 50, 57
1, 70741, Note_on_c, 0, 51, 71
1, 70743, Note_off_c, 0, 50, 67
1, 70800, Note_off_c, 0, 51, 61
1, 70810, Note_on_c, 0, 50, 72
1, 70840, Note_off_c, 0, 50, 70
1, 70878, Note_on_c, 0, 48, 75
1, 70959, Note_on_c, 0, 43, 82
1, 70964, Note_off_c, 0, 48, 62
1, 70990, Note_off_c, 0, 43, 64
1, 71024, Poly_aftertouch_c, 0, 45, 127
1, 71026, Note_on_c, 0, 36, 90
1, 71068, Poly_aftertouch_c, 0, 45, 0
1, 71084, Note_on_c, 0, 43, 68
1, 71109, Note_off_c, 0, 36, 59
1, 71154, Note_on_c, 0, 48, 81
1, 71158, Note_off_c, 0, 43, 62
1, 71177, Note_on_c, 0, 71, 84
1, 71177, Note_on_c, 0, 83, 86
1, 71203, Note_off_c, 0, 71, 65
1, 71210, Note_off_c, 0, 48, 61
1, 71219, Note_off_c, 0, 83, 63
1, 71262, Note_on_c, 0, 50, 77
1, 71274, Note_on_c, 0, 84, 87
1, 71275, Note_on_c, 0, 72, 86
1, 71294, Note_off_c, 0, 72, 70
1, 71300, Note_off_c, 0, 84, 63
1, 71305, Note_on_c, 0, 51, 78
1, 71312, Note_off_c, 0, 50, 66
1, 71360, Note_on_c, 0, 73, 98
1, 71363, Note_on_c, 0, 50, 72
1, 71365, Note_on_c, 0, 85, 96
1, 71382, Note_off_c, 0, 51, 62
1, 71402, Note_off_c, 0, 50, 69
1, 71402, Note_off_c, 0, 73, 61
1, 71413, Note_off_c, 0, 85, 60
1, 71450, Note_on_c, 0, 74, 90
1, 71453, Note_on_c, 0, 86, 92
1, 71465, Note_on_c, 0, 48, 77
1, 71471, Note_off_c, 0, 74, 69
1, 71481, Note_off_c, 0, 86, 60
1, 71557, Note_on_c, 0, 43, 89
1, 71575, Note_off_c, 0, 48, 56
1, 71656, Note_on_c, 0, 87, 101
1, 71656, Note_on_c, 0, 75, 95
1, 71668, Note_off_c, 0, 43, 59
1, 71679, Note_off_c, 0, 75, 62
1, 71684, Note_off_c, 0, 87, 55
1, 71712, Note_on_c, 0, 36, 80
1, 71715, Note_on_c, 0, 87, 99
1, 71715, Control_c, 0, 64, 95
1, 71718, Note_on_c, 0, 75, 101
1, 71730, Control_c, 0, 64, 66
1, 71745, Control_c, 0, 64, 0
1, 71790, Note_on_c, 0, 43, 86
1, 71790, Control_c, 0, 64, 59
1, 71800, Note_off_c, 0, 36, 59
1, 71805, Control_c, 0, 64, 78
1, 71820, Control_c, 0, 64, 121
1, 71834, Control_c, 0, 64, 127
1, 71850, Note_off_c, 0, 43, 62
1, 71860, Note_on_c, 0, 48, 79
1, 71887, Note_off_c, 0, 48, 66
1, 71948, Note_on_c, 0, 50, 82
1, 72011, Note_off_c, 0, 87, 59
1, 72015, Note_on_c, 0, 51, 78
1, 72023, Note_off_c, 0, 50, 63
1, 72037, Note_off_c, 0, 75, 54
1, 72046, Poly_aftertouch_c, 0, 48, 0
1, 72085, Note_on_c, 0, 55, 73
1, 72085, Note_off_c, 0, 51, 63
1, 72112, Note_off_c, 0, 55, 63
1, 72138, Note_on_c, 0, 60, 81
1, 72181, Note_off_c, 0, 60, 63
1, 72222, Note_on_c, 0, 62, 80
1, 72270, Note_on_c, 0, 63, 83
1, 72270, Note_off_c, 0, 62, 62
1, 72286, Control_c, 0, 64, 96
1, 72301, Control_c, 0, 64, 88
1, 72316, Control_c, 0, 64, 92
1, 72327, Note_on_c, 0, 62, 75
1, 72330, Control_c, 0, 64, 115
1, 72336, Note_off_c, 0, 63, 64
1, 72345, Control_c, 0, 64, 127
1, 72377, Note_off_c, 0, 62, 63
1, 72419, Note_on_c, 0, 60, 78
1, 72486, Note_off_c, 0, 60, 55
1, 72495, Note_on_c, 0, 75, 70
1, 72496, Note_on_c, 0, 67, 77
1, 72499, Note_on_c, 0, 72, 66
1, 72513, Note_on_c, 0, 79, 41
1, 72514, Note_on_c, 0, 55, 68
1, 72519, Note_off_c, 0, 75, 67
1, 72521, Note_off_c, 0, 67, 68
1, 72524, Note_off_c, 0, 72, 64
1, 72542, Note_off_c, 0, 79, 0
1, 72555, Note_on_c, 0, 67, 93
1, 72556, Note_on_c, 0, 79, 71
1, 72563, Note_on_c, 0, 75, 87
1, 72565, Note_on_c, 0, 51, 69
1, 72566, Note_on_c, 0, 72, 87
1, 72571, Note_off_c, 0, 55, 61
1, 72602, Note_off_c, 0, 67, 62
1, 72609, Note_off_c, 0, 75, 60
1, 72610, Note_off_c, 0, 72, 60
1, 72612, Note_off_c, 0, 79, 59
1, 72619, Note_on_c, 0, 50, 76
1, 72642, Note_off_c, 0, 51, 63
1, 72644, Note_off_c, 0, 50, 70
1, 72696, Note_on_c, 0, 48, 80
1, 72773, Note_on_c, 0, 43, 84
1, 72783, Note_off_c, 0, 48, 59
1, 72815, Note_on_c, 0, 75, 80
1, 72816, Note_on_c, 0, 67, 78
1, 72818, Note_on_c, 0, 72, 78
1, 72820, Note_on_c, 0, 79, 70
1, 72833, Note_off_c, 0, 43, 63
1, 72839, Note_off_c, 0, 79, 66
1, 72840, Note_off_c, 0, 72, 68
1, 72843, Note_off_c, 0, 67, 68
1, 72848, Note_off_c, 0, 75, 60
1, 72887, Control_c, 0, 64, 91
1, 72887, Poly_aftertouch_c, 0, 75, 0
1, 72892, Note_on_c, 0, 36, 85
1, 72892, Note_on_c, 0, 80, 93
1, 72893, Note_on_c, 0, 68, 92
1, 72895, Note_on_c, 0, 75, 74
1, 72902, Control_c, 0, 64, 62
1, 72902, Note_on_c, 0, 72, 80
1, 72917, Control_c, 0, 64, 0
1, 72958, Note_on_c, 0, 43, 86
1, 72961, Control_c, 0, 64, 60
1, 72976, Control_c, 0, 64, 82
1, 72979, Note_off_c, 0, 36, 60
1, 72991, Control_c, 0, 64, 127
1, 73026, Note_on_c, 0, 48, 79
1, 73028, Note_off_c, 0, 43, 62
1, 73080, Note_off_c, 0, 48, 61
1, 73115, Note_on_c, 0, 50, 81
1, 73177, Note_off_c, 0, 50, 66
1, 73181, Note_on_c, 0, 51, 78
1, 73197, Note_off_c, 0, 68, 54
1, 73227, Note_off_c, 0, 72, 55
1, 73232, Note_on_c, 0, 50, 80
1, 73235, Note_off_c, 0, 80, 58
1, 73243, Note_off_c, 0, 51, 62
1, 73283, Note_off_c, 0, 50, 67
1, 73322, Note_on_c, 0, 48, 82
1, 73402, Note_on_c, 0, 43, 91
1, 73417, Note_off_c, 0, 48, 60
1, 73448, Note_off_c, 0, 43, 61
1, 73465, Control_c, 0, 64, 102
1, 73477, Note_off_c, 0, 75, 60
1, 73480, Control_c, 0, 64, 73
1, 73489, Note_on_c, 0, 36, 94
1, 73495, Control_c, 0, 64, 41
1, 73505, Note_on_c, 0, 67, 99
1, 73508, Note_on_c, 0, 79, 92
1, 73510, Control_c, 0, 64, 47
1, 73524, Control_c, 0, 64, 79
1, 73539, Control_c, 0, 64, 127
1, 73548, Note_on_c, 0, 43, 66
1, 73551, Note_off_c, 0, 67, 64
1, 73562, Note_off_c, 0, 79, 62
1, 73577, Note_off_c, 0, 36, 57
1, 73627, Note_on_c, 0, 48, 78
1, 73632, Note_off_c, 0, 43, 61
1, 73668, Note_on_c, 0, 71, 100
1, 73670, Note_on_c, 0, 83, 97
1, 73692, Note_off_c, 0, 48, 60
1, 73704, Note_off_c, 0, 71, 67
1, 73706, Note_off_c, 0, 83, 63
1, 73728, Note_on_c, 0, 50, 82
1, 73768, Note_on_c, 0, 72, 94
1, 73771, Note_on_c, 0, 84, 90
1, 73794, Note_off_c, 0, 50, 65
1, 73798, Note_on_c, 0, 51, 76
1, 73799, Note_on_c, 0, 83, 63
1, 73800, Note_off_c, 0, 83, 127
1, 73802, Note_off_c, 0, 72, 67
1, 73804, Note_off_c, 0, 84, 63
1, 73840, Note_on_c, 0, 50, 69
1, 73862, Note_off_c, 0, 51, 62
1, 73867, Note_on_c, 0, 73, 90
1, 73867, Note_on_c, 0, 85, 94
1, 73885, Note_off_c, 0, 73, 73
1, 73888, Note_off_c, 0, 85, 65
1, 73897, Note_off_c, 0, 50, 67
1, 73944, Note_on_c, 0, 74, 91
1, 73950, Note_on_c, 0, 86, 90
1, 73966, Note_off_c, 0, 74, 64
1, 73972, Note_off_c, 0, 86, 67
1, 73984, Note_on_c, 0, 85, 24
1, 74000, Note_on_c, 0, 48, 39
1, 74017, Note_off_c, 0, 85, 53
1, 74019, Note_on_c, 0, 89, 95
1, 74022, Note_on_c, 0, 77, 88
1, 74040, Note_off_c, 0, 89, 61
1, 74040, Note_off_c, 0, 77, 72
1, 74048, Note_on_c, 0, 88, 54
1, 74049, Note_off_c, 0, 88, 127
1, 74133, Note_on_c, 0, 43, 77
1, 74247, Note_on_c, 0, 87, 103
1, 74250, Note_on_c, 0, 75, 91
1, 74264, Note_off_c, 0, 87, 70
1, 74268, Note_off_c, 0, 75, 69
1, 74276, Note_off_c, 0, 48, 19
1, 74303, Control_c, 0, 64, 116
1, 74309, Note_off_c, 0, 43, 34
1, 74312, Note_on_c, 0, 87, 114
1, 74313, Note_on_c, 0, 75, 96
1, 74318, Control_c, 0, 64, 72
1, 74321, Note_on_c, 0, 36, 85
1, 74332, Control_c, 0, 64, 0
1, 74374, Note_on_c, 0, 88, 14
1, 74385, Control_c, 0, 64, 27
1, 74396, Note_off_c, 0, 88, 36
1, 74400, Control_c, 0, 64, 71
1, 74406, Note_on_c, 0, 43, 88
1, 74415, Control_c, 0, 64, 106
1, 74419, Note_off_c, 0, 36, 60
1, 74430, Control_c, 0, 64, 127
1, 74460, Note_off_c, 0, 43, 63
1, 74470, Note_on_c, 0, 48, 75
1, 74497, Note_off_c, 0, 48, 66
1, 74550, Note_on_c, 0, 50, 86
1, 74616, Note_on_c, 0, 51, 80
1, 74637, Note_off_c, 0, 87, 62
1, 74641, Note_off_c, 0, 50, 61
1, 74649, Note_off_c, 0, 75, 56
1, 74684, Note_on_c, 0, 55, 73
1, 74688, Note_off_c, 0, 51, 63
1, 74714, Note_off_c, 0, 55, 62
1, 74732, Note_on_c, 0, 60, 84
1, 74776, Note_off_c, 0, 60, 65
1, 74818, Note_on_c, 0, 62, 80
1, 74859, Control_c, 0, 64, 109
1, 74860, Note_on_c, 0, 63, 83
1, 74867, Note_off_c, 0, 62, 63
1, 74874, Control_c, 0, 64, 83
1, 74889, Control_c, 0, 64, 71
1, 74904, Control_c, 0, 64, 83
1, 74918, Control_c, 0, 64, 127
1, 74923, Note_on_c, 0, 62, 73
1, 74936, Note_off_c, 0, 63, 63
1, 74967, Note_off_c, 0, 62, 61
1, 75015, Note_on_c, 0, 60, 80
1, 75093, Note_on_c, 0, 67, 86
1, 75096, Note_on_c, 0, 72, 80
1, 75096, Note_on_c, 0, 55, 85
1, 75097, Note_on_c, 0, 75, 76
1, 75102, Note_off_c, 0, 60, 60
1, 75109, Note_on_c, 0, 79, 59
1, 75121, Note_off_c, 0, 67, 70
1, 75122, Note_off_c, 0, 72, 71
1, 75125, Note_off_c, 0, 75, 70
1, 75135, Note_off_c, 0, 79, 62
1, 75167, Note_on_c, 0, 67, 107
1, 75170, Note_on_c, 0, 51, 71
1, 75170, Note_on_c, 0, 75, 101
1, 75170, Note_on_c, 0, 79, 91
1, 75170, Note_off_c, 0, 55, 61
1, 75172, Note_on_c, 0, 72, 99
1, 75209, Note_on_c, 0, 50, 77
1, 75212, Note_off_c, 0, 67, 64
1, 75216, Note_off_c, 0, 72, 63
1, 75224, Note_off_c, 0, 75, 62
1, 75225, Note_off_c, 0, 79, 59
1, 75230, Note_off_c, 0, 51, 64
1, 75233, Note_off_c, 0, 50, 71
1, 75286, Note_on_c, 0, 48, 86
1, 75352, Note_off_c, 0, 48, 62
1, 75362, Note_on_c, 0, 43, 87
1, 75421, Note_on_c, 0, 75, 80
1, 75422, Note_on_c, 0, 72, 78
1, 75423, Note_on_c, 0, 67, 77
1, 75423, Note_on_c, 0, 79, 79
1, 75426, Note_off_c, 0, 43, 63
1, 75443, Note_off_c, 0, 79, 69
1, 75444, Note_off_c, 0, 67, 71
1, 75446, Note_off_c, 0, 72, 70
1, 75453, Note_off_c, 0, 75, 57
1, 75485, Note_on_c, 0, 75, 88
1, 75486, Note_on_c, 0, 36, 90
1, 75486, Note_on_c, 0, 69, 106
1, 75489, Note_on_c, 0, 81, 97
1, 75489, Control_c, 0, 64, 108
1, 75491, Note_on_c, 0, 72, 99
1, 75504, Control_c, 0, 64, 71
1, 75519, Control_c, 0, 64, 0
1, 75570, Note_on_c, 0, 42, 83
1, 75578, Control_c, 0, 64, 62
1, 75586, Note_off_c, 0, 36, 60
1, 75593, Control_c, 0, 64, 87
1, 75608, Control_c, 0, 64, 127
1, 75635, Note_on_c, 0, 48, 80
1, 75642, Note_off_c, 0, 42, 61
1, 75677, Note_off_c, 0, 48, 61
1, 75716, Note_on_c, 0, 50, 90
1, 75782, Note_off_c, 0, 50, 65
1, 75784, Note_on_c, 0, 51, 80
1, 75844, Note_on_c, 0, 50, 77
1, 75850, Note_off_c, 0, 51, 63
1, 75889, Note_off_c, 0, 50, 62
1, 75922, Note_on_c, 0, 48, 77
1, 76016, Note_on_c, 0, 42, 86
1, 76025, Note_off_c, 0, 48, 57
1, 76061, Control_c, 0, 64, 95
1, 76062, Note_on_c, 0, 36, 80
1, 76072, Note_off_c, 0, 42, 63
1, 76076, Control_c, 0, 64, 71
1, 76077, Note_on_c, 0, 35, 60
1, 76078, Note_off_c, 0, 35, 127
1, 76090, Control_c, 0, 64, 62
1, 76105, Control_c, 0, 64, 84
1, 76120, Control_c, 0, 64, 127
1, 76124, Note_on_c, 0, 42, 81
1, 76145, Note_off_c, 0, 69, 56
1, 76159, Note_off_c, 0, 36, 57
1, 76181, Note_off_c, 0, 72, 56
1, 76198, Note_off_c, 0, 42, 62
1, 76204, Note_off_c, 0, 81, 58
1, 76205, Note_on_c, 0, 48, 77
1, 76262, Note_off_c, 0, 48, 55
1, 76285, Note_on_c, 0, 50, 93
1, 76293, Note_off_c, 0, 75, 0
1, 76330, Poly_aftertouch_c, 0, 75, 127
1, 76353, Note_on_c, 0, 51, 85
1, 76360, Note_off_c, 0, 50, 65
1, 76426, Note_on_c, 0, 50, 76
1, 76435, Note_off_c, 0, 51, 61
1, 76491, Note_off_c, 0, 50, 57
1, 76507, Note_on_c, 0, 48, 80
1, 76566, Note_off_c, 0, 48, 63
1, 76595, Note_on_c, 0, 42, 91
1, 76649, Note_off_c, 0, 42, 63
1, 76796, Note_on_c, 0, 37, 91
1, 76798, Note_on_c, 0, 70, 101
1, 76798, Note_on_c, 0, 82, 100
1, 76799, Note_on_c, 0, 73, 106
1, 76810, Control_c, 0, 64, 99
1, 76824, Control_c, 0, 64, 63
1, 76826, Poly_aftertouch_c, 0, 75, 0
1, 76839, Control_c, 0, 64, 0
1, 76928, Control_c, 0, 64, 36
1, 76932, Note_on_c, 0, 49, 83
1, 76943, Control_c, 0, 64, 76
1, 76944, Note_off_c, 0, 37, 62
1, 76958, Control_c, 0, 64, 105
1, 76968, Note_off_c, 0, 49, 59
1, 76972, Control_c, 0, 64, 127
1, 77060, Note_on_c, 0, 54, 81
1, 77084, Note_off_c, 0, 82, 60
1, 77134, Note_off_c, 0, 54, 61
1, 77136, Note_on_c, 0, 56, 79
1, 77141, Note_off_c, 0, 70, 61
1, 77145, Note_off_c, 0, 73, 59
1, 77190, Note_off_c, 0, 56, 62
1, 77199, Note_on_c, 0, 58, 82
1, 77269, Note_on_c, 0, 56, 74
1, 77282, Note_off_c, 0, 58, 62
1, 77314, Note_on_c, 0, 54, 77
1, 77316, Note_off_c, 0, 56, 63
1, 77337, Note_off_c, 0, 54, 67
1, 77405, Note_on_c, 0, 49, 81
1, 77475, Note_off_c, 0, 49, 62
1, 77493, Note_on_c, 0, 37, 82
1, 77513, Note_on_c, 0, 80, 100
1, 77518, Note_on_c, 0, 68, 97
1, 77520, Note_on_c, 0, 73, 92
1, 77522, Note_on_c, 0, 70, 94
1, 77543, Control_c, 0, 64, 109
1, 77558, Control_c, 0, 64, 83
1, 77573, Control_c, 0, 64, 76
1, 77576, Note_on_c, 0, 49, 77
1, 77585, Note_off_c, 0, 37, 60
1, 77588, Control_c, 0, 64, 83
1, 77602, Note_off_c, 0, 49, 64
1, 77602, Control_c, 0, 64, 127
1, 77659, Note_off_c, 0, 80, 56
1, 77683, Note_off_c, 0, 73, 59
1, 77689, Note_on_c, 0, 54, 81
1, 77701, Note_off_c, 0, 68, 60
1, 77718, Note_off_c, 0, 70, 54
1, 77757, Note_off_c, 0, 54, 60
1, 77766, Note_on_c, 0, 56, 76
1, 77827, Note_off_c, 0, 56, 62
1, 77836, Note_on_c, 0, 58, 81
1, 77853, Note_on_c, 0, 78, 100
1, 77856, Note_on_c, 0, 66, 102
1, 77861, Note_on_c, 0, 73, 92
1, 77862, Note_on_c, 0, 70, 91
1, 77904, Note_on_c, 0, 56, 65
1, 77916, Note_off_c, 0, 58, 62
1, 77936, Note_off_c, 0, 56, 64
1, 77939, Note_off_c, 0, 70, 61
1, 77939, Note_off_c, 0, 73, 62
1, 77942, Note_on_c, 0, 54, 70
1, 77951, Note_off_c, 0, 78, 58
1, 77956, Note_off_c, 0, 66, 52
1, 77966, Note_off_c, 0, 54, 66
1, 78039, Note_on_c, 0, 49, 74
1, 78100, Note_on_c, 0, 65, 86
1, 78103, Note_on_c, 0, 73, 81
1, 78103, Note_on_c, 0, 70, 88
1, 78115, Note_on_c, 0, 77, 70
1, 78129, Note_off_c, 0, 65, 70
1, 78132, Note_off_c, 0, 70, 68
1, 78134, Note_off_c, 0, 77, 68
1, 78136, Note_off_c, 0, 49, 59
1, 78138, Note_off_c, 0, 73, 58
1, 78170, Note_on_c, 0, 37, 75
1, 78173, Control_c, 0, 64, 116
1, 78176, Note_on_c, 0, 65, 96
1, 78177, Note_on_c, 0, 77, 98
1, 78178, Note_on_c, 0, 73, 81
1, 78181, Note_on_c, 0, 70, 90
1, 78188, Control_c, 0, 64, 77
1, 78202, Control_c, 0, 64, 50
1, 78217, Control_c, 0, 64, 32
1, 78232, Control_c, 0, 64, 57
1, 78233, Note_off_c, 0, 37, 61
1, 78243, Note_on_c, 0, 49, 71
1, 78247, Control_c, 0, 64, 75
1, 78262, Control_c, 0, 64, 116
1, 78273, Note_off_c, 0, 49, 66
1, 78276, Control_c, 0, 64, 127
1, 78372, Note_on_c, 0, 55, 76
1, 78425, Note_off_c, 0, 55, 59
1, 78439, Note_on_c, 0, 58, 70
1, 78508, Note_off_c, 0, 58, 61
1, 78515, Note_on_c, 0, 61, 58
1, 78544, Note_off_c, 0, 61, 64
1, 78569, Note_on_c, 0, 60, 69
1, 78599, Note_off_c, 0, 77, 53
1, 78641, Note_off_c, 0, 60, 60
1, 78643, Note_off_c, 0, 65, 54
1, 78647, Note_on_c, 0, 58, 66
1, 78711, Note_on_c, 0, 56, 70
1, 78718, Note_off_c, 0, 58, 62
1, 78761, Note_off_c, 0, 56, 60
1, 78812, Note_on_c, 0, 55, 72
1, 78837, Note_on_c, 0, 76, 88
1, 78845, Note_on_c, 0, 64, 79
1, 78863, Control_c, 0, 64, 109
1, 78878, Control_c, 0, 64, 79
1, 78892, Control_c, 0, 64, 57
1, 78893, Note_on_c, 0, 53, 69
1, 78899, Note_off_c, 0, 55, 59
1, 78907, Control_c, 0, 64, 34
1, 78922, Control_c, 0, 64, 55
1, 78936, Control_c, 0, 64, 72
1, 78943, Note_off_c, 0, 64, 62
1, 78951, Control_c, 0, 64, 95
1, 78966, Control_c, 0, 64, 127
1, 78968, Note_on_c, 0, 52, 64
1, 78969, Note_off_c, 0, 53, 61
1, 79001, Note_off_c, 0, 76, 62
1, 79018, Note_off_c, 0, 70, 62
1, 79021, Note_on_c, 0, 49, 76
1, 79033, Note_off_c, 0, 52, 61
1, 79055, Note_off_c, 0, 49, 65
1, 79057, Note_off_c, 0, 73, 57
1, 79119, Note_on_c, 0, 48, 71
1, 79187, Note_on_c, 0, 46, 72
1, 79219, Note_off_c, 0, 48, 57
1, 79263, Note_on_c, 0, 44, 71
1, 79281, Note_off_c, 0, 46, 61
1, 79326, Note_on_c, 0, 43, 84
1, 79335, Note_off_c, 0, 44, 62
1, 79358, Note_off_c, 0, 43, 64
1, 79512, Note_on_c, 0, 35, 75
1, 79574, Control_c, 0, 64, 99
1, 79586, Note_on_c, 0, 80, 95
1, 79589, Control_c, 0, 64, 72
1, 79612, Control_c, 0, 64, 41
1, 79616, Note_on_c, 0, 68, 75
1, 79621, Note_on_c, 0, 76, 51
1, 79627, Control_c, 0, 64, 0
1, 79629, Note_on_c, 0, 71, 56
1, 79671, Control_c, 0, 64, 50
1, 79674, Note_off_c, 0, 35, 62
1, 79686, Control_c, 0, 64, 68
1, 79701, Control_c, 0, 64, 92
1, 79709, Note_on_c, 0, 47, 61
1, 79715, Control_c, 0, 64, 127
1, 79739, Note_off_c, 0, 47, 64
1, 79811, Note_off_c, 0, 76, 33
1, 79812, Note_off_c, 0, 71, 62
1, 79823, Note_off_c, 0, 80, 62
1, 79838, Note_on_c, 0, 52, 42
1, 79849, Note_off_c, 0, 68, 60
1, 79870, Note_off_c, 0, 52, 53
1, 79891, Note_on_c, 0, 54, 64
1, 79923, Note_off_c, 0, 54, 64
1, 79966, Note_on_c, 0, 56, 68
1, 79987, Note_on_c, 0, 52, 17
1, 80021, Note_off_c, 0, 56, 63
1, 80023, Note_on_c, 0, 54, 58
1, 80038, Note_off_c, 0, 52, 43
1, 80065, Note_off_c, 0, 54, 63
1, 80082, Note_on_c, 0, 52, 39
1, 80117, Note_off_c, 0, 52, 54
1, 80182, Note_on_c, 0, 47, 58
1, 80240, Note_off_c, 0, 47, 60
1, 80255, Note_on_c, 0, 35, 72
1, 80271, Note_on_c, 0, 78, 91
1, 80279, Control_c, 0, 64, 104
1, 80289, Note_on_c, 0, 71, 69
1, 80290, Note_on_c, 0, 66, 67
1, 80294, Control_c, 0, 64, 82
1, 80296, Note_on_c, 0, 68, 64
1, 80309, Control_c, 0, 64, 72
1, 80314, Note_off_c, 0, 35, 64
1, 80324, Control_c, 0, 64, 73
1, 80339, Note_on_c, 0, 47, 65
1, 80339, Control_c, 0, 64, 85
1, 80358, Note_off_c, 0, 71, 60
1, 80361, Control_c, 0, 64, 127
1, 80373, Note_off_c, 0, 68, 59
1, 80378, Note_off_c, 0, 47, 65
1, 80384, Note_off_c, 0, 78, 64
1, 80385, Note_off_c, 0, 66, 59
1, 80443, Note_on_c, 0, 52, 71
1, 80507, Note_off_c, 0, 52, 61
1, 80515, Note_on_c, 0, 54, 63
1, 80547, Note_off_c, 0, 54, 63
1, 80580, Note_on_c, 0, 56, 78
1, 80604, Note_on_c, 0, 76, 93
1, 80613, Note_on_c, 0, 71, 75
1, 80615, Note_on_c, 0, 64, 74
1, 80631, Note_on_c, 0, 68, 53
1, 80637, Note_off_c, 0, 56, 64
1, 80642, Note_off_c, 0, 64, 67
1, 80652, Note_on_c, 0, 54, 63
1, 80655, Note_off_c, 0, 68, 59
1, 80677, Note_off_c, 0, 76, 62
1, 80677, Note_off_c, 0, 71, 58
1, 80683, Note_off_c, 0, 54, 64
1, 80701, Note_on_c, 0, 52, 54
1, 80725, Note_off_c, 0, 52, 59
1, 80809, Note_on_c, 0, 47, 64
1, 80853, Note_on_c, 0, 75, 75
1, 80854, Note_on_c, 0, 71, 65
1, 80855, Note_on_c, 0, 63, 70
1, 80861, Note_on_c, 0, 68, 60
1, 80873, Note_off_c, 0, 63, 67
1, 80878, Note_off_c, 0, 68, 67
1, 80878, Note_off_c, 0, 75, 63
1, 80881, Note_off_c, 0, 71, 69
1, 80882, Note_off_c, 0, 47, 60
1, 80894, Control_c, 0, 64, 107
1, 80909, Control_c, 0, 64, 76
1, 80920, Note_on_c, 0, 35, 70
1, 80924, Control_c, 0, 64, 0
1, 80926, Note_on_c, 0, 75, 83
1, 80932, Note_on_c, 0, 63, 70
1, 80938, Note_on_c, 0, 68, 71
1, 80938, Note_on_c, 0, 71, 65
1, 80968, Note_off_c, 0, 35, 63
1, 80968, Control_c, 0, 64, 61
1, 80983, Control_c, 0, 64, 79
1, 80986, Note_on_c, 0, 47, 70
1, 80998, Control_c, 0, 64, 110
1, 81013, Control_c, 0, 64, 127
1, 81016, Note_off_c, 0, 47, 66
1, 81115, Note_on_c, 0, 53, 69
1, 81177, Note_off_c, 0, 53, 63
1, 81183, Note_on_c, 0, 56, 66
1, 81227, Note_off_c, 0, 56, 62
1, 81253, Note_on_c, 0, 59, 76
1, 81319, Note_on_c, 0, 58, 66
1, 81320, Note_off_c, 0, 59, 57
1, 81375, Note_on_c, 0, 56, 61
1, 81380, Note_off_c, 0, 58, 61
1, 81416, Note_off_c, 0, 63, 61
1, 81418, Note_off_c, 0, 75, 60
1, 81442, Note_on_c, 0, 54, 72
1, 81447, Note_off_c, 0, 56, 63
1, 81466, Note_off_c, 0, 54, 67
1, 81522, Note_on_c, 0, 53, 71
1, 81554, Control_c, 0, 64, 103
1, 81565, Note_on_c, 0, 74, 73
1, 81569, Control_c, 0, 64, 75
1, 81576, Note_on_c, 0, 62, 56
1, 81584, Control_c, 0, 64, 47
1, 81599, Control_c, 0, 64, 0
1, 81601, Note_on_c, 0, 51, 54
1, 81608, Note_off_c, 0, 53, 53
1, 81614, Control_c, 0, 64, 54
1, 81628, Control_c, 0, 64, 70
1, 81643, Control_c, 0, 64, 91
1, 81657, Note_on_c, 0, 50, 75
1, 81658, Note_off_c, 0, 51, 61
1, 81658, Control_c, 0, 64, 127
1, 81663, Note_off_c, 0, 62, 54
1, 81691, Note_off_c, 0, 50, 69
1, 81712, Note_off_c, 0, 68, 62
1, 81723, Note_off_c, 0, 71, 43
1, 81728, Note_off_c, 0, 74, 62
1, 81772, Note_on_c, 0, 47, 54
1, 81860, Note_on_c, 0, 46, 59
1, 81883, Note_off_c, 0, 47, 36
1, 81913, Note_off_c, 0, 46, 60
1, 81928, Note_on_c, 0, 44, 59
1, 81987, Note_off_c, 0, 44, 54
1, 81990, Note_on_c, 0, 42, 64
1, 82025, Note_off_c, 0, 42, 61
1, 82080, Note_on_c, 0, 41, 51
1, 82113, Note_off_c, 0, 41, 61
1, 82257, Note_on_c, 0, 79, 90
1, 82258, Note_on_c, 0, 34, 68
1, 82278, Note_on_c, 0, 67, 72
1, 82280, Note_on_c, 0, 75, 66
1, 82287, Control_c, 0, 64, 88
1, 82302, Control_c, 0, 64, 65
1, 82317, Control_c, 0, 64, 0
1, 82363, Control_c, 0, 64, 33
1, 82377, Control_c, 0, 64, 61
1, 82389, Note_off_c, 0, 34, 59
1, 82392, Control_c, 0, 64, 72
1, 82407, Control_c, 0, 64, 87
1, 82422, Control_c, 0, 64, 110
1, 82423, Note_on_c, 0, 46, 61
1, 82437, Control_c, 0, 64, 127
1, 82459, Note_off_c, 0, 46, 64
1, 82533, Note_on_c, 0, 51, 57
1, 82587, Note_off_c, 0, 51, 55
1, 82618, Note_on_c, 0, 53, 46
1, 82646, Note_off_c, 0, 53, 58
1, 82673, Note_on_c, 0, 55, 62
1, 82735, Note_off_c, 0, 55, 58
1, 82748, Note_on_c, 0, 53, 38
1, 82774, Note_off_c, 0, 53, 59
1, 82791, Note_on_c, 0, 51, 51
1, 82816, Note_off_c, 0, 51, 59
1, 82882, Note_on_c, 0, 46, 55
1, 82917, Note_off_c, 0, 46, 65
1, 82944, Note_on_c, 0, 34, 69
1, 82948, Control_c, 0, 64, 96
1, 82963, Control_c, 0, 64, 77
1, 82978, Control_c, 0, 64, 68
1, 82983, Note_off_c, 0, 34, 61
1, 82992, Control_c, 0, 64, 71
1, 83007, Control_c, 0, 64, 84
1, 83016, Note_on_c, 0, 46, 59
1, 83022, Control_c, 0, 64, 127
1, 83046, Note_off_c, 0, 46, 66
1, 83109, Note_on_c, 0, 51, 67
1, 83154, Note_off_c, 0, 51, 58
1, 83180, Note_on_c, 0, 53, 63
1, 83214, Note_off_c, 0, 53, 63
1, 83243, Note_on_c, 0, 55, 57
1, 83287, Note_off_c, 0, 55, 60
1, 83323, Note_on_c, 0, 51, 62
1, 83361, Note_off_c, 0, 51, 65
1, 83377, Note_off_c, 0, 75, 49
1, 83428, Note_off_c, 0, 79, 51
1, 83460, Note_on_c, 0, 46, 40
1, 83463, Note_off_c, 0, 67, 47
1, 83492, Note_off_c, 0, 46, 64
1, 83619, Note_on_c, 0, 35, 61
1, 83636, Control_c, 0, 64, 94
1, 83651, Control_c, 0, 64, 72
1, 83652, Note_on_c, 0, 79, 84
1, 83666, Control_c, 0, 64, 48
1, 83681, Note_on_c, 0, 74, 51
1, 83681, Control_c, 0, 64, 0
1, 83695, Control_c, 0, 64, 43
1, 83702, Note_on_c, 0, 67, 32
1, 83710, Note_off_c, 0, 35, 63
1, 83710, Control_c, 0, 64, 65
1, 83725, Control_c, 0, 64, 80
1, 83734, Note_on_c, 0, 47, 61
1, 83740, Control_c, 0, 64, 98
1, 83755, Control_c, 0, 64, 127
1, 83764, Note_off_c, 0, 47, 66
1, 83783, Note_off_c, 0, 67, 0
1, 83783, Note_on_c, 0, 67, 3
1, 83859, Note_on_c, 0, 50, 57
1, 83904, Note_off_c, 0, 50, 65
1, 83923, Note_on_c, 0, 55, 62
1, 83964, Note_off_c, 0, 55, 56
1, 84000, Note_on_c, 0, 62, 60
1, 84038, Note_off_c, 0, 62, 63
1, 84092, Note_on_c, 0, 50, 54
1, 84124, Note_off_c, 0, 50, 61
1, 84189, Note_on_c, 0, 47, 55
1, 84229, Note_off_c, 0, 47, 56
1, 84272, Note_on_c, 0, 35, 66
1, 84303, Note_off_c, 0, 35, 64
1, 84321, Note_on_c, 0, 47, 74
1, 84352, Note_off_c, 0, 47, 65
1, 84444, Note_on_c, 0, 50, 69
1, 84445, Note_off_c, 0, 79, 56
1, 84480, Note_off_c, 0, 50, 65
1, 84503, Note_on_c, 0, 55, 56
1, 84594, Note_on_c, 0, 62, 41
1, 84628, Note_off_c, 0, 62, 52
1, 84686, Note_on_c, 0, 50, 64
1, 84694, Note_off_c, 0, 55, 55
1, 84724, Note_off_c, 0, 50, 68
1, 84810, Note_on_c, 0, 77, 86
1, 84872, Note_on_c, 0, 47, 20
1, 84886, Note_off_c, 0, 67, 41
1, 84914, Note_off_c, 0, 47, 49
1, 85008, Note_off_c, 0, 77, 53
1, 85043, Note_on_c, 0, 36, 50
1, 85120, Note_on_c, 0, 77, 74
1, 85126, Note_off_c, 0, 74, 66
1, 85149, Control_c, 0, 64, 101
1, 85159, Note_on_c, 0, 72, 41
1, 85164, Control_c, 0, 64, 77
1, 85178, Control_c, 0, 64, 57
1, 85184, Note_on_c, 0, 67, 41
1, 85193, Control_c, 0, 64, 0
1, 85223, Control_c, 0, 64, 43
1, 85233, Note_off_c, 0, 72, 0
1, 85233, Note_on_c, 0, 72, 3
1, 85238, Control_c, 0, 64, 65
1, 85252, Control_c, 0, 64, 79
1, 85267, Control_c, 0, 64, 100
1, 85269, Note_off_c, 0, 36, 48
1, 85282, Control_c, 0, 64, 127
1, 85287, Note_on_c, 0, 43, 53
1, 85318, Note_off_c, 0, 43, 58
1, 85337, Note_on_c, 0, 48, 58
1, 85364, Note_off_c, 0, 48, 62
1, 85443, Note_on_c, 0, 50, 59
1, 85504, Note_off_c, 0, 50, 65
1, 85510, Note_on_c, 0, 51, 64
1, 85563, Note_off_c, 0, 51, 60
1, 85587, Note_on_c, 0, 55, 53
1, 85618, Note_off_c, 0, 55, 58
1, 85639, Note_on_c, 0, 60, 69
1, 85672, Note_off_c, 0, 60, 64
1, 85740, Note_on_c, 0, 62, 34
1, 85753, Note_on_c, 0, 63, 66
1, 85776, Note_on_c, 0, 75, 71
1, 85776, Note_off_c, 0, 62, 52
1, 85780, Control_c, 0, 64, 103
1, 85785, Note_off_c, 0, 77, 57
1, 85795, Control_c, 0, 64, 80
1, 85809, Control_c, 0, 64, 67
1, 85824, Control_c, 0, 64, 66
1, 85826, Note_off_c, 0, 63, 59
1, 85839, Control_c, 0, 64, 72
1, 85846, Note_on_c, 0, 62, 61
1, 85854, Control_c, 0, 64, 87
1, 85869, Control_c, 0, 64, 127
1, 85871, Note_off_c, 0, 62, 64
1, 85912, Note_off_c, 0, 72, 41
1, 85928, Note_on_c, 0, 60, 64
1, 85955, Note_off_c, 0, 67, 41
1, 85971, Note_off_c, 0, 60, 57
1, 86012, Note_on_c, 0, 55, 59
1, 86075, Note_off_c, 0, 55, 60
1, 86089, Note_on_c, 0, 51, 56
1, 86118, Note_off_c, 0, 75, 50
1, 86151, Note_on_c, 0, 50, 61
1, 86153, Note_off_c, 0, 51, 62
1, 86180, Note_off_c, 0, 50, 67
1, 86235, Note_on_c, 0, 48, 60
1, 86274, Note_off_c, 0, 48, 62
1, 86299, Note_on_c, 0, 43, 69
1, 86334, Note_off_c, 0, 43, 62
1, 86366, Note_on_c, 0, 65, 55
1, 86393, Note_on_c, 0, 68, 64
1, 86509, Note_on_c, 0, 29, 63
1, 86588, Control_c, 0, 64, 110
1, 86593, Note_on_c, 0, 75, 79
1, 86603, Control_c, 0, 64, 82
1, 86618, Control_c, 0, 64, 62
1, 86632, Control_c, 0, 64, 0
1, 86662, Control_c, 0, 64, 49
1, 86677, Control_c, 0, 64, 66
1, 86692, Control_c, 0, 64, 81
1, 86706, Control_c, 0, 64, 106
1, 86719, Note_on_c, 0, 37, 58
1, 86721, Control_c, 0, 64, 127
1, 86749, Note_off_c, 0, 29, 52
1, 86800, Note_off_c, 0, 37, 59
1, 86809, Note_on_c, 0, 41, 60
1, 86831, Note_off_c, 0, 75, 57
1, 86841, Note_off_c, 0, 41, 62
1, 86860, Note_on_c, 0, 77, 73
1, 86939, Note_on_c, 0, 75, 84
1, 86942, Note_off_c, 0, 77, 62
1, 86948, Note_on_c, 0, 43, 50
1, 86950, Note_on_c, 0, 41, 39
1, 87007, Note_off_c, 0, 41, 51
1, 87019, Note_on_c, 0, 73, 93
1, 87031, Note_on_c, 0, 44, 58
1, 87031, Note_off_c, 0, 75, 59
1, 87043, Note_off_c, 0, 43, 37
1, 87118, Note_off_c, 0, 44, 58
1, 87125, Note_on_c, 0, 49, 70
1, 87175, Note_off_c, 0, 49, 59
1, 87186, Note_on_c, 0, 53, 72
1, 87233, Note_off_c, 0, 53, 58
1, 87287, Note_on_c, 0, 75, 81
1, 87296, Note_off_c, 0, 68, 50
1, 87297, Note_off_c, 0, 73, 62
1, 87304, Note_on_c, 0, 55, 50
1, 87338, Note_off_c, 0, 55, 63
1, 87356, Note_on_c, 0, 56, 61
1, 87395, Note_off_c, 0, 75, 64
1, 87395, Control_c, 0, 64, 99
1, 87401, Note_on_c, 0, 77, 81
1, 87410, Control_c, 0, 64, 76
1, 87425, Control_c, 0, 64, 54
1, 87437, Note_on_c, 0, 55, 57
1, 87439, Note_off_c, 0, 56, 59
1, 87440, Control_c, 0, 64, 0
1, 87484, Control_c, 0, 64, 57
1, 87492, Note_off_c, 0, 55, 61
1, 87499, Control_c, 0, 64, 69
1, 87514, Control_c, 0, 64, 83
1, 87529, Control_c, 0, 64, 100
1, 87544, Control_c, 0, 64, 118
1, 87556, Note_on_c, 0, 53, 59
1, 87559, Control_c, 0, 64, 127
1, 87588, Note_off_c, 0, 77, 61
1, 87642, Note_off_c, 0, 53, 60
1, 87667, Note_on_c, 0, 49, 55
1, 87777, Note_off_c, 0, 49, 58
1, 87779, Note_off_c, 0, 65, 50
1, 87782, Note_on_c, 0, 68, 74
1, 87797, Note_on_c, 0, 44, 54
1, 87829, Note_off_c, 0, 44, 62
1, 87848, Note_off_c, 0, 68, 62
1, 87921, Note_on_c, 0, 41, 49
1, 87991, Note_off_c, 0, 41, 54
1, 88035, Note_on_c, 0, 37, 36
1, 88097, Note_on_c, 0, 32, 53
1, 88159, Note_off_c, 0, 37, 28
1, 88279, Note_off_c, 0, 32, 30
1, 88340, Note_on_c, 0, 72, 71
1, 88349, Note_on_c, 0, 31, 52
1, 88367, Control_c, 0, 64, 112
1, 88375, Note_on_c, 0, 63, 46
1, 88381, Control_c, 0, 64, 86
1, 88396, Control_c, 0, 64, 67
1, 88411, Control_c, 0, 64, 0
1, 88434, Note_off_c, 0, 63, 0
1, 88434, Note_on_c, 0, 63, 15
1, 88485, Control_c, 0, 64, 39
1, 88500, Control_c, 0, 64, 60
1, 88515, Control_c, 0, 64, 68
1, 88529, Control_c, 0, 64, 79
1, 88544, Control_c, 0, 64, 89
1, 88559, Control_c, 0, 64, 96
1, 88559, Control_c, 0, 67, 10
1, 88562, Note_off_c, 0, 31, 54
1, 88574, Control_c, 0, 64, 99
1, 88574, Control_c, 0, 67, 14
1, 88589, Control_c, 0, 64, 103
1, 88589, Control_c, 0, 67, 23
1, 88611, Control_c, 0, 64, 109
1, 88611, Control_c, 0, 67, 36
1, 88626, Control_c, 0, 64, 119
1, 88626, Control_c, 0, 67, 53
1, 88641, Control_c, 0, 64, 127
1, 88641, Control_c, 0, 67, 72
1, 88655, Control_c, 0, 67, 93
1, 88670, Control_c, 0, 67, 110
1, 88685, Control_c, 0, 67, 127
1, 88700, Control_c, 0, 67, 127
1, 88760, Note_on_c, 0, 40, 39
1, 88833, Note_off_c, 0, 40, 56
1, 88857, Note_on_c, 0, 39, 46
1, 88903, Note_off_c, 0, 39, 61
1, 88942, Note_on_c, 0, 41, 51
1, 89004, Note_off_c, 0, 41, 59
1, 89018, Note_on_c, 0, 40, 43
1, 89061, Note_on_c, 0, 42, 54
1, 89071, Note_off_c, 0, 40, 53
1, 89114, Note_off_c, 0, 42, 58
1, 89124, Note_on_c, 0, 41, 54
1, 89164, Note_off_c, 0, 41, 62
1, 89198, Note_on_c, 0, 43, 64
1, 89267, Note_on_c, 0, 42, 52
1, 89270, Note_off_c, 0, 43, 53
1, 89309, Note_off_c, 0, 42, 62
1, 89314, Note_on_c, 0, 44, 63
1, 89377, Note_off_c, 0, 44, 49
1, 89398, Note_on_c, 0, 43, 76
1, 89444, Note_off_c, 0, 43, 62
1, 89454, Note_on_c, 0, 45, 68
1, 89513, Note_on_c, 0, 44, 68
1, 89523, Note_off_c, 0, 45, 62
1, 89524, Control_c, 0, 67, 122
1, 89539, Control_c, 0, 67, 114
1, 89554, Control_c, 0, 67, 103
1, 89568, Control_c, 0, 67, 91
1, 89576, Note_on_c, 0, 46, 73
1, 89577, Note_off_c, 0, 44, 59
1, 89583, Control_c, 0, 67, 77
1, 89598, Control_c, 0, 67, 62
1, 89613, Control_c, 0, 67, 48
1, 89628, Control_c, 0, 67, 37
1, 89633, Note_on_c, 0, 45, 68
1, 89639, Note_off_c, 0, 46, 61
1, 89642, Control_c, 0, 67, 27
1, 89657, Control_c, 0, 67, 18
1, 89672, Control_c, 0, 64, 102
1, 89672, Control_c, 0, 67, 12
1, 89687, Control_c, 0, 64, 82
1, 89687, Control_c, 0, 67, 0
1, 89694, Note_off_c, 0, 45, 62
1, 89701, Note_on_c, 0, 47, 65
1, 89702, Control_c, 0, 64, 70
1, 89717, Control_c, 0, 64, 68
1, 89732, Control_c, 0, 64, 72
1, 89742, Note_off_c, 0, 47, 60
1, 89747, Control_c, 0, 64, 84
1, 89760, Note_on_c, 0, 46, 71
1, 89762, Control_c, 0, 64, 102
1, 89776, Control_c, 0, 64, 127
1, 89821, Note_off_c, 0, 46, 63
1, 89835, Note_on_c, 0, 48, 76
1, 89896, Note_off_c, 0, 48, 61
1, 89896, Note_on_c, 0, 47, 67
1, 89941, Note_on_c, 0, 49, 71
1, 89966, Note_off_c, 0, 47, 56
1, 89993, Note_on_c, 0, 48, 77
1, 90002, Note_off_c, 0, 49, 62
1, 90050, Note_off_c, 0, 48, 61
1, 90057, Note_on_c, 0, 50, 81
1, 90094, Control_c, 0, 64, 121
1, 90109, Control_c, 0, 64, 88
1, 90124, Control_c, 0, 64, 71
1, 90126, Note_on_c, 0, 49, 73
1, 90138, Note_off_c, 0, 50, 59
1, 90139, Control_c, 0, 64, 62
1, 90154, Control_c, 0, 64, 65
1, 90168, Control_c, 0, 64, 76
1, 90183, Control_c, 0, 64, 97
1, 90186, Note_off_c, 0, 49, 63
1, 90187, Note_on_c, 0, 51, 76
1, 90198, Control_c, 0, 64, 127
1, 90242, Note_off_c, 0, 51, 63
1, 90242, Note_on_c, 0, 50, 73
1, 90310, Note_on_c, 0, 52, 79
1, 90316, Note_off_c, 0, 50, 65
1, 90340, Note_off_c, 0, 63, 46
1, 90347, Note_off_c, 0, 72, 59
1, 90372, Note_on_c, 0, 51, 81
1, 90373, Note_off_c, 0, 52, 60
1, 90434, Note_off_c, 0, 51, 63
1, 90455, Note_on_c, 0, 53, 79
1, 90511, Note_on_c, 0, 52, 69
1, 90518, Note_off_c, 0, 53, 63
1, 90568, Note_on_c, 0, 54, 78
1, 90583, Note_off_c, 0, 52, 60
1, 90647, Note_on_c, 0, 72, 90
1, 90654, Note_on_c, 0, 53, 68
1, 90659, Control_c, 0, 64, 83
1, 90668, Note_off_c, 0, 54, 58
1, 90673, Control_c, 0, 64, 53
1, 90674, Note_on_c, 0, 62, 62
1, 90685, Note_on_c, 0, 65, 51
1, 90688, Control_c, 0, 64, 0
1, 90723, Note_off_c, 0, 53, 65
1, 90732, Control_c, 0, 64, 54
1, 90736, Note_on_c, 0, 55, 67
1, 90747, Control_c, 0, 64, 71
1, 90762, Control_c, 0, 64, 85
1, 90777, Control_c, 0, 64, 100
1, 90791, Control_c, 0, 64, 103
1, 90806, Control_c, 0, 64, 104
1, 90821, Control_c, 0, 64, 106
1, 90829, Note_off_c, 0, 55, 61
1, 90832, Note_on_c, 0, 54, 65
1, 90843, Control_c, 0, 64, 110
1, 90858, Control_c, 0, 64, 117
1, 90873, Control_c, 0, 64, 127
1, 90900, Note_off_c, 0, 54, 60
1, 90915, Note_on_c, 0, 56, 64
1, 90955, Note_off_c, 0, 56, 62
1, 90973, Note_on_c, 0, 55, 63
1, 91040, Note_on_c, 0, 58, 76
1, 91040, Note_off_c, 0, 55, 60
1, 91049, Control_c, 0, 64, 107
1, 91064, Control_c, 0, 64, 94
1, 91079, Control_c, 0, 64, 91
1, 91085, Note_off_c, 0, 72, 62
1, 91094, Control_c, 0, 64, 93
1, 91097, Note_on_c, 0, 71, 75
1, 91106, Note_off_c, 0, 58, 63
1, 91109, Control_c, 0, 64, 100
1, 91112, Note_on_c, 0, 56, 69
1, 91125, Control_c, 0, 64, 107
1, 91140, Control_c, 0, 64, 110
1, 91142, Note_off_c, 0, 56, 64
1, 91169, Control_c, 0, 64, 108
1, 91184, Control_c, 0, 64, 106
1, 91195, Note_on_c, 0, 55, 67
1, 91199, Control_c, 0, 64, 102
1, 91214, Control_c, 0, 64, 95
1, 91228, Control_c, 0, 64, 84
1, 91239, Note_on_c, 0, 74, 71
1, 91243, Control_c, 0, 64, 72
1, 91249, Note_off_c, 0, 71, 57
1, 91256, Note_on_c, 0, 53, 69
1, 91258, Note_off_c, 0, 55, 58
1, 91258, Control_c, 0, 64, 55
1, 91273, Control_c, 0, 64, 0
1, 91318, Control_c, 0, 64, 50
1, 91324, Note_off_c, 0, 53, 65
1, 91330, Note_on_c, 0, 51, 68
1, 91333, Control_c, 0, 64, 66
1, 91347, Control_c, 0, 64, 78
1, 91362, Control_c, 0, 64, 89
1, 91377, Control_c, 0, 64, 94
1, 91402, Note_off_c, 0, 51, 60
1, 91407, Note_on_c, 0, 50, 71
1, 91407, Control_c, 0, 64, 93
1, 91421, Control_c, 0, 64, 92
1, 91436, Control_c, 0, 64, 90
1, 91451, Control_c, 0, 64, 86
1, 91465, Control_c, 0, 64, 80
1, 91467, Note_off_c, 0, 50, 64
1, 91472, Note_on_c, 0, 53, 66
1, 91480, Control_c, 0, 64, 70
1, 91480, Control_c, 0, 67, 9
1, 91495, Control_c, 0, 64, 64
1, 91495, Control_c, 0, 67, 11
1, 91510, Control_c, 0, 64, 58
1, 91510, Control_c, 0, 67, 15
1, 91525, Control_c, 0, 64, 53
1, 91525, Control_c, 0, 67, 20
1, 91530, Note_off_c, 0, 53, 66
1, 91539, Control_c, 0, 64, 43
1, 91539, Control_c, 0, 67, 27
1, 91554, Control_c, 0, 64, 24
1, 91554, Control_c, 0, 67, 34
1, 91560, Note_on_c, 0, 55, 70
1, 91569, Control_c, 0, 64, 0
1, 91569, Control_c, 0, 67, 42
1, 91592, Control_c, 0, 67, 51
1, 91607, Control_c, 0, 67, 61
1, 91621, Control_c, 0, 67, 70
1, 91636, Control_c, 0, 64, 45
1, 91636, Control_c, 0, 67, 79
1, 91641, Note_off_c, 0, 55, 61
1, 91643, Note_on_c, 0, 53, 68
1, 91651, Control_c, 0, 64, 61
1, 91651, Control_c, 0, 67, 91
1, 91665, Control_c, 0, 64, 69
1, 91665, Control_c, 0, 67, 103
1, 91680, Control_c, 0, 64, 79
1, 91680, Control_c, 0, 67, 115
1, 91684, Note_off_c, 0, 53, 65
1, 91695, Control_c, 0, 64, 85
1, 91695, Control_c, 0, 67, 126
1, 91696, Note_on_c, 0, 51, 65
1, 91710, Control_c, 0, 64, 87
1, 91710, Control_c, 0, 67, 127
1, 91729, Note_off_c, 0, 51, 64
1, 91774, Note_on_c, 0, 50, 75
1, 91784, Control_c, 0, 64, 86
1, 91786, Note_off_c, 0, 62, 40
1, 91799, Control_c, 0, 64, 85
1, 91809, Note_off_c, 0, 74, 38
1, 91813, Control_c, 0, 64, 85
1, 91815, Note_off_c, 0, 65, 39
1, 91828, Note_off_c, 0, 50, 61
1, 91828, Control_c, 0, 64, 84
1, 91836, Note_on_c, 0, 48, 65
1, 91843, Control_c, 0, 64, 83
1, 91858, Control_c, 0, 64, 80
1, 91872, Control_c, 0, 64, 76
1, 91887, Control_c, 0, 64, 72
1, 91900, Note_off_c, 0, 48, 63
1, 91901, Note_on_c, 0, 47, 69
1, 91902, Control_c, 0, 64, 67
1, 91918, Control_c, 0, 64, 63
1, 91933, Control_c, 0, 64, 58
1, 91948, Control_c, 0, 64, 50
1, 91956, Note_off_c, 0, 47, 55
1, 91962, Control_c, 0, 64, 37
1, 91973, Note_on_c, 0, 50, 72
1, 91977, Control_c, 0, 64, 28
1, 91992, Control_c, 0, 64, 21
1, 92007, Control_c, 0, 64, 0
1, 92035, Note_on_c, 0, 48, 70
1, 92038, Note_off_c, 0, 50, 67
1, 92096, Note_off_c, 0, 48, 62
1, 92099, Note_on_c, 0, 47, 62
1, 92142, Note_off_c, 0, 47, 64
1, 92152, Note_on_c, 0, 44, 67
1, 92203, Note_off_c, 0, 44, 60
1, 92215, Control_c, 0, 64, 55
1, 92230, Control_c, 0, 64, 69
1, 92241, Note_on_c, 0, 43, 78
1, 92244, Control_c, 0, 64, 82
1, 92259, Control_c, 0, 64, 90
1, 92274, Control_c, 0, 64, 91
1, 92303, Note_off_c, 0, 43, 62
1, 92306, Note_on_c, 0, 42, 68
1, 92367, Note_off_c, 0, 42, 57
1, 92370, Control_c, 0, 64, 91
1, 92380, Note_on_c, 0, 43, 77
1, 92385, Control_c, 0, 64, 90
1, 92400, Control_c, 0, 64, 89
1, 92415, Control_c, 0, 64, 88
1, 92429, Note_off_c, 0, 43, 56
1, 92429, Control_c, 0, 64, 86
1, 92432, Note_on_c, 0, 44, 66
1, 92444, Control_c, 0, 64, 83
1, 92459, Control_c, 0, 64, 76
1, 92474, Control_c, 0, 64, 69
1, 92489, Control_c, 0, 64, 60
1, 92492, Note_off_c, 0, 44, 59
1, 92496, Note_on_c, 0, 41, 70
1, 92504, Control_c, 0, 64, 39
1, 92519, Control_c, 0, 64, 0
1, 92540, Note_off_c, 0, 41, 63
1, 92581, Note_on_c, 0, 43, 72
1, 92656, Note_on_c, 0, 39, 52
1, 92656, Note_off_c, 0, 43, 60
1, 92710, Note_off_c, 0, 39, 63
1, 92718, Note_on_c, 0, 41, 62
1, 92781, Note_off_c, 0, 41, 53
1, 92799, Note_on_c, 0, 38, 48
1, 92866, Note_off_c, 0, 38, 59
1, 92868, Note_on_c, 0, 39, 55
1, 93035, Note_off_c, 0, 39, 55
1, 93100, Note_on_c, 0, 36, 35
1, 93128, Note_on_c, 0, 72, 75
1, 93156, Note_on_c, 0, 60, 50
1, 93164, Control_c, 0, 67, 119
1, 93179, Control_c, 0, 64, 53
1, 93179, Control_c, 0, 67, 100
1, 93193, Control_c, 0, 64, 67
1, 93193, Control_c, 0, 67, 77
1, 93208, Control_c, 0, 64, 77
1, 93208, Control_c, 0, 67, 54
1, 93213, Note_off_c, 0, 36, 55
1, 93223, Control_c, 0, 64, 86
1, 93223, Control_c, 0, 67, 33
1, 93238, Control_c, 0, 64, 91
1, 93238, Control_c, 0, 67, 17
1, 93253, Control_c, 0, 64, 94
1, 93253, Control_c, 0, 67, 10
1, 93267, Control_c, 0, 64, 101
1, 93267, Control_c, 0, 67, 0
1, 93282, Control_c, 0, 64, 120
1, 93297, Control_c, 0, 64, 127
1, 93312, Control_c, 0, 67, 9
1, 93327, Control_c, 0, 67, 14
1, 93342, Control_c, 0, 67, 19
1, 93343, Note_off_c, 0, 60, 52
1, 93357, Control_c, 0, 67, 27
1, 93371, Control_c, 0, 67, 39
1, 93386, Control_c, 0, 67, 51
1, 93401, Control_c, 0, 67, 63
1, 93416, Control_c, 0, 67, 78
1, 93431, Control_c, 0, 67, 94
1, 93445, Control_c, 0, 67, 113
1, 93460, Control_c, 0, 67, 127
1, 93559, Note_on_c, 0, 61, 46
1, 93603, Note_off_c, 0, 61, 63
1, 93643, Note_on_c, 0, 60, 46
1, 93677, Note_off_c, 0, 60, 57
1, 93708, Note_on_c, 0, 58, 56
1, 93763, Note_off_c, 0, 58, 53
1, 93779, Note_on_c, 0, 55, 50
1, 93842, Note_off_c, 0, 55, 59
1, 93855, Note_on_c, 0, 56, 48
1, 93882, Note_off_c, 0, 56, 56
1, 93923, Note_on_c, 0, 55, 57
1, 93965, Note_off_c, 0, 55, 58
1, 93986, Note_on_c, 0, 52, 64
1, 94033, Note_off_c, 0, 52, 60
1, 94047, Note_on_c, 0, 48, 55
1, 94111, Note_off_c, 0, 48, 61
1, 94118, Note_on_c, 0, 49, 60
1, 94146, Note_off_c, 0, 49, 62
1, 94253, Note_on_c, 0, 46, 54
1, 94304, Note_on_c, 0, 43, 60
1, 94306, Note_off_c, 0, 46, 59
1, 94361, Note_on_c, 0, 44, 55
1, 94363, Note_off_c, 0, 43, 60
1, 94400, Note_off_c, 0, 44, 62
1, 94451, Note_on_c, 0, 43, 54
1, 94510, Note_off_c, 0, 43, 54
1, 94540, Note_on_c, 0, 41, 50
1, 94613, Note_on_c, 0, 65, 58
1, 94617, Note_on_c, 0, 68, 48
1, 94617, Control_c, 0, 64, 102
1, 94628, Note_off_c, 0, 41, 54
1, 94632, Control_c, 0, 64, 77
1, 94647, Control_c, 0, 64, 47
1, 94662, Control_c, 0, 64, 0
1, 94662, Note_on_c, 0, 36, 46
1, 94706, Control_c, 0, 64, 56
1, 94721, Control_c, 0, 64, 68
1, 94726, Note_off_c, 0, 36, 57
1, 94736, Control_c, 0, 64, 79
1, 94749, Note_on_c, 0, 41, 45
1, 94751, Control_c, 0, 64, 93
1, 94765, Control_c, 0, 64, 105
1, 94780, Control_c, 0, 64, 112
1, 94786, Note_off_c, 0, 41, 59
1, 94795, Control_c, 0, 64, 118
1, 94810, Control_c, 0, 64, 127
1, 94832, Note_on_c, 0, 36, 51
1, 94882, Note_off_c, 0, 36, 56
1, 94886, Note_on_c, 0, 41, 52
1, 94936, Note_off_c, 0, 41, 59
1, 94986, Note_on_c, 0, 36, 45
1, 95025, Note_off_c, 0, 36, 60
1, 95052, Note_on_c, 0, 41, 51
1, 95098, Note_off_c, 0, 41, 59
1, 95124, Note_on_c, 0, 36, 47
1, 95184, Note_off_c, 0, 36, 50
1, 95226, Note_on_c, 0, 41, 43
1, 95235, Note_on_c, 0, 74, 74
1, 95247, Note_off_c, 0, 72, 61
1, 95288, Note_off_c, 0, 41, 55
1, 95320, Note_on_c, 0, 36, 46
1, 95384, Note_off_c, 0, 36, 57
1, 95427, Note_on_c, 0, 41, 43
1, 95458, Note_off_c, 0, 41, 56
1, 95512, Note_on_c, 0, 36, 43
1, 95558, Note_off_c, 0, 36, 54
1, 95600, Note_on_c, 0, 41, 32
1, 95638, Note_off_c, 0, 41, 51
1, 95643, Note_off_c, 0, 68, 36
1, 95686, Note_on_c, 0, 36, 45
1, 95740, Note_off_c, 0, 36, 56
1, 95741, Note_off_c, 0, 65, 34
1, 95761, Note_on_c, 0, 41, 34
1, 95803, Note_off_c, 0, 41, 51
1, 95834, Note_on_c, 0, 36, 47
1, 95892, Note_off_c, 0, 36, 51
1, 96017, Note_on_c, 0, 76, 76
1, 96026, Note_off_c, 0, 74, 60
1, 96030, Note_on_c, 0, 48, 50
1, 96033, Control_c, 0, 64, 99
1, 96048, Control_c, 0, 64, 77
1, 96063, Control_c, 0, 64, 57
1, 96066, Note_on_c, 0, 67, 33
1, 96085, Control_c, 0, 64, 0
1, 96099, Note_on_c, 0, 64, 25
1, 96130, Control_c, 0, 64, 25
1, 96144, Control_c, 0, 64, 61
1, 96159, Control_c, 0, 64, 72
1, 96174, Control_c, 0, 64, 86
1, 96189, Control_c, 0, 64, 101
1, 96198, Note_off_c, 0, 48, 63
1, 96204, Control_c, 0, 64, 114
1, 96218, Control_c, 0, 64, 127
1, 96405, Note_on_c, 0, 61, 45
1, 96451, Note_off_c, 0, 61, 62
1, 96494, Note_on_c, 0, 60, 50
1, 96552, Note_off_c, 0, 60, 54
1, 96584, Note_on_c, 0, 58, 51
1, 96632, Note_off_c, 0, 58, 57
1, 96647, Note_on_c, 0, 55, 51
1, 96707, Note_off_c, 0, 55, 57
1, 96719, Note_on_c, 0, 56, 52
1, 96745, Note_off_c, 0, 56, 62
1, 96811, Note_on_c, 0, 55, 40
1, 96844, Note_off_c, 0, 55, 58
1, 96862, Note_on_c, 0, 52, 60
1, 96907, Note_off_c, 0, 52, 61
1, 96922, Note_on_c, 0, 48, 54
1, 96983, Note_off_c, 0, 48, 62
1, 96990, Note_on_c, 0, 49, 59
1, 97023, Note_off_c, 0, 49, 63
1, 97047, Note_off_c, 0, 76, 58
1, 97073, Note_on_c, 0, 48, 35
1, 97076, Note_off_c, 0, 64, 46
1, 97098, Note_off_c, 0, 48, 58
1, 97116, Note_on_c, 0, 46, 60
1, 97120, Note_off_c, 0, 67, 41
1, 97172, Note_off_c, 0, 46, 55
1, 97175, Note_on_c, 0, 43, 61
1, 97228, Note_off_c, 0, 43, 60
1, 97234, Note_on_c, 0, 44, 57
1, 97279, Note_off_c, 0, 44, 60
1, 97331, Note_on_c, 0, 43, 57
1, 97389, Note_off_c, 0, 43, 53
1, 97449, Note_on_c, 0, 72, 65
1, 97455, Note_on_c, 0, 41, 46
1, 97469, Note_on_c, 0, 60, 52
1, 97469, Note_on_c, 0, 68, 49
1, 97470, Control_c, 0, 64, 98
1, 97479, Note_on_c, 0, 67, 49
1, 97485, Control_c, 0, 64, 78
1, 97500, Control_c, 0, 64, 62
1, 97515, Control_c, 0, 64, 17
1, 97530, Control_c, 0, 64, 0
1, 97535, Note_off_c, 0, 41, 52
1, 97545, Control_c, 0, 64, 30
1, 97560, Control_c, 0, 64, 63
1, 97568, Note_on_c, 0, 36, 40
1, 97582, Control_c, 0, 64, 74
1, 97597, Control_c, 0, 64, 88
1, 97612, Control_c, 0, 64, 101
1, 97627, Control_c, 0, 64, 104
1, 97641, Note_off_c, 0, 36, 55
1, 97642, Control_c, 0, 64, 105
1, 97657, Control_c, 0, 64, 105
1, 97667, Note_off_c, 0, 67, 55
1, 97671, Control_c, 0, 64, 107
1, 97681, Note_on_c, 0, 41, 43
1, 97686, Control_c, 0, 64, 111
1, 97701, Control_c, 0, 64, 116
1, 97715, Control_c, 0, 64, 122
1, 97719, Note_off_c, 0, 41, 51
1, 97730, Control_c, 0, 64, 127
1, 97765, Note_on_c, 0, 36, 43
1, 97814, Note_off_c, 0, 36, 58
1, 97839, Note_on_c, 0, 41, 43
1, 97908, Note_off_c, 0, 41, 50
1, 97941, Note_on_c, 0, 36, 40
1, 97998, Note_off_c, 0, 36, 54
1, 98046, Note_on_c, 0, 41, 47
1, 98099, Note_off_c, 0, 41, 57
1, 98138, Note_on_c, 0, 36, 45
1, 98195, Note_off_c, 0, 36, 54
1, 98212, Note_on_c, 0, 65, 51
1, 98221, Note_on_c, 0, 41, 51
1, 98313, Note_off_c, 0, 41, 51
1, 98339, Note_on_c, 0, 36, 44
1, 98434, Note_off_c, 0, 36, 52
1, 98464, Note_on_c, 0, 41, 42
1, 98496, Note_off_c, 0, 68, 34
1, 98532, Note_off_c, 0, 72, 56
1, 98546, Note_off_c, 0, 41, 37
1, 98599, Note_on_c, 0, 36, 39
1, 98654, Note_off_c, 0, 36, 50
1, 98705, Note_on_c, 0, 41, 37
1, 98732, Note_on_c, 0, 74, 52
1, 98752, Note_on_c, 0, 71, 34
1, 98790, Note_off_c, 0, 41, 38
1, 98814, Note_on_c, 0, 36, 35
1, 98922, Note_off_c, 0, 36, 36
1, 98950, Note_off_c, 0, 60, 43
1, 98962, Note_on_c, 0, 41, 15
1, 98992, Note_off_c, 0, 65, 57
1, 99017, Note_off_c, 0, 71, 38
1, 99027, Note_off_c, 0, 74, 55
1, 99055, Note_off_c, 0, 41, 34
1, 99090, Note_on_c, 0, 36, 36
1, 99131, Note_off_c, 0, 36, 53
1, 99258, Control_c, 0, 67, 127
1, 99273, Control_c, 0, 67, 123
1, 99287, Control_c, 0, 67, 116
1, 99302, Control_c, 0, 67, 108
1, 99317, Control_c, 0, 67, 97
1, 99332, Control_c, 0, 67, 85
1, 99347, Control_c, 0, 67, 74
1, 99361, Control_c, 0, 67, 62
1, 99376, Control_c, 0, 67, 50
1, 99391, Control_c, 0, 67, 42
1, 99406, Control_c, 0, 67, 38
1, 99421, Control_c, 0, 67, 38
1, 99435, Control_c, 0, 67, 37
1, 99449, Note_on_c, 0, 76, 48
1, 99450, Control_c, 0, 67, 34
1, 99456, Note_on_c, 0, 48, 36
1, 99459, Note_on_c, 0, 67, 36
1, 99465, Control_c, 0, 67, 28
1, 99479, Control_c, 0, 67, 24
1, 99482, Note_on_c, 0, 64, 25
1, 99488, Note_on_c, 0, 72, 33
1, 99494, Control_c, 0, 64, 105
1, 99494, Control_c, 0, 67, 22
1, 99509, Control_c, 0, 64, 85
1, 99509, Control_c, 0, 67, 21
1, 99524, Control_c, 0, 64, 68
1, 99524, Control_c, 0, 67, 19
1, 99539, Control_c, 0, 64, 23
1, 99539, Control_c, 0, 67, 15
1, 99554, Control_c, 0, 64, 0
1, 99554, Control_c, 0, 67, 9
1, 99569, Control_c, 0, 67, 0
1, 99599, Control_c, 0, 64, 42
1, 99613, Control_c, 0, 64, 62
1, 99628, Control_c, 0, 64, 72
1, 99643, Control_c, 0, 64, 85
1, 99658, Control_c, 0, 64, 104
1, 99669, Note_off_c, 0, 64, 54
1, 99673, Control_c, 0, 64, 125
1, 99683, Note_off_c, 0, 48, 54
1, 99687, Control_c, 0, 64, 127
1, 99701, Note_off_c, 0, 72, 53
1, 99705, Note_off_c, 0, 67, 40
1, 99709, Note_off_c, 0, 76, 60
1, 99990, Note_on_c, 0, 92, 98
1, 100001, Note_on_c, 0, 80, 97
1, 100007, Control_c, 0, 64, 112
1, 100022, Control_c, 0, 64, 84
1, 100037, Control_c, 0, 64, 69
1, 100066, Control_c, 0, 64, 77
1, 100081, Control_c, 0, 64, 94
1, 100091, Note_off_c, 0, 80, 62
1, 100096, Control_c, 0, 64, 127
1, 100107, Note_off_c, 0, 92, 62
1, 100126, Note_on_c, 0, 91, 91
1, 100130, Note_on_c, 0, 79, 80
1, 100189, Note_off_c, 0, 79, 58
1, 100212, Note_off_c, 0, 91, 63
1, 100219, Note_on_c, 0, 76, 89
1, 100227, Note_on_c, 0, 88, 94
1, 100272, Note_off_c, 0, 88, 69
1, 100296, Note_on_c, 0, 84, 85
1, 100297, Note_off_c, 0, 76, 60
1, 100299, Note_on_c, 0, 72, 75
1, 100356, Note_off_c, 0, 84, 63
1, 100365, Note_off_c, 0, 72, 64
1, 100367, Note_on_c, 0, 73, 77
1, 100369, Note_on_c, 0, 85, 88
1, 100404, Note_off_c, 0, 73, 59
1, 100430, Note_on_c, 0, 84, 80
1, 100437, Note_on_c, 0, 72, 77
1, 100463, Note_off_c, 0, 85, 64
1, 100466, Control_c, 0, 64, 79
1, 100478, Note_off_c, 0, 84, 66
1, 100481, Control_c, 0, 64, 41
1, 100481, Note_on_c, 0, 70, 73
1, 100484, Note_on_c, 0, 82, 83
1, 100490, Note_off_c, 0, 72, 63
1, 100496, Control_c, 0, 64, 0
1, 100510, Control_c, 0, 64, 50
1, 100525, Control_c, 0, 64, 71
1, 100530, Note_off_c, 0, 82, 64
1, 100538, Note_on_c, 0, 79, 79
1, 100540, Note_on_c, 0, 67, 73
1, 100540, Control_c, 0, 64, 102
1, 100555, Control_c, 0, 64, 127
1, 100555, Note_off_c, 0, 70, 62
1, 100596, Note_on_c, 0, 68, 80
1, 100597, Note_off_c, 0, 67, 64
1, 100609, Note_off_c, 0, 79, 60
1, 100610, Note_on_c, 0, 80, 90
1, 100627, Note_off_c, 0, 68, 60
1, 100660, Note_on_c, 0, 79, 73
1, 100666, Note_on_c, 0, 67, 83
1, 100676, Note_off_c, 0, 80, 67
1, 100716, Note_on_c, 0, 76, 90
1, 100717, Note_off_c, 0, 79, 64
1, 100726, Note_off_c, 0, 67, 62
1, 100727, Note_on_c, 0, 64, 72
1, 100755, Note_off_c, 0, 76, 65
1, 100766, Note_on_c, 0, 60, 78
1, 100772, Note_off_c, 0, 64, 64
1, 100783, Note_on_c, 0, 72, 83
1, 100823, Note_on_c, 0, 61, 80
1, 100827, Note_off_c, 0, 60, 65
1, 100842, Note_on_c, 0, 73, 88
1, 100843, Note_off_c, 0, 72, 64
1, 100872, Note_off_c, 0, 61, 58
1, 100891, Note_on_c, 0, 72, 73
1, 100903, Note_on_c, 0, 60, 80
1, 100914, Note_off_c, 0, 73, 64
1, 100942, Note_on_c, 0, 58, 79
1, 100942, Note_off_c, 0, 72, 67
1, 100945, Note_on_c, 0, 70, 85
1, 100945, Note_off_c, 0, 60, 64
1, 100996, Note_on_c, 0, 55, 79
1, 100997, Note_off_c, 0, 70, 65
1, 101006, Note_off_c, 0, 58, 63
1, 101009, Note_on_c, 0, 67, 81
1, 101045, Note_on_c, 0, 56, 80
1, 101050, Note_off_c, 0, 55, 63
1, 101073, Note_on_c, 0, 68, 85
1, 101075, Note_off_c, 0, 56, 63
1, 101079, Note_off_c, 0, 67, 61
1, 101116, Note_on_c, 0, 67, 68
1, 101122, Note_on_c, 0, 55, 79
1, 101143, Note_off_c, 0, 68, 67
1, 101172, Note_on_c, 0, 52, 83
1, 101174, Note_off_c, 0, 67, 65
1, 101175, Note_on_c, 0, 64, 86
1, 101178, Note_off_c, 0, 55, 60
1, 101216, Note_off_c, 0, 64, 64
1, 101231, Note_on_c, 0, 48, 79
1, 101237, Note_on_c, 0, 60, 84
1, 101237, Note_off_c, 0, 52, 64
1, 101284, Note_on_c, 0, 50, 53
1, 101290, Note_off_c, 0, 48, 63
1, 101292, Note_on_c, 0, 61, 83
1, 101298, Note_off_c, 0, 60, 65
1, 101315, Note_off_c, 0, 50, 58
1, 101339, Note_on_c, 0, 60, 62
1, 101360, Note_on_c, 0, 48, 80
1, 101368, Note_off_c, 0, 61, 64
1, 101375, Note_on_c, 0, 58, 86
1, 101381, Note_off_c, 0, 60, 66
1, 101395, Note_on_c, 0, 46, 83
1, 101410, Note_off_c, 0, 48, 59
1, 101419, Note_off_c, 0, 58, 66
1, 101430, Note_on_c, 0, 43, 94
1, 101431, Note_on_c, 0, 55, 80
1, 101453, Note_off_c, 0, 46, 64
1, 101466, Note_off_c, 0, 43, 64
1, 101485, Note_on_c, 0, 56, 89
1, 101487, Note_on_c, 0, 45, 19
1, 101521, Note_on_c, 0, 43, 91
1, 101533, Note_off_c, 0, 45, 43
1, 101535, Note_off_c, 0, 56, 61
1, 101553, Note_on_c, 0, 52, 81
1, 101554, Note_off_c, 0, 55, 64
1, 101587, Note_off_c, 0, 52, 59
1, 101588, Note_on_c, 0, 39, 83
1, 101596, Note_off_c, 0, 43, 62
1, 101615, Note_on_c, 0, 48, 77
1, 101621, Note_on_c, 0, 50, 70
1, 101623, Note_on_c, 0, 37, 51
1, 101632, Note_on_c, 0, 36, 72
1, 101637, Note_on_c, 0, 38, 44
1, 101643, Note_off_c, 0, 39, 61
1, 101648, Note_off_c, 0, 37, 57
1, 101655, Note_off_c, 0, 50, 58
1, 101667, Note_off_c, 0, 36, 61
1, 101670, Note_off_c, 0, 38, 52
1, 101676, Note_on_c, 0, 49, 95
1, 101679, Note_off_c, 0, 48, 61
1, 101689, Poly_aftertouch_c, 0, 41, 0
1, 101733, Note_off_c, 0, 49, 64
1, 101752, Note_on_c, 0, 47, 73
1, 101752, Note_on_c, 0, 48, 84
1, 101781, Note_off_c, 0, 47, 65
1, 101795, Note_off_c, 0, 48, 65
1, 101840, Note_on_c, 0, 41, 116
1, 101846, Note_on_c, 0, 29, 99
1, 101847, Note_on_c, 0, 60, 93
1, 101850, Note_on_c, 0, 53, 95
1, 101850, Note_on_c, 0, 57, 96
1, 101852, Note_on_c, 0, 48, 99
1, 101859, Control_c, 0, 64, 116
1, 101873, Control_c, 0, 64, 73
1, 101888, Control_c, 0, 64, 0
1, 102022, Control_c, 0, 64, 40
1, 102037, Control_c, 0, 64, 63
1, 102052, Control_c, 0, 64, 71
1, 102073, Control_c, 0, 64, 83
1, 102088, Control_c, 0, 64, 103
1, 102103, Control_c, 0, 64, 127
1, 102314, Note_off_c, 0, 53, 61
1, 102327, Note_off_c, 0, 57, 60
1, 102336, Note_off_c, 0, 60, 60
1, 102359, Note_off_c, 0, 41, 54
1, 102377, Note_off_c, 0, 29, 59
1, 102385, Note_off_c, 0, 48, 51
1, 102472, Note_on_c, 0, 48, 100
1, 102473, Note_on_c, 0, 41, 110
1, 102474, Note_on_c, 0, 60, 99
1, 102475, Note_on_c, 0, 56, 100
1, 102475, Note_on_c, 0, 53, 98
1, 102475, Control_c, 0, 64, 76
1, 102478, Note_on_c, 0, 29, 100
1, 102490, Control_c, 0, 64, 0
1, 102499, Note_on_c, 0, 50, 55
1, 102505, Note_on_c, 0, 58, 55
1, 102510, Note_on_c, 0, 32, 48
1, 102511, Note_off_c, 0, 32, 127
1, 102533, Note_off_c, 0, 58, 54
1, 102535, Note_off_c, 0, 50, 37
1, 102535, Control_c, 0, 64, 54
1, 102550, Control_c, 0, 64, 95
1, 102565, Control_c, 0, 64, 127
1, 102637, Note_off_c, 0, 29, 61
1, 102683, Note_off_c, 0, 41, 52
1, 102840, Note_off_c, 0, 56, 61
1, 102921, Note_off_c, 0, 53, 58
1, 102943, Note_off_c, 0, 48, 54
1, 102971, Note_off_c, 0, 60, 60
1, 103150, Control_c, 0, 64, 100
1, 103165, Control_c, 0, 64, 55
1, 103173, Note_on_c, 0, 53, 97
1, 103176, Note_on_c, 0, 36, 105
1, 103176, Note_on_c, 0, 55, 93
1, 103178, Note_on_c, 0, 60, 97
1, 103180, Control_c, 0, 64, 0
1, 103182, Note_on_c, 0, 24, 104
1, 103188, Note_on_c, 0, 48, 59
1, 103189, Note_off_c, 0, 48, 127
1, 103200, Note_on_c, 0, 32, 67
1, 103209, Control_c, 0, 64, 62
1, 103220, Note_off_c, 0, 36, 64
1, 103224, Control_c, 0, 64, 127
1, 103228, Note_off_c, 0, 32, 56
1, 103229, Note_off_c, 0, 24, 63
1, 103230, Note_on_c, 0, 52, 13
1, 103231, Note_off_c, 0, 52, 127
1, 103235, Note_on_c, 0, 57, 25
1, 103235, Note_off_c, 0, 60, 64
1, 103250, Note_off_c, 0, 53, 67
1, 103253, Note_on_c, 0, 59, 1
1, 103254, Note_off_c, 0, 59, 127
1, 103277, Poly_aftertouch_c, 0, 52, 0
1, 103280, Note_off_c, 0, 57, 48
1, 103280, Poly_aftertouch_c, 0, 28, 0
1, 103283, Control_c, 0, 64, 86
1, 103298, Control_c, 0, 64, 54
1, 103312, Poly_aftertouch_c, 0, 28, 0
1, 103313, Control_c, 0, 64, 0
1, 103377, Note_off_c, 0, 55, 43
1, 103512, Note_on_c, 0, 36, 109
1, 103515, Note_on_c, 0, 24, 95
1, 103515, Note_on_c, 0, 48, 110
1, 103515, Note_on_c, 0, 56, 61
1, 103516, Note_on_c, 0, 52, 101
1, 103517, Note_on_c, 0, 60, 100
1, 103520, Note_on_c, 0, 55, 97
1, 103520, Control_c, 0, 64, 67
1, 103535, Control_c, 0, 64, 127
1, 103542, Note_on_c, 0, 25, 63
1, 103543, Note_off_c, 0, 25, 127
1, 103546, Note_off_c, 0, 36, 63
1, 103546, Note_off_c, 0, 56, 50
1, 103548, Note_on_c, 0, 57, 53
1, 103549, Note_off_c, 0, 24, 65
1, 103551, Note_on_c, 0, 32, 46
1, 103559, Note_off_c, 0, 48, 67
1, 103566, Note_off_c, 0, 60, 64
1, 103576, Note_off_c, 0, 52, 69
1, 103578, Note_off_c, 0, 55, 66
1, 103578, Note_off_c, 0, 57, 61
1, 103590, Poly_aftertouch_c, 0, 25, 0
1, 103602, Note_off_c, 0, 32, 46
1, 103615, Poly_aftertouch_c, 0, 35, 127
1, 103656, Poly_aftertouch_c, 0, 35, 0
1, 103809, Control_c, 0, 64, 82
1, 103824, Control_c, 0, 64, 0
1, 103899, End_track
0, 0, End_of_file
