0, 0, Header, 0, 1, 384
1, 0, Start_track
1, 0, Title_t, "Los Requiebros--Staupe          "
1, 0, Text_t, "2009 International Piano-e-Competition finals"
1, 0, Text_t, "captured June-July 2009"
1, 0, Text_t, "http://www.piano-e-competition.com/"
1, 0, Text_t, "standard-resolution version"
1, 0, Text_t, "File processed for distribution by software from Zenph Studios, Inc., http://www.zenph.com"
1, 0, Instrument_name_t, "Yamaha Disklavier Pro Mark IV concert grand piano, model DCFIIISM4PRO"
1, 0, Sequencer_specific, 39, 67, 113, 0, 1, 0, 1, 0, 76, 111, 115, 32, 82, 101, 113, 117, 105, 101, 98, 114, 111, 115, 32, 32, 65, 110, 100, 114, 101, 119, 32, 83, 116, 97, 117, 112, 101, 32, 32, 32
1, 0, Sequencer_specific, 6, 67, 113, 0, 0, 0, 69
1, 0, System_exclusive, 21, 67, 113, 126, 21, 0, 2, 2, 2, 3, 12, 8, 4, 10, 4, 14, 6, 1, 8, 0, 7, 247
1, 0, Sequencer_specific, 5, 67, 123, 12, 2, 1
1, 0, Tempo, 512820
1, 0, Time_signature, 4, 2, 24, 8
1, 0, System_exclusive, 5, 126, 127, 9, 1, 247
1, 1, System_exclusive, 8, 67, 16, 76, 0, 0, 126, 0, 247
1, 2, System_exclusive, 8, 67, 16, 76, 8, 9, 7, 1, 247
1, 3, Control_c, 0, 0, 0
1, 3, Control_c, 1, 0, 0
1, 3, Control_c, 2, 0, 0
1, 3, Control_c, 3, 0, 0
1, 3, Control_c, 4, 0, 0
1, 3, Control_c, 5, 0, 0
1, 3, Control_c, 6, 0, 0
1, 3, Control_c, 7, 0, 0
1, 3, Control_c, 8, 0, 0
1, 3, Control_c, 9, 0, 127
1, 3, Control_c, 10, 0, 0
1, 3, Control_c, 11, 0, 0
1, 3, Control_c, 12, 0, 0
1, 3, Control_c, 13, 0, 0
1, 3, Control_c, 14, 0, 0
1, 3, Control_c, 15, 0, 0
1, 4, Control_c, 0, 32, 0
1, 4, Control_c, 1, 32, 0
1, 4, Control_c, 2, 32, 0
1, 4, Control_c, 3, 32, 0
1, 4, Control_c, 4, 32, 0
1, 4, Control_c, 5, 32, 0
1, 4, Control_c, 6, 32, 0
1, 4, Control_c, 7, 32, 0
1, 4, Control_c, 8, 32, 0
1, 4, Control_c, 9, 32, 0
1, 4, Control_c, 10, 32, 0
1, 4, Control_c, 11, 32, 0
1, 4, Control_c, 12, 32, 0
1, 4, Control_c, 13, 32, 0
1, 4, Control_c, 14, 32, 0
1, 4, Control_c, 15, 32, 0
1, 5, Program_c, 0, 0
1, 5, Program_c, 1, 0
1, 5, Program_c, 2, 0
1, 5, Program_c, 3, 0
1, 5, Program_c, 4, 0
1, 5, Program_c, 5, 0
1, 5, Program_c, 6, 0
1, 5, Program_c, 7, 0
1, 5, Program_c, 8, 0
1, 5, Program_c, 9, 0
1, 5, Program_c, 10, 0
1, 5, Program_c, 11, 0
1, 5, Program_c, 12, 0
1, 5, Program_c, 13, 0
1, 5, Program_c, 14, 0
1, 5, Program_c, 15, 0
1, 6, Control_c, 0, 7, 100
1, 6, Control_c, 1, 7, 100
1, 6, Control_c, 2, 7, 100
1, 6, Control_c, 3, 7, 100
1, 6, Control_c, 4, 7, 100
1, 6, Control_c, 5, 7, 100
1, 6, Control_c, 6, 7, 100
1, 6, Control_c, 7, 7, 100
1, 6, Control_c, 8, 7, 100
1, 6, Control_c, 9, 7, 100
1, 6, Control_c, 10, 7, 100
1, 6, Control_c, 11, 7, 100
1, 6, Control_c, 12, 7, 100
1, 6, Control_c, 13, 7, 100
1, 6, Control_c, 14, 7, 100
1, 6, Control_c, 15, 7, 100
1, 117, Control_c, 0, 64, 15
1, 229, Control_c, 0, 64, 31
1, 341, Control_c, 0, 64, 46
1, 452, Control_c, 0, 64, 63
1, 564, Control_c, 0, 64, 77
1, 676, Control_c, 0, 64, 94
1, 787, Control_c, 0, 64, 108
1, 899, Control_c, 0, 64, 127
1, 1131, Note_on_c, 0, 34, 81
1, 1604, Note_on_c, 0, 46, 77
1, 1609, Note_off_c, 0, 34, 57
1, 1646, Note_off_c, 0, 46, 62
1, 1917, Note_on_c, 0, 58, 69
1, 1923, Note_on_c, 0, 53, 62
1, 1990, Note_off_c, 0, 53, 53
1, 2010, Note_off_c, 0, 58, 58
1, 2011, Note_on_c, 0, 60, 71
1, 2023, Note_on_c, 0, 56, 68
1, 2116, Note_off_c, 0, 56, 55
1, 2125, Note_off_c, 0, 60, 56
1, 2139, Note_on_c, 0, 58, 65
1, 2143, Note_on_c, 0, 62, 69
1, 2154, Control_c, 0, 64, 84
1, 2169, Control_c, 0, 64, 62
1, 2184, Control_c, 0, 64, 0
1, 2214, Control_c, 0, 64, 32
1, 2229, Control_c, 0, 64, 66
1, 2251, Control_c, 0, 64, 80
1, 2266, Control_c, 0, 64, 101
1, 2282, Control_c, 0, 64, 127
1, 2458, Note_off_c, 0, 62, 37
1, 2462, Note_on_c, 0, 63, 85
1, 2467, Note_on_c, 0, 60, 63
1, 2504, Control_c, 0, 64, 92
1, 2519, Control_c, 0, 64, 78
1, 2534, Control_c, 0, 64, 76
1, 2549, Control_c, 0, 64, 83
1, 2564, Control_c, 0, 64, 103
1, 2578, Control_c, 0, 64, 127
1, 2607, Note_off_c, 0, 60, 62
1, 2640, Note_off_c, 0, 58, 61
1, 2771, Note_on_c, 0, 65, 83
1, 2812, Note_off_c, 0, 63, 58
1, 2855, Note_off_c, 0, 65, 62
1, 2954, Note_on_c, 0, 46, 43
1, 3022, Note_on_c, 0, 56, 53
1, 3151, Note_on_c, 0, 67, 69
1, 3164, Note_on_c, 0, 62, 47
1, 3180, Control_c, 0, 64, 98
1, 3194, Control_c, 0, 64, 75
1, 3209, Control_c, 0, 64, 0
1, 3298, Control_c, 0, 64, 65
1, 3313, Control_c, 0, 64, 80
1, 3327, Control_c, 0, 64, 84
1, 3342, Control_c, 0, 64, 85
1, 3353, Note_on_c, 0, 68, 76
1, 3357, Control_c, 0, 64, 86
1, 3370, Note_off_c, 0, 67, 55
1, 3372, Control_c, 0, 64, 87
1, 3387, Control_c, 0, 64, 89
1, 3401, Control_c, 0, 64, 89
1, 3460, Control_c, 0, 64, 88
1, 3469, Note_on_c, 0, 70, 77
1, 3475, Control_c, 0, 64, 86
1, 3488, Note_off_c, 0, 68, 57
1, 3490, Control_c, 0, 64, 82
1, 3505, Control_c, 0, 64, 78
1, 3520, Control_c, 0, 64, 75
1, 3535, Control_c, 0, 64, 72
1, 3550, Control_c, 0, 64, 68
1, 3564, Control_c, 0, 64, 64
1, 3579, Control_c, 0, 64, 59
1, 3594, Control_c, 0, 64, 33
1, 3609, Control_c, 0, 64, 0
1, 3621, Note_on_c, 0, 72, 64
1, 3624, Note_off_c, 0, 70, 55
1, 3648, Note_off_c, 0, 62, 23
1, 3756, Note_on_c, 0, 68, 63
1, 3768, Note_off_c, 0, 72, 57
1, 3842, Note_off_c, 0, 68, 59
1, 3855, Note_on_c, 0, 65, 56
1, 3896, Note_off_c, 0, 65, 64
1, 3934, Note_on_c, 0, 62, 52
1, 3993, Note_off_c, 0, 62, 59
1, 4012, Note_on_c, 0, 63, 51
1, 4073, Note_off_c, 0, 63, 53
1, 4097, Note_on_c, 0, 65, 59
1, 4168, Note_off_c, 0, 65, 59
1, 4178, Note_on_c, 0, 67, 61
1, 4224, Control_c, 0, 67, 8
1, 4239, Control_c, 0, 67, 10
1, 4246, Note_off_c, 0, 67, 61
1, 4254, Control_c, 0, 67, 14
1, 4260, Note_on_c, 0, 68, 61
1, 4268, Control_c, 0, 67, 19
1, 4283, Control_c, 0, 67, 24
1, 4289, Note_off_c, 0, 56, 52
1, 4298, Control_c, 0, 67, 30
1, 4313, Control_c, 0, 67, 35
1, 4322, Note_off_c, 0, 68, 59
1, 4328, Control_c, 0, 67, 41
1, 4337, Note_on_c, 0, 65, 55
1, 4342, Control_c, 0, 67, 46
1, 4357, Control_c, 0, 67, 53
1, 4372, Control_c, 0, 67, 61
1, 4387, Control_c, 0, 67, 70
1, 4402, Control_c, 0, 67, 81
1, 4414, Note_off_c, 0, 65, 61
1, 4417, Control_c, 0, 67, 93
1, 4432, Control_c, 0, 67, 105
1, 4444, Note_on_c, 0, 62, 50
1, 4447, Control_c, 0, 67, 119
1, 4462, Control_c, 0, 67, 127
1, 4525, Note_off_c, 0, 62, 53
1, 4542, Note_on_c, 0, 58, 52
1, 4624, Note_off_c, 0, 58, 55
1, 4658, Note_on_c, 0, 56, 39
1, 4736, Note_off_c, 0, 46, 37
1, 4757, Note_off_c, 0, 56, 50
1, 4801, Note_on_c, 0, 53, 39
1, 4943, Control_c, 0, 64, 45
1, 4951, Note_on_c, 0, 50, 37
1, 4957, Note_off_c, 0, 53, 36
1, 4958, Control_c, 0, 64, 62
1, 4972, Control_c, 0, 64, 64
1, 4987, Control_c, 0, 64, 64
1, 5002, Control_c, 0, 64, 63
1, 5017, Control_c, 0, 64, 63
1, 5032, Control_c, 0, 64, 62
1, 5046, Control_c, 0, 64, 61
1, 5061, Control_c, 0, 64, 59
1, 5076, Control_c, 0, 64, 58
1, 5106, Control_c, 0, 64, 60
1, 5112, Note_off_c, 0, 50, 37
1, 5120, Control_c, 0, 64, 63
1, 5135, Control_c, 0, 64, 66
1, 5149, Note_on_c, 0, 46, 32
1, 5150, Control_c, 0, 64, 68
1, 5165, Control_c, 0, 64, 70
1, 5180, Control_c, 0, 64, 73
1, 5195, Control_c, 0, 64, 77
1, 5210, Control_c, 0, 64, 83
1, 5218, Note_off_c, 0, 46, 55
1, 5224, Control_c, 0, 64, 90
1, 5246, Control_c, 0, 64, 97
1, 5261, Control_c, 0, 64, 103
1, 5276, Control_c, 0, 64, 112
1, 5290, Control_c, 0, 64, 127
1, 5530, Note_on_c, 0, 39, 43
1, 5559, Control_c, 0, 64, 117
1, 5574, Control_c, 0, 64, 93
1, 5589, Control_c, 0, 64, 77
1, 5603, Control_c, 0, 64, 64
1, 5618, Control_c, 0, 64, 0
1, 5693, Control_c, 0, 64, 14
1, 5708, Control_c, 0, 64, 58
1, 5722, Control_c, 0, 64, 65
1, 5737, Control_c, 0, 64, 70
1, 5752, Control_c, 0, 64, 75
1, 5767, Control_c, 0, 64, 79
1, 5782, Control_c, 0, 64, 84
1, 5796, Control_c, 0, 64, 90
1, 5811, Control_c, 0, 64, 99
1, 5826, Control_c, 0, 64, 113
1, 5840, Control_c, 0, 64, 127
1, 6120, Note_on_c, 0, 46, 41
1, 6146, Note_off_c, 0, 39, 42
1, 6163, Note_off_c, 0, 46, 60
1, 6503, Note_on_c, 0, 55, 33
1, 6514, Note_on_c, 0, 63, 37
1, 6619, Note_off_c, 0, 55, 40
1, 6638, Note_off_c, 0, 63, 38
1, 6642, Note_on_c, 0, 67, 42
1, 6653, Note_on_c, 0, 58, 31
1, 6745, Note_off_c, 0, 58, 39
1, 6757, Note_off_c, 0, 67, 36
1, 6822, Note_on_c, 0, 70, 51
1, 6827, Note_on_c, 0, 63, 33
1, 6907, Note_off_c, 0, 70, 46
1, 6912, Note_off_c, 0, 63, 51
1, 7123, Note_on_c, 0, 67, 35
1, 7137, Note_on_c, 0, 58, 24
1, 7166, Note_off_c, 0, 67, 54
1, 7186, Note_off_c, 0, 58, 49
1, 7410, Note_on_c, 0, 63, 38
1, 7421, Note_on_c, 0, 55, 30
1, 7451, Note_off_c, 0, 63, 62
1, 7465, Note_off_c, 0, 55, 61
1, 7738, Note_on_c, 0, 39, 47
1, 7901, Note_off_c, 0, 39, 41
1, 8045, Note_on_c, 0, 46, 51
1, 8075, Note_off_c, 0, 46, 62
1, 8347, Note_on_c, 0, 55, 40
1, 8350, Note_on_c, 0, 63, 42
1, 8397, Note_off_c, 0, 55, 57
1, 8435, Note_off_c, 0, 63, 56
1, 8470, Note_on_c, 0, 67, 42
1, 8473, Note_on_c, 0, 58, 27
1, 8519, Note_off_c, 0, 58, 47
1, 8548, Note_off_c, 0, 67, 45
1, 8639, Note_on_c, 0, 70, 47
1, 8649, Note_on_c, 0, 63, 35
1, 8693, Note_off_c, 0, 70, 57
1, 8702, Control_c, 0, 67, 123
1, 8717, Control_c, 0, 67, 106
1, 8723, Note_off_c, 0, 63, 49
1, 8731, Control_c, 0, 67, 88
1, 8746, Control_c, 0, 67, 66
1, 8761, Control_c, 0, 67, 48
1, 8776, Control_c, 0, 67, 27
1, 8791, Control_c, 0, 67, 10
1, 8805, Control_c, 0, 67, 0
1, 9012, Note_on_c, 0, 58, 34
1, 9015, Note_on_c, 0, 67, 35
1, 9064, Note_on_c, 0, 77, 73
1, 9124, Note_off_c, 0, 67, 37
1, 9169, Note_off_c, 0, 58, 42
1, 9348, Note_on_c, 0, 63, 35
1, 9351, Note_on_c, 0, 55, 36
1, 9398, Note_off_c, 0, 63, 57
1, 9403, Note_off_c, 0, 55, 60
1, 9435, Note_on_c, 0, 79, 79
1, 9476, Note_off_c, 0, 77, 58
1, 9780, Note_on_c, 0, 39, 38
1, 9786, Note_on_c, 0, 46, 35
1, 9813, Control_c, 0, 64, 94
1, 9828, Control_c, 0, 64, 70
1, 9842, Note_on_c, 0, 80, 67
1, 9843, Control_c, 0, 64, 0
1, 9855, Note_off_c, 0, 79, 53
1, 9902, Control_c, 0, 64, 53
1, 9917, Control_c, 0, 64, 70
1, 9926, Note_off_c, 0, 46, 57
1, 9932, Note_off_c, 0, 39, 54
1, 9932, Control_c, 0, 64, 84
1, 9947, Control_c, 0, 64, 105
1, 9961, Control_c, 0, 64, 127
1, 10162, Note_off_c, 0, 80, 56
1, 10187, Note_on_c, 0, 77, 59
1, 10188, Note_on_c, 0, 62, 49
1, 10224, Note_off_c, 0, 62, 61
1, 10255, Note_on_c, 0, 68, 52
1, 10292, Note_off_c, 0, 68, 61
1, 10311, Note_on_c, 0, 62, 62
1, 10333, Control_c, 0, 64, 98
1, 10345, Note_off_c, 0, 77, 60
1, 10348, Control_c, 0, 64, 78
1, 10352, Note_off_c, 0, 62, 55
1, 10363, Control_c, 0, 64, 61
1, 10378, Control_c, 0, 64, 0
1, 10384, Note_on_c, 0, 74, 68
1, 10385, Note_on_c, 0, 58, 48
1, 10407, Control_c, 0, 64, 60
1, 10422, Control_c, 0, 64, 72
1, 10436, Control_c, 0, 64, 85
1, 10450, Note_off_c, 0, 58, 52
1, 10451, Control_c, 0, 64, 94
1, 10466, Control_c, 0, 64, 97
1, 10489, Control_c, 0, 64, 101
1, 10504, Control_c, 0, 64, 107
1, 10518, Control_c, 0, 64, 126
1, 10533, Control_c, 0, 64, 127
1, 10554, Note_off_c, 0, 74, 40
1, 10632, Note_on_c, 0, 70, 74
1, 10636, Control_c, 0, 64, 100
1, 10647, Note_on_c, 0, 53, 49
1, 10651, Control_c, 0, 64, 76
1, 10666, Control_c, 0, 64, 51
1, 10681, Control_c, 0, 64, 0
1, 10696, Control_c, 0, 64, 55
1, 10710, Control_c, 0, 64, 70
1, 10716, Note_off_c, 0, 53, 58
1, 10725, Control_c, 0, 64, 87
1, 10740, Control_c, 0, 64, 101
1, 10755, Control_c, 0, 64, 114
1, 10770, Control_c, 0, 64, 122
1, 10784, Control_c, 0, 64, 127
1, 10859, Control_c, 0, 64, 124
1, 10874, Control_c, 0, 64, 86
1, 10877, Note_on_c, 0, 56, 39
1, 10881, Note_off_c, 0, 70, 61
1, 10883, Note_on_c, 0, 72, 70
1, 10889, Control_c, 0, 64, 68
1, 10903, Control_c, 0, 64, 43
1, 10908, Note_off_c, 0, 56, 56
1, 10918, Control_c, 0, 64, 62
1, 10932, Note_on_c, 0, 58, 46
1, 10933, Control_c, 0, 64, 75
1, 10948, Control_c, 0, 64, 101
1, 10963, Control_c, 0, 64, 127
1, 10978, Note_off_c, 0, 58, 62
1, 11014, Note_on_c, 0, 62, 4
1, 11076, Note_off_c, 0, 62, 48
1, 11115, Note_off_c, 0, 72, 57
1, 11127, Note_on_c, 0, 68, 72
1, 11152, Note_on_c, 0, 46, 36
1, 11188, Note_off_c, 0, 46, 50
1, 11370, Control_c, 0, 64, 122
1, 11384, Control_c, 0, 64, 97
1, 11399, Control_c, 0, 64, 84
1, 11414, Control_c, 0, 64, 72
1, 11429, Control_c, 0, 64, 59
1, 11444, Control_c, 0, 64, 0
1, 11458, Note_off_c, 0, 68, 57
1, 11474, Note_on_c, 0, 70, 52
1, 11483, Note_on_c, 0, 39, 34
1, 11547, Note_off_c, 0, 70, 58
1, 11592, Control_c, 0, 64, 66
1, 11607, Control_c, 0, 64, 81
1, 11622, Control_c, 0, 64, 91
1, 11634, Note_off_c, 0, 39, 47
1, 11637, Control_c, 0, 64, 101
1, 11652, Control_c, 0, 64, 106
1, 11666, Control_c, 0, 64, 118
1, 11681, Control_c, 0, 64, 127
1, 11755, Control_c, 0, 64, 116
1, 11770, Control_c, 0, 64, 102
1, 11784, Control_c, 0, 64, 92
1, 11795, Note_on_c, 0, 68, 54
1, 11799, Control_c, 0, 64, 83
1, 11809, Note_on_c, 0, 46, 48
1, 11814, Control_c, 0, 64, 73
1, 11818, Note_off_c, 0, 68, 60
1, 11829, Control_c, 0, 64, 63
1, 11844, Control_c, 0, 64, 0
1, 11845, Note_on_c, 0, 70, 52
1, 11854, Note_off_c, 0, 46, 49
1, 11871, Note_off_c, 0, 70, 64
1, 11873, Note_on_c, 0, 51, 53
1, 11898, Note_on_c, 0, 68, 57
1, 11911, Note_off_c, 0, 51, 62
1, 11927, Note_on_c, 0, 55, 43
1, 11929, Note_off_c, 0, 68, 62
1, 11958, Note_off_c, 0, 55, 63
1, 11986, Note_on_c, 0, 67, 54
1, 11993, Note_on_c, 0, 58, 40
1, 12021, Note_off_c, 0, 58, 57
1, 12238, Control_c, 0, 64, 59
1, 12253, Control_c, 0, 64, 67
1, 12268, Control_c, 0, 64, 73
1, 12271, Note_on_c, 0, 63, 40
1, 12272, Note_on_c, 0, 55, 34
1, 12282, Control_c, 0, 64, 78
1, 12286, Note_off_c, 0, 67, 56
1, 12297, Control_c, 0, 64, 85
1, 12312, Control_c, 0, 64, 92
1, 12327, Control_c, 0, 64, 101
1, 12342, Control_c, 0, 64, 110
1, 12356, Control_c, 0, 64, 127
1, 12418, Note_off_c, 0, 63, 32
1, 12419, Note_off_c, 0, 55, 34
1, 12531, Note_on_c, 0, 77, 74
1, 12548, Note_on_c, 0, 70, 61
1, 12790, Note_on_c, 0, 79, 83
1, 12808, Note_off_c, 0, 77, 59
1, 12829, Note_off_c, 0, 70, 61
1, 12874, Poly_aftertouch_c, 0, 75, 127
1, 12904, Poly_aftertouch_c, 0, 75, 0
1, 13007, Note_on_c, 0, 34, 52
1, 13046, Control_c, 0, 64, 88
1, 13061, Control_c, 0, 64, 66
1, 13076, Control_c, 0, 64, 0
1, 13097, Note_on_c, 0, 80, 77
1, 13105, Control_c, 0, 64, 37
1, 13108, Note_off_c, 0, 34, 61
1, 13117, Note_off_c, 0, 79, 57
1, 13120, Control_c, 0, 64, 69
1, 13133, Note_on_c, 0, 72, 43
1, 13135, Control_c, 0, 64, 83
1, 13150, Control_c, 0, 64, 99
1, 13165, Control_c, 0, 64, 117
1, 13179, Control_c, 0, 64, 127
1, 13220, Note_off_c, 0, 72, 34
1, 13267, Note_off_c, 0, 80, 60
1, 13383, Note_on_c, 0, 62, 50
1, 13416, Note_on_c, 0, 77, 61
1, 13434, Note_off_c, 0, 62, 53
1, 13444, Note_on_c, 0, 68, 50
1, 13449, Note_off_c, 0, 77, 64
1, 13471, Note_on_c, 0, 80, 66
1, 13491, Note_off_c, 0, 68, 62
1, 13507, Note_on_c, 0, 70, 27
1, 13512, Note_off_c, 0, 80, 59
1, 13528, Note_on_c, 0, 77, 68
1, 13542, Note_off_c, 0, 70, 53
1, 13582, Note_off_c, 0, 77, 60
1, 13587, Note_on_c, 0, 82, 69
1, 13591, Note_on_c, 0, 74, 75
1, 13611, Note_off_c, 0, 82, 68
1, 13621, Note_off_c, 0, 74, 64
1, 13854, Control_c, 0, 64, 106
1, 13858, Note_on_c, 0, 53, 55
1, 13869, Control_c, 0, 64, 74
1, 13871, Note_on_c, 0, 70, 70
1, 13883, Note_on_c, 0, 62, 53
1, 13884, Control_c, 0, 64, 0
1, 13928, Control_c, 0, 64, 54
1, 13932, Note_off_c, 0, 62, 59
1, 13943, Control_c, 0, 64, 78
1, 13958, Control_c, 0, 64, 102
1, 13965, Note_off_c, 0, 70, 58
1, 13973, Control_c, 0, 64, 127
1, 14079, Note_off_c, 0, 53, 60
1, 14134, Note_on_c, 0, 56, 50
1, 14178, Note_on_c, 0, 72, 70
1, 14191, Note_on_c, 0, 77, 67
1, 14248, Note_off_c, 0, 72, 62
1, 14251, Note_off_c, 0, 77, 52
1, 14415, Note_on_c, 0, 46, 45
1, 14421, Note_off_c, 0, 56, 59
1, 14454, Note_off_c, 0, 46, 60
1, 14478, Note_on_c, 0, 68, 67
1, 14487, Note_on_c, 0, 65, 54
1, 14532, Note_off_c, 0, 65, 56
1, 14729, Note_on_c, 0, 39, 47
1, 14742, Note_off_c, 0, 68, 37
1, 14752, Control_c, 0, 64, 93
1, 14766, Control_c, 0, 64, 72
1, 14781, Control_c, 0, 64, 0
1, 14810, Control_c, 0, 64, 33
1, 14819, Note_off_c, 0, 39, 57
1, 14820, Note_on_c, 0, 70, 49
1, 14823, Note_on_c, 0, 67, 43
1, 14825, Control_c, 0, 64, 68
1, 14840, Control_c, 0, 64, 80
1, 14855, Control_c, 0, 64, 91
1, 14870, Control_c, 0, 64, 98
1, 14874, Note_off_c, 0, 67, 56
1, 14884, Note_off_c, 0, 70, 52
1, 14909, Note_on_c, 0, 72, 58
1, 14928, Control_c, 0, 64, 98
1, 14943, Control_c, 0, 64, 96
1, 14958, Control_c, 0, 64, 93
1, 14981, Control_c, 0, 64, 85
1, 14984, Note_off_c, 0, 72, 58
1, 14993, Note_on_c, 0, 46, 55
1, 14996, Control_c, 0, 64, 72
1, 14999, Note_on_c, 0, 70, 59
1, 15010, Control_c, 0, 64, 59
1, 15025, Control_c, 0, 64, 0
1, 15029, Note_off_c, 0, 70, 66
1, 15035, Note_on_c, 0, 68, 63
1, 15041, Note_off_c, 0, 46, 58
1, 15076, Note_on_c, 0, 51, 48
1, 15083, Note_off_c, 0, 68, 59
1, 15098, Note_on_c, 0, 65, 30
1, 15107, Note_on_c, 0, 70, 60
1, 15112, Note_off_c, 0, 51, 62
1, 15128, Note_on_c, 0, 55, 45
1, 15132, Note_off_c, 0, 65, 47
1, 15174, Note_off_c, 0, 55, 62
1, 15178, Note_off_c, 0, 70, 58
1, 15188, Note_on_c, 0, 68, 50
1, 15197, Note_on_c, 0, 58, 48
1, 15224, Note_off_c, 0, 68, 64
1, 15231, Note_off_c, 0, 58, 63
1, 15265, Note_on_c, 0, 67, 52
1, 15283, Note_on_c, 0, 63, 40
1, 15348, Note_off_c, 0, 63, 58
1, 15500, Control_c, 0, 64, 44
1, 15515, Control_c, 0, 64, 65
1, 15530, Control_c, 0, 64, 71
1, 15545, Control_c, 0, 64, 75
1, 15549, Note_on_c, 0, 55, 31
1, 15560, Control_c, 0, 64, 77
1, 15564, Note_on_c, 0, 63, 27
1, 15574, Control_c, 0, 64, 80
1, 15576, Note_off_c, 0, 67, 61
1, 15589, Control_c, 0, 64, 85
1, 15604, Control_c, 0, 64, 93
1, 15619, Control_c, 0, 64, 101
1, 15629, Note_off_c, 0, 55, 38
1, 15633, Control_c, 0, 64, 110
1, 15648, Control_c, 0, 64, 121
1, 15663, Control_c, 0, 64, 127
1, 15706, Note_off_c, 0, 63, 43
1, 15875, Note_on_c, 0, 58, 37
1, 15877, Note_on_c, 0, 70, 49
1, 15890, Note_on_c, 0, 65, 30
1, 15908, Control_c, 0, 64, 94
1, 15923, Control_c, 0, 64, 80
1, 15938, Control_c, 0, 64, 77
1, 15953, Control_c, 0, 64, 85
1, 15954, Note_off_c, 0, 65, 49
1, 15968, Control_c, 0, 64, 104
1, 15982, Control_c, 0, 64, 127
1, 16101, Note_off_c, 0, 58, 37
1, 16142, Note_on_c, 0, 63, 37
1, 16146, Note_on_c, 0, 72, 60
1, 16171, Poly_aftertouch_c, 0, 67, 127
1, 16177, Note_off_c, 0, 63, 52
1, 16183, Note_off_c, 0, 72, 61
1, 16196, Poly_aftertouch_c, 0, 67, 0
1, 16208, Note_off_c, 0, 70, 31
1, 16412, Control_c, 0, 64, 88
1, 16427, Control_c, 0, 64, 63
1, 16430, Note_on_c, 0, 39, 47
1, 16439, Note_on_c, 0, 73, 59
1, 16442, Control_c, 0, 64, 0
1, 16481, Note_on_c, 0, 65, 20
1, 16491, Note_off_c, 0, 39, 58
1, 16493, Control_c, 0, 64, 64
1, 16508, Control_c, 0, 64, 75
1, 16523, Control_c, 0, 64, 91
1, 16537, Control_c, 0, 64, 106
1, 16540, Note_off_c, 0, 65, 46
1, 16552, Control_c, 0, 64, 114
1, 16567, Control_c, 0, 64, 116
1, 16582, Control_c, 0, 64, 118
1, 16597, Control_c, 0, 64, 124
1, 16612, Control_c, 0, 64, 127
1, 16666, Note_off_c, 0, 73, 28
1, 16694, Note_on_c, 0, 75, 63
1, 16715, Note_on_c, 0, 61, 43
1, 16719, Note_on_c, 0, 65, 18
1, 16760, Note_off_c, 0, 61, 49
1, 16763, Note_off_c, 0, 65, 55
1, 16773, Note_on_c, 0, 67, 50
1, 16773, Poly_aftertouch_c, 0, 70, 127
1, 16799, Note_off_c, 0, 67, 57
1, 16807, Poly_aftertouch_c, 0, 70, 0
1, 16826, Note_on_c, 0, 65, 56
1, 16865, Note_off_c, 0, 65, 63
1, 16913, Note_on_c, 0, 77, 66
1, 16916, Note_off_c, 0, 75, 59
1, 16916, Note_on_c, 0, 63, 49
1, 16917, Note_on_c, 0, 55, 52
1, 16918, Note_on_c, 0, 73, 62
1, 16943, Note_off_c, 0, 77, 65
1, 16946, Note_off_c, 0, 63, 62
1, 16946, Note_off_c, 0, 73, 66
1, 16951, Note_off_c, 0, 55, 63
1, 17131, Control_c, 0, 64, 91
1, 17145, Control_c, 0, 64, 66
1, 17158, Note_on_c, 0, 80, 72
1, 17160, Note_on_c, 0, 51, 66
1, 17160, Control_c, 0, 64, 0
1, 17165, Note_on_c, 0, 72, 53
1, 17195, Note_off_c, 0, 72, 65
1, 17205, Control_c, 0, 64, 63
1, 17226, Note_off_c, 0, 51, 60
1, 17227, Control_c, 0, 64, 74
1, 17241, Note_off_c, 0, 80, 62
1, 17242, Control_c, 0, 64, 85
1, 17257, Control_c, 0, 64, 99
1, 17272, Control_c, 0, 64, 112
1, 17286, Control_c, 0, 64, 127
1, 17408, Note_on_c, 0, 82, 82
1, 17417, Note_on_c, 0, 63, 45
1, 17425, Note_on_c, 0, 75, 59
1, 17440, Note_on_c, 0, 68, 51
1, 17460, Note_off_c, 0, 75, 59
1, 17467, Note_off_c, 0, 63, 54
1, 17469, Note_off_c, 0, 68, 63
1, 17479, Note_on_c, 0, 70, 65
1, 17533, Note_off_c, 0, 70, 61
1, 17553, Note_on_c, 0, 68, 64
1, 17623, Note_on_c, 0, 60, 27
1, 17632, Note_off_c, 0, 68, 59
1, 17659, Note_on_c, 0, 87, 90
1, 17659, Note_off_c, 0, 60, 60
1, 17687, Note_off_c, 0, 82, 57
1, 17818, Note_off_c, 0, 87, 64
1, 17962, Note_on_c, 0, 46, 53
1, 17976, Control_c, 0, 64, 118
1, 17991, Control_c, 0, 64, 85
1, 18006, Control_c, 0, 64, 65
1, 18021, Control_c, 0, 64, 0
1, 18031, Note_on_c, 0, 86, 70
1, 18065, Control_c, 0, 64, 57
1, 18070, Note_on_c, 0, 80, 40
1, 18080, Control_c, 0, 64, 70
1, 18096, Control_c, 0, 64, 82
1, 18101, Note_off_c, 0, 46, 61
1, 18110, Control_c, 0, 64, 95
1, 18125, Control_c, 0, 64, 106
1, 18140, Control_c, 0, 64, 115
1, 18154, Control_c, 0, 64, 127
1, 18159, Note_off_c, 0, 86, 55
1, 18241, Note_off_c, 0, 80, 32
1, 18345, Note_on_c, 0, 68, 48
1, 18364, Note_on_c, 0, 77, 27
1, 18367, Note_on_c, 0, 84, 56
1, 18375, Note_off_c, 0, 68, 62
1, 18392, Control_c, 0, 64, 124
1, 18402, Note_off_c, 0, 77, 51
1, 18407, Control_c, 0, 64, 101
1, 18419, Poly_aftertouch_c, 0, 72, 127
1, 18421, Note_on_c, 0, 82, 65
1, 18422, Note_on_c, 0, 74, 53
1, 18422, Control_c, 0, 64, 88
1, 18428, Note_off_c, 0, 84, 57
1, 18437, Control_c, 0, 64, 80
1, 18448, Note_off_c, 0, 74, 60
1, 18451, Control_c, 0, 64, 73
1, 18466, Note_off_c, 0, 82, 57
1, 18466, Control_c, 0, 64, 67
1, 18468, Poly_aftertouch_c, 0, 72, 0
1, 18480, Note_on_c, 0, 80, 54
1, 18481, Control_c, 0, 64, 57
1, 18484, Note_on_c, 0, 72, 41
1, 18496, Control_c, 0, 64, 0
1, 18530, Note_off_c, 0, 72, 52
1, 18538, Note_off_c, 0, 80, 56
1, 18555, Note_on_c, 0, 77, 48
1, 18555, Control_c, 0, 64, 36
1, 18566, Note_on_c, 0, 70, 47
1, 18570, Control_c, 0, 64, 64
1, 18585, Control_c, 0, 64, 72
1, 18595, Note_off_c, 0, 77, 64
1, 18600, Control_c, 0, 64, 78
1, 18603, Note_on_c, 0, 68, 32
1, 18607, Note_off_c, 0, 70, 65
1, 18615, Control_c, 0, 64, 87
1, 18630, Control_c, 0, 64, 94
1, 18636, Note_off_c, 0, 68, 49
1, 18644, Control_c, 0, 64, 101
1, 18649, Poly_aftertouch_c, 0, 62, 0
1, 18659, Control_c, 0, 64, 110
1, 18674, Control_c, 0, 64, 127
1, 18815, Control_c, 0, 64, 91
1, 18825, Note_on_c, 0, 61, 67
1, 18830, Control_c, 0, 64, 70
1, 18845, Control_c, 0, 64, 0
1, 18889, Control_c, 0, 64, 52
1, 18904, Control_c, 0, 64, 70
1, 18919, Control_c, 0, 64, 79
1, 18933, Control_c, 0, 64, 87
1, 18948, Control_c, 0, 64, 91
1, 18963, Control_c, 0, 64, 94
1, 18977, Control_c, 0, 64, 97
1, 18992, Control_c, 0, 64, 100
1, 19007, Control_c, 0, 64, 101
1, 19022, Control_c, 0, 64, 103
1, 19037, Control_c, 0, 64, 105
1, 19040, Note_on_c, 0, 71, 60
1, 19044, Note_on_c, 0, 65, 42
1, 19053, Control_c, 0, 64, 109
1, 19067, Control_c, 0, 64, 113
1, 19077, Note_on_c, 0, 83, 67
1, 19082, Control_c, 0, 64, 118
1, 19097, Control_c, 0, 64, 124
1, 19100, Note_off_c, 0, 71, 58
1, 19112, Control_c, 0, 64, 127
1, 19113, Note_off_c, 0, 65, 53
1, 19125, Note_on_c, 0, 67, 55
1, 19149, Note_off_c, 0, 83, 59
1, 19154, Note_off_c, 0, 61, 33
1, 19174, Note_on_c, 0, 68, 53
1, 19178, Note_off_c, 0, 67, 57
1, 19216, Note_off_c, 0, 68, 61
1, 19269, Note_on_c, 0, 72, 70
1, 19289, Control_c, 0, 64, 91
1, 19304, Control_c, 0, 64, 63
1, 19319, Control_c, 0, 64, 0
1, 19327, Note_on_c, 0, 84, 77
1, 19332, Note_on_c, 0, 70, 69
1, 19333, Note_on_c, 0, 60, 62
1, 19336, Note_off_c, 0, 72, 60
1, 19340, Note_on_c, 0, 64, 53
1, 19348, Control_c, 0, 64, 55
1, 19363, Control_c, 0, 64, 83
1, 19378, Control_c, 0, 64, 124
1, 19385, Note_off_c, 0, 70, 60
1, 19385, Note_off_c, 0, 84, 64
1, 19387, Note_off_c, 0, 64, 59
1, 19393, Control_c, 0, 64, 127
1, 19396, Note_off_c, 0, 60, 56
1, 19488, Note_on_c, 0, 73, 80
1, 19519, Control_c, 0, 64, 93
1, 19534, Control_c, 0, 64, 66
1, 19548, Control_c, 0, 64, 0
1, 19570, Note_on_c, 0, 58, 72
1, 19572, Note_on_c, 0, 85, 81
1, 19578, Control_c, 0, 64, 59
1, 19592, Note_off_c, 0, 73, 64
1, 19593, Control_c, 0, 64, 76
1, 19597, Note_off_c, 0, 85, 64
1, 19607, Control_c, 0, 64, 93
1, 19622, Control_c, 0, 64, 126
1, 19637, Control_c, 0, 64, 127
1, 19669, Note_off_c, 0, 58, 55
1, 19673, Note_on_c, 0, 72, 67
1, 19691, Note_off_c, 0, 72, 66
1, 19697, Note_on_c, 0, 73, 81
1, 19719, Note_off_c, 0, 73, 71
1, 19735, Note_on_c, 0, 61, 62
1, 19779, Note_on_c, 0, 65, 61
1, 19792, Note_on_c, 0, 75, 78
1, 19792, Note_on_c, 0, 87, 87
1, 19811, Note_off_c, 0, 75, 71
1, 19812, Note_off_c, 0, 87, 70
1, 19830, Note_off_c, 0, 65, 61
1, 19858, Note_on_c, 0, 67, 59
1, 19912, Note_off_c, 0, 67, 58
1, 19922, Note_on_c, 0, 65, 71
1, 19927, Note_off_c, 0, 61, 57
1, 19956, Note_off_c, 0, 65, 57
1, 19991, Note_on_c, 0, 63, 41
1, 20005, Note_on_c, 0, 67, 76
1, 20007, Note_on_c, 0, 89, 92
1, 20017, Note_on_c, 0, 77, 75
1, 20040, Note_off_c, 0, 77, 70
1, 20042, Note_off_c, 0, 67, 58
1, 20045, Note_off_c, 0, 89, 64
1, 20055, Note_off_c, 0, 63, 59
1, 20222, Control_c, 0, 64, 111
1, 20237, Control_c, 0, 64, 71
1, 20248, Note_on_c, 0, 60, 69
1, 20252, Control_c, 0, 64, 0
1, 20255, Note_on_c, 0, 92, 99
1, 20260, Note_on_c, 0, 80, 87
1, 20263, Note_on_c, 0, 87, 76
1, 20311, Control_c, 0, 64, 67
1, 20326, Control_c, 0, 64, 89
1, 20329, Note_off_c, 0, 80, 63
1, 20341, Control_c, 0, 64, 117
1, 20347, Note_off_c, 0, 87, 61
1, 20355, Control_c, 0, 64, 127
1, 20365, Note_off_c, 0, 92, 66
1, 20416, Note_on_c, 0, 63, 69
1, 20453, Note_on_c, 0, 82, 76
1, 20509, Note_on_c, 0, 68, 67
1, 20517, Note_on_c, 0, 94, 93
1, 20529, Note_off_c, 0, 82, 60
1, 20577, Note_off_c, 0, 94, 65
1, 20597, Note_on_c, 0, 70, 62
1, 20693, Note_on_c, 0, 72, 63
1, 20734, Note_off_c, 0, 68, 56
1, 20735, Note_on_c, 0, 87, 65
1, 20735, Note_off_c, 0, 72, 60
1, 20743, Note_off_c, 0, 70, 60
1, 20788, Note_off_c, 0, 63, 55
1, 20794, Note_off_c, 0, 60, 59
1, 20801, Note_off_c, 0, 87, 64
1, 20815, Note_on_c, 0, 99, 93
1, 20889, Note_off_c, 0, 99, 66
1, 21239, Note_on_c, 0, 34, 58
1, 21252, Control_c, 0, 64, 86
1, 21267, Control_c, 0, 64, 62
1, 21282, Control_c, 0, 64, 0
1, 21285, Note_on_c, 0, 98, 83
1, 21298, Note_on_c, 0, 92, 63
1, 21308, Note_on_c, 0, 86, 60
1, 21312, Control_c, 0, 64, 48
1, 21326, Control_c, 0, 64, 70
1, 21339, Note_off_c, 0, 98, 65
1, 21340, Note_off_c, 0, 34, 61
1, 21341, Note_off_c, 0, 92, 61
1, 21341, Control_c, 0, 64, 87
1, 21356, Control_c, 0, 64, 117
1, 21370, Control_c, 0, 64, 127
1, 21393, Note_off_c, 0, 86, 65
1, 21656, Note_on_c, 0, 84, 55
1, 21663, Note_on_c, 0, 72, 48
1, 21673, Note_on_c, 0, 68, 10
1, 21701, Note_off_c, 0, 84, 56
1, 21730, Note_on_c, 0, 82, 62
1, 21731, Note_off_c, 0, 68, 52
1, 21760, Note_off_c, 0, 82, 66
1, 21793, Note_on_c, 0, 80, 53
1, 21818, Note_off_c, 0, 72, 53
1, 21868, Note_off_c, 0, 80, 61
1, 21898, Note_on_c, 0, 89, 68
1, 21905, Note_on_c, 0, 70, 38
1, 21914, Note_on_c, 0, 77, 48
1, 21924, Note_on_c, 0, 62, 40
1, 21925, Note_off_c, 0, 89, 64
1, 21941, Note_off_c, 0, 70, 61
1, 21945, Note_off_c, 0, 77, 58
1, 21954, Poly_aftertouch_c, 0, 68, 127
1, 21959, Note_off_c, 0, 62, 61
1, 21983, Poly_aftertouch_c, 0, 68, 0
1, 22003, Poly_aftertouch_c, 0, 68, 0
1, 22358, Control_c, 0, 64, 126
1, 22372, Control_c, 0, 64, 95
1, 22374, Note_on_c, 0, 46, 47
1, 22387, Control_c, 0, 64, 78
1, 22391, Note_on_c, 0, 61, 39
1, 22394, Note_on_c, 0, 65, 44
1, 22402, Note_on_c, 0, 55, 32
1, 22402, Control_c, 0, 64, 60
1, 22416, Control_c, 0, 64, 0
1, 22469, Control_c, 0, 64, 64
1, 22484, Control_c, 0, 64, 74
1, 22497, Note_off_c, 0, 46, 57
1, 22499, Control_c, 0, 64, 85
1, 22513, Control_c, 0, 64, 101
1, 22521, Note_off_c, 0, 55, 56
1, 22528, Control_c, 0, 64, 113
1, 22542, Control_c, 0, 64, 127
1, 22567, Note_off_c, 0, 65, 62
1, 22580, Note_off_c, 0, 61, 40
1, 22809, Note_on_c, 0, 61, 49
1, 22848, Note_on_c, 0, 79, 65
1, 22895, Note_on_c, 0, 58, 48
1, 22982, Note_on_c, 0, 67, 50
1, 23018, Note_off_c, 0, 58, 53
1, 23052, Note_off_c, 0, 67, 56
1, 23082, Note_on_c, 0, 65, 42
1, 23098, Note_off_c, 0, 61, 55
1, 23111, Note_off_c, 0, 65, 56
1, 23128, Note_on_c, 0, 80, 79
1, 23151, Note_off_c, 0, 79, 54
1, 23454, Control_c, 0, 64, 87
1, 23456, Note_on_c, 0, 36, 56
1, 23469, Control_c, 0, 64, 49
1, 23484, Control_c, 0, 64, 0
1, 23499, Note_off_c, 0, 80, 57
1, 23505, Note_on_c, 0, 82, 66
1, 23524, Note_on_c, 0, 76, 49
1, 23543, Control_c, 0, 64, 67
1, 23554, Note_off_c, 0, 36, 61
1, 23558, Control_c, 0, 64, 87
1, 23572, Control_c, 0, 64, 108
1, 23587, Control_c, 0, 64, 127
1, 23674, Note_off_c, 0, 82, 61
1, 23850, Note_on_c, 0, 64, 53
1, 23857, Note_on_c, 0, 84, 57
1, 23902, Note_on_c, 0, 60, 54
1, 23905, Note_on_c, 0, 85, 68
1, 23912, Note_off_c, 0, 64, 62
1, 23921, Note_on_c, 0, 70, 60
1, 23921, Note_off_c, 0, 84, 63
1, 23933, Note_off_c, 0, 85, 64
1, 23944, Note_on_c, 0, 87, 65
1, 23974, Note_off_c, 0, 60, 59
1, 23977, Note_off_c, 0, 70, 61
1, 23999, Note_on_c, 0, 64, 48
1, 24019, Note_on_c, 0, 85, 83
1, 24022, Note_off_c, 0, 64, 62
1, 24030, Note_off_c, 0, 87, 61
1, 24065, Note_off_c, 0, 85, 62
1, 24262, Control_c, 0, 64, 92
1, 24277, Control_c, 0, 64, 70
1, 24291, Note_off_c, 0, 76, 57
1, 24292, Control_c, 0, 64, 14
1, 24297, Note_on_c, 0, 84, 69
1, 24299, Note_on_c, 0, 41, 58
1, 24307, Control_c, 0, 64, 17
1, 24312, Note_on_c, 0, 75, 59
1, 24322, Control_c, 0, 64, 65
1, 24335, Note_off_c, 0, 41, 62
1, 24336, Control_c, 0, 64, 78
1, 24351, Control_c, 0, 64, 92
1, 24352, Note_off_c, 0, 84, 57
1, 24366, Control_c, 0, 64, 107
1, 24381, Control_c, 0, 64, 112
1, 24395, Control_c, 0, 64, 113
1, 24484, Control_c, 0, 64, 112
1, 24499, Control_c, 0, 64, 103
1, 24514, Control_c, 0, 64, 89
1, 24529, Control_c, 0, 64, 74
1, 24544, Control_c, 0, 64, 61
1, 24559, Control_c, 0, 64, 0
1, 24561, Note_on_c, 0, 81, 66
1, 24580, Note_on_c, 0, 63, 43
1, 24607, Note_on_c, 0, 60, 53
1, 24607, Note_on_c, 0, 72, 26
1, 24629, Note_off_c, 0, 63, 58
1, 24633, Control_c, 0, 67, 8
1, 24648, Control_c, 0, 67, 9
1, 24651, Note_off_c, 0, 60, 59
1, 24723, Note_on_c, 0, 69, 42
1, 24730, Control_c, 0, 67, 10
1, 24744, Control_c, 0, 67, 12
1, 24754, Note_off_c, 0, 69, 55
1, 24759, Control_c, 0, 67, 16
1, 24774, Control_c, 0, 67, 19
1, 24789, Control_c, 0, 67, 20
1, 24818, Control_c, 0, 67, 20
1, 24834, Control_c, 0, 67, 19
1, 24849, Control_c, 0, 67, 19
1, 24875, Note_on_c, 0, 77, 65
1, 24877, Note_on_c, 0, 63, 40
1, 24879, Control_c, 0, 64, 48
1, 24893, Control_c, 0, 64, 66
1, 24907, Note_off_c, 0, 81, 54
1, 24908, Control_c, 0, 64, 73
1, 24923, Control_c, 0, 64, 79
1, 24926, Note_off_c, 0, 63, 62
1, 24938, Control_c, 0, 64, 86
1, 24938, Control_c, 0, 67, 18
1, 24952, Control_c, 0, 64, 92
1, 24952, Control_c, 0, 67, 18
1, 24967, Control_c, 0, 64, 101
1, 24967, Control_c, 0, 67, 17
1, 24982, Control_c, 0, 64, 117
1, 24997, Control_c, 0, 64, 127
1, 25004, Note_off_c, 0, 72, 43
1, 25012, Control_c, 0, 67, 18
1, 25027, Control_c, 0, 67, 19
1, 25042, Control_c, 0, 67, 19
1, 25205, Control_c, 0, 67, 19
1, 25273, Note_off_c, 0, 75, 54
1, 25279, Control_c, 0, 67, 19
1, 25283, Note_on_c, 0, 34, 41
1, 25293, Control_c, 0, 67, 20
1, 25308, Control_c, 0, 64, 95
1, 25308, Control_c, 0, 67, 20
1, 25323, Control_c, 0, 64, 76
1, 25323, Control_c, 0, 67, 21
1, 25337, Note_on_c, 0, 74, 31
1, 25337, Control_c, 0, 64, 58
1, 25337, Control_c, 0, 67, 21
1, 25352, Control_c, 0, 64, 0
1, 25352, Control_c, 0, 67, 22
1, 25367, Control_c, 0, 67, 25
1, 25382, Control_c, 0, 64, 56
1, 25382, Control_c, 0, 67, 33
1, 25397, Note_off_c, 0, 34, 53
1, 25397, Control_c, 0, 64, 68
1, 25397, Control_c, 0, 67, 45
1, 25412, Control_c, 0, 64, 77
1, 25412, Control_c, 0, 67, 55
1, 25426, Control_c, 0, 64, 85
1, 25426, Control_c, 0, 67, 65
1, 25442, Control_c, 0, 64, 93
1, 25442, Control_c, 0, 67, 74
1, 25465, Control_c, 0, 64, 101
1, 25465, Control_c, 0, 67, 84
1, 25480, Control_c, 0, 64, 109
1, 25480, Control_c, 0, 67, 95
1, 25480, Note_off_c, 0, 77, 59
1, 25495, Control_c, 0, 64, 124
1, 25495, Control_c, 0, 67, 107
1, 25510, Control_c, 0, 64, 127
1, 25510, Control_c, 0, 67, 122
1, 25524, Control_c, 0, 67, 127
1, 25712, Note_on_c, 0, 79, 69
1, 25720, Note_on_c, 0, 68, 47
1, 25751, Note_off_c, 0, 68, 62
1, 25760, Note_off_c, 0, 74, 45
1, 25812, Note_on_c, 0, 62, 41
1, 25870, Note_on_c, 0, 70, 46
1, 25912, Note_off_c, 0, 70, 61
1, 25966, Note_on_c, 0, 58, 42
1, 25969, Note_off_c, 0, 62, 51
1, 25979, Note_off_c, 0, 79, 61
1, 25982, Note_on_c, 0, 80, 77
1, 26000, Note_off_c, 0, 58, 62
1, 26258, Control_c, 0, 64, 102
1, 26261, Note_on_c, 0, 82, 74
1, 26270, Note_on_c, 0, 39, 47
1, 26272, Control_c, 0, 64, 77
1, 26279, Note_off_c, 0, 80, 53
1, 26287, Control_c, 0, 64, 44
1, 26302, Control_c, 0, 64, 0
1, 26306, Note_on_c, 0, 73, 31
1, 26332, Control_c, 0, 64, 53
1, 26346, Control_c, 0, 64, 71
1, 26355, Note_off_c, 0, 39, 60
1, 26360, Note_off_c, 0, 73, 48
1, 26361, Control_c, 0, 64, 84
1, 26376, Control_c, 0, 64, 98
1, 26390, Control_c, 0, 64, 109
1, 26405, Control_c, 0, 64, 112
1, 26420, Control_c, 0, 64, 117
1, 26435, Control_c, 0, 64, 127
1, 26547, Note_on_c, 0, 83, 66
1, 26559, Note_off_c, 0, 82, 57
1, 26574, Note_on_c, 0, 75, 45
1, 26576, Note_on_c, 0, 61, 43
1, 26607, Note_off_c, 0, 83, 62
1, 26610, Note_off_c, 0, 75, 49
1, 26704, Poly_aftertouch_c, 0, 67, 127
1, 26777, Note_on_c, 0, 63, 28
1, 26780, Poly_aftertouch_c, 0, 67, 0
1, 26786, Note_off_c, 0, 61, 36
1, 26823, Note_off_c, 0, 63, 49
1, 26849, Note_on_c, 0, 82, 66
1, 26891, Note_on_c, 0, 75, 40
1, 27169, Control_c, 0, 64, 91
1, 27183, Note_off_c, 0, 75, 45
1, 27184, Control_c, 0, 64, 71
1, 27191, Note_on_c, 0, 44, 40
1, 27198, Note_on_c, 0, 72, 43
1, 27199, Control_c, 0, 64, 0
1, 27243, Control_c, 0, 64, 29
1, 27258, Control_c, 0, 64, 66
1, 27273, Control_c, 0, 64, 81
1, 27287, Control_c, 0, 64, 95
1, 27302, Control_c, 0, 64, 109
1, 27304, Note_off_c, 0, 44, 54
1, 27317, Control_c, 0, 64, 118
1, 27331, Control_c, 0, 64, 127
1, 27525, Note_off_c, 0, 82, 53
1, 27538, Note_on_c, 0, 60, 42
1, 27553, Note_on_c, 0, 80, 45
1, 27558, Note_on_c, 0, 75, 30
1, 27630, Note_off_c, 0, 75, 41
1, 27674, Note_on_c, 0, 68, 34
1, 27685, Note_off_c, 0, 80, 51
1, 27801, Note_on_c, 0, 63, 32
1, 27810, Note_off_c, 0, 68, 33
1, 27858, Note_off_c, 0, 60, 36
1, 27891, Note_off_c, 0, 72, 53
1, 27945, Note_on_c, 0, 75, 20
1, 27954, Note_off_c, 0, 63, 39
1, 28437, Control_c, 0, 64, 106
1, 28459, Control_c, 0, 64, 84
1, 28474, Control_c, 0, 64, 67
1, 28477, Note_on_c, 0, 79, 57
1, 28483, Note_off_c, 0, 75, 46
1, 28488, Control_c, 0, 64, 0
1, 28497, Note_on_c, 0, 46, 41
1, 28518, Control_c, 0, 64, 61
1, 28519, Note_on_c, 0, 70, 38
1, 28533, Control_c, 0, 64, 73
1, 28548, Control_c, 0, 64, 87
1, 28552, Note_off_c, 0, 46, 56
1, 28561, Note_off_c, 0, 79, 59
1, 28562, Control_c, 0, 64, 105
1, 28577, Control_c, 0, 64, 118
1, 28590, Note_off_c, 0, 70, 57
1, 28592, Control_c, 0, 64, 120
1, 28607, Control_c, 0, 64, 121
1, 28638, Control_c, 0, 64, 122
1, 28741, Control_c, 0, 64, 121
1, 28756, Control_c, 0, 64, 113
1, 28771, Control_c, 0, 64, 98
1, 28776, Note_on_c, 0, 75, 52
1, 28786, Control_c, 0, 64, 80
1, 28798, Note_off_c, 0, 75, 60
1, 28799, Note_on_c, 0, 67, 31
1, 28801, Control_c, 0, 64, 65
1, 28813, Note_on_c, 0, 60, 34
1, 28816, Control_c, 0, 64, 0
1, 28820, Note_on_c, 0, 63, 39
1, 28836, Note_off_c, 0, 67, 44
1, 28851, Note_off_c, 0, 60, 53
1, 28862, Note_on_c, 0, 58, 58
1, 28863, Note_off_c, 0, 63, 59
1, 28907, Note_on_c, 0, 65, 54
1, 28915, Note_off_c, 0, 58, 53
1, 28950, Note_off_c, 0, 65, 56
1, 29001, Note_on_c, 0, 72, 61
1, 29006, Note_on_c, 0, 68, 47
1, 29008, Control_c, 0, 64, 23
1, 29009, Note_on_c, 0, 63, 44
1, 29023, Control_c, 0, 64, 67
1, 29026, Note_on_c, 0, 60, 24
1, 29038, Control_c, 0, 64, 85
1, 29039, Note_off_c, 0, 63, 60
1, 29041, Note_off_c, 0, 68, 63
1, 29050, Note_off_c, 0, 72, 62
1, 29052, Control_c, 0, 64, 102
1, 29065, Note_off_c, 0, 60, 43
1, 29067, Control_c, 0, 64, 112
1, 29111, Control_c, 0, 64, 116
1, 29126, Control_c, 0, 64, 127
1, 29267, Control_c, 0, 64, 94
1, 29282, Control_c, 0, 64, 77
1, 29290, Note_on_c, 0, 68, 54
1, 29297, Control_c, 0, 64, 58
1, 29309, Note_on_c, 0, 46, 41
1, 29309, Note_on_c, 0, 60, 39
1, 29311, Control_c, 0, 64, 0
1, 29356, Control_c, 0, 64, 57
1, 29371, Control_c, 0, 64, 71
1, 29385, Control_c, 0, 64, 84
1, 29400, Control_c, 0, 64, 96
1, 29415, Control_c, 0, 64, 102
1, 29421, Note_off_c, 0, 60, 53
1, 29431, Control_c, 0, 64, 104
1, 29446, Control_c, 0, 64, 109
1, 29459, Note_off_c, 0, 46, 33
1, 29461, Control_c, 0, 64, 118
1, 29476, Control_c, 0, 64, 127
1, 29615, Note_off_c, 0, 68, 56
1, 29624, Control_c, 0, 64, 119
1, 29638, Control_c, 0, 64, 103
1, 29641, Note_on_c, 0, 70, 54
1, 29644, Note_on_c, 0, 56, 42
1, 29653, Control_c, 0, 64, 89
1, 29668, Control_c, 0, 64, 75
1, 29670, Note_on_c, 0, 62, 32
1, 29683, Control_c, 0, 64, 50
1, 29698, Control_c, 0, 64, 0
1, 29746, Note_off_c, 0, 56, 54
1, 29757, Note_off_c, 0, 62, 49
1, 29757, Control_c, 0, 64, 63
1, 29772, Control_c, 0, 64, 70
1, 29773, Note_on_c, 0, 58, 41
1, 29787, Control_c, 0, 64, 77
1, 29801, Control_c, 0, 64, 83
1, 29816, Control_c, 0, 64, 86
1, 29821, Note_off_c, 0, 58, 58
1, 29831, Control_c, 0, 64, 90
1, 29846, Control_c, 0, 64, 94
1, 29861, Control_c, 0, 64, 98
1, 29865, Note_on_c, 0, 60, 44
1, 29875, Control_c, 0, 64, 102
1, 29890, Control_c, 0, 64, 104
1, 29905, Control_c, 0, 64, 105
1, 29916, Note_off_c, 0, 60, 54
1, 29918, Note_off_c, 0, 70, 32
1, 29960, Note_on_c, 0, 62, 48
1, 29976, Note_on_c, 0, 53, 43
1, 29988, Note_off_c, 0, 62, 59
1, 30016, Control_c, 0, 64, 104
1, 30018, Note_off_c, 0, 53, 65
1, 30046, Control_c, 0, 64, 103
1, 30048, Note_on_c, 0, 68, 60
1, 30061, Control_c, 0, 64, 101
1, 30069, Note_on_c, 0, 58, 37
1, 30075, Control_c, 0, 64, 97
1, 30083, Note_off_c, 0, 68, 61
1, 30089, Control_c, 0, 64, 88
1, 30103, Note_off_c, 0, 58, 55
1, 30104, Control_c, 0, 64, 77
1, 30115, Note_on_c, 0, 70, 57
1, 30119, Control_c, 0, 64, 66
1, 30133, Control_c, 0, 64, 43
1, 30148, Control_c, 0, 64, 0
1, 30152, Note_on_c, 0, 68, 67
1, 30160, Note_off_c, 0, 70, 54
1, 30208, Note_off_c, 0, 68, 62
1, 30213, Note_on_c, 0, 67, 62
1, 30223, Note_on_c, 0, 46, 53
1, 30230, Note_on_c, 0, 63, 52
1, 30243, Note_off_c, 0, 67, 65
1, 30255, Note_off_c, 0, 63, 60
1, 30258, Note_on_c, 0, 39, 35
1, 30520, Control_c, 0, 64, 27
1, 30535, Control_c, 0, 64, 63
1, 30549, Control_c, 0, 64, 69
1, 30564, Control_c, 0, 64, 73
1, 30579, Control_c, 0, 64, 76
1, 30594, Control_c, 0, 64, 82
1, 30607, Note_off_c, 0, 46, 59
1, 30609, Control_c, 0, 64, 90
1, 30611, Note_on_c, 0, 63, 54
1, 30613, Note_off_c, 0, 39, 50
1, 30623, Control_c, 0, 64, 100
1, 30638, Control_c, 0, 64, 110
1, 30646, Note_on_c, 0, 55, 34
1, 30653, Control_c, 0, 64, 126
1, 30668, Control_c, 0, 64, 127
1, 30688, Note_off_c, 0, 55, 50
1, 30735, Note_off_c, 0, 63, 38
1, 30920, Note_on_c, 0, 55, 42
1, 30928, Note_on_c, 0, 63, 36
1, 30976, Note_off_c, 0, 55, 56
1, 30983, Note_off_c, 0, 63, 51
1, 31031, Note_on_c, 0, 67, 49
1, 31041, Note_on_c, 0, 58, 33
1, 31100, Note_off_c, 0, 58, 44
1, 31122, Note_off_c, 0, 67, 37
1, 31168, Note_on_c, 0, 70, 50
1, 31180, Note_on_c, 0, 63, 46
1, 31230, Note_off_c, 0, 63, 57
1, 31299, Control_c, 0, 67, 126
1, 31314, Control_c, 0, 67, 119
1, 31329, Control_c, 0, 67, 110
1, 31344, Control_c, 0, 67, 98
1, 31358, Control_c, 0, 67, 84
1, 31373, Control_c, 0, 67, 68
1, 31388, Control_c, 0, 67, 50
1, 31403, Control_c, 0, 67, 35
1, 31418, Control_c, 0, 67, 20
1, 31433, Control_c, 0, 67, 0
1, 31435, Note_on_c, 0, 67, 44
1, 31437, Note_on_c, 0, 58, 45
1, 31473, Note_off_c, 0, 67, 54
1, 31487, Note_off_c, 0, 58, 56
1, 31710, Note_on_c, 0, 55, 54
1, 31710, Note_on_c, 0, 63, 47
1, 31744, Note_off_c, 0, 63, 61
1, 31753, Note_off_c, 0, 55, 63
1, 32008, Note_on_c, 0, 46, 82
1, 32011, Note_on_c, 0, 39, 72
1, 32046, Note_off_c, 0, 46, 59
1, 32050, Note_off_c, 0, 39, 62
1, 32270, Note_off_c, 0, 70, 42
1, 32292, Note_on_c, 0, 51, 70
1, 32367, Note_on_c, 0, 58, 67
1, 32384, Note_off_c, 0, 51, 63
1, 32399, Note_on_c, 0, 55, 71
1, 32457, Note_on_c, 0, 63, 72
1, 32457, Note_off_c, 0, 55, 64
1, 32473, Note_off_c, 0, 58, 38
1, 32490, Note_off_c, 0, 63, 61
1, 32533, Note_on_c, 0, 55, 70
1, 32598, Note_off_c, 0, 55, 60
1, 32610, Note_on_c, 0, 63, 64
1, 32685, Note_on_c, 0, 58, 71
1, 32699, Note_off_c, 0, 63, 59
1, 32741, Note_on_c, 0, 67, 63
1, 32750, Note_off_c, 0, 58, 62
1, 32770, Note_off_c, 0, 67, 64
1, 32799, Note_on_c, 0, 63, 78
1, 32873, Note_off_c, 0, 63, 59
1, 32897, Note_on_c, 0, 70, 80
1, 32923, Note_on_c, 0, 89, 88
1, 32924, Note_on_c, 0, 77, 85
1, 32954, Note_off_c, 0, 70, 62
1, 32973, Note_off_c, 0, 77, 61
1, 33004, Note_off_c, 0, 89, 61
1, 33175, Note_on_c, 0, 58, 75
1, 33204, Note_on_c, 0, 91, 94
1, 33209, Note_on_c, 0, 79, 91
1, 33215, Note_off_c, 0, 58, 63
1, 33249, Note_off_c, 0, 79, 66
1, 33262, Note_off_c, 0, 91, 59
1, 33455, Control_c, 0, 64, 84
1, 33469, Note_on_c, 0, 39, 76
1, 33470, Control_c, 0, 64, 0
1, 33473, Note_on_c, 0, 46, 82
1, 33486, Note_on_c, 0, 80, 86
1, 33487, Note_on_c, 0, 92, 96
1, 33494, Note_on_c, 0, 86, 74
1, 33505, Note_on_c, 0, 89, 48
1, 33505, Note_off_c, 0, 39, 60
1, 33514, Control_c, 0, 64, 55
1, 33517, Note_off_c, 0, 46, 61
1, 33529, Note_off_c, 0, 89, 57
1, 33529, Control_c, 0, 64, 76
1, 33544, Control_c, 0, 64, 113
1, 33549, Note_off_c, 0, 86, 64
1, 33559, Control_c, 0, 64, 127
1, 33569, Note_off_c, 0, 92, 66
1, 33578, Note_off_c, 0, 80, 62
1, 33734, Note_on_c, 0, 53, 59
1, 33754, Note_on_c, 0, 89, 82
1, 33759, Note_on_c, 0, 77, 70
1, 33784, Note_off_c, 0, 89, 61
1, 33790, Note_off_c, 0, 77, 62
1, 33809, Note_off_c, 0, 53, 64
1, 33828, Note_on_c, 0, 58, 65
1, 33877, Note_on_c, 0, 56, 76
1, 33886, Note_off_c, 0, 58, 61
1, 33954, Note_on_c, 0, 62, 61
1, 33955, Note_on_c, 0, 74, 88
1, 33958, Note_on_c, 0, 86, 74
1, 33973, Note_off_c, 0, 86, 69
1, 33985, Note_off_c, 0, 74, 64
1, 33987, Note_off_c, 0, 62, 62
1, 34005, Note_off_c, 0, 56, 38
1, 34016, Note_on_c, 0, 58, 68
1, 34061, Note_off_c, 0, 58, 52
1, 34068, Note_on_c, 0, 62, 66
1, 34101, Note_off_c, 0, 62, 62
1, 34154, Note_on_c, 0, 70, 84
1, 34157, Note_on_c, 0, 74, 76
1, 34157, Note_on_c, 0, 82, 88
1, 34160, Note_on_c, 0, 80, 76
1, 34183, Note_on_c, 0, 58, 72
1, 34197, Note_off_c, 0, 74, 62
1, 34202, Note_off_c, 0, 70, 62
1, 34218, Note_off_c, 0, 80, 60
1, 34231, Note_off_c, 0, 82, 62
1, 34254, Note_on_c, 0, 65, 53
1, 34298, Note_on_c, 0, 62, 75
1, 34368, Note_on_c, 0, 72, 89
1, 34371, Note_on_c, 0, 84, 90
1, 34373, Note_on_c, 0, 68, 77
1, 34397, Note_off_c, 0, 65, 38
1, 34397, Note_off_c, 0, 84, 62
1, 34402, Note_off_c, 0, 72, 66
1, 34423, Note_off_c, 0, 68, 62
1, 34561, Note_on_c, 0, 65, 66
1, 34589, Note_off_c, 0, 58, 37
1, 34590, Note_off_c, 0, 65, 67
1, 34602, Note_off_c, 0, 62, 50
1, 34625, Note_on_c, 0, 80, 94
1, 34651, Note_on_c, 0, 68, 61
1, 34668, Note_off_c, 0, 68, 67
1, 34710, Note_off_c, 0, 80, 62
1, 34904, Note_on_c, 0, 39, 66
1, 34907, Note_on_c, 0, 46, 54
1, 34909, Control_c, 0, 64, 88
1, 34923, Control_c, 0, 64, 57
1, 34938, Control_c, 0, 64, 0
1, 34944, Note_on_c, 0, 82, 91
1, 34954, Note_on_c, 0, 79, 69
1, 34965, Note_on_c, 0, 70, 71
1, 34983, Control_c, 0, 64, 69
1, 34997, Control_c, 0, 64, 89
1, 35012, Control_c, 0, 64, 127
1, 35014, Note_off_c, 0, 46, 62
1, 35020, Note_off_c, 0, 39, 59
1, 35069, Note_off_c, 0, 70, 56
1, 35076, Note_off_c, 0, 79, 53
1, 35081, Note_off_c, 0, 82, 56
1, 35228, Note_on_c, 0, 77, 65
1, 35236, Note_on_c, 0, 51, 69
1, 35259, Note_on_c, 0, 80, 55
1, 35278, Poly_aftertouch_c, 0, 68, 127
1, 35295, Note_on_c, 0, 58, 56
1, 35304, Note_off_c, 0, 77, 60
1, 35313, Note_on_c, 0, 82, 77
1, 35317, Note_off_c, 0, 51, 60
1, 35322, Note_off_c, 0, 80, 0
1, 35325, Poly_aftertouch_c, 0, 68, 0
1, 35335, Note_on_c, 0, 80, 64
1, 35343, Note_off_c, 0, 82, 63
1, 35347, Note_on_c, 0, 55, 51
1, 35358, Note_on_c, 0, 63, 62
1, 35362, Note_off_c, 0, 58, 59
1, 35372, Note_off_c, 0, 80, 61
1, 35375, Note_off_c, 0, 55, 56
1, 35386, Note_off_c, 0, 63, 65
1, 35437, Note_on_c, 0, 79, 84
1, 35439, Note_on_c, 0, 55, 72
1, 35445, Note_on_c, 0, 67, 73
1, 35445, Note_on_c, 0, 75, 67
1, 35469, Note_off_c, 0, 67, 68
1, 35469, Note_off_c, 0, 75, 68
1, 35482, Note_off_c, 0, 79, 57
1, 35498, Note_off_c, 0, 55, 64
1, 35531, Note_on_c, 0, 63, 64
1, 35600, Note_on_c, 0, 58, 71
1, 35611, Note_off_c, 0, 63, 59
1, 35671, Note_on_c, 0, 67, 69
1, 35680, Note_off_c, 0, 58, 63
1, 35719, Note_off_c, 0, 67, 57
1, 35731, Note_on_c, 0, 63, 74
1, 35820, Note_on_c, 0, 70, 82
1, 35836, Note_on_c, 0, 89, 97
1, 35839, Note_off_c, 0, 63, 60
1, 35842, Note_on_c, 0, 77, 88
1, 35882, Note_off_c, 0, 70, 58
1, 35895, Note_off_c, 0, 77, 60
1, 35970, Note_off_c, 0, 89, 55
1, 36082, Note_on_c, 0, 58, 73
1, 36116, Note_on_c, 0, 79, 96
1, 36116, Note_on_c, 0, 91, 97
1, 36139, Note_off_c, 0, 58, 63
1, 36146, Note_off_c, 0, 79, 61
1, 36156, Note_off_c, 0, 91, 66
1, 36326, Note_on_c, 0, 92, 55
1, 36346, Control_c, 0, 64, 112
1, 36354, Note_off_c, 0, 92, 64
1, 36361, Control_c, 0, 64, 72
1, 36364, Note_on_c, 0, 94, 84
1, 36375, Control_c, 0, 64, 0
1, 36378, Note_on_c, 0, 46, 79
1, 36381, Note_on_c, 0, 39, 78
1, 36386, Note_on_c, 0, 80, 70
1, 36410, Note_on_c, 0, 92, 82
1, 36413, Note_off_c, 0, 94, 67
1, 36420, Control_c, 0, 64, 65
1, 36432, Note_off_c, 0, 92, 70
1, 36434, Note_off_c, 0, 80, 63
1, 36435, Control_c, 0, 64, 84
1, 36436, Note_off_c, 0, 39, 58
1, 36438, Note_off_c, 0, 46, 62
1, 36450, Control_c, 0, 64, 127
1, 36713, Note_on_c, 0, 53, 61
1, 36721, Note_on_c, 0, 89, 86
1, 36732, Note_on_c, 0, 77, 74
1, 36747, Note_off_c, 0, 89, 62
1, 36757, Note_off_c, 0, 77, 68
1, 36781, Note_off_c, 0, 53, 65
1, 36793, Note_on_c, 0, 58, 69
1, 36856, Note_off_c, 0, 58, 61
1, 36858, Note_on_c, 0, 56, 70
1, 36925, Note_on_c, 0, 62, 62
1, 36928, Note_on_c, 0, 74, 85
1, 36933, Note_on_c, 0, 86, 74
1, 36942, Note_off_c, 0, 56, 60
1, 36948, Note_off_c, 0, 86, 69
1, 36954, Note_off_c, 0, 74, 66
1, 36971, Note_off_c, 0, 62, 60
1, 36992, Note_on_c, 0, 58, 66
1, 37028, Note_off_c, 0, 58, 60
1, 37048, Note_on_c, 0, 62, 69
1, 37072, Note_off_c, 0, 62, 67
1, 37135, Note_on_c, 0, 70, 81
1, 37135, Note_on_c, 0, 82, 83
1, 37137, Note_on_c, 0, 80, 75
1, 37139, Note_on_c, 0, 74, 74
1, 37139, Control_c, 0, 64, 92
1, 37151, Note_on_c, 0, 58, 71
1, 37154, Control_c, 0, 64, 65
1, 37169, Control_c, 0, 64, 0
1, 37196, Note_off_c, 0, 70, 63
1, 37198, Note_off_c, 0, 74, 63
1, 37198, Control_c, 0, 64, 49
1, 37213, Control_c, 0, 64, 73
1, 37225, Note_off_c, 0, 80, 56
1, 37228, Note_off_c, 0, 82, 62
1, 37228, Control_c, 0, 64, 91
1, 37232, Note_on_c, 0, 65, 60
1, 37243, Control_c, 0, 64, 127
1, 37281, Note_on_c, 0, 62, 77
1, 37356, Note_on_c, 0, 68, 83
1, 37356, Note_off_c, 0, 65, 39
1, 37362, Note_on_c, 0, 84, 85
1, 37364, Note_on_c, 0, 72, 85
1, 37395, Note_off_c, 0, 84, 60
1, 37401, Note_off_c, 0, 72, 65
1, 37422, Note_off_c, 0, 68, 55
1, 37591, Note_on_c, 0, 65, 65
1, 37645, Note_off_c, 0, 58, 50
1, 37666, Note_on_c, 0, 68, 96
1, 37666, Note_off_c, 0, 65, 60
1, 37685, Note_off_c, 0, 62, 37
1, 37687, Note_on_c, 0, 80, 73
1, 37735, Note_off_c, 0, 68, 57
1, 37768, Note_off_c, 0, 80, 57
1, 37997, Note_on_c, 0, 39, 52
1, 38005, Note_on_c, 0, 46, 55
1, 38052, Control_c, 0, 64, 98
1, 38066, Control_c, 0, 64, 79
1, 38081, Note_on_c, 0, 70, 73
1, 38081, Control_c, 0, 64, 58
1, 38096, Note_on_c, 0, 82, 67
1, 38096, Control_c, 0, 64, 0
1, 38128, Note_on_c, 0, 79, 40
1, 38155, Control_c, 0, 64, 51
1, 38165, Note_off_c, 0, 79, 52
1, 38168, Note_off_c, 0, 39, 59
1, 38170, Control_c, 0, 64, 71
1, 38172, Note_off_c, 0, 82, 59
1, 38178, Note_off_c, 0, 46, 62
1, 38193, Control_c, 0, 64, 84
1, 38208, Control_c, 0, 64, 103
1, 38223, Control_c, 0, 64, 116
1, 38238, Control_c, 0, 64, 117
1, 38253, Control_c, 0, 64, 118
1, 38265, Note_off_c, 0, 70, 59
1, 38268, Control_c, 0, 64, 122
1, 38283, Control_c, 0, 64, 127
1, 38436, Note_on_c, 0, 51, 58
1, 38483, Note_on_c, 0, 68, 59
1, 38499, Note_on_c, 0, 80, 45
1, 38500, Note_on_c, 0, 77, 50
1, 38513, Note_off_c, 0, 68, 60
1, 38532, Note_on_c, 0, 58, 48
1, 38539, Note_on_c, 0, 70, 72
1, 38549, Control_c, 0, 64, 114
1, 38562, Note_off_c, 0, 77, 58
1, 38563, Control_c, 0, 64, 96
1, 38578, Control_c, 0, 64, 76
1, 38579, Note_on_c, 0, 68, 69
1, 38581, Note_off_c, 0, 80, 57
1, 38593, Control_c, 0, 64, 57
1, 38594, Note_on_c, 0, 55, 49
1, 38596, Note_off_c, 0, 70, 63
1, 38604, Note_off_c, 0, 68, 68
1, 38608, Control_c, 0, 64, 0
1, 38633, Note_on_c, 0, 63, 52
1, 38662, Note_on_c, 0, 67, 72
1, 38663, Note_off_c, 0, 51, 58
1, 38665, Note_on_c, 0, 75, 58
1, 38668, Note_on_c, 0, 79, 68
1, 38668, Control_c, 0, 64, 55
1, 38668, Note_off_c, 0, 58, 52
1, 38674, Note_off_c, 0, 55, 62
1, 38682, Control_c, 0, 64, 67
1, 38697, Control_c, 0, 64, 72
1, 38700, Note_off_c, 0, 63, 62
1, 38712, Control_c, 0, 64, 75
1, 38727, Control_c, 0, 64, 78
1, 38742, Control_c, 0, 64, 82
1, 38757, Control_c, 0, 64, 86
1, 38771, Control_c, 0, 64, 93
1, 38772, Note_off_c, 0, 79, 0
1, 38772, Note_on_c, 0, 79, 15
1, 38786, Control_c, 0, 64, 99
1, 38788, Note_off_c, 0, 67, 45
1, 38796, Note_on_c, 0, 55, 59
1, 38801, Control_c, 0, 64, 105
1, 38816, Control_c, 0, 64, 112
1, 38831, Control_c, 0, 64, 127
1, 38838, Note_off_c, 0, 55, 63
1, 38844, Note_off_c, 0, 75, 55
1, 38855, Note_off_c, 0, 79, 49
1, 38874, Note_on_c, 0, 63, 55
1, 38927, Note_off_c, 0, 63, 51
1, 38956, Note_on_c, 0, 58, 58
1, 39009, Note_off_c, 0, 58, 55
1, 39016, Note_on_c, 0, 67, 29
1, 39059, Note_off_c, 0, 67, 49
1, 39091, Note_on_c, 0, 63, 48
1, 39190, Note_on_c, 0, 70, 54
1, 39224, Control_c, 0, 64, 92
1, 39238, Note_on_c, 0, 82, 77
1, 39239, Control_c, 0, 64, 69
1, 39247, Note_on_c, 0, 77, 64
1, 39254, Control_c, 0, 64, 0
1, 39278, Note_off_c, 0, 63, 37
1, 39283, Control_c, 0, 64, 48
1, 39298, Control_c, 0, 64, 70
1, 39312, Control_c, 0, 64, 84
1, 39327, Control_c, 0, 64, 102
1, 39331, Note_off_c, 0, 82, 64
1, 39338, Note_off_c, 0, 77, 38
1, 39342, Control_c, 0, 64, 127
1, 39348, Note_on_c, 0, 79, 63
1, 39381, Note_off_c, 0, 79, 61
1, 39395, Note_on_c, 0, 80, 58
1, 39452, Note_on_c, 0, 58, 68
1, 39461, Note_on_c, 0, 84, 73
1, 39463, Note_off_c, 0, 80, 62
1, 39471, Note_on_c, 0, 79, 70
1, 39500, Note_off_c, 0, 79, 61
1, 39508, Note_off_c, 0, 58, 56
1, 39517, Note_off_c, 0, 84, 62
1, 39533, Note_on_c, 0, 77, 71
1, 39562, Note_off_c, 0, 77, 64
1, 39610, Note_off_c, 0, 70, 38
1, 39616, Note_on_c, 0, 75, 69
1, 39639, Note_off_c, 0, 75, 68
1, 39683, Control_c, 0, 64, 84
1, 39695, Note_on_c, 0, 63, 63
1, 39705, Control_c, 0, 64, 19
1, 39708, Note_on_c, 0, 85, 86
1, 39720, Control_c, 0, 64, 0
1, 39722, Note_on_c, 0, 73, 73
1, 39727, Note_on_c, 0, 68, 56
1, 39750, Control_c, 0, 64, 55
1, 39752, Note_on_c, 0, 70, 62
1, 39759, Note_off_c, 0, 73, 59
1, 39765, Control_c, 0, 64, 81
1, 39779, Control_c, 0, 64, 115
1, 39788, Note_off_c, 0, 85, 61
1, 39794, Control_c, 0, 64, 127
1, 39794, Note_off_c, 0, 70, 60
1, 39830, Note_on_c, 0, 67, 70
1, 39831, Note_off_c, 0, 63, 57
1, 39851, Note_off_c, 0, 68, 39
1, 39900, Note_off_c, 0, 67, 54
1, 39910, Note_on_c, 0, 73, 76
1, 39936, Note_on_c, 0, 75, 89
1, 39936, Note_on_c, 0, 87, 94
1, 39938, Note_on_c, 0, 65, 47
1, 39942, Note_off_c, 0, 73, 63
1, 39976, Note_off_c, 0, 65, 65
1, 39979, Note_off_c, 0, 75, 64
1, 39997, Note_off_c, 0, 87, 64
1, 40081, Note_on_c, 0, 63, 20
1, 40094, Note_on_c, 0, 61, 59
1, 40125, Note_off_c, 0, 63, 53
1, 40128, Note_off_c, 0, 61, 61
1, 40160, Note_on_c, 0, 89, 89
1, 40163, Note_on_c, 0, 77, 81
1, 40167, Note_on_c, 0, 51, 71
1, 40187, Note_off_c, 0, 77, 67
1, 40204, Note_off_c, 0, 89, 64
1, 40215, Note_off_c, 0, 51, 65
1, 40230, Note_on_c, 0, 61, 68
1, 40288, Note_off_c, 0, 61, 62
1, 40313, Note_on_c, 0, 67, 63
1, 40348, Note_off_c, 0, 67, 58
1, 40388, Control_c, 0, 64, 108
1, 40402, Note_on_c, 0, 60, 79
1, 40402, Control_c, 0, 64, 71
1, 40415, Note_on_c, 0, 92, 92
1, 40416, Note_on_c, 0, 80, 85
1, 40417, Control_c, 0, 64, 0
1, 40420, Note_on_c, 0, 87, 77
1, 40468, Control_c, 0, 64, 70
1, 40480, Note_off_c, 0, 80, 63
1, 40483, Control_c, 0, 64, 99
1, 40486, Note_off_c, 0, 60, 62
1, 40496, Note_off_c, 0, 87, 61
1, 40498, Control_c, 0, 64, 127
1, 40507, Note_off_c, 0, 92, 67
1, 40512, Note_on_c, 0, 68, 71
1, 40584, Note_off_c, 0, 68, 62
1, 40587, Note_on_c, 0, 75, 72
1, 40601, Note_on_c, 0, 82, 71
1, 40644, Note_off_c, 0, 75, 60
1, 40659, Note_off_c, 0, 82, 64
1, 40665, Note_on_c, 0, 94, 99
1, 40709, Note_off_c, 0, 94, 67
1, 40720, Note_on_c, 0, 68, 62
1, 40799, Note_on_c, 0, 60, 58
1, 40801, Note_off_c, 0, 68, 60
1, 40829, Note_off_c, 0, 60, 65
1, 40867, Note_on_c, 0, 87, 82
1, 40930, Note_on_c, 0, 99, 104
1, 40945, Note_on_c, 0, 65, 58
1, 40951, Note_off_c, 0, 87, 66
1, 40975, Note_off_c, 0, 65, 65
1, 41007, Note_off_c, 0, 99, 64
1, 41049, Note_on_c, 0, 60, 39
1, 41080, Note_off_c, 0, 60, 55
1, 41148, Note_on_c, 0, 51, 15
1, 41206, Note_off_c, 0, 51, 54
1, 41336, Control_c, 0, 64, 79
1, 41341, Note_on_c, 0, 34, 81
1, 41345, Note_on_c, 0, 98, 87
1, 41350, Note_on_c, 0, 92, 74
1, 41351, Note_on_c, 0, 86, 80
1, 41351, Control_c, 0, 64, 0
1, 41411, Control_c, 0, 64, 63
1, 41416, Note_off_c, 0, 98, 63
1, 41426, Control_c, 0, 64, 75
1, 41441, Control_c, 0, 64, 95
1, 41442, Note_off_c, 0, 92, 65
1, 41456, Control_c, 0, 64, 127
1, 41462, Note_off_c, 0, 34, 59
1, 41520, Note_off_c, 0, 86, 64
1, 41777, Note_on_c, 0, 67, 71
1, 41781, Note_on_c, 0, 58, 60
1, 41804, Note_on_c, 0, 84, 60
1, 41852, Note_off_c, 0, 84, 54
1, 41881, Note_on_c, 0, 82, 67
1, 41946, Note_off_c, 0, 82, 62
1, 41978, Note_on_c, 0, 80, 61
1, 41999, Note_off_c, 0, 58, 38
1, 42048, Note_on_c, 0, 68, 84
1, 42064, Note_off_c, 0, 67, 57
1, 42065, Note_on_c, 0, 62, 61
1, 42067, Note_off_c, 0, 80, 44
1, 42069, Note_on_c, 0, 89, 77
1, 42099, Note_on_c, 0, 77, 46
1, 42143, Note_off_c, 0, 68, 61
1, 42143, Note_off_c, 0, 62, 35
1, 42156, Note_off_c, 0, 77, 0
1, 42156, Note_on_c, 0, 77, 17
1, 42352, Control_c, 0, 64, 87
1, 42358, Note_on_c, 0, 70, 75
1, 42358, Note_off_c, 0, 77, 52
1, 42363, Note_on_c, 0, 62, 38
1, 42367, Control_c, 0, 64, 66
1, 42382, Control_c, 0, 64, 0
1, 42387, Note_off_c, 0, 89, 55
1, 42401, Note_off_c, 0, 62, 61
1, 42412, Control_c, 0, 64, 63
1, 42426, Control_c, 0, 64, 76
1, 42441, Note_off_c, 0, 70, 61
1, 42441, Control_c, 0, 64, 93
1, 42456, Control_c, 0, 64, 127
1, 42582, Note_on_c, 0, 70, 23
1, 42618, Note_on_c, 0, 73, 60
1, 42619, Control_c, 0, 64, 115
1, 42624, Note_off_c, 0, 70, 52
1, 42634, Control_c, 0, 64, 84
1, 42649, Control_c, 0, 64, 66
1, 42652, Note_on_c, 0, 71, 50
1, 42663, Control_c, 0, 64, 0
1, 42665, Note_on_c, 0, 91, 77
1, 42665, Note_on_c, 0, 79, 69
1, 42665, Note_off_c, 0, 73, 59
1, 42716, Control_c, 0, 64, 64
1, 42731, Note_off_c, 0, 71, 65
1, 42731, Note_off_c, 0, 79, 59
1, 42731, Control_c, 0, 64, 75
1, 42745, Control_c, 0, 64, 86
1, 42760, Control_c, 0, 64, 98
1, 42775, Control_c, 0, 64, 106
1, 42790, Control_c, 0, 64, 127
1, 42803, Note_off_c, 0, 91, 64
1, 43028, Control_c, 0, 64, 123
1, 43031, Note_on_c, 0, 92, 65
1, 43032, Note_on_c, 0, 70, 34
1, 43037, Note_on_c, 0, 80, 58
1, 43042, Control_c, 0, 64, 85
1, 43044, Note_on_c, 0, 68, 29
1, 43056, Note_on_c, 0, 62, 25
1, 43057, Control_c, 0, 64, 69
1, 43058, Note_on_c, 0, 58, 37
1, 43072, Control_c, 0, 64, 47
1, 43086, Control_c, 0, 64, 29
1, 43101, Control_c, 0, 64, 60
1, 43103, Note_off_c, 0, 80, 60
1, 43106, Note_off_c, 0, 70, 61
1, 43116, Control_c, 0, 64, 70
1, 43131, Control_c, 0, 64, 82
1, 43146, Control_c, 0, 64, 98
1, 43159, Note_off_c, 0, 68, 38
1, 43160, Control_c, 0, 64, 112
1, 43172, Note_off_c, 0, 62, 35
1, 43175, Control_c, 0, 64, 127
1, 43179, Note_off_c, 0, 58, 51
1, 43553, Note_off_c, 0, 92, 62
1, 43568, Control_c, 0, 64, 123
1, 43571, Note_on_c, 0, 94, 63
1, 43571, Note_on_c, 0, 36, 44
1, 43583, Note_on_c, 0, 88, 52
1, 43583, Control_c, 0, 64, 90
1, 43591, Note_on_c, 0, 82, 38
1, 43598, Control_c, 0, 64, 71
1, 43613, Control_c, 0, 64, 0
1, 43658, Control_c, 0, 67, 10
1, 43673, Control_c, 0, 64, 56
1, 43673, Control_c, 0, 67, 14
1, 43687, Control_c, 0, 64, 69
1, 43687, Control_c, 0, 67, 17
1, 43701, Note_off_c, 0, 36, 53
1, 43702, Control_c, 0, 64, 80
1, 43702, Control_c, 0, 67, 21
1, 43717, Control_c, 0, 64, 91
1, 43717, Control_c, 0, 67, 25
1, 43732, Control_c, 0, 64, 96
1, 43732, Control_c, 0, 67, 27
1, 43747, Control_c, 0, 64, 99
1, 43747, Control_c, 0, 67, 29
1, 43761, Control_c, 0, 64, 104
1, 43776, Control_c, 0, 64, 112
1, 43776, Control_c, 0, 67, 29
1, 43791, Control_c, 0, 64, 127
1, 43807, Control_c, 0, 67, 30
1, 43822, Control_c, 0, 67, 31
1, 43836, Control_c, 0, 67, 34
1, 43851, Control_c, 0, 67, 37
1, 43866, Control_c, 0, 67, 42
1, 43881, Control_c, 0, 67, 48
1, 43896, Control_c, 0, 67, 53
1, 43910, Control_c, 0, 67, 58
1, 43911, Note_off_c, 0, 88, 44
1, 43925, Control_c, 0, 67, 64
1, 43928, Note_off_c, 0, 82, 45
1, 43934, Note_off_c, 0, 94, 53
1, 43940, Control_c, 0, 67, 72
1, 43955, Control_c, 0, 67, 81
1, 43970, Control_c, 0, 67, 92
1, 43984, Control_c, 0, 67, 101
1, 43999, Control_c, 0, 67, 110
1, 44014, Control_c, 0, 67, 117
1, 44028, Control_c, 0, 67, 123
1, 44043, Control_c, 0, 67, 127
1, 44083, Note_on_c, 0, 67, 44
1, 44084, Note_on_c, 0, 58, 44
1, 44090, Note_on_c, 0, 64, 38
1, 44104, Note_on_c, 0, 60, 32
1, 44158, Note_on_c, 0, 84, 44
1, 44192, Note_off_c, 0, 84, 61
1, 44200, Note_on_c, 0, 85, 56
1, 44215, Note_off_c, 0, 67, 43
1, 44220, Note_off_c, 0, 85, 64
1, 44223, Note_on_c, 0, 87, 65
1, 44227, Note_off_c, 0, 64, 36
1, 44243, Note_off_c, 0, 87, 68
1, 44251, Note_off_c, 0, 60, 40
1, 44306, Note_on_c, 0, 97, 80
1, 44315, Note_on_c, 0, 85, 9
1, 44319, Note_off_c, 0, 58, 42
1, 44343, Note_off_c, 0, 97, 55
1, 44370, Note_off_c, 0, 85, 43
1, 44569, Control_c, 0, 64, 105
1, 44583, Control_c, 0, 64, 75
1, 44598, Control_c, 0, 64, 0
1, 44606, Note_on_c, 0, 41, 59
1, 44620, Note_on_c, 0, 96, 75
1, 44632, Note_on_c, 0, 84, 58
1, 44637, Note_off_c, 0, 41, 63
1, 44644, Control_c, 0, 64, 61
1, 44658, Control_c, 0, 64, 79
1, 44662, Note_off_c, 0, 96, 61
1, 44673, Control_c, 0, 64, 104
1, 44674, Note_off_c, 0, 84, 62
1, 44688, Control_c, 0, 64, 127
1, 44895, Note_on_c, 0, 57, 51
1, 44912, Note_on_c, 0, 93, 67
1, 44919, Note_on_c, 0, 81, 66
1, 44930, Note_off_c, 0, 57, 63
1, 44932, Note_on_c, 0, 63, 35
1, 44932, Note_on_c, 0, 67, 30
1, 44936, Note_off_c, 0, 93, 67
1, 44953, Note_off_c, 0, 81, 67
1, 44966, Note_off_c, 0, 63, 53
1, 44968, Note_off_c, 0, 67, 49
1, 45050, Note_on_c, 0, 69, 57
1, 45077, Note_on_c, 0, 79, 42
1, 45082, Note_off_c, 0, 69, 65
1, 45094, Control_c, 0, 64, 103
1, 45103, Note_on_c, 0, 81, 61
1, 45104, Note_on_c, 0, 70, 49
1, 45104, Note_off_c, 0, 79, 56
1, 45109, Control_c, 0, 64, 89
1, 45121, Note_off_c, 0, 81, 64
1, 45124, Control_c, 0, 64, 78
1, 45129, Note_off_c, 0, 70, 58
1, 45139, Control_c, 0, 64, 66
1, 45139, Note_on_c, 0, 72, 38
1, 45154, Control_c, 0, 64, 47
1, 45169, Note_on_c, 0, 79, 29
1, 45169, Control_c, 0, 64, 0
1, 45176, Note_off_c, 0, 72, 51
1, 45194, Note_on_c, 0, 70, 31
1, 45205, Note_off_c, 0, 79, 52
1, 45220, Note_on_c, 0, 89, 52
1, 45224, Note_off_c, 0, 70, 51
1, 45236, Note_on_c, 0, 77, 30
1, 45240, Note_on_c, 0, 69, 46
1, 45272, Control_c, 0, 64, 27
1, 45280, Note_off_c, 0, 77, 0
1, 45280, Note_on_c, 0, 77, 6
1, 45282, Note_off_c, 0, 89, 0
1, 45287, Control_c, 0, 64, 64
1, 45299, Note_on_c, 0, 89, 36
1, 45302, Control_c, 0, 64, 72
1, 45317, Control_c, 0, 64, 80
1, 45329, Note_off_c, 0, 69, 63
1, 45331, Control_c, 0, 64, 93
1, 45346, Control_c, 0, 64, 103
1, 45361, Control_c, 0, 64, 113
1, 45376, Control_c, 0, 64, 127
1, 45413, Note_off_c, 0, 77, 45
1, 45488, Note_off_c, 0, 89, 45
1, 45725, Control_c, 0, 64, 94
1, 45735, Note_on_c, 0, 34, 45
1, 45740, Control_c, 0, 64, 75
1, 45754, Control_c, 0, 64, 51
1, 45769, Control_c, 0, 64, 0
1, 45799, Control_c, 0, 64, 62
1, 45813, Control_c, 0, 64, 77
1, 45828, Control_c, 0, 64, 94
1, 45833, Note_off_c, 0, 34, 58
1, 45843, Control_c, 0, 64, 127
1, 46081, Note_on_c, 0, 58, 43
1, 46117, Note_on_c, 0, 68, 40
1, 46146, Note_off_c, 0, 58, 55
1, 46247, Note_off_c, 0, 68, 56
1, 46311, Note_on_c, 0, 72, 46
1, 46404, Note_on_c, 0, 79, 24
1, 46415, Note_off_c, 0, 72, 49
1, 46453, Note_off_c, 0, 79, 50
1, 46501, Note_on_c, 0, 72, 36
1, 46525, Note_off_c, 0, 72, 59
1, 46582, Note_on_c, 0, 82, 66
1, 46592, Poly_aftertouch_c, 0, 74, 127
1, 46602, Note_off_c, 0, 82, 67
1, 46618, Poly_aftertouch_c, 0, 74, 0
1, 46621, Note_on_c, 0, 72, 35
1, 46650, Note_off_c, 0, 72, 54
1, 46677, Note_on_c, 0, 80, 45
1, 46691, Note_on_c, 0, 92, 63
1, 46693, Note_on_c, 0, 70, 46
1, 46705, Note_on_c, 0, 68, 33
1, 46709, Note_on_c, 0, 62, 39
1, 46730, Note_off_c, 0, 70, 63
1, 46740, Note_off_c, 0, 80, 61
1, 46746, Note_off_c, 0, 68, 55
1, 46749, Note_off_c, 0, 92, 54
1, 46754, Note_off_c, 0, 62, 60
1, 46960, Note_on_c, 0, 94, 62
1, 46991, Control_c, 0, 64, 86
1, 46993, Note_on_c, 0, 82, 51
1, 46998, Note_on_c, 0, 39, 58
1, 47007, Control_c, 0, 64, 62
1, 47022, Control_c, 0, 64, 0
1, 47046, Note_off_c, 0, 94, 63
1, 47051, Control_c, 0, 64, 60
1, 47066, Control_c, 0, 64, 74
1, 47081, Control_c, 0, 64, 93
1, 47094, Note_off_c, 0, 39, 57
1, 47096, Control_c, 0, 64, 127
1, 47135, Note_off_c, 0, 82, 57
1, 47199, Note_on_c, 0, 83, 50
1, 47223, Note_off_c, 0, 83, 62
1, 47301, Note_on_c, 0, 83, 40
1, 47360, Note_off_c, 0, 83, 0
1, 47360, Note_on_c, 0, 83, 34
1, 47362, Note_on_c, 0, 95, 78
1, 47367, Note_on_c, 0, 65, 44
1, 47369, Note_on_c, 0, 55, 41
1, 47390, Note_on_c, 0, 63, 38
1, 47420, Note_on_c, 0, 61, 21
1, 47431, Note_off_c, 0, 83, 45
1, 47447, Note_off_c, 0, 55, 56
1, 47448, Note_off_c, 0, 63, 55
1, 47453, Note_off_c, 0, 65, 61
1, 47469, Note_off_c, 0, 61, 48
1, 47676, Note_on_c, 0, 61, 42
1, 47682, Note_on_c, 0, 67, 51
1, 47714, Note_off_c, 0, 95, 65
1, 47717, Note_on_c, 0, 94, 78
1, 47718, Note_off_c, 0, 67, 63
1, 47736, Note_on_c, 0, 82, 53
1, 47760, Note_off_c, 0, 61, 54
1, 48060, Control_c, 0, 64, 110
1, 48075, Control_c, 0, 64, 82
1, 48088, Note_on_c, 0, 32, 47
1, 48090, Control_c, 0, 64, 57
1, 48105, Control_c, 0, 64, 0
1, 48135, Control_c, 0, 64, 52
1, 48149, Control_c, 0, 64, 70
1, 48164, Control_c, 0, 64, 83
1, 48177, Note_off_c, 0, 32, 59
1, 48179, Control_c, 0, 64, 103
1, 48194, Control_c, 0, 64, 119
1, 48208, Note_off_c, 0, 82, 57
1, 48208, Control_c, 0, 64, 127
1, 48209, Note_off_c, 0, 94, 57
1, 48487, Note_on_c, 0, 92, 61
1, 48497, Note_on_c, 0, 63, 46
1, 48502, Note_on_c, 0, 60, 42
1, 48505, Note_on_c, 0, 80, 49
1, 48526, Note_off_c, 0, 92, 63
1, 48544, Note_off_c, 0, 60, 63
1, 48547, Note_off_c, 0, 63, 56
1, 48551, Note_off_c, 0, 80, 62
1, 48756, Note_on_c, 0, 65, 43
1, 48785, Note_off_c, 0, 65, 61
1, 48812, Note_on_c, 0, 67, 50
1, 48852, Note_off_c, 0, 67, 60
1, 48929, Note_on_c, 0, 80, 54
1, 48936, Note_on_c, 0, 65, 32
1, 48954, Note_on_c, 0, 75, 32
1, 48958, Control_c, 0, 64, 92
1, 48972, Control_c, 0, 64, 76
1, 48987, Note_on_c, 0, 71, 9
1, 48987, Control_c, 0, 64, 67
1, 49002, Control_c, 0, 67, 123
1, 49017, Control_c, 0, 64, 73
1, 49017, Control_c, 0, 67, 111
1, 49031, Control_c, 0, 64, 83
1, 49031, Control_c, 0, 67, 98
1, 49036, Note_off_c, 0, 71, 50
1, 49046, Note_off_c, 0, 65, 59
1, 49046, Control_c, 0, 64, 92
1, 49046, Control_c, 0, 67, 81
1, 49054, Note_off_c, 0, 80, 50
1, 49061, Control_c, 0, 64, 95
1, 49061, Control_c, 0, 67, 65
1, 49076, Control_c, 0, 64, 98
1, 49076, Control_c, 0, 67, 47
1, 49091, Control_c, 0, 64, 101
1, 49091, Control_c, 0, 67, 28
1, 49105, Control_c, 0, 64, 103
1, 49105, Control_c, 0, 67, 8
1, 49120, Control_c, 0, 64, 105
1, 49120, Control_c, 0, 67, 0
1, 49135, Control_c, 0, 64, 108
1, 49150, Control_c, 0, 64, 111
1, 49165, Control_c, 0, 64, 115
1, 49179, Control_c, 0, 64, 119
1, 49194, Control_c, 0, 64, 127
1, 49528, Control_c, 0, 64, 122
1, 49543, Control_c, 0, 64, 97
1, 49553, Note_on_c, 0, 34, 46
1, 49558, Control_c, 0, 64, 79
1, 49560, Note_on_c, 0, 79, 67
1, 49573, Control_c, 0, 64, 63
1, 49588, Control_c, 0, 64, 0
1, 49596, Note_off_c, 0, 75, 44
1, 49599, Note_on_c, 0, 70, 37
1, 49617, Control_c, 0, 64, 47
1, 49632, Control_c, 0, 64, 68
1, 49646, Control_c, 0, 64, 80
1, 49651, Note_off_c, 0, 34, 60
1, 49661, Control_c, 0, 64, 93
1, 49676, Control_c, 0, 64, 104
1, 49686, Note_off_c, 0, 79, 56
1, 49691, Control_c, 0, 64, 109
1, 49692, Note_off_c, 0, 70, 62
1, 49706, Control_c, 0, 64, 114
1, 49721, Control_c, 0, 64, 119
1, 49736, Control_c, 0, 64, 127
1, 49891, Note_on_c, 0, 62, 54
1, 49891, Note_on_c, 0, 75, 66
1, 49900, Note_on_c, 0, 67, 64
1, 49916, Note_off_c, 0, 75, 68
1, 49929, Note_off_c, 0, 67, 64
1, 49950, Note_off_c, 0, 62, 50
1, 49984, Note_on_c, 0, 60, 50
1, 50019, Note_off_c, 0, 60, 65
1, 50035, Note_on_c, 0, 62, 55
1, 50072, Note_off_c, 0, 62, 60
1, 50087, Note_on_c, 0, 60, 63
1, 50091, Control_c, 0, 64, 107
1, 50106, Control_c, 0, 64, 82
1, 50120, Control_c, 0, 64, 64
1, 50135, Control_c, 0, 64, 0
1, 50140, Note_off_c, 0, 60, 58
1, 50146, Note_on_c, 0, 72, 72
1, 50160, Note_on_c, 0, 58, 54
1, 50177, Note_on_c, 0, 68, 45
1, 50177, Note_on_c, 0, 63, 56
1, 50187, Control_c, 0, 64, 64
1, 50204, Control_c, 0, 64, 75
1, 50206, Note_off_c, 0, 58, 63
1, 50207, Note_off_c, 0, 68, 56
1, 50219, Control_c, 0, 64, 84
1, 50233, Control_c, 0, 64, 93
1, 50248, Control_c, 0, 64, 97
1, 50253, Note_off_c, 0, 72, 60
1, 50263, Control_c, 0, 64, 98
1, 50277, Control_c, 0, 64, 101
1, 50293, Control_c, 0, 64, 103
1, 50308, Control_c, 0, 64, 105
1, 50323, Control_c, 0, 64, 107
1, 50338, Control_c, 0, 64, 108
1, 50352, Control_c, 0, 64, 109
1, 50382, Control_c, 0, 64, 108
1, 50441, Control_c, 0, 64, 108
1, 50456, Control_c, 0, 64, 104
1, 50459, Note_off_c, 0, 63, 58
1, 50466, Note_on_c, 0, 68, 69
1, 50470, Control_c, 0, 64, 94
1, 50473, Note_on_c, 0, 53, 48
1, 50478, Note_on_c, 0, 60, 56
1, 50485, Control_c, 0, 64, 81
1, 50500, Control_c, 0, 64, 67
1, 50515, Control_c, 0, 64, 0
1, 50581, Note_off_c, 0, 60, 59
1, 50597, Note_off_c, 0, 68, 57
1, 50724, Note_off_c, 0, 53, 60
1, 50844, Note_on_c, 0, 56, 29
1, 50851, Note_on_c, 0, 70, 44
1, 50874, Note_on_c, 0, 62, 26
1, 50937, Control_c, 0, 64, 49
1, 50952, Control_c, 0, 64, 64
1, 50967, Control_c, 0, 64, 68
1, 50982, Control_c, 0, 64, 70
1, 50997, Control_c, 0, 64, 73
1, 51012, Control_c, 0, 64, 77
1, 51026, Control_c, 0, 64, 84
1, 51026, Control_c, 0, 67, 10
1, 51041, Control_c, 0, 64, 92
1, 51041, Control_c, 0, 67, 21
1, 51056, Control_c, 0, 64, 99
1, 51056, Control_c, 0, 67, 31
1, 51071, Control_c, 0, 64, 104
1, 51071, Control_c, 0, 67, 38
1, 51073, Note_off_c, 0, 56, 42
1, 51086, Control_c, 0, 64, 109
1, 51086, Control_c, 0, 67, 44
1, 51100, Control_c, 0, 64, 116
1, 51100, Control_c, 0, 67, 52
1, 51115, Control_c, 0, 64, 127
1, 51115, Control_c, 0, 67, 60
1, 51130, Control_c, 0, 67, 68
1, 51145, Control_c, 0, 67, 78
1, 51160, Control_c, 0, 67, 88
1, 51174, Control_c, 0, 67, 97
1, 51189, Control_c, 0, 67, 109
1, 51204, Control_c, 0, 67, 122
1, 51218, Control_c, 0, 67, 127
1, 51288, Note_off_c, 0, 70, 37
1, 51290, Note_on_c, 0, 46, 36
1, 51332, Note_off_c, 0, 62, 39
1, 51444, Note_off_c, 0, 46, 44
1, 51606, Note_on_c, 0, 68, 55
1, 51611, Note_on_c, 0, 58, 47
1, 51645, Note_off_c, 0, 68, 58
1, 51658, Note_off_c, 0, 58, 51
1, 51660, Note_on_c, 0, 70, 60
1, 51685, Control_c, 0, 64, 124
1, 51700, Control_c, 0, 64, 98
1, 51703, Note_off_c, 0, 70, 61
1, 51714, Poly_aftertouch_c, 0, 68, 127
1, 51715, Control_c, 0, 64, 81
1, 51730, Control_c, 0, 64, 64
1, 51734, Note_on_c, 0, 67, 63
1, 51736, Poly_aftertouch_c, 0, 68, 0
1, 51744, Control_c, 0, 64, 0
1, 51749, Note_on_c, 0, 46, 44
1, 51758, Note_on_c, 0, 63, 58
1, 51763, Note_off_c, 0, 67, 65
1, 51773, Note_on_c, 0, 39, 25
1, 51782, Note_off_c, 0, 63, 64
1, 51983, Control_c, 0, 64, 45
1, 51997, Control_c, 0, 64, 65
1, 52012, Control_c, 0, 64, 70
1, 52027, Control_c, 0, 64, 74
1, 52041, Control_c, 0, 64, 77
1, 52056, Control_c, 0, 64, 81
1, 52071, Control_c, 0, 64, 86
1, 52073, Note_off_c, 0, 39, 51
1, 52073, Note_off_c, 0, 46, 52
1, 52086, Control_c, 0, 64, 93
1, 52101, Control_c, 0, 64, 98
1, 52115, Control_c, 0, 64, 103
1, 52117, Note_on_c, 0, 63, 56
1, 52130, Control_c, 0, 64, 108
1, 52132, Note_on_c, 0, 55, 51
1, 52145, Control_c, 0, 64, 115
1, 52160, Control_c, 0, 64, 127
1, 52165, Note_off_c, 0, 55, 64
1, 52212, Note_off_c, 0, 63, 38
1, 52432, Note_on_c, 0, 63, 34
1, 52464, Poly_aftertouch_c, 0, 55, 127
1, 52485, Note_off_c, 0, 63, 51
1, 52509, Poly_aftertouch_c, 0, 55, 0
1, 52522, Note_on_c, 0, 67, 49
1, 52538, Note_on_c, 0, 58, 24
1, 52588, Note_off_c, 0, 58, 47
1, 52601, Note_off_c, 0, 67, 37
1, 52686, Note_on_c, 0, 70, 49
1, 52692, Note_on_c, 0, 63, 43
1, 52768, Note_off_c, 0, 63, 40
1, 52961, Note_on_c, 0, 58, 45
1, 52971, Note_on_c, 0, 67, 26
1, 53001, Note_off_c, 0, 58, 57
1, 53005, Note_off_c, 0, 67, 51
1, 53258, Note_on_c, 0, 55, 48
1, 53262, Note_on_c, 0, 63, 34
1, 53298, Note_off_c, 0, 63, 53
1, 53300, Note_off_c, 0, 55, 62
1, 53474, Note_on_c, 0, 46, 58
1, 53479, Note_on_c, 0, 39, 52
1, 53518, Note_off_c, 0, 46, 62
1, 53518, Note_off_c, 0, 39, 52
1, 53569, Control_c, 0, 67, 126
1, 53584, Control_c, 0, 67, 111
1, 53599, Control_c, 0, 67, 94
1, 53614, Control_c, 0, 67, 76
1, 53629, Control_c, 0, 67, 59
1, 53644, Control_c, 0, 67, 42
1, 53659, Control_c, 0, 67, 28
1, 53673, Control_c, 0, 67, 12
1, 53688, Control_c, 0, 67, 0
1, 53784, Note_on_c, 0, 63, 70
1, 53803, Note_on_c, 0, 55, 55
1, 53826, Note_off_c, 0, 70, 38
1, 53846, Note_on_c, 0, 75, 43
1, 53992, Note_off_c, 0, 75, 54
1, 53994, Note_on_c, 0, 68, 54
1, 53999, Note_off_c, 0, 55, 54
1, 54039, Note_off_c, 0, 68, 57
1, 54099, Note_off_c, 0, 63, 38
1, 54111, Note_on_c, 0, 69, 29
1, 54147, Note_on_c, 0, 70, 57
1, 54148, Note_off_c, 0, 69, 52
1, 54174, Note_off_c, 0, 70, 65
1, 54193, Note_on_c, 0, 72, 59
1, 54208, Note_on_c, 0, 63, 76
1, 54215, Control_c, 0, 64, 106
1, 54224, Note_off_c, 0, 72, 65
1, 54230, Control_c, 0, 64, 80
1, 54244, Control_c, 0, 64, 64
1, 54249, Note_on_c, 0, 70, 60
1, 54259, Control_c, 0, 64, 44
1, 54274, Control_c, 0, 64, 60
1, 54289, Control_c, 0, 64, 70
1, 54304, Control_c, 0, 64, 80
1, 54317, Note_off_c, 0, 70, 60
1, 54318, Control_c, 0, 64, 91
1, 54333, Control_c, 0, 64, 99
1, 54348, Control_c, 0, 64, 105
1, 54354, Note_on_c, 0, 69, 58
1, 54363, Control_c, 0, 64, 110
1, 54378, Control_c, 0, 64, 115
1, 54392, Control_c, 0, 64, 127
1, 54430, Note_on_c, 0, 70, 69
1, 54454, Note_off_c, 0, 63, 48
1, 54468, Note_off_c, 0, 69, 36
1, 54504, Note_off_c, 0, 70, 62
1, 54505, Note_on_c, 0, 79, 71
1, 54527, Note_off_c, 0, 79, 68
1, 54588, Note_on_c, 0, 62, 65
1, 54598, Note_on_c, 0, 75, 59
1, 54648, Note_off_c, 0, 75, 57
1, 54653, Note_off_c, 0, 62, 60
1, 54678, Note_on_c, 0, 82, 61
1, 54707, Note_off_c, 0, 82, 61
1, 54735, Note_on_c, 0, 65, 78
1, 54744, Note_on_c, 0, 87, 60
1, 54762, Note_off_c, 0, 65, 64
1, 54791, Note_off_c, 0, 87, 60
1, 54829, Control_c, 0, 64, 121
1, 54843, Control_c, 0, 64, 109
1, 54853, Note_on_c, 0, 80, 62
1, 54858, Control_c, 0, 64, 98
1, 54873, Control_c, 0, 64, 88
1, 54878, Poly_aftertouch_c, 0, 79, 127
1, 54885, Note_off_c, 0, 80, 61
1, 54888, Control_c, 0, 64, 77
1, 54902, Poly_aftertouch_c, 0, 79, 0
1, 54903, Control_c, 0, 64, 65
1, 54917, Control_c, 0, 64, 0
1, 54922, Note_on_c, 0, 46, 64
1, 54940, Note_on_c, 0, 81, 54
1, 54950, Note_on_c, 0, 55, 59
1, 54965, Note_off_c, 0, 81, 56
1, 54966, Note_off_c, 0, 46, 62
1, 54976, Control_c, 0, 64, 59
1, 54986, Note_on_c, 0, 82, 64
1, 54992, Control_c, 0, 64, 71
1, 55007, Control_c, 0, 64, 80
1, 55012, Note_off_c, 0, 55, 62
1, 55022, Control_c, 0, 64, 90
1, 55030, Note_off_c, 0, 82, 57
1, 55037, Control_c, 0, 64, 99
1, 55052, Note_on_c, 0, 84, 65
1, 55052, Control_c, 0, 64, 104
1, 55055, Note_on_c, 0, 63, 83
1, 55066, Control_c, 0, 64, 110
1, 55081, Control_c, 0, 64, 119
1, 55084, Note_off_c, 0, 84, 63
1, 55096, Control_c, 0, 64, 127
1, 55109, Note_off_c, 0, 63, 60
1, 55110, Note_on_c, 0, 82, 61
1, 55149, Note_off_c, 0, 82, 60
1, 55173, Note_on_c, 0, 81, 65
1, 55234, Note_off_c, 0, 81, 58
1, 55255, Note_on_c, 0, 82, 70
1, 55332, Note_on_c, 0, 91, 68
1, 55341, Note_off_c, 0, 82, 57
1, 55414, Note_off_c, 0, 91, 60
1, 55429, Control_c, 0, 64, 93
1, 55437, Note_on_c, 0, 87, 65
1, 55444, Control_c, 0, 64, 67
1, 55446, Note_on_c, 0, 46, 73
1, 55459, Control_c, 0, 64, 0
1, 55464, Note_off_c, 0, 87, 59
1, 55474, Note_on_c, 0, 53, 59
1, 55489, Control_c, 0, 64, 55
1, 55504, Control_c, 0, 64, 74
1, 55519, Control_c, 0, 64, 88
1, 55520, Note_on_c, 0, 79, 17
1, 55534, Note_off_c, 0, 46, 62
1, 55534, Control_c, 0, 64, 108
1, 55548, Control_c, 0, 64, 127
1, 55569, Note_off_c, 0, 79, 50
1, 55593, Note_off_c, 0, 53, 64
1, 55656, Note_on_c, 0, 62, 76
1, 55671, Note_on_c, 0, 94, 69
1, 55685, Note_on_c, 0, 86, 56
1, 55727, Note_off_c, 0, 86, 59
1, 55741, Note_off_c, 0, 94, 55
1, 55766, Note_on_c, 0, 87, 63
1, 55799, Note_off_c, 0, 87, 66
1, 55822, Note_on_c, 0, 84, 65
1, 55851, Note_off_c, 0, 84, 64
1, 55913, Note_on_c, 0, 58, 88
1, 55915, Note_on_c, 0, 86, 70
1, 55918, Note_on_c, 0, 89, 54
1, 55925, Note_off_c, 0, 62, 40
1, 55949, Note_off_c, 0, 89, 54
1, 55972, Note_off_c, 0, 86, 64
1, 55979, Note_off_c, 0, 58, 61
1, 55981, Note_on_c, 0, 84, 71
1, 56005, Note_off_c, 0, 84, 66
1, 56043, Note_on_c, 0, 79, 72
1, 56072, Note_off_c, 0, 79, 60
1, 56124, Note_on_c, 0, 82, 67
1, 56136, Note_on_c, 0, 74, 65
1, 56173, Note_off_c, 0, 82, 51
1, 56198, Note_off_c, 0, 74, 65
1, 56207, Note_on_c, 0, 75, 74
1, 56212, Note_on_c, 0, 60, 74
1, 56231, Note_off_c, 0, 75, 67
1, 56246, Note_off_c, 0, 60, 62
1, 56261, Note_on_c, 0, 72, 64
1, 56279, Note_off_c, 0, 72, 66
1, 56327, Note_on_c, 0, 55, 37
1, 56342, Note_on_c, 0, 46, 70
1, 56372, Note_on_c, 0, 51, 67
1, 56379, Note_off_c, 0, 55, 0
1, 56386, Control_c, 0, 64, 108
1, 56395, Note_on_c, 0, 55, 43
1, 56401, Control_c, 0, 64, 84
1, 56416, Control_c, 0, 64, 67
1, 56428, Note_on_c, 0, 61, 83
1, 56431, Control_c, 0, 64, 0
1, 56462, Note_on_c, 0, 65, 53
1, 56489, Note_off_c, 0, 61, 58
1, 56500, Note_off_c, 0, 65, 62
1, 56538, Note_on_c, 0, 66, 49
1, 56565, Note_off_c, 0, 66, 62
1, 56610, Control_c, 0, 64, 64
1, 56625, Control_c, 0, 64, 74
1, 56634, Note_on_c, 0, 67, 60
1, 56639, Control_c, 0, 64, 85
1, 56654, Control_c, 0, 64, 95
1, 56657, Note_off_c, 0, 46, 62
1, 56667, Note_off_c, 0, 55, 62
1, 56669, Control_c, 0, 64, 100
1, 56672, Note_off_c, 0, 67, 59
1, 56684, Control_c, 0, 64, 104
1, 56699, Control_c, 0, 64, 107
1, 56702, Note_off_c, 0, 51, 61
1, 56713, Control_c, 0, 64, 113
1, 56728, Control_c, 0, 64, 124
1, 56743, Control_c, 0, 64, 127
1, 56744, Note_on_c, 0, 63, 78
1, 56758, Note_on_c, 0, 72, 44
1, 56794, Note_off_c, 0, 72, 57
1, 56828, Note_off_c, 0, 63, 54
1, 56839, Note_on_c, 0, 75, 55
1, 56888, Note_off_c, 0, 75, 52
1, 56939, Note_on_c, 0, 73, 55
1, 57013, Note_off_c, 0, 73, 57
1, 57023, Note_on_c, 0, 82, 52
1, 57070, Note_off_c, 0, 82, 46
1, 57093, Note_on_c, 0, 75, 63
1, 57117, Note_off_c, 0, 75, 68
1, 57194, Note_on_c, 0, 67, 55
1, 57196, Note_on_c, 0, 44, 66
1, 57209, Control_c, 0, 64, 111
1, 57224, Control_c, 0, 64, 82
1, 57239, Control_c, 0, 64, 63
1, 57251, Note_on_c, 0, 51, 58
1, 57254, Control_c, 0, 64, 0
1, 57256, Note_off_c, 0, 67, 55
1, 57283, Control_c, 0, 64, 62
1, 57298, Control_c, 0, 64, 71
1, 57310, Note_off_c, 0, 44, 63
1, 57313, Control_c, 0, 64, 81
1, 57328, Control_c, 0, 64, 89
1, 57343, Control_c, 0, 64, 95
1, 57357, Control_c, 0, 64, 98
1, 57372, Control_c, 0, 64, 101
1, 57388, Control_c, 0, 64, 103
1, 57394, Note_off_c, 0, 51, 63
1, 57403, Control_c, 0, 64, 106
1, 57410, Note_on_c, 0, 60, 80
1, 57417, Control_c, 0, 64, 110
1, 57432, Control_c, 0, 64, 114
1, 57441, Note_on_c, 0, 67, 51
1, 57447, Control_c, 0, 64, 119
1, 57456, Note_on_c, 0, 75, 45
1, 57462, Control_c, 0, 64, 127
1, 57500, Note_off_c, 0, 67, 51
1, 57542, Note_on_c, 0, 68, 52
1, 57575, Note_off_c, 0, 75, 34
1, 57647, Note_on_c, 0, 70, 56
1, 57648, Note_off_c, 0, 68, 55
1, 57707, Note_off_c, 0, 70, 55
1, 57766, Note_off_c, 0, 60, 58
1, 57792, Note_on_c, 0, 56, 72
1, 57796, Note_on_c, 0, 71, 52
1, 57868, Control_c, 0, 64, 97
1, 57882, Note_off_c, 0, 71, 59
1, 57882, Control_c, 0, 64, 75
1, 57897, Control_c, 0, 64, 58
1, 57899, Note_on_c, 0, 72, 50
1, 57912, Control_c, 0, 64, 0
1, 57930, Note_off_c, 0, 72, 65
1, 57942, Control_c, 0, 64, 43
1, 57957, Note_on_c, 0, 75, 63
1, 57957, Control_c, 0, 64, 66
1, 57972, Control_c, 0, 64, 76
1, 57983, Note_off_c, 0, 75, 67
1, 57986, Control_c, 0, 64, 83
1, 58001, Control_c, 0, 64, 89
1, 58005, Note_off_c, 0, 56, 63
1, 58016, Control_c, 0, 64, 92
1, 58029, Note_on_c, 0, 73, 59
1, 58031, Control_c, 0, 64, 95
1, 58046, Control_c, 0, 64, 98
1, 58051, Note_off_c, 0, 73, 61
1, 58060, Control_c, 0, 64, 101
1, 58063, Note_on_c, 0, 75, 67
1, 58075, Control_c, 0, 64, 104
1, 58081, Note_off_c, 0, 75, 65
1, 58090, Control_c, 0, 64, 107
1, 58104, Control_c, 0, 64, 108
1, 58118, Note_on_c, 0, 73, 56
1, 58119, Control_c, 0, 64, 109
1, 58131, Note_on_c, 0, 58, 56
1, 58134, Control_c, 0, 64, 110
1, 58139, Note_off_c, 0, 73, 62
1, 58156, Note_off_c, 0, 58, 64
1, 58163, Note_on_c, 0, 72, 60
1, 58197, Note_off_c, 0, 72, 56
1, 58239, Note_on_c, 0, 84, 64
1, 58254, Control_c, 0, 64, 109
1, 58269, Control_c, 0, 64, 108
1, 58283, Control_c, 0, 64, 106
1, 58286, Note_on_c, 0, 45, 60
1, 58298, Control_c, 0, 64, 104
1, 58308, Note_on_c, 0, 50, 46
1, 58313, Control_c, 0, 64, 101
1, 58328, Note_on_c, 0, 54, 42
1, 58328, Control_c, 0, 64, 99
1, 58343, Control_c, 0, 64, 96
1, 58357, Control_c, 0, 64, 94
1, 58372, Control_c, 0, 64, 90
1, 58387, Control_c, 0, 64, 86
1, 58409, Control_c, 0, 64, 79
1, 58424, Control_c, 0, 64, 69
1, 58436, Note_off_c, 0, 84, 60
1, 58439, Control_c, 0, 64, 42
1, 58452, Note_on_c, 0, 60, 59
1, 58454, Control_c, 0, 64, 0
1, 58458, Note_on_c, 0, 83, 56
1, 58473, Note_on_c, 0, 59, 41
1, 58491, Note_off_c, 0, 60, 66
1, 58502, Note_off_c, 0, 59, 52
1, 58520, Note_off_c, 0, 83, 54
1, 58536, Note_on_c, 0, 81, 56
1, 58567, Note_off_c, 0, 81, 66
1, 58616, Control_c, 0, 64, 19
1, 58631, Control_c, 0, 64, 66
1, 58638, Note_off_c, 0, 45, 54
1, 58646, Control_c, 0, 64, 77
1, 58648, Note_on_c, 0, 74, 43
1, 58661, Control_c, 0, 64, 87
1, 58665, Note_off_c, 0, 50, 64
1, 58676, Control_c, 0, 64, 96
1, 58678, Note_off_c, 0, 54, 46
1, 58690, Control_c, 0, 64, 100
1, 58705, Control_c, 0, 64, 103
1, 58712, Note_off_c, 0, 74, 53
1, 58720, Control_c, 0, 64, 107
1, 58735, Control_c, 0, 64, 115
1, 58750, Control_c, 0, 64, 127
1, 58756, Note_on_c, 0, 62, 62
1, 58756, Note_on_c, 0, 73, 43
1, 58795, Note_off_c, 0, 62, 58
1, 58811, Note_off_c, 0, 73, 45
1, 58854, Note_on_c, 0, 72, 46
1, 58889, Note_off_c, 0, 72, 50
1, 58937, Note_on_c, 0, 81, 50
1, 58975, Note_off_c, 0, 81, 61
1, 59004, Note_on_c, 0, 78, 53
1, 59044, Note_off_c, 0, 78, 60
1, 59091, Note_on_c, 0, 69, 55
1, 59128, Note_off_c, 0, 69, 62
1, 59129, Note_on_c, 0, 43, 47
1, 59146, Note_on_c, 0, 50, 41
1, 59206, Note_on_c, 0, 66, 55
1, 59372, Note_off_c, 0, 66, 57
1, 59373, Note_on_c, 0, 59, 72
1, 59394, Note_on_c, 0, 65, 58
1, 59395, Control_c, 0, 64, 104
1, 59410, Control_c, 0, 64, 83
1, 59425, Control_c, 0, 64, 70
1, 59439, Control_c, 0, 64, 65
1, 59454, Control_c, 0, 64, 66
1, 59469, Control_c, 0, 64, 73
1, 59480, Note_off_c, 0, 59, 63
1, 59484, Control_c, 0, 64, 80
1, 59499, Control_c, 0, 64, 88
1, 59504, Note_off_c, 0, 43, 0
1, 59507, Note_off_c, 0, 65, 55
1, 59513, Control_c, 0, 64, 92
1, 59528, Control_c, 0, 64, 95
1, 59530, Note_on_c, 0, 67, 48
1, 59543, Poly_aftertouch_c, 0, 43, 127
1, 59543, Control_c, 0, 64, 98
1, 59558, Control_c, 0, 64, 101
1, 59570, Note_on_c, 0, 74, 61
1, 59573, Control_c, 0, 64, 103
1, 59573, Note_off_c, 0, 67, 59
1, 59588, Control_c, 0, 64, 106
1, 59602, Control_c, 0, 64, 109
1, 59617, Control_c, 0, 64, 111
1, 59632, Control_c, 0, 64, 113
1, 59647, Control_c, 0, 64, 117
1, 59662, Control_c, 0, 64, 121
1, 59671, Note_off_c, 0, 74, 61
1, 59677, Control_c, 0, 64, 122
1, 59696, Note_on_c, 0, 71, 61
1, 59706, Control_c, 0, 64, 114
1, 59712, Note_on_c, 0, 55, 69
1, 59721, Control_c, 0, 64, 95
1, 59731, Note_off_c, 0, 71, 64
1, 59736, Control_c, 0, 64, 77
1, 59750, Control_c, 0, 64, 61
1, 59751, Note_on_c, 0, 72, 67
1, 59765, Control_c, 0, 64, 0
1, 59796, Control_c, 0, 64, 50
1, 59811, Control_c, 0, 64, 68
1, 59814, Note_off_c, 0, 72, 62
1, 59826, Control_c, 0, 64, 75
1, 59830, Note_on_c, 0, 71, 44
1, 59841, Control_c, 0, 64, 75
1, 59855, Control_c, 0, 64, 71
1, 59856, Note_off_c, 0, 71, 58
1, 59856, Note_on_c, 0, 70, 62
1, 59870, Control_c, 0, 64, 65
1, 59885, Control_c, 0, 64, 62
1, 59907, Control_c, 0, 64, 61
1, 59909, Note_off_c, 0, 70, 55
1, 59922, Control_c, 0, 64, 65
1, 59929, Note_on_c, 0, 71, 70
1, 59936, Control_c, 0, 64, 72
1, 59951, Control_c, 0, 64, 82
1, 59966, Control_c, 0, 64, 96
1, 59981, Control_c, 0, 64, 113
1, 59987, Note_off_c, 0, 71, 55
1, 59987, Note_off_c, 0, 50, 66
1, 59995, Poly_aftertouch_c, 0, 43, 0
1, 59996, Control_c, 0, 64, 127
1, 60020, Note_off_c, 0, 55, 65
1, 60036, Note_on_c, 0, 79, 64
1, 60148, Note_on_c, 0, 56, 65
1, 60172, Note_off_c, 0, 79, 59
1, 60188, Note_on_c, 0, 72, 69
1, 60190, Note_off_c, 0, 56, 60
1, 60220, Note_on_c, 0, 58, 73
1, 60255, Note_off_c, 0, 72, 62
1, 60284, Note_off_c, 0, 58, 59
1, 60287, Note_on_c, 0, 56, 73
1, 60341, Note_off_c, 0, 56, 62
1, 60342, Note_on_c, 0, 65, 64
1, 60359, Note_on_c, 0, 55, 75
1, 60422, Note_off_c, 0, 55, 63
1, 60432, Note_on_c, 0, 56, 81
1, 60467, Note_off_c, 0, 56, 58
1, 60614, Note_on_c, 0, 58, 84
1, 60634, Note_on_c, 0, 46, 68
1, 60634, Control_c, 0, 64, 101
1, 60642, Note_on_c, 0, 50, 53
1, 60657, Control_c, 0, 64, 75
1, 60661, Note_on_c, 0, 67, 59
1, 60662, Note_off_c, 0, 65, 56
1, 60665, Note_on_c, 0, 56, 41
1, 60672, Control_c, 0, 64, 28
1, 60686, Control_c, 0, 64, 0
1, 60746, Control_c, 0, 64, 65
1, 60760, Control_c, 0, 64, 75
1, 60769, Note_on_c, 0, 68, 59
1, 60775, Control_c, 0, 64, 83
1, 60780, Note_off_c, 0, 67, 57
1, 60790, Control_c, 0, 64, 90
1, 60804, Control_c, 0, 64, 95
1, 60819, Control_c, 0, 64, 99
1, 60831, Note_on_c, 0, 70, 72
1, 60834, Control_c, 0, 64, 108
1, 60846, Note_off_c, 0, 68, 64
1, 60849, Control_c, 0, 64, 121
1, 60855, Note_off_c, 0, 70, 69
1, 60864, Control_c, 0, 64, 127
1, 60909, Note_on_c, 0, 72, 80
1, 60977, Note_off_c, 0, 72, 56
1, 60994, Note_on_c, 0, 74, 79
1, 61057, Note_off_c, 0, 74, 65
1, 61059, Note_on_c, 0, 75, 81
1, 61109, Note_off_c, 0, 75, 64
1, 61146, Note_on_c, 0, 77, 85
1, 61173, Note_off_c, 0, 58, 57
1, 61191, Note_off_c, 0, 56, 49
1, 61206, Note_off_c, 0, 50, 53
1, 61216, Note_off_c, 0, 46, 60
1, 61220, Note_off_c, 0, 77, 61
1, 61239, Note_on_c, 0, 78, 85
1, 61325, Note_on_c, 0, 82, 92
1, 61336, Note_off_c, 0, 78, 61
1, 61397, Note_off_c, 0, 82, 66
1, 61486, Note_on_c, 0, 39, 73
1, 61567, Note_on_c, 0, 87, 93
1, 61567, Control_c, 0, 64, 118
1, 61582, Note_on_c, 0, 82, 76
1, 61582, Note_on_c, 0, 75, 77
1, 61582, Control_c, 0, 64, 72
1, 61583, Note_on_c, 0, 79, 79
1, 61597, Control_c, 0, 64, 0
1, 61656, Control_c, 0, 64, 68
1, 61671, Control_c, 0, 64, 83
1, 61686, Control_c, 0, 64, 112
1, 61701, Control_c, 0, 64, 127
1, 61707, Note_off_c, 0, 39, 59
1, 61710, Note_on_c, 0, 46, 63
1, 61758, Note_off_c, 0, 46, 62
1, 61776, Note_off_c, 0, 82, 59
1, 61799, Note_off_c, 0, 75, 53
1, 61804, Note_on_c, 0, 55, 68
1, 61804, Note_off_c, 0, 87, 59
1, 61823, Note_off_c, 0, 79, 53
1, 61867, Note_off_c, 0, 55, 61
1, 61916, Note_on_c, 0, 54, 58
1, 61922, Note_on_c, 0, 87, 94
1, 61940, Note_on_c, 0, 82, 66
1, 61945, Note_on_c, 0, 79, 66
1, 61954, Note_on_c, 0, 75, 66
1, 61994, Note_off_c, 0, 54, 64
1, 61995, Note_on_c, 0, 58, 71
1, 62021, Note_off_c, 0, 58, 66
1, 62071, Note_off_c, 0, 87, 63
1, 62074, Note_off_c, 0, 75, 61
1, 62094, Note_on_c, 0, 55, 70
1, 62095, Note_off_c, 0, 82, 33
1, 62109, Note_off_c, 0, 79, 38
1, 62169, Note_off_c, 0, 55, 63
1, 62172, Note_on_c, 0, 63, 73
1, 62230, Note_on_c, 0, 58, 71
1, 62248, Note_off_c, 0, 63, 56
1, 62281, Note_on_c, 0, 67, 71
1, 62306, Note_off_c, 0, 67, 67
1, 62309, Note_off_c, 0, 58, 60
1, 62312, Note_on_c, 0, 86, 84
1, 62315, Note_on_c, 0, 74, 84
1, 62334, Note_on_c, 0, 79, 59
1, 62339, Note_off_c, 0, 74, 67
1, 62357, Note_off_c, 0, 86, 63
1, 62364, Note_off_c, 0, 79, 65
1, 62428, Note_on_c, 0, 43, 76
1, 62433, Note_on_c, 0, 87, 95
1, 62435, Note_on_c, 0, 82, 77
1, 62435, Control_c, 0, 64, 94
1, 62442, Note_on_c, 0, 79, 76
1, 62443, Note_on_c, 0, 75, 79
1, 62449, Control_c, 0, 64, 11
1, 62464, Control_c, 0, 64, 0
1, 62509, Control_c, 0, 64, 56
1, 62512, Note_off_c, 0, 79, 61
1, 62517, Note_off_c, 0, 75, 59
1, 62524, Control_c, 0, 64, 80
1, 62539, Control_c, 0, 64, 100
1, 62542, Note_off_c, 0, 87, 64
1, 62553, Note_on_c, 0, 51, 70
1, 62553, Note_off_c, 0, 43, 61
1, 62554, Control_c, 0, 64, 122
1, 62568, Control_c, 0, 64, 127
1, 62586, Note_off_c, 0, 82, 60
1, 62606, Note_on_c, 0, 55, 66
1, 62610, Note_off_c, 0, 51, 61
1, 62633, Note_off_c, 0, 55, 66
1, 62708, Note_on_c, 0, 55, 63
1, 62719, Note_on_c, 0, 89, 93
1, 62723, Note_on_c, 0, 77, 85
1, 62764, Note_off_c, 0, 77, 62
1, 62768, Note_off_c, 0, 89, 64
1, 62784, Note_off_c, 0, 55, 62
1, 62790, Note_on_c, 0, 63, 71
1, 62864, Note_on_c, 0, 58, 73
1, 62874, Note_off_c, 0, 63, 60
1, 62927, Note_on_c, 0, 67, 63
1, 62936, Note_off_c, 0, 58, 62
1, 62947, Note_off_c, 0, 67, 64
1, 62993, Note_on_c, 0, 63, 66
1, 63057, Note_on_c, 0, 70, 63
1, 63065, Note_off_c, 0, 63, 57
1, 63076, Note_off_c, 0, 70, 64
1, 63090, Note_on_c, 0, 87, 90
1, 63094, Note_on_c, 0, 75, 85
1, 63143, Note_off_c, 0, 75, 63
1, 63156, Note_off_c, 0, 87, 65
1, 63237, Note_on_c, 0, 41, 68
1, 63244, Control_c, 0, 64, 107
1, 63251, Note_on_c, 0, 86, 88
1, 63254, Note_on_c, 0, 82, 74
1, 63259, Control_c, 0, 64, 71
1, 63261, Note_on_c, 0, 80, 68
1, 63262, Note_on_c, 0, 74, 76
1, 63273, Control_c, 0, 64, 0
1, 63317, Note_off_c, 0, 80, 62
1, 63318, Note_off_c, 0, 82, 64
1, 63318, Control_c, 0, 64, 66
1, 63319, Note_off_c, 0, 86, 58
1, 63332, Control_c, 0, 64, 82
1, 63336, Note_off_c, 0, 74, 62
1, 63343, Note_off_c, 0, 41, 63
1, 63347, Control_c, 0, 64, 108
1, 63352, Note_on_c, 0, 46, 63
1, 63362, Control_c, 0, 64, 127
1, 63409, Note_off_c, 0, 46, 61
1, 63434, Note_on_c, 0, 56, 53
1, 63460, Note_off_c, 0, 56, 59
1, 63514, Note_on_c, 0, 82, 91
1, 63525, Note_on_c, 0, 80, 76
1, 63526, Note_on_c, 0, 70, 81
1, 63531, Note_on_c, 0, 74, 74
1, 63537, Note_on_c, 0, 56, 48
1, 63571, Note_off_c, 0, 74, 60
1, 63577, Note_off_c, 0, 56, 50
1, 63581, Note_off_c, 0, 70, 61
1, 63596, Note_on_c, 0, 62, 58
1, 63602, Note_off_c, 0, 80, 57
1, 63617, Note_off_c, 0, 82, 60
1, 63662, Note_off_c, 0, 62, 59
1, 63683, Note_on_c, 0, 58, 64
1, 63729, Note_on_c, 0, 65, 56
1, 63755, Note_off_c, 0, 65, 63
1, 63768, Note_off_c, 0, 58, 38
1, 63789, Note_on_c, 0, 62, 54
1, 63878, Note_on_c, 0, 70, 56
1, 63889, Note_off_c, 0, 62, 61
1, 63897, Note_off_c, 0, 70, 65
1, 63911, Note_on_c, 0, 84, 80
1, 63913, Note_on_c, 0, 72, 75
1, 63938, Note_off_c, 0, 72, 65
1, 63980, Note_off_c, 0, 84, 58
1, 64077, Note_on_c, 0, 40, 54
1, 64094, Note_on_c, 0, 86, 77
1, 64097, Control_c, 0, 64, 99
1, 64105, Note_on_c, 0, 74, 67
1, 64107, Note_on_c, 0, 80, 59
1, 64111, Control_c, 0, 64, 72
1, 64126, Control_c, 0, 64, 0
1, 64185, Control_c, 0, 64, 62
1, 64200, Control_c, 0, 64, 74
1, 64206, Note_off_c, 0, 40, 63
1, 64210, Note_on_c, 0, 47, 34
1, 64215, Control_c, 0, 64, 89
1, 64229, Control_c, 0, 64, 117
1, 64235, Note_off_c, 0, 74, 58
1, 64244, Control_c, 0, 64, 127
1, 64262, Note_off_c, 0, 47, 61
1, 64262, Note_off_c, 0, 86, 52
1, 64300, Note_on_c, 0, 54, 55
1, 64330, Note_off_c, 0, 54, 65
1, 64374, Note_off_c, 0, 80, 62
1, 64427, Note_on_c, 0, 76, 35
1, 64454, Note_on_c, 0, 47, 48
1, 64494, Note_on_c, 0, 88, 78
1, 64514, Note_off_c, 0, 47, 60
1, 64568, Note_on_c, 0, 56, 51
1, 64604, Note_off_c, 0, 56, 64
1, 64664, Note_on_c, 0, 62, 60
1, 64680, Note_off_c, 0, 88, 54
1, 64691, Note_off_c, 0, 62, 63
1, 64706, Note_off_c, 0, 76, 44
1, 64752, Note_on_c, 0, 52, 61
1, 64786, Note_off_c, 0, 52, 63
1, 64800, Note_on_c, 0, 62, 41
1, 64914, Note_off_c, 0, 62, 51
1, 64916, Note_on_c, 0, 68, 28
1, 64938, Note_on_c, 0, 86, 79
1, 64948, Note_on_c, 0, 74, 62
1, 64954, Note_off_c, 0, 68, 52
1, 64968, Note_off_c, 0, 74, 64
1, 64972, Note_off_c, 0, 86, 56
1, 65103, Note_on_c, 0, 40, 67
1, 65106, Note_on_c, 0, 85, 81
1, 65111, Control_c, 0, 64, 84
1, 65126, Note_on_c, 0, 79, 56
1, 65126, Control_c, 0, 64, 61
1, 65141, Control_c, 0, 64, 0
1, 65162, Note_on_c, 0, 73, 58
1, 65177, Note_off_c, 0, 79, 61
1, 65178, Control_c, 0, 64, 67
1, 65193, Note_off_c, 0, 85, 61
1, 65193, Control_c, 0, 64, 83
1, 65208, Control_c, 0, 64, 127
1, 65209, Note_off_c, 0, 40, 60
1, 65221, Note_on_c, 0, 45, 66
1, 65227, Note_off_c, 0, 73, 63
1, 65284, Note_off_c, 0, 45, 63
1, 65335, Note_on_c, 0, 55, 38
1, 65369, Note_off_c, 0, 55, 51
1, 65411, Note_on_c, 0, 81, 86
1, 65420, Note_on_c, 0, 69, 76
1, 65421, Note_on_c, 0, 79, 71
1, 65425, Note_on_c, 0, 73, 72
1, 65437, Note_on_c, 0, 52, 44
1, 65442, Note_on_c, 0, 50, 37
1, 65469, Note_off_c, 0, 52, 54
1, 65479, Note_off_c, 0, 50, 55
1, 65557, Poly_aftertouch_c, 0, 54, 0
1, 65561, Note_off_c, 0, 69, 54
1, 65563, Note_on_c, 0, 61, 66
1, 65584, Note_off_c, 0, 61, 64
1, 65609, Note_off_c, 0, 81, 61
1, 65624, Note_off_c, 0, 79, 59
1, 65628, Note_off_c, 0, 73, 61
1, 65663, Note_on_c, 0, 57, 55
1, 65696, Note_off_c, 0, 57, 65
1, 65705, Note_on_c, 0, 61, 60
1, 65743, Note_on_c, 0, 67, 58
1, 65764, Note_off_c, 0, 67, 62
1, 65764, Note_off_c, 0, 61, 61
1, 65798, Note_on_c, 0, 83, 88
1, 65811, Note_on_c, 0, 71, 73
1, 65833, Note_off_c, 0, 71, 71
1, 65859, Note_off_c, 0, 83, 62
1, 65926, Control_c, 0, 64, 90
1, 65931, Note_on_c, 0, 39, 62
1, 65932, Note_on_c, 0, 84, 85
1, 65940, Note_on_c, 0, 79, 65
1, 65941, Control_c, 0, 64, 66
1, 65950, Note_on_c, 0, 72, 61
1, 65956, Control_c, 0, 64, 0
1, 66000, Control_c, 0, 64, 65
1, 66002, Note_off_c, 0, 39, 60
1, 66016, Control_c, 0, 64, 78
1, 66018, Note_on_c, 0, 45, 58
1, 66031, Control_c, 0, 64, 92
1, 66038, Note_off_c, 0, 79, 62
1, 66046, Control_c, 0, 64, 116
1, 66061, Control_c, 0, 64, 127
1, 66107, Note_off_c, 0, 72, 44
1, 66117, Note_on_c, 0, 55, 37
1, 66150, Note_off_c, 0, 55, 50
1, 66185, Note_off_c, 0, 84, 62
1, 66220, Note_off_c, 0, 45, 34
1, 66259, Note_on_c, 0, 38, 59
1, 66269, Control_c, 0, 64, 88
1, 66270, Note_on_c, 0, 86, 81
1, 66284, Control_c, 0, 64, 66
1, 66298, Note_on_c, 0, 78, 43
1, 66298, Control_c, 0, 64, 0
1, 66301, Note_on_c, 0, 74, 35
1, 66308, Note_on_c, 0, 72, 47
1, 66342, Control_c, 0, 64, 49
1, 66354, Note_off_c, 0, 38, 64
1, 66357, Control_c, 0, 64, 68
1, 66372, Control_c, 0, 64, 79
1, 66379, Note_on_c, 0, 45, 44
1, 66387, Control_c, 0, 64, 93
1, 66402, Control_c, 0, 64, 112
1, 66405, Note_off_c, 0, 86, 63
1, 66417, Control_c, 0, 64, 127
1, 66424, Note_off_c, 0, 45, 62
1, 66459, Note_off_c, 0, 78, 62
1, 66476, Note_on_c, 0, 52, 51
1, 66478, Note_off_c, 0, 74, 44
1, 66482, Note_off_c, 0, 72, 44
1, 66507, Note_off_c, 0, 52, 61
1, 66565, Note_on_c, 0, 54, 59
1, 66625, Note_off_c, 0, 54, 60
1, 66676, Note_on_c, 0, 57, 56
1, 66760, Note_off_c, 0, 57, 38
1, 66824, Poly_aftertouch_c, 0, 62, 127
1, 66862, Poly_aftertouch_c, 0, 62, 0
1, 66982, Note_on_c, 0, 43, 61
1, 67024, Note_on_c, 0, 83, 79
1, 67033, Control_c, 0, 64, 93
1, 67047, Control_c, 0, 64, 70
1, 67062, Control_c, 0, 64, 0
1, 67073, Note_on_c, 0, 71, 43
1, 67083, Note_on_c, 0, 79, 30
1, 67092, Control_c, 0, 64, 40
1, 67107, Control_c, 0, 64, 71
1, 67117, Note_off_c, 0, 79, 58
1, 67121, Control_c, 0, 64, 86
1, 67124, Note_off_c, 0, 83, 63
1, 67129, Note_off_c, 0, 43, 53
1, 67136, Control_c, 0, 64, 106
1, 67143, Note_off_c, 0, 71, 64
1, 67151, Control_c, 0, 64, 127
1, 67169, Note_on_c, 0, 50, 54
1, 67172, Poly_aftertouch_c, 0, 74, 0
1, 67219, Note_off_c, 0, 50, 65
1, 67269, Note_on_c, 0, 57, 49
1, 67296, Note_off_c, 0, 57, 60
1, 67367, Note_on_c, 0, 79, 80
1, 67379, Note_on_c, 0, 59, 57
1, 67379, Note_on_c, 0, 67, 66
1, 67383, Note_on_c, 0, 74, 62
1, 67438, Note_off_c, 0, 59, 52
1, 67448, Note_off_c, 0, 67, 54
1, 67472, Note_on_c, 0, 62, 39
1, 67505, Note_off_c, 0, 62, 52
1, 67568, Note_on_c, 0, 67, 15
1, 67600, Note_on_c, 0, 61, 51
1, 67653, Note_off_c, 0, 61, 60
1, 67662, Control_c, 0, 64, 89
1, 67677, Control_c, 0, 64, 66
1, 67692, Control_c, 0, 64, 23
1, 67701, Note_on_c, 0, 64, 39
1, 67706, Control_c, 0, 64, 36
1, 67721, Control_c, 0, 64, 65
1, 67729, Note_off_c, 0, 64, 58
1, 67736, Control_c, 0, 64, 77
1, 67751, Control_c, 0, 64, 89
1, 67766, Control_c, 0, 64, 104
1, 67767, Note_on_c, 0, 62, 50
1, 67772, Note_off_c, 0, 74, 58
1, 67782, Control_c, 0, 64, 112
1, 67793, Note_off_c, 0, 67, 46
1, 67796, Control_c, 0, 64, 119
1, 67801, Note_off_c, 0, 79, 54
1, 67811, Control_c, 0, 64, 127
1, 67820, Note_off_c, 0, 62, 53
1, 67913, Note_on_c, 0, 59, 46
1, 67960, Note_on_c, 0, 81, 73
1, 67970, Note_on_c, 0, 69, 57
1, 67982, Note_off_c, 0, 59, 44
1, 68038, Note_off_c, 0, 69, 50
1, 68042, Note_on_c, 0, 50, 45
1, 68074, Note_off_c, 0, 50, 64
1, 68089, Note_off_c, 0, 81, 56
1, 68275, Note_on_c, 0, 83, 72
1, 68277, Control_c, 0, 64, 92
1, 68292, Control_c, 0, 64, 71
1, 68301, Note_on_c, 0, 35, 37
1, 68307, Note_on_c, 0, 71, 30
1, 68307, Control_c, 0, 64, 0
1, 68313, Note_on_c, 0, 78, 39
1, 68319, Note_on_c, 0, 69, 36
1, 68333, Note_on_c, 0, 75, 22
1, 68351, Control_c, 0, 64, 38
1, 68366, Control_c, 0, 64, 65
1, 68381, Control_c, 0, 64, 75
1, 68396, Control_c, 0, 64, 87
1, 68396, Control_c, 0, 67, 11
1, 68411, Control_c, 0, 64, 103
1, 68411, Control_c, 0, 67, 18
1, 68426, Control_c, 0, 64, 124
1, 68426, Control_c, 0, 67, 25
1, 68441, Control_c, 0, 64, 127
1, 68441, Control_c, 0, 67, 30
1, 68453, Note_on_c, 0, 47, 38
1, 68455, Note_off_c, 0, 35, 36
1, 68456, Control_c, 0, 67, 35
1, 68470, Control_c, 0, 67, 43
1, 68485, Control_c, 0, 67, 54
1, 68487, Note_off_c, 0, 47, 55
1, 68500, Control_c, 0, 67, 70
1, 68514, Control_c, 0, 67, 86
1, 68529, Control_c, 0, 67, 105
1, 68544, Control_c, 0, 67, 120
1, 68559, Control_c, 0, 67, 127
1, 68626, Note_on_c, 0, 47, 28
1, 68697, Note_off_c, 0, 47, 55
1, 68721, Note_on_c, 0, 54, 50
1, 68811, Note_off_c, 0, 54, 54
1, 68855, Note_on_c, 0, 57, 41
1, 68885, Note_off_c, 0, 57, 55
1, 69010, Note_on_c, 0, 57, 26
1, 69046, Note_off_c, 0, 69, 39
1, 69106, Note_off_c, 0, 71, 46
1, 69107, Note_off_c, 0, 83, 48
1, 69159, Note_off_c, 0, 57, 42
1, 69183, Note_on_c, 0, 59, 46
1, 69186, Note_off_c, 0, 78, 41
1, 69198, Note_off_c, 0, 75, 44
1, 69246, Note_off_c, 0, 59, 47
1, 69376, Note_on_c, 0, 63, 38
1, 69439, Note_off_c, 0, 63, 52
1, 69621, Note_on_c, 0, 66, 39
1, 69660, Note_off_c, 0, 66, 61
1, 70120, Note_on_c, 0, 76, 69
1, 70137, Note_on_c, 0, 40, 41
1, 70146, Control_c, 0, 64, 92
1, 70161, Control_c, 0, 64, 72
1, 70176, Control_c, 0, 64, 26
1, 70191, Control_c, 0, 64, 0
1, 70200, Poly_aftertouch_c, 0, 68, 127
1, 70220, Control_c, 0, 64, 53
1, 70235, Control_c, 0, 64, 70
1, 70250, Control_c, 0, 64, 81
1, 70265, Control_c, 0, 64, 92
1, 70280, Control_c, 0, 64, 101
1, 70291, Note_off_c, 0, 76, 54
1, 70295, Control_c, 0, 64, 106
1, 70309, Control_c, 0, 64, 113
1, 70324, Control_c, 0, 64, 127
1, 70356, Poly_aftertouch_c, 0, 68, 0
1, 70375, Note_on_c, 0, 69, 36
1, 70428, Note_off_c, 0, 69, 48
1, 70466, Note_on_c, 0, 68, 42
1, 70513, Note_off_c, 0, 68, 58
1, 70550, Note_on_c, 0, 66, 46
1, 70578, Note_off_c, 0, 66, 62
1, 70640, Note_on_c, 0, 64, 46
1, 70700, Note_off_c, 0, 64, 55
1, 70724, Note_on_c, 0, 47, 39
1, 70801, Note_on_c, 0, 68, 68
1, 70849, Control_c, 0, 64, 120
1, 70861, Note_on_c, 0, 61, 26
1, 70864, Control_c, 0, 64, 91
1, 70879, Control_c, 0, 64, 74
1, 70894, Control_c, 0, 64, 60
1, 70909, Control_c, 0, 64, 42
1, 70923, Control_c, 0, 64, 62
1, 70938, Control_c, 0, 64, 72
1, 70953, Control_c, 0, 64, 83
1, 70969, Control_c, 0, 64, 93
1, 70984, Control_c, 0, 64, 99
1, 70992, Note_off_c, 0, 40, 46
1, 70998, Control_c, 0, 64, 103
1, 71013, Control_c, 0, 64, 109
1, 71028, Control_c, 0, 64, 122
1, 71030, Note_on_c, 0, 63, 45
1, 71031, Note_off_c, 0, 47, 47
1, 71043, Note_off_c, 0, 61, 41
1, 71043, Control_c, 0, 64, 127
1, 71189, Note_on_c, 0, 59, 41
1, 71219, Note_off_c, 0, 59, 54
1, 71219, Note_off_c, 0, 63, 53
1, 71246, Note_off_c, 0, 68, 60
1, 71311, Note_on_c, 0, 56, 45
1, 71371, Note_on_c, 0, 64, 50
1, 71386, Note_off_c, 0, 56, 49
1, 71417, Note_off_c, 0, 64, 52
1, 71489, Note_on_c, 0, 68, 48
1, 71523, Note_off_c, 0, 68, 62
1, 71535, Note_on_c, 0, 75, 76
1, 71627, Control_c, 0, 67, 124
1, 71636, Note_on_c, 0, 71, 46
1, 71642, Control_c, 0, 67, 112
1, 71657, Control_c, 0, 67, 97
1, 71661, Note_off_c, 0, 71, 58
1, 71672, Control_c, 0, 67, 78
1, 71687, Control_c, 0, 67, 57
1, 71702, Control_c, 0, 67, 38
1, 71717, Control_c, 0, 67, 17
1, 71729, Note_on_c, 0, 44, 52
1, 71732, Control_c, 0, 67, 0
1, 71806, Note_off_c, 0, 75, 62
1, 71817, Note_on_c, 0, 78, 70
1, 71833, Note_on_c, 0, 73, 49
1, 71836, Control_c, 0, 64, 94
1, 71851, Control_c, 0, 64, 73
1, 71866, Control_c, 0, 64, 63
1, 71868, Note_off_c, 0, 73, 54
1, 71902, Control_c, 0, 64, 69
1, 71917, Control_c, 0, 64, 81
1, 71932, Control_c, 0, 64, 96
1, 71947, Note_on_c, 0, 75, 56
1, 71947, Note_off_c, 0, 78, 54
1, 71947, Control_c, 0, 64, 120
1, 71961, Control_c, 0, 64, 127
1, 71988, Note_on_c, 0, 73, 58
1, 71993, Note_off_c, 0, 75, 56
1, 72023, Note_off_c, 0, 73, 66
1, 72068, Note_on_c, 0, 71, 62
1, 72101, Note_off_c, 0, 71, 61
1, 72128, Note_on_c, 0, 68, 56
1, 72213, Note_off_c, 0, 68, 58
1, 72221, Note_on_c, 0, 71, 72
1, 72236, Note_on_c, 0, 52, 48
1, 72259, Note_on_c, 0, 66, 33
1, 72272, Control_c, 0, 64, 118
1, 72286, Control_c, 0, 64, 85
1, 72301, Control_c, 0, 64, 66
1, 72312, Note_off_c, 0, 66, 44
1, 72316, Control_c, 0, 64, 39
1, 72331, Control_c, 0, 64, 60
1, 72342, Note_off_c, 0, 71, 60
1, 72346, Control_c, 0, 64, 71
1, 72355, Note_on_c, 0, 68, 54
1, 72361, Control_c, 0, 64, 84
1, 72376, Control_c, 0, 64, 102
1, 72386, Note_off_c, 0, 44, 63
1, 72391, Control_c, 0, 64, 119
1, 72405, Control_c, 0, 64, 127
1, 72429, Note_off_c, 0, 68, 58
1, 72433, Note_off_c, 0, 52, 50
1, 72464, Note_on_c, 0, 64, 58
1, 72492, Note_off_c, 0, 64, 60
1, 72568, Note_on_c, 0, 59, 56
1, 72616, Note_on_c, 0, 76, 79
1, 72647, Note_off_c, 0, 59, 53
1, 72663, Note_on_c, 0, 66, 41
1, 72706, Note_off_c, 0, 66, 47
1, 72751, Note_off_c, 0, 76, 62
1, 72783, Note_on_c, 0, 68, 54
1, 72859, Note_off_c, 0, 68, 58
1, 72874, Note_on_c, 0, 71, 56
1, 72978, Note_on_c, 0, 42, 53
1, 73007, Control_c, 0, 64, 95
1, 73016, Note_on_c, 0, 75, 71
1, 73022, Control_c, 0, 64, 70
1, 73022, Note_off_c, 0, 71, 60
1, 73037, Control_c, 0, 64, 0
1, 73049, Note_on_c, 0, 69, 51
1, 73066, Control_c, 0, 64, 49
1, 73080, Note_off_c, 0, 69, 56
1, 73081, Control_c, 0, 64, 71
1, 73096, Control_c, 0, 64, 92
1, 73110, Control_c, 0, 64, 127
1, 73114, Note_off_c, 0, 75, 57
1, 73135, Note_on_c, 0, 71, 48
1, 73159, Note_off_c, 0, 42, 57
1, 73159, Note_off_c, 0, 71, 59
1, 73188, Note_on_c, 0, 69, 34
1, 73219, Note_off_c, 0, 69, 56
1, 73249, Note_on_c, 0, 68, 56
1, 73287, Note_off_c, 0, 68, 63
1, 73330, Note_on_c, 0, 69, 46
1, 73443, Note_on_c, 0, 57, 44
1, 73444, Note_off_c, 0, 69, 60
1, 73451, Note_on_c, 0, 71, 67
1, 73482, Note_on_c, 0, 63, 50
1, 73489, Control_c, 0, 64, 97
1, 73504, Control_c, 0, 64, 77
1, 73519, Control_c, 0, 64, 54
1, 73534, Control_c, 0, 64, 0
1, 73556, Note_off_c, 0, 63, 55
1, 73578, Control_c, 0, 64, 47
1, 73593, Control_c, 0, 64, 68
1, 73607, Control_c, 0, 64, 79
1, 73610, Note_on_c, 0, 59, 46
1, 73622, Control_c, 0, 64, 88
1, 73637, Control_c, 0, 64, 93
1, 73652, Control_c, 0, 64, 95
1, 73666, Note_off_c, 0, 59, 43
1, 73667, Control_c, 0, 64, 98
1, 73681, Control_c, 0, 64, 102
1, 73688, Note_off_c, 0, 71, 60
1, 73696, Control_c, 0, 64, 107
1, 73711, Control_c, 0, 64, 114
1, 73726, Control_c, 0, 64, 127
1, 73732, Note_on_c, 0, 61, 41
1, 73841, Note_on_c, 0, 64, 48
1, 73844, Note_on_c, 0, 47, 40
1, 73866, Note_off_c, 0, 61, 35
1, 73866, Note_off_c, 0, 64, 58
1, 73908, Note_off_c, 0, 47, 50
1, 73921, Note_off_c, 0, 57, 37
1, 73971, Note_on_c, 0, 63, 31
1, 74012, Note_off_c, 0, 63, 50
1, 74027, Note_on_c, 0, 73, 63
1, 74140, Note_on_c, 0, 69, 46
1, 74253, Control_c, 0, 64, 90
1, 74262, Note_off_c, 0, 73, 54
1, 74268, Note_on_c, 0, 74, 60
1, 74268, Control_c, 0, 64, 70
1, 74269, Note_on_c, 0, 40, 38
1, 74283, Control_c, 0, 64, 0
1, 74304, Note_off_c, 0, 69, 44
1, 74327, Control_c, 0, 64, 56
1, 74342, Control_c, 0, 64, 70
1, 74357, Control_c, 0, 64, 83
1, 74360, Note_off_c, 0, 74, 63
1, 74371, Control_c, 0, 64, 97
1, 74386, Control_c, 0, 64, 108
1, 74401, Control_c, 0, 64, 113
1, 74403, Note_on_c, 0, 71, 44
1, 74416, Control_c, 0, 64, 124
1, 74421, Note_off_c, 0, 40, 40
1, 74431, Control_c, 0, 64, 127
1, 74444, Note_off_c, 0, 71, 57
1, 74474, Note_on_c, 0, 69, 50
1, 74504, Control_c, 0, 67, 10
1, 74514, Note_off_c, 0, 69, 62
1, 74519, Control_c, 0, 67, 14
1, 74534, Control_c, 0, 67, 17
1, 74549, Control_c, 0, 67, 20
1, 74564, Control_c, 0, 67, 20
1, 74567, Note_on_c, 0, 68, 31
1, 74604, Note_off_c, 0, 68, 51
1, 74611, Note_on_c, 0, 69, 55
1, 74698, Note_off_c, 0, 69, 53
1, 74727, Control_c, 0, 67, 21
1, 74732, Note_on_c, 0, 76, 60
1, 74733, Note_on_c, 0, 64, 43
1, 74734, Note_on_c, 0, 62, 37
1, 74742, Control_c, 0, 67, 21
1, 74756, Control_c, 0, 64, 99
1, 74756, Control_c, 0, 67, 22
1, 74771, Control_c, 0, 64, 78
1, 74771, Control_c, 0, 67, 24
1, 74776, Note_on_c, 0, 66, 33
1, 74786, Control_c, 0, 64, 62
1, 74786, Control_c, 0, 67, 26
1, 74801, Control_c, 0, 64, 0
1, 74801, Control_c, 0, 67, 28
1, 74816, Control_c, 0, 67, 30
1, 74830, Control_c, 0, 64, 60
1, 74830, Control_c, 0, 67, 33
1, 74845, Control_c, 0, 64, 71
1, 74845, Control_c, 0, 67, 36
1, 74860, Control_c, 0, 64, 80
1, 74860, Control_c, 0, 67, 41
1, 74882, Control_c, 0, 64, 88
1, 74882, Control_c, 0, 67, 47
1, 74897, Control_c, 0, 64, 91
1, 74897, Control_c, 0, 67, 52
1, 74906, Note_off_c, 0, 66, 27
1, 74912, Control_c, 0, 64, 95
1, 74912, Control_c, 0, 67, 58
1, 74927, Control_c, 0, 64, 99
1, 74927, Control_c, 0, 67, 63
1, 74942, Control_c, 0, 64, 105
1, 74942, Control_c, 0, 67, 69
1, 74947, Note_on_c, 0, 68, 43
1, 74957, Control_c, 0, 64, 113
1, 74957, Control_c, 0, 67, 78
1, 74967, Note_off_c, 0, 64, 34
1, 74972, Control_c, 0, 64, 122
1, 74972, Control_c, 0, 67, 88
1, 74987, Control_c, 0, 64, 127
1, 74987, Control_c, 0, 67, 99
1, 75002, Control_c, 0, 67, 112
1, 75014, Note_off_c, 0, 62, 37
1, 75017, Control_c, 0, 67, 122
1, 75032, Control_c, 0, 67, 127
1, 75033, Note_off_c, 0, 76, 37
1, 75070, Note_off_c, 0, 68, 51
1, 75094, Note_on_c, 0, 73, 33
1, 75221, Note_off_c, 0, 73, 39
1, 75255, Note_on_c, 0, 52, 41
1, 75303, Note_on_c, 0, 64, 34
1, 75361, Note_off_c, 0, 52, 51
1, 75376, Note_off_c, 0, 64, 38
1, 75459, Note_on_c, 0, 66, 41
1, 75519, Note_off_c, 0, 66, 59
1, 75539, Note_on_c, 0, 74, 56
1, 75684, Note_on_c, 0, 68, 35
1, 75781, Note_off_c, 0, 68, 50
1, 75928, Note_off_c, 0, 74, 50
1, 75948, Note_on_c, 0, 52, 39
1, 75953, Note_on_c, 0, 45, 42
1, 75953, Note_on_c, 0, 73, 57
1, 75958, Control_c, 0, 64, 122
1, 75973, Control_c, 0, 64, 107
1, 75977, Note_on_c, 0, 69, 37
1, 75988, Control_c, 0, 64, 96
1, 76002, Control_c, 0, 64, 84
1, 76017, Control_c, 0, 64, 72
1, 76032, Control_c, 0, 64, 54
1, 76047, Control_c, 0, 64, 0
1, 76106, Control_c, 0, 64, 24
1, 76121, Control_c, 0, 64, 63
1, 76135, Control_c, 0, 64, 72
1, 76150, Control_c, 0, 64, 80
1, 76165, Control_c, 0, 64, 89
1, 76173, Note_off_c, 0, 52, 51
1, 76180, Control_c, 0, 64, 95
1, 76195, Control_c, 0, 64, 98
1, 76200, Note_on_c, 0, 54, 37
1, 76206, Note_off_c, 0, 73, 62
1, 76209, Control_c, 0, 64, 101
1, 76224, Control_c, 0, 64, 107
1, 76239, Control_c, 0, 64, 114
1, 76245, Note_off_c, 0, 54, 52
1, 76254, Control_c, 0, 64, 127
1, 76272, Note_off_c, 0, 69, 39
1, 76292, Note_on_c, 0, 52, 44
1, 76333, Note_off_c, 0, 52, 57
1, 76389, Note_on_c, 0, 51, 39
1, 76444, Note_off_c, 0, 51, 56
1, 76459, Note_on_c, 0, 52, 29
1, 76603, Control_c, 0, 64, 114
1, 76615, Note_on_c, 0, 81, 69
1, 76618, Control_c, 0, 64, 87
1, 76619, Note_off_c, 0, 52, 44
1, 76623, Note_on_c, 0, 54, 50
1, 76628, Note_on_c, 0, 78, 53
1, 76632, Control_c, 0, 64, 71
1, 76644, Note_on_c, 0, 69, 47
1, 76647, Control_c, 0, 64, 48
1, 76650, Note_off_c, 0, 45, 50
1, 76662, Control_c, 0, 64, 0
1, 76677, Control_c, 0, 64, 24
1, 76692, Control_c, 0, 64, 64
1, 76707, Control_c, 0, 64, 75
1, 76709, Poly_aftertouch_c, 0, 73, 127
1, 76722, Control_c, 0, 64, 82
1, 76737, Control_c, 0, 64, 86
1, 76749, Note_off_c, 0, 69, 59
1, 76751, Control_c, 0, 64, 88
1, 76766, Control_c, 0, 64, 90
1, 76772, Note_off_c, 0, 54, 38
1, 76776, Note_off_c, 0, 81, 56
1, 76781, Control_c, 0, 64, 93
1, 76796, Control_c, 0, 64, 96
1, 76811, Control_c, 0, 64, 99
1, 76825, Control_c, 0, 64, 103
1, 76835, Note_off_c, 0, 78, 57
1, 76838, Note_on_c, 0, 57, 43
1, 76840, Control_c, 0, 64, 107
1, 76855, Poly_aftertouch_c, 0, 73, 0
1, 76855, Control_c, 0, 64, 113
1, 76870, Control_c, 0, 64, 127
1, 76877, Note_off_c, 0, 57, 62
1, 76929, Control_c, 0, 67, 124
1, 76944, Control_c, 0, 67, 117
1, 76954, Note_on_c, 0, 59, 47
1, 76958, Control_c, 0, 67, 110
1, 76973, Control_c, 0, 67, 104
1, 76988, Control_c, 0, 67, 93
1, 77002, Note_off_c, 0, 59, 58
1, 77003, Control_c, 0, 67, 77
1, 77018, Control_c, 0, 67, 57
1, 77032, Control_c, 0, 67, 34
1, 77047, Control_c, 0, 67, 11
1, 77062, Control_c, 0, 67, 0
1, 77080, Note_on_c, 0, 61, 49
1, 77178, Note_off_c, 0, 61, 54
1, 77232, Note_on_c, 0, 64, 46
1, 77270, Note_off_c, 0, 64, 64
1, 77291, Note_on_c, 0, 80, 70
1, 77314, Note_on_c, 0, 73, 51
1, 77366, Note_off_c, 0, 80, 61
1, 77373, Note_on_c, 0, 69, 26
1, 77375, Note_off_c, 0, 73, 54
1, 77411, Note_off_c, 0, 69, 52
1, 77581, Note_on_c, 0, 42, 43
1, 77589, Note_on_c, 0, 83, 75
1, 77591, Note_on_c, 0, 80, 65
1, 77604, Control_c, 0, 64, 101
1, 77610, Note_on_c, 0, 71, 53
1, 77619, Control_c, 0, 64, 71
1, 77622, Note_on_c, 0, 76, 46
1, 77634, Control_c, 0, 64, 0
1, 77671, Note_on_c, 0, 73, 20
1, 77678, Control_c, 0, 64, 42
1, 77693, Control_c, 0, 64, 67
1, 77707, Control_c, 0, 64, 81
1, 77714, Note_on_c, 0, 49, 57
1, 77714, Note_off_c, 0, 83, 58
1, 77722, Control_c, 0, 64, 97
1, 77726, Note_off_c, 0, 80, 61
1, 77732, Note_off_c, 0, 42, 47
1, 77737, Control_c, 0, 64, 110
1, 77742, Note_off_c, 0, 76, 42
1, 77744, Note_off_c, 0, 71, 53
1, 77747, Note_off_c, 0, 49, 64
1, 77752, Control_c, 0, 64, 116
1, 77767, Control_c, 0, 64, 127
1, 77780, Note_on_c, 0, 53, 58
1, 77796, Note_off_c, 0, 73, 45
1, 77831, Note_off_c, 0, 53, 58
1, 77861, Note_on_c, 0, 54, 58
1, 77929, Note_off_c, 0, 54, 57
1, 77938, Note_on_c, 0, 56, 62
1, 78007, Note_on_c, 0, 81, 80
1, 78010, Note_on_c, 0, 78, 71
1, 78016, Note_on_c, 0, 69, 71
1, 78023, Note_off_c, 0, 56, 60
1, 78027, Note_on_c, 0, 73, 62
1, 78032, Note_on_c, 0, 76, 54
1, 78035, Note_on_c, 0, 57, 61
1, 78090, Note_off_c, 0, 57, 60
1, 78151, Note_on_c, 0, 60, 70
1, 78155, Note_off_c, 0, 81, 59
1, 78186, Note_off_c, 0, 69, 55
1, 78232, Note_off_c, 0, 60, 60
1, 78242, Note_on_c, 0, 61, 74
1, 78335, Note_off_c, 0, 61, 57
1, 78355, Note_on_c, 0, 65, 77
1, 78368, Note_off_c, 0, 73, 37
1, 78444, Note_off_c, 0, 76, 39
1, 78451, Note_on_c, 0, 66, 83
1, 78463, Note_off_c, 0, 65, 62
1, 78494, Note_off_c, 0, 66, 65
1, 78564, Note_on_c, 0, 80, 86
1, 78573, Note_on_c, 0, 68, 72
1, 78585, Note_off_c, 0, 78, 51
1, 78632, Note_off_c, 0, 68, 61
1, 78659, Note_off_c, 0, 80, 62
1, 78817, Note_on_c, 0, 35, 89
1, 78835, Control_c, 0, 64, 100
1, 78850, Control_c, 0, 64, 67
1, 78852, Note_on_c, 0, 69, 72
1, 78855, Note_on_c, 0, 75, 60
1, 78859, Note_on_c, 0, 80, 71
1, 78864, Control_c, 0, 64, 0
1, 78909, Control_c, 0, 64, 65
1, 78924, Control_c, 0, 64, 75
1, 78938, Control_c, 0, 64, 91
1, 78952, Note_off_c, 0, 35, 62
1, 78954, Control_c, 0, 64, 127
1, 78975, Note_off_c, 0, 75, 45
1, 78989, Note_on_c, 0, 81, 77
1, 78998, Note_off_c, 0, 80, 62
1, 79090, Note_off_c, 0, 81, 64
1, 79101, Note_on_c, 0, 80, 76
1, 79163, Note_on_c, 0, 78, 80
1, 79169, Note_off_c, 0, 80, 61
1, 79217, Note_on_c, 0, 80, 61
1, 79234, Note_off_c, 0, 78, 60
1, 79259, Note_on_c, 0, 81, 81
1, 79278, Note_on_c, 0, 66, 98
1, 79279, Note_off_c, 0, 69, 36
1, 79279, Note_off_c, 0, 80, 63
1, 79287, Note_on_c, 0, 57, 76
1, 79306, Note_on_c, 0, 63, 63
1, 79309, Note_off_c, 0, 81, 62
1, 79310, Note_on_c, 0, 61, 58
1, 79364, Note_off_c, 0, 57, 59
1, 79364, Note_off_c, 0, 63, 52
1, 79390, Note_off_c, 0, 61, 59
1, 79394, Note_off_c, 0, 66, 53
1, 79414, Note_on_c, 0, 83, 72
1, 79417, Note_on_c, 0, 71, 70
1, 79440, Note_off_c, 0, 71, 68
1, 79440, Note_off_c, 0, 83, 66
1, 79516, Note_on_c, 0, 85, 89
1, 79516, Poly_aftertouch_c, 0, 81, 0
1, 79522, Note_on_c, 0, 73, 80
1, 79545, Note_off_c, 0, 73, 69
1, 79545, Note_off_c, 0, 85, 57
1, 79604, Note_on_c, 0, 64, 81
1, 79611, Note_on_c, 0, 56, 79
1, 79619, Note_on_c, 0, 87, 99
1, 79622, Note_on_c, 0, 75, 89
1, 79624, Note_on_c, 0, 61, 59
1, 79628, Note_on_c, 0, 59, 53
1, 79635, Note_off_c, 0, 64, 64
1, 79650, Note_off_c, 0, 59, 61
1, 79650, Note_off_c, 0, 61, 65
1, 79663, Note_off_c, 0, 56, 64
1, 79667, Note_off_c, 0, 75, 63
1, 79676, Note_off_c, 0, 87, 64
1, 79730, Note_on_c, 0, 76, 96
1, 79731, Note_on_c, 0, 88, 94
1, 79765, Note_off_c, 0, 76, 64
1, 79771, Note_off_c, 0, 88, 65
1, 79792, Control_c, 0, 64, 100
1, 79807, Control_c, 0, 64, 68
1, 79819, Note_on_c, 0, 47, 75
1, 79822, Control_c, 0, 64, 0
1, 79837, Note_on_c, 0, 78, 94
1, 79839, Note_on_c, 0, 90, 94
1, 79851, Control_c, 0, 64, 55
1, 79866, Control_c, 0, 64, 75
1, 79881, Control_c, 0, 64, 98
1, 79888, Note_on_c, 0, 57, 83
1, 79895, Note_off_c, 0, 47, 62
1, 79896, Control_c, 0, 64, 127
1, 79903, Note_off_c, 0, 78, 57
1, 79917, Note_off_c, 0, 57, 63
1, 79927, Note_off_c, 0, 90, 61
1, 80008, Note_on_c, 0, 80, 93
1, 80010, Note_on_c, 0, 87, 87
1, 80011, Note_on_c, 0, 63, 89
1, 80013, Note_on_c, 0, 92, 90
1, 80080, Note_off_c, 0, 80, 61
1, 80080, Note_off_c, 0, 92, 65
1, 80085, Note_off_c, 0, 87, 62
1, 80147, Note_off_c, 0, 63, 48
1, 80183, Note_on_c, 0, 93, 91
1, 80185, Note_on_c, 0, 81, 86
1, 80205, Note_off_c, 0, 81, 66
1, 80206, Note_off_c, 0, 93, 57
1, 80236, Note_on_c, 0, 61, 87
1, 80305, Note_off_c, 0, 61, 60
1, 80310, Note_on_c, 0, 78, 90
1, 80311, Note_on_c, 0, 90, 80
1, 80331, Note_off_c, 0, 90, 71
1, 80335, Note_on_c, 0, 82, 45
1, 80342, Note_off_c, 0, 78, 58
1, 80363, Note_off_c, 0, 82, 57
1, 80420, Note_on_c, 0, 59, 78
1, 80433, Note_on_c, 0, 75, 92
1, 80439, Note_on_c, 0, 87, 94
1, 80461, Note_off_c, 0, 59, 60
1, 80469, Note_off_c, 0, 75, 67
1, 80473, Note_off_c, 0, 87, 62
1, 80486, Note_on_c, 0, 85, 31
1, 80522, Note_off_c, 0, 85, 52
1, 80561, Note_on_c, 0, 71, 91
1, 80561, Note_on_c, 0, 83, 88
1, 80579, Note_off_c, 0, 71, 69
1, 80592, Note_off_c, 0, 83, 63
1, 80622, Note_on_c, 0, 35, 90
1, 80634, Poly_aftertouch_c, 0, 75, 127
1, 80665, Note_off_c, 0, 35, 65
1, 80671, Poly_aftertouch_c, 0, 75, 0
1, 80695, Note_on_c, 0, 85, 89
1, 80699, Note_on_c, 0, 73, 93
1, 80795, Note_off_c, 0, 85, 59
1, 80807, Note_off_c, 0, 73, 60
1, 80821, Note_on_c, 0, 59, 96
1, 80832, Note_on_c, 0, 54, 90
1, 80839, Note_on_c, 0, 81, 86
1, 80859, Note_off_c, 0, 59, 67
1, 80875, Note_off_c, 0, 54, 58
1, 80877, Note_on_c, 0, 82, 40
1, 80878, Note_off_c, 0, 82, 127
1, 80892, Note_off_c, 0, 81, 65
1, 80937, Poly_aftertouch_c, 0, 73, 0
1, 80991, Note_on_c, 0, 78, 88
1, 80996, Note_on_c, 0, 69, 90
1, 81064, Note_on_c, 0, 63, 92
1, 81072, Note_on_c, 0, 57, 88
1, 81104, Note_off_c, 0, 63, 64
1, 81107, Note_off_c, 0, 69, 56
1, 81114, Note_off_c, 0, 57, 65
1, 81140, Note_off_c, 0, 78, 58
1, 81175, Note_on_c, 0, 71, 85
1, 81181, Note_on_c, 0, 75, 87
1, 81210, Note_off_c, 0, 71, 65
1, 81234, Note_off_c, 0, 75, 66
1, 81503, Note_on_c, 0, 40, 92
1, 81504, Note_on_c, 0, 28, 91
1, 81526, Control_c, 0, 64, 92
1, 81540, Control_c, 0, 64, 37
1, 81555, Control_c, 0, 64, 0
1, 81560, Note_on_c, 0, 88, 103
1, 81572, Note_on_c, 0, 76, 88
1, 81572, Note_on_c, 0, 80, 90
1, 81600, Control_c, 0, 64, 80
1, 81607, Note_off_c, 0, 28, 61
1, 81622, Control_c, 0, 64, 127
1, 81643, Note_off_c, 0, 40, 65
1, 81646, Note_off_c, 0, 88, 62
1, 81676, Note_off_c, 0, 80, 62
1, 81723, Note_off_c, 0, 76, 60
1, 81765, Note_on_c, 0, 81, 72
1, 81778, Note_on_c, 0, 48, 72
1, 81810, Note_on_c, 0, 80, 66
1, 81816, Note_off_c, 0, 81, 61
1, 81857, Note_off_c, 0, 80, 61
1, 81863, Note_on_c, 0, 78, 78
1, 81865, Note_off_c, 0, 48, 59
1, 81885, Note_on_c, 0, 56, 52
1, 81908, Note_off_c, 0, 78, 56
1, 81920, Note_on_c, 0, 76, 68
1, 81948, Note_off_c, 0, 76, 64
1, 81951, Note_off_c, 0, 56, 62
1, 81993, Note_on_c, 0, 47, 83
1, 81997, Note_on_c, 0, 80, 91
1, 82020, Note_on_c, 0, 73, 79
1, 82123, Note_off_c, 0, 80, 60
1, 82132, Note_on_c, 0, 59, 72
1, 82136, Note_off_c, 0, 73, 52
1, 82143, Note_off_c, 0, 47, 56
1, 82147, Note_on_c, 0, 75, 72
1, 82211, Note_off_c, 0, 75, 60
1, 82229, Note_off_c, 0, 59, 59
1, 82236, Note_on_c, 0, 56, 66
1, 82238, Note_on_c, 0, 71, 62
1, 82257, Note_off_c, 0, 71, 66
1, 82263, Note_off_c, 0, 56, 66
1, 82268, Note_on_c, 0, 72, 26
1, 82302, Note_off_c, 0, 72, 52
1, 82325, Note_on_c, 0, 56, 80
1, 82347, Note_on_c, 0, 76, 68
1, 82378, Note_on_c, 0, 77, 52
1, 82402, Note_off_c, 0, 77, 61
1, 82403, Note_off_c, 0, 76, 59
1, 82430, Note_on_c, 0, 80, 78
1, 82448, Note_on_c, 0, 64, 55
1, 82453, Note_off_c, 0, 56, 54
1, 82477, Note_off_c, 0, 80, 63
1, 82496, Note_on_c, 0, 62, 18
1, 82503, Note_on_c, 0, 87, 97
1, 82514, Note_off_c, 0, 64, 65
1, 82516, Note_on_c, 0, 80, 64
1, 82519, Note_on_c, 0, 75, 84
1, 82526, Note_on_c, 0, 59, 77
1, 82545, Note_off_c, 0, 62, 50
1, 82547, Note_off_c, 0, 59, 69
1, 82551, Note_off_c, 0, 80, 60
1, 82558, Note_off_c, 0, 75, 64
1, 82574, Note_off_c, 0, 87, 64
1, 82730, Note_on_c, 0, 44, 86
1, 82742, Control_c, 0, 64, 118
1, 82757, Control_c, 0, 64, 73
1, 82771, Control_c, 0, 64, 0
1, 82781, Note_on_c, 0, 90, 95
1, 82787, Note_on_c, 0, 78, 83
1, 82790, Note_on_c, 0, 85, 87
1, 82816, Control_c, 0, 64, 68
1, 82830, Control_c, 0, 64, 100
1, 82831, Note_off_c, 0, 78, 62
1, 82845, Control_c, 0, 64, 127
1, 82848, Note_off_c, 0, 85, 63
1, 82882, Note_off_c, 0, 90, 64
1, 82885, Note_on_c, 0, 87, 86
1, 82888, Note_off_c, 0, 44, 58
1, 82909, Note_on_c, 0, 52, 69
1, 82946, Note_off_c, 0, 52, 62
1, 82947, Note_on_c, 0, 85, 54
1, 82949, Note_off_c, 0, 87, 64
1, 82968, Note_off_c, 0, 85, 61
1, 82987, Note_on_c, 0, 83, 59
1, 82990, Note_on_c, 0, 59, 67
1, 83005, Note_off_c, 0, 83, 64
1, 83029, Note_off_c, 0, 59, 57
1, 83045, Note_on_c, 0, 80, 80
1, 83099, Note_off_c, 0, 80, 61
1, 83169, Note_on_c, 0, 47, 78
1, 83188, Note_on_c, 0, 78, 79
1, 83189, Note_on_c, 0, 83, 98
1, 83197, Note_on_c, 0, 71, 80
1, 83222, Note_off_c, 0, 71, 63
1, 83247, Note_off_c, 0, 47, 64
1, 83293, Note_off_c, 0, 78, 0
1, 83293, Note_on_c, 0, 78, 11
1, 83301, Note_on_c, 0, 56, 68
1, 83306, Note_off_c, 0, 83, 61
1, 83324, Note_on_c, 0, 80, 61
1, 83336, Note_off_c, 0, 56, 65
1, 83349, Note_off_c, 0, 78, 46
1, 83396, Note_on_c, 0, 64, 68
1, 83400, Note_off_c, 0, 80, 63
1, 83421, Note_on_c, 0, 76, 44
1, 83439, Note_off_c, 0, 64, 63
1, 83449, Note_off_c, 0, 76, 55
1, 83481, Poly_aftertouch_c, 0, 77, 127
1, 83501, Note_on_c, 0, 56, 77
1, 83504, Note_on_c, 0, 88, 97
1, 83505, Poly_aftertouch_c, 0, 77, 0
1, 83533, Note_on_c, 0, 78, 70
1, 83551, Note_off_c, 0, 78, 67
1, 83571, Note_off_c, 0, 88, 58
1, 83575, Note_off_c, 0, 56, 57
1, 83635, Note_on_c, 0, 64, 63
1, 83637, Note_on_c, 0, 80, 68
1, 83681, Note_off_c, 0, 64, 59
1, 83707, Note_off_c, 0, 80, 60
1, 83710, Note_on_c, 0, 71, 67
1, 83734, Note_on_c, 0, 83, 72
1, 83734, Note_off_c, 0, 71, 71
1, 83861, Note_off_c, 0, 83, 63
1, 83861, Control_c, 0, 64, 106
1, 83882, Control_c, 0, 64, 67
1, 83886, Note_on_c, 0, 87, 93
1, 83891, Note_on_c, 0, 42, 80
1, 83897, Control_c, 0, 64, 0
1, 83904, Note_on_c, 0, 75, 85
1, 83914, Note_on_c, 0, 81, 50
1, 83937, Note_off_c, 0, 81, 59
1, 83942, Control_c, 0, 64, 74
1, 83956, Control_c, 0, 64, 127
1, 83971, Note_off_c, 0, 75, 58
1, 83986, Note_off_c, 0, 87, 64
1, 84019, Note_on_c, 0, 83, 50
1, 84020, Note_on_c, 0, 51, 64
1, 84020, Note_off_c, 0, 42, 60
1, 84050, Note_on_c, 0, 81, 57
1, 84057, Note_off_c, 0, 83, 60
1, 84073, Note_off_c, 0, 51, 61
1, 84100, Note_off_c, 0, 81, 64
1, 84107, Note_on_c, 0, 57, 61
1, 84114, Note_on_c, 0, 80, 61
1, 84136, Note_off_c, 0, 80, 65
1, 84140, Note_off_c, 0, 57, 66
1, 84229, Note_on_c, 0, 83, 91
1, 84240, Note_on_c, 0, 47, 71
1, 84272, Note_on_c, 0, 75, 60
1, 84282, Note_off_c, 0, 47, 63
1, 84314, Note_off_c, 0, 83, 60
1, 84329, Note_off_c, 0, 75, 62
1, 84374, Note_on_c, 0, 57, 65
1, 84380, Note_on_c, 0, 71, 70
1, 84416, Note_off_c, 0, 57, 57
1, 84457, Note_off_c, 0, 71, 48
1, 84475, Note_on_c, 0, 63, 69
1, 84477, Note_on_c, 0, 73, 68
1, 84553, Note_off_c, 0, 63, 57
1, 84576, Note_on_c, 0, 76, 80
1, 84581, Note_on_c, 0, 54, 83
1, 84585, Note_off_c, 0, 73, 62
1, 84600, Note_off_c, 0, 76, 68
1, 84677, Note_off_c, 0, 54, 59
1, 84718, Note_on_c, 0, 75, 58
1, 84719, Note_on_c, 0, 63, 69
1, 84780, Note_on_c, 0, 85, 88
1, 84794, Note_off_c, 0, 63, 62
1, 84809, Note_off_c, 0, 75, 31
1, 84833, Note_on_c, 0, 69, 72
1, 84855, Note_off_c, 0, 69, 70
1, 84857, Note_on_c, 0, 81, 74
1, 84860, Note_off_c, 0, 85, 64
1, 84886, Note_off_c, 0, 81, 60
1, 85061, Control_c, 0, 64, 120
1, 85067, Note_on_c, 0, 42, 90
1, 85076, Control_c, 0, 64, 67
1, 85080, Note_on_c, 0, 86, 90
1, 85082, Note_on_c, 0, 74, 92
1, 85086, Note_on_c, 0, 81, 78
1, 85090, Control_c, 0, 64, 0
1, 85135, Control_c, 0, 64, 68
1, 85150, Control_c, 0, 64, 100
1, 85164, Control_c, 0, 64, 127
1, 85174, Note_off_c, 0, 81, 52
1, 85215, Note_off_c, 0, 74, 56
1, 85226, Note_off_c, 0, 86, 62
1, 85230, Note_on_c, 0, 83, 70
1, 85234, Note_off_c, 0, 42, 38
1, 85256, Note_on_c, 0, 50, 78
1, 85298, Note_off_c, 0, 83, 56
1, 85308, Note_off_c, 0, 50, 65
1, 85326, Note_on_c, 0, 80, 62
1, 85339, Note_on_c, 0, 81, 58
1, 85352, Note_off_c, 0, 80, 65
1, 85370, Note_on_c, 0, 57, 70
1, 85405, Note_off_c, 0, 57, 62
1, 85446, Note_off_c, 0, 81, 65
1, 85481, Note_on_c, 0, 88, 89
1, 85485, Note_on_c, 0, 76, 91
1, 85486, Note_on_c, 0, 54, 73
1, 85531, Note_off_c, 0, 76, 64
1, 85533, Note_off_c, 0, 88, 63
1, 85561, Note_off_c, 0, 54, 59
1, 85637, Note_on_c, 0, 74, 93
1, 85638, Note_on_c, 0, 62, 75
1, 85638, Note_on_c, 0, 86, 93
1, 85674, Note_off_c, 0, 74, 66
1, 85682, Note_off_c, 0, 86, 66
1, 85729, Note_off_c, 0, 62, 61
1, 85736, Note_on_c, 0, 57, 75
1, 85780, Note_on_c, 0, 95, 92
1, 85785, Note_on_c, 0, 83, 87
1, 85793, Note_off_c, 0, 57, 61
1, 85803, Note_off_c, 0, 95, 65
1, 85805, Note_off_c, 0, 83, 67
1, 85840, Note_on_c, 0, 69, 78
1, 85882, Note_on_c, 0, 93, 100
1, 85882, Note_off_c, 0, 69, 59
1, 85884, Note_on_c, 0, 81, 79
1, 85895, Note_on_c, 0, 83, 73
1, 85902, Note_off_c, 0, 81, 68
1, 85909, Note_off_c, 0, 83, 71
1, 85912, Note_off_c, 0, 93, 70
1, 85996, Note_on_c, 0, 100, 91
1, 86000, Note_on_c, 0, 88, 87
1, 86018, Note_off_c, 0, 88, 72
1, 86027, Note_off_c, 0, 100, 63
1, 86091, Note_on_c, 0, 86, 88
1, 86094, Note_on_c, 0, 98, 93
1, 86122, Note_off_c, 0, 86, 66
1, 86126, Note_on_c, 0, 91, 60
1, 86139, Note_off_c, 0, 98, 66
1, 86147, Note_off_c, 0, 91, 64
1, 86200, Note_on_c, 0, 40, 83
1, 86204, Control_c, 0, 64, 83
1, 86207, Note_on_c, 0, 91, 98
1, 86207, Note_on_c, 0, 97, 99
1, 86211, Note_on_c, 0, 85, 91
1, 86219, Control_c, 0, 64, 0
1, 86262, Control_c, 0, 64, 54
1, 86277, Note_off_c, 0, 97, 67
1, 86277, Control_c, 0, 64, 84
1, 86278, Note_off_c, 0, 91, 67
1, 86292, Control_c, 0, 64, 127
1, 86294, Note_off_c, 0, 40, 60
1, 86296, Note_off_c, 0, 85, 61
1, 86309, Note_on_c, 0, 45, 69
1, 86353, Note_off_c, 0, 45, 62
1, 86404, Note_on_c, 0, 55, 63
1, 86488, Note_off_c, 0, 55, 46
1, 86514, Note_on_c, 0, 45, 73
1, 86521, Note_on_c, 0, 81, 91
1, 86522, Note_on_c, 0, 93, 90
1, 86524, Note_on_c, 0, 91, 85
1, 86526, Note_on_c, 0, 85, 92
1, 86560, Note_off_c, 0, 93, 66
1, 86562, Note_off_c, 0, 81, 64
1, 86570, Note_off_c, 0, 91, 66
1, 86589, Note_off_c, 0, 85, 62
1, 86603, Note_off_c, 0, 45, 63
1, 86615, Note_on_c, 0, 52, 74
1, 86678, Note_off_c, 0, 52, 61
1, 86710, Note_on_c, 0, 55, 76
1, 86745, Note_off_c, 0, 55, 65
1, 86807, Note_on_c, 0, 55, 88
1, 86863, Note_off_c, 0, 55, 65
1, 86938, Note_on_c, 0, 61, 75
1, 86997, Note_on_c, 0, 71, 95
1, 86999, Note_on_c, 0, 83, 92
1, 87030, Note_off_c, 0, 61, 60
1, 87039, Note_on_c, 0, 57, 72
1, 87062, Note_off_c, 0, 57, 66
1, 87074, Note_off_c, 0, 71, 55
1, 87099, Note_off_c, 0, 83, 61
1, 87233, Control_c, 0, 64, 109
1, 87247, Note_on_c, 0, 39, 88
1, 87248, Control_c, 0, 64, 72
1, 87249, Note_on_c, 0, 84, 90
1, 87250, Note_on_c, 0, 72, 88
1, 87259, Note_on_c, 0, 79, 78
1, 87263, Control_c, 0, 64, 0
1, 87307, Control_c, 0, 64, 67
1, 87322, Control_c, 0, 64, 88
1, 87337, Note_off_c, 0, 79, 63
1, 87337, Control_c, 0, 64, 127
1, 87359, Note_off_c, 0, 72, 62
1, 87378, Note_off_c, 0, 84, 60
1, 87388, Note_off_c, 0, 39, 56
1, 87397, Note_on_c, 0, 81, 76
1, 87399, Note_on_c, 0, 48, 77
1, 87446, Note_off_c, 0, 48, 61
1, 87456, Note_off_c, 0, 81, 60
1, 87479, Note_on_c, 0, 79, 48
1, 87487, Note_on_c, 0, 55, 75
1, 87495, Note_on_c, 0, 78, 76
1, 87519, Note_off_c, 0, 79, 0
1, 87531, Note_on_c, 0, 79, 60
1, 87533, Note_off_c, 0, 78, 59
1, 87539, Note_off_c, 0, 55, 47
1, 87580, Note_off_c, 0, 79, 62
1, 87599, Note_on_c, 0, 51, 78
1, 87621, Note_on_c, 0, 86, 97
1, 87623, Note_on_c, 0, 74, 99
1, 87673, Note_off_c, 0, 74, 67
1, 87674, Note_off_c, 0, 86, 64
1, 87697, Note_off_c, 0, 51, 58
1, 87759, Note_on_c, 0, 60, 71
1, 87771, Note_on_c, 0, 72, 87
1, 87772, Note_on_c, 0, 84, 93
1, 87801, Note_off_c, 0, 72, 61
1, 87812, Note_off_c, 0, 84, 66
1, 87867, Note_on_c, 0, 55, 74
1, 87870, Note_off_c, 0, 60, 50
1, 87912, Note_on_c, 0, 93, 96
1, 87917, Note_on_c, 0, 81, 93
1, 87955, Note_on_c, 0, 63, 73
1, 87957, Note_off_c, 0, 93, 64
1, 87958, Note_off_c, 0, 55, 60
1, 87960, Note_off_c, 0, 81, 65
1, 88013, Note_off_c, 0, 63, 60
1, 88040, Note_on_c, 0, 60, 69
1, 88042, Note_on_c, 0, 79, 91
1, 88042, Note_on_c, 0, 91, 104
1, 88078, Note_off_c, 0, 79, 61
1, 88085, Note_off_c, 0, 91, 67
1, 88142, Note_on_c, 0, 67, 75
1, 88175, Note_off_c, 0, 67, 62
1, 88184, Note_on_c, 0, 98, 101
1, 88188, Note_on_c, 0, 86, 93
1, 88196, Note_off_c, 0, 60, 62
1, 88228, Note_off_c, 0, 86, 66
1, 88230, Note_off_c, 0, 98, 65
1, 88331, Note_on_c, 0, 96, 101
1, 88333, Note_on_c, 0, 84, 98
1, 88422, Note_off_c, 0, 96, 47
1, 88460, Note_off_c, 0, 84, 53
1, 88562, Note_on_c, 0, 31, 90
1, 88580, Note_on_c, 0, 83, 91
1, 88581, Note_on_c, 0, 95, 99
1, 88586, Note_on_c, 0, 87, 91
1, 88599, Control_c, 0, 64, 74
1, 88613, Control_c, 0, 64, 0
1, 88687, Control_c, 0, 64, 69
1, 88696, Note_off_c, 0, 31, 63
1, 88702, Control_c, 0, 64, 95
1, 88717, Control_c, 0, 64, 127
1, 88750, Note_off_c, 0, 95, 62
1, 88771, Note_off_c, 0, 83, 56
1, 88868, Note_off_c, 0, 87, 55
1, 88961, Note_on_c, 0, 55, 48
1, 89050, Note_on_c, 0, 63, 44
1, 89053, Note_off_c, 0, 55, 60
1, 89115, Note_off_c, 0, 63, 55
1, 89160, Note_on_c, 0, 91, 89
1, 89165, Note_on_c, 0, 59, 48
1, 89175, Note_on_c, 0, 79, 67
1, 89227, Note_off_c, 0, 59, 56
1, 89274, Note_on_c, 0, 65, 60
1, 89317, Note_off_c, 0, 65, 62
1, 89371, Note_on_c, 0, 67, 66
1, 89393, Note_off_c, 0, 79, 38
1, 89409, Note_off_c, 0, 67, 57
1, 89464, Note_off_c, 0, 91, 59
1, 89481, Note_on_c, 0, 71, 68
1, 89510, Note_off_c, 0, 71, 64
1, 89568, Note_on_c, 0, 67, 56
1, 89605, Note_off_c, 0, 67, 57
1, 89668, Note_on_c, 0, 93, 88
1, 89677, Note_on_c, 0, 81, 70
1, 89696, Note_off_c, 0, 81, 67
1, 89697, Note_on_c, 0, 75, 59
1, 89724, Note_off_c, 0, 75, 66
1, 89746, Note_off_c, 0, 93, 64
1, 89977, Control_c, 0, 64, 90
1, 89983, Note_on_c, 0, 42, 68
1, 89990, Note_on_c, 0, 94, 87
1, 89992, Control_c, 0, 64, 69
1, 90007, Control_c, 0, 64, 0
1, 90013, Note_on_c, 0, 92, 58
1, 90020, Note_on_c, 0, 82, 49
1, 90095, Control_c, 0, 64, 33
1, 90110, Control_c, 0, 64, 75
1, 90115, Note_off_c, 0, 92, 61
1, 90122, Note_off_c, 0, 94, 65
1, 90125, Control_c, 0, 64, 95
1, 90135, Note_off_c, 0, 42, 62
1, 90136, Note_off_c, 0, 82, 51
1, 90141, Control_c, 0, 64, 127
1, 90148, Note_on_c, 0, 52, 61
1, 90195, Note_off_c, 0, 52, 61
1, 90262, Note_on_c, 0, 58, 41
1, 90294, Note_off_c, 0, 58, 55
1, 90345, Note_on_c, 0, 90, 85
1, 90353, Note_on_c, 0, 54, 50
1, 90353, Note_on_c, 0, 87, 73
1, 90374, Note_on_c, 0, 78, 51
1, 90399, Note_off_c, 0, 54, 58
1, 90424, Note_off_c, 0, 78, 42
1, 90444, Note_off_c, 0, 90, 64
1, 90461, Note_on_c, 0, 63, 49
1, 90478, Note_off_c, 0, 87, 38
1, 90534, Note_off_c, 0, 63, 39
1, 90556, Note_on_c, 0, 58, 50
1, 90656, Note_on_c, 0, 88, 87
1, 90666, Note_on_c, 0, 66, 58
1, 90672, Note_off_c, 0, 58, 37
1, 90674, Note_on_c, 0, 85, 61
1, 90690, Note_on_c, 0, 76, 37
1, 90720, Note_off_c, 0, 76, 54
1, 90748, Note_off_c, 0, 66, 38
1, 90771, Note_on_c, 0, 64, 52
1, 90788, Note_off_c, 0, 88, 61
1, 90830, Note_off_c, 0, 64, 55
1, 90859, Note_on_c, 0, 54, 54
1, 90912, Note_off_c, 0, 54, 55
1, 91006, Note_off_c, 0, 85, 54
1, 91022, Control_c, 0, 64, 95
1, 91024, Note_on_c, 0, 87, 74
1, 91037, Control_c, 0, 64, 69
1, 91039, Note_on_c, 0, 55, 56
1, 91043, Note_on_c, 0, 83, 49
1, 91052, Control_c, 0, 64, 0
1, 91056, Note_on_c, 0, 75, 36
1, 91140, Control_c, 0, 64, 65
1, 91155, Note_off_c, 0, 83, 64
1, 91155, Control_c, 0, 64, 82
1, 91170, Control_c, 0, 64, 100
1, 91176, Note_off_c, 0, 87, 63
1, 91185, Control_c, 0, 64, 127
1, 91196, Note_on_c, 0, 63, 46
1, 91225, Note_off_c, 0, 75, 44
1, 91251, Note_off_c, 0, 63, 56
1, 91315, Note_on_c, 0, 59, 38
1, 91442, Note_on_c, 0, 79, 73
1, 91444, Note_off_c, 0, 55, 27
1, 91468, Note_off_c, 0, 59, 48
1, 91473, Note_on_c, 0, 65, 50
1, 91488, Note_on_c, 0, 67, 18
1, 91550, Note_off_c, 0, 65, 48
1, 91585, Note_on_c, 0, 63, 43
1, 91620, Note_off_c, 0, 63, 63
1, 91685, Note_on_c, 0, 59, 42
1, 91704, Note_off_c, 0, 67, 41
1, 91753, Note_off_c, 0, 79, 50
1, 91754, Note_off_c, 0, 59, 54
1, 91802, Note_on_c, 0, 55, 46
1, 91830, Note_off_c, 0, 55, 62
1, 91947, Note_on_c, 0, 55, 24
1, 92002, Note_off_c, 0, 55, 54
1, 92033, Note_on_c, 0, 81, 68
1, 92045, Note_on_c, 0, 69, 49
1, 92070, Note_off_c, 0, 69, 57
1, 92084, Note_off_c, 0, 81, 64
1, 92119, Note_on_c, 0, 43, 28
1, 92160, Note_off_c, 0, 43, 54
1, 92282, Control_c, 0, 64, 119
1, 92297, Control_c, 0, 64, 89
1, 92309, Note_on_c, 0, 42, 39
1, 92312, Control_c, 0, 64, 68
1, 92314, Note_on_c, 0, 82, 69
1, 92327, Control_c, 0, 64, 0
1, 92332, Note_on_c, 0, 80, 50
1, 92369, Note_on_c, 0, 76, 24
1, 92395, Poly_aftertouch_c, 0, 70, 127
1, 92401, Control_c, 0, 64, 63
1, 92416, Control_c, 0, 64, 74
1, 92417, Note_off_c, 0, 76, 49
1, 92426, Note_off_c, 0, 80, 61
1, 92429, Note_off_c, 0, 42, 53
1, 92431, Control_c, 0, 64, 90
1, 92434, Note_off_c, 0, 82, 61
1, 92446, Control_c, 0, 64, 111
1, 92448, Poly_aftertouch_c, 0, 70, 0
1, 92461, Control_c, 0, 64, 127
1, 92464, Note_on_c, 0, 52, 51
1, 92494, Note_off_c, 0, 52, 61
1, 92577, Note_on_c, 0, 58, 45
1, 92610, Note_off_c, 0, 58, 61
1, 92692, Note_on_c, 0, 78, 62
1, 92719, Note_on_c, 0, 75, 52
1, 92724, Note_on_c, 0, 54, 41
1, 92730, Note_on_c, 0, 66, 36
1, 92771, Note_off_c, 0, 78, 55
1, 92789, Note_off_c, 0, 66, 44
1, 92846, Note_on_c, 0, 58, 36
1, 92918, Note_off_c, 0, 75, 31
1, 92972, Note_on_c, 0, 64, 31
1, 93007, Note_off_c, 0, 64, 55
1, 93042, Note_off_c, 0, 58, 40
1, 93061, Control_c, 0, 67, 8
1, 93076, Control_c, 0, 67, 10
1, 93091, Control_c, 0, 67, 11
1, 93093, Note_on_c, 0, 76, 61
1, 93102, Note_on_c, 0, 64, 49
1, 93102, Note_on_c, 0, 73, 45
1, 93105, Control_c, 0, 64, 106
1, 93105, Control_c, 0, 67, 12
1, 93120, Control_c, 0, 64, 80
1, 93120, Control_c, 0, 67, 14
1, 93135, Control_c, 0, 64, 62
1, 93135, Control_c, 0, 67, 15
1, 93150, Control_c, 0, 64, 0
1, 93150, Control_c, 0, 67, 17
1, 93164, Control_c, 0, 67, 20
1, 93171, Note_off_c, 0, 54, 60
1, 93179, Control_c, 0, 64, 63
1, 93179, Control_c, 0, 67, 23
1, 93194, Control_c, 0, 64, 74
1, 93194, Control_c, 0, 67, 27
1, 93197, Note_off_c, 0, 64, 63
1, 93209, Control_c, 0, 64, 86
1, 93209, Control_c, 0, 67, 32
1, 93224, Control_c, 0, 64, 98
1, 93224, Control_c, 0, 67, 37
1, 93239, Control_c, 0, 64, 106
1, 93239, Control_c, 0, 67, 42
1, 93240, Note_off_c, 0, 76, 61
1, 93248, Note_on_c, 0, 66, 49
1, 93254, Control_c, 0, 64, 113
1, 93254, Control_c, 0, 67, 47
1, 93256, Note_off_c, 0, 73, 52
1, 93269, Control_c, 0, 64, 127
1, 93269, Control_c, 0, 67, 52
1, 93284, Control_c, 0, 67, 59
1, 93299, Control_c, 0, 67, 67
1, 93302, Note_off_c, 0, 66, 55
1, 93313, Control_c, 0, 67, 76
1, 93328, Control_c, 0, 67, 86
1, 93343, Control_c, 0, 67, 96
1, 93358, Control_c, 0, 67, 109
1, 93373, Control_c, 0, 67, 120
1, 93388, Control_c, 0, 67, 127
1, 93412, Note_on_c, 0, 54, 42
1, 93448, Note_off_c, 0, 54, 61
1, 93482, Note_on_c, 0, 73, 53
1, 93524, Note_off_c, 0, 73, 61
1, 93533, Note_on_c, 0, 74, 57
1, 93632, Note_off_c, 0, 74, 35
1, 93632, Note_on_c, 0, 76, 51
1, 93756, Note_on_c, 0, 43, 47
1, 93825, Control_c, 0, 64, 111
1, 93825, Control_c, 0, 67, 123
1, 93837, Note_on_c, 0, 83, 77
1, 93840, Control_c, 0, 64, 83
1, 93840, Control_c, 0, 67, 113
1, 93854, Control_c, 0, 64, 63
1, 93854, Control_c, 0, 67, 99
1, 93862, Note_off_c, 0, 76, 51
1, 93869, Control_c, 0, 64, 0
1, 93869, Control_c, 0, 67, 87
1, 93884, Control_c, 0, 67, 74
1, 93899, Poly_aftertouch_c, 0, 74, 127
1, 93899, Control_c, 0, 67, 60
1, 93914, Control_c, 0, 64, 65
1, 93914, Control_c, 0, 67, 44
1, 93928, Control_c, 0, 64, 77
1, 93928, Control_c, 0, 67, 28
1, 93943, Control_c, 0, 64, 89
1, 93943, Control_c, 0, 67, 11
1, 93958, Control_c, 0, 64, 104
1, 93958, Control_c, 0, 67, 0
1, 93964, Note_off_c, 0, 43, 55
1, 93973, Control_c, 0, 64, 113
1, 93987, Control_c, 0, 64, 127
1, 94015, Note_on_c, 0, 50, 44
1, 94035, Note_off_c, 0, 83, 39
1, 94051, Note_off_c, 0, 50, 64
1, 94087, Poly_aftertouch_c, 0, 74, 0
1, 94120, Note_on_c, 0, 59, 44
1, 94148, Note_off_c, 0, 59, 58
1, 94211, Note_on_c, 0, 81, 76
1, 94231, Note_on_c, 0, 55, 44
1, 94238, Note_on_c, 0, 73, 44
1, 94282, Note_off_c, 0, 55, 60
1, 94310, Note_on_c, 0, 58, 48
1, 94336, Note_off_c, 0, 73, 39
1, 94351, Note_off_c, 0, 58, 61
1, 94410, Note_on_c, 0, 64, 50
1, 94443, Note_off_c, 0, 64, 53
1, 94499, Control_c, 0, 64, 100
1, 94514, Control_c, 0, 64, 74
1, 94517, Note_on_c, 0, 79, 72
1, 94525, Note_on_c, 0, 59, 43
1, 94529, Control_c, 0, 64, 45
1, 94535, Note_off_c, 0, 81, 56
1, 94544, Control_c, 0, 64, 32
1, 94553, Note_off_c, 0, 79, 59
1, 94558, Control_c, 0, 64, 63
1, 94573, Note_off_c, 0, 59, 59
1, 94573, Control_c, 0, 64, 76
1, 94588, Control_c, 0, 64, 97
1, 94593, Note_on_c, 0, 62, 48
1, 94602, Control_c, 0, 64, 127
1, 94625, Note_off_c, 0, 62, 61
1, 94679, Note_on_c, 0, 67, 40
1, 94709, Note_on_c, 0, 78, 41
1, 94711, Note_off_c, 0, 67, 55
1, 94737, Note_on_c, 0, 79, 48
1, 94738, Note_off_c, 0, 78, 55
1, 94762, Note_off_c, 0, 79, 57
1, 94780, Note_on_c, 0, 81, 45
1, 94802, Note_off_c, 0, 81, 59
1, 94852, Note_on_c, 0, 61, 54
1, 94884, Control_c, 0, 64, 110
1, 94899, Control_c, 0, 64, 85
1, 94904, Note_on_c, 0, 88, 70
1, 94914, Control_c, 0, 64, 67
1, 94929, Control_c, 0, 64, 0
1, 94931, Note_on_c, 0, 79, 35
1, 94959, Control_c, 0, 64, 23
1, 94974, Control_c, 0, 64, 65
1, 94989, Control_c, 0, 64, 77
1, 95004, Control_c, 0, 64, 90
1, 95018, Control_c, 0, 64, 104
1, 95033, Control_c, 0, 64, 110
1, 95039, Note_off_c, 0, 61, 35
1, 95048, Control_c, 0, 64, 116
1, 95059, Note_on_c, 0, 71, 44
1, 95063, Control_c, 0, 64, 127
1, 95135, Note_off_c, 0, 71, 54
1, 95162, Note_on_c, 0, 67, 51
1, 95220, Note_off_c, 0, 67, 56
1, 95290, Note_on_c, 0, 76, 45
1, 95309, Note_on_c, 0, 87, 83
1, 95322, Note_off_c, 0, 79, 42
1, 95335, Note_off_c, 0, 76, 50
1, 95335, Note_off_c, 0, 88, 61
1, 95359, Note_on_c, 0, 83, 20
1, 95399, Note_off_c, 0, 83, 53
1, 95402, Note_off_c, 0, 87, 63
1, 95409, Note_on_c, 0, 67, 53
1, 95490, Note_on_c, 0, 76, 59
1, 95562, Note_off_c, 0, 76, 55
1, 95582, Note_on_c, 0, 71, 59
1, 95609, Note_on_c, 0, 85, 85
1, 95671, Note_on_c, 0, 79, 59
1, 95696, Note_off_c, 0, 85, 58
1, 95699, Note_off_c, 0, 79, 66
1, 95708, Note_off_c, 0, 67, 30
1, 95727, Note_off_c, 0, 71, 63
1, 95734, Note_on_c, 0, 95, 65
1, 95823, Note_off_c, 0, 95, 64
1, 95836, Note_on_c, 0, 91, 71
1, 95860, Note_off_c, 0, 91, 68
1, 96014, Note_on_c, 0, 42, 64
1, 96101, Control_c, 0, 64, 109
1, 96112, Note_on_c, 0, 83, 70
1, 96115, Note_on_c, 0, 84, 68
1, 96116, Control_c, 0, 64, 82
1, 96130, Control_c, 0, 64, 64
1, 96145, Control_c, 0, 64, 0
1, 96151, Note_on_c, 0, 82, 39
1, 96174, Control_c, 0, 64, 61
1, 96177, Note_on_c, 0, 71, 21
1, 96188, Poly_aftertouch_c, 0, 75, 127
1, 96189, Control_c, 0, 64, 73
1, 96204, Control_c, 0, 64, 91
1, 96219, Control_c, 0, 64, 113
1, 96226, Note_off_c, 0, 84, 32
1, 96229, Note_off_c, 0, 42, 60
1, 96234, Control_c, 0, 64, 127
1, 96247, Note_on_c, 0, 51, 55
1, 96262, Note_off_c, 0, 71, 40
1, 96278, Note_off_c, 0, 51, 65
1, 96298, Poly_aftertouch_c, 0, 75, 0
1, 96338, Note_on_c, 0, 59, 66
1, 96374, Note_off_c, 0, 59, 57
1, 96381, Note_off_c, 0, 83, 39
1, 96424, Note_on_c, 0, 51, 58
1, 96443, Note_on_c, 0, 78, 82
1, 96496, Note_off_c, 0, 78, 63
1, 96505, Note_off_c, 0, 82, 56
1, 96538, Note_on_c, 0, 59, 54
1, 96625, Note_on_c, 0, 54, 63
1, 96637, Note_on_c, 0, 79, 64
1, 96665, Note_off_c, 0, 79, 63
1, 96678, Note_on_c, 0, 80, 66
1, 96678, Note_off_c, 0, 59, 37
1, 96702, Note_off_c, 0, 80, 66
1, 96703, Note_on_c, 0, 82, 84
1, 96727, Note_off_c, 0, 51, 21
1, 96727, Note_off_c, 0, 54, 59
1, 96738, Note_on_c, 0, 63, 58
1, 96750, Note_on_c, 0, 80, 95
1, 96757, Note_off_c, 0, 82, 64
1, 96774, Note_off_c, 0, 63, 63
1, 96795, Note_off_c, 0, 80, 65
1, 96886, Note_on_c, 0, 66, 59
1, 96912, Note_off_c, 0, 66, 65
1, 96931, Poly_aftertouch_c, 0, 59, 127
1, 96962, Note_on_c, 0, 75, 68
1, 96975, Poly_aftertouch_c, 0, 59, 0
1, 97083, Note_on_c, 0, 42, 48
1, 97135, Note_off_c, 0, 75, 60
1, 97144, Control_c, 0, 64, 82
1, 97156, Note_on_c, 0, 85, 90
1, 97159, Control_c, 0, 64, 61
1, 97174, Note_on_c, 0, 76, 41
1, 97174, Control_c, 0, 64, 0
1, 97204, Control_c, 0, 64, 51
1, 97213, Note_off_c, 0, 76, 52
1, 97218, Control_c, 0, 64, 70
1, 97227, Note_off_c, 0, 42, 61
1, 97233, Control_c, 0, 64, 86
1, 97242, Note_on_c, 0, 49, 56
1, 97248, Control_c, 0, 64, 127
1, 97282, Note_off_c, 0, 85, 62
1, 97309, Note_off_c, 0, 49, 59
1, 97338, Note_on_c, 0, 58, 58
1, 97378, Note_off_c, 0, 58, 62
1, 97441, Note_on_c, 0, 52, 60
1, 97466, Note_on_c, 0, 82, 88
1, 97473, Note_on_c, 0, 78, 28
1, 97491, Note_off_c, 0, 52, 61
1, 97511, Note_off_c, 0, 78, 46
1, 97511, Note_on_c, 0, 75, 15
1, 97525, Note_off_c, 0, 82, 63
1, 97531, Note_on_c, 0, 58, 52
1, 97560, Note_off_c, 0, 75, 52
1, 97633, Note_on_c, 0, 54, 48
1, 97663, Note_on_c, 0, 61, 52
1, 97663, Note_off_c, 0, 58, 33
1, 97669, Note_off_c, 0, 54, 63
1, 97722, Note_off_c, 0, 61, 51
1, 97732, Note_on_c, 0, 78, 81
1, 97752, Note_on_c, 0, 70, 63
1, 97778, Note_on_c, 0, 58, 54
1, 97828, Note_off_c, 0, 78, 58
1, 97859, Note_off_c, 0, 70, 36
1, 97881, Note_off_c, 0, 58, 56
1, 97908, Note_on_c, 0, 69, 59
1, 97912, Poly_aftertouch_c, 0, 64, 127
1, 97947, Note_off_c, 0, 69, 59
1, 97949, Poly_aftertouch_c, 0, 64, 0
1, 97958, Note_on_c, 0, 71, 59
1, 98030, Note_on_c, 0, 70, 51
1, 98035, Note_off_c, 0, 71, 50
1, 98095, Note_on_c, 0, 42, 51
1, 98108, Control_c, 0, 64, 105
1, 98119, Note_on_c, 0, 78, 74
1, 98124, Control_c, 0, 64, 81
1, 98139, Control_c, 0, 64, 63
1, 98154, Control_c, 0, 64, 0
1, 98198, Control_c, 0, 64, 59
1, 98210, Note_off_c, 0, 70, 55
1, 98214, Control_c, 0, 64, 71
1, 98227, Note_off_c, 0, 42, 58
1, 98229, Control_c, 0, 64, 85
1, 98243, Control_c, 0, 64, 104
1, 98258, Control_c, 0, 64, 127
1, 98268, Note_on_c, 0, 51, 44
1, 98302, Note_off_c, 0, 51, 63
1, 98378, Note_on_c, 0, 59, 47
1, 98407, Note_off_c, 0, 59, 57
1, 98520, Note_off_c, 0, 78, 25
1, 98530, Note_on_c, 0, 54, 51
1, 98557, Note_on_c, 0, 75, 60
1, 98569, Control_c, 0, 64, 113
1, 98584, Control_c, 0, 64, 82
1, 98587, Note_on_c, 0, 71, 31
1, 98599, Control_c, 0, 64, 65
1, 98614, Control_c, 0, 64, 0
1, 98658, Control_c, 0, 64, 63
1, 98673, Control_c, 0, 64, 75
1, 98681, Note_on_c, 0, 63, 37
1, 98688, Control_c, 0, 64, 84
1, 98702, Control_c, 0, 64, 92
1, 98717, Control_c, 0, 64, 96
1, 98732, Control_c, 0, 64, 99
1, 98747, Control_c, 0, 64, 103
1, 98762, Control_c, 0, 64, 108
1, 98766, Note_off_c, 0, 63, 47
1, 98776, Control_c, 0, 64, 115
1, 98791, Control_c, 0, 64, 127
1, 98798, Note_on_c, 0, 59, 31
1, 98968, Note_on_c, 0, 66, 32
1, 98972, Note_off_c, 0, 75, 53
1, 98975, Note_on_c, 0, 83, 55
1, 99010, Note_off_c, 0, 83, 64
1, 99032, Note_off_c, 0, 66, 44
1, 99064, Note_off_c, 0, 59, 35
1, 99075, Note_off_c, 0, 54, 36
1, 99110, Note_off_c, 0, 71, 45
1, 99135, Note_on_c, 0, 63, 40
1, 99208, Note_off_c, 0, 63, 47
1, 99282, Note_on_c, 0, 68, 37
1, 99339, Note_on_c, 0, 54, 34
1, 99374, Note_off_c, 0, 54, 60
1, 99562, Note_on_c, 0, 42, 49
1, 99621, Control_c, 0, 64, 105
1, 99627, Note_off_c, 0, 68, 50
1, 99631, Note_on_c, 0, 73, 65
1, 99636, Control_c, 0, 64, 82
1, 99648, Note_on_c, 0, 66, 45
1, 99651, Control_c, 0, 64, 66
1, 99666, Control_c, 0, 64, 0
1, 99678, Note_on_c, 0, 64, 39
1, 99681, Control_c, 0, 64, 26
1, 99696, Control_c, 0, 64, 64
1, 99709, Note_off_c, 0, 64, 58
1, 99711, Control_c, 0, 64, 75
1, 99722, Note_off_c, 0, 66, 62
1, 99726, Control_c, 0, 64, 92
1, 99741, Control_c, 0, 64, 116
1, 99749, Note_off_c, 0, 73, 62
1, 99755, Control_c, 0, 64, 127
1, 99795, Note_off_c, 0, 42, 57
1, 99817, Note_on_c, 0, 54, 54
1, 99863, Note_off_c, 0, 54, 62
1, 99896, Note_on_c, 0, 75, 76
1, 100010, Note_off_c, 0, 75, 56
1, 100015, Note_on_c, 0, 61, 44
1, 100047, Note_off_c, 0, 61, 53
1, 100079, Note_on_c, 0, 78, 57
1, 100111, Control_c, 0, 64, 120
1, 100126, Control_c, 0, 64, 98
1, 100128, Note_on_c, 0, 76, 64
1, 100140, Control_c, 0, 64, 85
1, 100149, Note_off_c, 0, 78, 51
1, 100155, Control_c, 0, 64, 75
1, 100158, Note_on_c, 0, 75, 65
1, 100160, Note_off_c, 0, 76, 64
1, 100170, Control_c, 0, 64, 66
1, 100185, Control_c, 0, 64, 36
1, 100200, Control_c, 0, 64, 0
1, 100211, Note_on_c, 0, 49, 45
1, 100211, Note_off_c, 0, 75, 63
1, 100247, Note_on_c, 0, 76, 54
1, 100334, Control_c, 0, 64, 47
1, 100355, Control_c, 0, 64, 63
1, 100370, Control_c, 0, 64, 72
1, 100385, Control_c, 0, 64, 81
1, 100385, Control_c, 0, 67, 11
1, 100400, Control_c, 0, 64, 88
1, 100400, Control_c, 0, 67, 15
1, 100414, Note_off_c, 0, 49, 52
1, 100415, Control_c, 0, 64, 91
1, 100415, Control_c, 0, 67, 19
1, 100429, Control_c, 0, 64, 93
1, 100429, Control_c, 0, 67, 24
1, 100442, Note_on_c, 0, 58, 34
1, 100444, Control_c, 0, 64, 97
1, 100444, Control_c, 0, 67, 29
1, 100459, Control_c, 0, 64, 102
1, 100459, Control_c, 0, 67, 34
1, 100474, Control_c, 0, 64, 106
1, 100474, Control_c, 0, 67, 40
1, 100489, Control_c, 0, 64, 108
1, 100489, Control_c, 0, 67, 46
1, 100503, Control_c, 0, 64, 108
1, 100503, Control_c, 0, 67, 51
1, 100513, Note_off_c, 0, 58, 51
1, 100519, Control_c, 0, 67, 57
1, 100534, Control_c, 0, 67, 63
1, 100549, Control_c, 0, 67, 72
1, 100551, Note_on_c, 0, 78, 55
1, 100564, Control_c, 0, 67, 82
1, 100578, Control_c, 0, 64, 109
1, 100578, Control_c, 0, 67, 93
1, 100593, Control_c, 0, 67, 106
1, 100608, Control_c, 0, 67, 119
1, 100623, Control_c, 0, 67, 127
1, 100630, Note_on_c, 0, 64, 40
1, 100673, Note_off_c, 0, 64, 58
1, 100786, Control_c, 0, 64, 108
1, 100801, Control_c, 0, 64, 105
1, 100816, Control_c, 0, 64, 97
1, 100826, Note_off_c, 0, 76, 51
1, 100831, Control_c, 0, 64, 86
1, 100840, Note_on_c, 0, 83, 51
1, 100842, Note_on_c, 0, 80, 42
1, 100845, Control_c, 0, 64, 72
1, 100851, Note_off_c, 0, 78, 38
1, 100852, Note_on_c, 0, 61, 30
1, 100860, Control_c, 0, 64, 35
1, 100875, Control_c, 0, 64, 0
1, 100919, Control_c, 0, 64, 24
1, 100934, Control_c, 0, 64, 64
1, 100949, Control_c, 0, 64, 72
1, 100963, Control_c, 0, 64, 77
1, 100978, Control_c, 0, 64, 80
1, 100993, Control_c, 0, 64, 84
1, 101008, Control_c, 0, 64, 88
1, 101023, Control_c, 0, 64, 92
1, 101037, Control_c, 0, 64, 96
1, 101052, Control_c, 0, 64, 98
1, 101067, Control_c, 0, 64, 98
1, 101100, Note_off_c, 0, 83, 28
1, 101125, Note_on_c, 0, 66, 34
1, 101193, Control_c, 0, 64, 98
1, 101208, Control_c, 0, 64, 97
1, 101218, Note_off_c, 0, 80, 43
1, 101220, Note_on_c, 0, 82, 52
1, 101238, Control_c, 0, 64, 97
1, 101249, Note_on_c, 0, 78, 30
1, 101252, Control_c, 0, 64, 96
1, 101267, Control_c, 0, 64, 95
1, 101282, Control_c, 0, 64, 89
1, 101296, Control_c, 0, 64, 79
1, 101311, Control_c, 0, 64, 69
1, 101328, Control_c, 0, 64, 56
1, 101342, Control_c, 0, 64, 14
1, 101357, Control_c, 0, 64, 47
1, 101372, Control_c, 0, 64, 65
1, 101387, Control_c, 0, 64, 73
1, 101401, Note_on_c, 0, 54, 36
1, 101401, Control_c, 0, 64, 80
1, 101410, Note_off_c, 0, 66, 44
1, 101416, Control_c, 0, 64, 85
1, 101431, Control_c, 0, 64, 89
1, 101446, Control_c, 0, 64, 92
1, 101461, Control_c, 0, 64, 94
1, 101463, Note_off_c, 0, 78, 40
1, 101472, Note_off_c, 0, 61, 38
1, 101475, Control_c, 0, 64, 97
1, 101490, Control_c, 0, 64, 99
1, 101494, Note_off_c, 0, 54, 44
1, 101505, Control_c, 0, 64, 100
1, 101511, Note_off_c, 0, 82, 40
1, 101627, Note_on_c, 0, 77, 33
1, 101683, Note_on_c, 0, 78, 43
1, 101698, Control_c, 0, 64, 99
1, 101701, Note_off_c, 0, 77, 0
1, 101709, Note_off_c, 0, 78, 57
1, 101712, Control_c, 0, 64, 98
1, 101714, Note_on_c, 0, 77, 44
1, 101727, Control_c, 0, 64, 98
1, 101742, Control_c, 0, 64, 97
1, 101757, Control_c, 0, 64, 94
1, 101772, Control_c, 0, 64, 89
1, 101773, Note_off_c, 0, 77, 56
1, 101786, Control_c, 0, 64, 82
1, 101791, Note_on_c, 0, 78, 52
1, 101801, Control_c, 0, 64, 72
1, 101816, Control_c, 0, 64, 62
1, 101818, Note_on_c, 0, 38, 42
1, 101818, Note_on_c, 0, 85, 57
1, 101839, Control_c, 0, 64, 0
1, 101865, Note_off_c, 0, 38, 53
1, 102056, Note_on_c, 0, 45, 47
1, 102084, Note_off_c, 0, 45, 57
1, 102258, Note_on_c, 0, 50, 40
1, 102268, Note_on_c, 0, 83, 57
1, 102269, Note_off_c, 0, 85, 56
1, 102291, Note_off_c, 0, 50, 54
1, 102459, Note_on_c, 0, 45, 24
1, 102493, Note_off_c, 0, 45, 44
1, 102637, Note_off_c, 0, 83, 53
1, 102642, Note_on_c, 0, 81, 53
1, 102646, Note_on_c, 0, 54, 45
1, 102677, Control_c, 0, 64, 65
1, 102685, Note_off_c, 0, 54, 59
1, 102691, Control_c, 0, 64, 75
1, 102694, Note_off_c, 0, 78, 46
1, 102700, Note_off_c, 0, 81, 64
1, 102706, Control_c, 0, 64, 83
1, 102721, Control_c, 0, 64, 89
1, 102735, Control_c, 0, 64, 93
1, 102750, Control_c, 0, 64, 97
1, 102765, Control_c, 0, 64, 99
1, 102780, Control_c, 0, 64, 100
1, 102794, Note_on_c, 0, 50, 44
1, 102826, Note_off_c, 0, 50, 56
1, 102833, Note_on_c, 0, 72, 66
1, 102854, Control_c, 0, 64, 99
1, 102868, Control_c, 0, 64, 98
1, 102870, Note_off_c, 0, 72, 60
1, 102883, Control_c, 0, 64, 97
1, 102898, Control_c, 0, 64, 95
1, 102901, Note_on_c, 0, 73, 38
1, 102914, Control_c, 0, 64, 88
1, 102929, Note_on_c, 0, 72, 55
1, 102929, Control_c, 0, 64, 79
1, 102944, Control_c, 0, 64, 65
1, 102954, Note_on_c, 0, 81, 52
1, 102954, Note_off_c, 0, 72, 63
1, 102959, Control_c, 0, 64, 0
1, 102960, Note_on_c, 0, 57, 61
1, 102960, Note_off_c, 0, 73, 0
1, 102960, Note_on_c, 0, 73, 56
1, 102992, Note_off_c, 0, 57, 64
1, 103021, Note_off_c, 0, 81, 57
1, 103136, Note_on_c, 0, 54, 63
1, 103165, Note_off_c, 0, 54, 64
1, 103276, Note_off_c, 0, 73, 61
1, 103282, Note_on_c, 0, 78, 57
1, 103282, Note_on_c, 0, 62, 57
1, 103284, Note_on_c, 0, 71, 56
1, 103312, Note_off_c, 0, 62, 64
1, 103455, Note_on_c, 0, 57, 34
1, 103490, Note_off_c, 0, 57, 47
1, 103589, Note_off_c, 0, 71, 58
1, 103614, Note_on_c, 0, 66, 50
1, 103614, Note_off_c, 0, 78, 62
1, 103621, Note_on_c, 0, 74, 55
1, 103633, Note_on_c, 0, 69, 46
1, 103639, Note_off_c, 0, 66, 62
1, 103756, Note_off_c, 0, 74, 64
1, 103768, Control_c, 0, 64, 17
1, 103782, Control_c, 0, 64, 63
1, 103785, Note_off_c, 0, 69, 63
1, 103797, Control_c, 0, 64, 70
1, 103812, Control_c, 0, 64, 74
1, 103820, Note_on_c, 0, 62, 28
1, 103827, Control_c, 0, 64, 75
1, 103842, Control_c, 0, 64, 76
1, 103859, Note_off_c, 0, 62, 47
1, 103886, Control_c, 0, 64, 75
1, 103915, Control_c, 0, 64, 75
1, 103930, Control_c, 0, 64, 74
1, 103945, Control_c, 0, 64, 72
1, 103960, Control_c, 0, 64, 68
1, 103975, Control_c, 0, 64, 62
1, 103989, Control_c, 0, 64, 0
1, 103999, Note_on_c, 0, 33, 68
1, 104028, Note_off_c, 0, 33, 61
1, 104101, Control_c, 0, 67, 112
1, 104115, Control_c, 0, 67, 89
1, 104130, Control_c, 0, 67, 64
1, 104145, Control_c, 0, 67, 41
1, 104160, Control_c, 0, 67, 26
1, 104175, Control_c, 0, 67, 13
1, 104176, Note_on_c, 0, 70, 61
1, 104177, Note_on_c, 0, 66, 60
1, 104184, Note_on_c, 0, 61, 56
1, 104189, Control_c, 0, 67, 0
1, 104216, Note_off_c, 0, 66, 61
1, 104218, Note_off_c, 0, 70, 56
1, 104222, Note_off_c, 0, 61, 63
1, 104318, Note_on_c, 0, 45, 59
1, 104333, Note_on_c, 0, 52, 45
1, 104341, Note_on_c, 0, 71, 73
1, 104343, Note_on_c, 0, 62, 58
1, 104343, Note_off_c, 0, 45, 60
1, 104367, Note_off_c, 0, 52, 53
1, 104372, Note_off_c, 0, 62, 63
1, 104373, Note_off_c, 0, 71, 63
1, 104431, Poly_aftertouch_c, 0, 67, 0
1, 104513, Note_on_c, 0, 75, 52
1, 104520, Note_on_c, 0, 72, 48
1, 104534, Note_off_c, 0, 75, 62
1, 104550, Note_off_c, 0, 72, 60
1, 104680, Control_c, 0, 64, 56
1, 104695, Control_c, 0, 64, 67
1, 104698, Note_on_c, 0, 76, 69
1, 104701, Note_on_c, 0, 67, 56
1, 104701, Note_on_c, 0, 71, 56
1, 104701, Note_on_c, 0, 88, 74
1, 104709, Control_c, 0, 64, 72
1, 104724, Control_c, 0, 64, 76
1, 104732, Note_off_c, 0, 76, 60
1, 104739, Control_c, 0, 64, 84
1, 104743, Note_off_c, 0, 88, 61
1, 104746, Note_off_c, 0, 71, 60
1, 104754, Control_c, 0, 64, 95
1, 104769, Control_c, 0, 64, 108
1, 104781, Note_off_c, 0, 67, 57
1, 104784, Control_c, 0, 64, 127
1, 104888, Note_on_c, 0, 90, 91
1, 104891, Note_on_c, 0, 78, 82
1, 104958, Note_off_c, 0, 78, 60
1, 104967, Note_off_c, 0, 90, 64
1, 105116, Control_c, 0, 64, 90
1, 105125, Note_on_c, 0, 33, 63
1, 105131, Control_c, 0, 64, 62
1, 105145, Control_c, 0, 64, 0
1, 105151, Note_on_c, 0, 79, 76
1, 105152, Note_on_c, 0, 91, 79
1, 105157, Note_on_c, 0, 85, 73
1, 105175, Control_c, 0, 64, 34
1, 105181, Note_off_c, 0, 33, 61
1, 105190, Control_c, 0, 64, 69
1, 105205, Control_c, 0, 64, 82
1, 105207, Note_off_c, 0, 91, 62
1, 105219, Control_c, 0, 64, 97
1, 105229, Note_off_c, 0, 79, 51
1, 105234, Control_c, 0, 64, 112
1, 105249, Control_c, 0, 64, 123
1, 105264, Control_c, 0, 64, 127
1, 105387, Note_on_c, 0, 55, 58
1, 105387, Note_off_c, 0, 85, 60
1, 105392, Note_on_c, 0, 88, 80
1, 105395, Note_on_c, 0, 76, 75
1, 105416, Note_off_c, 0, 88, 63
1, 105422, Note_off_c, 0, 76, 63
1, 105507, Note_off_c, 0, 55, 56
1, 105557, Note_on_c, 0, 57, 56
1, 105561, Note_on_c, 0, 85, 81
1, 105568, Note_on_c, 0, 73, 83
1, 105612, Note_off_c, 0, 73, 61
1, 105616, Note_off_c, 0, 85, 64
1, 105725, Note_on_c, 0, 61, 54
1, 105730, Note_on_c, 0, 81, 73
1, 105738, Note_on_c, 0, 69, 71
1, 105756, Note_on_c, 0, 64, 51
1, 105783, Note_off_c, 0, 81, 56
1, 105807, Note_off_c, 0, 69, 56
1, 105825, Note_on_c, 0, 71, 61
1, 105852, Note_off_c, 0, 71, 67
1, 105874, Note_on_c, 0, 73, 65
1, 105908, Note_off_c, 0, 73, 64
1, 105914, Note_on_c, 0, 71, 70
1, 105924, Control_c, 0, 64, 96
1, 105931, Note_on_c, 0, 79, 65
1, 105939, Control_c, 0, 64, 71
1, 105954, Control_c, 0, 64, 0
1, 106013, Control_c, 0, 64, 57
1, 106021, Note_off_c, 0, 64, 56
1, 106023, Note_off_c, 0, 61, 59
1, 106028, Control_c, 0, 64, 70
1, 106042, Control_c, 0, 64, 79
1, 106057, Note_off_c, 0, 57, 61
1, 106057, Control_c, 0, 64, 89
1, 106070, Note_off_c, 0, 79, 38
1, 106072, Control_c, 0, 64, 96
1, 106087, Control_c, 0, 64, 103
1, 106102, Control_c, 0, 64, 113
1, 106117, Control_c, 0, 64, 127
1, 106145, Note_off_c, 0, 71, 39
1, 106164, Note_on_c, 0, 67, 52
1, 106170, Note_on_c, 0, 76, 64
1, 106189, Note_off_c, 0, 67, 59
1, 106215, Note_off_c, 0, 76, 61
1, 106366, Note_on_c, 0, 77, 47
1, 106391, Note_off_c, 0, 77, 58
1, 106411, Note_on_c, 0, 78, 56
1, 106434, Note_off_c, 0, 78, 61
1, 106463, Note_on_c, 0, 77, 67
1, 106496, Note_on_c, 0, 38, 51
1, 106516, Note_on_c, 0, 45, 43
1, 106604, Note_on_c, 0, 85, 76
1, 106614, Control_c, 0, 64, 115
1, 106629, Note_on_c, 0, 78, 40
1, 106629, Control_c, 0, 64, 90
1, 106644, Control_c, 0, 64, 71
1, 106658, Control_c, 0, 64, 0
1, 106668, Note_off_c, 0, 78, 0
1, 106668, Note_on_c, 0, 78, 11
1, 106712, Note_off_c, 0, 77, 25
1, 106717, Control_c, 0, 64, 47
1, 106732, Control_c, 0, 64, 69
1, 106747, Control_c, 0, 64, 83
1, 106762, Control_c, 0, 64, 106
1, 106776, Note_off_c, 0, 78, 54
1, 106777, Control_c, 0, 64, 127
1, 106804, Note_off_c, 0, 45, 41
1, 106834, Note_off_c, 0, 38, 41
1, 106923, Note_on_c, 0, 50, 50
1, 106968, Note_on_c, 0, 88, 79
1, 106977, Note_off_c, 0, 85, 57
1, 106978, Note_off_c, 0, 50, 64
1, 107165, Note_on_c, 0, 54, 45
1, 107199, Note_on_c, 0, 86, 76
1, 107208, Note_off_c, 0, 88, 60
1, 107243, Note_off_c, 0, 86, 59
1, 107415, Note_on_c, 0, 57, 52
1, 107416, Note_on_c, 0, 78, 57
1, 107419, Note_on_c, 0, 81, 60
1, 107446, Note_off_c, 0, 54, 33
1, 107452, Note_on_c, 0, 75, 37
1, 107455, Note_off_c, 0, 81, 59
1, 107456, Note_off_c, 0, 57, 62
1, 107492, Note_off_c, 0, 75, 48
1, 107527, Note_off_c, 0, 78, 34
1, 107574, Note_on_c, 0, 62, 57
1, 107598, Note_on_c, 0, 74, 70
1, 107598, Note_on_c, 0, 81, 59
1, 107605, Note_on_c, 0, 69, 58
1, 107612, Note_off_c, 0, 62, 61
1, 107637, Note_off_c, 0, 81, 48
1, 107646, Note_off_c, 0, 69, 59
1, 107657, Note_off_c, 0, 74, 62
1, 107747, Note_on_c, 0, 66, 55
1, 107775, Note_off_c, 0, 66, 65
1, 107794, Note_on_c, 0, 74, 61
1, 107833, Note_on_c, 0, 72, 60
1, 107840, Note_off_c, 0, 74, 63
1, 107875, Note_off_c, 0, 72, 59
1, 107992, Note_on_c, 0, 72, 57
1, 108013, Note_off_c, 0, 72, 59
1, 108044, Note_on_c, 0, 73, 45
1, 108079, Note_on_c, 0, 45, 44
1, 108085, Note_on_c, 0, 38, 43
1, 108086, Note_off_c, 0, 73, 0
1, 108096, Note_on_c, 0, 81, 45
1, 108097, Control_c, 0, 64, 101
1, 108103, Note_on_c, 0, 73, 55
1, 108112, Control_c, 0, 64, 82
1, 108126, Note_off_c, 0, 81, 53
1, 108127, Control_c, 0, 64, 67
1, 108142, Control_c, 0, 64, 0
1, 108216, Control_c, 0, 64, 61
1, 108230, Control_c, 0, 64, 73
1, 108245, Control_c, 0, 64, 84
1, 108260, Control_c, 0, 64, 98
1, 108263, Note_off_c, 0, 45, 57
1, 108275, Control_c, 0, 64, 116
1, 108290, Control_c, 0, 64, 127
1, 108291, Note_off_c, 0, 38, 37
1, 108382, Note_off_c, 0, 73, 53
1, 108436, Note_on_c, 0, 54, 45
1, 108444, Note_on_c, 0, 78, 58
1, 108445, Note_on_c, 0, 76, 56
1, 108612, Note_off_c, 0, 78, 46
1, 108649, Note_on_c, 0, 74, 60
1, 108662, Note_off_c, 0, 54, 37
1, 108671, Note_on_c, 0, 57, 47
1, 108701, Note_off_c, 0, 57, 61
1, 108701, Note_off_c, 0, 76, 33
1, 108772, Note_off_c, 0, 74, 56
1, 108816, Note_on_c, 0, 76, 61
1, 108834, Note_on_c, 0, 62, 55
1, 108834, Note_on_c, 0, 71, 65
1, 108842, Note_off_c, 0, 76, 65
1, 108883, Note_off_c, 0, 71, 61
1, 108958, Note_off_c, 0, 62, 54
1, 109013, Note_on_c, 0, 64, 68
1, 109054, Note_on_c, 0, 69, 64
1, 109056, Note_off_c, 0, 64, 60
1, 109079, Note_on_c, 0, 73, 50
1, 109084, Note_on_c, 0, 74, 34
1, 109117, Note_off_c, 0, 73, 54
1, 109117, Note_off_c, 0, 74, 53
1, 109189, Note_off_c, 0, 69, 25
1, 109240, Note_on_c, 0, 71, 71
1, 109260, Note_on_c, 0, 66, 62
1, 109269, Note_off_c, 0, 71, 63
1, 109291, Note_off_c, 0, 66, 65
1, 109457, Note_on_c, 0, 37, 56
1, 109562, Note_on_c, 0, 69, 67
1, 109579, Control_c, 0, 64, 102
1, 109593, Note_on_c, 0, 65, 44
1, 109594, Control_c, 0, 64, 77
1, 109595, Note_on_c, 0, 62, 42
1, 109608, Control_c, 0, 64, 21
1, 109623, Control_c, 0, 64, 0
1, 109668, Control_c, 0, 64, 63
1, 109682, Control_c, 0, 64, 74
1, 109697, Control_c, 0, 64, 88
1, 109712, Control_c, 0, 64, 106
1, 109726, Control_c, 0, 64, 127
1, 109732, Note_off_c, 0, 37, 60
1, 109771, Note_off_c, 0, 65, 43
1, 109798, Note_off_c, 0, 62, 35
1, 109869, Note_off_c, 0, 69, 54
1, 109924, Note_on_c, 0, 60, 42
1, 109929, Note_on_c, 0, 59, 50
1, 109987, Note_off_c, 0, 59, 52
1, 110030, Note_off_c, 0, 60, 56
1, 110112, Note_on_c, 0, 61, 58
1, 110117, Note_on_c, 0, 57, 57
1, 110170, Note_off_c, 0, 57, 56
1, 110223, Note_off_c, 0, 61, 57
1, 110278, Note_on_c, 0, 56, 64
1, 110287, Note_on_c, 0, 59, 63
1, 110292, Note_on_c, 0, 65, 56
1, 110342, Note_off_c, 0, 56, 61
1, 110373, Note_off_c, 0, 59, 54
1, 110445, Note_off_c, 0, 65, 49
1, 110449, Note_on_c, 0, 53, 67
1, 110454, Note_on_c, 0, 68, 69
1, 110459, Note_on_c, 0, 62, 66
1, 110495, Note_off_c, 0, 53, 59
1, 110536, Note_off_c, 0, 62, 53
1, 110609, Note_on_c, 0, 50, 57
1, 110620, Note_on_c, 0, 65, 52
1, 110630, Note_on_c, 0, 71, 75
1, 110639, Note_off_c, 0, 50, 66
1, 110656, Note_off_c, 0, 65, 64
1, 110671, Note_off_c, 0, 71, 62
1, 110677, Note_off_c, 0, 68, 22
1, 110815, Note_on_c, 0, 53, 78
1, 110817, Control_c, 0, 64, 85
1, 110838, Control_c, 0, 64, 0
1, 110849, Note_on_c, 0, 68, 76
1, 110883, Control_c, 0, 64, 57
1, 110898, Control_c, 0, 64, 74
1, 110904, Note_off_c, 0, 53, 63
1, 110913, Control_c, 0, 64, 89
1, 110919, Note_off_c, 0, 68, 61
1, 110928, Control_c, 0, 64, 107
1, 110934, Note_on_c, 0, 74, 65
1, 110944, Control_c, 0, 64, 127
1, 110977, Note_off_c, 0, 74, 61
1, 110997, Note_on_c, 0, 73, 79
1, 111031, Note_on_c, 0, 56, 69
1, 111056, Note_on_c, 0, 76, 67
1, 111067, Note_off_c, 0, 73, 58
1, 111095, Note_off_c, 0, 56, 61
1, 111098, Note_on_c, 0, 74, 79
1, 111130, Note_off_c, 0, 76, 61
1, 111131, Note_on_c, 0, 77, 67
1, 111135, Note_off_c, 0, 74, 63
1, 111158, Note_off_c, 0, 77, 68
1, 111185, Note_on_c, 0, 59, 87
1, 111200, Note_on_c, 0, 74, 80
1, 111233, Note_off_c, 0, 59, 63
1, 111266, Note_on_c, 0, 80, 64
1, 111268, Note_off_c, 0, 74, 62
1, 111309, Note_off_c, 0, 80, 61
1, 111314, Note_on_c, 0, 77, 75
1, 111347, Note_on_c, 0, 62, 94
1, 111367, Note_on_c, 0, 81, 67
1, 111388, Note_on_c, 0, 80, 62
1, 111389, Note_off_c, 0, 77, 59
1, 111399, Note_off_c, 0, 62, 62
1, 111424, Note_on_c, 0, 83, 80
1, 111436, Note_off_c, 0, 81, 63
1, 111446, Note_off_c, 0, 80, 63
1, 111461, Note_off_c, 0, 83, 65
1, 111517, Note_on_c, 0, 65, 98
1, 111546, Note_on_c, 0, 80, 79
1, 111566, Note_off_c, 0, 65, 67
1, 111596, Note_off_c, 0, 80, 59
1, 111601, Note_on_c, 0, 86, 68
1, 111673, Note_off_c, 0, 86, 62
1, 111676, Note_on_c, 0, 85, 73
1, 111681, Note_on_c, 0, 68, 87
1, 111702, Note_off_c, 0, 68, 69
1, 111705, Note_on_c, 0, 89, 72
1, 111715, Note_off_c, 0, 85, 61
1, 111729, Note_off_c, 0, 89, 66
1, 111783, Note_on_c, 0, 81, 73
1, 111833, Note_off_c, 0, 81, 64
1, 111840, Control_c, 0, 64, 107
1, 111852, Note_on_c, 0, 89, 71
1, 111855, Control_c, 0, 64, 72
1, 111867, Note_on_c, 0, 48, 81
1, 111868, Note_on_c, 0, 88, 53
1, 111870, Control_c, 0, 64, 0
1, 111876, Note_on_c, 0, 96, 96
1, 111891, Note_off_c, 0, 88, 60
1, 111897, Note_off_c, 0, 89, 62
1, 111909, Note_off_c, 0, 96, 68
1, 111914, Control_c, 0, 64, 59
1, 111929, Control_c, 0, 64, 72
1, 111944, Control_c, 0, 64, 81
1, 111959, Control_c, 0, 64, 90
1, 111974, Control_c, 0, 64, 97
1, 111989, Control_c, 0, 64, 105
1, 112003, Control_c, 0, 64, 122
1, 112018, Control_c, 0, 64, 127
1, 112087, Note_on_c, 0, 57, 76
1, 112126, Note_off_c, 0, 48, 55
1, 112168, Note_off_c, 0, 57, 60
1, 112242, Note_on_c, 0, 60, 80
1, 112283, Note_off_c, 0, 60, 63
1, 112405, Note_on_c, 0, 65, 97
1, 112455, Note_off_c, 0, 65, 65
1, 112554, Note_on_c, 0, 67, 99
1, 112574, Control_c, 0, 64, 98
1, 112583, Note_off_c, 0, 67, 65
1, 112589, Control_c, 0, 64, 64
1, 112604, Control_c, 0, 64, 0
1, 112723, Note_on_c, 0, 69, 71
1, 112743, Note_off_c, 0, 69, 66
1, 112867, Note_on_c, 0, 70, 83
1, 112880, Note_on_c, 0, 84, 68
1, 112887, Note_off_c, 0, 70, 70
1, 112892, Note_on_c, 0, 82, 68
1, 112900, Control_c, 0, 64, 83
1, 112915, Control_c, 0, 64, 96
1, 112917, Note_off_c, 0, 82, 68
1, 112926, Note_on_c, 0, 89, 69
1, 112930, Control_c, 0, 64, 90
1, 112944, Control_c, 0, 64, 74
1, 112959, Control_c, 0, 64, 53
1, 112970, Note_off_c, 0, 84, 64
1, 112973, Note_on_c, 0, 82, 75
1, 112974, Control_c, 0, 64, 0
1, 112978, Note_off_c, 0, 89, 60
1, 113011, Note_off_c, 0, 82, 62
1, 113013, Note_on_c, 0, 77, 72
1, 113019, Note_on_c, 0, 67, 69
1, 113035, Note_off_c, 0, 77, 68
1, 113047, Note_off_c, 0, 67, 63
1, 113175, Note_on_c, 0, 64, 73
1, 113175, Note_on_c, 0, 79, 74
1, 113189, Note_on_c, 0, 82, 64
1, 113205, Note_off_c, 0, 64, 64
1, 113206, Note_off_c, 0, 79, 57
1, 113215, Note_on_c, 0, 84, 60
1, 113259, Note_off_c, 0, 84, 61
1, 113268, Note_on_c, 0, 79, 59
1, 113268, Note_off_c, 0, 82, 63
1, 113300, Note_off_c, 0, 79, 64
1, 113312, Note_on_c, 0, 72, 52
1, 113325, Note_on_c, 0, 60, 62
1, 113333, Note_off_c, 0, 72, 59
1, 113353, Note_off_c, 0, 60, 66
1, 113466, Note_on_c, 0, 62, 52
1, 113486, Note_on_c, 0, 84, 36
1, 113495, Note_on_c, 0, 82, 15
1, 113500, Note_off_c, 0, 62, 59
1, 113516, Note_on_c, 0, 89, 67
1, 113542, Note_off_c, 0, 84, 0
1, 113555, Note_on_c, 0, 84, 38
1, 113566, Note_off_c, 0, 89, 60
1, 113581, Note_off_c, 0, 84, 60
1, 113609, Note_on_c, 0, 77, 60
1, 113612, Note_off_c, 0, 82, 53
1, 113622, Note_on_c, 0, 58, 45
1, 113631, Note_off_c, 0, 77, 60
1, 113650, Note_off_c, 0, 58, 55
1, 113746, Note_on_c, 0, 84, 65
1, 113750, Note_on_c, 0, 48, 69
1, 113767, Control_c, 0, 64, 62
1, 113782, Control_c, 0, 64, 71
1, 113797, Control_c, 0, 64, 75
1, 113799, Note_on_c, 0, 89, 50
1, 113812, Note_on_c, 0, 81, 38
1, 113825, Note_off_c, 0, 84, 64
1, 113833, Note_off_c, 0, 89, 56
1, 113834, Control_c, 0, 64, 71
1, 113849, Control_c, 0, 64, 65
1, 113859, Note_off_c, 0, 81, 66
1, 113864, Control_c, 0, 64, 53
1, 113864, Note_on_c, 0, 77, 75
1, 113879, Control_c, 0, 64, 0
1, 113890, Note_off_c, 0, 77, 65
1, 113920, Note_on_c, 0, 57, 70
1, 113924, Note_off_c, 0, 48, 56
1, 113983, Note_off_c, 0, 57, 61
1, 114024, Note_on_c, 0, 81, 65
1, 114037, Note_on_c, 0, 77, 75
1, 114042, Control_c, 0, 64, 32
1, 114045, Note_on_c, 0, 60, 82
1, 114054, Note_on_c, 0, 84, 69
1, 114057, Control_c, 0, 64, 70
1, 114070, Note_off_c, 0, 81, 51
1, 114072, Control_c, 0, 64, 90
1, 114087, Control_c, 0, 64, 127
1, 114089, Note_off_c, 0, 77, 60
1, 114093, Note_off_c, 0, 60, 65
1, 114100, Note_on_c, 0, 72, 77
1, 114114, Note_off_c, 0, 84, 65
1, 114124, Note_off_c, 0, 72, 65
1, 114181, Note_on_c, 0, 65, 95
1, 114228, Note_off_c, 0, 65, 66
1, 114310, Control_c, 0, 64, 90
1, 114317, Note_on_c, 0, 67, 99
1, 114323, Note_on_c, 0, 84, 41
1, 114324, Control_c, 0, 64, 64
1, 114325, Note_on_c, 0, 81, 78
1, 114338, Note_on_c, 0, 89, 61
1, 114339, Control_c, 0, 64, 0
1, 114350, Note_off_c, 0, 84, 35
1, 114354, Control_c, 0, 64, 53
1, 114357, Note_off_c, 0, 81, 63
1, 114369, Control_c, 0, 64, 82
1, 114371, Note_off_c, 0, 89, 55
1, 114372, Note_off_c, 0, 67, 64
1, 114380, Note_on_c, 0, 77, 51
1, 114384, Control_c, 0, 64, 127
1, 114403, Note_off_c, 0, 77, 59
1, 114461, Note_on_c, 0, 69, 101
1, 114502, Control_c, 0, 64, 87
1, 114508, Note_off_c, 0, 69, 69
1, 114517, Control_c, 0, 64, 51
1, 114532, Control_c, 0, 64, 0
1, 114621, Note_on_c, 0, 71, 97
1, 114628, Control_c, 0, 64, 69
1, 114642, Note_on_c, 0, 80, 71
1, 114643, Control_c, 0, 64, 99
1, 114646, Note_on_c, 0, 88, 65
1, 114657, Control_c, 0, 64, 127
1, 114672, Control_c, 0, 64, 114
1, 114677, Note_off_c, 0, 80, 59
1, 114680, Note_off_c, 0, 71, 64
1, 114687, Control_c, 0, 64, 87
1, 114701, Note_on_c, 0, 89, 71
1, 114702, Control_c, 0, 64, 71
1, 114709, Note_off_c, 0, 88, 58
1, 114717, Control_c, 0, 64, 0
1, 114720, Note_on_c, 0, 84, 62
1, 114741, Note_off_c, 0, 89, 58
1, 114770, Note_off_c, 0, 84, 63
1, 114773, Note_on_c, 0, 68, 74
1, 114788, Note_on_c, 0, 77, 65
1, 114797, Note_off_c, 0, 68, 66
1, 114814, Note_off_c, 0, 77, 67
1, 114916, Note_on_c, 0, 65, 76
1, 114925, Note_on_c, 0, 80, 63
1, 114929, Note_on_c, 0, 86, 69
1, 114934, Note_on_c, 0, 84, 24
1, 114951, Note_off_c, 0, 80, 66
1, 114958, Note_off_c, 0, 65, 60
1, 114968, Note_on_c, 0, 83, 66
1, 114979, Note_off_c, 0, 84, 51
1, 114993, Note_off_c, 0, 86, 60
1, 115009, Note_off_c, 0, 83, 66
1, 115020, Note_on_c, 0, 80, 58
1, 115039, Note_off_c, 0, 80, 62
1, 115040, Note_on_c, 0, 77, 69
1, 115058, Note_on_c, 0, 62, 65
1, 115077, Note_off_c, 0, 77, 60
1, 115090, Note_off_c, 0, 62, 64
1, 115181, Note_on_c, 0, 79, 68
1, 115190, Note_on_c, 0, 82, 66
1, 115193, Note_on_c, 0, 64, 64
1, 115213, Note_on_c, 0, 84, 68
1, 115213, Note_off_c, 0, 79, 62
1, 115230, Note_off_c, 0, 64, 57
1, 115260, Note_off_c, 0, 84, 61
1, 115274, Note_off_c, 0, 82, 67
1, 115319, Note_on_c, 0, 70, 80
1, 115339, Note_on_c, 0, 61, 51
1, 115341, Note_off_c, 0, 70, 69
1, 115366, Note_off_c, 0, 61, 57
1, 115476, Note_on_c, 0, 48, 72
1, 115476, Note_on_c, 0, 77, 62
1, 115489, Note_on_c, 0, 72, 49
1, 115503, Note_off_c, 0, 77, 67
1, 115513, Note_off_c, 0, 72, 58
1, 115531, Note_on_c, 0, 79, 55
1, 115546, Note_off_c, 0, 48, 45
1, 115561, Note_off_c, 0, 79, 64
1, 115562, Note_on_c, 0, 72, 71
1, 115577, Note_on_c, 0, 74, 50
1, 115588, Note_off_c, 0, 72, 67
1, 115597, Note_on_c, 0, 69, 70
1, 115605, Note_off_c, 0, 74, 34
1, 115620, Note_off_c, 0, 69, 62
1, 115623, Note_on_c, 0, 57, 58
1, 115656, Note_off_c, 0, 57, 64
1, 115662, Note_on_c, 0, 71, 3
1, 115663, Note_off_c, 0, 71, 127
1, 115741, Note_on_c, 0, 60, 76
1, 115747, Note_on_c, 0, 82, 70
1, 115766, Note_on_c, 0, 77, 37
1, 115769, Note_off_c, 0, 60, 67
1, 115772, Note_off_c, 0, 82, 57
1, 115777, Control_c, 0, 64, 64
1, 115792, Control_c, 0, 64, 75
1, 115792, Note_on_c, 0, 84, 63
1, 115798, Note_off_c, 0, 77, 53
1, 115807, Control_c, 0, 64, 83
1, 115820, Note_on_c, 0, 82, 59
1, 115822, Control_c, 0, 64, 89
1, 115836, Note_on_c, 0, 77, 61
1, 115836, Control_c, 0, 64, 90
1, 115840, Note_off_c, 0, 82, 62
1, 115847, Note_off_c, 0, 84, 63
1, 115851, Control_c, 0, 64, 89
1, 115860, Note_on_c, 0, 72, 75
1, 115863, Note_off_c, 0, 77, 66
1, 115866, Control_c, 0, 64, 83
1, 115881, Control_c, 0, 64, 74
1, 115883, Note_on_c, 0, 65, 91
1, 115892, Note_off_c, 0, 72, 62
1, 115895, Control_c, 0, 64, 66
1, 115910, Control_c, 0, 64, 61
1, 115925, Control_c, 0, 64, 57
1, 115940, Control_c, 0, 64, 56
1, 115942, Note_off_c, 0, 65, 63
1, 115955, Control_c, 0, 64, 54
1, 115969, Control_c, 0, 64, 21
1, 115984, Control_c, 0, 64, 0
1, 116021, Note_on_c, 0, 67, 100
1, 116043, Note_on_c, 0, 81, 56
1, 116049, Note_on_c, 0, 77, 72
1, 116089, Note_off_c, 0, 81, 63
1, 116093, Note_off_c, 0, 67, 62
1, 116106, Note_off_c, 0, 77, 61
1, 116114, Note_on_c, 0, 84, 51
1, 116128, Note_on_c, 0, 72, 68
1, 116140, Note_off_c, 0, 84, 65
1, 116152, Note_off_c, 0, 72, 68
1, 116194, Note_on_c, 0, 69, 91
1, 116249, Note_off_c, 0, 69, 64
1, 116420, Note_on_c, 0, 85, 62
1, 116424, Note_on_c, 0, 70, 67
1, 116430, Note_on_c, 0, 79, 57
1, 116436, Control_c, 0, 64, 61
1, 116451, Note_off_c, 0, 79, 62
1, 116451, Control_c, 0, 64, 80
1, 116454, Note_off_c, 0, 70, 66
1, 116457, Note_on_c, 0, 88, 58
1, 116466, Control_c, 0, 64, 93
1, 116481, Control_c, 0, 64, 104
1, 116496, Control_c, 0, 64, 105
1, 116506, Note_off_c, 0, 85, 61
1, 116511, Control_c, 0, 64, 105
1, 116514, Note_off_c, 0, 88, 62
1, 116538, Note_on_c, 0, 79, 40
1, 116541, Control_c, 0, 64, 100
1, 116543, Note_on_c, 0, 76, 63
1, 116556, Control_c, 0, 64, 87
1, 116568, Note_off_c, 0, 76, 59
1, 116568, Note_off_c, 0, 79, 54
1, 116571, Control_c, 0, 64, 69
1, 116585, Control_c, 0, 64, 0
1, 116586, Note_on_c, 0, 67, 64
1, 116619, Note_off_c, 0, 67, 60
1, 116737, Note_on_c, 0, 79, 66
1, 116740, Note_on_c, 0, 64, 70
1, 116743, Note_on_c, 0, 82, 73
1, 116775, Note_off_c, 0, 79, 57
1, 116788, Note_off_c, 0, 64, 61
1, 116818, Note_off_c, 0, 82, 63
1, 116850, Note_on_c, 0, 70, 70
1, 116875, Note_off_c, 0, 70, 68
1, 116899, Note_on_c, 0, 60, 69
1, 116924, Note_off_c, 0, 60, 68
1, 117063, Note_on_c, 0, 70, 52
1, 117066, Note_on_c, 0, 76, 64
1, 117068, Note_on_c, 0, 61, 57
1, 117089, Note_off_c, 0, 70, 60
1, 117104, Note_off_c, 0, 61, 60
1, 117113, Note_off_c, 0, 76, 59
1, 117126, Control_c, 0, 67, 8
1, 117141, Control_c, 0, 67, 11
1, 117143, Note_on_c, 0, 77, 58
1, 117156, Control_c, 0, 67, 13
1, 117170, Note_on_c, 0, 70, 52
1, 117171, Control_c, 0, 67, 16
1, 117177, Note_off_c, 0, 77, 65
1, 117186, Control_c, 0, 67, 20
1, 117200, Control_c, 0, 67, 27
1, 117215, Control_c, 0, 67, 33
1, 117225, Note_off_c, 0, 70, 61
1, 117230, Control_c, 0, 67, 38
1, 117244, Control_c, 0, 67, 41
1, 117249, Note_on_c, 0, 58, 43
1, 117250, Note_on_c, 0, 67, 51
1, 117259, Control_c, 0, 64, 60
1, 117259, Control_c, 0, 67, 43
1, 117274, Control_c, 0, 64, 71
1, 117274, Control_c, 0, 67, 44
1, 117279, Note_off_c, 0, 58, 54
1, 117279, Note_off_c, 0, 67, 57
1, 117290, Control_c, 0, 64, 80
1, 117290, Control_c, 0, 67, 43
1, 117305, Control_c, 0, 64, 87
1, 117305, Control_c, 0, 67, 39
1, 117320, Control_c, 0, 64, 92
1, 117320, Control_c, 0, 67, 33
1, 117335, Control_c, 0, 64, 95
1, 117335, Control_c, 0, 67, 28
1, 117349, Control_c, 0, 64, 99
1, 117349, Control_c, 0, 67, 19
1, 117364, Control_c, 0, 64, 105
1, 117364, Control_c, 0, 67, 10
1, 117379, Control_c, 0, 64, 110
1, 117379, Control_c, 0, 67, 0
1, 117394, Control_c, 0, 64, 111
1, 117409, Control_c, 0, 64, 108
1, 117423, Control_c, 0, 64, 90
1, 117438, Control_c, 0, 64, 70
1, 117444, Note_on_c, 0, 75, 55
1, 117453, Control_c, 0, 64, 0
1, 117455, Note_on_c, 0, 44, 44
1, 117456, Note_on_c, 0, 70, 22
1, 117471, Note_off_c, 0, 70, 35
1, 117530, Note_on_c, 0, 70, 39
1, 117530, Note_off_c, 0, 75, 56
1, 117558, Note_off_c, 0, 70, 59
1, 117594, Control_c, 0, 67, 9
1, 117595, Note_on_c, 0, 68, 72
1, 117609, Control_c, 0, 67, 16
1, 117623, Control_c, 0, 67, 22
1, 117626, Note_on_c, 0, 53, 59
1, 117632, Note_off_c, 0, 68, 59
1, 117638, Control_c, 0, 64, 21
1, 117638, Control_c, 0, 67, 26
1, 117653, Control_c, 0, 64, 65
1, 117653, Control_c, 0, 67, 28
1, 117667, Control_c, 0, 64, 74
1, 117667, Control_c, 0, 67, 29
1, 117670, Note_off_c, 0, 44, 55
1, 117682, Control_c, 0, 64, 82
1, 117682, Control_c, 0, 67, 29
1, 117697, Control_c, 0, 64, 88
1, 117697, Control_c, 0, 67, 26
1, 117702, Note_off_c, 0, 53, 66
1, 117712, Control_c, 0, 64, 90
1, 117712, Control_c, 0, 67, 23
1, 117727, Control_c, 0, 64, 93
1, 117727, Control_c, 0, 67, 21
1, 117742, Control_c, 0, 64, 95
1, 117742, Control_c, 0, 67, 19
1, 117757, Control_c, 0, 64, 95
1, 117757, Control_c, 0, 67, 17
1, 117772, Control_c, 0, 64, 94
1, 117772, Control_c, 0, 67, 15
1, 117787, Control_c, 0, 64, 80
1, 117787, Control_c, 0, 67, 10
1, 117802, Control_c, 0, 64, 64
1, 117802, Control_c, 0, 67, 0
1, 117802, Note_on_c, 0, 61, 68
1, 117803, Note_on_c, 0, 70, 56
1, 117817, Control_c, 0, 64, 0
1, 117824, Note_on_c, 0, 68, 49
1, 117841, Note_off_c, 0, 70, 61
1, 117860, Note_on_c, 0, 73, 6
1, 117861, Control_c, 0, 64, 50
1, 117875, Control_c, 0, 64, 70
1, 117890, Control_c, 0, 64, 82
1, 117905, Control_c, 0, 64, 92
1, 117909, Note_off_c, 0, 61, 57
1, 117916, Note_off_c, 0, 68, 57
1, 117918, Note_off_c, 0, 73, 37
1, 117920, Control_c, 0, 64, 97
1, 117935, Control_c, 0, 64, 101
1, 117939, Note_on_c, 0, 66, 45
1, 117949, Control_c, 0, 64, 109
1, 117964, Control_c, 0, 64, 126
1, 117979, Control_c, 0, 64, 127
1, 117987, Note_off_c, 0, 66, 45
1, 118020, Note_on_c, 0, 63, 73
1, 118023, Control_c, 0, 64, 103
1, 118038, Control_c, 0, 64, 80
1, 118053, Control_c, 0, 64, 61
1, 118067, Control_c, 0, 64, 0
1, 118098, Control_c, 0, 64, 52
1, 118113, Control_c, 0, 64, 70
1, 118128, Control_c, 0, 64, 82
1, 118143, Control_c, 0, 64, 94
1, 118158, Control_c, 0, 64, 100
1, 118171, Note_off_c, 0, 63, 51
1, 118172, Control_c, 0, 64, 103
1, 118187, Control_c, 0, 64, 106
1, 118202, Control_c, 0, 64, 113
1, 118217, Control_c, 0, 64, 122
1, 118232, Control_c, 0, 64, 126
1, 118246, Control_c, 0, 64, 124
1, 118258, Note_on_c, 0, 58, 60
1, 118261, Control_c, 0, 64, 103
1, 118276, Note_on_c, 0, 68, 55
1, 118276, Control_c, 0, 64, 83
1, 118287, Note_on_c, 0, 66, 41
1, 118290, Control_c, 0, 64, 64
1, 118305, Control_c, 0, 64, 0
1, 118323, Note_off_c, 0, 68, 61
1, 118338, Note_off_c, 0, 66, 47
1, 118358, Control_c, 0, 64, 60
1, 118372, Control_c, 0, 64, 69
1, 118379, Note_on_c, 0, 70, 29
1, 118387, Control_c, 0, 64, 78
1, 118402, Control_c, 0, 64, 88
1, 118413, Note_off_c, 0, 70, 49
1, 118417, Control_c, 0, 64, 93
1, 118426, Note_on_c, 0, 68, 48
1, 118432, Control_c, 0, 64, 94
1, 118446, Control_c, 0, 64, 95
1, 118461, Control_c, 0, 64, 98
1, 118476, Control_c, 0, 64, 99
1, 118490, Control_c, 0, 64, 100
1, 118548, Note_off_c, 0, 58, 34
1, 118550, Control_c, 0, 64, 99
1, 118565, Control_c, 0, 64, 92
1, 118570, Note_on_c, 0, 60, 53
1, 118580, Control_c, 0, 64, 78
1, 118582, Note_off_c, 0, 68, 36
1, 118595, Control_c, 0, 64, 64
1, 118608, Note_on_c, 0, 65, 40
1, 118609, Control_c, 0, 64, 0
1, 118654, Control_c, 0, 64, 63
1, 118669, Control_c, 0, 64, 73
1, 118681, Note_off_c, 0, 60, 64
1, 118683, Control_c, 0, 64, 85
1, 118688, Note_off_c, 0, 65, 59
1, 118698, Control_c, 0, 64, 95
1, 118713, Control_c, 0, 64, 100
1, 118728, Control_c, 0, 64, 104
1, 118743, Control_c, 0, 64, 114
1, 118757, Control_c, 0, 64, 127
1, 118931, Note_on_c, 0, 44, 43
1, 118964, Note_on_c, 0, 63, 44
1, 118974, Note_on_c, 0, 54, 32
1, 119041, Note_on_c, 0, 72, 30
1, 119245, Note_on_c, 0, 56, 62
1, 119256, Note_off_c, 0, 63, 35
1, 119271, Note_on_c, 0, 78, 47
1, 119284, Control_c, 0, 64, 102
1, 119299, Control_c, 0, 64, 83
1, 119313, Control_c, 0, 64, 65
1, 119328, Control_c, 0, 64, 0
1, 119329, Note_off_c, 0, 78, 0
1, 119329, Note_on_c, 0, 78, 12
1, 119373, Control_c, 0, 64, 45
1, 119387, Control_c, 0, 64, 65
1, 119402, Control_c, 0, 64, 75
1, 119414, Note_off_c, 0, 44, 43
1, 119417, Control_c, 0, 64, 82
1, 119432, Control_c, 0, 64, 87
1, 119443, Note_off_c, 0, 54, 48
1, 119447, Control_c, 0, 64, 93
1, 119462, Control_c, 0, 64, 100
1, 119477, Control_c, 0, 64, 107
1, 119492, Control_c, 0, 64, 116
1, 119507, Control_c, 0, 64, 127
1, 119650, Note_on_c, 0, 75, 46
1, 119674, Note_off_c, 0, 72, 42
1, 119919, Note_off_c, 0, 78, 42
1, 119947, Note_on_c, 0, 58, 57
1, 119991, Note_off_c, 0, 56, 59
1, 120015, Note_on_c, 0, 72, 31
1, 120047, Control_c, 0, 64, 97
1, 120061, Control_c, 0, 64, 76
1, 120076, Control_c, 0, 64, 65
1, 120091, Control_c, 0, 64, 56
1, 120106, Control_c, 0, 64, 61
1, 120121, Control_c, 0, 64, 68
1, 120136, Control_c, 0, 64, 75
1, 120151, Control_c, 0, 64, 80
1, 120165, Control_c, 0, 64, 83
1, 120180, Control_c, 0, 64, 86
1, 120195, Control_c, 0, 64, 88
1, 120210, Control_c, 0, 64, 90
1, 120225, Control_c, 0, 64, 93
1, 120240, Control_c, 0, 64, 96
1, 120241, Note_off_c, 0, 72, 41
1, 120246, Note_on_c, 0, 68, 41
1, 120255, Control_c, 0, 64, 100
1, 120269, Control_c, 0, 64, 103
1, 120282, Note_off_c, 0, 75, 29
1, 120284, Control_c, 0, 64, 109
1, 120299, Control_c, 0, 64, 114
1, 120314, Control_c, 0, 64, 126
1, 120329, Control_c, 0, 64, 127
1, 120484, Note_on_c, 0, 60, 47
1, 120536, Note_off_c, 0, 58, 39
1, 120540, Note_on_c, 0, 66, 26
1, 120544, Note_on_c, 0, 70, 41
1, 120547, Note_off_c, 0, 68, 37
1, 120559, Control_c, 0, 64, 95
1, 120574, Control_c, 0, 64, 76
1, 120589, Control_c, 0, 64, 64
1, 120604, Control_c, 0, 64, 60
1, 120619, Control_c, 0, 64, 64
1, 120633, Control_c, 0, 64, 72
1, 120644, Note_off_c, 0, 60, 60
1, 120645, Note_off_c, 0, 66, 36
1, 120648, Control_c, 0, 64, 79
1, 120654, Note_on_c, 0, 61, 49
1, 120663, Control_c, 0, 64, 84
1, 120678, Control_c, 0, 64, 86
1, 120693, Control_c, 0, 64, 88
1, 120708, Control_c, 0, 64, 90
1, 120711, Note_off_c, 0, 61, 54
1, 120723, Control_c, 0, 64, 90
1, 120727, Note_off_c, 0, 70, 60
1, 120753, Note_on_c, 0, 60, 54
1, 120782, Control_c, 0, 64, 91
1, 120797, Control_c, 0, 64, 91
1, 120809, Note_off_c, 0, 60, 57
1, 120811, Control_c, 0, 64, 92
1, 120825, Note_on_c, 0, 58, 70
1, 120826, Control_c, 0, 64, 93
1, 120870, Note_on_c, 0, 66, 34
1, 120871, Control_c, 0, 64, 93
1, 120902, Note_off_c, 0, 58, 58
1, 120911, Note_on_c, 0, 60, 75
1, 120915, Control_c, 0, 64, 95
1, 120930, Control_c, 0, 64, 95
1, 120945, Control_c, 0, 64, 96
1, 121048, Control_c, 0, 64, 91
1, 121063, Control_c, 0, 64, 78
1, 121065, Note_off_c, 0, 60, 62
1, 121078, Note_on_c, 0, 61, 71
1, 121078, Control_c, 0, 64, 63
1, 121093, Control_c, 0, 64, 0
1, 121105, Note_on_c, 0, 77, 59
1, 121143, Note_on_c, 0, 70, 23
1, 121152, Control_c, 0, 64, 65
1, 121167, Control_c, 0, 64, 75
1, 121178, Note_off_c, 0, 61, 62
1, 121182, Control_c, 0, 64, 87
1, 121197, Control_c, 0, 64, 103
1, 121211, Control_c, 0, 64, 127
1, 121352, Note_on_c, 0, 44, 50
1, 121371, Note_on_c, 0, 75, 54
1, 121384, Note_off_c, 0, 77, 38
1, 121396, Note_off_c, 0, 44, 61
1, 121409, Note_off_c, 0, 75, 60
1, 121410, Note_off_c, 0, 70, 42
1, 121454, Note_off_c, 0, 66, 43
1, 121574, Note_on_c, 0, 63, 79
1, 121589, Control_c, 0, 64, 89
1, 121599, Note_on_c, 0, 73, 59
1, 121604, Control_c, 0, 64, 71
1, 121619, Control_c, 0, 64, 63
1, 121633, Control_c, 0, 64, 65
1, 121634, Note_off_c, 0, 73, 64
1, 121648, Control_c, 0, 64, 72
1, 121663, Control_c, 0, 64, 82
1, 121678, Control_c, 0, 64, 94
1, 121679, Poly_aftertouch_c, 0, 66, 0
1, 121693, Control_c, 0, 64, 102
1, 121707, Control_c, 0, 64, 108
1, 121722, Control_c, 0, 64, 110
1, 121737, Control_c, 0, 64, 113
1, 121752, Control_c, 0, 64, 115
1, 121767, Control_c, 0, 64, 119
1, 121781, Note_on_c, 0, 56, 56
1, 121781, Control_c, 0, 64, 127
1, 121805, Note_on_c, 0, 80, 50
1, 121850, Note_on_c, 0, 72, 9
1, 121904, Note_off_c, 0, 72, 48
1, 121979, Note_off_c, 0, 80, 56
1, 121985, Note_off_c, 0, 56, 54
1, 121988, Note_on_c, 0, 65, 70
1, 121989, Control_c, 0, 64, 118
1, 122004, Control_c, 0, 64, 84
1, 122013, Note_off_c, 0, 63, 39
1, 122019, Control_c, 0, 64, 65
1, 122020, Note_on_c, 0, 82, 51
1, 122033, Note_on_c, 0, 78, 32
1, 122033, Control_c, 0, 64, 0
1, 122070, Control_c, 0, 64, 49
1, 122086, Control_c, 0, 64, 68
1, 122094, Note_off_c, 0, 78, 45
1, 122101, Control_c, 0, 64, 78
1, 122116, Control_c, 0, 64, 87
1, 122124, Note_off_c, 0, 82, 37
1, 122131, Control_c, 0, 64, 95
1, 122145, Control_c, 0, 64, 98
1, 122158, Note_on_c, 0, 73, 52
1, 122160, Control_c, 0, 64, 100
1, 122175, Control_c, 0, 64, 102
1, 122190, Control_c, 0, 64, 105
1, 122192, Note_off_c, 0, 73, 52
1, 122204, Control_c, 0, 64, 108
1, 122216, Note_off_c, 0, 65, 51
1, 122217, Note_on_c, 0, 75, 58
1, 122219, Control_c, 0, 64, 112
1, 122226, Note_on_c, 0, 56, 46
1, 122234, Control_c, 0, 64, 115
1, 122249, Control_c, 0, 64, 118
1, 122252, Note_off_c, 0, 75, 63
1, 122263, Control_c, 0, 64, 119
1, 122264, Note_on_c, 0, 73, 66
1, 122278, Control_c, 0, 64, 120
1, 122308, Note_off_c, 0, 73, 61
1, 122323, Control_c, 0, 64, 121
1, 122426, Control_c, 0, 64, 119
1, 122441, Control_c, 0, 64, 100
1, 122447, Note_on_c, 0, 66, 66
1, 122455, Control_c, 0, 64, 80
1, 122470, Control_c, 0, 64, 62
1, 122472, Note_off_c, 0, 56, 48
1, 122479, Note_on_c, 0, 61, 36
1, 122480, Note_on_c, 0, 80, 48
1, 122485, Control_c, 0, 64, 0
1, 122495, Note_on_c, 0, 70, 37
1, 122529, Control_c, 0, 64, 60
1, 122544, Control_c, 0, 64, 71
1, 122556, Poly_aftertouch_c, 0, 75, 127
1, 122559, Control_c, 0, 64, 79
1, 122574, Control_c, 0, 64, 86
1, 122589, Control_c, 0, 64, 89
1, 122604, Control_c, 0, 64, 91
1, 122619, Control_c, 0, 64, 93
1, 122634, Control_c, 0, 64, 96
1, 122649, Control_c, 0, 64, 98
1, 122663, Control_c, 0, 64, 100
1, 122678, Control_c, 0, 64, 102
1, 122682, Note_on_c, 0, 82, 59
1, 122687, Note_off_c, 0, 70, 34
1, 122693, Control_c, 0, 64, 103
1, 122698, Note_on_c, 0, 56, 46
1, 122702, Note_off_c, 0, 80, 37
1, 122708, Control_c, 0, 64, 105
1, 122720, Note_off_c, 0, 66, 38
1, 122723, Control_c, 0, 64, 106
1, 122729, Note_off_c, 0, 82, 58
1, 122737, Control_c, 0, 64, 108
1, 122748, Poly_aftertouch_c, 0, 75, 0
1, 122752, Control_c, 0, 64, 109
1, 122767, Control_c, 0, 64, 110
1, 122781, Control_c, 0, 64, 113
1, 122796, Note_off_c, 0, 61, 34
1, 122796, Control_c, 0, 64, 114
1, 122818, Control_c, 0, 64, 116
1, 122833, Control_c, 0, 64, 117
1, 122878, Control_c, 0, 64, 114
1, 122893, Control_c, 0, 64, 98
1, 122904, Note_on_c, 0, 68, 60
1, 122908, Control_c, 0, 64, 81
1, 122923, Note_on_c, 0, 85, 54
1, 122923, Control_c, 0, 64, 65
1, 122928, Note_off_c, 0, 56, 42
1, 122938, Control_c, 0, 64, 32
1, 122946, Note_on_c, 0, 63, 31
1, 122953, Control_c, 0, 64, 21
1, 122959, Note_on_c, 0, 78, 26
1, 122963, Note_off_c, 0, 85, 60
1, 122968, Control_c, 0, 64, 59
1, 122982, Control_c, 0, 64, 69
1, 122997, Control_c, 0, 64, 76
1, 123012, Control_c, 0, 64, 83
1, 123027, Control_c, 0, 64, 87
1, 123040, Note_off_c, 0, 78, 34
1, 123042, Control_c, 0, 64, 90
1, 123057, Control_c, 0, 64, 93
1, 123072, Control_c, 0, 64, 95
1, 123086, Control_c, 0, 64, 98
1, 123101, Control_c, 0, 64, 100
1, 123116, Control_c, 0, 64, 104
1, 123131, Control_c, 0, 64, 107
1, 123146, Control_c, 0, 64, 109
1, 123149, Note_off_c, 0, 63, 18
1, 123160, Control_c, 0, 64, 109
1, 123168, Note_off_c, 0, 68, 33
1, 123175, Control_c, 0, 64, 110
1, 123182, Note_on_c, 0, 56, 41
1, 123185, Note_on_c, 0, 75, 46
1, 123191, Note_on_c, 0, 70, 17
1, 123204, Control_c, 0, 64, 110
1, 123219, Control_c, 0, 64, 111
1, 123223, Note_off_c, 0, 75, 57
1, 123234, Control_c, 0, 64, 112
1, 123236, Note_off_c, 0, 70, 45
1, 123249, Control_c, 0, 64, 113
1, 123264, Control_c, 0, 64, 114
1, 123278, Control_c, 0, 64, 115
1, 123293, Control_c, 0, 64, 115
1, 123397, Control_c, 0, 64, 115
1, 123427, Control_c, 0, 64, 110
1, 123434, Note_on_c, 0, 70, 57
1, 123441, Control_c, 0, 64, 96
1, 123456, Control_c, 0, 64, 80
1, 123471, Note_on_c, 0, 80, 35
1, 123471, Control_c, 0, 64, 66
1, 123473, Note_on_c, 0, 78, 23
1, 123486, Control_c, 0, 64, 28
1, 123487, Note_off_c, 0, 56, 42
1, 123501, Control_c, 0, 64, 42
1, 123516, Control_c, 0, 64, 64
1, 123531, Control_c, 0, 64, 72
1, 123546, Control_c, 0, 64, 78
1, 123567, Control_c, 0, 64, 83
1, 123567, Control_c, 0, 67, 9
1, 123582, Control_c, 0, 64, 86
1, 123582, Control_c, 0, 67, 12
1, 123595, Note_off_c, 0, 80, 36
1, 123597, Control_c, 0, 64, 91
1, 123597, Control_c, 0, 67, 16
1, 123599, Note_off_c, 0, 70, 48
1, 123601, Note_off_c, 0, 78, 40
1, 123611, Control_c, 0, 64, 96
1, 123611, Control_c, 0, 67, 19
1, 123626, Control_c, 0, 64, 101
1, 123626, Control_c, 0, 67, 22
1, 123641, Control_c, 0, 64, 106
1, 123641, Control_c, 0, 67, 26
1, 123656, Control_c, 0, 64, 110
1, 123656, Control_c, 0, 67, 30
1, 123672, Control_c, 0, 64, 117
1, 123672, Control_c, 0, 67, 35
1, 123688, Control_c, 0, 64, 127
1, 123688, Control_c, 0, 67, 40
1, 123703, Control_c, 0, 67, 48
1, 123717, Control_c, 0, 67, 56
1, 123732, Control_c, 0, 67, 64
1, 123747, Control_c, 0, 67, 74
1, 123762, Control_c, 0, 67, 85
1, 123776, Note_on_c, 0, 56, 33
1, 123777, Control_c, 0, 67, 96
1, 123791, Control_c, 0, 67, 109
1, 123806, Control_c, 0, 67, 121
1, 123814, Note_off_c, 0, 56, 58
1, 123821, Note_on_c, 0, 87, 48
1, 123821, Control_c, 0, 67, 127
1, 123864, Note_on_c, 0, 78, 12
1, 123884, Note_off_c, 0, 87, 42
1, 123892, Poly_aftertouch_c, 0, 82, 127
1, 123929, Note_off_c, 0, 78, 46
1, 123949, Poly_aftertouch_c, 0, 82, 0
1, 124265, Control_c, 0, 64, 99
1, 124274, Note_on_c, 0, 37, 45
1, 124280, Control_c, 0, 64, 77
1, 124302, Control_c, 0, 64, 43
1, 124317, Control_c, 0, 64, 0
1, 124336, Note_on_c, 0, 72, 54
1, 124347, Control_c, 0, 64, 63
1, 124361, Control_c, 0, 64, 74
1, 124369, Note_off_c, 0, 72, 59
1, 124376, Control_c, 0, 64, 89
1, 124391, Control_c, 0, 64, 108
1, 124406, Control_c, 0, 64, 127
1, 124571, Note_on_c, 0, 89, 59
1, 124637, Note_off_c, 0, 89, 57
1, 124677, Note_off_c, 0, 37, 44
1, 124899, Note_on_c, 0, 44, 32
1, 124947, Note_off_c, 0, 44, 48
1, 125007, Note_on_c, 0, 80, 35
1, 125086, Note_off_c, 0, 80, 40
1, 125224, Note_on_c, 0, 53, 34
1, 125276, Note_off_c, 0, 53, 64
1, 125352, Note_on_c, 0, 73, 62
1, 125385, Note_off_c, 0, 73, 65
1, 125641, Note_on_c, 0, 56, 44
1, 125755, Poly_aftertouch_c, 0, 94, 127
1, 125793, Poly_aftertouch_c, 0, 94, 0
1, 125922, Note_on_c, 0, 61, 31
1, 125965, Note_on_c, 0, 77, 35
1, 125985, Note_off_c, 0, 61, 42
1, 125992, Note_off_c, 0, 56, 31
1, 125998, Note_off_c, 0, 77, 53
1, 126189, Note_on_c, 0, 65, 32
1, 126217, Note_on_c, 0, 92, 36
1, 126251, Note_off_c, 0, 65, 58
1, 126270, Note_off_c, 0, 92, 46
1, 126573, Note_on_c, 0, 70, 57
1, 126888, Note_on_c, 0, 89, 47
1, 126913, Note_on_c, 0, 80, 31
1, 126926, Note_on_c, 0, 82, 50
1, 126939, Note_off_c, 0, 89, 56
1, 126979, Note_off_c, 0, 80, 51
1, 127078, Note_off_c, 0, 82, 37
1, 127144, Note_on_c, 0, 68, 65
1, 127174, Note_off_c, 0, 70, 55
1, 127239, Note_off_c, 0, 68, 61
1, 127386, Note_on_c, 0, 77, 44
1, 127399, Note_on_c, 0, 73, 50
1, 127413, Note_off_c, 0, 77, 58
1, 127424, Note_off_c, 0, 73, 62
1, 127534, Control_c, 0, 67, 123
1, 127549, Control_c, 0, 67, 115
1, 127564, Control_c, 0, 67, 107
1, 127579, Control_c, 0, 67, 98
1, 127594, Control_c, 0, 67, 88
1, 127609, Control_c, 0, 67, 72
1, 127609, Note_on_c, 0, 53, 40
1, 127624, Control_c, 0, 67, 55
1, 127639, Control_c, 0, 67, 37
1, 127653, Control_c, 0, 67, 22
1, 127661, Note_on_c, 0, 61, 25
1, 127668, Control_c, 0, 67, 8
1, 127683, Control_c, 0, 67, 0
1, 127692, Note_on_c, 0, 70, 63
1, 127707, Note_off_c, 0, 61, 43
1, 127709, Note_off_c, 0, 53, 61
1, 127719, Note_on_c, 0, 65, 39
1, 127865, Note_on_c, 0, 72, 65
1, 127866, Note_off_c, 0, 70, 53
1, 127932, Note_on_c, 0, 44, 50
1, 127936, Note_off_c, 0, 65, 52
1, 127984, Note_on_c, 0, 70, 69
1, 127984, Note_off_c, 0, 72, 53
1, 128035, Note_off_c, 0, 44, 50
1, 128073, Note_off_c, 0, 70, 63
1, 128085, Note_on_c, 0, 68, 74
1, 128139, Note_off_c, 0, 68, 53
1, 128168, Note_on_c, 0, 70, 61
1, 128187, Note_off_c, 0, 70, 65
1, 128269, Control_c, 0, 64, 99
1, 128274, Note_on_c, 0, 51, 52
1, 128283, Control_c, 0, 64, 74
1, 128288, Note_on_c, 0, 70, 51
1, 128298, Control_c, 0, 64, 0
1, 128318, Note_on_c, 0, 60, 51
1, 128330, Note_on_c, 0, 66, 37
1, 128343, Control_c, 0, 64, 53
1, 128357, Control_c, 0, 64, 69
1, 128366, Note_off_c, 0, 60, 62
1, 128372, Control_c, 0, 64, 82
1, 128387, Control_c, 0, 64, 99
1, 128397, Note_off_c, 0, 66, 61
1, 128402, Control_c, 0, 64, 127
1, 128402, Note_off_c, 0, 70, 63
1, 128599, Note_off_c, 0, 51, 32
1, 128611, Note_on_c, 0, 44, 45
1, 128612, Note_on_c, 0, 87, 58
1, 128633, Note_off_c, 0, 87, 66
1, 128846, Note_on_c, 0, 54, 55
1, 128846, Note_on_c, 0, 72, 64
1, 128877, Note_on_c, 0, 68, 49
1, 128899, Control_c, 0, 64, 110
1, 128914, Control_c, 0, 64, 81
1, 128929, Control_c, 0, 64, 66
1, 128943, Control_c, 0, 64, 53
1, 128958, Control_c, 0, 64, 59
1, 128973, Control_c, 0, 64, 68
1, 128986, Note_off_c, 0, 44, 42
1, 128988, Control_c, 0, 64, 78
1, 129003, Control_c, 0, 64, 90
1, 129017, Control_c, 0, 64, 101
1, 129032, Control_c, 0, 64, 108
1, 129047, Control_c, 0, 64, 118
1, 129055, Note_on_c, 0, 56, 74
1, 129062, Control_c, 0, 64, 127
1, 129067, Note_off_c, 0, 54, 62
1, 129108, Note_off_c, 0, 56, 62
1, 129230, Note_on_c, 0, 63, 80
1, 129280, Note_off_c, 0, 68, 55
1, 129287, Note_off_c, 0, 72, 59
1, 129392, Note_off_c, 0, 63, 52
1, 129413, Note_on_c, 0, 65, 83
1, 129532, Note_off_c, 0, 65, 57
1, 129648, Control_c, 0, 64, 97
1, 129659, Note_on_c, 0, 66, 62
1, 129663, Control_c, 0, 64, 70
1, 129678, Control_c, 0, 64, 0
1, 129700, Note_on_c, 0, 68, 64
1, 129737, Control_c, 0, 64, 58
1, 129752, Control_c, 0, 64, 73
1, 129756, Note_off_c, 0, 68, 62
1, 129766, Control_c, 0, 64, 79
1, 129781, Control_c, 0, 64, 83
1, 129833, Note_off_c, 0, 66, 37
1, 129855, Control_c, 0, 64, 79
1, 129870, Control_c, 0, 64, 71
1, 129885, Control_c, 0, 64, 64
1, 129900, Control_c, 0, 64, 62
1, 129914, Control_c, 0, 64, 66
1, 129929, Control_c, 0, 64, 75
1, 129931, Note_on_c, 0, 72, 60
1, 129940, Note_on_c, 0, 63, 44
1, 129944, Control_c, 0, 64, 84
1, 129952, Note_off_c, 0, 72, 65
1, 129959, Control_c, 0, 64, 94
1, 129970, Note_off_c, 0, 63, 61
1, 129973, Control_c, 0, 64, 99
1, 129988, Control_c, 0, 64, 104
1, 130003, Control_c, 0, 64, 106
1, 130018, Control_c, 0, 64, 107
1, 130033, Control_c, 0, 64, 107
1, 130062, Control_c, 0, 64, 107
1, 130108, Control_c, 0, 64, 102
1, 130123, Control_c, 0, 64, 90
1, 130138, Control_c, 0, 64, 75
1, 130152, Control_c, 0, 64, 55
1, 130159, Note_on_c, 0, 60, 36
1, 130167, Control_c, 0, 64, 0
1, 130169, Note_on_c, 0, 87, 47
1, 130182, Control_c, 0, 64, 42
1, 130194, Note_on_c, 0, 78, 40
1, 130196, Note_off_c, 0, 87, 57
1, 130196, Control_c, 0, 64, 67
1, 130211, Control_c, 0, 64, 79
1, 130223, Note_off_c, 0, 78, 57
1, 130226, Control_c, 0, 64, 91
1, 130241, Control_c, 0, 64, 103
1, 130256, Control_c, 0, 64, 107
1, 130268, Poly_aftertouch_c, 0, 82, 0
1, 130271, Control_c, 0, 64, 114
1, 130286, Control_c, 0, 64, 127
1, 130389, Note_on_c, 0, 56, 47
1, 130390, Note_off_c, 0, 60, 40
1, 130448, Note_on_c, 0, 70, 64
1, 130483, Note_off_c, 0, 56, 50
1, 130488, Note_on_c, 0, 66, 35
1, 130628, Note_off_c, 0, 66, 38
1, 130693, Note_on_c, 0, 54, 33
1, 130722, Note_on_c, 0, 59, 42
1, 130727, Note_on_c, 0, 58, 28
1, 130782, Control_c, 0, 64, 103
1, 130790, Note_on_c, 0, 68, 71
1, 130796, Control_c, 0, 64, 79
1, 130807, Note_off_c, 0, 70, 56
1, 130811, Control_c, 0, 64, 61
1, 130823, Note_on_c, 0, 63, 48
1, 130826, Control_c, 0, 64, 44
1, 130841, Control_c, 0, 64, 60
1, 130854, Note_off_c, 0, 59, 61
1, 130856, Control_c, 0, 64, 70
1, 130864, Note_off_c, 0, 58, 55
1, 130872, Control_c, 0, 64, 80
1, 130885, Note_off_c, 0, 54, 56
1, 130887, Control_c, 0, 64, 90
1, 130901, Control_c, 0, 64, 99
1, 130916, Control_c, 0, 64, 105
1, 130931, Control_c, 0, 64, 110
1, 130946, Control_c, 0, 64, 119
1, 130960, Control_c, 0, 64, 127
1, 131024, Note_on_c, 0, 70, 72
1, 131049, Note_off_c, 0, 68, 58
1, 131072, Note_off_c, 0, 63, 36
1, 131142, Note_off_c, 0, 70, 48
1, 131153, Note_on_c, 0, 68, 73
1, 131165, Note_on_c, 0, 54, 50
1, 131174, Note_on_c, 0, 44, 49
1, 131198, Note_off_c, 0, 54, 65
1, 131217, Note_off_c, 0, 44, 62
1, 131266, Note_off_c, 0, 68, 59
1, 131267, Note_on_c, 0, 66, 75
1, 131299, Note_on_c, 0, 60, 47
1, 131328, Note_off_c, 0, 60, 56
1, 131368, Control_c, 0, 64, 106
1, 131383, Control_c, 0, 64, 69
1, 131392, Note_on_c, 0, 68, 73
1, 131398, Control_c, 0, 64, 0
1, 131401, Note_off_c, 0, 66, 59
1, 131442, Control_c, 0, 64, 58
1, 131444, Note_on_c, 0, 37, 72
1, 131457, Control_c, 0, 64, 75
1, 131469, Note_off_c, 0, 68, 62
1, 131472, Control_c, 0, 64, 98
1, 131487, Control_c, 0, 64, 127
1, 131527, Note_off_c, 0, 37, 58
1, 131690, Note_on_c, 0, 80, 80
1, 131693, Note_on_c, 0, 53, 60
1, 131708, Note_on_c, 0, 72, 58
1, 131709, Note_on_c, 0, 68, 56
1, 131716, Note_on_c, 0, 77, 59
1, 131845, Note_off_c, 0, 53, 63
1, 131933, Note_off_c, 0, 77, 58
1, 131948, Note_off_c, 0, 72, 60
1, 131952, Note_off_c, 0, 68, 60
1, 131961, Note_on_c, 0, 44, 65
1, 132006, Note_off_c, 0, 44, 63
1, 132054, Note_off_c, 0, 80, 61
1, 132161, Note_on_c, 0, 53, 49
1, 132173, Note_on_c, 0, 61, 57
1, 132235, Note_on_c, 0, 82, 90
1, 132265, Note_on_c, 0, 70, 54
1, 132279, Note_on_c, 0, 77, 45
1, 132283, Note_on_c, 0, 73, 44
1, 132367, Note_off_c, 0, 61, 37
1, 132452, Note_on_c, 0, 56, 65
1, 132483, Note_off_c, 0, 53, 46
1, 132505, Note_off_c, 0, 77, 61
1, 132522, Note_off_c, 0, 82, 61
1, 132546, Note_off_c, 0, 73, 61
1, 132561, Note_off_c, 0, 56, 61
1, 132617, Note_on_c, 0, 61, 69
1, 132713, Note_off_c, 0, 61, 37
1, 132739, Note_off_c, 0, 70, 37
1, 132775, Note_on_c, 0, 63, 76
1, 132957, Note_on_c, 0, 70, 79
1, 132962, Note_on_c, 0, 66, 70
1, 132964, Note_on_c, 0, 73, 83
1, 132968, Note_on_c, 0, 61, 62
1, 132984, Control_c, 0, 64, 91
1, 132992, Note_off_c, 0, 63, 52
1, 132998, Control_c, 0, 64, 80
1, 133013, Control_c, 0, 64, 83
1, 133028, Control_c, 0, 64, 94
1, 133036, Note_off_c, 0, 70, 64
1, 133043, Control_c, 0, 64, 116
1, 133058, Control_c, 0, 64, 127
1, 133097, Note_off_c, 0, 66, 38
1, 133142, Note_on_c, 0, 65, 71
1, 133152, Note_on_c, 0, 68, 77
1, 133153, Note_off_c, 0, 73, 60
1, 133168, Note_off_c, 0, 65, 67
1, 133186, Note_off_c, 0, 61, 60
1, 133206, Note_off_c, 0, 68, 62
1, 133252, Note_on_c, 0, 66, 69
1, 133278, Note_off_c, 0, 66, 67
1, 133299, Note_on_c, 0, 68, 76
1, 133303, Control_c, 0, 64, 87
1, 133311, Note_on_c, 0, 73, 58
1, 133318, Control_c, 0, 64, 62
1, 133322, Note_on_c, 0, 49, 65
1, 133329, Note_on_c, 0, 58, 60
1, 133333, Control_c, 0, 64, 0
1, 133344, Note_on_c, 0, 66, 83
1, 133349, Note_off_c, 0, 68, 64
1, 133363, Control_c, 0, 64, 61
1, 133377, Control_c, 0, 64, 78
1, 133392, Control_c, 0, 64, 94
1, 133406, Note_off_c, 0, 73, 59
1, 133407, Control_c, 0, 64, 120
1, 133421, Control_c, 0, 64, 127
1, 133435, Note_off_c, 0, 58, 29
1, 133445, Note_off_c, 0, 49, 55
1, 133508, Note_off_c, 0, 66, 61
1, 133511, Note_on_c, 0, 65, 81
1, 133514, Note_on_c, 0, 56, 63
1, 133532, Note_off_c, 0, 65, 70
1, 133535, Note_off_c, 0, 56, 63
1, 133675, Poly_aftertouch_c, 0, 56, 127
1, 133722, Note_on_c, 0, 56, 37
1, 133723, Note_on_c, 0, 63, 87
1, 133733, Note_on_c, 0, 37, 68
1, 133740, Note_on_c, 0, 54, 72
1, 133761, Control_c, 0, 64, 80
1, 133776, Control_c, 0, 64, 56
1, 133791, Control_c, 0, 64, 35
1, 133806, Control_c, 0, 64, 60
1, 133821, Control_c, 0, 64, 71
1, 133836, Control_c, 0, 64, 86
1, 133851, Control_c, 0, 64, 122
1, 133866, Control_c, 0, 64, 127
1, 133867, Note_off_c, 0, 54, 62
1, 133893, Note_off_c, 0, 63, 54
1, 133896, Note_off_c, 0, 37, 57
1, 133946, Note_on_c, 0, 61, 87
1, 133952, Note_on_c, 0, 53, 64
1, 133960, Note_off_c, 0, 56, 63
1, 133976, Note_off_c, 0, 53, 65
1, 133994, Note_off_c, 0, 61, 65
1, 134204, Note_on_c, 0, 61, 63
1, 134224, Note_on_c, 0, 58, 58
1, 134289, Note_on_c, 0, 75, 89
1, 134309, Note_on_c, 0, 73, 69
1, 134318, Control_c, 0, 64, 88
1, 134320, Note_on_c, 0, 63, 50
1, 134333, Control_c, 0, 64, 64
1, 134343, Note_on_c, 0, 66, 31
1, 134348, Control_c, 0, 64, 0
1, 134375, Note_off_c, 0, 63, 0
1, 134375, Note_on_c, 0, 63, 15
1, 134377, Control_c, 0, 64, 60
1, 134392, Control_c, 0, 64, 73
1, 134405, Note_off_c, 0, 61, 62
1, 134407, Control_c, 0, 64, 88
1, 134422, Control_c, 0, 64, 127
1, 134424, Note_off_c, 0, 58, 61
1, 134482, Note_off_c, 0, 66, 44
1, 134513, Note_off_c, 0, 63, 41
1, 134598, Note_off_c, 0, 75, 53
1, 134604, Note_on_c, 0, 44, 68
1, 134671, Note_off_c, 0, 44, 62
1, 134790, Note_off_c, 0, 73, 20
1, 134832, Note_on_c, 0, 77, 93
1, 134845, Note_on_c, 0, 65, 71
1, 134846, Note_on_c, 0, 61, 59
1, 134846, Note_on_c, 0, 69, 67
1, 134851, Note_on_c, 0, 66, 55
1, 134918, Note_off_c, 0, 66, 44
1, 134966, Note_off_c, 0, 61, 53
1, 134993, Note_off_c, 0, 65, 57
1, 135020, Note_off_c, 0, 77, 62
1, 135028, Note_on_c, 0, 60, 70
1, 135038, Note_off_c, 0, 69, 61
1, 135091, Note_off_c, 0, 60, 62
1, 135195, Note_on_c, 0, 78, 97
1, 135198, Note_on_c, 0, 61, 59
1, 135208, Note_on_c, 0, 60, 54
1, 135211, Note_on_c, 0, 70, 74
1, 135213, Note_on_c, 0, 66, 74
1, 135216, Note_on_c, 0, 51, 43
1, 135253, Note_off_c, 0, 51, 54
1, 135279, Note_off_c, 0, 66, 59
1, 135297, Note_off_c, 0, 70, 58
1, 135319, Note_off_c, 0, 61, 37
1, 135332, Note_off_c, 0, 78, 61
1, 135338, Note_on_c, 0, 51, 69
1, 135338, Note_off_c, 0, 60, 61
1, 135435, Note_on_c, 0, 66, 73
1, 135436, Note_on_c, 0, 56, 68
1, 135437, Control_c, 0, 64, 95
1, 135452, Control_c, 0, 64, 66
1, 135466, Control_c, 0, 64, 0
1, 135481, Note_on_c, 0, 72, 74
1, 135481, Control_c, 0, 64, 34
1, 135496, Control_c, 0, 64, 67
1, 135502, Note_off_c, 0, 66, 60
1, 135511, Control_c, 0, 64, 83
1, 135526, Control_c, 0, 64, 110
1, 135548, Control_c, 0, 64, 127
1, 135578, Note_off_c, 0, 51, 62
1, 135589, Note_on_c, 0, 60, 79
1, 135618, Note_off_c, 0, 56, 62
1, 135618, Note_off_c, 0, 60, 65
1, 135621, Note_on_c, 0, 80, 88
1, 135635, Note_off_c, 0, 72, 62
1, 135690, Note_off_c, 0, 80, 63
1, 135765, Note_on_c, 0, 44, 93
1, 135775, Note_on_c, 0, 82, 85
1, 135825, Note_off_c, 0, 44, 64
1, 135873, Note_on_c, 0, 80, 79
1, 135875, Note_off_c, 0, 82, 63
1, 135930, Note_off_c, 0, 80, 62
1, 135931, Note_on_c, 0, 78, 83
1, 135991, Note_off_c, 0, 78, 60
1, 136001, Note_on_c, 0, 80, 79
1, 136014, Note_on_c, 0, 66, 80
1, 136022, Note_on_c, 0, 61, 71
1, 136025, Note_on_c, 0, 82, 101
1, 136026, Note_on_c, 0, 70, 89
1, 136039, Note_off_c, 0, 66, 68
1, 136048, Note_on_c, 0, 81, 40
1, 136062, Note_off_c, 0, 80, 64
1, 136063, Note_on_c, 0, 78, 58
1, 136075, Note_off_c, 0, 81, 56
1, 136078, Note_off_c, 0, 61, 61
1, 136118, Note_off_c, 0, 78, 59
1, 136140, Note_off_c, 0, 70, 40
1, 136190, Note_on_c, 0, 80, 28
1, 136217, Note_on_c, 0, 51, 89
1, 136247, Note_off_c, 0, 80, 42
1, 136267, Note_off_c, 0, 82, 46
1, 136307, Note_off_c, 0, 51, 62
1, 136411, Note_on_c, 0, 60, 45
1, 136423, Note_on_c, 0, 65, 84
1, 136429, Note_on_c, 0, 84, 97
1, 136432, Note_on_c, 0, 56, 77
1, 136436, Note_on_c, 0, 72, 88
1, 136436, Note_on_c, 0, 77, 91
1, 136454, Note_off_c, 0, 72, 72
1, 136462, Note_off_c, 0, 65, 61
1, 136474, Note_off_c, 0, 77, 60
1, 136480, Note_off_c, 0, 60, 63
1, 136511, Note_off_c, 0, 56, 60
1, 136515, Note_off_c, 0, 84, 65
1, 136538, Poly_aftertouch_c, 0, 82, 0
1, 136577, Note_on_c, 0, 63, 60
1, 136579, Note_on_c, 0, 54, 43
1, 136599, Note_off_c, 0, 63, 63
1, 136611, Note_off_c, 0, 54, 56
1, 136682, Note_on_c, 0, 72, 73
1, 136704, Note_off_c, 0, 72, 70
1, 136748, Note_on_c, 0, 77, 71
1, 136801, Note_on_c, 0, 84, 71
1, 136972, Note_on_c, 0, 37, 81
1, 137019, Note_on_c, 0, 89, 99
1, 137046, Control_c, 0, 64, 81
1, 137061, Control_c, 0, 64, 0
1, 137120, Control_c, 0, 64, 65
1, 137135, Control_c, 0, 64, 81
1, 137150, Control_c, 0, 64, 119
1, 137164, Control_c, 0, 64, 127
1, 137213, Note_off_c, 0, 77, 62
1, 137219, Note_off_c, 0, 84, 63
1, 137242, Note_off_c, 0, 89, 61
1, 137350, Note_on_c, 0, 44, 76
1, 137356, Note_off_c, 0, 37, 60
1, 137422, Note_off_c, 0, 44, 60
1, 137511, Note_on_c, 0, 53, 69
1, 137564, Note_off_c, 0, 53, 65
1, 137583, Note_on_c, 0, 92, 96
1, 137601, Note_on_c, 0, 85, 66
1, 137620, Note_on_c, 0, 80, 43
1, 137626, Note_off_c, 0, 85, 69
1, 137631, Note_off_c, 0, 92, 67
1, 137646, Note_off_c, 0, 80, 56
1, 137869, Note_on_c, 0, 65, 62
1, 137877, Note_on_c, 0, 85, 70
1, 137881, Note_on_c, 0, 61, 52
1, 137907, Note_on_c, 0, 82, 58
1, 138016, Note_off_c, 0, 61, 46
1, 138032, Note_off_c, 0, 65, 53
1, 138079, Note_off_c, 0, 85, 52
1, 138085, Note_on_c, 0, 66, 85
1, 138104, Note_on_c, 0, 80, 63
1, 138114, Note_on_c, 0, 63, 51
1, 138136, Note_on_c, 0, 75, 40
1, 138146, Note_off_c, 0, 63, 62
1, 138164, Note_off_c, 0, 66, 58
1, 138170, Note_off_c, 0, 75, 55
1, 138212, Note_off_c, 0, 82, 36
1, 138289, Note_off_c, 0, 80, 58
1, 138298, Note_on_c, 0, 68, 72
1, 138311, Note_on_c, 0, 65, 67
1, 138325, Note_off_c, 0, 68, 67
1, 138335, Note_off_c, 0, 65, 66
1, 138587, Note_on_c, 0, 53, 59
1, 138587, Note_on_c, 0, 61, 61
1, 138588, Control_c, 0, 64, 87
1, 138603, Control_c, 0, 64, 62
1, 138608, Note_on_c, 0, 70, 75
1, 138617, Control_c, 0, 64, 0
1, 138633, Note_on_c, 0, 77, 53
1, 138647, Control_c, 0, 64, 59
1, 138659, Note_off_c, 0, 61, 60
1, 138662, Control_c, 0, 64, 73
1, 138671, Note_off_c, 0, 77, 61
1, 138677, Control_c, 0, 64, 91
1, 138691, Note_off_c, 0, 53, 64
1, 138692, Control_c, 0, 64, 127
1, 138817, Note_off_c, 0, 70, 62
1, 138829, Note_on_c, 0, 44, 55
1, 138859, Note_off_c, 0, 44, 60
1, 138890, Poly_aftertouch_c, 0, 65, 127
1, 138921, Poly_aftertouch_c, 0, 65, 0
1, 139045, Note_on_c, 0, 68, 75
1, 139082, Note_on_c, 0, 65, 47
1, 139112, Note_on_c, 0, 85, 32
1, 139125, Note_on_c, 0, 77, 39
1, 139150, Note_off_c, 0, 85, 50
1, 139172, Note_off_c, 0, 68, 52
1, 139242, Note_off_c, 0, 65, 37
1, 139260, Note_off_c, 0, 77, 60
1, 139263, Note_on_c, 0, 56, 40
1, 139306, Note_off_c, 0, 56, 53
1, 139308, Note_on_c, 0, 73, 47
1, 139333, Note_off_c, 0, 73, 59
1, 139518, Note_on_c, 0, 53, 45
1, 139530, Note_on_c, 0, 61, 50
1, 139545, Control_c, 0, 64, 93
1, 139559, Control_c, 0, 64, 73
1, 139574, Control_c, 0, 64, 60
1, 139577, Note_on_c, 0, 70, 65
1, 139589, Control_c, 0, 64, 63
1, 139595, Note_on_c, 0, 65, 49
1, 139604, Control_c, 0, 64, 70
1, 139608, Note_off_c, 0, 61, 61
1, 139619, Control_c, 0, 64, 79
1, 139634, Control_c, 0, 64, 89
1, 139649, Control_c, 0, 64, 98
1, 139655, Note_off_c, 0, 53, 63
1, 139664, Control_c, 0, 64, 103
1, 139679, Control_c, 0, 64, 107
1, 139694, Control_c, 0, 64, 111
1, 139709, Control_c, 0, 64, 116
1, 139724, Control_c, 0, 64, 127
1, 139728, Note_off_c, 0, 70, 61
1, 139735, Note_on_c, 0, 72, 69
1, 139800, Note_on_c, 0, 44, 51
1, 139834, Note_on_c, 0, 70, 73
1, 139836, Note_off_c, 0, 72, 57
1, 139838, Note_off_c, 0, 44, 56
1, 139904, Note_off_c, 0, 70, 60
1, 139917, Note_on_c, 0, 68, 73
1, 139960, Note_off_c, 0, 68, 54
1, 140001, Note_on_c, 0, 70, 71
1, 140034, Note_off_c, 0, 70, 60
1, 140072, Control_c, 0, 64, 102
1, 140087, Control_c, 0, 64, 83
1, 140101, Control_c, 0, 64, 67
1, 140116, Control_c, 0, 64, 0
1, 140127, Note_on_c, 0, 60, 49
1, 140129, Note_on_c, 0, 70, 60
1, 140135, Note_on_c, 0, 54, 43
1, 140149, Note_off_c, 0, 65, 57
1, 140153, Note_on_c, 0, 75, 39
1, 140176, Control_c, 0, 64, 28
1, 140190, Control_c, 0, 64, 66
1, 140205, Control_c, 0, 64, 77
1, 140209, Note_off_c, 0, 60, 62
1, 140220, Control_c, 0, 64, 89
1, 140235, Control_c, 0, 64, 106
1, 140250, Control_c, 0, 64, 117
1, 140252, Note_off_c, 0, 54, 61
1, 140264, Control_c, 0, 64, 127
1, 140296, Note_off_c, 0, 70, 53
1, 140431, Note_on_c, 0, 44, 32
1, 140441, Note_off_c, 0, 75, 55
1, 140470, Note_off_c, 0, 44, 51
1, 140684, Note_on_c, 0, 72, 54
1, 140705, Note_on_c, 0, 63, 37
1, 140713, Note_on_c, 0, 80, 39
1, 140716, Note_on_c, 0, 66, 39
1, 140724, Control_c, 0, 64, 88
1, 140739, Control_c, 0, 64, 69
1, 140754, Control_c, 0, 64, 0
1, 140805, Control_c, 0, 64, 63
1, 140820, Control_c, 0, 64, 73
1, 140835, Control_c, 0, 64, 84
1, 140850, Control_c, 0, 64, 96
1, 140865, Control_c, 0, 64, 106
1, 140880, Control_c, 0, 64, 115
1, 140894, Control_c, 0, 64, 127
1, 141027, Control_c, 0, 67, 10
1, 141042, Control_c, 0, 67, 15
1, 141057, Control_c, 0, 67, 23
1, 141072, Control_c, 0, 67, 31
1, 141075, Note_on_c, 0, 56, 30
1, 141085, Note_on_c, 0, 68, 30
1, 141086, Control_c, 0, 67, 39
1, 141101, Control_c, 0, 67, 48
1, 141116, Control_c, 0, 67, 58
1, 141130, Control_c, 0, 67, 69
1, 141145, Control_c, 0, 67, 81
1, 141149, Note_off_c, 0, 66, 38
1, 141160, Control_c, 0, 67, 97
1, 141163, Note_off_c, 0, 68, 56
1, 141166, Note_off_c, 0, 72, 23
1, 141174, Note_off_c, 0, 80, 32
1, 141175, Control_c, 0, 67, 111
1, 141190, Control_c, 0, 67, 127
1, 141205, Control_c, 0, 67, 127
1, 141211, Note_off_c, 0, 63, 43
1, 141219, Note_off_c, 0, 56, 36
1, 141600, Note_on_c, 0, 75, 32
1, 141654, Note_on_c, 0, 90, 46
1, 141694, Note_on_c, 0, 82, 34
1, 141783, Note_off_c, 0, 75, 43
1, 141870, Note_off_c, 0, 90, 37
1, 141872, Note_off_c, 0, 82, 46
1, 142099, Note_on_c, 0, 87, 50
1, 142100, Note_on_c, 0, 66, 35
1, 142101, Note_on_c, 0, 72, 31
1, 142135, Note_on_c, 0, 80, 37
1, 142167, Note_off_c, 0, 87, 61
1, 142168, Note_off_c, 0, 72, 60
1, 142173, Note_off_c, 0, 66, 56
1, 142191, Poly_aftertouch_c, 0, 68, 127
1, 142206, Note_off_c, 0, 80, 57
1, 142225, Poly_aftertouch_c, 0, 68, 0
1, 142409, Note_on_c, 0, 82, 52
1, 142414, Note_on_c, 0, 78, 45
1, 142415, Note_on_c, 0, 63, 45
1, 142430, Note_on_c, 0, 68, 35
1, 142454, Note_on_c, 0, 73, 6
1, 142466, Note_off_c, 0, 78, 46
1, 142485, Note_off_c, 0, 68, 51
1, 142507, Note_off_c, 0, 73, 50
1, 142528, Note_off_c, 0, 82, 37
1, 142539, Note_off_c, 0, 63, 37
1, 142673, Note_on_c, 0, 80, 37
1, 142676, Note_on_c, 0, 72, 31
1, 142677, Note_on_c, 0, 66, 42
1, 142696, Note_on_c, 0, 75, 33
1, 142701, Note_off_c, 0, 80, 54
1, 142706, Note_off_c, 0, 66, 55
1, 142709, Note_off_c, 0, 72, 53
1, 142728, Note_off_c, 0, 75, 54
1, 142925, Control_c, 0, 64, 93
1, 142928, Note_on_c, 0, 77, 53
1, 142940, Control_c, 0, 64, 73
1, 142945, Note_on_c, 0, 66, 37
1, 142955, Control_c, 0, 64, 53
1, 142960, Note_on_c, 0, 56, 26
1, 142960, Note_on_c, 0, 70, 16
1, 142970, Control_c, 0, 64, 0
1, 142985, Control_c, 0, 64, 56
1, 142999, Control_c, 0, 64, 69
1, 143014, Poly_aftertouch_c, 0, 61, 127
1, 143014, Control_c, 0, 64, 81
1, 143030, Poly_aftertouch_c, 0, 58, 127
1, 143037, Control_c, 0, 64, 93
1, 143052, Control_c, 0, 64, 103
1, 143053, Note_off_c, 0, 70, 39
1, 143067, Note_off_c, 0, 66, 36
1, 143067, Control_c, 0, 64, 109
1, 143081, Control_c, 0, 64, 115
1, 143096, Control_c, 0, 64, 127
1, 143131, Note_off_c, 0, 56, 44
1, 143174, Note_off_c, 0, 77, 48
1, 143199, Note_on_c, 0, 75, 55
1, 143205, Note_on_c, 0, 66, 10
1, 143214, Note_on_c, 0, 63, 27
1, 143223, Note_on_c, 0, 72, 16
1, 143232, Poly_aftertouch_c, 0, 58, 0
1, 143239, Note_off_c, 0, 75, 61
1, 143250, Poly_aftertouch_c, 0, 61, 0
1, 143253, Note_off_c, 0, 66, 52
1, 143255, Note_off_c, 0, 63, 54
1, 143264, Note_off_c, 0, 72, 53
1, 143504, Note_on_c, 0, 73, 51
1, 143510, Note_on_c, 0, 44, 42
1, 143512, Control_c, 0, 64, 91
1, 143520, Note_on_c, 0, 66, 39
1, 143526, Control_c, 0, 64, 74
1, 143527, Note_on_c, 0, 54, 40
1, 143528, Note_on_c, 0, 58, 40
1, 143541, Control_c, 0, 64, 61
1, 143554, Note_on_c, 0, 63, 20
1, 143556, Control_c, 0, 64, 56
1, 143557, Note_on_c, 0, 61, 26
1, 143570, Note_off_c, 0, 58, 50
1, 143571, Control_c, 0, 64, 66
1, 143580, Note_off_c, 0, 66, 46
1, 143586, Control_c, 0, 64, 78
1, 143594, Note_off_c, 0, 44, 0
1, 143594, Note_on_c, 0, 44, 3
1, 143598, Note_off_c, 0, 63, 52
1, 143600, Control_c, 0, 64, 91
1, 143602, Note_off_c, 0, 61, 48
1, 143602, Note_off_c, 0, 73, 53
1, 143615, Control_c, 0, 64, 106
1, 143630, Control_c, 0, 64, 111
1, 143646, Control_c, 0, 64, 113
1, 143661, Control_c, 0, 64, 117
1, 143676, Control_c, 0, 64, 121
1, 143691, Control_c, 0, 64, 127
1, 143846, Control_c, 0, 64, 122
1, 143861, Control_c, 0, 64, 101
1, 143866, Note_on_c, 0, 72, 50
1, 143872, Note_on_c, 0, 56, 42
1, 143875, Control_c, 0, 64, 84
1, 143889, Note_on_c, 0, 66, 35
1, 143890, Control_c, 0, 64, 70
1, 143899, Note_on_c, 0, 60, 28
1, 143905, Control_c, 0, 64, 57
1, 143920, Control_c, 0, 64, 55
1, 143932, Note_off_c, 0, 54, 47
1, 143934, Note_off_c, 0, 56, 59
1, 143935, Control_c, 0, 64, 67
1, 143940, Note_off_c, 0, 72, 59
1, 143949, Control_c, 0, 64, 77
1, 143964, Control_c, 0, 64, 86
1, 143968, Note_off_c, 0, 60, 55
1, 143979, Control_c, 0, 64, 93
1, 143986, Note_off_c, 0, 66, 55
1, 143994, Control_c, 0, 64, 96
1, 144009, Control_c, 0, 64, 99
1, 144010, Note_off_c, 0, 44, 46
1, 144023, Control_c, 0, 64, 102
1, 144038, Control_c, 0, 64, 104
1, 144053, Control_c, 0, 64, 107
1, 144068, Control_c, 0, 64, 111
1, 144082, Control_c, 0, 64, 118
1, 144097, Control_c, 0, 64, 127
1, 144320, Control_c, 0, 64, 118
1, 144335, Control_c, 0, 64, 108
1, 144348, Note_on_c, 0, 31, 52
1, 144349, Control_c, 0, 64, 96
1, 144362, Note_on_c, 0, 71, 50
1, 144364, Control_c, 0, 64, 84
1, 144375, Note_on_c, 0, 59, 39
1, 144379, Control_c, 0, 64, 72
1, 144388, Note_off_c, 0, 31, 62
1, 144390, Note_on_c, 0, 67, 33
1, 144394, Control_c, 0, 64, 60
1, 144409, Control_c, 0, 64, 0
1, 144419, Note_off_c, 0, 59, 60
1, 144435, Note_off_c, 0, 67, 58
1, 144450, Note_off_c, 0, 71, 61
1, 144670, Note_on_c, 0, 59, 42
1, 144680, Note_on_c, 0, 50, 39
1, 144698, Note_off_c, 0, 59, 56
1, 144713, Note_off_c, 0, 50, 57
1, 144921, Note_on_c, 0, 62, 48
1, 144922, Note_on_c, 0, 55, 47
1, 144949, Note_off_c, 0, 55, 59
1, 144949, Note_off_c, 0, 62, 60
1, 145142, Note_on_c, 0, 79, 65
1, 145147, Note_on_c, 0, 71, 59
1, 145175, Note_off_c, 0, 71, 67
1, 145188, Note_off_c, 0, 79, 55
1, 145235, Note_on_c, 0, 62, 48
1, 145277, Note_on_c, 0, 64, 60
1, 145299, Note_off_c, 0, 62, 0
1, 145306, Note_off_c, 0, 64, 66
1, 145314, Note_on_c, 0, 62, 35
1, 145315, Note_on_c, 0, 81, 70
1, 145321, Note_on_c, 0, 72, 61
1, 145342, Note_off_c, 0, 62, 53
1, 145343, Note_off_c, 0, 72, 62
1, 145356, Note_off_c, 0, 81, 57
1, 145438, Note_on_c, 0, 74, 58
1, 145456, Note_on_c, 0, 76, 64
1, 145459, Note_off_c, 0, 74, 63
1, 145475, Note_off_c, 0, 76, 62
1, 145490, Note_on_c, 0, 83, 81
1, 145524, Note_on_c, 0, 74, 47
1, 145535, Note_off_c, 0, 83, 63
1, 145551, Note_off_c, 0, 74, 57
1, 145565, Control_c, 0, 67, 120
1, 145580, Control_c, 0, 67, 102
1, 145595, Control_c, 0, 67, 82
1, 145609, Control_c, 0, 67, 61
1, 145624, Control_c, 0, 67, 43
1, 145639, Control_c, 0, 67, 24
1, 145654, Control_c, 0, 67, 0
1, 145686, Note_on_c, 0, 38, 57
1, 145688, Note_on_c, 0, 84, 74
1, 145705, Note_on_c, 0, 78, 54
1, 145712, Note_off_c, 0, 84, 67
1, 145713, Note_off_c, 0, 38, 57
1, 145727, Note_off_c, 0, 78, 60
1, 145883, Note_on_c, 0, 81, 73
1, 145902, Note_on_c, 0, 60, 46
1, 145910, Note_off_c, 0, 81, 64
1, 145929, Note_off_c, 0, 60, 56
1, 146077, Note_on_c, 0, 78, 85
1, 146081, Note_on_c, 0, 69, 76
1, 146089, Note_on_c, 0, 50, 58
1, 146105, Note_off_c, 0, 69, 66
1, 146128, Note_off_c, 0, 50, 65
1, 146138, Note_off_c, 0, 78, 60
1, 146266, Note_on_c, 0, 74, 87
1, 146266, Note_on_c, 0, 60, 57
1, 146289, Note_off_c, 0, 60, 61
1, 146295, Note_on_c, 0, 71, 35
1, 146296, Note_off_c, 0, 74, 66
1, 146329, Note_off_c, 0, 71, 33
1, 146463, Note_on_c, 0, 71, 38
1, 146465, Note_on_c, 0, 86, 82
1, 146492, Note_on_c, 0, 62, 6
1, 146493, Note_off_c, 0, 71, 57
1, 146499, Note_on_c, 0, 60, 3
1, 146502, Note_off_c, 0, 86, 64
1, 146505, Note_on_c, 0, 76, 24
1, 146538, Note_off_c, 0, 60, 48
1, 146543, Note_off_c, 0, 62, 37
1, 146547, Note_off_c, 0, 76, 30
1, 146684, Note_on_c, 0, 84, 74
1, 146701, Note_on_c, 0, 69, 41
1, 146711, Note_on_c, 0, 78, 45
1, 146731, Note_off_c, 0, 69, 55
1, 146736, Note_off_c, 0, 84, 61
1, 146737, Note_off_c, 0, 78, 57
1, 146884, Note_on_c, 0, 43, 62
1, 146895, Note_on_c, 0, 79, 43
1, 146904, Note_on_c, 0, 83, 46
1, 146907, Note_on_c, 0, 81, 55
1, 146912, Note_off_c, 0, 43, 63
1, 146927, Note_off_c, 0, 79, 54
1, 146934, Note_off_c, 0, 81, 60
1, 146936, Note_off_c, 0, 83, 60
1, 147032, Note_on_c, 0, 74, 33
1, 147045, Note_on_c, 0, 76, 58
1, 147052, Note_on_c, 0, 60, 56
1, 147052, Note_on_c, 0, 66, 66
1, 147067, Note_on_c, 0, 81, 74
1, 147073, Note_off_c, 0, 74, 63
1, 147074, Note_off_c, 0, 76, 64
1, 147079, Note_off_c, 0, 66, 65
1, 147080, Note_off_c, 0, 60, 59
1, 147092, Note_off_c, 0, 81, 65
1, 147226, Note_on_c, 0, 59, 62
1, 147226, Note_on_c, 0, 62, 66
1, 147233, Note_on_c, 0, 67, 69
1, 147235, Note_on_c, 0, 86, 68
1, 147237, Note_on_c, 0, 84, 66
1, 147247, Note_on_c, 0, 79, 51
1, 147250, Note_off_c, 0, 59, 64
1, 147250, Note_off_c, 0, 62, 64
1, 147251, Note_off_c, 0, 86, 69
1, 147254, Note_off_c, 0, 84, 66
1, 147259, Note_off_c, 0, 67, 67
1, 147271, Note_off_c, 0, 79, 60
1, 147387, Note_on_c, 0, 91, 90
1, 147395, Note_on_c, 0, 76, 68
1, 147402, Note_on_c, 0, 79, 63
1, 147415, Note_off_c, 0, 76, 61
1, 147427, Note_off_c, 0, 91, 65
1, 147429, Note_off_c, 0, 79, 66
1, 147489, Note_on_c, 0, 74, 72
1, 147525, Note_on_c, 0, 76, 58
1, 147529, Note_off_c, 0, 74, 61
1, 147543, Control_c, 0, 64, 21
1, 147544, Note_on_c, 0, 93, 103
1, 147545, Note_on_c, 0, 81, 100
1, 147558, Note_off_c, 0, 76, 65
1, 147558, Control_c, 0, 64, 66
1, 147560, Note_on_c, 0, 74, 77
1, 147572, Control_c, 0, 64, 74
1, 147584, Note_off_c, 0, 81, 66
1, 147587, Control_c, 0, 64, 82
1, 147599, Note_off_c, 0, 74, 68
1, 147602, Control_c, 0, 64, 94
1, 147608, Note_off_c, 0, 93, 59
1, 147617, Control_c, 0, 64, 111
1, 147632, Control_c, 0, 64, 127
1, 147732, Note_on_c, 0, 62, 70
1, 147742, Note_on_c, 0, 83, 94
1, 147744, Note_on_c, 0, 95, 102
1, 147759, Note_off_c, 0, 62, 66
1, 147787, Note_off_c, 0, 83, 65
1, 147843, Note_off_c, 0, 95, 62
1, 147959, Control_c, 0, 64, 91
1, 147974, Control_c, 0, 64, 60
1, 147980, Note_on_c, 0, 38, 84
1, 147987, Note_on_c, 0, 96, 91
1, 147988, Control_c, 0, 64, 0
1, 147989, Note_on_c, 0, 90, 83
1, 147989, Note_on_c, 0, 84, 87
1, 148018, Control_c, 0, 64, 64
1, 148021, Note_off_c, 0, 38, 62
1, 148028, Note_off_c, 0, 96, 66
1, 148033, Control_c, 0, 64, 82
1, 148047, Control_c, 0, 64, 117
1, 148051, Note_off_c, 0, 84, 46
1, 148062, Control_c, 0, 64, 127
1, 148076, Note_off_c, 0, 90, 61
1, 148192, Note_on_c, 0, 60, 69
1, 148199, Note_on_c, 0, 86, 87
1, 148201, Note_on_c, 0, 93, 80
1, 148205, Note_on_c, 0, 81, 79
1, 148207, Note_on_c, 0, 66, 62
1, 148219, Note_off_c, 0, 93, 71
1, 148225, Note_off_c, 0, 81, 69
1, 148230, Note_off_c, 0, 86, 63
1, 148240, Note_off_c, 0, 60, 57
1, 148269, Note_off_c, 0, 66, 52
1, 148367, Note_on_c, 0, 62, 71
1, 148367, Note_on_c, 0, 72, 75
1, 148380, Note_on_c, 0, 90, 85
1, 148383, Note_on_c, 0, 83, 74
1, 148383, Note_on_c, 0, 66, 64
1, 148389, Note_off_c, 0, 72, 69
1, 148392, Note_on_c, 0, 78, 67
1, 148397, Note_off_c, 0, 90, 74
1, 148410, Note_off_c, 0, 78, 67
1, 148416, Note_off_c, 0, 83, 60
1, 148422, Note_off_c, 0, 66, 58
1, 148519, Note_off_c, 0, 62, 0
1, 148538, Note_on_c, 0, 62, 27
1, 148544, Note_on_c, 0, 60, 66
1, 148560, Note_on_c, 0, 66, 46
1, 148565, Note_on_c, 0, 86, 95
1, 148567, Note_on_c, 0, 81, 68
1, 148567, Note_off_c, 0, 60, 70
1, 148571, Note_on_c, 0, 74, 86
1, 148576, Note_off_c, 0, 62, 62
1, 148584, Note_off_c, 0, 66, 60
1, 148614, Note_off_c, 0, 74, 63
1, 148662, Note_off_c, 0, 86, 61
1, 148677, Note_off_c, 0, 81, 26
1, 148754, Note_on_c, 0, 54, 60
1, 148767, Control_c, 0, 64, 80
1, 148782, Control_c, 0, 64, 0
1, 148812, Note_on_c, 0, 81, 66
1, 148812, Note_on_c, 0, 88, 88
1, 148827, Note_on_c, 0, 76, 76
1, 148842, Control_c, 0, 64, 63
1, 148843, Note_off_c, 0, 54, 61
1, 148848, Note_off_c, 0, 81, 66
1, 148857, Control_c, 0, 64, 79
1, 148863, Note_off_c, 0, 76, 60
1, 148863, Note_off_c, 0, 88, 64
1, 148871, Control_c, 0, 64, 105
1, 148886, Control_c, 0, 64, 127
1, 149067, Note_on_c, 0, 69, 19
1, 149076, Note_on_c, 0, 60, 27
1, 149112, Note_off_c, 0, 69, 53
1, 149113, Note_off_c, 0, 60, 56
1, 149138, Note_on_c, 0, 84, 84
1, 149158, Note_on_c, 0, 72, 68
1, 149184, Note_off_c, 0, 72, 64
1, 149215, Note_off_c, 0, 84, 57
1, 149414, Control_c, 0, 64, 93
1, 149420, Note_on_c, 0, 35, 47
1, 149424, Note_on_c, 0, 83, 75
1, 149429, Control_c, 0, 64, 68
1, 149443, Control_c, 0, 64, 0
1, 149450, Note_on_c, 0, 75, 51
1, 149451, Note_on_c, 0, 79, 52
1, 149453, Note_on_c, 0, 71, 54
1, 149495, Note_off_c, 0, 35, 63
1, 149502, Control_c, 0, 64, 64
1, 149517, Control_c, 0, 64, 74
1, 149532, Control_c, 0, 64, 86
1, 149547, Control_c, 0, 64, 104
1, 149561, Control_c, 0, 64, 127
1, 149632, Note_off_c, 0, 71, 57
1, 149670, Note_off_c, 0, 75, 56
1, 149723, Note_off_c, 0, 79, 57
1, 149746, Note_off_c, 0, 83, 58
1, 149802, Note_on_c, 0, 69, 57
1, 149808, Note_on_c, 0, 59, 47
1, 149825, Note_on_c, 0, 63, 42
1, 149834, Note_off_c, 0, 69, 65
1, 149843, Note_on_c, 0, 78, 68
1, 149849, Note_off_c, 0, 59, 59
1, 149857, Note_off_c, 0, 63, 60
1, 149869, Note_off_c, 0, 78, 65
1, 149889, Note_on_c, 0, 83, 62
1, 149918, Note_on_c, 0, 81, 56
1, 149934, Note_off_c, 0, 83, 62
1, 149939, Control_c, 0, 64, 106
1, 149954, Control_c, 0, 64, 81
1, 149969, Control_c, 0, 64, 63
1, 149983, Note_off_c, 0, 81, 65
1, 149983, Control_c, 0, 64, 0
1, 149989, Note_on_c, 0, 79, 57
1, 149992, Note_on_c, 0, 52, 70
1, 150027, Note_off_c, 0, 52, 66
1, 150097, Poly_aftertouch_c, 0, 76, 127
1, 150108, Poly_aftertouch_c, 0, 74, 0
1, 150192, Note_on_c, 0, 59, 79
1, 150214, Note_off_c, 0, 59, 69
1, 150276, Note_off_c, 0, 79, 60
1, 150292, Poly_aftertouch_c, 0, 76, 0
1, 150415, Note_on_c, 0, 67, 61
1, 150445, Note_off_c, 0, 67, 64
1, 150618, Note_on_c, 0, 79, 77
1, 150629, Control_c, 0, 64, 31
1, 150643, Control_c, 0, 64, 58
1, 150651, Note_on_c, 0, 71, 48
1, 150658, Control_c, 0, 64, 67
1, 150673, Control_c, 0, 64, 75
1, 150688, Control_c, 0, 64, 88
1, 150703, Control_c, 0, 64, 96
1, 150708, Note_off_c, 0, 71, 50
1, 150717, Control_c, 0, 64, 101
1, 150730, Note_off_c, 0, 79, 62
1, 150732, Control_c, 0, 64, 110
1, 150747, Control_c, 0, 64, 127
1, 150893, Note_on_c, 0, 42, 46
1, 150911, Control_c, 0, 64, 108
1, 150926, Control_c, 0, 64, 82
1, 150940, Control_c, 0, 64, 65
1, 150955, Control_c, 0, 64, 23
1, 150958, Note_on_c, 0, 78, 78
1, 150964, Note_off_c, 0, 42, 53
1, 150970, Control_c, 0, 64, 58
1, 150985, Control_c, 0, 64, 71
1, 150991, Note_on_c, 0, 70, 44
1, 151000, Control_c, 0, 64, 87
1, 151015, Control_c, 0, 64, 104
1, 151024, Note_off_c, 0, 70, 58
1, 151030, Control_c, 0, 64, 112
1, 151040, Note_off_c, 0, 78, 57
1, 151045, Control_c, 0, 64, 117
1, 151059, Control_c, 0, 64, 127
1, 151197, Note_on_c, 0, 64, 41
1, 151212, Note_on_c, 0, 54, 42
1, 151224, Note_on_c, 0, 76, 71
1, 151226, Note_off_c, 0, 64, 55
1, 151234, Note_on_c, 0, 67, 62
1, 151243, Note_off_c, 0, 54, 56
1, 151244, Poly_aftertouch_c, 0, 58, 127
1, 151268, Note_off_c, 0, 67, 63
1, 151289, Poly_aftertouch_c, 0, 58, 0
1, 151292, Note_on_c, 0, 69, 60
1, 151316, Note_off_c, 0, 76, 62
1, 151322, Note_off_c, 0, 69, 66
1, 151340, Note_on_c, 0, 67, 70
1, 151348, Control_c, 0, 64, 91
1, 151362, Note_off_c, 0, 67, 68
1, 151363, Control_c, 0, 64, 68
1, 151377, Control_c, 0, 64, 59
1, 151392, Control_c, 0, 64, 66
1, 151403, Note_on_c, 0, 35, 46
1, 151406, Note_on_c, 0, 66, 80
1, 151407, Control_c, 0, 64, 79
1, 151411, Note_on_c, 0, 74, 59
1, 151421, Control_c, 0, 64, 96
1, 151429, Note_off_c, 0, 66, 66
1, 151433, Note_off_c, 0, 74, 64
1, 151436, Note_off_c, 0, 35, 54
1, 151436, Control_c, 0, 64, 127
1, 151581, Note_on_c, 0, 53, 76
1, 151612, Note_on_c, 0, 68, 65
1, 151612, Note_on_c, 0, 71, 67
1, 151614, Control_c, 0, 64, 99
1, 151620, Note_on_c, 0, 62, 70
1, 151623, Note_on_c, 0, 55, 79
1, 151624, Note_off_c, 0, 53, 63
1, 151629, Control_c, 0, 64, 79
1, 151630, Note_off_c, 0, 71, 66
1, 151641, Note_off_c, 0, 68, 66
1, 151644, Control_c, 0, 64, 60
1, 151656, Note_off_c, 0, 55, 67
1, 151659, Control_c, 0, 64, 0
1, 151662, Note_off_c, 0, 62, 56
1, 151665, Note_on_c, 0, 53, 66
1, 151728, Note_on_c, 0, 45, 64
1, 151730, Note_off_c, 0, 53, 66
1, 151756, Note_off_c, 0, 45, 65
1, 151763, Note_on_c, 0, 72, 70
1, 151772, Note_on_c, 0, 67, 42
1, 151787, Note_off_c, 0, 72, 67
1, 151803, Note_off_c, 0, 67, 48
1, 151990, Note_on_c, 0, 51, 59
1, 151990, Note_on_c, 0, 69, 69
1, 151997, Note_on_c, 0, 55, 49
1, 152020, Note_on_c, 0, 60, 27
1, 152022, Note_off_c, 0, 51, 61
1, 152022, Note_off_c, 0, 69, 69
1, 152030, Note_off_c, 0, 55, 58
1, 152058, Note_off_c, 0, 60, 53
1, 152252, Note_on_c, 0, 59, 41
1, 152260, Note_on_c, 0, 50, 38
1, 152286, Note_on_c, 0, 74, 62
1, 152289, Control_c, 0, 64, 50
1, 152304, Note_on_c, 0, 62, 35
1, 152304, Control_c, 0, 64, 65
1, 152311, Note_on_c, 0, 67, 46
1, 152319, Control_c, 0, 64, 70
1, 152334, Control_c, 0, 64, 80
1, 152348, Note_off_c, 0, 59, 59
1, 152349, Control_c, 0, 64, 90
1, 152363, Control_c, 0, 64, 101
1, 152371, Note_off_c, 0, 62, 60
1, 152375, Note_off_c, 0, 67, 57
1, 152378, Control_c, 0, 64, 110
1, 152393, Control_c, 0, 64, 127
1, 152414, Note_off_c, 0, 74, 63
1, 152514, Note_on_c, 0, 60, 57
1, 152558, Note_on_c, 0, 76, 65
1, 152576, Note_off_c, 0, 60, 53
1, 152577, Note_off_c, 0, 76, 66
1, 152586, Control_c, 0, 64, 103
1, 152597, Note_on_c, 0, 78, 75
1, 152601, Control_c, 0, 64, 80
1, 152615, Note_off_c, 0, 50, 33
1, 152616, Control_c, 0, 64, 63
1, 152628, Note_off_c, 0, 78, 62
1, 152631, Control_c, 0, 64, 0
1, 152639, Note_on_c, 0, 76, 76
1, 152674, Note_off_c, 0, 76, 62
1, 152677, Note_on_c, 0, 59, 54
1, 152687, Note_on_c, 0, 74, 76
1, 152732, Note_off_c, 0, 74, 63
1, 152772, Control_c, 0, 64, 71
1, 152786, Control_c, 0, 64, 89
1, 152801, Control_c, 0, 64, 103
1, 152801, Control_c, 0, 67, 9
1, 152816, Control_c, 0, 64, 108
1, 152816, Control_c, 0, 67, 12
1, 152831, Control_c, 0, 64, 111
1, 152831, Control_c, 0, 67, 16
1, 152845, Control_c, 0, 64, 121
1, 152845, Control_c, 0, 67, 20
1, 152860, Control_c, 0, 64, 127
1, 152860, Control_c, 0, 67, 22
1, 152864, Note_off_c, 0, 59, 52
1, 152875, Control_c, 0, 67, 25
1, 152890, Control_c, 0, 67, 28
1, 152905, Control_c, 0, 67, 31
1, 152910, Note_on_c, 0, 72, 72
1, 152915, Note_on_c, 0, 50, 58
1, 152920, Control_c, 0, 67, 34
1, 152923, Note_on_c, 0, 64, 66
1, 152935, Control_c, 0, 67, 36
1, 152946, Note_off_c, 0, 50, 67
1, 152952, Note_off_c, 0, 64, 67
1, 152977, Note_off_c, 0, 72, 60
1, 152982, Note_on_c, 0, 71, 77
1, 152994, Control_c, 0, 67, 36
1, 153009, Control_c, 0, 64, 115
1, 153009, Control_c, 0, 67, 35
1, 153024, Control_c, 0, 64, 98
1, 153024, Control_c, 0, 67, 36
1, 153038, Control_c, 0, 64, 82
1, 153038, Control_c, 0, 67, 37
1, 153046, Note_off_c, 0, 71, 61
1, 153053, Control_c, 0, 64, 67
1, 153053, Control_c, 0, 67, 38
1, 153068, Control_c, 0, 64, 0
1, 153068, Control_c, 0, 67, 44
1, 153083, Note_on_c, 0, 69, 77
1, 153083, Control_c, 0, 67, 53
1, 153098, Control_c, 0, 67, 65
1, 153112, Control_c, 0, 67, 78
1, 153122, Note_on_c, 0, 66, 4
1, 153127, Control_c, 0, 67, 96
1, 153142, Control_c, 0, 67, 113
1, 153144, Note_off_c, 0, 69, 59
1, 153157, Control_c, 0, 67, 127
1, 153177, Note_off_c, 0, 66, 26
1, 153345, Note_on_c, 0, 71, 63
1, 153350, Control_c, 0, 64, 64
1, 153365, Control_c, 0, 64, 74
1, 153379, Note_off_c, 0, 71, 64
1, 153380, Control_c, 0, 64, 82
1, 153395, Control_c, 0, 64, 93
1, 153409, Control_c, 0, 64, 103
1, 153424, Control_c, 0, 64, 114
1, 153439, Control_c, 0, 64, 124
1, 153453, Control_c, 0, 64, 127
1, 153624, Control_c, 0, 64, 109
1, 153639, Control_c, 0, 64, 79
1, 153654, Control_c, 0, 64, 64
1, 153658, Note_on_c, 0, 67, 65
1, 153662, Note_on_c, 0, 59, 53
1, 153668, Control_c, 0, 64, 50
1, 153668, Control_c, 0, 67, 123
1, 153673, Note_on_c, 0, 43, 34
1, 153683, Control_c, 0, 64, 63
1, 153683, Control_c, 0, 67, 112
1, 153686, Note_on_c, 0, 50, 35
1, 153698, Note_off_c, 0, 59, 64
1, 153698, Control_c, 0, 64, 74
1, 153698, Control_c, 0, 67, 99
1, 153713, Control_c, 0, 64, 87
1, 153713, Control_c, 0, 67, 82
1, 153715, Note_off_c, 0, 67, 61
1, 153726, Note_off_c, 0, 43, 61
1, 153726, Note_off_c, 0, 50, 64
1, 153728, Control_c, 0, 64, 111
1, 153728, Control_c, 0, 67, 57
1, 153742, Control_c, 0, 64, 127
1, 153742, Control_c, 0, 67, 38
1, 153757, Control_c, 0, 67, 22
1, 153772, Control_c, 0, 67, 10
1, 153787, Control_c, 0, 67, 0
1, 153926, Note_on_c, 0, 78, 59
1, 153950, Note_on_c, 0, 79, 78
1, 153950, Control_c, 0, 64, 118
1, 153954, Note_on_c, 0, 62, 46
1, 153957, Note_on_c, 0, 71, 60
1, 153962, Note_on_c, 0, 65, 50
1, 153965, Control_c, 0, 64, 86
1, 153979, Control_c, 0, 64, 69
1, 153984, Note_off_c, 0, 78, 62
1, 153994, Control_c, 0, 64, 43
1, 154009, Control_c, 0, 64, 0
1, 154025, Control_c, 0, 64, 60
1, 154030, Note_off_c, 0, 71, 55
1, 154040, Control_c, 0, 64, 72
1, 154055, Control_c, 0, 64, 85
1, 154070, Control_c, 0, 64, 100
1, 154073, Note_off_c, 0, 65, 55
1, 154084, Control_c, 0, 64, 121
1, 154089, Note_off_c, 0, 62, 54
1, 154099, Control_c, 0, 64, 127
1, 154188, Control_c, 0, 64, 111
1, 154198, Note_on_c, 0, 81, 88
1, 154203, Control_c, 0, 64, 78
1, 154204, Note_on_c, 0, 63, 55
1, 154212, Note_off_c, 0, 79, 59
1, 154218, Control_c, 0, 64, 61
1, 154219, Note_on_c, 0, 67, 49
1, 154224, Note_on_c, 0, 72, 56
1, 154232, Control_c, 0, 64, 0
1, 154247, Control_c, 0, 64, 53
1, 154264, Note_off_c, 0, 72, 64
1, 154270, Control_c, 0, 64, 70
1, 154284, Control_c, 0, 64, 86
1, 154299, Control_c, 0, 64, 113
1, 154306, Note_off_c, 0, 67, 57
1, 154314, Control_c, 0, 64, 127
1, 154333, Note_off_c, 0, 63, 49
1, 154432, Control_c, 0, 64, 97
1, 154447, Control_c, 0, 64, 73
1, 154462, Control_c, 0, 64, 31
1, 154465, Note_on_c, 0, 83, 87
1, 154471, Note_on_c, 0, 66, 47
1, 154473, Note_on_c, 0, 60, 41
1, 154477, Control_c, 0, 64, 0
1, 154479, Note_off_c, 0, 81, 64
1, 154491, Control_c, 0, 64, 51
1, 154496, Note_on_c, 0, 74, 37
1, 154506, Control_c, 0, 64, 71
1, 154519, Note_off_c, 0, 60, 62
1, 154521, Control_c, 0, 64, 87
1, 154526, Note_off_c, 0, 83, 63
1, 154530, Note_off_c, 0, 74, 55
1, 154536, Control_c, 0, 64, 107
1, 154551, Control_c, 0, 64, 127
1, 154561, Note_off_c, 0, 66, 38
1, 154768, Note_on_c, 0, 59, 29
1, 154774, Note_on_c, 0, 62, 32
1, 154787, Note_on_c, 0, 79, 68
1, 154788, Control_c, 0, 64, 111
1, 154802, Control_c, 0, 64, 84
1, 154811, Note_on_c, 0, 67, 52
1, 154817, Control_c, 0, 64, 66
1, 154833, Control_c, 0, 64, 0
1, 154863, Control_c, 0, 64, 17
1, 154878, Control_c, 0, 64, 64
1, 154893, Control_c, 0, 64, 74
1, 154907, Control_c, 0, 64, 87
1, 154922, Control_c, 0, 64, 101
1, 154937, Control_c, 0, 64, 108
1, 154952, Control_c, 0, 64, 109
1, 154967, Control_c, 0, 64, 113
1, 154981, Control_c, 0, 64, 123
1, 155003, Control_c, 0, 64, 127
1, 155018, Note_off_c, 0, 62, 41
1, 155166, Control_c, 0, 64, 122
1, 155175, Note_on_c, 0, 78, 64
1, 155180, Control_c, 0, 64, 95
1, 155181, Note_on_c, 0, 63, 41
1, 155195, Control_c, 0, 64, 77
1, 155210, Control_c, 0, 64, 63
1, 155225, Control_c, 0, 64, 30
1, 155226, Note_off_c, 0, 79, 53
1, 155239, Control_c, 0, 64, 49
1, 155254, Control_c, 0, 64, 68
1, 155269, Control_c, 0, 64, 80
1, 155283, Note_off_c, 0, 78, 62
1, 155284, Control_c, 0, 64, 93
1, 155291, Note_off_c, 0, 67, 54
1, 155299, Control_c, 0, 64, 106
1, 155311, Note_off_c, 0, 59, 52
1, 155313, Control_c, 0, 64, 114
1, 155315, Note_off_c, 0, 63, 56
1, 155328, Control_c, 0, 64, 127
1, 155637, Note_on_c, 0, 48, 43
1, 155662, Note_on_c, 0, 76, 62
1, 155683, Note_on_c, 0, 70, 35
1, 155700, Control_c, 0, 64, 106
1, 155707, Note_on_c, 0, 64, 36
1, 155715, Control_c, 0, 64, 78
1, 155729, Control_c, 0, 64, 62
1, 155744, Control_c, 0, 64, 0
1, 155781, Control_c, 0, 64, 44
1, 155796, Control_c, 0, 64, 67
1, 155811, Control_c, 0, 64, 77
1, 155826, Control_c, 0, 64, 90
1, 155841, Control_c, 0, 64, 100
1, 155855, Control_c, 0, 64, 106
1, 155871, Control_c, 0, 64, 111
1, 155886, Control_c, 0, 64, 120
1, 155901, Control_c, 0, 64, 127
1, 155924, Note_off_c, 0, 64, 43
1, 155930, Note_off_c, 0, 48, 41
1, 155932, Note_on_c, 0, 58, 37
1, 155996, Note_off_c, 0, 58, 54
1, 155998, Note_off_c, 0, 76, 57
1, 156053, Note_on_c, 0, 60, 46
1, 156158, Note_off_c, 0, 60, 61
1, 156195, Note_on_c, 0, 61, 41
1, 156197, Note_on_c, 0, 75, 61
1, 156246, Note_off_c, 0, 70, 41
1, 156301, Note_off_c, 0, 61, 36
1, 156338, Note_on_c, 0, 62, 49
1, 156352, Note_off_c, 0, 75, 60
1, 156358, Note_on_c, 0, 78, 69
1, 156389, Control_c, 0, 64, 104
1, 156404, Control_c, 0, 64, 80
1, 156419, Control_c, 0, 64, 64
1, 156434, Control_c, 0, 64, 0
1, 156449, Control_c, 0, 64, 42
1, 156464, Control_c, 0, 64, 66
1, 156469, Note_off_c, 0, 62, 54
1, 156479, Control_c, 0, 64, 79
1, 156481, Note_on_c, 0, 63, 51
1, 156494, Control_c, 0, 64, 91
1, 156516, Control_c, 0, 64, 105
1, 156529, Note_off_c, 0, 78, 59
1, 156531, Control_c, 0, 64, 113
1, 156546, Control_c, 0, 64, 118
1, 156560, Control_c, 0, 64, 121
1, 156571, Note_off_c, 0, 63, 52
1, 156575, Control_c, 0, 64, 127
1, 156601, Note_on_c, 0, 64, 53
1, 156639, Note_off_c, 0, 64, 66
1, 156685, Note_on_c, 0, 65, 48
1, 156768, Control_c, 0, 64, 105
1, 156783, Control_c, 0, 64, 83
1, 156783, Note_off_c, 0, 65, 59
1, 156784, Note_on_c, 0, 76, 74
1, 156792, Note_on_c, 0, 66, 55
1, 156798, Control_c, 0, 64, 69
1, 156812, Note_on_c, 0, 70, 48
1, 156812, Control_c, 0, 64, 63
1, 156822, Note_off_c, 0, 66, 65
1, 156827, Control_c, 0, 64, 66
1, 156842, Control_c, 0, 64, 74
1, 156857, Control_c, 0, 64, 85
1, 156860, Note_off_c, 0, 70, 58
1, 156872, Control_c, 0, 64, 99
1, 156886, Control_c, 0, 64, 110
1, 156901, Control_c, 0, 64, 127
1, 156905, Note_on_c, 0, 64, 50
1, 156962, Note_off_c, 0, 64, 57
1, 157019, Note_on_c, 0, 66, 39
1, 157021, Note_on_c, 0, 42, 53
1, 157034, Control_c, 0, 64, 104
1, 157049, Control_c, 0, 64, 78
1, 157064, Control_c, 0, 64, 67
1, 157072, Note_off_c, 0, 76, 59
1, 157076, Note_off_c, 0, 42, 61
1, 157078, Control_c, 0, 64, 66
1, 157093, Control_c, 0, 64, 73
1, 157095, Note_on_c, 0, 73, 51
1, 157108, Control_c, 0, 64, 85
1, 157123, Control_c, 0, 64, 99
1, 157138, Control_c, 0, 64, 114
1, 157153, Control_c, 0, 64, 127
1, 157208, Note_off_c, 0, 66, 23
1, 157238, Note_off_c, 0, 73, 61
1, 157254, Note_on_c, 0, 74, 72
1, 157256, Note_on_c, 0, 47, 60
1, 157285, Note_on_c, 0, 65, 49
1, 157309, Control_c, 0, 64, 101
1, 157324, Control_c, 0, 64, 79
1, 157339, Control_c, 0, 64, 63
1, 157354, Control_c, 0, 64, 0
1, 157355, Note_off_c, 0, 47, 59
1, 157369, Control_c, 0, 64, 49
1, 157373, Note_on_c, 0, 54, 54
1, 157383, Control_c, 0, 64, 67
1, 157398, Control_c, 0, 64, 78
1, 157413, Control_c, 0, 64, 88
1, 157427, Control_c, 0, 64, 96
1, 157442, Control_c, 0, 64, 98
1, 157452, Note_off_c, 0, 54, 61
1, 157457, Control_c, 0, 64, 99
1, 157465, Note_on_c, 0, 58, 66
1, 157472, Control_c, 0, 64, 100
1, 157482, Note_on_c, 0, 66, 69
1, 157486, Note_off_c, 0, 65, 44
1, 157487, Control_c, 0, 64, 103
1, 157501, Control_c, 0, 64, 107
1, 157510, Note_off_c, 0, 58, 58
1, 157513, Note_off_c, 0, 74, 53
1, 157516, Control_c, 0, 64, 111
1, 157531, Control_c, 0, 64, 115
1, 157546, Control_c, 0, 64, 117
1, 157558, Note_on_c, 0, 73, 75
1, 157564, Note_on_c, 0, 59, 62
1, 157577, Note_off_c, 0, 66, 45
1, 157606, Control_c, 0, 64, 113
1, 157611, Note_off_c, 0, 59, 58
1, 157621, Control_c, 0, 64, 99
1, 157635, Control_c, 0, 64, 79
1, 157650, Control_c, 0, 64, 63
1, 157662, Note_on_c, 0, 76, 72
1, 157663, Note_off_c, 0, 73, 60
1, 157665, Control_c, 0, 64, 0
1, 157668, Note_on_c, 0, 61, 58
1, 157695, Note_on_c, 0, 65, 30
1, 157722, Note_off_c, 0, 61, 56
1, 157738, Note_off_c, 0, 65, 50
1, 157764, Note_on_c, 0, 62, 56
1, 157766, Note_on_c, 0, 66, 60
1, 157798, Note_off_c, 0, 62, 63
1, 157826, Note_off_c, 0, 66, 60
1, 157844, Note_on_c, 0, 70, 58
1, 157857, Control_c, 0, 67, 8
1, 157862, Note_on_c, 0, 65, 46
1, 157872, Control_c, 0, 67, 0
1, 157900, Note_off_c, 0, 70, 61
1, 157943, Note_off_c, 0, 65, 56
1, 157954, Note_on_c, 0, 71, 51
1, 157966, Note_on_c, 0, 66, 45
1, 157988, Note_off_c, 0, 71, 56
1, 158056, Note_off_c, 0, 66, 48
1, 158074, Note_on_c, 0, 73, 56
1, 158079, Note_on_c, 0, 70, 47
1, 158085, Note_off_c, 0, 76, 51
1, 158103, Control_c, 0, 64, 42
1, 158118, Control_c, 0, 64, 65
1, 158132, Control_c, 0, 64, 72
1, 158147, Control_c, 0, 64, 76
1, 158151, Note_off_c, 0, 70, 52
1, 158154, Note_off_c, 0, 73, 61
1, 158162, Control_c, 0, 64, 81
1, 158177, Control_c, 0, 64, 85
1, 158192, Control_c, 0, 64, 92
1, 158195, Note_on_c, 0, 74, 55
1, 158206, Control_c, 0, 64, 106
1, 158207, Note_on_c, 0, 71, 26
1, 158221, Control_c, 0, 64, 127
1, 158244, Note_off_c, 0, 71, 53
1, 158297, Note_off_c, 0, 74, 58
1, 158309, Note_on_c, 0, 78, 40
1, 158383, Note_on_c, 0, 83, 64
1, 158410, Note_off_c, 0, 83, 66
1, 158410, Note_off_c, 0, 78, 45
1, 158551, Note_on_c, 0, 45, 61
1, 158586, Note_on_c, 0, 72, 69
1, 158598, Note_on_c, 0, 64, 59
1, 158606, Control_c, 0, 64, 126
1, 158621, Control_c, 0, 64, 89
1, 158636, Control_c, 0, 64, 68
1, 158650, Control_c, 0, 64, 0
1, 158680, Note_off_c, 0, 64, 46
1, 158693, Note_on_c, 0, 63, 66
1, 158695, Control_c, 0, 64, 62
1, 158710, Control_c, 0, 64, 72
1, 158718, Note_off_c, 0, 72, 60
1, 158724, Control_c, 0, 64, 82
1, 158739, Control_c, 0, 64, 92
1, 158762, Control_c, 0, 64, 96
1, 158773, Note_off_c, 0, 63, 59
1, 158776, Control_c, 0, 64, 92
1, 158791, Control_c, 0, 64, 79
1, 158800, Note_on_c, 0, 72, 81
1, 158806, Control_c, 0, 64, 67
1, 158809, Note_on_c, 0, 52, 66
1, 158816, Note_on_c, 0, 64, 59
1, 158822, Control_c, 0, 64, 61
1, 158837, Control_c, 0, 64, 66
1, 158852, Control_c, 0, 64, 78
1, 158866, Control_c, 0, 64, 95
1, 158869, Note_off_c, 0, 64, 52
1, 158880, Control_c, 0, 64, 127
1, 158893, Note_off_c, 0, 72, 61
1, 158894, Note_on_c, 0, 65, 73
1, 158954, Control_c, 0, 64, 92
1, 158969, Control_c, 0, 64, 65
1, 158984, Control_c, 0, 64, 0
1, 158986, Note_on_c, 0, 71, 87
1, 158988, Note_on_c, 0, 56, 74
1, 158992, Note_off_c, 0, 65, 63
1, 159014, Control_c, 0, 64, 56
1, 159017, Note_off_c, 0, 56, 68
1, 159020, Note_off_c, 0, 52, 62
1, 159028, Control_c, 0, 64, 81
1, 159039, Note_off_c, 0, 45, 65
1, 159043, Control_c, 0, 64, 127
1, 159076, Note_on_c, 0, 62, 73
1, 159077, Note_off_c, 0, 71, 63
1, 159132, Note_off_c, 0, 62, 57
1, 159147, Control_c, 0, 64, 78
1, 159162, Control_c, 0, 64, 59
1, 159176, Note_on_c, 0, 38, 76
1, 159177, Control_c, 0, 64, 56
1, 159178, Note_on_c, 0, 72, 86
1, 159191, Control_c, 0, 64, 69
1, 159206, Control_c, 0, 64, 85
1, 159209, Note_off_c, 0, 38, 66
1, 159221, Control_c, 0, 64, 116
1, 159236, Control_c, 0, 64, 127
1, 159279, Note_on_c, 0, 66, 71
1, 159289, Note_off_c, 0, 72, 61
1, 159344, Note_off_c, 0, 66, 60
1, 159354, Control_c, 0, 64, 89
1, 159369, Control_c, 0, 64, 57
1, 159382, Note_on_c, 0, 74, 90
1, 159384, Control_c, 0, 64, 0
1, 159393, Note_on_c, 0, 64, 71
1, 159395, Note_on_c, 0, 60, 53
1, 159409, Note_on_c, 0, 59, 60
1, 159421, Note_off_c, 0, 64, 63
1, 159428, Control_c, 0, 64, 68
1, 159443, Control_c, 0, 64, 88
1, 159450, Note_off_c, 0, 59, 50
1, 159457, Note_off_c, 0, 60, 51
1, 159458, Control_c, 0, 64, 127
1, 159484, Note_off_c, 0, 74, 62
1, 159491, Note_on_c, 0, 66, 73
1, 159568, Note_off_c, 0, 66, 61
1, 159585, Note_on_c, 0, 50, 63
1, 159596, Note_on_c, 0, 62, 77
1, 159614, Note_off_c, 0, 50, 67
1, 159653, Note_off_c, 0, 62, 59
1, 159683, Note_on_c, 0, 72, 78
1, 159689, Note_on_c, 0, 66, 78
1, 159732, Note_off_c, 0, 72, 62
1, 159736, Note_off_c, 0, 66, 62
1, 159792, Control_c, 0, 64, 96
1, 159799, Note_on_c, 0, 43, 85
1, 159803, Note_on_c, 0, 71, 85
1, 159806, Note_on_c, 0, 67, 79
1, 159807, Control_c, 0, 64, 59
1, 159821, Control_c, 0, 64, 0
1, 159851, Control_c, 0, 64, 59
1, 159866, Control_c, 0, 64, 73
1, 159881, Control_c, 0, 64, 82
1, 159890, Note_off_c, 0, 71, 59
1, 159895, Note_off_c, 0, 67, 62
1, 159895, Control_c, 0, 64, 91
1, 159904, Note_on_c, 0, 62, 78
1, 159906, Note_off_c, 0, 43, 58
1, 159910, Control_c, 0, 64, 98
1, 159925, Control_c, 0, 64, 104
1, 159937, Note_off_c, 0, 62, 61
1, 159940, Control_c, 0, 64, 113
1, 159955, Control_c, 0, 64, 127
1, 159981, Note_on_c, 0, 50, 80
1, 159990, Note_on_c, 0, 59, 75
1, 160010, Note_on_c, 0, 67, 81
1, 160094, Note_off_c, 0, 59, 57
1, 160097, Note_on_c, 0, 60, 79
1, 160111, Note_off_c, 0, 67, 59
1, 160144, Note_off_c, 0, 50, 63
1, 160163, Note_off_c, 0, 60, 64
1, 160166, Note_on_c, 0, 61, 84
1, 160181, Note_on_c, 0, 55, 90
1, 160205, Note_off_c, 0, 61, 59
1, 160248, Note_on_c, 0, 62, 86
1, 160250, Note_off_c, 0, 55, 64
1, 160312, Note_off_c, 0, 62, 57
1, 160336, Note_on_c, 0, 67, 87
1, 160339, Note_on_c, 0, 59, 93
1, 160381, Note_off_c, 0, 59, 66
1, 160409, Note_on_c, 0, 71, 84
1, 160410, Note_off_c, 0, 67, 60
1, 160448, Note_off_c, 0, 71, 67
1, 160512, Control_c, 0, 64, 74
1, 160521, Note_on_c, 0, 65, 98
1, 160526, Control_c, 0, 64, 0
1, 160528, Note_on_c, 0, 75, 91
1, 160534, Note_on_c, 0, 55, 83
1, 160571, Control_c, 0, 64, 65
1, 160586, Control_c, 0, 64, 85
1, 160588, Note_off_c, 0, 65, 54
1, 160600, Control_c, 0, 64, 127
1, 160617, Note_on_c, 0, 79, 88
1, 160631, Note_off_c, 0, 75, 61
1, 160637, Note_off_c, 0, 55, 63
1, 160700, Note_on_c, 0, 83, 85
1, 160712, Note_off_c, 0, 79, 60
1, 160794, Note_on_c, 0, 87, 94
1, 160799, Note_off_c, 0, 83, 67
1, 160873, Note_off_c, 0, 87, 62
1, 160985, Control_c, 0, 64, 81
1, 160998, Note_on_c, 0, 36, 95
1, 161007, Control_c, 0, 64, 0
1, 161016, Note_on_c, 0, 88, 99
1, 161019, Note_on_c, 0, 76, 97
1, 161022, Note_on_c, 0, 82, 87
1, 161066, Control_c, 0, 64, 73
1, 161081, Control_c, 0, 64, 112
1, 161096, Control_c, 0, 64, 127
1, 161159, Note_off_c, 0, 36, 60
1, 161173, Note_on_c, 0, 48, 77
1, 161179, Note_off_c, 0, 88, 58
1, 161203, Note_off_c, 0, 76, 56
1, 161204, Note_off_c, 0, 48, 66
1, 161230, Note_off_c, 0, 82, 63
1, 161281, Note_on_c, 0, 88, 97
1, 161284, Note_on_c, 0, 76, 96
1, 161286, Note_on_c, 0, 82, 82
1, 161306, Note_on_c, 0, 48, 71
1, 161338, Note_off_c, 0, 76, 61
1, 161355, Note_off_c, 0, 48, 56
1, 161371, Note_off_c, 0, 88, 58
1, 161371, Note_off_c, 0, 82, 62
1, 161423, Note_on_c, 0, 57, 48
1, 161451, Note_off_c, 0, 57, 56
1, 161502, Note_on_c, 0, 64, 79
1, 161526, Note_off_c, 0, 64, 67
1, 161567, Note_on_c, 0, 87, 98
1, 161570, Note_on_c, 0, 75, 80
1, 161589, Note_off_c, 0, 75, 70
1, 161635, Note_off_c, 0, 87, 63
1, 161645, Control_c, 0, 64, 112
1, 161660, Control_c, 0, 64, 69
1, 161663, Note_on_c, 0, 42, 82
1, 161673, Note_on_c, 0, 90, 98
1, 161675, Control_c, 0, 64, 0
1, 161680, Note_on_c, 0, 82, 93
1, 161686, Note_on_c, 0, 78, 80
1, 161719, Control_c, 0, 64, 58
1, 161734, Control_c, 0, 64, 85
1, 161746, Note_off_c, 0, 82, 61
1, 161752, Note_off_c, 0, 90, 64
1, 161753, Note_off_c, 0, 78, 59
1, 161756, Control_c, 0, 64, 127
1, 161770, Note_off_c, 0, 42, 60
1, 161789, Note_on_c, 0, 49, 53
1, 161876, Note_on_c, 0, 58, 69
1, 161883, Note_off_c, 0, 49, 57
1, 161908, Note_on_c, 0, 88, 92
1, 161911, Note_on_c, 0, 76, 91
1, 161912, Note_off_c, 0, 58, 62
1, 161913, Note_on_c, 0, 82, 85
1, 162005, Note_on_c, 0, 54, 45
1, 162051, Note_off_c, 0, 54, 61
1, 162098, Note_off_c, 0, 88, 49
1, 162107, Note_on_c, 0, 64, 92
1, 162110, Note_on_c, 0, 58, 83
1, 162143, Note_off_c, 0, 64, 68
1, 162148, Note_off_c, 0, 58, 60
1, 162161, Note_off_c, 0, 76, 60
1, 162348, Note_on_c, 0, 35, 88
1, 162350, Control_c, 0, 64, 115
1, 162360, Note_off_c, 0, 82, 40
1, 162364, Control_c, 0, 64, 69
1, 162379, Control_c, 0, 64, 0
1, 162395, Note_on_c, 0, 74, 97
1, 162395, Note_on_c, 0, 86, 96
1, 162396, Note_on_c, 0, 78, 92
1, 162438, Control_c, 0, 64, 78
1, 162453, Note_off_c, 0, 35, 66
1, 162453, Control_c, 0, 64, 118
1, 162468, Control_c, 0, 64, 127
1, 162485, Note_off_c, 0, 74, 61
1, 162485, Note_off_c, 0, 86, 62
1, 162504, Note_on_c, 0, 47, 50
1, 162524, Note_off_c, 0, 78, 60
1, 162530, Note_off_c, 0, 47, 59
1, 162596, Note_on_c, 0, 74, 98
1, 162597, Note_on_c, 0, 86, 96
1, 162603, Note_on_c, 0, 78, 92
1, 162620, Note_on_c, 0, 52, 51
1, 162632, Note_on_c, 0, 53, 42
1, 162639, Note_off_c, 0, 74, 63
1, 162648, Note_off_c, 0, 52, 57
1, 162664, Note_off_c, 0, 53, 56
1, 162666, Note_off_c, 0, 78, 56
1, 162672, Note_off_c, 0, 86, 63
1, 162692, Note_on_c, 0, 54, 65
1, 162730, Note_on_c, 0, 62, 75
1, 162733, Note_on_c, 0, 59, 64
1, 162755, Note_off_c, 0, 54, 64
1, 162755, Note_off_c, 0, 62, 67
1, 162764, Note_off_c, 0, 59, 65
1, 162838, Note_on_c, 0, 85, 88
1, 162840, Note_on_c, 0, 73, 88
1, 162882, Note_off_c, 0, 73, 63
1, 162882, Note_off_c, 0, 85, 64
1, 162906, Control_c, 0, 64, 90
1, 162918, Note_on_c, 0, 44, 83
1, 162921, Control_c, 0, 64, 0
1, 162925, Note_on_c, 0, 83, 76
1, 162934, Note_on_c, 0, 88, 99
1, 162939, Note_on_c, 0, 76, 85
1, 162972, Note_on_c, 0, 85, 22
1, 162995, Control_c, 0, 64, 60
1, 162995, Note_off_c, 0, 88, 63
1, 163002, Note_off_c, 0, 44, 63
1, 163008, Note_off_c, 0, 76, 58
1, 163010, Control_c, 0, 64, 90
1, 163014, Note_off_c, 0, 83, 61
1, 163014, Note_off_c, 0, 85, 43
1, 163025, Control_c, 0, 64, 127
1, 163034, Note_on_c, 0, 52, 65
1, 163099, Note_on_c, 0, 59, 60
1, 163108, Note_off_c, 0, 52, 62
1, 163154, Note_off_c, 0, 59, 60
1, 163164, Note_on_c, 0, 86, 97
1, 163168, Note_on_c, 0, 74, 90
1, 163202, Note_on_c, 0, 53, 65
1, 163284, Note_off_c, 0, 53, 61
1, 163326, Note_on_c, 0, 62, 68
1, 163330, Note_on_c, 0, 56, 67
1, 163335, Note_off_c, 0, 86, 57
1, 163354, Note_off_c, 0, 62, 65
1, 163365, Note_off_c, 0, 56, 66
1, 163395, Note_off_c, 0, 74, 59
1, 163560, Note_on_c, 0, 45, 81
1, 163594, Control_c, 0, 64, 89
1, 163608, Note_on_c, 0, 84, 92
1, 163609, Control_c, 0, 64, 49
1, 163613, Note_on_c, 0, 72, 84
1, 163617, Note_on_c, 0, 76, 83
1, 163625, Control_c, 0, 64, 0
1, 163669, Control_c, 0, 64, 68
1, 163684, Control_c, 0, 64, 93
1, 163699, Control_c, 0, 64, 127
1, 163706, Note_off_c, 0, 45, 61
1, 163713, Note_on_c, 0, 52, 79
1, 163722, Note_off_c, 0, 84, 61
1, 163729, Note_off_c, 0, 72, 57
1, 163764, Note_off_c, 0, 52, 60
1, 163795, Note_on_c, 0, 60, 79
1, 163800, Note_off_c, 0, 76, 59
1, 163819, Note_on_c, 0, 84, 90
1, 163821, Note_on_c, 0, 72, 89
1, 163837, Note_off_c, 0, 60, 62
1, 163892, Note_on_c, 0, 57, 74
1, 163905, Note_off_c, 0, 72, 56
1, 163906, Note_off_c, 0, 84, 57
1, 163945, Note_off_c, 0, 57, 57
1, 163995, Note_on_c, 0, 60, 75
1, 163995, Note_on_c, 0, 75, 78
1, 163996, Note_on_c, 0, 67, 74
1, 164019, Note_off_c, 0, 67, 68
1, 164039, Note_off_c, 0, 60, 60
1, 164050, Note_off_c, 0, 75, 63
1, 164078, Note_on_c, 0, 83, 91
1, 164085, Note_on_c, 0, 71, 81
1, 164117, Note_off_c, 0, 71, 63
1, 164128, Note_off_c, 0, 83, 65
1, 164166, Control_c, 0, 64, 110
1, 164181, Control_c, 0, 64, 72
1, 164187, Note_on_c, 0, 38, 88
1, 164187, Note_on_c, 0, 84, 99
1, 164188, Note_on_c, 0, 74, 93
1, 164193, Note_on_c, 0, 72, 79
1, 164195, Control_c, 0, 64, 0
1, 164240, Control_c, 0, 64, 61
1, 164255, Control_c, 0, 64, 76
1, 164262, Note_off_c, 0, 38, 63
1, 164269, Control_c, 0, 64, 94
1, 164271, Note_off_c, 0, 72, 62
1, 164284, Control_c, 0, 64, 127
1, 164292, Note_on_c, 0, 50, 68
1, 164293, Note_off_c, 0, 74, 60
1, 164307, Note_off_c, 0, 84, 60
1, 164322, Note_off_c, 0, 50, 67
1, 164399, Note_on_c, 0, 74, 98
1, 164399, Note_on_c, 0, 86, 100
1, 164410, Note_on_c, 0, 54, 71
1, 164483, Note_off_c, 0, 54, 58
1, 164509, Note_on_c, 0, 62, 73
1, 164523, Note_off_c, 0, 86, 59
1, 164575, Note_off_c, 0, 74, 60
1, 164603, Note_on_c, 0, 66, 92
1, 164625, Note_off_c, 0, 62, 60
1, 164634, Note_off_c, 0, 66, 62
1, 164703, Note_on_c, 0, 72, 90
1, 164703, Note_on_c, 0, 84, 83
1, 164755, Note_off_c, 0, 84, 63
1, 164765, Note_off_c, 0, 72, 59
1, 164876, Note_on_c, 0, 43, 82
1, 164886, Control_c, 0, 64, 90
1, 164900, Control_c, 0, 64, 62
1, 164903, Note_on_c, 0, 73, 85
1, 164903, Note_on_c, 0, 83, 80
1, 164906, Note_on_c, 0, 71, 85
1, 164915, Control_c, 0, 64, 0
1, 164921, Note_on_c, 0, 81, 65
1, 164945, Control_c, 0, 64, 59
1, 164946, Note_off_c, 0, 81, 53
1, 164960, Control_c, 0, 64, 74
1, 164962, Note_off_c, 0, 43, 56
1, 164965, Note_off_c, 0, 83, 59
1, 164974, Control_c, 0, 64, 92
1, 164978, Note_off_c, 0, 73, 62
1, 164989, Control_c, 0, 64, 127
1, 164990, Note_off_c, 0, 71, 55
1, 165033, Note_on_c, 0, 74, 79
1, 165047, Note_on_c, 0, 59, 63
1, 165085, Note_off_c, 0, 59, 58
1, 165094, Note_off_c, 0, 74, 62
1, 165134, Note_on_c, 0, 67, 81
1, 165134, Note_on_c, 0, 76, 79
1, 165136, Note_on_c, 0, 79, 83
1, 165138, Note_on_c, 0, 50, 73
1, 165195, Note_off_c, 0, 79, 56
1, 165197, Note_off_c, 0, 67, 53
1, 165213, Note_off_c, 0, 76, 58
1, 165230, Note_on_c, 0, 74, 70
1, 165235, Note_on_c, 0, 59, 71
1, 165248, Note_off_c, 0, 74, 68
1, 165262, Note_off_c, 0, 59, 63
1, 165332, Note_on_c, 0, 55, 71
1, 165332, Note_on_c, 0, 70, 81
1, 165355, Note_on_c, 0, 66, 58
1, 165382, Note_off_c, 0, 66, 56
1, 165392, Note_off_c, 0, 70, 58
1, 165422, Note_on_c, 0, 71, 77
1, 165423, Note_on_c, 0, 62, 51
1, 165436, Note_on_c, 0, 67, 70
1, 165440, Note_off_c, 0, 55, 56
1, 165447, Note_off_c, 0, 50, 0
1, 165447, Note_off_c, 0, 62, 58
1, 165451, Note_off_c, 0, 71, 63
1, 165466, Note_off_c, 0, 67, 64
1, 165492, Poly_aftertouch_c, 0, 50, 127
1, 165546, Control_c, 0, 64, 77
1, 165554, Note_on_c, 0, 43, 68
1, 165561, Control_c, 0, 64, 0
1, 165562, Note_on_c, 0, 61, 75
1, 165566, Note_on_c, 0, 66, 72
1, 165567, Poly_aftertouch_c, 0, 50, 0
1, 165603, Note_off_c, 0, 43, 55
1, 165604, Control_c, 0, 64, 56
1, 165619, Control_c, 0, 64, 74
1, 165633, Note_off_c, 0, 61, 58
1, 165634, Control_c, 0, 64, 91
1, 165643, Note_off_c, 0, 66, 62
1, 165648, Control_c, 0, 64, 127
1, 165650, Note_on_c, 0, 67, 76
1, 165672, Note_on_c, 0, 62, 59
1, 165678, Note_off_c, 0, 67, 64
1, 165678, Note_on_c, 0, 59, 65
1, 165696, Note_off_c, 0, 62, 64
1, 165716, Note_off_c, 0, 59, 59
1, 165767, Control_c, 0, 64, 102
1, 165780, Note_on_c, 0, 50, 64
1, 165780, Note_on_c, 0, 70, 76
1, 165782, Control_c, 0, 64, 75
1, 165782, Note_on_c, 0, 66, 74
1, 165797, Control_c, 0, 64, 62
1, 165812, Control_c, 0, 64, 68
1, 165827, Control_c, 0, 64, 83
1, 165841, Control_c, 0, 64, 127
1, 165851, Note_off_c, 0, 66, 56
1, 165863, Note_off_c, 0, 70, 50
1, 165894, Note_on_c, 0, 59, 55
1, 165894, Note_on_c, 0, 71, 77
1, 165907, Note_on_c, 0, 67, 61
1, 165921, Note_off_c, 0, 59, 61
1, 165922, Note_off_c, 0, 71, 64
1, 165935, Note_off_c, 0, 67, 62
1, 166020, Control_c, 0, 64, 83
1, 166028, Note_on_c, 0, 73, 78
1, 166035, Note_on_c, 0, 43, 59
1, 166035, Control_c, 0, 64, 53
1, 166045, Note_on_c, 0, 70, 62
1, 166050, Control_c, 0, 64, 0
1, 166079, Control_c, 0, 64, 48
1, 166094, Control_c, 0, 64, 75
1, 166099, Note_off_c, 0, 70, 51
1, 166100, Note_off_c, 0, 43, 60
1, 166109, Control_c, 0, 64, 92
1, 166124, Control_c, 0, 64, 118
1, 166133, Note_off_c, 0, 50, 47
1, 166138, Control_c, 0, 64, 127
1, 166164, Note_off_c, 0, 73, 54
1, 166176, Note_on_c, 0, 74, 81
1, 166181, Note_on_c, 0, 59, 61
1, 166220, Note_off_c, 0, 59, 56
1, 166417, Note_on_c, 0, 48, 61
1, 166456, Note_off_c, 0, 74, 68
1, 166457, Control_c, 0, 64, 119
1, 166460, Note_on_c, 0, 75, 86
1, 166471, Control_c, 0, 64, 95
1, 166486, Control_c, 0, 64, 77
1, 166497, Note_on_c, 0, 70, 38
1, 166501, Control_c, 0, 64, 57
1, 166507, Note_on_c, 0, 67, 35
1, 166516, Control_c, 0, 64, 0
1, 166554, Note_off_c, 0, 70, 38
1, 166590, Control_c, 0, 64, 57
1, 166605, Control_c, 0, 64, 75
1, 166620, Control_c, 0, 64, 88
1, 166630, Note_off_c, 0, 48, 59
1, 166635, Control_c, 0, 64, 97
1, 166650, Control_c, 0, 64, 99
1, 166664, Control_c, 0, 64, 104
1, 166665, Note_off_c, 0, 67, 43
1, 166674, Note_on_c, 0, 55, 40
1, 166679, Control_c, 0, 64, 116
1, 166694, Control_c, 0, 64, 127
1, 166717, Note_off_c, 0, 75, 53
1, 166774, Note_off_c, 0, 55, 60
1, 166849, Note_on_c, 0, 63, 57
1, 166931, Note_on_c, 0, 75, 82
1, 166938, Note_off_c, 0, 63, 49
1, 167054, Note_on_c, 0, 58, 45
1, 167171, Note_off_c, 0, 58, 37
1, 167185, Note_on_c, 0, 66, 63
1, 167247, Note_off_c, 0, 66, 58
1, 167267, Note_on_c, 0, 67, 68
1, 167293, Note_off_c, 0, 67, 66
1, 167302, Note_on_c, 0, 74, 86
1, 167323, Note_off_c, 0, 75, 40
1, 167429, Note_on_c, 0, 48, 60
1, 167443, Note_off_c, 0, 74, 64
1, 167451, Note_on_c, 0, 77, 75
1, 167458, Control_c, 0, 64, 90
1, 167465, Note_on_c, 0, 70, 66
1, 167472, Control_c, 0, 64, 69
1, 167487, Control_c, 0, 64, 0
1, 167517, Note_off_c, 0, 77, 62
1, 167536, Note_off_c, 0, 70, 61
1, 167555, Note_on_c, 0, 53, 45
1, 167575, Note_on_c, 0, 69, 62
1, 167606, Note_off_c, 0, 69, 65
1, 167607, Note_off_c, 0, 48, 58
1, 167660, Note_off_c, 0, 53, 65
1, 167666, Control_c, 0, 64, 40
1, 167672, Note_on_c, 0, 75, 69
1, 167674, Note_on_c, 0, 63, 52
1, 167678, Note_on_c, 0, 68, 50
1, 167681, Control_c, 0, 64, 71
1, 167696, Control_c, 0, 64, 80
1, 167705, Note_off_c, 0, 63, 64
1, 167707, Note_off_c, 0, 68, 60
1, 167710, Control_c, 0, 64, 90
1, 167722, Note_on_c, 0, 67, 59
1, 167725, Control_c, 0, 64, 97
1, 167747, Control_c, 0, 64, 108
1, 167762, Control_c, 0, 64, 127
1, 167771, Note_off_c, 0, 67, 53
1, 167821, Note_on_c, 0, 57, 53
1, 167830, Note_off_c, 0, 75, 38
1, 167866, Note_off_c, 0, 57, 57
1, 167929, Note_on_c, 0, 66, 59
1, 168026, Note_off_c, 0, 66, 52
1, 168035, Note_on_c, 0, 67, 52
1, 168057, Note_off_c, 0, 67, 61
1, 168176, Control_c, 0, 64, 99
1, 168185, Note_on_c, 0, 74, 84
1, 168191, Control_c, 0, 64, 74
1, 168200, Note_on_c, 0, 46, 58
1, 168206, Control_c, 0, 64, 0
1, 168223, Note_on_c, 0, 68, 42
1, 168250, Control_c, 0, 64, 34
1, 168265, Control_c, 0, 64, 67
1, 168280, Control_c, 0, 64, 79
1, 168295, Control_c, 0, 64, 90
1, 168299, Note_off_c, 0, 46, 61
1, 168310, Control_c, 0, 64, 98
1, 168325, Control_c, 0, 64, 104
1, 168325, Note_on_c, 0, 53, 54
1, 168340, Control_c, 0, 64, 113
1, 168349, Note_off_c, 0, 68, 38
1, 168355, Note_off_c, 0, 53, 64
1, 168355, Control_c, 0, 64, 127
1, 168370, Note_off_c, 0, 74, 60
1, 168441, Note_on_c, 0, 62, 54
1, 168458, Note_on_c, 0, 74, 79
1, 168500, Note_off_c, 0, 62, 55
1, 168572, Note_on_c, 0, 56, 49
1, 168636, Note_off_c, 0, 56, 52
1, 168698, Note_on_c, 0, 64, 44
1, 168742, Note_off_c, 0, 64, 53
1, 168834, Note_on_c, 0, 65, 25
1, 168853, Note_off_c, 0, 74, 61
1, 168859, Note_on_c, 0, 73, 68
1, 168873, Note_off_c, 0, 65, 52
1, 169000, Control_c, 0, 64, 112
1, 169015, Control_c, 0, 64, 89
1, 169028, Note_off_c, 0, 73, 61
1, 169030, Control_c, 0, 64, 70
1, 169045, Control_c, 0, 64, 47
1, 169051, Note_on_c, 0, 76, 56
1, 169052, Note_on_c, 0, 68, 45
1, 169052, Note_on_c, 0, 47, 43
1, 169059, Control_c, 0, 64, 0
1, 169074, Control_c, 0, 67, 9
1, 169089, Control_c, 0, 67, 12
1, 169104, Control_c, 0, 67, 16
1, 169118, Control_c, 0, 67, 20
1, 169124, Note_off_c, 0, 76, 51
1, 169133, Control_c, 0, 67, 24
1, 169144, Note_off_c, 0, 68, 56
1, 169148, Control_c, 0, 67, 27
1, 169163, Control_c, 0, 67, 27
1, 169178, Control_c, 0, 67, 28
1, 169192, Control_c, 0, 67, 27
1, 169195, Note_on_c, 0, 67, 26
1, 169208, Control_c, 0, 67, 26
1, 169213, Note_on_c, 0, 52, 38
1, 169223, Control_c, 0, 67, 25
1, 169240, Note_off_c, 0, 67, 54
1, 169246, Control_c, 0, 67, 25
1, 169276, Control_c, 0, 67, 24
1, 169290, Control_c, 0, 67, 23
1, 169305, Control_c, 0, 67, 23
1, 169320, Control_c, 0, 67, 22
1, 169335, Control_c, 0, 67, 21
1, 169350, Control_c, 0, 67, 21
1, 169350, Note_on_c, 0, 74, 58
1, 169364, Control_c, 0, 67, 20
1, 169383, Note_on_c, 0, 56, 47
1, 169389, Note_on_c, 0, 65, 45
1, 169394, Control_c, 0, 64, 26
1, 169408, Control_c, 0, 64, 66
1, 169411, Note_off_c, 0, 47, 59
1, 169423, Note_off_c, 0, 52, 52
1, 169423, Control_c, 0, 64, 78
1, 169434, Note_off_c, 0, 56, 61
1, 169438, Control_c, 0, 64, 91
1, 169453, Control_c, 0, 64, 106
1, 169468, Control_c, 0, 64, 126
1, 169482, Control_c, 0, 64, 127
1, 169496, Note_off_c, 0, 74, 60
1, 169515, Note_off_c, 0, 65, 31
1, 169571, Control_c, 0, 67, 20
1, 169572, Note_on_c, 0, 61, 38
1, 169586, Control_c, 0, 67, 19
1, 169601, Control_c, 0, 67, 19
1, 169627, Note_off_c, 0, 61, 45
1, 169631, Control_c, 0, 67, 18
1, 169646, Control_c, 0, 67, 18
1, 169660, Control_c, 0, 67, 17
1, 169675, Control_c, 0, 67, 17
1, 169705, Control_c, 0, 67, 16
1, 169708, Note_on_c, 0, 62, 21
1, 169720, Control_c, 0, 67, 16
1, 169734, Control_c, 0, 67, 15
1, 169749, Control_c, 0, 67, 14
1, 169764, Control_c, 0, 67, 12
1, 169779, Control_c, 0, 67, 10
1, 169794, Control_c, 0, 67, 8
1, 169808, Control_c, 0, 67, 0
1, 169825, Note_off_c, 0, 62, 35
1, 169845, Note_on_c, 0, 64, 24
1, 169884, Note_off_c, 0, 64, 53
1, 170087, Note_on_c, 0, 45, 39
1, 170098, Control_c, 0, 64, 117
1, 170099, Note_on_c, 0, 73, 58
1, 170112, Control_c, 0, 64, 92
1, 170118, Note_on_c, 0, 67, 41
1, 170127, Control_c, 0, 64, 74
1, 170138, Note_on_c, 0, 65, 28
1, 170142, Control_c, 0, 64, 60
1, 170146, Note_on_c, 0, 61, 36
1, 170156, Control_c, 0, 64, 0
1, 170201, Control_c, 0, 64, 50
1, 170216, Control_c, 0, 64, 68
1, 170230, Control_c, 0, 64, 79
1, 170245, Control_c, 0, 64, 93
1, 170260, Control_c, 0, 64, 111
1, 170271, Note_off_c, 0, 65, 51
1, 170274, Note_off_c, 0, 61, 52
1, 170275, Control_c, 0, 64, 127
1, 170292, Note_off_c, 0, 67, 41
1, 170302, Note_off_c, 0, 45, 39
1, 170307, Note_off_c, 0, 73, 62
1, 170343, Note_on_c, 0, 55, 41
1, 170514, Note_off_c, 0, 55, 41
1, 170559, Note_on_c, 0, 54, 40
1, 170579, Note_on_c, 0, 81, 67
1, 170601, Note_on_c, 0, 69, 50
1, 170746, Note_off_c, 0, 81, 57
1, 170756, Note_off_c, 0, 69, 57
1, 170763, Note_on_c, 0, 55, 45
1, 170854, Note_off_c, 0, 55, 44
1, 170886, Note_off_c, 0, 54, 35
1, 170903, Note_on_c, 0, 57, 47
1, 171007, Note_off_c, 0, 57, 34
1, 171016, Note_on_c, 0, 55, 45
1, 171020, Note_on_c, 0, 83, 65
1, 171027, Note_on_c, 0, 71, 56
1, 171045, Note_off_c, 0, 55, 53
1, 171066, Note_off_c, 0, 71, 60
1, 171079, Note_off_c, 0, 83, 55
1, 171197, Note_on_c, 0, 84, 63
1, 171206, Note_on_c, 0, 38, 51
1, 171208, Note_on_c, 0, 78, 60
1, 171213, Note_on_c, 0, 72, 51
1, 171216, Control_c, 0, 64, 92
1, 171231, Control_c, 0, 64, 72
1, 171246, Control_c, 0, 64, 52
1, 171261, Control_c, 0, 64, 0
1, 171276, Control_c, 0, 64, 50
1, 171291, Control_c, 0, 64, 66
1, 171306, Control_c, 0, 64, 76
1, 171315, Note_off_c, 0, 84, 59
1, 171316, Note_off_c, 0, 72, 58
1, 171321, Control_c, 0, 64, 90
1, 171321, Note_off_c, 0, 38, 56
1, 171335, Control_c, 0, 64, 104
1, 171342, Note_on_c, 0, 50, 67
1, 171350, Control_c, 0, 64, 122
1, 171365, Control_c, 0, 64, 127
1, 171370, Note_off_c, 0, 50, 67
1, 171485, Note_on_c, 0, 86, 79
1, 171496, Note_on_c, 0, 74, 65
1, 171506, Note_on_c, 0, 54, 51
1, 171596, Note_off_c, 0, 86, 60
1, 171604, Note_off_c, 0, 74, 58
1, 171616, Note_on_c, 0, 60, 63
1, 171750, Note_on_c, 0, 62, 62
1, 171768, Note_off_c, 0, 60, 56
1, 171866, Note_off_c, 0, 78, 62
1, 171881, Note_on_c, 0, 72, 68
1, 171881, Note_on_c, 0, 84, 64
1, 171883, Note_on_c, 0, 63, 64
1, 171884, Note_off_c, 0, 62, 59
1, 171907, Note_off_c, 0, 84, 66
1, 171908, Note_off_c, 0, 72, 65
1, 171994, Note_off_c, 0, 63, 37
1, 172077, Note_on_c, 0, 61, 65
1, 172096, Note_on_c, 0, 82, 79
1, 172099, Control_c, 0, 64, 103
1, 172106, Note_on_c, 0, 79, 58
1, 172114, Control_c, 0, 64, 75
1, 172123, Note_on_c, 0, 70, 53
1, 172123, Note_on_c, 0, 74, 49
1, 172128, Control_c, 0, 64, 44
1, 172143, Control_c, 0, 64, 0
1, 172154, Note_off_c, 0, 54, 22
1, 172173, Control_c, 0, 64, 67
1, 172188, Control_c, 0, 64, 80
1, 172202, Control_c, 0, 64, 95
1, 172217, Control_c, 0, 64, 120
1, 172239, Control_c, 0, 64, 127
1, 172240, Note_off_c, 0, 79, 59
1, 172254, Note_off_c, 0, 82, 61
1, 172265, Note_off_c, 0, 70, 63
1, 172314, Note_on_c, 0, 62, 64
1, 172334, Note_off_c, 0, 74, 34
1, 172409, Note_off_c, 0, 61, 28
1, 172450, Note_off_c, 0, 62, 52
1, 172456, Note_on_c, 0, 79, 84
1, 172459, Note_on_c, 0, 67, 73
1, 172462, Note_on_c, 0, 63, 63
1, 172541, Note_off_c, 0, 63, 59
1, 172541, Note_off_c, 0, 67, 56
1, 172577, Note_on_c, 0, 62, 69
1, 172577, Note_off_c, 0, 79, 55
1, 172705, Note_on_c, 0, 81, 85
1, 172713, Note_on_c, 0, 58, 67
1, 172713, Note_on_c, 0, 69, 76
1, 172730, Note_off_c, 0, 62, 30
1, 172768, Note_off_c, 0, 69, 62
1, 172789, Note_off_c, 0, 81, 62
1, 172828, Poly_aftertouch_c, 0, 71, 0
1, 172832, Note_off_c, 0, 58, 58
1, 172841, Note_on_c, 0, 50, 63
1, 172873, Note_off_c, 0, 50, 67
1, 172965, Control_c, 0, 64, 121
1, 172987, Note_on_c, 0, 82, 92
1, 172987, Control_c, 0, 64, 84
1, 172991, Note_on_c, 0, 70, 84
1, 172996, Note_on_c, 0, 74, 74
1, 172997, Note_on_c, 0, 43, 66
1, 173002, Control_c, 0, 64, 64
1, 173017, Control_c, 0, 64, 0
1, 173047, Control_c, 0, 64, 54
1, 173062, Control_c, 0, 64, 69
1, 173077, Control_c, 0, 64, 80
1, 173078, Poly_aftertouch_c, 0, 79, 127
1, 173091, Control_c, 0, 64, 95
1, 173092, Note_off_c, 0, 70, 62
1, 173092, Note_off_c, 0, 74, 64
1, 173106, Control_c, 0, 64, 118
1, 173115, Poly_aftertouch_c, 0, 79, 0
1, 173120, Note_off_c, 0, 43, 57
1, 173121, Control_c, 0, 64, 127
1, 173134, Note_off_c, 0, 82, 64
1, 173151, Note_on_c, 0, 51, 78
1, 173211, Note_off_c, 0, 51, 64
1, 173297, Note_on_c, 0, 85, 93
1, 173303, Note_on_c, 0, 58, 64
1, 173310, Note_on_c, 0, 73, 82
1, 173404, Note_off_c, 0, 73, 59
1, 173439, Note_off_c, 0, 58, 36
1, 173461, Note_off_c, 0, 85, 59
1, 173476, Note_on_c, 0, 55, 73
1, 173670, Note_on_c, 0, 86, 89
1, 173670, Note_on_c, 0, 58, 65
1, 173685, Control_c, 0, 64, 92
1, 173692, Note_on_c, 0, 74, 69
1, 173699, Control_c, 0, 64, 66
1, 173714, Control_c, 0, 64, 0
1, 173766, Control_c, 0, 64, 54
1, 173780, Control_c, 0, 64, 69
1, 173795, Control_c, 0, 64, 84
1, 173799, Note_off_c, 0, 58, 59
1, 173807, Note_off_c, 0, 55, 27
1, 173810, Control_c, 0, 64, 106
1, 173813, Note_off_c, 0, 86, 66
1, 173825, Control_c, 0, 64, 127
1, 173863, Note_off_c, 0, 74, 60
1, 173941, Note_on_c, 0, 50, 40
1, 173996, Note_off_c, 0, 50, 61
1, 174048, Control_c, 0, 67, 9
1, 174063, Control_c, 0, 67, 16
1, 174078, Control_c, 0, 67, 27
1, 174093, Control_c, 0, 67, 38
1, 174108, Control_c, 0, 67, 51
1, 174123, Control_c, 0, 67, 65
1, 174138, Control_c, 0, 67, 81
1, 174152, Control_c, 0, 67, 96
1, 174167, Control_c, 0, 67, 112
1, 174182, Control_c, 0, 67, 125
1, 174196, Control_c, 0, 67, 127
1, 174358, Note_on_c, 0, 75, 68
1, 174359, Control_c, 0, 64, 117
1, 174373, Note_on_c, 0, 67, 56
1, 174374, Control_c, 0, 64, 95
1, 174380, Note_on_c, 0, 36, 48
1, 174389, Control_c, 0, 64, 80
1, 174403, Control_c, 0, 64, 67
1, 174409, Note_off_c, 0, 67, 63
1, 174418, Control_c, 0, 64, 40
1, 174427, Note_off_c, 0, 36, 59
1, 174433, Control_c, 0, 64, 0
1, 174634, Control_c, 0, 64, 62
1, 174649, Control_c, 0, 64, 74
1, 174664, Control_c, 0, 64, 82
1, 174678, Control_c, 0, 64, 90
1, 174693, Control_c, 0, 64, 95
1, 174708, Control_c, 0, 64, 100
1, 174720, Note_on_c, 0, 70, 45
1, 174723, Control_c, 0, 64, 108
1, 174723, Note_off_c, 0, 75, 53
1, 174737, Control_c, 0, 64, 127
1, 174773, Note_off_c, 0, 70, 56
1, 174826, Note_on_c, 0, 69, 42
1, 174836, Note_on_c, 0, 75, 65
1, 174842, Control_c, 0, 64, 122
1, 174853, Note_off_c, 0, 69, 57
1, 174857, Note_on_c, 0, 70, 71
1, 174857, Control_c, 0, 64, 103
1, 174872, Control_c, 0, 64, 85
1, 174874, Note_on_c, 0, 58, 65
1, 174883, Note_off_c, 0, 70, 66
1, 174887, Control_c, 0, 64, 70
1, 174901, Control_c, 0, 64, 17
1, 174904, Note_off_c, 0, 58, 65
1, 174916, Control_c, 0, 64, 0
1, 174919, Note_on_c, 0, 69, 38
1, 174963, Note_off_c, 0, 69, 49
1, 175066, Note_on_c, 0, 67, 43
1, 175098, Note_off_c, 0, 67, 54
1, 175183, Control_c, 0, 64, 47
1, 175188, Note_on_c, 0, 48, 48
1, 175191, Note_on_c, 0, 69, 53
1, 175198, Control_c, 0, 64, 73
1, 175213, Control_c, 0, 64, 86
1, 175216, Note_off_c, 0, 69, 60
1, 175235, Control_c, 0, 64, 95
1, 175241, Note_off_c, 0, 48, 56
1, 175250, Control_c, 0, 64, 96
1, 175254, Note_off_c, 0, 75, 63
1, 175309, Control_c, 0, 64, 95
1, 175317, Note_on_c, 0, 74, 66
1, 175324, Control_c, 0, 64, 94
1, 175339, Control_c, 0, 64, 91
1, 175353, Control_c, 0, 64, 83
1, 175357, Note_off_c, 0, 74, 61
1, 175368, Control_c, 0, 64, 72
1, 175383, Control_c, 0, 64, 62
1, 175398, Control_c, 0, 64, 0
1, 175449, Note_on_c, 0, 77, 73
1, 175458, Note_on_c, 0, 41, 45
1, 175467, Note_on_c, 0, 69, 50
1, 175490, Note_off_c, 0, 41, 49
1, 175491, Note_off_c, 0, 69, 59
1, 175517, Note_off_c, 0, 77, 60
1, 175586, Note_on_c, 0, 70, 62
1, 175614, Note_off_c, 0, 70, 67
1, 175716, Note_on_c, 0, 60, 63
1, 175722, Note_on_c, 0, 67, 55
1, 175730, Note_on_c, 0, 75, 56
1, 175744, Note_off_c, 0, 60, 67
1, 175750, Note_off_c, 0, 67, 54
1, 175856, Note_on_c, 0, 69, 58
1, 175886, Note_off_c, 0, 69, 67
1, 176009, Note_on_c, 0, 53, 40
1, 176013, Note_on_c, 0, 65, 50
1, 176043, Note_off_c, 0, 53, 54
1, 176046, Note_off_c, 0, 65, 57
1, 176072, Control_c, 0, 64, 59
1, 176087, Control_c, 0, 64, 71
1, 176101, Control_c, 0, 64, 79
1, 176116, Control_c, 0, 64, 85
1, 176131, Control_c, 0, 64, 89
1, 176146, Control_c, 0, 64, 91
1, 176156, Note_on_c, 0, 67, 36
1, 176179, Note_off_c, 0, 75, 53
1, 176192, Note_off_c, 0, 67, 51
1, 176279, Control_c, 0, 64, 89
1, 176293, Control_c, 0, 64, 83
1, 176308, Control_c, 0, 64, 71
1, 176310, Note_on_c, 0, 74, 63
1, 176311, Note_on_c, 0, 34, 49
1, 176322, Note_on_c, 0, 69, 53
1, 176323, Control_c, 0, 64, 47
1, 176338, Control_c, 0, 64, 0
1, 176343, Note_off_c, 0, 34, 57
1, 176358, Note_off_c, 0, 69, 62
1, 176379, Note_off_c, 0, 74, 58
1, 176451, Note_on_c, 0, 65, 54
1, 176473, Note_off_c, 0, 65, 62
1, 176573, Note_on_c, 0, 69, 60
1, 176588, Note_on_c, 0, 53, 57
1, 176591, Note_on_c, 0, 67, 62
1, 176594, Note_on_c, 0, 70, 63
1, 176615, Note_off_c, 0, 67, 62
1, 176617, Note_off_c, 0, 53, 66
1, 176624, Note_off_c, 0, 69, 60
1, 176719, Note_on_c, 0, 65, 61
1, 176756, Note_off_c, 0, 65, 63
1, 176857, Note_on_c, 0, 63, 58
1, 176859, Note_on_c, 0, 46, 38
1, 176891, Note_off_c, 0, 63, 65
1, 176893, Note_off_c, 0, 46, 46
1, 176979, Note_off_c, 0, 70, 64
1, 176984, Control_c, 0, 64, 57
1, 176998, Control_c, 0, 64, 74
1, 177013, Control_c, 0, 64, 85
1, 177028, Control_c, 0, 64, 100
1, 177043, Control_c, 0, 64, 107
1, 177058, Control_c, 0, 64, 110
1, 177068, Poly_aftertouch_c, 0, 62, 0
1, 177087, Control_c, 0, 64, 109
1, 177116, Control_c, 0, 64, 107
1, 177131, Control_c, 0, 64, 102
1, 177146, Control_c, 0, 64, 91
1, 177156, Note_on_c, 0, 79, 54
1, 177161, Control_c, 0, 64, 76
1, 177162, Note_on_c, 0, 41, 42
1, 177176, Control_c, 0, 64, 62
1, 177187, Note_on_c, 0, 74, 41
1, 177192, Control_c, 0, 64, 0
1, 177204, Note_off_c, 0, 41, 53
1, 177255, Poly_aftertouch_c, 0, 70, 127
1, 177318, Note_on_c, 0, 53, 52
1, 177344, Note_off_c, 0, 53, 61
1, 177474, Note_off_c, 0, 79, 60
1, 177483, Note_on_c, 0, 81, 62
1, 177490, Note_on_c, 0, 60, 43
1, 177516, Note_off_c, 0, 60, 59
1, 177628, Note_off_c, 0, 74, 38
1, 177642, Note_on_c, 0, 62, 50
1, 177650, Poly_aftertouch_c, 0, 70, 0
1, 177667, Note_off_c, 0, 62, 60
1, 177837, Note_on_c, 0, 77, 46
1, 177837, Note_off_c, 0, 81, 59
1, 177841, Note_on_c, 0, 58, 24
1, 177852, Control_c, 0, 64, 43
1, 177854, Note_on_c, 0, 65, 25
1, 177856, Note_on_c, 0, 74, 40
1, 177866, Control_c, 0, 64, 67
1, 177873, Note_on_c, 0, 70, 21
1, 177881, Note_off_c, 0, 58, 49
1, 177881, Control_c, 0, 64, 75
1, 177896, Control_c, 0, 64, 81
1, 177911, Note_off_c, 0, 77, 61
1, 177911, Control_c, 0, 64, 87
1, 177919, Note_off_c, 0, 74, 60
1, 177926, Control_c, 0, 64, 92
1, 177929, Note_off_c, 0, 65, 42
1, 177934, Note_off_c, 0, 70, 44
1, 177940, Control_c, 0, 64, 100
1, 177955, Control_c, 0, 64, 110
1, 177970, Control_c, 0, 64, 127
1, 178016, Note_on_c, 0, 57, 49
1, 178042, Note_off_c, 0, 57, 61
1, 178175, Note_on_c, 0, 48, 52
1, 178223, Note_on_c, 0, 53, 40
1, 178264, Note_on_c, 0, 55, 53
1, 178290, Control_c, 0, 64, 126
1, 178304, Control_c, 0, 64, 103
1, 178312, Poly_aftertouch_c, 0, 79, 127
1, 178319, Control_c, 0, 64, 86
1, 178329, Note_on_c, 0, 75, 9
1, 178334, Control_c, 0, 64, 69
1, 178339, Poly_aftertouch_c, 0, 79, 0
1, 178340, Note_on_c, 0, 63, 76
1, 178349, Control_c, 0, 64, 0
1, 178386, Note_off_c, 0, 75, 47
1, 178388, Note_off_c, 0, 53, 0
1, 178391, Note_off_c, 0, 63, 61
1, 178426, Poly_aftertouch_c, 0, 53, 127
1, 178494, Note_off_c, 0, 55, 21
1, 178571, Poly_aftertouch_c, 0, 53, 0
1, 178600, Control_c, 0, 64, 61
1, 178609, Poly_aftertouch_c, 0, 53, 127
1, 178615, Control_c, 0, 64, 76
1, 178625, Poly_aftertouch_c, 0, 77, 127
1, 178630, Control_c, 0, 64, 84
1, 178645, Control_c, 0, 64, 92
1, 178654, Note_on_c, 0, 69, 48
1, 178658, Note_off_c, 0, 48, 32
1, 178660, Control_c, 0, 64, 95
1, 178663, Poly_aftertouch_c, 0, 77, 0
1, 178675, Control_c, 0, 64, 103
1, 178689, Control_c, 0, 64, 118
1, 178702, Note_off_c, 0, 69, 57
1, 178704, Control_c, 0, 64, 127
1, 178705, Note_on_c, 0, 63, 73
1, 178719, Control_c, 0, 67, 126
1, 178729, Note_off_c, 0, 63, 68
1, 178734, Control_c, 0, 67, 117
1, 178734, Note_on_c, 0, 81, 72
1, 178749, Control_c, 0, 67, 106
1, 178759, Poly_aftertouch_c, 0, 53, 0
1, 178763, Control_c, 0, 67, 93
1, 178778, Control_c, 0, 67, 82
1, 178794, Note_off_c, 0, 81, 58
1, 178794, Control_c, 0, 67, 72
1, 178809, Control_c, 0, 67, 62
1, 178824, Control_c, 0, 67, 52
1, 178839, Control_c, 0, 67, 41
1, 178854, Control_c, 0, 67, 29
1, 178854, Note_on_c, 0, 69, 42
1, 178868, Control_c, 0, 67, 14
1, 178883, Control_c, 0, 67, 0
1, 178883, Note_off_c, 0, 69, 57
1, 178982, Note_on_c, 0, 41, 28
1, 179015, Note_on_c, 0, 72, 56
1, 179015, Note_on_c, 0, 77, 51
1, 179023, Note_off_c, 0, 41, 44
1, 179086, Note_off_c, 0, 72, 55
1, 179089, Note_on_c, 0, 62, 80
1, 179109, Note_off_c, 0, 77, 35
1, 179110, Note_on_c, 0, 65, 41
1, 179128, Note_off_c, 0, 62, 58
1, 179140, Note_off_c, 0, 65, 56
1, 179209, Note_on_c, 0, 65, 78
1, 179216, Control_c, 0, 64, 111
1, 179224, Note_on_c, 0, 57, 65
1, 179231, Control_c, 0, 64, 80
1, 179232, Note_on_c, 0, 53, 64
1, 179232, Note_on_c, 0, 87, 69
1, 179238, Note_off_c, 0, 65, 64
1, 179246, Control_c, 0, 64, 50
1, 179256, Note_off_c, 0, 87, 62
1, 179259, Note_on_c, 0, 91, 38
1, 179261, Control_c, 0, 64, 0
1, 179288, Note_off_c, 0, 91, 48
1, 179368, Note_on_c, 0, 79, 39
1, 179401, Note_off_c, 0, 79, 54
1, 179468, Control_c, 0, 67, 8
1, 179482, Control_c, 0, 67, 10
1, 179489, Note_on_c, 0, 63, 69
1, 179497, Control_c, 0, 64, 65
1, 179497, Control_c, 0, 67, 12
1, 179504, Note_on_c, 0, 93, 66
1, 179507, Note_on_c, 0, 89, 56
1, 179512, Control_c, 0, 64, 83
1, 179512, Control_c, 0, 67, 16
1, 179514, Note_off_c, 0, 63, 66
1, 179525, Note_off_c, 0, 57, 57
1, 179527, Control_c, 0, 64, 104
1, 179527, Control_c, 0, 67, 21
1, 179528, Note_off_c, 0, 53, 65
1, 179542, Control_c, 0, 64, 127
1, 179542, Control_c, 0, 67, 27
1, 179557, Control_c, 0, 67, 33
1, 179570, Note_off_c, 0, 93, 56
1, 179572, Control_c, 0, 67, 37
1, 179587, Control_c, 0, 67, 41
1, 179594, Note_off_c, 0, 89, 49
1, 179602, Control_c, 0, 67, 47
1, 179617, Control_c, 0, 67, 55
1, 179631, Note_on_c, 0, 81, 62
1, 179632, Control_c, 0, 67, 66
1, 179646, Control_c, 0, 67, 79
1, 179659, Note_off_c, 0, 81, 64
1, 179661, Control_c, 0, 67, 92
1, 179676, Control_c, 0, 67, 100
1, 179691, Control_c, 0, 67, 105
1, 179706, Control_c, 0, 67, 108
1, 179728, Control_c, 0, 67, 109
1, 179737, Note_on_c, 0, 41, 66
1, 179748, Note_on_c, 0, 89, 70
1, 179766, Note_off_c, 0, 41, 63
1, 179772, Control_c, 0, 67, 104
1, 179787, Control_c, 0, 67, 101
1, 179802, Control_c, 0, 67, 98
1, 179816, Control_c, 0, 67, 96
1, 179825, Note_off_c, 0, 89, 59
1, 179831, Control_c, 0, 67, 93
1, 179846, Control_c, 0, 67, 90
1, 179856, Note_on_c, 0, 77, 65
1, 179861, Control_c, 0, 67, 83
1, 179876, Control_c, 0, 67, 73
1, 179891, Control_c, 0, 67, 60
1, 179898, Note_off_c, 0, 77, 58
1, 179906, Control_c, 0, 67, 45
1, 179909, Note_on_c, 0, 46, 55
1, 179913, Note_on_c, 0, 57, 61
1, 179921, Note_on_c, 0, 53, 51
1, 179921, Note_on_c, 0, 82, 58
1, 179921, Control_c, 0, 67, 30
1, 179926, Note_on_c, 0, 86, 66
1, 179936, Control_c, 0, 67, 18
1, 179937, Note_off_c, 0, 46, 56
1, 179942, Note_off_c, 0, 57, 64
1, 179942, Note_off_c, 0, 82, 62
1, 179944, Note_off_c, 0, 53, 63
1, 179950, Control_c, 0, 64, 99
1, 179950, Control_c, 0, 67, 8
1, 179965, Control_c, 0, 64, 79
1, 179965, Control_c, 0, 67, 0
1, 179972, Note_on_c, 0, 89, 53
1, 179980, Control_c, 0, 64, 61
1, 179995, Control_c, 0, 64, 0
1, 180000, Note_off_c, 0, 86, 60
1, 180009, Note_on_c, 0, 62, 89
1, 180009, Note_on_c, 0, 82, 72
1, 180023, Note_off_c, 0, 89, 44
1, 180043, Note_off_c, 0, 62, 60
1, 180067, Note_off_c, 0, 82, 61
1, 180192, Note_on_c, 0, 77, 42
1, 180219, Note_off_c, 0, 77, 57
1, 180370, Note_on_c, 0, 58, 52
1, 180390, Note_on_c, 0, 50, 43
1, 180410, Control_c, 0, 64, 50
1, 180410, Control_c, 0, 67, 10
1, 180425, Control_c, 0, 64, 66
1, 180425, Control_c, 0, 67, 16
1, 180432, Note_on_c, 0, 77, 15
1, 180439, Control_c, 0, 64, 72
1, 180439, Control_c, 0, 67, 25
1, 180454, Control_c, 0, 64, 76
1, 180454, Control_c, 0, 67, 37
1, 180477, Control_c, 0, 64, 81
1, 180477, Control_c, 0, 67, 47
1, 180492, Control_c, 0, 64, 86
1, 180492, Control_c, 0, 67, 58
1, 180496, Note_off_c, 0, 77, 52
1, 180507, Control_c, 0, 64, 92
1, 180507, Control_c, 0, 67, 72
1, 180521, Control_c, 0, 64, 98
1, 180521, Control_c, 0, 67, 88
1, 180536, Control_c, 0, 64, 105
1, 180536, Control_c, 0, 67, 104
1, 180541, Note_on_c, 0, 74, 58
1, 180551, Control_c, 0, 64, 112
1, 180551, Control_c, 0, 67, 121
1, 180562, Note_off_c, 0, 74, 65
1, 180565, Control_c, 0, 64, 119
1, 180565, Control_c, 0, 67, 127
1, 180579, Control_c, 0, 64, 127
1, 180605, Note_off_c, 0, 50, 54
1, 180608, Note_off_c, 0, 58, 55
1, 180672, Note_on_c, 0, 77, 59
1, 180681, Note_on_c, 0, 70, 55
1, 180734, Note_off_c, 0, 77, 40
1, 180812, Note_on_c, 0, 65, 43
1, 180824, Note_on_c, 0, 55, 52
1, 180836, Note_off_c, 0, 70, 38
1, 180841, Note_off_c, 0, 65, 56
1, 180848, Note_off_c, 0, 55, 61
1, 180858, Note_on_c, 0, 57, 65
1, 180876, Control_c, 0, 64, 123
1, 180880, Note_on_c, 0, 74, 60
1, 180890, Control_c, 0, 64, 100
1, 180905, Control_c, 0, 64, 80
1, 180918, Note_on_c, 0, 55, 64
1, 180920, Control_c, 0, 64, 57
1, 180920, Control_c, 0, 67, 124
1, 180934, Note_on_c, 0, 65, 44
1, 180935, Control_c, 0, 64, 0
1, 180935, Control_c, 0, 67, 110
1, 180937, Note_off_c, 0, 57, 46
1, 180950, Control_c, 0, 67, 94
1, 180964, Control_c, 0, 67, 72
1, 180979, Control_c, 0, 64, 23
1, 180979, Control_c, 0, 67, 51
1, 180982, Note_off_c, 0, 55, 61
1, 180994, Control_c, 0, 64, 65
1, 180994, Control_c, 0, 67, 33
1, 181009, Control_c, 0, 64, 74
1, 181009, Control_c, 0, 67, 18
1, 181015, Note_off_c, 0, 65, 38
1, 181024, Control_c, 0, 64, 83
1, 181024, Control_c, 0, 67, 0
1, 181036, Note_on_c, 0, 53, 49
1, 181039, Control_c, 0, 64, 87
1, 181053, Control_c, 0, 64, 86
1, 181068, Control_c, 0, 64, 81
1, 181072, Note_on_c, 0, 70, 65
1, 181083, Control_c, 0, 64, 73
1, 181098, Control_c, 0, 64, 66
1, 181113, Control_c, 0, 64, 67
1, 181128, Control_c, 0, 64, 74
1, 181143, Control_c, 0, 64, 82
1, 181157, Control_c, 0, 64, 86
1, 181172, Control_c, 0, 64, 84
1, 181184, Note_off_c, 0, 53, 61
1, 181188, Control_c, 0, 64, 78
1, 181202, Note_on_c, 0, 62, 60
1, 181202, Control_c, 0, 64, 70
1, 181225, Control_c, 0, 64, 63
1, 181226, Note_on_c, 0, 77, 69
1, 181232, Note_off_c, 0, 74, 22
1, 181234, Note_off_c, 0, 70, 57
1, 181240, Control_c, 0, 64, 61
1, 181255, Control_c, 0, 64, 68
1, 181269, Control_c, 0, 64, 78
1, 181284, Control_c, 0, 64, 89
1, 181299, Control_c, 0, 64, 102
1, 181314, Control_c, 0, 64, 116
1, 181325, Note_off_c, 0, 77, 62
1, 181329, Control_c, 0, 64, 126
1, 181346, Note_off_c, 0, 62, 50
1, 181373, Note_on_c, 0, 74, 77
1, 181374, Control_c, 0, 64, 127
1, 181378, Note_on_c, 0, 58, 56
1, 181405, Note_off_c, 0, 58, 65
1, 181551, Note_on_c, 0, 70, 71
1, 181611, Note_on_c, 0, 86, 85
1, 181630, Note_off_c, 0, 70, 58
1, 181775, Note_on_c, 0, 69, 77
1, 181796, Note_off_c, 0, 69, 71
1, 181949, Note_off_c, 0, 86, 62
1, 181974, Control_c, 0, 64, 108
1, 181978, Note_on_c, 0, 52, 57
1, 181989, Control_c, 0, 64, 77
1, 182002, Note_on_c, 0, 82, 63
1, 182004, Control_c, 0, 64, 38
1, 182012, Note_on_c, 0, 58, 60
1, 182019, Note_off_c, 0, 52, 62
1, 182019, Control_c, 0, 64, 0
1, 182032, Note_on_c, 0, 62, 46
1, 182041, Note_off_c, 0, 82, 59
1, 182049, Control_c, 0, 64, 64
1, 182064, Control_c, 0, 64, 76
1, 182068, Note_on_c, 0, 84, 63
1, 182070, Note_off_c, 0, 74, 54
1, 182079, Control_c, 0, 64, 86
1, 182093, Control_c, 0, 64, 96
1, 182108, Control_c, 0, 64, 101
1, 182123, Control_c, 0, 64, 106
1, 182133, Note_on_c, 0, 82, 44
1, 182133, Note_off_c, 0, 84, 58
1, 182137, Control_c, 0, 64, 110
1, 182148, Note_on_c, 0, 68, 84
1, 182152, Control_c, 0, 64, 118
1, 182167, Control_c, 0, 64, 127
1, 182307, Note_off_c, 0, 68, 53
1, 182353, Note_off_c, 0, 82, 58
1, 182355, Note_on_c, 0, 80, 60
1, 182477, Note_off_c, 0, 80, 61
1, 182535, Note_on_c, 0, 68, 78
1, 182548, Note_on_c, 0, 74, 55
1, 182587, Note_off_c, 0, 68, 62
1, 182618, Note_off_c, 0, 62, 39
1, 182627, Note_off_c, 0, 74, 58
1, 182641, Note_off_c, 0, 58, 55
1, 182693, Note_on_c, 0, 72, 53
1, 182797, Note_off_c, 0, 72, 59
1, 182834, Note_on_c, 0, 70, 64
1, 182939, Note_off_c, 0, 70, 62
1, 182962, Note_on_c, 0, 67, 78
1, 183102, Note_off_c, 0, 67, 61
1, 183144, Note_on_c, 0, 40, 52
1, 183180, Note_on_c, 0, 62, 71
1, 183197, Control_c, 0, 64, 86
1, 183212, Control_c, 0, 64, 42
1, 183227, Control_c, 0, 64, 0
1, 183256, Control_c, 0, 64, 63
1, 183262, Note_off_c, 0, 62, 62
1, 183271, Control_c, 0, 64, 78
1, 183286, Control_c, 0, 64, 98
1, 183301, Control_c, 0, 64, 127
1, 183411, Note_on_c, 0, 80, 60
1, 183420, Note_on_c, 0, 46, 49
1, 183465, Note_off_c, 0, 40, 55
1, 183478, Note_off_c, 0, 80, 57
1, 183492, Note_off_c, 0, 46, 56
1, 183519, Note_on_c, 0, 71, 56
1, 183539, Note_off_c, 0, 71, 63
1, 183545, Note_on_c, 0, 73, 44
1, 183552, Note_on_c, 0, 52, 64
1, 183579, Note_off_c, 0, 73, 54
1, 183592, Note_off_c, 0, 52, 63
1, 183599, Note_on_c, 0, 71, 82
1, 183641, Note_off_c, 0, 71, 65
1, 183700, Note_on_c, 0, 56, 61
1, 183702, Note_on_c, 0, 70, 81
1, 183775, Note_off_c, 0, 70, 60
1, 183839, Note_on_c, 0, 68, 90
1, 183841, Note_off_c, 0, 56, 48
1, 183856, Note_on_c, 0, 58, 62
1, 183877, Note_off_c, 0, 68, 66
1, 183957, Note_on_c, 0, 62, 60
1, 183969, Note_off_c, 0, 58, 59
1, 183980, Note_off_c, 0, 62, 62
1, 184132, Note_on_c, 0, 67, 78
1, 184139, Control_c, 0, 64, 84
1, 184145, Note_on_c, 0, 61, 72
1, 184150, Note_on_c, 0, 33, 68
1, 184154, Control_c, 0, 64, 19
1, 184168, Control_c, 0, 64, 0
1, 184198, Control_c, 0, 64, 67
1, 184220, Control_c, 0, 64, 84
1, 184222, Note_off_c, 0, 33, 61
1, 184235, Control_c, 0, 64, 116
1, 184243, Note_off_c, 0, 61, 59
1, 184249, Control_c, 0, 64, 127
1, 184292, Note_on_c, 0, 57, 63
1, 184323, Note_off_c, 0, 57, 64
1, 184353, Control_c, 0, 64, 98
1, 184361, Note_on_c, 0, 60, 69
1, 184368, Control_c, 0, 64, 73
1, 184369, Note_on_c, 0, 58, 40
1, 184383, Control_c, 0, 64, 0
1, 184398, Note_on_c, 0, 55, 61
1, 184407, Note_off_c, 0, 60, 56
1, 184417, Note_off_c, 0, 58, 0
1, 184430, Note_on_c, 0, 58, 64
1, 184473, Control_c, 0, 64, 59
1, 184487, Control_c, 0, 64, 78
1, 184502, Control_c, 0, 64, 98
1, 184517, Control_c, 0, 64, 127
1, 184544, Note_off_c, 0, 58, 59
1, 184547, Note_on_c, 0, 57, 66
1, 184562, Note_off_c, 0, 67, 57
1, 184562, Note_off_c, 0, 55, 0
1, 184562, Note_on_c, 0, 55, 5
1, 184578, Note_off_c, 0, 57, 64
1, 184605, Note_off_c, 0, 55, 43
1, 184652, Note_on_c, 0, 66, 84
1, 184654, Note_on_c, 0, 45, 64
1, 184675, Note_on_c, 0, 61, 65
1, 184689, Note_off_c, 0, 45, 62
1, 184798, Note_off_c, 0, 66, 56
1, 184800, Note_off_c, 0, 61, 56
1, 184827, Control_c, 0, 64, 107
1, 184828, Note_on_c, 0, 58, 52
1, 184830, Note_on_c, 0, 55, 24
1, 184840, Note_on_c, 0, 57, 58
1, 184842, Control_c, 0, 64, 85
1, 184856, Note_off_c, 0, 58, 57
1, 184857, Control_c, 0, 64, 70
1, 184870, Note_off_c, 0, 55, 45
1, 184872, Control_c, 0, 64, 50
1, 184879, Note_off_c, 0, 57, 64
1, 184887, Control_c, 0, 64, 0
1, 184919, Note_on_c, 0, 55, 42
1, 184940, Note_on_c, 0, 61, 49
1, 184940, Note_on_c, 0, 69, 66
1, 184979, Note_off_c, 0, 61, 59
1, 184982, Note_off_c, 0, 55, 56
1, 184991, Note_off_c, 0, 69, 57
1, 185116, Control_c, 0, 64, 66
1, 185131, Control_c, 0, 64, 79
1, 185146, Control_c, 0, 64, 87
1, 185161, Control_c, 0, 64, 95
1, 185176, Control_c, 0, 64, 103
1, 185176, Control_c, 0, 67, 8
1, 185191, Control_c, 0, 64, 126
1, 185191, Control_c, 0, 67, 11
1, 185206, Control_c, 0, 64, 127
1, 185206, Control_c, 0, 67, 16
1, 185221, Control_c, 0, 67, 24
1, 185230, Note_on_c, 0, 67, 68
1, 185236, Control_c, 0, 67, 36
1, 185251, Control_c, 0, 67, 53
1, 185251, Note_on_c, 0, 61, 46
1, 185257, Note_off_c, 0, 67, 65
1, 185265, Control_c, 0, 67, 70
1, 185280, Control_c, 0, 67, 90
1, 185295, Control_c, 0, 67, 110
1, 185310, Control_c, 0, 67, 127
1, 185337, Note_off_c, 0, 61, 43
1, 185405, Note_on_c, 0, 57, 51
1, 185504, Note_on_c, 0, 81, 58
1, 185540, Note_off_c, 0, 81, 67
1, 185547, Control_c, 0, 64, 122
1, 185561, Note_on_c, 0, 82, 66
1, 185561, Control_c, 0, 64, 85
1, 185564, Note_on_c, 0, 67, 63
1, 185576, Control_c, 0, 64, 62
1, 185591, Control_c, 0, 64, 0
1, 185599, Note_off_c, 0, 82, 0
1, 185599, Note_on_c, 0, 82, 31
1, 185621, Control_c, 0, 64, 57
1, 185621, Control_c, 0, 67, 120
1, 185628, Note_off_c, 0, 67, 60
1, 185635, Control_c, 0, 64, 72
1, 185635, Control_c, 0, 67, 106
1, 185650, Control_c, 0, 64, 85
1, 185650, Control_c, 0, 67, 84
1, 185665, Control_c, 0, 64, 101
1, 185665, Control_c, 0, 67, 60
1, 185669, Note_off_c, 0, 57, 59
1, 185680, Control_c, 0, 64, 127
1, 185680, Control_c, 0, 67, 38
1, 185695, Control_c, 0, 67, 23
1, 185717, Control_c, 0, 67, 13
1, 185732, Control_c, 0, 67, 0
1, 185742, Note_off_c, 0, 82, 54
1, 185754, Note_on_c, 0, 70, 56
1, 185789, Note_off_c, 0, 70, 64
1, 185917, Note_on_c, 0, 38, 60
1, 185969, Control_c, 0, 64, 85
1, 185984, Control_c, 0, 64, 64
1, 185994, Note_on_c, 0, 66, 44
1, 185999, Control_c, 0, 64, 0
1, 186021, Note_off_c, 0, 66, 58
1, 186029, Control_c, 0, 64, 64
1, 186040, Note_on_c, 0, 72, 62
1, 186044, Control_c, 0, 64, 78
1, 186058, Control_c, 0, 64, 92
1, 186073, Control_c, 0, 64, 103
1, 186088, Control_c, 0, 64, 106
1, 186103, Control_c, 0, 64, 109
1, 186118, Control_c, 0, 64, 115
1, 186118, Note_off_c, 0, 72, 57
1, 186133, Control_c, 0, 64, 127
1, 186133, Note_on_c, 0, 81, 84
1, 186274, Note_off_c, 0, 38, 32
1, 186299, Note_on_c, 0, 50, 69
1, 186328, Note_off_c, 0, 50, 67
1, 186467, Note_on_c, 0, 78, 86
1, 186477, Note_on_c, 0, 57, 55
1, 186500, Note_off_c, 0, 81, 62
1, 186512, Note_off_c, 0, 57, 64
1, 186594, Note_on_c, 0, 60, 43
1, 186622, Note_off_c, 0, 60, 56
1, 186726, Note_on_c, 0, 66, 66
1, 186740, Note_on_c, 0, 74, 78
1, 186744, Note_off_c, 0, 78, 63
1, 186753, Note_off_c, 0, 66, 66
1, 186765, Note_off_c, 0, 74, 69
1, 186894, Note_on_c, 0, 53, 44
1, 186932, Note_off_c, 0, 53, 65
1, 186950, Note_on_c, 0, 55, 56
1, 186991, Note_off_c, 0, 55, 62
1, 187024, Note_on_c, 0, 53, 61
1, 187029, Control_c, 0, 64, 88
1, 187033, Note_on_c, 0, 67, 69
1, 187039, Note_on_c, 0, 59, 64
1, 187044, Control_c, 0, 64, 67
1, 187048, Note_on_c, 0, 62, 41
1, 187058, Control_c, 0, 64, 0
1, 187060, Note_off_c, 0, 59, 64
1, 187063, Note_off_c, 0, 67, 60
1, 187077, Note_off_c, 0, 62, 58
1, 187081, Note_off_c, 0, 53, 53
1, 187177, Control_c, 0, 64, 11
1, 187186, Note_on_c, 0, 50, 51
1, 187192, Control_c, 0, 64, 68
1, 187214, Control_c, 0, 64, 77
1, 187229, Note_off_c, 0, 50, 66
1, 187229, Control_c, 0, 64, 86
1, 187244, Control_c, 0, 64, 92
1, 187258, Control_c, 0, 64, 96
1, 187273, Control_c, 0, 64, 100
1, 187288, Control_c, 0, 64, 104
1, 187303, Control_c, 0, 64, 109
1, 187319, Control_c, 0, 64, 114
1, 187333, Control_c, 0, 64, 127
1, 187356, Note_on_c, 0, 65, 61
1, 187370, Note_on_c, 0, 59, 47
1, 187379, Note_off_c, 0, 65, 65
1, 187507, Note_off_c, 0, 59, 36
1, 187524, Note_on_c, 0, 55, 46
1, 187654, Note_on_c, 0, 79, 45
1, 187680, Note_off_c, 0, 79, 56
1, 187701, Note_on_c, 0, 80, 62
1, 187704, Control_c, 0, 64, 101
1, 187719, Note_on_c, 0, 65, 58
1, 187719, Control_c, 0, 64, 77
1, 187734, Control_c, 0, 64, 60
1, 187749, Control_c, 0, 64, 0
1, 187778, Control_c, 0, 64, 63
1, 187793, Control_c, 0, 64, 74
1, 187794, Note_off_c, 0, 65, 63
1, 187808, Control_c, 0, 64, 86
1, 187823, Control_c, 0, 64, 100
1, 187838, Control_c, 0, 64, 112
1, 187844, Note_off_c, 0, 55, 61
1, 187853, Control_c, 0, 64, 127
1, 187963, Note_on_c, 0, 68, 52
1, 187973, Note_off_c, 0, 80, 38
1, 187987, Note_off_c, 0, 68, 60
1, 188140, Note_on_c, 0, 36, 53
1, 188156, Control_c, 0, 64, 107
1, 188171, Control_c, 0, 64, 78
1, 188186, Control_c, 0, 64, 53
1, 188200, Control_c, 0, 64, 0
1, 188220, Note_on_c, 0, 64, 51
1, 188230, Control_c, 0, 64, 64
1, 188245, Control_c, 0, 64, 77
1, 188260, Control_c, 0, 64, 88
1, 188267, Note_off_c, 0, 64, 63
1, 188274, Control_c, 0, 64, 100
1, 188281, Note_on_c, 0, 70, 52
1, 188289, Control_c, 0, 64, 109
1, 188304, Control_c, 0, 64, 119
1, 188319, Control_c, 0, 64, 127
1, 188379, Note_off_c, 0, 70, 61
1, 188416, Note_on_c, 0, 79, 74
1, 188552, Note_off_c, 0, 36, 33
1, 188661, Note_on_c, 0, 48, 41
1, 188702, Note_off_c, 0, 48, 50
1, 188842, Note_on_c, 0, 76, 73
1, 188867, Note_on_c, 0, 55, 39
1, 188884, Note_off_c, 0, 79, 49
1, 188923, Note_off_c, 0, 55, 56
1, 188983, Note_on_c, 0, 58, 51
1, 189036, Note_off_c, 0, 58, 52
1, 189121, Note_on_c, 0, 64, 60
1, 189138, Note_off_c, 0, 76, 57
1, 189144, Note_on_c, 0, 72, 78
1, 189146, Note_off_c, 0, 64, 66
1, 189359, Note_on_c, 0, 41, 45
1, 189597, Note_on_c, 0, 63, 49
1, 189631, Note_on_c, 0, 57, 46
1, 189639, Control_c, 0, 64, 95
1, 189653, Control_c, 0, 64, 77
1, 189668, Control_c, 0, 64, 59
1, 189683, Control_c, 0, 64, 0
1, 189728, Control_c, 0, 64, 14
1, 189743, Control_c, 0, 64, 63
1, 189758, Control_c, 0, 64, 73
1, 189773, Control_c, 0, 64, 92
1, 189787, Control_c, 0, 64, 127
1, 189795, Note_off_c, 0, 63, 59
1, 189810, Note_off_c, 0, 72, 62
1, 189811, Note_off_c, 0, 41, 38
1, 189847, Note_off_c, 0, 57, 62
1, 190091, Note_on_c, 0, 60, 41
1, 190095, Note_on_c, 0, 74, 80
1, 190109, Note_on_c, 0, 66, 65
1, 190216, Note_off_c, 0, 60, 57
1, 190222, Note_off_c, 0, 66, 50
1, 190226, Note_on_c, 0, 57, 59
1, 190375, Note_on_c, 0, 69, 60
1, 190378, Note_off_c, 0, 57, 34
1, 190405, Note_off_c, 0, 69, 67
1, 190434, Note_on_c, 0, 60, 53
1, 190436, Note_on_c, 0, 75, 87
1, 190460, Note_off_c, 0, 60, 64
1, 190460, Note_off_c, 0, 74, 36
1, 190507, Note_off_c, 0, 75, 61
1, 190622, Note_on_c, 0, 46, 71
1, 190673, Note_on_c, 0, 56, 70
1, 190684, Control_c, 0, 64, 103
1, 190699, Control_c, 0, 64, 73
1, 190708, Note_on_c, 0, 62, 42
1, 190714, Control_c, 0, 64, 0
1, 190729, Note_on_c, 0, 59, 56
1, 190737, Note_off_c, 0, 62, 56
1, 190741, Note_on_c, 0, 68, 63
1, 190744, Control_c, 0, 64, 54
1, 190758, Control_c, 0, 64, 69
1, 190774, Control_c, 0, 64, 81
1, 190789, Control_c, 0, 64, 95
1, 190798, Note_off_c, 0, 46, 61
1, 190804, Control_c, 0, 64, 111
1, 190806, Note_on_c, 0, 77, 84
1, 190806, Note_off_c, 0, 68, 61
1, 190819, Control_c, 0, 64, 127
1, 190839, Note_off_c, 0, 56, 60
1, 190858, Note_off_c, 0, 59, 60
1, 191020, Note_on_c, 0, 58, 62
1, 191143, Note_on_c, 0, 78, 88
1, 191148, Note_off_c, 0, 77, 64
1, 191198, Note_on_c, 0, 68, 57
1, 191299, Note_on_c, 0, 62, 54
1, 191418, Note_on_c, 0, 70, 63
1, 191452, Note_on_c, 0, 77, 78
1, 191463, Control_c, 0, 64, 98
1, 191478, Control_c, 0, 64, 72
1, 191479, Note_off_c, 0, 78, 63
1, 191493, Control_c, 0, 64, 46
1, 191507, Control_c, 0, 64, 23
1, 191507, Note_off_c, 0, 70, 62
1, 191522, Control_c, 0, 64, 62
1, 191529, Note_off_c, 0, 68, 59
1, 191537, Control_c, 0, 64, 72
1, 191544, Note_off_c, 0, 62, 56
1, 191552, Control_c, 0, 64, 84
1, 191567, Control_c, 0, 64, 104
1, 191573, Note_off_c, 0, 58, 62
1, 191582, Control_c, 0, 64, 127
1, 191823, Note_on_c, 0, 39, 53
1, 191856, Control_c, 0, 64, 90
1, 191871, Control_c, 0, 64, 69
1, 191876, Note_on_c, 0, 67, 56
1, 191886, Control_c, 0, 64, 0
1, 191916, Control_c, 0, 64, 44
1, 191930, Control_c, 0, 64, 67
1, 191935, Note_off_c, 0, 39, 59
1, 191945, Control_c, 0, 64, 82
1, 191960, Control_c, 0, 64, 100
1, 191972, Note_off_c, 0, 77, 61
1, 191975, Control_c, 0, 64, 127
1, 192243, Note_on_c, 0, 55, 31
1, 192315, Control_c, 0, 67, 9
1, 192330, Control_c, 0, 67, 13
1, 192332, Note_on_c, 0, 75, 66
1, 192345, Control_c, 0, 67, 17
1, 192351, Note_off_c, 0, 67, 54
1, 192360, Control_c, 0, 67, 22
1, 192369, Note_on_c, 0, 70, 38
1, 192375, Control_c, 0, 67, 27
1, 192388, Note_on_c, 0, 63, 36
1, 192390, Control_c, 0, 67, 32
1, 192405, Control_c, 0, 67, 38
1, 192420, Control_c, 0, 67, 46
1, 192435, Control_c, 0, 67, 58
1, 192457, Control_c, 0, 67, 70
1, 192472, Control_c, 0, 67, 84
1, 192486, Control_c, 0, 67, 97
1, 192501, Control_c, 0, 67, 110
1, 192516, Control_c, 0, 67, 123
1, 192531, Control_c, 0, 67, 127
1, 192548, Note_off_c, 0, 63, 34
1, 192561, Note_on_c, 0, 58, 32
1, 192585, Note_off_c, 0, 55, 35
1, 192682, Note_off_c, 0, 58, 32
1, 192831, Note_on_c, 0, 66, 40
1, 192842, Note_on_c, 0, 60, 37
1, 192857, Control_c, 0, 64, 109
1, 192871, Note_on_c, 0, 51, 31
1, 192871, Control_c, 0, 64, 90
1, 192886, Control_c, 0, 64, 75
1, 192901, Control_c, 0, 64, 53
1, 192916, Control_c, 0, 64, 0
1, 192975, Control_c, 0, 64, 52
1, 192989, Control_c, 0, 64, 67
1, 193004, Control_c, 0, 64, 75
1, 193019, Control_c, 0, 64, 82
1, 193034, Control_c, 0, 64, 89
1, 193049, Control_c, 0, 64, 95
1, 193063, Control_c, 0, 64, 101
1, 193078, Control_c, 0, 64, 106
1, 193093, Control_c, 0, 64, 112
1, 193108, Control_c, 0, 64, 116
1, 193112, Note_off_c, 0, 60, 38
1, 193114, Note_off_c, 0, 51, 45
1, 193120, Note_off_c, 0, 75, 32
1, 193123, Control_c, 0, 64, 122
1, 193138, Control_c, 0, 64, 127
1, 193420, Note_off_c, 0, 66, 42
1, 193517, Control_c, 0, 64, 107
1, 193531, Control_c, 0, 64, 89
1, 193546, Control_c, 0, 64, 70
1, 193552, Note_on_c, 0, 74, 51
1, 193561, Control_c, 0, 64, 0
1, 193563, Note_off_c, 0, 70, 45
1, 193570, Note_on_c, 0, 65, 37
1, 193575, Note_on_c, 0, 41, 37
1, 193620, Control_c, 0, 64, 60
1, 193621, Note_off_c, 0, 41, 59
1, 193635, Control_c, 0, 64, 71
1, 193650, Control_c, 0, 64, 84
1, 193653, Note_off_c, 0, 65, 62
1, 193656, Note_off_c, 0, 74, 61
1, 193665, Control_c, 0, 64, 103
1, 193680, Control_c, 0, 64, 115
1, 193694, Control_c, 0, 64, 116
1, 193709, Control_c, 0, 64, 117
1, 193724, Control_c, 0, 64, 117
1, 193812, Control_c, 0, 64, 116
1, 193827, Control_c, 0, 64, 107
1, 193842, Control_c, 0, 64, 90
1, 193857, Control_c, 0, 64, 69
1, 193872, Control_c, 0, 64, 0
1, 193873, Note_on_c, 0, 53, 49
1, 193879, Note_on_c, 0, 62, 36
1, 193883, Note_on_c, 0, 70, 18
1, 193901, Note_off_c, 0, 70, 34
1, 193912, Note_off_c, 0, 62, 51
1, 193920, Note_off_c, 0, 53, 62
1, 193933, Note_on_c, 0, 58, 60
1, 193973, Note_off_c, 0, 58, 65
1, 194008, Note_on_c, 0, 55, 47
1, 194078, Note_off_c, 0, 55, 62
1, 194095, Note_on_c, 0, 67, 55
1, 194098, Note_on_c, 0, 53, 48
1, 194104, Note_on_c, 0, 63, 41
1, 194104, Control_c, 0, 64, 71
1, 194118, Control_c, 0, 64, 89
1, 194127, Note_off_c, 0, 53, 57
1, 194132, Note_off_c, 0, 67, 62
1, 194133, Control_c, 0, 64, 124
1, 194136, Note_off_c, 0, 63, 53
1, 194148, Control_c, 0, 64, 127
1, 194311, Control_c, 0, 64, 104
1, 194325, Control_c, 0, 64, 75
1, 194340, Control_c, 0, 64, 0
1, 194347, Note_on_c, 0, 63, 63
1, 194360, Note_on_c, 0, 48, 50
1, 194363, Note_on_c, 0, 55, 43
1, 194379, Note_off_c, 0, 63, 65
1, 194394, Note_off_c, 0, 55, 52
1, 194715, Note_on_c, 0, 65, 52
1, 194742, Note_on_c, 0, 58, 38
1, 194763, Control_c, 0, 64, 50
1, 194778, Control_c, 0, 64, 67
1, 194793, Control_c, 0, 64, 74
1, 194807, Control_c, 0, 64, 81
1, 194822, Control_c, 0, 64, 88
1, 194837, Control_c, 0, 64, 92
1, 194852, Control_c, 0, 64, 96
1, 194866, Control_c, 0, 64, 100
1, 194875, Note_off_c, 0, 48, 57
1, 194881, Control_c, 0, 64, 106
1, 194896, Control_c, 0, 64, 114
1, 194911, Control_c, 0, 64, 127
1, 194960, Note_off_c, 0, 58, 37
1, 195088, Control_c, 0, 64, 90
1, 195103, Control_c, 0, 64, 71
1, 195118, Control_c, 0, 64, 21
1, 195133, Control_c, 0, 64, 0
1, 195138, Note_on_c, 0, 41, 34
1, 195139, Note_on_c, 0, 57, 40
1, 195162, Control_c, 0, 64, 65
1, 195177, Control_c, 0, 64, 77
1, 195190, Note_off_c, 0, 65, 53
1, 195192, Control_c, 0, 64, 89
1, 195207, Control_c, 0, 64, 97
1, 195209, Note_off_c, 0, 57, 50
1, 195222, Control_c, 0, 64, 99
1, 195237, Control_c, 0, 64, 101
1, 195266, Control_c, 0, 64, 101
1, 195272, Note_off_c, 0, 41, 34
1, 195281, Control_c, 0, 64, 102
1, 195296, Control_c, 0, 64, 102
1, 195311, Control_c, 0, 64, 103
1, 195326, Control_c, 0, 64, 103
1, 195366, Note_on_c, 0, 63, 52
1, 195399, Note_off_c, 0, 63, 65
1, 195408, Note_on_c, 0, 65, 62
1, 195451, Control_c, 0, 64, 103
1, 195466, Control_c, 0, 64, 102
1, 195468, Note_off_c, 0, 65, 56
1, 195481, Control_c, 0, 64, 101
1, 195487, Note_on_c, 0, 63, 55
1, 195496, Control_c, 0, 64, 100
1, 195511, Control_c, 0, 64, 99
1, 195517, Note_on_c, 0, 62, 62
1, 195523, Note_off_c, 0, 63, 61
1, 195526, Control_c, 0, 64, 98
1, 195551, Note_off_c, 0, 62, 62
1, 195561, Note_on_c, 0, 58, 36
1, 195598, Note_off_c, 0, 58, 54
1, 195615, Note_on_c, 0, 34, 33
1, 195630, Control_c, 0, 64, 98
1, 195645, Control_c, 0, 64, 95
1, 195660, Control_c, 0, 64, 84
1, 195675, Control_c, 0, 64, 73
1, 195689, Control_c, 0, 64, 57
1, 195704, Control_c, 0, 64, 0
1, 196005, Note_on_c, 0, 58, 49
1, 196017, Note_on_c, 0, 50, 36
1, 196044, Control_c, 0, 64, 45
1, 196059, Control_c, 0, 64, 70
1, 196074, Control_c, 0, 64, 83
1, 196077, Note_off_c, 0, 34, 54
1, 196089, Control_c, 0, 64, 98
1, 196103, Note_off_c, 0, 50, 63
1, 196104, Control_c, 0, 64, 111
1, 196119, Control_c, 0, 64, 127
1, 196157, Note_off_c, 0, 58, 37
1, 196348, Note_on_c, 0, 53, 39
1, 196368, Note_on_c, 0, 62, 22
1, 196387, Note_off_c, 0, 53, 53
1, 196416, Note_off_c, 0, 62, 47
1, 196445, Note_on_c, 0, 65, 50
1, 196489, Note_off_c, 0, 65, 59
1, 196571, Note_on_c, 0, 70, 52
1, 196583, Note_on_c, 0, 62, 42
1, 196628, Note_off_c, 0, 70, 53
1, 196641, Note_off_c, 0, 62, 56
1, 196837, Note_on_c, 0, 58, 41
1, 196838, Note_on_c, 0, 65, 40
1, 196875, Note_off_c, 0, 65, 63
1, 196894, Note_off_c, 0, 58, 51
1, 196897, Control_c, 0, 67, 123
1, 196912, Control_c, 0, 67, 112
1, 196927, Control_c, 0, 67, 98
1, 196949, Control_c, 0, 67, 85
1, 196963, Control_c, 0, 67, 73
1, 196978, Control_c, 0, 67, 60
1, 196993, Control_c, 0, 67, 48
1, 197008, Control_c, 0, 67, 36
1, 197023, Control_c, 0, 67, 21
1, 197037, Control_c, 0, 67, 9
1, 197052, Control_c, 0, 67, 0
1, 197106, Note_on_c, 0, 62, 40
1, 197115, Note_on_c, 0, 53, 46
1, 197138, Note_off_c, 0, 62, 55
1, 197165, Note_off_c, 0, 53, 65
1, 197389, Note_on_c, 0, 34, 73
1, 197394, Control_c, 0, 64, 112
1, 197408, Control_c, 0, 64, 81
1, 197423, Control_c, 0, 64, 61
1, 197438, Control_c, 0, 64, 0
1, 197482, Control_c, 0, 64, 50
1, 197497, Control_c, 0, 64, 66
1, 197512, Control_c, 0, 64, 74
1, 197527, Control_c, 0, 64, 79
1, 197541, Control_c, 0, 64, 84
1, 197556, Control_c, 0, 64, 87
1, 197571, Control_c, 0, 64, 92
1, 197586, Control_c, 0, 64, 98
1, 197600, Control_c, 0, 64, 104
1, 197615, Control_c, 0, 64, 110
1, 197630, Control_c, 0, 64, 123
1, 197645, Control_c, 0, 64, 127
1, 197698, Note_on_c, 0, 46, 71
1, 197711, Note_off_c, 0, 34, 58
1, 197735, Note_off_c, 0, 46, 64
1, 197975, Note_on_c, 0, 63, 70
1, 197978, Note_on_c, 0, 58, 62
1, 198064, Note_on_c, 0, 68, 74
1, 198088, Note_off_c, 0, 58, 57
1, 198129, Note_off_c, 0, 63, 53
1, 198145, Note_on_c, 0, 60, 20
1, 198161, Note_off_c, 0, 68, 54
1, 198204, Note_off_c, 0, 60, 0
1, 198204, Note_on_c, 0, 60, 30
1, 198236, Note_on_c, 0, 72, 81
1, 198237, Note_on_c, 0, 63, 71
1, 198279, Note_off_c, 0, 60, 60
1, 198299, Note_off_c, 0, 72, 60
1, 198322, Note_off_c, 0, 63, 61
1, 198579, Note_on_c, 0, 65, 77
1, 198623, Control_c, 0, 64, 100
1, 198638, Control_c, 0, 64, 81
1, 198653, Control_c, 0, 64, 68
1, 198668, Control_c, 0, 64, 47
1, 198682, Control_c, 0, 64, 0
1, 199011, Note_on_c, 0, 67, 78
1, 199033, Note_off_c, 0, 65, 58
1, 199408, Note_off_c, 0, 67, 57
1, 199409, Note_on_c, 0, 68, 67
1, 199422, Note_on_c, 0, 34, 47
1, 199476, Control_c, 0, 64, 24
1, 199491, Control_c, 0, 64, 67
1, 199505, Control_c, 0, 64, 76
1, 199520, Control_c, 0, 64, 83
1, 199532, Note_off_c, 0, 68, 61
1, 199535, Control_c, 0, 64, 89
1, 199550, Control_c, 0, 64, 94
1, 199566, Control_c, 0, 64, 103
1, 199573, Note_off_c, 0, 34, 59
1, 199581, Control_c, 0, 64, 111
1, 199596, Control_c, 0, 64, 124
1, 199610, Control_c, 0, 64, 127
1, 199835, Note_on_c, 0, 72, 48
1, 199855, Note_on_c, 0, 65, 69
1, 199938, Note_off_c, 0, 65, 56
1, 199958, Note_off_c, 0, 72, 55
1, 200009, Note_on_c, 0, 75, 15
1, 200015, Note_on_c, 0, 80, 54
1, 200057, Note_off_c, 0, 75, 53
1, 200069, Note_off_c, 0, 80, 58
1, 200076, Note_on_c, 0, 77, 64
1, 200098, Note_off_c, 0, 77, 64
1, 200119, Note_on_c, 0, 62, 66
1, 200146, Note_off_c, 0, 62, 64
1, 200155, Note_on_c, 0, 77, 52
1, 200176, Note_off_c, 0, 77, 64
1, 200230, Note_on_c, 0, 82, 69
1, 200268, Note_off_c, 0, 82, 54
1, 200325, Note_on_c, 0, 89, 66
1, 200346, Note_on_c, 0, 46, 64
1, 200354, Note_on_c, 0, 50, 52
1, 200375, Control_c, 0, 64, 114
1, 200388, Note_on_c, 0, 56, 66
1, 200390, Control_c, 0, 64, 79
1, 200404, Control_c, 0, 64, 40
1, 200419, Control_c, 0, 64, 0
1, 200426, Note_off_c, 0, 89, 59
1, 200433, Note_on_c, 0, 91, 67
1, 200440, Note_on_c, 0, 58, 79
1, 200449, Control_c, 0, 64, 58
1, 200463, Note_off_c, 0, 46, 59
1, 200464, Control_c, 0, 64, 74
1, 200477, Note_off_c, 0, 50, 62
1, 200478, Control_c, 0, 64, 88
1, 200480, Note_off_c, 0, 56, 60
1, 200493, Control_c, 0, 64, 104
1, 200505, Note_off_c, 0, 91, 65
1, 200508, Control_c, 0, 64, 122
1, 200512, Note_on_c, 0, 89, 66
1, 200523, Control_c, 0, 64, 127
1, 200525, Note_off_c, 0, 58, 61
1, 200552, Note_off_c, 0, 89, 60
1, 200566, Note_on_c, 0, 82, 69
1, 200618, Note_on_c, 0, 80, 66
1, 200638, Note_off_c, 0, 80, 67
1, 200650, Note_off_c, 0, 82, 0
1, 200650, Note_on_c, 0, 82, 16
1, 200674, Note_off_c, 0, 82, 56
1, 200701, Note_on_c, 0, 60, 76
1, 200701, Note_on_c, 0, 80, 79
1, 200772, Note_off_c, 0, 80, 59
1, 200801, Note_on_c, 0, 92, 70
1, 200823, Note_off_c, 0, 92, 63
1, 200862, Note_on_c, 0, 80, 61
1, 200882, Note_off_c, 0, 80, 65
1, 200960, Note_on_c, 0, 56, 83
1, 200983, Note_off_c, 0, 60, 64
1, 201026, Note_off_c, 0, 56, 66
1, 201037, Note_on_c, 0, 74, 63
1, 201067, Note_off_c, 0, 74, 67
1, 201121, Note_on_c, 0, 70, 50
1, 201143, Note_off_c, 0, 70, 59
1, 201362, Note_on_c, 0, 58, 70
1, 201375, Control_c, 0, 64, 118
1, 201382, Note_on_c, 0, 39, 45
1, 201390, Control_c, 0, 64, 80
1, 201405, Control_c, 0, 64, 40
1, 201420, Control_c, 0, 64, 0
1, 201487, Control_c, 0, 64, 61
1, 201502, Control_c, 0, 64, 74
1, 201516, Control_c, 0, 64, 90
1, 201521, Note_off_c, 0, 39, 59
1, 201531, Control_c, 0, 64, 108
1, 201545, Control_c, 0, 64, 116
1, 201559, Control_c, 0, 64, 119
1, 201574, Control_c, 0, 64, 127
1, 201590, Note_off_c, 0, 58, 56
1, 201672, Note_on_c, 0, 63, 54
1, 201725, Note_off_c, 0, 63, 54
1, 201745, Note_on_c, 0, 68, 58
1, 201753, Control_c, 0, 64, 115
1, 201758, Note_on_c, 0, 56, 66
1, 201767, Control_c, 0, 64, 93
1, 201768, Note_off_c, 0, 68, 63
1, 201782, Control_c, 0, 64, 75
1, 201786, Note_off_c, 0, 56, 66
1, 201797, Control_c, 0, 64, 38
1, 201801, Note_on_c, 0, 58, 69
1, 201812, Control_c, 0, 64, 0
1, 201844, Note_off_c, 0, 58, 61
1, 201849, Note_on_c, 0, 56, 66
1, 201865, Note_on_c, 0, 70, 56
1, 201882, Note_off_c, 0, 56, 65
1, 201905, Note_off_c, 0, 70, 58
1, 201917, Note_on_c, 0, 55, 58
1, 201958, Note_on_c, 0, 75, 50
1, 202009, Note_off_c, 0, 75, 55
1, 202020, Control_c, 0, 64, 50
1, 202035, Control_c, 0, 64, 72
1, 202049, Control_c, 0, 64, 81
1, 202054, Note_on_c, 0, 82, 49
1, 202058, Note_off_c, 0, 55, 64
1, 202064, Control_c, 0, 64, 93
1, 202079, Control_c, 0, 64, 106
1, 202094, Control_c, 0, 64, 127
1, 202132, Note_on_c, 0, 72, 58
1, 202153, Note_off_c, 0, 72, 65
1, 202216, Note_off_c, 0, 82, 52
1, 202254, Note_on_c, 0, 34, 63
1, 202261, Note_on_c, 0, 87, 69
1, 202292, Note_off_c, 0, 34, 61
1, 202309, Note_on_c, 0, 79, 48
1, 202335, Note_off_c, 0, 87, 61
1, 202346, Note_off_c, 0, 79, 49
1, 202412, Note_on_c, 0, 84, 49
1, 202458, Note_off_c, 0, 84, 61
1, 202471, Note_on_c, 0, 82, 69
1, 202482, Note_on_c, 0, 51, 41
1, 202501, Note_on_c, 0, 58, 66
1, 202519, Note_off_c, 0, 51, 55
1, 202549, Note_off_c, 0, 82, 62
1, 202554, Note_on_c, 0, 80, 68
1, 202559, Note_off_c, 0, 58, 58
1, 202572, Note_on_c, 0, 65, 84
1, 202608, Note_off_c, 0, 80, 61
1, 202641, Note_on_c, 0, 77, 73
1, 202674, Note_off_c, 0, 77, 59
1, 202695, Note_on_c, 0, 79, 61
1, 202716, Note_off_c, 0, 79, 63
1, 202740, Note_on_c, 0, 77, 66
1, 202764, Note_off_c, 0, 77, 65
1, 202815, Note_off_c, 0, 65, 58
1, 202831, Note_on_c, 0, 75, 59
1, 202847, Note_on_c, 0, 67, 94
1, 202862, Note_off_c, 0, 75, 64
1, 202881, Note_off_c, 0, 67, 66
1, 202920, Note_on_c, 0, 70, 64
1, 202979, Note_off_c, 0, 70, 58
1, 202990, Note_on_c, 0, 75, 60
1, 203029, Note_on_c, 0, 82, 61
1, 203103, Note_off_c, 0, 82, 55
1, 203169, Note_on_c, 0, 34, 75
1, 203181, Note_off_c, 0, 75, 51
1, 203205, Control_c, 0, 64, 87
1, 203220, Control_c, 0, 64, 54
1, 203234, Note_on_c, 0, 68, 84
1, 203235, Control_c, 0, 64, 0
1, 203265, Control_c, 0, 64, 48
1, 203279, Control_c, 0, 64, 73
1, 203284, Note_off_c, 0, 68, 62
1, 203294, Control_c, 0, 64, 89
1, 203306, Note_off_c, 0, 34, 59
1, 203309, Control_c, 0, 64, 114
1, 203324, Control_c, 0, 64, 127
1, 203371, Note_on_c, 0, 84, 47
1, 203431, Note_off_c, 0, 84, 62
1, 203435, Poly_aftertouch_c, 0, 83, 127
1, 203469, Poly_aftertouch_c, 0, 83, 0
1, 203486, Note_on_c, 0, 75, 56
1, 203525, Note_off_c, 0, 75, 58
1, 203561, Note_on_c, 0, 80, 63
1, 203601, Note_off_c, 0, 80, 54
1, 203631, Note_on_c, 0, 65, 87
1, 203652, Note_on_c, 0, 72, 62
1, 203717, Note_off_c, 0, 72, 54
1, 203722, Note_off_c, 0, 65, 57
1, 203732, Note_on_c, 0, 75, 70
1, 203791, Note_off_c, 0, 75, 62
1, 203801, Note_on_c, 0, 80, 62
1, 203854, Note_off_c, 0, 80, 58
1, 203857, Note_on_c, 0, 79, 70
1, 203857, Note_on_c, 0, 77, 51
1, 203880, Note_off_c, 0, 79, 68
1, 203881, Note_off_c, 0, 77, 61
1, 203885, Note_on_c, 0, 62, 82
1, 203908, Note_off_c, 0, 62, 67
1, 203918, Note_on_c, 0, 77, 71
1, 203963, Note_off_c, 0, 77, 58
1, 204003, Note_on_c, 0, 82, 72
1, 204028, Note_off_c, 0, 82, 66
1, 204074, Note_on_c, 0, 46, 59
1, 204084, Note_on_c, 0, 89, 67
1, 204093, Note_on_c, 0, 50, 64
1, 204118, Control_c, 0, 64, 80
1, 204120, Note_on_c, 0, 56, 72
1, 204133, Control_c, 0, 64, 24
1, 204147, Control_c, 0, 64, 0
1, 204157, Note_on_c, 0, 58, 87
1, 204164, Note_on_c, 0, 91, 80
1, 204164, Note_off_c, 0, 89, 62
1, 204177, Control_c, 0, 64, 42
1, 204186, Note_off_c, 0, 46, 60
1, 204191, Note_off_c, 0, 56, 65
1, 204192, Control_c, 0, 64, 69
1, 204200, Note_off_c, 0, 50, 65
1, 204207, Control_c, 0, 64, 83
1, 204221, Control_c, 0, 64, 101
1, 204234, Note_off_c, 0, 91, 65
1, 204236, Control_c, 0, 64, 119
1, 204251, Control_c, 0, 64, 127
1, 204269, Note_off_c, 0, 58, 61
1, 204278, Note_on_c, 0, 82, 74
1, 204299, Note_off_c, 0, 82, 69
1, 204311, Poly_aftertouch_c, 0, 89, 0
1, 204329, Note_on_c, 0, 80, 62
1, 204348, Note_off_c, 0, 80, 65
1, 204367, Note_on_c, 0, 82, 47
1, 204389, Note_off_c, 0, 82, 59
1, 204404, Note_on_c, 0, 80, 86
1, 204406, Note_on_c, 0, 60, 85
1, 204475, Note_off_c, 0, 80, 62
1, 204504, Note_on_c, 0, 92, 75
1, 204546, Note_off_c, 0, 92, 62
1, 204570, Note_on_c, 0, 80, 67
1, 204585, Note_off_c, 0, 80, 69
1, 204648, Note_on_c, 0, 77, 72
1, 204654, Note_on_c, 0, 56, 86
1, 204663, Note_off_c, 0, 60, 64
1, 204675, Note_off_c, 0, 77, 67
1, 204704, Note_off_c, 0, 56, 67
1, 204715, Note_on_c, 0, 74, 71
1, 204739, Note_off_c, 0, 74, 70
1, 204898, Note_on_c, 0, 39, 62
1, 204959, Note_on_c, 0, 46, 65
1, 204985, Control_c, 0, 64, 111
1, 204992, Note_on_c, 0, 51, 68
1, 204993, Note_on_c, 0, 68, 64
1, 205000, Control_c, 0, 64, 81
1, 205011, Note_on_c, 0, 58, 71
1, 205015, Control_c, 0, 64, 59
1, 205030, Control_c, 0, 64, 0
1, 205118, Control_c, 0, 64, 71
1, 205127, Note_off_c, 0, 58, 57
1, 205133, Control_c, 0, 64, 86
1, 205136, Note_off_c, 0, 68, 59
1, 205149, Control_c, 0, 64, 104
1, 205152, Note_off_c, 0, 46, 58
1, 205154, Note_off_c, 0, 39, 59
1, 205164, Control_c, 0, 64, 118
1, 205167, Note_on_c, 0, 63, 63
1, 205182, Note_off_c, 0, 51, 64
1, 205187, Control_c, 0, 64, 119
1, 205201, Control_c, 0, 64, 124
1, 205211, Note_off_c, 0, 63, 61
1, 205216, Control_c, 0, 64, 127
1, 205252, Note_on_c, 0, 58, 65
1, 205289, Note_off_c, 0, 58, 57
1, 205289, Control_c, 0, 64, 121
1, 205304, Control_c, 0, 64, 104
1, 205311, Note_on_c, 0, 63, 68
1, 205319, Control_c, 0, 64, 86
1, 205334, Control_c, 0, 64, 68
1, 205348, Control_c, 0, 64, 0
1, 205350, Note_off_c, 0, 63, 56
1, 205362, Note_on_c, 0, 68, 68
1, 205395, Note_on_c, 0, 56, 59
1, 205422, Note_off_c, 0, 56, 64
1, 205423, Note_off_c, 0, 68, 61
1, 205429, Note_on_c, 0, 58, 77
1, 205461, Note_on_c, 0, 70, 9
1, 205462, Note_off_c, 0, 70, 127
1, 205481, Note_off_c, 0, 58, 63
1, 205492, Note_on_c, 0, 56, 65
1, 205544, Note_off_c, 0, 56, 54
1, 205556, Note_on_c, 0, 55, 59
1, 205571, Note_on_c, 0, 70, 60
1, 205630, Control_c, 0, 64, 68
1, 205645, Control_c, 0, 64, 79
1, 205654, Note_off_c, 0, 70, 51
1, 205660, Control_c, 0, 64, 88
1, 205668, Note_off_c, 0, 55, 64
1, 205674, Control_c, 0, 64, 94
1, 205675, Note_on_c, 0, 75, 58
1, 205689, Control_c, 0, 64, 102
1, 205704, Control_c, 0, 64, 117
1, 205719, Control_c, 0, 64, 127
1, 205733, Note_off_c, 0, 75, 59
1, 205744, Note_on_c, 0, 82, 62
1, 205844, Note_on_c, 0, 39, 62
1, 205848, Note_off_c, 0, 82, 55
1, 205852, Note_on_c, 0, 84, 61
1, 205866, Note_on_c, 0, 77, 60
1, 205880, Note_off_c, 0, 39, 59
1, 205935, Note_off_c, 0, 84, 59
1, 205947, Note_off_c, 0, 77, 51
1, 205971, Note_on_c, 0, 79, 65
1, 206030, Note_off_c, 0, 79, 60
1, 206062, Note_on_c, 0, 82, 69
1, 206090, Note_off_c, 0, 82, 64
1, 206134, Note_on_c, 0, 58, 89
1, 206179, Note_on_c, 0, 89, 72
1, 206194, Note_on_c, 0, 79, 52
1, 206221, Note_off_c, 0, 79, 56
1, 206247, Note_off_c, 0, 89, 56
1, 206266, Note_on_c, 0, 82, 72
1, 206340, Note_off_c, 0, 82, 60
1, 206365, Note_on_c, 0, 87, 67
1, 206411, Note_off_c, 0, 87, 53
1, 206463, Note_on_c, 0, 60, 84
1, 206463, Note_off_c, 0, 58, 27
1, 206504, Note_off_c, 0, 60, 64
1, 206524, Note_on_c, 0, 82, 65
1, 206577, Note_off_c, 0, 82, 51
1, 206607, Note_on_c, 0, 87, 67
1, 206663, Note_off_c, 0, 87, 60
1, 206678, Note_on_c, 0, 46, 67
1, 206720, Note_on_c, 0, 51, 67
1, 206727, Control_c, 0, 64, 101
1, 206728, Note_on_c, 0, 94, 55
1, 206742, Control_c, 0, 64, 76
1, 206755, Note_on_c, 0, 55, 67
1, 206758, Control_c, 0, 64, 56
1, 206772, Control_c, 0, 64, 0
1, 206802, Control_c, 0, 64, 52
1, 206817, Note_off_c, 0, 46, 61
1, 206817, Control_c, 0, 64, 68
1, 206832, Control_c, 0, 64, 80
1, 206847, Note_on_c, 0, 61, 86
1, 206847, Control_c, 0, 64, 92
1, 206855, Note_off_c, 0, 55, 63
1, 206855, Note_off_c, 0, 94, 63
1, 206859, Note_on_c, 0, 96, 67
1, 206862, Control_c, 0, 64, 106
1, 206877, Control_c, 0, 64, 113
1, 206882, Note_off_c, 0, 51, 62
1, 206892, Control_c, 0, 64, 119
1, 206907, Control_c, 0, 64, 127
1, 206942, Note_off_c, 0, 96, 65
1, 206969, Note_on_c, 0, 94, 52
1, 206991, Note_off_c, 0, 94, 60
1, 207014, Note_off_c, 0, 61, 57
1, 207097, Note_on_c, 0, 87, 57
1, 207110, Note_on_c, 0, 63, 89
1, 207128, Note_off_c, 0, 87, 65
1, 207143, Note_on_c, 0, 64, 69
1, 207148, Poly_aftertouch_c, 0, 85, 0
1, 207150, Note_on_c, 0, 84, 73
1, 207167, Note_off_c, 0, 63, 58
1, 207170, Note_off_c, 0, 64, 68
1, 207201, Note_off_c, 0, 84, 62
1, 207239, Note_on_c, 0, 82, 68
1, 207276, Note_off_c, 0, 82, 55
1, 207299, Note_on_c, 0, 80, 68
1, 207327, Note_on_c, 0, 65, 70
1, 207357, Note_off_c, 0, 65, 65
1, 207362, Note_off_c, 0, 80, 63
1, 207377, Note_on_c, 0, 79, 74
1, 207405, Note_off_c, 0, 79, 62
1, 207448, Note_on_c, 0, 77, 74
1, 207461, Control_c, 0, 64, 82
1, 207476, Control_c, 0, 64, 0
1, 207482, Note_on_c, 0, 51, 68
1, 207497, Note_off_c, 0, 77, 62
1, 207500, Note_on_c, 0, 60, 72
1, 207521, Control_c, 0, 64, 28
1, 207529, Note_on_c, 0, 75, 72
1, 207536, Control_c, 0, 64, 78
1, 207544, Note_off_c, 0, 51, 64
1, 207551, Control_c, 0, 64, 127
1, 207566, Note_off_c, 0, 60, 63
1, 207582, Note_off_c, 0, 75, 61
1, 207604, Note_on_c, 0, 68, 83
1, 207629, Note_on_c, 0, 72, 53
1, 207657, Note_off_c, 0, 72, 51
1, 207661, Note_off_c, 0, 68, 62
1, 207677, Note_on_c, 0, 75, 75
1, 207711, Note_off_c, 0, 75, 60
1, 207750, Note_on_c, 0, 82, 67
1, 207825, Note_on_c, 0, 70, 95
1, 207825, Note_on_c, 0, 80, 75
1, 207825, Note_off_c, 0, 82, 61
1, 207873, Note_off_c, 0, 80, 59
1, 207923, Note_on_c, 0, 75, 68
1, 207965, Note_off_c, 0, 75, 59
1, 207980, Note_on_c, 0, 80, 70
1, 208001, Note_off_c, 0, 80, 69
1, 208051, Note_off_c, 0, 70, 57
1, 208069, Note_on_c, 0, 75, 88
1, 208109, Note_off_c, 0, 75, 62
1, 208116, Note_on_c, 0, 86, 52
1, 208119, Note_on_c, 0, 84, 48
1, 208142, Note_off_c, 0, 84, 60
1, 208150, Note_off_c, 0, 86, 57
1, 208224, Note_on_c, 0, 88, 24
1, 208265, Note_off_c, 0, 88, 44
1, 208266, Note_on_c, 0, 92, 60
1, 208272, Note_on_c, 0, 58, 63
1, 208299, Control_c, 0, 64, 82
1, 208314, Control_c, 0, 64, 26
1, 208329, Control_c, 0, 64, 0
1, 208331, Note_on_c, 0, 65, 58
1, 208359, Control_c, 0, 64, 56
1, 208364, Note_off_c, 0, 58, 62
1, 208373, Note_on_c, 0, 68, 71
1, 208374, Control_c, 0, 64, 73
1, 208389, Control_c, 0, 64, 86
1, 208394, Note_off_c, 0, 65, 63
1, 208404, Control_c, 0, 64, 105
1, 208407, Note_on_c, 0, 94, 67
1, 208411, Note_off_c, 0, 92, 57
1, 208412, Note_on_c, 0, 74, 85
1, 208419, Control_c, 0, 64, 121
1, 208423, Note_off_c, 0, 68, 63
1, 208433, Control_c, 0, 64, 127
1, 208466, Note_off_c, 0, 74, 64
1, 208496, Note_on_c, 0, 96, 71
1, 208507, Note_off_c, 0, 94, 60
1, 208546, Note_off_c, 0, 96, 66
1, 208568, Note_on_c, 0, 89, 67
1, 208598, Note_off_c, 0, 89, 61
1, 208640, Note_on_c, 0, 72, 70
1, 208643, Note_on_c, 0, 87, 75
1, 208692, Note_off_c, 0, 87, 65
1, 208693, Note_on_c, 0, 70, 69
1, 208701, Note_off_c, 0, 72, 57
1, 208706, Note_on_c, 0, 86, 71
1, 208731, Note_off_c, 0, 86, 69
1, 208764, Note_off_c, 0, 70, 59
1, 208767, Note_on_c, 0, 84, 68
1, 208779, Note_on_c, 0, 68, 62
1, 208798, Note_off_c, 0, 84, 59
1, 208837, Note_off_c, 0, 68, 59
1, 208850, Note_on_c, 0, 65, 57
1, 208851, Note_on_c, 0, 82, 78
1, 208873, Note_off_c, 0, 65, 63
1, 208905, Note_off_c, 0, 82, 64
1, 208928, Note_on_c, 0, 80, 77
1, 208984, Note_off_c, 0, 80, 61
1, 209027, Note_on_c, 0, 74, 76
1, 209049, Note_off_c, 0, 74, 71
1, 209137, Control_c, 0, 64, 121
1, 209153, Control_c, 0, 64, 80
1, 209159, Note_on_c, 0, 34, 86
1, 209168, Control_c, 0, 64, 17
1, 209182, Control_c, 0, 64, 0
1, 209188, Note_on_c, 0, 68, 77
1, 209195, Note_on_c, 0, 65, 68
1, 209197, Control_c, 0, 64, 60
1, 209212, Control_c, 0, 64, 74
1, 209217, Note_off_c, 0, 34, 61
1, 209227, Control_c, 0, 64, 90
1, 209229, Note_off_c, 0, 65, 62
1, 209242, Control_c, 0, 64, 116
1, 209256, Control_c, 0, 64, 127
1, 209268, Note_off_c, 0, 68, 53
1, 209306, Note_on_c, 0, 67, 74
1, 209308, Note_on_c, 0, 70, 71
1, 209351, Note_off_c, 0, 67, 55
1, 209374, Note_off_c, 0, 70, 63
1, 209386, Note_on_c, 0, 68, 65
1, 209387, Note_on_c, 0, 46, 67
1, 209396, Note_on_c, 0, 72, 56
1, 209408, Note_off_c, 0, 68, 70
1, 209416, Note_off_c, 0, 72, 64
1, 209447, Note_on_c, 0, 56, 79
1, 209503, Note_off_c, 0, 46, 59
1, 209518, Note_on_c, 0, 58, 102
1, 209523, Control_c, 0, 64, 124
1, 209538, Control_c, 0, 64, 91
1, 209540, Note_off_c, 0, 56, 64
1, 209543, Note_on_c, 0, 65, 75
1, 209553, Control_c, 0, 64, 85
1, 209554, Note_on_c, 0, 74, 68
1, 209567, Control_c, 0, 64, 87
1, 209578, Note_off_c, 0, 58, 61
1, 209582, Control_c, 0, 64, 94
1, 209597, Control_c, 0, 64, 106
1, 209607, Note_off_c, 0, 65, 55
1, 209612, Control_c, 0, 64, 127
1, 209627, Note_off_c, 0, 74, 63
1, 209631, Note_on_c, 0, 72, 66
1, 209635, Note_on_c, 0, 75, 70
1, 209709, Note_off_c, 0, 72, 63
1, 209713, Note_on_c, 0, 77, 72
1, 209715, Note_off_c, 0, 75, 61
1, 209736, Note_off_c, 0, 77, 70
1, 209767, Control_c, 0, 64, 86
1, 209780, Note_on_c, 0, 60, 93
1, 209781, Control_c, 0, 64, 63
1, 209796, Control_c, 0, 64, 0
1, 209811, Control_c, 0, 64, 63
1, 209813, Note_on_c, 0, 75, 83
1, 209817, Note_on_c, 0, 80, 79
1, 209823, Note_off_c, 0, 60, 66
1, 209826, Control_c, 0, 64, 84
1, 209840, Control_c, 0, 64, 127
1, 209861, Note_off_c, 0, 75, 61
1, 209897, Note_on_c, 0, 82, 66
1, 209897, Note_off_c, 0, 80, 59
1, 209928, Note_on_c, 0, 77, 72
1, 209949, Note_on_c, 0, 87, 73
1, 209951, Note_off_c, 0, 82, 65
1, 209964, Note_on_c, 0, 46, 71
1, 209972, Note_off_c, 0, 87, 71
1, 209978, Note_off_c, 0, 77, 64
1, 210022, Note_on_c, 0, 51, 84
1, 210049, Control_c, 0, 64, 110
1, 210064, Control_c, 0, 64, 73
1, 210067, Note_on_c, 0, 55, 74
1, 210070, Note_off_c, 0, 46, 61
1, 210078, Control_c, 0, 64, 0
1, 210108, Control_c, 0, 64, 31
1, 210123, Control_c, 0, 64, 86
1, 210125, Note_on_c, 0, 61, 105
1, 210138, Control_c, 0, 64, 127
1, 210148, Note_on_c, 0, 67, 81
1, 210151, Note_off_c, 0, 51, 63
1, 210156, Note_on_c, 0, 75, 65
1, 210156, Note_off_c, 0, 55, 64
1, 210199, Note_off_c, 0, 67, 58
1, 210260, Note_off_c, 0, 75, 0
1, 210260, Note_on_c, 0, 75, 12
1, 210262, Note_off_c, 0, 61, 53
1, 210265, Note_on_c, 0, 73, 72
1, 210278, Note_off_c, 0, 75, 56
1, 210280, Note_on_c, 0, 77, 64
1, 210321, Note_off_c, 0, 73, 63
1, 210340, Note_off_c, 0, 77, 60
1, 210341, Note_on_c, 0, 79, 67
1, 210380, Note_off_c, 0, 79, 51
1, 210394, Note_on_c, 0, 63, 94
1, 210400, Note_on_c, 0, 75, 77
1, 210440, Note_off_c, 0, 75, 60
1, 210443, Note_off_c, 0, 63, 65
1, 210454, Note_on_c, 0, 79, 40
1, 210488, Note_off_c, 0, 79, 53
1, 210507, Poly_aftertouch_c, 0, 77, 127
1, 210525, Note_on_c, 0, 77, 13
1, 210548, Note_on_c, 0, 80, 46
1, 210567, Note_on_c, 0, 51, 61
1, 210576, Note_off_c, 0, 77, 59
1, 210595, Note_off_c, 0, 80, 47
1, 210600, Note_on_c, 0, 55, 69
1, 210604, Control_c, 0, 64, 88
1, 210615, Note_on_c, 0, 58, 66
1, 210619, Control_c, 0, 64, 64
1, 210634, Control_c, 0, 64, 0
1, 210636, Note_on_c, 0, 82, 55
1, 210637, Note_on_c, 0, 61, 66
1, 210638, Note_off_c, 0, 51, 64
1, 210648, Note_off_c, 0, 55, 59
1, 210649, Control_c, 0, 64, 58
1, 210655, Note_on_c, 0, 65, 94
1, 210663, Control_c, 0, 64, 76
1, 210677, Note_on_c, 0, 79, 34
1, 210678, Control_c, 0, 64, 116
1, 210680, Note_off_c, 0, 61, 61
1, 210684, Note_off_c, 0, 82, 0
1, 210684, Note_on_c, 0, 82, 39
1, 210684, Note_off_c, 0, 58, 62
1, 210693, Control_c, 0, 64, 127
1, 210701, Note_off_c, 0, 65, 65
1, 210721, Note_off_c, 0, 79, 63
1, 210740, Note_off_c, 0, 82, 61
1, 210743, Note_on_c, 0, 80, 70
1, 210785, Note_on_c, 0, 84, 72
1, 210796, Note_off_c, 0, 80, 63
1, 210804, Note_on_c, 0, 78, 64
1, 210822, Note_on_c, 0, 51, 75
1, 210823, Note_on_c, 0, 79, 69
1, 210826, Note_off_c, 0, 78, 60
1, 210835, Note_off_c, 0, 84, 58
1, 210842, Control_c, 0, 64, 83
1, 210857, Control_c, 0, 64, 54
1, 210860, Note_on_c, 0, 60, 76
1, 210860, Note_off_c, 0, 79, 62
1, 210872, Control_c, 0, 64, 0
1, 210878, Note_off_c, 0, 51, 65
1, 210886, Note_on_c, 0, 82, 41
1, 210887, Control_c, 0, 64, 68
1, 210901, Control_c, 0, 64, 92
1, 210907, Note_on_c, 0, 72, 77
1, 210908, Note_off_c, 0, 60, 65
1, 210913, Note_on_c, 0, 68, 94
1, 210916, Control_c, 0, 64, 127
1, 210926, Note_on_c, 0, 79, 15
1, 210927, Note_on_c, 0, 80, 69
1, 210952, Note_on_c, 0, 74, 21
1, 210954, Note_off_c, 0, 82, 0
1, 210954, Note_on_c, 0, 82, 18
1, 210956, Note_off_c, 0, 72, 58
1, 210975, Note_off_c, 0, 79, 50
1, 210995, Note_off_c, 0, 74, 57
1, 211042, Note_on_c, 0, 84, 82
1, 211045, Note_off_c, 0, 80, 64
1, 211051, Note_off_c, 0, 82, 58
1, 211070, Note_off_c, 0, 84, 64
1, 211077, Note_off_c, 0, 68, 54
1, 211146, Note_on_c, 0, 80, 83
1, 211148, Note_on_c, 0, 70, 95
1, 211169, Note_on_c, 0, 87, 85
1, 211198, Note_off_c, 0, 80, 64
1, 211219, Note_off_c, 0, 87, 62
1, 211250, Note_on_c, 0, 92, 87
1, 211313, Note_off_c, 0, 92, 66
1, 211327, Note_on_c, 0, 86, 57
1, 211346, Note_off_c, 0, 86, 63
1, 211368, Control_c, 0, 64, 119
1, 211383, Control_c, 0, 64, 79
1, 211398, Control_c, 0, 64, 61
1, 211404, Note_on_c, 0, 75, 87
1, 211408, Note_on_c, 0, 84, 83
1, 211412, Control_c, 0, 64, 63
1, 211419, Note_off_c, 0, 70, 61
1, 211420, Note_on_c, 0, 92, 67
1, 211427, Control_c, 0, 64, 74
1, 211432, Note_off_c, 0, 75, 64
1, 211434, Note_on_c, 0, 93, 60
1, 211438, Note_off_c, 0, 92, 66
1, 211438, Note_on_c, 0, 90, 40
1, 211438, Note_off_c, 0, 84, 60
1, 211442, Control_c, 0, 64, 105
1, 211445, Note_on_c, 0, 86, 25
1, 211446, Note_off_c, 0, 86, 127
1, 211454, Note_off_c, 0, 93, 63
1, 211457, Control_c, 0, 64, 127
1, 211472, Note_off_c, 0, 90, 35
1, 211508, Note_on_c, 0, 94, 88
1, 211509, Note_on_c, 0, 91, 89
1, 211565, Note_off_c, 0, 91, 60
1, 211577, Note_off_c, 0, 94, 63
1, 211595, Note_on_c, 0, 58, 76
1, 211601, Note_on_c, 0, 95, 79
1, 211620, Note_on_c, 0, 65, 76
1, 211635, Control_c, 0, 64, 76
1, 211650, Note_off_c, 0, 58, 62
1, 211650, Control_c, 0, 64, 0
1, 211655, Note_on_c, 0, 68, 76
1, 211664, Note_off_c, 0, 95, 65
1, 211680, Control_c, 0, 64, 62
1, 211687, Note_off_c, 0, 65, 62
1, 211695, Control_c, 0, 64, 79
1, 211709, Control_c, 0, 64, 104
1, 211723, Note_off_c, 0, 68, 62
1, 211724, Control_c, 0, 64, 127
1, 211727, Note_on_c, 0, 74, 91
1, 211731, Note_on_c, 0, 92, 88
1, 211731, Note_on_c, 0, 96, 97
1, 211778, Note_off_c, 0, 74, 62
1, 211815, Note_on_c, 0, 91, 85
1, 211817, Note_off_c, 0, 92, 65
1, 211824, Note_off_c, 0, 96, 65
1, 211860, Note_off_c, 0, 91, 66
1, 211879, Note_on_c, 0, 89, 84
1, 211955, Note_on_c, 0, 92, 85
1, 211956, Note_on_c, 0, 72, 78
1, 211959, Note_on_c, 0, 87, 87
1, 211963, Note_off_c, 0, 89, 37
1, 212028, Note_on_c, 0, 86, 86
1, 212029, Note_off_c, 0, 72, 59
1, 212031, Note_off_c, 0, 87, 64
1, 212031, Note_on_c, 0, 70, 73
1, 212031, Note_off_c, 0, 92, 55
1, 212054, Note_off_c, 0, 70, 69
1, 212058, Note_on_c, 0, 68, 53
1, 212070, Note_off_c, 0, 86, 67
1, 212079, Note_off_c, 0, 68, 62
1, 212083, Note_on_c, 0, 84, 81
1, 212110, Note_off_c, 0, 84, 64
1, 212161, Note_on_c, 0, 84, 75
1, 212164, Note_on_c, 0, 80, 83
1, 212169, Note_on_c, 0, 65, 45
1, 212176, Note_on_c, 0, 56, 60
1, 212195, Note_off_c, 0, 65, 59
1, 212199, Note_off_c, 0, 56, 62
1, 212225, Note_off_c, 0, 84, 44
1, 212239, Note_off_c, 0, 80, 62
1, 212243, Note_on_c, 0, 79, 63
1, 212244, Note_on_c, 0, 82, 77
1, 212267, Note_on_c, 0, 81, 44
1, 212289, Note_off_c, 0, 79, 61
1, 212293, Note_off_c, 0, 81, 59
1, 212302, Note_off_c, 0, 82, 63
1, 212314, Note_on_c, 0, 77, 76
1, 212337, Note_off_c, 0, 77, 71
1, 212349, Poly_aftertouch_c, 0, 80, 127
1, 212354, Control_c, 0, 64, 94
1, 212369, Control_c, 0, 64, 67
1, 212371, Poly_aftertouch_c, 0, 80, 0
1, 212381, Note_on_c, 0, 34, 79
1, 212383, Control_c, 0, 64, 0
1, 212389, Note_on_c, 0, 75, 78
1, 212398, Control_c, 0, 64, 38
1, 212401, Note_on_c, 0, 79, 62
1, 212410, Note_off_c, 0, 34, 65
1, 212413, Control_c, 0, 64, 68
1, 212428, Control_c, 0, 64, 86
1, 212443, Control_c, 0, 64, 127
1, 212455, Note_off_c, 0, 75, 58
1, 212457, Note_off_c, 0, 79, 39
1, 212477, Note_on_c, 0, 74, 71
1, 212478, Note_on_c, 0, 77, 57
1, 212525, Note_off_c, 0, 74, 60
1, 212541, Note_off_c, 0, 77, 62
1, 212548, Note_on_c, 0, 75, 54
1, 212556, Note_on_c, 0, 72, 73
1, 212569, Note_off_c, 0, 75, 63
1, 212577, Note_off_c, 0, 72, 70
1, 212664, Note_on_c, 0, 72, 75
1, 212666, Note_on_c, 0, 68, 74
1, 212670, Note_on_c, 0, 62, 68
1, 212675, Note_on_c, 0, 53, 64
1, 212695, Note_on_c, 0, 58, 54
1, 212702, Note_on_c, 0, 56, 55
1, 212717, Control_c, 0, 64, 100
1, 212731, Control_c, 0, 64, 75
1, 212746, Control_c, 0, 64, 62
1, 212758, Note_off_c, 0, 68, 61
1, 212761, Control_c, 0, 64, 63
1, 212765, Note_on_c, 0, 67, 75
1, 212775, Note_off_c, 0, 72, 60
1, 212777, Control_c, 0, 64, 72
1, 212784, Note_on_c, 0, 70, 74
1, 212791, Control_c, 0, 64, 84
1, 212806, Control_c, 0, 64, 99
1, 212821, Control_c, 0, 64, 121
1, 212836, Control_c, 0, 64, 127
1, 212839, Note_off_c, 0, 67, 59
1, 212860, Note_on_c, 0, 65, 83
1, 212861, Note_off_c, 0, 70, 61
1, 212876, Note_on_c, 0, 68, 68
1, 212915, Note_off_c, 0, 68, 57
1, 212935, Note_off_c, 0, 65, 58
1, 212999, Control_c, 0, 64, 118
1, 213014, Control_c, 0, 64, 91
1, 213029, Control_c, 0, 64, 71
1, 213044, Control_c, 0, 64, 0
1, 213056, Note_on_c, 0, 68, 61
1, 213062, Note_on_c, 0, 65, 72
1, 213088, Control_c, 0, 64, 46
1, 213092, Note_off_c, 0, 68, 62
1, 213103, Control_c, 0, 64, 66
1, 213117, Control_c, 0, 64, 76
1, 213133, Control_c, 0, 64, 85
1, 213148, Note_off_c, 0, 65, 57
1, 213148, Control_c, 0, 64, 93
1, 213163, Control_c, 0, 64, 98
1, 213178, Control_c, 0, 64, 103
1, 213193, Note_off_c, 0, 62, 57
1, 213193, Control_c, 0, 64, 106
1, 213207, Control_c, 0, 64, 109
1, 213222, Control_c, 0, 64, 111
1, 213235, Note_off_c, 0, 58, 53
1, 213237, Control_c, 0, 64, 112
1, 213245, Note_off_c, 0, 53, 64
1, 213252, Control_c, 0, 64, 113
1, 213253, Note_off_c, 0, 56, 63
1, 213255, Note_on_c, 0, 63, 76
1, 213259, Note_on_c, 0, 67, 77
1, 213326, Note_off_c, 0, 67, 57
1, 213355, Control_c, 0, 64, 113
1, 213370, Control_c, 0, 64, 114
1, 213400, Control_c, 0, 64, 114
1, 213415, Note_on_c, 0, 62, 74
1, 213417, Note_on_c, 0, 65, 86
1, 213448, Note_off_c, 0, 63, 56
1, 213464, Note_off_c, 0, 62, 55
1, 213467, Control_c, 0, 64, 115
1, 213482, Control_c, 0, 64, 116
1, 213496, Control_c, 0, 64, 117
1, 213511, Control_c, 0, 64, 117
1, 213568, Note_off_c, 0, 65, 60
1, 213576, Note_on_c, 0, 39, 50
1, 213600, Control_c, 0, 64, 117
1, 213614, Control_c, 0, 64, 115
1, 213629, Control_c, 0, 64, 113
1, 213644, Control_c, 0, 64, 111
1, 213659, Control_c, 0, 64, 110
1, 213674, Control_c, 0, 64, 107
1, 213688, Control_c, 0, 64, 104
1, 213693, Note_on_c, 0, 65, 67
1, 213703, Control_c, 0, 64, 95
1, 213718, Control_c, 0, 64, 78
1, 213721, Note_on_c, 0, 55, 55
1, 213725, Note_on_c, 0, 61, 45
1, 213733, Control_c, 0, 64, 63
1, 213748, Control_c, 0, 64, 0
1, 213822, Control_c, 0, 64, 59
1, 213837, Control_c, 0, 64, 68
1, 213852, Control_c, 0, 64, 73
1, 213867, Control_c, 0, 64, 77
1, 213882, Control_c, 0, 64, 78
1, 213896, Control_c, 0, 64, 79
1, 213911, Control_c, 0, 64, 81
1, 213915, Note_off_c, 0, 55, 57
1, 213923, Note_on_c, 0, 56, 63
1, 213926, Control_c, 0, 64, 83
1, 213928, Note_off_c, 0, 61, 60
1, 213942, Control_c, 0, 64, 85
1, 213957, Control_c, 0, 64, 86
1, 213976, Note_off_c, 0, 56, 60
1, 214042, Note_on_c, 0, 57, 66
1, 214045, Control_c, 0, 64, 85
1, 214060, Control_c, 0, 64, 84
1, 214075, Control_c, 0, 64, 82
1, 214079, Note_off_c, 0, 57, 61
1, 214090, Control_c, 0, 64, 78
1, 214094, Note_on_c, 0, 58, 56
1, 214104, Control_c, 0, 64, 70
1, 214110, Note_on_c, 0, 60, 69
1, 214117, Note_off_c, 0, 58, 62
1, 214119, Control_c, 0, 64, 63
1, 214134, Control_c, 0, 64, 0
1, 214172, Note_off_c, 0, 60, 63
1, 214180, Note_on_c, 0, 58, 79
1, 214279, Note_off_c, 0, 58, 60
1, 214288, Note_on_c, 0, 57, 65
1, 214344, Note_off_c, 0, 57, 58
1, 214403, Note_on_c, 0, 58, 56
1, 214443, Note_off_c, 0, 58, 59
1, 214467, Control_c, 0, 64, 55
1, 214481, Control_c, 0, 64, 68
1, 214491, Note_on_c, 0, 51, 59
1, 214496, Control_c, 0, 64, 74
1, 214508, Note_off_c, 0, 65, 54
1, 214511, Control_c, 0, 64, 78
1, 214526, Control_c, 0, 64, 79
1, 214530, Note_off_c, 0, 51, 62
1, 214541, Control_c, 0, 64, 81
1, 214556, Control_c, 0, 64, 83
1, 214571, Control_c, 0, 64, 86
1, 214579, Note_on_c, 0, 58, 51
1, 214586, Control_c, 0, 64, 89
1, 214601, Control_c, 0, 64, 91
1, 214615, Control_c, 0, 64, 93
1, 214630, Control_c, 0, 64, 95
1, 214645, Control_c, 0, 64, 96
1, 214645, Note_off_c, 0, 58, 60
1, 214660, Control_c, 0, 64, 97
1, 214662, Note_on_c, 0, 61, 63
1, 214675, Control_c, 0, 64, 97
1, 214688, Note_off_c, 0, 61, 65
1, 214704, Control_c, 0, 64, 98
1, 214756, Note_on_c, 0, 65, 70
1, 214779, Control_c, 0, 64, 97
1, 214794, Control_c, 0, 64, 97
1, 214809, Control_c, 0, 64, 96
1, 214824, Control_c, 0, 64, 95
1, 214839, Control_c, 0, 64, 93
1, 214844, Note_off_c, 0, 65, 55
1, 214848, Note_on_c, 0, 66, 73
1, 214854, Control_c, 0, 64, 89
1, 214868, Control_c, 0, 64, 83
1, 214883, Control_c, 0, 64, 78
1, 214898, Control_c, 0, 64, 74
1, 214919, Control_c, 0, 64, 71
1, 214928, Note_off_c, 0, 66, 60
1, 214929, Note_on_c, 0, 68, 75
1, 214934, Control_c, 0, 64, 68
1, 214949, Control_c, 0, 64, 64
1, 214964, Control_c, 0, 64, 57
1, 214979, Control_c, 0, 64, 46
1, 214988, Note_off_c, 0, 68, 61
1, 214994, Control_c, 0, 64, 0
1, 215023, Note_on_c, 0, 67, 71
1, 215089, Note_off_c, 0, 67, 60
1, 215112, Control_c, 0, 64, 60
1, 215113, Note_on_c, 0, 68, 63
1, 215127, Control_c, 0, 64, 73
1, 215142, Control_c, 0, 64, 84
1, 215147, Note_off_c, 0, 68, 62
1, 215153, Note_off_c, 0, 39, 59
1, 215157, Control_c, 0, 64, 101
1, 215172, Control_c, 0, 64, 109
1, 215186, Control_c, 0, 64, 110
1, 215205, Note_on_c, 0, 69, 57
1, 215227, Note_off_c, 0, 69, 60
1, 215253, Note_on_c, 0, 70, 58
1, 215272, Note_off_c, 0, 70, 64
1, 215275, Control_c, 0, 64, 110
1, 215286, Note_on_c, 0, 72, 62
1, 215290, Control_c, 0, 64, 106
1, 215304, Control_c, 0, 64, 98
1, 215314, Note_off_c, 0, 72, 64
1, 215319, Control_c, 0, 64, 83
1, 215334, Control_c, 0, 64, 69
1, 215337, Note_on_c, 0, 70, 74
1, 215349, Control_c, 0, 64, 27
1, 215364, Control_c, 0, 64, 0
1, 215393, Control_c, 0, 64, 58
1, 215398, Note_off_c, 0, 70, 60
1, 215406, Note_on_c, 0, 51, 36
1, 215408, Control_c, 0, 64, 69
1, 215422, Note_on_c, 0, 69, 67
1, 215423, Control_c, 0, 64, 75
1, 215438, Control_c, 0, 64, 82
1, 215453, Control_c, 0, 64, 85
1, 215468, Control_c, 0, 64, 86
1, 215495, Note_off_c, 0, 69, 58
1, 215509, Note_off_c, 0, 51, 56
1, 215512, Control_c, 0, 64, 87
1, 215513, Note_on_c, 0, 58, 58
1, 215519, Note_on_c, 0, 70, 65
1, 215528, Control_c, 0, 64, 90
1, 215542, Control_c, 0, 64, 95
1, 215551, Note_off_c, 0, 58, 58
1, 215557, Control_c, 0, 64, 102
1, 215560, Note_on_c, 0, 61, 58
1, 215572, Control_c, 0, 64, 108
1, 215587, Control_c, 0, 64, 112
1, 215599, Note_off_c, 0, 61, 61
1, 215604, Note_off_c, 0, 70, 60
1, 215635, Note_on_c, 0, 67, 54
1, 215674, Note_off_c, 0, 67, 63
1, 215681, Note_on_c, 0, 72, 62
1, 215728, Control_c, 0, 64, 111
1, 215742, Control_c, 0, 64, 110
1, 215754, Note_off_c, 0, 72, 57
1, 215757, Control_c, 0, 64, 109
1, 215772, Control_c, 0, 64, 109
1, 215787, Control_c, 0, 64, 108
1, 215802, Control_c, 0, 64, 108
1, 215814, Note_on_c, 0, 73, 60
1, 215816, Control_c, 0, 64, 107
1, 215831, Control_c, 0, 64, 106
1, 215846, Note_off_c, 0, 73, 62
1, 215846, Control_c, 0, 64, 105
1, 215861, Control_c, 0, 64, 103
1, 215876, Control_c, 0, 64, 97
1, 215890, Control_c, 0, 64, 90
1, 215895, Note_on_c, 0, 74, 64
1, 215905, Control_c, 0, 64, 82
1, 215920, Control_c, 0, 64, 74
1, 215930, Note_off_c, 0, 74, 63
1, 215934, Control_c, 0, 64, 65
1, 215943, Note_on_c, 0, 75, 63
1, 215949, Control_c, 0, 64, 0
1, 215969, Note_off_c, 0, 75, 68
1, 215980, Note_on_c, 0, 77, 71
1, 216022, Note_off_c, 0, 77, 59
1, 216041, Note_on_c, 0, 75, 78
1, 216104, Note_off_c, 0, 75, 58
1, 216136, Note_on_c, 0, 74, 66
1, 216238, Note_off_c, 0, 74, 55
1, 216243, Note_on_c, 0, 75, 66
1, 216355, Note_off_c, 0, 75, 62
1, 216368, Note_on_c, 0, 77, 67
1, 216448, Note_off_c, 0, 77, 56
1, 216489, Note_on_c, 0, 79, 56
1, 216568, Note_off_c, 0, 79, 54
1, 216619, Note_on_c, 0, 80, 53
1, 216869, Note_on_c, 0, 36, 36
1, 216888, Note_off_c, 0, 80, 54
1, 216897, Note_on_c, 0, 82, 57
1, 216906, Control_c, 0, 64, 17
1, 216921, Control_c, 0, 64, 62
1, 216936, Control_c, 0, 64, 68
1, 216936, Control_c, 0, 67, 10
1, 216951, Control_c, 0, 64, 71
1, 216951, Control_c, 0, 67, 13
1, 216952, Note_on_c, 0, 76, 35
1, 216965, Control_c, 0, 64, 77
1, 216965, Control_c, 0, 67, 17
1, 216966, Note_off_c, 0, 36, 54
1, 216980, Control_c, 0, 64, 85
1, 216980, Control_c, 0, 67, 21
1, 216995, Control_c, 0, 64, 94
1, 216995, Control_c, 0, 67, 24
1, 217010, Control_c, 0, 64, 104
1, 217010, Control_c, 0, 67, 28
1, 217025, Control_c, 0, 64, 112
1, 217025, Control_c, 0, 67, 34
1, 217039, Control_c, 0, 64, 126
1, 217039, Control_c, 0, 67, 42
1, 217054, Control_c, 0, 64, 127
1, 217054, Control_c, 0, 67, 51
1, 217069, Control_c, 0, 67, 65
1, 217084, Control_c, 0, 67, 79
1, 217099, Control_c, 0, 67, 93
1, 217101, Note_off_c, 0, 82, 63
1, 217113, Control_c, 0, 67, 107
1, 217129, Control_c, 0, 67, 121
1, 217144, Control_c, 0, 67, 127
1, 217358, Note_on_c, 0, 84, 47
1, 217373, Note_on_c, 0, 64, 39
1, 217404, Note_on_c, 0, 60, 42
1, 217406, Note_on_c, 0, 85, 67
1, 217406, Note_off_c, 0, 84, 58
1, 217407, Note_off_c, 0, 64, 57
1, 217429, Note_on_c, 0, 70, 48
1, 217443, Note_off_c, 0, 85, 59
1, 217450, Note_off_c, 0, 60, 61
1, 217456, Note_on_c, 0, 87, 72
1, 217468, Note_off_c, 0, 70, 64
1, 217506, Note_on_c, 0, 64, 41
1, 217518, Note_off_c, 0, 87, 63
1, 217520, Note_on_c, 0, 85, 61
1, 217540, Note_off_c, 0, 64, 55
1, 217546, Note_off_c, 0, 85, 65
1, 217774, Control_c, 0, 64, 88
1, 217788, Control_c, 0, 64, 65
1, 217793, Note_on_c, 0, 84, 65
1, 217796, Note_off_c, 0, 76, 55
1, 217799, Note_on_c, 0, 41, 52
1, 217803, Control_c, 0, 64, 0
1, 217807, Note_on_c, 0, 75, 45
1, 217833, Control_c, 0, 64, 48
1, 217839, Note_off_c, 0, 41, 61
1, 217848, Control_c, 0, 64, 66
1, 217855, Note_off_c, 0, 84, 63
1, 217862, Control_c, 0, 64, 73
1, 217877, Control_c, 0, 64, 80
1, 217892, Control_c, 0, 64, 85
1, 217914, Control_c, 0, 64, 87
1, 217960, Control_c, 0, 64, 87
1, 217990, Control_c, 0, 64, 86
1, 218004, Control_c, 0, 64, 83
1, 218019, Control_c, 0, 64, 75
1, 218034, Control_c, 0, 64, 65
1, 218049, Control_c, 0, 64, 0
1, 218064, Note_on_c, 0, 81, 67
1, 218098, Note_on_c, 0, 72, 32
1, 218106, Note_on_c, 0, 63, 22
1, 218124, Note_on_c, 0, 60, 42
1, 218145, Note_off_c, 0, 63, 45
1, 218159, Note_off_c, 0, 60, 64
1, 218210, Note_on_c, 0, 69, 40
1, 218239, Note_off_c, 0, 69, 56
1, 218345, Control_c, 0, 64, 60
1, 218355, Note_on_c, 0, 77, 61
1, 218359, Control_c, 0, 64, 67
1, 218361, Note_on_c, 0, 63, 45
1, 218365, Note_off_c, 0, 81, 54
1, 218374, Control_c, 0, 64, 71
1, 218389, Control_c, 0, 64, 79
1, 218403, Note_off_c, 0, 63, 62
1, 218404, Control_c, 0, 64, 87
1, 218419, Control_c, 0, 64, 93
1, 218434, Control_c, 0, 64, 99
1, 218449, Control_c, 0, 64, 107
1, 218449, Control_c, 0, 67, 117
1, 218463, Control_c, 0, 64, 124
1, 218463, Control_c, 0, 67, 102
1, 218464, Note_off_c, 0, 72, 43
1, 218478, Control_c, 0, 64, 127
1, 218478, Control_c, 0, 67, 79
1, 218493, Control_c, 0, 67, 55
1, 218508, Control_c, 0, 67, 35
1, 218523, Control_c, 0, 67, 21
1, 218537, Control_c, 0, 67, 0
1, 218554, Note_off_c, 0, 75, 55
1, 218753, Control_c, 0, 64, 105
1, 218762, Note_on_c, 0, 34, 44
1, 218764, Note_on_c, 0, 74, 42
1, 218768, Control_c, 0, 64, 85
1, 218783, Control_c, 0, 64, 72
1, 218798, Control_c, 0, 64, 62
1, 218813, Control_c, 0, 64, 37
1, 218827, Control_c, 0, 64, 49
1, 218842, Control_c, 0, 64, 66
1, 218851, Note_off_c, 0, 34, 57
1, 218857, Control_c, 0, 64, 78
1, 218872, Control_c, 0, 64, 97
1, 218887, Control_c, 0, 64, 110
1, 218901, Control_c, 0, 64, 115
1, 218916, Control_c, 0, 64, 127
1, 218929, Note_off_c, 0, 77, 57
1, 219217, Note_on_c, 0, 68, 41
1, 219239, Note_on_c, 0, 79, 62
1, 219331, Note_off_c, 0, 68, 55
1, 219361, Note_off_c, 0, 74, 46
1, 219367, Note_on_c, 0, 62, 36
1, 219463, Note_on_c, 0, 70, 40
1, 219512, Note_off_c, 0, 70, 59
1, 219567, Note_on_c, 0, 58, 42
1, 219588, Note_on_c, 0, 80, 79
1, 219602, Note_off_c, 0, 58, 63
1, 219606, Note_off_c, 0, 62, 40
1, 219606, Note_off_c, 0, 79, 56
1, 219855, Note_on_c, 0, 82, 76
1, 219858, Control_c, 0, 64, 108
1, 219862, Note_on_c, 0, 39, 52
1, 219873, Control_c, 0, 64, 78
1, 219880, Note_off_c, 0, 80, 56
1, 219888, Control_c, 0, 64, 42
1, 219900, Note_on_c, 0, 73, 45
1, 219902, Control_c, 0, 64, 0
1, 219932, Control_c, 0, 64, 66
1, 219940, Note_off_c, 0, 73, 54
1, 219947, Note_off_c, 0, 39, 59
1, 219947, Control_c, 0, 64, 82
1, 219962, Control_c, 0, 64, 99
1, 219976, Control_c, 0, 64, 127
1, 220115, Note_on_c, 0, 83, 73
1, 220125, Note_on_c, 0, 61, 51
1, 220136, Note_off_c, 0, 82, 61
1, 220165, Note_on_c, 0, 75, 34
1, 220181, Note_off_c, 0, 83, 63
1, 220199, Note_off_c, 0, 75, 51
1, 220240, Note_on_c, 0, 67, 48
1, 220329, Note_off_c, 0, 61, 31
1, 220329, Note_off_c, 0, 67, 55
1, 220340, Note_on_c, 0, 63, 35
1, 220382, Note_off_c, 0, 63, 52
1, 220405, Note_on_c, 0, 82, 74
1, 220459, Note_on_c, 0, 75, 36
1, 220710, Control_c, 0, 64, 91
1, 220715, Note_off_c, 0, 75, 47
1, 220724, Control_c, 0, 64, 68
1, 220729, Note_on_c, 0, 44, 41
1, 220735, Note_on_c, 0, 72, 35
1, 220739, Control_c, 0, 64, 0
1, 220784, Control_c, 0, 64, 66
1, 220798, Control_c, 0, 64, 79
1, 220813, Control_c, 0, 64, 98
1, 220825, Note_off_c, 0, 44, 58
1, 220828, Control_c, 0, 64, 127
1, 220887, Control_c, 0, 67, 8
1, 220910, Control_c, 0, 67, 14
1, 220924, Control_c, 0, 67, 24
1, 220939, Control_c, 0, 67, 36
1, 220954, Control_c, 0, 67, 49
1, 220969, Control_c, 0, 67, 66
1, 220984, Control_c, 0, 67, 80
1, 220998, Control_c, 0, 67, 93
1, 221013, Control_c, 0, 67, 104
1, 221028, Control_c, 0, 67, 114
1, 221043, Control_c, 0, 67, 125
1, 221057, Note_off_c, 0, 82, 57
1, 221057, Control_c, 0, 67, 127
1, 221060, Note_on_c, 0, 80, 61
1, 221069, Note_on_c, 0, 60, 40
1, 221084, Note_on_c, 0, 75, 35
1, 221153, Note_off_c, 0, 75, 41
1, 221197, Note_on_c, 0, 68, 37
1, 221346, Note_on_c, 0, 63, 30
1, 221376, Note_off_c, 0, 68, 29
1, 221451, Note_off_c, 0, 60, 44
1, 221495, Note_on_c, 0, 75, 43
1, 221495, Note_off_c, 0, 72, 44
1, 221501, Note_off_c, 0, 63, 37
1, 221550, Note_off_c, 0, 80, 53
1, 221615, Note_off_c, 0, 75, 0
1, 221615, Note_on_c, 0, 75, 4
1, 222015, Control_c, 0, 64, 102
1, 222023, Note_on_c, 0, 79, 65
1, 222030, Control_c, 0, 64, 79
1, 222035, Note_off_c, 0, 75, 53
1, 222039, Note_on_c, 0, 46, 43
1, 222044, Control_c, 0, 64, 62
1, 222059, Control_c, 0, 64, 0
1, 222068, Note_on_c, 0, 70, 31
1, 222103, Control_c, 0, 64, 59
1, 222118, Control_c, 0, 64, 71
1, 222131, Note_off_c, 0, 46, 56
1, 222133, Control_c, 0, 64, 82
1, 222148, Control_c, 0, 64, 96
1, 222163, Control_c, 0, 64, 110
1, 222178, Control_c, 0, 64, 115
1, 222181, Note_off_c, 0, 79, 56
1, 222193, Control_c, 0, 64, 117
1, 222208, Control_c, 0, 64, 118
1, 222213, Note_off_c, 0, 70, 61
1, 222223, Control_c, 0, 64, 119
1, 222238, Control_c, 0, 64, 120
1, 222252, Control_c, 0, 64, 122
1, 222267, Control_c, 0, 64, 123
1, 222398, Note_on_c, 0, 75, 56
1, 222413, Note_on_c, 0, 67, 47
1, 222420, Note_off_c, 0, 75, 62
1, 222423, Note_on_c, 0, 63, 45
1, 222440, Note_off_c, 0, 67, 57
1, 222470, Note_on_c, 0, 58, 57
1, 222477, Poly_aftertouch_c, 0, 60, 127
1, 222500, Note_off_c, 0, 63, 47
1, 222526, Poly_aftertouch_c, 0, 60, 0
1, 222540, Control_c, 0, 64, 122
1, 222545, Note_on_c, 0, 65, 54
1, 222555, Control_c, 0, 64, 114
1, 222570, Control_c, 0, 64, 98
1, 222577, Note_off_c, 0, 65, 64
1, 222584, Control_c, 0, 64, 81
1, 222599, Control_c, 0, 64, 67
1, 222614, Control_c, 0, 64, 35
1, 222619, Note_on_c, 0, 60, 54
1, 222623, Note_on_c, 0, 72, 74
1, 222628, Note_on_c, 0, 63, 46
1, 222628, Control_c, 0, 64, 0
1, 222640, Note_on_c, 0, 68, 45
1, 222651, Note_off_c, 0, 58, 25
1, 222658, Note_off_c, 0, 60, 65
1, 222658, Control_c, 0, 64, 61
1, 222661, Note_off_c, 0, 63, 63
1, 222667, Note_off_c, 0, 68, 57
1, 222673, Control_c, 0, 64, 72
1, 222688, Control_c, 0, 64, 81
1, 222692, Note_off_c, 0, 72, 63
1, 222703, Control_c, 0, 64, 90
1, 222718, Control_c, 0, 64, 98
1, 222733, Control_c, 0, 64, 103
1, 222748, Control_c, 0, 64, 105
1, 222763, Control_c, 0, 64, 107
1, 222778, Control_c, 0, 64, 109
1, 222792, Control_c, 0, 64, 110
1, 222807, Control_c, 0, 64, 111
1, 222867, Control_c, 0, 64, 107
1, 222881, Control_c, 0, 64, 94
1, 222896, Control_c, 0, 64, 75
1, 222910, Note_on_c, 0, 68, 68
1, 222911, Control_c, 0, 64, 41
1, 222925, Note_on_c, 0, 46, 44
1, 222926, Control_c, 0, 64, 0
1, 222947, Note_on_c, 0, 60, 33
1, 222971, Control_c, 0, 64, 64
1, 222978, Note_off_c, 0, 46, 56
1, 222986, Control_c, 0, 64, 76
1, 222992, Note_off_c, 0, 60, 62
1, 223000, Control_c, 0, 64, 90
1, 223015, Control_c, 0, 64, 106
1, 223030, Control_c, 0, 64, 113
1, 223044, Control_c, 0, 64, 114
1, 223059, Control_c, 0, 64, 114
1, 223074, Control_c, 0, 64, 116
1, 223089, Control_c, 0, 64, 118
1, 223104, Control_c, 0, 64, 123
1, 223118, Control_c, 0, 64, 126
1, 223156, Control_c, 0, 64, 124
1, 223186, Control_c, 0, 64, 114
1, 223196, Note_on_c, 0, 56, 46
1, 223199, Note_off_c, 0, 68, 53
1, 223200, Control_c, 0, 64, 95
1, 223215, Note_on_c, 0, 70, 59
1, 223215, Control_c, 0, 64, 74
1, 223230, Control_c, 0, 64, 0
1, 223267, Note_on_c, 0, 62, 28
1, 223274, Control_c, 0, 64, 23
1, 223289, Control_c, 0, 64, 66
1, 223301, Note_on_c, 0, 58, 43
1, 223303, Note_off_c, 0, 56, 47
1, 223304, Control_c, 0, 64, 77
1, 223310, Note_off_c, 0, 62, 53
1, 223319, Control_c, 0, 64, 87
1, 223333, Control_c, 0, 64, 96
1, 223346, Note_off_c, 0, 58, 57
1, 223348, Control_c, 0, 64, 98
1, 223393, Control_c, 0, 64, 97
1, 223394, Note_on_c, 0, 60, 43
1, 223407, Control_c, 0, 64, 95
1, 223422, Control_c, 0, 64, 95
1, 223451, Control_c, 0, 64, 96
1, 223452, Note_off_c, 0, 60, 54
1, 223466, Note_on_c, 0, 53, 54
1, 223466, Control_c, 0, 64, 98
1, 223467, Note_off_c, 0, 70, 32
1, 223481, Control_c, 0, 64, 99
1, 223503, Note_off_c, 0, 53, 66
1, 223511, Control_c, 0, 64, 98
1, 223527, Control_c, 0, 64, 96
1, 223541, Control_c, 0, 64, 93
1, 223555, Poly_aftertouch_c, 0, 62, 0
1, 223555, Note_on_c, 0, 58, 61
1, 223556, Control_c, 0, 64, 88
1, 223564, Note_on_c, 0, 68, 54
1, 223571, Control_c, 0, 64, 83
1, 223579, Note_off_c, 0, 58, 62
1, 223586, Control_c, 0, 64, 74
1, 223601, Control_c, 0, 64, 65
1, 223602, Note_off_c, 0, 68, 64
1, 223615, Control_c, 0, 64, 0
1, 223619, Note_on_c, 0, 70, 63
1, 223665, Note_on_c, 0, 68, 59
1, 223665, Note_off_c, 0, 70, 58
1, 223697, Note_off_c, 0, 68, 65
1, 223707, Note_on_c, 0, 46, 58
1, 223707, Note_on_c, 0, 67, 63
1, 223716, Note_on_c, 0, 39, 46
1, 223722, Note_on_c, 0, 63, 52
1, 223737, Note_off_c, 0, 67, 65
1, 223747, Note_off_c, 0, 63, 61
1, 224053, Control_c, 0, 64, 30
1, 224068, Control_c, 0, 64, 64
1, 224082, Control_c, 0, 64, 70
1, 224097, Control_c, 0, 64, 74
1, 224112, Control_c, 0, 64, 79
1, 224113, Note_on_c, 0, 63, 50
1, 224117, Note_off_c, 0, 46, 61
1, 224119, Note_on_c, 0, 55, 48
1, 224121, Note_off_c, 0, 39, 54
1, 224127, Control_c, 0, 64, 87
1, 224142, Control_c, 0, 64, 97
1, 224156, Control_c, 0, 64, 108
1, 224162, Note_off_c, 0, 55, 61
1, 224171, Control_c, 0, 64, 127
1, 224181, Note_off_c, 0, 63, 50
1, 224409, Note_on_c, 0, 63, 50
1, 224430, Note_on_c, 0, 55, 29
1, 224469, Note_off_c, 0, 55, 52
1, 224472, Note_off_c, 0, 63, 48
1, 224503, Note_on_c, 0, 67, 49
1, 224526, Note_on_c, 0, 58, 30
1, 224575, Note_off_c, 0, 58, 47
1, 224628, Note_off_c, 0, 67, 32
1, 224655, Note_on_c, 0, 70, 53
1, 224665, Note_on_c, 0, 63, 45
1, 224703, Note_off_c, 0, 63, 61
1, 224727, Control_c, 0, 67, 126
1, 224742, Control_c, 0, 67, 120
1, 224757, Control_c, 0, 67, 113
1, 224771, Control_c, 0, 67, 105
1, 224786, Control_c, 0, 67, 93
1, 224801, Control_c, 0, 67, 80
1, 224816, Control_c, 0, 67, 66
1, 224831, Control_c, 0, 67, 55
1, 224846, Control_c, 0, 67, 46
1, 224852, Note_off_c, 0, 70, 44
1, 224861, Control_c, 0, 67, 38
1, 224876, Control_c, 0, 67, 31
1, 224890, Control_c, 0, 67, 23
1, 224905, Control_c, 0, 67, 12
1, 224920, Control_c, 0, 67, 0
1, 224922, Note_on_c, 0, 58, 46
1, 224929, Note_on_c, 0, 67, 38
1, 224974, Note_off_c, 0, 67, 59
1, 225020, Note_off_c, 0, 58, 37
1, 225186, Note_on_c, 0, 63, 45
1, 225191, Note_on_c, 0, 55, 46
1, 225223, Note_off_c, 0, 63, 62
1, 225244, Note_off_c, 0, 55, 61
1, 225498, Note_on_c, 0, 39, 77
1, 225565, Control_c, 0, 64, 99
1, 225580, Control_c, 0, 64, 70
1, 225594, Control_c, 0, 64, 0
1, 225639, Control_c, 0, 64, 64
1, 225654, Control_c, 0, 64, 76
1, 225669, Control_c, 0, 64, 88
1, 225684, Control_c, 0, 64, 102
1, 225698, Control_c, 0, 64, 109
1, 225713, Control_c, 0, 64, 118
1, 225728, Control_c, 0, 64, 127
1, 225782, Note_on_c, 0, 51, 81
1, 225829, Note_off_c, 0, 39, 54
1, 225894, Note_off_c, 0, 51, 62
1, 226013, Note_on_c, 0, 63, 64
1, 226014, Note_on_c, 0, 57, 63
1, 226079, Note_on_c, 0, 60, 62
1, 226088, Note_on_c, 0, 66, 68
1, 226140, Note_off_c, 0, 63, 38
1, 226194, Note_off_c, 0, 66, 51
1, 226199, Note_off_c, 0, 60, 56
1, 226200, Note_off_c, 0, 57, 36
1, 226262, Note_on_c, 0, 75, 90
1, 226370, Note_off_c, 0, 75, 61
1, 226502, Note_on_c, 0, 66, 60
1, 226509, Note_on_c, 0, 60, 60
1, 226617, Note_off_c, 0, 60, 36
1, 226626, Note_off_c, 0, 66, 25
1, 226779, Note_on_c, 0, 63, 58
1, 226785, Note_on_c, 0, 57, 57
1, 226815, Note_off_c, 0, 57, 64
1, 226817, Note_off_c, 0, 63, 60
1, 227094, Note_on_c, 0, 78, 63
1, 227163, Note_on_c, 0, 77, 84
1, 227166, Note_on_c, 0, 50, 61
1, 227196, Control_c, 0, 64, 97
1, 227211, Control_c, 0, 64, 72
1, 227225, Control_c, 0, 64, 0
1, 227278, Note_off_c, 0, 78, 51
1, 227329, Control_c, 0, 64, 48
1, 227344, Control_c, 0, 64, 65
1, 227359, Control_c, 0, 64, 74
1, 227374, Control_c, 0, 64, 83
1, 227389, Control_c, 0, 64, 89
1, 227403, Control_c, 0, 64, 92
1, 227418, Control_c, 0, 64, 98
1, 227433, Control_c, 0, 64, 108
1, 227448, Control_c, 0, 64, 127
1, 227499, Note_on_c, 0, 58, 52
1, 227543, Note_off_c, 0, 50, 62
1, 227565, Note_off_c, 0, 58, 58
1, 227740, Note_on_c, 0, 65, 44
1, 227846, Note_on_c, 0, 70, 54
1, 227854, Note_off_c, 0, 77, 42
1, 227863, Note_off_c, 0, 65, 36
1, 227913, Note_off_c, 0, 70, 48
1, 227997, Note_on_c, 0, 77, 39
1, 228001, Note_on_c, 0, 72, 51
1, 228117, Note_off_c, 0, 77, 42
1, 228274, Note_on_c, 0, 70, 36
1, 228323, Note_off_c, 0, 70, 56
1, 228439, Note_off_c, 0, 72, 61
1, 228625, Note_on_c, 0, 65, 35
1, 228661, Note_off_c, 0, 65, 62
1, 228954, Note_on_c, 0, 82, 63
1, 228989, Control_c, 0, 64, 111
1, 229004, Control_c, 0, 64, 80
1, 229015, Note_on_c, 0, 77, 63
1, 229019, Note_off_c, 0, 82, 60
1, 229019, Control_c, 0, 64, 57
1, 229020, Note_on_c, 0, 48, 34
1, 229022, Note_on_c, 0, 58, 34
1, 229034, Control_c, 0, 64, 0
1, 229079, Control_c, 0, 64, 64
1, 229094, Control_c, 0, 64, 73
1, 229109, Control_c, 0, 64, 84
1, 229124, Control_c, 0, 64, 100
1, 229124, Control_c, 0, 67, 8
1, 229137, Note_off_c, 0, 77, 60
1, 229138, Note_off_c, 0, 48, 51
1, 229147, Control_c, 0, 64, 117
1, 229147, Control_c, 0, 67, 12
1, 229161, Control_c, 0, 64, 127
1, 229161, Control_c, 0, 67, 17
1, 229176, Control_c, 0, 67, 23
1, 229191, Control_c, 0, 67, 30
1, 229206, Control_c, 0, 67, 40
1, 229207, Note_off_c, 0, 58, 52
1, 229221, Control_c, 0, 67, 50
1, 229235, Control_c, 0, 67, 60
1, 229251, Control_c, 0, 67, 72
1, 229266, Control_c, 0, 67, 82
1, 229281, Control_c, 0, 67, 94
1, 229295, Control_c, 0, 67, 108
1, 229310, Control_c, 0, 67, 122
1, 229325, Control_c, 0, 67, 127
1, 229371, Note_on_c, 0, 63, 39
1, 229413, Note_off_c, 0, 63, 59
1, 229611, Note_on_c, 0, 65, 40
1, 229714, Note_off_c, 0, 65, 38
1, 229720, Note_on_c, 0, 70, 44
1, 229760, Note_off_c, 0, 70, 60
1, 229856, Note_on_c, 0, 77, 46
1, 229860, Note_on_c, 0, 72, 17
1, 229938, Note_off_c, 0, 72, 40
1, 229959, Note_off_c, 0, 77, 41
1, 230143, Note_on_c, 0, 70, 33
1, 230217, Note_off_c, 0, 70, 44
1, 230490, Note_on_c, 0, 65, 29
1, 230536, Note_off_c, 0, 65, 60
1, 230876, Note_on_c, 0, 82, 49
1, 230940, Control_c, 0, 64, 108
1, 230947, Note_on_c, 0, 77, 50
1, 230950, Note_on_c, 0, 46, 45
1, 230954, Note_off_c, 0, 82, 52
1, 230955, Control_c, 0, 64, 83
1, 230970, Control_c, 0, 64, 65
1, 230985, Control_c, 0, 64, 0
1, 231029, Control_c, 0, 64, 42
1, 231044, Control_c, 0, 64, 64
1, 231058, Control_c, 0, 64, 72
1, 231073, Control_c, 0, 64, 82
1, 231088, Control_c, 0, 64, 96
1, 231103, Control_c, 0, 64, 120
1, 231118, Control_c, 0, 64, 127
1, 231132, Note_off_c, 0, 77, 61
1, 231210, Note_off_c, 0, 46, 43
1, 231291, Note_on_c, 0, 53, 35
1, 231333, Note_off_c, 0, 53, 57
1, 231555, Note_on_c, 0, 65, 45
1, 231564, Note_on_c, 0, 62, 18
1, 231608, Note_off_c, 0, 62, 51
1, 231664, Note_on_c, 0, 70, 49
1, 231699, Note_off_c, 0, 65, 37
1, 231705, Note_off_c, 0, 70, 62
1, 231821, Note_on_c, 0, 77, 41
1, 231829, Note_on_c, 0, 72, 7
1, 231888, Note_off_c, 0, 77, 37
1, 232081, Note_on_c, 0, 70, 42
1, 232137, Note_off_c, 0, 70, 56
1, 232382, Note_on_c, 0, 65, 39
1, 232422, Note_off_c, 0, 65, 64
1, 232638, Note_off_c, 0, 72, 40
1, 232715, Note_on_c, 0, 46, 42
1, 232837, Note_off_c, 0, 46, 35
1, 233010, Note_on_c, 0, 53, 35
1, 233071, Note_off_c, 0, 53, 58
1, 233341, Note_on_c, 0, 62, 18
1, 233365, Note_on_c, 0, 65, 31
1, 233385, Note_off_c, 0, 62, 45
1, 233521, Note_on_c, 0, 70, 39
1, 233560, Note_off_c, 0, 70, 61
1, 233562, Note_off_c, 0, 65, 42
1, 233731, Note_on_c, 0, 82, 45
1, 233792, Note_on_c, 0, 72, 43
1, 233795, Note_on_c, 0, 77, 39
1, 233829, Note_off_c, 0, 82, 50
1, 233845, Note_off_c, 0, 77, 52
1, 234194, Note_on_c, 0, 70, 29
1, 234218, Note_off_c, 0, 72, 24
1, 234403, Note_off_c, 0, 70, 43
1, 234710, Note_on_c, 0, 65, 36
1, 235012, Note_off_c, 0, 65, 38
1, 235664, Note_on_c, 0, 65, 50
1, 235684, Note_on_c, 0, 46, 38
1, 235714, Note_on_c, 0, 63, 21
1, 235759, Control_c, 0, 64, 108
1, 235774, Control_c, 0, 64, 86
1, 235789, Control_c, 0, 64, 70
1, 235804, Control_c, 0, 64, 59
1, 235819, Control_c, 0, 64, 51
1, 235833, Control_c, 0, 64, 60
1, 235848, Control_c, 0, 64, 67
1, 235863, Control_c, 0, 64, 73
1, 235885, Control_c, 0, 64, 77
1, 235900, Control_c, 0, 64, 80
1, 235915, Control_c, 0, 64, 84
1, 235929, Control_c, 0, 64, 91
1, 235944, Control_c, 0, 64, 97
1, 235959, Control_c, 0, 64, 103
1, 235974, Control_c, 0, 64, 110
1, 235988, Control_c, 0, 64, 118
1, 236003, Control_c, 0, 64, 127
1, 236188, Note_off_c, 0, 46, 41
1, 236326, Note_on_c, 0, 67, 55
1, 236356, Note_on_c, 0, 53, 38
1, 236390, Note_on_c, 0, 60, 7
1, 236408, Note_off_c, 0, 65, 37
1, 236436, Note_off_c, 0, 63, 41
1, 236436, Note_off_c, 0, 60, 52
1, 236795, Note_on_c, 0, 69, 53
1, 236826, Control_c, 0, 64, 110
1, 236827, Note_on_c, 0, 65, 38
1, 236835, Note_off_c, 0, 67, 36
1, 236841, Control_c, 0, 64, 101
1, 236856, Control_c, 0, 64, 95
1, 236870, Control_c, 0, 64, 89
1, 236885, Control_c, 0, 64, 83
1, 236900, Control_c, 0, 64, 78
1, 236915, Control_c, 0, 64, 73
1, 236930, Control_c, 0, 64, 67
1, 236944, Control_c, 0, 64, 64
1, 236959, Control_c, 0, 64, 62
1, 236974, Control_c, 0, 64, 61
1, 236989, Control_c, 0, 64, 60
1, 237003, Control_c, 0, 64, 54
1, 237018, Control_c, 0, 64, 36
1, 237033, Control_c, 0, 64, 0
1, 237212, Control_c, 0, 64, 38
1, 237226, Control_c, 0, 64, 56
1, 237241, Control_c, 0, 64, 63
1, 237256, Control_c, 0, 64, 65
1, 237271, Control_c, 0, 64, 68
1, 237286, Control_c, 0, 64, 71
1, 237297, Note_on_c, 0, 63, 36
1, 237300, Control_c, 0, 64, 74
1, 237315, Control_c, 0, 64, 78
1, 237330, Control_c, 0, 64, 83
1, 237345, Control_c, 0, 64, 88
1, 237360, Control_c, 0, 64, 93
1, 237364, Note_off_c, 0, 53, 54
1, 237382, Control_c, 0, 64, 97
1, 237397, Control_c, 0, 64, 103
1, 237412, Control_c, 0, 64, 110
1, 237426, Control_c, 0, 64, 123
1, 237436, Note_off_c, 0, 65, 37
1, 237441, Control_c, 0, 64, 127
1, 237485, Note_off_c, 0, 69, 61
1, 237693, Control_c, 0, 67, 118
1, 237708, Control_c, 0, 67, 105
1, 237723, Control_c, 0, 67, 90
1, 237738, Control_c, 0, 67, 74
1, 237752, Control_c, 0, 67, 63
1, 237767, Control_c, 0, 67, 53
1, 237782, Control_c, 0, 67, 44
1, 237797, Control_c, 0, 67, 35
1, 237812, Control_c, 0, 67, 24
1, 237826, Control_c, 0, 67, 11
1, 237833, Note_on_c, 0, 70, 50
1, 237841, Control_c, 0, 67, 0
1, 237863, Note_on_c, 0, 67, 32
1, 237865, Note_on_c, 0, 62, 23
1, 237902, Control_c, 0, 64, 110
1, 237916, Control_c, 0, 64, 91
1, 237931, Control_c, 0, 64, 80
1, 237946, Control_c, 0, 64, 76
1, 237950, Note_off_c, 0, 67, 54
1, 237961, Control_c, 0, 64, 78
1, 237976, Control_c, 0, 64, 86
1, 237991, Control_c, 0, 64, 93
1, 238005, Control_c, 0, 64, 98
1, 238020, Control_c, 0, 64, 101
1, 238035, Control_c, 0, 64, 103
1, 238049, Control_c, 0, 64, 103
1, 238064, Control_c, 0, 64, 104
1, 238094, Control_c, 0, 64, 105
1, 238109, Control_c, 0, 64, 106
1, 238131, Control_c, 0, 64, 108
1, 238146, Control_c, 0, 64, 109
1, 238161, Control_c, 0, 64, 110
1, 238190, Control_c, 0, 64, 108
1, 238191, Note_off_c, 0, 62, 27
1, 238192, Note_on_c, 0, 60, 33
1, 238205, Control_c, 0, 64, 97
1, 238206, Note_on_c, 0, 72, 56
1, 238220, Control_c, 0, 64, 83
1, 238235, Note_on_c, 0, 69, 37
1, 238235, Control_c, 0, 64, 72
1, 238249, Control_c, 0, 64, 65
1, 238264, Control_c, 0, 64, 66
1, 238279, Control_c, 0, 64, 69
1, 238284, Note_off_c, 0, 70, 35
1, 238294, Control_c, 0, 64, 76
1, 238299, Note_off_c, 0, 60, 62
1, 238309, Control_c, 0, 64, 81
1, 238323, Control_c, 0, 64, 84
1, 238326, Note_off_c, 0, 69, 55
1, 238338, Control_c, 0, 64, 86
1, 238353, Control_c, 0, 64, 88
1, 238368, Control_c, 0, 64, 89
1, 238382, Control_c, 0, 64, 91
1, 238397, Control_c, 0, 64, 94
1, 238412, Control_c, 0, 64, 96
1, 238427, Control_c, 0, 64, 99
1, 238434, Note_off_c, 0, 72, 51
1, 238442, Control_c, 0, 64, 100
1, 238522, Note_on_c, 0, 58, 41
1, 238561, Control_c, 0, 64, 99
1, 238575, Control_c, 0, 64, 92
1, 238590, Control_c, 0, 64, 81
1, 238594, Note_on_c, 0, 74, 55
1, 238605, Control_c, 0, 64, 71
1, 238615, Note_on_c, 0, 67, 35
1, 238620, Control_c, 0, 64, 64
1, 238649, Control_c, 0, 64, 68
1, 238664, Control_c, 0, 64, 75
1, 238668, Note_off_c, 0, 58, 58
1, 238679, Control_c, 0, 64, 81
1, 238687, Note_off_c, 0, 74, 63
1, 238695, Control_c, 0, 64, 85
1, 238704, Note_on_c, 0, 75, 55
1, 238710, Control_c, 0, 64, 87
1, 238714, Note_off_c, 0, 67, 37
1, 238725, Control_c, 0, 64, 89
1, 238739, Control_c, 0, 64, 90
1, 238754, Control_c, 0, 64, 90
1, 238769, Control_c, 0, 64, 91
1, 238780, Note_off_c, 0, 75, 58
1, 238784, Control_c, 0, 64, 92
1, 238798, Control_c, 0, 64, 94
1, 238801, Note_on_c, 0, 74, 62
1, 238813, Control_c, 0, 64, 95
1, 238828, Control_c, 0, 64, 95
1, 238887, Note_on_c, 0, 57, 44
1, 238895, Control_c, 0, 64, 92
1, 238898, Note_on_c, 0, 53, 47
1, 238904, Note_on_c, 0, 72, 67
1, 238910, Control_c, 0, 64, 83
1, 238923, Note_off_c, 0, 74, 57
1, 238925, Control_c, 0, 64, 70
1, 238930, Note_on_c, 0, 69, 36
1, 238940, Control_c, 0, 64, 57
1, 238954, Control_c, 0, 64, 0
1, 238957, Note_off_c, 0, 63, 53
1, 238974, Note_off_c, 0, 69, 63
1, 238984, Control_c, 0, 64, 58
1, 238999, Control_c, 0, 64, 69
1, 239014, Control_c, 0, 64, 77
1, 239026, Note_off_c, 0, 53, 54
1, 239029, Control_c, 0, 64, 86
1, 239044, Control_c, 0, 64, 90
1, 239055, Note_off_c, 0, 57, 36
1, 239059, Control_c, 0, 64, 92
1, 239073, Control_c, 0, 64, 94
1, 239088, Control_c, 0, 64, 95
1, 239103, Control_c, 0, 64, 98
1, 239118, Control_c, 0, 64, 100
1, 239133, Control_c, 0, 64, 102
1, 239147, Control_c, 0, 64, 104
1, 239162, Control_c, 0, 64, 104
1, 239177, Control_c, 0, 64, 105
1, 239201, Note_on_c, 0, 74, 77
1, 239206, Control_c, 0, 64, 103
1, 239210, Note_off_c, 0, 72, 56
1, 239221, Control_c, 0, 64, 93
1, 239225, Note_on_c, 0, 58, 39
1, 239226, Note_on_c, 0, 60, 40
1, 239230, Note_on_c, 0, 66, 50
1, 239236, Control_c, 0, 64, 80
1, 239251, Control_c, 0, 64, 68
1, 239266, Control_c, 0, 64, 55
1, 239280, Control_c, 0, 64, 51
1, 239295, Control_c, 0, 64, 63
1, 239310, Control_c, 0, 64, 73
1, 239325, Control_c, 0, 64, 82
1, 239340, Control_c, 0, 64, 89
1, 239354, Control_c, 0, 64, 91
1, 239369, Control_c, 0, 64, 93
1, 239384, Control_c, 0, 64, 95
1, 239399, Control_c, 0, 64, 97
1, 239414, Control_c, 0, 64, 98
1, 239426, Note_off_c, 0, 66, 42
1, 239428, Control_c, 0, 64, 99
1, 239443, Control_c, 0, 64, 100
1, 239458, Control_c, 0, 64, 102
1, 239473, Control_c, 0, 64, 103
1, 239561, Note_on_c, 0, 75, 70
1, 239565, Note_on_c, 0, 48, 45
1, 239566, Note_off_c, 0, 74, 59
1, 239592, Control_c, 0, 64, 99
1, 239604, Note_on_c, 0, 67, 43
1, 239607, Control_c, 0, 64, 88
1, 239629, Control_c, 0, 64, 74
1, 239644, Control_c, 0, 64, 56
1, 239659, Control_c, 0, 64, 0
1, 239703, Control_c, 0, 64, 63
1, 239718, Control_c, 0, 64, 72
1, 239733, Note_off_c, 0, 60, 63
1, 239733, Control_c, 0, 64, 84
1, 239735, Note_off_c, 0, 48, 56
1, 239748, Control_c, 0, 64, 96
1, 239763, Control_c, 0, 64, 105
1, 239772, Note_off_c, 0, 67, 48
1, 239777, Control_c, 0, 64, 111
1, 239792, Control_c, 0, 64, 116
1, 239799, Note_off_c, 0, 58, 55
1, 239807, Control_c, 0, 64, 127
1, 239845, Note_off_c, 0, 75, 55
1, 239947, Note_on_c, 0, 72, 65
1, 239955, Note_on_c, 0, 63, 40
1, 239998, Note_off_c, 0, 72, 62
1, 240042, Note_off_c, 0, 63, 57
1, 240314, Note_on_c, 0, 69, 57
1, 240321, Note_on_c, 0, 53, 38
1, 240332, Note_on_c, 0, 61, 45
1, 240338, Note_on_c, 0, 57, 11
1, 240379, Control_c, 0, 64, 108
1, 240393, Control_c, 0, 64, 85
1, 240408, Control_c, 0, 64, 69
1, 240423, Control_c, 0, 64, 52
1, 240438, Control_c, 0, 64, 35
1, 240452, Control_c, 0, 64, 49
1, 240467, Control_c, 0, 64, 63
1, 240482, Control_c, 0, 64, 68
1, 240497, Control_c, 0, 64, 71
1, 240526, Control_c, 0, 64, 70
1, 240556, Control_c, 0, 64, 71
1, 240585, Control_c, 0, 64, 70
1, 240600, Control_c, 0, 64, 69
1, 240615, Control_c, 0, 64, 68
1, 240630, Control_c, 0, 64, 67
1, 240645, Control_c, 0, 64, 65
1, 240660, Control_c, 0, 64, 60
1, 240674, Control_c, 0, 64, 30
1, 240680, Note_on_c, 0, 62, 36
1, 240689, Control_c, 0, 64, 0
1, 240719, Note_off_c, 0, 61, 44
1, 240764, Control_c, 0, 64, 38
1, 240765, Note_off_c, 0, 57, 51
1, 240778, Control_c, 0, 64, 67
1, 240793, Control_c, 0, 64, 77
1, 240808, Control_c, 0, 64, 86
1, 240823, Control_c, 0, 64, 94
1, 240838, Control_c, 0, 64, 98
1, 240852, Control_c, 0, 64, 103
1, 240867, Control_c, 0, 64, 108
1, 240882, Control_c, 0, 64, 113
1, 240883, Note_off_c, 0, 62, 41
1, 240897, Control_c, 0, 64, 118
1, 240912, Control_c, 0, 64, 123
1, 240926, Control_c, 0, 64, 126
1, 241015, Control_c, 0, 64, 124
1, 241059, Control_c, 0, 64, 122
1, 241074, Control_c, 0, 64, 118
1, 241089, Note_on_c, 0, 65, 45
1, 241090, Control_c, 0, 64, 114
1, 241102, Note_on_c, 0, 60, 36
1, 241105, Control_c, 0, 64, 107
1, 241121, Note_on_c, 0, 58, 23
1, 241128, Control_c, 0, 64, 99
1, 241142, Control_c, 0, 64, 86
1, 241144, Note_on_c, 0, 63, 6
1, 241147, Note_off_c, 0, 69, 36
1, 241157, Control_c, 0, 64, 73
1, 241172, Control_c, 0, 64, 57
1, 241187, Control_c, 0, 64, 0
1, 241245, Control_c, 0, 64, 54
1, 241260, Control_c, 0, 64, 67
1, 241274, Control_c, 0, 64, 75
1, 241289, Control_c, 0, 64, 81
1, 241304, Control_c, 0, 64, 87
1, 241319, Control_c, 0, 64, 89
1, 241334, Control_c, 0, 64, 91
1, 241348, Control_c, 0, 64, 93
1, 241363, Control_c, 0, 64, 93
1, 241378, Control_c, 0, 64, 94
1, 241381, Note_off_c, 0, 58, 40
1, 241393, Control_c, 0, 64, 95
1, 241403, Note_off_c, 0, 65, 56
1, 241408, Control_c, 0, 64, 96
1, 241527, Control_c, 0, 67, 9
1, 241533, Note_on_c, 0, 57, 31
1, 241536, Note_off_c, 0, 60, 36
1, 241541, Control_c, 0, 67, 11
1, 241556, Control_c, 0, 64, 95
1, 241556, Control_c, 0, 67, 12
1, 241571, Control_c, 0, 64, 89
1, 241571, Control_c, 0, 67, 13
1, 241585, Control_c, 0, 64, 77
1, 241585, Control_c, 0, 67, 15
1, 241600, Control_c, 0, 64, 67
1, 241600, Control_c, 0, 67, 16
1, 241615, Control_c, 0, 64, 50
1, 241615, Control_c, 0, 67, 18
1, 241630, Control_c, 0, 64, 34
1, 241630, Control_c, 0, 67, 20
1, 241645, Control_c, 0, 64, 56
1, 241645, Control_c, 0, 67, 24
1, 241660, Control_c, 0, 64, 67
1, 241660, Control_c, 0, 67, 29
1, 241674, Control_c, 0, 64, 74
1, 241674, Control_c, 0, 67, 35
1, 241689, Control_c, 0, 64, 80
1, 241689, Control_c, 0, 67, 42
1, 241704, Control_c, 0, 64, 83
1, 241704, Control_c, 0, 67, 47
1, 241718, Control_c, 0, 64, 85
1, 241718, Control_c, 0, 67, 52
1, 241719, Note_off_c, 0, 57, 40
1, 241733, Control_c, 0, 64, 87
1, 241733, Control_c, 0, 67, 56
1, 241748, Control_c, 0, 64, 90
1, 241748, Control_c, 0, 67, 60
1, 241763, Control_c, 0, 64, 94
1, 241763, Control_c, 0, 67, 65
1, 241778, Control_c, 0, 64, 99
1, 241778, Control_c, 0, 67, 71
1, 241792, Control_c, 0, 64, 102
1, 241792, Control_c, 0, 67, 78
1, 241807, Control_c, 0, 64, 104
1, 241807, Control_c, 0, 67, 87
1, 241822, Control_c, 0, 64, 106
1, 241822, Control_c, 0, 67, 99
1, 241837, Control_c, 0, 64, 108
1, 241837, Control_c, 0, 67, 111
1, 241852, Control_c, 0, 64, 109
1, 241852, Control_c, 0, 67, 123
1, 241874, Control_c, 0, 64, 111
1, 241874, Control_c, 0, 67, 127
1, 241889, Control_c, 0, 64, 114
1, 241905, Control_c, 0, 64, 119
1, 241920, Control_c, 0, 64, 127
1, 242148, Note_on_c, 0, 46, 29
1, 242215, Note_on_c, 0, 72, 46
1, 242216, Control_c, 0, 64, 123
1, 242231, Control_c, 0, 64, 107
1, 242246, Control_c, 0, 64, 92
1, 242261, Control_c, 0, 64, 81
1, 242276, Control_c, 0, 64, 71
1, 242290, Control_c, 0, 64, 63
1, 242305, Control_c, 0, 64, 57
1, 242320, Control_c, 0, 64, 59
1, 242335, Control_c, 0, 64, 64
1, 242350, Control_c, 0, 64, 69
1, 242365, Control_c, 0, 64, 75
1, 242380, Control_c, 0, 64, 78
1, 242394, Control_c, 0, 64, 81
1, 242409, Control_c, 0, 64, 85
1, 242424, Control_c, 0, 64, 90
1, 242436, Note_off_c, 0, 72, 54
1, 242439, Control_c, 0, 64, 97
1, 242454, Control_c, 0, 64, 102
1, 242469, Control_c, 0, 64, 106
1, 242483, Control_c, 0, 64, 112
1, 242498, Control_c, 0, 64, 119
1, 242503, Note_off_c, 0, 63, 44
1, 242513, Control_c, 0, 64, 127
1, 242748, Note_on_c, 0, 70, 49
1, 242767, Note_on_c, 0, 62, 35
1, 242773, Control_c, 0, 64, 105
1, 242788, Control_c, 0, 64, 86
1, 242803, Control_c, 0, 64, 72
1, 242818, Control_c, 0, 64, 60
1, 242833, Control_c, 0, 64, 46
1, 242847, Control_c, 0, 64, 63
1, 242862, Control_c, 0, 64, 73
1, 242877, Control_c, 0, 64, 86
1, 242892, Control_c, 0, 64, 101
1, 242907, Control_c, 0, 64, 110
1, 242921, Control_c, 0, 64, 114
1, 242931, Note_off_c, 0, 46, 43
1, 242936, Control_c, 0, 64, 119
1, 242941, Note_off_c, 0, 53, 55
1, 242951, Control_c, 0, 64, 127
1, 242997, Note_off_c, 0, 62, 40
1, 243117, Note_on_c, 0, 65, 24
1, 243150, Note_off_c, 0, 70, 40
1, 243155, Note_off_c, 0, 65, 51
1, 243412, Note_on_c, 0, 82, 44
1, 243455, Note_off_c, 0, 82, 54
1, 243460, Note_on_c, 0, 62, 27
1, 243481, Note_on_c, 0, 77, 44
1, 243518, Note_off_c, 0, 77, 62
1, 243574, Note_off_c, 0, 62, 36
1, 243852, Note_on_c, 0, 70, 30
1, 244244, Note_off_c, 0, 70, 27
1, 244287, Note_on_c, 0, 65, 66
1, 244404, Control_c, 0, 67, 114
1, 244418, Control_c, 0, 67, 85
1, 244433, Control_c, 0, 67, 58
1, 244448, Control_c, 0, 67, 37
1, 244463, Control_c, 0, 67, 21
1, 244478, Control_c, 0, 67, 8
1, 244493, Control_c, 0, 67, 0
1, 244840, Note_on_c, 0, 46, 36
1, 244862, Note_on_c, 0, 63, 36
1, 244930, Control_c, 0, 64, 100
1, 244944, Control_c, 0, 64, 84
1, 244959, Control_c, 0, 64, 75
1, 244974, Control_c, 0, 64, 71
1, 244989, Control_c, 0, 64, 73
1, 245004, Control_c, 0, 64, 79
1, 245018, Control_c, 0, 64, 88
1, 245033, Control_c, 0, 64, 94
1, 245048, Control_c, 0, 64, 97
1, 245063, Control_c, 0, 64, 101
1, 245078, Control_c, 0, 64, 104
1, 245094, Control_c, 0, 64, 108
1, 245108, Control_c, 0, 64, 112
1, 245123, Control_c, 0, 64, 116
1, 245138, Control_c, 0, 64, 124
1, 245153, Control_c, 0, 64, 127
1, 245337, Note_on_c, 0, 53, 35
1, 245391, Note_on_c, 0, 67, 65
1, 245411, Note_off_c, 0, 46, 42
1, 245423, Note_on_c, 0, 60, 36
1, 245491, Note_off_c, 0, 60, 53
1, 245516, Note_off_c, 0, 65, 38
1, 245551, Note_off_c, 0, 63, 42
1, 245799, Note_on_c, 0, 69, 71
1, 245822, Note_on_c, 0, 65, 50
1, 245838, Note_off_c, 0, 67, 51
1, 246138, Control_c, 0, 64, 98
1, 246153, Control_c, 0, 64, 75
1, 246168, Note_on_c, 0, 63, 46
1, 246168, Control_c, 0, 64, 58
1, 246183, Control_c, 0, 64, 0
1, 246198, Control_c, 0, 64, 55
1, 246212, Note_off_c, 0, 65, 61
1, 246213, Control_c, 0, 64, 69
1, 246228, Control_c, 0, 64, 86
1, 246243, Control_c, 0, 64, 127
1, 246249, Note_off_c, 0, 69, 62
1, 246279, Note_off_c, 0, 53, 42
1, 246516, Note_on_c, 0, 70, 69
1, 246542, Note_on_c, 0, 62, 43
1, 246545, Note_on_c, 0, 67, 50
1, 246619, Note_off_c, 0, 67, 58
1, 246847, Note_on_c, 0, 60, 47
1, 246850, Note_on_c, 0, 72, 72
1, 246857, Note_on_c, 0, 69, 56
1, 246873, Control_c, 0, 64, 107
1, 246887, Control_c, 0, 64, 84
1, 246902, Control_c, 0, 64, 71
1, 246917, Control_c, 0, 64, 67
1, 246920, Note_off_c, 0, 70, 48
1, 246929, Note_off_c, 0, 62, 37
1, 246931, Control_c, 0, 64, 70
1, 246946, Control_c, 0, 64, 78
1, 246961, Control_c, 0, 64, 87
1, 246972, Note_off_c, 0, 69, 59
1, 246976, Control_c, 0, 64, 96
1, 246991, Control_c, 0, 64, 101
1, 246997, Note_off_c, 0, 60, 59
1, 247006, Control_c, 0, 64, 106
1, 247021, Control_c, 0, 64, 108
1, 247036, Control_c, 0, 64, 109
1, 247051, Control_c, 0, 64, 111
1, 247056, Note_off_c, 0, 72, 57
1, 247066, Control_c, 0, 64, 115
1, 247080, Control_c, 0, 64, 122
1, 247095, Control_c, 0, 64, 127
1, 247139, Note_on_c, 0, 58, 47
1, 247206, Control_c, 0, 64, 112
1, 247221, Control_c, 0, 64, 92
1, 247226, Note_on_c, 0, 74, 64
1, 247235, Control_c, 0, 64, 79
1, 247248, Note_off_c, 0, 58, 60
1, 247250, Control_c, 0, 64, 73
1, 247265, Control_c, 0, 64, 74
1, 247276, Note_on_c, 0, 67, 24
1, 247280, Control_c, 0, 64, 80
1, 247295, Control_c, 0, 64, 90
1, 247302, Note_off_c, 0, 74, 63
1, 247310, Control_c, 0, 64, 97
1, 247313, Note_on_c, 0, 75, 70
1, 247322, Note_off_c, 0, 67, 51
1, 247325, Control_c, 0, 64, 102
1, 247339, Control_c, 0, 64, 107
1, 247354, Control_c, 0, 64, 110
1, 247369, Control_c, 0, 64, 113
1, 247384, Control_c, 0, 64, 115
1, 247385, Note_off_c, 0, 75, 58
1, 247386, Note_on_c, 0, 74, 63
1, 247399, Control_c, 0, 64, 117
1, 247413, Control_c, 0, 64, 120
1, 247428, Control_c, 0, 64, 124
1, 247443, Control_c, 0, 64, 127
1, 247458, Control_c, 0, 64, 126
1, 247473, Control_c, 0, 64, 116
1, 247481, Note_on_c, 0, 72, 76
1, 247484, Note_on_c, 0, 57, 47
1, 247485, Note_off_c, 0, 74, 63
1, 247487, Note_on_c, 0, 53, 56
1, 247489, Control_c, 0, 64, 95
1, 247501, Note_on_c, 0, 69, 57
1, 247504, Control_c, 0, 64, 78
1, 247507, Note_off_c, 0, 63, 57
1, 247518, Control_c, 0, 64, 64
1, 247533, Control_c, 0, 64, 0
1, 247535, Note_off_c, 0, 69, 53
1, 247562, Control_c, 0, 64, 62
1, 247577, Control_c, 0, 64, 75
1, 247592, Control_c, 0, 64, 87
1, 247593, Note_off_c, 0, 53, 53
1, 247607, Control_c, 0, 64, 100
1, 247622, Control_c, 0, 64, 106
1, 247634, Note_off_c, 0, 57, 38
1, 247636, Control_c, 0, 64, 109
1, 247651, Control_c, 0, 64, 113
1, 247666, Control_c, 0, 64, 119
1, 247681, Control_c, 0, 64, 127
1, 247772, Note_on_c, 0, 74, 83
1, 247781, Note_on_c, 0, 58, 52
1, 247788, Note_on_c, 0, 60, 49
1, 247797, Note_off_c, 0, 72, 57
1, 247799, Control_c, 0, 64, 105
1, 247801, Note_on_c, 0, 66, 54
1, 247814, Control_c, 0, 64, 82
1, 247829, Control_c, 0, 64, 67
1, 247844, Control_c, 0, 64, 61
1, 247866, Control_c, 0, 64, 65
1, 247881, Control_c, 0, 64, 74
1, 247896, Control_c, 0, 64, 87
1, 247910, Control_c, 0, 64, 102
1, 247925, Control_c, 0, 64, 114
1, 247940, Control_c, 0, 64, 120
1, 247954, Control_c, 0, 64, 127
1, 248007, Note_off_c, 0, 66, 43
1, 248073, Control_c, 0, 64, 122
1, 248087, Control_c, 0, 64, 89
1, 248095, Note_on_c, 0, 48, 58
1, 248102, Control_c, 0, 64, 70
1, 248103, Note_on_c, 0, 75, 82
1, 248117, Control_c, 0, 64, 0
1, 248130, Note_off_c, 0, 74, 66
1, 248133, Note_on_c, 0, 67, 56
1, 248147, Control_c, 0, 64, 51
1, 248161, Control_c, 0, 64, 70
1, 248166, Note_off_c, 0, 48, 61
1, 248168, Note_off_c, 0, 67, 63
1, 248172, Note_off_c, 0, 58, 61
1, 248176, Control_c, 0, 64, 86
1, 248191, Control_c, 0, 64, 109
1, 248194, Note_off_c, 0, 60, 62
1, 248198, Note_off_c, 0, 75, 63
1, 248206, Control_c, 0, 64, 127
1, 248437, Note_on_c, 0, 78, 80
1, 248452, Note_on_c, 0, 62, 45
1, 248454, Note_on_c, 0, 63, 45
1, 248458, Note_on_c, 0, 69, 52
1, 248473, Control_c, 0, 64, 94
1, 248488, Control_c, 0, 64, 76
1, 248503, Control_c, 0, 64, 64
1, 248518, Control_c, 0, 64, 61
1, 248532, Control_c, 0, 64, 67
1, 248547, Control_c, 0, 64, 77
1, 248562, Control_c, 0, 64, 90
1, 248577, Control_c, 0, 64, 106
1, 248592, Control_c, 0, 64, 115
1, 248607, Note_off_c, 0, 63, 50
1, 248610, Note_off_c, 0, 69, 54
1, 248614, Control_c, 0, 64, 121
1, 248617, Note_off_c, 0, 62, 58
1, 248629, Control_c, 0, 64, 127
1, 248834, Note_off_c, 0, 78, 63
1, 248839, Note_on_c, 0, 79, 68
1, 248849, Note_on_c, 0, 63, 43
1, 248851, Control_c, 0, 64, 119
1, 248853, Note_on_c, 0, 60, 41
1, 248863, Note_on_c, 0, 70, 48
1, 248866, Control_c, 0, 64, 101
1, 248881, Control_c, 0, 64, 85
1, 248896, Control_c, 0, 64, 70
1, 248910, Control_c, 0, 64, 0
1, 248955, Control_c, 0, 64, 14
1, 248970, Control_c, 0, 64, 64
1, 248984, Control_c, 0, 64, 73
1, 248999, Control_c, 0, 64, 81
1, 249014, Control_c, 0, 64, 83
1, 249074, Control_c, 0, 64, 82
1, 249104, Control_c, 0, 64, 82
1, 249119, Control_c, 0, 64, 81
1, 249134, Control_c, 0, 64, 81
1, 249149, Control_c, 0, 64, 80
1, 249163, Control_c, 0, 64, 79
1, 249178, Control_c, 0, 64, 77
1, 249193, Control_c, 0, 64, 75
1, 249207, Control_c, 0, 64, 75
1, 249222, Control_c, 0, 64, 74
1, 249237, Control_c, 0, 64, 72
1, 249252, Control_c, 0, 64, 68
1, 249267, Control_c, 0, 64, 61
1, 249281, Control_c, 0, 64, 0
1, 249334, Note_off_c, 0, 70, 53
1, 249335, Note_on_c, 0, 69, 28
1, 249393, Control_c, 0, 64, 52
1, 249407, Control_c, 0, 64, 69
1, 249422, Control_c, 0, 64, 72
1, 249437, Control_c, 0, 64, 76
1, 249452, Control_c, 0, 64, 81
1, 249467, Control_c, 0, 64, 87
1, 249481, Control_c, 0, 64, 96
1, 249496, Control_c, 0, 64, 105
1, 249511, Control_c, 0, 64, 117
1, 249526, Control_c, 0, 64, 127
1, 249536, Note_off_c, 0, 79, 59
1, 249541, Note_off_c, 0, 60, 57
1, 249621, Note_off_c, 0, 69, 52
1, 249850, Note_on_c, 0, 58, 35
1, 249903, Note_on_c, 0, 75, 54
1, 249912, Control_c, 0, 64, 118
1, 249927, Control_c, 0, 64, 86
1, 249937, Note_on_c, 0, 66, 29
1, 249942, Control_c, 0, 64, 68
1, 249956, Control_c, 0, 64, 0
1, 249986, Control_c, 0, 64, 56
1, 250001, Control_c, 0, 64, 69
1, 250016, Control_c, 0, 64, 79
1, 250030, Control_c, 0, 64, 87
1, 250045, Control_c, 0, 64, 95
1, 250060, Control_c, 0, 64, 101
1, 250070, Note_off_c, 0, 75, 56
1, 250075, Control_c, 0, 64, 108
1, 250090, Control_c, 0, 64, 117
1, 250112, Control_c, 0, 64, 127
1, 250207, Note_off_c, 0, 66, 42
1, 250219, Note_on_c, 0, 72, 60
1, 250234, Note_on_c, 0, 67, 29
1, 250378, Note_off_c, 0, 67, 42
1, 250473, Note_off_c, 0, 58, 40
1, 250556, Control_c, 0, 64, 98
1, 250561, Note_on_c, 0, 60, 37
1, 250570, Note_off_c, 0, 72, 52
1, 250571, Control_c, 0, 64, 77
1, 250585, Note_on_c, 0, 69, 50
1, 250586, Control_c, 0, 64, 59
1, 250601, Control_c, 0, 64, 0
1, 250609, Note_on_c, 0, 65, 13
1, 250630, Control_c, 0, 64, 37
1, 250645, Control_c, 0, 64, 64
1, 250660, Control_c, 0, 64, 70
1, 250675, Control_c, 0, 64, 76
1, 250675, Control_c, 0, 67, 9
1, 250690, Control_c, 0, 64, 82
1, 250690, Control_c, 0, 67, 12
1, 250705, Control_c, 0, 64, 87
1, 250705, Control_c, 0, 67, 17
1, 250720, Control_c, 0, 64, 93
1, 250720, Control_c, 0, 67, 22
1, 250735, Control_c, 0, 64, 101
1, 250735, Control_c, 0, 67, 26
1, 250750, Control_c, 0, 64, 109
1, 250750, Control_c, 0, 67, 31
1, 250757, Note_off_c, 0, 63, 43
1, 250765, Control_c, 0, 64, 117
1, 250765, Control_c, 0, 67, 36
1, 250777, Note_off_c, 0, 65, 42
1, 250779, Control_c, 0, 64, 127
1, 250779, Control_c, 0, 67, 42
1, 250794, Control_c, 0, 67, 48
1, 250809, Control_c, 0, 67, 53
1, 250813, Note_off_c, 0, 60, 37
1, 250824, Control_c, 0, 67, 58
1, 250839, Control_c, 0, 67, 62
1, 250860, Control_c, 0, 67, 66
1, 250875, Control_c, 0, 67, 70
1, 250890, Control_c, 0, 67, 74
1, 250905, Control_c, 0, 67, 78
1, 250920, Control_c, 0, 67, 82
1, 250935, Control_c, 0, 67, 85
1, 250949, Note_on_c, 0, 65, 52
1, 250950, Control_c, 0, 67, 89
1, 250950, Note_off_c, 0, 69, 54
1, 250961, Note_on_c, 0, 57, 27
1, 250965, Control_c, 0, 67, 92
1, 250965, Note_on_c, 0, 62, 35
1, 250979, Control_c, 0, 67, 96
1, 250994, Control_c, 0, 67, 99
1, 251009, Control_c, 0, 64, 108
1, 251009, Control_c, 0, 67, 105
1, 251024, Control_c, 0, 64, 87
1, 251024, Control_c, 0, 67, 111
1, 251039, Control_c, 0, 64, 72
1, 251039, Control_c, 0, 67, 118
1, 251053, Control_c, 0, 64, 55
1, 251053, Control_c, 0, 67, 125
1, 251068, Control_c, 0, 64, 0
1, 251068, Control_c, 0, 67, 127
1, 251098, Control_c, 0, 64, 53
1, 251112, Control_c, 0, 64, 66
1, 251127, Control_c, 0, 64, 73
1, 251142, Control_c, 0, 64, 79
1, 251157, Control_c, 0, 64, 82
1, 251172, Control_c, 0, 64, 84
1, 251186, Control_c, 0, 64, 87
1, 251201, Control_c, 0, 64, 91
1, 251216, Control_c, 0, 64, 96
1, 251231, Control_c, 0, 64, 101
1, 251246, Control_c, 0, 64, 104
1, 251260, Control_c, 0, 64, 107
1, 251263, Note_off_c, 0, 57, 44
1, 251275, Control_c, 0, 64, 108
1, 251290, Control_c, 0, 64, 110
1, 251304, Control_c, 0, 64, 111
1, 251319, Control_c, 0, 64, 112
1, 251379, Control_c, 0, 64, 112
1, 251409, Control_c, 0, 64, 108
1, 251424, Control_c, 0, 64, 100
1, 251439, Control_c, 0, 64, 88
1, 251441, Note_on_c, 0, 53, 36
1, 251453, Control_c, 0, 64, 77
1, 251466, Note_off_c, 0, 65, 56
1, 251468, Control_c, 0, 64, 66
1, 251483, Control_c, 0, 64, 64
1, 251498, Control_c, 0, 64, 66
1, 251513, Control_c, 0, 64, 73
1, 251528, Control_c, 0, 64, 79
1, 251543, Control_c, 0, 64, 84
1, 251558, Control_c, 0, 64, 88
1, 251573, Control_c, 0, 64, 93
1, 251588, Control_c, 0, 64, 98
1, 251604, Note_off_c, 0, 53, 49
1, 251609, Control_c, 0, 64, 103
1, 251624, Control_c, 0, 64, 110
1, 251639, Control_c, 0, 64, 123
1, 251654, Control_c, 0, 64, 127
1, 251707, Note_off_c, 0, 62, 40
1, 251740, Note_on_c, 0, 63, 53
1, 251757, Note_on_c, 0, 60, 37
1, 251905, Note_off_c, 0, 60, 37
1, 251929, Note_off_c, 0, 63, 37
1, 252053, Note_on_c, 0, 46, 31
1, 252056, Note_on_c, 0, 53, 31
1, 252098, Control_c, 0, 64, 112
1, 252113, Control_c, 0, 64, 91
1, 252127, Control_c, 0, 64, 77
1, 252142, Control_c, 0, 64, 67
1, 252153, Note_on_c, 0, 63, 43
1, 252172, Control_c, 0, 64, 72
1, 252174, Note_on_c, 0, 60, 26
1, 252187, Control_c, 0, 64, 80
1, 252202, Control_c, 0, 64, 85
1, 252217, Control_c, 0, 64, 87
1, 252231, Control_c, 0, 64, 88
1, 252242, Note_off_c, 0, 60, 53
1, 252261, Note_off_c, 0, 63, 58
1, 252291, Note_on_c, 0, 62, 33
1, 252318, Note_on_c, 0, 65, 29
1, 252347, Note_off_c, 0, 62, 45
1, 252373, Control_c, 0, 64, 87
1, 252384, Note_off_c, 0, 65, 58
1, 252387, Note_on_c, 0, 63, 52
1, 252388, Control_c, 0, 64, 86
1, 252403, Control_c, 0, 64, 85
1, 252418, Control_c, 0, 64, 83
1, 252425, Poly_aftertouch_c, 0, 60, 127
1, 252432, Control_c, 0, 64, 80
1, 252447, Control_c, 0, 64, 78
1, 252462, Control_c, 0, 64, 73
1, 252465, Poly_aftertouch_c, 0, 60, 0
1, 252477, Control_c, 0, 64, 68
1, 252482, Note_on_c, 0, 58, 41
1, 252483, Note_off_c, 0, 63, 34
1, 252492, Control_c, 0, 64, 61
1, 252494, Note_on_c, 0, 62, 47
1, 252506, Control_c, 0, 64, 0
1, 252580, Control_c, 0, 64, 60
1, 252595, Control_c, 0, 64, 70
1, 252610, Control_c, 0, 64, 77
1, 252625, Control_c, 0, 64, 82
1, 252640, Control_c, 0, 64, 85
1, 252655, Control_c, 0, 64, 89
1, 252669, Control_c, 0, 64, 94
1, 252684, Control_c, 0, 64, 101
1, 252699, Control_c, 0, 64, 109
1, 252714, Control_c, 0, 64, 126
1, 252717, Note_off_c, 0, 46, 42
1, 252717, Note_off_c, 0, 53, 41
1, 252729, Control_c, 0, 64, 127
1, 252742, Note_off_c, 0, 58, 58
1, 252923, Note_off_c, 0, 62, 30
1, 252923, Note_on_c, 0, 65, 29
1, 252959, Note_off_c, 0, 65, 47
1, 253240, Note_on_c, 0, 82, 43
1, 253263, Note_on_c, 0, 72, 45
1, 253285, Note_on_c, 0, 77, 45
1, 253347, Note_off_c, 0, 82, 37
1, 253354, Note_off_c, 0, 77, 47
1, 253602, Note_on_c, 0, 70, 38
1, 253640, Note_off_c, 0, 72, 21
1, 253836, Note_off_c, 0, 70, 0
1, 253881, Poly_aftertouch_c, 0, 70, 127
1, 253966, Note_on_c, 0, 65, 34
1, 254059, Poly_aftertouch_c, 0, 70, 0
1, 254181, Note_off_c, 0, 65, 38
1, 254451, Note_on_c, 0, 46, 37
1, 254537, Control_c, 0, 64, 107
1, 254551, Note_on_c, 0, 77, 52
1, 254552, Control_c, 0, 64, 89
1, 254567, Control_c, 0, 64, 79
1, 254582, Control_c, 0, 64, 75
1, 254604, Control_c, 0, 64, 77
1, 254616, Poly_aftertouch_c, 0, 65, 127
1, 254619, Control_c, 0, 64, 85
1, 254634, Poly_aftertouch_c, 0, 72, 127
1, 254634, Poly_aftertouch_c, 0, 75, 127
1, 254634, Control_c, 0, 64, 93
1, 254648, Control_c, 0, 64, 100
1, 254663, Control_c, 0, 64, 106
1, 254679, Control_c, 0, 64, 112
1, 254694, Control_c, 0, 64, 120
1, 254709, Control_c, 0, 64, 127
1, 254737, Note_off_c, 0, 46, 41
1, 254762, Note_off_c, 0, 77, 39
1, 254765, Poly_aftertouch_c, 0, 65, 0
1, 254876, Note_on_c, 0, 53, 31
1, 254972, Note_off_c, 0, 53, 45
1, 255075, Note_on_c, 0, 79, 64
1, 255130, Note_on_c, 0, 67, 19
1, 255150, Poly_aftertouch_c, 0, 63, 127
1, 255174, Note_off_c, 0, 67, 48
1, 255177, Note_off_c, 0, 79, 51
1, 255215, Poly_aftertouch_c, 0, 63, 0
1, 255240, Poly_aftertouch_c, 0, 72, 0
1, 255273, Note_on_c, 0, 62, 6
1, 255287, Poly_aftertouch_c, 0, 75, 0
1, 255326, Note_off_c, 0, 62, 45
1, 255430, Note_on_c, 0, 63, 31
1, 255432, Note_on_c, 0, 81, 63
1, 255461, Note_on_c, 0, 77, 44
1, 255471, Note_on_c, 0, 69, 30
1, 255488, Note_off_c, 0, 63, 47
1, 255599, Note_on_c, 0, 60, 28
1, 255685, Note_off_c, 0, 60, 40
1, 255724, Control_c, 0, 64, 96
1, 255739, Control_c, 0, 64, 78
1, 255754, Control_c, 0, 64, 69
1, 255763, Note_on_c, 0, 65, 37
1, 255768, Control_c, 0, 64, 70
1, 255783, Control_c, 0, 64, 78
1, 255783, Control_c, 0, 67, 114
1, 255798, Control_c, 0, 64, 90
1, 255798, Control_c, 0, 67, 100
1, 255813, Control_c, 0, 64, 105
1, 255813, Control_c, 0, 67, 86
1, 255814, Note_off_c, 0, 81, 59
1, 255821, Note_off_c, 0, 77, 59
1, 255828, Control_c, 0, 64, 127
1, 255828, Control_c, 0, 67, 72
1, 255832, Note_off_c, 0, 69, 42
1, 255842, Control_c, 0, 67, 58
1, 255857, Control_c, 0, 67, 44
1, 255872, Control_c, 0, 67, 32
1, 255887, Control_c, 0, 67, 19
1, 255901, Control_c, 0, 67, 0
1, 255910, Note_on_c, 0, 63, 45
1, 255933, Note_off_c, 0, 65, 42
1, 256032, Note_off_c, 0, 63, 36
1, 256072, Note_on_c, 0, 82, 74
1, 256097, Poly_aftertouch_c, 0, 65, 127
1, 256102, Note_on_c, 0, 75, 52
1, 256105, Note_on_c, 0, 70, 50
1, 256126, Poly_aftertouch_c, 0, 65, 0
1, 256147, Note_off_c, 0, 70, 59
1, 256161, Note_on_c, 0, 67, 55
1, 256181, Note_off_c, 0, 82, 52
1, 256197, Note_off_c, 0, 67, 61
1, 256219, Note_on_c, 0, 65, 62
1, 256265, Note_off_c, 0, 75, 29
1, 256268, Note_off_c, 0, 65, 59
1, 256299, Note_on_c, 0, 67, 58
1, 256345, Note_off_c, 0, 67, 57
1, 256357, Note_on_c, 0, 84, 80
1, 256372, Note_on_c, 0, 75, 42
1, 256382, Note_on_c, 0, 63, 54
1, 256417, Poly_aftertouch_c, 0, 72, 127
1, 256421, Note_off_c, 0, 63, 59
1, 256423, Note_off_c, 0, 75, 54
1, 256427, Note_off_c, 0, 84, 60
1, 256458, Poly_aftertouch_c, 0, 72, 0
1, 256489, Note_on_c, 0, 67, 36
1, 256518, Note_off_c, 0, 67, 59
1, 256531, Note_on_c, 0, 58, 42
1, 256563, Note_off_c, 0, 58, 61
1, 256581, Note_on_c, 0, 74, 50
1, 256590, Note_on_c, 0, 82, 62
1, 256608, Note_on_c, 0, 75, 52
1, 256641, Note_on_c, 0, 81, 52
1, 256679, Note_on_c, 0, 53, 53
1, 256688, Note_on_c, 0, 57, 49
1, 256695, Control_c, 0, 64, 100
1, 256710, Control_c, 0, 64, 67
1, 256712, Note_on_c, 0, 86, 77
1, 256724, Control_c, 0, 64, 0
1, 256739, Note_off_c, 0, 82, 35
1, 256769, Control_c, 0, 64, 64
1, 256780, Note_off_c, 0, 53, 61
1, 256784, Control_c, 0, 64, 79
1, 256798, Control_c, 0, 64, 101
1, 256809, Note_off_c, 0, 86, 63
1, 256812, Note_off_c, 0, 75, 50
1, 256813, Control_c, 0, 64, 127
1, 256816, Note_off_c, 0, 74, 47
1, 256834, Note_off_c, 0, 81, 63
1, 256872, Note_on_c, 0, 65, 66
1, 256919, Note_off_c, 0, 65, 55
1, 256924, Note_off_c, 0, 57, 38
1, 257012, Note_on_c, 0, 87, 87
1, 257032, Note_on_c, 0, 55, 57
1, 257034, Note_on_c, 0, 75, 74
1, 257080, Note_off_c, 0, 87, 65
1, 257083, Note_off_c, 0, 75, 64
1, 257087, Note_off_c, 0, 55, 54
1, 257174, Note_on_c, 0, 58, 59
1, 257213, Note_off_c, 0, 58, 59
1, 257296, Control_c, 0, 64, 82
1, 257298, Note_on_c, 0, 84, 71
1, 257308, Note_on_c, 0, 72, 53
1, 257311, Note_on_c, 0, 57, 61
1, 257311, Control_c, 0, 64, 59
1, 257317, Note_on_c, 0, 77, 52
1, 257318, Note_on_c, 0, 63, 50
1, 257326, Control_c, 0, 64, 43
1, 257333, Note_off_c, 0, 72, 58
1, 257339, Note_on_c, 0, 83, 34
1, 257340, Control_c, 0, 64, 65
1, 257345, Note_off_c, 0, 63, 59
1, 257355, Control_c, 0, 64, 79
1, 257359, Note_off_c, 0, 77, 59
1, 257368, Note_off_c, 0, 83, 36
1, 257370, Control_c, 0, 64, 127
1, 257377, Note_off_c, 0, 84, 62
1, 257406, Note_on_c, 0, 55, 61
1, 257412, Note_off_c, 0, 57, 35
1, 257414, Note_on_c, 0, 79, 60
1, 257430, Note_off_c, 0, 55, 66
1, 257454, Note_off_c, 0, 79, 60
1, 257480, Note_on_c, 0, 75, 23
1, 257521, Note_off_c, 0, 75, 52
1, 257535, Note_on_c, 0, 77, 62
1, 257561, Note_on_c, 0, 41, 42
1, 257606, Note_off_c, 0, 41, 52
1, 257639, Note_on_c, 0, 84, 45
1, 257679, Note_on_c, 0, 89, 89
1, 257680, Note_on_c, 0, 57, 63
1, 257701, Note_off_c, 0, 84, 61
1, 257728, Note_off_c, 0, 89, 64
1, 257734, Note_off_c, 0, 77, 62
1, 257764, Note_off_c, 0, 57, 57
1, 257847, Note_on_c, 0, 55, 56
1, 257886, Note_off_c, 0, 55, 61
1, 257991, Note_on_c, 0, 87, 87
1, 258002, Note_on_c, 0, 53, 64
1, 258020, Note_on_c, 0, 57, 53
1, 258020, Note_on_c, 0, 75, 46
1, 258059, Note_off_c, 0, 57, 62
1, 258108, Note_off_c, 0, 75, 56
1, 258111, Note_off_c, 0, 87, 59
1, 258121, Note_on_c, 0, 60, 65
1, 258165, Note_off_c, 0, 60, 60
1, 258188, Note_on_c, 0, 58, 62
1, 258193, Note_off_c, 0, 53, 54
1, 258215, Note_off_c, 0, 58, 65
1, 258234, Note_on_c, 0, 60, 74
1, 258268, Control_c, 0, 64, 87
1, 258279, Note_on_c, 0, 58, 69
1, 258282, Control_c, 0, 64, 66
1, 258287, Note_off_c, 0, 60, 60
1, 258297, Control_c, 0, 64, 48
1, 258312, Control_c, 0, 64, 62
1, 258327, Control_c, 0, 64, 74
1, 258349, Control_c, 0, 64, 92
1, 258363, Control_c, 0, 64, 127
1, 258442, Note_off_c, 0, 58, 52
1, 258456, Note_on_c, 0, 57, 70
1, 258551, Note_off_c, 0, 57, 57
1, 258641, Note_on_c, 0, 60, 57
1, 258643, Note_on_c, 0, 50, 58
1, 258660, Control_c, 0, 64, 107
1, 258661, Note_on_c, 0, 86, 86
1, 258676, Control_c, 0, 64, 80
1, 258681, Note_on_c, 0, 74, 77
1, 258691, Note_on_c, 0, 78, 63
1, 258691, Control_c, 0, 64, 60
1, 258706, Control_c, 0, 64, 0
1, 258735, Control_c, 0, 64, 58
1, 258750, Control_c, 0, 64, 72
1, 258765, Control_c, 0, 64, 88
1, 258780, Control_c, 0, 64, 116
1, 258794, Control_c, 0, 64, 127
1, 258810, Note_off_c, 0, 74, 59
1, 258816, Note_off_c, 0, 86, 63
1, 258818, Note_on_c, 0, 58, 68
1, 258829, Note_off_c, 0, 60, 58
1, 258870, Note_off_c, 0, 50, 57
1, 258978, Note_on_c, 0, 60, 58
1, 258978, Note_on_c, 0, 88, 96
1, 258982, Note_on_c, 0, 76, 84
1, 258984, Note_off_c, 0, 58, 57
1, 258999, Note_off_c, 0, 78, 63
1, 259046, Note_off_c, 0, 76, 61
1, 259079, Note_off_c, 0, 60, 59
1, 259080, Note_off_c, 0, 88, 63
1, 259141, Note_on_c, 0, 57, 64
1, 259246, Note_off_c, 0, 57, 54
1, 259303, Note_on_c, 0, 62, 65
1, 259308, Note_on_c, 0, 90, 93
1, 259317, Note_on_c, 0, 78, 84
1, 259335, Control_c, 0, 64, 104
1, 259350, Control_c, 0, 64, 80
1, 259365, Control_c, 0, 64, 62
1, 259380, Control_c, 0, 64, 34
1, 259394, Control_c, 0, 64, 50
1, 259409, Control_c, 0, 64, 66
1, 259424, Control_c, 0, 64, 76
1, 259438, Control_c, 0, 64, 88
1, 259453, Control_c, 0, 64, 102
1, 259469, Control_c, 0, 64, 111
1, 259476, Note_off_c, 0, 62, 37
1, 259481, Note_off_c, 0, 78, 60
1, 259484, Control_c, 0, 64, 115
1, 259498, Note_off_c, 0, 90, 55
1, 259499, Control_c, 0, 64, 127
1, 259512, Note_on_c, 0, 60, 52
1, 259562, Note_on_c, 0, 55, 23
1, 259612, Note_off_c, 0, 60, 55
1, 259629, Note_off_c, 0, 55, 40
1, 259737, Note_on_c, 0, 91, 83
1, 259755, Note_on_c, 0, 79, 66
1, 259761, Note_on_c, 0, 58, 45
1, 259765, Control_c, 0, 64, 109
1, 259780, Control_c, 0, 64, 85
1, 259795, Control_c, 0, 64, 70
1, 259809, Control_c, 0, 64, 65
1, 259824, Control_c, 0, 64, 69
1, 259847, Control_c, 0, 64, 81
1, 259860, Note_off_c, 0, 79, 58
1, 259862, Control_c, 0, 64, 94
1, 259876, Control_c, 0, 64, 107
1, 259891, Control_c, 0, 64, 115
1, 259900, Note_off_c, 0, 91, 61
1, 259906, Control_c, 0, 64, 122
1, 259921, Control_c, 0, 64, 127
1, 259946, Note_on_c, 0, 63, 46
1, 259949, Note_off_c, 0, 58, 22
1, 260007, Note_off_c, 0, 63, 51
1, 260190, Note_on_c, 0, 54, 45
1, 260200, Note_on_c, 0, 93, 72
1, 260201, Control_c, 0, 64, 101
1, 260203, Note_on_c, 0, 81, 60
1, 260208, Note_on_c, 0, 60, 36
1, 260215, Control_c, 0, 64, 82
1, 260223, Note_on_c, 0, 61, 27
1, 260230, Control_c, 0, 64, 64
1, 260245, Control_c, 0, 64, 0
1, 260305, Control_c, 0, 64, 38
1, 260320, Control_c, 0, 64, 66
1, 260335, Control_c, 0, 64, 75
1, 260350, Control_c, 0, 64, 82
1, 260364, Control_c, 0, 64, 87
1, 260379, Control_c, 0, 64, 91
1, 260394, Control_c, 0, 64, 95
1, 260409, Control_c, 0, 64, 100
1, 260410, Note_off_c, 0, 61, 38
1, 260424, Control_c, 0, 64, 105
1, 260438, Control_c, 0, 64, 111
1, 260453, Control_c, 0, 64, 119
1, 260468, Note_off_c, 0, 54, 25
1, 260468, Control_c, 0, 64, 127
1, 260492, Note_off_c, 0, 60, 42
1, 260507, Note_on_c, 0, 62, 15
1, 260552, Note_off_c, 0, 62, 51
1, 260566, Note_off_c, 0, 81, 59
1, 260620, Note_off_c, 0, 93, 61
1, 260794, Note_on_c, 0, 43, 47
1, 260814, Note_on_c, 0, 50, 38
1, 260832, Control_c, 0, 64, 98
1, 260846, Control_c, 0, 64, 79
1, 260861, Control_c, 0, 64, 64
1, 260876, Control_c, 0, 64, 49
1, 260891, Control_c, 0, 64, 61
1, 260906, Control_c, 0, 64, 68
1, 260908, Note_off_c, 0, 43, 60
1, 260921, Control_c, 0, 64, 77
1, 260936, Control_c, 0, 64, 85
1, 260951, Control_c, 0, 64, 92
1, 260951, Control_c, 0, 67, 8
1, 260959, Note_off_c, 0, 50, 63
1, 260965, Control_c, 0, 64, 96
1, 260965, Control_c, 0, 67, 9
1, 260980, Control_c, 0, 64, 99
1, 260980, Control_c, 0, 67, 10
1, 260987, Note_on_c, 0, 94, 70
1, 260995, Control_c, 0, 64, 102
1, 260998, Note_on_c, 0, 82, 62
1, 261009, Control_c, 0, 64, 106
1, 261012, Note_on_c, 0, 58, 54
1, 261024, Control_c, 0, 64, 113
1, 261039, Control_c, 0, 64, 127
1, 261073, Note_off_c, 0, 58, 51
1, 261082, Note_off_c, 0, 94, 57
1, 261114, Note_off_c, 0, 82, 39
1, 261191, Note_on_c, 0, 60, 50
1, 261248, Control_c, 0, 67, 9
1, 261262, Control_c, 0, 67, 8
1, 261292, Control_c, 0, 67, 8
1, 261350, Note_on_c, 0, 91, 77
1, 261362, Note_off_c, 0, 60, 27
1, 261364, Note_on_c, 0, 58, 39
1, 261365, Note_on_c, 0, 79, 62
1, 261374, Control_c, 0, 67, 0
1, 261394, Note_off_c, 0, 91, 55
1, 261398, Note_on_c, 0, 61, 29
1, 261405, Note_off_c, 0, 79, 59
1, 261469, Note_off_c, 0, 61, 46
1, 261481, Note_off_c, 0, 58, 38
1, 261483, Note_on_c, 0, 62, 44
1, 261540, Note_off_c, 0, 62, 53
1, 261638, Note_on_c, 0, 88, 74
1, 261639, Control_c, 0, 64, 95
1, 261642, Note_on_c, 0, 55, 47
1, 261652, Note_on_c, 0, 58, 38
1, 261653, Note_on_c, 0, 76, 55
1, 261654, Control_c, 0, 64, 73
1, 261664, Note_on_c, 0, 60, 36
1, 261669, Control_c, 0, 64, 57
1, 261684, Control_c, 0, 64, 23
1, 261699, Note_off_c, 0, 88, 61
1, 261699, Control_c, 0, 64, 51
1, 261714, Control_c, 0, 64, 66
1, 261729, Control_c, 0, 64, 75
1, 261742, Note_off_c, 0, 76, 61
1, 261744, Control_c, 0, 64, 87
1, 261758, Control_c, 0, 64, 97
1, 261773, Control_c, 0, 64, 104
1, 261788, Control_c, 0, 64, 108
1, 261803, Control_c, 0, 64, 111
1, 261818, Control_c, 0, 64, 116
1, 261832, Control_c, 0, 64, 127
1, 261862, Note_off_c, 0, 55, 52
1, 261887, Note_off_c, 0, 60, 59
1, 261923, Note_on_c, 0, 64, 58
1, 261931, Note_on_c, 0, 84, 65
1, 261958, Note_on_c, 0, 72, 49
1, 261993, Note_off_c, 0, 84, 63
1, 261994, Note_off_c, 0, 58, 44
1, 262233, Note_on_c, 0, 53, 45
1, 262359, Note_on_c, 0, 79, 71
1, 262383, Note_off_c, 0, 72, 55
1, 262390, Note_on_c, 0, 70, 53
1, 262417, Control_c, 0, 64, 99
1, 262432, Control_c, 0, 64, 82
1, 262447, Control_c, 0, 64, 67
1, 262462, Control_c, 0, 64, 0
1, 262536, Control_c, 0, 64, 64
1, 262551, Control_c, 0, 64, 73
1, 262566, Control_c, 0, 64, 82
1, 262581, Control_c, 0, 64, 89
1, 262596, Control_c, 0, 64, 92
1, 262610, Control_c, 0, 64, 93
1, 262625, Control_c, 0, 64, 95
1, 262640, Control_c, 0, 64, 97
1, 262656, Control_c, 0, 64, 99
1, 262671, Control_c, 0, 64, 100
1, 262681, Note_off_c, 0, 64, 38
1, 262685, Control_c, 0, 64, 102
1, 262700, Control_c, 0, 64, 103
1, 262715, Control_c, 0, 64, 104
1, 262730, Control_c, 0, 64, 105
1, 262745, Control_c, 0, 64, 106
1, 262751, Note_off_c, 0, 70, 62
1, 262759, Note_on_c, 0, 62, 49
1, 262759, Control_c, 0, 64, 106
1, 262774, Control_c, 0, 64, 107
1, 262789, Control_c, 0, 64, 108
1, 262804, Control_c, 0, 64, 109
1, 262819, Control_c, 0, 64, 110
1, 262840, Control_c, 0, 64, 110
1, 262855, Control_c, 0, 64, 111
1, 262870, Control_c, 0, 64, 112
1, 262919, Note_off_c, 0, 62, 56
1, 262988, Note_on_c, 0, 77, 72
1, 262989, Control_c, 0, 64, 110
1, 262994, Note_on_c, 0, 63, 46
1, 263004, Control_c, 0, 64, 98
1, 263011, Note_off_c, 0, 79, 54
1, 263012, Note_on_c, 0, 69, 47
1, 263019, Control_c, 0, 64, 81
1, 263033, Control_c, 0, 64, 65
1, 263048, Control_c, 0, 64, 0
1, 263067, Note_off_c, 0, 69, 0
1, 263067, Note_on_c, 0, 69, 13
1, 263078, Control_c, 0, 64, 48
1, 263092, Control_c, 0, 64, 66
1, 263107, Control_c, 0, 64, 76
1, 263122, Control_c, 0, 64, 85
1, 263137, Control_c, 0, 64, 92
1, 263151, Note_off_c, 0, 63, 37
1, 263152, Control_c, 0, 64, 94
1, 263166, Control_c, 0, 64, 95
1, 263168, Note_off_c, 0, 69, 55
1, 263177, Note_on_c, 0, 60, 55
1, 263181, Control_c, 0, 64, 96
1, 263196, Control_c, 0, 64, 97
1, 263211, Control_c, 0, 64, 97
1, 263226, Control_c, 0, 64, 98
1, 263240, Control_c, 0, 64, 99
1, 263255, Control_c, 0, 64, 100
1, 263270, Control_c, 0, 64, 100
1, 263271, Note_off_c, 0, 60, 37
1, 263285, Control_c, 0, 64, 101
1, 263323, Note_off_c, 0, 53, 35
1, 263337, Note_on_c, 0, 75, 78
1, 263346, Note_on_c, 0, 58, 53
1, 263356, Note_on_c, 0, 67, 54
1, 263359, Control_c, 0, 64, 101
1, 263365, Note_off_c, 0, 77, 60
1, 263374, Control_c, 0, 64, 102
1, 263389, Control_c, 0, 64, 104
1, 263403, Control_c, 0, 64, 104
1, 263416, Note_off_c, 0, 58, 45
1, 263416, Note_off_c, 0, 75, 60
1, 263418, Control_c, 0, 64, 105
1, 263433, Control_c, 0, 64, 105
1, 263448, Control_c, 0, 64, 106
1, 263449, Note_off_c, 0, 67, 62
1, 263463, Control_c, 0, 64, 107
1, 263478, Control_c, 0, 64, 108
1, 263493, Note_on_c, 0, 60, 60
1, 263493, Control_c, 0, 64, 110
1, 263508, Control_c, 0, 64, 110
1, 263523, Control_c, 0, 64, 111
1, 263538, Control_c, 0, 64, 112
1, 263553, Control_c, 0, 64, 113
1, 263568, Note_off_c, 0, 60, 58
1, 263663, Note_on_c, 0, 48, 44
1, 263663, Control_c, 0, 64, 110
1, 263678, Note_on_c, 0, 67, 73
1, 263678, Control_c, 0, 64, 96
1, 263680, Note_on_c, 0, 58, 52
1, 263693, Control_c, 0, 64, 78
1, 263700, Note_on_c, 0, 63, 55
1, 263708, Control_c, 0, 64, 61
1, 263723, Control_c, 0, 64, 0
1, 263753, Control_c, 0, 64, 62
1, 263768, Control_c, 0, 64, 70
1, 263782, Control_c, 0, 64, 79
1, 263783, Note_off_c, 0, 58, 57
1, 263797, Control_c, 0, 64, 87
1, 263812, Control_c, 0, 64, 91
1, 263826, Control_c, 0, 64, 92
1, 263841, Control_c, 0, 64, 93
1, 263846, Note_on_c, 0, 57, 50
1, 263856, Control_c, 0, 64, 94
1, 263871, Control_c, 0, 64, 94
1, 263886, Control_c, 0, 64, 95
1, 263897, Note_off_c, 0, 57, 57
1, 263929, Note_on_c, 0, 55, 51
1, 263935, Note_off_c, 0, 63, 36
1, 263960, Control_c, 0, 64, 94
1, 263965, Note_off_c, 0, 55, 63
1, 263974, Control_c, 0, 64, 93
1, 263989, Control_c, 0, 64, 92
1, 264004, Control_c, 0, 64, 89
1, 264011, Note_on_c, 0, 57, 36
1, 264019, Control_c, 0, 64, 85
1, 264033, Control_c, 0, 64, 83
1, 264044, Note_off_c, 0, 57, 54
1, 264048, Control_c, 0, 64, 81
1, 264061, Note_off_c, 0, 67, 56
1, 264063, Note_on_c, 0, 55, 52
1, 264063, Control_c, 0, 64, 78
1, 264068, Note_on_c, 0, 69, 61
1, 264078, Control_c, 0, 64, 72
1, 264079, Note_on_c, 0, 63, 36
1, 264093, Control_c, 0, 64, 63
1, 264107, Control_c, 0, 64, 0
1, 264112, Note_on_c, 0, 60, 26
1, 264182, Control_c, 0, 64, 45
1, 264197, Control_c, 0, 64, 68
1, 264212, Control_c, 0, 64, 78
1, 264226, Control_c, 0, 64, 82
1, 264241, Control_c, 0, 64, 82
1, 264256, Control_c, 0, 64, 81
1, 264270, Note_off_c, 0, 55, 39
1, 264271, Control_c, 0, 64, 80
1, 264286, Control_c, 0, 64, 75
1, 264298, Note_off_c, 0, 63, 35
1, 264301, Control_c, 0, 64, 66
1, 264304, Note_on_c, 0, 53, 39
1, 264316, Control_c, 0, 64, 0
1, 264383, Control_c, 0, 64, 39
1, 264398, Control_c, 0, 64, 54
1, 264412, Control_c, 0, 64, 49
1, 264443, Control_c, 0, 64, 52
1, 264457, Control_c, 0, 64, 54
1, 264487, Control_c, 0, 64, 53
1, 264502, Control_c, 0, 64, 54
1, 264517, Control_c, 0, 64, 57
1, 264528, Note_on_c, 0, 65, 48
1, 264531, Control_c, 0, 64, 59
1, 264549, Note_off_c, 0, 60, 44
1, 264559, Note_on_c, 0, 63, 25
1, 264561, Control_c, 0, 64, 60
1, 264573, Note_off_c, 0, 69, 58
1, 264576, Control_c, 0, 64, 63
1, 264591, Control_c, 0, 64, 66
1, 264605, Control_c, 0, 64, 70
1, 264620, Control_c, 0, 64, 73
1, 264635, Control_c, 0, 64, 75
1, 264650, Control_c, 0, 64, 76
1, 264665, Control_c, 0, 64, 77
1, 264680, Control_c, 0, 64, 78
1, 264688, Note_off_c, 0, 65, 61
1, 264695, Control_c, 0, 64, 79
1, 264695, Note_off_c, 0, 48, 50
1, 264709, Control_c, 0, 64, 81
1, 264724, Control_c, 0, 64, 85
1, 264739, Control_c, 0, 64, 90
1, 264754, Control_c, 0, 64, 95
1, 264769, Control_c, 0, 64, 100
1, 264784, Control_c, 0, 64, 104
1, 264798, Control_c, 0, 64, 107
1, 264813, Control_c, 0, 64, 110
1, 264828, Control_c, 0, 64, 113
1, 264837, Poly_aftertouch_c, 0, 60, 127
1, 264843, Control_c, 0, 64, 115
1, 264857, Control_c, 0, 64, 117
1, 264872, Control_c, 0, 64, 118
1, 264887, Control_c, 0, 64, 118
1, 264963, Poly_aftertouch_c, 0, 60, 0
1, 265148, Control_c, 0, 64, 117
1, 265162, Control_c, 0, 64, 115
1, 265175, Note_on_c, 0, 72, 57
1, 265177, Control_c, 0, 64, 113
1, 265192, Control_c, 0, 64, 109
1, 265194, Note_on_c, 0, 46, 39
1, 265207, Control_c, 0, 64, 100
1, 265210, Note_off_c, 0, 63, 42
1, 265222, Control_c, 0, 64, 88
1, 265225, Note_off_c, 0, 53, 43
1, 265236, Control_c, 0, 64, 77
1, 265251, Control_c, 0, 64, 67
1, 265266, Control_c, 0, 64, 45
1, 265280, Control_c, 0, 64, 19
1, 265295, Control_c, 0, 64, 37
1, 265310, Control_c, 0, 64, 59
1, 265325, Control_c, 0, 64, 66
1, 265340, Control_c, 0, 64, 71
1, 265354, Control_c, 0, 64, 74
1, 265369, Control_c, 0, 64, 76
1, 265384, Control_c, 0, 64, 79
1, 265399, Control_c, 0, 64, 81
1, 265399, Control_c, 0, 67, 10
1, 265414, Control_c, 0, 64, 84
1, 265414, Control_c, 0, 67, 15
1, 265428, Control_c, 0, 64, 87
1, 265428, Control_c, 0, 67, 22
1, 265443, Control_c, 0, 64, 90
1, 265443, Control_c, 0, 67, 31
1, 265458, Control_c, 0, 64, 92
1, 265458, Control_c, 0, 67, 41
1, 265473, Control_c, 0, 64, 93
1, 265473, Control_c, 0, 67, 54
1, 265488, Control_c, 0, 64, 95
1, 265488, Control_c, 0, 67, 64
1, 265502, Control_c, 0, 64, 95
1, 265502, Control_c, 0, 67, 75
1, 265517, Control_c, 0, 64, 96
1, 265517, Control_c, 0, 67, 87
1, 265532, Control_c, 0, 64, 97
1, 265532, Control_c, 0, 67, 101
1, 265547, Control_c, 0, 64, 98
1, 265547, Control_c, 0, 67, 116
1, 265562, Note_on_c, 0, 63, 31
1, 265562, Control_c, 0, 64, 98
1, 265562, Control_c, 0, 67, 127
1, 265577, Control_c, 0, 64, 99
1, 265777, Note_on_c, 0, 53, 32
1, 265836, Control_c, 0, 64, 98
1, 265844, Note_off_c, 0, 63, 44
1, 265849, Note_on_c, 0, 70, 55
1, 265851, Control_c, 0, 64, 98
1, 265866, Control_c, 0, 64, 97
1, 265881, Control_c, 0, 64, 96
1, 265890, Note_off_c, 0, 72, 32
1, 265896, Control_c, 0, 64, 90
1, 265911, Control_c, 0, 64, 80
1, 265926, Control_c, 0, 64, 69
1, 265940, Control_c, 0, 64, 38
1, 265955, Control_c, 0, 64, 0
1, 265984, Control_c, 0, 64, 44
1, 265999, Control_c, 0, 64, 64
1, 266014, Control_c, 0, 64, 70
1, 266028, Control_c, 0, 64, 75
1, 266043, Control_c, 0, 64, 77
1, 266058, Control_c, 0, 64, 79
1, 266073, Control_c, 0, 64, 82
1, 266081, Note_on_c, 0, 62, 24
1, 266088, Control_c, 0, 64, 86
1, 266102, Control_c, 0, 64, 89
1, 266117, Control_c, 0, 64, 93
1, 266132, Control_c, 0, 64, 96
1, 266147, Control_c, 0, 64, 99
1, 266162, Control_c, 0, 64, 101
1, 266176, Control_c, 0, 64, 102
1, 266191, Control_c, 0, 64, 103
1, 266206, Control_c, 0, 64, 103
1, 266208, Note_off_c, 0, 46, 41
1, 266212, Note_off_c, 0, 53, 42
1, 266218, Note_off_c, 0, 62, 38
1, 266221, Control_c, 0, 64, 104
1, 266236, Control_c, 0, 64, 104
1, 266251, Control_c, 0, 64, 105
1, 266266, Control_c, 0, 64, 106
1, 266275, Note_on_c, 0, 65, 33
1, 266280, Control_c, 0, 64, 106
1, 266471, Note_on_c, 0, 60, 38
1, 266504, Note_off_c, 0, 60, 54
1, 266513, Note_off_c, 0, 65, 29
1, 266513, Note_off_c, 0, 70, 39
1, 266628, Control_c, 0, 64, 105
1, 266643, Control_c, 0, 64, 98
1, 266659, Control_c, 0, 64, 85
1, 266662, Note_on_c, 0, 58, 36
1, 266674, Control_c, 0, 64, 72
1, 266685, Note_on_c, 0, 62, 28
1, 266689, Control_c, 0, 64, 59
1, 266704, Control_c, 0, 64, 47
1, 266719, Control_c, 0, 64, 59
1, 266733, Control_c, 0, 64, 67
1, 266748, Control_c, 0, 64, 74
1, 266763, Control_c, 0, 64, 79
1, 266778, Control_c, 0, 64, 82
1, 266793, Control_c, 0, 64, 85
1, 266807, Control_c, 0, 64, 87
1, 266822, Control_c, 0, 64, 89
1, 266831, Note_off_c, 0, 62, 39
1, 266837, Control_c, 0, 64, 90
1, 266851, Control_c, 0, 64, 91
1, 266866, Control_c, 0, 64, 93
1, 266881, Control_c, 0, 64, 94
1, 266883, Note_on_c, 0, 70, 37
1, 266896, Control_c, 0, 64, 96
1, 266911, Control_c, 0, 64, 97
1, 266925, Control_c, 0, 64, 98
1, 266970, Control_c, 0, 64, 98
1, 267063, Note_on_c, 0, 63, 51
1, 267064, Note_off_c, 0, 70, 32
1, 267073, Control_c, 0, 64, 96
1, 267086, Note_on_c, 0, 65, 42
1, 267088, Control_c, 0, 64, 88
1, 267103, Control_c, 0, 64, 77
1, 267118, Control_c, 0, 64, 66
1, 267133, Control_c, 0, 64, 55
1, 267148, Control_c, 0, 64, 53
1, 267163, Control_c, 0, 64, 64
1, 267178, Control_c, 0, 64, 71
1, 267193, Control_c, 0, 64, 77
1, 267207, Control_c, 0, 64, 82
1, 267222, Control_c, 0, 64, 84
1, 267228, Note_off_c, 0, 65, 51
1, 267237, Control_c, 0, 64, 86
1, 267251, Control_c, 0, 64, 88
1, 267266, Control_c, 0, 64, 89
1, 267281, Control_c, 0, 64, 90
1, 267296, Control_c, 0, 64, 91
1, 267297, Note_on_c, 0, 72, 30
1, 267311, Control_c, 0, 64, 92
1, 267333, Control_c, 0, 64, 93
1, 267348, Control_c, 0, 64, 94
1, 267453, Control_c, 0, 64, 93
1, 267454, Note_off_c, 0, 63, 45
1, 267468, Control_c, 0, 64, 88
1, 267478, Note_on_c, 0, 62, 41
1, 267482, Control_c, 0, 64, 79
1, 267497, Control_c, 0, 64, 68
1, 267500, Note_off_c, 0, 72, 43
1, 267503, Note_on_c, 0, 70, 38
1, 267512, Control_c, 0, 64, 44
1, 267527, Control_c, 0, 64, 0
1, 267556, Control_c, 0, 64, 47
1, 267571, Control_c, 0, 64, 66
1, 267586, Control_c, 0, 64, 73
1, 267601, Control_c, 0, 64, 78
1, 267608, Note_off_c, 0, 58, 60
1, 267616, Control_c, 0, 64, 82
1, 267631, Control_c, 0, 64, 86
1, 267646, Control_c, 0, 64, 89
1, 267661, Control_c, 0, 64, 92
1, 267675, Control_c, 0, 64, 95
1, 267682, Note_on_c, 0, 77, 53
1, 267690, Control_c, 0, 64, 98
1, 267698, Note_off_c, 0, 70, 56
1, 267705, Control_c, 0, 64, 101
1, 267720, Control_c, 0, 64, 104
1, 267729, Note_off_c, 0, 77, 58
1, 267735, Control_c, 0, 64, 106
1, 267749, Control_c, 0, 64, 106
1, 267779, Control_c, 0, 64, 107
1, 267809, Control_c, 0, 64, 107
1, 267823, Control_c, 0, 64, 108
1, 267833, Note_off_c, 0, 62, 30
1, 267927, Control_c, 0, 64, 107
1, 267935, Note_on_c, 0, 79, 57
1, 267937, Note_on_c, 0, 53, 39
1, 267942, Control_c, 0, 64, 104
1, 267956, Control_c, 0, 64, 96
1, 267971, Control_c, 0, 64, 82
1, 267986, Control_c, 0, 64, 69
1, 268000, Control_c, 0, 64, 42
1, 268015, Control_c, 0, 64, 0
1, 268045, Control_c, 0, 64, 49
1, 268060, Control_c, 0, 64, 66
1, 268082, Control_c, 0, 64, 72
1, 268097, Control_c, 0, 64, 76
1, 268112, Control_c, 0, 64, 78
1, 268127, Control_c, 0, 64, 81
1, 268142, Control_c, 0, 64, 84
1, 268156, Control_c, 0, 64, 87
1, 268171, Control_c, 0, 64, 90
1, 268186, Control_c, 0, 64, 92
1, 268200, Control_c, 0, 64, 95
1, 268215, Control_c, 0, 64, 97
1, 268218, Note_on_c, 0, 72, 39
1, 268230, Control_c, 0, 64, 99
1, 268245, Control_c, 0, 64, 101
1, 268261, Control_c, 0, 64, 101
1, 268262, Note_off_c, 0, 79, 38
1, 268276, Control_c, 0, 64, 102
1, 268291, Control_c, 0, 64, 102
1, 268305, Control_c, 0, 64, 103
1, 268320, Control_c, 0, 64, 103
1, 268335, Control_c, 0, 64, 104
1, 268461, Note_off_c, 0, 72, 43
1, 268474, Note_on_c, 0, 58, 55
1, 268501, Note_on_c, 0, 75, 30
1, 268548, Note_off_c, 0, 75, 48
1, 268572, Control_c, 0, 64, 105
1, 268631, Control_c, 0, 64, 105
1, 268691, Control_c, 0, 64, 106
1, 268700, Note_on_c, 0, 67, 41
1, 268720, Control_c, 0, 64, 106
1, 268735, Control_c, 0, 64, 107
1, 268772, Note_off_c, 0, 67, 51
1, 268794, Control_c, 0, 64, 107
1, 268950, Control_c, 0, 64, 107
1, 268965, Control_c, 0, 64, 106
1, 268966, Note_on_c, 0, 63, 55
1, 268979, Note_on_c, 0, 72, 45
1, 268979, Control_c, 0, 64, 100
1, 268994, Control_c, 0, 64, 89
1, 269009, Control_c, 0, 64, 77
1, 269023, Control_c, 0, 64, 67
1, 269025, Note_off_c, 0, 58, 41
1, 269038, Control_c, 0, 64, 58
1, 269054, Control_c, 0, 64, 53
1, 269069, Control_c, 0, 64, 63
1, 269084, Control_c, 0, 64, 70
1, 269099, Control_c, 0, 64, 76
1, 269114, Control_c, 0, 64, 80
1, 269128, Control_c, 0, 64, 82
1, 269137, Note_off_c, 0, 53, 37
1, 269143, Control_c, 0, 64, 85
1, 269158, Control_c, 0, 64, 88
1, 269173, Control_c, 0, 64, 90
1, 269188, Control_c, 0, 64, 93
1, 269202, Control_c, 0, 64, 96
1, 269204, Note_on_c, 0, 60, 42
1, 269217, Control_c, 0, 64, 98
1, 269232, Control_c, 0, 64, 101
1, 269246, Control_c, 0, 64, 104
1, 269261, Control_c, 0, 64, 106
1, 269276, Control_c, 0, 64, 107
1, 269291, Control_c, 0, 64, 108
1, 269306, Control_c, 0, 64, 108
1, 269321, Control_c, 0, 64, 109
1, 269336, Control_c, 0, 64, 109
1, 269337, Note_off_c, 0, 60, 35
1, 269351, Control_c, 0, 64, 110
1, 269454, Control_c, 0, 64, 109
1, 269469, Control_c, 0, 64, 108
1, 269484, Control_c, 0, 64, 107
1, 269494, Note_on_c, 0, 65, 38
1, 269498, Note_on_c, 0, 57, 30
1, 269499, Control_c, 0, 64, 106
1, 269514, Control_c, 0, 64, 104
1, 269528, Control_c, 0, 64, 100
1, 269531, Note_on_c, 0, 53, 32
1, 269543, Control_c, 0, 64, 88
1, 269558, Control_c, 0, 64, 76
1, 269580, Control_c, 0, 64, 65
1, 269595, Control_c, 0, 64, 11
1, 269610, Control_c, 0, 64, 0
1, 269640, Control_c, 0, 64, 59
1, 269654, Control_c, 0, 64, 68
1, 269669, Control_c, 0, 64, 75
1, 269684, Control_c, 0, 64, 80
1, 269699, Control_c, 0, 64, 83
1, 269714, Control_c, 0, 64, 86
1, 269728, Control_c, 0, 64, 90
1, 269743, Control_c, 0, 64, 93
1, 269758, Control_c, 0, 64, 97
1, 269772, Control_c, 0, 64, 100
1, 269787, Control_c, 0, 64, 103
1, 269792, Note_on_c, 0, 67, 27
1, 269802, Control_c, 0, 64, 106
1, 269816, Note_off_c, 0, 63, 51
1, 269817, Control_c, 0, 64, 109
1, 269830, Note_off_c, 0, 65, 24
1, 269832, Control_c, 0, 64, 112
1, 269845, Note_off_c, 0, 72, 54
1, 269848, Control_c, 0, 64, 113
1, 269863, Control_c, 0, 64, 115
1, 269877, Control_c, 0, 64, 118
1, 269892, Control_c, 0, 64, 121
1, 269907, Control_c, 0, 64, 124
1, 269922, Control_c, 0, 64, 127
1, 270057, Note_on_c, 0, 62, 32
1, 270069, Control_c, 0, 64, 126
1, 270084, Control_c, 0, 64, 113
1, 270099, Control_c, 0, 64, 99
1, 270114, Control_c, 0, 64, 80
1, 270120, Note_on_c, 0, 70, 51
1, 270129, Control_c, 0, 64, 68
1, 270144, Control_c, 0, 64, 54
1, 270156, Note_off_c, 0, 67, 41
1, 270159, Control_c, 0, 64, 47
1, 270163, Note_off_c, 0, 57, 38
1, 270173, Control_c, 0, 64, 60
1, 270188, Control_c, 0, 64, 67
1, 270203, Control_c, 0, 64, 75
1, 270218, Control_c, 0, 64, 80
1, 270233, Control_c, 0, 64, 84
1, 270248, Control_c, 0, 64, 87
1, 270263, Control_c, 0, 64, 91
1, 270277, Control_c, 0, 64, 95
1, 270292, Control_c, 0, 64, 98
1, 270307, Control_c, 0, 64, 103
1, 270329, Control_c, 0, 64, 108
1, 270344, Control_c, 0, 64, 114
1, 270351, Note_off_c, 0, 53, 40
1, 270358, Control_c, 0, 64, 120
1, 270373, Control_c, 0, 64, 127
1, 270490, Poly_aftertouch_c, 0, 55, 127
1, 270516, Note_off_c, 0, 62, 40
1, 270548, Poly_aftertouch_c, 0, 55, 0
1, 270777, Note_on_c, 0, 53, 27
1, 270786, Note_on_c, 0, 60, 31
1, 270833, Control_c, 0, 64, 110
1, 270848, Control_c, 0, 64, 93
1, 270859, Note_on_c, 0, 75, 38
1, 270863, Control_c, 0, 64, 79
1, 270878, Control_c, 0, 64, 66
1, 270892, Control_c, 0, 64, 62
1, 270907, Control_c, 0, 64, 64
1, 270922, Control_c, 0, 64, 71
1, 270937, Control_c, 0, 64, 79
1, 270951, Note_off_c, 0, 70, 58
1, 270952, Control_c, 0, 64, 87
1, 270967, Control_c, 0, 64, 93
1, 270981, Control_c, 0, 64, 97
1, 270996, Control_c, 0, 64, 99
1, 271011, Control_c, 0, 64, 102
1, 271026, Control_c, 0, 64, 104
1, 271041, Control_c, 0, 64, 107
1, 271056, Control_c, 0, 64, 112
1, 271078, Control_c, 0, 64, 117
1, 271093, Control_c, 0, 64, 127
1, 271118, Note_off_c, 0, 75, 46
1, 271329, Note_on_c, 0, 72, 43
1, 271331, Note_on_c, 0, 63, 28
1, 271341, Note_on_c, 0, 69, 38
1, 271374, Control_c, 0, 64, 109
1, 271389, Control_c, 0, 64, 91
1, 271404, Control_c, 0, 64, 77
1, 271418, Control_c, 0, 64, 67
1, 271433, Control_c, 0, 64, 65
1, 271449, Control_c, 0, 64, 71
1, 271464, Control_c, 0, 64, 81
1, 271479, Control_c, 0, 64, 90
1, 271494, Control_c, 0, 64, 96
1, 271505, Note_off_c, 0, 63, 52
1, 271509, Control_c, 0, 64, 101
1, 271510, Note_off_c, 0, 60, 43
1, 271523, Note_off_c, 0, 53, 54
1, 271523, Control_c, 0, 64, 104
1, 271538, Control_c, 0, 64, 106
1, 271553, Control_c, 0, 64, 108
1, 271561, Note_off_c, 0, 69, 37
1, 271568, Control_c, 0, 64, 110
1, 271583, Control_c, 0, 64, 114
1, 271589, Note_off_c, 0, 72, 35
1, 271597, Control_c, 0, 64, 120
1, 271612, Control_c, 0, 64, 127
1, 271930, Control_c, 0, 64, 99
1, 271935, Note_on_c, 0, 46, 38
1, 271945, Control_c, 0, 64, 82
1, 271957, Note_on_c, 0, 53, 30
1, 271960, Control_c, 0, 64, 69
1, 271974, Control_c, 0, 64, 63
1, 271989, Control_c, 0, 64, 65
1, 272004, Control_c, 0, 64, 72
1, 272019, Control_c, 0, 64, 81
1, 272034, Control_c, 0, 64, 87
1, 272048, Control_c, 0, 64, 91
1, 272051, Note_on_c, 0, 63, 30
1, 272062, Note_on_c, 0, 72, 35
1, 272063, Control_c, 0, 64, 95
1, 272078, Control_c, 0, 64, 99
1, 272093, Control_c, 0, 64, 103
1, 272108, Control_c, 0, 64, 111
1, 272123, Control_c, 0, 64, 126
1, 272138, Control_c, 0, 64, 127
1, 272169, Note_off_c, 0, 63, 36
1, 272428, Note_on_c, 0, 77, 55
1, 272487, Note_off_c, 0, 46, 42
1, 272498, Note_off_c, 0, 53, 41
1, 272612, Note_off_c, 0, 72, 28
1, 272670, Note_off_c, 0, 77, 35
1, 272979, Note_on_c, 0, 62, 29
1, 272988, Note_on_c, 0, 58, 28
1, 273065, Note_off_c, 0, 58, 41
1, 273128, Note_off_c, 0, 62, 42
1, 273272, Note_on_c, 0, 67, 40
1, 273289, Note_on_c, 0, 63, 26
1, 273292, Note_on_c, 0, 60, 13
1, 273380, Note_off_c, 0, 60, 42
1, 273411, Note_off_c, 0, 63, 34
1, 273503, Note_off_c, 0, 67, 36
1, 273527, Note_on_c, 0, 62, 35
1, 273539, Note_on_c, 0, 65, 43
1, 273599, Note_off_c, 0, 65, 57
1, 273638, Note_off_c, 0, 62, 35
1, 273745, Note_on_c, 0, 63, 47
1, 273766, Note_on_c, 0, 72, 51
1, 273946, Note_on_c, 0, 62, 55
1, 273947, Control_c, 0, 67, 121
1, 273962, Control_c, 0, 67, 111
1, 273968, Note_on_c, 0, 70, 55
1, 273971, Note_off_c, 0, 72, 51
1, 273977, Note_off_c, 0, 63, 30
1, 273977, Control_c, 0, 67, 102
1, 273991, Control_c, 0, 67, 93
1, 273995, Note_off_c, 0, 62, 55
1, 273998, Note_off_c, 0, 70, 66
1, 274006, Control_c, 0, 67, 80
1, 274021, Control_c, 0, 67, 63
1, 274035, Control_c, 0, 67, 45
1, 274050, Control_c, 0, 67, 34
1, 274073, Control_c, 0, 67, 28
1, 274087, Control_c, 0, 67, 21
1, 274102, Control_c, 0, 67, 14
1, 274117, Control_c, 0, 67, 0
1, 274178, Note_on_c, 0, 75, 67
1, 274182, Note_on_c, 0, 58, 43
1, 274183, Note_on_c, 0, 67, 49
1, 274326, Note_off_c, 0, 67, 37
1, 274362, Note_on_c, 0, 74, 73
1, 274365, Note_on_c, 0, 65, 48
1, 274394, Note_off_c, 0, 75, 44
1, 274428, Note_off_c, 0, 74, 62
1, 274449, Note_on_c, 0, 72, 65
1, 274451, Note_off_c, 0, 65, 50
1, 274485, Note_off_c, 0, 72, 62
1, 274490, Note_on_c, 0, 74, 66
1, 274513, Note_on_c, 0, 63, 53
1, 274517, Control_c, 0, 64, 97
1, 274532, Control_c, 0, 64, 77
1, 274538, Note_on_c, 0, 72, 63
1, 274540, Note_off_c, 0, 74, 64
1, 274546, Control_c, 0, 64, 64
1, 274561, Control_c, 0, 64, 47
1, 274576, Control_c, 0, 64, 60
1, 274591, Control_c, 0, 64, 69
1, 274606, Control_c, 0, 64, 79
1, 274621, Control_c, 0, 64, 89
1, 274636, Control_c, 0, 64, 96
1, 274651, Control_c, 0, 64, 97
1, 274666, Control_c, 0, 64, 97
1, 274721, Note_off_c, 0, 63, 46
1, 274727, Note_off_c, 0, 72, 59
1, 274729, Note_on_c, 0, 70, 70
1, 274736, Note_on_c, 0, 62, 54
1, 274839, Note_off_c, 0, 70, 64
1, 274847, Note_on_c, 0, 69, 70
1, 274851, Control_c, 0, 64, 96
1, 274865, Control_c, 0, 64, 94
1, 274871, Note_off_c, 0, 62, 35
1, 274880, Control_c, 0, 64, 89
1, 274889, Note_off_c, 0, 69, 55
1, 274895, Control_c, 0, 64, 81
1, 274907, Note_on_c, 0, 70, 62
1, 274910, Control_c, 0, 64, 73
1, 274925, Control_c, 0, 64, 63
1, 274940, Control_c, 0, 64, 0
1, 274948, Note_off_c, 0, 70, 60
1, 274957, Note_on_c, 0, 64, 46
1, 274960, Note_on_c, 0, 61, 37
1, 274970, Note_on_c, 0, 69, 54
1, 275193, Note_off_c, 0, 69, 61
1, 275196, Note_off_c, 0, 64, 57
1, 275197, Note_on_c, 0, 67, 53
1, 275220, Note_off_c, 0, 58, 31
1, 275253, Note_off_c, 0, 61, 51
1, 275369, Control_c, 0, 64, 42
1, 275384, Control_c, 0, 64, 60
1, 275399, Control_c, 0, 64, 65
1, 275414, Control_c, 0, 64, 66
1, 275429, Control_c, 0, 64, 65
1, 275444, Control_c, 0, 64, 61
1, 275459, Control_c, 0, 64, 51
1, 275474, Note_off_c, 0, 67, 49
1, 275474, Control_c, 0, 64, 38
1, 275476, Note_on_c, 0, 72, 44
1, 275488, Control_c, 0, 64, 14
1, 275503, Control_c, 0, 64, 0
1, 275585, Control_c, 0, 64, 51
1, 275600, Control_c, 0, 64, 63
1, 275614, Control_c, 0, 64, 67
1, 275629, Control_c, 0, 64, 70
1, 275644, Control_c, 0, 64, 75
1, 275659, Control_c, 0, 64, 78
1, 275674, Control_c, 0, 64, 81
1, 275688, Control_c, 0, 64, 85
1, 275703, Control_c, 0, 64, 89
1, 275718, Control_c, 0, 64, 93
1, 275733, Control_c, 0, 64, 97
1, 275748, Control_c, 0, 64, 100
1, 275763, Control_c, 0, 64, 103
1, 275778, Control_c, 0, 64, 107
1, 275792, Control_c, 0, 64, 111
1, 275799, Note_off_c, 0, 72, 56
1, 275807, Control_c, 0, 64, 114
1, 275812, Note_on_c, 0, 70, 47
1, 275822, Control_c, 0, 64, 119
1, 275837, Control_c, 0, 64, 127
1, 275847, Note_off_c, 0, 70, 62
1, 276091, Note_on_c, 0, 52, 61
1, 276126, Note_on_c, 0, 69, 37
1, 276171, Note_on_c, 0, 61, 24
1, 276344, Note_off_c, 0, 69, 48
1, 276368, Note_off_c, 0, 61, 41
1, 276393, Note_on_c, 0, 67, 39
1, 276415, Note_on_c, 0, 62, 36
1, 276645, Note_off_c, 0, 62, 39
1, 276684, Note_on_c, 0, 53, 69
1, 276704, Note_off_c, 0, 52, 60
1, 276715, Note_on_c, 0, 46, 55
1, 276733, Control_c, 0, 64, 100
1, 276748, Control_c, 0, 64, 82
1, 276762, Control_c, 0, 64, 65
1, 276777, Control_c, 0, 64, 0
1, 276807, Control_c, 0, 64, 34
1, 276822, Control_c, 0, 64, 64
1, 276827, Note_off_c, 0, 67, 29
1, 276836, Control_c, 0, 64, 72
1, 276851, Control_c, 0, 64, 80
1, 276866, Control_c, 0, 64, 87
1, 276881, Control_c, 0, 64, 90
1, 276896, Control_c, 0, 64, 93
1, 276910, Control_c, 0, 64, 96
1, 276911, Note_on_c, 0, 60, 51
1, 276925, Control_c, 0, 64, 99
1, 276936, Note_off_c, 0, 60, 58
1, 276940, Control_c, 0, 64, 102
1, 276955, Control_c, 0, 64, 104
1, 276970, Control_c, 0, 64, 105
1, 276985, Control_c, 0, 64, 106
1, 277000, Control_c, 0, 64, 107
1, 277015, Control_c, 0, 64, 108
1, 277117, Note_on_c, 0, 55, 68
1, 277141, Control_c, 0, 64, 107
1, 277143, Note_on_c, 0, 70, 49
1, 277156, Control_c, 0, 64, 97
1, 277172, Control_c, 0, 64, 84
1, 277186, Control_c, 0, 64, 72
1, 277196, Note_off_c, 0, 53, 61
1, 277201, Control_c, 0, 64, 62
1, 277216, Control_c, 0, 64, 57
1, 277223, Poly_aftertouch_c, 0, 63, 127
1, 277231, Control_c, 0, 64, 63
1, 277246, Control_c, 0, 64, 70
1, 277260, Control_c, 0, 64, 76
1, 277275, Control_c, 0, 64, 80
1, 277290, Control_c, 0, 64, 82
1, 277305, Control_c, 0, 64, 83
1, 277320, Control_c, 0, 64, 84
1, 277329, Note_on_c, 0, 72, 46
1, 277334, Control_c, 0, 64, 86
1, 277339, Note_off_c, 0, 70, 36
1, 277349, Control_c, 0, 64, 88
1, 277364, Control_c, 0, 64, 89
1, 277379, Control_c, 0, 64, 90
1, 277384, Poly_aftertouch_c, 0, 63, 0
1, 277393, Control_c, 0, 64, 91
1, 277408, Control_c, 0, 64, 92
1, 277438, Control_c, 0, 64, 93
1, 277507, Note_on_c, 0, 57, 72
1, 277507, Note_off_c, 0, 72, 56
1, 277512, Control_c, 0, 64, 92
1, 277522, Note_on_c, 0, 75, 53
1, 277527, Control_c, 0, 64, 84
1, 277542, Note_off_c, 0, 55, 58
1, 277542, Control_c, 0, 64, 73
1, 277554, Note_on_c, 0, 67, 35
1, 277557, Control_c, 0, 64, 58
1, 277572, Control_c, 0, 64, 0
1, 277601, Control_c, 0, 64, 23
1, 277616, Control_c, 0, 64, 64
1, 277631, Control_c, 0, 64, 73
1, 277638, Note_off_c, 0, 75, 53
1, 277646, Control_c, 0, 64, 78
1, 277653, Note_off_c, 0, 67, 37
1, 277660, Control_c, 0, 64, 81
1, 277675, Control_c, 0, 64, 82
1, 277690, Control_c, 0, 64, 83
1, 277705, Control_c, 0, 64, 85
1, 277716, Note_on_c, 0, 72, 40
1, 277720, Control_c, 0, 64, 87
1, 277734, Control_c, 0, 64, 90
1, 277749, Control_c, 0, 64, 93
1, 277764, Control_c, 0, 64, 95
1, 277778, Control_c, 0, 64, 98
1, 277793, Control_c, 0, 64, 100
1, 277816, Control_c, 0, 64, 102
1, 277831, Control_c, 0, 64, 104
1, 277876, Control_c, 0, 64, 96
1, 277891, Control_c, 0, 64, 83
1, 277906, Control_c, 0, 64, 70
1, 277921, Control_c, 0, 64, 61
1, 277922, Note_on_c, 0, 77, 34
1, 277936, Control_c, 0, 64, 63
1, 277939, Note_on_c, 0, 63, 27
1, 277951, Control_c, 0, 64, 69
1, 277965, Control_c, 0, 64, 77
1, 277980, Control_c, 0, 64, 84
1, 277981, Note_off_c, 0, 46, 59
1, 277995, Control_c, 0, 64, 89
1, 278004, Note_off_c, 0, 77, 35
1, 278009, Control_c, 0, 64, 92
1, 278024, Control_c, 0, 64, 94
1, 278039, Control_c, 0, 64, 96
1, 278054, Control_c, 0, 64, 98
1, 278069, Control_c, 0, 64, 100
1, 278083, Control_c, 0, 64, 102
1, 278093, Note_on_c, 0, 75, 46
1, 278098, Note_off_c, 0, 63, 39
1, 278098, Control_c, 0, 64, 104
1, 278113, Control_c, 0, 64, 108
1, 278120, Note_off_c, 0, 72, 44
1, 278128, Control_c, 0, 64, 112
1, 278135, Note_off_c, 0, 75, 56
1, 278143, Control_c, 0, 64, 117
1, 278157, Control_c, 0, 64, 123
1, 278172, Control_c, 0, 64, 127
1, 278258, Note_on_c, 0, 58, 73
1, 278289, Note_on_c, 0, 74, 59
1, 278291, Note_off_c, 0, 57, 37
1, 278305, Control_c, 0, 64, 96
1, 278320, Control_c, 0, 64, 71
1, 278332, Note_on_c, 0, 63, 26
1, 278335, Control_c, 0, 64, 0
1, 278374, Poly_aftertouch_c, 0, 67, 127
1, 278395, Control_c, 0, 64, 62
1, 278409, Control_c, 0, 64, 72
1, 278424, Control_c, 0, 64, 80
1, 278435, Note_off_c, 0, 74, 56
1, 278437, Note_off_c, 0, 63, 38
1, 278439, Control_c, 0, 64, 90
1, 278443, Poly_aftertouch_c, 0, 67, 0
1, 278449, Note_on_c, 0, 72, 62
1, 278454, Control_c, 0, 64, 97
1, 278469, Control_c, 0, 64, 104
1, 278483, Control_c, 0, 64, 114
1, 278498, Control_c, 0, 64, 127
1, 278621, Note_on_c, 0, 60, 72
1, 278624, Note_off_c, 0, 72, 55
1, 278640, Note_on_c, 0, 70, 60
1, 278654, Control_c, 0, 64, 106
1, 278655, Note_off_c, 0, 58, 57
1, 278669, Control_c, 0, 64, 81
1, 278684, Control_c, 0, 64, 67
1, 278699, Control_c, 0, 64, 57
1, 278714, Control_c, 0, 64, 62
1, 278729, Control_c, 0, 64, 69
1, 278744, Control_c, 0, 64, 79
1, 278758, Control_c, 0, 64, 89
1, 278773, Control_c, 0, 64, 97
1, 278785, Note_on_c, 0, 69, 65
1, 278788, Control_c, 0, 64, 103
1, 278788, Note_off_c, 0, 70, 52
1, 278803, Control_c, 0, 64, 113
1, 278818, Control_c, 0, 64, 127
1, 278827, Note_off_c, 0, 69, 58
1, 278948, Note_off_c, 0, 60, 35
1, 278974, Note_on_c, 0, 62, 62
1, 278989, Note_on_c, 0, 70, 71
1, 279010, Control_c, 0, 64, 89
1, 279011, Note_on_c, 0, 67, 38
1, 279015, Note_on_c, 0, 65, 52
1, 279025, Control_c, 0, 64, 70
1, 279039, Control_c, 0, 64, 35
1, 279054, Control_c, 0, 64, 0
1, 279069, Control_c, 0, 64, 59
1, 279082, Note_off_c, 0, 62, 60
1, 279084, Control_c, 0, 64, 70
1, 279087, Note_on_c, 0, 63, 71
1, 279099, Control_c, 0, 64, 79
1, 279113, Control_c, 0, 64, 87
1, 279128, Control_c, 0, 64, 92
1, 279131, Note_on_c, 0, 77, 67
1, 279143, Control_c, 0, 64, 99
1, 279149, Note_off_c, 0, 65, 0
1, 279158, Control_c, 0, 64, 108
1, 279166, Note_off_c, 0, 63, 60
1, 279173, Control_c, 0, 64, 121
1, 279185, Poly_aftertouch_c, 0, 65, 127
1, 279188, Control_c, 0, 64, 127
1, 279188, Note_on_c, 0, 62, 75
1, 279338, Note_on_c, 0, 60, 85
1, 279353, Note_off_c, 0, 70, 60
1, 279357, Note_off_c, 0, 62, 52
1, 279358, Control_c, 0, 64, 102
1, 279373, Note_on_c, 0, 75, 63
1, 279373, Control_c, 0, 64, 78
1, 279387, Control_c, 0, 64, 60
1, 279393, Poly_aftertouch_c, 0, 65, 0
1, 279402, Control_c, 0, 64, 0
1, 279422, Note_off_c, 0, 67, 42
1, 279433, Control_c, 0, 64, 63
1, 279448, Control_c, 0, 64, 75
1, 279462, Control_c, 0, 64, 89
1, 279477, Control_c, 0, 64, 110
1, 279492, Control_c, 0, 64, 127
1, 279522, Note_on_c, 0, 69, 63
1, 279563, Note_off_c, 0, 77, 30
1, 279641, Control_c, 0, 64, 101
1, 279655, Control_c, 0, 64, 78
1, 279669, Note_on_c, 0, 62, 78
1, 279670, Control_c, 0, 64, 64
1, 279676, Note_off_c, 0, 60, 62
1, 279682, Note_off_c, 0, 69, 58
1, 279685, Control_c, 0, 64, 63
1, 279700, Control_c, 0, 64, 69
1, 279700, Note_off_c, 0, 62, 61
1, 279715, Control_c, 0, 64, 87
1, 279726, Note_on_c, 0, 65, 60
1, 279729, Control_c, 0, 64, 118
1, 279744, Control_c, 0, 64, 127
1, 279802, Note_off_c, 0, 65, 60
1, 279836, Note_on_c, 0, 70, 57
1, 279846, Note_off_c, 0, 75, 60
1, 279860, Note_off_c, 0, 70, 65
1, 279873, Note_on_c, 0, 48, 55
1, 279921, Note_on_c, 0, 53, 62
1, 279983, Note_on_c, 0, 58, 53
1, 280059, Note_off_c, 0, 48, 38
1, 280062, Control_c, 0, 64, 111
1, 280077, Control_c, 0, 64, 81
1, 280092, Control_c, 0, 64, 61
1, 280103, Note_on_c, 0, 63, 86
1, 280107, Control_c, 0, 64, 51
1, 280122, Control_c, 0, 64, 64
1, 280133, Note_on_c, 0, 79, 50
1, 280135, Note_off_c, 0, 58, 63
1, 280136, Control_c, 0, 64, 73
1, 280151, Control_c, 0, 64, 84
1, 280167, Control_c, 0, 64, 97
1, 280176, Note_off_c, 0, 79, 51
1, 280181, Control_c, 0, 64, 106
1, 280196, Control_c, 0, 64, 113
1, 280211, Control_c, 0, 64, 120
1, 280226, Control_c, 0, 64, 127
1, 280227, Note_off_c, 0, 63, 61
1, 280264, Note_on_c, 0, 84, 65
1, 280291, Note_off_c, 0, 84, 67
1, 280322, Note_on_c, 0, 82, 47
1, 280341, Note_on_c, 0, 84, 73
1, 280347, Note_off_c, 0, 82, 58
1, 280389, Note_on_c, 0, 82, 79
1, 280389, Note_off_c, 0, 84, 64
1, 280404, Note_on_c, 0, 60, 88
1, 280435, Note_off_c, 0, 53, 42
1, 280525, Note_off_c, 0, 82, 65
1, 280551, Note_on_c, 0, 81, 61
1, 280568, Note_off_c, 0, 81, 65
1, 280733, Note_on_c, 0, 57, 87
1, 280749, Note_off_c, 0, 60, 56
1, 280760, Note_on_c, 0, 77, 70
1, 280784, Note_on_c, 0, 74, 31
1, 280794, Note_on_c, 0, 65, 43
1, 280828, Note_off_c, 0, 74, 54
1, 280874, Note_off_c, 0, 65, 55
1, 280916, Note_off_c, 0, 77, 62
1, 280933, Note_on_c, 0, 72, 65
1, 280934, Note_off_c, 0, 57, 58
1, 280936, Note_on_c, 0, 75, 62
1, 280968, Note_off_c, 0, 72, 62
1, 280972, Note_off_c, 0, 75, 62
1, 281144, Note_on_c, 0, 56, 82
1, 281161, Note_on_c, 0, 75, 61
1, 281167, Control_c, 0, 64, 108
1, 281182, Control_c, 0, 64, 81
1, 281185, Note_on_c, 0, 65, 43
1, 281197, Control_c, 0, 64, 62
1, 281212, Control_c, 0, 64, 0
1, 281271, Control_c, 0, 64, 50
1, 281286, Control_c, 0, 64, 65
1, 281301, Control_c, 0, 64, 71
1, 281316, Control_c, 0, 64, 78
1, 281331, Control_c, 0, 64, 88
1, 281346, Control_c, 0, 64, 96
1, 281356, Note_off_c, 0, 65, 59
1, 281360, Control_c, 0, 64, 104
1, 281369, Note_on_c, 0, 74, 71
1, 281375, Control_c, 0, 64, 112
1, 281390, Control_c, 0, 64, 127
1, 281395, Note_off_c, 0, 75, 35
1, 281401, Note_off_c, 0, 74, 64
1, 281501, Note_on_c, 0, 46, 75
1, 281522, Note_on_c, 0, 62, 73
1, 281564, Note_off_c, 0, 56, 52
1, 281672, Note_on_c, 0, 65, 76
1, 281711, Note_off_c, 0, 62, 59
1, 281851, Note_on_c, 0, 56, 84
1, 281855, Note_on_c, 0, 71, 69
1, 281857, Control_c, 0, 64, 113
1, 281872, Control_c, 0, 64, 89
1, 281887, Control_c, 0, 64, 74
1, 281902, Control_c, 0, 64, 66
1, 281917, Control_c, 0, 64, 68
1, 281931, Control_c, 0, 64, 76
1, 281946, Control_c, 0, 64, 84
1, 281961, Control_c, 0, 64, 91
1, 281975, Control_c, 0, 64, 92
1, 281990, Control_c, 0, 64, 94
1, 282005, Control_c, 0, 64, 97
1, 282020, Control_c, 0, 64, 99
1, 282035, Control_c, 0, 64, 102
1, 282036, Note_off_c, 0, 71, 65
1, 282037, Note_off_c, 0, 65, 60
1, 282043, Note_on_c, 0, 70, 73
1, 282049, Control_c, 0, 64, 103
1, 282064, Control_c, 0, 64, 104
1, 282079, Control_c, 0, 64, 106
1, 282094, Control_c, 0, 64, 108
1, 282109, Control_c, 0, 64, 112
1, 282124, Control_c, 0, 64, 114
1, 282139, Control_c, 0, 64, 114
1, 282213, Control_c, 0, 64, 106
1, 282214, Note_off_c, 0, 46, 26
1, 282228, Control_c, 0, 64, 83
1, 282231, Note_on_c, 0, 55, 75
1, 282240, Note_off_c, 0, 56, 52
1, 282243, Control_c, 0, 64, 56
1, 282246, Note_on_c, 0, 63, 69
1, 282257, Control_c, 0, 64, 0
1, 282310, Note_off_c, 0, 70, 61
1, 282324, Control_c, 0, 64, 57
1, 282327, Note_off_c, 0, 63, 59
1, 282339, Control_c, 0, 64, 75
1, 282353, Control_c, 0, 64, 91
1, 282368, Control_c, 0, 64, 127
1, 282410, Note_off_c, 0, 55, 58
1, 282430, Note_on_c, 0, 46, 75
1, 282434, Note_on_c, 0, 70, 77
1, 282452, Note_on_c, 0, 67, 68
1, 282485, Note_off_c, 0, 46, 61
1, 282547, Note_off_c, 0, 67, 54
1, 282583, Note_on_c, 0, 60, 78
1, 282594, Note_on_c, 0, 75, 85
1, 282595, Note_on_c, 0, 68, 79
1, 282601, Note_off_c, 0, 70, 63
1, 282648, Note_off_c, 0, 60, 65
1, 282718, Note_off_c, 0, 75, 60
1, 282721, Note_off_c, 0, 68, 61
1, 282740, Note_on_c, 0, 67, 80
1, 282751, Note_on_c, 0, 58, 69
1, 282761, Note_off_c, 0, 67, 68
1, 282813, Note_off_c, 0, 58, 61
1, 282905, Note_on_c, 0, 77, 81
1, 282909, Note_on_c, 0, 68, 75
1, 282917, Note_on_c, 0, 60, 67
1, 282921, Note_on_c, 0, 75, 83
1, 282967, Note_off_c, 0, 77, 64
1, 282988, Note_off_c, 0, 68, 61
1, 282993, Note_off_c, 0, 60, 58
1, 283065, Note_on_c, 0, 58, 75
1, 283065, Note_on_c, 0, 82, 94
1, 283075, Note_on_c, 0, 67, 77
1, 283197, Note_off_c, 0, 67, 50
1, 283247, Note_on_c, 0, 68, 78
1, 283266, Control_c, 0, 64, 106
1, 283267, Note_on_c, 0, 83, 95
1, 283281, Note_off_c, 0, 75, 62
1, 283281, Control_c, 0, 64, 77
1, 283284, Note_on_c, 0, 74, 68
1, 283295, Note_off_c, 0, 82, 62
1, 283295, Control_c, 0, 64, 47
1, 283310, Control_c, 0, 64, 0
1, 283325, Control_c, 0, 64, 39
1, 283340, Control_c, 0, 64, 69
1, 283355, Control_c, 0, 64, 83
1, 283367, Note_off_c, 0, 74, 0
1, 283370, Control_c, 0, 64, 104
1, 283385, Control_c, 0, 64, 127
1, 283403, Poly_aftertouch_c, 0, 74, 127
1, 283422, Note_off_c, 0, 68, 59
1, 283425, Note_on_c, 0, 66, 70
1, 283426, Note_off_c, 0, 83, 61
1, 283447, Poly_aftertouch_c, 0, 74, 0
1, 283601, Note_on_c, 0, 67, 80
1, 283613, Note_on_c, 0, 82, 91
1, 283623, Note_off_c, 0, 66, 57
1, 283632, Note_on_c, 0, 75, 67
1, 283710, Note_off_c, 0, 67, 50
1, 283744, Note_off_c, 0, 58, 37
1, 283804, Note_on_c, 0, 70, 72
1, 283985, Control_c, 0, 64, 108
1, 283989, Note_off_c, 0, 70, 55
1, 283990, Note_on_c, 0, 62, 76
1, 283993, Note_on_c, 0, 66, 79
1, 284000, Control_c, 0, 64, 74
1, 284015, Control_c, 0, 64, 11
1, 284029, Control_c, 0, 64, 0
1, 284059, Note_off_c, 0, 75, 37
1, 284059, Control_c, 0, 64, 65
1, 284074, Control_c, 0, 64, 82
1, 284089, Control_c, 0, 64, 127
1, 284104, Note_off_c, 0, 82, 60
1, 284145, Note_off_c, 0, 62, 56
1, 284177, Note_off_c, 0, 66, 53
1, 284227, Note_on_c, 0, 63, 75
1, 284227, Note_on_c, 0, 67, 65
1, 284256, Note_off_c, 0, 67, 64
1, 284258, Note_off_c, 0, 63, 63
1, 284378, Note_on_c, 0, 45, 90
1, 284401, Control_c, 0, 64, 112
1, 284416, Control_c, 0, 64, 80
1, 284431, Control_c, 0, 64, 66
1, 284460, Control_c, 0, 64, 74
1, 284475, Control_c, 0, 64, 91
1, 284479, Note_off_c, 0, 45, 61
1, 284490, Control_c, 0, 64, 112
1, 284505, Control_c, 0, 64, 127
1, 284572, Note_on_c, 0, 85, 93
1, 284573, Note_on_c, 0, 55, 66
1, 284580, Note_on_c, 0, 73, 89
1, 284587, Note_on_c, 0, 78, 82
1, 284588, Note_on_c, 0, 58, 78
1, 284621, Note_off_c, 0, 55, 63
1, 284647, Note_off_c, 0, 58, 60
1, 284727, Note_off_c, 0, 85, 58
1, 284784, Note_off_c, 0, 73, 59
1, 284845, Note_on_c, 0, 79, 72
1, 284906, Note_off_c, 0, 79, 60
1, 284913, Note_off_c, 0, 78, 48
1, 284989, Note_on_c, 0, 60, 67
1, 284989, Note_on_c, 0, 55, 62
1, 285030, Note_on_c, 0, 57, 39
1, 285075, Note_on_c, 0, 91, 110
1, 285078, Note_on_c, 0, 79, 99
1, 285174, Note_off_c, 0, 60, 57
1, 285197, Note_off_c, 0, 79, 62
1, 285202, Note_off_c, 0, 91, 63
1, 285219, Note_off_c, 0, 55, 35
1, 285224, Note_on_c, 0, 61, 72
1, 285315, Note_off_c, 0, 61, 0
1, 285321, Note_off_c, 0, 57, 0
1, 285325, Note_on_c, 0, 55, 67
1, 285337, Note_on_c, 0, 61, 39
1, 285338, Note_on_c, 0, 57, 39
1, 285363, Note_on_c, 0, 63, 48
1, 285440, Note_on_c, 0, 94, 100
1, 285445, Note_on_c, 0, 82, 104
1, 285465, Note_on_c, 0, 64, 70
1, 285467, Note_off_c, 0, 55, 26
1, 285478, Note_off_c, 0, 63, 61
1, 285490, Note_off_c, 0, 64, 69
1, 285492, Note_off_c, 0, 61, 62
1, 285505, Note_off_c, 0, 57, 62
1, 285644, Control_c, 0, 64, 111
1, 285650, Note_on_c, 0, 38, 91
1, 285659, Control_c, 0, 64, 76
1, 285668, Note_off_c, 0, 94, 58
1, 285674, Control_c, 0, 64, 50
1, 285689, Control_c, 0, 64, 55
1, 285703, Note_off_c, 0, 82, 56
1, 285704, Control_c, 0, 64, 70
1, 285707, Note_off_c, 0, 38, 65
1, 285718, Control_c, 0, 64, 86
1, 285733, Control_c, 0, 64, 127
1, 285850, Note_on_c, 0, 81, 97
1, 285850, Note_on_c, 0, 93, 101
1, 285855, Note_on_c, 0, 60, 72
1, 285865, Note_on_c, 0, 54, 68
1, 285874, Note_on_c, 0, 62, 56
1, 285881, Note_off_c, 0, 60, 66
1, 285894, Note_off_c, 0, 54, 60
1, 285898, Note_off_c, 0, 62, 60
1, 285901, Note_off_c, 0, 81, 65
1, 285903, Note_off_c, 0, 93, 65
1, 286028, Note_on_c, 0, 63, 77
1, 286125, Note_off_c, 0, 63, 48
1, 286227, Note_on_c, 0, 61, 79
1, 286238, Note_on_c, 0, 90, 93
1, 286241, Note_on_c, 0, 78, 99
1, 286288, Note_off_c, 0, 90, 68
1, 286291, Note_off_c, 0, 78, 64
1, 286419, Note_off_c, 0, 61, 22
1, 286444, Note_on_c, 0, 62, 71
1, 286469, Note_off_c, 0, 62, 65
1, 286672, Note_on_c, 0, 86, 93
1, 286673, Note_on_c, 0, 74, 97
1, 286675, Note_on_c, 0, 70, 85
1, 286680, Note_on_c, 0, 60, 73
1, 286683, Note_on_c, 0, 66, 78
1, 286691, Note_on_c, 0, 62, 65
1, 286741, Note_off_c, 0, 70, 65
1, 286916, Note_on_c, 0, 69, 92
1, 286938, Note_off_c, 0, 66, 60
1, 286938, Note_off_c, 0, 69, 69
1, 286963, Note_off_c, 0, 62, 63
1, 286966, Note_off_c, 0, 60, 67
1, 287257, Note_on_c, 0, 31, 96
1, 287260, Control_c, 0, 64, 106
1, 287275, Control_c, 0, 64, 69
1, 287290, Control_c, 0, 64, 0
1, 287299, Note_off_c, 0, 86, 59
1, 287302, Note_off_c, 0, 74, 55
1, 287349, Control_c, 0, 64, 43
1, 287364, Control_c, 0, 64, 68
1, 287379, Control_c, 0, 64, 81
1, 287394, Control_c, 0, 64, 109
1, 287406, Note_off_c, 0, 31, 62
1, 287409, Control_c, 0, 64, 127
1, 287800, Note_on_c, 0, 59, 62
1, 287801, Note_on_c, 0, 53, 66
1, 287820, Note_on_c, 0, 61, 65
1, 287829, Note_on_c, 0, 83, 90
1, 287835, Note_on_c, 0, 71, 79
1, 287856, Note_off_c, 0, 71, 71
1, 287896, Note_off_c, 0, 53, 62
1, 287901, Note_off_c, 0, 83, 66
1, 287950, Note_off_c, 0, 59, 57
1, 287960, Note_off_c, 0, 61, 61
1, 288011, Note_on_c, 0, 62, 68
1, 288107, Note_off_c, 0, 62, 49
1, 288175, Note_on_c, 0, 63, 65
1, 288219, Note_on_c, 0, 92, 99
1, 288223, Note_on_c, 0, 80, 98
1, 288259, Note_on_c, 0, 62, 68
1, 288265, Note_off_c, 0, 63, 57
1, 288293, Note_off_c, 0, 62, 64
1, 288445, Note_on_c, 0, 36, 89
1, 288447, Control_c, 0, 64, 89
1, 288462, Control_c, 0, 64, 48
1, 288477, Control_c, 0, 64, 0
1, 288506, Control_c, 0, 64, 63
1, 288512, Note_off_c, 0, 36, 61
1, 288521, Control_c, 0, 64, 79
1, 288536, Control_c, 0, 64, 114
1, 288547, Note_off_c, 0, 92, 60
1, 288551, Control_c, 0, 64, 127
1, 288551, Note_off_c, 0, 80, 58
1, 288677, Note_on_c, 0, 91, 100
1, 288678, Note_on_c, 0, 60, 79
1, 288680, Note_on_c, 0, 79, 98
1, 288703, Note_on_c, 0, 52, 44
1, 288716, Note_on_c, 0, 58, 31
1, 288736, Note_off_c, 0, 60, 52
1, 288737, Note_off_c, 0, 52, 53
1, 288763, Note_off_c, 0, 58, 61
1, 288786, Note_off_c, 0, 91, 60
1, 288822, Note_off_c, 0, 79, 62
1, 288870, Note_on_c, 0, 61, 80
1, 288933, Note_off_c, 0, 61, 57
1, 288983, Poly_aftertouch_c, 0, 58, 0
1, 289081, Note_on_c, 0, 88, 98
1, 289082, Note_on_c, 0, 76, 99
1, 289087, Note_on_c, 0, 59, 76
1, 289169, Note_off_c, 0, 88, 62
1, 289179, Note_off_c, 0, 76, 60
1, 289242, Note_off_c, 0, 59, 30
1, 289317, Note_on_c, 0, 60, 85
1, 289359, Note_off_c, 0, 60, 66
1, 289580, Note_on_c, 0, 68, 78
1, 289582, Note_on_c, 0, 72, 93
1, 289594, Note_on_c, 0, 84, 83
1, 289595, Note_on_c, 0, 58, 66
1, 289602, Note_on_c, 0, 60, 51
1, 289607, Note_on_c, 0, 64, 60
1, 289803, Note_off_c, 0, 68, 58
1, 289961, Control_c, 0, 64, 106
1, 289967, Note_on_c, 0, 67, 86
1, 289976, Control_c, 0, 64, 80
1, 289990, Control_c, 0, 64, 58
1, 290005, Control_c, 0, 64, 0
1, 290020, Control_c, 0, 64, 43
1, 290035, Control_c, 0, 64, 67
1, 290050, Control_c, 0, 64, 79
1, 290064, Control_c, 0, 64, 95
1, 290079, Control_c, 0, 64, 121
1, 290093, Note_off_c, 0, 84, 54
1, 290094, Control_c, 0, 64, 127
1, 290119, Note_off_c, 0, 58, 59
1, 290121, Note_off_c, 0, 64, 61
1, 290123, Note_off_c, 0, 60, 58
1, 290157, Note_off_c, 0, 67, 59
1, 290650, Control_c, 0, 64, 97
1, 290665, Control_c, 0, 64, 76
1, 290680, Control_c, 0, 64, 53
1, 290694, Control_c, 0, 64, 0
1, 291724, Control_c, 0, 64, 37
1, 291739, Control_c, 0, 64, 54
1, 291754, Control_c, 0, 64, 62
1, 291768, Control_c, 0, 64, 67
1, 291783, Control_c, 0, 64, 72
1, 291798, Control_c, 0, 64, 77
1, 291813, Control_c, 0, 64, 80
1, 291828, Control_c, 0, 64, 82
1, 291842, Control_c, 0, 64, 84
1, 291857, Control_c, 0, 64, 87
1, 291872, Control_c, 0, 64, 90
1, 291886, Control_c, 0, 64, 94
1, 291901, Control_c, 0, 64, 97
1, 291916, Control_c, 0, 64, 100
1, 291931, Control_c, 0, 64, 104
1, 291946, Control_c, 0, 64, 109
1, 291961, Control_c, 0, 64, 118
1, 291976, Control_c, 0, 64, 127
1, 291991, Control_c, 0, 67, 12
1, 292006, Control_c, 0, 67, 20
1, 292021, Control_c, 0, 67, 28
1, 292042, Control_c, 0, 67, 36
1, 292057, Control_c, 0, 67, 45
1, 292072, Control_c, 0, 67, 55
1, 292087, Control_c, 0, 67, 68
1, 292101, Control_c, 0, 67, 82
1, 292116, Control_c, 0, 67, 98
1, 292131, Control_c, 0, 67, 111
1, 292146, Control_c, 0, 67, 122
1, 292161, Control_c, 0, 67, 127
1, 292666, Note_on_c, 0, 53, 27
1, 292670, Note_on_c, 0, 63, 35
1, 292721, Note_on_c, 0, 57, 8
1, 292822, Note_off_c, 0, 53, 50
1, 292825, Note_off_c, 0, 63, 57
1, 292897, Note_off_c, 0, 57, 44
1, 293089, Control_c, 0, 67, 125
1, 293104, Control_c, 0, 67, 116
1, 293119, Control_c, 0, 67, 110
1, 293133, Control_c, 0, 67, 104
1, 293148, Control_c, 0, 67, 98
1, 293163, Control_c, 0, 67, 87
1, 293178, Control_c, 0, 67, 72
1, 293193, Control_c, 0, 67, 54
1, 293207, Control_c, 0, 67, 39
1, 293222, Control_c, 0, 67, 29
1, 293237, Control_c, 0, 67, 20
1, 293252, Control_c, 0, 67, 13
1, 293267, Control_c, 0, 67, 0
1, 293400, Note_off_c, 0, 72, 44
1, 293404, Note_on_c, 0, 74, 55
1, 293827, Note_off_c, 0, 74, 63
1, 293839, Note_on_c, 0, 75, 67
1, 293869, Note_off_c, 0, 75, 64
1, 294062, Note_on_c, 0, 46, 37
1, 294143, Note_on_c, 0, 62, 42
1, 294220, Note_on_c, 0, 68, 29
1, 294328, Note_on_c, 0, 77, 70
1, 294364, Control_c, 0, 64, 92
1, 294378, Control_c, 0, 64, 72
1, 294393, Control_c, 0, 64, 52
1, 294408, Control_c, 0, 64, 0
1, 294423, Control_c, 0, 64, 54
1, 294438, Control_c, 0, 64, 68
1, 294453, Control_c, 0, 64, 82
1, 294465, Note_off_c, 0, 62, 55
1, 294468, Control_c, 0, 64, 94
1, 294482, Control_c, 0, 64, 105
1, 294497, Control_c, 0, 64, 115
1, 294512, Control_c, 0, 64, 127
1, 294520, Note_off_c, 0, 68, 52
1, 294713, Note_off_c, 0, 77, 60
1, 294721, Note_on_c, 0, 78, 72
1, 294789, Note_off_c, 0, 46, 41
1, 295140, Note_on_c, 0, 77, 68
1, 295172, Note_off_c, 0, 78, 61
1, 295625, Note_on_c, 0, 67, 39
1, 295631, Control_c, 0, 64, 112
1, 295635, Note_on_c, 0, 51, 37
1, 295646, Control_c, 0, 64, 95
1, 295661, Control_c, 0, 64, 81
1, 295675, Control_c, 0, 64, 67
1, 295690, Control_c, 0, 64, 0
1, 295750, Control_c, 0, 64, 11
1, 295765, Control_c, 0, 64, 62
1, 295787, Control_c, 0, 64, 70
1, 295802, Control_c, 0, 64, 75
1, 295816, Control_c, 0, 64, 80
1, 295831, Control_c, 0, 64, 84
1, 295846, Control_c, 0, 64, 88
1, 295860, Control_c, 0, 64, 93
1, 295875, Control_c, 0, 64, 99
1, 295891, Control_c, 0, 64, 106
1, 295906, Control_c, 0, 64, 111
1, 295921, Control_c, 0, 64, 118
1, 295935, Control_c, 0, 64, 127
1, 296130, Note_off_c, 0, 77, 56
1, 296152, Note_on_c, 0, 75, 56
1, 296166, Note_on_c, 0, 60, 38
1, 296218, Control_c, 0, 64, 117
1, 296233, Control_c, 0, 64, 105
1, 296247, Control_c, 0, 64, 91
1, 296262, Control_c, 0, 64, 75
1, 296277, Control_c, 0, 64, 63
1, 296292, Control_c, 0, 64, 14
1, 296307, Control_c, 0, 64, 0
1, 296322, Control_c, 0, 64, 49
1, 296322, Control_c, 0, 67, 9
1, 296337, Control_c, 0, 64, 65
1, 296337, Control_c, 0, 67, 13
1, 296351, Control_c, 0, 64, 73
1, 296351, Control_c, 0, 67, 17
1, 296366, Control_c, 0, 64, 78
1, 296366, Control_c, 0, 67, 23
1, 296381, Control_c, 0, 64, 81
1, 296381, Control_c, 0, 67, 29
1, 296396, Control_c, 0, 64, 83
1, 296396, Control_c, 0, 67, 36
1, 296411, Control_c, 0, 64, 84
1, 296411, Control_c, 0, 67, 41
1, 296425, Control_c, 0, 64, 85
1, 296425, Control_c, 0, 67, 45
1, 296440, Control_c, 0, 64, 87
1, 296440, Control_c, 0, 67, 50
1, 296455, Control_c, 0, 64, 89
1, 296455, Control_c, 0, 67, 56
1, 296470, Control_c, 0, 64, 91
1, 296470, Control_c, 0, 67, 63
1, 296484, Control_c, 0, 64, 92
1, 296484, Control_c, 0, 67, 73
1, 296499, Control_c, 0, 64, 93
1, 296499, Control_c, 0, 67, 82
1, 296514, Control_c, 0, 64, 93
1, 296514, Control_c, 0, 67, 93
1, 296537, Control_c, 0, 67, 103
1, 296552, Control_c, 0, 67, 114
1, 296566, Control_c, 0, 67, 124
1, 296581, Control_c, 0, 67, 127
1, 296689, Note_on_c, 0, 66, 29
1, 296699, Control_c, 0, 64, 93
1, 296714, Control_c, 0, 64, 92
1, 296729, Control_c, 0, 64, 88
1, 296738, Note_off_c, 0, 67, 36
1, 296744, Control_c, 0, 64, 78
1, 296758, Control_c, 0, 64, 69
1, 296773, Control_c, 0, 64, 56
1, 296788, Control_c, 0, 64, 14
1, 296803, Control_c, 0, 64, 26
1, 296818, Control_c, 0, 64, 59
1, 296832, Control_c, 0, 64, 69
1, 296847, Control_c, 0, 64, 77
1, 296862, Control_c, 0, 64, 82
1, 296876, Control_c, 0, 64, 86
1, 296882, Note_off_c, 0, 60, 60
1, 296891, Control_c, 0, 64, 89
1, 296906, Control_c, 0, 64, 93
1, 296921, Control_c, 0, 64, 96
1, 296936, Control_c, 0, 64, 98
1, 296951, Control_c, 0, 64, 101
1, 296957, Note_off_c, 0, 51, 41
1, 296966, Control_c, 0, 64, 104
1, 296966, Note_off_c, 0, 75, 32
1, 296981, Control_c, 0, 64, 106
1, 296996, Control_c, 0, 64, 109
1, 297011, Control_c, 0, 64, 110
1, 297026, Control_c, 0, 64, 111
1, 297041, Control_c, 0, 64, 111
1, 297055, Control_c, 0, 64, 112
1, 297070, Control_c, 0, 64, 113
1, 297085, Control_c, 0, 64, 114
1, 297100, Control_c, 0, 64, 115
1, 297115, Control_c, 0, 64, 116
1, 297231, Note_off_c, 0, 66, 43
1, 297330, Control_c, 0, 64, 115
1, 297340, Note_on_c, 0, 41, 36
1, 297344, Control_c, 0, 64, 113
1, 297359, Control_c, 0, 64, 110
1, 297374, Control_c, 0, 64, 100
1, 297380, Note_on_c, 0, 74, 52
1, 297389, Control_c, 0, 64, 86
1, 297393, Note_on_c, 0, 65, 37
1, 297404, Control_c, 0, 64, 71
1, 297419, Control_c, 0, 64, 55
1, 297434, Control_c, 0, 64, 14
1, 297449, Control_c, 0, 64, 50
1, 297463, Control_c, 0, 64, 65
1, 297478, Control_c, 0, 64, 72
1, 297493, Control_c, 0, 64, 77
1, 297507, Control_c, 0, 64, 81
1, 297522, Control_c, 0, 64, 85
1, 297537, Control_c, 0, 64, 88
1, 297552, Control_c, 0, 64, 93
1, 297567, Control_c, 0, 64, 97
1, 297581, Control_c, 0, 64, 101
1, 297596, Control_c, 0, 64, 103
1, 297611, Control_c, 0, 64, 105
1, 297622, Note_off_c, 0, 65, 36
1, 297623, Note_off_c, 0, 74, 39
1, 297626, Control_c, 0, 64, 107
1, 297640, Control_c, 0, 64, 110
1, 297655, Control_c, 0, 64, 113
1, 297670, Control_c, 0, 64, 116
1, 297671, Note_on_c, 0, 67, 44
1, 297685, Control_c, 0, 64, 119
1, 297700, Control_c, 0, 64, 121
1, 297714, Control_c, 0, 64, 123
1, 297729, Control_c, 0, 64, 127
1, 297862, Note_off_c, 0, 67, 51
1, 297902, Note_on_c, 0, 70, 58
1, 297923, Note_on_c, 0, 53, 41
1, 298018, Note_off_c, 0, 41, 40
1, 298084, Note_off_c, 0, 53, 60
1, 298105, Note_on_c, 0, 63, 43
1, 298131, Note_off_c, 0, 70, 59
1, 298205, Note_off_c, 0, 63, 46
1, 298248, Note_on_c, 0, 67, 63
1, 298269, Control_c, 0, 67, 120
1, 298284, Control_c, 0, 67, 113
1, 298299, Control_c, 0, 67, 104
1, 298314, Control_c, 0, 67, 97
1, 298328, Control_c, 0, 67, 88
1, 298343, Control_c, 0, 67, 77
1, 298358, Control_c, 0, 67, 68
1, 298373, Control_c, 0, 67, 61
1, 298388, Control_c, 0, 67, 57
1, 298401, Note_on_c, 0, 58, 47
1, 298403, Control_c, 0, 67, 55
1, 298418, Control_c, 0, 67, 50
1, 298432, Note_off_c, 0, 58, 63
1, 298432, Control_c, 0, 67, 44
1, 298447, Control_c, 0, 67, 37
1, 298462, Control_c, 0, 67, 32
1, 298477, Control_c, 0, 67, 28
1, 298492, Control_c, 0, 67, 25
1, 298507, Control_c, 0, 67, 22
1, 298521, Control_c, 0, 67, 19
1, 298536, Control_c, 0, 67, 14
1, 298551, Control_c, 0, 67, 10
1, 298566, Control_c, 0, 64, 112
1, 298566, Control_c, 0, 67, 0
1, 298570, Note_off_c, 0, 67, 50
1, 298575, Note_on_c, 0, 63, 43
1, 298579, Note_on_c, 0, 53, 49
1, 298581, Control_c, 0, 64, 87
1, 298591, Note_on_c, 0, 69, 58
1, 298596, Control_c, 0, 64, 70
1, 298611, Control_c, 0, 64, 0
1, 298656, Control_c, 0, 64, 52
1, 298670, Control_c, 0, 64, 66
1, 298685, Control_c, 0, 64, 73
1, 298700, Control_c, 0, 64, 79
1, 298702, Note_off_c, 0, 63, 59
1, 298715, Control_c, 0, 64, 84
1, 298730, Control_c, 0, 64, 88
1, 298744, Control_c, 0, 64, 91
1, 298748, Note_off_c, 0, 53, 64
1, 298759, Control_c, 0, 64, 93
1, 298779, Note_on_c, 0, 60, 47
1, 298781, Control_c, 0, 64, 96
1, 298796, Control_c, 0, 64, 99
1, 298811, Control_c, 0, 64, 103
1, 298826, Control_c, 0, 64, 108
1, 298841, Control_c, 0, 64, 110
1, 298855, Note_off_c, 0, 60, 48
1, 298856, Control_c, 0, 64, 113
1, 298871, Control_c, 0, 64, 116
1, 298885, Control_c, 0, 64, 122
1, 298900, Control_c, 0, 64, 127
1, 298939, Note_off_c, 0, 69, 52
1, 298941, Note_on_c, 0, 65, 65
1, 299118, Note_on_c, 0, 62, 43
1, 299210, Note_off_c, 0, 62, 43
1, 299264, Note_on_c, 0, 41, 38
1, 299315, Control_c, 0, 64, 83
1, 299330, Control_c, 0, 64, 51
1, 299330, Note_on_c, 0, 67, 55
1, 299338, Note_off_c, 0, 65, 39
1, 299344, Control_c, 0, 64, 0
1, 299367, Note_on_c, 0, 63, 35
1, 299404, Control_c, 0, 64, 65
1, 299419, Control_c, 0, 64, 74
1, 299434, Control_c, 0, 64, 81
1, 299449, Control_c, 0, 64, 87
1, 299464, Control_c, 0, 64, 91
1, 299475, Note_off_c, 0, 63, 0
1, 299479, Control_c, 0, 64, 97
1, 299493, Control_c, 0, 64, 105
1, 299502, Note_off_c, 0, 67, 59
1, 299508, Control_c, 0, 64, 110
1, 299526, Note_on_c, 0, 69, 64
1, 299530, Control_c, 0, 64, 114
1, 299545, Control_c, 0, 64, 119
1, 299547, Poly_aftertouch_c, 0, 63, 0
1, 299554, Note_on_c, 0, 60, 11
1, 299554, Note_off_c, 0, 69, 66
1, 299560, Control_c, 0, 64, 127
1, 299603, Note_off_c, 0, 60, 55
1, 299738, Control_c, 0, 64, 119
1, 299743, Note_off_c, 0, 41, 35
1, 299753, Control_c, 0, 64, 108
1, 299768, Control_c, 0, 64, 93
1, 299783, Control_c, 0, 64, 75
1, 299786, Note_on_c, 0, 72, 52
1, 299789, Note_on_c, 0, 34, 35
1, 299798, Control_c, 0, 64, 59
1, 299810, Note_on_c, 0, 63, 24
1, 299813, Control_c, 0, 64, 0
1, 299872, Control_c, 0, 64, 57
1, 299887, Control_c, 0, 64, 70
1, 299901, Control_c, 0, 64, 81
1, 299916, Control_c, 0, 64, 93
1, 299924, Note_off_c, 0, 34, 50
1, 299931, Control_c, 0, 64, 101
1, 299946, Control_c, 0, 64, 103
1, 299947, Note_off_c, 0, 72, 53
1, 299961, Control_c, 0, 64, 107
1, 299975, Control_c, 0, 64, 114
1, 299988, Note_off_c, 0, 63, 41
1, 299990, Control_c, 0, 64, 127
1, 300234, Note_on_c, 0, 53, 38
1, 300301, Note_on_c, 0, 72, 49
1, 300305, Note_on_c, 0, 63, 38
1, 300358, Note_off_c, 0, 63, 45
1, 300370, Note_off_c, 0, 72, 57
1, 300410, Note_on_c, 0, 74, 49
1, 300413, Control_c, 0, 67, 8
1, 300428, Control_c, 0, 67, 9
1, 300443, Control_c, 0, 67, 10
1, 300475, Note_off_c, 0, 74, 56
1, 300492, Note_on_c, 0, 72, 55
1, 300519, Note_off_c, 0, 53, 43
1, 300576, Control_c, 0, 67, 10
1, 300617, Note_off_c, 0, 72, 57
1, 300620, Control_c, 0, 64, 124
1, 300635, Control_c, 0, 64, 113
1, 300648, Note_on_c, 0, 58, 35
1, 300650, Control_c, 0, 64, 106
1, 300665, Note_on_c, 0, 62, 26
1, 300665, Control_c, 0, 64, 97
1, 300680, Note_on_c, 0, 70, 45
1, 300680, Control_c, 0, 64, 86
1, 300680, Control_c, 0, 67, 11
1, 300695, Control_c, 0, 64, 74
1, 300710, Control_c, 0, 64, 59
1, 300724, Control_c, 0, 64, 0
1, 300754, Control_c, 0, 64, 44
1, 300769, Control_c, 0, 64, 66
1, 300769, Control_c, 0, 67, 11
1, 300784, Control_c, 0, 64, 76
1, 300784, Control_c, 0, 67, 12
1, 300798, Control_c, 0, 64, 85
1, 300798, Control_c, 0, 67, 17
1, 300812, Note_off_c, 0, 58, 53
1, 300813, Control_c, 0, 64, 93
1, 300813, Control_c, 0, 67, 24
1, 300828, Control_c, 0, 64, 98
1, 300828, Control_c, 0, 67, 31
1, 300842, Control_c, 0, 64, 101
1, 300842, Control_c, 0, 67, 37
1, 300844, Note_off_c, 0, 62, 51
1, 300857, Control_c, 0, 64, 103
1, 300857, Control_c, 0, 67, 43
1, 300872, Control_c, 0, 64, 105
1, 300872, Control_c, 0, 67, 50
1, 300887, Control_c, 0, 64, 107
1, 300887, Control_c, 0, 67, 60
1, 300902, Control_c, 0, 64, 108
1, 300902, Control_c, 0, 67, 68
1, 300911, Note_off_c, 0, 70, 52
1, 300916, Control_c, 0, 64, 109
1, 300916, Control_c, 0, 67, 77
1, 300931, Control_c, 0, 64, 110
1, 300931, Control_c, 0, 67, 84
1, 300946, Control_c, 0, 67, 89
1, 300961, Control_c, 0, 67, 93
1, 300976, Control_c, 0, 67, 93
1, 300992, Control_c, 0, 64, 109
1, 301007, Control_c, 0, 67, 92
1, 301026, Note_on_c, 0, 69, 51
1, 301029, Control_c, 0, 64, 107
1, 301029, Control_c, 0, 67, 88
1, 301044, Control_c, 0, 64, 99
1, 301044, Control_c, 0, 67, 84
1, 301051, Note_on_c, 0, 70, 63
1, 301051, Note_off_c, 0, 69, 58
1, 301059, Control_c, 0, 64, 89
1, 301059, Control_c, 0, 67, 81
1, 301073, Control_c, 0, 64, 78
1, 301073, Control_c, 0, 67, 80
1, 301088, Control_c, 0, 64, 68
1, 301088, Control_c, 0, 67, 78
1, 301091, Note_off_c, 0, 70, 59
1, 301103, Control_c, 0, 64, 47
1, 301103, Control_c, 0, 67, 77
1, 301103, Note_on_c, 0, 69, 58
1, 301116, Note_on_c, 0, 61, 43
1, 301117, Note_on_c, 0, 58, 37
1, 301118, Control_c, 0, 64, 0
1, 301118, Control_c, 0, 67, 71
1, 301130, Note_on_c, 0, 64, 29
1, 301133, Control_c, 0, 67, 57
1, 301147, Control_c, 0, 67, 41
1, 301162, Control_c, 0, 67, 28
1, 301177, Control_c, 0, 67, 18
1, 301192, Control_c, 0, 67, 0
1, 301351, Note_off_c, 0, 69, 61
1, 301379, Note_on_c, 0, 67, 50
1, 301413, Note_off_c, 0, 58, 49
1, 301422, Note_off_c, 0, 64, 51
1, 301436, Note_off_c, 0, 61, 49
1, 301533, Control_c, 0, 67, 10
1, 301547, Control_c, 0, 67, 14
1, 301562, Control_c, 0, 67, 20
1, 301577, Control_c, 0, 67, 27
1, 301591, Control_c, 0, 67, 33
1, 301606, Control_c, 0, 67, 39
1, 301621, Control_c, 0, 67, 45
1, 301636, Control_c, 0, 67, 51
1, 301651, Control_c, 0, 67, 58
1, 301665, Control_c, 0, 67, 65
1, 301680, Control_c, 0, 67, 73
1, 301695, Control_c, 0, 67, 81
1, 301696, Note_off_c, 0, 67, 50
1, 301697, Note_on_c, 0, 72, 30
1, 301710, Control_c, 0, 67, 90
1, 301725, Control_c, 0, 67, 102
1, 301739, Control_c, 0, 67, 117
1, 301754, Control_c, 0, 67, 127
1, 301925, Control_c, 0, 64, 53
1, 301940, Control_c, 0, 64, 63
1, 301955, Control_c, 0, 64, 67
1, 301969, Control_c, 0, 64, 70
1, 301984, Control_c, 0, 64, 73
1, 301999, Control_c, 0, 64, 78
1, 302014, Control_c, 0, 64, 84
1, 302029, Control_c, 0, 64, 90
1, 302043, Control_c, 0, 64, 95
1, 302058, Control_c, 0, 64, 99
1, 302073, Control_c, 0, 64, 104
1, 302088, Control_c, 0, 64, 110
1, 302102, Control_c, 0, 64, 116
1, 302117, Control_c, 0, 64, 127
1, 302119, Note_off_c, 0, 72, 43
1, 302126, Note_on_c, 0, 70, 44
1, 302156, Note_off_c, 0, 70, 60
1, 302379, Note_on_c, 0, 52, 65
1, 302413, Note_on_c, 0, 69, 41
1, 302413, Control_c, 0, 67, 123
1, 302428, Control_c, 0, 67, 114
1, 302443, Control_c, 0, 67, 104
1, 302458, Control_c, 0, 67, 94
1, 302471, Note_on_c, 0, 61, 5
1, 302473, Control_c, 0, 67, 82
1, 302488, Control_c, 0, 67, 64
1, 302502, Control_c, 0, 67, 50
1, 302525, Control_c, 0, 67, 39
1, 302540, Control_c, 0, 67, 28
1, 302555, Control_c, 0, 67, 17
1, 302569, Control_c, 0, 67, 0
1, 302599, Note_off_c, 0, 61, 36
1, 302609, Note_off_c, 0, 69, 49
1, 302659, Note_on_c, 0, 62, 28
1, 302660, Note_on_c, 0, 67, 31
1, 302869, Note_off_c, 0, 62, 40
1, 302872, Note_on_c, 0, 53, 66
1, 302875, Note_off_c, 0, 52, 58
1, 302908, Note_on_c, 0, 46, 47
1, 302912, Control_c, 0, 64, 91
1, 302926, Control_c, 0, 64, 73
1, 302941, Control_c, 0, 64, 53
1, 302952, Note_on_c, 0, 63, 14
1, 302956, Note_on_c, 0, 65, 10
1, 302956, Control_c, 0, 64, 0
1, 302964, Note_off_c, 0, 67, 40
1, 302986, Control_c, 0, 64, 64
1, 303000, Control_c, 0, 64, 72
1, 303015, Control_c, 0, 64, 81
1, 303030, Control_c, 0, 64, 87
1, 303038, Note_off_c, 0, 65, 40
1, 303044, Control_c, 0, 64, 89
1, 303059, Control_c, 0, 64, 93
1, 303074, Control_c, 0, 64, 98
1, 303089, Control_c, 0, 64, 103
1, 303092, Note_off_c, 0, 63, 27
1, 303104, Control_c, 0, 64, 110
1, 303109, Note_on_c, 0, 60, 42
1, 303118, Control_c, 0, 64, 117
1, 303133, Control_c, 0, 64, 127
1, 303138, Note_off_c, 0, 60, 56
1, 303285, Note_on_c, 0, 55, 68
1, 303319, Control_c, 0, 64, 123
1, 303321, Note_on_c, 0, 70, 50
1, 303333, Control_c, 0, 64, 94
1, 303340, Note_off_c, 0, 53, 60
1, 303348, Control_c, 0, 64, 78
1, 303363, Control_c, 0, 64, 66
1, 303378, Control_c, 0, 64, 59
1, 303380, Note_on_c, 0, 63, 6
1, 303394, Control_c, 0, 64, 64
1, 303409, Control_c, 0, 64, 71
1, 303423, Control_c, 0, 64, 79
1, 303438, Control_c, 0, 64, 85
1, 303453, Control_c, 0, 64, 88
1, 303467, Control_c, 0, 64, 91
1, 303470, Note_off_c, 0, 63, 0
1, 303482, Control_c, 0, 64, 92
1, 303497, Control_c, 0, 64, 94
1, 303506, Note_off_c, 0, 70, 43
1, 303508, Poly_aftertouch_c, 0, 63, 127
1, 303512, Note_on_c, 0, 72, 47
1, 303512, Control_c, 0, 64, 97
1, 303527, Control_c, 0, 64, 99
1, 303542, Control_c, 0, 64, 102
1, 303553, Poly_aftertouch_c, 0, 63, 0
1, 303557, Control_c, 0, 64, 106
1, 303572, Control_c, 0, 64, 110
1, 303586, Control_c, 0, 64, 113
1, 303601, Control_c, 0, 64, 114
1, 303670, Note_on_c, 0, 57, 71
1, 303675, Control_c, 0, 64, 111
1, 303676, Note_off_c, 0, 55, 62
1, 303682, Note_off_c, 0, 72, 56
1, 303690, Control_c, 0, 64, 97
1, 303697, Note_on_c, 0, 75, 57
1, 303705, Control_c, 0, 64, 80
1, 303720, Control_c, 0, 64, 66
1, 303735, Control_c, 0, 64, 0
1, 303738, Note_on_c, 0, 67, 8
1, 303764, Control_c, 0, 64, 34
1, 303776, Note_off_c, 0, 67, 42
1, 303779, Control_c, 0, 64, 66
1, 303793, Control_c, 0, 64, 75
1, 303803, Note_off_c, 0, 75, 58
1, 303808, Control_c, 0, 64, 82
1, 303823, Control_c, 0, 64, 87
1, 303838, Control_c, 0, 64, 89
1, 303853, Control_c, 0, 64, 91
1, 303867, Control_c, 0, 64, 94
1, 303882, Note_on_c, 0, 72, 51
1, 303882, Control_c, 0, 64, 98
1, 303897, Control_c, 0, 64, 102
1, 303912, Control_c, 0, 64, 107
1, 303927, Control_c, 0, 64, 114
1, 303941, Control_c, 0, 64, 127
1, 304080, Note_on_c, 0, 77, 40
1, 304088, Note_on_c, 0, 63, 44
1, 304131, Note_off_c, 0, 46, 45
1, 304169, Note_off_c, 0, 77, 33
1, 304242, Note_off_c, 0, 63, 40
1, 304246, Note_on_c, 0, 75, 56
1, 304248, Note_off_c, 0, 72, 59
1, 304283, Note_off_c, 0, 75, 62
1, 304391, Note_off_c, 0, 57, 56
1, 304418, Note_on_c, 0, 58, 76
1, 304460, Note_on_c, 0, 74, 56
1, 304573, Poly_aftertouch_c, 0, 63, 0
1, 304603, Note_off_c, 0, 74, 57
1, 304615, Note_on_c, 0, 72, 59
1, 304768, Note_on_c, 0, 60, 79
1, 304782, Note_off_c, 0, 72, 53
1, 304787, Control_c, 0, 64, 103
1, 304795, Note_off_c, 0, 58, 58
1, 304798, Note_on_c, 0, 70, 65
1, 304802, Control_c, 0, 64, 82
1, 304816, Control_c, 0, 64, 67
1, 304831, Control_c, 0, 64, 64
1, 304846, Control_c, 0, 64, 67
1, 304861, Control_c, 0, 64, 75
1, 304876, Control_c, 0, 64, 83
1, 304890, Control_c, 0, 64, 89
1, 304905, Control_c, 0, 64, 93
1, 304920, Control_c, 0, 64, 98
1, 304935, Control_c, 0, 64, 102
1, 304950, Note_on_c, 0, 69, 71
1, 304950, Control_c, 0, 64, 109
1, 304958, Note_off_c, 0, 70, 55
1, 304964, Control_c, 0, 64, 117
1, 304979, Control_c, 0, 64, 127
1, 304995, Note_off_c, 0, 69, 57
1, 305068, Note_off_c, 0, 60, 40
1, 305116, Note_on_c, 0, 62, 73
1, 305128, Control_c, 0, 64, 116
1, 305142, Note_on_c, 0, 70, 73
1, 305143, Control_c, 0, 64, 87
1, 305158, Control_c, 0, 64, 72
1, 305173, Control_c, 0, 64, 67
1, 305175, Note_on_c, 0, 67, 18
1, 305181, Note_on_c, 0, 65, 32
1, 305187, Control_c, 0, 64, 71
1, 305202, Control_c, 0, 64, 83
1, 305217, Control_c, 0, 64, 100
1, 305232, Control_c, 0, 64, 127
1, 305237, Note_on_c, 0, 63, 78
1, 305240, Note_off_c, 0, 62, 59
1, 305294, Note_on_c, 0, 77, 73
1, 305317, Note_off_c, 0, 63, 60
1, 305331, Note_on_c, 0, 62, 77
1, 305474, Note_on_c, 0, 60, 86
1, 305484, Note_off_c, 0, 62, 58
1, 305492, Note_off_c, 0, 70, 60
1, 305521, Control_c, 0, 64, 93
1, 305524, Note_on_c, 0, 75, 58
1, 305533, Note_off_c, 0, 65, 41
1, 305536, Control_c, 0, 64, 66
1, 305551, Control_c, 0, 64, 0
1, 305560, Note_off_c, 0, 67, 41
1, 305595, Control_c, 0, 64, 61
1, 305610, Control_c, 0, 64, 74
1, 305625, Control_c, 0, 64, 88
1, 305639, Control_c, 0, 64, 110
1, 305654, Control_c, 0, 64, 127
1, 305666, Note_on_c, 0, 69, 60
1, 305675, Note_off_c, 0, 77, 36
1, 305801, Note_off_c, 0, 69, 58
1, 305804, Control_c, 0, 64, 97
1, 305813, Note_on_c, 0, 62, 84
1, 305818, Control_c, 0, 64, 79
1, 305833, Control_c, 0, 64, 75
1, 305835, Note_off_c, 0, 60, 61
1, 305848, Control_c, 0, 64, 83
1, 305851, Note_on_c, 0, 65, 65
1, 305862, Control_c, 0, 64, 119
1, 305865, Note_off_c, 0, 62, 60
1, 305877, Control_c, 0, 64, 127
1, 305934, Note_off_c, 0, 65, 59
1, 305971, Note_on_c, 0, 70, 63
1, 305983, Note_off_c, 0, 75, 60
1, 306010, Note_off_c, 0, 70, 56
1, 306025, Control_c, 0, 64, 119
1, 306037, Note_on_c, 0, 48, 67
1, 306040, Control_c, 0, 64, 84
1, 306055, Control_c, 0, 64, 64
1, 306062, Note_on_c, 0, 54, 54
1, 306070, Control_c, 0, 64, 60
1, 306084, Control_c, 0, 64, 68
1, 306096, Note_off_c, 0, 48, 64
1, 306097, Note_on_c, 0, 58, 75
1, 306099, Control_c, 0, 64, 83
1, 306114, Control_c, 0, 64, 105
1, 306129, Note_off_c, 0, 54, 61
1, 306129, Control_c, 0, 64, 127
1, 306150, Note_off_c, 0, 58, 63
1, 306196, Note_on_c, 0, 63, 87
1, 306222, Note_on_c, 0, 82, 70
1, 306391, Note_off_c, 0, 82, 54
1, 306402, Note_on_c, 0, 75, 60
1, 306543, Note_off_c, 0, 75, 59
1, 306566, Note_on_c, 0, 65, 83
1, 306594, Note_on_c, 0, 69, 63
1, 306596, Note_off_c, 0, 63, 59
1, 306612, Control_c, 0, 64, 90
1, 306627, Control_c, 0, 64, 68
1, 306641, Control_c, 0, 64, 54
1, 306656, Control_c, 0, 64, 60
1, 306671, Control_c, 0, 64, 69
1, 306685, Control_c, 0, 64, 81
1, 306700, Control_c, 0, 64, 95
1, 306715, Control_c, 0, 64, 114
1, 306730, Control_c, 0, 64, 127
1, 306761, Note_off_c, 0, 69, 54
1, 306785, Note_on_c, 0, 72, 52
1, 306971, Note_off_c, 0, 65, 60
1, 306977, Note_on_c, 0, 66, 74
1, 306997, Control_c, 0, 64, 98
1, 307014, Note_off_c, 0, 72, 56
1, 307018, Control_c, 0, 64, 76
1, 307033, Control_c, 0, 64, 55
1, 307044, Note_on_c, 0, 70, 37
1, 307048, Control_c, 0, 64, 0
1, 307078, Control_c, 0, 64, 63
1, 307090, Note_off_c, 0, 66, 62
1, 307092, Control_c, 0, 64, 73
1, 307107, Control_c, 0, 64, 87
1, 307122, Control_c, 0, 64, 99
1, 307137, Control_c, 0, 64, 104
1, 307152, Control_c, 0, 64, 106
1, 307167, Control_c, 0, 64, 107
1, 307181, Control_c, 0, 64, 110
1, 307196, Control_c, 0, 64, 119
1, 307211, Control_c, 0, 64, 127
1, 307259, Note_on_c, 0, 75, 39
1, 307268, Note_off_c, 0, 70, 54
1, 307289, Note_off_c, 0, 75, 54
1, 307552, Note_on_c, 0, 41, 39
1, 307595, Note_on_c, 0, 67, 62
1, 307627, Control_c, 0, 64, 114
1, 307641, Control_c, 0, 64, 90
1, 307656, Control_c, 0, 64, 73
1, 307660, Note_on_c, 0, 63, 13
1, 307671, Control_c, 0, 64, 0
1, 307730, Control_c, 0, 64, 51
1, 307745, Control_c, 0, 64, 67
1, 307768, Control_c, 0, 64, 77
1, 307783, Control_c, 0, 64, 86
1, 307795, Note_off_c, 0, 41, 55
1, 307797, Control_c, 0, 64, 93
1, 307812, Control_c, 0, 64, 96
1, 307827, Control_c, 0, 64, 100
1, 307841, Control_c, 0, 64, 104
1, 307856, Control_c, 0, 64, 109
1, 307871, Control_c, 0, 64, 116
1, 307886, Control_c, 0, 64, 127
1, 307944, Note_on_c, 0, 60, 34
1, 308031, Note_off_c, 0, 63, 34
1, 308037, Note_off_c, 0, 60, 46
1, 308253, Note_on_c, 0, 77, 71
1, 308278, Note_off_c, 0, 67, 50
1, 308293, Note_on_c, 0, 69, 51
1, 308566, Poly_aftertouch_c, 0, 60, 127
1, 308693, Poly_aftertouch_c, 0, 60, 0
1, 308695, Control_c, 0, 64, 94
1, 308696, Note_on_c, 0, 75, 69
1, 308710, Control_c, 0, 64, 80
1, 308725, Control_c, 0, 64, 72
1, 308737, Note_off_c, 0, 77, 61
1, 308739, Control_c, 0, 64, 75
1, 308754, Control_c, 0, 64, 82
1, 308756, Note_on_c, 0, 65, 31
1, 308769, Control_c, 0, 64, 92
1, 308774, Note_off_c, 0, 75, 60
1, 308784, Control_c, 0, 64, 100
1, 308798, Control_c, 0, 64, 106
1, 308813, Control_c, 0, 64, 115
1, 308828, Control_c, 0, 64, 127
1, 308851, Note_off_c, 0, 69, 35
1, 308910, Note_off_c, 0, 65, 50
1, 308911, Note_on_c, 0, 57, 32
1, 308949, Note_off_c, 0, 57, 51
1, 309088, Note_on_c, 0, 56, 51
1, 309140, Note_on_c, 0, 74, 72
1, 309140, Control_c, 0, 64, 104
1, 309155, Control_c, 0, 64, 82
1, 309170, Control_c, 0, 64, 67
1, 309185, Control_c, 0, 64, 63
1, 309199, Control_c, 0, 64, 66
1, 309203, Note_on_c, 0, 65, 7
1, 309214, Control_c, 0, 64, 75
1, 309229, Control_c, 0, 64, 84
1, 309244, Control_c, 0, 64, 94
1, 309259, Control_c, 0, 64, 101
1, 309281, Control_c, 0, 64, 107
1, 309295, Control_c, 0, 64, 116
1, 309304, Note_on_c, 0, 46, 51
1, 309310, Control_c, 0, 64, 127
1, 309311, Note_off_c, 0, 56, 30
1, 309313, Note_off_c, 0, 74, 55
1, 309339, Note_off_c, 0, 65, 51
1, 309343, Note_off_c, 0, 46, 54
1, 309350, Note_on_c, 0, 62, 12
1, 309397, Note_off_c, 0, 62, 41
1, 309450, Note_on_c, 0, 58, 45
1, 309480, Note_off_c, 0, 58, 57
1, 309502, Note_on_c, 0, 60, 50
1, 309527, Note_on_c, 0, 82, 72
1, 309566, Note_off_c, 0, 60, 48
1, 309570, Note_on_c, 0, 58, 51
1, 309621, Note_off_c, 0, 82, 58
1, 309691, Note_on_c, 0, 70, 52
1, 309691, Note_off_c, 0, 58, 52
1, 309708, Note_on_c, 0, 56, 59
1, 309727, Note_off_c, 0, 70, 55
1, 309793, Note_off_c, 0, 56, 62
1, 309849, Note_on_c, 0, 55, 64
1, 309852, Note_on_c, 0, 75, 73
1, 309889, Control_c, 0, 64, 103
1, 309897, Note_on_c, 0, 70, 41
1, 309903, Control_c, 0, 64, 82
1, 309918, Control_c, 0, 64, 68
1, 309933, Control_c, 0, 64, 65
1, 309948, Control_c, 0, 64, 70
1, 309963, Control_c, 0, 64, 79
1, 309965, Note_off_c, 0, 75, 57
1, 309978, Control_c, 0, 64, 90
1, 309992, Control_c, 0, 64, 101
1, 310012, Note_on_c, 0, 46, 50
1, 310015, Control_c, 0, 64, 107
1, 310028, Note_on_c, 0, 63, 54
1, 310030, Control_c, 0, 64, 112
1, 310044, Control_c, 0, 64, 117
1, 310059, Control_c, 0, 64, 127
1, 310064, Note_off_c, 0, 63, 63
1, 310195, Note_on_c, 0, 72, 79
1, 310198, Note_on_c, 0, 54, 59
1, 310207, Control_c, 0, 64, 113
1, 310219, Note_off_c, 0, 70, 62
1, 310222, Control_c, 0, 64, 87
1, 310234, Note_off_c, 0, 55, 36
1, 310236, Control_c, 0, 64, 68
1, 310251, Control_c, 0, 64, 53
1, 310266, Control_c, 0, 64, 56
1, 310281, Control_c, 0, 64, 66
1, 310296, Control_c, 0, 64, 75
1, 310310, Control_c, 0, 64, 84
1, 310325, Control_c, 0, 64, 91
1, 310329, Note_off_c, 0, 46, 46
1, 310340, Control_c, 0, 64, 94
1, 310354, Note_on_c, 0, 63, 54
1, 310354, Control_c, 0, 64, 97
1, 310369, Control_c, 0, 64, 100
1, 310384, Control_c, 0, 64, 103
1, 310399, Control_c, 0, 64, 107
1, 310414, Control_c, 0, 64, 111
1, 310428, Control_c, 0, 64, 119
1, 310443, Control_c, 0, 64, 127
1, 310488, Note_on_c, 0, 46, 49
1, 310522, Note_off_c, 0, 72, 62
1, 310532, Note_on_c, 0, 69, 76
1, 310536, Note_off_c, 0, 63, 56
1, 310667, Note_off_c, 0, 54, 19
1, 310707, Note_on_c, 0, 60, 30
1, 310764, Note_off_c, 0, 60, 50
1, 310830, Note_on_c, 0, 53, 55
1, 310866, Control_c, 0, 64, 118
1, 310867, Note_off_c, 0, 69, 65
1, 310872, Note_on_c, 0, 70, 81
1, 310881, Control_c, 0, 64, 87
1, 310896, Control_c, 0, 64, 71
1, 310911, Control_c, 0, 64, 65
1, 310925, Control_c, 0, 64, 68
1, 310940, Control_c, 0, 64, 76
1, 310955, Control_c, 0, 64, 87
1, 310970, Control_c, 0, 64, 102
1, 310976, Note_off_c, 0, 46, 39
1, 310984, Control_c, 0, 64, 127
1, 311013, Note_on_c, 0, 62, 59
1, 311042, Note_off_c, 0, 62, 64
1, 311048, Note_off_c, 0, 70, 57
1, 311172, Note_on_c, 0, 56, 58
1, 311218, Note_on_c, 0, 72, 75
1, 311236, Control_c, 0, 64, 104
1, 311250, Control_c, 0, 64, 80
1, 311265, Control_c, 0, 64, 66
1, 311279, Note_off_c, 0, 56, 55
1, 311280, Control_c, 0, 64, 65
1, 311294, Note_on_c, 0, 46, 50
1, 311295, Control_c, 0, 64, 72
1, 311300, Note_off_c, 0, 53, 53
1, 311310, Control_c, 0, 64, 87
1, 311325, Control_c, 0, 64, 114
1, 311340, Control_c, 0, 64, 127
1, 311341, Note_off_c, 0, 46, 62
1, 311373, Note_on_c, 0, 63, 55
1, 311405, Note_on_c, 0, 58, 60
1, 311439, Note_off_c, 0, 58, 61
1, 311452, Note_off_c, 0, 63, 58
1, 311516, Note_on_c, 0, 60, 25
1, 311539, Note_on_c, 0, 62, 10
1, 311544, Note_on_c, 0, 74, 85
1, 311559, Note_off_c, 0, 72, 39
1, 311589, Note_off_c, 0, 62, 51
1, 311617, Poly_aftertouch_c, 0, 58, 127
1, 311647, Note_off_c, 0, 60, 36
1, 311653, Note_off_c, 0, 74, 57
1, 311712, Note_on_c, 0, 65, 60
1, 311739, Note_on_c, 0, 56, 60
1, 311760, Poly_aftertouch_c, 0, 58, 0
1, 311775, Note_off_c, 0, 65, 57
1, 311812, Note_off_c, 0, 56, 62
1, 311850, Note_on_c, 0, 75, 87
1, 311862, Note_on_c, 0, 55, 69
1, 311867, Control_c, 0, 64, 106
1, 311881, Control_c, 0, 64, 80
1, 311896, Control_c, 0, 64, 67
1, 311911, Control_c, 0, 64, 67
1, 311926, Control_c, 0, 64, 74
1, 311941, Control_c, 0, 64, 87
1, 311955, Control_c, 0, 64, 108
1, 311970, Control_c, 0, 64, 127
1, 312012, Note_on_c, 0, 46, 65
1, 312027, Note_on_c, 0, 63, 53
1, 312105, Note_off_c, 0, 75, 51
1, 312157, Note_off_c, 0, 55, 60
1, 312177, Note_on_c, 0, 54, 82
1, 312178, Control_c, 0, 64, 117
1, 312188, Note_on_c, 0, 72, 83
1, 312193, Control_c, 0, 64, 76
1, 312195, Note_off_c, 0, 63, 58
1, 312208, Control_c, 0, 64, 0
1, 312260, Control_c, 0, 64, 68
1, 312275, Control_c, 0, 64, 79
1, 312290, Control_c, 0, 64, 90
1, 312294, Note_off_c, 0, 72, 57
1, 312304, Control_c, 0, 64, 101
1, 312319, Control_c, 0, 64, 112
1, 312334, Control_c, 0, 64, 127
1, 312335, Note_on_c, 0, 63, 66
1, 312406, Note_off_c, 0, 63, 56
1, 312423, Note_off_c, 0, 54, 60
1, 312478, Note_on_c, 0, 53, 82
1, 312494, Note_on_c, 0, 77, 87
1, 312535, Note_off_c, 0, 77, 66
1, 312651, Note_on_c, 0, 62, 61
1, 312685, Note_off_c, 0, 62, 61
1, 312782, Note_on_c, 0, 75, 92
1, 312786, Note_on_c, 0, 55, 79
1, 312800, Note_off_c, 0, 53, 57
1, 312822, Control_c, 0, 64, 95
1, 312837, Control_c, 0, 64, 69
1, 312852, Control_c, 0, 64, 27
1, 312867, Control_c, 0, 64, 56
1, 312882, Control_c, 0, 64, 71
1, 312896, Control_c, 0, 64, 96
1, 312911, Control_c, 0, 64, 127
1, 312935, Note_on_c, 0, 63, 60
1, 312972, Note_off_c, 0, 63, 63
1, 313006, Note_off_c, 0, 75, 58
1, 313077, Note_on_c, 0, 57, 67
1, 313124, Note_off_c, 0, 46, 44
1, 313127, Note_off_c, 0, 55, 48
1, 313155, Note_on_c, 0, 74, 92
1, 313177, Note_on_c, 0, 65, 64
1, 313201, Control_c, 0, 64, 98
1, 313216, Control_c, 0, 64, 72
1, 313231, Control_c, 0, 64, 0
1, 313260, Control_c, 0, 64, 65
1, 313275, Control_c, 0, 64, 85
1, 313290, Control_c, 0, 64, 127
1, 313314, Note_off_c, 0, 65, 58
1, 313331, Note_on_c, 0, 46, 67
1, 313340, Note_off_c, 0, 57, 34
1, 313367, Note_off_c, 0, 74, 60
1, 313463, Note_on_c, 0, 53, 65
1, 313564, Note_on_c, 0, 72, 72
1, 313570, Note_on_c, 0, 63, 60
1, 313605, Note_off_c, 0, 63, 62
1, 313640, Note_off_c, 0, 72, 62
1, 313647, Note_on_c, 0, 74, 78
1, 313650, Note_on_c, 0, 57, 68
1, 313727, Note_on_c, 0, 72, 74
1, 313757, Note_off_c, 0, 74, 61
1, 313763, Note_off_c, 0, 46, 48
1, 313792, Note_off_c, 0, 57, 54
1, 313808, Note_on_c, 0, 56, 70
1, 313825, Note_on_c, 0, 70, 85
1, 313840, Note_on_c, 0, 62, 71
1, 313850, Note_off_c, 0, 72, 62
1, 313891, Control_c, 0, 64, 84
1, 313906, Control_c, 0, 64, 58
1, 313921, Control_c, 0, 64, 0
1, 313950, Control_c, 0, 64, 63
1, 313965, Control_c, 0, 64, 76
1, 313972, Note_on_c, 0, 46, 73
1, 313980, Control_c, 0, 64, 91
1, 313981, Note_off_c, 0, 56, 39
1, 313995, Control_c, 0, 64, 110
1, 314007, Note_off_c, 0, 53, 45
1, 314009, Control_c, 0, 64, 127
1, 314142, Note_on_c, 0, 55, 77
1, 314168, Note_on_c, 0, 63, 91
1, 314187, Control_c, 0, 64, 100
1, 314195, Note_off_c, 0, 62, 59
1, 314201, Control_c, 0, 64, 77
1, 314216, Control_c, 0, 64, 60
1, 314231, Control_c, 0, 64, 50
1, 314246, Control_c, 0, 64, 65
1, 314261, Control_c, 0, 64, 77
1, 314276, Control_c, 0, 64, 90
1, 314291, Control_c, 0, 64, 103
1, 314306, Control_c, 0, 64, 109
1, 314312, Note_on_c, 0, 54, 74
1, 314320, Control_c, 0, 64, 115
1, 314322, Note_off_c, 0, 55, 57
1, 314335, Control_c, 0, 64, 127
1, 314350, Note_off_c, 0, 46, 58
1, 314376, Note_off_c, 0, 54, 64
1, 314464, Note_on_c, 0, 53, 62
1, 314474, Note_on_c, 0, 62, 88
1, 314505, Control_c, 0, 64, 89
1, 314516, Note_off_c, 0, 63, 60
1, 314520, Control_c, 0, 64, 67
1, 314535, Control_c, 0, 64, 45
1, 314550, Control_c, 0, 64, 57
1, 314565, Control_c, 0, 64, 69
1, 314580, Control_c, 0, 64, 83
1, 314595, Control_c, 0, 64, 101
1, 314610, Control_c, 0, 64, 127
1, 314619, Note_off_c, 0, 53, 64
1, 314631, Note_on_c, 0, 46, 71
1, 314663, Note_off_c, 0, 46, 65
1, 314730, Note_on_c, 0, 43, 83
1, 314770, Note_on_c, 0, 45, 79
1, 314803, Control_c, 0, 64, 105
1, 314818, Control_c, 0, 64, 83
1, 314819, Note_off_c, 0, 45, 65
1, 314832, Control_c, 0, 64, 72
1, 314847, Control_c, 0, 64, 74
1, 314862, Control_c, 0, 64, 86
1, 314866, Note_off_c, 0, 62, 62
1, 314877, Control_c, 0, 64, 110
1, 314892, Control_c, 0, 64, 127
1, 314898, Note_off_c, 0, 70, 61
1, 315049, Note_on_c, 0, 41, 89
1, 315065, Note_off_c, 0, 43, 64
1, 315407, Note_off_c, 0, 41, 58
1, 315415, Note_on_c, 0, 34, 90
1, 315454, Note_on_c, 0, 77, 93
1, 315463, Control_c, 0, 64, 91
1, 315472, Note_on_c, 0, 65, 75
1, 315478, Control_c, 0, 64, 62
1, 315493, Control_c, 0, 64, 0
1, 315552, Control_c, 0, 64, 62
1, 315567, Control_c, 0, 64, 76
1, 315582, Control_c, 0, 64, 93
1, 315597, Control_c, 0, 64, 127
1, 315722, Note_off_c, 0, 65, 53
1, 315736, Note_on_c, 0, 41, 74
1, 315740, Note_off_c, 0, 34, 57
1, 315751, Note_off_c, 0, 77, 57
1, 315760, Note_off_c, 0, 41, 65
1, 315937, Note_on_c, 0, 79, 89
1, 315945, Note_on_c, 0, 67, 83
1, 315953, Note_on_c, 0, 63, 59
1, 315954, Note_on_c, 0, 60, 61
1, 315956, Note_on_c, 0, 58, 59
1, 316036, Note_off_c, 0, 63, 60
1, 316047, Note_off_c, 0, 60, 59
1, 316105, Note_on_c, 0, 53, 68
1, 316116, Note_off_c, 0, 58, 36
1, 316173, Note_off_c, 0, 67, 57
1, 316187, Note_off_c, 0, 79, 59
1, 316187, Note_off_c, 0, 53, 60
1, 316273, Note_on_c, 0, 81, 91
1, 316275, Note_on_c, 0, 63, 60
1, 316291, Note_on_c, 0, 60, 43
1, 316293, Note_on_c, 0, 69, 69
1, 316294, Note_on_c, 0, 65, 55
1, 316328, Note_off_c, 0, 65, 65
1, 316410, Note_off_c, 0, 60, 27
1, 316426, Note_off_c, 0, 63, 59
1, 316436, Note_on_c, 0, 53, 59
1, 316465, Note_off_c, 0, 53, 66
1, 316637, Note_on_c, 0, 46, 72
1, 316641, Control_c, 0, 64, 88
1, 316656, Control_c, 0, 64, 64
1, 316670, Control_c, 0, 64, 0
1, 316696, Note_off_c, 0, 69, 58
1, 316700, Control_c, 0, 64, 24
1, 316714, Note_off_c, 0, 81, 61
1, 316714, Control_c, 0, 64, 67
1, 316729, Control_c, 0, 64, 82
1, 316752, Control_c, 0, 64, 96
1, 316767, Control_c, 0, 64, 109
1, 316782, Control_c, 0, 64, 117
1, 316796, Control_c, 0, 64, 127
1, 316818, Note_off_c, 0, 46, 55
1, 316834, Note_on_c, 0, 53, 66
1, 316862, Note_off_c, 0, 53, 67
1, 316991, Note_on_c, 0, 82, 82
1, 316998, Note_on_c, 0, 70, 72
1, 317015, Note_on_c, 0, 63, 53
1, 317018, Note_on_c, 0, 55, 45
1, 317041, Note_off_c, 0, 63, 61
1, 317057, Note_off_c, 0, 55, 54
1, 317069, Note_off_c, 0, 70, 61
1, 317081, Note_off_c, 0, 82, 61
1, 317137, Note_on_c, 0, 53, 62
1, 317228, Note_off_c, 0, 53, 53
1, 317288, Note_on_c, 0, 84, 87
1, 317298, Note_on_c, 0, 72, 74
1, 317301, Note_on_c, 0, 65, 62
1, 317302, Note_on_c, 0, 57, 51
1, 317306, Note_on_c, 0, 63, 52
1, 317403, Note_off_c, 0, 65, 58
1, 317415, Note_off_c, 0, 63, 37
1, 317424, Note_off_c, 0, 57, 34
1, 317438, Note_on_c, 0, 53, 72
1, 317466, Note_off_c, 0, 72, 59
1, 317499, Note_off_c, 0, 84, 56
1, 317564, Note_off_c, 0, 53, 62
1, 317590, Control_c, 0, 64, 109
1, 317592, Note_on_c, 0, 86, 96
1, 317594, Note_on_c, 0, 65, 65
1, 317594, Note_on_c, 0, 58, 61
1, 317594, Note_on_c, 0, 63, 65
1, 317605, Control_c, 0, 64, 80
1, 317606, Note_on_c, 0, 74, 83
1, 317619, Control_c, 0, 64, 61
1, 317634, Control_c, 0, 64, 42
1, 317649, Control_c, 0, 64, 61
1, 317662, Note_off_c, 0, 65, 58
1, 317664, Control_c, 0, 64, 71
1, 317679, Control_c, 0, 64, 82
1, 317684, Note_off_c, 0, 58, 58
1, 317693, Control_c, 0, 64, 96
1, 317701, Note_off_c, 0, 63, 48
1, 317708, Control_c, 0, 64, 116
1, 317722, Note_off_c, 0, 74, 64
1, 317723, Control_c, 0, 64, 127
1, 317735, Note_off_c, 0, 86, 65
1, 317746, Note_on_c, 0, 53, 69
1, 317772, Note_off_c, 0, 53, 66
1, 317895, Note_on_c, 0, 87, 94
1, 317896, Note_on_c, 0, 60, 73
1, 317896, Note_on_c, 0, 70, 74
1, 317901, Note_on_c, 0, 75, 91
1, 317913, Note_on_c, 0, 63, 64
1, 317927, Note_off_c, 0, 70, 64
1, 317980, Note_off_c, 0, 87, 66
1, 317982, Note_off_c, 0, 75, 60
1, 317985, Note_off_c, 0, 63, 54
1, 318005, Note_off_c, 0, 60, 50
1, 318038, Note_on_c, 0, 53, 79
1, 318076, Note_off_c, 0, 53, 62
1, 318179, Note_on_c, 0, 84, 98
1, 318180, Note_on_c, 0, 72, 98
1, 318181, Note_on_c, 0, 60, 61
1, 318183, Note_on_c, 0, 63, 72
1, 318185, Note_on_c, 0, 69, 73
1, 318213, Note_off_c, 0, 69, 68
1, 318218, Note_off_c, 0, 72, 67
1, 318263, Note_off_c, 0, 84, 66
1, 318336, Note_off_c, 0, 60, 39
1, 318339, Note_on_c, 0, 53, 70
1, 318394, Note_off_c, 0, 63, 35
1, 318400, Note_off_c, 0, 53, 64
1, 318495, Note_on_c, 0, 55, 75
1, 318504, Note_on_c, 0, 63, 67
1, 318504, Note_on_c, 0, 89, 104
1, 318505, Note_on_c, 0, 77, 97
1, 318506, Note_on_c, 0, 65, 75
1, 318517, Control_c, 0, 64, 84
1, 318532, Control_c, 0, 64, 33
1, 318547, Control_c, 0, 64, 0
1, 318571, Note_off_c, 0, 55, 58
1, 318577, Control_c, 0, 64, 30
1, 318592, Control_c, 0, 64, 69
1, 318607, Control_c, 0, 64, 88
1, 318622, Control_c, 0, 64, 127
1, 318635, Note_off_c, 0, 65, 55
1, 318682, Note_on_c, 0, 53, 69
1, 318690, Note_off_c, 0, 63, 37
1, 318777, Note_off_c, 0, 53, 63
1, 318812, Note_on_c, 0, 57, 90
1, 318814, Note_on_c, 0, 63, 86
1, 318814, Note_on_c, 0, 65, 86
1, 318826, Note_off_c, 0, 89, 63
1, 318837, Note_off_c, 0, 77, 62
1, 318935, Note_off_c, 0, 65, 49
1, 318993, Note_on_c, 0, 53, 79
1, 318997, Note_off_c, 0, 63, 56
1, 319009, Note_off_c, 0, 57, 56
1, 319043, Note_off_c, 0, 53, 64
1, 319169, Note_on_c, 0, 53, 75
1, 319180, Note_on_c, 0, 75, 102
1, 319181, Note_on_c, 0, 87, 97
1, 319267, Note_off_c, 0, 53, 58
1, 319361, Note_on_c, 0, 41, 57
1, 319397, Note_off_c, 0, 41, 61
1, 319425, Note_off_c, 0, 87, 57
1, 319427, Note_off_c, 0, 75, 57
1, 319676, Note_on_c, 0, 34, 92
1, 319682, Control_c, 0, 64, 89
1, 319692, Note_on_c, 0, 86, 96
1, 319693, Note_on_c, 0, 74, 94
1, 319696, Control_c, 0, 64, 54
1, 319711, Control_c, 0, 64, 0
1, 319763, Control_c, 0, 64, 58
1, 319778, Control_c, 0, 64, 75
1, 319793, Control_c, 0, 64, 102
1, 319808, Control_c, 0, 64, 127
1, 319813, Note_off_c, 0, 34, 60
1, 320087, Note_on_c, 0, 53, 88
1, 320089, Note_off_c, 0, 86, 62
1, 320163, Note_off_c, 0, 53, 61
1, 320255, Note_off_c, 0, 74, 53
1, 320326, Note_on_c, 0, 62, 60
1, 320329, Note_on_c, 0, 68, 61
1, 320372, Note_off_c, 0, 68, 53
1, 320442, Note_off_c, 0, 62, 48
1, 320521, Note_on_c, 0, 55, 77
1, 320557, Note_on_c, 0, 72, 59
1, 320585, Note_off_c, 0, 72, 65
1, 320599, Note_on_c, 0, 74, 74
1, 320621, Note_off_c, 0, 74, 70
1, 320642, Note_on_c, 0, 72, 52
1, 320664, Note_off_c, 0, 72, 61
1, 320725, Note_on_c, 0, 62, 65
1, 320725, Note_on_c, 0, 82, 85
1, 320733, Control_c, 0, 64, 87
1, 320748, Control_c, 0, 64, 55
1, 320749, Note_on_c, 0, 70, 64
1, 320756, Note_on_c, 0, 68, 43
1, 320762, Control_c, 0, 64, 0
1, 320794, Note_off_c, 0, 68, 50
1, 320804, Poly_aftertouch_c, 0, 66, 0
1, 320807, Control_c, 0, 64, 65
1, 320822, Control_c, 0, 64, 76
1, 320827, Note_off_c, 0, 55, 61
1, 320837, Control_c, 0, 64, 90
1, 320852, Control_c, 0, 64, 110
1, 320862, Note_off_c, 0, 62, 51
1, 320867, Control_c, 0, 64, 127
1, 320921, Note_on_c, 0, 56, 59
1, 321016, Control_c, 0, 64, 91
1, 321031, Control_c, 0, 64, 71
1, 321046, Control_c, 0, 64, 59
1, 321060, Control_c, 0, 64, 63
1, 321066, Note_off_c, 0, 56, 49
1, 321075, Control_c, 0, 64, 73
1, 321081, Note_on_c, 0, 65, 56
1, 321090, Control_c, 0, 64, 86
1, 321102, Note_on_c, 0, 58, 38
1, 321105, Control_c, 0, 64, 103
1, 321107, Note_on_c, 0, 62, 35
1, 321120, Control_c, 0, 64, 126
1, 321126, Note_off_c, 0, 70, 62
1, 321134, Control_c, 0, 64, 127
1, 321146, Note_off_c, 0, 82, 57
1, 321158, Note_off_c, 0, 65, 39
1, 321171, Note_off_c, 0, 62, 39
1, 321175, Note_off_c, 0, 58, 40
1, 321254, Note_on_c, 0, 53, 64
1, 321296, Note_off_c, 0, 53, 63
1, 321409, Note_on_c, 0, 84, 73
1, 321418, Note_on_c, 0, 72, 67
1, 321425, Note_on_c, 0, 62, 57
1, 321433, Note_on_c, 0, 68, 56
1, 321462, Note_off_c, 0, 62, 60
1, 321523, Note_off_c, 0, 68, 51
1, 321549, Note_off_c, 0, 72, 53
1, 321572, Note_on_c, 0, 58, 79
1, 321583, Note_off_c, 0, 84, 57
1, 321726, Note_on_c, 0, 86, 88
1, 321730, Note_on_c, 0, 74, 82
1, 321734, Note_on_c, 0, 70, 73
1, 321749, Note_off_c, 0, 58, 57
1, 321787, Note_off_c, 0, 70, 61
1, 321792, Note_off_c, 0, 74, 60
1, 321818, Note_off_c, 0, 86, 63
1, 321874, Note_on_c, 0, 56, 82
1, 321898, Control_c, 0, 64, 97
1, 321913, Control_c, 0, 64, 76
1, 321928, Control_c, 0, 64, 64
1, 321943, Control_c, 0, 64, 64
1, 321958, Control_c, 0, 64, 70
1, 321973, Control_c, 0, 64, 79
1, 321995, Control_c, 0, 64, 87
1, 322006, Note_off_c, 0, 56, 53
1, 322010, Control_c, 0, 64, 92
1, 322024, Control_c, 0, 64, 94
1, 322038, Note_on_c, 0, 70, 73
1, 322039, Control_c, 0, 64, 100
1, 322044, Note_on_c, 0, 87, 92
1, 322050, Note_on_c, 0, 75, 83
1, 322054, Control_c, 0, 64, 114
1, 322069, Control_c, 0, 64, 127
1, 322071, Note_off_c, 0, 70, 63
1, 322131, Note_off_c, 0, 87, 65
1, 322134, Note_off_c, 0, 75, 60
1, 322203, Note_on_c, 0, 53, 68
1, 322203, Note_on_c, 0, 55, 67
1, 322252, Note_off_c, 0, 53, 53
1, 322289, Note_off_c, 0, 55, 55
1, 322337, Note_on_c, 0, 84, 90
1, 322338, Note_on_c, 0, 72, 91
1, 322346, Note_on_c, 0, 63, 72
1, 322354, Note_on_c, 0, 56, 68
1, 322376, Note_off_c, 0, 72, 65
1, 322396, Note_off_c, 0, 84, 63
1, 322430, Note_off_c, 0, 63, 57
1, 322446, Note_off_c, 0, 56, 52
1, 322485, Note_on_c, 0, 53, 82
1, 322565, Note_off_c, 0, 53, 64
1, 322628, Note_on_c, 0, 57, 78
1, 322628, Note_on_c, 0, 77, 93
1, 322628, Note_on_c, 0, 89, 101
1, 322675, Note_off_c, 0, 77, 64
1, 322706, Note_off_c, 0, 89, 59
1, 322762, Note_off_c, 0, 57, 50
1, 322802, Note_on_c, 0, 51, 79
1, 322894, Note_off_c, 0, 51, 57
1, 322951, Control_c, 0, 64, 109
1, 322959, Note_on_c, 0, 50, 82
1, 322964, Note_on_c, 0, 90, 98
1, 322965, Control_c, 0, 64, 73
1, 322967, Note_on_c, 0, 78, 92
1, 322971, Note_on_c, 0, 84, 82
1, 322980, Control_c, 0, 64, 0
1, 323025, Control_c, 0, 64, 67
1, 323040, Control_c, 0, 64, 85
1, 323055, Control_c, 0, 64, 127
1, 323077, Note_off_c, 0, 78, 57
1, 323091, Note_off_c, 0, 84, 58
1, 323111, Note_off_c, 0, 90, 58
1, 323133, Note_on_c, 0, 57, 76
1, 323137, Note_off_c, 0, 50, 63
1, 323171, Note_off_c, 0, 57, 62
1, 323284, Note_on_c, 0, 64, 75
1, 323290, Note_on_c, 0, 91, 97
1, 323294, Note_on_c, 0, 79, 96
1, 323296, Note_on_c, 0, 84, 85
1, 323344, Note_off_c, 0, 64, 64
1, 323357, Note_on_c, 0, 66, 78
1, 323382, Note_off_c, 0, 79, 56
1, 323418, Note_off_c, 0, 66, 60
1, 323418, Note_off_c, 0, 84, 59
1, 323430, Note_on_c, 0, 64, 69
1, 323435, Note_off_c, 0, 91, 62
1, 323492, Note_on_c, 0, 62, 79
1, 323495, Note_off_c, 0, 64, 62
1, 323561, Note_off_c, 0, 62, 60
1, 323565, Note_on_c, 0, 64, 64
1, 323630, Note_on_c, 0, 81, 98
1, 323631, Note_on_c, 0, 93, 103
1, 323633, Note_on_c, 0, 66, 91
1, 323634, Note_on_c, 0, 90, 97
1, 323635, Note_on_c, 0, 84, 90
1, 323636, Note_on_c, 0, 62, 77
1, 323639, Control_c, 0, 64, 113
1, 323641, Note_off_c, 0, 64, 56
1, 323645, Note_on_c, 0, 60, 73
1, 323654, Control_c, 0, 64, 114
1, 323669, Control_c, 0, 64, 127
1, 323678, Note_off_c, 0, 66, 62
1, 323681, Note_off_c, 0, 81, 60
1, 323684, Note_off_c, 0, 84, 65
1, 323687, Note_off_c, 0, 62, 61
1, 323699, Note_off_c, 0, 60, 63
1, 323716, Note_off_c, 0, 93, 62
1, 323738, Note_off_c, 0, 90, 65
1, 323994, Control_c, 0, 64, 87
1, 323997, Note_on_c, 0, 31, 96
1, 324009, Control_c, 0, 64, 49
1, 324010, Note_on_c, 0, 82, 101
1, 324012, Note_on_c, 0, 94, 99
1, 324013, Note_on_c, 0, 91, 87
1, 324016, Note_on_c, 0, 86, 89
1, 324024, Control_c, 0, 64, 0
1, 324053, Control_c, 0, 64, 67
1, 324062, Note_off_c, 0, 31, 64
1, 324068, Control_c, 0, 64, 88
1, 324083, Control_c, 0, 64, 127
1, 324170, Note_off_c, 0, 91, 58
1, 324179, Note_off_c, 0, 94, 49
1, 324218, Note_off_c, 0, 86, 54
1, 324220, Note_off_c, 0, 82, 63
1, 324235, Note_on_c, 0, 63, 77
1, 324370, Note_on_c, 0, 79, 101
1, 324371, Note_on_c, 0, 91, 108
1, 324377, Note_on_c, 0, 58, 74
1, 324379, Note_on_c, 0, 61, 76
1, 324406, Note_off_c, 0, 63, 25
1, 324407, Note_off_c, 0, 79, 65
1, 324426, Note_off_c, 0, 91, 63
1, 324441, Note_off_c, 0, 58, 56
1, 324463, Note_off_c, 0, 61, 61
1, 324524, Note_on_c, 0, 62, 68
1, 324611, Note_off_c, 0, 62, 38
1, 324709, Note_on_c, 0, 53, 78
1, 324717, Note_on_c, 0, 62, 79
1, 324718, Note_on_c, 0, 96, 103
1, 324720, Note_on_c, 0, 84, 100
1, 324722, Note_on_c, 0, 58, 73
1, 324792, Note_off_c, 0, 53, 59
1, 324949, Note_on_c, 0, 67, 64
1, 324957, Note_off_c, 0, 62, 62
1, 324970, Note_off_c, 0, 67, 63
1, 324993, Note_off_c, 0, 58, 65
1, 325212, Control_c, 0, 64, 104
1, 325227, Control_c, 0, 64, 70
1, 325237, Note_on_c, 0, 36, 96
1, 325241, Control_c, 0, 64, 0
1, 325271, Control_c, 0, 64, 29
1, 325286, Control_c, 0, 64, 71
1, 325301, Control_c, 0, 64, 93
1, 325315, Control_c, 0, 64, 127
1, 325337, Note_off_c, 0, 36, 61
1, 325575, Note_on_c, 0, 52, 65
1, 325620, Note_off_c, 0, 84, 44
1, 325621, Note_off_c, 0, 96, 57
1, 325687, Note_off_c, 0, 52, 54
1, 325741, Note_on_c, 0, 55, 77
1, 325809, Note_off_c, 0, 55, 59
1, 325890, Note_on_c, 0, 64, 78
1, 325932, Note_off_c, 0, 64, 64
1, 326040, Note_on_c, 0, 66, 84
1, 326044, Note_on_c, 0, 82, 98
1, 326044, Note_on_c, 0, 94, 94
1, 326054, Note_on_c, 0, 58, 62
1, 326058, Note_on_c, 0, 60, 56
1, 326062, Note_on_c, 0, 64, 65
1, 326114, Note_off_c, 0, 58, 50
1, 326123, Note_off_c, 0, 60, 59
1, 326125, Note_off_c, 0, 64, 62
1, 326135, Note_off_c, 0, 66, 54
1, 326150, Note_off_c, 0, 94, 66
1, 326179, Note_off_c, 0, 82, 57
1, 326206, Note_on_c, 0, 67, 87
1, 326244, Note_off_c, 0, 67, 62
1, 326375, Control_c, 0, 64, 109
1, 326390, Control_c, 0, 64, 74
1, 326393, Note_on_c, 0, 41, 93
1, 326394, Note_on_c, 0, 93, 95
1, 326396, Note_on_c, 0, 87, 93
1, 326398, Note_on_c, 0, 81, 95
1, 326405, Control_c, 0, 64, 0
1, 326435, Control_c, 0, 64, 42
1, 326450, Control_c, 0, 64, 70
1, 326453, Note_off_c, 0, 93, 63
1, 326464, Control_c, 0, 64, 88
1, 326468, Note_off_c, 0, 87, 65
1, 326486, Control_c, 0, 64, 127
1, 326491, Note_off_c, 0, 41, 62
1, 326527, Note_on_c, 0, 53, 81
1, 326535, Note_off_c, 0, 81, 54
1, 326560, Note_off_c, 0, 53, 65
1, 326668, Note_on_c, 0, 51, 77
1, 326669, Note_on_c, 0, 57, 73
1, 326687, Note_on_c, 0, 79, 82
1, 326688, Note_on_c, 0, 59, 77
1, 326721, Note_on_c, 0, 81, 85
1, 326729, Note_off_c, 0, 79, 62
1, 326731, Note_off_c, 0, 57, 57
1, 326735, Note_off_c, 0, 51, 57
1, 326757, Note_off_c, 0, 59, 60
1, 326778, Note_on_c, 0, 60, 81
1, 326782, Note_off_c, 0, 81, 64
1, 326786, Note_on_c, 0, 79, 93
1, 326819, Note_off_c, 0, 60, 65
1, 326854, Note_off_c, 0, 79, 56
1, 326904, Note_on_c, 0, 53, 65
1, 326906, Note_on_c, 0, 57, 70
1, 326916, Note_on_c, 0, 63, 75
1, 326917, Note_on_c, 0, 89, 100
1, 326918, Note_on_c, 0, 52, 54
1, 326921, Note_on_c, 0, 77, 89
1, 326945, Note_off_c, 0, 52, 57
1, 327001, Note_off_c, 0, 63, 40
1, 327052, Note_off_c, 0, 53, 0
1, 327055, Note_on_c, 0, 65, 61
1, 327067, Note_on_c, 0, 53, 47
1, 327070, Note_off_c, 0, 57, 63
1, 327076, Note_off_c, 0, 65, 63
1, 327095, Note_off_c, 0, 53, 66
1, 327212, Control_c, 0, 64, 88
1, 327234, Note_off_c, 0, 77, 59
1, 327234, Control_c, 0, 64, 64
1, 327249, Control_c, 0, 64, 42
1, 327255, Note_off_c, 0, 89, 63
1, 327258, Note_on_c, 0, 34, 106
1, 327264, Control_c, 0, 64, 67
1, 327279, Control_c, 0, 64, 86
1, 327280, Note_off_c, 0, 34, 70
1, 327294, Control_c, 0, 64, 127
1, 327445, Note_on_c, 0, 68, 89
1, 327508, Note_off_c, 0, 68, 59
1, 327550, Note_on_c, 0, 82, 105
1, 327554, Note_on_c, 0, 94, 93
1, 327568, Note_on_c, 0, 62, 71
1, 327568, Note_on_c, 0, 58, 74
1, 327574, Note_on_c, 0, 64, 71
1, 327616, Note_off_c, 0, 82, 63
1, 327617, Note_off_c, 0, 94, 64
1, 327621, Note_off_c, 0, 62, 61
1, 327621, Note_off_c, 0, 64, 62
1, 327639, Note_off_c, 0, 58, 56
1, 327681, Note_on_c, 0, 65, 83
1, 327729, Note_off_c, 0, 65, 62
1, 327802, Note_on_c, 0, 80, 106
1, 327806, Note_on_c, 0, 92, 100
1, 327811, Note_on_c, 0, 53, 58
1, 327815, Note_on_c, 0, 61, 74
1, 327818, Note_on_c, 0, 55, 65
1, 327821, Note_on_c, 0, 56, 68
1, 327821, Note_on_c, 0, 58, 62
1, 327851, Note_off_c, 0, 55, 61
1, 327854, Note_off_c, 0, 53, 62
1, 327854, Note_off_c, 0, 58, 61
1, 327860, Note_off_c, 0, 61, 60
1, 327861, Note_off_c, 0, 56, 58
1, 327878, Note_off_c, 0, 92, 67
1, 327889, Note_off_c, 0, 80, 62
1, 327907, Note_on_c, 0, 56, 68
1, 327932, Note_on_c, 0, 60, 25
1, 327934, Note_off_c, 0, 56, 65
1, 327969, Note_off_c, 0, 60, 53
1, 328042, Control_c, 0, 64, 78
1, 328057, Control_c, 0, 64, 0
1, 328073, Note_on_c, 0, 39, 107
1, 328078, Note_on_c, 0, 91, 90
1, 328082, Note_on_c, 0, 79, 97
1, 328082, Note_on_c, 0, 85, 94
1, 328096, Note_off_c, 0, 39, 65
1, 328102, Control_c, 0, 64, 62
1, 328117, Control_c, 0, 64, 90
1, 328128, Note_off_c, 0, 91, 63
1, 328132, Control_c, 0, 64, 127
1, 328144, Note_off_c, 0, 85, 62
1, 328197, Note_off_c, 0, 79, 59
1, 328241, Note_on_c, 0, 58, 79
1, 328319, Note_off_c, 0, 58, 46
1, 328334, Note_on_c, 0, 77, 82
1, 328334, Note_on_c, 0, 66, 83
1, 328340, Note_on_c, 0, 63, 74
1, 328373, Note_on_c, 0, 79, 90
1, 328376, Note_off_c, 0, 77, 66
1, 328405, Note_on_c, 0, 67, 74
1, 328422, Note_off_c, 0, 66, 52
1, 328426, Note_on_c, 0, 77, 87
1, 328428, Note_off_c, 0, 79, 63
1, 328440, Note_off_c, 0, 63, 56
1, 328467, Note_off_c, 0, 77, 64
1, 328478, Note_off_c, 0, 67, 59
1, 328484, Note_on_c, 0, 57, 63
1, 328540, Note_off_c, 0, 57, 61
1, 328562, Note_on_c, 0, 87, 98
1, 328566, Note_on_c, 0, 75, 95
1, 328618, Note_on_c, 0, 58, 63
1, 328644, Note_off_c, 0, 58, 66
1, 328807, Control_c, 0, 64, 80
1, 328822, Control_c, 0, 64, 29
1, 328837, Control_c, 0, 64, 0
1, 328840, Note_on_c, 0, 32, 105
1, 328851, Control_c, 0, 64, 63
1, 328861, Note_off_c, 0, 32, 70
1, 328866, Control_c, 0, 64, 81
1, 328868, Note_off_c, 0, 75, 56
1, 328881, Control_c, 0, 64, 127
1, 328892, Note_off_c, 0, 87, 56
1, 329040, Note_on_c, 0, 56, 71
1, 329128, Note_off_c, 0, 56, 59
1, 329150, Note_on_c, 0, 77, 96
1, 329151, Note_on_c, 0, 89, 96
1, 329157, Note_on_c, 0, 85, 97
1, 329165, Note_on_c, 0, 65, 77
1, 329178, Note_on_c, 0, 61, 74
1, 329207, Note_off_c, 0, 77, 62
1, 329236, Note_off_c, 0, 89, 62
1, 329247, Note_off_c, 0, 65, 60
1, 329279, Note_off_c, 0, 61, 54
1, 329315, Note_on_c, 0, 68, 76
1, 329359, Note_off_c, 0, 68, 63
1, 329464, Note_on_c, 0, 83, 92
1, 329466, Note_on_c, 0, 87, 101
1, 329478, Note_on_c, 0, 63, 78
1, 329482, Note_on_c, 0, 59, 65
1, 329500, Note_off_c, 0, 85, 61
1, 329514, Note_off_c, 0, 83, 68
1, 329521, Note_off_c, 0, 87, 68
1, 329582, Note_off_c, 0, 63, 59
1, 329592, Note_off_c, 0, 59, 34
1, 329648, Note_on_c, 0, 53, 72
1, 329684, Note_off_c, 0, 53, 68
1, 329950, Note_on_c, 0, 34, 90
1, 329956, Control_c, 0, 64, 101
1, 329960, Note_on_c, 0, 79, 89
1, 329970, Note_on_c, 0, 75, 69
1, 329971, Control_c, 0, 64, 78
1, 329976, Note_on_c, 0, 67, 68
1, 329986, Control_c, 0, 64, 40
1, 329990, Note_on_c, 0, 70, 51
1, 330001, Control_c, 0, 64, 0
1, 330134, Control_c, 0, 64, 58
1, 330149, Control_c, 0, 64, 68
1, 330164, Control_c, 0, 64, 75
1, 330179, Control_c, 0, 64, 83
1, 330194, Control_c, 0, 64, 90
1, 330194, Note_off_c, 0, 70, 59
1, 330201, Note_off_c, 0, 67, 60
1, 330202, Note_off_c, 0, 75, 37
1, 330209, Control_c, 0, 64, 99
1, 330230, Control_c, 0, 64, 110
1, 330245, Control_c, 0, 64, 127
1, 330257, Note_on_c, 0, 46, 85
1, 330271, Note_off_c, 0, 34, 57
1, 330278, Note_off_c, 0, 79, 59
1, 330292, Note_off_c, 0, 46, 60
1, 330418, Note_on_c, 0, 75, 88
1, 330423, Note_on_c, 0, 68, 84
1, 330426, Note_on_c, 0, 72, 75
1, 330426, Note_on_c, 0, 53, 71
1, 330456, Note_on_c, 0, 60, 43
1, 330458, Note_off_c, 0, 72, 63
1, 330472, Note_off_c, 0, 68, 61
1, 330474, Note_off_c, 0, 75, 65
1, 330477, Note_off_c, 0, 53, 64
1, 330489, Note_off_c, 0, 60, 63
1, 330567, Note_on_c, 0, 63, 78
1, 330617, Note_off_c, 0, 63, 58
1, 330682, Note_on_c, 0, 72, 90
1, 330690, Note_on_c, 0, 63, 91
1, 330691, Note_on_c, 0, 68, 80
1, 330692, Note_on_c, 0, 58, 74
1, 330775, Note_off_c, 0, 72, 57
1, 330796, Note_off_c, 0, 68, 58
1, 330822, Note_off_c, 0, 58, 37
1, 330825, Note_on_c, 0, 53, 73
1, 330849, Note_off_c, 0, 53, 71
1, 330978, Note_off_c, 0, 63, 58
1, 331006, Note_on_c, 0, 68, 93
1, 331009, Control_c, 0, 64, 110
1, 331012, Note_on_c, 0, 60, 90
1, 331014, Note_on_c, 0, 34, 88
1, 331024, Control_c, 0, 64, 72
1, 331039, Control_c, 0, 64, 0
1, 331098, Control_c, 0, 64, 64
1, 331112, Control_c, 0, 64, 76
1, 331127, Control_c, 0, 64, 90
1, 331142, Control_c, 0, 64, 126
1, 331157, Control_c, 0, 64, 127
1, 331175, Note_off_c, 0, 34, 56
1, 331178, Note_on_c, 0, 46, 84
1, 331219, Note_off_c, 0, 46, 61
1, 331231, Note_off_c, 0, 60, 58
1, 331338, Note_on_c, 0, 46, 82
1, 331342, Note_off_c, 0, 68, 57
1, 331348, Note_on_c, 0, 70, 99
1, 331360, Note_on_c, 0, 62, 74
1, 331423, Note_off_c, 0, 62, 60
1, 331532, Note_on_c, 0, 56, 81
1, 331534, Note_off_c, 0, 46, 58
1, 331619, Note_off_c, 0, 70, 60
1, 331661, Note_off_c, 0, 56, 60
1, 331670, Note_on_c, 0, 53, 87
1, 331767, Note_on_c, 0, 58, 91
1, 331802, Note_off_c, 0, 53, 65
1, 331804, Note_off_c, 0, 58, 67
1, 331824, Note_on_c, 0, 68, 77
1, 331877, Note_off_c, 0, 68, 61
1, 331881, Note_on_c, 0, 70, 86
1, 331944, Note_on_c, 0, 68, 89
1, 331944, Note_off_c, 0, 70, 64
1, 331987, Note_off_c, 0, 68, 64
1, 332165, Note_on_c, 0, 27, 101
1, 332169, Note_on_c, 0, 39, 96
1, 332176, Note_on_c, 0, 67, 99
1, 332199, Note_on_c, 0, 58, 75
1, 332203, Control_c, 0, 64, 82
1, 332218, Control_c, 0, 64, 0
1, 332307, Control_c, 0, 64, 72
1, 332322, Control_c, 0, 64, 94
1, 332337, Control_c, 0, 64, 127
1, 332364, Note_off_c, 0, 27, 59
1, 332394, Note_off_c, 0, 39, 55
1, 332613, Note_on_c, 0, 55, 87
1, 332615, Note_on_c, 0, 46, 85
1, 332623, Note_off_c, 0, 58, 48
1, 332714, Note_off_c, 0, 67, 57
1, 332726, Note_on_c, 0, 63, 69
1, 332736, Note_off_c, 0, 55, 56
1, 332775, Note_off_c, 0, 46, 53
1, 332795, Note_on_c, 0, 58, 80
1, 332802, Note_on_c, 0, 51, 83
1, 332823, Note_off_c, 0, 63, 60
1, 332825, Note_off_c, 0, 58, 65
1, 332871, Note_off_c, 0, 51, 63
1, 332910, Note_on_c, 0, 55, 94
1, 332918, Note_on_c, 0, 63, 79
1, 332954, Note_off_c, 0, 55, 67
1, 332999, Note_off_c, 0, 63, 53
1, 333000, Note_on_c, 0, 67, 78
1, 333048, Note_on_c, 0, 58, 84
1, 333056, Note_off_c, 0, 67, 62
1, 333062, Note_on_c, 0, 75, 80
1, 333085, Note_off_c, 0, 75, 66
1, 333100, Note_off_c, 0, 58, 61
1, 333142, Note_on_c, 0, 70, 95
1, 333149, Note_on_c, 0, 63, 82
1, 333180, Note_off_c, 0, 63, 61
1, 333226, Note_on_c, 0, 75, 80
1, 333229, Note_off_c, 0, 70, 61
1, 333232, Note_on_c, 0, 67, 79
1, 333267, Note_on_c, 0, 82, 83
1, 333280, Note_off_c, 0, 75, 63
1, 333290, Note_on_c, 0, 70, 75
1, 333296, Note_off_c, 0, 67, 63
1, 333307, Note_off_c, 0, 82, 60
1, 333323, Note_off_c, 0, 70, 58
1, 333393, Note_on_c, 0, 67, 93
1, 333395, Note_on_c, 0, 58, 91
1, 333399, Note_on_c, 0, 89, 105
1, 333403, Note_on_c, 0, 77, 100
1, 333428, Note_off_c, 0, 67, 61
1, 333434, Note_off_c, 0, 58, 63
1, 333435, Note_off_c, 0, 77, 64
1, 333441, Note_off_c, 0, 89, 67
1, 333689, Note_on_c, 0, 79, 102
1, 333690, Note_on_c, 0, 91, 105
1, 333730, Note_off_c, 0, 79, 63
1, 333759, Note_off_c, 0, 91, 48
1, 333975, Control_c, 0, 64, 92
1, 333990, Control_c, 0, 64, 0
1, 333993, Note_on_c, 0, 34, 92
1, 334001, Note_on_c, 0, 80, 98
1, 334001, Note_on_c, 0, 92, 102
1, 334005, Note_on_c, 0, 86, 88
1, 334039, Note_on_c, 0, 87, 44
1, 334042, Note_off_c, 0, 34, 62
1, 334049, Control_c, 0, 64, 55
1, 334063, Note_off_c, 0, 87, 39
1, 334064, Control_c, 0, 64, 94
1, 334072, Note_off_c, 0, 80, 63
1, 334075, Note_off_c, 0, 92, 68
1, 334078, Control_c, 0, 64, 127
1, 334091, Note_off_c, 0, 86, 58
1, 334236, Note_on_c, 0, 58, 84
1, 334237, Note_on_c, 0, 53, 62
1, 334251, Note_on_c, 0, 77, 94
1, 334254, Note_on_c, 0, 89, 89
1, 334266, Note_off_c, 0, 53, 67
1, 334280, Note_off_c, 0, 58, 65
1, 334286, Note_off_c, 0, 89, 59
1, 334290, Note_off_c, 0, 77, 68
1, 334326, Note_on_c, 0, 60, 87
1, 334329, Note_on_c, 0, 56, 79
1, 334359, Note_off_c, 0, 56, 63
1, 334367, Note_off_c, 0, 60, 67
1, 334409, Note_on_c, 0, 58, 89
1, 334417, Note_on_c, 0, 62, 87
1, 334430, Note_on_c, 0, 74, 100
1, 334437, Note_on_c, 0, 86, 79
1, 334445, Note_off_c, 0, 58, 63
1, 334449, Note_off_c, 0, 62, 63
1, 334451, Note_off_c, 0, 86, 71
1, 334463, Note_off_c, 0, 74, 68
1, 334548, Note_on_c, 0, 75, 37
1, 334583, Note_off_c, 0, 75, 50
1, 334598, Control_c, 0, 64, 115
1, 334612, Control_c, 0, 64, 73
1, 334627, Control_c, 0, 64, 0
1, 334629, Note_on_c, 0, 65, 85
1, 334635, Note_on_c, 0, 70, 99
1, 334637, Note_on_c, 0, 82, 92
1, 334644, Note_on_c, 0, 80, 80
1, 334647, Note_on_c, 0, 74, 78
1, 334655, Note_on_c, 0, 58, 66
1, 334668, Note_off_c, 0, 74, 72
1, 334671, Note_off_c, 0, 70, 67
1, 334671, Control_c, 0, 64, 60
1, 334686, Control_c, 0, 64, 82
1, 334694, Note_off_c, 0, 58, 56
1, 334698, Note_off_c, 0, 80, 64
1, 334700, Note_off_c, 0, 82, 65
1, 334701, Control_c, 0, 64, 107
1, 334724, Control_c, 0, 64, 127
1, 334745, Note_off_c, 0, 65, 54
1, 334854, Note_on_c, 0, 68, 92
1, 334861, Note_on_c, 0, 82, 106
1, 334862, Note_on_c, 0, 94, 103
1, 334865, Note_on_c, 0, 60, 74
1, 334902, Note_off_c, 0, 82, 67
1, 334905, Note_off_c, 0, 94, 65
1, 334906, Note_off_c, 0, 68, 60
1, 334910, Note_off_c, 0, 60, 53
1, 335065, Note_on_c, 0, 58, 86
1, 335084, Note_on_c, 0, 80, 96
1, 335084, Note_on_c, 0, 92, 99
1, 335097, Note_off_c, 0, 58, 60
1, 335117, Note_on_c, 0, 85, 33
1, 335139, Note_off_c, 0, 80, 58
1, 335149, Note_off_c, 0, 85, 54
1, 335151, Note_off_c, 0, 92, 63
1, 335286, Control_c, 0, 64, 101
1, 335301, Control_c, 0, 64, 67
1, 335316, Control_c, 0, 64, 0
1, 335317, Note_on_c, 0, 46, 102
1, 335319, Note_on_c, 0, 39, 93
1, 335321, Note_on_c, 0, 91, 93
1, 335322, Note_on_c, 0, 79, 103
1, 335324, Note_on_c, 0, 87, 90
1, 335324, Note_on_c, 0, 82, 90
1, 335347, Control_c, 0, 64, 39
1, 335351, Note_off_c, 0, 39, 61
1, 335355, Note_off_c, 0, 46, 64
1, 335361, Control_c, 0, 64, 75
1, 335368, Note_off_c, 0, 91, 64
1, 335376, Control_c, 0, 64, 109
1, 335380, Note_off_c, 0, 87, 66
1, 335391, Control_c, 0, 64, 127
1, 335393, Note_off_c, 0, 82, 64
1, 335417, Note_off_c, 0, 79, 62
1, 335540, Note_on_c, 0, 55, 77
1, 335542, Note_on_c, 0, 63, 88
1, 335549, Note_on_c, 0, 77, 83
1, 335570, Note_off_c, 0, 55, 66
1, 335588, Note_on_c, 0, 79, 83
1, 335590, Note_off_c, 0, 63, 62
1, 335590, Note_off_c, 0, 77, 63
1, 335622, Note_on_c, 0, 58, 87
1, 335637, Note_on_c, 0, 77, 76
1, 335639, Note_off_c, 0, 79, 59
1, 335663, Note_on_c, 0, 65, 37
1, 335679, Note_off_c, 0, 77, 62
1, 335683, Note_off_c, 0, 58, 62
1, 335696, Note_off_c, 0, 65, 54
1, 335718, Note_on_c, 0, 75, 97
1, 335718, Note_on_c, 0, 87, 96
1, 335719, Note_on_c, 0, 63, 64
1, 335728, Note_on_c, 0, 67, 81
1, 335749, Note_off_c, 0, 75, 62
1, 335751, Note_off_c, 0, 67, 68
1, 335752, Note_off_c, 0, 63, 62
1, 335752, Note_off_c, 0, 87, 69
1, 335936, Note_on_c, 0, 65, 85
1, 335938, Note_on_c, 0, 70, 96
1, 335962, Control_c, 0, 64, 85
1, 335976, Control_c, 0, 64, 60
1, 335991, Control_c, 0, 64, 0
1, 336006, Control_c, 0, 64, 58
1, 336020, Control_c, 0, 64, 70
1, 336035, Control_c, 0, 64, 86
1, 336050, Control_c, 0, 64, 127
1, 336164, Note_on_c, 0, 74, 82
1, 336164, Note_on_c, 0, 77, 102
1, 336165, Note_on_c, 0, 89, 99
1, 336166, Note_on_c, 0, 67, 72
1, 336183, Note_off_c, 0, 74, 72
1, 336198, Note_off_c, 0, 77, 67
1, 336209, Note_off_c, 0, 89, 63
1, 336253, Poly_aftertouch_c, 0, 82, 127
1, 336272, Poly_aftertouch_c, 0, 82, 0
1, 336386, Note_on_c, 0, 72, 76
1, 336405, Note_off_c, 0, 72, 71
1, 336409, Note_off_c, 0, 70, 62
1, 336423, Note_off_c, 0, 67, 62
1, 336428, Note_off_c, 0, 65, 66
1, 336442, Note_on_c, 0, 91, 97
1, 336445, Note_on_c, 0, 79, 97
1, 336484, Note_off_c, 0, 91, 65
1, 336491, Note_off_c, 0, 79, 63
1, 336636, Control_c, 0, 64, 100
1, 336642, Note_on_c, 0, 34, 96
1, 336650, Control_c, 0, 64, 69
1, 336653, Note_on_c, 0, 80, 94
1, 336654, Note_on_c, 0, 92, 95
1, 336655, Note_on_c, 0, 86, 75
1, 336665, Note_off_c, 0, 34, 71
1, 336665, Control_c, 0, 64, 0
1, 336680, Control_c, 0, 64, 62
1, 336686, Note_on_c, 0, 87, 46
1, 336695, Control_c, 0, 64, 77
1, 336710, Control_c, 0, 64, 113
1, 336716, Note_off_c, 0, 87, 38
1, 336724, Note_off_c, 0, 92, 67
1, 336724, Control_c, 0, 64, 127
1, 336730, Note_off_c, 0, 80, 63
1, 336750, Note_off_c, 0, 86, 48
1, 336853, Note_on_c, 0, 58, 86
1, 336856, Note_on_c, 0, 53, 71
1, 336864, Note_on_c, 0, 77, 90
1, 336866, Note_on_c, 0, 89, 94
1, 336881, Note_off_c, 0, 53, 68
1, 336895, Note_off_c, 0, 58, 61
1, 336901, Note_off_c, 0, 77, 66
1, 336902, Note_off_c, 0, 89, 60
1, 336925, Note_on_c, 0, 60, 97
1, 336967, Note_on_c, 0, 57, 51
1, 336980, Note_off_c, 0, 60, 66
1, 336993, Note_off_c, 0, 57, 59
1, 337022, Note_on_c, 0, 58, 87
1, 337026, Note_on_c, 0, 62, 90
1, 337037, Note_on_c, 0, 74, 99
1, 337044, Note_on_c, 0, 86, 79
1, 337047, Note_off_c, 0, 58, 61
1, 337058, Note_off_c, 0, 86, 70
1, 337063, Note_off_c, 0, 62, 65
1, 337068, Note_off_c, 0, 74, 70
1, 337080, Note_on_c, 0, 59, 8
1, 337128, Note_off_c, 0, 59, 39
1, 337191, Control_c, 0, 64, 102
1, 337206, Control_c, 0, 64, 69
1, 337207, Note_on_c, 0, 66, 79
1, 337220, Control_c, 0, 64, 0
1, 337222, Note_on_c, 0, 70, 97
1, 337222, Note_on_c, 0, 74, 84
1, 337225, Note_on_c, 0, 82, 89
1, 337226, Note_on_c, 0, 65, 86
1, 337226, Note_off_c, 0, 66, 60
1, 337229, Note_on_c, 0, 80, 82
1, 337235, Note_on_c, 0, 58, 76
1, 337247, Note_off_c, 0, 70, 67
1, 337248, Note_off_c, 0, 74, 69
1, 337265, Control_c, 0, 64, 68
1, 337280, Control_c, 0, 64, 97
1, 337280, Note_off_c, 0, 80, 64
1, 337281, Note_off_c, 0, 82, 64
1, 337295, Control_c, 0, 64, 127
1, 337317, Note_off_c, 0, 58, 56
1, 337343, Note_off_c, 0, 65, 55
1, 337424, Note_on_c, 0, 82, 110
1, 337426, Note_on_c, 0, 94, 102
1, 337429, Note_on_c, 0, 68, 88
1, 337431, Note_on_c, 0, 60, 74
1, 337441, Note_on_c, 0, 92, 74
1, 337455, Note_off_c, 0, 92, 71
1, 337464, Note_on_c, 0, 61, 30
1, 337468, Note_off_c, 0, 94, 68
1, 337470, Note_off_c, 0, 82, 64
1, 337478, Note_off_c, 0, 68, 61
1, 337507, Note_off_c, 0, 61, 30
1, 337518, Note_off_c, 0, 60, 54
1, 337619, Note_on_c, 0, 58, 81
1, 337654, Note_on_c, 0, 80, 110
1, 337658, Note_on_c, 0, 92, 100
1, 337666, Note_off_c, 0, 58, 63
1, 337723, Note_off_c, 0, 92, 65
1, 337727, Note_off_c, 0, 80, 54
1, 337896, Control_c, 0, 64, 102
1, 337911, Control_c, 0, 64, 58
1, 337917, Note_on_c, 0, 51, 102
1, 337919, Note_on_c, 0, 79, 100
1, 337919, Note_on_c, 0, 91, 94
1, 337920, Note_on_c, 0, 85, 94
1, 337923, Note_on_c, 0, 39, 89
1, 337926, Control_c, 0, 64, 0
1, 337946, Note_off_c, 0, 39, 69
1, 337956, Control_c, 0, 64, 42
1, 337959, Note_off_c, 0, 51, 66
1, 337970, Control_c, 0, 64, 73
1, 337971, Note_off_c, 0, 91, 62
1, 337985, Note_off_c, 0, 85, 63
1, 337985, Control_c, 0, 64, 98
1, 338000, Control_c, 0, 64, 127
1, 338026, Note_off_c, 0, 79, 59
1, 338131, Note_on_c, 0, 55, 82
1, 338133, Note_on_c, 0, 63, 85
1, 338147, Note_on_c, 0, 77, 78
1, 338178, Note_off_c, 0, 55, 56
1, 338179, Note_off_c, 0, 77, 58
1, 338188, Note_on_c, 0, 79, 87
1, 338228, Note_on_c, 0, 58, 84
1, 338233, Note_off_c, 0, 79, 59
1, 338239, Note_on_c, 0, 77, 87
1, 338263, Note_off_c, 0, 63, 58
1, 338269, Note_off_c, 0, 77, 62
1, 338305, Poly_aftertouch_c, 0, 65, 127
1, 338341, Poly_aftertouch_c, 0, 65, 0
1, 338352, Note_off_c, 0, 58, 0
1, 338365, Note_on_c, 0, 58, 61
1, 338370, Note_on_c, 0, 67, 90
1, 338371, Note_on_c, 0, 75, 108
1, 338372, Note_on_c, 0, 63, 82
1, 338375, Note_on_c, 0, 87, 98
1, 338387, Note_off_c, 0, 67, 72
1, 338405, Note_off_c, 0, 63, 58
1, 338406, Note_off_c, 0, 75, 70
1, 338409, Note_off_c, 0, 87, 67
1, 338411, Note_off_c, 0, 58, 64
1, 338764, Control_c, 0, 64, 79
1, 338767, Note_on_c, 0, 32, 106
1, 338772, Note_on_c, 0, 84, 93
1, 338773, Note_on_c, 0, 72, 98
1, 338775, Note_on_c, 0, 80, 93
1, 338776, Note_on_c, 0, 75, 94
1, 338779, Control_c, 0, 64, 0
1, 338852, Control_c, 0, 64, 64
1, 338867, Control_c, 0, 64, 87
1, 338870, Note_off_c, 0, 32, 61
1, 338882, Control_c, 0, 64, 103
1, 338889, Poly_aftertouch_c, 0, 31, 0
1, 338897, Control_c, 0, 64, 127
1, 339004, Note_off_c, 0, 72, 52
1, 339006, Note_off_c, 0, 84, 50
1, 339086, Note_off_c, 0, 80, 48
1, 339113, Note_off_c, 0, 75, 45
1, 339148, Note_on_c, 0, 84, 96
1, 339151, Note_on_c, 0, 72, 96
1, 339162, Note_on_c, 0, 51, 76
1, 339179, Note_on_c, 0, 82, 52
1, 339203, Note_off_c, 0, 82, 60
1, 339205, Note_on_c, 0, 56, 81
1, 339232, Note_off_c, 0, 51, 63
1, 339259, Note_on_c, 0, 60, 67
1, 339269, Note_off_c, 0, 84, 50
1, 339278, Note_off_c, 0, 56, 61
1, 339314, Note_off_c, 0, 60, 65
1, 339314, Note_off_c, 0, 72, 52
1, 339356, Note_on_c, 0, 68, 91
1, 339375, Note_off_c, 0, 68, 70
1, 339434, Note_on_c, 0, 71, 86
1, 339438, Note_on_c, 0, 83, 87
1, 339459, Note_off_c, 0, 71, 62
1, 339480, Note_off_c, 0, 83, 62
1, 339557, Control_c, 0, 64, 81
1, 339572, Control_c, 0, 64, 0
1, 339574, Note_on_c, 0, 38, 86
1, 339578, Note_on_c, 0, 74, 100
1, 339578, Note_on_c, 0, 86, 94
1, 339582, Note_on_c, 0, 78, 91
1, 339646, Control_c, 0, 64, 70
1, 339647, Note_off_c, 0, 38, 60
1, 339660, Control_c, 0, 64, 89
1, 339674, Note_off_c, 0, 86, 58
1, 339675, Control_c, 0, 64, 127
1, 339678, Note_off_c, 0, 74, 57
1, 339697, Note_off_c, 0, 78, 58
1, 339801, Note_on_c, 0, 72, 98
1, 339801, Note_on_c, 0, 78, 88
1, 339801, Note_on_c, 0, 84, 92
1, 339807, Note_on_c, 0, 54, 60
1, 339836, Note_off_c, 0, 72, 66
1, 339840, Note_off_c, 0, 84, 61
1, 339842, Note_off_c, 0, 78, 66
1, 339867, Note_on_c, 0, 60, 76
1, 339885, Note_off_c, 0, 54, 62
1, 339925, Note_on_c, 0, 62, 68
1, 339998, Note_on_c, 0, 66, 82
1, 340012, Note_off_c, 0, 62, 62
1, 340018, Note_off_c, 0, 66, 70
1, 340028, Note_off_c, 0, 60, 27
1, 340202, Control_c, 0, 64, 73
1, 340216, Note_on_c, 0, 31, 88
1, 340217, Control_c, 0, 64, 0
1, 340225, Note_on_c, 0, 82, 93
1, 340226, Note_on_c, 0, 70, 95
1, 340231, Note_on_c, 0, 79, 76
1, 340236, Note_on_c, 0, 74, 83
1, 340261, Control_c, 0, 64, 63
1, 340265, Note_off_c, 0, 31, 63
1, 340276, Control_c, 0, 64, 86
1, 340290, Control_c, 0, 64, 127
1, 340312, Note_off_c, 0, 82, 63
1, 340314, Note_off_c, 0, 70, 56
1, 340318, Note_off_c, 0, 74, 55
1, 340330, Note_off_c, 0, 79, 59
1, 340436, Note_on_c, 0, 74, 90
1, 340437, Note_on_c, 0, 70, 97
1, 340438, Note_on_c, 0, 50, 65
1, 340438, Note_on_c, 0, 82, 98
1, 340481, Note_off_c, 0, 50, 65
1, 340483, Note_on_c, 0, 55, 71
1, 340508, Note_off_c, 0, 74, 57
1, 340521, Note_off_c, 0, 70, 63
1, 340529, Note_off_c, 0, 82, 62
1, 340533, Note_off_c, 0, 55, 63
1, 340545, Note_on_c, 0, 58, 61
1, 340572, Note_off_c, 0, 58, 65
1, 340615, Note_on_c, 0, 67, 89
1, 340646, Note_off_c, 0, 67, 62
1, 340693, Note_on_c, 0, 69, 90
1, 340698, Note_on_c, 0, 81, 87
1, 340734, Note_off_c, 0, 69, 62
1, 340742, Note_off_c, 0, 81, 61
1, 340787, Control_c, 0, 64, 75
1, 340802, Control_c, 0, 64, 0
1, 340807, Note_on_c, 0, 36, 90
1, 340812, Note_on_c, 0, 84, 97
1, 340816, Note_on_c, 0, 72, 90
1, 340820, Note_on_c, 0, 76, 82
1, 340849, Note_off_c, 0, 72, 62
1, 340854, Note_off_c, 0, 36, 62
1, 340862, Control_c, 0, 64, 67
1, 340871, Note_off_c, 0, 84, 59
1, 340877, Control_c, 0, 64, 85
1, 340891, Control_c, 0, 64, 112
1, 340906, Control_c, 0, 64, 127
1, 340965, Note_off_c, 0, 76, 55
1, 341026, Note_on_c, 0, 55, 67
1, 341026, Control_c, 0, 64, 83
1, 341033, Note_on_c, 0, 82, 92
1, 341038, Note_on_c, 0, 70, 85
1, 341039, Note_on_c, 0, 76, 70
1, 341040, Control_c, 0, 64, 0
1, 341062, Note_on_c, 0, 58, 77
1, 341062, Note_off_c, 0, 55, 62
1, 341139, Note_on_c, 0, 64, 43
1, 341144, Control_c, 0, 64, 77
1, 341149, Note_on_c, 0, 62, 63
1, 341153, Note_off_c, 0, 58, 57
1, 341159, Control_c, 0, 64, 101
1, 341174, Control_c, 0, 64, 127
1, 341185, Note_off_c, 0, 76, 62
1, 341190, Note_off_c, 0, 82, 63
1, 341197, Note_off_c, 0, 62, 50
1, 341198, Note_on_c, 0, 67, 84
1, 341217, Note_off_c, 0, 64, 65
1, 341217, Note_off_c, 0, 67, 70
1, 341241, Note_off_c, 0, 70, 59
1, 341411, Control_c, 0, 64, 90
1, 341423, Note_on_c, 0, 41, 79
1, 341426, Control_c, 0, 64, 24
1, 341439, Note_on_c, 0, 80, 81
1, 341440, Control_c, 0, 64, 0
1, 341445, Note_on_c, 0, 68, 74
1, 341446, Note_on_c, 0, 77, 71
1, 341468, Note_on_c, 0, 72, 61
1, 341477, Control_c, 0, 64, 51
1, 341483, Note_off_c, 0, 41, 61
1, 341492, Control_c, 0, 64, 76
1, 341507, Control_c, 0, 64, 101
1, 341518, Note_off_c, 0, 72, 53
1, 341521, Control_c, 0, 64, 127
1, 341528, Note_off_c, 0, 80, 61
1, 341531, Note_off_c, 0, 68, 50
1, 341534, Note_off_c, 0, 77, 56
1, 341645, Note_on_c, 0, 53, 64
1, 341655, Note_on_c, 0, 80, 83
1, 341656, Note_on_c, 0, 72, 73
1, 341658, Note_on_c, 0, 68, 82
1, 341699, Note_on_c, 0, 60, 69
1, 341703, Note_off_c, 0, 72, 62
1, 341710, Note_off_c, 0, 53, 64
1, 341733, Note_off_c, 0, 68, 59
1, 341745, Note_off_c, 0, 80, 61
1, 341764, Note_on_c, 0, 56, 66
1, 341774, Note_off_c, 0, 60, 63
1, 341816, Note_on_c, 0, 65, 76
1, 341838, Note_off_c, 0, 65, 70
1, 341849, Note_off_c, 0, 56, 64
1, 341891, Note_on_c, 0, 67, 84
1, 341895, Note_on_c, 0, 79, 79
1, 341910, Note_off_c, 0, 67, 71
1, 341915, Note_off_c, 0, 79, 70
1, 341936, Control_c, 0, 64, 79
1, 341951, Control_c, 0, 64, 0
1, 341983, Note_on_c, 0, 80, 93
1, 341988, Note_on_c, 0, 68, 86
1, 341992, Note_on_c, 0, 74, 73
1, 342010, Note_on_c, 0, 35, 39
1, 342010, Control_c, 0, 64, 64
1, 342025, Control_c, 0, 64, 79
1, 342040, Control_c, 0, 64, 98
1, 342047, Note_off_c, 0, 35, 51
1, 342055, Control_c, 0, 64, 127
1, 342084, Note_off_c, 0, 68, 51
1, 342131, Note_off_c, 0, 80, 60
1, 342210, Control_c, 0, 64, 85
1, 342213, Note_off_c, 0, 74, 0
1, 342225, Control_c, 0, 64, 63
1, 342227, Note_on_c, 0, 74, 64
1, 342228, Note_on_c, 0, 82, 90
1, 342240, Control_c, 0, 64, 0
1, 342242, Note_on_c, 0, 70, 77
1, 342253, Note_on_c, 0, 56, 70
1, 342270, Control_c, 0, 64, 28
1, 342285, Control_c, 0, 64, 70
1, 342299, Control_c, 0, 64, 86
1, 342314, Control_c, 0, 64, 112
1, 342324, Note_off_c, 0, 82, 64
1, 342329, Control_c, 0, 64, 127
1, 342335, Note_off_c, 0, 70, 58
1, 342335, Note_on_c, 0, 58, 62
1, 342365, Note_off_c, 0, 56, 59
1, 342378, Note_on_c, 0, 62, 70
1, 342404, Note_off_c, 0, 58, 63
1, 342404, Note_off_c, 0, 62, 65
1, 342432, Note_off_c, 0, 74, 56
1, 342496, Note_on_c, 0, 80, 76
1, 342502, Note_on_c, 0, 68, 81
1, 342550, Note_off_c, 0, 68, 59
1, 342564, Note_off_c, 0, 80, 61
1, 342586, Poly_aftertouch_c, 0, 78, 127
1, 342609, Poly_aftertouch_c, 0, 78, 0
1, 342626, Control_c, 0, 64, 87
1, 342639, Note_on_c, 0, 39, 69
1, 342641, Control_c, 0, 64, 63
1, 342648, Note_on_c, 0, 51, 62
1, 342656, Control_c, 0, 64, 0
1, 342678, Note_off_c, 0, 39, 62
1, 342685, Control_c, 0, 64, 62
1, 342694, Note_on_c, 0, 79, 87
1, 342698, Note_on_c, 0, 67, 78
1, 342700, Control_c, 0, 64, 77
1, 342704, Note_off_c, 0, 51, 63
1, 342708, Note_on_c, 0, 70, 70
1, 342713, Note_on_c, 0, 75, 61
1, 342715, Control_c, 0, 64, 100
1, 342730, Control_c, 0, 64, 127
1, 342756, Note_off_c, 0, 67, 61
1, 342773, Note_off_c, 0, 70, 59
1, 342778, Note_off_c, 0, 75, 45
1, 342790, Note_off_c, 0, 79, 55
1, 342849, Note_on_c, 0, 63, 74
1, 342850, Note_on_c, 0, 55, 62
1, 342872, Note_off_c, 0, 55, 61
1, 342881, Note_off_c, 0, 63, 59
1, 342893, Control_c, 0, 64, 89
1, 342908, Control_c, 0, 64, 67
1, 342922, Control_c, 0, 64, 0
1, 342931, Note_on_c, 0, 58, 75
1, 342961, Note_on_c, 0, 65, 52
1, 342968, Note_off_c, 0, 58, 64
1, 342986, Note_off_c, 0, 65, 59
1, 343028, Note_on_c, 0, 63, 75
1, 343051, Note_on_c, 0, 67, 44
1, 343051, Note_off_c, 0, 63, 69
1, 343080, Note_off_c, 0, 67, 54
1, 343082, Note_on_c, 0, 70, 81
1, 343136, Note_off_c, 0, 70, 59
1, 343152, Note_on_c, 0, 67, 79
1, 343190, Note_off_c, 0, 67, 63
1, 343256, Note_on_c, 0, 77, 59
1, 343257, Note_on_c, 0, 70, 66
1, 343289, Note_off_c, 0, 70, 63
1, 343325, Note_on_c, 0, 79, 69
1, 343330, Note_off_c, 0, 77, 46
1, 343331, Control_c, 0, 67, 8
1, 343332, Note_on_c, 0, 75, 60
1, 343346, Control_c, 0, 67, 9
1, 343351, Note_off_c, 0, 79, 66
1, 343359, Note_off_c, 0, 75, 68
1, 343361, Control_c, 0, 67, 11
1, 343376, Control_c, 0, 67, 15
1, 343390, Control_c, 0, 67, 19
1, 343405, Control_c, 0, 67, 22
1, 343414, Note_on_c, 0, 82, 80
1, 343420, Control_c, 0, 67, 25
1, 343434, Control_c, 0, 67, 30
1, 343435, Note_off_c, 0, 82, 70
1, 343449, Control_c, 0, 67, 37
1, 343464, Control_c, 0, 67, 45
1, 343478, Note_on_c, 0, 79, 70
1, 343479, Control_c, 0, 67, 54
1, 343486, Note_on_c, 0, 87, 68
1, 343494, Control_c, 0, 67, 66
1, 343497, Note_off_c, 0, 79, 67
1, 343502, Note_off_c, 0, 87, 68
1, 343508, Control_c, 0, 67, 79
1, 343523, Control_c, 0, 67, 92
1, 343538, Control_c, 0, 67, 104
1, 343553, Control_c, 0, 67, 114
1, 343560, Note_on_c, 0, 89, 75
1, 343566, Note_on_c, 0, 82, 70
1, 343568, Control_c, 0, 67, 122
1, 343582, Note_off_c, 0, 82, 67
1, 343582, Control_c, 0, 67, 127
1, 343589, Note_off_c, 0, 89, 60
1, 343663, Note_on_c, 0, 91, 65
1, 343686, Control_c, 0, 64, 63
1, 343687, Note_off_c, 0, 91, 63
1, 343708, Control_c, 0, 64, 72
1, 343723, Control_c, 0, 64, 77
1, 343738, Control_c, 0, 64, 84
1, 343753, Control_c, 0, 64, 89
1, 343768, Control_c, 0, 64, 93
1, 343782, Control_c, 0, 64, 95
1, 343797, Control_c, 0, 64, 96
1, 343812, Control_c, 0, 64, 93
1, 343827, Control_c, 0, 64, 82
1, 343842, Control_c, 0, 64, 70
1, 343857, Control_c, 0, 64, 57
1, 343872, Control_c, 0, 64, 54
1, 343886, Note_on_c, 0, 32, 60
1, 343887, Control_c, 0, 64, 65
1, 343901, Control_c, 0, 64, 76
1, 343904, Note_on_c, 0, 96, 52
1, 343916, Control_c, 0, 64, 86
1, 343918, Note_off_c, 0, 32, 62
1, 343918, Note_on_c, 0, 92, 44
1, 343931, Control_c, 0, 64, 97
1, 343946, Control_c, 0, 64, 108
1, 343961, Control_c, 0, 64, 119
1, 343975, Control_c, 0, 64, 127
1, 343985, Note_off_c, 0, 92, 0
1, 343985, Note_on_c, 0, 92, 5
1, 343990, Note_off_c, 0, 96, 40
1, 344055, Note_off_c, 0, 92, 52
1, 344082, Note_on_c, 0, 84, 56
1, 344101, Note_off_c, 0, 84, 64
1, 344199, Control_c, 0, 64, 103
1, 344201, Note_on_c, 0, 84, 60
1, 344203, Note_on_c, 0, 60, 55
1, 344213, Control_c, 0, 64, 86
1, 344216, Note_on_c, 0, 80, 58
1, 344219, Note_on_c, 0, 56, 46
1, 344222, Note_on_c, 0, 51, 51
1, 344228, Control_c, 0, 64, 72
1, 344234, Note_off_c, 0, 84, 49
1, 344243, Control_c, 0, 64, 64
1, 344258, Control_c, 0, 64, 59
1, 344269, Note_off_c, 0, 80, 60
1, 344288, Control_c, 0, 64, 60
1, 344303, Control_c, 0, 64, 59
1, 344315, Note_on_c, 0, 72, 77
1, 344318, Control_c, 0, 64, 53
1, 344331, Note_off_c, 0, 60, 64
1, 344332, Control_c, 0, 64, 0
1, 344340, Note_off_c, 0, 56, 62
1, 344359, Note_off_c, 0, 51, 64
1, 344380, Note_off_c, 0, 72, 54
1, 344396, Note_on_c, 0, 71, 77
1, 344437, Note_off_c, 0, 71, 59
1, 344501, Note_on_c, 0, 72, 59
1, 344528, Note_off_c, 0, 72, 59
1, 344606, Note_on_c, 0, 38, 45
1, 344607, Note_on_c, 0, 73, 57
1, 344621, Control_c, 0, 64, 64
1, 344631, Note_off_c, 0, 73, 62
1, 344636, Control_c, 0, 64, 74
1, 344642, Note_off_c, 0, 38, 62
1, 344650, Control_c, 0, 64, 80
1, 344665, Control_c, 0, 64, 85
1, 344680, Control_c, 0, 64, 89
1, 344695, Control_c, 0, 64, 95
1, 344702, Note_on_c, 0, 74, 61
1, 344710, Control_c, 0, 64, 101
1, 344724, Control_c, 0, 64, 107
1, 344739, Control_c, 0, 64, 112
1, 344753, Note_off_c, 0, 74, 53
1, 344754, Control_c, 0, 64, 114
1, 344769, Control_c, 0, 64, 116
1, 344783, Control_c, 0, 64, 118
1, 344798, Control_c, 0, 64, 121
1, 344813, Control_c, 0, 64, 123
1, 344826, Note_on_c, 0, 54, 47
1, 344827, Note_on_c, 0, 86, 79
1, 344828, Control_c, 0, 64, 126
1, 344832, Note_on_c, 0, 60, 47
1, 344843, Control_c, 0, 64, 127
1, 344849, Note_on_c, 0, 82, 62
1, 344857, Note_off_c, 0, 60, 58
1, 344870, Note_off_c, 0, 82, 62
1, 344875, Note_off_c, 0, 54, 64
1, 344880, Note_off_c, 0, 86, 63
1, 344902, Control_c, 0, 67, 122
1, 344917, Control_c, 0, 67, 114
1, 344933, Control_c, 0, 67, 104
1, 344946, Note_on_c, 0, 74, 65
1, 344948, Control_c, 0, 67, 91
1, 344962, Control_c, 0, 67, 72
1, 344977, Note_off_c, 0, 74, 65
1, 344977, Control_c, 0, 67, 47
1, 344992, Control_c, 0, 67, 27
1, 345006, Control_c, 0, 67, 9
1, 345012, Note_on_c, 0, 84, 83
1, 345021, Control_c, 0, 67, 0
1, 345043, Note_on_c, 0, 81, 44
1, 345070, Note_off_c, 0, 81, 57
1, 345118, Note_on_c, 0, 72, 53
1, 345122, Note_off_c, 0, 84, 61
1, 345143, Note_off_c, 0, 72, 56
1, 345170, Control_c, 0, 64, 89
1, 345185, Control_c, 0, 64, 64
1, 345206, Control_c, 0, 64, 0
1, 345221, Note_on_c, 0, 31, 66
1, 345231, Note_on_c, 0, 82, 76
1, 345236, Control_c, 0, 64, 24
1, 345239, Note_on_c, 0, 79, 70
1, 345251, Control_c, 0, 64, 68
1, 345254, Note_off_c, 0, 31, 63
1, 345266, Control_c, 0, 64, 81
1, 345280, Control_c, 0, 64, 98
1, 345283, Note_off_c, 0, 79, 59
1, 345295, Control_c, 0, 64, 127
1, 345300, Note_off_c, 0, 82, 65
1, 345335, Note_on_c, 0, 74, 63
1, 345355, Note_off_c, 0, 74, 64
1, 345407, Note_on_c, 0, 55, 60
1, 345413, Note_on_c, 0, 58, 67
1, 345426, Note_on_c, 0, 50, 57
1, 345438, Note_off_c, 0, 58, 65
1, 345438, Note_on_c, 0, 68, 63
1, 345444, Note_on_c, 0, 65, 63
1, 345451, Note_off_c, 0, 55, 64
1, 345468, Note_off_c, 0, 68, 64
1, 345473, Note_off_c, 0, 65, 66
1, 345477, Note_off_c, 0, 50, 65
1, 345519, Note_on_c, 0, 62, 75
1, 345564, Note_off_c, 0, 62, 62
1, 345595, Note_on_c, 0, 61, 82
1, 345642, Note_off_c, 0, 61, 62
1, 345677, Note_on_c, 0, 62, 71
1, 345680, Control_c, 0, 64, 97
1, 345695, Control_c, 0, 64, 70
1, 345710, Control_c, 0, 64, 0
1, 345741, Note_off_c, 0, 62, 56
1, 345754, Note_on_c, 0, 36, 65
1, 345781, Note_off_c, 0, 36, 62
1, 345784, Note_on_c, 0, 63, 78
1, 345784, Control_c, 0, 64, 67
1, 345799, Control_c, 0, 64, 84
1, 345814, Control_c, 0, 64, 100
1, 345829, Control_c, 0, 64, 115
1, 345840, Note_off_c, 0, 63, 60
1, 345844, Control_c, 0, 64, 127
1, 345872, Note_on_c, 0, 64, 72
1, 345899, Note_off_c, 0, 64, 63
1, 345968, Note_on_c, 0, 72, 66
1, 345974, Note_on_c, 0, 68, 69
1, 345979, Note_on_c, 0, 64, 60
1, 345980, Note_on_c, 0, 58, 63
1, 345984, Note_on_c, 0, 60, 30
1, 345992, Note_off_c, 0, 72, 68
1, 346014, Note_off_c, 0, 68, 60
1, 346061, Note_on_c, 0, 72, 61
1, 346061, Note_off_c, 0, 64, 52
1, 346082, Note_off_c, 0, 58, 38
1, 346084, Note_on_c, 0, 74, 54
1, 346084, Note_off_c, 0, 72, 57
1, 346108, Note_off_c, 0, 74, 62
1, 346141, Note_on_c, 0, 64, 46
1, 346141, Note_on_c, 0, 67, 57
1, 346145, Note_on_c, 0, 84, 88
1, 346151, Note_off_c, 0, 60, 0
1, 346151, Note_on_c, 0, 60, 3
1, 346163, Note_off_c, 0, 67, 62
1, 346172, Note_off_c, 0, 64, 63
1, 346183, Note_off_c, 0, 60, 59
1, 346254, Note_on_c, 0, 72, 46
1, 346353, Note_off_c, 0, 72, 33
1, 346384, Note_on_c, 0, 41, 63
1, 346384, Control_c, 0, 64, 94
1, 346399, Control_c, 0, 64, 68
1, 346401, Note_on_c, 0, 80, 84
1, 346414, Control_c, 0, 64, 0
1, 346422, Note_off_c, 0, 84, 56
1, 346442, Note_on_c, 0, 77, 50
1, 346455, Note_off_c, 0, 41, 63
1, 346458, Control_c, 0, 64, 17
1, 346473, Control_c, 0, 64, 70
1, 346488, Control_c, 0, 64, 88
1, 346503, Control_c, 0, 64, 111
1, 346511, Note_off_c, 0, 77, 59
1, 346518, Control_c, 0, 64, 127
1, 346556, Note_on_c, 0, 72, 54
1, 346561, Note_off_c, 0, 80, 61
1, 346578, Note_off_c, 0, 72, 61
1, 346625, Note_on_c, 0, 71, 63
1, 346628, Note_on_c, 0, 60, 54
1, 346638, Note_on_c, 0, 65, 46
1, 346651, Note_on_c, 0, 68, 42
1, 346651, Note_off_c, 0, 71, 69
1, 346665, Note_off_c, 0, 60, 57
1, 346676, Note_off_c, 0, 65, 61
1, 346681, Note_off_c, 0, 68, 62
1, 346716, Note_on_c, 0, 72, 67
1, 346768, Note_off_c, 0, 72, 63
1, 346790, Note_on_c, 0, 79, 80
1, 346864, Note_off_c, 0, 79, 61
1, 346985, Control_c, 0, 64, 87
1, 347000, Control_c, 0, 64, 58
1, 347003, Note_on_c, 0, 80, 77
1, 347009, Note_on_c, 0, 34, 57
1, 347015, Control_c, 0, 64, 0
1, 347016, Note_on_c, 0, 72, 65
1, 347045, Control_c, 0, 64, 54
1, 347046, Note_off_c, 0, 72, 64
1, 347047, Note_off_c, 0, 34, 63
1, 347059, Control_c, 0, 64, 73
1, 347074, Control_c, 0, 64, 90
1, 347084, Note_off_c, 0, 80, 63
1, 347089, Control_c, 0, 64, 116
1, 347104, Control_c, 0, 64, 127
1, 347126, Note_on_c, 0, 68, 39
1, 347156, Note_off_c, 0, 68, 55
1, 347234, Note_on_c, 0, 82, 75
1, 347252, Note_on_c, 0, 56, 51
1, 347255, Note_on_c, 0, 74, 56
1, 347265, Note_on_c, 0, 53, 45
1, 347277, Note_off_c, 0, 74, 63
1, 347289, Note_off_c, 0, 82, 65
1, 347290, Note_on_c, 0, 58, 37
1, 347307, Poly_aftertouch_c, 0, 62, 127
1, 347496, Note_off_c, 0, 53, 53
1, 347513, Note_on_c, 0, 92, 67
1, 347528, Note_on_c, 0, 86, 54
1, 347531, Poly_aftertouch_c, 0, 62, 0
1, 347554, Note_off_c, 0, 56, 60
1, 347567, Note_off_c, 0, 58, 44
1, 347576, Note_off_c, 0, 86, 54
1, 347602, Note_off_c, 0, 92, 57
1, 347695, Poly_aftertouch_c, 0, 80, 127
1, 347734, Poly_aftertouch_c, 0, 80, 0
1, 347838, Control_c, 0, 64, 90
1, 347851, Note_on_c, 0, 39, 47
1, 347853, Control_c, 0, 64, 68
1, 347861, Note_on_c, 0, 87, 55
1, 347865, Note_on_c, 0, 46, 36
1, 347867, Note_on_c, 0, 91, 54
1, 347868, Control_c, 0, 64, 0
1, 347898, Control_c, 0, 64, 48
1, 347899, Note_off_c, 0, 91, 0
1, 347899, Note_on_c, 0, 91, 16
1, 347910, Note_off_c, 0, 46, 59
1, 347912, Control_c, 0, 64, 70
1, 347920, Note_off_c, 0, 39, 57
1, 347927, Control_c, 0, 64, 85
1, 347942, Control_c, 0, 64, 106
1, 347948, Note_off_c, 0, 91, 62
1, 347957, Control_c, 0, 64, 127
1, 347971, Note_off_c, 0, 87, 64
1, 348199, Note_on_c, 0, 87, 69
1, 348199, Note_on_c, 0, 55, 35
1, 348202, Note_on_c, 0, 67, 44
1, 348220, Note_on_c, 0, 63, 26
1, 348222, Note_on_c, 0, 79, 50
1, 348232, Note_off_c, 0, 67, 53
1, 348233, Note_off_c, 0, 55, 48
1, 348260, Note_off_c, 0, 63, 48
1, 348282, Note_off_c, 0, 87, 57
1, 348317, Note_off_c, 0, 79, 60
1, 348348, Note_on_c, 0, 75, 46
1, 348366, Note_on_c, 0, 72, 61
1, 348374, Note_off_c, 0, 75, 57
1, 348388, Note_off_c, 0, 72, 64
1, 348416, Note_on_c, 0, 74, 73
1, 348458, Note_on_c, 0, 72, 65
1, 348476, Note_off_c, 0, 74, 60
1, 348504, Note_off_c, 0, 72, 48
1, 348554, Note_on_c, 0, 70, 68
1, 348651, Note_off_c, 0, 70, 60
1, 348654, Note_on_c, 0, 75, 64
1, 348657, Note_on_c, 0, 68, 63
1, 348661, Control_c, 0, 64, 95
1, 348676, Control_c, 0, 64, 80
1, 348691, Control_c, 0, 64, 68
1, 348705, Control_c, 0, 64, 46
1, 348720, Control_c, 0, 64, 0
1, 348750, Note_off_c, 0, 68, 57
1, 348770, Note_on_c, 0, 67, 55
1, 348810, Control_c, 0, 64, 59
1, 348824, Control_c, 0, 64, 70
1, 348839, Control_c, 0, 64, 81
1, 348851, Note_on_c, 0, 65, 56
1, 348854, Control_c, 0, 64, 89
1, 348869, Control_c, 0, 64, 96
1, 348869, Note_off_c, 0, 67, 58
1, 348884, Control_c, 0, 64, 101
1, 348898, Control_c, 0, 64, 106
1, 348908, Note_off_c, 0, 75, 60
1, 348913, Control_c, 0, 64, 112
1, 348929, Control_c, 0, 64, 121
1, 348946, Note_off_c, 0, 65, 37
1, 348951, Control_c, 0, 64, 127
1, 348977, Note_on_c, 0, 63, 58
1, 349047, Note_off_c, 0, 63, 58
1, 349108, Note_on_c, 0, 58, 47
1, 349221, Note_off_c, 0, 58, 37
1, 349240, Note_on_c, 0, 51, 38
1, 349278, Note_off_c, 0, 51, 52
1, 349480, Note_on_c, 0, 44, 42
1, 349526, Note_on_c, 0, 84, 71
1, 349527, Control_c, 0, 64, 111
1, 349542, Control_c, 0, 64, 83
1, 349552, Note_on_c, 0, 80, 49
1, 349557, Control_c, 0, 64, 65
1, 349571, Control_c, 0, 64, 0
1, 349601, Control_c, 0, 64, 60
1, 349616, Control_c, 0, 64, 71
1, 349631, Control_c, 0, 64, 81
1, 349645, Control_c, 0, 64, 92
1, 349660, Control_c, 0, 64, 98
1, 349675, Control_c, 0, 64, 100
1, 349692, Note_off_c, 0, 44, 38
1, 349698, Control_c, 0, 64, 103
1, 349700, Note_on_c, 0, 51, 52
1, 349713, Control_c, 0, 64, 108
1, 349725, Note_off_c, 0, 80, 38
1, 349728, Control_c, 0, 64, 115
1, 349743, Control_c, 0, 64, 126
1, 349758, Control_c, 0, 64, 127
1, 349764, Note_off_c, 0, 84, 31
1, 349829, Note_on_c, 0, 56, 62
1, 349829, Note_off_c, 0, 51, 55
1, 349844, Note_on_c, 0, 75, 54
1, 349850, Note_on_c, 0, 82, 65
1, 349875, Note_off_c, 0, 75, 56
1, 349881, Note_off_c, 0, 82, 62
1, 349890, Note_off_c, 0, 56, 62
1, 349921, Note_on_c, 0, 84, 60
1, 349925, Note_on_c, 0, 59, 59
1, 349969, Note_on_c, 0, 82, 67
1, 349972, Note_off_c, 0, 59, 51
1, 349982, Note_off_c, 0, 84, 58
1, 350026, Note_on_c, 0, 60, 62
1, 350032, Note_on_c, 0, 80, 69
1, 350041, Note_on_c, 0, 72, 64
1, 350047, Note_off_c, 0, 82, 56
1, 350065, Note_off_c, 0, 80, 58
1, 350071, Note_off_c, 0, 72, 65
1, 350108, Note_off_c, 0, 60, 58
1, 350131, Note_on_c, 0, 61, 69
1, 350192, Note_off_c, 0, 61, 60
1, 350232, Control_c, 0, 64, 93
1, 350241, Note_on_c, 0, 62, 68
1, 350241, Note_on_c, 0, 78, 75
1, 350247, Note_on_c, 0, 74, 70
1, 350247, Control_c, 0, 64, 74
1, 350261, Control_c, 0, 64, 61
1, 350276, Control_c, 0, 64, 63
1, 350291, Control_c, 0, 64, 71
1, 350306, Control_c, 0, 64, 83
1, 350321, Control_c, 0, 64, 100
1, 350327, Note_off_c, 0, 74, 60
1, 350335, Control_c, 0, 64, 127
1, 350337, Note_on_c, 0, 63, 69
1, 350339, Note_off_c, 0, 62, 54
1, 350387, Note_off_c, 0, 78, 37
1, 350436, Note_on_c, 0, 64, 73
1, 350447, Note_off_c, 0, 63, 39
1, 350451, Note_on_c, 0, 76, 64
1, 350461, Control_c, 0, 64, 88
1, 350463, Note_on_c, 0, 72, 55
1, 350476, Control_c, 0, 64, 67
1, 350479, Note_off_c, 0, 76, 50
1, 350491, Control_c, 0, 64, 24
1, 350494, Note_off_c, 0, 72, 51
1, 350497, Note_off_c, 0, 64, 65
1, 350505, Note_on_c, 0, 78, 76
1, 350506, Control_c, 0, 64, 59
1, 350521, Control_c, 0, 64, 74
1, 350535, Note_on_c, 0, 65, 63
1, 350536, Control_c, 0, 64, 98
1, 350551, Control_c, 0, 64, 127
1, 350553, Note_on_c, 0, 76, 61
1, 350590, Note_off_c, 0, 78, 62
1, 350591, Note_off_c, 0, 76, 61
1, 350601, Note_on_c, 0, 74, 75
1, 350611, Control_c, 0, 64, 81
1, 350625, Control_c, 0, 64, 17
1, 350636, Note_on_c, 0, 66, 70
1, 350640, Control_c, 0, 64, 0
1, 350646, Note_off_c, 0, 65, 59
1, 350657, Note_on_c, 0, 69, 37
1, 350667, Note_off_c, 0, 66, 64
1, 350670, Control_c, 0, 64, 72
1, 350674, Note_off_c, 0, 74, 67
1, 350685, Control_c, 0, 64, 99
1, 350691, Note_off_c, 0, 69, 32
1, 350700, Control_c, 0, 64, 127
1, 350844, Note_on_c, 0, 82, 79
1, 350848, Control_c, 0, 64, 97
1, 350849, Note_on_c, 0, 43, 69
1, 350863, Control_c, 0, 64, 69
1, 350864, Note_on_c, 0, 73, 73
1, 350878, Control_c, 0, 64, 0
1, 350892, Control_c, 0, 64, 47
1, 350907, Control_c, 0, 64, 69
1, 350922, Control_c, 0, 64, 87
1, 350937, Control_c, 0, 64, 127
1, 350947, Note_off_c, 0, 82, 59
1, 350950, Note_off_c, 0, 73, 59
1, 350955, Note_off_c, 0, 43, 62
1, 350962, Note_on_c, 0, 50, 74
1, 351045, Note_on_c, 0, 74, 75
1, 351048, Note_off_c, 0, 50, 62
1, 351049, Note_on_c, 0, 54, 76
1, 351064, Note_on_c, 0, 81, 74
1, 351074, Note_off_c, 0, 74, 66
1, 351103, Note_off_c, 0, 54, 64
1, 351110, Note_on_c, 0, 82, 86
1, 351111, Note_off_c, 0, 81, 62
1, 351122, Note_on_c, 0, 55, 73
1, 351161, Note_off_c, 0, 82, 63
1, 351163, Note_on_c, 0, 81, 78
1, 351171, Note_off_c, 0, 55, 62
1, 351224, Note_on_c, 0, 57, 73
1, 351232, Note_on_c, 0, 79, 84
1, 351232, Note_off_c, 0, 81, 65
1, 351269, Note_off_c, 0, 79, 60
1, 351302, Note_off_c, 0, 57, 60
1, 351313, Note_on_c, 0, 58, 82
1, 351367, Note_off_c, 0, 58, 64
1, 351389, Control_c, 0, 64, 92
1, 351402, Note_on_c, 0, 48, 87
1, 351404, Control_c, 0, 64, 62
1, 351419, Control_c, 0, 64, 0
1, 351448, Control_c, 0, 64, 65
1, 351463, Control_c, 0, 64, 81
1, 351465, Note_off_c, 0, 48, 66
1, 351466, Note_on_c, 0, 58, 79
1, 351478, Control_c, 0, 64, 121
1, 351493, Control_c, 0, 64, 127
1, 351525, Note_on_c, 0, 63, 85
1, 351538, Note_off_c, 0, 58, 58
1, 351560, Note_on_c, 0, 64, 85
1, 351591, Note_off_c, 0, 63, 57
1, 351598, Note_on_c, 0, 68, 85
1, 351621, Note_off_c, 0, 64, 66
1, 351645, Note_on_c, 0, 72, 82
1, 351646, Note_off_c, 0, 68, 67
1, 351670, Note_off_c, 0, 72, 66
1, 351715, Note_on_c, 0, 74, 73
1, 351725, Note_on_c, 0, 76, 80
1, 351763, Note_on_c, 0, 80, 80
1, 351767, Note_off_c, 0, 76, 0
1, 351767, Note_on_c, 0, 76, 33
1, 351774, Note_off_c, 0, 74, 64
1, 351800, Note_off_c, 0, 76, 55
1, 351808, Note_off_c, 0, 80, 60
1, 351826, Note_on_c, 0, 84, 47
1, 351850, Note_off_c, 0, 84, 59
1, 351945, Control_c, 0, 64, 79
1, 351954, Note_on_c, 0, 29, 90
1, 351959, Note_on_c, 0, 84, 65
1, 351960, Control_c, 0, 64, 0
1, 351962, Note_on_c, 0, 92, 96
1, 351967, Note_on_c, 0, 80, 93
1, 351984, Note_off_c, 0, 29, 67
1, 352004, Control_c, 0, 64, 68
1, 352019, Control_c, 0, 64, 91
1, 352023, Note_off_c, 0, 84, 64
1, 352024, Note_off_c, 0, 92, 66
1, 352034, Control_c, 0, 64, 127
1, 352050, Note_off_c, 0, 80, 60
1, 352186, Note_on_c, 0, 60, 75
1, 352190, Note_on_c, 0, 65, 75
1, 352191, Note_on_c, 0, 79, 82
1, 352192, Note_on_c, 0, 56, 72
1, 352224, Note_off_c, 0, 65, 58
1, 352235, Note_on_c, 0, 80, 83
1, 352236, Note_off_c, 0, 79, 62
1, 352247, Note_off_c, 0, 60, 59
1, 352285, Note_off_c, 0, 80, 64
1, 352286, Note_off_c, 0, 56, 59
1, 352288, Note_on_c, 0, 79, 85
1, 352333, Note_off_c, 0, 79, 64
1, 352355, Note_on_c, 0, 77, 88
1, 352369, Note_on_c, 0, 89, 88
1, 352387, Note_off_c, 0, 89, 67
1, 352418, Note_off_c, 0, 77, 49
1, 352523, Control_c, 0, 64, 124
1, 352537, Control_c, 0, 64, 74
1, 352552, Control_c, 0, 64, 0
1, 352561, Note_on_c, 0, 34, 93
1, 352569, Note_on_c, 0, 86, 94
1, 352571, Note_on_c, 0, 74, 98
1, 352574, Note_on_c, 0, 78, 86
1, 352596, Control_c, 0, 64, 68
1, 352604, Note_off_c, 0, 34, 60
1, 352611, Control_c, 0, 64, 102
1, 352613, Note_off_c, 0, 86, 65
1, 352618, Note_off_c, 0, 78, 60
1, 352625, Note_off_c, 0, 74, 55
1, 352626, Control_c, 0, 64, 127
1, 352776, Note_on_c, 0, 61, 12
1, 352781, Note_on_c, 0, 72, 79
1, 352819, Note_off_c, 0, 72, 57
1, 352825, Note_on_c, 0, 74, 90
1, 352829, Note_off_c, 0, 61, 47
1, 352858, Poly_aftertouch_c, 0, 64, 127
1, 352871, Note_off_c, 0, 74, 63
1, 352878, Note_on_c, 0, 72, 78
1, 352895, Poly_aftertouch_c, 0, 64, 0
1, 352896, Poly_aftertouch_c, 0, 65, 0
1, 352903, Poly_aftertouch_c, 0, 56, 0
1, 352919, Note_off_c, 0, 72, 56
1, 352963, Note_on_c, 0, 82, 100
1, 352967, Note_on_c, 0, 70, 94
1, 353006, Note_off_c, 0, 70, 64
1, 353012, Note_off_c, 0, 82, 67
1, 353189, Note_on_c, 0, 39, 81
1, 353192, Note_on_c, 0, 51, 77
1, 353212, Control_c, 0, 64, 77
1, 353227, Control_c, 0, 64, 0
1, 353244, Note_on_c, 0, 79, 100
1, 353254, Note_off_c, 0, 39, 62
1, 353255, Note_on_c, 0, 73, 81
1, 353257, Note_on_c, 0, 67, 79
1, 353265, Note_off_c, 0, 51, 62
1, 353272, Control_c, 0, 64, 55
1, 353282, Note_off_c, 0, 67, 62
1, 353286, Control_c, 0, 64, 79
1, 353301, Control_c, 0, 64, 106
1, 353316, Control_c, 0, 64, 127
1, 353373, Note_off_c, 0, 79, 59
1, 353389, Note_off_c, 0, 73, 60
1, 353472, Note_on_c, 0, 55, 68
1, 353490, Note_on_c, 0, 65, 62
1, 353499, Note_on_c, 0, 61, 57
1, 353504, Note_off_c, 0, 55, 66
1, 353521, Note_off_c, 0, 65, 67
1, 353527, Note_off_c, 0, 61, 64
1, 353660, Note_on_c, 0, 74, 63
1, 353688, Note_on_c, 0, 72, 38
1, 353700, Note_on_c, 0, 75, 68
1, 353705, Note_off_c, 0, 74, 64
1, 353722, Note_off_c, 0, 72, 32
1, 353723, Note_off_c, 0, 75, 68
1, 353724, Note_on_c, 0, 77, 49
1, 353748, Note_on_c, 0, 76, 46
1, 353748, Note_off_c, 0, 77, 62
1, 353763, Note_on_c, 0, 75, 86
1, 353773, Note_on_c, 0, 63, 74
1, 353776, Note_off_c, 0, 76, 59
1, 353797, Note_off_c, 0, 63, 67
1, 353805, Note_off_c, 0, 75, 63
1, 354095, Control_c, 0, 64, 107
1, 354110, Control_c, 0, 64, 70
1, 354125, Control_c, 0, 64, 0
1, 354131, Note_on_c, 0, 32, 85
1, 354154, Note_on_c, 0, 60, 72
1, 354169, Control_c, 0, 64, 56
1, 354191, Control_c, 0, 64, 74
1, 354206, Control_c, 0, 64, 90
1, 354210, Note_off_c, 0, 32, 63
1, 354221, Control_c, 0, 64, 113
1, 354235, Control_c, 0, 64, 127
1, 354256, Note_off_c, 0, 60, 57
1, 354301, Note_on_c, 0, 63, 79
1, 354390, Note_on_c, 0, 60, 77
1, 354396, Note_on_c, 0, 68, 79
1, 354399, Note_on_c, 0, 56, 81
1, 354410, Note_on_c, 0, 51, 73
1, 354422, Note_off_c, 0, 60, 67
1, 354429, Note_off_c, 0, 63, 63
1, 354437, Note_off_c, 0, 68, 61
1, 354450, Note_off_c, 0, 56, 62
1, 354473, Note_off_c, 0, 51, 64
1, 354485, Note_on_c, 0, 72, 74
1, 354542, Note_off_c, 0, 72, 63
1, 354575, Note_on_c, 0, 75, 90
1, 354664, Note_off_c, 0, 75, 57
1, 354667, Note_on_c, 0, 80, 88
1, 354709, Note_off_c, 0, 80, 66
1, 354784, Control_c, 0, 64, 113
1, 354799, Control_c, 0, 64, 70
1, 354810, Note_on_c, 0, 43, 100
1, 354811, Note_on_c, 0, 31, 90
1, 354814, Control_c, 0, 64, 0
1, 354818, Note_on_c, 0, 91, 100
1, 354819, Note_on_c, 0, 83, 91
1, 354822, Note_on_c, 0, 79, 93
1, 354825, Note_on_c, 0, 87, 85
1, 354868, Note_off_c, 0, 31, 64
1, 354873, Control_c, 0, 64, 70
1, 354888, Control_c, 0, 64, 87
1, 354903, Note_off_c, 0, 43, 65
1, 354903, Control_c, 0, 64, 107
1, 354918, Control_c, 0, 64, 127
1, 355058, Note_off_c, 0, 79, 59
1, 355071, Note_off_c, 0, 91, 62
1, 355079, Note_on_c, 0, 55, 73
1, 355086, Note_off_c, 0, 83, 63
1, 355089, Note_on_c, 0, 65, 72
1, 355098, Note_on_c, 0, 59, 63
1, 355099, Note_on_c, 0, 63, 63
1, 355102, Note_off_c, 0, 87, 65
1, 355105, Note_off_c, 0, 55, 67
1, 355125, Note_off_c, 0, 59, 64
1, 355131, Note_off_c, 0, 63, 63
1, 355138, Note_off_c, 0, 65, 59
1, 355254, Note_on_c, 0, 74, 61
1, 355270, Note_on_c, 0, 72, 48
1, 355279, Note_on_c, 0, 75, 81
1, 355284, Note_off_c, 0, 74, 68
1, 355295, Note_off_c, 0, 72, 59
1, 355299, Note_on_c, 0, 77, 79
1, 355320, Note_off_c, 0, 77, 72
1, 355322, Note_off_c, 0, 75, 65
1, 355338, Note_on_c, 0, 87, 84
1, 355338, Note_on_c, 0, 75, 80
1, 355375, Note_off_c, 0, 75, 66
1, 355375, Note_off_c, 0, 87, 65
1, 355704, Control_c, 0, 64, 98
1, 355719, Control_c, 0, 64, 75
1, 355734, Control_c, 0, 64, 47
1, 355748, Control_c, 0, 64, 0
1, 355770, Note_on_c, 0, 32, 83
1, 355795, Note_on_c, 0, 60, 72
1, 355851, Control_c, 0, 64, 66
1, 355860, Note_off_c, 0, 32, 63
1, 355866, Control_c, 0, 64, 88
1, 355880, Control_c, 0, 64, 124
1, 355889, Note_off_c, 0, 60, 59
1, 355895, Control_c, 0, 64, 127
1, 355939, Note_on_c, 0, 63, 82
1, 356041, Note_off_c, 0, 63, 0
1, 356046, Note_on_c, 0, 68, 77
1, 356052, Note_on_c, 0, 63, 72
1, 356053, Note_on_c, 0, 60, 68
1, 356058, Note_on_c, 0, 56, 80
1, 356069, Note_off_c, 0, 68, 69
1, 356070, Note_on_c, 0, 51, 72
1, 356100, Note_off_c, 0, 60, 63
1, 356101, Note_off_c, 0, 63, 62
1, 356114, Note_off_c, 0, 56, 62
1, 356143, Note_off_c, 0, 51, 63
1, 356148, Note_on_c, 0, 72, 80
1, 356219, Note_off_c, 0, 72, 61
1, 356256, Note_on_c, 0, 75, 88
1, 356352, Note_on_c, 0, 80, 90
1, 356358, Note_off_c, 0, 75, 60
1, 356405, Note_off_c, 0, 80, 64
1, 356497, Control_c, 0, 64, 92
1, 356511, Control_c, 0, 64, 59
1, 356519, Note_on_c, 0, 43, 95
1, 356520, Note_on_c, 0, 31, 91
1, 356526, Control_c, 0, 64, 0
1, 356527, Note_on_c, 0, 91, 105
1, 356529, Note_on_c, 0, 83, 89
1, 356530, Note_on_c, 0, 79, 93
1, 356531, Note_on_c, 0, 87, 84
1, 356571, Control_c, 0, 64, 65
1, 356575, Note_off_c, 0, 31, 64
1, 356586, Control_c, 0, 64, 82
1, 356601, Control_c, 0, 64, 104
1, 356603, Note_off_c, 0, 43, 66
1, 356616, Control_c, 0, 64, 127
1, 356827, Note_on_c, 0, 55, 80
1, 356830, Note_on_c, 0, 65, 89
1, 356838, Note_on_c, 0, 63, 81
1, 356841, Note_on_c, 0, 59, 72
1, 356849, Note_off_c, 0, 91, 63
1, 356849, Note_off_c, 0, 79, 60
1, 356861, Note_off_c, 0, 55, 63
1, 356865, Note_off_c, 0, 83, 64
1, 356867, Note_off_c, 0, 59, 66
1, 356876, Note_off_c, 0, 87, 63
1, 356880, Note_off_c, 0, 65, 64
1, 356887, Note_off_c, 0, 63, 63
1, 357024, Note_on_c, 0, 74, 80
1, 357063, Note_on_c, 0, 75, 83
1, 357088, Note_off_c, 0, 74, 63
1, 357091, Note_on_c, 0, 77, 85
1, 357116, Note_off_c, 0, 75, 65
1, 357126, Note_off_c, 0, 77, 63
1, 357141, Note_on_c, 0, 75, 86
1, 357144, Note_on_c, 0, 87, 90
1, 357165, Note_off_c, 0, 87, 70
1, 357191, Note_off_c, 0, 75, 66
1, 357454, Control_c, 0, 64, 83
1, 357468, Control_c, 0, 64, 0
1, 357475, Note_on_c, 0, 32, 94
1, 357486, Note_on_c, 0, 65, 93
1, 357512, Control_c, 0, 64, 43
1, 357525, Note_off_c, 0, 32, 66
1, 357527, Control_c, 0, 64, 74
1, 357542, Control_c, 0, 64, 97
1, 357557, Control_c, 0, 64, 127
1, 357569, Note_off_c, 0, 65, 61
1, 357603, Note_on_c, 0, 72, 73
1, 357642, Note_on_c, 0, 75, 72
1, 357650, Note_off_c, 0, 72, 63
1, 357693, Note_off_c, 0, 75, 62
1, 357717, Note_on_c, 0, 56, 89
1, 357720, Note_on_c, 0, 65, 89
1, 357727, Note_on_c, 0, 71, 86
1, 357729, Note_on_c, 0, 63, 76
1, 357771, Note_off_c, 0, 56, 59
1, 357771, Note_off_c, 0, 65, 59
1, 357780, Note_on_c, 0, 75, 76
1, 357806, Note_off_c, 0, 71, 60
1, 357826, Note_off_c, 0, 63, 38
1, 357842, Note_on_c, 0, 80, 66
1, 357854, Note_off_c, 0, 75, 65
1, 357871, Note_off_c, 0, 80, 55
1, 357877, Note_on_c, 0, 81, 39
1, 357904, Note_off_c, 0, 81, 55
1, 357911, Note_on_c, 0, 65, 77
1, 357912, Note_on_c, 0, 57, 88
1, 357913, Note_on_c, 0, 63, 85
1, 357913, Control_c, 0, 64, 111
1, 357931, Note_on_c, 0, 77, 88
1, 357935, Note_off_c, 0, 65, 74
1, 357941, Note_off_c, 0, 63, 68
1, 357950, Control_c, 0, 64, 127
1, 357955, Note_on_c, 0, 79, 63
1, 357963, Note_off_c, 0, 57, 66
1, 357987, Note_on_c, 0, 84, 73
1, 357990, Note_off_c, 0, 79, 47
1, 358001, Note_off_c, 0, 77, 60
1, 358026, Note_on_c, 0, 87, 85
1, 358036, Note_off_c, 0, 84, 65
1, 358045, Note_off_c, 0, 87, 71
1, 358069, Control_c, 0, 64, 102
1, 358083, Control_c, 0, 64, 66
1, 358098, Control_c, 0, 64, 0
1, 358105, Note_on_c, 0, 91, 97
1, 358106, Note_on_c, 0, 86, 91
1, 358107, Note_on_c, 0, 79, 94
1, 358108, Note_on_c, 0, 46, 107
1, 358112, Note_on_c, 0, 34, 96
1, 358136, Note_off_c, 0, 86, 67
1, 358137, Note_off_c, 0, 34, 68
1, 358141, Note_off_c, 0, 79, 64
1, 358142, Note_off_c, 0, 91, 65
1, 358143, Control_c, 0, 64, 60
1, 358145, Note_off_c, 0, 46, 64
1, 358158, Control_c, 0, 64, 91
1, 358173, Control_c, 0, 64, 127
1, 358322, Note_on_c, 0, 55, 68
1, 358326, Note_on_c, 0, 67, 72
1, 358327, Note_on_c, 0, 75, 103
1, 358329, Note_on_c, 0, 58, 62
1, 358329, Note_on_c, 0, 87, 100
1, 358332, Note_on_c, 0, 63, 66
1, 358347, Note_off_c, 0, 55, 63
1, 358349, Note_off_c, 0, 58, 66
1, 358361, Note_off_c, 0, 63, 67
1, 358363, Note_off_c, 0, 67, 59
1, 358365, Note_off_c, 0, 87, 68
1, 358367, Note_off_c, 0, 75, 67
1, 358470, Note_on_c, 0, 71, 78
1, 358489, Note_on_c, 0, 72, 76
1, 358491, Note_on_c, 0, 74, 74
1, 358507, Note_off_c, 0, 74, 68
1, 358511, Note_off_c, 0, 72, 70
1, 358517, Note_off_c, 0, 71, 64
1, 358551, Note_on_c, 0, 72, 95
1, 358554, Note_on_c, 0, 84, 98
1, 358572, Note_off_c, 0, 84, 67
1, 358582, Note_off_c, 0, 72, 69
1, 358694, Note_on_c, 0, 73, 45
1, 358728, Note_off_c, 0, 73, 54
1, 358803, Control_c, 0, 64, 83
1, 358817, Note_on_c, 0, 34, 92
1, 358818, Control_c, 0, 64, 0
1, 358823, Note_on_c, 0, 80, 92
1, 358827, Note_on_c, 0, 68, 92
1, 358827, Note_on_c, 0, 72, 79
1, 358869, Note_off_c, 0, 34, 64
1, 358877, Control_c, 0, 64, 69
1, 358892, Control_c, 0, 64, 85
1, 358906, Note_off_c, 0, 68, 59
1, 358906, Control_c, 0, 64, 117
1, 358909, Note_off_c, 0, 72, 64
1, 358921, Control_c, 0, 64, 127
1, 359008, Note_off_c, 0, 80, 61
1, 359118, Note_on_c, 0, 82, 106
1, 359127, Note_on_c, 0, 70, 90
1, 359129, Note_on_c, 0, 62, 78
1, 359129, Control_c, 0, 64, 101
1, 359133, Note_on_c, 0, 53, 76
1, 359136, Note_on_c, 0, 56, 70
1, 359139, Note_on_c, 0, 83, 82
1, 359142, Note_on_c, 0, 58, 70
1, 359142, Note_on_c, 0, 74, 63
1, 359144, Control_c, 0, 64, 69
1, 359158, Control_c, 0, 64, 0
1, 359173, Control_c, 0, 64, 58
1, 359184, Note_off_c, 0, 83, 0
1, 359184, Note_on_c, 0, 83, 27
1, 359188, Control_c, 0, 64, 73
1, 359193, Note_off_c, 0, 74, 0
1, 359193, Note_on_c, 0, 74, 30
1, 359203, Control_c, 0, 64, 113
1, 359218, Control_c, 0, 64, 127
1, 359220, Note_off_c, 0, 83, 46
1, 359254, Note_off_c, 0, 62, 55
1, 359286, Note_off_c, 0, 53, 50
1, 359329, Note_off_c, 0, 56, 56
1, 359335, Note_off_c, 0, 58, 38
1, 359387, Note_off_c, 0, 82, 57
1, 359392, Note_off_c, 0, 70, 57
1, 359490, Note_off_c, 0, 74, 57
1, 359509, Note_on_c, 0, 68, 92
1, 359509, Note_on_c, 0, 80, 91
1, 359546, Note_off_c, 0, 68, 63
1, 359546, Note_off_c, 0, 80, 65
1, 359581, Note_on_c, 0, 39, 88
1, 359596, Control_c, 0, 64, 80
1, 359602, Note_on_c, 0, 79, 98
1, 359606, Note_on_c, 0, 67, 89
1, 359611, Note_on_c, 0, 70, 78
1, 359611, Control_c, 0, 64, 0
1, 359633, Note_off_c, 0, 70, 64
1, 359669, Note_off_c, 0, 79, 58
1, 359670, Control_c, 0, 64, 66
1, 359681, Note_off_c, 0, 67, 55
1, 359685, Control_c, 0, 64, 87
1, 359688, Note_off_c, 0, 39, 58
1, 359690, Poly_aftertouch_c, 0, 70, 0
1, 359694, Note_on_c, 0, 46, 69
1, 359699, Control_c, 0, 64, 127
1, 359753, Note_off_c, 0, 46, 63
1, 359789, Note_on_c, 0, 55, 66
1, 359824, Note_off_c, 0, 55, 63
1, 359868, Note_on_c, 0, 75, 89
1, 359872, Note_on_c, 0, 54, 74
1, 359875, Note_on_c, 0, 63, 78
1, 359876, Note_on_c, 0, 67, 71
1, 359899, Note_off_c, 0, 67, 67
1, 359908, Note_off_c, 0, 63, 59
1, 359929, Note_on_c, 0, 55, 60
1, 359936, Note_off_c, 0, 54, 62
1, 359936, Note_off_c, 0, 75, 60
1, 359978, Note_off_c, 0, 55, 63
1, 359994, Note_on_c, 0, 58, 82
1, 360075, Note_off_c, 0, 58, 59
1, 360081, Note_on_c, 0, 57, 69
1, 360147, Note_on_c, 0, 58, 81
1, 360165, Note_off_c, 0, 57, 60
1, 360221, Note_off_c, 0, 58, 64
1, 360234, Note_on_c, 0, 59, 69
1, 360253, Note_off_c, 0, 59, 64
1, 360404, Control_c, 0, 64, 90
1, 360419, Control_c, 0, 64, 61
1, 360434, Control_c, 0, 64, 0
1, 360436, Note_on_c, 0, 32, 77
1, 360465, Note_on_c, 0, 60, 72
1, 360478, Control_c, 0, 64, 60
1, 360492, Note_off_c, 0, 32, 63
1, 360493, Control_c, 0, 64, 73
1, 360508, Control_c, 0, 64, 86
1, 360522, Control_c, 0, 64, 106
1, 360537, Control_c, 0, 64, 127
1, 360551, Note_off_c, 0, 60, 54
1, 360569, Note_on_c, 0, 63, 76
1, 360634, Note_off_c, 0, 63, 61
1, 360641, Note_on_c, 0, 68, 75
1, 360663, Note_off_c, 0, 68, 69
1, 360698, Note_on_c, 0, 60, 79
1, 360705, Note_on_c, 0, 63, 81
1, 360708, Note_on_c, 0, 56, 73
1, 360715, Note_on_c, 0, 51, 64
1, 360720, Note_on_c, 0, 72, 69
1, 360737, Note_off_c, 0, 63, 63
1, 360745, Note_on_c, 0, 71, 31
1, 360746, Note_off_c, 0, 60, 62
1, 360770, Note_on_c, 0, 75, 82
1, 360773, Note_off_c, 0, 72, 63
1, 360780, Note_off_c, 0, 71, 58
1, 360799, Note_off_c, 0, 56, 60
1, 360829, Note_on_c, 0, 80, 82
1, 360829, Note_off_c, 0, 75, 63
1, 360836, Note_off_c, 0, 51, 49
1, 360847, Note_off_c, 0, 80, 72
1, 360890, Note_on_c, 0, 83, 92
1, 360957, Note_on_c, 0, 86, 86
1, 360984, Note_off_c, 0, 83, 59
1, 361008, Note_on_c, 0, 87, 84
1, 361014, Note_off_c, 0, 86, 66
1, 361047, Note_off_c, 0, 87, 62
1, 361064, Control_c, 0, 64, 119
1, 361079, Control_c, 0, 64, 71
1, 361084, Note_on_c, 0, 87, 84
1, 361085, Note_on_c, 0, 43, 98
1, 361086, Note_on_c, 0, 91, 106
1, 361088, Note_on_c, 0, 31, 91
1, 361088, Note_on_c, 0, 79, 93
1, 361094, Control_c, 0, 64, 0
1, 361094, Note_on_c, 0, 83, 79
1, 361113, Note_on_c, 0, 33, 55
1, 361148, Note_off_c, 0, 31, 64
1, 361148, Note_off_c, 0, 33, 36
1, 361152, Control_c, 0, 64, 60
1, 361167, Control_c, 0, 64, 82
1, 361182, Control_c, 0, 64, 99
1, 361183, Note_off_c, 0, 43, 63
1, 361197, Control_c, 0, 64, 127
1, 361315, Note_off_c, 0, 79, 58
1, 361327, Note_off_c, 0, 91, 62
1, 361343, Note_off_c, 0, 83, 63
1, 361353, Note_on_c, 0, 65, 84
1, 361353, Note_off_c, 0, 87, 65
1, 361356, Note_on_c, 0, 55, 70
1, 361360, Note_on_c, 0, 63, 74
1, 361365, Note_on_c, 0, 59, 64
1, 361385, Note_off_c, 0, 55, 65
1, 361392, Note_off_c, 0, 59, 64
1, 361392, Note_off_c, 0, 63, 60
1, 361405, Note_off_c, 0, 65, 58
1, 361518, Note_on_c, 0, 74, 78
1, 361550, Note_on_c, 0, 75, 81
1, 361566, Note_on_c, 0, 77, 77
1, 361567, Note_off_c, 0, 74, 61
1, 361586, Note_off_c, 0, 75, 67
1, 361586, Note_off_c, 0, 77, 72
1, 361610, Note_on_c, 0, 87, 82
1, 361613, Note_on_c, 0, 75, 86
1, 361645, Note_off_c, 0, 87, 64
1, 361648, Note_off_c, 0, 75, 63
1, 362005, Control_c, 0, 64, 111
1, 362020, Control_c, 0, 64, 91
1, 362035, Control_c, 0, 64, 75
1, 362049, Control_c, 0, 64, 61
1, 362064, Control_c, 0, 64, 0
1, 362114, Note_on_c, 0, 32, 71
1, 362173, Note_on_c, 0, 60, 57
1, 362242, Control_c, 0, 64, 61
1, 362257, Control_c, 0, 64, 81
1, 362271, Control_c, 0, 64, 94
1, 362282, Note_off_c, 0, 32, 62
1, 362286, Control_c, 0, 64, 114
1, 362301, Control_c, 0, 64, 127
1, 362303, Note_off_c, 0, 60, 57
1, 362335, Note_on_c, 0, 63, 68
1, 362416, Note_off_c, 0, 63, 59
1, 362428, Note_on_c, 0, 68, 72
1, 362453, Note_off_c, 0, 68, 68
1, 362520, Note_on_c, 0, 72, 75
1, 362522, Note_on_c, 0, 63, 72
1, 362523, Note_on_c, 0, 60, 66
1, 362532, Note_on_c, 0, 51, 58
1, 362534, Note_on_c, 0, 56, 57
1, 362580, Note_off_c, 0, 72, 59
1, 362591, Note_on_c, 0, 75, 79
1, 362655, Note_off_c, 0, 75, 62
1, 362657, Note_on_c, 0, 80, 82
1, 362693, Note_off_c, 0, 80, 64
1, 362707, Note_off_c, 0, 63, 59
1, 362720, Note_off_c, 0, 60, 59
1, 362740, Note_on_c, 0, 84, 81
1, 362754, Note_off_c, 0, 56, 62
1, 362778, Note_off_c, 0, 51, 63
1, 362825, Note_on_c, 0, 87, 59
1, 362834, Note_on_c, 0, 86, 69
1, 362865, Note_off_c, 0, 86, 58
1, 362883, Note_on_c, 0, 96, 87
1, 362909, Note_off_c, 0, 87, 63
1, 362925, Note_off_c, 0, 84, 66
1, 362931, Note_off_c, 0, 96, 62
1, 363002, Note_on_c, 0, 31, 89
1, 363005, Note_on_c, 0, 83, 90
1, 363005, Note_on_c, 0, 95, 101
1, 363008, Note_on_c, 0, 87, 91
1, 363020, Control_c, 0, 64, 84
1, 363035, Control_c, 0, 64, 55
1, 363035, Note_on_c, 0, 84, 45
1, 363036, Note_off_c, 0, 84, 127
1, 363050, Control_c, 0, 64, 0
1, 363123, Control_c, 0, 64, 29
1, 363127, Note_off_c, 0, 31, 63
1, 363138, Control_c, 0, 64, 67
1, 363153, Control_c, 0, 64, 78
1, 363159, Note_off_c, 0, 95, 64
1, 363175, Control_c, 0, 64, 91
1, 363190, Control_c, 0, 64, 110
1, 363201, Note_off_c, 0, 87, 65
1, 363205, Control_c, 0, 64, 127
1, 363225, Note_off_c, 0, 83, 66
1, 363349, Note_on_c, 0, 53, 98
1, 363504, Note_on_c, 0, 74, 48
1, 363535, Note_off_c, 0, 74, 65
1, 363544, Note_on_c, 0, 75, 65
1, 363546, Note_on_c, 0, 77, 61
1, 363575, Note_off_c, 0, 77, 52
1, 363619, Note_off_c, 0, 75, 62
1, 363646, Note_off_c, 0, 53, 65
1, 363656, Note_on_c, 0, 63, 36
1, 363660, Note_on_c, 0, 55, 103
1, 363691, Note_off_c, 0, 63, 52
1, 363831, Note_off_c, 0, 55, 64
1, 363925, Control_c, 0, 64, 106
1, 363940, Control_c, 0, 64, 73
1, 363941, Note_on_c, 0, 56, 96
1, 363954, Control_c, 0, 64, 0
1, 363969, Note_on_c, 0, 60, 62
1, 363999, Control_c, 0, 64, 67
1, 364014, Control_c, 0, 64, 83
1, 364028, Control_c, 0, 64, 107
1, 364036, Note_off_c, 0, 60, 61
1, 364039, Note_on_c, 0, 63, 76
1, 364043, Control_c, 0, 64, 127
1, 364108, Note_off_c, 0, 56, 61
1, 364114, Note_on_c, 0, 65, 74
1, 364124, Note_off_c, 0, 63, 58
1, 364176, Note_off_c, 0, 65, 64
1, 364176, Note_on_c, 0, 68, 70
1, 364187, Note_on_c, 0, 53, 94
1, 364211, Note_off_c, 0, 68, 62
1, 364270, Note_on_c, 0, 72, 72
1, 364328, Note_off_c, 0, 72, 57
1, 364337, Note_on_c, 0, 75, 78
1, 364372, Note_off_c, 0, 53, 61
1, 364399, Note_on_c, 0, 51, 90
1, 364402, Note_on_c, 0, 77, 74
1, 364405, Note_off_c, 0, 75, 61
1, 364469, Note_on_c, 0, 79, 83
1, 364475, Note_off_c, 0, 77, 60
1, 364531, Note_off_c, 0, 79, 65
1, 364538, Note_on_c, 0, 80, 78
1, 364576, Note_off_c, 0, 51, 58
1, 364577, Control_c, 0, 64, 78
1, 364587, Note_off_c, 0, 80, 61
1, 364591, Note_on_c, 0, 46, 85
1, 364592, Control_c, 0, 64, 0
1, 364597, Note_on_c, 0, 55, 91
1, 364674, Control_c, 0, 64, 66
1, 364689, Control_c, 0, 64, 83
1, 364696, Note_off_c, 0, 46, 61
1, 364703, Control_c, 0, 64, 113
1, 364711, Note_off_c, 0, 55, 65
1, 364718, Control_c, 0, 64, 127
1, 364791, Note_on_c, 0, 82, 98
1, 364793, Note_on_c, 0, 70, 90
1, 364799, Note_on_c, 0, 75, 80
1, 364802, Note_on_c, 0, 63, 85
1, 364941, Note_off_c, 0, 63, 29
1, 364976, Note_off_c, 0, 70, 58
1, 365002, Note_off_c, 0, 75, 38
1, 365002, Note_off_c, 0, 82, 52
1, 365229, Note_on_c, 0, 65, 85
1, 365231, Note_on_c, 0, 55, 78
1, 365235, Note_on_c, 0, 61, 80
1, 365241, Note_on_c, 0, 59, 71
1, 365251, Note_off_c, 0, 65, 70
1, 365255, Note_on_c, 0, 83, 95
1, 365257, Note_on_c, 0, 71, 93
1, 365263, Note_on_c, 0, 77, 85
1, 365264, Note_on_c, 0, 75, 82
1, 365270, Note_off_c, 0, 59, 64
1, 365278, Note_off_c, 0, 61, 59
1, 365285, Note_off_c, 0, 55, 66
1, 365324, Note_off_c, 0, 77, 62
1, 365352, Note_off_c, 0, 71, 55
1, 365413, Note_off_c, 0, 75, 57
1, 365474, Note_off_c, 0, 83, 55
1, 365485, Note_on_c, 0, 44, 91
1, 365493, Note_on_c, 0, 51, 87
1, 365512, Control_c, 0, 64, 89
1, 365526, Control_c, 0, 64, 63
1, 365535, Note_off_c, 0, 44, 64
1, 365541, Control_c, 0, 64, 0
1, 365548, Note_off_c, 0, 51, 65
1, 365556, Control_c, 0, 64, 39
1, 365571, Control_c, 0, 64, 68
1, 365583, Note_on_c, 0, 72, 96
1, 365583, Note_on_c, 0, 79, 89
1, 365584, Note_on_c, 0, 84, 90
1, 365586, Control_c, 0, 64, 88
1, 365592, Note_on_c, 0, 60, 90
1, 365599, Note_on_c, 0, 56, 72
1, 365600, Control_c, 0, 64, 127
1, 365623, Note_off_c, 0, 56, 67
1, 365634, Note_off_c, 0, 72, 61
1, 365637, Note_off_c, 0, 60, 64
1, 365660, Note_off_c, 0, 79, 57
1, 365665, Note_off_c, 0, 84, 64
1, 365788, Note_on_c, 0, 45, 80
1, 365789, Note_on_c, 0, 50, 81
1, 365804, Note_on_c, 0, 54, 79
1, 365809, Control_c, 0, 64, 121
1, 365823, Control_c, 0, 64, 75
1, 365838, Control_c, 0, 64, 0
1, 365842, Note_off_c, 0, 45, 63
1, 365860, Note_on_c, 0, 73, 95
1, 365862, Note_on_c, 0, 78, 88
1, 365864, Note_on_c, 0, 85, 92
1, 365868, Control_c, 0, 64, 64
1, 365873, Poly_aftertouch_c, 0, 47, 127
1, 365877, Note_on_c, 0, 60, 86
1, 365883, Control_c, 0, 64, 95
1, 365887, Note_off_c, 0, 50, 0
1, 365897, Control_c, 0, 64, 127
1, 365899, Poly_aftertouch_c, 0, 47, 0
1, 365905, Note_off_c, 0, 60, 62
1, 365907, Note_off_c, 0, 54, 66
1, 365925, Poly_aftertouch_c, 0, 50, 127
1, 365929, Note_off_c, 0, 78, 60
1, 365942, Note_off_c, 0, 73, 57
1, 365956, Poly_aftertouch_c, 0, 50, 0
1, 365966, Note_off_c, 0, 85, 58
1, 366046, Note_on_c, 0, 44, 73
1, 366064, Note_on_c, 0, 53, 79
1, 366071, Note_on_c, 0, 50, 76
1, 366075, Control_c, 0, 64, 112
1, 366090, Note_on_c, 0, 46, 40
1, 366090, Control_c, 0, 64, 76
1, 366105, Control_c, 0, 64, 44
1, 366107, Note_on_c, 0, 74, 98
1, 366109, Note_on_c, 0, 77, 95
1, 366111, Note_on_c, 0, 86, 87
1, 366112, Note_on_c, 0, 82, 90
1, 366112, Note_off_c, 0, 44, 63
1, 366114, Note_on_c, 0, 58, 92
1, 366120, Control_c, 0, 64, 56
1, 366129, Note_off_c, 0, 46, 53
1, 366134, Control_c, 0, 64, 73
1, 366141, Note_off_c, 0, 53, 65
1, 366144, Note_on_c, 0, 84, 45
1, 366144, Note_off_c, 0, 74, 68
1, 366147, Note_off_c, 0, 77, 65
1, 366149, Control_c, 0, 64, 127
1, 366176, Note_off_c, 0, 58, 65
1, 366179, Note_off_c, 0, 84, 41
1, 366182, Note_off_c, 0, 86, 60
1, 366191, Note_off_c, 0, 50, 63
1, 366221, Note_off_c, 0, 82, 39
1, 366279, Note_on_c, 0, 43, 80
1, 366309, Note_on_c, 0, 51, 83
1, 366334, Control_c, 0, 64, 79
1, 366337, Note_off_c, 0, 43, 63
1, 366349, Control_c, 0, 64, 69
1, 366364, Control_c, 0, 64, 74
1, 366366, Note_on_c, 0, 75, 98
1, 366368, Note_on_c, 0, 87, 100
1, 366371, Note_on_c, 0, 59, 95
1, 366371, Note_on_c, 0, 79, 79
1, 366379, Control_c, 0, 64, 92
1, 366382, Note_off_c, 0, 51, 66
1, 366394, Control_c, 0, 64, 127
1, 366406, Note_off_c, 0, 79, 58
1, 366415, Note_off_c, 0, 59, 63
1, 366416, Note_off_c, 0, 75, 66
1, 366443, Note_off_c, 0, 87, 65
1, 366617, Control_c, 0, 64, 85
1, 366632, Control_c, 0, 64, 0
1, 366650, Note_on_c, 0, 44, 101
1, 366653, Note_on_c, 0, 91, 98
1, 366654, Note_on_c, 0, 32, 94
1, 366654, Note_on_c, 0, 79, 99
1, 366659, Note_on_c, 0, 87, 88
1, 366662, Note_on_c, 0, 84, 83
1, 366676, Control_c, 0, 64, 62
1, 366690, Control_c, 0, 64, 92
1, 366705, Control_c, 0, 64, 127
1, 366707, Note_off_c, 0, 32, 65
1, 366728, Note_off_c, 0, 44, 66
1, 366738, Note_off_c, 0, 91, 64
1, 366768, Note_off_c, 0, 87, 64
1, 366773, Note_off_c, 0, 84, 58
1, 366782, Note_off_c, 0, 79, 54
1, 366969, Note_on_c, 0, 59, 84
1, 366973, Note_on_c, 0, 67, 92
1, 366973, Note_on_c, 0, 77, 96
1, 366974, Note_on_c, 0, 89, 99
1, 366977, Note_on_c, 0, 87, 91
1, 366978, Note_on_c, 0, 84, 90
1, 366978, Note_on_c, 0, 63, 85
1, 367037, Note_off_c, 0, 67, 59
1, 367061, Note_off_c, 0, 63, 60
1, 367064, Note_off_c, 0, 59, 56
1, 367181, Note_off_c, 0, 77, 55
1, 367234, Note_off_c, 0, 84, 59
1, 367235, Note_off_c, 0, 89, 59
1, 367258, Note_off_c, 0, 87, 62
1, 367279, Note_on_c, 0, 68, 99
1, 367285, Note_on_c, 0, 63, 92
1, 367286, Note_on_c, 0, 60, 86
1, 367315, Note_off_c, 0, 68, 67
1, 367332, Note_off_c, 0, 63, 66
1, 367345, Note_off_c, 0, 60, 66
1, 367602, Control_c, 0, 64, 89
1, 367609, Note_on_c, 0, 82, 106
1, 367610, Note_on_c, 0, 94, 97
1, 367610, Note_on_c, 0, 46, 112
1, 367613, Note_on_c, 0, 34, 100
1, 367617, Control_c, 0, 64, 49
1, 367632, Control_c, 0, 64, 0
1, 367669, Control_c, 0, 64, 53
1, 367684, Control_c, 0, 64, 74
1, 367697, Note_off_c, 0, 34, 65
1, 367699, Control_c, 0, 64, 97
1, 367714, Control_c, 0, 64, 127
1, 367721, Note_off_c, 0, 46, 65
1, 367768, Note_off_c, 0, 94, 62
1, 367801, Note_off_c, 0, 82, 62
1, 367967, Note_on_c, 0, 72, 95
1, 367968, Note_on_c, 0, 63, 85
1, 367968, Note_on_c, 0, 80, 107
1, 367968, Note_on_c, 0, 92, 103
1, 367975, Note_on_c, 0, 68, 81
1, 367976, Note_on_c, 0, 70, 84
1, 367982, Note_on_c, 0, 65, 75
1, 368064, Poly_aftertouch_c, 0, 93, 127
1, 368085, Poly_aftertouch_c, 0, 93, 0
1, 368103, Note_off_c, 0, 63, 53
1, 368117, Note_off_c, 0, 65, 52
1, 368135, Note_off_c, 0, 72, 56
1, 368137, Note_off_c, 0, 70, 59
1, 368156, Note_off_c, 0, 68, 54
1, 368379, Note_on_c, 0, 74, 103
1, 368383, Note_on_c, 0, 68, 87
1, 368383, Note_on_c, 0, 70, 93
1, 368387, Note_on_c, 0, 62, 83
1, 368390, Note_on_c, 0, 65, 75
1, 368427, Note_off_c, 0, 62, 55
1, 368436, Note_off_c, 0, 74, 69
1, 368445, Note_off_c, 0, 68, 61
1, 368447, Note_off_c, 0, 65, 61
1, 368450, Note_off_c, 0, 70, 63
1, 368509, Note_off_c, 0, 92, 55
1, 368570, Note_off_c, 0, 80, 55
1, 369062, Note_on_c, 0, 39, 98
1, 369065, Note_on_c, 0, 79, 105
1, 369066, Note_on_c, 0, 27, 100
1, 369068, Note_on_c, 0, 91, 98
1, 369070, Note_on_c, 0, 82, 98
1, 369071, Note_on_c, 0, 87, 91
1, 369085, Control_c, 0, 64, 95
1, 369100, Control_c, 0, 64, 0
1, 369211, Control_c, 0, 64, 68
1, 369226, Control_c, 0, 64, 89
1, 369241, Control_c, 0, 64, 127
1, 369253, Note_off_c, 0, 27, 63
1, 369256, Note_off_c, 0, 91, 63
1, 369283, Note_on_c, 0, 34, 5
1, 369285, Note_off_c, 0, 39, 62
1, 369289, Note_off_c, 0, 82, 65
1, 369295, Note_off_c, 0, 87, 64
1, 369346, Note_off_c, 0, 34, 47
1, 369350, Poly_aftertouch_c, 0, 40, 127
1, 369384, Poly_aftertouch_c, 0, 40, 0
1, 369398, Note_off_c, 0, 79, 54
1, 369507, Note_on_c, 0, 46, 83
1, 369655, Note_on_c, 0, 77, 80
1, 369655, Note_on_c, 0, 51, 82
1, 369663, Note_off_c, 0, 46, 33
1, 369709, Note_off_c, 0, 77, 64
1, 369719, Note_off_c, 0, 51, 63
1, 369730, Note_on_c, 0, 79, 84
1, 369769, Note_on_c, 0, 55, 75
1, 369781, Note_off_c, 0, 79, 61
1, 369810, Note_on_c, 0, 77, 56
1, 369831, Note_off_c, 0, 77, 62
1, 369888, Note_on_c, 0, 58, 79
1, 369903, Note_off_c, 0, 55, 64
1, 369918, Note_on_c, 0, 87, 89
1, 369921, Note_off_c, 0, 58, 64
1, 369929, Note_on_c, 0, 82, 73
1, 369930, Note_on_c, 0, 75, 78
1, 369939, Note_on_c, 0, 79, 65
1, 370179, Note_off_c, 0, 75, 57
1, 370185, Note_off_c, 0, 79, 60
1, 370214, Note_on_c, 0, 46, 74
1, 370218, Note_off_c, 0, 87, 59
1, 370225, Note_off_c, 0, 82, 50
1, 370313, Note_on_c, 0, 51, 74
1, 370332, Note_off_c, 0, 46, 55
1, 370383, Note_off_c, 0, 51, 63
1, 370403, Note_on_c, 0, 55, 71
1, 370431, Note_off_c, 0, 55, 65
1, 370482, Note_on_c, 0, 77, 80
1, 370484, Note_on_c, 0, 89, 80
1, 370501, Note_on_c, 0, 58, 76
1, 370536, Note_off_c, 0, 58, 56
1, 370541, Note_off_c, 0, 77, 57
1, 370556, Note_on_c, 0, 55, 66
1, 370574, Note_off_c, 0, 89, 62
1, 370615, Note_off_c, 0, 55, 63
1, 370642, Note_on_c, 0, 63, 72
1, 370711, Note_off_c, 0, 63, 60
1, 370740, Note_on_c, 0, 70, 85
1, 370740, Note_on_c, 0, 91, 95
1, 370743, Note_on_c, 0, 79, 90
1, 370749, Note_on_c, 0, 87, 81
1, 370753, Note_on_c, 0, 82, 74
1, 370759, Note_off_c, 0, 70, 72
1, 370773, Note_off_c, 0, 82, 70
1, 370782, Note_off_c, 0, 79, 62
1, 370815, Note_off_c, 0, 91, 63
1, 370828, Note_off_c, 0, 87, 61
1, 370991, Control_c, 0, 64, 73
1, 370998, Note_on_c, 0, 34, 91
1, 371005, Control_c, 0, 64, 0
1, 371026, Note_on_c, 0, 92, 95
1, 371031, Note_on_c, 0, 80, 95
1, 371031, Note_on_c, 0, 84, 86
1, 371035, Note_on_c, 0, 86, 77
1, 371049, Note_off_c, 0, 34, 62
1, 371050, Control_c, 0, 64, 68
1, 371064, Control_c, 0, 64, 92
1, 371073, Note_off_c, 0, 86, 62
1, 371079, Control_c, 0, 64, 127
1, 371086, Note_off_c, 0, 92, 66
1, 371088, Note_off_c, 0, 84, 63
1, 371116, Note_off_c, 0, 80, 63
1, 371205, Note_on_c, 0, 53, 72
1, 371294, Note_off_c, 0, 53, 63
1, 371296, Note_on_c, 0, 56, 71
1, 371300, Note_on_c, 0, 79, 75
1, 371322, Note_off_c, 0, 79, 68
1, 371339, Note_on_c, 0, 80, 71
1, 371377, Note_off_c, 0, 80, 59
1, 371386, Note_on_c, 0, 58, 70
1, 371387, Note_off_c, 0, 56, 58
1, 371397, Note_on_c, 0, 79, 82
1, 371449, Note_off_c, 0, 79, 58
1, 371476, Note_off_c, 0, 58, 59
1, 371480, Note_on_c, 0, 89, 72
1, 371482, Note_on_c, 0, 62, 85
1, 371487, Note_on_c, 0, 77, 47
1, 371494, Note_on_c, 0, 88, 60
1, 371506, Note_on_c, 0, 85, 16
1, 371507, Note_off_c, 0, 89, 65
1, 371512, Note_off_c, 0, 77, 59
1, 371515, Note_off_c, 0, 88, 60
1, 371529, Note_off_c, 0, 62, 62
1, 371554, Note_off_c, 0, 85, 52
1, 371687, Note_on_c, 0, 55, 87
1, 371694, Control_c, 0, 64, 93
1, 371699, Note_on_c, 0, 94, 96
1, 371700, Note_on_c, 0, 82, 103
1, 371706, Note_on_c, 0, 87, 83
1, 371709, Control_c, 0, 64, 64
1, 371724, Control_c, 0, 64, 0
1, 371752, Note_off_c, 0, 94, 67
1, 371754, Control_c, 0, 64, 62
1, 371757, Note_off_c, 0, 87, 65
1, 371763, Note_on_c, 0, 58, 84
1, 371769, Control_c, 0, 64, 99
1, 371772, Note_off_c, 0, 82, 61
1, 371781, Note_off_c, 0, 55, 60
1, 371784, Control_c, 0, 64, 127
1, 371843, Note_on_c, 0, 63, 85
1, 371855, Note_off_c, 0, 58, 63
1, 371889, Note_on_c, 0, 67, 74
1, 371925, Note_on_c, 0, 80, 82
1, 371927, Note_off_c, 0, 63, 60
1, 371954, Note_on_c, 0, 58, 82
1, 371968, Note_on_c, 0, 82, 88
1, 371971, Note_off_c, 0, 80, 64
1, 371974, Note_off_c, 0, 67, 63
1, 372028, Note_off_c, 0, 82, 62
1, 372031, Note_off_c, 0, 58, 62
1, 372037, Note_on_c, 0, 80, 91
1, 372051, Note_on_c, 0, 63, 76
1, 372088, Note_off_c, 0, 80, 64
1, 372122, Note_on_c, 0, 70, 88
1, 372126, Note_on_c, 0, 79, 92
1, 372127, Note_on_c, 0, 91, 101
1, 372139, Note_off_c, 0, 70, 73
1, 372140, Note_off_c, 0, 63, 61
1, 372174, Note_off_c, 0, 79, 64
1, 372199, Note_off_c, 0, 91, 59
1, 372370, Control_c, 0, 64, 81
1, 372381, Note_on_c, 0, 35, 93
1, 372384, Note_on_c, 0, 93, 96
1, 372384, Control_c, 0, 64, 0
1, 372389, Note_on_c, 0, 87, 90
1, 372392, Note_on_c, 0, 81, 94
1, 372398, Note_on_c, 0, 85, 91
1, 372427, Note_off_c, 0, 35, 65
1, 372428, Note_on_c, 0, 83, 39
1, 372429, Note_off_c, 0, 83, 127
1, 372429, Note_on_c, 0, 90, 28
1, 372430, Note_off_c, 0, 90, 127
1, 372430, Control_c, 0, 64, 68
1, 372433, Note_off_c, 0, 93, 66
1, 372444, Control_c, 0, 64, 90
1, 372450, Note_off_c, 0, 87, 64
1, 372458, Control_c, 0, 64, 127
1, 372460, Note_off_c, 0, 85, 62
1, 372472, Note_off_c, 0, 81, 64
1, 372561, Note_on_c, 0, 54, 73
1, 372645, Note_off_c, 0, 54, 59
1, 372646, Note_on_c, 0, 80, 58
1, 372663, Note_on_c, 0, 58, 31
1, 372675, Note_on_c, 0, 79, 54
1, 372697, Note_off_c, 0, 79, 60
1, 372719, Note_on_c, 0, 57, 46
1, 372726, Note_off_c, 0, 80, 0
1, 372729, Note_off_c, 0, 58, 0
1, 372739, Note_on_c, 0, 80, 58
1, 372741, Note_on_c, 0, 59, 67
1, 372774, Poly_aftertouch_c, 0, 58, 0
1, 372796, Note_off_c, 0, 57, 56
1, 372797, Note_off_c, 0, 80, 62
1, 372812, Note_on_c, 0, 63, 88
1, 372824, Note_off_c, 0, 59, 58
1, 372824, Note_on_c, 0, 78, 95
1, 372828, Note_on_c, 0, 90, 98
1, 372854, Note_off_c, 0, 63, 64
1, 372858, Note_off_c, 0, 78, 62
1, 372866, Note_off_c, 0, 90, 67
1, 373016, Poly_aftertouch_c, 0, 58, 127
1, 373045, Control_c, 0, 64, 73
1, 373046, Poly_aftertouch_c, 0, 87, 0
1, 373051, Poly_aftertouch_c, 0, 58, 0
1, 373059, Control_c, 0, 64, 0
1, 373078, Note_on_c, 0, 68, 91
1, 373078, Note_on_c, 0, 95, 102
1, 373079, Note_on_c, 0, 88, 100
1, 373080, Note_on_c, 0, 83, 103
1, 373081, Note_on_c, 0, 56, 83
1, 373084, Note_on_c, 0, 64, 79
1, 373104, Note_on_c, 0, 60, 50
1, 373104, Control_c, 0, 64, 64
1, 373105, Note_off_c, 0, 68, 63
1, 373107, Note_on_c, 0, 59, 61
1, 373107, Note_off_c, 0, 64, 71
1, 373119, Note_off_c, 0, 83, 64
1, 373119, Control_c, 0, 64, 95
1, 373129, Note_off_c, 0, 88, 64
1, 373131, Note_off_c, 0, 60, 62
1, 373133, Note_off_c, 0, 59, 63
1, 373134, Note_off_c, 0, 56, 64
1, 373134, Control_c, 0, 64, 127
1, 373154, Note_off_c, 0, 95, 58
1, 373277, Note_on_c, 0, 54, 76
1, 373289, Note_on_c, 0, 60, 35
1, 373312, Control_c, 0, 64, 93
1, 373327, Control_c, 0, 64, 59
1, 373330, Note_on_c, 0, 63, 70
1, 373341, Control_c, 0, 64, 0
1, 373343, Note_off_c, 0, 54, 65
1, 373349, Note_on_c, 0, 84, 98
1, 373349, Note_on_c, 0, 87, 94
1, 373350, Note_on_c, 0, 96, 103
1, 373360, Note_on_c, 0, 69, 93
1, 373362, Note_off_c, 0, 60, 64
1, 373371, Control_c, 0, 64, 47
1, 373381, Note_off_c, 0, 84, 67
1, 373386, Control_c, 0, 64, 83
1, 373390, Note_off_c, 0, 63, 63
1, 373394, Note_off_c, 0, 87, 67
1, 373401, Control_c, 0, 64, 127
1, 373406, Note_off_c, 0, 96, 67
1, 373410, Note_off_c, 0, 69, 61
1, 373574, Note_on_c, 0, 57, 73
1, 373590, Note_on_c, 0, 63, 69
1, 373601, Note_on_c, 0, 66, 69
1, 373608, Control_c, 0, 64, 83
1, 373623, Control_c, 0, 64, 0
1, 373639, Note_off_c, 0, 57, 62
1, 373670, Note_on_c, 0, 99, 104
1, 373672, Note_off_c, 0, 63, 61
1, 373673, Note_on_c, 0, 87, 102
1, 373673, Note_on_c, 0, 93, 96
1, 373674, Control_c, 0, 64, 66
1, 373679, Note_on_c, 0, 72, 96
1, 373683, Note_off_c, 0, 66, 60
1, 373690, Control_c, 0, 64, 88
1, 373705, Control_c, 0, 64, 127
1, 373708, Note_off_c, 0, 93, 68
1, 373708, Note_off_c, 0, 99, 67
1, 373714, Note_off_c, 0, 87, 67
1, 373715, Note_off_c, 0, 72, 64
1, 374118, Note_on_c, 0, 63, 97
1, 374124, Note_on_c, 0, 57, 92
1, 374124, Note_on_c, 0, 48, 92
1, 374127, Note_on_c, 0, 42, 91
1, 374133, Control_c, 0, 64, 77
1, 374148, Control_c, 0, 64, 0
1, 374222, Control_c, 0, 64, 64
1, 374237, Control_c, 0, 64, 75
1, 374252, Control_c, 0, 64, 87
1, 374267, Control_c, 0, 64, 101
1, 374281, Control_c, 0, 64, 123
1, 374296, Control_c, 0, 64, 127
1, 374313, Note_off_c, 0, 57, 54
1, 374314, Note_off_c, 0, 42, 54
1, 374347, Note_off_c, 0, 48, 59
1, 374413, Note_off_c, 0, 63, 52
1, 374773, Note_on_c, 0, 54, 78
1, 374856, Note_on_c, 0, 57, 81
1, 374876, Note_off_c, 0, 54, 63
1, 374934, Note_on_c, 0, 59, 86
1, 374941, Note_off_c, 0, 57, 63
1, 374978, Note_off_c, 0, 59, 63
1, 374999, Note_on_c, 0, 60, 81
1, 375077, Note_on_c, 0, 63, 87
1, 375089, Note_off_c, 0, 60, 60
1, 375153, Note_on_c, 0, 66, 85
1, 375158, Note_off_c, 0, 63, 63
1, 375186, Note_off_c, 0, 66, 67
1, 375214, Note_on_c, 0, 62, 89
1, 375305, Note_on_c, 0, 63, 69
1, 375322, Note_off_c, 0, 62, 58
1, 375322, Note_on_c, 0, 64, 80
1, 375328, Note_off_c, 0, 63, 61
1, 375378, Note_off_c, 0, 64, 62
1, 375393, Note_on_c, 0, 66, 82
1, 375461, Note_off_c, 0, 66, 59
1, 375479, Note_on_c, 0, 69, 95
1, 375530, Note_off_c, 0, 69, 67
1, 375560, Note_on_c, 0, 72, 90
1, 375649, Note_on_c, 0, 75, 96
1, 375667, Note_off_c, 0, 72, 59
1, 375716, Note_off_c, 0, 75, 57
1, 375733, Note_on_c, 0, 78, 94
1, 375823, Note_on_c, 0, 81, 82
1, 375834, Note_off_c, 0, 78, 62
1, 375884, Note_on_c, 0, 84, 81
1, 375887, Note_off_c, 0, 81, 67
1, 375939, Note_off_c, 0, 84, 63
1, 376008, Control_c, 0, 64, 103
1, 376024, Control_c, 0, 64, 55
1, 376038, Note_on_c, 0, 46, 97
1, 376039, Control_c, 0, 64, 0
1, 376040, Note_on_c, 0, 75, 101
1, 376040, Note_on_c, 0, 87, 104
1, 376042, Note_on_c, 0, 79, 83
1, 376043, Note_on_c, 0, 34, 100
1, 376043, Note_on_c, 0, 82, 94
1, 376087, Note_off_c, 0, 75, 65
1, 376088, Note_off_c, 0, 87, 67
1, 376090, Note_off_c, 0, 34, 63
1, 376094, Note_off_c, 0, 79, 64
1, 376094, Note_off_c, 0, 46, 62
1, 376099, Note_off_c, 0, 82, 65
1, 376099, Control_c, 0, 64, 93
1, 376114, Control_c, 0, 64, 127
1, 376390, Note_on_c, 0, 69, 74
1, 376442, Note_on_c, 0, 70, 75
1, 376445, Note_off_c, 0, 69, 63
1, 376475, Note_off_c, 0, 70, 62
1, 376480, Note_on_c, 0, 72, 76
1, 376522, Note_on_c, 0, 67, 98
1, 376525, Note_on_c, 0, 70, 90
1, 376527, Note_on_c, 0, 63, 91
1, 376528, Note_on_c, 0, 58, 88
1, 376532, Note_on_c, 0, 55, 85
1, 376532, Note_off_c, 0, 72, 64
1, 376543, Control_c, 0, 64, 87
1, 376558, Control_c, 0, 64, 37
1, 376573, Control_c, 0, 64, 0
1, 376602, Control_c, 0, 64, 61
1, 376617, Control_c, 0, 64, 84
1, 376632, Control_c, 0, 64, 127
1, 376635, Note_off_c, 0, 70, 66
1, 376648, Note_off_c, 0, 55, 64
1, 376649, Note_off_c, 0, 67, 61
1, 376651, Note_off_c, 0, 58, 64
1, 376659, Note_off_c, 0, 63, 63
1, 377247, Control_c, 0, 64, 80
1, 377262, Control_c, 0, 64, 0
1, 377923, Note_on_c, 0, 89, 102
1, 377924, Note_on_c, 0, 77, 103
1, 377966, Control_c, 0, 64, 43
1, 377981, Control_c, 0, 64, 64
1, 377996, Control_c, 0, 64, 69
1, 378011, Control_c, 0, 64, 81
1, 378026, Control_c, 0, 64, 127
1, 378176, Note_off_c, 0, 77, 54
1, 378425, Note_off_c, 0, 89, 63
1, 378443, Note_on_c, 0, 79, 99
1, 378443, Note_on_c, 0, 91, 109
1, 378447, Control_c, 0, 64, 82
1, 378462, Control_c, 0, 64, 0
1, 378508, Control_c, 0, 64, 61
1, 378521, Note_off_c, 0, 91, 65
1, 378523, Control_c, 0, 64, 77
1, 378538, Control_c, 0, 64, 96
1, 378544, Note_off_c, 0, 79, 56
1, 378552, Control_c, 0, 64, 127
1, 379049, Control_c, 0, 64, 114
1, 379064, Control_c, 0, 64, 69
1, 379077, Note_on_c, 0, 34, 102
1, 379077, Note_on_c, 0, 80, 99
1, 379077, Note_on_c, 0, 92, 102
1, 379078, Control_c, 0, 64, 0
1, 379081, Note_on_c, 0, 22, 102
1, 379123, Control_c, 0, 64, 69
1, 379138, Control_c, 0, 64, 111
1, 379152, Control_c, 0, 64, 127
1, 379158, Note_off_c, 0, 22, 63
1, 379181, Note_off_c, 0, 80, 63
1, 379182, Note_off_c, 0, 34, 61
1, 379224, Note_off_c, 0, 92, 60
1, 379292, Note_on_c, 0, 89, 96
1, 379370, Note_off_c, 0, 89, 62
1, 379411, Note_on_c, 0, 86, 81
1, 379433, Note_on_c, 0, 88, 52
1, 379457, Note_off_c, 0, 86, 67
1, 379459, Note_off_c, 0, 88, 39
1, 379525, Note_on_c, 0, 65, 103
1, 379525, Note_on_c, 0, 82, 90
1, 379527, Note_on_c, 0, 62, 95
1, 379532, Note_on_c, 0, 58, 88
1, 379534, Note_on_c, 0, 56, 83
1, 379538, Note_on_c, 0, 53, 81
1, 379579, Note_off_c, 0, 65, 65
1, 379599, Note_off_c, 0, 62, 58
1, 379610, Note_off_c, 0, 53, 64
1, 379613, Note_off_c, 0, 56, 62
1, 379613, Note_off_c, 0, 82, 65
1, 379614, Note_on_c, 0, 84, 85
1, 379617, Note_off_c, 0, 58, 59
1, 379695, Note_on_c, 0, 80, 86
1, 379701, Note_off_c, 0, 84, 63
1, 379771, Note_off_c, 0, 80, 64
1, 379774, Note_on_c, 0, 77, 75
1, 379803, Note_on_c, 0, 76, 41
1, 379827, Note_off_c, 0, 77, 64
1, 379835, Note_on_c, 0, 74, 83
1, 379836, Note_off_c, 0, 76, 39
1, 379865, Note_off_c, 0, 74, 65
1, 379909, Note_on_c, 0, 70, 86
1, 379968, Note_off_c, 0, 70, 65
1, 379974, Note_on_c, 0, 72, 88
1, 380038, Note_on_c, 0, 68, 86
1, 380046, Note_off_c, 0, 72, 60
1, 380107, Note_off_c, 0, 68, 63
1, 380109, Note_on_c, 0, 65, 80
1, 380154, Note_off_c, 0, 65, 62
1, 380166, Note_on_c, 0, 62, 78
1, 380195, Note_off_c, 0, 62, 65
1, 380240, Note_on_c, 0, 58, 87
1, 380285, Note_off_c, 0, 58, 64
1, 380308, Note_on_c, 0, 60, 77
1, 380366, Note_off_c, 0, 60, 65
1, 380375, Note_on_c, 0, 57, 73
1, 380419, Note_off_c, 0, 57, 60
1, 380428, Note_on_c, 0, 53, 79
1, 380462, Note_off_c, 0, 53, 66
1, 380509, Note_on_c, 0, 46, 89
1, 380554, Note_off_c, 0, 46, 64
1, 380606, Control_c, 0, 64, 110
1, 380616, Note_on_c, 0, 39, 116
1, 380619, Note_on_c, 0, 27, 107
1, 380621, Control_c, 0, 64, 67
1, 380636, Control_c, 0, 64, 0
1, 380652, Note_on_c, 0, 30, 35
1, 380653, Note_off_c, 0, 30, 127
1, 380828, Control_c, 0, 64, 68
1, 380843, Control_c, 0, 64, 78
1, 380856, Note_off_c, 0, 27, 62
1, 380857, Control_c, 0, 64, 102
1, 380873, Control_c, 0, 64, 127
1, 380881, Note_off_c, 0, 39, 61
1, 381197, Note_on_c, 0, 87, 103
1, 381197, Note_on_c, 0, 99, 106
1, 381200, Note_on_c, 0, 91, 108
1, 381201, Note_on_c, 0, 79, 103
1, 381203, Note_on_c, 0, 94, 99
1, 381204, Note_on_c, 0, 75, 96
1, 381208, Note_on_c, 0, 67, 88
1, 381209, Note_on_c, 0, 70, 90
1, 382160, Note_off_c, 0, 79, 69
1, 382173, Note_off_c, 0, 87, 68
1, 382174, Note_off_c, 0, 67, 65
1, 382178, Note_off_c, 0, 75, 69
1, 382178, Note_off_c, 0, 99, 69
1, 382180, Note_off_c, 0, 70, 67
1, 382181, Note_off_c, 0, 91, 70
1, 382187, Note_off_c, 0, 94, 68
1, 382208, Control_c, 0, 64, 83
1, 382222, Control_c, 0, 64, 0
1, 382297, End_track
0, 0, End_of_file
