0, 0, Header, 0, 1, 384
1, 0, Start_track
1, 0, Title_t, "Sonata in b,K197--Staupe        "
1, 0, Text_t, "2009 International Piano-e-Competition finals"
1, 0, Text_t, "captured June-July 2009"
1, 0, Text_t, "http://www.piano-e-competition.com/"
1, 0, Text_t, "standard-resolution version"
1, 0, Text_t, "File processed for distribution by software from Zenph Studios, Inc., http://www.zenph.com"
1, 0, Instrument_name_t, "Yamaha Disklavier Pro Mark IV concert grand piano, model DCFIIISM4PRO"
1, 0, Sequencer_specific, 39, 67, 113, 0, 1, 0, 1, 0, 83, 111, 110, 97, 116, 97, 32, 105, 110, 32, 98, 44, 75, 49, 57, 55, 65, 110, 100, 114, 101, 119, 32, 83, 116, 97, 117, 112, 101, 32, 32, 32
1, 0, Sequencer_specific, 6, 67, 113, 0, 0, 0, 69
1, 0, System_exclusive, 21, 67, 113, 126, 21, 0, 2, 2, 2, 3, 12, 8, 4, 10, 4, 14, 6, 1, 8, 0, 7, 247
1, 0, Sequencer_specific, 5, 67, 123, 12, 2, 1
1, 0, Tempo, 512820
1, 0, Time_signature, 4, 2, 24, 8
1, 0, System_exclusive, 5, 126, 127, 9, 1, 247
1, 1, System_exclusive, 8, 67, 16, 76, 0, 0, 126, 0, 247
1, 2, System_exclusive, 8, 67, 16, 76, 8, 9, 7, 1, 247
1, 3, Control_c, 0, 0, 0
1, 3, Control_c, 1, 0, 0
1, 3, Control_c, 2, 0, 0
1, 3, Control_c, 3, 0, 0
1, 3, Control_c, 4, 0, 0
1, 3, Control_c, 5, 0, 0
1, 3, Control_c, 6, 0, 0
1, 3, Control_c, 7, 0, 0
1, 3, Control_c, 8, 0, 0
1, 3, Control_c, 9, 0, 127
1, 3, Control_c, 10, 0, 0
1, 3, Control_c, 11, 0, 0
1, 3, Control_c, 12, 0, 0
1, 3, Control_c, 13, 0, 0
1, 3, Control_c, 14, 0, 0
1, 3, Control_c, 15, 0, 0
1, 4, Control_c, 0, 32, 0
1, 4, Control_c, 1, 32, 0
1, 4, Control_c, 2, 32, 0
1, 4, Control_c, 3, 32, 0
1, 4, Control_c, 4, 32, 0
1, 4, Control_c, 5, 32, 0
1, 4, Control_c, 6, 32, 0
1, 4, Control_c, 7, 32, 0
1, 4, Control_c, 8, 32, 0
1, 4, Control_c, 9, 32, 0
1, 4, Control_c, 10, 32, 0
1, 4, Control_c, 11, 32, 0
1, 4, Control_c, 12, 32, 0
1, 4, Control_c, 13, 32, 0
1, 4, Control_c, 14, 32, 0
1, 4, Control_c, 15, 32, 0
1, 5, Program_c, 0, 0
1, 5, Program_c, 1, 0
1, 5, Program_c, 2, 0
1, 5, Program_c, 3, 0
1, 5, Program_c, 4, 0
1, 5, Program_c, 5, 0
1, 5, Program_c, 6, 0
1, 5, Program_c, 7, 0
1, 5, Program_c, 8, 0
1, 5, Program_c, 9, 0
1, 5, Program_c, 10, 0
1, 5, Program_c, 11, 0
1, 5, Program_c, 12, 0
1, 5, Program_c, 13, 0
1, 5, Program_c, 14, 0
1, 5, Program_c, 15, 0
1, 6, Control_c, 0, 7, 100
1, 6, Control_c, 1, 7, 100
1, 6, Control_c, 2, 7, 100
1, 6, Control_c, 3, 7, 100
1, 6, Control_c, 4, 7, 100
1, 6, Control_c, 5, 7, 100
1, 6, Control_c, 6, 7, 100
1, 6, Control_c, 7, 7, 100
1, 6, Control_c, 8, 7, 100
1, 6, Control_c, 9, 7, 100
1, 6, Control_c, 10, 7, 100
1, 6, Control_c, 11, 7, 100
1, 6, Control_c, 12, 7, 100
1, 6, Control_c, 13, 7, 100
1, 6, Control_c, 14, 7, 100
1, 6, Control_c, 15, 7, 100
1, 117, Control_c, 0, 64, 15
1, 229, Control_c, 0, 64, 31
1, 341, Control_c, 0, 64, 46
1, 452, Control_c, 0, 64, 63
1, 564, Control_c, 0, 64, 77
1, 676, Control_c, 0, 64, 94
1, 787, Control_c, 0, 64, 108
1, 899, Control_c, 0, 64, 127
1, 1137, Note_on_c, 0, 59, 42
1, 1138, Note_on_c, 0, 47, 41
1, 1728, Note_on_c, 0, 78, 67
1, 1962, Note_off_c, 0, 47, 41
1, 2086, Note_off_c, 0, 59, 55
1, 2200, Note_off_c, 0, 78, 35
1, 2242, Note_on_c, 0, 76, 57
1, 2492, Note_on_c, 0, 74, 59
1, 2546, Note_off_c, 0, 76, 37
1, 2727, Control_c, 0, 64, 113
1, 2742, Control_c, 0, 64, 106
1, 2747, Note_on_c, 0, 66, 43
1, 2757, Control_c, 0, 64, 99
1, 2772, Control_c, 0, 64, 92
1, 2787, Control_c, 0, 64, 83
1, 2802, Control_c, 0, 64, 72
1, 2816, Control_c, 0, 64, 57
1, 2831, Control_c, 0, 64, 0
1, 2883, Control_c, 0, 64, 36
1, 2898, Control_c, 0, 64, 65
1, 2913, Control_c, 0, 64, 73
1, 2929, Control_c, 0, 64, 80
1, 2944, Control_c, 0, 64, 85
1, 2959, Control_c, 0, 64, 88
1, 2974, Control_c, 0, 64, 91
1, 2989, Control_c, 0, 64, 95
1, 3004, Control_c, 0, 64, 99
1, 3019, Control_c, 0, 64, 102
1, 3033, Control_c, 0, 64, 104
1, 3048, Control_c, 0, 64, 105
1, 3063, Control_c, 0, 64, 105
1, 3152, Control_c, 0, 64, 105
1, 3166, Control_c, 0, 64, 104
1, 3181, Control_c, 0, 64, 102
1, 3196, Control_c, 0, 64, 98
1, 3201, Note_off_c, 0, 66, 43
1, 3209, Note_on_c, 0, 67, 38
1, 3211, Control_c, 0, 64, 90
1, 3225, Control_c, 0, 64, 79
1, 3240, Control_c, 0, 64, 63
1, 3255, Control_c, 0, 64, 0
1, 3344, Control_c, 0, 64, 53
1, 3359, Control_c, 0, 64, 65
1, 3374, Control_c, 0, 64, 73
1, 3389, Control_c, 0, 64, 81
1, 3404, Control_c, 0, 64, 92
1, 3414, Note_off_c, 0, 74, 57
1, 3419, Control_c, 0, 64, 101
1, 3433, Control_c, 0, 64, 107
1, 3448, Control_c, 0, 64, 111
1, 3463, Control_c, 0, 64, 120
1, 3478, Control_c, 0, 64, 127
1, 3688, Note_on_c, 0, 74, 52
1, 4124, Note_on_c, 0, 73, 50
1, 4137, Control_c, 0, 64, 115
1, 4152, Control_c, 0, 64, 103
1, 4161, Note_off_c, 0, 74, 33
1, 4167, Control_c, 0, 64, 96
1, 4182, Control_c, 0, 64, 88
1, 4197, Control_c, 0, 64, 78
1, 4211, Control_c, 0, 64, 67
1, 4226, Control_c, 0, 64, 43
1, 4241, Control_c, 0, 64, 0
1, 4408, Note_on_c, 0, 71, 41
1, 4444, Note_off_c, 0, 73, 54
1, 4620, Control_c, 0, 64, 37
1, 4635, Control_c, 0, 64, 59
1, 4635, Note_on_c, 0, 62, 10
1, 4635, Note_off_c, 0, 67, 52
1, 4638, Note_on_c, 0, 66, 31
1, 4650, Control_c, 0, 64, 65
1, 4665, Control_c, 0, 64, 70
1, 4679, Control_c, 0, 64, 76
1, 4694, Control_c, 0, 64, 84
1, 4709, Control_c, 0, 64, 88
1, 4724, Control_c, 0, 64, 91
1, 4739, Control_c, 0, 64, 96
1, 4753, Control_c, 0, 64, 104
1, 4768, Control_c, 0, 64, 115
1, 4783, Control_c, 0, 64, 127
1, 4830, Note_off_c, 0, 62, 40
1, 4848, Note_off_c, 0, 66, 43
1, 5049, Control_c, 0, 64, 108
1, 5054, Note_on_c, 0, 67, 38
1, 5058, Note_on_c, 0, 64, 36
1, 5064, Control_c, 0, 64, 92
1, 5079, Control_c, 0, 64, 80
1, 5094, Control_c, 0, 64, 68
1, 5116, Control_c, 0, 64, 54
1, 5130, Control_c, 0, 64, 32
1, 5145, Control_c, 0, 64, 55
1, 5160, Control_c, 0, 64, 65
1, 5175, Control_c, 0, 64, 71
1, 5190, Control_c, 0, 64, 77
1, 5204, Control_c, 0, 64, 81
1, 5219, Control_c, 0, 64, 83
1, 5234, Control_c, 0, 64, 86
1, 5249, Control_c, 0, 64, 89
1, 5263, Note_on_c, 0, 74, 54
1, 5264, Control_c, 0, 64, 94
1, 5279, Control_c, 0, 64, 98
1, 5294, Control_c, 0, 64, 101
1, 5308, Note_off_c, 0, 67, 37
1, 5308, Control_c, 0, 64, 104
1, 5322, Note_off_c, 0, 71, 37
1, 5324, Control_c, 0, 64, 107
1, 5331, Note_off_c, 0, 64, 45
1, 5339, Control_c, 0, 64, 109
1, 5354, Control_c, 0, 64, 109
1, 5428, Control_c, 0, 64, 109
1, 5443, Control_c, 0, 64, 102
1, 5451, Note_on_c, 0, 73, 69
1, 5458, Control_c, 0, 64, 88
1, 5466, Note_on_c, 0, 62, 39
1, 5466, Note_on_c, 0, 66, 38
1, 5472, Control_c, 0, 64, 74
1, 5473, Note_off_c, 0, 74, 58
1, 5487, Control_c, 0, 64, 58
1, 5502, Control_c, 0, 64, 0
1, 5532, Control_c, 0, 64, 54
1, 5546, Control_c, 0, 64, 66
1, 5561, Control_c, 0, 64, 73
1, 5576, Control_c, 0, 64, 79
1, 5591, Control_c, 0, 64, 84
1, 5606, Control_c, 0, 64, 86
1, 5620, Control_c, 0, 64, 89
1, 5635, Control_c, 0, 64, 93
1, 5636, Note_on_c, 0, 71, 73
1, 5649, Note_off_c, 0, 73, 56
1, 5650, Control_c, 0, 64, 97
1, 5654, Note_off_c, 0, 62, 40
1, 5665, Control_c, 0, 64, 101
1, 5671, Note_off_c, 0, 66, 55
1, 5680, Control_c, 0, 64, 105
1, 5694, Control_c, 0, 64, 109
1, 5709, Control_c, 0, 64, 112
1, 5798, Control_c, 0, 64, 111
1, 5813, Control_c, 0, 64, 97
1, 5827, Control_c, 0, 64, 80
1, 5850, Control_c, 0, 64, 64
1, 5851, Note_on_c, 0, 78, 69
1, 5852, Note_on_c, 0, 64, 37
1, 5854, Note_on_c, 0, 61, 41
1, 5865, Control_c, 0, 64, 0
1, 5866, Note_off_c, 0, 71, 56
1, 5909, Control_c, 0, 64, 35
1, 5924, Control_c, 0, 64, 64
1, 5939, Control_c, 0, 64, 72
1, 5953, Control_c, 0, 64, 79
1, 5968, Control_c, 0, 64, 82
1, 5983, Control_c, 0, 64, 83
1, 6033, Note_on_c, 0, 76, 74
1, 6048, Note_off_c, 0, 78, 51
1, 6057, Control_c, 0, 64, 82
1, 6072, Control_c, 0, 64, 82
1, 6086, Control_c, 0, 64, 81
1, 6101, Control_c, 0, 64, 79
1, 6116, Control_c, 0, 64, 78
1, 6132, Control_c, 0, 64, 76
1, 6147, Control_c, 0, 64, 73
1, 6162, Control_c, 0, 64, 71
1, 6176, Control_c, 0, 64, 69
1, 6191, Control_c, 0, 64, 67
1, 6206, Control_c, 0, 64, 65
1, 6218, Note_off_c, 0, 61, 41
1, 6221, Control_c, 0, 64, 63
1, 6227, Note_on_c, 0, 74, 78
1, 6236, Control_c, 0, 64, 59
1, 6239, Note_on_c, 0, 66, 49
1, 6250, Control_c, 0, 64, 36
1, 6265, Control_c, 0, 64, 0
1, 6267, Note_off_c, 0, 76, 57
1, 6280, Note_off_c, 0, 64, 43
1, 6408, Note_on_c, 0, 73, 81
1, 6444, Note_off_c, 0, 74, 60
1, 6615, Note_off_c, 0, 66, 55
1, 6618, Note_on_c, 0, 74, 75
1, 6631, Note_on_c, 0, 59, 35
1, 6635, Note_off_c, 0, 73, 60
1, 6805, Note_off_c, 0, 74, 62
1, 6811, Note_on_c, 0, 71, 65
1, 7001, Note_off_c, 0, 71, 59
1, 7011, Note_on_c, 0, 74, 61
1, 7205, Note_off_c, 0, 74, 58
1, 7208, Note_on_c, 0, 78, 52
1, 7435, Note_on_c, 0, 76, 51
1, 7474, Note_off_c, 0, 78, 37
1, 7651, Note_on_c, 0, 74, 40
1, 7688, Note_off_c, 0, 76, 34
1, 7904, Note_on_c, 0, 66, 25
1, 7911, Control_c, 0, 64, 41
1, 7926, Control_c, 0, 64, 59
1, 7941, Control_c, 0, 64, 64
1, 7956, Control_c, 0, 64, 67
1, 7970, Control_c, 0, 64, 71
1, 7985, Control_c, 0, 64, 77
1, 8000, Control_c, 0, 64, 86
1, 8015, Control_c, 0, 64, 92
1, 8030, Control_c, 0, 64, 99
1, 8045, Control_c, 0, 64, 110
1, 8060, Control_c, 0, 64, 127
1, 8281, Note_off_c, 0, 66, 43
1, 8343, Note_on_c, 0, 67, 37
1, 8363, Control_c, 0, 64, 113
1, 8378, Control_c, 0, 64, 88
1, 8393, Control_c, 0, 64, 75
1, 8408, Control_c, 0, 64, 64
1, 8422, Control_c, 0, 64, 49
1, 8437, Control_c, 0, 64, 45
1, 8452, Control_c, 0, 64, 56
1, 8466, Control_c, 0, 64, 64
1, 8481, Control_c, 0, 64, 70
1, 8496, Control_c, 0, 64, 75
1, 8511, Control_c, 0, 64, 81
1, 8527, Control_c, 0, 64, 85
1, 8542, Control_c, 0, 64, 87
1, 8557, Control_c, 0, 64, 90
1, 8564, Note_off_c, 0, 74, 46
1, 8571, Control_c, 0, 64, 96
1, 8586, Control_c, 0, 64, 100
1, 8601, Control_c, 0, 64, 103
1, 8601, Control_c, 0, 67, 12
1, 8616, Control_c, 0, 64, 104
1, 8616, Control_c, 0, 67, 19
1, 8631, Control_c, 0, 64, 106
1, 8631, Control_c, 0, 67, 28
1, 8645, Control_c, 0, 64, 107
1, 8645, Control_c, 0, 67, 36
1, 8660, Control_c, 0, 64, 108
1, 8660, Control_c, 0, 67, 42
1, 8675, Control_c, 0, 64, 109
1, 8675, Control_c, 0, 67, 49
1, 8690, Control_c, 0, 67, 56
1, 8705, Control_c, 0, 67, 64
1, 8719, Control_c, 0, 64, 109
1, 8719, Control_c, 0, 67, 72
1, 8734, Control_c, 0, 67, 80
1, 8749, Control_c, 0, 67, 87
1, 8763, Note_on_c, 0, 74, 51
1, 8764, Control_c, 0, 67, 93
1, 8778, Control_c, 0, 67, 100
1, 8793, Control_c, 0, 67, 106
1, 8808, Control_c, 0, 67, 113
1, 8823, Control_c, 0, 67, 121
1, 8845, Control_c, 0, 67, 127
1, 8860, Control_c, 0, 67, 127
1, 8861, Note_off_c, 0, 59, 38
1, 9127, Control_c, 0, 64, 109
1, 9142, Control_c, 0, 64, 108
1, 9157, Control_c, 0, 64, 108
1, 9172, Control_c, 0, 64, 107
1, 9187, Control_c, 0, 64, 106
1, 9202, Control_c, 0, 64, 105
1, 9216, Control_c, 0, 64, 104
1, 9231, Control_c, 0, 64, 101
1, 9246, Control_c, 0, 64, 97
1, 9259, Note_on_c, 0, 73, 43
1, 9261, Control_c, 0, 64, 90
1, 9276, Control_c, 0, 64, 83
1, 9290, Control_c, 0, 64, 78
1, 9291, Note_off_c, 0, 74, 31
1, 9305, Control_c, 0, 64, 74
1, 9321, Control_c, 0, 64, 70
1, 9336, Control_c, 0, 64, 65
1, 9351, Control_c, 0, 64, 62
1, 9365, Control_c, 0, 64, 58
1, 9380, Control_c, 0, 64, 50
1, 9395, Control_c, 0, 64, 34
1, 9410, Control_c, 0, 64, 0
1, 9440, Control_c, 0, 67, 127
1, 9455, Control_c, 0, 67, 125
1, 9469, Control_c, 0, 67, 122
1, 9484, Control_c, 0, 67, 118
1, 9499, Control_c, 0, 67, 114
1, 9513, Control_c, 0, 67, 111
1, 9528, Control_c, 0, 67, 108
1, 9539, Note_off_c, 0, 73, 55
1, 9540, Note_on_c, 0, 71, 39
1, 9543, Control_c, 0, 67, 106
1, 9558, Control_c, 0, 67, 102
1, 9573, Control_c, 0, 67, 97
1, 9595, Control_c, 0, 67, 92
1, 9610, Control_c, 0, 67, 87
1, 9625, Control_c, 0, 67, 84
1, 9640, Control_c, 0, 67, 82
1, 9655, Control_c, 0, 67, 79
1, 9670, Control_c, 0, 67, 75
1, 9684, Control_c, 0, 67, 71
1, 9699, Control_c, 0, 67, 66
1, 9713, Control_c, 0, 67, 63
1, 9727, Control_c, 0, 67, 59
1, 9738, Note_off_c, 0, 67, 49
1, 9742, Control_c, 0, 67, 56
1, 9757, Control_c, 0, 64, 41
1, 9757, Control_c, 0, 67, 51
1, 9761, Note_on_c, 0, 66, 33
1, 9762, Note_on_c, 0, 62, 22
1, 9772, Control_c, 0, 64, 61
1, 9772, Control_c, 0, 67, 44
1, 9787, Control_c, 0, 64, 66
1, 9787, Control_c, 0, 67, 34
1, 9801, Control_c, 0, 64, 69
1, 9801, Control_c, 0, 67, 24
1, 9816, Control_c, 0, 64, 72
1, 9816, Control_c, 0, 67, 13
1, 9831, Control_c, 0, 64, 74
1, 9831, Control_c, 0, 67, 0
1, 9846, Control_c, 0, 64, 78
1, 9861, Control_c, 0, 64, 81
1, 9875, Control_c, 0, 64, 84
1, 9890, Control_c, 0, 64, 87
1, 9905, Control_c, 0, 64, 91
1, 9920, Control_c, 0, 64, 95
1, 9935, Control_c, 0, 64, 98
1, 9941, Note_off_c, 0, 62, 37
1, 9950, Control_c, 0, 64, 100
1, 9965, Control_c, 0, 64, 102
1, 9980, Control_c, 0, 64, 104
1, 9985, Note_off_c, 0, 66, 41
1, 9994, Control_c, 0, 64, 106
1, 10143, Control_c, 0, 64, 104
1, 10158, Control_c, 0, 64, 100
1, 10159, Note_on_c, 0, 67, 38
1, 10164, Note_on_c, 0, 64, 37
1, 10173, Control_c, 0, 64, 90
1, 10188, Control_c, 0, 64, 75
1, 10203, Control_c, 0, 64, 61
1, 10217, Control_c, 0, 64, 0
1, 10262, Control_c, 0, 64, 58
1, 10277, Control_c, 0, 64, 68
1, 10291, Control_c, 0, 64, 75
1, 10306, Control_c, 0, 64, 81
1, 10321, Control_c, 0, 64, 84
1, 10343, Control_c, 0, 64, 85
1, 10358, Control_c, 0, 64, 86
1, 10373, Control_c, 0, 64, 88
1, 10374, Note_on_c, 0, 74, 54
1, 10388, Control_c, 0, 64, 91
1, 10397, Note_off_c, 0, 67, 44
1, 10403, Control_c, 0, 64, 93
1, 10417, Control_c, 0, 64, 94
1, 10430, Note_off_c, 0, 64, 36
1, 10432, Control_c, 0, 64, 95
1, 10533, Note_off_c, 0, 71, 38
1, 10536, Control_c, 0, 64, 90
1, 10550, Control_c, 0, 64, 80
1, 10563, Note_on_c, 0, 66, 41
1, 10564, Note_on_c, 0, 73, 59
1, 10565, Control_c, 0, 64, 66
1, 10567, Note_on_c, 0, 62, 39
1, 10580, Control_c, 0, 64, 23
1, 10584, Note_off_c, 0, 74, 51
1, 10595, Control_c, 0, 64, 0
1, 10624, Control_c, 0, 64, 36
1, 10639, Control_c, 0, 64, 64
1, 10654, Control_c, 0, 64, 72
1, 10669, Control_c, 0, 64, 78
1, 10684, Control_c, 0, 64, 81
1, 10698, Control_c, 0, 64, 82
1, 10728, Control_c, 0, 64, 82
1, 10746, Note_on_c, 0, 71, 67
1, 10751, Note_off_c, 0, 62, 51
1, 10755, Note_off_c, 0, 73, 62
1, 10758, Control_c, 0, 64, 83
1, 10781, Note_off_c, 0, 66, 58
1, 10802, Control_c, 0, 64, 83
1, 10922, Control_c, 0, 64, 81
1, 10936, Control_c, 0, 64, 74
1, 10945, Note_on_c, 0, 64, 41
1, 10945, Note_off_c, 0, 71, 57
1, 10951, Control_c, 0, 64, 65
1, 10952, Note_on_c, 0, 61, 48
1, 10952, Note_on_c, 0, 76, 67
1, 10966, Control_c, 0, 64, 0
1, 11040, Control_c, 0, 64, 65
1, 11055, Control_c, 0, 64, 73
1, 11070, Control_c, 0, 64, 80
1, 11092, Control_c, 0, 64, 83
1, 11105, Note_off_c, 0, 64, 63
1, 11107, Control_c, 0, 64, 84
1, 11121, Control_c, 0, 64, 85
1, 11136, Control_c, 0, 64, 87
1, 11142, Note_off_c, 0, 61, 62
1, 11151, Control_c, 0, 64, 90
1, 11163, Note_on_c, 0, 70, 71
1, 11166, Control_c, 0, 64, 92
1, 11181, Control_c, 0, 64, 94
1, 11196, Control_c, 0, 64, 96
1, 11211, Control_c, 0, 64, 97
1, 11222, Note_off_c, 0, 76, 37
1, 11226, Control_c, 0, 64, 97
1, 11314, Control_c, 0, 64, 91
1, 11329, Control_c, 0, 64, 78
1, 11344, Control_c, 0, 64, 66
1, 11354, Note_on_c, 0, 59, 50
1, 11359, Control_c, 0, 64, 46
1, 11373, Control_c, 0, 64, 26
1, 11388, Control_c, 0, 64, 48
1, 11403, Control_c, 0, 64, 63
1, 11418, Control_c, 0, 64, 71
1, 11433, Control_c, 0, 64, 77
1, 11447, Control_c, 0, 64, 80
1, 11462, Control_c, 0, 64, 81
1, 11536, Control_c, 0, 64, 81
1, 11560, Note_on_c, 0, 71, 68
1, 11567, Note_off_c, 0, 70, 61
1, 11625, Control_c, 0, 64, 80
1, 11640, Control_c, 0, 64, 79
1, 11655, Control_c, 0, 64, 78
1, 11670, Control_c, 0, 64, 77
1, 11685, Control_c, 0, 64, 76
1, 11699, Control_c, 0, 64, 73
1, 11715, Control_c, 0, 64, 71
1, 11730, Control_c, 0, 64, 68
1, 11744, Control_c, 0, 64, 65
1, 11759, Control_c, 0, 64, 57
1, 11774, Control_c, 0, 64, 0
1, 11790, Note_on_c, 0, 73, 68
1, 11790, Note_off_c, 0, 59, 55
1, 11801, Note_on_c, 0, 54, 39
1, 11807, Note_off_c, 0, 71, 52
1, 11995, Note_on_c, 0, 76, 71
1, 12016, Note_off_c, 0, 73, 59
1, 12182, Note_on_c, 0, 74, 76
1, 12233, Note_off_c, 0, 76, 55
1, 12368, Note_on_c, 0, 73, 77
1, 12374, Control_c, 0, 64, 47
1, 12388, Control_c, 0, 64, 61
1, 12403, Control_c, 0, 64, 65
1, 12406, Note_off_c, 0, 74, 60
1, 12418, Control_c, 0, 64, 70
1, 12433, Control_c, 0, 64, 74
1, 12448, Control_c, 0, 64, 78
1, 12456, Note_off_c, 0, 54, 63
1, 12463, Control_c, 0, 64, 82
1, 12478, Control_c, 0, 64, 85
1, 12492, Control_c, 0, 64, 87
1, 12508, Control_c, 0, 64, 88
1, 12567, Control_c, 0, 64, 87
1, 12590, Control_c, 0, 64, 86
1, 12594, Note_on_c, 0, 74, 72
1, 12605, Control_c, 0, 64, 85
1, 12619, Note_off_c, 0, 73, 57
1, 12619, Control_c, 0, 64, 84
1, 12622, Note_on_c, 0, 71, 39
1, 12634, Control_c, 0, 64, 81
1, 12649, Control_c, 0, 64, 77
1, 12664, Control_c, 0, 64, 70
1, 12679, Control_c, 0, 64, 65
1, 12693, Control_c, 0, 64, 61
1, 12709, Control_c, 0, 64, 53
1, 12724, Control_c, 0, 64, 33
1, 12738, Control_c, 0, 64, 0
1, 12763, Note_off_c, 0, 71, 49
1, 12790, Note_on_c, 0, 67, 37
1, 12996, Note_off_c, 0, 67, 36
1, 13000, Note_on_c, 0, 64, 29
1, 13196, Note_on_c, 0, 61, 32
1, 13199, Note_off_c, 0, 64, 45
1, 13406, Note_off_c, 0, 61, 39
1, 13425, Note_on_c, 0, 55, 34
1, 13636, Note_on_c, 0, 76, 53
1, 13644, Note_off_c, 0, 74, 56
1, 13813, Note_on_c, 0, 73, 68
1, 13887, Control_c, 0, 64, 32
1, 13899, Note_off_c, 0, 76, 35
1, 13902, Control_c, 0, 64, 62
1, 13917, Control_c, 0, 64, 67
1, 13932, Control_c, 0, 64, 72
1, 13947, Control_c, 0, 64, 75
1, 13961, Control_c, 0, 64, 78
1, 13976, Control_c, 0, 64, 81
1, 13990, Note_on_c, 0, 74, 74
1, 13991, Control_c, 0, 64, 85
1, 14006, Control_c, 0, 64, 89
1, 14013, Note_off_c, 0, 73, 57
1, 14021, Control_c, 0, 64, 92
1, 14035, Control_c, 0, 64, 93
1, 14050, Control_c, 0, 64, 95
1, 14058, Note_off_c, 0, 74, 60
1, 14065, Control_c, 0, 64, 95
1, 14087, Control_c, 0, 64, 96
1, 14117, Control_c, 0, 64, 95
1, 14134, Note_off_c, 0, 55, 41
1, 14162, Control_c, 0, 64, 95
1, 14177, Control_c, 0, 64, 94
1, 14192, Control_c, 0, 64, 93
1, 14206, Control_c, 0, 64, 91
1, 14209, Note_on_c, 0, 74, 59
1, 14221, Control_c, 0, 64, 89
1, 14231, Note_on_c, 0, 71, 45
1, 14236, Control_c, 0, 64, 87
1, 14251, Control_c, 0, 64, 83
1, 14265, Control_c, 0, 64, 78
1, 14280, Control_c, 0, 64, 74
1, 14295, Control_c, 0, 64, 71
1, 14310, Control_c, 0, 64, 68
1, 14324, Control_c, 0, 64, 65
1, 14339, Control_c, 0, 64, 64
1, 14354, Control_c, 0, 64, 62
1, 14369, Control_c, 0, 64, 60
1, 14384, Control_c, 0, 64, 56
1, 14398, Control_c, 0, 64, 49
1, 14407, Note_off_c, 0, 71, 54
1, 14413, Control_c, 0, 64, 42
1, 14414, Note_on_c, 0, 76, 63
1, 14419, Note_on_c, 0, 67, 39
1, 14428, Control_c, 0, 64, 29
1, 14436, Note_off_c, 0, 74, 55
1, 14443, Control_c, 0, 64, 0
1, 14621, Note_on_c, 0, 64, 33
1, 14630, Note_off_c, 0, 67, 37
1, 14798, Control_c, 0, 64, 31
1, 14813, Control_c, 0, 64, 63
1, 14817, Note_on_c, 0, 61, 20
1, 14822, Note_off_c, 0, 64, 41
1, 14835, Control_c, 0, 64, 70
1, 14850, Control_c, 0, 64, 76
1, 14865, Control_c, 0, 64, 80
1, 14880, Control_c, 0, 64, 82
1, 14895, Control_c, 0, 64, 84
1, 14910, Control_c, 0, 64, 86
1, 14925, Control_c, 0, 64, 87
1, 14940, Control_c, 0, 64, 87
1, 14980, Note_off_c, 0, 61, 38
1, 15013, Control_c, 0, 64, 85
1, 15028, Control_c, 0, 64, 78
1, 15033, Note_on_c, 0, 55, 31
1, 15043, Control_c, 0, 64, 69
1, 15058, Control_c, 0, 64, 60
1, 15073, Control_c, 0, 64, 43
1, 15087, Control_c, 0, 64, 53
1, 15102, Control_c, 0, 64, 64
1, 15117, Control_c, 0, 64, 71
1, 15132, Control_c, 0, 64, 77
1, 15146, Control_c, 0, 64, 81
1, 15161, Control_c, 0, 64, 83
1, 15176, Control_c, 0, 64, 86
1, 15191, Control_c, 0, 64, 90
1, 15202, Note_off_c, 0, 76, 48
1, 15206, Control_c, 0, 64, 94
1, 15220, Control_c, 0, 64, 100
1, 15226, Note_on_c, 0, 79, 57
1, 15235, Control_c, 0, 64, 104
1, 15250, Control_c, 0, 64, 108
1, 15265, Control_c, 0, 64, 114
1, 15280, Control_c, 0, 64, 123
1, 15294, Control_c, 0, 64, 127
1, 15327, Note_off_c, 0, 79, 48
1, 15409, Note_on_c, 0, 73, 69
1, 15599, Note_on_c, 0, 74, 79
1, 15631, Note_off_c, 0, 55, 41
1, 15634, Note_off_c, 0, 73, 57
1, 15655, Note_off_c, 0, 74, 63
1, 15796, Note_on_c, 0, 74, 69
1, 15807, Control_c, 0, 64, 110
1, 15815, Note_on_c, 0, 67, 51
1, 15822, Control_c, 0, 64, 94
1, 15837, Control_c, 0, 64, 82
1, 15852, Control_c, 0, 64, 72
1, 15867, Control_c, 0, 64, 64
1, 15882, Control_c, 0, 64, 53
1, 15897, Control_c, 0, 64, 33
1, 15911, Control_c, 0, 64, 0
1, 15991, Note_on_c, 0, 76, 71
1, 15998, Note_on_c, 0, 64, 47
1, 16009, Note_off_c, 0, 74, 58
1, 16029, Note_off_c, 0, 67, 47
1, 16118, Control_c, 0, 64, 51
1, 16133, Control_c, 0, 64, 63
1, 16148, Control_c, 0, 64, 67
1, 16162, Control_c, 0, 64, 70
1, 16177, Control_c, 0, 64, 73
1, 16185, Note_off_c, 0, 64, 57
1, 16190, Note_on_c, 0, 61, 42
1, 16192, Control_c, 0, 64, 75
1, 16207, Control_c, 0, 64, 79
1, 16222, Control_c, 0, 64, 83
1, 16232, Note_off_c, 0, 61, 58
1, 16236, Control_c, 0, 64, 87
1, 16251, Control_c, 0, 64, 91
1, 16266, Control_c, 0, 64, 95
1, 16281, Control_c, 0, 64, 98
1, 16296, Control_c, 0, 64, 102
1, 16311, Control_c, 0, 64, 104
1, 16326, Control_c, 0, 64, 107
1, 16348, Control_c, 0, 64, 108
1, 16362, Control_c, 0, 64, 110
1, 16377, Control_c, 0, 64, 111
1, 16389, Note_on_c, 0, 55, 39
1, 16392, Control_c, 0, 64, 112
1, 16407, Control_c, 0, 64, 113
1, 16422, Control_c, 0, 64, 114
1, 16436, Control_c, 0, 64, 116
1, 16451, Control_c, 0, 64, 116
1, 16466, Control_c, 0, 64, 117
1, 16543, Note_off_c, 0, 55, 34
1, 16600, Control_c, 0, 64, 113
1, 16615, Control_c, 0, 64, 100
1, 16618, Note_on_c, 0, 49, 52
1, 16630, Control_c, 0, 64, 83
1, 16645, Control_c, 0, 64, 67
1, 16659, Control_c, 0, 64, 49
1, 16674, Control_c, 0, 64, 34
1, 16689, Control_c, 0, 64, 55
1, 16703, Control_c, 0, 64, 66
1, 16718, Control_c, 0, 64, 71
1, 16733, Control_c, 0, 64, 75
1, 16748, Control_c, 0, 64, 78
1, 16763, Control_c, 0, 64, 80
1, 16777, Control_c, 0, 64, 82
1, 16792, Control_c, 0, 64, 84
1, 16807, Control_c, 0, 64, 86
1, 16822, Control_c, 0, 64, 88
1, 16837, Control_c, 0, 64, 91
1, 16846, Note_off_c, 0, 49, 52
1, 16848, Note_on_c, 0, 83, 69
1, 16851, Control_c, 0, 64, 94
1, 16866, Control_c, 0, 64, 96
1, 16881, Control_c, 0, 64, 98
1, 16896, Control_c, 0, 64, 99
1, 16910, Control_c, 0, 64, 99
1, 16925, Control_c, 0, 64, 100
1, 16940, Control_c, 0, 64, 101
1, 16955, Control_c, 0, 64, 102
1, 16970, Control_c, 0, 64, 103
1, 16974, Note_off_c, 0, 76, 25
1, 16985, Control_c, 0, 64, 103
1, 17000, Control_c, 0, 64, 104
1, 17050, Note_on_c, 0, 73, 72
1, 17125, Control_c, 0, 64, 104
1, 17240, Note_on_c, 0, 74, 81
1, 17279, Note_off_c, 0, 83, 56
1, 17280, Note_off_c, 0, 73, 59
1, 17309, Note_off_c, 0, 74, 64
1, 17393, Control_c, 0, 64, 103
1, 17408, Control_c, 0, 64, 99
1, 17423, Control_c, 0, 64, 95
1, 17434, Note_on_c, 0, 74, 71
1, 17438, Control_c, 0, 64, 89
1, 17451, Note_on_c, 0, 67, 54
1, 17453, Control_c, 0, 64, 83
1, 17468, Control_c, 0, 64, 77
1, 17482, Control_c, 0, 64, 71
1, 17497, Control_c, 0, 64, 66
1, 17512, Control_c, 0, 64, 59
1, 17526, Control_c, 0, 64, 50
1, 17541, Control_c, 0, 64, 38
1, 17556, Control_c, 0, 64, 0
1, 17632, Note_on_c, 0, 76, 77
1, 17633, Note_on_c, 0, 64, 50
1, 17651, Note_off_c, 0, 74, 62
1, 17710, Note_off_c, 0, 67, 53
1, 17748, Control_c, 0, 64, 61
1, 17763, Control_c, 0, 64, 66
1, 17778, Control_c, 0, 64, 67
1, 17793, Control_c, 0, 64, 68
1, 17807, Control_c, 0, 64, 70
1, 17830, Control_c, 0, 64, 72
1, 17834, Note_off_c, 0, 64, 62
1, 17835, Note_on_c, 0, 61, 47
1, 17845, Control_c, 0, 64, 74
1, 17859, Control_c, 0, 64, 76
1, 17874, Control_c, 0, 64, 78
1, 17881, Note_off_c, 0, 61, 60
1, 17889, Control_c, 0, 64, 82
1, 17904, Control_c, 0, 64, 86
1, 17919, Control_c, 0, 64, 90
1, 17933, Control_c, 0, 64, 93
1, 17948, Control_c, 0, 64, 96
1, 17963, Control_c, 0, 64, 99
1, 17978, Control_c, 0, 64, 102
1, 17993, Control_c, 0, 64, 104
1, 18007, Control_c, 0, 64, 108
1, 18018, Note_on_c, 0, 55, 45
1, 18022, Control_c, 0, 64, 111
1, 18037, Control_c, 0, 64, 114
1, 18052, Control_c, 0, 64, 119
1, 18067, Control_c, 0, 64, 124
1, 18082, Control_c, 0, 64, 127
1, 18224, Note_on_c, 0, 49, 64
1, 18229, Note_off_c, 0, 55, 57
1, 18246, Control_c, 0, 64, 112
1, 18260, Control_c, 0, 64, 93
1, 18275, Control_c, 0, 64, 77
1, 18290, Control_c, 0, 64, 65
1, 18305, Control_c, 0, 64, 51
1, 18320, Control_c, 0, 64, 53
1, 18335, Control_c, 0, 64, 63
1, 18349, Control_c, 0, 64, 69
1, 18364, Control_c, 0, 64, 74
1, 18379, Control_c, 0, 64, 78
1, 18394, Control_c, 0, 64, 81
1, 18409, Control_c, 0, 64, 84
1, 18422, Note_on_c, 0, 83, 78
1, 18423, Control_c, 0, 64, 87
1, 18438, Control_c, 0, 64, 90
1, 18439, Note_off_c, 0, 49, 59
1, 18453, Control_c, 0, 64, 94
1, 18468, Control_c, 0, 64, 97
1, 18482, Control_c, 0, 64, 101
1, 18497, Control_c, 0, 64, 105
1, 18512, Control_c, 0, 64, 110
1, 18526, Note_off_c, 0, 76, 60
1, 18527, Control_c, 0, 64, 115
1, 18542, Control_c, 0, 64, 122
1, 18556, Control_c, 0, 64, 127
1, 18627, Note_on_c, 0, 73, 81
1, 18802, Note_on_c, 0, 74, 86
1, 18847, Note_off_c, 0, 73, 59
1, 18859, Note_off_c, 0, 83, 55
1, 18888, Note_off_c, 0, 74, 62
1, 19009, Note_on_c, 0, 74, 77
1, 19013, Note_on_c, 0, 67, 54
1, 19040, Control_c, 0, 64, 106
1, 19054, Control_c, 0, 64, 96
1, 19069, Control_c, 0, 64, 88
1, 19084, Control_c, 0, 64, 82
1, 19098, Control_c, 0, 64, 76
1, 19113, Control_c, 0, 64, 71
1, 19128, Control_c, 0, 64, 67
1, 19143, Control_c, 0, 64, 64
1, 19158, Control_c, 0, 64, 63
1, 19173, Control_c, 0, 64, 62
1, 19202, Control_c, 0, 64, 62
1, 19208, Note_on_c, 0, 76, 81
1, 19217, Control_c, 0, 64, 58
1, 19220, Note_on_c, 0, 64, 52
1, 19232, Control_c, 0, 64, 47
1, 19246, Note_off_c, 0, 74, 63
1, 19247, Control_c, 0, 64, 0
1, 19252, Note_off_c, 0, 67, 51
1, 19328, Control_c, 0, 64, 50
1, 19343, Control_c, 0, 64, 65
1, 19358, Control_c, 0, 64, 70
1, 19373, Control_c, 0, 64, 74
1, 19387, Control_c, 0, 64, 77
1, 19402, Control_c, 0, 64, 79
1, 19416, Note_off_c, 0, 64, 59
1, 19417, Control_c, 0, 64, 83
1, 19425, Note_on_c, 0, 61, 41
1, 19432, Control_c, 0, 64, 86
1, 19447, Control_c, 0, 64, 89
1, 19462, Control_c, 0, 64, 91
1, 19477, Control_c, 0, 64, 93
1, 19479, Note_off_c, 0, 61, 51
1, 19492, Control_c, 0, 64, 95
1, 19506, Control_c, 0, 64, 98
1, 19521, Control_c, 0, 64, 99
1, 19536, Control_c, 0, 64, 100
1, 19551, Control_c, 0, 64, 101
1, 19566, Control_c, 0, 64, 102
1, 19580, Control_c, 0, 64, 102
1, 19595, Control_c, 0, 64, 103
1, 19610, Control_c, 0, 64, 103
1, 19642, Note_on_c, 0, 57, 44
1, 19654, Control_c, 0, 64, 104
1, 19669, Control_c, 0, 64, 104
1, 19684, Control_c, 0, 64, 105
1, 19700, Control_c, 0, 64, 105
1, 19729, Control_c, 0, 64, 106
1, 19833, Control_c, 0, 64, 105
1, 19848, Control_c, 0, 64, 103
1, 19863, Control_c, 0, 64, 100
1, 19877, Control_c, 0, 64, 97
1, 19892, Control_c, 0, 64, 94
1, 19907, Control_c, 0, 64, 90
1, 19908, Note_on_c, 0, 45, 41
1, 19922, Control_c, 0, 64, 82
1, 19936, Control_c, 0, 64, 74
1, 19949, Note_off_c, 0, 57, 33
1, 19951, Control_c, 0, 64, 66
1, 19966, Control_c, 0, 64, 55
1, 19981, Control_c, 0, 64, 47
1, 19996, Control_c, 0, 64, 48
1, 20010, Control_c, 0, 64, 57
1, 20025, Control_c, 0, 64, 64
1, 20040, Control_c, 0, 64, 70
1, 20055, Control_c, 0, 64, 73
1, 20077, Control_c, 0, 64, 75
1, 20092, Control_c, 0, 64, 77
1, 20107, Control_c, 0, 64, 79
1, 20122, Control_c, 0, 64, 80
1, 20136, Control_c, 0, 64, 82
1, 20151, Control_c, 0, 64, 84
1, 20166, Control_c, 0, 64, 86
1, 20181, Control_c, 0, 64, 87
1, 20185, Note_on_c, 0, 83, 54
1, 20195, Control_c, 0, 64, 89
1, 20210, Control_c, 0, 64, 90
1, 20225, Control_c, 0, 64, 90
1, 20240, Control_c, 0, 64, 91
1, 20254, Control_c, 0, 64, 92
1, 20276, Note_off_c, 0, 76, 57
1, 20284, Control_c, 0, 64, 92
1, 20314, Control_c, 0, 64, 93
1, 20377, Note_on_c, 0, 81, 74
1, 20398, Note_off_c, 0, 83, 57
1, 20476, Control_c, 0, 64, 92
1, 20491, Control_c, 0, 64, 92
1, 20507, Control_c, 0, 64, 91
1, 20522, Control_c, 0, 64, 90
1, 20537, Control_c, 0, 64, 88
1, 20545, Note_off_c, 0, 81, 63
1, 20551, Control_c, 0, 64, 86
1, 20560, Note_on_c, 0, 79, 78
1, 20566, Control_c, 0, 64, 84
1, 20581, Control_c, 0, 64, 82
1, 20596, Control_c, 0, 64, 80
1, 20611, Control_c, 0, 64, 77
1, 20625, Control_c, 0, 64, 72
1, 20640, Control_c, 0, 64, 67
1, 20655, Control_c, 0, 64, 65
1, 20669, Control_c, 0, 64, 63
1, 20684, Control_c, 0, 64, 61
1, 20699, Control_c, 0, 64, 55
1, 20714, Control_c, 0, 64, 31
1, 20729, Control_c, 0, 64, 0
1, 20742, Note_on_c, 0, 78, 76
1, 20768, Note_off_c, 0, 79, 55
1, 20932, Note_on_c, 0, 76, 79
1, 20982, Note_off_c, 0, 78, 56
1, 21003, Control_c, 0, 64, 31
1, 21018, Control_c, 0, 64, 47
1, 21030, Note_off_c, 0, 45, 44
1, 21092, Control_c, 0, 64, 45
1, 21107, Control_c, 0, 64, 42
1, 21110, Note_off_c, 0, 76, 62
1, 21111, Note_on_c, 0, 74, 77
1, 21122, Control_c, 0, 64, 42
1, 21126, Note_on_c, 0, 57, 54
1, 21137, Control_c, 0, 64, 41
1, 21151, Control_c, 0, 64, 40
1, 21196, Control_c, 0, 64, 39
1, 21255, Control_c, 0, 64, 38
1, 21269, Control_c, 0, 64, 38
1, 21287, Note_on_c, 0, 73, 80
1, 21315, Control_c, 0, 64, 36
1, 21319, Note_off_c, 0, 74, 55
1, 21330, Control_c, 0, 64, 30
1, 21345, Control_c, 0, 64, 28
1, 21389, Control_c, 0, 64, 26
1, 21404, Control_c, 0, 64, 24
1, 21419, Control_c, 0, 64, 21
1, 21434, Control_c, 0, 64, 14
1, 21441, Note_off_c, 0, 57, 50
1, 21448, Control_c, 0, 64, 0
1, 21474, Note_off_c, 0, 73, 63
1, 21483, Note_on_c, 0, 59, 47
1, 21489, Note_on_c, 0, 74, 78
1, 21668, Note_on_c, 0, 86, 78
1, 21673, Note_off_c, 0, 74, 54
1, 21833, Note_off_c, 0, 59, 53
1, 21855, Note_on_c, 0, 83, 75
1, 21856, Note_on_c, 0, 55, 43
1, 21880, Note_off_c, 0, 86, 62
1, 22028, Note_off_c, 0, 83, 64
1, 22040, Note_on_c, 0, 79, 73
1, 22227, Note_off_c, 0, 55, 42
1, 22231, Note_off_c, 0, 79, 58
1, 22237, Note_on_c, 0, 78, 67
1, 22249, Note_on_c, 0, 57, 37
1, 22454, Note_on_c, 0, 74, 64
1, 22455, Note_off_c, 0, 78, 55
1, 22634, Note_off_c, 0, 57, 39
1, 22640, Note_on_c, 0, 45, 35
1, 22827, Note_off_c, 0, 74, 56
1, 22827, Control_c, 0, 64, 47
1, 22841, Note_on_c, 0, 73, 55
1, 22842, Control_c, 0, 64, 63
1, 22857, Control_c, 0, 64, 64
1, 22872, Control_c, 0, 64, 66
1, 22887, Control_c, 0, 64, 67
1, 22902, Control_c, 0, 64, 68
1, 22932, Control_c, 0, 64, 68
1, 22961, Control_c, 0, 64, 68
1, 22973, Note_off_c, 0, 45, 44
1, 23006, Control_c, 0, 64, 67
1, 23021, Control_c, 0, 64, 67
1, 23021, Control_c, 0, 67, 8
1, 23036, Control_c, 0, 64, 66
1, 23036, Control_c, 0, 67, 10
1, 23051, Control_c, 0, 64, 64
1, 23051, Control_c, 0, 67, 13
1, 23057, Note_off_c, 0, 73, 63
1, 23072, Control_c, 0, 64, 62
1, 23072, Control_c, 0, 67, 17
1, 23087, Note_on_c, 0, 74, 56
1, 23087, Control_c, 0, 64, 55
1, 23087, Control_c, 0, 67, 22
1, 23095, Note_on_c, 0, 59, 36
1, 23102, Control_c, 0, 64, 39
1, 23102, Control_c, 0, 67, 29
1, 23117, Control_c, 0, 64, 0
1, 23117, Control_c, 0, 67, 36
1, 23132, Control_c, 0, 67, 44
1, 23146, Control_c, 0, 67, 52
1, 23161, Control_c, 0, 67, 60
1, 23176, Control_c, 0, 67, 68
1, 23191, Control_c, 0, 67, 79
1, 23206, Control_c, 0, 67, 90
1, 23221, Control_c, 0, 67, 102
1, 23236, Control_c, 0, 67, 114
1, 23251, Control_c, 0, 67, 127
1, 23292, Note_off_c, 0, 74, 40
1, 23316, Note_on_c, 0, 86, 50
1, 23495, Note_off_c, 0, 59, 43
1, 23504, Note_off_c, 0, 86, 58
1, 23509, Note_on_c, 0, 55, 32
1, 23510, Note_on_c, 0, 83, 51
1, 23654, Note_off_c, 0, 83, 63
1, 23693, Note_on_c, 0, 79, 52
1, 23866, Note_off_c, 0, 79, 60
1, 23874, Note_off_c, 0, 55, 42
1, 23900, Note_on_c, 0, 78, 43
1, 23902, Note_on_c, 0, 57, 22
1, 24077, Note_off_c, 0, 78, 57
1, 24100, Note_on_c, 0, 74, 47
1, 24327, Note_on_c, 0, 45, 22
1, 24336, Note_off_c, 0, 57, 44
1, 24473, Control_c, 0, 64, 55
1, 24488, Control_c, 0, 64, 63
1, 24504, Control_c, 0, 64, 65
1, 24518, Control_c, 0, 64, 64
1, 24533, Control_c, 0, 64, 64
1, 24547, Note_on_c, 0, 73, 45
1, 24548, Control_c, 0, 64, 63
1, 24555, Note_off_c, 0, 74, 55
1, 24586, Control_c, 0, 64, 63
1, 24600, Control_c, 0, 64, 61
1, 24615, Control_c, 0, 64, 59
1, 24630, Control_c, 0, 64, 57
1, 24645, Control_c, 0, 64, 54
1, 24652, Note_off_c, 0, 45, 53
1, 24659, Control_c, 0, 64, 51
1, 24674, Control_c, 0, 64, 47
1, 24688, Control_c, 0, 64, 41
1, 24703, Control_c, 0, 64, 32
1, 24717, Control_c, 0, 64, 26
1, 24732, Control_c, 0, 64, 0
1, 24830, Note_off_c, 0, 73, 56
1, 24839, Note_on_c, 0, 74, 43
1, 25066, Note_on_c, 0, 71, 38
1, 25078, Note_off_c, 0, 74, 51
1, 25288, Note_on_c, 0, 59, 25
1, 25307, Note_on_c, 0, 62, 19
1, 25334, Control_c, 0, 64, 30
1, 25348, Control_c, 0, 64, 58
1, 25363, Control_c, 0, 64, 65
1, 25378, Control_c, 0, 64, 68
1, 25393, Control_c, 0, 64, 72
1, 25408, Control_c, 0, 64, 75
1, 25422, Control_c, 0, 64, 78
1, 25438, Control_c, 0, 64, 80
1, 25453, Control_c, 0, 64, 82
1, 25456, Note_off_c, 0, 62, 41
1, 25459, Note_off_c, 0, 71, 57
1, 25466, Note_off_c, 0, 59, 41
1, 25468, Control_c, 0, 64, 84
1, 25482, Control_c, 0, 64, 85
1, 25497, Control_c, 0, 64, 87
1, 25506, Note_on_c, 0, 69, 36
1, 25512, Control_c, 0, 64, 89
1, 25527, Control_c, 0, 64, 89
1, 25542, Control_c, 0, 64, 90
1, 25674, Control_c, 0, 64, 89
1, 25688, Note_off_c, 0, 69, 52
1, 25689, Control_c, 0, 64, 87
1, 25700, Note_on_c, 0, 59, 36
1, 25704, Note_on_c, 0, 68, 49
1, 25704, Control_c, 0, 64, 83
1, 25707, Note_on_c, 0, 62, 30
1, 25719, Control_c, 0, 64, 74
1, 25734, Control_c, 0, 64, 65
1, 25749, Control_c, 0, 64, 47
1, 25763, Control_c, 0, 64, 23
1, 25778, Control_c, 0, 64, 51
1, 25793, Control_c, 0, 64, 64
1, 25808, Control_c, 0, 64, 69
1, 25823, Control_c, 0, 64, 74
1, 25838, Control_c, 0, 64, 76
1, 25853, Control_c, 0, 64, 77
1, 25867, Control_c, 0, 64, 78
1, 25869, Note_off_c, 0, 59, 45
1, 25878, Note_off_c, 0, 68, 50
1, 25882, Control_c, 0, 64, 80
1, 25884, Note_off_c, 0, 62, 41
1, 25897, Control_c, 0, 64, 81
1, 25898, Note_on_c, 0, 65, 43
1, 25912, Control_c, 0, 64, 82
1, 25927, Control_c, 0, 64, 83
1, 25941, Control_c, 0, 64, 84
1, 26045, Control_c, 0, 64, 81
1, 26067, Control_c, 0, 64, 74
1, 26079, Note_off_c, 0, 65, 56
1, 26082, Control_c, 0, 64, 65
1, 26097, Control_c, 0, 64, 0
1, 26106, Note_on_c, 0, 59, 33
1, 26107, Note_on_c, 0, 64, 47
1, 26110, Note_on_c, 0, 62, 33
1, 26157, Control_c, 0, 64, 29
1, 26172, Control_c, 0, 64, 64
1, 26187, Control_c, 0, 64, 71
1, 26202, Control_c, 0, 64, 77
1, 26217, Control_c, 0, 64, 80
1, 26231, Control_c, 0, 64, 81
1, 26246, Control_c, 0, 64, 83
1, 26246, Note_off_c, 0, 62, 33
1, 26250, Note_off_c, 0, 59, 36
1, 26261, Control_c, 0, 64, 85
1, 26276, Control_c, 0, 64, 86
1, 26279, Note_off_c, 0, 64, 62
1, 26290, Control_c, 0, 64, 87
1, 26309, Note_on_c, 0, 62, 38
1, 26394, Control_c, 0, 64, 86
1, 26420, Note_off_c, 0, 62, 52
1, 26423, Control_c, 0, 64, 86
1, 26438, Control_c, 0, 64, 85
1, 26453, Control_c, 0, 64, 84
1, 26468, Control_c, 0, 64, 82
1, 26483, Control_c, 0, 64, 80
1, 26497, Control_c, 0, 64, 77
1, 26512, Note_on_c, 0, 76, 52
1, 26512, Control_c, 0, 64, 72
1, 26527, Control_c, 0, 64, 66
1, 26542, Control_c, 0, 64, 57
1, 26557, Control_c, 0, 64, 23
1, 26571, Control_c, 0, 64, 0
1, 26729, Note_off_c, 0, 76, 55
1, 26738, Note_on_c, 0, 73, 49
1, 26945, Note_on_c, 0, 61, 30
1, 26965, Note_on_c, 0, 64, 32
1, 26965, Control_c, 0, 64, 51
1, 26980, Control_c, 0, 64, 66
1, 26995, Control_c, 0, 64, 73
1, 27009, Control_c, 0, 64, 78
1, 27024, Control_c, 0, 64, 80
1, 27039, Control_c, 0, 64, 83
1, 27054, Control_c, 0, 64, 86
1, 27054, Control_c, 0, 67, 125
1, 27069, Control_c, 0, 64, 90
1, 27069, Control_c, 0, 67, 114
1, 27084, Control_c, 0, 64, 94
1, 27084, Control_c, 0, 67, 97
1, 27099, Control_c, 0, 64, 96
1, 27099, Control_c, 0, 67, 82
1, 27099, Note_off_c, 0, 61, 40
1, 27099, Note_off_c, 0, 64, 32
1, 27106, Note_off_c, 0, 73, 59
1, 27113, Control_c, 0, 64, 98
1, 27113, Control_c, 0, 67, 68
1, 27128, Control_c, 0, 64, 99
1, 27128, Control_c, 0, 67, 56
1, 27143, Control_c, 0, 64, 100
1, 27143, Control_c, 0, 67, 47
1, 27147, Note_on_c, 0, 71, 50
1, 27158, Control_c, 0, 64, 100
1, 27158, Control_c, 0, 67, 39
1, 27173, Control_c, 0, 64, 101
1, 27173, Control_c, 0, 67, 29
1, 27187, Control_c, 0, 67, 17
1, 27202, Control_c, 0, 67, 0
1, 27291, Control_c, 0, 64, 100
1, 27306, Control_c, 0, 64, 99
1, 27320, Control_c, 0, 64, 93
1, 27335, Control_c, 0, 64, 82
1, 27341, Note_off_c, 0, 71, 55
1, 27350, Control_c, 0, 64, 70
1, 27354, Note_on_c, 0, 61, 33
1, 27362, Note_on_c, 0, 64, 34
1, 27364, Note_on_c, 0, 70, 42
1, 27365, Control_c, 0, 64, 54
1, 27380, Control_c, 0, 64, 0
1, 27394, Control_c, 0, 64, 32
1, 27409, Control_c, 0, 64, 59
1, 27424, Control_c, 0, 64, 66
1, 27439, Control_c, 0, 64, 71
1, 27454, Control_c, 0, 64, 75
1, 27468, Control_c, 0, 64, 81
1, 27483, Control_c, 0, 64, 84
1, 27498, Control_c, 0, 64, 86
1, 27513, Control_c, 0, 64, 87
1, 27514, Note_off_c, 0, 64, 44
1, 27525, Note_off_c, 0, 61, 42
1, 27528, Control_c, 0, 64, 89
1, 27543, Control_c, 0, 64, 91
1, 27546, Note_off_c, 0, 70, 53
1, 27553, Note_on_c, 0, 67, 54
1, 27558, Control_c, 0, 64, 92
1, 27580, Control_c, 0, 64, 93
1, 27594, Control_c, 0, 64, 94
1, 27682, Control_c, 0, 64, 94
1, 27698, Control_c, 0, 64, 88
1, 27713, Control_c, 0, 64, 77
1, 27728, Control_c, 0, 64, 65
1, 27742, Control_c, 0, 64, 26
1, 27746, Note_off_c, 0, 67, 55
1, 27748, Note_on_c, 0, 61, 38
1, 27750, Note_on_c, 0, 66, 59
1, 27757, Control_c, 0, 64, 0
1, 27758, Note_on_c, 0, 64, 33
1, 27772, Control_c, 0, 64, 56
1, 27787, Control_c, 0, 64, 65
1, 27802, Control_c, 0, 64, 72
1, 27811, Note_off_c, 0, 64, 59
1, 27816, Control_c, 0, 64, 79
1, 27831, Control_c, 0, 64, 83
1, 27846, Control_c, 0, 64, 85
1, 27855, Note_off_c, 0, 61, 36
1, 27860, Control_c, 0, 64, 86
1, 27875, Control_c, 0, 64, 88
1, 27890, Control_c, 0, 64, 90
1, 27905, Control_c, 0, 64, 92
1, 27920, Control_c, 0, 64, 93
1, 27925, Note_off_c, 0, 66, 61
1, 27934, Control_c, 0, 64, 94
1, 27943, Note_on_c, 0, 64, 59
1, 27949, Control_c, 0, 64, 96
1, 27964, Control_c, 0, 64, 97
1, 27974, Note_off_c, 0, 64, 66
1, 28127, Control_c, 0, 64, 96
1, 28142, Control_c, 0, 64, 95
1, 28157, Control_c, 0, 64, 91
1, 28164, Note_on_c, 0, 78, 63
1, 28172, Control_c, 0, 64, 86
1, 28187, Control_c, 0, 64, 78
1, 28202, Control_c, 0, 64, 69
1, 28216, Control_c, 0, 64, 57
1, 28231, Control_c, 0, 64, 0
1, 28369, Note_on_c, 0, 74, 68
1, 28383, Note_off_c, 0, 78, 57
1, 28387, Control_c, 0, 64, 38
1, 28401, Control_c, 0, 64, 63
1, 28416, Control_c, 0, 64, 69
1, 28431, Control_c, 0, 64, 76
1, 28446, Control_c, 0, 64, 81
1, 28461, Control_c, 0, 64, 82
1, 28536, Control_c, 0, 64, 81
1, 28551, Control_c, 0, 64, 78
1, 28562, Note_on_c, 0, 66, 47
1, 28565, Control_c, 0, 64, 73
1, 28571, Note_on_c, 0, 62, 41
1, 28580, Control_c, 0, 64, 67
1, 28595, Control_c, 0, 64, 62
1, 28610, Control_c, 0, 64, 54
1, 28625, Control_c, 0, 64, 52
1, 28640, Control_c, 0, 64, 61
1, 28655, Control_c, 0, 64, 67
1, 28670, Control_c, 0, 64, 73
1, 28684, Control_c, 0, 64, 77
1, 28699, Control_c, 0, 64, 78
1, 28714, Control_c, 0, 64, 79
1, 28729, Control_c, 0, 64, 81
1, 28744, Control_c, 0, 64, 82
1, 28758, Control_c, 0, 64, 83
1, 28769, Note_on_c, 0, 73, 68
1, 28773, Control_c, 0, 64, 84
1, 28783, Note_off_c, 0, 62, 54
1, 28788, Control_c, 0, 64, 85
1, 28800, Note_off_c, 0, 66, 37
1, 28803, Control_c, 0, 64, 86
1, 28815, Note_off_c, 0, 74, 58
1, 28817, Control_c, 0, 64, 87
1, 28832, Control_c, 0, 64, 87
1, 28921, Control_c, 0, 64, 87
1, 28936, Control_c, 0, 64, 84
1, 28951, Control_c, 0, 64, 78
1, 28965, Note_on_c, 0, 71, 71
1, 28965, Control_c, 0, 64, 68
1, 28978, Note_on_c, 0, 62, 44
1, 28980, Control_c, 0, 64, 42
1, 28983, Note_on_c, 0, 66, 41
1, 28995, Note_off_c, 0, 73, 56
1, 28995, Control_c, 0, 64, 0
1, 29039, Control_c, 0, 64, 62
1, 29062, Control_c, 0, 64, 68
1, 29077, Control_c, 0, 64, 74
1, 29091, Control_c, 0, 64, 79
1, 29106, Control_c, 0, 64, 81
1, 29121, Control_c, 0, 64, 82
1, 29136, Control_c, 0, 64, 83
1, 29151, Control_c, 0, 64, 85
1, 29159, Note_on_c, 0, 69, 66
1, 29163, Note_off_c, 0, 71, 64
1, 29165, Control_c, 0, 64, 86
1, 29172, Note_off_c, 0, 66, 36
1, 29180, Control_c, 0, 64, 88
1, 29195, Control_c, 0, 64, 90
1, 29203, Note_off_c, 0, 62, 46
1, 29210, Control_c, 0, 64, 91
1, 29224, Control_c, 0, 64, 91
1, 29329, Control_c, 0, 64, 88
1, 29344, Control_c, 0, 64, 80
1, 29356, Note_on_c, 0, 62, 49
1, 29357, Note_on_c, 0, 68, 74
1, 29357, Note_off_c, 0, 69, 58
1, 29359, Control_c, 0, 64, 68
1, 29367, Note_on_c, 0, 66, 39
1, 29374, Control_c, 0, 64, 40
1, 29388, Control_c, 0, 64, 0
1, 29403, Control_c, 0, 64, 40
1, 29406, Note_off_c, 0, 66, 59
1, 29418, Control_c, 0, 64, 64
1, 29433, Control_c, 0, 64, 70
1, 29436, Note_off_c, 0, 62, 58
1, 29448, Control_c, 0, 64, 76
1, 29463, Control_c, 0, 64, 79
1, 29478, Control_c, 0, 64, 81
1, 29493, Control_c, 0, 64, 82
1, 29507, Control_c, 0, 64, 82
1, 29522, Control_c, 0, 64, 83
1, 29558, Note_off_c, 0, 68, 56
1, 29566, Note_on_c, 0, 66, 77
1, 29611, Control_c, 0, 64, 81
1, 29626, Control_c, 0, 64, 79
1, 29640, Control_c, 0, 64, 77
1, 29655, Control_c, 0, 64, 75
1, 29670, Control_c, 0, 64, 73
1, 29685, Control_c, 0, 64, 71
1, 29700, Control_c, 0, 64, 69
1, 29714, Control_c, 0, 64, 67
1, 29729, Control_c, 0, 64, 65
1, 29744, Control_c, 0, 64, 63
1, 29759, Control_c, 0, 64, 57
1, 29774, Control_c, 0, 64, 0
1, 29780, Note_on_c, 0, 78, 66
1, 29813, Note_off_c, 0, 66, 55
1, 29929, Control_c, 0, 64, 27
1, 29944, Control_c, 0, 64, 63
1, 29959, Control_c, 0, 64, 72
1, 29974, Control_c, 0, 64, 76
1, 29988, Control_c, 0, 64, 78
1, 30003, Control_c, 0, 64, 79
1, 30018, Control_c, 0, 64, 80
1, 30032, Control_c, 0, 64, 81
1, 30047, Control_c, 0, 64, 82
1, 30058, Note_on_c, 0, 75, 67
1, 30062, Control_c, 0, 64, 83
1, 30077, Control_c, 0, 64, 84
1, 30093, Control_c, 0, 64, 85
1, 30108, Control_c, 0, 64, 86
1, 30115, Note_off_c, 0, 78, 54
1, 30226, Control_c, 0, 64, 85
1, 30241, Control_c, 0, 64, 81
1, 30248, Note_on_c, 0, 63, 45
1, 30256, Control_c, 0, 64, 73
1, 30257, Note_on_c, 0, 66, 43
1, 30271, Control_c, 0, 64, 64
1, 30285, Control_c, 0, 64, 52
1, 30300, Control_c, 0, 64, 49
1, 30315, Control_c, 0, 64, 60
1, 30330, Control_c, 0, 64, 68
1, 30345, Control_c, 0, 64, 74
1, 30360, Control_c, 0, 64, 78
1, 30375, Control_c, 0, 64, 82
1, 30390, Control_c, 0, 64, 84
1, 30404, Control_c, 0, 64, 87
1, 30419, Control_c, 0, 64, 89
1, 30434, Control_c, 0, 64, 92
1, 30443, Note_on_c, 0, 73, 69
1, 30449, Control_c, 0, 64, 95
1, 30463, Control_c, 0, 64, 98
1, 30467, Note_off_c, 0, 66, 33
1, 30475, Note_off_c, 0, 63, 37
1, 30478, Control_c, 0, 64, 101
1, 30493, Control_c, 0, 64, 103
1, 30508, Control_c, 0, 64, 106
1, 30537, Control_c, 0, 64, 106
1, 30604, Control_c, 0, 64, 106
1, 30634, Control_c, 0, 64, 101
1, 30649, Control_c, 0, 64, 89
1, 30650, Note_on_c, 0, 72, 73
1, 30661, Note_on_c, 0, 63, 46
1, 30663, Control_c, 0, 64, 73
1, 30667, Note_off_c, 0, 75, 21
1, 30667, Note_on_c, 0, 66, 47
1, 30677, Control_c, 0, 64, 58
1, 30684, Note_off_c, 0, 73, 58
1, 30692, Control_c, 0, 64, 0
1, 30707, Control_c, 0, 64, 17
1, 30722, Control_c, 0, 64, 61
1, 30736, Control_c, 0, 64, 68
1, 30751, Control_c, 0, 64, 74
1, 30766, Control_c, 0, 64, 78
1, 30780, Control_c, 0, 64, 79
1, 30795, Control_c, 0, 64, 80
1, 30810, Control_c, 0, 64, 81
1, 30825, Control_c, 0, 64, 82
1, 30834, Note_off_c, 0, 72, 60
1, 30840, Control_c, 0, 64, 83
1, 30844, Note_on_c, 0, 69, 71
1, 30855, Control_c, 0, 64, 85
1, 30859, Note_off_c, 0, 66, 34
1, 30870, Control_c, 0, 64, 87
1, 30885, Control_c, 0, 64, 89
1, 30890, Note_off_c, 0, 63, 37
1, 30900, Control_c, 0, 64, 91
1, 30915, Control_c, 0, 64, 92
1, 30945, Control_c, 0, 64, 92
1, 30959, Control_c, 0, 64, 92
1, 30974, Control_c, 0, 64, 89
1, 30989, Control_c, 0, 64, 79
1, 31004, Control_c, 0, 64, 66
1, 31019, Control_c, 0, 64, 40
1, 31030, Note_on_c, 0, 68, 77
1, 31031, Note_on_c, 0, 63, 50
1, 31034, Note_off_c, 0, 69, 55
1, 31034, Control_c, 0, 64, 0
1, 31049, Control_c, 0, 64, 47
1, 31049, Note_on_c, 0, 66, 42
1, 31063, Control_c, 0, 64, 63
1, 31078, Control_c, 0, 64, 68
1, 31087, Note_off_c, 0, 66, 54
1, 31093, Control_c, 0, 64, 73
1, 31108, Control_c, 0, 64, 77
1, 31114, Note_off_c, 0, 63, 55
1, 31123, Control_c, 0, 64, 78
1, 31138, Control_c, 0, 64, 79
1, 31153, Control_c, 0, 64, 80
1, 31167, Control_c, 0, 64, 81
1, 31182, Control_c, 0, 64, 82
1, 31195, Note_off_c, 0, 68, 61
1, 31197, Control_c, 0, 64, 83
1, 31211, Control_c, 0, 64, 83
1, 31226, Control_c, 0, 64, 84
1, 31229, Note_on_c, 0, 66, 78
1, 31256, Control_c, 0, 64, 84
1, 31300, Control_c, 0, 64, 84
1, 31323, Control_c, 0, 64, 83
1, 31353, Control_c, 0, 64, 83
1, 31367, Control_c, 0, 64, 82
1, 31382, Control_c, 0, 64, 82
1, 31397, Control_c, 0, 64, 81
1, 31409, Note_off_c, 0, 66, 59
1, 31411, Control_c, 0, 64, 79
1, 31427, Control_c, 0, 64, 77
1, 31442, Control_c, 0, 64, 72
1, 31448, Note_on_c, 0, 80, 78
1, 31457, Control_c, 0, 64, 66
1, 31472, Control_c, 0, 64, 52
1, 31486, Control_c, 0, 64, 0
1, 31649, Control_c, 0, 64, 21
1, 31664, Control_c, 0, 64, 62
1, 31679, Note_on_c, 0, 77, 71
1, 31680, Control_c, 0, 64, 68
1, 31689, Note_off_c, 0, 80, 61
1, 31695, Control_c, 0, 64, 75
1, 31709, Control_c, 0, 64, 82
1, 31724, Control_c, 0, 64, 85
1, 31739, Control_c, 0, 64, 87
1, 31754, Control_c, 0, 64, 88
1, 31769, Control_c, 0, 64, 91
1, 31783, Control_c, 0, 64, 93
1, 31798, Control_c, 0, 64, 94
1, 31813, Control_c, 0, 64, 95
1, 31857, Control_c, 0, 64, 93
1, 31872, Control_c, 0, 64, 89
1, 31874, Note_on_c, 0, 65, 52
1, 31883, Note_on_c, 0, 68, 50
1, 31887, Control_c, 0, 64, 80
1, 31902, Control_c, 0, 64, 70
1, 31916, Control_c, 0, 64, 61
1, 31931, Control_c, 0, 64, 53
1, 31946, Control_c, 0, 64, 58
1, 31961, Control_c, 0, 64, 65
1, 31976, Control_c, 0, 64, 72
1, 31991, Control_c, 0, 64, 77
1, 32005, Control_c, 0, 64, 80
1, 32020, Control_c, 0, 64, 82
1, 32035, Control_c, 0, 64, 83
1, 32050, Control_c, 0, 64, 86
1, 32065, Note_off_c, 0, 68, 38
1, 32068, Note_off_c, 0, 65, 57
1, 32072, Control_c, 0, 64, 88
1, 32074, Note_on_c, 0, 74, 76
1, 32087, Control_c, 0, 64, 89
1, 32098, Note_off_c, 0, 77, 52
1, 32102, Control_c, 0, 64, 90
1, 32116, Control_c, 0, 64, 91
1, 32131, Control_c, 0, 64, 91
1, 32146, Control_c, 0, 64, 92
1, 32235, Control_c, 0, 64, 90
1, 32250, Control_c, 0, 64, 83
1, 32259, Note_on_c, 0, 65, 50
1, 32263, Note_on_c, 0, 73, 79
1, 32265, Control_c, 0, 64, 73
1, 32271, Note_on_c, 0, 68, 52
1, 32280, Control_c, 0, 64, 62
1, 32289, Note_off_c, 0, 74, 60
1, 32295, Control_c, 0, 64, 34
1, 32309, Control_c, 0, 64, 37
1, 32324, Control_c, 0, 64, 59
1, 32339, Control_c, 0, 64, 67
1, 32354, Control_c, 0, 64, 73
1, 32368, Note_off_c, 0, 68, 55
1, 32368, Control_c, 0, 64, 78
1, 32374, Note_off_c, 0, 65, 56
1, 32383, Control_c, 0, 64, 80
1, 32398, Control_c, 0, 64, 81
1, 32413, Control_c, 0, 64, 81
1, 32427, Control_c, 0, 64, 82
1, 32442, Control_c, 0, 64, 82
1, 32450, Note_on_c, 0, 71, 78
1, 32457, Control_c, 0, 64, 83
1, 32472, Control_c, 0, 64, 83
1, 32485, Note_off_c, 0, 73, 61
1, 32488, Control_c, 0, 64, 84
1, 32503, Control_c, 0, 64, 84
1, 32621, Control_c, 0, 64, 82
1, 32629, Note_off_c, 0, 71, 65
1, 32636, Control_c, 0, 64, 75
1, 32640, Note_on_c, 0, 69, 76
1, 32646, Note_on_c, 0, 65, 58
1, 32650, Control_c, 0, 64, 65
1, 32665, Control_c, 0, 64, 35
1, 32680, Control_c, 0, 64, 0
1, 32710, Control_c, 0, 64, 60
1, 32724, Control_c, 0, 64, 67
1, 32739, Control_c, 0, 64, 72
1, 32754, Control_c, 0, 64, 75
1, 32769, Control_c, 0, 64, 76
1, 32783, Control_c, 0, 64, 76
1, 32821, Control_c, 0, 64, 77
1, 32834, Note_on_c, 0, 68, 82
1, 32865, Control_c, 0, 64, 77
1, 32871, Note_off_c, 0, 69, 39
1, 32954, Control_c, 0, 64, 77
1, 32957, Note_off_c, 0, 65, 50
1, 32969, Control_c, 0, 64, 76
1, 32983, Control_c, 0, 64, 75
1, 32998, Control_c, 0, 64, 73
1, 33013, Control_c, 0, 64, 70
1, 33028, Control_c, 0, 64, 66
1, 33043, Control_c, 0, 64, 62
1, 33044, Note_off_c, 0, 68, 63
1, 33058, Control_c, 0, 64, 50
1, 33063, Note_on_c, 0, 66, 53
1, 33064, Note_on_c, 0, 69, 76
1, 33073, Control_c, 0, 64, 0
1, 33293, Note_on_c, 0, 81, 86
1, 33314, Note_off_c, 0, 69, 57
1, 33429, Control_c, 0, 64, 32
1, 33444, Control_c, 0, 64, 63
1, 33459, Control_c, 0, 64, 68
1, 33473, Control_c, 0, 64, 72
1, 33488, Control_c, 0, 64, 75
1, 33497, Note_on_c, 0, 64, 57
1, 33503, Control_c, 0, 64, 78
1, 33514, Note_off_c, 0, 66, 37
1, 33518, Control_c, 0, 64, 82
1, 33533, Control_c, 0, 64, 87
1, 33555, Control_c, 0, 64, 92
1, 33570, Control_c, 0, 64, 93
1, 33585, Control_c, 0, 64, 94
1, 33600, Control_c, 0, 64, 95
1, 33614, Control_c, 0, 64, 95
1, 33629, Control_c, 0, 64, 96
1, 33644, Control_c, 0, 64, 97
1, 33659, Control_c, 0, 64, 98
1, 33674, Control_c, 0, 64, 98
1, 33688, Control_c, 0, 64, 99
1, 33703, Control_c, 0, 64, 100
1, 33711, Note_on_c, 0, 80, 87
1, 33718, Control_c, 0, 64, 101
1, 33724, Note_off_c, 0, 81, 64
1, 33733, Control_c, 0, 64, 103
1, 33748, Control_c, 0, 64, 104
1, 33750, Note_off_c, 0, 64, 58
1, 33762, Control_c, 0, 64, 105
1, 33777, Control_c, 0, 64, 106
1, 33792, Control_c, 0, 64, 106
1, 33796, Note_off_c, 0, 80, 63
1, 33806, Control_c, 0, 64, 107
1, 33936, Note_on_c, 0, 62, 44
1, 33955, Control_c, 0, 64, 106
1, 33970, Control_c, 0, 64, 104
1, 33984, Note_on_c, 0, 80, 61
1, 33985, Control_c, 0, 64, 101
1, 34000, Control_c, 0, 64, 95
1, 34002, Note_off_c, 0, 80, 62
1, 34014, Control_c, 0, 64, 89
1, 34021, Note_on_c, 0, 78, 68
1, 34029, Control_c, 0, 64, 84
1, 34039, Note_off_c, 0, 78, 67
1, 34044, Control_c, 0, 64, 76
1, 34053, Note_on_c, 0, 80, 80
1, 34059, Control_c, 0, 64, 70
1, 34074, Control_c, 0, 64, 63
1, 34087, Note_off_c, 0, 80, 61
1, 34089, Control_c, 0, 64, 43
1, 34092, Note_on_c, 0, 78, 87
1, 34104, Control_c, 0, 64, 0
1, 34282, Control_c, 0, 64, 36
1, 34304, Control_c, 0, 64, 64
1, 34319, Control_c, 0, 64, 71
1, 34334, Control_c, 0, 64, 75
1, 34348, Control_c, 0, 64, 77
1, 34363, Control_c, 0, 64, 78
1, 34378, Control_c, 0, 64, 80
1, 34393, Control_c, 0, 64, 83
1, 34408, Control_c, 0, 64, 85
1, 34420, Note_on_c, 0, 50, 37
1, 34423, Control_c, 0, 64, 88
1, 34438, Control_c, 0, 64, 91
1, 34453, Control_c, 0, 64, 94
1, 34468, Control_c, 0, 64, 96
1, 34479, Note_off_c, 0, 62, 40
1, 34483, Control_c, 0, 64, 99
1, 34497, Control_c, 0, 64, 101
1, 34512, Control_c, 0, 64, 103
1, 34527, Control_c, 0, 64, 106
1, 34542, Control_c, 0, 64, 108
1, 34551, Note_off_c, 0, 50, 54
1, 34557, Control_c, 0, 64, 110
1, 34572, Control_c, 0, 64, 111
1, 34586, Control_c, 0, 64, 113
1, 34601, Control_c, 0, 64, 113
1, 34616, Control_c, 0, 64, 114
1, 34630, Control_c, 0, 64, 114
1, 34666, Note_off_c, 0, 78, 51
1, 34693, Note_on_c, 0, 77, 80
1, 34792, Note_on_c, 0, 78, 84
1, 34814, Note_off_c, 0, 77, 61
1, 34823, Control_c, 0, 64, 114
1, 34867, Control_c, 0, 64, 113
1, 34880, Note_off_c, 0, 78, 62
1, 34883, Control_c, 0, 64, 111
1, 34898, Control_c, 0, 64, 109
1, 34913, Control_c, 0, 64, 106
1, 34927, Control_c, 0, 64, 101
1, 34942, Control_c, 0, 64, 95
1, 34957, Control_c, 0, 64, 88
1, 34964, Note_on_c, 0, 78, 75
1, 34972, Control_c, 0, 64, 80
1, 34987, Control_c, 0, 64, 73
1, 34989, Note_on_c, 0, 61, 37
1, 35001, Control_c, 0, 64, 66
1, 35016, Control_c, 0, 64, 60
1, 35031, Control_c, 0, 64, 49
1, 35053, Control_c, 0, 64, 26
1, 35068, Control_c, 0, 64, 0
1, 35215, Note_on_c, 0, 80, 71
1, 35216, Note_on_c, 0, 56, 38
1, 35238, Note_off_c, 0, 78, 57
1, 35320, Control_c, 0, 64, 14
1, 35334, Control_c, 0, 64, 60
1, 35349, Control_c, 0, 64, 68
1, 35364, Control_c, 0, 64, 74
1, 35378, Control_c, 0, 64, 80
1, 35393, Control_c, 0, 64, 83
1, 35408, Control_c, 0, 64, 86
1, 35415, Note_on_c, 0, 53, 39
1, 35423, Control_c, 0, 64, 89
1, 35438, Control_c, 0, 64, 94
1, 35451, Note_off_c, 0, 61, 40
1, 35452, Control_c, 0, 64, 98
1, 35460, Note_off_c, 0, 56, 32
1, 35467, Control_c, 0, 64, 103
1, 35482, Control_c, 0, 64, 108
1, 35497, Control_c, 0, 64, 112
1, 35512, Control_c, 0, 64, 118
1, 35526, Control_c, 0, 64, 127
1, 35595, Note_off_c, 0, 53, 41
1, 35649, Note_on_c, 0, 49, 11
1, 35705, Note_off_c, 0, 49, 52
1, 35836, Note_on_c, 0, 37, 43
1, 36039, Note_on_c, 0, 83, 60
1, 36063, Note_off_c, 0, 80, 58
1, 36216, Control_c, 0, 64, 105
1, 36231, Control_c, 0, 64, 80
1, 36238, Note_on_c, 0, 81, 75
1, 36246, Control_c, 0, 64, 66
1, 36247, Note_off_c, 0, 83, 61
1, 36261, Control_c, 0, 64, 54
1, 36275, Control_c, 0, 64, 56
1, 36290, Control_c, 0, 64, 65
1, 36305, Control_c, 0, 64, 71
1, 36320, Control_c, 0, 64, 77
1, 36335, Control_c, 0, 64, 83
1, 36339, Note_off_c, 0, 37, 55
1, 36349, Control_c, 0, 64, 87
1, 36364, Control_c, 0, 64, 91
1, 36379, Control_c, 0, 64, 93
1, 36393, Control_c, 0, 64, 96
1, 36408, Control_c, 0, 64, 99
1, 36423, Control_c, 0, 64, 102
1, 36426, Note_on_c, 0, 80, 81
1, 36438, Note_off_c, 0, 81, 58
1, 36438, Control_c, 0, 64, 105
1, 36453, Control_c, 0, 64, 108
1, 36469, Control_c, 0, 64, 110
1, 36484, Control_c, 0, 64, 111
1, 36634, Note_on_c, 0, 81, 75
1, 36636, Note_off_c, 0, 80, 64
1, 36639, Control_c, 0, 64, 110
1, 36643, Note_on_c, 0, 61, 46
1, 36654, Control_c, 0, 64, 105
1, 36669, Control_c, 0, 64, 99
1, 36684, Control_c, 0, 64, 90
1, 36699, Control_c, 0, 64, 81
1, 36713, Control_c, 0, 64, 72
1, 36728, Control_c, 0, 64, 68
1, 36743, Control_c, 0, 64, 65
1, 36758, Control_c, 0, 64, 63
1, 36773, Control_c, 0, 64, 61
1, 36787, Control_c, 0, 64, 57
1, 36802, Control_c, 0, 64, 51
1, 36817, Control_c, 0, 64, 40
1, 36827, Note_on_c, 0, 73, 65
1, 36832, Control_c, 0, 64, 0
1, 36841, Note_on_c, 0, 57, 36
1, 36880, Note_off_c, 0, 81, 51
1, 37027, Note_off_c, 0, 73, 59
1, 37029, Note_on_c, 0, 72, 62
1, 37031, Note_on_c, 0, 54, 42
1, 37113, Control_c, 0, 64, 51
1, 37115, Note_off_c, 0, 57, 33
1, 37128, Control_c, 0, 64, 65
1, 37142, Control_c, 0, 64, 71
1, 37157, Control_c, 0, 64, 76
1, 37172, Control_c, 0, 64, 81
1, 37174, Note_off_c, 0, 61, 36
1, 37187, Control_c, 0, 64, 84
1, 37198, Note_off_c, 0, 54, 37
1, 37202, Control_c, 0, 64, 88
1, 37216, Control_c, 0, 64, 94
1, 37222, Note_on_c, 0, 49, 46
1, 37231, Control_c, 0, 64, 101
1, 37246, Control_c, 0, 64, 109
1, 37255, Note_off_c, 0, 49, 61
1, 37261, Control_c, 0, 64, 117
1, 37277, Control_c, 0, 64, 127
1, 37437, Note_on_c, 0, 37, 46
1, 37526, Note_off_c, 0, 37, 0
1, 37526, Note_on_c, 0, 37, 2
1, 37633, Note_on_c, 0, 75, 66
1, 37663, Note_off_c, 0, 72, 51
1, 37803, Control_c, 0, 64, 99
1, 37818, Control_c, 0, 64, 77
1, 37830, Note_on_c, 0, 73, 68
1, 37833, Control_c, 0, 64, 58
1, 37842, Note_off_c, 0, 75, 55
1, 37847, Control_c, 0, 64, 0
1, 37877, Control_c, 0, 64, 47
1, 37892, Control_c, 0, 64, 65
1, 37907, Control_c, 0, 64, 73
1, 37921, Control_c, 0, 64, 80
1, 37928, Note_off_c, 0, 37, 55
1, 37936, Control_c, 0, 64, 87
1, 37951, Control_c, 0, 64, 92
1, 37966, Control_c, 0, 64, 94
1, 37980, Control_c, 0, 64, 95
1, 37995, Control_c, 0, 64, 96
1, 38010, Control_c, 0, 64, 97
1, 38024, Note_on_c, 0, 72, 67
1, 38025, Control_c, 0, 64, 99
1, 38045, Note_off_c, 0, 73, 38
1, 38047, Control_c, 0, 64, 101
1, 38062, Control_c, 0, 64, 102
1, 38150, Note_off_c, 0, 72, 58
1, 38212, Control_c, 0, 64, 100
1, 38227, Control_c, 0, 64, 96
1, 38236, Note_on_c, 0, 73, 59
1, 38241, Control_c, 0, 64, 90
1, 38247, Note_on_c, 0, 61, 44
1, 38256, Control_c, 0, 64, 81
1, 38271, Control_c, 0, 64, 73
1, 38286, Control_c, 0, 64, 66
1, 38301, Control_c, 0, 64, 53
1, 38316, Control_c, 0, 64, 0
1, 38436, Note_off_c, 0, 73, 56
1, 38453, Note_on_c, 0, 56, 35
1, 38454, Note_on_c, 0, 81, 53
1, 38656, Note_off_c, 0, 81, 55
1, 38661, Note_on_c, 0, 53, 27
1, 38667, Note_on_c, 0, 80, 47
1, 38760, Control_c, 0, 64, 59
1, 38772, Note_off_c, 0, 56, 39
1, 38775, Control_c, 0, 64, 67
1, 38790, Control_c, 0, 64, 73
1, 38811, Control_c, 0, 64, 78
1, 38826, Control_c, 0, 64, 83
1, 38841, Control_c, 0, 64, 88
1, 38847, Note_off_c, 0, 53, 44
1, 38856, Control_c, 0, 64, 94
1, 38865, Note_off_c, 0, 61, 41
1, 38872, Control_c, 0, 64, 101
1, 38885, Note_on_c, 0, 49, 37
1, 38887, Control_c, 0, 64, 106
1, 38901, Control_c, 0, 64, 112
1, 38915, Control_c, 0, 64, 118
1, 38921, Note_off_c, 0, 49, 52
1, 38930, Control_c, 0, 64, 127
1, 39096, Note_on_c, 0, 37, 34
1, 39291, Note_on_c, 0, 83, 52
1, 39296, Note_off_c, 0, 80, 32
1, 39419, Control_c, 0, 64, 122
1, 39434, Control_c, 0, 64, 105
1, 39449, Control_c, 0, 64, 89
1, 39464, Control_c, 0, 64, 72
1, 39474, Note_off_c, 0, 83, 57
1, 39479, Control_c, 0, 64, 63
1, 39483, Note_on_c, 0, 81, 59
1, 39493, Control_c, 0, 64, 55
1, 39508, Control_c, 0, 64, 61
1, 39523, Control_c, 0, 64, 67
1, 39538, Control_c, 0, 64, 74
1, 39559, Control_c, 0, 64, 79
1, 39574, Control_c, 0, 64, 85
1, 39577, Note_off_c, 0, 37, 55
1, 39589, Control_c, 0, 64, 90
1, 39604, Control_c, 0, 64, 94
1, 39619, Control_c, 0, 64, 96
1, 39634, Control_c, 0, 64, 98
1, 39648, Control_c, 0, 64, 98
1, 39663, Control_c, 0, 64, 100
1, 39664, Note_off_c, 0, 81, 58
1, 39679, Control_c, 0, 64, 101
1, 39683, Note_on_c, 0, 80, 60
1, 39694, Control_c, 0, 64, 102
1, 39709, Control_c, 0, 64, 103
1, 39827, Control_c, 0, 64, 102
1, 39842, Control_c, 0, 64, 101
1, 39857, Control_c, 0, 64, 98
1, 39866, Note_off_c, 0, 80, 60
1, 39872, Control_c, 0, 64, 94
1, 39879, Note_on_c, 0, 61, 39
1, 39884, Note_on_c, 0, 81, 49
1, 39887, Control_c, 0, 64, 88
1, 39902, Control_c, 0, 64, 81
1, 39916, Control_c, 0, 64, 74
1, 39931, Control_c, 0, 64, 68
1, 39946, Control_c, 0, 64, 63
1, 39961, Control_c, 0, 64, 59
1, 39975, Control_c, 0, 64, 53
1, 39990, Control_c, 0, 64, 48
1, 40005, Control_c, 0, 64, 43
1, 40020, Control_c, 0, 64, 36
1, 40035, Control_c, 0, 64, 14
1, 40049, Control_c, 0, 64, 0
1, 40071, Note_on_c, 0, 73, 47
1, 40074, Note_off_c, 0, 81, 52
1, 40081, Note_on_c, 0, 57, 32
1, 40267, Note_off_c, 0, 73, 59
1, 40272, Note_on_c, 0, 54, 35
1, 40283, Note_on_c, 0, 72, 48
1, 40286, Control_c, 0, 64, 36
1, 40309, Control_c, 0, 64, 52
1, 40323, Control_c, 0, 64, 59
1, 40338, Control_c, 0, 64, 62
1, 40353, Control_c, 0, 64, 64
1, 40361, Note_off_c, 0, 57, 41
1, 40368, Control_c, 0, 64, 67
1, 40382, Note_off_c, 0, 61, 41
1, 40382, Control_c, 0, 64, 70
1, 40397, Control_c, 0, 64, 73
1, 40412, Control_c, 0, 64, 77
1, 40426, Control_c, 0, 64, 82
1, 40441, Control_c, 0, 64, 87
1, 40449, Note_off_c, 0, 54, 45
1, 40456, Control_c, 0, 64, 91
1, 40471, Control_c, 0, 64, 95
1, 40475, Note_on_c, 0, 49, 42
1, 40486, Control_c, 0, 64, 99
1, 40501, Control_c, 0, 64, 103
1, 40513, Note_off_c, 0, 49, 61
1, 40516, Control_c, 0, 64, 107
1, 40531, Control_c, 0, 64, 111
1, 40546, Control_c, 0, 64, 115
1, 40561, Control_c, 0, 64, 120
1, 40576, Control_c, 0, 64, 126
1, 40590, Control_c, 0, 64, 127
1, 40692, Note_on_c, 0, 37, 44
1, 40842, Control_c, 0, 64, 126
1, 40857, Control_c, 0, 64, 124
1, 40871, Control_c, 0, 64, 122
1, 40886, Control_c, 0, 64, 119
1, 40896, Note_on_c, 0, 75, 54
1, 40901, Control_c, 0, 64, 118
1, 40915, Control_c, 0, 64, 115
1, 40930, Note_off_c, 0, 72, 37
1, 40930, Control_c, 0, 64, 113
1, 40945, Control_c, 0, 64, 111
1, 40960, Control_c, 0, 64, 107
1, 40975, Control_c, 0, 64, 99
1, 40990, Control_c, 0, 64, 88
1, 41005, Control_c, 0, 64, 78
1, 41020, Control_c, 0, 64, 67
1, 41042, Control_c, 0, 64, 53
1, 41057, Control_c, 0, 64, 34
1, 41071, Control_c, 0, 64, 46
1, 41086, Control_c, 0, 64, 62
1, 41091, Note_on_c, 0, 73, 64
1, 41101, Control_c, 0, 64, 66
1, 41103, Note_off_c, 0, 75, 53
1, 41115, Control_c, 0, 64, 70
1, 41130, Control_c, 0, 64, 73
1, 41140, Note_off_c, 0, 37, 56
1, 41145, Control_c, 0, 64, 78
1, 41160, Control_c, 0, 64, 81
1, 41175, Control_c, 0, 64, 85
1, 41190, Control_c, 0, 64, 88
1, 41204, Control_c, 0, 64, 91
1, 41219, Control_c, 0, 64, 93
1, 41234, Control_c, 0, 64, 94
1, 41249, Control_c, 0, 64, 96
1, 41262, Note_off_c, 0, 73, 59
1, 41264, Control_c, 0, 64, 97
1, 41276, Note_on_c, 0, 72, 64
1, 41280, Control_c, 0, 64, 98
1, 41294, Control_c, 0, 64, 98
1, 41309, Control_c, 0, 64, 99
1, 41339, Control_c, 0, 64, 99
1, 41354, Control_c, 0, 64, 100
1, 41368, Note_off_c, 0, 72, 60
1, 41368, Control_c, 0, 64, 100
1, 41482, Note_on_c, 0, 73, 64
1, 41485, Note_on_c, 0, 61, 39
1, 41488, Control_c, 0, 64, 99
1, 41502, Control_c, 0, 64, 97
1, 41517, Control_c, 0, 64, 93
1, 41532, Control_c, 0, 64, 85
1, 41546, Control_c, 0, 64, 75
1, 41561, Control_c, 0, 64, 65
1, 41576, Control_c, 0, 64, 57
1, 41591, Control_c, 0, 64, 53
1, 41606, Control_c, 0, 64, 54
1, 41620, Control_c, 0, 64, 59
1, 41635, Control_c, 0, 64, 63
1, 41650, Control_c, 0, 64, 66
1, 41665, Control_c, 0, 64, 65
1, 41673, Note_on_c, 0, 81, 73
1, 41675, Note_on_c, 0, 56, 47
1, 41680, Control_c, 0, 64, 64
1, 41686, Note_off_c, 0, 73, 55
1, 41694, Control_c, 0, 64, 64
1, 41709, Control_c, 0, 64, 63
1, 41724, Control_c, 0, 64, 61
1, 41738, Control_c, 0, 64, 56
1, 41753, Control_c, 0, 64, 50
1, 41768, Control_c, 0, 64, 49
1, 41791, Control_c, 0, 64, 54
1, 41806, Control_c, 0, 64, 62
1, 41820, Control_c, 0, 64, 66
1, 41835, Control_c, 0, 64, 67
1, 41850, Control_c, 0, 64, 68
1, 41865, Control_c, 0, 64, 69
1, 41880, Control_c, 0, 64, 70
1, 41885, Note_on_c, 0, 53, 54
1, 41891, Note_on_c, 0, 80, 75
1, 41894, Control_c, 0, 64, 71
1, 41909, Control_c, 0, 64, 72
1, 41914, Note_off_c, 0, 81, 62
1, 41924, Control_c, 0, 64, 74
1, 41938, Control_c, 0, 64, 76
1, 41953, Control_c, 0, 64, 78
1, 41962, Note_off_c, 0, 61, 43
1, 41968, Control_c, 0, 64, 80
1, 41983, Control_c, 0, 64, 83
1, 41998, Control_c, 0, 64, 86
1, 42012, Control_c, 0, 64, 88
1, 42017, Note_off_c, 0, 56, 29
1, 42027, Control_c, 0, 64, 92
1, 42042, Control_c, 0, 64, 95
1, 42052, Note_off_c, 0, 53, 55
1, 42057, Control_c, 0, 64, 99
1, 42073, Control_c, 0, 64, 103
1, 42088, Control_c, 0, 64, 109
1, 42090, Note_on_c, 0, 49, 45
1, 42103, Control_c, 0, 64, 115
1, 42117, Control_c, 0, 64, 127
1, 42121, Note_off_c, 0, 49, 55
1, 42296, Note_on_c, 0, 37, 58
1, 42325, Control_c, 0, 64, 113
1, 42340, Control_c, 0, 64, 90
1, 42355, Control_c, 0, 64, 75
1, 42369, Control_c, 0, 64, 66
1, 42384, Control_c, 0, 64, 65
1, 42399, Control_c, 0, 64, 69
1, 42414, Control_c, 0, 64, 76
1, 42429, Control_c, 0, 64, 81
1, 42443, Control_c, 0, 64, 84
1, 42458, Control_c, 0, 64, 88
1, 42473, Control_c, 0, 64, 91
1, 42488, Control_c, 0, 64, 94
1, 42491, Note_on_c, 0, 83, 76
1, 42503, Control_c, 0, 64, 97
1, 42517, Control_c, 0, 64, 100
1, 42540, Control_c, 0, 64, 104
1, 42546, Note_off_c, 0, 37, 35
1, 42555, Control_c, 0, 64, 109
1, 42561, Note_off_c, 0, 80, 50
1, 42569, Control_c, 0, 64, 114
1, 42584, Control_c, 0, 64, 122
1, 42599, Control_c, 0, 64, 127
1, 42704, Note_on_c, 0, 81, 83
1, 42745, Note_off_c, 0, 83, 59
1, 42888, Note_on_c, 0, 80, 84
1, 42912, Note_off_c, 0, 81, 58
1, 43103, Control_c, 0, 64, 99
1, 43109, Note_on_c, 0, 81, 83
1, 43110, Note_on_c, 0, 54, 46
1, 43118, Control_c, 0, 64, 80
1, 43120, Note_on_c, 0, 42, 43
1, 43130, Note_off_c, 0, 80, 61
1, 43133, Control_c, 0, 64, 64
1, 43148, Control_c, 0, 64, 0
1, 43178, Control_c, 0, 64, 53
1, 43192, Control_c, 0, 64, 65
1, 43207, Control_c, 0, 64, 72
1, 43222, Control_c, 0, 64, 78
1, 43232, Note_off_c, 0, 54, 56
1, 43233, Note_off_c, 0, 42, 51
1, 43237, Control_c, 0, 64, 85
1, 43252, Control_c, 0, 64, 90
1, 43266, Control_c, 0, 64, 95
1, 43279, Note_off_c, 0, 81, 61
1, 43281, Control_c, 0, 64, 98
1, 43303, Control_c, 0, 64, 101
1, 43318, Control_c, 0, 64, 104
1, 43333, Control_c, 0, 64, 109
1, 43348, Control_c, 0, 64, 113
1, 43353, Note_on_c, 0, 73, 54
1, 43363, Control_c, 0, 64, 119
1, 43378, Control_c, 0, 64, 127
1, 43533, Note_on_c, 0, 80, 73
1, 43536, Note_off_c, 0, 73, 49
1, 43548, Note_on_c, 0, 59, 46
1, 43555, Control_c, 0, 64, 110
1, 43561, Note_on_c, 0, 47, 39
1, 43564, Note_on_c, 0, 74, 53
1, 43570, Control_c, 0, 64, 91
1, 43585, Control_c, 0, 64, 74
1, 43599, Control_c, 0, 64, 61
1, 43614, Control_c, 0, 64, 36
1, 43629, Control_c, 0, 64, 45
1, 43644, Control_c, 0, 64, 63
1, 43660, Control_c, 0, 64, 71
1, 43675, Control_c, 0, 64, 77
1, 43682, Note_off_c, 0, 47, 55
1, 43689, Control_c, 0, 64, 82
1, 43690, Note_off_c, 0, 59, 58
1, 43704, Control_c, 0, 64, 86
1, 43719, Control_c, 0, 64, 88
1, 43734, Control_c, 0, 64, 90
1, 43738, Note_off_c, 0, 80, 62
1, 43740, Note_on_c, 0, 78, 74
1, 43749, Control_c, 0, 64, 92
1, 43763, Control_c, 0, 64, 94
1, 43778, Control_c, 0, 64, 95
1, 43793, Control_c, 0, 64, 96
1, 43807, Control_c, 0, 64, 97
1, 43822, Control_c, 0, 64, 97
1, 43837, Control_c, 0, 64, 98
1, 43926, Control_c, 0, 64, 97
1, 43941, Control_c, 0, 64, 92
1, 43942, Note_off_c, 0, 78, 56
1, 43953, Note_on_c, 0, 77, 63
1, 43956, Control_c, 0, 64, 82
1, 43968, Note_on_c, 0, 49, 43
1, 43970, Note_on_c, 0, 61, 43
1, 43971, Control_c, 0, 64, 68
1, 43972, Note_off_c, 0, 74, 59
1, 43986, Control_c, 0, 64, 27
1, 44001, Control_c, 0, 64, 0
1, 44067, Control_c, 0, 64, 46
1, 44082, Control_c, 0, 64, 65
1, 44096, Control_c, 0, 64, 71
1, 44111, Control_c, 0, 64, 75
1, 44126, Control_c, 0, 64, 80
1, 44138, Note_off_c, 0, 61, 51
1, 44141, Control_c, 0, 64, 83
1, 44156, Control_c, 0, 64, 87
1, 44159, Note_off_c, 0, 49, 47
1, 44171, Control_c, 0, 64, 91
1, 44186, Control_c, 0, 64, 94
1, 44201, Control_c, 0, 64, 96
1, 44215, Control_c, 0, 64, 98
1, 44230, Control_c, 0, 64, 100
1, 44232, Note_on_c, 0, 73, 12
1, 44245, Control_c, 0, 64, 100
1, 44349, Control_c, 0, 64, 100
1, 44364, Control_c, 0, 64, 98
1, 44379, Control_c, 0, 64, 94
1, 44394, Control_c, 0, 64, 83
1, 44402, Note_on_c, 0, 78, 56
1, 44409, Control_c, 0, 64, 68
1, 44413, Note_on_c, 0, 50, 34
1, 44422, Note_on_c, 0, 62, 23
1, 44423, Control_c, 0, 64, 36
1, 44430, Note_off_c, 0, 73, 45
1, 44430, Note_off_c, 0, 77, 40
1, 44438, Control_c, 0, 64, 0
1, 44453, Control_c, 0, 67, 10
1, 44469, Control_c, 0, 67, 15
1, 44483, Control_c, 0, 64, 56
1, 44483, Control_c, 0, 67, 21
1, 44498, Control_c, 0, 64, 66
1, 44498, Control_c, 0, 67, 29
1, 44513, Control_c, 0, 64, 71
1, 44513, Control_c, 0, 67, 38
1, 44528, Control_c, 0, 64, 74
1, 44528, Control_c, 0, 67, 46
1, 44543, Control_c, 0, 64, 76
1, 44543, Control_c, 0, 67, 55
1, 44557, Control_c, 0, 64, 78
1, 44557, Control_c, 0, 67, 63
1, 44572, Control_c, 0, 64, 80
1, 44572, Control_c, 0, 67, 71
1, 44587, Control_c, 0, 64, 82
1, 44587, Control_c, 0, 67, 80
1, 44600, Note_off_c, 0, 62, 49
1, 44602, Control_c, 0, 64, 84
1, 44602, Control_c, 0, 67, 92
1, 44617, Control_c, 0, 64, 85
1, 44617, Control_c, 0, 67, 107
1, 44630, Note_off_c, 0, 50, 40
1, 44631, Control_c, 0, 64, 87
1, 44631, Control_c, 0, 67, 123
1, 44646, Control_c, 0, 64, 88
1, 44646, Control_c, 0, 67, 127
1, 44656, Note_on_c, 0, 71, 37
1, 44661, Control_c, 0, 64, 89
1, 44676, Control_c, 0, 64, 90
1, 44691, Control_c, 0, 64, 90
1, 44705, Control_c, 0, 64, 91
1, 44720, Control_c, 0, 64, 91
1, 44750, Control_c, 0, 64, 92
1, 44761, Note_off_c, 0, 71, 28
1, 44802, Control_c, 0, 64, 92
1, 44876, Control_c, 0, 64, 92
1, 44920, Control_c, 0, 64, 91
1, 44935, Control_c, 0, 64, 90
1, 44950, Control_c, 0, 64, 88
1, 44964, Control_c, 0, 64, 85
1, 44979, Control_c, 0, 64, 79
1, 44989, Note_on_c, 0, 80, 38
1, 44994, Control_c, 0, 64, 71
1, 44996, Note_off_c, 0, 78, 48
1, 45002, Note_on_c, 0, 61, 25
1, 45009, Control_c, 0, 64, 64
1, 45024, Control_c, 0, 64, 37
1, 45038, Control_c, 0, 64, 0
1, 45127, Control_c, 0, 64, 17
1, 45142, Control_c, 0, 64, 62
1, 45157, Control_c, 0, 64, 68
1, 45172, Control_c, 0, 64, 74
1, 45187, Control_c, 0, 64, 78
1, 45202, Control_c, 0, 64, 82
1, 45217, Control_c, 0, 64, 87
1, 45228, Note_on_c, 0, 56, 31
1, 45232, Control_c, 0, 64, 92
1, 45246, Control_c, 0, 64, 97
1, 45262, Control_c, 0, 64, 102
1, 45276, Control_c, 0, 64, 107
1, 45291, Control_c, 0, 64, 111
1, 45306, Control_c, 0, 64, 116
1, 45321, Control_c, 0, 64, 126
1, 45336, Control_c, 0, 64, 127
1, 45351, Note_off_c, 0, 61, 37
1, 45424, Note_on_c, 0, 53, 38
1, 45452, Note_off_c, 0, 56, 40
1, 45561, Note_off_c, 0, 53, 28
1, 45632, Note_on_c, 0, 49, 36
1, 45669, Note_off_c, 0, 49, 52
1, 45865, Note_on_c, 0, 37, 34
1, 45928, Note_off_c, 0, 80, 41
1, 46000, Note_off_c, 0, 37, 34
1, 46065, Note_on_c, 0, 83, 48
1, 46218, Note_off_c, 0, 83, 56
1, 46244, Note_on_c, 0, 81, 58
1, 46418, Note_off_c, 0, 81, 60
1, 46442, Note_on_c, 0, 80, 58
1, 46609, Control_c, 0, 64, 124
1, 46622, Note_off_c, 0, 80, 61
1, 46624, Control_c, 0, 64, 107
1, 46639, Control_c, 0, 64, 95
1, 46645, Note_on_c, 0, 81, 48
1, 46651, Note_on_c, 0, 61, 44
1, 46654, Control_c, 0, 64, 84
1, 46669, Control_c, 0, 64, 75
1, 46683, Control_c, 0, 64, 68
1, 46698, Control_c, 0, 64, 57
1, 46713, Control_c, 0, 64, 21
1, 46719, Note_off_c, 0, 81, 0
1, 46719, Note_on_c, 0, 81, 7
1, 46728, Control_c, 0, 64, 0
1, 46834, Note_on_c, 0, 73, 49
1, 46847, Note_on_c, 0, 57, 31
1, 46859, Note_off_c, 0, 81, 42
1, 47039, Note_off_c, 0, 73, 57
1, 47047, Note_on_c, 0, 54, 38
1, 47047, Note_on_c, 0, 72, 46
1, 47077, Control_c, 0, 64, 48
1, 47092, Control_c, 0, 64, 63
1, 47107, Control_c, 0, 64, 68
1, 47122, Control_c, 0, 64, 72
1, 47136, Control_c, 0, 64, 75
1, 47142, Note_off_c, 0, 57, 40
1, 47152, Control_c, 0, 64, 79
1, 47166, Control_c, 0, 64, 82
1, 47181, Control_c, 0, 64, 87
1, 47193, Note_off_c, 0, 61, 41
1, 47196, Control_c, 0, 64, 92
1, 47211, Control_c, 0, 64, 96
1, 47212, Note_off_c, 0, 54, 44
1, 47216, Note_on_c, 0, 49, 45
1, 47226, Control_c, 0, 64, 100
1, 47241, Control_c, 0, 64, 104
1, 47247, Note_off_c, 0, 49, 60
1, 47256, Control_c, 0, 64, 106
1, 47271, Control_c, 0, 64, 109
1, 47286, Control_c, 0, 64, 112
1, 47300, Control_c, 0, 64, 114
1, 47315, Control_c, 0, 64, 116
1, 47330, Control_c, 0, 64, 118
1, 47345, Control_c, 0, 64, 120
1, 47359, Control_c, 0, 64, 124
1, 47374, Control_c, 0, 64, 127
1, 47434, Note_on_c, 0, 37, 40
1, 47631, Note_off_c, 0, 72, 37
1, 47634, Note_on_c, 0, 75, 54
1, 47745, Control_c, 0, 64, 126
1, 47760, Control_c, 0, 64, 110
1, 47775, Control_c, 0, 64, 92
1, 47797, Control_c, 0, 64, 73
1, 47812, Control_c, 0, 64, 46
1, 47826, Note_off_c, 0, 75, 54
1, 47827, Control_c, 0, 64, 0
1, 47836, Note_on_c, 0, 73, 58
1, 47857, Control_c, 0, 64, 49
1, 47871, Control_c, 0, 64, 65
1, 47886, Control_c, 0, 64, 72
1, 47901, Control_c, 0, 64, 79
1, 47901, Control_c, 0, 67, 124
1, 47915, Control_c, 0, 64, 87
1, 47915, Control_c, 0, 67, 110
1, 47916, Note_off_c, 0, 37, 51
1, 47930, Control_c, 0, 64, 94
1, 47930, Control_c, 0, 67, 92
1, 47945, Control_c, 0, 64, 97
1, 47945, Control_c, 0, 67, 70
1, 47960, Control_c, 0, 64, 100
1, 47960, Control_c, 0, 67, 54
1, 47975, Control_c, 0, 64, 103
1, 47975, Control_c, 0, 67, 40
1, 47989, Control_c, 0, 64, 106
1, 47989, Control_c, 0, 67, 26
1, 48001, Note_off_c, 0, 73, 54
1, 48004, Control_c, 0, 64, 109
1, 48004, Control_c, 0, 67, 12
1, 48019, Control_c, 0, 64, 112
1, 48019, Control_c, 0, 67, 0
1, 48022, Note_on_c, 0, 72, 57
1, 48034, Control_c, 0, 64, 115
1, 48049, Control_c, 0, 64, 116
1, 48064, Control_c, 0, 64, 117
1, 48097, Note_off_c, 0, 72, 57
1, 48197, Control_c, 0, 64, 116
1, 48212, Control_c, 0, 64, 110
1, 48215, Note_on_c, 0, 73, 57
1, 48227, Control_c, 0, 64, 105
1, 48234, Note_on_c, 0, 61, 41
1, 48242, Control_c, 0, 64, 98
1, 48256, Control_c, 0, 64, 89
1, 48271, Control_c, 0, 64, 82
1, 48286, Control_c, 0, 64, 75
1, 48300, Control_c, 0, 64, 68
1, 48315, Control_c, 0, 64, 61
1, 48330, Control_c, 0, 64, 43
1, 48345, Control_c, 0, 64, 0
1, 48400, Note_off_c, 0, 73, 59
1, 48416, Note_on_c, 0, 81, 55
1, 48421, Note_on_c, 0, 56, 45
1, 48620, Control_c, 0, 64, 55
1, 48630, Note_on_c, 0, 80, 58
1, 48635, Note_on_c, 0, 53, 44
1, 48635, Control_c, 0, 64, 67
1, 48636, Note_off_c, 0, 81, 58
1, 48650, Control_c, 0, 64, 70
1, 48665, Control_c, 0, 64, 71
1, 48680, Control_c, 0, 64, 72
1, 48694, Control_c, 0, 64, 73
1, 48702, Note_off_c, 0, 61, 44
1, 48709, Control_c, 0, 64, 76
1, 48721, Note_off_c, 0, 56, 32
1, 48724, Control_c, 0, 64, 79
1, 48738, Control_c, 0, 64, 82
1, 48753, Control_c, 0, 64, 85
1, 48768, Control_c, 0, 64, 87
1, 48783, Control_c, 0, 64, 90
1, 48798, Control_c, 0, 64, 92
1, 48812, Control_c, 0, 64, 94
1, 48813, Note_off_c, 0, 53, 35
1, 48827, Note_on_c, 0, 49, 40
1, 48827, Control_c, 0, 64, 97
1, 48842, Control_c, 0, 64, 99
1, 48857, Control_c, 0, 64, 101
1, 48864, Note_off_c, 0, 49, 52
1, 48872, Control_c, 0, 64, 103
1, 48886, Control_c, 0, 64, 104
1, 48901, Control_c, 0, 64, 105
1, 48916, Control_c, 0, 64, 106
1, 48931, Control_c, 0, 64, 106
1, 48961, Control_c, 0, 64, 107
1, 49047, Note_on_c, 0, 37, 49
1, 49094, Control_c, 0, 64, 103
1, 49109, Control_c, 0, 64, 93
1, 49124, Control_c, 0, 64, 79
1, 49138, Control_c, 0, 64, 68
1, 49153, Control_c, 0, 64, 61
1, 49168, Control_c, 0, 64, 63
1, 49183, Control_c, 0, 64, 68
1, 49198, Control_c, 0, 64, 73
1, 49212, Control_c, 0, 64, 77
1, 49227, Control_c, 0, 64, 81
1, 49242, Control_c, 0, 64, 84
1, 49244, Note_on_c, 0, 83, 60
1, 49258, Control_c, 0, 64, 88
1, 49280, Control_c, 0, 64, 91
1, 49295, Control_c, 0, 64, 94
1, 49310, Control_c, 0, 64, 97
1, 49313, Note_off_c, 0, 80, 34
1, 49324, Control_c, 0, 64, 101
1, 49328, Note_off_c, 0, 37, 41
1, 49339, Control_c, 0, 64, 105
1, 49354, Control_c, 0, 64, 110
1, 49369, Control_c, 0, 64, 116
1, 49384, Control_c, 0, 64, 122
1, 49398, Control_c, 0, 64, 127
1, 49440, Note_on_c, 0, 81, 73
1, 49462, Note_off_c, 0, 83, 54
1, 49627, Note_on_c, 0, 80, 79
1, 49640, Note_off_c, 0, 81, 58
1, 49813, Control_c, 0, 64, 119
1, 49827, Control_c, 0, 64, 111
1, 49834, Note_on_c, 0, 81, 72
1, 49842, Control_c, 0, 64, 102
1, 49844, Note_off_c, 0, 80, 62
1, 49846, Note_on_c, 0, 61, 48
1, 49857, Control_c, 0, 64, 92
1, 49872, Control_c, 0, 64, 83
1, 49886, Control_c, 0, 64, 74
1, 49901, Control_c, 0, 64, 65
1, 49916, Control_c, 0, 64, 52
1, 49931, Control_c, 0, 64, 0
1, 49975, Control_c, 0, 64, 14
1, 49990, Control_c, 0, 64, 21
1, 50041, Note_on_c, 0, 73, 66
1, 50042, Control_c, 0, 64, 23
1, 50058, Control_c, 0, 64, 27
1, 50060, Note_on_c, 0, 57, 42
1, 50112, Note_off_c, 0, 81, 48
1, 50117, Control_c, 0, 64, 24
1, 50132, Control_c, 0, 64, 0
1, 50238, Note_on_c, 0, 72, 63
1, 50250, Note_on_c, 0, 54, 48
1, 50274, Note_off_c, 0, 73, 60
1, 50295, Control_c, 0, 64, 36
1, 50309, Control_c, 0, 64, 62
1, 50324, Control_c, 0, 64, 66
1, 50339, Control_c, 0, 64, 69
1, 50354, Control_c, 0, 64, 72
1, 50367, Note_off_c, 0, 57, 34
1, 50369, Control_c, 0, 64, 75
1, 50374, Note_off_c, 0, 61, 37
1, 50383, Control_c, 0, 64, 79
1, 50398, Control_c, 0, 64, 84
1, 50413, Control_c, 0, 64, 88
1, 50424, Note_off_c, 0, 54, 37
1, 50428, Control_c, 0, 64, 93
1, 50434, Note_on_c, 0, 49, 53
1, 50443, Control_c, 0, 64, 99
1, 50457, Control_c, 0, 64, 104
1, 50463, Note_off_c, 0, 49, 62
1, 50472, Control_c, 0, 64, 110
1, 50487, Control_c, 0, 64, 116
1, 50502, Control_c, 0, 64, 127
1, 50641, Note_on_c, 0, 37, 65
1, 50846, Note_on_c, 0, 75, 73
1, 50896, Control_c, 0, 64, 103
1, 50911, Control_c, 0, 64, 87
1, 50924, Note_off_c, 0, 72, 39
1, 50926, Control_c, 0, 64, 75
1, 50940, Control_c, 0, 64, 70
1, 50970, Control_c, 0, 64, 73
1, 50985, Control_c, 0, 64, 78
1, 51000, Control_c, 0, 64, 80
1, 51015, Control_c, 0, 64, 81
1, 51030, Control_c, 0, 64, 82
1, 51033, Note_off_c, 0, 37, 62
1, 51040, Note_on_c, 0, 73, 76
1, 51044, Control_c, 0, 64, 83
1, 51059, Control_c, 0, 64, 84
1, 51074, Control_c, 0, 64, 86
1, 51077, Note_off_c, 0, 75, 55
1, 51089, Control_c, 0, 64, 87
1, 51104, Control_c, 0, 64, 88
1, 51119, Control_c, 0, 64, 89
1, 51133, Control_c, 0, 64, 89
1, 51224, Note_on_c, 0, 72, 73
1, 51286, Note_off_c, 0, 73, 37
1, 51311, Control_c, 0, 64, 89
1, 51325, Control_c, 0, 64, 88
1, 51340, Control_c, 0, 64, 88
1, 51355, Note_off_c, 0, 72, 61
1, 51355, Control_c, 0, 64, 87
1, 51370, Control_c, 0, 64, 87
1, 51399, Control_c, 0, 64, 86
1, 51414, Control_c, 0, 64, 85
1, 51429, Control_c, 0, 64, 83
1, 51436, Note_on_c, 0, 73, 78
1, 51444, Control_c, 0, 64, 80
1, 51452, Note_on_c, 0, 61, 55
1, 51459, Control_c, 0, 64, 74
1, 51474, Control_c, 0, 64, 68
1, 51489, Control_c, 0, 64, 62
1, 51504, Control_c, 0, 64, 37
1, 51518, Control_c, 0, 64, 0
1, 51674, Note_on_c, 0, 81, 78
1, 51688, Note_on_c, 0, 56, 62
1, 51704, Control_c, 0, 64, 49
1, 51708, Note_off_c, 0, 73, 56
1, 51719, Control_c, 0, 64, 65
1, 51734, Control_c, 0, 64, 71
1, 51749, Control_c, 0, 64, 74
1, 51763, Control_c, 0, 64, 76
1, 51778, Control_c, 0, 64, 77
1, 51793, Control_c, 0, 64, 78
1, 51808, Control_c, 0, 64, 79
1, 51837, Control_c, 0, 64, 79
1, 51852, Control_c, 0, 64, 75
1, 51866, Note_on_c, 0, 53, 60
1, 51867, Control_c, 0, 64, 68
1, 51873, Note_on_c, 0, 80, 75
1, 51882, Control_c, 0, 64, 60
1, 51889, Note_off_c, 0, 81, 61
1, 51897, Control_c, 0, 64, 48
1, 51912, Control_c, 0, 64, 48
1, 51927, Control_c, 0, 64, 61
1, 51942, Control_c, 0, 64, 68
1, 51956, Control_c, 0, 64, 74
1, 51971, Control_c, 0, 64, 78
1, 51986, Control_c, 0, 64, 82
1, 52001, Control_c, 0, 64, 87
1, 52015, Note_off_c, 0, 61, 37
1, 52016, Control_c, 0, 64, 94
1, 52030, Control_c, 0, 64, 101
1, 52045, Control_c, 0, 64, 109
1, 52060, Note_off_c, 0, 53, 61
1, 52060, Control_c, 0, 64, 119
1, 52061, Note_off_c, 0, 56, 29
1, 52069, Note_on_c, 0, 49, 59
1, 52074, Control_c, 0, 64, 127
1, 52100, Note_off_c, 0, 49, 64
1, 52277, Note_on_c, 0, 37, 62
1, 52313, Note_off_c, 0, 80, 56
1, 52443, Note_off_c, 0, 37, 37
1, 52466, Note_on_c, 0, 83, 78
1, 52656, Note_on_c, 0, 81, 86
1, 52694, Note_off_c, 0, 83, 60
1, 52843, Note_on_c, 0, 80, 89
1, 52854, Note_off_c, 0, 81, 62
1, 53001, Control_c, 0, 64, 121
1, 53024, Control_c, 0, 64, 105
1, 53039, Control_c, 0, 64, 90
1, 53053, Control_c, 0, 64, 75
1, 53062, Note_on_c, 0, 54, 47
1, 53064, Note_on_c, 0, 42, 52
1, 53067, Note_on_c, 0, 81, 83
1, 53068, Control_c, 0, 64, 56
1, 53078, Note_off_c, 0, 80, 59
1, 53083, Control_c, 0, 64, 0
1, 53140, Control_c, 0, 64, 27
1, 53155, Control_c, 0, 64, 65
1, 53170, Control_c, 0, 64, 73
1, 53185, Control_c, 0, 64, 80
1, 53200, Control_c, 0, 64, 87
1, 53203, Note_off_c, 0, 42, 60
1, 53215, Control_c, 0, 64, 92
1, 53218, Note_off_c, 0, 54, 59
1, 53229, Control_c, 0, 64, 97
1, 53245, Control_c, 0, 64, 101
1, 53260, Control_c, 0, 64, 106
1, 53274, Control_c, 0, 64, 111
1, 53289, Control_c, 0, 64, 115
1, 53297, Note_on_c, 0, 85, 90
1, 53304, Control_c, 0, 64, 121
1, 53310, Note_off_c, 0, 81, 62
1, 53319, Control_c, 0, 64, 127
1, 53493, Note_on_c, 0, 86, 84
1, 53495, Note_on_c, 0, 59, 54
1, 53497, Control_c, 0, 64, 106
1, 53509, Note_on_c, 0, 47, 46
1, 53512, Control_c, 0, 64, 85
1, 53517, Note_off_c, 0, 85, 56
1, 53526, Control_c, 0, 64, 69
1, 53541, Control_c, 0, 64, 0
1, 53586, Control_c, 0, 64, 43
1, 53590, Note_off_c, 0, 47, 64
1, 53600, Control_c, 0, 64, 64
1, 53615, Control_c, 0, 64, 71
1, 53625, Note_off_c, 0, 59, 53
1, 53630, Control_c, 0, 64, 78
1, 53645, Control_c, 0, 64, 82
1, 53660, Control_c, 0, 64, 85
1, 53674, Control_c, 0, 64, 88
1, 53684, Note_off_c, 0, 86, 65
1, 53685, Note_on_c, 0, 83, 75
1, 53689, Control_c, 0, 64, 93
1, 53704, Control_c, 0, 64, 98
1, 53718, Control_c, 0, 64, 103
1, 53733, Control_c, 0, 64, 109
1, 53748, Control_c, 0, 64, 114
1, 53763, Control_c, 0, 64, 119
1, 53786, Control_c, 0, 64, 126
1, 53800, Control_c, 0, 64, 127
1, 53874, Control_c, 0, 64, 120
1, 53879, Note_on_c, 0, 81, 74
1, 53882, Note_off_c, 0, 83, 61
1, 53890, Control_c, 0, 64, 108
1, 53900, Note_on_c, 0, 57, 46
1, 53905, Control_c, 0, 64, 93
1, 53913, Note_on_c, 0, 54, 37
1, 53915, Note_on_c, 0, 49, 41
1, 53919, Control_c, 0, 64, 75
1, 53934, Control_c, 0, 64, 63
1, 53949, Control_c, 0, 64, 0
1, 53993, Control_c, 0, 64, 50
1, 54008, Control_c, 0, 64, 65
1, 54023, Control_c, 0, 64, 73
1, 54038, Control_c, 0, 64, 78
1, 54054, Control_c, 0, 64, 81
1, 54064, Note_off_c, 0, 81, 62
1, 54069, Control_c, 0, 64, 84
1, 54084, Control_c, 0, 64, 87
1, 54095, Note_on_c, 0, 78, 64
1, 54098, Control_c, 0, 64, 91
1, 54113, Control_c, 0, 64, 96
1, 54128, Control_c, 0, 64, 99
1, 54142, Control_c, 0, 64, 102
1, 54157, Control_c, 0, 64, 105
1, 54172, Control_c, 0, 64, 107
1, 54187, Control_c, 0, 64, 108
1, 54261, Control_c, 0, 64, 102
1, 54264, Note_off_c, 0, 54, 37
1, 54276, Control_c, 0, 64, 87
1, 54291, Control_c, 0, 64, 73
1, 54293, Note_on_c, 0, 56, 44
1, 54297, Note_off_c, 0, 57, 37
1, 54306, Control_c, 0, 64, 59
1, 54320, Control_c, 0, 64, 50
1, 54335, Control_c, 0, 64, 60
1, 54350, Control_c, 0, 64, 67
1, 54365, Control_c, 0, 64, 74
1, 54380, Control_c, 0, 64, 80
1, 54393, Note_off_c, 0, 56, 63
1, 54395, Control_c, 0, 64, 84
1, 54410, Control_c, 0, 64, 86
1, 54424, Control_c, 0, 64, 88
1, 54439, Note_off_c, 0, 49, 42
1, 54439, Control_c, 0, 64, 89
1, 54454, Control_c, 0, 64, 91
1, 54468, Control_c, 0, 64, 92
1, 54483, Note_on_c, 0, 77, 59
1, 54483, Control_c, 0, 64, 95
1, 54489, Note_off_c, 0, 78, 38
1, 54498, Control_c, 0, 64, 98
1, 54513, Control_c, 0, 64, 101
1, 54535, Control_c, 0, 64, 104
1, 54550, Control_c, 0, 64, 105
1, 54565, Control_c, 0, 64, 106
1, 54580, Control_c, 0, 64, 106
1, 54610, Control_c, 0, 64, 107
1, 54669, Control_c, 0, 64, 106
1, 54713, Control_c, 0, 64, 106
1, 54728, Control_c, 0, 64, 103
1, 54732, Note_off_c, 0, 77, 37
1, 54742, Control_c, 0, 64, 96
1, 54744, Note_on_c, 0, 78, 51
1, 54752, Note_on_c, 0, 50, 35
1, 54757, Control_c, 0, 64, 83
1, 54769, Note_on_c, 0, 54, 34
1, 54772, Control_c, 0, 64, 68
1, 54787, Control_c, 0, 64, 44
1, 54802, Control_c, 0, 64, 0
1, 54831, Control_c, 0, 64, 47
1, 54847, Control_c, 0, 64, 64
1, 54862, Control_c, 0, 64, 70
1, 54877, Control_c, 0, 64, 76
1, 54891, Control_c, 0, 64, 81
1, 54906, Control_c, 0, 64, 83
1, 54921, Control_c, 0, 64, 86
1, 54936, Control_c, 0, 64, 88
1, 54949, Note_off_c, 0, 78, 58
1, 54951, Control_c, 0, 64, 90
1, 54963, Note_on_c, 0, 73, 65
1, 54965, Control_c, 0, 64, 93
1, 54980, Control_c, 0, 64, 96
1, 54995, Control_c, 0, 64, 98
1, 55010, Control_c, 0, 64, 100
1, 55025, Control_c, 0, 64, 102
1, 55039, Control_c, 0, 64, 102
1, 55054, Control_c, 0, 64, 103
1, 55128, Control_c, 0, 64, 101
1, 55143, Control_c, 0, 64, 91
1, 55158, Control_c, 0, 64, 75
1, 55163, Note_off_c, 0, 73, 57
1, 55164, Note_on_c, 0, 74, 64
1, 55172, Note_on_c, 0, 47, 36
1, 55173, Control_c, 0, 64, 63
1, 55188, Control_c, 0, 64, 11
1, 55203, Control_c, 0, 64, 0
1, 55209, Note_off_c, 0, 50, 43
1, 55218, Control_c, 0, 64, 30
1, 55233, Control_c, 0, 64, 59
1, 55247, Control_c, 0, 64, 68
1, 55262, Control_c, 0, 64, 72
1, 55284, Control_c, 0, 64, 73
1, 55298, Note_off_c, 0, 54, 46
1, 55298, Control_c, 0, 64, 74
1, 55313, Control_c, 0, 64, 74
1, 55318, Note_off_c, 0, 47, 59
1, 55328, Control_c, 0, 64, 75
1, 55343, Control_c, 0, 64, 77
1, 55351, Note_off_c, 0, 74, 61
1, 55353, Note_on_c, 0, 71, 66
1, 55358, Control_c, 0, 64, 78
1, 55373, Control_c, 0, 64, 79
1, 55388, Control_c, 0, 64, 80
1, 55447, Control_c, 0, 64, 80
1, 55462, Control_c, 0, 64, 79
1, 55477, Control_c, 0, 64, 78
1, 55492, Control_c, 0, 64, 75
1, 55506, Control_c, 0, 64, 71
1, 55521, Control_c, 0, 64, 66
1, 55536, Control_c, 0, 64, 62
1, 55551, Control_c, 0, 64, 36
1, 55553, Note_on_c, 0, 54, 33
1, 55558, Note_off_c, 0, 71, 61
1, 55563, Note_on_c, 0, 69, 59
1, 55566, Control_c, 0, 64, 0
1, 55578, Note_on_c, 0, 49, 33
1, 55581, Note_on_c, 0, 57, 31
1, 55758, Note_off_c, 0, 69, 58
1, 55772, Note_on_c, 0, 66, 53
1, 55903, Note_off_c, 0, 57, 31
1, 55975, Note_on_c, 0, 56, 40
1, 56005, Note_off_c, 0, 54, 29
1, 56011, Control_c, 0, 64, 30
1, 56033, Control_c, 0, 64, 63
1, 56048, Control_c, 0, 64, 71
1, 56063, Control_c, 0, 64, 81
1, 56077, Control_c, 0, 64, 95
1, 56092, Control_c, 0, 64, 106
1, 56093, Note_off_c, 0, 56, 62
1, 56107, Control_c, 0, 64, 109
1, 56121, Control_c, 0, 64, 110
1, 56135, Note_off_c, 0, 49, 43
1, 56136, Control_c, 0, 64, 113
1, 56151, Control_c, 0, 64, 116
1, 56166, Control_c, 0, 64, 118
1, 56171, Note_on_c, 0, 65, 48
1, 56173, Note_off_c, 0, 66, 37
1, 56181, Control_c, 0, 64, 119
1, 56195, Control_c, 0, 64, 119
1, 56254, Control_c, 0, 64, 119
1, 56284, Control_c, 0, 64, 115
1, 56299, Control_c, 0, 64, 111
1, 56314, Control_c, 0, 64, 106
1, 56328, Control_c, 0, 64, 100
1, 56343, Control_c, 0, 64, 92
1, 56358, Control_c, 0, 64, 84
1, 56373, Control_c, 0, 64, 78
1, 56378, Note_off_c, 0, 65, 59
1, 56388, Control_c, 0, 64, 70
1, 56393, Note_on_c, 0, 54, 28
1, 56398, Note_on_c, 0, 50, 29
1, 56398, Note_on_c, 0, 66, 45
1, 56402, Control_c, 0, 64, 62
1, 56417, Control_c, 0, 64, 0
1, 56417, Control_c, 0, 67, 8
1, 56432, Control_c, 0, 67, 13
1, 56448, Control_c, 0, 67, 21
1, 56463, Control_c, 0, 67, 30
1, 56478, Control_c, 0, 67, 37
1, 56492, Control_c, 0, 67, 43
1, 56507, Control_c, 0, 67, 48
1, 56522, Control_c, 0, 67, 56
1, 56537, Control_c, 0, 67, 64
1, 56551, Control_c, 0, 67, 73
1, 56566, Control_c, 0, 67, 83
1, 56580, Note_off_c, 0, 66, 61
1, 56581, Control_c, 0, 67, 94
1, 56596, Control_c, 0, 67, 104
1, 56601, Note_on_c, 0, 61, 50
1, 56610, Control_c, 0, 67, 117
1, 56625, Control_c, 0, 67, 127
1, 56798, Note_off_c, 0, 61, 59
1, 56801, Note_off_c, 0, 50, 45
1, 56813, Note_on_c, 0, 47, 30
1, 56828, Note_on_c, 0, 62, 40
1, 56996, Note_off_c, 0, 62, 55
1, 57011, Note_on_c, 0, 59, 47
1, 57154, Note_off_c, 0, 47, 44
1, 57199, Note_off_c, 0, 54, 46
1, 57211, Note_on_c, 0, 49, 32
1, 57227, Note_on_c, 0, 57, 43
1, 57242, Note_off_c, 0, 59, 40
1, 57442, Note_off_c, 0, 57, 59
1, 57466, Note_on_c, 0, 54, 45
1, 57734, Note_on_c, 0, 37, 36
1, 57739, Note_off_c, 0, 49, 46
1, 57980, Note_off_c, 0, 54, 57
1, 57991, Note_on_c, 0, 53, 40
1, 58079, Control_c, 0, 64, 38
1, 58094, Control_c, 0, 64, 64
1, 58109, Control_c, 0, 64, 74
1, 58124, Control_c, 0, 64, 81
1, 58139, Control_c, 0, 64, 85
1, 58154, Control_c, 0, 64, 87
1, 58169, Control_c, 0, 64, 90
1, 58184, Note_off_c, 0, 53, 49
1, 58184, Control_c, 0, 64, 94
1, 58198, Control_c, 0, 64, 98
1, 58213, Control_c, 0, 64, 101
1, 58228, Control_c, 0, 64, 103
1, 58339, Control_c, 0, 64, 101
1, 58354, Control_c, 0, 64, 98
1, 58369, Control_c, 0, 64, 94
1, 58377, Note_on_c, 0, 53, 37
1, 58377, Note_off_c, 0, 37, 27
1, 58383, Control_c, 0, 64, 87
1, 58393, Note_on_c, 0, 42, 25
1, 58398, Control_c, 0, 64, 77
1, 58413, Control_c, 0, 64, 68
1, 58428, Control_c, 0, 64, 53
1, 58442, Control_c, 0, 64, 0
1, 58516, Control_c, 0, 64, 23
1, 58531, Control_c, 0, 64, 50
1, 58546, Control_c, 0, 64, 60
1, 58561, Control_c, 0, 64, 65
1, 58576, Control_c, 0, 64, 71
1, 58590, Control_c, 0, 64, 80
1, 58605, Control_c, 0, 64, 91
1, 58620, Control_c, 0, 64, 100
1, 58634, Control_c, 0, 64, 103
1, 58649, Control_c, 0, 64, 107
1, 58664, Note_off_c, 0, 53, 42
1, 58664, Control_c, 0, 64, 112
1, 58679, Control_c, 0, 64, 127
1, 58843, Control_c, 0, 64, 119
1, 58858, Control_c, 0, 64, 103
1, 58873, Control_c, 0, 64, 92
1, 58887, Control_c, 0, 64, 82
1, 58889, Note_on_c, 0, 54, 32
1, 58902, Control_c, 0, 64, 73
1, 58917, Control_c, 0, 64, 66
1, 58932, Control_c, 0, 64, 52
1, 58947, Control_c, 0, 64, 0
1, 59909, Note_off_c, 0, 54, 44
1, 59960, Note_off_c, 0, 42, 42
1, 60659, Control_c, 0, 64, 31
1, 60674, Control_c, 0, 64, 44
1, 60689, Control_c, 0, 64, 44
1, 60704, Control_c, 0, 64, 45
1, 60718, Control_c, 0, 64, 47
1, 60733, Control_c, 0, 64, 50
1, 60748, Control_c, 0, 64, 54
1, 60763, Control_c, 0, 64, 58
1, 60778, Control_c, 0, 64, 61
1, 60792, Control_c, 0, 64, 63
1, 60807, Control_c, 0, 64, 65
1, 60822, Control_c, 0, 64, 67
1, 60837, Control_c, 0, 64, 70
1, 60852, Control_c, 0, 64, 72
1, 60867, Control_c, 0, 64, 75
1, 60881, Control_c, 0, 64, 78
1, 60896, Control_c, 0, 64, 81
1, 60911, Control_c, 0, 64, 85
1, 60926, Control_c, 0, 64, 89
1, 60941, Control_c, 0, 64, 94
1, 60956, Control_c, 0, 64, 101
1, 60971, Control_c, 0, 64, 110
1, 60985, Control_c, 0, 64, 127
1, 61847, Note_on_c, 0, 59, 30
1, 61869, Note_on_c, 0, 47, 25
1, 62372, Note_on_c, 0, 78, 38
1, 62482, Note_off_c, 0, 47, 42
1, 62582, Note_off_c, 0, 59, 42
1, 62598, Note_off_c, 0, 78, 42
1, 62856, Note_on_c, 0, 76, 35
1, 63120, Note_on_c, 0, 74, 45
1, 63159, Note_off_c, 0, 76, 35
1, 63362, Note_on_c, 0, 66, 30
1, 63750, Note_off_c, 0, 66, 43
1, 63789, Control_c, 0, 64, 123
1, 63804, Control_c, 0, 64, 104
1, 63811, Note_on_c, 0, 67, 42
1, 63818, Control_c, 0, 64, 90
1, 63833, Control_c, 0, 64, 80
1, 63848, Control_c, 0, 64, 71
1, 63862, Control_c, 0, 64, 64
1, 63877, Control_c, 0, 64, 47
1, 63892, Control_c, 0, 64, 0
1, 63937, Control_c, 0, 64, 37
1, 63952, Control_c, 0, 64, 57
1, 63967, Control_c, 0, 64, 65
1, 63982, Control_c, 0, 64, 70
1, 63996, Control_c, 0, 64, 77
1, 64011, Control_c, 0, 64, 83
1, 64021, Note_off_c, 0, 74, 51
1, 64026, Control_c, 0, 64, 86
1, 64041, Control_c, 0, 64, 89
1, 64055, Control_c, 0, 64, 94
1, 64070, Control_c, 0, 64, 101
1, 64085, Control_c, 0, 64, 112
1, 64100, Control_c, 0, 64, 127
1, 64318, Note_on_c, 0, 76, 36
1, 64497, Note_on_c, 0, 74, 47
1, 64522, Control_c, 0, 64, 124
1, 64537, Control_c, 0, 64, 118
1, 64552, Control_c, 0, 64, 115
1, 64557, Note_off_c, 0, 76, 33
1, 64566, Control_c, 0, 64, 113
1, 64581, Control_c, 0, 64, 110
1, 64596, Control_c, 0, 64, 107
1, 64611, Control_c, 0, 64, 104
1, 64626, Control_c, 0, 64, 101
1, 64640, Control_c, 0, 64, 98
1, 64655, Control_c, 0, 64, 95
1, 64670, Control_c, 0, 64, 90
1, 64685, Note_on_c, 0, 73, 43
1, 64685, Control_c, 0, 64, 85
1, 64690, Note_off_c, 0, 74, 36
1, 64700, Control_c, 0, 64, 81
1, 64715, Control_c, 0, 64, 79
1, 64730, Control_c, 0, 64, 76
1, 64745, Control_c, 0, 64, 73
1, 64759, Control_c, 0, 64, 69
1, 64774, Control_c, 0, 64, 66
1, 64789, Control_c, 0, 64, 63
1, 64803, Control_c, 0, 64, 61
1, 64818, Control_c, 0, 64, 60
1, 64833, Control_c, 0, 64, 59
1, 64848, Control_c, 0, 64, 58
1, 64863, Control_c, 0, 64, 56
1, 64877, Control_c, 0, 64, 52
1, 64892, Control_c, 0, 64, 49
1, 64907, Control_c, 0, 64, 48
1, 64919, Note_off_c, 0, 73, 55
1, 64922, Note_on_c, 0, 71, 36
1, 64922, Control_c, 0, 64, 47
1, 64937, Control_c, 0, 64, 46
1, 64951, Control_c, 0, 64, 42
1, 64966, Control_c, 0, 64, 41
1, 65018, Control_c, 0, 64, 39
1, 65033, Control_c, 0, 64, 34
1, 65048, Control_c, 0, 64, 27
1, 65063, Control_c, 0, 64, 26
1, 65078, Control_c, 0, 64, 23
1, 65092, Control_c, 0, 64, 0
1, 65139, Note_on_c, 0, 62, 20
1, 65144, Note_off_c, 0, 67, 48
1, 65151, Note_on_c, 0, 66, 29
1, 65166, Control_c, 0, 64, 36
1, 65181, Control_c, 0, 64, 55
1, 65196, Control_c, 0, 64, 60
1, 65210, Control_c, 0, 64, 62
1, 65226, Control_c, 0, 64, 65
1, 65241, Control_c, 0, 64, 70
1, 65256, Control_c, 0, 64, 75
1, 65271, Control_c, 0, 64, 80
1, 65286, Control_c, 0, 64, 86
1, 65300, Control_c, 0, 64, 92
1, 65310, Note_off_c, 0, 62, 40
1, 65315, Control_c, 0, 64, 98
1, 65330, Control_c, 0, 64, 103
1, 65345, Control_c, 0, 64, 107
1, 65360, Control_c, 0, 64, 111
1, 65362, Note_off_c, 0, 66, 41
1, 65375, Control_c, 0, 64, 114
1, 65389, Control_c, 0, 64, 116
1, 65404, Control_c, 0, 64, 117
1, 65433, Control_c, 0, 64, 118
1, 65493, Control_c, 0, 64, 117
1, 65538, Control_c, 0, 64, 116
1, 65553, Control_c, 0, 64, 111
1, 65557, Note_on_c, 0, 64, 36
1, 65567, Control_c, 0, 64, 102
1, 65573, Note_on_c, 0, 67, 33
1, 65582, Control_c, 0, 64, 90
1, 65597, Control_c, 0, 64, 78
1, 65612, Control_c, 0, 64, 65
1, 65626, Control_c, 0, 64, 43
1, 65641, Control_c, 0, 64, 23
1, 65656, Control_c, 0, 64, 47
1, 65671, Control_c, 0, 64, 63
1, 65686, Control_c, 0, 64, 69
1, 65700, Control_c, 0, 64, 74
1, 65715, Control_c, 0, 64, 79
1, 65730, Control_c, 0, 64, 82
1, 65745, Control_c, 0, 64, 85
1, 65767, Control_c, 0, 64, 88
1, 65770, Note_off_c, 0, 67, 52
1, 65771, Note_on_c, 0, 74, 48
1, 65782, Control_c, 0, 64, 91
1, 65797, Control_c, 0, 64, 94
1, 65806, Note_off_c, 0, 71, 38
1, 65809, Note_off_c, 0, 64, 42
1, 65812, Control_c, 0, 64, 97
1, 65827, Control_c, 0, 64, 99
1, 65841, Control_c, 0, 64, 100
1, 65856, Control_c, 0, 64, 101
1, 65925, Note_off_c, 0, 74, 56
1, 65959, Note_on_c, 0, 73, 57
1, 65959, Control_c, 0, 64, 98
1, 65970, Note_on_c, 0, 66, 39
1, 65971, Note_on_c, 0, 62, 35
1, 65974, Control_c, 0, 64, 89
1, 65988, Control_c, 0, 64, 76
1, 66003, Control_c, 0, 64, 62
1, 66018, Control_c, 0, 64, 0
1, 66048, Control_c, 0, 64, 49
1, 66063, Control_c, 0, 64, 65
1, 66078, Control_c, 0, 64, 73
1, 66093, Control_c, 0, 64, 79
1, 66108, Control_c, 0, 64, 83
1, 66122, Control_c, 0, 64, 86
1, 66137, Control_c, 0, 64, 90
1, 66143, Note_off_c, 0, 73, 58
1, 66146, Note_on_c, 0, 71, 62
1, 66148, Note_off_c, 0, 62, 39
1, 66148, Note_off_c, 0, 66, 54
1, 66152, Control_c, 0, 64, 93
1, 66167, Control_c, 0, 64, 97
1, 66182, Control_c, 0, 64, 102
1, 66196, Control_c, 0, 64, 107
1, 66211, Control_c, 0, 64, 111
1, 66226, Control_c, 0, 64, 115
1, 66241, Control_c, 0, 64, 118
1, 66256, Control_c, 0, 64, 118
1, 66301, Control_c, 0, 64, 118
1, 66307, Note_off_c, 0, 71, 56
1, 66316, Control_c, 0, 64, 112
1, 66330, Control_c, 0, 64, 95
1, 66336, Note_on_c, 0, 78, 68
1, 66345, Control_c, 0, 64, 77
1, 66350, Note_on_c, 0, 64, 37
1, 66352, Note_on_c, 0, 61, 38
1, 66360, Control_c, 0, 64, 59
1, 66375, Control_c, 0, 64, 0
1, 66419, Control_c, 0, 64, 47
1, 66434, Control_c, 0, 64, 67
1, 66448, Control_c, 0, 64, 76
1, 66463, Control_c, 0, 64, 84
1, 66478, Control_c, 0, 64, 89
1, 66493, Control_c, 0, 64, 90
1, 66515, Control_c, 0, 64, 90
1, 66539, Note_on_c, 0, 76, 61
1, 66545, Control_c, 0, 64, 91
1, 66548, Note_off_c, 0, 78, 32
1, 66582, Note_off_c, 0, 76, 60
1, 66593, Note_off_c, 0, 61, 39
1, 66619, Control_c, 0, 64, 90
1, 66624, Note_on_c, 0, 74, 51
1, 66634, Control_c, 0, 64, 87
1, 66641, Note_on_c, 0, 76, 64
1, 66648, Note_off_c, 0, 74, 61
1, 66649, Control_c, 0, 64, 81
1, 66663, Control_c, 0, 64, 70
1, 66670, Note_off_c, 0, 76, 61
1, 66673, Note_off_c, 0, 64, 38
1, 66678, Control_c, 0, 64, 58
1, 66682, Note_on_c, 0, 66, 49
1, 66693, Control_c, 0, 64, 0
1, 66711, Note_on_c, 0, 74, 69
1, 66856, Note_off_c, 0, 74, 62
1, 66864, Note_on_c, 0, 73, 68
1, 67050, Note_off_c, 0, 66, 56
1, 67053, Note_off_c, 0, 73, 59
1, 67069, Note_on_c, 0, 74, 60
1, 67088, Note_on_c, 0, 59, 29
1, 67233, Note_off_c, 0, 74, 60
1, 67266, Note_on_c, 0, 71, 54
1, 67425, Note_off_c, 0, 71, 59
1, 67449, Note_on_c, 0, 74, 51
1, 67617, Note_off_c, 0, 74, 58
1, 67625, Note_on_c, 0, 78, 50
1, 67827, Note_on_c, 0, 76, 48
1, 67851, Note_off_c, 0, 78, 49
1, 68027, Note_off_c, 0, 76, 52
1, 68041, Note_on_c, 0, 74, 37
1, 68264, Note_on_c, 0, 66, 43
1, 68324, Control_c, 0, 64, 26
1, 68339, Control_c, 0, 64, 60
1, 68354, Control_c, 0, 64, 67
1, 68369, Control_c, 0, 64, 72
1, 68383, Control_c, 0, 64, 75
1, 68398, Control_c, 0, 64, 78
1, 68413, Control_c, 0, 64, 81
1, 68429, Control_c, 0, 64, 84
1, 68444, Control_c, 0, 64, 88
1, 68458, Control_c, 0, 64, 91
1, 68473, Control_c, 0, 64, 95
1, 68488, Control_c, 0, 64, 98
1, 68503, Control_c, 0, 64, 99
1, 68518, Control_c, 0, 64, 101
1, 68532, Control_c, 0, 64, 101
1, 68599, Note_off_c, 0, 66, 41
1, 68665, Control_c, 0, 64, 100
1, 68680, Control_c, 0, 64, 99
1, 68695, Control_c, 0, 64, 98
1, 68710, Control_c, 0, 64, 97
1, 68724, Control_c, 0, 64, 94
1, 68730, Note_on_c, 0, 67, 36
1, 68747, Control_c, 0, 64, 89
1, 68762, Control_c, 0, 64, 79
1, 68777, Control_c, 0, 64, 69
1, 68792, Control_c, 0, 64, 56
1, 68806, Control_c, 0, 64, 0
1, 68865, Control_c, 0, 64, 40
1, 68880, Control_c, 0, 64, 60
1, 68895, Control_c, 0, 64, 65
1, 68910, Control_c, 0, 64, 69
1, 68924, Control_c, 0, 64, 73
1, 68939, Control_c, 0, 64, 78
1, 68949, Note_off_c, 0, 74, 53
1, 68954, Control_c, 0, 64, 84
1, 68969, Control_c, 0, 64, 88
1, 68984, Control_c, 0, 64, 92
1, 68998, Control_c, 0, 64, 96
1, 69013, Control_c, 0, 64, 101
1, 69028, Control_c, 0, 64, 106
1, 69043, Control_c, 0, 64, 115
1, 69058, Control_c, 0, 64, 127
1, 69102, Note_off_c, 0, 59, 39
1, 69201, Note_on_c, 0, 74, 41
1, 69635, Note_on_c, 0, 73, 42
1, 69650, Note_off_c, 0, 74, 41
1, 69719, Note_off_c, 0, 73, 0
1, 69719, Note_on_c, 0, 73, 16
1, 69734, Control_c, 0, 64, 126
1, 69748, Control_c, 0, 64, 114
1, 69763, Control_c, 0, 64, 109
1, 69778, Control_c, 0, 64, 107
1, 69792, Control_c, 0, 64, 106
1, 69807, Control_c, 0, 64, 103
1, 69822, Control_c, 0, 64, 99
1, 69837, Control_c, 0, 64, 96
1, 69852, Control_c, 0, 64, 93
1, 69866, Control_c, 0, 64, 92
1, 69881, Control_c, 0, 64, 92
1, 69911, Control_c, 0, 64, 91
1, 69921, Note_on_c, 0, 71, 45
1, 69926, Control_c, 0, 64, 90
1, 69940, Control_c, 0, 64, 89
1, 69955, Control_c, 0, 64, 88
1, 69969, Note_off_c, 0, 73, 44
1, 69970, Control_c, 0, 64, 87
1, 69985, Control_c, 0, 64, 86
1, 70000, Control_c, 0, 64, 84
1, 70015, Control_c, 0, 64, 82
1, 70030, Control_c, 0, 64, 80
1, 70045, Control_c, 0, 64, 79
1, 70060, Control_c, 0, 64, 77
1, 70075, Control_c, 0, 64, 73
1, 70090, Control_c, 0, 64, 68
1, 70104, Control_c, 0, 64, 61
1, 70105, Note_off_c, 0, 67, 39
1, 70119, Control_c, 0, 64, 33
1, 70124, Note_on_c, 0, 62, 20
1, 70134, Note_on_c, 0, 66, 28
1, 70134, Control_c, 0, 64, 0
1, 70164, Control_c, 0, 64, 37
1, 70179, Control_c, 0, 64, 62
1, 70194, Control_c, 0, 64, 69
1, 70209, Control_c, 0, 64, 75
1, 70223, Control_c, 0, 64, 79
1, 70238, Control_c, 0, 64, 82
1, 70260, Control_c, 0, 64, 85
1, 70275, Control_c, 0, 64, 89
1, 70278, Note_off_c, 0, 62, 40
1, 70290, Control_c, 0, 64, 92
1, 70290, Control_c, 0, 67, 117
1, 70304, Control_c, 0, 64, 95
1, 70304, Control_c, 0, 67, 98
1, 70316, Note_off_c, 0, 66, 40
1, 70319, Control_c, 0, 64, 98
1, 70319, Control_c, 0, 67, 79
1, 70334, Control_c, 0, 64, 99
1, 70334, Control_c, 0, 67, 60
1, 70349, Control_c, 0, 64, 100
1, 70349, Control_c, 0, 67, 44
1, 70364, Control_c, 0, 67, 30
1, 70378, Control_c, 0, 64, 100
1, 70378, Control_c, 0, 67, 16
1, 70393, Control_c, 0, 67, 0
1, 70452, Control_c, 0, 64, 100
1, 70493, Note_on_c, 0, 64, 24
1, 70494, Note_on_c, 0, 67, 26
1, 70511, Control_c, 0, 64, 98
1, 70526, Control_c, 0, 64, 92
1, 70541, Control_c, 0, 64, 81
1, 70556, Control_c, 0, 64, 68
1, 70570, Control_c, 0, 64, 60
1, 70585, Control_c, 0, 64, 57
1, 70600, Control_c, 0, 64, 64
1, 70615, Control_c, 0, 64, 70
1, 70629, Control_c, 0, 64, 76
1, 70644, Control_c, 0, 64, 81
1, 70659, Control_c, 0, 64, 84
1, 70674, Control_c, 0, 64, 86
1, 70689, Control_c, 0, 64, 88
1, 70704, Control_c, 0, 64, 91
1, 70718, Control_c, 0, 64, 94
1, 70720, Note_on_c, 0, 74, 33
1, 70723, Note_off_c, 0, 67, 47
1, 70733, Control_c, 0, 64, 96
1, 70742, Note_off_c, 0, 64, 43
1, 70748, Control_c, 0, 64, 98
1, 70763, Control_c, 0, 64, 99
1, 70778, Control_c, 0, 64, 100
1, 70835, Note_off_c, 0, 71, 31
1, 70867, Control_c, 0, 64, 99
1, 70882, Control_c, 0, 64, 95
1, 70897, Control_c, 0, 64, 87
1, 70898, Note_on_c, 0, 66, 38
1, 70909, Note_on_c, 0, 62, 24
1, 70909, Note_on_c, 0, 73, 50
1, 70912, Control_c, 0, 64, 75
1, 70927, Control_c, 0, 64, 65
1, 70931, Note_off_c, 0, 74, 46
1, 70942, Control_c, 0, 64, 30
1, 70957, Control_c, 0, 64, 0
1, 70972, Control_c, 0, 64, 40
1, 70987, Control_c, 0, 64, 62
1, 71008, Control_c, 0, 64, 68
1, 71023, Control_c, 0, 64, 74
1, 71038, Control_c, 0, 64, 80
1, 71052, Control_c, 0, 64, 83
1, 71067, Control_c, 0, 64, 85
1, 71082, Control_c, 0, 64, 88
1, 71094, Note_off_c, 0, 73, 60
1, 71097, Control_c, 0, 64, 90
1, 71109, Note_on_c, 0, 71, 61
1, 71112, Control_c, 0, 64, 93
1, 71123, Note_off_c, 0, 62, 40
1, 71127, Control_c, 0, 64, 96
1, 71136, Note_off_c, 0, 66, 50
1, 71142, Control_c, 0, 64, 98
1, 71157, Control_c, 0, 64, 100
1, 71171, Control_c, 0, 64, 101
1, 71186, Control_c, 0, 64, 102
1, 71201, Control_c, 0, 64, 102
1, 71288, Note_on_c, 0, 64, 47
1, 71293, Note_off_c, 0, 71, 39
1, 71305, Control_c, 0, 64, 100
1, 71315, Note_on_c, 0, 76, 53
1, 71319, Control_c, 0, 64, 90
1, 71321, Note_on_c, 0, 61, 40
1, 71334, Control_c, 0, 64, 77
1, 71349, Control_c, 0, 64, 66
1, 71364, Control_c, 0, 64, 49
1, 71378, Control_c, 0, 64, 49
1, 71393, Control_c, 0, 64, 63
1, 71408, Control_c, 0, 64, 69
1, 71416, Note_off_c, 0, 64, 64
1, 71423, Control_c, 0, 64, 77
1, 71438, Control_c, 0, 64, 83
1, 71452, Control_c, 0, 64, 86
1, 71467, Control_c, 0, 64, 88
1, 71473, Note_off_c, 0, 61, 56
1, 71482, Control_c, 0, 64, 92
1, 71497, Control_c, 0, 64, 95
1, 71508, Note_off_c, 0, 76, 54
1, 71510, Note_on_c, 0, 70, 63
1, 71512, Control_c, 0, 64, 99
1, 71526, Control_c, 0, 64, 104
1, 71541, Control_c, 0, 64, 109
1, 71556, Control_c, 0, 64, 116
1, 71571, Control_c, 0, 64, 127
1, 71646, Control_c, 0, 64, 111
1, 71660, Control_c, 0, 64, 91
1, 71668, Note_off_c, 0, 70, 60
1, 71675, Control_c, 0, 64, 77
1, 71677, Note_on_c, 0, 59, 46
1, 71690, Control_c, 0, 64, 71
1, 71705, Control_c, 0, 64, 73
1, 71720, Control_c, 0, 64, 80
1, 71742, Control_c, 0, 64, 89
1, 71757, Control_c, 0, 64, 95
1, 71772, Control_c, 0, 64, 97
1, 71784, Note_on_c, 0, 71, 50
1, 71787, Control_c, 0, 64, 98
1, 71801, Control_c, 0, 64, 99
1, 71807, Note_off_c, 0, 71, 59
1, 71817, Note_on_c, 0, 73, 64
1, 71851, Note_off_c, 0, 73, 64
1, 71877, Note_on_c, 0, 71, 67
1, 71889, Note_off_c, 0, 59, 35
1, 71890, Control_c, 0, 64, 98
1, 71905, Control_c, 0, 64, 97
1, 71908, Note_off_c, 0, 71, 63
1, 71920, Control_c, 0, 64, 95
1, 71935, Control_c, 0, 64, 94
1, 71942, Note_on_c, 0, 70, 61
1, 71950, Control_c, 0, 64, 92
1, 71964, Control_c, 0, 64, 89
1, 71974, Note_off_c, 0, 70, 65
1, 71979, Control_c, 0, 64, 84
1, 71994, Control_c, 0, 64, 80
1, 71996, Note_on_c, 0, 71, 65
1, 72009, Control_c, 0, 64, 77
1, 72024, Control_c, 0, 64, 75
1, 72039, Control_c, 0, 64, 72
1, 72051, Note_off_c, 0, 71, 59
1, 72054, Control_c, 0, 64, 70
1, 72068, Control_c, 0, 64, 66
1, 72082, Note_on_c, 0, 54, 44
1, 72083, Control_c, 0, 64, 60
1, 72096, Note_on_c, 0, 73, 61
1, 72098, Control_c, 0, 64, 43
1, 72113, Control_c, 0, 64, 0
1, 72277, Note_off_c, 0, 73, 61
1, 72284, Note_on_c, 0, 76, 66
1, 72468, Note_on_c, 0, 74, 71
1, 72494, Note_off_c, 0, 76, 52
1, 72644, Note_on_c, 0, 73, 73
1, 72662, Note_off_c, 0, 74, 58
1, 72683, Note_off_c, 0, 54, 63
1, 72850, Note_on_c, 0, 74, 65
1, 72862, Note_off_c, 0, 73, 56
1, 72868, Note_on_c, 0, 71, 45
1, 73019, Note_off_c, 0, 71, 58
1, 73052, Note_on_c, 0, 67, 33
1, 73157, Control_c, 0, 64, 40
1, 73172, Control_c, 0, 64, 59
1, 73187, Control_c, 0, 64, 64
1, 73202, Control_c, 0, 64, 66
1, 73218, Control_c, 0, 64, 68
1, 73233, Control_c, 0, 64, 69
1, 73234, Note_off_c, 0, 67, 41
1, 73255, Control_c, 0, 64, 69
1, 73258, Note_on_c, 0, 64, 25
1, 73270, Control_c, 0, 64, 70
1, 73285, Control_c, 0, 64, 71
1, 73300, Control_c, 0, 64, 72
1, 73315, Control_c, 0, 64, 74
1, 73329, Control_c, 0, 64, 75
1, 73344, Control_c, 0, 64, 76
1, 73360, Control_c, 0, 64, 78
1, 73374, Control_c, 0, 64, 79
1, 73389, Control_c, 0, 64, 81
1, 73404, Control_c, 0, 64, 83
1, 73419, Control_c, 0, 64, 85
1, 73428, Note_off_c, 0, 64, 42
1, 73434, Control_c, 0, 64, 86
1, 73446, Note_on_c, 0, 61, 33
1, 73448, Control_c, 0, 64, 88
1, 73463, Control_c, 0, 64, 90
1, 73478, Control_c, 0, 64, 91
1, 73493, Control_c, 0, 64, 92
1, 73508, Control_c, 0, 64, 92
1, 73622, Note_off_c, 0, 61, 42
1, 73693, Note_on_c, 0, 55, 22
1, 73700, Control_c, 0, 64, 92
1, 73714, Control_c, 0, 64, 91
1, 73729, Control_c, 0, 64, 90
1, 73744, Control_c, 0, 64, 89
1, 73759, Control_c, 0, 64, 87
1, 73774, Control_c, 0, 64, 82
1, 73789, Control_c, 0, 64, 73
1, 73804, Control_c, 0, 64, 65
1, 73819, Control_c, 0, 64, 53
1, 73833, Control_c, 0, 64, 31
1, 73848, Control_c, 0, 64, 41
1, 73863, Control_c, 0, 64, 57
1, 73868, Note_on_c, 0, 76, 51
1, 73878, Control_c, 0, 64, 65
1, 73893, Control_c, 0, 64, 70
1, 73902, Note_off_c, 0, 74, 54
1, 73908, Control_c, 0, 64, 72
1, 73922, Control_c, 0, 64, 73
1, 73937, Control_c, 0, 64, 75
1, 73952, Control_c, 0, 64, 77
1, 73966, Control_c, 0, 64, 79
1, 73981, Control_c, 0, 64, 80
1, 74003, Control_c, 0, 64, 82
1, 74019, Control_c, 0, 64, 83
1, 74034, Control_c, 0, 64, 84
1, 74049, Control_c, 0, 64, 85
1, 74057, Note_on_c, 0, 73, 65
1, 74064, Control_c, 0, 64, 86
1, 74078, Control_c, 0, 64, 87
1, 74093, Control_c, 0, 64, 88
1, 74108, Control_c, 0, 64, 89
1, 74123, Control_c, 0, 64, 90
1, 74138, Control_c, 0, 64, 90
1, 74152, Control_c, 0, 64, 91
1, 74167, Control_c, 0, 64, 91
1, 74182, Control_c, 0, 64, 92
1, 74185, Note_off_c, 0, 76, 29
1, 74229, Note_on_c, 0, 74, 72
1, 74252, Note_off_c, 0, 73, 55
1, 74297, Note_off_c, 0, 74, 60
1, 74358, Note_off_c, 0, 55, 32
1, 74404, Control_c, 0, 64, 91
1, 74419, Control_c, 0, 64, 90
1, 74421, Note_on_c, 0, 74, 60
1, 74434, Control_c, 0, 64, 88
1, 74449, Control_c, 0, 64, 85
1, 74454, Note_on_c, 0, 71, 42
1, 74463, Control_c, 0, 64, 81
1, 74478, Control_c, 0, 64, 77
1, 74493, Control_c, 0, 64, 72
1, 74508, Control_c, 0, 64, 68
1, 74523, Control_c, 0, 64, 64
1, 74537, Control_c, 0, 64, 61
1, 74552, Control_c, 0, 64, 59
1, 74597, Control_c, 0, 64, 58
1, 74611, Control_c, 0, 64, 45
1, 74613, Note_off_c, 0, 71, 53
1, 74624, Note_on_c, 0, 76, 59
1, 74626, Control_c, 0, 64, 0
1, 74637, Note_on_c, 0, 67, 36
1, 74649, Note_off_c, 0, 74, 54
1, 74796, Control_c, 0, 64, 56
1, 74811, Control_c, 0, 64, 66
1, 74827, Control_c, 0, 64, 69
1, 74842, Control_c, 0, 64, 70
1, 74844, Note_on_c, 0, 64, 23
1, 74848, Note_off_c, 0, 67, 37
1, 74856, Control_c, 0, 64, 71
1, 74871, Control_c, 0, 64, 72
1, 74886, Control_c, 0, 64, 74
1, 74901, Control_c, 0, 64, 76
1, 74916, Control_c, 0, 64, 78
1, 74930, Control_c, 0, 64, 79
1, 74945, Control_c, 0, 64, 80
1, 74960, Control_c, 0, 64, 80
1, 75019, Control_c, 0, 64, 81
1, 75028, Note_on_c, 0, 61, 27
1, 75049, Control_c, 0, 64, 81
1, 75064, Control_c, 0, 64, 82
1, 75065, Note_off_c, 0, 64, 37
1, 75079, Control_c, 0, 64, 83
1, 75093, Control_c, 0, 64, 83
1, 75108, Control_c, 0, 64, 84
1, 75123, Control_c, 0, 64, 85
1, 75138, Control_c, 0, 64, 86
1, 75153, Control_c, 0, 64, 86
1, 75167, Control_c, 0, 64, 87
1, 75182, Control_c, 0, 64, 88
1, 75197, Control_c, 0, 64, 89
1, 75211, Control_c, 0, 64, 89
1, 75241, Control_c, 0, 64, 88
1, 75249, Note_off_c, 0, 61, 31
1, 75253, Note_on_c, 0, 55, 31
1, 75256, Control_c, 0, 64, 84
1, 75271, Control_c, 0, 64, 75
1, 75285, Control_c, 0, 64, 68
1, 75300, Control_c, 0, 64, 65
1, 75315, Control_c, 0, 64, 67
1, 75330, Control_c, 0, 64, 71
1, 75345, Control_c, 0, 64, 75
1, 75360, Control_c, 0, 64, 79
1, 75375, Control_c, 0, 64, 82
1, 75389, Note_off_c, 0, 76, 51
1, 75390, Control_c, 0, 64, 84
1, 75404, Control_c, 0, 64, 87
1, 75419, Control_c, 0, 64, 88
1, 75434, Control_c, 0, 64, 89
1, 75443, Note_on_c, 0, 79, 65
1, 75449, Control_c, 0, 64, 91
1, 75464, Control_c, 0, 64, 93
1, 75485, Control_c, 0, 64, 96
1, 75500, Control_c, 0, 64, 98
1, 75515, Control_c, 0, 64, 100
1, 75530, Control_c, 0, 64, 102
1, 75545, Control_c, 0, 64, 103
1, 75559, Control_c, 0, 64, 104
1, 75574, Control_c, 0, 64, 106
1, 75589, Control_c, 0, 64, 107
1, 75604, Note_off_c, 0, 79, 49
1, 75604, Control_c, 0, 64, 109
1, 75620, Control_c, 0, 64, 111
1, 75635, Control_c, 0, 64, 114
1, 75643, Note_on_c, 0, 73, 72
1, 75650, Control_c, 0, 64, 116
1, 75665, Control_c, 0, 64, 118
1, 75680, Control_c, 0, 64, 119
1, 75695, Control_c, 0, 64, 121
1, 75710, Control_c, 0, 64, 123
1, 75724, Control_c, 0, 64, 127
1, 75825, Note_on_c, 0, 74, 82
1, 75857, Note_off_c, 0, 73, 60
1, 75878, Note_off_c, 0, 74, 64
1, 76006, Control_c, 0, 64, 107
1, 76021, Control_c, 0, 64, 86
1, 76023, Note_on_c, 0, 67, 48
1, 76033, Note_on_c, 0, 74, 63
1, 76035, Control_c, 0, 64, 70
1, 76050, Control_c, 0, 64, 56
1, 76065, Control_c, 0, 64, 51
1, 76080, Control_c, 0, 64, 63
1, 76095, Control_c, 0, 64, 69
1, 76109, Control_c, 0, 64, 75
1, 76124, Control_c, 0, 64, 81
1, 76129, Note_off_c, 0, 67, 50
1, 76131, Note_off_c, 0, 74, 57
1, 76135, Note_off_c, 0, 55, 42
1, 76139, Control_c, 0, 64, 87
1, 76154, Control_c, 0, 64, 91
1, 76168, Control_c, 0, 64, 95
1, 76183, Control_c, 0, 64, 96
1, 76198, Control_c, 0, 64, 97
1, 76200, Note_on_c, 0, 64, 44
1, 76213, Control_c, 0, 64, 97
1, 76257, Note_on_c, 0, 76, 69
1, 76294, Note_off_c, 0, 76, 61
1, 76295, Control_c, 0, 64, 96
1, 76310, Control_c, 0, 64, 89
1, 76320, Note_on_c, 0, 74, 61
1, 76324, Control_c, 0, 64, 75
1, 76339, Control_c, 0, 64, 63
1, 76355, Control_c, 0, 64, 0
1, 76360, Note_off_c, 0, 74, 62
1, 76366, Note_off_c, 0, 64, 50
1, 76370, Note_on_c, 0, 76, 67
1, 76373, Note_on_c, 0, 61, 48
1, 76384, Control_c, 0, 64, 31
1, 76399, Control_c, 0, 64, 63
1, 76415, Control_c, 0, 64, 70
1, 76430, Control_c, 0, 64, 75
1, 76432, Note_off_c, 0, 61, 59
1, 76445, Control_c, 0, 64, 79
1, 76459, Control_c, 0, 64, 82
1, 76474, Control_c, 0, 64, 86
1, 76489, Control_c, 0, 64, 89
1, 76504, Control_c, 0, 64, 92
1, 76519, Control_c, 0, 64, 95
1, 76534, Control_c, 0, 64, 98
1, 76548, Control_c, 0, 64, 102
1, 76563, Control_c, 0, 64, 105
1, 76578, Control_c, 0, 64, 107
1, 76589, Note_on_c, 0, 55, 37
1, 76592, Control_c, 0, 64, 109
1, 76607, Control_c, 0, 64, 110
1, 76622, Control_c, 0, 64, 111
1, 76637, Control_c, 0, 64, 112
1, 76652, Control_c, 0, 64, 113
1, 76666, Control_c, 0, 64, 115
1, 76681, Control_c, 0, 64, 118
1, 76696, Control_c, 0, 64, 118
1, 76698, Note_off_c, 0, 55, 37
1, 76785, Control_c, 0, 64, 109
1, 76799, Note_on_c, 0, 49, 44
1, 76799, Control_c, 0, 64, 95
1, 76814, Control_c, 0, 64, 79
1, 76829, Control_c, 0, 64, 66
1, 76844, Control_c, 0, 64, 63
1, 76859, Control_c, 0, 64, 65
1, 76874, Control_c, 0, 64, 71
1, 76889, Control_c, 0, 64, 76
1, 76904, Control_c, 0, 64, 80
1, 76919, Control_c, 0, 64, 83
1, 76933, Control_c, 0, 64, 86
1, 76948, Control_c, 0, 64, 89
1, 76963, Control_c, 0, 64, 91
1, 76978, Control_c, 0, 64, 92
1, 76999, Control_c, 0, 64, 93
1, 77001, Note_on_c, 0, 83, 68
1, 77014, Control_c, 0, 64, 95
1, 77021, Note_off_c, 0, 49, 58
1, 77029, Control_c, 0, 64, 98
1, 77044, Control_c, 0, 64, 101
1, 77054, Note_off_c, 0, 76, 50
1, 77059, Control_c, 0, 64, 103
1, 77074, Control_c, 0, 64, 104
1, 77089, Control_c, 0, 64, 105
1, 77148, Control_c, 0, 64, 105
1, 77163, Control_c, 0, 64, 106
1, 77178, Control_c, 0, 64, 107
1, 77192, Note_on_c, 0, 73, 74
1, 77192, Control_c, 0, 64, 108
1, 77208, Control_c, 0, 64, 108
1, 77253, Control_c, 0, 64, 109
1, 77282, Control_c, 0, 64, 109
1, 77297, Control_c, 0, 64, 110
1, 77312, Control_c, 0, 64, 111
1, 77327, Control_c, 0, 64, 112
1, 77342, Control_c, 0, 64, 113
1, 77356, Control_c, 0, 64, 113
1, 77363, Note_on_c, 0, 74, 79
1, 77371, Control_c, 0, 64, 114
1, 77386, Control_c, 0, 64, 114
1, 77411, Note_off_c, 0, 83, 49
1, 77414, Note_off_c, 0, 73, 54
1, 77415, Control_c, 0, 64, 115
1, 77426, Note_off_c, 0, 74, 63
1, 77430, Control_c, 0, 64, 116
1, 77475, Control_c, 0, 64, 115
1, 77489, Control_c, 0, 64, 114
1, 77504, Control_c, 0, 64, 109
1, 77519, Control_c, 0, 64, 103
1, 77534, Control_c, 0, 64, 96
1, 77549, Control_c, 0, 64, 87
1, 77558, Note_on_c, 0, 74, 61
1, 77561, Note_on_c, 0, 67, 51
1, 77563, Control_c, 0, 64, 78
1, 77578, Control_c, 0, 64, 71
1, 77593, Control_c, 0, 64, 63
1, 77607, Control_c, 0, 64, 24
1, 77622, Control_c, 0, 64, 0
1, 77751, Note_on_c, 0, 64, 53
1, 77753, Note_on_c, 0, 76, 73
1, 77786, Note_off_c, 0, 74, 60
1, 77823, Note_off_c, 0, 67, 56
1, 77881, Control_c, 0, 64, 58
1, 77895, Control_c, 0, 64, 66
1, 77910, Control_c, 0, 64, 72
1, 77925, Control_c, 0, 64, 77
1, 77936, Note_on_c, 0, 61, 52
1, 77939, Control_c, 0, 64, 80
1, 77946, Note_off_c, 0, 64, 62
1, 77954, Control_c, 0, 64, 82
1, 77969, Control_c, 0, 64, 84
1, 77981, Note_off_c, 0, 61, 61
1, 77984, Control_c, 0, 64, 87
1, 77999, Control_c, 0, 64, 89
1, 78015, Control_c, 0, 64, 91
1, 78030, Control_c, 0, 64, 94
1, 78044, Control_c, 0, 64, 96
1, 78059, Control_c, 0, 64, 98
1, 78074, Control_c, 0, 64, 99
1, 78089, Control_c, 0, 64, 100
1, 78117, Note_on_c, 0, 55, 51
1, 78118, Control_c, 0, 64, 100
1, 78162, Control_c, 0, 64, 101
1, 78177, Control_c, 0, 64, 101
1, 78192, Control_c, 0, 64, 102
1, 78207, Control_c, 0, 64, 102
1, 78236, Control_c, 0, 64, 103
1, 78296, Control_c, 0, 64, 102
1, 78302, Note_off_c, 0, 55, 54
1, 78311, Control_c, 0, 64, 100
1, 78321, Note_on_c, 0, 49, 65
1, 78326, Control_c, 0, 64, 91
1, 78341, Control_c, 0, 64, 78
1, 78355, Control_c, 0, 64, 66
1, 78370, Control_c, 0, 64, 58
1, 78385, Control_c, 0, 64, 56
1, 78400, Control_c, 0, 64, 63
1, 78415, Control_c, 0, 64, 69
1, 78429, Control_c, 0, 64, 76
1, 78444, Control_c, 0, 64, 83
1, 78459, Control_c, 0, 64, 87
1, 78474, Control_c, 0, 64, 89
1, 78496, Control_c, 0, 64, 93
1, 78511, Control_c, 0, 64, 96
1, 78516, Note_on_c, 0, 83, 76
1, 78525, Control_c, 0, 64, 101
1, 78540, Note_off_c, 0, 49, 58
1, 78540, Control_c, 0, 64, 105
1, 78549, Note_off_c, 0, 76, 56
1, 78555, Control_c, 0, 64, 111
1, 78570, Control_c, 0, 64, 121
1, 78585, Control_c, 0, 64, 127
1, 78701, Note_on_c, 0, 73, 77
1, 78883, Note_on_c, 0, 74, 81
1, 78920, Note_off_c, 0, 73, 60
1, 78933, Note_off_c, 0, 83, 50
1, 78947, Note_off_c, 0, 74, 63
1, 79085, Note_on_c, 0, 74, 71
1, 79087, Note_on_c, 0, 67, 53
1, 79089, Control_c, 0, 64, 114
1, 79104, Control_c, 0, 64, 99
1, 79119, Control_c, 0, 64, 85
1, 79134, Control_c, 0, 64, 73
1, 79148, Control_c, 0, 64, 63
1, 79163, Control_c, 0, 64, 17
1, 79178, Control_c, 0, 64, 0
1, 79298, Note_on_c, 0, 76, 76
1, 79310, Note_on_c, 0, 64, 42
1, 79313, Note_off_c, 0, 74, 62
1, 79333, Note_off_c, 0, 67, 47
1, 79482, Control_c, 0, 64, 56
1, 79497, Control_c, 0, 64, 66
1, 79512, Control_c, 0, 64, 73
1, 79513, Note_off_c, 0, 64, 55
1, 79515, Note_on_c, 0, 61, 47
1, 79527, Control_c, 0, 64, 78
1, 79542, Control_c, 0, 64, 84
1, 79557, Control_c, 0, 64, 88
1, 79572, Control_c, 0, 64, 92
1, 79582, Note_off_c, 0, 61, 55
1, 79586, Control_c, 0, 64, 98
1, 79601, Control_c, 0, 64, 102
1, 79616, Control_c, 0, 64, 107
1, 79631, Control_c, 0, 64, 112
1, 79646, Control_c, 0, 64, 116
1, 79661, Control_c, 0, 64, 119
1, 79676, Control_c, 0, 64, 121
1, 79691, Control_c, 0, 64, 122
1, 79706, Control_c, 0, 64, 123
1, 79721, Control_c, 0, 64, 124
1, 79762, Note_on_c, 0, 57, 33
1, 79957, Control_c, 0, 64, 123
1, 79995, Control_c, 0, 64, 120
1, 80009, Control_c, 0, 64, 116
1, 80019, Note_off_c, 0, 57, 35
1, 80024, Control_c, 0, 64, 113
1, 80039, Control_c, 0, 64, 108
1, 80054, Control_c, 0, 64, 101
1, 80067, Note_on_c, 0, 45, 28
1, 80069, Control_c, 0, 64, 92
1, 80083, Control_c, 0, 64, 82
1, 80098, Control_c, 0, 64, 73
1, 80113, Control_c, 0, 64, 64
1, 80127, Control_c, 0, 64, 36
1, 80142, Control_c, 0, 64, 0
1, 80261, Control_c, 0, 64, 56
1, 80275, Control_c, 0, 64, 64
1, 80290, Control_c, 0, 64, 69
1, 80305, Control_c, 0, 64, 73
1, 80320, Note_on_c, 0, 83, 44
1, 80320, Control_c, 0, 64, 77
1, 80335, Control_c, 0, 64, 79
1, 80350, Control_c, 0, 64, 81
1, 80365, Control_c, 0, 64, 82
1, 80380, Control_c, 0, 64, 84
1, 80394, Control_c, 0, 64, 85
1, 80410, Note_off_c, 0, 76, 55
1, 80410, Control_c, 0, 64, 86
1, 80425, Control_c, 0, 64, 87
1, 80439, Control_c, 0, 64, 88
1, 80454, Control_c, 0, 64, 88
1, 80503, Note_on_c, 0, 81, 68
1, 80506, Note_off_c, 0, 83, 57
1, 80673, Note_off_c, 0, 81, 62
1, 80684, Note_on_c, 0, 79, 67
1, 80846, Control_c, 0, 64, 88
1, 80876, Control_c, 0, 64, 87
1, 80895, Note_on_c, 0, 78, 65
1, 80905, Control_c, 0, 64, 86
1, 80920, Control_c, 0, 64, 83
1, 80922, Note_off_c, 0, 79, 60
1, 80935, Control_c, 0, 64, 77
1, 80950, Control_c, 0, 64, 70
1, 80964, Control_c, 0, 64, 62
1, 80979, Control_c, 0, 64, 31
1, 80994, Control_c, 0, 64, 0
1, 81053, Control_c, 0, 64, 11
1, 81069, Note_on_c, 0, 76, 71
1, 81143, Control_c, 0, 64, 17
1, 81151, Note_off_c, 0, 78, 44
1, 81157, Control_c, 0, 64, 39
1, 81172, Control_c, 0, 64, 58
1, 81187, Control_c, 0, 64, 65
1, 81202, Control_c, 0, 64, 69
1, 81217, Control_c, 0, 64, 70
1, 81232, Control_c, 0, 64, 69
1, 81247, Control_c, 0, 64, 67
1, 81250, Note_off_c, 0, 76, 61
1, 81259, Note_on_c, 0, 74, 76
1, 81262, Control_c, 0, 64, 64
1, 81271, Note_on_c, 0, 57, 50
1, 81271, Note_off_c, 0, 45, 49
1, 81277, Control_c, 0, 64, 62
1, 81292, Control_c, 0, 64, 61
1, 81307, Control_c, 0, 64, 61
1, 81322, Control_c, 0, 64, 63
1, 81336, Control_c, 0, 64, 67
1, 81351, Control_c, 0, 64, 72
1, 81366, Control_c, 0, 64, 76
1, 81380, Control_c, 0, 64, 80
1, 81395, Control_c, 0, 64, 82
1, 81410, Control_c, 0, 64, 84
1, 81425, Control_c, 0, 64, 86
1, 81437, Note_on_c, 0, 73, 75
1, 81440, Control_c, 0, 64, 88
1, 81454, Control_c, 0, 64, 90
1, 81467, Note_off_c, 0, 74, 37
1, 81469, Control_c, 0, 64, 92
1, 81491, Control_c, 0, 64, 94
1, 81506, Control_c, 0, 64, 94
1, 81521, Control_c, 0, 64, 95
1, 81607, Note_off_c, 0, 57, 37
1, 81610, Control_c, 0, 64, 92
1, 81623, Note_off_c, 0, 73, 62
1, 81625, Control_c, 0, 64, 87
1, 81640, Note_on_c, 0, 59, 45
1, 81640, Control_c, 0, 64, 76
1, 81651, Note_on_c, 0, 74, 59
1, 81654, Control_c, 0, 64, 65
1, 81669, Control_c, 0, 64, 21
1, 81684, Control_c, 0, 64, 0
1, 81713, Control_c, 0, 64, 41
1, 81728, Control_c, 0, 64, 64
1, 81743, Control_c, 0, 64, 70
1, 81758, Control_c, 0, 64, 74
1, 81773, Control_c, 0, 64, 77
1, 81787, Control_c, 0, 64, 79
1, 81802, Control_c, 0, 64, 80
1, 81817, Control_c, 0, 64, 81
1, 81832, Control_c, 0, 64, 82
1, 81839, Note_on_c, 0, 86, 71
1, 81846, Note_off_c, 0, 74, 45
1, 81846, Control_c, 0, 64, 83
1, 81861, Control_c, 0, 64, 84
1, 81876, Control_c, 0, 64, 85
1, 81891, Control_c, 0, 64, 86
1, 81995, Control_c, 0, 64, 85
1, 82010, Control_c, 0, 64, 80
1, 82022, Note_off_c, 0, 59, 48
1, 82022, Note_on_c, 0, 83, 76
1, 82024, Note_on_c, 0, 55, 46
1, 82025, Control_c, 0, 64, 71
1, 82040, Control_c, 0, 64, 64
1, 82050, Note_off_c, 0, 86, 60
1, 82055, Control_c, 0, 64, 59
1, 82070, Control_c, 0, 64, 62
1, 82085, Control_c, 0, 64, 66
1, 82100, Control_c, 0, 64, 71
1, 82114, Control_c, 0, 64, 75
1, 82129, Control_c, 0, 64, 79
1, 82144, Control_c, 0, 64, 81
1, 82159, Control_c, 0, 64, 82
1, 82174, Control_c, 0, 64, 83
1, 82184, Note_off_c, 0, 83, 63
1, 82189, Control_c, 0, 64, 84
1, 82203, Control_c, 0, 64, 84
1, 82212, Note_on_c, 0, 79, 70
1, 82218, Control_c, 0, 64, 85
1, 82240, Control_c, 0, 64, 87
1, 82255, Control_c, 0, 64, 89
1, 82270, Control_c, 0, 64, 90
1, 82284, Control_c, 0, 64, 91
1, 82348, Note_off_c, 0, 55, 36
1, 82389, Control_c, 0, 64, 90
1, 82401, Note_off_c, 0, 79, 52
1, 82404, Control_c, 0, 64, 85
1, 82410, Note_on_c, 0, 78, 68
1, 82418, Control_c, 0, 64, 75
1, 82419, Note_on_c, 0, 57, 40
1, 82433, Control_c, 0, 64, 64
1, 82448, Control_c, 0, 64, 29
1, 82463, Control_c, 0, 64, 0
1, 82478, Control_c, 0, 64, 38
1, 82493, Control_c, 0, 64, 61
1, 82508, Control_c, 0, 64, 68
1, 82523, Control_c, 0, 64, 73
1, 82537, Control_c, 0, 64, 77
1, 82552, Control_c, 0, 64, 78
1, 82567, Control_c, 0, 64, 79
1, 82582, Control_c, 0, 64, 79
1, 82611, Control_c, 0, 64, 80
1, 82612, Note_off_c, 0, 78, 59
1, 82613, Note_on_c, 0, 74, 66
1, 82656, Control_c, 0, 64, 80
1, 82715, Control_c, 0, 64, 80
1, 82744, Control_c, 0, 64, 79
1, 82759, Control_c, 0, 64, 78
1, 82774, Control_c, 0, 64, 73
1, 82789, Control_c, 0, 64, 65
1, 82805, Note_on_c, 0, 45, 38
1, 82805, Control_c, 0, 64, 21
1, 82810, Note_off_c, 0, 57, 41
1, 82819, Control_c, 0, 64, 0
1, 82864, Control_c, 0, 64, 58
1, 82879, Control_c, 0, 64, 68
1, 82893, Control_c, 0, 64, 73
1, 82908, Control_c, 0, 64, 77
1, 82923, Control_c, 0, 64, 79
1, 82931, Note_off_c, 0, 45, 49
1, 82938, Control_c, 0, 64, 80
1, 82975, Control_c, 0, 64, 80
1, 82990, Control_c, 0, 64, 81
1, 83005, Control_c, 0, 64, 82
1, 83006, Note_off_c, 0, 74, 57
1, 83020, Control_c, 0, 64, 83
1, 83021, Note_on_c, 0, 73, 58
1, 83034, Control_c, 0, 64, 85
1, 83049, Control_c, 0, 64, 86
1, 83182, Control_c, 0, 64, 84
1, 83197, Control_c, 0, 64, 79
1, 83212, Control_c, 0, 64, 69
1, 83226, Control_c, 0, 64, 56
1, 83241, Control_c, 0, 64, 0
1, 83244, Note_off_c, 0, 73, 62
1, 83271, Note_on_c, 0, 59, 28
1, 83272, Note_on_c, 0, 74, 49
1, 83286, Control_c, 0, 64, 44
1, 83301, Control_c, 0, 64, 66
1, 83316, Control_c, 0, 64, 71
1, 83331, Control_c, 0, 64, 75
1, 83346, Control_c, 0, 64, 76
1, 83346, Control_c, 0, 67, 13
1, 83360, Control_c, 0, 67, 21
1, 83375, Control_c, 0, 64, 77
1, 83375, Control_c, 0, 67, 33
1, 83390, Control_c, 0, 67, 45
1, 83405, Note_off_c, 0, 74, 55
1, 83405, Control_c, 0, 64, 77
1, 83405, Control_c, 0, 67, 57
1, 83420, Control_c, 0, 64, 78
1, 83420, Control_c, 0, 67, 72
1, 83434, Control_c, 0, 64, 78
1, 83434, Control_c, 0, 67, 89
1, 83449, Control_c, 0, 64, 79
1, 83449, Control_c, 0, 67, 107
1, 83464, Control_c, 0, 67, 127
1, 83494, Control_c, 0, 64, 78
1, 83508, Control_c, 0, 64, 76
1, 83523, Control_c, 0, 64, 73
1, 83538, Control_c, 0, 64, 68
1, 83552, Control_c, 0, 64, 64
1, 83566, Note_on_c, 0, 86, 47
1, 83567, Control_c, 0, 64, 60
1, 83582, Control_c, 0, 64, 36
1, 83598, Control_c, 0, 64, 0
1, 83646, Note_off_c, 0, 86, 60
1, 83659, Note_on_c, 0, 85, 55
1, 83722, Note_off_c, 0, 85, 61
1, 83734, Note_off_c, 0, 59, 42
1, 83738, Note_on_c, 0, 83, 56
1, 83745, Note_on_c, 0, 55, 33
1, 83783, Note_off_c, 0, 83, 63
1, 83815, Note_on_c, 0, 81, 60
1, 83846, Note_off_c, 0, 81, 64
1, 83909, Note_on_c, 0, 79, 55
1, 84055, Note_off_c, 0, 55, 41
1, 84055, Note_off_c, 0, 79, 61
1, 84081, Note_on_c, 0, 78, 53
1, 84098, Note_on_c, 0, 57, 34
1, 84153, Control_c, 0, 64, 49
1, 84168, Control_c, 0, 64, 64
1, 84183, Control_c, 0, 64, 68
1, 84198, Control_c, 0, 64, 73
1, 84213, Control_c, 0, 64, 76
1, 84228, Control_c, 0, 64, 78
1, 84243, Control_c, 0, 64, 79
1, 84257, Control_c, 0, 64, 80
1, 84270, Note_off_c, 0, 78, 56
1, 84272, Control_c, 0, 64, 81
1, 84287, Control_c, 0, 64, 82
1, 84301, Control_c, 0, 64, 83
1, 84304, Note_on_c, 0, 74, 50
1, 84316, Control_c, 0, 64, 83
1, 84346, Control_c, 0, 64, 84
1, 84390, Control_c, 0, 64, 83
1, 84406, Control_c, 0, 64, 81
1, 84421, Control_c, 0, 64, 74
1, 84434, Note_off_c, 0, 74, 57
1, 84436, Control_c, 0, 64, 66
1, 84451, Control_c, 0, 64, 63
1, 84466, Control_c, 0, 64, 67
1, 84478, Note_on_c, 0, 45, 33
1, 84487, Control_c, 0, 64, 74
1, 84502, Control_c, 0, 64, 80
1, 84517, Control_c, 0, 64, 86
1, 84532, Control_c, 0, 64, 88
1, 84565, Note_on_c, 0, 73, 54
1, 84577, Control_c, 0, 64, 87
1, 84591, Note_off_c, 0, 73, 59
1, 84592, Control_c, 0, 64, 85
1, 84606, Control_c, 0, 64, 81
1, 84621, Note_on_c, 0, 74, 35
1, 84621, Control_c, 0, 64, 76
1, 84636, Control_c, 0, 64, 69
1, 84651, Control_c, 0, 64, 65
1, 84652, Note_off_c, 0, 74, 55
1, 84655, Note_on_c, 0, 73, 54
1, 84666, Control_c, 0, 64, 62
1, 84680, Control_c, 0, 64, 57
1, 84682, Note_off_c, 0, 73, 61
1, 84695, Control_c, 0, 64, 50
1, 84703, Note_off_c, 0, 45, 46
1, 84710, Control_c, 0, 64, 33
1, 84724, Control_c, 0, 64, 0
1, 84725, Note_on_c, 0, 71, 46
1, 84752, Note_off_c, 0, 71, 58
1, 84773, Note_on_c, 0, 73, 52
1, 84782, Note_off_c, 0, 57, 48
1, 84875, Note_off_c, 0, 73, 60
1, 84896, Note_on_c, 0, 74, 51
1, 85089, Note_off_c, 0, 74, 58
1, 85117, Note_on_c, 0, 71, 43
1, 85325, Note_on_c, 0, 59, 32
1, 85340, Control_c, 0, 64, 29
1, 85343, Note_on_c, 0, 62, 13
1, 85354, Control_c, 0, 64, 59
1, 85369, Control_c, 0, 64, 65
1, 85384, Control_c, 0, 64, 69
1, 85399, Control_c, 0, 64, 74
1, 85414, Control_c, 0, 64, 75
1, 85428, Control_c, 0, 64, 76
1, 85443, Control_c, 0, 64, 77
1, 85450, Note_off_c, 0, 71, 56
1, 85458, Control_c, 0, 64, 78
1, 85473, Control_c, 0, 64, 80
1, 85480, Note_off_c, 0, 62, 41
1, 85488, Control_c, 0, 64, 81
1, 85492, Note_off_c, 0, 59, 44
1, 85502, Control_c, 0, 64, 82
1, 85517, Control_c, 0, 64, 82
1, 85522, Note_on_c, 0, 69, 36
1, 85532, Control_c, 0, 64, 83
1, 85680, Control_c, 0, 64, 80
1, 85692, Note_off_c, 0, 69, 54
1, 85694, Control_c, 0, 64, 75
1, 85709, Control_c, 0, 64, 67
1, 85712, Note_on_c, 0, 59, 34
1, 85715, Note_on_c, 0, 68, 45
1, 85724, Control_c, 0, 64, 51
1, 85725, Note_on_c, 0, 62, 32
1, 85739, Control_c, 0, 64, 0
1, 85784, Control_c, 0, 64, 52
1, 85799, Control_c, 0, 64, 65
1, 85813, Control_c, 0, 64, 71
1, 85828, Control_c, 0, 64, 76
1, 85843, Control_c, 0, 64, 78
1, 85858, Control_c, 0, 64, 78
1, 85872, Control_c, 0, 64, 79
1, 85883, Note_off_c, 0, 62, 40
1, 85887, Control_c, 0, 64, 80
1, 85895, Note_off_c, 0, 59, 37
1, 85896, Note_off_c, 0, 68, 51
1, 85902, Control_c, 0, 64, 81
1, 85908, Note_on_c, 0, 65, 48
1, 85917, Control_c, 0, 64, 82
1, 85932, Control_c, 0, 64, 83
1, 85946, Control_c, 0, 64, 83
1, 86058, Control_c, 0, 64, 82
1, 86073, Control_c, 0, 64, 78
1, 86088, Note_off_c, 0, 65, 56
1, 86089, Control_c, 0, 64, 69
1, 86104, Control_c, 0, 64, 44
1, 86116, Note_on_c, 0, 62, 34
1, 86116, Note_on_c, 0, 64, 49
1, 86119, Note_on_c, 0, 59, 34
1, 86119, Control_c, 0, 64, 0
1, 86160, Note_off_c, 0, 62, 61
1, 86163, Control_c, 0, 64, 59
1, 86175, Note_off_c, 0, 59, 57
1, 86177, Control_c, 0, 64, 68
1, 86192, Control_c, 0, 64, 74
1, 86207, Control_c, 0, 64, 78
1, 86222, Control_c, 0, 64, 79
1, 86237, Control_c, 0, 64, 80
1, 86252, Control_c, 0, 64, 81
1, 86267, Control_c, 0, 64, 82
1, 86267, Control_c, 0, 67, 114
1, 86277, Note_off_c, 0, 64, 63
1, 86282, Control_c, 0, 64, 84
1, 86282, Control_c, 0, 67, 101
1, 86296, Control_c, 0, 64, 85
1, 86296, Control_c, 0, 67, 83
1, 86311, Control_c, 0, 64, 85
1, 86311, Control_c, 0, 67, 64
1, 86320, Note_on_c, 0, 62, 48
1, 86326, Control_c, 0, 64, 86
1, 86326, Control_c, 0, 67, 44
1, 86341, Control_c, 0, 67, 26
1, 86356, Control_c, 0, 67, 0
1, 86380, Note_off_c, 0, 62, 52
1, 86444, Control_c, 0, 64, 85
1, 86459, Control_c, 0, 64, 85
1, 86474, Control_c, 0, 64, 84
1, 86489, Control_c, 0, 64, 83
1, 86503, Control_c, 0, 64, 82
1, 86518, Control_c, 0, 64, 80
1, 86533, Control_c, 0, 64, 78
1, 86537, Note_on_c, 0, 76, 47
1, 86548, Control_c, 0, 64, 75
1, 86563, Control_c, 0, 64, 71
1, 86577, Control_c, 0, 64, 66
1, 86592, Control_c, 0, 64, 50
1, 86607, Control_c, 0, 64, 0
1, 86696, Control_c, 0, 64, 58
1, 86718, Control_c, 0, 64, 66
1, 86733, Control_c, 0, 64, 71
1, 86743, Note_off_c, 0, 76, 56
1, 86748, Control_c, 0, 64, 74
1, 86756, Note_on_c, 0, 73, 51
1, 86763, Control_c, 0, 64, 76
1, 86777, Control_c, 0, 64, 77
1, 86792, Control_c, 0, 64, 79
1, 86808, Control_c, 0, 64, 81
1, 86823, Control_c, 0, 64, 83
1, 86838, Control_c, 0, 64, 84
1, 86853, Control_c, 0, 64, 85
1, 86868, Control_c, 0, 64, 86
1, 86941, Control_c, 0, 64, 84
1, 86956, Control_c, 0, 64, 79
1, 86965, Note_on_c, 0, 61, 33
1, 86970, Note_on_c, 0, 64, 25
1, 86971, Control_c, 0, 64, 71
1, 86986, Control_c, 0, 64, 62
1, 87000, Control_c, 0, 64, 47
1, 87015, Control_c, 0, 64, 50
1, 87030, Control_c, 0, 64, 63
1, 87045, Control_c, 0, 64, 68
1, 87060, Control_c, 0, 64, 75
1, 87075, Control_c, 0, 64, 79
1, 87090, Control_c, 0, 64, 82
1, 87104, Control_c, 0, 64, 84
1, 87119, Control_c, 0, 64, 86
1, 87134, Control_c, 0, 64, 88
1, 87134, Note_off_c, 0, 73, 60
1, 87149, Note_off_c, 0, 64, 42
1, 87149, Control_c, 0, 64, 90
1, 87158, Note_off_c, 0, 61, 41
1, 87158, Note_on_c, 0, 71, 54
1, 87164, Control_c, 0, 64, 92
1, 87179, Control_c, 0, 64, 94
1, 87193, Control_c, 0, 64, 96
1, 87208, Control_c, 0, 64, 98
1, 87223, Control_c, 0, 64, 99
1, 87238, Control_c, 0, 64, 100
1, 87253, Control_c, 0, 64, 100
1, 87356, Control_c, 0, 64, 99
1, 87359, Note_on_c, 0, 61, 37
1, 87366, Note_on_c, 0, 70, 59
1, 87369, Note_on_c, 0, 64, 41
1, 87371, Control_c, 0, 64, 89
1, 87382, Note_off_c, 0, 71, 41
1, 87386, Control_c, 0, 64, 73
1, 87400, Control_c, 0, 64, 60
1, 87415, Control_c, 0, 64, 24
1, 87430, Control_c, 0, 64, 43
1, 87445, Control_c, 0, 64, 63
1, 87460, Control_c, 0, 64, 70
1, 87482, Control_c, 0, 64, 76
1, 87497, Control_c, 0, 64, 81
1, 87512, Control_c, 0, 64, 83
1, 87522, Note_off_c, 0, 64, 51
1, 87526, Control_c, 0, 64, 83
1, 87541, Control_c, 0, 64, 85
1, 87556, Note_off_c, 0, 61, 41
1, 87556, Control_c, 0, 64, 86
1, 87561, Note_on_c, 0, 67, 68
1, 87571, Control_c, 0, 64, 88
1, 87586, Control_c, 0, 64, 89
1, 87602, Control_c, 0, 64, 91
1, 87616, Control_c, 0, 64, 92
1, 87617, Note_off_c, 0, 70, 36
1, 87631, Control_c, 0, 64, 93
1, 87735, Control_c, 0, 64, 90
1, 87742, Note_off_c, 0, 67, 57
1, 87749, Control_c, 0, 64, 81
1, 87752, Note_on_c, 0, 66, 62
1, 87757, Note_on_c, 0, 61, 45
1, 87764, Control_c, 0, 64, 69
1, 87771, Note_on_c, 0, 64, 45
1, 87779, Control_c, 0, 64, 0
1, 87814, Note_off_c, 0, 64, 62
1, 87838, Control_c, 0, 64, 42
1, 87853, Control_c, 0, 64, 66
1, 87868, Control_c, 0, 64, 76
1, 87883, Control_c, 0, 64, 83
1, 87897, Control_c, 0, 64, 87
1, 87910, Note_off_c, 0, 66, 62
1, 87912, Note_off_c, 0, 61, 42
1, 87912, Control_c, 0, 64, 89
1, 87927, Control_c, 0, 64, 92
1, 87942, Control_c, 0, 64, 96
1, 87943, Note_on_c, 0, 64, 55
1, 87957, Control_c, 0, 64, 100
1, 87968, Note_off_c, 0, 64, 60
1, 87972, Control_c, 0, 64, 104
1, 87987, Control_c, 0, 64, 108
1, 88002, Control_c, 0, 64, 111
1, 88016, Control_c, 0, 64, 112
1, 88031, Control_c, 0, 64, 113
1, 88135, Control_c, 0, 64, 111
1, 88149, Control_c, 0, 64, 98
1, 88152, Note_on_c, 0, 78, 67
1, 88164, Control_c, 0, 64, 81
1, 88179, Control_c, 0, 64, 66
1, 88194, Control_c, 0, 64, 0
1, 88359, Note_on_c, 0, 74, 70
1, 88395, Note_off_c, 0, 78, 59
1, 88469, Control_c, 0, 64, 44
1, 88484, Control_c, 0, 64, 67
1, 88499, Control_c, 0, 64, 78
1, 88513, Control_c, 0, 64, 88
1, 88528, Control_c, 0, 64, 97
1, 88538, Note_off_c, 0, 74, 57
1, 88542, Note_on_c, 0, 62, 48
1, 88543, Note_on_c, 0, 66, 51
1, 88543, Control_c, 0, 64, 101
1, 88558, Control_c, 0, 64, 105
1, 88572, Control_c, 0, 64, 108
1, 88587, Control_c, 0, 64, 112
1, 88602, Control_c, 0, 64, 117
1, 88617, Control_c, 0, 64, 122
1, 88632, Control_c, 0, 64, 127
1, 88660, Note_off_c, 0, 66, 37
1, 88686, Note_on_c, 0, 74, 62
1, 88699, Note_off_c, 0, 62, 35
1, 88709, Note_off_c, 0, 74, 66
1, 88734, Note_on_c, 0, 73, 66
1, 88755, Note_off_c, 0, 73, 66
1, 88774, Note_on_c, 0, 74, 68
1, 88780, Control_c, 0, 64, 121
1, 88794, Note_off_c, 0, 74, 65
1, 88795, Control_c, 0, 64, 117
1, 88810, Control_c, 0, 64, 113
1, 88815, Note_on_c, 0, 73, 79
1, 88824, Control_c, 0, 64, 107
1, 88839, Control_c, 0, 64, 97
1, 88849, Note_off_c, 0, 73, 60
1, 88854, Control_c, 0, 64, 81
1, 88863, Note_on_c, 0, 62, 39
1, 88869, Control_c, 0, 64, 67
1, 88876, Note_on_c, 0, 66, 43
1, 88884, Note_on_c, 0, 71, 68
1, 88884, Control_c, 0, 64, 0
1, 88979, Control_c, 0, 64, 54
1, 88994, Control_c, 0, 64, 67
1, 89009, Control_c, 0, 64, 76
1, 89024, Control_c, 0, 64, 81
1, 89039, Control_c, 0, 64, 84
1, 89054, Control_c, 0, 64, 86
1, 89059, Note_off_c, 0, 71, 64
1, 89069, Control_c, 0, 64, 88
1, 89069, Note_on_c, 0, 69, 68
1, 89074, Note_off_c, 0, 66, 52
1, 89078, Note_off_c, 0, 62, 52
1, 89084, Control_c, 0, 64, 91
1, 89098, Control_c, 0, 64, 94
1, 89113, Control_c, 0, 64, 97
1, 89128, Control_c, 0, 64, 98
1, 89143, Control_c, 0, 64, 99
1, 89158, Control_c, 0, 64, 100
1, 89172, Control_c, 0, 64, 101
1, 89187, Control_c, 0, 64, 101
1, 89233, Control_c, 0, 64, 101
1, 89248, Control_c, 0, 64, 95
1, 89253, Note_off_c, 0, 69, 59
1, 89262, Control_c, 0, 64, 81
1, 89266, Note_on_c, 0, 68, 72
1, 89277, Note_on_c, 0, 62, 41
1, 89277, Control_c, 0, 64, 68
1, 89292, Control_c, 0, 64, 44
1, 89307, Control_c, 0, 64, 36
1, 89321, Control_c, 0, 64, 59
1, 89336, Control_c, 0, 64, 68
1, 89351, Control_c, 0, 64, 75
1, 89366, Control_c, 0, 64, 80
1, 89381, Control_c, 0, 64, 82
1, 89395, Control_c, 0, 64, 83
1, 89410, Control_c, 0, 64, 84
1, 89435, Note_off_c, 0, 68, 60
1, 89452, Note_off_c, 0, 62, 36
1, 89462, Note_on_c, 0, 66, 71
1, 89469, Control_c, 0, 64, 83
1, 89484, Control_c, 0, 64, 80
1, 89499, Control_c, 0, 64, 76
1, 89513, Control_c, 0, 64, 70
1, 89528, Control_c, 0, 64, 65
1, 89543, Control_c, 0, 64, 57
1, 89558, Control_c, 0, 64, 0
1, 89720, Note_off_c, 0, 66, 53
1, 89734, Note_on_c, 0, 78, 49
1, 90014, Note_on_c, 0, 75, 46
1, 90049, Note_off_c, 0, 78, 37
1, 90189, Control_c, 0, 64, 60
1, 90204, Control_c, 0, 64, 67
1, 90218, Control_c, 0, 64, 72
1, 90223, Note_on_c, 0, 63, 31
1, 90227, Note_on_c, 0, 66, 22
1, 90233, Control_c, 0, 64, 76
1, 90248, Control_c, 0, 64, 78
1, 90263, Control_c, 0, 64, 81
1, 90278, Control_c, 0, 64, 84
1, 90292, Control_c, 0, 64, 87
1, 90307, Control_c, 0, 64, 89
1, 90322, Control_c, 0, 64, 90
1, 90336, Control_c, 0, 64, 92
1, 90351, Control_c, 0, 64, 93
1, 90366, Control_c, 0, 64, 94
1, 90372, Note_off_c, 0, 66, 41
1, 90380, Note_off_c, 0, 63, 42
1, 90381, Control_c, 0, 64, 95
1, 90396, Control_c, 0, 64, 96
1, 90425, Control_c, 0, 64, 96
1, 90428, Note_on_c, 0, 73, 50
1, 90440, Control_c, 0, 64, 97
1, 90595, Control_c, 0, 64, 92
1, 90610, Control_c, 0, 64, 83
1, 90616, Note_on_c, 0, 63, 38
1, 90617, Note_on_c, 0, 72, 60
1, 90625, Control_c, 0, 64, 71
1, 90627, Note_on_c, 0, 66, 37
1, 90633, Note_off_c, 0, 75, 31
1, 90640, Control_c, 0, 64, 63
1, 90655, Control_c, 0, 64, 62
1, 90661, Note_off_c, 0, 73, 53
1, 90669, Control_c, 0, 64, 65
1, 90684, Control_c, 0, 64, 70
1, 90699, Control_c, 0, 64, 75
1, 90714, Control_c, 0, 64, 79
1, 90729, Control_c, 0, 64, 83
1, 90743, Control_c, 0, 64, 86
1, 90758, Control_c, 0, 64, 89
1, 90773, Control_c, 0, 64, 92
1, 90789, Note_off_c, 0, 66, 43
1, 90789, Control_c, 0, 64, 94
1, 90792, Note_off_c, 0, 72, 57
1, 90804, Control_c, 0, 64, 96
1, 90815, Note_on_c, 0, 69, 63
1, 90819, Control_c, 0, 64, 98
1, 90828, Note_off_c, 0, 63, 47
1, 90834, Control_c, 0, 64, 101
1, 90848, Control_c, 0, 64, 103
1, 90863, Control_c, 0, 64, 106
1, 90878, Control_c, 0, 64, 108
1, 90892, Control_c, 0, 64, 111
1, 90907, Control_c, 0, 64, 113
1, 90922, Control_c, 0, 64, 114
1, 90952, Control_c, 0, 64, 111
1, 90966, Control_c, 0, 64, 98
1, 90981, Control_c, 0, 64, 83
1, 90985, Note_off_c, 0, 69, 50
1, 90991, Note_on_c, 0, 63, 46
1, 90996, Control_c, 0, 64, 70
1, 91000, Note_on_c, 0, 68, 68
1, 91011, Control_c, 0, 64, 64
1, 91026, Control_c, 0, 64, 66
1, 91040, Control_c, 0, 64, 71
1, 91055, Control_c, 0, 64, 77
1, 91060, Note_off_c, 0, 63, 57
1, 91070, Control_c, 0, 64, 81
1, 91073, Poly_aftertouch_c, 0, 66, 0
1, 91084, Control_c, 0, 64, 84
1, 91099, Control_c, 0, 64, 88
1, 91114, Control_c, 0, 64, 91
1, 91120, Note_off_c, 0, 68, 59
1, 91129, Control_c, 0, 64, 94
1, 91144, Control_c, 0, 64, 95
1, 91158, Control_c, 0, 64, 96
1, 91173, Control_c, 0, 64, 97
1, 91188, Note_on_c, 0, 66, 63
1, 91188, Control_c, 0, 64, 98
1, 91203, Control_c, 0, 64, 98
1, 91226, Control_c, 0, 64, 99
1, 91240, Control_c, 0, 64, 99
1, 91284, Control_c, 0, 64, 99
1, 91343, Control_c, 0, 64, 98
1, 91344, Note_off_c, 0, 66, 54
1, 91358, Control_c, 0, 64, 98
1, 91373, Control_c, 0, 64, 96
1, 91388, Control_c, 0, 64, 93
1, 91403, Control_c, 0, 64, 87
1, 91411, Note_on_c, 0, 80, 70
1, 91418, Control_c, 0, 64, 76
1, 91433, Control_c, 0, 64, 65
1, 91447, Control_c, 0, 64, 0
1, 91536, Control_c, 0, 64, 31
1, 91551, Control_c, 0, 64, 64
1, 91565, Control_c, 0, 64, 71
1, 91580, Control_c, 0, 64, 80
1, 91596, Control_c, 0, 64, 84
1, 91611, Control_c, 0, 64, 87
1, 91612, Note_off_c, 0, 80, 62
1, 91613, Note_on_c, 0, 77, 70
1, 91626, Control_c, 0, 64, 91
1, 91641, Control_c, 0, 64, 96
1, 91656, Control_c, 0, 64, 100
1, 91670, Control_c, 0, 64, 104
1, 91685, Control_c, 0, 64, 107
1, 91700, Control_c, 0, 64, 109
1, 91714, Control_c, 0, 64, 110
1, 91729, Control_c, 0, 64, 111
1, 91788, Control_c, 0, 64, 107
1, 91796, Note_on_c, 0, 65, 53
1, 91803, Control_c, 0, 64, 95
1, 91804, Note_on_c, 0, 68, 54
1, 91818, Control_c, 0, 64, 81
1, 91833, Control_c, 0, 64, 69
1, 91848, Control_c, 0, 64, 63
1, 91862, Control_c, 0, 64, 62
1, 91877, Control_c, 0, 64, 66
1, 91892, Control_c, 0, 64, 72
1, 91907, Control_c, 0, 64, 77
1, 91922, Control_c, 0, 64, 80
1, 91936, Control_c, 0, 64, 82
1, 91944, Note_off_c, 0, 68, 37
1, 91951, Control_c, 0, 64, 84
1, 91955, Note_off_c, 0, 65, 55
1, 91974, Control_c, 0, 64, 86
1, 91988, Control_c, 0, 64, 89
1, 91993, Note_on_c, 0, 74, 72
1, 92003, Control_c, 0, 64, 92
1, 92016, Note_off_c, 0, 77, 55
1, 92018, Control_c, 0, 64, 94
1, 92033, Control_c, 0, 64, 96
1, 92048, Control_c, 0, 64, 97
1, 92062, Control_c, 0, 64, 98
1, 92078, Control_c, 0, 64, 99
1, 92167, Control_c, 0, 64, 98
1, 92181, Note_on_c, 0, 65, 50
1, 92182, Note_on_c, 0, 73, 82
1, 92182, Control_c, 0, 64, 91
1, 92187, Note_on_c, 0, 68, 53
1, 92196, Control_c, 0, 64, 78
1, 92207, Note_off_c, 0, 74, 60
1, 92211, Control_c, 0, 64, 65
1, 92226, Control_c, 0, 64, 30
1, 92241, Control_c, 0, 64, 0
1, 92255, Control_c, 0, 64, 53
1, 92270, Control_c, 0, 64, 65
1, 92285, Control_c, 0, 64, 72
1, 92296, Note_off_c, 0, 68, 56
1, 92300, Control_c, 0, 64, 78
1, 92315, Control_c, 0, 64, 82
1, 92316, Note_off_c, 0, 65, 54
1, 92330, Control_c, 0, 64, 84
1, 92345, Control_c, 0, 64, 86
1, 92360, Control_c, 0, 64, 88
1, 92368, Note_on_c, 0, 71, 84
1, 92375, Control_c, 0, 64, 90
1, 92390, Control_c, 0, 64, 92
1, 92405, Control_c, 0, 64, 94
1, 92410, Note_off_c, 0, 73, 58
1, 92419, Control_c, 0, 64, 96
1, 92434, Control_c, 0, 64, 97
1, 92449, Control_c, 0, 64, 98
1, 92553, Control_c, 0, 64, 97
1, 92557, Note_off_c, 0, 71, 64
1, 92568, Note_on_c, 0, 69, 78
1, 92568, Control_c, 0, 64, 90
1, 92575, Note_on_c, 0, 65, 57
1, 92583, Control_c, 0, 64, 78
1, 92598, Control_c, 0, 64, 65
1, 92612, Control_c, 0, 64, 0
1, 92657, Control_c, 0, 64, 60
1, 92672, Control_c, 0, 64, 68
1, 92686, Control_c, 0, 64, 75
1, 92701, Control_c, 0, 64, 79
1, 92723, Control_c, 0, 64, 81
1, 92738, Control_c, 0, 64, 81
1, 92753, Control_c, 0, 64, 82
1, 92766, Note_on_c, 0, 68, 79
1, 92768, Control_c, 0, 64, 83
1, 92783, Control_c, 0, 64, 83
1, 92798, Control_c, 0, 64, 84
1, 92812, Control_c, 0, 64, 85
1, 92816, Note_off_c, 0, 69, 34
1, 92827, Control_c, 0, 64, 86
1, 92837, Note_off_c, 0, 65, 55
1, 92931, Control_c, 0, 64, 84
1, 92945, Control_c, 0, 64, 81
1, 92956, Note_off_c, 0, 68, 60
1, 92960, Control_c, 0, 64, 73
1, 92975, Control_c, 0, 64, 62
1, 92990, Control_c, 0, 64, 0
1, 92992, Note_on_c, 0, 66, 53
1, 92999, Note_on_c, 0, 69, 65
1, 93049, Control_c, 0, 64, 60
1, 93063, Control_c, 0, 64, 71
1, 93078, Control_c, 0, 64, 81
1, 93093, Note_off_c, 0, 69, 55
1, 93093, Control_c, 0, 64, 91
1, 93108, Control_c, 0, 64, 94
1, 93123, Control_c, 0, 64, 95
1, 93138, Control_c, 0, 64, 97
1, 93153, Control_c, 0, 64, 98
1, 93168, Control_c, 0, 64, 99
1, 93242, Control_c, 0, 64, 97
1, 93247, Note_on_c, 0, 81, 69
1, 93257, Control_c, 0, 64, 94
1, 93272, Control_c, 0, 64, 89
1, 93287, Control_c, 0, 64, 81
1, 93302, Control_c, 0, 64, 72
1, 93317, Control_c, 0, 64, 65
1, 93332, Control_c, 0, 64, 55
1, 93346, Control_c, 0, 64, 30
1, 93355, Note_on_c, 0, 80, 74
1, 93361, Control_c, 0, 64, 0
1, 93370, Note_off_c, 0, 81, 57
1, 93439, Note_on_c, 0, 64, 41
1, 93461, Note_off_c, 0, 66, 37
1, 93490, Note_on_c, 0, 83, 70
1, 93496, Note_off_c, 0, 80, 61
1, 93591, Note_off_c, 0, 83, 63
1, 93593, Note_on_c, 0, 81, 67
1, 93673, Note_off_c, 0, 81, 60
1, 93674, Note_on_c, 0, 80, 66
1, 93741, Note_off_c, 0, 80, 61
1, 93751, Note_on_c, 0, 78, 72
1, 93790, Note_off_c, 0, 64, 52
1, 93814, Note_off_c, 0, 78, 62
1, 93839, Note_on_c, 0, 77, 69
1, 93844, Note_on_c, 0, 62, 44
1, 93884, Note_off_c, 0, 77, 59
1, 93907, Note_on_c, 0, 78, 67
1, 93931, Note_off_c, 0, 78, 69
1, 93959, Note_on_c, 0, 80, 60
1, 93978, Note_off_c, 0, 80, 65
1, 94005, Note_on_c, 0, 78, 73
1, 94028, Note_off_c, 0, 78, 66
1, 94047, Note_on_c, 0, 80, 72
1, 94071, Note_off_c, 0, 80, 63
1, 94099, Note_on_c, 0, 78, 70
1, 94125, Note_off_c, 0, 78, 65
1, 94148, Note_on_c, 0, 80, 63
1, 94166, Note_off_c, 0, 80, 64
1, 94190, Note_on_c, 0, 78, 72
1, 94220, Note_off_c, 0, 78, 65
1, 94235, Note_on_c, 0, 80, 67
1, 94255, Note_off_c, 0, 80, 60
1, 94257, Note_on_c, 0, 50, 31
1, 94283, Note_on_c, 0, 78, 72
1, 94312, Note_off_c, 0, 78, 61
1, 94318, Note_on_c, 0, 80, 68
1, 94349, Note_off_c, 0, 80, 57
1, 94371, Note_on_c, 0, 78, 61
1, 94421, Note_off_c, 0, 78, 58
1, 94467, Note_on_c, 0, 77, 58
1, 94517, Control_c, 0, 64, 54
1, 94532, Control_c, 0, 64, 65
1, 94547, Control_c, 0, 64, 71
1, 94559, Note_off_c, 0, 62, 57
1, 94562, Control_c, 0, 64, 76
1, 94563, Note_off_c, 0, 77, 53
1, 94575, Note_off_c, 0, 50, 56
1, 94577, Control_c, 0, 64, 80
1, 94581, Note_on_c, 0, 78, 65
1, 94591, Control_c, 0, 64, 85
1, 94606, Control_c, 0, 64, 90
1, 94621, Control_c, 0, 64, 97
1, 94635, Control_c, 0, 64, 103
1, 94637, Note_off_c, 0, 78, 59
1, 94650, Control_c, 0, 64, 109
1, 94665, Control_c, 0, 64, 115
1, 94680, Control_c, 0, 64, 119
1, 94695, Control_c, 0, 64, 121
1, 94724, Control_c, 0, 64, 120
1, 94754, Control_c, 0, 64, 119
1, 94769, Control_c, 0, 64, 112
1, 94773, Note_on_c, 0, 78, 59
1, 94785, Control_c, 0, 64, 105
1, 94800, Control_c, 0, 64, 97
1, 94813, Note_on_c, 0, 61, 30
1, 94814, Control_c, 0, 64, 87
1, 94829, Control_c, 0, 64, 78
1, 94844, Control_c, 0, 64, 70
1, 94859, Control_c, 0, 64, 64
1, 94874, Control_c, 0, 64, 56
1, 94888, Control_c, 0, 64, 44
1, 94903, Control_c, 0, 64, 27
1, 94918, Control_c, 0, 64, 0
1, 95000, Control_c, 0, 67, 10
1, 95005, Note_off_c, 0, 78, 54
1, 95011, Note_on_c, 0, 80, 56
1, 95014, Control_c, 0, 67, 14
1, 95025, Note_on_c, 0, 56, 32
1, 95029, Control_c, 0, 67, 21
1, 95044, Control_c, 0, 67, 30
1, 95058, Control_c, 0, 67, 37
1, 95074, Control_c, 0, 67, 43
1, 95089, Control_c, 0, 67, 49
1, 95104, Control_c, 0, 67, 55
1, 95119, Control_c, 0, 67, 62
1, 95133, Control_c, 0, 64, 57
1, 95133, Control_c, 0, 67, 70
1, 95148, Control_c, 0, 64, 68
1, 95148, Control_c, 0, 67, 80
1, 95163, Control_c, 0, 64, 75
1, 95163, Control_c, 0, 67, 90
1, 95178, Control_c, 0, 64, 80
1, 95178, Control_c, 0, 67, 99
1, 95193, Control_c, 0, 64, 85
1, 95193, Control_c, 0, 67, 109
1, 95207, Control_c, 0, 64, 92
1, 95207, Control_c, 0, 67, 119
1, 95213, Note_on_c, 0, 53, 38
1, 95222, Control_c, 0, 64, 100
1, 95222, Control_c, 0, 67, 127
1, 95236, Note_off_c, 0, 56, 40
1, 95237, Control_c, 0, 64, 111
1, 95249, Note_off_c, 0, 61, 38
1, 95252, Control_c, 0, 64, 127
1, 95398, Note_off_c, 0, 53, 45
1, 95427, Note_on_c, 0, 49, 32
1, 95468, Note_off_c, 0, 49, 54
1, 95645, Note_on_c, 0, 37, 33
1, 95843, Note_on_c, 0, 83, 54
1, 95871, Note_off_c, 0, 80, 36
1, 96000, Control_c, 0, 64, 106
1, 96015, Control_c, 0, 64, 84
1, 96026, Note_off_c, 0, 83, 60
1, 96029, Control_c, 0, 64, 71
1, 96031, Note_on_c, 0, 81, 64
1, 96044, Control_c, 0, 64, 64
1, 96059, Control_c, 0, 64, 66
1, 96074, Control_c, 0, 64, 71
1, 96089, Control_c, 0, 64, 77
1, 96104, Control_c, 0, 64, 82
1, 96119, Control_c, 0, 64, 86
1, 96124, Note_off_c, 0, 37, 54
1, 96134, Control_c, 0, 64, 91
1, 96149, Control_c, 0, 64, 94
1, 96163, Control_c, 0, 64, 96
1, 96178, Control_c, 0, 64, 98
1, 96193, Control_c, 0, 64, 100
1, 96208, Control_c, 0, 64, 102
1, 96214, Note_off_c, 0, 81, 57
1, 96219, Note_on_c, 0, 80, 66
1, 96223, Control_c, 0, 64, 104
1, 96237, Control_c, 0, 64, 105
1, 96252, Control_c, 0, 64, 106
1, 96370, Control_c, 0, 64, 104
1, 96386, Control_c, 0, 64, 101
1, 96401, Control_c, 0, 64, 95
1, 96407, Note_off_c, 0, 80, 62
1, 96416, Control_c, 0, 64, 84
1, 96420, Note_on_c, 0, 81, 62
1, 96431, Control_c, 0, 64, 74
1, 96435, Note_on_c, 0, 61, 35
1, 96446, Control_c, 0, 64, 66
1, 96467, Control_c, 0, 64, 53
1, 96482, Control_c, 0, 64, 0
1, 96619, Note_on_c, 0, 73, 52
1, 96624, Note_off_c, 0, 81, 52
1, 96625, Note_on_c, 0, 57, 35
1, 96804, Note_off_c, 0, 73, 58
1, 96816, Note_on_c, 0, 54, 38
1, 96825, Note_on_c, 0, 72, 49
1, 96882, Control_c, 0, 64, 43
1, 96888, Note_off_c, 0, 57, 40
1, 96897, Control_c, 0, 64, 63
1, 96912, Control_c, 0, 64, 69
1, 96915, Note_off_c, 0, 61, 43
1, 96927, Control_c, 0, 64, 75
1, 96941, Control_c, 0, 64, 81
1, 96956, Control_c, 0, 64, 86
1, 96971, Control_c, 0, 64, 91
1, 96984, Note_off_c, 0, 54, 45
1, 96986, Control_c, 0, 64, 97
1, 97001, Control_c, 0, 64, 105
1, 97016, Control_c, 0, 64, 111
1, 97023, Note_on_c, 0, 49, 8
1, 97030, Control_c, 0, 64, 117
1, 97045, Control_c, 0, 64, 127
1, 97078, Note_off_c, 0, 49, 52
1, 97225, Note_on_c, 0, 37, 45
1, 97401, Note_off_c, 0, 72, 48
1, 97421, Note_on_c, 0, 75, 50
1, 97572, Control_c, 0, 64, 119
1, 97587, Control_c, 0, 64, 100
1, 97600, Note_off_c, 0, 75, 50
1, 97601, Control_c, 0, 64, 82
1, 97615, Note_on_c, 0, 73, 56
1, 97616, Control_c, 0, 64, 67
1, 97631, Control_c, 0, 64, 46
1, 97646, Control_c, 0, 64, 42
1, 97660, Control_c, 0, 64, 63
1, 97675, Control_c, 0, 64, 70
1, 97690, Control_c, 0, 64, 78
1, 97705, Control_c, 0, 64, 85
1, 97708, Note_off_c, 0, 37, 52
1, 97719, Control_c, 0, 64, 93
1, 97734, Control_c, 0, 64, 99
1, 97749, Control_c, 0, 64, 103
1, 97764, Control_c, 0, 64, 105
1, 97776, Note_off_c, 0, 73, 55
1, 97779, Control_c, 0, 64, 105
1, 97803, Note_on_c, 0, 72, 54
1, 97883, Note_off_c, 0, 72, 57
1, 97913, Control_c, 0, 64, 104
1, 97927, Control_c, 0, 64, 103
1, 97942, Control_c, 0, 64, 102
1, 97964, Control_c, 0, 64, 99
1, 97980, Control_c, 0, 64, 93
1, 97995, Control_c, 0, 64, 86
1, 98010, Control_c, 0, 64, 77
1, 98011, Note_on_c, 0, 73, 51
1, 98022, Note_on_c, 0, 61, 39
1, 98025, Control_c, 0, 64, 69
1, 98039, Control_c, 0, 64, 57
1, 98054, Control_c, 0, 64, 0
1, 98202, Note_off_c, 0, 73, 56
1, 98217, Note_on_c, 0, 81, 46
1, 98223, Note_on_c, 0, 56, 36
1, 98390, Note_off_c, 0, 81, 59
1, 98408, Note_on_c, 0, 53, 38
1, 98417, Note_on_c, 0, 80, 50
1, 98454, Control_c, 0, 64, 59
1, 98469, Control_c, 0, 64, 66
1, 98483, Control_c, 0, 64, 73
1, 98485, Note_off_c, 0, 56, 37
1, 98498, Control_c, 0, 64, 77
1, 98509, Note_off_c, 0, 61, 40
1, 98513, Control_c, 0, 64, 82
1, 98528, Control_c, 0, 64, 85
1, 98543, Control_c, 0, 64, 88
1, 98557, Control_c, 0, 64, 91
1, 98572, Control_c, 0, 64, 94
1, 98587, Control_c, 0, 64, 96
1, 98590, Note_off_c, 0, 53, 45
1, 98602, Control_c, 0, 64, 98
1, 98615, Note_on_c, 0, 49, 38
1, 98617, Control_c, 0, 64, 100
1, 98632, Control_c, 0, 64, 101
1, 98647, Control_c, 0, 64, 102
1, 98652, Note_off_c, 0, 49, 53
1, 98661, Control_c, 0, 64, 102
1, 98676, Control_c, 0, 64, 103
1, 98691, Control_c, 0, 64, 103
1, 98713, Control_c, 0, 64, 104
1, 98728, Control_c, 0, 64, 105
1, 98743, Control_c, 0, 64, 106
1, 98773, Control_c, 0, 64, 107
1, 98834, Control_c, 0, 64, 107
1, 98843, Note_on_c, 0, 37, 32
1, 98849, Control_c, 0, 64, 108
1, 98863, Control_c, 0, 67, 122
1, 98878, Control_c, 0, 64, 108
1, 98878, Control_c, 0, 67, 104
1, 98893, Control_c, 0, 67, 83
1, 98907, Control_c, 0, 67, 61
1, 98922, Control_c, 0, 64, 109
1, 98922, Control_c, 0, 67, 40
1, 98937, Control_c, 0, 67, 17
1, 98952, Control_c, 0, 67, 0
1, 99038, Note_on_c, 0, 83, 53
1, 99046, Note_off_c, 0, 80, 28
1, 99174, Control_c, 0, 64, 108
1, 99189, Control_c, 0, 64, 95
1, 99204, Control_c, 0, 64, 79
1, 99216, Note_off_c, 0, 83, 59
1, 99219, Control_c, 0, 64, 66
1, 99222, Note_on_c, 0, 81, 65
1, 99233, Control_c, 0, 64, 52
1, 99248, Control_c, 0, 64, 55
1, 99263, Control_c, 0, 64, 65
1, 99278, Control_c, 0, 64, 73
1, 99293, Control_c, 0, 64, 79
1, 99307, Control_c, 0, 64, 87
1, 99313, Note_off_c, 0, 37, 52
1, 99322, Control_c, 0, 64, 95
1, 99337, Control_c, 0, 64, 103
1, 99352, Control_c, 0, 64, 109
1, 99367, Control_c, 0, 64, 114
1, 99381, Control_c, 0, 64, 118
1, 99396, Control_c, 0, 64, 126
1, 99411, Control_c, 0, 64, 127
1, 99414, Note_on_c, 0, 80, 72
1, 99416, Note_off_c, 0, 81, 58
1, 99609, Note_off_c, 0, 80, 63
1, 99619, Note_on_c, 0, 81, 67
1, 99624, Note_on_c, 0, 61, 45
1, 99626, Control_c, 0, 64, 115
1, 99641, Control_c, 0, 64, 95
1, 99655, Control_c, 0, 64, 74
1, 99670, Control_c, 0, 64, 63
1, 99685, Control_c, 0, 64, 53
1, 99700, Control_c, 0, 64, 60
1, 99715, Control_c, 0, 64, 67
1, 99729, Control_c, 0, 64, 73
1, 99744, Control_c, 0, 64, 78
1, 99759, Control_c, 0, 64, 84
1, 99774, Control_c, 0, 64, 88
1, 99789, Control_c, 0, 64, 92
1, 99803, Control_c, 0, 64, 94
1, 99807, Note_on_c, 0, 73, 71
1, 99818, Control_c, 0, 64, 97
1, 99823, Note_off_c, 0, 81, 57
1, 99827, Note_on_c, 0, 57, 40
1, 99833, Control_c, 0, 64, 98
1, 99848, Control_c, 0, 64, 101
1, 99863, Control_c, 0, 64, 103
1, 99878, Control_c, 0, 64, 104
1, 99881, Note_off_c, 0, 73, 58
1, 100027, Note_on_c, 0, 54, 43
1, 100041, Control_c, 0, 64, 103
1, 100055, Control_c, 0, 64, 101
1, 100070, Control_c, 0, 64, 99
1, 100085, Control_c, 0, 64, 97
1, 100087, Note_on_c, 0, 73, 58
1, 100100, Control_c, 0, 64, 93
1, 100115, Control_c, 0, 64, 89
1, 100129, Control_c, 0, 64, 83
1, 100144, Control_c, 0, 64, 76
1, 100153, Note_off_c, 0, 73, 57
1, 100159, Control_c, 0, 64, 69
1, 100163, Note_on_c, 0, 72, 57
1, 100174, Control_c, 0, 64, 56
1, 100189, Control_c, 0, 64, 0
1, 100251, Note_off_c, 0, 57, 40
1, 100255, Control_c, 0, 64, 56
1, 100259, Note_off_c, 0, 61, 54
1, 100267, Note_off_c, 0, 54, 42
1, 100270, Control_c, 0, 64, 69
1, 100281, Note_on_c, 0, 49, 43
1, 100285, Control_c, 0, 64, 78
1, 100300, Control_c, 0, 64, 87
1, 100315, Note_off_c, 0, 49, 63
1, 100315, Control_c, 0, 64, 96
1, 100329, Control_c, 0, 64, 103
1, 100344, Control_c, 0, 64, 109
1, 100359, Control_c, 0, 64, 115
1, 100375, Control_c, 0, 64, 127
1, 100510, Note_on_c, 0, 37, 43
1, 100694, Note_on_c, 0, 75, 57
1, 100695, Note_off_c, 0, 72, 55
1, 100849, Control_c, 0, 64, 102
1, 100864, Control_c, 0, 64, 83
1, 100878, Control_c, 0, 64, 69
1, 100885, Note_on_c, 0, 73, 62
1, 100886, Note_off_c, 0, 75, 53
1, 100893, Control_c, 0, 64, 57
1, 100908, Control_c, 0, 64, 54
1, 100923, Control_c, 0, 64, 63
1, 100938, Control_c, 0, 64, 69
1, 100960, Control_c, 0, 64, 74
1, 100973, Note_off_c, 0, 37, 55
1, 100975, Control_c, 0, 64, 78
1, 100990, Control_c, 0, 64, 81
1, 101004, Control_c, 0, 64, 85
1, 101019, Control_c, 0, 64, 88
1, 101034, Control_c, 0, 64, 92
1, 101049, Control_c, 0, 64, 94
1, 101064, Control_c, 0, 64, 97
1, 101078, Note_off_c, 0, 73, 56
1, 101078, Control_c, 0, 64, 99
1, 101079, Note_on_c, 0, 72, 67
1, 101093, Control_c, 0, 64, 101
1, 101108, Control_c, 0, 64, 103
1, 101123, Control_c, 0, 64, 103
1, 101152, Control_c, 0, 64, 104
1, 101189, Note_off_c, 0, 72, 55
1, 101287, Control_c, 0, 64, 102
1, 101289, Note_on_c, 0, 73, 62
1, 101301, Control_c, 0, 64, 97
1, 101305, Note_on_c, 0, 61, 44
1, 101316, Control_c, 0, 64, 90
1, 101331, Control_c, 0, 64, 81
1, 101346, Control_c, 0, 64, 72
1, 101361, Control_c, 0, 64, 64
1, 101375, Control_c, 0, 64, 57
1, 101390, Control_c, 0, 64, 52
1, 101405, Control_c, 0, 64, 51
1, 101434, Control_c, 0, 64, 51
1, 101449, Control_c, 0, 64, 49
1, 101464, Control_c, 0, 64, 41
1, 101479, Control_c, 0, 64, 29
1, 101484, Note_on_c, 0, 81, 66
1, 101485, Note_off_c, 0, 73, 57
1, 101492, Note_on_c, 0, 56, 49
1, 101493, Control_c, 0, 64, 19
1, 101508, Control_c, 0, 64, 0
1, 101627, Control_c, 0, 64, 29
1, 101642, Control_c, 0, 64, 55
1, 101657, Control_c, 0, 64, 64
1, 101672, Control_c, 0, 64, 66
1, 101678, Note_on_c, 0, 53, 53
1, 101685, Note_on_c, 0, 80, 71
1, 101687, Control_c, 0, 64, 67
1, 101714, Note_off_c, 0, 81, 57
1, 101723, Control_c, 0, 64, 68
1, 101729, Note_off_c, 0, 61, 43
1, 101753, Control_c, 0, 64, 69
1, 101768, Control_c, 0, 64, 70
1, 101782, Control_c, 0, 64, 72
1, 101797, Control_c, 0, 64, 75
1, 101812, Note_off_c, 0, 56, 24
1, 101813, Control_c, 0, 64, 79
1, 101827, Control_c, 0, 64, 84
1, 101842, Control_c, 0, 64, 91
1, 101850, Note_off_c, 0, 53, 51
1, 101857, Control_c, 0, 64, 97
1, 101872, Control_c, 0, 64, 102
1, 101877, Note_on_c, 0, 49, 50
1, 101887, Control_c, 0, 64, 106
1, 101902, Control_c, 0, 64, 112
1, 101908, Note_off_c, 0, 49, 62
1, 101917, Control_c, 0, 64, 126
1, 101931, Control_c, 0, 64, 127
1, 102085, Note_on_c, 0, 37, 54
1, 102110, Control_c, 0, 64, 106
1, 102125, Control_c, 0, 64, 84
1, 102140, Control_c, 0, 64, 74
1, 102155, Control_c, 0, 64, 70
1, 102170, Control_c, 0, 64, 71
1, 102185, Control_c, 0, 64, 77
1, 102199, Control_c, 0, 64, 82
1, 102214, Control_c, 0, 64, 88
1, 102229, Control_c, 0, 64, 92
1, 102243, Control_c, 0, 64, 95
1, 102258, Control_c, 0, 64, 97
1, 102273, Control_c, 0, 64, 98
1, 102281, Note_on_c, 0, 83, 74
1, 102288, Control_c, 0, 64, 99
1, 102303, Control_c, 0, 64, 101
1, 102305, Note_off_c, 0, 37, 59
1, 102317, Control_c, 0, 64, 104
1, 102332, Control_c, 0, 64, 108
1, 102334, Note_off_c, 0, 80, 48
1, 102347, Control_c, 0, 64, 112
1, 102362, Control_c, 0, 64, 118
1, 102377, Control_c, 0, 64, 126
1, 102391, Control_c, 0, 64, 127
1, 102489, Note_on_c, 0, 81, 79
1, 102509, Note_off_c, 0, 83, 63
1, 102680, Note_on_c, 0, 80, 78
1, 102683, Note_off_c, 0, 81, 58
1, 102903, Control_c, 0, 64, 105
1, 102912, Note_on_c, 0, 54, 42
1, 102915, Note_on_c, 0, 42, 43
1, 102918, Control_c, 0, 64, 84
1, 102924, Note_on_c, 0, 81, 75
1, 102933, Control_c, 0, 64, 68
1, 102945, Note_off_c, 0, 80, 62
1, 102948, Control_c, 0, 64, 42
1, 102963, Control_c, 0, 64, 0
1, 102978, Control_c, 0, 64, 38
1, 102993, Control_c, 0, 64, 64
1, 103008, Control_c, 0, 64, 72
1, 103022, Control_c, 0, 64, 79
1, 103037, Control_c, 0, 64, 86
1, 103039, Note_off_c, 0, 42, 53
1, 103042, Note_off_c, 0, 54, 56
1, 103052, Control_c, 0, 64, 92
1, 103066, Control_c, 0, 64, 97
1, 103081, Control_c, 0, 64, 102
1, 103096, Control_c, 0, 64, 106
1, 103103, Note_off_c, 0, 81, 63
1, 103111, Control_c, 0, 64, 111
1, 103126, Control_c, 0, 64, 118
1, 103140, Control_c, 0, 64, 127
1, 103160, Note_on_c, 0, 73, 57
1, 103365, Note_on_c, 0, 59, 47
1, 103380, Note_on_c, 0, 47, 40
1, 103381, Note_on_c, 0, 80, 69
1, 103383, Control_c, 0, 64, 99
1, 103388, Note_on_c, 0, 74, 69
1, 103392, Note_off_c, 0, 73, 56
1, 103398, Control_c, 0, 64, 80
1, 103413, Control_c, 0, 64, 66
1, 103428, Control_c, 0, 64, 51
1, 103443, Control_c, 0, 64, 47
1, 103458, Control_c, 0, 64, 63
1, 103472, Control_c, 0, 64, 69
1, 103487, Control_c, 0, 64, 75
1, 103502, Control_c, 0, 64, 79
1, 103517, Control_c, 0, 64, 84
1, 103517, Note_off_c, 0, 47, 57
1, 103532, Control_c, 0, 64, 89
1, 103535, Note_off_c, 0, 59, 61
1, 103546, Control_c, 0, 64, 95
1, 103561, Control_c, 0, 64, 101
1, 103577, Control_c, 0, 64, 107
1, 103584, Note_on_c, 0, 78, 71
1, 103592, Control_c, 0, 64, 114
1, 103607, Control_c, 0, 64, 127
1, 103622, Note_off_c, 0, 80, 51
1, 103764, Note_off_c, 0, 78, 58
1, 103769, Control_c, 0, 64, 101
1, 103784, Control_c, 0, 64, 79
1, 103799, Note_on_c, 0, 77, 52
1, 103799, Control_c, 0, 64, 62
1, 103813, Note_on_c, 0, 49, 26
1, 103813, Control_c, 0, 64, 0
1, 103820, Note_on_c, 0, 61, 22
1, 103873, Control_c, 0, 64, 63
1, 103887, Control_c, 0, 64, 72
1, 103899, Note_off_c, 0, 74, 36
1, 103902, Control_c, 0, 64, 80
1, 103917, Control_c, 0, 64, 88
1, 103932, Control_c, 0, 64, 96
1, 103955, Control_c, 0, 64, 101
1, 103960, Note_off_c, 0, 61, 50
1, 103969, Control_c, 0, 64, 106
1, 103976, Note_off_c, 0, 49, 47
1, 103984, Control_c, 0, 64, 112
1, 103999, Control_c, 0, 64, 119
1, 104011, Note_on_c, 0, 73, 62
1, 104014, Control_c, 0, 64, 127
1, 104176, Control_c, 0, 64, 112
1, 104191, Control_c, 0, 64, 94
1, 104206, Control_c, 0, 64, 76
1, 104221, Control_c, 0, 64, 57
1, 104233, Note_off_c, 0, 77, 50
1, 104235, Note_on_c, 0, 62, 26
1, 104236, Control_c, 0, 64, 0
1, 104245, Note_on_c, 0, 78, 46
1, 104249, Note_on_c, 0, 50, 24
1, 104280, Control_c, 0, 64, 38
1, 104295, Control_c, 0, 64, 63
1, 104295, Control_c, 0, 67, 14
1, 104310, Control_c, 0, 64, 70
1, 104310, Control_c, 0, 67, 24
1, 104325, Control_c, 0, 64, 75
1, 104325, Control_c, 0, 67, 36
1, 104340, Control_c, 0, 64, 78
1, 104340, Control_c, 0, 67, 45
1, 104355, Control_c, 0, 64, 80
1, 104355, Control_c, 0, 67, 54
1, 104370, Control_c, 0, 64, 83
1, 104370, Control_c, 0, 67, 62
1, 104385, Control_c, 0, 64, 85
1, 104385, Control_c, 0, 67, 71
1, 104400, Control_c, 0, 64, 88
1, 104400, Control_c, 0, 67, 81
1, 104415, Control_c, 0, 64, 90
1, 104415, Control_c, 0, 67, 94
1, 104429, Control_c, 0, 64, 91
1, 104429, Control_c, 0, 67, 106
1, 104444, Control_c, 0, 64, 92
1, 104444, Control_c, 0, 67, 119
1, 104459, Control_c, 0, 67, 127
1, 104462, Note_off_c, 0, 62, 54
1, 104468, Note_off_c, 0, 50, 49
1, 104470, Note_off_c, 0, 73, 32
1, 104491, Note_on_c, 0, 71, 55
1, 104592, Control_c, 0, 64, 91
1, 104622, Control_c, 0, 64, 91
1, 104636, Control_c, 0, 64, 90
1, 104651, Control_c, 0, 64, 89
1, 104666, Control_c, 0, 64, 88
1, 104671, Note_off_c, 0, 71, 34
1, 104681, Control_c, 0, 64, 86
1, 104704, Control_c, 0, 64, 84
1, 104718, Control_c, 0, 64, 81
1, 104733, Control_c, 0, 64, 79
1, 104748, Control_c, 0, 64, 75
1, 104763, Control_c, 0, 64, 70
1, 104778, Control_c, 0, 64, 65
1, 104792, Control_c, 0, 64, 61
1, 104795, Note_on_c, 0, 80, 51
1, 104805, Note_off_c, 0, 78, 49
1, 104808, Control_c, 0, 64, 47
1, 104814, Note_on_c, 0, 61, 35
1, 104823, Control_c, 0, 64, 0
1, 104941, Control_c, 0, 64, 54
1, 104956, Control_c, 0, 64, 66
1, 104970, Control_c, 0, 64, 71
1, 104985, Control_c, 0, 64, 76
1, 105000, Control_c, 0, 64, 81
1, 105015, Control_c, 0, 64, 87
1, 105030, Control_c, 0, 64, 94
1, 105032, Note_on_c, 0, 56, 33
1, 105044, Control_c, 0, 64, 100
1, 105059, Control_c, 0, 64, 105
1, 105074, Control_c, 0, 64, 110
1, 105089, Control_c, 0, 64, 116
1, 105104, Control_c, 0, 64, 127
1, 105179, Note_off_c, 0, 61, 35
1, 105244, Note_on_c, 0, 53, 41
1, 105248, Note_off_c, 0, 56, 23
1, 105429, Note_off_c, 0, 53, 43
1, 105455, Note_on_c, 0, 49, 40
1, 105488, Note_off_c, 0, 49, 57
1, 105670, Note_on_c, 0, 37, 39
1, 105760, Note_off_c, 0, 80, 35
1, 105830, Note_off_c, 0, 37, 42
1, 105853, Note_on_c, 0, 83, 58
1, 105972, Control_c, 0, 67, 120
1, 105987, Control_c, 0, 67, 105
1, 106002, Control_c, 0, 67, 86
1, 106016, Control_c, 0, 67, 62
1, 106022, Note_off_c, 0, 83, 60
1, 106031, Control_c, 0, 67, 42
1, 106036, Note_on_c, 0, 81, 70
1, 106046, Control_c, 0, 67, 24
1, 106061, Control_c, 0, 67, 0
1, 106215, Note_off_c, 0, 81, 61
1, 106229, Note_on_c, 0, 80, 69
1, 106403, Note_off_c, 0, 80, 62
1, 106409, Control_c, 0, 64, 90
1, 106421, Note_on_c, 0, 61, 42
1, 106421, Note_on_c, 0, 81, 61
1, 106423, Control_c, 0, 64, 73
1, 106438, Control_c, 0, 64, 59
1, 106453, Control_c, 0, 64, 17
1, 106468, Control_c, 0, 64, 37
1, 106483, Control_c, 0, 64, 62
1, 106497, Control_c, 0, 64, 70
1, 106512, Control_c, 0, 64, 77
1, 106527, Control_c, 0, 64, 84
1, 106542, Control_c, 0, 64, 90
1, 106557, Control_c, 0, 64, 95
1, 106571, Control_c, 0, 64, 99
1, 106586, Control_c, 0, 64, 102
1, 106590, Note_off_c, 0, 81, 56
1, 106601, Control_c, 0, 64, 106
1, 106614, Note_on_c, 0, 73, 60
1, 106615, Control_c, 0, 64, 109
1, 106630, Control_c, 0, 64, 114
1, 106635, Note_on_c, 0, 57, 37
1, 106645, Control_c, 0, 64, 121
1, 106656, Note_off_c, 0, 73, 58
1, 106660, Control_c, 0, 64, 127
1, 106787, Note_on_c, 0, 54, 43
1, 106820, Note_on_c, 0, 72, 44
1, 106824, Control_c, 0, 64, 119
1, 106838, Control_c, 0, 64, 115
1, 106844, Note_off_c, 0, 72, 57
1, 106846, Note_on_c, 0, 73, 63
1, 106853, Control_c, 0, 64, 112
1, 106868, Control_c, 0, 64, 109
1, 106878, Note_off_c, 0, 73, 65
1, 106883, Control_c, 0, 64, 104
1, 106898, Control_c, 0, 64, 100
1, 106913, Control_c, 0, 64, 95
1, 106927, Control_c, 0, 64, 91
1, 106950, Control_c, 0, 64, 86
1, 106952, Note_on_c, 0, 72, 8
1, 106958, Note_on_c, 0, 70, 59
1, 106965, Control_c, 0, 64, 82
1, 106979, Note_off_c, 0, 70, 61
1, 106980, Control_c, 0, 64, 79
1, 106991, Note_off_c, 0, 72, 0
1, 106994, Control_c, 0, 64, 76
1, 107009, Control_c, 0, 64, 71
1, 107020, Note_on_c, 0, 72, 38
1, 107024, Control_c, 0, 64, 63
1, 107038, Control_c, 0, 64, 27
1, 107053, Control_c, 0, 64, 0
1, 107068, Note_off_c, 0, 57, 26
1, 107071, Note_on_c, 0, 49, 34
1, 107078, Note_off_c, 0, 72, 51
1, 107103, Note_off_c, 0, 54, 46
1, 107112, Note_off_c, 0, 61, 52
1, 107112, Control_c, 0, 64, 60
1, 107126, Note_on_c, 0, 72, 43
1, 107127, Control_c, 0, 64, 70
1, 107142, Control_c, 0, 64, 79
1, 107149, Note_off_c, 0, 49, 61
1, 107157, Control_c, 0, 64, 88
1, 107172, Control_c, 0, 64, 97
1, 107187, Control_c, 0, 64, 103
1, 107202, Control_c, 0, 64, 110
1, 107217, Control_c, 0, 64, 117
1, 107232, Control_c, 0, 64, 127
1, 107314, Note_on_c, 0, 37, 33
1, 107503, Note_on_c, 0, 75, 61
1, 107504, Note_off_c, 0, 72, 55
1, 107699, Control_c, 0, 64, 109
1, 107701, Note_on_c, 0, 73, 67
1, 107703, Note_off_c, 0, 75, 49
1, 107714, Control_c, 0, 64, 86
1, 107729, Control_c, 0, 64, 72
1, 107743, Control_c, 0, 64, 62
1, 107758, Control_c, 0, 64, 63
1, 107773, Control_c, 0, 64, 68
1, 107787, Control_c, 0, 64, 75
1, 107803, Control_c, 0, 64, 82
1, 107818, Control_c, 0, 64, 88
1, 107825, Note_off_c, 0, 37, 52
1, 107833, Control_c, 0, 64, 94
1, 107848, Control_c, 0, 64, 98
1, 107862, Control_c, 0, 64, 101
1, 107877, Control_c, 0, 64, 103
1, 107891, Note_off_c, 0, 73, 54
1, 107892, Control_c, 0, 64, 104
1, 107893, Note_on_c, 0, 72, 70
1, 107907, Control_c, 0, 64, 106
1, 107922, Control_c, 0, 64, 109
1, 107936, Control_c, 0, 64, 111
1, 107951, Control_c, 0, 64, 114
1, 107966, Control_c, 0, 64, 114
1, 107978, Note_off_c, 0, 72, 54
1, 107981, Control_c, 0, 64, 115
1, 108025, Control_c, 0, 64, 115
1, 108069, Control_c, 0, 64, 115
1, 108099, Control_c, 0, 64, 114
1, 108102, Note_on_c, 0, 73, 64
1, 108114, Control_c, 0, 64, 107
1, 108120, Note_on_c, 0, 61, 50
1, 108129, Control_c, 0, 64, 97
1, 108144, Control_c, 0, 64, 85
1, 108159, Control_c, 0, 64, 75
1, 108173, Control_c, 0, 64, 67
1, 108188, Control_c, 0, 64, 60
1, 108203, Control_c, 0, 64, 44
1, 108218, Control_c, 0, 64, 28
1, 108233, Control_c, 0, 64, 27
1, 108262, Control_c, 0, 64, 17
1, 108277, Control_c, 0, 64, 0
1, 108299, Note_on_c, 0, 81, 65
1, 108305, Note_off_c, 0, 73, 58
1, 108311, Note_on_c, 0, 56, 51
1, 108478, Control_c, 0, 64, 11
1, 108492, Control_c, 0, 64, 56
1, 108501, Note_off_c, 0, 81, 61
1, 108502, Note_on_c, 0, 80, 70
1, 108504, Note_on_c, 0, 53, 51
1, 108507, Control_c, 0, 64, 64
1, 108522, Control_c, 0, 64, 68
1, 108537, Control_c, 0, 64, 73
1, 108540, Note_off_c, 0, 61, 49
1, 108552, Control_c, 0, 64, 79
1, 108560, Note_off_c, 0, 56, 35
1, 108567, Control_c, 0, 64, 86
1, 108582, Control_c, 0, 64, 94
1, 108597, Control_c, 0, 64, 105
1, 108611, Control_c, 0, 64, 118
1, 108626, Control_c, 0, 64, 127
1, 108633, Note_off_c, 0, 80, 60
1, 108694, Note_on_c, 0, 49, 53
1, 108694, Note_off_c, 0, 53, 37
1, 108724, Note_off_c, 0, 49, 64
1, 108904, Note_on_c, 0, 37, 55
1, 109100, Control_c, 0, 64, 93
1, 109112, Note_on_c, 0, 86, 68
1, 109115, Control_c, 0, 64, 83
1, 109129, Control_c, 0, 64, 81
1, 109144, Control_c, 0, 64, 85
1, 109160, Control_c, 0, 64, 92
1, 109175, Control_c, 0, 64, 105
1, 109196, Note_off_c, 0, 86, 60
1, 109197, Control_c, 0, 64, 127
1, 109202, Note_on_c, 0, 85, 73
1, 109205, Note_off_c, 0, 37, 61
1, 109291, Note_on_c, 0, 83, 74
1, 109293, Note_off_c, 0, 85, 61
1, 109348, Note_off_c, 0, 83, 65
1, 109372, Note_on_c, 0, 81, 70
1, 109454, Note_off_c, 0, 81, 62
1, 109458, Note_on_c, 0, 80, 75
1, 109656, Control_c, 0, 64, 106
1, 109657, Note_on_c, 0, 81, 71
1, 109661, Note_off_c, 0, 80, 62
1, 109667, Note_on_c, 0, 61, 55
1, 109671, Control_c, 0, 64, 91
1, 109686, Control_c, 0, 64, 78
1, 109701, Control_c, 0, 64, 66
1, 109715, Control_c, 0, 64, 0
1, 109851, Note_on_c, 0, 73, 67
1, 109863, Note_on_c, 0, 57, 48
1, 109885, Note_off_c, 0, 81, 56
1, 110061, Note_on_c, 0, 72, 66
1, 110062, Note_on_c, 0, 54, 47
1, 110077, Note_off_c, 0, 73, 56
1, 110153, Control_c, 0, 64, 24
1, 110168, Control_c, 0, 64, 57
1, 110182, Control_c, 0, 64, 65
1, 110186, Note_off_c, 0, 61, 59
1, 110197, Control_c, 0, 64, 70
1, 110212, Control_c, 0, 64, 76
1, 110227, Control_c, 0, 64, 79
1, 110227, Note_off_c, 0, 57, 36
1, 110242, Control_c, 0, 64, 81
1, 110247, Note_on_c, 0, 49, 55
1, 110256, Control_c, 0, 64, 84
1, 110258, Note_off_c, 0, 54, 37
1, 110271, Control_c, 0, 64, 90
1, 110279, Note_off_c, 0, 49, 64
1, 110286, Control_c, 0, 64, 97
1, 110301, Control_c, 0, 64, 106
1, 110316, Control_c, 0, 64, 111
1, 110330, Control_c, 0, 64, 117
1, 110345, Control_c, 0, 64, 127
1, 110453, Note_on_c, 0, 37, 62
1, 110655, Note_on_c, 0, 75, 70
1, 110718, Note_off_c, 0, 72, 51
1, 110752, Control_c, 0, 64, 119
1, 110768, Control_c, 0, 64, 93
1, 110783, Control_c, 0, 64, 73
1, 110798, Control_c, 0, 64, 55
1, 110812, Control_c, 0, 64, 0
1, 110827, Control_c, 0, 64, 31
1, 110842, Control_c, 0, 64, 62
1, 110849, Note_on_c, 0, 73, 76
1, 110857, Control_c, 0, 64, 68
1, 110872, Control_c, 0, 64, 76
1, 110878, Note_off_c, 0, 75, 57
1, 110886, Control_c, 0, 64, 88
1, 110894, Note_off_c, 0, 37, 62
1, 110901, Control_c, 0, 64, 94
1, 110916, Control_c, 0, 64, 97
1, 110931, Control_c, 0, 64, 101
1, 110946, Control_c, 0, 64, 108
1, 110961, Control_c, 0, 64, 127
1, 111035, Note_on_c, 0, 72, 75
1, 111062, Note_off_c, 0, 73, 53
1, 111174, Note_off_c, 0, 72, 60
1, 111227, Control_c, 0, 64, 113
1, 111238, Note_on_c, 0, 73, 74
1, 111241, Note_on_c, 0, 61, 53
1, 111242, Control_c, 0, 64, 89
1, 111257, Control_c, 0, 64, 72
1, 111272, Control_c, 0, 64, 61
1, 111286, Control_c, 0, 64, 30
1, 111301, Control_c, 0, 64, 0
1, 111435, Note_on_c, 0, 81, 73
1, 111447, Note_on_c, 0, 56, 56
1, 111457, Note_off_c, 0, 73, 51
1, 111634, Note_on_c, 0, 53, 55
1, 111636, Control_c, 0, 64, 11
1, 111637, Note_on_c, 0, 80, 75
1, 111651, Control_c, 0, 64, 44
1, 111656, Note_off_c, 0, 81, 61
1, 111666, Control_c, 0, 64, 59
1, 111681, Control_c, 0, 64, 65
1, 111696, Control_c, 0, 64, 69
1, 111710, Control_c, 0, 64, 76
1, 111725, Control_c, 0, 64, 84
1, 111740, Control_c, 0, 64, 91
1, 111755, Control_c, 0, 64, 94
1, 111770, Control_c, 0, 64, 98
1, 111778, Note_off_c, 0, 61, 31
1, 111784, Control_c, 0, 64, 104
1, 111799, Control_c, 0, 64, 114
1, 111805, Note_off_c, 0, 53, 63
1, 111807, Note_off_c, 0, 56, 25
1, 111814, Control_c, 0, 64, 127
1, 111825, Note_on_c, 0, 49, 54
1, 111854, Note_off_c, 0, 49, 64
1, 112040, Note_on_c, 0, 37, 69
1, 112126, Note_off_c, 0, 37, 58
1, 112128, Note_off_c, 0, 80, 38
1, 112247, Note_on_c, 0, 83, 78
1, 112424, Note_on_c, 0, 81, 85
1, 112463, Note_off_c, 0, 83, 60
1, 112609, Note_on_c, 0, 80, 90
1, 112612, Note_off_c, 0, 81, 63
1, 112784, Note_off_c, 0, 80, 57
1, 112821, Note_on_c, 0, 42, 54
1, 112823, Note_on_c, 0, 81, 85
1, 112825, Note_on_c, 0, 54, 44
1, 112830, Control_c, 0, 64, 102
1, 112845, Control_c, 0, 64, 76
1, 112859, Control_c, 0, 64, 47
1, 112874, Control_c, 0, 64, 0
1, 112904, Control_c, 0, 64, 51
1, 112919, Control_c, 0, 64, 66
1, 112940, Control_c, 0, 64, 77
1, 112955, Control_c, 0, 64, 89
1, 112961, Note_off_c, 0, 42, 62
1, 112970, Control_c, 0, 64, 101
1, 112979, Note_off_c, 0, 54, 57
1, 112985, Control_c, 0, 64, 107
1, 113000, Control_c, 0, 64, 115
1, 113014, Control_c, 0, 64, 127
1, 113039, Note_on_c, 0, 85, 90
1, 113064, Note_off_c, 0, 81, 53
1, 113269, Note_on_c, 0, 47, 44
1, 113270, Note_on_c, 0, 59, 42
1, 113276, Note_on_c, 0, 88, 81
1, 113297, Control_c, 0, 64, 92
1, 113304, Note_off_c, 0, 85, 59
1, 113312, Control_c, 0, 64, 74
1, 113327, Control_c, 0, 64, 61
1, 113342, Control_c, 0, 64, 54
1, 113356, Control_c, 0, 64, 65
1, 113371, Control_c, 0, 64, 73
1, 113386, Note_off_c, 0, 47, 64
1, 113386, Control_c, 0, 64, 84
1, 113396, Note_off_c, 0, 59, 54
1, 113400, Control_c, 0, 64, 95
1, 113406, Note_on_c, 0, 86, 77
1, 113415, Control_c, 0, 64, 101
1, 113419, Note_off_c, 0, 88, 59
1, 113430, Control_c, 0, 64, 105
1, 113445, Control_c, 0, 64, 112
1, 113460, Control_c, 0, 64, 121
1, 113474, Control_c, 0, 64, 127
1, 113491, Note_off_c, 0, 86, 62
1, 113496, Note_on_c, 0, 85, 79
1, 113568, Note_on_c, 0, 83, 77
1, 113569, Note_off_c, 0, 85, 63
1, 113623, Note_off_c, 0, 83, 65
1, 113653, Note_on_c, 0, 81, 69
1, 113683, Note_on_c, 0, 57, 45
1, 113689, Control_c, 0, 64, 106
1, 113693, Note_on_c, 0, 54, 37
1, 113700, Note_on_c, 0, 49, 43
1, 113704, Control_c, 0, 64, 84
1, 113719, Control_c, 0, 64, 67
1, 113733, Control_c, 0, 64, 0
1, 113807, Control_c, 0, 64, 62
1, 113822, Control_c, 0, 64, 73
1, 113837, Control_c, 0, 64, 83
1, 113852, Control_c, 0, 64, 90
1, 113866, Note_on_c, 0, 78, 69
1, 113867, Note_off_c, 0, 81, 59
1, 113867, Control_c, 0, 64, 92
1, 113882, Control_c, 0, 64, 92
1, 113897, Control_c, 0, 64, 93
1, 113912, Control_c, 0, 64, 94
1, 113927, Control_c, 0, 64, 96
1, 113941, Control_c, 0, 64, 97
1, 113957, Control_c, 0, 64, 98
1, 114016, Control_c, 0, 64, 96
1, 114031, Control_c, 0, 64, 85
1, 114046, Control_c, 0, 64, 70
1, 114061, Control_c, 0, 64, 11
1, 114064, Note_on_c, 0, 56, 48
1, 114072, Note_off_c, 0, 54, 45
1, 114076, Control_c, 0, 64, 0
1, 114105, Note_off_c, 0, 57, 45
1, 114105, Control_c, 0, 64, 24
1, 114120, Control_c, 0, 64, 63
1, 114135, Control_c, 0, 64, 72
1, 114149, Control_c, 0, 64, 82
1, 114164, Control_c, 0, 64, 93
1, 114179, Control_c, 0, 64, 99
1, 114194, Control_c, 0, 64, 103
1, 114195, Note_off_c, 0, 56, 63
1, 114209, Control_c, 0, 64, 109
1, 114223, Control_c, 0, 64, 119
1, 114235, Note_off_c, 0, 49, 45
1, 114238, Control_c, 0, 64, 127
1, 114242, Note_off_c, 0, 78, 53
1, 114246, Note_on_c, 0, 77, 63
1, 114433, Note_off_c, 0, 77, 62
1, 114450, Note_on_c, 0, 78, 62
1, 114453, Control_c, 0, 64, 107
1, 114461, Note_on_c, 0, 50, 40
1, 114468, Control_c, 0, 64, 82
1, 114477, Note_on_c, 0, 54, 38
1, 114483, Control_c, 0, 64, 67
1, 114498, Control_c, 0, 64, 38
1, 114512, Control_c, 0, 64, 40
1, 114527, Control_c, 0, 64, 63
1, 114542, Control_c, 0, 64, 70
1, 114556, Control_c, 0, 64, 79
1, 114571, Control_c, 0, 64, 87
1, 114586, Control_c, 0, 64, 92
1, 114601, Control_c, 0, 64, 94
1, 114615, Note_off_c, 0, 78, 61
1, 114616, Control_c, 0, 64, 97
1, 114630, Control_c, 0, 64, 99
1, 114636, Note_on_c, 0, 73, 65
1, 114645, Control_c, 0, 64, 101
1, 114660, Control_c, 0, 64, 104
1, 114675, Control_c, 0, 64, 108
1, 114690, Control_c, 0, 64, 112
1, 114705, Control_c, 0, 64, 116
1, 114720, Control_c, 0, 64, 117
1, 114734, Control_c, 0, 64, 117
1, 114765, Control_c, 0, 64, 117
1, 114779, Control_c, 0, 64, 116
1, 114794, Control_c, 0, 64, 105
1, 114809, Control_c, 0, 64, 89
1, 114824, Note_off_c, 0, 73, 55
1, 114824, Control_c, 0, 64, 73
1, 114833, Note_on_c, 0, 47, 39
1, 114835, Note_on_c, 0, 74, 58
1, 114839, Control_c, 0, 64, 47
1, 114854, Control_c, 0, 64, 0
1, 114863, Note_off_c, 0, 50, 49
1, 114913, Control_c, 0, 64, 62
1, 114924, Note_off_c, 0, 54, 45
1, 114928, Control_c, 0, 64, 71
1, 114942, Note_off_c, 0, 47, 59
1, 114943, Control_c, 0, 64, 81
1, 114958, Control_c, 0, 64, 89
1, 114972, Control_c, 0, 64, 94
1, 114987, Control_c, 0, 64, 96
1, 114996, Note_off_c, 0, 74, 60
1, 115002, Control_c, 0, 64, 98
1, 115014, Note_on_c, 0, 71, 61
1, 115017, Control_c, 0, 64, 102
1, 115032, Control_c, 0, 64, 106
1, 115046, Control_c, 0, 64, 109
1, 115061, Control_c, 0, 64, 112
1, 115135, Control_c, 0, 64, 111
1, 115150, Control_c, 0, 64, 108
1, 115165, Control_c, 0, 64, 104
1, 115187, Control_c, 0, 64, 97
1, 115197, Note_off_c, 0, 71, 59
1, 115202, Control_c, 0, 64, 87
1, 115217, Control_c, 0, 64, 76
1, 115223, Note_on_c, 0, 69, 48
1, 115226, Note_on_c, 0, 54, 32
1, 115232, Control_c, 0, 64, 67
1, 115238, Note_on_c, 0, 57, 31
1, 115239, Note_on_c, 0, 49, 34
1, 115247, Control_c, 0, 64, 57
1, 115261, Control_c, 0, 64, 0
1, 115417, Note_off_c, 0, 69, 59
1, 115435, Note_on_c, 0, 66, 51
1, 115617, Note_off_c, 0, 57, 40
1, 115634, Note_on_c, 0, 56, 41
1, 115662, Control_c, 0, 64, 40
1, 115676, Control_c, 0, 64, 65
1, 115691, Control_c, 0, 64, 73
1, 115694, Note_off_c, 0, 54, 36
1, 115706, Control_c, 0, 64, 78
1, 115721, Control_c, 0, 64, 83
1, 115736, Control_c, 0, 64, 86
1, 115738, Note_off_c, 0, 56, 62
1, 115751, Control_c, 0, 64, 89
1, 115766, Control_c, 0, 64, 93
1, 115781, Control_c, 0, 64, 96
1, 115784, Note_off_c, 0, 49, 41
1, 115795, Control_c, 0, 64, 98
1, 115807, Note_off_c, 0, 66, 53
1, 115810, Control_c, 0, 64, 99
1, 115810, Control_c, 0, 67, 8
1, 115825, Control_c, 0, 64, 100
1, 115825, Control_c, 0, 67, 8
1, 115828, Note_on_c, 0, 65, 51
1, 115840, Control_c, 0, 67, 10
1, 115855, Control_c, 0, 67, 13
1, 115869, Control_c, 0, 67, 16
1, 115884, Control_c, 0, 67, 18
1, 115899, Control_c, 0, 67, 20
1, 115914, Control_c, 0, 67, 23
1, 115936, Control_c, 0, 67, 26
1, 115951, Control_c, 0, 64, 99
1, 115951, Control_c, 0, 67, 28
1, 115966, Control_c, 0, 67, 30
1, 115980, Control_c, 0, 64, 98
1, 115980, Control_c, 0, 67, 32
1, 115995, Control_c, 0, 64, 95
1, 115995, Control_c, 0, 67, 33
1, 116010, Control_c, 0, 64, 87
1, 116010, Control_c, 0, 67, 34
1, 116025, Control_c, 0, 64, 75
1, 116025, Control_c, 0, 67, 35
1, 116027, Note_off_c, 0, 65, 61
1, 116039, Control_c, 0, 64, 63
1, 116039, Control_c, 0, 67, 35
1, 116052, Note_on_c, 0, 50, 33
1, 116052, Note_on_c, 0, 54, 35
1, 116054, Control_c, 0, 64, 0
1, 116054, Control_c, 0, 67, 36
1, 116065, Note_on_c, 0, 66, 44
1, 116069, Control_c, 0, 67, 38
1, 116083, Control_c, 0, 67, 42
1, 116098, Control_c, 0, 64, 57
1, 116098, Control_c, 0, 67, 50
1, 116113, Control_c, 0, 64, 69
1, 116113, Control_c, 0, 67, 58
1, 116127, Control_c, 0, 64, 75
1, 116127, Control_c, 0, 67, 66
1, 116142, Control_c, 0, 64, 82
1, 116142, Control_c, 0, 67, 75
1, 116157, Control_c, 0, 64, 87
1, 116157, Control_c, 0, 67, 85
1, 116172, Control_c, 0, 64, 90
1, 116172, Control_c, 0, 67, 95
1, 116187, Control_c, 0, 64, 92
1, 116187, Control_c, 0, 67, 109
1, 116201, Control_c, 0, 64, 93
1, 116201, Control_c, 0, 67, 123
1, 116213, Note_off_c, 0, 66, 61
1, 116216, Control_c, 0, 64, 94
1, 116216, Control_c, 0, 67, 127
1, 116231, Control_c, 0, 64, 94
1, 116246, Control_c, 0, 64, 95
1, 116258, Note_on_c, 0, 61, 57
1, 116292, Note_off_c, 0, 61, 62
1, 116366, Control_c, 0, 64, 94
1, 116380, Control_c, 0, 64, 93
1, 116395, Control_c, 0, 64, 90
1, 116410, Control_c, 0, 64, 84
1, 116421, Note_on_c, 0, 64, 50
1, 116425, Control_c, 0, 64, 75
1, 116440, Control_c, 0, 64, 65
1, 116443, Note_off_c, 0, 50, 48
1, 116454, Control_c, 0, 64, 47
1, 116455, Note_on_c, 0, 47, 33
1, 116463, Note_off_c, 0, 64, 60
1, 116466, Note_on_c, 0, 62, 44
1, 116469, Control_c, 0, 64, 0
1, 116660, Note_off_c, 0, 62, 57
1, 116686, Note_on_c, 0, 61, 53
1, 116744, Note_off_c, 0, 61, 58
1, 116767, Note_on_c, 0, 59, 51
1, 116827, Note_off_c, 0, 59, 56
1, 116840, Note_off_c, 0, 54, 49
1, 116845, Note_off_c, 0, 47, 44
1, 116866, Note_on_c, 0, 49, 34
1, 116878, Note_on_c, 0, 57, 38
1, 117095, Note_off_c, 0, 57, 56
1, 117113, Note_on_c, 0, 54, 41
1, 117352, Note_on_c, 0, 37, 32
1, 117360, Note_off_c, 0, 49, 48
1, 117599, Note_off_c, 0, 54, 53
1, 117632, Note_on_c, 0, 53, 33
1, 117670, Control_c, 0, 64, 14
1, 117685, Control_c, 0, 64, 59
1, 117700, Control_c, 0, 64, 67
1, 117715, Control_c, 0, 64, 71
1, 117729, Control_c, 0, 64, 76
1, 117744, Control_c, 0, 64, 81
1, 117759, Control_c, 0, 64, 86
1, 117773, Control_c, 0, 64, 92
1, 117778, Note_off_c, 0, 53, 53
1, 117788, Control_c, 0, 64, 97
1, 117803, Control_c, 0, 64, 100
1, 117818, Control_c, 0, 64, 102
1, 117833, Control_c, 0, 64, 103
1, 117837, Note_off_c, 0, 37, 39
1, 117847, Control_c, 0, 64, 104
1, 117906, Control_c, 0, 64, 103
1, 117952, Control_c, 0, 64, 102
1, 117967, Control_c, 0, 64, 100
1, 117982, Note_on_c, 0, 42, 29
1, 117982, Control_c, 0, 64, 96
1, 117996, Control_c, 0, 64, 90
1, 117999, Note_on_c, 0, 54, 34
1, 118011, Control_c, 0, 64, 79
1, 118026, Control_c, 0, 64, 70
1, 118041, Control_c, 0, 64, 63
1, 118056, Control_c, 0, 64, 47
1, 118070, Control_c, 0, 64, 32
1, 118085, Control_c, 0, 64, 31
1, 118115, Control_c, 0, 64, 29
1, 118130, Control_c, 0, 64, 21
1, 118145, Control_c, 0, 64, 0
1, 118196, Control_c, 0, 64, 11
1, 118211, Control_c, 0, 64, 14
1, 118226, Control_c, 0, 64, 21
1, 118241, Control_c, 0, 64, 26
1, 118256, Control_c, 0, 64, 29
1, 118257, Note_on_c, 0, 59, 30
1, 118270, Control_c, 0, 64, 35
1, 118285, Control_c, 0, 64, 47
1, 118300, Note_off_c, 0, 54, 45
1, 118300, Control_c, 0, 64, 61
1, 118315, Control_c, 0, 64, 67
1, 118329, Control_c, 0, 64, 70
1, 118344, Control_c, 0, 64, 72
1, 118359, Control_c, 0, 64, 73
1, 118374, Control_c, 0, 64, 74
1, 118389, Control_c, 0, 64, 75
1, 118404, Control_c, 0, 64, 76
1, 118419, Control_c, 0, 64, 75
1, 118434, Control_c, 0, 64, 73
1, 118449, Control_c, 0, 64, 67
1, 118464, Control_c, 0, 64, 59
1, 118476, Note_off_c, 0, 59, 43
1, 118478, Control_c, 0, 64, 26
1, 118480, Note_on_c, 0, 58, 39
1, 118493, Control_c, 0, 64, 42
1, 118508, Control_c, 0, 64, 62
1, 118522, Control_c, 0, 64, 68
1, 118537, Control_c, 0, 64, 74
1, 118552, Control_c, 0, 64, 78
1, 118567, Control_c, 0, 64, 81
1, 118582, Control_c, 0, 64, 84
1, 118596, Control_c, 0, 64, 86
1, 118611, Control_c, 0, 64, 89
1, 118626, Control_c, 0, 64, 92
1, 118641, Control_c, 0, 64, 95
1, 118656, Control_c, 0, 64, 97
1, 118670, Control_c, 0, 64, 99
1, 118681, Note_on_c, 0, 62, 47
1, 118685, Control_c, 0, 64, 101
1, 118691, Note_off_c, 0, 58, 34
1, 118700, Control_c, 0, 64, 103
1, 118714, Control_c, 0, 64, 106
1, 118729, Control_c, 0, 64, 109
1, 118735, Note_off_c, 0, 62, 58
1, 118744, Note_off_c, 0, 42, 42
1, 118746, Control_c, 0, 64, 110
1, 118761, Control_c, 0, 64, 111
1, 118775, Control_c, 0, 64, 114
1, 118790, Control_c, 0, 64, 118
1, 118805, Control_c, 0, 64, 123
1, 118819, Control_c, 0, 64, 126
1, 118863, Note_on_c, 0, 61, 59
1, 118879, Control_c, 0, 64, 112
1, 118893, Control_c, 0, 64, 96
1, 118908, Control_c, 0, 64, 79
1, 118931, Control_c, 0, 64, 66
1, 118945, Control_c, 0, 64, 47
1, 118960, Control_c, 0, 64, 44
1, 118975, Control_c, 0, 64, 62
1, 118990, Control_c, 0, 64, 69
1, 119005, Control_c, 0, 64, 74
1, 119019, Control_c, 0, 64, 77
1, 119034, Control_c, 0, 64, 78
1, 119049, Control_c, 0, 64, 78
1, 119072, Note_on_c, 0, 67, 56
1, 119079, Control_c, 0, 64, 78
1, 119084, Note_off_c, 0, 61, 53
1, 119108, Control_c, 0, 64, 77
1, 119123, Control_c, 0, 64, 77
1, 119138, Control_c, 0, 64, 75
1, 119152, Control_c, 0, 64, 71
1, 119167, Control_c, 0, 64, 67
1, 119182, Control_c, 0, 64, 64
1, 119197, Control_c, 0, 64, 60
1, 119212, Control_c, 0, 64, 54
1, 119227, Control_c, 0, 64, 47
1, 119242, Control_c, 0, 64, 0
1, 119253, Note_off_c, 0, 67, 58
1, 119256, Note_on_c, 0, 66, 61
1, 119443, Note_on_c, 0, 71, 64
1, 119444, Note_off_c, 0, 66, 58
1, 119623, Note_off_c, 0, 71, 63
1, 119641, Note_on_c, 0, 70, 68
1, 119820, Note_off_c, 0, 70, 57
1, 119838, Note_on_c, 0, 74, 72
1, 119887, Control_c, 0, 67, 118
1, 119902, Control_c, 0, 67, 101
1, 119916, Control_c, 0, 67, 82
1, 119931, Control_c, 0, 67, 63
1, 119946, Control_c, 0, 67, 46
1, 119961, Control_c, 0, 67, 30
1, 119975, Control_c, 0, 67, 13
1, 119990, Control_c, 0, 67, 0
1, 120017, Note_off_c, 0, 74, 59
1, 120023, Note_on_c, 0, 73, 70
1, 120223, Note_on_c, 0, 78, 68
1, 120227, Note_off_c, 0, 73, 57
1, 120432, Note_on_c, 0, 76, 71
1, 120448, Note_off_c, 0, 78, 56
1, 120631, Note_on_c, 0, 74, 70
1, 120661, Note_off_c, 0, 76, 56
1, 120818, Note_on_c, 0, 73, 68
1, 120821, Note_off_c, 0, 74, 59
1, 121012, Note_off_c, 0, 73, 58
1, 121042, Note_on_c, 0, 71, 47
1, 121279, Note_on_c, 0, 42, 27
1, 121281, Control_c, 0, 64, 27
1, 121282, Note_on_c, 0, 66, 49
1, 121282, Note_off_c, 0, 71, 52
1, 121295, Control_c, 0, 64, 44
1, 121310, Control_c, 0, 64, 54
1, 121325, Control_c, 0, 64, 61
1, 121340, Control_c, 0, 64, 64
1, 121355, Control_c, 0, 64, 66
1, 121370, Control_c, 0, 64, 68
1, 121385, Control_c, 0, 64, 69
1, 121400, Control_c, 0, 64, 71
1, 121414, Control_c, 0, 64, 71
1, 121474, Control_c, 0, 64, 71
1, 121488, Control_c, 0, 64, 70
1, 121503, Control_c, 0, 64, 70
1, 121518, Control_c, 0, 64, 69
1, 121537, Note_on_c, 0, 47, 30
1, 121547, Control_c, 0, 64, 69
1, 121548, Note_off_c, 0, 42, 43
1, 121562, Control_c, 0, 64, 68
1, 121577, Control_c, 0, 64, 68
1, 121592, Control_c, 0, 64, 67
1, 121607, Control_c, 0, 64, 67
1, 121651, Control_c, 0, 64, 66
1, 121666, Control_c, 0, 64, 65
1, 121681, Control_c, 0, 64, 64
1, 121710, Control_c, 0, 64, 64
1, 121716, Note_on_c, 0, 46, 44
1, 121725, Control_c, 0, 64, 63
1, 121740, Control_c, 0, 64, 61
1, 121754, Control_c, 0, 64, 59
1, 121757, Note_off_c, 0, 47, 36
1, 121769, Control_c, 0, 64, 59
1, 121784, Control_c, 0, 64, 58
1, 121799, Control_c, 0, 64, 56
1, 121814, Control_c, 0, 64, 55
1, 121829, Control_c, 0, 64, 56
1, 121844, Control_c, 0, 64, 58
1, 121859, Control_c, 0, 64, 59
1, 121874, Control_c, 0, 64, 60
1, 121896, Note_off_c, 0, 46, 49
1, 121899, Note_on_c, 0, 50, 54
1, 121903, Control_c, 0, 64, 61
1, 121925, Control_c, 0, 64, 61
1, 122000, Control_c, 0, 64, 61
1, 122044, Control_c, 0, 64, 60
1, 122059, Control_c, 0, 64, 59
1, 122074, Control_c, 0, 64, 59
1, 122084, Note_off_c, 0, 50, 64
1, 122089, Control_c, 0, 64, 58
1, 122091, Note_on_c, 0, 49, 66
1, 122104, Control_c, 0, 64, 56
1, 122118, Control_c, 0, 64, 53
1, 122133, Control_c, 0, 64, 48
1, 122148, Control_c, 0, 64, 45
1, 122163, Control_c, 0, 64, 42
1, 122178, Control_c, 0, 64, 39
1, 122193, Control_c, 0, 64, 37
1, 122208, Control_c, 0, 64, 36
1, 122237, Control_c, 0, 64, 36
1, 122252, Control_c, 0, 64, 34
1, 122255, Note_off_c, 0, 49, 58
1, 122267, Control_c, 0, 64, 33
1, 122282, Control_c, 0, 64, 31
1, 122288, Note_on_c, 0, 55, 63
1, 122297, Control_c, 0, 64, 21
1, 122311, Control_c, 0, 64, 0
1, 122453, Note_off_c, 0, 55, 64
1, 122457, Note_on_c, 0, 54, 67
1, 122555, Note_off_c, 0, 66, 59
1, 122650, Note_off_c, 0, 54, 63
1, 122665, Note_on_c, 0, 59, 70
1, 122849, Note_on_c, 0, 58, 65
1, 122851, Note_off_c, 0, 59, 60
1, 123026, Note_off_c, 0, 58, 56
1, 123051, Note_on_c, 0, 62, 48
1, 123216, Note_off_c, 0, 62, 59
1, 123235, Note_on_c, 0, 61, 44
1, 123427, Note_on_c, 0, 66, 41
1, 123455, Note_off_c, 0, 61, 35
1, 123594, Note_off_c, 0, 66, 58
1, 123623, Note_on_c, 0, 64, 44
1, 123749, Control_c, 0, 64, 56
1, 123764, Control_c, 0, 64, 65
1, 123779, Control_c, 0, 64, 69
1, 123794, Control_c, 0, 64, 73
1, 123806, Note_off_c, 0, 64, 55
1, 123808, Control_c, 0, 64, 75
1, 123823, Control_c, 0, 64, 77
1, 123835, Note_on_c, 0, 62, 28
1, 123838, Control_c, 0, 64, 79
1, 123853, Control_c, 0, 64, 80
1, 123868, Control_c, 0, 64, 82
1, 123883, Control_c, 0, 64, 83
1, 123898, Control_c, 0, 64, 83
1, 123972, Control_c, 0, 64, 83
1, 123987, Control_c, 0, 64, 82
1, 124002, Control_c, 0, 64, 79
1, 124016, Control_c, 0, 64, 74
1, 124023, Note_on_c, 0, 74, 47
1, 124031, Control_c, 0, 64, 68
1, 124032, Note_on_c, 0, 61, 38
1, 124046, Control_c, 0, 64, 59
1, 124051, Note_off_c, 0, 62, 37
1, 124061, Control_c, 0, 64, 0
1, 124105, Control_c, 0, 64, 54
1, 124120, Control_c, 0, 64, 66
1, 124134, Control_c, 0, 64, 72
1, 124149, Control_c, 0, 64, 80
1, 124172, Control_c, 0, 64, 87
1, 124187, Control_c, 0, 64, 94
1, 124202, Control_c, 0, 64, 99
1, 124216, Control_c, 0, 64, 106
1, 124231, Control_c, 0, 64, 117
1, 124233, Note_on_c, 0, 59, 34
1, 124246, Control_c, 0, 64, 127
1, 124249, Note_off_c, 0, 61, 34
1, 124269, Note_off_c, 0, 59, 51
1, 124408, Note_off_c, 0, 74, 30
1, 124425, Control_c, 0, 64, 114
1, 124440, Control_c, 0, 64, 99
1, 124455, Control_c, 0, 64, 86
1, 124462, Note_on_c, 0, 76, 44
1, 124470, Control_c, 0, 64, 73
1, 124479, Note_on_c, 0, 64, 31
1, 124482, Note_on_c, 0, 58, 21
1, 124485, Control_c, 0, 64, 64
1, 124500, Control_c, 0, 64, 24
1, 124514, Control_c, 0, 64, 0
1, 124573, Control_c, 0, 64, 59
1, 124588, Control_c, 0, 64, 68
1, 124603, Control_c, 0, 64, 75
1, 124618, Control_c, 0, 64, 84
1, 124632, Control_c, 0, 64, 92
1, 124635, Note_off_c, 0, 58, 45
1, 124643, Note_off_c, 0, 64, 42
1, 124647, Note_off_c, 0, 76, 49
1, 124647, Control_c, 0, 64, 95
1, 124662, Control_c, 0, 64, 96
1, 124669, Note_on_c, 0, 74, 51
1, 124677, Control_c, 0, 64, 98
1, 124691, Control_c, 0, 64, 99
1, 124706, Control_c, 0, 64, 100
1, 124780, Control_c, 0, 64, 99
1, 124795, Control_c, 0, 64, 98
1, 124810, Control_c, 0, 64, 95
1, 124825, Control_c, 0, 64, 91
1, 124834, Note_off_c, 0, 74, 49
1, 124836, Note_on_c, 0, 73, 54
1, 124840, Control_c, 0, 64, 83
1, 124854, Note_on_c, 0, 59, 21
1, 124855, Control_c, 0, 64, 72
1, 124870, Control_c, 0, 64, 62
1, 124870, Note_on_c, 0, 64, 25
1, 124884, Control_c, 0, 64, 0
1, 124951, Control_c, 0, 64, 14
1, 124965, Control_c, 0, 64, 63
1, 124980, Control_c, 0, 64, 69
1, 124995, Control_c, 0, 64, 75
1, 125010, Control_c, 0, 64, 83
1, 125021, Note_off_c, 0, 64, 43
1, 125025, Control_c, 0, 64, 89
1, 125032, Note_on_c, 0, 71, 55
1, 125034, Note_off_c, 0, 73, 56
1, 125039, Control_c, 0, 64, 91
1, 125039, Note_off_c, 0, 59, 42
1, 125054, Control_c, 0, 64, 93
1, 125069, Control_c, 0, 64, 95
1, 125084, Control_c, 0, 64, 96
1, 125098, Control_c, 0, 64, 97
1, 125113, Control_c, 0, 64, 98
1, 125144, Control_c, 0, 64, 97
1, 125203, Control_c, 0, 64, 96
1, 125218, Control_c, 0, 64, 93
1, 125222, Note_off_c, 0, 71, 55
1, 125232, Note_on_c, 0, 76, 55
1, 125233, Control_c, 0, 64, 84
1, 125242, Note_on_c, 0, 64, 27
1, 125245, Note_on_c, 0, 58, 31
1, 125248, Control_c, 0, 64, 74
1, 125262, Control_c, 0, 64, 63
1, 125277, Control_c, 0, 64, 0
1, 125321, Control_c, 0, 64, 27
1, 125336, Control_c, 0, 64, 63
1, 125351, Control_c, 0, 64, 69
1, 125366, Control_c, 0, 64, 76
1, 125380, Control_c, 0, 64, 83
1, 125395, Control_c, 0, 64, 88
1, 125406, Note_on_c, 0, 74, 69
1, 125406, Note_off_c, 0, 58, 42
1, 125410, Control_c, 0, 64, 91
1, 125411, Note_off_c, 0, 64, 40
1, 125425, Control_c, 0, 64, 93
1, 125440, Control_c, 0, 64, 96
1, 125451, Note_off_c, 0, 76, 36
1, 125454, Control_c, 0, 64, 98
1, 125469, Control_c, 0, 64, 100
1, 125484, Control_c, 0, 64, 102
1, 125499, Control_c, 0, 64, 103
1, 125593, Note_on_c, 0, 73, 71
1, 125603, Control_c, 0, 64, 101
1, 125603, Note_on_c, 0, 64, 42
1, 125609, Note_on_c, 0, 59, 44
1, 125618, Control_c, 0, 64, 93
1, 125619, Note_off_c, 0, 74, 54
1, 125633, Control_c, 0, 64, 80
1, 125648, Control_c, 0, 64, 68
1, 125669, Control_c, 0, 64, 48
1, 125684, Control_c, 0, 64, 0
1, 125713, Control_c, 0, 64, 52
1, 125728, Control_c, 0, 64, 64
1, 125743, Control_c, 0, 64, 70
1, 125758, Control_c, 0, 64, 76
1, 125773, Control_c, 0, 64, 80
1, 125788, Control_c, 0, 64, 81
1, 125790, Note_on_c, 0, 71, 68
1, 125794, Note_off_c, 0, 64, 50
1, 125803, Control_c, 0, 64, 83
1, 125804, Note_off_c, 0, 73, 54
1, 125810, Note_off_c, 0, 59, 43
1, 125817, Control_c, 0, 64, 84
1, 125832, Control_c, 0, 64, 86
1, 125847, Control_c, 0, 64, 88
1, 125862, Control_c, 0, 64, 90
1, 125877, Control_c, 0, 64, 90
1, 125981, Control_c, 0, 64, 88
1, 125993, Note_on_c, 0, 76, 68
1, 125996, Note_on_c, 0, 58, 41
1, 125996, Control_c, 0, 64, 81
1, 125998, Note_on_c, 0, 64, 38
1, 126003, Note_off_c, 0, 71, 54
1, 126011, Control_c, 0, 64, 71
1, 126026, Control_c, 0, 64, 60
1, 126041, Control_c, 0, 64, 0
1, 126085, Control_c, 0, 64, 51
1, 126100, Control_c, 0, 64, 64
1, 126115, Control_c, 0, 64, 70
1, 126129, Control_c, 0, 64, 77
1, 126144, Control_c, 0, 64, 81
1, 126159, Control_c, 0, 64, 83
1, 126166, Note_off_c, 0, 58, 37
1, 126174, Control_c, 0, 64, 85
1, 126176, Note_on_c, 0, 74, 75
1, 126189, Control_c, 0, 64, 87
1, 126192, Note_off_c, 0, 64, 40
1, 126203, Control_c, 0, 64, 89
1, 126218, Control_c, 0, 64, 92
1, 126223, Note_off_c, 0, 76, 56
1, 126233, Control_c, 0, 64, 95
1, 126248, Control_c, 0, 64, 97
1, 126263, Control_c, 0, 64, 98
1, 126277, Control_c, 0, 64, 99
1, 126351, Note_on_c, 0, 73, 74
1, 126351, Control_c, 0, 64, 98
1, 126362, Note_on_c, 0, 59, 48
1, 126366, Control_c, 0, 64, 91
1, 126370, Note_on_c, 0, 64, 44
1, 126372, Note_off_c, 0, 74, 59
1, 126381, Control_c, 0, 64, 76
1, 126396, Control_c, 0, 64, 63
1, 126418, Control_c, 0, 64, 0
1, 126462, Control_c, 0, 64, 17
1, 126477, Control_c, 0, 64, 62
1, 126492, Control_c, 0, 64, 69
1, 126507, Control_c, 0, 64, 76
1, 126522, Control_c, 0, 64, 82
1, 126536, Note_off_c, 0, 64, 55
1, 126536, Control_c, 0, 64, 85
1, 126542, Note_on_c, 0, 71, 71
1, 126542, Note_off_c, 0, 59, 52
1, 126551, Control_c, 0, 64, 86
1, 126553, Note_off_c, 0, 73, 56
1, 126566, Control_c, 0, 64, 90
1, 126581, Control_c, 0, 64, 93
1, 126596, Control_c, 0, 64, 96
1, 126610, Control_c, 0, 64, 99
1, 126625, Control_c, 0, 64, 102
1, 126640, Control_c, 0, 64, 103
1, 126655, Control_c, 0, 64, 104
1, 126700, Control_c, 0, 64, 103
1, 126715, Control_c, 0, 64, 102
1, 126728, Note_on_c, 0, 76, 77
1, 126730, Control_c, 0, 64, 93
1, 126739, Note_on_c, 0, 58, 49
1, 126741, Note_off_c, 0, 71, 55
1, 126744, Note_on_c, 0, 64, 38
1, 126745, Control_c, 0, 64, 76
1, 126759, Control_c, 0, 64, 42
1, 126774, Control_c, 0, 64, 0
1, 126819, Control_c, 0, 64, 48
1, 126834, Control_c, 0, 64, 65
1, 126849, Control_c, 0, 64, 73
1, 126864, Control_c, 0, 64, 82
1, 126878, Control_c, 0, 64, 89
1, 126893, Control_c, 0, 64, 92
1, 126902, Note_on_c, 0, 74, 76
1, 126908, Control_c, 0, 64, 94
1, 126911, Note_off_c, 0, 76, 56
1, 126914, Note_off_c, 0, 64, 33
1, 126918, Note_off_c, 0, 58, 28
1, 126923, Control_c, 0, 64, 98
1, 126938, Control_c, 0, 64, 102
1, 126952, Control_c, 0, 64, 108
1, 126967, Control_c, 0, 64, 112
1, 126982, Control_c, 0, 64, 116
1, 126997, Control_c, 0, 64, 120
1, 127012, Control_c, 0, 64, 123
1, 127056, Control_c, 0, 64, 122
1, 127063, Note_off_c, 0, 74, 63
1, 127071, Control_c, 0, 64, 113
1, 127085, Control_c, 0, 64, 96
1, 127090, Note_on_c, 0, 64, 47
1, 127093, Note_on_c, 0, 55, 47
1, 127093, Note_on_c, 0, 73, 74
1, 127100, Control_c, 0, 64, 78
1, 127115, Control_c, 0, 64, 64
1, 127130, Control_c, 0, 64, 27
1, 127145, Control_c, 0, 64, 43
1, 127167, Control_c, 0, 64, 63
1, 127182, Control_c, 0, 64, 70
1, 127195, Note_off_c, 0, 55, 59
1, 127197, Control_c, 0, 64, 77
1, 127210, Note_off_c, 0, 64, 57
1, 127212, Control_c, 0, 64, 82
1, 127227, Control_c, 0, 64, 85
1, 127241, Control_c, 0, 64, 88
1, 127256, Control_c, 0, 64, 91
1, 127266, Note_off_c, 0, 73, 60
1, 127272, Control_c, 0, 64, 95
1, 127282, Note_on_c, 0, 83, 84
1, 127287, Control_c, 0, 64, 98
1, 127301, Control_c, 0, 64, 101
1, 127316, Control_c, 0, 64, 104
1, 127331, Control_c, 0, 64, 105
1, 127346, Control_c, 0, 64, 105
1, 127493, Control_c, 0, 64, 104
1, 127508, Control_c, 0, 64, 100
1, 127521, Note_on_c, 0, 54, 48
1, 127521, Note_on_c, 0, 82, 82
1, 127524, Control_c, 0, 64, 90
1, 127539, Control_c, 0, 64, 75
1, 127551, Note_off_c, 0, 83, 63
1, 127554, Control_c, 0, 64, 59
1, 127569, Control_c, 0, 64, 0
1, 127613, Control_c, 0, 64, 60
1, 127628, Control_c, 0, 64, 68
1, 127643, Control_c, 0, 64, 76
1, 127657, Control_c, 0, 64, 82
1, 127672, Control_c, 0, 64, 87
1, 127687, Control_c, 0, 64, 90
1, 127701, Control_c, 0, 64, 95
1, 127716, Control_c, 0, 64, 98
1, 127731, Control_c, 0, 64, 101
1, 127745, Note_on_c, 0, 79, 76
1, 127746, Control_c, 0, 64, 104
1, 127761, Control_c, 0, 64, 106
1, 127769, Note_off_c, 0, 82, 40
1, 127776, Control_c, 0, 64, 108
1, 127791, Control_c, 0, 64, 109
1, 127806, Control_c, 0, 64, 109
1, 127810, Note_off_c, 0, 54, 34
1, 127916, Control_c, 0, 64, 109
1, 127929, Note_on_c, 0, 78, 80
1, 127931, Control_c, 0, 64, 101
1, 127941, Note_on_c, 0, 58, 51
1, 127946, Control_c, 0, 64, 86
1, 127950, Note_off_c, 0, 79, 57
1, 127961, Control_c, 0, 64, 71
1, 127976, Control_c, 0, 64, 55
1, 127991, Control_c, 0, 64, 44
1, 128005, Control_c, 0, 64, 62
1, 128020, Control_c, 0, 64, 68
1, 128035, Control_c, 0, 64, 76
1, 128050, Control_c, 0, 64, 82
1, 128065, Control_c, 0, 64, 86
1, 128080, Control_c, 0, 64, 88
1, 128095, Control_c, 0, 64, 88
1, 128097, Note_off_c, 0, 78, 61
1, 128104, Note_on_c, 0, 76, 76
1, 128196, Note_off_c, 0, 58, 34
1, 128227, Control_c, 0, 64, 86
1, 128242, Control_c, 0, 64, 81
1, 128257, Control_c, 0, 64, 71
1, 128268, Note_off_c, 0, 76, 60
1, 128272, Control_c, 0, 64, 43
1, 128284, Note_on_c, 0, 59, 44
1, 128287, Control_c, 0, 64, 0
1, 128288, Note_on_c, 0, 75, 67
1, 128362, Control_c, 0, 64, 63
1, 128377, Control_c, 0, 64, 70
1, 128392, Control_c, 0, 64, 73
1, 128406, Control_c, 0, 64, 73
1, 128432, Note_off_c, 0, 59, 53
1, 128433, Note_off_c, 0, 75, 59
1, 128436, Control_c, 0, 64, 73
1, 128451, Control_c, 0, 64, 72
1, 128466, Control_c, 0, 64, 70
1, 128468, Note_on_c, 0, 72, 60
1, 128480, Control_c, 0, 64, 68
1, 128495, Control_c, 0, 64, 66
1, 128510, Control_c, 0, 64, 64
1, 128524, Control_c, 0, 64, 63
1, 128539, Control_c, 0, 64, 63
1, 128569, Control_c, 0, 64, 61
1, 128584, Control_c, 0, 64, 58
1, 128599, Control_c, 0, 64, 51
1, 128614, Control_c, 0, 64, 34
1, 128628, Control_c, 0, 64, 0
1, 128632, Note_on_c, 0, 51, 56
1, 128664, Note_on_c, 0, 71, 52
1, 128695, Control_c, 0, 64, 53
1, 128710, Control_c, 0, 64, 65
1, 128712, Note_off_c, 0, 71, 0
1, 128712, Note_on_c, 0, 71, 14
1, 128725, Control_c, 0, 64, 69
1, 128739, Control_c, 0, 64, 70
1, 128754, Control_c, 0, 64, 71
1, 128760, Note_off_c, 0, 72, 21
1, 128819, Note_off_c, 0, 71, 59
1, 128827, Control_c, 0, 64, 70
1, 128832, Note_on_c, 0, 69, 56
1, 128842, Control_c, 0, 64, 70
1, 128856, Control_c, 0, 64, 69
1, 128871, Control_c, 0, 64, 69
1, 128886, Control_c, 0, 64, 68
1, 128901, Control_c, 0, 64, 67
1, 128916, Control_c, 0, 64, 65
1, 128930, Control_c, 0, 64, 62
1, 128945, Control_c, 0, 64, 54
1, 128960, Control_c, 0, 64, 31
1, 128970, Note_off_c, 0, 51, 51
1, 128975, Control_c, 0, 64, 0
1, 128997, Note_off_c, 0, 69, 61
1, 129001, Note_on_c, 0, 52, 45
1, 129031, Note_on_c, 0, 67, 46
1, 129034, Control_c, 0, 64, 40
1, 129049, Control_c, 0, 64, 59
1, 129064, Control_c, 0, 64, 56
1, 129079, Control_c, 0, 64, 50
1, 129093, Control_c, 0, 64, 45
1, 129108, Control_c, 0, 64, 39
1, 129124, Control_c, 0, 64, 0
1, 129147, Note_off_c, 0, 52, 61
1, 129196, Note_off_c, 0, 67, 50
1, 129215, Note_on_c, 0, 78, 56
1, 129384, Note_off_c, 0, 78, 54
1, 129391, Control_c, 0, 67, 10
1, 129392, Note_on_c, 0, 76, 56
1, 129397, Note_on_c, 0, 55, 41
1, 129413, Control_c, 0, 67, 16
1, 129427, Control_c, 0, 67, 23
1, 129442, Control_c, 0, 67, 31
1, 129457, Control_c, 0, 67, 38
1, 129472, Control_c, 0, 67, 42
1, 129487, Control_c, 0, 67, 45
1, 129502, Control_c, 0, 67, 47
1, 129517, Control_c, 0, 67, 48
1, 129532, Control_c, 0, 67, 49
1, 129544, Note_off_c, 0, 76, 62
1, 129547, Control_c, 0, 67, 49
1, 129561, Control_c, 0, 67, 50
1, 129574, Note_on_c, 0, 74, 57
1, 129576, Control_c, 0, 67, 51
1, 129591, Control_c, 0, 67, 54
1, 129606, Control_c, 0, 67, 56
1, 129621, Control_c, 0, 67, 60
1, 129635, Control_c, 0, 67, 63
1, 129650, Control_c, 0, 67, 66
1, 129665, Control_c, 0, 67, 70
1, 129679, Control_c, 0, 67, 74
1, 129694, Control_c, 0, 67, 78
1, 129709, Control_c, 0, 67, 82
1, 129724, Control_c, 0, 67, 86
1, 129739, Control_c, 0, 67, 90
1, 129752, Note_off_c, 0, 55, 36
1, 129753, Control_c, 0, 67, 96
1, 129768, Control_c, 0, 67, 99
1, 129770, Note_on_c, 0, 73, 61
1, 129773, Note_on_c, 0, 57, 40
1, 129773, Note_off_c, 0, 74, 59
1, 129783, Control_c, 0, 67, 100
1, 129813, Control_c, 0, 67, 94
1, 129827, Control_c, 0, 67, 88
1, 129842, Control_c, 0, 67, 81
1, 129847, Note_off_c, 0, 57, 50
1, 129857, Control_c, 0, 67, 68
1, 129871, Control_c, 0, 67, 55
1, 129886, Control_c, 0, 67, 44
1, 129901, Control_c, 0, 67, 34
1, 129916, Control_c, 0, 67, 27
1, 129932, Control_c, 0, 67, 19
1, 129946, Note_on_c, 0, 71, 61
1, 129947, Control_c, 0, 67, 12
1, 129951, Note_off_c, 0, 73, 56
1, 129962, Control_c, 0, 67, 0
1, 130036, Control_c, 0, 64, 14
1, 130050, Control_c, 0, 64, 44
1, 130065, Control_c, 0, 64, 56
1, 130080, Control_c, 0, 64, 60
1, 130095, Control_c, 0, 64, 61
1, 130110, Control_c, 0, 64, 63
1, 130125, Control_c, 0, 64, 64
1, 130140, Control_c, 0, 64, 65
1, 130152, Note_on_c, 0, 69, 53
1, 130162, Control_c, 0, 64, 66
1, 130166, Note_off_c, 0, 71, 47
1, 130176, Control_c, 0, 64, 67
1, 130188, Note_on_c, 0, 45, 27
1, 130191, Control_c, 0, 64, 68
1, 130206, Control_c, 0, 64, 70
1, 130221, Control_c, 0, 64, 71
1, 130236, Control_c, 0, 64, 73
1, 130249, Note_off_c, 0, 45, 56
1, 130250, Control_c, 0, 64, 75
1, 130266, Control_c, 0, 64, 76
1, 130281, Control_c, 0, 64, 78
1, 130296, Control_c, 0, 64, 79
1, 130310, Control_c, 0, 64, 81
1, 130325, Control_c, 0, 64, 82
1, 130340, Control_c, 0, 64, 84
1, 130354, Note_off_c, 0, 69, 61
1, 130355, Control_c, 0, 64, 85
1, 130360, Note_on_c, 0, 67, 62
1, 130370, Control_c, 0, 64, 86
1, 130384, Control_c, 0, 64, 87
1, 130399, Control_c, 0, 64, 87
1, 130414, Control_c, 0, 64, 88
1, 130577, Control_c, 0, 64, 87
1, 130592, Control_c, 0, 64, 87
1, 130607, Control_c, 0, 64, 86
1, 130617, Note_on_c, 0, 62, 37
1, 130617, Note_on_c, 0, 66, 59
1, 130621, Control_c, 0, 64, 84
1, 130626, Note_off_c, 0, 67, 56
1, 130636, Control_c, 0, 64, 82
1, 130651, Control_c, 0, 64, 75
1, 130666, Control_c, 0, 64, 66
1, 130681, Control_c, 0, 64, 0
1, 130771, Control_c, 0, 64, 54
1, 130786, Control_c, 0, 64, 67
1, 130800, Control_c, 0, 64, 73
1, 130815, Control_c, 0, 64, 77
1, 130830, Control_c, 0, 64, 82
1, 130845, Control_c, 0, 64, 89
1, 130847, Note_on_c, 0, 57, 40
1, 130860, Control_c, 0, 64, 96
1, 130874, Control_c, 0, 64, 104
1, 130889, Control_c, 0, 64, 111
1, 130891, Note_off_c, 0, 62, 35
1, 130912, Control_c, 0, 64, 121
1, 130926, Control_c, 0, 64, 127
1, 131058, Note_on_c, 0, 54, 40
1, 131060, Note_on_c, 0, 74, 77
1, 131132, Note_off_c, 0, 57, 32
1, 131240, Note_off_c, 0, 54, 45
1, 131287, Note_on_c, 0, 50, 32
1, 131347, Note_off_c, 0, 66, 51
1, 131534, Control_c, 0, 64, 108
1, 131541, Note_off_c, 0, 50, 47
1, 131547, Note_on_c, 0, 48, 44
1, 131548, Control_c, 0, 64, 95
1, 131563, Control_c, 0, 64, 82
1, 131578, Control_c, 0, 64, 70
1, 131593, Control_c, 0, 64, 57
1, 131608, Control_c, 0, 64, 24
1, 131622, Control_c, 0, 64, 46
1, 131637, Control_c, 0, 64, 64
1, 131660, Control_c, 0, 64, 70
1, 131674, Control_c, 0, 64, 75
1, 131689, Control_c, 0, 64, 80
1, 131704, Control_c, 0, 64, 84
1, 131719, Control_c, 0, 64, 87
1, 131734, Control_c, 0, 64, 90
1, 131748, Control_c, 0, 64, 93
1, 131763, Control_c, 0, 64, 95
1, 131775, Note_on_c, 0, 69, 64
1, 131778, Control_c, 0, 64, 97
1, 131793, Control_c, 0, 64, 98
1, 131808, Control_c, 0, 64, 99
1, 131822, Control_c, 0, 64, 99
1, 131977, Note_on_c, 0, 67, 73
1, 132029, Note_off_c, 0, 69, 50
1, 132044, Note_off_c, 0, 74, 22
1, 132119, Control_c, 0, 64, 99
1, 132148, Control_c, 0, 64, 98
1, 132155, Note_on_c, 0, 66, 77
1, 132178, Control_c, 0, 64, 98
1, 132185, Note_off_c, 0, 67, 54
1, 132222, Control_c, 0, 64, 97
1, 132237, Control_c, 0, 64, 97
1, 132252, Control_c, 0, 64, 96
1, 132266, Control_c, 0, 64, 96
1, 132281, Control_c, 0, 64, 94
1, 132296, Control_c, 0, 64, 92
1, 132311, Control_c, 0, 64, 90
1, 132327, Control_c, 0, 64, 86
1, 132342, Control_c, 0, 64, 82
1, 132357, Control_c, 0, 64, 77
1, 132364, Note_on_c, 0, 67, 67
1, 132371, Control_c, 0, 64, 73
1, 132386, Control_c, 0, 64, 67
1, 132387, Note_on_c, 0, 59, 44
1, 132408, Note_off_c, 0, 66, 56
1, 132408, Control_c, 0, 64, 57
1, 132423, Control_c, 0, 64, 0
1, 132489, Note_off_c, 0, 48, 41
1, 132512, Control_c, 0, 64, 44
1, 132527, Control_c, 0, 64, 65
1, 132542, Control_c, 0, 64, 72
1, 132557, Control_c, 0, 64, 76
1, 132571, Control_c, 0, 64, 78
1, 132584, Note_on_c, 0, 55, 53
1, 132586, Control_c, 0, 64, 79
1, 132601, Control_c, 0, 64, 80
1, 132616, Control_c, 0, 64, 83
1, 132631, Control_c, 0, 64, 87
1, 132645, Control_c, 0, 64, 90
1, 132660, Control_c, 0, 64, 93
1, 132664, Note_off_c, 0, 59, 32
1, 132675, Control_c, 0, 64, 96
1, 132690, Control_c, 0, 64, 99
1, 132704, Control_c, 0, 64, 101
1, 132719, Control_c, 0, 64, 102
1, 132734, Control_c, 0, 64, 103
1, 132763, Note_on_c, 0, 74, 79
1, 132787, Note_on_c, 0, 50, 48
1, 132822, Note_off_c, 0, 55, 32
1, 132939, Note_off_c, 0, 50, 37
1, 132948, Note_on_c, 0, 47, 47
1, 133005, Note_off_c, 0, 67, 57
1, 133060, Control_c, 0, 64, 102
1, 133075, Control_c, 0, 64, 101
1, 133089, Control_c, 0, 64, 100
1, 133104, Control_c, 0, 64, 98
1, 133120, Control_c, 0, 64, 93
1, 133135, Control_c, 0, 64, 84
1, 133157, Control_c, 0, 64, 73
1, 133159, Note_on_c, 0, 45, 44
1, 133172, Control_c, 0, 64, 60
1, 133187, Control_c, 0, 64, 0
1, 133189, Note_off_c, 0, 47, 43
1, 133246, Control_c, 0, 64, 57
1, 133261, Control_c, 0, 64, 67
1, 133276, Control_c, 0, 64, 73
1, 133291, Control_c, 0, 64, 77
1, 133305, Control_c, 0, 64, 78
1, 133320, Control_c, 0, 64, 79
1, 133335, Control_c, 0, 64, 80
1, 133347, Note_on_c, 0, 72, 71
1, 133350, Control_c, 0, 64, 82
1, 133365, Control_c, 0, 64, 84
1, 133380, Control_c, 0, 64, 85
1, 133395, Control_c, 0, 64, 86
1, 133407, Note_off_c, 0, 74, 57
1, 133409, Control_c, 0, 64, 87
1, 133439, Control_c, 0, 64, 88
1, 133541, Note_on_c, 0, 71, 74
1, 133557, Control_c, 0, 64, 87
1, 133572, Control_c, 0, 64, 82
1, 133583, Note_off_c, 0, 72, 57
1, 133587, Control_c, 0, 64, 74
1, 133601, Control_c, 0, 64, 66
1, 133616, Control_c, 0, 64, 64
1, 133631, Control_c, 0, 64, 66
1, 133645, Control_c, 0, 64, 70
1, 133660, Control_c, 0, 64, 74
1, 133675, Control_c, 0, 64, 77
1, 133690, Control_c, 0, 64, 79
1, 133705, Control_c, 0, 64, 81
1, 133717, Note_on_c, 0, 69, 74
1, 133720, Control_c, 0, 64, 82
1, 133750, Control_c, 0, 64, 82
1, 133753, Note_off_c, 0, 71, 61
1, 133779, Control_c, 0, 64, 83
1, 133803, Note_off_c, 0, 69, 61
1, 133832, Note_off_c, 0, 45, 43
1, 133853, Control_c, 0, 64, 82
1, 133868, Control_c, 0, 64, 81
1, 133883, Control_c, 0, 64, 79
1, 133905, Control_c, 0, 64, 76
1, 133921, Control_c, 0, 64, 71
1, 133923, Note_on_c, 0, 69, 67
1, 133936, Control_c, 0, 64, 67
1, 133946, Note_on_c, 0, 55, 40
1, 133950, Control_c, 0, 64, 64
1, 133965, Control_c, 0, 64, 60
1, 133980, Control_c, 0, 64, 43
1, 133995, Control_c, 0, 64, 0
1, 134125, Note_on_c, 0, 71, 61
1, 134136, Note_on_c, 0, 52, 37
1, 134153, Note_off_c, 0, 69, 58
1, 134247, Control_c, 0, 64, 45
1, 134262, Control_c, 0, 64, 64
1, 134263, Note_off_c, 0, 55, 41
1, 134277, Control_c, 0, 64, 69
1, 134292, Control_c, 0, 64, 72
1, 134307, Control_c, 0, 64, 75
1, 134322, Control_c, 0, 64, 78
1, 134323, Note_on_c, 0, 47, 38
1, 134334, Note_off_c, 0, 52, 39
1, 134337, Control_c, 0, 64, 80
1, 134351, Control_c, 0, 64, 83
1, 134366, Control_c, 0, 64, 85
1, 134381, Control_c, 0, 64, 87
1, 134396, Control_c, 0, 64, 89
1, 134411, Control_c, 0, 64, 90
1, 134425, Control_c, 0, 64, 92
1, 134435, Note_off_c, 0, 47, 32
1, 134440, Control_c, 0, 64, 93
1, 134455, Control_c, 0, 64, 94
1, 134469, Control_c, 0, 64, 94
1, 134509, Note_on_c, 0, 43, 37
1, 134615, Note_off_c, 0, 43, 33
1, 134669, Control_c, 0, 64, 94
1, 134684, Control_c, 0, 64, 93
1, 134699, Control_c, 0, 64, 91
1, 134714, Control_c, 0, 64, 88
1, 134727, Note_on_c, 0, 42, 36
1, 134730, Control_c, 0, 64, 82
1, 134745, Control_c, 0, 64, 72
1, 134760, Control_c, 0, 64, 61
1, 134774, Control_c, 0, 64, 0
1, 134819, Control_c, 0, 64, 19
1, 134834, Control_c, 0, 64, 61
1, 134848, Control_c, 0, 64, 67
1, 134863, Control_c, 0, 64, 70
1, 134878, Control_c, 0, 64, 71
1, 134892, Control_c, 0, 64, 72
1, 134906, Note_on_c, 0, 69, 49
1, 134907, Control_c, 0, 64, 74
1, 134922, Control_c, 0, 64, 76
1, 134937, Control_c, 0, 64, 78
1, 134952, Control_c, 0, 64, 80
1, 134964, Note_off_c, 0, 71, 39
1, 134966, Control_c, 0, 64, 81
1, 134981, Control_c, 0, 64, 82
1, 134996, Control_c, 0, 64, 83
1, 135011, Control_c, 0, 64, 83
1, 135100, Note_on_c, 0, 67, 63
1, 135109, Note_off_c, 0, 69, 61
1, 135130, Control_c, 0, 64, 83
1, 135276, Note_off_c, 0, 42, 41
1, 135279, Note_off_c, 0, 67, 57
1, 135285, Note_on_c, 0, 66, 59
1, 135366, Control_c, 0, 64, 82
1, 135404, Control_c, 0, 64, 81
1, 135419, Control_c, 0, 64, 79
1, 135433, Control_c, 0, 64, 76
1, 135448, Control_c, 0, 64, 71
1, 135463, Control_c, 0, 64, 63
1, 135472, Note_off_c, 0, 66, 61
1, 135478, Control_c, 0, 64, 0
1, 135486, Note_on_c, 0, 52, 42
1, 135489, Note_on_c, 0, 40, 39
1, 135496, Note_on_c, 0, 67, 57
1, 135567, Control_c, 0, 64, 63
1, 135582, Control_c, 0, 64, 71
1, 135596, Control_c, 0, 64, 78
1, 135611, Control_c, 0, 64, 83
1, 135626, Control_c, 0, 64, 86
1, 135641, Control_c, 0, 64, 89
1, 135650, Note_off_c, 0, 40, 53
1, 135656, Control_c, 0, 64, 92
1, 135658, Note_off_c, 0, 52, 59
1, 135670, Control_c, 0, 64, 95
1, 135685, Note_on_c, 0, 76, 75
1, 135685, Control_c, 0, 64, 98
1, 135700, Control_c, 0, 64, 100
1, 135714, Control_c, 0, 64, 103
1, 135729, Control_c, 0, 64, 105
1, 135744, Control_c, 0, 64, 106
1, 135759, Control_c, 0, 64, 107
1, 135774, Control_c, 0, 64, 108
1, 135803, Control_c, 0, 64, 108
1, 135848, Control_c, 0, 64, 108
1, 135860, Note_on_c, 0, 42, 57
1, 135861, Note_on_c, 0, 54, 57
1, 135863, Control_c, 0, 64, 106
1, 135878, Control_c, 0, 64, 92
1, 135893, Control_c, 0, 64, 76
1, 135908, Control_c, 0, 64, 64
1, 135922, Control_c, 0, 64, 33
1, 135952, Control_c, 0, 64, 59
1, 135967, Control_c, 0, 64, 66
1, 135982, Control_c, 0, 64, 74
1, 135996, Control_c, 0, 64, 79
1, 136011, Control_c, 0, 64, 83
1, 136026, Control_c, 0, 64, 86
1, 136040, Control_c, 0, 64, 89
1, 136047, Note_off_c, 0, 54, 59
1, 136054, Note_off_c, 0, 42, 57
1, 136055, Control_c, 0, 64, 92
1, 136057, Note_on_c, 0, 74, 77
1, 136070, Control_c, 0, 64, 94
1, 136085, Control_c, 0, 64, 96
1, 136097, Note_off_c, 0, 76, 57
1, 136100, Control_c, 0, 64, 98
1, 136114, Control_c, 0, 64, 101
1, 136129, Control_c, 0, 64, 103
1, 136152, Control_c, 0, 64, 104
1, 136155, Note_off_c, 0, 67, 54
1, 136226, Control_c, 0, 64, 102
1, 136240, Control_c, 0, 64, 90
1, 136255, Control_c, 0, 64, 74
1, 136264, Note_on_c, 0, 55, 51
1, 136264, Note_on_c, 0, 73, 77
1, 136270, Control_c, 0, 64, 0
1, 136297, Note_off_c, 0, 74, 62
1, 136345, Control_c, 0, 64, 62
1, 136360, Control_c, 0, 64, 72
1, 136375, Control_c, 0, 64, 77
1, 136390, Control_c, 0, 64, 81
1, 136405, Control_c, 0, 64, 82
1, 136419, Control_c, 0, 64, 82
1, 136450, Note_on_c, 0, 71, 74
1, 136469, Note_off_c, 0, 73, 55
1, 136486, Note_off_c, 0, 55, 51
1, 136508, Control_c, 0, 64, 82
1, 136523, Control_c, 0, 64, 81
1, 136537, Control_c, 0, 64, 81
1, 136552, Control_c, 0, 64, 79
1, 136567, Control_c, 0, 64, 77
1, 136582, Control_c, 0, 64, 73
1, 136597, Control_c, 0, 64, 67
1, 136611, Control_c, 0, 64, 52
1, 136626, Control_c, 0, 64, 0
1, 136632, Note_on_c, 0, 70, 74
1, 136641, Note_on_c, 0, 43, 44
1, 136665, Note_off_c, 0, 71, 54
1, 136701, Control_c, 0, 64, 61
1, 136716, Control_c, 0, 64, 69
1, 136725, Note_off_c, 0, 43, 61
1, 136731, Control_c, 0, 64, 74
1, 136745, Control_c, 0, 64, 78
1, 136760, Control_c, 0, 64, 80
1, 136775, Control_c, 0, 64, 82
1, 136790, Control_c, 0, 64, 83
1, 136805, Control_c, 0, 64, 83
1, 136812, Note_off_c, 0, 70, 61
1, 136817, Note_on_c, 0, 71, 72
1, 136915, Control_c, 0, 64, 83
1, 136930, Control_c, 0, 64, 82
1, 136945, Control_c, 0, 64, 81
1, 136960, Control_c, 0, 64, 80
1, 136975, Control_c, 0, 64, 78
1, 136989, Control_c, 0, 64, 74
1, 137005, Control_c, 0, 64, 65
1, 137008, Note_on_c, 0, 54, 45
1, 137010, Note_off_c, 0, 71, 61
1, 137017, Note_on_c, 0, 73, 64
1, 137019, Note_on_c, 0, 70, 55
1, 137020, Control_c, 0, 64, 0
1, 137082, Note_off_c, 0, 70, 51
1, 137094, Control_c, 0, 64, 48
1, 137109, Control_c, 0, 64, 66
1, 137124, Control_c, 0, 64, 71
1, 137139, Control_c, 0, 64, 72
1, 137169, Control_c, 0, 64, 71
1, 137184, Control_c, 0, 64, 71
1, 137199, Control_c, 0, 64, 69
1, 137204, Note_on_c, 0, 74, 71
1, 137213, Control_c, 0, 64, 68
1, 137215, Note_off_c, 0, 73, 53
1, 137228, Control_c, 0, 64, 68
1, 137243, Control_c, 0, 64, 66
1, 137258, Control_c, 0, 64, 64
1, 137273, Control_c, 0, 64, 63
1, 137287, Control_c, 0, 64, 61
1, 137302, Control_c, 0, 64, 56
1, 137317, Control_c, 0, 64, 29
1, 137332, Control_c, 0, 64, 0
1, 137333, Note_off_c, 0, 54, 36
1, 137383, Note_on_c, 0, 76, 70
1, 137396, Note_off_c, 0, 74, 56
1, 137403, Note_on_c, 0, 66, 48
1, 137565, Note_on_c, 0, 78, 73
1, 137570, Note_off_c, 0, 76, 58
1, 137616, Note_off_c, 0, 66, 55
1, 137772, Note_off_c, 0, 78, 57
1, 137774, Note_on_c, 0, 76, 69
1, 137782, Note_on_c, 0, 55, 43
1, 137853, Note_off_c, 0, 55, 48
1, 137955, Note_on_c, 0, 74, 68
1, 137957, Note_off_c, 0, 76, 58
1, 138141, Note_on_c, 0, 73, 64
1, 138161, Note_on_c, 0, 67, 36
1, 138166, Note_off_c, 0, 74, 57
1, 138256, Note_off_c, 0, 67, 61
1, 138317, Control_c, 0, 67, 9
1, 138319, Note_off_c, 0, 73, 59
1, 138332, Control_c, 0, 67, 13
1, 138334, Note_on_c, 0, 71, 55
1, 138347, Control_c, 0, 67, 16
1, 138362, Control_c, 0, 67, 20
1, 138377, Control_c, 0, 67, 24
1, 138399, Control_c, 0, 67, 30
1, 138414, Control_c, 0, 67, 35
1, 138429, Control_c, 0, 67, 40
1, 138443, Control_c, 0, 67, 44
1, 138458, Control_c, 0, 67, 48
1, 138473, Control_c, 0, 67, 52
1, 138488, Control_c, 0, 67, 57
1, 138503, Control_c, 0, 67, 62
1, 138517, Control_c, 0, 67, 69
1, 138525, Note_off_c, 0, 71, 57
1, 138532, Control_c, 0, 67, 78
1, 138543, Note_on_c, 0, 54, 35
1, 138547, Control_c, 0, 67, 89
1, 138549, Note_on_c, 0, 73, 46
1, 138558, Note_on_c, 0, 70, 34
1, 138562, Control_c, 0, 67, 100
1, 138577, Control_c, 0, 67, 112
1, 138591, Control_c, 0, 67, 125
1, 138606, Control_c, 0, 67, 127
1, 138630, Note_off_c, 0, 70, 52
1, 138700, Note_off_c, 0, 54, 40
1, 138725, Note_off_c, 0, 73, 56
1, 138743, Note_on_c, 0, 74, 47
1, 138900, Note_off_c, 0, 74, 53
1, 138919, Note_on_c, 0, 76, 48
1, 138936, Note_on_c, 0, 66, 32
1, 139040, Note_off_c, 0, 66, 49
1, 139087, Note_off_c, 0, 76, 55
1, 139105, Note_on_c, 0, 78, 46
1, 139282, Note_off_c, 0, 78, 54
1, 139305, Note_on_c, 0, 76, 50
1, 139315, Note_on_c, 0, 55, 21
1, 139416, Note_off_c, 0, 55, 43
1, 139473, Note_off_c, 0, 76, 54
1, 139485, Note_on_c, 0, 74, 49
1, 139666, Note_off_c, 0, 74, 57
1, 139690, Note_on_c, 0, 73, 43
1, 139712, Note_on_c, 0, 67, 25
1, 139779, Note_off_c, 0, 67, 55
1, 139890, Note_off_c, 0, 73, 57
1, 139905, Note_on_c, 0, 71, 41
1, 140015, Control_c, 0, 64, 27
1, 140030, Control_c, 0, 64, 36
1, 140045, Control_c, 0, 64, 41
1, 140060, Control_c, 0, 64, 44
1, 140075, Control_c, 0, 64, 48
1, 140089, Control_c, 0, 64, 51
1, 140104, Control_c, 0, 64, 52
1, 140119, Control_c, 0, 64, 53
1, 140134, Control_c, 0, 64, 55
1, 140138, Note_off_c, 0, 71, 50
1, 140149, Control_c, 0, 64, 58
1, 140163, Control_c, 0, 64, 62
1, 140172, Note_on_c, 0, 70, 27
1, 140175, Note_on_c, 0, 73, 30
1, 140177, Note_on_c, 0, 66, 21
1, 140178, Control_c, 0, 64, 64
1, 140193, Control_c, 0, 64, 65
1, 140207, Control_c, 0, 64, 67
1, 140222, Control_c, 0, 64, 68
1, 140237, Control_c, 0, 64, 70
1, 140252, Control_c, 0, 64, 71
1, 140267, Control_c, 0, 64, 73
1, 140281, Control_c, 0, 64, 75
1, 140296, Control_c, 0, 64, 77
1, 140312, Control_c, 0, 64, 81
1, 140327, Control_c, 0, 64, 84
1, 140342, Control_c, 0, 64, 88
1, 140357, Control_c, 0, 64, 91
1, 140372, Control_c, 0, 64, 95
1, 140386, Control_c, 0, 64, 100
1, 140401, Control_c, 0, 64, 106
1, 140416, Control_c, 0, 64, 113
1, 140418, Note_on_c, 0, 61, 33
1, 140430, Control_c, 0, 64, 127
1, 140451, Note_off_c, 0, 66, 40
1, 140534, Note_off_c, 0, 70, 36
1, 140537, Note_off_c, 0, 61, 31
1, 140658, Note_on_c, 0, 58, 23
1, 140662, Note_on_c, 0, 78, 48
1, 140722, Note_off_c, 0, 58, 54
1, 140729, Note_off_c, 0, 73, 45
1, 140900, Poly_aftertouch_c, 0, 54, 127
1, 140949, Poly_aftertouch_c, 0, 54, 0
1, 141089, Note_on_c, 0, 42, 33
1, 141106, Control_c, 0, 64, 107
1, 141121, Control_c, 0, 64, 87
1, 141135, Control_c, 0, 64, 80
1, 141150, Control_c, 0, 64, 81
1, 141165, Control_c, 0, 64, 85
1, 141180, Control_c, 0, 64, 91
1, 141195, Control_c, 0, 64, 98
1, 141195, Control_c, 0, 67, 127
1, 141209, Control_c, 0, 64, 107
1, 141209, Control_c, 0, 67, 117
1, 141224, Control_c, 0, 64, 114
1, 141224, Control_c, 0, 67, 104
1, 141232, Note_off_c, 0, 78, 36
1, 141239, Control_c, 0, 64, 122
1, 141239, Control_c, 0, 67, 90
1, 141253, Control_c, 0, 64, 127
1, 141253, Control_c, 0, 67, 75
1, 141268, Control_c, 0, 67, 59
1, 141283, Control_c, 0, 67, 44
1, 141292, Note_on_c, 0, 76, 47
1, 141298, Control_c, 0, 67, 31
1, 141313, Control_c, 0, 67, 19
1, 141327, Control_c, 0, 67, 8
1, 141342, Control_c, 0, 67, 0
1, 141488, Note_on_c, 0, 74, 54
1, 141497, Control_c, 0, 64, 111
1, 141508, Note_off_c, 0, 76, 34
1, 141512, Control_c, 0, 64, 91
1, 141527, Control_c, 0, 64, 76
1, 141541, Control_c, 0, 64, 68
1, 141556, Control_c, 0, 64, 66
1, 141571, Control_c, 0, 64, 70
1, 141585, Control_c, 0, 64, 77
1, 141600, Control_c, 0, 64, 81
1, 141615, Control_c, 0, 64, 84
1, 141616, Note_off_c, 0, 42, 55
1, 141630, Control_c, 0, 64, 87
1, 141645, Control_c, 0, 64, 90
1, 141659, Note_off_c, 0, 74, 51
1, 141659, Control_c, 0, 64, 93
1, 141667, Note_on_c, 0, 73, 59
1, 141674, Control_c, 0, 64, 95
1, 141689, Control_c, 0, 64, 97
1, 141704, Control_c, 0, 64, 98
1, 141719, Control_c, 0, 64, 100
1, 141733, Control_c, 0, 64, 102
1, 141748, Control_c, 0, 64, 103
1, 141763, Control_c, 0, 64, 103
1, 141867, Control_c, 0, 64, 103
1, 141876, Note_on_c, 0, 74, 53
1, 141879, Note_off_c, 0, 73, 38
1, 141882, Control_c, 0, 64, 97
1, 141887, Note_on_c, 0, 66, 37
1, 141896, Control_c, 0, 64, 86
1, 141912, Control_c, 0, 64, 73
1, 141927, Control_c, 0, 64, 62
1, 141942, Control_c, 0, 64, 45
1, 141956, Control_c, 0, 64, 51
1, 141971, Control_c, 0, 64, 64
1, 141986, Control_c, 0, 64, 68
1, 142001, Control_c, 0, 64, 70
1, 142016, Control_c, 0, 64, 71
1, 142031, Control_c, 0, 64, 73
1, 142045, Control_c, 0, 64, 76
1, 142060, Note_off_c, 0, 74, 57
1, 142060, Control_c, 0, 64, 81
1, 142070, Note_on_c, 0, 71, 54
1, 142075, Control_c, 0, 64, 86
1, 142084, Note_on_c, 0, 62, 35
1, 142090, Control_c, 0, 64, 90
1, 142095, Note_off_c, 0, 66, 43
1, 142105, Control_c, 0, 64, 94
1, 142120, Control_c, 0, 64, 98
1, 142142, Control_c, 0, 64, 101
1, 142156, Control_c, 0, 64, 104
1, 142171, Control_c, 0, 64, 106
1, 142186, Control_c, 0, 64, 107
1, 142201, Control_c, 0, 64, 107
1, 142212, Note_off_c, 0, 62, 32
1, 142215, Control_c, 0, 64, 108
1, 142220, Note_off_c, 0, 71, 56
1, 142230, Control_c, 0, 64, 108
1, 142245, Control_c, 0, 64, 109
1, 142260, Control_c, 0, 64, 109
1, 142271, Note_on_c, 0, 77, 64
1, 142275, Control_c, 0, 64, 110
1, 142281, Note_on_c, 0, 59, 36
1, 142290, Control_c, 0, 64, 111
1, 142305, Control_c, 0, 64, 111
1, 142319, Note_off_c, 0, 59, 50
1, 142423, Control_c, 0, 64, 112
1, 142493, Poly_aftertouch_c, 0, 54, 127
1, 142546, Poly_aftertouch_c, 0, 54, 0
1, 142674, Control_c, 0, 64, 111
1, 142675, Note_on_c, 0, 42, 33
1, 142689, Control_c, 0, 64, 101
1, 142705, Control_c, 0, 64, 86
1, 142720, Control_c, 0, 64, 73
1, 142735, Control_c, 0, 64, 64
1, 142765, Control_c, 0, 64, 68
1, 142779, Control_c, 0, 64, 74
1, 142794, Control_c, 0, 64, 80
1, 142809, Control_c, 0, 64, 85
1, 142824, Control_c, 0, 64, 91
1, 142838, Control_c, 0, 64, 97
1, 142853, Control_c, 0, 64, 102
1, 142868, Control_c, 0, 64, 106
1, 142884, Note_on_c, 0, 80, 61
1, 142891, Control_c, 0, 64, 111
1, 142905, Control_c, 0, 64, 123
1, 142906, Note_off_c, 0, 77, 50
1, 142920, Control_c, 0, 64, 127
1, 143026, Note_off_c, 0, 42, 43
1, 143074, Note_on_c, 0, 78, 59
1, 143074, Note_off_c, 0, 80, 56
1, 143243, Note_off_c, 0, 78, 58
1, 143258, Note_on_c, 0, 77, 59
1, 143458, Note_on_c, 0, 78, 59
1, 143473, Note_off_c, 0, 77, 47
1, 143480, Note_on_c, 0, 66, 34
1, 143500, Control_c, 0, 64, 98
1, 143515, Control_c, 0, 64, 81
1, 143529, Control_c, 0, 64, 68
1, 143544, Control_c, 0, 64, 60
1, 143559, Control_c, 0, 64, 56
1, 143574, Control_c, 0, 64, 63
1, 143589, Control_c, 0, 64, 67
1, 143603, Control_c, 0, 64, 72
1, 143618, Control_c, 0, 64, 75
1, 143640, Control_c, 0, 64, 78
1, 143655, Control_c, 0, 64, 80
1, 143670, Control_c, 0, 64, 83
1, 143682, Note_on_c, 0, 61, 33
1, 143685, Control_c, 0, 64, 87
1, 143700, Control_c, 0, 64, 90
1, 143709, Note_off_c, 0, 66, 41
1, 143715, Control_c, 0, 64, 94
1, 143730, Control_c, 0, 64, 97
1, 143744, Control_c, 0, 64, 101
1, 143759, Control_c, 0, 64, 105
1, 143774, Control_c, 0, 64, 108
1, 143789, Control_c, 0, 64, 110
1, 143803, Control_c, 0, 64, 112
1, 143818, Control_c, 0, 64, 113
1, 143848, Control_c, 0, 64, 113
1, 143849, Note_off_c, 0, 61, 42
1, 143860, Note_on_c, 0, 58, 42
1, 143860, Note_on_c, 0, 73, 58
1, 143862, Control_c, 0, 64, 114
1, 143875, Note_off_c, 0, 78, 43
1, 143877, Control_c, 0, 64, 114
1, 143892, Control_c, 0, 64, 115
1, 143900, Note_off_c, 0, 58, 53
1, 144010, Control_c, 0, 64, 115
1, 144062, Note_on_c, 0, 54, 38
1, 144129, Control_c, 0, 64, 116
1, 144233, Control_c, 0, 64, 110
1, 144247, Control_c, 0, 64, 93
1, 144254, Note_on_c, 0, 42, 49
1, 144262, Control_c, 0, 64, 78
1, 144277, Control_c, 0, 64, 67
1, 144292, Control_c, 0, 64, 63
1, 144308, Control_c, 0, 64, 65
1, 144323, Control_c, 0, 64, 71
1, 144338, Control_c, 0, 64, 77
1, 144352, Control_c, 0, 64, 84
1, 144367, Control_c, 0, 64, 90
1, 144389, Control_c, 0, 64, 96
1, 144391, Note_off_c, 0, 73, 59
1, 144403, Control_c, 0, 64, 100
1, 144409, Note_off_c, 0, 42, 55
1, 144418, Control_c, 0, 64, 102
1, 144433, Control_c, 0, 64, 104
1, 144448, Control_c, 0, 64, 108
1, 144455, Note_on_c, 0, 76, 64
1, 144463, Control_c, 0, 64, 112
1, 144478, Control_c, 0, 64, 117
1, 144493, Control_c, 0, 64, 124
1, 144508, Control_c, 0, 64, 127
1, 144514, Note_off_c, 0, 54, 45
1, 144640, Note_on_c, 0, 74, 74
1, 144696, Note_off_c, 0, 76, 35
1, 144814, Note_on_c, 0, 73, 80
1, 144843, Note_off_c, 0, 74, 60
1, 144982, Control_c, 0, 64, 112
1, 144996, Control_c, 0, 64, 92
1, 145000, Note_on_c, 0, 66, 50
1, 145011, Control_c, 0, 64, 71
1, 145013, Note_on_c, 0, 74, 69
1, 145014, Note_off_c, 0, 73, 56
1, 145026, Control_c, 0, 64, 0
1, 145101, Control_c, 0, 64, 61
1, 145116, Control_c, 0, 64, 68
1, 145138, Control_c, 0, 64, 73
1, 145153, Control_c, 0, 64, 77
1, 145168, Control_c, 0, 64, 82
1, 145182, Control_c, 0, 64, 87
1, 145197, Control_c, 0, 64, 92
1, 145202, Note_off_c, 0, 74, 60
1, 145205, Note_on_c, 0, 71, 72
1, 145212, Control_c, 0, 64, 99
1, 145214, Note_on_c, 0, 62, 46
1, 145226, Control_c, 0, 64, 104
1, 145236, Note_off_c, 0, 66, 37
1, 145241, Control_c, 0, 64, 110
1, 145256, Control_c, 0, 64, 119
1, 145271, Control_c, 0, 64, 127
1, 145363, Note_off_c, 0, 62, 46
1, 145379, Note_off_c, 0, 71, 60
1, 145395, Note_on_c, 0, 77, 78
1, 145396, Note_on_c, 0, 59, 49
1, 145426, Note_off_c, 0, 59, 60
1, 145596, Note_on_c, 0, 54, 41
1, 145790, Control_c, 0, 64, 95
1, 145792, Note_on_c, 0, 42, 49
1, 145804, Control_c, 0, 64, 76
1, 145819, Control_c, 0, 64, 64
1, 145834, Control_c, 0, 64, 59
1, 145849, Control_c, 0, 64, 64
1, 145864, Control_c, 0, 64, 69
1, 145886, Control_c, 0, 64, 75
1, 145902, Control_c, 0, 64, 81
1, 145917, Control_c, 0, 64, 87
1, 145931, Control_c, 0, 64, 92
1, 145946, Control_c, 0, 64, 95
1, 145961, Control_c, 0, 64, 98
1, 145976, Control_c, 0, 64, 101
1, 145990, Control_c, 0, 64, 104
1, 146004, Control_c, 0, 64, 109
1, 146019, Control_c, 0, 64, 115
1, 146021, Note_on_c, 0, 80, 72
1, 146034, Control_c, 0, 64, 126
1, 146049, Control_c, 0, 64, 127
1, 146078, Note_off_c, 0, 77, 54
1, 146089, Note_off_c, 0, 42, 54
1, 146165, Note_off_c, 0, 54, 62
1, 146214, Note_on_c, 0, 78, 80
1, 146252, Note_off_c, 0, 80, 58
1, 146392, Note_on_c, 0, 77, 78
1, 146432, Note_off_c, 0, 78, 52
1, 146596, Note_on_c, 0, 78, 74
1, 146606, Note_on_c, 0, 66, 45
1, 146644, Note_off_c, 0, 77, 53
1, 146649, Control_c, 0, 64, 90
1, 146663, Control_c, 0, 64, 71
1, 146678, Control_c, 0, 64, 55
1, 146693, Control_c, 0, 64, 35
1, 146709, Control_c, 0, 64, 53
1, 146724, Control_c, 0, 64, 65
1, 146740, Control_c, 0, 64, 72
1, 146754, Control_c, 0, 64, 76
1, 146769, Control_c, 0, 64, 81
1, 146784, Control_c, 0, 64, 84
1, 146799, Control_c, 0, 64, 89
1, 146811, Note_on_c, 0, 61, 52
1, 146813, Control_c, 0, 64, 93
1, 146828, Control_c, 0, 64, 97
1, 146843, Control_c, 0, 64, 100
1, 146858, Control_c, 0, 64, 103
1, 146872, Control_c, 0, 64, 107
1, 146873, Note_off_c, 0, 66, 37
1, 146887, Control_c, 0, 64, 112
1, 146902, Control_c, 0, 64, 118
1, 146917, Control_c, 0, 64, 127
1, 146991, Note_off_c, 0, 61, 48
1, 147001, Note_on_c, 0, 73, 74
1, 147006, Note_on_c, 0, 58, 47
1, 147047, Note_off_c, 0, 78, 60
1, 147053, Note_off_c, 0, 58, 59
1, 147201, Note_on_c, 0, 54, 36
1, 147399, Control_c, 0, 64, 98
1, 147402, Note_on_c, 0, 42, 48
1, 147413, Control_c, 0, 64, 79
1, 147428, Control_c, 0, 64, 66
1, 147443, Control_c, 0, 64, 48
1, 147458, Control_c, 0, 64, 44
1, 147473, Control_c, 0, 64, 60
1, 147487, Control_c, 0, 64, 68
1, 147503, Control_c, 0, 64, 76
1, 147518, Control_c, 0, 64, 82
1, 147533, Control_c, 0, 64, 89
1, 147548, Control_c, 0, 64, 94
1, 147563, Control_c, 0, 64, 99
1, 147577, Control_c, 0, 64, 103
1, 147592, Control_c, 0, 64, 105
1, 147607, Control_c, 0, 64, 108
1, 147621, Control_c, 0, 64, 112
1, 147622, Note_on_c, 0, 76, 68
1, 147632, Note_off_c, 0, 42, 42
1, 147636, Control_c, 0, 64, 116
1, 147651, Control_c, 0, 64, 122
1, 147655, Note_off_c, 0, 73, 26
1, 147666, Control_c, 0, 64, 127
1, 147727, Note_off_c, 0, 54, 42
1, 147812, Note_on_c, 0, 74, 78
1, 147855, Note_off_c, 0, 76, 55
1, 147990, Note_on_c, 0, 73, 83
1, 147994, Note_off_c, 0, 74, 64
1, 148177, Control_c, 0, 64, 120
1, 148192, Control_c, 0, 64, 100
1, 148197, Note_on_c, 0, 59, 46
1, 148198, Note_off_c, 0, 73, 59
1, 148198, Note_on_c, 0, 74, 79
1, 148199, Note_on_c, 0, 47, 46
1, 148207, Control_c, 0, 64, 81
1, 148221, Control_c, 0, 64, 65
1, 148236, Control_c, 0, 64, 0
1, 148281, Control_c, 0, 64, 49
1, 148296, Control_c, 0, 64, 65
1, 148311, Control_c, 0, 64, 72
1, 148326, Control_c, 0, 64, 78
1, 148341, Control_c, 0, 64, 85
1, 148356, Control_c, 0, 64, 89
1, 148371, Control_c, 0, 64, 93
1, 148385, Control_c, 0, 64, 97
1, 148390, Note_on_c, 0, 78, 79
1, 148400, Control_c, 0, 64, 101
1, 148409, Note_off_c, 0, 74, 63
1, 148415, Control_c, 0, 64, 105
1, 148430, Control_c, 0, 64, 111
1, 148444, Control_c, 0, 64, 118
1, 148459, Control_c, 0, 64, 127
1, 148577, Control_c, 0, 64, 108
1, 148584, Note_on_c, 0, 79, 81
1, 148592, Control_c, 0, 64, 85
1, 148595, Note_off_c, 0, 78, 61
1, 148602, Note_on_c, 0, 73, 62
1, 148604, Note_on_c, 0, 52, 53
1, 148605, Note_off_c, 0, 47, 55
1, 148607, Control_c, 0, 64, 69
1, 148622, Control_c, 0, 64, 32
1, 148637, Control_c, 0, 64, 0
1, 148651, Control_c, 0, 64, 42
1, 148666, Control_c, 0, 64, 63
1, 148678, Note_off_c, 0, 59, 57
1, 148681, Control_c, 0, 64, 70
1, 148696, Control_c, 0, 64, 77
1, 148711, Control_c, 0, 64, 83
1, 148725, Note_off_c, 0, 52, 62
1, 148726, Control_c, 0, 64, 88
1, 148741, Control_c, 0, 64, 92
1, 148756, Control_c, 0, 64, 97
1, 148770, Control_c, 0, 64, 101
1, 148772, Note_off_c, 0, 73, 57
1, 148785, Control_c, 0, 64, 106
1, 148800, Control_c, 0, 64, 110
1, 148802, Note_on_c, 0, 71, 48
1, 148815, Control_c, 0, 64, 116
1, 148830, Control_c, 0, 64, 120
1, 148844, Control_c, 0, 64, 122
1, 148859, Control_c, 0, 64, 123
1, 148940, Control_c, 0, 64, 119
1, 148955, Control_c, 0, 64, 102
1, 148970, Control_c, 0, 64, 82
1, 148979, Note_off_c, 0, 71, 55
1, 148985, Control_c, 0, 64, 66
1, 149000, Control_c, 0, 64, 0
1, 149006, Note_on_c, 0, 54, 35
1, 149008, Note_on_c, 0, 42, 33
1, 149011, Note_on_c, 0, 70, 45
1, 149059, Control_c, 0, 64, 55
1, 149074, Control_c, 0, 64, 68
1, 149089, Control_c, 0, 64, 78
1, 149104, Control_c, 0, 64, 88
1, 149119, Control_c, 0, 64, 94
1, 149134, Control_c, 0, 64, 97
1, 149149, Control_c, 0, 64, 101
1, 149157, Note_off_c, 0, 42, 39
1, 149164, Control_c, 0, 64, 105
1, 149167, Note_off_c, 0, 54, 43
1, 149179, Control_c, 0, 64, 110
1, 149194, Control_c, 0, 64, 114
1, 149199, Note_on_c, 0, 78, 71
1, 149208, Control_c, 0, 64, 117
1, 149223, Control_c, 0, 64, 118
1, 149230, Note_off_c, 0, 79, 49
1, 149238, Control_c, 0, 64, 119
1, 149327, Control_c, 0, 64, 118
1, 149356, Control_c, 0, 64, 115
1, 149370, Note_off_c, 0, 70, 59
1, 149371, Control_c, 0, 64, 109
1, 149386, Control_c, 0, 64, 92
1, 149400, Control_c, 0, 64, 76
1, 149415, Control_c, 0, 64, 60
1, 149430, Control_c, 0, 64, 0
1, 149431, Note_on_c, 0, 55, 23
1, 149438, Note_on_c, 0, 43, 28
1, 149445, Note_on_c, 0, 71, 28
1, 149474, Control_c, 0, 64, 51
1, 149489, Control_c, 0, 64, 66
1, 149504, Control_c, 0, 64, 75
1, 149519, Control_c, 0, 64, 83
1, 149527, Note_off_c, 0, 43, 54
1, 149534, Control_c, 0, 64, 92
1, 149548, Control_c, 0, 64, 97
1, 149563, Control_c, 0, 64, 100
1, 149578, Control_c, 0, 64, 103
1, 149579, Note_off_c, 0, 71, 45
1, 149584, Note_off_c, 0, 55, 43
1, 149593, Control_c, 0, 64, 106
1, 149608, Control_c, 0, 64, 110
1, 149630, Control_c, 0, 64, 113
1, 149645, Control_c, 0, 64, 115
1, 149658, Note_off_c, 0, 78, 54
1, 149660, Control_c, 0, 64, 115
1, 149665, Note_on_c, 0, 76, 57
1, 149674, Control_c, 0, 64, 116
1, 149689, Control_c, 0, 67, 12
1, 149704, Control_c, 0, 67, 20
1, 149718, Control_c, 0, 67, 31
1, 149733, Control_c, 0, 67, 41
1, 149748, Control_c, 0, 67, 52
1, 149763, Control_c, 0, 67, 63
1, 149778, Control_c, 0, 67, 73
1, 149793, Control_c, 0, 67, 81
1, 149808, Control_c, 0, 67, 90
1, 149823, Control_c, 0, 67, 101
1, 149838, Control_c, 0, 67, 110
1, 149852, Control_c, 0, 67, 119
1, 149867, Control_c, 0, 67, 127
1, 149882, Control_c, 0, 64, 113
1, 149897, Control_c, 0, 64, 110
1, 149912, Control_c, 0, 64, 104
1, 149927, Control_c, 0, 64, 95
1, 149942, Control_c, 0, 64, 85
1, 149955, Note_off_c, 0, 76, 54
1, 149957, Control_c, 0, 64, 74
1, 149972, Control_c, 0, 64, 65
1, 149980, Note_on_c, 0, 70, 31
1, 149985, Note_on_c, 0, 66, 26
1, 149986, Note_on_c, 0, 78, 43
1, 149987, Control_c, 0, 64, 23
1, 150002, Control_c, 0, 64, 0
1, 150041, Note_off_c, 0, 78, 0
1, 150041, Note_on_c, 0, 78, 6
1, 150135, Control_c, 0, 64, 57
1, 150150, Control_c, 0, 64, 66
1, 150165, Control_c, 0, 64, 71
1, 150179, Control_c, 0, 64, 76
1, 150194, Control_c, 0, 64, 81
1, 150209, Control_c, 0, 64, 86
1, 150223, Control_c, 0, 64, 91
1, 150234, Note_on_c, 0, 61, 29
1, 150238, Control_c, 0, 64, 97
1, 150253, Control_c, 0, 64, 103
1, 150268, Control_c, 0, 64, 106
1, 150283, Control_c, 0, 64, 110
1, 150284, Note_off_c, 0, 66, 42
1, 150297, Control_c, 0, 64, 113
1, 150312, Control_c, 0, 64, 118
1, 150327, Control_c, 0, 64, 126
1, 150341, Control_c, 0, 64, 127
1, 150413, Note_off_c, 0, 61, 39
1, 150435, Note_on_c, 0, 73, 46
1, 150446, Note_off_c, 0, 78, 41
1, 150452, Note_on_c, 0, 58, 28
1, 150499, Note_off_c, 0, 58, 49
1, 150635, Note_on_c, 0, 54, 37
1, 150681, Note_off_c, 0, 54, 55
1, 150839, Note_on_c, 0, 42, 36
1, 150839, Control_c, 0, 64, 111
1, 150854, Control_c, 0, 64, 92
1, 150869, Control_c, 0, 64, 78
1, 150884, Control_c, 0, 64, 68
1, 150899, Control_c, 0, 64, 63
1, 150913, Control_c, 0, 64, 65
1, 150928, Control_c, 0, 64, 71
1, 150943, Control_c, 0, 64, 77
1, 150958, Control_c, 0, 64, 83
1, 150972, Control_c, 0, 64, 86
1, 150987, Control_c, 0, 64, 89
1, 151002, Control_c, 0, 64, 92
1, 151017, Control_c, 0, 64, 95
1, 151032, Control_c, 0, 64, 97
1, 151038, Note_on_c, 0, 76, 50
1, 151040, Note_off_c, 0, 73, 26
1, 151046, Control_c, 0, 64, 99
1, 151052, Note_off_c, 0, 42, 38
1, 151061, Control_c, 0, 64, 102
1, 151076, Control_c, 0, 64, 104
1, 151085, Note_off_c, 0, 70, 37
1, 151091, Control_c, 0, 64, 106
1, 151106, Control_c, 0, 64, 106
1, 151187, Control_c, 0, 64, 107
1, 151237, Note_off_c, 0, 76, 50
1, 151238, Note_on_c, 0, 74, 58
1, 151417, Note_on_c, 0, 73, 59
1, 151431, Note_off_c, 0, 74, 37
1, 151483, Control_c, 0, 64, 106
1, 151499, Control_c, 0, 64, 104
1, 151514, Control_c, 0, 64, 103
1, 151529, Control_c, 0, 64, 101
1, 151543, Control_c, 0, 64, 98
1, 151558, Control_c, 0, 64, 94
1, 151573, Control_c, 0, 64, 87
1, 151587, Control_c, 0, 64, 80
1, 151596, Note_off_c, 0, 73, 58
1, 151602, Control_c, 0, 64, 71
1, 151617, Control_c, 0, 64, 55
1, 151619, Note_on_c, 0, 66, 33
1, 151632, Note_on_c, 0, 74, 51
1, 151632, Control_c, 0, 64, 0
1, 151722, Control_c, 0, 64, 59
1, 151736, Control_c, 0, 64, 66
1, 151751, Control_c, 0, 64, 72
1, 151766, Control_c, 0, 64, 77
1, 151781, Control_c, 0, 64, 82
1, 151793, Note_off_c, 0, 74, 51
1, 151795, Control_c, 0, 64, 87
1, 151810, Control_c, 0, 64, 92
1, 151825, Control_c, 0, 64, 98
1, 151840, Control_c, 0, 64, 104
1, 151843, Note_on_c, 0, 62, 27
1, 151847, Note_on_c, 0, 71, 47
1, 151855, Control_c, 0, 64, 112
1, 151877, Control_c, 0, 64, 127
1, 151909, Note_off_c, 0, 71, 53
1, 151913, Note_off_c, 0, 66, 35
1, 152019, Note_off_c, 0, 62, 20
1, 152079, Note_on_c, 0, 59, 25
1, 152155, Note_on_c, 0, 83, 64
1, 152171, Note_off_c, 0, 59, 38
1, 152369, Note_on_c, 0, 54, 20
1, 152425, Note_off_c, 0, 54, 47
1, 152600, Note_on_c, 0, 42, 31
1, 152806, Note_off_c, 0, 83, 52
1, 152816, Note_on_c, 0, 80, 48
1, 152818, Control_c, 0, 67, 119
1, 152833, Control_c, 0, 67, 104
1, 152848, Control_c, 0, 67, 85
1, 152863, Control_c, 0, 67, 69
1, 152878, Control_c, 0, 67, 57
1, 152893, Control_c, 0, 67, 48
1, 152908, Control_c, 0, 67, 37
1, 152923, Control_c, 0, 67, 28
1, 152938, Control_c, 0, 67, 17
1, 152952, Control_c, 0, 67, 0
1, 152982, Control_c, 0, 64, 112
1, 152997, Control_c, 0, 64, 86
1, 153012, Control_c, 0, 64, 70
1, 153018, Note_on_c, 0, 78, 52
1, 153024, Note_off_c, 0, 80, 56
1, 153026, Control_c, 0, 64, 60
1, 153041, Control_c, 0, 64, 60
1, 153056, Control_c, 0, 64, 66
1, 153071, Control_c, 0, 64, 72
1, 153076, Note_off_c, 0, 42, 57
1, 153087, Control_c, 0, 64, 79
1, 153102, Control_c, 0, 64, 87
1, 153116, Control_c, 0, 64, 91
1, 153131, Control_c, 0, 64, 95
1, 153146, Control_c, 0, 64, 98
1, 153160, Control_c, 0, 64, 100
1, 153175, Control_c, 0, 64, 103
1, 153179, Note_off_c, 0, 78, 60
1, 153190, Control_c, 0, 64, 106
1, 153203, Note_on_c, 0, 77, 50
1, 153205, Control_c, 0, 64, 109
1, 153220, Control_c, 0, 64, 111
1, 153234, Control_c, 0, 64, 113
1, 153249, Control_c, 0, 64, 114
1, 153279, Control_c, 0, 64, 115
1, 153294, Control_c, 0, 64, 115
1, 153308, Control_c, 0, 64, 116
1, 153323, Control_c, 0, 64, 116
1, 153390, Control_c, 0, 64, 115
1, 153405, Control_c, 0, 64, 101
1, 153412, Note_on_c, 0, 66, 39
1, 153415, Note_on_c, 0, 78, 53
1, 153420, Control_c, 0, 64, 86
1, 153432, Note_off_c, 0, 77, 39
1, 153435, Control_c, 0, 64, 73
1, 153449, Control_c, 0, 64, 64
1, 153464, Control_c, 0, 64, 57
1, 153479, Control_c, 0, 64, 63
1, 153494, Control_c, 0, 64, 69
1, 153509, Control_c, 0, 64, 75
1, 153523, Control_c, 0, 64, 80
1, 153538, Control_c, 0, 64, 84
1, 153553, Control_c, 0, 64, 86
1, 153567, Control_c, 0, 64, 90
1, 153582, Control_c, 0, 64, 93
1, 153597, Control_c, 0, 64, 96
1, 153612, Control_c, 0, 64, 100
1, 153617, Note_off_c, 0, 66, 31
1, 153627, Control_c, 0, 64, 103
1, 153632, Note_on_c, 0, 61, 35
1, 153641, Control_c, 0, 64, 108
1, 153656, Control_c, 0, 64, 114
1, 153671, Control_c, 0, 64, 118
1, 153686, Control_c, 0, 64, 121
1, 153701, Control_c, 0, 64, 123
1, 153716, Control_c, 0, 64, 127
1, 153776, Note_off_c, 0, 61, 37
1, 153807, Note_on_c, 0, 73, 55
1, 153827, Note_on_c, 0, 58, 27
1, 153868, Note_off_c, 0, 58, 50
1, 153889, Note_off_c, 0, 78, 51
1, 153996, Note_on_c, 0, 54, 41
1, 154198, Control_c, 0, 64, 107
1, 154200, Note_on_c, 0, 42, 48
1, 154213, Control_c, 0, 64, 87
1, 154226, Control_c, 0, 64, 74
1, 154241, Control_c, 0, 64, 66
1, 154256, Control_c, 0, 64, 67
1, 154270, Control_c, 0, 64, 71
1, 154285, Control_c, 0, 64, 79
1, 154300, Control_c, 0, 64, 87
1, 154315, Control_c, 0, 64, 93
1, 154330, Control_c, 0, 64, 96
1, 154345, Control_c, 0, 64, 99
1, 154360, Control_c, 0, 64, 102
1, 154375, Control_c, 0, 64, 106
1, 154389, Control_c, 0, 64, 110
1, 154389, Note_on_c, 0, 76, 65
1, 154404, Control_c, 0, 64, 117
1, 154419, Control_c, 0, 64, 127
1, 154429, Note_off_c, 0, 42, 42
1, 154429, Note_off_c, 0, 73, 51
1, 154529, Note_off_c, 0, 54, 42
1, 154586, Note_on_c, 0, 74, 71
1, 154667, Note_off_c, 0, 76, 34
1, 154763, Note_on_c, 0, 73, 77
1, 154785, Note_off_c, 0, 74, 56
1, 154960, Control_c, 0, 64, 106
1, 154966, Note_on_c, 0, 74, 71
1, 154971, Note_on_c, 0, 66, 49
1, 154971, Note_off_c, 0, 73, 57
1, 154975, Control_c, 0, 64, 79
1, 154990, Control_c, 0, 64, 44
1, 155005, Control_c, 0, 64, 0
1, 155049, Control_c, 0, 64, 54
1, 155064, Control_c, 0, 64, 68
1, 155079, Control_c, 0, 64, 79
1, 155093, Control_c, 0, 64, 92
1, 155108, Control_c, 0, 64, 99
1, 155123, Control_c, 0, 64, 100
1, 155138, Control_c, 0, 64, 102
1, 155145, Note_off_c, 0, 74, 63
1, 155153, Control_c, 0, 64, 105
1, 155167, Control_c, 0, 64, 109
1, 155170, Note_on_c, 0, 71, 70
1, 155182, Control_c, 0, 64, 114
1, 155188, Note_on_c, 0, 62, 39
1, 155197, Control_c, 0, 64, 126
1, 155212, Control_c, 0, 64, 127
1, 155233, Note_off_c, 0, 66, 36
1, 155363, Note_off_c, 0, 62, 42
1, 155375, Note_on_c, 0, 59, 41
1, 155410, Note_off_c, 0, 59, 55
1, 155417, Note_on_c, 0, 83, 89
1, 155616, Note_on_c, 0, 54, 46
1, 155635, Note_off_c, 0, 71, 61
1, 155661, Note_off_c, 0, 54, 58
1, 155832, Note_on_c, 0, 42, 56
1, 155843, Control_c, 0, 64, 108
1, 155858, Control_c, 0, 64, 83
1, 155873, Control_c, 0, 64, 67
1, 155888, Control_c, 0, 64, 49
1, 155903, Control_c, 0, 64, 53
1, 155917, Control_c, 0, 64, 63
1, 155932, Control_c, 0, 64, 69
1, 155947, Control_c, 0, 64, 78
1, 155961, Control_c, 0, 64, 86
1, 155976, Control_c, 0, 64, 94
1, 155991, Control_c, 0, 64, 97
1, 156006, Control_c, 0, 64, 99
1, 156021, Control_c, 0, 64, 100
1, 156035, Control_c, 0, 64, 102
1, 156039, Note_on_c, 0, 80, 74
1, 156050, Control_c, 0, 64, 105
1, 156065, Control_c, 0, 64, 108
1, 156072, Note_off_c, 0, 83, 55
1, 156080, Control_c, 0, 64, 113
1, 156094, Control_c, 0, 64, 118
1, 156109, Control_c, 0, 64, 123
1, 156124, Control_c, 0, 64, 127
1, 156229, Note_on_c, 0, 78, 77
1, 156252, Note_off_c, 0, 80, 62
1, 156313, Note_off_c, 0, 42, 62
1, 156419, Note_on_c, 0, 77, 74
1, 156421, Note_off_c, 0, 78, 61
1, 156625, Note_on_c, 0, 78, 68
1, 156626, Note_on_c, 0, 66, 48
1, 156651, Control_c, 0, 64, 100
1, 156665, Control_c, 0, 64, 82
1, 156672, Note_off_c, 0, 77, 40
1, 156680, Control_c, 0, 64, 67
1, 156695, Control_c, 0, 64, 30
1, 156709, Control_c, 0, 64, 0
1, 156739, Control_c, 0, 64, 54
1, 156754, Control_c, 0, 64, 66
1, 156769, Control_c, 0, 64, 74
1, 156783, Control_c, 0, 64, 81
1, 156798, Control_c, 0, 64, 88
1, 156813, Control_c, 0, 64, 92
1, 156823, Note_on_c, 0, 61, 49
1, 156828, Control_c, 0, 64, 95
1, 156834, Note_off_c, 0, 66, 47
1, 156843, Control_c, 0, 64, 100
1, 156858, Control_c, 0, 64, 104
1, 156873, Control_c, 0, 64, 110
1, 156887, Control_c, 0, 64, 116
1, 156902, Control_c, 0, 64, 127
1, 157009, Note_off_c, 0, 61, 42
1, 157019, Note_on_c, 0, 73, 68
1, 157020, Note_on_c, 0, 58, 39
1, 157073, Note_off_c, 0, 58, 54
1, 157197, Note_off_c, 0, 78, 57
1, 157227, Note_on_c, 0, 54, 39
1, 157414, Control_c, 0, 64, 106
1, 157424, Note_on_c, 0, 42, 49
1, 157429, Control_c, 0, 64, 84
1, 157444, Control_c, 0, 64, 69
1, 157459, Control_c, 0, 64, 60
1, 157474, Control_c, 0, 64, 61
1, 157488, Control_c, 0, 64, 66
1, 157503, Control_c, 0, 64, 72
1, 157518, Control_c, 0, 64, 80
1, 157532, Control_c, 0, 64, 87
1, 157547, Control_c, 0, 64, 92
1, 157562, Control_c, 0, 64, 96
1, 157577, Control_c, 0, 64, 99
1, 157592, Control_c, 0, 64, 103
1, 157605, Note_off_c, 0, 42, 52
1, 157606, Control_c, 0, 64, 106
1, 157621, Control_c, 0, 64, 110
1, 157636, Control_c, 0, 64, 115
1, 157637, Note_on_c, 0, 76, 69
1, 157651, Control_c, 0, 64, 127
1, 157675, Note_off_c, 0, 54, 37
1, 157690, Note_off_c, 0, 73, 53
1, 157867, Note_on_c, 0, 74, 81
1, 157919, Note_off_c, 0, 76, 55
1, 158047, Note_on_c, 0, 73, 83
1, 158056, Note_off_c, 0, 74, 62
1, 158250, Note_on_c, 0, 74, 78
1, 158258, Note_on_c, 0, 59, 48
1, 158259, Note_on_c, 0, 47, 49
1, 158262, Note_off_c, 0, 73, 57
1, 158267, Control_c, 0, 64, 105
1, 158282, Control_c, 0, 64, 84
1, 158297, Control_c, 0, 64, 68
1, 158311, Control_c, 0, 64, 0
1, 158355, Control_c, 0, 64, 52
1, 158370, Control_c, 0, 64, 66
1, 158385, Control_c, 0, 64, 74
1, 158400, Control_c, 0, 64, 81
1, 158415, Control_c, 0, 64, 88
1, 158429, Control_c, 0, 64, 91
1, 158441, Note_on_c, 0, 78, 81
1, 158444, Control_c, 0, 64, 94
1, 158459, Control_c, 0, 64, 97
1, 158465, Note_off_c, 0, 74, 63
1, 158473, Control_c, 0, 64, 99
1, 158488, Control_c, 0, 64, 103
1, 158503, Control_c, 0, 64, 105
1, 158518, Control_c, 0, 64, 108
1, 158533, Control_c, 0, 64, 109
1, 158548, Control_c, 0, 64, 110
1, 158592, Control_c, 0, 64, 103
1, 158615, Control_c, 0, 64, 85
1, 158625, Note_on_c, 0, 52, 65
1, 158630, Control_c, 0, 64, 71
1, 158637, Note_off_c, 0, 47, 61
1, 158638, Note_on_c, 0, 79, 79
1, 158644, Control_c, 0, 64, 60
1, 158659, Control_c, 0, 64, 54
1, 158673, Note_off_c, 0, 59, 59
1, 158674, Note_off_c, 0, 78, 56
1, 158674, Control_c, 0, 64, 62
1, 158690, Control_c, 0, 64, 68
1, 158691, Note_off_c, 0, 52, 62
1, 158705, Control_c, 0, 64, 77
1, 158720, Control_c, 0, 64, 83
1, 158734, Control_c, 0, 64, 88
1, 158749, Control_c, 0, 64, 91
1, 158764, Control_c, 0, 64, 94
1, 158778, Control_c, 0, 64, 97
1, 158793, Control_c, 0, 64, 99
1, 158808, Control_c, 0, 64, 102
1, 158823, Control_c, 0, 64, 105
1, 158825, Note_on_c, 0, 76, 78
1, 158838, Control_c, 0, 64, 109
1, 158852, Control_c, 0, 64, 113
1, 158867, Control_c, 0, 64, 119
1, 158873, Note_off_c, 0, 79, 37
1, 158882, Control_c, 0, 64, 127
1, 158986, Control_c, 0, 64, 126
1, 159001, Control_c, 0, 64, 99
1, 159015, Note_on_c, 0, 54, 52
1, 159015, Note_on_c, 0, 59, 49
1, 159016, Control_c, 0, 64, 80
1, 159022, Note_on_c, 0, 62, 48
1, 159026, Note_on_c, 0, 74, 72
1, 159031, Control_c, 0, 64, 63
1, 159046, Control_c, 0, 64, 0
1, 159047, Note_off_c, 0, 76, 56
1, 159090, Control_c, 0, 64, 49
1, 159104, Control_c, 0, 64, 67
1, 159119, Control_c, 0, 64, 77
1, 159134, Control_c, 0, 64, 85
1, 159149, Control_c, 0, 64, 91
1, 159164, Control_c, 0, 64, 91
1, 159178, Control_c, 0, 64, 92
1, 159193, Control_c, 0, 64, 93
1, 159208, Control_c, 0, 64, 94
1, 159209, Note_off_c, 0, 74, 64
1, 159218, Note_on_c, 0, 71, 73
1, 159223, Control_c, 0, 64, 96
1, 159238, Control_c, 0, 64, 97
1, 159252, Control_c, 0, 64, 98
1, 159341, Control_c, 0, 64, 98
1, 159364, Control_c, 0, 64, 90
1, 159378, Control_c, 0, 64, 79
1, 159393, Control_c, 0, 64, 66
1, 159408, Control_c, 0, 64, 0
1, 159418, Note_on_c, 0, 61, 65
1, 159424, Note_off_c, 0, 62, 55
1, 159484, Control_c, 0, 64, 64
1, 159499, Control_c, 0, 64, 73
1, 159502, Note_off_c, 0, 59, 43
1, 159514, Control_c, 0, 64, 82
1, 159528, Control_c, 0, 64, 89
1, 159543, Note_off_c, 0, 54, 56
1, 159543, Control_c, 0, 64, 90
1, 159558, Control_c, 0, 64, 92
1, 159563, Note_off_c, 0, 61, 60
1, 159573, Control_c, 0, 64, 94
1, 159588, Control_c, 0, 64, 97
1, 159603, Control_c, 0, 64, 99
1, 159617, Control_c, 0, 64, 101
1, 159624, Note_on_c, 0, 70, 67
1, 159628, Note_off_c, 0, 71, 54
1, 159632, Control_c, 0, 64, 101
1, 159647, Control_c, 0, 64, 102
1, 159735, Control_c, 0, 64, 101
1, 159750, Control_c, 0, 64, 100
1, 159765, Control_c, 0, 64, 98
1, 159780, Control_c, 0, 64, 95
1, 159795, Control_c, 0, 64, 91
1, 159809, Control_c, 0, 64, 82
1, 159824, Control_c, 0, 64, 71
1, 159839, Control_c, 0, 64, 0
1, 159856, Note_on_c, 0, 64, 47
1, 159859, Note_on_c, 0, 59, 38
1, 159861, Note_off_c, 0, 70, 60
1, 159864, Note_on_c, 0, 71, 71
1, 159873, Note_on_c, 0, 55, 40
1, 159898, Control_c, 0, 64, 17
1, 159913, Control_c, 0, 64, 65
1, 159922, Note_off_c, 0, 71, 62
1, 159928, Control_c, 0, 64, 78
1, 159943, Control_c, 0, 64, 93
1, 159958, Control_c, 0, 64, 104
1, 159973, Control_c, 0, 64, 106
1, 159988, Control_c, 0, 64, 107
1, 160002, Control_c, 0, 64, 108
1, 160017, Control_c, 0, 64, 111
1, 160032, Control_c, 0, 64, 114
1, 160047, Control_c, 0, 64, 118
1, 160062, Control_c, 0, 64, 119
1, 160076, Control_c, 0, 64, 119
1, 160091, Control_c, 0, 64, 120
1, 160128, Control_c, 0, 64, 121
1, 160152, Note_on_c, 0, 85, 66
1, 160172, Control_c, 0, 64, 122
1, 160187, Control_c, 0, 64, 123
1, 160216, Control_c, 0, 64, 124
1, 160350, Control_c, 0, 64, 121
1, 160365, Control_c, 0, 64, 107
1, 160380, Control_c, 0, 64, 91
1, 160390, Note_off_c, 0, 85, 57
1, 160393, Note_on_c, 0, 86, 73
1, 160395, Control_c, 0, 64, 75
1, 160403, Note_on_c, 0, 52, 41
1, 160410, Control_c, 0, 64, 59
1, 160425, Control_c, 0, 64, 0
1, 160469, Control_c, 0, 64, 40
1, 160484, Control_c, 0, 64, 65
1, 160499, Control_c, 0, 64, 74
1, 160512, Note_off_c, 0, 64, 63
1, 160513, Control_c, 0, 64, 83
1, 160515, Note_off_c, 0, 52, 56
1, 160518, Note_off_c, 0, 55, 47
1, 160528, Control_c, 0, 64, 88
1, 160543, Control_c, 0, 64, 90
1, 160550, Note_off_c, 0, 59, 58
1, 160557, Control_c, 0, 64, 91
1, 160572, Control_c, 0, 64, 92
1, 160581, Note_off_c, 0, 86, 62
1, 160587, Control_c, 0, 64, 94
1, 160602, Control_c, 0, 64, 96
1, 160615, Note_on_c, 0, 83, 67
1, 160617, Control_c, 0, 64, 97
1, 160631, Control_c, 0, 64, 99
1, 160646, Control_c, 0, 64, 100
1, 160661, Control_c, 0, 64, 101
1, 160676, Control_c, 0, 64, 101
1, 160795, Control_c, 0, 64, 98
1, 160810, Control_c, 0, 64, 88
1, 160821, Note_on_c, 0, 59, 35
1, 160824, Control_c, 0, 64, 75
1, 160827, Note_on_c, 0, 54, 41
1, 160834, Note_on_c, 0, 62, 35
1, 160839, Control_c, 0, 64, 63
1, 160861, Control_c, 0, 64, 0
1, 160891, Control_c, 0, 64, 52
1, 160906, Control_c, 0, 64, 65
1, 160921, Control_c, 0, 64, 73
1, 160935, Control_c, 0, 64, 80
1, 160950, Control_c, 0, 64, 85
1, 160965, Control_c, 0, 64, 87
1, 160980, Control_c, 0, 64, 88
1, 160995, Control_c, 0, 64, 89
1, 161010, Control_c, 0, 64, 90
1, 161011, Note_off_c, 0, 83, 62
1, 161016, Note_on_c, 0, 85, 65
1, 161024, Control_c, 0, 64, 92
1, 161039, Control_c, 0, 64, 94
1, 161054, Control_c, 0, 64, 96
1, 161069, Control_c, 0, 64, 98
1, 161085, Control_c, 0, 64, 100
1, 161114, Control_c, 0, 64, 100
1, 161159, Control_c, 0, 64, 97
1, 161173, Control_c, 0, 64, 83
1, 161188, Control_c, 0, 64, 70
1, 161192, Note_off_c, 0, 85, 37
1, 161203, Control_c, 0, 64, 38
1, 161204, Note_on_c, 0, 78, 63
1, 161210, Note_on_c, 0, 61, 42
1, 161213, Note_off_c, 0, 62, 50
1, 161218, Control_c, 0, 64, 0
1, 161248, Control_c, 0, 64, 56
1, 161262, Control_c, 0, 64, 67
1, 161277, Control_c, 0, 64, 77
1, 161280, Note_off_c, 0, 59, 43
1, 161292, Control_c, 0, 64, 84
1, 161306, Control_c, 0, 64, 89
1, 161321, Control_c, 0, 64, 91
1, 161329, Note_off_c, 0, 54, 55
1, 161336, Control_c, 0, 64, 92
1, 161340, Note_off_c, 0, 61, 52
1, 161351, Control_c, 0, 64, 94
1, 161366, Control_c, 0, 64, 95
1, 161380, Control_c, 0, 64, 97
1, 161386, Note_on_c, 0, 82, 73
1, 161387, Note_off_c, 0, 78, 56
1, 161395, Control_c, 0, 64, 99
1, 161410, Control_c, 0, 64, 102
1, 161425, Control_c, 0, 64, 105
1, 161440, Control_c, 0, 64, 107
1, 161454, Control_c, 0, 64, 108
1, 161484, Control_c, 0, 64, 109
1, 161544, Control_c, 0, 64, 103
1, 161556, Note_off_c, 0, 82, 53
1, 161558, Control_c, 0, 64, 85
1, 161573, Control_c, 0, 64, 70
1, 161577, Note_on_c, 0, 64, 38
1, 161588, Control_c, 0, 64, 34
1, 161590, Note_on_c, 0, 83, 54
1, 161607, Note_on_c, 0, 55, 24
1, 161610, Control_c, 0, 64, 0
1, 161640, Control_c, 0, 64, 55
1, 161641, Poly_aftertouch_c, 0, 59, 127
1, 161654, Control_c, 0, 64, 68
1, 161669, Control_c, 0, 64, 75
1, 161684, Control_c, 0, 64, 81
1, 161699, Control_c, 0, 64, 82
1, 161742, Note_off_c, 0, 83, 59
1, 161773, Control_c, 0, 64, 83
1, 161780, Note_on_c, 0, 78, 57
1, 161803, Control_c, 0, 64, 83
1, 161818, Control_c, 0, 64, 84
1, 161833, Control_c, 0, 64, 84
1, 161892, Control_c, 0, 64, 83
1, 161907, Control_c, 0, 64, 77
1, 161922, Control_c, 0, 64, 67
1, 161937, Control_c, 0, 64, 32
1, 161945, Note_off_c, 0, 78, 61
1, 161952, Control_c, 0, 64, 0
1, 161960, Note_on_c, 0, 79, 56
1, 161962, Note_on_c, 0, 52, 34
1, 161982, Control_c, 0, 64, 46
1, 161996, Control_c, 0, 64, 64
1, 162011, Control_c, 0, 64, 71
1, 162018, Note_off_c, 0, 64, 61
1, 162026, Control_c, 0, 64, 77
1, 162027, Note_off_c, 0, 55, 41
1, 162041, Control_c, 0, 64, 79
1, 162042, Note_off_c, 0, 52, 59
1, 162056, Control_c, 0, 64, 80
1, 162060, Poly_aftertouch_c, 0, 59, 0
1, 162070, Control_c, 0, 64, 80
1, 162085, Control_c, 0, 64, 81
1, 162100, Control_c, 0, 64, 81
1, 162113, Note_off_c, 0, 79, 51
1, 162148, Note_on_c, 0, 76, 51
1, 162159, Control_c, 0, 64, 82
1, 162233, Control_c, 0, 64, 81
1, 162263, Control_c, 0, 64, 81
1, 162277, Control_c, 0, 64, 80
1, 162292, Control_c, 0, 64, 78
1, 162307, Control_c, 0, 64, 73
1, 162322, Control_c, 0, 64, 67
1, 162322, Note_off_c, 0, 76, 53
1, 162336, Control_c, 0, 64, 58
1, 162354, Note_on_c, 0, 74, 47
1, 162357, Note_on_c, 0, 59, 20
1, 162359, Control_c, 0, 64, 0
1, 162362, Note_on_c, 0, 62, 24
1, 162365, Note_on_c, 0, 54, 21
1, 162542, Note_off_c, 0, 74, 58
1, 162556, Note_on_c, 0, 71, 46
1, 162716, Control_c, 0, 64, 37
1, 162728, Note_off_c, 0, 62, 44
1, 162731, Control_c, 0, 64, 60
1, 162745, Control_c, 0, 64, 67
1, 162760, Control_c, 0, 64, 72
1, 162762, Note_on_c, 0, 61, 19
1, 162775, Control_c, 0, 64, 75
1, 162790, Control_c, 0, 64, 79
1, 162800, Note_off_c, 0, 59, 42
1, 162805, Control_c, 0, 64, 82
1, 162819, Control_c, 0, 64, 85
1, 162834, Control_c, 0, 64, 88
1, 162844, Note_off_c, 0, 61, 52
1, 162849, Control_c, 0, 64, 91
1, 162864, Control_c, 0, 64, 92
1, 162867, Note_off_c, 0, 71, 55
1, 162879, Control_c, 0, 64, 93
1, 162894, Control_c, 0, 64, 94
1, 162906, Note_off_c, 0, 54, 43
1, 162955, Note_on_c, 0, 70, 39
1, 162983, Control_c, 0, 67, 8
1, 162998, Control_c, 0, 67, 10
1, 163013, Control_c, 0, 64, 93
1, 163013, Control_c, 0, 67, 12
1, 163027, Control_c, 0, 67, 14
1, 163042, Control_c, 0, 67, 16
1, 163057, Control_c, 0, 64, 93
1, 163057, Control_c, 0, 67, 17
1, 163071, Control_c, 0, 67, 17
1, 163086, Control_c, 0, 64, 92
1, 163086, Control_c, 0, 67, 18
1, 163109, Control_c, 0, 64, 91
1, 163123, Control_c, 0, 64, 88
1, 163138, Control_c, 0, 64, 82
1, 163141, Note_off_c, 0, 70, 63
1, 163153, Control_c, 0, 64, 73
1, 163168, Control_c, 0, 64, 64
1, 163177, Note_on_c, 0, 71, 39
1, 163183, Control_c, 0, 64, 0
1, 163183, Control_c, 0, 67, 17
1, 163185, Note_on_c, 0, 55, 32
1, 163198, Control_c, 0, 67, 15
1, 163213, Control_c, 0, 67, 12
1, 163227, Control_c, 0, 64, 39
1, 163227, Control_c, 0, 67, 9
1, 163242, Control_c, 0, 64, 63
1, 163242, Control_c, 0, 67, 0
1, 163257, Control_c, 0, 64, 69
1, 163272, Control_c, 0, 64, 72
1, 163286, Control_c, 0, 64, 74
1, 163301, Control_c, 0, 64, 76
1, 163316, Control_c, 0, 64, 77
1, 163331, Control_c, 0, 64, 78
1, 163343, Note_off_c, 0, 71, 57
1, 163346, Control_c, 0, 64, 80
1, 163360, Control_c, 0, 64, 82
1, 163375, Control_c, 0, 64, 83
1, 163390, Control_c, 0, 64, 84
1, 163391, Note_on_c, 0, 66, 32
1, 163405, Control_c, 0, 64, 85
1, 163420, Control_c, 0, 64, 85
1, 163434, Control_c, 0, 64, 86
1, 163464, Control_c, 0, 64, 86
1, 163539, Control_c, 0, 64, 86
1, 163549, Note_off_c, 0, 66, 55
1, 163554, Control_c, 0, 64, 83
1, 163567, Note_on_c, 0, 67, 47
1, 163568, Control_c, 0, 64, 77
1, 163571, Note_on_c, 0, 52, 38
1, 163583, Control_c, 0, 64, 68
1, 163585, Note_off_c, 0, 55, 41
1, 163598, Control_c, 0, 64, 59
1, 163613, Control_c, 0, 64, 41
1, 163628, Control_c, 0, 64, 45
1, 163642, Control_c, 0, 64, 62
1, 163657, Control_c, 0, 64, 68
1, 163672, Control_c, 0, 64, 71
1, 163687, Control_c, 0, 64, 73
1, 163702, Control_c, 0, 64, 74
1, 163717, Control_c, 0, 64, 75
1, 163729, Note_off_c, 0, 67, 56
1, 163732, Control_c, 0, 64, 77
1, 163746, Control_c, 0, 64, 78
1, 163755, Note_on_c, 0, 64, 42
1, 163761, Control_c, 0, 64, 78
1, 163776, Control_c, 0, 64, 79
1, 163787, Note_off_c, 0, 52, 40
1, 163791, Control_c, 0, 64, 80
1, 163821, Control_c, 0, 64, 80
1, 163887, Control_c, 0, 64, 80
1, 163901, Control_c, 0, 64, 79
1, 163916, Control_c, 0, 64, 76
1, 163931, Control_c, 0, 64, 71
1, 163946, Note_off_c, 0, 64, 48
1, 163946, Control_c, 0, 64, 65
1, 163961, Control_c, 0, 64, 56
1, 163970, Note_on_c, 0, 62, 35
1, 163976, Control_c, 0, 64, 0
1, 163991, Note_on_c, 0, 54, 17
1, 164185, Note_off_c, 0, 62, 44
1, 164193, Note_on_c, 0, 59, 35
1, 164273, Control_c, 0, 64, 35
1, 164288, Control_c, 0, 64, 56
1, 164303, Control_c, 0, 64, 63
1, 164317, Control_c, 0, 64, 66
1, 164332, Control_c, 0, 64, 67
1, 164347, Control_c, 0, 64, 69
1, 164362, Control_c, 0, 64, 71
1, 164377, Control_c, 0, 64, 73
1, 164388, Note_on_c, 0, 42, 30
1, 164392, Control_c, 0, 64, 76
1, 164406, Control_c, 0, 64, 79
1, 164421, Control_c, 0, 64, 81
1, 164436, Control_c, 0, 64, 83
1, 164451, Control_c, 0, 64, 86
1, 164465, Control_c, 0, 64, 89
1, 164480, Control_c, 0, 64, 91
1, 164495, Control_c, 0, 64, 93
1, 164507, Note_off_c, 0, 42, 35
1, 164510, Control_c, 0, 64, 94
1, 164524, Control_c, 0, 64, 95
1, 164539, Control_c, 0, 64, 96
1, 164554, Control_c, 0, 64, 97
1, 164560, Note_off_c, 0, 54, 42
1, 164569, Control_c, 0, 64, 97
1, 164586, Note_off_c, 0, 59, 37
1, 164599, Note_on_c, 0, 58, 43
1, 164680, Control_c, 0, 64, 98
1, 164782, Note_off_c, 0, 58, 59
1, 164813, Control_c, 0, 64, 97
1, 164816, Note_on_c, 0, 59, 49
1, 164828, Note_on_c, 0, 47, 37
1, 164828, Control_c, 0, 64, 94
1, 164843, Control_c, 0, 64, 85
1, 164858, Control_c, 0, 64, 73
1, 164872, Control_c, 0, 64, 62
1, 164887, Control_c, 0, 64, 0
1, 164916, Control_c, 0, 64, 46
1, 164931, Control_c, 0, 64, 63
1, 164946, Control_c, 0, 64, 68
1, 164961, Control_c, 0, 64, 72
1, 164976, Control_c, 0, 64, 76
1, 164991, Control_c, 0, 64, 79
1, 165005, Control_c, 0, 64, 82
1, 165019, Note_on_c, 0, 64, 58
1, 165020, Note_off_c, 0, 59, 50
1, 165020, Control_c, 0, 64, 84
1, 165035, Control_c, 0, 64, 87
1, 165049, Control_c, 0, 64, 89
1, 165064, Control_c, 0, 64, 91
1, 165081, Control_c, 0, 64, 93
1, 165095, Control_c, 0, 64, 95
1, 165110, Control_c, 0, 64, 96
1, 165125, Control_c, 0, 64, 97
1, 165197, Note_off_c, 0, 64, 52
1, 165199, Control_c, 0, 64, 91
1, 165201, Note_on_c, 0, 63, 70
1, 165213, Note_on_c, 0, 54, 49
1, 165214, Control_c, 0, 64, 79
1, 165228, Control_c, 0, 64, 69
1, 165243, Control_c, 0, 64, 59
1, 165258, Control_c, 0, 64, 53
1, 165273, Control_c, 0, 64, 62
1, 165288, Control_c, 0, 64, 67
1, 165302, Control_c, 0, 64, 72
1, 165317, Control_c, 0, 64, 75
1, 165332, Control_c, 0, 64, 77
1, 165354, Control_c, 0, 64, 79
1, 165369, Control_c, 0, 64, 81
1, 165384, Control_c, 0, 64, 82
1, 165386, Note_on_c, 0, 66, 70
1, 165399, Control_c, 0, 64, 83
1, 165407, Note_off_c, 0, 63, 54
1, 165414, Control_c, 0, 64, 84
1, 165428, Control_c, 0, 64, 85
1, 165443, Control_c, 0, 64, 86
1, 165459, Control_c, 0, 64, 88
1, 165473, Control_c, 0, 64, 88
1, 165488, Control_c, 0, 64, 89
1, 165547, Control_c, 0, 64, 84
1, 165559, Note_off_c, 0, 66, 58
1, 165562, Control_c, 0, 64, 73
1, 165565, Note_off_c, 0, 54, 53
1, 165572, Note_on_c, 0, 55, 51
1, 165577, Control_c, 0, 64, 59
1, 165580, Note_on_c, 0, 64, 67
1, 165592, Control_c, 0, 64, 0
1, 165593, Note_off_c, 0, 47, 45
1, 165636, Control_c, 0, 64, 21
1, 165651, Control_c, 0, 64, 64
1, 165666, Control_c, 0, 64, 70
1, 165681, Control_c, 0, 64, 74
1, 165696, Control_c, 0, 64, 76
1, 165711, Control_c, 0, 64, 78
1, 165726, Control_c, 0, 64, 80
1, 165735, Note_off_c, 0, 64, 57
1, 165740, Control_c, 0, 64, 82
1, 165755, Control_c, 0, 64, 83
1, 165770, Control_c, 0, 64, 85
1, 165770, Note_on_c, 0, 71, 69
1, 165785, Control_c, 0, 64, 86
1, 165800, Control_c, 0, 64, 88
1, 165805, Note_off_c, 0, 55, 47
1, 165814, Control_c, 0, 64, 89
1, 165829, Control_c, 0, 64, 91
1, 165844, Control_c, 0, 64, 92
1, 165875, Control_c, 0, 64, 92
1, 165889, Control_c, 0, 64, 93
1, 165958, Note_off_c, 0, 71, 50
1, 165958, Note_on_c, 0, 70, 76
1, 165960, Note_on_c, 0, 55, 46
1, 165964, Control_c, 0, 64, 89
1, 165970, Note_on_c, 0, 52, 50
1, 165978, Control_c, 0, 64, 78
1, 165993, Control_c, 0, 64, 65
1, 166008, Control_c, 0, 64, 0
1, 166052, Control_c, 0, 64, 46
1, 166067, Control_c, 0, 64, 65
1, 166082, Control_c, 0, 64, 70
1, 166104, Control_c, 0, 64, 74
1, 166119, Control_c, 0, 64, 77
1, 166134, Control_c, 0, 64, 80
1, 166149, Control_c, 0, 64, 82
1, 166152, Note_on_c, 0, 73, 75
1, 166161, Note_off_c, 0, 70, 56
1, 166164, Control_c, 0, 64, 84
1, 166178, Control_c, 0, 64, 86
1, 166193, Control_c, 0, 64, 88
1, 166208, Control_c, 0, 64, 90
1, 166223, Control_c, 0, 64, 92
1, 166233, Note_off_c, 0, 52, 36
1, 166238, Control_c, 0, 64, 93
1, 166244, Note_off_c, 0, 55, 36
1, 166252, Control_c, 0, 64, 93
1, 166311, Control_c, 0, 64, 93
1, 166326, Control_c, 0, 64, 85
1, 166337, Note_off_c, 0, 73, 55
1, 166341, Control_c, 0, 64, 72
1, 166356, Note_on_c, 0, 71, 66
1, 166356, Control_c, 0, 64, 35
1, 166367, Note_on_c, 0, 50, 41
1, 166370, Control_c, 0, 64, 0
1, 166378, Note_on_c, 0, 54, 35
1, 166430, Control_c, 0, 64, 59
1, 166444, Control_c, 0, 64, 68
1, 166459, Control_c, 0, 64, 73
1, 166474, Control_c, 0, 64, 76
1, 166489, Control_c, 0, 64, 77
1, 166504, Control_c, 0, 64, 78
1, 166519, Control_c, 0, 64, 79
1, 166534, Note_off_c, 0, 71, 40
1, 166534, Control_c, 0, 64, 80
1, 166544, Note_on_c, 0, 66, 69
1, 166549, Control_c, 0, 64, 80
1, 166563, Control_c, 0, 64, 81
1, 166578, Control_c, 0, 64, 81
1, 166608, Note_off_c, 0, 54, 45
1, 166625, Note_off_c, 0, 50, 33
1, 166652, Control_c, 0, 64, 81
1, 166668, Control_c, 0, 64, 80
1, 166683, Control_c, 0, 64, 78
1, 166698, Control_c, 0, 64, 76
1, 166712, Control_c, 0, 64, 73
1, 166726, Note_off_c, 0, 66, 61
1, 166727, Control_c, 0, 64, 70
1, 166742, Note_on_c, 0, 55, 40
1, 166742, Control_c, 0, 64, 67
1, 166747, Note_on_c, 0, 52, 42
1, 166747, Note_on_c, 0, 67, 64
1, 166757, Control_c, 0, 64, 64
1, 166772, Control_c, 0, 64, 60
1, 166786, Control_c, 0, 64, 27
1, 166801, Control_c, 0, 64, 0
1, 166941, Note_off_c, 0, 67, 57
1, 166948, Note_on_c, 0, 64, 63
1, 167145, Note_off_c, 0, 64, 57
1, 167149, Note_on_c, 0, 62, 54
1, 167150, Note_off_c, 0, 55, 37
1, 167173, Note_on_c, 0, 54, 44
1, 167198, Note_off_c, 0, 52, 33
1, 167347, Note_off_c, 0, 62, 57
1, 167357, Note_on_c, 0, 59, 54
1, 167568, Note_on_c, 0, 42, 44
1, 167615, Control_c, 0, 64, 53
1, 167630, Control_c, 0, 64, 63
1, 167634, Note_off_c, 0, 54, 37
1, 167645, Control_c, 0, 64, 68
1, 167660, Control_c, 0, 64, 71
1, 167674, Control_c, 0, 64, 72
1, 167689, Control_c, 0, 64, 73
1, 167704, Control_c, 0, 64, 74
1, 167719, Control_c, 0, 64, 76
1, 167734, Control_c, 0, 64, 78
1, 167748, Control_c, 0, 64, 79
1, 167763, Control_c, 0, 64, 79
1, 167787, Note_on_c, 0, 58, 58
1, 167824, Note_off_c, 0, 59, 58
1, 167837, Control_c, 0, 64, 79
1, 167852, Control_c, 0, 64, 78
1, 167866, Control_c, 0, 64, 78
1, 167881, Control_c, 0, 64, 77
1, 167896, Control_c, 0, 64, 76
1, 167911, Control_c, 0, 64, 74
1, 167926, Control_c, 0, 64, 72
1, 167941, Control_c, 0, 64, 70
1, 167956, Control_c, 0, 64, 68
1, 167969, Note_off_c, 0, 42, 44
1, 167970, Control_c, 0, 64, 66
1, 167985, Note_on_c, 0, 47, 41
1, 167985, Control_c, 0, 64, 63
1, 168000, Control_c, 0, 64, 57
1, 168015, Control_c, 0, 64, 30
1, 168030, Control_c, 0, 64, 0
1, 168178, Control_c, 0, 67, 8
1, 168193, Control_c, 0, 67, 9
1, 168200, Note_on_c, 0, 59, 46
1, 168208, Control_c, 0, 67, 11
1, 168209, Note_off_c, 0, 58, 46
1, 168222, Control_c, 0, 67, 12
1, 168237, Control_c, 0, 67, 14
1, 168252, Control_c, 0, 67, 16
1, 168268, Control_c, 0, 67, 19
1, 168282, Control_c, 0, 67, 20
1, 168297, Control_c, 0, 67, 22
1, 168312, Control_c, 0, 67, 24
1, 168327, Control_c, 0, 67, 25
1, 168349, Control_c, 0, 67, 27
1, 168364, Control_c, 0, 67, 29
1, 168379, Control_c, 0, 67, 30
1, 168394, Control_c, 0, 67, 32
1, 168409, Control_c, 0, 67, 34
1, 168424, Control_c, 0, 67, 36
1, 168438, Control_c, 0, 67, 37
1, 168449, Note_on_c, 0, 45, 29
1, 168453, Control_c, 0, 67, 38
1, 168454, Note_off_c, 0, 47, 46
1, 168468, Control_c, 0, 67, 39
1, 168483, Control_c, 0, 67, 40
1, 168498, Control_c, 0, 67, 41
1, 168513, Control_c, 0, 67, 42
1, 168528, Control_c, 0, 67, 44
1, 168543, Control_c, 0, 67, 45
1, 168558, Control_c, 0, 67, 47
1, 168572, Control_c, 0, 67, 48
1, 168587, Control_c, 0, 67, 50
1, 168602, Control_c, 0, 67, 52
1, 168617, Control_c, 0, 67, 54
1, 168632, Control_c, 0, 67, 56
1, 168632, Note_off_c, 0, 59, 49
1, 168645, Note_on_c, 0, 57, 49
1, 168646, Control_c, 0, 64, 28
1, 168646, Control_c, 0, 67, 58
1, 168661, Control_c, 0, 64, 61
1, 168661, Control_c, 0, 67, 60
1, 168676, Control_c, 0, 64, 68
1, 168676, Control_c, 0, 67, 64
1, 168690, Control_c, 0, 64, 73
1, 168690, Control_c, 0, 67, 68
1, 168705, Control_c, 0, 64, 77
1, 168705, Control_c, 0, 67, 75
1, 168720, Control_c, 0, 64, 82
1, 168720, Control_c, 0, 67, 84
1, 168735, Control_c, 0, 64, 88
1, 168735, Control_c, 0, 67, 96
1, 168750, Control_c, 0, 64, 94
1, 168750, Control_c, 0, 67, 111
1, 168764, Control_c, 0, 64, 97
1, 168764, Control_c, 0, 67, 127
1, 168768, Note_off_c, 0, 45, 41
1, 168779, Control_c, 0, 64, 98
1, 168809, Control_c, 0, 64, 99
1, 168838, Control_c, 0, 64, 100
1, 168854, Note_off_c, 0, 57, 35
1, 168868, Control_c, 0, 64, 99
1, 168881, Note_on_c, 0, 45, 38
1, 168912, Control_c, 0, 64, 99
1, 168927, Control_c, 0, 64, 98
1, 168942, Control_c, 0, 64, 96
1, 168943, Note_off_c, 0, 45, 47
1, 168957, Control_c, 0, 64, 93
1, 168966, Note_on_c, 0, 57, 53
1, 168972, Control_c, 0, 64, 87
1, 168987, Control_c, 0, 64, 79
1, 168991, Note_on_c, 0, 43, 34
1, 168991, Note_off_c, 0, 57, 63
1, 169002, Control_c, 0, 64, 71
1, 169016, Control_c, 0, 64, 64
1, 169018, Note_on_c, 0, 55, 52
1, 169028, Note_off_c, 0, 43, 45
1, 169031, Control_c, 0, 64, 58
1, 169044, Note_off_c, 0, 55, 57
1, 169046, Control_c, 0, 64, 45
1, 169049, Note_on_c, 0, 45, 31
1, 169059, Note_on_c, 0, 57, 66
1, 169061, Control_c, 0, 64, 0
1, 169088, Note_off_c, 0, 45, 48
1, 169093, Note_off_c, 0, 57, 67
1, 169120, Note_on_c, 0, 55, 57
1, 169122, Note_on_c, 0, 43, 17
1, 169210, Note_off_c, 0, 55, 0
1, 169210, Note_on_c, 0, 55, 8
1, 169395, Control_c, 0, 64, 53
1, 169410, Control_c, 0, 64, 65
1, 169425, Control_c, 0, 64, 70
1, 169439, Control_c, 0, 64, 73
1, 169454, Control_c, 0, 64, 77
1, 169469, Control_c, 0, 64, 82
1, 169484, Control_c, 0, 64, 90
1, 169499, Control_c, 0, 64, 99
1, 169513, Control_c, 0, 64, 107
1, 169528, Control_c, 0, 64, 116
1, 169530, Note_off_c, 0, 43, 41
1, 169543, Control_c, 0, 64, 127
1, 169649, Note_off_c, 0, 55, 43
1, 170143, Control_c, 0, 64, 108
1, 170149, Note_on_c, 0, 54, 37
1, 170152, Note_on_c, 0, 30, 34
1, 170158, Control_c, 0, 64, 92
1, 170173, Control_c, 0, 64, 79
1, 170175, Note_on_c, 0, 42, 22
1, 170188, Control_c, 0, 64, 68
1, 170203, Control_c, 0, 64, 19
1, 170218, Control_c, 0, 64, 0
1, 170351, Control_c, 0, 64, 53
1, 170366, Control_c, 0, 64, 64
1, 170381, Control_c, 0, 64, 68
1, 170396, Control_c, 0, 64, 70
1, 170410, Control_c, 0, 64, 73
1, 170425, Control_c, 0, 64, 77
1, 170431, Note_on_c, 0, 59, 17
1, 170440, Control_c, 0, 64, 83
1, 170454, Control_c, 0, 64, 88
1, 170462, Note_off_c, 0, 54, 43
1, 170469, Control_c, 0, 64, 93
1, 170484, Control_c, 0, 64, 96
1, 170499, Control_c, 0, 64, 101
1, 170514, Control_c, 0, 64, 105
1, 170528, Control_c, 0, 64, 108
1, 170543, Control_c, 0, 64, 111
1, 170558, Control_c, 0, 64, 112
1, 170573, Control_c, 0, 64, 113
1, 170596, Control_c, 0, 64, 114
1, 170601, Note_off_c, 0, 59, 41
1, 170611, Control_c, 0, 64, 115
1, 170625, Control_c, 0, 64, 117
1, 170640, Control_c, 0, 64, 119
1, 170643, Note_on_c, 0, 58, 32
1, 170655, Control_c, 0, 64, 121
1, 170671, Control_c, 0, 64, 123
1, 170686, Control_c, 0, 64, 124
1, 170729, Control_c, 0, 64, 126
1, 170744, Control_c, 0, 64, 127
1, 170821, Note_off_c, 0, 58, 41
1, 170838, Note_on_c, 0, 62, 36
1, 170886, Note_off_c, 0, 62, 50
1, 170996, Control_c, 0, 64, 117
1, 171011, Control_c, 0, 64, 98
1, 171023, Note_on_c, 0, 61, 47
1, 171026, Control_c, 0, 64, 81
1, 171040, Control_c, 0, 64, 65
1, 171055, Control_c, 0, 64, 0
1, 171099, Control_c, 0, 64, 48
1, 171114, Control_c, 0, 64, 64
1, 171129, Control_c, 0, 64, 70
1, 171144, Control_c, 0, 64, 74
1, 171158, Control_c, 0, 64, 78
1, 171173, Control_c, 0, 64, 79
1, 171188, Control_c, 0, 64, 82
1, 171203, Control_c, 0, 64, 84
1, 171206, Note_off_c, 0, 61, 46
1, 171218, Control_c, 0, 64, 87
1, 171221, Note_on_c, 0, 67, 36
1, 171232, Control_c, 0, 64, 90
1, 171247, Control_c, 0, 64, 92
1, 171262, Control_c, 0, 64, 93
1, 171276, Control_c, 0, 64, 94
1, 171291, Control_c, 0, 64, 94
1, 171321, Control_c, 0, 64, 95
1, 171358, Control_c, 0, 64, 94
1, 171367, Note_off_c, 0, 67, 44
1, 171373, Control_c, 0, 64, 86
1, 171388, Control_c, 0, 64, 74
1, 171402, Note_on_c, 0, 66, 43
1, 171403, Control_c, 0, 64, 61
1, 171417, Control_c, 0, 64, 0
1, 171447, Control_c, 0, 64, 47
1, 171463, Control_c, 0, 64, 64
1, 171478, Control_c, 0, 64, 70
1, 171493, Control_c, 0, 64, 74
1, 171507, Control_c, 0, 64, 77
1, 171522, Control_c, 0, 64, 79
1, 171537, Control_c, 0, 64, 83
1, 171552, Control_c, 0, 64, 87
1, 171565, Note_off_c, 0, 66, 36
1, 171567, Control_c, 0, 64, 90
1, 171579, Note_on_c, 0, 71, 49
1, 171581, Control_c, 0, 64, 93
1, 171596, Control_c, 0, 64, 96
1, 171611, Control_c, 0, 64, 99
1, 171626, Control_c, 0, 64, 102
1, 171641, Control_c, 0, 64, 104
1, 171650, Note_off_c, 0, 71, 63
1, 171656, Control_c, 0, 64, 105
1, 171670, Control_c, 0, 64, 106
1, 171744, Control_c, 0, 64, 104
1, 171759, Control_c, 0, 64, 92
1, 171768, Note_on_c, 0, 70, 50
1, 171774, Control_c, 0, 64, 76
1, 171789, Control_c, 0, 64, 59
1, 171804, Control_c, 0, 64, 0
1, 171833, Control_c, 0, 64, 41
1, 171848, Control_c, 0, 64, 63
1, 171863, Control_c, 0, 64, 69
1, 171878, Control_c, 0, 64, 71
1, 171893, Control_c, 0, 64, 70
1, 171950, Note_off_c, 0, 70, 46
1, 171952, Control_c, 0, 64, 71
1, 171958, Note_on_c, 0, 74, 51
1, 171967, Control_c, 0, 64, 72
1, 171981, Control_c, 0, 64, 73
1, 171996, Control_c, 0, 64, 74
1, 172011, Control_c, 0, 64, 74
1, 172055, Control_c, 0, 64, 74
1, 172070, Control_c, 0, 64, 73
1, 172093, Control_c, 0, 64, 69
1, 172107, Control_c, 0, 64, 62
1, 172122, Control_c, 0, 64, 50
1, 172129, Note_off_c, 0, 74, 57
1, 172137, Control_c, 0, 64, 42
1, 172152, Control_c, 0, 64, 46
1, 172154, Note_on_c, 0, 73, 53
1, 172167, Control_c, 0, 64, 58
1, 172181, Control_c, 0, 64, 66
1, 172197, Control_c, 0, 64, 72
1, 172212, Control_c, 0, 64, 77
1, 172227, Control_c, 0, 64, 80
1, 172287, Control_c, 0, 64, 80
1, 172302, Control_c, 0, 64, 77
1, 172317, Control_c, 0, 64, 72
1, 172327, Note_on_c, 0, 78, 53
1, 172331, Control_c, 0, 64, 67
1, 172343, Note_off_c, 0, 73, 38
1, 172343, Note_off_c, 0, 30, 0
1, 172346, Control_c, 0, 64, 65
1, 172361, Control_c, 0, 64, 65
1, 172376, Control_c, 0, 64, 68
1, 172381, Poly_aftertouch_c, 0, 30, 127
1, 172391, Control_c, 0, 64, 72
1, 172405, Control_c, 0, 64, 74
1, 172420, Control_c, 0, 64, 76
1, 172435, Control_c, 0, 64, 75
1, 172450, Control_c, 0, 64, 75
1, 172464, Control_c, 0, 64, 74
1, 172479, Control_c, 0, 64, 74
1, 172485, Note_off_c, 0, 78, 58
1, 172494, Control_c, 0, 64, 70
1, 172509, Control_c, 0, 64, 63
1, 172521, Note_on_c, 0, 76, 44
1, 172524, Control_c, 0, 64, 36
1, 172538, Control_c, 0, 64, 0
1, 172568, Control_c, 0, 64, 11
1, 172583, Control_c, 0, 64, 62
1, 172598, Control_c, 0, 64, 68
1, 172612, Control_c, 0, 64, 72
1, 172627, Control_c, 0, 64, 74
1, 172642, Control_c, 0, 64, 76
1, 172656, Control_c, 0, 64, 78
1, 172664, Poly_aftertouch_c, 0, 30, 0
1, 172671, Control_c, 0, 64, 80
1, 172686, Control_c, 0, 64, 81
1, 172699, Note_on_c, 0, 74, 56
1, 172701, Control_c, 0, 64, 83
1, 172716, Note_off_c, 0, 76, 36
1, 172716, Control_c, 0, 64, 85
1, 172731, Control_c, 0, 64, 86
1, 172744, Note_off_c, 0, 74, 59
1, 172746, Control_c, 0, 64, 88
1, 172757, Note_off_c, 0, 42, 43
1, 172761, Control_c, 0, 64, 89
1, 172776, Control_c, 0, 64, 90
1, 172791, Control_c, 0, 64, 90
1, 172865, Note_on_c, 0, 74, 63
1, 172905, Note_off_c, 0, 74, 59
1, 172916, Control_c, 0, 64, 90
1, 172926, Note_on_c, 0, 73, 66
1, 172931, Control_c, 0, 64, 88
1, 172946, Control_c, 0, 64, 86
1, 172960, Control_c, 0, 64, 83
1, 172975, Control_c, 0, 64, 77
1, 172990, Control_c, 0, 64, 70
1, 173005, Control_c, 0, 64, 64
1, 173013, Note_off_c, 0, 73, 46
1, 173020, Control_c, 0, 64, 55
1, 173035, Control_c, 0, 64, 42
1, 173050, Note_on_c, 0, 71, 43
1, 173050, Control_c, 0, 64, 45
1, 173065, Control_c, 0, 64, 59
1, 173080, Control_c, 0, 64, 65
1, 173095, Control_c, 0, 64, 69
1, 173109, Control_c, 0, 64, 71
1, 173124, Control_c, 0, 64, 72
1, 173139, Control_c, 0, 64, 73
1, 173212, Note_off_c, 0, 71, 62
1, 173228, Control_c, 0, 64, 72
1, 173243, Control_c, 0, 64, 72
1, 173247, Note_on_c, 0, 66, 48
1, 173258, Control_c, 0, 64, 69
1, 173259, Note_on_c, 0, 42, 32
1, 173273, Control_c, 0, 64, 65
1, 173287, Control_c, 0, 64, 57
1, 173302, Control_c, 0, 64, 0
1, 173347, Control_c, 0, 64, 29
1, 173361, Control_c, 0, 64, 61
1, 173376, Control_c, 0, 64, 66
1, 173391, Control_c, 0, 64, 68
1, 173406, Control_c, 0, 64, 69
1, 173416, Note_off_c, 0, 66, 52
1, 173443, Note_on_c, 0, 67, 43
1, 173463, Note_on_c, 0, 47, 38
1, 173464, Note_off_c, 0, 42, 43
1, 173509, Control_c, 0, 64, 69
1, 173524, Note_off_c, 0, 67, 60
1, 173539, Control_c, 0, 64, 68
1, 173540, Note_on_c, 0, 66, 51
1, 173554, Control_c, 0, 64, 67
1, 173569, Control_c, 0, 64, 66
1, 173591, Control_c, 0, 64, 64
1, 173606, Control_c, 0, 64, 62
1, 173607, Note_off_c, 0, 66, 57
1, 173618, Note_on_c, 0, 46, 50
1, 173620, Control_c, 0, 64, 54
1, 173630, Note_off_c, 0, 47, 46
1, 173635, Control_c, 0, 64, 32
1, 173636, Note_on_c, 0, 67, 56
1, 173650, Control_c, 0, 64, 0
1, 173670, Note_off_c, 0, 67, 64
1, 173703, Note_on_c, 0, 66, 60
1, 173732, Note_off_c, 0, 66, 65
1, 173736, Note_off_c, 0, 46, 57
1, 173754, Note_on_c, 0, 67, 58
1, 173767, Note_on_c, 0, 50, 58
1, 173784, Note_off_c, 0, 67, 65
1, 173800, Note_on_c, 0, 66, 71
1, 173838, Note_off_c, 0, 66, 60
1, 173860, Note_on_c, 0, 67, 64
1, 173873, Control_c, 0, 67, 123
1, 173888, Control_c, 0, 67, 114
1, 173893, Note_off_c, 0, 67, 62
1, 173897, Note_off_c, 0, 50, 64
1, 173902, Control_c, 0, 67, 102
1, 173916, Note_on_c, 0, 49, 59
1, 173917, Control_c, 0, 67, 89
1, 173925, Note_on_c, 0, 66, 60
1, 173932, Control_c, 0, 67, 76
1, 173947, Control_c, 0, 67, 65
1, 173953, Note_off_c, 0, 66, 66
1, 173962, Control_c, 0, 67, 57
1, 173969, Note_on_c, 0, 67, 56
1, 173977, Control_c, 0, 67, 50
1, 173992, Control_c, 0, 67, 44
1, 174001, Note_off_c, 0, 67, 64
1, 174007, Control_c, 0, 67, 37
1, 174018, Note_on_c, 0, 66, 69
1, 174022, Control_c, 0, 67, 31
1, 174033, Note_off_c, 0, 49, 61
1, 174036, Control_c, 0, 67, 25
1, 174046, Note_off_c, 0, 66, 64
1, 174051, Control_c, 0, 67, 16
1, 174066, Control_c, 0, 67, 0
1, 174072, Note_on_c, 0, 67, 62
1, 174081, Note_on_c, 0, 55, 60
1, 174100, Note_off_c, 0, 67, 65
1, 174134, Note_on_c, 0, 66, 59
1, 174159, Note_off_c, 0, 66, 65
1, 174167, Note_on_c, 0, 67, 65
1, 174195, Note_off_c, 0, 67, 66
1, 174205, Note_off_c, 0, 55, 59
1, 174219, Note_on_c, 0, 66, 72
1, 174248, Note_on_c, 0, 54, 51
1, 174250, Note_off_c, 0, 66, 61
1, 174298, Note_on_c, 0, 67, 21
1, 174322, Note_on_c, 0, 66, 59
1, 174350, Note_off_c, 0, 67, 41
1, 174386, Note_off_c, 0, 54, 58
1, 174449, Note_on_c, 0, 59, 49
1, 174610, Note_off_c, 0, 59, 54
1, 174630, Note_on_c, 0, 58, 56
1, 174774, Note_off_c, 0, 58, 56
1, 174812, Note_on_c, 0, 62, 60
1, 174968, Note_off_c, 0, 62, 57
1, 174994, Note_on_c, 0, 61, 61
1, 174998, Note_off_c, 0, 66, 59
1, 175179, Note_on_c, 0, 66, 57
1, 175182, Note_off_c, 0, 61, 59
1, 175334, Note_off_c, 0, 66, 59
1, 175368, Note_on_c, 0, 64, 55
1, 175539, Note_off_c, 0, 64, 48
1, 175548, Note_on_c, 0, 62, 48
1, 175745, Note_on_c, 0, 74, 58
1, 175745, Note_off_c, 0, 62, 48
1, 175747, Note_on_c, 0, 61, 44
1, 175852, Control_c, 0, 64, 52
1, 175867, Control_c, 0, 64, 64
1, 175882, Control_c, 0, 64, 67
1, 175897, Control_c, 0, 64, 68
1, 175900, Note_off_c, 0, 61, 50
1, 175912, Control_c, 0, 64, 71
1, 175926, Control_c, 0, 64, 74
1, 175940, Note_on_c, 0, 59, 35
1, 175941, Control_c, 0, 64, 78
1, 175956, Control_c, 0, 64, 80
1, 175971, Control_c, 0, 64, 81
1, 175986, Control_c, 0, 64, 82
1, 176000, Control_c, 0, 64, 82
1, 176002, Note_off_c, 0, 74, 46
1, 176004, Note_off_c, 0, 59, 42
1, 176060, Control_c, 0, 64, 82
1, 176075, Control_c, 0, 64, 81
1, 176089, Control_c, 0, 64, 81
1, 176104, Control_c, 0, 64, 79
1, 176119, Control_c, 0, 64, 77
1, 176134, Control_c, 0, 64, 75
1, 176148, Control_c, 0, 64, 72
1, 176163, Note_on_c, 0, 76, 48
1, 176163, Control_c, 0, 64, 67
1, 176178, Control_c, 0, 64, 61
1, 176193, Control_c, 0, 64, 0
1, 176200, Note_on_c, 0, 58, 21
1, 176203, Note_on_c, 0, 64, 23
1, 176283, Control_c, 0, 64, 61
1, 176298, Control_c, 0, 64, 68
1, 176312, Note_off_c, 0, 58, 56
1, 176312, Control_c, 0, 64, 73
1, 176327, Control_c, 0, 64, 78
1, 176333, Note_off_c, 0, 64, 52
1, 176342, Control_c, 0, 64, 83
1, 176357, Note_off_c, 0, 76, 51
1, 176357, Control_c, 0, 64, 85
1, 176368, Note_on_c, 0, 74, 53
1, 176372, Control_c, 0, 64, 87
1, 176386, Control_c, 0, 64, 89
1, 176401, Control_c, 0, 64, 90
1, 176475, Control_c, 0, 64, 89
1, 176490, Control_c, 0, 64, 89
1, 176505, Control_c, 0, 64, 88
1, 176520, Control_c, 0, 64, 86
1, 176535, Control_c, 0, 64, 84
1, 176538, Note_off_c, 0, 74, 41
1, 176546, Note_on_c, 0, 73, 54
1, 176549, Control_c, 0, 64, 78
1, 176556, Note_on_c, 0, 64, 29
1, 176561, Note_on_c, 0, 59, 30
1, 176564, Control_c, 0, 64, 70
1, 176586, Control_c, 0, 64, 56
1, 176601, Control_c, 0, 64, 0
1, 176660, Control_c, 0, 64, 26
1, 176675, Control_c, 0, 64, 64
1, 176690, Control_c, 0, 64, 70
1, 176704, Control_c, 0, 64, 75
1, 176719, Control_c, 0, 64, 77
1, 176734, Control_c, 0, 64, 77
1, 176737, Note_on_c, 0, 71, 63
1, 176741, Note_off_c, 0, 73, 57
1, 176749, Control_c, 0, 64, 78
1, 176752, Note_off_c, 0, 64, 45
1, 176760, Note_off_c, 0, 59, 43
1, 176764, Control_c, 0, 64, 79
1, 176779, Control_c, 0, 64, 81
1, 176794, Control_c, 0, 64, 82
1, 176809, Control_c, 0, 64, 82
1, 176838, Control_c, 0, 64, 83
1, 176897, Control_c, 0, 64, 82
1, 176912, Note_off_c, 0, 71, 53
1, 176912, Control_c, 0, 64, 78
1, 176916, Note_on_c, 0, 76, 63
1, 176927, Control_c, 0, 64, 70
1, 176934, Note_on_c, 0, 64, 37
1, 176939, Note_on_c, 0, 58, 35
1, 176942, Control_c, 0, 64, 55
1, 176957, Control_c, 0, 64, 0
1, 176986, Control_c, 0, 64, 39
1, 177001, Control_c, 0, 64, 63
1, 177016, Control_c, 0, 64, 69
1, 177030, Control_c, 0, 64, 73
1, 177046, Control_c, 0, 64, 76
1, 177061, Control_c, 0, 64, 80
1, 177065, Note_off_c, 0, 58, 37
1, 177076, Control_c, 0, 64, 84
1, 177080, Note_on_c, 0, 74, 72
1, 177091, Control_c, 0, 64, 86
1, 177102, Note_off_c, 0, 64, 38
1, 177106, Control_c, 0, 64, 88
1, 177121, Control_c, 0, 64, 89
1, 177132, Note_off_c, 0, 76, 34
1, 177135, Control_c, 0, 64, 89
1, 177150, Control_c, 0, 64, 90
1, 177156, Note_off_c, 0, 74, 64
1, 177224, Control_c, 0, 64, 89
1, 177238, Note_on_c, 0, 74, 66
1, 177239, Control_c, 0, 64, 85
1, 177245, Note_on_c, 0, 64, 40
1, 177250, Note_on_c, 0, 59, 46
1, 177253, Control_c, 0, 64, 80
1, 177262, Note_off_c, 0, 74, 69
1, 177268, Control_c, 0, 64, 73
1, 177276, Note_on_c, 0, 73, 66
1, 177283, Control_c, 0, 64, 66
1, 177298, Control_c, 0, 64, 54
1, 177304, Note_off_c, 0, 73, 66
1, 177310, Note_off_c, 0, 59, 46
1, 177313, Note_on_c, 0, 74, 63
1, 177313, Control_c, 0, 64, 0
1, 177327, Note_off_c, 0, 64, 53
1, 177348, Note_off_c, 0, 74, 65
1, 177369, Note_on_c, 0, 73, 70
1, 177413, Note_off_c, 0, 73, 61
1, 177434, Note_on_c, 0, 71, 60
1, 177596, Note_off_c, 0, 71, 60
1, 177602, Control_c, 0, 64, 17
1, 177607, Note_on_c, 0, 64, 34
1, 177611, Note_on_c, 0, 76, 58
1, 177617, Control_c, 0, 64, 58
1, 177626, Note_on_c, 0, 58, 24
1, 177632, Control_c, 0, 64, 67
1, 177646, Control_c, 0, 64, 72
1, 177661, Control_c, 0, 64, 79
1, 177676, Control_c, 0, 64, 86
1, 177691, Control_c, 0, 64, 90
1, 177706, Control_c, 0, 64, 91
1, 177720, Control_c, 0, 64, 92
1, 177735, Control_c, 0, 64, 94
1, 177750, Control_c, 0, 64, 95
1, 177765, Control_c, 0, 64, 96
1, 177767, Note_off_c, 0, 58, 44
1, 177774, Note_off_c, 0, 64, 46
1, 177779, Control_c, 0, 64, 96
1, 177781, Note_on_c, 0, 74, 68
1, 177813, Note_off_c, 0, 76, 38
1, 177899, Control_c, 0, 64, 95
1, 177914, Control_c, 0, 64, 92
1, 177929, Control_c, 0, 64, 85
1, 177943, Control_c, 0, 64, 75
1, 177958, Note_on_c, 0, 73, 70
1, 177958, Control_c, 0, 64, 63
1, 177963, Note_on_c, 0, 59, 40
1, 177973, Control_c, 0, 64, 0
1, 177975, Note_on_c, 0, 64, 36
1, 177977, Note_off_c, 0, 74, 58
1, 178032, Control_c, 0, 64, 57
1, 178047, Control_c, 0, 64, 67
1, 178062, Control_c, 0, 64, 74
1, 178084, Control_c, 0, 64, 81
1, 178099, Control_c, 0, 64, 86
1, 178114, Control_c, 0, 64, 87
1, 178129, Control_c, 0, 64, 88
1, 178141, Note_off_c, 0, 59, 39
1, 178144, Control_c, 0, 64, 90
1, 178144, Note_on_c, 0, 71, 70
1, 178150, Note_off_c, 0, 64, 41
1, 178158, Control_c, 0, 64, 92
1, 178162, Note_off_c, 0, 73, 55
1, 178173, Control_c, 0, 64, 95
1, 178189, Control_c, 0, 64, 97
1, 178203, Control_c, 0, 64, 98
1, 178307, Control_c, 0, 64, 93
1, 178322, Control_c, 0, 64, 84
1, 178333, Note_on_c, 0, 58, 44
1, 178337, Note_on_c, 0, 76, 71
1, 178337, Control_c, 0, 64, 72
1, 178338, Note_off_c, 0, 71, 55
1, 178351, Control_c, 0, 64, 56
1, 178354, Note_on_c, 0, 64, 31
1, 178366, Control_c, 0, 64, 0
1, 178410, Control_c, 0, 64, 58
1, 178425, Control_c, 0, 64, 66
1, 178440, Control_c, 0, 64, 73
1, 178455, Control_c, 0, 64, 79
1, 178470, Control_c, 0, 64, 82
1, 178484, Control_c, 0, 64, 84
1, 178499, Control_c, 0, 64, 86
1, 178511, Note_off_c, 0, 64, 43
1, 178514, Control_c, 0, 64, 89
1, 178519, Note_on_c, 0, 74, 73
1, 178526, Note_off_c, 0, 76, 56
1, 178529, Control_c, 0, 64, 91
1, 178540, Note_off_c, 0, 58, 38
1, 178544, Control_c, 0, 64, 94
1, 178559, Control_c, 0, 64, 96
1, 178573, Control_c, 0, 64, 98
1, 178588, Control_c, 0, 64, 99
1, 178662, Note_off_c, 0, 74, 63
1, 178678, Control_c, 0, 64, 92
1, 178687, Note_on_c, 0, 55, 49
1, 178692, Note_on_c, 0, 64, 48
1, 178693, Control_c, 0, 64, 80
1, 178701, Note_on_c, 0, 73, 70
1, 178708, Control_c, 0, 64, 67
1, 178723, Control_c, 0, 64, 36
1, 178737, Control_c, 0, 64, 0
1, 178752, Control_c, 0, 64, 43
1, 178767, Control_c, 0, 64, 64
1, 178782, Control_c, 0, 64, 70
1, 178791, Note_off_c, 0, 55, 60
1, 178797, Control_c, 0, 64, 75
1, 178801, Note_off_c, 0, 64, 61
1, 178812, Control_c, 0, 64, 79
1, 178833, Control_c, 0, 64, 82
1, 178848, Control_c, 0, 64, 84
1, 178863, Control_c, 0, 64, 87
1, 178867, Note_off_c, 0, 73, 61
1, 178878, Control_c, 0, 64, 89
1, 178887, Note_on_c, 0, 83, 79
1, 178893, Control_c, 0, 64, 92
1, 178907, Control_c, 0, 64, 94
1, 178922, Control_c, 0, 64, 97
1, 178937, Control_c, 0, 64, 99
1, 178952, Control_c, 0, 64, 101
1, 178967, Control_c, 0, 64, 103
1, 178996, Control_c, 0, 64, 103
1, 179085, Control_c, 0, 64, 99
1, 179099, Control_c, 0, 64, 86
1, 179110, Note_on_c, 0, 54, 48
1, 179114, Control_c, 0, 64, 70
1, 179117, Note_on_c, 0, 82, 80
1, 179129, Control_c, 0, 64, 33
1, 179142, Note_off_c, 0, 83, 62
1, 179144, Control_c, 0, 64, 0
1, 179173, Control_c, 0, 64, 60
1, 179188, Control_c, 0, 64, 69
1, 179203, Control_c, 0, 64, 76
1, 179218, Control_c, 0, 64, 83
1, 179232, Control_c, 0, 64, 89
1, 179247, Control_c, 0, 64, 93
1, 179262, Control_c, 0, 64, 95
1, 179277, Control_c, 0, 64, 97
1, 179292, Control_c, 0, 64, 98
1, 179307, Control_c, 0, 64, 99
1, 179307, Note_off_c, 0, 54, 35
1, 179309, Note_on_c, 0, 79, 85
1, 179322, Control_c, 0, 64, 100
1, 179337, Control_c, 0, 64, 101
1, 179351, Control_c, 0, 64, 101
1, 179358, Note_off_c, 0, 82, 40
1, 179475, Note_on_c, 0, 58, 55
1, 179486, Control_c, 0, 64, 99
1, 179494, Note_on_c, 0, 78, 75
1, 179501, Note_off_c, 0, 79, 59
1, 179501, Control_c, 0, 64, 97
1, 179513, Note_off_c, 0, 58, 62
1, 179515, Control_c, 0, 64, 94
1, 179530, Control_c, 0, 64, 89
1, 179545, Note_on_c, 0, 59, 59
1, 179545, Control_c, 0, 64, 85
1, 179560, Control_c, 0, 64, 81
1, 179582, Control_c, 0, 64, 79
1, 179596, Control_c, 0, 64, 78
1, 179605, Note_on_c, 0, 58, 63
1, 179626, Control_c, 0, 64, 77
1, 179638, Note_off_c, 0, 58, 62
1, 179640, Note_off_c, 0, 59, 38
1, 179641, Control_c, 0, 64, 75
1, 179652, Note_off_c, 0, 78, 61
1, 179656, Control_c, 0, 64, 72
1, 179670, Note_on_c, 0, 56, 63
1, 179670, Control_c, 0, 64, 69
1, 179675, Note_on_c, 0, 76, 64
1, 179685, Control_c, 0, 64, 66
1, 179700, Control_c, 0, 64, 62
1, 179705, Note_off_c, 0, 56, 64
1, 179715, Control_c, 0, 64, 34
1, 179729, Control_c, 0, 64, 0
1, 179733, Note_on_c, 0, 58, 69
1, 179774, Note_off_c, 0, 58, 58
1, 179809, Note_off_c, 0, 76, 59
1, 179825, Note_on_c, 0, 59, 57
1, 179846, Note_on_c, 0, 75, 59
1, 179980, Control_c, 0, 64, 61
1, 179990, Note_off_c, 0, 75, 60
1, 179995, Control_c, 0, 64, 72
1, 180010, Control_c, 0, 64, 78
1, 180012, Note_off_c, 0, 59, 43
1, 180024, Note_on_c, 0, 72, 62
1, 180025, Control_c, 0, 64, 83
1, 180040, Control_c, 0, 64, 84
1, 180055, Control_c, 0, 64, 85
1, 180129, Control_c, 0, 64, 84
1, 180144, Control_c, 0, 64, 82
1, 180159, Control_c, 0, 64, 78
1, 180173, Control_c, 0, 64, 70
1, 180178, Note_off_c, 0, 72, 59
1, 180188, Control_c, 0, 64, 56
1, 180201, Note_on_c, 0, 51, 45
1, 180202, Note_on_c, 0, 71, 53
1, 180203, Control_c, 0, 64, 0
1, 180293, Control_c, 0, 64, 62
1, 180308, Control_c, 0, 64, 67
1, 180330, Control_c, 0, 64, 69
1, 180354, Note_off_c, 0, 71, 61
1, 180386, Note_on_c, 0, 69, 55
1, 180434, Control_c, 0, 64, 68
1, 180448, Control_c, 0, 64, 67
1, 180463, Control_c, 0, 64, 65
1, 180478, Control_c, 0, 64, 63
1, 180493, Control_c, 0, 64, 60
1, 180508, Control_c, 0, 64, 51
1, 180523, Control_c, 0, 64, 0
1, 180547, Note_off_c, 0, 69, 59
1, 180580, Note_on_c, 0, 52, 41
1, 180589, Note_on_c, 0, 67, 46
1, 180621, Note_off_c, 0, 51, 35
1, 180626, Control_c, 0, 67, 11
1, 180641, Control_c, 0, 67, 20
1, 180656, Control_c, 0, 67, 30
1, 180670, Control_c, 0, 67, 40
1, 180685, Control_c, 0, 67, 49
1, 180700, Control_c, 0, 67, 58
1, 180713, Note_off_c, 0, 52, 55
1, 180715, Control_c, 0, 67, 66
1, 180730, Control_c, 0, 67, 73
1, 180735, Note_off_c, 0, 67, 54
1, 180744, Control_c, 0, 67, 82
1, 180759, Control_c, 0, 67, 90
1, 180774, Control_c, 0, 67, 99
1, 180776, Note_on_c, 0, 78, 46
1, 180788, Control_c, 0, 67, 109
1, 180803, Control_c, 0, 67, 118
1, 180818, Control_c, 0, 67, 127
1, 180945, Note_off_c, 0, 78, 49
1, 180948, Note_on_c, 0, 76, 54
1, 180955, Note_on_c, 0, 55, 42
1, 180988, Note_off_c, 0, 55, 62
1, 181012, Note_off_c, 0, 76, 60
1, 181018, Note_on_c, 0, 57, 55
1, 181070, Note_off_c, 0, 57, 57
1, 181094, Note_on_c, 0, 55, 43
1, 181097, Note_on_c, 0, 74, 42
1, 181122, Note_off_c, 0, 55, 56
1, 181143, Note_on_c, 0, 54, 54
1, 181173, Note_off_c, 0, 54, 64
1, 181191, Note_on_c, 0, 55, 62
1, 181225, Note_off_c, 0, 55, 63
1, 181244, Note_off_c, 0, 74, 63
1, 181265, Note_on_c, 0, 73, 54
1, 181283, Note_on_c, 0, 57, 46
1, 181404, Control_c, 0, 64, 60
1, 181418, Control_c, 0, 64, 67
1, 181433, Control_c, 0, 64, 69
1, 181448, Control_c, 0, 64, 70
1, 181463, Control_c, 0, 64, 72
1, 181469, Note_on_c, 0, 71, 49
1, 181477, Note_off_c, 0, 57, 41
1, 181478, Control_c, 0, 64, 73
1, 181492, Control_c, 0, 64, 74
1, 181505, Note_off_c, 0, 73, 37
1, 181581, Control_c, 0, 64, 73
1, 181611, Control_c, 0, 64, 71
1, 181626, Control_c, 0, 64, 67
1, 181641, Control_c, 0, 64, 57
1, 181656, Control_c, 0, 64, 0
1, 181663, Note_on_c, 0, 69, 45
1, 181677, Note_on_c, 0, 45, 24
1, 181684, Note_off_c, 0, 71, 45
1, 181715, Control_c, 0, 64, 51
1, 181730, Control_c, 0, 64, 64
1, 181744, Control_c, 0, 64, 67
1, 181759, Control_c, 0, 64, 68
1, 181774, Control_c, 0, 64, 69
1, 181789, Control_c, 0, 64, 71
1, 181799, Note_off_c, 0, 45, 57
1, 181804, Control_c, 0, 64, 72
1, 181826, Control_c, 0, 64, 73
1, 181839, Note_off_c, 0, 69, 61
1, 181841, Control_c, 0, 64, 75
1, 181856, Control_c, 0, 64, 76
1, 181871, Control_c, 0, 64, 77
1, 181872, Note_on_c, 0, 67, 50
1, 181886, Control_c, 0, 64, 78
1, 181901, Control_c, 0, 64, 79
1, 182094, Control_c, 0, 64, 78
1, 182097, Note_off_c, 0, 67, 55
1, 182109, Control_c, 0, 64, 77
1, 182111, Note_on_c, 0, 66, 48
1, 182116, Note_on_c, 0, 62, 41
1, 182124, Control_c, 0, 64, 73
1, 182139, Control_c, 0, 64, 65
1, 182154, Control_c, 0, 64, 0
1, 182228, Control_c, 0, 64, 36
1, 182242, Control_c, 0, 64, 64
1, 182257, Control_c, 0, 64, 69
1, 182257, Control_c, 0, 67, 127
1, 182272, Control_c, 0, 64, 72
1, 182272, Control_c, 0, 67, 118
1, 182287, Control_c, 0, 64, 76
1, 182287, Control_c, 0, 67, 107
1, 182289, Note_off_c, 0, 62, 46
1, 182302, Control_c, 0, 64, 79
1, 182302, Control_c, 0, 67, 94
1, 182316, Control_c, 0, 64, 83
1, 182316, Control_c, 0, 67, 82
1, 182331, Control_c, 0, 64, 86
1, 182331, Control_c, 0, 67, 69
1, 182333, Note_on_c, 0, 57, 28
1, 182346, Control_c, 0, 64, 89
1, 182346, Control_c, 0, 67, 58
1, 182360, Control_c, 0, 64, 92
1, 182360, Control_c, 0, 67, 46
1, 182375, Control_c, 0, 64, 93
1, 182375, Control_c, 0, 67, 34
1, 182390, Control_c, 0, 64, 94
1, 182390, Control_c, 0, 67, 21
1, 182405, Control_c, 0, 67, 9
1, 182420, Control_c, 0, 64, 95
1, 182420, Control_c, 0, 67, 0
1, 182431, Note_off_c, 0, 57, 37
1, 182531, Note_on_c, 0, 74, 66
1, 182542, Note_on_c, 0, 54, 33
1, 182555, Note_off_c, 0, 66, 17
1, 182687, Note_off_c, 0, 54, 37
1, 182738, Note_on_c, 0, 50, 36
1, 182798, Control_c, 0, 64, 94
1, 182887, Control_c, 0, 64, 94
1, 182917, Control_c, 0, 64, 93
1, 182926, Note_off_c, 0, 50, 37
1, 182932, Control_c, 0, 64, 90
1, 182946, Control_c, 0, 64, 80
1, 182947, Note_on_c, 0, 48, 47
1, 182961, Control_c, 0, 64, 70
1, 182976, Control_c, 0, 64, 54
1, 182991, Control_c, 0, 64, 0
1, 183036, Control_c, 0, 64, 52
1, 183051, Control_c, 0, 64, 65
1, 183065, Control_c, 0, 64, 69
1, 183080, Control_c, 0, 64, 71
1, 183095, Control_c, 0, 64, 73
1, 183110, Control_c, 0, 64, 75
1, 183125, Control_c, 0, 64, 76
1, 183137, Note_on_c, 0, 69, 63
1, 183139, Control_c, 0, 64, 78
1, 183154, Control_c, 0, 64, 79
1, 183169, Control_c, 0, 64, 81
1, 183184, Control_c, 0, 64, 82
1, 183198, Control_c, 0, 64, 83
1, 183213, Control_c, 0, 64, 84
1, 183302, Control_c, 0, 64, 81
1, 183325, Control_c, 0, 64, 73
1, 183332, Note_on_c, 0, 67, 71
1, 183339, Control_c, 0, 64, 63
1, 183354, Control_c, 0, 64, 0
1, 183373, Note_off_c, 0, 74, 23
1, 183398, Control_c, 0, 64, 42
1, 183413, Control_c, 0, 64, 62
1, 183428, Control_c, 0, 64, 68
1, 183444, Control_c, 0, 64, 70
1, 183459, Control_c, 0, 64, 70
1, 183474, Control_c, 0, 64, 71
1, 183477, Note_off_c, 0, 69, 28
1, 183513, Note_on_c, 0, 66, 73
1, 183546, Note_off_c, 0, 67, 53
1, 183548, Control_c, 0, 64, 71
1, 183621, Control_c, 0, 64, 70
1, 183636, Control_c, 0, 64, 68
1, 183651, Control_c, 0, 64, 65
1, 183666, Control_c, 0, 64, 64
1, 183681, Control_c, 0, 64, 63
1, 183695, Control_c, 0, 64, 59
1, 183698, Note_off_c, 0, 48, 51
1, 183704, Note_on_c, 0, 67, 68
1, 183710, Control_c, 0, 64, 0
1, 183722, Note_on_c, 0, 59, 47
1, 183740, Note_off_c, 0, 66, 57
1, 183814, Control_c, 0, 64, 46
1, 183829, Control_c, 0, 64, 65
1, 183844, Control_c, 0, 64, 69
1, 183859, Control_c, 0, 64, 70
1, 183874, Control_c, 0, 64, 71
1, 183888, Control_c, 0, 64, 72
1, 183903, Control_c, 0, 64, 74
1, 183910, Note_on_c, 0, 55, 49
1, 183918, Control_c, 0, 64, 74
1, 183963, Note_off_c, 0, 59, 37
1, 183992, Control_c, 0, 64, 74
1, 184021, Control_c, 0, 64, 73
1, 184100, Note_on_c, 0, 74, 79
1, 184115, Note_on_c, 0, 50, 49
1, 184136, Note_off_c, 0, 55, 34
1, 184147, Control_c, 0, 64, 73
1, 184177, Control_c, 0, 64, 72
1, 184192, Control_c, 0, 64, 69
1, 184207, Control_c, 0, 64, 64
1, 184221, Control_c, 0, 64, 0
1, 184269, Note_off_c, 0, 50, 57
1, 184288, Note_on_c, 0, 47, 48
1, 184311, Control_c, 0, 64, 43
1, 184326, Control_c, 0, 64, 63
1, 184341, Control_c, 0, 64, 68
1, 184356, Control_c, 0, 64, 71
1, 184371, Control_c, 0, 64, 73
1, 184385, Control_c, 0, 64, 74
1, 184400, Control_c, 0, 64, 75
1, 184415, Control_c, 0, 64, 76
1, 184489, Note_off_c, 0, 67, 38
1, 184521, Note_on_c, 0, 45, 43
1, 184548, Control_c, 0, 64, 74
1, 184550, Note_off_c, 0, 47, 42
1, 184562, Control_c, 0, 64, 71
1, 184577, Control_c, 0, 64, 65
1, 184592, Control_c, 0, 64, 56
1, 184607, Control_c, 0, 64, 0
1, 184652, Control_c, 0, 64, 24
1, 184666, Control_c, 0, 64, 34
1, 184681, Control_c, 0, 64, 31
1, 184711, Control_c, 0, 64, 34
1, 184714, Note_on_c, 0, 72, 71
1, 184726, Control_c, 0, 64, 35
1, 184741, Control_c, 0, 64, 33
1, 184756, Control_c, 0, 64, 26
1, 184770, Control_c, 0, 64, 24
1, 184785, Control_c, 0, 64, 23
1, 184800, Control_c, 0, 64, 19
1, 184822, Control_c, 0, 64, 0
1, 184901, Note_off_c, 0, 74, 53
1, 184906, Note_on_c, 0, 71, 77
1, 184959, Note_off_c, 0, 72, 56
1, 185075, Control_c, 0, 64, 43
1, 185090, Control_c, 0, 64, 63
1, 185093, Note_on_c, 0, 69, 75
1, 185105, Control_c, 0, 64, 66
1, 185120, Control_c, 0, 64, 69
1, 185134, Control_c, 0, 64, 71
1, 185138, Note_off_c, 0, 71, 57
1, 185149, Control_c, 0, 64, 73
1, 185164, Control_c, 0, 64, 74
1, 185178, Note_off_c, 0, 45, 43
1, 185179, Control_c, 0, 64, 75
1, 185194, Control_c, 0, 64, 76
1, 185227, Note_off_c, 0, 69, 55
1, 185295, Note_on_c, 0, 55, 44
1, 185313, Control_c, 0, 64, 75
1, 185328, Control_c, 0, 64, 75
1, 185342, Control_c, 0, 64, 74
1, 185357, Control_c, 0, 64, 71
1, 185372, Control_c, 0, 64, 68
1, 185386, Control_c, 0, 64, 65
1, 185389, Note_on_c, 0, 69, 59
1, 185401, Control_c, 0, 64, 62
1, 185416, Control_c, 0, 64, 53
1, 185431, Control_c, 0, 64, 21
1, 185446, Control_c, 0, 64, 0
1, 185484, Note_off_c, 0, 69, 58
1, 185490, Note_on_c, 0, 71, 62
1, 185534, Note_on_c, 0, 52, 37
1, 185546, Note_off_c, 0, 71, 60
1, 185587, Note_on_c, 0, 72, 54
1, 185607, Note_off_c, 0, 55, 29
1, 185638, Note_off_c, 0, 72, 56
1, 185677, Note_on_c, 0, 71, 51
1, 185694, Note_off_c, 0, 52, 35
1, 185698, Note_on_c, 0, 47, 28
1, 185823, Control_c, 0, 64, 62
1, 185838, Control_c, 0, 64, 68
1, 185853, Control_c, 0, 64, 71
1, 185868, Control_c, 0, 64, 73
1, 185875, Note_off_c, 0, 47, 46
1, 185883, Control_c, 0, 64, 76
1, 185887, Note_on_c, 0, 43, 34
1, 185898, Control_c, 0, 64, 78
1, 185912, Control_c, 0, 64, 80
1, 185927, Control_c, 0, 64, 83
1, 185942, Control_c, 0, 64, 85
1, 185949, Note_off_c, 0, 43, 52
1, 185957, Control_c, 0, 64, 86
1, 185972, Control_c, 0, 64, 87
1, 185987, Control_c, 0, 64, 88
1, 186016, Control_c, 0, 64, 89
1, 186037, Note_off_c, 0, 71, 60
1, 186084, Note_on_c, 0, 42, 31
1, 186105, Control_c, 0, 67, 10
1, 186120, Control_c, 0, 67, 17
1, 186135, Control_c, 0, 64, 88
1, 186135, Control_c, 0, 67, 27
1, 186150, Control_c, 0, 64, 86
1, 186150, Control_c, 0, 67, 32
1, 186161, Note_on_c, 0, 71, 50
1, 186164, Control_c, 0, 64, 82
1, 186164, Control_c, 0, 67, 33
1, 186179, Control_c, 0, 64, 74
1, 186179, Control_c, 0, 67, 29
1, 186184, Note_off_c, 0, 71, 60
1, 186194, Control_c, 0, 64, 67
1, 186194, Control_c, 0, 67, 26
1, 186202, Note_on_c, 0, 69, 49
1, 186208, Control_c, 0, 64, 60
1, 186208, Control_c, 0, 67, 23
1, 186223, Control_c, 0, 64, 43
1, 186223, Control_c, 0, 67, 21
1, 186228, Note_off_c, 0, 69, 58
1, 186238, Control_c, 0, 64, 0
1, 186241, Note_on_c, 0, 71, 52
1, 186253, Control_c, 0, 67, 21
1, 186264, Note_off_c, 0, 71, 61
1, 186268, Control_c, 0, 67, 18
1, 186270, Note_on_c, 0, 69, 65
1, 186282, Control_c, 0, 67, 13
1, 186297, Control_c, 0, 67, 0
1, 186387, Note_off_c, 0, 69, 59
1, 186440, Note_on_c, 0, 67, 61
1, 186497, Control_c, 0, 64, 63
1, 186512, Control_c, 0, 64, 71
1, 186527, Control_c, 0, 64, 76
1, 186541, Control_c, 0, 64, 80
1, 186556, Control_c, 0, 64, 82
1, 186571, Control_c, 0, 64, 85
1, 186586, Control_c, 0, 64, 88
1, 186590, Note_off_c, 0, 42, 40
1, 186598, Note_off_c, 0, 67, 56
1, 186601, Control_c, 0, 64, 91
1, 186604, Note_on_c, 0, 66, 63
1, 186616, Control_c, 0, 64, 93
1, 186631, Control_c, 0, 64, 95
1, 186646, Control_c, 0, 64, 95
1, 186735, Control_c, 0, 64, 95
1, 186750, Control_c, 0, 64, 92
1, 186762, Note_off_c, 0, 66, 56
1, 186765, Control_c, 0, 64, 87
1, 186780, Control_c, 0, 64, 76
1, 186795, Control_c, 0, 64, 65
1, 186796, Note_on_c, 0, 67, 56
1, 186799, Note_on_c, 0, 52, 40
1, 186807, Note_on_c, 0, 40, 42
1, 186810, Control_c, 0, 64, 0
1, 186869, Control_c, 0, 64, 51
1, 186884, Control_c, 0, 64, 66
1, 186899, Control_c, 0, 64, 74
1, 186913, Control_c, 0, 64, 80
1, 186928, Control_c, 0, 64, 86
1, 186943, Control_c, 0, 64, 90
1, 186957, Control_c, 0, 64, 93
1, 186959, Note_off_c, 0, 40, 52
1, 186966, Note_off_c, 0, 52, 54
1, 186972, Control_c, 0, 64, 96
1, 186987, Control_c, 0, 64, 99
1, 186989, Note_on_c, 0, 76, 72
1, 187002, Control_c, 0, 64, 102
1, 187017, Control_c, 0, 64, 104
1, 187031, Control_c, 0, 64, 106
1, 187046, Control_c, 0, 64, 106
1, 187128, Control_c, 0, 64, 106
1, 187143, Control_c, 0, 64, 101
1, 187157, Control_c, 0, 64, 89
1, 187172, Control_c, 0, 64, 74
1, 187176, Note_on_c, 0, 42, 38
1, 187186, Note_on_c, 0, 54, 39
1, 187187, Control_c, 0, 64, 63
1, 187202, Control_c, 0, 64, 52
1, 187217, Control_c, 0, 64, 58
1, 187231, Control_c, 0, 64, 66
1, 187246, Control_c, 0, 64, 73
1, 187261, Control_c, 0, 64, 77
1, 187276, Control_c, 0, 64, 81
1, 187289, Note_off_c, 0, 54, 55
1, 187291, Control_c, 0, 64, 84
1, 187305, Control_c, 0, 64, 87
1, 187319, Note_off_c, 0, 42, 35
1, 187320, Control_c, 0, 64, 90
1, 187335, Control_c, 0, 64, 93
1, 187350, Control_c, 0, 64, 94
1, 187356, Note_on_c, 0, 74, 69
1, 187364, Control_c, 0, 64, 95
1, 187366, Note_off_c, 0, 67, 50
1, 187379, Control_c, 0, 64, 96
1, 187391, Note_off_c, 0, 76, 36
1, 187394, Control_c, 0, 64, 96
1, 187514, Control_c, 0, 64, 92
1, 187529, Control_c, 0, 64, 82
1, 187543, Control_c, 0, 64, 68
1, 187552, Note_on_c, 0, 73, 67
1, 187558, Control_c, 0, 64, 0
1, 187559, Note_off_c, 0, 74, 57
1, 187561, Note_on_c, 0, 55, 42
1, 187632, Control_c, 0, 64, 62
1, 187647, Control_c, 0, 64, 71
1, 187662, Control_c, 0, 64, 76
1, 187677, Control_c, 0, 64, 79
1, 187707, Control_c, 0, 64, 80
1, 187730, Note_on_c, 0, 71, 68
1, 187747, Note_off_c, 0, 73, 57
1, 187780, Control_c, 0, 64, 79
1, 187812, Note_off_c, 0, 55, 41
1, 187817, Control_c, 0, 64, 79
1, 187832, Control_c, 0, 64, 78
1, 187847, Control_c, 0, 64, 77
1, 187862, Control_c, 0, 64, 76
1, 187877, Control_c, 0, 64, 73
1, 187892, Control_c, 0, 64, 68
1, 187907, Control_c, 0, 64, 62
1, 187922, Control_c, 0, 64, 0
1, 187931, Note_on_c, 0, 70, 67
1, 187942, Note_on_c, 0, 43, 39
1, 187958, Note_off_c, 0, 71, 50
1, 187996, Control_c, 0, 64, 60
1, 188003, Note_off_c, 0, 43, 60
1, 188011, Control_c, 0, 64, 69
1, 188026, Control_c, 0, 64, 74
1, 188041, Control_c, 0, 64, 77
1, 188055, Control_c, 0, 64, 78
1, 188070, Control_c, 0, 64, 80
1, 188085, Control_c, 0, 64, 82
1, 188100, Control_c, 0, 64, 83
1, 188115, Control_c, 0, 64, 83
1, 188115, Note_off_c, 0, 70, 59
1, 188118, Note_on_c, 0, 71, 69
1, 188129, Control_c, 0, 64, 84
1, 188144, Control_c, 0, 64, 84
1, 188174, Control_c, 0, 64, 85
1, 188264, Control_c, 0, 64, 84
1, 188279, Control_c, 0, 64, 82
1, 188293, Control_c, 0, 64, 76
1, 188297, Note_off_c, 0, 71, 61
1, 188308, Control_c, 0, 64, 67
1, 188309, Note_on_c, 0, 73, 65
1, 188312, Note_on_c, 0, 54, 41
1, 188315, Note_on_c, 0, 70, 50
1, 188323, Control_c, 0, 64, 28
1, 188338, Control_c, 0, 64, 0
1, 188369, Note_off_c, 0, 70, 53
1, 188382, Control_c, 0, 64, 38
1, 188397, Control_c, 0, 64, 65
1, 188411, Control_c, 0, 64, 73
1, 188426, Control_c, 0, 64, 79
1, 188441, Control_c, 0, 64, 82
1, 188456, Control_c, 0, 64, 84
1, 188492, Note_on_c, 0, 74, 75
1, 188530, Note_off_c, 0, 73, 38
1, 188574, Note_off_c, 0, 54, 37
1, 188626, Control_c, 0, 64, 81
1, 188641, Control_c, 0, 64, 73
1, 188656, Control_c, 0, 64, 59
1, 188671, Control_c, 0, 64, 0
1, 188673, Note_on_c, 0, 76, 76
1, 188680, Note_on_c, 0, 66, 53
1, 188691, Note_off_c, 0, 74, 46
1, 188744, Control_c, 0, 64, 64
1, 188759, Control_c, 0, 64, 72
1, 188774, Control_c, 0, 64, 76
1, 188789, Control_c, 0, 64, 78
1, 188804, Control_c, 0, 64, 78
1, 188819, Control_c, 0, 64, 79
1, 188849, Note_off_c, 0, 66, 57
1, 188858, Note_on_c, 0, 78, 77
1, 188859, Note_off_c, 0, 76, 63
1, 188908, Control_c, 0, 64, 78
1, 188923, Control_c, 0, 64, 78
1, 188952, Control_c, 0, 64, 77
1, 188967, Control_c, 0, 64, 77
1, 188982, Control_c, 0, 64, 75
1, 188997, Control_c, 0, 64, 69
1, 189011, Control_c, 0, 64, 57
1, 189027, Control_c, 0, 64, 0
1, 189051, Note_on_c, 0, 76, 70
1, 189054, Note_on_c, 0, 55, 42
1, 189066, Note_off_c, 0, 78, 57
1, 189116, Control_c, 0, 64, 51
1, 189131, Control_c, 0, 64, 66
1, 189146, Control_c, 0, 64, 70
1, 189160, Control_c, 0, 64, 71
1, 189220, Control_c, 0, 64, 70
1, 189231, Note_on_c, 0, 74, 71
1, 189234, Control_c, 0, 64, 68
1, 189236, Note_off_c, 0, 55, 57
1, 189249, Control_c, 0, 64, 65
1, 189264, Control_c, 0, 64, 61
1, 189271, Note_off_c, 0, 76, 53
1, 189279, Control_c, 0, 64, 43
1, 189294, Control_c, 0, 64, 0
1, 189423, Note_on_c, 0, 73, 67
1, 189430, Note_off_c, 0, 74, 58
1, 189454, Note_on_c, 0, 67, 32
1, 189522, Control_c, 0, 67, 9
1, 189537, Control_c, 0, 67, 13
1, 189552, Control_c, 0, 67, 19
1, 189555, Note_off_c, 0, 67, 55
1, 189567, Control_c, 0, 67, 27
1, 189582, Control_c, 0, 67, 34
1, 189591, Note_off_c, 0, 73, 59
1, 189597, Control_c, 0, 67, 41
1, 189612, Control_c, 0, 67, 47
1, 189612, Note_on_c, 0, 71, 54
1, 189627, Control_c, 0, 67, 54
1, 189641, Control_c, 0, 67, 60
1, 189656, Control_c, 0, 67, 65
1, 189671, Control_c, 0, 67, 69
1, 189686, Control_c, 0, 67, 73
1, 189701, Control_c, 0, 67, 77
1, 189715, Control_c, 0, 67, 82
1, 189730, Control_c, 0, 67, 86
1, 189745, Control_c, 0, 67, 90
1, 189759, Control_c, 0, 67, 92
1, 189774, Control_c, 0, 67, 94
1, 189788, Note_off_c, 0, 71, 59
1, 189789, Control_c, 0, 67, 96
1, 189804, Control_c, 0, 67, 97
1, 189815, Note_on_c, 0, 73, 51
1, 189816, Note_on_c, 0, 54, 38
1, 189819, Control_c, 0, 67, 99
1, 189827, Note_on_c, 0, 70, 39
1, 189835, Control_c, 0, 67, 102
1, 189849, Control_c, 0, 67, 107
1, 189864, Control_c, 0, 67, 112
1, 189879, Control_c, 0, 64, 61
1, 189879, Control_c, 0, 67, 118
1, 189894, Control_c, 0, 64, 67
1, 189894, Control_c, 0, 67, 125
1, 189909, Control_c, 0, 64, 68
1, 189909, Control_c, 0, 67, 127
1, 189923, Control_c, 0, 64, 69
1, 189925, Note_off_c, 0, 70, 58
1, 189953, Control_c, 0, 64, 67
1, 189968, Control_c, 0, 64, 64
1, 189975, Note_off_c, 0, 73, 62
1, 189982, Note_off_c, 0, 54, 48
1, 189982, Control_c, 0, 64, 51
1, 189997, Control_c, 0, 64, 0
1, 190006, Note_on_c, 0, 74, 57
1, 190140, Note_off_c, 0, 74, 57
1, 190175, Note_on_c, 0, 76, 47
1, 190197, Note_on_c, 0, 66, 32
1, 190212, Control_c, 0, 64, 30
1, 190227, Control_c, 0, 64, 56
1, 190242, Control_c, 0, 64, 64
1, 190256, Control_c, 0, 64, 67
1, 190271, Control_c, 0, 64, 69
1, 190273, Note_off_c, 0, 66, 42
1, 190286, Control_c, 0, 64, 71
1, 190301, Control_c, 0, 64, 72
1, 190316, Control_c, 0, 64, 74
1, 190330, Control_c, 0, 64, 77
1, 190345, Control_c, 0, 64, 81
1, 190350, Note_off_c, 0, 76, 55
1, 190360, Note_on_c, 0, 78, 53
1, 190360, Control_c, 0, 64, 85
1, 190375, Control_c, 0, 64, 89
1, 190390, Control_c, 0, 64, 92
1, 190405, Control_c, 0, 64, 95
1, 190420, Control_c, 0, 64, 97
1, 190429, Note_off_c, 0, 78, 55
1, 190434, Control_c, 0, 64, 98
1, 190449, Control_c, 0, 64, 99
1, 190535, Note_on_c, 0, 78, 60
1, 190538, Control_c, 0, 64, 98
1, 190549, Note_on_c, 0, 55, 42
1, 190553, Control_c, 0, 64, 95
1, 190555, Note_off_c, 0, 78, 64
1, 190568, Control_c, 0, 64, 92
1, 190582, Control_c, 0, 64, 87
1, 190584, Note_on_c, 0, 76, 57
1, 190597, Control_c, 0, 64, 81
1, 190602, Note_off_c, 0, 55, 53
1, 190606, Note_off_c, 0, 76, 60
1, 190612, Control_c, 0, 64, 74
1, 190619, Note_on_c, 0, 78, 65
1, 190628, Control_c, 0, 64, 69
1, 190643, Control_c, 0, 64, 65
1, 190649, Note_off_c, 0, 78, 64
1, 190658, Control_c, 0, 64, 62
1, 190672, Control_c, 0, 64, 59
1, 190673, Note_on_c, 0, 76, 66
1, 190687, Control_c, 0, 64, 53
1, 190702, Control_c, 0, 64, 42
1, 190707, Note_off_c, 0, 76, 60
1, 190717, Control_c, 0, 64, 0
1, 190753, Note_on_c, 0, 74, 60
1, 190911, Note_off_c, 0, 74, 62
1, 190937, Note_on_c, 0, 73, 50
1, 190966, Note_on_c, 0, 67, 23
1, 191036, Control_c, 0, 64, 50
1, 191051, Control_c, 0, 64, 61
1, 191066, Control_c, 0, 64, 65
1, 191072, Note_off_c, 0, 67, 58
1, 191080, Control_c, 0, 64, 68
1, 191084, Note_off_c, 0, 73, 59
1, 191095, Control_c, 0, 64, 71
1, 191110, Control_c, 0, 64, 75
1, 191112, Note_on_c, 0, 71, 46
1, 191125, Control_c, 0, 64, 79
1, 191139, Control_c, 0, 64, 82
1, 191154, Control_c, 0, 64, 85
1, 191169, Control_c, 0, 64, 88
1, 191184, Control_c, 0, 64, 90
1, 191199, Control_c, 0, 64, 92
1, 191213, Control_c, 0, 64, 94
1, 191228, Control_c, 0, 64, 95
1, 191243, Control_c, 0, 64, 95
1, 191341, Note_off_c, 0, 71, 50
1, 191347, Control_c, 0, 64, 94
1, 191362, Control_c, 0, 64, 92
1, 191363, Note_on_c, 0, 73, 56
1, 191376, Control_c, 0, 64, 86
1, 191391, Control_c, 0, 64, 76
1, 191393, Note_on_c, 0, 66, 26
1, 191406, Control_c, 0, 64, 63
1, 191421, Control_c, 0, 64, 0
1, 191427, Note_on_c, 0, 70, 28
1, 191496, Control_c, 0, 64, 50
1, 191511, Control_c, 0, 64, 67
1, 191526, Control_c, 0, 64, 72
1, 191540, Control_c, 0, 64, 76
1, 191562, Control_c, 0, 64, 80
1, 191577, Control_c, 0, 64, 86
1, 191592, Control_c, 0, 64, 94
1, 191607, Control_c, 0, 64, 104
1, 191622, Control_c, 0, 64, 112
1, 191633, Note_on_c, 0, 61, 31
1, 191636, Control_c, 0, 64, 127
1, 191666, Note_off_c, 0, 66, 38
1, 191803, Note_off_c, 0, 61, 39
1, 191900, Note_on_c, 0, 58, 11
1, 191913, Note_off_c, 0, 70, 33
1, 191941, Note_on_c, 0, 78, 55
1, 191973, Note_off_c, 0, 73, 47
1, 191985, Note_off_c, 0, 58, 42
1, 192178, Note_on_c, 0, 54, 14
1, 192225, Note_off_c, 0, 54, 53
1, 192399, Note_on_c, 0, 42, 33
1, 192429, Control_c, 0, 64, 97
1, 192444, Control_c, 0, 64, 80
1, 192458, Control_c, 0, 64, 68
1, 192473, Control_c, 0, 64, 66
1, 192488, Control_c, 0, 64, 69
1, 192503, Control_c, 0, 64, 75
1, 192518, Control_c, 0, 64, 80
1, 192532, Control_c, 0, 64, 84
1, 192532, Control_c, 0, 67, 127
1, 192547, Control_c, 0, 64, 89
1, 192547, Control_c, 0, 67, 121
1, 192562, Control_c, 0, 64, 92
1, 192562, Control_c, 0, 67, 115
1, 192576, Control_c, 0, 64, 94
1, 192576, Control_c, 0, 67, 105
1, 192591, Control_c, 0, 64, 96
1, 192591, Control_c, 0, 67, 92
1, 192605, Note_on_c, 0, 76, 52
1, 192606, Control_c, 0, 64, 98
1, 192606, Control_c, 0, 67, 77
1, 192621, Control_c, 0, 64, 101
1, 192621, Control_c, 0, 67, 64
1, 192636, Control_c, 0, 64, 104
1, 192636, Control_c, 0, 67, 55
1, 192650, Control_c, 0, 64, 108
1, 192650, Control_c, 0, 67, 49
1, 192665, Control_c, 0, 64, 109
1, 192665, Control_c, 0, 67, 44
1, 192674, Note_off_c, 0, 78, 35
1, 192680, Control_c, 0, 67, 36
1, 192694, Control_c, 0, 67, 27
1, 192709, Control_c, 0, 67, 16
1, 192724, Control_c, 0, 67, 0
1, 192769, Control_c, 0, 64, 104
1, 192783, Control_c, 0, 64, 92
1, 192790, Note_on_c, 0, 74, 60
1, 192798, Control_c, 0, 64, 79
1, 192813, Control_c, 0, 64, 69
1, 192828, Control_c, 0, 64, 63
1, 192843, Note_off_c, 0, 76, 38
1, 192858, Control_c, 0, 64, 68
1, 192873, Control_c, 0, 64, 73
1, 192879, Note_off_c, 0, 42, 56
1, 192888, Control_c, 0, 64, 77
1, 192902, Control_c, 0, 64, 80
1, 192917, Control_c, 0, 64, 84
1, 192932, Control_c, 0, 64, 87
1, 192947, Control_c, 0, 64, 90
1, 192962, Control_c, 0, 64, 92
1, 192974, Note_on_c, 0, 73, 65
1, 192976, Control_c, 0, 64, 93
1, 192977, Note_off_c, 0, 74, 57
1, 192991, Control_c, 0, 64, 95
1, 193006, Control_c, 0, 64, 97
1, 193022, Control_c, 0, 64, 99
1, 193037, Control_c, 0, 64, 100
1, 193059, Control_c, 0, 64, 100
1, 193148, Control_c, 0, 64, 100
1, 193162, Control_c, 0, 64, 97
1, 193168, Note_off_c, 0, 73, 52
1, 193177, Control_c, 0, 64, 90
1, 193191, Note_on_c, 0, 66, 41
1, 193191, Note_on_c, 0, 74, 58
1, 193192, Control_c, 0, 64, 78
1, 193207, Control_c, 0, 64, 67
1, 193222, Control_c, 0, 64, 23
1, 193237, Control_c, 0, 64, 0
1, 193266, Control_c, 0, 64, 50
1, 193281, Control_c, 0, 64, 64
1, 193296, Control_c, 0, 64, 70
1, 193311, Control_c, 0, 64, 73
1, 193325, Control_c, 0, 64, 77
1, 193340, Control_c, 0, 64, 80
1, 193355, Control_c, 0, 64, 83
1, 193370, Control_c, 0, 64, 85
1, 193382, Note_off_c, 0, 66, 35
1, 193385, Control_c, 0, 64, 88
1, 193389, Note_on_c, 0, 71, 60
1, 193398, Note_on_c, 0, 62, 36
1, 193399, Control_c, 0, 64, 91
1, 193414, Control_c, 0, 64, 94
1, 193429, Control_c, 0, 64, 96
1, 193444, Control_c, 0, 64, 98
1, 193459, Control_c, 0, 64, 98
1, 193473, Control_c, 0, 64, 99
1, 193503, Control_c, 0, 64, 99
1, 193517, Control_c, 0, 64, 100
1, 193547, Control_c, 0, 64, 100
1, 193562, Control_c, 0, 64, 101
1, 193565, Note_off_c, 0, 62, 39
1, 193577, Control_c, 0, 64, 101
1, 193588, Note_on_c, 0, 59, 42
1, 193591, Control_c, 0, 64, 102
1, 193592, Note_on_c, 0, 77, 67
1, 193620, Note_off_c, 0, 59, 53
1, 193640, Note_off_c, 0, 74, 52
1, 193651, Note_off_c, 0, 71, 40
1, 193681, Control_c, 0, 64, 102
1, 193711, Control_c, 0, 64, 103
1, 193779, Note_on_c, 0, 54, 41
1, 193806, Control_c, 0, 64, 103
1, 193821, Control_c, 0, 64, 104
1, 193837, Control_c, 0, 64, 104
1, 193867, Note_off_c, 0, 54, 49
1, 193985, Control_c, 0, 64, 98
1, 193987, Note_on_c, 0, 42, 49
1, 194000, Control_c, 0, 64, 85
1, 194015, Control_c, 0, 64, 71
1, 194029, Control_c, 0, 64, 58
1, 194044, Control_c, 0, 64, 43
1, 194059, Control_c, 0, 64, 58
1, 194074, Control_c, 0, 64, 67
1, 194089, Control_c, 0, 64, 73
1, 194104, Control_c, 0, 64, 78
1, 194119, Control_c, 0, 64, 84
1, 194134, Control_c, 0, 64, 89
1, 194148, Control_c, 0, 64, 92
1, 194163, Control_c, 0, 64, 95
1, 194178, Control_c, 0, 64, 98
1, 194193, Control_c, 0, 64, 101
1, 194204, Note_on_c, 0, 80, 66
1, 194208, Control_c, 0, 64, 104
1, 194222, Control_c, 0, 64, 108
1, 194237, Control_c, 0, 64, 111
1, 194251, Note_off_c, 0, 77, 54
1, 194252, Control_c, 0, 64, 115
1, 194267, Control_c, 0, 64, 118
1, 194282, Control_c, 0, 64, 120
1, 194296, Control_c, 0, 64, 124
1, 194311, Control_c, 0, 64, 127
1, 194322, Note_off_c, 0, 42, 53
1, 194393, Note_on_c, 0, 78, 73
1, 194450, Note_off_c, 0, 80, 51
1, 194569, Note_on_c, 0, 77, 77
1, 194610, Note_off_c, 0, 78, 59
1, 194781, Note_on_c, 0, 78, 72
1, 194785, Note_on_c, 0, 66, 49
1, 194794, Control_c, 0, 64, 113
1, 194809, Control_c, 0, 64, 95
1, 194815, Note_off_c, 0, 77, 56
1, 194824, Control_c, 0, 64, 78
1, 194839, Control_c, 0, 64, 62
1, 194853, Control_c, 0, 64, 0
1, 194898, Control_c, 0, 64, 42
1, 194913, Control_c, 0, 64, 63
1, 194927, Control_c, 0, 64, 70
1, 194942, Control_c, 0, 64, 76
1, 194957, Control_c, 0, 64, 82
1, 194971, Control_c, 0, 64, 87
1, 194986, Control_c, 0, 64, 92
1, 194990, Note_on_c, 0, 61, 45
1, 195001, Control_c, 0, 64, 97
1, 195016, Control_c, 0, 64, 102
1, 195031, Control_c, 0, 64, 106
1, 195037, Note_off_c, 0, 66, 34
1, 195046, Control_c, 0, 64, 110
1, 195061, Control_c, 0, 64, 114
1, 195076, Control_c, 0, 64, 119
1, 195091, Control_c, 0, 64, 127
1, 195189, Note_on_c, 0, 73, 68
1, 195198, Note_off_c, 0, 61, 34
1, 195200, Note_on_c, 0, 58, 45
1, 195242, Note_off_c, 0, 58, 60
1, 195268, Note_off_c, 0, 78, 58
1, 195393, Note_on_c, 0, 54, 38
1, 195573, Control_c, 0, 64, 110
1, 195581, Note_on_c, 0, 42, 52
1, 195586, Note_off_c, 0, 54, 45
1, 195588, Control_c, 0, 64, 91
1, 195602, Control_c, 0, 64, 72
1, 195617, Control_c, 0, 64, 62
1, 195632, Control_c, 0, 64, 61
1, 195647, Control_c, 0, 64, 66
1, 195662, Control_c, 0, 64, 71
1, 195676, Control_c, 0, 64, 76
1, 195691, Control_c, 0, 64, 82
1, 195706, Control_c, 0, 64, 86
1, 195720, Control_c, 0, 64, 89
1, 195735, Control_c, 0, 64, 91
1, 195750, Control_c, 0, 64, 92
1, 195765, Control_c, 0, 64, 93
1, 195773, Note_on_c, 0, 76, 64
1, 195780, Control_c, 0, 64, 94
1, 195794, Control_c, 0, 64, 95
1, 195809, Control_c, 0, 64, 97
1, 195812, Note_off_c, 0, 73, 51
1, 195824, Control_c, 0, 64, 97
1, 195839, Control_c, 0, 64, 98
1, 195913, Control_c, 0, 64, 95
1, 195928, Control_c, 0, 64, 85
1, 195943, Control_c, 0, 64, 74
1, 195958, Control_c, 0, 64, 67
1, 195958, Note_on_c, 0, 74, 74
1, 195973, Control_c, 0, 64, 66
1, 195988, Control_c, 0, 64, 69
1, 195998, Note_off_c, 0, 76, 56
1, 196002, Control_c, 0, 64, 73
1, 196017, Control_c, 0, 64, 77
1, 196020, Note_off_c, 0, 42, 62
1, 196032, Control_c, 0, 64, 81
1, 196054, Control_c, 0, 64, 84
1, 196069, Control_c, 0, 64, 87
1, 196083, Control_c, 0, 64, 89
1, 196098, Control_c, 0, 64, 90
1, 196113, Control_c, 0, 64, 91
1, 196128, Control_c, 0, 64, 91
1, 196135, Note_on_c, 0, 73, 77
1, 196148, Note_off_c, 0, 74, 61
1, 196157, Control_c, 0, 64, 92
1, 196187, Control_c, 0, 64, 92
1, 196201, Control_c, 0, 64, 93
1, 196291, Control_c, 0, 64, 92
1, 196306, Control_c, 0, 64, 92
1, 196321, Control_c, 0, 64, 90
1, 196334, Note_off_c, 0, 73, 56
1, 196336, Control_c, 0, 64, 86
1, 196338, Note_on_c, 0, 74, 69
1, 196350, Control_c, 0, 64, 79
1, 196358, Note_on_c, 0, 66, 40
1, 196365, Control_c, 0, 64, 71
1, 196380, Control_c, 0, 64, 63
1, 196395, Control_c, 0, 64, 40
1, 196410, Control_c, 0, 64, 0
1, 196513, Note_off_c, 0, 74, 61
1, 196522, Note_on_c, 0, 71, 64
1, 196545, Note_on_c, 0, 62, 39
1, 196557, Control_c, 0, 64, 40
1, 196572, Control_c, 0, 64, 66
1, 196587, Control_c, 0, 64, 73
1, 196593, Note_off_c, 0, 66, 37
1, 196602, Control_c, 0, 64, 79
1, 196617, Control_c, 0, 64, 83
1, 196632, Control_c, 0, 64, 86
1, 196647, Control_c, 0, 64, 89
1, 196662, Control_c, 0, 64, 92
1, 196677, Control_c, 0, 64, 94
1, 196691, Control_c, 0, 64, 96
1, 196706, Control_c, 0, 64, 97
1, 196721, Control_c, 0, 64, 98
1, 196721, Note_off_c, 0, 71, 62
1, 196724, Note_off_c, 0, 62, 36
1, 196733, Note_on_c, 0, 77, 66
1, 196735, Note_on_c, 0, 59, 42
1, 196768, Note_off_c, 0, 59, 53
1, 196936, Note_on_c, 0, 54, 43
1, 196936, Control_c, 0, 64, 97
1, 196965, Control_c, 0, 64, 97
1, 196978, Note_off_c, 0, 54, 57
1, 196980, Control_c, 0, 64, 96
1, 196995, Control_c, 0, 64, 96
1, 197010, Control_c, 0, 64, 95
1, 197025, Control_c, 0, 64, 94
1, 197040, Control_c, 0, 64, 92
1, 197055, Control_c, 0, 64, 90
1, 197070, Control_c, 0, 64, 88
1, 197085, Control_c, 0, 64, 86
1, 197100, Control_c, 0, 64, 84
1, 197115, Control_c, 0, 64, 80
1, 197129, Control_c, 0, 64, 77
1, 197144, Control_c, 0, 64, 73
1, 197154, Note_on_c, 0, 42, 29
1, 197159, Control_c, 0, 64, 68
1, 197173, Control_c, 0, 64, 64
1, 197188, Control_c, 0, 64, 57
1, 197203, Control_c, 0, 64, 49
1, 197218, Control_c, 0, 64, 36
1, 197233, Control_c, 0, 64, 0
1, 197379, Note_on_c, 0, 80, 43
1, 197409, Note_off_c, 0, 77, 40
1, 197571, Note_off_c, 0, 80, 55
1, 197579, Note_on_c, 0, 78, 47
1, 197655, Control_c, 0, 64, 47
1, 197670, Control_c, 0, 64, 64
1, 197685, Control_c, 0, 64, 69
1, 197699, Control_c, 0, 64, 72
1, 197714, Control_c, 0, 64, 75
1, 197728, Note_off_c, 0, 78, 54
1, 197729, Note_off_c, 0, 42, 56
1, 197729, Control_c, 0, 64, 78
1, 197744, Control_c, 0, 64, 81
1, 197751, Note_on_c, 0, 77, 50
1, 197759, Control_c, 0, 64, 84
1, 197773, Control_c, 0, 64, 86
1, 197788, Control_c, 0, 64, 87
1, 197803, Control_c, 0, 64, 89
1, 197819, Control_c, 0, 64, 90
1, 197834, Control_c, 0, 64, 90
1, 197864, Control_c, 0, 64, 91
1, 197915, Note_off_c, 0, 77, 58
1, 197923, Control_c, 0, 64, 90
1, 197937, Control_c, 0, 64, 85
1, 197940, Note_on_c, 0, 78, 53
1, 197952, Control_c, 0, 64, 76
1, 197967, Control_c, 0, 64, 64
1, 197970, Note_on_c, 0, 66, 35
1, 197982, Control_c, 0, 64, 47
1, 197997, Control_c, 0, 64, 37
1, 198012, Control_c, 0, 64, 56
1, 198027, Control_c, 0, 64, 65
1, 198042, Control_c, 0, 64, 71
1, 198057, Control_c, 0, 64, 76
1, 198071, Control_c, 0, 64, 82
1, 198086, Control_c, 0, 64, 86
1, 198101, Control_c, 0, 64, 90
1, 198115, Control_c, 0, 64, 93
1, 198127, Note_off_c, 0, 78, 48
1, 198130, Control_c, 0, 64, 95
1, 198145, Control_c, 0, 64, 97
1, 198158, Note_on_c, 0, 61, 33
1, 198160, Control_c, 0, 64, 99
1, 198170, Note_off_c, 0, 66, 44
1, 198175, Control_c, 0, 64, 101
1, 198189, Control_c, 0, 64, 102
1, 198204, Control_c, 0, 64, 103
1, 198219, Control_c, 0, 64, 104
1, 198249, Control_c, 0, 64, 104
1, 198315, Control_c, 0, 64, 105
1, 198330, Control_c, 0, 64, 105
1, 198358, Note_on_c, 0, 73, 53
1, 198360, Note_off_c, 0, 61, 39
1, 198360, Control_c, 0, 64, 106
1, 198364, Note_on_c, 0, 58, 35
1, 198402, Note_off_c, 0, 58, 52
1, 198508, Control_c, 0, 64, 106
1, 198543, Note_on_c, 0, 54, 34
1, 198582, Control_c, 0, 64, 107
1, 198611, Control_c, 0, 64, 107
1, 198716, Control_c, 0, 64, 106
1, 198731, Control_c, 0, 64, 94
1, 198743, Note_on_c, 0, 42, 43
1, 198745, Control_c, 0, 64, 80
1, 198760, Control_c, 0, 64, 68
1, 198775, Control_c, 0, 64, 63
1, 198790, Control_c, 0, 64, 64
1, 198805, Control_c, 0, 64, 67
1, 198820, Control_c, 0, 64, 72
1, 198835, Control_c, 0, 64, 77
1, 198850, Control_c, 0, 64, 81
1, 198864, Control_c, 0, 64, 84
1, 198879, Control_c, 0, 64, 87
1, 198894, Control_c, 0, 64, 90
1, 198909, Control_c, 0, 64, 92
1, 198917, Note_on_c, 0, 76, 64
1, 198924, Control_c, 0, 64, 96
1, 198928, Note_off_c, 0, 73, 38
1, 198938, Control_c, 0, 64, 99
1, 198953, Control_c, 0, 64, 102
1, 198968, Control_c, 0, 64, 106
1, 198983, Control_c, 0, 64, 110
1, 198997, Note_off_c, 0, 42, 42
1, 198998, Control_c, 0, 64, 115
1, 199012, Control_c, 0, 64, 122
1, 199027, Control_c, 0, 64, 127
1, 199067, Note_off_c, 0, 54, 42
1, 199114, Note_on_c, 0, 74, 75
1, 199145, Note_off_c, 0, 76, 55
1, 199300, Note_on_c, 0, 73, 80
1, 199312, Note_off_c, 0, 74, 60
1, 199499, Note_off_c, 0, 73, 59
1, 199503, Note_on_c, 0, 59, 44
1, 199503, Note_on_c, 0, 74, 76
1, 199505, Note_on_c, 0, 47, 43
1, 199510, Control_c, 0, 64, 101
1, 199524, Control_c, 0, 64, 82
1, 199539, Control_c, 0, 64, 67
1, 199554, Control_c, 0, 64, 36
1, 199568, Control_c, 0, 64, 0
1, 199583, Control_c, 0, 64, 41
1, 199598, Control_c, 0, 64, 62
1, 199613, Control_c, 0, 64, 69
1, 199628, Control_c, 0, 64, 75
1, 199643, Control_c, 0, 64, 82
1, 199657, Control_c, 0, 64, 87
1, 199672, Control_c, 0, 64, 92
1, 199687, Note_on_c, 0, 78, 69
1, 199687, Control_c, 0, 64, 96
1, 199692, Note_off_c, 0, 74, 59
1, 199702, Control_c, 0, 64, 99
1, 199717, Control_c, 0, 64, 102
1, 199732, Control_c, 0, 64, 106
1, 199747, Control_c, 0, 64, 110
1, 199761, Control_c, 0, 64, 113
1, 199776, Control_c, 0, 64, 115
1, 199798, Control_c, 0, 64, 116
1, 199813, Control_c, 0, 64, 116
1, 199872, Control_c, 0, 64, 106
1, 199887, Note_off_c, 0, 78, 59
1, 199887, Control_c, 0, 64, 88
1, 199891, Note_on_c, 0, 73, 72
1, 199893, Note_on_c, 0, 79, 70
1, 199901, Control_c, 0, 64, 72
1, 199905, Note_on_c, 0, 52, 49
1, 199916, Control_c, 0, 64, 51
1, 199931, Control_c, 0, 64, 0
1, 199946, Control_c, 0, 64, 49
1, 199948, Note_off_c, 0, 47, 56
1, 199960, Control_c, 0, 64, 64
1, 199968, Note_off_c, 0, 59, 59
1, 199975, Control_c, 0, 64, 70
1, 199990, Control_c, 0, 64, 76
1, 200005, Control_c, 0, 64, 82
1, 200016, Note_off_c, 0, 52, 60
1, 200020, Control_c, 0, 64, 86
1, 200035, Control_c, 0, 64, 89
1, 200049, Control_c, 0, 64, 92
1, 200064, Control_c, 0, 64, 95
1, 200074, Note_off_c, 0, 73, 59
1, 200079, Control_c, 0, 64, 96
1, 200090, Note_on_c, 0, 71, 67
1, 200093, Control_c, 0, 64, 98
1, 200108, Control_c, 0, 64, 101
1, 200123, Control_c, 0, 64, 105
1, 200138, Control_c, 0, 64, 108
1, 200153, Control_c, 0, 64, 110
1, 200167, Control_c, 0, 64, 111
1, 200182, Control_c, 0, 64, 112
1, 200197, Control_c, 0, 64, 113
1, 200243, Control_c, 0, 64, 111
1, 200257, Control_c, 0, 64, 95
1, 200272, Control_c, 0, 64, 79
1, 200280, Note_off_c, 0, 71, 35
1, 200283, Note_on_c, 0, 70, 71
1, 200285, Note_on_c, 0, 54, 47
1, 200287, Control_c, 0, 64, 66
1, 200295, Note_on_c, 0, 42, 41
1, 200302, Control_c, 0, 64, 56
1, 200316, Control_c, 0, 64, 61
1, 200331, Note_off_c, 0, 79, 37
1, 200331, Control_c, 0, 64, 67
1, 200346, Control_c, 0, 64, 74
1, 200361, Control_c, 0, 64, 78
1, 200376, Control_c, 0, 64, 82
1, 200391, Control_c, 0, 64, 85
1, 200406, Control_c, 0, 64, 88
1, 200421, Control_c, 0, 64, 89
1, 200435, Control_c, 0, 64, 90
1, 200445, Note_off_c, 0, 70, 55
1, 200450, Control_c, 0, 64, 91
1, 200465, Control_c, 0, 64, 93
1, 200471, Note_on_c, 0, 78, 69
1, 200471, Note_off_c, 0, 42, 43
1, 200480, Control_c, 0, 64, 95
1, 200489, Note_off_c, 0, 54, 37
1, 200495, Control_c, 0, 64, 96
1, 200509, Control_c, 0, 64, 97
1, 200524, Control_c, 0, 64, 97
1, 200573, Note_on_c, 0, 71, 51
1, 200590, Control_c, 0, 64, 96
1, 200595, Note_off_c, 0, 71, 60
1, 200605, Control_c, 0, 64, 94
1, 200610, Note_on_c, 0, 73, 62
1, 200620, Control_c, 0, 64, 88
1, 200635, Control_c, 0, 64, 78
1, 200644, Note_off_c, 0, 73, 65
1, 200651, Control_c, 0, 64, 69
1, 200665, Control_c, 0, 64, 56
1, 200668, Note_on_c, 0, 43, 37
1, 200668, Note_on_c, 0, 71, 67
1, 200680, Control_c, 0, 64, 0
1, 200710, Poly_aftertouch_c, 0, 55, 127
1, 200769, Control_c, 0, 67, 9
1, 200784, Control_c, 0, 64, 62
1, 200784, Control_c, 0, 67, 13
1, 200799, Control_c, 0, 64, 70
1, 200799, Control_c, 0, 67, 18
1, 200814, Control_c, 0, 64, 75
1, 200814, Control_c, 0, 67, 23
1, 200829, Control_c, 0, 64, 79
1, 200829, Control_c, 0, 67, 30
1, 200844, Control_c, 0, 64, 82
1, 200844, Control_c, 0, 67, 37
1, 200859, Note_off_c, 0, 71, 58
1, 200859, Control_c, 0, 64, 84
1, 200859, Control_c, 0, 67, 44
1, 200865, Note_off_c, 0, 43, 55
1, 200873, Control_c, 0, 64, 86
1, 200873, Control_c, 0, 67, 50
1, 200888, Control_c, 0, 64, 88
1, 200888, Control_c, 0, 67, 58
1, 200903, Control_c, 0, 64, 89
1, 200903, Control_c, 0, 67, 65
1, 200917, Control_c, 0, 64, 90
1, 200917, Control_c, 0, 67, 73
1, 200919, Poly_aftertouch_c, 0, 55, 0
1, 200932, Control_c, 0, 67, 84
1, 200940, Note_on_c, 0, 76, 64
1, 200947, Control_c, 0, 64, 91
1, 200947, Control_c, 0, 67, 97
1, 200962, Control_c, 0, 67, 113
1, 200975, Note_off_c, 0, 78, 38
1, 200977, Control_c, 0, 64, 91
1, 200977, Control_c, 0, 67, 127
1, 201126, Control_c, 0, 64, 91
1, 201140, Control_c, 0, 64, 90
1, 201155, Control_c, 0, 64, 88
1, 201170, Control_c, 0, 64, 86
1, 201185, Control_c, 0, 64, 82
1, 201200, Control_c, 0, 64, 75
1, 201214, Control_c, 0, 64, 69
1, 201229, Control_c, 0, 64, 64
1, 201234, Note_off_c, 0, 76, 56
1, 201244, Control_c, 0, 64, 46
1, 201256, Note_on_c, 0, 70, 32
1, 201259, Control_c, 0, 64, 0
1, 201261, Note_on_c, 0, 78, 46
1, 201264, Note_on_c, 0, 66, 35
1, 201473, Control_c, 0, 64, 43
1, 201488, Control_c, 0, 64, 65
1, 201503, Control_c, 0, 64, 70
1, 201515, Note_on_c, 0, 61, 13
1, 201518, Control_c, 0, 64, 73
1, 201533, Control_c, 0, 64, 76
1, 201546, Note_off_c, 0, 66, 42
1, 201547, Control_c, 0, 64, 80
1, 201562, Control_c, 0, 64, 83
1, 201577, Control_c, 0, 64, 87
1, 201592, Control_c, 0, 64, 91
1, 201607, Control_c, 0, 64, 93
1, 201622, Control_c, 0, 64, 95
1, 201637, Control_c, 0, 64, 97
1, 201652, Control_c, 0, 64, 99
1, 201666, Control_c, 0, 64, 101
1, 201681, Control_c, 0, 64, 103
1, 201696, Control_c, 0, 64, 104
1, 201711, Control_c, 0, 64, 105
1, 201713, Note_on_c, 0, 73, 49
1, 201721, Note_off_c, 0, 61, 35
1, 201726, Control_c, 0, 64, 106
1, 201726, Note_on_c, 0, 58, 32
1, 201740, Control_c, 0, 64, 108
1, 201755, Control_c, 0, 64, 110
1, 201763, Note_off_c, 0, 78, 29
1, 201770, Control_c, 0, 64, 111
1, 201781, Note_off_c, 0, 58, 45
1, 201785, Control_c, 0, 64, 112
1, 201830, Control_c, 0, 64, 112
1, 201875, Control_c, 0, 64, 113
1, 201904, Control_c, 0, 64, 113
1, 201919, Control_c, 0, 64, 114
1, 201922, Note_on_c, 0, 54, 35
1, 201934, Control_c, 0, 64, 114
1, 201963, Control_c, 0, 64, 115
1, 201965, Note_off_c, 0, 54, 54
1, 201978, Control_c, 0, 64, 115
1, 201993, Control_c, 0, 64, 116
1, 202008, Control_c, 0, 64, 117
1, 202023, Control_c, 0, 64, 117
1, 202045, Control_c, 0, 64, 118
1, 202104, Control_c, 0, 64, 113
1, 202119, Control_c, 0, 64, 100
1, 202127, Note_on_c, 0, 42, 38
1, 202134, Control_c, 0, 64, 87
1, 202134, Control_c, 0, 67, 119
1, 202149, Control_c, 0, 64, 78
1, 202149, Control_c, 0, 67, 108
1, 202163, Control_c, 0, 64, 76
1, 202163, Control_c, 0, 67, 96
1, 202178, Control_c, 0, 64, 78
1, 202178, Control_c, 0, 67, 85
1, 202193, Control_c, 0, 64, 82
1, 202193, Control_c, 0, 67, 74
1, 202208, Control_c, 0, 64, 87
1, 202208, Control_c, 0, 67, 64
1, 202223, Control_c, 0, 64, 93
1, 202223, Control_c, 0, 67, 53
1, 202227, Note_off_c, 0, 70, 57
1, 202228, Note_off_c, 0, 73, 37
1, 202237, Control_c, 0, 64, 98
1, 202237, Control_c, 0, 67, 42
1, 202252, Control_c, 0, 64, 100
1, 202252, Control_c, 0, 67, 31
1, 202267, Control_c, 0, 64, 102
1, 202267, Control_c, 0, 67, 20
1, 202282, Control_c, 0, 64, 103
1, 202282, Control_c, 0, 67, 9
1, 202296, Control_c, 0, 64, 103
1, 202296, Control_c, 0, 67, 0
1, 202311, Control_c, 0, 64, 104
1, 202317, Note_on_c, 0, 76, 54
1, 202325, Note_off_c, 0, 42, 44
1, 202326, Control_c, 0, 64, 104
1, 202341, Control_c, 0, 64, 105
1, 202356, Control_c, 0, 64, 106
1, 202370, Control_c, 0, 64, 107
1, 202385, Control_c, 0, 64, 107
1, 202400, Control_c, 0, 64, 108
1, 202507, Note_on_c, 0, 74, 76
1, 202519, Control_c, 0, 64, 108
1, 202564, Note_off_c, 0, 76, 30
1, 202593, Control_c, 0, 64, 109
1, 202609, Control_c, 0, 64, 110
1, 202623, Control_c, 0, 64, 110
1, 202638, Control_c, 0, 64, 111
1, 202668, Control_c, 0, 64, 112
1, 202683, Note_on_c, 0, 73, 84
1, 202707, Note_off_c, 0, 74, 61
1, 202868, Control_c, 0, 64, 111
1, 202883, Control_c, 0, 64, 102
1, 202891, Note_on_c, 0, 74, 80
1, 202893, Note_on_c, 0, 66, 47
1, 202898, Control_c, 0, 64, 86
1, 202908, Note_off_c, 0, 73, 56
1, 202912, Control_c, 0, 64, 67
1, 202927, Control_c, 0, 64, 0
1, 202972, Control_c, 0, 64, 19
1, 202986, Control_c, 0, 64, 62
1, 203001, Control_c, 0, 64, 70
1, 203016, Control_c, 0, 64, 78
1, 203031, Control_c, 0, 64, 84
1, 203046, Control_c, 0, 64, 89
1, 203060, Control_c, 0, 64, 93
1, 203073, Note_off_c, 0, 74, 62
1, 203075, Control_c, 0, 64, 97
1, 203077, Note_off_c, 0, 66, 37
1, 203082, Note_on_c, 0, 71, 75
1, 203090, Control_c, 0, 64, 100
1, 203105, Control_c, 0, 64, 106
1, 203107, Note_on_c, 0, 62, 49
1, 203119, Control_c, 0, 64, 113
1, 203134, Control_c, 0, 64, 127
1, 203248, Note_off_c, 0, 62, 53
1, 203272, Note_on_c, 0, 59, 46
1, 203320, Note_off_c, 0, 59, 58
1, 203333, Note_on_c, 0, 83, 90
1, 203524, Note_on_c, 0, 54, 45
1, 203580, Note_off_c, 0, 54, 55
1, 203622, Note_off_c, 0, 71, 62
1, 203765, Control_c, 0, 64, 92
1, 203780, Control_c, 0, 64, 73
1, 203783, Note_on_c, 0, 42, 39
1, 203795, Control_c, 0, 64, 62
1, 203810, Control_c, 0, 64, 51
1, 203825, Control_c, 0, 64, 59
1, 203840, Control_c, 0, 64, 65
1, 203854, Control_c, 0, 64, 71
1, 203869, Control_c, 0, 64, 78
1, 203884, Control_c, 0, 64, 83
1, 203899, Control_c, 0, 64, 87
1, 203914, Control_c, 0, 64, 91
1, 203928, Control_c, 0, 64, 95
1, 203943, Control_c, 0, 64, 98
1, 203958, Control_c, 0, 64, 102
1, 203973, Control_c, 0, 64, 105
1, 203988, Control_c, 0, 64, 110
1, 203995, Note_on_c, 0, 80, 69
1, 204002, Control_c, 0, 64, 115
1, 204017, Control_c, 0, 64, 126
1, 204032, Control_c, 0, 64, 127
1, 204049, Note_off_c, 0, 83, 61
1, 204112, Note_off_c, 0, 42, 41
1, 204197, Note_on_c, 0, 78, 76
1, 204278, Note_off_c, 0, 80, 39
1, 204376, Note_on_c, 0, 77, 71
1, 204549, Note_off_c, 0, 78, 0
1, 204562, Note_on_c, 0, 78, 52
1, 204585, Note_on_c, 0, 66, 45
1, 204587, Control_c, 0, 64, 119
1, 204594, Note_off_c, 0, 77, 57
1, 204602, Control_c, 0, 64, 97
1, 204617, Control_c, 0, 64, 80
1, 204631, Control_c, 0, 64, 63
1, 204646, Control_c, 0, 64, 0
1, 204690, Control_c, 0, 64, 60
1, 204705, Control_c, 0, 64, 67
1, 204720, Control_c, 0, 64, 75
1, 204735, Control_c, 0, 64, 80
1, 204749, Control_c, 0, 64, 84
1, 204764, Control_c, 0, 64, 87
1, 204779, Control_c, 0, 64, 89
1, 204788, Note_on_c, 0, 61, 36
1, 204794, Control_c, 0, 64, 92
1, 204809, Control_c, 0, 64, 95
1, 204815, Note_off_c, 0, 66, 37
1, 204823, Control_c, 0, 64, 98
1, 204838, Control_c, 0, 64, 100
1, 204853, Control_c, 0, 64, 103
1, 204868, Control_c, 0, 64, 105
1, 204883, Control_c, 0, 64, 106
1, 204898, Control_c, 0, 64, 107
1, 204943, Control_c, 0, 64, 108
1, 204957, Control_c, 0, 64, 108
1, 204960, Note_on_c, 0, 73, 61
1, 204972, Control_c, 0, 64, 109
1, 204982, Note_off_c, 0, 61, 41
1, 204987, Control_c, 0, 64, 109
1, 204993, Note_on_c, 0, 58, 40
1, 205002, Control_c, 0, 64, 110
1, 205008, Note_off_c, 0, 78, 57
1, 205032, Note_off_c, 0, 58, 57
1, 205128, Control_c, 0, 64, 110
1, 205201, Note_on_c, 0, 54, 27
1, 205262, Control_c, 0, 64, 110
1, 205276, Control_c, 0, 64, 107
1, 205291, Control_c, 0, 64, 93
1, 205306, Control_c, 0, 64, 79
1, 205321, Control_c, 0, 64, 67
1, 205336, Control_c, 0, 64, 58
1, 205351, Control_c, 0, 64, 60
1, 205362, Note_on_c, 0, 42, 33
1, 205366, Control_c, 0, 64, 66
1, 205380, Control_c, 0, 64, 72
1, 205395, Control_c, 0, 64, 79
1, 205410, Control_c, 0, 64, 86
1, 205425, Control_c, 0, 64, 92
1, 205440, Control_c, 0, 64, 96
1, 205454, Control_c, 0, 64, 98
1, 205456, Note_off_c, 0, 73, 57
1, 205469, Control_c, 0, 64, 100
1, 205484, Control_c, 0, 64, 102
1, 205499, Control_c, 0, 64, 104
1, 205513, Control_c, 0, 64, 107
1, 205525, Note_off_c, 0, 42, 45
1, 205528, Control_c, 0, 64, 110
1, 205543, Control_c, 0, 64, 113
1, 205558, Control_c, 0, 64, 113
1, 205588, Note_on_c, 0, 76, 39
1, 205599, Note_off_c, 0, 54, 45
1, 205721, Control_c, 0, 64, 113
1, 205735, Control_c, 0, 64, 112
1, 205750, Control_c, 0, 64, 112
1, 205765, Control_c, 0, 64, 111
1, 205767, Note_on_c, 0, 74, 58
1, 205803, Control_c, 0, 64, 111
1, 205818, Control_c, 0, 64, 110
1, 205833, Control_c, 0, 64, 109
1, 205848, Control_c, 0, 64, 109
1, 205863, Control_c, 0, 64, 108
1, 205873, Note_off_c, 0, 76, 30
1, 205878, Control_c, 0, 64, 107
1, 205907, Control_c, 0, 64, 107
1, 205922, Control_c, 0, 64, 106
1, 205936, Control_c, 0, 64, 106
1, 205941, Note_off_c, 0, 74, 54
1, 205945, Note_on_c, 0, 73, 59
1, 205951, Control_c, 0, 64, 104
1, 205966, Control_c, 0, 64, 102
1, 205981, Control_c, 0, 64, 100
1, 205996, Control_c, 0, 64, 98
1, 206010, Control_c, 0, 64, 97
1, 206025, Control_c, 0, 64, 96
1, 206040, Control_c, 0, 64, 95
1, 206040, Control_c, 0, 67, 9
1, 206054, Control_c, 0, 64, 93
1, 206054, Control_c, 0, 67, 10
1, 206069, Control_c, 0, 64, 92
1, 206069, Control_c, 0, 67, 11
1, 206084, Control_c, 0, 64, 90
1, 206084, Control_c, 0, 67, 11
1, 206099, Control_c, 0, 64, 87
1, 206099, Control_c, 0, 67, 12
1, 206114, Control_c, 0, 64, 84
1, 206123, Note_off_c, 0, 73, 57
1, 206129, Control_c, 0, 64, 78
1, 206129, Control_c, 0, 67, 12
1, 206144, Control_c, 0, 64, 69
1, 206144, Control_c, 0, 67, 13
1, 206159, Control_c, 0, 64, 39
1, 206159, Control_c, 0, 67, 14
1, 206159, Note_on_c, 0, 74, 49
1, 206163, Note_on_c, 0, 66, 26
1, 206174, Control_c, 0, 64, 0
1, 206174, Control_c, 0, 67, 15
1, 206189, Control_c, 0, 67, 17
1, 206203, Control_c, 0, 67, 18
1, 206218, Control_c, 0, 67, 20
1, 206233, Control_c, 0, 67, 22
1, 206248, Control_c, 0, 64, 38
1, 206248, Control_c, 0, 67, 25
1, 206262, Control_c, 0, 64, 65
1, 206262, Control_c, 0, 67, 30
1, 206277, Control_c, 0, 64, 71
1, 206277, Control_c, 0, 67, 37
1, 206292, Control_c, 0, 64, 76
1, 206292, Control_c, 0, 67, 44
1, 206307, Control_c, 0, 64, 79
1, 206307, Control_c, 0, 67, 51
1, 206322, Control_c, 0, 64, 82
1, 206322, Control_c, 0, 67, 57
1, 206323, Note_off_c, 0, 74, 50
1, 206336, Control_c, 0, 64, 86
1, 206336, Control_c, 0, 67, 65
1, 206351, Control_c, 0, 64, 89
1, 206351, Control_c, 0, 67, 73
1, 206366, Control_c, 0, 64, 93
1, 206366, Control_c, 0, 67, 83
1, 206369, Note_on_c, 0, 71, 54
1, 206381, Control_c, 0, 64, 96
1, 206381, Control_c, 0, 67, 97
1, 206395, Note_off_c, 0, 71, 64
1, 206396, Control_c, 0, 64, 98
1, 206396, Control_c, 0, 67, 112
1, 206400, Note_on_c, 0, 62, 25
1, 206410, Control_c, 0, 64, 100
1, 206410, Control_c, 0, 67, 127
1, 206425, Control_c, 0, 64, 102
1, 206425, Control_c, 0, 67, 127
1, 206440, Control_c, 0, 64, 104
1, 206454, Control_c, 0, 64, 105
1, 206499, Note_off_c, 0, 66, 35
1, 206536, Control_c, 0, 64, 105
1, 206615, Note_on_c, 0, 59, 39
1, 206634, Note_off_c, 0, 62, 38
1, 206661, Note_on_c, 0, 86, 62
1, 206663, Note_off_c, 0, 59, 56
1, 206733, Note_off_c, 0, 86, 60
1, 206751, Note_on_c, 0, 85, 62
1, 206795, Note_off_c, 0, 85, 55
1, 206810, Note_on_c, 0, 83, 63
1, 206827, Note_on_c, 0, 54, 40
1, 206877, Control_c, 0, 64, 105
1, 206892, Control_c, 0, 64, 104
1, 206922, Control_c, 0, 64, 104
1, 206937, Control_c, 0, 64, 103
1, 206951, Control_c, 0, 64, 103
1, 206951, Control_c, 0, 67, 121
1, 206966, Control_c, 0, 64, 102
1, 206966, Control_c, 0, 67, 112
1, 206981, Control_c, 0, 64, 101
1, 206981, Control_c, 0, 67, 101
1, 206995, Note_off_c, 0, 54, 45
1, 206996, Control_c, 0, 64, 95
1, 206996, Control_c, 0, 67, 92
1, 207011, Control_c, 0, 64, 81
1, 207011, Control_c, 0, 67, 80
1, 207020, Note_on_c, 0, 42, 40
1, 207025, Control_c, 0, 64, 68
1, 207025, Control_c, 0, 67, 66
1, 207040, Control_c, 0, 64, 39
1, 207040, Control_c, 0, 67, 55
1, 207055, Control_c, 0, 64, 0
1, 207055, Control_c, 0, 67, 45
1, 207070, Control_c, 0, 67, 35
1, 207084, Control_c, 0, 64, 55
1, 207084, Control_c, 0, 67, 20
1, 207099, Control_c, 0, 64, 66
1, 207099, Control_c, 0, 67, 0
1, 207114, Control_c, 0, 64, 73
1, 207129, Control_c, 0, 64, 78
1, 207144, Control_c, 0, 64, 82
1, 207158, Control_c, 0, 64, 85
1, 207173, Control_c, 0, 64, 87
1, 207188, Control_c, 0, 64, 90
1, 207203, Control_c, 0, 64, 92
1, 207218, Control_c, 0, 64, 94
1, 207230, Note_on_c, 0, 80, 56
1, 207232, Control_c, 0, 64, 96
1, 207237, Note_off_c, 0, 83, 53
1, 207247, Control_c, 0, 64, 98
1, 207262, Control_c, 0, 64, 99
1, 207284, Control_c, 0, 64, 100
1, 207299, Control_c, 0, 64, 101
1, 207329, Control_c, 0, 64, 102
1, 207344, Control_c, 0, 64, 102
1, 207358, Control_c, 0, 64, 103
1, 207373, Control_c, 0, 64, 103
1, 207420, Control_c, 0, 64, 100
1, 207426, Note_on_c, 0, 78, 66
1, 207435, Control_c, 0, 64, 90
1, 207447, Note_off_c, 0, 80, 58
1, 207449, Control_c, 0, 64, 80
1, 207464, Control_c, 0, 64, 75
1, 207494, Control_c, 0, 64, 79
1, 207508, Control_c, 0, 64, 83
1, 207521, Note_off_c, 0, 42, 55
1, 207523, Control_c, 0, 64, 90
1, 207538, Control_c, 0, 64, 95
1, 207553, Control_c, 0, 64, 98
1, 207568, Control_c, 0, 64, 100
1, 207582, Control_c, 0, 64, 101
1, 207597, Control_c, 0, 64, 103
1, 207602, Note_off_c, 0, 78, 58
1, 207609, Note_on_c, 0, 77, 66
1, 207612, Control_c, 0, 64, 103
1, 207626, Control_c, 0, 64, 105
1, 207641, Control_c, 0, 64, 107
1, 207656, Control_c, 0, 64, 109
1, 207671, Control_c, 0, 64, 111
1, 207686, Control_c, 0, 64, 112
1, 207789, Control_c, 0, 64, 102
1, 207801, Note_on_c, 0, 78, 64
1, 207803, Note_on_c, 0, 66, 52
1, 207804, Control_c, 0, 64, 87
1, 207819, Control_c, 0, 64, 74
1, 207824, Note_off_c, 0, 77, 54
1, 207834, Control_c, 0, 64, 64
1, 207849, Control_c, 0, 64, 52
1, 207864, Control_c, 0, 64, 57
1, 207879, Control_c, 0, 64, 65
1, 207894, Control_c, 0, 64, 72
1, 207908, Control_c, 0, 64, 78
1, 207923, Control_c, 0, 64, 84
1, 207938, Control_c, 0, 64, 89
1, 207944, Note_off_c, 0, 66, 52
1, 207953, Control_c, 0, 64, 94
1, 207968, Control_c, 0, 64, 98
1, 207982, Control_c, 0, 64, 103
1, 207997, Control_c, 0, 64, 108
1, 208004, Note_on_c, 0, 61, 51
1, 208012, Control_c, 0, 64, 117
1, 208034, Control_c, 0, 64, 127
1, 208188, Note_off_c, 0, 61, 37
1, 208200, Note_on_c, 0, 73, 68
1, 208209, Note_on_c, 0, 58, 46
1, 208261, Note_off_c, 0, 58, 58
1, 208317, Note_off_c, 0, 78, 50
1, 208391, Note_on_c, 0, 54, 46
1, 208568, Control_c, 0, 64, 90
1, 208571, Note_on_c, 0, 42, 58
1, 208583, Control_c, 0, 64, 72
1, 208597, Control_c, 0, 64, 63
1, 208612, Control_c, 0, 64, 64
1, 208627, Control_c, 0, 64, 69
1, 208642, Control_c, 0, 64, 77
1, 208657, Control_c, 0, 64, 87
1, 208672, Control_c, 0, 64, 96
1, 208687, Control_c, 0, 64, 102
1, 208701, Control_c, 0, 64, 107
1, 208716, Control_c, 0, 64, 114
1, 208731, Control_c, 0, 64, 127
1, 208748, Note_off_c, 0, 42, 50
1, 208783, Note_on_c, 0, 76, 71
1, 208817, Note_off_c, 0, 54, 58
1, 208842, Note_off_c, 0, 73, 54
1, 208976, Note_on_c, 0, 74, 76
1, 209011, Note_off_c, 0, 76, 54
1, 209150, Note_on_c, 0, 73, 77
1, 209166, Note_off_c, 0, 74, 60
1, 209347, Note_on_c, 0, 47, 55
1, 209353, Note_on_c, 0, 59, 51
1, 209354, Note_off_c, 0, 73, 59
1, 209357, Note_on_c, 0, 74, 73
1, 209361, Control_c, 0, 64, 111
1, 209376, Control_c, 0, 64, 83
1, 209391, Control_c, 0, 64, 64
1, 209406, Control_c, 0, 64, 0
1, 209509, Control_c, 0, 64, 60
1, 209532, Control_c, 0, 64, 66
1, 209547, Control_c, 0, 64, 72
1, 209551, Note_on_c, 0, 78, 74
1, 209561, Control_c, 0, 64, 78
1, 209576, Control_c, 0, 64, 84
1, 209587, Note_off_c, 0, 74, 51
1, 209591, Control_c, 0, 64, 88
1, 209605, Control_c, 0, 64, 92
1, 209620, Control_c, 0, 64, 96
1, 209635, Control_c, 0, 64, 100
1, 209650, Control_c, 0, 64, 102
1, 209724, Control_c, 0, 64, 94
1, 209739, Control_c, 0, 64, 80
1, 209743, Note_on_c, 0, 52, 74
1, 209744, Note_off_c, 0, 47, 65
1, 209745, Note_on_c, 0, 79, 67
1, 209748, Note_off_c, 0, 78, 58
1, 209754, Control_c, 0, 64, 66
1, 209769, Control_c, 0, 64, 0
1, 209799, Control_c, 0, 64, 17
1, 209814, Control_c, 0, 64, 64
1, 209829, Control_c, 0, 64, 72
1, 209844, Control_c, 0, 64, 80
1, 209851, Note_off_c, 0, 59, 52
1, 209858, Control_c, 0, 64, 87
1, 209863, Note_off_c, 0, 52, 62
1, 209873, Control_c, 0, 64, 90
1, 209888, Control_c, 0, 64, 95
1, 209903, Control_c, 0, 64, 103
1, 209918, Control_c, 0, 64, 114
1, 209933, Control_c, 0, 64, 127
1, 209940, Note_on_c, 0, 76, 76
1, 209942, Note_off_c, 0, 79, 56
1, 210125, Control_c, 0, 64, 97
1, 210140, Control_c, 0, 64, 72
1, 210145, Note_on_c, 0, 54, 46
1, 210147, Note_on_c, 0, 74, 79
1, 210150, Note_on_c, 0, 62, 48
1, 210153, Note_off_c, 0, 76, 56
1, 210155, Control_c, 0, 64, 0
1, 210156, Note_on_c, 0, 59, 42
1, 210228, Control_c, 0, 64, 43
1, 210243, Control_c, 0, 64, 67
1, 210258, Control_c, 0, 64, 75
1, 210281, Control_c, 0, 64, 85
1, 210296, Control_c, 0, 64, 93
1, 210310, Control_c, 0, 64, 96
1, 210325, Control_c, 0, 64, 98
1, 210340, Control_c, 0, 64, 103
1, 210352, Note_off_c, 0, 74, 61
1, 210355, Control_c, 0, 64, 110
1, 210356, Note_on_c, 0, 71, 76
1, 210369, Control_c, 0, 64, 126
1, 210384, Control_c, 0, 64, 127
1, 210517, Control_c, 0, 64, 115
1, 210532, Control_c, 0, 64, 91
1, 210547, Note_off_c, 0, 62, 37
1, 210547, Control_c, 0, 64, 73
1, 210562, Control_c, 0, 64, 35
1, 210565, Note_on_c, 0, 61, 63
1, 210576, Control_c, 0, 64, 0
1, 210625, Note_off_c, 0, 59, 43
1, 210637, Control_c, 0, 64, 59
1, 210651, Control_c, 0, 64, 69
1, 210666, Control_c, 0, 64, 79
1, 210681, Note_off_c, 0, 54, 57
1, 210681, Control_c, 0, 64, 92
1, 210696, Control_c, 0, 64, 101
1, 210711, Control_c, 0, 64, 106
1, 210714, Note_off_c, 0, 61, 59
1, 210726, Control_c, 0, 64, 116
1, 210740, Control_c, 0, 64, 127
1, 210793, Note_on_c, 0, 70, 74
1, 210804, Note_off_c, 0, 71, 49
1, 211074, Control_c, 0, 64, 98
1, 211089, Control_c, 0, 64, 75
1, 211090, Note_off_c, 0, 70, 60
1, 211104, Control_c, 0, 64, 0
1, 211108, Note_on_c, 0, 64, 50
1, 211109, Note_on_c, 0, 59, 42
1, 211111, Note_on_c, 0, 71, 66
1, 211113, Note_on_c, 0, 55, 45
1, 211178, Control_c, 0, 64, 27
1, 211193, Control_c, 0, 64, 69
1, 211199, Note_off_c, 0, 71, 64
1, 211207, Control_c, 0, 64, 83
1, 211222, Control_c, 0, 64, 103
1, 211237, Control_c, 0, 64, 127
1, 211385, Control_c, 0, 67, 10
1, 211401, Control_c, 0, 67, 15
1, 211415, Control_c, 0, 67, 21
1, 211430, Control_c, 0, 67, 28
1, 211445, Control_c, 0, 67, 33
1, 211460, Control_c, 0, 67, 38
1, 211474, Control_c, 0, 64, 117
1, 211474, Control_c, 0, 67, 43
1, 211489, Control_c, 0, 64, 108
1, 211489, Control_c, 0, 67, 47
1, 211504, Control_c, 0, 64, 104
1, 211504, Control_c, 0, 67, 50
1, 211519, Control_c, 0, 64, 103
1, 211519, Control_c, 0, 67, 54
1, 211534, Control_c, 0, 67, 58
1, 211543, Note_on_c, 0, 91, 54
1, 211548, Control_c, 0, 64, 103
1, 211548, Control_c, 0, 67, 63
1, 211563, Control_c, 0, 64, 100
1, 211563, Control_c, 0, 67, 67
1, 211578, Control_c, 0, 64, 95
1, 211578, Control_c, 0, 67, 73
1, 211593, Control_c, 0, 64, 86
1, 211593, Control_c, 0, 67, 77
1, 211608, Control_c, 0, 64, 77
1, 211608, Control_c, 0, 67, 82
1, 211610, Note_off_c, 0, 91, 50
1, 211620, Note_on_c, 0, 90, 60
1, 211623, Control_c, 0, 64, 69
1, 211623, Control_c, 0, 67, 88
1, 211638, Control_c, 0, 64, 63
1, 211638, Control_c, 0, 67, 94
1, 211653, Control_c, 0, 64, 50
1, 211653, Control_c, 0, 67, 100
1, 211667, Control_c, 0, 64, 29
1, 211667, Control_c, 0, 67, 107
1, 211682, Control_c, 0, 64, 14
1, 211682, Control_c, 0, 67, 113
1, 211688, Note_off_c, 0, 90, 62
1, 211693, Note_on_c, 0, 88, 65
1, 211697, Control_c, 0, 64, 0
1, 211697, Control_c, 0, 67, 118
1, 211712, Control_c, 0, 67, 123
1, 211721, Note_on_c, 0, 52, 39
1, 211727, Control_c, 0, 67, 127
1, 211734, Note_off_c, 0, 88, 63
1, 211788, Note_on_c, 0, 86, 47
1, 211816, Note_off_c, 0, 64, 61
1, 211822, Control_c, 0, 64, 23
1, 211826, Note_off_c, 0, 86, 51
1, 211827, Note_off_c, 0, 55, 61
1, 211830, Note_off_c, 0, 52, 59
1, 211836, Note_off_c, 0, 59, 60
1, 211837, Control_c, 0, 64, 65
1, 211852, Control_c, 0, 64, 78
1, 211862, Note_on_c, 0, 85, 56
1, 211867, Control_c, 0, 64, 87
1, 211882, Control_c, 0, 64, 95
1, 211897, Control_c, 0, 64, 98
1, 211912, Control_c, 0, 64, 102
1, 211927, Control_c, 0, 64, 108
1, 211933, Note_off_c, 0, 85, 56
1, 211942, Control_c, 0, 64, 118
1, 211956, Control_c, 0, 64, 127
1, 211964, Note_on_c, 0, 83, 51
1, 212017, Note_off_c, 0, 83, 0
1, 212017, Note_on_c, 0, 83, 13
1, 212030, Control_c, 0, 64, 124
1, 212045, Control_c, 0, 64, 107
1, 212060, Control_c, 0, 64, 93
1, 212071, Note_on_c, 0, 59, 35
1, 212074, Control_c, 0, 64, 78
1, 212076, Note_on_c, 0, 62, 30
1, 212078, Note_on_c, 0, 54, 50
1, 212089, Control_c, 0, 64, 66
1, 212104, Control_c, 0, 64, 0
1, 212148, Control_c, 0, 64, 62
1, 212163, Control_c, 0, 64, 69
1, 212178, Control_c, 0, 64, 78
1, 212194, Control_c, 0, 64, 86
1, 212209, Control_c, 0, 64, 91
1, 212224, Note_off_c, 0, 83, 59
1, 212224, Control_c, 0, 64, 94
1, 212238, Control_c, 0, 64, 100
1, 212253, Control_c, 0, 64, 107
1, 212262, Note_on_c, 0, 85, 58
1, 212268, Control_c, 0, 64, 116
1, 212283, Control_c, 0, 64, 127
1, 212349, Note_off_c, 0, 85, 46
1, 212401, Control_c, 0, 64, 105
1, 212416, Control_c, 0, 64, 87
1, 212427, Note_off_c, 0, 62, 40
1, 212431, Control_c, 0, 64, 68
1, 212435, Note_on_c, 0, 61, 47
1, 212443, Note_on_c, 0, 78, 55
1, 212445, Control_c, 0, 64, 43
1, 212460, Control_c, 0, 64, 0
1, 212475, Control_c, 0, 64, 11
1, 212490, Control_c, 0, 64, 61
1, 212505, Note_off_c, 0, 59, 42
1, 212505, Control_c, 0, 64, 69
1, 212527, Control_c, 0, 64, 78
1, 212531, Note_off_c, 0, 54, 59
1, 212542, Control_c, 0, 64, 85
1, 212551, Note_off_c, 0, 61, 60
1, 212557, Control_c, 0, 64, 93
1, 212571, Control_c, 0, 64, 100
1, 212586, Control_c, 0, 64, 105
1, 212601, Control_c, 0, 64, 109
1, 212611, Note_off_c, 0, 78, 38
1, 212616, Control_c, 0, 64, 117
1, 212630, Note_on_c, 0, 82, 66
1, 212630, Control_c, 0, 64, 127
1, 212794, Control_c, 0, 64, 103
1, 212802, Note_off_c, 0, 82, 49
1, 212809, Control_c, 0, 64, 77
1, 212817, Note_on_c, 0, 83, 56
1, 212821, Note_on_c, 0, 55, 39
1, 212823, Control_c, 0, 64, 59
1, 212826, Note_on_c, 0, 64, 30
1, 212838, Control_c, 0, 64, 0
1, 212850, Note_on_c, 0, 59, 17
1, 212883, Control_c, 0, 64, 38
1, 212897, Control_c, 0, 64, 64
1, 212912, Control_c, 0, 64, 70
1, 212927, Control_c, 0, 64, 74
1, 212942, Control_c, 0, 64, 78
1, 212957, Control_c, 0, 64, 82
1, 212971, Control_c, 0, 64, 86
1, 212976, Note_off_c, 0, 83, 53
1, 212987, Control_c, 0, 64, 92
1, 213002, Control_c, 0, 64, 97
1, 213009, Note_on_c, 0, 78, 60
1, 213017, Control_c, 0, 64, 103
1, 213032, Control_c, 0, 64, 109
1, 213046, Control_c, 0, 64, 114
1, 213061, Control_c, 0, 64, 118
1, 213076, Control_c, 0, 64, 121
1, 213089, Note_off_c, 0, 78, 0
1, 213089, Note_on_c, 0, 78, 4
1, 213091, Control_c, 0, 64, 122
1, 213150, Control_c, 0, 64, 120
1, 213165, Control_c, 0, 64, 106
1, 213180, Control_c, 0, 64, 86
1, 213181, Note_off_c, 0, 78, 55
1, 213194, Note_on_c, 0, 52, 40
1, 213194, Control_c, 0, 64, 70
1, 213196, Note_on_c, 0, 79, 55
1, 213209, Control_c, 0, 64, 48
1, 213224, Control_c, 0, 64, 0
1, 213253, Control_c, 0, 64, 62
1, 213257, Note_off_c, 0, 64, 57
1, 213276, Control_c, 0, 64, 70
1, 213281, Note_off_c, 0, 55, 47
1, 213291, Control_c, 0, 64, 80
1, 213298, Note_off_c, 0, 52, 58
1, 213305, Note_off_c, 0, 59, 48
1, 213306, Control_c, 0, 64, 88
1, 213320, Control_c, 0, 64, 95
1, 213335, Control_c, 0, 64, 101
1, 213350, Control_c, 0, 64, 106
1, 213364, Note_off_c, 0, 79, 43
1, 213365, Control_c, 0, 64, 113
1, 213365, Control_c, 0, 67, 119
1, 213381, Control_c, 0, 64, 127
1, 213381, Control_c, 0, 67, 109
1, 213392, Note_on_c, 0, 76, 56
1, 213395, Control_c, 0, 67, 95
1, 213410, Control_c, 0, 67, 77
1, 213425, Control_c, 0, 67, 60
1, 213440, Control_c, 0, 67, 45
1, 213454, Control_c, 0, 67, 34
1, 213469, Control_c, 0, 67, 25
1, 213484, Control_c, 0, 67, 15
1, 213499, Control_c, 0, 67, 0
1, 213557, Note_off_c, 0, 76, 58
1, 213578, Note_on_c, 0, 74, 63
1, 213588, Control_c, 0, 64, 100
1, 213589, Note_on_c, 0, 59, 33
1, 213590, Note_on_c, 0, 54, 40
1, 213601, Note_on_c, 0, 62, 35
1, 213602, Control_c, 0, 64, 80
1, 213617, Control_c, 0, 64, 65
1, 213632, Control_c, 0, 64, 32
1, 213647, Control_c, 0, 64, 0
1, 213662, Control_c, 0, 64, 57
1, 213677, Control_c, 0, 64, 66
1, 213692, Control_c, 0, 64, 72
1, 213706, Control_c, 0, 64, 77
1, 213721, Control_c, 0, 64, 80
1, 213721, Note_off_c, 0, 74, 62
1, 213736, Control_c, 0, 64, 82
1, 213751, Control_c, 0, 64, 85
1, 213765, Control_c, 0, 64, 89
1, 213769, Note_on_c, 0, 71, 54
1, 213780, Control_c, 0, 64, 93
1, 213796, Control_c, 0, 64, 97
1, 213811, Control_c, 0, 64, 100
1, 213826, Control_c, 0, 64, 103
1, 213841, Control_c, 0, 64, 105
1, 213855, Control_c, 0, 64, 108
1, 213870, Control_c, 0, 64, 108
1, 213915, Control_c, 0, 64, 108
1, 213930, Control_c, 0, 64, 100
1, 213944, Control_c, 0, 64, 83
1, 213959, Control_c, 0, 64, 69
1, 213962, Note_on_c, 0, 61, 53
1, 213964, Note_off_c, 0, 62, 47
1, 213974, Control_c, 0, 64, 48
1, 213989, Control_c, 0, 64, 0
1, 214004, Control_c, 0, 64, 30
1, 214025, Control_c, 0, 64, 62
1, 214040, Control_c, 0, 64, 69
1, 214049, Note_off_c, 0, 59, 44
1, 214055, Control_c, 0, 64, 77
1, 214070, Control_c, 0, 64, 83
1, 214076, Note_off_c, 0, 71, 47
1, 214085, Control_c, 0, 64, 88
1, 214098, Note_off_c, 0, 61, 60
1, 214100, Control_c, 0, 64, 93
1, 214115, Control_c, 0, 64, 97
1, 214130, Control_c, 0, 64, 100
1, 214144, Control_c, 0, 64, 103
1, 214159, Control_c, 0, 64, 104
1, 214165, Note_off_c, 0, 54, 43
1, 214167, Note_on_c, 0, 70, 60
1, 214174, Control_c, 0, 64, 106
1, 214189, Control_c, 0, 64, 109
1, 214204, Control_c, 0, 64, 112
1, 214218, Control_c, 0, 64, 114
1, 214233, Control_c, 0, 64, 115
1, 214322, Control_c, 0, 64, 114
1, 214337, Control_c, 0, 64, 105
1, 214344, Note_on_c, 0, 55, 52
1, 214351, Note_off_c, 0, 70, 63
1, 214351, Control_c, 0, 64, 90
1, 214364, Note_on_c, 0, 71, 62
1, 214366, Control_c, 0, 64, 74
1, 214381, Control_c, 0, 64, 60
1, 214395, Control_c, 0, 64, 0
1, 214425, Control_c, 0, 64, 59
1, 214440, Control_c, 0, 64, 67
1, 214455, Control_c, 0, 64, 73
1, 214470, Control_c, 0, 64, 79
1, 214484, Control_c, 0, 64, 83
1, 214499, Control_c, 0, 64, 84
1, 214514, Control_c, 0, 64, 87
1, 214529, Control_c, 0, 64, 89
1, 214543, Note_on_c, 0, 66, 66
1, 214544, Note_off_c, 0, 71, 61
1, 214544, Control_c, 0, 64, 92
1, 214559, Control_c, 0, 64, 93
1, 214574, Control_c, 0, 64, 94
1, 214589, Control_c, 0, 64, 95
1, 214604, Control_c, 0, 64, 95
1, 214678, Control_c, 0, 64, 93
1, 214693, Control_c, 0, 64, 85
1, 214708, Control_c, 0, 64, 71
1, 214709, Note_off_c, 0, 66, 62
1, 214718, Note_on_c, 0, 52, 59
1, 214722, Note_on_c, 0, 67, 66
1, 214723, Control_c, 0, 64, 42
1, 214726, Note_off_c, 0, 55, 58
1, 214738, Control_c, 0, 64, 0
1, 214804, Control_c, 0, 64, 63
1, 214818, Control_c, 0, 64, 70
1, 214833, Control_c, 0, 64, 76
1, 214848, Control_c, 0, 64, 81
1, 214863, Control_c, 0, 64, 83
1, 214878, Control_c, 0, 64, 84
1, 214892, Control_c, 0, 64, 87
1, 214907, Control_c, 0, 64, 90
1, 214909, Note_on_c, 0, 64, 68
1, 214922, Control_c, 0, 64, 92
1, 214926, Note_off_c, 0, 52, 58
1, 214937, Control_c, 0, 64, 93
1, 214952, Control_c, 0, 64, 94
1, 214966, Control_c, 0, 64, 95
1, 214974, Note_off_c, 0, 67, 39
1, 214981, Control_c, 0, 64, 95
1, 215070, Control_c, 0, 64, 92
1, 215084, Control_c, 0, 64, 81
1, 215099, Control_c, 0, 64, 69
1, 215103, Note_on_c, 0, 54, 51
1, 215114, Control_c, 0, 64, 43
1, 215116, Note_on_c, 0, 62, 66
1, 215129, Control_c, 0, 64, 0
1, 215139, Note_off_c, 0, 64, 56
1, 215173, Control_c, 0, 64, 61
1, 215188, Control_c, 0, 64, 70
1, 215203, Control_c, 0, 64, 78
1, 215218, Control_c, 0, 64, 85
1, 215233, Control_c, 0, 64, 89
1, 215248, Control_c, 0, 64, 92
1, 215262, Control_c, 0, 64, 94
1, 215277, Control_c, 0, 64, 97
1, 215292, Control_c, 0, 64, 99
1, 215307, Control_c, 0, 64, 100
1, 215322, Control_c, 0, 64, 101
1, 215325, Note_on_c, 0, 59, 70
1, 215333, Note_off_c, 0, 62, 61
1, 215337, Control_c, 0, 64, 101
1, 215352, Control_c, 0, 64, 102
1, 215471, Control_c, 0, 64, 96
1, 215486, Control_c, 0, 64, 85
1, 215501, Control_c, 0, 64, 73
1, 215503, Note_on_c, 0, 42, 68
1, 215522, Control_c, 0, 64, 63
1, 215537, Control_c, 0, 64, 50
1, 215552, Control_c, 0, 64, 53
1, 215567, Control_c, 0, 64, 64
1, 215582, Control_c, 0, 64, 70
1, 215596, Control_c, 0, 64, 76
1, 215611, Control_c, 0, 64, 83
1, 215626, Control_c, 0, 64, 89
1, 215637, Note_off_c, 0, 42, 56
1, 215641, Control_c, 0, 64, 95
1, 215656, Control_c, 0, 64, 102
1, 215671, Control_c, 0, 64, 108
1, 215686, Control_c, 0, 64, 113
1, 215688, Note_off_c, 0, 54, 61
1, 215701, Control_c, 0, 64, 119
1, 215715, Control_c, 0, 64, 127
1, 215728, Note_on_c, 0, 58, 76
1, 215738, Note_off_c, 0, 59, 55
1, 215997, Note_on_c, 0, 47, 66
1, 216008, Note_off_c, 0, 58, 59
1, 216011, Control_c, 0, 64, 122
1, 216016, Note_on_c, 0, 59, 69
1, 216026, Control_c, 0, 64, 93
1, 216040, Control_c, 0, 64, 73
1, 216055, Control_c, 0, 64, 55
1, 216070, Control_c, 0, 64, 0
1, 216130, Control_c, 0, 64, 56
1, 216145, Control_c, 0, 64, 66
1, 216159, Control_c, 0, 64, 73
1, 216174, Control_c, 0, 64, 79
1, 216190, Control_c, 0, 64, 85
1, 216205, Control_c, 0, 64, 89
1, 216219, Control_c, 0, 64, 94
1, 216234, Control_c, 0, 64, 100
1, 216249, Control_c, 0, 64, 105
1, 216271, Control_c, 0, 64, 109
1, 216282, Note_on_c, 0, 64, 71
1, 216286, Control_c, 0, 64, 112
1, 216300, Note_off_c, 0, 59, 53
1, 216301, Control_c, 0, 64, 115
1, 216316, Control_c, 0, 64, 118
1, 216331, Control_c, 0, 64, 123
1, 216345, Control_c, 0, 64, 127
1, 216481, Note_on_c, 0, 63, 76
1, 216488, Note_on_c, 0, 54, 59
1, 216493, Note_off_c, 0, 64, 56
1, 216494, Control_c, 0, 64, 104
1, 216508, Control_c, 0, 64, 84
1, 216523, Control_c, 0, 64, 66
1, 216538, Control_c, 0, 64, 43
1, 216553, Control_c, 0, 64, 29
1, 216568, Control_c, 0, 64, 56
1, 216583, Control_c, 0, 64, 65
1, 216597, Control_c, 0, 64, 72
1, 216612, Control_c, 0, 64, 80
1, 216627, Control_c, 0, 64, 87
1, 216642, Control_c, 0, 64, 92
1, 216657, Control_c, 0, 64, 97
1, 216671, Note_on_c, 0, 66, 75
1, 216671, Control_c, 0, 64, 101
1, 216686, Control_c, 0, 64, 106
1, 216691, Note_off_c, 0, 63, 55
1, 216701, Control_c, 0, 64, 112
1, 216716, Control_c, 0, 64, 118
1, 216731, Control_c, 0, 64, 127
1, 216839, Note_off_c, 0, 66, 60
1, 216849, Control_c, 0, 64, 123
1, 216857, Note_off_c, 0, 54, 55
1, 216860, Note_on_c, 0, 55, 56
1, 216863, Control_c, 0, 64, 97
1, 216865, Note_on_c, 0, 64, 71
1, 216878, Control_c, 0, 64, 79
1, 216890, Note_off_c, 0, 47, 50
1, 216893, Control_c, 0, 64, 61
1, 216908, Control_c, 0, 64, 0
1, 216938, Control_c, 0, 64, 44
1, 216953, Control_c, 0, 64, 63
1, 216968, Control_c, 0, 64, 70
1, 216983, Control_c, 0, 64, 76
1, 216998, Control_c, 0, 64, 82
1, 217020, Control_c, 0, 64, 86
1, 217035, Control_c, 0, 64, 90
1, 217050, Control_c, 0, 64, 93
1, 217061, Note_off_c, 0, 64, 39
1, 217063, Note_on_c, 0, 71, 75
1, 217065, Control_c, 0, 64, 95
1, 217080, Control_c, 0, 64, 98
1, 217093, Note_off_c, 0, 55, 49
1, 217094, Control_c, 0, 64, 101
1, 217109, Control_c, 0, 64, 103
1, 217123, Control_c, 0, 64, 106
1, 217138, Control_c, 0, 64, 107
1, 217153, Control_c, 0, 64, 108
1, 217257, Control_c, 0, 64, 107
1, 217261, Note_on_c, 0, 55, 41
1, 217266, Note_off_c, 0, 71, 61
1, 217266, Note_on_c, 0, 70, 71
1, 217269, Note_on_c, 0, 52, 47
1, 217272, Control_c, 0, 64, 98
1, 217286, Control_c, 0, 64, 83
1, 217301, Control_c, 0, 64, 69
1, 217316, Control_c, 0, 64, 48
1, 217331, Control_c, 0, 64, 0
1, 217346, Control_c, 0, 64, 27
1, 217360, Control_c, 0, 64, 60
1, 217375, Control_c, 0, 64, 68
1, 217390, Control_c, 0, 64, 74
1, 217405, Control_c, 0, 64, 79
1, 217419, Control_c, 0, 64, 83
1, 217434, Control_c, 0, 64, 85
1, 217449, Control_c, 0, 64, 87
1, 217464, Control_c, 0, 64, 89
1, 217475, Note_on_c, 0, 73, 72
1, 217479, Control_c, 0, 64, 90
1, 217493, Control_c, 0, 64, 92
1, 217508, Control_c, 0, 64, 94
1, 217512, Note_off_c, 0, 70, 50
1, 217520, Note_off_c, 0, 55, 42
1, 217523, Control_c, 0, 64, 95
1, 217528, Note_off_c, 0, 52, 35
1, 217538, Control_c, 0, 64, 97
1, 217553, Control_c, 0, 64, 97
1, 217582, Control_c, 0, 64, 98
1, 217611, Control_c, 0, 64, 98
1, 217701, Control_c, 0, 64, 97
1, 217712, Note_on_c, 0, 71, 67
1, 217716, Control_c, 0, 64, 90
1, 217719, Note_on_c, 0, 54, 47
1, 217721, Note_off_c, 0, 73, 52
1, 217728, Note_on_c, 0, 50, 42
1, 217731, Control_c, 0, 64, 78
1, 217746, Control_c, 0, 64, 64
1, 217767, Control_c, 0, 64, 28
1, 217783, Control_c, 0, 64, 0
1, 217798, Control_c, 0, 64, 46
1, 217813, Control_c, 0, 64, 63
1, 217828, Control_c, 0, 64, 68
1, 217842, Control_c, 0, 64, 73
1, 217857, Control_c, 0, 64, 78
1, 217872, Control_c, 0, 64, 81
1, 217887, Control_c, 0, 64, 83
1, 217902, Control_c, 0, 64, 85
1, 217916, Control_c, 0, 64, 87
1, 217930, Note_off_c, 0, 71, 63
1, 217931, Control_c, 0, 64, 88
1, 217946, Control_c, 0, 64, 90
1, 217961, Control_c, 0, 64, 92
1, 217963, Note_on_c, 0, 66, 68
1, 217976, Control_c, 0, 64, 93
1, 217990, Control_c, 0, 64, 94
1, 218005, Control_c, 0, 64, 94
1, 218020, Control_c, 0, 64, 95
1, 218033, Note_off_c, 0, 50, 34
1, 218050, Note_off_c, 0, 54, 36
1, 218064, Control_c, 0, 64, 95
1, 218139, Control_c, 0, 64, 95
1, 218198, Control_c, 0, 64, 94
1, 218213, Control_c, 0, 64, 94
1, 218228, Control_c, 0, 64, 92
1, 218242, Control_c, 0, 64, 89
1, 218252, Note_on_c, 0, 69, 50
1, 218257, Control_c, 0, 64, 84
1, 218261, Note_off_c, 0, 66, 38
1, 218272, Control_c, 0, 64, 76
1, 218287, Control_c, 0, 64, 69
1, 218297, Note_on_c, 0, 52, 37
1, 218299, Note_on_c, 0, 67, 49
1, 218302, Control_c, 0, 64, 62
1, 218315, Note_on_c, 0, 55, 35
1, 218316, Control_c, 0, 64, 21
1, 218331, Note_off_c, 0, 69, 50
1, 218331, Control_c, 0, 64, 0
1, 218725, Note_on_c, 0, 66, 48
1, 218739, Control_c, 0, 64, 54
1, 218752, Note_off_c, 0, 67, 36
1, 218754, Control_c, 0, 64, 64
1, 218769, Control_c, 0, 64, 66
1, 218813, Note_off_c, 0, 66, 57
1, 218813, Control_c, 0, 64, 65
1, 218822, Note_on_c, 0, 64, 53
1, 218872, Control_c, 0, 64, 65
1, 218917, Control_c, 0, 64, 64
1, 218932, Control_c, 0, 64, 63
1, 218935, Note_off_c, 0, 55, 42
1, 218935, Note_off_c, 0, 64, 61
1, 218947, Control_c, 0, 64, 61
1, 218960, Note_on_c, 0, 62, 48
1, 218961, Note_on_c, 0, 54, 35
1, 218962, Control_c, 0, 64, 57
1, 218977, Control_c, 0, 64, 41
1, 218982, Note_off_c, 0, 52, 44
1, 218991, Control_c, 0, 64, 0
1, 219110, Control_c, 0, 64, 31
1, 219125, Control_c, 0, 64, 56
1, 219139, Control_c, 0, 64, 64
1, 219154, Control_c, 0, 64, 65
1, 219169, Control_c, 0, 64, 66
1, 219302, Note_on_c, 0, 59, 51
1, 219331, Note_off_c, 0, 62, 44
1, 219400, Control_c, 0, 64, 66
1, 219429, Control_c, 0, 64, 67
1, 219444, Control_c, 0, 64, 67
1, 219459, Control_c, 0, 64, 68
1, 219533, Control_c, 0, 64, 68
1, 219592, Control_c, 0, 64, 68
1, 219636, Control_c, 0, 64, 67
1, 219651, Control_c, 0, 64, 67
1, 219666, Control_c, 0, 64, 66
1, 219669, Note_on_c, 0, 42, 29
1, 219680, Control_c, 0, 64, 66
1, 219695, Control_c, 0, 64, 65
1, 219710, Control_c, 0, 64, 64
1, 219725, Control_c, 0, 64, 63
1, 219740, Control_c, 0, 64, 61
1, 219755, Control_c, 0, 64, 59
1, 219770, Control_c, 0, 64, 55
1, 219784, Control_c, 0, 64, 51
1, 219799, Control_c, 0, 64, 45
1, 219814, Control_c, 0, 64, 33
1, 219829, Control_c, 0, 64, 0
1, 220158, Note_on_c, 0, 58, 44
1, 220207, Note_off_c, 0, 59, 51
1, 220238, Control_c, 0, 64, 48
1, 220252, Control_c, 0, 64, 62
1, 220267, Control_c, 0, 64, 66
1, 220282, Control_c, 0, 64, 70
1, 220286, Note_off_c, 0, 54, 53
1, 220297, Control_c, 0, 64, 72
1, 220312, Control_c, 0, 64, 74
1, 220312, Control_c, 0, 67, 9
1, 220327, Control_c, 0, 64, 78
1, 220327, Control_c, 0, 67, 11
1, 220342, Control_c, 0, 64, 83
1, 220342, Control_c, 0, 67, 13
1, 220357, Control_c, 0, 64, 88
1, 220357, Control_c, 0, 67, 16
1, 220372, Control_c, 0, 64, 93
1, 220372, Control_c, 0, 67, 21
1, 220386, Control_c, 0, 64, 97
1, 220386, Control_c, 0, 67, 27
1, 220401, Note_off_c, 0, 42, 46
1, 220401, Control_c, 0, 64, 100
1, 220401, Control_c, 0, 67, 36
1, 220416, Control_c, 0, 64, 106
1, 220416, Control_c, 0, 67, 44
1, 220430, Control_c, 0, 64, 110
1, 220430, Control_c, 0, 67, 53
1, 220431, Note_off_c, 0, 58, 49
1, 220445, Control_c, 0, 64, 115
1, 220445, Control_c, 0, 67, 63
1, 220460, Control_c, 0, 64, 121
1, 220460, Control_c, 0, 67, 73
1, 220475, Control_c, 0, 64, 127
1, 220475, Control_c, 0, 67, 85
1, 220490, Control_c, 0, 67, 97
1, 220504, Control_c, 0, 67, 109
1, 220519, Control_c, 0, 67, 121
1, 220534, Control_c, 0, 67, 127
1, 220867, Control_c, 0, 64, 120
1, 220881, Note_on_c, 0, 58, 48
1, 220881, Control_c, 0, 64, 111
1, 220896, Control_c, 0, 64, 101
1, 220897, Note_on_c, 0, 47, 32
1, 220911, Control_c, 0, 64, 95
1, 220914, Note_on_c, 0, 35, 26
1, 220926, Control_c, 0, 64, 88
1, 220941, Control_c, 0, 64, 81
1, 220955, Control_c, 0, 64, 74
1, 220970, Control_c, 0, 64, 66
1, 220986, Control_c, 0, 64, 38
1, 221001, Control_c, 0, 64, 0
1, 221134, Control_c, 0, 64, 47
1, 221149, Control_c, 0, 64, 59
1, 221164, Control_c, 0, 64, 64
1, 221178, Control_c, 0, 64, 69
1, 221193, Control_c, 0, 64, 73
1, 221208, Control_c, 0, 64, 75
1, 221223, Control_c, 0, 64, 78
1, 221238, Control_c, 0, 64, 81
1, 221252, Control_c, 0, 64, 85
1, 221267, Control_c, 0, 64, 91
1, 221282, Control_c, 0, 64, 95
1, 221297, Control_c, 0, 64, 98
1, 221312, Control_c, 0, 64, 102
1, 221326, Control_c, 0, 64, 106
1, 221341, Control_c, 0, 64, 110
1, 221356, Control_c, 0, 64, 115
1, 221371, Control_c, 0, 64, 123
1, 221382, Note_off_c, 0, 58, 27
1, 221385, Control_c, 0, 64, 127
1, 221847, Note_on_c, 0, 59, 29
1, 221853, Control_c, 0, 64, 114
1, 221868, Control_c, 0, 64, 103
1, 221883, Control_c, 0, 64, 93
1, 221898, Control_c, 0, 64, 83
1, 221913, Control_c, 0, 64, 74
1, 221928, Control_c, 0, 64, 66
1, 221943, Control_c, 0, 64, 38
1, 221957, Control_c, 0, 64, 0
1, 223567, Note_off_c, 0, 47, 43
1, 223570, Note_off_c, 0, 35, 46
1, 223578, Note_off_c, 0, 59, 48
1, 226154, Control_c, 0, 67, 125
1, 226169, Control_c, 0, 67, 120
1, 226183, Control_c, 0, 67, 117
1, 226198, Control_c, 0, 67, 116
1, 226242, Control_c, 0, 67, 115
1, 226257, Control_c, 0, 67, 112
1, 226272, Control_c, 0, 67, 107
1, 226287, Control_c, 0, 67, 102
1, 226302, Control_c, 0, 67, 96
1, 226317, Control_c, 0, 67, 87
1, 226331, Control_c, 0, 67, 73
1, 226346, Control_c, 0, 67, 61
1, 226361, Control_c, 0, 67, 51
1, 226375, Control_c, 0, 67, 44
1, 226390, Control_c, 0, 67, 38
1, 226405, Control_c, 0, 67, 32
1, 226420, Control_c, 0, 67, 26
1, 226435, Control_c, 0, 67, 18
1, 226450, Control_c, 0, 67, 11
1, 226465, Control_c, 0, 67, 0
1, 226540, End_track
0, 0, End_of_file
