0, 0, Header, 0, 1, 384
1, 0, Start_track
1, 0, Title_t, "Evocacion--Staupe               "
1, 0, Text_t, "2009 International Piano-e-Competition finals"
1, 0, Text_t, "captured June-July 2009"
1, 0, Text_t, "http://www.piano-e-competition.com/"
1, 0, Text_t, "standard-resolution version"
1, 0, Text_t, "File processed for distribution by software from Zenph Studios, Inc., http://www.zenph.com"
1, 0, Instrument_name_t, "Yamaha Disklavier Pro Mark IV concert grand piano, model DCFIIISM4PRO"
1, 0, Sequencer_specific, 39, 67, 113, 0, 1, 0, 1, 0, 69, 118, 111, 99, 97, 99, 105, 111, 110, 32, 32, 32, 32, 32, 32, 32, 65, 110, 100, 114, 101, 119, 32, 83, 116, 97, 117, 112, 101, 32, 32, 32
1, 0, Sequencer_specific, 6, 67, 113, 0, 0, 0, 69
1, 0, System_exclusive, 21, 67, 113, 126, 21, 0, 2, 2, 2, 3, 12, 8, 4, 10, 4, 14, 6, 1, 8, 0, 7, 247
1, 0, Sequencer_specific, 5, 67, 123, 12, 2, 1
1, 0, Tempo, 512820
1, 0, Time_signature, 4, 2, 24, 8
1, 0, System_exclusive, 5, 126, 127, 9, 1, 247
1, 1, System_exclusive, 8, 67, 16, 76, 0, 0, 126, 0, 247
1, 2, System_exclusive, 8, 67, 16, 76, 8, 9, 7, 1, 247
1, 3, Control_c, 0, 0, 0
1, 3, Control_c, 1, 0, 0
1, 3, Control_c, 2, 0, 0
1, 3, Control_c, 3, 0, 0
1, 3, Control_c, 4, 0, 0
1, 3, Control_c, 5, 0, 0
1, 3, Control_c, 6, 0, 0
1, 3, Control_c, 7, 0, 0
1, 3, Control_c, 8, 0, 0
1, 3, Control_c, 9, 0, 127
1, 3, Control_c, 10, 0, 0
1, 3, Control_c, 11, 0, 0
1, 3, Control_c, 12, 0, 0
1, 3, Control_c, 13, 0, 0
1, 3, Control_c, 14, 0, 0
1, 3, Control_c, 15, 0, 0
1, 4, Control_c, 0, 32, 0
1, 4, Control_c, 1, 32, 0
1, 4, Control_c, 2, 32, 0
1, 4, Control_c, 3, 32, 0
1, 4, Control_c, 4, 32, 0
1, 4, Control_c, 5, 32, 0
1, 4, Control_c, 6, 32, 0
1, 4, Control_c, 7, 32, 0
1, 4, Control_c, 8, 32, 0
1, 4, Control_c, 9, 32, 0
1, 4, Control_c, 10, 32, 0
1, 4, Control_c, 11, 32, 0
1, 4, Control_c, 12, 32, 0
1, 4, Control_c, 13, 32, 0
1, 4, Control_c, 14, 32, 0
1, 4, Control_c, 15, 32, 0
1, 5, Program_c, 0, 0
1, 5, Program_c, 1, 0
1, 5, Program_c, 2, 0
1, 5, Program_c, 3, 0
1, 5, Program_c, 4, 0
1, 5, Program_c, 5, 0
1, 5, Program_c, 6, 0
1, 5, Program_c, 7, 0
1, 5, Program_c, 8, 0
1, 5, Program_c, 9, 0
1, 5, Program_c, 10, 0
1, 5, Program_c, 11, 0
1, 5, Program_c, 12, 0
1, 5, Program_c, 13, 0
1, 5, Program_c, 14, 0
1, 5, Program_c, 15, 0
1, 6, Control_c, 0, 7, 100
1, 6, Control_c, 1, 7, 100
1, 6, Control_c, 2, 7, 100
1, 6, Control_c, 3, 7, 100
1, 6, Control_c, 4, 7, 100
1, 6, Control_c, 5, 7, 100
1, 6, Control_c, 6, 7, 100
1, 6, Control_c, 7, 7, 100
1, 6, Control_c, 8, 7, 100
1, 6, Control_c, 9, 7, 100
1, 6, Control_c, 10, 7, 100
1, 6, Control_c, 11, 7, 100
1, 6, Control_c, 12, 7, 100
1, 6, Control_c, 13, 7, 100
1, 6, Control_c, 14, 7, 100
1, 6, Control_c, 15, 7, 100
1, 117, Control_c, 0, 64, 15
1, 117, Control_c, 0, 67, 15
1, 229, Control_c, 0, 64, 31
1, 229, Control_c, 0, 67, 31
1, 341, Control_c, 0, 64, 46
1, 341, Control_c, 0, 67, 46
1, 452, Control_c, 0, 64, 63
1, 452, Control_c, 0, 67, 63
1, 564, Control_c, 0, 64, 77
1, 564, Control_c, 0, 67, 77
1, 676, Control_c, 0, 64, 94
1, 676, Control_c, 0, 67, 94
1, 787, Control_c, 0, 64, 108
1, 787, Control_c, 0, 67, 108
1, 899, Control_c, 0, 64, 127
1, 899, Control_c, 0, 67, 127
1, 1136, Note_on_c, 0, 63, 46
1, 1162, Note_on_c, 0, 44, 33
1, 1643, Note_on_c, 0, 51, 30
1, 1825, Note_off_c, 0, 51, 40
1, 1890, Note_off_c, 0, 63, 31
1, 1952, Note_on_c, 0, 59, 50
1, 2244, Note_on_c, 0, 51, 33
1, 2372, Note_off_c, 0, 51, 36
1, 2771, Note_on_c, 0, 51, 35
1, 2775, Note_on_c, 0, 61, 55
1, 2841, Note_off_c, 0, 59, 37
1, 2888, Note_off_c, 0, 44, 43
1, 2926, Note_off_c, 0, 51, 33
1, 3052, Note_on_c, 0, 44, 37
1, 3052, Note_on_c, 0, 63, 57
1, 3104, Control_c, 0, 64, 116
1, 3119, Control_c, 0, 64, 83
1, 3123, Note_off_c, 0, 61, 51
1, 3134, Control_c, 0, 64, 65
1, 3149, Control_c, 0, 64, 0
1, 3193, Control_c, 0, 64, 34
1, 3207, Control_c, 0, 64, 65
1, 3222, Control_c, 0, 64, 71
1, 3237, Control_c, 0, 64, 79
1, 3252, Control_c, 0, 64, 90
1, 3267, Control_c, 0, 64, 107
1, 3282, Note_on_c, 0, 51, 40
1, 3282, Control_c, 0, 64, 127
1, 3466, Note_off_c, 0, 51, 42
1, 3481, Note_on_c, 0, 64, 60
1, 3547, Note_off_c, 0, 63, 49
1, 3732, Note_on_c, 0, 51, 35
1, 3864, Note_off_c, 0, 51, 36
1, 3987, Control_c, 0, 67, 125
1, 4002, Control_c, 0, 67, 114
1, 4017, Control_c, 0, 67, 102
1, 4031, Control_c, 0, 67, 90
1, 4046, Control_c, 0, 67, 78
1, 4061, Control_c, 0, 67, 68
1, 4070, Note_off_c, 0, 64, 54
1, 4076, Control_c, 0, 67, 61
1, 4091, Control_c, 0, 67, 55
1, 4105, Control_c, 0, 67, 51
1, 4120, Control_c, 0, 67, 48
1, 4135, Control_c, 0, 67, 41
1, 4150, Control_c, 0, 67, 32
1, 4164, Control_c, 0, 67, 19
1, 4181, Control_c, 0, 67, 0
1, 4220, Note_on_c, 0, 51, 33
1, 4283, Note_on_c, 0, 63, 55
1, 4303, Note_off_c, 0, 44, 36
1, 4310, Note_off_c, 0, 51, 38
1, 4449, Note_off_c, 0, 63, 51
1, 4539, Note_on_c, 0, 44, 44
1, 4641, Note_on_c, 0, 61, 46
1, 4668, Note_off_c, 0, 61, 57
1, 4688, Note_on_c, 0, 63, 48
1, 4716, Note_off_c, 0, 63, 61
1, 4722, Note_on_c, 0, 61, 62
1, 4766, Control_c, 0, 64, 109
1, 4780, Control_c, 0, 64, 85
1, 4795, Control_c, 0, 64, 67
1, 4810, Control_c, 0, 64, 0
1, 5028, Note_off_c, 0, 61, 55
1, 5032, Note_on_c, 0, 59, 46
1, 5046, Note_on_c, 0, 52, 32
1, 5295, Note_on_c, 0, 61, 48
1, 5310, Note_off_c, 0, 59, 53
1, 5396, Control_c, 0, 64, 62
1, 5410, Control_c, 0, 64, 68
1, 5422, Note_off_c, 0, 52, 41
1, 5425, Control_c, 0, 64, 75
1, 5440, Control_c, 0, 64, 79
1, 5455, Control_c, 0, 64, 83
1, 5470, Control_c, 0, 64, 88
1, 5485, Control_c, 0, 64, 94
1, 5500, Control_c, 0, 64, 103
1, 5514, Control_c, 0, 64, 112
1, 5529, Control_c, 0, 64, 127
1, 5615, Note_on_c, 0, 52, 32
1, 5708, Note_off_c, 0, 44, 57
1, 5744, Note_off_c, 0, 52, 35
1, 6090, Note_on_c, 0, 52, 30
1, 6328, Note_on_c, 0, 44, 38
1, 6352, Control_c, 0, 64, 112
1, 6367, Control_c, 0, 64, 96
1, 6382, Control_c, 0, 64, 87
1, 6397, Control_c, 0, 64, 79
1, 6412, Control_c, 0, 64, 69
1, 6426, Control_c, 0, 64, 38
1, 6441, Control_c, 0, 64, 0
1, 6486, Control_c, 0, 64, 58
1, 6500, Control_c, 0, 64, 67
1, 6515, Control_c, 0, 64, 73
1, 6530, Control_c, 0, 64, 76
1, 6545, Control_c, 0, 64, 78
1, 6550, Note_on_c, 0, 55, 40
1, 6559, Control_c, 0, 64, 81
1, 6576, Control_c, 0, 64, 87
1, 6591, Control_c, 0, 64, 93
1, 6605, Control_c, 0, 64, 100
1, 6620, Control_c, 0, 64, 107
1, 6635, Control_c, 0, 64, 116
1, 6656, Control_c, 0, 64, 127
1, 6757, Note_off_c, 0, 55, 38
1, 6769, Note_on_c, 0, 63, 64
1, 6902, Note_off_c, 0, 52, 42
1, 6957, Note_off_c, 0, 61, 32
1, 6993, Note_on_c, 0, 55, 42
1, 7142, Note_off_c, 0, 55, 36
1, 7380, Note_on_c, 0, 55, 38
1, 7435, Note_on_c, 0, 64, 68
1, 7468, Note_off_c, 0, 63, 59
1, 7497, Note_off_c, 0, 44, 39
1, 7530, Note_off_c, 0, 55, 34
1, 7655, Note_on_c, 0, 44, 43
1, 7709, Note_on_c, 0, 66, 70
1, 7756, Note_off_c, 0, 64, 55
1, 7776, Control_c, 0, 64, 98
1, 7791, Control_c, 0, 64, 79
1, 7805, Control_c, 0, 64, 65
1, 7820, Control_c, 0, 64, 0
1, 7850, Control_c, 0, 64, 36
1, 7865, Control_c, 0, 64, 66
1, 7879, Control_c, 0, 64, 76
1, 7894, Control_c, 0, 64, 84
1, 7909, Control_c, 0, 64, 89
1, 7920, Note_on_c, 0, 57, 49
1, 7924, Control_c, 0, 64, 91
1, 7938, Control_c, 0, 64, 93
1, 7953, Control_c, 0, 64, 97
1, 7968, Control_c, 0, 64, 103
1, 7983, Control_c, 0, 64, 108
1, 7998, Control_c, 0, 64, 116
1, 8012, Control_c, 0, 64, 127
1, 8119, Note_on_c, 0, 61, 73
1, 8128, Note_off_c, 0, 57, 35
1, 8277, Note_off_c, 0, 66, 48
1, 8352, Note_on_c, 0, 57, 44
1, 8426, Note_off_c, 0, 57, 52
1, 8704, Note_on_c, 0, 54, 35
1, 8724, Note_off_c, 0, 44, 38
1, 8763, Note_on_c, 0, 63, 64
1, 8804, Note_off_c, 0, 54, 52
1, 8969, Note_off_c, 0, 61, 50
1, 9013, Note_on_c, 0, 44, 42
1, 9053, Note_on_c, 0, 65, 50
1, 9066, Control_c, 0, 64, 119
1, 9081, Control_c, 0, 64, 104
1, 9096, Control_c, 0, 64, 94
1, 9111, Control_c, 0, 64, 82
1, 9120, Note_off_c, 0, 63, 58
1, 9125, Control_c, 0, 64, 71
1, 9140, Control_c, 0, 64, 44
1, 9155, Control_c, 0, 64, 0
1, 9314, Note_on_c, 0, 56, 36
1, 9333, Control_c, 0, 64, 33
1, 9348, Control_c, 0, 64, 58
1, 9363, Control_c, 0, 64, 65
1, 9377, Control_c, 0, 64, 70
1, 9392, Control_c, 0, 64, 73
1, 9407, Control_c, 0, 64, 74
1, 9422, Control_c, 0, 64, 75
1, 9437, Control_c, 0, 64, 76
1, 9451, Control_c, 0, 64, 76
1, 9466, Control_c, 0, 64, 77
1, 9493, Note_on_c, 0, 59, 52
1, 9540, Control_c, 0, 64, 76
1, 9555, Control_c, 0, 64, 75
1, 9569, Note_off_c, 0, 65, 36
1, 9569, Control_c, 0, 64, 73
1, 9584, Control_c, 0, 64, 72
1, 9599, Control_c, 0, 64, 69
1, 9614, Control_c, 0, 64, 67
1, 9629, Control_c, 0, 64, 64
1, 9651, Control_c, 0, 64, 60
1, 9666, Control_c, 0, 64, 50
1, 9681, Control_c, 0, 64, 0
1, 9724, Note_on_c, 0, 53, 38
1, 9755, Control_c, 0, 64, 32
1, 9756, Note_off_c, 0, 56, 43
1, 9770, Control_c, 0, 64, 64
1, 9786, Control_c, 0, 64, 70
1, 9800, Control_c, 0, 64, 73
1, 9815, Control_c, 0, 64, 76
1, 9830, Control_c, 0, 64, 80
1, 9845, Control_c, 0, 64, 86
1, 9860, Control_c, 0, 64, 93
1, 9874, Control_c, 0, 64, 103
1, 9889, Control_c, 0, 64, 112
1, 9904, Control_c, 0, 64, 127
1, 9917, Note_off_c, 0, 53, 43
1, 9928, Note_off_c, 0, 44, 43
1, 9934, Control_c, 0, 67, 10
1, 9948, Control_c, 0, 67, 17
1, 9963, Control_c, 0, 67, 29
1, 9968, Note_off_c, 0, 59, 56
1, 9978, Control_c, 0, 67, 42
1, 9993, Control_c, 0, 67, 53
1, 10007, Control_c, 0, 67, 65
1, 10022, Control_c, 0, 67, 79
1, 10037, Control_c, 0, 67, 94
1, 10052, Control_c, 0, 67, 110
1, 10067, Control_c, 0, 67, 127
1, 10215, Note_on_c, 0, 59, 36
1, 10245, Note_off_c, 0, 59, 58
1, 10296, Note_on_c, 0, 62, 48
1, 10458, Note_off_c, 0, 62, 50
1, 10546, Note_on_c, 0, 44, 43
1, 10618, Note_on_c, 0, 58, 51
1, 10639, Control_c, 0, 64, 121
1, 10642, Note_off_c, 0, 58, 59
1, 10654, Control_c, 0, 64, 97
1, 10657, Note_on_c, 0, 61, 57
1, 10668, Control_c, 0, 64, 82
1, 10683, Control_c, 0, 64, 70
1, 10684, Note_off_c, 0, 61, 62
1, 10698, Note_on_c, 0, 58, 60
1, 10698, Control_c, 0, 64, 56
1, 10713, Control_c, 0, 64, 0
1, 10922, Note_off_c, 0, 58, 58
1, 10935, Note_on_c, 0, 56, 51
1, 10940, Note_on_c, 0, 55, 40
1, 11195, Note_on_c, 0, 58, 45
1, 11200, Note_off_c, 0, 56, 54
1, 11386, Note_off_c, 0, 55, 41
1, 11432, Note_on_c, 0, 52, 30
1, 11490, Control_c, 0, 64, 58
1, 11505, Control_c, 0, 64, 66
1, 11519, Control_c, 0, 64, 71
1, 11534, Control_c, 0, 64, 74
1, 11549, Control_c, 0, 64, 76
1, 11564, Control_c, 0, 64, 78
1, 11578, Control_c, 0, 64, 83
1, 11593, Control_c, 0, 64, 89
1, 11608, Control_c, 0, 64, 95
1, 11623, Control_c, 0, 64, 99
1, 11638, Control_c, 0, 64, 103
1, 11652, Control_c, 0, 64, 108
1, 11667, Control_c, 0, 64, 114
1, 11682, Control_c, 0, 64, 127
1, 11846, Note_on_c, 0, 55, 26
1, 11868, Note_off_c, 0, 44, 41
1, 12035, Note_off_c, 0, 55, 36
1, 12074, Note_off_c, 0, 52, 32
1, 12084, Note_on_c, 0, 44, 36
1, 12119, Control_c, 0, 64, 106
1, 12134, Control_c, 0, 64, 91
1, 12149, Control_c, 0, 64, 79
1, 12164, Control_c, 0, 64, 73
1, 12180, Control_c, 0, 64, 72
1, 12194, Control_c, 0, 64, 78
1, 12209, Control_c, 0, 64, 86
1, 12224, Control_c, 0, 64, 91
1, 12239, Control_c, 0, 64, 93
1, 12254, Control_c, 0, 64, 95
1, 12268, Control_c, 0, 64, 97
1, 12283, Control_c, 0, 64, 99
1, 12298, Control_c, 0, 64, 100
1, 12313, Control_c, 0, 64, 102
1, 12328, Note_on_c, 0, 55, 27
1, 12328, Control_c, 0, 64, 103
1, 12342, Control_c, 0, 64, 106
1, 12357, Control_c, 0, 64, 107
1, 12372, Control_c, 0, 64, 108
1, 12387, Control_c, 0, 64, 109
1, 12545, Note_on_c, 0, 61, 52
1, 12587, Note_off_c, 0, 55, 41
1, 12697, Note_off_c, 0, 58, 42
1, 12809, Note_on_c, 0, 52, 28
1, 12974, Note_off_c, 0, 52, 40
1, 13245, Note_on_c, 0, 55, 24
1, 13337, Note_on_c, 0, 58, 46
1, 13368, Note_off_c, 0, 44, 40
1, 13399, Note_off_c, 0, 55, 33
1, 13429, Note_off_c, 0, 61, 29
1, 13623, Note_on_c, 0, 44, 38
1, 13631, Control_c, 0, 64, 108
1, 13646, Control_c, 0, 64, 108
1, 13661, Control_c, 0, 64, 107
1, 13674, Note_on_c, 0, 59, 49
1, 13676, Control_c, 0, 64, 105
1, 13691, Control_c, 0, 64, 102
1, 13693, Note_off_c, 0, 58, 37
1, 13706, Control_c, 0, 64, 95
1, 13721, Control_c, 0, 64, 85
1, 13736, Control_c, 0, 64, 72
1, 13750, Control_c, 0, 64, 32
1, 13766, Control_c, 0, 64, 0
1, 13825, Control_c, 0, 64, 60
1, 13840, Control_c, 0, 64, 69
1, 13855, Control_c, 0, 64, 76
1, 13870, Control_c, 0, 64, 79
1, 13870, Control_c, 0, 67, 126
1, 13885, Control_c, 0, 64, 82
1, 13885, Control_c, 0, 67, 121
1, 13900, Control_c, 0, 64, 85
1, 13900, Control_c, 0, 67, 114
1, 13914, Note_on_c, 0, 50, 34
1, 13914, Control_c, 0, 64, 88
1, 13914, Control_c, 0, 67, 106
1, 13929, Control_c, 0, 64, 93
1, 13929, Control_c, 0, 67, 95
1, 13944, Control_c, 0, 64, 98
1, 13944, Control_c, 0, 67, 84
1, 13959, Control_c, 0, 64, 105
1, 13959, Control_c, 0, 67, 73
1, 13973, Control_c, 0, 64, 113
1, 13973, Control_c, 0, 67, 66
1, 13988, Control_c, 0, 64, 127
1, 13988, Control_c, 0, 67, 60
1, 14003, Control_c, 0, 67, 53
1, 14015, Note_off_c, 0, 44, 42
1, 14018, Control_c, 0, 67, 46
1, 14033, Control_c, 0, 67, 40
1, 14047, Control_c, 0, 67, 35
1, 14062, Control_c, 0, 67, 28
1, 14077, Control_c, 0, 67, 21
1, 14092, Control_c, 0, 67, 11
1, 14107, Control_c, 0, 67, 0
1, 14123, Note_on_c, 0, 56, 54
1, 14253, Note_off_c, 0, 50, 38
1, 14351, Note_on_c, 0, 52, 46
1, 14467, Note_off_c, 0, 56, 52
1, 14474, Note_off_c, 0, 59, 36
1, 14485, Note_off_c, 0, 52, 57
1, 14776, Note_on_c, 0, 59, 37
1, 14790, Note_on_c, 0, 58, 55
1, 15010, Note_off_c, 0, 59, 37
1, 15032, Note_on_c, 0, 61, 66
1, 15092, Note_off_c, 0, 58, 58
1, 15225, Note_on_c, 0, 62, 54
1, 15345, Note_off_c, 0, 62, 59
1, 15432, Note_on_c, 0, 58, 69
1, 15500, Note_off_c, 0, 61, 55
1, 15621, Note_on_c, 0, 59, 51
1, 15699, Note_off_c, 0, 59, 57
1, 15846, Note_off_c, 0, 58, 54
1, 15908, Note_on_c, 0, 50, 42
1, 16016, Note_on_c, 0, 59, 71
1, 16058, Note_off_c, 0, 50, 37
1, 16101, Note_off_c, 0, 59, 59
1, 16198, Note_on_c, 0, 56, 66
1, 16228, Note_off_c, 0, 56, 64
1, 16240, Note_on_c, 0, 58, 62
1, 16269, Note_off_c, 0, 58, 65
1, 16285, Note_on_c, 0, 56, 72
1, 16288, Note_on_c, 0, 44, 51
1, 16294, Control_c, 0, 64, 102
1, 16309, Control_c, 0, 64, 85
1, 16323, Control_c, 0, 64, 70
1, 16338, Control_c, 0, 64, 0
1, 16556, Note_on_c, 0, 54, 66
1, 16570, Note_on_c, 0, 50, 40
1, 16570, Note_off_c, 0, 56, 59
1, 16760, Note_on_c, 0, 56, 65
1, 16800, Note_off_c, 0, 54, 56
1, 16952, Note_off_c, 0, 50, 46
1, 16959, Note_on_c, 0, 51, 36
1, 16959, Note_on_c, 0, 58, 52
1, 16965, Note_off_c, 0, 56, 57
1, 17193, Note_on_c, 0, 56, 44
1, 17265, Note_off_c, 0, 58, 38
1, 17482, Note_on_c, 0, 59, 25
1, 17510, Control_c, 0, 64, 52
1, 17525, Control_c, 0, 64, 64
1, 17539, Control_c, 0, 64, 68
1, 17554, Control_c, 0, 64, 73
1, 17569, Control_c, 0, 64, 83
1, 17584, Control_c, 0, 64, 90
1, 17599, Control_c, 0, 64, 95
1, 17614, Control_c, 0, 64, 100
1, 17629, Control_c, 0, 64, 106
1, 17644, Control_c, 0, 64, 112
1, 17658, Control_c, 0, 64, 126
1, 17673, Control_c, 0, 64, 127
1, 17715, Note_on_c, 0, 58, 50
1, 17765, Note_off_c, 0, 56, 40
1, 17781, Note_off_c, 0, 59, 37
1, 17954, Note_on_c, 0, 56, 68
1, 17972, Note_off_c, 0, 51, 47
1, 17974, Note_off_c, 0, 58, 52
1, 17975, Note_on_c, 0, 52, 44
1, 18136, Note_on_c, 0, 54, 75
1, 18180, Note_off_c, 0, 56, 57
1, 18228, Control_c, 0, 64, 116
1, 18243, Control_c, 0, 64, 99
1, 18258, Control_c, 0, 64, 88
1, 18273, Control_c, 0, 64, 79
1, 18288, Control_c, 0, 64, 71
1, 18303, Control_c, 0, 64, 64
1, 18317, Note_on_c, 0, 56, 68
1, 18317, Control_c, 0, 64, 52
1, 18332, Control_c, 0, 64, 0
1, 18350, Note_on_c, 0, 62, 41
1, 18393, Note_off_c, 0, 54, 49
1, 18521, Note_on_c, 0, 58, 67
1, 18547, Note_off_c, 0, 56, 64
1, 18615, Control_c, 0, 64, 56
1, 18636, Control_c, 0, 64, 68
1, 18651, Control_c, 0, 64, 75
1, 18661, Note_off_c, 0, 52, 55
1, 18666, Control_c, 0, 64, 82
1, 18681, Control_c, 0, 64, 88
1, 18696, Control_c, 0, 64, 91
1, 18711, Control_c, 0, 64, 94
1, 18726, Control_c, 0, 64, 99
1, 18741, Control_c, 0, 64, 104
1, 18751, Note_on_c, 0, 54, 72
1, 18756, Control_c, 0, 64, 110
1, 18770, Control_c, 0, 64, 119
1, 18775, Note_off_c, 0, 62, 21
1, 18776, Note_on_c, 0, 52, 15
1, 18785, Control_c, 0, 64, 127
1, 18823, Note_off_c, 0, 58, 35
1, 18830, Note_off_c, 0, 44, 35
1, 18831, Note_off_c, 0, 54, 62
1, 18854, Note_off_c, 0, 52, 38
1, 18966, Note_on_c, 0, 44, 46
1, 19017, Note_on_c, 0, 56, 65
1, 19022, Control_c, 0, 64, 110
1, 19036, Control_c, 0, 64, 98
1, 19045, Note_off_c, 0, 56, 66
1, 19051, Control_c, 0, 64, 87
1, 19066, Control_c, 0, 64, 77
1, 19067, Note_on_c, 0, 58, 54
1, 19081, Control_c, 0, 64, 67
1, 19092, Note_off_c, 0, 58, 64
1, 19095, Control_c, 0, 64, 0
1, 19107, Note_on_c, 0, 56, 70
1, 19324, Note_off_c, 0, 56, 61
1, 19335, Note_on_c, 0, 54, 56
1, 19339, Note_on_c, 0, 50, 38
1, 19546, Note_off_c, 0, 54, 58
1, 19548, Note_on_c, 0, 56, 56
1, 19722, Note_off_c, 0, 56, 59
1, 19727, Note_off_c, 0, 50, 36
1, 19744, Note_on_c, 0, 58, 50
1, 19753, Note_on_c, 0, 51, 27
1, 19756, Control_c, 0, 67, 9
1, 19771, Control_c, 0, 67, 11
1, 19785, Control_c, 0, 67, 15
1, 19800, Control_c, 0, 67, 19
1, 19815, Control_c, 0, 67, 22
1, 19830, Control_c, 0, 67, 26
1, 19845, Control_c, 0, 67, 29
1, 19859, Control_c, 0, 67, 32
1, 19874, Control_c, 0, 67, 34
1, 19889, Control_c, 0, 67, 37
1, 19903, Control_c, 0, 67, 39
1, 19918, Control_c, 0, 67, 41
1, 19933, Control_c, 0, 67, 43
1, 19948, Control_c, 0, 67, 44
1, 19955, Note_off_c, 0, 58, 54
1, 19963, Control_c, 0, 67, 45
1, 19978, Note_on_c, 0, 56, 47
1, 19978, Control_c, 0, 67, 45
1, 19993, Control_c, 0, 67, 46
1, 20023, Control_c, 0, 67, 46
1, 20037, Control_c, 0, 67, 47
1, 20052, Control_c, 0, 67, 49
1, 20067, Control_c, 0, 67, 53
1, 20082, Control_c, 0, 67, 58
1, 20097, Control_c, 0, 64, 43
1, 20097, Control_c, 0, 67, 65
1, 20111, Control_c, 0, 64, 64
1, 20111, Control_c, 0, 67, 73
1, 20126, Control_c, 0, 64, 72
1, 20126, Control_c, 0, 67, 83
1, 20148, Control_c, 0, 64, 77
1, 20148, Control_c, 0, 67, 97
1, 20164, Control_c, 0, 64, 84
1, 20164, Control_c, 0, 67, 109
1, 20179, Control_c, 0, 64, 92
1, 20179, Control_c, 0, 67, 123
1, 20194, Control_c, 0, 64, 100
1, 20194, Control_c, 0, 67, 127
1, 20208, Control_c, 0, 64, 104
1, 20223, Control_c, 0, 64, 108
1, 20234, Note_off_c, 0, 44, 35
1, 20238, Control_c, 0, 64, 115
1, 20254, Control_c, 0, 64, 126
1, 20269, Control_c, 0, 64, 127
1, 20271, Note_on_c, 0, 59, 43
1, 20273, Note_off_c, 0, 51, 46
1, 20296, Note_off_c, 0, 56, 33
1, 20341, Note_off_c, 0, 59, 51
1, 20545, Note_on_c, 0, 42, 44
1, 20577, Note_on_c, 0, 58, 50
1, 20580, Control_c, 0, 64, 121
1, 20595, Control_c, 0, 64, 103
1, 20604, Note_off_c, 0, 58, 61
1, 20609, Control_c, 0, 64, 90
1, 20621, Note_on_c, 0, 59, 55
1, 20624, Control_c, 0, 64, 80
1, 20639, Control_c, 0, 64, 71
1, 20654, Control_c, 0, 64, 62
1, 20662, Note_off_c, 0, 59, 57
1, 20669, Control_c, 0, 64, 0
1, 20684, Note_on_c, 0, 58, 55
1, 20866, Note_off_c, 0, 58, 58
1, 20909, Note_on_c, 0, 56, 46
1, 20924, Note_on_c, 0, 48, 32
1, 21117, Note_on_c, 0, 58, 43
1, 21117, Note_off_c, 0, 56, 50
1, 21298, Note_off_c, 0, 58, 55
1, 21316, Note_on_c, 0, 59, 44
1, 21340, Note_on_c, 0, 49, 31
1, 21361, Note_off_c, 0, 48, 43
1, 21541, Note_off_c, 0, 59, 54
1, 21558, Note_on_c, 0, 58, 43
1, 21677, Control_c, 0, 64, 34
1, 21691, Control_c, 0, 64, 62
1, 21706, Control_c, 0, 64, 68
1, 21721, Control_c, 0, 64, 72
1, 21736, Control_c, 0, 64, 75
1, 21750, Control_c, 0, 64, 79
1, 21766, Control_c, 0, 64, 84
1, 21780, Control_c, 0, 64, 91
1, 21795, Control_c, 0, 64, 97
1, 21810, Control_c, 0, 64, 100
1, 21825, Control_c, 0, 64, 104
1, 21840, Control_c, 0, 64, 112
1, 21854, Control_c, 0, 64, 127
1, 21856, Note_off_c, 0, 58, 54
1, 21876, Note_on_c, 0, 54, 29
1, 21915, Note_off_c, 0, 42, 43
1, 21916, Note_off_c, 0, 54, 58
1, 21938, Note_off_c, 0, 49, 41
1, 22166, Note_on_c, 0, 56, 50
1, 22195, Note_off_c, 0, 56, 60
1, 22234, Note_on_c, 0, 58, 39
1, 22269, Note_off_c, 0, 58, 52
1, 22269, Control_c, 0, 64, 106
1, 22284, Control_c, 0, 64, 87
1, 22285, Note_on_c, 0, 56, 40
1, 22286, Note_on_c, 0, 40, 41
1, 22298, Control_c, 0, 64, 72
1, 22313, Control_c, 0, 64, 49
1, 22328, Control_c, 0, 64, 0
1, 22357, Note_off_c, 0, 56, 0
1, 22357, Note_on_c, 0, 56, 8
1, 22380, Control_c, 0, 64, 50
1, 22395, Control_c, 0, 64, 64
1, 22410, Control_c, 0, 64, 70
1, 22425, Control_c, 0, 64, 76
1, 22440, Control_c, 0, 64, 80
1, 22454, Control_c, 0, 64, 84
1, 22469, Control_c, 0, 64, 89
1, 22484, Control_c, 0, 64, 95
1, 22499, Control_c, 0, 64, 102
1, 22499, Control_c, 0, 67, 127
1, 22513, Control_c, 0, 64, 109
1, 22513, Control_c, 0, 67, 119
1, 22528, Control_c, 0, 64, 117
1, 22528, Control_c, 0, 67, 110
1, 22543, Control_c, 0, 64, 127
1, 22543, Control_c, 0, 67, 98
1, 22559, Control_c, 0, 67, 86
1, 22574, Control_c, 0, 67, 74
1, 22589, Control_c, 0, 67, 63
1, 22603, Control_c, 0, 67, 53
1, 22618, Control_c, 0, 67, 44
1, 22633, Control_c, 0, 67, 35
1, 22648, Control_c, 0, 67, 25
1, 22663, Control_c, 0, 67, 18
1, 22677, Control_c, 0, 67, 10
1, 22691, Note_off_c, 0, 56, 41
1, 22692, Control_c, 0, 67, 0
1, 22707, Note_on_c, 0, 54, 33
1, 22722, Note_on_c, 0, 47, 10
1, 22931, Note_on_c, 0, 56, 56
1, 22964, Note_off_c, 0, 54, 46
1, 23114, Note_on_c, 0, 50, 43
1, 23114, Note_off_c, 0, 56, 61
1, 23128, Note_on_c, 0, 58, 61
1, 23315, Note_off_c, 0, 58, 59
1, 23316, Note_on_c, 0, 56, 65
1, 23471, Control_c, 0, 64, 109
1, 23486, Control_c, 0, 64, 92
1, 23499, Note_on_c, 0, 58, 64
1, 23501, Control_c, 0, 64, 80
1, 23516, Control_c, 0, 64, 69
1, 23518, Note_on_c, 0, 54, 42
1, 23522, Note_off_c, 0, 56, 41
1, 23531, Control_c, 0, 64, 52
1, 23546, Control_c, 0, 64, 0
1, 23710, Note_off_c, 0, 58, 58
1, 23728, Note_on_c, 0, 62, 52
1, 23767, Note_on_c, 0, 56, 19
1, 23782, Control_c, 0, 67, 11
1, 23797, Control_c, 0, 67, 16
1, 23812, Control_c, 0, 67, 22
1, 23826, Control_c, 0, 67, 29
1, 23841, Control_c, 0, 67, 38
1, 23856, Control_c, 0, 67, 46
1, 23871, Control_c, 0, 67, 56
1, 23893, Control_c, 0, 67, 69
1, 23908, Control_c, 0, 67, 83
1, 23923, Control_c, 0, 67, 98
1, 23938, Control_c, 0, 67, 114
1, 23952, Control_c, 0, 67, 127
1, 23960, Note_off_c, 0, 62, 56
1, 23981, Note_on_c, 0, 64, 43
1, 24011, Control_c, 0, 64, 40
1, 24014, Note_off_c, 0, 54, 0
1, 24025, Control_c, 0, 64, 64
1, 24036, Note_on_c, 0, 54, 26
1, 24040, Control_c, 0, 64, 71
1, 24055, Control_c, 0, 64, 76
1, 24070, Control_c, 0, 64, 80
1, 24084, Control_c, 0, 64, 84
1, 24099, Control_c, 0, 64, 89
1, 24114, Control_c, 0, 64, 93
1, 24129, Control_c, 0, 64, 97
1, 24144, Control_c, 0, 64, 98
1, 24160, Control_c, 0, 64, 100
1, 24170, Note_off_c, 0, 64, 52
1, 24174, Control_c, 0, 64, 103
1, 24189, Control_c, 0, 64, 105
1, 24191, Note_on_c, 0, 62, 43
1, 24204, Control_c, 0, 64, 108
1, 24207, Note_off_c, 0, 50, 46
1, 24218, Note_off_c, 0, 56, 38
1, 24219, Control_c, 0, 64, 109
1, 24220, Note_off_c, 0, 54, 45
1, 24234, Control_c, 0, 64, 110
1, 24263, Control_c, 0, 64, 111
1, 24278, Control_c, 0, 64, 112
1, 24293, Control_c, 0, 64, 113
1, 24295, Note_off_c, 0, 47, 40
1, 24307, Control_c, 0, 64, 114
1, 24322, Control_c, 0, 64, 114
1, 24337, Control_c, 0, 64, 115
1, 24345, Note_off_c, 0, 62, 51
1, 24351, Note_on_c, 0, 50, 16
1, 24367, Control_c, 0, 64, 115
1, 24371, Note_on_c, 0, 58, 49
1, 24377, Note_off_c, 0, 40, 7
1, 24411, Control_c, 0, 64, 116
1, 24426, Control_c, 0, 64, 116
1, 24463, Note_off_c, 0, 50, 37
1, 24500, Control_c, 0, 64, 117
1, 24512, Note_off_c, 0, 58, 52
1, 24545, Control_c, 0, 64, 117
1, 24547, Note_on_c, 0, 56, 50
1, 24559, Control_c, 0, 64, 118
1, 24574, Control_c, 0, 64, 119
1, 24589, Control_c, 0, 64, 119
1, 24604, Control_c, 0, 64, 121
1, 24626, Control_c, 0, 64, 123
1, 24641, Control_c, 0, 64, 126
1, 24655, Control_c, 0, 64, 127
1, 24658, Note_on_c, 0, 47, 30
1, 24737, Note_off_c, 0, 56, 50
1, 24777, Note_on_c, 0, 58, 46
1, 24789, Control_c, 0, 67, 125
1, 24804, Control_c, 0, 67, 117
1, 24819, Control_c, 0, 67, 109
1, 24834, Control_c, 0, 67, 98
1, 24849, Control_c, 0, 67, 86
1, 24863, Control_c, 0, 67, 72
1, 24878, Control_c, 0, 67, 57
1, 24893, Control_c, 0, 67, 43
1, 24907, Control_c, 0, 67, 32
1, 24912, Note_off_c, 0, 47, 27
1, 24912, Note_off_c, 0, 58, 56
1, 24922, Control_c, 0, 67, 21
1, 24932, Note_on_c, 0, 56, 50
1, 24937, Control_c, 0, 67, 11
1, 24953, Control_c, 0, 67, 0
1, 24964, Note_off_c, 0, 56, 60
1, 25002, Note_on_c, 0, 58, 29
1, 25056, Note_off_c, 0, 58, 48
1, 25060, Note_on_c, 0, 56, 45
1, 25079, Note_on_c, 0, 40, 54
1, 25116, Control_c, 0, 64, 106
1, 25130, Control_c, 0, 64, 91
1, 25145, Control_c, 0, 64, 78
1, 25160, Control_c, 0, 64, 68
1, 25175, Control_c, 0, 64, 61
1, 25190, Control_c, 0, 64, 62
1, 25204, Control_c, 0, 64, 68
1, 25219, Control_c, 0, 64, 75
1, 25234, Control_c, 0, 64, 80
1, 25249, Control_c, 0, 64, 83
1, 25264, Control_c, 0, 64, 86
1, 25278, Control_c, 0, 64, 89
1, 25293, Control_c, 0, 64, 94
1, 25308, Control_c, 0, 64, 99
1, 25323, Control_c, 0, 64, 103
1, 25337, Control_c, 0, 64, 106
1, 25352, Control_c, 0, 64, 110
1, 25375, Control_c, 0, 64, 114
1, 25389, Note_off_c, 0, 56, 50
1, 25390, Control_c, 0, 64, 121
1, 25400, Note_on_c, 0, 54, 52
1, 25404, Control_c, 0, 64, 127
1, 25418, Note_on_c, 0, 47, 37
1, 25602, Note_on_c, 0, 56, 63
1, 25642, Note_off_c, 0, 54, 38
1, 25787, Note_on_c, 0, 58, 68
1, 25790, Note_on_c, 0, 50, 50
1, 25805, Note_off_c, 0, 56, 55
1, 25969, Note_on_c, 0, 56, 69
1, 25975, Note_off_c, 0, 58, 61
1, 26165, Note_on_c, 0, 54, 44
1, 26169, Note_on_c, 0, 58, 72
1, 26178, Note_off_c, 0, 56, 57
1, 26396, Note_on_c, 0, 62, 65
1, 26411, Note_on_c, 0, 56, 47
1, 26420, Control_c, 0, 64, 93
1, 26435, Control_c, 0, 64, 76
1, 26436, Note_off_c, 0, 58, 54
1, 26450, Control_c, 0, 64, 63
1, 26465, Control_c, 0, 64, 11
1, 26479, Control_c, 0, 64, 0
1, 26494, Control_c, 0, 64, 55
1, 26509, Control_c, 0, 64, 68
1, 26524, Control_c, 0, 64, 75
1, 26539, Control_c, 0, 64, 80
1, 26555, Control_c, 0, 64, 81
1, 26613, Note_off_c, 0, 56, 44
1, 26614, Control_c, 0, 64, 78
1, 26629, Control_c, 0, 64, 72
1, 26637, Note_on_c, 0, 64, 59
1, 26643, Control_c, 0, 64, 66
1, 26658, Note_off_c, 0, 62, 53
1, 26658, Control_c, 0, 64, 62
1, 26662, Note_on_c, 0, 58, 39
1, 26673, Control_c, 0, 64, 60
1, 26688, Control_c, 0, 64, 55
1, 26703, Control_c, 0, 64, 41
1, 26718, Control_c, 0, 64, 26
1, 26733, Control_c, 0, 64, 0
1, 26855, Note_off_c, 0, 64, 60
1, 26876, Note_on_c, 0, 66, 54
1, 26917, Control_c, 0, 67, 9
1, 26932, Control_c, 0, 67, 12
1, 26947, Control_c, 0, 67, 18
1, 26962, Control_c, 0, 67, 25
1, 26977, Control_c, 0, 67, 32
1, 26992, Control_c, 0, 67, 39
1, 27007, Control_c, 0, 67, 48
1, 27022, Control_c, 0, 67, 57
1, 27037, Control_c, 0, 67, 69
1, 27051, Control_c, 0, 67, 80
1, 27066, Control_c, 0, 67, 91
1, 27081, Control_c, 0, 67, 104
1, 27095, Control_c, 0, 67, 117
1, 27110, Control_c, 0, 67, 127
1, 27111, Note_off_c, 0, 66, 50
1, 27119, Note_off_c, 0, 58, 50
1, 27125, Note_on_c, 0, 64, 46
1, 27134, Note_on_c, 0, 56, 37
1, 27348, Control_c, 0, 64, 26
1, 27363, Control_c, 0, 64, 50
1, 27378, Control_c, 0, 64, 57
1, 27392, Control_c, 0, 64, 61
1, 27407, Control_c, 0, 64, 62
1, 27422, Control_c, 0, 64, 62
1, 27424, Note_on_c, 0, 62, 40
1, 27437, Control_c, 0, 64, 64
1, 27438, Note_off_c, 0, 64, 33
1, 27452, Control_c, 0, 64, 66
1, 27467, Control_c, 0, 64, 68
1, 27481, Control_c, 0, 64, 70
1, 27496, Control_c, 0, 64, 74
1, 27511, Control_c, 0, 64, 81
1, 27525, Control_c, 0, 64, 91
1, 27540, Control_c, 0, 64, 100
1, 27555, Control_c, 0, 64, 105
1, 27560, Note_off_c, 0, 54, 49
1, 27570, Control_c, 0, 64, 109
1, 27585, Control_c, 0, 64, 121
1, 27600, Control_c, 0, 64, 127
1, 27608, Note_off_c, 0, 50, 45
1, 27628, Note_off_c, 0, 56, 40
1, 27677, Note_off_c, 0, 40, 15
1, 27682, Note_off_c, 0, 47, 40
1, 27788, Note_on_c, 0, 58, 45
1, 27795, Note_on_c, 0, 50, 28
1, 27837, Note_off_c, 0, 62, 36
1, 27883, Note_off_c, 0, 50, 52
1, 27904, Control_c, 0, 67, 127
1, 27905, Note_off_c, 0, 58, 59
1, 27918, Control_c, 0, 67, 114
1, 27933, Control_c, 0, 67, 98
1, 27948, Control_c, 0, 67, 85
1, 27963, Control_c, 0, 67, 70
1, 27978, Control_c, 0, 67, 55
1, 27992, Control_c, 0, 67, 41
1, 28007, Control_c, 0, 67, 29
1, 28022, Control_c, 0, 67, 18
1, 28037, Control_c, 0, 67, 0
1, 28493, Note_on_c, 0, 39, 34
1, 28535, Note_on_c, 0, 70, 67
1, 28563, Control_c, 0, 64, 108
1, 28578, Control_c, 0, 64, 93
1, 28593, Control_c, 0, 64, 80
1, 28608, Control_c, 0, 64, 65
1, 28622, Control_c, 0, 64, 23
1, 28637, Control_c, 0, 64, 0
1, 28667, Control_c, 0, 64, 59
1, 28681, Control_c, 0, 64, 67
1, 28696, Control_c, 0, 64, 75
1, 28711, Control_c, 0, 64, 80
1, 28726, Control_c, 0, 64, 83
1, 28740, Control_c, 0, 64, 87
1, 28755, Control_c, 0, 64, 92
1, 28770, Control_c, 0, 64, 98
1, 28785, Control_c, 0, 64, 105
1, 28800, Control_c, 0, 64, 111
1, 28814, Control_c, 0, 64, 117
1, 28829, Control_c, 0, 64, 127
1, 28902, Note_off_c, 0, 39, 41
1, 28999, Note_on_c, 0, 46, 30
1, 29040, Note_off_c, 0, 46, 50
1, 29301, Note_on_c, 0, 63, 28
1, 29336, Note_on_c, 0, 58, 31
1, 29362, Note_on_c, 0, 67, 59
1, 29545, Note_off_c, 0, 58, 41
1, 29588, Note_on_c, 0, 55, 32
1, 29612, Note_off_c, 0, 70, 28
1, 29642, Note_off_c, 0, 63, 34
1, 29919, Note_off_c, 0, 55, 29
1, 30017, Note_on_c, 0, 58, 32
1, 30079, Note_on_c, 0, 68, 65
1, 30111, Note_off_c, 0, 67, 50
1, 30307, Note_on_c, 0, 70, 74
1, 30397, Note_off_c, 0, 68, 38
1, 30477, Note_off_c, 0, 58, 42
1, 30504, Note_on_c, 0, 63, 40
1, 30547, Note_off_c, 0, 63, 52
1, 30689, Note_on_c, 0, 63, 35
1, 30714, Note_on_c, 0, 71, 72
1, 30724, Note_on_c, 0, 67, 34
1, 30756, Note_off_c, 0, 70, 58
1, 30822, Note_off_c, 0, 63, 38
1, 30849, Note_off_c, 0, 67, 36
1, 30949, Note_on_c, 0, 58, 8
1, 31016, Note_off_c, 0, 58, 45
1, 31211, Note_on_c, 0, 55, 37
1, 31246, Note_off_c, 0, 55, 63
1, 31323, Note_on_c, 0, 73, 67
1, 31332, Note_off_c, 0, 71, 56
1, 31535, Note_on_c, 0, 68, 55
1, 31538, Note_off_c, 0, 73, 57
1, 31559, Note_off_c, 0, 68, 62
1, 31571, Note_on_c, 0, 70, 65
1, 31588, Control_c, 0, 64, 119
1, 31600, Note_on_c, 0, 39, 51
1, 31603, Control_c, 0, 64, 91
1, 31606, Note_off_c, 0, 70, 62
1, 31618, Control_c, 0, 64, 73
1, 31630, Note_on_c, 0, 68, 60
1, 31633, Control_c, 0, 64, 45
1, 31648, Control_c, 0, 64, 0
1, 31707, Control_c, 0, 64, 58
1, 31722, Control_c, 0, 64, 67
1, 31737, Control_c, 0, 64, 75
1, 31752, Control_c, 0, 64, 79
1, 31766, Control_c, 0, 64, 82
1, 31781, Control_c, 0, 64, 86
1, 31796, Control_c, 0, 64, 92
1, 31810, Control_c, 0, 64, 98
1, 31825, Control_c, 0, 64, 105
1, 31840, Control_c, 0, 64, 110
1, 31855, Control_c, 0, 64, 118
1, 31870, Control_c, 0, 64, 127
1, 31925, Note_on_c, 0, 47, 38
1, 31955, Note_on_c, 0, 66, 64
1, 31968, Note_off_c, 0, 68, 57
1, 32095, Note_off_c, 0, 47, 41
1, 32163, Note_on_c, 0, 68, 74
1, 32190, Note_off_c, 0, 39, 36
1, 32197, Note_off_c, 0, 66, 57
1, 32327, Note_on_c, 0, 50, 50
1, 32329, Note_on_c, 0, 70, 74
1, 32373, Note_off_c, 0, 50, 65
1, 32382, Note_off_c, 0, 68, 60
1, 32509, Note_on_c, 0, 66, 76
1, 32556, Note_off_c, 0, 70, 58
1, 32678, Note_on_c, 0, 68, 72
1, 32682, Note_on_c, 0, 58, 47
1, 32709, Note_off_c, 0, 66, 58
1, 32883, Note_on_c, 0, 64, 65
1, 32907, Control_c, 0, 64, 93
1, 32921, Control_c, 0, 64, 75
1, 32932, Note_off_c, 0, 68, 53
1, 32937, Control_c, 0, 64, 62
1, 32952, Control_c, 0, 64, 0
1, 32967, Control_c, 0, 64, 27
1, 32983, Control_c, 0, 64, 63
1, 32998, Control_c, 0, 64, 71
1, 33012, Control_c, 0, 64, 77
1, 33027, Control_c, 0, 64, 82
1, 33042, Control_c, 0, 64, 84
1, 33057, Control_c, 0, 64, 87
1, 33067, Note_off_c, 0, 64, 61
1, 33070, Note_on_c, 0, 66, 57
1, 33071, Control_c, 0, 64, 90
1, 33075, Note_on_c, 0, 62, 42
1, 33086, Control_c, 0, 64, 93
1, 33101, Control_c, 0, 64, 97
1, 33116, Control_c, 0, 64, 102
1, 33131, Control_c, 0, 64, 106
1, 33145, Control_c, 0, 64, 111
1, 33160, Control_c, 0, 64, 118
1, 33175, Control_c, 0, 64, 127
1, 33216, Note_off_c, 0, 66, 58
1, 33243, Note_on_c, 0, 68, 62
1, 33364, Note_off_c, 0, 62, 38
1, 33374, Note_off_c, 0, 68, 0
1, 33401, Note_on_c, 0, 68, 18
1, 33419, Note_on_c, 0, 70, 59
1, 33444, Note_off_c, 0, 68, 50
1, 33534, Note_off_c, 0, 58, 40
1, 33593, Note_on_c, 0, 66, 59
1, 33818, Note_on_c, 0, 68, 64
1, 33833, Note_off_c, 0, 70, 31
1, 33853, Note_off_c, 0, 66, 48
1, 34101, Control_c, 0, 64, 115
1, 34116, Control_c, 0, 64, 93
1, 34125, Note_on_c, 0, 70, 53
1, 34131, Control_c, 0, 64, 75
1, 34140, Note_on_c, 0, 39, 33
1, 34146, Control_c, 0, 64, 52
1, 34161, Control_c, 0, 64, 0
1, 34166, Note_off_c, 0, 68, 54
1, 34220, Control_c, 0, 67, 9
1, 34235, Control_c, 0, 67, 15
1, 34250, Control_c, 0, 67, 22
1, 34265, Control_c, 0, 64, 58
1, 34265, Control_c, 0, 67, 33
1, 34279, Control_c, 0, 64, 67
1, 34279, Control_c, 0, 67, 45
1, 34294, Control_c, 0, 64, 70
1, 34294, Control_c, 0, 67, 54
1, 34309, Control_c, 0, 64, 75
1, 34309, Control_c, 0, 67, 62
1, 34324, Control_c, 0, 64, 80
1, 34324, Control_c, 0, 67, 73
1, 34339, Control_c, 0, 64, 86
1, 34339, Control_c, 0, 67, 83
1, 34361, Control_c, 0, 64, 94
1, 34361, Control_c, 0, 67, 93
1, 34376, Control_c, 0, 64, 109
1, 34376, Control_c, 0, 67, 104
1, 34390, Control_c, 0, 64, 127
1, 34390, Control_c, 0, 67, 114
1, 34405, Control_c, 0, 67, 125
1, 34420, Control_c, 0, 67, 127
1, 34428, Note_off_c, 0, 39, 42
1, 34513, Note_on_c, 0, 46, 18
1, 34561, Note_off_c, 0, 46, 43
1, 34747, Note_on_c, 0, 67, 53
1, 34753, Note_on_c, 0, 58, 38
1, 34765, Note_on_c, 0, 63, 31
1, 34978, Note_on_c, 0, 55, 37
1, 34981, Note_off_c, 0, 58, 34
1, 35008, Note_off_c, 0, 63, 38
1, 35048, Note_off_c, 0, 55, 51
1, 35050, Note_off_c, 0, 70, 44
1, 35124, Control_c, 0, 67, 120
1, 35139, Control_c, 0, 67, 111
1, 35154, Control_c, 0, 67, 101
1, 35169, Control_c, 0, 67, 92
1, 35183, Control_c, 0, 67, 82
1, 35198, Control_c, 0, 67, 71
1, 35213, Control_c, 0, 67, 58
1, 35228, Control_c, 0, 67, 49
1, 35243, Control_c, 0, 67, 42
1, 35258, Control_c, 0, 67, 35
1, 35273, Control_c, 0, 67, 28
1, 35288, Control_c, 0, 67, 19
1, 35303, Control_c, 0, 67, 10
1, 35317, Control_c, 0, 67, 0
1, 35405, Note_on_c, 0, 58, 39
1, 35407, Note_on_c, 0, 68, 59
1, 35450, Note_off_c, 0, 67, 53
1, 35626, Note_on_c, 0, 70, 68
1, 35678, Note_off_c, 0, 68, 54
1, 35825, Note_on_c, 0, 67, 46
1, 35827, Note_off_c, 0, 58, 33
1, 35885, Note_off_c, 0, 67, 56
1, 36026, Note_on_c, 0, 67, 39
1, 36030, Note_on_c, 0, 71, 73
1, 36040, Note_on_c, 0, 63, 43
1, 36069, Note_off_c, 0, 70, 62
1, 36240, Note_on_c, 0, 58, 50
1, 36266, Note_off_c, 0, 67, 40
1, 36285, Note_off_c, 0, 63, 36
1, 36394, Note_off_c, 0, 58, 37
1, 36503, Note_on_c, 0, 55, 52
1, 36533, Note_off_c, 0, 55, 64
1, 36624, Note_on_c, 0, 73, 83
1, 36633, Note_off_c, 0, 71, 55
1, 36671, Note_off_c, 0, 73, 63
1, 36805, Note_on_c, 0, 76, 59
1, 36832, Note_off_c, 0, 76, 64
1, 36838, Note_on_c, 0, 78, 69
1, 36844, Control_c, 0, 64, 119
1, 36859, Control_c, 0, 64, 84
1, 36874, Control_c, 0, 64, 60
1, 36875, Note_on_c, 0, 39, 58
1, 36885, Note_on_c, 0, 76, 77
1, 36887, Note_off_c, 0, 78, 62
1, 36888, Control_c, 0, 64, 0
1, 36918, Control_c, 0, 64, 64
1, 36931, Note_off_c, 0, 76, 64
1, 36933, Control_c, 0, 64, 78
1, 36948, Control_c, 0, 64, 104
1, 36963, Control_c, 0, 64, 127
1, 37198, Note_off_c, 0, 39, 48
1, 37220, Note_on_c, 0, 75, 62
1, 37234, Note_on_c, 0, 64, 51
1, 37246, Note_on_c, 0, 49, 44
1, 37248, Note_on_c, 0, 69, 40
1, 37302, Note_off_c, 0, 49, 59
1, 37416, Note_off_c, 0, 75, 46
1, 37424, Note_on_c, 0, 73, 67
1, 37436, Note_off_c, 0, 64, 30
1, 37482, Note_off_c, 0, 69, 37
1, 37580, Note_off_c, 0, 73, 57
1, 37588, Note_on_c, 0, 69, 60
1, 37601, Note_on_c, 0, 75, 70
1, 37606, Note_on_c, 0, 57, 51
1, 37622, Note_off_c, 0, 69, 66
1, 37637, Note_off_c, 0, 75, 55
1, 37658, Poly_aftertouch_c, 0, 64, 127
1, 37672, Note_off_c, 0, 57, 49
1, 37690, Poly_aftertouch_c, 0, 64, 0
1, 37768, Note_on_c, 0, 76, 69
1, 37833, Note_off_c, 0, 76, 59
1, 37932, Note_on_c, 0, 61, 64
1, 37935, Note_on_c, 0, 78, 72
1, 37938, Note_on_c, 0, 69, 58
1, 37968, Note_on_c, 0, 76, 43
1, 37968, Note_off_c, 0, 61, 61
1, 37971, Note_off_c, 0, 69, 63
1, 38055, Note_off_c, 0, 76, 37
1, 38107, Note_on_c, 0, 80, 77
1, 38141, Note_off_c, 0, 78, 53
1, 38270, Note_on_c, 0, 73, 72
1, 38270, Note_on_c, 0, 81, 81
1, 38275, Note_off_c, 0, 80, 62
1, 38283, Note_on_c, 0, 78, 52
1, 38316, Note_on_c, 0, 76, 38
1, 38349, Note_off_c, 0, 76, 51
1, 38377, Note_off_c, 0, 78, 45
1, 38386, Note_off_c, 0, 81, 58
1, 38435, Note_on_c, 0, 83, 77
1, 38482, Note_off_c, 0, 83, 64
1, 38596, Note_off_c, 0, 73, 55
1, 38616, Note_on_c, 0, 85, 71
1, 38629, Note_on_c, 0, 81, 53
1, 38633, Note_on_c, 0, 76, 49
1, 38668, Note_off_c, 0, 76, 62
1, 38818, Note_on_c, 0, 87, 63
1, 38868, Note_off_c, 0, 85, 47
1, 38877, Note_off_c, 0, 81, 42
1, 38969, Note_off_c, 0, 87, 37
1, 39057, Note_on_c, 0, 79, 41
1, 39070, Note_on_c, 0, 88, 55
1, 39092, Note_off_c, 0, 79, 52
1, 39113, Note_off_c, 0, 88, 60
1, 39146, Poly_aftertouch_c, 0, 81, 127
1, 39150, Poly_aftertouch_c, 0, 85, 127
1, 39175, Poly_aftertouch_c, 0, 81, 0
1, 39183, Poly_aftertouch_c, 0, 85, 0
1, 39476, Control_c, 0, 64, 108
1, 39491, Control_c, 0, 64, 95
1, 39506, Control_c, 0, 64, 83
1, 39521, Control_c, 0, 64, 73
1, 39528, Note_on_c, 0, 63, 35
1, 39536, Note_on_c, 0, 87, 54
1, 39536, Control_c, 0, 64, 61
1, 39550, Control_c, 0, 64, 0
1, 39553, Note_on_c, 0, 79, 40
1, 39562, Note_on_c, 0, 75, 23
1, 39617, Control_c, 0, 67, 8
1, 39631, Control_c, 0, 67, 11
1, 39646, Control_c, 0, 67, 16
1, 39661, Control_c, 0, 64, 30
1, 39661, Control_c, 0, 67, 25
1, 39676, Control_c, 0, 64, 62
1, 39676, Control_c, 0, 67, 34
1, 39691, Control_c, 0, 64, 71
1, 39691, Control_c, 0, 67, 43
1, 39705, Control_c, 0, 64, 85
1, 39705, Control_c, 0, 67, 52
1, 39720, Control_c, 0, 64, 106
1, 39720, Control_c, 0, 67, 60
1, 39735, Control_c, 0, 64, 120
1, 39735, Control_c, 0, 67, 69
1, 39750, Control_c, 0, 64, 127
1, 39750, Control_c, 0, 67, 80
1, 39751, Note_off_c, 0, 79, 46
1, 39763, Note_off_c, 0, 75, 47
1, 39765, Control_c, 0, 67, 96
1, 39780, Control_c, 0, 67, 114
1, 39795, Control_c, 0, 67, 127
1, 39813, Note_off_c, 0, 87, 39
1, 39840, Note_off_c, 0, 63, 35
1, 39861, Note_on_c, 0, 70, 29
1, 40041, Note_off_c, 0, 70, 43
1, 40070, Note_on_c, 0, 74, 42
1, 40080, Note_on_c, 0, 89, 50
1, 40084, Note_on_c, 0, 80, 32
1, 40111, Note_on_c, 0, 77, 25
1, 40205, Note_off_c, 0, 74, 56
1, 40257, Note_off_c, 0, 77, 42
1, 40257, Note_on_c, 0, 75, 42
1, 40260, Note_off_c, 0, 80, 46
1, 40284, Note_off_c, 0, 89, 59
1, 40398, Note_off_c, 0, 75, 29
1, 40469, Note_on_c, 0, 70, 38
1, 40541, Note_off_c, 0, 70, 57
1, 40621, Note_on_c, 0, 91, 42
1, 40625, Note_on_c, 0, 79, 28
1, 40635, Note_on_c, 0, 82, 46
1, 40647, Note_off_c, 0, 91, 55
1, 40662, Note_off_c, 0, 79, 52
1, 40693, Note_off_c, 0, 82, 37
1, 40825, Control_c, 0, 64, 109
1, 40827, Note_on_c, 0, 92, 56
1, 40840, Control_c, 0, 64, 89
1, 40842, Note_on_c, 0, 61, 41
1, 40854, Control_c, 0, 64, 74
1, 40856, Note_on_c, 0, 83, 33
1, 40857, Note_on_c, 0, 80, 23
1, 40869, Control_c, 0, 64, 56
1, 40884, Control_c, 0, 64, 0
1, 40914, Control_c, 0, 64, 17
1, 40930, Control_c, 0, 64, 61
1, 40944, Control_c, 0, 64, 68
1, 40959, Control_c, 0, 64, 78
1, 40974, Control_c, 0, 64, 86
1, 40989, Control_c, 0, 64, 94
1, 40993, Note_off_c, 0, 92, 59
1, 41003, Control_c, 0, 64, 100
1, 41014, Note_off_c, 0, 83, 55
1, 41018, Control_c, 0, 64, 109
1, 41019, Note_off_c, 0, 61, 39
1, 41027, Note_on_c, 0, 68, 41
1, 41033, Control_c, 0, 64, 127
1, 41036, Note_off_c, 0, 80, 43
1, 41164, Note_off_c, 0, 68, 55
1, 41214, Note_on_c, 0, 90, 55
1, 41219, Note_on_c, 0, 82, 46
1, 41248, Note_on_c, 0, 71, 27
1, 41273, Note_on_c, 0, 78, 20
1, 41360, Note_off_c, 0, 90, 37
1, 41366, Note_off_c, 0, 82, 50
1, 41394, Note_on_c, 0, 73, 37
1, 41418, Note_off_c, 0, 71, 44
1, 41444, Note_off_c, 0, 78, 42
1, 41465, Note_off_c, 0, 73, 41
1, 41586, Note_on_c, 0, 70, 37
1, 41751, Note_on_c, 0, 88, 51
1, 41766, Note_on_c, 0, 71, 30
1, 41771, Note_on_c, 0, 80, 43
1, 41774, Note_on_c, 0, 76, 36
1, 41778, Note_off_c, 0, 88, 53
1, 41807, Note_off_c, 0, 76, 52
1, 41810, Note_off_c, 0, 80, 46
1, 41837, Note_off_c, 0, 70, 40
1, 41877, Note_off_c, 0, 71, 38
1, 41893, Control_c, 0, 64, 100
1, 41908, Control_c, 0, 64, 74
1, 41923, Control_c, 0, 64, 47
1, 41938, Control_c, 0, 64, 0
1, 41952, Note_on_c, 0, 87, 59
1, 41968, Control_c, 0, 64, 31
1, 41970, Note_on_c, 0, 63, 37
1, 41978, Note_on_c, 0, 79, 49
1, 41981, Note_on_c, 0, 75, 37
1, 41982, Control_c, 0, 64, 63
1, 41997, Control_c, 0, 64, 69
1, 42012, Control_c, 0, 64, 75
1, 42026, Control_c, 0, 64, 79
1, 42041, Control_c, 0, 64, 84
1, 42054, Note_off_c, 0, 79, 61
1, 42056, Control_c, 0, 64, 92
1, 42063, Note_off_c, 0, 75, 48
1, 42069, Note_off_c, 0, 87, 61
1, 42071, Control_c, 0, 64, 101
1, 42086, Control_c, 0, 64, 109
1, 42100, Control_c, 0, 64, 112
1, 42115, Control_c, 0, 64, 113
1, 42126, Note_off_c, 0, 63, 54
1, 42145, Note_on_c, 0, 70, 47
1, 42189, Control_c, 0, 64, 113
1, 42204, Control_c, 0, 64, 117
1, 42214, Note_off_c, 0, 70, 43
1, 42219, Control_c, 0, 64, 127
1, 42293, Control_c, 0, 67, 122
1, 42293, Note_on_c, 0, 89, 63
1, 42298, Note_on_c, 0, 80, 54
1, 42308, Control_c, 0, 67, 113
1, 42320, Note_on_c, 0, 74, 60
1, 42323, Control_c, 0, 67, 104
1, 42338, Control_c, 0, 67, 94
1, 42352, Control_c, 0, 67, 85
1, 42367, Control_c, 0, 67, 73
1, 42382, Control_c, 0, 67, 59
1, 42397, Note_off_c, 0, 80, 59
1, 42397, Control_c, 0, 67, 43
1, 42412, Control_c, 0, 67, 30
1, 42418, Note_off_c, 0, 89, 61
1, 42426, Control_c, 0, 67, 17
1, 42441, Control_c, 0, 67, 0
1, 42473, Note_on_c, 0, 75, 51
1, 42485, Note_off_c, 0, 74, 38
1, 42616, Note_off_c, 0, 75, 29
1, 42643, Note_on_c, 0, 70, 58
1, 42791, Note_on_c, 0, 91, 66
1, 42794, Note_on_c, 0, 82, 70
1, 42798, Note_on_c, 0, 79, 50
1, 42801, Note_on_c, 0, 73, 63
1, 42822, Note_off_c, 0, 79, 58
1, 42823, Note_off_c, 0, 91, 63
1, 42830, Note_off_c, 0, 82, 60
1, 42850, Note_off_c, 0, 70, 53
1, 42883, Note_off_c, 0, 73, 58
1, 42969, Note_on_c, 0, 76, 55
1, 42977, Note_on_c, 0, 94, 85
1, 42992, Note_on_c, 0, 85, 60
1, 43004, Note_on_c, 0, 82, 52
1, 43012, Note_off_c, 0, 85, 65
1, 43026, Note_off_c, 0, 82, 61
1, 43058, Note_off_c, 0, 94, 63
1, 43071, Note_off_c, 0, 76, 55
1, 43163, Note_on_c, 0, 75, 59
1, 43190, Note_off_c, 0, 75, 66
1, 43405, Note_on_c, 0, 88, 44
1, 43407, Note_on_c, 0, 85, 43
1, 43410, Note_on_c, 0, 82, 47
1, 43423, Note_on_c, 0, 97, 86
1, 43464, Note_off_c, 0, 97, 66
1, 43506, Note_off_c, 0, 88, 38
1, 43536, Note_off_c, 0, 82, 35
1, 43584, Note_off_c, 0, 85, 36
1, 43681, Note_on_c, 0, 81, 39
1, 43734, Note_off_c, 0, 81, 58
1, 43908, Note_on_c, 0, 80, 40
1, 43962, Note_off_c, 0, 80, 48
1, 44139, Note_on_c, 0, 79, 44
1, 44172, Note_off_c, 0, 79, 64
1, 44215, Note_on_c, 0, 95, 80
1, 44251, Note_on_c, 0, 83, 35
1, 44283, Note_off_c, 0, 83, 49
1, 44284, Note_off_c, 0, 95, 62
1, 44307, Poly_aftertouch_c, 0, 87, 0
1, 44537, Note_on_c, 0, 47, 38
1, 44584, Note_on_c, 0, 94, 74
1, 44601, Note_on_c, 0, 82, 51
1, 44607, Note_on_c, 0, 85, 48
1, 44628, Control_c, 0, 64, 95
1, 44643, Control_c, 0, 64, 75
1, 44658, Control_c, 0, 64, 62
1, 44673, Control_c, 0, 64, 49
1, 44687, Control_c, 0, 64, 63
1, 44702, Control_c, 0, 64, 72
1, 44717, Control_c, 0, 64, 85
1, 44732, Control_c, 0, 64, 101
1, 44734, Note_off_c, 0, 85, 60
1, 44746, Control_c, 0, 64, 118
1, 44748, Note_off_c, 0, 94, 64
1, 44761, Control_c, 0, 64, 127
1, 44785, Note_off_c, 0, 82, 58
1, 44819, Note_on_c, 0, 54, 42
1, 44929, Note_off_c, 0, 54, 60
1, 44931, Note_off_c, 0, 47, 43
1, 45003, Note_on_c, 0, 92, 69
1, 45004, Note_on_c, 0, 59, 52
1, 45035, Note_on_c, 0, 80, 38
1, 45039, Note_on_c, 0, 83, 42
1, 45059, Note_off_c, 0, 59, 57
1, 45148, Note_off_c, 0, 92, 58
1, 45175, Note_on_c, 0, 63, 51
1, 45194, Note_off_c, 0, 83, 63
1, 45213, Note_off_c, 0, 80, 47
1, 45330, Note_off_c, 0, 63, 34
1, 45348, Note_on_c, 0, 66, 45
1, 45459, Note_off_c, 0, 66, 51
1, 45473, Note_on_c, 0, 90, 69
1, 45476, Note_on_c, 0, 63, 42
1, 45491, Note_on_c, 0, 82, 59
1, 45497, Note_on_c, 0, 78, 52
1, 45509, Note_off_c, 0, 90, 58
1, 45518, Note_off_c, 0, 82, 66
1, 45533, Note_off_c, 0, 63, 58
1, 45534, Note_off_c, 0, 78, 63
1, 45653, Note_on_c, 0, 87, 83
1, 45662, Note_on_c, 0, 71, 53
1, 45679, Note_on_c, 0, 75, 59
1, 45680, Note_on_c, 0, 78, 53
1, 45751, Note_off_c, 0, 78, 47
1, 45758, Note_off_c, 0, 71, 54
1, 45759, Note_off_c, 0, 87, 63
1, 45792, Note_off_c, 0, 75, 58
1, 45814, Note_on_c, 0, 66, 57
1, 45986, Note_on_c, 0, 75, 57
1, 45989, Note_on_c, 0, 85, 83
1, 46007, Note_on_c, 0, 77, 65
1, 46041, Note_on_c, 0, 73, 36
1, 46041, Note_off_c, 0, 77, 61
1, 46055, Note_off_c, 0, 66, 29
1, 46056, Note_off_c, 0, 75, 56
1, 46076, Note_off_c, 0, 73, 53
1, 46083, Note_off_c, 0, 85, 63
1, 46139, Note_on_c, 0, 71, 66
1, 46195, Note_off_c, 0, 71, 64
1, 46329, Note_on_c, 0, 78, 66
1, 46362, Note_off_c, 0, 78, 68
1, 46513, Note_on_c, 0, 83, 75
1, 46526, Note_on_c, 0, 71, 46
1, 46537, Note_on_c, 0, 75, 35
1, 46550, Note_off_c, 0, 71, 59
1, 46560, Note_off_c, 0, 83, 64
1, 46570, Note_off_c, 0, 75, 54
1, 46624, Control_c, 0, 67, 10
1, 46639, Control_c, 0, 67, 15
1, 46654, Control_c, 0, 67, 22
1, 46669, Control_c, 0, 67, 30
1, 46684, Control_c, 0, 67, 37
1, 46698, Control_c, 0, 67, 45
1, 46713, Control_c, 0, 67, 54
1, 46728, Control_c, 0, 67, 64
1, 46742, Control_c, 0, 67, 73
1, 46757, Control_c, 0, 67, 83
1, 46772, Control_c, 0, 67, 92
1, 46787, Control_c, 0, 67, 104
1, 46802, Control_c, 0, 67, 113
1, 46816, Control_c, 0, 64, 113
1, 46816, Control_c, 0, 67, 121
1, 46831, Control_c, 0, 64, 94
1, 46831, Control_c, 0, 67, 127
1, 46832, Note_on_c, 0, 45, 36
1, 46846, Control_c, 0, 64, 81
1, 46861, Control_c, 0, 64, 65
1, 46876, Control_c, 0, 64, 0
1, 46883, Note_on_c, 0, 89, 55
1, 46896, Note_on_c, 0, 85, 42
1, 46923, Note_on_c, 0, 77, 23
1, 46949, Control_c, 0, 64, 58
1, 46964, Control_c, 0, 64, 71
1, 46979, Note_off_c, 0, 89, 60
1, 46979, Control_c, 0, 64, 85
1, 46991, Note_off_c, 0, 85, 61
1, 46994, Control_c, 0, 64, 104
1, 47009, Control_c, 0, 64, 127
1, 47029, Note_off_c, 0, 77, 44
1, 47140, Note_on_c, 0, 53, 42
1, 47207, Note_off_c, 0, 45, 43
1, 47249, Note_off_c, 0, 53, 61
1, 47338, Note_on_c, 0, 87, 52
1, 47343, Note_on_c, 0, 57, 41
1, 47362, Note_on_c, 0, 75, 35
1, 47369, Note_on_c, 0, 83, 39
1, 47374, Note_off_c, 0, 57, 54
1, 47396, Note_off_c, 0, 87, 50
1, 47426, Note_off_c, 0, 75, 44
1, 47514, Note_on_c, 0, 59, 42
1, 47574, Note_off_c, 0, 83, 37
1, 47607, Note_off_c, 0, 59, 48
1, 47667, Note_on_c, 0, 61, 43
1, 47825, Note_off_c, 0, 61, 39
1, 47840, Note_on_c, 0, 63, 45
1, 47850, Note_on_c, 0, 85, 56
1, 47870, Note_on_c, 0, 73, 39
1, 47890, Note_off_c, 0, 85, 61
1, 47900, Note_off_c, 0, 73, 55
1, 47906, Note_off_c, 0, 63, 47
1, 47915, Poly_aftertouch_c, 0, 81, 0
1, 48016, Note_on_c, 0, 65, 47
1, 48020, Note_on_c, 0, 83, 66
1, 48044, Note_on_c, 0, 75, 47
1, 48047, Note_on_c, 0, 71, 37
1, 48061, Note_off_c, 0, 83, 57
1, 48064, Note_off_c, 0, 65, 58
1, 48107, Note_off_c, 0, 71, 46
1, 48150, Note_off_c, 0, 75, 36
1, 48192, Note_on_c, 0, 69, 51
1, 48225, Note_off_c, 0, 69, 65
1, 48357, Note_on_c, 0, 81, 62
1, 48382, Note_on_c, 0, 77, 42
1, 48398, Note_on_c, 0, 69, 6
1, 48413, Note_on_c, 0, 73, 32
1, 48422, Note_off_c, 0, 77, 55
1, 48444, Note_off_c, 0, 81, 57
1, 48445, Note_off_c, 0, 69, 53
1, 48546, Note_off_c, 0, 73, 48
1, 48572, Note_on_c, 0, 75, 31
1, 48666, Note_off_c, 0, 75, 34
1, 48752, Note_on_c, 0, 77, 45
1, 48809, Note_off_c, 0, 77, 52
1, 48930, Control_c, 0, 67, 117
1, 48943, Note_on_c, 0, 83, 53
1, 48945, Control_c, 0, 67, 104
1, 48960, Control_c, 0, 67, 89
1, 48971, Note_on_c, 0, 75, 24
1, 48974, Control_c, 0, 67, 73
1, 48989, Control_c, 0, 67, 53
1, 49004, Control_c, 0, 67, 38
1, 49007, Poly_aftertouch_c, 0, 78, 127
1, 49018, Control_c, 0, 67, 24
1, 49024, Note_off_c, 0, 75, 46
1, 49033, Control_c, 0, 67, 11
1, 49048, Poly_aftertouch_c, 0, 78, 0
1, 49048, Control_c, 0, 67, 0
1, 49201, Note_off_c, 0, 83, 59
1, 49211, Control_c, 0, 64, 105
1, 49226, Note_on_c, 0, 82, 60
1, 49226, Control_c, 0, 64, 84
1, 49232, Note_on_c, 0, 70, 39
1, 49241, Control_c, 0, 64, 67
1, 49256, Control_c, 0, 64, 0
1, 49262, Note_on_c, 0, 74, 22
1, 49265, Note_on_c, 0, 77, 12
1, 49337, Control_c, 0, 64, 61
1, 49352, Control_c, 0, 64, 68
1, 49367, Control_c, 0, 64, 76
1, 49381, Control_c, 0, 64, 85
1, 49396, Control_c, 0, 64, 94
1, 49411, Control_c, 0, 64, 103
1, 49423, Note_off_c, 0, 82, 62
1, 49426, Control_c, 0, 64, 118
1, 49441, Control_c, 0, 64, 127
1, 49447, Note_off_c, 0, 74, 44
1, 49475, Note_on_c, 0, 73, 39
1, 49531, Note_off_c, 0, 77, 43
1, 49638, Note_off_c, 0, 73, 41
1, 49656, Note_on_c, 0, 74, 42
1, 49665, Note_on_c, 0, 89, 68
1, 49815, Note_on_c, 0, 76, 49
1, 49840, Note_off_c, 0, 74, 34
1, 49849, Note_off_c, 0, 89, 58
1, 49988, Note_on_c, 0, 77, 53
1, 50024, Note_off_c, 0, 76, 54
1, 50035, Note_off_c, 0, 70, 41
1, 50092, Note_off_c, 0, 77, 51
1, 50144, Note_on_c, 0, 86, 70
1, 50176, Note_on_c, 0, 82, 51
1, 50201, Note_off_c, 0, 82, 62
1, 50340, Note_on_c, 0, 70, 37
1, 50340, Note_on_c, 0, 71, 42
1, 50404, Note_on_c, 0, 87, 83
1, 50406, Note_off_c, 0, 86, 64
1, 50410, Control_c, 0, 64, 105
1, 50425, Control_c, 0, 64, 86
1, 50440, Control_c, 0, 64, 69
1, 50455, Control_c, 0, 64, 0
1, 50456, Note_on_c, 0, 80, 17
1, 50496, Poly_aftertouch_c, 0, 78, 127
1, 50515, Control_c, 0, 64, 57
1, 50529, Control_c, 0, 64, 65
1, 50544, Control_c, 0, 64, 69
1, 50559, Control_c, 0, 64, 75
1, 50574, Control_c, 0, 64, 80
1, 50589, Control_c, 0, 64, 86
1, 50604, Control_c, 0, 64, 93
1, 50609, Note_off_c, 0, 71, 58
1, 50619, Control_c, 0, 64, 100
1, 50630, Note_on_c, 0, 73, 49
1, 50633, Control_c, 0, 64, 107
1, 50648, Control_c, 0, 64, 123
1, 50663, Control_c, 0, 64, 127
1, 50723, Note_off_c, 0, 73, 45
1, 50756, Note_off_c, 0, 80, 40
1, 50813, Note_on_c, 0, 71, 41
1, 50826, Control_c, 0, 67, 10
1, 50848, Poly_aftertouch_c, 0, 78, 0
1, 50848, Control_c, 0, 67, 14
1, 50863, Control_c, 0, 67, 19
1, 50878, Control_c, 0, 67, 26
1, 50893, Control_c, 0, 67, 35
1, 50908, Control_c, 0, 67, 44
1, 50922, Control_c, 0, 67, 53
1, 50937, Control_c, 0, 67, 62
1, 50952, Control_c, 0, 67, 73
1, 50967, Control_c, 0, 67, 85
1, 50982, Control_c, 0, 67, 98
1, 50986, Note_on_c, 0, 73, 41
1, 50996, Control_c, 0, 67, 109
1, 51011, Control_c, 0, 67, 119
1, 51026, Control_c, 0, 67, 127
1, 51041, Control_c, 0, 67, 127
1, 51108, Note_off_c, 0, 71, 36
1, 51154, Note_on_c, 0, 81, 52
1, 51170, Note_on_c, 0, 75, 35
1, 51173, Note_off_c, 0, 73, 46
1, 51206, Note_off_c, 0, 70, 38
1, 51210, Note_off_c, 0, 87, 35
1, 51231, Note_off_c, 0, 81, 56
1, 51310, Note_on_c, 0, 77, 50
1, 51310, Note_off_c, 0, 75, 41
1, 51342, Note_off_c, 0, 77, 63
1, 51501, Control_c, 0, 64, 107
1, 51507, Note_on_c, 0, 82, 58
1, 51513, Note_on_c, 0, 70, 44
1, 51515, Note_on_c, 0, 74, 41
1, 51516, Control_c, 0, 64, 83
1, 51530, Control_c, 0, 64, 66
1, 51545, Control_c, 0, 64, 0
1, 51572, Note_on_c, 0, 77, 5
1, 51597, Control_c, 0, 64, 37
1, 51611, Control_c, 0, 64, 65
1, 51626, Control_c, 0, 64, 73
1, 51641, Control_c, 0, 64, 79
1, 51656, Control_c, 0, 64, 86
1, 51671, Control_c, 0, 64, 91
1, 51686, Control_c, 0, 64, 97
1, 51701, Control_c, 0, 64, 104
1, 51716, Control_c, 0, 64, 113
1, 51718, Note_on_c, 0, 73, 36
1, 51731, Control_c, 0, 64, 127
1, 51732, Note_off_c, 0, 74, 40
1, 51760, Note_off_c, 0, 77, 43
1, 51887, Note_off_c, 0, 73, 42
1, 51911, Note_on_c, 0, 74, 31
1, 51929, Note_on_c, 0, 89, 69
1, 51969, Note_off_c, 0, 82, 40
1, 52034, Note_off_c, 0, 89, 56
1, 52097, Note_on_c, 0, 76, 44
1, 52131, Note_off_c, 0, 74, 38
1, 52272, Note_on_c, 0, 77, 42
1, 52310, Note_off_c, 0, 76, 34
1, 52341, Note_off_c, 0, 77, 55
1, 52368, Note_off_c, 0, 70, 43
1, 52458, Note_on_c, 0, 86, 42
1, 52479, Note_on_c, 0, 82, 41
1, 52502, Note_off_c, 0, 86, 51
1, 52506, Note_off_c, 0, 82, 58
1, 52627, Note_on_c, 0, 71, 33
1, 52638, Note_on_c, 0, 70, 27
1, 52716, Note_on_c, 0, 80, 70
1, 52747, Control_c, 0, 64, 101
1, 52758, Note_on_c, 0, 87, 49
1, 52761, Control_c, 0, 64, 82
1, 52776, Control_c, 0, 64, 68
1, 52789, Note_on_c, 0, 78, 8
1, 52791, Control_c, 0, 64, 55
1, 52806, Control_c, 0, 64, 47
1, 52821, Note_off_c, 0, 87, 0
1, 52821, Note_on_c, 0, 87, 9
1, 52821, Control_c, 0, 64, 62
1, 52835, Control_c, 0, 64, 70
1, 52850, Control_c, 0, 64, 80
1, 52865, Control_c, 0, 64, 88
1, 52879, Control_c, 0, 64, 93
1, 52890, Note_off_c, 0, 71, 38
1, 52894, Control_c, 0, 64, 98
1, 52911, Control_c, 0, 64, 105
1, 52925, Control_c, 0, 64, 115
1, 52926, Note_on_c, 0, 73, 45
1, 52940, Control_c, 0, 64, 127
1, 53057, Note_off_c, 0, 73, 39
1, 53112, Note_on_c, 0, 71, 40
1, 53286, Note_on_c, 0, 73, 43
1, 53378, Note_off_c, 0, 80, 23
1, 53447, Note_off_c, 0, 78, 44
1, 53472, Note_off_c, 0, 71, 19
1, 53504, Note_on_c, 0, 81, 41
1, 53509, Note_on_c, 0, 75, 42
1, 53533, Note_off_c, 0, 73, 44
1, 53607, Note_off_c, 0, 87, 42
1, 53640, Note_off_c, 0, 81, 43
1, 53689, Note_off_c, 0, 75, 32
1, 53716, Note_off_c, 0, 70, 42
1, 53731, Note_on_c, 0, 77, 8
1, 53778, Note_off_c, 0, 77, 41
1, 53992, Control_c, 0, 64, 106
1, 53999, Note_on_c, 0, 82, 47
1, 54003, Note_on_c, 0, 74, 33
1, 54005, Note_on_c, 0, 70, 33
1, 54006, Control_c, 0, 64, 85
1, 54014, Note_on_c, 0, 77, 36
1, 54021, Control_c, 0, 64, 69
1, 54036, Control_c, 0, 64, 42
1, 54051, Control_c, 0, 64, 0
1, 54058, Note_off_c, 0, 82, 0
1, 54058, Note_on_c, 0, 82, 10
1, 54080, Control_c, 0, 64, 53
1, 54095, Control_c, 0, 64, 66
1, 54110, Control_c, 0, 64, 74
1, 54124, Control_c, 0, 64, 83
1, 54139, Control_c, 0, 64, 92
1, 54154, Control_c, 0, 64, 97
1, 54169, Control_c, 0, 64, 102
1, 54184, Control_c, 0, 64, 108
1, 54199, Control_c, 0, 64, 117
1, 54213, Control_c, 0, 64, 127
1, 54252, Note_off_c, 0, 74, 43
1, 54274, Note_on_c, 0, 73, 38
1, 54285, Note_off_c, 0, 77, 38
1, 54419, Note_off_c, 0, 73, 32
1, 54431, Note_off_c, 0, 82, 34
1, 54441, Note_on_c, 0, 74, 43
1, 54465, Note_on_c, 0, 89, 56
1, 54642, Note_on_c, 0, 76, 37
1, 54648, Note_off_c, 0, 89, 38
1, 54649, Note_off_c, 0, 74, 34
1, 54828, Note_on_c, 0, 77, 36
1, 54848, Note_off_c, 0, 76, 42
1, 54884, Note_off_c, 0, 70, 37
1, 54968, Note_off_c, 0, 77, 40
1, 55006, Note_on_c, 0, 82, 32
1, 55065, Note_off_c, 0, 82, 44
1, 55161, Note_on_c, 0, 70, 38
1, 55229, Note_off_c, 0, 70, 54
1, 55233, Note_on_c, 0, 89, 56
1, 55257, Note_on_c, 0, 81, 39
1, 55266, Note_on_c, 0, 85, 20
1, 55301, Note_off_c, 0, 81, 47
1, 55327, Note_off_c, 0, 85, 44
1, 55343, Note_off_c, 0, 89, 54
1, 55446, Note_on_c, 0, 82, 46
1, 55597, Note_off_c, 0, 82, 34
1, 55614, Note_on_c, 0, 86, 56
1, 55638, Note_on_c, 0, 77, 42
1, 55751, Note_off_c, 0, 77, 49
1, 55785, Note_off_c, 0, 86, 38
1, 55793, Note_on_c, 0, 82, 56
1, 55931, Note_on_c, 0, 85, 67
1, 55941, Note_on_c, 0, 89, 64
1, 55948, Note_off_c, 0, 82, 46
1, 55982, Note_on_c, 0, 81, 34
1, 56020, Note_off_c, 0, 81, 49
1, 56080, Note_off_c, 0, 89, 55
1, 56089, Note_off_c, 0, 85, 54
1, 56106, Note_on_c, 0, 82, 53
1, 56252, Note_on_c, 0, 86, 71
1, 56283, Note_off_c, 0, 82, 37
1, 56291, Note_on_c, 0, 77, 53
1, 56386, Note_off_c, 0, 77, 56
1, 56394, Note_off_c, 0, 86, 52
1, 56428, Note_on_c, 0, 82, 55
1, 56586, Note_on_c, 0, 85, 53
1, 56593, Note_on_c, 0, 89, 53
1, 56594, Note_off_c, 0, 82, 34
1, 56621, Note_on_c, 0, 81, 39
1, 56670, Note_off_c, 0, 81, 45
1, 56676, Note_off_c, 0, 85, 38
1, 56685, Note_off_c, 0, 89, 41
1, 56765, Note_on_c, 0, 82, 44
1, 56919, Note_off_c, 0, 82, 34
1, 56951, Note_on_c, 0, 86, 43
1, 56962, Note_on_c, 0, 77, 39
1, 57096, Note_off_c, 0, 77, 44
1, 57102, Note_off_c, 0, 86, 43
1, 57135, Note_on_c, 0, 82, 44
1, 57321, Note_off_c, 0, 82, 41
1, 57339, Note_on_c, 0, 85, 39
1, 57340, Note_on_c, 0, 89, 40
1, 57412, Note_off_c, 0, 89, 39
1, 57437, Poly_aftertouch_c, 0, 81, 127
1, 57464, Note_off_c, 0, 85, 43
1, 57481, Poly_aftertouch_c, 0, 81, 0
1, 57564, Note_on_c, 0, 82, 34
1, 57718, Note_off_c, 0, 82, 43
1, 57797, Note_on_c, 0, 86, 35
1, 57806, Note_on_c, 0, 77, 34
1, 57880, Note_off_c, 0, 86, 40
1, 58047, Note_off_c, 0, 77, 44
1, 58050, Note_on_c, 0, 82, 52
1, 58093, Note_off_c, 0, 82, 57
1, 58337, Note_on_c, 0, 82, 36
1, 58353, Note_on_c, 0, 86, 40
1, 58367, Note_off_c, 0, 82, 55
1, 58447, Note_off_c, 0, 86, 36
1, 58715, Note_on_c, 0, 89, 44
1, 58826, Note_off_c, 0, 89, 47
1, 59248, Note_on_c, 0, 42, 37
1, 59248, Control_c, 0, 64, 97
1, 59263, Control_c, 0, 64, 77
1, 59278, Control_c, 0, 64, 62
1, 59293, Control_c, 0, 64, 0
1, 59308, Control_c, 0, 64, 44
1, 59323, Control_c, 0, 64, 65
1, 59326, Note_on_c, 0, 82, 37
1, 59338, Control_c, 0, 64, 74
1, 59353, Control_c, 0, 64, 85
1, 59367, Control_c, 0, 64, 97
1, 59382, Control_c, 0, 64, 107
1, 59397, Control_c, 0, 64, 118
1, 59412, Control_c, 0, 64, 127
1, 59422, Note_on_c, 0, 88, 42
1, 59442, Note_off_c, 0, 82, 45
1, 59668, Note_on_c, 0, 97, 64
1, 59672, Note_off_c, 0, 88, 42
1, 59732, Note_off_c, 0, 97, 61
1, 59776, Note_off_c, 0, 42, 43
1, 60327, Note_on_c, 0, 49, 32
1, 60533, Note_off_c, 0, 49, 40
1, 60711, Note_on_c, 0, 52, 41
1, 60805, Note_off_c, 0, 52, 54
1, 61055, Note_on_c, 0, 58, 40
1, 61093, Note_off_c, 0, 58, 52
1, 61420, Note_on_c, 0, 64, 29
1, 61669, Note_off_c, 0, 64, 41
1, 61722, Note_on_c, 0, 66, 37
1, 61919, Note_off_c, 0, 66, 41
1, 62053, Note_on_c, 0, 70, 43
1, 62116, Note_off_c, 0, 70, 55
1, 62432, Note_on_c, 0, 76, 41
1, 62576, Note_off_c, 0, 76, 53
1, 62831, Note_on_c, 0, 78, 40
1, 62921, Note_off_c, 0, 78, 52
1, 63221, Note_on_c, 0, 85, 42
1, 63420, Note_off_c, 0, 85, 40
1, 63710, Note_on_c, 0, 88, 37
1, 63882, Note_off_c, 0, 88, 41
1, 64289, Note_on_c, 0, 90, 32
1, 64468, Note_off_c, 0, 90, 42
1, 65574, Note_on_c, 0, 97, 47
1, 65860, Note_off_c, 0, 97, 35
1, 67884, Control_c, 0, 64, 114
1, 67899, Control_c, 0, 64, 107
1, 67914, Control_c, 0, 64, 102
1, 67929, Control_c, 0, 64, 99
1, 67944, Control_c, 0, 64, 97
1, 67958, Control_c, 0, 64, 95
1, 67973, Control_c, 0, 64, 93
1, 67988, Control_c, 0, 64, 91
1, 68003, Control_c, 0, 64, 89
1, 68018, Control_c, 0, 64, 87
1, 68033, Control_c, 0, 64, 85
1, 68055, Control_c, 0, 64, 83
1, 68070, Control_c, 0, 64, 81
1, 68086, Control_c, 0, 64, 78
1, 68101, Control_c, 0, 64, 76
1, 68115, Control_c, 0, 64, 74
1, 68130, Control_c, 0, 64, 72
1, 68145, Control_c, 0, 64, 70
1, 68160, Control_c, 0, 64, 68
1, 68175, Control_c, 0, 64, 67
1, 68189, Control_c, 0, 64, 67
1, 68204, Control_c, 0, 64, 66
1, 68219, Control_c, 0, 64, 65
1, 68234, Control_c, 0, 64, 64
1, 68249, Control_c, 0, 64, 64
1, 68263, Control_c, 0, 64, 63
1, 68278, Control_c, 0, 64, 63
1, 68293, Control_c, 0, 64, 61
1, 68307, Control_c, 0, 64, 57
1, 68322, Control_c, 0, 64, 47
1, 68337, Control_c, 0, 64, 0
1, 68486, Control_c, 0, 64, 38
1, 68486, Control_c, 0, 67, 127
1, 68501, Control_c, 0, 64, 59
1, 68501, Control_c, 0, 67, 117
1, 68515, Control_c, 0, 64, 64
1, 68515, Control_c, 0, 67, 105
1, 68530, Control_c, 0, 64, 67
1, 68530, Control_c, 0, 67, 90
1, 68545, Control_c, 0, 64, 71
1, 68545, Control_c, 0, 67, 72
1, 68560, Control_c, 0, 64, 78
1, 68560, Control_c, 0, 67, 58
1, 68575, Control_c, 0, 64, 86
1, 68575, Control_c, 0, 67, 45
1, 68589, Control_c, 0, 64, 93
1, 68589, Control_c, 0, 67, 31
1, 68604, Control_c, 0, 64, 99
1, 68604, Control_c, 0, 67, 16
1, 68619, Control_c, 0, 64, 105
1, 68619, Control_c, 0, 67, 0
1, 68633, Control_c, 0, 64, 117
1, 68648, Control_c, 0, 64, 127
1, 68981, Note_on_c, 0, 42, 39
1, 69055, Note_on_c, 0, 61, 50
1, 69087, Note_off_c, 0, 61, 63
1, 69120, Note_on_c, 0, 63, 52
1, 69154, Note_off_c, 0, 63, 62
1, 69169, Note_on_c, 0, 61, 57
1, 69264, Control_c, 0, 64, 100
1, 69279, Control_c, 0, 64, 82
1, 69294, Control_c, 0, 64, 69
1, 69309, Control_c, 0, 64, 65
1, 69324, Control_c, 0, 64, 66
1, 69338, Control_c, 0, 64, 68
1, 69353, Control_c, 0, 64, 69
1, 69368, Control_c, 0, 64, 72
1, 69383, Control_c, 0, 64, 79
1, 69398, Control_c, 0, 64, 88
1, 69412, Control_c, 0, 64, 95
1, 69427, Control_c, 0, 64, 98
1, 69442, Control_c, 0, 64, 99
1, 69456, Control_c, 0, 64, 102
1, 69471, Control_c, 0, 64, 109
1, 69486, Control_c, 0, 64, 127
1, 69511, Note_on_c, 0, 59, 54
1, 69516, Note_on_c, 0, 52, 46
1, 69517, Note_off_c, 0, 61, 49
1, 69674, Note_off_c, 0, 52, 62
1, 69678, Note_off_c, 0, 42, 41
1, 69729, Note_off_c, 0, 59, 56
1, 69735, Note_on_c, 0, 61, 68
1, 69928, Note_on_c, 0, 63, 68
1, 69931, Note_on_c, 0, 59, 47
1, 69962, Note_off_c, 0, 61, 57
1, 70027, Note_off_c, 0, 59, 53
1, 70118, Note_on_c, 0, 61, 69
1, 70201, Note_off_c, 0, 63, 38
1, 70310, Note_on_c, 0, 56, 52
1, 70512, Note_on_c, 0, 63, 68
1, 70540, Note_off_c, 0, 61, 60
1, 70599, Control_c, 0, 64, 99
1, 70614, Control_c, 0, 64, 84
1, 70628, Control_c, 0, 64, 79
1, 70643, Control_c, 0, 64, 83
1, 70658, Control_c, 0, 64, 92
1, 70666, Note_on_c, 0, 64, 48
1, 70673, Control_c, 0, 64, 104
1, 70688, Control_c, 0, 64, 117
1, 70702, Control_c, 0, 64, 127
1, 70710, Note_on_c, 0, 61, 74
1, 70716, Note_off_c, 0, 64, 63
1, 70759, Note_off_c, 0, 63, 47
1, 70769, Note_off_c, 0, 56, 37
1, 70885, Note_on_c, 0, 59, 71
1, 70912, Note_off_c, 0, 61, 55
1, 70984, Note_off_c, 0, 59, 52
1, 71068, Note_on_c, 0, 61, 72
1, 71099, Note_on_c, 0, 59, 44
1, 71124, Control_c, 0, 64, 122
1, 71139, Control_c, 0, 64, 85
1, 71154, Control_c, 0, 64, 64
1, 71170, Control_c, 0, 64, 0
1, 71199, Control_c, 0, 64, 36
1, 71214, Control_c, 0, 64, 64
1, 71228, Control_c, 0, 64, 72
1, 71243, Control_c, 0, 64, 83
1, 71247, Note_off_c, 0, 59, 57
1, 71258, Control_c, 0, 64, 95
1, 71262, Note_on_c, 0, 63, 67
1, 71263, Note_off_c, 0, 61, 58
1, 71273, Control_c, 0, 64, 101
1, 71289, Control_c, 0, 64, 103
1, 71304, Control_c, 0, 64, 104
1, 71319, Control_c, 0, 64, 106
1, 71333, Control_c, 0, 64, 109
1, 71348, Control_c, 0, 64, 114
1, 71363, Control_c, 0, 64, 124
1, 71369, Note_on_c, 0, 56, 55
1, 71378, Control_c, 0, 64, 127
1, 71400, Note_off_c, 0, 56, 65
1, 71455, Note_off_c, 0, 63, 57
1, 71473, Note_on_c, 0, 59, 72
1, 71561, Note_off_c, 0, 59, 56
1, 71652, Note_on_c, 0, 61, 63
1, 71659, Control_c, 0, 64, 118
1, 71674, Control_c, 0, 64, 106
1, 71680, Note_off_c, 0, 61, 65
1, 71689, Control_c, 0, 64, 93
1, 71693, Note_on_c, 0, 62, 59
1, 71704, Control_c, 0, 64, 81
1, 71718, Control_c, 0, 64, 70
1, 71727, Note_off_c, 0, 62, 64
1, 71733, Control_c, 0, 64, 60
1, 71747, Note_on_c, 0, 42, 44
1, 71748, Control_c, 0, 64, 0
1, 71755, Note_on_c, 0, 61, 59
1, 72006, Note_off_c, 0, 61, 54
1, 72039, Note_on_c, 0, 59, 44
1, 72051, Note_on_c, 0, 52, 45
1, 72141, Control_c, 0, 64, 39
1, 72156, Control_c, 0, 64, 63
1, 72170, Control_c, 0, 64, 69
1, 72185, Control_c, 0, 64, 78
1, 72200, Control_c, 0, 64, 85
1, 72215, Control_c, 0, 64, 90
1, 72216, Note_off_c, 0, 59, 53
1, 72217, Note_off_c, 0, 52, 61
1, 72223, Note_on_c, 0, 61, 50
1, 72226, Note_off_c, 0, 42, 54
1, 72230, Control_c, 0, 64, 92
1, 72245, Control_c, 0, 64, 96
1, 72260, Control_c, 0, 64, 99
1, 72274, Control_c, 0, 64, 102
1, 72289, Control_c, 0, 64, 104
1, 72304, Control_c, 0, 64, 104
1, 72319, Control_c, 0, 64, 105
1, 72334, Control_c, 0, 64, 105
1, 72378, Control_c, 0, 64, 106
1, 72402, Note_off_c, 0, 61, 47
1, 72406, Note_on_c, 0, 62, 48
1, 72451, Note_on_c, 0, 59, 28
1, 72452, Control_c, 0, 64, 106
1, 72526, Control_c, 0, 64, 107
1, 72529, Note_off_c, 0, 59, 38
1, 72574, Note_off_c, 0, 62, 58
1, 72597, Note_on_c, 0, 61, 55
1, 72783, Note_on_c, 0, 55, 40
1, 72934, Control_c, 0, 64, 106
1, 72949, Control_c, 0, 64, 106
1, 72964, Control_c, 0, 64, 104
1, 72978, Control_c, 0, 64, 101
1, 72993, Control_c, 0, 64, 92
1, 72996, Note_on_c, 0, 62, 44
1, 73008, Control_c, 0, 64, 81
1, 73012, Note_off_c, 0, 61, 37
1, 73023, Control_c, 0, 64, 72
1, 73038, Control_c, 0, 64, 66
1, 73068, Control_c, 0, 64, 69
1, 73083, Control_c, 0, 64, 74
1, 73097, Control_c, 0, 64, 78
1, 73112, Control_c, 0, 64, 79
1, 73127, Control_c, 0, 64, 80
1, 73142, Control_c, 0, 64, 82
1, 73157, Control_c, 0, 64, 84
1, 73171, Control_c, 0, 64, 87
1, 73178, Note_off_c, 0, 62, 53
1, 73186, Control_c, 0, 64, 90
1, 73201, Control_c, 0, 64, 92
1, 73202, Note_on_c, 0, 61, 47
1, 73216, Control_c, 0, 64, 93
1, 73229, Note_on_c, 0, 64, 32
1, 73230, Control_c, 0, 64, 94
1, 73245, Control_c, 0, 64, 95
1, 73260, Control_c, 0, 64, 95
1, 73260, Control_c, 0, 67, 8
1, 73275, Control_c, 0, 64, 96
1, 73275, Control_c, 0, 67, 9
1, 73283, Note_off_c, 0, 64, 45
1, 73290, Control_c, 0, 67, 10
1, 73327, Control_c, 0, 67, 10
1, 73342, Control_c, 0, 67, 11
1, 73357, Control_c, 0, 64, 96
1, 73357, Control_c, 0, 67, 12
1, 73372, Control_c, 0, 67, 14
1, 73382, Note_off_c, 0, 61, 52
1, 73386, Control_c, 0, 67, 16
1, 73395, Note_on_c, 0, 59, 49
1, 73401, Control_c, 0, 67, 19
1, 73409, Note_off_c, 0, 55, 41
1, 73416, Control_c, 0, 67, 20
1, 73430, Control_c, 0, 67, 23
1, 73445, Control_c, 0, 67, 27
1, 73460, Control_c, 0, 67, 30
1, 73475, Control_c, 0, 67, 34
1, 73490, Control_c, 0, 67, 38
1, 73504, Control_c, 0, 67, 42
1, 73519, Control_c, 0, 67, 44
1, 73534, Control_c, 0, 67, 47
1, 73549, Control_c, 0, 67, 49
1, 73564, Control_c, 0, 67, 52
1, 73578, Control_c, 0, 67, 56
1, 73588, Note_off_c, 0, 59, 0
1, 73592, Note_on_c, 0, 61, 44
1, 73593, Control_c, 0, 64, 96
1, 73593, Control_c, 0, 67, 60
1, 73608, Control_c, 0, 64, 89
1, 73608, Control_c, 0, 67, 65
1, 73615, Note_on_c, 0, 59, 4
1, 73622, Control_c, 0, 64, 79
1, 73622, Control_c, 0, 67, 70
1, 73637, Control_c, 0, 64, 68
1, 73637, Control_c, 0, 67, 76
1, 73652, Control_c, 0, 64, 56
1, 73652, Control_c, 0, 67, 81
1, 73668, Control_c, 0, 64, 44
1, 73668, Control_c, 0, 67, 87
1, 73683, Control_c, 0, 64, 59
1, 73683, Control_c, 0, 67, 94
1, 73698, Control_c, 0, 64, 67
1, 73698, Control_c, 0, 67, 100
1, 73713, Control_c, 0, 64, 74
1, 73713, Control_c, 0, 67, 105
1, 73727, Control_c, 0, 64, 77
1, 73727, Control_c, 0, 67, 111
1, 73742, Control_c, 0, 64, 79
1, 73742, Control_c, 0, 67, 116
1, 73757, Control_c, 0, 64, 80
1, 73757, Control_c, 0, 67, 121
1, 73772, Control_c, 0, 64, 83
1, 73772, Control_c, 0, 67, 124
1, 73786, Note_on_c, 0, 62, 41
1, 73787, Control_c, 0, 64, 86
1, 73787, Control_c, 0, 67, 126
1, 73793, Note_off_c, 0, 59, 51
1, 73798, Note_off_c, 0, 61, 40
1, 73801, Control_c, 0, 64, 89
1, 73801, Control_c, 0, 67, 127
1, 73816, Control_c, 0, 64, 91
1, 73831, Control_c, 0, 64, 93
1, 73846, Control_c, 0, 64, 95
1, 73861, Control_c, 0, 64, 98
1, 73861, Control_c, 0, 67, 126
1, 73876, Control_c, 0, 64, 100
1, 73876, Control_c, 0, 67, 124
1, 73890, Control_c, 0, 64, 102
1, 73890, Control_c, 0, 67, 121
1, 73905, Control_c, 0, 64, 103
1, 73905, Control_c, 0, 67, 117
1, 73920, Control_c, 0, 64, 103
1, 73920, Control_c, 0, 67, 114
1, 73935, Control_c, 0, 64, 104
1, 73935, Control_c, 0, 67, 111
1, 73950, Control_c, 0, 64, 105
1, 73950, Control_c, 0, 67, 107
1, 73965, Control_c, 0, 64, 106
1, 73965, Control_c, 0, 67, 103
1, 73980, Control_c, 0, 64, 107
1, 73980, Control_c, 0, 67, 97
1, 73992, Note_off_c, 0, 62, 32
1, 73994, Control_c, 0, 67, 89
1, 74009, Control_c, 0, 67, 80
1, 74013, Note_on_c, 0, 59, 34
1, 74024, Control_c, 0, 67, 69
1, 74029, Note_on_c, 0, 55, 43
1, 74039, Control_c, 0, 67, 60
1, 74060, Control_c, 0, 67, 50
1, 74075, Control_c, 0, 67, 42
1, 74090, Control_c, 0, 67, 34
1, 74105, Control_c, 0, 67, 27
1, 74120, Control_c, 0, 67, 19
1, 74124, Note_off_c, 0, 59, 49
1, 74126, Note_off_c, 0, 55, 51
1, 74135, Control_c, 0, 67, 11
1, 74150, Control_c, 0, 67, 0
1, 74326, Control_c, 0, 64, 106
1, 74341, Control_c, 0, 64, 106
1, 74356, Control_c, 0, 64, 105
1, 74358, Note_on_c, 0, 42, 34
1, 74364, Note_on_c, 0, 62, 38
1, 74367, Note_on_c, 0, 59, 28
1, 74370, Note_on_c, 0, 55, 31
1, 74370, Control_c, 0, 64, 104
1, 74385, Control_c, 0, 64, 101
1, 74400, Note_on_c, 0, 52, 16
1, 74400, Control_c, 0, 64, 92
1, 74415, Control_c, 0, 64, 80
1, 74430, Control_c, 0, 64, 66
1, 74445, Control_c, 0, 64, 42
1, 74460, Control_c, 0, 64, 30
1, 74475, Control_c, 0, 64, 59
1, 74490, Control_c, 0, 64, 68
1, 74505, Control_c, 0, 64, 76
1, 74520, Control_c, 0, 64, 82
1, 74535, Control_c, 0, 64, 85
1, 74549, Control_c, 0, 64, 86
1, 74564, Control_c, 0, 64, 89
1, 74579, Control_c, 0, 64, 92
1, 74594, Control_c, 0, 64, 94
1, 74601, Note_off_c, 0, 52, 37
1, 74609, Control_c, 0, 64, 96
1, 74624, Control_c, 0, 64, 97
1, 74639, Control_c, 0, 64, 98
1, 74654, Control_c, 0, 64, 99
1, 74668, Control_c, 0, 64, 100
1, 74681, Note_off_c, 0, 62, 35
1, 74683, Control_c, 0, 64, 101
1, 74713, Note_on_c, 0, 61, 38
1, 74713, Control_c, 0, 64, 102
1, 74742, Control_c, 0, 64, 102
1, 74757, Control_c, 0, 64, 103
1, 74771, Note_off_c, 0, 55, 40
1, 74772, Control_c, 0, 64, 103
1, 74794, Control_c, 0, 64, 104
1, 74822, Note_off_c, 0, 59, 28
1, 74841, Note_off_c, 0, 61, 35
1, 74912, Note_on_c, 0, 52, 44
1, 74919, Note_on_c, 0, 55, 33
1, 74947, Note_on_c, 0, 62, 31
1, 75101, Note_off_c, 0, 62, 42
1, 75104, Note_on_c, 0, 61, 46
1, 75120, Control_c, 0, 64, 104
1, 75128, Note_off_c, 0, 52, 32
1, 75160, Note_off_c, 0, 55, 41
1, 75179, Control_c, 0, 64, 105
1, 75238, Control_c, 0, 64, 105
1, 75250, Note_off_c, 0, 61, 35
1, 75268, Note_on_c, 0, 59, 44
1, 75269, Control_c, 0, 64, 106
1, 75271, Note_on_c, 0, 62, 50
1, 75279, Note_on_c, 0, 55, 48
1, 75298, Control_c, 0, 64, 106
1, 75328, Control_c, 0, 64, 107
1, 75358, Control_c, 0, 64, 107
1, 75387, Control_c, 0, 64, 108
1, 75402, Control_c, 0, 64, 109
1, 75432, Control_c, 0, 64, 109
1, 75433, Note_on_c, 0, 61, 63
1, 75488, Note_off_c, 0, 62, 36
1, 75488, Note_off_c, 0, 55, 53
1, 75521, Control_c, 0, 64, 110
1, 75593, Note_on_c, 0, 52, 48
1, 75613, Note_on_c, 0, 55, 58
1, 75613, Note_on_c, 0, 62, 63
1, 75616, Note_off_c, 0, 61, 36
1, 75661, Note_off_c, 0, 59, 40
1, 75676, Control_c, 0, 64, 110
1, 75752, Note_on_c, 0, 61, 66
1, 75753, Note_off_c, 0, 62, 50
1, 75765, Control_c, 0, 64, 111
1, 75795, Control_c, 0, 64, 111
1, 75797, Note_on_c, 0, 59, 41
1, 75824, Control_c, 0, 64, 112
1, 75828, Note_off_c, 0, 55, 57
1, 75847, Note_off_c, 0, 52, 52
1, 75851, Note_off_c, 0, 59, 44
1, 75869, Control_c, 0, 64, 112
1, 75898, Control_c, 0, 64, 113
1, 75914, Note_off_c, 0, 61, 37
1, 75928, Control_c, 0, 64, 113
1, 75937, Note_on_c, 0, 62, 60
1, 75943, Control_c, 0, 64, 114
1, 75944, Note_on_c, 0, 55, 58
1, 75958, Note_on_c, 0, 59, 40
1, 75958, Control_c, 0, 64, 114
1, 76024, Note_off_c, 0, 59, 39
1, 76061, Note_off_c, 0, 62, 50
1, 76099, Note_on_c, 0, 61, 57
1, 76129, Note_off_c, 0, 55, 24
1, 76182, Note_off_c, 0, 61, 36
1, 76210, Control_c, 0, 64, 114
1, 76225, Control_c, 0, 64, 112
1, 76239, Control_c, 0, 64, 102
1, 76254, Control_c, 0, 64, 87
1, 76269, Control_c, 0, 64, 73
1, 76275, Note_on_c, 0, 52, 40
1, 76292, Control_c, 0, 64, 63
1, 76294, Note_on_c, 0, 62, 48
1, 76302, Note_on_c, 0, 55, 35
1, 76307, Control_c, 0, 64, 62
1, 76310, Note_on_c, 0, 59, 29
1, 76321, Control_c, 0, 64, 67
1, 76336, Control_c, 0, 64, 75
1, 76351, Control_c, 0, 64, 83
1, 76366, Control_c, 0, 64, 90
1, 76381, Control_c, 0, 64, 94
1, 76382, Note_off_c, 0, 42, 46
1, 76388, Note_off_c, 0, 59, 35
1, 76395, Control_c, 0, 64, 97
1, 76409, Note_off_c, 0, 52, 59
1, 76410, Control_c, 0, 64, 100
1, 76425, Control_c, 0, 64, 104
1, 76439, Control_c, 0, 64, 107
1, 76454, Control_c, 0, 64, 109
1, 76467, Note_on_c, 0, 61, 54
1, 76467, Note_off_c, 0, 62, 33
1, 76469, Control_c, 0, 64, 111
1, 76484, Control_c, 0, 64, 114
1, 76499, Control_c, 0, 64, 119
1, 76509, Note_off_c, 0, 61, 58
1, 76514, Control_c, 0, 64, 124
1, 76529, Control_c, 0, 64, 127
1, 76546, Note_off_c, 0, 55, 15
1, 76648, Note_on_c, 0, 54, 37
1, 76659, Note_on_c, 0, 59, 42
1, 76711, Note_on_c, 0, 64, 61
1, 76731, Note_on_c, 0, 55, 34
1, 76766, Note_off_c, 0, 55, 46
1, 76772, Note_off_c, 0, 64, 59
1, 76817, Poly_aftertouch_c, 0, 62, 0
1, 76916, Note_on_c, 0, 61, 43
1, 76963, Note_off_c, 0, 59, 34
1, 77067, Note_off_c, 0, 61, 33
1, 77115, Control_c, 0, 67, 8
1, 77130, Control_c, 0, 67, 10
1, 77140, Note_on_c, 0, 71, 57
1, 77144, Control_c, 0, 67, 13
1, 77159, Control_c, 0, 67, 17
1, 77174, Control_c, 0, 67, 23
1, 77189, Control_c, 0, 67, 29
1, 77203, Control_c, 0, 67, 37
1, 77206, Note_off_c, 0, 71, 60
1, 77216, Note_off_c, 0, 54, 38
1, 77218, Control_c, 0, 67, 47
1, 77220, Poly_aftertouch_c, 0, 62, 127
1, 77233, Control_c, 0, 67, 56
1, 77248, Control_c, 0, 67, 67
1, 77250, Poly_aftertouch_c, 0, 67, 0
1, 77263, Poly_aftertouch_c, 0, 62, 0
1, 77263, Control_c, 0, 67, 79
1, 77277, Control_c, 0, 67, 94
1, 77292, Control_c, 0, 67, 108
1, 77307, Control_c, 0, 67, 123
1, 77322, Control_c, 0, 67, 127
1, 77357, Note_on_c, 0, 61, 46
1, 77423, Note_off_c, 0, 61, 47
1, 77581, Note_on_c, 0, 64, 53
1, 77584, Note_on_c, 0, 54, 35
1, 77606, Note_on_c, 0, 59, 32
1, 77610, Note_on_c, 0, 55, 34
1, 77645, Note_off_c, 0, 55, 52
1, 77655, Note_off_c, 0, 64, 61
1, 77865, Note_on_c, 0, 61, 44
1, 77955, Note_off_c, 0, 61, 36
1, 78036, Note_off_c, 0, 59, 21
1, 78132, Note_on_c, 0, 71, 55
1, 78180, Note_off_c, 0, 71, 58
1, 78213, Poly_aftertouch_c, 0, 62, 127
1, 78249, Poly_aftertouch_c, 0, 62, 0
1, 78273, Note_off_c, 0, 54, 32
1, 78410, Note_on_c, 0, 61, 41
1, 78486, Note_off_c, 0, 61, 40
1, 78717, Note_on_c, 0, 54, 29
1, 78731, Note_on_c, 0, 64, 44
1, 78749, Note_on_c, 0, 59, 20
1, 78767, Note_on_c, 0, 55, 31
1, 78861, Note_off_c, 0, 55, 38
1, 78863, Note_off_c, 0, 64, 54
1, 79119, Note_on_c, 0, 61, 30
1, 79174, Note_off_c, 0, 61, 45
1, 79643, Note_on_c, 0, 71, 42
1, 79667, Note_on_c, 0, 62, 32
1, 79668, Note_on_c, 0, 67, 34
1, 79671, Note_on_c, 0, 64, 28
1, 80426, Poly_aftertouch_c, 0, 61, 127
1, 80596, Note_off_c, 0, 59, 33
1, 80638, Poly_aftertouch_c, 0, 61, 0
1, 80792, Note_on_c, 0, 61, 18
1, 80901, Note_off_c, 0, 62, 35
1, 80921, Note_off_c, 0, 54, 42
1, 80949, Note_off_c, 0, 61, 39
1, 80971, Note_off_c, 0, 71, 36
1, 80980, Note_off_c, 0, 64, 37
1, 81043, Note_off_c, 0, 67, 34
1, 82450, Note_on_c, 0, 49, 48
1, 82475, Control_c, 0, 64, 110
1, 82490, Control_c, 0, 64, 98
1, 82494, Note_on_c, 0, 42, 33
1, 82505, Control_c, 0, 64, 86
1, 82520, Control_c, 0, 64, 73
1, 82535, Control_c, 0, 64, 63
1, 82550, Control_c, 0, 64, 21
1, 82564, Control_c, 0, 64, 0
1, 82608, Control_c, 0, 64, 30
1, 82623, Control_c, 0, 64, 58
1, 82638, Control_c, 0, 64, 65
1, 82653, Control_c, 0, 64, 70
1, 82668, Control_c, 0, 64, 76
1, 82682, Control_c, 0, 64, 80
1, 82697, Control_c, 0, 64, 85
1, 82712, Control_c, 0, 64, 90
1, 82727, Control_c, 0, 64, 94
1, 82742, Control_c, 0, 64, 98
1, 82756, Control_c, 0, 64, 101
1, 82771, Control_c, 0, 64, 105
1, 82786, Control_c, 0, 64, 110
1, 82801, Control_c, 0, 64, 118
1, 82815, Control_c, 0, 64, 127
1, 82956, Note_on_c, 0, 75, 32
1, 83249, Note_on_c, 0, 51, 48
1, 83289, Note_on_c, 0, 68, 35
1, 83313, Control_c, 0, 64, 114
1, 83328, Control_c, 0, 64, 98
1, 83334, Note_off_c, 0, 49, 35
1, 83343, Control_c, 0, 64, 84
1, 83357, Control_c, 0, 64, 72
1, 83372, Control_c, 0, 64, 63
1, 83387, Control_c, 0, 64, 62
1, 83402, Control_c, 0, 64, 65
1, 83417, Control_c, 0, 64, 71
1, 83431, Control_c, 0, 64, 76
1, 83446, Control_c, 0, 64, 79
1, 83461, Control_c, 0, 64, 81
1, 83476, Control_c, 0, 64, 83
1, 83491, Control_c, 0, 64, 86
1, 83506, Control_c, 0, 64, 88
1, 83520, Control_c, 0, 64, 92
1, 83522, Note_on_c, 0, 73, 39
1, 83535, Control_c, 0, 64, 96
1, 83550, Control_c, 0, 64, 100
1, 83564, Control_c, 0, 64, 105
1, 83579, Control_c, 0, 64, 107
1, 83594, Control_c, 0, 64, 109
1, 83609, Control_c, 0, 64, 110
1, 83638, Control_c, 0, 64, 111
1, 83668, Control_c, 0, 64, 112
1, 83683, Control_c, 0, 64, 112
1, 83698, Control_c, 0, 64, 113
1, 83785, Note_off_c, 0, 68, 42
1, 83799, Note_on_c, 0, 70, 33
1, 83809, Control_c, 0, 64, 113
1, 83868, Note_off_c, 0, 75, 43
1, 84042, Note_on_c, 0, 52, 49
1, 84090, Note_off_c, 0, 51, 59
1, 84131, Note_off_c, 0, 70, 39
1, 84162, Note_off_c, 0, 73, 40
1, 84270, Control_c, 0, 64, 113
1, 84336, Note_on_c, 0, 54, 60
1, 84340, Note_off_c, 0, 52, 59
1, 84344, Control_c, 0, 64, 112
1, 84359, Control_c, 0, 64, 109
1, 84374, Control_c, 0, 64, 99
1, 84388, Control_c, 0, 64, 85
1, 84403, Control_c, 0, 64, 72
1, 84418, Control_c, 0, 64, 58
1, 84433, Control_c, 0, 64, 48
1, 84448, Control_c, 0, 64, 59
1, 84462, Control_c, 0, 64, 67
1, 84477, Control_c, 0, 64, 74
1, 84492, Control_c, 0, 64, 81
1, 84507, Control_c, 0, 64, 87
1, 84522, Control_c, 0, 64, 89
1, 84535, Note_off_c, 0, 54, 59
1, 84544, Control_c, 0, 64, 91
1, 84559, Control_c, 0, 64, 93
1, 84574, Control_c, 0, 64, 96
1, 84576, Note_on_c, 0, 76, 43
1, 84588, Control_c, 0, 64, 100
1, 84603, Control_c, 0, 64, 105
1, 84618, Control_c, 0, 64, 110
1, 84633, Control_c, 0, 64, 114
1, 84648, Control_c, 0, 64, 117
1, 84648, Control_c, 0, 67, 121
1, 84662, Control_c, 0, 64, 118
1, 84662, Control_c, 0, 67, 112
1, 84677, Control_c, 0, 64, 118
1, 84677, Control_c, 0, 67, 101
1, 84692, Control_c, 0, 64, 119
1, 84692, Control_c, 0, 67, 90
1, 84707, Control_c, 0, 64, 119
1, 84707, Control_c, 0, 67, 78
1, 84722, Control_c, 0, 64, 120
1, 84722, Control_c, 0, 67, 70
1, 84736, Control_c, 0, 64, 121
1, 84736, Control_c, 0, 67, 61
1, 84751, Control_c, 0, 67, 52
1, 84766, Control_c, 0, 67, 42
1, 84780, Control_c, 0, 67, 33
1, 84795, Control_c, 0, 64, 120
1, 84795, Control_c, 0, 67, 24
1, 84810, Control_c, 0, 67, 18
1, 84825, Control_c, 0, 67, 12
1, 84836, Note_on_c, 0, 56, 54
1, 84840, Control_c, 0, 67, 0
1, 84856, Control_c, 0, 64, 118
1, 84857, Note_on_c, 0, 70, 42
1, 84871, Control_c, 0, 64, 116
1, 84885, Control_c, 0, 64, 114
1, 84900, Control_c, 0, 64, 111
1, 84915, Control_c, 0, 64, 107
1, 84930, Control_c, 0, 64, 100
1, 84945, Control_c, 0, 64, 93
1, 84959, Control_c, 0, 64, 84
1, 84974, Control_c, 0, 64, 75
1, 84989, Control_c, 0, 64, 59
1, 85003, Control_c, 0, 64, 0
1, 85078, Control_c, 0, 64, 64
1, 85080, Note_on_c, 0, 73, 37
1, 85093, Control_c, 0, 64, 71
1, 85108, Control_c, 0, 64, 75
1, 85122, Control_c, 0, 64, 78
1, 85137, Control_c, 0, 64, 79
1, 85140, Note_off_c, 0, 70, 40
1, 85152, Control_c, 0, 64, 82
1, 85167, Control_c, 0, 64, 85
1, 85182, Control_c, 0, 64, 89
1, 85197, Control_c, 0, 64, 93
1, 85211, Control_c, 0, 64, 97
1, 85218, Note_off_c, 0, 42, 41
1, 85226, Control_c, 0, 64, 101
1, 85241, Control_c, 0, 64, 105
1, 85256, Control_c, 0, 64, 109
1, 85271, Control_c, 0, 64, 114
1, 85292, Control_c, 0, 64, 119
1, 85307, Control_c, 0, 64, 126
1, 85322, Control_c, 0, 64, 127
1, 85386, Note_on_c, 0, 66, 37
1, 85699, Note_on_c, 0, 58, 52
1, 85728, Note_off_c, 0, 58, 64
1, 85780, Note_off_c, 0, 56, 39
1, 85878, Note_off_c, 0, 66, 43
1, 85884, Note_off_c, 0, 76, 55
1, 85898, Note_off_c, 0, 73, 42
1, 85988, Note_on_c, 0, 42, 43
1, 86041, Control_c, 0, 64, 122
1, 86056, Control_c, 0, 64, 95
1, 86071, Control_c, 0, 64, 79
1, 86086, Control_c, 0, 64, 67
1, 86101, Control_c, 0, 64, 63
1, 86115, Control_c, 0, 64, 65
1, 86122, Note_on_c, 0, 56, 51
1, 86130, Control_c, 0, 64, 72
1, 86145, Note_off_c, 0, 42, 53
1, 86145, Control_c, 0, 64, 81
1, 86160, Control_c, 0, 64, 89
1, 86175, Control_c, 0, 64, 95
1, 86190, Control_c, 0, 64, 98
1, 86205, Control_c, 0, 64, 100
1, 86219, Control_c, 0, 64, 102
1, 86234, Control_c, 0, 64, 106
1, 86249, Control_c, 0, 64, 110
1, 86264, Control_c, 0, 64, 118
1, 86279, Control_c, 0, 64, 127
1, 86383, Note_off_c, 0, 56, 36
1, 86398, Note_on_c, 0, 58, 43
1, 86441, Note_off_c, 0, 58, 51
1, 86473, Note_on_c, 0, 83, 42
1, 86524, Note_on_c, 0, 56, 48
1, 86649, Note_off_c, 0, 56, 59
1, 86678, Note_on_c, 0, 54, 49
1, 86723, Control_c, 0, 64, 126
1, 86726, Note_on_c, 0, 75, 37
1, 86738, Control_c, 0, 64, 118
1, 86744, Note_off_c, 0, 83, 42
1, 86753, Control_c, 0, 64, 113
1, 86775, Control_c, 0, 64, 110
1, 86790, Control_c, 0, 64, 103
1, 86805, Control_c, 0, 64, 97
1, 86820, Control_c, 0, 64, 91
1, 86835, Control_c, 0, 64, 86
1, 86849, Control_c, 0, 64, 81
1, 86864, Control_c, 0, 64, 77
1, 86879, Control_c, 0, 64, 71
1, 86893, Control_c, 0, 64, 62
1, 86908, Control_c, 0, 64, 24
1, 86914, Note_off_c, 0, 75, 55
1, 86923, Control_c, 0, 64, 0
1, 86944, Note_on_c, 0, 80, 34
1, 86963, Note_on_c, 0, 42, 13
1, 86968, Control_c, 0, 64, 28
1, 86982, Control_c, 0, 64, 64
1, 86997, Control_c, 0, 64, 72
1, 87012, Control_c, 0, 64, 79
1, 87027, Control_c, 0, 64, 85
1, 87042, Control_c, 0, 64, 89
1, 87056, Control_c, 0, 64, 92
1, 87071, Control_c, 0, 64, 97
1, 87086, Control_c, 0, 64, 104
1, 87086, Control_c, 0, 67, 8
1, 87100, Control_c, 0, 64, 112
1, 87100, Control_c, 0, 67, 15
1, 87115, Control_c, 0, 64, 127
1, 87115, Control_c, 0, 67, 25
1, 87130, Control_c, 0, 67, 38
1, 87145, Control_c, 0, 67, 51
1, 87160, Control_c, 0, 67, 63
1, 87174, Control_c, 0, 67, 76
1, 87181, Note_on_c, 0, 73, 44
1, 87181, Note_off_c, 0, 80, 45
1, 87189, Control_c, 0, 67, 93
1, 87191, Note_off_c, 0, 42, 43
1, 87204, Control_c, 0, 67, 110
1, 87219, Control_c, 0, 67, 126
1, 87234, Control_c, 0, 67, 127
1, 87246, Note_off_c, 0, 54, 57
1, 87251, Note_off_c, 0, 73, 49
1, 87418, Note_on_c, 0, 66, 35
1, 87471, Note_off_c, 0, 66, 45
1, 87682, Note_on_c, 0, 63, 55
1, 87767, Note_off_c, 0, 63, 54
1, 87930, Note_on_c, 0, 78, 37
1, 88112, Note_off_c, 0, 78, 44
1, 88159, Note_on_c, 0, 73, 37
1, 88390, Note_off_c, 0, 73, 46
1, 88408, Note_on_c, 0, 78, 39
1, 88650, Note_on_c, 0, 71, 36
1, 88670, Note_on_c, 0, 68, 37
1, 88726, Note_off_c, 0, 71, 51
1, 88851, Note_off_c, 0, 78, 43
1, 88978, Note_on_c, 0, 66, 19
1, 89096, Control_c, 0, 67, 124
1, 89111, Control_c, 0, 67, 117
1, 89125, Control_c, 0, 67, 110
1, 89129, Note_off_c, 0, 66, 42
1, 89139, Control_c, 0, 67, 102
1, 89147, Note_on_c, 0, 42, 31
1, 89154, Control_c, 0, 67, 94
1, 89169, Control_c, 0, 67, 86
1, 89183, Control_c, 0, 67, 79
1, 89198, Control_c, 0, 67, 70
1, 89209, Note_off_c, 0, 68, 31
1, 89213, Control_c, 0, 67, 62
1, 89228, Control_c, 0, 67, 54
1, 89243, Control_c, 0, 67, 47
1, 89257, Control_c, 0, 67, 42
1, 89272, Control_c, 0, 67, 38
1, 89287, Control_c, 0, 67, 34
1, 89302, Control_c, 0, 67, 31
1, 89317, Control_c, 0, 67, 29
1, 89331, Control_c, 0, 67, 28
1, 89346, Control_c, 0, 67, 27
1, 89361, Control_c, 0, 67, 27
1, 89364, Note_on_c, 0, 54, 56
1, 89376, Control_c, 0, 64, 111
1, 89391, Control_c, 0, 64, 92
1, 89391, Control_c, 0, 67, 26
1, 89406, Control_c, 0, 64, 80
1, 89406, Control_c, 0, 67, 23
1, 89421, Control_c, 0, 64, 72
1, 89421, Control_c, 0, 67, 20
1, 89436, Control_c, 0, 64, 67
1, 89436, Control_c, 0, 67, 16
1, 89450, Control_c, 0, 64, 68
1, 89450, Control_c, 0, 67, 11
1, 89465, Control_c, 0, 64, 74
1, 89465, Control_c, 0, 67, 0
1, 89480, Control_c, 0, 64, 82
1, 89494, Control_c, 0, 64, 88
1, 89509, Control_c, 0, 64, 91
1, 89524, Control_c, 0, 64, 93
1, 89539, Control_c, 0, 64, 97
1, 89554, Control_c, 0, 64, 102
1, 89562, Note_off_c, 0, 42, 42
1, 89568, Control_c, 0, 64, 107
1, 89583, Control_c, 0, 64, 112
1, 89598, Control_c, 0, 64, 122
1, 89613, Control_c, 0, 64, 127
1, 89718, Note_on_c, 0, 75, 38
1, 89957, Note_on_c, 0, 56, 60
1, 89990, Note_on_c, 0, 71, 41
1, 90008, Note_off_c, 0, 75, 42
1, 90022, Note_off_c, 0, 54, 53
1, 90200, Note_on_c, 0, 73, 48
1, 90271, Note_off_c, 0, 71, 32
1, 90425, Note_on_c, 0, 66, 38
1, 90658, Note_on_c, 0, 58, 57
1, 90701, Poly_aftertouch_c, 0, 63, 127
1, 90703, Note_off_c, 0, 66, 42
1, 90706, Note_off_c, 0, 73, 56
1, 90744, Poly_aftertouch_c, 0, 63, 0
1, 90906, Note_on_c, 0, 59, 64
1, 90958, Note_off_c, 0, 58, 39
1, 90963, Control_c, 0, 64, 109
1, 90978, Control_c, 0, 64, 84
1, 90993, Control_c, 0, 64, 69
1, 91008, Control_c, 0, 64, 56
1, 91016, Note_off_c, 0, 56, 44
1, 91022, Control_c, 0, 64, 38
1, 91037, Control_c, 0, 64, 46
1, 91052, Control_c, 0, 64, 61
1, 91067, Control_c, 0, 64, 70
1, 91082, Control_c, 0, 64, 79
1, 91096, Control_c, 0, 64, 87
1, 91111, Control_c, 0, 64, 94
1, 91126, Control_c, 0, 64, 97
1, 91141, Control_c, 0, 64, 100
1, 91148, Note_on_c, 0, 78, 45
1, 91156, Control_c, 0, 64, 106
1, 91171, Control_c, 0, 64, 115
1, 91186, Control_c, 0, 64, 127
1, 91221, Note_off_c, 0, 78, 0
1, 91221, Note_on_c, 0, 78, 4
1, 91373, Note_on_c, 0, 58, 57
1, 91385, Note_off_c, 0, 78, 43
1, 91416, Note_off_c, 0, 59, 55
1, 91423, Note_on_c, 0, 73, 39
1, 91579, Control_c, 0, 64, 104
1, 91594, Control_c, 0, 64, 85
1, 91609, Control_c, 0, 64, 72
1, 91621, Note_off_c, 0, 73, 51
1, 91624, Note_on_c, 0, 75, 46
1, 91624, Control_c, 0, 64, 63
1, 91638, Control_c, 0, 64, 58
1, 91653, Control_c, 0, 64, 62
1, 91668, Control_c, 0, 64, 66
1, 91683, Control_c, 0, 64, 72
1, 91697, Control_c, 0, 64, 78
1, 91712, Control_c, 0, 64, 83
1, 91727, Control_c, 0, 64, 87
1, 91742, Control_c, 0, 64, 91
1, 91757, Control_c, 0, 64, 96
1, 91771, Control_c, 0, 64, 102
1, 91786, Control_c, 0, 64, 107
1, 91801, Control_c, 0, 64, 114
1, 91816, Control_c, 0, 64, 127
1, 91870, Note_on_c, 0, 66, 40
1, 92181, Note_on_c, 0, 56, 55
1, 92217, Note_off_c, 0, 58, 55
1, 92245, Note_on_c, 0, 63, 22
1, 92271, Note_off_c, 0, 66, 35
1, 92292, Note_off_c, 0, 63, 49
1, 92298, Note_off_c, 0, 56, 63
1, 92337, Note_off_c, 0, 75, 43
1, 92600, Note_on_c, 0, 56, 44
1, 92605, Note_on_c, 0, 49, 39
1, 92654, Control_c, 0, 64, 114
1, 92668, Control_c, 0, 64, 91
1, 92683, Control_c, 0, 64, 75
1, 92698, Control_c, 0, 64, 65
1, 92712, Control_c, 0, 64, 63
1, 92727, Control_c, 0, 64, 66
1, 92742, Control_c, 0, 64, 71
1, 92757, Control_c, 0, 64, 77
1, 92780, Control_c, 0, 64, 81
1, 92809, Control_c, 0, 64, 80
1, 92810, Note_off_c, 0, 56, 49
1, 92813, Note_on_c, 0, 58, 43
1, 92839, Control_c, 0, 64, 80
1, 92855, Control_c, 0, 64, 79
1, 92870, Control_c, 0, 64, 79
1, 92882, Note_on_c, 0, 76, 46
1, 92884, Control_c, 0, 64, 77
1, 92898, Control_c, 0, 64, 76
1, 92913, Control_c, 0, 64, 75
1, 92928, Control_c, 0, 64, 74
1, 92937, Note_on_c, 0, 56, 53
1, 92942, Note_off_c, 0, 58, 49
1, 92942, Control_c, 0, 64, 72
1, 92957, Control_c, 0, 64, 70
1, 92972, Control_c, 0, 64, 67
1, 92987, Control_c, 0, 64, 65
1, 93002, Control_c, 0, 64, 63
1, 93016, Control_c, 0, 64, 59
1, 93031, Control_c, 0, 64, 49
1, 93046, Control_c, 0, 64, 0
1, 93088, Note_off_c, 0, 56, 59
1, 93122, Note_on_c, 0, 54, 43
1, 93124, Note_on_c, 0, 70, 36
1, 93172, Note_off_c, 0, 49, 49
1, 93224, Control_c, 0, 64, 61
1, 93239, Control_c, 0, 64, 68
1, 93254, Control_c, 0, 64, 73
1, 93269, Control_c, 0, 64, 76
1, 93283, Control_c, 0, 64, 78
1, 93298, Control_c, 0, 64, 83
1, 93313, Control_c, 0, 64, 88
1, 93328, Control_c, 0, 64, 95
1, 93342, Control_c, 0, 64, 103
1, 93357, Control_c, 0, 64, 112
1, 93372, Control_c, 0, 64, 127
1, 93374, Note_on_c, 0, 73, 42
1, 93409, Note_off_c, 0, 70, 33
1, 93542, Control_c, 0, 67, 11
1, 93557, Control_c, 0, 67, 15
1, 93572, Control_c, 0, 67, 21
1, 93587, Control_c, 0, 67, 28
1, 93588, Note_on_c, 0, 66, 32
1, 93602, Control_c, 0, 67, 32
1, 93616, Control_c, 0, 67, 37
1, 93632, Control_c, 0, 67, 42
1, 93648, Control_c, 0, 67, 48
1, 93656, Note_off_c, 0, 76, 32
1, 93663, Control_c, 0, 67, 54
1, 93678, Control_c, 0, 67, 60
1, 93693, Control_c, 0, 67, 67
1, 93707, Control_c, 0, 67, 73
1, 93722, Control_c, 0, 67, 79
1, 93737, Control_c, 0, 67, 86
1, 93752, Control_c, 0, 67, 94
1, 93766, Control_c, 0, 67, 103
1, 93781, Control_c, 0, 67, 114
1, 93796, Control_c, 0, 67, 125
1, 93811, Control_c, 0, 67, 127
1, 93854, Note_on_c, 0, 64, 13
1, 93877, Note_off_c, 0, 73, 43
1, 93878, Note_off_c, 0, 66, 42
1, 93901, Note_off_c, 0, 64, 55
1, 94047, Note_on_c, 0, 64, 36
1, 94095, Note_off_c, 0, 54, 37
1, 94210, Note_off_c, 0, 64, 44
1, 94282, Note_on_c, 0, 85, 50
1, 94469, Note_off_c, 0, 85, 47
1, 94505, Note_on_c, 0, 80, 37
1, 94699, Note_off_c, 0, 80, 43
1, 94730, Note_on_c, 0, 83, 36
1, 94860, Note_off_c, 0, 83, 47
1, 94986, Note_on_c, 0, 73, 27
1, 94995, Note_on_c, 0, 71, 34
1, 95071, Note_off_c, 0, 71, 57
1, 95263, Note_on_c, 0, 68, 38
1, 95287, Note_off_c, 0, 73, 43
1, 95457, Control_c, 0, 67, 119
1, 95472, Control_c, 0, 67, 107
1, 95486, Control_c, 0, 67, 90
1, 95501, Control_c, 0, 67, 75
1, 95516, Control_c, 0, 67, 60
1, 95531, Control_c, 0, 67, 48
1, 95545, Control_c, 0, 67, 38
1, 95560, Control_c, 0, 67, 28
1, 95575, Control_c, 0, 67, 16
1, 95590, Control_c, 0, 67, 0
1, 95632, Note_off_c, 0, 68, 54
1, 95635, Note_on_c, 0, 49, 48
1, 95664, Control_c, 0, 64, 94
1, 95670, Note_on_c, 0, 42, 35
1, 95679, Control_c, 0, 64, 78
1, 95693, Control_c, 0, 64, 66
1, 95708, Control_c, 0, 64, 61
1, 95723, Control_c, 0, 64, 64
1, 95737, Control_c, 0, 64, 70
1, 95752, Control_c, 0, 64, 78
1, 95775, Control_c, 0, 64, 85
1, 95790, Control_c, 0, 64, 90
1, 95805, Control_c, 0, 64, 94
1, 95819, Control_c, 0, 64, 101
1, 95834, Control_c, 0, 64, 119
1, 95849, Control_c, 0, 64, 127
1, 96003, Note_on_c, 0, 75, 38
1, 96230, Note_on_c, 0, 51, 57
1, 96261, Note_off_c, 0, 49, 53
1, 96265, Note_on_c, 0, 68, 30
1, 96466, Note_on_c, 0, 73, 46
1, 96585, Note_off_c, 0, 68, 41
1, 96700, Note_on_c, 0, 70, 41
1, 96756, Note_off_c, 0, 75, 44
1, 96897, Note_on_c, 0, 52, 59
1, 96930, Note_off_c, 0, 51, 60
1, 96954, Poly_aftertouch_c, 0, 61, 127
1, 96984, Note_off_c, 0, 70, 40
1, 96998, Note_off_c, 0, 73, 35
1, 97000, Poly_aftertouch_c, 0, 61, 0
1, 97153, Note_on_c, 0, 54, 69
1, 97162, Control_c, 0, 64, 101
1, 97177, Control_c, 0, 64, 83
1, 97192, Control_c, 0, 64, 71
1, 97206, Note_off_c, 0, 52, 59
1, 97207, Control_c, 0, 64, 65
1, 97222, Control_c, 0, 64, 64
1, 97237, Control_c, 0, 64, 68
1, 97252, Control_c, 0, 64, 78
1, 97273, Control_c, 0, 64, 88
1, 97288, Control_c, 0, 64, 95
1, 97303, Control_c, 0, 64, 100
1, 97317, Control_c, 0, 64, 106
1, 97332, Control_c, 0, 64, 114
1, 97347, Control_c, 0, 64, 127
1, 97383, Note_on_c, 0, 76, 53
1, 97398, Note_off_c, 0, 54, 52
1, 97595, Note_on_c, 0, 56, 68
1, 97632, Note_on_c, 0, 70, 44
1, 97718, Control_c, 0, 64, 94
1, 97732, Control_c, 0, 64, 75
1, 97747, Control_c, 0, 64, 65
1, 97762, Control_c, 0, 64, 62
1, 97777, Control_c, 0, 64, 64
1, 97792, Control_c, 0, 64, 70
1, 97806, Control_c, 0, 64, 78
1, 97821, Control_c, 0, 64, 86
1, 97836, Control_c, 0, 64, 91
1, 97845, Note_on_c, 0, 73, 51
1, 97851, Control_c, 0, 64, 95
1, 97866, Control_c, 0, 64, 101
1, 97881, Control_c, 0, 64, 108
1, 97896, Control_c, 0, 64, 120
1, 97911, Control_c, 0, 64, 127
1, 97971, Note_off_c, 0, 42, 42
1, 97980, Note_off_c, 0, 70, 28
1, 98092, Note_on_c, 0, 66, 51
1, 98350, Note_on_c, 0, 58, 65
1, 98379, Note_off_c, 0, 58, 66
1, 98394, Note_off_c, 0, 66, 61
1, 98404, Note_off_c, 0, 73, 60
1, 98404, Note_off_c, 0, 76, 58
1, 98426, Note_off_c, 0, 56, 61
1, 98589, Note_on_c, 0, 42, 58
1, 98615, Control_c, 0, 64, 110
1, 98629, Control_c, 0, 64, 86
1, 98644, Control_c, 0, 64, 71
1, 98659, Control_c, 0, 64, 65
1, 98674, Control_c, 0, 64, 67
1, 98685, Note_on_c, 0, 56, 68
1, 98689, Control_c, 0, 64, 73
1, 98695, Note_off_c, 0, 42, 62
1, 98703, Control_c, 0, 64, 83
1, 98718, Control_c, 0, 64, 93
1, 98733, Control_c, 0, 64, 100
1, 98748, Control_c, 0, 64, 104
1, 98770, Control_c, 0, 64, 114
1, 98785, Control_c, 0, 64, 127
1, 98915, Note_on_c, 0, 58, 72
1, 98981, Note_on_c, 0, 83, 63
1, 98985, Note_off_c, 0, 56, 38
1, 99001, Note_off_c, 0, 58, 54
1, 99049, Note_on_c, 0, 56, 71
1, 99206, Note_off_c, 0, 56, 64
1, 99207, Note_on_c, 0, 54, 76
1, 99261, Note_on_c, 0, 75, 48
1, 99285, Note_off_c, 0, 83, 52
1, 99391, Note_off_c, 0, 75, 61
1, 99408, Control_c, 0, 64, 116
1, 99423, Control_c, 0, 64, 106
1, 99435, Note_on_c, 0, 80, 47
1, 99438, Control_c, 0, 64, 96
1, 99452, Control_c, 0, 64, 86
1, 99467, Control_c, 0, 64, 74
1, 99473, Note_on_c, 0, 42, 28
1, 99482, Control_c, 0, 64, 60
1, 99497, Control_c, 0, 64, 0
1, 99549, Control_c, 0, 64, 43
1, 99564, Control_c, 0, 64, 65
1, 99579, Control_c, 0, 64, 73
1, 99593, Control_c, 0, 64, 82
1, 99608, Control_c, 0, 64, 90
1, 99622, Control_c, 0, 64, 96
1, 99628, Note_off_c, 0, 80, 59
1, 99637, Control_c, 0, 64, 103
1, 99642, Note_on_c, 0, 73, 52
1, 99651, Control_c, 0, 64, 117
1, 99666, Control_c, 0, 64, 127
1, 99702, Note_off_c, 0, 42, 40
1, 99742, Note_off_c, 0, 54, 62
1, 99779, Note_off_c, 0, 73, 55
1, 99854, Note_on_c, 0, 66, 53
1, 99994, Note_off_c, 0, 66, 37
1, 100071, Note_on_c, 0, 63, 66
1, 100283, Note_off_c, 0, 63, 59
1, 100286, Note_on_c, 0, 78, 63
1, 100468, Note_off_c, 0, 78, 60
1, 100485, Note_on_c, 0, 73, 66
1, 100682, Note_on_c, 0, 78, 70
1, 100719, Note_off_c, 0, 73, 40
1, 100895, Note_on_c, 0, 71, 58
1, 100903, Note_on_c, 0, 68, 64
1, 100922, Note_off_c, 0, 71, 65
1, 101093, Note_off_c, 0, 68, 59
1, 101110, Note_on_c, 0, 66, 59
1, 101124, Note_off_c, 0, 78, 58
1, 101160, Note_off_c, 0, 66, 57
1, 101166, Note_on_c, 0, 42, 79
1, 101228, Note_off_c, 0, 42, 62
1, 101449, Note_on_c, 0, 63, 87
1, 101696, Note_on_c, 0, 83, 71
1, 101906, Note_on_c, 0, 61, 86
1, 101928, Note_on_c, 0, 75, 55
1, 101937, Note_off_c, 0, 63, 58
1, 102054, Note_off_c, 0, 75, 60
1, 102083, Note_off_c, 0, 83, 57
1, 102084, Note_on_c, 0, 80, 60
1, 102232, Note_off_c, 0, 80, 62
1, 102263, Note_on_c, 0, 73, 71
1, 102405, Note_off_c, 0, 73, 60
1, 102423, Note_on_c, 0, 58, 79
1, 102456, Note_on_c, 0, 66, 60
1, 102503, Note_off_c, 0, 61, 33
1, 102628, Note_off_c, 0, 66, 23
1, 102629, Note_on_c, 0, 61, 84
1, 102655, Note_off_c, 0, 58, 52
1, 102677, Control_c, 0, 64, 87
1, 102692, Control_c, 0, 64, 69
1, 102707, Control_c, 0, 64, 63
1, 102721, Control_c, 0, 64, 65
1, 102736, Control_c, 0, 64, 72
1, 102751, Control_c, 0, 64, 83
1, 102766, Control_c, 0, 64, 101
1, 102781, Control_c, 0, 64, 119
1, 102796, Control_c, 0, 64, 127
1, 102810, Note_on_c, 0, 78, 60
1, 102963, Note_off_c, 0, 78, 51
1, 102976, Note_off_c, 0, 61, 48
1, 102987, Note_on_c, 0, 59, 79
1, 103024, Note_on_c, 0, 75, 48
1, 103158, Note_on_c, 0, 78, 54
1, 103193, Note_off_c, 0, 75, 40
1, 103256, Note_off_c, 0, 78, 53
1, 103335, Note_off_c, 0, 59, 48
1, 103345, Note_on_c, 0, 55, 58
1, 103349, Note_on_c, 0, 71, 61
1, 103370, Note_off_c, 0, 55, 63
1, 103490, Note_off_c, 0, 71, 54
1, 103501, Note_on_c, 0, 63, 60
1, 103527, Note_off_c, 0, 63, 64
1, 103559, Control_c, 0, 64, 99
1, 103571, Note_on_c, 0, 42, 81
1, 103574, Control_c, 0, 64, 73
1, 103589, Control_c, 0, 64, 50
1, 103604, Control_c, 0, 64, 54
1, 103618, Control_c, 0, 64, 69
1, 103633, Control_c, 0, 64, 85
1, 103648, Control_c, 0, 64, 127
1, 103661, Note_off_c, 0, 42, 60
1, 103774, Note_on_c, 0, 57, 82
1, 103906, Note_off_c, 0, 57, 58
1, 104002, Note_on_c, 0, 84, 66
1, 104249, Note_off_c, 0, 84, 35
1, 104285, Note_on_c, 0, 55, 76
1, 104342, Note_on_c, 0, 76, 20
1, 104385, Note_off_c, 0, 76, 42
1, 104522, Note_on_c, 0, 79, 48
1, 104710, Note_off_c, 0, 79, 34
1, 104758, Note_on_c, 0, 72, 39
1, 104787, Note_off_c, 0, 72, 54
1, 104797, Note_off_c, 0, 55, 55
1, 104986, Note_on_c, 0, 54, 66
1, 105019, Note_off_c, 0, 54, 66
1, 105034, Note_on_c, 0, 64, 40
1, 105093, Note_off_c, 0, 64, 43
1, 105250, Note_on_c, 0, 55, 53
1, 105309, Control_c, 0, 64, 104
1, 105323, Control_c, 0, 64, 85
1, 105338, Control_c, 0, 64, 66
1, 105351, Note_on_c, 0, 42, 5
1, 105353, Control_c, 0, 64, 0
1, 105427, Control_c, 0, 64, 60
1, 105441, Control_c, 0, 64, 68
1, 105456, Control_c, 0, 64, 76
1, 105471, Control_c, 0, 64, 86
1, 105486, Control_c, 0, 64, 96
1, 105509, Control_c, 0, 64, 103
1, 105523, Control_c, 0, 64, 112
1, 105538, Control_c, 0, 64, 127
1, 105571, Note_on_c, 0, 76, 32
1, 105605, Note_off_c, 0, 42, 42
1, 105608, Note_off_c, 0, 55, 56
1, 105809, Note_off_c, 0, 76, 42
1, 105845, Note_on_c, 0, 71, 33
1, 105953, Control_c, 0, 67, 8
1, 105968, Control_c, 0, 67, 9
1, 105983, Control_c, 0, 67, 10
1, 105998, Control_c, 0, 67, 11
1, 106042, Control_c, 0, 67, 12
1, 106058, Note_off_c, 0, 71, 34
1, 106102, Control_c, 0, 67, 12
1, 106117, Control_c, 0, 67, 13
1, 106132, Control_c, 0, 67, 14
1, 106146, Control_c, 0, 67, 16
1, 106151, Note_on_c, 0, 73, 40
1, 106161, Control_c, 0, 67, 18
1, 106176, Control_c, 0, 67, 20
1, 106191, Control_c, 0, 67, 23
1, 106206, Control_c, 0, 67, 28
1, 106220, Control_c, 0, 67, 33
1, 106235, Control_c, 0, 67, 39
1, 106257, Control_c, 0, 67, 46
1, 106272, Control_c, 0, 67, 52
1, 106287, Control_c, 0, 67, 60
1, 106302, Control_c, 0, 67, 68
1, 106317, Control_c, 0, 67, 78
1, 106332, Control_c, 0, 67, 88
1, 106346, Control_c, 0, 67, 98
1, 106360, Note_off_c, 0, 73, 36
1, 106361, Control_c, 0, 67, 109
1, 106376, Control_c, 0, 67, 118
1, 106391, Control_c, 0, 67, 127
1, 106584, Note_on_c, 0, 67, 27
1, 106587, Note_on_c, 0, 61, 35
1, 106591, Note_on_c, 0, 64, 29
1, 106740, Note_off_c, 0, 64, 42
1, 106745, Note_off_c, 0, 67, 42
1, 106764, Note_off_c, 0, 61, 40
1, 107070, Note_on_c, 0, 71, 35
1, 107264, Note_off_c, 0, 71, 47
1, 108081, Control_c, 0, 64, 109
1, 108083, Note_on_c, 0, 49, 51
1, 108096, Control_c, 0, 64, 98
1, 108111, Control_c, 0, 64, 89
1, 108126, Control_c, 0, 64, 79
1, 108130, Note_on_c, 0, 42, 24
1, 108141, Control_c, 0, 64, 67
1, 108156, Control_c, 0, 64, 24
1, 108171, Control_c, 0, 64, 0
1, 108245, Control_c, 0, 64, 24
1, 108259, Control_c, 0, 64, 61
1, 108274, Control_c, 0, 64, 69
1, 108289, Control_c, 0, 64, 77
1, 108304, Control_c, 0, 64, 84
1, 108319, Control_c, 0, 64, 89
1, 108333, Control_c, 0, 64, 94
1, 108348, Control_c, 0, 64, 99
1, 108363, Control_c, 0, 64, 104
1, 108378, Control_c, 0, 64, 111
1, 108392, Control_c, 0, 64, 119
1, 108407, Control_c, 0, 64, 127
1, 108534, Note_on_c, 0, 75, 34
1, 108803, Note_off_c, 0, 49, 49
1, 108805, Note_on_c, 0, 51, 45
1, 108818, Note_on_c, 0, 68, 36
1, 108845, Control_c, 0, 64, 98
1, 108860, Control_c, 0, 64, 80
1, 108875, Control_c, 0, 64, 69
1, 108889, Control_c, 0, 64, 64
1, 108919, Control_c, 0, 64, 68
1, 108934, Control_c, 0, 64, 74
1, 108949, Control_c, 0, 64, 81
1, 108964, Control_c, 0, 64, 83
1, 108979, Control_c, 0, 64, 85
1, 108994, Control_c, 0, 64, 87
1, 109008, Control_c, 0, 64, 92
1, 109023, Control_c, 0, 64, 97
1, 109038, Control_c, 0, 64, 105
1, 109050, Note_on_c, 0, 73, 43
1, 109053, Control_c, 0, 64, 111
1, 109068, Control_c, 0, 64, 121
1, 109082, Control_c, 0, 64, 127
1, 109219, Note_off_c, 0, 68, 44
1, 109298, Note_on_c, 0, 70, 40
1, 109444, Note_off_c, 0, 75, 41
1, 109516, Note_on_c, 0, 52, 50
1, 109551, Note_on_c, 0, 61, 8
1, 109554, Note_off_c, 0, 51, 36
1, 109587, Note_off_c, 0, 70, 16
1, 109606, Note_off_c, 0, 61, 50
1, 109608, Note_off_c, 0, 73, 44
1, 109770, Note_on_c, 0, 54, 53
1, 109787, Control_c, 0, 64, 111
1, 109792, Note_off_c, 0, 52, 37
1, 109802, Control_c, 0, 64, 84
1, 109817, Control_c, 0, 64, 69
1, 109832, Control_c, 0, 64, 54
1, 109846, Control_c, 0, 64, 50
1, 109861, Control_c, 0, 64, 63
1, 109876, Control_c, 0, 64, 69
1, 109891, Control_c, 0, 64, 80
1, 109906, Control_c, 0, 64, 89
1, 109921, Control_c, 0, 64, 97
1, 109936, Control_c, 0, 64, 101
1, 109950, Control_c, 0, 64, 109
1, 109957, Note_off_c, 0, 54, 55
1, 109965, Control_c, 0, 64, 120
1, 109980, Control_c, 0, 64, 127
1, 110020, Note_on_c, 0, 76, 33
1, 110266, Note_on_c, 0, 56, 47
1, 110280, Note_on_c, 0, 70, 36
1, 110299, Control_c, 0, 64, 108
1, 110313, Control_c, 0, 64, 90
1, 110328, Control_c, 0, 64, 76
1, 110343, Control_c, 0, 64, 64
1, 110358, Control_c, 0, 64, 29
1, 110372, Control_c, 0, 64, 0
1, 110387, Control_c, 0, 64, 30
1, 110402, Control_c, 0, 64, 59
1, 110418, Control_c, 0, 64, 67
1, 110433, Control_c, 0, 64, 74
1, 110448, Control_c, 0, 64, 81
1, 110462, Control_c, 0, 64, 86
1, 110477, Control_c, 0, 64, 89
1, 110492, Control_c, 0, 64, 94
1, 110507, Control_c, 0, 64, 99
1, 110522, Control_c, 0, 64, 106
1, 110536, Control_c, 0, 64, 116
1, 110551, Control_c, 0, 64, 127
1, 110564, Note_on_c, 0, 73, 38
1, 110592, Note_off_c, 0, 70, 26
1, 110609, Note_off_c, 0, 42, 44
1, 110866, Note_on_c, 0, 66, 31
1, 110911, Note_off_c, 0, 56, 57
1, 111220, Note_on_c, 0, 58, 47
1, 111258, Note_off_c, 0, 58, 62
1, 111398, Note_off_c, 0, 66, 43
1, 111408, Note_off_c, 0, 73, 46
1, 111438, Note_off_c, 0, 76, 41
1, 111730, Note_on_c, 0, 47, 37
1, 111739, Note_on_c, 0, 56, 37
1, 111751, Control_c, 0, 64, 124
1, 111766, Control_c, 0, 64, 102
1, 111781, Control_c, 0, 64, 91
1, 111796, Control_c, 0, 64, 81
1, 111810, Control_c, 0, 64, 73
1, 111825, Control_c, 0, 64, 67
1, 111840, Control_c, 0, 64, 62
1, 111855, Control_c, 0, 64, 56
1, 111870, Control_c, 0, 64, 51
1, 111884, Control_c, 0, 64, 46
1, 111899, Control_c, 0, 64, 31
1, 111914, Control_c, 0, 64, 0
1, 111964, Note_off_c, 0, 56, 44
1, 111977, Note_on_c, 0, 58, 40
1, 112026, Note_on_c, 0, 83, 40
1, 112062, Note_off_c, 0, 58, 49
1, 112070, Note_on_c, 0, 56, 49
1, 112176, Note_off_c, 0, 56, 61
1, 112221, Note_on_c, 0, 54, 43
1, 112242, Note_on_c, 0, 75, 32
1, 112322, Control_c, 0, 64, 40
1, 112337, Control_c, 0, 64, 57
1, 112352, Control_c, 0, 64, 65
1, 112367, Control_c, 0, 64, 73
1, 112382, Control_c, 0, 64, 80
1, 112396, Control_c, 0, 64, 86
1, 112411, Control_c, 0, 64, 92
1, 112426, Control_c, 0, 64, 100
1, 112440, Control_c, 0, 64, 112
1, 112455, Control_c, 0, 64, 127
1, 112476, Note_off_c, 0, 75, 49
1, 112514, Note_on_c, 0, 80, 29
1, 112565, Note_off_c, 0, 83, 46
1, 112568, Note_off_c, 0, 47, 42
1, 112592, Note_off_c, 0, 80, 0
1, 112592, Note_on_c, 0, 80, 3
1, 112620, Note_off_c, 0, 54, 44
1, 112717, Note_off_c, 0, 80, 44
1, 112732, Note_on_c, 0, 73, 38
1, 112788, Note_off_c, 0, 73, 57
1, 112959, Note_on_c, 0, 66, 36
1, 113077, Note_off_c, 0, 66, 37
1, 113223, Note_on_c, 0, 63, 44
1, 113346, Note_off_c, 0, 63, 53
1, 113501, Note_on_c, 0, 78, 17
1, 113656, Note_off_c, 0, 78, 43
1, 113708, Note_on_c, 0, 73, 36
1, 113934, Note_off_c, 0, 73, 44
1, 113953, Note_on_c, 0, 78, 29
1, 114012, Note_off_c, 0, 78, 0
1, 114012, Note_on_c, 0, 78, 6
1, 114199, Note_off_c, 0, 78, 42
1, 114219, Note_on_c, 0, 71, 36
1, 114221, Note_on_c, 0, 68, 41
1, 114277, Note_off_c, 0, 71, 61
1, 114344, Note_off_c, 0, 68, 37
1, 114564, Note_on_c, 0, 66, 22
1, 114606, Note_off_c, 0, 66, 50
1, 114960, Note_on_c, 0, 43, 34
1, 115027, Control_c, 0, 64, 95
1, 115036, Note_on_c, 0, 74, 58
1, 115042, Control_c, 0, 64, 78
1, 115057, Control_c, 0, 64, 66
1, 115061, Note_on_c, 0, 71, 35
1, 115072, Control_c, 0, 64, 57
1, 115076, Note_on_c, 0, 62, 15
1, 115087, Control_c, 0, 64, 59
1, 115101, Control_c, 0, 64, 65
1, 115116, Control_c, 0, 64, 73
1, 115117, Poly_aftertouch_c, 0, 65, 127
1, 115131, Control_c, 0, 64, 85
1, 115146, Control_c, 0, 64, 98
1, 115160, Control_c, 0, 64, 107
1, 115165, Note_off_c, 0, 71, 53
1, 115174, Poly_aftertouch_c, 0, 65, 0
1, 115175, Control_c, 0, 64, 114
1, 115183, Note_off_c, 0, 62, 48
1, 115190, Control_c, 0, 64, 127
1, 115215, Note_off_c, 0, 74, 58
1, 115258, Note_off_c, 0, 43, 38
1, 115361, Note_on_c, 0, 53, 35
1, 115446, Note_off_c, 0, 53, 53
1, 115555, Note_on_c, 0, 76, 59
1, 115559, Note_on_c, 0, 55, 45
1, 115576, Note_on_c, 0, 71, 33
1, 115606, Note_off_c, 0, 55, 58
1, 115656, Poly_aftertouch_c, 0, 64, 127
1, 115657, Poly_aftertouch_c, 0, 65, 127
1, 115691, Note_off_c, 0, 71, 40
1, 115693, Poly_aftertouch_c, 0, 64, 0
1, 115702, Poly_aftertouch_c, 0, 65, 0
1, 115710, Note_off_c, 0, 76, 54
1, 115748, Note_on_c, 0, 53, 40
1, 115952, Note_on_c, 0, 62, 38
1, 115983, Note_off_c, 0, 53, 22
1, 116136, Note_off_c, 0, 62, 40
1, 116139, Note_on_c, 0, 77, 58
1, 116142, Note_on_c, 0, 59, 37
1, 116149, Note_on_c, 0, 65, 44
1, 116162, Note_on_c, 0, 71, 44
1, 116183, Note_off_c, 0, 77, 52
1, 116185, Note_off_c, 0, 65, 51
1, 116193, Note_off_c, 0, 71, 59
1, 116337, Note_on_c, 0, 79, 67
1, 116348, Note_on_c, 0, 65, 43
1, 116352, Note_on_c, 0, 77, 35
1, 116352, Note_on_c, 0, 71, 41
1, 116387, Note_on_c, 0, 67, 18
1, 116401, Note_off_c, 0, 71, 60
1, 116404, Note_off_c, 0, 77, 49
1, 116417, Note_off_c, 0, 59, 33
1, 116431, Note_off_c, 0, 67, 43
1, 116449, Note_off_c, 0, 79, 57
1, 116466, Note_off_c, 0, 65, 33
1, 116536, Note_on_c, 0, 62, 43
1, 116580, Note_off_c, 0, 62, 58
1, 116711, Note_on_c, 0, 67, 52
1, 116711, Note_on_c, 0, 81, 71
1, 116738, Note_on_c, 0, 77, 51
1, 116781, Note_on_c, 0, 71, 23
1, 116781, Note_off_c, 0, 67, 54
1, 116812, Poly_aftertouch_c, 0, 69, 127
1, 116833, Note_off_c, 0, 77, 58
1, 116860, Poly_aftertouch_c, 0, 69, 0
1, 116864, Note_off_c, 0, 71, 38
1, 116875, Control_c, 0, 67, 122
1, 116890, Control_c, 0, 67, 113
1, 116904, Control_c, 0, 67, 103
1, 116906, Note_on_c, 0, 65, 50
1, 116919, Control_c, 0, 67, 92
1, 116934, Control_c, 0, 67, 80
1, 116949, Control_c, 0, 67, 70
1, 116964, Control_c, 0, 67, 61
1, 116978, Control_c, 0, 67, 52
1, 116993, Control_c, 0, 67, 46
1, 117008, Control_c, 0, 67, 41
1, 117023, Control_c, 0, 67, 38
1, 117037, Control_c, 0, 67, 34
1, 117052, Control_c, 0, 67, 28
1, 117067, Control_c, 0, 67, 19
1, 117082, Control_c, 0, 67, 8
1, 117097, Control_c, 0, 67, 0
1, 117113, Note_on_c, 0, 74, 61
1, 117151, Note_off_c, 0, 65, 54
1, 117151, Note_off_c, 0, 74, 61
1, 117341, Note_off_c, 0, 81, 44
1, 117365, Note_on_c, 0, 83, 62
1, 117390, Note_on_c, 0, 71, 39
1, 117410, Note_on_c, 0, 77, 12
1, 117437, Control_c, 0, 64, 97
1, 117452, Control_c, 0, 64, 75
1, 117467, Control_c, 0, 64, 61
1, 117471, Note_off_c, 0, 71, 58
1, 117489, Control_c, 0, 64, 48
1, 117499, Note_on_c, 0, 36, 54
1, 117504, Control_c, 0, 64, 63
1, 117505, Note_on_c, 0, 43, 47
1, 117519, Control_c, 0, 64, 72
1, 117534, Control_c, 0, 64, 84
1, 117549, Control_c, 0, 64, 100
1, 117550, Note_off_c, 0, 43, 62
1, 117561, Note_off_c, 0, 36, 59
1, 117562, Note_off_c, 0, 83, 58
1, 117563, Control_c, 0, 64, 118
1, 117578, Control_c, 0, 64, 127
1, 117585, Note_off_c, 0, 77, 43
1, 117597, Note_on_c, 0, 81, 59
1, 117632, Note_off_c, 0, 81, 63
1, 117683, Note_on_c, 0, 83, 59
1, 117685, Note_on_c, 0, 55, 69
1, 117720, Note_off_c, 0, 83, 61
1, 117723, Note_on_c, 0, 81, 65
1, 117739, Note_on_c, 0, 69, 28
1, 117748, Note_on_c, 0, 76, 26
1, 117775, Note_off_c, 0, 69, 52
1, 117787, Note_off_c, 0, 76, 50
1, 117801, Note_off_c, 0, 81, 59
1, 118160, Note_on_c, 0, 57, 69
1, 118193, Note_off_c, 0, 55, 58
1, 118357, Note_on_c, 0, 88, 62
1, 118485, Note_off_c, 0, 88, 56
1, 118529, Note_on_c, 0, 79, 60
1, 118671, Note_off_c, 0, 79, 55
1, 118690, Note_on_c, 0, 59, 62
1, 118699, Note_on_c, 0, 86, 55
1, 118743, Note_off_c, 0, 57, 56
1, 118859, Note_off_c, 0, 86, 59
1, 118886, Note_on_c, 0, 62, 68
1, 118900, Note_off_c, 0, 59, 58
1, 118911, Note_on_c, 0, 79, 45
1, 119063, Note_on_c, 0, 83, 68
1, 119207, Note_off_c, 0, 83, 57
1, 119236, Note_on_c, 0, 60, 74
1, 119242, Note_on_c, 0, 76, 69
1, 119278, Note_off_c, 0, 62, 59
1, 119302, Note_off_c, 0, 79, 16
1, 119403, Note_on_c, 0, 84, 70
1, 119490, Note_off_c, 0, 76, 53
1, 119535, Note_off_c, 0, 84, 58
1, 119584, Note_on_c, 0, 72, 68
1, 119665, Note_off_c, 0, 72, 60
1, 119724, Note_off_c, 0, 60, 33
1, 119763, Note_on_c, 0, 64, 49
1, 119766, Note_on_c, 0, 67, 65
1, 119790, Note_off_c, 0, 64, 58
1, 119796, Note_off_c, 0, 67, 64
1, 119972, Control_c, 0, 64, 110
1, 119987, Control_c, 0, 64, 93
1, 120003, Control_c, 0, 64, 79
1, 120018, Control_c, 0, 64, 66
1, 120033, Control_c, 0, 64, 0
1, 120068, Note_on_c, 0, 75, 36
1, 120071, Note_on_c, 0, 44, 38
1, 120080, Note_on_c, 0, 72, 33
1, 120089, Note_on_c, 0, 66, 19
1, 120093, Note_on_c, 0, 63, 22
1, 120136, Control_c, 0, 64, 57
1, 120151, Control_c, 0, 64, 73
1, 120166, Control_c, 0, 64, 91
1, 120169, Note_off_c, 0, 72, 61
1, 120181, Control_c, 0, 64, 110
1, 120181, Note_off_c, 0, 63, 50
1, 120196, Control_c, 0, 64, 127
1, 120205, Note_off_c, 0, 66, 49
1, 120213, Note_off_c, 0, 75, 56
1, 120281, Note_on_c, 0, 54, 41
1, 120285, Note_off_c, 0, 44, 44
1, 120444, Note_on_c, 0, 77, 55
1, 120447, Note_off_c, 0, 54, 48
1, 120452, Note_on_c, 0, 56, 48
1, 120462, Note_on_c, 0, 65, 41
1, 120488, Note_on_c, 0, 72, 31
1, 120491, Note_off_c, 0, 56, 56
1, 120597, Note_off_c, 0, 65, 60
1, 120619, Note_off_c, 0, 77, 58
1, 120621, Note_on_c, 0, 54, 38
1, 120638, Note_off_c, 0, 72, 45
1, 120794, Note_on_c, 0, 60, 50
1, 120814, Note_off_c, 0, 54, 45
1, 120956, Note_on_c, 0, 78, 62
1, 120959, Note_on_c, 0, 56, 50
1, 120959, Note_off_c, 0, 60, 38
1, 120961, Note_on_c, 0, 66, 56
1, 120973, Note_on_c, 0, 72, 55
1, 120998, Note_off_c, 0, 66, 61
1, 121001, Note_off_c, 0, 56, 58
1, 121011, Note_off_c, 0, 78, 55
1, 121021, Note_off_c, 0, 72, 53
1, 121125, Note_on_c, 0, 66, 53
1, 121140, Note_on_c, 0, 72, 64
1, 121144, Note_on_c, 0, 80, 76
1, 121155, Note_on_c, 0, 68, 59
1, 121204, Note_off_c, 0, 68, 51
1, 121209, Note_off_c, 0, 72, 60
1, 121244, Note_off_c, 0, 66, 57
1, 121261, Note_off_c, 0, 80, 61
1, 121313, Note_on_c, 0, 63, 66
1, 121379, Note_off_c, 0, 63, 59
1, 121477, Note_on_c, 0, 72, 67
1, 121480, Note_on_c, 0, 82, 87
1, 121496, Note_on_c, 0, 70, 66
1, 121498, Note_on_c, 0, 78, 67
1, 121548, Note_off_c, 0, 70, 62
1, 121583, Note_off_c, 0, 72, 61
1, 121647, Note_on_c, 0, 66, 69
1, 121650, Note_off_c, 0, 78, 53
1, 121662, Note_off_c, 0, 82, 46
1, 121759, Note_off_c, 0, 66, 49
1, 121824, Note_on_c, 0, 75, 70
1, 121878, Note_off_c, 0, 75, 61
1, 121896, Note_on_c, 0, 68, 55
1, 121923, Note_off_c, 0, 68, 65
1, 122000, Note_on_c, 0, 84, 81
1, 122008, Note_on_c, 0, 72, 74
1, 122008, Note_on_c, 0, 78, 70
1, 122026, Control_c, 0, 64, 118
1, 122041, Control_c, 0, 64, 74
1, 122056, Control_c, 0, 64, 0
1, 122092, Note_on_c, 0, 37, 77
1, 122092, Note_on_c, 0, 44, 72
1, 122095, Note_off_c, 0, 72, 57
1, 122101, Control_c, 0, 64, 21
1, 122115, Control_c, 0, 64, 72
1, 122130, Control_c, 0, 64, 90
1, 122139, Note_off_c, 0, 37, 60
1, 122142, Note_off_c, 0, 44, 58
1, 122144, Note_off_c, 0, 78, 61
1, 122145, Control_c, 0, 64, 127
1, 122160, Note_off_c, 0, 84, 62
1, 122170, Note_on_c, 0, 82, 71
1, 122222, Note_off_c, 0, 82, 60
1, 122228, Note_on_c, 0, 84, 52
1, 122279, Note_off_c, 0, 84, 48
1, 122285, Note_on_c, 0, 82, 74
1, 122291, Note_on_c, 0, 56, 86
1, 122304, Note_on_c, 0, 77, 73
1, 122310, Note_on_c, 0, 70, 68
1, 122336, Note_off_c, 0, 70, 69
1, 122372, Note_off_c, 0, 77, 58
1, 122402, Note_off_c, 0, 82, 61
1, 122701, Note_on_c, 0, 58, 83
1, 122712, Note_off_c, 0, 56, 62
1, 122870, Note_on_c, 0, 89, 80
1, 123006, Note_off_c, 0, 89, 61
1, 123028, Note_on_c, 0, 80, 76
1, 123170, Note_on_c, 0, 60, 77
1, 123183, Note_on_c, 0, 87, 77
1, 123188, Note_off_c, 0, 58, 54
1, 123192, Note_off_c, 0, 80, 57
1, 123323, Note_off_c, 0, 87, 58
1, 123349, Note_on_c, 0, 63, 89
1, 123357, Note_on_c, 0, 80, 67
1, 123359, Note_off_c, 0, 60, 64
1, 123519, Note_on_c, 0, 84, 72
1, 123627, Note_off_c, 0, 84, 63
1, 123642, Note_off_c, 0, 63, 56
1, 123668, Note_on_c, 0, 61, 91
1, 123674, Note_off_c, 0, 80, 25
1, 123688, Note_on_c, 0, 77, 80
1, 123833, Note_on_c, 0, 85, 83
1, 123874, Note_off_c, 0, 77, 55
1, 123979, Note_off_c, 0, 85, 62
1, 123982, Note_off_c, 0, 61, 45
1, 123987, Note_on_c, 0, 73, 91
1, 124044, Note_off_c, 0, 73, 63
1, 124128, Note_on_c, 0, 65, 61
1, 124136, Note_on_c, 0, 68, 82
1, 124150, Note_off_c, 0, 65, 64
1, 124201, Note_off_c, 0, 68, 59
1, 124362, Control_c, 0, 64, 123
1, 124377, Control_c, 0, 64, 89
1, 124391, Note_on_c, 0, 45, 55
1, 124392, Control_c, 0, 64, 70
1, 124407, Control_c, 0, 64, 0
1, 124408, Note_on_c, 0, 76, 65
1, 124418, Note_on_c, 0, 64, 54
1, 124427, Note_on_c, 0, 73, 55
1, 124451, Control_c, 0, 64, 61
1, 124466, Control_c, 0, 64, 71
1, 124481, Control_c, 0, 64, 83
1, 124495, Control_c, 0, 64, 100
1, 124510, Control_c, 0, 64, 127
1, 124519, Note_off_c, 0, 64, 62
1, 124527, Note_off_c, 0, 45, 58
1, 124536, Note_off_c, 0, 76, 61
1, 124551, Note_off_c, 0, 73, 62
1, 124584, Note_on_c, 0, 55, 67
1, 124689, Note_off_c, 0, 55, 62
1, 124736, Note_on_c, 0, 57, 67
1, 124736, Note_on_c, 0, 78, 81
1, 124738, Note_on_c, 0, 73, 73
1, 124743, Note_on_c, 0, 66, 72
1, 124792, Note_off_c, 0, 57, 62
1, 124867, Note_off_c, 0, 66, 58
1, 124877, Note_on_c, 0, 55, 74
1, 124930, Note_off_c, 0, 73, 61
1, 124938, Note_off_c, 0, 78, 38
1, 125034, Note_on_c, 0, 61, 85
1, 125037, Note_off_c, 0, 55, 60
1, 125172, Note_on_c, 0, 79, 87
1, 125174, Note_on_c, 0, 57, 79
1, 125174, Note_on_c, 0, 67, 81
1, 125179, Note_on_c, 0, 73, 82
1, 125220, Note_off_c, 0, 61, 57
1, 125239, Note_off_c, 0, 67, 59
1, 125264, Note_off_c, 0, 57, 60
1, 125264, Note_off_c, 0, 79, 60
1, 125281, Note_off_c, 0, 73, 62
1, 125335, Note_on_c, 0, 67, 82
1, 125342, Note_on_c, 0, 81, 92
1, 125344, Note_on_c, 0, 73, 86
1, 125345, Note_on_c, 0, 69, 87
1, 125478, Note_on_c, 0, 64, 89
1, 125486, Note_off_c, 0, 69, 57
1, 125487, Note_off_c, 0, 67, 38
1, 125532, Note_off_c, 0, 81, 52
1, 125541, Note_off_c, 0, 73, 62
1, 125575, Note_off_c, 0, 64, 65
1, 125632, Note_on_c, 0, 71, 92
1, 125633, Note_on_c, 0, 83, 96
1, 125635, Note_on_c, 0, 73, 92
1, 125636, Note_on_c, 0, 69, 81
1, 125699, Note_off_c, 0, 71, 60
1, 125736, Note_off_c, 0, 73, 62
1, 125753, Note_off_c, 0, 69, 44
1, 125773, Note_off_c, 0, 83, 66
1, 125788, Note_on_c, 0, 67, 82
1, 125884, Note_off_c, 0, 67, 58
1, 125925, Note_on_c, 0, 73, 93
1, 125979, Note_off_c, 0, 73, 64
1, 126020, Note_on_c, 0, 69, 44
1, 126047, Note_off_c, 0, 69, 59
1, 126075, Note_on_c, 0, 85, 97
1, 126078, Note_on_c, 0, 73, 94
1, 126082, Note_on_c, 0, 79, 82
1, 126134, Note_off_c, 0, 73, 60
1, 126175, Note_off_c, 0, 85, 61
1, 126214, Note_on_c, 0, 44, 91
1, 126244, Control_c, 0, 64, 83
1, 126259, Control_c, 0, 64, 60
1, 126274, Control_c, 0, 64, 0
1, 126289, Control_c, 0, 64, 54
1, 126304, Control_c, 0, 64, 69
1, 126318, Control_c, 0, 64, 85
1, 126333, Control_c, 0, 64, 127
1, 126333, Note_off_c, 0, 44, 63
1, 126372, Note_off_c, 0, 79, 61
1, 126393, Note_on_c, 0, 88, 87
1, 126394, Note_on_c, 0, 76, 91
1, 126402, Note_on_c, 0, 84, 72
1, 126402, Note_on_c, 0, 62, 88
1, 126464, Note_off_c, 0, 84, 62
1, 126471, Note_off_c, 0, 88, 59
1, 126557, Note_off_c, 0, 76, 56
1, 126584, Note_on_c, 0, 80, 76
1, 126692, Note_off_c, 0, 62, 57
1, 126730, Note_on_c, 0, 64, 92
1, 126735, Note_on_c, 0, 82, 81
1, 126752, Note_off_c, 0, 80, 58
1, 126849, Note_off_c, 0, 82, 64
1, 126866, Note_on_c, 0, 74, 82
1, 126959, Note_off_c, 0, 74, 57
1, 126988, Note_on_c, 0, 76, 84
1, 127094, Note_off_c, 0, 76, 59
1, 127118, Note_on_c, 0, 65, 95
1, 127120, Note_on_c, 0, 70, 84
1, 127146, Note_off_c, 0, 64, 64
1, 127265, Note_off_c, 0, 70, 61
1, 127278, Note_on_c, 0, 67, 100
1, 127290, Note_on_c, 0, 68, 84
1, 127309, Note_off_c, 0, 65, 57
1, 127368, Note_off_c, 0, 68, 57
1, 127425, Note_on_c, 0, 74, 73
1, 127532, Note_off_c, 0, 67, 54
1, 127544, Note_off_c, 0, 74, 55
1, 127559, Note_on_c, 0, 65, 95
1, 127566, Note_on_c, 0, 70, 79
1, 127663, Note_off_c, 0, 70, 59
1, 127673, Note_on_c, 0, 76, 74
1, 127693, Note_off_c, 0, 65, 42
1, 127702, Note_off_c, 0, 76, 61
1, 127797, Note_on_c, 0, 74, 71
1, 127835, Note_on_c, 0, 64, 79
1, 127857, Note_off_c, 0, 64, 71
1, 127885, Note_off_c, 0, 74, 62
1, 127889, Control_c, 0, 64, 102
1, 127892, Note_on_c, 0, 80, 70
1, 127904, Control_c, 0, 64, 84
1, 127919, Control_c, 0, 64, 82
1, 127934, Control_c, 0, 64, 90
1, 127949, Control_c, 0, 64, 127
1, 127950, Note_off_c, 0, 80, 54
1, 127964, Note_on_c, 0, 44, 91
1, 128018, Note_off_c, 0, 44, 63
1, 128155, Note_on_c, 0, 62, 92
1, 128163, Note_on_c, 0, 88, 78
1, 128167, Note_on_c, 0, 76, 85
1, 128173, Note_on_c, 0, 84, 65
1, 128207, Note_off_c, 0, 84, 60
1, 128225, Note_off_c, 0, 88, 59
1, 128282, Note_off_c, 0, 76, 61
1, 128314, Note_on_c, 0, 80, 83
1, 128369, Note_off_c, 0, 62, 58
1, 128423, Note_on_c, 0, 64, 97
1, 128436, Note_on_c, 0, 82, 88
1, 128465, Note_off_c, 0, 80, 58
1, 128533, Note_off_c, 0, 82, 62
1, 128556, Note_on_c, 0, 74, 91
1, 128622, Note_off_c, 0, 74, 63
1, 128669, Note_on_c, 0, 76, 90
1, 128784, Note_off_c, 0, 76, 58
1, 128796, Note_on_c, 0, 65, 99
1, 128808, Note_on_c, 0, 70, 86
1, 128818, Note_off_c, 0, 64, 57
1, 128939, Note_off_c, 0, 70, 61
1, 128959, Note_on_c, 0, 67, 98
1, 128966, Note_on_c, 0, 68, 93
1, 128991, Note_off_c, 0, 65, 55
1, 129067, Note_off_c, 0, 68, 57
1, 129096, Note_on_c, 0, 74, 83
1, 129192, Note_off_c, 0, 67, 56
1, 129232, Note_on_c, 0, 65, 100
1, 129246, Note_on_c, 0, 70, 83
1, 129247, Note_off_c, 0, 74, 60
1, 129361, Note_off_c, 0, 70, 62
1, 129363, Note_on_c, 0, 76, 75
1, 129401, Note_off_c, 0, 76, 57
1, 129405, Note_off_c, 0, 65, 59
1, 129483, Note_on_c, 0, 74, 93
1, 129521, Note_on_c, 0, 64, 81
1, 129539, Note_on_c, 0, 62, 65
1, 129553, Note_off_c, 0, 64, 61
1, 129560, Note_off_c, 0, 62, 64
1, 129595, Note_on_c, 0, 80, 83
1, 129621, Note_off_c, 0, 74, 41
1, 129661, Note_on_c, 0, 44, 97
1, 129667, Note_off_c, 0, 80, 60
1, 129705, Note_on_c, 0, 43, 47
1, 129728, Note_off_c, 0, 44, 64
1, 129736, Note_off_c, 0, 43, 54
1, 129862, Note_on_c, 0, 67, 100
1, 129870, Note_on_c, 0, 88, 83
1, 129872, Note_on_c, 0, 74, 95
1, 129872, Note_on_c, 0, 84, 77
1, 129932, Note_off_c, 0, 84, 57
1, 129934, Note_off_c, 0, 88, 59
1, 129974, Note_off_c, 0, 74, 60
1, 130011, Note_on_c, 0, 80, 88
1, 130042, Note_off_c, 0, 67, 56
1, 130115, Note_on_c, 0, 65, 99
1, 130130, Note_on_c, 0, 82, 94
1, 130154, Note_off_c, 0, 80, 62
1, 130158, Note_off_c, 0, 65, 68
1, 130210, Note_off_c, 0, 82, 66
1, 130235, Note_on_c, 0, 74, 84
1, 130259, Note_off_c, 0, 74, 65
1, 130333, Note_on_c, 0, 68, 85
1, 130396, Note_on_c, 0, 44, 97
1, 130441, Note_off_c, 0, 68, 0
1, 130445, Note_on_c, 0, 70, 90
1, 130447, Note_on_c, 0, 64, 90
1, 130447, Note_off_c, 0, 44, 65
1, 130465, Note_on_c, 0, 68, 18
1, 130474, Note_off_c, 0, 64, 65
1, 130488, Note_off_c, 0, 70, 67
1, 130501, Note_off_c, 0, 68, 54
1, 130642, Note_on_c, 0, 67, 101
1, 130659, Note_on_c, 0, 88, 88
1, 130663, Note_on_c, 0, 74, 90
1, 130676, Note_on_c, 0, 84, 71
1, 130699, Note_off_c, 0, 84, 70
1, 130712, Note_off_c, 0, 74, 59
1, 130713, Note_off_c, 0, 88, 60
1, 130798, Note_on_c, 0, 80, 76
1, 130834, Note_off_c, 0, 67, 49
1, 130925, Note_on_c, 0, 65, 100
1, 130932, Note_on_c, 0, 82, 87
1, 130945, Note_off_c, 0, 80, 62
1, 130996, Note_off_c, 0, 65, 64
1, 131037, Note_off_c, 0, 82, 66
1, 131060, Note_on_c, 0, 74, 79
1, 131088, Note_off_c, 0, 74, 65
1, 131185, Note_on_c, 0, 68, 84
1, 131236, Note_off_c, 0, 68, 62
1, 131307, Note_on_c, 0, 70, 77
1, 131319, Note_on_c, 0, 64, 81
1, 131365, Note_off_c, 0, 70, 61
1, 131370, Note_on_c, 0, 68, 34
1, 131395, Note_off_c, 0, 68, 58
1, 131399, Note_off_c, 0, 64, 61
1, 131472, Control_c, 0, 64, 85
1, 131486, Control_c, 0, 64, 63
1, 131492, Note_on_c, 0, 60, 73
1, 131492, Note_on_c, 0, 68, 60
1, 131496, Note_on_c, 0, 62, 71
1, 131496, Note_on_c, 0, 64, 82
1, 131501, Control_c, 0, 64, 56
1, 131516, Control_c, 0, 64, 64
1, 131530, Control_c, 0, 64, 74
1, 131535, Note_off_c, 0, 68, 61
1, 131545, Control_c, 0, 64, 89
1, 131559, Note_off_c, 0, 64, 62
1, 131560, Control_c, 0, 64, 111
1, 131575, Control_c, 0, 64, 127
1, 131577, Note_off_c, 0, 62, 56
1, 131586, Note_off_c, 0, 60, 60
1, 131633, Note_on_c, 0, 72, 81
1, 131637, Note_on_c, 0, 68, 82
1, 131638, Note_on_c, 0, 64, 81
1, 131711, Note_off_c, 0, 64, 64
1, 131740, Note_off_c, 0, 72, 58
1, 131777, Note_off_c, 0, 68, 47
1, 131800, Note_on_c, 0, 70, 82
1, 131805, Note_on_c, 0, 74, 88
1, 131851, Note_off_c, 0, 70, 65
1, 131857, Note_off_c, 0, 74, 64
1, 131902, Note_on_c, 0, 66, 61
1, 131932, Note_on_c, 0, 72, 75
1, 131935, Note_off_c, 0, 66, 60
1, 131945, Note_on_c, 0, 76, 66
1, 131958, Note_on_c, 0, 74, 60
1, 131970, Note_off_c, 0, 72, 60
1, 131975, Note_off_c, 0, 74, 67
1, 131994, Note_off_c, 0, 76, 60
1, 132103, Note_on_c, 0, 76, 92
1, 132110, Note_on_c, 0, 80, 85
1, 132118, Note_on_c, 0, 72, 75
1, 132174, Note_off_c, 0, 72, 55
1, 132194, Note_off_c, 0, 76, 51
1, 132274, Note_off_c, 0, 80, 58
1, 132304, Note_on_c, 0, 78, 96
1, 132304, Note_on_c, 0, 82, 96
1, 132305, Note_on_c, 0, 74, 82
1, 132325, Note_off_c, 0, 74, 73
1, 132533, Note_off_c, 0, 82, 54
1, 132597, Note_off_c, 0, 78, 55
1, 132646, Note_on_c, 0, 56, 90
1, 132647, Note_on_c, 0, 84, 91
1, 132649, Note_on_c, 0, 76, 89
1, 132650, Note_on_c, 0, 80, 83
1, 132672, Control_c, 0, 64, 98
1, 132686, Control_c, 0, 64, 71
1, 132701, Control_c, 0, 64, 0
1, 132760, Control_c, 0, 64, 23
1, 132776, Control_c, 0, 64, 60
1, 132791, Control_c, 0, 64, 66
1, 132806, Control_c, 0, 64, 70
1, 132821, Control_c, 0, 64, 74
1, 132836, Control_c, 0, 64, 81
1, 132850, Control_c, 0, 64, 91
1, 132865, Control_c, 0, 64, 100
1, 132880, Control_c, 0, 64, 105
1, 132895, Control_c, 0, 64, 108
1, 132909, Control_c, 0, 64, 112
1, 132924, Control_c, 0, 64, 121
1, 132939, Control_c, 0, 64, 127
1, 133436, Control_c, 0, 67, 10
1, 133450, Control_c, 0, 67, 13
1, 133465, Control_c, 0, 67, 18
1, 133480, Control_c, 0, 67, 23
1, 133495, Control_c, 0, 67, 30
1, 133509, Control_c, 0, 64, 117
1, 133509, Control_c, 0, 67, 36
1, 133524, Control_c, 0, 64, 109
1, 133524, Control_c, 0, 67, 42
1, 133539, Control_c, 0, 64, 106
1, 133539, Control_c, 0, 67, 47
1, 133554, Control_c, 0, 64, 105
1, 133554, Control_c, 0, 67, 52
1, 133569, Control_c, 0, 64, 105
1, 133569, Control_c, 0, 67, 58
1, 133585, Control_c, 0, 64, 104
1, 133585, Control_c, 0, 67, 66
1, 133599, Control_c, 0, 64, 103
1, 133599, Control_c, 0, 67, 74
1, 133614, Control_c, 0, 64, 101
1, 133614, Control_c, 0, 67, 85
1, 133629, Control_c, 0, 64, 99
1, 133629, Control_c, 0, 67, 97
1, 133644, Control_c, 0, 64, 97
1, 133644, Control_c, 0, 67, 110
1, 133659, Control_c, 0, 64, 95
1, 133659, Control_c, 0, 67, 124
1, 133673, Control_c, 0, 64, 92
1, 133673, Control_c, 0, 67, 127
1, 133688, Control_c, 0, 64, 90
1, 133732, Control_c, 0, 64, 91
1, 133747, Control_c, 0, 64, 92
1, 133762, Control_c, 0, 64, 93
1, 133792, Control_c, 0, 64, 91
1, 133807, Control_c, 0, 64, 87
1, 133821, Control_c, 0, 64, 82
1, 133836, Control_c, 0, 64, 78
1, 133851, Control_c, 0, 64, 77
1, 133866, Control_c, 0, 64, 78
1, 133881, Control_c, 0, 64, 80
1, 133911, Control_c, 0, 64, 79
1, 133925, Control_c, 0, 64, 79
1, 133977, Control_c, 0, 64, 79
1, 133992, Control_c, 0, 64, 80
1, 134006, Control_c, 0, 64, 79
1, 134021, Control_c, 0, 64, 79
1, 134036, Control_c, 0, 64, 78
1, 134096, Control_c, 0, 64, 78
1, 134125, Control_c, 0, 64, 77
1, 134140, Control_c, 0, 64, 76
1, 134155, Control_c, 0, 64, 75
1, 134170, Control_c, 0, 64, 74
1, 134185, Control_c, 0, 64, 72
1, 134199, Control_c, 0, 64, 71
1, 134214, Control_c, 0, 64, 69
1, 134229, Control_c, 0, 64, 67
1, 134244, Control_c, 0, 64, 67
1, 134347, Control_c, 0, 64, 66
1, 134393, Control_c, 0, 64, 66
1, 134408, Control_c, 0, 64, 65
1, 134452, Control_c, 0, 64, 65
1, 134467, Control_c, 0, 64, 64
1, 134482, Control_c, 0, 64, 64
1, 134526, Control_c, 0, 64, 63
1, 134541, Control_c, 0, 64, 63
1, 134555, Control_c, 0, 64, 62
1, 134570, Control_c, 0, 64, 61
1, 134585, Control_c, 0, 64, 60
1, 134600, Control_c, 0, 64, 58
1, 134615, Control_c, 0, 64, 55
1, 134629, Control_c, 0, 64, 50
1, 134644, Control_c, 0, 64, 44
1, 134659, Control_c, 0, 64, 33
1, 134674, Control_c, 0, 64, 0
1, 134919, Control_c, 0, 64, 56
1, 134934, Control_c, 0, 64, 64
1, 134948, Control_c, 0, 64, 66
1, 134963, Control_c, 0, 64, 69
1, 134978, Control_c, 0, 64, 72
1, 134993, Control_c, 0, 64, 76
1, 135008, Control_c, 0, 64, 81
1, 135023, Control_c, 0, 64, 86
1, 135038, Control_c, 0, 64, 93
1, 135053, Control_c, 0, 64, 101
1, 135068, Control_c, 0, 64, 117
1, 135082, Control_c, 0, 64, 127
1, 135141, Note_off_c, 0, 84, 48
1, 135167, Note_off_c, 0, 56, 54
1, 135196, Note_off_c, 0, 76, 37
1, 135204, Note_off_c, 0, 80, 47
1, 136161, Note_on_c, 0, 56, 61
1, 136195, Note_off_c, 0, 56, 65
1, 136212, Note_on_c, 0, 58, 51
1, 136221, Note_on_c, 0, 64, 63
1, 136236, Note_on_c, 0, 60, 43
1, 136239, Control_c, 0, 64, 93
1, 136242, Note_off_c, 0, 58, 64
1, 136254, Note_on_c, 0, 56, 63
1, 136254, Control_c, 0, 64, 74
1, 136269, Control_c, 0, 64, 51
1, 136276, Note_off_c, 0, 56, 61
1, 136280, Note_on_c, 0, 38, 41
1, 136284, Control_c, 0, 64, 0
1, 136444, Note_on_c, 0, 54, 46
1, 136472, Note_off_c, 0, 54, 59
1, 136607, Note_on_c, 0, 56, 54
1, 136638, Note_off_c, 0, 56, 65
1, 136758, Note_on_c, 0, 58, 52
1, 136785, Note_off_c, 0, 58, 61
1, 136975, Note_on_c, 0, 56, 40
1, 136978, Note_on_c, 0, 52, 35
1, 137047, Control_c, 0, 64, 53
1, 137062, Control_c, 0, 64, 66
1, 137076, Control_c, 0, 64, 77
1, 137091, Control_c, 0, 64, 92
1, 137106, Control_c, 0, 64, 100
1, 137121, Note_off_c, 0, 60, 56
1, 137121, Control_c, 0, 64, 103
1, 137136, Control_c, 0, 64, 110
1, 137150, Control_c, 0, 64, 127
1, 137151, Note_off_c, 0, 56, 56
1, 137170, Note_off_c, 0, 64, 39
1, 137187, Note_off_c, 0, 52, 39
1, 137387, Control_c, 0, 64, 109
1, 137388, Note_on_c, 0, 58, 49
1, 137389, Note_on_c, 0, 64, 43
1, 137393, Note_on_c, 0, 60, 46
1, 137402, Control_c, 0, 64, 96
1, 137416, Control_c, 0, 64, 86
1, 137431, Control_c, 0, 64, 76
1, 137446, Control_c, 0, 64, 66
1, 137458, Note_off_c, 0, 58, 47
1, 137461, Control_c, 0, 64, 34
1, 137476, Control_c, 0, 64, 0
1, 137545, Note_on_c, 0, 56, 69
1, 137547, Note_off_c, 0, 60, 0
1, 137547, Note_on_c, 0, 60, 3
1, 137595, Note_off_c, 0, 56, 54
1, 137705, Note_on_c, 0, 54, 72
1, 137749, Note_off_c, 0, 54, 62
1, 137859, Note_on_c, 0, 56, 68
1, 137890, Note_off_c, 0, 56, 64
1, 138044, Note_on_c, 0, 58, 49
1, 138071, Note_off_c, 0, 58, 59
1, 138150, Control_c, 0, 64, 65
1, 138165, Control_c, 0, 64, 78
1, 138180, Control_c, 0, 64, 88
1, 138194, Control_c, 0, 64, 97
1, 138200, Note_on_c, 0, 54, 51
1, 138209, Note_off_c, 0, 64, 46
1, 138209, Control_c, 0, 64, 102
1, 138224, Control_c, 0, 64, 110
1, 138226, Note_off_c, 0, 54, 63
1, 138237, Note_off_c, 0, 38, 41
1, 138239, Control_c, 0, 64, 116
1, 138249, Note_off_c, 0, 60, 46
1, 138254, Control_c, 0, 64, 122
1, 138269, Control_c, 0, 64, 123
1, 138328, Control_c, 0, 64, 118
1, 138332, Note_on_c, 0, 56, 56
1, 138343, Control_c, 0, 64, 107
1, 138344, Note_on_c, 0, 58, 60
1, 138357, Note_off_c, 0, 56, 59
1, 138358, Control_c, 0, 64, 90
1, 138363, Note_on_c, 0, 38, 48
1, 138372, Note_on_c, 0, 64, 60
1, 138373, Control_c, 0, 64, 73
1, 138376, Note_off_c, 0, 58, 64
1, 138378, Note_on_c, 0, 60, 38
1, 138388, Control_c, 0, 64, 37
1, 138396, Note_on_c, 0, 56, 73
1, 138403, Control_c, 0, 64, 0
1, 138426, Note_off_c, 0, 56, 58
1, 138591, Note_on_c, 0, 54, 47
1, 138618, Note_off_c, 0, 54, 60
1, 138759, Note_on_c, 0, 56, 54
1, 138787, Note_off_c, 0, 56, 58
1, 138928, Note_on_c, 0, 58, 35
1, 138961, Note_off_c, 0, 58, 50
1, 139110, Note_on_c, 0, 56, 51
1, 139113, Note_on_c, 0, 52, 37
1, 139167, Control_c, 0, 64, 65
1, 139169, Note_off_c, 0, 52, 59
1, 139182, Control_c, 0, 64, 75
1, 139205, Control_c, 0, 64, 85
1, 139219, Control_c, 0, 64, 91
1, 139226, Note_off_c, 0, 56, 57
1, 139227, Note_off_c, 0, 60, 52
1, 139234, Control_c, 0, 64, 94
1, 139241, Note_off_c, 0, 64, 50
1, 139249, Control_c, 0, 64, 96
1, 139264, Control_c, 0, 64, 97
1, 139278, Control_c, 0, 64, 99
1, 139293, Control_c, 0, 64, 100
1, 139307, Control_c, 0, 64, 101
1, 139322, Control_c, 0, 64, 102
1, 139337, Control_c, 0, 64, 103
1, 139396, Control_c, 0, 64, 102
1, 139411, Control_c, 0, 64, 102
1, 139426, Control_c, 0, 64, 100
1, 139440, Control_c, 0, 64, 95
1, 139455, Control_c, 0, 64, 84
1, 139462, Note_on_c, 0, 64, 68
1, 139470, Control_c, 0, 64, 69
1, 139472, Note_on_c, 0, 58, 58
1, 139473, Note_on_c, 0, 60, 62
1, 139485, Control_c, 0, 64, 36
1, 139499, Note_off_c, 0, 58, 65
1, 139500, Control_c, 0, 64, 0
1, 139648, Note_on_c, 0, 56, 51
1, 139676, Note_off_c, 0, 56, 56
1, 139832, Note_on_c, 0, 54, 43
1, 139860, Note_off_c, 0, 54, 59
1, 140040, Note_on_c, 0, 56, 39
1, 140072, Note_off_c, 0, 56, 51
1, 140252, Note_on_c, 0, 58, 45
1, 140263, Control_c, 0, 64, 31
1, 140278, Control_c, 0, 64, 65
1, 140293, Control_c, 0, 64, 71
1, 140293, Note_off_c, 0, 58, 58
1, 140308, Control_c, 0, 64, 76
1, 140323, Control_c, 0, 64, 81
1, 140335, Note_off_c, 0, 60, 54
1, 140338, Control_c, 0, 64, 86
1, 140350, Note_off_c, 0, 64, 43
1, 140353, Control_c, 0, 64, 92
1, 140367, Control_c, 0, 64, 95
1, 140377, Note_off_c, 0, 38, 41
1, 140382, Control_c, 0, 64, 97
1, 140397, Control_c, 0, 64, 99
1, 140411, Control_c, 0, 64, 101
1, 140426, Control_c, 0, 64, 103
1, 140441, Control_c, 0, 64, 103
1, 140471, Control_c, 0, 64, 104
1, 140478, Note_on_c, 0, 54, 54
1, 140500, Control_c, 0, 64, 104
1, 140509, Note_off_c, 0, 54, 63
1, 140636, Note_on_c, 0, 56, 56
1, 140653, Note_on_c, 0, 58, 63
1, 140661, Note_off_c, 0, 56, 59
1, 140663, Control_c, 0, 64, 99
1, 140669, Note_on_c, 0, 64, 54
1, 140672, Note_on_c, 0, 38, 44
1, 140678, Control_c, 0, 64, 90
1, 140700, Control_c, 0, 64, 77
1, 140708, Note_off_c, 0, 58, 51
1, 140715, Control_c, 0, 64, 62
1, 140730, Control_c, 0, 64, 0
1, 140735, Note_on_c, 0, 56, 42
1, 140767, Note_off_c, 0, 56, 55
1, 140951, Note_on_c, 0, 58, 40
1, 140983, Note_off_c, 0, 58, 56
1, 141109, Note_on_c, 0, 60, 50
1, 141128, Note_on_c, 0, 54, 40
1, 141152, Note_off_c, 0, 60, 61
1, 141157, Note_off_c, 0, 54, 57
1, 141262, Note_on_c, 0, 58, 57
1, 141298, Note_off_c, 0, 58, 62
1, 141405, Note_on_c, 0, 62, 66
1, 141406, Note_on_c, 0, 56, 62
1, 141447, Note_off_c, 0, 56, 63
1, 141485, Note_off_c, 0, 62, 59
1, 141550, Note_on_c, 0, 58, 69
1, 141584, Note_off_c, 0, 58, 62
1, 141692, Note_on_c, 0, 60, 67
1, 141700, Note_on_c, 0, 54, 59
1, 141727, Note_off_c, 0, 54, 65
1, 141738, Note_off_c, 0, 60, 60
1, 141843, Note_on_c, 0, 58, 47
1, 141870, Note_off_c, 0, 58, 56
1, 141983, Note_on_c, 0, 56, 47
1, 141983, Note_on_c, 0, 62, 53
1, 142022, Note_off_c, 0, 56, 51
1, 142028, Note_off_c, 0, 62, 57
1, 142123, Note_on_c, 0, 58, 50
1, 142153, Note_off_c, 0, 58, 63
1, 142287, Note_on_c, 0, 54, 43
1, 142287, Note_on_c, 0, 60, 46
1, 142323, Note_off_c, 0, 54, 57
1, 142326, Note_off_c, 0, 60, 63
1, 142450, Note_on_c, 0, 58, 35
1, 142481, Note_off_c, 0, 58, 51
1, 142570, Control_c, 0, 64, 49
1, 142585, Control_c, 0, 64, 63
1, 142600, Control_c, 0, 64, 66
1, 142613, Note_on_c, 0, 62, 34
1, 142615, Control_c, 0, 64, 70
1, 142628, Note_on_c, 0, 56, 17
1, 142630, Control_c, 0, 64, 73
1, 142644, Control_c, 0, 64, 77
1, 142659, Control_c, 0, 64, 80
1, 142674, Control_c, 0, 64, 84
1, 142688, Control_c, 0, 64, 87
1, 142703, Control_c, 0, 64, 92
1, 142718, Control_c, 0, 64, 96
1, 142733, Control_c, 0, 64, 101
1, 142748, Control_c, 0, 64, 105
1, 142762, Control_c, 0, 64, 109
1, 142764, Note_off_c, 0, 56, 31
1, 142777, Control_c, 0, 64, 114
1, 142787, Note_on_c, 0, 58, 37
1, 142788, Note_off_c, 0, 62, 39
1, 142792, Control_c, 0, 64, 126
1, 142806, Control_c, 0, 64, 127
1, 142821, Note_off_c, 0, 58, 53
1, 142959, Note_on_c, 0, 60, 56
1, 142995, Note_on_c, 0, 54, 8
1, 143029, Note_off_c, 0, 60, 47
1, 143057, Note_off_c, 0, 54, 47
1, 143190, Poly_aftertouch_c, 0, 58, 127
1, 143233, Poly_aftertouch_c, 0, 58, 0
1, 143274, Control_c, 0, 64, 122
1, 143289, Control_c, 0, 64, 102
1, 143304, Note_on_c, 0, 56, 43
1, 143304, Control_c, 0, 64, 86
1, 143312, Note_on_c, 0, 62, 38
1, 143318, Control_c, 0, 64, 73
1, 143333, Control_c, 0, 64, 65
1, 143348, Control_c, 0, 64, 64
1, 143363, Control_c, 0, 64, 70
1, 143378, Control_c, 0, 64, 78
1, 143392, Control_c, 0, 64, 84
1, 143407, Control_c, 0, 64, 87
1, 143422, Control_c, 0, 64, 90
1, 143428, Note_off_c, 0, 56, 47
1, 143436, Control_c, 0, 64, 95
1, 143451, Control_c, 0, 64, 101
1, 143466, Control_c, 0, 64, 108
1, 143481, Control_c, 0, 64, 114
1, 143496, Control_c, 0, 64, 122
1, 143510, Control_c, 0, 64, 127
1, 143519, Note_on_c, 0, 58, 33
1, 143536, Note_off_c, 0, 62, 33
1, 143573, Note_off_c, 0, 58, 46
1, 143696, Control_c, 0, 64, 122
1, 143710, Control_c, 0, 64, 100
1, 143712, Note_on_c, 0, 60, 39
1, 143715, Note_on_c, 0, 54, 42
1, 143725, Control_c, 0, 64, 82
1, 143740, Control_c, 0, 64, 69
1, 143755, Control_c, 0, 64, 57
1, 143770, Control_c, 0, 64, 55
1, 143784, Control_c, 0, 64, 65
1, 143799, Control_c, 0, 64, 73
1, 143814, Control_c, 0, 64, 79
1, 143825, Note_off_c, 0, 54, 44
1, 143829, Control_c, 0, 64, 84
1, 143843, Control_c, 0, 64, 88
1, 143858, Control_c, 0, 64, 94
1, 143873, Control_c, 0, 64, 100
1, 143888, Control_c, 0, 64, 104
1, 143903, Control_c, 0, 64, 106
1, 143918, Control_c, 0, 64, 109
1, 143930, Note_off_c, 0, 60, 25
1, 143933, Control_c, 0, 64, 113
1, 143948, Note_on_c, 0, 58, 47
1, 143948, Control_c, 0, 64, 117
1, 143963, Control_c, 0, 64, 122
1, 143978, Control_c, 0, 64, 126
1, 143987, Note_off_c, 0, 58, 60
1, 143993, Control_c, 0, 64, 127
1, 144171, Control_c, 0, 64, 126
1, 144186, Note_on_c, 0, 62, 35
1, 144186, Control_c, 0, 64, 116
1, 144201, Control_c, 0, 64, 104
1, 144215, Control_c, 0, 64, 86
1, 144230, Control_c, 0, 64, 72
1, 144237, Note_on_c, 0, 56, 23
1, 144245, Control_c, 0, 64, 63
1, 144259, Control_c, 0, 64, 53
1, 144274, Control_c, 0, 64, 61
1, 144289, Control_c, 0, 64, 69
1, 144304, Control_c, 0, 64, 77
1, 144319, Control_c, 0, 64, 84
1, 144333, Control_c, 0, 64, 89
1, 144348, Control_c, 0, 64, 93
1, 144363, Control_c, 0, 64, 99
1, 144378, Control_c, 0, 64, 104
1, 144393, Control_c, 0, 64, 109
1, 144407, Control_c, 0, 64, 119
1, 144422, Control_c, 0, 64, 127
1, 144537, Note_off_c, 0, 62, 39
1, 144541, Note_on_c, 0, 58, 29
1, 144606, Note_off_c, 0, 58, 44
1, 144610, Note_off_c, 0, 56, 37
1, 144618, Note_off_c, 0, 64, 44
1, 144948, Note_on_c, 0, 64, 58
1, 144967, Note_on_c, 0, 56, 42
1, 145008, Note_on_c, 0, 59, 25
1, 145024, Control_c, 0, 64, 112
1, 145039, Control_c, 0, 64, 93
1, 145047, Note_on_c, 0, 61, 16
1, 145054, Control_c, 0, 64, 80
1, 145068, Control_c, 0, 64, 72
1, 145083, Control_c, 0, 64, 70
1, 145098, Control_c, 0, 64, 75
1, 145113, Control_c, 0, 64, 83
1, 145128, Control_c, 0, 64, 89
1, 145134, Note_off_c, 0, 61, 0
1, 145143, Control_c, 0, 64, 92
1, 145157, Control_c, 0, 64, 96
1, 145171, Poly_aftertouch_c, 0, 61, 127
1, 145172, Control_c, 0, 64, 102
1, 145194, Control_c, 0, 64, 110
1, 145197, Note_off_c, 0, 59, 41
1, 145209, Control_c, 0, 64, 123
1, 145223, Control_c, 0, 64, 127
1, 145507, Note_on_c, 0, 58, 24
1, 145738, Note_off_c, 0, 38, 42
1, 145769, Note_off_c, 0, 64, 38
1, 145825, Note_off_c, 0, 58, 40
1, 145899, Note_off_c, 0, 56, 36
1, 145906, Poly_aftertouch_c, 0, 61, 0
1, 146451, Note_on_c, 0, 39, 34
1, 146458, Note_on_c, 0, 63, 39
1, 146477, Control_c, 0, 64, 106
1, 146492, Control_c, 0, 64, 93
1, 146507, Control_c, 0, 64, 81
1, 146522, Control_c, 0, 64, 71
1, 146536, Control_c, 0, 64, 58
1, 146551, Control_c, 0, 64, 0
1, 146625, Control_c, 0, 64, 56
1, 146640, Control_c, 0, 64, 65
1, 146654, Control_c, 0, 64, 71
1, 146669, Control_c, 0, 64, 80
1, 146692, Control_c, 0, 64, 91
1, 146707, Control_c, 0, 64, 98
1, 146722, Control_c, 0, 64, 108
1, 146736, Control_c, 0, 64, 127
1, 146971, Note_off_c, 0, 63, 36
1, 147016, Note_on_c, 0, 51, 12
1, 147179, Note_off_c, 0, 51, 47
1, 147313, Note_on_c, 0, 59, 36
1, 147337, Note_on_c, 0, 56, 23
1, 147619, Note_on_c, 0, 51, 27
1, 147692, Note_off_c, 0, 51, 43
1, 148088, Note_on_c, 0, 61, 42
1, 148098, Note_on_c, 0, 51, 22
1, 148197, Note_off_c, 0, 51, 38
1, 148352, Note_on_c, 0, 63, 51
1, 148398, Note_off_c, 0, 56, 18
1, 148449, Note_off_c, 0, 59, 12
1, 148568, Note_on_c, 0, 51, 16
1, 148621, Note_off_c, 0, 51, 48
1, 148704, Note_off_c, 0, 63, 28
1, 148756, Note_on_c, 0, 64, 57
1, 148770, Note_off_c, 0, 61, 38
1, 148791, Note_on_c, 0, 59, 41
1, 148831, Note_on_c, 0, 56, 12
1, 148889, Note_off_c, 0, 56, 47
1, 148919, Note_off_c, 0, 59, 49
1, 148990, Note_off_c, 0, 64, 63
1, 149018, Note_on_c, 0, 51, 24
1, 149146, Note_off_c, 0, 51, 35
1, 149358, Note_on_c, 0, 66, 60
1, 149365, Note_on_c, 0, 51, 36
1, 149393, Note_off_c, 0, 39, 38
1, 149406, Note_off_c, 0, 66, 55
1, 149416, Note_off_c, 0, 51, 53
1, 149503, Note_on_c, 0, 68, 48
1, 149526, Note_off_c, 0, 68, 59
1, 149552, Note_on_c, 0, 70, 51
1, 149561, Control_c, 0, 64, 105
1, 149576, Control_c, 0, 64, 79
1, 149583, Note_on_c, 0, 68, 59
1, 149590, Note_off_c, 0, 70, 59
1, 149591, Control_c, 0, 64, 59
1, 149594, Note_on_c, 0, 39, 38
1, 149606, Control_c, 0, 64, 0
1, 149635, Control_c, 0, 64, 62
1, 149650, Control_c, 0, 64, 70
1, 149665, Control_c, 0, 64, 82
1, 149676, Note_off_c, 0, 39, 55
1, 149687, Control_c, 0, 64, 99
1, 149702, Note_off_c, 0, 68, 59
1, 149702, Control_c, 0, 64, 127
1, 149881, Note_on_c, 0, 66, 51
1, 149904, Note_on_c, 0, 59, 30
1, 149915, Note_on_c, 0, 64, 23
1, 149974, Note_off_c, 0, 64, 42
1, 149999, Note_off_c, 0, 59, 38
1, 150074, Note_off_c, 0, 66, 47
1, 150091, Note_on_c, 0, 68, 64
1, 150272, Note_on_c, 0, 64, 39
1, 150304, Note_off_c, 0, 64, 54
1, 150368, Control_c, 0, 67, 121
1, 150383, Control_c, 0, 67, 113
1, 150398, Control_c, 0, 67, 104
1, 150413, Control_c, 0, 67, 92
1, 150434, Control_c, 0, 67, 80
1, 150449, Note_on_c, 0, 59, 54
1, 150449, Control_c, 0, 67, 66
1, 150464, Control_c, 0, 67, 56
1, 150479, Control_c, 0, 67, 46
1, 150494, Control_c, 0, 67, 36
1, 150509, Control_c, 0, 67, 27
1, 150515, Note_off_c, 0, 59, 55
1, 150523, Control_c, 0, 67, 17
1, 150538, Control_c, 0, 67, 9
1, 150553, Control_c, 0, 67, 0
1, 150633, Note_on_c, 0, 70, 62
1, 150646, Note_on_c, 0, 59, 45
1, 150652, Note_off_c, 0, 68, 53
1, 150674, Note_off_c, 0, 59, 58
1, 150802, Note_on_c, 0, 68, 61
1, 150829, Note_off_c, 0, 70, 37
1, 150938, Control_c, 0, 64, 114
1, 150953, Control_c, 0, 64, 93
1, 150959, Note_on_c, 0, 39, 53
1, 150968, Control_c, 0, 64, 86
1, 150983, Control_c, 0, 64, 87
1, 150997, Control_c, 0, 64, 94
1, 150998, Note_on_c, 0, 64, 51
1, 151012, Control_c, 0, 64, 107
1, 151027, Control_c, 0, 64, 127
1, 151027, Note_off_c, 0, 68, 59
1, 151060, Note_off_c, 0, 39, 37
1, 151147, Note_on_c, 0, 66, 66
1, 151202, Note_off_c, 0, 64, 38
1, 151326, Note_on_c, 0, 59, 51
1, 151361, Note_off_c, 0, 59, 62
1, 151486, Note_on_c, 0, 59, 43
1, 151513, Note_off_c, 0, 59, 59
1, 151594, Note_on_c, 0, 64, 50
1, 151619, Note_off_c, 0, 64, 61
1, 151690, Note_off_c, 0, 66, 59
1, 151693, Note_on_c, 0, 68, 62
1, 151721, Note_off_c, 0, 68, 66
1, 151856, Note_on_c, 0, 61, 46
1, 151886, Note_off_c, 0, 61, 54
1, 151897, Note_on_c, 0, 63, 57
1, 151932, Note_on_c, 0, 39, 56
1, 151945, Note_off_c, 0, 63, 59
1, 151948, Control_c, 0, 64, 116
1, 151952, Note_on_c, 0, 61, 69
1, 151963, Control_c, 0, 64, 86
1, 151978, Control_c, 0, 64, 67
1, 151993, Control_c, 0, 64, 0
1, 152022, Control_c, 0, 64, 53
1, 152037, Control_c, 0, 64, 67
1, 152052, Control_c, 0, 64, 77
1, 152067, Control_c, 0, 64, 86
1, 152081, Control_c, 0, 64, 92
1, 152096, Control_c, 0, 64, 95
1, 152111, Control_c, 0, 64, 97
1, 152126, Control_c, 0, 64, 99
1, 152141, Control_c, 0, 64, 100
1, 152156, Note_off_c, 0, 61, 57
1, 152169, Note_on_c, 0, 59, 60
1, 152177, Note_on_c, 0, 52, 45
1, 152199, Note_on_c, 0, 56, 48
1, 152199, Control_c, 0, 64, 99
1, 152214, Control_c, 0, 64, 93
1, 152229, Control_c, 0, 64, 85
1, 152244, Control_c, 0, 64, 77
1, 152259, Control_c, 0, 64, 73
1, 152273, Control_c, 0, 64, 68
1, 152288, Control_c, 0, 64, 64
1, 152303, Control_c, 0, 64, 56
1, 152318, Control_c, 0, 64, 50
1, 152333, Control_c, 0, 64, 51
1, 152348, Control_c, 0, 64, 53
1, 152363, Control_c, 0, 64, 51
1, 152366, Note_on_c, 0, 61, 65
1, 152378, Control_c, 0, 64, 46
1, 152392, Control_c, 0, 64, 42
1, 152393, Note_off_c, 0, 56, 45
1, 152402, Note_off_c, 0, 59, 57
1, 152452, Control_c, 0, 64, 43
1, 152466, Control_c, 0, 64, 54
1, 152481, Control_c, 0, 64, 64
1, 152496, Control_c, 0, 64, 72
1, 152507, Note_off_c, 0, 52, 55
1, 152511, Control_c, 0, 64, 77
1, 152516, Note_on_c, 0, 46, 49
1, 152526, Control_c, 0, 64, 80
1, 152540, Control_c, 0, 64, 83
1, 152555, Control_c, 0, 64, 87
1, 152570, Control_c, 0, 64, 94
1, 152585, Control_c, 0, 64, 102
1, 152599, Control_c, 0, 64, 108
1, 152614, Control_c, 0, 64, 114
1, 152629, Control_c, 0, 64, 127
1, 152681, Note_on_c, 0, 56, 63
1, 152836, Note_on_c, 0, 63, 74
1, 152844, Note_on_c, 0, 52, 43
1, 152876, Note_off_c, 0, 61, 62
1, 152920, Note_off_c, 0, 56, 33
1, 153018, Note_on_c, 0, 61, 72
1, 153052, Control_c, 0, 64, 109
1, 153067, Control_c, 0, 64, 82
1, 153082, Control_c, 0, 64, 67
1, 153089, Note_off_c, 0, 63, 45
1, 153096, Control_c, 0, 64, 52
1, 153111, Control_c, 0, 64, 56
1, 153126, Control_c, 0, 64, 65
1, 153141, Control_c, 0, 64, 74
1, 153156, Control_c, 0, 64, 84
1, 153171, Control_c, 0, 64, 92
1, 153176, Note_off_c, 0, 52, 39
1, 153185, Control_c, 0, 64, 95
1, 153200, Control_c, 0, 64, 96
1, 153215, Note_on_c, 0, 59, 45
1, 153215, Control_c, 0, 64, 97
1, 153230, Control_c, 0, 64, 98
1, 153245, Control_c, 0, 64, 99
1, 153251, Note_off_c, 0, 59, 51
1, 153260, Control_c, 0, 64, 100
1, 153274, Poly_aftertouch_c, 0, 56, 127
1, 153275, Control_c, 0, 64, 102
1, 153289, Control_c, 0, 64, 103
1, 153303, Poly_aftertouch_c, 0, 56, 0
1, 153304, Control_c, 0, 64, 103
1, 153365, Note_on_c, 0, 59, 57
1, 153378, Control_c, 0, 64, 103
1, 153393, Control_c, 0, 64, 102
1, 153408, Control_c, 0, 64, 100
1, 153430, Control_c, 0, 64, 97
1, 153445, Control_c, 0, 64, 94
1, 153460, Control_c, 0, 64, 87
1, 153475, Control_c, 0, 64, 78
1, 153486, Note_off_c, 0, 61, 37
1, 153489, Control_c, 0, 64, 68
1, 153504, Control_c, 0, 64, 55
1, 153519, Control_c, 0, 64, 0
1, 153549, Control_c, 0, 64, 17
1, 153559, Note_on_c, 0, 52, 38
1, 153564, Control_c, 0, 64, 54
1, 153579, Control_c, 0, 64, 63
1, 153593, Control_c, 0, 64, 65
1, 153608, Control_c, 0, 64, 67
1, 153623, Control_c, 0, 64, 70
1, 153638, Control_c, 0, 64, 75
1, 153652, Control_c, 0, 64, 80
1, 153667, Control_c, 0, 64, 86
1, 153682, Control_c, 0, 64, 93
1, 153697, Control_c, 0, 64, 99
1, 153707, Note_off_c, 0, 46, 36
1, 153712, Control_c, 0, 64, 105
1, 153726, Control_c, 0, 64, 113
1, 153741, Control_c, 0, 64, 127
1, 153754, Note_on_c, 0, 56, 43
1, 153773, Note_off_c, 0, 52, 37
1, 153815, Control_c, 0, 67, 10
1, 153830, Control_c, 0, 67, 18
1, 153844, Control_c, 0, 67, 30
1, 153859, Note_off_c, 0, 56, 38
1, 153859, Control_c, 0, 67, 42
1, 153868, Note_on_c, 0, 46, 34
1, 153874, Control_c, 0, 67, 55
1, 153889, Control_c, 0, 67, 69
1, 153893, Note_off_c, 0, 39, 31
1, 153904, Control_c, 0, 67, 84
1, 153919, Control_c, 0, 67, 101
1, 153934, Control_c, 0, 67, 117
1, 153949, Control_c, 0, 67, 127
1, 153949, Note_off_c, 0, 59, 28
1, 153976, Note_on_c, 0, 63, 55
1, 154036, Note_off_c, 0, 63, 49
1, 154065, Note_off_c, 0, 46, 38
1, 154115, Note_on_c, 0, 61, 50
1, 154126, Control_c, 0, 64, 114
1, 154141, Control_c, 0, 64, 96
1, 154156, Control_c, 0, 64, 83
1, 154169, Note_on_c, 0, 63, 51
1, 154177, Note_off_c, 0, 61, 0
1, 154178, Control_c, 0, 64, 71
1, 154192, Note_on_c, 0, 61, 51
1, 154193, Control_c, 0, 64, 53
1, 154203, Note_off_c, 0, 63, 63
1, 154205, Note_on_c, 0, 39, 44
1, 154208, Control_c, 0, 64, 0
1, 154411, Note_off_c, 0, 61, 54
1, 154421, Note_on_c, 0, 59, 48
1, 154445, Note_on_c, 0, 52, 32
1, 154464, Note_on_c, 0, 56, 37
1, 154509, Note_off_c, 0, 56, 48
1, 154616, Note_on_c, 0, 61, 59
1, 154616, Note_off_c, 0, 59, 56
1, 154764, Note_off_c, 0, 52, 41
1, 154804, Note_on_c, 0, 46, 20
1, 154954, Note_on_c, 0, 56, 36
1, 155001, Control_c, 0, 64, 44
1, 155016, Control_c, 0, 64, 62
1, 155031, Control_c, 0, 64, 67
1, 155046, Control_c, 0, 64, 73
1, 155061, Control_c, 0, 64, 77
1, 155075, Control_c, 0, 64, 78
1, 155133, Note_on_c, 0, 52, 36
1, 155135, Note_off_c, 0, 61, 53
1, 155135, Control_c, 0, 64, 76
1, 155143, Note_on_c, 0, 63, 48
1, 155151, Control_c, 0, 64, 72
1, 155165, Control_c, 0, 64, 65
1, 155172, Note_off_c, 0, 56, 44
1, 155180, Control_c, 0, 64, 47
1, 155195, Control_c, 0, 64, 0
1, 155239, Control_c, 0, 64, 19
1, 155254, Control_c, 0, 64, 58
1, 155269, Control_c, 0, 64, 63
1, 155284, Control_c, 0, 64, 63
1, 155299, Control_c, 0, 64, 56
1, 155314, Control_c, 0, 64, 39
1, 155329, Control_c, 0, 64, 0
1, 155344, Note_on_c, 0, 61, 52
1, 155347, Note_off_c, 0, 63, 50
1, 155403, Control_c, 0, 64, 47
1, 155417, Control_c, 0, 64, 65
1, 155432, Control_c, 0, 64, 72
1, 155447, Control_c, 0, 64, 77
1, 155462, Control_c, 0, 64, 78
1, 155477, Control_c, 0, 64, 79
1, 155491, Control_c, 0, 64, 80
1, 155506, Control_c, 0, 64, 81
1, 155521, Control_c, 0, 64, 83
1, 155535, Control_c, 0, 64, 84
1, 155550, Control_c, 0, 64, 85
1, 155554, Note_on_c, 0, 59, 33
1, 155565, Control_c, 0, 64, 86
1, 155580, Control_c, 0, 64, 86
1, 155595, Control_c, 0, 64, 87
1, 155602, Note_off_c, 0, 59, 48
1, 155609, Control_c, 0, 64, 88
1, 155616, Poly_aftertouch_c, 0, 56, 0
1, 155624, Control_c, 0, 64, 89
1, 155639, Control_c, 0, 64, 90
1, 155654, Control_c, 0, 64, 91
1, 155713, Note_off_c, 0, 52, 41
1, 155737, Note_on_c, 0, 59, 34
1, 155780, Control_c, 0, 64, 91
1, 155810, Control_c, 0, 64, 89
1, 155824, Control_c, 0, 64, 84
1, 155835, Note_off_c, 0, 61, 25
1, 155839, Control_c, 0, 64, 74
1, 155854, Control_c, 0, 64, 64
1, 155869, Control_c, 0, 64, 0
1, 155913, Control_c, 0, 64, 57
1, 155928, Control_c, 0, 64, 66
1, 155943, Note_on_c, 0, 52, 26
1, 155944, Control_c, 0, 64, 73
1, 155959, Control_c, 0, 64, 76
1, 155974, Control_c, 0, 64, 79
1, 155988, Control_c, 0, 64, 81
1, 156003, Control_c, 0, 64, 84
1, 156018, Control_c, 0, 64, 90
1, 156033, Control_c, 0, 64, 94
1, 156047, Control_c, 0, 64, 98
1, 156062, Control_c, 0, 64, 103
1, 156071, Note_off_c, 0, 46, 35
1, 156077, Control_c, 0, 64, 107
1, 156092, Control_c, 0, 64, 113
1, 156100, Note_off_c, 0, 52, 45
1, 156107, Control_c, 0, 64, 124
1, 156122, Control_c, 0, 64, 127
1, 156161, Note_on_c, 0, 56, 34
1, 156181, Control_c, 0, 67, 123
1, 156182, Note_off_c, 0, 39, 37
1, 156196, Control_c, 0, 67, 118
1, 156211, Control_c, 0, 67, 113
1, 156226, Control_c, 0, 67, 107
1, 156240, Control_c, 0, 67, 96
1, 156255, Control_c, 0, 67, 85
1, 156270, Control_c, 0, 67, 76
1, 156285, Control_c, 0, 67, 68
1, 156300, Control_c, 0, 67, 61
1, 156300, Note_off_c, 0, 56, 34
1, 156310, Note_off_c, 0, 59, 35
1, 156314, Control_c, 0, 67, 54
1, 156329, Control_c, 0, 67, 44
1, 156344, Note_on_c, 0, 46, 25
1, 156344, Control_c, 0, 67, 36
1, 156358, Control_c, 0, 67, 29
1, 156373, Control_c, 0, 67, 21
1, 156384, Note_on_c, 0, 63, 45
1, 156388, Control_c, 0, 67, 13
1, 156403, Control_c, 0, 67, 0
1, 156458, Note_off_c, 0, 63, 52
1, 156502, Note_off_c, 0, 46, 42
1, 156533, Note_on_c, 0, 61, 53
1, 156593, Note_on_c, 0, 63, 47
1, 156603, Note_off_c, 0, 61, 0
1, 156620, Note_on_c, 0, 61, 47
1, 156622, Note_off_c, 0, 63, 62
1, 156633, Control_c, 0, 64, 110
1, 156637, Note_on_c, 0, 39, 39
1, 156647, Control_c, 0, 64, 89
1, 156662, Control_c, 0, 64, 74
1, 156677, Control_c, 0, 64, 58
1, 156692, Control_c, 0, 64, 0
1, 156721, Control_c, 0, 64, 54
1, 156737, Control_c, 0, 64, 65
1, 156752, Control_c, 0, 64, 72
1, 156767, Control_c, 0, 64, 77
1, 156782, Control_c, 0, 64, 80
1, 156796, Control_c, 0, 64, 82
1, 156811, Control_c, 0, 64, 84
1, 156826, Control_c, 0, 64, 86
1, 156839, Note_on_c, 0, 56, 42
1, 156839, Note_on_c, 0, 59, 54
1, 156841, Control_c, 0, 64, 88
1, 156855, Note_on_c, 0, 52, 42
1, 156856, Control_c, 0, 64, 91
1, 156861, Note_off_c, 0, 61, 36
1, 156870, Control_c, 0, 64, 93
1, 156885, Control_c, 0, 64, 95
1, 156900, Control_c, 0, 64, 97
1, 156915, Control_c, 0, 64, 98
1, 156930, Control_c, 0, 64, 99
1, 156944, Control_c, 0, 64, 100
1, 156959, Control_c, 0, 64, 101
1, 156974, Control_c, 0, 64, 102
1, 156989, Control_c, 0, 64, 103
1, 157003, Note_on_c, 0, 61, 71
1, 157004, Control_c, 0, 64, 105
1, 157019, Control_c, 0, 64, 106
1, 157034, Control_c, 0, 64, 107
1, 157049, Control_c, 0, 64, 107
1, 157063, Control_c, 0, 64, 108
1, 157078, Control_c, 0, 64, 109
1, 157093, Control_c, 0, 64, 110
1, 157108, Control_c, 0, 64, 111
1, 157123, Control_c, 0, 64, 112
1, 157137, Control_c, 0, 64, 114
1, 157139, Note_off_c, 0, 56, 38
1, 157152, Control_c, 0, 64, 118
1, 157165, Note_on_c, 0, 63, 71
1, 157174, Control_c, 0, 64, 122
1, 157176, Note_on_c, 0, 46, 54
1, 157189, Control_c, 0, 64, 127
1, 157205, Note_off_c, 0, 52, 41
1, 157238, Note_off_c, 0, 59, 34
1, 157266, Note_off_c, 0, 61, 36
1, 157319, Note_on_c, 0, 56, 68
1, 157462, Note_on_c, 0, 61, 79
1, 157478, Note_on_c, 0, 52, 52
1, 157530, Note_off_c, 0, 56, 56
1, 157547, Note_off_c, 0, 63, 37
1, 157616, Note_on_c, 0, 66, 77
1, 157687, Note_off_c, 0, 66, 61
1, 157773, Note_on_c, 0, 64, 80
1, 157811, Note_on_c, 0, 58, 49
1, 157812, Control_c, 0, 64, 98
1, 157827, Control_c, 0, 64, 77
1, 157842, Control_c, 0, 64, 60
1, 157857, Control_c, 0, 64, 0
1, 157886, Control_c, 0, 64, 51
1, 157901, Control_c, 0, 64, 66
1, 157919, Note_off_c, 0, 61, 53
1, 157924, Control_c, 0, 64, 76
1, 157938, Control_c, 0, 64, 84
1, 157942, Note_on_c, 0, 56, 65
1, 157953, Control_c, 0, 64, 92
1, 157968, Control_c, 0, 64, 97
1, 157983, Control_c, 0, 64, 102
1, 157998, Control_c, 0, 64, 107
1, 158006, Note_off_c, 0, 52, 28
1, 158012, Control_c, 0, 64, 117
1, 158026, Control_c, 0, 64, 127
1, 158086, Note_on_c, 0, 63, 86
1, 158097, Note_on_c, 0, 52, 57
1, 158116, Note_off_c, 0, 64, 64
1, 158120, Note_off_c, 0, 46, 40
1, 158122, Note_off_c, 0, 56, 48
1, 158134, Note_off_c, 0, 58, 51
1, 158257, Note_on_c, 0, 61, 85
1, 158299, Note_off_c, 0, 63, 58
1, 158413, Note_on_c, 0, 56, 74
1, 158413, Note_off_c, 0, 61, 56
1, 158420, Note_on_c, 0, 46, 48
1, 158442, Note_off_c, 0, 39, 41
1, 158453, Note_off_c, 0, 52, 40
1, 158494, Note_off_c, 0, 56, 60
1, 158504, Note_on_c, 0, 61, 69
1, 158539, Note_off_c, 0, 46, 0
1, 158539, Note_off_c, 0, 61, 62
1, 158547, Note_on_c, 0, 63, 72
1, 158574, Poly_aftertouch_c, 0, 46, 0
1, 158605, Note_on_c, 0, 61, 75
1, 158611, Note_on_c, 0, 39, 54
1, 158618, Note_off_c, 0, 63, 56
1, 158620, Control_c, 0, 64, 101
1, 158635, Control_c, 0, 64, 80
1, 158649, Control_c, 0, 64, 62
1, 158672, Control_c, 0, 64, 0
1, 158731, Control_c, 0, 64, 50
1, 158746, Control_c, 0, 64, 67
1, 158761, Control_c, 0, 64, 75
1, 158775, Control_c, 0, 64, 82
1, 158790, Control_c, 0, 64, 85
1, 158805, Control_c, 0, 64, 86
1, 158820, Control_c, 0, 64, 86
1, 158828, Note_on_c, 0, 59, 78
1, 158835, Control_c, 0, 64, 87
1, 158837, Note_on_c, 0, 52, 52
1, 158849, Control_c, 0, 64, 87
1, 158852, Note_off_c, 0, 61, 58
1, 158853, Note_on_c, 0, 56, 48
1, 158864, Control_c, 0, 64, 88
1, 158939, Control_c, 0, 64, 88
1, 158953, Control_c, 0, 64, 87
1, 158968, Control_c, 0, 64, 86
1, 158983, Control_c, 0, 64, 85
1, 158998, Control_c, 0, 64, 84
1, 159020, Note_on_c, 0, 61, 80
1, 159074, Note_off_c, 0, 56, 38
1, 159102, Control_c, 0, 64, 85
1, 159198, Note_on_c, 0, 46, 58
1, 159199, Note_on_c, 0, 63, 77
1, 159236, Note_off_c, 0, 61, 55
1, 159265, Control_c, 0, 64, 85
1, 159295, Control_c, 0, 64, 86
1, 159296, Note_off_c, 0, 52, 35
1, 159310, Control_c, 0, 64, 86
1, 159339, Control_c, 0, 64, 87
1, 159354, Control_c, 0, 64, 87
1, 159377, Note_off_c, 0, 59, 21
1, 159414, Note_on_c, 0, 56, 80
1, 159421, Control_c, 0, 64, 88
1, 159436, Control_c, 0, 64, 87
1, 159451, Control_c, 0, 64, 85
1, 159465, Control_c, 0, 64, 79
1, 159480, Control_c, 0, 64, 73
1, 159495, Control_c, 0, 64, 68
1, 159510, Control_c, 0, 64, 67
1, 159525, Control_c, 0, 64, 71
1, 159539, Control_c, 0, 64, 78
1, 159554, Control_c, 0, 64, 83
1, 159569, Control_c, 0, 64, 87
1, 159583, Control_c, 0, 64, 89
1, 159598, Control_c, 0, 64, 91
1, 159613, Control_c, 0, 64, 92
1, 159628, Control_c, 0, 64, 92
1, 159632, Note_on_c, 0, 61, 81
1, 159636, Note_on_c, 0, 52, 64
1, 159643, Control_c, 0, 64, 93
1, 159657, Control_c, 0, 64, 93
1, 159662, Note_off_c, 0, 63, 58
1, 159687, Control_c, 0, 64, 94
1, 159702, Control_c, 0, 64, 95
1, 159717, Control_c, 0, 64, 96
1, 159806, Control_c, 0, 64, 96
1, 159895, Note_on_c, 0, 63, 82
1, 159924, Control_c, 0, 64, 93
1, 159931, Note_off_c, 0, 61, 60
1, 159940, Control_c, 0, 64, 85
1, 159955, Control_c, 0, 64, 75
1, 159970, Control_c, 0, 64, 64
1, 159978, Note_off_c, 0, 56, 60
1, 159985, Control_c, 0, 64, 30
1, 160000, Control_c, 0, 64, 28
1, 160014, Control_c, 0, 64, 59
1, 160029, Control_c, 0, 64, 68
1, 160044, Control_c, 0, 64, 76
1, 160059, Control_c, 0, 64, 84
1, 160074, Control_c, 0, 64, 90
1, 160088, Control_c, 0, 64, 92
1, 160103, Control_c, 0, 64, 94
1, 160105, Poly_aftertouch_c, 0, 48, 127
1, 160118, Control_c, 0, 64, 95
1, 160133, Control_c, 0, 64, 97
1, 160148, Control_c, 0, 64, 99
1, 160170, Control_c, 0, 64, 101
1, 160185, Control_c, 0, 64, 102
1, 160199, Control_c, 0, 64, 103
1, 160208, Note_on_c, 0, 56, 70
1, 160211, Note_on_c, 0, 58, 68
1, 160259, Control_c, 0, 64, 102
1, 160274, Control_c, 0, 64, 95
1, 160289, Control_c, 0, 64, 81
1, 160304, Control_c, 0, 64, 72
1, 160319, Control_c, 0, 64, 65
1, 160348, Control_c, 0, 64, 69
1, 160363, Control_c, 0, 64, 75
1, 160378, Control_c, 0, 64, 80
1, 160393, Control_c, 0, 64, 84
1, 160407, Control_c, 0, 64, 86
1, 160422, Control_c, 0, 64, 88
1, 160437, Control_c, 0, 64, 90
1, 160452, Control_c, 0, 64, 92
1, 160467, Control_c, 0, 64, 92
1, 160481, Control_c, 0, 64, 94
1, 160496, Control_c, 0, 64, 95
1, 160507, Note_on_c, 0, 61, 81
1, 160511, Control_c, 0, 64, 95
1, 160526, Control_c, 0, 64, 96
1, 160530, Note_off_c, 0, 63, 62
1, 160540, Control_c, 0, 64, 97
1, 160555, Control_c, 0, 64, 97
1, 160563, Note_off_c, 0, 52, 53
1, 160570, Control_c, 0, 64, 98
1, 160644, Control_c, 0, 64, 98
1, 160718, Control_c, 0, 64, 99
1, 160837, Control_c, 0, 64, 98
1, 160869, Note_on_c, 0, 52, 46
1, 160882, Control_c, 0, 64, 98
1, 160897, Control_c, 0, 64, 97
1, 160919, Control_c, 0, 64, 96
1, 160934, Control_c, 0, 64, 95
1, 160949, Control_c, 0, 64, 94
1, 160956, Note_on_c, 0, 63, 74
1, 160963, Control_c, 0, 64, 92
1, 160978, Control_c, 0, 64, 90
1, 160983, Note_off_c, 0, 61, 55
1, 160993, Control_c, 0, 64, 88
1, 161008, Control_c, 0, 64, 86
1, 161023, Control_c, 0, 64, 83
1, 161037, Control_c, 0, 64, 79
1, 161052, Control_c, 0, 64, 73
1, 161067, Control_c, 0, 64, 65
1, 161082, Control_c, 0, 64, 0
1, 161171, Control_c, 0, 64, 58
1, 161186, Control_c, 0, 64, 67
1, 161201, Control_c, 0, 64, 72
1, 161216, Control_c, 0, 64, 76
1, 161230, Control_c, 0, 64, 79
1, 161245, Control_c, 0, 64, 82
1, 161260, Control_c, 0, 64, 85
1, 161275, Control_c, 0, 64, 88
1, 161290, Control_c, 0, 64, 92
1, 161296, Note_off_c, 0, 56, 59
1, 161304, Control_c, 0, 64, 95
1, 161319, Control_c, 0, 64, 97
1, 161334, Control_c, 0, 64, 99
1, 161349, Control_c, 0, 64, 100
1, 161363, Control_c, 0, 64, 100
1, 161423, Control_c, 0, 67, 8
1, 161437, Control_c, 0, 67, 11
1, 161452, Control_c, 0, 67, 15
1, 161467, Control_c, 0, 67, 19
1, 161481, Control_c, 0, 67, 23
1, 161496, Control_c, 0, 67, 27
1, 161511, Control_c, 0, 67, 29
1, 161526, Control_c, 0, 64, 99
1, 161526, Control_c, 0, 67, 32
1, 161542, Control_c, 0, 64, 97
1, 161542, Control_c, 0, 67, 34
1, 161557, Control_c, 0, 64, 94
1, 161557, Control_c, 0, 67, 35
1, 161572, Control_c, 0, 64, 89
1, 161572, Control_c, 0, 67, 37
1, 161586, Control_c, 0, 64, 83
1, 161586, Control_c, 0, 67, 38
1, 161601, Control_c, 0, 64, 76
1, 161601, Control_c, 0, 67, 39
1, 161606, Note_on_c, 0, 55, 49
1, 161616, Control_c, 0, 64, 67
1, 161616, Control_c, 0, 67, 40
1, 161631, Control_c, 0, 64, 54
1, 161631, Control_c, 0, 67, 41
1, 161646, Control_c, 0, 64, 0
1, 161646, Control_c, 0, 67, 42
1, 161668, Control_c, 0, 67, 42
1, 161683, Control_c, 0, 67, 43
1, 161698, Control_c, 0, 67, 44
1, 161713, Control_c, 0, 67, 45
1, 161728, Control_c, 0, 67, 47
1, 161742, Control_c, 0, 67, 49
1, 161757, Control_c, 0, 64, 57
1, 161757, Control_c, 0, 67, 50
1, 161771, Control_c, 0, 64, 65
1, 161771, Control_c, 0, 67, 53
1, 161785, Control_c, 0, 64, 70
1, 161785, Control_c, 0, 67, 55
1, 161800, Control_c, 0, 64, 74
1, 161800, Control_c, 0, 67, 58
1, 161815, Control_c, 0, 64, 78
1, 161815, Control_c, 0, 67, 63
1, 161830, Note_off_c, 0, 52, 52
1, 161830, Control_c, 0, 64, 81
1, 161830, Control_c, 0, 67, 69
1, 161845, Control_c, 0, 64, 84
1, 161845, Control_c, 0, 67, 75
1, 161860, Control_c, 0, 64, 88
1, 161860, Control_c, 0, 67, 81
1, 161875, Control_c, 0, 64, 92
1, 161875, Control_c, 0, 67, 88
1, 161890, Control_c, 0, 64, 95
1, 161890, Control_c, 0, 67, 94
1, 161899, Poly_aftertouch_c, 0, 48, 0
1, 161905, Control_c, 0, 64, 99
1, 161905, Control_c, 0, 67, 102
1, 161911, Note_off_c, 0, 63, 39
1, 161919, Control_c, 0, 64, 103
1, 161919, Control_c, 0, 67, 113
1, 161934, Control_c, 0, 64, 106
1, 161934, Control_c, 0, 67, 120
1, 161949, Control_c, 0, 64, 109
1, 161949, Control_c, 0, 67, 126
1, 161964, Control_c, 0, 64, 111
1, 161964, Control_c, 0, 67, 127
1, 161978, Control_c, 0, 64, 112
1, 161993, Control_c, 0, 64, 113
1, 162008, Control_c, 0, 64, 115
1, 162023, Control_c, 0, 64, 119
1, 162038, Control_c, 0, 64, 127
1, 162490, Control_c, 0, 64, 119
1, 162505, Control_c, 0, 64, 116
1, 162519, Control_c, 0, 64, 113
1, 162534, Control_c, 0, 64, 111
1, 162548, Control_c, 0, 64, 108
1, 162563, Control_c, 0, 64, 105
1, 162578, Control_c, 0, 64, 101
1, 162593, Control_c, 0, 64, 97
1, 162608, Note_on_c, 0, 61, 44
1, 162608, Control_c, 0, 64, 92
1, 162614, Note_on_c, 0, 51, 33
1, 162623, Control_c, 0, 64, 86
1, 162638, Control_c, 0, 64, 79
1, 162653, Control_c, 0, 64, 71
1, 162668, Control_c, 0, 64, 60
1, 162682, Control_c, 0, 64, 0
1, 163022, Control_c, 0, 64, 56
1, 163037, Control_c, 0, 64, 65
1, 163052, Control_c, 0, 64, 71
1, 163053, Note_off_c, 0, 46, 29
1, 163067, Control_c, 0, 64, 75
1, 163082, Control_c, 0, 64, 78
1, 163097, Control_c, 0, 64, 81
1, 163112, Control_c, 0, 64, 84
1, 163127, Control_c, 0, 64, 89
1, 163142, Control_c, 0, 64, 95
1, 163164, Control_c, 0, 64, 100
1, 163170, Note_off_c, 0, 39, 33
1, 163179, Control_c, 0, 64, 105
1, 163194, Control_c, 0, 64, 111
1, 163209, Control_c, 0, 64, 124
1, 163212, Note_off_c, 0, 55, 40
1, 163221, Note_off_c, 0, 51, 44
1, 163224, Control_c, 0, 64, 127
1, 163228, Note_off_c, 0, 58, 31
1, 163249, Note_off_c, 0, 61, 39
1, 165373, Note_on_c, 0, 70, 52
1, 165388, Control_c, 0, 64, 112
1, 165391, Note_on_c, 0, 44, 34
1, 165410, Control_c, 0, 64, 98
1, 165425, Control_c, 0, 64, 84
1, 165440, Control_c, 0, 64, 70
1, 165455, Control_c, 0, 64, 47
1, 165470, Control_c, 0, 64, 0
1, 165529, Control_c, 0, 64, 60
1, 165544, Control_c, 0, 64, 66
1, 165559, Control_c, 0, 64, 72
1, 165574, Control_c, 0, 64, 80
1, 165589, Control_c, 0, 64, 88
1, 165604, Control_c, 0, 64, 97
1, 165619, Control_c, 0, 64, 107
1, 165633, Control_c, 0, 64, 120
1, 165648, Control_c, 0, 64, 127
1, 165898, Note_on_c, 0, 55, 23
1, 165904, Note_on_c, 0, 61, 25
1, 165974, Note_off_c, 0, 61, 41
1, 165994, Note_off_c, 0, 44, 43
1, 166052, Note_off_c, 0, 70, 62
1, 166111, Note_off_c, 0, 55, 53
1, 166274, Note_on_c, 0, 72, 44
1, 166572, Note_on_c, 0, 65, 34
1, 166579, Note_on_c, 0, 61, 28
1, 166756, Note_off_c, 0, 65, 34
1, 166787, Note_off_c, 0, 61, 37
1, 166850, Note_on_c, 0, 63, 36
1, 166930, Note_off_c, 0, 63, 56
1, 167097, Note_on_c, 0, 73, 54
1, 167132, Note_off_c, 0, 72, 44
1, 167137, Note_on_c, 0, 67, 35
1, 167208, Note_off_c, 0, 67, 54
1, 167239, Note_off_c, 0, 73, 60
1, 167377, Note_on_c, 0, 75, 60
1, 167386, Note_on_c, 0, 73, 47
1, 167488, Note_off_c, 0, 73, 39
1, 167668, Note_on_c, 0, 67, 25
1, 167709, Note_off_c, 0, 67, 53
1, 167881, Note_on_c, 0, 77, 59
1, 167951, Note_off_c, 0, 75, 37
1, 168141, Note_on_c, 0, 63, 33
1, 168165, Note_on_c, 0, 73, 22
1, 168232, Note_off_c, 0, 63, 49
1, 168439, Note_on_c, 0, 67, 33
1, 168469, Note_off_c, 0, 73, 44
1, 168541, Note_off_c, 0, 67, 55
1, 168799, Note_on_c, 0, 51, 24
1, 168827, Note_on_c, 0, 79, 56
1, 168911, Note_off_c, 0, 77, 35
1, 168965, Note_off_c, 0, 51, 41
1, 169149, Note_off_c, 0, 79, 54
1, 169286, Note_on_c, 0, 44, 27
1, 169403, Note_on_c, 0, 77, 44
1, 169449, Note_off_c, 0, 77, 59
1, 169450, Control_c, 0, 64, 124
1, 169465, Control_c, 0, 64, 112
1, 169480, Control_c, 0, 64, 104
1, 169481, Note_on_c, 0, 79, 54
1, 169494, Control_c, 0, 64, 99
1, 169509, Control_c, 0, 64, 94
1, 169525, Control_c, 0, 64, 90
1, 169537, Note_off_c, 0, 79, 55
1, 169540, Control_c, 0, 64, 87
1, 169555, Control_c, 0, 64, 83
1, 169570, Note_on_c, 0, 77, 51
1, 169570, Control_c, 0, 64, 79
1, 169585, Control_c, 0, 64, 74
1, 169599, Control_c, 0, 64, 68
1, 169610, Note_off_c, 0, 77, 59
1, 169614, Control_c, 0, 64, 62
1, 169629, Control_c, 0, 64, 39
1, 169643, Note_on_c, 0, 51, 36
1, 169643, Note_on_c, 0, 75, 57
1, 169644, Control_c, 0, 64, 0
1, 169718, Control_c, 0, 64, 55
1, 169732, Control_c, 0, 64, 68
1, 169747, Control_c, 0, 64, 78
1, 169762, Control_c, 0, 64, 85
1, 169777, Control_c, 0, 64, 93
1, 169792, Control_c, 0, 64, 101
1, 169800, Note_off_c, 0, 75, 61
1, 169807, Control_c, 0, 64, 113
1, 169822, Control_c, 0, 64, 127
1, 169914, Note_on_c, 0, 67, 38
1, 170076, Note_off_c, 0, 67, 37
1, 170142, Note_on_c, 0, 72, 39
1, 170311, Note_off_c, 0, 72, 46
1, 170367, Note_on_c, 0, 67, 37
1, 170574, Note_on_c, 0, 63, 31
1, 170699, Note_off_c, 0, 67, 42
1, 170731, Note_off_c, 0, 63, 46
1, 170814, Note_on_c, 0, 65, 32
1, 170970, Note_off_c, 0, 65, 46
1, 171021, Note_on_c, 0, 72, 35
1, 171258, Note_on_c, 0, 67, 23
1, 171296, Note_off_c, 0, 51, 40
1, 171488, Note_on_c, 0, 65, 25
1, 171543, Note_off_c, 0, 44, 31
1, 171746, Note_on_c, 0, 60, 28
1, 171845, Note_off_c, 0, 65, 42
1, 171846, Note_off_c, 0, 60, 39
1, 171851, Note_off_c, 0, 67, 40
1, 171952, Note_off_c, 0, 72, 59
1, 171989, Note_on_c, 0, 51, 29
1, 172164, Note_off_c, 0, 51, 45
1, 172322, Note_on_c, 0, 75, 64
1, 172340, Note_on_c, 0, 44, 37
1, 172401, Control_c, 0, 64, 93
1, 172416, Control_c, 0, 64, 75
1, 172431, Control_c, 0, 64, 63
1, 172446, Control_c, 0, 64, 61
1, 172460, Control_c, 0, 64, 66
1, 172475, Control_c, 0, 64, 75
1, 172490, Control_c, 0, 64, 85
1, 172505, Control_c, 0, 64, 96
1, 172520, Control_c, 0, 64, 103
1, 172534, Control_c, 0, 64, 110
1, 172549, Control_c, 0, 64, 127
1, 172621, Note_on_c, 0, 51, 29
1, 172642, Note_on_c, 0, 72, 24
1, 172660, Note_off_c, 0, 44, 41
1, 172672, Note_off_c, 0, 51, 59
1, 172690, Note_off_c, 0, 72, 47
1, 172878, Note_on_c, 0, 77, 70
1, 172961, Note_off_c, 0, 75, 51
1, 173123, Note_on_c, 0, 60, 31
1, 173129, Note_on_c, 0, 67, 35
1, 173306, Note_off_c, 0, 67, 40
1, 173348, Note_on_c, 0, 65, 39
1, 173360, Note_off_c, 0, 60, 36
1, 173455, Note_off_c, 0, 65, 57
1, 173584, Note_on_c, 0, 79, 65
1, 173590, Note_on_c, 0, 63, 40
1, 173608, Note_off_c, 0, 77, 50
1, 173727, Note_off_c, 0, 63, 57
1, 173861, Note_on_c, 0, 80, 68
1, 173950, Note_off_c, 0, 79, 38
1, 174111, Note_on_c, 0, 72, 35
1, 174187, Note_off_c, 0, 72, 48
1, 174356, Note_on_c, 0, 79, 63
1, 174428, Note_off_c, 0, 80, 49
1, 174637, Note_on_c, 0, 68, 31
1, 174640, Note_on_c, 0, 72, 27
1, 174737, Note_off_c, 0, 72, 39
1, 174751, Note_off_c, 0, 68, 37
1, 174945, Note_on_c, 0, 63, 30
1, 175000, Note_off_c, 0, 63, 56
1, 175297, Note_on_c, 0, 51, 29
1, 175354, Note_on_c, 0, 77, 58
1, 175377, Note_off_c, 0, 79, 39
1, 175408, Note_off_c, 0, 51, 34
1, 175492, Note_off_c, 0, 77, 59
1, 175672, Note_on_c, 0, 44, 34
1, 175769, Note_on_c, 0, 77, 46
1, 175911, Note_off_c, 0, 77, 60
1, 175932, Note_on_c, 0, 79, 55
1, 176043, Note_off_c, 0, 79, 57
1, 176061, Note_on_c, 0, 77, 51
1, 176085, Control_c, 0, 64, 117
1, 176100, Control_c, 0, 64, 109
1, 176115, Note_on_c, 0, 51, 37
1, 176115, Control_c, 0, 64, 103
1, 176130, Control_c, 0, 64, 99
1, 176145, Control_c, 0, 64, 97
1, 176156, Note_off_c, 0, 77, 53
1, 176159, Control_c, 0, 64, 94
1, 176174, Note_on_c, 0, 75, 55
1, 176174, Control_c, 0, 64, 88
1, 176189, Control_c, 0, 64, 81
1, 176204, Control_c, 0, 64, 72
1, 176219, Control_c, 0, 64, 63
1, 176234, Control_c, 0, 64, 0
1, 176278, Control_c, 0, 64, 45
1, 176293, Control_c, 0, 64, 65
1, 176308, Control_c, 0, 64, 74
1, 176323, Control_c, 0, 64, 84
1, 176338, Control_c, 0, 64, 94
1, 176352, Control_c, 0, 64, 101
1, 176367, Control_c, 0, 64, 111
1, 176382, Control_c, 0, 64, 127
1, 176430, Note_off_c, 0, 51, 48
1, 176431, Note_off_c, 0, 44, 41
1, 176499, Note_on_c, 0, 67, 40
1, 176574, Note_off_c, 0, 75, 60
1, 176764, Note_on_c, 0, 65, 31
1, 176937, Note_off_c, 0, 65, 46
1, 177011, Note_on_c, 0, 73, 39
1, 177203, Note_off_c, 0, 67, 37
1, 177208, Note_off_c, 0, 73, 46
1, 177248, Note_on_c, 0, 63, 31
1, 177423, Note_off_c, 0, 63, 44
1, 177519, Note_on_c, 0, 67, 28
1, 177745, Note_on_c, 0, 73, 36
1, 177791, Note_off_c, 0, 67, 41
1, 177918, Note_off_c, 0, 73, 40
1, 177970, Note_on_c, 0, 65, 37
1, 178174, Note_off_c, 0, 65, 37
1, 178213, Note_on_c, 0, 63, 34
1, 178492, Note_on_c, 0, 61, 26
1, 178529, Note_off_c, 0, 63, 25
1, 178732, Note_off_c, 0, 61, 42
1, 178758, Note_on_c, 0, 51, 32
1, 178847, Note_off_c, 0, 51, 39
1, 179149, Note_on_c, 0, 44, 39
1, 179202, Note_on_c, 0, 70, 56
1, 179215, Control_c, 0, 64, 105
1, 179230, Control_c, 0, 64, 87
1, 179244, Control_c, 0, 64, 74
1, 179259, Control_c, 0, 64, 64
1, 179274, Control_c, 0, 64, 52
1, 179289, Control_c, 0, 64, 54
1, 179303, Control_c, 0, 64, 63
1, 179318, Control_c, 0, 64, 68
1, 179333, Control_c, 0, 64, 73
1, 179348, Control_c, 0, 64, 80
1, 179363, Control_c, 0, 64, 91
1, 179377, Control_c, 0, 64, 104
1, 179392, Control_c, 0, 64, 127
1, 179551, Note_on_c, 0, 55, 33
1, 179560, Note_on_c, 0, 61, 27
1, 179602, Note_off_c, 0, 44, 43
1, 179625, Note_off_c, 0, 61, 44
1, 179658, Note_off_c, 0, 70, 62
1, 179739, Note_off_c, 0, 55, 56
1, 179818, Note_on_c, 0, 72, 52
1, 180061, Note_on_c, 0, 65, 39
1, 180061, Note_on_c, 0, 61, 33
1, 180291, Note_off_c, 0, 65, 34
1, 180295, Note_on_c, 0, 63, 45
1, 180301, Note_off_c, 0, 61, 33
1, 180448, Note_off_c, 0, 63, 35
1, 180520, Note_on_c, 0, 73, 55
1, 180538, Note_on_c, 0, 67, 41
1, 180583, Note_off_c, 0, 72, 52
1, 180625, Note_off_c, 0, 67, 49
1, 180672, Note_off_c, 0, 73, 63
1, 180771, Note_on_c, 0, 75, 66
1, 180774, Note_on_c, 0, 73, 43
1, 180890, Note_off_c, 0, 73, 52
1, 181009, Control_c, 0, 67, 123
1, 181010, Note_on_c, 0, 67, 39
1, 181024, Control_c, 0, 67, 113
1, 181039, Control_c, 0, 67, 97
1, 181054, Control_c, 0, 67, 77
1, 181069, Control_c, 0, 67, 57
1, 181083, Control_c, 0, 67, 40
1, 181096, Note_off_c, 0, 67, 58
1, 181098, Control_c, 0, 67, 30
1, 181113, Control_c, 0, 67, 20
1, 181135, Control_c, 0, 67, 8
1, 181150, Control_c, 0, 67, 0
1, 181248, Note_on_c, 0, 77, 64
1, 181449, Note_off_c, 0, 75, 38
1, 181480, Note_on_c, 0, 63, 42
1, 181535, Note_on_c, 0, 73, 21
1, 181587, Note_off_c, 0, 63, 52
1, 181742, Note_on_c, 0, 67, 54
1, 181914, Note_off_c, 0, 73, 44
1, 181918, Note_off_c, 0, 67, 37
1, 182039, Note_on_c, 0, 51, 31
1, 182039, Note_on_c, 0, 79, 66
1, 182107, Note_off_c, 0, 77, 62
1, 182328, Note_off_c, 0, 79, 54
1, 182360, Note_off_c, 0, 51, 31
1, 182363, Note_on_c, 0, 44, 40
1, 182473, Note_on_c, 0, 77, 51
1, 182514, Note_off_c, 0, 77, 61
1, 182541, Note_on_c, 0, 79, 56
1, 182630, Note_on_c, 0, 77, 65
1, 182634, Note_off_c, 0, 79, 53
1, 182692, Control_c, 0, 64, 126
1, 182707, Control_c, 0, 64, 110
1, 182713, Note_off_c, 0, 77, 59
1, 182715, Note_on_c, 0, 75, 71
1, 182721, Control_c, 0, 64, 103
1, 182727, Note_on_c, 0, 51, 44
1, 182736, Control_c, 0, 64, 95
1, 182751, Control_c, 0, 64, 86
1, 182766, Control_c, 0, 64, 74
1, 182781, Control_c, 0, 64, 61
1, 182795, Control_c, 0, 64, 0
1, 182840, Control_c, 0, 64, 43
1, 182854, Control_c, 0, 64, 65
1, 182869, Control_c, 0, 64, 75
1, 182884, Control_c, 0, 64, 87
1, 182899, Note_off_c, 0, 75, 60
1, 182899, Control_c, 0, 64, 99
1, 182914, Control_c, 0, 64, 110
1, 182929, Control_c, 0, 64, 127
1, 182982, Note_on_c, 0, 67, 43
1, 183146, Note_off_c, 0, 67, 37
1, 183181, Note_on_c, 0, 72, 51
1, 183409, Note_on_c, 0, 67, 51
1, 183409, Note_off_c, 0, 72, 39
1, 183635, Note_on_c, 0, 63, 58
1, 183692, Note_off_c, 0, 67, 45
1, 183854, Note_on_c, 0, 65, 65
1, 183861, Note_off_c, 0, 63, 38
1, 184059, Note_on_c, 0, 72, 66
1, 184085, Note_off_c, 0, 65, 54
1, 184284, Note_on_c, 0, 67, 64
1, 184360, Note_off_c, 0, 51, 43
1, 184494, Note_on_c, 0, 65, 65
1, 184636, Note_off_c, 0, 67, 36
1, 184729, Note_on_c, 0, 60, 60
1, 184768, Note_off_c, 0, 60, 63
1, 184779, Note_off_c, 0, 65, 60
1, 184803, Note_off_c, 0, 72, 61
1, 184846, Note_off_c, 0, 44, 22
1, 185005, Note_on_c, 0, 51, 52
1, 185337, Note_on_c, 0, 44, 59
1, 185382, Note_off_c, 0, 51, 54
1, 185406, Note_on_c, 0, 84, 86
1, 185427, Control_c, 0, 64, 101
1, 185442, Control_c, 0, 64, 77
1, 185457, Control_c, 0, 64, 61
1, 185472, Control_c, 0, 64, 28
1, 185487, Control_c, 0, 64, 55
1, 185502, Control_c, 0, 64, 67
1, 185517, Control_c, 0, 64, 78
1, 185532, Control_c, 0, 64, 93
1, 185546, Control_c, 0, 64, 112
1, 185561, Control_c, 0, 64, 127
1, 185710, Note_on_c, 0, 51, 56
1, 185728, Note_on_c, 0, 72, 62
1, 185743, Note_off_c, 0, 44, 62
1, 185800, Note_off_c, 0, 51, 64
1, 185957, Note_on_c, 0, 82, 84
1, 186020, Note_off_c, 0, 72, 57
1, 186023, Note_off_c, 0, 84, 61
1, 186173, Note_on_c, 0, 60, 39
1, 186177, Note_on_c, 0, 68, 51
1, 186299, Note_off_c, 0, 68, 45
1, 186321, Note_off_c, 0, 60, 35
1, 186387, Note_on_c, 0, 63, 59
1, 186482, Note_off_c, 0, 63, 57
1, 186593, Note_on_c, 0, 72, 40
1, 186599, Note_on_c, 0, 79, 75
1, 186678, Note_off_c, 0, 82, 62
1, 186689, Note_off_c, 0, 72, 61
1, 186857, Note_on_c, 0, 82, 83
1, 186933, Note_off_c, 0, 79, 59
1, 187102, Note_on_c, 0, 75, 40
1, 187114, Note_on_c, 0, 72, 38
1, 187175, Note_off_c, 0, 72, 56
1, 187187, Note_off_c, 0, 75, 47
1, 187349, Note_on_c, 0, 80, 61
1, 187409, Note_off_c, 0, 82, 56
1, 187638, Note_on_c, 0, 68, 30
1, 187643, Note_on_c, 0, 72, 25
1, 187748, Control_c, 0, 67, 10
1, 187762, Control_c, 0, 67, 15
1, 187777, Control_c, 0, 67, 20
1, 187792, Control_c, 0, 67, 27
1, 187807, Control_c, 0, 67, 34
1, 187818, Note_off_c, 0, 68, 44
1, 187818, Note_off_c, 0, 72, 43
1, 187822, Control_c, 0, 67, 40
1, 187836, Control_c, 0, 67, 46
1, 187851, Control_c, 0, 67, 54
1, 187874, Control_c, 0, 67, 65
1, 187889, Control_c, 0, 67, 75
1, 187904, Control_c, 0, 67, 83
1, 187919, Control_c, 0, 67, 90
1, 187934, Control_c, 0, 67, 96
1, 187949, Control_c, 0, 67, 103
1, 187964, Control_c, 0, 67, 112
1, 187978, Control_c, 0, 67, 121
1, 187992, Control_c, 0, 67, 127
1, 188023, Note_on_c, 0, 66, 32
1, 188216, Note_off_c, 0, 66, 41
1, 188487, Note_on_c, 0, 69, 17
1, 188554, Note_off_c, 0, 69, 55
1, 188631, Note_on_c, 0, 76, 55
1, 188683, Note_off_c, 0, 80, 57
1, 188981, Note_on_c, 0, 44, 37
1, 189007, Control_c, 0, 64, 103
1, 189017, Note_off_c, 0, 76, 54
1, 189022, Control_c, 0, 64, 81
1, 189028, Note_on_c, 0, 78, 55
1, 189037, Control_c, 0, 64, 65
1, 189052, Control_c, 0, 64, 0
1, 189126, Control_c, 0, 64, 59
1, 189141, Control_c, 0, 64, 68
1, 189156, Control_c, 0, 64, 77
1, 189171, Control_c, 0, 64, 87
1, 189186, Control_c, 0, 64, 97
1, 189198, Note_off_c, 0, 78, 60
1, 189201, Control_c, 0, 64, 105
1, 189215, Control_c, 0, 64, 114
1, 189230, Control_c, 0, 64, 127
1, 189370, Note_on_c, 0, 52, 34
1, 189380, Note_on_c, 0, 69, 32
1, 189442, Note_off_c, 0, 69, 44
1, 189448, Note_off_c, 0, 44, 43
1, 189476, Note_off_c, 0, 52, 52
1, 189618, Note_on_c, 0, 76, 52
1, 189829, Note_on_c, 0, 61, 44
1, 189894, Note_off_c, 0, 61, 53
1, 190058, Note_on_c, 0, 64, 33
1, 190170, Note_off_c, 0, 64, 36
1, 190237, Note_off_c, 0, 76, 49
1, 190278, Note_on_c, 0, 75, 52
1, 190282, Note_on_c, 0, 64, 24
1, 190361, Note_off_c, 0, 64, 40
1, 190530, Note_off_c, 0, 75, 35
1, 190532, Note_on_c, 0, 76, 51
1, 190545, Note_on_c, 0, 69, 33
1, 190688, Note_off_c, 0, 69, 36
1, 190795, Note_on_c, 0, 64, 35
1, 190911, Note_off_c, 0, 64, 51
1, 191064, Note_on_c, 0, 73, 43
1, 191084, Note_off_c, 0, 76, 37
1, 191326, Note_off_c, 0, 73, 36
1, 191332, Note_on_c, 0, 69, 37
1, 191430, Note_off_c, 0, 69, 38
1, 191547, Note_on_c, 0, 64, 35
1, 191699, Note_off_c, 0, 64, 33
1, 191839, Note_on_c, 0, 61, 30
1, 192015, Note_off_c, 0, 61, 42
1, 192217, Note_on_c, 0, 44, 34
1, 192279, Note_on_c, 0, 70, 57
1, 192300, Control_c, 0, 64, 114
1, 192314, Control_c, 0, 64, 89
1, 192329, Control_c, 0, 64, 70
1, 192344, Control_c, 0, 64, 54
1, 192366, Control_c, 0, 64, 0
1, 192381, Control_c, 0, 64, 17
1, 192396, Control_c, 0, 64, 49
1, 192411, Control_c, 0, 64, 63
1, 192426, Control_c, 0, 64, 72
1, 192440, Control_c, 0, 64, 81
1, 192455, Control_c, 0, 64, 93
1, 192471, Control_c, 0, 64, 102
1, 192486, Control_c, 0, 64, 108
1, 192501, Control_c, 0, 64, 119
1, 192515, Control_c, 0, 64, 127
1, 192673, Note_on_c, 0, 55, 26
1, 192699, Note_on_c, 0, 61, 25
1, 192700, Note_off_c, 0, 44, 44
1, 192747, Note_off_c, 0, 70, 63
1, 192750, Note_off_c, 0, 61, 47
1, 192814, Note_off_c, 0, 55, 55
1, 192927, Note_on_c, 0, 72, 50
1, 193165, Note_on_c, 0, 65, 33
1, 193207, Note_on_c, 0, 61, 13
1, 193349, Note_off_c, 0, 65, 41
1, 193395, Note_off_c, 0, 61, 22
1, 193395, Note_on_c, 0, 63, 33
1, 193487, Note_off_c, 0, 63, 46
1, 193611, Note_on_c, 0, 73, 53
1, 193621, Note_on_c, 0, 67, 33
1, 193644, Note_off_c, 0, 72, 36
1, 193677, Note_off_c, 0, 67, 53
1, 193711, Note_off_c, 0, 73, 58
1, 193869, Note_on_c, 0, 75, 56
1, 193873, Note_on_c, 0, 73, 39
1, 193973, Note_off_c, 0, 73, 38
1, 194110, Note_on_c, 0, 67, 35
1, 194185, Note_off_c, 0, 67, 52
1, 194355, Note_on_c, 0, 77, 53
1, 194368, Note_off_c, 0, 75, 52
1, 194655, Note_on_c, 0, 63, 32
1, 194662, Note_on_c, 0, 73, 30
1, 194812, Note_off_c, 0, 63, 45
1, 194990, Note_on_c, 0, 67, 27
1, 195146, Note_off_c, 0, 67, 41
1, 195188, Note_off_c, 0, 73, 37
1, 195451, Note_on_c, 0, 51, 10
1, 195531, Note_on_c, 0, 79, 42
1, 195550, Note_off_c, 0, 77, 36
1, 195627, Note_off_c, 0, 51, 40
1, 195839, Note_off_c, 0, 79, 36
1, 196001, Note_on_c, 0, 44, 32
1, 196131, Note_on_c, 0, 77, 41
1, 196160, Note_off_c, 0, 77, 60
1, 196197, Note_on_c, 0, 79, 45
1, 196215, Control_c, 0, 64, 103
1, 196230, Control_c, 0, 64, 86
1, 196233, Note_off_c, 0, 79, 55
1, 196245, Control_c, 0, 64, 72
1, 196254, Note_on_c, 0, 77, 51
1, 196259, Control_c, 0, 64, 65
1, 196274, Control_c, 0, 64, 61
1, 196289, Control_c, 0, 64, 60
1, 196294, Note_off_c, 0, 77, 60
1, 196304, Control_c, 0, 64, 59
1, 196319, Control_c, 0, 64, 54
1, 196333, Control_c, 0, 64, 38
1, 196339, Note_on_c, 0, 75, 50
1, 196348, Control_c, 0, 64, 0
1, 196358, Note_on_c, 0, 51, 34
1, 196422, Control_c, 0, 64, 14
1, 196437, Control_c, 0, 64, 64
1, 196452, Control_c, 0, 64, 73
1, 196467, Control_c, 0, 64, 85
1, 196481, Control_c, 0, 64, 99
1, 196496, Control_c, 0, 64, 113
1, 196511, Control_c, 0, 64, 127
1, 196542, Note_off_c, 0, 75, 40
1, 196631, Note_on_c, 0, 67, 36
1, 196814, Note_off_c, 0, 67, 35
1, 196862, Note_on_c, 0, 72, 37
1, 197037, Note_off_c, 0, 72, 43
1, 197095, Note_on_c, 0, 67, 21
1, 197300, Note_on_c, 0, 63, 26
1, 197316, Note_off_c, 0, 67, 35
1, 197438, Note_off_c, 0, 63, 43
1, 197527, Note_on_c, 0, 65, 32
1, 197690, Note_off_c, 0, 65, 48
1, 197738, Note_on_c, 0, 72, 34
1, 197961, Note_on_c, 0, 67, 16
1, 197992, Note_off_c, 0, 51, 42
1, 198075, Note_off_c, 0, 44, 44
1, 198176, Note_on_c, 0, 63, 30
1, 198431, Note_on_c, 0, 60, 29
1, 198599, Note_off_c, 0, 60, 46
1, 198624, Note_off_c, 0, 63, 42
1, 198635, Note_off_c, 0, 67, 41
1, 198670, Note_off_c, 0, 72, 42
1, 198701, Note_on_c, 0, 51, 20
1, 198749, Note_off_c, 0, 51, 51
1, 199133, Note_on_c, 0, 74, 41
1, 199133, Note_on_c, 0, 59, 29
1, 199139, Note_on_c, 0, 66, 20
1, 199145, Note_on_c, 0, 47, 25
1, 199147, Note_on_c, 0, 62, 22
1, 199147, Note_on_c, 0, 71, 31
1, 199151, Note_on_c, 0, 54, 22
1, 199165, Control_c, 0, 64, 95
1, 199180, Control_c, 0, 64, 72
1, 199195, Control_c, 0, 64, 37
1, 199211, Control_c, 0, 64, 0
1, 199388, Control_c, 0, 64, 19
1, 199403, Control_c, 0, 64, 61
1, 199417, Control_c, 0, 64, 68
1, 199432, Control_c, 0, 64, 72
1, 199447, Control_c, 0, 64, 77
1, 199462, Control_c, 0, 64, 88
1, 199477, Control_c, 0, 64, 106
1, 199491, Note_off_c, 0, 59, 48
1, 199491, Control_c, 0, 64, 127
1, 199507, Note_off_c, 0, 62, 40
1, 199509, Note_off_c, 0, 71, 42
1, 199510, Note_off_c, 0, 54, 46
1, 199519, Note_off_c, 0, 47, 39
1, 199530, Note_off_c, 0, 66, 40
1, 199536, Note_off_c, 0, 74, 26
1, 201313, Control_c, 0, 67, 123
1, 201328, Control_c, 0, 67, 109
1, 201351, Control_c, 0, 67, 94
1, 201366, Control_c, 0, 67, 76
1, 201381, Control_c, 0, 67, 56
1, 201395, Control_c, 0, 67, 38
1, 201410, Control_c, 0, 67, 22
1, 201425, Control_c, 0, 67, 0
1, 202028, Note_on_c, 0, 44, 56
1, 202043, Note_on_c, 0, 84, 71
1, 202063, Control_c, 0, 64, 104
1, 202072, Note_on_c, 0, 77, 46
1, 202075, Note_on_c, 0, 72, 48
1, 202078, Control_c, 0, 64, 79
1, 202099, Control_c, 0, 64, 63
1, 202114, Control_c, 0, 64, 48
1, 202129, Control_c, 0, 64, 63
1, 202144, Control_c, 0, 64, 71
1, 202156, Note_off_c, 0, 77, 35
1, 202159, Control_c, 0, 64, 82
1, 202174, Control_c, 0, 64, 99
1, 202189, Control_c, 0, 64, 127
1, 202206, Note_off_c, 0, 72, 56
1, 202214, Note_off_c, 0, 84, 61
1, 202223, Note_on_c, 0, 79, 62
1, 202298, Note_off_c, 0, 79, 53
1, 202299, Note_on_c, 0, 77, 64
1, 202380, Note_off_c, 0, 77, 61
1, 202385, Note_on_c, 0, 75, 67
1, 202393, Note_on_c, 0, 51, 63
1, 202444, Note_off_c, 0, 75, 61
1, 202603, Note_on_c, 0, 67, 67
1, 202798, Note_on_c, 0, 72, 65
1, 202801, Note_off_c, 0, 67, 37
1, 202996, Note_off_c, 0, 72, 58
1, 203011, Note_on_c, 0, 67, 64
1, 203219, Note_on_c, 0, 63, 63
1, 203222, Note_off_c, 0, 67, 56
1, 203428, Note_on_c, 0, 65, 63
1, 203429, Note_off_c, 0, 63, 53
1, 203637, Note_on_c, 0, 72, 67
1, 203652, Note_off_c, 0, 65, 52
1, 203851, Note_on_c, 0, 67, 60
1, 204072, Note_on_c, 0, 63, 58
1, 204143, Note_off_c, 0, 44, 54
1, 204144, Note_off_c, 0, 67, 57
1, 204214, Note_off_c, 0, 51, 55
1, 204260, Note_off_c, 0, 72, 34
1, 204319, Note_on_c, 0, 60, 59
1, 204365, Note_off_c, 0, 63, 36
1, 204403, Note_off_c, 0, 60, 55
1, 204607, Note_on_c, 0, 63, 60
1, 204646, Note_off_c, 0, 63, 58
1, 204688, Control_c, 0, 67, 9
1, 204703, Control_c, 0, 67, 17
1, 204717, Control_c, 0, 67, 29
1, 204732, Control_c, 0, 67, 44
1, 204747, Control_c, 0, 67, 58
1, 204761, Control_c, 0, 67, 76
1, 204776, Control_c, 0, 67, 97
1, 204791, Control_c, 0, 67, 119
1, 204806, Control_c, 0, 67, 127
1, 205058, Control_c, 0, 64, 100
1, 205073, Control_c, 0, 64, 83
1, 205095, Control_c, 0, 64, 71
1, 205110, Control_c, 0, 64, 55
1, 205125, Control_c, 0, 64, 0
1, 205152, Note_on_c, 0, 59, 17
1, 205160, Note_on_c, 0, 74, 25
1, 205160, Note_on_c, 0, 54, 17
1, 205176, Note_on_c, 0, 66, 7
1, 205178, Note_on_c, 0, 62, 18
1, 205192, Poly_aftertouch_c, 0, 47, 127
1, 205194, Note_on_c, 0, 71, 16
1, 205748, Control_c, 0, 64, 50
1, 205763, Control_c, 0, 64, 59
1, 205778, Control_c, 0, 64, 63
1, 205792, Control_c, 0, 64, 66
1, 205807, Control_c, 0, 64, 69
1, 205822, Control_c, 0, 64, 72
1, 205845, Control_c, 0, 64, 78
1, 205859, Control_c, 0, 64, 85
1, 205874, Control_c, 0, 64, 94
1, 205889, Control_c, 0, 64, 105
1, 205904, Control_c, 0, 64, 119
1, 205918, Control_c, 0, 64, 127
1, 206091, Poly_aftertouch_c, 0, 47, 0
1, 206097, Note_off_c, 0, 74, 45
1, 206120, Note_off_c, 0, 59, 41
1, 206124, Note_off_c, 0, 54, 45
1, 206129, Note_off_c, 0, 71, 45
1, 206165, Note_off_c, 0, 62, 40
1, 206166, Note_off_c, 0, 66, 39
1, 207246, Control_c, 0, 67, 126
1, 207261, Control_c, 0, 67, 121
1, 207276, Control_c, 0, 67, 113
1, 207290, Control_c, 0, 67, 103
1, 207305, Control_c, 0, 67, 92
1, 207320, Control_c, 0, 67, 81
1, 207342, Control_c, 0, 67, 74
1, 207357, Control_c, 0, 67, 68
1, 207372, Control_c, 0, 67, 63
1, 207387, Control_c, 0, 67, 57
1, 207402, Control_c, 0, 67, 49
1, 207417, Control_c, 0, 67, 39
1, 207432, Control_c, 0, 67, 29
1, 207446, Control_c, 0, 67, 23
1, 207461, Control_c, 0, 67, 18
1, 207476, Control_c, 0, 67, 12
1, 207490, Control_c, 0, 67, 0
1, 208273, Note_on_c, 0, 44, 34
1, 208311, Note_on_c, 0, 72, 48
1, 208313, Control_c, 0, 64, 109
1, 208328, Note_on_c, 0, 65, 37
1, 208328, Control_c, 0, 64, 86
1, 208339, Note_on_c, 0, 60, 30
1, 208343, Control_c, 0, 64, 72
1, 208358, Control_c, 0, 64, 66
1, 208373, Control_c, 0, 64, 67
1, 208387, Control_c, 0, 64, 74
1, 208402, Control_c, 0, 64, 87
1, 208417, Control_c, 0, 64, 105
1, 208432, Control_c, 0, 64, 127
1, 208459, Note_off_c, 0, 65, 35
1, 208467, Note_on_c, 0, 67, 38
1, 208477, Note_off_c, 0, 60, 32
1, 208580, Note_on_c, 0, 65, 44
1, 208698, Note_on_c, 0, 60, 34
1, 208773, Note_off_c, 0, 67, 33
1, 208853, Note_off_c, 0, 65, 41
1, 208854, Note_off_c, 0, 60, 50
1, 208973, Note_on_c, 0, 51, 43
1, 209125, Note_off_c, 0, 44, 42
1, 209225, Note_off_c, 0, 51, 49
1, 209241, Note_on_c, 0, 65, 49
1, 209510, Note_on_c, 0, 67, 54
1, 209569, Note_off_c, 0, 65, 37
1, 209811, Note_on_c, 0, 65, 49
1, 209828, Note_off_c, 0, 67, 50
1, 210182, Note_off_c, 0, 65, 37
1, 210187, Note_on_c, 0, 67, 44
1, 210202, Note_on_c, 0, 63, 38
1, 210337, Note_off_c, 0, 63, 60
1, 210452, Note_off_c, 0, 72, 27
1, 210577, Note_off_c, 0, 67, 18
1, 211984, Note_on_c, 0, 44, 55
1, 212005, Note_on_c, 0, 72, 43
1, 212030, Note_on_c, 0, 65, 28
1, 212042, Note_on_c, 0, 60, 16
1, 212166, Note_off_c, 0, 65, 42
1, 212195, Note_off_c, 0, 60, 44
1, 212196, Note_on_c, 0, 67, 28
1, 212294, Note_on_c, 0, 65, 32
1, 212441, Note_on_c, 0, 60, 27
1, 212515, Note_off_c, 0, 67, 39
1, 212613, Note_off_c, 0, 65, 42
1, 212628, Note_off_c, 0, 60, 45
1, 212761, Note_on_c, 0, 51, 48
1, 212875, Note_off_c, 0, 44, 39
1, 212902, Note_off_c, 0, 51, 56
1, 213029, Control_c, 0, 67, 8
1, 213044, Control_c, 0, 67, 13
1, 213058, Control_c, 0, 67, 20
1, 213073, Control_c, 0, 67, 31
1, 213088, Control_c, 0, 67, 43
1, 213102, Control_c, 0, 67, 56
1, 213117, Note_on_c, 0, 65, 37
1, 213117, Control_c, 0, 67, 69
1, 213132, Control_c, 0, 67, 84
1, 213147, Control_c, 0, 67, 101
1, 213162, Control_c, 0, 67, 119
1, 213176, Control_c, 0, 67, 127
1, 213400, Note_off_c, 0, 65, 38
1, 213424, Note_on_c, 0, 67, 37
1, 213766, Note_on_c, 0, 65, 32
1, 213804, Note_off_c, 0, 67, 34
1, 213948, Note_off_c, 0, 65, 37
1, 214247, Note_on_c, 0, 67, 26
1, 214255, Note_on_c, 0, 63, 30
1, 214423, Note_off_c, 0, 72, 38
1, 214473, Note_off_c, 0, 63, 44
1, 214529, Note_off_c, 0, 67, 38
1, 215556, Control_c, 0, 67, 124
1, 215578, Control_c, 0, 67, 115
1, 215593, Control_c, 0, 67, 105
1, 215608, Control_c, 0, 67, 89
1, 215622, Control_c, 0, 67, 74
1, 215637, Control_c, 0, 67, 60
1, 215652, Control_c, 0, 67, 46
1, 215667, Control_c, 0, 67, 34
1, 215682, Control_c, 0, 67, 22
1, 215696, Control_c, 0, 67, 8
1, 215711, Control_c, 0, 67, 0
1, 216058, Note_on_c, 0, 57, 56
1, 216073, Note_on_c, 0, 64, 57
1, 216095, Note_off_c, 0, 57, 61
1, 216104, Note_on_c, 0, 59, 65
1, 216135, Note_off_c, 0, 59, 60
1, 216142, Note_on_c, 0, 57, 63
1, 216150, Note_on_c, 0, 44, 57
1, 216150, Note_on_c, 0, 49, 57
1, 216157, Control_c, 0, 64, 108
1, 216172, Control_c, 0, 64, 82
1, 216186, Control_c, 0, 64, 63
1, 216201, Control_c, 0, 64, 0
1, 216305, Control_c, 0, 64, 47
1, 216327, Control_c, 0, 64, 63
1, 216342, Control_c, 0, 64, 68
1, 216357, Control_c, 0, 64, 74
1, 216372, Control_c, 0, 64, 82
1, 216387, Control_c, 0, 64, 93
1, 216395, Note_on_c, 0, 55, 70
1, 216401, Control_c, 0, 64, 106
1, 216416, Control_c, 0, 64, 112
1, 216442, Note_off_c, 0, 57, 53
1, 216534, Control_c, 0, 64, 109
1, 216549, Control_c, 0, 64, 100
1, 216564, Control_c, 0, 64, 89
1, 216579, Control_c, 0, 64, 76
1, 216593, Control_c, 0, 64, 64
1, 216596, Note_on_c, 0, 57, 68
1, 216608, Control_c, 0, 64, 0
1, 216652, Note_off_c, 0, 55, 54
1, 216804, Note_on_c, 0, 59, 72
1, 216844, Note_off_c, 0, 57, 57
1, 217030, Note_on_c, 0, 55, 39
1, 217030, Note_on_c, 0, 57, 64
1, 217041, Note_off_c, 0, 59, 54
1, 217165, Control_c, 0, 64, 35
1, 217179, Control_c, 0, 64, 63
1, 217194, Control_c, 0, 64, 72
1, 217209, Control_c, 0, 64, 80
1, 217224, Control_c, 0, 64, 87
1, 217239, Control_c, 0, 64, 90
1, 217254, Control_c, 0, 64, 93
1, 217256, Note_off_c, 0, 64, 59
1, 217268, Control_c, 0, 64, 99
1, 217280, Note_off_c, 0, 57, 55
1, 217283, Control_c, 0, 64, 108
1, 217298, Control_c, 0, 64, 127
1, 217439, Note_off_c, 0, 55, 42
1, 217561, Note_on_c, 0, 59, 48
1, 217573, Note_on_c, 0, 64, 48
1, 217580, Control_c, 0, 64, 122
1, 217591, Note_on_c, 0, 61, 37
1, 217595, Control_c, 0, 64, 111
1, 217610, Control_c, 0, 64, 102
1, 217625, Control_c, 0, 64, 95
1, 217639, Control_c, 0, 64, 90
1, 217654, Control_c, 0, 64, 87
1, 217669, Control_c, 0, 64, 85
1, 217684, Control_c, 0, 64, 83
1, 217698, Control_c, 0, 64, 83
1, 217713, Control_c, 0, 64, 82
1, 217728, Control_c, 0, 64, 80
1, 217743, Control_c, 0, 64, 77
1, 217758, Control_c, 0, 64, 75
1, 217773, Control_c, 0, 64, 73
1, 217788, Control_c, 0, 64, 72
1, 217792, Note_on_c, 0, 57, 66
1, 217802, Control_c, 0, 64, 71
1, 217824, Control_c, 0, 64, 70
1, 217839, Control_c, 0, 64, 69
1, 217854, Control_c, 0, 64, 68
1, 217884, Control_c, 0, 64, 68
1, 217913, Control_c, 0, 64, 67
1, 217944, Control_c, 0, 64, 67
1, 217959, Control_c, 0, 64, 66
1, 217973, Control_c, 0, 64, 66
1, 217988, Control_c, 0, 64, 65
1, 218017, Control_c, 0, 64, 65
1, 218032, Control_c, 0, 64, 64
1, 218040, Note_on_c, 0, 55, 61
1, 218047, Note_off_c, 0, 59, 41
1, 218047, Control_c, 0, 64, 63
1, 218062, Control_c, 0, 64, 62
1, 218075, Note_off_c, 0, 57, 57
1, 218077, Control_c, 0, 64, 58
1, 218092, Control_c, 0, 64, 49
1, 218107, Control_c, 0, 64, 17
1, 218121, Control_c, 0, 64, 0
1, 218303, Note_on_c, 0, 57, 62
1, 218360, Note_off_c, 0, 55, 56
1, 218587, Note_off_c, 0, 57, 55
1, 218600, Note_on_c, 0, 59, 42
1, 218781, Control_c, 0, 64, 17
1, 218795, Control_c, 0, 64, 57
1, 218810, Control_c, 0, 64, 63
1, 218825, Control_c, 0, 64, 64
1, 218840, Control_c, 0, 64, 65
1, 218855, Control_c, 0, 64, 66
1, 218870, Control_c, 0, 64, 69
1, 218885, Control_c, 0, 64, 74
1, 218899, Control_c, 0, 64, 78
1, 218914, Control_c, 0, 64, 82
1, 218929, Control_c, 0, 64, 87
1, 218944, Control_c, 0, 64, 95
1, 218953, Note_on_c, 0, 55, 42
1, 218959, Control_c, 0, 64, 106
1, 218962, Note_off_c, 0, 61, 46
1, 218974, Control_c, 0, 64, 124
1, 218979, Note_off_c, 0, 64, 55
1, 218988, Control_c, 0, 64, 127
1, 218988, Control_c, 0, 67, 9
1, 219003, Control_c, 0, 67, 13
1, 219016, Note_off_c, 0, 55, 58
1, 219018, Control_c, 0, 67, 17
1, 219021, Note_off_c, 0, 44, 33
1, 219034, Control_c, 0, 67, 23
1, 219047, Note_off_c, 0, 59, 35
1, 219048, Control_c, 0, 67, 27
1, 219063, Control_c, 0, 67, 32
1, 219070, Note_off_c, 0, 49, 39
1, 219078, Control_c, 0, 67, 38
1, 219093, Control_c, 0, 67, 47
1, 219108, Control_c, 0, 67, 54
1, 219123, Control_c, 0, 67, 59
1, 219137, Control_c, 0, 67, 64
1, 219152, Control_c, 0, 67, 68
1, 219167, Control_c, 0, 67, 72
1, 219182, Control_c, 0, 67, 76
1, 219197, Control_c, 0, 67, 79
1, 219206, Note_on_c, 0, 52, 41
1, 219211, Control_c, 0, 67, 81
1, 219226, Control_c, 0, 67, 83
1, 219241, Control_c, 0, 67, 84
1, 219248, Note_off_c, 0, 52, 60
1, 219256, Control_c, 0, 67, 85
1, 219265, Note_on_c, 0, 44, 39
1, 219288, Note_on_c, 0, 54, 34
1, 219300, Control_c, 0, 64, 100
1, 219300, Control_c, 0, 67, 85
1, 219323, Control_c, 0, 64, 84
1, 219332, Note_on_c, 0, 60, 33
1, 219337, Note_off_c, 0, 54, 52
1, 219338, Control_c, 0, 64, 71
1, 219338, Control_c, 0, 67, 86
1, 219352, Control_c, 0, 64, 64
1, 219359, Note_on_c, 0, 52, 50
1, 219359, Note_on_c, 0, 64, 39
1, 219364, Note_on_c, 0, 57, 18
1, 219367, Control_c, 0, 64, 56
1, 219367, Control_c, 0, 67, 86
1, 219382, Control_c, 0, 64, 42
1, 219382, Control_c, 0, 67, 87
1, 219397, Control_c, 0, 64, 0
1, 219397, Control_c, 0, 67, 89
1, 219412, Control_c, 0, 67, 92
1, 219426, Control_c, 0, 67, 94
1, 219441, Control_c, 0, 67, 97
1, 219456, Control_c, 0, 67, 98
1, 219470, Control_c, 0, 67, 99
1, 219544, Control_c, 0, 67, 98
1, 219559, Control_c, 0, 67, 95
1, 219574, Control_c, 0, 67, 93
1, 219588, Control_c, 0, 67, 92
1, 219633, Control_c, 0, 67, 94
1, 219648, Control_c, 0, 67, 95
1, 219663, Control_c, 0, 67, 96
1, 219677, Control_c, 0, 67, 97
1, 219692, Control_c, 0, 67, 98
1, 219697, Note_on_c, 0, 51, 50
1, 219700, Note_off_c, 0, 52, 58
1, 219707, Control_c, 0, 67, 99
1, 219722, Control_c, 0, 67, 101
1, 219737, Control_c, 0, 67, 104
1, 219752, Control_c, 0, 67, 109
1, 219767, Control_c, 0, 67, 115
1, 219782, Control_c, 0, 67, 122
1, 219796, Control_c, 0, 67, 127
1, 220115, Note_on_c, 0, 52, 47
1, 220119, Note_off_c, 0, 51, 54
1, 220485, Control_c, 0, 64, 49
1, 220500, Control_c, 0, 64, 57
1, 220515, Control_c, 0, 64, 62
1, 220530, Control_c, 0, 64, 64
1, 220545, Control_c, 0, 64, 66
1, 220560, Control_c, 0, 64, 69
1, 220575, Control_c, 0, 64, 72
1, 220590, Control_c, 0, 64, 75
1, 220605, Control_c, 0, 64, 80
1, 220619, Control_c, 0, 64, 83
1, 220634, Control_c, 0, 64, 84
1, 220649, Control_c, 0, 64, 87
1, 220664, Control_c, 0, 64, 92
1, 220679, Control_c, 0, 64, 100
1, 220694, Control_c, 0, 64, 111
1, 220709, Control_c, 0, 64, 127
1, 220795, Note_off_c, 0, 52, 42
1, 221284, Note_on_c, 0, 54, 35
1, 221295, Control_c, 0, 64, 99
1, 221309, Control_c, 0, 64, 84
1, 221324, Control_c, 0, 64, 74
1, 221339, Control_c, 0, 64, 67
1, 221368, Control_c, 0, 64, 71
1, 221383, Control_c, 0, 64, 77
1, 221398, Control_c, 0, 64, 82
1, 221413, Control_c, 0, 64, 84
1, 221428, Control_c, 0, 64, 86
1, 221444, Control_c, 0, 64, 89
1, 221458, Control_c, 0, 64, 93
1, 221473, Control_c, 0, 64, 98
1, 221488, Control_c, 0, 64, 101
1, 221503, Control_c, 0, 64, 104
1, 221518, Note_off_c, 0, 54, 44
1, 221518, Control_c, 0, 64, 107
1, 221532, Control_c, 0, 64, 108
1, 221688, Control_c, 0, 64, 107
1, 221703, Control_c, 0, 64, 105
1, 221718, Control_c, 0, 64, 102
1, 221732, Control_c, 0, 64, 99
1, 221736, Note_on_c, 0, 52, 38
1, 221747, Control_c, 0, 64, 94
1, 221762, Control_c, 0, 64, 88
1, 221777, Control_c, 0, 64, 82
1, 221792, Control_c, 0, 64, 76
1, 221806, Control_c, 0, 64, 69
1, 221821, Control_c, 0, 64, 50
1, 221836, Control_c, 0, 64, 0
1, 221940, Control_c, 0, 64, 52
1, 221955, Control_c, 0, 64, 64
1, 221970, Control_c, 0, 64, 68
1, 221984, Control_c, 0, 64, 72
1, 221999, Control_c, 0, 64, 78
1, 222014, Control_c, 0, 64, 84
1, 222029, Control_c, 0, 64, 89
1, 222044, Control_c, 0, 64, 94
1, 222058, Control_c, 0, 64, 99
1, 222073, Control_c, 0, 64, 104
1, 222088, Control_c, 0, 64, 111
1, 222103, Control_c, 0, 64, 121
1, 222118, Control_c, 0, 64, 127
1, 222122, Note_off_c, 0, 57, 43
1, 222127, Note_off_c, 0, 44, 44
1, 222144, Note_off_c, 0, 64, 32
1, 222152, Note_off_c, 0, 52, 42
1, 222157, Note_off_c, 0, 60, 42
1, 222792, Control_c, 0, 64, 116
1, 222806, Control_c, 0, 64, 104
1, 222821, Control_c, 0, 64, 93
1, 222836, Control_c, 0, 64, 86
1, 222851, Control_c, 0, 64, 79
1, 222866, Control_c, 0, 64, 73
1, 222880, Control_c, 0, 64, 67
1, 222895, Control_c, 0, 64, 56
1, 222910, Control_c, 0, 64, 0
1, 223029, Control_c, 0, 64, 45
1, 223044, Control_c, 0, 64, 65
1, 223067, Control_c, 0, 64, 70
1, 223082, Control_c, 0, 64, 74
1, 223097, Control_c, 0, 64, 78
1, 223111, Control_c, 0, 64, 82
1, 223126, Control_c, 0, 64, 88
1, 223141, Control_c, 0, 64, 98
1, 223156, Control_c, 0, 64, 107
1, 223171, Control_c, 0, 64, 120
1, 223185, Control_c, 0, 64, 127
1, 223362, Note_on_c, 0, 71, 35
1, 223367, Note_on_c, 0, 55, 24
1, 223383, Note_on_c, 0, 43, 21
1, 223385, Note_on_c, 0, 59, 29
1, 223391, Note_on_c, 0, 50, 25
1, 223399, Note_on_c, 0, 62, 30
1, 223415, Note_on_c, 0, 67, 25
1, 223456, Note_off_c, 0, 50, 60
1, 223459, Note_off_c, 0, 62, 56
1, 223463, Note_off_c, 0, 43, 54
1, 223466, Note_off_c, 0, 55, 54
1, 223466, Note_off_c, 0, 67, 53
1, 223467, Note_off_c, 0, 71, 62
1, 223470, Note_off_c, 0, 59, 58
1, 223815, Control_c, 0, 64, 113
1, 223830, Control_c, 0, 64, 103
1, 223845, Control_c, 0, 64, 96
1, 223860, Control_c, 0, 64, 91
1, 223875, Control_c, 0, 64, 87
1, 223889, Control_c, 0, 64, 84
1, 223904, Control_c, 0, 64, 81
1, 223919, Control_c, 0, 64, 79
1, 223934, Control_c, 0, 64, 75
1, 223949, Control_c, 0, 64, 71
1, 223964, Control_c, 0, 64, 67
1, 223979, Control_c, 0, 64, 63
1, 223994, Control_c, 0, 64, 60
1, 224008, Control_c, 0, 64, 54
1, 224023, Control_c, 0, 64, 49
1, 224038, Control_c, 0, 64, 42
1, 224053, Control_c, 0, 64, 24
1, 224067, Control_c, 0, 64, 0
1, 224526, Control_c, 0, 64, 46
1, 224541, Control_c, 0, 64, 59
1, 224563, Control_c, 0, 64, 64
1, 224578, Control_c, 0, 64, 66
1, 224593, Control_c, 0, 64, 67
1, 224608, Control_c, 0, 64, 68
1, 224623, Control_c, 0, 64, 69
1, 224638, Control_c, 0, 64, 71
1, 224653, Control_c, 0, 64, 74
1, 224669, Control_c, 0, 64, 79
1, 224683, Control_c, 0, 64, 84
1, 224698, Control_c, 0, 64, 89
1, 224713, Control_c, 0, 64, 92
1, 224728, Control_c, 0, 64, 97
1, 224743, Control_c, 0, 64, 103
1, 224757, Control_c, 0, 64, 112
1, 224772, Control_c, 0, 64, 127
1, 226119, Note_on_c, 0, 75, 56
1, 226128, Note_on_c, 0, 32, 42
1, 226137, Note_on_c, 0, 44, 38
1, 226138, Note_on_c, 0, 39, 39
1, 226155, Note_on_c, 0, 63, 31
1, 226167, Note_on_c, 0, 68, 28
1, 226169, Note_on_c, 0, 72, 32
1, 226251, Note_off_c, 0, 72, 50
1, 226253, Note_off_c, 0, 75, 59
1, 226256, Note_off_c, 0, 68, 38
1, 226268, Note_off_c, 0, 44, 35
1, 226287, Note_off_c, 0, 32, 44
1, 226301, Note_off_c, 0, 63, 41
1, 226305, Note_off_c, 0, 39, 40
1, 229004, Note_on_c, 0, 77, 54
1, 229031, Note_on_c, 0, 68, 30
1, 229036, Note_on_c, 0, 63, 27
1, 229037, Note_on_c, 0, 72, 31
1, 229120, Note_off_c, 0, 77, 57
1, 229203, Note_off_c, 0, 63, 28
1, 229230, Note_off_c, 0, 72, 45
1, 229243, Note_off_c, 0, 68, 39
1, 231722, Note_on_c, 0, 77, 44
1, 231735, Note_on_c, 0, 63, 23
1, 231756, Note_on_c, 0, 68, 12
1, 231759, Note_on_c, 0, 72, 22
1, 232117, Note_off_c, 0, 72, 45
1, 232196, Note_off_c, 0, 68, 40
1, 232215, Note_off_c, 0, 63, 43
1, 234245, Note_on_c, 0, 39, 25
1, 234406, Note_off_c, 0, 39, 40
1, 236430, Note_on_c, 0, 32, 29
1, 236600, Note_off_c, 0, 32, 42
1, 237265, Note_off_c, 0, 77, 28
1, 239057, Control_c, 0, 64, 111
1, 239072, Control_c, 0, 64, 100
1, 239087, Control_c, 0, 64, 95
1, 239102, Control_c, 0, 64, 91
1, 239117, Control_c, 0, 64, 89
1, 239131, Control_c, 0, 64, 88
1, 239176, Control_c, 0, 64, 88
1, 239190, Control_c, 0, 64, 87
1, 239205, Control_c, 0, 64, 86
1, 239220, Control_c, 0, 64, 85
1, 239235, Control_c, 0, 64, 84
1, 239250, Control_c, 0, 64, 83
1, 239265, Control_c, 0, 64, 81
1, 239280, Control_c, 0, 64, 79
1, 239295, Control_c, 0, 64, 77
1, 239309, Control_c, 0, 64, 75
1, 239324, Control_c, 0, 64, 74
1, 239339, Control_c, 0, 64, 73
1, 239354, Control_c, 0, 64, 72
1, 239369, Control_c, 0, 64, 71
1, 239383, Control_c, 0, 64, 71
1, 239398, Control_c, 0, 64, 70
1, 239413, Control_c, 0, 64, 70
1, 239443, Control_c, 0, 64, 69
1, 239457, Control_c, 0, 64, 68
1, 239472, Control_c, 0, 64, 68
1, 239501, Control_c, 0, 64, 67
1, 239539, Control_c, 0, 64, 67
1, 239569, Control_c, 0, 64, 66
1, 239598, Control_c, 0, 64, 66
1, 239613, Control_c, 0, 64, 65
1, 239628, Control_c, 0, 64, 65
1, 239642, Control_c, 0, 64, 64
1, 239656, Control_c, 0, 64, 64
1, 239671, Control_c, 0, 64, 63
1, 239686, Control_c, 0, 64, 63
1, 239701, Control_c, 0, 64, 62
1, 239715, Control_c, 0, 64, 62
1, 239730, Control_c, 0, 64, 60
1, 239745, Control_c, 0, 64, 59
1, 239760, Control_c, 0, 64, 58
1, 239775, Control_c, 0, 64, 56
1, 239790, Control_c, 0, 64, 53
1, 239805, Control_c, 0, 64, 48
1, 239820, Control_c, 0, 64, 44
1, 239835, Control_c, 0, 64, 43
1, 239850, Control_c, 0, 64, 42
1, 239865, Control_c, 0, 64, 36
1, 239879, Control_c, 0, 64, 11
1, 239894, Control_c, 0, 64, 0
1, 241497, Control_c, 0, 64, 14
1, 241512, Control_c, 0, 64, 19
1, 241526, Control_c, 0, 64, 21
1, 241541, Control_c, 0, 64, 23
1, 241571, Control_c, 0, 64, 26
1, 241585, Control_c, 0, 64, 29
1, 241600, Control_c, 0, 64, 30
1, 241615, Control_c, 0, 64, 31
1, 241630, Control_c, 0, 64, 33
1, 241645, Control_c, 0, 64, 35
1, 241659, Control_c, 0, 64, 37
1, 241674, Control_c, 0, 64, 39
1, 241689, Control_c, 0, 64, 40
1, 241703, Control_c, 0, 64, 42
1, 241718, Control_c, 0, 64, 44
1, 241733, Control_c, 0, 64, 45
1, 241763, Control_c, 0, 64, 45
1, 241785, Control_c, 0, 64, 47
1, 241800, Control_c, 0, 64, 48
1, 241815, Control_c, 0, 64, 49
1, 241845, Control_c, 0, 64, 50
1, 241859, Control_c, 0, 64, 50
1, 241874, Control_c, 0, 64, 51
1, 241889, Control_c, 0, 64, 51
1, 241963, Control_c, 0, 64, 51
1, 241978, Control_c, 0, 64, 50
1, 241993, Control_c, 0, 64, 50
1, 242022, Control_c, 0, 64, 49
1, 242037, Control_c, 0, 64, 48
1, 242052, Control_c, 0, 64, 47
1, 242067, Control_c, 0, 64, 46
1, 242082, Control_c, 0, 64, 45
1, 242097, Control_c, 0, 64, 44
1, 242111, Control_c, 0, 64, 42
1, 242126, Control_c, 0, 64, 41
1, 242141, Control_c, 0, 64, 40
1, 242201, Control_c, 0, 64, 40
1, 242246, Control_c, 0, 64, 41
1, 242261, Control_c, 0, 64, 42
1, 242334, Control_c, 0, 64, 42
1, 242349, Control_c, 0, 64, 43
1, 242482, Control_c, 0, 64, 44
1, 242512, Control_c, 0, 64, 45
1, 242512, Control_c, 0, 67, 127
1, 242534, Control_c, 0, 64, 46
1, 242534, Control_c, 0, 67, 123
1, 242549, Control_c, 0, 64, 46
1, 242549, Control_c, 0, 67, 120
1, 242564, Control_c, 0, 67, 116
1, 242579, Control_c, 0, 64, 46
1, 242579, Control_c, 0, 67, 113
1, 242594, Control_c, 0, 64, 44
1, 242594, Control_c, 0, 67, 108
1, 242608, Control_c, 0, 64, 40
1, 242608, Control_c, 0, 67, 102
1, 242623, Control_c, 0, 64, 32
1, 242623, Control_c, 0, 67, 95
1, 242638, Control_c, 0, 64, 0
1, 242638, Control_c, 0, 67, 85
1, 242653, Control_c, 0, 67, 74
1, 242668, Control_c, 0, 67, 59
1, 242682, Control_c, 0, 67, 42
1, 242697, Control_c, 0, 67, 21
1, 242712, Control_c, 0, 67, 0
1, 242787, End_track
0, 0, End_of_file
