0, 0, Header, 0, 1, 384
1, 0, Start_track
1, 0, Title_t, "Impromptu Op. 90/1--Ran Sun        "
1, 0, Text_t, "2008 e-Piano Junior Competition virtual audition round"
1, 0, Text_t, "recorded January and February 2008"
1, 0, Text_t, "http://www.piano-e-competition.com/"
1, 0, Text_t, "File processed for distribution by software from Zenph Studios, Inc., http://www.zenph.com"
1, 0, Instrument_name_t, "Yamaha Disklavier Pro Mark IV concert grand piano, model DCFIIISM4PRO"
1, 0, Sequencer_specific, 39, 67, 113, 0, 1, 0, 1, 0, 73, 109, 112, 114, 111, 109, 112, 116, 117, 32, 79, 112, 57, 48, 47, 49, 82, 97, 110, 32, 83, 117, 110, 32, 32, 32, 32, 32, 32, 32, 32, 32
1, 0, Sequencer_specific, 6, 67, 113, 0, 0, 0, 69
1, 0, System_exclusive, 21, 67, 113, 126, 21, 0, 2, 2, 0, 0, 8, 1, 4, 7, 9, 14, 7, 7, 1, 11, 7, 247
1, 0, Sequencer_specific, 5, 67, 123, 12, 2, 1
1, 0, Tempo, 512820
1, 0, Time_signature, 4, 2, 24, 8
1, 0, System_exclusive, 5, 126, 127, 9, 1, 247
1, 1, System_exclusive, 8, 67, 16, 76, 0, 0, 126, 0, 247
1, 2, System_exclusive, 8, 67, 16, 76, 8, 9, 7, 1, 247
1, 3, Control_c, 0, 0, 0
1, 3, Control_c, 1, 0, 0
1, 3, Control_c, 2, 0, 0
1, 3, Control_c, 3, 0, 0
1, 3, Control_c, 4, 0, 0
1, 3, Control_c, 5, 0, 0
1, 3, Control_c, 6, 0, 0
1, 3, Control_c, 7, 0, 0
1, 3, Control_c, 8, 0, 0
1, 3, Control_c, 9, 0, 127
1, 3, Control_c, 10, 0, 0
1, 3, Control_c, 11, 0, 0
1, 3, Control_c, 12, 0, 0
1, 3, Control_c, 13, 0, 0
1, 3, Control_c, 14, 0, 0
1, 3, Control_c, 15, 0, 0
1, 4, Control_c, 0, 32, 0
1, 4, Control_c, 1, 32, 0
1, 4, Control_c, 2, 32, 0
1, 4, Control_c, 3, 32, 0
1, 4, Control_c, 4, 32, 0
1, 4, Control_c, 5, 32, 0
1, 4, Control_c, 6, 32, 0
1, 4, Control_c, 7, 32, 0
1, 4, Control_c, 8, 32, 0
1, 4, Control_c, 9, 32, 0
1, 4, Control_c, 10, 32, 0
1, 4, Control_c, 11, 32, 0
1, 4, Control_c, 12, 32, 0
1, 4, Control_c, 13, 32, 0
1, 4, Control_c, 14, 32, 0
1, 4, Control_c, 15, 32, 0
1, 5, Program_c, 0, 0
1, 5, Program_c, 1, 0
1, 5, Program_c, 2, 0
1, 5, Program_c, 3, 0
1, 5, Program_c, 4, 0
1, 5, Program_c, 5, 0
1, 5, Program_c, 6, 0
1, 5, Program_c, 7, 0
1, 5, Program_c, 8, 0
1, 5, Program_c, 9, 0
1, 5, Program_c, 10, 0
1, 5, Program_c, 11, 0
1, 5, Program_c, 12, 0
1, 5, Program_c, 13, 0
1, 5, Program_c, 14, 0
1, 5, Program_c, 15, 0
1, 6, Control_c, 0, 7, 100
1, 6, Control_c, 1, 7, 100
1, 6, Control_c, 2, 7, 100
1, 6, Control_c, 3, 7, 100
1, 6, Control_c, 4, 7, 100
1, 6, Control_c, 5, 7, 100
1, 6, Control_c, 6, 7, 100
1, 6, Control_c, 7, 7, 100
1, 6, Control_c, 8, 7, 100
1, 6, Control_c, 9, 7, 100
1, 6, Control_c, 10, 7, 100
1, 6, Control_c, 11, 7, 100
1, 6, Control_c, 12, 7, 100
1, 6, Control_c, 13, 7, 100
1, 6, Control_c, 14, 7, 100
1, 6, Control_c, 15, 7, 100
1, 1128, Note_on_c, 0, 79, 86
1, 1131, Note_on_c, 0, 67, 85
1, 1134, Note_on_c, 0, 31, 80
1, 1136, Note_on_c, 0, 43, 84
1, 1325, Control_c, 0, 64, 41
1, 1340, Control_c, 0, 64, 54
1, 1354, Control_c, 0, 64, 59
1, 1369, Control_c, 0, 64, 61
1, 1384, Control_c, 0, 64, 63
1, 1399, Control_c, 0, 64, 66
1, 1414, Control_c, 0, 64, 70
1, 1428, Control_c, 0, 64, 74
1, 1443, Control_c, 0, 64, 77
1, 1466, Control_c, 0, 64, 79
1, 1481, Control_c, 0, 64, 80
1, 1496, Control_c, 0, 64, 82
1, 1614, Control_c, 0, 64, 81
1, 1629, Control_c, 0, 64, 80
1, 1643, Control_c, 0, 64, 80
1, 1658, Control_c, 0, 64, 79
1, 1673, Control_c, 0, 64, 79
1, 1687, Control_c, 0, 64, 78
1, 1717, Control_c, 0, 64, 77
1, 1733, Control_c, 0, 64, 76
1, 1748, Control_c, 0, 64, 75
1, 1763, Control_c, 0, 64, 73
1, 1778, Control_c, 0, 64, 72
1, 1792, Control_c, 0, 64, 72
1, 1822, Control_c, 0, 64, 71
1, 1837, Control_c, 0, 64, 70
1, 1852, Control_c, 0, 64, 69
1, 1866, Control_c, 0, 64, 68
1, 1881, Control_c, 0, 64, 67
1, 1896, Control_c, 0, 64, 66
1, 1911, Control_c, 0, 64, 66
1, 1926, Control_c, 0, 64, 65
1, 1941, Control_c, 0, 64, 64
1, 1956, Control_c, 0, 64, 64
1, 1971, Control_c, 0, 64, 63
1, 2000, Control_c, 0, 64, 62
1, 2015, Control_c, 0, 64, 62
1, 2045, Control_c, 0, 64, 61
1, 2059, Control_c, 0, 64, 60
1, 2074, Control_c, 0, 64, 60
1, 2089, Control_c, 0, 64, 59
1, 2104, Control_c, 0, 64, 59
1, 2119, Control_c, 0, 64, 58
1, 2133, Control_c, 0, 64, 57
1, 2148, Control_c, 0, 64, 57
1, 2163, Control_c, 0, 64, 56
1, 2177, Control_c, 0, 64, 55
1, 2192, Control_c, 0, 64, 55
1, 2215, Control_c, 0, 64, 54
1, 2230, Control_c, 0, 64, 52
1, 2245, Control_c, 0, 64, 51
1, 2259, Control_c, 0, 64, 49
1, 2274, Control_c, 0, 64, 47
1, 2289, Control_c, 0, 64, 44
1, 2304, Control_c, 0, 64, 39
1, 2318, Control_c, 0, 64, 47
1, 2333, Control_c, 0, 64, 39
1, 2348, Control_c, 0, 64, 22
1, 2363, Control_c, 0, 64, 0
1, 6996, Note_off_c, 0, 79, 33
1, 7160, Note_off_c, 0, 31, 32
1, 7211, Note_off_c, 0, 43, 31
1, 7217, Note_off_c, 0, 67, 42
1, 7857, Control_c, 0, 67, 18
1, 7872, Control_c, 0, 67, 25
1, 7887, Control_c, 0, 67, 33
1, 7902, Control_c, 0, 67, 45
1, 7917, Control_c, 0, 67, 57
1, 7931, Control_c, 0, 67, 69
1, 7946, Control_c, 0, 67, 80
1, 7961, Control_c, 0, 67, 92
1, 7976, Control_c, 0, 67, 102
1, 7991, Control_c, 0, 67, 114
1, 8005, Control_c, 0, 67, 121
1, 8020, Control_c, 0, 67, 124
1, 8035, Control_c, 0, 67, 126
1, 8049, Control_c, 0, 67, 126
1, 8064, Control_c, 0, 67, 127
1, 8079, Control_c, 0, 67, 127
1, 8207, Control_c, 0, 67, 127
1, 8221, Control_c, 0, 67, 126
1, 8236, Control_c, 0, 67, 126
1, 8251, Control_c, 0, 67, 124
1, 8266, Control_c, 0, 67, 123
1, 8280, Control_c, 0, 67, 122
1, 8295, Control_c, 0, 67, 121
1, 8310, Control_c, 0, 67, 120
1, 8325, Control_c, 0, 67, 118
1, 8340, Control_c, 0, 67, 117
1, 8354, Control_c, 0, 67, 117
1, 8561, Control_c, 0, 67, 117
1, 8842, Note_on_c, 0, 71, 40
1, 8887, Control_c, 0, 67, 118
1, 8902, Control_c, 0, 67, 118
1, 8918, Control_c, 0, 67, 119
1, 8933, Control_c, 0, 67, 119
1, 8955, Control_c, 0, 67, 120
1, 9000, Control_c, 0, 67, 120
1, 9246, Note_on_c, 0, 72, 48
1, 9279, Note_off_c, 0, 71, 41
1, 9405, Note_on_c, 0, 74, 50
1, 9408, Note_off_c, 0, 72, 46
1, 9488, Control_c, 0, 67, 121
1, 9533, Control_c, 0, 64, 23
1, 9548, Control_c, 0, 64, 48
1, 9563, Control_c, 0, 64, 58
1, 9577, Control_c, 0, 64, 61
1, 9592, Control_c, 0, 64, 62
1, 9600, Note_off_c, 0, 74, 37
1, 9607, Control_c, 0, 64, 64
1, 9621, Control_c, 0, 64, 66
1, 9636, Control_c, 0, 64, 68
1, 9651, Control_c, 0, 64, 71
1, 9651, Control_c, 0, 67, 120
1, 9666, Control_c, 0, 64, 73
1, 9681, Control_c, 0, 64, 75
1, 9703, Control_c, 0, 64, 77
1, 9703, Control_c, 0, 67, 120
1, 9718, Control_c, 0, 64, 78
1, 9733, Control_c, 0, 64, 80
1, 9748, Control_c, 0, 64, 81
1, 9763, Control_c, 0, 64, 82
1, 9778, Control_c, 0, 64, 83
1, 9793, Control_c, 0, 64, 84
1, 9807, Control_c, 0, 64, 84
1, 9822, Control_c, 0, 64, 85
1, 9837, Control_c, 0, 67, 119
1, 9941, Control_c, 0, 64, 83
1, 9956, Control_c, 0, 64, 77
1, 9965, Note_on_c, 0, 74, 56
1, 9971, Control_c, 0, 64, 66
1, 9986, Control_c, 0, 64, 58
1, 10015, Control_c, 0, 64, 62
1, 10030, Control_c, 0, 64, 66
1, 10044, Control_c, 0, 64, 72
1, 10059, Control_c, 0, 64, 80
1, 10074, Control_c, 0, 64, 87
1, 10089, Control_c, 0, 64, 88
1, 10132, Note_off_c, 0, 74, 54
1, 10430, Control_c, 0, 64, 87
1, 10451, Control_c, 0, 64, 87
1, 10466, Control_c, 0, 64, 86
1, 10481, Control_c, 0, 64, 84
1, 10496, Control_c, 0, 64, 79
1, 10511, Control_c, 0, 64, 71
1, 10522, Note_on_c, 0, 74, 58
1, 10527, Control_c, 0, 64, 61
1, 10542, Control_c, 0, 64, 52
1, 10556, Control_c, 0, 64, 51
1, 10571, Control_c, 0, 64, 52
1, 10586, Control_c, 0, 64, 58
1, 10601, Control_c, 0, 64, 62
1, 10616, Control_c, 0, 64, 65
1, 10630, Control_c, 0, 64, 69
1, 10645, Control_c, 0, 64, 74
1, 10660, Control_c, 0, 64, 78
1, 10660, Control_c, 0, 67, 120
1, 10675, Control_c, 0, 64, 81
1, 10690, Control_c, 0, 64, 81
1, 10853, Control_c, 0, 67, 119
1, 10882, Control_c, 0, 64, 81
1, 10882, Control_c, 0, 67, 119
1, 10927, Control_c, 0, 64, 80
1, 10941, Control_c, 0, 64, 80
1, 10956, Control_c, 0, 64, 79
1, 10971, Control_c, 0, 64, 78
1, 10986, Control_c, 0, 64, 77
1, 11000, Control_c, 0, 64, 75
1, 11015, Control_c, 0, 64, 73
1, 11030, Control_c, 0, 64, 70
1, 11045, Control_c, 0, 64, 68
1, 11045, Control_c, 0, 67, 119
1, 11060, Control_c, 0, 64, 66
1, 11074, Control_c, 0, 64, 64
1, 11074, Control_c, 0, 67, 120
1, 11089, Control_c, 0, 64, 61
1, 11089, Control_c, 0, 67, 120
1, 11092, Note_on_c, 0, 72, 60
1, 11104, Control_c, 0, 64, 58
1, 11119, Control_c, 0, 64, 54
1, 11134, Control_c, 0, 64, 48
1, 11145, Note_off_c, 0, 74, 49
1, 11149, Control_c, 0, 64, 47
1, 11164, Control_c, 0, 64, 44
1, 11179, Control_c, 0, 64, 41
1, 11200, Control_c, 0, 64, 34
1, 11200, Control_c, 0, 67, 121
1, 11215, Control_c, 0, 64, 27
1, 11230, Control_c, 0, 64, 16
1, 11245, Control_c, 0, 64, 0
1, 11320, Control_c, 0, 67, 120
1, 11335, Control_c, 0, 67, 120
1, 11409, Control_c, 0, 67, 119
1, 11423, Control_c, 0, 67, 118
1, 11438, Control_c, 0, 67, 117
1, 11453, Control_c, 0, 67, 116
1, 11468, Control_c, 0, 67, 115
1, 11483, Control_c, 0, 67, 114
1, 11498, Control_c, 0, 67, 113
1, 11513, Control_c, 0, 67, 110
1, 11527, Control_c, 0, 67, 104
1, 11542, Control_c, 0, 67, 96
1, 11551, Note_on_c, 0, 74, 64
1, 11557, Control_c, 0, 67, 87
1, 11572, Control_c, 0, 67, 74
1, 11587, Control_c, 0, 67, 60
1, 11602, Control_c, 0, 67, 44
1, 11611, Note_off_c, 0, 72, 56
1, 11616, Control_c, 0, 67, 33
1, 11631, Control_c, 0, 67, 36
1, 11646, Control_c, 0, 67, 35
1, 11730, Note_on_c, 0, 75, 69
1, 11735, Control_c, 0, 67, 34
1, 11794, Control_c, 0, 67, 34
1, 11798, Note_off_c, 0, 74, 52
1, 12395, Control_c, 0, 67, 34
1, 12410, Control_c, 0, 64, 16
1, 12425, Control_c, 0, 64, 16
1, 12425, Control_c, 0, 67, 35
1, 12440, Control_c, 0, 67, 35
1, 12454, Control_c, 0, 64, 17
1, 12469, Control_c, 0, 67, 36
1, 12514, Control_c, 0, 67, 36
1, 12559, Control_c, 0, 67, 37
1, 12681, Note_on_c, 0, 74, 53
1, 12753, Note_off_c, 0, 75, 35
1, 12759, Control_c, 0, 64, 18
1, 12986, Note_on_c, 0, 72, 46
1, 12995, Control_c, 0, 67, 36
1, 13042, Note_off_c, 0, 74, 35
1, 13098, Control_c, 0, 64, 18
1, 13187, Control_c, 0, 67, 36
1, 13276, Control_c, 0, 64, 19
1, 13276, Control_c, 0, 67, 35
1, 13306, Control_c, 0, 67, 35
1, 13335, Control_c, 0, 67, 34
1, 13531, Note_on_c, 0, 74, 53
1, 13563, Note_off_c, 0, 72, 40
1, 13966, Note_on_c, 0, 72, 50
1, 14028, Note_off_c, 0, 74, 30
1, 14110, Note_on_c, 0, 71, 50
1, 14139, Note_off_c, 0, 72, 35
1, 14684, Note_on_c, 0, 69, 48
1, 14707, Note_off_c, 0, 71, 33
1, 15165, Note_on_c, 0, 71, 48
1, 15221, Note_off_c, 0, 69, 35
1, 15301, Note_on_c, 0, 72, 52
1, 15314, Note_off_c, 0, 71, 49
1, 15449, Control_c, 0, 64, 19
1, 15523, Control_c, 0, 64, 20
1, 15862, Note_off_c, 0, 72, 55
1, 15864, Note_on_c, 0, 74, 58
1, 16034, Control_c, 0, 67, 35
1, 16109, Control_c, 0, 67, 35
1, 16168, Control_c, 0, 67, 36
1, 16242, Control_c, 0, 67, 36
1, 16309, Note_on_c, 0, 75, 46
1, 16340, Note_off_c, 0, 74, 43
1, 16360, Control_c, 0, 67, 37
1, 16419, Control_c, 0, 67, 37
1, 16444, Note_off_c, 0, 75, 50
1, 16463, Note_on_c, 0, 74, 53
1, 16472, Control_c, 0, 67, 38
1, 16486, Control_c, 0, 67, 38
1, 16501, Control_c, 0, 67, 39
1, 16516, Control_c, 0, 64, 19
1, 16516, Control_c, 0, 67, 39
1, 16531, Control_c, 0, 67, 40
1, 16545, Control_c, 0, 64, 19
1, 16545, Control_c, 0, 67, 40
1, 16560, Control_c, 0, 64, 18
1, 16560, Control_c, 0, 67, 41
1, 16575, Control_c, 0, 64, 18
1, 16575, Control_c, 0, 67, 42
1, 16590, Control_c, 0, 64, 17
1, 16590, Control_c, 0, 67, 42
1, 16605, Control_c, 0, 64, 16
1, 16605, Control_c, 0, 67, 43
1, 16619, Control_c, 0, 67, 44
1, 16634, Control_c, 0, 67, 45
1, 16649, Control_c, 0, 67, 49
1, 16664, Control_c, 0, 67, 54
1, 16679, Control_c, 0, 67, 61
1, 16693, Control_c, 0, 64, 0
1, 16693, Control_c, 0, 67, 68
1, 16708, Control_c, 0, 67, 76
1, 16723, Control_c, 0, 67, 83
1, 16738, Control_c, 0, 67, 89
1, 16753, Control_c, 0, 67, 93
1, 16768, Control_c, 0, 67, 96
1, 16783, Control_c, 0, 67, 98
1, 16798, Control_c, 0, 67, 100
1, 16812, Control_c, 0, 67, 102
1, 16827, Control_c, 0, 67, 104
1, 16842, Control_c, 0, 67, 106
1, 16857, Control_c, 0, 67, 109
1, 16872, Control_c, 0, 67, 112
1, 16886, Control_c, 0, 67, 116
1, 16901, Control_c, 0, 67, 119
1, 16917, Control_c, 0, 67, 123
1, 16932, Control_c, 0, 67, 127
1, 17472, Control_c, 0, 64, 19
1, 17487, Control_c, 0, 64, 39
1, 17502, Control_c, 0, 64, 51
1, 17516, Control_c, 0, 64, 57
1, 17531, Control_c, 0, 64, 60
1, 17546, Control_c, 0, 64, 63
1, 17561, Control_c, 0, 64, 67
1, 17576, Control_c, 0, 64, 71
1, 17591, Control_c, 0, 64, 77
1, 17605, Note_off_c, 0, 74, 59
1, 17605, Control_c, 0, 64, 83
1, 17620, Control_c, 0, 64, 89
1, 17635, Control_c, 0, 64, 93
1, 17650, Control_c, 0, 64, 97
1, 17665, Control_c, 0, 64, 99
1, 17680, Control_c, 0, 64, 99
1, 17694, Control_c, 0, 64, 100
1, 17755, Control_c, 0, 64, 100
1, 18058, Control_c, 0, 64, 99
1, 18088, Control_c, 0, 64, 99
1, 18103, Control_c, 0, 64, 98
1, 18118, Control_c, 0, 64, 97
1, 18132, Control_c, 0, 64, 95
1, 18147, Control_c, 0, 64, 91
1, 18162, Control_c, 0, 64, 84
1, 18169, Note_on_c, 0, 67, 44
1, 18170, Note_on_c, 0, 71, 47
1, 18177, Note_on_c, 0, 62, 32
1, 18177, Control_c, 0, 64, 75
1, 18184, Note_on_c, 0, 55, 26
1, 18191, Control_c, 0, 64, 66
1, 18206, Control_c, 0, 64, 61
1, 18221, Control_c, 0, 64, 61
1, 18252, Control_c, 0, 64, 62
1, 18266, Control_c, 0, 64, 65
1, 18281, Control_c, 0, 64, 68
1, 18296, Control_c, 0, 64, 72
1, 18310, Control_c, 0, 64, 79
1, 18325, Control_c, 0, 64, 86
1, 18340, Control_c, 0, 64, 92
1, 18354, Note_off_c, 0, 71, 60
1, 18355, Control_c, 0, 64, 94
1, 18357, Note_off_c, 0, 62, 39
1, 18360, Note_off_c, 0, 55, 38
1, 18370, Control_c, 0, 64, 94
1, 18371, Note_off_c, 0, 67, 54
1, 18384, Control_c, 0, 64, 95
1, 18399, Control_c, 0, 64, 95
1, 18414, Control_c, 0, 64, 96
1, 18429, Control_c, 0, 64, 97
1, 18444, Control_c, 0, 64, 98
1, 18458, Control_c, 0, 64, 99
1, 18571, Note_on_c, 0, 67, 44
1, 18572, Note_on_c, 0, 72, 63
1, 18584, Note_on_c, 0, 55, 44
1, 18585, Note_on_c, 0, 63, 44
1, 18611, Note_off_c, 0, 63, 56
1, 18614, Note_off_c, 0, 67, 55
1, 18631, Note_off_c, 0, 55, 45
1, 18639, Note_off_c, 0, 72, 54
1, 18652, Control_c, 0, 64, 98
1, 18667, Control_c, 0, 64, 96
1, 18689, Control_c, 0, 64, 93
1, 18704, Control_c, 0, 64, 88
1, 18719, Control_c, 0, 64, 78
1, 18731, Note_on_c, 0, 74, 68
1, 18733, Control_c, 0, 64, 67
1, 18739, Note_on_c, 0, 65, 55
1, 18741, Note_on_c, 0, 67, 53
1, 18745, Note_on_c, 0, 55, 39
1, 18748, Control_c, 0, 64, 56
1, 18763, Control_c, 0, 64, 54
1, 18778, Control_c, 0, 64, 55
1, 18793, Control_c, 0, 64, 60
1, 18805, Note_off_c, 0, 65, 53
1, 18807, Control_c, 0, 64, 64
1, 18822, Control_c, 0, 64, 69
1, 18823, Note_off_c, 0, 74, 55
1, 18831, Note_off_c, 0, 67, 59
1, 18837, Control_c, 0, 64, 76
1, 18852, Control_c, 0, 64, 83
1, 18859, Note_off_c, 0, 55, 35
1, 18867, Control_c, 0, 64, 93
1, 18881, Control_c, 0, 64, 95
1, 18911, Control_c, 0, 64, 95
1, 18926, Control_c, 0, 64, 96
1, 18941, Control_c, 0, 64, 97
1, 18956, Control_c, 0, 64, 98
1, 18971, Control_c, 0, 64, 98
1, 19000, Control_c, 0, 64, 99
1, 19221, Control_c, 0, 64, 98
1, 19236, Control_c, 0, 64, 97
1, 19251, Control_c, 0, 64, 95
1, 19266, Control_c, 0, 64, 88
1, 19281, Control_c, 0, 64, 78
1, 19284, Note_on_c, 0, 74, 68
1, 19295, Note_on_c, 0, 67, 52
1, 19296, Control_c, 0, 64, 66
1, 19298, Note_on_c, 0, 65, 51
1, 19302, Note_on_c, 0, 55, 42
1, 19311, Control_c, 0, 64, 58
1, 19326, Control_c, 0, 64, 57
1, 19341, Control_c, 0, 64, 59
1, 19355, Control_c, 0, 64, 64
1, 19370, Control_c, 0, 64, 68
1, 19385, Control_c, 0, 64, 75
1, 19388, Note_off_c, 0, 55, 59
1, 19400, Control_c, 0, 64, 84
1, 19406, Note_off_c, 0, 65, 36
1, 19409, Note_off_c, 0, 67, 56
1, 19415, Control_c, 0, 64, 92
1, 19421, Note_off_c, 0, 74, 55
1, 19437, Control_c, 0, 64, 94
1, 19511, Control_c, 0, 64, 95
1, 19526, Control_c, 0, 64, 95
1, 19793, Control_c, 0, 64, 95
1, 19808, Control_c, 0, 64, 93
1, 19823, Control_c, 0, 64, 90
1, 19837, Control_c, 0, 64, 83
1, 19841, Note_on_c, 0, 74, 70
1, 19847, Note_on_c, 0, 67, 60
1, 19849, Note_on_c, 0, 55, 44
1, 19852, Control_c, 0, 64, 73
1, 19853, Note_on_c, 0, 65, 55
1, 19867, Control_c, 0, 64, 63
1, 19881, Control_c, 0, 64, 58
1, 19896, Control_c, 0, 64, 59
1, 19911, Control_c, 0, 64, 63
1, 19926, Control_c, 0, 64, 67
1, 19941, Note_off_c, 0, 65, 59
1, 19941, Control_c, 0, 64, 73
1, 19943, Note_off_c, 0, 55, 59
1, 19955, Control_c, 0, 64, 82
1, 19970, Control_c, 0, 64, 93
1, 19973, Note_off_c, 0, 74, 55
1, 19985, Control_c, 0, 64, 96
1, 19998, Note_off_c, 0, 67, 50
1, 20059, Control_c, 0, 64, 97
1, 20364, Control_c, 0, 64, 96
1, 20378, Control_c, 0, 64, 94
1, 20393, Control_c, 0, 64, 88
1, 20396, Note_on_c, 0, 72, 69
1, 20401, Note_on_c, 0, 55, 48
1, 20402, Note_on_c, 0, 67, 66
1, 20408, Control_c, 0, 64, 79
1, 20411, Note_on_c, 0, 63, 51
1, 20423, Control_c, 0, 64, 68
1, 20438, Control_c, 0, 64, 60
1, 20453, Control_c, 0, 64, 57
1, 20467, Control_c, 0, 64, 60
1, 20482, Control_c, 0, 64, 65
1, 20497, Control_c, 0, 64, 70
1, 20512, Control_c, 0, 64, 78
1, 20515, Note_off_c, 0, 63, 57
1, 20527, Control_c, 0, 64, 90
1, 20527, Note_off_c, 0, 55, 60
1, 20536, Note_off_c, 0, 67, 60
1, 20542, Control_c, 0, 64, 99
1, 20557, Control_c, 0, 64, 101
1, 20559, Note_off_c, 0, 72, 56
1, 20822, Note_on_c, 0, 55, 49
1, 20824, Note_on_c, 0, 74, 74
1, 20828, Note_on_c, 0, 67, 64
1, 20829, Note_on_c, 0, 65, 58
1, 20859, Note_off_c, 0, 65, 58
1, 20867, Note_off_c, 0, 55, 58
1, 20882, Control_c, 0, 64, 101
1, 20883, Note_off_c, 0, 67, 58
1, 20891, Note_off_c, 0, 74, 61
1, 20898, Control_c, 0, 64, 99
1, 20913, Control_c, 0, 64, 98
1, 20935, Control_c, 0, 64, 96
1, 20950, Control_c, 0, 64, 93
1, 20965, Control_c, 0, 64, 90
1, 20980, Control_c, 0, 64, 85
1, 20995, Control_c, 0, 64, 76
1, 21002, Note_on_c, 0, 67, 65
1, 21004, Note_on_c, 0, 75, 73
1, 21004, Note_on_c, 0, 55, 48
1, 21009, Control_c, 0, 64, 66
1, 21024, Control_c, 0, 64, 55
1, 21039, Control_c, 0, 64, 41
1, 21054, Control_c, 0, 64, 24
1, 21069, Control_c, 0, 64, 0
1, 21231, Control_c, 0, 67, 126
1, 21246, Control_c, 0, 67, 120
1, 21261, Control_c, 0, 67, 113
1, 21275, Control_c, 0, 67, 104
1, 21290, Control_c, 0, 67, 95
1, 21305, Control_c, 0, 67, 85
1, 21320, Control_c, 0, 67, 73
1, 21335, Control_c, 0, 67, 66
1, 21350, Control_c, 0, 67, 61
1, 21364, Control_c, 0, 67, 58
1, 21379, Control_c, 0, 67, 57
1, 21394, Control_c, 0, 67, 56
1, 21409, Control_c, 0, 67, 55
1, 21424, Control_c, 0, 67, 54
1, 21439, Control_c, 0, 67, 53
1, 21454, Control_c, 0, 67, 51
1, 21469, Control_c, 0, 67, 49
1, 21483, Control_c, 0, 67, 47
1, 21498, Control_c, 0, 67, 46
1, 21557, Control_c, 0, 67, 46
1, 21589, Note_on_c, 0, 57, 51
1, 21601, Control_c, 0, 67, 45
1, 21616, Control_c, 0, 67, 44
1, 21627, Note_off_c, 0, 55, 46
1, 21631, Control_c, 0, 67, 43
1, 21645, Control_c, 0, 67, 42
1, 21660, Control_c, 0, 67, 42
1, 21683, Control_c, 0, 67, 41
1, 21698, Control_c, 0, 67, 41
1, 21743, Control_c, 0, 67, 40
1, 21758, Control_c, 0, 64, 21
1, 21758, Control_c, 0, 67, 40
1, 21773, Control_c, 0, 64, 39
1, 21773, Control_c, 0, 67, 39
1, 21788, Control_c, 0, 64, 53
1, 21788, Control_c, 0, 67, 37
1, 21803, Control_c, 0, 64, 62
1, 21803, Control_c, 0, 67, 35
1, 21818, Control_c, 0, 64, 66
1, 21818, Control_c, 0, 67, 32
1, 21832, Control_c, 0, 64, 69
1, 21832, Control_c, 0, 67, 29
1, 21847, Control_c, 0, 64, 73
1, 21847, Control_c, 0, 67, 25
1, 21862, Control_c, 0, 64, 79
1, 21862, Control_c, 0, 67, 22
1, 21875, Note_off_c, 0, 75, 50
1, 21877, Control_c, 0, 64, 85
1, 21877, Control_c, 0, 67, 18
1, 21892, Control_c, 0, 64, 89
1, 21906, Control_c, 0, 64, 91
1, 21916, Note_off_c, 0, 67, 36
1, 21921, Control_c, 0, 64, 92
1, 21950, Control_c, 0, 64, 93
1, 21950, Control_c, 0, 67, 0
1, 22008, Note_on_c, 0, 74, 71
1, 22010, Note_on_c, 0, 67, 55
1, 22015, Note_on_c, 0, 65, 55
1, 22023, Note_on_c, 0, 59, 44
1, 22055, Note_off_c, 0, 65, 59
1, 22070, Note_off_c, 0, 57, 32
1, 22084, Note_off_c, 0, 67, 47
1, 22084, Control_c, 0, 64, 92
1, 22092, Note_off_c, 0, 74, 51
1, 22129, Control_c, 0, 64, 91
1, 22144, Control_c, 0, 64, 90
1, 22158, Control_c, 0, 64, 88
1, 22173, Control_c, 0, 64, 85
1, 22188, Control_c, 0, 64, 80
1, 22203, Control_c, 0, 64, 73
1, 22209, Note_on_c, 0, 60, 43
1, 22209, Note_on_c, 0, 67, 55
1, 22212, Note_on_c, 0, 72, 63
1, 22218, Control_c, 0, 64, 63
1, 22219, Note_on_c, 0, 63, 55
1, 22231, Note_off_c, 0, 59, 40
1, 22232, Control_c, 0, 64, 52
1, 22247, Control_c, 0, 64, 37
1, 22262, Control_c, 0, 64, 20
1, 22277, Control_c, 0, 64, 0
1, 22306, Control_c, 0, 64, 22
1, 22321, Control_c, 0, 64, 48
1, 22336, Control_c, 0, 64, 62
1, 22351, Control_c, 0, 64, 68
1, 22366, Control_c, 0, 64, 73
1, 22381, Control_c, 0, 64, 78
1, 22384, Note_off_c, 0, 67, 59
1, 22390, Note_off_c, 0, 63, 55
1, 22396, Control_c, 0, 64, 82
1, 22411, Control_c, 0, 64, 85
1, 22432, Note_off_c, 0, 72, 59
1, 22432, Control_c, 0, 64, 87
1, 22447, Control_c, 0, 64, 87
1, 22508, Control_c, 0, 64, 88
1, 22700, Control_c, 0, 64, 87
1, 22715, Control_c, 0, 64, 87
1, 22730, Control_c, 0, 64, 86
1, 22745, Control_c, 0, 64, 85
1, 22759, Control_c, 0, 64, 82
1, 22774, Control_c, 0, 64, 78
1, 22789, Control_c, 0, 64, 71
1, 22792, Note_on_c, 0, 74, 60
1, 22800, Note_off_c, 0, 60, 28
1, 22804, Note_on_c, 0, 53, 36
1, 22804, Note_on_c, 0, 68, 56
1, 22804, Control_c, 0, 64, 63
1, 22804, Note_on_c, 0, 65, 43
1, 22819, Control_c, 0, 64, 54
1, 22834, Control_c, 0, 64, 48
1, 22863, Control_c, 0, 64, 49
1, 22878, Control_c, 0, 64, 55
1, 22893, Control_c, 0, 64, 61
1, 22907, Control_c, 0, 64, 66
1, 22922, Control_c, 0, 64, 70
1, 22937, Control_c, 0, 64, 76
1, 22952, Control_c, 0, 64, 81
1, 22953, Note_off_c, 0, 74, 59
1, 22955, Note_off_c, 0, 65, 56
1, 22967, Control_c, 0, 64, 84
1, 22981, Control_c, 0, 64, 85
1, 22996, Control_c, 0, 64, 86
1, 23011, Control_c, 0, 64, 87
1, 23017, Note_off_c, 0, 68, 57
1, 23032, Note_off_c, 0, 53, 35
1, 23041, Control_c, 0, 64, 87
1, 23199, Note_on_c, 0, 53, 43
1, 23206, Note_on_c, 0, 68, 47
1, 23216, Note_on_c, 0, 72, 59
1, 23217, Note_on_c, 0, 63, 53
1, 23258, Note_off_c, 0, 68, 53
1, 23278, Note_off_c, 0, 63, 52
1, 23285, Control_c, 0, 64, 87
1, 23301, Control_c, 0, 64, 86
1, 23316, Control_c, 0, 64, 85
1, 23330, Control_c, 0, 64, 83
1, 23341, Note_off_c, 0, 72, 35
1, 23345, Control_c, 0, 64, 80
1, 23360, Control_c, 0, 64, 74
1, 23375, Control_c, 0, 64, 66
1, 23390, Note_off_c, 0, 53, 39
1, 23390, Control_c, 0, 64, 57
1, 23397, Note_on_c, 0, 67, 52
1, 23400, Note_on_c, 0, 71, 55
1, 23400, Note_on_c, 0, 55, 44
1, 23404, Control_c, 0, 64, 43
1, 23408, Note_on_c, 0, 62, 40
1, 23419, Control_c, 0, 64, 26
1, 23434, Control_c, 0, 64, 0
1, 23464, Control_c, 0, 64, 25
1, 23478, Control_c, 0, 64, 48
1, 23493, Control_c, 0, 64, 62
1, 23508, Control_c, 0, 64, 67
1, 23516, Note_off_c, 0, 55, 0
1, 23516, Note_on_c, 0, 55, 3
1, 23522, Control_c, 0, 64, 70
1, 23537, Control_c, 0, 64, 73
1, 23552, Control_c, 0, 64, 75
1, 23567, Control_c, 0, 64, 77
1, 23582, Control_c, 0, 64, 79
1, 23596, Control_c, 0, 64, 80
1, 23598, Note_off_c, 0, 71, 55
1, 23611, Control_c, 0, 64, 81
1, 23620, Note_off_c, 0, 62, 39
1, 23626, Control_c, 0, 64, 82
1, 23639, Note_off_c, 0, 67, 59
1, 23959, Control_c, 0, 64, 81
1, 23974, Control_c, 0, 64, 80
1, 23991, Note_on_c, 0, 67, 55
1, 23999, Note_on_c, 0, 60, 40
1, 24000, Note_on_c, 0, 69, 55
1, 24018, Control_c, 0, 64, 80
1, 24047, Control_c, 0, 64, 81
1, 24062, Control_c, 0, 64, 82
1, 24077, Control_c, 0, 64, 83
1, 24092, Control_c, 0, 64, 85
1, 24108, Control_c, 0, 64, 86
1, 24123, Control_c, 0, 64, 87
1, 24137, Note_off_c, 0, 60, 52
1, 24138, Control_c, 0, 64, 88
1, 24152, Control_c, 0, 64, 89
1, 24167, Control_c, 0, 64, 90
1, 24181, Note_off_c, 0, 55, 40
1, 24182, Control_c, 0, 64, 91
1, 24184, Note_off_c, 0, 67, 56
1, 24188, Note_off_c, 0, 69, 61
1, 24197, Control_c, 0, 64, 92
1, 24212, Control_c, 0, 64, 92
1, 24226, Control_c, 0, 64, 93
1, 24241, Control_c, 0, 64, 94
1, 24256, Control_c, 0, 64, 94
1, 24411, Note_on_c, 0, 62, 51
1, 24412, Note_on_c, 0, 71, 58
1, 24413, Note_on_c, 0, 67, 61
1, 24422, Note_on_c, 0, 55, 43
1, 24423, Note_on_c, 0, 53, 38
1, 24441, Note_off_c, 0, 62, 55
1, 24477, Note_off_c, 0, 55, 42
1, 24480, Note_off_c, 0, 67, 53
1, 24485, Note_off_c, 0, 71, 38
1, 24523, Control_c, 0, 64, 94
1, 24538, Control_c, 0, 64, 92
1, 24545, Note_off_c, 0, 53, 32
1, 24552, Control_c, 0, 64, 89
1, 24567, Control_c, 0, 64, 83
1, 24582, Control_c, 0, 64, 74
1, 24597, Control_c, 0, 64, 63
1, 24604, Note_on_c, 0, 55, 39
1, 24604, Note_on_c, 0, 72, 65
1, 24607, Note_on_c, 0, 67, 61
1, 24612, Control_c, 0, 64, 53
1, 24614, Note_on_c, 0, 51, 44
1, 24626, Control_c, 0, 64, 48
1, 24633, Note_on_c, 0, 63, 39
1, 24656, Control_c, 0, 64, 48
1, 24678, Control_c, 0, 64, 56
1, 24693, Control_c, 0, 64, 62
1, 24708, Control_c, 0, 64, 68
1, 24723, Control_c, 0, 64, 74
1, 24738, Control_c, 0, 64, 83
1, 24751, Note_off_c, 0, 55, 49
1, 24752, Control_c, 0, 64, 90
1, 24754, Note_off_c, 0, 63, 50
1, 24764, Note_off_c, 0, 51, 57
1, 24767, Control_c, 0, 64, 92
1, 24777, Note_off_c, 0, 67, 56
1, 24782, Control_c, 0, 64, 93
1, 24797, Control_c, 0, 64, 93
1, 24812, Control_c, 0, 64, 94
1, 24826, Control_c, 0, 64, 95
1, 24841, Control_c, 0, 64, 95
1, 24845, Note_off_c, 0, 72, 53
1, 24856, Control_c, 0, 64, 96
1, 25183, Control_c, 0, 64, 94
1, 25198, Control_c, 0, 64, 92
1, 25213, Control_c, 0, 64, 88
1, 25228, Control_c, 0, 64, 81
1, 25230, Note_on_c, 0, 75, 63
1, 25237, Note_on_c, 0, 67, 55
1, 25243, Control_c, 0, 64, 73
1, 25246, Note_on_c, 0, 43, 41
1, 25251, Note_on_c, 0, 55, 35
1, 25257, Control_c, 0, 64, 65
1, 25272, Control_c, 0, 64, 58
1, 25287, Control_c, 0, 64, 54
1, 25347, Control_c, 0, 64, 56
1, 25362, Control_c, 0, 64, 62
1, 25376, Control_c, 0, 64, 67
1, 25391, Control_c, 0, 64, 74
1, 25406, Control_c, 0, 64, 83
1, 25426, Note_off_c, 0, 43, 55
1, 25427, Control_c, 0, 64, 92
1, 25431, Note_off_c, 0, 55, 57
1, 25442, Control_c, 0, 64, 95
1, 25472, Control_c, 0, 64, 95
1, 25478, Note_off_c, 0, 67, 57
1, 25508, Note_off_c, 0, 75, 35
1, 25645, Note_on_c, 0, 43, 52
1, 25654, Note_on_c, 0, 55, 44
1, 25654, Note_on_c, 0, 74, 63
1, 25658, Note_on_c, 0, 65, 54
1, 25662, Note_on_c, 0, 67, 49
1, 25680, Control_c, 0, 64, 95
1, 25694, Note_off_c, 0, 65, 59
1, 25696, Control_c, 0, 64, 94
1, 25710, Note_off_c, 0, 55, 45
1, 25711, Control_c, 0, 64, 92
1, 25712, Note_off_c, 0, 43, 48
1, 25712, Note_off_c, 0, 67, 54
1, 25722, Note_off_c, 0, 74, 46
1, 25725, Control_c, 0, 64, 91
1, 25740, Control_c, 0, 64, 89
1, 25755, Control_c, 0, 64, 87
1, 25770, Control_c, 0, 64, 84
1, 25785, Control_c, 0, 64, 80
1, 25799, Control_c, 0, 64, 74
1, 25814, Control_c, 0, 64, 68
1, 25829, Control_c, 0, 64, 62
1, 25843, Note_on_c, 0, 55, 41
1, 25843, Control_c, 0, 64, 54
1, 25844, Note_on_c, 0, 67, 42
1, 25846, Note_on_c, 0, 72, 60
1, 25854, Note_on_c, 0, 48, 50
1, 25858, Control_c, 0, 64, 42
1, 25862, Note_on_c, 0, 63, 43
1, 25888, Control_c, 0, 64, 0
1, 26970, Control_c, 0, 64, 42
1, 26985, Control_c, 0, 64, 59
1, 27000, Control_c, 0, 64, 66
1, 27015, Control_c, 0, 64, 70
1, 27029, Control_c, 0, 64, 76
1, 27031, Note_off_c, 0, 63, 52
1, 27044, Control_c, 0, 64, 82
1, 27049, Note_off_c, 0, 67, 58
1, 27059, Control_c, 0, 64, 85
1, 27071, Note_off_c, 0, 72, 58
1, 27073, Control_c, 0, 64, 88
1, 27081, Note_off_c, 0, 55, 52
1, 27088, Control_c, 0, 64, 88
1, 27103, Control_c, 0, 64, 89
1, 27114, Note_off_c, 0, 48, 34
1, 27118, Control_c, 0, 64, 89
1, 27133, Control_c, 0, 64, 90
1, 27177, Control_c, 0, 64, 90
1, 27264, Control_c, 0, 67, 17
1, 27279, Control_c, 0, 67, 21
1, 27295, Control_c, 0, 67, 25
1, 27310, Control_c, 0, 67, 28
1, 27325, Control_c, 0, 64, 90
1, 27325, Control_c, 0, 67, 31
1, 27340, Control_c, 0, 64, 89
1, 27340, Control_c, 0, 67, 33
1, 27355, Control_c, 0, 64, 89
1, 27355, Control_c, 0, 67, 36
1, 27369, Control_c, 0, 64, 88
1, 27369, Control_c, 0, 67, 38
1, 27384, Control_c, 0, 64, 87
1, 27384, Control_c, 0, 67, 40
1, 27399, Control_c, 0, 64, 86
1, 27399, Control_c, 0, 67, 41
1, 27414, Control_c, 0, 64, 85
1, 27414, Control_c, 0, 67, 42
1, 27429, Control_c, 0, 64, 82
1, 27429, Control_c, 0, 67, 42
1, 27443, Control_c, 0, 64, 80
1, 27458, Control_c, 0, 64, 77
1, 27473, Control_c, 0, 64, 74
1, 27473, Control_c, 0, 67, 43
1, 27487, Control_c, 0, 64, 71
1, 27502, Control_c, 0, 64, 69
1, 27517, Control_c, 0, 64, 66
1, 27532, Note_on_c, 0, 74, 52
1, 27532, Control_c, 0, 64, 61
1, 27547, Control_c, 0, 64, 56
1, 27562, Control_c, 0, 64, 50
1, 27562, Control_c, 0, 67, 43
1, 27577, Control_c, 0, 64, 44
1, 27592, Control_c, 0, 64, 36
1, 27592, Control_c, 0, 67, 44
1, 27606, Control_c, 0, 64, 19
1, 27606, Control_c, 0, 67, 45
1, 27621, Control_c, 0, 64, 0
1, 27621, Control_c, 0, 67, 46
1, 27636, Control_c, 0, 67, 47
1, 27940, Control_c, 0, 67, 46
1, 27962, Note_on_c, 0, 75, 47
1, 27970, Control_c, 0, 67, 46
1, 27970, Note_off_c, 0, 74, 44
1, 28000, Control_c, 0, 67, 45
1, 28119, Note_off_c, 0, 75, 56
1, 28125, Note_on_c, 0, 77, 56
1, 28223, Control_c, 0, 64, 33
1, 28237, Control_c, 0, 64, 54
1, 28252, Control_c, 0, 64, 63
1, 28267, Control_c, 0, 64, 68
1, 28267, Control_c, 0, 67, 45
1, 28282, Control_c, 0, 64, 71
1, 28297, Control_c, 0, 64, 76
1, 28304, Note_off_c, 0, 77, 52
1, 28311, Control_c, 0, 64, 82
1, 28311, Control_c, 0, 67, 44
1, 28326, Control_c, 0, 64, 87
1, 28341, Control_c, 0, 64, 90
1, 28341, Control_c, 0, 67, 44
1, 28356, Control_c, 0, 64, 91
1, 28371, Control_c, 0, 64, 91
1, 28385, Control_c, 0, 67, 43
1, 28497, Control_c, 0, 67, 43
1, 28541, Control_c, 0, 67, 42
1, 28586, Control_c, 0, 64, 91
1, 28586, Control_c, 0, 67, 42
1, 28600, Control_c, 0, 64, 90
1, 28600, Control_c, 0, 67, 41
1, 28615, Control_c, 0, 64, 89
1, 28615, Control_c, 0, 67, 40
1, 28630, Control_c, 0, 64, 88
1, 28630, Control_c, 0, 67, 40
1, 28644, Control_c, 0, 64, 84
1, 28644, Control_c, 0, 67, 39
1, 28659, Control_c, 0, 64, 74
1, 28659, Control_c, 0, 67, 38
1, 28674, Control_c, 0, 64, 63
1, 28674, Control_c, 0, 67, 37
1, 28684, Note_on_c, 0, 77, 60
1, 28689, Control_c, 0, 64, 52
1, 28689, Control_c, 0, 67, 35
1, 28704, Control_c, 0, 64, 48
1, 28704, Control_c, 0, 67, 34
1, 28718, Control_c, 0, 67, 33
1, 28733, Control_c, 0, 64, 51
1, 28733, Control_c, 0, 67, 38
1, 28748, Control_c, 0, 64, 58
1, 28748, Control_c, 0, 67, 36
1, 28763, Control_c, 0, 64, 65
1, 28763, Control_c, 0, 67, 35
1, 28778, Control_c, 0, 64, 69
1, 28778, Control_c, 0, 67, 33
1, 28793, Control_c, 0, 64, 74
1, 28793, Control_c, 0, 67, 31
1, 28808, Control_c, 0, 64, 81
1, 28808, Control_c, 0, 67, 30
1, 28823, Control_c, 0, 64, 87
1, 28823, Control_c, 0, 67, 29
1, 28838, Control_c, 0, 64, 90
1, 28838, Control_c, 0, 67, 29
1, 28852, Control_c, 0, 64, 91
1, 28852, Control_c, 0, 67, 28
1, 28864, Note_off_c, 0, 77, 57
1, 28867, Control_c, 0, 64, 92
1, 28867, Control_c, 0, 67, 28
1, 28882, Control_c, 0, 64, 92
1, 28882, Control_c, 0, 67, 27
1, 28912, Control_c, 0, 64, 93
1, 28942, Control_c, 0, 64, 93
1, 28957, Control_c, 0, 64, 94
1, 28972, Control_c, 0, 64, 94
1, 28987, Control_c, 0, 67, 27
1, 29001, Control_c, 0, 67, 26
1, 29016, Control_c, 0, 67, 25
1, 29031, Control_c, 0, 67, 23
1, 29046, Control_c, 0, 67, 21
1, 29060, Control_c, 0, 67, 19
1, 29075, Control_c, 0, 67, 16
1, 29120, Control_c, 0, 67, 0
1, 29216, Control_c, 0, 64, 93
1, 29231, Control_c, 0, 64, 91
1, 29245, Note_on_c, 0, 77, 64
1, 29246, Control_c, 0, 64, 88
1, 29261, Control_c, 0, 64, 83
1, 29275, Control_c, 0, 64, 72
1, 29290, Control_c, 0, 64, 62
1, 29305, Control_c, 0, 64, 54
1, 29320, Control_c, 0, 64, 52
1, 29335, Control_c, 0, 64, 52
1, 29349, Control_c, 0, 64, 56
1, 29364, Control_c, 0, 64, 62
1, 29379, Control_c, 0, 64, 67
1, 29393, Control_c, 0, 64, 72
1, 29408, Control_c, 0, 64, 77
1, 29423, Control_c, 0, 64, 83
1, 29438, Control_c, 0, 64, 85
1, 29453, Control_c, 0, 64, 86
1, 29467, Control_c, 0, 64, 87
1, 29481, Control_c, 0, 64, 87
1, 29496, Control_c, 0, 64, 88
1, 29705, Control_c, 0, 64, 87
1, 29720, Control_c, 0, 64, 87
1, 29735, Control_c, 0, 64, 86
1, 29750, Control_c, 0, 64, 84
1, 29764, Control_c, 0, 64, 82
1, 29779, Control_c, 0, 64, 79
1, 29794, Control_c, 0, 64, 76
1, 29800, Note_on_c, 0, 75, 65
1, 29805, Note_off_c, 0, 77, 54
1, 29808, Control_c, 0, 64, 72
1, 29823, Control_c, 0, 64, 67
1, 29838, Control_c, 0, 64, 62
1, 29853, Control_c, 0, 64, 58
1, 29868, Control_c, 0, 64, 54
1, 29882, Control_c, 0, 64, 53
1, 29897, Control_c, 0, 64, 52
1, 29935, Control_c, 0, 64, 52
1, 29964, Control_c, 0, 64, 51
1, 29994, Control_c, 0, 64, 51
1, 30245, Note_on_c, 0, 74, 63
1, 30290, Note_off_c, 0, 75, 55
1, 30426, Note_on_c, 0, 79, 70
1, 30461, Note_off_c, 0, 74, 53
1, 31360, Note_on_c, 0, 77, 48
1, 31431, Note_off_c, 0, 79, 40
1, 31701, Note_on_c, 0, 75, 51
1, 31725, Note_off_c, 0, 77, 42
1, 32277, Note_on_c, 0, 74, 51
1, 32345, Note_off_c, 0, 75, 39
1, 32715, Note_off_c, 0, 74, 53
1, 32719, Note_on_c, 0, 72, 52
1, 32868, Note_off_c, 0, 72, 54
1, 32877, Note_on_c, 0, 71, 50
1, 33455, Note_on_c, 0, 69, 45
1, 33494, Note_off_c, 0, 71, 34
1, 33902, Note_on_c, 0, 71, 46
1, 33962, Note_off_c, 0, 69, 40
1, 34043, Note_off_c, 0, 71, 56
1, 34054, Note_on_c, 0, 72, 50
1, 34620, Note_on_c, 0, 77, 49
1, 34653, Note_off_c, 0, 72, 37
1, 35078, Note_on_c, 0, 75, 44
1, 35157, Note_off_c, 0, 77, 37
1, 35235, Note_on_c, 0, 74, 49
1, 35249, Note_off_c, 0, 75, 36
1, 35858, Control_c, 0, 64, 50
1, 35910, Control_c, 0, 64, 50
1, 35925, Control_c, 0, 64, 49
1, 35940, Control_c, 0, 64, 49
1, 35954, Control_c, 0, 64, 48
1, 35969, Control_c, 0, 64, 48
1, 35984, Control_c, 0, 64, 47
1, 35999, Control_c, 0, 64, 46
1, 36014, Control_c, 0, 64, 45
1, 36028, Control_c, 0, 64, 44
1, 36043, Control_c, 0, 64, 42
1, 36058, Control_c, 0, 64, 41
1, 36073, Control_c, 0, 64, 39
1, 36089, Control_c, 0, 64, 36
1, 36104, Control_c, 0, 64, 31
1, 36119, Control_c, 0, 64, 23
1, 36148, Control_c, 0, 64, 0
1, 36355, Control_c, 0, 64, 43
1, 36370, Control_c, 0, 64, 59
1, 36385, Control_c, 0, 64, 65
1, 36400, Control_c, 0, 64, 68
1, 36415, Control_c, 0, 64, 71
1, 36430, Control_c, 0, 64, 76
1, 36445, Control_c, 0, 64, 81
1, 36459, Control_c, 0, 64, 86
1, 36468, Note_off_c, 0, 74, 54
1, 36474, Control_c, 0, 64, 90
1, 36489, Control_c, 0, 64, 94
1, 36503, Control_c, 0, 64, 97
1, 36518, Control_c, 0, 64, 99
1, 36533, Control_c, 0, 64, 100
1, 36548, Control_c, 0, 64, 101
1, 36563, Control_c, 0, 64, 101
1, 36577, Control_c, 0, 64, 102
1, 36592, Control_c, 0, 64, 102
1, 36607, Control_c, 0, 64, 104
1, 36622, Control_c, 0, 64, 105
1, 36851, Control_c, 0, 64, 104
1, 36866, Control_c, 0, 64, 102
1, 36882, Control_c, 0, 64, 100
1, 36897, Control_c, 0, 64, 97
1, 36912, Control_c, 0, 64, 92
1, 36926, Control_c, 0, 64, 86
1, 36941, Control_c, 0, 64, 79
1, 36956, Control_c, 0, 64, 71
1, 36971, Control_c, 0, 64, 64
1, 36981, Note_on_c, 0, 74, 48
1, 36984, Note_on_c, 0, 70, 38
1, 36986, Control_c, 0, 64, 62
1, 36988, Note_on_c, 0, 65, 29
1, 36993, Note_on_c, 0, 58, 29
1, 37015, Control_c, 0, 64, 63
1, 37030, Control_c, 0, 64, 66
1, 37045, Control_c, 0, 64, 69
1, 37060, Control_c, 0, 64, 75
1, 37074, Control_c, 0, 64, 82
1, 37089, Control_c, 0, 64, 90
1, 37104, Control_c, 0, 64, 95
1, 37119, Control_c, 0, 64, 96
1, 37133, Control_c, 0, 64, 97
1, 37139, Note_off_c, 0, 65, 48
1, 37148, Control_c, 0, 64, 97
1, 37151, Note_off_c, 0, 74, 56
1, 37163, Control_c, 0, 64, 98
1, 37165, Note_off_c, 0, 70, 58
1, 37169, Note_off_c, 0, 58, 37
1, 37178, Control_c, 0, 64, 98
1, 37193, Control_c, 0, 64, 99
1, 37208, Control_c, 0, 64, 100
1, 37223, Control_c, 0, 64, 100
1, 37238, Control_c, 0, 64, 101
1, 37253, Control_c, 0, 64, 101
1, 37375, Note_on_c, 0, 70, 47
1, 37376, Note_on_c, 0, 75, 56
1, 37382, Note_on_c, 0, 58, 43
1, 37387, Note_on_c, 0, 67, 35
1, 37412, Note_off_c, 0, 70, 53
1, 37419, Note_off_c, 0, 75, 60
1, 37423, Control_c, 0, 64, 101
1, 37425, Note_off_c, 0, 67, 46
1, 37431, Note_off_c, 0, 58, 45
1, 37437, Control_c, 0, 64, 100
1, 37452, Control_c, 0, 64, 99
1, 37467, Control_c, 0, 64, 97
1, 37482, Control_c, 0, 64, 93
1, 37497, Control_c, 0, 64, 88
1, 37512, Control_c, 0, 64, 79
1, 37526, Control_c, 0, 64, 69
1, 37539, Note_on_c, 0, 77, 65
1, 37540, Note_on_c, 0, 70, 43
1, 37541, Control_c, 0, 64, 58
1, 37547, Note_on_c, 0, 58, 45
1, 37556, Control_c, 0, 64, 55
1, 37567, Note_on_c, 0, 68, 43
1, 37571, Control_c, 0, 64, 57
1, 37586, Control_c, 0, 64, 62
1, 37600, Control_c, 0, 64, 66
1, 37602, Note_off_c, 0, 68, 56
1, 37615, Control_c, 0, 64, 71
1, 37619, Note_off_c, 0, 58, 52
1, 37622, Note_off_c, 0, 70, 59
1, 37628, Note_off_c, 0, 77, 59
1, 37630, Control_c, 0, 64, 79
1, 37645, Control_c, 0, 64, 89
1, 37659, Control_c, 0, 64, 95
1, 37676, Control_c, 0, 64, 95
1, 37691, Control_c, 0, 64, 96
1, 37720, Control_c, 0, 64, 96
1, 37735, Control_c, 0, 64, 97
1, 37749, Control_c, 0, 64, 97
1, 37764, Control_c, 0, 64, 98
1, 37779, Control_c, 0, 64, 98
1, 37986, Control_c, 0, 64, 98
1, 38001, Control_c, 0, 64, 97
1, 38016, Control_c, 0, 64, 97
1, 38031, Control_c, 0, 64, 95
1, 38046, Control_c, 0, 64, 93
1, 38060, Control_c, 0, 64, 90
1, 38075, Control_c, 0, 64, 85
1, 38090, Control_c, 0, 64, 77
1, 38101, Note_on_c, 0, 77, 66
1, 38105, Control_c, 0, 64, 67
1, 38111, Note_on_c, 0, 70, 57
1, 38115, Note_on_c, 0, 58, 40
1, 38120, Control_c, 0, 64, 61
1, 38122, Note_on_c, 0, 68, 45
1, 38135, Control_c, 0, 64, 59
1, 38156, Control_c, 0, 64, 62
1, 38171, Control_c, 0, 64, 65
1, 38186, Control_c, 0, 64, 69
1, 38201, Control_c, 0, 64, 75
1, 38212, Note_off_c, 0, 58, 53
1, 38216, Control_c, 0, 64, 84
1, 38217, Note_off_c, 0, 68, 52
1, 38230, Control_c, 0, 64, 93
1, 38233, Note_off_c, 0, 77, 53
1, 38237, Note_off_c, 0, 70, 58
1, 38245, Control_c, 0, 64, 97
1, 38350, Control_c, 0, 64, 97
1, 38379, Control_c, 0, 64, 98
1, 38587, Control_c, 0, 64, 97
1, 38602, Control_c, 0, 64, 97
1, 38617, Control_c, 0, 64, 96
1, 38632, Control_c, 0, 64, 93
1, 38646, Control_c, 0, 64, 89
1, 38661, Control_c, 0, 64, 78
1, 38664, Note_on_c, 0, 77, 69
1, 38670, Note_on_c, 0, 70, 61
1, 38676, Control_c, 0, 64, 66
1, 38680, Note_on_c, 0, 58, 46
1, 38684, Note_on_c, 0, 68, 47
1, 38691, Control_c, 0, 64, 57
1, 38705, Control_c, 0, 64, 55
1, 38720, Control_c, 0, 64, 57
1, 38735, Control_c, 0, 64, 62
1, 38750, Control_c, 0, 64, 66
1, 38765, Control_c, 0, 64, 72
1, 38766, Note_off_c, 0, 58, 54
1, 38779, Control_c, 0, 64, 79
1, 38794, Control_c, 0, 64, 89
1, 38796, Note_off_c, 0, 77, 54
1, 38800, Note_off_c, 0, 70, 58
1, 38809, Control_c, 0, 64, 95
1, 38810, Note_off_c, 0, 68, 36
1, 38824, Control_c, 0, 64, 96
1, 38839, Control_c, 0, 64, 97
1, 38868, Control_c, 0, 64, 97
1, 38883, Control_c, 0, 64, 98
1, 38905, Control_c, 0, 64, 98
1, 38920, Control_c, 0, 64, 99
1, 39143, Control_c, 0, 64, 98
1, 39172, Control_c, 0, 64, 97
1, 39187, Control_c, 0, 64, 96
1, 39202, Control_c, 0, 64, 94
1, 39217, Control_c, 0, 64, 91
1, 39232, Control_c, 0, 64, 86
1, 39238, Note_on_c, 0, 75, 65
1, 39245, Note_on_c, 0, 67, 55
1, 39247, Control_c, 0, 64, 77
1, 39248, Note_on_c, 0, 58, 43
1, 39250, Note_on_c, 0, 70, 56
1, 39261, Control_c, 0, 64, 68
1, 39277, Control_c, 0, 64, 59
1, 39292, Control_c, 0, 64, 57
1, 39306, Control_c, 0, 64, 57
1, 39321, Control_c, 0, 64, 60
1, 39336, Control_c, 0, 64, 66
1, 39351, Control_c, 0, 64, 72
1, 39366, Control_c, 0, 64, 83
1, 39372, Note_off_c, 0, 58, 53
1, 39381, Control_c, 0, 64, 99
1, 39395, Control_c, 0, 64, 107
1, 39399, Note_off_c, 0, 75, 56
1, 39403, Note_off_c, 0, 67, 37
1, 39405, Note_off_c, 0, 70, 57
1, 39410, Control_c, 0, 64, 107
1, 39455, Control_c, 0, 64, 108
1, 39646, Note_on_c, 0, 58, 49
1, 39653, Note_on_c, 0, 65, 60
1, 39658, Note_on_c, 0, 74, 65
1, 39665, Note_on_c, 0, 70, 56
1, 39680, Note_off_c, 0, 65, 61
1, 39697, Note_off_c, 0, 70, 59
1, 39700, Note_off_c, 0, 58, 56
1, 39714, Control_c, 0, 64, 107
1, 39718, Note_off_c, 0, 74, 59
1, 39728, Control_c, 0, 64, 105
1, 39743, Control_c, 0, 64, 102
1, 39758, Control_c, 0, 64, 98
1, 39773, Control_c, 0, 64, 92
1, 39788, Control_c, 0, 64, 86
1, 39802, Control_c, 0, 64, 81
1, 39817, Control_c, 0, 64, 74
1, 39819, Note_on_c, 0, 70, 67
1, 39827, Note_on_c, 0, 79, 70
1, 39832, Control_c, 0, 64, 68
1, 39835, Note_on_c, 0, 58, 47
1, 39846, Control_c, 0, 64, 63
1, 39861, Control_c, 0, 64, 59
1, 39876, Control_c, 0, 64, 56
1, 39891, Control_c, 0, 64, 54
1, 39906, Control_c, 0, 64, 51
1, 39921, Control_c, 0, 64, 48
1, 39935, Control_c, 0, 64, 43
1, 39950, Control_c, 0, 64, 37
1, 39965, Control_c, 0, 64, 31
1, 39980, Control_c, 0, 64, 26
1, 39995, Control_c, 0, 64, 19
1, 40025, Control_c, 0, 64, 0
1, 40413, Note_on_c, 0, 60, 57
1, 40440, Note_off_c, 0, 58, 35
1, 40522, Control_c, 0, 64, 31
1, 40537, Control_c, 0, 64, 53
1, 40551, Control_c, 0, 64, 63
1, 40558, Note_off_c, 0, 79, 58
1, 40566, Control_c, 0, 64, 66
1, 40581, Control_c, 0, 64, 69
1, 40596, Control_c, 0, 64, 72
1, 40611, Control_c, 0, 64, 77
1, 40625, Control_c, 0, 64, 81
1, 40640, Control_c, 0, 64, 85
1, 40655, Control_c, 0, 64, 87
1, 40659, Note_off_c, 0, 70, 54
1, 40669, Control_c, 0, 64, 90
1, 40684, Control_c, 0, 64, 92
1, 40698, Control_c, 0, 64, 94
1, 40713, Control_c, 0, 64, 95
1, 40728, Control_c, 0, 64, 96
1, 40811, Note_on_c, 0, 77, 69
1, 40812, Note_on_c, 0, 70, 59
1, 40826, Note_on_c, 0, 62, 52
1, 40831, Control_c, 0, 64, 95
1, 40834, Note_on_c, 0, 68, 45
1, 40860, Note_off_c, 0, 68, 54
1, 40864, Note_off_c, 0, 70, 57
1, 40868, Note_off_c, 0, 60, 33
1, 40877, Control_c, 0, 64, 95
1, 40886, Note_off_c, 0, 77, 56
1, 40892, Control_c, 0, 64, 94
1, 40906, Control_c, 0, 64, 93
1, 40921, Control_c, 0, 64, 91
1, 40936, Control_c, 0, 64, 89
1, 40951, Control_c, 0, 64, 87
1, 40966, Control_c, 0, 64, 84
1, 40980, Control_c, 0, 64, 79
1, 40995, Control_c, 0, 64, 70
1, 40996, Note_on_c, 0, 70, 58
1, 40998, Note_on_c, 0, 75, 66
1, 41000, Note_on_c, 0, 67, 57
1, 41003, Note_off_c, 0, 62, 52
1, 41010, Control_c, 0, 64, 59
1, 41015, Note_on_c, 0, 63, 42
1, 41025, Control_c, 0, 64, 46
1, 41039, Control_c, 0, 64, 34
1, 41054, Control_c, 0, 64, 23
1, 41069, Control_c, 0, 64, 21
1, 41098, Control_c, 0, 64, 34
1, 41113, Control_c, 0, 64, 56
1, 41128, Control_c, 0, 64, 66
1, 41151, Control_c, 0, 64, 71
1, 41166, Control_c, 0, 64, 77
1, 41180, Control_c, 0, 64, 83
1, 41192, Note_off_c, 0, 75, 59
1, 41195, Control_c, 0, 64, 88
1, 41207, Note_off_c, 0, 70, 59
1, 41210, Note_off_c, 0, 67, 35
1, 41210, Control_c, 0, 64, 91
1, 41225, Control_c, 0, 64, 93
1, 41240, Control_c, 0, 64, 94
1, 41254, Control_c, 0, 64, 95
1, 41358, Note_off_c, 0, 63, 41
1, 41521, Control_c, 0, 64, 94
1, 41536, Control_c, 0, 64, 93
1, 41551, Control_c, 0, 64, 92
1, 41566, Control_c, 0, 64, 90
1, 41581, Control_c, 0, 64, 86
1, 41591, Note_on_c, 0, 53, 43
1, 41591, Note_on_c, 0, 74, 62
1, 41596, Control_c, 0, 64, 79
1, 41600, Note_on_c, 0, 68, 55
1, 41604, Note_on_c, 0, 65, 44
1, 41611, Control_c, 0, 64, 69
1, 41625, Control_c, 0, 64, 58
1, 41640, Control_c, 0, 64, 52
1, 41655, Control_c, 0, 64, 52
1, 41670, Control_c, 0, 64, 54
1, 41685, Control_c, 0, 64, 60
1, 41700, Control_c, 0, 64, 65
1, 41715, Control_c, 0, 64, 70
1, 41730, Control_c, 0, 64, 78
1, 41745, Control_c, 0, 64, 86
1, 41750, Note_off_c, 0, 74, 58
1, 41760, Control_c, 0, 64, 91
1, 41766, Note_off_c, 0, 65, 50
1, 41775, Control_c, 0, 64, 93
1, 41790, Note_off_c, 0, 53, 48
1, 41819, Note_off_c, 0, 68, 57
1, 41819, Control_c, 0, 64, 93
1, 41864, Control_c, 0, 64, 94
1, 41993, Note_on_c, 0, 53, 42
1, 42007, Note_on_c, 0, 68, 48
1, 42008, Note_on_c, 0, 72, 61
1, 42013, Note_on_c, 0, 63, 54
1, 42058, Note_off_c, 0, 68, 54
1, 42078, Control_c, 0, 64, 93
1, 42093, Control_c, 0, 64, 92
1, 42097, Note_off_c, 0, 63, 36
1, 42108, Control_c, 0, 64, 91
1, 42122, Control_c, 0, 64, 88
1, 42127, Note_off_c, 0, 72, 34
1, 42137, Control_c, 0, 64, 84
1, 42152, Control_c, 0, 64, 80
1, 42167, Control_c, 0, 64, 73
1, 42182, Control_c, 0, 64, 65
1, 42189, Note_off_c, 0, 53, 42
1, 42192, Note_on_c, 0, 67, 53
1, 42195, Note_on_c, 0, 71, 57
1, 42196, Control_c, 0, 64, 55
1, 42199, Note_on_c, 0, 55, 44
1, 42211, Control_c, 0, 64, 39
1, 42215, Note_on_c, 0, 62, 40
1, 42240, Control_c, 0, 64, 0
1, 42285, Control_c, 0, 64, 41
1, 42300, Control_c, 0, 64, 58
1, 42314, Control_c, 0, 64, 65
1, 42329, Control_c, 0, 64, 68
1, 42344, Control_c, 0, 64, 71
1, 42359, Control_c, 0, 64, 73
1, 42374, Control_c, 0, 64, 75
1, 42389, Control_c, 0, 64, 77
1, 42404, Note_off_c, 0, 71, 58
1, 42404, Control_c, 0, 64, 79
1, 42404, Note_off_c, 0, 62, 40
1, 42419, Control_c, 0, 64, 81
1, 42433, Control_c, 0, 64, 83
1, 42437, Note_off_c, 0, 67, 59
1, 42448, Control_c, 0, 64, 84
1, 42723, Control_c, 0, 64, 83
1, 42738, Control_c, 0, 64, 81
1, 42752, Control_c, 0, 64, 76
1, 42767, Control_c, 0, 64, 72
1, 42777, Note_on_c, 0, 67, 56
1, 42780, Note_on_c, 0, 69, 54
1, 42783, Note_on_c, 0, 60, 41
1, 42797, Control_c, 0, 64, 73
1, 42812, Control_c, 0, 64, 75
1, 42827, Control_c, 0, 64, 77
1, 42842, Control_c, 0, 64, 81
1, 42857, Control_c, 0, 64, 84
1, 42871, Control_c, 0, 64, 86
1, 42886, Control_c, 0, 64, 86
1, 42901, Control_c, 0, 64, 87
1, 42910, Note_off_c, 0, 60, 52
1, 42931, Control_c, 0, 64, 88
1, 42958, Note_off_c, 0, 67, 57
1, 42960, Note_off_c, 0, 69, 60
1, 42960, Control_c, 0, 64, 89
1, 42967, Note_off_c, 0, 55, 35
1, 42975, Control_c, 0, 64, 89
1, 42990, Control_c, 0, 64, 90
1, 43005, Control_c, 0, 64, 90
1, 43078, Control_c, 0, 64, 91
1, 43191, Note_on_c, 0, 62, 53
1, 43191, Note_on_c, 0, 67, 55
1, 43191, Note_on_c, 0, 71, 55
1, 43193, Note_on_c, 0, 53, 46
1, 43194, Note_on_c, 0, 55, 42
1, 43222, Note_off_c, 0, 62, 52
1, 43237, Note_off_c, 0, 71, 56
1, 43247, Note_off_c, 0, 55, 44
1, 43256, Control_c, 0, 64, 90
1, 43262, Note_off_c, 0, 67, 52
1, 43276, Note_off_c, 0, 53, 36
1, 43286, Control_c, 0, 64, 89
1, 43301, Control_c, 0, 64, 88
1, 43316, Control_c, 0, 64, 85
1, 43331, Control_c, 0, 64, 81
1, 43346, Control_c, 0, 64, 75
1, 43360, Control_c, 0, 64, 65
1, 43366, Note_on_c, 0, 67, 50
1, 43375, Note_on_c, 0, 55, 40
1, 43375, Note_on_c, 0, 72, 64
1, 43375, Control_c, 0, 64, 56
1, 43378, Note_on_c, 0, 51, 44
1, 43396, Note_on_c, 0, 63, 35
1, 43398, Control_c, 0, 64, 50
1, 43428, Control_c, 0, 64, 51
1, 43442, Control_c, 0, 64, 57
1, 43457, Control_c, 0, 64, 63
1, 43472, Control_c, 0, 64, 70
1, 43487, Control_c, 0, 64, 77
1, 43495, Note_off_c, 0, 55, 53
1, 43498, Note_off_c, 0, 63, 55
1, 43501, Control_c, 0, 64, 86
1, 43514, Note_off_c, 0, 72, 59
1, 43516, Control_c, 0, 64, 90
1, 43518, Note_off_c, 0, 51, 57
1, 43524, Note_off_c, 0, 67, 60
1, 43531, Control_c, 0, 64, 91
1, 43561, Control_c, 0, 64, 91
1, 43590, Control_c, 0, 64, 92
1, 43605, Control_c, 0, 64, 92
1, 43635, Control_c, 0, 64, 93
1, 43946, Control_c, 0, 64, 92
1, 43960, Control_c, 0, 64, 91
1, 43975, Control_c, 0, 64, 89
1, 43981, Note_on_c, 0, 75, 62
1, 43985, Note_on_c, 0, 55, 43
1, 43985, Note_on_c, 0, 67, 54
1, 43990, Control_c, 0, 64, 84
1, 43992, Note_on_c, 0, 43, 48
1, 44005, Control_c, 0, 64, 77
1, 44019, Control_c, 0, 64, 68
1, 44034, Control_c, 0, 64, 59
1, 44049, Control_c, 0, 64, 51
1, 44065, Control_c, 0, 64, 49
1, 44095, Control_c, 0, 64, 52
1, 44109, Control_c, 0, 64, 59
1, 44124, Control_c, 0, 64, 66
1, 44147, Control_c, 0, 64, 72
1, 44162, Control_c, 0, 64, 80
1, 44177, Control_c, 0, 64, 90
1, 44181, Note_off_c, 0, 43, 56
1, 44191, Control_c, 0, 64, 94
1, 44192, Note_off_c, 0, 55, 50
1, 44206, Control_c, 0, 64, 94
1, 44221, Control_c, 0, 64, 95
1, 44223, Note_off_c, 0, 75, 52
1, 44231, Note_off_c, 0, 67, 54
1, 44236, Control_c, 0, 64, 96
1, 44250, Control_c, 0, 64, 97
1, 44265, Control_c, 0, 64, 97
1, 44385, Note_on_c, 0, 43, 48
1, 44399, Note_on_c, 0, 74, 60
1, 44402, Note_on_c, 0, 67, 53
1, 44403, Note_on_c, 0, 55, 40
1, 44413, Control_c, 0, 64, 97
1, 44416, Note_on_c, 0, 65, 42
1, 44428, Control_c, 0, 64, 96
1, 44443, Control_c, 0, 64, 95
1, 44443, Note_off_c, 0, 65, 53
1, 44449, Note_off_c, 0, 55, 45
1, 44457, Control_c, 0, 64, 94
1, 44472, Control_c, 0, 64, 92
1, 44475, Note_off_c, 0, 74, 38
1, 44487, Control_c, 0, 64, 89
1, 44494, Note_off_c, 0, 43, 32
1, 44502, Note_off_c, 0, 67, 35
1, 44502, Control_c, 0, 64, 86
1, 44517, Control_c, 0, 64, 81
1, 44532, Control_c, 0, 64, 75
1, 44547, Control_c, 0, 64, 70
1, 44562, Control_c, 0, 64, 64
1, 44577, Control_c, 0, 64, 57
1, 44579, Note_on_c, 0, 55, 37
1, 44580, Note_on_c, 0, 67, 39
1, 44585, Note_on_c, 0, 72, 59
1, 44591, Note_on_c, 0, 48, 49
1, 44591, Control_c, 0, 64, 45
1, 44601, Note_on_c, 0, 63, 43
1, 44606, Control_c, 0, 64, 26
1, 44621, Control_c, 0, 64, 0
1, 45674, Control_c, 0, 64, 39
1, 45689, Control_c, 0, 64, 58
1, 45703, Control_c, 0, 64, 67
1, 45718, Control_c, 0, 64, 72
1, 45733, Control_c, 0, 64, 78
1, 45748, Control_c, 0, 64, 85
1, 45752, Note_off_c, 0, 63, 37
1, 45763, Control_c, 0, 64, 89
1, 45763, Note_off_c, 0, 67, 59
1, 45778, Control_c, 0, 64, 91
1, 45778, Note_off_c, 0, 72, 53
1, 45782, Note_off_c, 0, 55, 56
1, 45793, Control_c, 0, 64, 93
1, 45808, Control_c, 0, 64, 94
1, 45822, Control_c, 0, 64, 95
1, 45832, Note_off_c, 0, 48, 34
1, 45837, Control_c, 0, 64, 95
1, 45867, Control_c, 0, 64, 96
1, 45882, Control_c, 0, 64, 96
1, 45911, Control_c, 0, 64, 97
1, 46074, Control_c, 0, 64, 96
1, 46088, Control_c, 0, 64, 96
1, 46103, Control_c, 0, 64, 95
1, 46118, Control_c, 0, 64, 94
1, 46133, Control_c, 0, 64, 92
1, 46148, Control_c, 0, 64, 89
1, 46163, Control_c, 0, 64, 86
1, 46177, Control_c, 0, 64, 83
1, 46192, Control_c, 0, 64, 80
1, 46207, Control_c, 0, 64, 77
1, 46220, Note_on_c, 0, 71, 43
1, 46222, Control_c, 0, 64, 73
1, 46237, Control_c, 0, 64, 70
1, 46252, Control_c, 0, 64, 65
1, 46267, Control_c, 0, 64, 59
1, 46281, Control_c, 0, 64, 51
1, 46296, Control_c, 0, 64, 45
1, 46311, Control_c, 0, 64, 37
1, 46326, Control_c, 0, 64, 25
1, 46355, Control_c, 0, 64, 0
1, 46678, Note_on_c, 0, 72, 51
1, 46698, Note_off_c, 0, 71, 47
1, 46818, Note_off_c, 0, 72, 53
1, 46828, Note_on_c, 0, 74, 59
1, 46926, Control_c, 0, 64, 26
1, 46941, Control_c, 0, 64, 49
1, 46955, Control_c, 0, 64, 61
1, 46970, Control_c, 0, 64, 66
1, 46985, Control_c, 0, 64, 69
1, 47000, Control_c, 0, 64, 73
1, 47015, Control_c, 0, 64, 77
1, 47028, Note_off_c, 0, 74, 56
1, 47030, Control_c, 0, 64, 83
1, 47045, Control_c, 0, 64, 87
1, 47060, Control_c, 0, 64, 90
1, 47075, Control_c, 0, 64, 91
1, 47090, Control_c, 0, 64, 92
1, 47104, Control_c, 0, 64, 93
1, 47119, Control_c, 0, 64, 94
1, 47141, Control_c, 0, 64, 95
1, 47364, Control_c, 0, 64, 95
1, 47379, Control_c, 0, 64, 93
1, 47394, Control_c, 0, 64, 91
1, 47409, Control_c, 0, 64, 87
1, 47412, Note_on_c, 0, 71, 60
1, 47415, Note_on_c, 0, 74, 59
1, 47417, Note_on_c, 0, 65, 47
1, 47423, Control_c, 0, 64, 81
1, 47424, Note_on_c, 0, 68, 46
1, 47438, Control_c, 0, 64, 73
1, 47453, Control_c, 0, 64, 62
1, 47468, Control_c, 0, 64, 52
1, 47483, Control_c, 0, 64, 49
1, 47498, Control_c, 0, 64, 49
1, 47513, Control_c, 0, 64, 55
1, 47528, Control_c, 0, 64, 61
1, 47542, Control_c, 0, 64, 67
1, 47557, Control_c, 0, 64, 72
1, 47572, Control_c, 0, 64, 79
1, 47586, Control_c, 0, 64, 86
1, 47601, Control_c, 0, 64, 89
1, 47616, Control_c, 0, 64, 90
1, 47631, Control_c, 0, 64, 91
1, 47644, Note_off_c, 0, 68, 35
1, 47646, Control_c, 0, 64, 92
1, 47648, Note_off_c, 0, 74, 59
1, 47660, Control_c, 0, 64, 94
1, 47668, Note_off_c, 0, 71, 60
1, 47675, Control_c, 0, 64, 95
1, 47690, Control_c, 0, 64, 96
1, 47705, Control_c, 0, 64, 97
1, 47720, Control_c, 0, 64, 99
1, 47734, Control_c, 0, 64, 99
1, 47749, Control_c, 0, 64, 100
1, 47778, Control_c, 0, 64, 100
1, 47979, Control_c, 0, 64, 99
1, 47993, Control_c, 0, 64, 97
1, 47994, Note_on_c, 0, 72, 67
1, 47997, Note_on_c, 0, 74, 72
1, 47999, Note_on_c, 0, 69, 61
1, 48008, Note_on_c, 0, 66, 52
1, 48008, Control_c, 0, 64, 91
1, 48023, Control_c, 0, 64, 81
1, 48038, Control_c, 0, 64, 69
1, 48053, Control_c, 0, 64, 54
1, 48069, Control_c, 0, 64, 46
1, 48113, Control_c, 0, 64, 48
1, 48128, Control_c, 0, 64, 55
1, 48131, Note_off_c, 0, 65, 40
1, 48143, Control_c, 0, 64, 62
1, 48157, Control_c, 0, 64, 67
1, 48172, Control_c, 0, 64, 72
1, 48187, Control_c, 0, 64, 80
1, 48202, Control_c, 0, 64, 87
1, 48216, Control_c, 0, 64, 92
1, 48231, Control_c, 0, 64, 95
1, 48246, Control_c, 0, 64, 98
1, 48255, Note_off_c, 0, 69, 58
1, 48261, Control_c, 0, 64, 103
1, 48275, Note_off_c, 0, 72, 59
1, 48275, Note_off_c, 0, 74, 60
1, 48276, Control_c, 0, 64, 108
1, 48283, Note_off_c, 0, 66, 35
1, 48291, Control_c, 0, 64, 112
1, 48306, Control_c, 0, 64, 114
1, 48321, Control_c, 0, 64, 116
1, 48336, Control_c, 0, 64, 117
1, 48351, Control_c, 0, 64, 119
1, 48365, Control_c, 0, 64, 121
1, 48380, Control_c, 0, 64, 123
1, 48395, Control_c, 0, 64, 124
1, 48439, Control_c, 0, 64, 127
1, 48572, Control_c, 0, 64, 119
1, 48587, Control_c, 0, 64, 114
1, 48594, Note_on_c, 0, 72, 71
1, 48600, Note_on_c, 0, 69, 61
1, 48601, Note_on_c, 0, 66, 51
1, 48601, Control_c, 0, 64, 108
1, 48605, Note_on_c, 0, 62, 56
1, 48616, Control_c, 0, 64, 100
1, 48639, Control_c, 0, 64, 88
1, 48654, Control_c, 0, 64, 75
1, 48669, Control_c, 0, 64, 61
1, 48684, Control_c, 0, 64, 53
1, 48698, Control_c, 0, 64, 53
1, 48713, Control_c, 0, 64, 55
1, 48728, Control_c, 0, 64, 61
1, 48742, Control_c, 0, 64, 66
1, 48757, Control_c, 0, 64, 72
1, 48772, Control_c, 0, 64, 83
1, 48787, Control_c, 0, 64, 93
1, 48802, Control_c, 0, 64, 99
1, 48816, Control_c, 0, 64, 100
1, 48831, Control_c, 0, 64, 101
1, 48846, Control_c, 0, 64, 102
1, 48862, Control_c, 0, 64, 103
1, 48877, Control_c, 0, 64, 105
1, 48892, Control_c, 0, 64, 105
1, 48906, Control_c, 0, 64, 106
1, 48921, Control_c, 0, 64, 107
1, 48936, Control_c, 0, 64, 108
1, 48951, Control_c, 0, 64, 108
1, 48954, Note_off_c, 0, 66, 35
1, 48980, Control_c, 0, 64, 109
1, 49084, Note_on_c, 0, 74, 74
1, 49133, Note_off_c, 0, 72, 52
1, 49175, Note_off_c, 0, 69, 36
1, 49277, Control_c, 0, 64, 108
1, 49292, Control_c, 0, 64, 107
1, 49306, Control_c, 0, 64, 105
1, 49321, Control_c, 0, 64, 102
1, 49336, Control_c, 0, 64, 98
1, 49351, Note_off_c, 0, 74, 60
1, 49351, Control_c, 0, 64, 94
1, 49357, Note_on_c, 0, 72, 69
1, 49364, Note_on_c, 0, 69, 53
1, 49365, Control_c, 0, 64, 90
1, 49370, Note_on_c, 0, 60, 49
1, 49374, Note_on_c, 0, 66, 45
1, 49388, Control_c, 0, 64, 84
1, 49403, Control_c, 0, 64, 77
1, 49418, Control_c, 0, 64, 70
1, 49424, Note_off_c, 0, 62, 29
1, 49432, Control_c, 0, 64, 64
1, 49444, Note_on_c, 0, 74, 72
1, 49447, Control_c, 0, 64, 58
1, 49462, Control_c, 0, 64, 54
1, 49477, Control_c, 0, 64, 51
1, 49492, Control_c, 0, 64, 44
1, 49507, Control_c, 0, 64, 32
1, 49516, Note_on_c, 0, 75, 78
1, 49521, Control_c, 0, 64, 0
1, 49533, Note_off_c, 0, 72, 57
1, 49554, Note_off_c, 0, 74, 59
1, 50353, Note_on_c, 0, 62, 48
1, 50359, Note_on_c, 0, 74, 61
1, 50385, Note_off_c, 0, 60, 33
1, 50649, Note_on_c, 0, 72, 56
1, 50670, Note_on_c, 0, 63, 39
1, 50675, Note_off_c, 0, 62, 34
1, 50702, Note_off_c, 0, 74, 56
1, 50720, Note_off_c, 0, 75, 41
1, 50745, Control_c, 0, 64, 29
1, 50759, Control_c, 0, 64, 55
1, 50765, Note_off_c, 0, 66, 52
1, 50774, Control_c, 0, 64, 66
1, 50789, Control_c, 0, 64, 71
1, 50804, Control_c, 0, 64, 77
1, 50817, Note_off_c, 0, 63, 57
1, 50819, Control_c, 0, 64, 86
1, 50834, Control_c, 0, 64, 92
1, 50849, Control_c, 0, 64, 96
1, 50850, Note_off_c, 0, 72, 59
1, 50863, Control_c, 0, 64, 99
1, 50885, Control_c, 0, 64, 100
1, 50894, Note_off_c, 0, 69, 39
1, 50900, Control_c, 0, 64, 101
1, 50915, Control_c, 0, 64, 101
1, 50929, Control_c, 0, 64, 102
1, 51152, Control_c, 0, 64, 100
1, 51167, Control_c, 0, 64, 97
1, 51182, Control_c, 0, 64, 93
1, 51197, Control_c, 0, 64, 87
1, 51199, Note_on_c, 0, 62, 43
1, 51203, Note_on_c, 0, 54, 41
1, 51206, Note_on_c, 0, 74, 59
1, 51210, Note_on_c, 0, 69, 49
1, 51212, Control_c, 0, 64, 78
1, 51227, Control_c, 0, 64, 66
1, 51242, Control_c, 0, 64, 57
1, 51257, Control_c, 0, 64, 52
1, 51272, Control_c, 0, 64, 52
1, 51287, Control_c, 0, 64, 55
1, 51290, Note_off_c, 0, 62, 0
1, 51290, Note_on_c, 0, 62, 3
1, 51302, Control_c, 0, 64, 59
1, 51317, Control_c, 0, 64, 62
1, 51331, Control_c, 0, 64, 66
1, 51346, Control_c, 0, 64, 71
1, 51361, Control_c, 0, 64, 79
1, 51376, Control_c, 0, 64, 88
1, 51391, Control_c, 0, 64, 96
1, 51406, Control_c, 0, 64, 100
1, 51421, Control_c, 0, 64, 103
1, 51435, Control_c, 0, 64, 106
1, 51450, Control_c, 0, 64, 108
1, 51495, Note_off_c, 0, 54, 41
1, 51496, Note_off_c, 0, 62, 39
1, 51524, Control_c, 0, 64, 107
1, 51539, Control_c, 0, 64, 107
1, 51653, Note_on_c, 0, 72, 58
1, 51698, Note_off_c, 0, 74, 33
1, 51707, Note_off_c, 0, 69, 36
1, 51739, Control_c, 0, 64, 106
1, 51754, Control_c, 0, 64, 103
1, 51768, Control_c, 0, 64, 98
1, 51783, Control_c, 0, 64, 91
1, 51798, Control_c, 0, 64, 82
1, 51813, Control_c, 0, 64, 70
1, 51815, Note_on_c, 0, 71, 56
1, 51821, Note_on_c, 0, 62, 41
1, 51826, Note_on_c, 0, 67, 46
1, 51827, Control_c, 0, 64, 61
1, 51829, Note_on_c, 0, 55, 36
1, 51834, Note_off_c, 0, 72, 40
1, 51842, Control_c, 0, 64, 53
1, 51857, Control_c, 0, 64, 51
1, 51901, Control_c, 0, 64, 55
1, 51916, Control_c, 0, 64, 62
1, 51931, Control_c, 0, 64, 68
1, 51946, Control_c, 0, 64, 76
1, 51960, Control_c, 0, 64, 87
1, 51975, Control_c, 0, 64, 95
1, 51990, Control_c, 0, 64, 99
1, 52020, Control_c, 0, 64, 99
1, 52035, Control_c, 0, 64, 100
1, 52036, Note_off_c, 0, 71, 54
1, 52041, Note_off_c, 0, 62, 32
1, 52050, Control_c, 0, 64, 101
1, 52054, Note_off_c, 0, 67, 34
1, 52065, Control_c, 0, 64, 101
1, 52068, Note_off_c, 0, 55, 32
1, 52080, Control_c, 0, 64, 102
1, 52110, Control_c, 0, 64, 102
1, 52303, Control_c, 0, 64, 102
1, 52318, Control_c, 0, 64, 101
1, 52332, Control_c, 0, 64, 100
1, 52347, Control_c, 0, 64, 97
1, 52362, Control_c, 0, 64, 94
1, 52384, Control_c, 0, 64, 90
1, 52399, Control_c, 0, 64, 85
1, 52414, Control_c, 0, 64, 80
1, 52416, Note_on_c, 0, 69, 61
1, 52419, Note_on_c, 0, 62, 47
1, 52420, Note_on_c, 0, 67, 51
1, 52426, Note_on_c, 0, 55, 43
1, 52428, Control_c, 0, 64, 73
1, 52433, Note_on_c, 0, 53, 44
1, 52443, Control_c, 0, 64, 65
1, 52458, Control_c, 0, 64, 58
1, 52473, Control_c, 0, 64, 53
1, 52517, Control_c, 0, 64, 55
1, 52532, Control_c, 0, 64, 59
1, 52547, Control_c, 0, 64, 64
1, 52562, Control_c, 0, 64, 68
1, 52576, Control_c, 0, 64, 73
1, 52591, Control_c, 0, 64, 80
1, 52606, Control_c, 0, 64, 88
1, 52621, Control_c, 0, 64, 92
1, 52636, Control_c, 0, 64, 93
1, 52650, Control_c, 0, 64, 94
1, 52658, Note_off_c, 0, 62, 51
1, 52665, Control_c, 0, 64, 95
1, 52679, Control_c, 0, 64, 96
1, 52685, Note_off_c, 0, 67, 52
1, 52688, Note_off_c, 0, 53, 36
1, 52694, Control_c, 0, 64, 97
1, 52697, Note_off_c, 0, 55, 35
1, 52709, Control_c, 0, 64, 99
1, 52724, Control_c, 0, 64, 100
1, 52738, Control_c, 0, 64, 101
1, 52744, Note_off_c, 0, 69, 50
1, 52753, Control_c, 0, 64, 101
1, 52768, Control_c, 0, 64, 102
1, 52829, Note_on_c, 0, 62, 60
1, 52837, Note_on_c, 0, 53, 49
1, 52838, Note_on_c, 0, 55, 53
1, 52843, Note_on_c, 0, 67, 56
1, 52843, Note_on_c, 0, 71, 63
1, 52873, Note_off_c, 0, 62, 56
1, 52885, Note_off_c, 0, 53, 60
1, 52919, Note_off_c, 0, 67, 50
1, 52947, Control_c, 0, 64, 101
1, 52962, Control_c, 0, 64, 98
1, 52977, Control_c, 0, 64, 93
1, 52992, Note_off_c, 0, 55, 0
1, 52992, Control_c, 0, 64, 87
1, 53006, Control_c, 0, 64, 77
1, 53013, Note_on_c, 0, 55, 5
1, 53016, Note_on_c, 0, 72, 70
1, 53019, Note_on_c, 0, 67, 58
1, 53021, Control_c, 0, 64, 66
1, 53028, Note_on_c, 0, 60, 47
1, 53035, Note_on_c, 0, 51, 41
1, 53036, Control_c, 0, 64, 53
1, 53046, Note_off_c, 0, 71, 50
1, 53051, Control_c, 0, 64, 39
1, 53066, Control_c, 0, 64, 34
1, 53095, Control_c, 0, 64, 35
1, 53110, Control_c, 0, 64, 47
1, 53132, Control_c, 0, 64, 59
1, 53147, Control_c, 0, 64, 67
1, 53162, Control_c, 0, 64, 75
1, 53176, Note_off_c, 0, 60, 49
1, 53177, Control_c, 0, 64, 83
1, 53192, Control_c, 0, 64, 90
1, 53206, Control_c, 0, 64, 95
1, 53212, Note_off_c, 0, 67, 55
1, 53221, Control_c, 0, 64, 97
1, 53229, Note_off_c, 0, 51, 35
1, 53236, Control_c, 0, 64, 99
1, 53239, Note_off_c, 0, 55, 40
1, 53240, Note_off_c, 0, 72, 61
1, 53251, Control_c, 0, 64, 102
1, 53266, Control_c, 0, 64, 103
1, 53280, Control_c, 0, 64, 104
1, 53325, Control_c, 0, 64, 105
1, 53531, Control_c, 0, 64, 104
1, 53546, Control_c, 0, 64, 103
1, 53561, Control_c, 0, 64, 101
1, 53576, Control_c, 0, 64, 98
1, 53591, Control_c, 0, 64, 94
1, 53597, Note_on_c, 0, 74, 72
1, 53601, Note_on_c, 0, 55, 48
1, 53601, Note_on_c, 0, 59, 54
1, 53603, Note_on_c, 0, 67, 64
1, 53606, Control_c, 0, 64, 88
1, 53614, Note_on_c, 0, 50, 51
1, 53621, Control_c, 0, 64, 80
1, 53636, Control_c, 0, 64, 69
1, 53651, Control_c, 0, 64, 59
1, 53666, Control_c, 0, 64, 49
1, 53681, Control_c, 0, 64, 47
1, 53695, Control_c, 0, 64, 47
1, 53710, Control_c, 0, 64, 52
1, 53725, Control_c, 0, 64, 60
1, 53740, Control_c, 0, 64, 65
1, 53755, Control_c, 0, 64, 70
1, 53770, Control_c, 0, 64, 78
1, 53785, Control_c, 0, 64, 85
1, 53800, Control_c, 0, 64, 89
1, 53808, Note_off_c, 0, 59, 56
1, 53815, Control_c, 0, 64, 91
1, 53818, Note_off_c, 0, 50, 51
1, 53829, Control_c, 0, 64, 92
1, 53844, Control_c, 0, 64, 95
1, 53859, Control_c, 0, 64, 97
1, 53881, Control_c, 0, 64, 100
1, 53896, Control_c, 0, 64, 101
1, 53910, Control_c, 0, 64, 102
1, 53918, Note_off_c, 0, 55, 29
1, 53925, Control_c, 0, 64, 102
1, 53926, Note_off_c, 0, 67, 51
1, 53930, Note_off_c, 0, 74, 53
1, 54042, Note_on_c, 0, 48, 59
1, 54042, Note_on_c, 0, 60, 57
1, 54047, Note_on_c, 0, 75, 67
1, 54057, Note_on_c, 0, 55, 49
1, 54065, Note_on_c, 0, 67, 56
1, 54094, Note_off_c, 0, 60, 55
1, 54097, Note_off_c, 0, 67, 59
1, 54102, Note_off_c, 0, 55, 55
1, 54133, Control_c, 0, 64, 102
1, 54141, Note_off_c, 0, 48, 33
1, 54148, Control_c, 0, 64, 100
1, 54155, Note_off_c, 0, 75, 35
1, 54162, Control_c, 0, 64, 98
1, 54178, Control_c, 0, 64, 95
1, 54193, Control_c, 0, 64, 89
1, 54208, Control_c, 0, 64, 84
1, 54222, Control_c, 0, 64, 77
1, 54230, Note_on_c, 0, 74, 73
1, 54237, Control_c, 0, 64, 70
1, 54238, Note_on_c, 0, 67, 50
1, 54240, Note_on_c, 0, 55, 54
1, 54244, Note_on_c, 0, 59, 54
1, 54252, Control_c, 0, 64, 63
1, 54267, Control_c, 0, 64, 55
1, 54281, Control_c, 0, 64, 45
1, 54296, Control_c, 0, 64, 33
1, 54311, Control_c, 0, 64, 0
1, 55341, Control_c, 0, 64, 23
1, 55356, Control_c, 0, 64, 44
1, 55378, Control_c, 0, 64, 62
1, 55393, Control_c, 0, 64, 70
1, 55403, Note_off_c, 0, 59, 59
1, 55407, Control_c, 0, 64, 79
1, 55422, Control_c, 0, 64, 89
1, 55430, Note_off_c, 0, 55, 56
1, 55437, Control_c, 0, 64, 99
1, 55445, Note_off_c, 0, 67, 57
1, 55452, Control_c, 0, 64, 106
1, 55459, Note_off_c, 0, 74, 59
1, 55467, Control_c, 0, 64, 109
1, 55481, Control_c, 0, 64, 110
1, 55496, Control_c, 0, 64, 112
1, 55511, Control_c, 0, 64, 115
1, 55526, Control_c, 0, 64, 116
1, 55778, Control_c, 0, 64, 115
1, 55792, Control_c, 0, 64, 113
1, 55807, Control_c, 0, 64, 110
1, 55822, Control_c, 0, 64, 107
1, 55837, Control_c, 0, 64, 105
1, 55851, Control_c, 0, 64, 101
1, 55866, Control_c, 0, 64, 98
1, 55881, Control_c, 0, 64, 93
1, 55896, Control_c, 0, 64, 86
1, 55911, Control_c, 0, 64, 76
1, 55925, Control_c, 0, 64, 65
1, 55928, Note_on_c, 0, 62, 62
1, 55928, Note_on_c, 0, 71, 67
1, 55929, Note_on_c, 0, 67, 68
1, 55932, Note_on_c, 0, 55, 54
1, 55939, Note_on_c, 0, 43, 55
1, 55940, Control_c, 0, 64, 58
1, 55955, Control_c, 0, 64, 58
1, 55970, Control_c, 0, 64, 59
1, 55985, Control_c, 0, 64, 64
1, 56000, Control_c, 0, 64, 67
1, 56014, Control_c, 0, 64, 74
1, 56029, Control_c, 0, 64, 82
1, 56045, Control_c, 0, 64, 90
1, 56060, Control_c, 0, 64, 94
1, 56075, Control_c, 0, 64, 95
1, 56089, Control_c, 0, 64, 95
1, 56104, Control_c, 0, 64, 96
1, 56127, Control_c, 0, 64, 98
1, 56130, Note_off_c, 0, 62, 57
1, 56142, Control_c, 0, 64, 100
1, 56146, Note_off_c, 0, 55, 58
1, 56149, Note_off_c, 0, 43, 58
1, 56156, Note_off_c, 0, 71, 60
1, 56156, Control_c, 0, 64, 102
1, 56171, Control_c, 0, 64, 104
1, 56178, Note_off_c, 0, 67, 57
1, 56186, Control_c, 0, 64, 105
1, 56201, Control_c, 0, 64, 107
1, 56216, Control_c, 0, 64, 108
1, 56230, Control_c, 0, 64, 109
1, 56245, Control_c, 0, 64, 110
1, 56260, Control_c, 0, 64, 110
1, 56274, Control_c, 0, 64, 111
1, 56349, Note_on_c, 0, 72, 73
1, 56351, Note_on_c, 0, 67, 68
1, 56352, Note_on_c, 0, 43, 61
1, 56354, Note_on_c, 0, 63, 68
1, 56356, Note_on_c, 0, 55, 59
1, 56399, Note_off_c, 0, 43, 57
1, 56401, Note_off_c, 0, 55, 60
1, 56402, Note_off_c, 0, 63, 55
1, 56408, Note_off_c, 0, 67, 58
1, 56427, Note_off_c, 0, 72, 60
1, 56453, Control_c, 0, 64, 110
1, 56467, Control_c, 0, 64, 108
1, 56482, Control_c, 0, 64, 103
1, 56497, Control_c, 0, 64, 96
1, 56512, Control_c, 0, 64, 85
1, 56526, Note_on_c, 0, 74, 80
1, 56527, Control_c, 0, 64, 69
1, 56529, Note_on_c, 0, 65, 72
1, 56531, Note_on_c, 0, 55, 61
1, 56532, Note_on_c, 0, 43, 66
1, 56533, Note_on_c, 0, 67, 71
1, 56541, Control_c, 0, 64, 54
1, 56556, Control_c, 0, 64, 42
1, 56571, Control_c, 0, 64, 45
1, 56586, Control_c, 0, 64, 56
1, 56601, Control_c, 0, 64, 64
1, 56615, Control_c, 0, 64, 72
1, 56620, Note_off_c, 0, 43, 58
1, 56622, Note_off_c, 0, 55, 57
1, 56627, Note_off_c, 0, 65, 59
1, 56630, Control_c, 0, 64, 83
1, 56645, Control_c, 0, 64, 95
1, 56656, Note_off_c, 0, 74, 59
1, 56660, Control_c, 0, 64, 105
1, 56666, Note_off_c, 0, 67, 56
1, 56674, Control_c, 0, 64, 108
1, 56689, Control_c, 0, 64, 110
1, 56704, Control_c, 0, 64, 111
1, 56748, Control_c, 0, 64, 112
1, 56778, Control_c, 0, 64, 112
1, 57039, Control_c, 0, 64, 111
1, 57053, Control_c, 0, 64, 107
1, 57068, Control_c, 0, 64, 103
1, 57083, Control_c, 0, 64, 96
1, 57097, Note_on_c, 0, 55, 63
1, 57097, Control_c, 0, 64, 85
1, 57099, Note_on_c, 0, 74, 82
1, 57100, Note_on_c, 0, 67, 75
1, 57102, Note_on_c, 0, 43, 65
1, 57104, Note_on_c, 0, 65, 71
1, 57112, Control_c, 0, 64, 72
1, 57127, Control_c, 0, 64, 61
1, 57142, Control_c, 0, 64, 56
1, 57157, Control_c, 0, 64, 58
1, 57172, Control_c, 0, 64, 63
1, 57187, Control_c, 0, 64, 68
1, 57202, Control_c, 0, 64, 76
1, 57217, Control_c, 0, 64, 92
1, 57220, Note_off_c, 0, 55, 58
1, 57221, Note_off_c, 0, 43, 57
1, 57228, Note_off_c, 0, 65, 54
1, 57232, Control_c, 0, 64, 112
1, 57246, Control_c, 0, 64, 127
1, 57252, Note_off_c, 0, 74, 60
1, 57299, Note_off_c, 0, 67, 36
1, 57663, Note_on_c, 0, 55, 65
1, 57666, Note_on_c, 0, 74, 83
1, 57668, Note_on_c, 0, 43, 70
1, 57668, Note_on_c, 0, 67, 77
1, 57670, Control_c, 0, 64, 102
1, 57672, Note_on_c, 0, 65, 70
1, 57684, Control_c, 0, 64, 84
1, 57699, Control_c, 0, 64, 68
1, 57714, Control_c, 0, 64, 61
1, 57728, Control_c, 0, 64, 62
1, 57743, Control_c, 0, 64, 66
1, 57758, Control_c, 0, 64, 72
1, 57773, Control_c, 0, 64, 84
1, 57788, Control_c, 0, 64, 103
1, 57794, Note_off_c, 0, 65, 59
1, 57803, Note_off_c, 0, 55, 59
1, 57803, Control_c, 0, 64, 127
1, 57806, Note_off_c, 0, 74, 61
1, 57811, Note_off_c, 0, 43, 57
1, 57858, Note_off_c, 0, 67, 52
1, 58217, Control_c, 0, 64, 120
1, 58226, Note_on_c, 0, 43, 63
1, 58226, Note_on_c, 0, 55, 62
1, 58232, Control_c, 0, 64, 99
1, 58233, Note_on_c, 0, 72, 79
1, 58236, Note_on_c, 0, 67, 77
1, 58238, Note_on_c, 0, 63, 74
1, 58247, Control_c, 0, 64, 80
1, 58262, Control_c, 0, 64, 62
1, 58277, Control_c, 0, 64, 54
1, 58292, Control_c, 0, 64, 55
1, 58307, Control_c, 0, 64, 59
1, 58321, Control_c, 0, 64, 65
1, 58336, Control_c, 0, 64, 71
1, 58351, Control_c, 0, 64, 81
1, 58373, Control_c, 0, 64, 103
1, 58388, Control_c, 0, 64, 127
1, 58402, Note_off_c, 0, 55, 57
1, 58404, Note_off_c, 0, 63, 48
1, 58408, Note_off_c, 0, 43, 58
1, 58426, Note_off_c, 0, 67, 58
1, 58475, Note_off_c, 0, 72, 35
1, 58660, Note_on_c, 0, 74, 83
1, 58664, Note_on_c, 0, 65, 72
1, 58664, Note_on_c, 0, 55, 65
1, 58667, Note_on_c, 0, 43, 67
1, 58669, Note_on_c, 0, 67, 73
1, 58697, Note_off_c, 0, 65, 59
1, 58724, Note_off_c, 0, 55, 57
1, 58727, Note_off_c, 0, 67, 59
1, 58729, Note_off_c, 0, 43, 55
1, 58734, Note_off_c, 0, 74, 62
1, 58832, Control_c, 0, 64, 104
1, 58847, Control_c, 0, 64, 87
1, 58858, Note_on_c, 0, 75, 86
1, 58859, Note_on_c, 0, 67, 82
1, 58861, Control_c, 0, 64, 67
1, 58872, Note_on_c, 0, 55, 68
1, 58874, Note_on_c, 0, 43, 71
1, 58876, Control_c, 0, 64, 25
1, 58891, Control_c, 0, 64, 0
1, 58951, Control_c, 0, 64, 42
1, 58966, Control_c, 0, 64, 62
1, 58980, Control_c, 0, 64, 72
1, 58995, Control_c, 0, 64, 81
1, 59010, Control_c, 0, 64, 96
1, 59025, Control_c, 0, 64, 113
1, 59040, Control_c, 0, 64, 127
1, 59122, Note_off_c, 0, 43, 58
1, 59162, Note_off_c, 0, 55, 53
1, 59448, Control_c, 0, 64, 118
1, 59463, Control_c, 0, 64, 93
1, 59471, Note_on_c, 0, 57, 77
1, 59472, Note_on_c, 0, 45, 79
1, 59478, Control_c, 0, 64, 71
1, 59492, Control_c, 0, 64, 48
1, 59507, Control_c, 0, 64, 36
1, 59522, Control_c, 0, 64, 42
1, 59537, Control_c, 0, 64, 57
1, 59552, Control_c, 0, 64, 68
1, 59566, Control_c, 0, 64, 78
1, 59581, Control_c, 0, 64, 93
1, 59596, Control_c, 0, 64, 116
1, 59611, Control_c, 0, 64, 127
1, 59639, Note_off_c, 0, 45, 54
1, 59654, Note_off_c, 0, 57, 60
1, 59667, Note_off_c, 0, 67, 57
1, 59686, Note_off_c, 0, 75, 35
1, 59907, Note_on_c, 0, 47, 65
1, 59907, Note_on_c, 0, 74, 84
1, 59913, Note_on_c, 0, 59, 65
1, 59913, Note_on_c, 0, 65, 68
1, 59914, Note_on_c, 0, 67, 75
1, 59978, Note_off_c, 0, 47, 56
1, 59985, Note_off_c, 0, 59, 59
1, 59997, Note_off_c, 0, 65, 37
1, 60011, Note_off_c, 0, 74, 58
1, 60033, Control_c, 0, 64, 116
1, 60048, Control_c, 0, 64, 108
1, 60059, Note_off_c, 0, 67, 32
1, 60063, Control_c, 0, 64, 101
1, 60078, Control_c, 0, 64, 92
1, 60093, Control_c, 0, 64, 81
1, 60103, Note_on_c, 0, 67, 60
1, 60107, Note_on_c, 0, 60, 65
1, 60108, Control_c, 0, 64, 65
1, 60111, Note_on_c, 0, 72, 81
1, 60119, Note_on_c, 0, 48, 65
1, 60119, Note_on_c, 0, 63, 72
1, 60122, Control_c, 0, 64, 52
1, 60137, Control_c, 0, 64, 46
1, 60152, Control_c, 0, 64, 47
1, 60167, Control_c, 0, 64, 54
1, 60182, Control_c, 0, 64, 63
1, 60197, Control_c, 0, 64, 71
1, 60212, Control_c, 0, 64, 83
1, 60219, Note_off_c, 0, 60, 58
1, 60226, Control_c, 0, 64, 96
1, 60241, Control_c, 0, 64, 107
1, 60254, Note_off_c, 0, 63, 52
1, 60256, Control_c, 0, 64, 113
1, 60262, Note_off_c, 0, 48, 56
1, 60269, Note_off_c, 0, 67, 59
1, 60271, Control_c, 0, 64, 114
1, 60286, Control_c, 0, 64, 115
1, 60304, Note_off_c, 0, 72, 52
1, 60315, Control_c, 0, 64, 116
1, 60345, Control_c, 0, 64, 116
1, 60360, Control_c, 0, 64, 117
1, 60552, Control_c, 0, 64, 116
1, 60567, Control_c, 0, 64, 116
1, 60582, Control_c, 0, 64, 115
1, 60596, Control_c, 0, 64, 114
1, 60619, Control_c, 0, 64, 113
1, 60634, Control_c, 0, 64, 111
1, 60648, Control_c, 0, 64, 110
1, 60663, Control_c, 0, 64, 108
1, 60678, Control_c, 0, 64, 107
1, 60693, Control_c, 0, 64, 106
1, 60708, Control_c, 0, 64, 103
1, 60722, Control_c, 0, 64, 97
1, 60727, Note_on_c, 0, 53, 58
1, 60729, Note_on_c, 0, 41, 60
1, 60736, Note_on_c, 0, 74, 79
1, 60737, Control_c, 0, 64, 89
1, 60741, Note_on_c, 0, 68, 77
1, 60743, Note_on_c, 0, 65, 67
1, 60752, Control_c, 0, 64, 77
1, 60767, Control_c, 0, 64, 65
1, 60782, Control_c, 0, 64, 54
1, 60796, Control_c, 0, 64, 48
1, 60826, Control_c, 0, 64, 50
1, 60842, Control_c, 0, 64, 57
1, 60857, Control_c, 0, 64, 63
1, 60871, Control_c, 0, 64, 69
1, 60886, Control_c, 0, 64, 74
1, 60901, Control_c, 0, 64, 82
1, 60917, Control_c, 0, 64, 88
1, 60932, Control_c, 0, 64, 93
1, 60942, Note_off_c, 0, 65, 58
1, 60946, Control_c, 0, 64, 95
1, 60961, Control_c, 0, 64, 99
1, 60972, Note_off_c, 0, 53, 60
1, 60976, Control_c, 0, 64, 104
1, 60981, Note_off_c, 0, 41, 56
1, 60989, Note_off_c, 0, 74, 53
1, 60991, Control_c, 0, 64, 108
1, 61006, Control_c, 0, 64, 113
1, 61011, Note_off_c, 0, 68, 57
1, 61020, Control_c, 0, 64, 117
1, 61035, Control_c, 0, 64, 120
1, 61050, Control_c, 0, 64, 127
1, 61158, Note_on_c, 0, 41, 57
1, 61168, Note_on_c, 0, 53, 62
1, 61178, Note_on_c, 0, 63, 70
1, 61178, Note_on_c, 0, 72, 73
1, 61180, Note_on_c, 0, 68, 62
1, 61226, Note_off_c, 0, 41, 60
1, 61228, Note_off_c, 0, 53, 52
1, 61231, Note_off_c, 0, 68, 54
1, 61252, Note_off_c, 0, 63, 58
1, 61302, Control_c, 0, 64, 116
1, 61317, Control_c, 0, 64, 107
1, 61331, Control_c, 0, 64, 95
1, 61332, Note_off_c, 0, 72, 33
1, 61346, Control_c, 0, 64, 82
1, 61368, Control_c, 0, 64, 66
1, 61371, Note_on_c, 0, 67, 67
1, 61371, Note_on_c, 0, 71, 70
1, 61372, Note_on_c, 0, 55, 62
1, 61374, Note_on_c, 0, 43, 65
1, 61377, Note_on_c, 0, 62, 64
1, 61383, Control_c, 0, 64, 46
1, 61398, Control_c, 0, 64, 0
1, 61458, Control_c, 0, 64, 33
1, 61472, Control_c, 0, 64, 56
1, 61487, Control_c, 0, 64, 66
1, 61502, Control_c, 0, 64, 72
1, 61517, Control_c, 0, 64, 81
1, 61523, Note_off_c, 0, 55, 50
1, 61532, Control_c, 0, 64, 90
1, 61546, Control_c, 0, 64, 98
1, 61554, Note_off_c, 0, 71, 58
1, 61561, Control_c, 0, 64, 100
1, 61576, Control_c, 0, 64, 102
1, 61583, Note_off_c, 0, 62, 35
1, 61590, Control_c, 0, 64, 103
1, 61592, Note_off_c, 0, 67, 59
1, 61605, Control_c, 0, 64, 104
1, 61620, Control_c, 0, 64, 105
1, 61813, Control_c, 0, 64, 104
1, 61843, Control_c, 0, 64, 103
1, 61858, Control_c, 0, 64, 103
1, 61873, Control_c, 0, 64, 102
1, 61887, Control_c, 0, 64, 101
1, 61902, Control_c, 0, 64, 98
1, 61917, Control_c, 0, 64, 92
1, 61932, Control_c, 0, 64, 81
1, 61947, Control_c, 0, 64, 70
1, 61956, Note_on_c, 0, 69, 68
1, 61958, Note_on_c, 0, 60, 52
1, 61958, Note_on_c, 0, 67, 60
1, 61960, Note_on_c, 0, 55, 53
1, 61961, Control_c, 0, 64, 66
1, 61991, Control_c, 0, 64, 68
1, 62006, Control_c, 0, 64, 71
1, 62021, Control_c, 0, 64, 78
1, 62036, Control_c, 0, 64, 89
1, 62051, Control_c, 0, 64, 102
1, 62056, Note_off_c, 0, 43, 37
1, 62066, Control_c, 0, 64, 105
1, 62080, Control_c, 0, 64, 106
1, 62095, Control_c, 0, 64, 106
1, 62110, Note_off_c, 0, 60, 53
1, 62117, Control_c, 0, 64, 107
1, 62132, Control_c, 0, 64, 108
1, 62147, Control_c, 0, 64, 108
1, 62149, Note_off_c, 0, 55, 35
1, 62158, Note_off_c, 0, 67, 53
1, 62162, Note_off_c, 0, 69, 59
1, 62162, Control_c, 0, 64, 109
1, 62177, Control_c, 0, 64, 111
1, 62192, Control_c, 0, 64, 113
1, 62207, Control_c, 0, 64, 115
1, 62221, Control_c, 0, 64, 117
1, 62251, Control_c, 0, 64, 117
1, 62295, Control_c, 0, 64, 118
1, 62380, Note_on_c, 0, 62, 72
1, 62386, Note_on_c, 0, 71, 68
1, 62388, Note_on_c, 0, 53, 60
1, 62388, Note_on_c, 0, 67, 69
1, 62393, Note_on_c, 0, 55, 53
1, 62453, Note_off_c, 0, 71, 57
1, 62465, Note_off_c, 0, 55, 37
1, 62472, Note_off_c, 0, 67, 52
1, 62477, Note_off_c, 0, 62, 35
1, 62504, Control_c, 0, 64, 117
1, 62505, Note_off_c, 0, 53, 33
1, 62519, Control_c, 0, 64, 115
1, 62534, Control_c, 0, 64, 110
1, 62549, Control_c, 0, 64, 104
1, 62563, Control_c, 0, 64, 91
1, 62565, Note_on_c, 0, 67, 62
1, 62572, Note_on_c, 0, 72, 80
1, 62578, Control_c, 0, 64, 77
1, 62581, Note_on_c, 0, 55, 64
1, 62582, Note_on_c, 0, 51, 64
1, 62582, Note_on_c, 0, 63, 67
1, 62593, Control_c, 0, 64, 64
1, 62608, Control_c, 0, 64, 58
1, 62623, Control_c, 0, 64, 58
1, 62637, Control_c, 0, 64, 63
1, 62652, Control_c, 0, 64, 67
1, 62661, Note_off_c, 0, 55, 57
1, 62667, Control_c, 0, 64, 77
1, 62682, Control_c, 0, 64, 94
1, 62697, Control_c, 0, 64, 127
1, 62711, Note_off_c, 0, 63, 52
1, 62713, Note_off_c, 0, 51, 54
1, 62726, Note_off_c, 0, 72, 54
1, 62798, Note_off_c, 0, 67, 35
1, 63189, Note_on_c, 0, 67, 78
1, 63190, Note_on_c, 0, 75, 82
1, 63193, Note_on_c, 0, 43, 71
1, 63195, Note_on_c, 0, 31, 74
1, 63207, Control_c, 0, 64, 108
1, 63222, Control_c, 0, 64, 90
1, 63237, Control_c, 0, 64, 72
1, 63252, Control_c, 0, 64, 58
1, 63267, Control_c, 0, 64, 45
1, 63297, Control_c, 0, 64, 52
1, 63312, Control_c, 0, 64, 63
1, 63327, Control_c, 0, 64, 71
1, 63341, Control_c, 0, 64, 81
1, 63356, Control_c, 0, 64, 97
1, 63371, Control_c, 0, 64, 122
1, 63386, Control_c, 0, 64, 127
1, 63394, Note_off_c, 0, 31, 60
1, 63397, Note_off_c, 0, 43, 58
1, 63440, Note_off_c, 0, 75, 61
1, 63441, Note_off_c, 0, 67, 59
1, 63634, Note_on_c, 0, 31, 64
1, 63641, Note_on_c, 0, 74, 79
1, 63642, Note_on_c, 0, 43, 60
1, 63648, Note_on_c, 0, 67, 74
1, 63649, Note_on_c, 0, 65, 71
1, 63692, Note_off_c, 0, 43, 60
1, 63692, Note_off_c, 0, 65, 54
1, 63702, Note_off_c, 0, 31, 54
1, 63721, Note_off_c, 0, 67, 55
1, 63724, Note_off_c, 0, 74, 57
1, 63792, Control_c, 0, 64, 120
1, 63807, Control_c, 0, 64, 111
1, 63822, Control_c, 0, 64, 98
1, 63826, Note_on_c, 0, 67, 57
1, 63833, Note_on_c, 0, 43, 75
1, 63835, Note_on_c, 0, 36, 76
1, 63835, Note_on_c, 0, 72, 80
1, 63837, Control_c, 0, 64, 79
1, 63840, Note_on_c, 0, 63, 76
1, 63852, Control_c, 0, 64, 59
1, 63866, Control_c, 0, 64, 0
1, 64973, Control_c, 0, 64, 39
1, 64987, Control_c, 0, 64, 58
1, 65002, Control_c, 0, 64, 66
1, 65017, Control_c, 0, 64, 70
1, 65032, Control_c, 0, 64, 76
1, 65033, Note_off_c, 0, 63, 56
1, 65047, Control_c, 0, 64, 84
1, 65055, Note_off_c, 0, 67, 59
1, 65061, Control_c, 0, 64, 91
1, 65064, Note_off_c, 0, 43, 58
1, 65066, Note_off_c, 0, 72, 58
1, 65076, Control_c, 0, 64, 96
1, 65091, Control_c, 0, 64, 99
1, 65093, Note_off_c, 0, 36, 58
1, 65113, Control_c, 0, 64, 100
1, 65128, Control_c, 0, 64, 101
1, 65143, Control_c, 0, 64, 102
1, 65158, Control_c, 0, 64, 102
1, 65172, Control_c, 0, 64, 103
1, 65395, Control_c, 0, 64, 102
1, 65410, Control_c, 0, 64, 101
1, 65425, Control_c, 0, 64, 100
1, 65439, Control_c, 0, 64, 99
1, 65454, Control_c, 0, 64, 97
1, 65469, Control_c, 0, 64, 95
1, 65484, Control_c, 0, 64, 93
1, 65499, Control_c, 0, 64, 90
1, 65513, Control_c, 0, 64, 87
1, 65528, Control_c, 0, 64, 84
1, 65543, Control_c, 0, 64, 81
1, 65557, Control_c, 0, 64, 77
1, 65572, Control_c, 0, 64, 72
1, 65573, Note_on_c, 0, 74, 54
1, 65587, Control_c, 0, 64, 66
1, 65602, Control_c, 0, 64, 61
1, 65617, Control_c, 0, 64, 53
1, 65633, Control_c, 0, 64, 47
1, 65648, Control_c, 0, 64, 40
1, 65662, Control_c, 0, 64, 28
1, 65677, Control_c, 0, 64, 0
1, 66048, Note_on_c, 0, 75, 50
1, 66057, Note_off_c, 0, 74, 36
1, 66218, Note_on_c, 0, 77, 59
1, 66228, Note_off_c, 0, 75, 46
1, 66322, Control_c, 0, 64, 24
1, 66336, Control_c, 0, 64, 53
1, 66351, Control_c, 0, 64, 65
1, 66366, Control_c, 0, 64, 69
1, 66380, Control_c, 0, 64, 73
1, 66395, Control_c, 0, 64, 78
1, 66410, Control_c, 0, 64, 82
1, 66420, Note_off_c, 0, 77, 51
1, 66426, Control_c, 0, 64, 86
1, 66441, Control_c, 0, 64, 89
1, 66456, Control_c, 0, 64, 91
1, 66471, Control_c, 0, 64, 92
1, 66485, Control_c, 0, 64, 94
1, 66500, Control_c, 0, 64, 96
1, 66515, Control_c, 0, 64, 99
1, 66530, Control_c, 0, 64, 102
1, 66545, Control_c, 0, 64, 103
1, 66774, Control_c, 0, 64, 103
1, 66789, Control_c, 0, 64, 101
1, 66803, Control_c, 0, 64, 98
1, 66806, Note_on_c, 0, 65, 41
1, 66808, Note_on_c, 0, 71, 59
1, 66813, Note_on_c, 0, 77, 61
1, 66818, Control_c, 0, 64, 93
1, 66823, Note_on_c, 0, 74, 59
1, 66833, Control_c, 0, 64, 86
1, 66848, Control_c, 0, 64, 73
1, 66850, Note_on_c, 0, 68, 32
1, 66863, Control_c, 0, 64, 64
1, 66877, Control_c, 0, 64, 57
1, 66892, Control_c, 0, 64, 57
1, 66907, Control_c, 0, 64, 59
1, 66922, Control_c, 0, 64, 63
1, 66936, Control_c, 0, 64, 66
1, 66951, Control_c, 0, 64, 71
1, 66966, Control_c, 0, 64, 78
1, 66981, Control_c, 0, 64, 87
1, 66996, Control_c, 0, 64, 93
1, 67011, Control_c, 0, 64, 95
1, 67041, Control_c, 0, 64, 97
1, 67056, Note_off_c, 0, 68, 42
1, 67056, Control_c, 0, 64, 99
1, 67056, Note_off_c, 0, 77, 55
1, 67066, Note_off_c, 0, 65, 36
1, 67068, Note_off_c, 0, 71, 60
1, 67071, Control_c, 0, 64, 102
1, 67073, Note_off_c, 0, 74, 58
1, 67085, Control_c, 0, 64, 104
1, 67100, Control_c, 0, 64, 105
1, 67115, Control_c, 0, 64, 106
1, 67129, Control_c, 0, 64, 107
1, 67144, Control_c, 0, 64, 107
1, 67159, Control_c, 0, 64, 108
1, 67174, Control_c, 0, 64, 108
1, 67189, Control_c, 0, 64, 109
1, 67390, Control_c, 0, 64, 107
1, 67404, Control_c, 0, 64, 103
1, 67412, Note_on_c, 0, 77, 69
1, 67417, Note_on_c, 0, 65, 44
1, 67419, Control_c, 0, 64, 96
1, 67422, Note_on_c, 0, 62, 46
1, 67423, Note_on_c, 0, 70, 62
1, 67430, Note_on_c, 0, 68, 51
1, 67434, Control_c, 0, 64, 88
1, 67449, Control_c, 0, 64, 77
1, 67464, Control_c, 0, 64, 64
1, 67479, Control_c, 0, 64, 56
1, 67494, Control_c, 0, 64, 53
1, 67507, Note_off_c, 0, 65, 0
1, 67507, Note_on_c, 0, 65, 3
1, 67538, Control_c, 0, 64, 55
1, 67552, Control_c, 0, 64, 60
1, 67567, Control_c, 0, 64, 66
1, 67582, Control_c, 0, 64, 72
1, 67597, Control_c, 0, 64, 80
1, 67612, Control_c, 0, 64, 91
1, 67626, Control_c, 0, 64, 99
1, 67641, Control_c, 0, 64, 101
1, 67645, Note_off_c, 0, 77, 57
1, 67656, Control_c, 0, 64, 102
1, 67671, Control_c, 0, 64, 105
1, 67675, Note_off_c, 0, 65, 42
1, 67686, Control_c, 0, 64, 107
1, 67688, Note_off_c, 0, 70, 58
1, 67692, Note_off_c, 0, 68, 36
1, 67700, Control_c, 0, 64, 111
1, 67709, Note_off_c, 0, 62, 35
1, 67715, Control_c, 0, 64, 115
1, 67730, Control_c, 0, 64, 117
1, 67745, Control_c, 0, 64, 118
1, 67938, Control_c, 0, 64, 117
1, 67952, Control_c, 0, 64, 113
1, 67967, Control_c, 0, 64, 108
1, 67969, Note_on_c, 0, 65, 43
1, 67976, Note_on_c, 0, 58, 43
1, 67977, Note_on_c, 0, 75, 58
1, 67977, Note_on_c, 0, 70, 50
1, 67982, Control_c, 0, 64, 102
1, 67997, Control_c, 0, 64, 95
1, 67998, Note_on_c, 0, 68, 30
1, 68012, Control_c, 0, 64, 87
1, 68027, Control_c, 0, 64, 77
1, 68039, Note_off_c, 0, 75, 60
1, 68040, Note_on_c, 0, 77, 66
1, 68042, Control_c, 0, 64, 66
1, 68057, Control_c, 0, 64, 56
1, 68072, Control_c, 0, 64, 49
1, 68072, Note_off_c, 0, 68, 0
1, 68072, Note_on_c, 0, 68, 18
1, 68087, Control_c, 0, 64, 48
1, 68111, Note_on_c, 0, 75, 70
1, 68159, Note_off_c, 0, 77, 48
1, 68168, Control_c, 0, 64, 51
1, 68182, Control_c, 0, 64, 58
1, 68197, Control_c, 0, 64, 64
1, 68212, Control_c, 0, 64, 68
1, 68227, Control_c, 0, 64, 73
1, 68242, Control_c, 0, 64, 81
1, 68257, Control_c, 0, 64, 88
1, 68272, Control_c, 0, 64, 93
1, 68287, Control_c, 0, 64, 95
1, 68302, Control_c, 0, 64, 98
1, 68317, Control_c, 0, 64, 101
1, 68331, Control_c, 0, 64, 105
1, 68346, Control_c, 0, 64, 108
1, 68361, Control_c, 0, 64, 110
1, 68375, Control_c, 0, 64, 110
1, 68390, Control_c, 0, 64, 111
1, 68405, Control_c, 0, 64, 113
1, 68420, Control_c, 0, 64, 115
1, 68435, Control_c, 0, 64, 115
1, 68449, Control_c, 0, 64, 116
1, 68489, Note_off_c, 0, 75, 57
1, 68490, Note_on_c, 0, 74, 67
1, 68520, Note_off_c, 0, 68, 42
1, 68537, Note_off_c, 0, 70, 35
1, 68664, Note_off_c, 0, 74, 41
1, 68671, Control_c, 0, 64, 114
1, 68686, Control_c, 0, 64, 110
1, 68701, Control_c, 0, 64, 105
1, 68716, Control_c, 0, 64, 99
1, 68725, Note_on_c, 0, 79, 74
1, 68731, Control_c, 0, 64, 91
1, 68731, Note_off_c, 0, 65, 35
1, 68740, Note_on_c, 0, 63, 42
1, 68741, Note_on_c, 0, 70, 51
1, 68746, Control_c, 0, 64, 83
1, 68751, Note_on_c, 0, 67, 52
1, 68761, Control_c, 0, 64, 75
1, 68775, Control_c, 0, 64, 67
1, 68781, Note_off_c, 0, 58, 40
1, 68790, Control_c, 0, 64, 60
1, 68805, Control_c, 0, 64, 54
1, 68820, Control_c, 0, 64, 50
1, 68835, Control_c, 0, 64, 47
1, 68858, Control_c, 0, 64, 43
1, 68873, Control_c, 0, 64, 43
1, 68887, Control_c, 0, 64, 45
1, 68902, Control_c, 0, 64, 55
1, 68917, Control_c, 0, 64, 63
1, 68932, Control_c, 0, 64, 69
1, 68947, Control_c, 0, 64, 74
1, 68961, Control_c, 0, 64, 81
1, 68976, Control_c, 0, 64, 86
1, 68991, Control_c, 0, 64, 90
1, 68998, Note_off_c, 0, 67, 59
1, 69005, Control_c, 0, 64, 92
1, 69020, Control_c, 0, 64, 94
1, 69035, Control_c, 0, 64, 96
1, 69037, Note_off_c, 0, 70, 59
1, 69050, Control_c, 0, 64, 97
1, 69065, Control_c, 0, 64, 99
1, 69080, Control_c, 0, 64, 101
1, 69095, Control_c, 0, 64, 102
1, 69264, Note_off_c, 0, 63, 37
1, 69285, Control_c, 0, 64, 101
1, 69300, Control_c, 0, 64, 98
1, 69315, Control_c, 0, 64, 95
1, 69330, Control_c, 0, 64, 90
1, 69345, Control_c, 0, 64, 85
1, 69348, Note_on_c, 0, 59, 33
1, 69349, Note_on_c, 0, 65, 43
1, 69354, Note_on_c, 0, 62, 36
1, 69358, Note_on_c, 0, 68, 42
1, 69360, Control_c, 0, 64, 78
1, 69365, Note_on_c, 0, 74, 50
1, 69375, Control_c, 0, 64, 71
1, 69390, Control_c, 0, 64, 64
1, 69404, Control_c, 0, 64, 57
1, 69419, Control_c, 0, 64, 55
1, 69464, Control_c, 0, 64, 58
1, 69478, Control_c, 0, 64, 63
1, 69493, Control_c, 0, 64, 68
1, 69508, Control_c, 0, 64, 75
1, 69522, Control_c, 0, 64, 84
1, 69537, Control_c, 0, 64, 94
1, 69552, Control_c, 0, 64, 99
1, 69567, Control_c, 0, 64, 100
1, 69604, Control_c, 0, 64, 101
1, 69634, Control_c, 0, 64, 101
1, 69681, Note_off_c, 0, 68, 37
1, 69753, Note_on_c, 0, 77, 61
1, 69774, Note_off_c, 0, 74, 43
1, 69809, Note_off_c, 0, 62, 40
1, 69842, Control_c, 0, 64, 101
1, 69857, Control_c, 0, 64, 100
1, 69872, Control_c, 0, 64, 99
1, 69887, Control_c, 0, 64, 98
1, 69897, Note_off_c, 0, 59, 39
1, 69901, Control_c, 0, 64, 95
1, 69916, Control_c, 0, 64, 91
1, 69931, Control_c, 0, 64, 87
1, 69946, Control_c, 0, 64, 83
1, 69960, Control_c, 0, 64, 77
1, 69970, Note_on_c, 0, 67, 46
1, 69970, Note_on_c, 0, 75, 58
1, 69973, Note_off_c, 0, 65, 34
1, 69975, Control_c, 0, 64, 69
1, 69986, Note_on_c, 0, 60, 41
1, 69987, Note_on_c, 0, 63, 33
1, 69990, Control_c, 0, 64, 61
1, 69994, Note_off_c, 0, 79, 33
1, 70005, Control_c, 0, 64, 51
1, 70020, Control_c, 0, 64, 47
1, 70034, Control_c, 0, 64, 47
1, 70049, Control_c, 0, 64, 51
1, 70064, Control_c, 0, 64, 60
1, 70078, Note_off_c, 0, 77, 31
1, 70079, Control_c, 0, 64, 66
1, 70094, Control_c, 0, 64, 73
1, 70108, Control_c, 0, 64, 83
1, 70123, Control_c, 0, 64, 91
1, 70138, Control_c, 0, 64, 95
1, 70143, Note_off_c, 0, 63, 40
1, 70153, Control_c, 0, 64, 97
1, 70153, Note_off_c, 0, 60, 55
1, 70153, Note_off_c, 0, 67, 34
1, 70156, Note_off_c, 0, 75, 59
1, 70168, Control_c, 0, 64, 97
1, 70183, Control_c, 0, 64, 99
1, 70198, Control_c, 0, 64, 99
1, 70457, Control_c, 0, 64, 99
1, 70472, Control_c, 0, 64, 98
1, 70487, Control_c, 0, 64, 97
1, 70502, Control_c, 0, 64, 96
1, 70517, Control_c, 0, 64, 94
1, 70531, Control_c, 0, 64, 91
1, 70546, Control_c, 0, 64, 87
1, 70561, Control_c, 0, 64, 82
1, 70567, Note_on_c, 0, 53, 38
1, 70576, Control_c, 0, 64, 76
1, 70578, Note_on_c, 0, 56, 38
1, 70582, Note_on_c, 0, 74, 53
1, 70583, Note_on_c, 0, 65, 41
1, 70588, Note_on_c, 0, 68, 49
1, 70591, Control_c, 0, 64, 70
1, 70606, Control_c, 0, 64, 64
1, 70621, Control_c, 0, 64, 58
1, 70636, Control_c, 0, 64, 55
1, 70651, Control_c, 0, 64, 54
1, 70680, Control_c, 0, 64, 55
1, 70695, Control_c, 0, 64, 61
1, 70710, Control_c, 0, 64, 66
1, 70725, Control_c, 0, 64, 73
1, 70737, Note_off_c, 0, 74, 57
1, 70740, Control_c, 0, 64, 81
1, 70746, Note_off_c, 0, 65, 39
1, 70755, Control_c, 0, 64, 88
1, 70770, Control_c, 0, 64, 92
1, 70784, Control_c, 0, 64, 93
1, 70829, Control_c, 0, 64, 93
1, 70844, Control_c, 0, 64, 94
1, 70858, Control_c, 0, 64, 95
1, 71004, Note_on_c, 0, 72, 57
1, 71012, Note_on_c, 0, 63, 54
1, 71017, Note_off_c, 0, 68, 39
1, 71080, Note_off_c, 0, 63, 53
1, 71080, Control_c, 0, 64, 94
1, 71102, Control_c, 0, 64, 93
1, 71117, Control_c, 0, 64, 92
1, 71132, Control_c, 0, 64, 90
1, 71147, Control_c, 0, 64, 87
1, 71154, Note_off_c, 0, 72, 40
1, 71162, Control_c, 0, 64, 84
1, 71176, Control_c, 0, 64, 80
1, 71191, Control_c, 0, 64, 74
1, 71200, Note_off_c, 0, 53, 41
1, 71206, Control_c, 0, 64, 66
1, 71211, Note_on_c, 0, 67, 50
1, 71211, Note_on_c, 0, 71, 59
1, 71212, Note_on_c, 0, 55, 39
1, 71220, Note_on_c, 0, 62, 47
1, 71222, Control_c, 0, 64, 57
1, 71237, Control_c, 0, 64, 39
1, 71249, Note_off_c, 0, 56, 38
1, 71252, Control_c, 0, 64, 19
1, 71267, Control_c, 0, 64, 0
1, 71296, Control_c, 0, 64, 37
1, 71311, Control_c, 0, 64, 57
1, 71325, Control_c, 0, 64, 67
1, 71340, Control_c, 0, 64, 74
1, 71355, Control_c, 0, 64, 80
1, 71370, Control_c, 0, 64, 86
1, 71385, Control_c, 0, 64, 91
1, 71399, Note_off_c, 0, 62, 44
1, 71399, Note_off_c, 0, 71, 59
1, 71399, Control_c, 0, 64, 94
1, 71414, Control_c, 0, 64, 97
1, 71429, Control_c, 0, 64, 98
1, 71437, Note_off_c, 0, 67, 59
1, 71444, Control_c, 0, 64, 99
1, 71461, Note_off_c, 0, 55, 35
1, 71696, Control_c, 0, 64, 98
1, 71711, Control_c, 0, 64, 98
1, 71740, Control_c, 0, 64, 97
1, 71755, Control_c, 0, 64, 96
1, 71770, Control_c, 0, 64, 94
1, 71785, Control_c, 0, 64, 91
1, 71799, Control_c, 0, 64, 88
1, 71810, Note_on_c, 0, 55, 39
1, 71814, Control_c, 0, 64, 81
1, 71822, Note_on_c, 0, 69, 64
1, 71823, Note_on_c, 0, 67, 60
1, 71828, Note_on_c, 0, 60, 48
1, 71829, Control_c, 0, 64, 72
1, 71851, Control_c, 0, 64, 62
1, 71866, Control_c, 0, 64, 56
1, 71881, Control_c, 0, 64, 55
1, 71911, Control_c, 0, 64, 59
1, 71925, Control_c, 0, 64, 64
1, 71940, Control_c, 0, 64, 69
1, 71955, Control_c, 0, 64, 76
1, 71970, Control_c, 0, 64, 83
1, 71985, Control_c, 0, 64, 90
1, 71999, Control_c, 0, 64, 91
1, 72014, Control_c, 0, 64, 92
1, 72028, Note_off_c, 0, 60, 55
1, 72030, Control_c, 0, 64, 92
1, 72035, Note_off_c, 0, 55, 52
1, 72045, Control_c, 0, 64, 94
1, 72060, Control_c, 0, 64, 97
1, 72073, Note_off_c, 0, 67, 54
1, 72075, Control_c, 0, 64, 100
1, 72082, Note_off_c, 0, 69, 60
1, 72090, Control_c, 0, 64, 103
1, 72104, Control_c, 0, 64, 103
1, 72244, Note_on_c, 0, 71, 66
1, 72245, Note_on_c, 0, 62, 62
1, 72247, Note_on_c, 0, 53, 54
1, 72248, Note_on_c, 0, 67, 58
1, 72263, Note_on_c, 0, 55, 36
1, 72286, Note_off_c, 0, 62, 56
1, 72296, Note_off_c, 0, 71, 52
1, 72299, Note_off_c, 0, 55, 49
1, 72341, Note_off_c, 0, 53, 35
1, 72342, Note_off_c, 0, 67, 34
1, 72356, Control_c, 0, 64, 102
1, 72371, Control_c, 0, 64, 98
1, 72386, Control_c, 0, 64, 94
1, 72400, Control_c, 0, 64, 88
1, 72415, Control_c, 0, 64, 80
1, 72430, Control_c, 0, 64, 70
1, 72436, Note_on_c, 0, 55, 37
1, 72439, Note_on_c, 0, 72, 72
1, 72441, Note_on_c, 0, 67, 63
1, 72445, Control_c, 0, 64, 60
1, 72445, Note_on_c, 0, 51, 49
1, 72449, Note_on_c, 0, 63, 62
1, 72460, Control_c, 0, 64, 48
1, 72474, Control_c, 0, 64, 43
1, 72504, Control_c, 0, 64, 46
1, 72519, Control_c, 0, 64, 57
1, 72534, Control_c, 0, 64, 66
1, 72548, Control_c, 0, 64, 74
1, 72563, Control_c, 0, 64, 86
1, 72578, Control_c, 0, 64, 95
1, 72582, Note_off_c, 0, 63, 56
1, 72585, Note_off_c, 0, 51, 55
1, 72600, Control_c, 0, 64, 100
1, 72601, Note_off_c, 0, 55, 56
1, 72606, Note_off_c, 0, 67, 60
1, 72609, Note_off_c, 0, 72, 60
1, 72615, Control_c, 0, 64, 103
1, 72630, Control_c, 0, 64, 106
1, 72645, Control_c, 0, 64, 110
1, 72660, Control_c, 0, 64, 113
1, 72674, Control_c, 0, 64, 115
1, 72689, Control_c, 0, 64, 115
1, 72704, Control_c, 0, 64, 116
1, 73001, Control_c, 0, 64, 114
1, 73016, Control_c, 0, 64, 111
1, 73031, Note_on_c, 0, 77, 76
1, 73031, Control_c, 0, 64, 105
1, 73038, Note_on_c, 0, 67, 69
1, 73041, Note_on_c, 0, 59, 56
1, 73045, Note_on_c, 0, 55, 50
1, 73045, Control_c, 0, 64, 96
1, 73046, Note_on_c, 0, 50, 49
1, 73060, Control_c, 0, 64, 85
1, 73075, Control_c, 0, 64, 71
1, 73089, Control_c, 0, 64, 61
1, 73104, Control_c, 0, 64, 55
1, 73149, Control_c, 0, 64, 58
1, 73164, Control_c, 0, 64, 63
1, 73178, Control_c, 0, 64, 69
1, 73193, Control_c, 0, 64, 74
1, 73208, Control_c, 0, 64, 82
1, 73223, Control_c, 0, 64, 90
1, 73238, Control_c, 0, 64, 95
1, 73247, Note_off_c, 0, 59, 58
1, 73253, Control_c, 0, 64, 96
1, 73257, Note_off_c, 0, 50, 57
1, 73268, Control_c, 0, 64, 97
1, 73277, Note_off_c, 0, 55, 55
1, 73283, Control_c, 0, 64, 99
1, 73295, Note_off_c, 0, 67, 59
1, 73297, Control_c, 0, 64, 103
1, 73312, Control_c, 0, 64, 105
1, 73327, Control_c, 0, 64, 107
1, 73349, Control_c, 0, 64, 108
1, 73493, Note_on_c, 0, 48, 53
1, 73493, Note_on_c, 0, 60, 54
1, 73494, Note_on_c, 0, 75, 72
1, 73496, Note_on_c, 0, 55, 55
1, 73500, Note_on_c, 0, 67, 64
1, 73536, Note_off_c, 0, 60, 58
1, 73552, Note_off_c, 0, 67, 58
1, 73554, Note_off_c, 0, 48, 47
1, 73560, Note_off_c, 0, 77, 36
1, 73562, Note_off_c, 0, 55, 45
1, 73570, Note_off_c, 0, 75, 59
1, 73616, Control_c, 0, 64, 107
1, 73632, Control_c, 0, 64, 105
1, 73646, Control_c, 0, 64, 102
1, 73661, Control_c, 0, 64, 98
1, 73676, Control_c, 0, 64, 91
1, 73691, Control_c, 0, 64, 82
1, 73697, Note_on_c, 0, 67, 67
1, 73697, Note_on_c, 0, 74, 75
1, 73706, Control_c, 0, 64, 73
1, 73706, Note_on_c, 0, 59, 56
1, 73709, Note_on_c, 0, 55, 58
1, 73720, Control_c, 0, 64, 65
1, 73735, Control_c, 0, 64, 60
1, 73750, Control_c, 0, 64, 55
1, 73765, Control_c, 0, 64, 52
1, 73780, Control_c, 0, 64, 48
1, 73794, Control_c, 0, 64, 38
1, 73809, Control_c, 0, 64, 18
1, 73824, Control_c, 0, 64, 0
1, 74350, Control_c, 0, 64, 30
1, 74365, Control_c, 0, 64, 54
1, 74380, Control_c, 0, 64, 64
1, 74394, Control_c, 0, 64, 67
1, 74409, Control_c, 0, 64, 71
1, 74424, Control_c, 0, 64, 76
1, 74439, Control_c, 0, 64, 82
1, 74454, Control_c, 0, 64, 86
1, 74469, Control_c, 0, 64, 89
1, 74484, Control_c, 0, 64, 92
1, 74499, Control_c, 0, 64, 95
1, 74514, Control_c, 0, 64, 98
1, 74529, Control_c, 0, 64, 100
1, 74543, Control_c, 0, 64, 103
1, 74558, Control_c, 0, 64, 105
1, 74573, Control_c, 0, 64, 107
1, 74588, Control_c, 0, 64, 110
1, 74603, Control_c, 0, 64, 114
1, 74617, Control_c, 0, 64, 117
1, 74632, Control_c, 0, 64, 119
1, 74662, Control_c, 0, 64, 121
1, 74676, Control_c, 0, 64, 124
1, 74691, Control_c, 0, 64, 127
1, 74810, Note_off_c, 0, 59, 36
1, 74847, Note_off_c, 0, 55, 34
1, 74895, Note_off_c, 0, 67, 50
1, 74968, Note_off_c, 0, 74, 36
1, 75499, Control_c, 0, 64, 110
1, 75514, Control_c, 0, 64, 91
1, 75515, Note_on_c, 0, 74, 79
1, 75516, Note_on_c, 0, 65, 74
1, 75516, Note_on_c, 0, 70, 78
1, 75518, Note_on_c, 0, 46, 70
1, 75521, Note_on_c, 0, 34, 70
1, 75529, Control_c, 0, 64, 77
1, 75544, Control_c, 0, 64, 66
1, 75559, Control_c, 0, 64, 60
1, 75573, Control_c, 0, 64, 60
1, 75596, Control_c, 0, 64, 62
1, 75611, Control_c, 0, 64, 66
1, 75626, Control_c, 0, 64, 70
1, 75641, Control_c, 0, 64, 81
1, 75655, Control_c, 0, 64, 94
1, 75670, Control_c, 0, 64, 108
1, 75685, Control_c, 0, 64, 116
1, 75699, Control_c, 0, 64, 118
1, 75714, Control_c, 0, 64, 127
1, 75727, Note_off_c, 0, 46, 59
1, 75739, Note_off_c, 0, 65, 57
1, 75758, Note_off_c, 0, 74, 60
1, 75766, Note_off_c, 0, 34, 37
1, 75808, Note_off_c, 0, 70, 35
1, 75939, Note_on_c, 0, 34, 69
1, 75939, Note_on_c, 0, 46, 71
1, 75942, Note_on_c, 0, 75, 81
1, 75944, Note_on_c, 0, 67, 71
1, 75944, Note_on_c, 0, 70, 79
1, 75969, Note_off_c, 0, 67, 66
1, 75994, Note_off_c, 0, 46, 56
1, 75998, Note_off_c, 0, 70, 54
1, 76002, Note_off_c, 0, 34, 59
1, 76019, Note_off_c, 0, 75, 60
1, 76126, Note_on_c, 0, 70, 77
1, 76127, Note_on_c, 0, 77, 79
1, 76130, Control_c, 0, 64, 86
1, 76136, Note_on_c, 0, 68, 77
1, 76136, Note_on_c, 0, 34, 76
1, 76136, Note_on_c, 0, 46, 76
1, 76144, Control_c, 0, 64, 66
1, 76159, Control_c, 0, 64, 46
1, 76174, Control_c, 0, 64, 39
1, 76189, Control_c, 0, 64, 45
1, 76204, Control_c, 0, 64, 57
1, 76219, Control_c, 0, 64, 66
1, 76233, Control_c, 0, 64, 77
1, 76234, Note_off_c, 0, 46, 59
1, 76236, Note_off_c, 0, 34, 62
1, 76248, Note_off_c, 0, 68, 57
1, 76248, Control_c, 0, 64, 91
1, 76261, Note_off_c, 0, 77, 59
1, 76263, Control_c, 0, 64, 112
1, 76269, Note_off_c, 0, 70, 58
1, 76278, Control_c, 0, 64, 127
1, 76732, Note_on_c, 0, 46, 74
1, 76732, Note_on_c, 0, 77, 83
1, 76733, Note_on_c, 0, 70, 80
1, 76734, Note_on_c, 0, 34, 73
1, 76740, Note_on_c, 0, 68, 75
1, 76744, Control_c, 0, 64, 93
1, 76759, Control_c, 0, 64, 69
1, 76774, Control_c, 0, 64, 57
1, 76803, Control_c, 0, 64, 62
1, 76819, Control_c, 0, 64, 68
1, 76833, Note_off_c, 0, 46, 60
1, 76834, Control_c, 0, 64, 76
1, 76835, Note_off_c, 0, 34, 61
1, 76849, Control_c, 0, 64, 97
1, 76863, Control_c, 0, 64, 127
1, 76881, Note_off_c, 0, 77, 54
1, 76881, Note_off_c, 0, 68, 46
1, 76899, Note_off_c, 0, 70, 55
1, 77329, Note_on_c, 0, 46, 71
1, 77330, Note_on_c, 0, 77, 81
1, 77331, Control_c, 0, 64, 99
1, 77331, Note_on_c, 0, 34, 73
1, 77333, Note_on_c, 0, 68, 81
1, 77334, Note_on_c, 0, 70, 78
1, 77345, Control_c, 0, 64, 77
1, 77360, Control_c, 0, 64, 60
1, 77375, Control_c, 0, 64, 55
1, 77390, Control_c, 0, 64, 59
1, 77405, Control_c, 0, 64, 64
1, 77419, Control_c, 0, 64, 70
1, 77434, Control_c, 0, 64, 80
1, 77443, Note_off_c, 0, 34, 61
1, 77444, Note_off_c, 0, 46, 59
1, 77449, Control_c, 0, 64, 97
1, 77463, Control_c, 0, 64, 124
1, 77473, Note_off_c, 0, 77, 56
1, 77478, Control_c, 0, 64, 127
1, 77501, Note_off_c, 0, 70, 56
1, 77520, Note_off_c, 0, 68, 35
1, 77886, Control_c, 0, 64, 107
1, 77901, Control_c, 0, 64, 86
1, 77908, Note_on_c, 0, 34, 69
1, 77909, Note_on_c, 0, 46, 69
1, 77909, Note_on_c, 0, 67, 82
1, 77909, Note_on_c, 0, 75, 82
1, 77916, Note_on_c, 0, 70, 80
1, 77916, Control_c, 0, 64, 69
1, 77931, Control_c, 0, 64, 59
1, 77960, Control_c, 0, 64, 63
1, 77975, Control_c, 0, 64, 70
1, 77990, Control_c, 0, 64, 79
1, 78005, Control_c, 0, 64, 98
1, 78014, Note_off_c, 0, 34, 61
1, 78019, Control_c, 0, 64, 127
1, 78020, Note_off_c, 0, 67, 55
1, 78027, Note_off_c, 0, 46, 56
1, 78044, Note_off_c, 0, 70, 56
1, 78045, Note_off_c, 0, 75, 60
1, 78323, Note_on_c, 0, 65, 76
1, 78324, Note_on_c, 0, 74, 88
1, 78333, Note_on_c, 0, 46, 73
1, 78334, Note_on_c, 0, 34, 73
1, 78338, Note_on_c, 0, 70, 68
1, 78353, Note_off_c, 0, 65, 61
1, 78365, Note_off_c, 0, 70, 63
1, 78385, Note_off_c, 0, 34, 57
1, 78387, Note_off_c, 0, 74, 63
1, 78391, Note_off_c, 0, 46, 54
1, 78480, Control_c, 0, 64, 124
1, 78495, Control_c, 0, 64, 112
1, 78509, Control_c, 0, 64, 102
1, 78524, Control_c, 0, 64, 88
1, 78529, Note_on_c, 0, 70, 86
1, 78535, Note_on_c, 0, 79, 87
1, 78536, Note_on_c, 0, 34, 65
1, 78537, Note_on_c, 0, 46, 67
1, 78539, Control_c, 0, 64, 69
1, 78554, Control_c, 0, 64, 38
1, 78569, Control_c, 0, 64, 0
1, 78621, Control_c, 0, 64, 24
1, 78635, Control_c, 0, 64, 56
1, 78650, Control_c, 0, 64, 68
1, 78665, Control_c, 0, 64, 76
1, 78680, Control_c, 0, 64, 88
1, 78695, Control_c, 0, 64, 100
1, 78709, Control_c, 0, 64, 106
1, 78724, Control_c, 0, 64, 108
1, 78739, Control_c, 0, 64, 110
1, 78754, Control_c, 0, 64, 110
1, 78769, Control_c, 0, 64, 112
1, 78783, Control_c, 0, 64, 113
1, 78792, Note_off_c, 0, 34, 35
1, 78798, Control_c, 0, 64, 114
1, 78804, Note_off_c, 0, 46, 53
1, 78813, Control_c, 0, 64, 115
1, 78828, Control_c, 0, 64, 117
1, 78842, Control_c, 0, 64, 118
1, 78857, Control_c, 0, 64, 120
1, 79050, Control_c, 0, 64, 119
1, 79065, Control_c, 0, 64, 118
1, 79080, Control_c, 0, 64, 116
1, 79095, Control_c, 0, 64, 113
1, 79109, Control_c, 0, 64, 108
1, 79124, Control_c, 0, 64, 96
1, 79137, Note_on_c, 0, 36, 83
1, 79137, Note_on_c, 0, 48, 82
1, 79139, Control_c, 0, 64, 77
1, 79154, Control_c, 0, 64, 56
1, 79168, Control_c, 0, 64, 0
1, 79198, Control_c, 0, 64, 40
1, 79214, Control_c, 0, 64, 61
1, 79229, Control_c, 0, 64, 70
1, 79244, Control_c, 0, 64, 79
1, 79247, Note_off_c, 0, 79, 37
1, 79258, Control_c, 0, 64, 93
1, 79273, Control_c, 0, 64, 105
1, 79288, Control_c, 0, 64, 113
1, 79298, Note_off_c, 0, 36, 58
1, 79303, Control_c, 0, 64, 115
1, 79313, Note_off_c, 0, 48, 60
1, 79315, Note_off_c, 0, 70, 55
1, 79318, Control_c, 0, 64, 116
1, 79340, Control_c, 0, 64, 117
1, 79355, Control_c, 0, 64, 118
1, 79370, Control_c, 0, 64, 127
1, 79565, Note_on_c, 0, 77, 80
1, 79567, Note_on_c, 0, 38, 73
1, 79569, Note_on_c, 0, 50, 70
1, 79571, Note_on_c, 0, 70, 78
1, 79578, Note_on_c, 0, 68, 72
1, 79627, Note_off_c, 0, 50, 60
1, 79632, Note_off_c, 0, 38, 55
1, 79647, Note_off_c, 0, 70, 56
1, 79667, Note_off_c, 0, 77, 57
1, 79689, Note_off_c, 0, 68, 35
1, 79725, Control_c, 0, 64, 122
1, 79739, Control_c, 0, 64, 110
1, 79754, Control_c, 0, 64, 94
1, 79766, Note_on_c, 0, 67, 78
1, 79768, Note_on_c, 0, 75, 84
1, 79769, Note_on_c, 0, 70, 82
1, 79769, Control_c, 0, 64, 74
1, 79772, Note_on_c, 0, 51, 74
1, 79778, Note_on_c, 0, 39, 68
1, 79784, Control_c, 0, 64, 52
1, 79799, Control_c, 0, 64, 0
1, 79814, Control_c, 0, 64, 20
1, 79829, Control_c, 0, 64, 46
1, 79844, Control_c, 0, 64, 62
1, 79858, Control_c, 0, 64, 71
1, 79873, Control_c, 0, 64, 80
1, 79888, Control_c, 0, 64, 94
1, 79896, Note_off_c, 0, 67, 51
1, 79900, Note_off_c, 0, 39, 62
1, 79903, Control_c, 0, 64, 110
1, 79909, Note_off_c, 0, 75, 59
1, 79913, Note_off_c, 0, 51, 56
1, 79918, Control_c, 0, 64, 127
1, 79927, Note_off_c, 0, 70, 57
1, 80370, Control_c, 0, 64, 121
1, 80380, Note_on_c, 0, 41, 67
1, 80380, Note_on_c, 0, 74, 83
1, 80380, Note_on_c, 0, 68, 79
1, 80382, Note_on_c, 0, 53, 70
1, 80383, Note_on_c, 0, 65, 72
1, 80386, Control_c, 0, 64, 102
1, 80401, Control_c, 0, 64, 86
1, 80415, Control_c, 0, 64, 70
1, 80430, Control_c, 0, 64, 54
1, 80445, Control_c, 0, 64, 46
1, 80475, Control_c, 0, 64, 51
1, 80489, Control_c, 0, 64, 60
1, 80504, Control_c, 0, 64, 66
1, 80519, Control_c, 0, 64, 72
1, 80534, Control_c, 0, 64, 82
1, 80549, Control_c, 0, 64, 91
1, 80563, Control_c, 0, 64, 97
1, 80578, Control_c, 0, 64, 100
1, 80592, Note_off_c, 0, 74, 53
1, 80593, Control_c, 0, 64, 104
1, 80600, Note_off_c, 0, 41, 55
1, 80602, Note_off_c, 0, 65, 56
1, 80607, Control_c, 0, 64, 107
1, 80608, Note_off_c, 0, 53, 55
1, 80622, Control_c, 0, 64, 115
1, 80637, Control_c, 0, 64, 127
1, 80656, Note_off_c, 0, 68, 57
1, 80797, Note_on_c, 0, 41, 59
1, 80798, Note_on_c, 0, 68, 69
1, 80800, Note_on_c, 0, 72, 72
1, 80803, Note_on_c, 0, 53, 61
1, 80808, Note_on_c, 0, 63, 71
1, 80866, Note_off_c, 0, 41, 57
1, 80878, Note_off_c, 0, 53, 53
1, 80883, Note_off_c, 0, 68, 57
1, 80902, Note_off_c, 0, 63, 56
1, 81001, Control_c, 0, 64, 119
1, 81013, Note_on_c, 0, 67, 66
1, 81016, Control_c, 0, 64, 102
1, 81017, Note_on_c, 0, 71, 78
1, 81022, Note_on_c, 0, 62, 74
1, 81027, Note_on_c, 0, 43, 65
1, 81031, Control_c, 0, 64, 84
1, 81032, Note_on_c, 0, 55, 62
1, 81037, Note_off_c, 0, 72, 29
1, 81045, Control_c, 0, 64, 63
1, 81060, Control_c, 0, 64, 23
1, 81075, Control_c, 0, 64, 0
1, 81135, Control_c, 0, 64, 46
1, 81149, Control_c, 0, 64, 65
1, 81164, Control_c, 0, 64, 72
1, 81179, Control_c, 0, 64, 81
1, 81194, Control_c, 0, 64, 91
1, 81209, Control_c, 0, 64, 101
1, 81224, Control_c, 0, 64, 108
1, 81228, Note_off_c, 0, 55, 54
1, 81238, Control_c, 0, 64, 111
1, 81241, Note_off_c, 0, 62, 52
1, 81248, Note_off_c, 0, 71, 57
1, 81253, Control_c, 0, 64, 117
1, 81268, Control_c, 0, 64, 127
1, 81289, Note_off_c, 0, 67, 57
1, 81601, Control_c, 0, 64, 118
1, 81617, Control_c, 0, 64, 107
1, 81632, Control_c, 0, 64, 91
1, 81638, Note_on_c, 0, 67, 64
1, 81639, Note_on_c, 0, 69, 70
1, 81640, Note_on_c, 0, 55, 62
1, 81640, Note_on_c, 0, 60, 62
1, 81647, Control_c, 0, 64, 77
1, 81661, Control_c, 0, 64, 70
1, 81676, Control_c, 0, 64, 72
1, 81691, Control_c, 0, 64, 80
1, 81706, Control_c, 0, 64, 92
1, 81721, Control_c, 0, 64, 105
1, 81735, Control_c, 0, 64, 108
1, 81750, Control_c, 0, 64, 109
1, 81752, Note_off_c, 0, 43, 37
1, 81765, Control_c, 0, 64, 111
1, 81780, Control_c, 0, 64, 112
1, 81782, Note_off_c, 0, 60, 52
1, 81809, Control_c, 0, 64, 112
1, 81811, Note_off_c, 0, 55, 46
1, 81824, Control_c, 0, 64, 113
1, 81835, Note_off_c, 0, 69, 59
1, 81848, Note_off_c, 0, 67, 45
1, 81854, Control_c, 0, 64, 114
1, 81898, Control_c, 0, 64, 114
1, 81913, Control_c, 0, 64, 115
1, 81927, Control_c, 0, 64, 115
1, 81942, Control_c, 0, 64, 116
1, 82044, Note_on_c, 0, 53, 69
1, 82046, Note_on_c, 0, 62, 68
1, 82047, Note_on_c, 0, 71, 67
1, 82050, Note_on_c, 0, 67, 70
1, 82053, Note_on_c, 0, 55, 62
1, 82086, Note_off_c, 0, 62, 55
1, 82100, Note_off_c, 0, 71, 60
1, 82121, Note_off_c, 0, 55, 37
1, 82127, Note_off_c, 0, 67, 56
1, 82151, Note_off_c, 0, 53, 36
1, 82223, Control_c, 0, 64, 110
1, 82238, Control_c, 0, 64, 91
1, 82245, Note_on_c, 0, 72, 83
1, 82246, Note_on_c, 0, 67, 75
1, 82249, Note_on_c, 0, 55, 69
1, 82252, Note_on_c, 0, 51, 68
1, 82252, Control_c, 0, 64, 69
1, 82255, Note_on_c, 0, 63, 73
1, 82267, Control_c, 0, 64, 59
1, 82282, Control_c, 0, 64, 63
1, 82297, Control_c, 0, 64, 69
1, 82312, Control_c, 0, 64, 79
1, 82334, Control_c, 0, 64, 99
1, 82336, Note_off_c, 0, 55, 58
1, 82349, Control_c, 0, 64, 127
1, 82366, Note_off_c, 0, 63, 53
1, 82371, Note_off_c, 0, 51, 57
1, 82383, Note_off_c, 0, 72, 59
1, 82438, Note_off_c, 0, 67, 56
1, 82893, Note_on_c, 0, 43, 74
1, 82895, Note_on_c, 0, 31, 79
1, 82896, Note_on_c, 0, 75, 84
1, 82899, Note_on_c, 0, 67, 85
1, 82912, Control_c, 0, 64, 122
1, 82926, Control_c, 0, 64, 83
1, 82941, Control_c, 0, 64, 62
1, 82956, Control_c, 0, 64, 47
1, 82971, Control_c, 0, 64, 49
1, 82986, Control_c, 0, 64, 58
1, 83001, Control_c, 0, 64, 65
1, 83015, Control_c, 0, 64, 73
1, 83030, Control_c, 0, 64, 87
1, 83045, Control_c, 0, 64, 111
1, 83060, Control_c, 0, 64, 127
1, 83117, Note_off_c, 0, 31, 54
1, 83123, Note_off_c, 0, 43, 53
1, 83167, Note_off_c, 0, 67, 50
1, 83168, Note_off_c, 0, 75, 48
1, 83321, Note_on_c, 0, 31, 70
1, 83326, Note_on_c, 0, 43, 64
1, 83332, Note_on_c, 0, 74, 82
1, 83336, Note_on_c, 0, 65, 77
1, 83337, Note_on_c, 0, 67, 81
1, 83376, Note_off_c, 0, 65, 54
1, 83397, Note_off_c, 0, 31, 60
1, 83406, Note_off_c, 0, 43, 58
1, 83419, Note_off_c, 0, 67, 56
1, 83428, Note_off_c, 0, 74, 57
1, 83545, Note_on_c, 0, 67, 49
1, 83550, Note_on_c, 0, 43, 84
1, 83552, Note_on_c, 0, 36, 83
1, 83553, Note_on_c, 0, 72, 85
1, 83556, Note_on_c, 0, 63, 83
1, 83558, Control_c, 0, 64, 91
1, 83573, Control_c, 0, 64, 62
1, 83588, Control_c, 0, 64, 0
1, 84100, Control_c, 0, 64, 39
1, 84115, Control_c, 0, 64, 43
1, 84128, Control_c, 0, 64, 38
1, 84143, Control_c, 0, 64, 36
1, 84158, Control_c, 0, 64, 38
1, 84172, Control_c, 0, 64, 40
1, 84187, Control_c, 0, 64, 41
1, 84217, Control_c, 0, 64, 41
1, 84247, Control_c, 0, 64, 41
1, 84336, Control_c, 0, 64, 40
1, 84351, Control_c, 0, 64, 40
1, 84366, Control_c, 0, 64, 38
1, 84380, Control_c, 0, 64, 38
1, 84395, Control_c, 0, 64, 37
1, 84528, Control_c, 0, 64, 38
1, 84543, Control_c, 0, 64, 40
1, 84558, Control_c, 0, 64, 45
1, 84580, Control_c, 0, 64, 51
1, 84595, Control_c, 0, 64, 56
1, 84610, Control_c, 0, 64, 59
1, 84625, Control_c, 0, 64, 63
1, 84640, Control_c, 0, 64, 66
1, 84654, Control_c, 0, 64, 70
1, 84669, Control_c, 0, 64, 77
1, 84684, Control_c, 0, 64, 87
1, 84699, Control_c, 0, 64, 103
1, 84713, Control_c, 0, 64, 127
1, 84715, Note_off_c, 0, 43, 58
1, 84734, Note_off_c, 0, 36, 59
1, 84738, Note_off_c, 0, 63, 55
1, 84758, Note_off_c, 0, 67, 53
1, 84761, Note_off_c, 0, 72, 49
1, 85277, Control_c, 0, 64, 121
1, 85292, Control_c, 0, 64, 99
1, 85298, Note_on_c, 0, 75, 76
1, 85307, Control_c, 0, 64, 80
1, 85329, Control_c, 0, 64, 61
1, 85344, Control_c, 0, 64, 38
1, 85358, Control_c, 0, 64, 0
1, 85751, Note_on_c, 0, 74, 77
1, 85964, Note_off_c, 0, 75, 37
1, 85971, Note_on_c, 0, 72, 84
1, 85974, Note_on_c, 0, 68, 85
1, 85975, Note_on_c, 0, 63, 82
1, 85976, Note_on_c, 0, 51, 76
1, 85976, Note_on_c, 0, 56, 78
1, 85977, Note_on_c, 0, 44, 75
1, 86008, Note_off_c, 0, 74, 59
1, 87108, Control_c, 0, 64, 38
1, 87123, Control_c, 0, 64, 59
1, 87138, Control_c, 0, 64, 67
1, 87153, Control_c, 0, 64, 74
1, 87168, Control_c, 0, 64, 89
1, 87174, Note_off_c, 0, 63, 59
1, 87183, Control_c, 0, 64, 106
1, 87196, Note_off_c, 0, 68, 54
1, 87198, Control_c, 0, 64, 127
1, 87213, Note_off_c, 0, 72, 61
1, 87224, Note_off_c, 0, 56, 59
1, 87225, Note_off_c, 0, 44, 60
1, 87243, Note_off_c, 0, 51, 55
1, 87591, Control_c, 0, 64, 118
1, 87604, Note_on_c, 0, 72, 59
1, 87606, Control_c, 0, 64, 112
1, 87621, Control_c, 0, 64, 106
1, 87636, Control_c, 0, 64, 101
1, 87651, Control_c, 0, 64, 95
1, 87666, Control_c, 0, 64, 90
1, 87680, Control_c, 0, 64, 84
1, 87695, Control_c, 0, 64, 78
1, 87710, Control_c, 0, 64, 68
1, 87716, Note_on_c, 0, 75, 78
1, 87724, Control_c, 0, 64, 58
1, 87739, Control_c, 0, 64, 49
1, 87754, Control_c, 0, 64, 38
1, 87761, Note_off_c, 0, 72, 51
1, 87769, Control_c, 0, 64, 27
1, 87784, Control_c, 0, 64, 0
1, 88159, Note_on_c, 0, 74, 80
1, 88193, Note_off_c, 0, 75, 59
1, 88354, Note_on_c, 0, 72, 88
1, 88357, Note_on_c, 0, 39, 75
1, 88357, Note_on_c, 0, 48, 78
1, 88358, Note_on_c, 0, 51, 76
1, 88360, Note_on_c, 0, 67, 78
1, 88399, Note_off_c, 0, 74, 52
1, 88933, Control_c, 0, 64, 31
1, 88947, Control_c, 0, 64, 40
1, 88962, Control_c, 0, 64, 54
1, 88977, Control_c, 0, 64, 62
1, 88992, Control_c, 0, 64, 65
1, 89007, Control_c, 0, 64, 67
1, 89022, Control_c, 0, 64, 69
1, 89036, Control_c, 0, 64, 72
1, 89051, Control_c, 0, 64, 76
1, 89073, Control_c, 0, 64, 78
1, 89088, Control_c, 0, 64, 80
1, 89102, Control_c, 0, 64, 81
1, 89132, Control_c, 0, 64, 81
1, 89147, Control_c, 0, 64, 82
1, 89162, Control_c, 0, 64, 85
1, 89177, Control_c, 0, 64, 88
1, 89192, Control_c, 0, 64, 91
1, 89207, Control_c, 0, 64, 94
1, 89222, Control_c, 0, 64, 95
1, 89237, Control_c, 0, 64, 98
1, 89251, Control_c, 0, 64, 103
1, 89266, Control_c, 0, 64, 110
1, 89281, Control_c, 0, 64, 123
1, 89295, Control_c, 0, 64, 127
1, 89347, Poly_aftertouch_c, 0, 75, 127
1, 89368, Note_off_c, 0, 39, 35
1, 89414, Note_off_c, 0, 48, 58
1, 89428, Note_off_c, 0, 67, 57
1, 89447, Note_off_c, 0, 51, 48
1, 89474, Note_off_c, 0, 72, 60
1, 89481, Poly_aftertouch_c, 0, 75, 0
1, 90018, Note_on_c, 0, 74, 86
1, 90021, Note_on_c, 0, 60, 74
1, 90021, Note_on_c, 0, 48, 74
1, 90030, Control_c, 0, 64, 105
1, 90044, Control_c, 0, 64, 82
1, 90059, Control_c, 0, 64, 65
1, 90074, Control_c, 0, 64, 57
1, 90089, Control_c, 0, 64, 58
1, 90104, Control_c, 0, 64, 63
1, 90119, Control_c, 0, 64, 67
1, 90134, Control_c, 0, 64, 76
1, 90149, Control_c, 0, 64, 89
1, 90164, Control_c, 0, 64, 108
1, 90179, Control_c, 0, 64, 127
1, 90187, Note_off_c, 0, 60, 58
1, 90265, Note_off_c, 0, 48, 54
1, 90433, Note_on_c, 0, 75, 85
1, 90462, Note_off_c, 0, 74, 59
1, 90602, Control_c, 0, 64, 108
1, 90617, Note_on_c, 0, 53, 74
1, 90617, Control_c, 0, 64, 88
1, 90621, Note_on_c, 0, 77, 83
1, 90622, Note_on_c, 0, 41, 75
1, 90626, Note_on_c, 0, 72, 83
1, 90631, Control_c, 0, 64, 69
1, 90632, Note_on_c, 0, 68, 76
1, 90638, Note_off_c, 0, 75, 34
1, 90646, Control_c, 0, 64, 49
1, 90661, Control_c, 0, 64, 35
1, 90675, Control_c, 0, 64, 35
1, 90690, Control_c, 0, 64, 44
1, 90705, Control_c, 0, 64, 57
1, 90720, Control_c, 0, 64, 67
1, 90735, Control_c, 0, 64, 75
1, 90749, Control_c, 0, 64, 89
1, 90764, Control_c, 0, 64, 104
1, 90766, Note_off_c, 0, 41, 60
1, 90776, Note_off_c, 0, 77, 56
1, 90779, Control_c, 0, 64, 117
1, 90788, Note_off_c, 0, 53, 57
1, 90794, Control_c, 0, 64, 127
1, 90820, Note_off_c, 0, 72, 54
1, 90861, Note_off_c, 0, 68, 35
1, 91149, Control_c, 0, 64, 116
1, 91164, Control_c, 0, 64, 96
1, 91178, Note_on_c, 0, 43, 76
1, 91179, Control_c, 0, 64, 76
1, 91181, Note_on_c, 0, 55, 75
1, 91184, Note_on_c, 0, 67, 78
1, 91186, Note_on_c, 0, 72, 76
1, 91190, Note_on_c, 0, 75, 75
1, 91195, Control_c, 0, 64, 60
1, 91210, Control_c, 0, 64, 49
1, 91225, Control_c, 0, 64, 51
1, 91239, Control_c, 0, 64, 58
1, 91254, Control_c, 0, 64, 66
1, 91269, Control_c, 0, 64, 73
1, 91283, Note_off_c, 0, 55, 61
1, 91284, Control_c, 0, 64, 83
1, 91293, Note_off_c, 0, 43, 57
1, 91298, Control_c, 0, 64, 95
1, 91320, Note_off_c, 0, 75, 61
1, 91320, Control_c, 0, 64, 101
1, 91335, Control_c, 0, 64, 101
1, 91336, Note_off_c, 0, 72, 60
1, 91344, Note_off_c, 0, 67, 54
1, 91365, Control_c, 0, 64, 102
1, 91439, Control_c, 0, 64, 102
1, 91583, Note_on_c, 0, 56, 79
1, 91587, Note_on_c, 0, 44, 74
1, 91592, Note_on_c, 0, 65, 75
1, 91592, Note_on_c, 0, 74, 90
1, 91649, Note_off_c, 0, 65, 60
1, 91661, Control_c, 0, 64, 102
1, 91663, Note_off_c, 0, 56, 59
1, 91675, Note_off_c, 0, 44, 54
1, 91720, Control_c, 0, 64, 101
1, 91735, Control_c, 0, 64, 100
1, 91750, Control_c, 0, 64, 94
1, 91764, Control_c, 0, 64, 76
1, 91776, Note_on_c, 0, 72, 82
1, 91779, Control_c, 0, 64, 58
1, 91782, Note_on_c, 0, 63, 87
1, 91786, Note_on_c, 0, 55, 83
1, 91790, Note_on_c, 0, 43, 85
1, 91794, Control_c, 0, 64, 33
1, 91809, Control_c, 0, 64, 35
1, 91816, Note_off_c, 0, 74, 30
1, 91824, Control_c, 0, 64, 48
1, 91839, Control_c, 0, 64, 61
1, 91854, Control_c, 0, 64, 71
1, 91869, Control_c, 0, 64, 84
1, 91877, Note_off_c, 0, 55, 61
1, 91883, Control_c, 0, 64, 102
1, 91898, Control_c, 0, 64, 127
1, 91902, Note_off_c, 0, 43, 57
1, 91938, Note_off_c, 0, 63, 58
1, 91950, Note_off_c, 0, 72, 59
1, 92033, Control_c, 0, 64, 115
1, 92048, Control_c, 0, 64, 89
1, 92069, Control_c, 0, 64, 64
1, 92084, Control_c, 0, 64, 18
1, 92099, Control_c, 0, 64, 0
1, 92373, Note_on_c, 0, 31, 83
1, 92373, Note_on_c, 0, 43, 84
1, 92373, Note_on_c, 0, 62, 85
1, 92373, Note_on_c, 0, 67, 85
1, 92373, Note_on_c, 0, 71, 87
1, 92380, Control_c, 0, 64, 51
1, 92394, Control_c, 0, 64, 64
1, 92409, Control_c, 0, 64, 70
1, 92424, Control_c, 0, 64, 77
1, 92438, Control_c, 0, 64, 88
1, 92453, Control_c, 0, 64, 101
1, 92468, Control_c, 0, 64, 118
1, 92483, Control_c, 0, 64, 127
1, 92506, Note_off_c, 0, 31, 62
1, 92506, Note_off_c, 0, 43, 60
1, 92538, Note_off_c, 0, 62, 55
1, 92591, Note_off_c, 0, 71, 56
1, 92614, Note_off_c, 0, 67, 52
1, 92661, Control_c, 0, 64, 121
1, 92676, Control_c, 0, 64, 98
1, 92691, Control_c, 0, 64, 77
1, 92705, Control_c, 0, 64, 57
1, 92720, Control_c, 0, 64, 0
1, 93011, Note_on_c, 0, 67, 87
1, 93011, Note_on_c, 0, 72, 84
1, 93012, Note_on_c, 0, 63, 89
1, 93014, Note_on_c, 0, 43, 80
1, 93016, Note_on_c, 0, 48, 88
1, 93021, Note_on_c, 0, 36, 84
1, 94218, Control_c, 0, 64, 20
1, 94233, Control_c, 0, 64, 47
1, 94248, Control_c, 0, 64, 61
1, 94263, Control_c, 0, 64, 68
1, 94278, Control_c, 0, 64, 73
1, 94292, Control_c, 0, 64, 81
1, 94302, Note_off_c, 0, 48, 60
1, 94315, Control_c, 0, 64, 90
1, 94318, Note_off_c, 0, 63, 55
1, 94326, Note_off_c, 0, 36, 59
1, 94330, Control_c, 0, 64, 96
1, 94337, Poly_aftertouch_c, 0, 70, 127
1, 94345, Control_c, 0, 64, 101
1, 94346, Note_off_c, 0, 67, 54
1, 94354, Note_off_c, 0, 43, 60
1, 94360, Control_c, 0, 64, 105
1, 94374, Control_c, 0, 64, 108
1, 94385, Note_off_c, 0, 72, 32
1, 94390, Control_c, 0, 64, 110
1, 94395, Poly_aftertouch_c, 0, 70, 0
1, 94405, Control_c, 0, 64, 110
1, 94420, Control_c, 0, 64, 111
1, 94434, Control_c, 0, 64, 113
1, 94449, Control_c, 0, 64, 115
1, 94464, Control_c, 0, 64, 115
1, 94627, Control_c, 0, 64, 114
1, 94641, Control_c, 0, 64, 113
1, 94656, Control_c, 0, 64, 112
1, 94671, Control_c, 0, 64, 111
1, 94686, Control_c, 0, 64, 109
1, 94701, Control_c, 0, 64, 108
1, 94716, Control_c, 0, 64, 106
1, 94730, Control_c, 0, 64, 104
1, 94745, Control_c, 0, 64, 102
1, 94760, Control_c, 0, 64, 99
1, 94775, Control_c, 0, 64, 95
1, 94790, Control_c, 0, 64, 91
1, 94805, Control_c, 0, 64, 85
1, 94820, Control_c, 0, 64, 76
1, 94834, Control_c, 0, 64, 66
1, 94844, Note_on_c, 0, 75, 54
1, 94849, Control_c, 0, 64, 59
1, 94864, Control_c, 0, 64, 51
1, 94879, Control_c, 0, 64, 45
1, 94894, Control_c, 0, 64, 38
1, 94908, Control_c, 0, 64, 25
1, 94923, Control_c, 0, 64, 0
1, 95303, Note_on_c, 0, 74, 53
1, 95475, Note_off_c, 0, 75, 33
1, 95519, Note_on_c, 0, 51, 37
1, 95520, Note_on_c, 0, 68, 46
1, 95522, Note_on_c, 0, 63, 38
1, 95523, Note_on_c, 0, 72, 49
1, 95527, Note_on_c, 0, 44, 37
1, 95542, Note_on_c, 0, 56, 19
1, 95605, Note_off_c, 0, 74, 40
1, 96694, Control_c, 0, 64, 37
1, 96709, Control_c, 0, 64, 53
1, 96724, Control_c, 0, 64, 62
1, 96739, Control_c, 0, 64, 68
1, 96754, Control_c, 0, 64, 73
1, 96768, Control_c, 0, 64, 83
1, 96784, Control_c, 0, 64, 93
1, 96799, Control_c, 0, 64, 100
1, 96803, Note_off_c, 0, 63, 41
1, 96814, Control_c, 0, 64, 104
1, 96829, Note_off_c, 0, 68, 47
1, 96829, Control_c, 0, 64, 105
1, 96838, Note_off_c, 0, 72, 51
1, 96843, Control_c, 0, 64, 106
1, 96855, Note_off_c, 0, 44, 41
1, 96858, Control_c, 0, 64, 107
1, 96873, Control_c, 0, 64, 108
1, 96874, Note_off_c, 0, 56, 41
1, 96888, Control_c, 0, 64, 110
1, 96903, Control_c, 0, 64, 111
1, 96905, Note_off_c, 0, 51, 35
1, 96917, Control_c, 0, 64, 111
1, 97095, Control_c, 0, 64, 111
1, 97109, Control_c, 0, 64, 110
1, 97124, Control_c, 0, 64, 109
1, 97139, Control_c, 0, 64, 108
1, 97154, Control_c, 0, 64, 106
1, 97169, Control_c, 0, 64, 103
1, 97184, Control_c, 0, 64, 101
1, 97199, Control_c, 0, 64, 97
1, 97214, Control_c, 0, 64, 93
1, 97228, Control_c, 0, 64, 88
1, 97243, Control_c, 0, 64, 83
1, 97258, Control_c, 0, 64, 75
1, 97273, Control_c, 0, 64, 67
1, 97276, Note_on_c, 0, 75, 47
1, 97288, Control_c, 0, 64, 61
1, 97309, Control_c, 0, 64, 57
1, 97324, Control_c, 0, 64, 55
1, 97339, Control_c, 0, 64, 52
1, 97354, Control_c, 0, 64, 48
1, 97369, Control_c, 0, 64, 42
1, 97383, Control_c, 0, 64, 35
1, 97398, Control_c, 0, 64, 29
1, 97413, Control_c, 0, 64, 25
1, 97428, Control_c, 0, 64, 22
1, 97443, Control_c, 0, 64, 20
1, 97458, Control_c, 0, 64, 19
1, 97473, Control_c, 0, 64, 18
1, 97720, Note_on_c, 0, 74, 51
1, 97823, Note_off_c, 0, 75, 33
1, 97919, Note_on_c, 0, 72, 53
1, 97926, Note_off_c, 0, 74, 35
1, 97942, Note_on_c, 0, 67, 46
1, 97943, Note_on_c, 0, 39, 36
1, 97943, Note_on_c, 0, 51, 31
1, 97949, Note_on_c, 0, 48, 40
1, 98414, Control_c, 0, 64, 18
1, 98459, Control_c, 0, 64, 17
1, 98473, Control_c, 0, 64, 16
1, 98488, Control_c, 0, 64, 16
1, 98562, Control_c, 0, 64, 0
1, 99029, Control_c, 0, 64, 41
1, 99044, Control_c, 0, 64, 57
1, 99059, Control_c, 0, 64, 64
1, 99074, Control_c, 0, 64, 67
1, 99088, Control_c, 0, 64, 70
1, 99103, Control_c, 0, 64, 76
1, 99103, Control_c, 0, 67, 16
1, 99118, Control_c, 0, 64, 85
1, 99118, Control_c, 0, 67, 17
1, 99132, Control_c, 0, 64, 92
1, 99132, Control_c, 0, 67, 18
1, 99136, Note_off_c, 0, 39, 0
1, 99147, Control_c, 0, 64, 98
1, 99147, Control_c, 0, 67, 20
1, 99160, Note_off_c, 0, 67, 49
1, 99162, Control_c, 0, 64, 101
1, 99162, Control_c, 0, 67, 23
1, 99176, Poly_aftertouch_c, 0, 39, 0
1, 99178, Control_c, 0, 64, 104
1, 99178, Control_c, 0, 67, 28
1, 99193, Control_c, 0, 64, 106
1, 99193, Control_c, 0, 67, 32
1, 99208, Control_c, 0, 64, 107
1, 99208, Control_c, 0, 67, 37
1, 99211, Note_off_c, 0, 48, 51
1, 99211, Note_off_c, 0, 51, 41
1, 99222, Control_c, 0, 64, 108
1, 99222, Control_c, 0, 67, 41
1, 99237, Control_c, 0, 67, 45
1, 99239, Note_off_c, 0, 72, 35
1, 99252, Control_c, 0, 67, 49
1, 99267, Control_c, 0, 67, 53
1, 99282, Control_c, 0, 67, 57
1, 99296, Control_c, 0, 67, 61
1, 99311, Control_c, 0, 67, 64
1, 99326, Control_c, 0, 67, 66
1, 99341, Control_c, 0, 67, 68
1, 99356, Control_c, 0, 67, 70
1, 99371, Control_c, 0, 67, 70
1, 99385, Control_c, 0, 67, 71
1, 99400, Control_c, 0, 67, 71
1, 99415, Control_c, 0, 64, 107
1, 99429, Control_c, 0, 64, 106
1, 99444, Control_c, 0, 64, 104
1, 99459, Control_c, 0, 64, 102
1, 99474, Control_c, 0, 64, 100
1, 99489, Control_c, 0, 64, 97
1, 99503, Control_c, 0, 64, 95
1, 99518, Control_c, 0, 64, 92
1, 99533, Control_c, 0, 64, 89
1, 99555, Control_c, 0, 64, 87
1, 99570, Control_c, 0, 64, 85
1, 99585, Control_c, 0, 64, 82
1, 99600, Control_c, 0, 64, 79
1, 99615, Control_c, 0, 64, 76
1, 99629, Control_c, 0, 64, 71
1, 99644, Control_c, 0, 64, 68
1, 99659, Control_c, 0, 64, 65
1, 99672, Note_on_c, 0, 73, 56
1, 99674, Control_c, 0, 64, 62
1, 99689, Control_c, 0, 64, 60
1, 99703, Control_c, 0, 64, 57
1, 99718, Control_c, 0, 64, 54
1, 99733, Control_c, 0, 64, 50
1, 99748, Control_c, 0, 64, 48
1, 99762, Control_c, 0, 64, 45
1, 99777, Control_c, 0, 64, 44
1, 99792, Control_c, 0, 64, 42
1, 99807, Control_c, 0, 64, 39
1, 99822, Control_c, 0, 64, 37
1, 99822, Control_c, 0, 67, 71
1, 99837, Control_c, 0, 64, 35
1, 99852, Control_c, 0, 64, 34
1, 99867, Control_c, 0, 64, 32
1, 99882, Control_c, 0, 64, 31
1, 99882, Control_c, 0, 67, 70
1, 99897, Control_c, 0, 64, 30
1, 99911, Control_c, 0, 64, 29
1, 99926, Control_c, 0, 64, 29
1, 99941, Control_c, 0, 64, 28
1, 99941, Control_c, 0, 67, 70
1, 99956, Control_c, 0, 64, 27
1, 99986, Control_c, 0, 64, 27
1, 100001, Control_c, 0, 64, 26
1, 100016, Control_c, 0, 64, 26
1, 100031, Control_c, 0, 64, 25
1, 100045, Control_c, 0, 64, 25
1, 100045, Control_c, 0, 67, 69
1, 100060, Control_c, 0, 64, 24
1, 100090, Control_c, 0, 64, 24
1, 100090, Control_c, 0, 67, 69
1, 100105, Control_c, 0, 64, 23
1, 100120, Control_c, 0, 64, 23
1, 100123, Note_on_c, 0, 75, 53
1, 100132, Note_off_c, 0, 73, 52
1, 100135, Control_c, 0, 64, 22
1, 100135, Control_c, 0, 67, 68
1, 100150, Control_c, 0, 64, 22
1, 100165, Control_c, 0, 64, 21
1, 100179, Control_c, 0, 64, 20
1, 100194, Control_c, 0, 64, 19
1, 100209, Control_c, 0, 64, 19
1, 100224, Control_c, 0, 64, 18
1, 100224, Control_c, 0, 67, 68
1, 100239, Control_c, 0, 64, 18
1, 100253, Control_c, 0, 64, 17
1, 100268, Control_c, 0, 64, 16
1, 100283, Control_c, 0, 67, 67
1, 100305, Control_c, 0, 64, 16
1, 100346, Note_off_c, 0, 75, 53
1, 100364, Control_c, 0, 67, 67
1, 100373, Note_on_c, 0, 73, 49
1, 100376, Note_on_c, 0, 49, 37
1, 100388, Note_on_c, 0, 68, 40
1, 100468, Control_c, 0, 64, 0
1, 100470, Note_on_c, 0, 75, 58
1, 100524, Note_on_c, 0, 77, 62
1, 100551, Note_off_c, 0, 75, 54
1, 100554, Note_off_c, 0, 68, 43
1, 100555, Note_off_c, 0, 73, 53
1, 100601, Control_c, 0, 64, 30
1, 100616, Control_c, 0, 64, 51
1, 100631, Control_c, 0, 64, 62
1, 100631, Control_c, 0, 67, 66
1, 100646, Control_c, 0, 64, 66
1, 100646, Control_c, 0, 67, 66
1, 100660, Control_c, 0, 64, 66
1, 100675, Control_c, 0, 64, 67
1, 100675, Control_c, 0, 67, 65
1, 100690, Control_c, 0, 64, 68
1, 100690, Control_c, 0, 67, 65
1, 100704, Control_c, 0, 64, 70
1, 100704, Control_c, 0, 67, 64
1, 100719, Control_c, 0, 64, 72
1, 100734, Control_c, 0, 64, 74
1, 100734, Control_c, 0, 67, 64
1, 100749, Control_c, 0, 64, 75
1, 100764, Control_c, 0, 64, 76
1, 100764, Control_c, 0, 67, 63
1, 100795, Control_c, 0, 64, 77
1, 100883, Control_c, 0, 64, 76
1, 100898, Control_c, 0, 64, 76
1, 100913, Control_c, 0, 64, 72
1, 100916, Note_on_c, 0, 51, 39
1, 100916, Note_off_c, 0, 49, 36
1, 100927, Note_on_c, 0, 75, 55
1, 100928, Control_c, 0, 64, 66
1, 100930, Note_off_c, 0, 77, 34
1, 100941, Note_on_c, 0, 68, 49
1, 100943, Control_c, 0, 64, 57
1, 100958, Control_c, 0, 64, 43
1, 100972, Control_c, 0, 64, 40
1, 101002, Control_c, 0, 64, 42
1, 101017, Control_c, 0, 64, 49
1, 101032, Control_c, 0, 64, 58
1, 101054, Control_c, 0, 64, 65
1, 101068, Note_off_c, 0, 68, 42
1, 101069, Control_c, 0, 64, 68
1, 101083, Control_c, 0, 64, 71
1, 101083, Control_c, 0, 67, 64
1, 101098, Control_c, 0, 64, 74
1, 101113, Control_c, 0, 64, 75
1, 101127, Control_c, 0, 64, 77
1, 101142, Control_c, 0, 64, 77
1, 101157, Control_c, 0, 64, 78
1, 101187, Control_c, 0, 64, 78
1, 101202, Control_c, 0, 67, 63
1, 101232, Control_c, 0, 64, 79
1, 101287, Note_off_c, 0, 51, 34
1, 101288, Note_on_c, 0, 53, 42
1, 101309, Note_on_c, 0, 68, 43
1, 101310, Note_on_c, 0, 73, 54
1, 101321, Control_c, 0, 64, 78
1, 101321, Control_c, 0, 67, 63
1, 101350, Control_c, 0, 64, 78
1, 101365, Control_c, 0, 64, 77
1, 101380, Control_c, 0, 64, 77
1, 101387, Note_off_c, 0, 68, 44
1, 101395, Control_c, 0, 64, 75
1, 101409, Control_c, 0, 64, 72
1, 101424, Control_c, 0, 64, 66
1, 101424, Control_c, 0, 67, 62
1, 101439, Control_c, 0, 64, 58
1, 101439, Control_c, 0, 67, 62
1, 101454, Control_c, 0, 64, 48
1, 101454, Control_c, 0, 67, 61
1, 101469, Control_c, 0, 64, 47
1, 101469, Control_c, 0, 67, 61
1, 101483, Control_c, 0, 64, 52
1, 101491, Note_on_c, 0, 51, 45
1, 101492, Note_on_c, 0, 72, 61
1, 101498, Control_c, 0, 64, 59
1, 101502, Note_on_c, 0, 68, 50
1, 101502, Note_off_c, 0, 75, 20
1, 101509, Note_off_c, 0, 53, 39
1, 101513, Control_c, 0, 64, 64
1, 101527, Note_off_c, 0, 73, 34
1, 101527, Control_c, 0, 64, 68
1, 101542, Control_c, 0, 64, 71
1, 101557, Control_c, 0, 64, 76
1, 101573, Control_c, 0, 64, 81
1, 101588, Control_c, 0, 64, 82
1, 101603, Control_c, 0, 67, 61
1, 101618, Control_c, 0, 67, 62
1, 101632, Control_c, 0, 67, 63
1, 101636, Note_off_c, 0, 51, 54
1, 101637, Note_off_c, 0, 68, 54
1, 101647, Control_c, 0, 67, 64
1, 101655, Note_off_c, 0, 72, 60
1, 101662, Control_c, 0, 67, 65
1, 101677, Control_c, 0, 64, 82
1, 101677, Control_c, 0, 67, 67
1, 101692, Control_c, 0, 64, 80
1, 101692, Control_c, 0, 67, 68
1, 101706, Control_c, 0, 64, 76
1, 101706, Control_c, 0, 67, 69
1, 101721, Control_c, 0, 64, 68
1, 101721, Control_c, 0, 67, 70
1, 101736, Control_c, 0, 64, 60
1, 101736, Control_c, 0, 67, 71
1, 101750, Control_c, 0, 64, 47
1, 101750, Control_c, 0, 67, 71
1, 101765, Control_c, 0, 64, 31
1, 101780, Control_c, 0, 64, 0
1, 101780, Control_c, 0, 67, 72
1, 101803, Control_c, 0, 67, 72
1, 101818, Control_c, 0, 67, 73
1, 101832, Control_c, 0, 67, 74
1, 101847, Control_c, 0, 67, 76
1, 101862, Control_c, 0, 67, 77
1, 101877, Control_c, 0, 67, 78
1, 102025, Control_c, 0, 67, 77
1, 102040, Control_c, 0, 64, 20
1, 102040, Control_c, 0, 67, 76
1, 102050, Note_on_c, 0, 70, 53
1, 102052, Note_on_c, 0, 63, 47
1, 102054, Control_c, 0, 64, 42
1, 102054, Control_c, 0, 67, 75
1, 102066, Note_on_c, 0, 67, 43
1, 102068, Note_on_c, 0, 51, 21
1, 102069, Note_on_c, 0, 39, 28
1, 102069, Control_c, 0, 64, 58
1, 102069, Control_c, 0, 67, 75
1, 102070, Note_on_c, 0, 61, 31
1, 102084, Control_c, 0, 64, 62
1, 102084, Control_c, 0, 67, 74
1, 102099, Control_c, 0, 64, 64
1, 102099, Control_c, 0, 67, 74
1, 102114, Control_c, 0, 64, 66
1, 102129, Control_c, 0, 64, 68
1, 102143, Control_c, 0, 64, 70
1, 102158, Control_c, 0, 64, 73
1, 102173, Control_c, 0, 64, 76
1, 102188, Control_c, 0, 64, 78
1, 102203, Control_c, 0, 64, 80
1, 102209, Note_off_c, 0, 39, 57
1, 102218, Control_c, 0, 64, 81
1, 102223, Note_off_c, 0, 51, 50
1, 102232, Note_off_c, 0, 70, 56
1, 102243, Note_off_c, 0, 61, 39
1, 102252, Note_off_c, 0, 67, 48
1, 102267, Note_off_c, 0, 63, 60
1, 102277, Control_c, 0, 67, 74
1, 102292, Control_c, 0, 67, 75
1, 102306, Control_c, 0, 64, 80
1, 102321, Control_c, 0, 64, 79
1, 102336, Control_c, 0, 64, 76
1, 102350, Control_c, 0, 64, 72
1, 102365, Control_c, 0, 64, 67
1, 102381, Control_c, 0, 64, 63
1, 102396, Control_c, 0, 64, 61
1, 102411, Control_c, 0, 64, 59
1, 102426, Control_c, 0, 64, 55
1, 102441, Control_c, 0, 64, 47
1, 102455, Control_c, 0, 64, 34
1, 102470, Control_c, 0, 64, 0
1, 102611, Control_c, 0, 67, 74
1, 102670, Control_c, 0, 67, 74
1, 102723, Note_on_c, 0, 44, 31
1, 102724, Note_on_c, 0, 68, 49
1, 102729, Control_c, 0, 67, 73
1, 102744, Note_on_c, 0, 60, 27
1, 102749, Note_on_c, 0, 63, 40
1, 102759, Control_c, 0, 64, 36
1, 102759, Control_c, 0, 67, 73
1, 102773, Control_c, 0, 64, 51
1, 102773, Control_c, 0, 67, 72
1, 102788, Control_c, 0, 64, 60
1, 102803, Control_c, 0, 64, 62
1, 102803, Control_c, 0, 67, 71
1, 102818, Control_c, 0, 64, 64
1, 102818, Control_c, 0, 67, 71
1, 102833, Control_c, 0, 64, 66
1, 102833, Control_c, 0, 67, 70
1, 102847, Control_c, 0, 64, 68
1, 102847, Control_c, 0, 67, 69
1, 102862, Control_c, 0, 64, 71
1, 102862, Control_c, 0, 67, 68
1, 102877, Control_c, 0, 64, 75
1, 102877, Control_c, 0, 67, 68
1, 102892, Control_c, 0, 64, 79
1, 102892, Control_c, 0, 67, 67
1, 102907, Control_c, 0, 64, 81
1, 102907, Control_c, 0, 67, 67
1, 102922, Control_c, 0, 64, 83
1, 102922, Control_c, 0, 67, 66
1, 102937, Control_c, 0, 64, 84
1, 102952, Control_c, 0, 64, 85
1, 102964, Note_on_c, 0, 48, 41
1, 102966, Control_c, 0, 64, 86
1, 102966, Control_c, 0, 67, 66
1, 102970, Note_off_c, 0, 44, 39
1, 102981, Control_c, 0, 64, 87
1, 102981, Control_c, 0, 67, 65
1, 102996, Control_c, 0, 64, 89
1, 103011, Control_c, 0, 64, 89
1, 103011, Control_c, 0, 67, 64
1, 103026, Control_c, 0, 64, 90
1, 103026, Control_c, 0, 67, 63
1, 103040, Control_c, 0, 64, 90
1, 103040, Control_c, 0, 67, 62
1, 103055, Control_c, 0, 64, 91
1, 103070, Control_c, 0, 64, 91
1, 103070, Control_c, 0, 67, 62
1, 103085, Control_c, 0, 64, 92
1, 103099, Control_c, 0, 64, 92
1, 103129, Control_c, 0, 67, 61
1, 103134, Note_off_c, 0, 48, 41
1, 103144, Control_c, 0, 67, 61
1, 103151, Note_on_c, 0, 51, 45
1, 103159, Control_c, 0, 67, 60
1, 103175, Control_c, 0, 67, 60
1, 103190, Control_c, 0, 67, 59
1, 103204, Control_c, 0, 67, 59
1, 103219, Control_c, 0, 67, 58
1, 103234, Control_c, 0, 67, 58
1, 103249, Control_c, 0, 67, 57
1, 103264, Control_c, 0, 64, 92
1, 103264, Control_c, 0, 67, 56
1, 103274, Note_off_c, 0, 51, 25
1, 103278, Control_c, 0, 64, 90
1, 103278, Control_c, 0, 67, 54
1, 103301, Control_c, 0, 64, 87
1, 103301, Control_c, 0, 67, 52
1, 103306, Note_on_c, 0, 48, 45
1, 103315, Control_c, 0, 64, 80
1, 103315, Control_c, 0, 67, 50
1, 103330, Control_c, 0, 64, 70
1, 103330, Control_c, 0, 67, 48
1, 103345, Control_c, 0, 64, 60
1, 103345, Control_c, 0, 67, 46
1, 103360, Control_c, 0, 64, 53
1, 103360, Control_c, 0, 67, 43
1, 103375, Control_c, 0, 64, 52
1, 103375, Control_c, 0, 67, 40
1, 103390, Control_c, 0, 64, 53
1, 103390, Control_c, 0, 67, 37
1, 103404, Control_c, 0, 64, 58
1, 103404, Control_c, 0, 67, 33
1, 103419, Control_c, 0, 64, 62
1, 103419, Control_c, 0, 67, 29
1, 103434, Control_c, 0, 64, 66
1, 103434, Control_c, 0, 67, 25
1, 103445, Note_off_c, 0, 48, 55
1, 103449, Control_c, 0, 64, 69
1, 103449, Control_c, 0, 67, 38
1, 103464, Control_c, 0, 64, 75
1, 103464, Control_c, 0, 67, 36
1, 103476, Note_on_c, 0, 51, 31
1, 103478, Control_c, 0, 64, 81
1, 103478, Control_c, 0, 67, 34
1, 103493, Control_c, 0, 64, 85
1, 103493, Control_c, 0, 67, 31
1, 103508, Control_c, 0, 64, 88
1, 103508, Control_c, 0, 67, 29
1, 103522, Control_c, 0, 64, 88
1, 103522, Control_c, 0, 67, 27
1, 103537, Control_c, 0, 64, 89
1, 103537, Control_c, 0, 67, 24
1, 103552, Control_c, 0, 64, 90
1, 103552, Control_c, 0, 67, 22
1, 103567, Control_c, 0, 64, 91
1, 103567, Control_c, 0, 67, 21
1, 103582, Control_c, 0, 67, 19
1, 103596, Control_c, 0, 67, 18
1, 103611, Control_c, 0, 67, 17
1, 103629, Note_on_c, 0, 56, 42
1, 103634, Note_off_c, 0, 51, 25
1, 103715, Control_c, 0, 64, 90
1, 103715, Control_c, 0, 67, 0
1, 103730, Control_c, 0, 64, 88
1, 103745, Control_c, 0, 64, 86
1, 103760, Control_c, 0, 64, 78
1, 103774, Control_c, 0, 64, 67
1, 103783, Note_on_c, 0, 47, 35
1, 103789, Control_c, 0, 64, 56
1, 103795, Note_off_c, 0, 56, 20
1, 103804, Control_c, 0, 64, 52
1, 103816, Note_off_c, 0, 60, 43
1, 103819, Control_c, 0, 64, 55
1, 103834, Control_c, 0, 64, 61
1, 103849, Control_c, 0, 64, 65
1, 103862, Note_off_c, 0, 63, 41
1, 103864, Control_c, 0, 64, 68
1, 103878, Control_c, 0, 64, 72
1, 103893, Control_c, 0, 64, 78
1, 103895, Note_off_c, 0, 68, 50
1, 103908, Control_c, 0, 64, 85
1, 103922, Control_c, 0, 64, 88
1, 103926, Note_on_c, 0, 50, 44
1, 103937, Control_c, 0, 64, 89
1, 103952, Control_c, 0, 64, 89
1, 103956, Note_off_c, 0, 47, 31
1, 103983, Control_c, 0, 64, 90
1, 104082, Note_off_c, 0, 50, 42
1, 104094, Note_on_c, 0, 56, 45
1, 104168, Control_c, 0, 64, 89
1, 104183, Control_c, 0, 64, 89
1, 104195, Note_off_c, 0, 56, 29
1, 104198, Control_c, 0, 64, 88
1, 104213, Control_c, 0, 64, 85
1, 104227, Control_c, 0, 64, 80
1, 104239, Note_on_c, 0, 68, 62
1, 104242, Control_c, 0, 64, 71
1, 104252, Note_on_c, 0, 48, 38
1, 104257, Control_c, 0, 64, 61
1, 104272, Control_c, 0, 64, 51
1, 104287, Control_c, 0, 64, 50
1, 104301, Control_c, 0, 64, 53
1, 104316, Control_c, 0, 64, 59
1, 104331, Control_c, 0, 64, 64
1, 104345, Control_c, 0, 64, 68
1, 104360, Control_c, 0, 64, 72
1, 104375, Control_c, 0, 64, 78
1, 104390, Control_c, 0, 64, 84
1, 104405, Control_c, 0, 64, 86
1, 104406, Note_off_c, 0, 48, 36
1, 104418, Note_on_c, 0, 51, 43
1, 104420, Control_c, 0, 64, 87
1, 104449, Control_c, 0, 64, 88
1, 104464, Control_c, 0, 64, 88
1, 104493, Control_c, 0, 64, 89
1, 104523, Control_c, 0, 64, 89
1, 104552, Note_off_c, 0, 51, 36
1, 104558, Note_on_c, 0, 56, 38
1, 104636, Note_on_c, 0, 72, 49
1, 104671, Control_c, 0, 64, 89
1, 104686, Control_c, 0, 64, 87
1, 104701, Control_c, 0, 64, 85
1, 104714, Note_on_c, 0, 75, 56
1, 104716, Control_c, 0, 64, 80
1, 104721, Note_off_c, 0, 68, 32
1, 104725, Note_on_c, 0, 44, 39
1, 104731, Control_c, 0, 64, 70
1, 104731, Note_off_c, 0, 56, 28
1, 104745, Control_c, 0, 64, 62
1, 104761, Control_c, 0, 64, 54
1, 104766, Note_off_c, 0, 72, 36
1, 104776, Control_c, 0, 64, 50
1, 104813, Control_c, 0, 64, 53
1, 104828, Control_c, 0, 64, 59
1, 104842, Control_c, 0, 64, 64
1, 104857, Control_c, 0, 64, 68
1, 104872, Control_c, 0, 64, 73
1, 104887, Control_c, 0, 64, 80
1, 104899, Note_on_c, 0, 48, 37
1, 104902, Control_c, 0, 64, 86
1, 104916, Control_c, 0, 64, 89
1, 104931, Control_c, 0, 64, 90
1, 104932, Note_off_c, 0, 44, 32
1, 104944, Note_off_c, 0, 75, 57
1, 104946, Control_c, 0, 64, 90
1, 104961, Control_c, 0, 64, 91
1, 104976, Control_c, 0, 64, 91
1, 104991, Control_c, 0, 64, 92
1, 105023, Note_off_c, 0, 48, 32
1, 105048, Note_on_c, 0, 56, 46
1, 105168, Control_c, 0, 64, 91
1, 105183, Control_c, 0, 64, 89
1, 105198, Control_c, 0, 64, 86
1, 105205, Note_on_c, 0, 48, 44
1, 105205, Note_on_c, 0, 75, 71
1, 105213, Control_c, 0, 64, 81
1, 105228, Control_c, 0, 64, 72
1, 105242, Control_c, 0, 64, 65
1, 105246, Note_off_c, 0, 56, 38
1, 105257, Control_c, 0, 64, 64
1, 105272, Control_c, 0, 64, 65
1, 105287, Control_c, 0, 64, 67
1, 105301, Control_c, 0, 64, 70
1, 105316, Control_c, 0, 64, 76
1, 105331, Control_c, 0, 64, 82
1, 105346, Control_c, 0, 64, 88
1, 105361, Control_c, 0, 64, 90
1, 105375, Control_c, 0, 64, 90
1, 105378, Note_on_c, 0, 51, 46
1, 105380, Note_off_c, 0, 48, 37
1, 105435, Control_c, 0, 64, 91
1, 105462, Note_off_c, 0, 75, 54
1, 105520, Note_on_c, 0, 56, 50
1, 105574, Note_off_c, 0, 51, 33
1, 105636, Control_c, 0, 64, 90
1, 105651, Control_c, 0, 64, 87
1, 105665, Control_c, 0, 64, 84
1, 105680, Note_on_c, 0, 75, 75
1, 105680, Control_c, 0, 64, 77
1, 105695, Control_c, 0, 64, 70
1, 105697, Note_on_c, 0, 47, 41
1, 105710, Control_c, 0, 64, 64
1, 105724, Control_c, 0, 64, 61
1, 105736, Note_off_c, 0, 56, 36
1, 105754, Control_c, 0, 64, 62
1, 105769, Control_c, 0, 64, 64
1, 105784, Control_c, 0, 64, 68
1, 105799, Control_c, 0, 64, 73
1, 105813, Control_c, 0, 64, 80
1, 105828, Control_c, 0, 64, 87
1, 105843, Control_c, 0, 64, 90
1, 105852, Note_on_c, 0, 50, 49
1, 105857, Note_off_c, 0, 47, 35
1, 105858, Control_c, 0, 64, 92
1, 105873, Control_c, 0, 64, 92
1, 105888, Control_c, 0, 64, 93
1, 105903, Control_c, 0, 64, 95
1, 105917, Control_c, 0, 64, 96
1, 105932, Control_c, 0, 64, 96
1, 105947, Control_c, 0, 64, 97
1, 105962, Control_c, 0, 64, 97
1, 105968, Note_off_c, 0, 75, 58
1, 105988, Note_on_c, 0, 56, 45
1, 105998, Note_off_c, 0, 50, 34
1, 106006, Control_c, 0, 64, 98
1, 106095, Control_c, 0, 64, 97
1, 106110, Control_c, 0, 64, 96
1, 106124, Control_c, 0, 64, 94
1, 106139, Control_c, 0, 64, 91
1, 106150, Note_on_c, 0, 75, 78
1, 106154, Control_c, 0, 64, 85
1, 106163, Note_on_c, 0, 48, 44
1, 106169, Control_c, 0, 64, 76
1, 106184, Control_c, 0, 64, 68
1, 106195, Note_off_c, 0, 56, 34
1, 106198, Control_c, 0, 64, 63
1, 106228, Control_c, 0, 64, 64
1, 106243, Control_c, 0, 64, 67
1, 106258, Control_c, 0, 64, 71
1, 106272, Control_c, 0, 64, 77
1, 106295, Control_c, 0, 64, 85
1, 106310, Control_c, 0, 64, 92
1, 106324, Control_c, 0, 64, 95
1, 106350, Note_off_c, 0, 48, 37
1, 106353, Note_on_c, 0, 51, 43
1, 106354, Control_c, 0, 64, 95
1, 106370, Control_c, 0, 64, 96
1, 106385, Control_c, 0, 64, 98
1, 106400, Control_c, 0, 64, 100
1, 106415, Control_c, 0, 64, 100
1, 106429, Control_c, 0, 64, 101
1, 106459, Control_c, 0, 64, 101
1, 106484, Note_on_c, 0, 56, 48
1, 106493, Note_off_c, 0, 51, 40
1, 106636, Control_c, 0, 64, 100
1, 106651, Control_c, 0, 64, 99
1, 106666, Control_c, 0, 64, 96
1, 106681, Control_c, 0, 64, 92
1, 106696, Control_c, 0, 64, 86
1, 106696, Note_on_c, 0, 77, 67
1, 106711, Note_off_c, 0, 56, 29
1, 106711, Control_c, 0, 64, 78
1, 106721, Note_on_c, 0, 49, 39
1, 106726, Control_c, 0, 64, 70
1, 106740, Control_c, 0, 64, 62
1, 106743, Note_off_c, 0, 75, 59
1, 106755, Control_c, 0, 64, 56
1, 106770, Control_c, 0, 64, 53
1, 106785, Control_c, 0, 64, 52
1, 106829, Control_c, 0, 64, 53
1, 106844, Control_c, 0, 64, 59
1, 106858, Control_c, 0, 64, 65
1, 106873, Control_c, 0, 64, 71
1, 106888, Control_c, 0, 64, 78
1, 106895, Note_off_c, 0, 49, 40
1, 106903, Control_c, 0, 64, 87
1, 106907, Note_on_c, 0, 53, 39
1, 106918, Control_c, 0, 64, 92
1, 106933, Control_c, 0, 64, 93
1, 106947, Control_c, 0, 64, 94
1, 106962, Control_c, 0, 64, 94
1, 106977, Control_c, 0, 64, 95
1, 107055, Note_on_c, 0, 56, 42
1, 107068, Note_off_c, 0, 53, 43
1, 107118, Control_c, 0, 64, 94
1, 107133, Control_c, 0, 64, 93
1, 107147, Control_c, 0, 64, 89
1, 107162, Control_c, 0, 64, 81
1, 107178, Control_c, 0, 64, 72
1, 107182, Note_off_c, 0, 56, 25
1, 107193, Control_c, 0, 64, 68
1, 107208, Note_on_c, 0, 49, 40
1, 107208, Control_c, 0, 64, 69
1, 107223, Control_c, 0, 64, 73
1, 107238, Control_c, 0, 64, 79
1, 107252, Control_c, 0, 64, 87
1, 107267, Control_c, 0, 64, 92
1, 107282, Control_c, 0, 64, 94
1, 107296, Control_c, 0, 64, 95
1, 107311, Control_c, 0, 64, 97
1, 107326, Control_c, 0, 64, 98
1, 107341, Control_c, 0, 64, 98
1, 107349, Note_on_c, 0, 55, 47
1, 107356, Note_off_c, 0, 49, 46
1, 107356, Control_c, 0, 64, 99
1, 107370, Control_c, 0, 64, 99
1, 107385, Control_c, 0, 64, 100
1, 107400, Control_c, 0, 64, 100
1, 107415, Control_c, 0, 64, 101
1, 107430, Control_c, 0, 64, 102
1, 107444, Control_c, 0, 64, 102
1, 107459, Control_c, 0, 64, 103
1, 107488, Note_off_c, 0, 55, 39
1, 107514, Note_on_c, 0, 58, 40
1, 107555, Note_off_c, 0, 58, 46
1, 107563, Control_c, 0, 64, 102
1, 107578, Control_c, 0, 64, 100
1, 107593, Control_c, 0, 64, 95
1, 107608, Control_c, 0, 64, 89
1, 107623, Control_c, 0, 64, 79
1, 107637, Control_c, 0, 64, 69
1, 107650, Note_on_c, 0, 75, 61
1, 107652, Control_c, 0, 64, 61
1, 107653, Note_on_c, 0, 48, 28
1, 107667, Control_c, 0, 64, 58
1, 107696, Control_c, 0, 64, 59
1, 107698, Note_off_c, 0, 77, 35
1, 107711, Control_c, 0, 64, 62
1, 107726, Control_c, 0, 64, 66
1, 107741, Control_c, 0, 64, 69
1, 107756, Control_c, 0, 64, 75
1, 107770, Control_c, 0, 64, 83
1, 107793, Control_c, 0, 64, 93
1, 107808, Control_c, 0, 64, 97
1, 107809, Note_off_c, 0, 48, 43
1, 107814, Note_on_c, 0, 56, 47
1, 107823, Control_c, 0, 64, 97
1, 107852, Control_c, 0, 64, 98
1, 107962, Note_on_c, 0, 60, 46
1, 107964, Note_off_c, 0, 56, 40
1, 108016, Control_c, 0, 64, 97
1, 108021, Note_off_c, 0, 60, 40
1, 108031, Control_c, 0, 64, 97
1, 108102, Note_on_c, 0, 48, 44
1, 108208, Control_c, 0, 64, 97
1, 108246, Note_off_c, 0, 48, 51
1, 108253, Control_c, 0, 64, 98
1, 108267, Note_on_c, 0, 51, 42
1, 108297, Control_c, 0, 64, 98
1, 108398, Note_off_c, 0, 51, 41
1, 108410, Note_on_c, 0, 56, 33
1, 108454, Note_off_c, 0, 56, 46
1, 108490, Control_c, 0, 64, 97
1, 108505, Control_c, 0, 64, 95
1, 108519, Control_c, 0, 64, 93
1, 108541, Control_c, 0, 64, 90
1, 108556, Control_c, 0, 64, 87
1, 108571, Control_c, 0, 64, 84
1, 108579, Note_on_c, 0, 73, 60
1, 108586, Control_c, 0, 64, 80
1, 108601, Control_c, 0, 64, 73
1, 108615, Control_c, 0, 64, 66
1, 108630, Control_c, 0, 64, 62
1, 108645, Control_c, 0, 64, 61
1, 108705, Control_c, 0, 64, 64
1, 108719, Control_c, 0, 64, 68
1, 108734, Control_c, 0, 64, 71
1, 108749, Control_c, 0, 64, 76
1, 108765, Control_c, 0, 64, 80
1, 108779, Control_c, 0, 64, 84
1, 108794, Control_c, 0, 64, 86
1, 108809, Control_c, 0, 64, 87
1, 108810, Note_on_c, 0, 51, 29
1, 108837, Note_on_c, 0, 56, 55
1, 108839, Control_c, 0, 64, 87
1, 108851, Note_off_c, 0, 51, 49
1, 108854, Control_c, 0, 64, 88
1, 108868, Control_c, 0, 64, 90
1, 108883, Control_c, 0, 64, 91
1, 108898, Control_c, 0, 64, 93
1, 108913, Control_c, 0, 64, 93
1, 108928, Control_c, 0, 64, 94
1, 108942, Control_c, 0, 64, 94
1, 108945, Note_off_c, 0, 75, 0
1, 108982, Poly_aftertouch_c, 0, 75, 127
1, 108988, Note_off_c, 0, 56, 35
1, 109046, Control_c, 0, 64, 91
1, 109050, Note_on_c, 0, 46, 47
1, 109060, Control_c, 0, 64, 82
1, 109075, Control_c, 0, 64, 72
1, 109090, Control_c, 0, 64, 67
1, 109120, Control_c, 0, 64, 70
1, 109134, Control_c, 0, 64, 73
1, 109149, Control_c, 0, 64, 80
1, 109164, Control_c, 0, 64, 88
1, 109179, Control_c, 0, 64, 93
1, 109189, Note_off_c, 0, 46, 40
1, 109194, Control_c, 0, 64, 94
1, 109202, Note_on_c, 0, 51, 41
1, 109209, Control_c, 0, 64, 95
1, 109224, Control_c, 0, 64, 97
1, 109238, Control_c, 0, 64, 99
1, 109253, Control_c, 0, 64, 101
1, 109268, Control_c, 0, 64, 102
1, 109290, Control_c, 0, 64, 102
1, 109340, Note_on_c, 0, 55, 48
1, 109348, Note_off_c, 0, 51, 40
1, 109367, Poly_aftertouch_c, 0, 75, 0
1, 109438, Control_c, 0, 64, 102
1, 109453, Control_c, 0, 64, 100
1, 109468, Control_c, 0, 64, 98
1, 109483, Control_c, 0, 64, 94
1, 109498, Control_c, 0, 64, 89
1, 109505, Note_on_c, 0, 72, 60
1, 109510, Note_on_c, 0, 44, 45
1, 109513, Control_c, 0, 64, 80
1, 109519, Note_off_c, 0, 55, 20
1, 109528, Control_c, 0, 64, 67
1, 109534, Note_off_c, 0, 73, 35
1, 109542, Control_c, 0, 64, 59
1, 109557, Control_c, 0, 64, 56
1, 109572, Control_c, 0, 64, 56
1, 109588, Control_c, 0, 64, 60
1, 109603, Control_c, 0, 64, 65
1, 109618, Control_c, 0, 64, 69
1, 109633, Control_c, 0, 64, 76
1, 109644, Note_off_c, 0, 44, 44
1, 109647, Control_c, 0, 64, 84
1, 109662, Control_c, 0, 64, 92
1, 109676, Note_on_c, 0, 51, 39
1, 109677, Control_c, 0, 64, 95
1, 109733, Note_off_c, 0, 51, 40
1, 109797, Note_on_c, 0, 58, 46
1, 109836, Note_off_c, 0, 58, 46
1, 109951, Note_on_c, 0, 44, 50
1, 110079, Note_off_c, 0, 44, 0
1, 110109, Poly_aftertouch_c, 0, 44, 0
1, 110135, Note_on_c, 0, 51, 35
1, 110190, Note_off_c, 0, 51, 41
1, 110252, Note_on_c, 0, 56, 41
1, 110277, Control_c, 0, 64, 95
1, 110291, Control_c, 0, 64, 94
1, 110306, Control_c, 0, 64, 93
1, 110321, Control_c, 0, 64, 91
1, 110336, Control_c, 0, 64, 89
1, 110351, Control_c, 0, 64, 85
1, 110367, Control_c, 0, 64, 80
1, 110381, Control_c, 0, 64, 75
1, 110389, Note_off_c, 0, 56, 22
1, 110396, Control_c, 0, 64, 68
1, 110411, Control_c, 0, 64, 63
1, 110421, Note_on_c, 0, 70, 61
1, 110426, Control_c, 0, 64, 57
1, 110440, Control_c, 0, 64, 54
1, 110441, Note_on_c, 0, 49, 29
1, 110455, Control_c, 0, 64, 53
1, 110486, Note_off_c, 0, 72, 41
1, 110500, Control_c, 0, 64, 55
1, 110514, Control_c, 0, 64, 59
1, 110529, Control_c, 0, 64, 63
1, 110544, Control_c, 0, 64, 67
1, 110559, Control_c, 0, 64, 71
1, 110574, Control_c, 0, 64, 77
1, 110589, Control_c, 0, 64, 84
1, 110599, Note_on_c, 0, 56, 35
1, 110602, Note_off_c, 0, 49, 40
1, 110604, Control_c, 0, 64, 89
1, 110619, Control_c, 0, 64, 91
1, 110633, Control_c, 0, 64, 91
1, 110648, Control_c, 0, 64, 92
1, 110663, Control_c, 0, 64, 93
1, 110678, Control_c, 0, 64, 93
1, 110681, Note_off_c, 0, 56, 0
1, 110693, Control_c, 0, 64, 94
1, 110745, Poly_aftertouch_c, 0, 56, 0
1, 110755, Note_on_c, 0, 58, 26
1, 110833, Control_c, 0, 64, 93
1, 110840, Note_off_c, 0, 58, 34
1, 110848, Control_c, 0, 64, 92
1, 110863, Control_c, 0, 64, 89
1, 110878, Control_c, 0, 64, 85
1, 110890, Note_on_c, 0, 73, 66
1, 110893, Note_on_c, 0, 53, 41
1, 110893, Control_c, 0, 64, 77
1, 110908, Control_c, 0, 64, 68
1, 110922, Control_c, 0, 64, 63
1, 110935, Note_off_c, 0, 70, 51
1, 110937, Control_c, 0, 64, 62
1, 110952, Control_c, 0, 64, 63
1, 110967, Control_c, 0, 64, 66
1, 110982, Control_c, 0, 64, 69
1, 110996, Control_c, 0, 64, 73
1, 111011, Control_c, 0, 64, 80
1, 111026, Control_c, 0, 64, 86
1, 111040, Control_c, 0, 64, 91
1, 111048, Note_off_c, 0, 53, 40
1, 111055, Control_c, 0, 64, 92
1, 111067, Note_on_c, 0, 56, 39
1, 111070, Control_c, 0, 64, 92
1, 111084, Control_c, 0, 64, 93
1, 111099, Control_c, 0, 64, 94
1, 111113, Control_c, 0, 64, 95
1, 111128, Control_c, 0, 64, 97
1, 111143, Control_c, 0, 64, 98
1, 111224, Note_on_c, 0, 61, 38
1, 111236, Note_off_c, 0, 56, 38
1, 111292, Control_c, 0, 64, 96
1, 111307, Control_c, 0, 64, 94
1, 111322, Control_c, 0, 64, 89
1, 111336, Control_c, 0, 64, 81
1, 111343, Note_on_c, 0, 72, 65
1, 111344, Note_off_c, 0, 61, 24
1, 111351, Control_c, 0, 64, 71
1, 111366, Control_c, 0, 64, 63
1, 111373, Note_on_c, 0, 51, 30
1, 111381, Control_c, 0, 64, 61
1, 111383, Note_off_c, 0, 73, 52
1, 111410, Control_c, 0, 64, 62
1, 111425, Control_c, 0, 64, 65
1, 111440, Control_c, 0, 64, 69
1, 111454, Control_c, 0, 64, 73
1, 111469, Control_c, 0, 64, 81
1, 111484, Control_c, 0, 64, 88
1, 111499, Control_c, 0, 64, 92
1, 111514, Control_c, 0, 64, 93
1, 111536, Note_off_c, 0, 51, 40
1, 111536, Control_c, 0, 64, 93
1, 111551, Control_c, 0, 64, 94
1, 111554, Note_on_c, 0, 56, 39
1, 111566, Control_c, 0, 64, 95
1, 111581, Control_c, 0, 64, 96
1, 111596, Control_c, 0, 64, 97
1, 111610, Control_c, 0, 64, 97
1, 111677, Note_on_c, 0, 60, 39
1, 111700, Note_off_c, 0, 56, 22
1, 111731, Note_off_c, 0, 60, 38
1, 111743, Control_c, 0, 64, 97
1, 111758, Control_c, 0, 64, 95
1, 111773, Control_c, 0, 64, 93
1, 111787, Control_c, 0, 64, 88
1, 111802, Control_c, 0, 64, 79
1, 111817, Note_on_c, 0, 70, 58
1, 111817, Control_c, 0, 64, 68
1, 111832, Control_c, 0, 64, 61
1, 111847, Control_c, 0, 64, 60
1, 111853, Note_on_c, 0, 51, 25
1, 111856, Note_off_c, 0, 72, 53
1, 111862, Control_c, 0, 64, 61
1, 111877, Control_c, 0, 64, 64
1, 111891, Control_c, 0, 64, 67
1, 111906, Control_c, 0, 64, 71
1, 111921, Control_c, 0, 64, 77
1, 111927, Note_off_c, 0, 51, 37
1, 111936, Control_c, 0, 64, 84
1, 111951, Control_c, 0, 64, 90
1, 111966, Control_c, 0, 64, 92
1, 111981, Control_c, 0, 64, 92
1, 111991, Note_on_c, 0, 55, 37
1, 111996, Control_c, 0, 64, 93
1, 112011, Control_c, 0, 64, 95
1, 112026, Control_c, 0, 64, 96
1, 112041, Control_c, 0, 64, 96
1, 112055, Control_c, 0, 64, 97
1, 112116, Note_off_c, 0, 55, 33
1, 112137, Note_on_c, 0, 58, 36
1, 112170, Note_off_c, 0, 58, 48
1, 112203, Control_c, 0, 64, 96
1, 112218, Control_c, 0, 64, 95
1, 112233, Control_c, 0, 64, 93
1, 112248, Control_c, 0, 64, 90
1, 112263, Control_c, 0, 64, 85
1, 112285, Control_c, 0, 64, 78
1, 112286, Note_on_c, 0, 68, 55
1, 112300, Control_c, 0, 64, 70
1, 112301, Note_on_c, 0, 44, 43
1, 112315, Control_c, 0, 64, 63
1, 112319, Note_off_c, 0, 70, 36
1, 112330, Control_c, 0, 64, 57
1, 112345, Control_c, 0, 64, 54
1, 112389, Control_c, 0, 64, 57
1, 112403, Control_c, 0, 64, 62
1, 112418, Control_c, 0, 64, 66
1, 112433, Control_c, 0, 64, 69
1, 112448, Control_c, 0, 64, 74
1, 112463, Control_c, 0, 64, 80
1, 112470, Note_on_c, 0, 48, 39
1, 112478, Control_c, 0, 64, 85
1, 112481, Note_off_c, 0, 44, 41
1, 112492, Control_c, 0, 64, 88
1, 112574, Note_off_c, 0, 48, 35
1, 112612, Note_on_c, 0, 56, 35
1, 112671, Control_c, 0, 64, 87
1, 112685, Control_c, 0, 64, 86
1, 112700, Control_c, 0, 64, 82
1, 112715, Control_c, 0, 64, 75
1, 112730, Control_c, 0, 64, 68
1, 112742, Note_on_c, 0, 48, 38
1, 112745, Control_c, 0, 64, 67
1, 112749, Note_off_c, 0, 56, 31
1, 112761, Control_c, 0, 64, 68
1, 112776, Control_c, 0, 64, 71
1, 112790, Control_c, 0, 64, 75
1, 112805, Control_c, 0, 64, 82
1, 112820, Control_c, 0, 64, 86
1, 112834, Control_c, 0, 64, 87
1, 112879, Control_c, 0, 64, 88
1, 112893, Note_off_c, 0, 48, 43
1, 112917, Note_on_c, 0, 51, 41
1, 112927, Note_off_c, 0, 68, 37
1, 113051, Note_on_c, 0, 56, 43
1, 113082, Note_off_c, 0, 51, 41
1, 113094, Control_c, 0, 64, 87
1, 113123, Control_c, 0, 64, 87
1, 113138, Control_c, 0, 64, 86
1, 113153, Control_c, 0, 64, 85
1, 113168, Control_c, 0, 64, 82
1, 113182, Control_c, 0, 64, 78
1, 113197, Control_c, 0, 64, 70
1, 113212, Control_c, 0, 64, 63
1, 113214, Note_on_c, 0, 47, 45
1, 113227, Control_c, 0, 64, 62
1, 113228, Note_off_c, 0, 56, 37
1, 113242, Control_c, 0, 64, 63
1, 113257, Control_c, 0, 64, 65
1, 113272, Control_c, 0, 64, 67
1, 113287, Control_c, 0, 64, 70
1, 113301, Control_c, 0, 64, 74
1, 113316, Control_c, 0, 64, 80
1, 113330, Control_c, 0, 64, 85
1, 113345, Control_c, 0, 64, 86
1, 113363, Note_on_c, 0, 50, 46
1, 113379, Note_off_c, 0, 47, 36
1, 113506, Note_on_c, 0, 56, 48
1, 113516, Note_off_c, 0, 50, 35
1, 113598, Control_c, 0, 64, 86
1, 113612, Control_c, 0, 64, 85
1, 113627, Control_c, 0, 64, 85
1, 113642, Control_c, 0, 64, 83
1, 113656, Control_c, 0, 64, 80
1, 113668, Note_off_c, 0, 56, 37
1, 113671, Note_on_c, 0, 48, 45
1, 113671, Control_c, 0, 64, 75
1, 113673, Note_on_c, 0, 68, 57
1, 113686, Control_c, 0, 64, 67
1, 113701, Control_c, 0, 64, 59
1, 113716, Control_c, 0, 64, 54
1, 113746, Control_c, 0, 64, 56
1, 113760, Control_c, 0, 64, 61
1, 113782, Control_c, 0, 64, 65
1, 113797, Control_c, 0, 64, 69
1, 113812, Control_c, 0, 64, 73
1, 113827, Control_c, 0, 64, 79
1, 113842, Note_off_c, 0, 48, 37
1, 113842, Control_c, 0, 64, 84
1, 113846, Note_on_c, 0, 51, 44
1, 113856, Control_c, 0, 64, 87
1, 113916, Control_c, 0, 64, 87
1, 113964, Note_on_c, 0, 56, 40
1, 113972, Note_off_c, 0, 51, 32
1, 114053, Note_on_c, 0, 72, 49
1, 114064, Control_c, 0, 64, 87
1, 114079, Control_c, 0, 64, 86
1, 114094, Control_c, 0, 64, 84
1, 114109, Control_c, 0, 64, 80
1, 114124, Control_c, 0, 64, 69
1, 114124, Note_off_c, 0, 56, 36
1, 114127, Note_off_c, 0, 68, 38
1, 114138, Note_on_c, 0, 44, 34
1, 114138, Note_on_c, 0, 75, 56
1, 114138, Control_c, 0, 64, 52
1, 114153, Control_c, 0, 64, 0
1, 114184, Note_off_c, 0, 72, 42
1, 114227, Control_c, 0, 64, 53
1, 114242, Control_c, 0, 64, 65
1, 114256, Control_c, 0, 64, 71
1, 114271, Control_c, 0, 64, 78
1, 114286, Control_c, 0, 64, 84
1, 114301, Control_c, 0, 64, 88
1, 114306, Note_on_c, 0, 48, 42
1, 114316, Control_c, 0, 64, 91
1, 114330, Note_off_c, 0, 75, 58
1, 114330, Control_c, 0, 64, 93
1, 114345, Control_c, 0, 64, 94
1, 114361, Control_c, 0, 64, 95
1, 114461, Note_on_c, 0, 56, 45
1, 114462, Note_off_c, 0, 48, 38
1, 114576, Control_c, 0, 64, 94
1, 114591, Control_c, 0, 64, 90
1, 114604, Note_on_c, 0, 75, 66
1, 114605, Control_c, 0, 64, 82
1, 114615, Note_on_c, 0, 48, 45
1, 114616, Note_on_c, 0, 63, 58
1, 114620, Control_c, 0, 64, 72
1, 114635, Control_c, 0, 64, 66
1, 114650, Control_c, 0, 64, 66
1, 114661, Note_off_c, 0, 44, 6
1, 114664, Note_off_c, 0, 56, 37
1, 114665, Control_c, 0, 64, 68
1, 114679, Control_c, 0, 64, 71
1, 114694, Control_c, 0, 64, 78
1, 114709, Control_c, 0, 64, 86
1, 114724, Control_c, 0, 64, 93
1, 114739, Control_c, 0, 64, 94
1, 114753, Control_c, 0, 64, 95
1, 114768, Control_c, 0, 64, 95
1, 114774, Note_off_c, 0, 48, 44
1, 114783, Control_c, 0, 64, 96
1, 114789, Note_on_c, 0, 51, 49
1, 114798, Control_c, 0, 64, 97
1, 114813, Control_c, 0, 64, 98
1, 114828, Control_c, 0, 64, 99
1, 114837, Note_off_c, 0, 63, 35
1, 114843, Note_off_c, 0, 75, 53
1, 114843, Control_c, 0, 64, 100
1, 114857, Control_c, 0, 64, 100
1, 114920, Note_on_c, 0, 56, 55
1, 114956, Note_off_c, 0, 51, 32
1, 115020, Control_c, 0, 64, 99
1, 115035, Control_c, 0, 64, 99
1, 115050, Control_c, 0, 64, 96
1, 115065, Control_c, 0, 64, 91
1, 115068, Note_on_c, 0, 75, 76
1, 115071, Note_on_c, 0, 63, 70
1, 115079, Control_c, 0, 64, 83
1, 115085, Note_on_c, 0, 47, 50
1, 115094, Control_c, 0, 64, 73
1, 115109, Control_c, 0, 64, 65
1, 115123, Control_c, 0, 64, 61
1, 115138, Control_c, 0, 64, 60
1, 115144, Note_off_c, 0, 56, 31
1, 115155, Control_c, 0, 64, 62
1, 115169, Control_c, 0, 64, 65
1, 115184, Control_c, 0, 64, 68
1, 115199, Control_c, 0, 64, 73
1, 115214, Control_c, 0, 64, 81
1, 115228, Control_c, 0, 64, 89
1, 115243, Control_c, 0, 64, 93
1, 115244, Note_on_c, 0, 50, 53
1, 115257, Note_off_c, 0, 47, 36
1, 115258, Control_c, 0, 64, 94
1, 115281, Control_c, 0, 64, 94
1, 115296, Control_c, 0, 64, 95
1, 115309, Note_off_c, 0, 63, 55
1, 115310, Control_c, 0, 64, 97
1, 115325, Control_c, 0, 64, 98
1, 115340, Control_c, 0, 64, 98
1, 115343, Note_off_c, 0, 75, 53
1, 115355, Control_c, 0, 64, 99
1, 115370, Control_c, 0, 64, 100
1, 115379, Note_off_c, 0, 50, 48
1, 115384, Control_c, 0, 64, 101
1, 115385, Note_on_c, 0, 56, 58
1, 115414, Control_c, 0, 64, 102
1, 115517, Control_c, 0, 64, 101
1, 115532, Control_c, 0, 64, 100
1, 115547, Control_c, 0, 64, 97
1, 115558, Note_on_c, 0, 75, 79
1, 115558, Note_on_c, 0, 63, 74
1, 115559, Note_on_c, 0, 48, 50
1, 115561, Control_c, 0, 64, 91
1, 115576, Control_c, 0, 64, 80
1, 115591, Control_c, 0, 64, 69
1, 115606, Control_c, 0, 64, 61
1, 115621, Control_c, 0, 64, 59
1, 115633, Note_off_c, 0, 56, 39
1, 115635, Control_c, 0, 64, 60
1, 115650, Control_c, 0, 64, 64
1, 115665, Control_c, 0, 64, 68
1, 115680, Control_c, 0, 64, 73
1, 115695, Control_c, 0, 64, 82
1, 115710, Control_c, 0, 64, 92
1, 115725, Control_c, 0, 64, 99
1, 115735, Note_on_c, 0, 51, 50
1, 115740, Control_c, 0, 64, 101
1, 115746, Note_off_c, 0, 48, 34
1, 115754, Control_c, 0, 64, 102
1, 115769, Control_c, 0, 64, 103
1, 115784, Control_c, 0, 64, 105
1, 115799, Control_c, 0, 64, 108
1, 115814, Control_c, 0, 64, 111
1, 115828, Control_c, 0, 64, 114
1, 115843, Control_c, 0, 64, 115
1, 115858, Control_c, 0, 64, 117
1, 115873, Control_c, 0, 64, 118
1, 115886, Note_off_c, 0, 51, 42
1, 115888, Control_c, 0, 64, 120
1, 115896, Note_on_c, 0, 56, 58
1, 115898, Note_off_c, 0, 63, 39
1, 115902, Control_c, 0, 64, 123
1, 115917, Control_c, 0, 64, 127
1, 116074, Control_c, 0, 64, 124
1, 116089, Control_c, 0, 64, 115
1, 116103, Control_c, 0, 64, 106
1, 116117, Note_on_c, 0, 76, 72
1, 116118, Control_c, 0, 64, 96
1, 116121, Note_on_c, 0, 49, 51
1, 116121, Note_on_c, 0, 64, 60
1, 116133, Control_c, 0, 64, 86
1, 116148, Control_c, 0, 64, 76
1, 116149, Note_off_c, 0, 56, 36
1, 116163, Control_c, 0, 64, 64
1, 116177, Control_c, 0, 64, 56
1, 116192, Control_c, 0, 64, 51
1, 116207, Control_c, 0, 64, 49
1, 116222, Control_c, 0, 64, 45
1, 116230, Note_off_c, 0, 75, 37
1, 116237, Control_c, 0, 64, 43
1, 116266, Control_c, 0, 64, 49
1, 116281, Control_c, 0, 64, 59
1, 116296, Control_c, 0, 64, 67
1, 116311, Control_c, 0, 64, 73
1, 116326, Control_c, 0, 64, 79
1, 116341, Control_c, 0, 64, 85
1, 116352, Note_on_c, 0, 52, 41
1, 116356, Control_c, 0, 64, 89
1, 116367, Note_off_c, 0, 49, 35
1, 116371, Control_c, 0, 64, 92
1, 116385, Control_c, 0, 64, 94
1, 116400, Control_c, 0, 64, 95
1, 116415, Control_c, 0, 64, 96
1, 116459, Control_c, 0, 64, 97
1, 116474, Control_c, 0, 64, 97
1, 116484, Note_on_c, 0, 56, 47
1, 116500, Note_off_c, 0, 52, 35
1, 116504, Control_c, 0, 64, 98
1, 116533, Control_c, 0, 64, 98
1, 116548, Control_c, 0, 64, 99
1, 116563, Control_c, 0, 64, 100
1, 116577, Control_c, 0, 64, 101
1, 116592, Control_c, 0, 64, 103
1, 116607, Control_c, 0, 64, 104
1, 116622, Control_c, 0, 64, 106
1, 116635, Note_on_c, 0, 49, 52
1, 116637, Control_c, 0, 64, 108
1, 116652, Control_c, 0, 64, 110
1, 116667, Control_c, 0, 64, 113
1, 116678, Note_off_c, 0, 56, 38
1, 116682, Control_c, 0, 64, 116
1, 116696, Control_c, 0, 64, 119
1, 116711, Control_c, 0, 64, 124
1, 116726, Control_c, 0, 64, 127
1, 116731, Note_off_c, 0, 64, 31
1, 116794, Note_on_c, 0, 52, 47
1, 116799, Note_off_c, 0, 49, 36
1, 116944, Note_on_c, 0, 58, 46
1, 116947, Note_off_c, 0, 52, 42
1, 116989, Note_off_c, 0, 58, 47
1, 117031, Control_c, 0, 64, 120
1, 117045, Control_c, 0, 64, 111
1, 117060, Control_c, 0, 64, 102
1, 117070, Note_on_c, 0, 75, 67
1, 117074, Control_c, 0, 64, 90
1, 117081, Note_on_c, 0, 63, 57
1, 117089, Note_on_c, 0, 47, 41
1, 117089, Control_c, 0, 64, 74
1, 117094, Note_off_c, 0, 76, 38
1, 117104, Control_c, 0, 64, 63
1, 117119, Control_c, 0, 64, 58
1, 117134, Control_c, 0, 64, 59
1, 117148, Control_c, 0, 64, 61
1, 117163, Control_c, 0, 64, 64
1, 117178, Control_c, 0, 64, 68
1, 117193, Control_c, 0, 64, 73
1, 117207, Control_c, 0, 64, 81
1, 117222, Control_c, 0, 64, 92
1, 117237, Control_c, 0, 64, 102
1, 117249, Note_off_c, 0, 47, 40
1, 117252, Control_c, 0, 64, 104
1, 117264, Note_on_c, 0, 54, 41
1, 117267, Control_c, 0, 64, 105
1, 117281, Control_c, 0, 64, 106
1, 117296, Control_c, 0, 64, 108
1, 117311, Control_c, 0, 64, 110
1, 117326, Control_c, 0, 64, 112
1, 117341, Control_c, 0, 64, 114
1, 117355, Control_c, 0, 64, 115
1, 117370, Control_c, 0, 64, 117
1, 117376, Note_off_c, 0, 54, 33
1, 117385, Control_c, 0, 64, 122
1, 117393, Note_on_c, 0, 59, 40
1, 117400, Control_c, 0, 64, 127
1, 117448, Note_off_c, 0, 59, 42
1, 117514, Note_on_c, 0, 47, 38
1, 117534, Note_off_c, 0, 63, 42
1, 117700, Note_on_c, 0, 54, 43
1, 117715, Note_off_c, 0, 47, 39
1, 117841, Note_off_c, 0, 54, 35
1, 117844, Note_on_c, 0, 59, 44
1, 117941, Control_c, 0, 64, 111
1, 117952, Note_off_c, 0, 59, 33
1, 117956, Control_c, 0, 64, 98
1, 117971, Control_c, 0, 64, 87
1, 117986, Control_c, 0, 64, 74
1, 117998, Note_on_c, 0, 73, 60
1, 118001, Control_c, 0, 64, 63
1, 118002, Note_on_c, 0, 52, 39
1, 118016, Control_c, 0, 64, 56
1, 118030, Control_c, 0, 64, 55
1, 118060, Control_c, 0, 64, 57
1, 118071, Note_off_c, 0, 75, 35
1, 118075, Control_c, 0, 64, 62
1, 118090, Control_c, 0, 64, 68
1, 118104, Control_c, 0, 64, 77
1, 118119, Control_c, 0, 64, 89
1, 118134, Control_c, 0, 64, 101
1, 118148, Note_on_c, 0, 56, 49
1, 118148, Control_c, 0, 64, 109
1, 118151, Note_off_c, 0, 52, 39
1, 118163, Control_c, 0, 64, 110
1, 118178, Control_c, 0, 64, 111
1, 118193, Control_c, 0, 64, 112
1, 118208, Control_c, 0, 64, 112
1, 118223, Control_c, 0, 64, 113
1, 118238, Control_c, 0, 64, 114
1, 118253, Control_c, 0, 64, 116
1, 118275, Control_c, 0, 64, 121
1, 118290, Control_c, 0, 64, 127
1, 118307, Note_off_c, 0, 56, 41
1, 118309, Note_on_c, 0, 61, 40
1, 118443, Note_on_c, 0, 52, 45
1, 118461, Note_off_c, 0, 61, 39
1, 118616, Note_on_c, 0, 54, 48
1, 118616, Note_off_c, 0, 52, 35
1, 118758, Note_on_c, 0, 58, 43
1, 118771, Note_off_c, 0, 54, 43
1, 118779, Control_c, 0, 64, 124
1, 118794, Control_c, 0, 64, 118
1, 118809, Control_c, 0, 64, 113
1, 118824, Control_c, 0, 64, 108
1, 118838, Control_c, 0, 64, 102
1, 118853, Control_c, 0, 64, 96
1, 118868, Control_c, 0, 64, 90
1, 118883, Control_c, 0, 64, 84
1, 118893, Note_on_c, 0, 71, 59
1, 118897, Control_c, 0, 64, 75
1, 118904, Note_off_c, 0, 58, 23
1, 118910, Note_off_c, 0, 73, 39
1, 118912, Note_on_c, 0, 51, 37
1, 118912, Control_c, 0, 64, 66
1, 118927, Control_c, 0, 64, 58
1, 118942, Control_c, 0, 64, 55
1, 118971, Control_c, 0, 64, 56
1, 118986, Control_c, 0, 64, 60
1, 119001, Control_c, 0, 64, 65
1, 119024, Control_c, 0, 64, 68
1, 119039, Control_c, 0, 64, 74
1, 119053, Control_c, 0, 64, 82
1, 119061, Note_off_c, 0, 51, 41
1, 119068, Control_c, 0, 64, 90
1, 119080, Note_on_c, 0, 54, 38
1, 119083, Control_c, 0, 64, 94
1, 119097, Control_c, 0, 64, 94
1, 119142, Control_c, 0, 64, 95
1, 119196, Note_off_c, 0, 54, 29
1, 119216, Note_on_c, 0, 59, 43
1, 119326, Note_off_c, 0, 59, 26
1, 119373, Note_on_c, 0, 51, 44
1, 119505, Note_on_c, 0, 55, 47
1, 119533, Note_off_c, 0, 51, 32
1, 119543, Control_c, 0, 64, 95
1, 119573, Control_c, 0, 64, 96
1, 119588, Control_c, 0, 64, 98
1, 119597, Note_on_c, 0, 70, 57
1, 119603, Control_c, 0, 64, 99
1, 119618, Control_c, 0, 64, 100
1, 119642, Note_off_c, 0, 71, 36
1, 119707, Note_on_c, 0, 61, 44
1, 119721, Note_off_c, 0, 55, 39
1, 119788, Control_c, 0, 64, 99
1, 119803, Control_c, 0, 64, 97
1, 119818, Control_c, 0, 64, 94
1, 119833, Control_c, 0, 64, 87
1, 119836, Note_off_c, 0, 61, 40
1, 119847, Note_on_c, 0, 68, 57
1, 119848, Control_c, 0, 64, 74
1, 119862, Control_c, 0, 64, 64
1, 119867, Note_on_c, 0, 52, 37
1, 119877, Control_c, 0, 64, 56
1, 119884, Note_off_c, 0, 70, 33
1, 119892, Control_c, 0, 64, 55
1, 119921, Control_c, 0, 64, 57
1, 119936, Control_c, 0, 64, 62
1, 119952, Control_c, 0, 64, 66
1, 119967, Control_c, 0, 64, 70
1, 119982, Control_c, 0, 64, 78
1, 119997, Control_c, 0, 64, 88
1, 120011, Control_c, 0, 64, 96
1, 120026, Control_c, 0, 64, 98
1, 120031, Note_off_c, 0, 52, 40
1, 120034, Note_off_c, 0, 68, 36
1, 120050, Note_on_c, 0, 56, 43
1, 120056, Control_c, 0, 64, 99
1, 120071, Control_c, 0, 64, 99
1, 120086, Control_c, 0, 64, 100
1, 120112, Note_off_c, 0, 56, 47
1, 120154, Note_on_c, 0, 59, 50
1, 120218, Control_c, 0, 64, 99
1, 120233, Control_c, 0, 64, 99
1, 120244, Note_on_c, 0, 68, 41
1, 120248, Control_c, 0, 64, 97
1, 120263, Control_c, 0, 64, 93
1, 120278, Control_c, 0, 64, 87
1, 120292, Control_c, 0, 64, 76
1, 120296, Note_on_c, 0, 76, 68
1, 120301, Note_off_c, 0, 59, 32
1, 120307, Note_on_c, 0, 56, 36
1, 120307, Control_c, 0, 64, 66
1, 120322, Control_c, 0, 64, 59
1, 120333, Note_off_c, 0, 68, 46
1, 120337, Control_c, 0, 64, 57
1, 120351, Control_c, 0, 64, 60
1, 120366, Control_c, 0, 64, 64
1, 120381, Control_c, 0, 64, 67
1, 120396, Control_c, 0, 64, 72
1, 120411, Control_c, 0, 64, 80
1, 120426, Control_c, 0, 64, 91
1, 120441, Control_c, 0, 64, 101
1, 120455, Note_on_c, 0, 59, 46
1, 120456, Control_c, 0, 64, 104
1, 120471, Control_c, 0, 64, 104
1, 120485, Control_c, 0, 64, 105
1, 120489, Note_off_c, 0, 56, 32
1, 120522, Control_c, 0, 64, 105
1, 120537, Control_c, 0, 64, 106
1, 120581, Note_off_c, 0, 59, 50
1, 120617, Note_on_c, 0, 64, 47
1, 120670, Control_c, 0, 64, 105
1, 120681, Note_off_c, 0, 64, 47
1, 120685, Control_c, 0, 64, 103
1, 120700, Control_c, 0, 64, 100
1, 120715, Control_c, 0, 64, 93
1, 120730, Control_c, 0, 64, 83
1, 120736, Note_on_c, 0, 75, 63
1, 120745, Control_c, 0, 64, 72
1, 120753, Note_off_c, 0, 76, 40
1, 120760, Control_c, 0, 64, 63
1, 120764, Note_on_c, 0, 54, 39
1, 120775, Control_c, 0, 64, 59
1, 120804, Control_c, 0, 64, 61
1, 120819, Control_c, 0, 64, 64
1, 120834, Control_c, 0, 64, 68
1, 120849, Control_c, 0, 64, 72
1, 120864, Control_c, 0, 64, 81
1, 120879, Control_c, 0, 64, 91
1, 120894, Control_c, 0, 64, 98
1, 120897, Note_off_c, 0, 54, 35
1, 120903, Note_on_c, 0, 59, 48
1, 120909, Control_c, 0, 64, 98
1, 120938, Control_c, 0, 64, 99
1, 120953, Control_c, 0, 64, 100
1, 120967, Control_c, 0, 64, 101
1, 121012, Control_c, 0, 64, 101
1, 121040, Note_off_c, 0, 59, 34
1, 121044, Note_on_c, 0, 63, 49
1, 121130, Control_c, 0, 64, 101
1, 121145, Control_c, 0, 64, 99
1, 121160, Control_c, 0, 64, 95
1, 121174, Control_c, 0, 64, 88
1, 121180, Note_off_c, 0, 63, 39
1, 121183, Note_on_c, 0, 73, 68
1, 121186, Note_on_c, 0, 54, 45
1, 121189, Control_c, 0, 64, 78
1, 121204, Control_c, 0, 64, 67
1, 121219, Control_c, 0, 64, 61
1, 121234, Control_c, 0, 64, 59
1, 121249, Control_c, 0, 64, 60
1, 121271, Control_c, 0, 64, 62
1, 121286, Control_c, 0, 64, 66
1, 121300, Control_c, 0, 64, 69
1, 121315, Control_c, 0, 64, 75
1, 121330, Control_c, 0, 64, 83
1, 121336, Note_off_c, 0, 75, 29
1, 121345, Control_c, 0, 64, 92
1, 121347, Note_off_c, 0, 54, 44
1, 121360, Control_c, 0, 64, 97
1, 121368, Note_on_c, 0, 58, 41
1, 121374, Control_c, 0, 64, 98
1, 121389, Control_c, 0, 64, 98
1, 121404, Control_c, 0, 64, 99
1, 121419, Control_c, 0, 64, 101
1, 121434, Control_c, 0, 64, 102
1, 121448, Control_c, 0, 64, 103
1, 121478, Control_c, 0, 64, 104
1, 121498, Note_off_c, 0, 58, 33
1, 121514, Note_on_c, 0, 61, 34
1, 121549, Note_off_c, 0, 61, 49
1, 121597, Control_c, 0, 64, 103
1, 121612, Control_c, 0, 64, 101
1, 121627, Control_c, 0, 64, 97
1, 121642, Control_c, 0, 64, 92
1, 121654, Note_on_c, 0, 71, 54
1, 121657, Control_c, 0, 64, 83
1, 121671, Control_c, 0, 64, 72
1, 121674, Note_on_c, 0, 47, 45
1, 121686, Control_c, 0, 64, 62
1, 121701, Control_c, 0, 64, 57
1, 121711, Note_off_c, 0, 73, 35
1, 121715, Control_c, 0, 64, 56
1, 121745, Control_c, 0, 64, 57
1, 121760, Control_c, 0, 64, 61
1, 121775, Control_c, 0, 64, 65
1, 121789, Control_c, 0, 64, 69
1, 121804, Control_c, 0, 64, 74
1, 121819, Control_c, 0, 64, 80
1, 121824, Note_off_c, 0, 47, 42
1, 121834, Control_c, 0, 64, 86
1, 121838, Note_on_c, 0, 51, 42
1, 121849, Control_c, 0, 64, 90
1, 121863, Control_c, 0, 64, 90
1, 121878, Control_c, 0, 64, 91
1, 121908, Control_c, 0, 64, 91
1, 121922, Control_c, 0, 64, 92
1, 121972, Note_off_c, 0, 51, 32
1, 121985, Note_on_c, 0, 59, 40
1, 122064, Control_c, 0, 64, 91
1, 122078, Control_c, 0, 64, 90
1, 122080, Note_off_c, 0, 59, 30
1, 122093, Control_c, 0, 64, 86
1, 122108, Control_c, 0, 64, 79
1, 122120, Note_on_c, 0, 51, 34
1, 122122, Control_c, 0, 64, 74
1, 122137, Control_c, 0, 64, 73
1, 122152, Control_c, 0, 64, 74
1, 122167, Control_c, 0, 64, 77
1, 122182, Control_c, 0, 64, 81
1, 122196, Control_c, 0, 64, 87
1, 122211, Control_c, 0, 64, 91
1, 122226, Control_c, 0, 64, 92
1, 122241, Control_c, 0, 64, 92
1, 122256, Control_c, 0, 64, 93
1, 122271, Control_c, 0, 64, 94
1, 122283, Note_on_c, 0, 54, 52
1, 122286, Note_off_c, 0, 51, 38
1, 122301, Control_c, 0, 64, 95
1, 122425, Note_on_c, 0, 59, 45
1, 122432, Note_off_c, 0, 54, 45
1, 122465, Control_c, 0, 64, 94
1, 122480, Control_c, 0, 64, 94
1, 122495, Control_c, 0, 64, 93
1, 122501, Note_off_c, 0, 71, 35
1, 122509, Control_c, 0, 64, 91
1, 122524, Control_c, 0, 64, 88
1, 122539, Control_c, 0, 64, 84
1, 122554, Control_c, 0, 64, 77
1, 122558, Note_on_c, 0, 50, 51
1, 122569, Control_c, 0, 64, 70
1, 122570, Note_off_c, 0, 59, 42
1, 122584, Control_c, 0, 64, 67
1, 122613, Control_c, 0, 64, 68
1, 122628, Control_c, 0, 64, 70
1, 122643, Control_c, 0, 64, 73
1, 122658, Control_c, 0, 64, 79
1, 122673, Control_c, 0, 64, 86
1, 122687, Control_c, 0, 64, 90
1, 122702, Control_c, 0, 64, 91
1, 122715, Note_on_c, 0, 53, 57
1, 122739, Note_off_c, 0, 50, 35
1, 122784, Control_c, 0, 64, 92
1, 122840, Note_off_c, 0, 53, 49
1, 122863, Note_on_c, 0, 59, 50
1, 122932, Control_c, 0, 64, 91
1, 122946, Control_c, 0, 64, 91
1, 122961, Control_c, 0, 64, 90
1, 122976, Control_c, 0, 64, 89
1, 122991, Control_c, 0, 64, 87
1, 123006, Control_c, 0, 64, 83
1, 123012, Note_off_c, 0, 59, 39
1, 123016, Note_on_c, 0, 71, 64
1, 123020, Control_c, 0, 64, 74
1, 123033, Note_on_c, 0, 51, 39
1, 123035, Control_c, 0, 64, 66
1, 123050, Control_c, 0, 64, 61
1, 123079, Control_c, 0, 64, 62
1, 123094, Control_c, 0, 64, 65
1, 123109, Control_c, 0, 64, 68
1, 123124, Control_c, 0, 64, 71
1, 123140, Control_c, 0, 64, 77
1, 123155, Control_c, 0, 64, 85
1, 123169, Control_c, 0, 64, 92
1, 123184, Control_c, 0, 64, 94
1, 123192, Note_off_c, 0, 51, 41
1, 123198, Note_on_c, 0, 54, 53
1, 123199, Control_c, 0, 64, 95
1, 123229, Control_c, 0, 64, 95
1, 123243, Control_c, 0, 64, 96
1, 123258, Control_c, 0, 64, 97
1, 123273, Control_c, 0, 64, 97
1, 123326, Note_on_c, 0, 59, 48
1, 123333, Note_off_c, 0, 54, 35
1, 123401, Note_on_c, 0, 75, 56
1, 123436, Control_c, 0, 64, 97
1, 123451, Control_c, 0, 64, 96
1, 123466, Control_c, 0, 64, 94
1, 123472, Note_off_c, 0, 59, 32
1, 123480, Control_c, 0, 64, 89
1, 123495, Control_c, 0, 64, 83
1, 123498, Note_on_c, 0, 47, 46
1, 123502, Note_on_c, 0, 66, 54
1, 123508, Note_on_c, 0, 78, 63
1, 123510, Control_c, 0, 64, 73
1, 123532, Control_c, 0, 64, 64
1, 123547, Control_c, 0, 64, 59
1, 123559, Note_off_c, 0, 75, 35
1, 123577, Control_c, 0, 64, 59
1, 123592, Control_c, 0, 64, 62
1, 123606, Control_c, 0, 64, 66
1, 123621, Control_c, 0, 64, 71
1, 123636, Control_c, 0, 64, 77
1, 123651, Control_c, 0, 64, 85
1, 123666, Control_c, 0, 64, 93
1, 123679, Note_off_c, 0, 47, 39
1, 123681, Control_c, 0, 64, 96
1, 123687, Note_on_c, 0, 51, 48
1, 123695, Control_c, 0, 64, 96
1, 123710, Control_c, 0, 64, 97
1, 123725, Control_c, 0, 64, 98
1, 123728, Note_off_c, 0, 66, 45
1, 123740, Control_c, 0, 64, 100
1, 123752, Note_off_c, 0, 78, 46
1, 123753, Note_off_c, 0, 71, 13
1, 123755, Control_c, 0, 64, 101
1, 123769, Control_c, 0, 64, 102
1, 123784, Control_c, 0, 64, 102
1, 123814, Control_c, 0, 64, 103
1, 123824, Note_on_c, 0, 54, 59
1, 123835, Note_off_c, 0, 51, 43
1, 123948, Control_c, 0, 64, 102
1, 123963, Control_c, 0, 64, 100
1, 123978, Note_on_c, 0, 78, 76
1, 123978, Control_c, 0, 64, 96
1, 123986, Note_on_c, 0, 47, 51
1, 123986, Note_on_c, 0, 66, 68
1, 123992, Control_c, 0, 64, 88
1, 124007, Control_c, 0, 64, 78
1, 124022, Note_off_c, 0, 54, 41
1, 124022, Control_c, 0, 64, 69
1, 124037, Control_c, 0, 64, 65
1, 124052, Control_c, 0, 64, 65
1, 124066, Control_c, 0, 64, 67
1, 124081, Control_c, 0, 64, 70
1, 124096, Control_c, 0, 64, 75
1, 124110, Control_c, 0, 64, 83
1, 124125, Control_c, 0, 64, 91
1, 124140, Control_c, 0, 64, 96
1, 124150, Note_on_c, 0, 51, 56
1, 124155, Control_c, 0, 64, 96
1, 124170, Note_off_c, 0, 47, 36
1, 124170, Control_c, 0, 64, 97
1, 124185, Control_c, 0, 64, 99
1, 124200, Control_c, 0, 64, 101
1, 124215, Control_c, 0, 64, 102
1, 124229, Control_c, 0, 64, 104
1, 124244, Control_c, 0, 64, 105
1, 124266, Control_c, 0, 64, 106
1, 124281, Control_c, 0, 64, 106
1, 124286, Note_off_c, 0, 51, 57
1, 124288, Note_on_c, 0, 54, 64
1, 124296, Note_off_c, 0, 66, 35
1, 124296, Control_c, 0, 64, 107
1, 124325, Control_c, 0, 64, 107
1, 124444, Control_c, 0, 64, 104
1, 124447, Note_on_c, 0, 79, 79
1, 124457, Note_on_c, 0, 67, 71
1, 124458, Note_on_c, 0, 46, 58
1, 124459, Control_c, 0, 64, 96
1, 124474, Control_c, 0, 64, 84
1, 124486, Note_off_c, 0, 54, 36
1, 124489, Control_c, 0, 64, 71
1, 124504, Control_c, 0, 64, 62
1, 124518, Control_c, 0, 64, 58
1, 124548, Control_c, 0, 64, 60
1, 124548, Note_off_c, 0, 78, 35
1, 124561, Control_c, 0, 64, 64
1, 124576, Control_c, 0, 64, 67
1, 124590, Control_c, 0, 64, 72
1, 124605, Control_c, 0, 64, 79
1, 124613, Note_off_c, 0, 46, 51
1, 124620, Control_c, 0, 64, 88
1, 124622, Note_on_c, 0, 49, 58
1, 124635, Control_c, 0, 64, 97
1, 124650, Control_c, 0, 64, 100
1, 124665, Control_c, 0, 64, 100
1, 124671, Note_off_c, 0, 67, 61
1, 124680, Control_c, 0, 64, 102
1, 124694, Control_c, 0, 64, 104
1, 124709, Control_c, 0, 64, 107
1, 124724, Control_c, 0, 64, 110
1, 124739, Control_c, 0, 64, 113
1, 124750, Note_off_c, 0, 49, 55
1, 124754, Control_c, 0, 64, 116
1, 124759, Note_on_c, 0, 51, 57
1, 124769, Control_c, 0, 64, 122
1, 124784, Control_c, 0, 64, 127
1, 124903, Control_c, 0, 64, 121
1, 124917, Note_on_c, 0, 80, 77
1, 124918, Control_c, 0, 64, 113
1, 124918, Note_on_c, 0, 68, 72
1, 124923, Note_on_c, 0, 44, 56
1, 124932, Control_c, 0, 64, 103
1, 124947, Control_c, 0, 64, 88
1, 124954, Note_off_c, 0, 79, 60
1, 124962, Control_c, 0, 64, 74
1, 124967, Note_off_c, 0, 51, 41
1, 124977, Control_c, 0, 64, 64
1, 124992, Control_c, 0, 64, 60
1, 125013, Control_c, 0, 64, 61
1, 125028, Control_c, 0, 64, 65
1, 125043, Control_c, 0, 64, 69
1, 125058, Control_c, 0, 64, 76
1, 125073, Control_c, 0, 64, 82
1, 125087, Note_off_c, 0, 44, 49
1, 125088, Control_c, 0, 64, 96
1, 125096, Note_on_c, 0, 49, 56
1, 125103, Control_c, 0, 64, 103
1, 125118, Control_c, 0, 64, 103
1, 125131, Note_off_c, 0, 68, 58
1, 125133, Control_c, 0, 64, 105
1, 125147, Control_c, 0, 64, 107
1, 125162, Control_c, 0, 64, 111
1, 125177, Control_c, 0, 64, 116
1, 125192, Control_c, 0, 64, 121
1, 125207, Control_c, 0, 64, 127
1, 125249, Note_on_c, 0, 51, 58
1, 125274, Note_off_c, 0, 49, 34
1, 125380, Note_on_c, 0, 82, 81
1, 125387, Note_on_c, 0, 43, 54
1, 125387, Note_on_c, 0, 70, 70
1, 125399, Control_c, 0, 64, 112
1, 125413, Control_c, 0, 64, 95
1, 125418, Note_off_c, 0, 51, 36
1, 125428, Control_c, 0, 64, 79
1, 125443, Control_c, 0, 64, 66
1, 125458, Control_c, 0, 64, 57
1, 125472, Control_c, 0, 64, 57
1, 125475, Note_off_c, 0, 80, 37
1, 125487, Control_c, 0, 64, 59
1, 125502, Control_c, 0, 64, 64
1, 125517, Control_c, 0, 64, 69
1, 125533, Control_c, 0, 64, 76
1, 125548, Control_c, 0, 64, 88
1, 125562, Control_c, 0, 64, 105
1, 125569, Note_on_c, 0, 49, 51
1, 125572, Note_off_c, 0, 43, 36
1, 125577, Control_c, 0, 64, 118
1, 125592, Control_c, 0, 64, 127
1, 125604, Note_off_c, 0, 70, 57
1, 125612, Note_on_c, 0, 80, 20
1, 125650, Note_off_c, 0, 82, 61
1, 125651, Note_off_c, 0, 80, 51
1, 125687, Note_off_c, 0, 49, 50
1, 125699, Note_on_c, 0, 51, 50
1, 125854, Note_on_c, 0, 43, 43
1, 125854, Note_on_c, 0, 85, 72
1, 125860, Note_on_c, 0, 73, 62
1, 125866, Control_c, 0, 64, 113
1, 125881, Control_c, 0, 64, 92
1, 125896, Control_c, 0, 64, 76
1, 125905, Note_off_c, 0, 51, 32
1, 125911, Control_c, 0, 64, 65
1, 125926, Control_c, 0, 64, 62
1, 125940, Control_c, 0, 64, 63
1, 125955, Control_c, 0, 64, 67
1, 125970, Control_c, 0, 64, 73
1, 125985, Control_c, 0, 64, 85
1, 126000, Control_c, 0, 64, 103
1, 126015, Control_c, 0, 64, 127
1, 126047, Note_on_c, 0, 46, 40
1, 126057, Note_off_c, 0, 43, 33
1, 126103, Note_off_c, 0, 85, 61
1, 126125, Note_off_c, 0, 73, 61
1, 126188, Note_on_c, 0, 51, 42
1, 126190, Note_off_c, 0, 46, 35
1, 126311, Control_c, 0, 64, 117
1, 126326, Control_c, 0, 64, 96
1, 126329, Note_on_c, 0, 83, 72
1, 126329, Note_off_c, 0, 51, 24
1, 126335, Note_on_c, 0, 71, 60
1, 126342, Control_c, 0, 64, 79
1, 126346, Note_on_c, 0, 44, 41
1, 126357, Control_c, 0, 64, 66
1, 126372, Control_c, 0, 64, 58
1, 126386, Control_c, 0, 64, 57
1, 126401, Control_c, 0, 64, 60
1, 126416, Control_c, 0, 64, 65
1, 126431, Control_c, 0, 64, 70
1, 126446, Control_c, 0, 64, 76
1, 126460, Control_c, 0, 64, 85
1, 126475, Control_c, 0, 64, 97
1, 126490, Control_c, 0, 64, 109
1, 126512, Control_c, 0, 64, 111
1, 126520, Note_on_c, 0, 47, 44
1, 126520, Note_off_c, 0, 44, 38
1, 126527, Control_c, 0, 64, 113
1, 126533, Note_off_c, 0, 71, 59
1, 126542, Control_c, 0, 64, 116
1, 126557, Control_c, 0, 64, 123
1, 126572, Control_c, 0, 64, 127
1, 126656, Note_off_c, 0, 47, 38
1, 126673, Note_on_c, 0, 51, 47
1, 126749, Control_c, 0, 64, 117
1, 126764, Control_c, 0, 64, 107
1, 126779, Control_c, 0, 64, 95
1, 126793, Control_c, 0, 64, 79
1, 126804, Note_on_c, 0, 82, 60
1, 126807, Note_on_c, 0, 70, 56
1, 126808, Control_c, 0, 64, 67
1, 126809, Note_off_c, 0, 51, 45
1, 126822, Note_on_c, 0, 49, 48
1, 126823, Control_c, 0, 64, 60
1, 126838, Control_c, 0, 64, 59
1, 126847, Note_off_c, 0, 83, 39
1, 126853, Control_c, 0, 64, 60
1, 126868, Control_c, 0, 64, 64
1, 126882, Control_c, 0, 64, 68
1, 126897, Control_c, 0, 64, 74
1, 126912, Control_c, 0, 64, 84
1, 126927, Control_c, 0, 64, 96
1, 126942, Control_c, 0, 64, 105
1, 126957, Control_c, 0, 64, 107
1, 126977, Note_on_c, 0, 52, 50
1, 126982, Note_off_c, 0, 49, 36
1, 126986, Control_c, 0, 64, 108
1, 126992, Note_off_c, 0, 82, 55
1, 127001, Control_c, 0, 64, 109
1, 127016, Control_c, 0, 64, 110
1, 127017, Note_off_c, 0, 70, 37
1, 127103, Note_on_c, 0, 58, 48
1, 127104, Control_c, 0, 64, 110
1, 127126, Note_off_c, 0, 52, 31
1, 127172, Note_on_c, 0, 80, 61
1, 127174, Note_on_c, 0, 68, 56
1, 127199, Note_off_c, 0, 80, 58
1, 127206, Note_off_c, 0, 68, 58
1, 127224, Control_c, 0, 64, 109
1, 127239, Control_c, 0, 64, 107
1, 127261, Control_c, 0, 64, 104
1, 127276, Control_c, 0, 64, 98
1, 127291, Control_c, 0, 64, 92
1, 127302, Note_off_c, 0, 58, 33
1, 127306, Control_c, 0, 64, 81
1, 127321, Control_c, 0, 64, 70
1, 127327, Note_on_c, 0, 79, 60
1, 127331, Note_on_c, 0, 51, 26
1, 127331, Note_on_c, 0, 67, 45
1, 127335, Control_c, 0, 64, 62
1, 127350, Control_c, 0, 64, 56
1, 127365, Control_c, 0, 64, 55
1, 127380, Control_c, 0, 64, 56
1, 127386, Note_off_c, 0, 67, 0
1, 127386, Note_on_c, 0, 67, 8
1, 127395, Control_c, 0, 64, 59
1, 127409, Control_c, 0, 64, 65
1, 127424, Control_c, 0, 64, 69
1, 127439, Control_c, 0, 64, 74
1, 127454, Control_c, 0, 64, 83
1, 127468, Control_c, 0, 64, 92
1, 127483, Control_c, 0, 64, 98
1, 127489, Note_off_c, 0, 51, 35
1, 127498, Control_c, 0, 64, 99
1, 127507, Note_off_c, 0, 67, 42
1, 127517, Note_on_c, 0, 58, 36
1, 127528, Control_c, 0, 64, 100
1, 127535, Note_off_c, 0, 79, 36
1, 127542, Control_c, 0, 64, 101
1, 127556, Control_c, 0, 64, 102
1, 127634, Note_off_c, 0, 58, 27
1, 127635, Note_on_c, 0, 61, 36
1, 127703, Note_off_c, 0, 61, 35
1, 127705, Control_c, 0, 64, 101
1, 127720, Control_c, 0, 64, 99
1, 127734, Control_c, 0, 64, 96
1, 127749, Control_c, 0, 64, 92
1, 127764, Control_c, 0, 64, 86
1, 127776, Note_on_c, 0, 67, 50
1, 127777, Note_on_c, 0, 79, 55
1, 127778, Control_c, 0, 64, 76
1, 127793, Control_c, 0, 64, 67
1, 127794, Note_on_c, 0, 51, 25
1, 127808, Control_c, 0, 64, 61
1, 127824, Note_off_c, 0, 67, 0
1, 127824, Note_on_c, 0, 67, 14
1, 127838, Control_c, 0, 64, 63
1, 127852, Control_c, 0, 64, 65
1, 127867, Control_c, 0, 64, 68
1, 127882, Control_c, 0, 64, 72
1, 127897, Control_c, 0, 64, 78
1, 127912, Control_c, 0, 64, 87
1, 127928, Control_c, 0, 64, 92
1, 127933, Note_off_c, 0, 67, 53
1, 127943, Control_c, 0, 64, 94
1, 127957, Note_off_c, 0, 51, 39
1, 127957, Control_c, 0, 64, 94
1, 127959, Note_on_c, 0, 58, 42
1, 127972, Control_c, 0, 64, 95
1, 127987, Control_c, 0, 64, 97
1, 128009, Control_c, 0, 64, 98
1, 128024, Control_c, 0, 64, 99
1, 128098, Note_off_c, 0, 58, 31
1, 128099, Note_on_c, 0, 61, 38
1, 128143, Control_c, 0, 64, 98
1, 128157, Control_c, 0, 64, 97
1, 128172, Control_c, 0, 64, 96
1, 128187, Control_c, 0, 64, 92
1, 128202, Control_c, 0, 64, 85
1, 128216, Control_c, 0, 64, 75
1, 128228, Note_on_c, 0, 51, 34
1, 128229, Note_off_c, 0, 79, 43
1, 128231, Control_c, 0, 64, 66
1, 128237, Note_on_c, 0, 80, 52
1, 128241, Note_off_c, 0, 61, 24
1, 128246, Control_c, 0, 64, 65
1, 128249, Note_on_c, 0, 68, 54
1, 128261, Control_c, 0, 64, 66
1, 128275, Control_c, 0, 64, 68
1, 128290, Control_c, 0, 64, 72
1, 128305, Control_c, 0, 64, 77
1, 128320, Control_c, 0, 64, 85
1, 128335, Control_c, 0, 64, 91
1, 128350, Control_c, 0, 64, 93
1, 128364, Control_c, 0, 64, 94
1, 128366, Note_off_c, 0, 80, 37
1, 128376, Note_off_c, 0, 68, 35
1, 128379, Control_c, 0, 64, 95
1, 128394, Control_c, 0, 64, 96
1, 128421, Note_on_c, 0, 58, 44
1, 128424, Control_c, 0, 64, 97
1, 128441, Note_off_c, 0, 51, 38
1, 128453, Control_c, 0, 64, 97
1, 128478, Note_on_c, 0, 79, 66
1, 128486, Note_on_c, 0, 67, 60
1, 128561, Note_off_c, 0, 79, 53
1, 128566, Note_off_c, 0, 67, 55
1, 128582, Note_off_c, 0, 58, 40
1, 128594, Note_on_c, 0, 61, 49
1, 128631, Control_c, 0, 64, 97
1, 128646, Control_c, 0, 64, 96
1, 128661, Control_c, 0, 64, 95
1, 128675, Control_c, 0, 64, 93
1, 128690, Control_c, 0, 64, 90
1, 128705, Control_c, 0, 64, 85
1, 128717, Note_on_c, 0, 51, 45
1, 128720, Control_c, 0, 64, 74
1, 128735, Note_off_c, 0, 61, 39
1, 128736, Note_on_c, 0, 77, 62
1, 128736, Control_c, 0, 64, 66
1, 128737, Note_on_c, 0, 65, 57
1, 128758, Control_c, 0, 64, 64
1, 128773, Control_c, 0, 64, 65
1, 128787, Control_c, 0, 64, 67
1, 128789, Note_off_c, 0, 65, 48
1, 128802, Control_c, 0, 64, 70
1, 128817, Control_c, 0, 64, 76
1, 128832, Control_c, 0, 64, 85
1, 128847, Control_c, 0, 64, 91
1, 128862, Control_c, 0, 64, 94
1, 128893, Note_on_c, 0, 58, 52
1, 128906, Control_c, 0, 64, 94
1, 128938, Note_off_c, 0, 51, 31
1, 128974, Note_off_c, 0, 77, 58
1, 128986, Note_on_c, 0, 79, 65
1, 128995, Note_on_c, 0, 67, 48
1, 129039, Note_off_c, 0, 67, 44
1, 129058, Note_off_c, 0, 58, 41
1, 129086, Note_on_c, 0, 61, 43
1, 129114, Control_c, 0, 64, 94
1, 129129, Control_c, 0, 64, 93
1, 129144, Control_c, 0, 64, 92
1, 129159, Control_c, 0, 64, 90
1, 129174, Control_c, 0, 64, 87
1, 129188, Control_c, 0, 64, 82
1, 129203, Control_c, 0, 64, 76
1, 129218, Control_c, 0, 64, 69
1, 129219, Note_off_c, 0, 61, 37
1, 129232, Control_c, 0, 64, 63
1, 129247, Control_c, 0, 64, 61
1, 129250, Note_on_c, 0, 56, 44
1, 129251, Note_on_c, 0, 80, 64
1, 129262, Control_c, 0, 64, 60
1, 129269, Note_on_c, 0, 68, 48
1, 129283, Note_off_c, 0, 79, 37
1, 129336, Control_c, 0, 64, 61
1, 129351, Control_c, 0, 64, 65
1, 129366, Control_c, 0, 64, 68
1, 129380, Control_c, 0, 64, 73
1, 129395, Note_off_c, 0, 56, 50
1, 129395, Control_c, 0, 64, 81
1, 129410, Control_c, 0, 64, 90
1, 129420, Note_on_c, 0, 60, 46
1, 129425, Control_c, 0, 64, 96
1, 129440, Control_c, 0, 64, 97
1, 129455, Control_c, 0, 64, 98
1, 129470, Control_c, 0, 64, 98
1, 129485, Control_c, 0, 64, 99
1, 129506, Control_c, 0, 64, 99
1, 129550, Note_off_c, 0, 68, 39
1, 129561, Note_off_c, 0, 60, 36
1, 129576, Note_on_c, 0, 63, 44
1, 129641, Control_c, 0, 64, 99
1, 129655, Control_c, 0, 64, 98
1, 129670, Control_c, 0, 64, 97
1, 129682, Note_off_c, 0, 80, 34
1, 129685, Control_c, 0, 64, 95
1, 129687, Note_off_c, 0, 63, 25
1, 129697, Note_on_c, 0, 60, 48
1, 129700, Control_c, 0, 64, 91
1, 129715, Control_c, 0, 64, 81
1, 129729, Control_c, 0, 64, 71
1, 129744, Control_c, 0, 64, 67
1, 129759, Control_c, 0, 64, 69
1, 129774, Control_c, 0, 64, 72
1, 129789, Control_c, 0, 64, 76
1, 129804, Control_c, 0, 64, 83
1, 129819, Control_c, 0, 64, 89
1, 129834, Control_c, 0, 64, 92
1, 129848, Control_c, 0, 64, 93
1, 129854, Note_on_c, 0, 63, 41
1, 129878, Control_c, 0, 64, 93
1, 129880, Note_off_c, 0, 60, 34
1, 130013, Note_on_c, 0, 68, 45
1, 130015, Note_off_c, 0, 63, 36
1, 130070, Control_c, 0, 64, 92
1, 130085, Control_c, 0, 64, 92
1, 130100, Control_c, 0, 64, 90
1, 130115, Control_c, 0, 64, 87
1, 130129, Control_c, 0, 64, 84
1, 130144, Control_c, 0, 64, 80
1, 130159, Control_c, 0, 64, 74
1, 130160, Note_on_c, 0, 59, 37
1, 130173, Note_off_c, 0, 68, 19
1, 130174, Control_c, 0, 64, 67
1, 130188, Control_c, 0, 64, 62
1, 130203, Control_c, 0, 64, 60
1, 130233, Control_c, 0, 64, 61
1, 130248, Control_c, 0, 64, 63
1, 130270, Control_c, 0, 64, 67
1, 130285, Control_c, 0, 64, 71
1, 130300, Control_c, 0, 64, 76
1, 130315, Control_c, 0, 64, 83
1, 130326, Note_on_c, 0, 62, 39
1, 130331, Control_c, 0, 64, 89
1, 130336, Note_off_c, 0, 59, 33
1, 130346, Control_c, 0, 64, 92
1, 130360, Control_c, 0, 64, 92
1, 130390, Control_c, 0, 64, 93
1, 130404, Control_c, 0, 64, 93
1, 130470, Note_on_c, 0, 68, 46
1, 130483, Note_off_c, 0, 62, 38
1, 130567, Control_c, 0, 64, 93
1, 130582, Control_c, 0, 64, 92
1, 130597, Control_c, 0, 64, 90
1, 130612, Control_c, 0, 64, 88
1, 130626, Control_c, 0, 64, 84
1, 130629, Note_off_c, 0, 68, 35
1, 130631, Note_on_c, 0, 80, 53
1, 130640, Note_on_c, 0, 60, 36
1, 130641, Control_c, 0, 64, 78
1, 130656, Control_c, 0, 64, 70
1, 130671, Control_c, 0, 64, 63
1, 130686, Control_c, 0, 64, 61
1, 130716, Control_c, 0, 64, 62
1, 130731, Control_c, 0, 64, 64
1, 130746, Control_c, 0, 64, 68
1, 130760, Control_c, 0, 64, 72
1, 130775, Control_c, 0, 64, 80
1, 130785, Note_off_c, 0, 60, 25
1, 130790, Control_c, 0, 64, 88
1, 130804, Control_c, 0, 64, 94
1, 130808, Note_on_c, 0, 63, 39
1, 130819, Control_c, 0, 64, 95
1, 130834, Control_c, 0, 64, 96
1, 130849, Control_c, 0, 64, 96
1, 130878, Control_c, 0, 64, 97
1, 130893, Control_c, 0, 64, 97
1, 130908, Control_c, 0, 64, 98
1, 130938, Control_c, 0, 64, 98
1, 130945, Note_off_c, 0, 63, 41
1, 130957, Note_on_c, 0, 68, 36
1, 130993, Note_off_c, 0, 80, 0
1, 130994, Note_on_c, 0, 84, 50
1, 131049, Control_c, 0, 64, 98
1, 131059, Poly_aftertouch_c, 0, 80, 0
1, 131064, Control_c, 0, 64, 97
1, 131078, Control_c, 0, 64, 94
1, 131093, Control_c, 0, 64, 91
1, 131095, Poly_aftertouch_c, 0, 80, 127
1, 131108, Control_c, 0, 64, 87
1, 131116, Note_on_c, 0, 87, 58
1, 131123, Control_c, 0, 64, 80
1, 131129, Note_on_c, 0, 75, 45
1, 131130, Note_on_c, 0, 56, 37
1, 131137, Note_off_c, 0, 68, 32
1, 131139, Control_c, 0, 64, 71
1, 131143, Note_off_c, 0, 84, 40
1, 131154, Control_c, 0, 64, 64
1, 131169, Control_c, 0, 64, 60
1, 131198, Control_c, 0, 64, 61
1, 131213, Control_c, 0, 64, 64
1, 131227, Control_c, 0, 64, 68
1, 131242, Control_c, 0, 64, 72
1, 131257, Control_c, 0, 64, 78
1, 131272, Control_c, 0, 64, 87
1, 131287, Control_c, 0, 64, 94
1, 131297, Note_off_c, 0, 56, 33
1, 131299, Note_on_c, 0, 60, 41
1, 131301, Control_c, 0, 64, 96
1, 131315, Note_off_c, 0, 75, 35
1, 131331, Control_c, 0, 64, 97
1, 131336, Poly_aftertouch_c, 0, 80, 0
1, 131339, Note_off_c, 0, 87, 36
1, 131346, Control_c, 0, 64, 98
1, 131375, Control_c, 0, 64, 98
1, 131438, Note_off_c, 0, 60, 40
1, 131449, Note_on_c, 0, 68, 40
1, 131539, Control_c, 0, 64, 98
1, 131554, Control_c, 0, 64, 97
1, 131568, Control_c, 0, 64, 95
1, 131583, Control_c, 0, 64, 90
1, 131587, Note_on_c, 0, 87, 65
1, 131592, Note_on_c, 0, 60, 42
1, 131598, Control_c, 0, 64, 82
1, 131598, Note_on_c, 0, 75, 48
1, 131613, Control_c, 0, 64, 73
1, 131627, Control_c, 0, 64, 66
1, 131642, Control_c, 0, 64, 64
1, 131646, Note_off_c, 0, 68, 36
1, 131657, Control_c, 0, 64, 65
1, 131672, Control_c, 0, 64, 67
1, 131687, Control_c, 0, 64, 71
1, 131701, Control_c, 0, 64, 76
1, 131716, Control_c, 0, 64, 83
1, 131731, Control_c, 0, 64, 91
1, 131753, Control_c, 0, 64, 94
1, 131768, Control_c, 0, 64, 95
1, 131771, Note_on_c, 0, 63, 51
1, 131780, Note_off_c, 0, 60, 35
1, 131783, Control_c, 0, 64, 96
1, 131798, Control_c, 0, 64, 97
1, 131813, Control_c, 0, 64, 99
1, 131827, Control_c, 0, 64, 100
1, 131832, Note_off_c, 0, 75, 35
1, 131842, Control_c, 0, 64, 101
1, 131877, Note_off_c, 0, 87, 37
1, 131918, Note_on_c, 0, 68, 51
1, 131958, Note_off_c, 0, 63, 41
1, 132036, Control_c, 0, 64, 100
1, 132050, Control_c, 0, 64, 99
1, 132065, Note_on_c, 0, 87, 71
1, 132065, Control_c, 0, 64, 96
1, 132066, Note_on_c, 0, 75, 65
1, 132080, Control_c, 0, 64, 91
1, 132090, Note_on_c, 0, 59, 45
1, 132095, Control_c, 0, 64, 82
1, 132110, Control_c, 0, 64, 73
1, 132124, Control_c, 0, 64, 65
1, 132139, Control_c, 0, 64, 62
1, 132163, Note_off_c, 0, 68, 34
1, 132183, Control_c, 0, 64, 64
1, 132198, Control_c, 0, 64, 67
1, 132213, Control_c, 0, 64, 71
1, 132228, Control_c, 0, 64, 76
1, 132232, Note_off_c, 0, 59, 53
1, 132243, Control_c, 0, 64, 84
1, 132246, Note_on_c, 0, 62, 53
1, 132257, Control_c, 0, 64, 93
1, 132272, Control_c, 0, 64, 99
1, 132287, Control_c, 0, 64, 100
1, 132302, Control_c, 0, 64, 101
1, 132317, Control_c, 0, 64, 102
1, 132320, Note_off_c, 0, 75, 50
1, 132332, Control_c, 0, 64, 104
1, 132346, Control_c, 0, 64, 106
1, 132361, Control_c, 0, 64, 108
1, 132376, Note_off_c, 0, 87, 49
1, 132376, Control_c, 0, 64, 108
1, 132382, Note_off_c, 0, 62, 50
1, 132385, Note_on_c, 0, 68, 58
1, 132517, Control_c, 0, 64, 107
1, 132531, Control_c, 0, 64, 105
1, 132546, Note_on_c, 0, 87, 70
1, 132546, Control_c, 0, 64, 101
1, 132549, Note_on_c, 0, 75, 72
1, 132561, Control_c, 0, 64, 95
1, 132564, Note_on_c, 0, 60, 49
1, 132576, Control_c, 0, 64, 85
1, 132591, Control_c, 0, 64, 75
1, 132606, Control_c, 0, 64, 68
1, 132621, Control_c, 0, 64, 67
1, 132623, Note_off_c, 0, 68, 37
1, 132636, Control_c, 0, 64, 68
1, 132650, Control_c, 0, 64, 72
1, 132665, Control_c, 0, 64, 78
1, 132680, Control_c, 0, 64, 87
1, 132695, Control_c, 0, 64, 96
1, 132710, Control_c, 0, 64, 102
1, 132725, Control_c, 0, 64, 103
1, 132729, Note_on_c, 0, 63, 56
1, 132740, Control_c, 0, 64, 104
1, 132752, Note_off_c, 0, 75, 57
1, 132755, Control_c, 0, 64, 105
1, 132758, Note_off_c, 0, 60, 33
1, 132770, Control_c, 0, 64, 107
1, 132785, Control_c, 0, 64, 108
1, 132814, Control_c, 0, 64, 108
1, 132829, Control_c, 0, 64, 109
1, 132844, Control_c, 0, 64, 109
1, 132856, Note_off_c, 0, 63, 55
1, 132859, Control_c, 0, 64, 110
1, 132872, Note_on_c, 0, 68, 60
1, 132962, Control_c, 0, 64, 108
1, 132977, Control_c, 0, 64, 106
1, 132992, Control_c, 0, 64, 102
1, 133006, Control_c, 0, 64, 97
1, 133021, Control_c, 0, 64, 87
1, 133023, Note_on_c, 0, 89, 73
1, 133028, Note_on_c, 0, 77, 64
1, 133036, Control_c, 0, 64, 76
1, 133039, Note_on_c, 0, 61, 45
1, 133051, Note_off_c, 0, 68, 39
1, 133051, Control_c, 0, 64, 66
1, 133066, Control_c, 0, 64, 60
1, 133080, Note_off_c, 0, 87, 40
1, 133080, Control_c, 0, 64, 59
1, 133110, Control_c, 0, 64, 60
1, 133125, Control_c, 0, 64, 64
1, 133140, Control_c, 0, 64, 68
1, 133154, Control_c, 0, 64, 73
1, 133169, Control_c, 0, 64, 82
1, 133184, Control_c, 0, 64, 93
1, 133192, Note_off_c, 0, 61, 49
1, 133197, Note_off_c, 0, 77, 55
1, 133199, Control_c, 0, 64, 103
1, 133211, Note_on_c, 0, 65, 51
1, 133214, Control_c, 0, 64, 105
1, 133229, Control_c, 0, 64, 105
1, 133239, Note_off_c, 0, 89, 58
1, 133251, Control_c, 0, 64, 106
1, 133266, Control_c, 0, 64, 107
1, 133280, Control_c, 0, 64, 107
1, 133343, Note_off_c, 0, 65, 43
1, 133352, Note_on_c, 0, 68, 45
1, 133458, Control_c, 0, 64, 106
1, 133473, Control_c, 0, 64, 105
1, 133488, Control_c, 0, 64, 101
1, 133495, Note_on_c, 0, 91, 79
1, 133500, Note_on_c, 0, 79, 67
1, 133503, Control_c, 0, 64, 93
1, 133511, Note_on_c, 0, 61, 45
1, 133518, Control_c, 0, 64, 82
1, 133520, Note_off_c, 0, 68, 33
1, 133533, Control_c, 0, 64, 71
1, 133548, Control_c, 0, 64, 66
1, 133578, Control_c, 0, 64, 69
1, 133592, Control_c, 0, 64, 72
1, 133607, Control_c, 0, 64, 79
1, 133622, Control_c, 0, 64, 89
1, 133637, Control_c, 0, 64, 100
1, 133652, Control_c, 0, 64, 102
1, 133664, Note_on_c, 0, 63, 47
1, 133664, Note_off_c, 0, 61, 37
1, 133667, Control_c, 0, 64, 103
1, 133678, Note_off_c, 0, 79, 59
1, 133682, Control_c, 0, 64, 104
1, 133696, Control_c, 0, 64, 104
1, 133711, Control_c, 0, 64, 105
1, 133726, Control_c, 0, 64, 105
1, 133740, Control_c, 0, 64, 106
1, 133805, Note_on_c, 0, 70, 48
1, 133831, Note_off_c, 0, 63, 39
1, 133874, Control_c, 0, 64, 105
1, 133889, Control_c, 0, 64, 104
1, 133903, Control_c, 0, 64, 102
1, 133918, Control_c, 0, 64, 99
1, 133933, Control_c, 0, 64, 94
1, 133947, Control_c, 0, 64, 85
1, 133962, Control_c, 0, 64, 74
1, 133965, Note_on_c, 0, 60, 40
1, 133965, Note_on_c, 0, 92, 77
1, 133968, Note_on_c, 0, 80, 62
1, 133969, Note_off_c, 0, 70, 39
1, 133977, Control_c, 0, 64, 64
1, 134000, Control_c, 0, 64, 59
1, 134015, Control_c, 0, 64, 60
1, 134028, Note_off_c, 0, 91, 51
1, 134029, Control_c, 0, 64, 62
1, 134044, Control_c, 0, 64, 65
1, 134059, Control_c, 0, 64, 69
1, 134074, Control_c, 0, 64, 74
1, 134089, Control_c, 0, 64, 81
1, 134103, Control_c, 0, 64, 92
1, 134118, Control_c, 0, 64, 101
1, 134133, Control_c, 0, 64, 104
1, 134143, Note_off_c, 0, 92, 59
1, 134147, Control_c, 0, 64, 105
1, 134153, Note_off_c, 0, 80, 52
1, 134158, Note_on_c, 0, 63, 43
1, 134159, Note_off_c, 0, 60, 30
1, 134177, Control_c, 0, 64, 105
1, 134305, Note_on_c, 0, 68, 34
1, 134311, Note_off_c, 0, 63, 37
1, 134341, Control_c, 0, 64, 105
1, 134356, Control_c, 0, 64, 104
1, 134370, Control_c, 0, 64, 103
1, 134385, Note_off_c, 0, 68, 31
1, 134385, Control_c, 0, 64, 101
1, 134400, Control_c, 0, 64, 99
1, 134415, Control_c, 0, 64, 95
1, 134430, Control_c, 0, 64, 88
1, 134442, Note_on_c, 0, 60, 36
1, 134445, Control_c, 0, 64, 76
1, 134455, Note_on_c, 0, 87, 68
1, 134460, Control_c, 0, 64, 68
1, 134460, Note_on_c, 0, 75, 58
1, 134475, Control_c, 0, 64, 66
1, 134490, Control_c, 0, 64, 66
1, 134505, Control_c, 0, 64, 68
1, 134519, Control_c, 0, 64, 72
1, 134534, Control_c, 0, 64, 80
1, 134549, Control_c, 0, 64, 95
1, 134564, Control_c, 0, 64, 112
1, 134578, Control_c, 0, 64, 127
1, 134615, Note_off_c, 0, 87, 51
1, 134624, Note_off_c, 0, 75, 54
1, 134642, Note_on_c, 0, 63, 44
1, 134658, Note_off_c, 0, 60, 35
1, 134788, Note_on_c, 0, 68, 47
1, 134790, Note_off_c, 0, 63, 44
1, 134912, Control_c, 0, 64, 120
1, 134926, Control_c, 0, 64, 108
1, 134941, Control_c, 0, 64, 97
1, 134956, Control_c, 0, 64, 83
1, 134962, Note_on_c, 0, 87, 59
1, 134970, Control_c, 0, 64, 71
1, 134973, Note_on_c, 0, 58, 33
1, 134973, Note_on_c, 0, 75, 49
1, 134982, Note_off_c, 0, 68, 40
1, 134985, Control_c, 0, 64, 63
1, 135000, Control_c, 0, 64, 62
1, 135015, Control_c, 0, 64, 63
1, 135030, Control_c, 0, 64, 65
1, 135044, Control_c, 0, 64, 67
1, 135059, Control_c, 0, 64, 71
1, 135074, Control_c, 0, 64, 76
1, 135089, Control_c, 0, 64, 83
1, 135104, Control_c, 0, 64, 89
1, 135120, Control_c, 0, 64, 92
1, 135135, Control_c, 0, 64, 93
1, 135149, Note_on_c, 0, 63, 42
1, 135153, Note_off_c, 0, 58, 35
1, 135164, Control_c, 0, 64, 93
1, 135179, Control_c, 0, 64, 94
1, 135193, Control_c, 0, 64, 94
1, 135256, Note_off_c, 0, 87, 36
1, 135268, Note_off_c, 0, 75, 58
1, 135268, Control_c, 0, 64, 94
1, 135289, Note_off_c, 0, 63, 43
1, 135292, Note_on_c, 0, 67, 41
1, 135298, Control_c, 0, 64, 93
1, 135312, Control_c, 0, 64, 92
1, 135327, Control_c, 0, 64, 91
1, 135342, Control_c, 0, 64, 89
1, 135357, Control_c, 0, 64, 87
1, 135372, Control_c, 0, 64, 84
1, 135387, Control_c, 0, 64, 81
1, 135391, Note_off_c, 0, 67, 27
1, 135401, Control_c, 0, 64, 75
1, 135413, Note_on_c, 0, 73, 56
1, 135416, Control_c, 0, 64, 69
1, 135419, Note_on_c, 0, 85, 60
1, 135431, Note_on_c, 0, 58, 32
1, 135431, Control_c, 0, 64, 65
1, 135446, Control_c, 0, 64, 64
1, 135461, Control_c, 0, 64, 65
1, 135475, Control_c, 0, 64, 68
1, 135497, Control_c, 0, 64, 71
1, 135512, Control_c, 0, 64, 77
1, 135527, Control_c, 0, 64, 86
1, 135536, Note_off_c, 0, 73, 56
1, 135542, Control_c, 0, 64, 95
1, 135557, Control_c, 0, 64, 99
1, 135562, Note_off_c, 0, 85, 52
1, 135579, Note_off_c, 0, 58, 39
1, 135596, Note_on_c, 0, 63, 45
1, 135693, Note_off_c, 0, 63, 0
1, 135719, Note_on_c, 0, 67, 41
1, 135727, Poly_aftertouch_c, 0, 63, 0
1, 135749, Control_c, 0, 64, 99
1, 135764, Control_c, 0, 64, 98
1, 135779, Control_c, 0, 64, 96
1, 135793, Control_c, 0, 64, 94
1, 135808, Control_c, 0, 64, 92
1, 135823, Control_c, 0, 64, 90
1, 135838, Control_c, 0, 64, 88
1, 135853, Control_c, 0, 64, 87
1, 135868, Control_c, 0, 64, 84
1, 135882, Control_c, 0, 64, 79
1, 135897, Note_off_c, 0, 67, 30
1, 135897, Control_c, 0, 64, 73
1, 135899, Note_on_c, 0, 85, 58
1, 135907, Note_on_c, 0, 56, 29
1, 135912, Note_on_c, 0, 73, 41
1, 135912, Control_c, 0, 64, 67
1, 135928, Control_c, 0, 64, 63
1, 135942, Control_c, 0, 64, 62
1, 135972, Control_c, 0, 64, 63
1, 135987, Control_c, 0, 64, 66
1, 136002, Control_c, 0, 64, 71
1, 136016, Control_c, 0, 64, 77
1, 136031, Control_c, 0, 64, 87
1, 136046, Control_c, 0, 64, 98
1, 136061, Control_c, 0, 64, 103
1, 136076, Control_c, 0, 64, 104
1, 136091, Note_on_c, 0, 63, 41
1, 136120, Note_off_c, 0, 56, 37
1, 136120, Control_c, 0, 64, 104
1, 136153, Note_off_c, 0, 85, 52
1, 136189, Note_off_c, 0, 63, 29
1, 136198, Note_off_c, 0, 73, 36
1, 136230, Note_on_c, 0, 68, 31
1, 136276, Control_c, 0, 64, 103
1, 136291, Control_c, 0, 64, 102
1, 136305, Control_c, 0, 64, 99
1, 136320, Control_c, 0, 64, 94
1, 136335, Control_c, 0, 64, 88
1, 136350, Control_c, 0, 64, 81
1, 136355, Note_on_c, 0, 56, 35
1, 136365, Control_c, 0, 64, 73
1, 136369, Note_off_c, 0, 68, 23
1, 136371, Note_on_c, 0, 72, 51
1, 136373, Note_on_c, 0, 84, 57
1, 136380, Control_c, 0, 64, 67
1, 136394, Control_c, 0, 64, 62
1, 136409, Control_c, 0, 64, 62
1, 136439, Control_c, 0, 64, 63
1, 136454, Control_c, 0, 64, 66
1, 136469, Control_c, 0, 64, 70
1, 136484, Control_c, 0, 64, 75
1, 136496, Note_off_c, 0, 72, 54
1, 136498, Control_c, 0, 64, 85
1, 136513, Control_c, 0, 64, 94
1, 136528, Control_c, 0, 64, 99
1, 136542, Control_c, 0, 64, 100
1, 136549, Note_off_c, 0, 56, 39
1, 136561, Note_on_c, 0, 63, 42
1, 136572, Control_c, 0, 64, 100
1, 136616, Control_c, 0, 67, 19
1, 136631, Control_c, 0, 67, 25
1, 136646, Control_c, 0, 67, 32
1, 136661, Control_c, 0, 67, 39
1, 136675, Control_c, 0, 67, 48
1, 136690, Control_c, 0, 67, 55
1, 136705, Note_off_c, 0, 63, 40
1, 136705, Control_c, 0, 67, 62
1, 136715, Note_on_c, 0, 68, 45
1, 136721, Control_c, 0, 67, 67
1, 136736, Control_c, 0, 67, 72
1, 136751, Control_c, 0, 67, 77
1, 136766, Control_c, 0, 67, 82
1, 136780, Control_c, 0, 67, 85
1, 136795, Control_c, 0, 64, 100
1, 136795, Control_c, 0, 67, 87
1, 136810, Control_c, 0, 64, 99
1, 136810, Control_c, 0, 67, 89
1, 136825, Control_c, 0, 64, 98
1, 136825, Control_c, 0, 67, 90
1, 136839, Control_c, 0, 64, 96
1, 136839, Control_c, 0, 67, 92
1, 136854, Control_c, 0, 64, 93
1, 136854, Control_c, 0, 67, 93
1, 136869, Control_c, 0, 64, 89
1, 136869, Control_c, 0, 67, 95
1, 136884, Control_c, 0, 64, 85
1, 136884, Control_c, 0, 67, 97
1, 136889, Note_off_c, 0, 68, 36
1, 136899, Control_c, 0, 64, 80
1, 136899, Control_c, 0, 67, 99
1, 136912, Note_on_c, 0, 82, 60
1, 136913, Control_c, 0, 64, 76
1, 136913, Control_c, 0, 67, 100
1, 136918, Note_on_c, 0, 61, 32
1, 136928, Control_c, 0, 64, 71
1, 136928, Control_c, 0, 67, 101
1, 136943, Control_c, 0, 64, 67
1, 136958, Control_c, 0, 64, 63
1, 136964, Note_off_c, 0, 84, 34
1, 136973, Control_c, 0, 64, 58
1, 136995, Control_c, 0, 64, 49
1, 137010, Control_c, 0, 64, 43
1, 137025, Control_c, 0, 64, 36
1, 137040, Control_c, 0, 64, 32
1, 137054, Control_c, 0, 64, 33
1, 137069, Control_c, 0, 64, 40
1, 137084, Control_c, 0, 64, 54
1, 137098, Control_c, 0, 64, 63
1, 137113, Control_c, 0, 64, 69
1, 137128, Control_c, 0, 64, 72
1, 137143, Note_off_c, 0, 61, 38
1, 137143, Control_c, 0, 64, 76
1, 137144, Note_on_c, 0, 68, 33
1, 137158, Control_c, 0, 64, 79
1, 137173, Control_c, 0, 64, 81
1, 137187, Control_c, 0, 64, 83
1, 137202, Control_c, 0, 64, 85
1, 137217, Control_c, 0, 64, 86
1, 137232, Control_c, 0, 64, 88
1, 137247, Control_c, 0, 64, 88
1, 137262, Control_c, 0, 64, 89
1, 137290, Note_off_c, 0, 68, 36
1, 137316, Note_on_c, 0, 70, 36
1, 137395, Control_c, 0, 64, 88
1, 137410, Control_c, 0, 64, 86
1, 137420, Note_on_c, 0, 85, 60
1, 137423, Note_off_c, 0, 70, 26
1, 137425, Control_c, 0, 64, 83
1, 137439, Control_c, 0, 64, 77
1, 137441, Note_on_c, 0, 65, 40
1, 137454, Control_c, 0, 64, 69
1, 137469, Control_c, 0, 64, 64
1, 137484, Control_c, 0, 64, 63
1, 137488, Note_off_c, 0, 82, 37
1, 137498, Control_c, 0, 64, 64
1, 137514, Control_c, 0, 64, 66
1, 137529, Control_c, 0, 64, 69
1, 137544, Control_c, 0, 64, 74
1, 137559, Control_c, 0, 64, 80
1, 137574, Control_c, 0, 64, 86
1, 137588, Control_c, 0, 64, 89
1, 137603, Control_c, 0, 64, 90
1, 137607, Note_on_c, 0, 68, 39
1, 137614, Note_off_c, 0, 65, 35
1, 137618, Control_c, 0, 64, 91
1, 137633, Control_c, 0, 64, 92
1, 137648, Control_c, 0, 64, 93
1, 137662, Control_c, 0, 64, 94
1, 137677, Control_c, 0, 64, 94
1, 137707, Control_c, 0, 64, 95
1, 137757, Note_on_c, 0, 73, 40
1, 137780, Note_off_c, 0, 68, 35
1, 137818, Control_c, 0, 64, 94
1, 137833, Control_c, 0, 64, 94
1, 137848, Control_c, 0, 64, 92
1, 137863, Control_c, 0, 64, 90
1, 137877, Control_c, 0, 64, 88
1, 137884, Note_on_c, 0, 84, 61
1, 137892, Control_c, 0, 64, 83
1, 137905, Note_off_c, 0, 73, 38
1, 137907, Control_c, 0, 64, 75
1, 137917, Note_on_c, 0, 63, 32
1, 137921, Control_c, 0, 64, 66
1, 137936, Control_c, 0, 64, 62
1, 137944, Note_off_c, 0, 85, 35
1, 137966, Control_c, 0, 64, 63
1, 137981, Control_c, 0, 64, 65
1, 137995, Control_c, 0, 64, 68
1, 138010, Control_c, 0, 64, 71
1, 138025, Control_c, 0, 64, 77
1, 138040, Control_c, 0, 64, 82
1, 138055, Control_c, 0, 64, 86
1, 138070, Control_c, 0, 64, 87
1, 138070, Note_off_c, 0, 63, 39
1, 138085, Control_c, 0, 64, 88
1, 138088, Note_on_c, 0, 68, 41
1, 138100, Control_c, 0, 64, 89
1, 138114, Control_c, 0, 64, 90
1, 138129, Control_c, 0, 64, 92
1, 138144, Control_c, 0, 64, 93
1, 138159, Control_c, 0, 64, 94
1, 138216, Note_on_c, 0, 72, 37
1, 138269, Note_off_c, 0, 68, 25
1, 138292, Control_c, 0, 64, 93
1, 138307, Control_c, 0, 64, 92
1, 138314, Note_off_c, 0, 72, 27
1, 138323, Control_c, 0, 64, 90
1, 138337, Control_c, 0, 64, 85
1, 138350, Note_on_c, 0, 82, 56
1, 138352, Control_c, 0, 64, 76
1, 138367, Control_c, 0, 64, 67
1, 138369, Note_on_c, 0, 63, 28
1, 138382, Control_c, 0, 64, 63
1, 138399, Note_off_c, 0, 84, 35
1, 138411, Control_c, 0, 64, 65
1, 138426, Control_c, 0, 64, 68
1, 138441, Control_c, 0, 64, 72
1, 138456, Control_c, 0, 64, 78
1, 138471, Control_c, 0, 64, 86
1, 138493, Control_c, 0, 64, 91
1, 138508, Control_c, 0, 64, 92
1, 138523, Control_c, 0, 64, 93
1, 138527, Note_on_c, 0, 67, 44
1, 138532, Note_off_c, 0, 63, 37
1, 138538, Control_c, 0, 64, 94
1, 138552, Control_c, 0, 64, 94
1, 138567, Control_c, 0, 64, 95
1, 138582, Control_c, 0, 64, 96
1, 138612, Control_c, 0, 64, 96
1, 138637, Note_off_c, 0, 67, 35
1, 138660, Note_on_c, 0, 70, 46
1, 138684, Note_off_c, 0, 70, 56
1, 138744, Control_c, 0, 64, 95
1, 138759, Control_c, 0, 64, 94
1, 138774, Control_c, 0, 64, 92
1, 138788, Control_c, 0, 64, 88
1, 138803, Control_c, 0, 64, 81
1, 138818, Control_c, 0, 64, 72
1, 138833, Note_on_c, 0, 80, 55
1, 138833, Control_c, 0, 64, 63
1, 138846, Note_on_c, 0, 56, 43
1, 138848, Control_c, 0, 64, 62
1, 138850, Note_on_c, 0, 68, 48
1, 138862, Control_c, 0, 64, 64
1, 138863, Note_on_c, 0, 60, 45
1, 138877, Control_c, 0, 64, 66
1, 138892, Control_c, 0, 64, 70
1, 138903, Note_off_c, 0, 82, 39
1, 138907, Control_c, 0, 64, 74
1, 138911, Note_off_c, 0, 80, 56
1, 138922, Control_c, 0, 64, 81
1, 138922, Control_c, 0, 67, 101
1, 138936, Control_c, 0, 64, 88
1, 138951, Control_c, 0, 64, 90
1, 139010, Control_c, 0, 64, 91
1, 139033, Note_off_c, 0, 68, 36
1, 139036, Note_on_c, 0, 63, 52
1, 139055, Control_c, 0, 67, 102
1, 139062, Note_off_c, 0, 60, 34
1, 139099, Control_c, 0, 67, 102
1, 139145, Control_c, 0, 64, 90
1, 139174, Control_c, 0, 64, 90
1, 139179, Note_on_c, 0, 68, 36
1, 139189, Control_c, 0, 64, 89
1, 139204, Control_c, 0, 64, 89
1, 139204, Control_c, 0, 67, 103
1, 139219, Note_off_c, 0, 63, 36
1, 139219, Control_c, 0, 67, 103
1, 139241, Control_c, 0, 64, 88
1, 139241, Control_c, 0, 67, 104
1, 139256, Control_c, 0, 64, 88
1, 139256, Control_c, 0, 67, 105
1, 139271, Control_c, 0, 64, 87
1, 139271, Control_c, 0, 67, 106
1, 139286, Control_c, 0, 64, 86
1, 139298, Note_off_c, 0, 68, 35
1, 139300, Control_c, 0, 64, 85
1, 139315, Control_c, 0, 64, 83
1, 139318, Note_off_c, 0, 56, 17
1, 139330, Control_c, 0, 64, 82
1, 139345, Control_c, 0, 64, 80
1, 139347, Note_on_c, 0, 72, 39
1, 139359, Control_c, 0, 64, 79
1, 139359, Control_c, 0, 67, 106
1, 139374, Control_c, 0, 64, 78
1, 139389, Control_c, 0, 64, 77
1, 139389, Control_c, 0, 67, 107
1, 139404, Control_c, 0, 64, 76
1, 139404, Control_c, 0, 67, 107
1, 139419, Control_c, 0, 64, 75
1, 139434, Control_c, 0, 64, 74
1, 139448, Control_c, 0, 64, 73
1, 139463, Control_c, 0, 64, 72
1, 139478, Control_c, 0, 64, 71
1, 139492, Control_c, 0, 64, 71
1, 139492, Control_c, 0, 67, 108
1, 139507, Control_c, 0, 64, 70
1, 139516, Note_on_c, 0, 68, 55
1, 139518, Note_off_c, 0, 72, 56
1, 139522, Control_c, 0, 64, 70
1, 139522, Control_c, 0, 67, 108
1, 139537, Control_c, 0, 67, 109
1, 139552, Control_c, 0, 67, 110
1, 139566, Control_c, 0, 64, 69
1, 139566, Control_c, 0, 67, 110
1, 139581, Control_c, 0, 64, 68
1, 139581, Control_c, 0, 67, 111
1, 139596, Control_c, 0, 64, 68
1, 139626, Control_c, 0, 67, 111
1, 139641, Control_c, 0, 64, 67
1, 139641, Control_c, 0, 67, 112
1, 139654, Note_off_c, 0, 68, 53
1, 139655, Note_on_c, 0, 63, 55
1, 139656, Control_c, 0, 64, 67
1, 139656, Control_c, 0, 67, 113
1, 139671, Control_c, 0, 64, 66
1, 139671, Control_c, 0, 67, 114
1, 139685, Control_c, 0, 64, 65
1, 139685, Control_c, 0, 67, 115
1, 139700, Control_c, 0, 64, 64
1, 139700, Control_c, 0, 67, 117
1, 139715, Control_c, 0, 64, 62
1, 139715, Control_c, 0, 67, 118
1, 139730, Control_c, 0, 64, 60
1, 139730, Control_c, 0, 67, 121
1, 139745, Control_c, 0, 64, 55
1, 139745, Control_c, 0, 67, 123
1, 139759, Control_c, 0, 64, 43
1, 139759, Control_c, 0, 67, 126
1, 139774, Control_c, 0, 67, 127
1, 139789, Control_c, 0, 64, 0
1, 139811, Note_on_c, 0, 75, 58
1, 139831, Note_off_c, 0, 63, 47
1, 139966, Note_on_c, 0, 72, 56
1, 139989, Control_c, 0, 64, 39
1, 140004, Control_c, 0, 64, 60
1, 140017, Note_off_c, 0, 75, 34
1, 140019, Control_c, 0, 64, 67
1, 140034, Control_c, 0, 64, 70
1, 140034, Control_c, 0, 67, 126
1, 140049, Control_c, 0, 64, 74
1, 140049, Control_c, 0, 67, 125
1, 140064, Control_c, 0, 64, 79
1, 140064, Control_c, 0, 67, 123
1, 140079, Control_c, 0, 64, 83
1, 140079, Control_c, 0, 67, 121
1, 140094, Control_c, 0, 64, 85
1, 140094, Control_c, 0, 67, 118
1, 140109, Control_c, 0, 64, 86
1, 140109, Control_c, 0, 67, 115
1, 140123, Control_c, 0, 64, 88
1, 140123, Control_c, 0, 67, 110
1, 140132, Note_on_c, 0, 68, 50
1, 140138, Control_c, 0, 64, 90
1, 140138, Control_c, 0, 67, 105
1, 140153, Control_c, 0, 64, 91
1, 140153, Control_c, 0, 67, 99
1, 140153, Note_off_c, 0, 72, 33
1, 140168, Control_c, 0, 64, 92
1, 140168, Control_c, 0, 67, 92
1, 140171, Note_off_c, 0, 68, 57
1, 140182, Control_c, 0, 67, 82
1, 140197, Control_c, 0, 67, 73
1, 140212, Control_c, 0, 67, 64
1, 140227, Control_c, 0, 67, 57
1, 140242, Control_c, 0, 67, 52
1, 140257, Control_c, 0, 67, 47
1, 140271, Control_c, 0, 67, 43
1, 140286, Control_c, 0, 64, 91
1, 140286, Control_c, 0, 67, 40
1, 140293, Note_on_c, 0, 68, 55
1, 140298, Note_on_c, 0, 56, 56
1, 140301, Control_c, 0, 64, 88
1, 140301, Control_c, 0, 67, 37
1, 140315, Control_c, 0, 64, 81
1, 140315, Control_c, 0, 67, 36
1, 140330, Control_c, 0, 64, 72
1, 140330, Control_c, 0, 67, 33
1, 140345, Control_c, 0, 64, 64
1, 140345, Control_c, 0, 67, 31
1, 140360, Control_c, 0, 64, 61
1, 140360, Control_c, 0, 67, 26
1, 140375, Control_c, 0, 64, 62
1, 140375, Control_c, 0, 67, 22
1, 140389, Control_c, 0, 64, 66
1, 140389, Control_c, 0, 67, 18
1, 140404, Control_c, 0, 64, 70
1, 140419, Control_c, 0, 64, 77
1, 140434, Control_c, 0, 64, 85
1, 140434, Control_c, 0, 67, 0
1, 140449, Control_c, 0, 64, 92
1, 140463, Control_c, 0, 64, 94
1, 140466, Note_on_c, 0, 72, 57
1, 140478, Control_c, 0, 64, 95
1, 140487, Note_off_c, 0, 68, 35
1, 140508, Control_c, 0, 64, 96
1, 140523, Control_c, 0, 64, 98
1, 140538, Control_c, 0, 64, 99
1, 140553, Control_c, 0, 64, 100
1, 140568, Control_c, 0, 64, 101
1, 140614, Note_on_c, 0, 75, 50
1, 140615, Note_off_c, 0, 72, 40
1, 140650, Note_off_c, 0, 75, 59
1, 140686, Control_c, 0, 64, 100
1, 140701, Control_c, 0, 64, 99
1, 140709, Note_on_c, 0, 60, 53
1, 140717, Control_c, 0, 64, 97
1, 140738, Control_c, 0, 64, 93
1, 140753, Control_c, 0, 64, 87
1, 140768, Control_c, 0, 64, 77
1, 140783, Control_c, 0, 64, 65
1, 140787, Note_on_c, 0, 63, 62
1, 140798, Control_c, 0, 64, 55
1, 140809, Note_off_c, 0, 60, 52
1, 140812, Control_c, 0, 64, 51
1, 140827, Note_on_c, 0, 75, 50
1, 140846, Note_off_c, 0, 56, 31
1, 140857, Control_c, 0, 64, 54
1, 140872, Control_c, 0, 64, 61
1, 140887, Control_c, 0, 64, 67
1, 140902, Control_c, 0, 64, 73
1, 140917, Control_c, 0, 64, 81
1, 140931, Control_c, 0, 64, 89
1, 140946, Control_c, 0, 64, 95
1, 140961, Control_c, 0, 64, 97
1, 140976, Control_c, 0, 64, 99
1, 140980, Note_off_c, 0, 63, 55
1, 140991, Control_c, 0, 64, 103
1, 141003, Note_on_c, 0, 70, 48
1, 141005, Control_c, 0, 64, 109
1, 141007, Note_off_c, 0, 75, 35
1, 141020, Control_c, 0, 64, 114
1, 141035, Control_c, 0, 64, 118
1, 141050, Control_c, 0, 64, 119
1, 141079, Control_c, 0, 64, 120
1, 141113, Note_on_c, 0, 67, 48
1, 141116, Note_off_c, 0, 70, 34
1, 141183, Control_c, 0, 64, 119
1, 141198, Control_c, 0, 64, 117
1, 141212, Control_c, 0, 64, 114
1, 141227, Control_c, 0, 64, 110
1, 141242, Control_c, 0, 64, 105
1, 141256, Control_c, 0, 64, 99
1, 141271, Control_c, 0, 64, 92
1, 141274, Note_on_c, 0, 63, 71
1, 141283, Note_on_c, 0, 75, 59
1, 141286, Control_c, 0, 64, 80
1, 141301, Note_off_c, 0, 67, 36
1, 141301, Control_c, 0, 64, 69
1, 141316, Control_c, 0, 64, 63
1, 141331, Control_c, 0, 64, 62
1, 141346, Control_c, 0, 64, 64
1, 141361, Control_c, 0, 64, 67
1, 141376, Control_c, 0, 64, 72
1, 141390, Control_c, 0, 64, 81
1, 141405, Control_c, 0, 64, 90
1, 141420, Control_c, 0, 64, 98
1, 141435, Control_c, 0, 64, 99
1, 141447, Note_on_c, 0, 70, 54
1, 141450, Control_c, 0, 64, 100
1, 141464, Control_c, 0, 64, 102
1, 141472, Note_off_c, 0, 63, 58
1, 141479, Control_c, 0, 64, 104
1, 141492, Note_off_c, 0, 75, 32
1, 141501, Control_c, 0, 64, 106
1, 141517, Control_c, 0, 64, 107
1, 141532, Control_c, 0, 64, 108
1, 141547, Control_c, 0, 64, 109
1, 141596, Note_off_c, 0, 70, 50
1, 141609, Note_on_c, 0, 67, 57
1, 141709, Control_c, 0, 64, 107
1, 141724, Control_c, 0, 64, 105
1, 141739, Control_c, 0, 64, 101
1, 141754, Control_c, 0, 64, 97
1, 141769, Control_c, 0, 64, 91
1, 141775, Note_on_c, 0, 63, 74
1, 141784, Note_on_c, 0, 75, 65
1, 141784, Note_off_c, 0, 67, 31
1, 141784, Control_c, 0, 64, 84
1, 141799, Control_c, 0, 64, 74
1, 141814, Control_c, 0, 64, 65
1, 141829, Control_c, 0, 64, 61
1, 141858, Control_c, 0, 64, 63
1, 141873, Control_c, 0, 64, 67
1, 141888, Control_c, 0, 64, 72
1, 141903, Control_c, 0, 64, 82
1, 141918, Control_c, 0, 64, 95
1, 141933, Control_c, 0, 64, 107
1, 141934, Note_on_c, 0, 72, 62
1, 141948, Control_c, 0, 64, 111
1, 141971, Note_off_c, 0, 63, 58
1, 141974, Note_off_c, 0, 75, 36
1, 141977, Control_c, 0, 64, 112
1, 141992, Control_c, 0, 64, 112
1, 142007, Control_c, 0, 64, 113
1, 142022, Control_c, 0, 64, 113
1, 142077, Note_off_c, 0, 72, 59
1, 142092, Note_on_c, 0, 68, 59
1, 142199, Control_c, 0, 64, 111
1, 142213, Control_c, 0, 64, 107
1, 142236, Control_c, 0, 64, 101
1, 142251, Control_c, 0, 64, 94
1, 142258, Note_on_c, 0, 63, 76
1, 142266, Control_c, 0, 64, 83
1, 142267, Note_on_c, 0, 70, 64
1, 142281, Control_c, 0, 64, 72
1, 142291, Note_off_c, 0, 68, 34
1, 142295, Control_c, 0, 64, 64
1, 142311, Control_c, 0, 64, 61
1, 142326, Control_c, 0, 64, 62
1, 142341, Control_c, 0, 64, 65
1, 142356, Control_c, 0, 64, 68
1, 142371, Control_c, 0, 64, 73
1, 142385, Control_c, 0, 64, 81
1, 142400, Control_c, 0, 64, 90
1, 142415, Control_c, 0, 64, 96
1, 142430, Control_c, 0, 64, 96
1, 142432, Note_on_c, 0, 75, 65
1, 142459, Control_c, 0, 64, 97
1, 142474, Control_c, 0, 64, 97
1, 142489, Control_c, 0, 64, 98
1, 142497, Note_off_c, 0, 70, 33
1, 142504, Control_c, 0, 64, 98
1, 142532, Control_c, 0, 64, 99
1, 142595, Note_on_c, 0, 79, 61
1, 142604, Note_off_c, 0, 75, 60
1, 142784, Control_c, 0, 64, 98
1, 142799, Control_c, 0, 64, 97
1, 142814, Control_c, 0, 64, 95
1, 142821, Note_on_c, 0, 65, 71
1, 142828, Control_c, 0, 64, 92
1, 142834, Note_on_c, 0, 80, 69
1, 142843, Control_c, 0, 64, 88
1, 142858, Control_c, 0, 64, 82
1, 142873, Control_c, 0, 64, 72
1, 142888, Control_c, 0, 64, 63
1, 142890, Note_off_c, 0, 79, 37
1, 142895, Note_off_c, 0, 63, 45
1, 142902, Control_c, 0, 64, 56
1, 142917, Control_c, 0, 64, 53
1, 142962, Control_c, 0, 64, 53
1, 142984, Control_c, 0, 64, 56
1, 142999, Control_c, 0, 64, 62
1, 143014, Control_c, 0, 64, 65
1, 143029, Control_c, 0, 64, 70
1, 143043, Control_c, 0, 64, 74
1, 143058, Control_c, 0, 64, 81
1, 143062, Note_on_c, 0, 75, 55
1, 143073, Control_c, 0, 64, 87
1, 143088, Control_c, 0, 64, 89
1, 143103, Note_off_c, 0, 80, 37
1, 143103, Control_c, 0, 64, 90
1, 143119, Control_c, 0, 64, 90
1, 143133, Control_c, 0, 64, 91
1, 143148, Control_c, 0, 64, 92
1, 143163, Control_c, 0, 64, 93
1, 143178, Control_c, 0, 64, 94
1, 143180, Note_off_c, 0, 75, 54
1, 143193, Control_c, 0, 64, 94
1, 143204, Note_on_c, 0, 68, 49
1, 143222, Control_c, 0, 64, 95
1, 143252, Control_c, 0, 64, 95
1, 143326, Control_c, 0, 64, 96
1, 143337, Note_on_c, 0, 80, 61
1, 143379, Note_off_c, 0, 68, 38
1, 143495, Note_off_c, 0, 80, 36
1, 143500, Note_on_c, 0, 73, 50
1, 143646, Note_on_c, 0, 68, 51
1, 143665, Note_off_c, 0, 73, 42
1, 143681, Control_c, 0, 64, 95
1, 143711, Control_c, 0, 64, 95
1, 143733, Control_c, 0, 64, 94
1, 143748, Control_c, 0, 64, 93
1, 143763, Control_c, 0, 64, 91
1, 143778, Control_c, 0, 64, 89
1, 143792, Control_c, 0, 64, 85
1, 143807, Control_c, 0, 64, 81
1, 143815, Note_on_c, 0, 63, 66
1, 143817, Note_on_c, 0, 80, 54
1, 143822, Control_c, 0, 64, 73
1, 143832, Note_off_c, 0, 68, 36
1, 143837, Control_c, 0, 64, 66
1, 143852, Control_c, 0, 64, 60
1, 143864, Note_off_c, 0, 65, 37
1, 143866, Control_c, 0, 64, 60
1, 143896, Control_c, 0, 64, 61
1, 143912, Control_c, 0, 64, 64
1, 143927, Control_c, 0, 64, 67
1, 143942, Control_c, 0, 64, 71
1, 143956, Control_c, 0, 64, 76
1, 143971, Control_c, 0, 64, 81
1, 143986, Control_c, 0, 64, 85
1, 143987, Note_on_c, 0, 75, 49
1, 144001, Control_c, 0, 64, 87
1, 144016, Control_c, 0, 64, 87
1, 144030, Control_c, 0, 64, 88
1, 144045, Control_c, 0, 64, 89
1, 144060, Control_c, 0, 64, 91
1, 144072, Note_off_c, 0, 80, 28
1, 144075, Control_c, 0, 64, 92
1, 144089, Control_c, 0, 64, 93
1, 144104, Control_c, 0, 64, 93
1, 144130, Note_off_c, 0, 75, 40
1, 144134, Control_c, 0, 64, 94
1, 144142, Note_on_c, 0, 70, 43
1, 144149, Control_c, 0, 64, 94
1, 144163, Control_c, 0, 64, 95
1, 144178, Control_c, 0, 64, 95
1, 144180, Note_off_c, 0, 70, 46
1, 144208, Control_c, 0, 64, 96
1, 144223, Control_c, 0, 64, 96
1, 144237, Control_c, 0, 64, 97
1, 144252, Control_c, 0, 64, 97
1, 144282, Control_c, 0, 64, 98
1, 144290, Note_on_c, 0, 70, 54
1, 144297, Control_c, 0, 64, 98
1, 144327, Control_c, 0, 64, 99
1, 144443, Note_on_c, 0, 75, 53
1, 144491, Note_off_c, 0, 70, 32
1, 144578, Note_off_c, 0, 75, 37
1, 144586, Note_on_c, 0, 79, 50
1, 144586, Control_c, 0, 64, 98
1, 144601, Control_c, 0, 64, 98
1, 144615, Control_c, 0, 64, 97
1, 144630, Control_c, 0, 64, 96
1, 144645, Control_c, 0, 64, 94
1, 144660, Control_c, 0, 64, 91
1, 144675, Control_c, 0, 64, 87
1, 144689, Control_c, 0, 64, 84
1, 144705, Control_c, 0, 64, 79
1, 144720, Control_c, 0, 64, 74
1, 144724, Note_off_c, 0, 79, 43
1, 144735, Control_c, 0, 64, 68
1, 144736, Note_on_c, 0, 77, 56
1, 144744, Note_on_c, 0, 61, 55
1, 144750, Control_c, 0, 64, 62
1, 144765, Control_c, 0, 64, 57
1, 144779, Control_c, 0, 64, 56
1, 144798, Note_off_c, 0, 63, 38
1, 144809, Control_c, 0, 64, 57
1, 144824, Control_c, 0, 64, 61
1, 144838, Control_c, 0, 64, 65
1, 144853, Control_c, 0, 64, 69
1, 144868, Control_c, 0, 64, 74
1, 144883, Control_c, 0, 64, 81
1, 144898, Control_c, 0, 64, 87
1, 144899, Note_on_c, 0, 70, 51
1, 144899, Note_off_c, 0, 77, 43
1, 144912, Control_c, 0, 64, 90
1, 144927, Control_c, 0, 64, 91
1, 144942, Control_c, 0, 64, 91
1, 144957, Control_c, 0, 64, 92
1, 144972, Control_c, 0, 64, 93
1, 144986, Control_c, 0, 64, 94
1, 145001, Control_c, 0, 64, 94
1, 145016, Control_c, 0, 64, 95
1, 145030, Control_c, 0, 64, 95
1, 145040, Note_on_c, 0, 67, 55
1, 145043, Note_off_c, 0, 70, 36
1, 145045, Control_c, 0, 64, 96
1, 145075, Control_c, 0, 64, 96
1, 145192, Note_on_c, 0, 77, 58
1, 145194, Control_c, 0, 64, 97
1, 145206, Note_off_c, 0, 67, 37
1, 145356, Note_on_c, 0, 71, 53
1, 145356, Note_off_c, 0, 77, 35
1, 145494, Note_off_c, 0, 71, 40
1, 145511, Note_on_c, 0, 67, 48
1, 145558, Control_c, 0, 64, 96
1, 145573, Control_c, 0, 64, 96
1, 145588, Control_c, 0, 64, 94
1, 145603, Control_c, 0, 64, 92
1, 145617, Control_c, 0, 64, 89
1, 145632, Control_c, 0, 64, 85
1, 145647, Note_on_c, 0, 77, 51
1, 145647, Control_c, 0, 64, 79
1, 145653, Note_off_c, 0, 67, 32
1, 145655, Note_on_c, 0, 60, 57
1, 145662, Control_c, 0, 64, 72
1, 145677, Control_c, 0, 64, 63
1, 145692, Control_c, 0, 64, 55
1, 145707, Control_c, 0, 64, 53
1, 145717, Note_off_c, 0, 61, 35
1, 145736, Control_c, 0, 64, 55
1, 145751, Control_c, 0, 64, 61
1, 145766, Control_c, 0, 64, 65
1, 145781, Control_c, 0, 64, 69
1, 145796, Control_c, 0, 64, 73
1, 145810, Control_c, 0, 64, 79
1, 145825, Control_c, 0, 64, 84
1, 145829, Note_off_c, 0, 77, 35
1, 145832, Note_on_c, 0, 72, 49
1, 145840, Control_c, 0, 64, 87
1, 145854, Control_c, 0, 64, 87
1, 145869, Control_c, 0, 64, 88
1, 145884, Control_c, 0, 64, 89
1, 145899, Control_c, 0, 64, 90
1, 145914, Control_c, 0, 64, 91
1, 145928, Control_c, 0, 64, 91
1, 145943, Control_c, 0, 64, 92
1, 145973, Control_c, 0, 64, 92
1, 145983, Note_off_c, 0, 72, 38
1, 145984, Note_on_c, 0, 68, 45
1, 145995, Control_c, 0, 64, 93
1, 146019, Note_off_c, 0, 68, 49
1, 146099, Control_c, 0, 64, 93
1, 146124, Note_on_c, 0, 68, 47
1, 146267, Note_off_c, 0, 68, 35
1, 146279, Note_on_c, 0, 72, 51
1, 146398, Note_off_c, 0, 72, 52
1, 146425, Control_c, 0, 64, 93
1, 146434, Note_on_c, 0, 75, 42
1, 146455, Control_c, 0, 64, 92
1, 146478, Note_off_c, 0, 75, 44
1, 146484, Control_c, 0, 64, 92
1, 146499, Control_c, 0, 64, 91
1, 146514, Control_c, 0, 64, 90
1, 146529, Control_c, 0, 64, 89
1, 146544, Control_c, 0, 64, 88
1, 146558, Control_c, 0, 64, 85
1, 146573, Control_c, 0, 64, 80
1, 146582, Note_on_c, 0, 61, 48
1, 146588, Control_c, 0, 64, 73
1, 146592, Note_on_c, 0, 58, 50
1, 146602, Control_c, 0, 64, 64
1, 146617, Control_c, 0, 64, 58
1, 146632, Control_c, 0, 64, 53
1, 146633, Note_off_c, 0, 60, 35
1, 146647, Control_c, 0, 64, 53
1, 146662, Control_c, 0, 64, 54
1, 146676, Control_c, 0, 64, 58
1, 146691, Control_c, 0, 64, 63
1, 146706, Control_c, 0, 64, 67
1, 146729, Control_c, 0, 64, 72
1, 146734, Note_off_c, 0, 61, 43
1, 146744, Control_c, 0, 64, 78
1, 146757, Note_on_c, 0, 68, 48
1, 146758, Control_c, 0, 64, 85
1, 146773, Control_c, 0, 64, 89
1, 146788, Control_c, 0, 64, 90
1, 146832, Control_c, 0, 64, 90
1, 146862, Control_c, 0, 64, 91
1, 146893, Note_on_c, 0, 73, 53
1, 146923, Note_off_c, 0, 68, 34
1, 147009, Control_c, 0, 64, 90
1, 147024, Control_c, 0, 64, 89
1, 147039, Control_c, 0, 64, 87
1, 147051, Note_on_c, 0, 61, 65
1, 147054, Control_c, 0, 64, 82
1, 147060, Note_on_c, 0, 65, 54
1, 147060, Note_off_c, 0, 73, 21
1, 147069, Control_c, 0, 64, 73
1, 147084, Control_c, 0, 64, 64
1, 147097, Note_off_c, 0, 58, 47
1, 147099, Control_c, 0, 64, 57
1, 147114, Control_c, 0, 64, 55
1, 147129, Control_c, 0, 64, 58
1, 147144, Control_c, 0, 64, 63
1, 147159, Control_c, 0, 64, 66
1, 147173, Control_c, 0, 64, 70
1, 147188, Control_c, 0, 64, 75
1, 147203, Control_c, 0, 64, 83
1, 147211, Note_on_c, 0, 68, 58
1, 147218, Control_c, 0, 64, 91
1, 147221, Note_off_c, 0, 65, 36
1, 147233, Control_c, 0, 64, 93
1, 147278, Control_c, 0, 64, 94
1, 147293, Control_c, 0, 64, 95
1, 147307, Control_c, 0, 64, 96
1, 147322, Control_c, 0, 64, 96
1, 147373, Note_on_c, 0, 70, 49
1, 147388, Note_off_c, 0, 68, 0
1, 147430, Poly_aftertouch_c, 0, 68, 0
1, 147477, Control_c, 0, 64, 96
1, 147492, Control_c, 0, 64, 94
1, 147507, Control_c, 0, 64, 91
1, 147510, Note_on_c, 0, 60, 71
1, 147514, Note_off_c, 0, 61, 58
1, 147521, Note_on_c, 0, 63, 59
1, 147522, Control_c, 0, 64, 82
1, 147537, Control_c, 0, 64, 71
1, 147540, Note_off_c, 0, 70, 39
1, 147552, Control_c, 0, 64, 62
1, 147567, Control_c, 0, 64, 60
1, 147581, Control_c, 0, 64, 61
1, 147596, Control_c, 0, 64, 64
1, 147611, Control_c, 0, 64, 67
1, 147625, Control_c, 0, 64, 71
1, 147640, Control_c, 0, 64, 77
1, 147655, Control_c, 0, 64, 83
1, 147670, Control_c, 0, 64, 88
1, 147671, Note_on_c, 0, 68, 52
1, 147685, Control_c, 0, 64, 90
1, 147699, Control_c, 0, 64, 91
1, 147714, Control_c, 0, 64, 91
1, 147729, Control_c, 0, 64, 92
1, 147731, Note_off_c, 0, 63, 32
1, 147744, Control_c, 0, 64, 92
1, 147758, Control_c, 0, 64, 93
1, 147773, Control_c, 0, 64, 93
1, 147810, Note_off_c, 0, 68, 51
1, 147814, Note_on_c, 0, 72, 57
1, 147908, Control_c, 0, 64, 93
1, 147922, Control_c, 0, 64, 91
1, 147937, Control_c, 0, 64, 88
1, 147949, Note_off_c, 0, 72, 41
1, 147952, Control_c, 0, 64, 84
1, 147967, Control_c, 0, 64, 76
1, 147972, Note_on_c, 0, 58, 61
1, 147978, Note_on_c, 0, 51, 55
1, 147979, Note_on_c, 0, 63, 52
1, 147982, Control_c, 0, 64, 67
1, 147986, Note_on_c, 0, 67, 54
1, 147996, Control_c, 0, 64, 61
1, 148026, Control_c, 0, 64, 63
1, 148041, Note_off_c, 0, 60, 34
1, 148041, Control_c, 0, 64, 66
1, 148056, Control_c, 0, 64, 70
1, 148071, Control_c, 0, 64, 76
1, 148086, Control_c, 0, 64, 84
1, 148101, Control_c, 0, 64, 92
1, 148115, Control_c, 0, 64, 96
1, 148117, Note_off_c, 0, 58, 57
1, 148118, Note_off_c, 0, 63, 42
1, 148130, Control_c, 0, 64, 96
1, 148139, Note_on_c, 0, 75, 60
1, 148139, Note_off_c, 0, 67, 58
1, 148145, Control_c, 0, 64, 97
1, 148149, Note_off_c, 0, 51, 56
1, 148160, Control_c, 0, 64, 97
1, 148174, Control_c, 0, 64, 98
1, 148204, Control_c, 0, 64, 98
1, 148271, Note_off_c, 0, 75, 0
1, 148294, Note_on_c, 0, 73, 61
1, 148323, Poly_aftertouch_c, 0, 75, 0
1, 148345, Control_c, 0, 64, 97
1, 148360, Control_c, 0, 64, 96
1, 148374, Control_c, 0, 64, 95
1, 148389, Control_c, 0, 64, 92
1, 148404, Control_c, 0, 64, 89
1, 148419, Control_c, 0, 64, 84
1, 148434, Control_c, 0, 64, 77
1, 148446, Note_off_c, 0, 73, 36
1, 148448, Control_c, 0, 64, 69
1, 148451, Note_on_c, 0, 44, 62
1, 148457, Note_on_c, 0, 56, 57
1, 148458, Note_on_c, 0, 51, 56
1, 148460, Note_on_c, 0, 72, 50
1, 148463, Control_c, 0, 64, 61
1, 148469, Note_on_c, 0, 68, 51
1, 148478, Control_c, 0, 64, 51
1, 148480, Note_on_c, 0, 63, 29
1, 148493, Control_c, 0, 64, 42
1, 148508, Control_c, 0, 64, 34
1, 148518, Note_off_c, 0, 63, 53
1, 148523, Control_c, 0, 64, 32
1, 148538, Control_c, 0, 64, 36
1, 148553, Control_c, 0, 64, 50
1, 148568, Control_c, 0, 64, 61
1, 148582, Control_c, 0, 64, 67
1, 148597, Control_c, 0, 64, 71
1, 148604, Note_off_c, 0, 72, 55
1, 148612, Control_c, 0, 64, 75
1, 148614, Note_on_c, 0, 63, 56
1, 148627, Control_c, 0, 64, 79
1, 148642, Control_c, 0, 64, 83
1, 148656, Control_c, 0, 64, 85
1, 148664, Note_off_c, 0, 68, 35
1, 148671, Control_c, 0, 64, 88
1, 148686, Control_c, 0, 64, 90
1, 148702, Control_c, 0, 64, 91
1, 148717, Control_c, 0, 64, 91
1, 148732, Control_c, 0, 64, 92
1, 148746, Control_c, 0, 64, 93
1, 148761, Control_c, 0, 64, 93
1, 148771, Note_on_c, 0, 68, 62
1, 148776, Control_c, 0, 64, 94
1, 148791, Control_c, 0, 64, 95
1, 148805, Control_c, 0, 64, 95
1, 148834, Note_off_c, 0, 44, 57
1, 148835, Control_c, 0, 64, 96
1, 148850, Control_c, 0, 64, 97
1, 148855, Note_off_c, 0, 63, 40
1, 148864, Note_off_c, 0, 56, 54
1, 148865, Control_c, 0, 64, 98
1, 148879, Control_c, 0, 64, 99
1, 148893, Note_off_c, 0, 51, 50
1, 148894, Control_c, 0, 64, 100
1, 148909, Control_c, 0, 64, 100
1, 148919, Note_on_c, 0, 72, 64
1, 148924, Control_c, 0, 64, 101
1, 148939, Control_c, 0, 64, 102
1, 148953, Control_c, 0, 64, 104
1, 148973, Note_off_c, 0, 68, 36
1, 148976, Control_c, 0, 64, 107
1, 148991, Control_c, 0, 64, 109
1, 149005, Control_c, 0, 64, 113
1, 149020, Control_c, 0, 64, 119
1, 149035, Control_c, 0, 64, 127
1, 149075, Note_on_c, 0, 68, 62
1, 149101, Note_off_c, 0, 72, 35
1, 149223, Note_on_c, 0, 63, 57
1, 149242, Control_c, 0, 64, 119
1, 149257, Control_c, 0, 64, 118
1, 149276, Note_off_c, 0, 68, 32
1, 149331, Control_c, 0, 64, 121
1, 149374, Note_on_c, 0, 75, 57
1, 149415, Note_off_c, 0, 63, 42
1, 149529, Note_on_c, 0, 72, 61
1, 149564, Note_off_c, 0, 75, 35
1, 149643, Control_c, 0, 64, 120
1, 149658, Control_c, 0, 64, 118
1, 149664, Note_on_c, 0, 68, 55
1, 149673, Control_c, 0, 64, 117
1, 149688, Control_c, 0, 64, 114
1, 149699, Note_off_c, 0, 72, 40
1, 149702, Control_c, 0, 64, 109
1, 149709, Note_off_c, 0, 68, 53
1, 149725, Control_c, 0, 64, 105
1, 149740, Control_c, 0, 64, 101
1, 149755, Control_c, 0, 64, 98
1, 149770, Control_c, 0, 64, 95
1, 149784, Control_c, 0, 64, 91
1, 149799, Control_c, 0, 64, 86
1, 149814, Control_c, 0, 64, 79
1, 149828, Control_c, 0, 64, 71
1, 149834, Note_on_c, 0, 56, 65
1, 149836, Note_on_c, 0, 44, 67
1, 149837, Note_on_c, 0, 68, 62
1, 149843, Control_c, 0, 64, 65
1, 149858, Control_c, 0, 64, 64
1, 149917, Control_c, 0, 64, 66
1, 149932, Control_c, 0, 64, 71
1, 149946, Control_c, 0, 64, 78
1, 149961, Control_c, 0, 64, 89
1, 149976, Control_c, 0, 64, 101
1, 149979, Note_off_c, 0, 44, 60
1, 149988, Note_off_c, 0, 56, 58
1, 149991, Control_c, 0, 64, 104
1, 150003, Note_on_c, 0, 72, 61
1, 150006, Control_c, 0, 64, 105
1, 150020, Control_c, 0, 64, 106
1, 150035, Control_c, 0, 64, 109
1, 150050, Control_c, 0, 64, 112
1, 150065, Control_c, 0, 64, 114
1, 150080, Control_c, 0, 64, 116
1, 150095, Control_c, 0, 64, 118
1, 150110, Control_c, 0, 64, 122
1, 150125, Control_c, 0, 64, 127
1, 150146, Note_on_c, 0, 75, 52
1, 150159, Note_off_c, 0, 68, 24
1, 150175, Note_off_c, 0, 72, 35
1, 150190, Note_on_c, 0, 48, 69
1, 150194, Note_on_c, 0, 60, 62
1, 150205, Note_off_c, 0, 75, 52
1, 150232, Note_off_c, 0, 60, 57
1, 150234, Note_off_c, 0, 48, 59
1, 150288, Control_c, 0, 64, 114
1, 150303, Control_c, 0, 64, 102
1, 150318, Control_c, 0, 64, 88
1, 150327, Note_on_c, 0, 63, 77
1, 150329, Note_on_c, 0, 51, 71
1, 150333, Note_on_c, 0, 75, 66
1, 150333, Control_c, 0, 64, 74
1, 150348, Control_c, 0, 64, 62
1, 150363, Control_c, 0, 64, 56
1, 150377, Control_c, 0, 64, 57
1, 150392, Control_c, 0, 64, 63
1, 150407, Control_c, 0, 64, 67
1, 150422, Control_c, 0, 64, 74
1, 150437, Control_c, 0, 64, 86
1, 150451, Control_c, 0, 64, 103
1, 150473, Control_c, 0, 64, 127
1, 150494, Note_off_c, 0, 63, 57
1, 150494, Note_on_c, 0, 70, 56
1, 150500, Note_off_c, 0, 51, 46
1, 150528, Note_off_c, 0, 75, 34
1, 150633, Note_on_c, 0, 67, 61
1, 150655, Note_off_c, 0, 70, 36
1, 150783, Control_c, 0, 64, 112
1, 150797, Note_on_c, 0, 75, 73
1, 150798, Control_c, 0, 64, 95
1, 150803, Note_on_c, 0, 63, 72
1, 150804, Note_on_c, 0, 51, 69
1, 150813, Control_c, 0, 64, 80
1, 150828, Control_c, 0, 64, 67
1, 150843, Control_c, 0, 64, 61
1, 150843, Note_off_c, 0, 67, 37
1, 150858, Control_c, 0, 64, 62
1, 150873, Control_c, 0, 64, 65
1, 150888, Control_c, 0, 64, 70
1, 150903, Control_c, 0, 64, 78
1, 150917, Control_c, 0, 64, 90
1, 150932, Control_c, 0, 64, 106
1, 150947, Control_c, 0, 64, 118
1, 150961, Note_on_c, 0, 70, 69
1, 150976, Control_c, 0, 64, 122
1, 150991, Control_c, 0, 64, 127
1, 151002, Note_off_c, 0, 51, 55
1, 151009, Note_off_c, 0, 63, 60
1, 151042, Note_off_c, 0, 75, 35
1, 151116, Note_on_c, 0, 67, 67
1, 151121, Note_off_c, 0, 70, 56
1, 151266, Control_c, 0, 64, 118
1, 151281, Control_c, 0, 64, 99
1, 151284, Note_on_c, 0, 63, 78
1, 151285, Note_on_c, 0, 75, 76
1, 151286, Note_on_c, 0, 51, 74
1, 151293, Note_off_c, 0, 67, 59
1, 151296, Control_c, 0, 64, 80
1, 151311, Control_c, 0, 64, 67
1, 151326, Control_c, 0, 64, 62
1, 151341, Control_c, 0, 64, 63
1, 151355, Control_c, 0, 64, 66
1, 151370, Control_c, 0, 64, 70
1, 151385, Control_c, 0, 64, 77
1, 151399, Control_c, 0, 64, 90
1, 151414, Control_c, 0, 64, 105
1, 151429, Control_c, 0, 64, 115
1, 151444, Control_c, 0, 64, 115
1, 151449, Note_on_c, 0, 71, 75
1, 151459, Control_c, 0, 64, 117
1, 151472, Note_off_c, 0, 75, 52
1, 151473, Control_c, 0, 64, 122
1, 151488, Control_c, 0, 64, 127
1, 151502, Note_off_c, 0, 51, 55
1, 151507, Note_off_c, 0, 63, 57
1, 151596, Note_on_c, 0, 68, 80
1, 151597, Note_off_c, 0, 71, 62
1, 151740, Control_c, 0, 64, 96
1, 151749, Note_on_c, 0, 51, 75
1, 151749, Note_on_c, 0, 63, 84
1, 151755, Note_on_c, 0, 70, 81
1, 151755, Control_c, 0, 64, 78
1, 151770, Control_c, 0, 64, 68
1, 151785, Note_off_c, 0, 68, 57
1, 151785, Control_c, 0, 64, 67
1, 151800, Control_c, 0, 64, 73
1, 151815, Control_c, 0, 64, 80
1, 151830, Control_c, 0, 64, 93
1, 151845, Control_c, 0, 64, 108
1, 151859, Control_c, 0, 64, 127
1, 151922, Note_on_c, 0, 75, 82
1, 151977, Note_off_c, 0, 70, 55
1, 152095, Note_on_c, 0, 79, 81
1, 152106, Note_off_c, 0, 63, 49
1, 152108, Note_off_c, 0, 51, 36
1, 152128, Note_off_c, 0, 75, 61
1, 152343, Note_on_c, 0, 80, 76
1, 152351, Note_on_c, 0, 64, 71
1, 152353, Note_on_c, 0, 52, 66
1, 152371, Control_c, 0, 64, 109
1, 152375, Note_off_c, 0, 79, 60
1, 152386, Control_c, 0, 64, 88
1, 152401, Control_c, 0, 64, 71
1, 152415, Control_c, 0, 64, 59
1, 152430, Control_c, 0, 64, 54
1, 152475, Control_c, 0, 64, 55
1, 152489, Control_c, 0, 64, 61
1, 152504, Control_c, 0, 64, 66
1, 152519, Control_c, 0, 64, 73
1, 152534, Control_c, 0, 64, 82
1, 152548, Control_c, 0, 64, 92
1, 152563, Control_c, 0, 64, 100
1, 152578, Control_c, 0, 64, 103
1, 152593, Control_c, 0, 64, 105
1, 152599, Note_on_c, 0, 75, 62
1, 152608, Control_c, 0, 64, 109
1, 152623, Control_c, 0, 64, 119
1, 152637, Control_c, 0, 64, 127
1, 152741, Note_off_c, 0, 80, 40
1, 152748, Note_on_c, 0, 68, 61
1, 152779, Note_off_c, 0, 75, 35
1, 152827, Note_off_c, 0, 64, 58
1, 152903, Note_on_c, 0, 80, 54
1, 152936, Note_off_c, 0, 68, 40
1, 153063, Note_on_c, 0, 73, 54
1, 153105, Note_off_c, 0, 80, 34
1, 153222, Note_off_c, 0, 73, 39
1, 153222, Note_on_c, 0, 70, 49
1, 153311, Control_c, 0, 64, 107
1, 153326, Control_c, 0, 64, 95
1, 153341, Control_c, 0, 64, 79
1, 153351, Note_on_c, 0, 63, 62
1, 153356, Control_c, 0, 64, 67
1, 153359, Note_on_c, 0, 51, 59
1, 153360, Note_on_c, 0, 80, 59
1, 153370, Control_c, 0, 64, 58
1, 153385, Control_c, 0, 64, 54
1, 153403, Note_off_c, 0, 70, 40
1, 153415, Control_c, 0, 64, 57
1, 153421, Note_off_c, 0, 52, 32
1, 153430, Control_c, 0, 64, 62
1, 153444, Control_c, 0, 64, 67
1, 153466, Control_c, 0, 64, 71
1, 153481, Control_c, 0, 64, 79
1, 153497, Control_c, 0, 64, 89
1, 153512, Control_c, 0, 64, 98
1, 153527, Control_c, 0, 64, 101
1, 153536, Note_on_c, 0, 75, 58
1, 153541, Control_c, 0, 64, 102
1, 153556, Control_c, 0, 64, 105
1, 153571, Control_c, 0, 64, 112
1, 153586, Control_c, 0, 64, 127
1, 153588, Note_off_c, 0, 80, 34
1, 153676, Note_on_c, 0, 71, 55
1, 153680, Note_off_c, 0, 75, 32
1, 153743, Note_off_c, 0, 63, 55
1, 153743, Note_off_c, 0, 71, 56
1, 153821, Note_on_c, 0, 71, 38
1, 153944, Note_off_c, 0, 71, 56
1, 153981, Note_on_c, 0, 75, 51
1, 154123, Note_on_c, 0, 78, 53
1, 154138, Note_off_c, 0, 75, 39
1, 154260, Control_c, 0, 64, 112
1, 154274, Control_c, 0, 64, 89
1, 154289, Control_c, 0, 64, 74
1, 154291, Note_on_c, 0, 76, 57
1, 154298, Note_on_c, 0, 49, 52
1, 154305, Control_c, 0, 64, 64
1, 154307, Note_on_c, 0, 61, 41
1, 154320, Control_c, 0, 64, 61
1, 154328, Note_off_c, 0, 51, 35
1, 154335, Control_c, 0, 64, 62
1, 154336, Note_off_c, 0, 78, 36
1, 154349, Control_c, 0, 64, 66
1, 154364, Control_c, 0, 64, 71
1, 154379, Control_c, 0, 64, 77
1, 154394, Control_c, 0, 64, 88
1, 154409, Control_c, 0, 64, 100
1, 154423, Control_c, 0, 64, 108
1, 154438, Control_c, 0, 64, 109
1, 154449, Note_on_c, 0, 71, 51
1, 154453, Control_c, 0, 64, 111
1, 154468, Control_c, 0, 64, 115
1, 154473, Note_off_c, 0, 76, 34
1, 154483, Control_c, 0, 64, 127
1, 154597, Note_on_c, 0, 67, 53
1, 154604, Note_off_c, 0, 71, 35
1, 154623, Note_off_c, 0, 61, 59
1, 154662, Note_off_c, 0, 49, 37
1, 154724, Poly_aftertouch_c, 0, 51, 0
1, 154751, Note_on_c, 0, 76, 56
1, 154772, Note_off_c, 0, 67, 33
1, 154898, Note_off_c, 0, 76, 44
1, 154903, Note_on_c, 0, 70, 55
1, 155062, Note_on_c, 0, 67, 53
1, 155067, Control_c, 0, 64, 114
1, 155068, Note_off_c, 0, 70, 36
1, 155082, Control_c, 0, 64, 107
1, 155099, Control_c, 0, 64, 102
1, 155113, Control_c, 0, 64, 98
1, 155128, Control_c, 0, 64, 95
1, 155143, Control_c, 0, 64, 92
1, 155158, Control_c, 0, 64, 89
1, 155172, Control_c, 0, 64, 84
1, 155187, Control_c, 0, 64, 79
1, 155202, Control_c, 0, 64, 71
1, 155205, Note_on_c, 0, 47, 53
1, 155212, Note_on_c, 0, 59, 49
1, 155214, Note_on_c, 0, 76, 58
1, 155217, Control_c, 0, 64, 66
1, 155228, Note_off_c, 0, 67, 39
1, 155232, Control_c, 0, 64, 62
1, 155246, Control_c, 0, 64, 61
1, 155277, Control_c, 0, 64, 62
1, 155291, Control_c, 0, 64, 64
1, 155306, Control_c, 0, 64, 68
1, 155321, Control_c, 0, 64, 71
1, 155336, Control_c, 0, 64, 77
1, 155351, Control_c, 0, 64, 84
1, 155352, Note_off_c, 0, 76, 51
1, 155365, Control_c, 0, 64, 92
1, 155369, Note_on_c, 0, 71, 56
1, 155380, Control_c, 0, 64, 98
1, 155395, Control_c, 0, 64, 99
1, 155410, Control_c, 0, 64, 99
1, 155425, Control_c, 0, 64, 100
1, 155439, Control_c, 0, 64, 102
1, 155454, Control_c, 0, 64, 105
1, 155469, Control_c, 0, 64, 107
1, 155484, Control_c, 0, 64, 108
1, 155499, Control_c, 0, 64, 109
1, 155514, Control_c, 0, 64, 109
1, 155527, Note_on_c, 0, 68, 47
1, 155529, Control_c, 0, 64, 110
1, 155532, Note_off_c, 0, 59, 51
1, 155554, Note_off_c, 0, 71, 34
1, 155577, Note_off_c, 0, 68, 52
1, 155662, Control_c, 0, 64, 110
1, 155677, Note_on_c, 0, 68, 48
1, 155834, Note_on_c, 0, 71, 54
1, 155854, Note_off_c, 0, 68, 39
1, 155988, Note_on_c, 0, 75, 54
1, 155991, Note_on_c, 0, 58, 51
1, 155996, Control_c, 0, 64, 110
1, 155997, Note_off_c, 0, 71, 39
1, 156011, Control_c, 0, 64, 109
1, 156026, Control_c, 0, 64, 108
1, 156041, Control_c, 0, 64, 105
1, 156056, Control_c, 0, 64, 103
1, 156070, Control_c, 0, 64, 99
1, 156085, Control_c, 0, 64, 95
1, 156100, Control_c, 0, 64, 90
1, 156103, Note_off_c, 0, 47, 37
1, 156114, Control_c, 0, 64, 86
1, 156129, Control_c, 0, 64, 83
1, 156144, Control_c, 0, 64, 80
1, 156159, Control_c, 0, 64, 77
1, 156172, Note_on_c, 0, 68, 48
1, 156174, Control_c, 0, 64, 74
1, 156188, Note_off_c, 0, 58, 36
1, 156188, Control_c, 0, 64, 67
1, 156191, Note_on_c, 0, 52, 45
1, 156191, Note_on_c, 0, 56, 43
1, 156203, Control_c, 0, 64, 60
1, 156218, Control_c, 0, 64, 50
1, 156233, Control_c, 0, 64, 46
1, 156248, Control_c, 0, 64, 46
1, 156262, Control_c, 0, 64, 51
1, 156277, Control_c, 0, 64, 60
1, 156292, Control_c, 0, 64, 66
1, 156307, Control_c, 0, 64, 73
1, 156322, Control_c, 0, 64, 81
1, 156337, Control_c, 0, 64, 90
1, 156352, Control_c, 0, 64, 95
1, 156353, Note_on_c, 0, 71, 52
1, 156364, Note_off_c, 0, 52, 54
1, 156367, Control_c, 0, 64, 97
1, 156378, Note_off_c, 0, 75, 23
1, 156379, Note_off_c, 0, 68, 32
1, 156381, Control_c, 0, 64, 99
1, 156396, Control_c, 0, 64, 101
1, 156411, Control_c, 0, 64, 102
1, 156413, Note_off_c, 0, 56, 50
1, 156426, Control_c, 0, 64, 102
1, 156441, Control_c, 0, 64, 103
1, 156462, Control_c, 0, 64, 103
1, 156477, Control_c, 0, 64, 104
1, 156491, Note_off_c, 0, 71, 57
1, 156492, Control_c, 0, 64, 104
1, 156502, Note_on_c, 0, 73, 56
1, 156590, Note_off_c, 0, 73, 51
1, 156596, Control_c, 0, 64, 103
1, 156611, Control_c, 0, 64, 98
1, 156626, Control_c, 0, 64, 89
1, 156640, Note_on_c, 0, 56, 49
1, 156640, Control_c, 0, 64, 78
1, 156644, Note_on_c, 0, 49, 49
1, 156647, Note_on_c, 0, 64, 54
1, 156655, Control_c, 0, 64, 70
1, 156668, Note_on_c, 0, 68, 48
1, 156670, Control_c, 0, 64, 69
1, 156686, Control_c, 0, 64, 71
1, 156700, Control_c, 0, 64, 75
1, 156715, Control_c, 0, 64, 83
1, 156730, Control_c, 0, 64, 91
1, 156745, Control_c, 0, 64, 97
1, 156759, Control_c, 0, 64, 99
1, 156774, Control_c, 0, 64, 99
1, 156781, Note_off_c, 0, 64, 40
1, 156789, Control_c, 0, 64, 100
1, 156804, Control_c, 0, 64, 103
1, 156807, Note_on_c, 0, 71, 64
1, 156813, Note_off_c, 0, 49, 36
1, 156818, Control_c, 0, 64, 104
1, 156842, Note_off_c, 0, 68, 36
1, 156849, Note_off_c, 0, 56, 49
1, 156928, Note_off_c, 0, 71, 57
1, 156944, Note_on_c, 0, 76, 59
1, 157025, Control_c, 0, 64, 103
1, 157040, Control_c, 0, 64, 102
1, 157055, Control_c, 0, 64, 99
1, 157070, Control_c, 0, 64, 93
1, 157075, Note_off_c, 0, 76, 45
1, 157085, Control_c, 0, 64, 83
1, 157091, Note_on_c, 0, 66, 62
1, 157091, Note_on_c, 0, 63, 57
1, 157100, Note_on_c, 0, 54, 52
1, 157100, Control_c, 0, 64, 71
1, 157115, Control_c, 0, 64, 62
1, 157129, Control_c, 0, 64, 60
1, 157144, Control_c, 0, 64, 61
1, 157159, Control_c, 0, 64, 64
1, 157174, Control_c, 0, 64, 67
1, 157189, Control_c, 0, 64, 72
1, 157210, Control_c, 0, 64, 80
1, 157225, Control_c, 0, 64, 92
1, 157240, Control_c, 0, 64, 98
1, 157255, Control_c, 0, 64, 99
1, 157260, Note_off_c, 0, 63, 58
1, 157263, Note_on_c, 0, 71, 60
1, 157270, Control_c, 0, 64, 99
1, 157285, Control_c, 0, 64, 100
1, 157294, Note_off_c, 0, 54, 53
1, 157296, Note_off_c, 0, 66, 34
1, 157300, Control_c, 0, 64, 100
1, 157314, Control_c, 0, 64, 101
1, 157329, Control_c, 0, 64, 102
1, 157374, Control_c, 0, 64, 102
1, 157398, Note_off_c, 0, 71, 59
1, 157416, Note_on_c, 0, 75, 58
1, 157493, Control_c, 0, 64, 101
1, 157508, Control_c, 0, 64, 100
1, 157523, Control_c, 0, 64, 97
1, 157538, Control_c, 0, 64, 92
1, 157553, Control_c, 0, 64, 84
1, 157563, Note_off_c, 0, 75, 40
1, 157567, Control_c, 0, 64, 73
1, 157569, Note_on_c, 0, 54, 49
1, 157575, Note_on_c, 0, 61, 42
1, 157582, Control_c, 0, 64, 64
1, 157583, Note_on_c, 0, 70, 45
1, 157597, Control_c, 0, 64, 60
1, 157601, Note_on_c, 0, 66, 14
1, 157612, Control_c, 0, 64, 60
1, 157627, Control_c, 0, 64, 64
1, 157641, Control_c, 0, 64, 68
1, 157656, Control_c, 0, 64, 75
1, 157671, Control_c, 0, 64, 84
1, 157681, Note_off_c, 0, 66, 36
1, 157683, Note_off_c, 0, 61, 50
1, 157685, Control_c, 0, 64, 95
1, 157700, Control_c, 0, 64, 101
1, 157721, Note_off_c, 0, 54, 55
1, 157725, Note_on_c, 0, 78, 60
1, 157726, Note_off_c, 0, 70, 49
1, 157745, Control_c, 0, 64, 102
1, 157759, Control_c, 0, 64, 102
1, 157774, Control_c, 0, 64, 103
1, 157885, Note_on_c, 0, 76, 58
1, 157923, Control_c, 0, 64, 102
1, 157937, Control_c, 0, 64, 101
1, 157959, Control_c, 0, 64, 99
1, 157974, Control_c, 0, 64, 96
1, 157984, Note_off_c, 0, 78, 33
1, 157989, Control_c, 0, 64, 91
1, 158004, Control_c, 0, 64, 84
1, 158019, Control_c, 0, 64, 75
1, 158029, Note_off_c, 0, 76, 47
1, 158033, Control_c, 0, 64, 64
1, 158048, Control_c, 0, 64, 60
1, 158057, Note_on_c, 0, 47, 44
1, 158060, Note_on_c, 0, 71, 48
1, 158060, Note_on_c, 0, 75, 51
1, 158062, Note_on_c, 0, 54, 41
1, 158063, Control_c, 0, 64, 61
1, 158066, Note_on_c, 0, 66, 32
1, 158070, Note_on_c, 0, 59, 18
1, 158078, Control_c, 0, 64, 65
1, 158092, Control_c, 0, 64, 69
1, 158095, Note_off_c, 0, 66, 56
1, 158107, Control_c, 0, 64, 75
1, 158122, Control_c, 0, 64, 85
1, 158137, Control_c, 0, 64, 95
1, 158152, Control_c, 0, 64, 97
1, 158154, Note_off_c, 0, 75, 58
1, 158176, Note_off_c, 0, 71, 34
1, 158211, Control_c, 0, 64, 97
1, 158218, Note_on_c, 0, 63, 53
1, 158226, Note_off_c, 0, 59, 38
1, 158313, Note_off_c, 0, 54, 40
1, 158318, Note_off_c, 0, 47, 34
1, 158346, Control_c, 0, 64, 97
1, 158376, Control_c, 0, 64, 96
1, 158377, Note_off_c, 0, 63, 39
1, 158382, Note_on_c, 0, 66, 45
1, 158405, Control_c, 0, 64, 96
1, 158450, Control_c, 0, 64, 95
1, 158465, Control_c, 0, 64, 95
1, 158480, Control_c, 0, 64, 94
1, 158495, Control_c, 0, 64, 91
1, 158507, Note_on_c, 0, 71, 58
1, 158509, Control_c, 0, 64, 86
1, 158513, Note_off_c, 0, 66, 47
1, 158524, Control_c, 0, 64, 81
1, 158539, Control_c, 0, 64, 80
1, 158554, Control_c, 0, 64, 83
1, 158569, Control_c, 0, 64, 88
1, 158583, Control_c, 0, 64, 92
1, 158598, Control_c, 0, 64, 93
1, 158613, Control_c, 0, 64, 94
1, 158638, Note_off_c, 0, 71, 55
1, 158658, Note_on_c, 0, 66, 56
1, 158798, Note_off_c, 0, 66, 56
1, 158820, Note_on_c, 0, 63, 55
1, 158842, Control_c, 0, 64, 93
1, 158916, Control_c, 0, 64, 93
1, 158931, Control_c, 0, 64, 92
1, 158946, Control_c, 0, 64, 90
1, 158961, Control_c, 0, 64, 85
1, 158972, Note_on_c, 0, 75, 58
1, 158976, Control_c, 0, 64, 82
1, 158982, Note_off_c, 0, 63, 53
1, 158990, Control_c, 0, 64, 81
1, 159034, Control_c, 0, 64, 81
1, 159049, Control_c, 0, 64, 82
1, 159064, Control_c, 0, 64, 83
1, 159079, Control_c, 0, 64, 83
1, 159095, Control_c, 0, 64, 84
1, 159110, Control_c, 0, 64, 85
1, 159123, Note_on_c, 0, 71, 57
1, 159125, Control_c, 0, 64, 86
1, 159127, Note_off_c, 0, 75, 53
1, 159139, Control_c, 0, 64, 87
1, 159154, Control_c, 0, 64, 87
1, 159169, Control_c, 0, 64, 88
1, 159184, Control_c, 0, 64, 89
1, 159199, Control_c, 0, 64, 90
1, 159213, Control_c, 0, 64, 92
1, 159228, Control_c, 0, 64, 94
1, 159237, Note_off_c, 0, 71, 60
1, 159243, Control_c, 0, 64, 97
1, 159258, Control_c, 0, 64, 102
1, 159264, Note_on_c, 0, 66, 60
1, 159273, Control_c, 0, 64, 107
1, 159288, Control_c, 0, 64, 116
1, 159303, Control_c, 0, 64, 127
1, 159410, Note_on_c, 0, 71, 57
1, 159436, Control_c, 0, 64, 108
1, 159458, Control_c, 0, 64, 100
1, 159473, Control_c, 0, 64, 100
1, 159477, Note_off_c, 0, 66, 33
1, 159502, Control_c, 0, 64, 102
1, 159517, Control_c, 0, 64, 104
1, 159532, Control_c, 0, 64, 105
1, 159562, Control_c, 0, 64, 105
1, 159577, Control_c, 0, 64, 107
1, 159582, Note_on_c, 0, 75, 63
1, 159592, Control_c, 0, 64, 114
1, 159606, Control_c, 0, 64, 127
1, 159705, Note_on_c, 0, 78, 60
1, 159725, Note_off_c, 0, 71, 19
1, 159751, Note_off_c, 0, 75, 35
1, 159768, Note_off_c, 0, 78, 55
1, 159843, Control_c, 0, 64, 110
1, 159857, Control_c, 0, 64, 98
1, 159872, Control_c, 0, 64, 86
1, 159884, Note_on_c, 0, 47, 39
1, 159886, Note_on_c, 0, 66, 54
1, 159888, Note_on_c, 0, 78, 62
1, 159888, Control_c, 0, 64, 76
1, 159903, Control_c, 0, 64, 67
1, 159918, Control_c, 0, 64, 62
1, 159933, Control_c, 0, 64, 61
1, 159962, Control_c, 0, 64, 63
1, 159977, Control_c, 0, 64, 67
1, 159992, Control_c, 0, 64, 71
1, 160007, Control_c, 0, 64, 79
1, 160022, Control_c, 0, 64, 90
1, 160036, Control_c, 0, 64, 101
1, 160051, Control_c, 0, 64, 106
1, 160074, Note_on_c, 0, 51, 46
1, 160079, Note_off_c, 0, 47, 40
1, 160081, Control_c, 0, 64, 107
1, 160117, Note_off_c, 0, 66, 35
1, 160140, Control_c, 0, 64, 107
1, 160143, Note_off_c, 0, 78, 36
1, 160228, Note_on_c, 0, 54, 51
1, 160239, Note_off_c, 0, 51, 41
1, 160280, Control_c, 0, 64, 107
1, 160295, Control_c, 0, 64, 106
1, 160310, Control_c, 0, 64, 105
1, 160325, Control_c, 0, 64, 102
1, 160340, Control_c, 0, 64, 98
1, 160355, Note_on_c, 0, 78, 69
1, 160355, Control_c, 0, 64, 90
1, 160356, Note_on_c, 0, 66, 66
1, 160370, Control_c, 0, 64, 80
1, 160375, Note_on_c, 0, 47, 46
1, 160385, Control_c, 0, 64, 72
1, 160400, Control_c, 0, 64, 70
1, 160404, Note_off_c, 0, 54, 40
1, 160414, Control_c, 0, 64, 71
1, 160429, Control_c, 0, 64, 75
1, 160444, Control_c, 0, 64, 81
1, 160459, Control_c, 0, 64, 92
1, 160474, Control_c, 0, 64, 104
1, 160488, Control_c, 0, 64, 113
1, 160503, Control_c, 0, 64, 114
1, 160518, Control_c, 0, 64, 117
1, 160531, Note_on_c, 0, 51, 57
1, 160533, Control_c, 0, 64, 127
1, 160557, Note_off_c, 0, 47, 36
1, 160640, Note_off_c, 0, 66, 35
1, 160665, Note_off_c, 0, 51, 54
1, 160670, Note_on_c, 0, 54, 64
1, 160811, Note_on_c, 0, 79, 74
1, 160815, Note_on_c, 0, 67, 74
1, 160815, Control_c, 0, 64, 105
1, 160826, Note_on_c, 0, 46, 55
1, 160829, Control_c, 0, 64, 90
1, 160844, Control_c, 0, 64, 76
1, 160847, Note_off_c, 0, 54, 36
1, 160859, Control_c, 0, 64, 65
1, 160874, Control_c, 0, 64, 60
1, 160896, Note_off_c, 0, 78, 39
1, 160903, Control_c, 0, 64, 63
1, 160918, Control_c, 0, 64, 67
1, 160933, Control_c, 0, 64, 73
1, 160948, Control_c, 0, 64, 82
1, 160971, Control_c, 0, 64, 98
1, 160985, Control_c, 0, 64, 119
1, 160988, Note_on_c, 0, 49, 62
1, 161000, Control_c, 0, 64, 127
1, 161007, Note_off_c, 0, 67, 59
1, 161021, Note_off_c, 0, 46, 36
1, 161121, Note_off_c, 0, 49, 54
1, 161128, Note_on_c, 0, 51, 56
1, 161268, Note_on_c, 0, 80, 76
1, 161275, Note_on_c, 0, 68, 71
1, 161278, Note_on_c, 0, 44, 57
1, 161297, Control_c, 0, 64, 103
1, 161302, Note_off_c, 0, 79, 50
1, 161311, Control_c, 0, 64, 85
1, 161326, Control_c, 0, 64, 71
1, 161334, Note_off_c, 0, 51, 38
1, 161341, Control_c, 0, 64, 63
1, 161356, Control_c, 0, 64, 61
1, 161371, Control_c, 0, 64, 63
1, 161385, Control_c, 0, 64, 66
1, 161400, Control_c, 0, 64, 71
1, 161415, Control_c, 0, 64, 82
1, 161429, Control_c, 0, 64, 98
1, 161443, Note_on_c, 0, 49, 57
1, 161444, Control_c, 0, 64, 121
1, 161459, Control_c, 0, 64, 127
1, 161467, Note_off_c, 0, 68, 57
1, 161469, Note_off_c, 0, 44, 34
1, 161586, Note_on_c, 0, 51, 51
1, 161604, Note_off_c, 0, 49, 35
1, 161734, Note_on_c, 0, 82, 76
1, 161736, Note_on_c, 0, 43, 52
1, 161744, Note_on_c, 0, 70, 65
1, 161749, Control_c, 0, 64, 105
1, 161764, Control_c, 0, 64, 88
1, 161779, Control_c, 0, 64, 74
1, 161781, Note_off_c, 0, 80, 39
1, 161784, Note_off_c, 0, 51, 37
1, 161794, Control_c, 0, 64, 64
1, 161808, Control_c, 0, 64, 60
1, 161838, Control_c, 0, 64, 61
1, 161852, Control_c, 0, 64, 64
1, 161867, Control_c, 0, 64, 69
1, 161882, Control_c, 0, 64, 75
1, 161897, Control_c, 0, 64, 87
1, 161912, Control_c, 0, 64, 104
1, 161921, Note_on_c, 0, 49, 53
1, 161927, Control_c, 0, 64, 117
1, 161934, Note_off_c, 0, 70, 58
1, 161941, Control_c, 0, 64, 117
1, 161948, Note_off_c, 0, 43, 30
1, 161956, Control_c, 0, 64, 118
1, 161971, Control_c, 0, 64, 121
1, 161982, Note_off_c, 0, 82, 60
1, 161986, Control_c, 0, 64, 123
1, 162001, Control_c, 0, 64, 124
1, 162015, Control_c, 0, 64, 127
1, 162057, Note_on_c, 0, 51, 48
1, 162060, Note_off_c, 0, 49, 36
1, 162149, Control_c, 0, 64, 123
1, 162164, Control_c, 0, 64, 118
1, 162178, Control_c, 0, 64, 112
1, 162190, Note_on_c, 0, 43, 45
1, 162193, Control_c, 0, 64, 106
1, 162204, Note_on_c, 0, 85, 73
1, 162208, Note_on_c, 0, 73, 71
1, 162208, Control_c, 0, 64, 94
1, 162223, Control_c, 0, 64, 81
1, 162238, Control_c, 0, 64, 70
1, 162248, Note_off_c, 0, 51, 32
1, 162252, Control_c, 0, 64, 63
1, 162267, Control_c, 0, 64, 62
1, 162298, Control_c, 0, 64, 64
1, 162313, Control_c, 0, 64, 67
1, 162328, Control_c, 0, 64, 74
1, 162343, Control_c, 0, 64, 85
1, 162357, Control_c, 0, 64, 100
1, 162364, Note_off_c, 0, 43, 37
1, 162367, Note_on_c, 0, 46, 46
1, 162372, Control_c, 0, 64, 119
1, 162387, Control_c, 0, 64, 127
1, 162392, Note_off_c, 0, 85, 58
1, 162394, Note_off_c, 0, 73, 58
1, 162519, Note_off_c, 0, 46, 42
1, 162529, Note_on_c, 0, 51, 47
1, 162601, Control_c, 0, 64, 123
1, 162616, Control_c, 0, 64, 117
1, 162631, Control_c, 0, 64, 110
1, 162646, Control_c, 0, 64, 104
1, 162661, Control_c, 0, 64, 97
1, 162673, Note_on_c, 0, 71, 62
1, 162674, Note_on_c, 0, 83, 72
1, 162676, Control_c, 0, 64, 87
1, 162679, Note_on_c, 0, 44, 48
1, 162683, Note_off_c, 0, 51, 22
1, 162690, Control_c, 0, 64, 76
1, 162705, Control_c, 0, 64, 67
1, 162720, Control_c, 0, 64, 62
1, 162750, Control_c, 0, 64, 64
1, 162764, Control_c, 0, 64, 67
1, 162779, Control_c, 0, 64, 72
1, 162794, Control_c, 0, 64, 79
1, 162808, Control_c, 0, 64, 90
1, 162823, Control_c, 0, 64, 101
1, 162838, Control_c, 0, 64, 106
1, 162848, Note_on_c, 0, 47, 49
1, 162868, Note_off_c, 0, 44, 31
1, 162868, Control_c, 0, 64, 107
1, 162872, Note_off_c, 0, 71, 36
1, 162883, Control_c, 0, 64, 108
1, 162913, Control_c, 0, 64, 108
1, 162917, Poly_aftertouch_c, 0, 76, 127
1, 162936, Poly_aftertouch_c, 0, 76, 0
1, 162942, Control_c, 0, 64, 109
1, 162955, Note_off_c, 0, 47, 0
1, 162985, Poly_aftertouch_c, 0, 47, 0
1, 162990, Note_on_c, 0, 51, 45
1, 163046, Control_c, 0, 64, 108
1, 163061, Control_c, 0, 64, 107
1, 163077, Control_c, 0, 64, 104
1, 163091, Control_c, 0, 64, 101
1, 163106, Control_c, 0, 64, 96
1, 163121, Control_c, 0, 64, 90
1, 163131, Note_off_c, 0, 51, 44
1, 163136, Control_c, 0, 64, 80
1, 163148, Note_on_c, 0, 82, 62
1, 163151, Note_on_c, 0, 70, 54
1, 163151, Control_c, 0, 64, 70
1, 163156, Note_on_c, 0, 49, 43
1, 163166, Control_c, 0, 64, 63
1, 163180, Control_c, 0, 64, 61
1, 163202, Control_c, 0, 64, 61
1, 163204, Note_off_c, 0, 83, 43
1, 163217, Control_c, 0, 64, 64
1, 163232, Control_c, 0, 64, 67
1, 163246, Control_c, 0, 64, 73
1, 163261, Control_c, 0, 64, 81
1, 163276, Control_c, 0, 64, 92
1, 163291, Control_c, 0, 64, 100
1, 163306, Control_c, 0, 64, 102
1, 163309, Note_on_c, 0, 52, 53
1, 163316, Note_off_c, 0, 49, 36
1, 163319, Note_off_c, 0, 82, 47
1, 163336, Control_c, 0, 64, 103
1, 163340, Note_off_c, 0, 70, 37
1, 163351, Control_c, 0, 64, 103
1, 163366, Control_c, 0, 64, 104
1, 163380, Control_c, 0, 64, 105
1, 163395, Control_c, 0, 64, 105
1, 163410, Control_c, 0, 64, 106
1, 163424, Control_c, 0, 64, 107
1, 163439, Control_c, 0, 64, 108
1, 163450, Note_on_c, 0, 58, 51
1, 163454, Control_c, 0, 64, 109
1, 163494, Note_off_c, 0, 52, 30
1, 163548, Note_on_c, 0, 68, 54
1, 163554, Note_on_c, 0, 80, 48
1, 163577, Note_off_c, 0, 80, 56
1, 163577, Note_off_c, 0, 68, 53
1, 163587, Control_c, 0, 64, 108
1, 163602, Control_c, 0, 64, 105
1, 163617, Control_c, 0, 64, 101
1, 163631, Control_c, 0, 64, 95
1, 163646, Control_c, 0, 64, 88
1, 163661, Control_c, 0, 64, 79
1, 163676, Note_on_c, 0, 51, 51
1, 163676, Control_c, 0, 64, 71
1, 163679, Note_off_c, 0, 58, 35
1, 163691, Control_c, 0, 64, 64
1, 163692, Note_on_c, 0, 67, 46
1, 163693, Note_on_c, 0, 79, 55
1, 163706, Control_c, 0, 64, 59
1, 163720, Control_c, 0, 64, 58
1, 163752, Note_off_c, 0, 67, 0
1, 163780, Control_c, 0, 64, 61
1, 163789, Poly_aftertouch_c, 0, 67, 127
1, 163795, Control_c, 0, 64, 65
1, 163810, Control_c, 0, 64, 69
1, 163824, Control_c, 0, 64, 75
1, 163839, Control_c, 0, 64, 85
1, 163854, Control_c, 0, 64, 96
1, 163864, Poly_aftertouch_c, 0, 67, 0
1, 163869, Control_c, 0, 64, 100
1, 163872, Note_on_c, 0, 58, 49
1, 163876, Note_off_c, 0, 51, 35
1, 163884, Note_off_c, 0, 79, 36
1, 163899, Control_c, 0, 64, 101
1, 163914, Control_c, 0, 64, 101
1, 163929, Control_c, 0, 64, 102
1, 163980, Note_off_c, 0, 58, 0
1, 164014, Note_on_c, 0, 61, 40
1, 164030, Poly_aftertouch_c, 0, 58, 0
1, 164084, Control_c, 0, 64, 101
1, 164099, Control_c, 0, 64, 100
1, 164114, Control_c, 0, 64, 98
1, 164129, Control_c, 0, 64, 94
1, 164138, Note_on_c, 0, 51, 40
1, 164139, Note_on_c, 0, 79, 61
1, 164144, Control_c, 0, 64, 88
1, 164145, Note_on_c, 0, 67, 54
1, 164159, Control_c, 0, 64, 79
1, 164173, Control_c, 0, 64, 68
1, 164177, Note_off_c, 0, 61, 36
1, 164184, Note_off_c, 0, 67, 0
1, 164184, Note_on_c, 0, 67, 18
1, 164188, Control_c, 0, 64, 63
1, 164218, Control_c, 0, 64, 65
1, 164233, Control_c, 0, 64, 68
1, 164247, Control_c, 0, 64, 73
1, 164262, Control_c, 0, 64, 82
1, 164277, Control_c, 0, 64, 91
1, 164286, Note_off_c, 0, 67, 58
1, 164292, Control_c, 0, 64, 98
1, 164305, Note_off_c, 0, 51, 38
1, 164307, Control_c, 0, 64, 100
1, 164313, Note_on_c, 0, 58, 50
1, 164366, Control_c, 0, 64, 100
1, 164446, Note_on_c, 0, 61, 37
1, 164475, Note_off_c, 0, 58, 39
1, 164484, Control_c, 0, 64, 100
1, 164499, Control_c, 0, 64, 98
1, 164514, Control_c, 0, 64, 95
1, 164528, Control_c, 0, 64, 90
1, 164543, Control_c, 0, 64, 80
1, 164558, Control_c, 0, 64, 69
1, 164573, Control_c, 0, 64, 64
1, 164591, Note_on_c, 0, 80, 59
1, 164594, Note_off_c, 0, 61, 23
1, 164595, Note_on_c, 0, 51, 34
1, 164597, Note_off_c, 0, 79, 49
1, 164600, Note_on_c, 0, 68, 55
1, 164603, Control_c, 0, 64, 66
1, 164618, Control_c, 0, 64, 69
1, 164633, Control_c, 0, 64, 74
1, 164647, Control_c, 0, 64, 81
1, 164662, Control_c, 0, 64, 90
1, 164677, Control_c, 0, 64, 97
1, 164692, Control_c, 0, 64, 98
1, 164710, Note_off_c, 0, 80, 56
1, 164715, Control_c, 0, 64, 99
1, 164745, Control_c, 0, 64, 99
1, 164751, Note_off_c, 0, 68, 35
1, 164759, Control_c, 0, 64, 100
1, 164772, Note_on_c, 0, 58, 45
1, 164774, Control_c, 0, 64, 100
1, 164784, Note_off_c, 0, 51, 37
1, 164842, Note_on_c, 0, 79, 70
1, 164853, Note_on_c, 0, 67, 59
1, 164933, Note_off_c, 0, 67, 52
1, 164935, Note_off_c, 0, 79, 56
1, 164965, Note_on_c, 0, 61, 45
1, 164966, Note_off_c, 0, 58, 33
1, 165026, Control_c, 0, 64, 100
1, 165041, Control_c, 0, 64, 99
1, 165056, Control_c, 0, 64, 97
1, 165070, Control_c, 0, 64, 93
1, 165085, Control_c, 0, 64, 84
1, 165098, Note_on_c, 0, 77, 67
1, 165099, Note_on_c, 0, 65, 67
1, 165100, Control_c, 0, 64, 74
1, 165108, Note_on_c, 0, 51, 38
1, 165115, Control_c, 0, 64, 67
1, 165130, Control_c, 0, 64, 66
1, 165134, Note_off_c, 0, 61, 38
1, 165144, Control_c, 0, 64, 67
1, 165159, Control_c, 0, 64, 71
1, 165174, Control_c, 0, 64, 76
1, 165189, Control_c, 0, 64, 87
1, 165191, Note_off_c, 0, 65, 55
1, 165203, Control_c, 0, 64, 98
1, 165218, Control_c, 0, 64, 103
1, 165233, Control_c, 0, 64, 104
1, 165248, Control_c, 0, 64, 106
1, 165263, Control_c, 0, 64, 109
1, 165277, Control_c, 0, 64, 113
1, 165292, Control_c, 0, 64, 124
1, 165293, Note_on_c, 0, 58, 50
1, 165307, Control_c, 0, 64, 127
1, 165315, Note_off_c, 0, 51, 40
1, 165378, Note_on_c, 0, 79, 73
1, 165382, Note_on_c, 0, 67, 61
1, 165455, Note_off_c, 0, 67, 59
1, 165455, Note_off_c, 0, 77, 28
1, 165518, Note_on_c, 0, 61, 55
1, 165528, Note_off_c, 0, 58, 37
1, 165542, Note_off_c, 0, 61, 60
1, 165730, Control_c, 0, 64, 124
1, 165744, Control_c, 0, 64, 104
1, 165751, Note_on_c, 0, 80, 70
1, 165759, Control_c, 0, 64, 90
1, 165765, Note_on_c, 0, 68, 60
1, 165774, Control_c, 0, 64, 76
1, 165789, Control_c, 0, 64, 65
1, 165793, Note_on_c, 0, 44, 40
1, 165795, Note_off_c, 0, 79, 59
1, 165804, Control_c, 0, 64, 55
1, 165819, Control_c, 0, 64, 55
1, 165849, Control_c, 0, 64, 60
1, 165864, Control_c, 0, 64, 66
1, 165879, Note_off_c, 0, 44, 57
1, 165879, Control_c, 0, 64, 72
1, 165893, Control_c, 0, 64, 83
1, 165908, Control_c, 0, 64, 97
1, 165923, Control_c, 0, 64, 109
1, 165938, Control_c, 0, 64, 111
1, 165952, Control_c, 0, 64, 113
1, 165967, Control_c, 0, 64, 117
1, 165982, Control_c, 0, 64, 127
1, 166038, Note_on_c, 0, 60, 48
1, 166051, Note_on_c, 0, 56, 45
1, 166064, Note_on_c, 0, 51, 36
1, 166102, Note_off_c, 0, 56, 58
1, 166109, Note_off_c, 0, 51, 46
1, 166124, Note_off_c, 0, 60, 36
1, 166178, Note_off_c, 0, 68, 35
1, 166179, Note_off_c, 0, 80, 37
1, 166233, Note_on_c, 0, 51, 40
1, 166250, Note_on_c, 0, 56, 41
1, 166251, Note_on_c, 0, 60, 27
1, 166275, Note_off_c, 0, 51, 49
1, 166282, Note_off_c, 0, 56, 54
1, 166293, Note_off_c, 0, 60, 45
1, 166384, Note_on_c, 0, 51, 40
1, 166408, Note_on_c, 0, 56, 26
1, 166415, Note_off_c, 0, 51, 54
1, 166451, Note_off_c, 0, 56, 43
1, 166508, Note_on_c, 0, 60, 24
1, 166508, Note_on_c, 0, 51, 48
1, 166522, Note_on_c, 0, 56, 39
1, 166548, Note_off_c, 0, 51, 59
1, 166560, Note_off_c, 0, 56, 56
1, 166560, Note_off_c, 0, 60, 43
1, 166679, Note_on_c, 0, 56, 44
1, 166680, Note_on_c, 0, 51, 39
1, 166711, Note_on_c, 0, 60, 6
1, 166713, Note_off_c, 0, 51, 55
1, 166715, Note_off_c, 0, 56, 54
1, 166777, Note_off_c, 0, 60, 40
1, 166817, Note_on_c, 0, 73, 65
1, 166821, Note_on_c, 0, 51, 41
1, 166832, Note_on_c, 0, 56, 41
1, 166862, Note_off_c, 0, 51, 57
1, 166867, Note_off_c, 0, 56, 51
1, 166871, Poly_aftertouch_c, 0, 60, 127
1, 166912, Poly_aftertouch_c, 0, 60, 0
1, 166973, Note_on_c, 0, 51, 50
1, 166985, Note_on_c, 0, 56, 49
1, 166987, Note_on_c, 0, 60, 29
1, 167026, Note_off_c, 0, 51, 52
1, 167029, Note_off_c, 0, 56, 55
1, 167036, Note_off_c, 0, 60, 43
1, 167055, Note_on_c, 0, 72, 78
1, 167165, Note_on_c, 0, 51, 53
1, 167168, Note_on_c, 0, 56, 53
1, 167172, Note_on_c, 0, 60, 48
1, 167191, Note_off_c, 0, 73, 30
1, 167217, Note_off_c, 0, 51, 57
1, 167227, Note_off_c, 0, 60, 50
1, 167232, Note_off_c, 0, 56, 50
1, 167303, Note_on_c, 0, 71, 84
1, 167313, Note_on_c, 0, 56, 46
1, 167318, Note_on_c, 0, 60, 50
1, 167327, Note_on_c, 0, 51, 48
1, 167333, Poly_aftertouch_c, 0, 73, 127
1, 167339, Note_off_c, 0, 72, 55
1, 167367, Note_off_c, 0, 51, 61
1, 167380, Poly_aftertouch_c, 0, 73, 0
1, 167387, Note_off_c, 0, 56, 51
1, 167390, Note_off_c, 0, 60, 37
1, 167468, Note_on_c, 0, 51, 54
1, 167468, Note_on_c, 0, 60, 55
1, 167473, Note_on_c, 0, 56, 60
1, 167508, Note_off_c, 0, 60, 57
1, 167525, Note_off_c, 0, 51, 53
1, 167529, Poly_aftertouch_c, 0, 73, 127
1, 167537, Note_on_c, 0, 72, 84
1, 167539, Note_off_c, 0, 56, 56
1, 167563, Note_off_c, 0, 71, 61
1, 167566, Poly_aftertouch_c, 0, 73, 0
1, 167637, Note_off_c, 0, 72, 60
1, 167643, Note_on_c, 0, 56, 52
1, 167648, Note_on_c, 0, 51, 67
1, 167673, Note_off_c, 0, 56, 64
1, 167710, Note_off_c, 0, 51, 59
1, 167758, Note_on_c, 0, 72, 82
1, 167957, Note_on_c, 0, 37, 59
1, 167961, Control_c, 0, 64, 97
1, 167962, Note_on_c, 0, 77, 78
1, 167975, Control_c, 0, 64, 75
1, 167991, Control_c, 0, 64, 57
1, 168006, Control_c, 0, 64, 38
1, 168019, Note_off_c, 0, 72, 54
1, 168020, Control_c, 0, 64, 43
1, 168035, Control_c, 0, 64, 56
1, 168049, Note_off_c, 0, 37, 61
1, 168050, Control_c, 0, 64, 68
1, 168065, Control_c, 0, 64, 78
1, 168080, Control_c, 0, 64, 93
1, 168094, Control_c, 0, 64, 117
1, 168109, Control_c, 0, 64, 127
1, 168218, Note_on_c, 0, 53, 49
1, 168220, Note_on_c, 0, 60, 43
1, 168234, Note_on_c, 0, 49, 38
1, 168267, Note_off_c, 0, 49, 53
1, 168267, Note_off_c, 0, 60, 43
1, 168365, Note_off_c, 0, 53, 0
1, 168372, Note_on_c, 0, 49, 45
1, 168380, Note_on_c, 0, 53, 36
1, 168388, Note_on_c, 0, 60, 29
1, 168411, Note_off_c, 0, 49, 59
1, 168425, Note_off_c, 0, 60, 48
1, 168430, Note_off_c, 0, 53, 58
1, 168524, Note_on_c, 0, 49, 52
1, 168544, Note_on_c, 0, 57, 42
1, 168576, Note_on_c, 0, 53, 35
1, 168582, Note_off_c, 0, 57, 59
1, 168595, Note_off_c, 0, 49, 46
1, 168610, Note_off_c, 0, 53, 52
1, 168684, Note_on_c, 0, 57, 51
1, 168708, Note_on_c, 0, 53, 46
1, 168714, Note_on_c, 0, 49, 32
1, 168722, Note_off_c, 0, 57, 61
1, 168745, Note_off_c, 0, 53, 50
1, 168746, Note_off_c, 0, 49, 54
1, 168830, Note_on_c, 0, 57, 51
1, 168833, Note_on_c, 0, 49, 55
1, 168851, Note_on_c, 0, 53, 47
1, 168852, Note_off_c, 0, 57, 63
1, 168879, Note_off_c, 0, 49, 54
1, 168883, Note_off_c, 0, 53, 55
1, 168972, Note_on_c, 0, 72, 69
1, 168976, Control_c, 0, 64, 110
1, 168984, Note_on_c, 0, 49, 54
1, 168985, Note_on_c, 0, 53, 53
1, 168991, Control_c, 0, 64, 109
1, 168994, Note_on_c, 0, 58, 49
1, 169006, Control_c, 0, 64, 110
1, 169021, Control_c, 0, 64, 115
1, 169035, Control_c, 0, 64, 127
1, 169042, Note_off_c, 0, 58, 43
1, 169063, Note_off_c, 0, 49, 37
1, 169132, Note_off_c, 0, 53, 0
1, 169145, Note_on_c, 0, 53, 46
1, 169147, Note_on_c, 0, 58, 52
1, 169152, Note_on_c, 0, 49, 55
1, 169205, Note_off_c, 0, 58, 55
1, 169217, Note_on_c, 0, 70, 82
1, 169223, Note_off_c, 0, 49, 55
1, 169258, Note_off_c, 0, 53, 36
1, 169310, Note_off_c, 0, 72, 35
1, 169337, Note_on_c, 0, 58, 60
1, 169346, Note_on_c, 0, 53, 66
1, 169351, Note_on_c, 0, 49, 61
1, 169388, Note_off_c, 0, 49, 57
1, 169417, Note_off_c, 0, 53, 53
1, 169443, Note_off_c, 0, 58, 34
1, 169450, Note_on_c, 0, 69, 85
1, 169483, Note_on_c, 0, 58, 55
1, 169491, Note_on_c, 0, 53, 58
1, 169491, Note_on_c, 0, 49, 61
1, 169538, Note_off_c, 0, 70, 36
1, 169560, Note_off_c, 0, 58, 55
1, 169563, Note_off_c, 0, 49, 54
1, 169581, Note_off_c, 0, 53, 55
1, 169635, Note_on_c, 0, 49, 60
1, 169635, Note_on_c, 0, 58, 66
1, 169648, Note_on_c, 0, 53, 55
1, 169703, Note_on_c, 0, 70, 85
1, 169706, Note_off_c, 0, 58, 51
1, 169713, Note_off_c, 0, 49, 54
1, 169737, Note_off_c, 0, 69, 64
1, 169739, Note_off_c, 0, 53, 52
1, 169761, Note_off_c, 0, 77, 39
1, 169790, Note_off_c, 0, 70, 59
1, 169807, Note_on_c, 0, 53, 68
1, 169813, Note_on_c, 0, 49, 62
1, 169852, Note_off_c, 0, 53, 56
1, 169861, Note_off_c, 0, 49, 58
1, 169896, Note_on_c, 0, 70, 82
1, 170047, Note_on_c, 0, 36, 38
1, 170066, Note_on_c, 0, 75, 86
1, 170073, Control_c, 0, 64, 95
1, 170088, Control_c, 0, 64, 68
1, 170103, Control_c, 0, 64, 43
1, 170107, Note_off_c, 0, 70, 59
1, 170117, Control_c, 0, 64, 29
1, 170132, Control_c, 0, 64, 44
1, 170142, Note_off_c, 0, 36, 61
1, 170147, Control_c, 0, 64, 61
1, 170162, Control_c, 0, 64, 73
1, 170177, Control_c, 0, 64, 87
1, 170192, Control_c, 0, 64, 127
1, 170285, Note_on_c, 0, 58, 55
1, 170302, Note_on_c, 0, 51, 45
1, 170313, Note_on_c, 0, 48, 47
1, 170337, Note_off_c, 0, 58, 53
1, 170340, Note_off_c, 0, 51, 59
1, 170355, Note_off_c, 0, 48, 61
1, 170448, Note_on_c, 0, 58, 49
1, 170460, Note_on_c, 0, 48, 48
1, 170468, Note_on_c, 0, 51, 34
1, 170483, Note_off_c, 0, 58, 61
1, 170498, Note_off_c, 0, 48, 56
1, 170526, Note_off_c, 0, 51, 42
1, 170604, Note_on_c, 0, 51, 34
1, 170622, Note_on_c, 0, 48, 33
1, 170623, Note_on_c, 0, 55, 20
1, 170654, Note_off_c, 0, 51, 54
1, 170658, Note_off_c, 0, 48, 52
1, 170667, Note_off_c, 0, 55, 51
1, 170773, Note_on_c, 0, 48, 45
1, 170776, Note_on_c, 0, 55, 56
1, 170787, Note_on_c, 0, 51, 40
1, 170808, Note_off_c, 0, 55, 62
1, 170809, Note_off_c, 0, 48, 51
1, 170812, Note_off_c, 0, 51, 59
1, 170911, Note_on_c, 0, 51, 36
1, 170917, Note_on_c, 0, 55, 53
1, 170922, Note_on_c, 0, 48, 46
1, 170949, Note_off_c, 0, 55, 62
1, 170959, Note_off_c, 0, 48, 61
1, 170982, Note_off_c, 0, 51, 57
1, 171067, Note_on_c, 0, 73, 76
1, 171075, Control_c, 0, 64, 110
1, 171076, Note_on_c, 0, 51, 43
1, 171088, Note_on_c, 0, 48, 42
1, 171089, Note_on_c, 0, 56, 48
1, 171090, Control_c, 0, 64, 94
1, 171105, Control_c, 0, 64, 93
1, 171119, Control_c, 0, 64, 103
1, 171134, Control_c, 0, 64, 127
1, 171135, Note_off_c, 0, 56, 44
1, 171148, Note_off_c, 0, 48, 56
1, 171161, Note_off_c, 0, 51, 50
1, 171241, Note_on_c, 0, 48, 44
1, 171245, Note_on_c, 0, 56, 50
1, 171248, Note_on_c, 0, 51, 39
1, 171289, Note_off_c, 0, 56, 60
1, 171302, Note_off_c, 0, 48, 55
1, 171304, Note_off_c, 0, 51, 52
1, 171309, Note_on_c, 0, 72, 83
1, 171326, Note_off_c, 0, 75, 50
1, 171331, Note_off_c, 0, 73, 60
1, 171422, Note_on_c, 0, 56, 60
1, 171432, Note_on_c, 0, 48, 59
1, 171447, Note_on_c, 0, 51, 61
1, 171472, Note_off_c, 0, 48, 60
1, 171483, Note_off_c, 0, 51, 58
1, 171498, Note_off_c, 0, 56, 57
1, 171550, Note_on_c, 0, 70, 85
1, 171570, Note_on_c, 0, 56, 58
1, 171573, Note_on_c, 0, 48, 64
1, 171574, Note_on_c, 0, 51, 62
1, 171587, Note_off_c, 0, 72, 65
1, 171637, Note_off_c, 0, 48, 58
1, 171642, Note_off_c, 0, 56, 57
1, 171653, Note_off_c, 0, 51, 55
1, 171719, Note_on_c, 0, 48, 60
1, 171729, Note_on_c, 0, 56, 63
1, 171730, Note_on_c, 0, 51, 57
1, 171781, Note_off_c, 0, 48, 59
1, 171799, Note_on_c, 0, 68, 87
1, 171804, Note_off_c, 0, 51, 55
1, 171847, Note_off_c, 0, 70, 60
1, 171856, Note_off_c, 0, 56, 0
1, 171879, Note_on_c, 0, 56, 11
1, 171899, Note_on_c, 0, 51, 66
1, 171906, Note_on_c, 0, 48, 55
1, 171922, Note_off_c, 0, 56, 58
1, 171945, Note_off_c, 0, 48, 62
1, 171958, Note_off_c, 0, 51, 58
1, 172130, Note_on_c, 0, 37, 56
1, 172131, Note_on_c, 0, 67, 75
1, 172132, Note_on_c, 0, 75, 83
1, 172150, Control_c, 0, 64, 103
1, 172162, Note_off_c, 0, 68, 58
1, 172165, Control_c, 0, 64, 75
1, 172180, Control_c, 0, 64, 58
1, 172201, Control_c, 0, 64, 54
1, 172216, Control_c, 0, 64, 59
1, 172231, Control_c, 0, 64, 67
1, 172240, Note_off_c, 0, 37, 61
1, 172246, Control_c, 0, 64, 77
1, 172261, Control_c, 0, 64, 95
1, 172276, Control_c, 0, 64, 127
1, 172387, Note_on_c, 0, 53, 51
1, 172392, Note_on_c, 0, 49, 52
1, 172442, Note_off_c, 0, 49, 54
1, 172459, Note_on_c, 0, 73, 74
1, 172459, Note_off_c, 0, 53, 47
1, 172465, Note_on_c, 0, 65, 69
1, 172471, Note_off_c, 0, 67, 56
1, 172505, Note_off_c, 0, 75, 57
1, 172530, Note_off_c, 0, 73, 61
1, 172589, Note_on_c, 0, 49, 54
1, 172601, Note_on_c, 0, 53, 54
1, 172641, Note_off_c, 0, 53, 59
1, 172642, Note_off_c, 0, 49, 58
1, 172706, Control_c, 0, 64, 96
1, 172721, Control_c, 0, 64, 85
1, 172722, Note_on_c, 0, 63, 73
1, 172723, Note_on_c, 0, 72, 77
1, 172735, Control_c, 0, 64, 84
1, 172750, Control_c, 0, 64, 90
1, 172761, Note_on_c, 0, 49, 54
1, 172763, Note_on_c, 0, 53, 49
1, 172765, Control_c, 0, 64, 100
1, 172780, Control_c, 0, 64, 113
1, 172789, Note_off_c, 0, 65, 36
1, 172795, Note_off_c, 0, 49, 63
1, 172795, Control_c, 0, 64, 127
1, 172809, Note_off_c, 0, 53, 45
1, 172894, Note_on_c, 0, 49, 59
1, 172910, Note_on_c, 0, 53, 56
1, 172949, Note_off_c, 0, 49, 58
1, 172950, Note_off_c, 0, 53, 62
1, 172979, Note_on_c, 0, 70, 75
1, 172979, Note_on_c, 0, 61, 75
1, 173015, Note_off_c, 0, 63, 56
1, 173071, Note_off_c, 0, 72, 24
1, 173091, Note_on_c, 0, 53, 49
1, 173094, Note_on_c, 0, 49, 58
1, 173116, Note_off_c, 0, 61, 58
1, 173120, Note_off_c, 0, 53, 62
1, 173128, Note_off_c, 0, 49, 64
1, 173247, Control_c, 0, 64, 122
1, 173260, Note_on_c, 0, 60, 70
1, 173261, Control_c, 0, 64, 86
1, 173263, Note_on_c, 0, 68, 75
1, 173266, Note_on_c, 0, 39, 59
1, 173276, Control_c, 0, 64, 71
1, 173291, Control_c, 0, 64, 68
1, 173304, Note_off_c, 0, 70, 36
1, 173306, Control_c, 0, 64, 70
1, 173312, Note_off_c, 0, 39, 63
1, 173321, Control_c, 0, 64, 77
1, 173335, Control_c, 0, 64, 89
1, 173350, Control_c, 0, 64, 127
1, 173435, Note_on_c, 0, 56, 58
1, 173451, Note_on_c, 0, 51, 51
1, 173475, Note_off_c, 0, 56, 60
1, 173490, Note_off_c, 0, 51, 61
1, 173572, Note_off_c, 0, 60, 35
1, 173580, Note_on_c, 0, 56, 55
1, 173592, Note_on_c, 0, 51, 54
1, 173612, Note_off_c, 0, 56, 64
1, 173624, Note_off_c, 0, 51, 63
1, 173744, Control_c, 0, 64, 92
1, 173747, Note_on_c, 0, 63, 67
1, 173752, Note_on_c, 0, 72, 71
1, 173755, Note_off_c, 0, 68, 53
1, 173758, Note_on_c, 0, 39, 52
1, 173758, Control_c, 0, 64, 68
1, 173773, Control_c, 0, 64, 59
1, 173788, Control_c, 0, 64, 59
1, 173794, Note_off_c, 0, 39, 55
1, 173803, Control_c, 0, 64, 63
1, 173818, Control_c, 0, 64, 68
1, 173832, Control_c, 0, 64, 76
1, 173847, Control_c, 0, 64, 92
1, 173862, Control_c, 0, 64, 127
1, 173940, Note_on_c, 0, 51, 51
1, 173940, Note_on_c, 0, 55, 47
1, 173975, Note_off_c, 0, 55, 59
1, 173977, Note_off_c, 0, 51, 61
1, 174069, Note_on_c, 0, 51, 54
1, 174080, Note_on_c, 0, 55, 45
1, 174109, Note_off_c, 0, 51, 57
1, 174112, Note_off_c, 0, 55, 54
1, 174134, Note_off_c, 0, 72, 34
1, 174151, Note_on_c, 0, 70, 59
1, 174152, Note_on_c, 0, 61, 51
1, 174201, Note_off_c, 0, 61, 57
1, 174263, Control_c, 0, 64, 96
1, 174278, Control_c, 0, 64, 80
1, 174288, Note_on_c, 0, 44, 53
1, 174292, Note_off_c, 0, 63, 37
1, 174293, Note_on_c, 0, 60, 48
1, 174293, Control_c, 0, 64, 66
1, 174299, Note_on_c, 0, 68, 58
1, 174307, Control_c, 0, 64, 60
1, 174312, Note_off_c, 0, 70, 35
1, 174322, Control_c, 0, 64, 61
1, 174337, Control_c, 0, 64, 66
1, 174346, Note_off_c, 0, 44, 55
1, 174352, Control_c, 0, 64, 70
1, 174367, Control_c, 0, 64, 79
1, 174381, Control_c, 0, 64, 100
1, 174396, Control_c, 0, 64, 127
1, 174474, Note_off_c, 0, 60, 0
1, 174490, Note_on_c, 0, 60, 11
1, 174498, Note_on_c, 0, 51, 51
1, 174501, Note_on_c, 0, 56, 50
1, 174541, Note_off_c, 0, 51, 58
1, 174542, Note_off_c, 0, 56, 61
1, 174574, Note_off_c, 0, 60, 36
1, 174630, Note_on_c, 0, 60, 31
1, 174657, Note_on_c, 0, 56, 43
1, 174668, Note_on_c, 0, 51, 33
1, 174679, Note_off_c, 0, 60, 43
1, 174687, Note_off_c, 0, 56, 57
1, 174687, Note_off_c, 0, 68, 36
1, 174712, Note_off_c, 0, 51, 44
1, 174789, Note_on_c, 0, 56, 47
1, 174796, Note_on_c, 0, 51, 32
1, 174813, Note_on_c, 0, 60, 17
1, 174815, Note_off_c, 0, 56, 59
1, 174836, Note_off_c, 0, 51, 48
1, 174859, Note_off_c, 0, 60, 49
1, 174917, Note_on_c, 0, 56, 48
1, 174924, Note_on_c, 0, 51, 52
1, 174930, Note_on_c, 0, 60, 43
1, 174961, Note_off_c, 0, 51, 59
1, 174967, Note_off_c, 0, 56, 59
1, 174971, Note_off_c, 0, 60, 58
1, 175075, Note_on_c, 0, 60, 54
1, 175081, Note_on_c, 0, 51, 48
1, 175084, Note_on_c, 0, 56, 56
1, 175122, Note_off_c, 0, 56, 62
1, 175126, Note_off_c, 0, 60, 49
1, 175128, Note_off_c, 0, 51, 58
1, 175230, Note_on_c, 0, 73, 70
1, 175255, Note_on_c, 0, 56, 42
1, 175260, Note_on_c, 0, 51, 45
1, 175262, Note_on_c, 0, 60, 36
1, 175295, Note_off_c, 0, 60, 51
1, 175298, Note_off_c, 0, 56, 49
1, 175301, Note_off_c, 0, 51, 57
1, 175400, Note_on_c, 0, 60, 50
1, 175403, Note_on_c, 0, 56, 56
1, 175409, Note_on_c, 0, 51, 51
1, 175462, Note_off_c, 0, 56, 54
1, 175471, Note_on_c, 0, 72, 79
1, 175485, Note_off_c, 0, 60, 35
1, 175496, Note_off_c, 0, 51, 36
1, 175590, Note_on_c, 0, 51, 54
1, 175593, Note_on_c, 0, 60, 53
1, 175597, Note_on_c, 0, 56, 61
1, 175644, Note_off_c, 0, 60, 53
1, 175644, Note_off_c, 0, 56, 54
1, 175656, Note_off_c, 0, 51, 54
1, 175656, Note_off_c, 0, 73, 0
1, 175694, Poly_aftertouch_c, 0, 73, 127
1, 175702, Note_on_c, 0, 71, 85
1, 175725, Note_on_c, 0, 51, 46
1, 175725, Note_on_c, 0, 56, 57
1, 175731, Note_on_c, 0, 60, 53
1, 175743, Note_off_c, 0, 72, 62
1, 175749, Poly_aftertouch_c, 0, 73, 0
1, 175786, Note_off_c, 0, 60, 52
1, 175796, Note_off_c, 0, 51, 56
1, 175799, Note_off_c, 0, 56, 55
1, 175867, Note_on_c, 0, 51, 46
1, 175869, Note_on_c, 0, 56, 48
1, 175875, Note_on_c, 0, 60, 51
1, 175941, Note_off_c, 0, 60, 50
1, 175952, Note_off_c, 0, 51, 55
1, 175954, Note_on_c, 0, 72, 83
1, 175960, Note_off_c, 0, 71, 64
1, 175969, Note_off_c, 0, 56, 50
1, 176052, Note_on_c, 0, 56, 35
1, 176055, Note_on_c, 0, 60, 26
1, 176065, Note_on_c, 0, 51, 61
1, 176085, Note_off_c, 0, 56, 64
1, 176092, Note_off_c, 0, 60, 50
1, 176121, Note_off_c, 0, 51, 55
1, 176288, Note_on_c, 0, 37, 62
1, 176295, Note_on_c, 0, 84, 79
1, 176297, Note_on_c, 0, 77, 67
1, 176301, Control_c, 0, 64, 96
1, 176316, Control_c, 0, 64, 75
1, 176331, Control_c, 0, 64, 63
1, 176346, Control_c, 0, 64, 61
1, 176360, Control_c, 0, 64, 65
1, 176375, Control_c, 0, 64, 70
1, 176378, Note_off_c, 0, 72, 34
1, 176390, Control_c, 0, 64, 80
1, 176395, Note_off_c, 0, 37, 60
1, 176404, Control_c, 0, 64, 98
1, 176419, Control_c, 0, 64, 127
1, 176566, Note_on_c, 0, 60, 44
1, 176571, Note_on_c, 0, 49, 55
1, 176573, Note_on_c, 0, 53, 58
1, 176608, Note_off_c, 0, 84, 55
1, 176623, Note_off_c, 0, 49, 52
1, 176631, Note_off_c, 0, 60, 54
1, 176661, Note_on_c, 0, 82, 77
1, 176711, Note_off_c, 0, 53, 33
1, 176726, Note_off_c, 0, 77, 47
1, 176767, Note_on_c, 0, 49, 55
1, 176772, Note_on_c, 0, 53, 48
1, 176778, Note_on_c, 0, 60, 52
1, 176824, Note_off_c, 0, 60, 54
1, 176836, Note_off_c, 0, 49, 54
1, 176909, Note_on_c, 0, 81, 84
1, 176911, Note_off_c, 0, 53, 0
1, 176929, Note_on_c, 0, 53, 34
1, 176933, Note_on_c, 0, 60, 59
1, 176939, Note_on_c, 0, 49, 51
1, 176940, Note_off_c, 0, 82, 56
1, 176968, Note_off_c, 0, 60, 56
1, 176982, Note_off_c, 0, 49, 60
1, 177096, Note_off_c, 0, 53, 0
1, 177099, Note_on_c, 0, 49, 58
1, 177102, Note_on_c, 0, 60, 60
1, 177108, Note_on_c, 0, 53, 48
1, 177149, Note_on_c, 0, 82, 85
1, 177167, Note_off_c, 0, 81, 60
1, 177170, Note_off_c, 0, 49, 53
1, 177174, Note_off_c, 0, 60, 48
1, 177264, Note_off_c, 0, 53, 0
1, 177266, Note_on_c, 0, 60, 54
1, 177277, Note_on_c, 0, 53, 42
1, 177284, Note_on_c, 0, 49, 51
1, 177301, Note_off_c, 0, 60, 60
1, 177328, Note_off_c, 0, 49, 61
1, 177337, Note_off_c, 0, 53, 52
1, 177391, Control_c, 0, 64, 97
1, 177401, Note_on_c, 0, 72, 83
1, 177406, Control_c, 0, 64, 80
1, 177417, Note_off_c, 0, 82, 60
1, 177427, Control_c, 0, 64, 74
1, 177429, Note_on_c, 0, 58, 53
1, 177439, Note_on_c, 0, 49, 52
1, 177442, Control_c, 0, 64, 78
1, 177448, Note_on_c, 0, 53, 48
1, 177458, Control_c, 0, 64, 91
1, 177473, Control_c, 0, 64, 113
1, 177488, Control_c, 0, 64, 127
1, 177493, Note_off_c, 0, 58, 52
1, 177496, Note_off_c, 0, 49, 52
1, 177584, Note_off_c, 0, 53, 0
1, 177597, Note_on_c, 0, 58, 61
1, 177597, Note_on_c, 0, 53, 46
1, 177600, Note_on_c, 0, 49, 58
1, 177645, Note_on_c, 0, 70, 86
1, 177646, Note_off_c, 0, 58, 56
1, 177647, Note_off_c, 0, 49, 54
1, 177678, Note_off_c, 0, 72, 62
1, 177704, Note_off_c, 0, 53, 34
1, 177773, Note_on_c, 0, 58, 62
1, 177774, Note_on_c, 0, 49, 58
1, 177779, Note_on_c, 0, 53, 67
1, 177837, Note_off_c, 0, 49, 51
1, 177848, Note_off_c, 0, 58, 45
1, 177851, Note_off_c, 0, 53, 55
1, 177895, Note_on_c, 0, 69, 88
1, 177919, Note_off_c, 0, 70, 59
1, 177921, Note_on_c, 0, 53, 59
1, 177924, Note_on_c, 0, 58, 58
1, 177926, Note_on_c, 0, 49, 59
1, 177992, Note_off_c, 0, 49, 50
1, 177996, Note_off_c, 0, 58, 47
1, 178017, Note_off_c, 0, 53, 47
1, 178069, Note_on_c, 0, 53, 52
1, 178076, Note_on_c, 0, 49, 58
1, 178076, Note_on_c, 0, 58, 62
1, 178138, Note_on_c, 0, 70, 88
1, 178141, Note_off_c, 0, 58, 57
1, 178148, Note_off_c, 0, 69, 60
1, 178158, Note_off_c, 0, 53, 57
1, 178202, Note_off_c, 0, 49, 33
1, 178238, Note_on_c, 0, 58, 60
1, 178247, Note_on_c, 0, 49, 46
1, 178255, Note_on_c, 0, 53, 72
1, 178265, Note_off_c, 0, 58, 64
1, 178296, Note_off_c, 0, 53, 59
1, 178310, Note_off_c, 0, 49, 61
1, 178455, Note_on_c, 0, 82, 81
1, 178457, Note_on_c, 0, 75, 80
1, 178486, Note_on_c, 0, 38, 55
1, 178487, Note_on_c, 0, 36, 53
1, 178489, Control_c, 0, 64, 88
1, 178500, Note_off_c, 0, 70, 58
1, 178504, Control_c, 0, 64, 68
1, 178519, Control_c, 0, 64, 60
1, 178524, Note_off_c, 0, 38, 59
1, 178534, Control_c, 0, 64, 62
1, 178549, Control_c, 0, 64, 67
1, 178563, Control_c, 0, 64, 77
1, 178578, Control_c, 0, 64, 98
1, 178587, Note_off_c, 0, 36, 60
1, 178593, Control_c, 0, 64, 127
1, 178726, Note_on_c, 0, 51, 56
1, 178737, Note_on_c, 0, 48, 53
1, 178738, Note_on_c, 0, 58, 45
1, 178777, Note_on_c, 0, 80, 79
1, 178789, Note_off_c, 0, 48, 52
1, 178790, Note_off_c, 0, 51, 56
1, 178798, Note_off_c, 0, 58, 50
1, 178908, Note_on_c, 0, 58, 58
1, 178924, Note_on_c, 0, 51, 57
1, 178953, Note_off_c, 0, 58, 59
1, 178966, Note_off_c, 0, 51, 57
1, 179030, Control_c, 0, 64, 95
1, 179035, Note_on_c, 0, 79, 81
1, 179042, Note_off_c, 0, 82, 40
1, 179045, Control_c, 0, 64, 87
1, 179054, Note_on_c, 0, 58, 58
1, 179060, Control_c, 0, 64, 91
1, 179064, Note_on_c, 0, 48, 16
1, 179072, Note_on_c, 0, 51, 57
1, 179075, Control_c, 0, 64, 117
1, 179084, Note_off_c, 0, 80, 54
1, 179090, Control_c, 0, 64, 127
1, 179099, Note_off_c, 0, 58, 53
1, 179108, Note_off_c, 0, 48, 47
1, 179108, Note_off_c, 0, 51, 59
1, 179215, Note_on_c, 0, 58, 62
1, 179220, Note_on_c, 0, 51, 60
1, 179223, Note_on_c, 0, 48, 51
1, 179249, Note_off_c, 0, 58, 57
1, 179263, Note_off_c, 0, 48, 62
1, 179278, Note_off_c, 0, 51, 52
1, 179282, Note_on_c, 0, 80, 82
1, 179296, Note_off_c, 0, 75, 19
1, 179326, Note_off_c, 0, 79, 36
1, 179374, Note_on_c, 0, 58, 68
1, 179378, Note_on_c, 0, 48, 55
1, 179413, Note_off_c, 0, 58, 56
1, 179427, Note_on_c, 0, 51, 23
1, 179430, Note_off_c, 0, 48, 56
1, 179476, Note_off_c, 0, 51, 41
1, 179504, Control_c, 0, 64, 116
1, 179519, Control_c, 0, 64, 93
1, 179528, Note_on_c, 0, 73, 82
1, 179534, Control_c, 0, 64, 78
1, 179542, Note_on_c, 0, 56, 62
1, 179549, Control_c, 0, 64, 73
1, 179555, Note_on_c, 0, 51, 46
1, 179564, Control_c, 0, 64, 76
1, 179567, Note_on_c, 0, 48, 33
1, 179579, Control_c, 0, 64, 90
1, 179594, Control_c, 0, 64, 115
1, 179597, Note_off_c, 0, 56, 48
1, 179605, Note_off_c, 0, 48, 50
1, 179609, Control_c, 0, 64, 127
1, 179611, Note_off_c, 0, 51, 50
1, 179716, Note_on_c, 0, 48, 56
1, 179716, Note_on_c, 0, 51, 53
1, 179716, Note_on_c, 0, 56, 63
1, 179764, Note_off_c, 0, 48, 59
1, 179767, Note_off_c, 0, 56, 54
1, 179781, Note_on_c, 0, 72, 87
1, 179784, Note_off_c, 0, 51, 49
1, 179790, Note_off_c, 0, 80, 42
1, 179804, Note_off_c, 0, 73, 60
1, 179891, Note_on_c, 0, 48, 55
1, 179896, Note_on_c, 0, 56, 67
1, 179905, Note_on_c, 0, 51, 67
1, 179948, Note_off_c, 0, 48, 54
1, 179953, Note_off_c, 0, 56, 55
1, 179963, Note_off_c, 0, 51, 48
1, 180031, Note_on_c, 0, 70, 90
1, 180036, Note_on_c, 0, 51, 56
1, 180038, Note_on_c, 0, 48, 58
1, 180042, Note_on_c, 0, 56, 67
1, 180082, Note_off_c, 0, 72, 60
1, 180109, Note_off_c, 0, 56, 54
1, 180110, Note_off_c, 0, 48, 53
1, 180127, Note_off_c, 0, 51, 49
1, 180192, Note_on_c, 0, 51, 54
1, 180194, Note_on_c, 0, 48, 52
1, 180195, Note_on_c, 0, 56, 67
1, 180261, Note_off_c, 0, 56, 55
1, 180273, Note_off_c, 0, 48, 46
1, 180273, Note_off_c, 0, 51, 52
1, 180281, Note_on_c, 0, 68, 90
1, 180312, Note_off_c, 0, 70, 59
1, 180351, Note_off_c, 0, 68, 58
1, 180356, Note_on_c, 0, 48, 45
1, 180361, Note_on_c, 0, 56, 66
1, 180365, Note_on_c, 0, 51, 58
1, 180390, Note_off_c, 0, 56, 57
1, 180434, Note_off_c, 0, 48, 59
1, 180437, Note_off_c, 0, 51, 58
1, 180596, Note_on_c, 0, 37, 57
1, 180601, Control_c, 0, 64, 113
1, 180610, Note_on_c, 0, 67, 81
1, 180610, Note_on_c, 0, 79, 80
1, 180612, Note_on_c, 0, 75, 76
1, 180616, Control_c, 0, 64, 87
1, 180631, Control_c, 0, 64, 70
1, 180646, Control_c, 0, 64, 63
1, 180653, Note_on_c, 0, 77, 30
1, 180654, Note_off_c, 0, 77, 127
1, 180661, Control_c, 0, 64, 64
1, 180676, Control_c, 0, 64, 67
1, 180691, Control_c, 0, 64, 73
1, 180697, Note_off_c, 0, 37, 60
1, 180706, Control_c, 0, 64, 87
1, 180720, Control_c, 0, 64, 113
1, 180735, Control_c, 0, 64, 127
1, 180809, Note_off_c, 0, 79, 58
1, 180832, Note_off_c, 0, 67, 60
1, 180836, Note_off_c, 0, 75, 61
1, 180860, Note_on_c, 0, 53, 51
1, 180862, Note_on_c, 0, 56, 39
1, 180868, Note_on_c, 0, 49, 54
1, 180916, Note_off_c, 0, 49, 56
1, 180923, Note_off_c, 0, 56, 43
1, 180947, Note_off_c, 0, 53, 0
1, 180951, Note_on_c, 0, 77, 82
1, 180955, Note_on_c, 0, 65, 78
1, 180957, Note_on_c, 0, 73, 76
1, 181022, Note_off_c, 0, 77, 58
1, 181025, Note_off_c, 0, 73, 63
1, 181030, Poly_aftertouch_c, 0, 53, 0
1, 181033, Note_off_c, 0, 65, 57
1, 181049, Note_on_c, 0, 53, 36
1, 181061, Note_on_c, 0, 56, 59
1, 181065, Note_on_c, 0, 49, 49
1, 181117, Note_off_c, 0, 49, 52
1, 181144, Note_off_c, 0, 56, 33
1, 181171, Control_c, 0, 64, 121
1, 181186, Control_c, 0, 64, 104
1, 181200, Control_c, 0, 64, 90
1, 181215, Note_on_c, 0, 72, 70
1, 181215, Control_c, 0, 64, 74
1, 181217, Note_off_c, 0, 53, 0
1, 181223, Note_on_c, 0, 75, 77
1, 181226, Note_on_c, 0, 63, 68
1, 181230, Control_c, 0, 64, 65
1, 181236, Note_on_c, 0, 53, 29
1, 181245, Note_on_c, 0, 57, 53
1, 181245, Control_c, 0, 64, 64
1, 181260, Note_on_c, 0, 49, 45
1, 181260, Control_c, 0, 64, 66
1, 181275, Control_c, 0, 64, 70
1, 181283, Note_off_c, 0, 57, 62
1, 181290, Control_c, 0, 64, 76
1, 181292, Note_off_c, 0, 49, 59
1, 181295, Note_off_c, 0, 53, 54
1, 181305, Control_c, 0, 64, 89
1, 181320, Control_c, 0, 64, 118
1, 181335, Control_c, 0, 64, 127
1, 181348, Note_off_c, 0, 75, 58
1, 181364, Note_off_c, 0, 72, 60
1, 181370, Note_off_c, 0, 63, 57
1, 181395, Note_on_c, 0, 49, 50
1, 181412, Note_on_c, 0, 53, 53
1, 181417, Note_on_c, 0, 57, 21
1, 181441, Note_off_c, 0, 49, 55
1, 181452, Note_off_c, 0, 57, 51
1, 181454, Note_off_c, 0, 53, 59
1, 181490, Note_on_c, 0, 73, 73
1, 181494, Note_on_c, 0, 61, 70
1, 181495, Note_on_c, 0, 70, 65
1, 181558, Note_off_c, 0, 61, 57
1, 181561, Note_off_c, 0, 70, 52
1, 181576, Note_off_c, 0, 73, 53
1, 181603, Note_on_c, 0, 53, 53
1, 181607, Note_on_c, 0, 49, 48
1, 181635, Note_off_c, 0, 53, 64
1, 181654, Note_off_c, 0, 49, 59
1, 181704, Poly_aftertouch_c, 0, 58, 0
1, 181795, Control_c, 0, 64, 105
1, 181800, Note_on_c, 0, 72, 70
1, 181801, Note_on_c, 0, 60, 61
1, 181809, Note_on_c, 0, 68, 61
1, 181810, Control_c, 0, 64, 85
1, 181815, Note_on_c, 0, 39, 58
1, 181824, Control_c, 0, 64, 69
1, 181839, Control_c, 0, 64, 65
1, 181854, Control_c, 0, 64, 67
1, 181859, Note_off_c, 0, 39, 64
1, 181869, Control_c, 0, 64, 72
1, 181884, Control_c, 0, 64, 81
1, 181898, Control_c, 0, 64, 105
1, 181921, Control_c, 0, 64, 127
1, 181961, Note_off_c, 0, 72, 56
1, 181980, Note_off_c, 0, 60, 53
1, 182002, Note_on_c, 0, 56, 46
1, 182008, Note_on_c, 0, 51, 55
1, 182047, Note_off_c, 0, 68, 56
1, 182048, Note_off_c, 0, 56, 58
1, 182049, Note_off_c, 0, 51, 56
1, 182160, Note_on_c, 0, 51, 54
1, 182165, Note_on_c, 0, 56, 40
1, 182190, Note_off_c, 0, 51, 61
1, 182192, Note_off_c, 0, 56, 57
1, 182321, Control_c, 0, 64, 98
1, 182323, Note_on_c, 0, 73, 68
1, 182327, Note_on_c, 0, 39, 53
1, 182327, Note_on_c, 0, 67, 62
1, 182331, Note_on_c, 0, 61, 54
1, 182336, Control_c, 0, 64, 76
1, 182351, Control_c, 0, 64, 64
1, 182363, Note_off_c, 0, 39, 58
1, 182366, Control_c, 0, 64, 62
1, 182376, Note_off_c, 0, 61, 0
1, 182376, Note_on_c, 0, 61, 10
1, 182381, Control_c, 0, 64, 65
1, 182395, Control_c, 0, 64, 69
1, 182410, Control_c, 0, 64, 76
1, 182425, Control_c, 0, 64, 90
1, 182440, Control_c, 0, 64, 127
1, 182535, Note_on_c, 0, 55, 46
1, 182537, Note_on_c, 0, 58, 45
1, 182540, Note_off_c, 0, 73, 51
1, 182542, Note_on_c, 0, 51, 44
1, 182563, Note_off_c, 0, 61, 0
1, 182587, Note_off_c, 0, 58, 55
1, 182587, Note_off_c, 0, 51, 60
1, 182599, Poly_aftertouch_c, 0, 61, 0
1, 182660, Note_off_c, 0, 55, 30
1, 182739, Note_on_c, 0, 55, 26
1, 182744, Note_on_c, 0, 51, 38
1, 182772, Control_c, 0, 67, 16
1, 182773, Note_off_c, 0, 55, 55
1, 182787, Control_c, 0, 67, 18
1, 182796, Note_off_c, 0, 51, 59
1, 182802, Control_c, 0, 67, 20
1, 182817, Control_c, 0, 67, 21
1, 182832, Control_c, 0, 67, 24
1, 182846, Note_on_c, 0, 70, 62
1, 182846, Control_c, 0, 67, 25
1, 182861, Control_c, 0, 67, 26
1, 182870, Note_off_c, 0, 67, 38
1, 182876, Note_off_c, 0, 70, 63
1, 182876, Control_c, 0, 67, 27
1, 182891, Control_c, 0, 67, 27
1, 183099, Control_c, 0, 64, 121
1, 183114, Control_c, 0, 64, 90
1, 183121, Note_on_c, 0, 68, 61
1, 183123, Note_on_c, 0, 32, 52
1, 183129, Control_c, 0, 64, 70
1, 183131, Note_on_c, 0, 63, 55
1, 183132, Note_on_c, 0, 56, 42
1, 183135, Note_on_c, 0, 44, 42
1, 183141, Note_on_c, 0, 60, 37
1, 183144, Control_c, 0, 64, 52
1, 183159, Control_c, 0, 64, 25
1, 183174, Control_c, 0, 64, 29
1, 183189, Control_c, 0, 64, 49
1, 183203, Control_c, 0, 64, 64
1, 183218, Control_c, 0, 64, 74
1, 183218, Control_c, 0, 67, 28
1, 183219, Note_off_c, 0, 32, 60
1, 183233, Control_c, 0, 64, 87
1, 183233, Control_c, 0, 67, 29
1, 183248, Control_c, 0, 64, 108
1, 183248, Control_c, 0, 67, 30
1, 183263, Control_c, 0, 64, 127
1, 183263, Control_c, 0, 67, 32
1, 183275, Note_off_c, 0, 44, 34
1, 183277, Control_c, 0, 67, 34
1, 183292, Control_c, 0, 67, 35
1, 183307, Control_c, 0, 67, 36
1, 183322, Control_c, 0, 67, 37
1, 183337, Control_c, 0, 67, 38
1, 183351, Control_c, 0, 67, 39
1, 183366, Control_c, 0, 67, 39
1, 183381, Control_c, 0, 67, 40
1, 183410, Note_on_c, 0, 44, 38
1, 183410, Control_c, 0, 67, 40
1, 183429, Note_on_c, 0, 48, 42
1, 183433, Control_c, 0, 67, 41
1, 183436, Note_on_c, 0, 51, 22
1, 183448, Control_c, 0, 67, 41
1, 183460, Note_off_c, 0, 44, 57
1, 183463, Control_c, 0, 67, 42
1, 183471, Note_off_c, 0, 48, 58
1, 183477, Control_c, 0, 67, 42
1, 183481, Note_off_c, 0, 51, 46
1, 183492, Control_c, 0, 67, 43
1, 183507, Control_c, 0, 67, 44
1, 183522, Control_c, 0, 67, 44
1, 183537, Control_c, 0, 67, 45
1, 183551, Control_c, 0, 67, 45
1, 183566, Control_c, 0, 67, 46
1, 183589, Note_on_c, 0, 44, 32
1, 183594, Note_on_c, 0, 51, 29
1, 183610, Control_c, 0, 67, 47
1, 183615, Note_on_c, 0, 48, 23
1, 183625, Control_c, 0, 67, 47
1, 183627, Note_off_c, 0, 44, 49
1, 183633, Note_off_c, 0, 51, 49
1, 183640, Control_c, 0, 67, 48
1, 183655, Control_c, 0, 67, 50
1, 183659, Note_off_c, 0, 48, 50
1, 183669, Control_c, 0, 67, 52
1, 183684, Control_c, 0, 64, 111
1, 183684, Control_c, 0, 67, 54
1, 183699, Control_c, 0, 64, 100
1, 183699, Control_c, 0, 67, 57
1, 183713, Control_c, 0, 64, 87
1, 183713, Control_c, 0, 67, 59
1, 183728, Control_c, 0, 64, 73
1, 183728, Control_c, 0, 67, 62
1, 183742, Note_on_c, 0, 44, 35
1, 183743, Control_c, 0, 64, 63
1, 183743, Control_c, 0, 67, 65
1, 183746, Note_on_c, 0, 51, 24
1, 183748, Note_on_c, 0, 48, 30
1, 183758, Control_c, 0, 64, 61
1, 183758, Control_c, 0, 67, 67
1, 183773, Control_c, 0, 64, 64
1, 183773, Control_c, 0, 67, 71
1, 183788, Note_off_c, 0, 44, 49
1, 183788, Note_off_c, 0, 48, 58
1, 183788, Control_c, 0, 64, 69
1, 183788, Control_c, 0, 67, 74
1, 183794, Note_off_c, 0, 51, 49
1, 183803, Control_c, 0, 64, 76
1, 183803, Control_c, 0, 67, 78
1, 183818, Control_c, 0, 64, 88
1, 183818, Control_c, 0, 67, 81
1, 183833, Control_c, 0, 64, 103
1, 183833, Control_c, 0, 67, 85
1, 183848, Control_c, 0, 64, 112
1, 183848, Control_c, 0, 67, 89
1, 183863, Control_c, 0, 64, 113
1, 183863, Control_c, 0, 67, 92
1, 183878, Control_c, 0, 67, 95
1, 183892, Control_c, 0, 67, 98
1, 183901, Note_on_c, 0, 51, 43
1, 183907, Control_c, 0, 67, 100
1, 183908, Note_on_c, 0, 48, 49
1, 183911, Note_on_c, 0, 44, 38
1, 183922, Control_c, 0, 67, 102
1, 183937, Control_c, 0, 67, 104
1, 183949, Note_off_c, 0, 51, 45
1, 183952, Control_c, 0, 67, 106
1, 183955, Note_off_c, 0, 48, 58
1, 183958, Note_off_c, 0, 44, 47
1, 183967, Control_c, 0, 64, 114
1, 183967, Control_c, 0, 67, 108
1, 183982, Control_c, 0, 67, 110
1, 183997, Control_c, 0, 67, 112
1, 184011, Control_c, 0, 67, 113
1, 184026, Control_c, 0, 67, 114
1, 184041, Control_c, 0, 67, 115
1, 184056, Control_c, 0, 67, 116
1, 184071, Control_c, 0, 67, 117
1, 184084, Note_on_c, 0, 44, 38
1, 184086, Control_c, 0, 67, 117
1, 184086, Note_on_c, 0, 51, 16
1, 184100, Control_c, 0, 67, 118
1, 184103, Note_on_c, 0, 48, 29
1, 184115, Control_c, 0, 67, 118
1, 184125, Note_off_c, 0, 44, 47
1, 184127, Note_off_c, 0, 51, 51
1, 184130, Control_c, 0, 64, 113
1, 184130, Control_c, 0, 67, 119
1, 184136, Note_off_c, 0, 48, 54
1, 184144, Control_c, 0, 64, 112
1, 184144, Control_c, 0, 67, 119
1, 184159, Control_c, 0, 64, 110
1, 184181, Control_c, 0, 64, 106
1, 184196, Control_c, 0, 64, 100
1, 184196, Control_c, 0, 67, 120
1, 184211, Control_c, 0, 64, 91
1, 184226, Control_c, 0, 64, 77
1, 184241, Control_c, 0, 64, 65
1, 184241, Control_c, 0, 67, 121
1, 184250, Note_on_c, 0, 44, 34
1, 184256, Control_c, 0, 64, 60
1, 184256, Control_c, 0, 67, 122
1, 184271, Control_c, 0, 64, 62
1, 184271, Control_c, 0, 67, 123
1, 184286, Control_c, 0, 64, 67
1, 184286, Control_c, 0, 67, 124
1, 184286, Note_off_c, 0, 44, 53
1, 184300, Control_c, 0, 64, 73
1, 184300, Control_c, 0, 67, 125
1, 184315, Control_c, 0, 64, 82
1, 184315, Control_c, 0, 67, 125
1, 184321, Poly_aftertouch_c, 0, 51, 0
1, 184330, Control_c, 0, 64, 93
1, 184330, Control_c, 0, 67, 126
1, 184344, Control_c, 0, 64, 102
1, 184359, Control_c, 0, 64, 103
1, 184359, Control_c, 0, 67, 126
1, 184404, Control_c, 0, 64, 103
1, 184406, Note_on_c, 0, 48, 32
1, 184408, Note_on_c, 0, 44, 34
1, 184418, Control_c, 0, 64, 104
1, 184433, Control_c, 0, 64, 105
1, 184440, Note_off_c, 0, 56, 41
1, 184448, Control_c, 0, 64, 106
1, 184456, Note_off_c, 0, 44, 46
1, 184463, Note_off_c, 0, 48, 43
1, 184464, Control_c, 0, 64, 108
1, 184464, Control_c, 0, 67, 127
1, 184479, Control_c, 0, 64, 108
1, 184479, Control_c, 0, 67, 127
1, 184479, Note_off_c, 0, 63, 34
1, 184485, Note_off_c, 0, 68, 38
1, 184493, Control_c, 0, 64, 109
1, 184500, Note_off_c, 0, 60, 35
1, 184508, Control_c, 0, 64, 109
1, 184558, Poly_aftertouch_c, 0, 51, 0
1, 184573, Note_on_c, 0, 44, 39
1, 184596, Note_on_c, 0, 48, 30
1, 184596, Poly_aftertouch_c, 0, 51, 127
1, 184623, Note_off_c, 0, 44, 45
1, 184633, Note_off_c, 0, 48, 51
1, 184640, Poly_aftertouch_c, 0, 51, 0
1, 184702, Control_c, 0, 64, 108
1, 184716, Control_c, 0, 64, 105
1, 184731, Control_c, 0, 64, 101
1, 184746, Control_c, 0, 64, 94
1, 184749, Note_on_c, 0, 44, 38
1, 184750, Note_on_c, 0, 60, 61
1, 184752, Note_on_c, 0, 48, 46
1, 184760, Control_c, 0, 64, 86
1, 184775, Control_c, 0, 64, 76
1, 184787, Note_off_c, 0, 44, 50
1, 184790, Control_c, 0, 64, 67
1, 184793, Note_off_c, 0, 48, 56
1, 184805, Control_c, 0, 64, 67
1, 184820, Control_c, 0, 64, 69
1, 184834, Control_c, 0, 64, 74
1, 184849, Control_c, 0, 64, 82
1, 184864, Control_c, 0, 64, 93
1, 184879, Control_c, 0, 64, 104
1, 184894, Control_c, 0, 64, 107
1, 184925, Note_on_c, 0, 48, 47
1, 184934, Note_on_c, 0, 44, 32
1, 184961, Control_c, 0, 64, 108
1, 184961, Control_c, 0, 67, 127
1, 184971, Note_off_c, 0, 48, 59
1, 184972, Note_off_c, 0, 44, 49
1, 184975, Control_c, 0, 64, 108
1, 184975, Control_c, 0, 67, 126
1, 184990, Control_c, 0, 64, 109
1, 184990, Control_c, 0, 67, 126
1, 185005, Control_c, 0, 64, 110
1, 185035, Control_c, 0, 64, 111
1, 185111, Note_on_c, 0, 44, 31
1, 185155, Note_off_c, 0, 44, 47
1, 185159, Poly_aftertouch_c, 0, 48, 127
1, 185192, Poly_aftertouch_c, 0, 48, 0
1, 185202, Note_on_c, 0, 63, 56
1, 185272, Control_c, 0, 64, 110
1, 185287, Control_c, 0, 64, 109
1, 185301, Control_c, 0, 64, 105
1, 185316, Control_c, 0, 64, 101
1, 185331, Control_c, 0, 64, 95
1, 185346, Control_c, 0, 64, 88
1, 185346, Control_c, 0, 67, 126
1, 185360, Control_c, 0, 64, 81
1, 185375, Control_c, 0, 64, 72
1, 185381, Note_on_c, 0, 68, 56
1, 185390, Control_c, 0, 64, 64
1, 185392, Note_on_c, 0, 56, 47
1, 185405, Control_c, 0, 64, 55
1, 185406, Note_on_c, 0, 32, 40
1, 185412, Note_on_c, 0, 44, 32
1, 185418, Note_off_c, 0, 60, 12
1, 185420, Control_c, 0, 64, 52
1, 185421, Note_off_c, 0, 63, 37
1, 185451, Control_c, 0, 64, 57
1, 185458, Note_off_c, 0, 32, 49
1, 185465, Control_c, 0, 64, 64
1, 185480, Control_c, 0, 64, 70
1, 185495, Note_off_c, 0, 44, 54
1, 185495, Control_c, 0, 64, 78
1, 185510, Control_c, 0, 64, 93
1, 185525, Control_c, 0, 64, 104
1, 185539, Control_c, 0, 64, 108
1, 185569, Control_c, 0, 64, 108
1, 185569, Control_c, 0, 67, 126
1, 185584, Control_c, 0, 64, 110
1, 185584, Control_c, 0, 67, 125
1, 185598, Control_c, 0, 64, 111
1, 185598, Control_c, 0, 67, 124
1, 185613, Control_c, 0, 64, 111
1, 185613, Control_c, 0, 67, 123
1, 185617, Note_off_c, 0, 56, 35
1, 185624, Note_off_c, 0, 68, 35
1, 185628, Control_c, 0, 64, 113
1, 185628, Control_c, 0, 67, 123
1, 185643, Control_c, 0, 64, 115
1, 185643, Control_c, 0, 67, 122
1, 185653, Note_on_c, 0, 44, 31
1, 185665, Control_c, 0, 64, 117
1, 185665, Control_c, 0, 67, 121
1, 185677, Note_on_c, 0, 51, 25
1, 185680, Note_on_c, 0, 48, 42
1, 185680, Control_c, 0, 64, 117
1, 185680, Control_c, 0, 67, 119
1, 185695, Control_c, 0, 67, 119
1, 185710, Control_c, 0, 67, 118
1, 185716, Note_off_c, 0, 44, 48
1, 185718, Note_off_c, 0, 51, 50
1, 185724, Note_off_c, 0, 48, 46
1, 185725, Control_c, 0, 67, 117
1, 185739, Control_c, 0, 67, 116
1, 185754, Control_c, 0, 67, 116
1, 185841, Note_on_c, 0, 51, 29
1, 185843, Control_c, 0, 67, 115
1, 185853, Note_on_c, 0, 44, 40
1, 185857, Note_on_c, 0, 48, 38
1, 185858, Control_c, 0, 64, 117
1, 185872, Control_c, 0, 64, 116
1, 185872, Control_c, 0, 67, 115
1, 185886, Note_off_c, 0, 51, 46
1, 185887, Control_c, 0, 64, 115
1, 185887, Control_c, 0, 67, 114
1, 185892, Note_off_c, 0, 48, 51
1, 185897, Note_off_c, 0, 44, 47
1, 185902, Control_c, 0, 64, 113
1, 185916, Control_c, 0, 64, 112
1, 185931, Control_c, 0, 64, 109
1, 185946, Control_c, 0, 64, 105
1, 185961, Control_c, 0, 64, 99
1, 185976, Control_c, 0, 64, 93
1, 185990, Note_on_c, 0, 68, 59
1, 185990, Control_c, 0, 64, 85
1, 186005, Control_c, 0, 64, 77
1, 186009, Note_on_c, 0, 44, 42
1, 186009, Note_on_c, 0, 56, 45
1, 186009, Note_on_c, 0, 51, 26
1, 186014, Note_on_c, 0, 48, 37
1, 186020, Control_c, 0, 64, 73
1, 186035, Control_c, 0, 64, 71
1, 186035, Control_c, 0, 67, 114
1, 186048, Note_off_c, 0, 51, 52
1, 186058, Note_off_c, 0, 48, 49
1, 186061, Note_off_c, 0, 44, 48
1, 186064, Control_c, 0, 64, 74
1, 186079, Control_c, 0, 64, 79
1, 186094, Control_c, 0, 64, 88
1, 186109, Control_c, 0, 64, 96
1, 186123, Control_c, 0, 64, 99
1, 186138, Control_c, 0, 64, 100
1, 186153, Control_c, 0, 64, 100
1, 186168, Control_c, 0, 64, 101
1, 186183, Note_on_c, 0, 48, 44
1, 186183, Control_c, 0, 64, 101
1, 186185, Note_on_c, 0, 44, 40
1, 186185, Note_on_c, 0, 51, 28
1, 186185, Note_off_c, 0, 56, 52
1, 186197, Control_c, 0, 64, 102
1, 186212, Control_c, 0, 64, 104
1, 186214, Note_off_c, 0, 68, 46
1, 186215, Note_off_c, 0, 44, 53
1, 186220, Note_off_c, 0, 48, 54
1, 186227, Note_off_c, 0, 51, 50
1, 186227, Control_c, 0, 64, 105
1, 186243, Control_c, 0, 64, 107
1, 186258, Control_c, 0, 64, 108
1, 186343, Note_on_c, 0, 51, 37
1, 186346, Note_on_c, 0, 48, 46
1, 186352, Note_on_c, 0, 44, 32
1, 186384, Note_off_c, 0, 51, 48
1, 186387, Note_off_c, 0, 48, 59
1, 186395, Note_off_c, 0, 44, 49
1, 186458, Control_c, 0, 64, 107
1, 186473, Control_c, 0, 64, 106
1, 186487, Control_c, 0, 64, 104
1, 186502, Control_c, 0, 64, 101
1, 186517, Control_c, 0, 64, 96
1, 186524, Note_on_c, 0, 68, 67
1, 186525, Note_on_c, 0, 48, 39
1, 186530, Note_on_c, 0, 44, 37
1, 186531, Note_on_c, 0, 51, 32
1, 186532, Note_on_c, 0, 56, 60
1, 186532, Control_c, 0, 64, 87
1, 186546, Control_c, 0, 64, 78
1, 186561, Control_c, 0, 64, 70
1, 186576, Control_c, 0, 64, 69
1, 186581, Note_off_c, 0, 48, 59
1, 186587, Note_off_c, 0, 51, 45
1, 186590, Note_off_c, 0, 44, 42
1, 186591, Control_c, 0, 64, 70
1, 186606, Control_c, 0, 64, 72
1, 186620, Control_c, 0, 64, 75
1, 186635, Control_c, 0, 64, 83
1, 186650, Control_c, 0, 64, 90
1, 186665, Control_c, 0, 64, 96
1, 186680, Control_c, 0, 64, 98
1, 186680, Control_c, 0, 67, 114
1, 186694, Control_c, 0, 64, 99
1, 186709, Control_c, 0, 64, 99
1, 186721, Note_on_c, 0, 44, 37
1, 186724, Note_on_c, 0, 51, 17
1, 186724, Note_on_c, 0, 48, 47
1, 186724, Control_c, 0, 64, 101
1, 186730, Note_off_c, 0, 56, 54
1, 186736, Note_off_c, 0, 68, 52
1, 186739, Control_c, 0, 64, 104
1, 186754, Control_c, 0, 64, 108
1, 186754, Note_off_c, 0, 44, 51
1, 186761, Note_off_c, 0, 48, 49
1, 186763, Note_off_c, 0, 51, 52
1, 186769, Control_c, 0, 64, 111
1, 186784, Control_c, 0, 64, 111
1, 186885, Note_on_c, 0, 44, 33
1, 186891, Note_on_c, 0, 51, 27
1, 186898, Note_on_c, 0, 48, 41
1, 186929, Note_off_c, 0, 48, 54
1, 186933, Note_off_c, 0, 51, 50
1, 186935, Note_off_c, 0, 44, 45
1, 186976, Control_c, 0, 64, 110
1, 186991, Control_c, 0, 64, 110
1, 187006, Control_c, 0, 64, 108
1, 187020, Control_c, 0, 64, 105
1, 187036, Control_c, 0, 64, 100
1, 187051, Control_c, 0, 64, 92
1, 187057, Note_on_c, 0, 48, 40
1, 187063, Note_on_c, 0, 44, 41
1, 187063, Note_on_c, 0, 68, 69
1, 187065, Note_on_c, 0, 51, 26
1, 187066, Control_c, 0, 64, 83
1, 187067, Note_on_c, 0, 56, 64
1, 187081, Control_c, 0, 64, 75
1, 187096, Control_c, 0, 64, 71
1, 187104, Note_off_c, 0, 44, 50
1, 187108, Note_off_c, 0, 51, 50
1, 187110, Control_c, 0, 64, 72
1, 187112, Note_off_c, 0, 48, 56
1, 187125, Control_c, 0, 64, 73
1, 187140, Control_c, 0, 64, 77
1, 187155, Control_c, 0, 64, 84
1, 187155, Control_c, 0, 67, 114
1, 187177, Control_c, 0, 64, 91
1, 187192, Control_c, 0, 64, 97
1, 187207, Control_c, 0, 64, 100
1, 187222, Control_c, 0, 64, 102
1, 187236, Control_c, 0, 64, 104
1, 187251, Control_c, 0, 64, 109
1, 187252, Note_on_c, 0, 48, 48
1, 187252, Note_on_c, 0, 51, 14
1, 187256, Note_on_c, 0, 44, 32
1, 187266, Control_c, 0, 64, 117
1, 187281, Control_c, 0, 64, 127
1, 187288, Note_off_c, 0, 48, 56
1, 187297, Note_off_c, 0, 44, 49
1, 187302, Note_off_c, 0, 51, 51
1, 187355, Control_c, 0, 67, 114
1, 187358, Note_off_c, 0, 56, 50
1, 187377, Note_off_c, 0, 68, 36
1, 187421, Note_on_c, 0, 44, 42
1, 187435, Note_on_c, 0, 48, 15
1, 187457, Note_off_c, 0, 44, 53
1, 187475, Note_off_c, 0, 48, 53
1, 187533, Control_c, 0, 67, 114
1, 187577, Control_c, 0, 67, 113
1, 187622, Control_c, 0, 64, 112
1, 187636, Control_c, 0, 64, 99
1, 187636, Control_c, 0, 67, 114
1, 187645, Note_on_c, 0, 67, 69
1, 187649, Note_on_c, 0, 55, 60
1, 187651, Control_c, 0, 64, 81
1, 187660, Note_on_c, 0, 31, 55
1, 187666, Control_c, 0, 64, 64
1, 187671, Note_on_c, 0, 43, 47
1, 187681, Control_c, 0, 64, 36
1, 187696, Control_c, 0, 64, 0
1, 187726, Control_c, 0, 64, 28
1, 187735, Note_off_c, 0, 31, 62
1, 187741, Control_c, 0, 64, 55
1, 187755, Control_c, 0, 64, 71
1, 187770, Control_c, 0, 64, 82
1, 187773, Note_off_c, 0, 43, 60
1, 187785, Control_c, 0, 64, 99
1, 187785, Control_c, 0, 67, 113
1, 187800, Control_c, 0, 64, 114
1, 187800, Control_c, 0, 67, 113
1, 187815, Control_c, 0, 64, 122
1, 187815, Control_c, 0, 67, 112
1, 187830, Control_c, 0, 67, 111
1, 187845, Control_c, 0, 67, 110
1, 187860, Control_c, 0, 67, 107
1, 187875, Control_c, 0, 67, 104
1, 187890, Control_c, 0, 67, 102
1, 187905, Control_c, 0, 67, 101
1, 187926, Control_c, 0, 67, 100
1, 187927, Note_on_c, 0, 48, 51
1, 187938, Note_on_c, 0, 43, 42
1, 187941, Control_c, 0, 67, 99
1, 187947, Note_on_c, 0, 51, 20
1, 187956, Control_c, 0, 67, 97
1, 187970, Note_off_c, 0, 43, 53
1, 187971, Control_c, 0, 67, 95
1, 187979, Note_off_c, 0, 48, 57
1, 187986, Control_c, 0, 67, 93
1, 187989, Note_off_c, 0, 51, 46
1, 188000, Control_c, 0, 67, 92
1, 188015, Control_c, 0, 67, 91
1, 188030, Control_c, 0, 67, 91
1, 188089, Note_on_c, 0, 43, 39
1, 188101, Note_on_c, 0, 48, 35
1, 188104, Control_c, 0, 64, 121
1, 188119, Note_on_c, 0, 51, 10
1, 188119, Control_c, 0, 64, 118
1, 188119, Control_c, 0, 67, 90
1, 188126, Note_off_c, 0, 43, 48
1, 188134, Control_c, 0, 64, 115
1, 188134, Control_c, 0, 67, 89
1, 188146, Note_off_c, 0, 48, 47
1, 188149, Control_c, 0, 64, 112
1, 188149, Control_c, 0, 67, 87
1, 188164, Control_c, 0, 64, 108
1, 188164, Control_c, 0, 67, 87
1, 188166, Note_off_c, 0, 51, 52
1, 188179, Control_c, 0, 64, 105
1, 188179, Control_c, 0, 67, 86
1, 188193, Control_c, 0, 64, 102
1, 188208, Control_c, 0, 64, 97
1, 188223, Control_c, 0, 64, 89
1, 188238, Control_c, 0, 64, 80
1, 188253, Control_c, 0, 64, 75
1, 188254, Note_on_c, 0, 48, 30
1, 188257, Note_on_c, 0, 43, 31
1, 188267, Control_c, 0, 64, 75
1, 188282, Control_c, 0, 64, 79
1, 188282, Control_c, 0, 67, 86
1, 188286, Note_off_c, 0, 43, 50
1, 188292, Note_off_c, 0, 48, 51
1, 188297, Control_c, 0, 64, 85
1, 188297, Control_c, 0, 67, 85
1, 188311, Control_c, 0, 64, 91
1, 188311, Control_c, 0, 67, 85
1, 188323, Poly_aftertouch_c, 0, 51, 0
1, 188326, Control_c, 0, 64, 94
1, 188326, Control_c, 0, 67, 84
1, 188341, Control_c, 0, 64, 95
1, 188392, Note_on_c, 0, 43, 42
1, 188409, Note_on_c, 0, 48, 43
1, 188430, Control_c, 0, 67, 84
1, 188440, Note_off_c, 0, 48, 52
1, 188441, Note_off_c, 0, 43, 44
1, 188555, Note_on_c, 0, 48, 45
1, 188578, Control_c, 0, 64, 94
1, 188583, Note_on_c, 0, 43, 26
1, 188593, Note_on_c, 0, 51, 18
1, 188593, Control_c, 0, 64, 92
1, 188602, Note_off_c, 0, 48, 58
1, 188608, Control_c, 0, 64, 88
1, 188623, Control_c, 0, 64, 83
1, 188624, Note_off_c, 0, 43, 41
1, 188636, Note_off_c, 0, 51, 49
1, 188638, Control_c, 0, 64, 81
1, 188661, Control_c, 0, 64, 82
1, 188676, Control_c, 0, 64, 85
1, 188682, Note_off_c, 0, 55, 37
1, 188690, Control_c, 0, 64, 86
1, 188705, Control_c, 0, 64, 87
1, 188738, Note_on_c, 0, 48, 41
1, 188757, Note_on_c, 0, 43, 38
1, 188767, Note_on_c, 0, 51, 13
1, 188779, Note_off_c, 0, 48, 48
1, 188794, Control_c, 0, 64, 87
1, 188800, Note_off_c, 0, 43, 41
1, 188817, Note_off_c, 0, 51, 37
1, 188906, Note_on_c, 0, 48, 38
1, 188919, Note_on_c, 0, 51, 12
1, 188936, Note_on_c, 0, 43, 18
1, 188943, Note_off_c, 0, 48, 56
1, 188957, Control_c, 0, 67, 84
1, 188966, Note_off_c, 0, 51, 40
1, 188972, Note_off_c, 0, 43, 40
1, 189073, Note_on_c, 0, 48, 38
1, 189104, Note_on_c, 0, 51, 5
1, 189109, Note_off_c, 0, 48, 50
1, 189134, Control_c, 0, 64, 87
1, 189149, Control_c, 0, 64, 85
1, 189164, Control_c, 0, 64, 84
1, 189168, Note_off_c, 0, 51, 31
1, 189194, Control_c, 0, 64, 85
1, 189208, Control_c, 0, 64, 85
1, 189221, Note_on_c, 0, 60, 58
1, 189223, Control_c, 0, 64, 86
1, 189229, Note_on_c, 0, 48, 42
1, 189234, Note_on_c, 0, 51, 5
1, 189238, Control_c, 0, 64, 88
1, 189241, Poly_aftertouch_c, 0, 43, 127
1, 189252, Control_c, 0, 64, 90
1, 189265, Note_off_c, 0, 48, 51
1, 189267, Control_c, 0, 64, 91
1, 189281, Poly_aftertouch_c, 0, 43, 0
1, 189282, Control_c, 0, 64, 92
1, 189284, Note_off_c, 0, 67, 40
1, 189291, Note_off_c, 0, 51, 40
1, 189326, Control_c, 0, 64, 93
1, 189356, Control_c, 0, 64, 93
1, 189384, Note_on_c, 0, 48, 46
1, 189408, Control_c, 0, 67, 84
1, 189437, Note_off_c, 0, 48, 61
1, 189465, Poly_aftertouch_c, 0, 51, 127
1, 189469, Control_c, 0, 64, 94
1, 189545, Note_on_c, 0, 43, 13
1, 189558, Control_c, 0, 67, 84
1, 189589, Poly_aftertouch_c, 0, 51, 0
1, 189589, Note_off_c, 0, 43, 49
1, 189601, Poly_aftertouch_c, 0, 48, 127
1, 189635, Poly_aftertouch_c, 0, 48, 0
1, 189645, Note_on_c, 0, 63, 57
1, 189646, Control_c, 0, 64, 93
1, 189676, Control_c, 0, 64, 93
1, 189690, Control_c, 0, 64, 91
1, 189705, Control_c, 0, 64, 89
1, 189720, Control_c, 0, 64, 84
1, 189720, Control_c, 0, 67, 84
1, 189735, Control_c, 0, 64, 74
1, 189750, Control_c, 0, 64, 63
1, 189750, Control_c, 0, 67, 83
1, 189763, Note_on_c, 0, 67, 64
1, 189765, Control_c, 0, 64, 56
1, 189765, Control_c, 0, 67, 83
1, 189768, Note_on_c, 0, 43, 44
1, 189769, Note_on_c, 0, 55, 54
1, 189771, Note_on_c, 0, 31, 51
1, 189777, Note_off_c, 0, 63, 52
1, 189780, Control_c, 0, 64, 57
1, 189780, Control_c, 0, 67, 82
1, 189794, Control_c, 0, 64, 64
1, 189794, Control_c, 0, 67, 81
1, 189804, Note_off_c, 0, 31, 62
1, 189809, Note_off_c, 0, 60, 16
1, 189809, Control_c, 0, 64, 70
1, 189809, Control_c, 0, 67, 78
1, 189824, Control_c, 0, 64, 80
1, 189824, Control_c, 0, 67, 73
1, 189833, Note_off_c, 0, 43, 59
1, 189839, Control_c, 0, 64, 96
1, 189839, Control_c, 0, 67, 66
1, 189854, Control_c, 0, 64, 115
1, 189854, Control_c, 0, 67, 60
1, 189869, Control_c, 0, 64, 127
1, 189869, Control_c, 0, 67, 53
1, 189883, Control_c, 0, 67, 47
1, 189898, Control_c, 0, 67, 42
1, 189913, Control_c, 0, 67, 36
1, 189928, Control_c, 0, 67, 31
1, 189929, Note_off_c, 0, 55, 38
1, 189935, Note_off_c, 0, 67, 36
1, 189943, Control_c, 0, 67, 28
1, 189957, Control_c, 0, 67, 25
1, 189972, Control_c, 0, 67, 22
1, 189986, Note_on_c, 0, 43, 50
1, 189987, Control_c, 0, 67, 19
1, 189998, Note_on_c, 0, 48, 46
1, 190002, Control_c, 0, 67, 16
1, 190009, Note_on_c, 0, 51, 33
1, 190041, Note_off_c, 0, 43, 54
1, 190046, Note_off_c, 0, 51, 51
1, 190046, Control_c, 0, 67, 0
1, 190047, Note_off_c, 0, 48, 59
1, 190143, Note_on_c, 0, 51, 49
1, 190181, Note_on_c, 0, 43, 35
1, 190182, Note_on_c, 0, 48, 38
1, 190203, Note_off_c, 0, 51, 52
1, 190208, Note_off_c, 0, 43, 55
1, 190212, Note_off_c, 0, 48, 55
1, 190217, Control_c, 0, 64, 124
1, 190233, Control_c, 0, 64, 120
1, 190248, Control_c, 0, 64, 115
1, 190262, Control_c, 0, 64, 110
1, 190277, Control_c, 0, 64, 102
1, 190292, Control_c, 0, 64, 94
1, 190304, Note_on_c, 0, 67, 69
1, 190306, Control_c, 0, 64, 83
1, 190310, Note_on_c, 0, 55, 59
1, 190321, Control_c, 0, 64, 75
1, 190324, Note_on_c, 0, 48, 45
1, 190325, Note_on_c, 0, 43, 40
1, 190331, Note_on_c, 0, 51, 39
1, 190336, Control_c, 0, 64, 72
1, 190351, Control_c, 0, 64, 73
1, 190366, Control_c, 0, 64, 76
1, 190380, Control_c, 0, 64, 82
1, 190385, Note_off_c, 0, 43, 53
1, 190389, Note_off_c, 0, 51, 49
1, 190392, Note_off_c, 0, 48, 56
1, 190395, Control_c, 0, 64, 89
1, 190410, Control_c, 0, 64, 97
1, 190425, Control_c, 0, 64, 101
1, 190440, Control_c, 0, 64, 103
1, 190453, Control_c, 0, 64, 104
1, 190468, Control_c, 0, 64, 106
1, 190483, Control_c, 0, 64, 110
1, 190498, Control_c, 0, 64, 115
1, 190507, Note_on_c, 0, 51, 48
1, 190513, Control_c, 0, 64, 127
1, 190514, Note_on_c, 0, 48, 47
1, 190517, Note_off_c, 0, 67, 51
1, 190544, Note_off_c, 0, 55, 34
1, 190551, Note_on_c, 0, 43, 22
1, 190551, Note_off_c, 0, 48, 63
1, 190552, Note_off_c, 0, 51, 52
1, 190590, Note_off_c, 0, 43, 41
1, 190666, Note_on_c, 0, 48, 49
1, 190668, Note_on_c, 0, 51, 47
1, 190710, Note_off_c, 0, 48, 59
1, 190717, Note_off_c, 0, 51, 53
1, 190812, Note_on_c, 0, 67, 78
1, 190818, Note_on_c, 0, 55, 67
1, 190824, Control_c, 0, 64, 110
1, 190837, Note_on_c, 0, 51, 47
1, 190838, Control_c, 0, 64, 95
1, 190852, Note_on_c, 0, 43, 16
1, 190853, Control_c, 0, 64, 81
1, 190868, Control_c, 0, 64, 69
1, 190879, Note_off_c, 0, 51, 53
1, 190879, Note_on_c, 0, 48, 19
1, 190883, Control_c, 0, 64, 65
1, 190892, Note_off_c, 0, 43, 48
1, 190898, Control_c, 0, 64, 66
1, 190920, Control_c, 0, 64, 71
1, 190935, Note_off_c, 0, 48, 47
1, 190935, Control_c, 0, 64, 78
1, 190950, Control_c, 0, 64, 89
1, 190965, Control_c, 0, 64, 103
1, 190980, Control_c, 0, 64, 111
1, 191007, Note_on_c, 0, 51, 41
1, 191009, Control_c, 0, 64, 113
1, 191020, Note_on_c, 0, 48, 48
1, 191024, Control_c, 0, 64, 114
1, 191028, Note_on_c, 0, 43, 33
1, 191028, Note_off_c, 0, 55, 53
1, 191037, Note_off_c, 0, 67, 58
1, 191040, Control_c, 0, 64, 116
1, 191049, Note_off_c, 0, 51, 47
1, 191055, Control_c, 0, 64, 118
1, 191059, Note_off_c, 0, 48, 60
1, 191064, Note_off_c, 0, 43, 50
1, 191070, Control_c, 0, 64, 121
1, 191084, Control_c, 0, 64, 123
1, 191099, Control_c, 0, 64, 124
1, 191169, Note_on_c, 0, 43, 52
1, 191172, Note_on_c, 0, 48, 58
1, 191174, Note_on_c, 0, 51, 39
1, 191220, Note_off_c, 0, 43, 55
1, 191225, Note_off_c, 0, 48, 53
1, 191228, Note_off_c, 0, 51, 44
1, 191322, Control_c, 0, 64, 118
1, 191332, Note_on_c, 0, 67, 79
1, 191333, Note_on_c, 0, 55, 74
1, 191336, Control_c, 0, 64, 112
1, 191341, Note_on_c, 0, 43, 46
1, 191342, Note_on_c, 0, 48, 51
1, 191348, Note_on_c, 0, 51, 38
1, 191351, Control_c, 0, 64, 102
1, 191366, Control_c, 0, 64, 90
1, 191381, Control_c, 0, 64, 78
1, 191393, Note_off_c, 0, 43, 55
1, 191395, Note_off_c, 0, 51, 45
1, 191396, Control_c, 0, 64, 71
1, 191401, Note_off_c, 0, 48, 58
1, 191410, Control_c, 0, 64, 70
1, 191425, Control_c, 0, 64, 73
1, 191440, Control_c, 0, 64, 79
1, 191455, Control_c, 0, 64, 89
1, 191470, Control_c, 0, 64, 102
1, 191485, Control_c, 0, 64, 113
1, 191499, Control_c, 0, 64, 116
1, 191502, Note_on_c, 0, 51, 48
1, 191505, Note_on_c, 0, 48, 62
1, 191513, Note_on_c, 0, 43, 43
1, 191514, Control_c, 0, 64, 118
1, 191529, Control_c, 0, 64, 127
1, 191544, Note_off_c, 0, 43, 53
1, 191553, Note_off_c, 0, 51, 52
1, 191568, Note_off_c, 0, 48, 49
1, 191667, Note_on_c, 0, 48, 51
1, 191676, Note_on_c, 0, 43, 52
1, 191687, Note_off_c, 0, 55, 57
1, 191700, Note_off_c, 0, 48, 65
1, 191706, Note_off_c, 0, 67, 36
1, 191717, Note_off_c, 0, 43, 62
1, 191732, Poly_aftertouch_c, 0, 51, 127
1, 191771, Poly_aftertouch_c, 0, 51, 0
1, 191884, Note_on_c, 0, 65, 84
1, 191887, Note_on_c, 0, 29, 57
1, 191887, Note_on_c, 0, 53, 83
1, 191893, Control_c, 0, 64, 98
1, 191897, Note_on_c, 0, 41, 49
1, 191908, Control_c, 0, 64, 77
1, 191923, Control_c, 0, 64, 65
1, 191938, Control_c, 0, 64, 64
1, 191949, Note_off_c, 0, 29, 61
1, 191953, Control_c, 0, 64, 67
1, 191967, Control_c, 0, 64, 73
1, 191978, Note_off_c, 0, 41, 61
1, 191982, Control_c, 0, 64, 84
1, 191997, Control_c, 0, 64, 105
1, 192012, Control_c, 0, 64, 127
1, 192111, Note_on_c, 0, 41, 52
1, 192122, Note_on_c, 0, 51, 53
1, 192123, Note_on_c, 0, 48, 50
1, 192158, Note_off_c, 0, 51, 58
1, 192172, Note_off_c, 0, 41, 40
1, 192221, Note_off_c, 0, 48, 0
1, 192244, Note_on_c, 0, 48, 22
1, 192251, Note_on_c, 0, 51, 59
1, 192252, Note_on_c, 0, 41, 47
1, 192324, Note_off_c, 0, 41, 57
1, 192335, Note_off_c, 0, 48, 46
1, 192346, Note_off_c, 0, 51, 35
1, 192408, Note_on_c, 0, 48, 49
1, 192414, Note_on_c, 0, 63, 8
1, 192416, Note_on_c, 0, 41, 45
1, 192421, Note_on_c, 0, 51, 58
1, 192454, Note_off_c, 0, 53, 38
1, 192494, Note_off_c, 0, 41, 54
1, 192509, Note_off_c, 0, 63, 39
1, 192517, Note_off_c, 0, 51, 35
1, 192554, Note_off_c, 0, 48, 0
1, 192554, Note_on_c, 0, 48, 17
1, 192574, Note_on_c, 0, 41, 46
1, 192579, Note_on_c, 0, 51, 59
1, 192621, Note_off_c, 0, 51, 54
1, 192644, Note_off_c, 0, 41, 57
1, 192644, Note_off_c, 0, 48, 55
1, 192730, Note_on_c, 0, 48, 63
1, 192739, Note_on_c, 0, 51, 53
1, 192746, Note_on_c, 0, 41, 27
1, 192763, Note_off_c, 0, 51, 61
1, 192765, Note_off_c, 0, 48, 64
1, 192788, Note_off_c, 0, 41, 57
1, 192908, Control_c, 0, 64, 113
1, 192915, Note_on_c, 0, 66, 87
1, 192921, Note_on_c, 0, 54, 79
1, 192923, Control_c, 0, 64, 84
1, 192926, Note_on_c, 0, 30, 64
1, 192930, Note_on_c, 0, 42, 58
1, 192938, Control_c, 0, 64, 66
1, 192953, Control_c, 0, 64, 58
1, 192965, Note_off_c, 0, 65, 51
1, 192968, Control_c, 0, 64, 61
1, 192982, Control_c, 0, 64, 66
1, 192990, Note_off_c, 0, 30, 60
1, 192997, Control_c, 0, 64, 74
1, 193012, Control_c, 0, 64, 89
1, 193016, Note_off_c, 0, 42, 62
1, 193026, Control_c, 0, 64, 124
1, 193041, Control_c, 0, 64, 127
1, 193110, Note_on_c, 0, 51, 68
1, 193121, Note_on_c, 0, 48, 55
1, 193136, Note_on_c, 0, 42, 56
1, 193172, Note_off_c, 0, 42, 59
1, 193198, Note_off_c, 0, 48, 48
1, 193198, Note_off_c, 0, 51, 53
1, 193270, Note_on_c, 0, 51, 46
1, 193275, Note_on_c, 0, 48, 37
1, 193281, Note_on_c, 0, 42, 41
1, 193346, Note_off_c, 0, 42, 50
1, 193358, Note_off_c, 0, 48, 50
1, 193365, Note_off_c, 0, 51, 36
1, 193463, Note_on_c, 0, 48, 55
1, 193468, Note_on_c, 0, 51, 56
1, 193474, Note_on_c, 0, 42, 44
1, 193482, Note_off_c, 0, 66, 56
1, 193482, Note_off_c, 0, 54, 57
1, 193501, Note_off_c, 0, 51, 61
1, 193509, Note_off_c, 0, 42, 55
1, 193522, Note_off_c, 0, 48, 58
1, 193646, Note_on_c, 0, 42, 48
1, 193659, Note_on_c, 0, 51, 57
1, 193665, Note_on_c, 0, 48, 60
1, 193696, Note_off_c, 0, 48, 65
1, 193701, Note_off_c, 0, 51, 58
1, 193724, Note_off_c, 0, 42, 53
1, 193848, Note_on_c, 0, 48, 57
1, 193863, Note_on_c, 0, 51, 40
1, 193897, Note_off_c, 0, 51, 56
1, 193931, Note_off_c, 0, 48, 56
1, 194177, Note_on_c, 0, 43, 47
1, 194181, Note_on_c, 0, 67, 67
1, 194182, Note_on_c, 0, 50, 51
1, 194185, Note_on_c, 0, 47, 52
1, 194191, Note_on_c, 0, 55, 55
1, 194197, Control_c, 0, 64, 104
1, 194212, Control_c, 0, 64, 78
1, 194228, Control_c, 0, 64, 55
1, 194243, Control_c, 0, 64, 0
1, 194302, Control_c, 0, 64, 48
1, 194317, Control_c, 0, 64, 65
1, 194332, Control_c, 0, 64, 75
1, 194334, Note_off_c, 0, 55, 50
1, 194341, Note_off_c, 0, 67, 57
1, 194347, Control_c, 0, 64, 88
1, 194361, Control_c, 0, 64, 107
1, 194376, Control_c, 0, 64, 127
1, 194451, Note_on_c, 0, 55, 42
1, 194463, Note_on_c, 0, 67, 45
1, 194494, Note_off_c, 0, 55, 56
1, 194501, Note_off_c, 0, 67, 55
1, 194603, Note_on_c, 0, 55, 49
1, 194614, Note_on_c, 0, 67, 48
1, 194618, Note_off_c, 0, 50, 30
1, 194653, Note_off_c, 0, 67, 50
1, 194656, Note_off_c, 0, 55, 57
1, 194711, Note_off_c, 0, 43, 38
1, 194761, Note_off_c, 0, 47, 39
1, 194764, Note_on_c, 0, 67, 46
1, 194769, Control_c, 0, 64, 118
1, 194779, Note_on_c, 0, 55, 42
1, 194784, Control_c, 0, 64, 97
1, 194798, Note_off_c, 0, 67, 49
1, 194799, Control_c, 0, 64, 92
1, 194804, Note_off_c, 0, 55, 56
1, 194813, Control_c, 0, 64, 95
1, 194828, Control_c, 0, 64, 104
1, 194843, Control_c, 0, 64, 127
1, 194915, Note_on_c, 0, 55, 40
1, 194930, Note_on_c, 0, 67, 34
1, 194961, Note_off_c, 0, 55, 52
1, 194964, Note_off_c, 0, 67, 50
1, 195086, Note_on_c, 0, 67, 31
1, 195089, Note_on_c, 0, 55, 37
1, 195121, Note_off_c, 0, 67, 50
1, 195131, Note_off_c, 0, 55, 47
1, 195214, Control_c, 0, 64, 102
1, 195228, Control_c, 0, 64, 83
1, 195237, Note_on_c, 0, 67, 44
1, 195239, Note_on_c, 0, 55, 43
1, 195243, Control_c, 0, 64, 73
1, 195258, Control_c, 0, 64, 73
1, 195273, Control_c, 0, 64, 77
1, 195276, Note_off_c, 0, 55, 52
1, 195288, Control_c, 0, 64, 87
1, 195289, Note_off_c, 0, 67, 41
1, 195302, Control_c, 0, 64, 107
1, 195317, Control_c, 0, 64, 127
1, 195415, Note_on_c, 0, 55, 39
1, 195437, Note_on_c, 0, 67, 29
1, 195443, Control_c, 0, 67, 18
1, 195458, Control_c, 0, 67, 25
1, 195460, Note_off_c, 0, 55, 46
1, 195470, Note_off_c, 0, 67, 49
1, 195473, Control_c, 0, 67, 30
1, 195488, Control_c, 0, 67, 35
1, 195502, Control_c, 0, 67, 39
1, 195517, Control_c, 0, 67, 42
1, 195532, Control_c, 0, 67, 44
1, 195547, Control_c, 0, 67, 44
1, 195572, Note_on_c, 0, 55, 45
1, 195580, Note_on_c, 0, 67, 36
1, 195613, Note_off_c, 0, 55, 54
1, 195618, Note_off_c, 0, 67, 47
1, 195709, Control_c, 0, 67, 44
1, 195724, Control_c, 0, 64, 104
1, 195739, Control_c, 0, 64, 89
1, 195739, Control_c, 0, 67, 43
1, 195754, Control_c, 0, 64, 74
1, 195761, Note_on_c, 0, 47, 50
1, 195768, Control_c, 0, 64, 62
1, 195768, Control_c, 0, 67, 43
1, 195780, Note_on_c, 0, 67, 32
1, 195783, Control_c, 0, 64, 50
1, 195783, Control_c, 0, 67, 42
1, 195792, Note_on_c, 0, 55, 12
1, 195798, Control_c, 0, 64, 47
1, 195813, Control_c, 0, 64, 49
1, 195813, Control_c, 0, 67, 41
1, 195829, Control_c, 0, 64, 59
1, 195829, Control_c, 0, 67, 41
1, 195843, Control_c, 0, 64, 67
1, 195843, Control_c, 0, 67, 40
1, 195858, Note_off_c, 0, 55, 45
1, 195858, Control_c, 0, 64, 75
1, 195858, Control_c, 0, 67, 40
1, 195860, Note_off_c, 0, 67, 52
1, 195873, Control_c, 0, 64, 86
1, 195873, Control_c, 0, 67, 39
1, 195888, Control_c, 0, 64, 95
1, 195888, Control_c, 0, 67, 39
1, 195903, Control_c, 0, 64, 100
1, 195903, Control_c, 0, 67, 38
1, 195917, Control_c, 0, 64, 100
1, 195917, Control_c, 0, 67, 38
1, 195932, Control_c, 0, 67, 37
1, 195947, Control_c, 0, 67, 37
1, 195962, Control_c, 0, 67, 36
1, 195977, Note_on_c, 0, 55, 36
1, 195977, Control_c, 0, 64, 101
1, 195977, Control_c, 0, 67, 36
1, 195982, Note_on_c, 0, 67, 14
1, 195992, Control_c, 0, 64, 101
1, 196007, Control_c, 0, 64, 102
1, 196012, Note_off_c, 0, 55, 50
1, 196022, Control_c, 0, 64, 102
1, 196025, Note_off_c, 0, 67, 39
1, 196106, Note_on_c, 0, 55, 50
1, 196147, Control_c, 0, 67, 36
1, 196162, Note_off_c, 0, 55, 49
1, 196227, Note_on_c, 0, 48, 49
1, 196236, Control_c, 0, 64, 101
1, 196251, Control_c, 0, 64, 100
1, 196266, Control_c, 0, 64, 98
1, 196281, Control_c, 0, 64, 94
1, 196281, Note_off_c, 0, 47, 31
1, 196296, Control_c, 0, 64, 89
1, 196311, Control_c, 0, 64, 82
1, 196325, Note_off_c, 0, 48, 55
1, 196325, Control_c, 0, 64, 70
1, 196329, Note_on_c, 0, 50, 52
1, 196340, Control_c, 0, 64, 58
1, 196347, Note_on_c, 0, 67, 46
1, 196355, Control_c, 0, 64, 37
1, 196355, Control_c, 0, 67, 36
1, 196358, Note_on_c, 0, 55, 35
1, 196370, Control_c, 0, 64, 0
1, 196399, Control_c, 0, 64, 23
1, 196414, Control_c, 0, 64, 53
1, 196415, Note_off_c, 0, 55, 49
1, 196424, Note_off_c, 0, 67, 46
1, 196429, Control_c, 0, 64, 69
1, 196443, Control_c, 0, 64, 77
1, 196457, Control_c, 0, 64, 88
1, 196472, Control_c, 0, 64, 97
1, 196487, Note_off_c, 0, 50, 55
1, 196487, Control_c, 0, 64, 105
1, 196502, Control_c, 0, 64, 106
1, 196517, Control_c, 0, 64, 107
1, 196531, Control_c, 0, 67, 35
1, 196546, Control_c, 0, 64, 108
1, 196546, Control_c, 0, 67, 35
1, 196556, Note_on_c, 0, 55, 32
1, 196561, Control_c, 0, 64, 109
1, 196576, Control_c, 0, 64, 112
1, 196585, Note_off_c, 0, 55, 54
1, 196591, Note_on_c, 0, 67, 5
1, 196591, Control_c, 0, 64, 115
1, 196606, Control_c, 0, 64, 116
1, 196657, Note_off_c, 0, 67, 30
1, 196681, Note_on_c, 0, 55, 50
1, 196783, Note_off_c, 0, 55, 34
1, 196783, Poly_aftertouch_c, 0, 67, 0
1, 196785, Control_c, 0, 64, 114
1, 196799, Control_c, 0, 64, 111
1, 196814, Control_c, 0, 64, 106
1, 196829, Control_c, 0, 64, 99
1, 196844, Control_c, 0, 64, 88
1, 196859, Control_c, 0, 64, 77
1, 196873, Control_c, 0, 64, 69
1, 196874, Note_on_c, 0, 50, 61
1, 196895, Control_c, 0, 64, 68
1, 196910, Control_c, 0, 64, 69
1, 196918, Note_on_c, 0, 67, 38
1, 196925, Note_on_c, 0, 55, 12
1, 196925, Control_c, 0, 64, 73
1, 196940, Control_c, 0, 64, 81
1, 196951, Note_off_c, 0, 67, 52
1, 196955, Control_c, 0, 64, 92
1, 196969, Control_c, 0, 64, 102
1, 196970, Note_off_c, 0, 55, 42
1, 196984, Control_c, 0, 64, 106
1, 196999, Control_c, 0, 64, 107
1, 197014, Control_c, 0, 64, 108
1, 197019, Note_off_c, 0, 50, 56
1, 197029, Control_c, 0, 64, 109
1, 197044, Control_c, 0, 64, 110
1, 197059, Control_c, 0, 64, 111
1, 197066, Note_on_c, 0, 67, 42
1, 197073, Control_c, 0, 64, 113
1, 197073, Control_c, 0, 67, 38
1, 197083, Note_on_c, 0, 55, 36
1, 197088, Control_c, 0, 64, 116
1, 197101, Note_off_c, 0, 67, 49
1, 197103, Control_c, 0, 64, 118
1, 197117, Note_off_c, 0, 55, 51
1, 197177, Control_c, 0, 64, 119
1, 197193, Control_c, 0, 64, 120
1, 197218, Note_on_c, 0, 55, 46
1, 197228, Note_on_c, 0, 67, 42
1, 197265, Note_off_c, 0, 67, 47
1, 197275, Note_off_c, 0, 55, 53
1, 197326, Control_c, 0, 64, 117
1, 197326, Control_c, 0, 67, 38
1, 197341, Control_c, 0, 64, 113
1, 197355, Control_c, 0, 64, 106
1, 197370, Control_c, 0, 64, 94
1, 197385, Control_c, 0, 64, 80
1, 197386, Note_on_c, 0, 50, 66
1, 197388, Note_on_c, 0, 67, 50
1, 197399, Control_c, 0, 64, 67
1, 197408, Note_on_c, 0, 55, 41
1, 197414, Control_c, 0, 64, 64
1, 197430, Control_c, 0, 64, 65
1, 197445, Control_c, 0, 64, 70
1, 197445, Control_c, 0, 67, 37
1, 197447, Note_off_c, 0, 55, 53
1, 197457, Note_off_c, 0, 67, 52
1, 197460, Control_c, 0, 64, 76
1, 197475, Control_c, 0, 64, 86
1, 197489, Control_c, 0, 64, 99
1, 197504, Control_c, 0, 64, 106
1, 197519, Control_c, 0, 64, 106
1, 197549, Control_c, 0, 64, 107
1, 197560, Note_on_c, 0, 55, 49
1, 197563, Control_c, 0, 64, 108
1, 197576, Note_off_c, 0, 50, 55
1, 197578, Control_c, 0, 64, 109
1, 197578, Control_c, 0, 67, 37
1, 197584, Note_on_c, 0, 67, 40
1, 197593, Control_c, 0, 64, 110
1, 197608, Control_c, 0, 64, 113
1, 197614, Note_off_c, 0, 67, 52
1, 197619, Note_off_c, 0, 55, 52
1, 197623, Control_c, 0, 64, 115
1, 197705, Control_c, 0, 67, 36
1, 197734, Note_on_c, 0, 67, 46
1, 197735, Control_c, 0, 67, 35
1, 197750, Control_c, 0, 67, 34
1, 197761, Note_on_c, 0, 55, 45
1, 197765, Control_c, 0, 67, 32
1, 197779, Control_c, 0, 67, 31
1, 197794, Control_c, 0, 67, 30
1, 197802, Note_off_c, 0, 55, 47
1, 197806, Note_off_c, 0, 67, 43
1, 197809, Control_c, 0, 64, 114
1, 197809, Control_c, 0, 67, 29
1, 197823, Control_c, 0, 64, 113
1, 197823, Control_c, 0, 67, 27
1, 197838, Control_c, 0, 64, 110
1, 197838, Control_c, 0, 67, 26
1, 197853, Control_c, 0, 64, 106
1, 197853, Control_c, 0, 67, 25
1, 197868, Control_c, 0, 64, 102
1, 197868, Control_c, 0, 67, 24
1, 197883, Control_c, 0, 64, 97
1, 197883, Control_c, 0, 67, 24
1, 197897, Control_c, 0, 64, 92
1, 197897, Control_c, 0, 67, 23
1, 197912, Control_c, 0, 64, 87
1, 197912, Control_c, 0, 67, 22
1, 197927, Note_on_c, 0, 48, 68
1, 197927, Control_c, 0, 64, 79
1, 197930, Note_on_c, 0, 55, 36
1, 197942, Control_c, 0, 64, 70
1, 197942, Control_c, 0, 67, 22
1, 197953, Note_on_c, 0, 67, 50
1, 197957, Control_c, 0, 64, 63
1, 197957, Control_c, 0, 67, 21
1, 197971, Control_c, 0, 64, 58
1, 197971, Control_c, 0, 67, 21
1, 197986, Control_c, 0, 67, 20
1, 198001, Control_c, 0, 64, 58
1, 198001, Control_c, 0, 67, 19
1, 198016, Control_c, 0, 64, 63
1, 198016, Note_off_c, 0, 67, 51
1, 198023, Note_off_c, 0, 55, 52
1, 198031, Control_c, 0, 64, 67
1, 198031, Control_c, 0, 67, 19
1, 198046, Control_c, 0, 64, 73
1, 198060, Control_c, 0, 64, 82
1, 198060, Control_c, 0, 67, 18
1, 198075, Control_c, 0, 64, 92
1, 198090, Control_c, 0, 64, 97
1, 198105, Control_c, 0, 64, 97
1, 198105, Control_c, 0, 67, 18
1, 198120, Control_c, 0, 67, 17
1, 198126, Note_on_c, 0, 67, 44
1, 198129, Note_on_c, 0, 55, 44
1, 198135, Control_c, 0, 64, 98
1, 198135, Control_c, 0, 67, 16
1, 198161, Note_off_c, 0, 55, 52
1, 198162, Note_off_c, 0, 67, 46
1, 198164, Control_c, 0, 64, 98
1, 198194, Control_c, 0, 64, 99
1, 198265, Note_on_c, 0, 55, 48
1, 198274, Note_on_c, 0, 67, 52
1, 198327, Note_off_c, 0, 67, 38
1, 198373, Note_off_c, 0, 55, 32
1, 198383, Note_on_c, 0, 50, 72
1, 198412, Note_off_c, 0, 48, 55
1, 198484, Control_c, 0, 64, 98
1, 198499, Control_c, 0, 64, 98
1, 198514, Control_c, 0, 64, 97
1, 198528, Control_c, 0, 64, 95
1, 198543, Control_c, 0, 64, 92
1, 198558, Control_c, 0, 64, 88
1, 198572, Control_c, 0, 64, 84
1, 198587, Control_c, 0, 64, 78
1, 198602, Note_on_c, 0, 51, 59
1, 198602, Control_c, 0, 64, 72
1, 198617, Control_c, 0, 64, 65
1, 198623, Note_on_c, 0, 67, 50
1, 198629, Note_on_c, 0, 55, 39
1, 198632, Control_c, 0, 64, 56
1, 198646, Control_c, 0, 64, 45
1, 198647, Note_off_c, 0, 50, 56
1, 198661, Control_c, 0, 64, 35
1, 198676, Control_c, 0, 64, 28
1, 198706, Control_c, 0, 64, 36
1, 198720, Control_c, 0, 64, 52
1, 198735, Control_c, 0, 64, 63
1, 198747, Note_off_c, 0, 67, 53
1, 198749, Note_off_c, 0, 55, 35
1, 198750, Control_c, 0, 64, 70
1, 198764, Control_c, 0, 64, 76
1, 198764, Control_c, 0, 67, 0
1, 198779, Control_c, 0, 64, 82
1, 198794, Control_c, 0, 64, 87
1, 198809, Control_c, 0, 64, 90
1, 198824, Control_c, 0, 64, 92
1, 198838, Control_c, 0, 64, 94
1, 198853, Control_c, 0, 64, 95
1, 198857, Note_on_c, 0, 67, 43
1, 198866, Note_on_c, 0, 55, 43
1, 198868, Control_c, 0, 64, 96
1, 198883, Control_c, 0, 64, 97
1, 198910, Note_off_c, 0, 67, 40
1, 198913, Control_c, 0, 64, 97
1, 198913, Note_off_c, 0, 55, 45
1, 198943, Control_c, 0, 64, 98
1, 198958, Control_c, 0, 64, 98
1, 199022, Note_on_c, 0, 55, 48
1, 199025, Note_on_c, 0, 67, 42
1, 199069, Note_off_c, 0, 55, 43
1, 199069, Note_off_c, 0, 67, 44
1, 199196, Note_on_c, 0, 67, 45
1, 199202, Note_on_c, 0, 55, 39
1, 199224, Note_off_c, 0, 67, 52
1, 199241, Note_off_c, 0, 55, 50
1, 199354, Note_on_c, 0, 67, 42
1, 199354, Note_on_c, 0, 55, 41
1, 199425, Control_c, 0, 64, 98
1, 199460, Note_off_c, 0, 67, 34
1, 199477, Note_off_c, 0, 55, 32
1, 199488, Note_on_c, 0, 50, 55
1, 199499, Control_c, 0, 64, 97
1, 199505, Note_off_c, 0, 51, 39
1, 199514, Control_c, 0, 64, 97
1, 199543, Control_c, 0, 64, 96
1, 199558, Control_c, 0, 64, 96
1, 199573, Control_c, 0, 64, 95
1, 199587, Note_on_c, 0, 67, 49
1, 199587, Control_c, 0, 64, 94
1, 199593, Note_on_c, 0, 55, 41
1, 199602, Control_c, 0, 64, 94
1, 199632, Control_c, 0, 64, 93
1, 199638, Note_off_c, 0, 55, 45
1, 199649, Note_off_c, 0, 67, 40
1, 199661, Control_c, 0, 64, 93
1, 199676, Control_c, 0, 64, 92
1, 199706, Control_c, 0, 64, 92
1, 199721, Control_c, 0, 64, 91
1, 199736, Control_c, 0, 64, 87
1, 199751, Control_c, 0, 64, 78
1, 199758, Note_on_c, 0, 48, 54
1, 199766, Control_c, 0, 64, 68
1, 199774, Note_on_c, 0, 55, 37
1, 199780, Control_c, 0, 64, 63
1, 199784, Note_on_c, 0, 67, 46
1, 199786, Note_off_c, 0, 50, 36
1, 199795, Control_c, 0, 64, 63
1, 199810, Control_c, 0, 64, 66
1, 199825, Control_c, 0, 64, 71
1, 199840, Control_c, 0, 64, 79
1, 199844, Note_off_c, 0, 55, 50
1, 199850, Note_off_c, 0, 67, 48
1, 199855, Control_c, 0, 64, 90
1, 199870, Control_c, 0, 64, 99
1, 199885, Control_c, 0, 64, 102
1, 199961, Note_on_c, 0, 67, 39
1, 199973, Note_on_c, 0, 55, 42
1, 200006, Note_off_c, 0, 55, 51
1, 200025, Note_off_c, 0, 67, 43
1, 200111, Note_on_c, 0, 55, 48
1, 200132, Note_on_c, 0, 67, 41
1, 200173, Note_off_c, 0, 67, 45
1, 200174, Control_c, 0, 64, 101
1, 200189, Control_c, 0, 64, 101
1, 200204, Control_c, 0, 64, 100
1, 200208, Note_off_c, 0, 55, 35
1, 200218, Control_c, 0, 64, 98
1, 200233, Control_c, 0, 64, 96
1, 200248, Control_c, 0, 64, 92
1, 200263, Control_c, 0, 64, 85
1, 200278, Control_c, 0, 64, 74
1, 200279, Note_on_c, 0, 46, 58
1, 200292, Control_c, 0, 64, 65
1, 200296, Note_on_c, 0, 67, 50
1, 200302, Note_on_c, 0, 55, 42
1, 200307, Control_c, 0, 64, 62
1, 200322, Control_c, 0, 64, 63
1, 200331, Note_off_c, 0, 48, 35
1, 200337, Control_c, 0, 64, 66
1, 200351, Note_off_c, 0, 55, 58
1, 200351, Control_c, 0, 64, 70
1, 200354, Note_off_c, 0, 67, 51
1, 200366, Control_c, 0, 64, 76
1, 200381, Control_c, 0, 64, 86
1, 200396, Control_c, 0, 64, 94
1, 200411, Control_c, 0, 64, 97
1, 200463, Note_on_c, 0, 55, 55
1, 200481, Note_on_c, 0, 67, 59
1, 200484, Control_c, 0, 64, 98
1, 200506, Note_off_c, 0, 67, 56
1, 200519, Note_off_c, 0, 55, 54
1, 200643, Note_on_c, 0, 53, 55
1, 200645, Note_on_c, 0, 65, 52
1, 200684, Note_off_c, 0, 53, 47
1, 200699, Note_off_c, 0, 65, 47
1, 200760, Control_c, 0, 64, 97
1, 200763, Note_on_c, 0, 44, 56
1, 200783, Note_off_c, 0, 46, 35
1, 200789, Control_c, 0, 64, 97
1, 200804, Control_c, 0, 64, 96
1, 200819, Control_c, 0, 64, 95
1, 200834, Control_c, 0, 64, 94
1, 200848, Control_c, 0, 64, 93
1, 200863, Control_c, 0, 64, 91
1, 200878, Control_c, 0, 64, 89
1, 200893, Control_c, 0, 64, 87
1, 200908, Control_c, 0, 64, 85
1, 200922, Control_c, 0, 64, 82
1, 200937, Control_c, 0, 64, 78
1, 200952, Control_c, 0, 64, 74
1, 200967, Control_c, 0, 64, 69
1, 200975, Note_on_c, 0, 43, 59
1, 200982, Control_c, 0, 64, 65
1, 200985, Note_off_c, 0, 44, 36
1, 200988, Note_on_c, 0, 67, 46
1, 200997, Note_on_c, 0, 55, 35
1, 200997, Control_c, 0, 64, 59
1, 201002, Note_on_c, 0, 60, 44
1, 201009, Note_on_c, 0, 63, 43
1, 201012, Control_c, 0, 64, 50
1, 201026, Control_c, 0, 64, 38
1, 201041, Control_c, 0, 64, 32
1, 201056, Control_c, 0, 64, 33
1, 201071, Control_c, 0, 64, 46
1, 201086, Control_c, 0, 64, 60
1, 201101, Control_c, 0, 64, 68
1, 201115, Control_c, 0, 64, 74
1, 201130, Control_c, 0, 64, 83
1, 201140, Note_off_c, 0, 63, 50
1, 201145, Control_c, 0, 64, 88
1, 201151, Note_off_c, 0, 55, 42
1, 201160, Control_c, 0, 64, 90
1, 201164, Note_off_c, 0, 67, 34
1, 201174, Control_c, 0, 64, 91
1, 201177, Note_off_c, 0, 60, 33
1, 201189, Control_c, 0, 64, 92
1, 201236, Note_off_c, 0, 43, 55
1, 201275, Note_on_c, 0, 55, 43
1, 201283, Note_on_c, 0, 63, 38
1, 201292, Note_on_c, 0, 60, 23
1, 201316, Note_off_c, 0, 55, 47
1, 201318, Note_on_c, 0, 67, 10
1, 201319, Note_off_c, 0, 63, 50
1, 201330, Note_off_c, 0, 60, 44
1, 201370, Note_off_c, 0, 67, 33
1, 201441, Note_on_c, 0, 55, 31
1, 201459, Note_on_c, 0, 60, 36
1, 201483, Note_off_c, 0, 55, 50
1, 201488, Poly_aftertouch_c, 0, 63, 127
1, 201489, Note_off_c, 0, 60, 51
1, 201530, Poly_aftertouch_c, 0, 63, 0
1, 201578, Note_on_c, 0, 43, 48
1, 201583, Control_c, 0, 64, 92
1, 201599, Note_on_c, 0, 60, 37
1, 201606, Note_on_c, 0, 55, 29
1, 201612, Control_c, 0, 64, 93
1, 201627, Control_c, 0, 64, 94
1, 201634, Note_on_c, 0, 63, 9
1, 201642, Control_c, 0, 64, 96
1, 201646, Note_off_c, 0, 60, 43
1, 201647, Note_off_c, 0, 55, 47
1, 201657, Control_c, 0, 64, 97
1, 201671, Control_c, 0, 64, 98
1, 201682, Note_off_c, 0, 63, 51
1, 201686, Control_c, 0, 64, 98
1, 201701, Control_c, 0, 64, 99
1, 201716, Control_c, 0, 64, 100
1, 201731, Control_c, 0, 64, 102
1, 201745, Control_c, 0, 64, 103
1, 201760, Control_c, 0, 64, 104
1, 201764, Note_off_c, 0, 43, 49
1, 201771, Note_on_c, 0, 55, 20
1, 201772, Note_on_c, 0, 63, 29
1, 201784, Note_on_c, 0, 60, 32
1, 201790, Control_c, 0, 64, 105
1, 201810, Note_off_c, 0, 63, 51
1, 201815, Note_off_c, 0, 55, 51
1, 201824, Note_off_c, 0, 60, 47
1, 201933, Note_on_c, 0, 55, 37
1, 201933, Note_on_c, 0, 63, 42
1, 201963, Note_off_c, 0, 63, 54
1, 201965, Note_off_c, 0, 55, 52
1, 202042, Control_c, 0, 64, 104
1, 202057, Control_c, 0, 64, 102
1, 202071, Control_c, 0, 64, 99
1, 202086, Control_c, 0, 64, 94
1, 202100, Note_on_c, 0, 43, 62
1, 202101, Control_c, 0, 64, 86
1, 202115, Control_c, 0, 64, 77
1, 202124, Note_on_c, 0, 55, 26
1, 202125, Note_on_c, 0, 62, 47
1, 202135, Note_on_c, 0, 59, 46
1, 202138, Control_c, 0, 64, 69
1, 202150, Note_on_c, 0, 67, 28
1, 202153, Control_c, 0, 64, 64
1, 202168, Control_c, 0, 64, 64
1, 202183, Control_c, 0, 64, 66
1, 202197, Control_c, 0, 64, 70
1, 202206, Note_off_c, 0, 59, 50
1, 202212, Control_c, 0, 64, 78
1, 202218, Note_off_c, 0, 67, 39
1, 202219, Note_off_c, 0, 55, 47
1, 202228, Control_c, 0, 64, 88
1, 202237, Note_off_c, 0, 62, 34
1, 202243, Control_c, 0, 64, 98
1, 202258, Control_c, 0, 64, 101
1, 202321, Note_on_c, 0, 55, 26
1, 202324, Note_on_c, 0, 62, 24
1, 202328, Note_on_c, 0, 59, 27
1, 202338, Note_off_c, 0, 43, 56
1, 202359, Note_off_c, 0, 55, 49
1, 202369, Note_off_c, 0, 62, 47
1, 202370, Note_off_c, 0, 59, 48
1, 202482, Note_on_c, 0, 59, 42
1, 202484, Note_on_c, 0, 62, 47
1, 202484, Note_on_c, 0, 55, 36
1, 202531, Note_off_c, 0, 62, 53
1, 202535, Note_off_c, 0, 55, 43
1, 202535, Note_off_c, 0, 59, 43
1, 202553, Control_c, 0, 64, 100
1, 202568, Control_c, 0, 64, 100
1, 202583, Control_c, 0, 64, 99
1, 202598, Control_c, 0, 64, 97
1, 202612, Control_c, 0, 64, 93
1, 202627, Control_c, 0, 64, 89
1, 202642, Control_c, 0, 64, 82
1, 202657, Note_on_c, 0, 43, 49
1, 202657, Control_c, 0, 64, 72
1, 202666, Note_on_c, 0, 55, 39
1, 202668, Note_on_c, 0, 59, 39
1, 202672, Control_c, 0, 64, 66
1, 202673, Note_on_c, 0, 62, 47
1, 202687, Control_c, 0, 64, 64
1, 202717, Note_off_c, 0, 55, 49
1, 202717, Control_c, 0, 64, 66
1, 202720, Note_off_c, 0, 62, 57
1, 202722, Note_off_c, 0, 59, 57
1, 202732, Control_c, 0, 64, 70
1, 202746, Control_c, 0, 64, 75
1, 202761, Control_c, 0, 64, 85
1, 202776, Control_c, 0, 64, 95
1, 202791, Control_c, 0, 64, 102
1, 202806, Control_c, 0, 64, 102
1, 202820, Control_c, 0, 64, 103
1, 202854, Note_on_c, 0, 55, 37
1, 202866, Note_on_c, 0, 59, 42
1, 202869, Note_on_c, 0, 62, 40
1, 202911, Note_off_c, 0, 59, 48
1, 202913, Note_off_c, 0, 55, 44
1, 202915, Note_off_c, 0, 62, 48
1, 203036, Note_on_c, 0, 59, 43
1, 203042, Note_on_c, 0, 62, 44
1, 203062, Note_on_c, 0, 55, 20
1, 203070, Note_off_c, 0, 59, 51
1, 203077, Note_off_c, 0, 62, 50
1, 203096, Note_off_c, 0, 55, 49
1, 203125, Control_c, 0, 64, 102
1, 203140, Control_c, 0, 64, 102
1, 203155, Control_c, 0, 64, 101
1, 203169, Control_c, 0, 64, 99
1, 203184, Control_c, 0, 64, 96
1, 203199, Control_c, 0, 64, 92
1, 203214, Control_c, 0, 64, 86
1, 203229, Control_c, 0, 64, 79
1, 203233, Note_on_c, 0, 55, 34
1, 203234, Note_on_c, 0, 48, 53
1, 203243, Note_on_c, 0, 60, 41
1, 203243, Control_c, 0, 64, 70
1, 203249, Note_on_c, 0, 67, 46
1, 203258, Control_c, 0, 64, 62
1, 203259, Note_on_c, 0, 63, 40
1, 203267, Note_off_c, 0, 43, 34
1, 203273, Control_c, 0, 64, 59
1, 203288, Control_c, 0, 64, 60
1, 203303, Control_c, 0, 64, 63
1, 203316, Note_off_c, 0, 63, 53
1, 203317, Control_c, 0, 64, 67
1, 203331, Note_off_c, 0, 55, 45
1, 203331, Note_off_c, 0, 67, 50
1, 203332, Control_c, 0, 64, 72
1, 203347, Control_c, 0, 64, 80
1, 203348, Note_off_c, 0, 60, 49
1, 203361, Control_c, 0, 64, 88
1, 203376, Control_c, 0, 64, 93
1, 203391, Control_c, 0, 64, 94
1, 203406, Control_c, 0, 64, 95
1, 203421, Control_c, 0, 64, 95
1, 203435, Control_c, 0, 64, 96
1, 203437, Note_on_c, 0, 55, 46
1, 203443, Note_on_c, 0, 67, 48
1, 203450, Control_c, 0, 64, 98
1, 203465, Control_c, 0, 64, 99
1, 203471, Note_off_c, 0, 67, 54
1, 203480, Control_c, 0, 64, 101
1, 203489, Note_off_c, 0, 55, 42
1, 203495, Control_c, 0, 64, 103
1, 203510, Control_c, 0, 64, 105
1, 203524, Control_c, 0, 64, 107
1, 203539, Control_c, 0, 64, 109
1, 203554, Control_c, 0, 64, 111
1, 203569, Control_c, 0, 64, 114
1, 203576, Note_on_c, 0, 67, 51
1, 203584, Control_c, 0, 64, 123
1, 203599, Control_c, 0, 64, 127
1, 203605, Note_on_c, 0, 55, 45
1, 203626, Note_off_c, 0, 48, 53
1, 203644, Note_off_c, 0, 55, 53
1, 203662, Note_off_c, 0, 67, 37
1, 203745, Note_on_c, 0, 55, 52
1, 203762, Note_on_c, 0, 67, 48
1, 203801, Note_off_c, 0, 67, 58
1, 203837, Note_off_c, 0, 55, 35
1, 203906, Note_on_c, 0, 67, 54
1, 203921, Note_on_c, 0, 55, 46
1, 203959, Note_off_c, 0, 67, 47
1, 203963, Note_off_c, 0, 55, 58
1, 204070, Note_on_c, 0, 55, 52
1, 204082, Note_on_c, 0, 67, 52
1, 204126, Note_off_c, 0, 67, 57
1, 204133, Note_off_c, 0, 55, 49
1, 204233, Note_on_c, 0, 67, 55
1, 204241, Note_on_c, 0, 55, 48
1, 204282, Note_off_c, 0, 55, 57
1, 204283, Note_off_c, 0, 67, 51
1, 204394, Note_on_c, 0, 55, 57
1, 204404, Note_on_c, 0, 67, 52
1, 204449, Note_off_c, 0, 67, 55
1, 204460, Note_off_c, 0, 55, 50
1, 204566, Note_on_c, 0, 55, 44
1, 204568, Note_on_c, 0, 67, 52
1, 204610, Note_off_c, 0, 55, 56
1, 204612, Note_off_c, 0, 67, 53
1, 204638, Control_c, 0, 64, 124
1, 204653, Control_c, 0, 64, 115
1, 204668, Control_c, 0, 64, 109
1, 204682, Control_c, 0, 64, 101
1, 204696, Control_c, 0, 64, 91
1, 204711, Control_c, 0, 64, 78
1, 204723, Note_on_c, 0, 35, 64
1, 204723, Note_on_c, 0, 47, 65
1, 204726, Control_c, 0, 64, 68
1, 204735, Note_on_c, 0, 55, 50
1, 204739, Note_on_c, 0, 67, 54
1, 204741, Control_c, 0, 64, 66
1, 204756, Control_c, 0, 64, 67
1, 204770, Control_c, 0, 64, 70
1, 204785, Control_c, 0, 64, 74
1, 204800, Control_c, 0, 64, 84
1, 204815, Control_c, 0, 64, 93
1, 204817, Note_off_c, 0, 67, 50
1, 204830, Control_c, 0, 64, 98
1, 204836, Note_off_c, 0, 55, 35
1, 204845, Control_c, 0, 64, 99
1, 204860, Control_c, 0, 64, 100
1, 204875, Control_c, 0, 64, 101
1, 204889, Control_c, 0, 64, 103
1, 204900, Note_on_c, 0, 55, 48
1, 204902, Note_on_c, 0, 67, 51
1, 204904, Control_c, 0, 64, 105
1, 204919, Control_c, 0, 64, 109
1, 204925, Note_off_c, 0, 35, 58
1, 204927, Note_off_c, 0, 47, 58
1, 204933, Control_c, 0, 64, 113
1, 204948, Control_c, 0, 64, 118
1, 204960, Note_off_c, 0, 55, 53
1, 204963, Control_c, 0, 64, 121
1, 204964, Note_off_c, 0, 67, 53
1, 204978, Control_c, 0, 64, 123
1, 204993, Control_c, 0, 64, 127
1, 205045, Note_on_c, 0, 67, 54
1, 205055, Note_on_c, 0, 55, 56
1, 205121, Note_off_c, 0, 67, 53
1, 205146, Note_on_c, 0, 36, 68
1, 205153, Note_off_c, 0, 55, 35
1, 205155, Note_on_c, 0, 48, 63
1, 205188, Note_off_c, 0, 48, 64
1, 205190, Note_off_c, 0, 36, 60
1, 205222, Control_c, 0, 64, 121
1, 205237, Control_c, 0, 64, 110
1, 205252, Control_c, 0, 64, 102
1, 205264, Note_on_c, 0, 67, 61
1, 205266, Control_c, 0, 64, 92
1, 205268, Note_on_c, 0, 55, 63
1, 205273, Note_on_c, 0, 38, 70
1, 205275, Note_on_c, 0, 50, 71
1, 205281, Control_c, 0, 64, 81
1, 205296, Control_c, 0, 64, 70
1, 205311, Control_c, 0, 64, 63
1, 205326, Control_c, 0, 64, 62
1, 205340, Control_c, 0, 64, 65
1, 205355, Control_c, 0, 64, 69
1, 205366, Note_off_c, 0, 67, 56
1, 205370, Control_c, 0, 64, 76
1, 205372, Note_off_c, 0, 55, 44
1, 205385, Control_c, 0, 64, 88
1, 205400, Control_c, 0, 64, 105
1, 205416, Control_c, 0, 64, 127
1, 205465, Note_off_c, 0, 38, 59
1, 205465, Note_on_c, 0, 55, 48
1, 205467, Note_off_c, 0, 50, 58
1, 205470, Note_on_c, 0, 67, 59
1, 205522, Note_off_c, 0, 55, 53
1, 205530, Note_off_c, 0, 67, 54
1, 205613, Note_on_c, 0, 67, 59
1, 205622, Note_on_c, 0, 55, 58
1, 205690, Note_off_c, 0, 67, 58
1, 205720, Note_off_c, 0, 55, 35
1, 205756, Control_c, 0, 64, 114
1, 205771, Control_c, 0, 64, 103
1, 205784, Note_on_c, 0, 50, 76
1, 205786, Control_c, 0, 64, 93
1, 205787, Note_on_c, 0, 38, 73
1, 205793, Note_on_c, 0, 55, 63
1, 205798, Note_on_c, 0, 67, 71
1, 205801, Control_c, 0, 64, 83
1, 205816, Control_c, 0, 64, 72
1, 205830, Control_c, 0, 64, 66
1, 205845, Control_c, 0, 64, 65
1, 205860, Control_c, 0, 64, 67
1, 205882, Control_c, 0, 64, 70
1, 205892, Note_off_c, 0, 67, 59
1, 205893, Note_off_c, 0, 55, 56
1, 205897, Control_c, 0, 64, 77
1, 205912, Control_c, 0, 64, 87
1, 205927, Control_c, 0, 64, 101
1, 205942, Control_c, 0, 64, 106
1, 205971, Control_c, 0, 64, 107
1, 205972, Note_on_c, 0, 55, 61
1, 205976, Note_on_c, 0, 67, 62
1, 205986, Control_c, 0, 64, 109
1, 206001, Control_c, 0, 64, 111
1, 206014, Note_off_c, 0, 38, 59
1, 206015, Note_off_c, 0, 50, 57
1, 206016, Control_c, 0, 64, 114
1, 206031, Control_c, 0, 64, 120
1, 206045, Control_c, 0, 64, 127
1, 206048, Note_off_c, 0, 55, 57
1, 206050, Note_off_c, 0, 67, 57
1, 206133, Note_on_c, 0, 67, 63
1, 206142, Note_on_c, 0, 55, 66
1, 206210, Note_off_c, 0, 67, 58
1, 206213, Note_off_c, 0, 55, 55
1, 206297, Note_on_c, 0, 55, 68
1, 206298, Control_c, 0, 64, 110
1, 206300, Note_on_c, 0, 67, 69
1, 206306, Note_on_c, 0, 50, 76
1, 206306, Note_on_c, 0, 38, 75
1, 206312, Control_c, 0, 64, 95
1, 206327, Control_c, 0, 64, 80
1, 206342, Control_c, 0, 64, 67
1, 206357, Control_c, 0, 64, 66
1, 206372, Control_c, 0, 64, 69
1, 206379, Note_off_c, 0, 55, 56
1, 206386, Control_c, 0, 64, 74
1, 206389, Note_off_c, 0, 67, 59
1, 206401, Control_c, 0, 64, 83
1, 206416, Control_c, 0, 64, 97
1, 206431, Control_c, 0, 64, 112
1, 206446, Control_c, 0, 64, 117
1, 206476, Control_c, 0, 64, 117
1, 206477, Note_on_c, 0, 55, 70
1, 206485, Note_on_c, 0, 67, 64
1, 206490, Control_c, 0, 64, 118
1, 206505, Control_c, 0, 64, 121
1, 206520, Control_c, 0, 64, 123
1, 206535, Control_c, 0, 64, 127
1, 206544, Note_off_c, 0, 67, 56
1, 206548, Note_off_c, 0, 55, 54
1, 206565, Note_off_c, 0, 50, 59
1, 206578, Note_off_c, 0, 38, 58
1, 206607, Poly_aftertouch_c, 0, 65, 0
1, 206643, Note_on_c, 0, 55, 70
1, 206647, Note_on_c, 0, 67, 75
1, 206695, Note_off_c, 0, 55, 59
1, 206719, Note_off_c, 0, 67, 60
1, 206765, Control_c, 0, 64, 123
1, 206780, Control_c, 0, 64, 117
1, 206794, Control_c, 0, 64, 110
1, 206809, Control_c, 0, 64, 102
1, 206824, Control_c, 0, 64, 90
1, 206825, Note_on_c, 0, 68, 79
1, 206828, Note_on_c, 0, 56, 80
1, 206831, Note_on_c, 0, 36, 79
1, 206831, Note_on_c, 0, 48, 78
1, 206838, Control_c, 0, 64, 75
1, 206853, Control_c, 0, 64, 61
1, 206868, Control_c, 0, 64, 58
1, 206883, Control_c, 0, 64, 60
1, 206898, Control_c, 0, 64, 65
1, 206912, Control_c, 0, 64, 69
1, 206928, Control_c, 0, 64, 77
1, 206943, Control_c, 0, 64, 88
1, 206944, Note_off_c, 0, 56, 57
1, 206958, Control_c, 0, 64, 103
1, 206958, Note_off_c, 0, 68, 54
1, 206973, Control_c, 0, 64, 109
1, 206987, Control_c, 0, 64, 110
1, 207003, Control_c, 0, 64, 111
1, 207018, Control_c, 0, 64, 113
1, 207031, Note_on_c, 0, 68, 75
1, 207033, Control_c, 0, 64, 115
1, 207034, Note_on_c, 0, 56, 81
1, 207048, Control_c, 0, 64, 117
1, 207063, Control_c, 0, 64, 123
1, 207065, Note_off_c, 0, 36, 57
1, 207077, Control_c, 0, 64, 127
1, 207091, Note_off_c, 0, 48, 58
1, 207102, Note_off_c, 0, 56, 59
1, 207107, Note_off_c, 0, 68, 58
1, 207202, Note_on_c, 0, 56, 84
1, 207203, Note_on_c, 0, 68, 82
1, 207274, Note_off_c, 0, 56, 58
1, 207278, Note_off_c, 0, 68, 57
1, 207326, Note_on_c, 0, 50, 76
1, 207327, Note_on_c, 0, 38, 75
1, 207394, Note_off_c, 0, 50, 61
1, 207400, Note_off_c, 0, 38, 60
1, 207455, Control_c, 0, 64, 124
1, 207469, Control_c, 0, 64, 116
1, 207484, Control_c, 0, 64, 110
1, 207499, Control_c, 0, 64, 105
1, 207514, Control_c, 0, 64, 99
1, 207529, Control_c, 0, 64, 93
1, 207540, Note_on_c, 0, 55, 70
1, 207540, Note_on_c, 0, 67, 73
1, 207543, Control_c, 0, 64, 87
1, 207546, Note_on_c, 0, 51, 82
1, 207548, Note_on_c, 0, 39, 77
1, 207558, Control_c, 0, 64, 74
1, 207573, Control_c, 0, 64, 61
1, 207588, Control_c, 0, 64, 38
1, 207603, Control_c, 0, 64, 0
1, 207647, Control_c, 0, 64, 45
1, 207662, Control_c, 0, 64, 64
1, 207677, Control_c, 0, 64, 72
1, 207692, Control_c, 0, 64, 80
1, 207707, Control_c, 0, 64, 88
1, 207713, Note_off_c, 0, 55, 51
1, 207714, Note_off_c, 0, 67, 54
1, 207722, Control_c, 0, 64, 93
1, 207736, Control_c, 0, 64, 95
1, 207751, Control_c, 0, 64, 96
1, 207766, Control_c, 0, 64, 97
1, 207781, Control_c, 0, 64, 97
1, 207796, Control_c, 0, 64, 98
1, 207805, Note_on_c, 0, 55, 51
1, 207811, Note_on_c, 0, 67, 56
1, 207811, Control_c, 0, 64, 99
1, 207826, Control_c, 0, 64, 100
1, 207865, Note_off_c, 0, 55, 54
1, 207871, Note_off_c, 0, 67, 51
1, 207968, Note_on_c, 0, 55, 64
1, 207972, Note_on_c, 0, 67, 54
1, 208004, Control_c, 0, 64, 100
1, 208019, Control_c, 0, 64, 99
1, 208023, Note_off_c, 0, 67, 54
1, 208033, Note_off_c, 0, 55, 51
1, 208033, Control_c, 0, 64, 98
1, 208060, Note_off_c, 0, 51, 32
1, 208140, Note_on_c, 0, 55, 62
1, 208151, Note_on_c, 0, 67, 61
1, 208174, Control_c, 0, 64, 99
1, 208189, Control_c, 0, 64, 100
1, 208191, Note_off_c, 0, 67, 57
1, 208200, Note_off_c, 0, 55, 53
1, 208204, Control_c, 0, 64, 102
1, 208219, Control_c, 0, 64, 105
1, 208233, Control_c, 0, 64, 110
1, 208248, Control_c, 0, 64, 115
1, 208261, Note_off_c, 0, 39, 26
1, 208277, Control_c, 0, 64, 114
1, 208292, Control_c, 0, 64, 110
1, 208307, Control_c, 0, 64, 105
1, 208321, Note_on_c, 0, 67, 59
1, 208322, Control_c, 0, 64, 101
1, 208323, Note_on_c, 0, 55, 62
1, 208352, Control_c, 0, 64, 103
1, 208366, Control_c, 0, 64, 112
1, 208381, Control_c, 0, 64, 127
1, 208410, Note_off_c, 0, 67, 55
1, 208425, Note_on_c, 0, 50, 71
1, 208426, Note_on_c, 0, 38, 69
1, 208457, Note_off_c, 0, 55, 33
1, 208488, Note_off_c, 0, 50, 59
1, 208512, Note_off_c, 0, 38, 58
1, 208546, Note_on_c, 0, 67, 61
1, 208553, Note_on_c, 0, 55, 62
1, 208618, Control_c, 0, 64, 122
1, 208633, Note_off_c, 0, 55, 53
1, 208633, Control_c, 0, 64, 113
1, 208635, Note_off_c, 0, 67, 53
1, 208648, Control_c, 0, 64, 106
1, 208662, Control_c, 0, 64, 101
1, 208677, Control_c, 0, 64, 96
1, 208692, Control_c, 0, 64, 89
1, 208706, Control_c, 0, 64, 77
1, 208714, Note_on_c, 0, 48, 72
1, 208717, Note_on_c, 0, 36, 67
1, 208721, Control_c, 0, 64, 63
1, 208736, Control_c, 0, 64, 51
1, 208742, Note_on_c, 0, 55, 58
1, 208746, Note_on_c, 0, 67, 56
1, 208751, Control_c, 0, 64, 50
1, 208766, Control_c, 0, 64, 55
1, 208780, Control_c, 0, 64, 64
1, 208795, Control_c, 0, 64, 71
1, 208800, Note_off_c, 0, 55, 52
1, 208807, Note_off_c, 0, 67, 52
1, 208810, Control_c, 0, 64, 81
1, 208818, Note_off_c, 0, 48, 59
1, 208825, Control_c, 0, 64, 93
1, 208840, Control_c, 0, 64, 101
1, 208854, Control_c, 0, 64, 103
1, 208905, Note_on_c, 0, 55, 59
1, 208907, Note_on_c, 0, 67, 54
1, 208956, Note_off_c, 0, 67, 54
1, 208957, Note_off_c, 0, 55, 54
1, 209057, Note_on_c, 0, 67, 50
1, 209060, Note_on_c, 0, 55, 48
1, 209098, Note_off_c, 0, 55, 52
1, 209143, Note_off_c, 0, 67, 37
1, 209143, Control_c, 0, 64, 102
1, 209158, Control_c, 0, 64, 100
1, 209173, Control_c, 0, 64, 95
1, 209188, Control_c, 0, 64, 83
1, 209203, Control_c, 0, 64, 69
1, 209215, Note_on_c, 0, 46, 64
1, 209218, Control_c, 0, 64, 61
1, 209220, Note_on_c, 0, 34, 62
1, 209221, Note_on_c, 0, 55, 50
1, 209224, Note_on_c, 0, 67, 55
1, 209230, Note_off_c, 0, 36, 39
1, 209232, Control_c, 0, 64, 60
1, 209247, Control_c, 0, 64, 63
1, 209262, Control_c, 0, 64, 66
1, 209277, Control_c, 0, 64, 71
1, 209291, Note_off_c, 0, 55, 55
1, 209292, Control_c, 0, 64, 78
1, 209292, Note_off_c, 0, 67, 56
1, 209306, Control_c, 0, 64, 89
1, 209321, Control_c, 0, 64, 97
1, 209336, Control_c, 0, 64, 98
1, 209351, Control_c, 0, 64, 99
1, 209380, Control_c, 0, 64, 99
1, 209395, Control_c, 0, 64, 101
1, 209408, Note_on_c, 0, 55, 60
1, 209411, Control_c, 0, 64, 103
1, 209414, Note_off_c, 0, 46, 36
1, 209417, Note_on_c, 0, 67, 61
1, 209426, Control_c, 0, 64, 106
1, 209438, Note_off_c, 0, 67, 60
1, 209441, Control_c, 0, 64, 108
1, 209455, Note_off_c, 0, 55, 51
1, 209485, Control_c, 0, 64, 109
1, 209500, Control_c, 0, 64, 109
1, 209515, Control_c, 0, 64, 110
1, 209564, Note_on_c, 0, 53, 59
1, 209567, Note_on_c, 0, 65, 57
1, 209606, Note_off_c, 0, 53, 53
1, 209686, Note_on_c, 0, 44, 62
1, 209688, Note_off_c, 0, 65, 35
1, 209692, Note_on_c, 0, 32, 60
1, 209719, Note_off_c, 0, 34, 32
1, 209735, Note_off_c, 0, 44, 57
1, 209746, Note_off_c, 0, 32, 57
1, 209803, Control_c, 0, 64, 109
1, 209818, Control_c, 0, 64, 109
1, 209833, Control_c, 0, 64, 108
1, 209847, Control_c, 0, 64, 106
1, 209862, Control_c, 0, 64, 103
1, 209877, Control_c, 0, 64, 100
1, 209892, Control_c, 0, 64, 96
1, 209907, Control_c, 0, 64, 92
1, 209921, Control_c, 0, 64, 87
1, 209936, Control_c, 0, 64, 81
1, 209945, Note_on_c, 0, 67, 53
1, 209946, Note_on_c, 0, 55, 46
1, 209951, Note_on_c, 0, 60, 50
1, 209951, Control_c, 0, 64, 71
1, 209957, Note_on_c, 0, 31, 56
1, 209957, Note_on_c, 0, 43, 55
1, 209961, Note_on_c, 0, 63, 49
1, 209966, Control_c, 0, 64, 60
1, 209981, Control_c, 0, 64, 43
1, 209996, Control_c, 0, 64, 20
1, 210011, Control_c, 0, 64, 23
1, 210026, Control_c, 0, 64, 42
1, 210041, Control_c, 0, 64, 59
1, 210055, Control_c, 0, 64, 68
1, 210070, Control_c, 0, 64, 75
1, 210085, Control_c, 0, 64, 85
1, 210098, Note_off_c, 0, 63, 53
1, 210100, Control_c, 0, 64, 93
1, 210103, Note_off_c, 0, 60, 52
1, 210115, Control_c, 0, 64, 97
1, 210121, Note_off_c, 0, 55, 34
1, 210129, Note_off_c, 0, 67, 36
1, 210129, Control_c, 0, 64, 98
1, 210159, Note_off_c, 0, 31, 57
1, 210165, Note_off_c, 0, 43, 59
1, 210188, Control_c, 0, 64, 99
1, 210205, Control_c, 0, 64, 99
1, 210220, Control_c, 0, 64, 100
1, 210237, Note_on_c, 0, 63, 44
1, 210249, Note_on_c, 0, 55, 38
1, 210252, Note_on_c, 0, 60, 43
1, 210266, Note_on_c, 0, 67, 32
1, 210278, Note_off_c, 0, 55, 55
1, 210278, Control_c, 0, 64, 101
1, 210281, Note_off_c, 0, 63, 45
1, 210293, Control_c, 0, 64, 101
1, 210297, Note_off_c, 0, 60, 44
1, 210303, Note_off_c, 0, 67, 44
1, 210308, Control_c, 0, 64, 102
1, 210404, Note_on_c, 0, 55, 26
1, 210417, Note_on_c, 0, 63, 34
1, 210426, Note_on_c, 0, 60, 38
1, 210447, Note_off_c, 0, 55, 50
1, 210447, Note_off_c, 0, 63, 54
1, 210459, Note_off_c, 0, 60, 51
1, 210493, Control_c, 0, 64, 101
1, 210508, Control_c, 0, 64, 100
1, 210523, Control_c, 0, 64, 98
1, 210538, Control_c, 0, 64, 92
1, 210552, Control_c, 0, 64, 82
1, 210553, Note_on_c, 0, 63, 48
1, 210554, Note_on_c, 0, 43, 42
1, 210556, Note_on_c, 0, 31, 48
1, 210562, Note_on_c, 0, 55, 45
1, 210565, Note_on_c, 0, 60, 49
1, 210567, Control_c, 0, 64, 70
1, 210582, Control_c, 0, 64, 63
1, 210597, Control_c, 0, 64, 63
1, 210607, Note_off_c, 0, 63, 54
1, 210610, Note_off_c, 0, 60, 55
1, 210610, Note_off_c, 0, 55, 46
1, 210612, Control_c, 0, 64, 64
1, 210626, Control_c, 0, 64, 67
1, 210641, Control_c, 0, 64, 72
1, 210656, Control_c, 0, 64, 80
1, 210672, Control_c, 0, 64, 90
1, 210686, Control_c, 0, 64, 98
1, 210701, Control_c, 0, 64, 101
1, 210715, Note_off_c, 0, 31, 56
1, 210728, Note_off_c, 0, 43, 58
1, 210731, Control_c, 0, 64, 102
1, 210750, Note_on_c, 0, 63, 48
1, 210751, Note_on_c, 0, 55, 30
1, 210763, Note_on_c, 0, 60, 41
1, 210775, Control_c, 0, 64, 102
1, 210790, Control_c, 0, 64, 103
1, 210791, Note_off_c, 0, 63, 45
1, 210795, Note_off_c, 0, 60, 51
1, 210796, Note_off_c, 0, 55, 50
1, 210804, Control_c, 0, 64, 104
1, 210910, Note_on_c, 0, 63, 47
1, 210912, Note_on_c, 0, 55, 39
1, 210914, Note_on_c, 0, 60, 39
1, 210938, Note_off_c, 0, 63, 56
1, 210947, Note_off_c, 0, 60, 50
1, 210947, Note_off_c, 0, 55, 50
1, 211013, Control_c, 0, 64, 104
1, 211028, Control_c, 0, 64, 102
1, 211043, Control_c, 0, 64, 99
1, 211057, Control_c, 0, 64, 94
1, 211072, Control_c, 0, 64, 87
1, 211085, Note_on_c, 0, 55, 44
1, 211087, Control_c, 0, 64, 76
1, 211090, Note_on_c, 0, 31, 51
1, 211093, Note_on_c, 0, 43, 49
1, 211096, Note_on_c, 0, 59, 47
1, 211102, Control_c, 0, 64, 66
1, 211107, Note_on_c, 0, 67, 43
1, 211112, Note_on_c, 0, 62, 38
1, 211117, Control_c, 0, 64, 63
1, 211139, Control_c, 0, 64, 64
1, 211154, Control_c, 0, 64, 66
1, 211160, Note_off_c, 0, 62, 52
1, 211165, Note_off_c, 0, 59, 55
1, 211169, Control_c, 0, 64, 70
1, 211173, Note_off_c, 0, 55, 54
1, 211183, Control_c, 0, 64, 76
1, 211198, Control_c, 0, 64, 85
1, 211213, Note_off_c, 0, 67, 32
1, 211213, Control_c, 0, 64, 94
1, 211227, Control_c, 0, 64, 99
1, 211242, Control_c, 0, 64, 99
1, 211284, Note_on_c, 0, 55, 29
1, 211284, Note_on_c, 0, 62, 42
1, 211287, Control_c, 0, 64, 100
1, 211288, Note_on_c, 0, 59, 36
1, 211293, Note_off_c, 0, 31, 57
1, 211296, Note_off_c, 0, 43, 58
1, 211302, Control_c, 0, 64, 101
1, 211306, Poly_aftertouch_c, 0, 67, 127
1, 211317, Control_c, 0, 64, 102
1, 211318, Note_off_c, 0, 62, 49
1, 211326, Note_off_c, 0, 59, 46
1, 211327, Note_off_c, 0, 55, 49
1, 211331, Control_c, 0, 64, 102
1, 211346, Poly_aftertouch_c, 0, 67, 0
1, 211430, Note_on_c, 0, 62, 40
1, 211433, Note_on_c, 0, 59, 46
1, 211439, Note_on_c, 0, 55, 36
1, 211459, Note_off_c, 0, 62, 55
1, 211463, Note_off_c, 0, 59, 55
1, 211475, Note_off_c, 0, 55, 51
1, 211523, Control_c, 0, 64, 102
1, 211538, Control_c, 0, 64, 100
1, 211553, Control_c, 0, 64, 96
1, 211568, Control_c, 0, 64, 88
1, 211581, Note_on_c, 0, 59, 41
1, 211582, Control_c, 0, 64, 76
1, 211585, Note_on_c, 0, 55, 43
1, 211588, Note_on_c, 0, 62, 32
1, 211597, Control_c, 0, 64, 67
1, 211601, Note_on_c, 0, 31, 41
1, 211602, Note_on_c, 0, 43, 25
1, 211612, Control_c, 0, 64, 66
1, 211627, Control_c, 0, 64, 68
1, 211629, Note_off_c, 0, 59, 58
1, 211632, Note_off_c, 0, 55, 55
1, 211638, Note_off_c, 0, 62, 43
1, 211641, Control_c, 0, 64, 73
1, 211656, Control_c, 0, 64, 81
1, 211671, Control_c, 0, 64, 90
1, 211686, Control_c, 0, 64, 97
1, 211701, Control_c, 0, 64, 99
1, 211731, Control_c, 0, 64, 99
1, 211746, Control_c, 0, 64, 100
1, 211761, Control_c, 0, 64, 101
1, 211767, Note_on_c, 0, 59, 48
1, 211769, Note_on_c, 0, 55, 35
1, 211770, Note_on_c, 0, 62, 42
1, 211773, Note_off_c, 0, 31, 59
1, 211775, Control_c, 0, 64, 103
1, 211790, Control_c, 0, 64, 105
1, 211802, Note_off_c, 0, 62, 53
1, 211805, Control_c, 0, 64, 106
1, 211806, Note_off_c, 0, 59, 47
1, 211808, Note_off_c, 0, 55, 50
1, 211820, Control_c, 0, 64, 108
1, 211823, Note_off_c, 0, 43, 38
1, 211835, Control_c, 0, 64, 109
1, 211923, Note_on_c, 0, 62, 51
1, 211931, Note_on_c, 0, 59, 50
1, 211943, Note_on_c, 0, 55, 18
1, 211952, Note_off_c, 0, 62, 56
1, 211957, Note_off_c, 0, 59, 59
1, 211983, Note_off_c, 0, 55, 50
1, 212020, Control_c, 0, 64, 108
1, 212035, Control_c, 0, 64, 106
1, 212050, Control_c, 0, 64, 103
1, 212065, Control_c, 0, 64, 95
1, 212080, Control_c, 0, 64, 83
1, 212095, Control_c, 0, 64, 70
1, 212104, Note_on_c, 0, 36, 43
1, 212109, Note_on_c, 0, 48, 36
1, 212109, Note_on_c, 0, 55, 43
1, 212109, Control_c, 0, 64, 62
1, 212127, Note_on_c, 0, 67, 46
1, 212127, Note_on_c, 0, 60, 40
1, 212135, Note_on_c, 0, 63, 44
1, 212139, Control_c, 0, 64, 65
1, 212154, Control_c, 0, 64, 70
1, 212160, Note_off_c, 0, 55, 55
1, 212169, Control_c, 0, 64, 78
1, 212180, Note_off_c, 0, 36, 53
1, 212184, Control_c, 0, 64, 89
1, 212197, Note_off_c, 0, 63, 0
1, 212198, Control_c, 0, 64, 99
1, 212213, Control_c, 0, 64, 103
1, 212235, Poly_aftertouch_c, 0, 63, 127
1, 212238, Note_off_c, 0, 48, 40
1, 212243, Control_c, 0, 64, 103
1, 212284, Note_on_c, 0, 55, 56
1, 212287, Control_c, 0, 64, 104
1, 212302, Control_c, 0, 64, 104
1, 212317, Control_c, 0, 64, 105
1, 212319, Note_off_c, 0, 55, 61
1, 212331, Control_c, 0, 64, 105
1, 212428, Note_on_c, 0, 55, 54
1, 212488, Note_off_c, 0, 55, 54
1, 212509, Note_off_c, 0, 60, 17
1, 212521, Poly_aftertouch_c, 0, 63, 0
1, 212524, Control_c, 0, 64, 104
1, 212539, Control_c, 0, 64, 101
1, 212554, Control_c, 0, 64, 95
1, 212568, Control_c, 0, 64, 85
1, 212580, Note_off_c, 0, 67, 35
1, 212583, Control_c, 0, 64, 74
1, 212583, Note_on_c, 0, 55, 41
1, 212599, Control_c, 0, 64, 71
1, 212621, Control_c, 0, 64, 74
1, 212636, Control_c, 0, 64, 84
1, 212637, Note_off_c, 0, 55, 55
1, 212651, Control_c, 0, 64, 95
1, 212666, Control_c, 0, 64, 104
1, 212680, Control_c, 0, 64, 105
1, 212771, Note_on_c, 0, 55, 50
1, 212795, Note_off_c, 0, 55, 58
1, 212900, Note_on_c, 0, 55, 34
1, 212939, Note_off_c, 0, 55, 49
1, 212992, Control_c, 0, 64, 105
1, 213006, Control_c, 0, 64, 104
1, 213021, Control_c, 0, 64, 101
1, 213036, Control_c, 0, 64, 95
1, 213051, Control_c, 0, 64, 84
1, 213066, Control_c, 0, 64, 74
1, 213072, Note_on_c, 0, 55, 33
1, 213080, Control_c, 0, 64, 70
1, 213095, Control_c, 0, 64, 72
1, 213110, Control_c, 0, 64, 79
1, 213125, Control_c, 0, 64, 88
1, 213132, Note_off_c, 0, 55, 57
1, 213140, Control_c, 0, 64, 96
1, 213154, Control_c, 0, 64, 99
1, 213184, Control_c, 0, 64, 99
1, 213228, Control_c, 0, 64, 100
1, 213243, Control_c, 0, 64, 101
1, 213256, Note_on_c, 0, 55, 48
1, 213258, Control_c, 0, 64, 103
1, 213272, Control_c, 0, 64, 104
1, 213282, Note_off_c, 0, 55, 57
1, 213287, Control_c, 0, 64, 104
1, 213398, Note_on_c, 0, 55, 42
1, 213461, Note_off_c, 0, 55, 51
1, 213518, Control_c, 0, 64, 104
1, 213533, Control_c, 0, 64, 102
1, 213548, Control_c, 0, 64, 99
1, 213563, Control_c, 0, 64, 94
1, 213574, Note_on_c, 0, 71, 61
1, 213577, Control_c, 0, 64, 86
1, 213592, Control_c, 0, 64, 73
1, 213607, Control_c, 0, 64, 65
1, 213621, Control_c, 0, 64, 63
1, 213636, Control_c, 0, 64, 63
1, 213651, Control_c, 0, 64, 65
1, 213667, Control_c, 0, 64, 68
1, 213682, Control_c, 0, 64, 73
1, 213696, Control_c, 0, 64, 85
1, 213701, Poly_aftertouch_c, 0, 55, 0
1, 213711, Control_c, 0, 64, 95
1, 213726, Control_c, 0, 64, 102
1, 213757, Note_on_c, 0, 55, 30
1, 213800, Control_c, 0, 64, 102
1, 213804, Note_off_c, 0, 55, 45
1, 213815, Control_c, 0, 64, 103
1, 213829, Control_c, 0, 64, 104
1, 213889, Control_c, 0, 64, 104
1, 213915, Note_on_c, 0, 55, 44
1, 213954, Note_off_c, 0, 55, 49
1, 214012, Note_on_c, 0, 72, 57
1, 214022, Control_c, 0, 64, 104
1, 214037, Control_c, 0, 64, 103
1, 214052, Control_c, 0, 64, 100
1, 214054, Note_off_c, 0, 71, 36
1, 214067, Control_c, 0, 64, 95
1, 214082, Control_c, 0, 64, 89
1, 214096, Control_c, 0, 64, 81
1, 214111, Control_c, 0, 64, 74
1, 214133, Control_c, 0, 64, 67
1, 214144, Note_off_c, 0, 72, 50
1, 214146, Note_on_c, 0, 74, 57
1, 214148, Control_c, 0, 64, 61
1, 214163, Control_c, 0, 64, 53
1, 214171, Note_on_c, 0, 55, 20
1, 214178, Control_c, 0, 64, 50
1, 214193, Control_c, 0, 64, 50
1, 214208, Control_c, 0, 64, 57
1, 214220, Note_off_c, 0, 55, 48
1, 214223, Control_c, 0, 64, 65
1, 214238, Control_c, 0, 64, 72
1, 214253, Control_c, 0, 64, 80
1, 214268, Control_c, 0, 64, 91
1, 214283, Control_c, 0, 64, 98
1, 214297, Control_c, 0, 64, 100
1, 214312, Control_c, 0, 64, 100
1, 214331, Note_on_c, 0, 55, 43
1, 214342, Control_c, 0, 64, 101
1, 214354, Note_off_c, 0, 74, 59
1, 214387, Note_off_c, 0, 55, 47
1, 214517, Note_on_c, 0, 55, 42
1, 214549, Control_c, 0, 64, 100
1, 214558, Note_off_c, 0, 55, 47
1, 214563, Control_c, 0, 64, 99
1, 214578, Control_c, 0, 64, 98
1, 214593, Control_c, 0, 64, 96
1, 214608, Control_c, 0, 64, 92
1, 214623, Control_c, 0, 64, 88
1, 214637, Control_c, 0, 64, 83
1, 214652, Control_c, 0, 64, 76
1, 214663, Note_on_c, 0, 74, 68
1, 214667, Control_c, 0, 64, 68
1, 214673, Note_on_c, 0, 65, 48
1, 214677, Note_on_c, 0, 55, 32
1, 214682, Control_c, 0, 64, 62
1, 214697, Control_c, 0, 64, 61
1, 214712, Control_c, 0, 64, 62
1, 214727, Note_off_c, 0, 55, 50
1, 214727, Control_c, 0, 64, 65
1, 214742, Control_c, 0, 64, 69
1, 214756, Control_c, 0, 64, 73
1, 214771, Control_c, 0, 64, 81
1, 214786, Control_c, 0, 64, 89
1, 214801, Control_c, 0, 64, 94
1, 214816, Control_c, 0, 64, 96
1, 214831, Control_c, 0, 64, 97
1, 214844, Note_on_c, 0, 55, 39
1, 214845, Control_c, 0, 64, 98
1, 214859, Note_off_c, 0, 65, 56
1, 214860, Control_c, 0, 64, 100
1, 214882, Control_c, 0, 64, 101
1, 214887, Note_off_c, 0, 74, 59
1, 214896, Note_off_c, 0, 55, 47
1, 214897, Control_c, 0, 64, 102
1, 214926, Control_c, 0, 64, 102
1, 214941, Control_c, 0, 64, 103
1, 214956, Control_c, 0, 64, 104
1, 215021, Note_on_c, 0, 55, 34
1, 215053, Note_off_c, 0, 55, 52
1, 215075, Control_c, 0, 64, 103
1, 215090, Control_c, 0, 64, 102
1, 215105, Control_c, 0, 64, 102
1, 215120, Control_c, 0, 64, 100
1, 215135, Control_c, 0, 64, 98
1, 215150, Control_c, 0, 64, 94
1, 215164, Control_c, 0, 64, 90
1, 215176, Note_on_c, 0, 74, 70
1, 215179, Control_c, 0, 64, 81
1, 215187, Note_on_c, 0, 68, 62
1, 215193, Control_c, 0, 64, 70
1, 215198, Note_on_c, 0, 55, 16
1, 215208, Control_c, 0, 64, 61
1, 215223, Control_c, 0, 64, 56
1, 215247, Note_off_c, 0, 55, 49
1, 215253, Control_c, 0, 64, 59
1, 215267, Control_c, 0, 64, 63
1, 215282, Control_c, 0, 64, 68
1, 215297, Control_c, 0, 64, 75
1, 215312, Control_c, 0, 64, 85
1, 215327, Control_c, 0, 64, 96
1, 215341, Control_c, 0, 64, 99
1, 215360, Note_on_c, 0, 55, 40
1, 215386, Control_c, 0, 64, 99
1, 215400, Control_c, 0, 64, 100
1, 215407, Note_off_c, 0, 55, 44
1, 215415, Control_c, 0, 64, 100
1, 215490, Control_c, 0, 67, 17
1, 215505, Control_c, 0, 67, 19
1, 215520, Control_c, 0, 67, 21
1, 215532, Note_on_c, 0, 55, 36
1, 215535, Control_c, 0, 67, 22
1, 215549, Control_c, 0, 67, 23
1, 215565, Note_off_c, 0, 55, 51
1, 215579, Control_c, 0, 67, 24
1, 215630, Note_off_c, 0, 68, 36
1, 215630, Control_c, 0, 64, 99
1, 215630, Control_c, 0, 67, 24
1, 215645, Control_c, 0, 64, 98
1, 215645, Control_c, 0, 67, 25
1, 215660, Control_c, 0, 64, 96
1, 215675, Control_c, 0, 64, 92
1, 215675, Control_c, 0, 67, 25
1, 215690, Control_c, 0, 64, 86
1, 215703, Note_on_c, 0, 55, 21
1, 215704, Control_c, 0, 64, 77
1, 215704, Control_c, 0, 67, 26
1, 215707, Note_on_c, 0, 72, 68
1, 215719, Control_c, 0, 64, 67
1, 215734, Control_c, 0, 64, 58
1, 215749, Note_off_c, 0, 74, 50
1, 215749, Control_c, 0, 64, 55
1, 215757, Note_off_c, 0, 55, 46
1, 215764, Control_c, 0, 64, 56
1, 215779, Control_c, 0, 64, 61
1, 215794, Control_c, 0, 64, 65
1, 215809, Control_c, 0, 64, 69
1, 215809, Control_c, 0, 67, 25
1, 215824, Control_c, 0, 64, 76
1, 215839, Control_c, 0, 64, 87
1, 215839, Control_c, 0, 67, 25
1, 215853, Control_c, 0, 64, 96
1, 215853, Control_c, 0, 67, 24
1, 215868, Control_c, 0, 64, 99
1, 215868, Control_c, 0, 67, 24
1, 215881, Note_on_c, 0, 55, 36
1, 215898, Control_c, 0, 67, 23
1, 215913, Control_c, 0, 67, 23
1, 215928, Note_off_c, 0, 55, 44
1, 215928, Control_c, 0, 64, 100
1, 215943, Control_c, 0, 64, 101
1, 215958, Control_c, 0, 64, 102
1, 216016, Control_c, 0, 67, 22
1, 216031, Control_c, 0, 67, 22
1, 216052, Note_on_c, 0, 55, 44
1, 216095, Note_off_c, 0, 55, 45
1, 216131, Note_off_c, 0, 72, 51
1, 216131, Note_on_c, 0, 74, 63
1, 216164, Control_c, 0, 64, 100
1, 216179, Control_c, 0, 64, 98
1, 216179, Control_c, 0, 67, 21
1, 216194, Control_c, 0, 64, 94
1, 216209, Control_c, 0, 64, 88
1, 216223, Control_c, 0, 64, 80
1, 216227, Note_on_c, 0, 75, 69
1, 216229, Note_off_c, 0, 74, 58
1, 216238, Control_c, 0, 64, 69
1, 216253, Control_c, 0, 64, 61
1, 216259, Note_on_c, 0, 55, 28
1, 216268, Control_c, 0, 64, 55
1, 216298, Control_c, 0, 64, 59
1, 216298, Control_c, 0, 67, 21
1, 216313, Control_c, 0, 64, 64
1, 216324, Note_off_c, 0, 55, 44
1, 216327, Control_c, 0, 64, 68
1, 216342, Control_c, 0, 64, 75
1, 216357, Control_c, 0, 64, 84
1, 216379, Control_c, 0, 64, 93
1, 216394, Control_c, 0, 64, 97
1, 216423, Control_c, 0, 67, 20
1, 216438, Control_c, 0, 67, 20
1, 216453, Note_on_c, 0, 55, 39
1, 216468, Control_c, 0, 67, 19
1, 216482, Note_off_c, 0, 55, 54
1, 216587, Control_c, 0, 67, 19
1, 216590, Note_on_c, 0, 55, 38
1, 216617, Control_c, 0, 64, 97
1, 216632, Control_c, 0, 64, 96
1, 216646, Control_c, 0, 64, 95
1, 216648, Note_off_c, 0, 55, 41
1, 216662, Control_c, 0, 64, 93
1, 216677, Control_c, 0, 64, 91
1, 216692, Control_c, 0, 64, 89
1, 216707, Control_c, 0, 64, 85
1, 216707, Control_c, 0, 67, 18
1, 216721, Control_c, 0, 64, 80
1, 216736, Control_c, 0, 64, 73
1, 216736, Control_c, 0, 67, 18
1, 216751, Control_c, 0, 64, 66
1, 216751, Control_c, 0, 67, 17
1, 216763, Note_on_c, 0, 63, 57
1, 216766, Control_c, 0, 64, 65
1, 216781, Control_c, 0, 64, 66
1, 216781, Control_c, 0, 67, 17
1, 216783, Note_on_c, 0, 55, 37
1, 216795, Control_c, 0, 64, 68
1, 216810, Control_c, 0, 64, 72
1, 216824, Note_off_c, 0, 55, 50
1, 216825, Control_c, 0, 64, 78
1, 216840, Control_c, 0, 64, 85
1, 216855, Control_c, 0, 64, 92
1, 216870, Control_c, 0, 64, 93
1, 216870, Control_c, 0, 67, 16
1, 216900, Control_c, 0, 64, 94
1, 216900, Control_c, 0, 67, 16
1, 216914, Control_c, 0, 64, 95
1, 216929, Control_c, 0, 64, 97
1, 216942, Note_on_c, 0, 55, 41
1, 216944, Control_c, 0, 64, 98
1, 216959, Control_c, 0, 64, 99
1, 216973, Control_c, 0, 64, 100
1, 216988, Control_c, 0, 64, 101
1, 216995, Note_off_c, 0, 55, 49
1, 217003, Control_c, 0, 64, 101
1, 217018, Control_c, 0, 64, 102
1, 217026, Note_off_c, 0, 63, 45
1, 217034, Note_on_c, 0, 74, 68
1, 217043, Note_off_c, 0, 75, 61
1, 217047, Control_c, 0, 64, 102
1, 217151, Note_on_c, 0, 55, 41
1, 217188, Control_c, 0, 64, 102
1, 217195, Note_off_c, 0, 55, 44
1, 217203, Control_c, 0, 64, 101
1, 217218, Control_c, 0, 64, 99
1, 217233, Control_c, 0, 64, 96
1, 217247, Control_c, 0, 64, 92
1, 217262, Control_c, 0, 64, 88
1, 217277, Control_c, 0, 64, 85
1, 217292, Control_c, 0, 64, 81
1, 217307, Control_c, 0, 64, 75
1, 217317, Note_on_c, 0, 72, 59
1, 217321, Control_c, 0, 64, 66
1, 217322, Note_off_c, 0, 74, 35
1, 217323, Note_on_c, 0, 67, 52
1, 217326, Note_on_c, 0, 55, 38
1, 217336, Control_c, 0, 64, 59
1, 217351, Control_c, 0, 64, 58
1, 217365, Control_c, 0, 64, 61
1, 217380, Control_c, 0, 64, 65
1, 217385, Note_off_c, 0, 55, 52
1, 217396, Control_c, 0, 64, 70
1, 217411, Control_c, 0, 64, 78
1, 217426, Control_c, 0, 64, 90
1, 217441, Control_c, 0, 64, 101
1, 217456, Control_c, 0, 64, 105
1, 217539, Note_on_c, 0, 55, 25
1, 217579, Note_off_c, 0, 55, 50
1, 217701, Note_on_c, 0, 55, 27
1, 217722, Control_c, 0, 64, 104
1, 217737, Control_c, 0, 64, 103
1, 217738, Note_off_c, 0, 55, 46
1, 217752, Control_c, 0, 64, 102
1, 217767, Control_c, 0, 64, 98
1, 217782, Control_c, 0, 64, 95
1, 217796, Control_c, 0, 64, 90
1, 217811, Control_c, 0, 64, 84
1, 217826, Control_c, 0, 64, 76
1, 217835, Note_on_c, 0, 74, 63
1, 217841, Control_c, 0, 64, 69
1, 217849, Note_on_c, 0, 55, 42
1, 217856, Control_c, 0, 64, 64
1, 217879, Note_off_c, 0, 72, 56
1, 217881, Note_off_c, 0, 67, 41
1, 217892, Control_c, 0, 64, 65
1, 217907, Control_c, 0, 64, 67
1, 217910, Note_off_c, 0, 55, 56
1, 217922, Control_c, 0, 64, 71
1, 217937, Control_c, 0, 64, 76
1, 217952, Control_c, 0, 64, 84
1, 217967, Control_c, 0, 64, 91
1, 217982, Control_c, 0, 64, 95
1, 218046, Note_on_c, 0, 55, 37
1, 218056, Control_c, 0, 64, 95
1, 218078, Note_off_c, 0, 55, 51
1, 218085, Control_c, 0, 64, 96
1, 218177, Note_on_c, 0, 55, 46
1, 218215, Note_off_c, 0, 55, 46
1, 218262, Note_on_c, 0, 72, 60
1, 218279, Control_c, 0, 64, 96
1, 218293, Control_c, 0, 64, 94
1, 218308, Control_c, 0, 64, 92
1, 218323, Control_c, 0, 64, 89
1, 218334, Note_off_c, 0, 74, 36
1, 218337, Control_c, 0, 64, 85
1, 218352, Control_c, 0, 64, 80
1, 218355, Note_on_c, 0, 71, 69
1, 218367, Note_on_c, 0, 55, 39
1, 218367, Control_c, 0, 64, 72
1, 218371, Note_off_c, 0, 72, 51
1, 218382, Control_c, 0, 64, 63
1, 218397, Control_c, 0, 64, 57
1, 218411, Control_c, 0, 64, 58
1, 218418, Note_off_c, 0, 55, 58
1, 218426, Control_c, 0, 64, 61
1, 218441, Control_c, 0, 64, 65
1, 218456, Control_c, 0, 64, 69
1, 218471, Control_c, 0, 64, 74
1, 218486, Control_c, 0, 64, 84
1, 218501, Control_c, 0, 64, 93
1, 218515, Control_c, 0, 64, 98
1, 218556, Note_on_c, 0, 55, 34
1, 218594, Note_off_c, 0, 55, 46
1, 218626, Control_c, 0, 64, 98
1, 218703, Note_on_c, 0, 55, 46
1, 218743, Note_off_c, 0, 55, 47
1, 218805, Control_c, 0, 64, 97
1, 218819, Control_c, 0, 64, 96
1, 218834, Control_c, 0, 64, 93
1, 218849, Control_c, 0, 64, 89
1, 218864, Control_c, 0, 64, 83
1, 218873, Note_on_c, 0, 65, 64
1, 218879, Control_c, 0, 64, 74
1, 218879, Note_on_c, 0, 55, 34
1, 218879, Note_on_c, 0, 69, 70
1, 218883, Note_off_c, 0, 71, 49
1, 218893, Control_c, 0, 64, 65
1, 218908, Control_c, 0, 64, 61
1, 218923, Control_c, 0, 64, 62
1, 218937, Control_c, 0, 64, 64
1, 218946, Note_off_c, 0, 55, 52
1, 218952, Control_c, 0, 64, 67
1, 218967, Control_c, 0, 64, 71
1, 218982, Control_c, 0, 64, 76
1, 218998, Control_c, 0, 64, 84
1, 219013, Control_c, 0, 64, 89
1, 219028, Control_c, 0, 64, 91
1, 219087, Control_c, 0, 64, 91
1, 219088, Note_on_c, 0, 55, 37
1, 219102, Control_c, 0, 64, 92
1, 219116, Control_c, 0, 64, 92
1, 219123, Note_off_c, 0, 55, 48
1, 219131, Control_c, 0, 64, 93
1, 219159, Note_off_c, 0, 65, 35
1, 219221, Note_on_c, 0, 55, 48
1, 219251, Note_off_c, 0, 55, 54
1, 219275, Note_on_c, 0, 71, 60
1, 219301, Note_off_c, 0, 69, 49
1, 219308, Control_c, 0, 64, 92
1, 219323, Control_c, 0, 64, 92
1, 219338, Control_c, 0, 64, 89
1, 219360, Control_c, 0, 64, 86
1, 219375, Control_c, 0, 64, 78
1, 219390, Note_on_c, 0, 72, 71
1, 219390, Control_c, 0, 64, 68
1, 219392, Note_on_c, 0, 55, 39
1, 219394, Note_on_c, 0, 63, 62
1, 219405, Control_c, 0, 64, 61
1, 219414, Note_off_c, 0, 71, 53
1, 219420, Control_c, 0, 64, 59
1, 219434, Note_off_c, 0, 55, 61
1, 219435, Control_c, 0, 64, 62
1, 219449, Control_c, 0, 64, 65
1, 219464, Control_c, 0, 64, 68
1, 219479, Control_c, 0, 64, 73
1, 219494, Control_c, 0, 64, 80
1, 219509, Control_c, 0, 64, 88
1, 219523, Control_c, 0, 64, 91
1, 219568, Control_c, 0, 64, 92
1, 219583, Control_c, 0, 64, 92
1, 219583, Note_on_c, 0, 55, 41
1, 219596, Note_off_c, 0, 63, 37
1, 219597, Control_c, 0, 64, 93
1, 219612, Control_c, 0, 64, 94
1, 219618, Note_off_c, 0, 55, 50
1, 219627, Control_c, 0, 64, 94
1, 219732, Note_on_c, 0, 55, 50
1, 219777, Note_off_c, 0, 55, 58
1, 219820, Control_c, 0, 64, 94
1, 219828, Note_off_c, 0, 72, 35
1, 219835, Control_c, 0, 64, 92
1, 219850, Control_c, 0, 64, 90
1, 219864, Control_c, 0, 64, 86
1, 219879, Control_c, 0, 64, 79
1, 219894, Control_c, 0, 64, 69
1, 219896, Note_on_c, 0, 74, 74
1, 219906, Note_on_c, 0, 55, 48
1, 219909, Control_c, 0, 64, 60
1, 219914, Note_on_c, 0, 60, 54
1, 219924, Control_c, 0, 64, 59
1, 219938, Control_c, 0, 64, 61
1, 219953, Control_c, 0, 64, 64
1, 219964, Note_off_c, 0, 55, 52
1, 219968, Control_c, 0, 64, 67
1, 219982, Control_c, 0, 64, 71
1, 219997, Control_c, 0, 64, 77
1, 220012, Control_c, 0, 64, 86
1, 220027, Control_c, 0, 64, 93
1, 220042, Control_c, 0, 64, 94
1, 220086, Note_on_c, 0, 55, 58
1, 220086, Control_c, 0, 64, 95
1, 220108, Control_c, 0, 64, 96
1, 220123, Control_c, 0, 64, 97
1, 220133, Note_off_c, 0, 55, 60
1, 220138, Control_c, 0, 64, 98
1, 220153, Control_c, 0, 64, 98
1, 220182, Control_c, 0, 64, 99
1, 220197, Control_c, 0, 64, 99
1, 220245, Note_on_c, 0, 55, 58
1, 220306, Note_off_c, 0, 55, 52
1, 220319, Note_on_c, 0, 75, 67
1, 220333, Note_off_c, 0, 74, 51
1, 220361, Note_off_c, 0, 75, 58
1, 220372, Note_off_c, 0, 60, 33
1, 220405, Control_c, 0, 64, 98
1, 220420, Control_c, 0, 64, 95
1, 220435, Control_c, 0, 64, 88
1, 220450, Control_c, 0, 64, 77
1, 220465, Control_c, 0, 64, 65
1, 220473, Note_on_c, 0, 55, 48
1, 220478, Note_on_c, 0, 68, 62
1, 220480, Control_c, 0, 64, 55
1, 220490, Note_on_c, 0, 74, 52
1, 220495, Control_c, 0, 64, 53
1, 220509, Control_c, 0, 64, 54
1, 220519, Note_on_c, 0, 67, 69
1, 220524, Control_c, 0, 64, 58
1, 220525, Note_off_c, 0, 55, 54
1, 220539, Control_c, 0, 64, 64
1, 220554, Control_c, 0, 64, 69
1, 220554, Note_off_c, 0, 68, 50
1, 220569, Control_c, 0, 64, 74
1, 220584, Control_c, 0, 64, 82
1, 220599, Control_c, 0, 64, 90
1, 220614, Control_c, 0, 64, 94
1, 220644, Control_c, 0, 64, 95
1, 220659, Control_c, 0, 64, 95
1, 220663, Note_on_c, 0, 55, 53
1, 220688, Control_c, 0, 64, 96
1, 220703, Control_c, 0, 64, 96
1, 220706, Note_off_c, 0, 55, 59
1, 220718, Control_c, 0, 64, 97
1, 220732, Control_c, 0, 64, 97
1, 220826, Note_on_c, 0, 55, 56
1, 220854, Note_off_c, 0, 55, 57
1, 220903, Control_c, 0, 64, 97
1, 220918, Control_c, 0, 64, 95
1, 220933, Control_c, 0, 64, 93
1, 220947, Control_c, 0, 64, 87
1, 220962, Control_c, 0, 64, 77
1, 220977, Control_c, 0, 64, 65
1, 220992, Control_c, 0, 64, 55
1, 221006, Control_c, 0, 64, 54
1, 221008, Note_on_c, 0, 55, 41
1, 221021, Control_c, 0, 64, 58
1, 221036, Control_c, 0, 64, 64
1, 221051, Control_c, 0, 64, 69
1, 221059, Note_off_c, 0, 55, 56
1, 221066, Control_c, 0, 64, 75
1, 221080, Control_c, 0, 64, 84
1, 221095, Control_c, 0, 64, 93
1, 221110, Control_c, 0, 64, 98
1, 221125, Control_c, 0, 64, 98
1, 221139, Control_c, 0, 64, 99
1, 221154, Control_c, 0, 64, 99
1, 221168, Note_on_c, 0, 55, 49
1, 221184, Control_c, 0, 64, 100
1, 221199, Control_c, 0, 64, 101
1, 221207, Note_off_c, 0, 55, 60
1, 221213, Control_c, 0, 64, 102
1, 221243, Control_c, 0, 67, 0
1, 221316, Note_on_c, 0, 55, 52
1, 221365, Note_off_c, 0, 55, 54
1, 221407, Control_c, 0, 64, 100
1, 221422, Control_c, 0, 64, 98
1, 221437, Control_c, 0, 64, 93
1, 221452, Control_c, 0, 64, 79
1, 221467, Control_c, 0, 64, 67
1, 221481, Control_c, 0, 64, 64
1, 221496, Control_c, 0, 64, 68
1, 221511, Control_c, 0, 64, 75
1, 221516, Note_on_c, 0, 55, 15
1, 221526, Control_c, 0, 64, 88
1, 221536, Note_off_c, 0, 67, 53
1, 221541, Control_c, 0, 64, 107
1, 221553, Note_off_c, 0, 55, 43
1, 221555, Control_c, 0, 64, 127
1, 221588, Note_off_c, 0, 74, 35
1, 221666, Note_on_c, 0, 55, 38
1, 221697, Note_off_c, 0, 55, 53
1, 221803, Note_on_c, 0, 55, 45
1, 221865, Note_off_c, 0, 55, 51
1, 221933, Control_c, 0, 64, 111
1, 221948, Control_c, 0, 64, 92
1, 221962, Control_c, 0, 64, 77
1, 221977, Control_c, 0, 64, 71
1, 221980, Note_on_c, 0, 59, 49
1, 221982, Note_on_c, 0, 71, 58
1, 221983, Note_on_c, 0, 67, 56
1, 221992, Control_c, 0, 64, 70
1, 221996, Note_on_c, 0, 55, 30
1, 222007, Control_c, 0, 64, 69
1, 222022, Control_c, 0, 64, 66
1, 222027, Note_off_c, 0, 55, 56
1, 222036, Control_c, 0, 64, 62
1, 222051, Control_c, 0, 64, 60
1, 222066, Control_c, 0, 64, 62
1, 222081, Control_c, 0, 64, 67
1, 222095, Control_c, 0, 64, 75
1, 222110, Control_c, 0, 64, 91
1, 222125, Control_c, 0, 64, 127
1, 222134, Note_off_c, 0, 59, 55
1, 222134, Note_on_c, 0, 55, 51
1, 222164, Note_off_c, 0, 71, 59
1, 222173, Note_off_c, 0, 67, 58
1, 222193, Note_off_c, 0, 55, 51
1, 222308, Note_on_c, 0, 55, 48
1, 222358, Note_off_c, 0, 55, 58
1, 222381, Note_on_c, 0, 60, 58
1, 222381, Note_on_c, 0, 72, 65
1, 222392, Note_on_c, 0, 69, 55
1, 222404, Note_off_c, 0, 60, 60
1, 222412, Note_off_c, 0, 69, 64
1, 222420, Note_off_c, 0, 72, 60
1, 222474, Control_c, 0, 64, 99
1, 222489, Control_c, 0, 64, 80
1, 222491, Note_on_c, 0, 55, 54
1, 222494, Note_on_c, 0, 74, 79
1, 222499, Note_on_c, 0, 71, 65
1, 222504, Control_c, 0, 64, 67
1, 222505, Note_on_c, 0, 62, 63
1, 222519, Control_c, 0, 64, 64
1, 222534, Control_c, 0, 64, 65
1, 222546, Note_off_c, 0, 55, 53
1, 222549, Control_c, 0, 64, 69
1, 222563, Control_c, 0, 64, 74
1, 222578, Control_c, 0, 64, 86
1, 222593, Control_c, 0, 64, 100
1, 222608, Control_c, 0, 64, 110
1, 222623, Control_c, 0, 64, 110
1, 222662, Note_on_c, 0, 55, 61
1, 222680, Control_c, 0, 64, 111
1, 222695, Note_off_c, 0, 55, 61
1, 222695, Control_c, 0, 64, 112
1, 222710, Control_c, 0, 64, 113
1, 222769, Control_c, 0, 64, 113
1, 222795, Note_off_c, 0, 71, 53
1, 222799, Control_c, 0, 64, 114
1, 222805, Note_on_c, 0, 55, 58
1, 222811, Note_off_c, 0, 74, 50
1, 222814, Note_off_c, 0, 62, 33
1, 222873, Note_off_c, 0, 55, 44
1, 222917, Control_c, 0, 64, 112
1, 222932, Control_c, 0, 64, 110
1, 222947, Control_c, 0, 64, 103
1, 222962, Control_c, 0, 64, 92
1, 222969, Note_on_c, 0, 71, 70
1, 222976, Note_on_c, 0, 62, 72
1, 222977, Note_on_c, 0, 74, 76
1, 222978, Control_c, 0, 64, 77
1, 222993, Note_on_c, 0, 54, 60
1, 222993, Control_c, 0, 64, 66
1, 223003, Note_on_c, 0, 55, 41
1, 223007, Control_c, 0, 64, 64
1, 223022, Control_c, 0, 64, 64
1, 223031, Note_off_c, 0, 55, 57
1, 223037, Control_c, 0, 64, 67
1, 223040, Note_off_c, 0, 54, 56
1, 223052, Control_c, 0, 64, 72
1, 223067, Control_c, 0, 64, 79
1, 223081, Control_c, 0, 64, 92
1, 223096, Control_c, 0, 64, 103
1, 223118, Control_c, 0, 64, 108
1, 223158, Note_on_c, 0, 54, 71
1, 223171, Note_on_c, 0, 55, 32
1, 223178, Control_c, 0, 64, 109
1, 223192, Control_c, 0, 64, 110
1, 223204, Note_off_c, 0, 55, 51
1, 223207, Control_c, 0, 64, 113
1, 223216, Note_off_c, 0, 54, 51
1, 223222, Control_c, 0, 64, 117
1, 223237, Control_c, 0, 64, 122
1, 223252, Control_c, 0, 64, 127
1, 223274, Note_off_c, 0, 71, 52
1, 223282, Note_off_c, 0, 62, 48
1, 223306, Note_off_c, 0, 74, 36
1, 223306, Note_on_c, 0, 54, 62
1, 223309, Note_on_c, 0, 55, 51
1, 223364, Note_off_c, 0, 54, 56
1, 223386, Note_off_c, 0, 55, 37
1, 223415, Control_c, 0, 64, 124
1, 223430, Control_c, 0, 64, 116
1, 223445, Control_c, 0, 64, 107
1, 223459, Control_c, 0, 64, 98
1, 223469, Note_on_c, 0, 71, 78
1, 223473, Note_on_c, 0, 62, 75
1, 223474, Control_c, 0, 64, 86
1, 223475, Note_on_c, 0, 74, 83
1, 223482, Note_on_c, 0, 53, 69
1, 223489, Control_c, 0, 64, 72
1, 223500, Note_on_c, 0, 55, 41
1, 223504, Control_c, 0, 64, 68
1, 223519, Control_c, 0, 64, 69
1, 223528, Note_off_c, 0, 55, 56
1, 223533, Control_c, 0, 64, 74
1, 223548, Control_c, 0, 64, 82
1, 223549, Note_off_c, 0, 53, 56
1, 223563, Control_c, 0, 64, 94
1, 223578, Control_c, 0, 64, 103
1, 223593, Control_c, 0, 64, 107
1, 223638, Note_on_c, 0, 55, 47
1, 223640, Note_on_c, 0, 53, 67
1, 223652, Control_c, 0, 64, 108
1, 223666, Control_c, 0, 64, 109
1, 223681, Control_c, 0, 64, 111
1, 223696, Control_c, 0, 64, 114
1, 223711, Control_c, 0, 64, 116
1, 223722, Note_off_c, 0, 55, 35
1, 223726, Control_c, 0, 64, 117
1, 223741, Control_c, 0, 64, 117
1, 223756, Control_c, 0, 64, 118
1, 223770, Note_off_c, 0, 53, 0
1, 223771, Control_c, 0, 64, 118
1, 223784, Note_on_c, 0, 53, 47
1, 223789, Note_off_c, 0, 71, 56
1, 223798, Note_on_c, 0, 55, 50
1, 223805, Note_off_c, 0, 74, 36
1, 223808, Note_off_c, 0, 62, 49
1, 223839, Note_off_c, 0, 55, 52
1, 223863, Note_off_c, 0, 53, 55
1, 223912, Control_c, 0, 64, 118
1, 223927, Control_c, 0, 64, 113
1, 223942, Control_c, 0, 64, 104
1, 223956, Control_c, 0, 64, 91
1, 223960, Note_on_c, 0, 55, 50
1, 223960, Note_on_c, 0, 72, 80
1, 223963, Note_on_c, 0, 60, 75
1, 223963, Note_on_c, 0, 67, 76
1, 223971, Control_c, 0, 64, 78
1, 223976, Note_on_c, 0, 51, 60
1, 223986, Control_c, 0, 64, 68
1, 224001, Control_c, 0, 64, 66
1, 224016, Control_c, 0, 64, 69
1, 224027, Note_off_c, 0, 51, 53
1, 224030, Control_c, 0, 64, 74
1, 224033, Note_off_c, 0, 55, 54
1, 224045, Control_c, 0, 64, 84
1, 224060, Control_c, 0, 64, 96
1, 224075, Control_c, 0, 64, 107
1, 224090, Control_c, 0, 64, 109
1, 224105, Control_c, 0, 64, 109
1, 224120, Control_c, 0, 64, 110
1, 224128, Note_on_c, 0, 51, 66
1, 224133, Note_on_c, 0, 55, 57
1, 224134, Control_c, 0, 64, 113
1, 224149, Control_c, 0, 64, 116
1, 224161, Note_off_c, 0, 60, 55
1, 224164, Control_c, 0, 64, 127
1, 224186, Note_off_c, 0, 72, 56
1, 224189, Note_off_c, 0, 67, 56
1, 224190, Note_off_c, 0, 55, 44
1, 224268, Note_on_c, 0, 50, 70
1, 224268, Note_off_c, 0, 51, 31
1, 224277, Note_on_c, 0, 55, 59
1, 224352, Note_on_c, 0, 74, 79
1, 224353, Note_on_c, 0, 67, 77
1, 224355, Note_on_c, 0, 62, 71
1, 224364, Note_off_c, 0, 55, 35
1, 224376, Note_off_c, 0, 62, 64
1, 224403, Note_off_c, 0, 74, 58
1, 224414, Note_off_c, 0, 50, 47
1, 224418, Note_off_c, 0, 67, 59
1, 224445, Control_c, 0, 64, 113
1, 224460, Control_c, 0, 64, 102
1, 224472, Note_on_c, 0, 67, 73
1, 224474, Control_c, 0, 64, 88
1, 224475, Note_on_c, 0, 48, 66
1, 224479, Note_on_c, 0, 55, 65
1, 224480, Note_on_c, 0, 75, 88
1, 224486, Note_on_c, 0, 63, 80
1, 224489, Control_c, 0, 64, 73
1, 224504, Control_c, 0, 64, 62
1, 224519, Control_c, 0, 64, 61
1, 224534, Control_c, 0, 64, 64
1, 224541, Note_off_c, 0, 55, 56
1, 224543, Note_off_c, 0, 48, 61
1, 224549, Control_c, 0, 64, 68
1, 224564, Control_c, 0, 64, 73
1, 224579, Control_c, 0, 64, 81
1, 224594, Control_c, 0, 64, 94
1, 224617, Control_c, 0, 64, 108
1, 224632, Control_c, 0, 64, 110
1, 224661, Control_c, 0, 64, 110
1, 224662, Note_on_c, 0, 55, 69
1, 224665, Note_on_c, 0, 48, 67
1, 224676, Control_c, 0, 64, 111
1, 224691, Control_c, 0, 64, 112
1, 224705, Control_c, 0, 64, 114
1, 224719, Note_off_c, 0, 55, 52
1, 224720, Control_c, 0, 64, 119
1, 224723, Note_off_c, 0, 48, 56
1, 224735, Control_c, 0, 64, 127
1, 224811, Note_on_c, 0, 48, 61
1, 224817, Note_on_c, 0, 55, 63
1, 224857, Note_off_c, 0, 48, 62
1, 224863, Note_off_c, 0, 55, 52
1, 224877, Note_off_c, 0, 75, 54
1, 224883, Note_off_c, 0, 63, 59
1, 224942, Control_c, 0, 64, 124
1, 224957, Control_c, 0, 64, 111
1, 224968, Note_on_c, 0, 46, 68
1, 224972, Control_c, 0, 64, 95
1, 224975, Note_on_c, 0, 55, 69
1, 224987, Control_c, 0, 64, 79
1, 225002, Control_c, 0, 64, 69
1, 225031, Control_c, 0, 64, 74
1, 225035, Note_off_c, 0, 55, 58
1, 225038, Note_off_c, 0, 46, 61
1, 225046, Control_c, 0, 64, 83
1, 225061, Control_c, 0, 64, 98
1, 225076, Control_c, 0, 64, 118
1, 225091, Control_c, 0, 64, 127
1, 225139, Note_on_c, 0, 46, 66
1, 225146, Note_on_c, 0, 55, 65
1, 225190, Note_off_c, 0, 55, 54
1, 225191, Note_on_c, 0, 74, 85
1, 225198, Note_off_c, 0, 46, 50
1, 225199, Note_on_c, 0, 62, 75
1, 225246, Note_off_c, 0, 67, 55
1, 225275, Note_off_c, 0, 62, 56
1, 225283, Note_off_c, 0, 74, 56
1, 225305, Note_on_c, 0, 46, 67
1, 225306, Note_on_c, 0, 55, 69
1, 225368, Note_off_c, 0, 55, 51
1, 225377, Note_off_c, 0, 46, 51
1, 225425, Control_c, 0, 64, 116
1, 225440, Control_c, 0, 64, 104
1, 225454, Control_c, 0, 64, 91
1, 225469, Control_c, 0, 64, 75
1, 225470, Note_on_c, 0, 67, 61
1, 225472, Note_on_c, 0, 72, 80
1, 225475, Note_on_c, 0, 60, 79
1, 225484, Control_c, 0, 64, 65
1, 225486, Note_on_c, 0, 45, 67
1, 225489, Note_on_c, 0, 55, 69
1, 225499, Control_c, 0, 64, 63
1, 225514, Control_c, 0, 64, 66
1, 225528, Control_c, 0, 64, 70
1, 225543, Control_c, 0, 64, 78
1, 225553, Note_off_c, 0, 55, 55
1, 225557, Note_off_c, 0, 45, 55
1, 225558, Control_c, 0, 64, 89
1, 225573, Control_c, 0, 64, 101
1, 225588, Control_c, 0, 64, 109
1, 225646, Control_c, 0, 64, 109
1, 225651, Note_on_c, 0, 45, 67
1, 225651, Note_on_c, 0, 55, 67
1, 225659, Note_off_c, 0, 60, 57
1, 225661, Control_c, 0, 64, 110
1, 225690, Control_c, 0, 64, 110
1, 225694, Note_off_c, 0, 67, 58
1, 225696, Note_off_c, 0, 55, 58
1, 225711, Note_off_c, 0, 72, 58
1, 225716, Note_off_c, 0, 45, 50
1, 225792, Note_on_c, 0, 45, 57
1, 225800, Note_on_c, 0, 55, 64
1, 225823, Note_off_c, 0, 55, 66
1, 225837, Note_off_c, 0, 45, 58
1, 225883, Control_c, 0, 64, 110
1, 225898, Control_c, 0, 64, 109
1, 225913, Control_c, 0, 64, 107
1, 225927, Control_c, 0, 64, 104
1, 225942, Control_c, 0, 64, 95
1, 225950, Note_on_c, 0, 66, 86
1, 225950, Note_on_c, 0, 74, 90
1, 225952, Note_on_c, 0, 62, 83
1, 225957, Control_c, 0, 64, 81
1, 225962, Note_on_c, 0, 54, 70
1, 225965, Note_on_c, 0, 44, 67
1, 225972, Control_c, 0, 64, 67
1, 225987, Control_c, 0, 64, 56
1, 226001, Control_c, 0, 64, 54
1, 226016, Control_c, 0, 64, 57
1, 226031, Note_off_c, 0, 54, 60
1, 226031, Control_c, 0, 64, 63
1, 226037, Note_off_c, 0, 44, 60
1, 226045, Control_c, 0, 64, 70
1, 226060, Control_c, 0, 64, 78
1, 226075, Control_c, 0, 64, 90
1, 226090, Control_c, 0, 64, 101
1, 226113, Control_c, 0, 64, 104
1, 226138, Note_on_c, 0, 54, 74
1, 226141, Note_on_c, 0, 44, 67
1, 226142, Control_c, 0, 64, 105
1, 226157, Control_c, 0, 64, 106
1, 226172, Control_c, 0, 64, 108
1, 226182, Note_off_c, 0, 54, 57
1, 226188, Control_c, 0, 64, 110
1, 226190, Note_off_c, 0, 44, 58
1, 226203, Control_c, 0, 64, 116
1, 226218, Control_c, 0, 64, 127
1, 226225, Note_off_c, 0, 74, 50
1, 226289, Note_on_c, 0, 54, 70
1, 226295, Note_on_c, 0, 44, 68
1, 226352, Note_off_c, 0, 44, 54
1, 226355, Note_on_c, 0, 72, 80
1, 226356, Note_off_c, 0, 62, 0
1, 226356, Note_on_c, 0, 62, 3
1, 226395, Note_off_c, 0, 66, 61
1, 226401, Note_off_c, 0, 54, 35
1, 226405, Note_off_c, 0, 62, 59
1, 226408, Note_off_c, 0, 72, 60
1, 226455, Control_c, 0, 64, 108
1, 226466, Note_on_c, 0, 71, 84
1, 226468, Note_on_c, 0, 65, 85
1, 226469, Control_c, 0, 64, 91
1, 226474, Note_on_c, 0, 62, 65
1, 226477, Note_on_c, 0, 43, 71
1, 226477, Note_on_c, 0, 53, 73
1, 226484, Control_c, 0, 64, 75
1, 226499, Control_c, 0, 64, 63
1, 226514, Control_c, 0, 64, 61
1, 226529, Control_c, 0, 64, 64
1, 226544, Control_c, 0, 64, 68
1, 226549, Note_off_c, 0, 43, 58
1, 226549, Note_off_c, 0, 53, 55
1, 226558, Control_c, 0, 64, 74
1, 226573, Control_c, 0, 64, 83
1, 226588, Control_c, 0, 64, 95
1, 226603, Control_c, 0, 64, 102
1, 226618, Control_c, 0, 64, 103
1, 226643, Note_on_c, 0, 43, 73
1, 226644, Note_on_c, 0, 53, 79
1, 226647, Control_c, 0, 64, 104
1, 226662, Control_c, 0, 64, 105
1, 226677, Control_c, 0, 64, 107
1, 226692, Control_c, 0, 64, 110
1, 226705, Note_off_c, 0, 53, 57
1, 226706, Note_off_c, 0, 43, 56
1, 226707, Control_c, 0, 64, 115
1, 226722, Control_c, 0, 64, 118
1, 226725, Note_off_c, 0, 62, 45
1, 226725, Note_off_c, 0, 65, 58
1, 226737, Control_c, 0, 64, 121
1, 226743, Note_off_c, 0, 71, 57
1, 226751, Control_c, 0, 64, 124
1, 226766, Control_c, 0, 64, 127
1, 226790, Note_on_c, 0, 53, 73
1, 226792, Note_on_c, 0, 43, 71
1, 226832, Note_off_c, 0, 53, 57
1, 226859, Note_off_c, 0, 43, 60
1, 226936, Control_c, 0, 64, 124
1, 226951, Control_c, 0, 64, 109
1, 226960, Note_on_c, 0, 67, 86
1, 226964, Note_on_c, 0, 71, 84
1, 226965, Note_on_c, 0, 62, 80
1, 226966, Control_c, 0, 64, 90
1, 226969, Note_on_c, 0, 43, 76
1, 226977, Note_on_c, 0, 41, 68
1, 226981, Control_c, 0, 64, 75
1, 226996, Control_c, 0, 64, 65
1, 227011, Control_c, 0, 64, 64
1, 227026, Control_c, 0, 64, 66
1, 227038, Note_off_c, 0, 41, 59
1, 227041, Control_c, 0, 64, 69
1, 227048, Note_off_c, 0, 43, 59
1, 227056, Control_c, 0, 64, 73
1, 227071, Control_c, 0, 64, 83
1, 227086, Control_c, 0, 64, 97
1, 227100, Control_c, 0, 64, 110
1, 227115, Control_c, 0, 64, 113
1, 227125, Note_on_c, 0, 41, 67
1, 227130, Note_on_c, 0, 43, 70
1, 227145, Control_c, 0, 64, 113
1, 227160, Control_c, 0, 64, 116
1, 227174, Control_c, 0, 64, 120
1, 227180, Note_off_c, 0, 41, 58
1, 227186, Note_off_c, 0, 43, 56
1, 227189, Control_c, 0, 64, 127
1, 227267, Note_on_c, 0, 43, 66
1, 227273, Note_on_c, 0, 41, 65
1, 227328, Note_off_c, 0, 41, 57
1, 227333, Note_off_c, 0, 43, 55
1, 227367, Note_on_c, 0, 68, 75
1, 227380, Note_off_c, 0, 71, 55
1, 227390, Note_off_c, 0, 67, 56
1, 227391, Note_off_c, 0, 62, 54
1, 227426, Note_off_c, 0, 68, 57
1, 227458, Note_on_c, 0, 72, 85
1, 227459, Note_on_c, 0, 67, 77
1, 227465, Note_on_c, 0, 60, 84
1, 227470, Control_c, 0, 64, 95
1, 227471, Note_on_c, 0, 43, 62
1, 227473, Note_on_c, 0, 39, 68
1, 227485, Control_c, 0, 64, 76
1, 227500, Control_c, 0, 64, 63
1, 227515, Control_c, 0, 64, 62
1, 227522, Note_off_c, 0, 39, 59
1, 227530, Control_c, 0, 64, 66
1, 227531, Note_off_c, 0, 43, 58
1, 227545, Control_c, 0, 64, 71
1, 227559, Control_c, 0, 64, 80
1, 227574, Control_c, 0, 64, 100
1, 227589, Control_c, 0, 64, 127
1, 227625, Note_on_c, 0, 43, 57
1, 227640, Note_off_c, 0, 60, 56
1, 227646, Note_on_c, 0, 39, 66
1, 227689, Note_off_c, 0, 67, 61
1, 227691, Note_off_c, 0, 39, 60
1, 227691, Note_off_c, 0, 43, 59
1, 227693, Note_off_c, 0, 72, 58
1, 227784, Note_on_c, 0, 43, 67
1, 227786, Note_on_c, 0, 39, 68
1, 227818, Note_off_c, 0, 43, 63
1, 227843, Note_off_c, 0, 39, 59
1, 227964, Note_on_c, 0, 75, 88
1, 227967, Note_on_c, 0, 65, 85
1, 227968, Control_c, 0, 64, 106
1, 227968, Note_on_c, 0, 71, 76
1, 227978, Note_on_c, 0, 43, 65
1, 227982, Note_on_c, 0, 31, 69
1, 227983, Control_c, 0, 64, 83
1, 227997, Control_c, 0, 64, 67
1, 228012, Control_c, 0, 64, 59
1, 228027, Control_c, 0, 64, 60
1, 228042, Control_c, 0, 64, 63
1, 228054, Note_off_c, 0, 43, 61
1, 228056, Control_c, 0, 64, 66
1, 228069, Note_off_c, 0, 31, 56
1, 228071, Control_c, 0, 64, 71
1, 228086, Control_c, 0, 64, 82
1, 228101, Control_c, 0, 64, 98
1, 228116, Control_c, 0, 64, 127
1, 228147, Note_on_c, 0, 31, 60
1, 228148, Note_on_c, 0, 43, 69
1, 228212, Note_off_c, 0, 43, 59
1, 228215, Note_off_c, 0, 31, 60
1, 228307, Note_on_c, 0, 31, 63
1, 228318, Note_on_c, 0, 43, 64
1, 228390, Note_off_c, 0, 43, 57
1, 228397, Note_off_c, 0, 31, 55
1, 228419, Note_off_c, 0, 65, 54
1, 228428, Note_on_c, 0, 74, 84
1, 228453, Note_off_c, 0, 75, 56
1, 228466, Note_off_c, 0, 71, 57
1, 228508, Control_c, 0, 64, 124
1, 228522, Control_c, 0, 64, 113
1, 228537, Control_c, 0, 64, 103
1, 228552, Control_c, 0, 64, 92
1, 228567, Control_c, 0, 64, 77
1, 228572, Note_on_c, 0, 43, 61
1, 228581, Note_on_c, 0, 36, 64
1, 228583, Control_c, 0, 64, 62
1, 228585, Note_on_c, 0, 72, 81
1, 228587, Note_on_c, 0, 63, 79
1, 228598, Control_c, 0, 64, 39
1, 228613, Control_c, 0, 64, 39
1, 228621, Note_off_c, 0, 74, 59
1, 228627, Control_c, 0, 64, 52
1, 228641, Note_off_c, 0, 36, 57
1, 228642, Control_c, 0, 64, 64
1, 228651, Note_off_c, 0, 43, 60
1, 228657, Control_c, 0, 64, 74
1, 228671, Control_c, 0, 64, 86
1, 228686, Control_c, 0, 64, 101
1, 228701, Control_c, 0, 64, 108
1, 228805, Control_c, 0, 64, 109
1, 228874, Poly_aftertouch_c, 0, 57, 0
1, 228900, Poly_aftertouch_c, 0, 57, 0
1, 228970, Note_on_c, 0, 55, 55
1, 228994, Note_off_c, 0, 55, 59
1, 229042, Control_c, 0, 64, 108
1, 229057, Control_c, 0, 64, 106
1, 229071, Control_c, 0, 64, 105
1, 229086, Control_c, 0, 64, 102
1, 229109, Control_c, 0, 64, 97
1, 229119, Note_on_c, 0, 55, 42
1, 229124, Control_c, 0, 64, 92
1, 229139, Control_c, 0, 64, 82
1, 229153, Control_c, 0, 64, 69
1, 229168, Control_c, 0, 64, 60
1, 229179, Note_off_c, 0, 55, 57
1, 229183, Control_c, 0, 64, 61
1, 229197, Control_c, 0, 64, 66
1, 229212, Control_c, 0, 64, 74
1, 229227, Control_c, 0, 64, 87
1, 229242, Control_c, 0, 64, 107
1, 229257, Control_c, 0, 64, 127
1, 229273, Note_on_c, 0, 55, 44
1, 229318, Note_off_c, 0, 55, 55
1, 229353, Note_off_c, 0, 63, 55
1, 229396, Note_off_c, 0, 72, 53
1, 229443, Note_on_c, 0, 55, 48
1, 229473, Note_off_c, 0, 55, 59
1, 229554, Control_c, 0, 64, 115
1, 229569, Control_c, 0, 64, 103
1, 229575, Note_on_c, 0, 55, 49
1, 229584, Control_c, 0, 64, 92
1, 229598, Control_c, 0, 64, 80
1, 229613, Control_c, 0, 64, 69
1, 229628, Control_c, 0, 64, 68
1, 229643, Control_c, 0, 64, 71
1, 229646, Note_off_c, 0, 55, 56
1, 229658, Control_c, 0, 64, 79
1, 229673, Control_c, 0, 64, 91
1, 229688, Control_c, 0, 64, 105
1, 229702, Control_c, 0, 64, 109
1, 229757, Note_on_c, 0, 55, 50
1, 229803, Note_off_c, 0, 55, 60
1, 229924, Note_on_c, 0, 55, 42
1, 229947, Control_c, 0, 64, 109
1, 229949, Note_off_c, 0, 55, 59
1, 229962, Control_c, 0, 64, 108
1, 229976, Control_c, 0, 64, 107
1, 229991, Control_c, 0, 64, 106
1, 230006, Control_c, 0, 64, 103
1, 230020, Control_c, 0, 64, 98
1, 230035, Control_c, 0, 64, 92
1, 230050, Control_c, 0, 64, 85
1, 230065, Control_c, 0, 64, 75
1, 230080, Note_on_c, 0, 55, 31
1, 230080, Control_c, 0, 64, 65
1, 230082, Note_on_c, 0, 74, 69
1, 230094, Control_c, 0, 64, 58
1, 230109, Control_c, 0, 64, 55
1, 230139, Control_c, 0, 64, 55
1, 230141, Note_off_c, 0, 55, 52
1, 230153, Control_c, 0, 64, 60
1, 230170, Control_c, 0, 64, 66
1, 230185, Control_c, 0, 64, 71
1, 230199, Control_c, 0, 64, 77
1, 230214, Control_c, 0, 64, 86
1, 230229, Control_c, 0, 64, 95
1, 230243, Control_c, 0, 64, 98
1, 230273, Control_c, 0, 64, 99
1, 230288, Control_c, 0, 64, 101
1, 230289, Note_on_c, 0, 55, 33
1, 230303, Control_c, 0, 64, 101
1, 230317, Control_c, 0, 64, 102
1, 230327, Note_off_c, 0, 55, 48
1, 230347, Control_c, 0, 64, 102
1, 230437, Note_on_c, 0, 55, 37
1, 230555, Note_on_c, 0, 75, 57
1, 230567, Note_off_c, 0, 74, 51
1, 230651, Control_c, 0, 64, 102
1, 230666, Control_c, 0, 64, 100
1, 230680, Control_c, 0, 64, 98
1, 230695, Control_c, 0, 64, 95
1, 230710, Control_c, 0, 64, 90
1, 230725, Control_c, 0, 64, 83
1, 230731, Note_on_c, 0, 77, 55
1, 230740, Control_c, 0, 64, 75
1, 230751, Note_off_c, 0, 55, 34
1, 230755, Control_c, 0, 64, 67
1, 230761, Note_off_c, 0, 75, 37
1, 230769, Control_c, 0, 64, 60
1, 230773, Note_on_c, 0, 56, 36
1, 230784, Control_c, 0, 64, 53
1, 230799, Control_c, 0, 64, 51
1, 230814, Control_c, 0, 64, 50
1, 230829, Control_c, 0, 64, 51
1, 230839, Note_off_c, 0, 56, 40
1, 230843, Control_c, 0, 64, 55
1, 230858, Control_c, 0, 64, 63
1, 230873, Control_c, 0, 64, 69
1, 230888, Control_c, 0, 64, 74
1, 230903, Control_c, 0, 64, 82
1, 230917, Control_c, 0, 64, 90
1, 230932, Control_c, 0, 64, 94
1, 230947, Control_c, 0, 64, 96
1, 230962, Control_c, 0, 64, 97
1, 230977, Note_off_c, 0, 77, 52
1, 230978, Control_c, 0, 64, 100
1, 230980, Note_on_c, 0, 56, 43
1, 230993, Control_c, 0, 64, 102
1, 231008, Control_c, 0, 64, 104
1, 231017, Note_off_c, 0, 56, 49
1, 231022, Control_c, 0, 64, 104
1, 231133, Note_on_c, 0, 56, 47
1, 231170, Control_c, 0, 64, 104
1, 231185, Control_c, 0, 64, 103
1, 231194, Note_off_c, 0, 56, 40
1, 231199, Control_c, 0, 64, 103
1, 231214, Control_c, 0, 64, 102
1, 231229, Control_c, 0, 64, 100
1, 231244, Control_c, 0, 64, 98
1, 231259, Control_c, 0, 64, 94
1, 231274, Control_c, 0, 64, 89
1, 231289, Control_c, 0, 64, 82
1, 231293, Note_on_c, 0, 77, 69
1, 231303, Note_on_c, 0, 65, 53
1, 231303, Control_c, 0, 64, 73
1, 231318, Control_c, 0, 64, 65
1, 231340, Control_c, 0, 64, 62
1, 231355, Control_c, 0, 64, 63
1, 231370, Control_c, 0, 64, 65
1, 231385, Control_c, 0, 64, 69
1, 231399, Control_c, 0, 64, 74
1, 231414, Control_c, 0, 64, 83
1, 231429, Control_c, 0, 64, 92
1, 231444, Control_c, 0, 64, 99
1, 231459, Control_c, 0, 64, 100
1, 231498, Note_off_c, 0, 65, 54
1, 231500, Note_on_c, 0, 57, 41
1, 231524, Note_off_c, 0, 77, 49
1, 231530, Note_off_c, 0, 57, 54
1, 231533, Control_c, 0, 64, 100
1, 231633, Note_on_c, 0, 57, 40
1, 231712, Note_off_c, 0, 57, 37
1, 231725, Control_c, 0, 64, 100
1, 231740, Control_c, 0, 64, 99
1, 231755, Control_c, 0, 64, 97
1, 231771, Control_c, 0, 64, 93
1, 231786, Control_c, 0, 64, 87
1, 231792, Note_on_c, 0, 77, 64
1, 231801, Control_c, 0, 64, 78
1, 231807, Note_on_c, 0, 68, 56
1, 231815, Control_c, 0, 64, 68
1, 231830, Control_c, 0, 64, 61
1, 231836, Note_on_c, 0, 58, 33
1, 231845, Control_c, 0, 64, 57
1, 231860, Control_c, 0, 64, 58
1, 231875, Control_c, 0, 64, 61
1, 231876, Note_off_c, 0, 58, 51
1, 231889, Control_c, 0, 64, 66
1, 231904, Control_c, 0, 64, 72
1, 231919, Control_c, 0, 64, 80
1, 231934, Control_c, 0, 64, 90
1, 231949, Control_c, 0, 64, 97
1, 231963, Control_c, 0, 64, 98
1, 231978, Note_on_c, 0, 58, 47
1, 232027, Note_off_c, 0, 58, 43
1, 232157, Note_on_c, 0, 58, 43
1, 232193, Control_c, 0, 64, 98
1, 232208, Note_off_c, 0, 58, 43
1, 232222, Control_c, 0, 64, 97
1, 232237, Control_c, 0, 64, 95
1, 232252, Control_c, 0, 64, 93
1, 232267, Control_c, 0, 64, 89
1, 232282, Control_c, 0, 64, 83
1, 232296, Control_c, 0, 64, 75
1, 232306, Note_on_c, 0, 75, 69
1, 232307, Note_off_c, 0, 77, 55
1, 232311, Control_c, 0, 64, 66
1, 232324, Note_on_c, 0, 58, 37
1, 232326, Control_c, 0, 64, 61
1, 232356, Control_c, 0, 64, 63
1, 232371, Control_c, 0, 64, 67
1, 232371, Note_off_c, 0, 58, 52
1, 232386, Control_c, 0, 64, 72
1, 232400, Control_c, 0, 64, 79
1, 232415, Control_c, 0, 64, 88
1, 232418, Note_off_c, 0, 68, 36
1, 232430, Control_c, 0, 64, 95
1, 232445, Control_c, 0, 64, 97
1, 232490, Note_on_c, 0, 58, 49
1, 232519, Control_c, 0, 64, 98
1, 232535, Note_off_c, 0, 58, 47
1, 232656, Note_on_c, 0, 58, 49
1, 232698, Note_off_c, 0, 58, 45
1, 232724, Note_on_c, 0, 74, 61
1, 232742, Control_c, 0, 64, 97
1, 232757, Control_c, 0, 64, 96
1, 232771, Control_c, 0, 64, 94
1, 232776, Note_off_c, 0, 75, 0
1, 232786, Control_c, 0, 64, 90
1, 232801, Control_c, 0, 64, 86
1, 232816, Control_c, 0, 64, 78
1, 232831, Control_c, 0, 64, 69
1, 232851, Note_on_c, 0, 79, 73
1, 232853, Control_c, 0, 64, 61
1, 232862, Note_on_c, 0, 58, 35
1, 232868, Control_c, 0, 64, 55
1, 232870, Poly_aftertouch_c, 0, 75, 0
1, 232895, Note_off_c, 0, 74, 55
1, 232898, Control_c, 0, 64, 59
1, 232913, Note_off_c, 0, 58, 58
1, 232913, Control_c, 0, 64, 64
1, 232927, Control_c, 0, 64, 68
1, 232942, Control_c, 0, 64, 73
1, 232957, Control_c, 0, 64, 81
1, 232971, Control_c, 0, 64, 90
1, 232986, Control_c, 0, 64, 97
1, 233001, Control_c, 0, 64, 98
1, 233016, Control_c, 0, 64, 99
1, 233031, Control_c, 0, 64, 102
1, 233035, Note_on_c, 0, 58, 45
1, 233045, Control_c, 0, 64, 106
1, 233060, Control_c, 0, 64, 111
1, 233063, Note_off_c, 0, 58, 54
1, 233075, Control_c, 0, 64, 116
1, 233090, Control_c, 0, 64, 121
1, 233105, Control_c, 0, 64, 124
1, 233119, Control_c, 0, 64, 127
1, 233166, Note_on_c, 0, 58, 43
1, 233238, Control_c, 0, 64, 122
1, 233253, Control_c, 0, 64, 116
1, 233268, Control_c, 0, 64, 110
1, 233283, Control_c, 0, 64, 101
1, 233298, Control_c, 0, 64, 89
1, 233313, Control_c, 0, 64, 77
1, 233326, Note_off_c, 0, 58, 41
1, 233328, Control_c, 0, 64, 69
1, 233335, Note_off_c, 0, 79, 36
1, 233340, Note_on_c, 0, 67, 66
1, 233342, Control_c, 0, 64, 67
1, 233352, Note_on_c, 0, 59, 41
1, 233357, Control_c, 0, 64, 68
1, 233373, Control_c, 0, 64, 71
1, 233387, Control_c, 0, 64, 76
1, 233393, Note_off_c, 0, 59, 52
1, 233402, Control_c, 0, 64, 82
1, 233417, Control_c, 0, 64, 88
1, 233432, Control_c, 0, 64, 91
1, 233447, Control_c, 0, 64, 92
1, 233462, Control_c, 0, 64, 93
1, 233477, Control_c, 0, 64, 95
1, 233491, Control_c, 0, 64, 97
1, 233505, Note_on_c, 0, 59, 54
1, 233506, Control_c, 0, 64, 99
1, 233521, Control_c, 0, 64, 101
1, 233536, Control_c, 0, 64, 103
1, 233551, Control_c, 0, 64, 105
1, 233554, Note_off_c, 0, 59, 54
1, 233559, Note_on_c, 0, 77, 72
1, 233566, Control_c, 0, 64, 108
1, 233581, Control_c, 0, 64, 112
1, 233581, Note_off_c, 0, 67, 31
1, 233602, Control_c, 0, 64, 119
1, 233617, Control_c, 0, 64, 127
1, 233709, Note_on_c, 0, 59, 50
1, 233772, Note_on_c, 0, 68, 65
1, 233898, Control_c, 0, 64, 116
1, 233912, Control_c, 0, 64, 109
1, 233927, Control_c, 0, 64, 105
1, 233942, Control_c, 0, 64, 103
1, 233957, Control_c, 0, 64, 99
1, 233961, Note_on_c, 0, 60, 45
1, 233968, Note_on_c, 0, 75, 69
1, 233969, Note_on_c, 0, 67, 62
1, 233972, Control_c, 0, 64, 95
1, 233979, Note_off_c, 0, 77, 40
1, 233982, Note_off_c, 0, 59, 27
1, 233986, Control_c, 0, 64, 85
1, 234001, Control_c, 0, 64, 70
1, 234013, Note_off_c, 0, 68, 36
1, 234016, Control_c, 0, 64, 47
1, 234031, Control_c, 0, 64, 0
1, 234106, Control_c, 0, 64, 60
1, 234120, Control_c, 0, 64, 71
1, 234135, Control_c, 0, 64, 81
1, 234150, Control_c, 0, 64, 96
1, 234150, Note_on_c, 0, 55, 50
1, 234164, Note_off_c, 0, 60, 35
1, 234165, Control_c, 0, 64, 105
1, 234177, Note_off_c, 0, 75, 59
1, 234180, Control_c, 0, 64, 109
1, 234201, Note_off_c, 0, 55, 53
1, 234240, Control_c, 0, 64, 110
1, 234255, Control_c, 0, 64, 111
1, 234339, Note_on_c, 0, 55, 39
1, 234365, Note_off_c, 0, 55, 56
1, 234424, Control_c, 0, 64, 110
1, 234439, Control_c, 0, 64, 108
1, 234454, Control_c, 0, 64, 104
1, 234469, Control_c, 0, 64, 98
1, 234478, Note_on_c, 0, 55, 37
1, 234484, Control_c, 0, 64, 89
1, 234490, Note_on_c, 0, 74, 69
1, 234499, Control_c, 0, 64, 79
1, 234514, Note_off_c, 0, 67, 46
1, 234514, Control_c, 0, 64, 69
1, 234529, Control_c, 0, 64, 64
1, 234553, Note_off_c, 0, 55, 40
1, 234558, Control_c, 0, 64, 67
1, 234573, Control_c, 0, 64, 71
1, 234588, Control_c, 0, 64, 81
1, 234603, Control_c, 0, 64, 95
1, 234617, Control_c, 0, 64, 111
1, 234632, Control_c, 0, 64, 119
1, 234671, Note_on_c, 0, 55, 46
1, 234711, Note_off_c, 0, 55, 52
1, 234830, Note_on_c, 0, 55, 46
1, 234878, Note_off_c, 0, 55, 55
1, 234902, Note_on_c, 0, 72, 62
1, 234913, Control_c, 0, 64, 118
1, 234928, Control_c, 0, 64, 116
1, 234943, Control_c, 0, 64, 111
1, 234958, Control_c, 0, 64, 105
1, 234973, Control_c, 0, 64, 97
1, 234988, Control_c, 0, 64, 85
1, 234992, Note_off_c, 0, 74, 39
1, 234994, Note_on_c, 0, 71, 68
1, 235003, Control_c, 0, 64, 71
1, 235012, Note_off_c, 0, 72, 49
1, 235018, Control_c, 0, 64, 60
1, 235024, Note_on_c, 0, 55, 34
1, 235033, Control_c, 0, 64, 55
1, 235048, Control_c, 0, 64, 57
1, 235062, Control_c, 0, 64, 62
1, 235085, Control_c, 0, 64, 66
1, 235095, Note_off_c, 0, 55, 51
1, 235100, Control_c, 0, 64, 72
1, 235114, Control_c, 0, 64, 80
1, 235129, Control_c, 0, 64, 91
1, 235144, Control_c, 0, 64, 101
1, 235158, Control_c, 0, 64, 102
1, 235233, Control_c, 0, 64, 103
1, 235234, Note_on_c, 0, 55, 19
1, 235235, Note_off_c, 0, 71, 54
1, 235282, Note_off_c, 0, 55, 50
1, 235358, Note_on_c, 0, 55, 33
1, 235387, Note_off_c, 0, 55, 54
1, 235426, Control_c, 0, 64, 102
1, 235440, Control_c, 0, 64, 101
1, 235455, Control_c, 0, 64, 99
1, 235470, Control_c, 0, 64, 98
1, 235485, Control_c, 0, 64, 95
1, 235500, Control_c, 0, 64, 92
1, 235508, Note_on_c, 0, 55, 36
1, 235514, Control_c, 0, 64, 86
1, 235529, Note_on_c, 0, 71, 63
1, 235529, Control_c, 0, 64, 78
1, 235537, Note_on_c, 0, 68, 54
1, 235544, Control_c, 0, 64, 70
1, 235558, Control_c, 0, 64, 70
1, 235573, Control_c, 0, 64, 73
1, 235588, Note_off_c, 0, 55, 50
1, 235588, Control_c, 0, 64, 78
1, 235603, Control_c, 0, 64, 85
1, 235618, Control_c, 0, 64, 91
1, 235632, Control_c, 0, 64, 94
1, 235647, Control_c, 0, 64, 95
1, 235677, Control_c, 0, 64, 95
1, 235721, Control_c, 0, 64, 96
1, 235723, Note_on_c, 0, 55, 42
1, 235736, Control_c, 0, 64, 96
1, 235751, Control_c, 0, 64, 97
1, 235769, Note_off_c, 0, 55, 46
1, 235772, Note_off_c, 0, 71, 59
1, 235784, Note_on_c, 0, 67, 71
1, 235790, Note_off_c, 0, 68, 53
1, 235908, Note_on_c, 0, 55, 42
1, 235955, Note_off_c, 0, 55, 57
1, 235996, Control_c, 0, 64, 97
1, 236011, Control_c, 0, 64, 96
1, 236026, Control_c, 0, 64, 94
1, 236041, Control_c, 0, 64, 90
1, 236051, Note_on_c, 0, 65, 70
1, 236054, Note_on_c, 0, 72, 72
1, 236056, Control_c, 0, 64, 82
1, 236070, Control_c, 0, 64, 74
1, 236079, Note_on_c, 0, 55, 42
1, 236085, Note_off_c, 0, 67, 34
1, 236085, Control_c, 0, 64, 71
1, 236100, Control_c, 0, 64, 72
1, 236115, Control_c, 0, 64, 74
1, 236130, Control_c, 0, 64, 78
1, 236133, Note_off_c, 0, 55, 56
1, 236145, Control_c, 0, 64, 84
1, 236160, Control_c, 0, 64, 90
1, 236175, Control_c, 0, 64, 92
1, 236189, Control_c, 0, 64, 93
1, 236204, Control_c, 0, 64, 94
1, 236219, Control_c, 0, 64, 95
1, 236234, Control_c, 0, 64, 97
1, 236249, Control_c, 0, 64, 98
1, 236260, Note_on_c, 0, 55, 37
1, 236264, Control_c, 0, 64, 101
1, 236279, Control_c, 0, 64, 103
1, 236294, Control_c, 0, 64, 103
1, 236300, Note_off_c, 0, 55, 48
1, 236305, Note_on_c, 0, 63, 78
1, 236308, Control_c, 0, 64, 105
1, 236323, Control_c, 0, 64, 107
1, 236338, Control_c, 0, 64, 110
1, 236353, Note_off_c, 0, 65, 56
1, 236353, Control_c, 0, 64, 115
1, 236368, Control_c, 0, 64, 122
1, 236382, Control_c, 0, 64, 127
1, 236401, Note_off_c, 0, 63, 59
1, 236419, Note_off_c, 0, 72, 59
1, 236419, Note_on_c, 0, 55, 51
1, 236469, Note_off_c, 0, 55, 60
1, 236501, Control_c, 0, 64, 122
1, 236515, Control_c, 0, 64, 115
1, 236530, Control_c, 0, 64, 108
1, 236545, Control_c, 0, 64, 100
1, 236561, Control_c, 0, 64, 87
1, 236574, Note_on_c, 0, 77, 79
1, 236576, Control_c, 0, 64, 76
1, 236594, Note_on_c, 0, 55, 52
1, 236596, Note_on_c, 0, 62, 59
1, 236598, Control_c, 0, 64, 68
1, 236612, Control_c, 0, 64, 67
1, 236627, Control_c, 0, 64, 68
1, 236638, Note_off_c, 0, 55, 62
1, 236642, Control_c, 0, 64, 71
1, 236657, Control_c, 0, 64, 76
1, 236672, Control_c, 0, 64, 86
1, 236687, Control_c, 0, 64, 94
1, 236702, Control_c, 0, 64, 99
1, 236717, Control_c, 0, 64, 100
1, 236732, Control_c, 0, 64, 101
1, 236746, Control_c, 0, 64, 102
1, 236759, Note_on_c, 0, 55, 55
1, 236761, Control_c, 0, 64, 105
1, 236776, Control_c, 0, 64, 107
1, 236791, Control_c, 0, 64, 109
1, 236806, Control_c, 0, 64, 110
1, 236835, Note_off_c, 0, 62, 33
1, 236835, Control_c, 0, 64, 110
1, 236850, Control_c, 0, 64, 112
1, 236865, Control_c, 0, 64, 113
1, 236878, Control_c, 0, 64, 116
1, 236886, Note_off_c, 0, 55, 44
1, 236888, Note_on_c, 0, 60, 58
1, 236893, Control_c, 0, 64, 119
1, 236908, Control_c, 0, 64, 127
1, 236990, Note_on_c, 0, 55, 37
1, 237000, Note_on_c, 0, 75, 75
1, 237009, Note_off_c, 0, 77, 55
1, 237018, Note_off_c, 0, 60, 35
1, 237024, Note_off_c, 0, 55, 51
1, 237057, Note_off_c, 0, 75, 60
1, 237129, Control_c, 0, 64, 113
1, 237144, Control_c, 0, 64, 101
1, 237159, Control_c, 0, 64, 86
1, 237173, Note_on_c, 0, 68, 64
1, 237174, Control_c, 0, 64, 68
1, 237188, Note_on_c, 0, 74, 71
1, 237189, Control_c, 0, 64, 56
1, 237190, Note_on_c, 0, 55, 36
1, 237203, Control_c, 0, 64, 51
1, 237218, Control_c, 0, 64, 52
1, 237229, Note_on_c, 0, 67, 64
1, 237233, Note_off_c, 0, 55, 59
1, 237233, Control_c, 0, 64, 57
1, 237248, Control_c, 0, 64, 63
1, 237257, Note_off_c, 0, 68, 53
1, 237263, Control_c, 0, 64, 67
1, 237277, Control_c, 0, 64, 73
1, 237292, Control_c, 0, 64, 80
1, 237307, Control_c, 0, 64, 87
1, 237322, Control_c, 0, 64, 91
1, 237376, Note_on_c, 0, 55, 46
1, 237390, Control_c, 0, 64, 91
1, 237405, Control_c, 0, 64, 92
1, 237420, Control_c, 0, 64, 92
1, 237423, Note_off_c, 0, 55, 60
1, 237434, Control_c, 0, 64, 93
1, 237537, Note_on_c, 0, 55, 56
1, 237569, Note_off_c, 0, 55, 63
1, 237656, Control_c, 0, 64, 93
1, 237671, Control_c, 0, 64, 94
1, 237677, Note_on_c, 0, 55, 59
1, 237686, Control_c, 0, 64, 94
1, 237701, Control_c, 0, 64, 95
1, 237715, Control_c, 0, 64, 96
1, 237726, Note_off_c, 0, 55, 59
1, 237730, Control_c, 0, 64, 97
1, 237745, Control_c, 0, 64, 98
1, 237760, Control_c, 0, 64, 99
1, 237775, Control_c, 0, 64, 99
1, 237790, Control_c, 0, 64, 100
1, 237805, Control_c, 0, 64, 101
1, 237820, Control_c, 0, 64, 102
1, 237834, Control_c, 0, 64, 103
1, 237849, Control_c, 0, 64, 105
1, 237853, Note_on_c, 0, 55, 54
1, 237864, Control_c, 0, 64, 105
1, 237878, Control_c, 0, 64, 106
1, 237888, Note_off_c, 0, 55, 62
1, 237893, Control_c, 0, 64, 107
1, 237908, Control_c, 0, 64, 107
1, 237994, Note_on_c, 0, 55, 59
1, 238038, Note_off_c, 0, 55, 52
1, 238123, Control_c, 0, 64, 107
1, 238138, Control_c, 0, 64, 105
1, 238153, Control_c, 0, 64, 101
1, 238169, Control_c, 0, 64, 95
1, 238174, Note_on_c, 0, 55, 63
1, 238183, Control_c, 0, 64, 84
1, 238198, Control_c, 0, 64, 70
1, 238213, Control_c, 0, 64, 64
1, 238228, Control_c, 0, 64, 65
1, 238243, Control_c, 0, 64, 67
1, 238257, Control_c, 0, 64, 72
1, 238272, Control_c, 0, 64, 79
1, 238287, Control_c, 0, 64, 92
1, 238302, Control_c, 0, 64, 105
1, 238309, Note_off_c, 0, 67, 57
1, 238316, Control_c, 0, 64, 108
1, 238331, Control_c, 0, 64, 108
1, 238332, Note_on_c, 0, 56, 67
1, 238356, Note_off_c, 0, 74, 54
1, 238376, Control_c, 0, 64, 109
1, 238380, Note_off_c, 0, 55, 36
1, 238487, Note_on_c, 0, 57, 68
1, 238488, Note_off_c, 0, 56, 51
1, 238568, Control_c, 0, 64, 108
1, 238583, Control_c, 0, 64, 107
1, 238598, Control_c, 0, 64, 105
1, 238613, Control_c, 0, 64, 101
1, 238628, Control_c, 0, 64, 92
1, 238642, Control_c, 0, 64, 82
1, 238654, Note_on_c, 0, 74, 80
1, 238654, Note_off_c, 0, 57, 53
1, 238657, Control_c, 0, 64, 71
1, 238659, Note_on_c, 0, 58, 56
1, 238672, Control_c, 0, 64, 68
1, 238687, Control_c, 0, 64, 69
1, 238701, Control_c, 0, 64, 74
1, 238716, Control_c, 0, 64, 81
1, 238728, Note_off_c, 0, 58, 51
1, 238731, Control_c, 0, 64, 93
1, 238746, Control_c, 0, 64, 105
1, 238761, Control_c, 0, 64, 110
1, 238790, Control_c, 0, 64, 111
1, 238805, Control_c, 0, 64, 113
1, 238820, Control_c, 0, 64, 115
1, 238833, Note_on_c, 0, 58, 55
1, 238842, Control_c, 0, 64, 117
1, 238857, Control_c, 0, 64, 118
1, 238872, Control_c, 0, 64, 118
1, 238873, Note_off_c, 0, 58, 53
1, 238931, Control_c, 0, 64, 119
1, 238970, Note_on_c, 0, 58, 63
1, 239040, Note_off_c, 0, 58, 50
1, 239047, Note_on_c, 0, 75, 70
1, 239052, Note_off_c, 0, 74, 54
1, 239095, Control_c, 0, 64, 120
1, 239099, Note_off_c, 0, 75, 57
1, 239110, Control_c, 0, 64, 124
1, 239139, Control_c, 0, 64, 108
1, 239154, Control_c, 0, 64, 83
1, 239158, Note_on_c, 0, 77, 77
1, 239161, Note_on_c, 0, 65, 70
1, 239166, Note_on_c, 0, 74, 72
1, 239169, Control_c, 0, 64, 60
1, 239170, Note_on_c, 0, 58, 58
1, 239184, Control_c, 0, 64, 0
1, 239228, Control_c, 0, 64, 27
1, 239242, Note_off_c, 0, 58, 48
1, 239243, Control_c, 0, 64, 62
1, 239258, Control_c, 0, 64, 73
1, 239273, Control_c, 0, 64, 85
1, 239287, Control_c, 0, 64, 107
1, 239302, Control_c, 0, 64, 127
1, 239342, Note_on_c, 0, 58, 55
1, 239385, Note_off_c, 0, 58, 60
1, 239455, Note_off_c, 0, 65, 54
1, 239462, Note_off_c, 0, 77, 43
1, 239464, Note_off_c, 0, 74, 59
1, 239485, Note_on_c, 0, 58, 66
1, 239540, Note_off_c, 0, 58, 50
1, 239635, Control_c, 0, 64, 106
1, 239650, Control_c, 0, 64, 84
1, 239662, Note_on_c, 0, 74, 81
1, 239665, Note_on_c, 0, 77, 80
1, 239665, Control_c, 0, 64, 65
1, 239665, Note_on_c, 0, 65, 76
1, 239673, Note_on_c, 0, 57, 61
1, 239680, Control_c, 0, 64, 52
1, 239685, Note_on_c, 0, 58, 52
1, 239695, Control_c, 0, 64, 51
1, 239710, Control_c, 0, 64, 57
1, 239725, Control_c, 0, 64, 65
1, 239728, Note_off_c, 0, 58, 57
1, 239737, Note_off_c, 0, 57, 59
1, 239739, Control_c, 0, 64, 73
1, 239754, Control_c, 0, 64, 85
1, 239769, Control_c, 0, 64, 101
1, 239784, Control_c, 0, 64, 114
1, 239799, Control_c, 0, 64, 116
1, 239814, Control_c, 0, 64, 117
1, 239827, Note_on_c, 0, 57, 61
1, 239829, Control_c, 0, 64, 122
1, 239832, Note_on_c, 0, 58, 64
1, 239844, Control_c, 0, 64, 127
1, 239881, Note_off_c, 0, 57, 58
1, 239883, Note_off_c, 0, 58, 52
1, 239957, Note_off_c, 0, 65, 49
1, 239957, Note_off_c, 0, 74, 51
1, 239986, Note_off_c, 0, 77, 36
1, 239989, Note_on_c, 0, 57, 65
1, 239993, Note_on_c, 0, 58, 61
1, 240043, Note_off_c, 0, 58, 54
1, 240043, Note_off_c, 0, 57, 58
1, 240141, Control_c, 0, 64, 103
1, 240154, Note_on_c, 0, 65, 78
1, 240154, Note_on_c, 0, 74, 83
1, 240156, Note_on_c, 0, 77, 81
1, 240156, Control_c, 0, 64, 81
1, 240157, Note_on_c, 0, 58, 67
1, 240166, Note_on_c, 0, 56, 66
1, 240171, Control_c, 0, 64, 65
1, 240186, Control_c, 0, 64, 56
1, 240216, Control_c, 0, 64, 61
1, 240230, Control_c, 0, 64, 67
1, 240233, Note_off_c, 0, 56, 61
1, 240238, Note_off_c, 0, 58, 53
1, 240245, Control_c, 0, 64, 77
1, 240260, Control_c, 0, 64, 90
1, 240274, Control_c, 0, 64, 106
1, 240289, Control_c, 0, 64, 118
1, 240335, Note_on_c, 0, 58, 63
1, 240337, Note_on_c, 0, 56, 72
1, 240356, Control_c, 0, 64, 119
1, 240371, Control_c, 0, 64, 121
1, 240386, Control_c, 0, 64, 127
1, 240391, Note_off_c, 0, 58, 48
1, 240406, Note_off_c, 0, 65, 57
1, 240410, Note_off_c, 0, 56, 52
1, 240425, Note_off_c, 0, 74, 60
1, 240458, Note_off_c, 0, 77, 35
1, 240474, Note_on_c, 0, 56, 54
1, 240476, Note_on_c, 0, 58, 66
1, 240523, Note_off_c, 0, 56, 58
1, 240532, Note_off_c, 0, 58, 48
1, 240594, Control_c, 0, 64, 113
1, 240609, Control_c, 0, 64, 96
1, 240623, Control_c, 0, 64, 81
1, 240633, Note_on_c, 0, 75, 78
1, 240634, Note_on_c, 0, 67, 79
1, 240636, Note_on_c, 0, 79, 80
1, 240638, Note_on_c, 0, 55, 71
1, 240638, Control_c, 0, 64, 67
1, 240643, Note_on_c, 0, 58, 67
1, 240652, Control_c, 0, 64, 61
1, 240667, Control_c, 0, 64, 62
1, 240682, Control_c, 0, 64, 65
1, 240690, Note_off_c, 0, 58, 51
1, 240697, Control_c, 0, 64, 70
1, 240705, Note_off_c, 0, 55, 59
1, 240711, Control_c, 0, 64, 79
1, 240726, Control_c, 0, 64, 94
1, 240741, Control_c, 0, 64, 120
1, 240756, Control_c, 0, 64, 127
1, 240794, Note_on_c, 0, 55, 71
1, 240795, Note_on_c, 0, 58, 74
1, 240797, Note_off_c, 0, 67, 60
1, 240817, Note_off_c, 0, 79, 56
1, 240826, Note_off_c, 0, 75, 62
1, 240860, Note_off_c, 0, 58, 56
1, 240876, Note_off_c, 0, 55, 57
1, 240936, Note_on_c, 0, 53, 76
1, 240941, Note_on_c, 0, 58, 71
1, 241019, Note_off_c, 0, 58, 52
1, 241029, Note_on_c, 0, 68, 83
1, 241030, Note_on_c, 0, 77, 78
1, 241033, Note_on_c, 0, 80, 80
1, 241051, Note_off_c, 0, 68, 65
1, 241061, Note_off_c, 0, 77, 58
1, 241092, Note_off_c, 0, 80, 60
1, 241120, Note_off_c, 0, 53, 36
1, 241158, Note_on_c, 0, 82, 90
1, 241161, Note_on_c, 0, 58, 65
1, 241164, Control_c, 0, 64, 96
1, 241166, Note_on_c, 0, 55, 68
1, 241167, Note_on_c, 0, 51, 65
1, 241170, Note_on_c, 0, 70, 85
1, 241171, Note_on_c, 0, 79, 78
1, 241178, Control_c, 0, 64, 75
1, 241193, Control_c, 0, 64, 59
1, 241208, Control_c, 0, 64, 51
1, 241220, Note_off_c, 0, 55, 53
1, 241220, Note_off_c, 0, 58, 53
1, 241223, Control_c, 0, 64, 55
1, 241235, Note_off_c, 0, 51, 57
1, 241237, Control_c, 0, 64, 62
1, 241252, Control_c, 0, 64, 67
1, 241267, Control_c, 0, 64, 78
1, 241282, Control_c, 0, 64, 95
1, 241297, Control_c, 0, 64, 127
1, 241333, Note_on_c, 0, 55, 68
1, 241337, Note_on_c, 0, 58, 63
1, 241352, Note_on_c, 0, 51, 61
1, 241373, Note_off_c, 0, 58, 60
1, 241391, Note_off_c, 0, 55, 57
1, 241394, Note_off_c, 0, 51, 52
1, 241446, Note_off_c, 0, 70, 54
1, 241478, Note_on_c, 0, 58, 68
1, 241486, Note_on_c, 0, 55, 64
1, 241509, Note_on_c, 0, 51, 50
1, 241516, Note_off_c, 0, 58, 59
1, 241519, Note_off_c, 0, 55, 60
1, 241537, Note_off_c, 0, 82, 44
1, 241544, Note_off_c, 0, 51, 59
1, 241589, Note_off_c, 0, 79, 33
1, 241651, Note_on_c, 0, 47, 69
1, 241651, Note_on_c, 0, 80, 86
1, 241653, Note_on_c, 0, 74, 85
1, 241653, Note_on_c, 0, 77, 87
1, 241653, Control_c, 0, 64, 88
1, 241653, Note_on_c, 0, 53, 64
1, 241666, Note_on_c, 0, 56, 58
1, 241668, Control_c, 0, 64, 66
1, 241683, Control_c, 0, 64, 57
1, 241698, Control_c, 0, 64, 59
1, 241713, Control_c, 0, 64, 65
1, 241725, Note_off_c, 0, 56, 58
1, 241727, Control_c, 0, 64, 72
1, 241742, Control_c, 0, 64, 84
1, 241747, Note_off_c, 0, 47, 61
1, 241757, Control_c, 0, 64, 108
1, 241772, Control_c, 0, 64, 127
1, 241796, Note_off_c, 0, 53, 0
1, 241810, Note_on_c, 0, 53, 56
1, 241846, Note_on_c, 0, 47, 62
1, 241847, Note_on_c, 0, 56, 68
1, 241904, Note_off_c, 0, 56, 50
1, 241923, Note_off_c, 0, 47, 50
1, 241955, Note_off_c, 0, 74, 52
1, 241967, Note_off_c, 0, 53, 0
1, 241981, Note_on_c, 0, 47, 55
1, 241983, Note_on_c, 0, 53, 50
1, 241994, Note_on_c, 0, 56, 64
1, 242050, Note_off_c, 0, 47, 57
1, 242068, Note_off_c, 0, 56, 51
1, 242121, Note_off_c, 0, 53, 35
1, 242134, Control_c, 0, 64, 93
1, 242150, Control_c, 0, 64, 65
1, 242152, Note_on_c, 0, 55, 74
1, 242154, Note_on_c, 0, 79, 86
1, 242155, Note_on_c, 0, 48, 69
1, 242163, Note_on_c, 0, 75, 86
1, 242164, Note_on_c, 0, 51, 66
1, 242165, Control_c, 0, 64, 37
1, 242178, Note_off_c, 0, 77, 57
1, 242195, Control_c, 0, 64, 20
1, 242199, Note_off_c, 0, 80, 56
1, 242210, Control_c, 0, 64, 52
1, 242224, Control_c, 0, 64, 71
1, 242234, Note_off_c, 0, 48, 61
1, 242239, Note_off_c, 0, 55, 56
1, 242239, Control_c, 0, 64, 88
1, 242254, Control_c, 0, 64, 127
1, 242256, Note_off_c, 0, 51, 49
1, 242310, Note_off_c, 0, 75, 53
1, 242312, Note_off_c, 0, 79, 62
1, 242315, Note_on_c, 0, 51, 47
1, 242318, Note_on_c, 0, 55, 68
1, 242324, Note_on_c, 0, 48, 65
1, 242369, Note_off_c, 0, 48, 57
1, 242377, Note_off_c, 0, 55, 57
1, 242446, Note_off_c, 0, 51, 0
1, 242460, Note_on_c, 0, 55, 64
1, 242461, Note_on_c, 0, 51, 36
1, 242468, Note_on_c, 0, 48, 54
1, 242517, Note_off_c, 0, 55, 59
1, 242535, Note_off_c, 0, 48, 59
1, 242544, Note_off_c, 0, 51, 57
1, 242631, Control_c, 0, 64, 106
1, 242637, Note_on_c, 0, 77, 88
1, 242640, Note_on_c, 0, 65, 91
1, 242646, Control_c, 0, 64, 75
1, 242649, Note_on_c, 0, 53, 72
1, 242649, Note_on_c, 0, 44, 73
1, 242661, Control_c, 0, 64, 62
1, 242691, Control_c, 0, 64, 67
1, 242705, Control_c, 0, 64, 75
1, 242720, Control_c, 0, 64, 93
1, 242723, Note_off_c, 0, 44, 58
1, 242724, Note_off_c, 0, 53, 52
1, 242735, Control_c, 0, 64, 127
1, 242813, Note_on_c, 0, 53, 76
1, 242813, Note_on_c, 0, 46, 77
1, 242875, Note_off_c, 0, 53, 56
1, 242898, Note_off_c, 0, 77, 43
1, 242909, Note_off_c, 0, 46, 55
1, 242950, Note_on_c, 0, 44, 78
1, 242955, Note_on_c, 0, 53, 72
1, 243026, Note_off_c, 0, 53, 55
1, 243030, Note_on_c, 0, 74, 78
1, 243032, Note_off_c, 0, 44, 57
1, 243054, Note_off_c, 0, 65, 62
1, 243055, Note_off_c, 0, 74, 63
1, 243107, Control_c, 0, 64, 109
1, 243122, Control_c, 0, 64, 76
1, 243128, Note_on_c, 0, 43, 75
1, 243132, Note_on_c, 0, 53, 78
1, 243134, Note_on_c, 0, 67, 86
1, 243134, Note_on_c, 0, 71, 86
1, 243137, Control_c, 0, 64, 59
1, 243139, Note_on_c, 0, 62, 83
1, 243152, Control_c, 0, 64, 54
1, 243167, Control_c, 0, 64, 58
1, 243181, Control_c, 0, 64, 65
1, 243196, Control_c, 0, 64, 73
1, 243210, Note_off_c, 0, 53, 53
1, 243211, Control_c, 0, 64, 86
1, 243225, Note_off_c, 0, 43, 55
1, 243225, Control_c, 0, 64, 111
1, 243240, Control_c, 0, 64, 127
1, 243299, Note_on_c, 0, 44, 79
1, 243306, Note_on_c, 0, 53, 75
1, 243373, Note_off_c, 0, 62, 55
1, 243380, Note_off_c, 0, 53, 51
1, 243383, Note_off_c, 0, 71, 56
1, 243391, Note_off_c, 0, 44, 55
1, 243409, Note_off_c, 0, 67, 57
1, 243442, Note_on_c, 0, 53, 64
1, 243448, Note_on_c, 0, 43, 80
1, 243486, Note_off_c, 0, 53, 58
1, 243514, Note_off_c, 0, 43, 60
1, 243603, Control_c, 0, 64, 117
1, 243618, Note_on_c, 0, 43, 81
1, 243618, Control_c, 0, 64, 81
1, 243619, Note_on_c, 0, 62, 76
1, 243621, Note_on_c, 0, 67, 85
1, 243623, Note_on_c, 0, 71, 88
1, 243627, Note_on_c, 0, 41, 66
1, 243633, Control_c, 0, 64, 65
1, 243647, Control_c, 0, 64, 60
1, 243662, Control_c, 0, 64, 62
1, 243677, Control_c, 0, 64, 67
1, 243692, Control_c, 0, 64, 74
1, 243695, Note_off_c, 0, 43, 54
1, 243707, Control_c, 0, 64, 91
1, 243719, Note_off_c, 0, 41, 61
1, 243722, Control_c, 0, 64, 127
1, 243769, Note_off_c, 0, 71, 59
1, 243792, Note_on_c, 0, 43, 80
1, 243850, Note_off_c, 0, 43, 57
1, 243934, Note_on_c, 0, 41, 73
1, 243943, Note_on_c, 0, 43, 67
1, 243996, Note_off_c, 0, 43, 58
1, 244008, Note_off_c, 0, 41, 60
1, 244024, Note_on_c, 0, 68, 76
1, 244029, Note_off_c, 0, 62, 34
1, 244080, Note_off_c, 0, 67, 30
1, 244088, Note_off_c, 0, 68, 57
1, 244115, Note_on_c, 0, 72, 94
1, 244115, Control_c, 0, 64, 92
1, 244117, Note_on_c, 0, 67, 67
1, 244120, Note_on_c, 0, 60, 88
1, 244127, Note_on_c, 0, 39, 76
1, 244128, Note_on_c, 0, 43, 70
1, 244130, Control_c, 0, 64, 70
1, 244145, Control_c, 0, 64, 59
1, 244160, Control_c, 0, 64, 60
1, 244175, Control_c, 0, 64, 64
1, 244190, Control_c, 0, 64, 70
1, 244196, Note_off_c, 0, 43, 57
1, 244198, Note_off_c, 0, 39, 60
1, 244204, Control_c, 0, 64, 81
1, 244219, Control_c, 0, 64, 104
1, 244234, Control_c, 0, 64, 127
1, 244273, Note_off_c, 0, 60, 55
1, 244285, Note_on_c, 0, 41, 76
1, 244291, Note_on_c, 0, 43, 71
1, 244311, Note_off_c, 0, 67, 61
1, 244315, Note_off_c, 0, 72, 59
1, 244354, Note_off_c, 0, 43, 50
1, 244363, Note_off_c, 0, 41, 58
1, 244437, Note_on_c, 0, 43, 69
1, 244446, Note_on_c, 0, 39, 85
1, 244498, Note_off_c, 0, 43, 60
1, 244510, Note_off_c, 0, 39, 62
1, 244629, Note_on_c, 0, 31, 80
1, 244629, Note_on_c, 0, 43, 86
1, 244629, Note_on_c, 0, 75, 93
1, 244634, Note_on_c, 0, 65, 88
1, 244636, Note_on_c, 0, 71, 86
1, 244649, Control_c, 0, 64, 94
1, 244664, Control_c, 0, 64, 70
1, 244678, Control_c, 0, 64, 58
1, 244693, Control_c, 0, 64, 57
1, 244708, Control_c, 0, 64, 62
1, 244721, Note_off_c, 0, 43, 55
1, 244723, Control_c, 0, 64, 69
1, 244738, Control_c, 0, 64, 80
1, 244752, Control_c, 0, 64, 105
1, 244756, Note_off_c, 0, 31, 61
1, 244767, Control_c, 0, 64, 127
1, 244846, Note_on_c, 0, 43, 87
1, 244849, Note_on_c, 0, 32, 83
1, 244926, Note_off_c, 0, 43, 56
1, 244951, Note_off_c, 0, 32, 59
1, 244980, Note_off_c, 0, 65, 53
1, 244989, Note_off_c, 0, 75, 57
1, 245035, Note_on_c, 0, 43, 89
1, 245038, Note_on_c, 0, 31, 82
1, 245096, Note_off_c, 0, 71, 36
1, 245110, Note_off_c, 0, 31, 62
1, 245137, Note_off_c, 0, 43, 60
1, 245161, Note_on_c, 0, 74, 95
1, 245343, Note_on_c, 0, 72, 90
1, 245344, Note_on_c, 0, 48, 83
1, 245347, Note_on_c, 0, 43, 64
1, 245347, Note_on_c, 0, 36, 82
1, 245348, Note_on_c, 0, 63, 93
1, 245351, Note_off_c, 0, 74, 0
1, 245353, Control_c, 0, 64, 81
1, 245367, Control_c, 0, 64, 38
1, 245382, Control_c, 0, 64, 0
1, 245388, Poly_aftertouch_c, 0, 74, 127
1, 245424, Note_off_c, 0, 36, 57
1, 245427, Control_c, 0, 64, 36
1, 245432, Poly_aftertouch_c, 0, 74, 0
1, 245442, Control_c, 0, 64, 66
1, 245453, Note_off_c, 0, 43, 61
1, 245457, Control_c, 0, 64, 78
1, 245472, Control_c, 0, 64, 97
1, 245487, Control_c, 0, 64, 127
1, 245593, Note_off_c, 0, 48, 58
1, 245617, Note_on_c, 0, 50, 66
1, 245617, Note_on_c, 0, 52, 60
1, 245703, Note_off_c, 0, 52, 52
1, 245703, Note_off_c, 0, 63, 47
1, 245713, Note_off_c, 0, 72, 55
1, 245748, Note_off_c, 0, 50, 60
1, 245761, Note_on_c, 0, 48, 81
1, 245909, Control_c, 0, 64, 98
1, 245915, Note_off_c, 0, 48, 59
1, 245917, Note_on_c, 0, 46, 86
1, 245924, Control_c, 0, 64, 68
1, 245939, Control_c, 0, 64, 48
1, 245954, Control_c, 0, 64, 54
1, 245968, Control_c, 0, 64, 65
1, 245983, Control_c, 0, 64, 78
1, 245998, Control_c, 0, 64, 104
1, 246013, Control_c, 0, 64, 127
1, 246077, Note_off_c, 0, 46, 55
1, 246079, Note_on_c, 0, 48, 75
1, 246205, Note_off_c, 0, 48, 57
1, 246225, Note_on_c, 0, 46, 75
1, 246377, Control_c, 0, 64, 104
1, 246392, Control_c, 0, 64, 72
1, 246405, Note_on_c, 0, 48, 84
1, 246405, Note_on_c, 0, 44, 82
1, 246406, Control_c, 0, 64, 60
1, 246421, Control_c, 0, 64, 63
1, 246424, Note_off_c, 0, 46, 37
1, 246436, Control_c, 0, 64, 70
1, 246450, Control_c, 0, 64, 80
1, 246465, Control_c, 0, 64, 114
1, 246480, Control_c, 0, 64, 127
1, 246515, Note_off_c, 0, 44, 57
1, 246559, Note_off_c, 0, 48, 0
1, 246570, Note_on_c, 0, 48, 65
1, 246574, Note_on_c, 0, 46, 81
1, 246682, Note_off_c, 0, 46, 58
1, 246702, Note_off_c, 0, 48, 0
1, 246715, Note_on_c, 0, 48, 57
1, 246723, Note_on_c, 0, 44, 91
1, 246806, Control_c, 0, 64, 111
1, 246819, Note_off_c, 0, 44, 55
1, 246821, Control_c, 0, 64, 102
1, 246836, Control_c, 0, 64, 104
1, 246850, Control_c, 0, 64, 127
1, 246871, Note_off_c, 0, 48, 0
1, 246886, Note_on_c, 0, 48, 53
1, 246889, Note_on_c, 0, 60, 90
1, 246891, Note_on_c, 0, 72, 91
1, 246899, Note_on_c, 0, 43, 76
1, 246985, Note_off_c, 0, 60, 55
1, 246986, Note_off_c, 0, 48, 57
1, 246989, Note_off_c, 0, 72, 59
1, 247019, Note_off_c, 0, 43, 52
1, 247055, Note_on_c, 0, 44, 79
1, 247057, Note_on_c, 0, 48, 69
1, 247057, Note_on_c, 0, 60, 90
1, 247058, Note_on_c, 0, 72, 92
1, 247139, Note_off_c, 0, 60, 55
1, 247146, Note_off_c, 0, 72, 61
1, 247214, Note_off_c, 0, 44, 54
1, 247216, Note_off_c, 0, 48, 0
1, 247226, Note_on_c, 0, 60, 99
1, 247229, Note_on_c, 0, 48, 62
1, 247229, Note_on_c, 0, 72, 90
1, 247230, Note_on_c, 0, 43, 79
1, 247265, Note_on_c, 0, 71, 58
1, 247267, Note_off_c, 0, 60, 63
1, 247290, Note_off_c, 0, 71, 59
1, 247299, Note_off_c, 0, 72, 67
1, 247339, Note_off_c, 0, 48, 54
1, 247457, Note_on_c, 0, 72, 88
1, 247461, Note_on_c, 0, 84, 92
1, 247462, Note_on_c, 0, 80, 86
1, 247464, Note_on_c, 0, 74, 93
1, 247470, Note_on_c, 0, 41, 75
1, 247470, Note_on_c, 0, 48, 78
1, 247496, Control_c, 0, 64, 85
1, 247511, Note_off_c, 0, 43, 33
1, 247511, Control_c, 0, 64, 67
1, 247526, Control_c, 0, 64, 63
1, 247529, Note_on_c, 0, 82, 5
1, 247540, Control_c, 0, 64, 65
1, 247555, Control_c, 0, 64, 70
1, 247570, Note_off_c, 0, 48, 60
1, 247570, Control_c, 0, 64, 81
1, 247585, Control_c, 0, 64, 121
1, 247599, Control_c, 0, 64, 127
1, 247606, Note_off_c, 0, 82, 40
1, 247641, Note_off_c, 0, 41, 47
1, 247679, Note_on_c, 0, 43, 70
1, 247689, Note_on_c, 0, 48, 68
1, 247757, Note_off_c, 0, 48, 56
1, 247765, Note_off_c, 0, 43, 49
1, 247831, Note_on_c, 0, 41, 69
1, 247836, Note_on_c, 0, 48, 61
1, 247893, Note_off_c, 0, 41, 61
1, 247915, Note_off_c, 0, 48, 53
1, 247978, Control_c, 0, 64, 101
1, 247993, Control_c, 0, 64, 72
1, 248001, Note_on_c, 0, 48, 67
1, 248003, Note_on_c, 0, 44, 80
1, 248008, Control_c, 0, 64, 56
1, 248022, Control_c, 0, 64, 59
1, 248037, Control_c, 0, 64, 67
1, 248052, Control_c, 0, 64, 77
1, 248067, Control_c, 0, 64, 102
1, 248082, Control_c, 0, 64, 127
1, 248090, Note_off_c, 0, 48, 55
1, 248092, Note_off_c, 0, 44, 59
1, 248137, Note_off_c, 0, 84, 52
1, 248150, Note_on_c, 0, 48, 65
1, 248163, Note_on_c, 0, 44, 70
1, 248202, Note_off_c, 0, 72, 57
1, 248217, Note_off_c, 0, 44, 58
1, 248217, Note_off_c, 0, 74, 27
1, 248225, Note_off_c, 0, 80, 56
1, 248233, Note_on_c, 0, 46, 62
1, 248308, Note_off_c, 0, 46, 58
1, 248339, Note_off_c, 0, 48, 36
1, 248384, Note_on_c, 0, 44, 83
1, 248387, Note_on_c, 0, 48, 63
1, 248462, Note_off_c, 0, 44, 58
1, 248506, Note_off_c, 0, 48, 34
1, 248542, Control_c, 0, 64, 85
1, 248548, Note_on_c, 0, 48, 61
1, 248557, Control_c, 0, 64, 66
1, 248572, Note_on_c, 0, 43, 73
1, 248579, Control_c, 0, 64, 61
1, 248593, Control_c, 0, 64, 64
1, 248608, Control_c, 0, 64, 68
1, 248623, Control_c, 0, 64, 77
1, 248633, Note_off_c, 0, 48, 61
1, 248638, Control_c, 0, 64, 93
1, 248649, Note_off_c, 0, 43, 60
1, 248652, Control_c, 0, 64, 127
1, 248715, Note_on_c, 0, 44, 81
1, 248727, Note_on_c, 0, 48, 69
1, 248786, Note_off_c, 0, 48, 53
1, 248812, Note_off_c, 0, 44, 58
1, 248865, Note_on_c, 0, 48, 71
1, 248867, Note_on_c, 0, 43, 76
1, 248933, Note_off_c, 0, 43, 60
1, 248941, Note_off_c, 0, 48, 58
1, 248992, Control_c, 0, 64, 109
1, 249007, Control_c, 0, 64, 86
1, 249019, Note_on_c, 0, 72, 86
1, 249019, Note_on_c, 0, 60, 85
1, 249020, Note_on_c, 0, 41, 71
1, 249020, Note_on_c, 0, 48, 72
1, 249022, Control_c, 0, 64, 74
1, 249037, Control_c, 0, 64, 73
1, 249052, Control_c, 0, 64, 78
1, 249067, Control_c, 0, 64, 88
1, 249082, Control_c, 0, 64, 101
1, 249093, Note_off_c, 0, 60, 53
1, 249097, Control_c, 0, 64, 118
1, 249097, Note_off_c, 0, 72, 57
1, 249100, Note_off_c, 0, 41, 57
1, 249104, Note_off_c, 0, 48, 52
1, 249111, Control_c, 0, 64, 127
1, 249171, Note_on_c, 0, 43, 80
1, 249177, Note_on_c, 0, 60, 87
1, 249180, Note_on_c, 0, 48, 66
1, 249180, Note_on_c, 0, 72, 89
1, 249252, Note_off_c, 0, 60, 53
1, 249257, Note_off_c, 0, 72, 57
1, 249299, Note_off_c, 0, 43, 56
1, 249316, Note_off_c, 0, 48, 33
1, 249340, Note_on_c, 0, 48, 63
1, 249340, Note_on_c, 0, 72, 94
1, 249343, Note_on_c, 0, 60, 90
1, 249356, Note_on_c, 0, 41, 69
1, 249359, Note_on_c, 0, 40, 61
1, 249377, Note_off_c, 0, 60, 63
1, 249391, Note_off_c, 0, 40, 62
1, 249405, Note_off_c, 0, 72, 65
1, 249445, Note_off_c, 0, 48, 59
1, 249498, Note_off_c, 0, 41, 56
1, 249532, Note_on_c, 0, 79, 88
1, 249536, Note_on_c, 0, 39, 77
1, 249537, Note_on_c, 0, 48, 75
1, 249537, Note_on_c, 0, 84, 86
1, 249538, Note_on_c, 0, 71, 76
1, 249538, Note_on_c, 0, 72, 81
1, 249538, Note_on_c, 0, 75, 83
1, 249560, Note_on_c, 0, 83, 57
1, 249564, Control_c, 0, 64, 90
1, 249579, Control_c, 0, 64, 69
1, 249582, Note_off_c, 0, 83, 58
1, 249593, Control_c, 0, 64, 63
1, 249608, Note_off_c, 0, 71, 59
1, 249609, Control_c, 0, 64, 66
1, 249624, Control_c, 0, 64, 72
1, 249632, Note_off_c, 0, 48, 59
1, 249639, Control_c, 0, 64, 88
1, 249654, Control_c, 0, 64, 127
1, 249665, Note_off_c, 0, 39, 57
1, 249708, Note_on_c, 0, 48, 67
1, 249710, Note_on_c, 0, 41, 71
1, 249782, Note_off_c, 0, 48, 57
1, 249790, Note_off_c, 0, 41, 58
1, 249861, Note_on_c, 0, 39, 74
1, 249869, Note_on_c, 0, 48, 66
1, 249920, Note_off_c, 0, 39, 61
1, 249922, Note_off_c, 0, 48, 57
1, 249931, Poly_aftertouch_c, 0, 82, 127
1, 250009, Control_c, 0, 64, 90
1, 250018, Note_on_c, 0, 43, 86
1, 250024, Note_on_c, 0, 48, 78
1, 250024, Control_c, 0, 64, 67
1, 250038, Control_c, 0, 64, 58
1, 250053, Control_c, 0, 64, 63
1, 250075, Control_c, 0, 64, 71
1, 250090, Control_c, 0, 64, 84
1, 250105, Control_c, 0, 64, 127
1, 250112, Note_off_c, 0, 43, 55
1, 250122, Note_off_c, 0, 48, 49
1, 250184, Note_on_c, 0, 44, 80
1, 250193, Note_on_c, 0, 48, 62
1, 250203, Note_off_c, 0, 84, 54
1, 250205, Note_off_c, 0, 72, 57
1, 250253, Note_off_c, 0, 79, 55
1, 250261, Note_off_c, 0, 48, 55
1, 250264, Poly_aftertouch_c, 0, 82, 0
1, 250269, Note_off_c, 0, 75, 53
1, 250284, Note_off_c, 0, 44, 57
1, 250337, Note_on_c, 0, 43, 78
1, 250341, Note_on_c, 0, 48, 69
1, 250407, Note_off_c, 0, 48, 58
1, 250411, Note_off_c, 0, 43, 59
1, 250496, Note_on_c, 0, 41, 80
1, 250496, Note_on_c, 0, 48, 82
1, 250505, Control_c, 0, 64, 79
1, 250520, Control_c, 0, 64, 61
1, 250534, Control_c, 0, 64, 59
1, 250549, Control_c, 0, 64, 67
1, 250564, Control_c, 0, 64, 74
1, 250572, Note_off_c, 0, 48, 58
1, 250578, Note_off_c, 0, 41, 61
1, 250579, Control_c, 0, 64, 91
1, 250594, Control_c, 0, 64, 127
1, 250661, Note_on_c, 0, 43, 72
1, 250662, Note_on_c, 0, 48, 70
1, 250676, Note_on_c, 0, 41, 43
1, 250677, Note_off_c, 0, 41, 127
1, 250757, Note_off_c, 0, 43, 58
1, 250799, Note_on_c, 0, 42, 38
1, 250799, Note_on_c, 0, 41, 64
1, 250814, Note_off_c, 0, 48, 0
1, 250814, Note_on_c, 0, 48, 9
1, 250852, Note_off_c, 0, 42, 43
1, 250938, Note_off_c, 0, 48, 29
1, 250972, Note_on_c, 0, 48, 52
1, 250972, Control_c, 0, 64, 104
1, 250979, Note_on_c, 0, 39, 72
1, 250985, Note_on_c, 0, 60, 88
1, 250987, Note_on_c, 0, 72, 86
1, 250987, Control_c, 0, 64, 76
1, 250991, Note_off_c, 0, 41, 28
1, 251002, Control_c, 0, 64, 62
1, 251017, Control_c, 0, 64, 61
1, 251032, Control_c, 0, 64, 65
1, 251044, Note_off_c, 0, 39, 62
1, 251046, Control_c, 0, 64, 71
1, 251058, Note_off_c, 0, 48, 48
1, 251061, Control_c, 0, 64, 86
1, 251063, Note_off_c, 0, 60, 57
1, 251070, Note_off_c, 0, 72, 56
1, 251076, Control_c, 0, 64, 119
1, 251091, Control_c, 0, 64, 127
1, 251115, Note_on_c, 0, 48, 45
1, 251118, Note_on_c, 0, 41, 66
1, 251143, Note_on_c, 0, 72, 81
1, 251147, Note_on_c, 0, 60, 85
1, 251207, Note_off_c, 0, 48, 0
1, 251216, Note_off_c, 0, 72, 59
1, 251218, Note_off_c, 0, 60, 52
1, 251244, Poly_aftertouch_c, 0, 48, 127
1, 251267, Note_off_c, 0, 41, 30
1, 251279, Note_on_c, 0, 39, 74
1, 251293, Note_on_c, 0, 72, 82
1, 251294, Note_on_c, 0, 60, 79
1, 251313, Poly_aftertouch_c, 0, 48, 0
1, 251323, Note_on_c, 0, 62, 49
1, 251332, Note_off_c, 0, 39, 61
1, 251334, Note_off_c, 0, 60, 57
1, 251341, Note_off_c, 0, 72, 62
1, 251351, Note_off_c, 0, 62, 58
1, 251459, Note_on_c, 0, 65, 83
1, 251460, Control_c, 0, 64, 91
1, 251461, Note_on_c, 0, 61, 89
1, 251461, Note_on_c, 0, 73, 96
1, 251463, Note_on_c, 0, 44, 53
1, 251463, Note_on_c, 0, 37, 58
1, 251475, Control_c, 0, 64, 68
1, 251490, Control_c, 0, 64, 55
1, 251505, Control_c, 0, 64, 56
1, 251520, Control_c, 0, 64, 62
1, 251535, Control_c, 0, 64, 69
1, 251550, Control_c, 0, 64, 80
1, 251571, Control_c, 0, 64, 108
1, 251577, Note_off_c, 0, 37, 54
1, 251586, Control_c, 0, 64, 127
1, 251597, Note_off_c, 0, 61, 60
1, 251603, Note_off_c, 0, 44, 36
1, 251623, Note_off_c, 0, 65, 61
1, 251637, Note_on_c, 0, 39, 68
1, 251638, Note_on_c, 0, 44, 58
1, 251643, Note_off_c, 0, 73, 61
1, 251696, Note_off_c, 0, 39, 58
1, 251717, Note_off_c, 0, 44, 52
1, 251783, Note_on_c, 0, 36, 73
1, 251788, Note_on_c, 0, 44, 67
1, 251848, Note_off_c, 0, 36, 58
1, 251863, Note_off_c, 0, 44, 50
1, 251943, Control_c, 0, 64, 97
1, 251949, Note_on_c, 0, 65, 92
1, 251949, Note_on_c, 0, 77, 96
1, 251950, Note_on_c, 0, 37, 69
1, 251958, Note_on_c, 0, 44, 70
1, 251958, Control_c, 0, 64, 79
1, 251973, Control_c, 0, 64, 74
1, 251987, Control_c, 0, 64, 79
1, 252002, Control_c, 0, 64, 94
1, 252017, Control_c, 0, 64, 127
1, 252059, Note_off_c, 0, 65, 60
1, 252086, Note_off_c, 0, 77, 59
1, 252093, Note_off_c, 0, 37, 54
1, 252101, Note_on_c, 0, 39, 73
1, 252102, Note_off_c, 0, 44, 0
1, 252118, Note_on_c, 0, 44, 42
1, 252160, Note_off_c, 0, 44, 56
1, 252213, Note_off_c, 0, 39, 56
1, 252250, Note_on_c, 0, 41, 79
1, 252250, Note_on_c, 0, 44, 77
1, 252297, Note_off_c, 0, 44, 57
1, 252316, Note_off_c, 0, 41, 62
1, 252334, Note_on_c, 0, 68, 82
1, 252336, Note_on_c, 0, 80, 70
1, 252351, Note_off_c, 0, 68, 71
1, 252359, Note_off_c, 0, 80, 65
1, 252444, Note_on_c, 0, 75, 87
1, 252444, Note_on_c, 0, 67, 92
1, 252445, Note_on_c, 0, 79, 91
1, 252446, Note_on_c, 0, 72, 84
1, 252453, Note_on_c, 0, 43, 93
1, 252459, Note_on_c, 0, 31, 89
1, 252468, Control_c, 0, 64, 103
1, 252483, Control_c, 0, 64, 71
1, 252498, Control_c, 0, 64, 45
1, 252513, Control_c, 0, 64, 41
1, 252528, Control_c, 0, 64, 52
1, 252544, Control_c, 0, 64, 63
1, 252548, Note_off_c, 0, 43, 59
1, 252558, Control_c, 0, 64, 73
1, 252573, Control_c, 0, 64, 87
1, 252588, Control_c, 0, 64, 127
1, 252626, Note_on_c, 0, 43, 78
1, 252661, Note_off_c, 0, 67, 57
1, 252671, Note_off_c, 0, 79, 54
1, 252697, Note_off_c, 0, 72, 58
1, 252701, Note_off_c, 0, 75, 58
1, 252704, Note_off_c, 0, 43, 59
1, 252783, Note_on_c, 0, 43, 80
1, 252820, Note_off_c, 0, 31, 60
1, 252841, Note_off_c, 0, 43, 61
1, 252953, Note_on_c, 0, 31, 82
1, 252956, Note_on_c, 0, 43, 91
1, 252959, Control_c, 0, 64, 109
1, 252960, Note_on_c, 0, 71, 89
1, 252960, Note_on_c, 0, 67, 93
1, 252961, Note_on_c, 0, 74, 93
1, 252961, Note_on_c, 0, 79, 92
1, 252974, Control_c, 0, 64, 71
1, 252989, Control_c, 0, 64, 54
1, 253004, Control_c, 0, 64, 56
1, 253018, Control_c, 0, 64, 66
1, 253033, Control_c, 0, 64, 80
1, 253048, Control_c, 0, 64, 127
1, 253059, Note_off_c, 0, 43, 58
1, 253077, Note_off_c, 0, 79, 62
1, 253080, Note_off_c, 0, 67, 60
1, 253112, Note_off_c, 0, 71, 61
1, 253114, Note_off_c, 0, 74, 61
1, 253176, Note_on_c, 0, 43, 89
1, 253254, Note_off_c, 0, 43, 57
1, 253347, Note_on_c, 0, 43, 88
1, 253371, Note_off_c, 0, 31, 34
1, 253391, Note_off_c, 0, 43, 63
1, 253604, Note_on_c, 0, 72, 94
1, 253604, Note_on_c, 0, 63, 91
1, 253607, Note_on_c, 0, 60, 91
1, 253607, Note_on_c, 0, 48, 92
1, 253607, Note_on_c, 0, 67, 92
1, 253610, Note_on_c, 0, 43, 66
1, 253611, Note_on_c, 0, 36, 84
1, 253633, Control_c, 0, 64, 75
1, 253648, Control_c, 0, 64, 52
1, 253663, Control_c, 0, 64, 51
1, 253678, Control_c, 0, 64, 62
1, 253693, Control_c, 0, 64, 72
1, 253708, Control_c, 0, 64, 90
1, 253708, Note_off_c, 0, 36, 59
1, 253711, Note_off_c, 0, 43, 62
1, 253723, Control_c, 0, 64, 127
1, 253886, Note_off_c, 0, 48, 56
1, 253900, Note_on_c, 0, 51, 81
1, 254068, Note_off_c, 0, 51, 56
1, 254069, Note_on_c, 0, 50, 85
1, 254241, Note_on_c, 0, 48, 92
1, 254250, Control_c, 0, 64, 73
1, 254258, Note_off_c, 0, 50, 40
1, 254264, Control_c, 0, 64, 35
1, 254294, Control_c, 0, 64, 50
1, 254308, Control_c, 0, 64, 65
1, 254323, Control_c, 0, 64, 76
1, 254338, Control_c, 0, 64, 94
1, 254353, Control_c, 0, 64, 127
1, 254411, Note_off_c, 0, 48, 61
1, 254414, Note_on_c, 0, 50, 76
1, 254569, Note_on_c, 0, 48, 80
1, 254576, Note_off_c, 0, 50, 55
1, 254716, Note_on_c, 0, 47, 86
1, 254730, Control_c, 0, 64, 88
1, 254742, Note_off_c, 0, 48, 60
1, 254745, Control_c, 0, 64, 68
1, 254760, Control_c, 0, 64, 70
1, 254775, Control_c, 0, 64, 87
1, 254790, Control_c, 0, 64, 127
1, 254795, Note_off_c, 0, 60, 49
1, 254820, Note_off_c, 0, 72, 37
1, 254844, Note_off_c, 0, 67, 56
1, 254849, Note_off_c, 0, 63, 54
1, 254861, Note_off_c, 0, 47, 57
1, 254864, Note_on_c, 0, 48, 85
1, 255004, Note_on_c, 0, 47, 86
1, 255020, Note_off_c, 0, 48, 59
1, 255160, Note_on_c, 0, 46, 79
1, 255175, Note_on_c, 0, 72, 95
1, 255175, Note_on_c, 0, 60, 91
1, 255201, Note_off_c, 0, 47, 51
1, 255243, Note_off_c, 0, 60, 57
1, 255246, Note_off_c, 0, 72, 60
1, 255296, Poly_aftertouch_c, 0, 62, 0
1, 255321, Note_off_c, 0, 46, 57
1, 255327, Note_on_c, 0, 48, 81
1, 255341, Note_on_c, 0, 72, 96
1, 255341, Note_on_c, 0, 60, 97
1, 255397, Note_off_c, 0, 72, 59
1, 255402, Note_off_c, 0, 60, 57
1, 255468, Note_on_c, 0, 46, 73
1, 255476, Note_off_c, 0, 48, 57
1, 255492, Note_on_c, 0, 60, 96
1, 255493, Note_on_c, 0, 72, 95
1, 255533, Note_off_c, 0, 60, 59
1, 255553, Note_off_c, 0, 72, 62
1, 255730, Note_on_c, 0, 48, 78
1, 255732, Note_on_c, 0, 45, 76
1, 255732, Note_on_c, 0, 84, 99
1, 255732, Control_c, 0, 64, 118
1, 255735, Note_on_c, 0, 74, 93
1, 255738, Note_on_c, 0, 72, 90
1, 255747, Control_c, 0, 64, 81
1, 255752, Note_off_c, 0, 46, 56
1, 255762, Control_c, 0, 64, 63
1, 255777, Control_c, 0, 64, 61
1, 255792, Control_c, 0, 64, 65
1, 255807, Control_c, 0, 64, 71
1, 255821, Control_c, 0, 64, 82
1, 255836, Control_c, 0, 64, 107
1, 255851, Control_c, 0, 64, 127
1, 255900, Note_off_c, 0, 48, 35
1, 255907, Note_off_c, 0, 45, 53
1, 255948, Note_on_c, 0, 46, 72
1, 255967, Note_on_c, 0, 48, 54
1, 255998, Poly_aftertouch_c, 0, 82, 127
1, 256014, Note_off_c, 0, 48, 56
1, 256025, Note_off_c, 0, 46, 53
1, 256109, Note_on_c, 0, 45, 76
1, 256117, Note_on_c, 0, 48, 69
1, 256159, Note_off_c, 0, 48, 57
1, 256170, Note_off_c, 0, 45, 56
1, 256243, Control_c, 0, 64, 86
1, 256258, Control_c, 0, 64, 66
1, 256262, Note_on_c, 0, 44, 82
1, 256266, Note_on_c, 0, 48, 75
1, 256273, Control_c, 0, 64, 64
1, 256287, Control_c, 0, 64, 70
1, 256302, Control_c, 0, 64, 80
1, 256317, Control_c, 0, 64, 105
1, 256331, Note_off_c, 0, 48, 58
1, 256332, Control_c, 0, 64, 127
1, 256346, Note_off_c, 0, 44, 59
1, 256396, Note_off_c, 0, 84, 57
1, 256418, Note_on_c, 0, 46, 75
1, 256422, Note_on_c, 0, 48, 64
1, 256422, Note_off_c, 0, 72, 54
1, 256435, Note_off_c, 0, 74, 37
1, 256447, Poly_aftertouch_c, 0, 82, 0
1, 256490, Note_off_c, 0, 48, 57
1, 256509, Note_off_c, 0, 46, 52
1, 256568, Note_on_c, 0, 44, 82
1, 256570, Note_on_c, 0, 48, 64
1, 256622, Note_off_c, 0, 48, 52
1, 256638, Note_off_c, 0, 44, 57
1, 256703, Control_c, 0, 64, 88
1, 256717, Note_on_c, 0, 43, 81
1, 256718, Control_c, 0, 64, 71
1, 256721, Note_on_c, 0, 48, 74
1, 256733, Control_c, 0, 64, 70
1, 256748, Control_c, 0, 64, 79
1, 256763, Control_c, 0, 64, 102
1, 256777, Control_c, 0, 64, 127
1, 256816, Note_off_c, 0, 43, 58
1, 256844, Note_off_c, 0, 48, 49
1, 256882, Note_on_c, 0, 44, 82
1, 256882, Note_on_c, 0, 48, 51
1, 256984, Note_off_c, 0, 44, 59
1, 257017, Note_off_c, 0, 48, 0
1, 257029, Note_on_c, 0, 43, 80
1, 257035, Note_on_c, 0, 48, 44
1, 257115, Note_off_c, 0, 43, 57
1, 257170, Note_off_c, 0, 48, 0
1, 257180, Note_on_c, 0, 41, 73
1, 257181, Note_on_c, 0, 48, 57
1, 257184, Note_on_c, 0, 60, 88
1, 257184, Note_on_c, 0, 72, 89
1, 257258, Note_off_c, 0, 41, 58
1, 257267, Note_off_c, 0, 60, 55
1, 257275, Note_off_c, 0, 72, 58
1, 257276, Note_off_c, 0, 48, 51
1, 257335, Note_on_c, 0, 43, 77
1, 257339, Note_on_c, 0, 60, 86
1, 257341, Note_on_c, 0, 72, 86
1, 257344, Note_on_c, 0, 48, 64
1, 257404, Note_off_c, 0, 60, 55
1, 257432, Note_off_c, 0, 48, 46
1, 257433, Note_off_c, 0, 72, 58
1, 257471, Note_off_c, 0, 43, 48
1, 257485, Note_on_c, 0, 72, 84
1, 257489, Note_on_c, 0, 60, 93
1, 257497, Note_on_c, 0, 41, 75
1, 257497, Note_on_c, 0, 48, 62
1, 257530, Note_off_c, 0, 60, 58
1, 257563, Note_off_c, 0, 72, 64
1, 257613, Note_off_c, 0, 48, 48
1, 257684, Note_on_c, 0, 72, 88
1, 257687, Note_on_c, 0, 79, 86
1, 257689, Note_on_c, 0, 48, 65
1, 257689, Note_on_c, 0, 84, 88
1, 257690, Note_on_c, 0, 76, 86
1, 257694, Note_on_c, 0, 40, 73
1, 257726, Control_c, 0, 64, 92
1, 257741, Control_c, 0, 64, 74
1, 257744, Note_off_c, 0, 41, 28
1, 257756, Control_c, 0, 64, 69
1, 257771, Control_c, 0, 64, 73
1, 257786, Control_c, 0, 64, 86
1, 257793, Note_off_c, 0, 48, 52
1, 257800, Control_c, 0, 64, 127
1, 257804, Note_off_c, 0, 40, 60
1, 257862, Note_on_c, 0, 41, 70
1, 257863, Note_on_c, 0, 48, 57
1, 257939, Note_off_c, 0, 48, 53
1, 257949, Note_off_c, 0, 41, 55
1, 258003, Note_on_c, 0, 48, 58
1, 258003, Note_on_c, 0, 40, 75
1, 258050, Note_off_c, 0, 48, 60
1, 258064, Note_off_c, 0, 40, 59
1, 258156, Control_c, 0, 64, 96
1, 258159, Note_on_c, 0, 39, 83
1, 258168, Note_on_c, 0, 48, 80
1, 258171, Control_c, 0, 64, 73
1, 258186, Control_c, 0, 64, 65
1, 258201, Control_c, 0, 64, 70
1, 258209, Note_off_c, 0, 84, 57
1, 258216, Control_c, 0, 64, 80
1, 258230, Control_c, 0, 64, 101
1, 258244, Note_off_c, 0, 48, 57
1, 258245, Control_c, 0, 64, 127
1, 258266, Note_off_c, 0, 72, 58
1, 258266, Note_off_c, 0, 39, 58
1, 258293, Note_off_c, 0, 79, 55
1, 258316, Note_off_c, 0, 76, 58
1, 258325, Note_on_c, 0, 41, 79
1, 258332, Note_on_c, 0, 48, 70
1, 258396, Note_off_c, 0, 48, 52
1, 258404, Note_off_c, 0, 41, 57
1, 258484, Note_on_c, 0, 39, 81
1, 258487, Note_on_c, 0, 48, 70
1, 258547, Note_off_c, 0, 48, 57
1, 258572, Note_off_c, 0, 39, 60
1, 258623, Control_c, 0, 64, 101
1, 258633, Note_on_c, 0, 38, 85
1, 258636, Note_on_c, 0, 48, 83
1, 258638, Control_c, 0, 64, 73
1, 258653, Control_c, 0, 64, 62
1, 258668, Control_c, 0, 64, 65
1, 258682, Control_c, 0, 64, 72
1, 258697, Control_c, 0, 64, 84
1, 258712, Control_c, 0, 64, 112
1, 258723, Note_off_c, 0, 38, 60
1, 258724, Note_off_c, 0, 48, 55
1, 258727, Control_c, 0, 64, 127
1, 258793, Note_on_c, 0, 39, 81
1, 258796, Note_on_c, 0, 48, 58
1, 258873, Note_off_c, 0, 48, 53
1, 258883, Note_off_c, 0, 39, 61
1, 258946, Note_on_c, 0, 48, 66
1, 258950, Note_on_c, 0, 38, 75
1, 259023, Note_off_c, 0, 38, 59
1, 259086, Note_off_c, 0, 48, 0
1, 259091, Control_c, 0, 64, 93
1, 259103, Note_on_c, 0, 48, 37
1, 259105, Control_c, 0, 64, 73
1, 259106, Note_on_c, 0, 36, 74
1, 259120, Control_c, 0, 64, 67
1, 259124, Note_on_c, 0, 60, 88
1, 259127, Note_on_c, 0, 72, 89
1, 259135, Control_c, 0, 64, 70
1, 259150, Control_c, 0, 64, 78
1, 259165, Control_c, 0, 64, 93
1, 259179, Control_c, 0, 64, 127
1, 259184, Note_off_c, 0, 60, 57
1, 259200, Note_off_c, 0, 72, 57
1, 259208, Note_off_c, 0, 36, 54
1, 259267, Note_on_c, 0, 38, 69
1, 259276, Note_off_c, 0, 48, 0
1, 259276, Note_on_c, 0, 48, 3
1, 259280, Note_on_c, 0, 60, 89
1, 259282, Note_on_c, 0, 72, 86
1, 259344, Note_off_c, 0, 60, 56
1, 259353, Note_off_c, 0, 72, 60
1, 259372, Note_off_c, 0, 38, 56
1, 259413, Note_on_c, 0, 39, 73
1, 259423, Note_off_c, 0, 48, 39
1, 259437, Note_on_c, 0, 72, 86
1, 259440, Note_on_c, 0, 60, 88
1, 259479, Note_off_c, 0, 60, 54
1, 259494, Note_off_c, 0, 39, 58
1, 259497, Note_off_c, 0, 72, 62
1, 259602, Note_on_c, 0, 44, 77
1, 259605, Note_on_c, 0, 41, 66
1, 259607, Note_on_c, 0, 73, 94
1, 259608, Note_on_c, 0, 61, 95
1, 259609, Control_c, 0, 64, 104
1, 259623, Control_c, 0, 64, 75
1, 259638, Control_c, 0, 64, 62
1, 259653, Control_c, 0, 64, 65
1, 259668, Control_c, 0, 64, 71
1, 259683, Control_c, 0, 64, 81
1, 259696, Note_off_c, 0, 41, 60
1, 259697, Control_c, 0, 64, 105
1, 259707, Note_off_c, 0, 44, 53
1, 259712, Control_c, 0, 64, 127
1, 259725, Note_on_c, 0, 62, 45
1, 259756, Note_off_c, 0, 62, 53
1, 259762, Note_on_c, 0, 39, 70
1, 259765, Note_on_c, 0, 44, 62
1, 259803, Note_off_c, 0, 61, 33
1, 259809, Note_off_c, 0, 73, 60
1, 259832, Note_off_c, 0, 44, 58
1, 259837, Poly_aftertouch_c, 0, 63, 0
1, 259844, Note_off_c, 0, 39, 60
1, 259929, Note_on_c, 0, 44, 82
1, 259930, Note_on_c, 0, 37, 72
1, 259991, Note_off_c, 0, 44, 59
1, 259994, Note_off_c, 0, 37, 59
1, 260093, Note_on_c, 0, 37, 75
1, 260096, Note_on_c, 0, 44, 79
1, 260099, Note_on_c, 0, 65, 96
1, 260105, Note_on_c, 0, 77, 95
1, 260107, Control_c, 0, 64, 87
1, 260121, Control_c, 0, 64, 72
1, 260136, Control_c, 0, 64, 71
1, 260151, Control_c, 0, 64, 84
1, 260166, Control_c, 0, 64, 113
1, 260181, Control_c, 0, 64, 127
1, 260197, Note_off_c, 0, 65, 57
1, 260223, Note_off_c, 0, 77, 58
1, 260248, Note_on_c, 0, 39, 74
1, 260248, Note_off_c, 0, 37, 58
1, 260260, Note_off_c, 0, 44, 0
1, 260272, Note_on_c, 0, 44, 45
1, 260330, Note_off_c, 0, 44, 49
1, 260355, Note_off_c, 0, 39, 56
1, 260397, Note_on_c, 0, 41, 76
1, 260400, Note_on_c, 0, 44, 61
1, 260437, Note_off_c, 0, 44, 59
1, 260449, Note_off_c, 0, 41, 61
1, 260495, Note_on_c, 0, 68, 81
1, 260498, Note_on_c, 0, 80, 76
1, 260519, Note_off_c, 0, 80, 69
1, 260520, Note_off_c, 0, 68, 62
1, 260610, Note_on_c, 0, 67, 93
1, 260611, Note_on_c, 0, 79, 93
1, 260612, Note_on_c, 0, 75, 88
1, 260615, Note_on_c, 0, 43, 81
1, 260615, Note_on_c, 0, 72, 89
1, 260620, Note_on_c, 0, 31, 78
1, 260622, Note_on_c, 0, 29, 79
1, 260630, Note_on_c, 0, 41, 66
1, 260633, Control_c, 0, 64, 76
1, 260648, Control_c, 0, 64, 52
1, 260663, Note_off_c, 0, 41, 48
1, 260663, Control_c, 0, 64, 37
1, 260677, Control_c, 0, 64, 50
1, 260692, Control_c, 0, 64, 64
1, 260704, Note_off_c, 0, 43, 56
1, 260707, Note_off_c, 0, 29, 56
1, 260707, Control_c, 0, 64, 74
1, 260722, Control_c, 0, 64, 88
1, 260737, Control_c, 0, 64, 115
1, 260752, Control_c, 0, 64, 127
1, 260778, Note_on_c, 0, 43, 75
1, 260816, Note_off_c, 0, 67, 56
1, 260817, Note_off_c, 0, 79, 57
1, 260848, Note_off_c, 0, 43, 59
1, 260854, Note_off_c, 0, 72, 58
1, 260859, Note_off_c, 0, 75, 56
1, 260934, Note_on_c, 0, 43, 78
1, 260983, Note_off_c, 0, 43, 59
1, 261004, Note_off_c, 0, 31, 22
1, 261094, Note_on_c, 0, 43, 92
1, 261099, Note_on_c, 0, 31, 86
1, 261105, Note_on_c, 0, 71, 89
1, 261107, Note_on_c, 0, 74, 91
1, 261107, Note_on_c, 0, 79, 89
1, 261107, Control_c, 0, 64, 107
1, 261108, Note_on_c, 0, 67, 91
1, 261122, Control_c, 0, 64, 70
1, 261137, Control_c, 0, 64, 48
1, 261151, Control_c, 0, 64, 45
1, 261166, Control_c, 0, 64, 60
1, 261181, Control_c, 0, 64, 76
1, 261183, Note_off_c, 0, 43, 58
1, 261196, Control_c, 0, 64, 104
1, 261211, Control_c, 0, 64, 127
1, 261223, Note_off_c, 0, 79, 62
1, 261226, Note_off_c, 0, 67, 59
1, 261259, Note_off_c, 0, 71, 60
1, 261262, Note_off_c, 0, 74, 59
1, 261308, Note_on_c, 0, 43, 89
1, 261385, Note_off_c, 0, 43, 58
1, 261472, Note_off_c, 0, 31, 54
1, 261483, Note_on_c, 0, 43, 91
1, 261539, Note_off_c, 0, 43, 61
1, 261787, Note_on_c, 0, 63, 89
1, 261787, Note_on_c, 0, 72, 92
1, 261789, Note_on_c, 0, 48, 92
1, 261791, Note_on_c, 0, 36, 82
1, 261791, Note_on_c, 0, 60, 90
1, 261792, Note_on_c, 0, 67, 90
1, 261826, Control_c, 0, 64, 82
1, 261841, Control_c, 0, 64, 56
1, 261856, Control_c, 0, 64, 48
1, 261871, Control_c, 0, 64, 59
1, 261886, Control_c, 0, 64, 71
1, 261900, Control_c, 0, 64, 87
1, 261915, Control_c, 0, 64, 127
1, 261968, Note_off_c, 0, 48, 62
1, 261972, Note_off_c, 0, 36, 60
1, 262081, Note_on_c, 0, 48, 79
1, 262087, Note_on_c, 0, 36, 85
1, 262154, Note_off_c, 0, 48, 60
1, 262155, Note_off_c, 0, 36, 59
1, 262260, Note_on_c, 0, 48, 84
1, 262263, Note_on_c, 0, 36, 84
1, 262325, Note_off_c, 0, 48, 59
1, 262332, Note_off_c, 0, 36, 58
1, 262398, Control_c, 0, 64, 117
1, 262413, Control_c, 0, 64, 70
1, 262428, Control_c, 0, 64, 49
1, 262433, Note_on_c, 0, 48, 84
1, 262437, Note_on_c, 0, 38, 82
1, 262442, Control_c, 0, 64, 54
1, 262457, Control_c, 0, 64, 67
1, 262472, Control_c, 0, 64, 78
1, 262487, Control_c, 0, 64, 105
1, 262502, Control_c, 0, 64, 127
1, 262508, Note_off_c, 0, 48, 57
1, 262517, Note_off_c, 0, 38, 59
1, 262594, Note_on_c, 0, 38, 68
1, 262596, Note_on_c, 0, 48, 75
1, 262651, Note_off_c, 0, 48, 57
1, 262656, Note_off_c, 0, 38, 60
1, 262749, Note_on_c, 0, 48, 75
1, 262750, Note_on_c, 0, 38, 72
1, 262812, Note_off_c, 0, 48, 60
1, 262815, Note_off_c, 0, 38, 60
1, 262895, Control_c, 0, 64, 96
1, 262910, Control_c, 0, 64, 66
1, 262913, Note_on_c, 0, 39, 75
1, 262921, Note_on_c, 0, 48, 71
1, 262925, Control_c, 0, 64, 61
1, 262940, Control_c, 0, 64, 67
1, 262955, Control_c, 0, 64, 76
1, 262970, Control_c, 0, 64, 98
1, 262978, Note_off_c, 0, 48, 59
1, 262985, Control_c, 0, 64, 127
1, 262992, Note_off_c, 0, 39, 60
1, 263076, Note_on_c, 0, 39, 71
1, 263082, Note_on_c, 0, 48, 72
1, 263113, Note_off_c, 0, 60, 47
1, 263119, Note_off_c, 0, 48, 59
1, 263123, Note_off_c, 0, 72, 35
1, 263139, Note_off_c, 0, 39, 58
1, 263142, Note_off_c, 0, 67, 57
1, 263151, Note_off_c, 0, 63, 52
1, 263226, Note_on_c, 0, 39, 65
1, 263230, Note_on_c, 0, 48, 73
1, 263277, Note_off_c, 0, 48, 56
1, 263283, Note_off_c, 0, 39, 60
1, 263399, Note_on_c, 0, 40, 63
1, 263404, Note_on_c, 0, 60, 86
1, 263405, Note_on_c, 0, 72, 88
1, 263413, Control_c, 0, 64, 79
1, 263414, Note_on_c, 0, 48, 60
1, 263428, Control_c, 0, 64, 68
1, 263443, Control_c, 0, 64, 70
1, 263458, Control_c, 0, 64, 80
1, 263460, Note_off_c, 0, 48, 56
1, 263467, Note_off_c, 0, 40, 58
1, 263472, Control_c, 0, 64, 100
1, 263487, Control_c, 0, 64, 127
1, 263500, Note_off_c, 0, 60, 55
1, 263506, Note_off_c, 0, 72, 59
1, 263579, Note_on_c, 0, 40, 61
1, 263588, Note_on_c, 0, 60, 79
1, 263588, Note_on_c, 0, 72, 78
1, 263595, Note_on_c, 0, 48, 58
1, 263623, Note_off_c, 0, 40, 57
1, 263628, Note_off_c, 0, 48, 65
1, 263643, Note_off_c, 0, 60, 58
1, 263647, Note_off_c, 0, 72, 62
1, 263736, Note_on_c, 0, 40, 63
1, 263739, Note_on_c, 0, 48, 57
1, 263743, Note_on_c, 0, 60, 83
1, 263744, Note_on_c, 0, 72, 83
1, 263786, Note_off_c, 0, 48, 56
1, 263792, Note_off_c, 0, 40, 54
1, 263792, Note_off_c, 0, 60, 58
1, 263816, Note_off_c, 0, 72, 59
1, 263940, Control_c, 0, 64, 106
1, 263942, Note_on_c, 0, 72, 79
1, 263947, Note_on_c, 0, 48, 55
1, 263948, Note_on_c, 0, 61, 76
1, 263955, Control_c, 0, 64, 74
1, 263957, Note_on_c, 0, 41, 58
1, 263969, Control_c, 0, 64, 60
1, 263999, Control_c, 0, 64, 65
1, 264013, Control_c, 0, 64, 71
1, 264028, Control_c, 0, 64, 84
1, 264043, Control_c, 0, 64, 111
1, 264058, Note_off_c, 0, 48, 57
1, 264058, Control_c, 0, 64, 127
1, 264060, Note_off_c, 0, 41, 58
1, 264089, Note_off_c, 0, 72, 57
1, 264093, Note_off_c, 0, 61, 58
1, 264180, Note_on_c, 0, 61, 70
1, 264186, Note_on_c, 0, 72, 64
1, 264192, Note_on_c, 0, 48, 58
1, 264196, Note_on_c, 0, 41, 49
1, 264223, Note_off_c, 0, 72, 59
1, 264224, Note_off_c, 0, 48, 65
1, 264225, Note_off_c, 0, 41, 61
1, 264240, Note_off_c, 0, 61, 55
1, 264341, Note_on_c, 0, 41, 55
1, 264345, Note_on_c, 0, 48, 53
1, 264346, Note_on_c, 0, 61, 70
1, 264346, Note_on_c, 0, 72, 70
1, 264395, Note_off_c, 0, 61, 52
1, 264401, Note_off_c, 0, 48, 60
1, 264408, Note_off_c, 0, 41, 58
1, 264411, Note_off_c, 0, 72, 52
1, 264481, Control_c, 0, 64, 86
1, 264495, Control_c, 0, 64, 67
1, 264499, Note_on_c, 0, 62, 64
1, 264502, Note_on_c, 0, 72, 54
1, 264510, Note_on_c, 0, 42, 57
1, 264510, Control_c, 0, 64, 63
1, 264526, Note_on_c, 0, 48, 49
1, 264526, Control_c, 0, 64, 67
1, 264541, Control_c, 0, 64, 74
1, 264551, Note_off_c, 0, 42, 63
1, 264555, Control_c, 0, 64, 88
1, 264558, Note_off_c, 0, 48, 62
1, 264564, Note_off_c, 0, 62, 52
1, 264567, Note_off_c, 0, 72, 54
1, 264570, Control_c, 0, 64, 121
1, 264585, Control_c, 0, 64, 127
1, 264657, Note_on_c, 0, 42, 57
1, 264661, Note_on_c, 0, 48, 44
1, 264665, Note_on_c, 0, 62, 58
1, 264666, Note_on_c, 0, 72, 55
1, 264692, Note_off_c, 0, 72, 60
1, 264701, Note_off_c, 0, 62, 59
1, 264702, Note_off_c, 0, 48, 62
1, 264705, Note_off_c, 0, 42, 59
1, 264811, Note_on_c, 0, 72, 54
1, 264815, Note_on_c, 0, 62, 60
1, 264821, Note_on_c, 0, 42, 51
1, 264830, Note_on_c, 0, 48, 40
1, 264857, Note_off_c, 0, 42, 62
1, 264860, Note_off_c, 0, 62, 54
1, 264873, Note_off_c, 0, 72, 51
1, 264886, Note_off_c, 0, 48, 56
1, 264955, Control_c, 0, 64, 86
1, 264969, Control_c, 0, 64, 67
1, 264984, Control_c, 0, 64, 62
1, 264986, Note_on_c, 0, 63, 59
1, 264986, Note_on_c, 0, 72, 58
1, 264994, Note_on_c, 0, 43, 45
1, 264999, Control_c, 0, 64, 64
1, 265014, Control_c, 0, 64, 68
1, 265026, Note_on_c, 0, 48, 10
1, 265029, Control_c, 0, 64, 75
1, 265038, Note_off_c, 0, 43, 58
1, 265050, Control_c, 0, 64, 87
1, 265058, Note_off_c, 0, 63, 54
1, 265065, Control_c, 0, 64, 113
1, 265070, Note_off_c, 0, 72, 48
1, 265080, Control_c, 0, 64, 127
1, 265081, Note_off_c, 0, 48, 39
1, 265154, Note_on_c, 0, 43, 56
1, 265161, Note_on_c, 0, 63, 57
1, 265171, Note_on_c, 0, 72, 42
1, 265184, Note_on_c, 0, 48, 46
1, 265193, Note_off_c, 0, 63, 60
1, 265200, Note_off_c, 0, 43, 57
1, 265200, Note_off_c, 0, 72, 53
1, 265214, Note_off_c, 0, 48, 55
1, 265303, Note_on_c, 0, 72, 57
1, 265304, Note_on_c, 0, 63, 62
1, 265316, Note_on_c, 0, 43, 54
1, 265318, Note_on_c, 0, 48, 51
1, 265342, Note_off_c, 0, 63, 57
1, 265351, Note_off_c, 0, 72, 55
1, 265364, Note_off_c, 0, 48, 59
1, 265370, Note_off_c, 0, 43, 54
1, 265437, Control_c, 0, 64, 110
1, 265452, Control_c, 0, 64, 85
1, 265466, Control_c, 0, 64, 66
1, 265478, Note_on_c, 0, 64, 55
1, 265479, Note_on_c, 0, 72, 56
1, 265481, Control_c, 0, 64, 62
1, 265485, Note_on_c, 0, 48, 43
1, 265491, Note_on_c, 0, 44, 49
1, 265496, Control_c, 0, 64, 65
1, 265511, Control_c, 0, 64, 69
1, 265526, Control_c, 0, 64, 76
1, 265538, Note_off_c, 0, 48, 56
1, 265540, Control_c, 0, 64, 91
1, 265542, Note_off_c, 0, 44, 59
1, 265555, Control_c, 0, 64, 123
1, 265570, Control_c, 0, 64, 127
1, 265589, Note_off_c, 0, 64, 34
1, 265590, Note_off_c, 0, 72, 35
1, 265652, Note_on_c, 0, 64, 47
1, 265655, Note_on_c, 0, 44, 54
1, 265664, Note_on_c, 0, 72, 45
1, 265678, Note_on_c, 0, 48, 27
1, 265703, Note_off_c, 0, 44, 58
1, 265703, Note_off_c, 0, 72, 58
1, 265712, Note_off_c, 0, 48, 53
1, 265715, Note_off_c, 0, 64, 48
1, 265829, Note_on_c, 0, 44, 54
1, 265840, Note_on_c, 0, 48, 45
1, 265846, Note_on_c, 0, 72, 46
1, 265853, Note_on_c, 0, 64, 43
1, 265884, Note_off_c, 0, 44, 57
1, 265894, Note_off_c, 0, 48, 57
1, 265894, Note_off_c, 0, 64, 52
1, 265899, Note_off_c, 0, 72, 54
1, 265977, Control_c, 0, 64, 119
1, 265992, Control_c, 0, 64, 104
1, 266007, Control_c, 0, 64, 89
1, 266022, Control_c, 0, 64, 78
1, 266037, Note_on_c, 0, 64, 45
1, 266037, Control_c, 0, 64, 74
1, 266046, Note_on_c, 0, 44, 34
1, 266049, Note_on_c, 0, 72, 44
1, 266052, Control_c, 0, 64, 75
1, 266066, Control_c, 0, 64, 81
1, 266081, Note_on_c, 0, 48, 11
1, 266081, Control_c, 0, 64, 92
1, 266096, Control_c, 0, 64, 102
1, 266111, Note_off_c, 0, 44, 50
1, 266111, Control_c, 0, 64, 106
1, 266126, Control_c, 0, 64, 108
1, 266132, Note_off_c, 0, 48, 48
1, 266141, Control_c, 0, 64, 110
1, 266156, Control_c, 0, 64, 113
1, 266163, Note_off_c, 0, 64, 34
1, 266171, Note_off_c, 0, 72, 35
1, 266171, Control_c, 0, 64, 114
1, 266186, Control_c, 0, 64, 115
1, 266201, Control_c, 0, 64, 117
1, 266215, Control_c, 0, 64, 120
1, 266221, Note_on_c, 0, 64, 45
1, 266230, Control_c, 0, 64, 122
1, 266239, Note_on_c, 0, 72, 44
1, 266243, Note_on_c, 0, 44, 52
1, 266245, Control_c, 0, 64, 123
1, 266261, Note_on_c, 0, 48, 33
1, 266281, Note_off_c, 0, 44, 58
1, 266289, Note_off_c, 0, 72, 51
1, 266296, Note_off_c, 0, 48, 52
1, 266331, Note_off_c, 0, 64, 34
1, 266363, Control_c, 0, 64, 120
1, 266378, Control_c, 0, 64, 116
1, 266383, Note_on_c, 0, 44, 53
1, 266383, Note_on_c, 0, 64, 52
1, 266390, Note_on_c, 0, 72, 55
1, 266393, Control_c, 0, 64, 113
1, 266394, Note_on_c, 0, 48, 52
1, 266407, Control_c, 0, 64, 111
1, 266435, Note_off_c, 0, 44, 55
1, 266437, Note_off_c, 0, 48, 59
1, 266448, Note_off_c, 0, 72, 48
1, 266487, Note_off_c, 0, 64, 34
1, 266526, Control_c, 0, 64, 108
1, 266546, Note_on_c, 0, 64, 54
1, 266548, Control_c, 0, 64, 101
1, 266554, Note_on_c, 0, 72, 57
1, 266559, Note_on_c, 0, 44, 63
1, 266563, Note_on_c, 0, 48, 45
1, 266563, Control_c, 0, 64, 96
1, 266578, Control_c, 0, 64, 95
1, 266603, Note_off_c, 0, 44, 61
1, 266608, Control_c, 0, 64, 96
1, 266613, Note_off_c, 0, 48, 42
1, 266616, Note_off_c, 0, 72, 46
1, 266619, Note_off_c, 0, 64, 52
1, 266622, Control_c, 0, 64, 98
1, 266637, Control_c, 0, 64, 102
1, 266652, Control_c, 0, 64, 104
1, 266705, Note_on_c, 0, 44, 57
1, 266715, Note_on_c, 0, 64, 62
1, 266729, Note_on_c, 0, 72, 53
1, 266740, Control_c, 0, 64, 105
1, 266741, Note_on_c, 0, 48, 39
1, 266754, Note_off_c, 0, 72, 57
1, 266755, Control_c, 0, 64, 107
1, 266767, Note_off_c, 0, 44, 52
1, 266769, Note_off_c, 0, 48, 57
1, 266770, Control_c, 0, 64, 108
1, 266785, Control_c, 0, 64, 109
1, 266800, Control_c, 0, 64, 109
1, 266809, Note_off_c, 0, 64, 35
1, 266863, Note_on_c, 0, 64, 61
1, 266866, Note_on_c, 0, 48, 50
1, 266867, Note_on_c, 0, 72, 57
1, 266887, Note_on_c, 0, 44, 55
1, 266915, Note_off_c, 0, 72, 52
1, 266916, Note_off_c, 0, 64, 59
1, 266921, Note_off_c, 0, 48, 55
1, 266923, Note_off_c, 0, 44, 59
1, 266994, Control_c, 0, 64, 104
1, 267009, Control_c, 0, 64, 91
1, 267021, Note_on_c, 0, 44, 58
1, 267024, Control_c, 0, 64, 77
1, 267027, Note_on_c, 0, 65, 68
1, 267030, Note_on_c, 0, 72, 69
1, 267038, Control_c, 0, 64, 71
1, 267053, Control_c, 0, 64, 73
1, 267065, Note_on_c, 0, 48, 25
1, 267068, Control_c, 0, 64, 81
1, 267071, Note_off_c, 0, 44, 59
1, 267083, Control_c, 0, 64, 96
1, 267095, Note_off_c, 0, 65, 54
1, 267098, Control_c, 0, 64, 127
1, 267105, Note_off_c, 0, 48, 52
1, 267107, Note_off_c, 0, 72, 47
1, 267181, Note_on_c, 0, 65, 70
1, 267188, Note_on_c, 0, 44, 61
1, 267196, Note_on_c, 0, 72, 48
1, 267225, Note_on_c, 0, 48, 37
1, 267232, Note_off_c, 0, 44, 59
1, 267235, Note_off_c, 0, 72, 54
1, 267244, Note_off_c, 0, 65, 55
1, 267258, Note_off_c, 0, 48, 53
1, 267350, Note_on_c, 0, 44, 59
1, 267352, Note_on_c, 0, 65, 75
1, 267352, Note_on_c, 0, 72, 64
1, 267381, Note_on_c, 0, 48, 39
1, 267385, Note_off_c, 0, 44, 60
1, 267391, Note_off_c, 0, 65, 55
1, 267393, Note_off_c, 0, 72, 57
1, 267417, Note_off_c, 0, 48, 52
1, 267460, Control_c, 0, 64, 112
1, 267475, Control_c, 0, 64, 101
1, 267490, Control_c, 0, 64, 88
1, 267505, Control_c, 0, 64, 73
1, 267518, Note_on_c, 0, 66, 64
1, 267518, Note_on_c, 0, 72, 61
1, 267519, Control_c, 0, 64, 65
1, 267522, Note_on_c, 0, 45, 53
1, 267527, Note_on_c, 0, 48, 46
1, 267529, Note_on_c, 0, 63, 63
1, 267534, Control_c, 0, 64, 64
1, 267549, Control_c, 0, 64, 66
1, 267563, Control_c, 0, 64, 70
1, 267575, Note_off_c, 0, 45, 53
1, 267577, Note_off_c, 0, 48, 59
1, 267578, Control_c, 0, 64, 77
1, 267593, Control_c, 0, 64, 90
1, 267599, Note_off_c, 0, 63, 58
1, 267608, Note_off_c, 0, 72, 59
1, 267608, Control_c, 0, 64, 111
1, 267611, Note_off_c, 0, 66, 60
1, 267623, Control_c, 0, 64, 127
1, 267693, Note_on_c, 0, 63, 68
1, 267694, Note_on_c, 0, 45, 61
1, 267697, Note_on_c, 0, 66, 59
1, 267700, Note_on_c, 0, 72, 59
1, 267712, Note_on_c, 0, 48, 41
1, 267748, Note_off_c, 0, 48, 51
1, 267759, Note_off_c, 0, 72, 57
1, 267763, Note_off_c, 0, 66, 58
1, 267764, Note_off_c, 0, 45, 48
1, 267793, Note_off_c, 0, 63, 35
1, 267876, Note_on_c, 0, 45, 59
1, 267884, Note_on_c, 0, 48, 41
1, 267888, Note_on_c, 0, 66, 63
1, 267888, Note_on_c, 0, 72, 63
1, 267892, Note_on_c, 0, 63, 60
1, 267915, Note_off_c, 0, 45, 58
1, 267918, Note_off_c, 0, 48, 54
1, 267933, Note_off_c, 0, 63, 60
1, 267940, Note_off_c, 0, 66, 58
1, 267942, Note_off_c, 0, 72, 52
1, 268046, Control_c, 0, 64, 122
1, 268061, Control_c, 0, 64, 113
1, 268076, Control_c, 0, 64, 97
1, 268091, Control_c, 0, 64, 81
1, 268106, Control_c, 0, 64, 67
1, 268111, Note_on_c, 0, 45, 32
1, 268118, Note_on_c, 0, 66, 45
1, 268119, Note_on_c, 0, 72, 59
1, 268120, Note_on_c, 0, 63, 54
1, 268120, Control_c, 0, 64, 59
1, 268130, Note_on_c, 0, 48, 28
1, 268135, Control_c, 0, 64, 58
1, 268150, Control_c, 0, 64, 59
1, 268165, Control_c, 0, 64, 64
1, 268180, Control_c, 0, 64, 71
1, 268183, Note_off_c, 0, 48, 56
1, 268194, Control_c, 0, 64, 83
1, 268209, Control_c, 0, 64, 106
1, 268224, Control_c, 0, 64, 127
1, 268227, Note_off_c, 0, 72, 54
1, 268232, Note_off_c, 0, 63, 36
1, 268241, Note_off_c, 0, 45, 36
1, 268261, Note_off_c, 0, 66, 34
1, 268350, Note_on_c, 0, 45, 48
1, 268362, Note_on_c, 0, 72, 52
1, 268365, Note_on_c, 0, 62, 43
1, 268370, Note_on_c, 0, 50, 38
1, 268382, Note_on_c, 0, 66, 33
1, 268397, Note_off_c, 0, 62, 52
1, 268397, Note_off_c, 0, 72, 60
1, 268401, Note_off_c, 0, 45, 57
1, 268410, Note_off_c, 0, 50, 54
1, 268414, Note_off_c, 0, 66, 54
1, 268515, Note_on_c, 0, 66, 53
1, 268517, Note_on_c, 0, 62, 50
1, 268519, Note_on_c, 0, 72, 53
1, 268521, Control_c, 0, 64, 111
1, 268523, Note_on_c, 0, 45, 47
1, 268534, Note_on_c, 0, 50, 41
1, 268536, Control_c, 0, 64, 99
1, 268551, Control_c, 0, 64, 88
1, 268565, Control_c, 0, 64, 83
1, 268571, Note_off_c, 0, 50, 53
1, 268573, Note_off_c, 0, 62, 47
1, 268575, Note_off_c, 0, 45, 55
1, 268576, Note_off_c, 0, 72, 56
1, 268577, Note_off_c, 0, 66, 53
1, 268580, Control_c, 0, 64, 85
1, 268595, Control_c, 0, 64, 92
1, 268609, Control_c, 0, 64, 102
1, 268624, Control_c, 0, 64, 113
1, 268639, Control_c, 0, 64, 116
1, 268684, Control_c, 0, 64, 116
1, 268696, Note_on_c, 0, 62, 38
1, 268699, Control_c, 0, 64, 115
1, 268700, Note_on_c, 0, 50, 37
1, 268712, Note_on_c, 0, 45, 44
1, 268723, Note_on_c, 0, 66, 26
1, 268728, Note_on_c, 0, 72, 11
1, 268729, Note_off_c, 0, 62, 51
1, 268743, Note_off_c, 0, 45, 54
1, 268747, Note_off_c, 0, 50, 47
1, 268754, Note_off_c, 0, 66, 47
1, 268786, Note_off_c, 0, 72, 51
1, 268839, Control_c, 0, 64, 116
1, 268843, Note_on_c, 0, 62, 46
1, 268860, Note_on_c, 0, 66, 49
1, 268868, Note_on_c, 0, 50, 41
1, 268885, Note_off_c, 0, 66, 59
1, 268889, Note_off_c, 0, 62, 44
1, 268899, Note_off_c, 0, 50, 53
1, 268998, Note_on_c, 0, 66, 43
1, 269007, Note_on_c, 0, 45, 32
1, 269013, Note_on_c, 0, 50, 36
1, 269013, Note_on_c, 0, 62, 39
1, 269037, Note_on_c, 0, 72, 15
1, 269043, Note_off_c, 0, 62, 53
1, 269043, Note_off_c, 0, 66, 53
1, 269064, Note_off_c, 0, 45, 42
1, 269066, Note_off_c, 0, 50, 45
1, 269077, Control_c, 0, 64, 115
1, 269080, Note_off_c, 0, 72, 44
1, 269092, Control_c, 0, 64, 112
1, 269107, Control_c, 0, 64, 108
1, 269122, Control_c, 0, 64, 102
1, 269136, Control_c, 0, 64, 92
1, 269151, Control_c, 0, 64, 80
1, 269166, Control_c, 0, 64, 69
1, 269176, Note_on_c, 0, 62, 44
1, 269179, Note_on_c, 0, 72, 58
1, 269181, Control_c, 0, 64, 63
1, 269190, Note_on_c, 0, 50, 35
1, 269193, Note_on_c, 0, 46, 45
1, 269196, Control_c, 0, 64, 64
1, 269198, Note_on_c, 0, 67, 46
1, 269210, Control_c, 0, 64, 68
1, 269225, Control_c, 0, 64, 73
1, 269235, Note_off_c, 0, 46, 61
1, 269239, Note_off_c, 0, 50, 56
1, 269240, Control_c, 0, 64, 87
1, 269241, Note_off_c, 0, 67, 59
1, 269244, Note_off_c, 0, 72, 54
1, 269255, Control_c, 0, 64, 105
1, 269270, Control_c, 0, 64, 127
1, 269272, Note_off_c, 0, 62, 35
1, 269341, Note_on_c, 0, 46, 54
1, 269353, Note_on_c, 0, 72, 47
1, 269356, Note_on_c, 0, 62, 37
1, 269367, Note_on_c, 0, 67, 41
1, 269383, Note_off_c, 0, 46, 59
1, 269385, Note_off_c, 0, 72, 56
1, 269393, Note_off_c, 0, 62, 48
1, 269398, Note_off_c, 0, 67, 53
1, 269413, Note_on_c, 0, 50, 3
1, 269499, Note_on_c, 0, 72, 55
1, 269501, Note_on_c, 0, 46, 48
1, 269505, Note_on_c, 0, 62, 45
1, 269510, Note_off_c, 0, 50, 0
1, 269517, Note_on_c, 0, 67, 44
1, 269528, Note_on_c, 0, 50, 13
1, 269551, Note_off_c, 0, 62, 47
1, 269553, Note_off_c, 0, 67, 58
1, 269555, Note_off_c, 0, 46, 59
1, 269566, Note_off_c, 0, 72, 56
1, 269582, Note_off_c, 0, 50, 47
1, 269663, Control_c, 0, 64, 94
1, 269678, Control_c, 0, 64, 73
1, 269693, Control_c, 0, 64, 64
1, 269695, Note_on_c, 0, 70, 67
1, 269704, Note_on_c, 0, 67, 44
1, 269705, Note_on_c, 0, 62, 39
1, 269708, Control_c, 0, 64, 64
1, 269713, Note_on_c, 0, 46, 32
1, 269715, Note_on_c, 0, 50, 33
1, 269722, Control_c, 0, 64, 67
1, 269737, Control_c, 0, 64, 73
1, 269752, Control_c, 0, 64, 90
1, 269760, Note_off_c, 0, 50, 46
1, 269763, Note_off_c, 0, 46, 57
1, 269766, Control_c, 0, 64, 122
1, 269781, Control_c, 0, 64, 127
1, 269784, Note_off_c, 0, 70, 56
1, 269791, Note_off_c, 0, 62, 36
1, 269875, Note_off_c, 0, 67, 0
1, 269884, Note_on_c, 0, 46, 48
1, 269885, Note_on_c, 0, 67, 35
1, 269890, Note_on_c, 0, 70, 63
1, 269898, Note_on_c, 0, 50, 35
1, 269906, Note_on_c, 0, 62, 36
1, 269928, Note_off_c, 0, 46, 59
1, 269928, Note_off_c, 0, 70, 57
1, 269933, Note_off_c, 0, 50, 52
1, 269936, Note_off_c, 0, 62, 53
1, 269938, Note_off_c, 0, 67, 60
1, 270052, Note_on_c, 0, 46, 47
1, 270052, Note_on_c, 0, 62, 51
1, 270053, Note_on_c, 0, 70, 66
1, 270070, Note_on_c, 0, 50, 34
1, 270073, Note_on_c, 0, 67, 48
1, 270094, Note_off_c, 0, 62, 59
1, 270096, Note_off_c, 0, 67, 60
1, 270100, Note_off_c, 0, 46, 50
1, 270107, Note_off_c, 0, 70, 56
1, 270124, Note_off_c, 0, 50, 43
1, 270307, Control_c, 0, 64, 117
1, 270318, Note_on_c, 0, 70, 63
1, 270322, Control_c, 0, 64, 87
1, 270334, Note_on_c, 0, 63, 51
1, 270337, Control_c, 0, 64, 68
1, 270344, Note_on_c, 0, 60, 35
1, 270352, Control_c, 0, 64, 58
1, 270353, Note_on_c, 0, 48, 29
1, 270358, Note_on_c, 0, 51, 22
1, 270381, Control_c, 0, 64, 62
1, 270396, Control_c, 0, 64, 67
1, 270411, Control_c, 0, 64, 73
1, 270421, Note_off_c, 0, 48, 51
1, 270421, Note_off_c, 0, 51, 44
1, 270426, Control_c, 0, 64, 85
1, 270441, Control_c, 0, 64, 103
1, 270455, Control_c, 0, 64, 127
1, 270463, Note_off_c, 0, 70, 55
1, 270464, Note_off_c, 0, 63, 50
1, 270478, Note_off_c, 0, 60, 31
1, 270566, Note_on_c, 0, 48, 48
1, 270571, Note_on_c, 0, 51, 35
1, 270581, Note_on_c, 0, 70, 58
1, 270604, Note_on_c, 0, 63, 35
1, 270609, Note_off_c, 0, 51, 53
1, 270614, Note_off_c, 0, 48, 59
1, 270619, Note_off_c, 0, 70, 53
1, 270633, Note_off_c, 0, 63, 55
1, 270746, Note_on_c, 0, 63, 41
1, 270749, Note_on_c, 0, 70, 59
1, 270759, Note_on_c, 0, 51, 32
1, 270762, Note_on_c, 0, 48, 42
1, 270768, Note_on_c, 0, 60, 6
1, 270787, Note_off_c, 0, 63, 54
1, 270806, Note_off_c, 0, 48, 58
1, 270806, Note_off_c, 0, 51, 45
1, 270819, Note_off_c, 0, 70, 38
1, 270827, Note_off_c, 0, 60, 47
1, 270885, Control_c, 0, 64, 99
1, 270901, Control_c, 0, 64, 81
1, 270913, Note_on_c, 0, 69, 64
1, 270916, Control_c, 0, 64, 72
1, 270923, Note_on_c, 0, 63, 37
1, 270929, Note_on_c, 0, 48, 37
1, 270930, Control_c, 0, 64, 72
1, 270945, Control_c, 0, 64, 80
1, 270960, Control_c, 0, 64, 92
1, 270964, Note_off_c, 0, 48, 55
1, 270967, Note_off_c, 0, 63, 54
1, 270968, Note_off_c, 0, 69, 58
1, 270970, Poly_aftertouch_c, 0, 51, 127
1, 270975, Control_c, 0, 64, 114
1, 270990, Control_c, 0, 64, 127
1, 271019, Poly_aftertouch_c, 0, 51, 0
1, 271096, Note_on_c, 0, 63, 48
1, 271100, Note_on_c, 0, 69, 59
1, 271102, Note_on_c, 0, 48, 38
1, 271122, Note_off_c, 0, 63, 57
1, 271135, Note_off_c, 0, 69, 62
1, 271148, Note_off_c, 0, 48, 45
1, 271158, Poly_aftertouch_c, 0, 51, 127
1, 271212, Poly_aftertouch_c, 0, 51, 0
1, 271242, Note_on_c, 0, 63, 54
1, 271242, Note_on_c, 0, 69, 55
1, 271263, Note_on_c, 0, 60, 13
1, 271269, Note_on_c, 0, 48, 47
1, 271269, Note_off_c, 0, 69, 66
1, 271301, Note_off_c, 0, 63, 55
1, 271314, Note_off_c, 0, 48, 55
1, 271316, Note_off_c, 0, 60, 47
1, 271367, Control_c, 0, 64, 109
1, 271382, Control_c, 0, 64, 89
1, 271397, Control_c, 0, 64, 73
1, 271412, Control_c, 0, 64, 65
1, 271426, Note_on_c, 0, 67, 63
1, 271441, Control_c, 0, 64, 70
1, 271444, Note_on_c, 0, 62, 44
1, 271444, Note_on_c, 0, 58, 36
1, 271456, Control_c, 0, 64, 76
1, 271471, Control_c, 0, 64, 87
1, 271486, Control_c, 0, 64, 102
1, 271495, Note_off_c, 0, 58, 43
1, 271501, Control_c, 0, 64, 109
1, 271504, Note_off_c, 0, 67, 54
1, 271504, Note_off_c, 0, 62, 49
1, 271560, Control_c, 0, 64, 110
1, 271575, Control_c, 0, 64, 113
1, 271590, Control_c, 0, 64, 118
1, 271598, Note_on_c, 0, 58, 55
1, 271604, Control_c, 0, 64, 127
1, 271607, Note_on_c, 0, 67, 48
1, 271611, Note_on_c, 0, 50, 38
1, 271646, Note_off_c, 0, 50, 52
1, 271646, Note_off_c, 0, 58, 54
1, 271651, Note_off_c, 0, 67, 54
1, 271666, Poly_aftertouch_c, 0, 62, 127
1, 271722, Poly_aftertouch_c, 0, 62, 0
1, 271761, Note_on_c, 0, 58, 52
1, 271768, Note_on_c, 0, 67, 53
1, 271769, Note_on_c, 0, 50, 38
1, 271810, Note_off_c, 0, 58, 49
1, 271811, Note_off_c, 0, 67, 56
1, 271820, Note_off_c, 0, 50, 47
1, 271894, Control_c, 0, 64, 119
1, 271909, Control_c, 0, 64, 104
1, 271924, Control_c, 0, 64, 88
1, 271939, Control_c, 0, 64, 72
1, 271946, Note_on_c, 0, 62, 42
1, 271947, Note_on_c, 0, 66, 60
1, 271948, Note_on_c, 0, 50, 45
1, 271953, Control_c, 0, 64, 65
1, 271965, Note_on_c, 0, 57, 30
1, 271968, Control_c, 0, 64, 65
1, 271983, Control_c, 0, 64, 69
1, 271998, Control_c, 0, 64, 74
1, 272003, Note_off_c, 0, 57, 51
1, 272011, Note_off_c, 0, 50, 54
1, 272013, Control_c, 0, 64, 84
1, 272025, Note_off_c, 0, 66, 55
1, 272027, Control_c, 0, 64, 97
1, 272042, Control_c, 0, 64, 111
1, 272057, Control_c, 0, 64, 117
1, 272132, Control_c, 0, 64, 117
1, 272147, Control_c, 0, 64, 118
1, 272150, Note_on_c, 0, 57, 40
1, 272151, Note_on_c, 0, 66, 63
1, 272157, Note_on_c, 0, 50, 46
1, 272176, Control_c, 0, 64, 118
1, 272191, Control_c, 0, 64, 119
1, 272198, Note_off_c, 0, 50, 58
1, 272200, Note_off_c, 0, 57, 44
1, 272206, Control_c, 0, 64, 121
1, 272221, Control_c, 0, 64, 124
1, 272235, Control_c, 0, 64, 127
1, 272245, Note_off_c, 0, 66, 35
1, 272263, Note_off_c, 0, 62, 37
1, 272348, Note_on_c, 0, 66, 58
1, 272350, Note_on_c, 0, 50, 38
1, 272362, Note_on_c, 0, 57, 29
1, 272378, Note_on_c, 0, 62, 35
1, 272397, Note_off_c, 0, 57, 51
1, 272409, Note_off_c, 0, 50, 55
1, 272419, Note_off_c, 0, 62, 48
1, 272420, Note_off_c, 0, 66, 47
1, 272570, Control_c, 0, 64, 121
1, 272584, Control_c, 0, 64, 114
1, 272599, Control_c, 0, 64, 107
1, 272614, Control_c, 0, 64, 98
1, 272616, Note_on_c, 0, 62, 37
1, 272616, Note_on_c, 0, 67, 58
1, 272629, Control_c, 0, 64, 88
1, 272637, Note_on_c, 0, 58, 47
1, 272640, Note_on_c, 0, 43, 44
1, 272644, Control_c, 0, 64, 74
1, 272656, Note_on_c, 0, 50, 22
1, 272658, Control_c, 0, 64, 60
1, 272673, Control_c, 0, 64, 16
1, 272688, Control_c, 0, 64, 0
1, 272717, Note_off_c, 0, 50, 51
1, 272762, Control_c, 0, 64, 42
1, 272777, Control_c, 0, 64, 63
1, 272792, Control_c, 0, 64, 71
1, 272807, Control_c, 0, 64, 81
1, 272822, Control_c, 0, 64, 95
1, 272836, Control_c, 0, 64, 105
1, 272851, Control_c, 0, 64, 111
1, 272853, Note_on_c, 0, 50, 47
1, 272866, Control_c, 0, 64, 116
1, 272881, Control_c, 0, 64, 121
1, 272896, Control_c, 0, 64, 127
1, 272908, Note_off_c, 0, 50, 55
1, 273040, Note_on_c, 0, 50, 37
1, 273074, Note_off_c, 0, 50, 52
1, 273197, Note_on_c, 0, 50, 43
1, 273206, Control_c, 0, 64, 112
1, 273221, Control_c, 0, 64, 100
1, 273236, Control_c, 0, 64, 93
1, 273239, Note_off_c, 0, 50, 48
1, 273251, Control_c, 0, 64, 92
1, 273288, Control_c, 0, 64, 94
1, 273304, Control_c, 0, 64, 96
1, 273319, Control_c, 0, 64, 98
1, 273333, Control_c, 0, 64, 99
1, 273376, Note_on_c, 0, 50, 45
1, 273418, Note_off_c, 0, 50, 47
1, 273544, Note_on_c, 0, 50, 41
1, 273555, Control_c, 0, 64, 98
1, 273570, Control_c, 0, 64, 94
1, 273576, Note_off_c, 0, 50, 52
1, 273585, Control_c, 0, 64, 88
1, 273599, Control_c, 0, 64, 80
1, 273614, Control_c, 0, 64, 72
1, 273629, Control_c, 0, 64, 68
1, 273644, Control_c, 0, 64, 70
1, 273659, Control_c, 0, 64, 80
1, 273673, Control_c, 0, 64, 100
1, 273688, Control_c, 0, 64, 127
1, 273690, Note_on_c, 0, 50, 47
1, 273740, Note_off_c, 0, 50, 58
1, 273772, Note_off_c, 0, 58, 51
1, 273788, Note_off_c, 0, 62, 53
1, 273802, Note_off_c, 0, 67, 54
1, 273878, Note_on_c, 0, 50, 41
1, 273895, Control_c, 0, 67, 18
1, 273910, Control_c, 0, 67, 24
1, 273918, Note_off_c, 0, 50, 60
1, 273924, Control_c, 0, 67, 31
1, 273939, Control_c, 0, 67, 37
1, 273954, Control_c, 0, 67, 43
1, 273969, Control_c, 0, 67, 48
1, 273984, Control_c, 0, 67, 53
1, 273999, Control_c, 0, 67, 56
1, 274014, Control_c, 0, 67, 58
1, 274036, Control_c, 0, 67, 59
1, 274049, Note_on_c, 0, 50, 47
1, 274095, Note_off_c, 0, 50, 57
1, 274244, Control_c, 0, 64, 93
1, 274246, Note_on_c, 0, 67, 66
1, 274258, Note_on_c, 0, 50, 37
1, 274259, Control_c, 0, 64, 76
1, 274273, Control_c, 0, 64, 65
1, 274273, Control_c, 0, 67, 59
1, 274288, Control_c, 0, 64, 64
1, 274303, Control_c, 0, 64, 66
1, 274318, Control_c, 0, 64, 70
1, 274333, Control_c, 0, 64, 76
1, 274348, Control_c, 0, 64, 88
1, 274363, Control_c, 0, 64, 100
1, 274378, Control_c, 0, 64, 106
1, 274388, Note_off_c, 0, 50, 34
1, 274422, Control_c, 0, 67, 60
1, 274437, Control_c, 0, 64, 107
1, 274452, Control_c, 0, 64, 109
1, 274461, Note_on_c, 0, 50, 28
1, 274467, Control_c, 0, 64, 111
1, 274481, Control_c, 0, 64, 114
1, 274496, Control_c, 0, 64, 115
1, 274511, Control_c, 0, 64, 115
1, 274511, Control_c, 0, 67, 60
1, 274521, Note_off_c, 0, 50, 57
1, 274526, Control_c, 0, 64, 116
1, 274526, Control_c, 0, 67, 61
1, 274541, Control_c, 0, 64, 118
1, 274541, Control_c, 0, 67, 62
1, 274555, Control_c, 0, 64, 122
1, 274555, Control_c, 0, 67, 64
1, 274570, Control_c, 0, 64, 124
1, 274570, Control_c, 0, 67, 68
1, 274585, Control_c, 0, 64, 127
1, 274585, Control_c, 0, 67, 71
1, 274600, Control_c, 0, 67, 74
1, 274615, Control_c, 0, 67, 76
1, 274629, Control_c, 0, 67, 79
1, 274644, Control_c, 0, 67, 80
1, 274659, Control_c, 0, 67, 82
1, 274669, Note_on_c, 0, 50, 47
1, 274673, Control_c, 0, 67, 84
1, 274688, Control_c, 0, 67, 86
1, 274703, Control_c, 0, 67, 88
1, 274718, Control_c, 0, 67, 89
1, 274733, Control_c, 0, 67, 90
1, 274747, Control_c, 0, 67, 91
1, 274762, Control_c, 0, 67, 91
1, 274785, Control_c, 0, 67, 92
1, 274790, Note_off_c, 0, 43, 36
1, 274799, Control_c, 0, 67, 93
1, 274807, Note_off_c, 0, 50, 32
1, 274814, Control_c, 0, 67, 93
1, 274816, Note_on_c, 0, 70, 58
1, 274888, Control_c, 0, 64, 121
1, 274904, Control_c, 0, 64, 116
1, 274919, Control_c, 0, 64, 110
1, 274934, Control_c, 0, 64, 102
1, 274949, Control_c, 0, 64, 90
1, 274949, Control_c, 0, 67, 94
1, 274964, Control_c, 0, 64, 71
1, 274964, Control_c, 0, 67, 94
1, 274971, Note_off_c, 0, 70, 52
1, 274972, Note_on_c, 0, 74, 59
1, 274977, Note_off_c, 0, 67, 21
1, 274978, Control_c, 0, 64, 55
1, 274978, Control_c, 0, 67, 95
1, 274993, Control_c, 0, 64, 0
1, 274993, Control_c, 0, 67, 96
1, 275008, Control_c, 0, 67, 97
1, 275023, Control_c, 0, 67, 98
1, 275127, Note_on_c, 0, 62, 52
1, 275127, Control_c, 0, 64, 37
1, 275142, Control_c, 0, 64, 45
1, 275157, Control_c, 0, 64, 53
1, 275171, Control_c, 0, 64, 61
1, 275186, Control_c, 0, 64, 65
1, 275186, Control_c, 0, 67, 97
1, 275201, Control_c, 0, 64, 69
1, 275201, Control_c, 0, 67, 96
1, 275216, Control_c, 0, 64, 75
1, 275216, Control_c, 0, 67, 96
1, 275231, Control_c, 0, 64, 83
1, 275231, Control_c, 0, 67, 95
1, 275246, Control_c, 0, 64, 91
1, 275246, Control_c, 0, 67, 95
1, 275247, Note_on_c, 0, 43, 44
1, 275260, Note_on_c, 0, 67, 50
1, 275260, Control_c, 0, 64, 99
1, 275260, Control_c, 0, 67, 94
1, 275275, Control_c, 0, 64, 103
1, 275286, Note_off_c, 0, 62, 39
1, 275290, Control_c, 0, 64, 106
1, 275290, Control_c, 0, 67, 94
1, 275305, Control_c, 0, 64, 109
1, 275320, Control_c, 0, 64, 111
1, 275334, Control_c, 0, 64, 112
1, 275334, Control_c, 0, 67, 93
1, 275357, Note_off_c, 0, 74, 38
1, 275387, Note_on_c, 0, 70, 50
1, 275438, Control_c, 0, 64, 110
1, 275453, Control_c, 0, 64, 106
1, 275468, Control_c, 0, 64, 95
1, 275472, Note_on_c, 0, 74, 72
1, 275482, Note_off_c, 0, 43, 30
1, 275483, Control_c, 0, 64, 79
1, 275497, Control_c, 0, 64, 63
1, 275501, Note_off_c, 0, 67, 40
1, 275510, Note_off_c, 0, 70, 36
1, 275512, Control_c, 0, 64, 44
1, 275534, Control_c, 0, 64, 34
1, 275549, Control_c, 0, 64, 39
1, 275564, Control_c, 0, 64, 52
1, 275579, Control_c, 0, 64, 64
1, 275594, Control_c, 0, 64, 70
1, 275600, Note_on_c, 0, 62, 47
1, 275609, Control_c, 0, 64, 76
1, 275623, Control_c, 0, 64, 84
1, 275638, Control_c, 0, 64, 91
1, 275653, Control_c, 0, 64, 95
1, 275668, Control_c, 0, 64, 97
1, 275676, Note_on_c, 0, 43, 43
1, 275683, Control_c, 0, 64, 98
1, 275684, Note_on_c, 0, 67, 48
1, 275698, Control_c, 0, 64, 99
1, 275709, Note_off_c, 0, 62, 34
1, 275728, Control_c, 0, 64, 99
1, 275743, Control_c, 0, 64, 100
1, 275758, Control_c, 0, 64, 101
1, 275782, Note_off_c, 0, 74, 37
1, 275795, Note_on_c, 0, 70, 56
1, 275846, Control_c, 0, 64, 97
1, 275861, Control_c, 0, 64, 84
1, 275876, Note_off_c, 0, 43, 33
1, 275876, Control_c, 0, 64, 64
1, 275884, Note_on_c, 0, 74, 76
1, 275891, Note_off_c, 0, 67, 45
1, 275891, Note_off_c, 0, 70, 53
1, 275891, Control_c, 0, 64, 28
1, 275906, Control_c, 0, 64, 0
1, 275993, Note_on_c, 0, 62, 53
1, 275994, Control_c, 0, 64, 34
1, 276009, Control_c, 0, 64, 51
1, 276009, Control_c, 0, 67, 94
1, 276024, Control_c, 0, 64, 62
1, 276039, Control_c, 0, 64, 67
1, 276053, Control_c, 0, 64, 72
1, 276060, Note_on_c, 0, 38, 42
1, 276068, Control_c, 0, 64, 77
1, 276079, Note_on_c, 0, 66, 49
1, 276083, Control_c, 0, 64, 85
1, 276098, Control_c, 0, 64, 90
1, 276113, Control_c, 0, 64, 94
1, 276114, Note_off_c, 0, 62, 33
1, 276127, Control_c, 0, 64, 97
1, 276142, Control_c, 0, 64, 98
1, 276157, Control_c, 0, 64, 99
1, 276161, Note_off_c, 0, 74, 40
1, 276172, Note_on_c, 0, 69, 58
1, 276229, Note_off_c, 0, 66, 33
1, 276232, Control_c, 0, 64, 98
1, 276246, Control_c, 0, 64, 85
1, 276256, Note_off_c, 0, 38, 36
1, 276259, Note_on_c, 0, 74, 77
1, 276261, Control_c, 0, 64, 68
1, 276275, Note_off_c, 0, 69, 60
1, 276283, Control_c, 0, 64, 48
1, 276298, Control_c, 0, 64, 0
1, 276327, Control_c, 0, 64, 25
1, 276342, Control_c, 0, 64, 50
1, 276357, Control_c, 0, 64, 64
1, 276368, Note_on_c, 0, 62, 57
1, 276372, Control_c, 0, 64, 70
1, 276387, Control_c, 0, 64, 76
1, 276402, Control_c, 0, 64, 82
1, 276416, Control_c, 0, 64, 88
1, 276431, Control_c, 0, 64, 92
1, 276446, Control_c, 0, 64, 93
1, 276447, Note_on_c, 0, 43, 53
1, 276458, Note_on_c, 0, 67, 58
1, 276461, Control_c, 0, 64, 94
1, 276461, Control_c, 0, 67, 93
1, 276468, Note_off_c, 0, 62, 36
1, 276476, Control_c, 0, 64, 95
1, 276491, Control_c, 0, 64, 95
1, 276498, Note_off_c, 0, 74, 36
1, 276506, Control_c, 0, 64, 96
1, 276521, Control_c, 0, 64, 96
1, 276521, Control_c, 0, 67, 94
1, 276536, Control_c, 0, 64, 97
1, 276566, Note_on_c, 0, 70, 55
1, 276610, Control_c, 0, 64, 94
1, 276625, Control_c, 0, 64, 84
1, 276625, Note_off_c, 0, 43, 38
1, 276640, Control_c, 0, 64, 68
1, 276640, Control_c, 0, 67, 94
1, 276652, Note_on_c, 0, 75, 70
1, 276655, Control_c, 0, 64, 46
1, 276669, Control_c, 0, 64, 0
1, 276669, Control_c, 0, 67, 95
1, 276678, Note_off_c, 0, 67, 53
1, 276703, Note_off_c, 0, 70, 33
1, 276714, Control_c, 0, 64, 28
1, 276729, Control_c, 0, 64, 52
1, 276743, Control_c, 0, 64, 64
1, 276758, Control_c, 0, 64, 69
1, 276770, Note_on_c, 0, 63, 52
1, 276773, Control_c, 0, 64, 74
1, 276788, Control_c, 0, 64, 80
1, 276802, Control_c, 0, 64, 88
1, 276817, Control_c, 0, 64, 92
1, 276828, Note_on_c, 0, 36, 49
1, 276830, Note_on_c, 0, 67, 50
1, 276832, Control_c, 0, 64, 94
1, 276837, Note_off_c, 0, 63, 49
1, 276847, Control_c, 0, 64, 94
1, 276862, Control_c, 0, 64, 95
1, 276932, Note_off_c, 0, 67, 58
1, 276941, Note_on_c, 0, 72, 55
1, 276950, Control_c, 0, 64, 92
1, 276965, Control_c, 0, 64, 80
1, 276980, Control_c, 0, 64, 64
1, 276983, Note_off_c, 0, 36, 50
1, 276995, Control_c, 0, 67, 95
1, 277001, Note_off_c, 0, 72, 57
1, 277010, Control_c, 0, 64, 0
1, 277038, Note_on_c, 0, 66, 60
1, 277076, Control_c, 0, 64, 28
1, 277091, Control_c, 0, 64, 48
1, 277106, Control_c, 0, 64, 60
1, 277121, Control_c, 0, 64, 67
1, 277126, Note_on_c, 0, 72, 55
1, 277136, Control_c, 0, 64, 70
1, 277136, Control_c, 0, 67, 95
1, 277150, Control_c, 0, 64, 76
1, 277165, Note_off_c, 0, 66, 32
1, 277165, Control_c, 0, 64, 82
1, 277165, Control_c, 0, 67, 94
1, 277180, Control_c, 0, 64, 87
1, 277195, Control_c, 0, 64, 91
1, 277195, Control_c, 0, 67, 94
1, 277199, Note_on_c, 0, 36, 53
1, 277209, Control_c, 0, 64, 94
1, 277211, Note_on_c, 0, 69, 63
1, 277224, Control_c, 0, 64, 97
1, 277239, Control_c, 0, 64, 99
1, 277254, Control_c, 0, 64, 101
1, 277268, Note_off_c, 0, 72, 44
1, 277281, Note_off_c, 0, 75, 35
1, 277295, Note_on_c, 0, 66, 58
1, 277329, Control_c, 0, 67, 93
1, 277333, Note_off_c, 0, 69, 36
1, 277373, Control_c, 0, 64, 100
1, 277388, Control_c, 0, 64, 94
1, 277403, Control_c, 0, 64, 75
1, 277406, Note_on_c, 0, 74, 79
1, 277416, Note_off_c, 0, 66, 56
1, 277418, Note_off_c, 0, 36, 39
1, 277418, Control_c, 0, 64, 54
1, 277418, Control_c, 0, 67, 93
1, 277433, Control_c, 0, 64, 0
1, 277448, Control_c, 0, 67, 92
1, 277492, Control_c, 0, 67, 91
1, 277506, Note_on_c, 0, 62, 55
1, 277522, Control_c, 0, 64, 16
1, 277537, Control_c, 0, 64, 37
1, 277552, Control_c, 0, 64, 52
1, 277566, Control_c, 0, 64, 62
1, 277581, Control_c, 0, 64, 66
1, 277582, Note_off_c, 0, 62, 53
1, 277594, Note_on_c, 0, 43, 50
1, 277596, Control_c, 0, 64, 70
1, 277602, Note_on_c, 0, 67, 50
1, 277611, Control_c, 0, 64, 75
1, 277625, Control_c, 0, 64, 82
1, 277640, Control_c, 0, 64, 90
1, 277640, Control_c, 0, 67, 91
1, 277655, Control_c, 0, 64, 95
1, 277670, Control_c, 0, 64, 97
1, 277670, Control_c, 0, 67, 90
1, 277685, Control_c, 0, 64, 97
1, 277697, Note_on_c, 0, 70, 55
1, 277747, Note_off_c, 0, 70, 52
1, 277759, Control_c, 0, 64, 97
1, 277763, Note_off_c, 0, 67, 30
1, 277781, Control_c, 0, 64, 90
1, 277791, Note_on_c, 0, 62, 62
1, 277796, Control_c, 0, 64, 74
1, 277803, Note_off_c, 0, 43, 30
1, 277811, Control_c, 0, 64, 54
1, 277825, Control_c, 0, 64, 0
1, 277871, Note_off_c, 0, 62, 43
1, 277880, Note_on_c, 0, 70, 61
1, 277944, Control_c, 0, 64, 37
1, 277959, Control_c, 0, 64, 58
1, 277973, Note_on_c, 0, 67, 55
1, 277973, Control_c, 0, 64, 66
1, 277974, Note_off_c, 0, 74, 41
1, 277978, Note_on_c, 0, 43, 50
1, 277988, Control_c, 0, 64, 70
1, 278003, Control_c, 0, 64, 76
1, 278017, Control_c, 0, 64, 84
1, 278032, Control_c, 0, 64, 90
1, 278047, Control_c, 0, 64, 94
1, 278047, Control_c, 0, 67, 90
1, 278056, Note_off_c, 0, 70, 37
1, 278062, Control_c, 0, 64, 95
1, 278064, Note_off_c, 0, 67, 55
1, 278077, Control_c, 0, 64, 96
1, 278077, Control_c, 0, 67, 89
1, 278078, Note_on_c, 0, 62, 51
1, 278136, Control_c, 0, 64, 94
1, 278151, Control_c, 0, 64, 82
1, 278157, Note_off_c, 0, 62, 51
1, 278159, Note_on_c, 0, 72, 78
1, 278166, Control_c, 0, 64, 64
1, 278169, Note_off_c, 0, 43, 34
1, 278181, Control_c, 0, 64, 31
1, 278196, Control_c, 0, 64, 0
1, 278267, Note_on_c, 0, 60, 55
1, 278300, Control_c, 0, 67, 90
1, 278314, Control_c, 0, 64, 29
1, 278329, Control_c, 0, 64, 47
1, 278344, Control_c, 0, 64, 57
1, 278358, Note_on_c, 0, 44, 47
1, 278359, Note_on_c, 0, 63, 54
1, 278359, Control_c, 0, 64, 64
1, 278369, Note_off_c, 0, 60, 35
1, 278374, Control_c, 0, 64, 68
1, 278388, Control_c, 0, 64, 72
1, 278403, Control_c, 0, 64, 77
1, 278418, Control_c, 0, 64, 82
1, 278433, Control_c, 0, 64, 85
1, 278442, Note_off_c, 0, 63, 56
1, 278447, Control_c, 0, 64, 85
1, 278449, Note_on_c, 0, 66, 53
1, 278523, Note_off_c, 0, 66, 54
1, 278529, Control_c, 0, 64, 84
1, 278543, Note_on_c, 0, 60, 60
1, 278544, Control_c, 0, 64, 74
1, 278554, Note_off_c, 0, 44, 55
1, 278559, Control_c, 0, 64, 59
1, 278573, Control_c, 0, 64, 17
1, 278588, Control_c, 0, 64, 0
1, 278633, Control_c, 0, 64, 26
1, 278638, Note_off_c, 0, 60, 47
1, 278647, Control_c, 0, 64, 50
1, 278649, Note_on_c, 0, 66, 57
1, 278662, Control_c, 0, 64, 62
1, 278677, Control_c, 0, 64, 67
1, 278692, Control_c, 0, 64, 70
1, 278707, Control_c, 0, 64, 73
1, 278715, Note_off_c, 0, 72, 42
1, 278721, Control_c, 0, 64, 77
1, 278729, Note_on_c, 0, 45, 51
1, 278736, Control_c, 0, 64, 81
1, 278742, Note_on_c, 0, 63, 55
1, 278751, Control_c, 0, 64, 83
1, 278765, Control_c, 0, 64, 85
1, 278780, Control_c, 0, 64, 85
1, 278795, Control_c, 0, 64, 86
1, 278806, Note_off_c, 0, 66, 33
1, 278827, Note_off_c, 0, 63, 58
1, 278837, Note_on_c, 0, 60, 53
1, 278867, Note_off_c, 0, 45, 55
1, 278870, Control_c, 0, 64, 81
1, 278885, Control_c, 0, 64, 69
1, 278900, Control_c, 0, 64, 52
1, 278901, Note_off_c, 0, 60, 55
1, 278915, Control_c, 0, 64, 0
1, 278920, Note_on_c, 0, 70, 76
1, 278989, Control_c, 0, 67, 90
1, 279004, Control_c, 0, 64, 32
1, 279019, Control_c, 0, 64, 51
1, 279026, Note_on_c, 0, 58, 52
1, 279034, Control_c, 0, 64, 63
1, 279049, Control_c, 0, 64, 67
1, 279064, Control_c, 0, 64, 69
1, 279064, Control_c, 0, 67, 90
1, 279078, Control_c, 0, 64, 71
1, 279093, Control_c, 0, 64, 72
1, 279093, Note_off_c, 0, 58, 57
1, 279096, Note_on_c, 0, 62, 54
1, 279108, Control_c, 0, 64, 74
1, 279109, Note_on_c, 0, 46, 50
1, 279123, Control_c, 0, 64, 75
1, 279138, Control_c, 0, 64, 76
1, 279197, Note_on_c, 0, 67, 56
1, 279197, Control_c, 0, 64, 76
1, 279211, Control_c, 0, 64, 74
1, 279226, Control_c, 0, 64, 71
1, 279226, Control_c, 0, 67, 89
1, 279237, Note_off_c, 0, 62, 34
1, 279241, Control_c, 0, 64, 68
1, 279256, Control_c, 0, 64, 67
1, 279270, Note_off_c, 0, 67, 56
1, 279278, Control_c, 0, 67, 90
1, 279284, Note_off_c, 0, 46, 52
1, 279293, Control_c, 0, 64, 65
1, 279299, Note_on_c, 0, 58, 62
1, 279308, Control_c, 0, 64, 60
1, 279308, Control_c, 0, 67, 91
1, 279323, Control_c, 0, 64, 46
1, 279323, Control_c, 0, 67, 91
1, 279338, Control_c, 0, 64, 0
1, 279338, Control_c, 0, 67, 92
1, 279352, Control_c, 0, 67, 93
1, 279382, Control_c, 0, 67, 93
1, 279391, Note_on_c, 0, 67, 68
1, 279394, Note_off_c, 0, 58, 55
1, 279456, Control_c, 0, 67, 93
1, 279469, Note_on_c, 0, 62, 65
1, 279470, Control_c, 0, 64, 16
1, 279470, Control_c, 0, 67, 90
1, 279472, Note_on_c, 0, 50, 58
1, 279485, Control_c, 0, 64, 49
1, 279485, Control_c, 0, 67, 88
1, 279500, Control_c, 0, 64, 64
1, 279500, Control_c, 0, 67, 86
1, 279515, Control_c, 0, 64, 70
1, 279515, Control_c, 0, 67, 84
1, 279526, Note_off_c, 0, 67, 47
1, 279530, Control_c, 0, 64, 77
1, 279530, Control_c, 0, 67, 81
1, 279544, Control_c, 0, 64, 88
1, 279544, Control_c, 0, 67, 77
1, 279559, Control_c, 0, 64, 102
1, 279559, Control_c, 0, 67, 71
1, 279560, Note_off_c, 0, 70, 36
1, 279574, Control_c, 0, 64, 109
1, 279574, Control_c, 0, 67, 61
1, 279577, Note_on_c, 0, 58, 57
1, 279577, Note_off_c, 0, 62, 56
1, 279589, Control_c, 0, 67, 46
1, 279590, Note_off_c, 0, 50, 56
1, 279603, Control_c, 0, 67, 29
1, 279610, Note_off_c, 0, 58, 63
1, 279618, Control_c, 0, 64, 108
1, 279618, Control_c, 0, 67, 27
1, 279633, Control_c, 0, 64, 105
1, 279648, Control_c, 0, 64, 96
1, 279648, Control_c, 0, 67, 0
1, 279663, Control_c, 0, 64, 80
1, 279666, Note_on_c, 0, 69, 82
1, 279678, Control_c, 0, 64, 62
1, 279693, Control_c, 0, 64, 17
1, 279708, Control_c, 0, 64, 0
1, 279757, Note_on_c, 0, 57, 60
1, 279767, Control_c, 0, 64, 37
1, 279782, Control_c, 0, 64, 56
1, 279797, Control_c, 0, 64, 65
1, 279812, Control_c, 0, 64, 70
1, 279827, Control_c, 0, 64, 75
1, 279836, Note_on_c, 0, 51, 49
1, 279842, Control_c, 0, 64, 80
1, 279856, Control_c, 0, 64, 86
1, 279871, Note_on_c, 0, 60, 51
1, 279871, Control_c, 0, 64, 89
1, 279873, Note_off_c, 0, 57, 36
1, 279886, Control_c, 0, 64, 90
1, 279901, Control_c, 0, 64, 91
1, 279904, Note_off_c, 0, 51, 0
1, 279916, Control_c, 0, 64, 91
1, 279941, Poly_aftertouch_c, 0, 51, 127
1, 279952, Note_off_c, 0, 60, 56
1, 279954, Note_on_c, 0, 63, 52
1, 279973, Note_off_c, 0, 69, 38
1, 279977, Note_off_c, 0, 63, 60
1, 279990, Control_c, 0, 64, 91
1, 279994, Poly_aftertouch_c, 0, 51, 0
1, 280005, Control_c, 0, 64, 86
1, 280026, Control_c, 0, 64, 72
1, 280041, Control_c, 0, 64, 56
1, 280045, Note_on_c, 0, 72, 78
1, 280056, Control_c, 0, 64, 18
1, 280071, Control_c, 0, 64, 0
1, 280086, Control_c, 0, 64, 34
1, 280101, Control_c, 0, 64, 54
1, 280116, Control_c, 0, 64, 64
1, 280131, Control_c, 0, 64, 70
1, 280145, Note_on_c, 0, 63, 54
1, 280146, Control_c, 0, 64, 74
1, 280160, Control_c, 0, 64, 79
1, 280175, Control_c, 0, 64, 83
1, 280190, Control_c, 0, 64, 84
1, 280205, Control_c, 0, 64, 85
1, 280231, Note_on_c, 0, 48, 53
1, 280231, Note_off_c, 0, 63, 53
1, 280250, Note_on_c, 0, 67, 56
1, 280293, Note_off_c, 0, 72, 35
1, 280357, Note_on_c, 0, 69, 51
1, 280381, Control_c, 0, 64, 82
1, 280396, Control_c, 0, 64, 72
1, 280411, Control_c, 0, 64, 57
1, 280416, Note_off_c, 0, 48, 59
1, 280420, Note_off_c, 0, 67, 50
1, 280420, Note_off_c, 0, 69, 57
1, 280426, Note_on_c, 0, 70, 79
1, 280441, Control_c, 0, 64, 0
1, 280486, Control_c, 0, 64, 28
1, 280501, Control_c, 0, 64, 52
1, 280515, Control_c, 0, 64, 63
1, 280530, Control_c, 0, 64, 68
1, 280536, Note_on_c, 0, 58, 59
1, 280545, Control_c, 0, 64, 72
1, 280560, Control_c, 0, 64, 76
1, 280575, Control_c, 0, 64, 82
1, 280589, Note_off_c, 0, 58, 52
1, 280590, Control_c, 0, 64, 85
1, 280605, Control_c, 0, 64, 87
1, 280618, Note_on_c, 0, 62, 63
1, 280620, Control_c, 0, 64, 89
1, 280623, Note_off_c, 0, 70, 56
1, 280628, Note_on_c, 0, 50, 53
1, 280634, Control_c, 0, 64, 91
1, 280649, Control_c, 0, 64, 92
1, 280664, Control_c, 0, 64, 93
1, 280729, Note_on_c, 0, 67, 60
1, 280775, Control_c, 0, 64, 92
1, 280789, Control_c, 0, 64, 79
1, 280804, Control_c, 0, 64, 63
1, 280807, Note_on_c, 0, 69, 78
1, 280817, Note_off_c, 0, 50, 50
1, 280819, Control_c, 0, 64, 24
1, 280825, Note_off_c, 0, 67, 54
1, 280834, Control_c, 0, 64, 0
1, 280836, Note_off_c, 0, 62, 34
1, 280918, Note_on_c, 0, 60, 56
1, 280967, Control_c, 0, 64, 21
1, 280982, Control_c, 0, 64, 25
1, 280995, Note_off_c, 0, 60, 55
1, 280997, Note_on_c, 0, 62, 58
1, 280997, Control_c, 0, 64, 25
1, 281010, Note_on_c, 0, 38, 57
1, 281012, Control_c, 0, 64, 26
1, 281027, Control_c, 0, 64, 27
1, 281041, Control_c, 0, 64, 28
1, 281056, Note_off_c, 0, 69, 45
1, 281056, Control_c, 0, 64, 30
1, 281071, Control_c, 0, 64, 32
1, 281086, Control_c, 0, 64, 33
1, 281101, Control_c, 0, 64, 33
1, 281102, Note_on_c, 0, 66, 53
1, 281115, Control_c, 0, 64, 34
1, 281130, Control_c, 0, 64, 35
1, 281140, Note_off_c, 0, 38, 61
1, 281145, Control_c, 0, 64, 36
1, 281182, Note_off_c, 0, 62, 59
1, 281188, Note_on_c, 0, 67, 72
1, 281191, Note_off_c, 0, 66, 60
1, 281278, Control_c, 0, 64, 36
1, 281299, Note_on_c, 0, 55, 54
1, 281373, Note_on_c, 0, 43, 55
1, 281386, Note_on_c, 0, 58, 54
1, 281395, Note_off_c, 0, 55, 36
1, 281415, Note_off_c, 0, 43, 61
1, 281462, Note_off_c, 0, 58, 59
1, 281479, Note_on_c, 0, 62, 57
1, 281577, Note_on_c, 0, 45, 69
1, 281579, Note_off_c, 0, 62, 59
1, 281585, Note_on_c, 0, 63, 64
1, 281587, Note_off_c, 0, 67, 0
1, 281615, Note_off_c, 0, 45, 62
1, 281624, Poly_aftertouch_c, 0, 67, 127
1, 281664, Note_on_c, 0, 60, 64
1, 281664, Note_off_c, 0, 63, 56
1, 281717, Control_c, 0, 64, 36
1, 281746, Note_off_c, 0, 60, 58
1, 281746, Control_c, 0, 64, 37
1, 281759, Note_on_c, 0, 48, 76
1, 281766, Note_on_c, 0, 57, 61
1, 281797, Note_off_c, 0, 48, 61
1, 281865, Note_off_c, 0, 57, 59
1, 281869, Note_on_c, 0, 63, 66
1, 281882, Poly_aftertouch_c, 0, 67, 0
1, 281910, Control_c, 0, 64, 37
1, 281954, Control_c, 0, 64, 38
1, 281955, Note_on_c, 0, 46, 82
1, 281967, Note_on_c, 0, 62, 66
1, 281968, Note_off_c, 0, 63, 60
1, 282012, Note_off_c, 0, 46, 60
1, 282048, Note_off_c, 0, 62, 59
1, 282058, Note_on_c, 0, 58, 70
1, 282072, Control_c, 0, 64, 38
1, 282088, Control_c, 0, 64, 39
1, 282103, Control_c, 0, 64, 40
1, 282118, Control_c, 0, 64, 40
1, 282122, Note_off_c, 0, 58, 57
1, 282145, Note_on_c, 0, 55, 84
1, 282148, Control_c, 0, 64, 41
1, 282154, Note_on_c, 0, 62, 66
1, 282205, Note_off_c, 0, 55, 58
1, 282229, Note_on_c, 0, 66, 69
1, 282251, Control_c, 0, 64, 41
1, 282265, Note_off_c, 0, 62, 46
1, 282288, Control_c, 0, 64, 42
1, 282318, Control_c, 0, 64, 42
1, 282334, Note_on_c, 0, 50, 75
1, 282335, Note_on_c, 0, 67, 71
1, 282381, Note_off_c, 0, 50, 55
1, 282387, Note_off_c, 0, 66, 36
1, 282420, Note_on_c, 0, 62, 59
1, 282420, Note_off_c, 0, 67, 60
1, 282436, Control_c, 0, 64, 43
1, 282451, Control_c, 0, 64, 43
1, 282466, Control_c, 0, 64, 44
1, 282481, Control_c, 0, 64, 45
1, 282495, Control_c, 0, 64, 47
1, 282510, Control_c, 0, 64, 49
1, 282521, Note_off_c, 0, 62, 49
1, 282522, Note_on_c, 0, 46, 62
1, 282525, Control_c, 0, 64, 50
1, 282529, Note_on_c, 0, 67, 55
1, 282562, Note_off_c, 0, 46, 60
1, 282569, Control_c, 0, 64, 49
1, 282599, Control_c, 0, 64, 49
1, 282629, Note_on_c, 0, 70, 45
1, 282673, Control_c, 0, 64, 48
1, 282688, Control_c, 0, 64, 45
1, 282700, Note_off_c, 0, 67, 28
1, 282703, Control_c, 0, 64, 33
1, 282710, Note_on_c, 0, 74, 68
1, 282712, Note_off_c, 0, 70, 48
1, 282718, Control_c, 0, 64, 0
1, 282818, Note_on_c, 0, 62, 48
1, 282851, Control_c, 0, 64, 33
1, 282866, Control_c, 0, 64, 51
1, 282882, Control_c, 0, 64, 61
1, 282897, Control_c, 0, 64, 66
1, 282905, Note_off_c, 0, 62, 52
1, 282907, Note_on_c, 0, 43, 47
1, 282911, Note_on_c, 0, 67, 46
1, 282911, Control_c, 0, 64, 70
1, 282926, Control_c, 0, 64, 76
1, 282941, Control_c, 0, 64, 82
1, 282955, Control_c, 0, 64, 88
1, 282970, Control_c, 0, 64, 91
1, 282985, Control_c, 0, 64, 92
1, 283000, Control_c, 0, 64, 93
1, 283024, Note_off_c, 0, 74, 38
1, 283034, Note_on_c, 0, 70, 53
1, 283087, Note_off_c, 0, 43, 55
1, 283097, Control_c, 0, 64, 90
1, 283111, Control_c, 0, 64, 77
1, 283118, Note_off_c, 0, 70, 47
1, 283118, Note_off_c, 0, 67, 51
1, 283121, Note_on_c, 0, 74, 78
1, 283126, Control_c, 0, 64, 58
1, 283156, Control_c, 0, 64, 0
1, 283200, Control_c, 0, 64, 25
1, 283215, Control_c, 0, 64, 50
1, 283228, Note_on_c, 0, 62, 49
1, 283230, Control_c, 0, 64, 62
1, 283244, Control_c, 0, 64, 66
1, 283259, Control_c, 0, 64, 69
1, 283274, Control_c, 0, 64, 72
1, 283289, Control_c, 0, 64, 76
1, 283303, Note_on_c, 0, 43, 43
1, 283304, Control_c, 0, 64, 81
1, 283313, Note_on_c, 0, 67, 48
1, 283318, Control_c, 0, 64, 84
1, 283325, Note_off_c, 0, 62, 35
1, 283333, Control_c, 0, 64, 87
1, 283348, Control_c, 0, 64, 89
1, 283362, Control_c, 0, 64, 90
1, 283377, Control_c, 0, 64, 91
1, 283392, Control_c, 0, 64, 92
1, 283396, Note_off_c, 0, 74, 39
1, 283416, Note_on_c, 0, 70, 53
1, 283478, Note_off_c, 0, 43, 53
1, 283481, Control_c, 0, 64, 89
1, 283496, Control_c, 0, 64, 78
1, 283499, Note_on_c, 0, 74, 79
1, 283506, Note_off_c, 0, 67, 47
1, 283508, Note_off_c, 0, 70, 50
1, 283511, Control_c, 0, 64, 62
1, 283526, Control_c, 0, 64, 20
1, 283541, Control_c, 0, 64, 0
1, 283600, Control_c, 0, 64, 38
1, 283615, Control_c, 0, 64, 56
1, 283618, Note_on_c, 0, 62, 45
1, 283629, Control_c, 0, 64, 64
1, 283644, Control_c, 0, 64, 68
1, 283659, Control_c, 0, 64, 70
1, 283674, Control_c, 0, 64, 74
1, 283681, Note_on_c, 0, 38, 43
1, 283690, Control_c, 0, 64, 78
1, 283693, Note_on_c, 0, 66, 55
1, 283705, Control_c, 0, 64, 81
1, 283720, Control_c, 0, 64, 84
1, 283724, Note_off_c, 0, 62, 35
1, 283734, Control_c, 0, 64, 87
1, 283749, Control_c, 0, 64, 88
1, 283771, Control_c, 0, 64, 89
1, 283804, Note_on_c, 0, 69, 59
1, 283807, Note_off_c, 0, 74, 40
1, 283856, Note_off_c, 0, 38, 44
1, 283860, Control_c, 0, 64, 87
1, 283861, Note_off_c, 0, 66, 29
1, 283875, Control_c, 0, 64, 75
1, 283890, Control_c, 0, 64, 61
1, 283891, Note_off_c, 0, 69, 61
1, 283897, Note_on_c, 0, 74, 79
1, 283905, Control_c, 0, 64, 36
1, 283934, Control_c, 0, 64, 16
1, 283949, Control_c, 0, 64, 37
1, 283964, Control_c, 0, 64, 53
1, 283979, Control_c, 0, 64, 64
1, 283993, Control_c, 0, 64, 70
1, 283999, Note_on_c, 0, 62, 57
1, 284008, Control_c, 0, 64, 74
1, 284023, Control_c, 0, 64, 79
1, 284038, Control_c, 0, 64, 83
1, 284052, Control_c, 0, 64, 87
1, 284066, Control_c, 0, 64, 89
1, 284075, Note_on_c, 0, 43, 55
1, 284081, Control_c, 0, 64, 90
1, 284085, Note_on_c, 0, 67, 64
1, 284096, Control_c, 0, 64, 91
1, 284111, Note_off_c, 0, 62, 34
1, 284126, Control_c, 0, 64, 92
1, 284131, Note_off_c, 0, 74, 33
1, 284140, Control_c, 0, 64, 93
1, 284155, Control_c, 0, 64, 93
1, 284191, Note_on_c, 0, 70, 58
1, 284229, Note_off_c, 0, 43, 51
1, 284244, Control_c, 0, 64, 90
1, 284259, Control_c, 0, 64, 78
1, 284274, Control_c, 0, 64, 62
1, 284279, Note_on_c, 0, 75, 73
1, 284303, Control_c, 0, 64, 0
1, 284305, Note_off_c, 0, 67, 59
1, 284326, Note_off_c, 0, 70, 36
1, 284363, Control_c, 0, 64, 23
1, 284377, Control_c, 0, 64, 45
1, 284387, Note_on_c, 0, 63, 55
1, 284392, Control_c, 0, 64, 59
1, 284407, Control_c, 0, 64, 64
1, 284422, Control_c, 0, 64, 67
1, 284437, Control_c, 0, 64, 69
1, 284452, Control_c, 0, 64, 73
1, 284453, Note_on_c, 0, 67, 48
1, 284456, Note_on_c, 0, 36, 47
1, 284459, Note_off_c, 0, 63, 54
1, 284466, Control_c, 0, 64, 77
1, 284482, Control_c, 0, 64, 80
1, 284497, Control_c, 0, 64, 84
1, 284519, Control_c, 0, 64, 86
1, 284534, Control_c, 0, 64, 88
1, 284565, Note_on_c, 0, 72, 59
1, 284569, Note_off_c, 0, 67, 57
1, 284608, Control_c, 0, 64, 86
1, 284623, Control_c, 0, 64, 78
1, 284632, Note_off_c, 0, 36, 53
1, 284638, Control_c, 0, 64, 64
1, 284642, Note_off_c, 0, 72, 58
1, 284653, Control_c, 0, 64, 43
1, 284659, Note_on_c, 0, 69, 65
1, 284668, Control_c, 0, 64, 0
1, 284718, Note_off_c, 0, 69, 61
1, 284727, Control_c, 0, 64, 35
1, 284741, Control_c, 0, 64, 52
1, 284743, Note_on_c, 0, 72, 53
1, 284756, Control_c, 0, 64, 63
1, 284771, Control_c, 0, 64, 66
1, 284786, Control_c, 0, 64, 68
1, 284802, Control_c, 0, 64, 70
1, 284816, Control_c, 0, 64, 74
1, 284831, Control_c, 0, 64, 79
1, 284835, Note_on_c, 0, 69, 64
1, 284838, Note_on_c, 0, 41, 53
1, 284846, Control_c, 0, 64, 84
1, 284861, Control_c, 0, 64, 89
1, 284876, Control_c, 0, 64, 92
1, 284877, Note_off_c, 0, 72, 36
1, 284890, Control_c, 0, 64, 93
1, 284902, Note_off_c, 0, 75, 31
1, 284905, Control_c, 0, 64, 94
1, 284914, Note_off_c, 0, 69, 56
1, 284932, Note_on_c, 0, 65, 54
1, 285007, Note_off_c, 0, 41, 58
1, 285008, Control_c, 0, 64, 92
1, 285014, Note_off_c, 0, 65, 53
1, 285018, Note_on_c, 0, 74, 78
1, 285023, Control_c, 0, 64, 82
1, 285038, Control_c, 0, 64, 67
1, 285053, Control_c, 0, 64, 45
1, 285068, Control_c, 0, 64, 0
1, 285121, Note_on_c, 0, 62, 64
1, 285186, Control_c, 0, 64, 27
1, 285192, Note_off_c, 0, 62, 54
1, 285201, Control_c, 0, 64, 47
1, 285216, Control_c, 0, 64, 59
1, 285230, Note_on_c, 0, 65, 33
1, 285231, Control_c, 0, 64, 64
1, 285231, Note_on_c, 0, 34, 46
1, 285246, Control_c, 0, 64, 66
1, 285268, Control_c, 0, 64, 68
1, 285284, Control_c, 0, 64, 72
1, 285299, Control_c, 0, 64, 76
1, 285308, Note_off_c, 0, 65, 60
1, 285313, Control_c, 0, 64, 79
1, 285318, Note_on_c, 0, 70, 55
1, 285328, Control_c, 0, 64, 82
1, 285343, Control_c, 0, 64, 84
1, 285357, Control_c, 0, 64, 85
1, 285385, Note_off_c, 0, 70, 54
1, 285392, Note_off_c, 0, 34, 53
1, 285409, Note_on_c, 0, 65, 54
1, 285417, Control_c, 0, 64, 82
1, 285431, Control_c, 0, 64, 72
1, 285446, Control_c, 0, 64, 59
1, 285461, Control_c, 0, 64, 34
1, 285476, Control_c, 0, 64, 0
1, 285478, Note_off_c, 0, 65, 54
1, 285499, Note_on_c, 0, 70, 62
1, 285535, Control_c, 0, 64, 30
1, 285550, Control_c, 0, 64, 47
1, 285565, Control_c, 0, 64, 59
1, 285580, Control_c, 0, 64, 65
1, 285595, Note_on_c, 0, 65, 64
1, 285595, Control_c, 0, 64, 68
1, 285601, Note_on_c, 0, 46, 47
1, 285603, Note_off_c, 0, 74, 42
1, 285610, Control_c, 0, 64, 71
1, 285614, Note_off_c, 0, 70, 52
1, 285624, Control_c, 0, 64, 74
1, 285639, Control_c, 0, 64, 78
1, 285654, Control_c, 0, 64, 81
1, 285669, Control_c, 0, 64, 84
1, 285682, Note_off_c, 0, 65, 56
1, 285684, Control_c, 0, 64, 86
1, 285691, Note_on_c, 0, 62, 59
1, 285699, Control_c, 0, 64, 87
1, 285756, Note_off_c, 0, 46, 35
1, 285772, Control_c, 0, 64, 86
1, 285780, Note_off_c, 0, 62, 50
1, 285787, Control_c, 0, 64, 81
1, 285794, Note_on_c, 0, 72, 73
1, 285802, Control_c, 0, 64, 71
1, 285817, Control_c, 0, 64, 58
1, 285831, Control_c, 0, 64, 23
1, 285846, Control_c, 0, 64, 0
1, 285895, Note_on_c, 0, 60, 61
1, 285935, Control_c, 0, 64, 20
1, 285949, Control_c, 0, 64, 46
1, 285964, Control_c, 0, 64, 61
1, 285970, Note_off_c, 0, 60, 49
1, 285979, Note_on_c, 0, 63, 61
1, 285979, Control_c, 0, 64, 67
1, 285994, Control_c, 0, 64, 70
1, 286009, Note_on_c, 0, 45, 48
1, 286017, Control_c, 0, 64, 73
1, 286031, Control_c, 0, 64, 75
1, 286046, Control_c, 0, 64, 78
1, 286061, Control_c, 0, 64, 80
1, 286076, Control_c, 0, 64, 80
1, 286092, Note_on_c, 0, 69, 60
1, 286092, Note_off_c, 0, 63, 59
1, 286092, Control_c, 0, 64, 81
1, 286166, Control_c, 0, 64, 80
1, 286167, Note_off_c, 0, 45, 42
1, 286168, Note_off_c, 0, 69, 61
1, 286173, Note_on_c, 0, 66, 61
1, 286180, Control_c, 0, 64, 74
1, 286195, Control_c, 0, 64, 61
1, 286210, Control_c, 0, 64, 38
1, 286225, Control_c, 0, 64, 0
1, 286238, Note_off_c, 0, 66, 59
1, 286261, Note_on_c, 0, 69, 54
1, 286299, Control_c, 0, 64, 30
1, 286314, Control_c, 0, 64, 50
1, 286328, Control_c, 0, 64, 62
1, 286343, Control_c, 0, 64, 67
1, 286358, Control_c, 0, 64, 69
1, 286359, Note_on_c, 0, 66, 65
1, 286360, Note_off_c, 0, 69, 55
1, 286360, Note_off_c, 0, 72, 42
1, 286361, Note_on_c, 0, 38, 50
1, 286373, Control_c, 0, 64, 72
1, 286388, Control_c, 0, 64, 76
1, 286403, Control_c, 0, 64, 79
1, 286417, Control_c, 0, 64, 82
1, 286432, Control_c, 0, 64, 82
1, 286436, Note_off_c, 0, 66, 60
1, 286450, Note_on_c, 0, 62, 61
1, 286497, Note_off_c, 0, 62, 53
1, 286506, Control_c, 0, 64, 82
1, 286508, Note_off_c, 0, 38, 36
1, 286521, Control_c, 0, 64, 80
1, 286536, Control_c, 0, 64, 74
1, 286546, Note_on_c, 0, 70, 75
1, 286551, Control_c, 0, 64, 65
1, 286566, Control_c, 0, 64, 54
1, 286580, Control_c, 0, 64, 37
1, 286595, Control_c, 0, 64, 0
1, 286631, Note_on_c, 0, 58, 66
1, 286701, Note_off_c, 0, 58, 57
1, 286717, Note_on_c, 0, 62, 56
1, 286728, Control_c, 0, 64, 19
1, 286743, Control_c, 0, 64, 45
1, 286749, Note_on_c, 0, 43, 47
1, 286766, Control_c, 0, 64, 59
1, 286780, Control_c, 0, 64, 65
1, 286795, Control_c, 0, 64, 69
1, 286810, Control_c, 0, 64, 73
1, 286817, Note_on_c, 0, 67, 63
1, 286825, Control_c, 0, 64, 76
1, 286828, Note_off_c, 0, 62, 57
1, 286840, Control_c, 0, 64, 78
1, 286854, Control_c, 0, 64, 79
1, 286894, Note_off_c, 0, 67, 59
1, 286900, Control_c, 0, 64, 78
1, 286903, Note_off_c, 0, 43, 31
1, 286915, Control_c, 0, 64, 74
1, 286915, Note_on_c, 0, 62, 57
1, 286929, Control_c, 0, 64, 68
1, 286944, Control_c, 0, 64, 61
1, 286959, Control_c, 0, 64, 51
1, 286974, Control_c, 0, 64, 37
1, 286989, Control_c, 0, 64, 0
1, 287008, Note_off_c, 0, 62, 55
1, 287011, Note_on_c, 0, 67, 63
1, 287107, Control_c, 0, 64, 20
1, 287109, Note_on_c, 0, 31, 47
1, 287112, Note_on_c, 0, 62, 61
1, 287122, Control_c, 0, 64, 48
1, 287131, Note_off_c, 0, 70, 47
1, 287136, Control_c, 0, 64, 60
1, 287141, Note_off_c, 0, 67, 55
1, 287151, Control_c, 0, 64, 65
1, 287166, Control_c, 0, 64, 67
1, 287181, Control_c, 0, 64, 68
1, 287196, Control_c, 0, 64, 69
1, 287209, Note_off_c, 0, 62, 59
1, 287210, Control_c, 0, 64, 70
1, 287213, Note_on_c, 0, 58, 52
1, 287214, Note_off_c, 0, 31, 54
1, 287225, Control_c, 0, 64, 71
1, 287255, Note_off_c, 0, 58, 62
1, 287270, Control_c, 0, 64, 71
1, 287303, Note_on_c, 0, 67, 74
1, 287315, Control_c, 0, 64, 67
1, 287329, Control_c, 0, 64, 53
1, 287344, Control_c, 0, 64, 0
1, 287400, Note_on_c, 0, 63, 64
1, 287433, Control_c, 0, 64, 36
1, 287448, Control_c, 0, 64, 52
1, 287462, Control_c, 0, 64, 61
1, 287477, Control_c, 0, 64, 65
1, 287479, Note_on_c, 0, 39, 49
1, 287492, Control_c, 0, 64, 68
1, 287493, Note_off_c, 0, 67, 45
1, 287505, Note_on_c, 0, 62, 63
1, 287514, Control_c, 0, 64, 72
1, 287529, Control_c, 0, 64, 79
1, 287542, Note_off_c, 0, 39, 57
1, 287544, Control_c, 0, 64, 84
1, 287559, Control_c, 0, 64, 86
1, 287575, Note_off_c, 0, 63, 38
1, 287587, Note_off_c, 0, 62, 58
1, 287599, Note_on_c, 0, 60, 60
1, 287620, Note_off_c, 0, 60, 60
1, 287633, Control_c, 0, 64, 84
1, 287648, Control_c, 0, 64, 75
1, 287662, Control_c, 0, 64, 63
1, 287678, Control_c, 0, 64, 43
1, 287692, Note_on_c, 0, 75, 85
1, 287693, Control_c, 0, 64, 0
1, 287723, Control_c, 0, 64, 38
1, 287738, Control_c, 0, 64, 55
1, 287752, Control_c, 0, 64, 65
1, 287767, Control_c, 0, 64, 70
1, 287782, Control_c, 0, 64, 74
1, 287796, Note_on_c, 0, 63, 59
1, 287797, Control_c, 0, 64, 79
1, 287812, Control_c, 0, 64, 83
1, 287826, Control_c, 0, 64, 87
1, 287841, Control_c, 0, 64, 88
1, 287856, Control_c, 0, 64, 89
1, 287871, Control_c, 0, 64, 90
1, 287882, Note_off_c, 0, 63, 55
1, 287884, Note_off_c, 0, 75, 48
1, 287886, Control_c, 0, 64, 91
1, 287890, Note_on_c, 0, 67, 61
1, 287891, Note_on_c, 0, 36, 53
1, 287915, Control_c, 0, 64, 91
1, 287998, Note_on_c, 0, 72, 62
1, 288010, Note_off_c, 0, 36, 56
1, 288048, Control_c, 0, 64, 90
1, 288055, Note_off_c, 0, 67, 33
1, 288063, Control_c, 0, 64, 87
1, 288074, Note_on_c, 0, 74, 82
1, 288078, Control_c, 0, 64, 78
1, 288087, Note_off_c, 0, 72, 57
1, 288093, Control_c, 0, 64, 65
1, 288108, Control_c, 0, 64, 43
1, 288122, Control_c, 0, 64, 0
1, 288179, Note_on_c, 0, 62, 60
1, 288197, Control_c, 0, 64, 44
1, 288212, Control_c, 0, 64, 59
1, 288226, Control_c, 0, 64, 66
1, 288241, Control_c, 0, 64, 70
1, 288263, Control_c, 0, 64, 74
1, 288277, Control_c, 0, 64, 79
1, 288287, Note_on_c, 0, 41, 47
1, 288287, Note_on_c, 0, 65, 54
1, 288292, Control_c, 0, 64, 83
1, 288298, Note_off_c, 0, 62, 35
1, 288307, Control_c, 0, 64, 86
1, 288322, Note_off_c, 0, 74, 41
1, 288322, Control_c, 0, 64, 88
1, 288337, Control_c, 0, 64, 89
1, 288382, Note_on_c, 0, 70, 59
1, 288400, Note_off_c, 0, 41, 31
1, 288456, Control_c, 0, 64, 88
1, 288471, Control_c, 0, 64, 83
1, 288476, Note_on_c, 0, 72, 75
1, 288481, Note_off_c, 0, 70, 58
1, 288486, Control_c, 0, 64, 75
1, 288495, Note_off_c, 0, 65, 40
1, 288501, Control_c, 0, 64, 64
1, 288516, Control_c, 0, 64, 51
1, 288531, Control_c, 0, 64, 43
1, 288546, Control_c, 0, 64, 42
1, 288576, Control_c, 0, 64, 43
1, 288585, Note_on_c, 0, 63, 62
1, 288590, Control_c, 0, 64, 44
1, 288605, Control_c, 0, 64, 44
1, 288635, Control_c, 0, 64, 45
1, 288649, Control_c, 0, 64, 46
1, 288664, Control_c, 0, 64, 47
1, 288671, Note_on_c, 0, 65, 47
1, 288679, Control_c, 0, 64, 48
1, 288687, Note_on_c, 0, 29, 54
1, 288694, Control_c, 0, 64, 49
1, 288695, Note_off_c, 0, 63, 36
1, 288708, Control_c, 0, 64, 49
1, 288716, Note_off_c, 0, 72, 40
1, 288765, Note_on_c, 0, 69, 55
1, 288802, Note_off_c, 0, 29, 61
1, 288840, Note_off_c, 0, 65, 32
1, 288879, Note_off_c, 0, 69, 61
1, 288884, Note_on_c, 0, 70, 62
1, 288960, Control_c, 0, 64, 49
1, 289004, Note_on_c, 0, 58, 48
1, 289068, Note_off_c, 0, 58, 50
1, 289090, Note_on_c, 0, 62, 51
1, 289124, Note_on_c, 0, 46, 50
1, 289168, Note_off_c, 0, 46, 60
1, 289183, Note_off_c, 0, 62, 53
1, 289192, Note_on_c, 0, 65, 54
1, 289301, Note_off_c, 0, 65, 60
1, 289309, Note_on_c, 0, 48, 55
1, 289312, Note_on_c, 0, 66, 60
1, 289348, Note_off_c, 0, 48, 63
1, 289389, Note_off_c, 0, 66, 56
1, 289393, Note_on_c, 0, 63, 60
1, 289475, Note_on_c, 0, 51, 68
1, 289482, Note_off_c, 0, 63, 57
1, 289485, Note_on_c, 0, 60, 61
1, 289525, Note_off_c, 0, 51, 53
1, 289584, Note_off_c, 0, 60, 55
1, 289585, Note_on_c, 0, 66, 63
1, 289669, Note_on_c, 0, 50, 76
1, 289673, Note_on_c, 0, 65, 70
1, 289694, Note_off_c, 0, 70, 50
1, 289732, Note_off_c, 0, 50, 60
1, 289752, Note_off_c, 0, 66, 29
1, 289761, Control_c, 0, 64, 49
1, 289774, Note_off_c, 0, 65, 59
1, 289777, Note_on_c, 0, 62, 69
1, 289857, Note_on_c, 0, 58, 77
1, 289878, Note_off_c, 0, 62, 52
1, 289880, Note_on_c, 0, 65, 75
1, 289925, Note_off_c, 0, 58, 58
1, 289962, Note_on_c, 0, 69, 73
1, 289986, Note_off_c, 0, 65, 46
1, 290056, Note_on_c, 0, 53, 73
1, 290060, Note_on_c, 0, 70, 74
1, 290069, Note_off_c, 0, 69, 60
1, 290121, Note_off_c, 0, 53, 55
1, 290123, Note_off_c, 0, 70, 60
1, 290152, Note_on_c, 0, 65, 56
1, 290221, Control_c, 0, 64, 49
1, 290231, Note_off_c, 0, 65, 52
1, 290244, Note_on_c, 0, 70, 71
1, 290245, Note_on_c, 0, 50, 60
1, 290251, Control_c, 0, 64, 48
1, 290266, Control_c, 0, 64, 47
1, 290276, Note_off_c, 0, 50, 64
1, 290280, Control_c, 0, 64, 45
1, 290295, Control_c, 0, 64, 42
1, 290310, Control_c, 0, 64, 38
1, 290325, Control_c, 0, 64, 33
1, 290340, Control_c, 0, 64, 23
1, 290340, Note_on_c, 0, 74, 71
1, 290354, Control_c, 0, 64, 0
1, 290398, Note_off_c, 0, 70, 33
1, 290427, Note_off_c, 0, 74, 57
1, 290443, Note_on_c, 0, 77, 65
1, 290448, Note_on_c, 0, 65, 52
1, 290474, Note_on_c, 0, 46, 37
1, 290487, Control_c, 0, 64, 19
1, 290510, Control_c, 0, 64, 46
1, 290525, Control_c, 0, 64, 60
1, 290540, Control_c, 0, 64, 65
1, 290554, Control_c, 0, 64, 68
1, 290556, Note_off_c, 0, 46, 53
1, 290569, Note_off_c, 0, 65, 54
1, 290569, Control_c, 0, 64, 72
1, 290582, Note_on_c, 0, 50, 49
1, 290584, Note_off_c, 0, 77, 55
1, 290584, Control_c, 0, 64, 77
1, 290599, Control_c, 0, 64, 82
1, 290614, Control_c, 0, 64, 86
1, 290628, Control_c, 0, 64, 88
1, 290633, Note_off_c, 0, 50, 57
1, 290643, Control_c, 0, 64, 90
1, 290658, Control_c, 0, 64, 91
1, 290671, Note_on_c, 0, 53, 58
1, 290672, Control_c, 0, 64, 91
1, 290687, Control_c, 0, 64, 92
1, 290702, Control_c, 0, 64, 93
1, 290717, Control_c, 0, 64, 93
1, 290767, Note_off_c, 0, 53, 35
1, 290770, Note_on_c, 0, 50, 54
1, 290820, Control_c, 0, 64, 93
1, 290835, Control_c, 0, 64, 92
1, 290850, Control_c, 0, 64, 87
1, 290856, Note_on_c, 0, 77, 71
1, 290863, Note_on_c, 0, 46, 57
1, 290863, Note_on_c, 0, 65, 60
1, 290865, Control_c, 0, 64, 76
1, 290881, Control_c, 0, 64, 65
1, 290885, Note_off_c, 0, 50, 34
1, 290895, Control_c, 0, 64, 60
1, 290910, Control_c, 0, 64, 61
1, 290925, Control_c, 0, 64, 65
1, 290940, Control_c, 0, 64, 69
1, 290955, Control_c, 0, 64, 75
1, 290967, Note_off_c, 0, 46, 50
1, 290970, Control_c, 0, 64, 84
1, 290974, Note_off_c, 0, 65, 53
1, 290984, Note_on_c, 0, 50, 54
1, 290984, Control_c, 0, 64, 93
1, 290999, Control_c, 0, 64, 96
1, 291034, Note_off_c, 0, 50, 59
1, 291060, Note_on_c, 0, 53, 60
1, 291103, Control_c, 0, 64, 97
1, 291160, Note_on_c, 0, 50, 57
1, 291178, Note_off_c, 0, 53, 32
1, 291222, Control_c, 0, 64, 96
1, 291237, Control_c, 0, 64, 94
1, 291258, Control_c, 0, 64, 88
1, 291260, Note_on_c, 0, 45, 55
1, 291264, Note_on_c, 0, 78, 76
1, 291269, Note_off_c, 0, 77, 57
1, 291270, Note_on_c, 0, 66, 65
1, 291273, Control_c, 0, 64, 77
1, 291276, Note_off_c, 0, 50, 33
1, 291288, Control_c, 0, 64, 67
1, 291303, Control_c, 0, 64, 62
1, 291318, Control_c, 0, 64, 63
1, 291333, Control_c, 0, 64, 65
1, 291348, Control_c, 0, 64, 69
1, 291363, Control_c, 0, 64, 74
1, 291377, Control_c, 0, 64, 82
1, 291381, Note_off_c, 0, 45, 51
1, 291386, Note_on_c, 0, 48, 58
1, 291392, Control_c, 0, 64, 90
1, 291407, Control_c, 0, 64, 95
1, 291438, Note_off_c, 0, 66, 52
1, 291451, Control_c, 0, 64, 96
1, 291471, Note_off_c, 0, 48, 60
1, 291481, Control_c, 0, 64, 96
1, 291482, Note_on_c, 0, 50, 66
1, 291495, Control_c, 0, 64, 97
1, 291510, Control_c, 0, 64, 98
1, 291541, Control_c, 0, 64, 98
1, 291566, Note_off_c, 0, 50, 48
1, 291587, Note_on_c, 0, 48, 56
1, 291644, Control_c, 0, 64, 97
1, 291659, Control_c, 0, 64, 95
1, 291664, Note_on_c, 0, 43, 62
1, 291670, Note_off_c, 0, 48, 57
1, 291673, Note_off_c, 0, 78, 0
1, 291674, Note_on_c, 0, 67, 77
1, 291675, Note_on_c, 0, 79, 81
1, 291675, Control_c, 0, 64, 89
1, 291690, Control_c, 0, 64, 79
1, 291705, Control_c, 0, 64, 67
1, 291711, Poly_aftertouch_c, 0, 78, 127
1, 291719, Control_c, 0, 64, 62
1, 291734, Control_c, 0, 64, 63
1, 291749, Control_c, 0, 64, 66
1, 291751, Poly_aftertouch_c, 0, 78, 0
1, 291764, Control_c, 0, 64, 70
1, 291779, Control_c, 0, 64, 77
1, 291793, Note_on_c, 0, 48, 65
1, 291793, Note_off_c, 0, 43, 55
1, 291793, Control_c, 0, 64, 89
1, 291808, Control_c, 0, 64, 97
1, 291823, Control_c, 0, 64, 99
1, 291838, Control_c, 0, 64, 100
1, 291853, Control_c, 0, 64, 100
1, 291855, Note_off_c, 0, 67, 59
1, 291863, Note_off_c, 0, 48, 58
1, 291871, Note_on_c, 0, 50, 67
1, 291882, Control_c, 0, 64, 101
1, 291899, Note_off_c, 0, 79, 59
1, 291912, Control_c, 0, 64, 102
1, 291941, Control_c, 0, 64, 102
1, 291969, Note_off_c, 0, 50, 53
1, 291984, Note_on_c, 0, 48, 62
1, 292067, Control_c, 0, 64, 101
1, 292082, Control_c, 0, 64, 99
1, 292087, Note_on_c, 0, 81, 84
1, 292090, Note_on_c, 0, 69, 81
1, 292096, Note_on_c, 0, 42, 59
1, 292097, Control_c, 0, 64, 92
1, 292112, Control_c, 0, 64, 78
1, 292123, Note_off_c, 0, 48, 34
1, 292126, Control_c, 0, 64, 66
1, 292141, Control_c, 0, 64, 59
1, 292156, Control_c, 0, 64, 59
1, 292171, Control_c, 0, 64, 63
1, 292186, Control_c, 0, 64, 67
1, 292200, Control_c, 0, 64, 73
1, 292215, Control_c, 0, 64, 85
1, 292218, Note_off_c, 0, 42, 53
1, 292222, Note_on_c, 0, 48, 58
1, 292230, Control_c, 0, 64, 98
1, 292245, Control_c, 0, 64, 106
1, 292248, Note_off_c, 0, 69, 62
1, 292260, Control_c, 0, 64, 106
1, 292275, Control_c, 0, 64, 107
1, 292288, Control_c, 0, 64, 108
1, 292293, Note_off_c, 0, 48, 57
1, 292293, Note_off_c, 0, 81, 59
1, 292303, Control_c, 0, 64, 108
1, 292314, Note_on_c, 0, 50, 64
1, 292387, Note_off_c, 0, 50, 56
1, 292402, Note_on_c, 0, 48, 42
1, 292466, Control_c, 0, 64, 106
1, 292481, Control_c, 0, 64, 102
1, 292496, Control_c, 0, 64, 96
1, 292499, Note_on_c, 0, 42, 55
1, 292506, Note_on_c, 0, 72, 76
1, 292506, Note_on_c, 0, 84, 80
1, 292511, Control_c, 0, 64, 85
1, 292526, Control_c, 0, 64, 71
1, 292531, Note_off_c, 0, 48, 34
1, 292540, Control_c, 0, 64, 62
1, 292555, Control_c, 0, 64, 59
1, 292570, Control_c, 0, 64, 61
1, 292585, Control_c, 0, 64, 66
1, 292600, Control_c, 0, 64, 70
1, 292603, Note_off_c, 0, 42, 52
1, 292615, Control_c, 0, 64, 76
1, 292617, Note_on_c, 0, 45, 58
1, 292630, Control_c, 0, 64, 88
1, 292642, Note_off_c, 0, 72, 58
1, 292645, Note_off_c, 0, 84, 55
1, 292645, Control_c, 0, 64, 96
1, 292659, Control_c, 0, 64, 99
1, 292689, Control_c, 0, 64, 99
1, 292707, Note_off_c, 0, 45, 52
1, 292722, Note_on_c, 0, 50, 58
1, 292816, Note_on_c, 0, 45, 50
1, 292830, Note_off_c, 0, 50, 35
1, 292859, Control_c, 0, 64, 98
1, 292874, Control_c, 0, 64, 96
1, 292889, Control_c, 0, 64, 94
1, 292901, Note_off_c, 0, 45, 54
1, 292904, Control_c, 0, 64, 90
1, 292918, Note_on_c, 0, 43, 55
1, 292919, Control_c, 0, 64, 83
1, 292934, Control_c, 0, 64, 71
1, 292940, Note_on_c, 0, 82, 71
1, 292945, Note_on_c, 0, 70, 64
1, 292948, Control_c, 0, 64, 62
1, 292963, Control_c, 0, 64, 57
1, 292993, Control_c, 0, 64, 61
1, 293008, Control_c, 0, 64, 66
1, 293022, Control_c, 0, 64, 71
1, 293023, Note_off_c, 0, 43, 54
1, 293035, Note_on_c, 0, 46, 55
1, 293037, Control_c, 0, 64, 82
1, 293038, Note_off_c, 0, 70, 55
1, 293052, Control_c, 0, 64, 93
1, 293056, Note_off_c, 0, 82, 56
1, 293067, Control_c, 0, 64, 102
1, 293081, Control_c, 0, 64, 103
1, 293111, Note_off_c, 0, 46, 51
1, 293138, Note_on_c, 0, 50, 61
1, 293213, Note_off_c, 0, 50, 51
1, 293249, Note_on_c, 0, 46, 52
1, 293259, Control_c, 0, 64, 102
1, 293275, Control_c, 0, 64, 100
1, 293289, Control_c, 0, 64, 97
1, 293304, Control_c, 0, 64, 94
1, 293319, Control_c, 0, 64, 90
1, 293334, Control_c, 0, 64, 82
1, 293340, Note_on_c, 0, 48, 58
1, 293349, Control_c, 0, 64, 72
1, 293350, Note_off_c, 0, 46, 34
1, 293351, Note_on_c, 0, 81, 70
1, 293354, Note_on_c, 0, 69, 65
1, 293363, Control_c, 0, 64, 62
1, 293378, Control_c, 0, 64, 56
1, 293393, Control_c, 0, 64, 57
1, 293408, Control_c, 0, 64, 61
1, 293423, Control_c, 0, 64, 66
1, 293428, Note_off_c, 0, 48, 58
1, 293437, Control_c, 0, 64, 73
1, 293447, Note_off_c, 0, 81, 56
1, 293452, Control_c, 0, 64, 81
1, 293455, Note_off_c, 0, 69, 52
1, 293458, Note_on_c, 0, 51, 54
1, 293467, Control_c, 0, 64, 92
1, 293482, Control_c, 0, 64, 98
1, 293504, Control_c, 0, 64, 99
1, 293516, Note_off_c, 0, 51, 54
1, 293566, Note_on_c, 0, 57, 60
1, 293657, Note_on_c, 0, 51, 51
1, 293678, Note_on_c, 0, 67, 56
1, 293682, Control_c, 0, 64, 98
1, 293686, Note_on_c, 0, 79, 51
1, 293686, Note_off_c, 0, 57, 32
1, 293697, Control_c, 0, 64, 98
1, 293698, Note_off_c, 0, 67, 61
1, 293712, Control_c, 0, 64, 96
1, 293727, Control_c, 0, 64, 94
1, 293737, Note_off_c, 0, 79, 37
1, 293741, Control_c, 0, 64, 92
1, 293756, Control_c, 0, 64, 89
1, 293771, Control_c, 0, 64, 83
1, 293786, Control_c, 0, 64, 73
1, 293796, Note_off_c, 0, 51, 43
1, 293801, Note_on_c, 0, 50, 48
1, 293801, Control_c, 0, 64, 62
1, 293804, Note_on_c, 0, 78, 59
1, 293809, Note_on_c, 0, 66, 58
1, 293815, Control_c, 0, 64, 54
1, 293830, Control_c, 0, 64, 53
1, 293845, Control_c, 0, 64, 56
1, 293860, Control_c, 0, 64, 62
1, 293875, Control_c, 0, 64, 67
1, 293889, Control_c, 0, 64, 73
1, 293904, Control_c, 0, 64, 82
1, 293914, Note_off_c, 0, 50, 48
1, 293919, Control_c, 0, 64, 93
1, 293929, Note_on_c, 0, 57, 50
1, 293934, Control_c, 0, 64, 100
1, 293949, Control_c, 0, 64, 100
1, 293959, Note_off_c, 0, 66, 35
1, 293961, Note_off_c, 0, 78, 53
1, 293996, Note_off_c, 0, 57, 55
1, 294030, Note_on_c, 0, 60, 55
1, 294121, Note_off_c, 0, 60, 35
1, 294127, Control_c, 0, 64, 99
1, 294142, Control_c, 0, 64, 97
1, 294143, Note_on_c, 0, 57, 38
1, 294157, Control_c, 0, 64, 93
1, 294172, Control_c, 0, 64, 90
1, 294183, Note_off_c, 0, 57, 47
1, 294186, Control_c, 0, 64, 84
1, 294201, Control_c, 0, 64, 75
1, 294204, Note_on_c, 0, 50, 49
1, 294209, Note_on_c, 0, 78, 68
1, 294211, Note_on_c, 0, 66, 63
1, 294216, Control_c, 0, 64, 66
1, 294231, Control_c, 0, 64, 64
1, 294268, Control_c, 0, 64, 66
1, 294283, Control_c, 0, 64, 69
1, 294298, Control_c, 0, 64, 74
1, 294313, Control_c, 0, 64, 82
1, 294326, Note_off_c, 0, 66, 49
1, 294327, Note_off_c, 0, 50, 44
1, 294327, Control_c, 0, 64, 90
1, 294330, Note_on_c, 0, 57, 47
1, 294342, Control_c, 0, 64, 94
1, 294357, Control_c, 0, 64, 94
1, 294403, Note_off_c, 0, 57, 57
1, 294426, Note_on_c, 0, 60, 53
1, 294513, Note_on_c, 0, 57, 43
1, 294534, Control_c, 0, 64, 94
1, 294541, Note_off_c, 0, 60, 31
1, 294549, Control_c, 0, 64, 93
1, 294564, Control_c, 0, 64, 90
1, 294579, Control_c, 0, 64, 83
1, 294593, Control_c, 0, 64, 74
1, 294594, Note_on_c, 0, 50, 51
1, 294605, Note_on_c, 0, 79, 69
1, 294607, Note_on_c, 0, 67, 63
1, 294608, Control_c, 0, 64, 67
1, 294612, Note_off_c, 0, 57, 36
1, 294623, Control_c, 0, 64, 65
1, 294637, Control_c, 0, 64, 66
1, 294650, Note_off_c, 0, 78, 38
1, 294652, Control_c, 0, 64, 69
1, 294663, Note_off_c, 0, 67, 57
1, 294667, Control_c, 0, 64, 75
1, 294682, Control_c, 0, 64, 82
1, 294697, Control_c, 0, 64, 89
1, 294711, Control_c, 0, 64, 92
1, 294720, Note_on_c, 0, 57, 60
1, 294741, Note_off_c, 0, 50, 36
1, 294794, Note_off_c, 0, 57, 55
1, 294806, Note_on_c, 0, 60, 64
1, 294808, Note_on_c, 0, 78, 72
1, 294813, Note_on_c, 0, 66, 74
1, 294815, Control_c, 0, 64, 92
1, 294829, Note_off_c, 0, 79, 34
1, 294886, Note_off_c, 0, 78, 59
1, 294892, Note_off_c, 0, 66, 59
1, 294915, Note_on_c, 0, 57, 53
1, 294926, Note_off_c, 0, 60, 36
1, 294964, Control_c, 0, 64, 92
1, 294979, Control_c, 0, 64, 89
1, 295002, Control_c, 0, 64, 80
1, 295002, Note_on_c, 0, 50, 58
1, 295010, Note_off_c, 0, 57, 55
1, 295017, Control_c, 0, 64, 70
1, 295017, Note_on_c, 0, 64, 75
1, 295018, Note_on_c, 0, 76, 80
1, 295031, Control_c, 0, 64, 63
1, 295061, Control_c, 0, 64, 65
1, 295065, Note_off_c, 0, 64, 58
1, 295075, Control_c, 0, 64, 69
1, 295090, Control_c, 0, 64, 75
1, 295101, Note_off_c, 0, 76, 63
1, 295105, Control_c, 0, 64, 84
1, 295120, Control_c, 0, 64, 93
1, 295127, Note_on_c, 0, 57, 60
1, 295135, Control_c, 0, 64, 97
1, 295148, Note_off_c, 0, 50, 34
1, 295179, Control_c, 0, 64, 98
1, 295196, Note_off_c, 0, 57, 55
1, 295208, Note_on_c, 0, 60, 61
1, 295209, Control_c, 0, 64, 98
1, 295216, Note_on_c, 0, 78, 85
1, 295218, Note_on_c, 0, 66, 80
1, 295223, Control_c, 0, 64, 99
1, 295238, Control_c, 0, 64, 99
1, 295253, Control_c, 0, 64, 100
1, 295307, Note_off_c, 0, 66, 59
1, 295318, Note_on_c, 0, 57, 60
1, 295326, Note_off_c, 0, 60, 44
1, 295387, Control_c, 0, 64, 99
1, 295402, Control_c, 0, 64, 96
1, 295407, Note_off_c, 0, 78, 0
1, 295409, Note_off_c, 0, 57, 55
1, 295417, Control_c, 0, 64, 87
1, 295426, Note_on_c, 0, 67, 77
1, 295428, Note_on_c, 0, 55, 62
1, 295428, Note_on_c, 0, 79, 78
1, 295430, Poly_aftertouch_c, 0, 78, 0
1, 295432, Control_c, 0, 64, 73
1, 295447, Control_c, 0, 64, 60
1, 295461, Control_c, 0, 64, 51
1, 295476, Control_c, 0, 64, 53
1, 295488, Poly_aftertouch_c, 0, 78, 0
1, 295491, Control_c, 0, 64, 60
1, 295506, Control_c, 0, 64, 66
1, 295515, Note_off_c, 0, 55, 59
1, 295521, Control_c, 0, 64, 72
1, 295522, Note_on_c, 0, 58, 69
1, 295535, Control_c, 0, 64, 81
1, 295550, Control_c, 0, 64, 91
1, 295565, Control_c, 0, 64, 97
1, 295580, Control_c, 0, 64, 97
1, 295601, Note_off_c, 0, 58, 59
1, 295625, Note_on_c, 0, 55, 74
1, 295710, Note_on_c, 0, 50, 74
1, 295712, Note_off_c, 0, 55, 49
1, 295780, Control_c, 0, 64, 97
1, 295795, Control_c, 0, 64, 95
1, 295810, Control_c, 0, 64, 93
1, 295825, Note_on_c, 0, 46, 77
1, 295825, Control_c, 0, 64, 90
1, 295828, Note_off_c, 0, 79, 47
1, 295837, Note_off_c, 0, 67, 52
1, 295840, Control_c, 0, 64, 86
1, 295855, Control_c, 0, 64, 82
1, 295855, Note_off_c, 0, 50, 59
1, 295870, Control_c, 0, 64, 79
1, 295885, Control_c, 0, 64, 75
1, 295899, Control_c, 0, 64, 72
1, 295914, Control_c, 0, 64, 69
1, 295929, Control_c, 0, 64, 65
1, 295933, Note_on_c, 0, 55, 83
1, 295944, Control_c, 0, 64, 63
1, 295950, Note_off_c, 0, 46, 58
1, 295959, Control_c, 0, 64, 61
1, 295973, Control_c, 0, 64, 61
1, 296017, Control_c, 0, 64, 60
1, 296028, Note_on_c, 0, 50, 78
1, 296032, Control_c, 0, 64, 59
1, 296043, Note_off_c, 0, 55, 57
1, 296047, Control_c, 0, 64, 57
1, 296062, Control_c, 0, 64, 54
1, 296077, Control_c, 0, 64, 49
1, 296091, Control_c, 0, 64, 37
1, 296106, Control_c, 0, 64, 0
1, 296108, Note_on_c, 0, 46, 79
1, 296162, Note_off_c, 0, 50, 56
1, 296222, Note_on_c, 0, 43, 88
1, 296230, Note_off_c, 0, 46, 60
1, 296316, Note_on_c, 0, 67, 80
1, 296366, Note_off_c, 0, 43, 62
1, 296421, Note_on_c, 0, 70, 85
1, 296472, Note_off_c, 0, 67, 57
1, 296525, Note_on_c, 0, 74, 85
1, 296624, Note_on_c, 0, 79, 84
1, 296625, Note_on_c, 0, 43, 88
1, 296627, Note_on_c, 0, 55, 87
1, 296653, Note_off_c, 0, 74, 60
1, 296654, Note_off_c, 0, 70, 56
1, 296663, Control_c, 0, 64, 59
1, 296678, Control_c, 0, 64, 78
1, 296693, Control_c, 0, 64, 92
1, 296707, Control_c, 0, 64, 127
1, 296731, Note_on_c, 0, 70, 90
1, 296734, Note_off_c, 0, 43, 58
1, 296739, Note_off_c, 0, 55, 60
1, 296775, Note_off_c, 0, 79, 48
1, 296818, Note_on_c, 0, 74, 80
1, 296910, Note_off_c, 0, 70, 32
1, 296913, Note_on_c, 0, 79, 81
1, 296928, Note_on_c, 0, 46, 74
1, 296928, Note_on_c, 0, 58, 78
1, 296937, Note_off_c, 0, 74, 61
1, 296978, Note_off_c, 0, 58, 60
1, 296981, Note_off_c, 0, 46, 58
1, 297009, Note_off_c, 0, 79, 60
1, 297038, Note_on_c, 0, 62, 95
1, 297039, Note_on_c, 0, 50, 91
1, 297047, Control_c, 0, 64, 76
1, 297062, Note_on_c, 0, 60, 64
1, 297062, Control_c, 0, 64, 0
1, 297086, Note_off_c, 0, 60, 41
1, 297245, Note_on_c, 0, 69, 86
1, 297247, Note_on_c, 0, 78, 87
1, 297251, Note_on_c, 0, 74, 93
1, 297263, Control_c, 0, 64, 61
1, 297278, Control_c, 0, 64, 80
1, 297292, Note_off_c, 0, 50, 60
1, 297293, Control_c, 0, 64, 107
1, 297295, Note_off_c, 0, 62, 58
1, 297308, Control_c, 0, 64, 127
1, 297421, Note_off_c, 0, 69, 61
1, 297456, Note_off_c, 0, 74, 61
1, 297461, Note_off_c, 0, 78, 60
1, 297462, Note_on_c, 0, 62, 91
1, 297464, Note_on_c, 0, 50, 84
1, 297486, Control_c, 0, 64, 97
1, 297500, Control_c, 0, 64, 60
1, 297515, Control_c, 0, 64, 0
1, 297649, Control_c, 0, 64, 34
1, 297663, Control_c, 0, 64, 58
1, 297669, Note_on_c, 0, 81, 89
1, 297670, Note_on_c, 0, 72, 89
1, 297671, Note_on_c, 0, 74, 84
1, 297678, Control_c, 0, 64, 67
1, 297693, Control_c, 0, 64, 76
1, 297706, Note_off_c, 0, 50, 62
1, 297707, Note_off_c, 0, 62, 62
1, 297708, Control_c, 0, 64, 90
1, 297723, Control_c, 0, 64, 122
1, 297737, Control_c, 0, 64, 127
1, 297861, Note_off_c, 0, 72, 59
1, 297870, Note_on_c, 0, 62, 85
1, 297872, Note_on_c, 0, 50, 76
1, 297885, Control_c, 0, 64, 106
1, 297898, Note_off_c, 0, 81, 52
1, 297900, Control_c, 0, 64, 69
1, 297921, Note_off_c, 0, 74, 55
1, 297930, Control_c, 0, 64, 0
1, 297974, Control_c, 0, 64, 36
1, 297996, Control_c, 0, 64, 59
1, 298011, Control_c, 0, 64, 68
1, 298026, Control_c, 0, 64, 75
1, 298041, Control_c, 0, 64, 85
1, 298056, Control_c, 0, 64, 95
1, 298072, Note_off_c, 0, 50, 59
1, 298072, Control_c, 0, 64, 106
1, 298076, Note_off_c, 0, 62, 60
1, 298082, Note_on_c, 0, 74, 89
1, 298085, Note_on_c, 0, 70, 90
1, 298085, Note_on_c, 0, 79, 86
1, 298086, Control_c, 0, 64, 115
1, 298101, Control_c, 0, 64, 127
1, 298280, Control_c, 0, 64, 100
1, 298286, Note_on_c, 0, 62, 88
1, 298289, Note_on_c, 0, 50, 84
1, 298294, Control_c, 0, 64, 77
1, 298309, Control_c, 0, 64, 58
1, 298318, Note_off_c, 0, 70, 57
1, 298322, Note_off_c, 0, 79, 52
1, 298324, Control_c, 0, 64, 51
1, 298328, Note_off_c, 0, 74, 57
1, 298339, Control_c, 0, 64, 60
1, 298354, Control_c, 0, 64, 67
1, 298368, Control_c, 0, 64, 75
1, 298383, Control_c, 0, 64, 90
1, 298398, Control_c, 0, 64, 119
1, 298405, Note_off_c, 0, 50, 58
1, 298413, Control_c, 0, 64, 127
1, 298487, Note_on_c, 0, 69, 86
1, 298487, Note_on_c, 0, 74, 86
1, 298487, Note_on_c, 0, 78, 88
1, 298515, Note_off_c, 0, 62, 33
1, 298642, Note_off_c, 0, 78, 59
1, 298642, Note_off_c, 0, 74, 59
1, 298678, Note_off_c, 0, 69, 57
1, 298692, Note_on_c, 0, 63, 89
1, 298699, Note_on_c, 0, 51, 83
1, 298709, Control_c, 0, 64, 103
1, 298724, Control_c, 0, 64, 74
1, 298746, Control_c, 0, 64, 58
1, 298761, Control_c, 0, 64, 53
1, 298776, Control_c, 0, 64, 57
1, 298791, Control_c, 0, 64, 63
1, 298806, Control_c, 0, 64, 67
1, 298820, Control_c, 0, 64, 73
1, 298835, Control_c, 0, 64, 81
1, 298850, Control_c, 0, 64, 94
1, 298866, Control_c, 0, 64, 101
1, 298881, Control_c, 0, 64, 102
1, 298895, Note_on_c, 0, 67, 81
1, 298896, Note_on_c, 0, 79, 83
1, 298899, Note_on_c, 0, 74, 74
1, 298925, Control_c, 0, 64, 102
1, 298940, Control_c, 0, 64, 103
1, 298955, Control_c, 0, 64, 106
1, 298958, Note_off_c, 0, 67, 61
1, 298970, Control_c, 0, 64, 107
1, 298973, Note_off_c, 0, 74, 59
1, 298984, Control_c, 0, 64, 107
1, 298994, Note_off_c, 0, 79, 57
1, 299028, Control_c, 0, 64, 108
1, 299086, Note_on_c, 0, 67, 85
1, 299086, Note_on_c, 0, 72, 92
1, 299093, Note_on_c, 0, 79, 83
1, 299107, Note_off_c, 0, 67, 66
1, 299135, Note_off_c, 0, 72, 64
1, 299153, Note_off_c, 0, 79, 62
1, 299229, Note_off_c, 0, 63, 47
1, 299274, Note_off_c, 0, 51, 35
1, 299279, Note_on_c, 0, 79, 85
1, 299281, Note_on_c, 0, 73, 93
1, 299286, Note_on_c, 0, 85, 88
1, 299368, Control_c, 0, 64, 107
1, 299383, Control_c, 0, 64, 107
1, 299428, Control_c, 0, 64, 106
1, 299443, Note_off_c, 0, 73, 58
1, 299457, Control_c, 0, 64, 106
1, 299472, Control_c, 0, 64, 102
1, 299480, Note_off_c, 0, 79, 47
1, 299492, Note_on_c, 0, 62, 88
1, 299493, Note_on_c, 0, 50, 86
1, 299495, Control_c, 0, 64, 88
1, 299501, Note_off_c, 0, 85, 60
1, 299509, Control_c, 0, 64, 71
1, 299524, Control_c, 0, 64, 55
1, 299539, Control_c, 0, 64, 49
1, 299554, Control_c, 0, 64, 52
1, 299568, Control_c, 0, 64, 60
1, 299583, Control_c, 0, 64, 65
1, 299598, Control_c, 0, 64, 71
1, 299613, Control_c, 0, 64, 80
1, 299628, Control_c, 0, 64, 92
1, 299642, Control_c, 0, 64, 102
1, 299657, Control_c, 0, 64, 104
1, 299673, Control_c, 0, 64, 105
1, 299680, Note_on_c, 0, 74, 89
1, 299680, Note_on_c, 0, 81, 90
1, 299681, Note_on_c, 0, 86, 83
1, 299688, Control_c, 0, 64, 105
1, 299694, Note_on_c, 0, 79, 48
1, 299703, Control_c, 0, 64, 106
1, 299718, Note_off_c, 0, 79, 59
1, 299718, Control_c, 0, 64, 107
1, 299732, Control_c, 0, 64, 108
1, 299747, Control_c, 0, 64, 109
1, 299751, Note_off_c, 0, 74, 57
1, 299762, Control_c, 0, 64, 110
1, 299776, Note_off_c, 0, 86, 49
1, 299846, Note_off_c, 0, 81, 25
1, 299873, Note_on_c, 0, 81, 67
1, 299874, Note_on_c, 0, 74, 88
1, 299881, Note_on_c, 0, 86, 77
1, 299882, Note_on_c, 0, 78, 83
1, 299901, Note_off_c, 0, 86, 69
1, 299910, Control_c, 0, 64, 110
1, 299911, Note_on_c, 0, 82, 39
1, 299912, Note_off_c, 0, 74, 56
1, 299915, Note_off_c, 0, 81, 63
1, 299926, Note_off_c, 0, 78, 60
1, 299939, Note_off_c, 0, 82, 59
1, 299954, Control_c, 0, 64, 111
1, 299969, Control_c, 0, 64, 111
1, 299984, Control_c, 0, 64, 113
1, 299998, Control_c, 0, 64, 113
1, 300036, Note_off_c, 0, 62, 55
1, 300066, Note_on_c, 0, 69, 79
1, 300067, Note_on_c, 0, 66, 81
1, 300067, Note_off_c, 0, 50, 51
1, 300076, Note_on_c, 0, 74, 75
1, 300083, Note_on_c, 0, 70, 35
1, 300084, Note_on_c, 0, 75, 64
1, 300088, Control_c, 0, 64, 113
1, 300103, Control_c, 0, 64, 110
1, 300108, Note_off_c, 0, 75, 54
1, 300115, Note_off_c, 0, 70, 32
1, 300118, Control_c, 0, 64, 107
1, 300132, Control_c, 0, 64, 104
1, 300147, Control_c, 0, 64, 101
1, 300162, Control_c, 0, 64, 99
1, 300176, Control_c, 0, 64, 98
1, 300191, Control_c, 0, 64, 97
1, 300206, Control_c, 0, 64, 95
1, 300221, Control_c, 0, 64, 93
1, 300241, Note_off_c, 0, 74, 61
1, 300243, Control_c, 0, 64, 90
1, 300257, Note_off_c, 0, 66, 59
1, 300258, Control_c, 0, 64, 89
1, 300258, Note_off_c, 0, 69, 62
1, 300272, Note_on_c, 0, 60, 84
1, 300273, Control_c, 0, 64, 86
1, 300276, Note_on_c, 0, 48, 78
1, 300288, Control_c, 0, 64, 76
1, 300302, Control_c, 0, 64, 64
1, 300317, Control_c, 0, 64, 53
1, 300332, Control_c, 0, 64, 51
1, 300347, Control_c, 0, 64, 55
1, 300362, Control_c, 0, 64, 62
1, 300377, Control_c, 0, 64, 68
1, 300391, Control_c, 0, 64, 76
1, 300406, Control_c, 0, 64, 85
1, 300421, Control_c, 0, 64, 94
1, 300436, Control_c, 0, 64, 99
1, 300451, Control_c, 0, 64, 99
1, 300467, Note_on_c, 0, 70, 87
1, 300471, Note_on_c, 0, 75, 86
1, 300472, Note_on_c, 0, 63, 85
1, 300481, Control_c, 0, 64, 101
1, 300496, Control_c, 0, 64, 104
1, 300511, Control_c, 0, 64, 109
1, 300526, Control_c, 0, 64, 114
1, 300541, Control_c, 0, 64, 119
1, 300547, Note_off_c, 0, 70, 55
1, 300556, Control_c, 0, 64, 127
1, 300558, Note_on_c, 0, 55, 44
1, 300558, Note_off_c, 0, 63, 50
1, 300566, Note_off_c, 0, 60, 55
1, 300572, Note_off_c, 0, 75, 52
1, 300607, Note_off_c, 0, 55, 58
1, 300654, Note_on_c, 0, 69, 88
1, 300657, Note_on_c, 0, 63, 93
1, 300663, Note_on_c, 0, 75, 92
1, 300677, Note_off_c, 0, 63, 68
1, 300700, Note_off_c, 0, 69, 63
1, 300719, Note_off_c, 0, 75, 64
1, 300858, Note_on_c, 0, 81, 96
1, 300860, Note_on_c, 0, 69, 96
1, 300861, Note_on_c, 0, 75, 87
1, 300961, Note_off_c, 0, 69, 57
1, 300972, Note_off_c, 0, 81, 57
1, 301026, Note_off_c, 0, 75, 59
1, 301036, Control_c, 0, 64, 123
1, 301045, Note_on_c, 0, 58, 86
1, 301048, Note_off_c, 0, 48, 34
1, 301049, Note_on_c, 0, 46, 76
1, 301051, Control_c, 0, 64, 86
1, 301066, Control_c, 0, 64, 67
1, 301080, Control_c, 0, 64, 60
1, 301095, Control_c, 0, 64, 62
1, 301110, Control_c, 0, 64, 66
1, 301125, Control_c, 0, 64, 70
1, 301140, Control_c, 0, 64, 78
1, 301155, Control_c, 0, 64, 91
1, 301170, Control_c, 0, 64, 110
1, 301185, Control_c, 0, 64, 127
1, 301223, Note_on_c, 0, 75, 56
1, 301226, Note_on_c, 0, 70, 87
1, 301231, Note_on_c, 0, 77, 80
1, 301233, Note_on_c, 0, 82, 76
1, 301270, Note_off_c, 0, 75, 59
1, 301322, Note_off_c, 0, 82, 54
1, 301332, Note_off_c, 0, 70, 48
1, 301346, Note_off_c, 0, 77, 36
1, 301425, Note_on_c, 0, 74, 86
1, 301426, Note_on_c, 0, 70, 84
1, 301429, Note_on_c, 0, 82, 70
1, 301431, Note_on_c, 0, 77, 72
1, 301446, Note_off_c, 0, 82, 68
1, 301448, Note_off_c, 0, 74, 64
1, 301450, Note_off_c, 0, 70, 62
1, 301452, Note_off_c, 0, 77, 63
1, 301562, Note_off_c, 0, 58, 45
1, 301617, Note_off_c, 0, 46, 33
1, 301621, Note_on_c, 0, 65, 67
1, 301626, Note_on_c, 0, 70, 75
1, 301628, Note_on_c, 0, 62, 64
1, 301704, Control_c, 0, 64, 122
1, 301719, Control_c, 0, 64, 114
1, 301742, Control_c, 0, 64, 110
1, 301757, Control_c, 0, 64, 106
1, 301771, Control_c, 0, 64, 102
1, 301773, Note_off_c, 0, 62, 53
1, 301774, Note_off_c, 0, 65, 58
1, 301786, Control_c, 0, 64, 96
1, 301801, Control_c, 0, 64, 88
1, 301807, Note_off_c, 0, 70, 58
1, 301816, Control_c, 0, 64, 75
1, 301826, Note_on_c, 0, 45, 66
1, 301829, Note_on_c, 0, 57, 62
1, 301830, Control_c, 0, 64, 63
1, 301845, Control_c, 0, 64, 56
1, 301875, Control_c, 0, 64, 60
1, 301890, Control_c, 0, 64, 65
1, 301904, Control_c, 0, 64, 71
1, 301919, Control_c, 0, 64, 84
1, 301934, Control_c, 0, 64, 100
1, 301949, Control_c, 0, 64, 117
1, 301958, Note_off_c, 0, 45, 55
1, 301963, Control_c, 0, 64, 119
1, 301972, Note_off_c, 0, 57, 61
1, 302025, Note_on_c, 0, 63, 66
1, 302027, Note_on_c, 0, 67, 64
1, 302028, Note_on_c, 0, 72, 69
1, 302096, Note_off_c, 0, 67, 59
1, 302101, Note_off_c, 0, 63, 52
1, 302130, Note_off_c, 0, 72, 58
1, 302186, Control_c, 0, 64, 117
1, 302201, Control_c, 0, 64, 108
1, 302207, Note_on_c, 0, 60, 77
1, 302210, Note_on_c, 0, 48, 76
1, 302216, Control_c, 0, 64, 89
1, 302231, Control_c, 0, 64, 73
1, 302246, Control_c, 0, 64, 65
1, 302261, Control_c, 0, 64, 67
1, 302276, Control_c, 0, 64, 72
1, 302291, Control_c, 0, 64, 80
1, 302306, Control_c, 0, 64, 96
1, 302321, Control_c, 0, 64, 127
1, 302339, Note_off_c, 0, 60, 57
1, 302356, Note_off_c, 0, 48, 57
1, 302390, Note_on_c, 0, 66, 84
1, 302390, Note_on_c, 0, 75, 80
1, 302392, Note_on_c, 0, 69, 82
1, 302471, Note_off_c, 0, 69, 61
1, 302487, Note_off_c, 0, 66, 56
1, 302554, Note_off_c, 0, 75, 36
1, 302594, Control_c, 0, 64, 107
1, 302597, Note_on_c, 0, 58, 93
1, 302601, Note_on_c, 0, 46, 84
1, 302609, Control_c, 0, 64, 83
1, 302624, Control_c, 0, 64, 67
1, 302639, Control_c, 0, 64, 63
1, 302653, Control_c, 0, 64, 66
1, 302668, Control_c, 0, 64, 71
1, 302683, Control_c, 0, 64, 79
1, 302698, Control_c, 0, 64, 93
1, 302712, Control_c, 0, 64, 116
1, 302727, Control_c, 0, 64, 127
1, 302767, Note_off_c, 0, 58, 56
1, 302777, Note_on_c, 0, 67, 86
1, 302779, Note_on_c, 0, 74, 90
1, 302780, Note_on_c, 0, 70, 94
1, 302821, Note_off_c, 0, 46, 35
1, 302829, Note_off_c, 0, 67, 62
1, 302876, Note_off_c, 0, 70, 58
1, 302878, Note_off_c, 0, 74, 62
1, 302964, Control_c, 0, 64, 103
1, 302976, Note_on_c, 0, 57, 92
1, 302979, Control_c, 0, 64, 80
1, 302981, Note_on_c, 0, 45, 85
1, 302994, Control_c, 0, 64, 66
1, 303009, Control_c, 0, 64, 65
1, 303017, Note_on_c, 0, 47, 43
1, 303024, Control_c, 0, 64, 71
1, 303039, Control_c, 0, 64, 84
1, 303048, Note_off_c, 0, 47, 54
1, 303054, Control_c, 0, 64, 108
1, 303069, Control_c, 0, 64, 127
1, 303095, Note_off_c, 0, 57, 61
1, 303136, Note_off_c, 0, 45, 53
1, 303161, Note_on_c, 0, 78, 87
1, 303163, Note_on_c, 0, 74, 94
1, 303164, Note_on_c, 0, 72, 81
1, 303251, Note_off_c, 0, 72, 57
1, 303265, Note_off_c, 0, 74, 58
1, 303302, Note_off_c, 0, 78, 54
1, 303407, Note_on_c, 0, 55, 91
1, 303410, Note_on_c, 0, 43, 86
1, 303446, Control_c, 0, 64, 82
1, 303461, Control_c, 0, 64, 63
1, 303476, Control_c, 0, 64, 52
1, 303490, Control_c, 0, 64, 53
1, 303505, Control_c, 0, 64, 60
1, 303520, Control_c, 0, 64, 64
1, 303534, Control_c, 0, 64, 69
1, 303549, Control_c, 0, 64, 78
1, 303564, Control_c, 0, 64, 90
1, 303579, Control_c, 0, 64, 99
1, 303594, Control_c, 0, 64, 101
1, 303615, Note_on_c, 0, 79, 78
1, 303623, Note_on_c, 0, 70, 82
1, 303629, Note_on_c, 0, 74, 80
1, 303668, Note_off_c, 0, 79, 62
1, 303678, Note_off_c, 0, 74, 61
1, 303692, Note_off_c, 0, 70, 60
1, 303743, Control_c, 0, 64, 98
1, 303757, Control_c, 0, 64, 93
1, 303772, Control_c, 0, 64, 86
1, 303787, Control_c, 0, 64, 80
1, 303802, Control_c, 0, 64, 79
1, 303809, Note_on_c, 0, 70, 76
1, 303810, Note_on_c, 0, 62, 83
1, 303813, Note_on_c, 0, 74, 76
1, 303817, Control_c, 0, 64, 84
1, 303832, Control_c, 0, 64, 92
1, 303847, Control_c, 0, 64, 100
1, 303862, Control_c, 0, 64, 101
1, 303872, Note_off_c, 0, 62, 50
1, 303886, Note_off_c, 0, 74, 59
1, 303886, Note_off_c, 0, 70, 59
1, 303891, Control_c, 0, 64, 100
1, 303906, Control_c, 0, 64, 97
1, 303921, Control_c, 0, 64, 92
1, 303936, Control_c, 0, 64, 86
1, 303950, Control_c, 0, 64, 82
1, 303965, Control_c, 0, 64, 81
1, 303987, Control_c, 0, 64, 83
1, 303998, Note_on_c, 0, 72, 77
1, 303999, Note_on_c, 0, 62, 84
1, 304002, Control_c, 0, 64, 87
1, 304005, Note_on_c, 0, 69, 72
1, 304017, Control_c, 0, 64, 92
1, 304032, Control_c, 0, 64, 95
1, 304046, Control_c, 0, 64, 95
1, 304051, Note_off_c, 0, 69, 61
1, 304054, Note_off_c, 0, 62, 55
1, 304061, Control_c, 0, 64, 94
1, 304072, Note_off_c, 0, 72, 59
1, 304076, Control_c, 0, 64, 90
1, 304091, Control_c, 0, 64, 84
1, 304106, Control_c, 0, 64, 80
1, 304136, Control_c, 0, 64, 81
1, 304151, Control_c, 0, 64, 84
1, 304165, Control_c, 0, 64, 89
1, 304178, Note_on_c, 0, 62, 85
1, 304180, Control_c, 0, 64, 94
1, 304182, Note_on_c, 0, 70, 84
1, 304188, Note_on_c, 0, 67, 79
1, 304195, Control_c, 0, 64, 97
1, 304201, Note_off_c, 0, 43, 57
1, 304210, Control_c, 0, 64, 98
1, 304211, Note_off_c, 0, 55, 60
1, 304214, Note_off_c, 0, 62, 61
1, 304223, Note_off_c, 0, 67, 62
1, 304249, Note_off_c, 0, 70, 61
1, 304328, Control_c, 0, 64, 99
1, 304343, Control_c, 0, 64, 99
1, 304357, Control_c, 0, 64, 100
1, 304368, Note_on_c, 0, 67, 73
1, 304369, Note_on_c, 0, 70, 76
1, 304369, Note_on_c, 0, 74, 86
1, 304372, Control_c, 0, 64, 100
1, 304387, Control_c, 0, 64, 101
1, 304396, Note_off_c, 0, 67, 63
1, 304402, Control_c, 0, 64, 101
1, 304417, Control_c, 0, 64, 102
1, 304429, Note_off_c, 0, 70, 58
1, 304432, Note_off_c, 0, 74, 59
1, 304521, Control_c, 0, 64, 101
1, 304536, Control_c, 0, 64, 96
1, 304551, Control_c, 0, 64, 85
1, 304561, Note_on_c, 0, 79, 79
1, 304562, Note_on_c, 0, 70, 70
1, 304566, Control_c, 0, 64, 69
1, 304570, Note_on_c, 0, 43, 80
1, 304570, Note_on_c, 0, 55, 81
1, 304570, Note_on_c, 0, 74, 63
1, 304580, Control_c, 0, 64, 61
1, 304610, Control_c, 0, 64, 64
1, 304625, Control_c, 0, 64, 69
1, 304640, Control_c, 0, 64, 77
1, 304647, Note_off_c, 0, 74, 47
1, 304655, Control_c, 0, 64, 91
1, 304659, Note_off_c, 0, 70, 51
1, 304669, Control_c, 0, 64, 127
1, 304682, Poly_aftertouch_c, 0, 76, 127
1, 304694, Note_off_c, 0, 43, 59
1, 304696, Note_off_c, 0, 55, 60
1, 304730, Poly_aftertouch_c, 0, 77, 0
1, 304735, Poly_aftertouch_c, 0, 76, 0
1, 304781, Note_on_c, 0, 74, 77
1, 304783, Note_on_c, 0, 70, 58
1, 304789, Note_on_c, 0, 67, 69
1, 304813, Note_off_c, 0, 79, 34
1, 304848, Note_off_c, 0, 74, 61
1, 304850, Note_off_c, 0, 67, 47
1, 304863, Note_on_c, 0, 58, 77
1, 304867, Note_on_c, 0, 46, 77
1, 304880, Note_off_c, 0, 70, 35
1, 304911, Note_off_c, 0, 58, 57
1, 304915, Note_off_c, 0, 46, 58
1, 304959, Control_c, 0, 64, 87
1, 304968, Note_on_c, 0, 62, 92
1, 304974, Control_c, 0, 64, 64
1, 304975, Note_on_c, 0, 50, 78
1, 304988, Control_c, 0, 64, 50
1, 305003, Control_c, 0, 64, 53
1, 305009, Note_on_c, 0, 52, 36
1, 305018, Control_c, 0, 64, 59
1, 305033, Control_c, 0, 64, 64
1, 305048, Note_off_c, 0, 52, 35
1, 305048, Control_c, 0, 64, 69
1, 305063, Control_c, 0, 64, 78
1, 305078, Control_c, 0, 64, 92
1, 305093, Control_c, 0, 64, 102
1, 305107, Control_c, 0, 64, 103
1, 305122, Control_c, 0, 64, 104
1, 305137, Control_c, 0, 64, 106
1, 305152, Control_c, 0, 64, 108
1, 305161, Note_on_c, 0, 66, 84
1, 305161, Note_on_c, 0, 74, 85
1, 305163, Note_on_c, 0, 69, 87
1, 305167, Control_c, 0, 64, 111
1, 305181, Control_c, 0, 64, 115
1, 305190, Note_off_c, 0, 50, 61
1, 305191, Note_off_c, 0, 62, 56
1, 305196, Control_c, 0, 64, 115
1, 305197, Note_off_c, 0, 66, 61
1, 305215, Note_off_c, 0, 69, 62
1, 305238, Note_off_c, 0, 74, 62
1, 305360, Control_c, 0, 64, 113
1, 305372, Note_on_c, 0, 62, 93
1, 305373, Note_on_c, 0, 50, 81
1, 305375, Control_c, 0, 64, 101
1, 305390, Control_c, 0, 64, 79
1, 305404, Control_c, 0, 64, 61
1, 305419, Control_c, 0, 64, 49
1, 305434, Control_c, 0, 64, 53
1, 305449, Control_c, 0, 64, 61
1, 305464, Control_c, 0, 64, 66
1, 305486, Control_c, 0, 64, 72
1, 305501, Control_c, 0, 64, 83
1, 305516, Control_c, 0, 64, 94
1, 305530, Control_c, 0, 64, 103
1, 305545, Control_c, 0, 64, 105
1, 305560, Control_c, 0, 64, 107
1, 305575, Control_c, 0, 64, 109
1, 305578, Note_on_c, 0, 72, 87
1, 305578, Note_on_c, 0, 74, 94
1, 305580, Note_on_c, 0, 81, 88
1, 305582, Note_off_c, 0, 50, 60
1, 305582, Note_off_c, 0, 62, 58
1, 305590, Control_c, 0, 64, 112
1, 305604, Control_c, 0, 64, 116
1, 305619, Control_c, 0, 64, 118
1, 305634, Control_c, 0, 64, 119
1, 305706, Note_off_c, 0, 72, 56
1, 305722, Control_c, 0, 64, 118
1, 305737, Control_c, 0, 64, 117
1, 305745, Note_off_c, 0, 81, 48
1, 305752, Control_c, 0, 64, 114
1, 305767, Control_c, 0, 64, 101
1, 305772, Note_on_c, 0, 62, 88
1, 305775, Note_on_c, 0, 50, 88
1, 305782, Control_c, 0, 64, 80
1, 305796, Note_off_c, 0, 74, 46
1, 305796, Control_c, 0, 64, 61
1, 305811, Control_c, 0, 64, 55
1, 305826, Control_c, 0, 64, 60
1, 305841, Control_c, 0, 64, 65
1, 305856, Control_c, 0, 64, 71
1, 305871, Control_c, 0, 64, 80
1, 305886, Control_c, 0, 64, 95
1, 305901, Control_c, 0, 64, 115
1, 305916, Control_c, 0, 64, 124
1, 305921, Note_on_c, 0, 58, 37
1, 305930, Control_c, 0, 64, 127
1, 305948, Note_off_c, 0, 50, 59
1, 305955, Note_off_c, 0, 58, 50
1, 305963, Note_off_c, 0, 62, 57
1, 305966, Note_on_c, 0, 70, 90
1, 305967, Note_on_c, 0, 74, 87
1, 305968, Note_on_c, 0, 79, 87
1, 306114, Note_off_c, 0, 74, 37
1, 306137, Note_off_c, 0, 70, 31
1, 306137, Note_off_c, 0, 79, 36
1, 306139, Control_c, 0, 64, 105
1, 306153, Control_c, 0, 64, 84
1, 306168, Control_c, 0, 64, 71
1, 306172, Note_on_c, 0, 62, 90
1, 306173, Note_on_c, 0, 50, 82
1, 306183, Control_c, 0, 64, 69
1, 306198, Control_c, 0, 64, 79
1, 306213, Control_c, 0, 64, 97
1, 306234, Control_c, 0, 64, 127
1, 306259, Note_on_c, 0, 52, 3
1, 306281, Note_off_c, 0, 50, 60
1, 306283, Note_off_c, 0, 62, 57
1, 306297, Note_on_c, 0, 58, 38
1, 306298, Note_off_c, 0, 52, 35
1, 306326, Note_off_c, 0, 58, 54
1, 306362, Note_on_c, 0, 69, 85
1, 306363, Note_on_c, 0, 78, 85
1, 306366, Note_on_c, 0, 74, 82
1, 306479, Note_off_c, 0, 74, 61
1, 306482, Note_off_c, 0, 78, 59
1, 306514, Note_off_c, 0, 69, 57
1, 306606, Note_on_c, 0, 51, 68
1, 306607, Note_on_c, 0, 63, 87
1, 306618, Control_c, 0, 64, 106
1, 306633, Control_c, 0, 64, 78
1, 306648, Control_c, 0, 64, 60
1, 306663, Control_c, 0, 64, 49
1, 306677, Control_c, 0, 64, 51
1, 306692, Control_c, 0, 64, 59
1, 306707, Control_c, 0, 64, 65
1, 306722, Control_c, 0, 64, 72
1, 306737, Control_c, 0, 64, 82
1, 306751, Control_c, 0, 64, 95
1, 306766, Control_c, 0, 64, 107
1, 306781, Control_c, 0, 64, 112
1, 306796, Control_c, 0, 64, 112
1, 306811, Control_c, 0, 64, 113
1, 306816, Note_on_c, 0, 74, 82
1, 306818, Note_on_c, 0, 67, 78
1, 306818, Note_on_c, 0, 79, 80
1, 306856, Control_c, 0, 64, 114
1, 306871, Control_c, 0, 64, 117
1, 306886, Control_c, 0, 64, 123
1, 306897, Note_off_c, 0, 74, 58
1, 306900, Control_c, 0, 64, 127
1, 306914, Note_off_c, 0, 67, 49
1, 306918, Note_off_c, 0, 79, 56
1, 307012, Note_on_c, 0, 72, 48
1, 307026, Note_on_c, 0, 67, 87
1, 307027, Note_on_c, 0, 79, 87
1, 307045, Note_off_c, 0, 67, 67
1, 307075, Note_off_c, 0, 72, 62
1, 307089, Note_off_c, 0, 79, 64
1, 307179, Note_off_c, 0, 63, 36
1, 307201, Note_off_c, 0, 51, 39
1, 307210, Note_on_c, 0, 73, 91
1, 307212, Note_on_c, 0, 85, 86
1, 307212, Note_on_c, 0, 79, 75
1, 307337, Note_off_c, 0, 73, 60
1, 307355, Note_off_c, 0, 79, 53
1, 307371, Note_off_c, 0, 85, 61
1, 307397, Control_c, 0, 64, 115
1, 307407, Note_on_c, 0, 62, 87
1, 307409, Note_on_c, 0, 50, 83
1, 307412, Control_c, 0, 64, 92
1, 307427, Control_c, 0, 64, 71
1, 307441, Control_c, 0, 64, 61
1, 307456, Control_c, 0, 64, 61
1, 307471, Control_c, 0, 64, 64
1, 307486, Control_c, 0, 64, 68
1, 307500, Control_c, 0, 64, 73
1, 307515, Control_c, 0, 64, 83
1, 307530, Control_c, 0, 64, 100
1, 307545, Control_c, 0, 64, 111
1, 307560, Control_c, 0, 64, 111
1, 307584, Note_on_c, 0, 74, 87
1, 307588, Note_on_c, 0, 81, 83
1, 307589, Note_on_c, 0, 86, 78
1, 307589, Control_c, 0, 64, 114
1, 307593, Note_on_c, 0, 79, 50
1, 307604, Control_c, 0, 64, 127
1, 307615, Note_off_c, 0, 79, 61
1, 307636, Note_off_c, 0, 74, 59
1, 307671, Note_off_c, 0, 86, 54
1, 307690, Note_off_c, 0, 81, 32
1, 307790, Note_on_c, 0, 77, 84
1, 307791, Note_on_c, 0, 86, 78
1, 307799, Note_on_c, 0, 74, 74
1, 307799, Note_on_c, 0, 81, 79
1, 307809, Note_off_c, 0, 86, 69
1, 307819, Note_off_c, 0, 81, 68
1, 307823, Note_off_c, 0, 74, 63
1, 307838, Note_off_c, 0, 77, 63
1, 307935, Note_off_c, 0, 62, 54
1, 307974, Note_off_c, 0, 50, 57
1, 307987, Note_on_c, 0, 69, 81
1, 307988, Note_on_c, 0, 74, 72
1, 307993, Note_on_c, 0, 65, 75
1, 308152, Note_off_c, 0, 65, 59
1, 308158, Note_off_c, 0, 74, 61
1, 308162, Note_off_c, 0, 69, 63
1, 308178, Note_on_c, 0, 60, 87
1, 308183, Note_on_c, 0, 48, 82
1, 308191, Control_c, 0, 64, 106
1, 308205, Control_c, 0, 64, 83
1, 308220, Control_c, 0, 64, 65
1, 308235, Control_c, 0, 64, 57
1, 308250, Control_c, 0, 64, 60
1, 308264, Control_c, 0, 64, 65
1, 308279, Control_c, 0, 64, 69
1, 308294, Control_c, 0, 64, 75
1, 308309, Control_c, 0, 64, 84
1, 308324, Control_c, 0, 64, 96
1, 308339, Control_c, 0, 64, 102
1, 308356, Note_on_c, 0, 63, 77
1, 308357, Note_on_c, 0, 70, 78
1, 308357, Note_on_c, 0, 75, 79
1, 308369, Control_c, 0, 64, 103
1, 308384, Control_c, 0, 64, 104
1, 308398, Control_c, 0, 64, 106
1, 308413, Control_c, 0, 64, 110
1, 308428, Control_c, 0, 64, 116
1, 308443, Control_c, 0, 64, 127
1, 308449, Note_off_c, 0, 75, 55
1, 308476, Note_off_c, 0, 63, 35
1, 308480, Note_off_c, 0, 70, 37
1, 308485, Note_on_c, 0, 55, 37
1, 308493, Note_off_c, 0, 60, 55
1, 308551, Note_off_c, 0, 55, 53
1, 308559, Note_on_c, 0, 69, 82
1, 308560, Note_on_c, 0, 63, 87
1, 308566, Note_on_c, 0, 75, 81
1, 308584, Note_off_c, 0, 63, 62
1, 308606, Note_off_c, 0, 69, 64
1, 308630, Note_off_c, 0, 75, 62
1, 308751, Note_on_c, 0, 81, 84
1, 308754, Note_on_c, 0, 69, 82
1, 308755, Note_on_c, 0, 75, 77
1, 308780, Note_on_c, 0, 79, 51
1, 308803, Note_off_c, 0, 79, 60
1, 308846, Note_off_c, 0, 69, 60
1, 308887, Note_off_c, 0, 81, 54
1, 308930, Note_off_c, 0, 75, 60
1, 308941, Note_on_c, 0, 58, 88
1, 308943, Note_off_c, 0, 48, 39
1, 308944, Note_on_c, 0, 46, 79
1, 308954, Control_c, 0, 64, 105
1, 308969, Control_c, 0, 64, 77
1, 308984, Control_c, 0, 64, 64
1, 308999, Control_c, 0, 64, 62
1, 309014, Control_c, 0, 64, 65
1, 309028, Control_c, 0, 64, 70
1, 309043, Control_c, 0, 64, 79
1, 309058, Control_c, 0, 64, 99
1, 309072, Control_c, 0, 64, 127
1, 309122, Note_on_c, 0, 75, 69
1, 309123, Note_on_c, 0, 70, 78
1, 309128, Note_on_c, 0, 82, 73
1, 309130, Note_on_c, 0, 77, 73
1, 309163, Note_off_c, 0, 75, 57
1, 309209, Note_off_c, 0, 82, 55
1, 309247, Note_off_c, 0, 70, 44
1, 309255, Note_off_c, 0, 77, 35
1, 309323, Note_on_c, 0, 70, 77
1, 309326, Note_on_c, 0, 74, 78
1, 309329, Note_on_c, 0, 77, 78
1, 309349, Note_off_c, 0, 70, 59
1, 309352, Note_off_c, 0, 77, 63
1, 309359, Note_off_c, 0, 74, 59
1, 309362, Note_off_c, 0, 46, 53
1, 309367, Note_off_c, 0, 58, 48
1, 309496, Control_c, 0, 64, 113
1, 309510, Control_c, 0, 64, 86
1, 309525, Control_c, 0, 64, 77
1, 309534, Note_on_c, 0, 72, 83
1, 309537, Note_on_c, 0, 57, 70
1, 309538, Note_on_c, 0, 45, 72
1, 309540, Control_c, 0, 64, 78
1, 309545, Note_on_c, 0, 65, 67
1, 309555, Control_c, 0, 64, 87
1, 309569, Control_c, 0, 64, 109
1, 309584, Control_c, 0, 64, 127
1, 309591, Note_off_c, 0, 57, 59
1, 309609, Note_off_c, 0, 45, 56
1, 309679, Note_off_c, 0, 65, 58
1, 309692, Note_off_c, 0, 72, 60
1, 309794, Note_on_c, 0, 43, 73
1, 309795, Note_on_c, 0, 55, 70
1, 309806, Control_c, 0, 64, 97
1, 309820, Control_c, 0, 64, 79
1, 309835, Control_c, 0, 64, 65
1, 309850, Control_c, 0, 64, 60
1, 309865, Control_c, 0, 64, 61
1, 309880, Control_c, 0, 64, 66
1, 309895, Control_c, 0, 64, 72
1, 309910, Control_c, 0, 64, 84
1, 309925, Control_c, 0, 64, 109
1, 309934, Note_off_c, 0, 43, 60
1, 309940, Control_c, 0, 64, 127
1, 309987, Note_off_c, 0, 55, 56
1, 310044, Note_on_c, 0, 70, 73
1, 310048, Note_on_c, 0, 63, 64
1, 310050, Note_on_c, 0, 75, 64
1, 310092, Note_off_c, 0, 63, 53
1, 310113, Note_off_c, 0, 70, 58
1, 310139, Note_off_c, 0, 75, 54
1, 310230, Note_on_c, 0, 63, 81
1, 310236, Note_on_c, 0, 51, 74
1, 310244, Control_c, 0, 64, 91
1, 310259, Control_c, 0, 64, 74
1, 310274, Control_c, 0, 64, 67
1, 310288, Control_c, 0, 64, 69
1, 310303, Control_c, 0, 64, 75
1, 310318, Control_c, 0, 64, 86
1, 310333, Control_c, 0, 64, 110
1, 310348, Control_c, 0, 64, 127
1, 310418, Note_off_c, 0, 63, 53
1, 310420, Note_on_c, 0, 67, 81
1, 310423, Note_on_c, 0, 72, 84
1, 310433, Note_on_c, 0, 70, 74
1, 310449, Note_off_c, 0, 51, 35
1, 310530, Note_off_c, 0, 72, 60
1, 310533, Note_off_c, 0, 67, 54
1, 310554, Note_off_c, 0, 70, 55
1, 310599, Control_c, 0, 64, 96
1, 310610, Note_on_c, 0, 62, 89
1, 310614, Control_c, 0, 64, 78
1, 310616, Note_on_c, 0, 50, 76
1, 310629, Control_c, 0, 64, 70
1, 310643, Control_c, 0, 64, 72
1, 310652, Note_on_c, 0, 52, 39
1, 310653, Note_off_c, 0, 52, 127
1, 310658, Control_c, 0, 64, 80
1, 310673, Control_c, 0, 64, 95
1, 310686, Poly_aftertouch_c, 0, 52, 0
1, 310688, Control_c, 0, 64, 127
1, 310743, Note_off_c, 0, 62, 58
1, 310770, Note_off_c, 0, 50, 57
1, 310795, Note_on_c, 0, 65, 86
1, 310795, Note_on_c, 0, 77, 85
1, 310798, Note_on_c, 0, 70, 93
1, 310834, Note_off_c, 0, 65, 63
1, 310855, Note_off_c, 0, 70, 61
1, 310879, Note_off_c, 0, 77, 60
1, 310978, Control_c, 0, 64, 91
1, 310983, Note_on_c, 0, 60, 91
1, 310983, Note_on_c, 0, 48, 89
1, 310993, Control_c, 0, 64, 69
1, 311009, Control_c, 0, 64, 61
1, 311023, Control_c, 0, 64, 65
1, 311038, Control_c, 0, 64, 71
1, 311053, Control_c, 0, 64, 79
1, 311067, Control_c, 0, 64, 96
1, 311082, Control_c, 0, 64, 127
1, 311119, Note_off_c, 0, 60, 58
1, 311131, Note_off_c, 0, 48, 60
1, 311176, Note_on_c, 0, 69, 89
1, 311180, Note_on_c, 0, 81, 86
1, 311183, Note_on_c, 0, 75, 89
1, 311186, Note_on_c, 0, 77, 83
1, 311232, Note_off_c, 0, 69, 61
1, 311261, Note_off_c, 0, 81, 59
1, 311287, Note_off_c, 0, 77, 57
1, 311297, Note_off_c, 0, 75, 55
1, 311415, Note_on_c, 0, 46, 81
1, 311415, Note_on_c, 0, 58, 86
1, 311423, Control_c, 0, 64, 105
1, 311438, Control_c, 0, 64, 79
1, 311453, Control_c, 0, 64, 60
1, 311475, Control_c, 0, 64, 30
1, 311505, Control_c, 0, 64, 27
1, 311520, Control_c, 0, 64, 52
1, 311535, Control_c, 0, 64, 64
1, 311549, Control_c, 0, 64, 71
1, 311564, Control_c, 0, 64, 78
1, 311579, Control_c, 0, 64, 86
1, 311593, Control_c, 0, 64, 91
1, 311608, Control_c, 0, 64, 95
1, 311623, Control_c, 0, 64, 96
1, 311638, Control_c, 0, 64, 96
1, 311654, Note_on_c, 0, 70, 80
1, 311659, Note_on_c, 0, 82, 76
1, 311664, Note_on_c, 0, 75, 70
1, 311672, Note_on_c, 0, 77, 70
1, 311684, Control_c, 0, 64, 97
1, 311716, Note_off_c, 0, 75, 53
1, 311740, Note_off_c, 0, 82, 60
1, 311758, Control_c, 0, 64, 96
1, 311772, Control_c, 0, 64, 96
1, 311773, Note_off_c, 0, 70, 35
1, 311779, Note_off_c, 0, 77, 36
1, 311856, Note_on_c, 0, 70, 76
1, 311859, Note_on_c, 0, 77, 54
1, 311860, Note_on_c, 0, 74, 73
1, 311863, Note_on_c, 0, 82, 59
1, 311876, Control_c, 0, 64, 91
1, 311890, Note_off_c, 0, 82, 52
1, 311890, Control_c, 0, 64, 84
1, 311905, Control_c, 0, 64, 81
1, 311919, Note_off_c, 0, 77, 41
1, 311920, Control_c, 0, 64, 85
1, 311935, Control_c, 0, 64, 93
1, 311950, Control_c, 0, 64, 102
1, 311964, Control_c, 0, 64, 111
1, 311973, Note_off_c, 0, 70, 34
1, 311978, Note_off_c, 0, 74, 38
1, 311979, Control_c, 0, 64, 115
1, 311994, Control_c, 0, 64, 116
1, 312023, Note_on_c, 0, 70, 66
1, 312031, Note_on_c, 0, 74, 57
1, 312036, Note_on_c, 0, 77, 69
1, 312038, Control_c, 0, 64, 122
1, 312053, Control_c, 0, 64, 127
1, 312057, Note_off_c, 0, 77, 63
1, 312061, Note_off_c, 0, 74, 63
1, 312076, Note_off_c, 0, 70, 55
1, 312106, Note_off_c, 0, 58, 58
1, 312158, Note_off_c, 0, 46, 35
1, 312202, Control_c, 0, 64, 100
1, 312216, Note_on_c, 0, 65, 72
1, 312220, Note_on_c, 0, 74, 67
1, 312223, Control_c, 0, 64, 81
1, 312230, Note_on_c, 0, 70, 55
1, 312238, Control_c, 0, 64, 70
1, 312253, Control_c, 0, 64, 72
1, 312268, Control_c, 0, 64, 83
1, 312283, Control_c, 0, 64, 100
1, 312289, Note_off_c, 0, 74, 55
1, 312289, Note_off_c, 0, 65, 58
1, 312297, Note_off_c, 0, 70, 53
1, 312298, Control_c, 0, 64, 127
1, 312429, Note_on_c, 0, 70, 70
1, 312435, Note_on_c, 0, 62, 67
1, 312466, Note_off_c, 0, 62, 63
1, 312482, Note_off_c, 0, 70, 57
1, 312654, Control_c, 0, 64, 118
1, 312669, Control_c, 0, 64, 108
1, 312684, Control_c, 0, 64, 98
1, 312699, Control_c, 0, 64, 86
1, 312706, Note_on_c, 0, 70, 72
1, 312712, Note_on_c, 0, 58, 61
1, 312713, Control_c, 0, 64, 73
1, 312728, Control_c, 0, 64, 62
1, 312743, Control_c, 0, 64, 51
1, 312758, Control_c, 0, 64, 51
1, 312773, Control_c, 0, 64, 54
1, 312787, Control_c, 0, 64, 61
1, 312802, Control_c, 0, 64, 67
1, 312817, Control_c, 0, 64, 75
1, 312832, Control_c, 0, 64, 87
1, 312846, Note_off_c, 0, 58, 59
1, 312846, Control_c, 0, 64, 106
1, 312861, Control_c, 0, 64, 124
1, 312876, Control_c, 0, 64, 127
1, 312900, Note_off_c, 0, 70, 56
1, 313084, Note_on_c, 0, 74, 70
1, 313088, Note_on_c, 0, 62, 58
1, 313117, Note_off_c, 0, 62, 61
1, 313155, Note_off_c, 0, 74, 50
1, 313180, Control_c, 0, 64, 122
1, 313195, Control_c, 0, 64, 117
1, 313210, Control_c, 0, 64, 112
1, 313225, Control_c, 0, 64, 107
1, 313240, Control_c, 0, 64, 101
1, 313254, Control_c, 0, 64, 95
1, 313269, Control_c, 0, 64, 89
1, 313270, Note_on_c, 0, 77, 64
1, 313280, Note_on_c, 0, 65, 53
1, 313284, Control_c, 0, 64, 83
1, 313290, Note_on_c, 0, 46, 41
1, 313299, Control_c, 0, 64, 74
1, 313314, Control_c, 0, 64, 66
1, 313326, Note_off_c, 0, 65, 0
1, 313329, Control_c, 0, 64, 59
1, 313343, Control_c, 0, 64, 55
1, 313358, Control_c, 0, 64, 55
1, 313362, Poly_aftertouch_c, 0, 65, 127
1, 313373, Control_c, 0, 64, 59
1, 313388, Control_c, 0, 64, 64
1, 313403, Control_c, 0, 64, 68
1, 313417, Control_c, 0, 64, 74
1, 313432, Control_c, 0, 64, 84
1, 313447, Control_c, 0, 64, 95
1, 313461, Control_c, 0, 64, 101
1, 313463, Note_off_c, 0, 46, 38
1, 313467, Note_on_c, 0, 50, 47
1, 313490, Poly_aftertouch_c, 0, 65, 0
1, 313491, Control_c, 0, 64, 101
1, 313515, Note_off_c, 0, 77, 36
1, 313578, Note_on_c, 0, 53, 54
1, 313587, Note_off_c, 0, 50, 34
1, 313669, Note_on_c, 0, 50, 41
1, 313687, Note_off_c, 0, 53, 34
1, 313721, Control_c, 0, 64, 100
1, 313736, Control_c, 0, 64, 98
1, 313750, Control_c, 0, 64, 92
1, 313765, Control_c, 0, 64, 82
1, 313779, Note_on_c, 0, 65, 60
1, 313780, Note_on_c, 0, 77, 64
1, 313780, Control_c, 0, 64, 72
1, 313782, Note_off_c, 0, 50, 46
1, 313794, Control_c, 0, 64, 68
1, 313795, Note_on_c, 0, 46, 43
1, 313824, Control_c, 0, 64, 69
1, 313839, Control_c, 0, 64, 72
1, 313854, Control_c, 0, 64, 80
1, 313869, Control_c, 0, 64, 92
1, 313883, Control_c, 0, 64, 102
1, 313898, Control_c, 0, 64, 104
1, 313904, Note_on_c, 0, 50, 53
1, 313923, Note_off_c, 0, 46, 35
1, 313928, Control_c, 0, 64, 105
1, 313947, Note_off_c, 0, 65, 35
1, 313967, Note_off_c, 0, 50, 52
1, 313991, Note_on_c, 0, 53, 57
1, 314081, Note_on_c, 0, 50, 54
1, 314099, Note_off_c, 0, 53, 34
1, 314152, Control_c, 0, 64, 103
1, 314166, Control_c, 0, 64, 99
1, 314176, Note_off_c, 0, 50, 53
1, 314181, Control_c, 0, 64, 91
1, 314183, Note_on_c, 0, 45, 56
1, 314187, Note_on_c, 0, 78, 73
1, 314193, Note_on_c, 0, 66, 66
1, 314196, Control_c, 0, 64, 80
1, 314210, Control_c, 0, 64, 68
1, 314222, Note_off_c, 0, 77, 36
1, 314225, Control_c, 0, 64, 63
1, 314240, Control_c, 0, 64, 64
1, 314255, Control_c, 0, 64, 66
1, 314270, Control_c, 0, 64, 71
1, 314284, Control_c, 0, 64, 78
1, 314299, Control_c, 0, 64, 88
1, 314305, Note_off_c, 0, 45, 47
1, 314308, Note_on_c, 0, 48, 53
1, 314314, Control_c, 0, 64, 100
1, 314329, Control_c, 0, 64, 106
1, 314344, Control_c, 0, 64, 107
1, 314353, Note_off_c, 0, 66, 52
1, 314387, Note_off_c, 0, 48, 59
1, 314398, Note_on_c, 0, 50, 65
1, 314417, Control_c, 0, 64, 107
1, 314470, Control_c, 0, 64, 108
1, 314500, Note_on_c, 0, 48, 52
1, 314518, Note_off_c, 0, 50, 33
1, 314572, Note_off_c, 0, 78, 0
1, 314573, Control_c, 0, 64, 107
1, 314581, Note_on_c, 0, 43, 60
1, 314588, Control_c, 0, 64, 104
1, 314592, Note_off_c, 0, 48, 54
1, 314600, Note_on_c, 0, 79, 84
1, 314603, Note_on_c, 0, 67, 77
1, 314603, Control_c, 0, 64, 96
1, 314609, Poly_aftertouch_c, 0, 78, 127
1, 314617, Control_c, 0, 64, 84
1, 314632, Control_c, 0, 64, 71
1, 314647, Control_c, 0, 64, 65
1, 314662, Control_c, 0, 64, 66
1, 314676, Poly_aftertouch_c, 0, 78, 0
1, 314677, Control_c, 0, 64, 69
1, 314691, Control_c, 0, 64, 74
1, 314706, Control_c, 0, 64, 83
1, 314721, Control_c, 0, 64, 94
1, 314723, Note_off_c, 0, 43, 54
1, 314724, Note_on_c, 0, 48, 65
1, 314736, Control_c, 0, 64, 103
1, 314751, Control_c, 0, 64, 106
1, 314766, Control_c, 0, 64, 106
1, 314772, Note_off_c, 0, 67, 59
1, 314781, Control_c, 0, 64, 107
1, 314796, Control_c, 0, 64, 108
1, 314798, Note_off_c, 0, 48, 60
1, 314811, Note_on_c, 0, 50, 67
1, 314813, Note_off_c, 0, 79, 59
1, 314841, Control_c, 0, 64, 108
1, 314871, Control_c, 0, 64, 109
1, 314906, Note_off_c, 0, 50, 52
1, 314913, Note_on_c, 0, 48, 61
1, 314989, Control_c, 0, 64, 108
1, 315004, Control_c, 0, 64, 105
1, 315019, Note_on_c, 0, 81, 84
1, 315019, Control_c, 0, 64, 99
1, 315020, Note_on_c, 0, 69, 80
1, 315029, Note_on_c, 0, 42, 55
1, 315034, Control_c, 0, 64, 89
1, 315049, Control_c, 0, 64, 76
1, 315058, Note_off_c, 0, 48, 34
1, 315064, Control_c, 0, 64, 65
1, 315079, Control_c, 0, 64, 59
1, 315094, Control_c, 0, 64, 60
1, 315108, Control_c, 0, 64, 64
1, 315123, Control_c, 0, 64, 68
1, 315138, Control_c, 0, 64, 73
1, 315152, Control_c, 0, 64, 82
1, 315156, Note_off_c, 0, 42, 53
1, 315163, Note_on_c, 0, 48, 59
1, 315167, Control_c, 0, 64, 95
1, 315182, Control_c, 0, 64, 108
1, 315197, Note_off_c, 0, 69, 61
1, 315197, Control_c, 0, 64, 110
1, 315227, Note_off_c, 0, 48, 56
1, 315234, Control_c, 0, 64, 111
1, 315248, Note_off_c, 0, 81, 57
1, 315258, Note_on_c, 0, 50, 57
1, 315279, Control_c, 0, 64, 111
1, 315328, Note_on_c, 0, 48, 51
1, 315365, Note_off_c, 0, 50, 35
1, 315397, Control_c, 0, 64, 109
1, 315412, Control_c, 0, 64, 104
1, 315427, Control_c, 0, 64, 97
1, 315436, Note_on_c, 0, 42, 55
1, 315440, Note_on_c, 0, 84, 80
1, 315441, Control_c, 0, 64, 86
1, 315444, Note_on_c, 0, 72, 74
1, 315456, Control_c, 0, 64, 73
1, 315468, Note_off_c, 0, 48, 36
1, 315471, Control_c, 0, 64, 63
1, 315486, Control_c, 0, 64, 59
1, 315501, Control_c, 0, 64, 60
1, 315515, Control_c, 0, 64, 64
1, 315530, Control_c, 0, 64, 69
1, 315535, Note_off_c, 0, 42, 57
1, 315540, Note_on_c, 0, 45, 59
1, 315545, Control_c, 0, 64, 75
1, 315559, Control_c, 0, 64, 86
1, 315574, Control_c, 0, 64, 99
1, 315587, Note_off_c, 0, 84, 56
1, 315589, Control_c, 0, 64, 108
1, 315604, Control_c, 0, 64, 109
1, 315619, Control_c, 0, 64, 109
1, 315635, Control_c, 0, 64, 110
1, 315650, Note_off_c, 0, 45, 53
1, 315657, Note_on_c, 0, 50, 63
1, 315657, Note_off_c, 0, 72, 35
1, 315744, Note_on_c, 0, 45, 50
1, 315779, Note_off_c, 0, 50, 33
1, 315782, Control_c, 0, 64, 108
1, 315797, Control_c, 0, 64, 103
1, 315812, Control_c, 0, 64, 97
1, 315827, Note_off_c, 0, 45, 56
1, 315827, Control_c, 0, 64, 91
1, 315840, Note_on_c, 0, 43, 59
1, 315842, Control_c, 0, 64, 83
1, 315856, Note_on_c, 0, 82, 75
1, 315857, Control_c, 0, 64, 74
1, 315861, Note_on_c, 0, 70, 67
1, 315872, Control_c, 0, 64, 64
1, 315887, Control_c, 0, 64, 57
1, 315902, Control_c, 0, 64, 55
1, 315916, Control_c, 0, 64, 57
1, 315931, Control_c, 0, 64, 62
1, 315946, Control_c, 0, 64, 67
1, 315964, Note_off_c, 0, 43, 55
1, 315968, Control_c, 0, 64, 74
1, 315973, Note_on_c, 0, 46, 54
1, 315982, Control_c, 0, 64, 85
1, 315990, Note_off_c, 0, 82, 56
1, 315997, Control_c, 0, 64, 98
1, 316012, Control_c, 0, 64, 106
1, 316023, Note_off_c, 0, 70, 35
1, 316027, Control_c, 0, 64, 106
1, 316053, Note_off_c, 0, 46, 55
1, 316057, Control_c, 0, 64, 107
1, 316070, Note_on_c, 0, 50, 59
1, 316184, Note_on_c, 0, 46, 58
1, 316190, Note_off_c, 0, 50, 34
1, 316220, Control_c, 0, 64, 106
1, 316235, Control_c, 0, 64, 105
1, 316250, Control_c, 0, 64, 103
1, 316264, Control_c, 0, 64, 99
1, 316279, Control_c, 0, 64, 92
1, 316283, Note_on_c, 0, 48, 61
1, 316293, Note_on_c, 0, 81, 77
1, 316294, Control_c, 0, 64, 81
1, 316295, Note_on_c, 0, 69, 72
1, 316309, Control_c, 0, 64, 69
1, 316313, Note_off_c, 0, 46, 46
1, 316324, Control_c, 0, 64, 63
1, 316353, Control_c, 0, 64, 65
1, 316368, Control_c, 0, 64, 69
1, 316382, Control_c, 0, 64, 74
1, 316383, Note_off_c, 0, 48, 60
1, 316395, Note_off_c, 0, 81, 57
1, 316397, Control_c, 0, 64, 84
1, 316401, Note_on_c, 0, 51, 55
1, 316408, Note_off_c, 0, 69, 56
1, 316412, Control_c, 0, 64, 97
1, 316427, Control_c, 0, 64, 104
1, 316443, Control_c, 0, 64, 105
1, 316458, Control_c, 0, 64, 105
1, 316508, Note_off_c, 0, 51, 34
1, 316513, Note_on_c, 0, 57, 60
1, 316620, Note_on_c, 0, 51, 60
1, 316621, Note_on_c, 0, 67, 62
1, 316626, Note_on_c, 0, 79, 59
1, 316645, Note_off_c, 0, 67, 61
1, 316652, Note_off_c, 0, 57, 40
1, 316665, Control_c, 0, 64, 104
1, 316680, Control_c, 0, 64, 102
1, 316694, Control_c, 0, 64, 99
1, 316717, Control_c, 0, 64, 94
1, 316727, Note_off_c, 0, 79, 34
1, 316732, Control_c, 0, 64, 83
1, 316742, Note_on_c, 0, 50, 54
1, 316747, Control_c, 0, 64, 70
1, 316755, Note_off_c, 0, 51, 45
1, 316759, Note_on_c, 0, 78, 63
1, 316761, Control_c, 0, 64, 60
1, 316769, Note_on_c, 0, 66, 60
1, 316776, Control_c, 0, 64, 53
1, 316805, Control_c, 0, 64, 55
1, 316820, Control_c, 0, 64, 61
1, 316835, Control_c, 0, 64, 67
1, 316850, Control_c, 0, 64, 74
1, 316865, Control_c, 0, 64, 84
1, 316874, Note_off_c, 0, 50, 52
1, 316875, Note_off_c, 0, 66, 56
1, 316879, Control_c, 0, 64, 96
1, 316884, Note_on_c, 0, 57, 51
1, 316891, Note_off_c, 0, 78, 52
1, 316894, Control_c, 0, 64, 102
1, 316924, Control_c, 0, 64, 103
1, 316939, Control_c, 0, 64, 103
1, 316987, Note_off_c, 0, 57, 35
1, 316996, Note_on_c, 0, 60, 49
1, 317041, Note_off_c, 0, 60, 51
1, 317061, Note_on_c, 0, 57, 37
1, 317087, Control_c, 0, 64, 103
1, 317102, Control_c, 0, 64, 102
1, 317117, Control_c, 0, 64, 99
1, 317131, Control_c, 0, 64, 94
1, 317146, Note_on_c, 0, 50, 50
1, 317146, Control_c, 0, 64, 85
1, 317154, Note_on_c, 0, 66, 63
1, 317160, Note_on_c, 0, 78, 62
1, 317161, Note_off_c, 0, 57, 34
1, 317161, Control_c, 0, 64, 73
1, 317176, Control_c, 0, 64, 65
1, 317205, Control_c, 0, 64, 67
1, 317220, Control_c, 0, 64, 71
1, 317236, Control_c, 0, 64, 79
1, 317251, Control_c, 0, 64, 88
1, 317266, Control_c, 0, 64, 96
1, 317280, Note_on_c, 0, 57, 50
1, 317281, Control_c, 0, 64, 98
1, 317290, Note_off_c, 0, 50, 33
1, 317291, Note_off_c, 0, 66, 35
1, 317296, Control_c, 0, 64, 99
1, 317335, Note_off_c, 0, 57, 53
1, 317359, Note_on_c, 0, 60, 53
1, 317474, Note_off_c, 0, 60, 32
1, 317478, Note_off_c, 0, 78, 34
1, 317495, Note_on_c, 0, 57, 39
1, 317496, Control_c, 0, 64, 97
1, 317510, Control_c, 0, 64, 94
1, 317525, Control_c, 0, 64, 88
1, 317540, Note_on_c, 0, 67, 62
1, 317540, Control_c, 0, 64, 76
1, 317543, Note_on_c, 0, 79, 66
1, 317545, Note_off_c, 0, 57, 44
1, 317552, Note_on_c, 0, 50, 45
1, 317554, Control_c, 0, 64, 67
1, 317569, Control_c, 0, 64, 65
1, 317599, Control_c, 0, 64, 67
1, 317601, Note_off_c, 0, 67, 59
1, 317614, Control_c, 0, 64, 70
1, 317629, Control_c, 0, 64, 74
1, 317643, Control_c, 0, 64, 83
1, 317658, Control_c, 0, 64, 92
1, 317673, Control_c, 0, 64, 96
1, 317681, Note_on_c, 0, 57, 47
1, 317688, Control_c, 0, 64, 97
1, 317702, Control_c, 0, 64, 97
1, 317717, Control_c, 0, 64, 98
1, 317719, Note_off_c, 0, 50, 38
1, 317732, Control_c, 0, 64, 98
1, 317765, Note_on_c, 0, 78, 71
1, 317767, Note_on_c, 0, 66, 70
1, 317771, Note_off_c, 0, 79, 35
1, 317774, Note_off_c, 0, 57, 56
1, 317791, Note_on_c, 0, 60, 50
1, 317791, Control_c, 0, 64, 99
1, 317840, Note_off_c, 0, 78, 59
1, 317843, Note_off_c, 0, 66, 59
1, 317904, Note_on_c, 0, 57, 45
1, 317908, Note_off_c, 0, 60, 31
1, 317940, Control_c, 0, 64, 98
1, 317954, Control_c, 0, 64, 97
1, 317969, Control_c, 0, 64, 94
1, 317984, Control_c, 0, 64, 86
1, 317999, Note_on_c, 0, 50, 48
1, 317999, Control_c, 0, 64, 75
1, 318000, Note_on_c, 0, 64, 69
1, 318000, Note_on_c, 0, 76, 74
1, 318014, Control_c, 0, 64, 69
1, 318015, Note_off_c, 0, 57, 46
1, 318045, Control_c, 0, 64, 73
1, 318059, Control_c, 0, 64, 79
1, 318074, Control_c, 0, 64, 88
1, 318078, Note_off_c, 0, 64, 55
1, 318089, Control_c, 0, 64, 96
1, 318104, Control_c, 0, 64, 99
1, 318119, Note_off_c, 0, 76, 59
1, 318133, Control_c, 0, 64, 99
1, 318142, Note_on_c, 0, 57, 50
1, 318148, Control_c, 0, 64, 100
1, 318170, Note_off_c, 0, 50, 39
1, 318215, Control_c, 0, 64, 101
1, 318245, Control_c, 0, 64, 101
1, 318247, Note_off_c, 0, 57, 54
1, 318274, Note_on_c, 0, 78, 80
1, 318279, Note_on_c, 0, 66, 73
1, 318293, Note_on_c, 0, 60, 51
1, 318391, Note_off_c, 0, 66, 36
1, 318420, Note_on_c, 0, 57, 55
1, 318427, Note_off_c, 0, 60, 37
1, 318441, Note_off_c, 0, 57, 65
1, 318584, Control_c, 0, 64, 101
1, 318599, Control_c, 0, 64, 100
1, 318610, Note_off_c, 0, 78, 31
1, 318614, Control_c, 0, 64, 98
1, 318629, Control_c, 0, 64, 95
1, 318642, Note_on_c, 0, 79, 70
1, 318644, Control_c, 0, 64, 91
1, 318650, Note_on_c, 0, 67, 63
1, 318656, Note_on_c, 0, 43, 43
1, 318659, Control_c, 0, 64, 79
1, 318674, Control_c, 0, 64, 63
1, 318703, Control_c, 0, 64, 0
1, 318748, Control_c, 0, 64, 32
1, 318763, Control_c, 0, 64, 62
1, 318772, Note_off_c, 0, 43, 59
1, 318777, Control_c, 0, 64, 74
1, 318792, Control_c, 0, 64, 87
1, 318807, Control_c, 0, 64, 112
1, 318823, Control_c, 0, 64, 127
1, 318948, Note_on_c, 0, 50, 40
1, 318948, Note_on_c, 0, 59, 42
1, 318965, Note_on_c, 0, 55, 41
1, 319001, Note_off_c, 0, 50, 57
1, 319002, Note_off_c, 0, 59, 56
1, 319003, Note_off_c, 0, 55, 58
1, 319124, Note_on_c, 0, 55, 42
1, 319135, Note_on_c, 0, 59, 36
1, 319136, Note_on_c, 0, 50, 45
1, 319169, Note_off_c, 0, 59, 51
1, 319170, Note_off_c, 0, 55, 57
1, 319175, Note_off_c, 0, 50, 59
1, 319196, Note_off_c, 0, 79, 52
1, 319219, Note_off_c, 0, 67, 53
1, 319290, Note_on_c, 0, 59, 30
1, 319293, Note_on_c, 0, 50, 43
1, 319301, Note_on_c, 0, 55, 41
1, 319328, Note_off_c, 0, 59, 48
1, 319330, Note_off_c, 0, 50, 53
1, 319342, Note_off_c, 0, 55, 46
1, 319439, Note_on_c, 0, 59, 33
1, 319470, Note_off_c, 0, 59, 51
1, 319501, Poly_aftertouch_c, 0, 55, 127
1, 319511, Poly_aftertouch_c, 0, 50, 127
1, 319550, Poly_aftertouch_c, 0, 55, 0
1, 319556, Poly_aftertouch_c, 0, 50, 0
1, 319561, Note_on_c, 0, 59, 51
1, 319576, Note_on_c, 0, 50, 10
1, 319587, Poly_aftertouch_c, 0, 55, 127
1, 319616, Note_off_c, 0, 59, 52
1, 319628, Note_off_c, 0, 50, 54
1, 319641, Poly_aftertouch_c, 0, 55, 0
1, 319660, Control_c, 0, 64, 118
1, 319675, Control_c, 0, 64, 117
1, 319714, Note_on_c, 0, 72, 60
1, 319768, Note_on_c, 0, 50, 25
1, 319807, Note_off_c, 0, 50, 48
1, 319808, Poly_aftertouch_c, 0, 55, 127
1, 319897, Note_on_c, 0, 50, 42
1, 319897, Note_on_c, 0, 59, 34
1, 319902, Note_on_c, 0, 55, 3
1, 319935, Note_off_c, 0, 59, 50
1, 319935, Control_c, 0, 64, 116
1, 319941, Note_on_c, 0, 71, 77
1, 319941, Note_off_c, 0, 50, 57
1, 319950, Control_c, 0, 64, 116
1, 319953, Note_off_c, 0, 55, 44
1, 319964, Control_c, 0, 64, 115
1, 319979, Control_c, 0, 64, 115
1, 320067, Note_on_c, 0, 59, 41
1, 320068, Note_on_c, 0, 50, 48
1, 320072, Note_on_c, 0, 55, 53
1, 320111, Note_off_c, 0, 59, 55
1, 320122, Note_off_c, 0, 50, 51
1, 320142, Control_c, 0, 64, 116
1, 320149, Note_off_c, 0, 55, 36
1, 320156, Control_c, 0, 64, 118
1, 320164, Note_on_c, 0, 70, 81
1, 320171, Control_c, 0, 64, 127
1, 320218, Note_on_c, 0, 55, 45
1, 320227, Note_on_c, 0, 59, 51
1, 320228, Note_on_c, 0, 50, 43
1, 320229, Note_off_c, 0, 71, 58
1, 320270, Note_off_c, 0, 59, 59
1, 320286, Note_off_c, 0, 50, 56
1, 320292, Note_off_c, 0, 55, 54
1, 320369, Note_on_c, 0, 59, 57
1, 320372, Note_on_c, 0, 55, 48
1, 320380, Note_off_c, 0, 72, 37
1, 320383, Note_on_c, 0, 50, 46
1, 320400, Note_on_c, 0, 71, 79
1, 320410, Note_off_c, 0, 59, 53
1, 320423, Note_off_c, 0, 50, 59
1, 320440, Note_off_c, 0, 70, 59
1, 320443, Note_off_c, 0, 55, 56
1, 320491, Note_off_c, 0, 71, 62
1, 320548, Note_on_c, 0, 50, 64
1, 320560, Note_on_c, 0, 55, 28
1, 320596, Note_off_c, 0, 50, 59
1, 320599, Note_off_c, 0, 55, 51
1, 320627, Note_on_c, 0, 71, 78
1, 320826, Note_on_c, 0, 76, 79
1, 320831, Control_c, 0, 64, 106
1, 320841, Note_on_c, 0, 36, 53
1, 320846, Control_c, 0, 64, 78
1, 320860, Control_c, 0, 64, 61
1, 320874, Note_off_c, 0, 71, 57
1, 320875, Control_c, 0, 64, 52
1, 320890, Control_c, 0, 64, 55
1, 320904, Control_c, 0, 64, 64
1, 320919, Control_c, 0, 64, 71
1, 320934, Control_c, 0, 64, 84
1, 320939, Note_off_c, 0, 36, 59
1, 320949, Control_c, 0, 64, 111
1, 320964, Control_c, 0, 64, 127
1, 321104, Note_on_c, 0, 52, 50
1, 321107, Note_on_c, 0, 48, 44
1, 321114, Note_on_c, 0, 59, 43
1, 321148, Note_off_c, 0, 48, 58
1, 321149, Note_off_c, 0, 59, 52
1, 321157, Note_off_c, 0, 52, 55
1, 321267, Note_on_c, 0, 59, 46
1, 321270, Note_on_c, 0, 48, 51
1, 321276, Note_on_c, 0, 52, 47
1, 321301, Note_off_c, 0, 59, 55
1, 321316, Note_off_c, 0, 52, 59
1, 321318, Note_off_c, 0, 48, 58
1, 321431, Note_on_c, 0, 48, 42
1, 321436, Note_on_c, 0, 52, 44
1, 321443, Note_on_c, 0, 56, 46
1, 321463, Note_off_c, 0, 48, 53
1, 321474, Note_off_c, 0, 56, 57
1, 321475, Note_off_c, 0, 52, 59
1, 321582, Note_on_c, 0, 56, 48
1, 321589, Note_on_c, 0, 52, 48
1, 321591, Note_on_c, 0, 48, 26
1, 321617, Note_off_c, 0, 56, 52
1, 321628, Note_off_c, 0, 52, 55
1, 321631, Note_off_c, 0, 48, 53
1, 321738, Note_on_c, 0, 56, 29
1, 321750, Note_on_c, 0, 48, 20
1, 321750, Note_on_c, 0, 52, 33
1, 321780, Note_off_c, 0, 56, 43
1, 321786, Note_off_c, 0, 48, 54
1, 321794, Note_off_c, 0, 52, 45
1, 321845, Control_c, 0, 64, 114
1, 321858, Note_on_c, 0, 71, 69
1, 321860, Control_c, 0, 64, 95
1, 321875, Control_c, 0, 64, 90
1, 321888, Note_on_c, 0, 57, 45
1, 321890, Control_c, 0, 64, 91
1, 321896, Note_on_c, 0, 48, 41
1, 321899, Note_on_c, 0, 52, 42
1, 321905, Control_c, 0, 64, 97
1, 321920, Control_c, 0, 64, 108
1, 321926, Note_off_c, 0, 48, 54
1, 321932, Note_off_c, 0, 52, 51
1, 321933, Note_off_c, 0, 57, 59
1, 321935, Control_c, 0, 64, 127
1, 322031, Note_on_c, 0, 48, 51
1, 322042, Note_on_c, 0, 52, 59
1, 322054, Note_on_c, 0, 57, 48
1, 322090, Note_off_c, 0, 48, 47
1, 322091, Note_on_c, 0, 69, 79
1, 322095, Note_off_c, 0, 57, 60
1, 322106, Note_off_c, 0, 76, 22
1, 322114, Note_off_c, 0, 52, 46
1, 322117, Note_off_c, 0, 71, 58
1, 322207, Note_on_c, 0, 57, 57
1, 322210, Note_on_c, 0, 52, 57
1, 322224, Note_on_c, 0, 48, 51
1, 322268, Note_off_c, 0, 48, 58
1, 322272, Note_off_c, 0, 57, 54
1, 322281, Note_off_c, 0, 52, 55
1, 322319, Note_on_c, 0, 68, 88
1, 322351, Note_on_c, 0, 57, 47
1, 322354, Note_on_c, 0, 48, 57
1, 322355, Note_on_c, 0, 52, 44
1, 322380, Note_off_c, 0, 69, 37
1, 322413, Note_off_c, 0, 57, 56
1, 322415, Note_off_c, 0, 48, 56
1, 322435, Note_off_c, 0, 52, 55
1, 322505, Note_on_c, 0, 52, 57
1, 322507, Note_on_c, 0, 48, 53
1, 322511, Note_on_c, 0, 57, 55
1, 322528, Note_on_c, 0, 69, 77
1, 322533, Note_off_c, 0, 68, 62
1, 322553, Note_off_c, 0, 48, 58
1, 322568, Note_off_c, 0, 57, 41
1, 322591, Note_off_c, 0, 52, 53
1, 322655, Note_on_c, 0, 52, 61
1, 322655, Note_off_c, 0, 69, 49
1, 322662, Note_on_c, 0, 48, 58
1, 322704, Note_off_c, 0, 52, 59
1, 322706, Note_off_c, 0, 48, 61
1, 322764, Note_on_c, 0, 69, 76
1, 322929, Control_c, 0, 64, 98
1, 322933, Note_on_c, 0, 35, 37
1, 322944, Note_on_c, 0, 74, 77
1, 322944, Control_c, 0, 64, 76
1, 322959, Control_c, 0, 64, 62
1, 322973, Control_c, 0, 64, 55
1, 322976, Note_off_c, 0, 69, 57
1, 322988, Control_c, 0, 64, 56
1, 323003, Control_c, 0, 64, 62
1, 323018, Control_c, 0, 64, 68
1, 323021, Note_off_c, 0, 35, 61
1, 323033, Control_c, 0, 64, 77
1, 323047, Control_c, 0, 64, 102
1, 323062, Control_c, 0, 64, 127
1, 323178, Note_on_c, 0, 57, 51
1, 323189, Note_on_c, 0, 47, 45
1, 323196, Note_on_c, 0, 50, 41
1, 323224, Note_off_c, 0, 57, 57
1, 323235, Note_off_c, 0, 47, 58
1, 323238, Note_off_c, 0, 50, 60
1, 323330, Note_on_c, 0, 57, 47
1, 323362, Note_on_c, 0, 47, 36
1, 323363, Note_on_c, 0, 50, 42
1, 323365, Note_off_c, 0, 57, 58
1, 323393, Note_off_c, 0, 50, 55
1, 323396, Note_off_c, 0, 47, 51
1, 323485, Control_c, 0, 64, 112
1, 323496, Note_on_c, 0, 54, 51
1, 323499, Control_c, 0, 64, 100
1, 323512, Note_on_c, 0, 47, 41
1, 323514, Note_on_c, 0, 50, 45
1, 323514, Control_c, 0, 64, 99
1, 323529, Note_off_c, 0, 54, 52
1, 323529, Control_c, 0, 64, 101
1, 323542, Note_off_c, 0, 50, 57
1, 323544, Control_c, 0, 64, 108
1, 323553, Note_off_c, 0, 47, 49
1, 323559, Control_c, 0, 64, 124
1, 323573, Control_c, 0, 64, 127
1, 323637, Note_on_c, 0, 50, 55
1, 323640, Note_on_c, 0, 54, 47
1, 323675, Note_off_c, 0, 54, 52
1, 323680, Note_off_c, 0, 50, 57
1, 323686, Note_on_c, 0, 47, 5
1, 323727, Note_off_c, 0, 47, 52
1, 323788, Note_on_c, 0, 54, 53
1, 323798, Note_on_c, 0, 50, 49
1, 323807, Note_on_c, 0, 47, 35
1, 323843, Note_off_c, 0, 54, 55
1, 323849, Note_off_c, 0, 50, 55
1, 323857, Note_off_c, 0, 47, 46
1, 323899, Control_c, 0, 64, 116
1, 323914, Control_c, 0, 64, 103
1, 323929, Control_c, 0, 64, 89
1, 323944, Control_c, 0, 64, 77
1, 323957, Note_on_c, 0, 72, 61
1, 323959, Control_c, 0, 64, 74
1, 323967, Note_on_c, 0, 55, 47
1, 323974, Control_c, 0, 64, 81
1, 323979, Note_on_c, 0, 50, 41
1, 323986, Note_on_c, 0, 47, 29
1, 323989, Control_c, 0, 64, 95
1, 324003, Control_c, 0, 64, 127
1, 324015, Note_off_c, 0, 55, 55
1, 324017, Note_off_c, 0, 74, 31
1, 324023, Note_off_c, 0, 47, 49
1, 324023, Note_off_c, 0, 50, 51
1, 324123, Note_on_c, 0, 55, 46
1, 324123, Note_on_c, 0, 50, 40
1, 324141, Note_on_c, 0, 47, 42
1, 324185, Note_off_c, 0, 47, 52
1, 324213, Note_on_c, 0, 71, 79
1, 324230, Note_off_c, 0, 55, 35
1, 324242, Note_off_c, 0, 50, 34
1, 324329, Note_on_c, 0, 47, 44
1, 324330, Note_on_c, 0, 50, 49
1, 324335, Note_on_c, 0, 55, 50
1, 324379, Note_off_c, 0, 47, 55
1, 324385, Note_off_c, 0, 55, 57
1, 324390, Note_off_c, 0, 50, 52
1, 324457, Note_on_c, 0, 69, 87
1, 324470, Control_c, 0, 64, 107
1, 324481, Note_on_c, 0, 47, 56
1, 324483, Note_on_c, 0, 50, 45
1, 324486, Control_c, 0, 64, 90
1, 324488, Note_on_c, 0, 55, 54
1, 324501, Control_c, 0, 64, 86
1, 324516, Control_c, 0, 64, 90
1, 324530, Note_off_c, 0, 55, 58
1, 324530, Note_off_c, 0, 72, 39
1, 324531, Control_c, 0, 64, 98
1, 324542, Note_off_c, 0, 50, 52
1, 324545, Control_c, 0, 64, 111
1, 324554, Note_off_c, 0, 47, 38
1, 324560, Control_c, 0, 64, 127
1, 324641, Note_on_c, 0, 50, 57
1, 324648, Note_on_c, 0, 47, 51
1, 324656, Note_on_c, 0, 55, 48
1, 324683, Note_off_c, 0, 47, 59
1, 324683, Note_off_c, 0, 55, 56
1, 324708, Note_on_c, 0, 67, 83
1, 324725, Note_off_c, 0, 50, 52
1, 324727, Note_off_c, 0, 69, 61
1, 324728, Note_off_c, 0, 71, 38
1, 324823, Note_on_c, 0, 47, 53
1, 324829, Note_on_c, 0, 50, 60
1, 324848, Poly_aftertouch_c, 0, 55, 127
1, 324859, Note_off_c, 0, 50, 65
1, 324883, Note_off_c, 0, 47, 54
1, 324888, Poly_aftertouch_c, 0, 55, 0
1, 325056, Control_c, 0, 64, 119
1, 325066, Note_on_c, 0, 74, 79
1, 325068, Note_on_c, 0, 66, 72
1, 325068, Note_on_c, 0, 36, 59
1, 325071, Control_c, 0, 64, 89
1, 325085, Note_off_c, 0, 67, 47
1, 325086, Control_c, 0, 64, 71
1, 325101, Control_c, 0, 64, 58
1, 325116, Control_c, 0, 64, 56
1, 325130, Control_c, 0, 64, 59
1, 325145, Control_c, 0, 64, 65
1, 325160, Control_c, 0, 64, 72
1, 325175, Control_c, 0, 64, 83
1, 325190, Control_c, 0, 64, 108
1, 325198, Note_off_c, 0, 36, 57
1, 325204, Control_c, 0, 64, 127
1, 325356, Note_on_c, 0, 48, 49
1, 325360, Note_on_c, 0, 52, 48
1, 325409, Note_off_c, 0, 52, 57
1, 325420, Note_on_c, 0, 72, 71
1, 325424, Note_on_c, 0, 64, 70
1, 325455, Note_off_c, 0, 74, 55
1, 325460, Note_off_c, 0, 48, 34
1, 325465, Note_off_c, 0, 66, 60
1, 325495, Note_off_c, 0, 72, 60
1, 325571, Note_on_c, 0, 52, 43
1, 325575, Note_on_c, 0, 48, 49
1, 325616, Note_off_c, 0, 48, 60
1, 325625, Note_off_c, 0, 52, 54
1, 325650, Note_off_c, 0, 64, 55
1, 325701, Note_on_c, 0, 62, 62
1, 325702, Note_on_c, 0, 71, 72
1, 325731, Control_c, 0, 64, 96
1, 325741, Note_on_c, 0, 48, 54
1, 325746, Control_c, 0, 64, 84
1, 325747, Note_on_c, 0, 52, 48
1, 325761, Control_c, 0, 64, 80
1, 325775, Control_c, 0, 64, 82
1, 325780, Note_off_c, 0, 52, 53
1, 325790, Note_off_c, 0, 48, 56
1, 325790, Control_c, 0, 64, 87
1, 325805, Control_c, 0, 64, 94
1, 325819, Control_c, 0, 64, 107
1, 325834, Control_c, 0, 64, 118
1, 325849, Control_c, 0, 64, 127
1, 325888, Note_on_c, 0, 52, 51
1, 325892, Note_on_c, 0, 48, 51
1, 325956, Note_off_c, 0, 48, 51
1, 325956, Note_off_c, 0, 52, 45
1, 325962, Note_on_c, 0, 60, 64
1, 325968, Note_on_c, 0, 69, 73
1, 326057, Note_off_c, 0, 62, 33
1, 326077, Note_on_c, 0, 48, 58
1, 326081, Note_on_c, 0, 52, 40
1, 326092, Note_off_c, 0, 60, 54
1, 326110, Note_off_c, 0, 48, 65
1, 326114, Note_off_c, 0, 52, 52
1, 326168, Note_off_c, 0, 71, 25
1, 326206, Control_c, 0, 64, 116
1, 326221, Control_c, 0, 64, 100
1, 326235, Control_c, 0, 64, 86
1, 326248, Note_on_c, 0, 67, 67
1, 326250, Note_off_c, 0, 69, 49
1, 326250, Control_c, 0, 64, 73
1, 326254, Note_on_c, 0, 59, 60
1, 326254, Note_on_c, 0, 38, 58
1, 326265, Control_c, 0, 64, 64
1, 326280, Control_c, 0, 64, 64
1, 326294, Note_off_c, 0, 38, 60
1, 326295, Control_c, 0, 64, 66
1, 326310, Control_c, 0, 64, 72
1, 326324, Control_c, 0, 64, 85
1, 326339, Control_c, 0, 64, 109
1, 326354, Control_c, 0, 64, 127
1, 326398, Note_off_c, 0, 59, 51
1, 326429, Note_on_c, 0, 50, 58
1, 326446, Note_on_c, 0, 55, 38
1, 326474, Note_off_c, 0, 50, 61
1, 326480, Note_off_c, 0, 55, 50
1, 326582, Note_on_c, 0, 50, 56
1, 326591, Note_on_c, 0, 55, 35
1, 326623, Note_off_c, 0, 50, 61
1, 326623, Note_off_c, 0, 55, 52
1, 326702, Control_c, 0, 64, 120
1, 326716, Control_c, 0, 64, 102
1, 326731, Control_c, 0, 64, 83
1, 326743, Note_on_c, 0, 62, 66
1, 326746, Note_off_c, 0, 67, 57
1, 326746, Control_c, 0, 64, 69
1, 326749, Note_on_c, 0, 71, 68
1, 326749, Note_on_c, 0, 38, 58
1, 326761, Control_c, 0, 64, 62
1, 326776, Control_c, 0, 64, 63
1, 326786, Note_off_c, 0, 38, 62
1, 326791, Control_c, 0, 64, 67
1, 326806, Control_c, 0, 64, 73
1, 326821, Control_c, 0, 64, 86
1, 326836, Control_c, 0, 64, 120
1, 326851, Control_c, 0, 64, 127
1, 326910, Note_on_c, 0, 54, 59
1, 326925, Note_on_c, 0, 50, 54
1, 326955, Note_off_c, 0, 54, 57
1, 326959, Note_off_c, 0, 50, 63
1, 327065, Note_on_c, 0, 50, 54
1, 327077, Note_on_c, 0, 54, 37
1, 327108, Note_off_c, 0, 54, 55
1, 327117, Note_off_c, 0, 50, 56
1, 327125, Note_off_c, 0, 62, 53
1, 327134, Note_on_c, 0, 60, 51
1, 327137, Note_on_c, 0, 69, 65
1, 327169, Note_off_c, 0, 60, 54
1, 327178, Note_off_c, 0, 71, 54
1, 327229, Control_c, 0, 64, 117
1, 327244, Control_c, 0, 64, 99
1, 327259, Control_c, 0, 64, 85
1, 327273, Control_c, 0, 64, 70
1, 327279, Note_on_c, 0, 59, 56
1, 327288, Control_c, 0, 64, 58
1, 327289, Note_on_c, 0, 67, 63
1, 327293, Note_on_c, 0, 43, 48
1, 327303, Control_c, 0, 64, 48
1, 327315, Note_off_c, 0, 69, 37
1, 327318, Control_c, 0, 64, 49
1, 327333, Control_c, 0, 64, 55
1, 327347, Control_c, 0, 64, 65
1, 327354, Note_off_c, 0, 43, 58
1, 327362, Control_c, 0, 64, 73
1, 327377, Control_c, 0, 64, 87
1, 327389, Note_off_c, 0, 59, 46
1, 327392, Control_c, 0, 64, 110
1, 327407, Control_c, 0, 64, 127
1, 327482, Note_off_c, 0, 67, 59
1, 327512, Note_on_c, 0, 50, 31
1, 327530, Note_on_c, 0, 59, 9
1, 327546, Note_off_c, 0, 50, 51
1, 327578, Note_off_c, 0, 59, 51
1, 327661, Note_on_c, 0, 55, 26
1, 327671, Note_on_c, 0, 50, 36
1, 327700, Note_off_c, 0, 55, 48
1, 327703, Note_off_c, 0, 50, 52
1, 327810, Note_on_c, 0, 55, 43
1, 327816, Note_on_c, 0, 50, 46
1, 327829, Poly_aftertouch_c, 0, 59, 127
1, 327843, Note_off_c, 0, 55, 52
1, 327848, Note_off_c, 0, 50, 59
1, 327873, Poly_aftertouch_c, 0, 59, 0
1, 327955, Note_on_c, 0, 50, 50
1, 327956, Note_on_c, 0, 55, 46
1, 327980, Note_on_c, 0, 59, 23
1, 327988, Note_off_c, 0, 55, 57
1, 328001, Note_off_c, 0, 50, 56
1, 328020, Note_off_c, 0, 59, 42
1, 328099, Note_on_c, 0, 55, 45
1, 328126, Control_c, 0, 64, 123
1, 328130, Note_on_c, 0, 50, 39
1, 328141, Note_on_c, 0, 59, 25
1, 328141, Control_c, 0, 64, 121
1, 328147, Note_off_c, 0, 55, 55
1, 328156, Control_c, 0, 64, 119
1, 328157, Note_off_c, 0, 50, 57
1, 328171, Control_c, 0, 64, 117
1, 328179, Note_off_c, 0, 59, 45
1, 328186, Control_c, 0, 64, 115
1, 328201, Control_c, 0, 64, 113
1, 328215, Control_c, 0, 64, 112
1, 328229, Control_c, 0, 64, 110
1, 328244, Control_c, 0, 64, 108
1, 328253, Note_on_c, 0, 72, 70
1, 328259, Control_c, 0, 64, 104
1, 328261, Note_on_c, 0, 50, 44
1, 328274, Control_c, 0, 64, 102
1, 328275, Note_on_c, 0, 55, 42
1, 328298, Note_on_c, 0, 59, 20
1, 328305, Note_off_c, 0, 55, 52
1, 328319, Note_off_c, 0, 50, 42
1, 328338, Note_off_c, 0, 59, 42
1, 328420, Note_on_c, 0, 55, 49
1, 328434, Note_on_c, 0, 50, 48
1, 328439, Note_on_c, 0, 59, 51
1, 328467, Control_c, 0, 64, 103
1, 328472, Note_off_c, 0, 59, 51
1, 328479, Note_off_c, 0, 50, 58
1, 328497, Control_c, 0, 64, 103
1, 328500, Note_on_c, 0, 71, 79
1, 328507, Note_off_c, 0, 55, 36
1, 328603, Note_on_c, 0, 50, 50
1, 328604, Note_on_c, 0, 59, 43
1, 328607, Note_on_c, 0, 55, 59
1, 328658, Note_off_c, 0, 59, 52
1, 328660, Control_c, 0, 64, 104
1, 328662, Note_off_c, 0, 55, 51
1, 328663, Note_off_c, 0, 50, 51
1, 328675, Control_c, 0, 64, 105
1, 328697, Control_c, 0, 64, 105
1, 328712, Control_c, 0, 64, 107
1, 328726, Control_c, 0, 64, 109
1, 328741, Control_c, 0, 64, 112
1, 328746, Note_on_c, 0, 70, 87
1, 328747, Note_on_c, 0, 50, 45
1, 328747, Note_on_c, 0, 55, 53
1, 328756, Note_on_c, 0, 59, 57
1, 328756, Control_c, 0, 64, 116
1, 328771, Control_c, 0, 64, 127
1, 328821, Note_off_c, 0, 71, 53
1, 328827, Note_off_c, 0, 72, 30
1, 328834, Note_off_c, 0, 55, 49
1, 328850, Note_off_c, 0, 59, 35
1, 328855, Note_off_c, 0, 50, 34
1, 328904, Note_on_c, 0, 50, 50
1, 328908, Note_on_c, 0, 55, 56
1, 328915, Note_on_c, 0, 59, 58
1, 328973, Note_off_c, 0, 59, 52
1, 328991, Note_off_c, 0, 55, 54
1, 328992, Note_off_c, 0, 50, 52
1, 329006, Note_on_c, 0, 71, 87
1, 329025, Note_off_c, 0, 70, 59
1, 329105, Note_on_c, 0, 50, 64
1, 329110, Note_on_c, 0, 55, 51
1, 329134, Note_off_c, 0, 55, 60
1, 329163, Note_off_c, 0, 50, 57
1, 329341, Note_on_c, 0, 76, 75
1, 329350, Note_on_c, 0, 83, 85
1, 329351, Note_on_c, 0, 36, 57
1, 329355, Note_off_c, 0, 71, 52
1, 329364, Control_c, 0, 64, 94
1, 329379, Control_c, 0, 64, 73
1, 329394, Control_c, 0, 64, 62
1, 329408, Control_c, 0, 64, 58
1, 329423, Control_c, 0, 64, 61
1, 329446, Control_c, 0, 64, 66
1, 329461, Control_c, 0, 64, 72
1, 329470, Note_off_c, 0, 36, 60
1, 329475, Control_c, 0, 64, 84
1, 329490, Control_c, 0, 64, 108
1, 329505, Control_c, 0, 64, 127
1, 329625, Note_on_c, 0, 59, 57
1, 329641, Note_on_c, 0, 52, 47
1, 329645, Note_on_c, 0, 48, 52
1, 329693, Note_off_c, 0, 48, 56
1, 329700, Note_off_c, 0, 59, 53
1, 329701, Note_off_c, 0, 52, 50
1, 329716, Note_on_c, 0, 81, 78
1, 329769, Note_off_c, 0, 76, 53
1, 329819, Note_off_c, 0, 83, 37
1, 329841, Note_on_c, 0, 48, 51
1, 329846, Note_on_c, 0, 52, 61
1, 329855, Note_on_c, 0, 59, 52
1, 329888, Note_off_c, 0, 59, 62
1, 329903, Note_off_c, 0, 52, 46
1, 329905, Note_off_c, 0, 48, 42
1, 329983, Note_on_c, 0, 80, 80
1, 330001, Note_off_c, 0, 81, 57
1, 330007, Note_on_c, 0, 59, 48
1, 330010, Note_on_c, 0, 52, 49
1, 330016, Note_on_c, 0, 48, 44
1, 330051, Note_off_c, 0, 59, 60
1, 330058, Note_off_c, 0, 48, 55
1, 330088, Note_off_c, 0, 52, 45
1, 330159, Note_on_c, 0, 59, 65
1, 330171, Note_on_c, 0, 52, 49
1, 330174, Note_on_c, 0, 48, 54
1, 330223, Note_off_c, 0, 48, 60
1, 330223, Note_off_c, 0, 59, 55
1, 330234, Note_on_c, 0, 81, 82
1, 330235, Note_off_c, 0, 52, 52
1, 330281, Note_off_c, 0, 80, 54
1, 330342, Note_on_c, 0, 59, 72
1, 330354, Note_on_c, 0, 48, 39
1, 330356, Note_on_c, 0, 52, 61
1, 330371, Note_off_c, 0, 59, 59
1, 330393, Note_off_c, 0, 52, 55
1, 330399, Note_off_c, 0, 48, 58
1, 330471, Note_off_c, 0, 81, 58
1, 330484, Note_on_c, 0, 71, 74
1, 330491, Control_c, 0, 64, 85
1, 330501, Note_on_c, 0, 52, 55
1, 330501, Note_on_c, 0, 57, 55
1, 330506, Control_c, 0, 64, 67
1, 330508, Note_on_c, 0, 48, 45
1, 330521, Control_c, 0, 64, 64
1, 330536, Control_c, 0, 64, 67
1, 330544, Note_off_c, 0, 48, 55
1, 330547, Note_off_c, 0, 52, 53
1, 330547, Note_off_c, 0, 57, 59
1, 330551, Control_c, 0, 64, 73
1, 330565, Control_c, 0, 64, 85
1, 330580, Control_c, 0, 64, 113
1, 330595, Control_c, 0, 64, 127
1, 330651, Note_on_c, 0, 48, 54
1, 330657, Note_on_c, 0, 57, 60
1, 330658, Note_on_c, 0, 52, 60
1, 330707, Note_off_c, 0, 48, 58
1, 330717, Note_on_c, 0, 69, 85
1, 330720, Note_off_c, 0, 52, 47
1, 330742, Note_off_c, 0, 57, 35
1, 330758, Note_off_c, 0, 71, 58
1, 330832, Note_on_c, 0, 57, 60
1, 330833, Note_on_c, 0, 52, 63
1, 330836, Note_on_c, 0, 48, 59
1, 330880, Note_off_c, 0, 48, 56
1, 330892, Note_off_c, 0, 57, 59
1, 330898, Note_off_c, 0, 52, 55
1, 330970, Note_on_c, 0, 68, 87
1, 330970, Poly_aftertouch_c, 0, 70, 127
1, 330976, Note_on_c, 0, 52, 57
1, 330985, Note_on_c, 0, 57, 58
1, 330986, Note_off_c, 0, 69, 62
1, 330990, Note_on_c, 0, 48, 58
1, 331023, Poly_aftertouch_c, 0, 70, 0
1, 331039, Note_off_c, 0, 48, 59
1, 331046, Note_off_c, 0, 57, 56
1, 331059, Note_off_c, 0, 52, 56
1, 331131, Note_on_c, 0, 57, 58
1, 331132, Note_on_c, 0, 52, 60
1, 331137, Note_on_c, 0, 48, 58
1, 331185, Note_off_c, 0, 48, 59
1, 331196, Note_off_c, 0, 57, 59
1, 331219, Note_on_c, 0, 69, 90
1, 331219, Note_off_c, 0, 52, 54
1, 331227, Note_off_c, 0, 68, 62
1, 331317, Note_on_c, 0, 52, 73
1, 331319, Note_on_c, 0, 48, 59
1, 331320, Note_on_c, 0, 57, 53
1, 331350, Note_off_c, 0, 57, 62
1, 331369, Note_off_c, 0, 52, 57
1, 331375, Note_off_c, 0, 48, 58
1, 331551, Note_on_c, 0, 74, 80
1, 331551, Control_c, 0, 64, 111
1, 331555, Note_on_c, 0, 81, 81
1, 331563, Note_on_c, 0, 35, 56
1, 331566, Control_c, 0, 64, 87
1, 331581, Control_c, 0, 64, 69
1, 331596, Control_c, 0, 64, 56
1, 331611, Control_c, 0, 64, 52
1, 331626, Control_c, 0, 64, 56
1, 331640, Note_off_c, 0, 69, 38
1, 331641, Control_c, 0, 64, 64
1, 331656, Control_c, 0, 64, 70
1, 331665, Note_off_c, 0, 35, 61
1, 331671, Control_c, 0, 64, 81
1, 331693, Control_c, 0, 64, 98
1, 331708, Control_c, 0, 64, 127
1, 331846, Note_on_c, 0, 47, 50
1, 331847, Note_on_c, 0, 50, 50
1, 331850, Note_on_c, 0, 57, 39
1, 331885, Note_off_c, 0, 47, 57
1, 331888, Note_off_c, 0, 57, 49
1, 331891, Note_on_c, 0, 79, 76
1, 331903, Note_off_c, 0, 81, 59
1, 331943, Note_off_c, 0, 50, 35
1, 331952, Note_off_c, 0, 74, 59
1, 332013, Note_on_c, 0, 57, 48
1, 332024, Note_on_c, 0, 50, 48
1, 332037, Note_on_c, 0, 47, 39
1, 332070, Note_off_c, 0, 47, 53
1, 332070, Note_off_c, 0, 57, 52
1, 332078, Note_off_c, 0, 50, 53
1, 332159, Note_on_c, 0, 78, 74
1, 332173, Note_on_c, 0, 47, 52
1, 332177, Note_on_c, 0, 50, 47
1, 332181, Note_off_c, 0, 79, 58
1, 332186, Note_on_c, 0, 57, 44
1, 332212, Note_off_c, 0, 47, 57
1, 332222, Note_off_c, 0, 57, 54
1, 332228, Note_off_c, 0, 50, 52
1, 332326, Note_on_c, 0, 57, 57
1, 332333, Note_on_c, 0, 50, 58
1, 332338, Note_on_c, 0, 47, 53
1, 332373, Note_off_c, 0, 57, 56
1, 332375, Note_off_c, 0, 47, 60
1, 332407, Note_on_c, 0, 79, 72
1, 332422, Note_off_c, 0, 50, 36
1, 332441, Note_off_c, 0, 78, 50
1, 332496, Note_on_c, 0, 50, 47
1, 332496, Note_on_c, 0, 57, 65
1, 332499, Note_on_c, 0, 47, 54
1, 332529, Note_off_c, 0, 57, 64
1, 332541, Note_off_c, 0, 47, 56
1, 332553, Note_off_c, 0, 50, 51
1, 332633, Control_c, 0, 64, 104
1, 332648, Control_c, 0, 64, 84
1, 332650, Note_on_c, 0, 72, 75
1, 332651, Note_on_c, 0, 50, 50
1, 332655, Note_on_c, 0, 47, 56
1, 332657, Note_on_c, 0, 55, 56
1, 332663, Note_off_c, 0, 79, 59
1, 332663, Control_c, 0, 64, 73
1, 332678, Control_c, 0, 64, 72
1, 332693, Control_c, 0, 64, 77
1, 332708, Control_c, 0, 64, 88
1, 332713, Note_off_c, 0, 55, 52
1, 332718, Note_off_c, 0, 47, 52
1, 332723, Control_c, 0, 64, 104
1, 332735, Note_off_c, 0, 50, 48
1, 332738, Control_c, 0, 64, 127
1, 332809, Note_on_c, 0, 50, 46
1, 332821, Note_on_c, 0, 47, 53
1, 332821, Note_on_c, 0, 55, 56
1, 332884, Note_on_c, 0, 71, 83
1, 332911, Note_off_c, 0, 47, 37
1, 332911, Note_off_c, 0, 55, 36
1, 332923, Note_off_c, 0, 72, 62
1, 332929, Note_off_c, 0, 50, 35
1, 333009, Note_on_c, 0, 50, 62
1, 333014, Note_on_c, 0, 55, 67
1, 333018, Note_on_c, 0, 47, 60
1, 333064, Note_off_c, 0, 47, 55
1, 333079, Note_off_c, 0, 55, 46
1, 333079, Note_off_c, 0, 50, 53
1, 333122, Control_c, 0, 64, 118
1, 333137, Control_c, 0, 64, 101
1, 333145, Note_on_c, 0, 50, 51
1, 333150, Note_on_c, 0, 69, 87
1, 333152, Control_c, 0, 64, 90
1, 333158, Note_on_c, 0, 55, 58
1, 333164, Note_on_c, 0, 47, 61
1, 333167, Control_c, 0, 64, 88
1, 333189, Control_c, 0, 64, 89
1, 333204, Control_c, 0, 64, 93
1, 333218, Note_off_c, 0, 71, 56
1, 333220, Control_c, 0, 64, 101
1, 333234, Control_c, 0, 64, 118
1, 333246, Note_off_c, 0, 50, 56
1, 333249, Control_c, 0, 64, 127
1, 333258, Note_off_c, 0, 47, 36
1, 333268, Note_off_c, 0, 55, 34
1, 333317, Note_on_c, 0, 50, 54
1, 333320, Note_on_c, 0, 55, 54
1, 333322, Note_on_c, 0, 47, 58
1, 333389, Note_off_c, 0, 55, 51
1, 333391, Note_off_c, 0, 47, 52
1, 333411, Note_off_c, 0, 50, 51
1, 333420, Note_on_c, 0, 67, 87
1, 333439, Note_off_c, 0, 69, 58
1, 333488, Note_off_c, 0, 67, 62
1, 333519, Note_on_c, 0, 50, 71
1, 333527, Note_on_c, 0, 55, 53
1, 333528, Note_on_c, 0, 47, 65
1, 333548, Note_off_c, 0, 55, 64
1, 333571, Note_off_c, 0, 50, 62
1, 333588, Note_off_c, 0, 47, 58
1, 333762, Note_on_c, 0, 74, 73
1, 333764, Note_on_c, 0, 78, 83
1, 333766, Note_on_c, 0, 66, 76
1, 333778, Note_on_c, 0, 36, 52
1, 333782, Control_c, 0, 64, 99
1, 333797, Control_c, 0, 64, 75
1, 333812, Control_c, 0, 64, 61
1, 333826, Control_c, 0, 64, 56
1, 333841, Control_c, 0, 64, 59
1, 333856, Control_c, 0, 64, 65
1, 333871, Control_c, 0, 64, 74
1, 333875, Note_off_c, 0, 36, 60
1, 333886, Control_c, 0, 64, 88
1, 333900, Control_c, 0, 64, 127
1, 333995, Note_off_c, 0, 74, 60
1, 334012, Note_off_c, 0, 78, 58
1, 334031, Note_off_c, 0, 66, 59
1, 334062, Note_on_c, 0, 48, 50
1, 334073, Note_on_c, 0, 55, 41
1, 334074, Note_on_c, 0, 52, 53
1, 334120, Note_off_c, 0, 55, 58
1, 334132, Note_off_c, 0, 48, 53
1, 334163, Note_on_c, 0, 72, 67
1, 334171, Note_on_c, 0, 64, 56
1, 334171, Note_on_c, 0, 76, 75
1, 334180, Note_off_c, 0, 52, 34
1, 334252, Note_off_c, 0, 76, 56
1, 334259, Note_off_c, 0, 72, 60
1, 334286, Note_off_c, 0, 64, 36
1, 334289, Note_on_c, 0, 48, 50
1, 334294, Note_on_c, 0, 55, 36
1, 334298, Note_on_c, 0, 52, 47
1, 334326, Note_off_c, 0, 55, 52
1, 334335, Note_off_c, 0, 48, 60
1, 334354, Note_off_c, 0, 52, 53
1, 334427, Control_c, 0, 64, 98
1, 334440, Note_on_c, 0, 74, 76
1, 334441, Note_on_c, 0, 71, 62
1, 334442, Control_c, 0, 64, 79
1, 334450, Note_on_c, 0, 62, 57
1, 334453, Note_on_c, 0, 56, 57
1, 334454, Note_on_c, 0, 52, 50
1, 334456, Control_c, 0, 64, 70
1, 334471, Control_c, 0, 64, 69
1, 334476, Note_on_c, 0, 48, 31
1, 334486, Control_c, 0, 64, 76
1, 334501, Control_c, 0, 64, 86
1, 334505, Note_off_c, 0, 56, 55
1, 334516, Control_c, 0, 64, 105
1, 334521, Note_off_c, 0, 48, 46
1, 334530, Control_c, 0, 64, 127
1, 334553, Note_off_c, 0, 52, 35
1, 334560, Note_off_c, 0, 74, 57
1, 334572, Note_off_c, 0, 71, 60
1, 334589, Note_off_c, 0, 62, 49
1, 334625, Note_on_c, 0, 52, 43
1, 334628, Note_on_c, 0, 56, 56
1, 334634, Note_on_c, 0, 48, 54
1, 334685, Note_off_c, 0, 56, 48
1, 334686, Note_off_c, 0, 48, 56
1, 334714, Note_on_c, 0, 72, 69
1, 334722, Note_on_c, 0, 69, 67
1, 334723, Note_off_c, 0, 52, 36
1, 334725, Note_on_c, 0, 60, 59
1, 334791, Note_off_c, 0, 69, 59
1, 334804, Note_off_c, 0, 72, 55
1, 334809, Note_off_c, 0, 60, 53
1, 334832, Note_on_c, 0, 52, 49
1, 334834, Note_on_c, 0, 57, 53
1, 334842, Note_on_c, 0, 48, 56
1, 334858, Note_off_c, 0, 57, 60
1, 334870, Note_off_c, 0, 52, 62
1, 334889, Note_off_c, 0, 48, 59
1, 334968, Control_c, 0, 64, 114
1, 334983, Control_c, 0, 64, 107
1, 334998, Control_c, 0, 64, 100
1, 335012, Control_c, 0, 64, 93
1, 335027, Control_c, 0, 64, 82
1, 335037, Note_on_c, 0, 71, 69
1, 335042, Control_c, 0, 64, 69
1, 335048, Note_on_c, 0, 38, 61
1, 335050, Note_on_c, 0, 59, 57
1, 335051, Note_on_c, 0, 67, 57
1, 335057, Control_c, 0, 64, 58
1, 335072, Control_c, 0, 64, 50
1, 335087, Control_c, 0, 64, 52
1, 335098, Note_off_c, 0, 38, 59
1, 335102, Control_c, 0, 64, 59
1, 335116, Control_c, 0, 64, 66
1, 335131, Control_c, 0, 64, 74
1, 335146, Control_c, 0, 64, 87
1, 335161, Control_c, 0, 64, 107
1, 335176, Control_c, 0, 64, 127
1, 335202, Note_off_c, 0, 59, 56
1, 335223, Note_off_c, 0, 71, 54
1, 335240, Note_on_c, 0, 50, 56
1, 335246, Note_on_c, 0, 55, 47
1, 335284, Note_off_c, 0, 50, 58
1, 335284, Note_off_c, 0, 55, 58
1, 335414, Note_on_c, 0, 50, 36
1, 335449, Note_off_c, 0, 50, 56
1, 335553, Control_c, 0, 64, 121
1, 335568, Control_c, 0, 64, 106
1, 335583, Control_c, 0, 64, 93
1, 335587, Note_on_c, 0, 72, 67
1, 335593, Note_on_c, 0, 60, 52
1, 335596, Note_on_c, 0, 66, 60
1, 335598, Control_c, 0, 64, 78
1, 335608, Note_on_c, 0, 38, 48
1, 335614, Control_c, 0, 64, 63
1, 335628, Control_c, 0, 64, 58
1, 335636, Note_off_c, 0, 38, 56
1, 335643, Control_c, 0, 64, 59
1, 335644, Note_off_c, 0, 67, 33
1, 335658, Control_c, 0, 64, 62
1, 335673, Control_c, 0, 64, 67
1, 335688, Control_c, 0, 64, 72
1, 335702, Control_c, 0, 64, 83
1, 335717, Control_c, 0, 64, 103
1, 335732, Control_c, 0, 64, 127
1, 335748, Note_off_c, 0, 72, 55
1, 335805, Note_on_c, 0, 57, 48
1, 335810, Note_on_c, 0, 54, 48
1, 335820, Note_on_c, 0, 50, 40
1, 335858, Note_off_c, 0, 54, 46
1, 335858, Note_off_c, 0, 57, 53
1, 335863, Note_off_c, 0, 50, 57
1, 335914, Note_off_c, 0, 60, 36
1, 336001, Note_on_c, 0, 50, 44
1, 336002, Note_on_c, 0, 54, 46
1, 336013, Note_on_c, 0, 57, 42
1, 336035, Note_off_c, 0, 57, 60
1, 336039, Note_off_c, 0, 54, 52
1, 336049, Note_off_c, 0, 50, 58
1, 336107, Note_on_c, 0, 69, 58
1, 336130, Note_off_c, 0, 66, 40
1, 336361, Control_c, 0, 64, 119
1, 336362, Note_off_c, 0, 69, 42
1, 336371, Note_on_c, 0, 50, 39
1, 336376, Control_c, 0, 64, 94
1, 336377, Note_on_c, 0, 67, 57
1, 336386, Note_on_c, 0, 43, 46
1, 336391, Control_c, 0, 64, 73
1, 336392, Note_on_c, 0, 55, 42
1, 336395, Note_on_c, 0, 59, 41
1, 336407, Control_c, 0, 64, 52
1, 336422, Control_c, 0, 64, 22
1, 336437, Control_c, 0, 64, 27
1, 336451, Control_c, 0, 64, 48
1, 336466, Control_c, 0, 64, 62
1, 336481, Control_c, 0, 64, 72
1, 336485, Note_off_c, 0, 59, 57
1, 336485, Note_off_c, 0, 67, 60
1, 336496, Control_c, 0, 64, 82
1, 336511, Control_c, 0, 64, 99
1, 336525, Control_c, 0, 64, 127
1, 336559, Note_off_c, 0, 55, 35
1, 336653, Note_on_c, 0, 67, 48
1, 336673, Note_on_c, 0, 55, 10
1, 336677, Note_off_c, 0, 50, 33
1, 336696, Note_off_c, 0, 67, 56
1, 336719, Note_off_c, 0, 55, 50
1, 336733, Note_off_c, 0, 43, 37
1, 336816, Note_on_c, 0, 67, 43
1, 336828, Note_on_c, 0, 55, 37
1, 336845, Note_off_c, 0, 67, 51
1, 336860, Note_off_c, 0, 55, 52
1, 336962, Control_c, 0, 64, 103
1, 336973, Note_on_c, 0, 55, 42
1, 336973, Note_on_c, 0, 67, 38
1, 336977, Control_c, 0, 64, 84
1, 336991, Control_c, 0, 64, 76
1, 337006, Control_c, 0, 64, 77
1, 337012, Note_off_c, 0, 67, 46
1, 337018, Note_off_c, 0, 55, 45
1, 337021, Control_c, 0, 64, 87
1, 337036, Control_c, 0, 64, 104
1, 337051, Control_c, 0, 64, 127
1, 337138, Note_on_c, 0, 55, 39
1, 337143, Note_on_c, 0, 67, 35
1, 337173, Note_off_c, 0, 55, 50
1, 337175, Note_off_c, 0, 67, 51
1, 337297, Note_on_c, 0, 55, 37
1, 337298, Note_on_c, 0, 67, 37
1, 337339, Note_off_c, 0, 67, 46
1, 337342, Note_off_c, 0, 55, 45
1, 337438, Control_c, 0, 64, 101
1, 337453, Control_c, 0, 64, 82
1, 337460, Note_on_c, 0, 55, 41
1, 337460, Note_on_c, 0, 67, 42
1, 337468, Control_c, 0, 64, 70
1, 337482, Control_c, 0, 64, 68
1, 337492, Note_off_c, 0, 67, 51
1, 337497, Note_off_c, 0, 55, 52
1, 337497, Control_c, 0, 64, 69
1, 337512, Control_c, 0, 64, 73
1, 337526, Control_c, 0, 64, 79
1, 337541, Control_c, 0, 64, 90
1, 337556, Control_c, 0, 64, 105
1, 337571, Control_c, 0, 64, 113
1, 337586, Control_c, 0, 64, 114
1, 337600, Control_c, 0, 64, 114
1, 337614, Note_on_c, 0, 55, 44
1, 337615, Control_c, 0, 64, 115
1, 337625, Note_on_c, 0, 67, 33
1, 337630, Control_c, 0, 64, 117
1, 337645, Control_c, 0, 64, 119
1, 337660, Control_c, 0, 64, 123
1, 337665, Note_off_c, 0, 67, 48
1, 337668, Note_off_c, 0, 55, 51
1, 337682, Control_c, 0, 64, 127
1, 337804, Note_on_c, 0, 67, 27
1, 337826, Note_on_c, 0, 55, 11
1, 337841, Note_off_c, 0, 67, 46
1, 337877, Note_off_c, 0, 55, 49
1, 337919, Control_c, 0, 64, 114
1, 337933, Control_c, 0, 64, 105
1, 337948, Control_c, 0, 64, 93
1, 337963, Control_c, 0, 64, 78
1, 337976, Note_on_c, 0, 67, 32
1, 337978, Note_on_c, 0, 47, 44
1, 337978, Control_c, 0, 64, 66
1, 337993, Control_c, 0, 64, 59
1, 338009, Control_c, 0, 64, 57
1, 338015, Note_on_c, 0, 55, 23
1, 338023, Control_c, 0, 64, 58
1, 338038, Control_c, 0, 64, 62
1, 338053, Control_c, 0, 64, 68
1, 338062, Note_off_c, 0, 55, 48
1, 338062, Note_off_c, 0, 67, 46
1, 338068, Control_c, 0, 64, 76
1, 338083, Control_c, 0, 64, 89
1, 338097, Control_c, 0, 64, 104
1, 338112, Control_c, 0, 64, 114
1, 338157, Control_c, 0, 64, 115
1, 338169, Note_on_c, 0, 55, 48
1, 338172, Control_c, 0, 64, 116
1, 338200, Note_on_c, 0, 67, 27
1, 338202, Control_c, 0, 64, 117
1, 338211, Note_off_c, 0, 55, 60
1, 338217, Control_c, 0, 64, 118
1, 338231, Control_c, 0, 64, 121
1, 338238, Note_off_c, 0, 67, 42
1, 338317, Note_on_c, 0, 55, 46
1, 338361, Note_off_c, 0, 55, 56
1, 338368, Note_on_c, 0, 67, 19
1, 338410, Note_off_c, 0, 67, 39
1, 338446, Control_c, 0, 64, 120
1, 338447, Note_on_c, 0, 48, 53
1, 338461, Control_c, 0, 64, 118
1, 338468, Note_off_c, 0, 47, 31
1, 338475, Control_c, 0, 64, 116
1, 338490, Control_c, 0, 64, 113
1, 338505, Control_c, 0, 64, 108
1, 338520, Control_c, 0, 64, 103
1, 338535, Control_c, 0, 64, 96
1, 338549, Control_c, 0, 64, 86
1, 338556, Note_on_c, 0, 67, 43
1, 338557, Note_on_c, 0, 50, 53
1, 338562, Note_on_c, 0, 55, 46
1, 338564, Control_c, 0, 64, 72
1, 338568, Note_off_c, 0, 48, 36
1, 338579, Control_c, 0, 64, 56
1, 338594, Control_c, 0, 64, 35
1, 338609, Control_c, 0, 64, 30
1, 338623, Control_c, 0, 64, 39
1, 338635, Note_off_c, 0, 67, 46
1, 338638, Control_c, 0, 64, 55
1, 338640, Note_off_c, 0, 55, 41
1, 338653, Control_c, 0, 64, 67
1, 338668, Control_c, 0, 64, 75
1, 338682, Control_c, 0, 64, 88
1, 338697, Control_c, 0, 64, 98
1, 338709, Note_off_c, 0, 50, 56
1, 338712, Control_c, 0, 64, 104
1, 338726, Control_c, 0, 64, 105
1, 338741, Control_c, 0, 64, 105
1, 338777, Note_on_c, 0, 55, 41
1, 338780, Note_on_c, 0, 67, 44
1, 338786, Control_c, 0, 64, 106
1, 338801, Control_c, 0, 64, 108
1, 338816, Control_c, 0, 64, 110
1, 338818, Note_off_c, 0, 67, 46
1, 338829, Note_off_c, 0, 55, 44
1, 338831, Control_c, 0, 64, 112
1, 338846, Control_c, 0, 64, 112
1, 338946, Note_on_c, 0, 55, 39
1, 338946, Note_on_c, 0, 67, 37
1, 338979, Note_off_c, 0, 55, 51
1, 338986, Note_off_c, 0, 67, 46
1, 339039, Control_c, 0, 64, 111
1, 339053, Control_c, 0, 64, 108
1, 339068, Control_c, 0, 64, 102
1, 339083, Control_c, 0, 64, 90
1, 339097, Control_c, 0, 64, 77
1, 339103, Note_on_c, 0, 50, 57
1, 339112, Control_c, 0, 64, 67
1, 339119, Note_on_c, 0, 55, 26
1, 339127, Control_c, 0, 64, 66
1, 339132, Note_on_c, 0, 67, 34
1, 339142, Control_c, 0, 64, 67
1, 339157, Control_c, 0, 64, 70
1, 339179, Control_c, 0, 64, 75
1, 339190, Note_off_c, 0, 55, 41
1, 339194, Control_c, 0, 64, 84
1, 339196, Note_off_c, 0, 67, 41
1, 339209, Control_c, 0, 64, 95
1, 339224, Control_c, 0, 64, 102
1, 339239, Control_c, 0, 64, 104
1, 339248, Note_off_c, 0, 50, 57
1, 339253, Control_c, 0, 64, 105
1, 339268, Control_c, 0, 64, 105
1, 339297, Control_c, 0, 64, 106
1, 339312, Control_c, 0, 64, 107
1, 339325, Note_on_c, 0, 55, 36
1, 339327, Control_c, 0, 64, 108
1, 339331, Note_on_c, 0, 67, 37
1, 339342, Control_c, 0, 64, 109
1, 339357, Control_c, 0, 64, 109
1, 339359, Note_off_c, 0, 55, 51
1, 339364, Note_off_c, 0, 67, 49
1, 339371, Control_c, 0, 64, 110
1, 339462, Note_on_c, 0, 55, 45
1, 339477, Note_on_c, 0, 67, 45
1, 339516, Note_off_c, 0, 67, 45
1, 339550, Note_off_c, 0, 55, 37
1, 339564, Control_c, 0, 64, 109
1, 339579, Control_c, 0, 64, 108
1, 339594, Control_c, 0, 64, 106
1, 339609, Control_c, 0, 64, 103
1, 339624, Control_c, 0, 64, 95
1, 339628, Note_on_c, 0, 50, 66
1, 339639, Control_c, 0, 64, 82
1, 339654, Control_c, 0, 64, 70
1, 339659, Note_on_c, 0, 67, 44
1, 339668, Control_c, 0, 64, 64
1, 339677, Note_on_c, 0, 55, 40
1, 339698, Control_c, 0, 64, 68
1, 339711, Note_off_c, 0, 55, 53
1, 339713, Control_c, 0, 64, 72
1, 339726, Note_off_c, 0, 67, 50
1, 339728, Control_c, 0, 64, 81
1, 339743, Control_c, 0, 64, 95
1, 339758, Control_c, 0, 64, 112
1, 339773, Control_c, 0, 64, 120
1, 339787, Note_off_c, 0, 50, 56
1, 339828, Note_on_c, 0, 55, 47
1, 339843, Note_on_c, 0, 67, 43
1, 339876, Note_off_c, 0, 55, 57
1, 339880, Note_off_c, 0, 67, 47
1, 340002, Note_on_c, 0, 55, 55
1, 340005, Note_on_c, 0, 67, 51
1, 340056, Note_off_c, 0, 67, 53
1, 340062, Note_off_c, 0, 55, 48
1, 340106, Control_c, 0, 64, 117
1, 340120, Control_c, 0, 64, 112
1, 340135, Control_c, 0, 64, 105
1, 340150, Control_c, 0, 64, 97
1, 340160, Note_on_c, 0, 48, 73
1, 340165, Control_c, 0, 64, 89
1, 340180, Note_on_c, 0, 67, 56
1, 340180, Control_c, 0, 64, 79
1, 340194, Note_on_c, 0, 55, 50
1, 340194, Control_c, 0, 64, 68
1, 340210, Control_c, 0, 64, 61
1, 340225, Control_c, 0, 64, 60
1, 340239, Control_c, 0, 64, 61
1, 340251, Note_off_c, 0, 55, 54
1, 340254, Control_c, 0, 64, 65
1, 340258, Note_off_c, 0, 67, 54
1, 340269, Control_c, 0, 64, 69
1, 340284, Control_c, 0, 64, 75
1, 340299, Control_c, 0, 64, 85
1, 340313, Control_c, 0, 64, 99
1, 340328, Control_c, 0, 64, 104
1, 340360, Note_on_c, 0, 67, 51
1, 340363, Note_on_c, 0, 55, 47
1, 340390, Note_off_c, 0, 55, 57
1, 340400, Note_off_c, 0, 67, 46
1, 340512, Note_on_c, 0, 67, 60
1, 340514, Note_on_c, 0, 55, 48
1, 340563, Note_off_c, 0, 55, 55
1, 340601, Note_off_c, 0, 67, 36
1, 340617, Note_on_c, 0, 50, 74
1, 340677, Note_off_c, 0, 48, 35
1, 340722, Control_c, 0, 64, 104
1, 340737, Control_c, 0, 64, 103
1, 340751, Control_c, 0, 64, 102
1, 340766, Control_c, 0, 64, 101
1, 340781, Control_c, 0, 64, 98
1, 340796, Control_c, 0, 64, 95
1, 340811, Control_c, 0, 64, 92
1, 340825, Control_c, 0, 64, 87
1, 340840, Control_c, 0, 64, 81
1, 340843, Note_on_c, 0, 51, 67
1, 340855, Control_c, 0, 64, 72
1, 340860, Note_on_c, 0, 67, 52
1, 340870, Control_c, 0, 64, 63
1, 340870, Note_on_c, 0, 55, 43
1, 340876, Note_off_c, 0, 50, 50
1, 340884, Control_c, 0, 64, 54
1, 340899, Control_c, 0, 64, 47
1, 340914, Control_c, 0, 64, 45
1, 340929, Control_c, 0, 64, 44
1, 340959, Control_c, 0, 64, 46
1, 340974, Control_c, 0, 64, 54
1, 340989, Control_c, 0, 64, 62
1, 340992, Note_off_c, 0, 67, 57
1, 341004, Note_off_c, 0, 55, 40
1, 341004, Control_c, 0, 64, 68
1, 341018, Control_c, 0, 64, 75
1, 341033, Control_c, 0, 64, 83
1, 341048, Control_c, 0, 64, 88
1, 341063, Control_c, 0, 64, 91
1, 341077, Control_c, 0, 64, 91
1, 341092, Control_c, 0, 64, 92
1, 341093, Note_on_c, 0, 55, 41
1, 341105, Note_on_c, 0, 67, 41
1, 341107, Control_c, 0, 64, 93
1, 341122, Control_c, 0, 64, 95
1, 341136, Control_c, 0, 64, 96
1, 341138, Note_off_c, 0, 67, 49
1, 341148, Note_off_c, 0, 55, 42
1, 341151, Control_c, 0, 64, 99
1, 341166, Control_c, 0, 64, 101
1, 341181, Control_c, 0, 64, 102
1, 341197, Control_c, 0, 64, 103
1, 341227, Control_c, 0, 64, 103
1, 341241, Control_c, 0, 64, 104
1, 341248, Note_on_c, 0, 67, 53
1, 341257, Note_on_c, 0, 55, 44
1, 341287, Note_off_c, 0, 67, 45
1, 341299, Note_off_c, 0, 55, 46
1, 341411, Note_on_c, 0, 55, 50
1, 341423, Note_on_c, 0, 67, 46
1, 341455, Note_off_c, 0, 67, 49
1, 341473, Note_off_c, 0, 55, 50
1, 341592, Note_on_c, 0, 67, 46
1, 341609, Note_on_c, 0, 55, 44
1, 341664, Note_off_c, 0, 55, 47
1, 341673, Note_off_c, 0, 67, 47
1, 341728, Note_on_c, 0, 50, 59
1, 341730, Note_off_c, 0, 51, 38
1, 341820, Note_on_c, 0, 67, 52
1, 341823, Note_on_c, 0, 55, 42
1, 341856, Control_c, 0, 64, 103
1, 341886, Control_c, 0, 64, 103
1, 341906, Note_off_c, 0, 67, 51
1, 341915, Control_c, 0, 64, 102
1, 341930, Control_c, 0, 64, 102
1, 341938, Note_off_c, 0, 55, 35
1, 341945, Control_c, 0, 64, 100
1, 341960, Control_c, 0, 64, 98
1, 341974, Control_c, 0, 64, 91
1, 341990, Control_c, 0, 64, 79
1, 342002, Note_on_c, 0, 48, 57
1, 342005, Control_c, 0, 64, 67
1, 342017, Note_off_c, 0, 50, 37
1, 342020, Control_c, 0, 64, 62
1, 342026, Note_on_c, 0, 55, 43
1, 342035, Control_c, 0, 64, 62
1, 342037, Note_on_c, 0, 67, 50
1, 342050, Control_c, 0, 64, 65
1, 342064, Control_c, 0, 64, 68
1, 342079, Control_c, 0, 64, 72
1, 342092, Note_off_c, 0, 67, 52
1, 342094, Control_c, 0, 64, 80
1, 342095, Note_off_c, 0, 55, 54
1, 342108, Control_c, 0, 64, 89
1, 342123, Control_c, 0, 64, 97
1, 342138, Control_c, 0, 64, 99
1, 342153, Control_c, 0, 64, 100
1, 342175, Control_c, 0, 64, 101
1, 342190, Control_c, 0, 64, 103
1, 342200, Note_on_c, 0, 55, 46
1, 342205, Control_c, 0, 64, 105
1, 342206, Note_on_c, 0, 67, 45
1, 342220, Control_c, 0, 64, 108
1, 342235, Control_c, 0, 64, 110
1, 342249, Control_c, 0, 64, 111
1, 342251, Note_off_c, 0, 55, 57
1, 342252, Note_off_c, 0, 67, 43
1, 342264, Control_c, 0, 64, 112
1, 342279, Control_c, 0, 64, 112
1, 342294, Control_c, 0, 64, 113
1, 342366, Note_on_c, 0, 67, 56
1, 342373, Note_on_c, 0, 55, 54
1, 342396, Note_off_c, 0, 67, 54
1, 342408, Note_off_c, 0, 55, 57
1, 342485, Control_c, 0, 64, 111
1, 342500, Control_c, 0, 64, 109
1, 342515, Control_c, 0, 64, 99
1, 342523, Note_on_c, 0, 55, 53
1, 342527, Note_on_c, 0, 67, 55
1, 342530, Control_c, 0, 64, 85
1, 342531, Note_on_c, 0, 46, 62
1, 342545, Control_c, 0, 64, 71
1, 342551, Note_off_c, 0, 48, 52
1, 342560, Control_c, 0, 64, 65
1, 342575, Control_c, 0, 64, 65
1, 342589, Control_c, 0, 64, 68
1, 342591, Note_off_c, 0, 67, 53
1, 342593, Note_off_c, 0, 55, 53
1, 342604, Control_c, 0, 64, 73
1, 342619, Control_c, 0, 64, 81
1, 342634, Control_c, 0, 64, 95
1, 342648, Control_c, 0, 64, 109
1, 342663, Control_c, 0, 64, 114
1, 342678, Control_c, 0, 64, 115
1, 342693, Control_c, 0, 64, 117
1, 342706, Note_on_c, 0, 55, 52
1, 342708, Control_c, 0, 64, 122
1, 342715, Note_on_c, 0, 67, 61
1, 342722, Control_c, 0, 64, 127
1, 342752, Note_off_c, 0, 67, 59
1, 342759, Note_off_c, 0, 55, 56
1, 342864, Note_on_c, 0, 53, 59
1, 342870, Note_on_c, 0, 65, 54
1, 342898, Note_off_c, 0, 53, 53
1, 342932, Note_off_c, 0, 65, 48
1, 342990, Note_on_c, 0, 44, 63
1, 343046, Note_off_c, 0, 46, 33
1, 343086, Control_c, 0, 64, 120
1, 343101, Control_c, 0, 64, 111
1, 343116, Control_c, 0, 64, 105
1, 343131, Control_c, 0, 64, 98
1, 343145, Control_c, 0, 64, 89
1, 343160, Control_c, 0, 64, 77
1, 343175, Control_c, 0, 64, 60
1, 343178, Note_on_c, 0, 55, 45
1, 343180, Note_on_c, 0, 67, 51
1, 343182, Note_on_c, 0, 43, 56
1, 343187, Note_off_c, 0, 44, 45
1, 343190, Control_c, 0, 64, 29
1, 343194, Note_on_c, 0, 60, 46
1, 343195, Note_on_c, 0, 63, 49
1, 343205, Control_c, 0, 64, 0
1, 343249, Control_c, 0, 64, 23
1, 343263, Control_c, 0, 64, 56
1, 343278, Control_c, 0, 64, 71
1, 343293, Control_c, 0, 64, 83
1, 343308, Control_c, 0, 64, 105
1, 343312, Note_off_c, 0, 55, 42
1, 343316, Note_off_c, 0, 63, 49
1, 343323, Control_c, 0, 64, 127
1, 343342, Note_off_c, 0, 67, 33
1, 343350, Note_off_c, 0, 60, 33
1, 343415, Note_off_c, 0, 43, 53
1, 343437, Note_on_c, 0, 55, 41
1, 343450, Note_on_c, 0, 63, 44
1, 343457, Note_on_c, 0, 60, 37
1, 343481, Note_off_c, 0, 55, 50
1, 343487, Note_off_c, 0, 63, 56
1, 343496, Note_off_c, 0, 60, 55
1, 343614, Note_on_c, 0, 63, 35
1, 343626, Note_on_c, 0, 60, 36
1, 343652, Note_off_c, 0, 63, 50
1, 343654, Note_off_c, 0, 60, 54
1, 343654, Poly_aftertouch_c, 0, 55, 127
1, 343701, Control_c, 0, 64, 113
1, 343705, Poly_aftertouch_c, 0, 55, 0
1, 343716, Control_c, 0, 64, 99
1, 343731, Control_c, 0, 64, 96
1, 343761, Note_on_c, 0, 43, 52
1, 343761, Control_c, 0, 64, 97
1, 343767, Note_on_c, 0, 63, 48
1, 343768, Note_on_c, 0, 60, 47
1, 343776, Control_c, 0, 64, 101
1, 343791, Control_c, 0, 64, 108
1, 343803, Note_on_c, 0, 55, 14
1, 343806, Control_c, 0, 64, 117
1, 343812, Note_off_c, 0, 63, 54
1, 343821, Control_c, 0, 64, 127
1, 343823, Note_off_c, 0, 60, 48
1, 343848, Note_off_c, 0, 55, 50
1, 343951, Note_on_c, 0, 63, 37
1, 343986, Note_off_c, 0, 63, 51
1, 343998, Note_off_c, 0, 43, 34
1, 344014, Poly_aftertouch_c, 0, 60, 127
1, 344062, Poly_aftertouch_c, 0, 60, 0
1, 344098, Note_on_c, 0, 63, 50
1, 344127, Note_on_c, 0, 60, 15
1, 344139, Note_on_c, 0, 55, 28
1, 344146, Note_off_c, 0, 63, 53
1, 344168, Note_off_c, 0, 60, 45
1, 344181, Note_off_c, 0, 55, 48
1, 344250, Control_c, 0, 64, 122
1, 344265, Control_c, 0, 64, 111
1, 344280, Control_c, 0, 64, 96
1, 344285, Note_on_c, 0, 43, 60
1, 344295, Control_c, 0, 64, 79
1, 344296, Note_on_c, 0, 55, 45
1, 344303, Note_on_c, 0, 62, 49
1, 344310, Control_c, 0, 64, 69
1, 344313, Note_on_c, 0, 59, 45
1, 344324, Control_c, 0, 64, 67
1, 344333, Note_on_c, 0, 67, 36
1, 344339, Control_c, 0, 64, 70
1, 344354, Control_c, 0, 64, 76
1, 344369, Control_c, 0, 64, 86
1, 344370, Note_off_c, 0, 62, 50
1, 344372, Note_off_c, 0, 67, 47
1, 344381, Note_off_c, 0, 59, 49
1, 344383, Note_off_c, 0, 55, 31
1, 344384, Control_c, 0, 64, 100
1, 344399, Control_c, 0, 64, 115
1, 344422, Control_c, 0, 64, 117
1, 344437, Control_c, 0, 64, 117
1, 344475, Note_on_c, 0, 59, 36
1, 344481, Control_c, 0, 64, 118
1, 344493, Note_on_c, 0, 62, 42
1, 344495, Note_off_c, 0, 43, 51
1, 344496, Control_c, 0, 64, 121
1, 344498, Note_on_c, 0, 55, 30
1, 344511, Control_c, 0, 64, 123
1, 344525, Control_c, 0, 64, 124
1, 344534, Note_off_c, 0, 55, 50
1, 344539, Note_off_c, 0, 59, 51
1, 344548, Note_off_c, 0, 62, 42
1, 344651, Note_on_c, 0, 55, 35
1, 344664, Note_on_c, 0, 59, 43
1, 344672, Note_on_c, 0, 62, 36
1, 344688, Note_off_c, 0, 55, 48
1, 344698, Note_off_c, 0, 59, 51
1, 344700, Note_off_c, 0, 62, 55
1, 344733, Control_c, 0, 64, 123
1, 344748, Control_c, 0, 64, 120
1, 344763, Control_c, 0, 64, 116
1, 344778, Control_c, 0, 64, 112
1, 344792, Control_c, 0, 64, 106
1, 344807, Control_c, 0, 64, 97
1, 344812, Note_on_c, 0, 59, 49
1, 344812, Note_on_c, 0, 62, 47
1, 344822, Control_c, 0, 64, 86
1, 344823, Note_on_c, 0, 43, 53
1, 344823, Note_on_c, 0, 55, 42
1, 344836, Control_c, 0, 64, 75
1, 344851, Control_c, 0, 64, 68
1, 344876, Note_off_c, 0, 55, 43
1, 344881, Control_c, 0, 64, 71
1, 344882, Note_off_c, 0, 59, 49
1, 344896, Control_c, 0, 64, 76
1, 344906, Note_off_c, 0, 62, 35
1, 344910, Control_c, 0, 64, 87
1, 344919, Poly_aftertouch_c, 0, 67, 0
1, 344925, Control_c, 0, 64, 97
1, 344940, Control_c, 0, 64, 106
1, 344955, Control_c, 0, 64, 108
1, 344994, Note_on_c, 0, 55, 41
1, 345004, Note_on_c, 0, 59, 43
1, 345009, Note_on_c, 0, 62, 43
1, 345027, Note_off_c, 0, 55, 51
1, 345038, Note_off_c, 0, 59, 52
1, 345040, Note_off_c, 0, 62, 53
1, 345156, Note_on_c, 0, 59, 47
1, 345164, Note_on_c, 0, 55, 40
1, 345167, Note_on_c, 0, 62, 52
1, 345198, Note_off_c, 0, 55, 52
1, 345201, Note_off_c, 0, 62, 60
1, 345203, Note_off_c, 0, 59, 54
1, 345319, Control_c, 0, 64, 106
1, 345334, Control_c, 0, 64, 104
1, 345348, Control_c, 0, 64, 96
1, 345363, Control_c, 0, 64, 80
1, 345365, Note_on_c, 0, 48, 54
1, 345372, Note_on_c, 0, 60, 49
1, 345378, Control_c, 0, 64, 63
1, 345382, Note_on_c, 0, 67, 48
1, 345383, Note_on_c, 0, 55, 40
1, 345388, Note_on_c, 0, 63, 44
1, 345392, Note_off_c, 0, 43, 39
1, 345393, Control_c, 0, 64, 39
1, 345422, Control_c, 0, 64, 22
1, 345437, Control_c, 0, 64, 43
1, 345452, Control_c, 0, 64, 61
1, 345463, Note_off_c, 0, 67, 49
1, 345466, Control_c, 0, 64, 73
1, 345469, Note_off_c, 0, 55, 51
1, 345481, Control_c, 0, 64, 86
1, 345483, Note_off_c, 0, 63, 35
1, 345496, Control_c, 0, 64, 111
1, 345511, Control_c, 0, 64, 127
1, 345519, Note_off_c, 0, 60, 33
1, 345572, Note_on_c, 0, 55, 42
1, 345572, Note_on_c, 0, 67, 47
1, 345606, Note_off_c, 0, 67, 55
1, 345613, Note_off_c, 0, 55, 48
1, 345711, Note_on_c, 0, 67, 52
1, 345715, Note_on_c, 0, 55, 53
1, 345727, Note_off_c, 0, 48, 53
1, 345764, Note_off_c, 0, 55, 52
1, 345775, Note_off_c, 0, 67, 44
1, 345877, Note_on_c, 0, 67, 44
1, 345882, Note_on_c, 0, 55, 46
1, 345917, Note_off_c, 0, 67, 53
1, 345924, Note_off_c, 0, 55, 51
1, 346031, Note_on_c, 0, 55, 48
1, 346036, Note_on_c, 0, 67, 48
1, 346087, Note_off_c, 0, 67, 53
1, 346093, Note_off_c, 0, 55, 47
1, 346213, Note_on_c, 0, 67, 50
1, 346222, Note_on_c, 0, 55, 37
1, 346253, Note_off_c, 0, 67, 56
1, 346267, Note_off_c, 0, 55, 46
1, 346366, Note_on_c, 0, 67, 54
1, 346369, Note_on_c, 0, 55, 54
1, 346420, Note_off_c, 0, 55, 52
1, 346420, Note_off_c, 0, 67, 49
1, 346551, Note_on_c, 0, 55, 52
1, 346557, Note_on_c, 0, 67, 48
1, 346581, Note_off_c, 0, 55, 58
1, 346584, Note_off_c, 0, 67, 54
1, 346688, Note_on_c, 0, 55, 50
1, 346694, Note_on_c, 0, 67, 50
1, 346782, Note_off_c, 0, 67, 36
1, 346793, Note_off_c, 0, 55, 34
1, 346846, Control_c, 0, 64, 107
1, 346858, Note_on_c, 0, 47, 64
1, 346861, Note_on_c, 0, 35, 65
1, 346861, Control_c, 0, 64, 90
1, 346873, Note_on_c, 0, 55, 45
1, 346876, Control_c, 0, 64, 76
1, 346876, Note_on_c, 0, 67, 49
1, 346891, Control_c, 0, 64, 69
1, 346920, Control_c, 0, 64, 73
1, 346930, Note_off_c, 0, 55, 54
1, 346935, Control_c, 0, 64, 81
1, 346942, Note_off_c, 0, 67, 48
1, 346950, Control_c, 0, 64, 97
1, 346965, Control_c, 0, 64, 118
1, 346980, Control_c, 0, 64, 127
1, 347032, Note_on_c, 0, 67, 49
1, 347039, Note_on_c, 0, 55, 53
1, 347073, Note_off_c, 0, 35, 58
1, 347078, Note_off_c, 0, 47, 56
1, 347082, Note_off_c, 0, 55, 55
1, 347097, Note_off_c, 0, 67, 48
1, 347184, Note_on_c, 0, 67, 52
1, 347205, Note_on_c, 0, 55, 50
1, 347249, Note_off_c, 0, 55, 47
1, 347269, Note_off_c, 0, 67, 50
1, 347277, Note_on_c, 0, 36, 67
1, 347284, Note_on_c, 0, 48, 66
1, 347315, Note_off_c, 0, 36, 60
1, 347315, Note_off_c, 0, 48, 64
1, 347364, Control_c, 0, 64, 120
1, 347379, Control_c, 0, 64, 99
1, 347394, Control_c, 0, 64, 82
1, 347398, Note_on_c, 0, 55, 54
1, 347398, Note_on_c, 0, 38, 73
1, 347398, Note_on_c, 0, 50, 70
1, 347398, Note_on_c, 0, 67, 63
1, 347416, Control_c, 0, 64, 69
1, 347431, Control_c, 0, 64, 63
1, 347460, Control_c, 0, 64, 66
1, 347475, Control_c, 0, 64, 71
1, 347490, Control_c, 0, 64, 81
1, 347505, Control_c, 0, 64, 97
1, 347509, Note_off_c, 0, 67, 53
1, 347520, Control_c, 0, 64, 122
1, 347526, Note_off_c, 0, 55, 34
1, 347535, Control_c, 0, 64, 127
1, 347601, Note_off_c, 0, 38, 60
1, 347602, Note_off_c, 0, 50, 59
1, 347603, Note_on_c, 0, 55, 50
1, 347606, Note_on_c, 0, 67, 52
1, 347656, Note_off_c, 0, 55, 51
1, 347673, Note_off_c, 0, 67, 49
1, 347755, Note_on_c, 0, 67, 55
1, 347765, Note_on_c, 0, 55, 59
1, 347832, Note_off_c, 0, 67, 56
1, 347860, Note_off_c, 0, 55, 35
1, 347921, Control_c, 0, 64, 106
1, 347925, Note_on_c, 0, 38, 73
1, 347925, Note_on_c, 0, 50, 77
1, 347933, Note_on_c, 0, 55, 64
1, 347935, Control_c, 0, 64, 88
1, 347939, Note_on_c, 0, 67, 70
1, 347950, Control_c, 0, 64, 74
1, 347965, Control_c, 0, 64, 67
1, 347994, Control_c, 0, 64, 69
1, 348009, Control_c, 0, 64, 73
1, 348023, Note_off_c, 0, 67, 59
1, 348024, Control_c, 0, 64, 82
1, 348025, Note_off_c, 0, 55, 49
1, 348039, Control_c, 0, 64, 95
1, 348054, Control_c, 0, 64, 109
1, 348068, Control_c, 0, 64, 115
1, 348083, Control_c, 0, 64, 115
1, 348098, Control_c, 0, 64, 116
1, 348105, Note_on_c, 0, 55, 59
1, 348111, Note_on_c, 0, 67, 66
1, 348113, Control_c, 0, 64, 117
1, 348128, Control_c, 0, 64, 120
1, 348131, Note_off_c, 0, 50, 59
1, 348134, Note_off_c, 0, 38, 59
1, 348143, Control_c, 0, 64, 127
1, 348185, Note_off_c, 0, 67, 57
1, 348188, Note_off_c, 0, 55, 55
1, 348280, Note_on_c, 0, 55, 67
1, 348282, Note_on_c, 0, 67, 67
1, 348351, Note_off_c, 0, 55, 54
1, 348358, Note_off_c, 0, 67, 56
1, 348447, Control_c, 0, 64, 112
1, 348455, Note_on_c, 0, 38, 71
1, 348455, Note_on_c, 0, 50, 75
1, 348459, Note_on_c, 0, 55, 73
1, 348462, Control_c, 0, 64, 92
1, 348462, Note_on_c, 0, 67, 73
1, 348476, Control_c, 0, 64, 75
1, 348491, Control_c, 0, 64, 67
1, 348506, Control_c, 0, 64, 66
1, 348521, Control_c, 0, 64, 70
1, 348536, Control_c, 0, 64, 76
1, 348546, Note_off_c, 0, 67, 59
1, 348550, Note_off_c, 0, 55, 54
1, 348550, Control_c, 0, 64, 88
1, 348565, Control_c, 0, 64, 105
1, 348580, Control_c, 0, 64, 127
1, 348630, Note_on_c, 0, 55, 66
1, 348638, Note_on_c, 0, 67, 67
1, 348697, Note_off_c, 0, 50, 59
1, 348708, Note_off_c, 0, 67, 53
1, 348721, Note_off_c, 0, 38, 59
1, 348736, Note_off_c, 0, 55, 36
1, 348797, Note_on_c, 0, 55, 72
1, 348799, Note_on_c, 0, 67, 71
1, 348860, Note_off_c, 0, 55, 59
1, 348883, Note_off_c, 0, 67, 60
1, 348972, Control_c, 0, 64, 106
1, 348984, Note_on_c, 0, 56, 81
1, 348985, Note_on_c, 0, 48, 79
1, 348987, Note_on_c, 0, 36, 80
1, 348987, Note_on_c, 0, 68, 77
1, 348987, Control_c, 0, 64, 84
1, 349002, Control_c, 0, 64, 69
1, 349016, Control_c, 0, 64, 62
1, 349031, Control_c, 0, 64, 63
1, 349046, Control_c, 0, 64, 66
1, 349061, Control_c, 0, 64, 71
1, 349076, Control_c, 0, 64, 79
1, 349085, Note_off_c, 0, 56, 57
1, 349091, Control_c, 0, 64, 98
1, 349092, Note_off_c, 0, 68, 56
1, 349106, Control_c, 0, 64, 127
1, 349184, Note_on_c, 0, 56, 87
1, 349189, Note_on_c, 0, 68, 83
1, 349222, Note_off_c, 0, 36, 57
1, 349255, Note_off_c, 0, 56, 57
1, 349258, Note_off_c, 0, 68, 57
1, 349267, Note_off_c, 0, 48, 57
1, 349358, Note_on_c, 0, 56, 86
1, 349360, Note_on_c, 0, 68, 85
1, 349434, Note_off_c, 0, 68, 55
1, 349436, Note_off_c, 0, 56, 53
1, 349489, Note_on_c, 0, 38, 78
1, 349490, Note_on_c, 0, 50, 79
1, 349553, Note_off_c, 0, 50, 61
1, 349555, Note_off_c, 0, 38, 58
1, 349717, Note_on_c, 0, 51, 78
1, 349717, Note_on_c, 0, 55, 67
1, 349717, Note_on_c, 0, 67, 71
1, 349720, Control_c, 0, 64, 119
1, 349723, Note_on_c, 0, 39, 74
1, 349735, Control_c, 0, 64, 92
1, 349750, Control_c, 0, 64, 72
1, 349765, Control_c, 0, 64, 55
1, 349780, Control_c, 0, 64, 42
1, 349794, Control_c, 0, 64, 43
1, 349809, Control_c, 0, 64, 54
1, 349824, Control_c, 0, 64, 63
1, 349839, Control_c, 0, 64, 70
1, 349854, Control_c, 0, 64, 78
1, 349869, Control_c, 0, 64, 89
1, 349882, Note_off_c, 0, 67, 56
1, 349884, Control_c, 0, 64, 99
1, 349898, Note_off_c, 0, 55, 46
1, 349899, Control_c, 0, 64, 102
1, 349913, Control_c, 0, 64, 103
1, 349928, Control_c, 0, 64, 103
1, 349976, Note_on_c, 0, 55, 52
1, 349994, Note_on_c, 0, 67, 56
1, 350003, Control_c, 0, 64, 104
1, 350035, Note_off_c, 0, 67, 57
1, 350041, Note_off_c, 0, 55, 54
1, 350107, Control_c, 0, 64, 103
1, 350122, Control_c, 0, 64, 102
1, 350137, Control_c, 0, 64, 99
1, 350147, Note_on_c, 0, 55, 63
1, 350152, Control_c, 0, 64, 97
1, 350154, Note_on_c, 0, 67, 62
1, 350203, Note_off_c, 0, 67, 56
1, 350211, Note_off_c, 0, 55, 54
1, 350211, Control_c, 0, 64, 98
1, 350226, Control_c, 0, 64, 99
1, 350270, Control_c, 0, 64, 100
1, 350285, Control_c, 0, 64, 102
1, 350300, Control_c, 0, 64, 104
1, 350306, Note_off_c, 0, 51, 42
1, 350315, Note_on_c, 0, 55, 66
1, 350315, Control_c, 0, 64, 104
1, 350322, Note_on_c, 0, 67, 62
1, 350371, Note_off_c, 0, 67, 54
1, 350373, Control_c, 0, 64, 105
1, 350388, Control_c, 0, 64, 107
1, 350411, Control_c, 0, 64, 109
1, 350414, Note_off_c, 0, 55, 35
1, 350426, Control_c, 0, 64, 114
1, 350441, Control_c, 0, 64, 123
1, 350455, Control_c, 0, 64, 127
1, 350456, Note_off_c, 0, 39, 24
1, 350504, Note_on_c, 0, 67, 61
1, 350506, Note_on_c, 0, 55, 61
1, 350599, Note_off_c, 0, 67, 54
1, 350611, Note_on_c, 0, 50, 74
1, 350612, Note_on_c, 0, 38, 71
1, 350635, Note_off_c, 0, 55, 35
1, 350666, Note_off_c, 0, 50, 59
1, 350680, Note_off_c, 0, 38, 59
1, 350738, Note_on_c, 0, 67, 61
1, 350746, Note_on_c, 0, 55, 62
1, 350821, Note_off_c, 0, 67, 55
1, 350826, Note_off_c, 0, 55, 54
1, 350885, Control_c, 0, 64, 108
1, 350900, Control_c, 0, 64, 86
1, 350906, Note_on_c, 0, 48, 73
1, 350910, Note_on_c, 0, 36, 68
1, 350915, Control_c, 0, 64, 70
1, 350930, Control_c, 0, 64, 63
1, 350942, Note_on_c, 0, 55, 61
1, 350945, Control_c, 0, 64, 63
1, 350948, Note_on_c, 0, 67, 59
1, 350960, Control_c, 0, 64, 66
1, 350975, Control_c, 0, 64, 71
1, 350990, Control_c, 0, 64, 81
1, 350997, Note_off_c, 0, 55, 51
1, 350998, Note_off_c, 0, 67, 56
1, 351004, Control_c, 0, 64, 99
1, 351017, Note_off_c, 0, 48, 58
1, 351019, Control_c, 0, 64, 127
1, 351099, Note_on_c, 0, 55, 59
1, 351101, Note_on_c, 0, 67, 56
1, 351175, Note_off_c, 0, 55, 52
1, 351180, Note_off_c, 0, 67, 48
1, 351267, Note_on_c, 0, 55, 47
1, 351271, Note_on_c, 0, 67, 46
1, 351328, Note_off_c, 0, 67, 51
1, 351351, Note_off_c, 0, 55, 36
1, 351411, Control_c, 0, 64, 104
1, 351426, Control_c, 0, 64, 85
1, 351434, Note_on_c, 0, 46, 66
1, 351437, Note_on_c, 0, 55, 57
1, 351440, Note_on_c, 0, 34, 60
1, 351440, Note_on_c, 0, 67, 57
1, 351441, Control_c, 0, 64, 68
1, 351455, Note_off_c, 0, 36, 42
1, 351456, Control_c, 0, 64, 64
1, 351471, Control_c, 0, 64, 66
1, 351485, Control_c, 0, 64, 70
1, 351499, Note_off_c, 0, 55, 53
1, 351500, Control_c, 0, 64, 78
1, 351505, Note_off_c, 0, 67, 53
1, 351515, Control_c, 0, 64, 92
1, 351529, Control_c, 0, 64, 113
1, 351544, Control_c, 0, 64, 127
1, 351625, Note_on_c, 0, 55, 63
1, 351638, Note_on_c, 0, 67, 56
1, 351649, Note_off_c, 0, 46, 55
1, 351662, Note_off_c, 0, 67, 59
1, 351690, Note_off_c, 0, 55, 51
1, 351809, Note_on_c, 0, 53, 59
1, 351815, Note_on_c, 0, 65, 59
1, 351859, Note_off_c, 0, 53, 51
1, 351917, Note_off_c, 0, 34, 28
1, 351937, Note_off_c, 0, 65, 36
1, 351961, Note_on_c, 0, 44, 55
1, 351973, Note_on_c, 0, 32, 54
1, 352027, Note_off_c, 0, 44, 55
1, 352028, Note_off_c, 0, 32, 56
1, 352072, Control_c, 0, 67, 16
1, 352087, Control_c, 0, 67, 19
1, 352101, Control_c, 0, 67, 21
1, 352116, Control_c, 0, 67, 22
1, 352131, Control_c, 0, 67, 23
1, 352146, Control_c, 0, 67, 24
1, 352279, Control_c, 0, 64, 122
1, 352294, Control_c, 0, 64, 111
1, 352308, Control_c, 0, 64, 102
1, 352323, Control_c, 0, 64, 93
1, 352338, Control_c, 0, 64, 84
1, 352347, Note_on_c, 0, 31, 45
1, 352350, Note_on_c, 0, 67, 52
1, 352352, Control_c, 0, 64, 74
1, 352357, Note_on_c, 0, 60, 51
1, 352358, Note_on_c, 0, 43, 40
1, 352358, Note_on_c, 0, 55, 42
1, 352368, Control_c, 0, 64, 66
1, 352369, Note_on_c, 0, 64, 47
1, 352383, Control_c, 0, 64, 55
1, 352413, Control_c, 0, 64, 0
1, 352502, Control_c, 0, 64, 53
1, 352517, Control_c, 0, 64, 65
1, 352531, Control_c, 0, 64, 71
1, 352546, Control_c, 0, 64, 78
1, 352561, Control_c, 0, 64, 89
1, 352576, Control_c, 0, 64, 98
1, 352590, Control_c, 0, 64, 106
1, 352599, Note_off_c, 0, 67, 54
1, 352602, Note_off_c, 0, 60, 45
1, 352605, Control_c, 0, 64, 113
1, 352619, Note_off_c, 0, 64, 36
1, 352620, Note_off_c, 0, 55, 36
1, 352620, Control_c, 0, 64, 120
1, 352635, Control_c, 0, 64, 127
1, 352635, Control_c, 0, 67, 23
1, 352679, Note_off_c, 0, 31, 58
1, 352691, Note_off_c, 0, 43, 52
1, 352722, Note_on_c, 0, 60, 35
1, 352726, Note_on_c, 0, 64, 37
1, 352728, Note_on_c, 0, 55, 43
1, 352763, Note_on_c, 0, 67, 25
1, 352772, Note_off_c, 0, 55, 50
1, 352778, Note_off_c, 0, 64, 44
1, 352781, Note_off_c, 0, 60, 49
1, 352790, Control_c, 0, 67, 23
1, 352800, Note_off_c, 0, 67, 42
1, 352895, Note_on_c, 0, 55, 47
1, 352903, Note_on_c, 0, 60, 43
1, 352919, Note_on_c, 0, 67, 31
1, 352927, Note_on_c, 0, 64, 24
1, 352951, Note_off_c, 0, 55, 45
1, 352952, Note_off_c, 0, 67, 51
1, 352953, Note_off_c, 0, 60, 52
1, 352966, Note_off_c, 0, 64, 47
1, 353012, Control_c, 0, 64, 124
1, 353027, Control_c, 0, 64, 115
1, 353042, Control_c, 0, 64, 106
1, 353056, Control_c, 0, 64, 94
1, 353071, Control_c, 0, 64, 80
1, 353079, Note_on_c, 0, 55, 40
1, 353082, Note_on_c, 0, 64, 40
1, 353083, Note_on_c, 0, 67, 29
1, 353085, Note_on_c, 0, 31, 46
1, 353086, Control_c, 0, 64, 71
1, 353088, Note_on_c, 0, 43, 39
1, 353091, Note_on_c, 0, 60, 40
1, 353100, Control_c, 0, 64, 70
1, 353115, Control_c, 0, 64, 72
1, 353115, Control_c, 0, 67, 22
1, 353122, Note_off_c, 0, 55, 46
1, 353123, Note_off_c, 0, 67, 48
1, 353127, Note_off_c, 0, 64, 46
1, 353128, Note_off_c, 0, 60, 58
1, 353130, Control_c, 0, 64, 76
1, 353145, Control_c, 0, 64, 83
1, 353145, Control_c, 0, 67, 22
1, 353160, Control_c, 0, 64, 93
1, 353176, Control_c, 0, 64, 110
1, 353190, Control_c, 0, 64, 122
1, 353205, Control_c, 0, 64, 124
1, 353220, Control_c, 0, 64, 127
1, 353246, Note_off_c, 0, 31, 54
1, 353250, Control_c, 0, 67, 21
1, 353255, Note_on_c, 0, 60, 42
1, 353260, Note_off_c, 0, 43, 52
1, 353267, Note_on_c, 0, 55, 25
1, 353274, Note_on_c, 0, 64, 20
1, 353279, Control_c, 0, 67, 21
1, 353288, Note_off_c, 0, 60, 49
1, 353303, Note_off_c, 0, 55, 51
1, 353314, Note_off_c, 0, 64, 42
1, 353439, Note_on_c, 0, 55, 32
1, 353449, Note_on_c, 0, 60, 33
1, 353453, Note_on_c, 0, 64, 25
1, 353485, Note_off_c, 0, 60, 47
1, 353491, Note_off_c, 0, 55, 43
1, 353491, Note_off_c, 0, 64, 48
1, 353509, Control_c, 0, 67, 20
1, 353538, Control_c, 0, 67, 20
1, 353553, Control_c, 0, 64, 124
1, 353568, Control_c, 0, 64, 112
1, 353568, Control_c, 0, 67, 19
1, 353583, Control_c, 0, 64, 101
1, 353583, Control_c, 0, 67, 19
1, 353598, Control_c, 0, 64, 92
1, 353613, Control_c, 0, 64, 82
1, 353620, Note_on_c, 0, 31, 50
1, 353627, Note_on_c, 0, 59, 42
1, 353628, Control_c, 0, 64, 71
1, 353631, Note_on_c, 0, 55, 34
1, 353639, Note_on_c, 0, 43, 37
1, 353640, Note_on_c, 0, 67, 46
1, 353643, Control_c, 0, 64, 64
1, 353649, Note_on_c, 0, 62, 33
1, 353658, Control_c, 0, 64, 62
1, 353658, Control_c, 0, 67, 18
1, 353672, Control_c, 0, 64, 63
1, 353672, Control_c, 0, 67, 18
1, 353687, Control_c, 0, 64, 67
1, 353688, Note_off_c, 0, 59, 53
1, 353690, Note_off_c, 0, 55, 52
1, 353693, Note_off_c, 0, 62, 45
1, 353702, Control_c, 0, 64, 72
1, 353702, Control_c, 0, 67, 17
1, 353717, Control_c, 0, 64, 81
1, 353732, Control_c, 0, 64, 95
1, 353747, Control_c, 0, 64, 111
1, 353762, Control_c, 0, 64, 127
1, 353765, Note_off_c, 0, 67, 0
1, 353801, Poly_aftertouch_c, 0, 67, 127
1, 353807, Note_off_c, 0, 31, 56
1, 353809, Note_off_c, 0, 43, 57
1, 353810, Note_on_c, 0, 55, 40
1, 353810, Note_on_c, 0, 59, 28
1, 353813, Note_on_c, 0, 62, 34
1, 353848, Note_off_c, 0, 59, 49
1, 353850, Note_off_c, 0, 62, 49
1, 353853, Note_off_c, 0, 55, 47
1, 353929, Poly_aftertouch_c, 0, 67, 0
1, 353965, Note_on_c, 0, 55, 43
1, 353966, Poly_aftertouch_c, 0, 67, 127
1, 353971, Note_on_c, 0, 62, 45
1, 353972, Note_on_c, 0, 59, 41
1, 354007, Note_off_c, 0, 59, 52
1, 354012, Note_off_c, 0, 55, 54
1, 354015, Note_off_c, 0, 62, 45
1, 354059, Control_c, 0, 64, 120
1, 354074, Control_c, 0, 64, 114
1, 354088, Control_c, 0, 64, 106
1, 354103, Control_c, 0, 64, 97
1, 354117, Poly_aftertouch_c, 0, 67, 0
1, 354118, Control_c, 0, 64, 85
1, 354133, Control_c, 0, 64, 73
1, 354136, Note_on_c, 0, 55, 45
1, 354148, Note_on_c, 0, 59, 38
1, 354155, Control_c, 0, 64, 67
1, 354155, Note_on_c, 0, 31, 37
1, 354160, Note_on_c, 0, 62, 34
1, 354161, Poly_aftertouch_c, 0, 67, 127
1, 354162, Note_on_c, 0, 43, 38
1, 354170, Control_c, 0, 64, 67
1, 354185, Control_c, 0, 64, 71
1, 354190, Note_off_c, 0, 62, 55
1, 354194, Note_off_c, 0, 59, 59
1, 354197, Note_off_c, 0, 55, 51
1, 354200, Control_c, 0, 64, 78
1, 354215, Control_c, 0, 64, 88
1, 354229, Control_c, 0, 64, 101
1, 354244, Control_c, 0, 64, 111
1, 354244, Control_c, 0, 67, 17
1, 354252, Poly_aftertouch_c, 0, 67, 0
1, 354259, Control_c, 0, 64, 113
1, 354274, Control_c, 0, 64, 113
1, 354289, Control_c, 0, 64, 114
1, 354303, Control_c, 0, 64, 114
1, 354318, Control_c, 0, 64, 115
1, 354320, Note_off_c, 0, 31, 58
1, 354322, Note_on_c, 0, 59, 47
1, 354322, Note_on_c, 0, 62, 32
1, 354333, Control_c, 0, 64, 118
1, 354347, Control_c, 0, 64, 127
1, 354348, Note_off_c, 0, 43, 38
1, 354357, Note_on_c, 0, 55, 21
1, 354364, Note_off_c, 0, 59, 47
1, 354372, Note_off_c, 0, 62, 43
1, 354402, Note_off_c, 0, 55, 51
1, 354436, Control_c, 0, 67, 16
1, 354466, Control_c, 0, 67, 16
1, 354510, Note_on_c, 0, 62, 46
1, 354512, Note_on_c, 0, 59, 33
1, 354542, Note_off_c, 0, 62, 53
1, 354543, Note_off_c, 0, 59, 52
1, 354644, Control_c, 0, 64, 120
1, 354659, Control_c, 0, 64, 112
1, 354673, Control_c, 0, 64, 104
1, 354688, Control_c, 0, 64, 96
1, 354703, Control_c, 0, 64, 87
1, 354718, Control_c, 0, 64, 78
1, 354733, Control_c, 0, 64, 68
1, 354745, Note_on_c, 0, 36, 40
1, 354747, Control_c, 0, 64, 61
1, 354749, Note_on_c, 0, 55, 32
1, 354759, Note_on_c, 0, 48, 28
1, 354762, Control_c, 0, 64, 58
1, 354766, Note_on_c, 0, 64, 37
1, 354767, Note_on_c, 0, 60, 37
1, 354781, Note_on_c, 0, 67, 44
1, 354793, Control_c, 0, 64, 61
1, 354808, Control_c, 0, 64, 66
1, 354821, Note_off_c, 0, 55, 42
1, 354823, Control_c, 0, 64, 71
1, 354838, Control_c, 0, 64, 78
1, 354852, Control_c, 0, 64, 89
1, 354867, Control_c, 0, 64, 100
1, 354882, Control_c, 0, 64, 106
1, 354904, Control_c, 0, 64, 107
1, 354919, Control_c, 0, 64, 107
1, 354932, Note_off_c, 0, 36, 51
1, 354933, Control_c, 0, 64, 108
1, 354948, Control_c, 0, 64, 109
1, 354960, Note_off_c, 0, 48, 41
1, 354963, Control_c, 0, 64, 110
1, 354978, Control_c, 0, 64, 110
1, 354989, Note_on_c, 0, 55, 43
1, 354993, Control_c, 0, 64, 112
1, 355008, Control_c, 0, 64, 114
1, 355023, Control_c, 0, 64, 116
1, 355026, Note_off_c, 0, 55, 49
1, 355135, Note_on_c, 0, 55, 41
1, 355176, Note_off_c, 0, 55, 46
1, 355230, Control_c, 0, 64, 115
1, 355244, Control_c, 0, 64, 113
1, 355259, Control_c, 0, 64, 110
1, 355274, Control_c, 0, 64, 104
1, 355289, Control_c, 0, 64, 93
1, 355296, Note_off_c, 0, 60, 31
1, 355303, Control_c, 0, 64, 82
1, 355306, Note_on_c, 0, 55, 41
1, 355318, Control_c, 0, 64, 76
1, 355333, Control_c, 0, 64, 78
1, 355348, Control_c, 0, 64, 84
1, 355363, Control_c, 0, 64, 92
1, 355374, Note_off_c, 0, 55, 46
1, 355378, Control_c, 0, 64, 98
1, 355393, Control_c, 0, 64, 100
1, 355422, Control_c, 0, 64, 101
1, 355437, Control_c, 0, 64, 102
1, 355476, Note_on_c, 0, 55, 46
1, 355511, Control_c, 0, 67, 0
1, 355518, Note_off_c, 0, 55, 54
1, 355525, Note_off_c, 0, 67, 15
1, 355627, Note_off_c, 0, 64, 29
1, 355634, Note_on_c, 0, 55, 44
1, 355688, Note_off_c, 0, 55, 42
1, 355712, Control_c, 0, 64, 101
1, 355726, Control_c, 0, 64, 98
1, 355741, Control_c, 0, 64, 93
1, 355756, Control_c, 0, 64, 92
1, 355786, Control_c, 0, 64, 94
1, 355801, Control_c, 0, 64, 95
1, 355816, Control_c, 0, 64, 97
1, 355828, Note_on_c, 0, 55, 42
1, 355831, Control_c, 0, 64, 97
1, 355861, Control_c, 0, 64, 98
1, 355863, Note_off_c, 0, 55, 51
1, 355875, Control_c, 0, 64, 98
1, 355890, Control_c, 0, 64, 100
1, 355905, Control_c, 0, 64, 100
1, 355976, Note_on_c, 0, 55, 40
1, 356034, Note_off_c, 0, 55, 42
1, 356126, Control_c, 0, 64, 100
1, 356155, Note_on_c, 0, 55, 43
1, 356156, Control_c, 0, 64, 99
1, 356171, Control_c, 0, 64, 98
1, 356186, Control_c, 0, 64, 98
1, 356198, Note_off_c, 0, 55, 45
1, 356200, Control_c, 0, 64, 97
1, 356230, Control_c, 0, 64, 97
1, 356245, Control_c, 0, 64, 96
1, 356260, Control_c, 0, 64, 94
1, 356275, Control_c, 0, 64, 91
1, 356290, Control_c, 0, 64, 86
1, 356305, Control_c, 0, 64, 79
1, 356319, Control_c, 0, 64, 73
1, 356325, Note_on_c, 0, 55, 27
1, 356330, Note_on_c, 0, 71, 56
1, 356332, Note_on_c, 0, 67, 55
1, 356334, Control_c, 0, 64, 68
1, 356338, Note_on_c, 0, 62, 46
1, 356349, Control_c, 0, 64, 68
1, 356364, Control_c, 0, 64, 69
1, 356367, Note_off_c, 0, 55, 49
1, 356379, Control_c, 0, 64, 72
1, 356402, Control_c, 0, 64, 77
1, 356417, Control_c, 0, 64, 84
1, 356431, Control_c, 0, 64, 90
1, 356446, Control_c, 0, 64, 94
1, 356461, Control_c, 0, 64, 94
1, 356476, Control_c, 0, 64, 95
1, 356491, Control_c, 0, 64, 95
1, 356503, Note_on_c, 0, 55, 40
1, 356505, Control_c, 0, 64, 97
1, 356516, Note_off_c, 0, 62, 53
1, 356520, Control_c, 0, 64, 99
1, 356535, Control_c, 0, 64, 102
1, 356544, Note_off_c, 0, 55, 46
1, 356546, Note_off_c, 0, 67, 58
1, 356549, Control_c, 0, 64, 104
1, 356551, Note_off_c, 0, 71, 60
1, 356564, Control_c, 0, 64, 105
1, 356624, Control_c, 0, 64, 106
1, 356662, Note_on_c, 0, 55, 41
1, 356713, Note_off_c, 0, 55, 43
1, 356752, Note_on_c, 0, 72, 55
1, 356759, Note_on_c, 0, 64, 38
1, 356761, Note_on_c, 0, 67, 44
1, 356788, Note_off_c, 0, 67, 57
1, 356790, Note_off_c, 0, 64, 52
1, 356794, Note_off_c, 0, 72, 59
1, 356817, Control_c, 0, 64, 105
1, 356832, Control_c, 0, 64, 105
1, 356847, Control_c, 0, 64, 103
1, 356862, Control_c, 0, 64, 100
1, 356876, Control_c, 0, 64, 95
1, 356878, Note_on_c, 0, 67, 61
1, 356890, Note_on_c, 0, 74, 69
1, 356891, Control_c, 0, 64, 87
1, 356901, Note_on_c, 0, 65, 53
1, 356904, Note_on_c, 0, 55, 16
1, 356906, Control_c, 0, 64, 77
1, 356921, Control_c, 0, 64, 67
1, 356936, Control_c, 0, 64, 60
1, 356946, Note_off_c, 0, 55, 50
1, 356950, Control_c, 0, 64, 58
1, 356965, Control_c, 0, 64, 59
1, 356980, Control_c, 0, 64, 63
1, 356988, Note_off_c, 0, 65, 0
1, 356988, Note_on_c, 0, 65, 3
1, 356995, Control_c, 0, 64, 68
1, 357009, Control_c, 0, 64, 74
1, 357024, Control_c, 0, 64, 85
1, 357039, Control_c, 0, 64, 98
1, 357054, Control_c, 0, 64, 109
1, 357067, Note_on_c, 0, 55, 36
1, 357098, Control_c, 0, 64, 110
1, 357113, Control_c, 0, 64, 110
1, 357124, Note_off_c, 0, 65, 41
1, 357125, Note_off_c, 0, 55, 46
1, 357128, Control_c, 0, 64, 111
1, 357135, Note_off_c, 0, 67, 58
1, 357145, Note_off_c, 0, 74, 56
1, 357150, Control_c, 0, 64, 112
1, 357165, Control_c, 0, 64, 113
1, 357181, Control_c, 0, 64, 114
1, 357196, Control_c, 0, 64, 114
1, 357262, Note_on_c, 0, 55, 47
1, 357301, Note_off_c, 0, 55, 57
1, 357388, Control_c, 0, 64, 111
1, 357403, Control_c, 0, 64, 106
1, 357418, Control_c, 0, 64, 100
1, 357426, Note_on_c, 0, 55, 41
1, 357430, Note_on_c, 0, 67, 67
1, 357431, Note_on_c, 0, 74, 74
1, 357433, Control_c, 0, 64, 90
1, 357442, Note_on_c, 0, 65, 55
1, 357446, Control_c, 0, 64, 79
1, 357461, Control_c, 0, 64, 70
1, 357476, Control_c, 0, 64, 70
1, 357491, Control_c, 0, 64, 74
1, 357491, Note_off_c, 0, 55, 50
1, 357506, Control_c, 0, 64, 80
1, 357521, Control_c, 0, 64, 89
1, 357536, Control_c, 0, 64, 96
1, 357551, Control_c, 0, 64, 99
1, 357565, Control_c, 0, 64, 101
1, 357580, Control_c, 0, 64, 102
1, 357595, Control_c, 0, 64, 104
1, 357610, Control_c, 0, 64, 105
1, 357625, Control_c, 0, 64, 107
1, 357627, Note_on_c, 0, 55, 46
1, 357639, Control_c, 0, 64, 110
1, 357652, Note_off_c, 0, 65, 50
1, 357654, Control_c, 0, 64, 114
1, 357655, Note_off_c, 0, 55, 55
1, 357666, Note_off_c, 0, 67, 60
1, 357669, Control_c, 0, 64, 118
1, 357682, Note_off_c, 0, 74, 55
1, 357684, Control_c, 0, 64, 121
1, 357698, Control_c, 0, 64, 123
1, 357713, Control_c, 0, 64, 124
1, 357743, Control_c, 0, 64, 127
1, 357769, Note_on_c, 0, 55, 40
1, 357821, Note_off_c, 0, 55, 54
1, 357898, Control_c, 0, 64, 124
1, 357913, Control_c, 0, 64, 118
1, 357928, Control_c, 0, 64, 112
1, 357943, Control_c, 0, 64, 106
1, 357951, Note_on_c, 0, 74, 68
1, 357952, Note_on_c, 0, 67, 66
1, 357958, Control_c, 0, 64, 99
1, 357967, Note_on_c, 0, 65, 55
1, 357968, Note_on_c, 0, 55, 44
1, 357974, Control_c, 0, 64, 90
1, 357988, Control_c, 0, 64, 81
1, 358003, Control_c, 0, 64, 73
1, 358006, Note_off_c, 0, 55, 48
1, 358018, Control_c, 0, 64, 68
1, 358033, Control_c, 0, 64, 67
1, 358048, Control_c, 0, 64, 69
1, 358063, Control_c, 0, 64, 72
1, 358077, Control_c, 0, 64, 79
1, 358092, Control_c, 0, 64, 88
1, 358107, Control_c, 0, 64, 97
1, 358121, Control_c, 0, 64, 101
1, 358135, Note_on_c, 0, 55, 46
1, 358136, Control_c, 0, 64, 102
1, 358151, Control_c, 0, 64, 103
1, 358166, Control_c, 0, 64, 105
1, 358181, Control_c, 0, 64, 106
1, 358186, Note_off_c, 0, 55, 55
1, 358195, Control_c, 0, 64, 107
1, 358209, Note_off_c, 0, 65, 50
1, 358210, Control_c, 0, 64, 107
1, 358220, Note_off_c, 0, 67, 58
1, 358225, Control_c, 0, 64, 108
1, 358264, Note_off_c, 0, 74, 33
1, 358308, Note_on_c, 0, 55, 45
1, 358336, Note_off_c, 0, 55, 56
1, 358433, Control_c, 0, 64, 107
1, 358447, Control_c, 0, 64, 105
1, 358462, Control_c, 0, 64, 102
1, 358472, Note_on_c, 0, 55, 38
1, 358477, Control_c, 0, 64, 95
1, 358478, Note_on_c, 0, 72, 65
1, 358480, Note_on_c, 0, 64, 60
1, 358481, Note_on_c, 0, 67, 65
1, 358492, Control_c, 0, 64, 89
1, 358507, Control_c, 0, 64, 85
1, 358536, Control_c, 0, 64, 87
1, 358551, Control_c, 0, 64, 90
1, 358557, Note_off_c, 0, 55, 38
1, 358566, Control_c, 0, 64, 95
1, 358581, Control_c, 0, 64, 102
1, 358595, Control_c, 0, 64, 105
1, 358610, Control_c, 0, 64, 106
1, 358625, Control_c, 0, 64, 107
1, 358647, Control_c, 0, 64, 110
1, 358662, Control_c, 0, 64, 113
1, 358674, Note_on_c, 0, 55, 41
1, 358674, Note_off_c, 0, 64, 57
1, 358677, Control_c, 0, 64, 114
1, 358692, Control_c, 0, 64, 117
1, 358707, Control_c, 0, 64, 120
1, 358708, Note_off_c, 0, 55, 51
1, 358710, Note_off_c, 0, 67, 55
1, 358721, Control_c, 0, 64, 127
1, 358722, Note_off_c, 0, 72, 55
1, 358812, Note_on_c, 0, 55, 50
1, 358895, Note_on_c, 0, 74, 72
1, 358901, Note_on_c, 0, 65, 62
1, 358905, Note_on_c, 0, 67, 56
1, 358913, Note_off_c, 0, 55, 31
1, 358943, Note_off_c, 0, 65, 57
1, 358953, Note_off_c, 0, 67, 55
1, 358979, Note_off_c, 0, 74, 56
1, 359092, Control_c, 0, 64, 114
1, 359107, Control_c, 0, 64, 105
1, 359117, Note_on_c, 0, 67, 57
1, 359122, Control_c, 0, 64, 95
1, 359127, Note_on_c, 0, 76, 72
1, 359137, Note_on_c, 0, 55, 35
1, 359137, Control_c, 0, 64, 84
1, 359151, Control_c, 0, 64, 74
1, 359166, Control_c, 0, 64, 67
1, 359181, Control_c, 0, 64, 64
1, 359196, Control_c, 0, 64, 65
1, 359211, Control_c, 0, 64, 68
1, 359226, Control_c, 0, 64, 71
1, 359227, Note_off_c, 0, 55, 33
1, 359241, Control_c, 0, 64, 77
1, 359256, Control_c, 0, 64, 86
1, 359270, Control_c, 0, 64, 96
1, 359285, Control_c, 0, 64, 104
1, 359300, Control_c, 0, 64, 105
1, 359315, Control_c, 0, 64, 106
1, 359330, Control_c, 0, 64, 108
1, 359344, Control_c, 0, 64, 110
1, 359358, Note_on_c, 0, 55, 41
1, 359359, Control_c, 0, 64, 111
1, 359374, Control_c, 0, 64, 113
1, 359396, Note_off_c, 0, 55, 53
1, 359396, Control_c, 0, 64, 114
1, 359411, Control_c, 0, 64, 115
1, 359426, Control_c, 0, 64, 117
1, 359441, Control_c, 0, 64, 117
1, 359456, Control_c, 0, 64, 118
1, 359470, Control_c, 0, 64, 118
1, 359515, Note_on_c, 0, 55, 37
1, 359566, Note_off_c, 0, 55, 50
1, 359587, Note_off_c, 0, 76, 54
1, 359652, Poly_aftertouch_c, 0, 73, 0
1, 359655, Note_off_c, 0, 67, 36
1, 359685, Note_on_c, 0, 55, 54
1, 359769, Note_off_c, 0, 55, 34
1, 359855, Note_on_c, 0, 55, 39
1, 359904, Note_off_c, 0, 55, 45
1, 359918, Note_on_c, 0, 74, 67
1, 359930, Note_on_c, 0, 65, 53
1, 359937, Note_on_c, 0, 67, 54
1, 359980, Note_off_c, 0, 67, 56
1, 359993, Note_off_c, 0, 65, 47
1, 360019, Note_off_c, 0, 74, 50
1, 360036, Note_on_c, 0, 55, 44
1, 360079, Control_c, 0, 64, 117
1, 360093, Control_c, 0, 64, 116
1, 360095, Note_off_c, 0, 55, 43
1, 360108, Control_c, 0, 64, 113
1, 360123, Control_c, 0, 64, 109
1, 360146, Control_c, 0, 64, 105
1, 360161, Control_c, 0, 64, 101
1, 360175, Control_c, 0, 64, 96
1, 360190, Control_c, 0, 64, 88
1, 360205, Control_c, 0, 64, 78
1, 360213, Note_on_c, 0, 72, 62
1, 360216, Note_on_c, 0, 67, 63
1, 360219, Note_on_c, 0, 64, 51
1, 360219, Control_c, 0, 64, 68
1, 360228, Note_on_c, 0, 55, 35
1, 360234, Control_c, 0, 64, 65
1, 360249, Control_c, 0, 64, 66
1, 360264, Control_c, 0, 64, 68
1, 360266, Note_off_c, 0, 55, 52
1, 360279, Control_c, 0, 64, 73
1, 360293, Control_c, 0, 64, 80
1, 360308, Control_c, 0, 64, 90
1, 360323, Control_c, 0, 64, 101
1, 360338, Control_c, 0, 64, 105
1, 360369, Control_c, 0, 64, 106
1, 360384, Control_c, 0, 64, 106
1, 360392, Note_on_c, 0, 55, 36
1, 360398, Control_c, 0, 64, 107
1, 360403, Note_off_c, 0, 64, 52
1, 360413, Control_c, 0, 64, 107
1, 360428, Control_c, 0, 64, 108
1, 360440, Note_off_c, 0, 67, 58
1, 360441, Note_off_c, 0, 72, 54
1, 360454, Note_off_c, 0, 55, 43
1, 360457, Control_c, 0, 64, 109
1, 360472, Control_c, 0, 64, 109
1, 360576, Note_on_c, 0, 55, 35
1, 360618, Note_off_c, 0, 55, 45
1, 360635, Control_c, 0, 64, 109
1, 360650, Control_c, 0, 64, 108
1, 360665, Control_c, 0, 64, 105
1, 360680, Control_c, 0, 64, 101
1, 360695, Control_c, 0, 64, 95
1, 360709, Control_c, 0, 64, 86
1, 360711, Note_on_c, 0, 74, 68
1, 360716, Note_on_c, 0, 65, 59
1, 360719, Note_on_c, 0, 67, 61
1, 360724, Control_c, 0, 64, 75
1, 360730, Note_on_c, 0, 55, 33
1, 360739, Control_c, 0, 64, 70
1, 360754, Control_c, 0, 64, 70
1, 360769, Control_c, 0, 64, 73
1, 360772, Note_off_c, 0, 55, 58
1, 360784, Control_c, 0, 64, 77
1, 360798, Control_c, 0, 64, 83
1, 360813, Control_c, 0, 64, 91
1, 360828, Control_c, 0, 64, 97
1, 360842, Control_c, 0, 64, 99
1, 360857, Control_c, 0, 64, 99
1, 360892, Note_on_c, 0, 55, 47
1, 360895, Control_c, 0, 64, 100
1, 360910, Control_c, 0, 64, 101
1, 360924, Control_c, 0, 64, 101
1, 360926, Note_off_c, 0, 55, 52
1, 360929, Note_off_c, 0, 74, 46
1, 360934, Note_off_c, 0, 67, 53
1, 360935, Note_off_c, 0, 65, 36
1, 360939, Control_c, 0, 64, 102
1, 360954, Control_c, 0, 64, 102
1, 361035, Note_on_c, 0, 55, 46
1, 361098, Note_off_c, 0, 55, 48
1, 361116, Note_on_c, 0, 64, 58
1, 361125, Note_on_c, 0, 72, 55
1, 361141, Note_on_c, 0, 67, 49
1, 361157, Note_off_c, 0, 64, 59
1, 361174, Note_off_c, 0, 67, 51
1, 361177, Control_c, 0, 64, 101
1, 361191, Control_c, 0, 64, 98
1, 361204, Note_off_c, 0, 72, 50
1, 361206, Control_c, 0, 64, 94
1, 361220, Control_c, 0, 64, 86
1, 361235, Note_on_c, 0, 55, 45
1, 361235, Control_c, 0, 64, 76
1, 361248, Note_on_c, 0, 62, 66
1, 361249, Note_on_c, 0, 67, 56
1, 361250, Control_c, 0, 64, 65
1, 361263, Note_on_c, 0, 71, 61
1, 361265, Control_c, 0, 64, 63
1, 361280, Control_c, 0, 64, 64
1, 361282, Note_off_c, 0, 55, 56
1, 361295, Control_c, 0, 64, 67
1, 361310, Control_c, 0, 64, 70
1, 361325, Control_c, 0, 64, 75
1, 361339, Control_c, 0, 64, 84
1, 361354, Control_c, 0, 64, 93
1, 361369, Control_c, 0, 64, 99
1, 361384, Control_c, 0, 64, 100
1, 361417, Note_on_c, 0, 55, 48
1, 361447, Note_off_c, 0, 71, 58
1, 361459, Note_off_c, 0, 55, 53
1, 361462, Note_off_c, 0, 62, 46
1, 361477, Note_off_c, 0, 67, 56
1, 361573, Note_on_c, 0, 55, 50
1, 361617, Note_off_c, 0, 55, 57
1, 361717, Control_c, 0, 64, 100
1, 361732, Control_c, 0, 64, 98
1, 361746, Control_c, 0, 64, 92
1, 361755, Note_on_c, 0, 67, 64
1, 361756, Note_on_c, 0, 60, 61
1, 361758, Note_on_c, 0, 69, 68
1, 361761, Note_on_c, 0, 55, 43
1, 361761, Control_c, 0, 64, 80
1, 361776, Control_c, 0, 64, 73
1, 361790, Control_c, 0, 64, 71
1, 361804, Note_off_c, 0, 55, 54
1, 361805, Control_c, 0, 64, 73
1, 361820, Control_c, 0, 64, 77
1, 361835, Control_c, 0, 64, 84
1, 361850, Control_c, 0, 64, 91
1, 361864, Control_c, 0, 64, 97
1, 361879, Control_c, 0, 64, 98
1, 361924, Control_c, 0, 64, 99
1, 361926, Note_on_c, 0, 55, 55
1, 361939, Control_c, 0, 64, 99
1, 361940, Note_off_c, 0, 60, 54
1, 361954, Control_c, 0, 64, 101
1, 361967, Note_off_c, 0, 55, 57
1, 361969, Control_c, 0, 64, 101
1, 361973, Note_off_c, 0, 67, 53
1, 361984, Control_c, 0, 64, 102
1, 361989, Note_off_c, 0, 69, 55
1, 361999, Control_c, 0, 64, 102
1, 362077, Note_on_c, 0, 53, 61
1, 362098, Note_on_c, 0, 55, 46
1, 362127, Note_off_c, 0, 55, 54
1, 362153, Note_on_c, 0, 62, 62
1, 362153, Note_on_c, 0, 67, 60
1, 362158, Note_on_c, 0, 71, 60
1, 362176, Note_off_c, 0, 62, 61
1, 362191, Note_off_c, 0, 71, 63
1, 362192, Control_c, 0, 64, 102
1, 362195, Note_off_c, 0, 67, 56
1, 362206, Control_c, 0, 64, 101
1, 362221, Control_c, 0, 64, 99
1, 362236, Control_c, 0, 64, 96
1, 362251, Control_c, 0, 64, 91
1, 362266, Control_c, 0, 64, 82
1, 362267, Note_on_c, 0, 52, 59
1, 362269, Note_on_c, 0, 55, 39
1, 362272, Note_on_c, 0, 72, 74
1, 362280, Note_on_c, 0, 67, 56
1, 362280, Control_c, 0, 64, 72
1, 362290, Note_off_c, 0, 53, 43
1, 362292, Note_on_c, 0, 64, 52
1, 362295, Control_c, 0, 64, 63
1, 362310, Control_c, 0, 64, 59
1, 362320, Note_off_c, 0, 55, 59
1, 362340, Control_c, 0, 64, 61
1, 362354, Control_c, 0, 64, 65
1, 362369, Control_c, 0, 64, 69
1, 362392, Control_c, 0, 64, 74
1, 362407, Control_c, 0, 64, 82
1, 362421, Control_c, 0, 64, 91
1, 362436, Control_c, 0, 64, 98
1, 362445, Note_on_c, 0, 55, 48
1, 362451, Control_c, 0, 64, 99
1, 362458, Note_off_c, 0, 52, 0
1, 362458, Note_on_c, 0, 52, 3
1, 362481, Control_c, 0, 64, 100
1, 362495, Control_c, 0, 64, 102
1, 362496, Note_off_c, 0, 64, 55
1, 362496, Note_off_c, 0, 55, 53
1, 362510, Control_c, 0, 64, 103
1, 362521, Note_off_c, 0, 67, 60
1, 362525, Control_c, 0, 64, 105
1, 362535, Note_off_c, 0, 72, 59
1, 362540, Control_c, 0, 64, 105
1, 362555, Control_c, 0, 64, 106
1, 362622, Note_on_c, 0, 55, 56
1, 362654, Note_off_c, 0, 55, 53
1, 362667, Note_off_c, 0, 52, 41
1, 362717, Control_c, 0, 64, 105
1, 362732, Control_c, 0, 64, 103
1, 362746, Control_c, 0, 64, 100
1, 362762, Control_c, 0, 64, 95
1, 362777, Control_c, 0, 64, 87
1, 362783, Note_on_c, 0, 71, 70
1, 362786, Note_on_c, 0, 74, 71
1, 362788, Note_on_c, 0, 67, 63
1, 362791, Note_on_c, 0, 55, 38
1, 362791, Control_c, 0, 64, 78
1, 362806, Control_c, 0, 64, 70
1, 362812, Note_on_c, 0, 48, 42
1, 362821, Control_c, 0, 64, 64
1, 362836, Control_c, 0, 64, 63
1, 362865, Note_off_c, 0, 55, 50
1, 362866, Control_c, 0, 64, 66
1, 362881, Control_c, 0, 64, 69
1, 362895, Control_c, 0, 64, 73
1, 362910, Control_c, 0, 64, 79
1, 362925, Control_c, 0, 64, 86
1, 362940, Control_c, 0, 64, 93
1, 362955, Control_c, 0, 64, 96
1, 362970, Control_c, 0, 64, 97
1, 362974, Note_on_c, 0, 55, 48
1, 362984, Control_c, 0, 64, 98
1, 362999, Control_c, 0, 64, 100
1, 363007, Note_off_c, 0, 55, 52
1, 363009, Note_off_c, 0, 67, 52
1, 363014, Control_c, 0, 64, 104
1, 363028, Control_c, 0, 64, 108
1, 363043, Control_c, 0, 64, 111
1, 363058, Control_c, 0, 64, 114
1, 363073, Control_c, 0, 64, 116
1, 363088, Control_c, 0, 64, 118
1, 363102, Control_c, 0, 64, 120
1, 363107, Note_on_c, 0, 55, 53
1, 363117, Control_c, 0, 64, 121
1, 363140, Control_c, 0, 64, 123
1, 363155, Control_c, 0, 64, 127
1, 363170, Note_off_c, 0, 55, 53
1, 363179, Note_off_c, 0, 48, 56
1, 363183, Note_on_c, 0, 76, 63
1, 363187, Note_on_c, 0, 67, 48
1, 363196, Note_on_c, 0, 72, 57
1, 363232, Note_off_c, 0, 72, 62
1, 363234, Note_off_c, 0, 74, 27
1, 363236, Note_off_c, 0, 67, 53
1, 363244, Note_off_c, 0, 71, 40
1, 363273, Control_c, 0, 64, 122
1, 363288, Note_off_c, 0, 76, 34
1, 363288, Control_c, 0, 64, 114
1, 363303, Control_c, 0, 64, 106
1, 363317, Control_c, 0, 64, 97
1, 363332, Control_c, 0, 64, 86
1, 363346, Note_on_c, 0, 43, 50
1, 363347, Control_c, 0, 64, 74
1, 363349, Note_on_c, 0, 74, 70
1, 363352, Note_on_c, 0, 67, 55
1, 363353, Note_on_c, 0, 55, 35
1, 363353, Note_on_c, 0, 71, 58
1, 363361, Control_c, 0, 64, 65
1, 363376, Control_c, 0, 64, 61
1, 363391, Control_c, 0, 64, 60
1, 363405, Note_off_c, 0, 55, 58
1, 363406, Control_c, 0, 64, 62
1, 363421, Control_c, 0, 64, 65
1, 363435, Control_c, 0, 64, 67
1, 363450, Control_c, 0, 64, 71
1, 363465, Control_c, 0, 64, 77
1, 363480, Control_c, 0, 64, 87
1, 363495, Control_c, 0, 64, 98
1, 363510, Control_c, 0, 64, 100
1, 363515, Note_on_c, 0, 55, 55
1, 363555, Control_c, 0, 64, 101
1, 363570, Control_c, 0, 64, 102
1, 363577, Note_off_c, 0, 55, 46
1, 363585, Control_c, 0, 64, 103
1, 363600, Control_c, 0, 64, 104
1, 363614, Control_c, 0, 64, 105
1, 363673, Control_c, 0, 64, 105
1, 363691, Note_on_c, 0, 55, 40
1, 363726, Note_off_c, 0, 55, 50
1, 363763, Control_c, 0, 64, 106
1, 363842, Note_on_c, 0, 55, 42
1, 363866, Control_c, 0, 64, 106
1, 363891, Note_off_c, 0, 55, 54
1, 363903, Control_c, 0, 64, 107
1, 363908, Note_off_c, 0, 43, 32
1, 363918, Control_c, 0, 64, 107
1, 363919, Note_off_c, 0, 67, 35
1, 363930, Note_off_c, 0, 71, 54
1, 363944, Note_off_c, 0, 74, 51
1, 363948, Control_c, 0, 64, 108
1, 364007, Note_on_c, 0, 55, 44
1, 364047, Note_off_c, 0, 55, 47
1, 364157, Note_on_c, 0, 55, 47
1, 364211, Note_off_c, 0, 55, 52
1, 364323, Note_on_c, 0, 55, 40
1, 364374, Note_off_c, 0, 55, 45
1, 364483, Note_on_c, 0, 55, 48
1, 364535, Note_off_c, 0, 55, 52
1, 364663, Note_on_c, 0, 55, 48
1, 364691, Note_off_c, 0, 55, 54
1, 364756, Control_c, 0, 64, 107
1, 364770, Control_c, 0, 64, 106
1, 364785, Control_c, 0, 64, 104
1, 364800, Control_c, 0, 64, 100
1, 364815, Control_c, 0, 64, 89
1, 364816, Note_on_c, 0, 55, 42
1, 364821, Note_on_c, 0, 71, 61
1, 364825, Note_on_c, 0, 67, 58
1, 364826, Note_on_c, 0, 59, 51
1, 364830, Control_c, 0, 64, 79
1, 364845, Control_c, 0, 64, 73
1, 364860, Control_c, 0, 64, 72
1, 364875, Control_c, 0, 64, 74
1, 364875, Note_off_c, 0, 55, 56
1, 364889, Control_c, 0, 64, 77
1, 364904, Control_c, 0, 64, 82
1, 364919, Control_c, 0, 64, 90
1, 364934, Control_c, 0, 64, 96
1, 364949, Control_c, 0, 64, 99
1, 364963, Control_c, 0, 64, 100
1, 364973, Note_off_c, 0, 59, 57
1, 364997, Note_on_c, 0, 55, 54
1, 365007, Control_c, 0, 64, 101
1, 365013, Note_off_c, 0, 67, 59
1, 365014, Note_off_c, 0, 71, 59
1, 365024, Note_off_c, 0, 55, 57
1, 365037, Control_c, 0, 64, 101
1, 365052, Control_c, 0, 64, 102
1, 365128, Note_on_c, 0, 55, 52
1, 365213, Note_on_c, 0, 72, 66
1, 365215, Note_on_c, 0, 60, 58
1, 365229, Note_off_c, 0, 55, 35
1, 365230, Note_on_c, 0, 69, 52
1, 365236, Note_off_c, 0, 60, 59
1, 365250, Note_off_c, 0, 69, 63
1, 365257, Note_off_c, 0, 72, 58
1, 365260, Control_c, 0, 64, 101
1, 365275, Control_c, 0, 64, 100
1, 365290, Control_c, 0, 64, 98
1, 365304, Control_c, 0, 64, 92
1, 365319, Control_c, 0, 64, 79
1, 365327, Note_on_c, 0, 74, 71
1, 365331, Note_on_c, 0, 71, 66
1, 365331, Note_on_c, 0, 62, 67
1, 365334, Control_c, 0, 64, 68
1, 365336, Note_on_c, 0, 55, 55
1, 365349, Control_c, 0, 64, 65
1, 365364, Control_c, 0, 64, 66
1, 365385, Note_off_c, 0, 55, 53
1, 365386, Control_c, 0, 64, 68
1, 365401, Control_c, 0, 64, 73
1, 365416, Control_c, 0, 64, 81
1, 365430, Control_c, 0, 64, 95
1, 365445, Control_c, 0, 64, 106
1, 365460, Control_c, 0, 64, 109
1, 365475, Control_c, 0, 64, 109
1, 365490, Control_c, 0, 64, 110
1, 365496, Note_on_c, 0, 55, 61
1, 365504, Control_c, 0, 64, 111
1, 365519, Control_c, 0, 64, 114
1, 365534, Control_c, 0, 64, 119
1, 365548, Note_off_c, 0, 55, 52
1, 365549, Control_c, 0, 64, 127
1, 365657, Note_on_c, 0, 55, 63
1, 365684, Note_off_c, 0, 71, 35
1, 365696, Note_off_c, 0, 62, 33
1, 365700, Note_off_c, 0, 55, 53
1, 365705, Note_off_c, 0, 74, 36
1, 365801, Control_c, 0, 64, 110
1, 365816, Control_c, 0, 64, 93
1, 365823, Note_on_c, 0, 71, 76
1, 365823, Note_on_c, 0, 62, 78
1, 365827, Note_on_c, 0, 74, 78
1, 365831, Control_c, 0, 64, 78
1, 365833, Note_on_c, 0, 54, 67
1, 365833, Note_on_c, 0, 55, 57
1, 365846, Control_c, 0, 64, 67
1, 365861, Control_c, 0, 64, 66
1, 365876, Note_off_c, 0, 55, 55
1, 365876, Control_c, 0, 64, 67
1, 365880, Note_off_c, 0, 54, 55
1, 365891, Control_c, 0, 64, 70
1, 365905, Control_c, 0, 64, 77
1, 365920, Control_c, 0, 64, 88
1, 365935, Control_c, 0, 64, 104
1, 365951, Control_c, 0, 64, 112
1, 365966, Control_c, 0, 64, 113
1, 365980, Control_c, 0, 64, 119
1, 365993, Note_on_c, 0, 54, 75
1, 365995, Control_c, 0, 64, 127
1, 366000, Note_on_c, 0, 55, 59
1, 366049, Note_off_c, 0, 55, 50
1, 366062, Note_off_c, 0, 54, 56
1, 366130, Note_on_c, 0, 54, 51
1, 366145, Note_on_c, 0, 55, 53
1, 366175, Note_off_c, 0, 71, 35
1, 366203, Note_off_c, 0, 62, 33
1, 366207, Note_off_c, 0, 54, 57
1, 366207, Note_off_c, 0, 74, 36
1, 366221, Note_off_c, 0, 55, 37
1, 366314, Control_c, 0, 64, 108
1, 366328, Note_on_c, 0, 71, 76
1, 366328, Control_c, 0, 64, 86
1, 366329, Note_on_c, 0, 55, 70
1, 366329, Note_on_c, 0, 62, 81
1, 366333, Note_on_c, 0, 52, 69
1, 366336, Note_on_c, 0, 74, 76
1, 366343, Control_c, 0, 64, 68
1, 366358, Control_c, 0, 64, 64
1, 366373, Control_c, 0, 64, 65
1, 366387, Control_c, 0, 64, 68
1, 366401, Note_off_c, 0, 52, 58
1, 366402, Control_c, 0, 64, 74
1, 366412, Note_off_c, 0, 55, 50
1, 366417, Control_c, 0, 64, 85
1, 366433, Control_c, 0, 64, 102
1, 366448, Control_c, 0, 64, 122
1, 366462, Control_c, 0, 64, 123
1, 366506, Note_off_c, 0, 62, 54
1, 366526, Note_off_c, 0, 74, 50
1, 366531, Note_off_c, 0, 71, 55
1, 366566, Control_c, 0, 64, 118
1, 366580, Control_c, 0, 64, 107
1, 366595, Note_on_c, 0, 71, 66
1, 366595, Control_c, 0, 64, 91
1, 366599, Note_on_c, 0, 53, 76
1, 366604, Note_on_c, 0, 62, 78
1, 366605, Note_on_c, 0, 74, 76
1, 366606, Note_on_c, 0, 55, 55
1, 366610, Control_c, 0, 64, 77
1, 366625, Control_c, 0, 64, 70
1, 366640, Control_c, 0, 64, 71
1, 366654, Control_c, 0, 64, 77
1, 366669, Control_c, 0, 64, 87
1, 366684, Control_c, 0, 64, 101
1, 366690, Note_off_c, 0, 55, 36
1, 366695, Note_off_c, 0, 53, 48
1, 366699, Control_c, 0, 64, 112
1, 366714, Control_c, 0, 64, 114
1, 366770, Note_on_c, 0, 52, 70
1, 366775, Note_on_c, 0, 55, 58
1, 366789, Control_c, 0, 64, 115
1, 366838, Note_off_c, 0, 52, 53
1, 366847, Note_off_c, 0, 62, 56
1, 366861, Note_off_c, 0, 55, 36
1, 366863, Control_c, 0, 64, 115
1, 366887, Note_off_c, 0, 71, 61
1, 366893, Note_off_c, 0, 74, 54
1, 366915, Control_c, 0, 64, 116
1, 366934, Note_on_c, 0, 55, 71
1, 366935, Note_on_c, 0, 50, 72
1, 366991, Note_off_c, 0, 50, 56
1, 366999, Note_off_c, 0, 55, 56
1, 367048, Control_c, 0, 64, 113
1, 367063, Control_c, 0, 64, 102
1, 367078, Control_c, 0, 64, 89
1, 367093, Note_on_c, 0, 72, 78
1, 367093, Control_c, 0, 64, 79
1, 367094, Note_on_c, 0, 48, 71
1, 367094, Note_on_c, 0, 64, 79
1, 367096, Note_on_c, 0, 76, 84
1, 367107, Note_on_c, 0, 55, 64
1, 367107, Control_c, 0, 64, 75
1, 367122, Control_c, 0, 64, 77
1, 367137, Control_c, 0, 64, 81
1, 367152, Control_c, 0, 64, 88
1, 367158, Note_off_c, 0, 48, 60
1, 367160, Note_off_c, 0, 55, 57
1, 367167, Control_c, 0, 64, 96
1, 367182, Control_c, 0, 64, 101
1, 367197, Control_c, 0, 64, 103
1, 367211, Control_c, 0, 64, 104
1, 367226, Note_off_c, 0, 64, 59
1, 367239, Note_off_c, 0, 72, 62
1, 367256, Control_c, 0, 64, 105
1, 367259, Note_on_c, 0, 47, 76
1, 367260, Note_off_c, 0, 76, 61
1, 367262, Note_on_c, 0, 55, 72
1, 367271, Control_c, 0, 64, 106
1, 367285, Control_c, 0, 64, 108
1, 367300, Control_c, 0, 64, 109
1, 367308, Note_off_c, 0, 55, 56
1, 367315, Note_off_c, 0, 47, 59
1, 367329, Control_c, 0, 64, 110
1, 367344, Control_c, 0, 64, 110
1, 367359, Control_c, 0, 64, 111
1, 367374, Control_c, 0, 64, 113
1, 367389, Control_c, 0, 64, 113
1, 367403, Control_c, 0, 64, 114
1, 367412, Note_on_c, 0, 46, 71
1, 367431, Note_on_c, 0, 55, 55
1, 367433, Control_c, 0, 64, 115
1, 367448, Control_c, 0, 64, 115
1, 367459, Note_off_c, 0, 55, 56
1, 367461, Note_off_c, 0, 46, 52
1, 367463, Control_c, 0, 64, 116
1, 367477, Control_c, 0, 64, 117
1, 367492, Note_on_c, 0, 65, 75
1, 367495, Note_on_c, 0, 74, 73
1, 367497, Note_on_c, 0, 77, 77
1, 367507, Control_c, 0, 64, 118
1, 367530, Note_off_c, 0, 65, 53
1, 367560, Note_off_c, 0, 74, 49
1, 367561, Note_off_c, 0, 77, 60
1, 367738, Control_c, 0, 64, 116
1, 367752, Control_c, 0, 64, 112
1, 367767, Control_c, 0, 64, 103
1, 367781, Note_on_c, 0, 55, 58
1, 367782, Control_c, 0, 64, 87
1, 367797, Control_c, 0, 64, 75
1, 367799, Note_on_c, 0, 71, 62
1, 367802, Note_on_c, 0, 62, 73
1, 367802, Note_on_c, 0, 74, 75
1, 367812, Control_c, 0, 64, 70
1, 367826, Control_c, 0, 64, 70
1, 367841, Control_c, 0, 64, 74
1, 367850, Note_off_c, 0, 55, 47
1, 367856, Control_c, 0, 64, 78
1, 367871, Control_c, 0, 64, 85
1, 367886, Control_c, 0, 64, 95
1, 367900, Control_c, 0, 64, 102
1, 367915, Control_c, 0, 64, 106
1, 367930, Control_c, 0, 64, 106
1, 367968, Note_on_c, 0, 55, 51
1, 367989, Control_c, 0, 64, 107
1, 367997, Note_off_c, 0, 55, 54
1, 368074, Note_off_c, 0, 62, 48
1, 368085, Note_off_c, 0, 71, 53
1, 368091, Note_off_c, 0, 74, 36
1, 368108, Note_on_c, 0, 55, 62
1, 368158, Note_off_c, 0, 55, 54
1, 368225, Control_c, 0, 64, 106
1, 368240, Control_c, 0, 64, 105
1, 368255, Control_c, 0, 64, 100
1, 368270, Control_c, 0, 64, 89
1, 368285, Control_c, 0, 64, 73
1, 368296, Note_on_c, 0, 71, 62
1, 368296, Note_on_c, 0, 74, 76
1, 368297, Note_on_c, 0, 62, 64
1, 368300, Control_c, 0, 64, 62
1, 368301, Note_on_c, 0, 54, 66
1, 368310, Note_on_c, 0, 55, 47
1, 368315, Control_c, 0, 64, 58
1, 368344, Note_off_c, 0, 55, 60
1, 368345, Control_c, 0, 64, 61
1, 368350, Note_off_c, 0, 54, 55
1, 368360, Control_c, 0, 64, 66
1, 368382, Control_c, 0, 64, 71
1, 368397, Control_c, 0, 64, 80
1, 368412, Control_c, 0, 64, 92
1, 368427, Control_c, 0, 64, 104
1, 368442, Control_c, 0, 64, 107
1, 368462, Note_on_c, 0, 54, 74
1, 368477, Note_on_c, 0, 55, 48
1, 368503, Note_off_c, 0, 55, 57
1, 368508, Note_off_c, 0, 54, 56
1, 368516, Control_c, 0, 64, 108
1, 368530, Control_c, 0, 64, 108
1, 368560, Control_c, 0, 64, 109
1, 368571, Note_off_c, 0, 71, 35
1, 368613, Note_on_c, 0, 55, 47
1, 368613, Note_off_c, 0, 62, 32
1, 368616, Note_on_c, 0, 54, 66
1, 368620, Note_off_c, 0, 74, 34
1, 368650, Note_off_c, 0, 54, 58
1, 368658, Note_off_c, 0, 55, 55
1, 368723, Control_c, 0, 64, 108
1, 368738, Control_c, 0, 64, 105
1, 368753, Control_c, 0, 64, 99
1, 368768, Control_c, 0, 64, 89
1, 368782, Control_c, 0, 64, 77
1, 368786, Note_on_c, 0, 55, 57
1, 368787, Note_on_c, 0, 62, 76
1, 368788, Note_on_c, 0, 71, 71
1, 368791, Note_on_c, 0, 74, 78
1, 368797, Note_on_c, 0, 53, 65
1, 368797, Control_c, 0, 64, 65
1, 368812, Control_c, 0, 64, 64
1, 368827, Control_c, 0, 64, 65
1, 368840, Note_off_c, 0, 55, 53
1, 368842, Control_c, 0, 64, 67
1, 368851, Note_off_c, 0, 53, 49
1, 368856, Control_c, 0, 64, 71
1, 368871, Control_c, 0, 64, 77
1, 368886, Control_c, 0, 64, 85
1, 368900, Control_c, 0, 64, 94
1, 368915, Control_c, 0, 64, 97
1, 368930, Control_c, 0, 64, 98
1, 368959, Note_on_c, 0, 53, 69
1, 368966, Note_on_c, 0, 55, 58
1, 368974, Control_c, 0, 64, 99
1, 369004, Control_c, 0, 64, 100
1, 369007, Note_off_c, 0, 55, 53
1, 369019, Control_c, 0, 64, 100
1, 369028, Note_off_c, 0, 53, 53
1, 369034, Control_c, 0, 64, 101
1, 369062, Note_off_c, 0, 62, 57
1, 369063, Control_c, 0, 64, 101
1, 369081, Note_off_c, 0, 71, 60
1, 369097, Note_off_c, 0, 74, 51
1, 369105, Note_on_c, 0, 53, 64
1, 369128, Note_on_c, 0, 55, 61
1, 369165, Note_off_c, 0, 55, 57
1, 369185, Note_off_c, 0, 53, 47
1, 369235, Control_c, 0, 64, 100
1, 369250, Control_c, 0, 64, 98
1, 369265, Control_c, 0, 64, 90
1, 369279, Control_c, 0, 64, 77
1, 369283, Note_on_c, 0, 55, 49
1, 369288, Note_on_c, 0, 52, 64
1, 369288, Note_on_c, 0, 64, 78
1, 369290, Note_on_c, 0, 72, 76
1, 369292, Note_on_c, 0, 76, 82
1, 369294, Control_c, 0, 64, 66
1, 369309, Control_c, 0, 64, 63
1, 369323, Control_c, 0, 64, 64
1, 369337, Note_off_c, 0, 52, 56
1, 369338, Control_c, 0, 64, 68
1, 369345, Note_off_c, 0, 55, 56
1, 369353, Control_c, 0, 64, 72
1, 369368, Control_c, 0, 64, 80
1, 369383, Control_c, 0, 64, 91
1, 369397, Control_c, 0, 64, 100
1, 369412, Control_c, 0, 64, 102
1, 369427, Control_c, 0, 64, 103
1, 369445, Note_off_c, 0, 64, 58
1, 369449, Note_on_c, 0, 52, 73
1, 369466, Note_on_c, 0, 55, 61
1, 369466, Note_off_c, 0, 72, 62
1, 369474, Note_off_c, 0, 76, 58
1, 369486, Control_c, 0, 64, 104
1, 369501, Control_c, 0, 64, 104
1, 369516, Control_c, 0, 64, 105
1, 369543, Note_off_c, 0, 55, 37
1, 369546, Control_c, 0, 64, 105
1, 369603, Note_off_c, 0, 52, 34
1, 369606, Note_on_c, 0, 53, 69
1, 369607, Note_on_c, 0, 55, 60
1, 369611, Note_on_c, 0, 50, 64
1, 369698, Note_on_c, 0, 74, 80
1, 369701, Note_on_c, 0, 77, 72
1, 369704, Note_on_c, 0, 65, 61
1, 369704, Note_off_c, 0, 55, 35
1, 369709, Control_c, 0, 64, 105
1, 369710, Note_on_c, 0, 64, 53
1, 369723, Note_off_c, 0, 65, 64
1, 369723, Control_c, 0, 64, 104
1, 369729, Note_off_c, 0, 74, 60
1, 369732, Note_off_c, 0, 50, 35
1, 369734, Note_off_c, 0, 64, 58
1, 369738, Control_c, 0, 64, 103
1, 369742, Note_off_c, 0, 77, 57
1, 369753, Control_c, 0, 64, 102
1, 369768, Control_c, 0, 64, 100
1, 369783, Control_c, 0, 64, 98
1, 369797, Control_c, 0, 64, 94
1, 369798, Poly_aftertouch_c, 0, 76, 0
1, 369811, Note_off_c, 0, 53, 38
1, 369812, Control_c, 0, 64, 84
1, 369814, Note_on_c, 0, 76, 56
1, 369817, Note_on_c, 0, 79, 87
1, 369818, Note_on_c, 0, 67, 91
1, 369823, Note_on_c, 0, 48, 61
1, 369824, Note_on_c, 0, 55, 62
1, 369827, Control_c, 0, 64, 70
1, 369830, Note_on_c, 0, 52, 61
1, 369842, Control_c, 0, 64, 60
1, 369857, Control_c, 0, 64, 57
1, 369879, Control_c, 0, 64, 57
1, 369892, Note_off_c, 0, 55, 54
1, 369894, Control_c, 0, 64, 61
1, 369895, Note_off_c, 0, 48, 56
1, 369902, Note_off_c, 0, 52, 50
1, 369909, Control_c, 0, 64, 65
1, 369923, Control_c, 0, 64, 70
1, 369938, Control_c, 0, 64, 76
1, 369954, Control_c, 0, 64, 85
1, 369969, Control_c, 0, 64, 96
1, 369984, Control_c, 0, 64, 104
1, 369999, Control_c, 0, 64, 107
1, 370012, Note_on_c, 0, 52, 60
1, 370014, Control_c, 0, 64, 111
1, 370017, Note_on_c, 0, 55, 54
1, 370026, Note_on_c, 0, 48, 42
1, 370028, Control_c, 0, 64, 122
1, 370043, Note_off_c, 0, 55, 58
1, 370043, Control_c, 0, 64, 127
1, 370052, Note_off_c, 0, 52, 55
1, 370053, Note_off_c, 0, 48, 57
1, 370139, Note_on_c, 0, 55, 54
1, 370146, Note_on_c, 0, 48, 46
1, 370156, Note_on_c, 0, 52, 66
1, 370157, Note_off_c, 0, 67, 58
1, 370172, Note_off_c, 0, 55, 62
1, 370177, Note_off_c, 0, 48, 55
1, 370187, Note_off_c, 0, 52, 63
1, 370187, Note_off_c, 0, 79, 48
1, 370310, Control_c, 0, 64, 109
1, 370317, Note_on_c, 0, 77, 79
1, 370319, Note_on_c, 0, 74, 84
1, 370322, Note_on_c, 0, 71, 73
1, 370324, Note_off_c, 0, 76, 37
1, 370325, Control_c, 0, 64, 89
1, 370331, Note_on_c, 0, 50, 57
1, 370334, Note_on_c, 0, 53, 55
1, 370336, Note_on_c, 0, 44, 50
1, 370340, Control_c, 0, 64, 69
1, 370354, Control_c, 0, 64, 59
1, 370369, Control_c, 0, 64, 58
1, 370380, Note_off_c, 0, 53, 58
1, 370384, Control_c, 0, 64, 62
1, 370386, Note_off_c, 0, 44, 59
1, 370390, Note_off_c, 0, 50, 57
1, 370399, Control_c, 0, 64, 66
1, 370414, Control_c, 0, 64, 72
1, 370428, Control_c, 0, 64, 83
1, 370443, Control_c, 0, 64, 98
1, 370458, Control_c, 0, 64, 113
1, 370473, Control_c, 0, 64, 118
1, 370484, Note_on_c, 0, 53, 58
1, 370494, Note_on_c, 0, 50, 52
1, 370495, Note_on_c, 0, 44, 56
1, 370503, Control_c, 0, 64, 120
1, 370518, Control_c, 0, 64, 121
1, 370533, Note_off_c, 0, 53, 53
1, 370539, Note_off_c, 0, 44, 60
1, 370552, Note_off_c, 0, 50, 52
1, 370574, Note_off_c, 0, 71, 59
1, 370577, Control_c, 0, 64, 122
1, 370643, Note_on_c, 0, 44, 59
1, 370658, Note_on_c, 0, 50, 40
1, 370669, Note_on_c, 0, 53, 53
1, 370702, Control_c, 0, 64, 121
1, 370704, Note_off_c, 0, 44, 54
1, 370705, Note_off_c, 0, 50, 59
1, 370709, Note_off_c, 0, 53, 48
1, 370717, Control_c, 0, 64, 119
1, 370732, Control_c, 0, 64, 118
1, 370748, Control_c, 0, 64, 114
1, 370763, Control_c, 0, 64, 110
1, 370777, Control_c, 0, 64, 104
1, 370792, Control_c, 0, 64, 94
1, 370807, Control_c, 0, 64, 81
1, 370810, Note_on_c, 0, 76, 80
1, 370818, Note_on_c, 0, 72, 72
1, 370822, Control_c, 0, 64, 68
1, 370826, Note_on_c, 0, 45, 52
1, 370828, Note_on_c, 0, 52, 55
1, 370834, Note_off_c, 0, 74, 52
1, 370836, Note_on_c, 0, 48, 49
1, 370837, Control_c, 0, 64, 59
1, 370852, Control_c, 0, 64, 56
1, 370858, Note_off_c, 0, 77, 53
1, 370866, Control_c, 0, 64, 57
1, 370872, Note_off_c, 0, 45, 58
1, 370872, Note_off_c, 0, 52, 58
1, 370881, Control_c, 0, 64, 62
1, 370886, Note_off_c, 0, 48, 56
1, 370896, Control_c, 0, 64, 69
1, 370911, Control_c, 0, 64, 77
1, 370926, Control_c, 0, 64, 92
1, 370941, Control_c, 0, 64, 127
1, 370968, Note_off_c, 0, 72, 53
1, 370991, Note_off_c, 0, 76, 62
1, 371001, Note_on_c, 0, 45, 41
1, 371004, Note_on_c, 0, 52, 42
1, 371005, Note_on_c, 0, 48, 55
1, 371032, Note_off_c, 0, 52, 55
1, 371049, Note_off_c, 0, 45, 45
1, 371054, Note_off_c, 0, 48, 57
1, 371141, Note_on_c, 0, 52, 38
1, 371165, Note_on_c, 0, 48, 47
1, 371171, Note_off_c, 0, 52, 53
1, 371194, Note_off_c, 0, 48, 57
1, 371311, Control_c, 0, 64, 100
1, 371314, Note_on_c, 0, 41, 55
1, 371314, Note_on_c, 0, 77, 74
1, 371325, Note_on_c, 0, 69, 68
1, 371325, Control_c, 0, 64, 82
1, 371340, Control_c, 0, 64, 68
1, 371355, Control_c, 0, 64, 60
1, 371373, Note_off_c, 0, 41, 60
1, 371377, Control_c, 0, 64, 61
1, 371392, Control_c, 0, 64, 65
1, 371407, Control_c, 0, 64, 70
1, 371422, Control_c, 0, 64, 79
1, 371437, Control_c, 0, 64, 95
1, 371451, Control_c, 0, 64, 122
1, 371466, Control_c, 0, 64, 127
1, 371507, Note_on_c, 0, 53, 62
1, 371514, Note_off_c, 0, 77, 54
1, 371519, Note_on_c, 0, 57, 45
1, 371554, Note_off_c, 0, 57, 61
1, 371561, Note_off_c, 0, 53, 50
1, 371581, Note_off_c, 0, 69, 35
1, 371662, Note_on_c, 0, 57, 37
1, 371675, Note_on_c, 0, 53, 58
1, 371709, Note_off_c, 0, 53, 63
1, 371710, Note_off_c, 0, 57, 62
1, 371740, Note_on_c, 0, 65, 53
1, 371740, Note_on_c, 0, 74, 60
1, 371755, Note_on_c, 0, 69, 46
1, 371773, Note_off_c, 0, 65, 59
1, 371775, Note_off_c, 0, 74, 62
1, 371776, Note_off_c, 0, 69, 61
1, 371881, Control_c, 0, 64, 111
1, 371896, Control_c, 0, 64, 98
1, 371902, Note_on_c, 0, 43, 48
1, 371911, Control_c, 0, 64, 83
1, 371921, Note_on_c, 0, 71, 58
1, 371925, Note_on_c, 0, 67, 55
1, 371925, Note_on_c, 0, 62, 52
1, 371925, Control_c, 0, 64, 68
1, 371940, Control_c, 0, 64, 56
1, 371955, Control_c, 0, 64, 48
1, 371970, Control_c, 0, 64, 49
1, 371985, Control_c, 0, 64, 56
1, 371999, Control_c, 0, 64, 64
1, 372014, Control_c, 0, 64, 70
1, 372029, Control_c, 0, 64, 79
1, 372044, Control_c, 0, 64, 92
1, 372056, Note_off_c, 0, 43, 39
1, 372059, Control_c, 0, 64, 103
1, 372074, Control_c, 0, 64, 106
1, 372103, Note_on_c, 0, 55, 49
1, 372103, Control_c, 0, 64, 107
1, 372145, Note_off_c, 0, 55, 51
1, 372162, Note_off_c, 0, 71, 50
1, 372163, Note_off_c, 0, 62, 34
1, 372170, Control_c, 0, 64, 107
1, 372172, Note_off_c, 0, 67, 48
1, 372185, Control_c, 0, 64, 108
1, 372253, Note_on_c, 0, 55, 46
1, 372359, Note_off_c, 0, 55, 33
1, 372363, Control_c, 0, 64, 107
1, 372378, Control_c, 0, 64, 105
1, 372393, Control_c, 0, 64, 101
1, 372408, Control_c, 0, 64, 94
1, 372419, Note_on_c, 0, 43, 45
1, 372422, Control_c, 0, 64, 85
1, 372428, Note_on_c, 0, 67, 55
1, 372431, Note_on_c, 0, 71, 53
1, 372436, Note_on_c, 0, 62, 43
1, 372437, Control_c, 0, 64, 75
1, 372452, Control_c, 0, 64, 67
1, 372467, Control_c, 0, 64, 66
1, 372482, Control_c, 0, 64, 68
1, 372490, Note_off_c, 0, 43, 46
1, 372497, Control_c, 0, 64, 71
1, 372512, Control_c, 0, 64, 76
1, 372527, Control_c, 0, 64, 84
1, 372541, Control_c, 0, 64, 91
1, 372556, Control_c, 0, 64, 96
1, 372571, Control_c, 0, 64, 97
1, 372586, Control_c, 0, 64, 98
1, 372601, Control_c, 0, 64, 99
1, 372615, Control_c, 0, 64, 101
1, 372626, Note_on_c, 0, 55, 32
1, 372630, Control_c, 0, 64, 102
1, 372632, Note_off_c, 0, 62, 40
1, 372645, Note_off_c, 0, 71, 53
1, 372645, Control_c, 0, 64, 103
1, 372660, Control_c, 0, 64, 103
1, 372664, Note_off_c, 0, 55, 49
1, 372674, Control_c, 0, 64, 104
1, 372682, Note_off_c, 0, 67, 35
1, 372689, Control_c, 0, 64, 105
1, 372772, Note_on_c, 0, 55, 47
1, 372876, Note_off_c, 0, 55, 32
1, 372889, Control_c, 0, 64, 103
1, 372904, Control_c, 0, 64, 100
1, 372919, Control_c, 0, 64, 95
1, 372934, Control_c, 0, 64, 88
1, 372948, Control_c, 0, 64, 79
1, 372950, Note_on_c, 0, 71, 54
1, 372953, Note_on_c, 0, 43, 47
1, 372955, Note_on_c, 0, 67, 45
1, 372956, Note_on_c, 0, 62, 44
1, 372963, Control_c, 0, 64, 72
1, 372978, Control_c, 0, 64, 67
1, 372993, Control_c, 0, 64, 66
1, 373022, Control_c, 0, 64, 68
1, 373037, Control_c, 0, 64, 70
1, 373052, Control_c, 0, 64, 75
1, 373067, Control_c, 0, 64, 81
1, 373081, Control_c, 0, 64, 90
1, 373096, Control_c, 0, 64, 94
1, 373111, Control_c, 0, 64, 95
1, 373123, Note_off_c, 0, 43, 23
1, 373126, Control_c, 0, 64, 96
1, 373142, Control_c, 0, 64, 97
1, 373157, Control_c, 0, 64, 98
1, 373167, Note_on_c, 0, 55, 27
1, 373172, Control_c, 0, 64, 100
1, 373176, Note_off_c, 0, 62, 33
1, 373186, Note_off_c, 0, 71, 56
1, 373187, Control_c, 0, 64, 102
1, 373202, Control_c, 0, 64, 103
1, 373203, Note_off_c, 0, 55, 51
1, 373217, Control_c, 0, 64, 104
1, 373235, Note_off_c, 0, 67, 34
1, 373261, Control_c, 0, 64, 105
1, 373290, Control_c, 0, 64, 105
1, 373326, Note_on_c, 0, 55, 37
1, 373400, Note_off_c, 0, 55, 39
1, 373454, Control_c, 0, 64, 105
1, 373469, Control_c, 0, 64, 103
1, 373484, Control_c, 0, 64, 101
1, 373498, Control_c, 0, 64, 97
1, 373513, Control_c, 0, 64, 93
1, 373528, Control_c, 0, 64, 87
1, 373534, Note_on_c, 0, 76, 65
1, 373535, Note_on_c, 0, 67, 55
1, 373539, Note_on_c, 0, 55, 48
1, 373543, Control_c, 0, 64, 81
1, 373558, Control_c, 0, 64, 75
1, 373572, Control_c, 0, 64, 71
1, 373587, Control_c, 0, 64, 69
1, 373624, Control_c, 0, 64, 71
1, 373639, Control_c, 0, 64, 73
1, 373654, Control_c, 0, 64, 77
1, 373668, Control_c, 0, 64, 83
1, 373680, Note_off_c, 0, 55, 58
1, 373683, Control_c, 0, 64, 87
1, 373698, Control_c, 0, 64, 90
1, 373728, Control_c, 0, 64, 90
1, 373743, Control_c, 0, 64, 91
1, 373758, Control_c, 0, 64, 93
1, 373772, Control_c, 0, 64, 94
1, 373787, Control_c, 0, 64, 95
1, 373802, Control_c, 0, 64, 96
1, 373806, Note_on_c, 0, 57, 44
1, 373809, Note_on_c, 0, 55, 46
1, 373816, Control_c, 0, 64, 96
1, 373831, Control_c, 0, 64, 98
1, 373838, Note_off_c, 0, 55, 54
1, 373846, Control_c, 0, 64, 99
1, 373856, Note_off_c, 0, 57, 56
1, 373861, Control_c, 0, 64, 100
1, 373876, Control_c, 0, 64, 101
1, 373890, Control_c, 0, 64, 102
1, 373905, Control_c, 0, 64, 103
1, 373918, Note_off_c, 0, 76, 58
1, 373920, Control_c, 0, 64, 103
1, 373935, Control_c, 0, 64, 104
1, 373951, Control_c, 0, 64, 105
1, 373966, Control_c, 0, 64, 106
1, 373981, Control_c, 0, 64, 108
1, 373998, Note_on_c, 0, 55, 47
1, 374010, Control_c, 0, 64, 108
1, 374014, Note_on_c, 0, 59, 48
1, 374047, Note_off_c, 0, 59, 55
1, 374060, Note_off_c, 0, 55, 54
1, 374142, Note_on_c, 0, 74, 63
1, 374146, Note_on_c, 0, 65, 52
1, 374168, Note_off_c, 0, 67, 0
1, 374180, Note_off_c, 0, 65, 59
1, 374187, Control_c, 0, 64, 107
1, 374202, Control_c, 0, 64, 106
1, 374217, Control_c, 0, 64, 105
1, 374230, Poly_aftertouch_c, 0, 67, 0
1, 374232, Control_c, 0, 64, 105
1, 374247, Control_c, 0, 64, 104
1, 374262, Control_c, 0, 64, 103
1, 374277, Control_c, 0, 64, 101
1, 374291, Control_c, 0, 64, 98
1, 374306, Control_c, 0, 64, 94
1, 374321, Control_c, 0, 64, 89
1, 374330, Note_off_c, 0, 74, 36
1, 374336, Control_c, 0, 64, 83
1, 374351, Control_c, 0, 64, 77
1, 374371, Note_on_c, 0, 48, 39
1, 374373, Control_c, 0, 64, 69
1, 374377, Note_on_c, 0, 72, 53
1, 374381, Note_on_c, 0, 67, 39
1, 374388, Control_c, 0, 64, 62
1, 374389, Note_on_c, 0, 60, 29
1, 374390, Note_on_c, 0, 55, 33
1, 374396, Note_on_c, 0, 64, 39
1, 374402, Control_c, 0, 64, 54
1, 374417, Control_c, 0, 64, 49
1, 374446, Control_c, 0, 64, 50
1, 374461, Control_c, 0, 64, 58
1, 374472, Note_off_c, 0, 55, 46
1, 374476, Control_c, 0, 64, 65
1, 374491, Control_c, 0, 64, 71
1, 374506, Control_c, 0, 64, 80
1, 374521, Control_c, 0, 64, 93
1, 374533, Note_off_c, 0, 60, 35
1, 374536, Control_c, 0, 64, 101
1, 374551, Control_c, 0, 64, 103
1, 374566, Control_c, 0, 64, 104
1, 374581, Control_c, 0, 64, 104
1, 374595, Control_c, 0, 64, 105
1, 374610, Control_c, 0, 64, 106
1, 374634, Note_on_c, 0, 55, 40
1, 374639, Control_c, 0, 64, 106
1, 374654, Control_c, 0, 64, 108
1, 374669, Control_c, 0, 64, 108
1, 374675, Note_off_c, 0, 55, 46
1, 374684, Control_c, 0, 64, 109
1, 374706, Note_off_c, 0, 48, 37
1, 374791, Note_on_c, 0, 55, 44
1, 374809, Note_off_c, 0, 64, 33
1, 374821, Note_off_c, 0, 55, 54
1, 374877, Control_c, 0, 64, 108
1, 374892, Control_c, 0, 64, 107
1, 374907, Control_c, 0, 64, 105
1, 374922, Control_c, 0, 64, 101
1, 374936, Control_c, 0, 64, 93
1, 374951, Control_c, 0, 64, 82
1, 374966, Control_c, 0, 64, 70
1, 374974, Note_on_c, 0, 55, 27
1, 374981, Control_c, 0, 64, 64
1, 374996, Control_c, 0, 64, 63
1, 375010, Control_c, 0, 64, 66
1, 375016, Note_off_c, 0, 55, 53
1, 375025, Control_c, 0, 64, 72
1, 375040, Control_c, 0, 64, 81
1, 375055, Control_c, 0, 64, 96
1, 375069, Control_c, 0, 64, 111
1, 375084, Control_c, 0, 64, 116
1, 375132, Note_on_c, 0, 55, 44
1, 375167, Note_off_c, 0, 55, 54
1, 375287, Note_on_c, 0, 55, 40
1, 375323, Note_off_c, 0, 55, 57
1, 375374, Control_c, 0, 64, 115
1, 375388, Control_c, 0, 64, 113
1, 375403, Control_c, 0, 64, 110
1, 375418, Control_c, 0, 64, 105
1, 375433, Control_c, 0, 64, 96
1, 375448, Control_c, 0, 64, 83
1, 375462, Control_c, 0, 64, 72
1, 375468, Note_on_c, 0, 55, 20
1, 375477, Control_c, 0, 64, 69
1, 375492, Control_c, 0, 64, 72
1, 375507, Control_c, 0, 64, 82
1, 375512, Note_off_c, 0, 55, 50
1, 375522, Control_c, 0, 64, 98
1, 375533, Note_off_c, 0, 67, 40
1, 375537, Control_c, 0, 64, 127
1, 375552, Control_c, 0, 67, 20
1, 375567, Control_c, 0, 67, 23
1, 375573, Note_off_c, 0, 72, 57
1, 375582, Control_c, 0, 67, 25
1, 375597, Control_c, 0, 67, 27
1, 375612, Control_c, 0, 67, 29
1, 375622, Note_on_c, 0, 55, 45
1, 375627, Control_c, 0, 67, 32
1, 375641, Control_c, 0, 67, 37
1, 375656, Control_c, 0, 67, 43
1, 375663, Note_off_c, 0, 55, 58
1, 375671, Control_c, 0, 67, 49
1, 375685, Control_c, 0, 67, 54
1, 375700, Control_c, 0, 67, 58
1, 375715, Control_c, 0, 67, 62
1, 375730, Control_c, 0, 67, 65
1, 375745, Control_c, 0, 67, 69
1, 375759, Control_c, 0, 67, 72
1, 375774, Control_c, 0, 67, 74
1, 375789, Control_c, 0, 67, 76
1, 375793, Note_on_c, 0, 55, 45
1, 375804, Control_c, 0, 67, 77
1, 375819, Control_c, 0, 67, 78
1, 375831, Note_off_c, 0, 55, 59
1, 375833, Control_c, 0, 67, 79
1, 375848, Control_c, 0, 67, 80
1, 375871, Control_c, 0, 67, 81
1, 375886, Control_c, 0, 67, 82
1, 375900, Control_c, 0, 67, 83
1, 375915, Control_c, 0, 64, 121
1, 375915, Control_c, 0, 67, 84
1, 375930, Control_c, 0, 64, 115
1, 375930, Control_c, 0, 67, 85
1, 375945, Control_c, 0, 64, 111
1, 375945, Control_c, 0, 67, 87
1, 375960, Control_c, 0, 64, 108
1, 375960, Control_c, 0, 67, 89
1, 375974, Control_c, 0, 64, 105
1, 375974, Control_c, 0, 67, 90
1, 375989, Control_c, 0, 64, 103
1, 375989, Control_c, 0, 67, 93
1, 376004, Control_c, 0, 64, 99
1, 376004, Control_c, 0, 67, 95
1, 376019, Control_c, 0, 64, 94
1, 376019, Control_c, 0, 67, 97
1, 376034, Control_c, 0, 64, 85
1, 376034, Control_c, 0, 67, 100
1, 376046, Note_on_c, 0, 83, 65
1, 376048, Control_c, 0, 64, 72
1, 376048, Control_c, 0, 67, 101
1, 376063, Control_c, 0, 64, 64
1, 376063, Control_c, 0, 67, 103
1, 376074, Note_on_c, 0, 55, 24
1, 376078, Control_c, 0, 64, 59
1, 376078, Control_c, 0, 67, 104
1, 376092, Control_c, 0, 64, 58
1, 376092, Control_c, 0, 67, 105
1, 376107, Control_c, 0, 67, 106
1, 376122, Control_c, 0, 64, 59
1, 376136, Note_off_c, 0, 55, 43
1, 376137, Control_c, 0, 64, 62
1, 376152, Control_c, 0, 64, 67
1, 376152, Control_c, 0, 67, 106
1, 376166, Control_c, 0, 64, 73
1, 376181, Control_c, 0, 64, 82
1, 376196, Control_c, 0, 64, 94
1, 376210, Control_c, 0, 64, 103
1, 376225, Control_c, 0, 64, 104
1, 376255, Note_on_c, 0, 55, 40
1, 376255, Control_c, 0, 64, 105
1, 376270, Control_c, 0, 64, 105
1, 376284, Control_c, 0, 64, 106
1, 376290, Note_off_c, 0, 55, 49
1, 376299, Control_c, 0, 64, 107
1, 376314, Control_c, 0, 64, 107
1, 376417, Note_on_c, 0, 55, 37
1, 376433, Control_c, 0, 67, 107
1, 376448, Control_c, 0, 67, 107
1, 376463, Control_c, 0, 67, 108
1, 376468, Note_off_c, 0, 55, 43
1, 376478, Control_c, 0, 67, 109
1, 376493, Control_c, 0, 67, 109
1, 376507, Control_c, 0, 64, 107
1, 376512, Note_on_c, 0, 84, 54
1, 376522, Control_c, 0, 64, 106
1, 376522, Control_c, 0, 67, 110
1, 376536, Note_off_c, 0, 83, 35
1, 376537, Control_c, 0, 64, 105
1, 376552, Control_c, 0, 64, 102
1, 376567, Control_c, 0, 64, 97
1, 376567, Control_c, 0, 67, 110
1, 376581, Control_c, 0, 64, 91
1, 376581, Control_c, 0, 67, 111
1, 376593, Note_off_c, 0, 84, 55
1, 376596, Control_c, 0, 64, 83
1, 376596, Control_c, 0, 67, 111
1, 376613, Note_on_c, 0, 86, 65
1, 376619, Control_c, 0, 64, 71
1, 376619, Control_c, 0, 67, 112
1, 376634, Control_c, 0, 64, 62
1, 376634, Control_c, 0, 67, 112
1, 376648, Control_c, 0, 64, 55
1, 376658, Note_on_c, 0, 55, 26
1, 376663, Control_c, 0, 64, 54
1, 376678, Control_c, 0, 64, 56
1, 376693, Control_c, 0, 64, 62
1, 376708, Control_c, 0, 64, 67
1, 376711, Note_off_c, 0, 55, 44
1, 376722, Control_c, 0, 64, 72
1, 376737, Control_c, 0, 64, 81
1, 376752, Control_c, 0, 64, 92
1, 376767, Control_c, 0, 64, 100
1, 376782, Control_c, 0, 64, 101
1, 376811, Control_c, 0, 64, 101
1, 376825, Note_on_c, 0, 55, 41
1, 376826, Control_c, 0, 64, 102
1, 376862, Note_off_c, 0, 86, 36
1, 376867, Note_off_c, 0, 55, 46
1, 376870, Control_c, 0, 64, 102
1, 376978, Note_on_c, 0, 55, 42
1, 377020, Note_off_c, 0, 55, 45
1, 377078, Control_c, 0, 64, 102
1, 377093, Control_c, 0, 64, 100
1, 377107, Control_c, 0, 64, 97
1, 377122, Control_c, 0, 64, 94
1, 377138, Control_c, 0, 64, 88
1, 377153, Control_c, 0, 64, 80
1, 377157, Note_on_c, 0, 86, 57
1, 377168, Note_on_c, 0, 80, 55
1, 377168, Control_c, 0, 64, 71
1, 377169, Note_on_c, 0, 55, 34
1, 377172, Note_on_c, 0, 77, 43
1, 377172, Note_on_c, 0, 83, 54
1, 377183, Control_c, 0, 64, 66
1, 377198, Control_c, 0, 64, 65
1, 377214, Note_off_c, 0, 55, 53
1, 377227, Control_c, 0, 64, 66
1, 377242, Control_c, 0, 64, 68
1, 377256, Control_c, 0, 64, 73
1, 377271, Control_c, 0, 64, 82
1, 377286, Control_c, 0, 64, 92
1, 377301, Control_c, 0, 64, 99
1, 377316, Control_c, 0, 64, 101
1, 377330, Control_c, 0, 64, 102
1, 377332, Note_off_c, 0, 77, 46
1, 377333, Note_on_c, 0, 55, 45
1, 377340, Note_off_c, 0, 86, 57
1, 377348, Note_off_c, 0, 83, 60
1, 377350, Note_off_c, 0, 80, 58
1, 377368, Control_c, 0, 64, 102
1, 377383, Control_c, 0, 64, 103
1, 377389, Note_off_c, 0, 55, 49
1, 377412, Control_c, 0, 64, 103
1, 377412, Control_c, 0, 67, 113
1, 377457, Control_c, 0, 67, 113
1, 377471, Control_c, 0, 67, 114
1, 377516, Control_c, 0, 67, 114
1, 377519, Note_on_c, 0, 55, 48
1, 377560, Control_c, 0, 67, 115
1, 377562, Note_off_c, 0, 55, 52
1, 377575, Control_c, 0, 67, 116
1, 377590, Control_c, 0, 67, 116
1, 377605, Control_c, 0, 67, 117
1, 377634, Control_c, 0, 67, 117
1, 377649, Control_c, 0, 64, 102
1, 377663, Control_c, 0, 64, 99
1, 377678, Control_c, 0, 64, 95
1, 377693, Control_c, 0, 64, 87
1, 377702, Note_on_c, 0, 86, 61
1, 377703, Note_on_c, 0, 55, 38
1, 377703, Note_on_c, 0, 81, 64
1, 377708, Note_on_c, 0, 84, 63
1, 377708, Control_c, 0, 64, 78
1, 377711, Note_on_c, 0, 78, 50
1, 377723, Control_c, 0, 64, 69
1, 377737, Control_c, 0, 64, 64
1, 377737, Control_c, 0, 67, 118
1, 377752, Control_c, 0, 64, 62
1, 377757, Note_off_c, 0, 55, 58
1, 377767, Control_c, 0, 64, 63
1, 377782, Control_c, 0, 64, 65
1, 377797, Control_c, 0, 64, 69
1, 377812, Control_c, 0, 64, 74
1, 377827, Control_c, 0, 64, 82
1, 377842, Control_c, 0, 64, 93
1, 377856, Control_c, 0, 64, 100
1, 377871, Control_c, 0, 64, 101
1, 377883, Note_on_c, 0, 55, 39
1, 377886, Control_c, 0, 64, 101
1, 377886, Control_c, 0, 67, 118
1, 377901, Control_c, 0, 64, 102
1, 377916, Control_c, 0, 64, 104
1, 377916, Control_c, 0, 67, 119
1, 377921, Note_off_c, 0, 55, 48
1, 377931, Control_c, 0, 64, 105
1, 377946, Control_c, 0, 64, 107
1, 377946, Control_c, 0, 67, 119
1, 377961, Control_c, 0, 64, 108
1, 377961, Control_c, 0, 67, 120
1, 377976, Control_c, 0, 64, 109
1, 377991, Control_c, 0, 67, 120
1, 378006, Control_c, 0, 64, 109
1, 378021, Control_c, 0, 64, 110
1, 378030, Note_on_c, 0, 55, 37
1, 378035, Control_c, 0, 64, 110
1, 378037, Note_off_c, 0, 78, 30
1, 378042, Note_off_c, 0, 84, 35
1, 378047, Note_off_c, 0, 86, 35
1, 378059, Note_off_c, 0, 81, 35
1, 378081, Note_off_c, 0, 55, 52
1, 378094, Control_c, 0, 67, 121
1, 378190, Control_c, 0, 64, 107
1, 378205, Control_c, 0, 64, 103
1, 378220, Control_c, 0, 64, 97
1, 378233, Note_on_c, 0, 55, 41
1, 378235, Note_on_c, 0, 78, 62
1, 378235, Control_c, 0, 64, 89
1, 378238, Note_on_c, 0, 84, 62
1, 378247, Note_on_c, 0, 81, 55
1, 378250, Control_c, 0, 64, 80
1, 378252, Note_on_c, 0, 62, 53
1, 378265, Control_c, 0, 64, 71
1, 378265, Control_c, 0, 67, 121
1, 378280, Control_c, 0, 64, 65
1, 378294, Control_c, 0, 64, 64
1, 378301, Note_off_c, 0, 55, 42
1, 378324, Control_c, 0, 64, 64
1, 378339, Control_c, 0, 64, 67
1, 378354, Control_c, 0, 64, 70
1, 378368, Control_c, 0, 64, 76
1, 378383, Control_c, 0, 64, 85
1, 378398, Control_c, 0, 64, 95
1, 378411, Control_c, 0, 64, 98
1, 378424, Note_on_c, 0, 55, 47
1, 378441, Control_c, 0, 64, 99
1, 378456, Control_c, 0, 64, 100
1, 378471, Control_c, 0, 64, 101
1, 378473, Note_off_c, 0, 55, 56
1, 378486, Control_c, 0, 64, 102
1, 378501, Control_c, 0, 64, 102
1, 378515, Control_c, 0, 64, 103
1, 378605, Note_on_c, 0, 55, 48
1, 378632, Note_off_c, 0, 55, 56
1, 378697, Note_on_c, 0, 86, 53
1, 378697, Note_off_c, 0, 81, 51
1, 378699, Note_off_c, 0, 84, 50
1, 378723, Note_off_c, 0, 78, 34
1, 378813, Control_c, 0, 64, 102
1, 378827, Control_c, 0, 64, 101
1, 378842, Control_c, 0, 64, 99
1, 378864, Control_c, 0, 64, 96
1, 378879, Control_c, 0, 64, 92
1, 378894, Control_c, 0, 64, 87
1, 378909, Control_c, 0, 64, 80
1, 378915, Note_on_c, 0, 78, 41
1, 378917, Note_off_c, 0, 86, 43
1, 378919, Note_on_c, 0, 87, 59
1, 378924, Control_c, 0, 64, 73
1, 378926, Note_on_c, 0, 55, 39
1, 378930, Note_on_c, 0, 81, 46
1, 378930, Note_on_c, 0, 60, 45
1, 378939, Control_c, 0, 64, 67
1, 378948, Note_off_c, 0, 62, 35
1, 378954, Control_c, 0, 64, 63
1, 378969, Control_c, 0, 64, 62
1, 379025, Note_off_c, 0, 55, 49
1, 379028, Control_c, 0, 64, 63
1, 379042, Control_c, 0, 64, 65
1, 379057, Control_c, 0, 64, 68
1, 379072, Control_c, 0, 64, 72
1, 379087, Control_c, 0, 64, 79
1, 379102, Control_c, 0, 64, 87
1, 379116, Control_c, 0, 64, 94
1, 379131, Control_c, 0, 64, 96
1, 379146, Control_c, 0, 64, 97
1, 379159, Note_on_c, 0, 55, 41
1, 379162, Control_c, 0, 64, 98
1, 379177, Control_c, 0, 64, 100
1, 379191, Control_c, 0, 64, 102
1, 379201, Note_off_c, 0, 55, 46
1, 379206, Control_c, 0, 64, 103
1, 379221, Control_c, 0, 64, 104
1, 379280, Control_c, 0, 64, 104
1, 379303, Note_on_c, 0, 55, 48
1, 379324, Control_c, 0, 67, 121
1, 379341, Note_off_c, 0, 55, 56
1, 379368, Control_c, 0, 64, 105
1, 379413, Control_c, 0, 67, 120
1, 379468, Note_on_c, 0, 55, 38
1, 379517, Note_off_c, 0, 55, 44
1, 379636, Note_on_c, 0, 55, 47
1, 379732, Control_c, 0, 64, 104
1, 379733, Note_off_c, 0, 55, 35
1, 379747, Control_c, 0, 64, 103
1, 379762, Control_c, 0, 64, 101
1, 379777, Control_c, 0, 64, 98
1, 379792, Control_c, 0, 64, 93
1, 379803, Note_on_c, 0, 62, 65
1, 379806, Control_c, 0, 64, 85
1, 379815, Note_on_c, 0, 86, 62
1, 379821, Control_c, 0, 64, 75
1, 379834, Note_off_c, 0, 60, 40
1, 379836, Control_c, 0, 64, 71
1, 379851, Control_c, 0, 64, 72
1, 379866, Control_c, 0, 64, 76
1, 379881, Control_c, 0, 64, 83
1, 379896, Control_c, 0, 64, 90
1, 379910, Control_c, 0, 64, 94
1, 379925, Control_c, 0, 64, 95
1, 379948, Note_on_c, 0, 55, 59
1, 379982, Note_off_c, 0, 87, 34
1, 379997, Note_off_c, 0, 55, 57
1, 380088, Control_c, 0, 64, 94
1, 380103, Control_c, 0, 64, 93
1, 380118, Control_c, 0, 64, 91
1, 380132, Control_c, 0, 64, 85
1, 380145, Note_on_c, 0, 55, 50
1, 380147, Control_c, 0, 64, 75
1, 380147, Control_c, 0, 67, 121
1, 380155, Note_on_c, 0, 84, 67
1, 380159, Note_on_c, 0, 63, 53
1, 380162, Control_c, 0, 64, 66
1, 380176, Control_c, 0, 64, 61
1, 380191, Control_c, 0, 64, 60
1, 380198, Note_off_c, 0, 62, 35
1, 380206, Control_c, 0, 64, 60
1, 380216, Note_off_c, 0, 86, 33
1, 380217, Note_off_c, 0, 55, 56
1, 380221, Control_c, 0, 64, 62
1, 380236, Control_c, 0, 64, 67
1, 380250, Control_c, 0, 64, 72
1, 380250, Control_c, 0, 67, 121
1, 380265, Control_c, 0, 64, 79
1, 380280, Control_c, 0, 64, 90
1, 380286, Note_off_c, 0, 81, 0
1, 380295, Control_c, 0, 64, 100
1, 380310, Control_c, 0, 64, 103
1, 380341, Control_c, 0, 64, 104
1, 380361, Poly_aftertouch_c, 0, 81, 0
1, 380363, Control_c, 0, 64, 105
1, 380365, Note_on_c, 0, 55, 38
1, 380368, Note_off_c, 0, 84, 54
1, 380375, Note_off_c, 0, 78, 50
1, 380378, Control_c, 0, 64, 106
1, 380400, Note_off_c, 0, 55, 52
1, 380510, Note_on_c, 0, 55, 52
1, 380547, Note_off_c, 0, 63, 40
1, 380554, Note_off_c, 0, 55, 59
1, 380556, Control_c, 0, 64, 105
1, 380570, Control_c, 0, 64, 105
1, 380585, Control_c, 0, 64, 104
1, 380600, Control_c, 0, 64, 103
1, 380614, Control_c, 0, 64, 101
1, 380629, Control_c, 0, 64, 98
1, 380629, Control_c, 0, 67, 122
1, 380644, Control_c, 0, 64, 93
1, 380659, Control_c, 0, 64, 88
1, 380674, Control_c, 0, 64, 80
1, 380674, Control_c, 0, 67, 122
1, 380684, Note_on_c, 0, 86, 65
1, 380686, Note_on_c, 0, 74, 63
1, 380688, Control_c, 0, 64, 71
1, 380692, Note_on_c, 0, 81, 60
1, 380694, Note_on_c, 0, 55, 48
1, 380700, Note_on_c, 0, 66, 60
1, 380703, Control_c, 0, 64, 65
1, 380718, Control_c, 0, 64, 64
1, 380733, Control_c, 0, 64, 65
1, 380742, Note_off_c, 0, 55, 58
1, 380748, Control_c, 0, 64, 68
1, 380763, Control_c, 0, 64, 72
1, 380778, Control_c, 0, 64, 78
1, 380778, Control_c, 0, 67, 123
1, 380793, Control_c, 0, 64, 87
1, 380807, Control_c, 0, 64, 95
1, 380822, Control_c, 0, 64, 98
1, 380837, Control_c, 0, 64, 98
1, 380837, Control_c, 0, 67, 123
1, 380852, Control_c, 0, 64, 99
1, 380861, Note_on_c, 0, 55, 48
1, 380867, Control_c, 0, 64, 100
1, 380881, Control_c, 0, 64, 103
1, 380896, Control_c, 0, 64, 105
1, 380896, Control_c, 0, 67, 124
1, 380909, Note_off_c, 0, 55, 44
1, 380911, Control_c, 0, 64, 108
1, 380926, Control_c, 0, 64, 109
1, 380926, Control_c, 0, 67, 124
1, 380941, Control_c, 0, 64, 110
1, 380955, Control_c, 0, 64, 111
1, 380955, Control_c, 0, 67, 125
1, 380970, Control_c, 0, 64, 112
1, 380970, Control_c, 0, 67, 125
1, 380985, Control_c, 0, 64, 113
1, 380985, Control_c, 0, 67, 126
1, 380999, Control_c, 0, 64, 114
1, 380999, Control_c, 0, 67, 126
1, 381014, Control_c, 0, 64, 114
1, 381014, Control_c, 0, 67, 127
1, 381034, Note_on_c, 0, 55, 50
1, 381057, Note_off_c, 0, 86, 35
1, 381077, Note_off_c, 0, 55, 61
1, 381086, Note_off_c, 0, 66, 55
1, 381088, Control_c, 0, 67, 127
1, 381112, Note_on_c, 0, 84, 57
1, 381113, Note_off_c, 0, 81, 52
1, 381147, Note_off_c, 0, 84, 61
1, 381156, Note_off_c, 0, 74, 51
1, 381156, Control_c, 0, 64, 112
1, 381171, Control_c, 0, 64, 109
1, 381186, Control_c, 0, 64, 104
1, 381201, Control_c, 0, 64, 98
1, 381216, Control_c, 0, 64, 88
1, 381230, Control_c, 0, 64, 77
1, 381237, Note_on_c, 0, 83, 65
1, 381240, Note_on_c, 0, 55, 52
1, 381243, Note_on_c, 0, 74, 48
1, 381245, Control_c, 0, 64, 66
1, 381250, Note_on_c, 0, 67, 57
1, 381260, Control_c, 0, 64, 59
1, 381261, Note_on_c, 0, 79, 59
1, 381275, Control_c, 0, 64, 58
1, 381290, Control_c, 0, 64, 59
1, 381304, Control_c, 0, 64, 61
1, 381318, Note_off_c, 0, 55, 59
1, 381319, Control_c, 0, 64, 65
1, 381334, Control_c, 0, 64, 69
1, 381349, Control_c, 0, 64, 74
1, 381364, Control_c, 0, 64, 85
1, 381378, Control_c, 0, 64, 95
1, 381393, Control_c, 0, 64, 100
1, 381423, Control_c, 0, 64, 102
1, 381437, Control_c, 0, 64, 104
1, 381443, Note_on_c, 0, 55, 51
1, 381452, Control_c, 0, 64, 107
1, 381467, Control_c, 0, 64, 111
1, 381478, Note_off_c, 0, 55, 52
1, 381482, Control_c, 0, 64, 113
1, 381497, Control_c, 0, 64, 114
1, 381511, Control_c, 0, 64, 116
1, 381526, Control_c, 0, 64, 121
1, 381541, Control_c, 0, 64, 127
1, 381589, Note_off_c, 0, 83, 50
1, 381595, Note_on_c, 0, 55, 34
1, 381601, Note_off_c, 0, 74, 47
1, 381603, Note_off_c, 0, 79, 56
1, 381614, Note_off_c, 0, 67, 36
1, 381622, Note_off_c, 0, 55, 57
1, 381704, Control_c, 0, 64, 117
1, 381719, Control_c, 0, 64, 109
1, 381734, Control_c, 0, 64, 101
1, 381748, Control_c, 0, 64, 90
1, 381759, Note_on_c, 0, 74, 54
1, 381761, Note_on_c, 0, 79, 52
1, 381763, Control_c, 0, 64, 77
1, 381766, Note_on_c, 0, 81, 61
1, 381771, Note_on_c, 0, 65, 59
1, 381776, Note_on_c, 0, 55, 36
1, 381778, Control_c, 0, 64, 68
1, 381793, Control_c, 0, 64, 64
1, 381822, Control_c, 0, 64, 66
1, 381827, Note_off_c, 0, 55, 58
1, 381837, Control_c, 0, 64, 70
1, 381860, Control_c, 0, 64, 74
1, 381875, Control_c, 0, 64, 83
1, 381890, Control_c, 0, 64, 91
1, 381904, Control_c, 0, 64, 96
1, 381919, Control_c, 0, 64, 97
1, 381935, Control_c, 0, 64, 97
1, 381949, Control_c, 0, 64, 99
1, 381952, Note_on_c, 0, 55, 49
1, 381964, Control_c, 0, 64, 101
1, 381979, Control_c, 0, 64, 105
1, 381986, Note_off_c, 0, 55, 52
1, 381994, Control_c, 0, 64, 108
1, 381994, Control_c, 0, 67, 127
1, 382009, Control_c, 0, 64, 109
1, 382068, Control_c, 0, 64, 109
1, 382083, Control_c, 0, 64, 110
1, 382088, Note_on_c, 0, 55, 53
1, 382113, Control_c, 0, 67, 126
1, 382136, Note_off_c, 0, 55, 57
1, 382156, Control_c, 0, 67, 126
1, 382177, Note_off_c, 0, 81, 51
1, 382184, Note_on_c, 0, 83, 50
1, 382185, Control_c, 0, 67, 125
1, 382191, Note_off_c, 0, 74, 36
1, 382200, Control_c, 0, 64, 109
1, 382200, Control_c, 0, 67, 125
1, 382207, Note_off_c, 0, 79, 36
1, 382215, Control_c, 0, 64, 106
1, 382215, Control_c, 0, 67, 124
1, 382225, Note_off_c, 0, 83, 45
1, 382230, Control_c, 0, 64, 102
1, 382245, Control_c, 0, 64, 95
1, 382245, Control_c, 0, 67, 124
1, 382259, Control_c, 0, 64, 85
1, 382259, Control_c, 0, 67, 123
1, 382274, Control_c, 0, 64, 70
1, 382289, Note_on_c, 0, 55, 49
1, 382289, Control_c, 0, 64, 60
1, 382295, Note_on_c, 0, 84, 61
1, 382298, Note_off_c, 0, 65, 54
1, 382304, Control_c, 0, 64, 52
1, 382306, Note_on_c, 0, 79, 53
1, 382310, Note_on_c, 0, 63, 47
1, 382314, Note_on_c, 0, 72, 44
1, 382334, Control_c, 0, 64, 53
1, 382343, Note_off_c, 0, 55, 54
1, 382349, Control_c, 0, 64, 57
1, 382364, Control_c, 0, 64, 63
1, 382378, Control_c, 0, 64, 69
1, 382393, Control_c, 0, 64, 75
1, 382408, Control_c, 0, 64, 84
1, 382423, Control_c, 0, 64, 92
1, 382438, Control_c, 0, 64, 95
1, 382452, Control_c, 0, 64, 96
1, 382452, Control_c, 0, 67, 123
1, 382467, Control_c, 0, 64, 97
1, 382481, Note_on_c, 0, 55, 52
1, 382482, Control_c, 0, 64, 99
1, 382482, Control_c, 0, 67, 122
1, 382497, Control_c, 0, 64, 102
1, 382497, Control_c, 0, 67, 121
1, 382501, Note_off_c, 0, 72, 50
1, 382512, Control_c, 0, 64, 105
1, 382516, Note_off_c, 0, 55, 61
1, 382526, Control_c, 0, 64, 106
1, 382526, Control_c, 0, 67, 120
1, 382534, Note_off_c, 0, 79, 58
1, 382541, Control_c, 0, 64, 106
1, 382541, Control_c, 0, 67, 120
1, 382549, Note_off_c, 0, 84, 58
1, 382556, Control_c, 0, 67, 119
1, 382570, Control_c, 0, 64, 107
1, 382570, Control_c, 0, 67, 119
1, 382585, Control_c, 0, 67, 118
1, 382608, Control_c, 0, 67, 117
1, 382623, Control_c, 0, 67, 116
1, 382640, Note_on_c, 0, 55, 54
1, 382682, Control_c, 0, 67, 116
1, 382683, Note_off_c, 0, 55, 60
1, 382727, Control_c, 0, 64, 106
1, 382727, Control_c, 0, 67, 115
1, 382742, Control_c, 0, 64, 104
1, 382742, Control_c, 0, 67, 115
1, 382757, Control_c, 0, 64, 100
1, 382757, Control_c, 0, 67, 114
1, 382772, Control_c, 0, 64, 95
1, 382772, Control_c, 0, 67, 113
1, 382787, Control_c, 0, 64, 85
1, 382801, Control_c, 0, 64, 73
1, 382801, Control_c, 0, 67, 113
1, 382816, Control_c, 0, 64, 64
1, 382818, Note_on_c, 0, 55, 45
1, 382820, Note_off_c, 0, 63, 40
1, 382822, Note_on_c, 0, 86, 62
1, 382823, Note_on_c, 0, 60, 56
1, 382824, Note_on_c, 0, 83, 60
1, 382828, Note_on_c, 0, 79, 47
1, 382831, Control_c, 0, 64, 61
1, 382846, Control_c, 0, 64, 62
1, 382846, Control_c, 0, 67, 112
1, 382861, Control_c, 0, 64, 65
1, 382871, Note_off_c, 0, 55, 59
1, 382875, Control_c, 0, 64, 68
1, 382875, Control_c, 0, 67, 112
1, 382890, Control_c, 0, 64, 73
1, 382890, Control_c, 0, 67, 111
1, 382906, Control_c, 0, 64, 80
1, 382921, Control_c, 0, 64, 87
1, 382921, Control_c, 0, 67, 111
1, 382936, Control_c, 0, 64, 91
1, 382936, Control_c, 0, 67, 110
1, 382950, Control_c, 0, 64, 92
1, 382950, Control_c, 0, 67, 109
1, 382965, Control_c, 0, 64, 93
1, 382965, Control_c, 0, 67, 108
1, 382980, Control_c, 0, 64, 93
1, 382980, Control_c, 0, 67, 107
1, 382995, Control_c, 0, 64, 94
1, 382995, Control_c, 0, 67, 106
1, 383005, Note_on_c, 0, 55, 35
1, 383009, Control_c, 0, 64, 95
1, 383009, Control_c, 0, 67, 104
1, 383024, Control_c, 0, 64, 97
1, 383024, Control_c, 0, 67, 102
1, 383031, Note_off_c, 0, 55, 55
1, 383039, Control_c, 0, 64, 98
1, 383039, Control_c, 0, 67, 100
1, 383054, Control_c, 0, 64, 98
1, 383054, Control_c, 0, 67, 98
1, 383069, Control_c, 0, 64, 99
1, 383069, Control_c, 0, 67, 96
1, 383082, Note_off_c, 0, 79, 41
1, 383083, Control_c, 0, 67, 95
1, 383098, Control_c, 0, 64, 99
1, 383098, Control_c, 0, 67, 94
1, 383113, Control_c, 0, 64, 100
1, 383113, Control_c, 0, 67, 94
1, 383128, Control_c, 0, 67, 93
1, 383139, Note_on_c, 0, 55, 40
1, 383143, Control_c, 0, 67, 92
1, 383157, Control_c, 0, 67, 92
1, 383172, Control_c, 0, 67, 91
1, 383177, Note_off_c, 0, 55, 47
1, 383187, Control_c, 0, 67, 91
1, 383216, Control_c, 0, 67, 90
1, 383218, Note_on_c, 0, 87, 54
1, 383231, Control_c, 0, 67, 89
1, 383244, Note_on_c, 0, 84, 42
1, 383246, Control_c, 0, 67, 88
1, 383247, Note_off_c, 0, 60, 36
1, 383257, Note_off_c, 0, 86, 26
1, 383261, Control_c, 0, 67, 87
1, 383263, Note_off_c, 0, 87, 60
1, 383270, Note_off_c, 0, 84, 53
1, 383276, Control_c, 0, 64, 99
1, 383276, Control_c, 0, 67, 86
1, 383282, Poly_aftertouch_c, 0, 79, 127
1, 383290, Note_off_c, 0, 83, 42
1, 383291, Control_c, 0, 64, 98
1, 383291, Control_c, 0, 67, 84
1, 383306, Control_c, 0, 64, 96
1, 383306, Control_c, 0, 67, 83
1, 383313, Poly_aftertouch_c, 0, 79, 0
1, 383321, Control_c, 0, 64, 92
1, 383321, Control_c, 0, 67, 81
1, 383335, Control_c, 0, 64, 85
1, 383335, Control_c, 0, 67, 79
1, 383357, Control_c, 0, 64, 74
1, 383357, Control_c, 0, 67, 78
1, 383372, Control_c, 0, 64, 64
1, 383372, Control_c, 0, 67, 76
1, 383380, Note_on_c, 0, 86, 60
1, 383383, Note_on_c, 0, 55, 47
1, 383387, Control_c, 0, 64, 59
1, 383387, Control_c, 0, 67, 73
1, 383391, Note_on_c, 0, 67, 43
1, 383401, Control_c, 0, 64, 60
1, 383401, Control_c, 0, 67, 71
1, 383402, Note_on_c, 0, 83, 43
1, 383405, Note_on_c, 0, 79, 25
1, 383416, Control_c, 0, 64, 63
1, 383416, Control_c, 0, 67, 67
1, 383431, Control_c, 0, 64, 66
1, 383431, Control_c, 0, 67, 64
1, 383436, Note_off_c, 0, 55, 54
1, 383446, Control_c, 0, 64, 70
1, 383446, Control_c, 0, 67, 60
1, 383461, Control_c, 0, 64, 74
1, 383461, Control_c, 0, 67, 57
1, 383476, Control_c, 0, 64, 81
1, 383476, Control_c, 0, 67, 53
1, 383491, Control_c, 0, 64, 89
1, 383491, Control_c, 0, 67, 50
1, 383505, Control_c, 0, 64, 95
1, 383505, Control_c, 0, 67, 47
1, 383520, Control_c, 0, 64, 96
1, 383520, Control_c, 0, 67, 44
1, 383536, Control_c, 0, 64, 97
1, 383536, Control_c, 0, 67, 41
1, 383551, Control_c, 0, 64, 98
1, 383551, Control_c, 0, 67, 38
1, 383566, Control_c, 0, 64, 102
1, 383566, Control_c, 0, 67, 36
1, 383567, Note_on_c, 0, 55, 45
1, 383580, Control_c, 0, 64, 105
1, 383580, Control_c, 0, 67, 33
1, 383595, Note_off_c, 0, 55, 54
1, 383595, Control_c, 0, 64, 109
1, 383595, Control_c, 0, 67, 30
1, 383610, Control_c, 0, 64, 111
1, 383610, Control_c, 0, 67, 38
1, 383625, Control_c, 0, 64, 114
1, 383625, Control_c, 0, 67, 34
1, 383640, Control_c, 0, 64, 117
1, 383640, Control_c, 0, 67, 31
1, 383654, Control_c, 0, 64, 127
1, 383654, Control_c, 0, 67, 27
1, 383669, Control_c, 0, 67, 24
1, 383684, Control_c, 0, 67, 21
1, 383699, Control_c, 0, 67, 19
1, 383702, Note_on_c, 0, 55, 48
1, 383714, Control_c, 0, 67, 16
1, 383758, Control_c, 0, 67, 0
1, 383773, Note_off_c, 0, 55, 49
1, 383876, Note_on_c, 0, 55, 48
1, 383918, Note_off_c, 0, 55, 57
1, 384027, Note_on_c, 0, 55, 50
1, 384066, Note_off_c, 0, 55, 61
1, 384114, Note_off_c, 0, 79, 40
1, 384144, Note_off_c, 0, 83, 49
1, 384150, Note_off_c, 0, 86, 36
1, 384184, Note_on_c, 0, 55, 52
1, 384225, Note_off_c, 0, 55, 54
1, 384359, Control_c, 0, 64, 113
1, 384361, Note_on_c, 0, 55, 57
1, 384373, Control_c, 0, 64, 97
1, 384388, Control_c, 0, 64, 84
1, 384403, Control_c, 0, 64, 72
1, 384407, Note_off_c, 0, 67, 20
1, 384418, Control_c, 0, 64, 65
1, 384447, Control_c, 0, 64, 68
1, 384462, Control_c, 0, 64, 71
1, 384477, Control_c, 0, 64, 77
1, 384492, Control_c, 0, 64, 87
1, 384507, Control_c, 0, 64, 98
1, 384522, Control_c, 0, 64, 105
1, 384535, Note_on_c, 0, 56, 65
1, 384686, Note_on_c, 0, 57, 63
1, 384706, Note_off_c, 0, 55, 38
1, 384744, Note_off_c, 0, 56, 30
1, 384744, Control_c, 0, 64, 105
1, 384759, Control_c, 0, 64, 103
1, 384773, Control_c, 0, 64, 101
1, 384788, Control_c, 0, 64, 99
1, 384803, Control_c, 0, 64, 96
1, 384818, Control_c, 0, 64, 92
1, 384833, Control_c, 0, 64, 83
1, 384839, Note_off_c, 0, 57, 53
1, 384854, Note_on_c, 0, 74, 70
1, 384855, Control_c, 0, 64, 73
1, 384870, Control_c, 0, 64, 65
1, 384871, Note_on_c, 0, 58, 54
1, 384885, Control_c, 0, 64, 64
1, 384900, Control_c, 0, 64, 66
1, 384915, Note_off_c, 0, 58, 58
1, 384915, Control_c, 0, 64, 70
1, 384929, Control_c, 0, 64, 75
1, 384944, Control_c, 0, 64, 86
1, 384959, Control_c, 0, 64, 97
1, 384973, Control_c, 0, 64, 104
1, 384988, Control_c, 0, 64, 105
1, 385031, Note_on_c, 0, 58, 57
1, 385048, Control_c, 0, 64, 105
1, 385070, Note_off_c, 0, 58, 58
1, 385190, Note_on_c, 0, 58, 53
1, 385235, Note_off_c, 0, 58, 57
1, 385241, Control_c, 0, 64, 105
1, 385256, Control_c, 0, 64, 103
1, 385263, Note_on_c, 0, 75, 57
1, 385270, Control_c, 0, 64, 101
1, 385279, Note_off_c, 0, 74, 0
1, 385285, Control_c, 0, 64, 98
1, 385300, Control_c, 0, 64, 94
1, 385315, Control_c, 0, 64, 89
1, 385330, Control_c, 0, 64, 79
1, 385342, Note_on_c, 0, 77, 69
1, 385344, Poly_aftertouch_c, 0, 74, 0
1, 385345, Control_c, 0, 64, 68
1, 385355, Note_off_c, 0, 75, 54
1, 385360, Control_c, 0, 64, 62
1, 385363, Note_on_c, 0, 58, 47
1, 385389, Control_c, 0, 64, 65
1, 385404, Control_c, 0, 64, 69
1, 385408, Note_off_c, 0, 58, 60
1, 385419, Control_c, 0, 64, 74
1, 385434, Control_c, 0, 64, 84
1, 385449, Control_c, 0, 64, 97
1, 385464, Control_c, 0, 64, 103
1, 385508, Control_c, 0, 64, 104
1, 385522, Control_c, 0, 64, 105
1, 385536, Note_on_c, 0, 58, 48
1, 385537, Control_c, 0, 64, 105
1, 385552, Control_c, 0, 64, 106
1, 385556, Note_off_c, 0, 77, 51
1, 385565, Note_off_c, 0, 58, 54
1, 385582, Control_c, 0, 64, 107
1, 385711, Note_on_c, 0, 58, 45
1, 385752, Note_on_c, 0, 65, 38
1, 385756, Note_off_c, 0, 58, 58
1, 385783, Note_off_c, 0, 65, 53
1, 385841, Control_c, 0, 64, 106
1, 385856, Control_c, 0, 64, 103
1, 385870, Control_c, 0, 64, 96
1, 385880, Note_on_c, 0, 65, 62
1, 385881, Note_on_c, 0, 77, 71
1, 385884, Note_on_c, 0, 68, 70
1, 385885, Control_c, 0, 64, 85
1, 385887, Note_on_c, 0, 58, 50
1, 385888, Note_on_c, 0, 71, 65
1, 385895, Note_on_c, 0, 74, 67
1, 385901, Control_c, 0, 64, 74
1, 385916, Control_c, 0, 64, 69
1, 385932, Control_c, 0, 64, 69
1, 385945, Note_off_c, 0, 58, 54
1, 385947, Control_c, 0, 64, 73
1, 385957, Note_off_c, 0, 65, 56
1, 385961, Control_c, 0, 64, 79
1, 385976, Control_c, 0, 64, 89
1, 385991, Control_c, 0, 64, 98
1, 386006, Control_c, 0, 64, 102
1, 386021, Control_c, 0, 64, 103
1, 386035, Control_c, 0, 64, 104
1, 386050, Control_c, 0, 64, 105
1, 386062, Note_on_c, 0, 58, 61
1, 386063, Note_on_c, 0, 65, 54
1, 386065, Control_c, 0, 64, 109
1, 386080, Control_c, 0, 64, 114
1, 386094, Control_c, 0, 64, 122
1, 386101, Note_off_c, 0, 58, 58
1, 386101, Note_off_c, 0, 65, 57
1, 386109, Control_c, 0, 64, 127
1, 386196, Note_off_c, 0, 71, 60
1, 386199, Note_off_c, 0, 74, 58
1, 386217, Note_on_c, 0, 58, 62
1, 386218, Note_off_c, 0, 77, 36
1, 386221, Note_on_c, 0, 65, 65
1, 386233, Note_off_c, 0, 68, 36
1, 386251, Note_off_c, 0, 65, 63
1, 386260, Note_off_c, 0, 58, 56
1, 386353, Control_c, 0, 64, 124
1, 386368, Control_c, 0, 64, 113
1, 386383, Control_c, 0, 64, 99
1, 386394, Note_on_c, 0, 58, 51
1, 386398, Control_c, 0, 64, 84
1, 386403, Note_on_c, 0, 77, 78
1, 386406, Note_on_c, 0, 70, 73
1, 386409, Note_on_c, 0, 62, 58
1, 386413, Control_c, 0, 64, 72
1, 386415, Note_on_c, 0, 68, 67
1, 386427, Control_c, 0, 64, 69
1, 386442, Control_c, 0, 64, 69
1, 386452, Note_off_c, 0, 58, 56
1, 386457, Note_off_c, 0, 62, 56
1, 386457, Control_c, 0, 64, 72
1, 386472, Control_c, 0, 64, 78
1, 386487, Control_c, 0, 64, 87
1, 386501, Control_c, 0, 64, 97
1, 386516, Control_c, 0, 64, 102
1, 386531, Control_c, 0, 64, 103
1, 386546, Control_c, 0, 64, 103
1, 386561, Control_c, 0, 64, 104
1, 386576, Note_on_c, 0, 58, 58
1, 386576, Control_c, 0, 64, 106
1, 386576, Note_on_c, 0, 62, 65
1, 386591, Control_c, 0, 64, 109
1, 386606, Control_c, 0, 64, 112
1, 386619, Note_off_c, 0, 58, 58
1, 386620, Control_c, 0, 64, 114
1, 386620, Note_off_c, 0, 62, 50
1, 386635, Control_c, 0, 64, 115
1, 386649, Control_c, 0, 64, 115
1, 386664, Control_c, 0, 64, 116
1, 386673, Note_off_c, 0, 70, 53
1, 386673, Note_off_c, 0, 77, 48
1, 386684, Note_off_c, 0, 68, 36
1, 386731, Note_on_c, 0, 58, 62
1, 386739, Note_on_c, 0, 62, 63
1, 386773, Note_off_c, 0, 62, 56
1, 386781, Note_off_c, 0, 58, 53
1, 386842, Control_c, 0, 64, 115
1, 386857, Control_c, 0, 64, 113
1, 386872, Control_c, 0, 64, 108
1, 386887, Control_c, 0, 64, 100
1, 386902, Control_c, 0, 64, 88
1, 386904, Note_on_c, 0, 70, 68
1, 386909, Note_on_c, 0, 68, 64
1, 386913, Note_on_c, 0, 58, 59
1, 386913, Note_on_c, 0, 75, 59
1, 386917, Control_c, 0, 64, 75
1, 386931, Control_c, 0, 64, 68
1, 386946, Control_c, 0, 64, 67
1, 386954, Note_off_c, 0, 58, 56
1, 386957, Note_off_c, 0, 75, 60
1, 386961, Control_c, 0, 64, 69
1, 386969, Note_on_c, 0, 77, 67
1, 386975, Control_c, 0, 64, 73
1, 386990, Control_c, 0, 64, 79
1, 387005, Control_c, 0, 64, 87
1, 387020, Control_c, 0, 64, 92
1, 387028, Note_on_c, 0, 75, 77
1, 387035, Control_c, 0, 64, 94
1, 387073, Note_off_c, 0, 77, 55
1, 387083, Note_on_c, 0, 58, 53
1, 387101, Control_c, 0, 64, 95
1, 387116, Control_c, 0, 64, 96
1, 387131, Control_c, 0, 64, 97
1, 387146, Control_c, 0, 64, 98
1, 387147, Note_off_c, 0, 58, 58
1, 387175, Control_c, 0, 64, 99
1, 387190, Control_c, 0, 64, 99
1, 387205, Control_c, 0, 64, 100
1, 387220, Control_c, 0, 64, 101
1, 387235, Control_c, 0, 64, 103
1, 387249, Control_c, 0, 64, 104
1, 387250, Note_on_c, 0, 58, 58
1, 387264, Control_c, 0, 64, 105
1, 387279, Control_c, 0, 64, 107
1, 387294, Control_c, 0, 64, 108
1, 387327, Note_on_c, 0, 74, 78
1, 387336, Note_off_c, 0, 70, 55
1, 387338, Note_off_c, 0, 68, 55
1, 387356, Note_off_c, 0, 75, 58
1, 387392, Note_off_c, 0, 74, 58
1, 387398, Control_c, 0, 64, 106
1, 387413, Control_c, 0, 64, 104
1, 387428, Control_c, 0, 64, 100
1, 387434, Note_off_c, 0, 58, 38
1, 387442, Control_c, 0, 64, 93
1, 387446, Note_on_c, 0, 70, 83
1, 387448, Note_on_c, 0, 79, 82
1, 387453, Note_on_c, 0, 63, 59
1, 387457, Control_c, 0, 64, 81
1, 387472, Control_c, 0, 64, 69
1, 387487, Control_c, 0, 64, 61
1, 387497, Note_off_c, 0, 63, 57
1, 387518, Control_c, 0, 64, 63
1, 387533, Control_c, 0, 64, 65
1, 387547, Control_c, 0, 64, 69
1, 387562, Control_c, 0, 64, 75
1, 387577, Control_c, 0, 64, 85
1, 387591, Control_c, 0, 64, 99
1, 387606, Control_c, 0, 64, 105
1, 387619, Note_on_c, 0, 63, 62
1, 387651, Control_c, 0, 64, 106
1, 387665, Control_c, 0, 64, 106
1, 387668, Note_off_c, 0, 63, 57
1, 387680, Control_c, 0, 64, 107
1, 387695, Control_c, 0, 64, 107
1, 387785, Note_on_c, 0, 63, 61
1, 387804, Note_off_c, 0, 70, 57
1, 387819, Note_off_c, 0, 63, 60
1, 387880, Control_c, 0, 64, 107
1, 387895, Control_c, 0, 64, 106
1, 387910, Control_c, 0, 64, 105
1, 387924, Control_c, 0, 64, 103
1, 387939, Control_c, 0, 64, 98
1, 387954, Control_c, 0, 64, 88
1, 387965, Note_on_c, 0, 74, 80
1, 387969, Control_c, 0, 64, 78
1, 387972, Note_on_c, 0, 68, 69
1, 387973, Note_on_c, 0, 59, 51
1, 387980, Note_on_c, 0, 65, 51
1, 387984, Control_c, 0, 64, 70
1, 387986, Note_on_c, 0, 62, 50
1, 387998, Control_c, 0, 64, 69
1, 388013, Note_off_c, 0, 59, 51
1, 388013, Control_c, 0, 64, 71
1, 388027, Note_off_c, 0, 65, 57
1, 388028, Control_c, 0, 64, 74
1, 388029, Note_off_c, 0, 62, 56
1, 388043, Control_c, 0, 64, 80
1, 388058, Control_c, 0, 64, 87
1, 388072, Control_c, 0, 64, 94
1, 388087, Control_c, 0, 64, 98
1, 388102, Control_c, 0, 64, 100
1, 388117, Control_c, 0, 64, 102
1, 388132, Control_c, 0, 64, 105
1, 388147, Control_c, 0, 64, 109
1, 388152, Note_on_c, 0, 59, 39
1, 388152, Note_on_c, 0, 62, 58
1, 388159, Note_on_c, 0, 65, 55
1, 388162, Control_c, 0, 64, 113
1, 388177, Control_c, 0, 64, 119
1, 388191, Control_c, 0, 64, 127
1, 388195, Note_off_c, 0, 65, 58
1, 388204, Note_off_c, 0, 59, 45
1, 388212, Note_off_c, 0, 62, 47
1, 388233, Note_on_c, 0, 77, 71
1, 388271, Note_off_c, 0, 68, 39
1, 388280, Note_off_c, 0, 74, 58
1, 388327, Note_on_c, 0, 59, 49
1, 388331, Note_on_c, 0, 62, 53
1, 388332, Note_on_c, 0, 65, 52
1, 388376, Note_off_c, 0, 62, 56
1, 388382, Note_off_c, 0, 59, 56
1, 388391, Note_off_c, 0, 65, 55
1, 388451, Note_off_c, 0, 79, 35
1, 388488, Control_c, 0, 64, 109
1, 388502, Note_on_c, 0, 75, 81
1, 388503, Control_c, 0, 64, 75
1, 388507, Note_on_c, 0, 67, 72
1, 388509, Note_on_c, 0, 60, 54
1, 388513, Note_on_c, 0, 63, 55
1, 388518, Control_c, 0, 64, 52
1, 388533, Control_c, 0, 64, 0
1, 388577, Control_c, 0, 64, 47
1, 388578, Note_off_c, 0, 63, 56
1, 388580, Note_off_c, 0, 60, 54
1, 388594, Note_off_c, 0, 77, 35
1, 388600, Control_c, 0, 64, 68
1, 388615, Control_c, 0, 64, 85
1, 388629, Control_c, 0, 64, 127
1, 388671, Note_on_c, 0, 60, 50
1, 388678, Note_on_c, 0, 63, 56
1, 388701, Note_off_c, 0, 75, 60
1, 388711, Note_off_c, 0, 67, 59
1, 388726, Note_off_c, 0, 63, 50
1, 388729, Note_off_c, 0, 60, 49
1, 388820, Note_on_c, 0, 60, 53
1, 388834, Note_on_c, 0, 63, 51
1, 388855, Note_off_c, 0, 63, 62
1, 388858, Note_off_c, 0, 60, 59
1, 388984, Control_c, 0, 64, 118
1, 388999, Control_c, 0, 64, 90
1, 389011, Note_on_c, 0, 74, 76
1, 389013, Note_on_c, 0, 65, 71
1, 389014, Control_c, 0, 64, 70
1, 389016, Note_on_c, 0, 68, 70
1, 389017, Note_on_c, 0, 56, 55
1, 389020, Note_on_c, 0, 53, 53
1, 389029, Control_c, 0, 64, 63
1, 389059, Control_c, 0, 64, 65
1, 389072, Note_off_c, 0, 53, 53
1, 389073, Control_c, 0, 64, 70
1, 389088, Control_c, 0, 64, 77
1, 389090, Note_off_c, 0, 56, 55
1, 389103, Control_c, 0, 64, 88
1, 389118, Control_c, 0, 64, 102
1, 389133, Control_c, 0, 64, 106
1, 389187, Note_on_c, 0, 56, 53
1, 389194, Note_on_c, 0, 53, 56
1, 389210, Note_off_c, 0, 74, 58
1, 389211, Note_off_c, 0, 65, 47
1, 389223, Control_c, 0, 64, 108
1, 389226, Note_off_c, 0, 53, 59
1, 389235, Note_off_c, 0, 56, 55
1, 389237, Control_c, 0, 64, 109
1, 389252, Control_c, 0, 64, 110
1, 389267, Control_c, 0, 64, 112
1, 389282, Control_c, 0, 64, 112
1, 389296, Control_c, 0, 64, 113
1, 389328, Note_on_c, 0, 53, 53
1, 389345, Note_on_c, 0, 56, 62
1, 389424, Note_off_c, 0, 56, 47
1, 389428, Note_on_c, 0, 72, 71
1, 389435, Note_on_c, 0, 63, 72
1, 389449, Note_off_c, 0, 68, 36
1, 389455, Note_off_c, 0, 53, 35
1, 389480, Note_off_c, 0, 63, 60
1, 389491, Note_off_c, 0, 72, 58
1, 389496, Control_c, 0, 64, 111
1, 389511, Control_c, 0, 64, 105
1, 389526, Control_c, 0, 64, 88
1, 389541, Control_c, 0, 64, 71
1, 389545, Note_on_c, 0, 67, 69
1, 389546, Note_on_c, 0, 55, 70
1, 389546, Note_on_c, 0, 71, 76
1, 389553, Note_on_c, 0, 62, 69
1, 389556, Control_c, 0, 64, 59
1, 389570, Control_c, 0, 64, 55
1, 389585, Control_c, 0, 64, 57
1, 389600, Control_c, 0, 64, 63
1, 389604, Note_off_c, 0, 55, 55
1, 389615, Control_c, 0, 64, 67
1, 389630, Control_c, 0, 64, 74
1, 389645, Control_c, 0, 64, 83
1, 389660, Control_c, 0, 64, 93
1, 389675, Control_c, 0, 64, 99
1, 389690, Control_c, 0, 64, 100
1, 389719, Note_on_c, 0, 55, 67
1, 389734, Control_c, 0, 64, 100
1, 389764, Control_c, 0, 64, 101
1, 389772, Note_off_c, 0, 55, 50
1, 389778, Control_c, 0, 64, 101
1, 389822, Note_off_c, 0, 71, 51
1, 389863, Note_off_c, 0, 67, 32
1, 389867, Note_off_c, 0, 62, 33
1, 389876, Note_on_c, 0, 55, 64
1, 389906, Note_off_c, 0, 55, 60
1, 390001, Control_c, 0, 64, 101
1, 390016, Control_c, 0, 64, 98
1, 390031, Control_c, 0, 64, 91
1, 390046, Note_on_c, 0, 67, 75
1, 390046, Note_on_c, 0, 69, 77
1, 390046, Control_c, 0, 64, 77
1, 390047, Note_on_c, 0, 62, 73
1, 390052, Note_on_c, 0, 55, 50
1, 390055, Note_on_c, 0, 53, 68
1, 390060, Control_c, 0, 64, 66
1, 390075, Control_c, 0, 64, 63
1, 390098, Control_c, 0, 64, 64
1, 390108, Note_off_c, 0, 55, 58
1, 390113, Control_c, 0, 64, 66
1, 390127, Control_c, 0, 64, 70
1, 390142, Control_c, 0, 64, 78
1, 390157, Control_c, 0, 64, 87
1, 390172, Control_c, 0, 64, 95
1, 390187, Control_c, 0, 64, 98
1, 390194, Note_off_c, 0, 53, 0
1, 390194, Note_on_c, 0, 53, 7
1, 390216, Note_on_c, 0, 55, 66
1, 390231, Control_c, 0, 64, 98
1, 390246, Control_c, 0, 64, 99
1, 390254, Note_off_c, 0, 55, 58
1, 390261, Control_c, 0, 64, 100
1, 390275, Control_c, 0, 64, 101
1, 390290, Control_c, 0, 64, 102
1, 390305, Control_c, 0, 64, 102
1, 390320, Control_c, 0, 64, 103
1, 390350, Control_c, 0, 64, 103
1, 390367, Note_on_c, 0, 55, 62
1, 390379, Control_c, 0, 64, 104
1, 390392, Control_c, 0, 64, 104
1, 390453, Note_on_c, 0, 71, 71
1, 390454, Note_off_c, 0, 55, 35
1, 390469, Note_off_c, 0, 53, 40
1, 390475, Note_off_c, 0, 69, 58
1, 390497, Note_off_c, 0, 71, 61
1, 390507, Note_off_c, 0, 67, 39
1, 390524, Note_off_c, 0, 62, 36
1, 390525, Control_c, 0, 64, 102
1, 390540, Control_c, 0, 64, 91
1, 390544, Note_on_c, 0, 72, 86
1, 390548, Note_on_c, 0, 67, 64
1, 390553, Note_on_c, 0, 60, 76
1, 390555, Control_c, 0, 64, 77
1, 390558, Note_on_c, 0, 55, 64
1, 390560, Note_on_c, 0, 51, 59
1, 390570, Control_c, 0, 64, 65
1, 390585, Control_c, 0, 64, 62
1, 390600, Control_c, 0, 64, 63
1, 390615, Control_c, 0, 64, 66
1, 390617, Note_off_c, 0, 55, 56
1, 390630, Control_c, 0, 64, 71
1, 390644, Control_c, 0, 64, 81
1, 390659, Control_c, 0, 64, 94
1, 390674, Control_c, 0, 64, 104
1, 390689, Control_c, 0, 64, 106
1, 390695, Note_off_c, 0, 60, 55
1, 390728, Note_on_c, 0, 55, 64
1, 390735, Note_off_c, 0, 67, 60
1, 390740, Note_off_c, 0, 72, 60
1, 390749, Control_c, 0, 64, 107
1, 390764, Control_c, 0, 64, 108
1, 390779, Control_c, 0, 64, 109
1, 390791, Note_off_c, 0, 55, 39
1, 390794, Control_c, 0, 64, 109
1, 390809, Control_c, 0, 64, 110
1, 390860, Control_c, 0, 64, 110
1, 390886, Note_on_c, 0, 55, 63
1, 390928, Note_off_c, 0, 55, 61
1, 390931, Note_off_c, 0, 51, 51
1, 390993, Control_c, 0, 64, 110
1, 391008, Control_c, 0, 64, 108
1, 391023, Control_c, 0, 64, 104
1, 391038, Control_c, 0, 64, 95
1, 391038, Note_on_c, 0, 77, 85
1, 391043, Note_on_c, 0, 74, 80
1, 391045, Note_on_c, 0, 67, 81
1, 391047, Note_on_c, 0, 55, 58
1, 391053, Control_c, 0, 64, 82
1, 391058, Note_on_c, 0, 48, 54
1, 391067, Control_c, 0, 64, 68
1, 391082, Control_c, 0, 64, 61
1, 391097, Control_c, 0, 64, 59
1, 391112, Control_c, 0, 64, 61
1, 391127, Control_c, 0, 64, 65
1, 391133, Note_off_c, 0, 55, 54
1, 391141, Control_c, 0, 64, 69
1, 391156, Control_c, 0, 64, 74
1, 391171, Control_c, 0, 64, 83
1, 391186, Control_c, 0, 64, 92
1, 391201, Control_c, 0, 64, 98
1, 391215, Control_c, 0, 64, 98
1, 391220, Note_on_c, 0, 55, 64
1, 391230, Control_c, 0, 64, 99
1, 391245, Control_c, 0, 64, 102
1, 391259, Control_c, 0, 64, 106
1, 391273, Note_off_c, 0, 55, 55
1, 391274, Control_c, 0, 64, 110
1, 391289, Control_c, 0, 64, 115
1, 391304, Control_c, 0, 64, 119
1, 391319, Control_c, 0, 64, 127
1, 391357, Note_on_c, 0, 55, 60
1, 391415, Note_off_c, 0, 67, 0
1, 391415, Note_on_c, 0, 67, 6
1, 391424, Note_off_c, 0, 55, 56
1, 391430, Note_on_c, 0, 75, 68
1, 391432, Note_off_c, 0, 48, 55
1, 391444, Note_on_c, 0, 72, 64
1, 391473, Note_off_c, 0, 77, 41
1, 391479, Note_off_c, 0, 72, 60
1, 391480, Note_off_c, 0, 74, 23
1, 391484, Note_off_c, 0, 67, 54
1, 391506, Note_off_c, 0, 75, 59
1, 391572, Control_c, 0, 64, 111
1, 391588, Note_on_c, 0, 71, 76
1, 391589, Note_on_c, 0, 55, 51
1, 391590, Note_on_c, 0, 74, 82
1, 391594, Control_c, 0, 64, 97
1, 391595, Note_on_c, 0, 67, 71
1, 391598, Note_on_c, 0, 43, 65
1, 391609, Control_c, 0, 64, 82
1, 391624, Control_c, 0, 64, 68
1, 391639, Control_c, 0, 64, 59
1, 391653, Control_c, 0, 64, 55
1, 391660, Note_off_c, 0, 55, 59
1, 391668, Control_c, 0, 64, 55
1, 391683, Control_c, 0, 64, 60
1, 391697, Control_c, 0, 64, 65
1, 391712, Control_c, 0, 64, 70
1, 391727, Control_c, 0, 64, 76
1, 391742, Control_c, 0, 64, 86
1, 391757, Control_c, 0, 64, 95
1, 391771, Control_c, 0, 64, 98
1, 391773, Note_on_c, 0, 55, 53
1, 391801, Control_c, 0, 64, 99
1, 391816, Control_c, 0, 64, 100
1, 391818, Note_off_c, 0, 55, 57
1, 391831, Control_c, 0, 64, 102
1, 391846, Control_c, 0, 64, 103
1, 391861, Control_c, 0, 64, 103
1, 391876, Control_c, 0, 64, 104
1, 391890, Control_c, 0, 64, 104
1, 391905, Control_c, 0, 64, 105
1, 391920, Control_c, 0, 64, 105
1, 391925, Note_on_c, 0, 55, 54
1, 391935, Control_c, 0, 64, 106
1, 391950, Control_c, 0, 64, 107
1, 391959, Note_off_c, 0, 55, 60
1, 391964, Control_c, 0, 64, 108
1, 391994, Control_c, 0, 64, 108
1, 392009, Control_c, 0, 64, 109
1, 392024, Control_c, 0, 64, 111
1, 392038, Control_c, 0, 64, 113
1, 392053, Control_c, 0, 64, 117
1, 392063, Note_on_c, 0, 55, 56
1, 392068, Control_c, 0, 64, 122
1, 392082, Control_c, 0, 64, 127
1, 392121, Note_off_c, 0, 55, 55
1, 392126, Note_off_c, 0, 67, 54
1, 392170, Note_off_c, 0, 71, 57
1, 392171, Note_off_c, 0, 74, 56
1, 392236, Note_on_c, 0, 55, 58
1, 392269, Note_off_c, 0, 55, 62
1, 392388, Note_on_c, 0, 55, 60
1, 392478, Note_off_c, 0, 55, 35
1, 392520, Note_off_c, 0, 43, 30
1, 392538, Note_on_c, 0, 55, 57
1, 392599, Note_off_c, 0, 55, 52
1, 392695, Note_on_c, 0, 55, 59
1, 392752, Note_off_c, 0, 55, 54
1, 392853, Note_on_c, 0, 55, 61
1, 392898, Note_off_c, 0, 55, 57
1, 392994, Control_c, 0, 64, 110
1, 393000, Note_on_c, 0, 59, 74
1, 393004, Note_on_c, 0, 67, 74
1, 393004, Note_on_c, 0, 71, 78
1, 393009, Control_c, 0, 64, 84
1, 393018, Note_on_c, 0, 55, 61
1, 393024, Control_c, 0, 64, 74
1, 393038, Control_c, 0, 64, 72
1, 393053, Control_c, 0, 64, 75
1, 393060, Note_off_c, 0, 55, 52
1, 393068, Control_c, 0, 64, 81
1, 393091, Control_c, 0, 64, 92
1, 393106, Control_c, 0, 64, 127
1, 393139, Note_off_c, 0, 59, 57
1, 393171, Note_on_c, 0, 55, 69
1, 393178, Note_off_c, 0, 67, 60
1, 393182, Note_off_c, 0, 71, 61
1, 393218, Note_off_c, 0, 55, 55
1, 393321, Note_on_c, 0, 55, 61
1, 393379, Note_on_c, 0, 60, 71
1, 393383, Note_on_c, 0, 72, 72
1, 393386, Note_on_c, 0, 69, 68
1, 393394, Note_off_c, 0, 55, 37
1, 393408, Note_off_c, 0, 60, 61
1, 393413, Note_off_c, 0, 69, 64
1, 393425, Note_off_c, 0, 72, 59
1, 393491, Control_c, 0, 64, 84
1, 393492, Note_on_c, 0, 74, 81
1, 393503, Note_on_c, 0, 55, 65
1, 393506, Control_c, 0, 64, 63
1, 393507, Note_on_c, 0, 71, 58
1, 393509, Note_on_c, 0, 62, 58
1, 393513, Note_on_c, 0, 60, 53
1, 393521, Control_c, 0, 64, 58
1, 393529, Note_on_c, 0, 72, 50
1, 393536, Control_c, 0, 64, 60
1, 393551, Control_c, 0, 64, 65
1, 393557, Note_off_c, 0, 55, 54
1, 393558, Note_off_c, 0, 72, 52
1, 393566, Control_c, 0, 64, 73
1, 393581, Control_c, 0, 64, 87
1, 393596, Control_c, 0, 64, 123
1, 393610, Control_c, 0, 64, 127
1, 393667, Note_on_c, 0, 55, 69
1, 393692, Note_off_c, 0, 60, 36
1, 393703, Note_off_c, 0, 55, 55
1, 393811, Note_on_c, 0, 55, 65
1, 393820, Note_off_c, 0, 74, 51
1, 393858, Note_off_c, 0, 55, 56
1, 393858, Note_off_c, 0, 62, 34
1, 393862, Note_off_c, 0, 71, 35
1, 393989, Control_c, 0, 64, 99
1, 393989, Note_on_c, 0, 55, 61
1, 393995, Note_on_c, 0, 71, 80
1, 393996, Note_on_c, 0, 54, 74
1, 393996, Note_on_c, 0, 62, 81
1, 393999, Note_on_c, 0, 74, 88
1, 394004, Control_c, 0, 64, 80
1, 394019, Control_c, 0, 64, 70
1, 394033, Control_c, 0, 64, 69
1, 394048, Note_off_c, 0, 55, 56
1, 394048, Control_c, 0, 64, 72
1, 394057, Note_off_c, 0, 54, 57
1, 394063, Control_c, 0, 64, 80
1, 394078, Control_c, 0, 64, 94
1, 394092, Control_c, 0, 64, 119
1, 394107, Control_c, 0, 64, 127
1, 394158, Note_on_c, 0, 54, 73
1, 394171, Note_on_c, 0, 55, 65
1, 394221, Note_off_c, 0, 55, 52
1, 394227, Note_off_c, 0, 54, 57
1, 394305, Note_on_c, 0, 55, 66
1, 394305, Note_off_c, 0, 71, 49
1, 394305, Note_on_c, 0, 54, 71
1, 394341, Note_off_c, 0, 62, 35
1, 394368, Note_off_c, 0, 74, 36
1, 394371, Note_off_c, 0, 54, 59
1, 394386, Note_off_c, 0, 55, 36
1, 394448, Control_c, 0, 64, 110
1, 394463, Control_c, 0, 64, 88
1, 394470, Note_on_c, 0, 53, 78
1, 394474, Note_on_c, 0, 62, 82
1, 394476, Note_on_c, 0, 55, 68
1, 394476, Note_on_c, 0, 71, 76
1, 394478, Control_c, 0, 64, 73
1, 394478, Note_on_c, 0, 74, 83
1, 394492, Control_c, 0, 64, 67
1, 394507, Control_c, 0, 64, 68
1, 394522, Control_c, 0, 64, 73
1, 394537, Control_c, 0, 64, 82
1, 394552, Control_c, 0, 64, 96
1, 394566, Control_c, 0, 64, 116
1, 394571, Note_off_c, 0, 53, 49
1, 394588, Control_c, 0, 64, 127
1, 394615, Note_off_c, 0, 55, 31
1, 394646, Note_on_c, 0, 55, 63
1, 394649, Note_on_c, 0, 52, 79
1, 394686, Note_off_c, 0, 62, 56
1, 394704, Note_off_c, 0, 71, 60
1, 394727, Note_off_c, 0, 74, 56
1, 394735, Note_off_c, 0, 52, 53
1, 394736, Note_off_c, 0, 55, 52
1, 394788, Note_on_c, 0, 55, 67
1, 394791, Note_on_c, 0, 50, 80
1, 394862, Note_off_c, 0, 55, 57
1, 394869, Note_off_c, 0, 50, 58
1, 394930, Control_c, 0, 64, 124
1, 394945, Control_c, 0, 64, 93
1, 394952, Note_on_c, 0, 48, 76
1, 394958, Note_on_c, 0, 64, 83
1, 394960, Control_c, 0, 64, 79
1, 394961, Note_on_c, 0, 76, 86
1, 394961, Note_on_c, 0, 55, 69
1, 394964, Note_on_c, 0, 72, 80
1, 394975, Control_c, 0, 64, 73
1, 394989, Control_c, 0, 64, 76
1, 395004, Control_c, 0, 64, 85
1, 395019, Control_c, 0, 64, 101
1, 395024, Note_off_c, 0, 48, 60
1, 395026, Note_off_c, 0, 55, 57
1, 395033, Control_c, 0, 64, 127
1, 395091, Note_off_c, 0, 64, 56
1, 395104, Note_off_c, 0, 72, 60
1, 395116, Note_on_c, 0, 47, 79
1, 395126, Note_off_c, 0, 76, 58
1, 395131, Note_on_c, 0, 55, 74
1, 395192, Note_off_c, 0, 55, 56
1, 395195, Note_off_c, 0, 47, 59
1, 395269, Note_on_c, 0, 46, 83
1, 395279, Note_on_c, 0, 55, 76
1, 395375, Note_on_c, 0, 65, 87
1, 395377, Note_on_c, 0, 74, 85
1, 395377, Note_off_c, 0, 55, 54
1, 395381, Note_off_c, 0, 46, 58
1, 395381, Note_on_c, 0, 77, 80
1, 395423, Note_off_c, 0, 65, 60
1, 395440, Note_off_c, 0, 74, 61
1, 395457, Note_off_c, 0, 77, 60
1, 395591, Note_on_c, 0, 67, 88
1, 395592, Note_on_c, 0, 55, 64
1, 395592, Note_on_c, 0, 76, 84
1, 395595, Note_on_c, 0, 45, 66
1, 395596, Note_on_c, 0, 79, 84
1, 395605, Control_c, 0, 64, 122
1, 395620, Control_c, 0, 64, 93
1, 395635, Control_c, 0, 64, 76
1, 395650, Control_c, 0, 64, 64
1, 395665, Control_c, 0, 64, 58
1, 395679, Control_c, 0, 64, 59
1, 395694, Control_c, 0, 64, 63
1, 395709, Control_c, 0, 64, 68
1, 395724, Control_c, 0, 64, 75
1, 395727, Note_off_c, 0, 55, 57
1, 395730, Note_off_c, 0, 45, 57
1, 395739, Control_c, 0, 64, 88
1, 395754, Control_c, 0, 64, 116
1, 395769, Control_c, 0, 64, 127
1, 395828, Note_on_c, 0, 55, 64
1, 395828, Note_on_c, 0, 45, 64
1, 395880, Note_off_c, 0, 55, 54
1, 395905, Note_off_c, 0, 45, 49
1, 395977, Note_on_c, 0, 45, 58
1, 395982, Note_on_c, 0, 55, 66
1, 396022, Note_off_c, 0, 79, 52
1, 396033, Note_off_c, 0, 55, 56
1, 396043, Note_off_c, 0, 67, 56
1, 396052, Note_off_c, 0, 45, 53
1, 396055, Note_off_c, 0, 76, 57
1, 396149, Note_on_c, 0, 55, 71
1, 396150, Note_on_c, 0, 45, 62
1, 396194, Note_off_c, 0, 55, 51
1, 396201, Note_off_c, 0, 45, 53
1, 396315, Note_on_c, 0, 55, 64
1, 396317, Note_on_c, 0, 45, 61
1, 396357, Note_off_c, 0, 45, 55
1, 396368, Note_off_c, 0, 55, 48
1, 396396, Note_on_c, 0, 65, 77
1, 396396, Note_on_c, 0, 77, 76
1, 396398, Note_on_c, 0, 74, 82
1, 396461, Note_off_c, 0, 77, 59
1, 396470, Note_off_c, 0, 74, 62
1, 396478, Note_off_c, 0, 65, 56
1, 396511, Note_on_c, 0, 55, 61
1, 396513, Note_on_c, 0, 45, 61
1, 396559, Note_off_c, 0, 55, 53
1, 396569, Note_off_c, 0, 45, 56
1, 396621, Control_c, 0, 64, 114
1, 396636, Control_c, 0, 64, 102
1, 396651, Control_c, 0, 64, 90
1, 396666, Control_c, 0, 64, 77
1, 396680, Control_c, 0, 64, 65
1, 396682, Note_on_c, 0, 73, 79
1, 396683, Note_on_c, 0, 76, 83
1, 396684, Note_on_c, 0, 64, 77
1, 396690, Note_on_c, 0, 45, 53
1, 396695, Control_c, 0, 64, 62
1, 396696, Note_on_c, 0, 55, 52
1, 396710, Control_c, 0, 64, 63
1, 396725, Control_c, 0, 64, 66
1, 396740, Control_c, 0, 64, 70
1, 396746, Note_off_c, 0, 55, 57
1, 396750, Note_off_c, 0, 45, 53
1, 396754, Control_c, 0, 64, 76
1, 396769, Control_c, 0, 64, 87
1, 396784, Control_c, 0, 64, 101
1, 396798, Control_c, 0, 64, 110
1, 396813, Control_c, 0, 64, 111
1, 396851, Control_c, 0, 64, 112
1, 396866, Control_c, 0, 64, 113
1, 396875, Note_on_c, 0, 45, 58
1, 396875, Note_on_c, 0, 55, 54
1, 396895, Control_c, 0, 64, 114
1, 396902, Note_off_c, 0, 45, 58
1, 396902, Note_off_c, 0, 55, 55
1, 396910, Control_c, 0, 64, 115
1, 396925, Note_off_c, 0, 76, 53
1, 396925, Control_c, 0, 64, 116
1, 396940, Control_c, 0, 64, 117
1, 396954, Control_c, 0, 64, 117
1, 396966, Note_off_c, 0, 64, 50
1, 396996, Note_off_c, 0, 73, 53
1, 397016, Note_on_c, 0, 45, 55
1, 397023, Note_on_c, 0, 55, 51
1, 397063, Note_off_c, 0, 55, 56
1, 397072, Note_off_c, 0, 45, 51
1, 397147, Control_c, 0, 64, 118
1, 397162, Control_c, 0, 64, 122
1, 397176, Control_c, 0, 64, 127
1, 397190, Note_on_c, 0, 55, 53
1, 397198, Note_on_c, 0, 45, 58
1, 397231, Note_off_c, 0, 55, 56
1, 397244, Note_off_c, 0, 45, 55
1, 397361, Note_on_c, 0, 45, 55
1, 397373, Note_on_c, 0, 55, 48
1, 397406, Note_off_c, 0, 55, 58
1, 397408, Note_off_c, 0, 45, 56
1, 397525, Note_on_c, 0, 45, 56
1, 397527, Note_on_c, 0, 55, 53
1, 397586, Note_off_c, 0, 55, 47
1, 397732, Control_c, 0, 64, 117
1, 397747, Control_c, 0, 64, 106
1, 397761, Note_on_c, 0, 64, 78
1, 397761, Control_c, 0, 64, 97
1, 397767, Note_on_c, 0, 55, 74
1, 397769, Note_on_c, 0, 61, 77
1, 397771, Note_off_c, 0, 45, 17
1, 397776, Control_c, 0, 64, 89
1, 397781, Note_on_c, 0, 46, 54
1, 397791, Control_c, 0, 64, 81
1, 397806, Control_c, 0, 64, 70
1, 397821, Control_c, 0, 64, 63
1, 397835, Control_c, 0, 64, 54
1, 397850, Control_c, 0, 64, 47
1, 397865, Control_c, 0, 64, 40
1, 397880, Control_c, 0, 64, 31
1, 397895, Control_c, 0, 64, 16
1, 397940, Control_c, 0, 64, 25
1, 397955, Control_c, 0, 64, 47
1, 397970, Control_c, 0, 64, 61
1, 397984, Note_on_c, 0, 45, 53
1, 397984, Control_c, 0, 64, 67
1, 397999, Control_c, 0, 64, 71
1, 398004, Note_off_c, 0, 46, 40
1, 398014, Control_c, 0, 64, 75
1, 398029, Control_c, 0, 64, 78
1, 398032, Note_off_c, 0, 45, 59
1, 398044, Control_c, 0, 64, 80
1, 398058, Control_c, 0, 64, 81
1, 398146, Note_on_c, 0, 45, 56
1, 398177, Control_c, 0, 64, 81
1, 398198, Note_off_c, 0, 45, 56
1, 398207, Control_c, 0, 64, 82
1, 398222, Control_c, 0, 64, 83
1, 398237, Control_c, 0, 64, 84
1, 398251, Note_off_c, 0, 61, 48
1, 398251, Control_c, 0, 64, 86
1, 398266, Control_c, 0, 64, 88
1, 398281, Control_c, 0, 64, 90
1, 398296, Control_c, 0, 64, 93
1, 398311, Control_c, 0, 64, 95
1, 398317, Note_on_c, 0, 45, 51
1, 398332, Control_c, 0, 64, 95
1, 398364, Note_off_c, 0, 45, 59
1, 398481, Control_c, 0, 64, 96
1, 398498, Note_on_c, 0, 45, 42
1, 398565, Note_on_c, 0, 65, 70
1, 398579, Note_off_c, 0, 45, 39
1, 398598, Note_off_c, 0, 64, 47
1, 398707, Note_on_c, 0, 45, 50
1, 398748, Control_c, 0, 64, 95
1, 398751, Note_off_c, 0, 45, 59
1, 398763, Control_c, 0, 64, 95
1, 398778, Control_c, 0, 64, 94
1, 398793, Control_c, 0, 64, 93
1, 398807, Control_c, 0, 64, 90
1, 398822, Control_c, 0, 64, 83
1, 398837, Control_c, 0, 64, 74
1, 398845, Note_on_c, 0, 64, 64
1, 398852, Control_c, 0, 64, 66
1, 398866, Note_on_c, 0, 45, 42
1, 398867, Control_c, 0, 64, 64
1, 398881, Control_c, 0, 64, 65
1, 398884, Note_off_c, 0, 65, 37
1, 398896, Control_c, 0, 64, 68
1, 398902, Note_off_c, 0, 45, 59
1, 398911, Control_c, 0, 64, 74
1, 398926, Control_c, 0, 64, 81
1, 398941, Control_c, 0, 64, 89
1, 398955, Control_c, 0, 64, 93
1, 398970, Control_c, 0, 64, 94
1, 399003, Note_off_c, 0, 55, 38
1, 399016, Note_on_c, 0, 45, 43
1, 399030, Control_c, 0, 64, 94
1, 399045, Control_c, 0, 64, 95
1, 399063, Note_off_c, 0, 45, 47
1, 399141, Control_c, 0, 64, 95
1, 399185, Note_on_c, 0, 45, 48
1, 399200, Control_c, 0, 64, 96
1, 399215, Control_c, 0, 64, 97
1, 399230, Control_c, 0, 64, 98
1, 399230, Note_off_c, 0, 45, 55
1, 399245, Control_c, 0, 64, 98
1, 399260, Control_c, 0, 64, 100
1, 399274, Control_c, 0, 64, 102
1, 399289, Control_c, 0, 64, 104
1, 399304, Control_c, 0, 64, 106
1, 399319, Control_c, 0, 64, 108
1, 399333, Control_c, 0, 64, 110
1, 399348, Control_c, 0, 64, 114
1, 399349, Note_on_c, 0, 45, 49
1, 399354, Note_off_c, 0, 64, 29
1, 399363, Control_c, 0, 64, 122
1, 399379, Control_c, 0, 64, 127
1, 399385, Note_off_c, 0, 45, 51
1, 399487, Note_on_c, 0, 45, 56
1, 399544, Note_off_c, 0, 45, 52
1, 399669, Note_on_c, 0, 45, 63
1, 399754, Note_off_c, 0, 45, 0
1, 399754, Note_on_c, 0, 45, 8
1, 399861, Control_c, 0, 64, 124
1, 399876, Control_c, 0, 64, 108
1, 399880, Note_on_c, 0, 77, 83
1, 399880, Note_on_c, 0, 74, 79
1, 399882, Note_on_c, 0, 65, 79
1, 399891, Control_c, 0, 64, 97
1, 399899, Note_on_c, 0, 44, 57
1, 399903, Note_off_c, 0, 45, 33
1, 399905, Control_c, 0, 64, 85
1, 399920, Control_c, 0, 64, 72
1, 399935, Control_c, 0, 64, 62
1, 399950, Control_c, 0, 64, 53
1, 399979, Control_c, 0, 64, 58
1, 399990, Note_off_c, 0, 44, 58
1, 399994, Control_c, 0, 64, 65
1, 400009, Control_c, 0, 64, 71
1, 400024, Control_c, 0, 64, 80
1, 400038, Control_c, 0, 64, 95
1, 400053, Control_c, 0, 64, 114
1, 400068, Control_c, 0, 64, 124
1, 400083, Control_c, 0, 64, 127
1, 400091, Note_on_c, 0, 44, 51
1, 400134, Note_off_c, 0, 44, 59
1, 400242, Note_on_c, 0, 44, 57
1, 400294, Note_off_c, 0, 77, 36
1, 400303, Note_off_c, 0, 44, 55
1, 400346, Note_off_c, 0, 65, 36
1, 400356, Note_off_c, 0, 74, 49
1, 400425, Note_on_c, 0, 44, 56
1, 400465, Note_off_c, 0, 44, 60
1, 400577, Note_on_c, 0, 44, 54
1, 400635, Note_off_c, 0, 44, 53
1, 400664, Note_on_c, 0, 75, 70
1, 400666, Note_on_c, 0, 63, 71
1, 400667, Note_on_c, 0, 72, 67
1, 400720, Note_off_c, 0, 72, 61
1, 400729, Note_off_c, 0, 63, 54
1, 400739, Note_off_c, 0, 75, 55
1, 400758, Control_c, 0, 64, 124
1, 400773, Control_c, 0, 64, 122
1, 400774, Note_on_c, 0, 44, 51
1, 400787, Control_c, 0, 64, 120
1, 400802, Control_c, 0, 64, 118
1, 400817, Control_c, 0, 64, 115
1, 400819, Note_off_c, 0, 44, 58
1, 400832, Control_c, 0, 64, 112
1, 400847, Control_c, 0, 64, 109
1, 400861, Control_c, 0, 64, 104
1, 400875, Control_c, 0, 64, 100
1, 400890, Control_c, 0, 64, 95
1, 400905, Control_c, 0, 64, 90
1, 400920, Control_c, 0, 64, 82
1, 400933, Note_on_c, 0, 74, 69
1, 400935, Control_c, 0, 64, 73
1, 400937, Note_on_c, 0, 62, 55
1, 400938, Note_on_c, 0, 71, 58
1, 400950, Control_c, 0, 64, 66
1, 400950, Note_on_c, 0, 44, 31
1, 400965, Control_c, 0, 64, 63
1, 400979, Control_c, 0, 64, 64
1, 400994, Control_c, 0, 64, 66
1, 400999, Note_off_c, 0, 44, 57
1, 401009, Control_c, 0, 64, 69
1, 401024, Control_c, 0, 64, 74
1, 401039, Control_c, 0, 64, 84
1, 401053, Control_c, 0, 64, 96
1, 401068, Control_c, 0, 64, 108
1, 401083, Control_c, 0, 64, 109
1, 401123, Note_on_c, 0, 44, 48
1, 401158, Note_off_c, 0, 44, 55
1, 401263, Note_off_c, 0, 74, 36
1, 401272, Note_on_c, 0, 44, 48
1, 401313, Note_off_c, 0, 62, 40
1, 401331, Note_off_c, 0, 44, 57
1, 401334, Note_off_c, 0, 71, 34
1, 401462, Note_on_c, 0, 44, 39
1, 401490, Note_off_c, 0, 44, 56
1, 401605, Note_on_c, 0, 44, 39
1, 401683, Note_off_c, 0, 44, 44
1, 401805, Note_on_c, 0, 44, 40
1, 401907, Control_c, 0, 64, 108
1, 401921, Control_c, 0, 64, 108
1, 401936, Control_c, 0, 64, 106
1, 401951, Control_c, 0, 64, 103
1, 401966, Control_c, 0, 64, 97
1, 401981, Control_c, 0, 64, 90
1, 401988, Note_on_c, 0, 53, 66
1, 401989, Note_on_c, 0, 62, 71
1, 401993, Note_on_c, 0, 59, 70
1, 401996, Control_c, 0, 64, 83
1, 402001, Note_on_c, 0, 43, 44
1, 402006, Note_off_c, 0, 44, 38
1, 402011, Control_c, 0, 64, 75
1, 402025, Control_c, 0, 64, 68
1, 402040, Control_c, 0, 64, 62
1, 402055, Control_c, 0, 64, 57
1, 402077, Control_c, 0, 64, 57
1, 402121, Control_c, 0, 64, 57
1, 402136, Control_c, 0, 64, 60
1, 402151, Control_c, 0, 64, 63
1, 402166, Control_c, 0, 64, 66
1, 402181, Control_c, 0, 64, 69
1, 402196, Control_c, 0, 64, 75
1, 402198, Note_on_c, 0, 44, 40
1, 402201, Note_off_c, 0, 43, 37
1, 402211, Control_c, 0, 64, 81
1, 402225, Control_c, 0, 64, 87
1, 402240, Control_c, 0, 64, 89
1, 402250, Note_off_c, 0, 44, 52
1, 402255, Control_c, 0, 64, 90
1, 402285, Control_c, 0, 64, 90
1, 402380, Note_on_c, 0, 44, 46
1, 402404, Control_c, 0, 64, 90
1, 402412, Note_off_c, 0, 44, 53
1, 402517, Note_on_c, 0, 44, 47
1, 402574, Note_off_c, 0, 59, 48
1, 402596, Control_c, 0, 64, 90
1, 402610, Note_off_c, 0, 44, 57
1, 402611, Control_c, 0, 64, 91
1, 402625, Control_c, 0, 64, 91
1, 402640, Control_c, 0, 64, 92
1, 402655, Control_c, 0, 64, 93
1, 402670, Control_c, 0, 64, 93
1, 402715, Control_c, 0, 64, 94
1, 402730, Control_c, 0, 64, 94
1, 402734, Note_on_c, 0, 44, 47
1, 402745, Control_c, 0, 64, 95
1, 402760, Control_c, 0, 64, 95
1, 402771, Note_off_c, 0, 44, 50
1, 402780, Note_on_c, 0, 63, 67
1, 402804, Note_off_c, 0, 62, 50
1, 402916, Note_on_c, 0, 44, 45
1, 402966, Note_off_c, 0, 44, 58
1, 403004, Control_c, 0, 64, 95
1, 403019, Control_c, 0, 64, 94
1, 403034, Control_c, 0, 64, 93
1, 403048, Control_c, 0, 64, 89
1, 403063, Control_c, 0, 64, 82
1, 403078, Control_c, 0, 64, 71
1, 403082, Note_on_c, 0, 62, 68
1, 403083, Note_on_c, 0, 44, 49
1, 403093, Control_c, 0, 64, 64
1, 403108, Control_c, 0, 64, 63
1, 403123, Control_c, 0, 64, 65
1, 403126, Note_off_c, 0, 63, 51
1, 403129, Note_off_c, 0, 44, 60
1, 403138, Control_c, 0, 64, 69
1, 403153, Control_c, 0, 64, 74
1, 403167, Control_c, 0, 64, 81
1, 403182, Control_c, 0, 64, 90
1, 403197, Control_c, 0, 64, 95
1, 403212, Control_c, 0, 64, 95
1, 403239, Note_on_c, 0, 44, 51
1, 403271, Control_c, 0, 64, 96
1, 403283, Note_off_c, 0, 44, 61
1, 403300, Control_c, 0, 64, 96
1, 403389, Control_c, 0, 64, 97
1, 403400, Note_on_c, 0, 44, 58
1, 403509, Control_c, 0, 64, 96
1, 403524, Control_c, 0, 64, 95
1, 403576, Note_on_c, 0, 43, 65
1, 403620, Control_c, 0, 64, 95
1, 403632, Note_off_c, 0, 44, 39
1, 403635, Control_c, 0, 64, 96
1, 403636, Note_off_c, 0, 53, 40
1, 403647, Note_off_c, 0, 43, 59
1, 403650, Control_c, 0, 64, 97
1, 403665, Control_c, 0, 64, 98
1, 403679, Control_c, 0, 64, 99
1, 403694, Control_c, 0, 64, 100
1, 403696, Note_off_c, 0, 62, 56
1, 403709, Control_c, 0, 64, 102
1, 403723, Control_c, 0, 64, 103
1, 403738, Control_c, 0, 64, 103
1, 403744, Note_on_c, 0, 43, 65
1, 403753, Control_c, 0, 64, 104
1, 403768, Control_c, 0, 64, 105
1, 403783, Control_c, 0, 64, 105
1, 403792, Note_off_c, 0, 43, 58
1, 403797, Control_c, 0, 64, 106
1, 403812, Control_c, 0, 64, 107
1, 403827, Control_c, 0, 64, 107
1, 403842, Control_c, 0, 64, 108
1, 403925, Note_on_c, 0, 43, 65
1, 403972, Note_off_c, 0, 43, 60
1, 404138, Control_c, 0, 64, 107
1, 404153, Control_c, 0, 64, 107
1, 404168, Control_c, 0, 64, 105
1, 404183, Control_c, 0, 64, 103
1, 404192, Note_on_c, 0, 75, 77
1, 404196, Note_on_c, 0, 42, 54
1, 404196, Note_on_c, 0, 69, 76
1, 404197, Control_c, 0, 64, 100
1, 404212, Control_c, 0, 64, 94
1, 404218, Note_on_c, 0, 48, 51
1, 404227, Control_c, 0, 64, 83
1, 404241, Control_c, 0, 64, 72
1, 404256, Control_c, 0, 64, 63
1, 404271, Control_c, 0, 64, 57
1, 404287, Control_c, 0, 64, 55
1, 404296, Note_off_c, 0, 42, 52
1, 404324, Control_c, 0, 64, 56
1, 404339, Control_c, 0, 64, 62
1, 404354, Control_c, 0, 64, 67
1, 404369, Control_c, 0, 64, 72
1, 404384, Control_c, 0, 64, 80
1, 404399, Control_c, 0, 64, 89
1, 404414, Control_c, 0, 64, 95
1, 404428, Control_c, 0, 64, 96
1, 404446, Note_on_c, 0, 42, 50
1, 404479, Note_off_c, 0, 42, 57
1, 404488, Control_c, 0, 64, 96
1, 404502, Control_c, 0, 64, 97
1, 404517, Control_c, 0, 64, 98
1, 404561, Control_c, 0, 64, 99
1, 404576, Control_c, 0, 64, 100
1, 404581, Note_on_c, 0, 42, 56
1, 404591, Control_c, 0, 64, 101
1, 404606, Control_c, 0, 64, 102
1, 404632, Note_off_c, 0, 42, 55
1, 404634, Control_c, 0, 64, 102
1, 404649, Control_c, 0, 64, 103
1, 404664, Control_c, 0, 64, 104
1, 404679, Control_c, 0, 64, 105
1, 404693, Control_c, 0, 64, 106
1, 404708, Control_c, 0, 64, 107
1, 404723, Control_c, 0, 64, 107
1, 404738, Control_c, 0, 64, 108
1, 404752, Control_c, 0, 64, 108
1, 404757, Note_on_c, 0, 42, 48
1, 404782, Control_c, 0, 64, 109
1, 404792, Note_off_c, 0, 42, 54
1, 404797, Control_c, 0, 64, 109
1, 404812, Control_c, 0, 64, 110
1, 404826, Control_c, 0, 64, 110
1, 404841, Control_c, 0, 64, 111
1, 404856, Control_c, 0, 64, 111
1, 404870, Control_c, 0, 64, 112
1, 404885, Control_c, 0, 64, 112
1, 404910, Note_on_c, 0, 42, 48
1, 404930, Control_c, 0, 64, 113
1, 404960, Note_off_c, 0, 42, 58
1, 405084, Note_on_c, 0, 42, 50
1, 405132, Note_off_c, 0, 42, 60
1, 405205, Control_c, 0, 64, 112
1, 405220, Control_c, 0, 64, 110
1, 405235, Control_c, 0, 64, 107
1, 405249, Control_c, 0, 64, 102
1, 405260, Note_on_c, 0, 74, 70
1, 405264, Note_on_c, 0, 42, 53
1, 405264, Control_c, 0, 64, 92
1, 405279, Control_c, 0, 64, 81
1, 405293, Control_c, 0, 64, 69
1, 405297, Note_on_c, 0, 50, 41
1, 405308, Control_c, 0, 64, 64
1, 405313, Note_off_c, 0, 48, 41
1, 405322, Note_off_c, 0, 42, 58
1, 405338, Control_c, 0, 64, 67
1, 405340, Note_off_c, 0, 75, 37
1, 405353, Control_c, 0, 64, 72
1, 405368, Control_c, 0, 64, 80
1, 405383, Control_c, 0, 64, 91
1, 405398, Control_c, 0, 64, 102
1, 405413, Control_c, 0, 64, 107
1, 405428, Control_c, 0, 64, 108
1, 405442, Control_c, 0, 64, 108
1, 405448, Note_on_c, 0, 42, 51
1, 405457, Control_c, 0, 64, 109
1, 405472, Control_c, 0, 64, 110
1, 405487, Control_c, 0, 64, 111
1, 405488, Note_off_c, 0, 42, 57
1, 405502, Control_c, 0, 64, 113
1, 405516, Control_c, 0, 64, 115
1, 405531, Control_c, 0, 64, 117
1, 405546, Control_c, 0, 64, 118
1, 405561, Control_c, 0, 64, 118
1, 405611, Note_on_c, 0, 42, 46
1, 405674, Note_off_c, 0, 42, 57
1, 405724, Control_c, 0, 64, 116
1, 405739, Control_c, 0, 64, 112
1, 405754, Control_c, 0, 64, 106
1, 405768, Control_c, 0, 64, 96
1, 405783, Control_c, 0, 64, 84
1, 405785, Note_on_c, 0, 72, 78
1, 405790, Note_off_c, 0, 50, 53
1, 405798, Control_c, 0, 64, 70
1, 405801, Note_on_c, 0, 42, 53
1, 405820, Note_on_c, 0, 51, 34
1, 405820, Control_c, 0, 64, 61
1, 405825, Note_off_c, 0, 74, 53
1, 405835, Control_c, 0, 64, 59
1, 405850, Control_c, 0, 64, 60
1, 405855, Note_off_c, 0, 42, 60
1, 405865, Control_c, 0, 64, 64
1, 405880, Control_c, 0, 64, 68
1, 405895, Control_c, 0, 64, 74
1, 405910, Control_c, 0, 64, 84
1, 405925, Control_c, 0, 64, 97
1, 405940, Control_c, 0, 64, 106
1, 405955, Control_c, 0, 64, 107
1, 405984, Control_c, 0, 64, 108
1, 405988, Note_on_c, 0, 42, 53
1, 405999, Control_c, 0, 64, 110
1, 406014, Control_c, 0, 64, 113
1, 406029, Control_c, 0, 64, 116
1, 406044, Control_c, 0, 64, 118
1, 406054, Note_off_c, 0, 42, 57
1, 406059, Control_c, 0, 64, 121
1, 406073, Control_c, 0, 64, 127
1, 406197, Note_on_c, 0, 42, 47
1, 406251, Note_off_c, 0, 42, 57
1, 406429, Control_c, 0, 64, 115
1, 406443, Control_c, 0, 64, 105
1, 406452, Note_on_c, 0, 67, 66
1, 406458, Control_c, 0, 64, 95
1, 406464, Note_on_c, 0, 52, 50
1, 406473, Control_c, 0, 64, 81
1, 406479, Note_on_c, 0, 43, 40
1, 406479, Note_off_c, 0, 72, 39
1, 406488, Control_c, 0, 64, 69
1, 406498, Note_off_c, 0, 69, 36
1, 406503, Control_c, 0, 64, 61
1, 406515, Note_off_c, 0, 51, 38
1, 406517, Control_c, 0, 64, 58
1, 406547, Control_c, 0, 64, 59
1, 406569, Control_c, 0, 64, 63
1, 406584, Control_c, 0, 64, 68
1, 406599, Control_c, 0, 64, 72
1, 406600, Note_off_c, 0, 43, 35
1, 406613, Control_c, 0, 64, 80
1, 406628, Control_c, 0, 64, 90
1, 406643, Control_c, 0, 64, 98
1, 406658, Control_c, 0, 64, 100
1, 406673, Control_c, 0, 64, 100
1, 406703, Control_c, 0, 64, 101
1, 406733, Note_on_c, 0, 43, 47
1, 406733, Control_c, 0, 64, 101
1, 406770, Note_off_c, 0, 43, 54
1, 406891, Note_on_c, 0, 43, 50
1, 406938, Note_off_c, 0, 43, 54
1, 407072, Note_on_c, 0, 43, 43
1, 407111, Note_off_c, 0, 43, 47
1, 407192, Control_c, 0, 64, 102
1, 407222, Control_c, 0, 64, 102
1, 407230, Note_on_c, 0, 43, 46
1, 407236, Control_c, 0, 64, 103
1, 407251, Control_c, 0, 64, 104
1, 407266, Control_c, 0, 64, 105
1, 407281, Control_c, 0, 64, 106
1, 407291, Note_off_c, 0, 43, 53
1, 407296, Control_c, 0, 64, 106
1, 407318, Control_c, 0, 64, 107
1, 407333, Control_c, 0, 64, 107
1, 407347, Control_c, 0, 64, 108
1, 407377, Control_c, 0, 64, 108
1, 407434, Note_on_c, 0, 43, 39
1, 407472, Note_off_c, 0, 52, 38
1, 407474, Note_off_c, 0, 43, 43
1, 407556, Control_c, 0, 64, 107
1, 407570, Control_c, 0, 64, 105
1, 407585, Control_c, 0, 64, 102
1, 407600, Control_c, 0, 64, 94
1, 407615, Control_c, 0, 64, 85
1, 407630, Control_c, 0, 64, 73
1, 407639, Note_on_c, 0, 72, 58
1, 407643, Note_off_c, 0, 67, 52
1, 407644, Control_c, 0, 64, 64
1, 407647, Note_on_c, 0, 43, 35
1, 407649, Note_on_c, 0, 65, 56
1, 407656, Note_on_c, 0, 50, 39
1, 407659, Control_c, 0, 64, 59
1, 407674, Control_c, 0, 64, 58
1, 407688, Control_c, 0, 64, 58
1, 407703, Control_c, 0, 64, 62
1, 407718, Control_c, 0, 64, 66
1, 407733, Control_c, 0, 64, 71
1, 407748, Control_c, 0, 64, 78
1, 407758, Note_off_c, 0, 43, 55
1, 407762, Control_c, 0, 64, 90
1, 407777, Control_c, 0, 64, 102
1, 407792, Control_c, 0, 64, 107
1, 407836, Control_c, 0, 64, 107
1, 407866, Control_c, 0, 64, 108
1, 407889, Note_on_c, 0, 43, 39
1, 407931, Note_off_c, 0, 43, 51
1, 407976, Note_on_c, 0, 71, 71
1, 408029, Control_c, 0, 64, 107
1, 408044, Control_c, 0, 64, 107
1, 408068, Note_off_c, 0, 72, 35
1, 408095, Control_c, 0, 64, 106
1, 408110, Note_on_c, 0, 43, 43
1, 408110, Control_c, 0, 64, 106
1, 408140, Control_c, 0, 64, 105
1, 408167, Note_off_c, 0, 43, 57
1, 408169, Control_c, 0, 64, 105
1, 408244, Control_c, 0, 64, 104
1, 408259, Control_c, 0, 64, 102
1, 408274, Control_c, 0, 64, 98
1, 408289, Control_c, 0, 64, 90
1, 408304, Control_c, 0, 64, 80
1, 408306, Note_on_c, 0, 69, 68
1, 408313, Note_on_c, 0, 43, 49
1, 408318, Control_c, 0, 64, 71
1, 408333, Control_c, 0, 64, 70
1, 408348, Control_c, 0, 64, 73
1, 408362, Note_off_c, 0, 71, 56
1, 408363, Control_c, 0, 64, 79
1, 408368, Note_off_c, 0, 43, 57
1, 408378, Control_c, 0, 64, 87
1, 408393, Control_c, 0, 64, 94
1, 408408, Control_c, 0, 64, 97
1, 408423, Control_c, 0, 64, 99
1, 408438, Control_c, 0, 64, 101
1, 408453, Control_c, 0, 64, 103
1, 408467, Control_c, 0, 64, 105
1, 408482, Control_c, 0, 64, 106
1, 408497, Control_c, 0, 64, 106
1, 408534, Note_on_c, 0, 43, 41
1, 408541, Control_c, 0, 64, 107
1, 408556, Control_c, 0, 64, 108
1, 408571, Control_c, 0, 64, 108
1, 408578, Note_off_c, 0, 43, 51
1, 408585, Control_c, 0, 64, 109
1, 408600, Control_c, 0, 64, 110
1, 408629, Control_c, 0, 64, 110
1, 408669, Note_on_c, 0, 71, 63
1, 408670, Note_off_c, 0, 69, 61
1, 408843, Note_on_c, 0, 43, 41
1, 408870, Note_off_c, 0, 50, 39
1, 408875, Note_off_c, 0, 43, 55
1, 409052, Control_c, 0, 64, 110
1, 409067, Control_c, 0, 64, 109
1, 409082, Control_c, 0, 64, 109
1, 409097, Control_c, 0, 64, 108
1, 409113, Control_c, 0, 64, 108
1, 409128, Control_c, 0, 64, 107
1, 409142, Control_c, 0, 64, 105
1, 409157, Control_c, 0, 64, 102
1, 409172, Control_c, 0, 64, 97
1, 409187, Control_c, 0, 64, 92
1, 409199, Note_on_c, 0, 64, 42
1, 409202, Control_c, 0, 64, 86
1, 409206, Note_on_c, 0, 72, 59
1, 409216, Control_c, 0, 64, 79
1, 409227, Note_off_c, 0, 71, 36
1, 409228, Note_on_c, 0, 36, 35
1, 409231, Control_c, 0, 64, 71
1, 409246, Control_c, 0, 64, 65
1, 409255, Note_on_c, 0, 48, 24
1, 409260, Control_c, 0, 64, 60
1, 409275, Control_c, 0, 64, 56
1, 409305, Note_off_c, 0, 65, 37
1, 409320, Control_c, 0, 64, 57
1, 409335, Control_c, 0, 64, 62
1, 409350, Control_c, 0, 64, 67
1, 409355, Note_off_c, 0, 36, 55
1, 409365, Control_c, 0, 64, 74
1, 409380, Control_c, 0, 64, 85
1, 409395, Control_c, 0, 64, 98
1, 409409, Control_c, 0, 64, 106
1, 409424, Control_c, 0, 64, 107
1, 409522, Note_on_c, 0, 36, 40
1, 409562, Note_off_c, 0, 36, 52
1, 409679, Note_on_c, 0, 36, 43
1, 409738, Note_off_c, 0, 36, 54
1, 409787, Control_c, 0, 64, 106
1, 409802, Control_c, 0, 64, 105
1, 409816, Control_c, 0, 64, 103
1, 409831, Control_c, 0, 64, 101
1, 409846, Control_c, 0, 64, 95
1, 409860, Control_c, 0, 64, 87
1, 409875, Control_c, 0, 64, 77
1, 409887, Note_on_c, 0, 36, 39
1, 409891, Control_c, 0, 64, 70
1, 409906, Control_c, 0, 64, 69
1, 409921, Control_c, 0, 64, 72
1, 409928, Note_off_c, 0, 36, 50
1, 409936, Control_c, 0, 64, 78
1, 409951, Control_c, 0, 64, 89
1, 409965, Control_c, 0, 64, 97
1, 409980, Control_c, 0, 64, 100
1, 409995, Control_c, 0, 64, 100
1, 410010, Control_c, 0, 64, 101
1, 410025, Control_c, 0, 64, 101
1, 410039, Control_c, 0, 64, 102
1, 410053, Note_on_c, 0, 36, 43
1, 410069, Control_c, 0, 64, 102
1, 410098, Control_c, 0, 64, 103
1, 410104, Note_off_c, 0, 36, 52
1, 410238, Note_on_c, 0, 36, 40
1, 410272, Note_off_c, 0, 36, 51
1, 410277, Control_c, 0, 64, 102
1, 410291, Control_c, 0, 64, 100
1, 410313, Control_c, 0, 64, 98
1, 410328, Control_c, 0, 64, 94
1, 410343, Control_c, 0, 64, 89
1, 410358, Control_c, 0, 64, 79
1, 410372, Control_c, 0, 64, 71
1, 410387, Control_c, 0, 64, 67
1, 410399, Note_on_c, 0, 36, 36
1, 410417, Control_c, 0, 64, 68
1, 410432, Control_c, 0, 64, 71
1, 410447, Control_c, 0, 64, 76
1, 410454, Note_off_c, 0, 36, 54
1, 410462, Control_c, 0, 64, 85
1, 410477, Control_c, 0, 64, 92
1, 410491, Control_c, 0, 64, 96
1, 410521, Control_c, 0, 64, 96
1, 410536, Control_c, 0, 64, 97
1, 410551, Control_c, 0, 64, 98
1, 410565, Control_c, 0, 64, 98
1, 410580, Control_c, 0, 64, 99
1, 410595, Control_c, 0, 64, 100
1, 410605, Note_on_c, 0, 36, 40
1, 410609, Control_c, 0, 64, 101
1, 410624, Control_c, 0, 64, 102
1, 410642, Note_off_c, 0, 36, 49
1, 410757, Note_on_c, 0, 36, 44
1, 410803, Control_c, 0, 64, 101
1, 410816, Note_off_c, 0, 36, 47
1, 410818, Control_c, 0, 64, 100
1, 410832, Control_c, 0, 64, 98
1, 410847, Control_c, 0, 64, 95
1, 410862, Control_c, 0, 64, 92
1, 410877, Control_c, 0, 64, 85
1, 410892, Control_c, 0, 64, 78
1, 410906, Control_c, 0, 64, 72
1, 410921, Control_c, 0, 64, 69
1, 410936, Control_c, 0, 64, 70
1, 410951, Control_c, 0, 64, 73
1, 410966, Note_on_c, 0, 36, 30
1, 410966, Control_c, 0, 64, 79
1, 410980, Control_c, 0, 64, 87
1, 410995, Control_c, 0, 64, 94
1, 410999, Note_off_c, 0, 36, 51
1, 411010, Control_c, 0, 64, 97
1, 411025, Control_c, 0, 64, 97
1, 411062, Control_c, 0, 64, 98
1, 411077, Control_c, 0, 64, 99
1, 411107, Control_c, 0, 64, 99
1, 411121, Control_c, 0, 64, 100
1, 411129, Note_on_c, 0, 36, 42
1, 411136, Control_c, 0, 64, 101
1, 411151, Control_c, 0, 64, 101
1, 411166, Control_c, 0, 64, 102
1, 411207, Note_off_c, 0, 36, 51
1, 411353, Note_on_c, 0, 36, 41
1, 411387, Note_off_c, 0, 36, 49
1, 411417, Control_c, 0, 64, 101
1, 411446, Control_c, 0, 64, 101
1, 411461, Control_c, 0, 64, 100
1, 411477, Control_c, 0, 64, 99
1, 411492, Control_c, 0, 64, 99
1, 411507, Control_c, 0, 64, 98
1, 411522, Control_c, 0, 64, 96
1, 411536, Control_c, 0, 64, 93
1, 411539, Note_on_c, 0, 36, 41
1, 411551, Control_c, 0, 64, 86
1, 411566, Control_c, 0, 64, 77
1, 411581, Control_c, 0, 64, 69
1, 411596, Control_c, 0, 64, 66
1, 411610, Control_c, 0, 64, 66
1, 411612, Note_off_c, 0, 36, 50
1, 411625, Control_c, 0, 64, 68
1, 411640, Control_c, 0, 64, 73
1, 411654, Control_c, 0, 64, 80
1, 411669, Control_c, 0, 64, 89
1, 411684, Control_c, 0, 64, 97
1, 411699, Control_c, 0, 64, 98
1, 411770, Note_on_c, 0, 36, 42
1, 411810, Control_c, 0, 67, 16
1, 411825, Control_c, 0, 67, 16
1, 411840, Control_c, 0, 67, 18
1, 411844, Note_off_c, 0, 36, 50
1, 411854, Control_c, 0, 67, 20
1, 411869, Control_c, 0, 67, 23
1, 411884, Control_c, 0, 67, 26
1, 411899, Control_c, 0, 67, 30
1, 411914, Control_c, 0, 67, 33
1, 411928, Control_c, 0, 67, 36
1, 411943, Control_c, 0, 67, 39
1, 411958, Control_c, 0, 67, 42
1, 411973, Control_c, 0, 67, 45
1, 411988, Control_c, 0, 67, 48
1, 412003, Control_c, 0, 67, 51
1, 412006, Note_on_c, 0, 36, 36
1, 412018, Control_c, 0, 67, 53
1, 412033, Control_c, 0, 67, 56
1, 412045, Note_off_c, 0, 36, 48
1, 412048, Control_c, 0, 64, 98
1, 412048, Control_c, 0, 67, 58
1, 412062, Control_c, 0, 64, 97
1, 412062, Control_c, 0, 67, 61
1, 412077, Control_c, 0, 64, 96
1, 412077, Control_c, 0, 67, 63
1, 412092, Control_c, 0, 64, 95
1, 412092, Control_c, 0, 67, 66
1, 412107, Control_c, 0, 64, 93
1, 412107, Control_c, 0, 67, 69
1, 412122, Control_c, 0, 64, 92
1, 412122, Control_c, 0, 67, 71
1, 412137, Control_c, 0, 67, 73
1, 412152, Control_c, 0, 64, 92
1, 412152, Control_c, 0, 67, 74
1, 412167, Control_c, 0, 64, 91
1, 412167, Control_c, 0, 67, 75
1, 412181, Control_c, 0, 64, 90
1, 412181, Control_c, 0, 67, 76
1, 412195, Note_on_c, 0, 36, 31
1, 412196, Control_c, 0, 64, 87
1, 412196, Control_c, 0, 67, 79
1, 412211, Control_c, 0, 64, 81
1, 412211, Control_c, 0, 67, 81
1, 412226, Control_c, 0, 64, 74
1, 412226, Control_c, 0, 67, 84
1, 412241, Control_c, 0, 64, 68
1, 412241, Control_c, 0, 67, 86
1, 412255, Control_c, 0, 64, 65
1, 412255, Control_c, 0, 67, 89
1, 412270, Control_c, 0, 67, 91
1, 412286, Control_c, 0, 64, 65
1, 412286, Control_c, 0, 67, 94
1, 412301, Control_c, 0, 64, 67
1, 412301, Control_c, 0, 67, 96
1, 412305, Note_off_c, 0, 36, 43
1, 412316, Control_c, 0, 64, 70
1, 412316, Control_c, 0, 67, 97
1, 412331, Control_c, 0, 64, 74
1, 412331, Control_c, 0, 67, 98
1, 412346, Control_c, 0, 64, 81
1, 412346, Control_c, 0, 67, 99
1, 412360, Control_c, 0, 64, 88
1, 412360, Control_c, 0, 67, 100
1, 412375, Control_c, 0, 64, 93
1, 412375, Control_c, 0, 67, 100
1, 412390, Control_c, 0, 64, 94
1, 412404, Control_c, 0, 67, 101
1, 412434, Control_c, 0, 64, 95
1, 412449, Control_c, 0, 64, 96
1, 412464, Control_c, 0, 64, 96
1, 412486, Note_on_c, 0, 36, 38
1, 412508, Control_c, 0, 64, 97
1, 412523, Control_c, 0, 64, 97
1, 412538, Control_c, 0, 64, 98
1, 412560, Control_c, 0, 64, 98
1, 412605, Note_off_c, 0, 36, 30
1, 412649, Control_c, 0, 64, 99
1, 412649, Control_c, 0, 67, 101
1, 412678, Control_c, 0, 67, 102
1, 412708, Control_c, 0, 67, 102
1, 412738, Control_c, 0, 67, 103
1, 412752, Control_c, 0, 67, 103
1, 412767, Control_c, 0, 67, 104
1, 412782, Control_c, 0, 67, 105
1, 412783, Note_on_c, 0, 36, 35
1, 412797, Control_c, 0, 67, 106
1, 412811, Control_c, 0, 67, 107
1, 412833, Note_off_c, 0, 36, 44
1, 412841, Control_c, 0, 67, 107
1, 412885, Control_c, 0, 67, 108
1, 412915, Control_c, 0, 67, 108
1, 412930, Control_c, 0, 67, 109
1, 412945, Control_c, 0, 67, 110
1, 412960, Control_c, 0, 67, 110
1, 412975, Control_c, 0, 67, 111
1, 413004, Control_c, 0, 67, 111
1, 413034, Control_c, 0, 67, 112
1, 413049, Control_c, 0, 67, 112
1, 413079, Control_c, 0, 67, 113
1, 413094, Control_c, 0, 67, 113
1, 413109, Control_c, 0, 64, 98
1, 413124, Control_c, 0, 64, 98
1, 413124, Control_c, 0, 67, 114
1, 413139, Control_c, 0, 64, 97
1, 413139, Control_c, 0, 67, 114
1, 413154, Control_c, 0, 64, 97
1, 413154, Control_c, 0, 67, 115
1, 413168, Control_c, 0, 64, 95
1, 413168, Control_c, 0, 67, 116
1, 413183, Control_c, 0, 64, 93
1, 413183, Control_c, 0, 67, 116
1, 413198, Control_c, 0, 64, 91
1, 413198, Control_c, 0, 67, 117
1, 413213, Control_c, 0, 64, 88
1, 413213, Control_c, 0, 67, 118
1, 413227, Control_c, 0, 64, 85
1, 413227, Control_c, 0, 67, 118
1, 413242, Control_c, 0, 64, 81
1, 413242, Control_c, 0, 67, 119
1, 413251, Note_on_c, 0, 36, 33
1, 413257, Control_c, 0, 64, 76
1, 413257, Control_c, 0, 67, 120
1, 413272, Control_c, 0, 64, 71
1, 413272, Control_c, 0, 67, 120
1, 413287, Control_c, 0, 64, 66
1, 413287, Control_c, 0, 67, 121
1, 413309, Control_c, 0, 64, 62
1, 413309, Control_c, 0, 67, 122
1, 413323, Control_c, 0, 64, 59
1, 413323, Control_c, 0, 67, 123
1, 413338, Control_c, 0, 64, 57
1, 413338, Control_c, 0, 67, 124
1, 413353, Control_c, 0, 67, 124
1, 413368, Control_c, 0, 67, 125
1, 413413, Control_c, 0, 64, 60
1, 413427, Control_c, 0, 64, 65
1, 413442, Control_c, 0, 64, 68
1, 413457, Control_c, 0, 64, 72
1, 413472, Control_c, 0, 64, 78
1, 413487, Control_c, 0, 64, 84
1, 413501, Control_c, 0, 64, 89
1, 413516, Control_c, 0, 64, 90
1, 413531, Control_c, 0, 64, 91
1, 413546, Control_c, 0, 64, 92
1, 413561, Control_c, 0, 64, 93
1, 413575, Control_c, 0, 64, 94
1, 413590, Control_c, 0, 64, 95
1, 413605, Control_c, 0, 64, 96
1, 413634, Control_c, 0, 64, 96
1, 413638, Note_off_c, 0, 48, 37
1, 413649, Control_c, 0, 64, 97
1, 413650, Note_off_c, 0, 36, 34
1, 413664, Control_c, 0, 64, 97
1, 413679, Control_c, 0, 64, 98
1, 413708, Control_c, 0, 64, 98
1, 413726, Note_off_c, 0, 64, 36
1, 413738, Control_c, 0, 64, 99
1, 413766, Note_off_c, 0, 72, 35
1, 413768, Control_c, 0, 64, 99
1, 413812, Control_c, 0, 64, 100
1, 413827, Control_c, 0, 64, 100
1, 413857, Control_c, 0, 64, 101
1, 413902, Control_c, 0, 64, 101
1, 414280, Control_c, 0, 64, 101
1, 414354, Control_c, 0, 64, 100
1, 414354, Control_c, 0, 67, 124
1, 414398, Control_c, 0, 67, 124
1, 414413, Control_c, 0, 64, 100
1, 414575, Control_c, 0, 64, 99
1, 414590, Control_c, 0, 64, 99
1, 414605, Control_c, 0, 64, 98
1, 414620, Control_c, 0, 64, 98
1, 414635, Control_c, 0, 64, 97
1, 414635, Control_c, 0, 67, 123
1, 414650, Control_c, 0, 64, 96
1, 414665, Control_c, 0, 64, 96
1, 414680, Control_c, 0, 67, 123
1, 414695, Control_c, 0, 64, 95
1, 414710, Control_c, 0, 67, 122
1, 414725, Control_c, 0, 64, 95
1, 414740, Control_c, 0, 67, 122
1, 414754, Control_c, 0, 64, 94
1, 414784, Control_c, 0, 64, 94
1, 414784, Control_c, 0, 67, 121
1, 414821, Control_c, 0, 64, 93
1, 414821, Control_c, 0, 67, 121
1, 414836, Control_c, 0, 64, 93
1, 414836, Control_c, 0, 67, 120
1, 414851, Control_c, 0, 64, 92
1, 414866, Control_c, 0, 64, 92
1, 414880, Control_c, 0, 64, 91
1, 414895, Control_c, 0, 64, 91
1, 414910, Control_c, 0, 64, 89
1, 414925, Control_c, 0, 64, 88
1, 414925, Control_c, 0, 67, 120
1, 414940, Control_c, 0, 64, 87
1, 414940, Control_c, 0, 67, 118
1, 414954, Control_c, 0, 64, 86
1, 414954, Control_c, 0, 67, 115
1, 414969, Control_c, 0, 64, 85
1, 414984, Control_c, 0, 64, 84
1, 414999, Control_c, 0, 64, 82
1, 415014, Control_c, 0, 64, 78
1, 415028, Control_c, 0, 64, 73
1, 415043, Control_c, 0, 64, 68
1, 415043, Control_c, 0, 67, 115
1, 415051, Note_on_c, 0, 71, 42
1, 415058, Control_c, 0, 64, 65
1, 415058, Control_c, 0, 67, 114
1, 415073, Control_c, 0, 64, 63
1, 415073, Control_c, 0, 67, 111
1, 415088, Control_c, 0, 64, 62
1, 415088, Control_c, 0, 67, 107
1, 415103, Control_c, 0, 64, 59
1, 415103, Control_c, 0, 67, 100
1, 415118, Control_c, 0, 64, 53
1, 415118, Control_c, 0, 67, 98
1, 415133, Control_c, 0, 64, 48
1, 415148, Control_c, 0, 64, 44
1, 415148, Control_c, 0, 67, 98
1, 415163, Control_c, 0, 64, 39
1, 415178, Control_c, 0, 64, 33
1, 415192, Control_c, 0, 64, 27
1, 415207, Control_c, 0, 64, 23
1, 415207, Control_c, 0, 67, 98
1, 415222, Control_c, 0, 64, 23
1, 415222, Control_c, 0, 67, 97
1, 415237, Control_c, 0, 67, 95
1, 415252, Control_c, 0, 67, 91
1, 415267, Control_c, 0, 64, 22
1, 415267, Control_c, 0, 67, 86
1, 415281, Control_c, 0, 67, 81
1, 415296, Control_c, 0, 67, 74
1, 415311, Control_c, 0, 67, 68
1, 415325, Control_c, 0, 67, 62
1, 415340, Control_c, 0, 67, 54
1, 415355, Control_c, 0, 67, 48
1, 415370, Control_c, 0, 67, 43
1, 415385, Control_c, 0, 67, 41
1, 415475, Control_c, 0, 64, 23
1, 415490, Control_c, 0, 67, 40
1, 415502, Note_on_c, 0, 72, 43
1, 415519, Control_c, 0, 64, 23
1, 415534, Control_c, 0, 64, 24
1, 415556, Note_off_c, 0, 71, 37
1, 415556, Control_c, 0, 64, 25
1, 415571, Control_c, 0, 64, 26
1, 415645, Control_c, 0, 64, 24
1, 415660, Control_c, 0, 64, 22
1, 415675, Control_c, 0, 64, 18
1, 415681, Note_off_c, 0, 72, 51
1, 415681, Note_on_c, 0, 74, 51
1, 415734, Control_c, 0, 64, 27
1, 415749, Control_c, 0, 64, 44
1, 415763, Control_c, 0, 64, 58
1, 415778, Control_c, 0, 64, 67
1, 415793, Control_c, 0, 64, 70
1, 415808, Control_c, 0, 64, 73
1, 415823, Control_c, 0, 64, 77
1, 415837, Control_c, 0, 64, 82
1, 415851, Control_c, 0, 64, 86
1, 415851, Control_c, 0, 67, 40
1, 415854, Note_off_c, 0, 74, 54
1, 415866, Control_c, 0, 64, 90
1, 415881, Control_c, 0, 64, 92
1, 415881, Control_c, 0, 67, 39
1, 415896, Control_c, 0, 64, 93
1, 415911, Control_c, 0, 64, 94
1, 415911, Control_c, 0, 67, 39
1, 415926, Control_c, 0, 64, 95
1, 415926, Control_c, 0, 67, 38
1, 415941, Control_c, 0, 64, 96
1, 415955, Control_c, 0, 64, 96
1, 415970, Control_c, 0, 67, 37
1, 416192, Control_c, 0, 64, 96
1, 416207, Control_c, 0, 64, 95
1, 416221, Control_c, 0, 64, 93
1, 416236, Note_on_c, 0, 74, 52
1, 416236, Control_c, 0, 64, 89
1, 416251, Control_c, 0, 64, 82
1, 416252, Note_on_c, 0, 55, 40
1, 416254, Note_on_c, 0, 67, 38
1, 416267, Control_c, 0, 64, 73
1, 416282, Control_c, 0, 64, 64
1, 416304, Control_c, 0, 64, 61
1, 416319, Control_c, 0, 64, 62
1, 416334, Control_c, 0, 64, 64
1, 416349, Control_c, 0, 64, 68
1, 416364, Control_c, 0, 64, 74
1, 416378, Control_c, 0, 64, 84
1, 416393, Control_c, 0, 64, 94
1, 416394, Note_off_c, 0, 74, 50
1, 416408, Control_c, 0, 64, 99
1, 416423, Control_c, 0, 64, 99
1, 416541, Control_c, 0, 67, 38
1, 416556, Control_c, 0, 67, 38
1, 416734, Control_c, 0, 64, 99
1, 416748, Control_c, 0, 64, 98
1, 416763, Control_c, 0, 64, 97
1, 416778, Control_c, 0, 64, 95
1, 416793, Control_c, 0, 64, 94
1, 416808, Control_c, 0, 64, 92
1, 416823, Control_c, 0, 64, 90
1, 416838, Note_on_c, 0, 74, 56
1, 416838, Control_c, 0, 64, 86
1, 416838, Control_c, 0, 67, 39
1, 416852, Control_c, 0, 64, 79
1, 416867, Control_c, 0, 64, 70
1, 416882, Control_c, 0, 64, 62
1, 416897, Control_c, 0, 64, 58
1, 416956, Control_c, 0, 67, 39
1, 416970, Control_c, 0, 67, 40
1, 416985, Control_c, 0, 67, 40
1, 417408, Control_c, 0, 64, 59
1, 417452, Note_on_c, 0, 72, 49
1, 417482, Control_c, 0, 67, 40
1, 417484, Note_off_c, 0, 67, 53
1, 417498, Note_off_c, 0, 74, 40
1, 417509, Note_off_c, 0, 55, 41
1, 417646, Control_c, 0, 67, 39
1, 417690, Control_c, 0, 67, 39
1, 417719, Control_c, 0, 67, 38
1, 417726, Note_on_c, 0, 71, 52
1, 417734, Control_c, 0, 67, 38
1, 417747, Note_off_c, 0, 72, 55
1, 417749, Control_c, 0, 67, 37
1, 417779, Control_c, 0, 67, 37
1, 417801, Control_c, 0, 67, 36
1, 417816, Control_c, 0, 67, 36
1, 417831, Control_c, 0, 67, 35
1, 417845, Control_c, 0, 67, 32
1, 417860, Control_c, 0, 64, 58
1, 417860, Control_c, 0, 67, 30
1, 417876, Control_c, 0, 67, 28
1, 417891, Control_c, 0, 64, 58
1, 417891, Control_c, 0, 67, 26
1, 417905, Control_c, 0, 64, 57
1, 417905, Control_c, 0, 67, 25
1, 417920, Control_c, 0, 64, 57
1, 417920, Control_c, 0, 67, 25
1, 417935, Control_c, 0, 64, 56
1, 417935, Control_c, 0, 67, 24
1, 417965, Control_c, 0, 64, 56
1, 417994, Control_c, 0, 64, 55
1, 418009, Control_c, 0, 64, 54
1, 418024, Control_c, 0, 64, 51
1, 418039, Control_c, 0, 64, 47
1, 418044, Note_on_c, 0, 75, 53
1, 418054, Control_c, 0, 64, 40
1, 418069, Control_c, 0, 64, 26
1, 418078, Note_off_c, 0, 71, 35
1, 418084, Control_c, 0, 64, 0
1, 418185, Control_c, 0, 67, 24
1, 418659, Note_on_c, 0, 55, 37
1, 418674, Note_on_c, 0, 67, 31
1, 418683, Control_c, 0, 67, 23
1, 418801, Control_c, 0, 67, 23
1, 418831, Control_c, 0, 67, 22
1, 418846, Control_c, 0, 67, 38
1, 418861, Control_c, 0, 67, 37
1, 418891, Control_c, 0, 67, 36
1, 418906, Control_c, 0, 67, 35
1, 418920, Control_c, 0, 67, 34
1, 418935, Control_c, 0, 67, 32
1, 418950, Control_c, 0, 67, 31
1, 418958, Note_on_c, 0, 74, 51
1, 418964, Control_c, 0, 64, 16
1, 418964, Control_c, 0, 67, 30
1, 418979, Control_c, 0, 64, 18
1, 418979, Control_c, 0, 67, 28
1, 418994, Control_c, 0, 64, 19
1, 418994, Control_c, 0, 67, 27
1, 419009, Control_c, 0, 64, 20
1, 419009, Control_c, 0, 67, 25
1, 419024, Control_c, 0, 64, 22
1, 419024, Control_c, 0, 67, 24
1, 419038, Control_c, 0, 64, 23
1, 419038, Control_c, 0, 67, 22
1, 419053, Control_c, 0, 67, 21
1, 419068, Note_off_c, 0, 75, 32
1, 419068, Control_c, 0, 64, 23
1, 419068, Control_c, 0, 67, 20
1, 419083, Control_c, 0, 64, 24
1, 419083, Control_c, 0, 67, 18
1, 419098, Control_c, 0, 64, 25
1, 419098, Control_c, 0, 67, 17
1, 419112, Control_c, 0, 64, 25
1, 419112, Control_c, 0, 67, 16
1, 419127, Control_c, 0, 64, 26
1, 419157, Control_c, 0, 64, 27
1, 419187, Control_c, 0, 64, 27
1, 419232, Control_c, 0, 67, 0
1, 419246, Control_c, 0, 64, 28
1, 419261, Note_on_c, 0, 72, 55
1, 419276, Control_c, 0, 64, 28
1, 419294, Note_off_c, 0, 67, 47
1, 419339, Note_off_c, 0, 74, 35
1, 419357, Control_c, 0, 64, 29
1, 419547, Note_on_c, 0, 67, 57
1, 419583, Note_off_c, 0, 72, 52
1, 419817, Control_c, 0, 64, 29
1, 419839, Note_on_c, 0, 60, 35
1, 419841, Note_on_c, 0, 72, 59
1, 419896, Note_off_c, 0, 55, 38
1, 419911, Note_off_c, 0, 67, 35
1, 420120, Note_on_c, 0, 74, 70
1, 420123, Note_on_c, 0, 62, 47
1, 420171, Note_off_c, 0, 72, 53
1, 420187, Note_off_c, 0, 60, 33
1, 420343, Control_c, 0, 64, 29
1, 420373, Control_c, 0, 64, 28
1, 420403, Control_c, 0, 64, 28
1, 420418, Control_c, 0, 64, 27
1, 420433, Control_c, 0, 64, 27
1, 420448, Control_c, 0, 64, 26
1, 420478, Control_c, 0, 64, 25
1, 420481, Note_on_c, 0, 75, 62
1, 420492, Control_c, 0, 64, 25
1, 420515, Note_on_c, 0, 63, 38
1, 420522, Control_c, 0, 64, 24
1, 420531, Note_off_c, 0, 74, 45
1, 420537, Control_c, 0, 64, 23
1, 420551, Control_c, 0, 64, 21
1, 420564, Note_off_c, 0, 62, 33
1, 420566, Control_c, 0, 64, 18
1, 420596, Control_c, 0, 64, 0
1, 420655, Control_c, 0, 67, 17
1, 420670, Control_c, 0, 67, 19
1, 420685, Control_c, 0, 67, 21
1, 420699, Control_c, 0, 67, 24
1, 420714, Control_c, 0, 67, 25
1, 420729, Control_c, 0, 67, 27
1, 420743, Control_c, 0, 67, 29
1, 420758, Control_c, 0, 67, 30
1, 420773, Control_c, 0, 67, 32
1, 420796, Control_c, 0, 67, 34
1, 420811, Control_c, 0, 67, 37
1, 420825, Control_c, 0, 67, 41
1, 420840, Control_c, 0, 67, 45
1, 420855, Control_c, 0, 67, 49
1, 420869, Control_c, 0, 67, 52
1, 420884, Control_c, 0, 67, 55
1, 420899, Control_c, 0, 67, 57
1, 420914, Control_c, 0, 67, 58
1, 420929, Control_c, 0, 67, 59
1, 421071, Note_on_c, 0, 62, 47
1, 421076, Note_on_c, 0, 74, 59
1, 421092, Note_off_c, 0, 63, 43
1, 421141, Note_off_c, 0, 75, 0
1, 421188, Poly_aftertouch_c, 0, 75, 0
1, 421196, Control_c, 0, 67, 60
1, 421211, Control_c, 0, 67, 60
1, 421364, Note_on_c, 0, 72, 62
1, 421375, Note_on_c, 0, 60, 43
1, 421404, Control_c, 0, 67, 60
1, 421425, Note_off_c, 0, 62, 34
1, 421440, Note_off_c, 0, 74, 40
1, 421507, Control_c, 0, 67, 59
1, 421678, Control_c, 0, 67, 59
1, 421707, Control_c, 0, 67, 58
1, 421711, Note_off_c, 0, 60, 39
1, 421715, Note_on_c, 0, 67, 52
1, 421715, Note_off_c, 0, 72, 51
1, 421719, Note_on_c, 0, 64, 40
1, 421722, Note_on_c, 0, 55, 37
1, 421737, Control_c, 0, 67, 58
1, 421752, Control_c, 0, 67, 57
1, 421781, Control_c, 0, 67, 57
1, 421796, Control_c, 0, 67, 56
1, 421811, Control_c, 0, 67, 55
1, 421826, Control_c, 0, 67, 55
1, 421840, Control_c, 0, 64, 41
1, 421840, Control_c, 0, 67, 54
1, 421855, Control_c, 0, 64, 62
1, 421871, Control_c, 0, 64, 68
1, 421886, Control_c, 0, 64, 74
1, 421886, Control_c, 0, 67, 54
1, 421901, Control_c, 0, 64, 82
1, 421915, Control_c, 0, 64, 88
1, 421915, Control_c, 0, 67, 53
1, 421917, Note_off_c, 0, 55, 54
1, 421930, Control_c, 0, 64, 91
1, 421937, Note_off_c, 0, 64, 55
1, 421938, Note_off_c, 0, 67, 59
1, 421945, Control_c, 0, 64, 92
1, 421945, Control_c, 0, 67, 53
1, 421960, Control_c, 0, 64, 93
1, 421975, Control_c, 0, 64, 94
1, 421975, Control_c, 0, 67, 52
1, 421989, Control_c, 0, 64, 94
1, 422004, Control_c, 0, 64, 95
1, 422034, Control_c, 0, 64, 95
1, 422063, Control_c, 0, 67, 52
1, 422257, Control_c, 0, 64, 95
1, 422271, Control_c, 0, 64, 94
1, 422293, Control_c, 0, 64, 92
1, 422308, Control_c, 0, 64, 89
1, 422323, Control_c, 0, 64, 86
1, 422338, Control_c, 0, 64, 81
1, 422353, Control_c, 0, 64, 75
1, 422364, Note_on_c, 0, 71, 54
1, 422367, Control_c, 0, 64, 67
1, 422373, Note_on_c, 0, 65, 46
1, 422381, Note_on_c, 0, 62, 38
1, 422382, Note_on_c, 0, 55, 37
1, 422382, Control_c, 0, 64, 58
1, 422397, Control_c, 0, 64, 49
1, 422412, Control_c, 0, 64, 47
1, 422427, Control_c, 0, 67, 51
1, 422457, Control_c, 0, 64, 50
1, 422457, Control_c, 0, 67, 52
1, 422471, Control_c, 0, 64, 59
1, 422486, Control_c, 0, 64, 66
1, 422501, Control_c, 0, 64, 73
1, 422501, Control_c, 0, 67, 52
1, 422515, Control_c, 0, 64, 84
1, 422524, Note_off_c, 0, 62, 52
1, 422530, Control_c, 0, 64, 92
1, 422545, Control_c, 0, 64, 95
1, 422560, Control_c, 0, 64, 96
1, 422571, Note_off_c, 0, 65, 56
1, 422575, Control_c, 0, 64, 96
1, 422575, Control_c, 0, 67, 52
1, 422585, Note_off_c, 0, 71, 45
1, 422589, Note_off_c, 0, 55, 35
1, 422589, Control_c, 0, 64, 97
1, 422589, Control_c, 0, 67, 51
1, 422604, Control_c, 0, 64, 97
1, 422619, Control_c, 0, 64, 98
1, 422619, Control_c, 0, 67, 50
1, 422634, Control_c, 0, 64, 99
1, 422665, Control_c, 0, 64, 99
1, 422694, Control_c, 0, 67, 50
1, 422872, Control_c, 0, 64, 99
1, 422886, Control_c, 0, 64, 98
1, 422901, Control_c, 0, 64, 98
1, 422916, Control_c, 0, 64, 97
1, 422931, Control_c, 0, 64, 96
1, 422946, Control_c, 0, 64, 96
1, 422961, Control_c, 0, 64, 94
1, 422961, Control_c, 0, 67, 50
1, 422976, Control_c, 0, 64, 93
1, 422990, Control_c, 0, 64, 90
1, 423005, Control_c, 0, 64, 87
1, 423020, Control_c, 0, 64, 83
1, 423042, Control_c, 0, 64, 79
1, 423050, Note_on_c, 0, 72, 51
1, 423053, Note_on_c, 0, 64, 41
1, 423057, Control_c, 0, 64, 74
1, 423060, Note_on_c, 0, 60, 38
1, 423063, Note_on_c, 0, 48, 41
1, 423065, Note_on_c, 0, 55, 40
1, 423071, Control_c, 0, 64, 68
1, 423086, Control_c, 0, 64, 63
1, 423086, Control_c, 0, 67, 51
1, 423101, Control_c, 0, 64, 59
1, 423116, Control_c, 0, 64, 57
1, 423131, Control_c, 0, 64, 56
1, 423145, Control_c, 0, 64, 55
1, 423160, Control_c, 0, 64, 54
1, 423160, Control_c, 0, 67, 51
1, 423175, Control_c, 0, 64, 53
1, 423190, Control_c, 0, 64, 52
1, 423205, Control_c, 0, 64, 51
1, 423220, Control_c, 0, 64, 51
1, 423235, Control_c, 0, 64, 50
1, 423235, Control_c, 0, 67, 52
1, 423250, Control_c, 0, 64, 50
1, 423294, Control_c, 0, 64, 49
1, 423427, Control_c, 0, 64, 49
1, 423591, Control_c, 0, 64, 48
1, 423621, Control_c, 0, 64, 48
1, 423635, Control_c, 0, 64, 47
1, 423650, Control_c, 0, 64, 46
1, 423665, Control_c, 0, 64, 44
1, 423679, Control_c, 0, 64, 39
1, 423694, Control_c, 0, 64, 30
1, 423709, Control_c, 0, 64, 0
1, 423821, Control_c, 0, 67, 52
1, 423998, Control_c, 0, 67, 53
1, 424028, Control_c, 0, 67, 53
1, 424058, Control_c, 0, 67, 54
1, 424087, Control_c, 0, 67, 54
1, 424102, Control_c, 0, 67, 55
1, 424117, Control_c, 0, 67, 55
1, 424132, Control_c, 0, 67, 56
1, 424147, Control_c, 0, 67, 56
1, 424161, Control_c, 0, 67, 57
1, 424176, Control_c, 0, 67, 57
1, 424191, Control_c, 0, 67, 58
1, 424206, Control_c, 0, 67, 58
1, 424220, Control_c, 0, 67, 59
1, 424235, Control_c, 0, 67, 59
1, 424250, Control_c, 0, 67, 60
1, 424266, Control_c, 0, 64, 41
1, 424266, Control_c, 0, 67, 60
1, 424281, Control_c, 0, 64, 59
1, 424281, Control_c, 0, 67, 61
1, 424296, Control_c, 0, 64, 66
1, 424296, Control_c, 0, 67, 62
1, 424310, Control_c, 0, 64, 72
1, 424310, Control_c, 0, 67, 64
1, 424325, Control_c, 0, 64, 81
1, 424325, Control_c, 0, 67, 68
1, 424340, Control_c, 0, 64, 92
1, 424340, Control_c, 0, 67, 77
1, 424355, Control_c, 0, 64, 104
1, 424355, Control_c, 0, 67, 86
1, 424366, Note_off_c, 0, 48, 54
1, 424368, Note_off_c, 0, 60, 55
1, 424370, Control_c, 0, 64, 108
1, 424370, Control_c, 0, 67, 96
1, 424384, Control_c, 0, 64, 110
1, 424384, Control_c, 0, 67, 107
1, 424399, Control_c, 0, 64, 110
1, 424399, Control_c, 0, 67, 116
1, 424409, Note_off_c, 0, 64, 48
1, 424414, Control_c, 0, 64, 112
1, 424414, Control_c, 0, 67, 122
1, 424425, Note_off_c, 0, 72, 51
1, 424429, Control_c, 0, 64, 113
1, 424429, Control_c, 0, 67, 127
1, 424435, Note_off_c, 0, 55, 35
1, 424444, Control_c, 0, 64, 113
1, 424473, Control_c, 0, 64, 114
1, 424488, Control_c, 0, 64, 116
1, 424502, Control_c, 0, 64, 117
1, 424517, Control_c, 0, 64, 118
1, 424717, Control_c, 0, 64, 117
1, 424732, Control_c, 0, 64, 115
1, 424747, Control_c, 0, 64, 113
1, 424762, Control_c, 0, 64, 110
1, 424777, Control_c, 0, 64, 106
1, 424791, Control_c, 0, 64, 102
1, 424806, Control_c, 0, 64, 98
1, 424821, Control_c, 0, 64, 94
1, 424836, Control_c, 0, 64, 91
1, 424851, Control_c, 0, 64, 88
1, 424866, Control_c, 0, 64, 85
1, 424881, Control_c, 0, 64, 81
1, 424896, Control_c, 0, 64, 76
1, 424910, Control_c, 0, 64, 70
1, 424925, Control_c, 0, 64, 65
1, 424940, Control_c, 0, 64, 61
1, 424955, Control_c, 0, 64, 58
1, 424957, Note_on_c, 0, 59, 36
1, 424970, Control_c, 0, 64, 56
1, 424985, Control_c, 0, 64, 55
1, 425000, Control_c, 0, 64, 53
1, 425015, Control_c, 0, 64, 50
1, 425029, Control_c, 0, 64, 46
1, 425044, Control_c, 0, 64, 43
1, 425060, Control_c, 0, 64, 38
1, 425075, Control_c, 0, 64, 34
1, 425089, Control_c, 0, 64, 30
1, 425104, Control_c, 0, 64, 28
1, 425134, Control_c, 0, 64, 28
1, 425149, Control_c, 0, 64, 27
1, 425390, Note_on_c, 0, 60, 43
1, 425426, Note_off_c, 0, 59, 40
1, 425482, Control_c, 0, 64, 27
1, 425497, Control_c, 0, 64, 24
1, 425512, Control_c, 0, 64, 16
1, 425521, Note_off_c, 0, 60, 55
1, 425527, Control_c, 0, 64, 0
1, 425545, Note_on_c, 0, 62, 44
1, 425630, Control_c, 0, 64, 32
1, 425645, Control_c, 0, 64, 48
1, 425659, Control_c, 0, 64, 59
1, 425674, Control_c, 0, 64, 64
1, 425689, Control_c, 0, 64, 65
1, 425704, Control_c, 0, 64, 66
1, 425719, Control_c, 0, 64, 67
1, 425733, Control_c, 0, 64, 69
1, 425748, Control_c, 0, 64, 72
1, 425763, Control_c, 0, 64, 75
1, 425778, Control_c, 0, 64, 79
1, 425793, Control_c, 0, 64, 82
1, 425807, Control_c, 0, 64, 85
1, 425822, Control_c, 0, 64, 87
1, 425837, Control_c, 0, 64, 90
1, 425853, Control_c, 0, 64, 93
1, 425868, Control_c, 0, 64, 95
1, 425882, Control_c, 0, 64, 97
1, 425895, Note_off_c, 0, 62, 31
1, 425897, Control_c, 0, 64, 98
1, 425912, Control_c, 0, 64, 99
1, 425927, Control_c, 0, 64, 99
1, 425956, Control_c, 0, 64, 100
1, 425986, Control_c, 0, 64, 101
1, 426142, Control_c, 0, 64, 99
1, 426156, Control_c, 0, 64, 96
1, 426170, Note_on_c, 0, 79, 53
1, 426171, Control_c, 0, 64, 88
1, 426172, Note_on_c, 0, 62, 45
1, 426174, Note_on_c, 0, 67, 40
1, 426186, Control_c, 0, 64, 74
1, 426201, Control_c, 0, 64, 65
1, 426216, Control_c, 0, 64, 63
1, 426231, Control_c, 0, 64, 66
1, 426246, Control_c, 0, 64, 70
1, 426261, Control_c, 0, 64, 76
1, 426275, Control_c, 0, 64, 86
1, 426290, Control_c, 0, 64, 97
1, 426292, Note_off_c, 0, 62, 53
1, 426305, Control_c, 0, 64, 100
1, 426320, Control_c, 0, 64, 100
1, 426378, Control_c, 0, 64, 101
1, 426393, Control_c, 0, 64, 103
1, 426407, Control_c, 0, 64, 104
1, 426422, Control_c, 0, 64, 105
1, 426705, Control_c, 0, 64, 104
1, 426720, Control_c, 0, 64, 104
1, 426735, Control_c, 0, 64, 103
1, 426749, Control_c, 0, 64, 101
1, 426764, Control_c, 0, 64, 98
1, 426786, Control_c, 0, 64, 93
1, 426788, Note_on_c, 0, 62, 54
1, 426801, Control_c, 0, 64, 81
1, 426816, Control_c, 0, 64, 71
1, 426830, Control_c, 0, 64, 65
1, 426845, Control_c, 0, 64, 66
1, 426860, Control_c, 0, 64, 68
1, 426875, Control_c, 0, 64, 70
1, 426890, Control_c, 0, 64, 75
1, 426905, Control_c, 0, 64, 84
1, 426919, Control_c, 0, 64, 91
1, 426934, Control_c, 0, 64, 95
1, 426949, Control_c, 0, 64, 96
1, 426964, Control_c, 0, 64, 96
1, 426979, Control_c, 0, 64, 97
1, 427009, Control_c, 0, 64, 97
1, 427024, Control_c, 0, 64, 98
1, 427053, Control_c, 0, 64, 98
1, 427230, Control_c, 0, 64, 98
1, 427245, Control_c, 0, 64, 97
1, 427260, Control_c, 0, 64, 96
1, 427275, Control_c, 0, 64, 94
1, 427290, Control_c, 0, 64, 93
1, 427304, Control_c, 0, 64, 91
1, 427319, Control_c, 0, 64, 89
1, 427334, Control_c, 0, 64, 87
1, 427349, Control_c, 0, 64, 84
1, 427364, Control_c, 0, 64, 79
1, 427378, Control_c, 0, 64, 71
1, 427386, Note_on_c, 0, 60, 47
1, 427393, Control_c, 0, 64, 64
1, 427408, Control_c, 0, 64, 58
1, 427422, Note_off_c, 0, 67, 42
1, 427423, Note_off_c, 0, 79, 36
1, 427423, Control_c, 0, 64, 55
1, 427423, Note_off_c, 0, 62, 40
1, 427438, Control_c, 0, 64, 54
1, 427453, Control_c, 0, 64, 53
1, 427468, Control_c, 0, 64, 52
1, 427483, Control_c, 0, 64, 51
1, 427498, Control_c, 0, 64, 49
1, 427513, Control_c, 0, 64, 48
1, 427550, Control_c, 0, 64, 48
1, 427713, Control_c, 0, 64, 47
1, 427861, Note_on_c, 0, 62, 50
1, 427903, Note_off_c, 0, 60, 35
1, 428019, Note_on_c, 0, 63, 46
1, 428073, Note_off_c, 0, 62, 34
1, 428231, Control_c, 0, 67, 125
1, 428247, Control_c, 0, 67, 122
1, 428262, Control_c, 0, 67, 119
1, 428284, Control_c, 0, 67, 115
1, 428299, Control_c, 0, 67, 112
1, 428314, Control_c, 0, 67, 108
1, 428329, Control_c, 0, 67, 104
1, 428344, Control_c, 0, 67, 101
1, 428358, Control_c, 0, 67, 98
1, 428373, Control_c, 0, 67, 96
1, 428388, Control_c, 0, 67, 94
1, 428403, Control_c, 0, 67, 92
1, 428418, Control_c, 0, 64, 48
1, 428418, Control_c, 0, 67, 88
1, 428432, Control_c, 0, 67, 86
1, 428447, Control_c, 0, 67, 82
1, 428462, Control_c, 0, 67, 79
1, 428476, Control_c, 0, 67, 76
1, 428491, Control_c, 0, 67, 73
1, 428506, Control_c, 0, 67, 71
1, 428521, Control_c, 0, 67, 70
1, 428536, Control_c, 0, 67, 68
1, 428550, Control_c, 0, 67, 67
1, 428565, Control_c, 0, 67, 66
1, 428581, Control_c, 0, 67, 65
1, 428596, Control_c, 0, 67, 64
1, 428610, Control_c, 0, 67, 62
1, 428625, Control_c, 0, 67, 61
1, 428640, Control_c, 0, 67, 59
1, 428642, Note_on_c, 0, 79, 46
1, 428645, Note_on_c, 0, 67, 37
1, 428655, Control_c, 0, 67, 58
1, 428670, Control_c, 0, 67, 56
1, 428684, Control_c, 0, 67, 55
1, 428699, Control_c, 0, 67, 53
1, 428714, Control_c, 0, 67, 51
1, 428729, Control_c, 0, 67, 48
1, 428744, Control_c, 0, 67, 45
1, 428759, Control_c, 0, 67, 41
1, 428773, Control_c, 0, 67, 36
1, 428788, Control_c, 0, 67, 32
1, 428803, Control_c, 0, 67, 27
1, 428818, Control_c, 0, 67, 24
1, 428833, Control_c, 0, 67, 21
1, 428848, Control_c, 0, 67, 18
1, 428863, Control_c, 0, 67, 16
1, 428930, Note_on_c, 0, 62, 43
1, 428951, Control_c, 0, 67, 0
1, 428973, Note_off_c, 0, 63, 37
1, 429252, Note_on_c, 0, 60, 46
1, 429318, Note_off_c, 0, 62, 33
1, 429538, Note_on_c, 0, 55, 52
1, 429566, Note_off_c, 0, 60, 45
1, 429641, Note_off_c, 0, 67, 39
1, 429700, Control_c, 0, 64, 48
1, 429820, Note_on_c, 0, 60, 51
1, 429822, Note_on_c, 0, 75, 62
1, 429894, Note_off_c, 0, 55, 41
1, 429901, Control_c, 0, 64, 49
1, 429906, Note_off_c, 0, 79, 50
1, 430019, Control_c, 0, 64, 49
1, 430093, Control_c, 0, 64, 50
1, 430128, Note_on_c, 0, 77, 58
1, 430137, Note_on_c, 0, 62, 45
1, 430139, Note_off_c, 0, 60, 42
1, 430170, Note_off_c, 0, 75, 56
1, 430211, Control_c, 0, 64, 50
1, 430502, Note_on_c, 0, 79, 51
1, 430523, Note_on_c, 0, 63, 34
1, 430575, Note_off_c, 0, 77, 34
1, 430619, Note_off_c, 0, 62, 40
1, 430885, Note_on_c, 0, 75, 42
1, 430963, Note_off_c, 0, 79, 34
1, 430975, Control_c, 0, 64, 51
1, 431138, Control_c, 0, 67, 20
1, 431152, Control_c, 0, 67, 24
1, 431167, Control_c, 0, 67, 29
1, 431171, Note_off_c, 0, 63, 41
1, 431173, Note_on_c, 0, 62, 36
1, 431182, Control_c, 0, 67, 33
1, 431193, Note_on_c, 0, 71, 41
1, 431197, Control_c, 0, 67, 38
1, 431200, Note_off_c, 0, 75, 35
1, 431212, Control_c, 0, 67, 42
1, 431227, Control_c, 0, 67, 46
1, 431242, Control_c, 0, 67, 51
1, 431257, Control_c, 0, 67, 54
1, 431278, Control_c, 0, 67, 57
1, 431293, Control_c, 0, 67, 60
1, 431308, Control_c, 0, 67, 64
1, 431322, Control_c, 0, 67, 67
1, 431337, Control_c, 0, 67, 71
1, 431352, Control_c, 0, 67, 75
1, 431367, Control_c, 0, 67, 78
1, 431382, Control_c, 0, 67, 82
1, 431397, Control_c, 0, 67, 85
1, 431412, Control_c, 0, 67, 88
1, 431426, Control_c, 0, 64, 50
1, 431426, Control_c, 0, 67, 91
1, 431441, Control_c, 0, 67, 93
1, 431457, Control_c, 0, 67, 95
1, 431462, Note_off_c, 0, 71, 42
1, 431466, Note_on_c, 0, 72, 50
1, 431472, Control_c, 0, 67, 98
1, 431487, Control_c, 0, 67, 100
1, 431496, Note_on_c, 0, 60, 28
1, 431501, Control_c, 0, 67, 101
1, 431516, Control_c, 0, 67, 102
1, 431531, Control_c, 0, 67, 103
1, 431535, Note_off_c, 0, 62, 40
1, 431546, Control_c, 0, 64, 50
1, 431546, Control_c, 0, 67, 104
1, 431561, Control_c, 0, 67, 104
1, 431576, Control_c, 0, 67, 105
1, 431591, Control_c, 0, 64, 49
1, 431591, Control_c, 0, 67, 105
1, 431606, Control_c, 0, 67, 106
1, 431621, Control_c, 0, 67, 106
1, 431635, Control_c, 0, 64, 49
1, 431710, Control_c, 0, 64, 48
1, 431739, Control_c, 0, 64, 47
1, 431754, Control_c, 0, 64, 44
1, 431769, Control_c, 0, 64, 40
1, 431784, Control_c, 0, 64, 34
1, 431793, Note_on_c, 0, 67, 50
1, 431794, Note_on_c, 0, 64, 30
1, 431799, Control_c, 0, 64, 26
1, 431799, Note_on_c, 0, 55, 23
1, 431803, Note_off_c, 0, 60, 35
1, 431812, Note_off_c, 0, 72, 39
1, 431814, Control_c, 0, 64, 21
1, 431828, Control_c, 0, 64, 19
1, 431873, Control_c, 0, 64, 23
1, 431888, Control_c, 0, 64, 42
1, 431902, Control_c, 0, 64, 60
1, 431917, Control_c, 0, 64, 68
1, 431932, Control_c, 0, 64, 73
1, 431947, Control_c, 0, 64, 80
1, 431962, Control_c, 0, 64, 85
1, 431976, Control_c, 0, 64, 89
1, 431991, Control_c, 0, 64, 90
1, 431991, Control_c, 0, 67, 106
1, 432004, Note_off_c, 0, 64, 49
1, 432005, Note_off_c, 0, 67, 35
1, 432006, Note_off_c, 0, 55, 38
1, 432006, Control_c, 0, 64, 91
1, 432006, Control_c, 0, 67, 104
1, 432028, Control_c, 0, 64, 92
1, 432043, Control_c, 0, 64, 93
1, 432058, Control_c, 0, 64, 95
1, 432058, Control_c, 0, 67, 104
1, 432073, Control_c, 0, 64, 97
1, 432088, Control_c, 0, 64, 97
1, 432088, Control_c, 0, 67, 103
1, 432102, Control_c, 0, 64, 98
1, 432102, Control_c, 0, 67, 103
1, 432117, Control_c, 0, 64, 98
1, 432117, Control_c, 0, 67, 102
1, 432132, Control_c, 0, 64, 99
1, 432146, Control_c, 0, 64, 99
1, 432161, Control_c, 0, 64, 100
1, 432176, Control_c, 0, 67, 102
1, 432191, Control_c, 0, 67, 101
1, 432354, Control_c, 0, 64, 100
1, 432354, Control_c, 0, 67, 101
1, 432368, Control_c, 0, 64, 98
1, 432383, Control_c, 0, 64, 95
1, 432398, Control_c, 0, 64, 90
1, 432413, Control_c, 0, 64, 81
1, 432413, Note_on_c, 0, 55, 38
1, 432416, Note_on_c, 0, 62, 39
1, 432417, Note_on_c, 0, 71, 57
1, 432419, Note_on_c, 0, 65, 49
1, 432428, Control_c, 0, 64, 72
1, 432443, Control_c, 0, 64, 65
1, 432443, Control_c, 0, 67, 100
1, 432457, Control_c, 0, 64, 60
1, 432472, Control_c, 0, 64, 60
1, 432487, Control_c, 0, 64, 61
1, 432502, Control_c, 0, 64, 64
1, 432517, Control_c, 0, 64, 68
1, 432517, Control_c, 0, 67, 101
1, 432531, Control_c, 0, 64, 74
1, 432546, Control_c, 0, 64, 84
1, 432546, Control_c, 0, 67, 102
1, 432561, Control_c, 0, 64, 97
1, 432561, Control_c, 0, 67, 102
1, 432575, Control_c, 0, 64, 104
1, 432575, Control_c, 0, 67, 103
1, 432588, Note_off_c, 0, 62, 37
1, 432590, Control_c, 0, 64, 104
1, 432590, Control_c, 0, 67, 103
1, 432593, Note_off_c, 0, 55, 52
1, 432604, Note_off_c, 0, 65, 53
1, 432605, Control_c, 0, 67, 104
1, 432634, Note_off_c, 0, 71, 35
1, 432649, Control_c, 0, 67, 104
1, 432664, Control_c, 0, 64, 105
1, 432664, Control_c, 0, 67, 105
1, 432679, Control_c, 0, 67, 105
1, 432694, Control_c, 0, 67, 106
1, 432709, Control_c, 0, 64, 105
1, 432709, Control_c, 0, 67, 106
1, 432723, Control_c, 0, 64, 106
1, 432723, Control_c, 0, 67, 107
1, 432753, Control_c, 0, 67, 107
1, 432805, Control_c, 0, 67, 109
1, 432820, Control_c, 0, 67, 111
1, 432835, Control_c, 0, 67, 114
1, 432849, Control_c, 0, 67, 115
1, 432864, Control_c, 0, 67, 117
1, 432879, Control_c, 0, 67, 119
1, 432894, Control_c, 0, 67, 121
1, 432909, Control_c, 0, 67, 122
1, 432923, Control_c, 0, 67, 124
1, 432938, Control_c, 0, 67, 126
1, 432953, Control_c, 0, 67, 127
1, 432968, Control_c, 0, 64, 105
1, 432982, Control_c, 0, 64, 105
1, 432997, Control_c, 0, 64, 104
1, 433012, Control_c, 0, 64, 103
1, 433027, Control_c, 0, 64, 101
1, 433043, Control_c, 0, 64, 99
1, 433058, Control_c, 0, 64, 97
1, 433072, Control_c, 0, 64, 94
1, 433087, Control_c, 0, 64, 90
1, 433102, Control_c, 0, 64, 87
1, 433117, Control_c, 0, 64, 85
1, 433132, Control_c, 0, 64, 81
1, 433135, Note_on_c, 0, 72, 49
1, 433142, Note_on_c, 0, 64, 38
1, 433146, Control_c, 0, 64, 76
1, 433153, Note_on_c, 0, 48, 37
1, 433155, Note_on_c, 0, 55, 30
1, 433156, Note_on_c, 0, 60, 36
1, 433161, Control_c, 0, 64, 70
1, 433176, Control_c, 0, 64, 66
1, 433191, Control_c, 0, 64, 63
1, 433206, Control_c, 0, 64, 62
1, 433221, Control_c, 0, 64, 61
1, 433236, Control_c, 0, 64, 60
1, 433251, Control_c, 0, 64, 60
1, 433265, Control_c, 0, 64, 59
1, 433280, Control_c, 0, 64, 59
1, 433340, Control_c, 0, 64, 58
1, 433487, Control_c, 0, 64, 58
1, 433791, Control_c, 0, 64, 59
1, 433805, Control_c, 0, 64, 62
1, 433820, Control_c, 0, 64, 64
1, 433835, Control_c, 0, 64, 67
1, 433851, Control_c, 0, 64, 72
1, 433866, Control_c, 0, 64, 79
1, 433881, Control_c, 0, 64, 89
1, 433895, Control_c, 0, 64, 97
1, 433910, Control_c, 0, 64, 100
1, 433925, Control_c, 0, 64, 101
1, 433940, Control_c, 0, 64, 102
1, 433949, Note_off_c, 0, 48, 33
1, 433954, Note_off_c, 0, 60, 45
1, 433955, Control_c, 0, 64, 104
1, 433969, Control_c, 0, 64, 107
1, 433972, Note_off_c, 0, 64, 52
1, 433984, Control_c, 0, 64, 110
1, 433999, Control_c, 0, 64, 112
1, 434002, Note_off_c, 0, 55, 40
1, 434014, Control_c, 0, 64, 113
1, 434028, Note_off_c, 0, 72, 35
1, 434029, Control_c, 0, 64, 114
1, 434044, Control_c, 0, 64, 115
1, 434059, Control_c, 0, 64, 117
1, 434073, Control_c, 0, 64, 119
1, 434088, Control_c, 0, 64, 120
1, 434675, Control_c, 0, 64, 118
1, 434690, Control_c, 0, 64, 117
1, 434705, Control_c, 0, 64, 114
1, 434719, Control_c, 0, 64, 111
1, 434733, Note_on_c, 0, 55, 34
1, 434734, Control_c, 0, 64, 107
1, 434736, Note_on_c, 0, 67, 41
1, 434747, Note_on_c, 0, 64, 36
1, 434749, Control_c, 0, 64, 100
1, 434763, Control_c, 0, 64, 90
1, 434778, Control_c, 0, 64, 82
1, 434793, Control_c, 0, 64, 72
1, 434808, Control_c, 0, 64, 64
1, 434823, Control_c, 0, 64, 56
1, 434837, Control_c, 0, 64, 54
1, 434867, Control_c, 0, 64, 56
1, 434882, Control_c, 0, 64, 61
1, 434897, Control_c, 0, 64, 66
1, 434911, Control_c, 0, 64, 70
1, 434926, Control_c, 0, 64, 77
1, 434941, Control_c, 0, 64, 86
1, 434956, Control_c, 0, 64, 92
1, 434966, Note_off_c, 0, 55, 40
1, 434968, Note_off_c, 0, 64, 50
1, 434971, Control_c, 0, 64, 94
1, 434984, Note_off_c, 0, 67, 58
1, 434986, Control_c, 0, 64, 94
1, 435001, Control_c, 0, 64, 95
1, 435023, Control_c, 0, 64, 96
1, 435038, Control_c, 0, 64, 97
1, 435052, Control_c, 0, 64, 98
1, 435067, Control_c, 0, 64, 98
1, 435082, Control_c, 0, 64, 99
1, 435097, Control_c, 0, 64, 100
1, 435112, Control_c, 0, 64, 100
1, 435334, Control_c, 0, 64, 100
1, 435349, Control_c, 0, 64, 99
1, 435364, Control_c, 0, 64, 97
1, 435378, Control_c, 0, 64, 93
1, 435393, Control_c, 0, 64, 87
1, 435397, Note_on_c, 0, 65, 41
1, 435403, Note_on_c, 0, 62, 40
1, 435404, Note_on_c, 0, 55, 26
1, 435408, Control_c, 0, 64, 80
1, 435410, Note_on_c, 0, 71, 43
1, 435423, Control_c, 0, 64, 73
1, 435438, Control_c, 0, 64, 66
1, 435454, Control_c, 0, 64, 62
1, 435468, Control_c, 0, 64, 61
1, 435513, Control_c, 0, 64, 62
1, 435528, Control_c, 0, 64, 65
1, 435542, Control_c, 0, 64, 69
1, 435557, Control_c, 0, 64, 75
1, 435572, Control_c, 0, 64, 83
1, 435573, Note_off_c, 0, 62, 49
1, 435586, Control_c, 0, 64, 93
1, 435601, Control_c, 0, 64, 96
1, 435620, Note_off_c, 0, 55, 40
1, 435628, Note_off_c, 0, 65, 36
1, 435631, Control_c, 0, 64, 97
1, 435646, Control_c, 0, 64, 98
1, 435648, Note_off_c, 0, 71, 43
1, 435660, Control_c, 0, 64, 99
1, 435675, Control_c, 0, 64, 100
1, 435720, Control_c, 0, 64, 101
1, 435734, Control_c, 0, 64, 102
1, 435749, Control_c, 0, 64, 102
1, 436053, Control_c, 0, 64, 102
1, 436083, Control_c, 0, 64, 101
1, 436098, Control_c, 0, 64, 101
1, 436112, Control_c, 0, 64, 100
1, 436127, Control_c, 0, 64, 99
1, 436142, Control_c, 0, 64, 98
1, 436157, Control_c, 0, 64, 97
1, 436172, Control_c, 0, 64, 94
1, 436187, Control_c, 0, 64, 91
1, 436201, Control_c, 0, 64, 88
1, 436214, Note_on_c, 0, 72, 45
1, 436215, Note_on_c, 0, 48, 34
1, 436216, Control_c, 0, 64, 85
1, 436217, Note_on_c, 0, 64, 37
1, 436223, Note_on_c, 0, 55, 37
1, 436231, Control_c, 0, 64, 82
1, 436232, Note_on_c, 0, 60, 31
1, 436247, Control_c, 0, 64, 79
1, 436261, Control_c, 0, 64, 74
1, 436276, Control_c, 0, 64, 69
1, 436288, Note_off_c, 0, 48, 0
1, 436288, Note_on_c, 0, 48, 3
1, 436291, Control_c, 0, 64, 65
1, 436306, Control_c, 0, 64, 63
1, 436321, Control_c, 0, 64, 63
1, 436350, Control_c, 0, 64, 62
1, 436365, Control_c, 0, 64, 62
1, 436380, Control_c, 0, 64, 61
1, 436395, Control_c, 0, 64, 61
1, 436424, Control_c, 0, 64, 60
1, 436580, Control_c, 0, 64, 61
1, 436595, Control_c, 0, 64, 61
1, 436610, Control_c, 0, 64, 63
1, 436624, Control_c, 0, 64, 63
1, 436639, Control_c, 0, 64, 64
1, 436654, Control_c, 0, 64, 65
1, 436669, Control_c, 0, 64, 66
1, 436684, Control_c, 0, 64, 67
1, 436698, Control_c, 0, 64, 68
1, 436713, Control_c, 0, 64, 70
1, 436728, Control_c, 0, 64, 73
1, 436742, Control_c, 0, 64, 76
1, 436757, Control_c, 0, 64, 79
1, 436772, Control_c, 0, 64, 81
1, 436787, Control_c, 0, 64, 83
1, 436802, Control_c, 0, 64, 86
1, 436816, Control_c, 0, 64, 88
1, 436831, Control_c, 0, 64, 90
1, 436846, Control_c, 0, 64, 91
1, 436860, Control_c, 0, 64, 93
1, 436875, Control_c, 0, 64, 95
1, 436890, Control_c, 0, 64, 96
1, 436905, Control_c, 0, 64, 99
1, 436920, Control_c, 0, 64, 103
1, 436934, Control_c, 0, 64, 107
1, 436949, Control_c, 0, 64, 112
1, 436964, Control_c, 0, 64, 118
1, 436979, Control_c, 0, 64, 127
1, 436979, Control_c, 0, 67, 126
1, 436994, Control_c, 0, 67, 123
1, 437009, Control_c, 0, 67, 119
1, 437023, Control_c, 0, 67, 115
1, 437039, Control_c, 0, 67, 111
1, 437054, Control_c, 0, 67, 106
1, 437069, Control_c, 0, 67, 101
1, 437084, Control_c, 0, 67, 97
1, 437099, Control_c, 0, 67, 92
1, 437113, Control_c, 0, 67, 88
1, 437126, Note_off_c, 0, 72, 50
1, 437128, Control_c, 0, 67, 83
1, 437143, Control_c, 0, 67, 77
1, 437147, Note_off_c, 0, 60, 39
1, 437158, Control_c, 0, 67, 69
1, 437161, Note_off_c, 0, 64, 40
1, 437172, Control_c, 0, 67, 63
1, 437187, Control_c, 0, 67, 57
1, 437200, Note_off_c, 0, 48, 39
1, 437202, Control_c, 0, 67, 51
1, 437212, Note_off_c, 0, 55, 34
1, 437217, Control_c, 0, 67, 44
1, 437232, Control_c, 0, 67, 37
1, 437246, Control_c, 0, 67, 34
1, 437269, Control_c, 0, 67, 25
1, 437284, Control_c, 0, 67, 17
1, 437314, Control_c, 0, 67, 0
1, 438065, Note_on_c, 0, 43, 44
1, 438075, Note_on_c, 0, 55, 70
1, 438082, Note_on_c, 0, 52, 48
1, 438121, Control_c, 0, 64, 114
1, 438136, Control_c, 0, 64, 91
1, 438151, Control_c, 0, 64, 78
1, 438166, Control_c, 0, 64, 69
1, 438181, Control_c, 0, 64, 65
1, 438195, Control_c, 0, 64, 66
1, 438210, Control_c, 0, 64, 67
1, 438225, Control_c, 0, 64, 70
1, 438240, Control_c, 0, 64, 76
1, 438255, Control_c, 0, 64, 85
1, 438269, Control_c, 0, 64, 96
1, 438284, Control_c, 0, 64, 104
1, 438299, Control_c, 0, 64, 105
1, 438314, Control_c, 0, 64, 106
1, 438329, Control_c, 0, 64, 106
1, 438344, Control_c, 0, 64, 108
1, 438359, Control_c, 0, 64, 110
1, 438374, Control_c, 0, 64, 115
1, 438388, Control_c, 0, 64, 120
1, 438403, Control_c, 0, 64, 123
1, 438418, Control_c, 0, 64, 124
1, 438433, Control_c, 0, 64, 127
1, 438562, Note_off_c, 0, 43, 38
1, 439070, Note_on_c, 0, 50, 49
1, 439074, Note_on_c, 0, 43, 46
1, 439075, Note_on_c, 0, 59, 70
1, 439083, Note_on_c, 0, 53, 62
1, 439123, Control_c, 0, 64, 112
1, 439137, Control_c, 0, 64, 99
1, 439152, Control_c, 0, 64, 86
1, 439167, Control_c, 0, 64, 76
1, 439182, Control_c, 0, 64, 67
1, 439189, Note_off_c, 0, 52, 39
1, 439197, Control_c, 0, 64, 63
1, 439199, Note_off_c, 0, 55, 34
1, 439211, Control_c, 0, 64, 62
1, 439315, Control_c, 0, 64, 63
1, 439330, Control_c, 0, 64, 66
1, 439344, Control_c, 0, 64, 69
1, 439359, Control_c, 0, 64, 74
1, 439374, Control_c, 0, 64, 82
1, 439389, Control_c, 0, 64, 91
1, 439404, Control_c, 0, 64, 98
1, 439418, Control_c, 0, 64, 100
1, 439434, Control_c, 0, 64, 102
1, 439449, Control_c, 0, 64, 105
1, 439464, Control_c, 0, 64, 111
1, 439479, Control_c, 0, 64, 124
1, 439494, Control_c, 0, 64, 127
1, 439558, Note_on_c, 0, 46, 21
1, 439570, Note_off_c, 0, 50, 47
1, 439596, Note_off_c, 0, 43, 51
1, 439626, Note_off_c, 0, 46, 41
1, 439728, Note_off_c, 0, 53, 39
1, 439740, Note_off_c, 0, 59, 33
1, 440896, Note_on_c, 0, 60, 47
1, 440897, Note_on_c, 0, 52, 36
1, 440900, Note_on_c, 0, 43, 38
1, 440901, Control_c, 0, 64, 111
1, 440909, Note_on_c, 0, 48, 35
1, 440912, Note_on_c, 0, 36, 39
1, 440915, Control_c, 0, 64, 102
1, 440930, Control_c, 0, 64, 95
1, 440945, Control_c, 0, 64, 89
1, 440960, Control_c, 0, 64, 82
1, 440975, Control_c, 0, 64, 75
1, 440989, Control_c, 0, 64, 68
1, 441012, Control_c, 0, 64, 63
1, 441027, Control_c, 0, 64, 61
1, 441043, Control_c, 0, 64, 60
1, 441057, Control_c, 0, 64, 58
1, 441072, Control_c, 0, 64, 56
1, 441087, Control_c, 0, 64, 52
1, 441102, Control_c, 0, 64, 45
1, 441117, Control_c, 0, 64, 32
1, 441132, Control_c, 0, 64, 0
1, 441606, Control_c, 0, 67, 16
1, 441621, Control_c, 0, 67, 18
1, 441636, Control_c, 0, 67, 20
1, 441651, Control_c, 0, 67, 21
1, 441665, Control_c, 0, 67, 23
1, 441680, Control_c, 0, 67, 24
1, 441695, Control_c, 0, 67, 26
1, 441710, Control_c, 0, 67, 28
1, 441725, Control_c, 0, 67, 30
1, 441739, Control_c, 0, 67, 33
1, 441761, Control_c, 0, 67, 35
1, 441776, Control_c, 0, 67, 37
1, 441791, Control_c, 0, 67, 39
1, 441806, Control_c, 0, 67, 42
1, 441821, Control_c, 0, 67, 45
1, 441836, Control_c, 0, 67, 49
1, 441851, Control_c, 0, 67, 52
1, 441866, Control_c, 0, 67, 56
1, 441881, Control_c, 0, 67, 60
1, 441895, Control_c, 0, 67, 65
1, 441910, Control_c, 0, 67, 70
1, 441925, Control_c, 0, 67, 75
1, 441940, Control_c, 0, 67, 81
1, 441955, Control_c, 0, 67, 86
1, 441970, Control_c, 0, 67, 91
1, 441985, Control_c, 0, 67, 96
1, 442000, Control_c, 0, 64, 30
1, 442000, Control_c, 0, 67, 100
1, 442015, Control_c, 0, 64, 49
1, 442015, Control_c, 0, 67, 104
1, 442030, Control_c, 0, 64, 60
1, 442030, Control_c, 0, 67, 107
1, 442044, Control_c, 0, 64, 66
1, 442044, Control_c, 0, 67, 108
1, 442059, Control_c, 0, 64, 70
1, 442059, Control_c, 0, 67, 109
1, 442074, Control_c, 0, 64, 74
1, 442074, Control_c, 0, 67, 109
1, 442088, Control_c, 0, 64, 79
1, 442088, Control_c, 0, 67, 110
1, 442103, Control_c, 0, 64, 84
1, 442103, Control_c, 0, 67, 110
1, 442118, Control_c, 0, 64, 89
1, 442133, Control_c, 0, 64, 92
1, 442133, Control_c, 0, 67, 111
1, 442148, Control_c, 0, 64, 94
1, 442148, Control_c, 0, 67, 112
1, 442162, Control_c, 0, 64, 96
1, 442162, Control_c, 0, 67, 113
1, 442177, Control_c, 0, 64, 99
1, 442177, Control_c, 0, 67, 114
1, 442192, Control_c, 0, 64, 103
1, 442192, Control_c, 0, 67, 115
1, 442207, Control_c, 0, 64, 107
1, 442207, Control_c, 0, 67, 115
1, 442222, Control_c, 0, 64, 111
1, 442222, Control_c, 0, 67, 116
1, 442224, Note_off_c, 0, 48, 39
1, 442232, Note_off_c, 0, 36, 31
1, 442236, Note_off_c, 0, 60, 30
1, 442236, Control_c, 0, 64, 115
1, 442236, Control_c, 0, 67, 116
1, 442251, Control_c, 0, 64, 119
1, 442253, Note_off_c, 0, 52, 38
1, 442259, Note_off_c, 0, 43, 39
1, 442266, Control_c, 0, 64, 127
1, 442808, Control_c, 0, 64, 118
1, 442822, Control_c, 0, 64, 114
1, 442837, Control_c, 0, 64, 111
1, 442852, Control_c, 0, 64, 108
1, 442867, Control_c, 0, 64, 105
1, 442882, Control_c, 0, 64, 101
1, 442891, Note_on_c, 0, 36, 38
1, 442891, Note_on_c, 0, 60, 42
1, 442896, Note_on_c, 0, 55, 40
1, 442897, Control_c, 0, 64, 97
1, 442898, Note_on_c, 0, 52, 39
1, 442909, Note_on_c, 0, 43, 37
1, 442911, Control_c, 0, 64, 93
1, 442921, Note_on_c, 0, 48, 27
1, 442926, Control_c, 0, 64, 88
1, 442941, Control_c, 0, 64, 82
1, 442956, Control_c, 0, 64, 76
1, 442971, Control_c, 0, 64, 70
1, 442985, Control_c, 0, 64, 65
1, 443000, Control_c, 0, 64, 62
1, 443015, Control_c, 0, 64, 60
1, 443029, Control_c, 0, 64, 58
1, 443044, Control_c, 0, 64, 55
1, 443059, Control_c, 0, 64, 52
1, 443059, Control_c, 0, 67, 117
1, 443074, Control_c, 0, 64, 49
1, 443089, Control_c, 0, 64, 45
1, 443103, Control_c, 0, 64, 38
1, 443103, Control_c, 0, 67, 117
1, 443118, Control_c, 0, 64, 27
1, 443133, Control_c, 0, 64, 0
1, 443192, Control_c, 0, 67, 118
1, 443259, Control_c, 0, 67, 118
1, 443274, Control_c, 0, 67, 119
1, 443289, Control_c, 0, 67, 119
1, 443318, Control_c, 0, 67, 120
1, 443348, Control_c, 0, 67, 120
1, 443377, Control_c, 0, 67, 121
1, 443407, Control_c, 0, 67, 121
1, 443497, Control_c, 0, 67, 122
1, 443541, Control_c, 0, 67, 122
1, 443571, Control_c, 0, 67, 123
1, 443586, Control_c, 0, 67, 124
1, 443601, Control_c, 0, 67, 124
1, 443615, Control_c, 0, 67, 125
1, 443630, Control_c, 0, 67, 126
1, 443645, Control_c, 0, 67, 127
1, 443660, Control_c, 0, 67, 127
1, 443926, Control_c, 0, 64, 33
1, 443941, Control_c, 0, 64, 48
1, 443956, Control_c, 0, 64, 60
1, 443971, Control_c, 0, 64, 64
1, 443986, Control_c, 0, 64, 66
1, 444008, Control_c, 0, 64, 69
1, 444023, Control_c, 0, 64, 72
1, 444038, Control_c, 0, 64, 77
1, 444053, Control_c, 0, 64, 83
1, 444067, Control_c, 0, 64, 87
1, 444082, Control_c, 0, 64, 90
1, 444097, Control_c, 0, 64, 93
1, 444112, Control_c, 0, 64, 95
1, 444127, Control_c, 0, 64, 97
1, 444141, Control_c, 0, 64, 99
1, 444156, Control_c, 0, 64, 102
1, 444171, Control_c, 0, 64, 104
1, 444176, Note_off_c, 0, 60, 32
1, 444185, Control_c, 0, 64, 105
1, 444199, Note_off_c, 0, 52, 34
1, 444200, Control_c, 0, 64, 106
1, 444215, Note_off_c, 0, 48, 39
1, 444215, Control_c, 0, 64, 108
1, 444231, Control_c, 0, 64, 109
1, 444244, Note_off_c, 0, 36, 29
1, 444246, Control_c, 0, 64, 111
1, 444261, Control_c, 0, 64, 112
1, 444275, Control_c, 0, 64, 113
1, 444283, Note_off_c, 0, 55, 34
1, 444290, Control_c, 0, 64, 116
1, 444306, Control_c, 0, 64, 119
1, 444321, Control_c, 0, 64, 124
1, 444327, Note_off_c, 0, 43, 32
1, 444336, Control_c, 0, 64, 127
1, 445469, Control_c, 0, 64, 123
1, 445484, Control_c, 0, 64, 120
1, 445505, Control_c, 0, 64, 117
1, 445520, Control_c, 0, 64, 114
1, 445531, Note_on_c, 0, 36, 36
1, 445532, Note_on_c, 0, 60, 39
1, 445535, Control_c, 0, 64, 110
1, 445538, Note_on_c, 0, 52, 33
1, 445540, Note_on_c, 0, 55, 36
1, 445541, Note_on_c, 0, 43, 31
1, 445550, Note_on_c, 0, 48, 27
1, 445550, Control_c, 0, 64, 107
1, 445565, Control_c, 0, 64, 105
1, 445580, Control_c, 0, 64, 100
1, 445595, Control_c, 0, 64, 91
1, 445610, Control_c, 0, 64, 81
1, 445624, Control_c, 0, 64, 71
1, 445639, Control_c, 0, 64, 64
1, 445654, Control_c, 0, 64, 59
1, 445669, Control_c, 0, 64, 57
1, 445684, Control_c, 0, 64, 56
1, 445699, Control_c, 0, 64, 54
1, 445713, Control_c, 0, 64, 52
1, 445728, Control_c, 0, 64, 49
1, 445743, Control_c, 0, 64, 46
1, 445757, Control_c, 0, 64, 42
1, 445772, Control_c, 0, 64, 36
1, 445787, Control_c, 0, 64, 30
1, 445802, Control_c, 0, 64, 17
1, 445817, Control_c, 0, 64, 0
1, 446670, Control_c, 0, 67, 127
1, 446684, Control_c, 0, 67, 126
1, 446699, Control_c, 0, 67, 126
1, 446714, Control_c, 0, 67, 125
1, 446729, Control_c, 0, 67, 125
1, 446744, Control_c, 0, 67, 124
1, 446758, Control_c, 0, 67, 124
1, 446773, Control_c, 0, 67, 123
1, 446802, Control_c, 0, 67, 123
1, 446817, Control_c, 0, 67, 122
1, 446832, Control_c, 0, 67, 122
1, 446847, Control_c, 0, 67, 121
1, 446862, Control_c, 0, 67, 119
1, 446876, Control_c, 0, 67, 118
1, 446891, Control_c, 0, 67, 115
1, 446906, Control_c, 0, 67, 113
1, 446921, Control_c, 0, 67, 110
1, 446936, Control_c, 0, 67, 106
1, 446951, Control_c, 0, 67, 101
1, 446966, Control_c, 0, 67, 95
1, 446981, Control_c, 0, 67, 88
1, 447002, Control_c, 0, 67, 81
1, 447017, Control_c, 0, 67, 73
1, 447032, Control_c, 0, 67, 65
1, 447047, Control_c, 0, 67, 56
1, 447062, Control_c, 0, 67, 49
1, 447076, Control_c, 0, 67, 43
1, 447091, Control_c, 0, 67, 37
1, 447106, Control_c, 0, 67, 33
1, 447121, Control_c, 0, 67, 28
1, 447136, Control_c, 0, 67, 36
1, 447151, Control_c, 0, 67, 32
1, 447166, Control_c, 0, 67, 28
1, 447181, Control_c, 0, 67, 24
1, 447195, Control_c, 0, 67, 21
1, 447210, Control_c, 0, 67, 18
1, 447270, Control_c, 0, 67, 0
1, 450486, Note_off_c, 0, 52, 11
1, 450808, Note_off_c, 0, 48, 12
1, 450912, Note_off_c, 0, 60, 24
1, 450990, Note_off_c, 0, 36, 26
1, 451036, Note_off_c, 0, 55, 38
1, 451081, Note_off_c, 0, 43, 33
1, 451081, End_track
0, 0, End_of_file
