0, 0, Header, 0, 1, 384
1, 0, Start_track
1, 0, Title_t, "Etude Op. 10/8--Young-Ah Tak    "
1, 0, Text_t, "2009 Piano-e-Competition audition round"
1, 0, Text_t, "captured January 2009"
1, 0, Text_t, "http://www.piano-e-competition.com/"
1, 0, Text_t, "File processed for distribution by software from Zenph Studios, Inc., http://www.zenph.com"
1, 0, Instrument_name_t, "Yamaha Disklavier Pro Mark IV concert grand piano, model DCFIIISM4PRO"
1, 0, Sequencer_specific, 39, 67, 113, 0, 1, 0, 1, 0, 69, 116, 117, 100, 101, 32, 79, 112, 46, 32, 49, 48, 47, 56, 32, 32, 89, 111, 117, 110, 103, 45, 65, 104, 32, 84, 97, 107, 32, 32, 32, 32
1, 0, Sequencer_specific, 6, 67, 113, 0, 0, 0, 69
1, 0, System_exclusive, 21, 67, 113, 126, 21, 0, 2, 2, 0, 3, 14, 1, 4, 1, 13, 13, 10, 11, 9, 2, 7, 247
1, 0, Sequencer_specific, 5, 67, 123, 12, 2, 1
1, 0, Tempo, 512820
1, 0, Time_signature, 4, 2, 24, 8
1, 0, System_exclusive, 5, 126, 127, 9, 1, 247
1, 1, System_exclusive, 8, 67, 16, 76, 0, 0, 126, 0, 247
1, 2, System_exclusive, 8, 67, 16, 76, 8, 9, 7, 1, 247
1, 3, Control_c, 0, 0, 0
1, 3, Control_c, 1, 0, 0
1, 3, Control_c, 2, 0, 0
1, 3, Control_c, 3, 0, 0
1, 3, Control_c, 4, 0, 0
1, 3, Control_c, 5, 0, 0
1, 3, Control_c, 6, 0, 0
1, 3, Control_c, 7, 0, 0
1, 3, Control_c, 8, 0, 0
1, 3, Control_c, 9, 0, 127
1, 3, Control_c, 10, 0, 0
1, 3, Control_c, 11, 0, 0
1, 3, Control_c, 12, 0, 0
1, 3, Control_c, 13, 0, 0
1, 3, Control_c, 14, 0, 0
1, 3, Control_c, 15, 0, 0
1, 4, Control_c, 0, 32, 0
1, 4, Control_c, 1, 32, 0
1, 4, Control_c, 2, 32, 0
1, 4, Control_c, 3, 32, 0
1, 4, Control_c, 4, 32, 0
1, 4, Control_c, 5, 32, 0
1, 4, Control_c, 6, 32, 0
1, 4, Control_c, 7, 32, 0
1, 4, Control_c, 8, 32, 0
1, 4, Control_c, 9, 32, 0
1, 4, Control_c, 10, 32, 0
1, 4, Control_c, 11, 32, 0
1, 4, Control_c, 12, 32, 0
1, 4, Control_c, 13, 32, 0
1, 4, Control_c, 14, 32, 0
1, 4, Control_c, 15, 32, 0
1, 5, Program_c, 0, 0
1, 5, Program_c, 1, 0
1, 5, Program_c, 2, 0
1, 5, Program_c, 3, 0
1, 5, Program_c, 4, 0
1, 5, Program_c, 5, 0
1, 5, Program_c, 6, 0
1, 5, Program_c, 7, 0
1, 5, Program_c, 8, 0
1, 5, Program_c, 9, 0
1, 5, Program_c, 10, 0
1, 5, Program_c, 11, 0
1, 5, Program_c, 12, 0
1, 5, Program_c, 13, 0
1, 5, Program_c, 14, 0
1, 5, Program_c, 15, 0
1, 6, Control_c, 0, 7, 100
1, 6, Control_c, 1, 7, 100
1, 6, Control_c, 2, 7, 100
1, 6, Control_c, 3, 7, 100
1, 6, Control_c, 4, 7, 100
1, 6, Control_c, 5, 7, 100
1, 6, Control_c, 6, 7, 100
1, 6, Control_c, 7, 7, 100
1, 6, Control_c, 8, 7, 100
1, 6, Control_c, 9, 7, 100
1, 6, Control_c, 10, 7, 100
1, 6, Control_c, 11, 7, 100
1, 6, Control_c, 12, 7, 100
1, 6, Control_c, 13, 7, 100
1, 6, Control_c, 14, 7, 100
1, 6, Control_c, 15, 7, 100
1, 1130, Note_on_c, 0, 84, 71
1, 1153, Note_off_c, 0, 84, 69
1, 1155, Note_on_c, 0, 86, 72
1, 1162, Control_c, 0, 64, 16
1, 1177, Control_c, 0, 64, 34
1, 1191, Note_off_c, 0, 86, 57
1, 1192, Control_c, 0, 64, 47
1, 1207, Control_c, 0, 64, 57
1, 1215, Note_on_c, 0, 84, 79
1, 1221, Control_c, 0, 64, 60
1, 1236, Control_c, 0, 64, 61
1, 1247, Note_on_c, 0, 86, 76
1, 1251, Note_off_c, 0, 84, 62
1, 1251, Control_c, 0, 64, 62
1, 1265, Control_c, 0, 64, 64
1, 1280, Control_c, 0, 64, 64
1, 1295, Note_off_c, 0, 86, 62
1, 1295, Control_c, 0, 64, 65
1, 1308, Note_on_c, 0, 84, 58
1, 1346, Note_off_c, 0, 84, 62
1, 1346, Note_on_c, 0, 83, 76
1, 1373, Note_off_c, 0, 83, 62
1, 1403, Note_on_c, 0, 84, 79
1, 1414, Control_c, 0, 64, 64
1, 1429, Control_c, 0, 64, 63
1, 1443, Note_off_c, 0, 84, 60
1, 1444, Control_c, 0, 64, 58
1, 1456, Note_on_c, 0, 48, 82
1, 1459, Control_c, 0, 64, 44
1, 1463, Note_on_c, 0, 41, 67
1, 1466, Note_on_c, 0, 93, 88
1, 1474, Control_c, 0, 64, 0
1, 1528, Note_on_c, 0, 91, 80
1, 1546, Note_off_c, 0, 93, 60
1, 1563, Control_c, 0, 64, 22
1, 1578, Control_c, 0, 64, 34
1, 1583, Note_on_c, 0, 89, 75
1, 1593, Control_c, 0, 64, 43
1, 1595, Note_off_c, 0, 91, 61
1, 1608, Control_c, 0, 64, 50
1, 1619, Note_off_c, 0, 89, 60
1, 1623, Control_c, 0, 64, 54
1, 1644, Control_c, 0, 64, 58
1, 1648, Note_on_c, 0, 84, 73
1, 1659, Control_c, 0, 64, 61
1, 1672, Note_off_c, 0, 84, 69
1, 1674, Control_c, 0, 64, 63
1, 1689, Control_c, 0, 64, 64
1, 1704, Control_c, 0, 64, 65
1, 1714, Note_on_c, 0, 81, 79
1, 1719, Control_c, 0, 64, 67
1, 1728, Note_off_c, 0, 48, 59
1, 1734, Control_c, 0, 64, 68
1, 1748, Control_c, 0, 64, 69
1, 1772, Note_on_c, 0, 79, 71
1, 1786, Note_off_c, 0, 81, 61
1, 1817, Note_on_c, 0, 77, 71
1, 1826, Note_off_c, 0, 79, 63
1, 1862, Note_off_c, 0, 77, 58
1, 1867, Control_c, 0, 64, 69
1, 1875, Note_on_c, 0, 72, 66
1, 1882, Control_c, 0, 64, 67
1, 1896, Control_c, 0, 64, 61
1, 1901, Note_off_c, 0, 72, 67
1, 1911, Control_c, 0, 64, 41
1, 1912, Note_off_c, 0, 41, 57
1, 1926, Control_c, 0, 64, 0
1, 1933, Note_on_c, 0, 48, 58
1, 1948, Note_on_c, 0, 69, 65
1, 1954, Note_off_c, 0, 48, 64
1, 2006, Note_off_c, 0, 69, 63
1, 2009, Note_on_c, 0, 67, 59
1, 2046, Note_off_c, 0, 67, 66
1, 2054, Note_on_c, 0, 65, 64
1, 2089, Note_off_c, 0, 65, 66
1, 2106, Note_on_c, 0, 60, 66
1, 2137, Note_off_c, 0, 60, 67
1, 2169, Note_on_c, 0, 48, 55
1, 2181, Note_on_c, 0, 57, 62
1, 2196, Note_off_c, 0, 48, 58
1, 2220, Note_off_c, 0, 57, 62
1, 2236, Note_on_c, 0, 55, 52
1, 2267, Note_off_c, 0, 55, 68
1, 2279, Note_on_c, 0, 53, 58
1, 2317, Note_off_c, 0, 53, 67
1, 2337, Note_on_c, 0, 48, 52
1, 2398, Note_off_c, 0, 48, 62
1, 2408, Control_c, 0, 64, 10
1, 2416, Note_on_c, 0, 41, 50
1, 2417, Note_on_c, 0, 53, 59
1, 2423, Control_c, 0, 64, 27
1, 2435, Note_on_c, 0, 29, 14
1, 2438, Control_c, 0, 64, 35
1, 2447, Note_off_c, 0, 41, 55
1, 2453, Control_c, 0, 64, 41
1, 2467, Control_c, 0, 64, 47
1, 2477, Note_on_c, 0, 55, 65
1, 2479, Note_off_c, 0, 53, 59
1, 2482, Control_c, 0, 64, 51
1, 2490, Note_off_c, 0, 29, 28
1, 2497, Control_c, 0, 64, 52
1, 2512, Control_c, 0, 64, 52
1, 2523, Note_on_c, 0, 57, 60
1, 2532, Note_off_c, 0, 55, 64
1, 2555, Note_off_c, 0, 57, 64
1, 2601, Control_c, 0, 64, 51
1, 2607, Note_on_c, 0, 60, 72
1, 2616, Control_c, 0, 64, 47
1, 2631, Control_c, 0, 64, 38
1, 2639, Note_off_c, 0, 60, 62
1, 2646, Control_c, 0, 64, 18
1, 2660, Control_c, 0, 64, 0
1, 2667, Note_on_c, 0, 50, 56
1, 2678, Note_on_c, 0, 65, 65
1, 2705, Control_c, 0, 64, 15
1, 2719, Control_c, 0, 64, 22
1, 2734, Control_c, 0, 64, 29
1, 2737, Note_on_c, 0, 67, 62
1, 2749, Control_c, 0, 64, 37
1, 2753, Note_off_c, 0, 65, 59
1, 2764, Control_c, 0, 64, 42
1, 2779, Control_c, 0, 64, 46
1, 2785, Note_on_c, 0, 69, 65
1, 2793, Control_c, 0, 64, 49
1, 2795, Note_off_c, 0, 67, 64
1, 2808, Control_c, 0, 64, 50
1, 2813, Note_off_c, 0, 69, 68
1, 2823, Control_c, 0, 64, 50
1, 2837, Control_c, 0, 64, 46
1, 2850, Note_off_c, 0, 50, 63
1, 2852, Control_c, 0, 64, 28
1, 2857, Note_on_c, 0, 48, 64
1, 2867, Control_c, 0, 64, 0
1, 2871, Note_on_c, 0, 72, 65
1, 2901, Note_off_c, 0, 72, 63
1, 2928, Note_on_c, 0, 57, 65
1, 2929, Note_on_c, 0, 77, 67
1, 2988, Note_on_c, 0, 79, 53
1, 3012, Note_off_c, 0, 77, 61
1, 3030, Control_c, 0, 64, 15
1, 3035, Note_on_c, 0, 81, 71
1, 3044, Note_off_c, 0, 79, 62
1, 3045, Control_c, 0, 64, 27
1, 3061, Control_c, 0, 64, 33
1, 3067, Note_off_c, 0, 81, 64
1, 3076, Control_c, 0, 64, 38
1, 3082, Note_off_c, 0, 57, 61
1, 3090, Control_c, 0, 64, 42
1, 3105, Control_c, 0, 64, 48
1, 3120, Control_c, 0, 64, 53
1, 3127, Note_on_c, 0, 84, 72
1, 3141, Control_c, 0, 64, 56
1, 3144, Note_off_c, 0, 48, 64
1, 3156, Control_c, 0, 64, 58
1, 3164, Note_off_c, 0, 84, 60
1, 3171, Control_c, 0, 64, 59
1, 3182, Note_on_c, 0, 53, 75
1, 3186, Control_c, 0, 64, 59
1, 3191, Note_on_c, 0, 89, 76
1, 3201, Control_c, 0, 64, 60
1, 3215, Control_c, 0, 64, 60
1, 3250, Note_off_c, 0, 89, 62
1, 3258, Note_on_c, 0, 91, 73
1, 3308, Note_on_c, 0, 93, 77
1, 3308, Note_off_c, 0, 91, 62
1, 3337, Note_off_c, 0, 53, 62
1, 3363, Note_on_c, 0, 45, 64
1, 3373, Note_on_c, 0, 91, 75
1, 3377, Note_off_c, 0, 93, 66
1, 3379, Control_c, 0, 64, 60
1, 3394, Control_c, 0, 64, 57
1, 3409, Control_c, 0, 64, 40
1, 3423, Note_off_c, 0, 45, 59
1, 3423, Control_c, 0, 64, 0
1, 3424, Note_on_c, 0, 89, 75
1, 3430, Note_on_c, 0, 48, 70
1, 3435, Note_off_c, 0, 91, 60
1, 3439, Note_on_c, 0, 41, 66
1, 3474, Note_off_c, 0, 89, 63
1, 3474, Note_on_c, 0, 84, 83
1, 3512, Note_off_c, 0, 84, 63
1, 3552, Note_on_c, 0, 81, 77
1, 3606, Note_on_c, 0, 79, 72
1, 3611, Note_off_c, 0, 81, 61
1, 3615, Control_c, 0, 64, 11
1, 3630, Control_c, 0, 64, 28
1, 3645, Control_c, 0, 64, 37
1, 3650, Note_on_c, 0, 77, 73
1, 3654, Note_off_c, 0, 79, 63
1, 3659, Control_c, 0, 64, 45
1, 3674, Control_c, 0, 64, 51
1, 3689, Control_c, 0, 64, 54
1, 3696, Note_off_c, 0, 48, 62
1, 3699, Note_off_c, 0, 77, 61
1, 3702, Note_on_c, 0, 72, 75
1, 3704, Control_c, 0, 64, 55
1, 3729, Note_off_c, 0, 72, 65
1, 3776, Note_on_c, 0, 69, 70
1, 3778, Control_c, 0, 64, 55
1, 3793, Control_c, 0, 64, 54
1, 3808, Control_c, 0, 64, 53
1, 3823, Control_c, 0, 64, 53
1, 3832, Note_off_c, 0, 69, 64
1, 3834, Note_on_c, 0, 67, 62
1, 3838, Control_c, 0, 64, 52
1, 3853, Control_c, 0, 64, 51
1, 3868, Control_c, 0, 64, 47
1, 3884, Note_off_c, 0, 41, 50
1, 3885, Note_off_c, 0, 67, 63
1, 3890, Control_c, 0, 64, 27
1, 3892, Note_on_c, 0, 65, 65
1, 3895, Note_on_c, 0, 47, 53
1, 3900, Note_on_c, 0, 48, 57
1, 3905, Control_c, 0, 64, 0
1, 3924, Note_off_c, 0, 47, 57
1, 3924, Note_off_c, 0, 65, 66
1, 3925, Note_off_c, 0, 48, 60
1, 3957, Note_on_c, 0, 60, 49
1, 3979, Note_off_c, 0, 60, 64
1, 4017, Note_on_c, 0, 57, 64
1, 4062, Note_off_c, 0, 57, 63
1, 4078, Note_on_c, 0, 55, 57
1, 4110, Note_off_c, 0, 55, 67
1, 4129, Note_on_c, 0, 53, 52
1, 4132, Note_on_c, 0, 48, 69
1, 4154, Note_off_c, 0, 48, 62
1, 4161, Note_off_c, 0, 53, 66
1, 4199, Note_on_c, 0, 48, 63
1, 4240, Note_off_c, 0, 48, 66
1, 4252, Note_on_c, 0, 53, 59
1, 4297, Note_off_c, 0, 53, 66
1, 4305, Note_on_c, 0, 57, 64
1, 4366, Note_on_c, 0, 55, 66
1, 4372, Note_off_c, 0, 57, 61
1, 4373, Note_on_c, 0, 40, 69
1, 4375, Note_on_c, 0, 28, 59
1, 4401, Note_off_c, 0, 40, 64
1, 4409, Control_c, 0, 64, 21
1, 4411, Note_off_c, 0, 28, 36
1, 4412, Note_off_c, 0, 55, 66
1, 4424, Control_c, 0, 64, 32
1, 4434, Note_on_c, 0, 48, 56
1, 4438, Control_c, 0, 64, 40
1, 4453, Control_c, 0, 64, 47
1, 4468, Control_c, 0, 64, 50
1, 4473, Note_off_c, 0, 48, 65
1, 4491, Note_on_c, 0, 55, 51
1, 4512, Control_c, 0, 64, 49
1, 4527, Control_c, 0, 64, 48
1, 4542, Control_c, 0, 64, 44
1, 4556, Control_c, 0, 64, 33
1, 4569, Note_off_c, 0, 55, 60
1, 4571, Note_on_c, 0, 57, 56
1, 4571, Control_c, 0, 64, 0
1, 4613, Note_off_c, 0, 57, 64
1, 4614, Note_on_c, 0, 58, 65
1, 4622, Note_on_c, 0, 50, 58
1, 4648, Note_off_c, 0, 58, 66
1, 4652, Control_c, 0, 64, 20
1, 4668, Control_c, 0, 64, 32
1, 4683, Control_c, 0, 64, 39
1, 4698, Note_on_c, 0, 60, 62
1, 4698, Control_c, 0, 64, 44
1, 4712, Control_c, 0, 64, 46
1, 4727, Control_c, 0, 64, 42
1, 4730, Note_off_c, 0, 60, 67
1, 4742, Control_c, 0, 64, 29
1, 4757, Control_c, 0, 64, 0
1, 4760, Note_on_c, 0, 67, 66
1, 4808, Note_on_c, 0, 48, 61
1, 4821, Note_on_c, 0, 69, 64
1, 4837, Note_off_c, 0, 67, 63
1, 4846, Note_off_c, 0, 50, 51
1, 4856, Note_off_c, 0, 69, 65
1, 4857, Note_on_c, 0, 70, 67
1, 4860, Control_c, 0, 64, 25
1, 4866, Note_on_c, 0, 55, 69
1, 4870, Note_off_c, 0, 48, 65
1, 4875, Control_c, 0, 64, 39
1, 4882, Note_off_c, 0, 70, 66
1, 4890, Control_c, 0, 64, 47
1, 4893, Note_off_c, 0, 55, 68
1, 4905, Control_c, 0, 64, 53
1, 4920, Control_c, 0, 64, 54
1, 4935, Control_c, 0, 64, 55
1, 4941, Note_on_c, 0, 72, 58
1, 4950, Control_c, 0, 64, 56
1, 4965, Note_off_c, 0, 72, 59
1, 4965, Control_c, 0, 64, 57
1, 4980, Control_c, 0, 64, 58
1, 4994, Control_c, 0, 64, 58
1, 4995, Note_on_c, 0, 79, 73
1, 5009, Control_c, 0, 64, 59
1, 5024, Control_c, 0, 64, 60
1, 5038, Control_c, 0, 64, 62
1, 5053, Control_c, 0, 64, 63
1, 5057, Note_on_c, 0, 81, 66
1, 5068, Control_c, 0, 64, 64
1, 5083, Control_c, 0, 64, 64
1, 5087, Note_off_c, 0, 79, 61
1, 5093, Note_on_c, 0, 62, 84
1, 5098, Control_c, 0, 64, 65
1, 5102, Note_on_c, 0, 82, 80
1, 5112, Control_c, 0, 64, 66
1, 5114, Note_off_c, 0, 81, 64
1, 5116, Note_off_c, 0, 62, 71
1, 5127, Note_off_c, 0, 82, 69
1, 5127, Control_c, 0, 64, 67
1, 5142, Control_c, 0, 64, 68
1, 5172, Control_c, 0, 64, 69
1, 5185, Note_on_c, 0, 84, 74
1, 5242, Note_on_c, 0, 40, 79
1, 5245, Note_off_c, 0, 84, 62
1, 5246, Note_on_c, 0, 91, 75
1, 5248, Note_on_c, 0, 48, 73
1, 5265, Note_off_c, 0, 40, 67
1, 5284, Note_off_c, 0, 48, 67
1, 5305, Note_on_c, 0, 93, 77
1, 5336, Note_off_c, 0, 91, 59
1, 5349, Control_c, 0, 64, 63
1, 5355, Note_on_c, 0, 94, 82
1, 5358, Note_on_c, 0, 60, 93
1, 5364, Note_off_c, 0, 93, 64
1, 5364, Control_c, 0, 64, 45
1, 5386, Control_c, 0, 64, 0
1, 5429, Note_on_c, 0, 93, 87
1, 5463, Note_off_c, 0, 94, 66
1, 5479, Note_on_c, 0, 91, 80
1, 5491, Control_c, 0, 64, 30
1, 5492, Note_off_c, 0, 93, 63
1, 5506, Control_c, 0, 64, 43
1, 5521, Control_c, 0, 64, 54
1, 5526, Note_off_c, 0, 91, 57
1, 5535, Control_c, 0, 64, 62
1, 5537, Note_on_c, 0, 84, 79
1, 5550, Control_c, 0, 64, 64
1, 5565, Control_c, 0, 64, 64
1, 5575, Note_off_c, 0, 60, 66
1, 5576, Note_on_c, 0, 62, 5
1, 5577, Note_off_c, 0, 62, 127
1, 5579, Note_off_c, 0, 84, 65
1, 5580, Control_c, 0, 64, 65
1, 5595, Control_c, 0, 64, 67
1, 5609, Control_c, 0, 64, 68
1, 5611, Note_on_c, 0, 82, 82
1, 5632, Poly_aftertouch_c, 0, 62, 0
1, 5663, Note_on_c, 0, 81, 75
1, 5711, Note_off_c, 0, 82, 61
1, 5715, Note_on_c, 0, 79, 71
1, 5717, Note_off_c, 0, 81, 61
1, 5743, Note_off_c, 0, 79, 62
1, 5743, Control_c, 0, 64, 68
1, 5770, Note_on_c, 0, 72, 68
1, 5811, Note_off_c, 0, 72, 62
1, 5817, Control_c, 0, 64, 66
1, 5832, Control_c, 0, 64, 58
1, 5839, Note_on_c, 0, 48, 52
1, 5847, Control_c, 0, 64, 17
1, 5847, Note_on_c, 0, 70, 67
1, 5849, Note_on_c, 0, 47, 42
1, 5861, Control_c, 0, 64, 0
1, 5870, Note_off_c, 0, 48, 53
1, 5882, Note_off_c, 0, 47, 54
1, 5899, Note_on_c, 0, 69, 62
1, 5927, Note_off_c, 0, 70, 50
1, 5940, Note_off_c, 0, 69, 62
1, 5948, Note_on_c, 0, 67, 61
1, 5970, Note_off_c, 0, 67, 67
1, 6000, Note_on_c, 0, 60, 57
1, 6030, Note_off_c, 0, 60, 67
1, 6071, Note_on_c, 0, 58, 69
1, 6082, Note_on_c, 0, 48, 56
1, 6109, Note_off_c, 0, 48, 58
1, 6133, Note_on_c, 0, 57, 57
1, 6163, Note_off_c, 0, 58, 58
1, 6179, Note_off_c, 0, 57, 62
1, 6187, Note_on_c, 0, 55, 64
1, 6235, Note_off_c, 0, 55, 65
1, 6250, Note_on_c, 0, 48, 51
1, 6308, Note_off_c, 0, 48, 62
1, 6315, Control_c, 0, 64, 13
1, 6321, Note_on_c, 0, 40, 59
1, 6324, Note_on_c, 0, 55, 60
1, 6327, Note_on_c, 0, 28, 42
1, 6330, Control_c, 0, 64, 30
1, 6345, Control_c, 0, 64, 39
1, 6349, Note_off_c, 0, 40, 59
1, 6359, Control_c, 0, 64, 47
1, 6370, Note_off_c, 0, 28, 34
1, 6374, Control_c, 0, 64, 51
1, 6389, Control_c, 0, 64, 53
1, 6398, Note_on_c, 0, 57, 58
1, 6412, Note_off_c, 0, 55, 63
1, 6434, Note_on_c, 0, 58, 65
1, 6434, Note_off_c, 0, 57, 63
1, 6448, Control_c, 0, 64, 52
1, 6458, Note_off_c, 0, 58, 67
1, 6463, Control_c, 0, 64, 52
1, 6477, Control_c, 0, 64, 51
1, 6508, Note_on_c, 0, 60, 70
1, 6522, Control_c, 0, 64, 51
1, 6537, Control_c, 0, 64, 48
1, 6551, Control_c, 0, 64, 42
1, 6564, Note_off_c, 0, 60, 57
1, 6566, Control_c, 0, 64, 28
1, 6581, Control_c, 0, 64, 0
1, 6584, Note_on_c, 0, 50, 51
1, 6589, Note_on_c, 0, 67, 62
1, 6652, Note_on_c, 0, 69, 57
1, 6670, Note_off_c, 0, 67, 59
1, 6670, Control_c, 0, 64, 9
1, 6685, Control_c, 0, 64, 19
1, 6700, Note_off_c, 0, 69, 63
1, 6700, Control_c, 0, 64, 23
1, 6702, Note_on_c, 0, 70, 66
1, 6715, Control_c, 0, 64, 28
1, 6727, Note_off_c, 0, 70, 66
1, 6729, Control_c, 0, 64, 32
1, 6744, Control_c, 0, 64, 35
1, 6759, Control_c, 0, 64, 33
1, 6763, Note_on_c, 0, 48, 68
1, 6774, Control_c, 0, 64, 0
1, 6777, Note_off_c, 0, 50, 58
1, 6780, Note_on_c, 0, 72, 72
1, 6810, Note_off_c, 0, 72, 62
1, 6837, Note_on_c, 0, 58, 82
1, 6848, Note_on_c, 0, 79, 66
1, 6912, Note_on_c, 0, 81, 67
1, 6929, Control_c, 0, 64, 12
1, 6934, Note_off_c, 0, 79, 60
1, 6944, Control_c, 0, 64, 16
1, 6959, Control_c, 0, 64, 22
1, 6962, Note_on_c, 0, 82, 69
1, 6969, Note_off_c, 0, 81, 63
1, 6974, Control_c, 0, 64, 29
1, 6986, Note_off_c, 0, 82, 70
1, 6989, Control_c, 0, 64, 35
1, 6996, Note_off_c, 0, 58, 61
1, 7004, Control_c, 0, 64, 39
1, 7018, Control_c, 0, 64, 44
1, 7033, Control_c, 0, 64, 48
1, 7037, Note_off_c, 0, 48, 53
1, 7040, Note_on_c, 0, 84, 75
1, 7048, Control_c, 0, 64, 51
1, 7063, Control_c, 0, 64, 54
1, 7075, Note_on_c, 0, 55, 73
1, 7078, Control_c, 0, 64, 56
1, 7093, Control_c, 0, 64, 57
1, 7098, Note_on_c, 0, 91, 81
1, 7099, Note_off_c, 0, 84, 60
1, 7108, Control_c, 0, 64, 58
1, 7123, Control_c, 0, 64, 59
1, 7157, Note_on_c, 0, 93, 82
1, 7179, Note_off_c, 0, 91, 57
1, 7197, Control_c, 0, 64, 59
1, 7198, Note_off_c, 0, 55, 54
1, 7203, Note_on_c, 0, 94, 85
1, 7215, Note_off_c, 0, 93, 62
1, 7227, Control_c, 0, 64, 60
1, 7244, Note_on_c, 0, 43, 51
1, 7269, Note_on_c, 0, 93, 80
1, 7286, Control_c, 0, 64, 60
1, 7300, Control_c, 0, 64, 60
1, 7301, Note_off_c, 0, 94, 66
1, 7314, Note_on_c, 0, 91, 86
1, 7315, Control_c, 0, 64, 54
1, 7320, Note_on_c, 0, 40, 79
1, 7320, Note_off_c, 0, 43, 58
1, 7321, Note_on_c, 0, 48, 81
1, 7330, Control_c, 0, 64, 21
1, 7332, Note_off_c, 0, 93, 63
1, 7345, Control_c, 0, 64, 0
1, 7373, Note_off_c, 0, 91, 57
1, 7383, Note_on_c, 0, 84, 77
1, 7430, Note_off_c, 0, 84, 63
1, 7465, Note_on_c, 0, 82, 76
1, 7478, Control_c, 0, 64, 16
1, 7493, Control_c, 0, 64, 31
1, 7508, Control_c, 0, 64, 41
1, 7513, Note_on_c, 0, 81, 77
1, 7522, Control_c, 0, 64, 51
1, 7537, Control_c, 0, 64, 59
1, 7552, Control_c, 0, 64, 60
1, 7561, Note_off_c, 0, 82, 58
1, 7572, Note_on_c, 0, 79, 73
1, 7579, Note_off_c, 0, 81, 59
1, 7582, Control_c, 0, 64, 60
1, 7597, Control_c, 0, 64, 61
1, 7602, Note_off_c, 0, 48, 61
1, 7602, Note_off_c, 0, 79, 63
1, 7633, Control_c, 0, 64, 61
1, 7639, Note_on_c, 0, 72, 67
1, 7667, Note_off_c, 0, 72, 64
1, 7710, Note_on_c, 0, 70, 78
1, 7722, Control_c, 0, 64, 61
1, 7752, Control_c, 0, 64, 60
1, 7761, Note_on_c, 0, 69, 67
1, 7761, Note_off_c, 0, 40, 31
1, 7767, Control_c, 0, 64, 59
1, 7782, Control_c, 0, 64, 52
1, 7797, Control_c, 0, 64, 26
1, 7805, Note_on_c, 0, 48, 64
1, 7808, Note_on_c, 0, 67, 71
1, 7809, Note_on_c, 0, 47, 56
1, 7811, Note_off_c, 0, 70, 60
1, 7812, Control_c, 0, 64, 0
1, 7815, Note_off_c, 0, 69, 60
1, 7831, Note_off_c, 0, 48, 63
1, 7834, Note_off_c, 0, 47, 59
1, 7844, Note_off_c, 0, 67, 62
1, 7873, Note_on_c, 0, 60, 60
1, 7903, Note_off_c, 0, 60, 66
1, 7942, Note_on_c, 0, 58, 73
1, 8002, Note_on_c, 0, 57, 55
1, 8026, Note_off_c, 0, 58, 57
1, 8050, Note_off_c, 0, 57, 61
1, 8050, Note_on_c, 0, 55, 67
1, 8062, Note_on_c, 0, 48, 61
1, 8094, Note_off_c, 0, 55, 67
1, 8104, Note_off_c, 0, 48, 0
1, 8121, Note_on_c, 0, 48, 55
1, 8182, Note_on_c, 0, 55, 62
1, 8182, Note_off_c, 0, 48, 62
1, 8236, Note_off_c, 0, 55, 65
1, 8238, Note_on_c, 0, 58, 59
1, 8289, Note_on_c, 0, 57, 68
1, 8300, Note_on_c, 0, 41, 67
1, 8301, Note_on_c, 0, 29, 57
1, 8318, Note_off_c, 0, 58, 64
1, 8330, Note_off_c, 0, 41, 66
1, 8338, Note_off_c, 0, 57, 62
1, 8340, Note_off_c, 0, 29, 49
1, 8345, Control_c, 0, 64, 9
1, 8360, Control_c, 0, 64, 21
1, 8380, Note_on_c, 0, 48, 57
1, 8383, Control_c, 0, 64, 27
1, 8398, Control_c, 0, 64, 31
1, 8409, Note_off_c, 0, 48, 65
1, 8412, Control_c, 0, 64, 35
1, 8427, Control_c, 0, 64, 38
1, 8435, Note_on_c, 0, 53, 59
1, 8442, Control_c, 0, 64, 41
1, 8456, Control_c, 0, 64, 43
1, 8471, Control_c, 0, 64, 45
1, 8486, Control_c, 0, 64, 47
1, 8493, Note_on_c, 0, 55, 60
1, 8501, Control_c, 0, 64, 49
1, 8507, Note_off_c, 0, 53, 62
1, 8516, Control_c, 0, 64, 49
1, 8542, Note_off_c, 0, 55, 64
1, 8543, Note_on_c, 0, 57, 55
1, 8545, Control_c, 0, 64, 47
1, 8560, Control_c, 0, 64, 42
1, 8566, Note_on_c, 0, 50, 55
1, 8566, Note_off_c, 0, 57, 61
1, 8575, Control_c, 0, 64, 27
1, 8590, Control_c, 0, 64, 0
1, 8628, Note_on_c, 0, 60, 59
1, 8667, Note_off_c, 0, 60, 61
1, 8691, Note_on_c, 0, 65, 64
1, 8733, Note_off_c, 0, 50, 62
1, 8739, Note_on_c, 0, 48, 62
1, 8750, Note_on_c, 0, 67, 58
1, 8758, Note_off_c, 0, 65, 64
1, 8788, Note_on_c, 0, 69, 63
1, 8789, Note_off_c, 0, 67, 64
1, 8801, Note_on_c, 0, 53, 78
1, 8807, Note_off_c, 0, 48, 62
1, 8809, Note_off_c, 0, 69, 67
1, 8825, Note_off_c, 0, 53, 71
1, 8828, Control_c, 0, 64, 15
1, 8843, Control_c, 0, 64, 26
1, 8858, Control_c, 0, 64, 32
1, 8873, Note_on_c, 0, 72, 72
1, 8873, Control_c, 0, 64, 39
1, 8887, Control_c, 0, 64, 44
1, 8902, Control_c, 0, 64, 50
1, 8914, Note_off_c, 0, 72, 60
1, 8917, Control_c, 0, 64, 53
1, 8932, Control_c, 0, 64, 55
1, 8935, Note_on_c, 0, 77, 68
1, 8946, Control_c, 0, 64, 57
1, 8961, Control_c, 0, 64, 60
1, 8965, Note_on_c, 0, 76, 15
1, 8976, Control_c, 0, 64, 61
1, 8986, Note_on_c, 0, 79, 71
1, 8991, Control_c, 0, 64, 62
1, 9004, Note_off_c, 0, 77, 61
1, 9006, Control_c, 0, 64, 63
1, 9007, Note_off_c, 0, 76, 51
1, 9021, Control_c, 0, 64, 64
1, 9028, Note_on_c, 0, 81, 84
1, 9035, Control_c, 0, 64, 66
1, 9040, Note_off_c, 0, 79, 64
1, 9043, Note_on_c, 0, 65, 93
1, 9050, Control_c, 0, 64, 68
1, 9065, Note_off_c, 0, 81, 61
1, 9065, Control_c, 0, 64, 71
1, 9079, Control_c, 0, 64, 72
1, 9081, Note_off_c, 0, 65, 66
1, 9094, Control_c, 0, 64, 73
1, 9109, Control_c, 0, 64, 73
1, 9113, Note_on_c, 0, 84, 83
1, 9173, Note_on_c, 0, 89, 79
1, 9180, Note_off_c, 0, 84, 62
1, 9206, Control_c, 0, 64, 73
1, 9226, Note_off_c, 0, 89, 65
1, 9227, Note_on_c, 0, 93, 88
1, 9250, Control_c, 0, 64, 72
1, 9265, Control_c, 0, 64, 69
1, 9279, Control_c, 0, 64, 64
1, 9294, Control_c, 0, 64, 53
1, 9295, Note_on_c, 0, 91, 89
1, 9308, Note_on_c, 0, 65, 87
1, 9309, Control_c, 0, 64, 22
1, 9314, Note_on_c, 0, 58, 71
1, 9316, Note_on_c, 0, 62, 75
1, 9322, Note_off_c, 0, 93, 62
1, 9324, Note_on_c, 0, 53, 60
1, 9324, Control_c, 0, 64, 0
1, 9359, Note_on_c, 0, 89, 86
1, 9371, Note_off_c, 0, 91, 60
1, 9383, Control_c, 0, 64, 22
1, 9398, Control_c, 0, 64, 37
1, 9412, Control_c, 0, 64, 49
1, 9424, Note_off_c, 0, 89, 64
1, 9427, Control_c, 0, 64, 58
1, 9432, Note_on_c, 0, 86, 83
1, 9442, Control_c, 0, 64, 61
1, 9458, Control_c, 0, 64, 62
1, 9470, Note_off_c, 0, 86, 63
1, 9473, Control_c, 0, 64, 63
1, 9488, Control_c, 0, 64, 65
1, 9502, Control_c, 0, 64, 67
1, 9503, Note_on_c, 0, 82, 78
1, 9517, Control_c, 0, 64, 68
1, 9532, Control_c, 0, 64, 68
1, 9535, Note_off_c, 0, 65, 63
1, 9543, Note_off_c, 0, 53, 65
1, 9543, Note_off_c, 0, 62, 63
1, 9554, Note_off_c, 0, 58, 63
1, 9567, Note_off_c, 0, 82, 65
1, 9570, Note_on_c, 0, 79, 66
1, 9572, Note_on_c, 0, 81, 65
1, 9604, Note_off_c, 0, 81, 64
1, 9608, Note_on_c, 0, 77, 78
1, 9630, Note_off_c, 0, 79, 63
1, 9657, Note_off_c, 0, 77, 60
1, 9664, Note_on_c, 0, 74, 77
1, 9695, Note_off_c, 0, 74, 61
1, 9710, Control_c, 0, 64, 68
1, 9730, Note_on_c, 0, 70, 80
1, 9773, Note_off_c, 0, 70, 63
1, 9784, Control_c, 0, 64, 64
1, 9799, Control_c, 0, 64, 47
1, 9809, Note_on_c, 0, 65, 83
1, 9809, Note_on_c, 0, 72, 78
1, 9813, Note_on_c, 0, 60, 64
1, 9814, Note_on_c, 0, 57, 62
1, 9814, Control_c, 0, 64, 0
1, 9823, Note_off_c, 0, 65, 74
1, 9837, Note_on_c, 0, 53, 23
1, 9838, Note_off_c, 0, 57, 65
1, 9840, Note_off_c, 0, 60, 68
1, 9852, Note_off_c, 0, 72, 59
1, 9886, Note_on_c, 0, 77, 76
1, 9887, Note_off_c, 0, 53, 32
1, 9946, Note_on_c, 0, 79, 67
1, 9970, Note_off_c, 0, 77, 62
1, 9997, Note_on_c, 0, 81, 80
1, 10011, Note_off_c, 0, 79, 64
1, 10023, Note_off_c, 0, 81, 67
1, 10068, Note_on_c, 0, 65, 80
1, 10071, Note_on_c, 0, 60, 69
1, 10074, Note_on_c, 0, 57, 64
1, 10081, Note_on_c, 0, 84, 79
1, 10088, Note_off_c, 0, 65, 74
1, 10094, Note_on_c, 0, 53, 36
1, 10095, Note_off_c, 0, 60, 68
1, 10100, Note_off_c, 0, 57, 64
1, 10128, Note_off_c, 0, 53, 34
1, 10141, Note_off_c, 0, 84, 62
1, 10146, Note_on_c, 0, 89, 76
1, 10199, Note_on_c, 0, 91, 78
1, 10207, Note_off_c, 0, 89, 61
1, 10258, Note_on_c, 0, 93, 80
1, 10263, Note_off_c, 0, 91, 62
1, 10319, Note_on_c, 0, 62, 75
1, 10321, Note_on_c, 0, 65, 83
1, 10326, Note_on_c, 0, 58, 68
1, 10326, Note_on_c, 0, 91, 88
1, 10339, Note_on_c, 0, 53, 53
1, 10341, Control_c, 0, 64, 27
1, 10351, Note_off_c, 0, 93, 63
1, 10356, Control_c, 0, 64, 40
1, 10371, Control_c, 0, 64, 52
1, 10386, Control_c, 0, 64, 60
1, 10387, Note_on_c, 0, 89, 81
1, 10400, Control_c, 0, 64, 62
1, 10402, Note_off_c, 0, 91, 60
1, 10404, Note_off_c, 0, 65, 66
1, 10410, Note_off_c, 0, 53, 65
1, 10411, Note_off_c, 0, 62, 63
1, 10415, Control_c, 0, 64, 62
1, 10417, Note_off_c, 0, 58, 63
1, 10430, Control_c, 0, 64, 63
1, 10444, Note_off_c, 0, 89, 65
1, 10445, Control_c, 0, 64, 64
1, 10448, Note_on_c, 0, 86, 86
1, 10459, Control_c, 0, 64, 66
1, 10474, Control_c, 0, 64, 67
1, 10486, Note_off_c, 0, 86, 64
1, 10489, Control_c, 0, 64, 68
1, 10519, Control_c, 0, 64, 68
1, 10521, Note_on_c, 0, 82, 82
1, 10548, Control_c, 0, 64, 69
1, 10589, Note_on_c, 0, 79, 55
1, 10596, Note_off_c, 0, 82, 67
1, 10602, Note_on_c, 0, 81, 48
1, 10629, Note_on_c, 0, 77, 79
1, 10635, Note_off_c, 0, 81, 57
1, 10650, Note_off_c, 0, 79, 63
1, 10662, Note_off_c, 0, 77, 59
1, 10691, Note_on_c, 0, 74, 61
1, 10712, Note_off_c, 0, 74, 65
1, 10758, Note_on_c, 0, 71, 68
1, 10778, Control_c, 0, 64, 63
1, 10785, Note_off_c, 0, 71, 68
1, 10793, Control_c, 0, 64, 37
1, 10802, Note_on_c, 0, 65, 86
1, 10807, Control_c, 0, 64, 0
1, 10808, Note_on_c, 0, 60, 71
1, 10810, Note_on_c, 0, 57, 60
1, 10822, Note_off_c, 0, 65, 74
1, 10828, Note_on_c, 0, 53, 31
1, 10829, Note_on_c, 0, 72, 79
1, 10829, Note_off_c, 0, 60, 69
1, 10835, Note_off_c, 0, 57, 65
1, 10864, Note_off_c, 0, 53, 53
1, 10869, Note_off_c, 0, 72, 58
1, 10893, Note_on_c, 0, 77, 77
1, 10945, Note_on_c, 0, 79, 70
1, 10971, Note_off_c, 0, 77, 62
1, 10999, Note_on_c, 0, 81, 78
1, 11011, Note_off_c, 0, 79, 63
1, 11022, Note_off_c, 0, 81, 70
1, 11067, Note_on_c, 0, 65, 71
1, 11068, Note_on_c, 0, 60, 60
1, 11072, Note_on_c, 0, 57, 61
1, 11076, Note_on_c, 0, 84, 84
1, 11084, Note_on_c, 0, 53, 39
1, 11090, Control_c, 0, 64, 16
1, 11091, Note_off_c, 0, 65, 71
1, 11100, Note_off_c, 0, 60, 67
1, 11104, Note_off_c, 0, 57, 64
1, 11105, Control_c, 0, 64, 33
1, 11114, Note_off_c, 0, 53, 53
1, 11120, Control_c, 0, 64, 45
1, 11135, Control_c, 0, 64, 56
1, 11137, Note_off_c, 0, 84, 62
1, 11144, Note_on_c, 0, 89, 75
1, 11149, Control_c, 0, 64, 60
1, 11164, Control_c, 0, 64, 61
1, 11207, Note_on_c, 0, 91, 79
1, 11209, Control_c, 0, 64, 61
1, 11216, Note_off_c, 0, 89, 60
1, 11223, Control_c, 0, 64, 62
1, 11271, Note_off_c, 0, 91, 60
1, 11272, Note_on_c, 0, 93, 73
1, 11299, Note_off_c, 0, 93, 65
1, 11312, Control_c, 0, 64, 61
1, 11327, Control_c, 0, 64, 60
1, 11341, Note_on_c, 0, 65, 62
1, 11342, Control_c, 0, 64, 59
1, 11345, Note_on_c, 0, 55, 58
1, 11347, Note_on_c, 0, 59, 54
1, 11356, Note_on_c, 0, 91, 74
1, 11356, Control_c, 0, 64, 52
1, 11379, Control_c, 0, 64, 36
1, 11394, Control_c, 0, 64, 0
1, 11424, Note_on_c, 0, 93, 82
1, 11424, Note_off_c, 0, 91, 62
1, 11482, Note_on_c, 0, 91, 83
1, 11497, Control_c, 0, 64, 18
1, 11503, Note_off_c, 0, 93, 63
1, 11512, Control_c, 0, 64, 28
1, 11527, Control_c, 0, 64, 36
1, 11532, Note_on_c, 0, 89, 80
1, 11542, Control_c, 0, 64, 43
1, 11551, Note_off_c, 0, 91, 60
1, 11556, Control_c, 0, 64, 51
1, 11571, Control_c, 0, 64, 55
1, 11581, Note_on_c, 0, 86, 90
1, 11584, Note_off_c, 0, 89, 65
1, 11586, Control_c, 0, 64, 58
1, 11600, Control_c, 0, 64, 59
1, 11621, Note_off_c, 0, 86, 59
1, 11645, Control_c, 0, 64, 60
1, 11659, Note_on_c, 0, 83, 72
1, 11706, Note_on_c, 0, 84, 75
1, 11720, Note_off_c, 0, 83, 60
1, 11734, Control_c, 0, 64, 59
1, 11765, Note_on_c, 0, 81, 77
1, 11778, Note_off_c, 0, 84, 63
1, 11803, Note_off_c, 0, 65, 55
1, 11820, Note_off_c, 0, 81, 61
1, 11823, Control_c, 0, 64, 58
1, 11824, Note_on_c, 0, 62, 55
1, 11829, Note_on_c, 0, 79, 72
1, 11838, Control_c, 0, 64, 54
1, 11854, Control_c, 0, 64, 44
1, 11854, Note_off_c, 0, 79, 68
1, 11869, Control_c, 0, 64, 20
1, 11883, Note_on_c, 0, 81, 67
1, 11883, Control_c, 0, 64, 0
1, 11945, Note_off_c, 0, 81, 64
1, 11946, Note_on_c, 0, 79, 71
1, 11982, Note_on_c, 0, 77, 76
1, 12001, Note_off_c, 0, 79, 63
1, 12002, Control_c, 0, 64, 18
1, 12016, Control_c, 0, 64, 23
1, 12031, Control_c, 0, 64, 27
1, 12034, Note_off_c, 0, 77, 59
1, 12040, Note_on_c, 0, 74, 72
1, 12046, Control_c, 0, 64, 28
1, 12061, Control_c, 0, 64, 30
1, 12068, Note_off_c, 0, 74, 65
1, 12076, Control_c, 0, 64, 33
1, 12090, Control_c, 0, 64, 35
1, 12105, Control_c, 0, 64, 37
1, 12128, Note_on_c, 0, 71, 55
1, 12143, Control_c, 0, 64, 36
1, 12158, Control_c, 0, 64, 36
1, 12168, Note_on_c, 0, 72, 66
1, 12170, Note_off_c, 0, 71, 53
1, 12209, Note_off_c, 0, 55, 60
1, 12211, Note_off_c, 0, 59, 35
1, 12217, Note_on_c, 0, 69, 70
1, 12220, Note_off_c, 0, 62, 62
1, 12222, Note_off_c, 0, 72, 64
1, 12261, Control_c, 0, 64, 33
1, 12264, Note_off_c, 0, 69, 62
1, 12269, Note_on_c, 0, 67, 73
1, 12276, Control_c, 0, 64, 11
1, 12291, Control_c, 0, 64, 0
1, 12309, Note_off_c, 0, 67, 59
1, 12325, Note_on_c, 0, 69, 56
1, 12379, Note_off_c, 0, 69, 65
1, 12381, Note_on_c, 0, 67, 63
1, 12419, Note_on_c, 0, 65, 69
1, 12425, Note_off_c, 0, 67, 62
1, 12454, Note_off_c, 0, 65, 66
1, 12474, Note_on_c, 0, 62, 70
1, 12501, Note_off_c, 0, 62, 66
1, 12556, Note_on_c, 0, 59, 47
1, 12593, Note_on_c, 0, 60, 65
1, 12600, Note_off_c, 0, 59, 56
1, 12646, Note_off_c, 0, 60, 63
1, 12657, Note_on_c, 0, 57, 56
1, 12688, Note_off_c, 0, 57, 64
1, 12706, Note_on_c, 0, 55, 60
1, 12742, Note_off_c, 0, 55, 64
1, 12761, Note_on_c, 0, 57, 61
1, 12822, Note_off_c, 0, 57, 60
1, 12837, Note_on_c, 0, 55, 42
1, 12877, Note_on_c, 0, 53, 56
1, 12878, Note_off_c, 0, 55, 60
1, 12906, Control_c, 0, 64, 12
1, 12918, Note_on_c, 0, 43, 52
1, 12921, Note_off_c, 0, 53, 64
1, 12921, Control_c, 0, 64, 21
1, 12936, Control_c, 0, 64, 27
1, 12945, Note_on_c, 0, 50, 54
1, 12951, Control_c, 0, 64, 33
1, 12963, Note_off_c, 0, 43, 57
1, 12966, Control_c, 0, 64, 39
1, 12977, Note_off_c, 0, 50, 65
1, 12980, Control_c, 0, 64, 44
1, 12995, Control_c, 0, 64, 49
1, 13008, Note_on_c, 0, 53, 54
1, 13010, Control_c, 0, 64, 51
1, 13025, Control_c, 0, 64, 50
1, 13040, Control_c, 0, 64, 50
1, 13051, Note_off_c, 0, 53, 66
1, 13052, Note_on_c, 0, 52, 59
1, 13054, Control_c, 0, 64, 49
1, 13084, Control_c, 0, 64, 48
1, 13099, Control_c, 0, 64, 45
1, 13105, Note_off_c, 0, 52, 62
1, 13112, Note_on_c, 0, 50, 53
1, 13114, Control_c, 0, 64, 40
1, 13128, Control_c, 0, 64, 30
1, 13142, Note_off_c, 0, 50, 65
1, 13143, Control_c, 0, 64, 0
1, 13171, Note_on_c, 0, 43, 47
1, 13177, Note_on_c, 0, 48, 64
1, 13190, Note_on_c, 0, 36, 43
1, 13215, Note_off_c, 0, 48, 63
1, 13238, Note_on_c, 0, 57, 62
1, 13288, Note_off_c, 0, 57, 58
1, 13299, Note_on_c, 0, 55, 63
1, 13320, Control_c, 0, 64, 9
1, 13335, Control_c, 0, 64, 18
1, 13341, Note_off_c, 0, 55, 66
1, 13347, Note_on_c, 0, 59, 60
1, 13350, Control_c, 0, 64, 25
1, 13365, Control_c, 0, 64, 32
1, 13373, Note_off_c, 0, 59, 65
1, 13380, Control_c, 0, 64, 37
1, 13395, Control_c, 0, 64, 42
1, 13410, Control_c, 0, 64, 48
1, 13419, Note_on_c, 0, 60, 77
1, 13425, Control_c, 0, 64, 51
1, 13440, Control_c, 0, 64, 53
1, 13455, Control_c, 0, 64, 54
1, 13469, Control_c, 0, 64, 55
1, 13472, Note_off_c, 0, 60, 57
1, 13481, Note_on_c, 0, 69, 62
1, 13484, Control_c, 0, 64, 55
1, 13499, Control_c, 0, 64, 56
1, 13514, Control_c, 0, 64, 57
1, 13527, Note_on_c, 0, 67, 76
1, 13529, Control_c, 0, 64, 57
1, 13544, Control_c, 0, 64, 58
1, 13562, Note_off_c, 0, 43, 59
1, 13574, Control_c, 0, 64, 58
1, 13577, Note_off_c, 0, 36, 39
1, 13577, Note_off_c, 0, 67, 65
1, 13578, Note_on_c, 0, 71, 65
1, 13589, Control_c, 0, 64, 59
1, 13595, Note_off_c, 0, 71, 69
1, 13603, Control_c, 0, 64, 60
1, 13604, Note_off_c, 0, 69, 28
1, 13640, Control_c, 0, 64, 60
1, 13655, Control_c, 0, 64, 59
1, 13660, Note_on_c, 0, 74, 68
1, 13669, Control_c, 0, 64, 58
1, 13682, Note_on_c, 0, 72, 37
1, 13710, Note_on_c, 0, 83, 60
1, 13714, Note_off_c, 0, 72, 57
1, 13714, Note_off_c, 0, 74, 65
1, 13726, Note_on_c, 0, 81, 65
1, 13729, Control_c, 0, 64, 58
1, 13738, Note_off_c, 0, 83, 0
1, 13738, Note_on_c, 0, 83, 31
1, 13768, Note_off_c, 0, 83, 63
1, 13770, Note_off_c, 0, 81, 0
1, 13785, Note_on_c, 0, 81, 41
1, 13815, Note_off_c, 0, 81, 57
1, 13833, Note_on_c, 0, 84, 46
1, 13860, Note_off_c, 0, 84, 57
1, 13890, Note_on_c, 0, 84, 71
1, 13922, Control_c, 0, 64, 56
1, 13937, Control_c, 0, 64, 48
1, 13950, Note_on_c, 0, 93, 79
1, 13951, Control_c, 0, 64, 26
1, 13955, Note_off_c, 0, 84, 60
1, 13966, Control_c, 0, 64, 0
1, 13996, Note_on_c, 0, 48, 45
1, 14015, Note_on_c, 0, 91, 69
1, 14041, Note_on_c, 0, 55, 59
1, 14042, Note_off_c, 0, 48, 52
1, 14069, Control_c, 0, 64, 20
1, 14073, Note_off_c, 0, 93, 40
1, 14081, Note_on_c, 0, 95, 71
1, 14081, Note_off_c, 0, 91, 60
1, 14084, Control_c, 0, 64, 28
1, 14099, Control_c, 0, 64, 33
1, 14114, Control_c, 0, 64, 38
1, 14119, Note_on_c, 0, 64, 55
1, 14129, Control_c, 0, 64, 46
1, 14137, Note_on_c, 0, 96, 71
1, 14143, Control_c, 0, 64, 53
1, 14146, Note_off_c, 0, 95, 63
1, 14158, Control_c, 0, 64, 57
1, 14170, Note_off_c, 0, 64, 61
1, 14173, Control_c, 0, 64, 59
1, 14177, Note_off_c, 0, 55, 61
1, 14191, Note_on_c, 0, 89, 63
1, 14192, Note_off_c, 0, 96, 64
1, 14218, Control_c, 0, 64, 60
1, 14232, Note_off_c, 0, 89, 66
1, 14232, Control_c, 0, 64, 62
1, 14240, Note_on_c, 0, 88, 81
1, 14248, Control_c, 0, 64, 63
1, 14263, Note_off_c, 0, 88, 70
1, 14306, Note_on_c, 0, 98, 83
1, 14307, Control_c, 0, 64, 62
1, 14337, Control_c, 0, 64, 62
1, 14351, Note_on_c, 0, 96, 89
1, 14352, Control_c, 0, 64, 61
1, 14389, Control_c, 0, 64, 61
1, 14396, Note_off_c, 0, 98, 66
1, 14404, Control_c, 0, 64, 60
1, 14417, Note_on_c, 0, 89, 81
1, 14419, Control_c, 0, 64, 56
1, 14424, Note_off_c, 0, 96, 65
1, 14433, Control_c, 0, 64, 46
1, 14448, Control_c, 0, 64, 17
1, 14451, Note_off_c, 0, 89, 67
1, 14463, Control_c, 0, 64, 0
1, 14466, Note_on_c, 0, 88, 83
1, 14501, Note_off_c, 0, 88, 67
1, 14519, Note_on_c, 0, 98, 91
1, 14570, Note_on_c, 0, 96, 82
1, 14599, Note_on_c, 0, 48, 67
1, 14609, Note_off_c, 0, 98, 66
1, 14611, Note_on_c, 0, 89, 76
1, 14636, Note_off_c, 0, 96, 64
1, 14649, Note_on_c, 0, 55, 65
1, 14656, Note_off_c, 0, 89, 69
1, 14665, Note_on_c, 0, 88, 86
1, 14666, Note_off_c, 0, 48, 64
1, 14689, Note_on_c, 0, 58, 79
1, 14696, Note_off_c, 0, 88, 66
1, 14718, Note_on_c, 0, 98, 93
1, 14730, Control_c, 0, 64, 27
1, 14741, Note_on_c, 0, 64, 74
1, 14742, Note_off_c, 0, 55, 63
1, 14745, Control_c, 0, 64, 41
1, 14760, Control_c, 0, 64, 54
1, 14763, Note_off_c, 0, 58, 65
1, 14765, Note_off_c, 0, 64, 68
1, 14774, Control_c, 0, 64, 62
1, 14789, Control_c, 0, 64, 65
1, 14790, Note_on_c, 0, 96, 82
1, 14833, Note_off_c, 0, 98, 59
1, 14833, Control_c, 0, 64, 65
1, 14846, Note_on_c, 0, 93, 83
1, 14848, Control_c, 0, 64, 66
1, 14863, Control_c, 0, 64, 67
1, 14878, Control_c, 0, 64, 66
1, 14883, Note_on_c, 0, 41, 55
1, 14885, Note_off_c, 0, 96, 59
1, 14892, Control_c, 0, 64, 59
1, 14903, Note_on_c, 0, 94, 86
1, 14907, Control_c, 0, 64, 36
1, 14909, Note_on_c, 0, 48, 79
1, 14915, Note_off_c, 0, 41, 58
1, 14921, Note_off_c, 0, 93, 62
1, 14922, Control_c, 0, 64, 0
1, 14952, Control_c, 0, 64, 8
1, 14960, Note_on_c, 0, 57, 80
1, 14963, Note_off_c, 0, 48, 66
1, 14966, Control_c, 0, 64, 17
1, 14978, Note_on_c, 0, 91, 75
1, 14981, Control_c, 0, 64, 25
1, 14992, Note_off_c, 0, 94, 66
1, 14993, Note_off_c, 0, 57, 60
1, 14996, Control_c, 0, 64, 36
1, 15011, Control_c, 0, 64, 44
1, 15025, Control_c, 0, 64, 52
1, 15033, Note_off_c, 0, 91, 58
1, 15041, Control_c, 0, 64, 56
1, 15056, Control_c, 0, 64, 56
1, 15064, Note_on_c, 0, 65, 102
1, 15071, Control_c, 0, 64, 58
1, 15076, Note_on_c, 0, 93, 87
1, 15086, Control_c, 0, 64, 63
1, 15087, Note_off_c, 0, 65, 70
1, 15101, Control_c, 0, 64, 67
1, 15123, Control_c, 0, 64, 69
1, 15138, Control_c, 0, 64, 69
1, 15153, Control_c, 0, 64, 70
1, 15155, Note_on_c, 0, 91, 90
1, 15168, Control_c, 0, 64, 74
1, 15182, Note_off_c, 0, 93, 62
1, 15183, Control_c, 0, 64, 78
1, 15197, Control_c, 0, 64, 80
1, 15204, Note_on_c, 0, 89, 81
1, 15212, Control_c, 0, 64, 81
1, 15225, Note_off_c, 0, 91, 60
1, 15227, Control_c, 0, 64, 81
1, 15242, Control_c, 0, 64, 83
1, 15256, Note_off_c, 0, 89, 66
1, 15256, Control_c, 0, 64, 88
1, 15258, Note_on_c, 0, 84, 84
1, 15271, Control_c, 0, 64, 91
1, 15302, Note_off_c, 0, 84, 64
1, 15316, Control_c, 0, 64, 92
1, 15330, Control_c, 0, 64, 93
1, 15331, Note_on_c, 0, 81, 84
1, 15345, Control_c, 0, 64, 94
1, 15390, Note_on_c, 0, 79, 76
1, 15397, Note_off_c, 0, 81, 65
1, 15419, Control_c, 0, 64, 93
1, 15437, Note_on_c, 0, 77, 78
1, 15450, Note_off_c, 0, 79, 64
1, 15464, Control_c, 0, 64, 93
1, 15489, Note_off_c, 0, 77, 62
1, 15495, Note_on_c, 0, 72, 75
1, 15508, Control_c, 0, 64, 92
1, 15523, Control_c, 0, 64, 85
1, 15527, Note_off_c, 0, 72, 59
1, 15538, Control_c, 0, 64, 65
1, 15553, Control_c, 0, 64, 25
1, 15553, Note_on_c, 0, 48, 71
1, 15562, Note_on_c, 0, 47, 55
1, 15567, Control_c, 0, 64, 0
1, 15569, Note_on_c, 0, 69, 66
1, 15573, Note_off_c, 0, 48, 63
1, 15592, Note_off_c, 0, 47, 34
1, 15622, Note_off_c, 0, 69, 62
1, 15630, Note_on_c, 0, 67, 75
1, 15674, Note_on_c, 0, 65, 74
1, 15681, Note_off_c, 0, 67, 63
1, 15712, Note_off_c, 0, 65, 64
1, 15738, Note_on_c, 0, 60, 62
1, 15768, Note_off_c, 0, 60, 67
1, 15807, Note_on_c, 0, 48, 63
1, 15813, Note_on_c, 0, 57, 63
1, 15830, Note_off_c, 0, 48, 61
1, 15866, Note_off_c, 0, 57, 63
1, 15875, Note_on_c, 0, 55, 61
1, 15910, Note_off_c, 0, 55, 67
1, 15923, Note_on_c, 0, 53, 61
1, 15972, Note_off_c, 0, 53, 60
1, 15991, Note_on_c, 0, 48, 55
1, 16045, Note_off_c, 0, 48, 58
1, 16063, Note_on_c, 0, 29, 61
1, 16065, Note_on_c, 0, 41, 61
1, 16069, Note_on_c, 0, 53, 64
1, 16093, Note_off_c, 0, 41, 65
1, 16097, Note_off_c, 0, 29, 52
1, 16124, Control_c, 0, 64, 16
1, 16134, Note_on_c, 0, 55, 53
1, 16139, Control_c, 0, 64, 32
1, 16140, Note_off_c, 0, 53, 61
1, 16153, Control_c, 0, 64, 40
1, 16168, Control_c, 0, 64, 46
1, 16181, Note_off_c, 0, 55, 66
1, 16183, Note_on_c, 0, 57, 53
1, 16183, Control_c, 0, 64, 51
1, 16197, Control_c, 0, 64, 54
1, 16206, Note_off_c, 0, 57, 60
1, 16212, Control_c, 0, 64, 55
1, 16270, Note_on_c, 0, 60, 59
1, 16301, Control_c, 0, 64, 54
1, 16310, Note_off_c, 0, 60, 59
1, 16316, Control_c, 0, 64, 49
1, 16331, Control_c, 0, 64, 26
1, 16342, Note_on_c, 0, 50, 53
1, 16346, Control_c, 0, 64, 0
1, 16351, Note_on_c, 0, 65, 57
1, 16417, Note_off_c, 0, 65, 56
1, 16425, Note_on_c, 0, 67, 47
1, 16465, Note_off_c, 0, 67, 66
1, 16474, Note_on_c, 0, 69, 49
1, 16479, Control_c, 0, 64, 14
1, 16494, Control_c, 0, 64, 19
1, 16499, Note_off_c, 0, 69, 59
1, 16509, Control_c, 0, 64, 22
1, 16524, Control_c, 0, 64, 23
1, 16538, Control_c, 0, 64, 22
1, 16539, Note_off_c, 0, 50, 62
1, 16546, Note_on_c, 0, 48, 71
1, 16552, Note_on_c, 0, 72, 63
1, 16553, Control_c, 0, 64, 0
1, 16585, Note_off_c, 0, 72, 63
1, 16624, Note_on_c, 0, 57, 73
1, 16627, Note_on_c, 0, 77, 61
1, 16695, Note_on_c, 0, 79, 50
1, 16710, Note_off_c, 0, 77, 60
1, 16738, Note_on_c, 0, 81, 65
1, 16739, Note_off_c, 0, 79, 64
1, 16754, Control_c, 0, 64, 10
1, 16765, Note_off_c, 0, 81, 65
1, 16768, Control_c, 0, 64, 18
1, 16783, Note_off_c, 0, 57, 59
1, 16783, Control_c, 0, 64, 25
1, 16798, Control_c, 0, 64, 34
1, 16812, Control_c, 0, 64, 43
1, 16822, Note_on_c, 0, 84, 71
1, 16827, Control_c, 0, 64, 49
1, 16842, Control_c, 0, 64, 52
1, 16843, Note_off_c, 0, 48, 64
1, 16857, Control_c, 0, 64, 53
1, 16859, Note_off_c, 0, 84, 55
1, 16872, Control_c, 0, 64, 54
1, 16886, Note_on_c, 0, 89, 72
1, 16887, Control_c, 0, 64, 56
1, 16891, Note_on_c, 0, 53, 72
1, 16901, Control_c, 0, 64, 57
1, 16949, Note_off_c, 0, 89, 62
1, 16950, Note_on_c, 0, 91, 74
1, 16961, Control_c, 0, 64, 57
1, 17005, Control_c, 0, 64, 56
1, 17008, Note_on_c, 0, 93, 77
1, 17009, Note_off_c, 0, 91, 62
1, 17032, Note_off_c, 0, 53, 60
1, 17070, Note_on_c, 0, 45, 62
1, 17073, Note_on_c, 0, 91, 82
1, 17079, Note_off_c, 0, 93, 65
1, 17079, Control_c, 0, 64, 56
1, 17094, Control_c, 0, 64, 47
1, 17109, Control_c, 0, 64, 0
1, 17124, Note_on_c, 0, 89, 80
1, 17127, Note_on_c, 0, 48, 74
1, 17130, Note_off_c, 0, 45, 60
1, 17141, Note_off_c, 0, 91, 62
1, 17145, Note_on_c, 0, 41, 61
1, 17177, Note_off_c, 0, 89, 66
1, 17184, Note_on_c, 0, 84, 72
1, 17218, Note_off_c, 0, 84, 61
1, 17260, Note_on_c, 0, 81, 81
1, 17320, Note_on_c, 0, 79, 75
1, 17321, Note_off_c, 0, 81, 63
1, 17331, Control_c, 0, 64, 16
1, 17345, Control_c, 0, 64, 27
1, 17368, Control_c, 0, 64, 35
1, 17373, Note_on_c, 0, 77, 75
1, 17377, Note_off_c, 0, 79, 63
1, 17383, Control_c, 0, 64, 43
1, 17398, Control_c, 0, 64, 50
1, 17410, Note_off_c, 0, 48, 62
1, 17413, Control_c, 0, 64, 54
1, 17420, Note_off_c, 0, 77, 61
1, 17427, Control_c, 0, 64, 55
1, 17428, Note_on_c, 0, 72, 72
1, 17455, Note_off_c, 0, 72, 66
1, 17502, Control_c, 0, 64, 56
1, 17504, Note_on_c, 0, 69, 71
1, 17532, Control_c, 0, 64, 56
1, 17558, Note_off_c, 0, 69, 64
1, 17562, Note_on_c, 0, 67, 66
1, 17577, Control_c, 0, 64, 54
1, 17591, Control_c, 0, 64, 38
1, 17597, Note_on_c, 0, 47, 67
1, 17598, Note_off_c, 0, 67, 63
1, 17600, Note_on_c, 0, 48, 70
1, 17603, Note_on_c, 0, 65, 68
1, 17606, Control_c, 0, 64, 0
1, 17610, Note_off_c, 0, 41, 45
1, 17620, Note_off_c, 0, 47, 61
1, 17626, Note_off_c, 0, 48, 57
1, 17643, Note_off_c, 0, 65, 62
1, 17665, Note_on_c, 0, 60, 62
1, 17695, Note_off_c, 0, 60, 67
1, 17734, Note_on_c, 0, 57, 65
1, 17778, Note_off_c, 0, 57, 63
1, 17789, Note_on_c, 0, 55, 60
1, 17826, Note_off_c, 0, 55, 65
1, 17843, Note_on_c, 0, 53, 57
1, 17857, Note_on_c, 0, 48, 53
1, 17881, Note_off_c, 0, 53, 66
1, 17907, Note_off_c, 0, 48, 0
1, 17920, Note_on_c, 0, 48, 58
1, 17965, Note_off_c, 0, 48, 61
1, 17984, Note_on_c, 0, 53, 58
1, 18034, Note_off_c, 0, 53, 64
1, 18036, Note_on_c, 0, 57, 59
1, 18095, Note_on_c, 0, 55, 66
1, 18117, Note_on_c, 0, 40, 66
1, 18120, Note_on_c, 0, 28, 54
1, 18121, Note_off_c, 0, 57, 61
1, 18143, Note_off_c, 0, 40, 62
1, 18149, Note_off_c, 0, 55, 66
1, 18157, Note_off_c, 0, 28, 56
1, 18176, Control_c, 0, 64, 21
1, 18178, Note_on_c, 0, 48, 63
1, 18191, Control_c, 0, 64, 32
1, 18206, Control_c, 0, 64, 41
1, 18218, Note_off_c, 0, 48, 66
1, 18221, Control_c, 0, 64, 47
1, 18236, Control_c, 0, 64, 51
1, 18249, Note_on_c, 0, 55, 63
1, 18251, Control_c, 0, 64, 52
1, 18266, Control_c, 0, 64, 53
1, 18280, Control_c, 0, 64, 54
1, 18295, Control_c, 0, 64, 55
1, 18310, Control_c, 0, 64, 57
1, 18321, Note_on_c, 0, 57, 50
1, 18337, Note_off_c, 0, 55, 58
1, 18340, Control_c, 0, 64, 49
1, 18355, Control_c, 0, 64, 23
1, 18364, Note_on_c, 0, 58, 67
1, 18367, Note_off_c, 0, 57, 61
1, 18370, Control_c, 0, 64, 0
1, 18380, Note_on_c, 0, 50, 60
1, 18388, Note_off_c, 0, 58, 67
1, 18444, Note_on_c, 0, 60, 66
1, 18444, Control_c, 0, 64, 18
1, 18458, Control_c, 0, 64, 29
1, 18473, Control_c, 0, 64, 37
1, 18482, Note_off_c, 0, 60, 61
1, 18488, Control_c, 0, 64, 45
1, 18503, Control_c, 0, 64, 51
1, 18504, Note_on_c, 0, 67, 70
1, 18518, Control_c, 0, 64, 56
1, 18532, Control_c, 0, 64, 56
1, 18547, Control_c, 0, 64, 52
1, 18562, Control_c, 0, 64, 29
1, 18564, Note_on_c, 0, 69, 66
1, 18577, Control_c, 0, 64, 0
1, 18582, Note_on_c, 0, 48, 68
1, 18599, Note_off_c, 0, 67, 63
1, 18611, Note_on_c, 0, 70, 76
1, 18617, Note_off_c, 0, 50, 56
1, 18620, Note_off_c, 0, 69, 65
1, 18624, Note_on_c, 0, 55, 81
1, 18633, Note_off_c, 0, 48, 64
1, 18637, Note_off_c, 0, 70, 68
1, 18650, Note_off_c, 0, 55, 70
1, 18665, Control_c, 0, 64, 26
1, 18680, Control_c, 0, 64, 37
1, 18695, Note_on_c, 0, 72, 71
1, 18695, Control_c, 0, 64, 46
1, 18710, Control_c, 0, 64, 53
1, 18725, Control_c, 0, 64, 55
1, 18740, Control_c, 0, 64, 56
1, 18751, Note_off_c, 0, 72, 61
1, 18754, Note_on_c, 0, 79, 82
1, 18754, Control_c, 0, 64, 57
1, 18769, Control_c, 0, 64, 59
1, 18784, Control_c, 0, 64, 61
1, 18799, Control_c, 0, 64, 63
1, 18814, Control_c, 0, 64, 64
1, 18821, Note_on_c, 0, 81, 73
1, 18829, Control_c, 0, 64, 65
1, 18844, Control_c, 0, 64, 66
1, 18865, Control_c, 0, 64, 68
1, 18870, Note_off_c, 0, 79, 58
1, 18871, Note_on_c, 0, 62, 84
1, 18880, Control_c, 0, 64, 73
1, 18881, Note_on_c, 0, 82, 84
1, 18895, Note_off_c, 0, 62, 71
1, 18895, Control_c, 0, 64, 79
1, 18899, Note_off_c, 0, 81, 64
1, 18910, Control_c, 0, 64, 82
1, 18917, Note_off_c, 0, 82, 65
1, 18925, Control_c, 0, 64, 84
1, 18939, Control_c, 0, 64, 85
1, 18954, Control_c, 0, 64, 86
1, 18966, Note_on_c, 0, 84, 83
1, 18969, Control_c, 0, 64, 88
1, 18984, Control_c, 0, 64, 90
1, 18999, Control_c, 0, 64, 92
1, 19024, Note_off_c, 0, 84, 60
1, 19028, Note_on_c, 0, 48, 71
1, 19029, Note_on_c, 0, 91, 85
1, 19032, Note_on_c, 0, 40, 64
1, 19059, Note_off_c, 0, 40, 58
1, 19062, Note_off_c, 0, 48, 67
1, 19095, Note_on_c, 0, 93, 83
1, 19103, Control_c, 0, 64, 89
1, 19118, Control_c, 0, 64, 73
1, 19122, Note_off_c, 0, 91, 62
1, 19133, Control_c, 0, 64, 53
1, 19136, Note_on_c, 0, 60, 92
1, 19138, Note_on_c, 0, 94, 85
1, 19148, Control_c, 0, 64, 0
1, 19151, Note_off_c, 0, 93, 64
1, 19208, Note_on_c, 0, 93, 83
1, 19211, Note_on_c, 0, 95, 59
1, 19236, Note_off_c, 0, 95, 60
1, 19237, Note_off_c, 0, 94, 62
1, 19237, Control_c, 0, 64, 17
1, 19252, Control_c, 0, 64, 34
1, 19263, Note_on_c, 0, 91, 79
1, 19267, Control_c, 0, 64, 46
1, 19282, Control_c, 0, 64, 57
1, 19283, Note_off_c, 0, 93, 63
1, 19296, Control_c, 0, 64, 63
1, 19302, Note_off_c, 0, 91, 56
1, 19311, Control_c, 0, 64, 65
1, 19326, Control_c, 0, 64, 66
1, 19327, Note_on_c, 0, 84, 74
1, 19341, Control_c, 0, 64, 68
1, 19355, Control_c, 0, 64, 70
1, 19363, Note_off_c, 0, 60, 64
1, 19368, Note_off_c, 0, 84, 61
1, 19370, Control_c, 0, 64, 71
1, 19385, Control_c, 0, 64, 72
1, 19396, Note_on_c, 0, 82, 81
1, 19414, Control_c, 0, 64, 73
1, 19429, Control_c, 0, 64, 74
1, 19444, Control_c, 0, 64, 75
1, 19448, Note_on_c, 0, 81, 78
1, 19459, Control_c, 0, 64, 76
1, 19474, Control_c, 0, 64, 77
1, 19488, Control_c, 0, 64, 78
1, 19508, Note_on_c, 0, 79, 67
1, 19508, Note_off_c, 0, 82, 61
1, 19515, Note_off_c, 0, 81, 60
1, 19538, Note_off_c, 0, 79, 63
1, 19559, Note_on_c, 0, 72, 72
1, 19608, Note_off_c, 0, 72, 61
1, 19629, Control_c, 0, 64, 75
1, 19634, Note_on_c, 0, 47, 59
1, 19634, Note_on_c, 0, 48, 59
1, 19641, Note_on_c, 0, 70, 73
1, 19644, Control_c, 0, 64, 63
1, 19658, Note_off_c, 0, 48, 62
1, 19659, Control_c, 0, 64, 29
1, 19660, Note_off_c, 0, 47, 64
1, 19674, Control_c, 0, 64, 0
1, 19691, Note_on_c, 0, 69, 71
1, 19734, Note_off_c, 0, 70, 60
1, 19744, Note_on_c, 0, 67, 61
1, 19745, Note_off_c, 0, 69, 62
1, 19774, Note_off_c, 0, 67, 67
1, 19805, Note_on_c, 0, 60, 65
1, 19838, Note_off_c, 0, 60, 64
1, 19881, Note_on_c, 0, 48, 65
1, 19882, Note_on_c, 0, 58, 70
1, 19905, Note_off_c, 0, 48, 62
1, 19941, Note_on_c, 0, 57, 57
1, 19968, Note_off_c, 0, 58, 48
1, 19981, Note_off_c, 0, 57, 63
1, 19986, Note_on_c, 0, 55, 65
1, 20030, Note_off_c, 0, 55, 66
1, 20051, Note_on_c, 0, 48, 55
1, 20115, Note_off_c, 0, 48, 60
1, 20132, Note_on_c, 0, 55, 56
1, 20135, Note_on_c, 0, 40, 59
1, 20136, Note_on_c, 0, 28, 52
1, 20163, Control_c, 0, 64, 21
1, 20167, Note_off_c, 0, 40, 65
1, 20173, Note_off_c, 0, 28, 50
1, 20178, Control_c, 0, 64, 35
1, 20189, Note_on_c, 0, 57, 52
1, 20193, Control_c, 0, 64, 44
1, 20208, Control_c, 0, 64, 52
1, 20223, Control_c, 0, 64, 57
1, 20226, Note_off_c, 0, 55, 58
1, 20237, Control_c, 0, 64, 58
1, 20252, Control_c, 0, 64, 58
1, 20253, Note_off_c, 0, 57, 61
1, 20260, Note_on_c, 0, 58, 56
1, 20281, Note_off_c, 0, 58, 63
1, 20343, Note_on_c, 0, 60, 44
1, 20363, Control_c, 0, 64, 57
1, 20378, Control_c, 0, 64, 50
1, 20389, Note_off_c, 0, 60, 48
1, 20393, Control_c, 0, 64, 34
1, 20405, Note_on_c, 0, 67, 66
1, 20408, Control_c, 0, 64, 0
1, 20412, Note_on_c, 0, 50, 48
1, 20437, Control_c, 0, 64, 15
1, 20452, Control_c, 0, 64, 22
1, 20467, Control_c, 0, 64, 28
1, 20482, Control_c, 0, 64, 34
1, 20492, Note_off_c, 0, 67, 61
1, 20497, Control_c, 0, 64, 42
1, 20504, Note_on_c, 0, 69, 43
1, 20511, Control_c, 0, 64, 49
1, 20522, Note_on_c, 0, 70, 67
1, 20526, Control_c, 0, 64, 56
1, 20533, Note_off_c, 0, 69, 53
1, 20541, Control_c, 0, 64, 59
1, 20556, Control_c, 0, 64, 60
1, 20557, Note_off_c, 0, 70, 64
1, 20570, Control_c, 0, 64, 61
1, 20591, Note_on_c, 0, 48, 64
1, 20606, Note_off_c, 0, 50, 55
1, 20615, Note_on_c, 0, 72, 61
1, 20615, Control_c, 0, 64, 57
1, 20630, Control_c, 0, 64, 36
1, 20641, Note_off_c, 0, 72, 56
1, 20646, Control_c, 0, 64, 0
1, 20653, Note_on_c, 0, 58, 81
1, 20677, Note_on_c, 0, 79, 72
1, 20732, Note_on_c, 0, 81, 73
1, 20762, Note_off_c, 0, 79, 59
1, 20764, Control_c, 0, 64, 25
1, 20779, Control_c, 0, 64, 36
1, 20787, Note_on_c, 0, 82, 76
1, 20793, Control_c, 0, 64, 46
1, 20800, Note_off_c, 0, 81, 63
1, 20808, Control_c, 0, 64, 54
1, 20810, Note_off_c, 0, 58, 61
1, 20820, Note_off_c, 0, 82, 66
1, 20823, Control_c, 0, 64, 59
1, 20838, Control_c, 0, 64, 60
1, 20850, Note_off_c, 0, 48, 61
1, 20853, Control_c, 0, 64, 62
1, 20868, Control_c, 0, 64, 63
1, 20871, Note_on_c, 0, 84, 81
1, 20883, Control_c, 0, 64, 65
1, 20898, Control_c, 0, 64, 65
1, 20911, Note_on_c, 0, 55, 72
1, 20913, Control_c, 0, 64, 66
1, 20928, Control_c, 0, 64, 67
1, 20929, Note_off_c, 0, 84, 62
1, 20936, Note_on_c, 0, 91, 69
1, 20938, Note_on_c, 0, 89, 65
1, 20942, Control_c, 0, 64, 69
1, 20957, Control_c, 0, 64, 71
1, 20972, Control_c, 0, 64, 71
1, 20992, Note_on_c, 0, 93, 81
1, 21001, Note_off_c, 0, 89, 51
1, 21001, Control_c, 0, 64, 72
1, 21016, Control_c, 0, 64, 72
1, 21021, Note_off_c, 0, 91, 59
1, 21026, Note_off_c, 0, 55, 62
1, 21031, Note_on_c, 0, 94, 82
1, 21031, Control_c, 0, 64, 74
1, 21046, Control_c, 0, 64, 74
1, 21054, Note_off_c, 0, 93, 62
1, 21075, Note_on_c, 0, 43, 64
1, 21112, Control_c, 0, 64, 75
1, 21114, Note_on_c, 0, 93, 79
1, 21152, Note_off_c, 0, 94, 67
1, 21154, Note_on_c, 0, 40, 83
1, 21157, Control_c, 0, 64, 69
1, 21160, Note_on_c, 0, 91, 87
1, 21162, Note_on_c, 0, 48, 83
1, 21166, Note_off_c, 0, 43, 58
1, 21172, Control_c, 0, 64, 55
1, 21184, Note_off_c, 0, 93, 63
1, 21186, Control_c, 0, 64, 0
1, 21206, Note_off_c, 0, 91, 61
1, 21230, Note_on_c, 0, 84, 76
1, 21281, Note_off_c, 0, 84, 63
1, 21290, Control_c, 0, 64, 16
1, 21305, Control_c, 0, 64, 33
1, 21313, Note_on_c, 0, 82, 79
1, 21320, Control_c, 0, 64, 44
1, 21334, Control_c, 0, 64, 53
1, 21349, Control_c, 0, 64, 59
1, 21362, Note_on_c, 0, 81, 81
1, 21364, Control_c, 0, 64, 61
1, 21379, Control_c, 0, 64, 62
1, 21393, Control_c, 0, 64, 63
1, 21408, Control_c, 0, 64, 65
1, 21420, Note_off_c, 0, 82, 61
1, 21422, Note_on_c, 0, 79, 70
1, 21423, Control_c, 0, 64, 67
1, 21435, Note_off_c, 0, 81, 57
1, 21439, Control_c, 0, 64, 68
1, 21441, Note_off_c, 0, 48, 62
1, 21458, Note_off_c, 0, 79, 62
1, 21470, Note_on_c, 0, 72, 75
1, 21483, Control_c, 0, 64, 68
1, 21498, Control_c, 0, 64, 69
1, 21513, Control_c, 0, 64, 70
1, 21516, Note_off_c, 0, 72, 63
1, 21528, Control_c, 0, 64, 70
1, 21551, Note_on_c, 0, 70, 79
1, 21557, Control_c, 0, 64, 71
1, 21562, Note_off_c, 0, 40, 38
1, 21572, Control_c, 0, 64, 71
1, 21587, Control_c, 0, 64, 72
1, 21605, Note_on_c, 0, 69, 74
1, 21646, Control_c, 0, 64, 69
1, 21647, Note_on_c, 0, 47, 72
1, 21652, Note_on_c, 0, 48, 74
1, 21656, Note_on_c, 0, 67, 70
1, 21659, Note_off_c, 0, 70, 57
1, 21661, Control_c, 0, 64, 58
1, 21671, Note_off_c, 0, 47, 67
1, 21673, Note_off_c, 0, 69, 59
1, 21676, Control_c, 0, 64, 0
1, 21677, Note_off_c, 0, 48, 67
1, 21695, Note_off_c, 0, 67, 62
1, 21714, Note_on_c, 0, 60, 70
1, 21750, Note_off_c, 0, 60, 62
1, 21790, Note_on_c, 0, 58, 73
1, 21845, Note_on_c, 0, 57, 64
1, 21891, Note_off_c, 0, 58, 61
1, 21908, Note_on_c, 0, 55, 65
1, 21918, Note_off_c, 0, 57, 60
1, 21928, Note_on_c, 0, 48, 55
1, 21955, Note_off_c, 0, 48, 58
1, 21955, Note_off_c, 0, 55, 66
1, 21991, Note_on_c, 0, 48, 61
1, 22052, Note_off_c, 0, 48, 62
1, 22061, Note_on_c, 0, 55, 62
1, 22111, Note_off_c, 0, 55, 65
1, 22119, Note_on_c, 0, 58, 59
1, 22162, Note_on_c, 0, 57, 63
1, 22165, Note_on_c, 0, 29, 56
1, 22171, Note_on_c, 0, 41, 57
1, 22186, Note_off_c, 0, 58, 59
1, 22198, Note_off_c, 0, 41, 59
1, 22202, Control_c, 0, 64, 21
1, 22206, Note_off_c, 0, 29, 50
1, 22206, Note_off_c, 0, 57, 64
1, 22216, Control_c, 0, 64, 32
1, 22232, Control_c, 0, 64, 39
1, 22242, Note_on_c, 0, 48, 53
1, 22247, Control_c, 0, 64, 46
1, 22262, Control_c, 0, 64, 50
1, 22269, Note_off_c, 0, 48, 59
1, 22277, Control_c, 0, 64, 50
1, 22302, Note_on_c, 0, 53, 64
1, 22306, Control_c, 0, 64, 50
1, 22321, Control_c, 0, 64, 50
1, 22351, Control_c, 0, 64, 51
1, 22359, Note_on_c, 0, 55, 62
1, 22365, Control_c, 0, 64, 50
1, 22380, Control_c, 0, 64, 42
1, 22381, Note_off_c, 0, 53, 61
1, 22395, Control_c, 0, 64, 16
1, 22410, Control_c, 0, 64, 0
1, 22419, Note_on_c, 0, 57, 49
1, 22421, Note_off_c, 0, 55, 64
1, 22425, Note_on_c, 0, 50, 53
1, 22447, Note_off_c, 0, 57, 58
1, 22499, Control_c, 0, 64, 22
1, 22500, Note_on_c, 0, 60, 64
1, 22513, Control_c, 0, 64, 31
1, 22528, Control_c, 0, 64, 39
1, 22534, Note_off_c, 0, 60, 60
1, 22543, Control_c, 0, 64, 47
1, 22558, Control_c, 0, 64, 53
1, 22563, Note_on_c, 0, 65, 67
1, 22573, Control_c, 0, 64, 54
1, 22588, Control_c, 0, 64, 50
1, 22592, Note_off_c, 0, 50, 59
1, 22597, Note_on_c, 0, 48, 63
1, 22610, Control_c, 0, 64, 23
1, 22622, Note_on_c, 0, 67, 49
1, 22625, Control_c, 0, 64, 0
1, 22638, Note_off_c, 0, 65, 64
1, 22674, Note_on_c, 0, 69, 62
1, 22677, Note_on_c, 0, 53, 77
1, 22681, Note_off_c, 0, 67, 65
1, 22703, Note_off_c, 0, 48, 63
1, 22703, Note_off_c, 0, 69, 66
1, 22708, Note_off_c, 0, 53, 67
1, 22728, Control_c, 0, 64, 21
1, 22743, Control_c, 0, 64, 39
1, 22756, Note_on_c, 0, 72, 70
1, 22758, Control_c, 0, 64, 51
1, 22773, Control_c, 0, 64, 60
1, 22788, Control_c, 0, 64, 64
1, 22803, Control_c, 0, 64, 65
1, 22806, Note_off_c, 0, 72, 58
1, 22815, Note_on_c, 0, 77, 78
1, 22817, Control_c, 0, 64, 67
1, 22832, Control_c, 0, 64, 71
1, 22847, Control_c, 0, 64, 76
1, 22862, Control_c, 0, 64, 80
1, 22872, Note_on_c, 0, 79, 69
1, 22877, Control_c, 0, 64, 84
1, 22892, Control_c, 0, 64, 90
1, 22901, Note_off_c, 0, 77, 61
1, 22906, Control_c, 0, 64, 105
1, 22919, Note_on_c, 0, 65, 93
1, 22920, Note_on_c, 0, 81, 81
1, 22921, Control_c, 0, 64, 127
1, 22935, Note_off_c, 0, 79, 65
1, 22943, Note_off_c, 0, 81, 69
1, 22956, Note_off_c, 0, 65, 67
1, 23002, Note_on_c, 0, 84, 85
1, 23058, Note_on_c, 0, 89, 80
1, 23059, Note_off_c, 0, 84, 65
1, 23108, Note_on_c, 0, 93, 90
1, 23111, Note_off_c, 0, 89, 67
1, 23173, Control_c, 0, 64, 73
1, 23184, Note_on_c, 0, 91, 96
1, 23185, Note_on_c, 0, 65, 90
1, 23186, Note_on_c, 0, 62, 79
1, 23188, Control_c, 0, 64, 54
1, 23190, Note_on_c, 0, 58, 77
1, 23194, Note_on_c, 0, 53, 75
1, 23203, Control_c, 0, 64, 0
1, 23216, Note_off_c, 0, 93, 61
1, 23233, Control_c, 0, 64, 28
1, 23247, Control_c, 0, 64, 39
1, 23255, Note_on_c, 0, 89, 82
1, 23262, Control_c, 0, 64, 51
1, 23271, Note_off_c, 0, 91, 60
1, 23277, Control_c, 0, 64, 61
1, 23292, Control_c, 0, 64, 69
1, 23307, Control_c, 0, 64, 75
1, 23320, Note_off_c, 0, 89, 65
1, 23322, Control_c, 0, 64, 78
1, 23327, Note_on_c, 0, 86, 84
1, 23336, Control_c, 0, 64, 82
1, 23359, Control_c, 0, 64, 88
1, 23374, Control_c, 0, 64, 91
1, 23375, Note_off_c, 0, 86, 63
1, 23388, Control_c, 0, 64, 93
1, 23402, Note_off_c, 0, 65, 65
1, 23403, Control_c, 0, 64, 94
1, 23404, Note_on_c, 0, 82, 80
1, 23408, Note_off_c, 0, 53, 65
1, 23414, Note_off_c, 0, 62, 63
1, 23418, Control_c, 0, 64, 98
1, 23423, Note_off_c, 0, 58, 63
1, 23433, Control_c, 0, 64, 107
1, 23448, Control_c, 0, 64, 115
1, 23462, Control_c, 0, 64, 117
1, 23463, Note_on_c, 0, 79, 75
1, 23505, Note_off_c, 0, 82, 63
1, 23507, Note_on_c, 0, 77, 76
1, 23524, Note_off_c, 0, 79, 63
1, 23536, Control_c, 0, 64, 115
1, 23545, Note_off_c, 0, 77, 57
1, 23566, Note_on_c, 0, 74, 66
1, 23631, Note_on_c, 0, 70, 79
1, 23632, Note_off_c, 0, 74, 36
1, 23680, Note_off_c, 0, 70, 62
1, 23685, Control_c, 0, 64, 85
1, 23700, Control_c, 0, 64, 59
1, 23709, Note_on_c, 0, 65, 86
1, 23712, Note_on_c, 0, 60, 72
1, 23713, Note_on_c, 0, 57, 66
1, 23714, Control_c, 0, 64, 0
1, 23718, Note_on_c, 0, 72, 77
1, 23727, Note_on_c, 0, 53, 46
1, 23727, Note_off_c, 0, 65, 76
1, 23736, Note_off_c, 0, 60, 71
1, 23740, Note_off_c, 0, 57, 65
1, 23751, Note_off_c, 0, 53, 62
1, 23764, Note_off_c, 0, 72, 57
1, 23781, Note_on_c, 0, 77, 82
1, 23848, Note_on_c, 0, 79, 69
1, 23874, Note_off_c, 0, 77, 62
1, 23897, Note_on_c, 0, 81, 76
1, 23910, Note_off_c, 0, 79, 64
1, 23918, Note_off_c, 0, 81, 69
1, 23966, Note_on_c, 0, 65, 86
1, 23969, Note_on_c, 0, 60, 74
1, 23971, Note_on_c, 0, 57, 69
1, 23974, Note_on_c, 0, 84, 86
1, 23978, Note_on_c, 0, 53, 54
1, 23985, Note_off_c, 0, 65, 75
1, 23992, Note_off_c, 0, 60, 69
1, 23997, Note_off_c, 0, 57, 64
1, 24002, Note_off_c, 0, 53, 60
1, 24031, Note_off_c, 0, 84, 64
1, 24035, Note_on_c, 0, 89, 81
1, 24097, Note_on_c, 0, 91, 73
1, 24129, Note_off_c, 0, 89, 63
1, 24166, Note_on_c, 0, 93, 80
1, 24175, Note_off_c, 0, 91, 62
1, 24225, Note_on_c, 0, 62, 79
1, 24227, Note_on_c, 0, 65, 88
1, 24231, Note_on_c, 0, 91, 85
1, 24233, Note_on_c, 0, 58, 71
1, 24235, Note_on_c, 0, 53, 62
1, 24256, Control_c, 0, 64, 32
1, 24265, Note_off_c, 0, 93, 62
1, 24271, Control_c, 0, 64, 47
1, 24278, Note_off_c, 0, 65, 67
1, 24285, Control_c, 0, 64, 59
1, 24287, Note_on_c, 0, 89, 84
1, 24289, Note_off_c, 0, 53, 65
1, 24290, Note_off_c, 0, 62, 64
1, 24298, Note_off_c, 0, 58, 64
1, 24300, Control_c, 0, 64, 67
1, 24313, Note_off_c, 0, 91, 60
1, 24315, Control_c, 0, 64, 70
1, 24329, Control_c, 0, 64, 72
1, 24344, Control_c, 0, 64, 74
1, 24346, Note_off_c, 0, 89, 61
1, 24353, Note_on_c, 0, 86, 86
1, 24359, Control_c, 0, 64, 79
1, 24374, Control_c, 0, 64, 83
1, 24389, Control_c, 0, 64, 84
1, 24394, Note_off_c, 0, 86, 63
1, 24428, Note_on_c, 0, 82, 81
1, 24433, Control_c, 0, 64, 84
1, 24448, Control_c, 0, 64, 86
1, 24463, Control_c, 0, 64, 86
1, 24478, Control_c, 0, 64, 87
1, 24479, Note_on_c, 0, 79, 70
1, 24515, Note_off_c, 0, 82, 67
1, 24521, Note_on_c, 0, 77, 81
1, 24544, Note_off_c, 0, 79, 63
1, 24570, Note_off_c, 0, 77, 60
1, 24582, Control_c, 0, 64, 86
1, 24585, Note_on_c, 0, 74, 71
1, 24611, Control_c, 0, 64, 85
1, 24614, Note_off_c, 0, 74, 57
1, 24627, Control_c, 0, 64, 85
1, 24652, Note_on_c, 0, 70, 78
1, 24657, Control_c, 0, 64, 84
1, 24672, Control_c, 0, 64, 84
1, 24686, Control_c, 0, 64, 79
1, 24697, Note_off_c, 0, 70, 62
1, 24701, Control_c, 0, 64, 62
1, 24716, Control_c, 0, 64, 26
1, 24721, Note_on_c, 0, 65, 76
1, 24722, Note_on_c, 0, 60, 72
1, 24726, Note_on_c, 0, 53, 61
1, 24728, Note_on_c, 0, 57, 67
1, 24731, Control_c, 0, 64, 0
1, 24737, Note_on_c, 0, 72, 82
1, 24737, Note_off_c, 0, 65, 72
1, 24745, Note_off_c, 0, 60, 70
1, 24747, Note_off_c, 0, 53, 67
1, 24752, Note_off_c, 0, 57, 66
1, 24792, Note_off_c, 0, 72, 61
1, 24803, Note_on_c, 0, 77, 80
1, 24868, Note_on_c, 0, 79, 66
1, 24898, Note_off_c, 0, 77, 64
1, 24914, Note_on_c, 0, 81, 75
1, 24934, Note_off_c, 0, 79, 64
1, 24946, Note_off_c, 0, 81, 63
1, 24975, Control_c, 0, 64, 14
1, 24979, Note_on_c, 0, 65, 73
1, 24981, Note_on_c, 0, 60, 69
1, 24988, Note_on_c, 0, 57, 56
1, 24990, Note_on_c, 0, 53, 46
1, 24990, Control_c, 0, 64, 36
1, 24998, Note_on_c, 0, 84, 83
1, 25002, Note_off_c, 0, 65, 71
1, 25005, Note_off_c, 0, 60, 69
1, 25005, Control_c, 0, 64, 52
1, 25016, Note_off_c, 0, 57, 64
1, 25020, Control_c, 0, 64, 63
1, 25028, Note_off_c, 0, 53, 67
1, 25034, Control_c, 0, 64, 67
1, 25063, Note_off_c, 0, 84, 61
1, 25066, Note_on_c, 0, 89, 79
1, 25079, Control_c, 0, 64, 68
1, 25094, Control_c, 0, 64, 68
1, 25108, Control_c, 0, 64, 69
1, 25135, Note_on_c, 0, 91, 75
1, 25143, Note_off_c, 0, 89, 62
1, 25184, Note_on_c, 0, 93, 74
1, 25190, Note_on_c, 0, 46, 77
1, 25198, Note_off_c, 0, 91, 61
1, 25212, Control_c, 0, 64, 67
1, 25221, Note_on_c, 0, 53, 69
1, 25225, Note_off_c, 0, 93, 62
1, 25226, Control_c, 0, 64, 60
1, 25241, Control_c, 0, 64, 36
1, 25243, Note_on_c, 0, 55, 76
1, 25253, Note_off_c, 0, 46, 66
1, 25256, Control_c, 0, 64, 0
1, 25277, Note_on_c, 0, 91, 83
1, 25287, Note_on_c, 0, 62, 92
1, 25330, Control_c, 0, 64, 20
1, 25345, Note_on_c, 0, 93, 83
1, 25345, Note_off_c, 0, 91, 62
1, 25345, Control_c, 0, 64, 41
1, 25360, Control_c, 0, 64, 55
1, 25375, Control_c, 0, 64, 62
1, 25390, Control_c, 0, 64, 63
1, 25405, Control_c, 0, 64, 63
1, 25413, Note_on_c, 0, 91, 77
1, 25420, Control_c, 0, 64, 64
1, 25435, Note_off_c, 0, 93, 61
1, 25435, Control_c, 0, 64, 67
1, 25450, Control_c, 0, 64, 71
1, 25456, Note_on_c, 0, 89, 81
1, 25464, Control_c, 0, 64, 74
1, 25477, Note_off_c, 0, 91, 60
1, 25479, Control_c, 0, 64, 77
1, 25494, Control_c, 0, 64, 79
1, 25503, Note_off_c, 0, 89, 64
1, 25509, Control_c, 0, 64, 81
1, 25511, Note_on_c, 0, 86, 77
1, 25524, Control_c, 0, 64, 86
1, 25539, Control_c, 0, 64, 93
1, 25542, Note_off_c, 0, 86, 55
1, 25554, Control_c, 0, 64, 97
1, 25569, Control_c, 0, 64, 98
1, 25583, Control_c, 0, 64, 98
1, 25586, Note_on_c, 0, 82, 80
1, 25605, Control_c, 0, 64, 100
1, 25620, Control_c, 0, 64, 101
1, 25635, Control_c, 0, 64, 101
1, 25653, Note_on_c, 0, 84, 66
1, 25675, Note_off_c, 0, 82, 63
1, 25698, Note_on_c, 0, 81, 83
1, 25707, Note_off_c, 0, 62, 56
1, 25709, Note_off_c, 0, 84, 63
1, 25749, Note_off_c, 0, 81, 64
1, 25750, Note_on_c, 0, 79, 79
1, 25798, Note_off_c, 0, 79, 57
1, 25801, Note_off_c, 0, 55, 60
1, 25808, Note_on_c, 0, 81, 80
1, 25843, Control_c, 0, 64, 101
1, 25857, Control_c, 0, 64, 100
1, 25860, Note_on_c, 0, 79, 68
1, 25872, Control_c, 0, 64, 99
1, 25880, Note_off_c, 0, 53, 37
1, 25882, Note_off_c, 0, 81, 60
1, 25887, Control_c, 0, 64, 99
1, 25900, Note_on_c, 0, 77, 79
1, 25916, Control_c, 0, 64, 98
1, 25921, Note_off_c, 0, 79, 64
1, 25931, Control_c, 0, 64, 98
1, 25948, Note_off_c, 0, 77, 62
1, 25959, Note_on_c, 0, 74, 73
1, 25975, Control_c, 0, 64, 97
1, 25990, Control_c, 0, 64, 97
1, 26002, Note_off_c, 0, 74, 61
1, 26005, Control_c, 0, 64, 96
1, 26020, Control_c, 0, 64, 96
1, 26035, Control_c, 0, 64, 95
1, 26037, Note_on_c, 0, 70, 72
1, 26049, Control_c, 0, 64, 94
1, 26064, Control_c, 0, 64, 93
1, 26077, Note_on_c, 0, 72, 67
1, 26079, Control_c, 0, 64, 90
1, 26094, Control_c, 0, 64, 88
1, 26108, Control_c, 0, 64, 86
1, 26114, Note_off_c, 0, 70, 61
1, 26123, Control_c, 0, 64, 83
1, 26138, Control_c, 0, 64, 81
1, 26147, Note_on_c, 0, 69, 66
1, 26153, Note_off_c, 0, 72, 61
1, 26153, Control_c, 0, 64, 79
1, 26168, Control_c, 0, 64, 73
1, 26177, Note_off_c, 0, 69, 64
1, 26183, Control_c, 0, 64, 65
1, 26198, Control_c, 0, 64, 54
1, 26205, Note_on_c, 0, 67, 65
1, 26211, Note_on_c, 0, 62, 68
1, 26213, Control_c, 0, 64, 24
1, 26223, Note_on_c, 0, 48, 51
1, 26228, Control_c, 0, 64, 0
1, 26229, Note_on_c, 0, 53, 50
1, 26239, Note_on_c, 0, 55, 51
1, 26248, Note_off_c, 0, 67, 56
1, 26277, Note_on_c, 0, 69, 64
1, 26308, Note_off_c, 0, 69, 64
1, 26317, Control_c, 0, 64, 10
1, 26333, Control_c, 0, 64, 23
1, 26341, Note_on_c, 0, 67, 73
1, 26355, Control_c, 0, 64, 31
1, 26370, Control_c, 0, 64, 38
1, 26385, Control_c, 0, 64, 45
1, 26390, Note_off_c, 0, 67, 54
1, 26400, Control_c, 0, 64, 52
1, 26406, Note_on_c, 0, 74, 72
1, 26414, Control_c, 0, 64, 56
1, 26429, Control_c, 0, 64, 59
1, 26444, Control_c, 0, 64, 60
1, 26457, Note_off_c, 0, 74, 66
1, 26459, Control_c, 0, 64, 61
1, 26460, Note_off_c, 0, 62, 62
1, 26464, Note_on_c, 0, 72, 70
1, 26474, Control_c, 0, 64, 63
1, 26488, Control_c, 0, 64, 64
1, 26503, Control_c, 0, 64, 65
1, 26516, Note_off_c, 0, 72, 65
1, 26518, Control_c, 0, 64, 65
1, 26521, Note_on_c, 0, 74, 64
1, 26544, Note_off_c, 0, 74, 67
1, 26547, Control_c, 0, 64, 66
1, 26562, Control_c, 0, 64, 67
1, 26577, Control_c, 0, 64, 67
1, 26592, Control_c, 0, 64, 68
1, 26594, Note_on_c, 0, 72, 57
1, 26621, Note_off_c, 0, 72, 51
1, 26627, Note_on_c, 0, 74, 38
1, 26646, Note_on_c, 0, 81, 72
1, 26657, Note_off_c, 0, 74, 56
1, 26681, Control_c, 0, 64, 67
1, 26684, Note_off_c, 0, 55, 66
1, 26696, Control_c, 0, 64, 63
1, 26697, Note_off_c, 0, 53, 64
1, 26699, Note_on_c, 0, 60, 83
1, 26700, Note_on_c, 0, 79, 79
1, 26702, Note_off_c, 0, 81, 63
1, 26703, Note_on_c, 0, 52, 61
1, 26710, Control_c, 0, 64, 52
1, 26725, Control_c, 0, 64, 19
1, 26740, Control_c, 0, 64, 0
1, 26761, Note_off_c, 0, 79, 64
1, 26761, Note_on_c, 0, 81, 70
1, 26791, Note_off_c, 0, 81, 65
1, 26799, Control_c, 0, 64, 15
1, 26814, Control_c, 0, 64, 29
1, 26829, Control_c, 0, 64, 39
1, 26833, Note_on_c, 0, 79, 73
1, 26844, Control_c, 0, 64, 50
1, 26859, Control_c, 0, 64, 57
1, 26873, Control_c, 0, 64, 59
1, 26888, Control_c, 0, 64, 60
1, 26890, Note_off_c, 0, 79, 60
1, 26891, Note_on_c, 0, 86, 82
1, 26903, Control_c, 0, 64, 60
1, 26917, Control_c, 0, 64, 61
1, 26932, Control_c, 0, 64, 63
1, 26946, Note_on_c, 0, 58, 77
1, 26946, Note_off_c, 0, 52, 64
1, 26946, Note_off_c, 0, 60, 63
1, 26947, Control_c, 0, 64, 65
1, 26948, Note_on_c, 0, 84, 81
1, 26949, Note_off_c, 0, 86, 63
1, 26962, Control_c, 0, 64, 66
1, 26970, Note_off_c, 0, 58, 69
1, 26980, Note_off_c, 0, 48, 40
1, 26992, Control_c, 0, 64, 67
1, 27004, Note_off_c, 0, 84, 65
1, 27006, Control_c, 0, 64, 68
1, 27012, Note_on_c, 0, 86, 71
1, 27022, Control_c, 0, 64, 70
1, 27036, Note_off_c, 0, 86, 66
1, 27037, Control_c, 0, 64, 73
1, 27052, Control_c, 0, 64, 74
1, 27065, Note_on_c, 0, 84, 76
1, 27104, Control_c, 0, 64, 74
1, 27111, Note_off_c, 0, 84, 64
1, 27114, Note_on_c, 0, 41, 44
1, 27134, Control_c, 0, 64, 75
1, 27149, Note_on_c, 0, 48, 80
1, 27149, Note_on_c, 0, 98, 87
1, 27149, Note_off_c, 0, 41, 53
1, 27180, Note_on_c, 0, 52, 77
1, 27193, Control_c, 0, 64, 73
1, 27207, Note_off_c, 0, 98, 64
1, 27208, Control_c, 0, 64, 65
1, 27209, Note_on_c, 0, 96, 72
1, 27223, Control_c, 0, 64, 52
1, 27226, Note_on_c, 0, 58, 95
1, 27237, Control_c, 0, 64, 0
1, 27289, Note_off_c, 0, 96, 63
1, 27290, Note_on_c, 0, 98, 79
1, 27342, Note_on_c, 0, 96, 61
1, 27370, Control_c, 0, 64, 14
1, 27385, Control_c, 0, 64, 21
1, 27393, Note_off_c, 0, 98, 60
1, 27396, Note_on_c, 0, 94, 80
1, 27400, Control_c, 0, 64, 26
1, 27415, Control_c, 0, 64, 31
1, 27429, Control_c, 0, 64, 34
1, 27437, Note_on_c, 0, 91, 78
1, 27439, Note_off_c, 0, 96, 63
1, 27444, Control_c, 0, 64, 38
1, 27459, Control_c, 0, 64, 44
1, 27468, Note_off_c, 0, 94, 65
1, 27474, Control_c, 0, 64, 49
1, 27489, Control_c, 0, 64, 54
1, 27491, Note_off_c, 0, 91, 59
1, 27491, Note_on_c, 0, 88, 80
1, 27503, Control_c, 0, 64, 56
1, 27518, Control_c, 0, 64, 57
1, 27533, Control_c, 0, 64, 57
1, 27536, Note_off_c, 0, 88, 56
1, 27548, Control_c, 0, 64, 58
1, 27557, Note_on_c, 0, 89, 79
1, 27578, Control_c, 0, 64, 56
1, 27593, Control_c, 0, 64, 50
1, 27608, Control_c, 0, 64, 34
1, 27621, Note_on_c, 0, 86, 78
1, 27622, Control_c, 0, 64, 20
1, 27635, Note_off_c, 0, 89, 65
1, 27637, Control_c, 0, 64, 23
1, 27652, Control_c, 0, 64, 27
1, 27667, Control_c, 0, 64, 32
1, 27672, Note_off_c, 0, 86, 62
1, 27672, Note_on_c, 0, 84, 75
1, 27681, Control_c, 0, 64, 36
1, 27696, Control_c, 0, 64, 42
1, 27711, Control_c, 0, 64, 49
1, 27713, Note_off_c, 0, 84, 57
1, 27724, Note_on_c, 0, 86, 80
1, 27726, Control_c, 0, 64, 54
1, 27741, Control_c, 0, 64, 58
1, 27755, Control_c, 0, 64, 59
1, 27770, Control_c, 0, 64, 60
1, 27775, Note_off_c, 0, 58, 60
1, 27778, Note_on_c, 0, 84, 69
1, 27785, Control_c, 0, 64, 61
1, 27792, Note_off_c, 0, 52, 60
1, 27800, Control_c, 0, 64, 62
1, 27816, Control_c, 0, 64, 63
1, 27829, Note_on_c, 0, 82, 81
1, 27830, Control_c, 0, 64, 63
1, 27838, Note_off_c, 0, 86, 55
1, 27841, Note_off_c, 0, 48, 44
1, 27876, Note_on_c, 0, 79, 75
1, 27882, Note_off_c, 0, 84, 63
1, 27915, Note_off_c, 0, 82, 63
1, 27930, Note_off_c, 0, 79, 61
1, 27934, Note_on_c, 0, 76, 78
1, 27965, Note_off_c, 0, 76, 64
1, 27979, Note_on_c, 0, 41, 47
1, 28012, Note_on_c, 0, 77, 73
1, 28012, Note_off_c, 0, 41, 54
1, 28015, Control_c, 0, 64, 63
1, 28045, Control_c, 0, 64, 62
1, 28046, Note_on_c, 0, 48, 54
1, 28059, Control_c, 0, 64, 62
1, 28078, Note_on_c, 0, 74, 73
1, 28079, Note_off_c, 0, 77, 62
1, 28103, Note_on_c, 0, 53, 57
1, 28126, Note_off_c, 0, 74, 62
1, 28131, Note_on_c, 0, 72, 63
1, 28148, Control_c, 0, 64, 61
1, 28150, Note_on_c, 0, 57, 57
1, 28159, Note_off_c, 0, 72, 66
1, 28163, Control_c, 0, 64, 55
1, 28177, Control_c, 0, 64, 29
1, 28192, Control_c, 0, 64, 0
1, 28193, Note_on_c, 0, 74, 68
1, 28240, Note_on_c, 0, 72, 73
1, 28285, Note_off_c, 0, 74, 62
1, 28293, Note_on_c, 0, 69, 72
1, 28296, Control_c, 0, 64, 19
1, 28311, Control_c, 0, 64, 28
1, 28315, Note_off_c, 0, 72, 62
1, 28326, Control_c, 0, 64, 33
1, 28337, Note_off_c, 0, 69, 63
1, 28344, Note_on_c, 0, 65, 75
1, 28356, Control_c, 0, 64, 26
1, 28367, Note_off_c, 0, 65, 71
1, 28370, Control_c, 0, 64, 0
1, 28400, Note_off_c, 0, 57, 57
1, 28425, Note_on_c, 0, 60, 71
1, 28430, Control_c, 0, 64, 11
1, 28444, Control_c, 0, 64, 19
1, 28459, Control_c, 0, 64, 28
1, 28474, Control_c, 0, 64, 36
1, 28480, Note_on_c, 0, 62, 69
1, 28489, Control_c, 0, 64, 43
1, 28493, Note_off_c, 0, 60, 59
1, 28503, Control_c, 0, 64, 44
1, 28518, Control_c, 0, 64, 36
1, 28533, Control_c, 0, 64, 20
1, 28535, Note_off_c, 0, 53, 36
1, 28538, Note_on_c, 0, 58, 75
1, 28539, Note_off_c, 0, 62, 64
1, 28548, Control_c, 0, 64, 0
1, 28599, Note_on_c, 0, 57, 72
1, 28600, Note_off_c, 0, 58, 61
1, 28615, Control_c, 0, 64, 14
1, 28630, Control_c, 0, 64, 19
1, 28633, Note_off_c, 0, 57, 63
1, 28636, Note_off_c, 0, 48, 41
1, 28645, Control_c, 0, 64, 20
1, 28660, Control_c, 0, 64, 21
1, 28675, Control_c, 0, 64, 22
1, 28683, Note_on_c, 0, 52, 72
1, 28690, Control_c, 0, 64, 24
1, 28705, Control_c, 0, 64, 26
1, 28719, Control_c, 0, 64, 28
1, 28734, Control_c, 0, 64, 29
1, 28744, Note_on_c, 0, 53, 67
1, 28749, Control_c, 0, 64, 31
1, 28764, Control_c, 0, 64, 32
1, 28779, Control_c, 0, 64, 34
1, 28783, Note_off_c, 0, 52, 63
1, 28797, Note_on_c, 0, 50, 65
1, 28808, Control_c, 0, 64, 24
1, 28823, Control_c, 0, 64, 0
1, 28827, Note_off_c, 0, 53, 65
1, 28843, Note_off_c, 0, 50, 64
1, 28846, Note_on_c, 0, 48, 66
1, 28870, Note_off_c, 0, 48, 66
1, 28898, Note_on_c, 0, 43, 58
1, 28941, Control_c, 0, 64, 12
1, 28956, Control_c, 0, 64, 26
1, 28964, Note_on_c, 0, 45, 58
1, 28970, Note_off_c, 0, 43, 51
1, 28971, Control_c, 0, 64, 34
1, 28986, Control_c, 0, 64, 38
1, 29000, Control_c, 0, 64, 42
1, 29015, Control_c, 0, 64, 45
1, 29019, Note_off_c, 0, 45, 61
1, 29030, Control_c, 0, 64, 47
1, 29045, Control_c, 0, 64, 47
1, 29060, Control_c, 0, 64, 46
1, 29065, Note_on_c, 0, 41, 40
1, 29074, Control_c, 0, 64, 46
1, 29074, Control_c, 0, 67, 9
1, 29089, Control_c, 0, 64, 45
1, 29089, Control_c, 0, 67, 10
1, 29104, Control_c, 0, 64, 44
1, 29104, Control_c, 0, 67, 11
1, 29119, Control_c, 0, 64, 42
1, 29119, Control_c, 0, 67, 12
1, 29134, Control_c, 0, 64, 39
1, 29134, Control_c, 0, 67, 14
1, 29143, Note_off_c, 0, 41, 55
1, 29149, Control_c, 0, 64, 35
1, 29149, Control_c, 0, 67, 15
1, 29163, Note_on_c, 0, 45, 40
1, 29164, Control_c, 0, 64, 29
1, 29164, Control_c, 0, 67, 15
1, 29179, Control_c, 0, 64, 17
1, 29179, Control_c, 0, 67, 17
1, 29193, Control_c, 0, 64, 0
1, 29193, Control_c, 0, 67, 19
1, 29198, Note_on_c, 0, 89, 58
1, 29208, Control_c, 0, 67, 23
1, 29208, Note_on_c, 0, 38, 44
1, 29223, Control_c, 0, 67, 28
1, 29238, Control_c, 0, 67, 32
1, 29253, Control_c, 0, 67, 38
1, 29259, Note_off_c, 0, 89, 65
1, 29264, Note_on_c, 0, 88, 65
1, 29268, Control_c, 0, 67, 46
1, 29282, Control_c, 0, 67, 55
1, 29297, Control_c, 0, 67, 62
1, 29305, Note_on_c, 0, 86, 68
1, 29306, Note_off_c, 0, 88, 64
1, 29312, Control_c, 0, 67, 67
1, 29325, Control_c, 0, 67, 73
1, 29334, Note_off_c, 0, 86, 61
1, 29348, Control_c, 0, 64, 22
1, 29348, Control_c, 0, 67, 80
1, 29360, Note_on_c, 0, 81, 76
1, 29363, Control_c, 0, 64, 32
1, 29363, Control_c, 0, 67, 85
1, 29378, Control_c, 0, 64, 40
1, 29378, Control_c, 0, 67, 86
1, 29384, Note_off_c, 0, 81, 67
1, 29393, Control_c, 0, 64, 49
1, 29407, Control_c, 0, 64, 57
1, 29407, Control_c, 0, 67, 86
1, 29423, Control_c, 0, 64, 62
1, 29423, Control_c, 0, 67, 85
1, 29426, Note_off_c, 0, 45, 60
1, 29429, Note_on_c, 0, 77, 74
1, 29438, Control_c, 0, 64, 62
1, 29438, Control_c, 0, 67, 84
1, 29453, Control_c, 0, 64, 63
1, 29453, Control_c, 0, 67, 84
1, 29468, Control_c, 0, 64, 64
1, 29468, Control_c, 0, 67, 83
1, 29483, Control_c, 0, 64, 65
1, 29483, Control_c, 0, 67, 83
1, 29492, Note_on_c, 0, 76, 72
1, 29497, Note_off_c, 0, 77, 62
1, 29497, Control_c, 0, 64, 67
1, 29497, Control_c, 0, 67, 82
1, 29512, Control_c, 0, 64, 67
1, 29533, Note_on_c, 0, 74, 72
1, 29538, Note_off_c, 0, 76, 65
1, 29541, Control_c, 0, 67, 82
1, 29571, Control_c, 0, 64, 68
1, 29581, Note_off_c, 0, 74, 61
1, 29586, Control_c, 0, 64, 69
1, 29587, Note_on_c, 0, 69, 77
1, 29601, Control_c, 0, 67, 81
1, 29615, Control_c, 0, 64, 68
1, 29623, Note_off_c, 0, 69, 60
1, 29630, Control_c, 0, 64, 59
1, 29630, Control_c, 0, 67, 80
1, 29645, Control_c, 0, 64, 0
1, 29645, Control_c, 0, 67, 80
1, 29658, Note_off_c, 0, 38, 55
1, 29660, Control_c, 0, 67, 79
1, 29663, Note_on_c, 0, 45, 46
1, 29666, Note_on_c, 0, 44, 47
1, 29667, Note_on_c, 0, 65, 70
1, 29675, Control_c, 0, 67, 78
1, 29689, Control_c, 0, 67, 78
1, 29692, Note_off_c, 0, 45, 56
1, 29697, Note_off_c, 0, 44, 52
1, 29704, Control_c, 0, 67, 77
1, 29706, Note_off_c, 0, 65, 64
1, 29719, Control_c, 0, 67, 77
1, 29727, Note_on_c, 0, 64, 60
1, 29758, Note_off_c, 0, 64, 65
1, 29765, Note_on_c, 0, 62, 69
1, 29799, Note_off_c, 0, 62, 64
1, 29828, Note_on_c, 0, 57, 56
1, 29859, Note_off_c, 0, 57, 63
1, 29867, Control_c, 0, 67, 76
1, 29882, Control_c, 0, 67, 76
1, 29897, Control_c, 0, 67, 75
1, 29900, Note_on_c, 0, 45, 54
1, 29900, Note_on_c, 0, 53, 58
1, 29912, Control_c, 0, 67, 75
1, 29924, Note_off_c, 0, 45, 59
1, 29927, Control_c, 0, 67, 74
1, 29940, Note_off_c, 0, 53, 66
1, 29941, Control_c, 0, 67, 74
1, 29960, Note_on_c, 0, 52, 49
1, 29991, Note_off_c, 0, 52, 67
1, 30006, Note_on_c, 0, 50, 59
1, 30047, Note_off_c, 0, 50, 65
1, 30070, Note_on_c, 0, 45, 42
1, 30074, Control_c, 0, 67, 73
1, 30097, Control_c, 0, 67, 72
1, 30112, Control_c, 0, 67, 69
1, 30123, Note_off_c, 0, 45, 47
1, 30127, Control_c, 0, 67, 64
1, 30142, Control_c, 0, 67, 59
1, 30145, Note_on_c, 0, 38, 55
1, 30146, Note_on_c, 0, 26, 51
1, 30156, Control_c, 0, 67, 55
1, 30158, Note_on_c, 0, 50, 60
1, 30171, Control_c, 0, 64, 18
1, 30171, Control_c, 0, 67, 49
1, 30176, Note_off_c, 0, 38, 61
1, 30185, Note_off_c, 0, 26, 44
1, 30186, Control_c, 0, 64, 32
1, 30186, Control_c, 0, 67, 40
1, 30201, Control_c, 0, 64, 40
1, 30201, Control_c, 0, 67, 30
1, 30216, Control_c, 0, 64, 46
1, 30216, Control_c, 0, 67, 21
1, 30222, Note_on_c, 0, 52, 49
1, 30231, Control_c, 0, 64, 52
1, 30231, Control_c, 0, 67, 16
1, 30233, Note_off_c, 0, 50, 57
1, 30246, Control_c, 0, 64, 55
1, 30246, Control_c, 0, 67, 12
1, 30261, Control_c, 0, 64, 57
1, 30261, Control_c, 0, 67, 9
1, 30269, Note_off_c, 0, 52, 66
1, 30270, Note_on_c, 0, 53, 54
1, 30276, Control_c, 0, 64, 58
1, 30276, Control_c, 0, 67, 0
1, 30294, Note_off_c, 0, 53, 59
1, 30352, Note_on_c, 0, 57, 64
1, 30365, Control_c, 0, 64, 56
1, 30379, Control_c, 0, 64, 51
1, 30385, Note_off_c, 0, 57, 61
1, 30394, Control_c, 0, 64, 39
1, 30409, Control_c, 0, 64, 0
1, 30419, Note_on_c, 0, 46, 54
1, 30424, Note_on_c, 0, 62, 59
1, 30493, Note_on_c, 0, 64, 48
1, 30497, Control_c, 0, 64, 8
1, 30502, Note_off_c, 0, 62, 59
1, 30512, Control_c, 0, 64, 14
1, 30527, Control_c, 0, 64, 19
1, 30541, Note_on_c, 0, 65, 54
1, 30542, Control_c, 0, 64, 21
1, 30543, Note_off_c, 0, 64, 63
1, 30557, Control_c, 0, 64, 23
1, 30563, Note_off_c, 0, 65, 65
1, 30571, Control_c, 0, 64, 25
1, 30586, Control_c, 0, 64, 20
1, 30601, Control_c, 0, 64, 0
1, 30607, Note_off_c, 0, 46, 64
1, 30615, Note_on_c, 0, 45, 56
1, 30625, Note_on_c, 0, 69, 64
1, 30658, Note_off_c, 0, 69, 63
1, 30678, Note_on_c, 0, 53, 72
1, 30697, Note_on_c, 0, 74, 59
1, 30754, Note_on_c, 0, 76, 46
1, 30776, Note_off_c, 0, 74, 55
1, 30807, Note_on_c, 0, 77, 59
1, 30809, Control_c, 0, 64, 12
1, 30809, Note_off_c, 0, 76, 65
1, 30824, Control_c, 0, 64, 25
1, 30829, Note_off_c, 0, 77, 64
1, 30845, Control_c, 0, 64, 33
1, 30846, Note_off_c, 0, 53, 65
1, 30860, Control_c, 0, 64, 41
1, 30875, Control_c, 0, 64, 50
1, 30890, Control_c, 0, 64, 57
1, 30894, Note_off_c, 0, 45, 63
1, 30899, Note_on_c, 0, 81, 63
1, 30905, Control_c, 0, 64, 60
1, 30920, Control_c, 0, 64, 60
1, 30928, Note_off_c, 0, 81, 60
1, 30934, Control_c, 0, 64, 61
1, 30943, Note_on_c, 0, 50, 71
1, 30949, Control_c, 0, 64, 62
1, 30964, Note_on_c, 0, 86, 63
1, 30964, Control_c, 0, 64, 63
1, 31016, Note_on_c, 0, 88, 58
1, 31024, Note_off_c, 0, 86, 53
1, 31054, Control_c, 0, 64, 63
1, 31069, Control_c, 0, 64, 62
1, 31080, Note_off_c, 0, 88, 67
1, 31083, Note_on_c, 0, 89, 67
1, 31083, Control_c, 0, 64, 62
1, 31096, Note_off_c, 0, 50, 53
1, 31128, Control_c, 0, 64, 61
1, 31135, Note_on_c, 0, 41, 57
1, 31139, Note_on_c, 0, 88, 69
1, 31143, Control_c, 0, 64, 58
1, 31155, Note_off_c, 0, 89, 64
1, 31158, Control_c, 0, 64, 41
1, 31173, Control_c, 0, 64, 0
1, 31194, Note_off_c, 0, 41, 62
1, 31197, Note_on_c, 0, 45, 66
1, 31206, Note_on_c, 0, 86, 71
1, 31212, Note_off_c, 0, 88, 65
1, 31222, Note_on_c, 0, 38, 54
1, 31235, Note_off_c, 0, 86, 61
1, 31254, Note_on_c, 0, 81, 73
1, 31285, Note_off_c, 0, 81, 62
1, 31333, Note_on_c, 0, 77, 68
1, 31380, Control_c, 0, 64, 20
1, 31394, Control_c, 0, 64, 32
1, 31398, Note_on_c, 0, 76, 66
1, 31401, Note_off_c, 0, 77, 60
1, 31409, Control_c, 0, 64, 41
1, 31424, Control_c, 0, 64, 52
1, 31435, Note_off_c, 0, 76, 62
1, 31437, Note_on_c, 0, 74, 68
1, 31439, Control_c, 0, 64, 58
1, 31454, Control_c, 0, 64, 60
1, 31468, Control_c, 0, 64, 61
1, 31469, Note_off_c, 0, 74, 63
1, 31471, Note_off_c, 0, 45, 63
1, 31483, Control_c, 0, 64, 62
1, 31490, Note_on_c, 0, 69, 71
1, 31498, Control_c, 0, 64, 63
1, 31516, Note_off_c, 0, 69, 70
1, 31561, Note_on_c, 0, 65, 73
1, 31632, Note_off_c, 0, 65, 66
1, 31635, Note_on_c, 0, 64, 62
1, 31654, Control_c, 0, 64, 62
1, 31668, Control_c, 0, 64, 58
1, 31681, Note_on_c, 0, 62, 68
1, 31683, Control_c, 0, 64, 34
1, 31686, Note_off_c, 0, 64, 61
1, 31698, Control_c, 0, 64, 0
1, 31702, Note_on_c, 0, 44, 66
1, 31704, Note_on_c, 0, 45, 64
1, 31715, Note_off_c, 0, 38, 41
1, 31726, Note_off_c, 0, 44, 61
1, 31728, Note_off_c, 0, 45, 66
1, 31733, Note_off_c, 0, 62, 61
1, 31748, Note_on_c, 0, 57, 64
1, 31782, Note_off_c, 0, 57, 63
1, 31828, Note_on_c, 0, 53, 62
1, 31887, Note_off_c, 0, 53, 64
1, 31895, Note_on_c, 0, 52, 63
1, 31934, Note_off_c, 0, 52, 67
1, 31946, Note_on_c, 0, 50, 58
1, 31969, Note_on_c, 0, 45, 65
1, 31984, Note_off_c, 0, 50, 66
1, 31993, Note_off_c, 0, 45, 60
1, 32036, Note_on_c, 0, 45, 58
1, 32088, Note_off_c, 0, 45, 63
1, 32103, Note_on_c, 0, 50, 57
1, 32143, Note_on_c, 0, 53, 62
1, 32146, Note_off_c, 0, 50, 65
1, 32222, Note_on_c, 0, 52, 62
1, 32225, Note_on_c, 0, 37, 80
1, 32225, Note_off_c, 0, 53, 61
1, 32226, Note_on_c, 0, 25, 63
1, 32247, Control_c, 0, 64, 11
1, 32248, Note_off_c, 0, 37, 67
1, 32254, Note_off_c, 0, 25, 55
1, 32261, Control_c, 0, 64, 30
1, 32275, Note_off_c, 0, 52, 61
1, 32276, Control_c, 0, 64, 41
1, 32291, Control_c, 0, 64, 50
1, 32292, Note_on_c, 0, 45, 55
1, 32306, Control_c, 0, 64, 54
1, 32321, Control_c, 0, 64, 55
1, 32325, Note_off_c, 0, 45, 64
1, 32358, Control_c, 0, 64, 55
1, 32366, Note_on_c, 0, 52, 59
1, 32417, Control_c, 0, 64, 55
1, 32436, Note_on_c, 0, 53, 57
1, 32443, Note_off_c, 0, 52, 60
1, 32447, Control_c, 0, 64, 52
1, 32462, Control_c, 0, 64, 45
1, 32476, Control_c, 0, 64, 24
1, 32479, Note_off_c, 0, 53, 66
1, 32490, Note_on_c, 0, 55, 42
1, 32490, Note_on_c, 0, 46, 71
1, 32491, Control_c, 0, 64, 0
1, 32523, Note_off_c, 0, 55, 49
1, 32562, Note_on_c, 0, 57, 64
1, 32580, Control_c, 0, 64, 18
1, 32595, Control_c, 0, 64, 24
1, 32610, Control_c, 0, 64, 27
1, 32616, Note_off_c, 0, 57, 52
1, 32626, Control_c, 0, 64, 28
1, 32640, Control_c, 0, 64, 26
1, 32642, Note_on_c, 0, 64, 53
1, 32655, Control_c, 0, 64, 12
1, 32670, Control_c, 0, 64, 0
1, 32700, Note_on_c, 0, 65, 56
1, 32720, Note_off_c, 0, 64, 60
1, 32724, Note_on_c, 0, 45, 62
1, 32748, Note_on_c, 0, 67, 49
1, 32749, Note_off_c, 0, 65, 65
1, 32756, Note_off_c, 0, 46, 65
1, 32767, Note_on_c, 0, 52, 80
1, 32771, Note_off_c, 0, 67, 60
1, 32774, Control_c, 0, 64, 23
1, 32774, Note_off_c, 0, 45, 62
1, 32789, Control_c, 0, 64, 38
1, 32790, Note_off_c, 0, 52, 71
1, 32803, Control_c, 0, 64, 49
1, 32818, Control_c, 0, 64, 56
1, 32827, Note_on_c, 0, 69, 65
1, 32833, Control_c, 0, 64, 59
1, 32866, Note_off_c, 0, 69, 56
1, 32878, Control_c, 0, 64, 60
1, 32887, Note_on_c, 0, 76, 69
1, 32892, Control_c, 0, 64, 61
1, 32907, Control_c, 0, 64, 64
1, 32922, Control_c, 0, 64, 65
1, 32955, Note_on_c, 0, 77, 64
1, 32966, Control_c, 0, 64, 66
1, 32979, Note_off_c, 0, 76, 62
1, 32981, Control_c, 0, 64, 67
1, 32996, Control_c, 0, 64, 69
1, 33011, Control_c, 0, 64, 71
1, 33012, Note_on_c, 0, 79, 62
1, 33018, Note_on_c, 0, 58, 93
1, 33022, Note_off_c, 0, 77, 62
1, 33026, Control_c, 0, 64, 72
1, 33039, Note_off_c, 0, 79, 66
1, 33040, Control_c, 0, 64, 74
1, 33045, Note_off_c, 0, 58, 67
1, 33055, Control_c, 0, 64, 78
1, 33071, Control_c, 0, 64, 82
1, 33093, Control_c, 0, 64, 83
1, 33106, Note_on_c, 0, 81, 68
1, 33137, Control_c, 0, 64, 84
1, 33170, Note_on_c, 0, 88, 73
1, 33173, Note_off_c, 0, 81, 61
1, 33175, Note_on_c, 0, 44, 43
1, 33210, Note_off_c, 0, 44, 51
1, 33242, Note_on_c, 0, 89, 71
1, 33251, Note_on_c, 0, 45, 77
1, 33265, Note_off_c, 0, 88, 55
1, 33271, Control_c, 0, 64, 82
1, 33286, Control_c, 0, 64, 70
1, 33294, Note_on_c, 0, 42, 38
1, 33300, Control_c, 0, 64, 52
1, 33301, Note_on_c, 0, 91, 77
1, 33311, Note_off_c, 0, 89, 66
1, 33313, Note_on_c, 0, 57, 94
1, 33315, Control_c, 0, 64, 0
1, 33324, Note_off_c, 0, 42, 49
1, 33370, Note_off_c, 0, 45, 0
1, 33370, Note_on_c, 0, 45, 6
1, 33373, Note_on_c, 0, 89, 72
1, 33406, Note_off_c, 0, 91, 59
1, 33420, Control_c, 0, 64, 23
1, 33434, Note_on_c, 0, 88, 76
1, 33435, Control_c, 0, 64, 41
1, 33450, Control_c, 0, 64, 53
1, 33455, Note_off_c, 0, 89, 63
1, 33464, Control_c, 0, 64, 62
1, 33479, Control_c, 0, 64, 66
1, 33481, Note_off_c, 0, 57, 62
1, 33488, Note_on_c, 0, 81, 85
1, 33488, Note_off_c, 0, 88, 66
1, 33494, Control_c, 0, 64, 68
1, 33509, Control_c, 0, 64, 73
1, 33510, Note_off_c, 0, 45, 47
1, 33523, Control_c, 0, 64, 78
1, 33537, Note_off_c, 0, 81, 63
1, 33538, Control_c, 0, 64, 80
1, 33553, Control_c, 0, 64, 81
1, 33565, Note_on_c, 0, 79, 78
1, 33568, Control_c, 0, 64, 82
1, 33583, Control_c, 0, 64, 83
1, 33597, Control_c, 0, 64, 84
1, 33612, Control_c, 0, 64, 84
1, 33623, Note_on_c, 0, 77, 78
1, 33627, Control_c, 0, 64, 85
1, 33638, Note_off_c, 0, 79, 64
1, 33667, Note_on_c, 0, 76, 79
1, 33685, Note_off_c, 0, 77, 61
1, 33701, Control_c, 0, 64, 85
1, 33716, Control_c, 0, 64, 86
1, 33716, Note_off_c, 0, 76, 66
1, 33728, Note_on_c, 0, 69, 75
1, 33731, Control_c, 0, 64, 86
1, 33745, Control_c, 0, 64, 87
1, 33772, Note_off_c, 0, 69, 61
1, 33775, Control_c, 0, 64, 83
1, 33790, Control_c, 0, 64, 64
1, 33801, Note_on_c, 0, 67, 76
1, 33803, Note_on_c, 0, 45, 56
1, 33805, Control_c, 0, 64, 33
1, 33806, Note_on_c, 0, 44, 52
1, 33820, Control_c, 0, 64, 0
1, 33827, Note_off_c, 0, 45, 60
1, 33844, Note_off_c, 0, 44, 34
1, 33868, Note_off_c, 0, 67, 65
1, 33870, Note_on_c, 0, 65, 70
1, 33909, Note_on_c, 0, 64, 69
1, 33921, Note_off_c, 0, 65, 64
1, 33955, Note_off_c, 0, 64, 59
1, 33970, Note_on_c, 0, 57, 72
1, 34011, Note_off_c, 0, 57, 63
1, 34041, Note_on_c, 0, 45, 63
1, 34047, Note_on_c, 0, 55, 66
1, 34066, Note_off_c, 0, 45, 62
1, 34094, Note_off_c, 0, 55, 67
1, 34112, Note_on_c, 0, 53, 51
1, 34144, Note_on_c, 0, 52, 73
1, 34149, Note_off_c, 0, 53, 65
1, 34190, Note_off_c, 0, 52, 66
1, 34222, Note_on_c, 0, 45, 60
1, 34273, Note_off_c, 0, 45, 61
1, 34282, Note_on_c, 0, 37, 81
1, 34286, Note_on_c, 0, 25, 60
1, 34301, Control_c, 0, 64, 21
1, 34303, Note_off_c, 0, 37, 67
1, 34305, Note_on_c, 0, 52, 67
1, 34314, Note_off_c, 0, 25, 52
1, 34316, Control_c, 0, 64, 33
1, 34330, Control_c, 0, 64, 42
1, 34345, Control_c, 0, 64, 49
1, 34357, Note_on_c, 0, 53, 62
1, 34360, Control_c, 0, 64, 53
1, 34375, Control_c, 0, 64, 54
1, 34386, Note_off_c, 0, 52, 64
1, 34420, Note_on_c, 0, 55, 47
1, 34421, Note_off_c, 0, 53, 65
1, 34449, Note_off_c, 0, 55, 55
1, 34464, Control_c, 0, 64, 54
1, 34479, Control_c, 0, 64, 54
1, 34489, Note_on_c, 0, 57, 69
1, 34494, Control_c, 0, 64, 51
1, 34509, Control_c, 0, 64, 41
1, 34523, Control_c, 0, 64, 9
1, 34538, Control_c, 0, 64, 0
1, 34554, Note_off_c, 0, 57, 54
1, 34555, Note_on_c, 0, 46, 61
1, 34562, Note_on_c, 0, 64, 61
1, 34634, Note_on_c, 0, 65, 55
1, 34634, Control_c, 0, 64, 14
1, 34649, Control_c, 0, 64, 27
1, 34664, Control_c, 0, 64, 35
1, 34665, Note_off_c, 0, 64, 62
1, 34678, Control_c, 0, 64, 42
1, 34684, Note_on_c, 0, 67, 57
1, 34693, Control_c, 0, 64, 48
1, 34698, Note_off_c, 0, 65, 66
1, 34708, Control_c, 0, 64, 52
1, 34714, Note_off_c, 0, 67, 67
1, 34738, Control_c, 0, 64, 42
1, 34753, Control_c, 0, 64, 0
1, 34756, Note_on_c, 0, 45, 63
1, 34759, Note_off_c, 0, 46, 65
1, 34765, Note_on_c, 0, 69, 68
1, 34800, Note_off_c, 0, 69, 63
1, 34823, Note_on_c, 0, 55, 79
1, 34828, Note_on_c, 0, 76, 68
1, 34871, Control_c, 0, 64, 23
1, 34882, Note_on_c, 0, 77, 66
1, 34886, Control_c, 0, 64, 32
1, 34901, Control_c, 0, 64, 40
1, 34916, Control_c, 0, 64, 46
1, 34919, Note_off_c, 0, 76, 63
1, 34931, Control_c, 0, 64, 51
1, 34941, Note_on_c, 0, 79, 64
1, 34945, Control_c, 0, 64, 54
1, 34954, Note_off_c, 0, 77, 63
1, 34960, Control_c, 0, 64, 55
1, 34962, Note_off_c, 0, 55, 61
1, 34968, Note_off_c, 0, 79, 67
1, 34975, Control_c, 0, 64, 58
1, 34990, Control_c, 0, 64, 60
1, 35005, Control_c, 0, 64, 61
1, 35015, Note_off_c, 0, 45, 63
1, 35018, Note_on_c, 0, 81, 83
1, 35021, Control_c, 0, 64, 62
1, 35035, Control_c, 0, 64, 62
1, 35065, Control_c, 0, 64, 63
1, 35072, Note_on_c, 0, 52, 76
1, 35080, Control_c, 0, 64, 64
1, 35081, Note_off_c, 0, 81, 61
1, 35084, Note_on_c, 0, 88, 80
1, 35094, Control_c, 0, 64, 64
1, 35109, Control_c, 0, 64, 65
1, 35148, Note_on_c, 0, 89, 73
1, 35179, Note_off_c, 0, 88, 64
1, 35182, Note_off_c, 0, 52, 47
1, 35207, Note_on_c, 0, 91, 81
1, 35216, Note_off_c, 0, 89, 67
1, 35227, Note_on_c, 0, 40, 69
1, 35242, Control_c, 0, 64, 65
1, 35260, Note_off_c, 0, 40, 64
1, 35275, Note_on_c, 0, 89, 77
1, 35301, Control_c, 0, 64, 64
1, 35316, Control_c, 0, 64, 53
1, 35326, Note_on_c, 0, 45, 85
1, 35326, Note_on_c, 0, 88, 83
1, 35326, Note_off_c, 0, 91, 55
1, 35327, Note_on_c, 0, 37, 85
1, 35339, Control_c, 0, 64, 0
1, 35353, Note_off_c, 0, 89, 67
1, 35385, Note_off_c, 0, 88, 67
1, 35392, Note_on_c, 0, 81, 79
1, 35439, Note_off_c, 0, 81, 61
1, 35442, Control_c, 0, 64, 25
1, 35457, Control_c, 0, 64, 36
1, 35472, Control_c, 0, 64, 46
1, 35477, Note_on_c, 0, 79, 76
1, 35486, Control_c, 0, 64, 54
1, 35501, Control_c, 0, 64, 59
1, 35516, Control_c, 0, 64, 61
1, 35531, Control_c, 0, 64, 61
1, 35532, Note_on_c, 0, 77, 71
1, 35546, Note_off_c, 0, 79, 65
1, 35546, Control_c, 0, 64, 63
1, 35561, Control_c, 0, 64, 65
1, 35576, Control_c, 0, 64, 67
1, 35576, Note_on_c, 0, 76, 77
1, 35591, Control_c, 0, 64, 68
1, 35596, Note_off_c, 0, 77, 62
1, 35609, Note_off_c, 0, 45, 60
1, 35626, Note_off_c, 0, 76, 65
1, 35635, Control_c, 0, 64, 69
1, 35637, Note_on_c, 0, 69, 75
1, 35650, Control_c, 0, 64, 69
1, 35665, Control_c, 0, 64, 70
1, 35680, Control_c, 0, 64, 70
1, 35687, Note_off_c, 0, 69, 61
1, 35719, Note_on_c, 0, 67, 73
1, 35719, Note_off_c, 0, 37, 54
1, 35739, Control_c, 0, 64, 71
1, 35781, Note_on_c, 0, 65, 73
1, 35783, Control_c, 0, 64, 71
1, 35784, Note_off_c, 0, 67, 65
1, 35824, Note_on_c, 0, 64, 75
1, 35828, Note_on_c, 0, 45, 80
1, 35829, Control_c, 0, 64, 66
1, 35831, Note_on_c, 0, 44, 72
1, 35844, Control_c, 0, 64, 47
1, 35850, Note_off_c, 0, 65, 65
1, 35854, Note_off_c, 0, 45, 65
1, 35858, Control_c, 0, 64, 0
1, 35859, Note_off_c, 0, 44, 63
1, 35877, Note_off_c, 0, 64, 63
1, 35888, Note_on_c, 0, 57, 71
1, 35928, Note_off_c, 0, 57, 61
1, 35969, Note_on_c, 0, 55, 68
1, 36026, Note_on_c, 0, 53, 62
1, 36028, Note_off_c, 0, 55, 64
1, 36070, Note_on_c, 0, 52, 68
1, 36087, Note_off_c, 0, 53, 64
1, 36090, Note_on_c, 0, 45, 81
1, 36110, Note_off_c, 0, 45, 68
1, 36123, Note_off_c, 0, 52, 66
1, 36168, Note_on_c, 0, 45, 66
1, 36226, Note_off_c, 0, 45, 57
1, 36230, Note_on_c, 0, 52, 69
1, 36292, Note_on_c, 0, 55, 63
1, 36306, Note_off_c, 0, 52, 61
1, 36347, Note_on_c, 0, 54, 64
1, 36357, Note_on_c, 0, 36, 86
1, 36377, Note_off_c, 0, 55, 65
1, 36384, Control_c, 0, 64, 23
1, 36387, Note_off_c, 0, 36, 66
1, 36398, Control_c, 0, 64, 39
1, 36413, Control_c, 0, 64, 49
1, 36428, Control_c, 0, 64, 56
1, 36430, Note_on_c, 0, 45, 62
1, 36432, Note_off_c, 0, 54, 59
1, 36443, Control_c, 0, 64, 58
1, 36458, Control_c, 0, 64, 58
1, 36485, Note_on_c, 0, 51, 66
1, 36503, Control_c, 0, 64, 59
1, 36511, Note_off_c, 0, 45, 51
1, 36532, Control_c, 0, 64, 59
1, 36536, Note_on_c, 0, 52, 65
1, 36577, Control_c, 0, 64, 58
1, 36589, Note_off_c, 0, 51, 64
1, 36591, Control_c, 0, 64, 47
1, 36599, Note_on_c, 0, 54, 62
1, 36607, Control_c, 0, 64, 11
1, 36619, Note_off_c, 0, 52, 66
1, 36622, Control_c, 0, 64, 0
1, 36638, Note_on_c, 0, 47, 94
1, 36640, Note_off_c, 0, 54, 67
1, 36666, Control_c, 0, 64, 22
1, 36681, Control_c, 0, 64, 36
1, 36696, Control_c, 0, 64, 45
1, 36697, Note_on_c, 0, 57, 66
1, 36711, Control_c, 0, 64, 54
1, 36726, Control_c, 0, 64, 58
1, 36740, Control_c, 0, 64, 59
1, 36763, Note_on_c, 0, 63, 69
1, 36766, Note_off_c, 0, 57, 57
1, 36770, Control_c, 0, 64, 59
1, 36785, Control_c, 0, 64, 58
1, 36800, Control_c, 0, 64, 57
1, 36813, Note_on_c, 0, 64, 68
1, 36815, Control_c, 0, 64, 51
1, 36837, Control_c, 0, 64, 28
1, 36842, Note_on_c, 0, 45, 78
1, 36852, Control_c, 0, 64, 0
1, 36857, Note_off_c, 0, 47, 61
1, 36875, Note_off_c, 0, 63, 64
1, 36884, Note_on_c, 0, 66, 66
1, 36887, Note_on_c, 0, 48, 94
1, 36901, Note_off_c, 0, 64, 63
1, 36903, Note_off_c, 0, 45, 64
1, 36914, Note_off_c, 0, 66, 66
1, 36920, Note_off_c, 0, 48, 69
1, 36926, Control_c, 0, 64, 11
1, 36941, Control_c, 0, 64, 34
1, 36956, Control_c, 0, 64, 47
1, 36968, Note_on_c, 0, 69, 82
1, 36971, Control_c, 0, 64, 60
1, 36986, Control_c, 0, 64, 63
1, 37001, Control_c, 0, 64, 64
1, 37033, Note_on_c, 0, 75, 80
1, 37036, Note_off_c, 0, 69, 62
1, 37045, Control_c, 0, 64, 64
1, 37059, Control_c, 0, 64, 67
1, 37074, Control_c, 0, 64, 71
1, 37084, Note_on_c, 0, 76, 74
1, 37089, Control_c, 0, 64, 72
1, 37119, Control_c, 0, 64, 69
1, 37133, Control_c, 0, 64, 60
1, 37148, Note_off_c, 0, 75, 62
1, 37148, Control_c, 0, 64, 40
1, 37151, Note_on_c, 0, 78, 77
1, 37162, Note_on_c, 0, 60, 97
1, 37163, Control_c, 0, 64, 0
1, 37173, Note_off_c, 0, 76, 66
1, 37178, Control_c, 0, 64, 12
1, 37193, Control_c, 0, 64, 26
1, 37197, Note_off_c, 0, 78, 65
1, 37207, Control_c, 0, 64, 35
1, 37222, Control_c, 0, 64, 45
1, 37237, Control_c, 0, 64, 56
1, 37244, Note_on_c, 0, 81, 87
1, 37252, Control_c, 0, 64, 64
1, 37266, Control_c, 0, 64, 67
1, 37281, Control_c, 0, 64, 68
1, 37296, Control_c, 0, 64, 69
1, 37311, Note_off_c, 0, 60, 66
1, 37311, Note_on_c, 0, 87, 83
1, 37311, Control_c, 0, 64, 71
1, 37320, Note_off_c, 0, 81, 58
1, 37326, Control_c, 0, 64, 73
1, 37340, Control_c, 0, 64, 74
1, 37355, Control_c, 0, 64, 73
1, 37367, Note_on_c, 0, 88, 69
1, 37370, Control_c, 0, 64, 66
1, 37385, Control_c, 0, 64, 51
1, 37400, Control_c, 0, 64, 0
1, 37401, Note_off_c, 0, 87, 64
1, 37412, Note_on_c, 0, 90, 77
1, 37424, Note_on_c, 0, 59, 90
1, 37424, Note_off_c, 0, 88, 65
1, 37427, Note_on_c, 0, 47, 87
1, 37448, Note_off_c, 0, 47, 69
1, 37449, Note_off_c, 0, 59, 67
1, 37475, Control_c, 0, 64, 24
1, 37481, Note_on_c, 0, 88, 76
1, 37489, Control_c, 0, 64, 39
1, 37504, Control_c, 0, 64, 52
1, 37519, Note_off_c, 0, 90, 67
1, 37519, Control_c, 0, 64, 61
1, 37534, Control_c, 0, 64, 63
1, 37551, Note_off_c, 0, 88, 67
1, 37556, Note_on_c, 0, 87, 79
1, 37586, Control_c, 0, 64, 63
1, 37599, Note_off_c, 0, 87, 65
1, 37601, Control_c, 0, 64, 65
1, 37616, Control_c, 0, 64, 68
1, 37630, Note_on_c, 0, 96, 66
1, 37631, Control_c, 0, 64, 69
1, 37642, Note_on_c, 0, 97, 54
1, 37656, Note_off_c, 0, 96, 63
1, 37665, Note_off_c, 0, 97, 42
1, 37701, Note_on_c, 0, 66, 62
1, 37702, Note_on_c, 0, 90, 82
1, 37742, Note_on_c, 0, 68, 60
1, 37758, Note_on_c, 0, 88, 66
1, 37778, Note_off_c, 0, 66, 61
1, 37779, Control_c, 0, 64, 68
1, 37783, Note_on_c, 0, 89, 39
1, 37793, Control_c, 0, 64, 59
1, 37799, Note_on_c, 0, 69, 54
1, 37806, Note_on_c, 0, 87, 76
1, 37808, Control_c, 0, 64, 0
1, 37813, Note_off_c, 0, 89, 33
1, 37814, Note_off_c, 0, 90, 63
1, 37822, Note_on_c, 0, 78, 79
1, 37823, Note_off_c, 0, 68, 60
1, 37832, Note_off_c, 0, 88, 65
1, 37841, Note_off_c, 0, 78, 73
1, 37854, Note_on_c, 0, 81, 70
1, 37865, Note_off_c, 0, 87, 65
1, 37908, Note_on_c, 0, 89, 75
1, 37908, Note_off_c, 0, 69, 58
1, 37924, Note_off_c, 0, 81, 62
1, 37927, Note_on_c, 0, 65, 65
1, 37976, Note_on_c, 0, 66, 63
1, 37984, Note_on_c, 0, 87, 75
1, 37998, Note_off_c, 0, 65, 65
1, 38023, Note_off_c, 0, 89, 64
1, 38028, Note_on_c, 0, 68, 71
1, 38030, Control_c, 0, 64, 8
1, 38032, Note_off_c, 0, 66, 63
1, 38033, Note_on_c, 0, 86, 78
1, 38045, Control_c, 0, 64, 27
1, 38053, Note_off_c, 0, 87, 67
1, 38059, Note_off_c, 0, 68, 64
1, 38060, Control_c, 0, 64, 37
1, 38075, Note_off_c, 0, 86, 63
1, 38075, Control_c, 0, 64, 43
1, 38081, Note_on_c, 0, 95, 92
1, 38085, Note_on_c, 0, 59, 75
1, 38089, Control_c, 0, 64, 50
1, 38104, Control_c, 0, 64, 56
1, 38108, Note_off_c, 0, 59, 69
1, 38119, Control_c, 0, 64, 60
1, 38134, Control_c, 0, 64, 62
1, 38149, Control_c, 0, 64, 64
1, 38151, Note_on_c, 0, 89, 81
1, 38158, Note_off_c, 0, 95, 62
1, 38163, Control_c, 0, 64, 65
1, 38178, Control_c, 0, 64, 68
1, 38187, Note_on_c, 0, 65, 62
1, 38193, Control_c, 0, 64, 70
1, 38205, Note_on_c, 0, 87, 86
1, 38208, Note_on_c, 0, 66, 73
1, 38209, Control_c, 0, 64, 73
1, 38220, Note_off_c, 0, 65, 67
1, 38224, Control_c, 0, 64, 75
1, 38237, Note_off_c, 0, 89, 51
1, 38239, Control_c, 0, 64, 79
1, 38240, Note_on_c, 0, 68, 65
1, 38253, Control_c, 0, 64, 81
1, 38262, Note_on_c, 0, 86, 81
1, 38268, Control_c, 0, 64, 83
1, 38269, Note_on_c, 0, 77, 73
1, 38280, Note_off_c, 0, 66, 61
1, 38283, Control_c, 0, 64, 83
1, 38292, Note_off_c, 0, 77, 69
1, 38306, Note_off_c, 0, 87, 46
1, 38306, Note_off_c, 0, 68, 61
1, 38312, Control_c, 0, 64, 71
1, 38319, Note_on_c, 0, 80, 86
1, 38334, Control_c, 0, 64, 49
1, 38342, Note_off_c, 0, 86, 57
1, 38349, Control_c, 0, 64, 0
1, 38378, Note_on_c, 0, 58, 90
1, 38396, Note_off_c, 0, 80, 61
1, 38397, Note_on_c, 0, 89, 71
1, 38409, Note_off_c, 0, 58, 61
1, 38423, Control_c, 0, 64, 14
1, 38438, Control_c, 0, 64, 31
1, 38453, Control_c, 0, 64, 44
1, 38467, Control_c, 0, 64, 54
1, 38468, Note_on_c, 0, 87, 74
1, 38482, Control_c, 0, 64, 59
1, 38497, Control_c, 0, 64, 60
1, 38509, Note_off_c, 0, 89, 63
1, 38512, Control_c, 0, 64, 61
1, 38524, Note_on_c, 0, 86, 76
1, 38527, Control_c, 0, 64, 62
1, 38542, Control_c, 0, 64, 65
1, 38557, Control_c, 0, 64, 67
1, 38572, Control_c, 0, 64, 69
1, 38580, Note_on_c, 0, 94, 83
1, 38581, Note_off_c, 0, 86, 63
1, 38586, Control_c, 0, 64, 71
1, 38587, Note_off_c, 0, 87, 57
1, 38601, Control_c, 0, 64, 74
1, 38616, Control_c, 0, 64, 78
1, 38619, Note_on_c, 0, 70, 97
1, 38624, Note_on_c, 0, 58, 88
1, 38630, Control_c, 0, 64, 84
1, 38639, Note_on_c, 0, 90, 81
1, 38645, Control_c, 0, 64, 89
1, 38660, Control_c, 0, 64, 91
1, 38662, Note_off_c, 0, 70, 65
1, 38673, Note_off_c, 0, 94, 66
1, 38675, Control_c, 0, 64, 94
1, 38690, Control_c, 0, 64, 99
1, 38694, Note_on_c, 0, 87, 78
1, 38704, Control_c, 0, 64, 103
1, 38714, Note_off_c, 0, 90, 68
1, 38719, Control_c, 0, 64, 110
1, 38734, Control_c, 0, 64, 127
1, 38767, Note_on_c, 0, 86, 68
1, 38783, Note_off_c, 0, 58, 60
1, 38789, Note_off_c, 0, 87, 58
1, 38792, Note_off_c, 0, 86, 67
1, 38794, Note_on_c, 0, 80, 84
1, 38804, Note_on_c, 0, 53, 75
1, 38807, Note_on_c, 0, 65, 72
1, 38824, Note_off_c, 0, 65, 71
1, 38829, Note_off_c, 0, 53, 69
1, 38834, Note_off_c, 0, 80, 65
1, 38852, Control_c, 0, 64, 77
1, 38867, Control_c, 0, 64, 57
1, 38882, Control_c, 0, 64, 29
1, 38893, Note_on_c, 0, 58, 93
1, 38896, Note_on_c, 0, 77, 70
1, 38896, Note_on_c, 0, 46, 92
1, 38897, Control_c, 0, 64, 31
1, 38911, Control_c, 0, 64, 42
1, 38926, Control_c, 0, 64, 48
1, 38941, Control_c, 0, 64, 54
1, 38956, Control_c, 0, 64, 61
1, 38965, Note_on_c, 0, 76, 77
1, 38971, Control_c, 0, 64, 69
1, 38986, Control_c, 0, 64, 76
1, 38988, Note_on_c, 0, 75, 85
1, 38992, Note_off_c, 0, 77, 62
1, 39001, Control_c, 0, 64, 78
1, 39010, Note_off_c, 0, 58, 60
1, 39016, Control_c, 0, 64, 81
1, 39017, Note_off_c, 0, 76, 63
1, 39031, Note_off_c, 0, 75, 65
1, 39031, Control_c, 0, 64, 88
1, 39046, Control_c, 0, 64, 101
1, 39050, Note_on_c, 0, 74, 61
1, 39060, Control_c, 0, 64, 127
1, 39063, Note_on_c, 0, 68, 93
1, 39069, Note_off_c, 0, 74, 67
1, 39108, Note_off_c, 0, 68, 62
1, 39113, Control_c, 0, 64, 81
1, 39128, Control_c, 0, 64, 54
1, 39142, Control_c, 0, 64, 0
1, 39159, Note_on_c, 0, 53, 94
1, 39162, Note_on_c, 0, 41, 86
1, 39168, Note_off_c, 0, 46, 61
1, 39172, Note_on_c, 0, 65, 77
1, 39183, Note_off_c, 0, 53, 69
1, 39202, Control_c, 0, 64, 27
1, 39204, Note_off_c, 0, 41, 64
1, 39216, Control_c, 0, 64, 44
1, 39218, Note_on_c, 0, 63, 82
1, 39231, Control_c, 0, 64, 60
1, 39246, Control_c, 0, 64, 73
1, 39260, Control_c, 0, 64, 80
1, 39267, Note_off_c, 0, 65, 44
1, 39274, Note_on_c, 0, 62, 86
1, 39290, Control_c, 0, 64, 80
1, 39305, Control_c, 0, 64, 83
1, 39320, Control_c, 0, 64, 87
1, 39321, Note_off_c, 0, 63, 56
1, 39335, Control_c, 0, 64, 90
1, 39357, Note_on_c, 0, 58, 73
1, 39364, Note_off_c, 0, 62, 62
1, 39364, Control_c, 0, 64, 89
1, 39379, Control_c, 0, 64, 72
1, 39384, Note_on_c, 0, 57, 59
1, 39394, Control_c, 0, 64, 52
1, 39403, Note_off_c, 0, 57, 63
1, 39405, Note_off_c, 0, 58, 62
1, 39409, Control_c, 0, 64, 0
1, 39427, Note_on_c, 0, 46, 98
1, 39429, Note_on_c, 0, 34, 79
1, 39451, Note_off_c, 0, 34, 69
1, 39467, Note_off_c, 0, 46, 66
1, 39468, Control_c, 0, 64, 28
1, 39483, Control_c, 0, 64, 46
1, 39498, Control_c, 0, 64, 60
1, 39513, Control_c, 0, 64, 71
1, 39527, Control_c, 0, 64, 74
1, 39587, Control_c, 0, 64, 74
1, 39601, Control_c, 0, 64, 73
1, 39616, Control_c, 0, 64, 72
1, 39631, Control_c, 0, 64, 71
1, 39646, Control_c, 0, 64, 70
1, 39660, Control_c, 0, 64, 68
1, 39675, Control_c, 0, 64, 66
1, 39690, Control_c, 0, 64, 63
1, 39705, Control_c, 0, 64, 60
1, 39720, Control_c, 0, 64, 55
1, 39734, Control_c, 0, 64, 46
1, 39749, Control_c, 0, 64, 23
1, 39764, Control_c, 0, 64, 0
1, 39821, Note_on_c, 0, 89, 68
1, 39851, Note_on_c, 0, 65, 53
1, 39875, Note_on_c, 0, 87, 76
1, 39901, Note_off_c, 0, 65, 63
1, 39907, Control_c, 0, 64, 29
1, 39907, Note_on_c, 0, 67, 50
1, 39913, Note_off_c, 0, 89, 59
1, 39922, Control_c, 0, 64, 42
1, 39936, Note_on_c, 0, 86, 74
1, 39937, Control_c, 0, 64, 54
1, 39937, Note_on_c, 0, 68, 59
1, 39943, Note_off_c, 0, 67, 66
1, 39952, Control_c, 0, 64, 60
1, 39961, Note_off_c, 0, 87, 61
1, 39966, Control_c, 0, 64, 61
1, 39967, Note_on_c, 0, 77, 61
1, 39981, Control_c, 0, 64, 62
1, 39987, Note_on_c, 0, 80, 81
1, 39987, Note_off_c, 0, 77, 65
1, 39996, Control_c, 0, 64, 65
1, 39996, Note_off_c, 0, 86, 61
1, 40003, Note_off_c, 0, 68, 58
1, 40011, Control_c, 0, 64, 67
1, 40026, Control_c, 0, 64, 70
1, 40032, Note_off_c, 0, 80, 62
1, 40040, Control_c, 0, 64, 67
1, 40044, Note_on_c, 0, 88, 84
1, 40049, Note_on_c, 0, 64, 66
1, 40055, Control_c, 0, 64, 56
1, 40070, Control_c, 0, 64, 22
1, 40084, Control_c, 0, 64, 0
1, 40099, Note_on_c, 0, 65, 59
1, 40112, Note_off_c, 0, 64, 64
1, 40115, Note_on_c, 0, 86, 74
1, 40123, Note_on_c, 0, 67, 62
1, 40123, Note_off_c, 0, 65, 67
1, 40129, Control_c, 0, 64, 18
1, 40144, Control_c, 0, 64, 37
1, 40145, Note_on_c, 0, 85, 76
1, 40150, Note_off_c, 0, 67, 67
1, 40150, Note_off_c, 0, 88, 66
1, 40158, Control_c, 0, 64, 53
1, 40172, Note_off_c, 0, 86, 62
1, 40173, Control_c, 0, 64, 66
1, 40184, Note_on_c, 0, 58, 75
1, 40188, Control_c, 0, 64, 76
1, 40191, Note_off_c, 0, 85, 66
1, 40193, Note_on_c, 0, 94, 86
1, 40202, Note_off_c, 0, 58, 66
1, 40203, Control_c, 0, 64, 76
1, 40232, Control_c, 0, 64, 77
1, 40240, Note_off_c, 0, 94, 68
1, 40247, Control_c, 0, 64, 78
1, 40262, Control_c, 0, 64, 79
1, 40267, Note_on_c, 0, 88, 79
1, 40268, Note_on_c, 0, 64, 70
1, 40273, Note_on_c, 0, 93, 49
1, 40277, Control_c, 0, 64, 80
1, 40291, Control_c, 0, 64, 80
1, 40301, Note_off_c, 0, 93, 54
1, 40306, Control_c, 0, 64, 81
1, 40321, Control_c, 0, 64, 83
1, 40329, Note_on_c, 0, 86, 78
1, 40332, Note_on_c, 0, 65, 54
1, 40336, Control_c, 0, 64, 85
1, 40348, Note_off_c, 0, 64, 57
1, 40351, Control_c, 0, 64, 86
1, 40353, Note_off_c, 0, 88, 66
1, 40360, Note_on_c, 0, 67, 63
1, 40368, Note_off_c, 0, 65, 63
1, 40384, Note_on_c, 0, 85, 83
1, 40396, Control_c, 0, 64, 86
1, 40410, Control_c, 0, 64, 87
1, 40414, Note_on_c, 0, 76, 40
1, 40416, Note_off_c, 0, 67, 64
1, 40426, Note_off_c, 0, 86, 61
1, 40444, Note_on_c, 0, 79, 81
1, 40444, Note_off_c, 0, 76, 59
1, 40454, Note_off_c, 0, 85, 65
1, 40455, Control_c, 0, 64, 77
1, 40470, Control_c, 0, 64, 57
1, 40484, Control_c, 0, 64, 0
1, 40506, Note_off_c, 0, 79, 60
1, 40512, Note_on_c, 0, 57, 81
1, 40518, Note_on_c, 0, 88, 82
1, 40581, Control_c, 0, 64, 25
1, 40587, Note_on_c, 0, 86, 72
1, 40595, Note_off_c, 0, 57, 54
1, 40596, Control_c, 0, 64, 41
1, 40611, Control_c, 0, 64, 54
1, 40625, Note_off_c, 0, 88, 64
1, 40626, Control_c, 0, 64, 61
1, 40641, Control_c, 0, 64, 62
1, 40652, Note_on_c, 0, 85, 70
1, 40655, Note_off_c, 0, 86, 63
1, 40670, Control_c, 0, 64, 63
1, 40685, Control_c, 0, 64, 64
1, 40695, Note_on_c, 0, 93, 79
1, 40697, Note_off_c, 0, 85, 64
1, 40700, Control_c, 0, 64, 67
1, 40715, Control_c, 0, 64, 70
1, 40730, Control_c, 0, 64, 72
1, 40745, Control_c, 0, 64, 76
1, 40756, Note_off_c, 0, 93, 56
1, 40759, Control_c, 0, 64, 83
1, 40764, Note_on_c, 0, 69, 82
1, 40769, Note_on_c, 0, 57, 72
1, 40772, Note_on_c, 0, 88, 80
1, 40774, Control_c, 0, 64, 90
1, 40783, Note_off_c, 0, 69, 72
1, 40789, Control_c, 0, 64, 94
1, 40791, Note_off_c, 0, 57, 67
1, 40804, Control_c, 0, 64, 95
1, 40819, Control_c, 0, 64, 96
1, 40824, Note_on_c, 0, 86, 73
1, 40833, Control_c, 0, 64, 97
1, 40848, Control_c, 0, 64, 100
1, 40863, Control_c, 0, 64, 103
1, 40867, Note_off_c, 0, 88, 66
1, 40878, Control_c, 0, 64, 105
1, 40881, Note_on_c, 0, 85, 78
1, 40907, Control_c, 0, 64, 105
1, 40916, Note_off_c, 0, 86, 59
1, 40922, Control_c, 0, 64, 108
1, 40937, Control_c, 0, 64, 110
1, 40939, Note_on_c, 0, 79, 83
1, 40939, Note_off_c, 0, 85, 64
1, 40952, Control_c, 0, 64, 111
1, 40956, Note_on_c, 0, 64, 34
1, 40962, Note_on_c, 0, 50, 51
1, 40966, Note_on_c, 0, 52, 40
1, 40981, Control_c, 0, 64, 85
1, 40987, Note_off_c, 0, 64, 53
1, 40988, Note_off_c, 0, 79, 65
1, 40991, Note_off_c, 0, 50, 54
1, 40996, Control_c, 0, 64, 58
1, 40998, Note_off_c, 0, 52, 55
1, 41011, Control_c, 0, 64, 19
1, 41024, Note_on_c, 0, 76, 85
1, 41026, Control_c, 0, 64, 0
1, 41036, Note_on_c, 0, 57, 91
1, 41040, Control_c, 0, 64, 24
1, 41052, Note_on_c, 0, 47, 56
1, 41055, Note_on_c, 0, 45, 49
1, 41055, Control_c, 0, 64, 34
1, 41070, Note_off_c, 0, 57, 62
1, 41070, Control_c, 0, 64, 43
1, 41081, Note_off_c, 0, 47, 64
1, 41084, Note_off_c, 0, 45, 57
1, 41085, Control_c, 0, 64, 56
1, 41094, Note_off_c, 0, 76, 66
1, 41095, Note_on_c, 0, 74, 77
1, 41099, Control_c, 0, 64, 65
1, 41114, Control_c, 0, 64, 74
1, 41129, Control_c, 0, 64, 76
1, 41139, Note_on_c, 0, 73, 83
1, 41144, Control_c, 0, 64, 77
1, 41159, Control_c, 0, 64, 80
1, 41174, Control_c, 0, 64, 88
1, 41174, Note_off_c, 0, 74, 61
1, 41189, Control_c, 0, 64, 95
1, 41204, Control_c, 0, 64, 99
1, 41206, Note_on_c, 0, 67, 81
1, 41208, Note_off_c, 0, 73, 66
1, 41219, Control_c, 0, 64, 100
1, 41248, Control_c, 0, 64, 99
1, 41260, Note_off_c, 0, 67, 66
1, 41263, Control_c, 0, 64, 82
1, 41278, Control_c, 0, 64, 58
1, 41290, Note_on_c, 0, 52, 94
1, 41293, Control_c, 0, 64, 18
1, 41295, Note_on_c, 0, 40, 90
1, 41296, Note_on_c, 0, 64, 81
1, 41307, Control_c, 0, 64, 0
1, 41309, Note_off_c, 0, 52, 76
1, 41330, Note_off_c, 0, 40, 68
1, 41344, Control_c, 0, 64, 24
1, 41359, Control_c, 0, 64, 37
1, 41370, Note_on_c, 0, 62, 78
1, 41374, Control_c, 0, 64, 53
1, 41388, Control_c, 0, 64, 65
1, 41404, Control_c, 0, 64, 79
1, 41419, Control_c, 0, 64, 83
1, 41428, Note_on_c, 0, 61, 85
1, 41434, Control_c, 0, 64, 83
1, 41449, Control_c, 0, 64, 85
1, 41458, Note_off_c, 0, 64, 60
1, 41463, Control_c, 0, 64, 88
1, 41472, Note_off_c, 0, 62, 62
1, 41478, Control_c, 0, 64, 97
1, 41493, Note_on_c, 0, 55, 84
1, 41493, Control_c, 0, 64, 102
1, 41508, Control_c, 0, 64, 99
1, 41523, Control_c, 0, 64, 73
1, 41525, Note_off_c, 0, 61, 65
1, 41538, Control_c, 0, 64, 51
1, 41552, Note_off_c, 0, 55, 67
1, 41552, Control_c, 0, 64, 0
1, 41586, Note_on_c, 0, 45, 94
1, 41588, Note_on_c, 0, 33, 84
1, 41597, Control_c, 0, 64, 17
1, 41611, Note_off_c, 0, 33, 67
1, 41612, Control_c, 0, 64, 40
1, 41616, Note_off_c, 0, 45, 67
1, 41627, Control_c, 0, 64, 57
1, 41642, Control_c, 0, 64, 72
1, 41656, Control_c, 0, 64, 87
1, 41760, Control_c, 0, 64, 87
1, 41952, Control_c, 0, 64, 86
1, 41967, Control_c, 0, 64, 75
1, 41982, Control_c, 0, 64, 56
1, 41988, Note_on_c, 0, 88, 97
1, 41997, Control_c, 0, 64, 0
1, 41997, Note_on_c, 0, 64, 86
1, 42077, Control_c, 0, 64, 9
1, 42077, Note_on_c, 0, 86, 80
1, 42088, Note_on_c, 0, 66, 79
1, 42092, Control_c, 0, 64, 35
1, 42104, Note_off_c, 0, 88, 63
1, 42107, Control_c, 0, 64, 51
1, 42122, Control_c, 0, 64, 64
1, 42129, Note_off_c, 0, 64, 62
1, 42136, Control_c, 0, 64, 76
1, 42137, Note_on_c, 0, 85, 88
1, 42151, Control_c, 0, 64, 83
1, 42161, Note_on_c, 0, 67, 68
1, 42166, Control_c, 0, 64, 87
1, 42175, Note_off_c, 0, 86, 59
1, 42180, Control_c, 0, 64, 89
1, 42181, Note_off_c, 0, 66, 63
1, 42195, Note_on_c, 0, 79, 86
1, 42195, Control_c, 0, 64, 89
1, 42204, Note_on_c, 0, 76, 64
1, 42212, Note_off_c, 0, 67, 60
1, 42214, Note_off_c, 0, 85, 63
1, 42217, Note_on_c, 0, 74, 46
1, 42222, Note_off_c, 0, 76, 67
1, 42241, Control_c, 0, 64, 80
1, 42241, Note_off_c, 0, 74, 60
1, 42256, Control_c, 0, 64, 67
1, 42271, Control_c, 0, 64, 54
1, 42275, Note_on_c, 0, 86, 70
1, 42275, Note_off_c, 0, 79, 54
1, 42280, Note_on_c, 0, 62, 58
1, 42282, Note_on_c, 0, 84, 75
1, 42283, Note_on_c, 0, 60, 60
1, 42285, Control_c, 0, 64, 34
1, 42300, Control_c, 0, 64, 30
1, 42315, Control_c, 0, 64, 38
1, 42321, Note_on_c, 0, 85, 78
1, 42329, Note_on_c, 0, 64, 63
1, 42330, Control_c, 0, 64, 47
1, 42341, Note_off_c, 0, 84, 41
1, 42342, Note_off_c, 0, 60, 44
1, 42345, Control_c, 0, 64, 55
1, 42349, Note_off_c, 0, 86, 61
1, 42359, Control_c, 0, 64, 59
1, 42366, Note_off_c, 0, 62, 39
1, 42371, Note_on_c, 0, 66, 73
1, 42374, Control_c, 0, 64, 63
1, 42379, Note_on_c, 0, 83, 76
1, 42389, Control_c, 0, 64, 66
1, 42399, Note_off_c, 0, 64, 63
1, 42404, Control_c, 0, 64, 69
1, 42412, Note_off_c, 0, 85, 62
1, 42419, Control_c, 0, 64, 73
1, 42429, Note_on_c, 0, 74, 79
1, 42433, Control_c, 0, 64, 77
1, 42438, Note_on_c, 0, 78, 86
1, 42443, Note_off_c, 0, 83, 66
1, 42448, Control_c, 0, 64, 80
1, 42450, Note_off_c, 0, 66, 60
1, 42463, Control_c, 0, 64, 81
1, 42468, Poly_aftertouch_c, 0, 65, 127
1, 42469, Note_off_c, 0, 74, 67
1, 42477, Control_c, 0, 64, 74
1, 42492, Control_c, 0, 64, 63
1, 42494, Note_on_c, 0, 85, 89
1, 42497, Poly_aftertouch_c, 0, 65, 0
1, 42500, Note_off_c, 0, 78, 68
1, 42504, Note_on_c, 0, 61, 82
1, 42507, Control_c, 0, 64, 47
1, 42522, Control_c, 0, 64, 0
1, 42551, Control_c, 0, 64, 11
1, 42558, Note_on_c, 0, 62, 59
1, 42566, Control_c, 0, 64, 22
1, 42570, Note_on_c, 0, 83, 63
1, 42581, Control_c, 0, 64, 31
1, 42596, Control_c, 0, 64, 39
1, 42605, Note_off_c, 0, 61, 63
1, 42608, Note_on_c, 0, 64, 67
1, 42611, Control_c, 0, 64, 50
1, 42618, Note_on_c, 0, 81, 83
1, 42620, Note_off_c, 0, 85, 61
1, 42626, Control_c, 0, 64, 57
1, 42631, Note_off_c, 0, 62, 62
1, 42637, Note_on_c, 0, 73, 74
1, 42640, Control_c, 0, 64, 60
1, 42653, Note_off_c, 0, 83, 64
1, 42655, Control_c, 0, 64, 62
1, 42659, Note_off_c, 0, 73, 70
1, 42670, Control_c, 0, 64, 62
1, 42672, Note_on_c, 0, 76, 80
1, 42674, Note_off_c, 0, 64, 62
1, 42679, Note_off_c, 0, 81, 64
1, 42700, Control_c, 0, 64, 59
1, 42715, Control_c, 0, 64, 46
1, 42730, Control_c, 0, 64, 0
1, 42733, Note_on_c, 0, 59, 62
1, 42738, Note_off_c, 0, 76, 66
1, 42741, Note_on_c, 0, 83, 82
1, 42800, Note_on_c, 0, 61, 67
1, 42803, Note_on_c, 0, 81, 81
1, 42825, Control_c, 0, 64, 16
1, 42831, Note_off_c, 0, 59, 61
1, 42840, Control_c, 0, 64, 30
1, 42846, Note_on_c, 0, 62, 68
1, 42852, Note_off_c, 0, 83, 64
1, 42855, Control_c, 0, 64, 38
1, 42870, Control_c, 0, 64, 46
1, 42873, Note_on_c, 0, 79, 75
1, 42875, Note_off_c, 0, 61, 64
1, 42885, Control_c, 0, 64, 52
1, 42900, Control_c, 0, 64, 55
1, 42902, Note_off_c, 0, 81, 64
1, 42912, Note_on_c, 0, 71, 69
1, 42915, Control_c, 0, 64, 56
1, 42923, Note_off_c, 0, 62, 62
1, 42924, Note_on_c, 0, 74, 80
1, 42930, Control_c, 0, 64, 57
1, 42936, Note_off_c, 0, 79, 62
1, 42944, Control_c, 0, 64, 56
1, 42947, Note_off_c, 0, 71, 61
1, 42959, Control_c, 0, 64, 50
1, 42974, Control_c, 0, 64, 34
1, 42980, Note_on_c, 0, 57, 70
1, 42986, Note_on_c, 0, 81, 82
1, 42989, Control_c, 0, 64, 0
1, 42990, Note_off_c, 0, 74, 64
1, 43049, Control_c, 0, 64, 10
1, 43056, Note_on_c, 0, 79, 79
1, 43059, Note_on_c, 0, 59, 62
1, 43064, Control_c, 0, 64, 22
1, 43072, Note_off_c, 0, 81, 65
1, 43079, Control_c, 0, 64, 31
1, 43080, Note_off_c, 0, 57, 61
1, 43083, Note_on_c, 0, 61, 75
1, 43094, Control_c, 0, 64, 40
1, 43108, Note_on_c, 0, 78, 81
1, 43108, Control_c, 0, 64, 48
1, 43110, Note_off_c, 0, 59, 59
1, 43123, Control_c, 0, 64, 54
1, 43134, Note_off_c, 0, 79, 59
1, 43138, Control_c, 0, 64, 57
1, 43145, Note_on_c, 0, 69, 74
1, 43153, Control_c, 0, 64, 56
1, 43154, Note_off_c, 0, 61, 64
1, 43159, Note_on_c, 0, 73, 79
1, 43168, Control_c, 0, 64, 48
1, 43182, Control_c, 0, 64, 26
1, 43183, Note_off_c, 0, 78, 61
1, 43192, Note_off_c, 0, 69, 63
1, 43197, Control_c, 0, 64, 0
1, 43213, Note_off_c, 0, 73, 64
1, 43218, Note_on_c, 0, 55, 75
1, 43220, Note_on_c, 0, 79, 81
1, 43256, Control_c, 0, 64, 14
1, 43271, Control_c, 0, 64, 23
1, 43286, Control_c, 0, 64, 31
1, 43290, Note_on_c, 0, 78, 80
1, 43293, Note_on_c, 0, 57, 55
1, 43300, Control_c, 0, 64, 37
1, 43314, Note_off_c, 0, 55, 65
1, 43315, Control_c, 0, 64, 43
1, 43320, Note_on_c, 0, 59, 68
1, 43322, Note_off_c, 0, 79, 61
1, 43330, Control_c, 0, 64, 49
1, 43336, Note_on_c, 0, 76, 76
1, 43341, Note_off_c, 0, 57, 61
1, 43345, Control_c, 0, 64, 53
1, 43360, Control_c, 0, 64, 55
1, 43370, Note_off_c, 0, 78, 66
1, 43374, Control_c, 0, 64, 54
1, 43386, Note_on_c, 0, 67, 76
1, 43389, Control_c, 0, 64, 51
1, 43390, Note_off_c, 0, 59, 62
1, 43394, Note_on_c, 0, 71, 75
1, 43396, Note_off_c, 0, 76, 65
1, 43404, Control_c, 0, 64, 40
1, 43418, Control_c, 0, 64, 0
1, 43430, Note_off_c, 0, 67, 63
1, 43454, Note_off_c, 0, 71, 59
1, 43455, Note_on_c, 0, 78, 83
1, 43469, Note_on_c, 0, 54, 71
1, 43508, Control_c, 0, 64, 21
1, 43514, Note_on_c, 0, 55, 54
1, 43518, Note_on_c, 0, 76, 70
1, 43523, Control_c, 0, 64, 29
1, 43538, Control_c, 0, 64, 35
1, 43553, Control_c, 0, 64, 40
1, 43562, Note_off_c, 0, 54, 62
1, 43564, Note_off_c, 0, 78, 63
1, 43565, Note_on_c, 0, 57, 65
1, 43575, Control_c, 0, 64, 47
1, 43582, Note_on_c, 0, 74, 66
1, 43582, Note_off_c, 0, 55, 62
1, 43590, Control_c, 0, 64, 52
1, 43603, Note_on_c, 0, 66, 69
1, 43605, Control_c, 0, 64, 54
1, 43615, Note_off_c, 0, 76, 64
1, 43620, Note_off_c, 0, 57, 56
1, 43620, Control_c, 0, 64, 54
1, 43627, Note_off_c, 0, 66, 67
1, 43634, Control_c, 0, 64, 53
1, 43640, Note_on_c, 0, 69, 70
1, 43643, Note_off_c, 0, 74, 64
1, 43649, Control_c, 0, 64, 48
1, 43664, Control_c, 0, 64, 31
1, 43679, Control_c, 0, 64, 0
1, 43696, Note_on_c, 0, 52, 62
1, 43701, Note_on_c, 0, 76, 81
1, 43701, Note_off_c, 0, 69, 62
1, 43762, Note_on_c, 0, 54, 64
1, 43765, Note_on_c, 0, 74, 64
1, 43768, Control_c, 0, 64, 15
1, 43773, Note_off_c, 0, 52, 61
1, 43782, Control_c, 0, 64, 26
1, 43798, Control_c, 0, 64, 33
1, 43812, Note_on_c, 0, 55, 55
1, 43813, Control_c, 0, 64, 37
1, 43816, Note_on_c, 0, 73, 72
1, 43821, Note_off_c, 0, 76, 62
1, 43828, Control_c, 0, 64, 40
1, 43830, Note_off_c, 0, 54, 62
1, 43843, Note_off_c, 0, 74, 63
1, 43843, Control_c, 0, 64, 39
1, 43854, Note_off_c, 0, 55, 66
1, 43857, Control_c, 0, 64, 22
1, 43860, Note_on_c, 0, 64, 69
1, 43871, Note_on_c, 0, 67, 76
1, 43872, Control_c, 0, 64, 0
1, 43876, Note_off_c, 0, 73, 63
1, 43918, Note_off_c, 0, 64, 60
1, 43931, Note_on_c, 0, 53, 77
1, 43934, Note_on_c, 0, 74, 80
1, 43936, Note_off_c, 0, 67, 59
1, 43994, Note_on_c, 0, 73, 79
1, 44012, Note_off_c, 0, 74, 62
1, 44023, Note_on_c, 0, 55, 64
1, 44030, Note_off_c, 0, 53, 65
1, 44039, Note_on_c, 0, 56, 70
1, 44056, Note_on_c, 0, 71, 77
1, 44065, Control_c, 0, 64, 13
1, 44072, Note_off_c, 0, 55, 66
1, 44080, Control_c, 0, 64, 20
1, 44095, Control_c, 0, 64, 24
1, 44096, Note_off_c, 0, 73, 60
1, 44110, Control_c, 0, 64, 28
1, 44111, Note_on_c, 0, 62, 67
1, 44113, Note_on_c, 0, 68, 79
1, 44120, Note_off_c, 0, 56, 65
1, 44122, Note_off_c, 0, 71, 65
1, 44124, Control_c, 0, 64, 30
1, 44139, Control_c, 0, 64, 14
1, 44154, Control_c, 0, 64, 0
1, 44178, Note_on_c, 0, 74, 75
1, 44179, Note_on_c, 0, 54, 70
1, 44182, Note_off_c, 0, 62, 62
1, 44184, Note_off_c, 0, 68, 61
1, 44239, Note_on_c, 0, 56, 68
1, 44248, Note_on_c, 0, 73, 76
1, 44257, Control_c, 0, 64, 10
1, 44262, Note_off_c, 0, 54, 65
1, 44272, Control_c, 0, 64, 32
1, 44287, Note_off_c, 0, 74, 63
1, 44287, Control_c, 0, 64, 44
1, 44295, Note_on_c, 0, 57, 69
1, 44301, Note_on_c, 0, 71, 68
1, 44302, Control_c, 0, 64, 54
1, 44311, Note_off_c, 0, 56, 64
1, 44323, Control_c, 0, 64, 60
1, 44338, Control_c, 0, 64, 60
1, 44341, Note_off_c, 0, 73, 62
1, 44353, Control_c, 0, 64, 41
1, 44354, Note_off_c, 0, 57, 61
1, 44354, Note_on_c, 0, 62, 74
1, 44360, Note_on_c, 0, 66, 74
1, 44366, Note_off_c, 0, 71, 61
1, 44368, Control_c, 0, 64, 0
1, 44390, Note_off_c, 0, 66, 54
1, 44408, Note_off_c, 0, 62, 59
1, 44421, Note_on_c, 0, 74, 66
1, 44437, Note_on_c, 0, 56, 65
1, 44493, Note_on_c, 0, 73, 65
1, 44498, Note_on_c, 0, 57, 55
1, 44506, Note_off_c, 0, 74, 59
1, 44517, Note_off_c, 0, 56, 60
1, 44548, Note_on_c, 0, 71, 67
1, 44560, Note_off_c, 0, 57, 60
1, 44562, Note_on_c, 0, 59, 51
1, 44566, Note_off_c, 0, 73, 63
1, 44596, Note_off_c, 0, 59, 64
1, 44602, Note_on_c, 0, 62, 67
1, 44606, Note_off_c, 0, 71, 64
1, 44611, Note_on_c, 0, 65, 67
1, 44656, Note_off_c, 0, 62, 62
1, 44663, Note_off_c, 0, 65, 56
1, 44667, Note_on_c, 0, 73, 70
1, 44677, Note_on_c, 0, 57, 57
1, 44728, Note_on_c, 0, 59, 53
1, 44733, Note_off_c, 0, 57, 58
1, 44742, Note_on_c, 0, 71, 65
1, 44747, Note_off_c, 0, 73, 65
1, 44758, Note_off_c, 0, 59, 63
1, 44763, Note_on_c, 0, 60, 66
1, 44783, Note_on_c, 0, 69, 67
1, 44793, Note_off_c, 0, 60, 65
1, 44799, Note_off_c, 0, 71, 59
1, 44813, Control_c, 0, 64, 10
1, 44825, Note_on_c, 0, 61, 68
1, 44828, Control_c, 0, 64, 28
1, 44843, Note_on_c, 0, 66, 63
1, 44843, Note_off_c, 0, 69, 64
1, 44843, Control_c, 0, 64, 36
1, 44849, Note_off_c, 0, 61, 68
1, 44858, Control_c, 0, 64, 41
1, 44872, Control_c, 0, 64, 46
1, 44887, Note_off_c, 0, 66, 57
1, 44887, Control_c, 0, 64, 48
1, 44896, Note_on_c, 0, 51, 65
1, 44902, Control_c, 0, 64, 41
1, 44908, Note_on_c, 0, 72, 68
1, 44917, Control_c, 0, 64, 20
1, 44932, Control_c, 0, 64, 0
1, 44969, Note_on_c, 0, 52, 45
1, 44969, Note_off_c, 0, 51, 65
1, 44971, Note_on_c, 0, 71, 65
1, 44998, Note_off_c, 0, 72, 60
1, 45019, Note_on_c, 0, 54, 63
1, 45019, Note_off_c, 0, 52, 64
1, 45025, Note_on_c, 0, 69, 69
1, 45035, Control_c, 0, 64, 16
1, 45050, Control_c, 0, 64, 25
1, 45051, Note_off_c, 0, 71, 63
1, 45072, Control_c, 0, 64, 32
1, 45073, Note_on_c, 0, 60, 57
1, 45074, Note_off_c, 0, 54, 62
1, 45087, Control_c, 0, 64, 38
1, 45089, Note_on_c, 0, 66, 73
1, 45102, Control_c, 0, 64, 46
1, 45106, Note_off_c, 0, 69, 62
1, 45117, Control_c, 0, 64, 50
1, 45132, Control_c, 0, 64, 44
1, 45132, Control_c, 0, 67, 8
1, 45141, Note_off_c, 0, 60, 63
1, 45145, Note_on_c, 0, 52, 65
1, 45146, Note_off_c, 0, 66, 63
1, 45146, Control_c, 0, 64, 0
1, 45146, Control_c, 0, 67, 9
1, 45156, Note_on_c, 0, 72, 73
1, 45161, Control_c, 0, 67, 11
1, 45176, Control_c, 0, 67, 13
1, 45191, Control_c, 0, 67, 15
1, 45205, Control_c, 0, 67, 15
1, 45219, Note_on_c, 0, 54, 56
1, 45220, Control_c, 0, 67, 16
1, 45225, Note_off_c, 0, 52, 65
1, 45227, Note_on_c, 0, 71, 69
1, 45250, Control_c, 0, 67, 16
1, 45262, Note_off_c, 0, 72, 61
1, 45273, Note_on_c, 0, 69, 69
1, 45274, Note_on_c, 0, 55, 62
1, 45279, Control_c, 0, 64, 21
1, 45286, Note_off_c, 0, 54, 64
1, 45294, Control_c, 0, 64, 30
1, 45294, Control_c, 0, 67, 17
1, 45302, Note_off_c, 0, 71, 63
1, 45309, Control_c, 0, 64, 37
1, 45320, Note_off_c, 0, 55, 66
1, 45324, Control_c, 0, 64, 42
1, 45324, Control_c, 0, 67, 17
1, 45332, Note_on_c, 0, 60, 66
1, 45335, Note_on_c, 0, 64, 58
1, 45339, Control_c, 0, 64, 44
1, 45347, Note_off_c, 0, 69, 61
1, 45353, Control_c, 0, 64, 31
1, 45368, Control_c, 0, 64, 0
1, 45396, Note_on_c, 0, 72, 70
1, 45397, Note_off_c, 0, 60, 62
1, 45405, Note_off_c, 0, 64, 60
1, 45412, Note_on_c, 0, 54, 64
1, 45414, Control_c, 0, 67, 18
1, 45428, Control_c, 0, 67, 19
1, 45443, Control_c, 0, 67, 20
1, 45458, Control_c, 0, 67, 20
1, 45470, Note_on_c, 0, 55, 50
1, 45473, Control_c, 0, 64, 19
1, 45478, Note_on_c, 0, 71, 60
1, 45487, Control_c, 0, 64, 28
1, 45499, Note_off_c, 0, 72, 61
1, 45502, Control_c, 0, 64, 34
1, 45505, Note_off_c, 0, 54, 58
1, 45508, Note_on_c, 0, 69, 66
1, 45517, Control_c, 0, 64, 38
1, 45524, Note_on_c, 0, 57, 58
1, 45532, Control_c, 0, 64, 43
1, 45532, Control_c, 0, 67, 20
1, 45533, Note_off_c, 0, 55, 63
1, 45538, Note_off_c, 0, 71, 62
1, 45547, Control_c, 0, 64, 48
1, 45561, Note_off_c, 0, 57, 62
1, 45562, Control_c, 0, 64, 52
1, 45569, Note_off_c, 0, 69, 63
1, 45577, Control_c, 0, 64, 55
1, 45577, Note_on_c, 0, 63, 65
1, 45578, Note_on_c, 0, 60, 57
1, 45592, Control_c, 0, 64, 54
1, 45592, Control_c, 0, 67, 20
1, 45606, Control_c, 0, 64, 45
1, 45606, Control_c, 0, 67, 21
1, 45619, Note_off_c, 0, 63, 62
1, 45621, Control_c, 0, 64, 15
1, 45621, Control_c, 0, 67, 21
1, 45633, Note_off_c, 0, 60, 58
1, 45636, Control_c, 0, 64, 0
1, 45636, Control_c, 0, 67, 22
1, 45641, Note_on_c, 0, 71, 63
1, 45651, Control_c, 0, 67, 22
1, 45651, Note_on_c, 0, 55, 57
1, 45666, Control_c, 0, 67, 23
1, 45681, Control_c, 0, 67, 23
1, 45695, Control_c, 0, 67, 24
1, 45710, Control_c, 0, 67, 26
1, 45712, Note_on_c, 0, 69, 66
1, 45715, Note_on_c, 0, 57, 51
1, 45720, Note_off_c, 0, 55, 58
1, 45725, Control_c, 0, 67, 30
1, 45728, Note_off_c, 0, 71, 60
1, 45740, Control_c, 0, 67, 32
1, 45750, Note_on_c, 0, 58, 59
1, 45752, Note_off_c, 0, 57, 63
1, 45755, Control_c, 0, 67, 34
1, 45767, Note_on_c, 0, 67, 61
1, 45769, Control_c, 0, 67, 35
1, 45780, Note_off_c, 0, 69, 61
1, 45788, Note_off_c, 0, 58, 63
1, 45832, Note_on_c, 0, 64, 57
1, 45832, Note_off_c, 0, 67, 57
1, 45836, Note_on_c, 0, 59, 40
1, 45868, Note_on_c, 0, 57, 10
1, 45881, Note_off_c, 0, 64, 53
1, 45881, Control_c, 0, 67, 37
1, 45881, Note_off_c, 0, 59, 45
1, 45892, Note_on_c, 0, 70, 61
1, 45895, Control_c, 0, 67, 39
1, 45910, Control_c, 0, 67, 42
1, 45913, Note_off_c, 0, 57, 28
1, 45914, Note_on_c, 0, 49, 55
1, 45925, Control_c, 0, 67, 44
1, 45940, Control_c, 0, 67, 47
1, 45950, Note_on_c, 0, 69, 58
1, 45955, Control_c, 0, 64, 8
1, 45955, Control_c, 0, 67, 49
1, 45969, Control_c, 0, 64, 14
1, 45969, Control_c, 0, 67, 51
1, 45984, Note_on_c, 0, 50, 44
1, 45984, Control_c, 0, 64, 18
1, 45984, Control_c, 0, 67, 52
1, 45997, Note_off_c, 0, 70, 60
1, 45999, Note_off_c, 0, 49, 49
1, 45999, Control_c, 0, 64, 22
1, 45999, Control_c, 0, 67, 53
1, 46014, Control_c, 0, 64, 25
1, 46014, Control_c, 0, 67, 54
1, 46026, Note_off_c, 0, 50, 63
1, 46027, Note_on_c, 0, 67, 54
1, 46027, Note_off_c, 0, 69, 61
1, 46028, Control_c, 0, 64, 29
1, 46028, Control_c, 0, 67, 56
1, 46043, Control_c, 0, 64, 31
1, 46043, Control_c, 0, 67, 58
1, 46058, Note_on_c, 0, 52, 35
1, 46058, Control_c, 0, 64, 35
1, 46068, Note_off_c, 0, 67, 61
1, 46073, Control_c, 0, 64, 40
1, 46078, Note_on_c, 0, 58, 58
1, 46083, Note_on_c, 0, 64, 50
1, 46088, Control_c, 0, 64, 45
1, 46092, Note_off_c, 0, 52, 48
1, 46102, Control_c, 0, 64, 49
1, 46117, Control_c, 0, 64, 52
1, 46132, Control_c, 0, 64, 51
1, 46146, Note_off_c, 0, 58, 62
1, 46146, Note_off_c, 0, 64, 54
1, 46146, Control_c, 0, 64, 43
1, 46147, Note_on_c, 0, 70, 57
1, 46160, Note_on_c, 0, 50, 50
1, 46161, Control_c, 0, 64, 19
1, 46176, Control_c, 0, 64, 0
1, 46192, Control_c, 0, 67, 57
1, 46222, Control_c, 0, 67, 56
1, 46224, Note_on_c, 0, 52, 38
1, 46224, Note_on_c, 0, 69, 49
1, 46242, Note_off_c, 0, 50, 60
1, 46251, Control_c, 0, 64, 20
1, 46257, Note_off_c, 0, 70, 61
1, 46266, Control_c, 0, 64, 29
1, 46266, Control_c, 0, 67, 56
1, 46277, Note_on_c, 0, 53, 51
1, 46281, Note_off_c, 0, 69, 57
1, 46281, Control_c, 0, 64, 34
1, 46282, Note_on_c, 0, 67, 51
1, 46285, Note_off_c, 0, 52, 64
1, 46296, Control_c, 0, 64, 39
1, 46311, Control_c, 0, 64, 43
1, 46311, Control_c, 0, 67, 55
1, 46317, Note_off_c, 0, 53, 64
1, 46325, Control_c, 0, 64, 46
1, 46325, Control_c, 0, 67, 55
1, 46329, Note_off_c, 0, 67, 60
1, 46340, Control_c, 0, 64, 48
1, 46340, Control_c, 0, 67, 54
1, 46345, Note_on_c, 0, 58, 53
1, 46346, Note_on_c, 0, 62, 47
1, 46355, Control_c, 0, 64, 50
1, 46355, Control_c, 0, 67, 54
1, 46370, Control_c, 0, 64, 51
1, 46370, Control_c, 0, 67, 53
1, 46381, Note_off_c, 0, 58, 47
1, 46385, Control_c, 0, 67, 52
1, 46390, Note_off_c, 0, 62, 51
1, 46393, Note_on_c, 0, 70, 53
1, 46399, Control_c, 0, 64, 49
1, 46399, Control_c, 0, 67, 52
1, 46414, Control_c, 0, 64, 42
1, 46414, Control_c, 0, 67, 51
1, 46423, Note_on_c, 0, 52, 60
1, 46429, Control_c, 0, 64, 22
1, 46429, Control_c, 0, 67, 50
1, 46444, Control_c, 0, 64, 0
1, 46444, Control_c, 0, 67, 49
1, 46459, Control_c, 0, 67, 49
1, 46463, Note_on_c, 0, 69, 49
1, 46498, Note_on_c, 0, 53, 53
1, 46500, Note_off_c, 0, 70, 57
1, 46502, Note_off_c, 0, 52, 62
1, 46504, Control_c, 0, 64, 16
1, 46504, Control_c, 0, 67, 48
1, 46506, Note_on_c, 0, 67, 60
1, 46516, Note_off_c, 0, 69, 60
1, 46518, Control_c, 0, 64, 24
1, 46533, Control_c, 0, 64, 34
1, 46545, Note_off_c, 0, 53, 60
1, 46548, Control_c, 0, 64, 42
1, 46549, Note_on_c, 0, 55, 43
1, 46550, Note_off_c, 0, 67, 58
1, 46563, Control_c, 0, 64, 49
1, 46578, Note_on_c, 0, 61, 53
1, 46586, Control_c, 0, 64, 54
1, 46600, Note_off_c, 0, 61, 61
1, 46600, Control_c, 0, 64, 56
1, 46606, Note_off_c, 0, 55, 47
1, 46614, Note_on_c, 0, 58, 46
1, 46615, Control_c, 0, 64, 54
1, 46630, Control_c, 0, 64, 45
1, 46639, Note_off_c, 0, 58, 58
1, 46645, Control_c, 0, 64, 22
1, 46659, Control_c, 0, 64, 0
1, 46674, Control_c, 0, 67, 48
1, 46677, Note_on_c, 0, 62, 65
1, 46686, Note_on_c, 0, 57, 49
1, 46719, Control_c, 0, 67, 47
1, 46746, Note_off_c, 0, 62, 60
1, 46748, Note_off_c, 0, 57, 57
1, 46755, Note_on_c, 0, 64, 64
1, 46765, Note_on_c, 0, 55, 54
1, 46778, Control_c, 0, 64, 17
1, 46793, Control_c, 0, 64, 26
1, 46797, Note_off_c, 0, 64, 61
1, 46799, Note_on_c, 0, 65, 64
1, 46808, Control_c, 0, 64, 32
1, 46814, Note_off_c, 0, 55, 64
1, 46820, Note_off_c, 0, 65, 68
1, 46823, Control_c, 0, 64, 33
1, 46838, Control_c, 0, 64, 27
1, 46839, Note_on_c, 0, 74, 73
1, 46852, Control_c, 0, 64, 0
1, 46870, Note_off_c, 0, 74, 61
1, 46875, Note_on_c, 0, 45, 44
1, 46905, Note_off_c, 0, 45, 59
1, 46918, Note_on_c, 0, 61, 78
1, 46922, Note_on_c, 0, 55, 70
1, 46941, Control_c, 0, 64, 11
1, 46956, Control_c, 0, 64, 23
1, 46956, Control_c, 0, 67, 47
1, 46967, Note_off_c, 0, 55, 58
1, 46970, Control_c, 0, 64, 30
1, 46970, Control_c, 0, 67, 46
1, 46974, Note_off_c, 0, 61, 67
1, 46985, Control_c, 0, 64, 36
1, 46985, Control_c, 0, 67, 46
1, 46987, Note_on_c, 0, 62, 71
1, 47001, Control_c, 0, 64, 41
1, 47001, Control_c, 0, 67, 45
1, 47016, Control_c, 0, 64, 47
1, 47020, Note_on_c, 0, 53, 52
1, 47031, Control_c, 0, 64, 50
1, 47031, Control_c, 0, 67, 45
1, 47042, Note_off_c, 0, 62, 63
1, 47046, Control_c, 0, 64, 53
1, 47046, Control_c, 0, 67, 44
1, 47049, Note_on_c, 0, 64, 62
1, 47057, Note_on_c, 0, 52, 58
1, 47061, Control_c, 0, 64, 55
1, 47072, Note_off_c, 0, 53, 63
1, 47075, Control_c, 0, 64, 55
1, 47077, Note_off_c, 0, 64, 65
1, 47090, Note_off_c, 0, 52, 66
1, 47090, Control_c, 0, 64, 46
1, 47090, Control_c, 0, 67, 44
1, 47094, Note_on_c, 0, 73, 77
1, 47105, Control_c, 0, 64, 0
1, 47105, Control_c, 0, 67, 42
1, 47113, Note_on_c, 0, 45, 56
1, 47120, Control_c, 0, 67, 39
1, 47135, Control_c, 0, 67, 35
1, 47142, Note_off_c, 0, 45, 65
1, 47149, Control_c, 0, 67, 32
1, 47160, Note_off_c, 0, 73, 64
1, 47162, Note_on_c, 0, 62, 80
1, 47164, Control_c, 0, 67, 29
1, 47168, Note_on_c, 0, 57, 70
1, 47179, Control_c, 0, 67, 26
1, 47193, Control_c, 0, 67, 23
1, 47208, Control_c, 0, 64, 25
1, 47208, Control_c, 0, 67, 22
1, 47223, Control_c, 0, 64, 33
1, 47223, Control_c, 0, 67, 20
1, 47231, Note_off_c, 0, 62, 61
1, 47237, Note_off_c, 0, 57, 57
1, 47238, Control_c, 0, 64, 38
1, 47238, Control_c, 0, 67, 17
1, 47240, Note_on_c, 0, 64, 70
1, 47253, Control_c, 0, 64, 43
1, 47253, Control_c, 0, 67, 14
1, 47257, Note_on_c, 0, 55, 60
1, 47267, Control_c, 0, 64, 48
1, 47267, Control_c, 0, 67, 10
1, 47282, Control_c, 0, 64, 52
1, 47282, Control_c, 0, 67, 0
1, 47286, Note_on_c, 0, 65, 73
1, 47297, Control_c, 0, 64, 55
1, 47298, Note_off_c, 0, 64, 61
1, 47302, Note_off_c, 0, 55, 65
1, 47320, Control_c, 0, 64, 54
1, 47323, Note_on_c, 0, 53, 37
1, 47329, Note_off_c, 0, 65, 66
1, 47335, Control_c, 0, 64, 48
1, 47340, Note_on_c, 0, 74, 73
1, 47342, Note_on_c, 0, 45, 61
1, 47349, Control_c, 0, 64, 28
1, 47355, Note_off_c, 0, 53, 54
1, 47364, Control_c, 0, 64, 0
1, 47377, Note_off_c, 0, 74, 60
1, 47408, Note_on_c, 0, 65, 74
1, 47410, Note_off_c, 0, 45, 45
1, 47424, Note_on_c, 0, 53, 56
1, 47438, Control_c, 0, 64, 23
1, 47453, Control_c, 0, 64, 34
1, 47454, Note_off_c, 0, 53, 57
1, 47467, Note_on_c, 0, 52, 62
1, 47467, Control_c, 0, 64, 44
1, 47472, Note_off_c, 0, 65, 65
1, 47475, Note_on_c, 0, 67, 69
1, 47482, Control_c, 0, 64, 52
1, 47497, Control_c, 0, 64, 56
1, 47525, Note_on_c, 0, 50, 31
1, 47525, Note_on_c, 0, 68, 65
1, 47527, Control_c, 0, 64, 55
1, 47541, Control_c, 0, 64, 55
1, 47544, Note_off_c, 0, 52, 64
1, 47555, Note_off_c, 0, 67, 63
1, 47556, Control_c, 0, 64, 52
1, 47561, Note_off_c, 0, 50, 51
1, 47562, Note_on_c, 0, 45, 59
1, 47571, Control_c, 0, 64, 41
1, 47572, Note_off_c, 0, 68, 62
1, 47583, Note_on_c, 0, 77, 67
1, 47586, Control_c, 0, 64, 0
1, 47608, Note_off_c, 0, 77, 67
1, 47654, Note_on_c, 0, 52, 51
1, 47657, Note_on_c, 0, 49, 55
1, 47657, Note_on_c, 0, 69, 79
1, 47672, Note_off_c, 0, 45, 62
1, 47675, Control_c, 0, 64, 30
1, 47682, Note_off_c, 0, 49, 59
1, 47683, Note_off_c, 0, 52, 56
1, 47690, Control_c, 0, 64, 44
1, 47705, Control_c, 0, 64, 56
1, 47714, Note_off_c, 0, 69, 61
1, 47720, Control_c, 0, 64, 62
1, 47726, Note_on_c, 0, 71, 63
1, 47735, Control_c, 0, 64, 63
1, 47764, Control_c, 0, 64, 64
1, 47775, Note_on_c, 0, 73, 69
1, 47779, Control_c, 0, 64, 65
1, 47794, Control_c, 0, 64, 65
1, 47795, Note_off_c, 0, 71, 62
1, 47828, Note_off_c, 0, 73, 66
1, 47833, Note_on_c, 0, 81, 79
1, 47839, Control_c, 0, 64, 66
1, 47854, Control_c, 0, 64, 66
1, 47855, Note_off_c, 0, 81, 69
1, 47869, Control_c, 0, 64, 65
1, 47884, Control_c, 0, 64, 59
1, 47898, Control_c, 0, 64, 42
1, 47905, Note_on_c, 0, 33, 57
1, 47906, Note_on_c, 0, 45, 59
1, 47913, Control_c, 0, 64, 0
1, 47914, Note_on_c, 0, 81, 79
1, 47967, Note_off_c, 0, 81, 63
1, 47970, Note_on_c, 0, 83, 73
1, 47975, Note_off_c, 0, 33, 63
1, 48002, Control_c, 0, 64, 20
1, 48016, Control_c, 0, 64, 29
1, 48024, Note_on_c, 0, 85, 69
1, 48031, Control_c, 0, 64, 34
1, 48035, Note_off_c, 0, 83, 65
1, 48046, Control_c, 0, 64, 37
1, 48068, Control_c, 0, 64, 41
1, 48077, Note_on_c, 0, 93, 76
1, 48079, Note_off_c, 0, 85, 62
1, 48083, Control_c, 0, 64, 46
1, 48095, Note_on_c, 0, 91, 50
1, 48097, Control_c, 0, 64, 50
1, 48112, Control_c, 0, 64, 53
1, 48127, Control_c, 0, 64, 55
1, 48128, Note_on_c, 0, 85, 65
1, 48131, Note_off_c, 0, 93, 60
1, 48142, Control_c, 0, 64, 55
1, 48150, Note_off_c, 0, 91, 37
1, 48157, Control_c, 0, 64, 56
1, 48171, Control_c, 0, 64, 57
1, 48186, Control_c, 0, 64, 58
1, 48194, Note_on_c, 0, 83, 67
1, 48201, Control_c, 0, 64, 59
1, 48215, Control_c, 0, 64, 59
1, 48218, Note_off_c, 0, 85, 62
1, 48236, Note_off_c, 0, 83, 60
1, 48242, Note_on_c, 0, 81, 73
1, 48260, Control_c, 0, 64, 60
1, 48265, Note_off_c, 0, 81, 69
1, 48275, Control_c, 0, 64, 61
1, 48289, Control_c, 0, 64, 61
1, 48304, Control_c, 0, 64, 62
1, 48323, Note_on_c, 0, 81, 80
1, 48334, Control_c, 0, 64, 61
1, 48349, Control_c, 0, 64, 53
1, 48364, Control_c, 0, 64, 30
1, 48373, Note_on_c, 0, 73, 68
1, 48374, Note_off_c, 0, 81, 62
1, 48379, Control_c, 0, 64, 0
1, 48383, Note_on_c, 0, 52, 53
1, 48397, Note_on_c, 0, 49, 39
1, 48408, Control_c, 0, 64, 16
1, 48420, Note_on_c, 0, 71, 72
1, 48423, Control_c, 0, 64, 26
1, 48438, Control_c, 0, 64, 36
1, 48453, Control_c, 0, 64, 48
1, 48458, Note_off_c, 0, 73, 58
1, 48468, Control_c, 0, 64, 57
1, 48479, Note_off_c, 0, 71, 66
1, 48481, Note_on_c, 0, 69, 78
1, 48481, Note_off_c, 0, 52, 60
1, 48483, Control_c, 0, 64, 62
1, 48497, Control_c, 0, 64, 64
1, 48501, Note_off_c, 0, 45, 41
1, 48508, Note_off_c, 0, 69, 62
1, 48549, Note_on_c, 0, 69, 64
1, 48555, Note_off_c, 0, 49, 46
1, 48556, Control_c, 0, 64, 64
1, 48575, Note_off_c, 0, 69, 66
1, 48587, Control_c, 0, 64, 60
1, 48602, Control_c, 0, 64, 46
1, 48617, Control_c, 0, 64, 0
1, 48625, Note_on_c, 0, 70, 84
1, 48647, Note_on_c, 0, 53, 50
1, 48652, Note_on_c, 0, 50, 48
1, 48656, Note_on_c, 0, 45, 41
1, 48704, Note_on_c, 0, 72, 74
1, 48706, Control_c, 0, 64, 13
1, 48707, Note_off_c, 0, 70, 62
1, 48720, Control_c, 0, 64, 26
1, 48735, Control_c, 0, 64, 36
1, 48739, Note_on_c, 0, 74, 69
1, 48750, Control_c, 0, 64, 44
1, 48760, Note_off_c, 0, 53, 54
1, 48765, Control_c, 0, 64, 51
1, 48770, Note_off_c, 0, 72, 63
1, 48780, Control_c, 0, 64, 56
1, 48789, Note_off_c, 0, 74, 67
1, 48794, Control_c, 0, 64, 59
1, 48796, Note_on_c, 0, 82, 81
1, 48817, Control_c, 0, 64, 60
1, 48823, Note_off_c, 0, 82, 72
1, 48826, Note_off_c, 0, 50, 60
1, 48832, Control_c, 0, 64, 61
1, 48846, Control_c, 0, 64, 58
1, 48861, Control_c, 0, 64, 49
1, 48876, Control_c, 0, 64, 26
1, 48884, Note_on_c, 0, 82, 90
1, 48885, Note_on_c, 0, 55, 66
1, 48891, Control_c, 0, 64, 0
1, 48906, Control_c, 0, 64, 13
1, 48920, Control_c, 0, 64, 21
1, 48935, Control_c, 0, 64, 26
1, 48942, Note_off_c, 0, 82, 67
1, 48948, Note_on_c, 0, 84, 79
1, 48950, Control_c, 0, 64, 31
1, 48964, Control_c, 0, 64, 37
1, 48979, Control_c, 0, 64, 44
1, 48990, Note_off_c, 0, 55, 65
1, 48994, Control_c, 0, 64, 52
1, 49009, Control_c, 0, 64, 58
1, 49019, Note_on_c, 0, 86, 74
1, 49024, Control_c, 0, 64, 60
1, 49026, Note_off_c, 0, 84, 62
1, 49038, Control_c, 0, 64, 61
1, 49045, Note_on_c, 0, 53, 72
1, 49052, Note_on_c, 0, 94, 85
1, 49052, Note_off_c, 0, 86, 61
1, 49068, Control_c, 0, 64, 59
1, 49083, Control_c, 0, 64, 50
1, 49098, Control_c, 0, 64, 33
1, 49112, Control_c, 0, 64, 17
1, 49123, Note_on_c, 0, 58, 87
1, 49124, Note_on_c, 0, 86, 86
1, 49127, Control_c, 0, 64, 25
1, 49133, Note_off_c, 0, 94, 66
1, 49142, Control_c, 0, 64, 33
1, 49157, Control_c, 0, 64, 39
1, 49172, Control_c, 0, 64, 46
1, 49179, Note_on_c, 0, 84, 78
1, 49187, Control_c, 0, 64, 53
1, 49201, Control_c, 0, 64, 60
1, 49205, Note_off_c, 0, 86, 56
1, 49216, Control_c, 0, 64, 63
1, 49246, Note_on_c, 0, 82, 84
1, 49249, Note_off_c, 0, 84, 64
1, 49261, Control_c, 0, 64, 63
1, 49276, Control_c, 0, 64, 66
1, 49278, Note_off_c, 0, 58, 64
1, 49282, Note_off_c, 0, 82, 65
1, 49291, Control_c, 0, 64, 73
1, 49306, Control_c, 0, 64, 78
1, 49318, Note_off_c, 0, 45, 41
1, 49320, Control_c, 0, 64, 77
1, 49335, Control_c, 0, 64, 71
1, 49342, Note_on_c, 0, 82, 58
1, 49350, Control_c, 0, 64, 60
1, 49364, Control_c, 0, 64, 40
1, 49379, Control_c, 0, 64, 23
1, 49380, Note_off_c, 0, 82, 50
1, 49383, Note_on_c, 0, 74, 82
1, 49394, Note_on_c, 0, 62, 87
1, 49395, Control_c, 0, 64, 34
1, 49395, Note_off_c, 0, 53, 64
1, 49410, Control_c, 0, 64, 42
1, 49425, Control_c, 0, 64, 50
1, 49440, Note_on_c, 0, 72, 75
1, 49440, Control_c, 0, 64, 56
1, 49446, Note_off_c, 0, 74, 59
1, 49455, Note_off_c, 0, 62, 60
1, 49455, Control_c, 0, 64, 62
1, 49469, Control_c, 0, 64, 65
1, 49484, Control_c, 0, 64, 67
1, 49488, Note_off_c, 0, 72, 59
1, 49495, Note_on_c, 0, 70, 72
1, 49499, Control_c, 0, 64, 68
1, 49529, Control_c, 0, 64, 69
1, 49543, Control_c, 0, 64, 71
1, 49547, Note_off_c, 0, 70, 0
1, 49565, Control_c, 0, 64, 75
1, 49574, Note_on_c, 0, 70, 52
1, 49580, Control_c, 0, 64, 75
1, 49610, Note_off_c, 0, 70, 63
1, 49610, Control_c, 0, 64, 70
1, 49625, Control_c, 0, 64, 57
1, 49640, Control_c, 0, 64, 20
1, 49655, Control_c, 0, 64, 0
1, 49660, Note_on_c, 0, 59, 83
1, 49663, Note_on_c, 0, 71, 84
1, 49665, Note_on_c, 0, 54, 75
1, 49665, Note_on_c, 0, 51, 70
1, 49678, Note_off_c, 0, 59, 71
1, 49684, Control_c, 0, 64, 18
1, 49689, Note_on_c, 0, 45, 68
1, 49690, Note_off_c, 0, 54, 67
1, 49695, Note_off_c, 0, 51, 69
1, 49699, Control_c, 0, 64, 33
1, 49714, Control_c, 0, 64, 45
1, 49714, Note_off_c, 0, 45, 66
1, 49729, Control_c, 0, 64, 58
1, 49743, Note_on_c, 0, 73, 85
1, 49743, Control_c, 0, 64, 66
1, 49747, Note_off_c, 0, 71, 64
1, 49758, Control_c, 0, 64, 71
1, 49773, Control_c, 0, 64, 72
1, 49786, Note_on_c, 0, 75, 76
1, 49787, Control_c, 0, 64, 73
1, 49802, Control_c, 0, 64, 75
1, 49817, Control_c, 0, 64, 81
1, 49825, Note_off_c, 0, 73, 64
1, 49832, Control_c, 0, 64, 88
1, 49847, Control_c, 0, 64, 89
1, 49853, Note_on_c, 0, 83, 77
1, 49855, Note_off_c, 0, 75, 65
1, 49887, Note_off_c, 0, 83, 67
1, 49891, Control_c, 0, 64, 85
1, 49906, Control_c, 0, 64, 66
1, 49921, Control_c, 0, 64, 39
1, 49927, Note_on_c, 0, 33, 75
1, 49935, Control_c, 0, 64, 0
1, 49938, Note_on_c, 0, 83, 88
1, 49938, Note_on_c, 0, 47, 74
1, 49944, Note_on_c, 0, 45, 73
1, 49950, Note_on_c, 0, 35, 60
1, 49977, Note_off_c, 0, 35, 57
1, 49995, Note_off_c, 0, 47, 65
1, 50007, Note_on_c, 0, 85, 86
1, 50018, Note_off_c, 0, 83, 59
1, 50039, Control_c, 0, 64, 9
1, 50054, Control_c, 0, 64, 16
1, 50063, Note_on_c, 0, 87, 73
1, 50069, Control_c, 0, 64, 18
1, 50073, Note_off_c, 0, 85, 66
1, 50084, Control_c, 0, 64, 24
1, 50099, Note_on_c, 0, 95, 86
1, 50099, Control_c, 0, 64, 31
1, 50102, Note_off_c, 0, 33, 38
1, 50111, Note_off_c, 0, 87, 65
1, 50113, Control_c, 0, 64, 37
1, 50128, Control_c, 0, 64, 42
1, 50143, Control_c, 0, 64, 46
1, 50158, Control_c, 0, 64, 50
1, 50163, Note_off_c, 0, 95, 58
1, 50173, Control_c, 0, 64, 53
1, 50173, Note_on_c, 0, 87, 80
1, 50188, Control_c, 0, 64, 57
1, 50203, Control_c, 0, 64, 59
1, 50218, Control_c, 0, 64, 60
1, 50233, Note_on_c, 0, 85, 79
1, 50233, Control_c, 0, 64, 60
1, 50263, Control_c, 0, 64, 61
1, 50275, Note_off_c, 0, 87, 63
1, 50278, Control_c, 0, 64, 63
1, 50290, Note_on_c, 0, 83, 81
1, 50292, Control_c, 0, 64, 64
1, 50296, Note_off_c, 0, 85, 62
1, 50315, Control_c, 0, 64, 65
1, 50340, Note_off_c, 0, 83, 63
1, 50374, Control_c, 0, 64, 66
1, 50384, Note_on_c, 0, 83, 63
1, 50389, Control_c, 0, 64, 67
1, 50418, Control_c, 0, 64, 65
1, 50433, Note_on_c, 0, 75, 80
1, 50433, Control_c, 0, 64, 59
1, 50447, Note_off_c, 0, 83, 59
1, 50448, Control_c, 0, 64, 39
1, 50459, Note_on_c, 0, 51, 60
1, 50463, Control_c, 0, 64, 21
1, 50464, Note_on_c, 0, 54, 65
1, 50478, Control_c, 0, 64, 31
1, 50479, Note_on_c, 0, 73, 79
1, 50492, Control_c, 0, 64, 41
1, 50507, Control_c, 0, 64, 52
1, 50522, Note_off_c, 0, 75, 59
1, 50522, Control_c, 0, 64, 60
1, 50537, Control_c, 0, 64, 64
1, 50546, Note_on_c, 0, 71, 74
1, 50550, Note_off_c, 0, 73, 62
1, 50552, Control_c, 0, 64, 67
1, 50557, Note_off_c, 0, 45, 60
1, 50559, Note_off_c, 0, 54, 61
1, 50566, Note_off_c, 0, 71, 73
1, 50567, Control_c, 0, 64, 71
1, 50573, Note_off_c, 0, 51, 37
1, 50582, Control_c, 0, 64, 73
1, 50596, Control_c, 0, 64, 74
1, 50620, Note_on_c, 0, 71, 82
1, 50626, Control_c, 0, 64, 74
1, 50641, Control_c, 0, 64, 75
1, 50644, Note_off_c, 0, 71, 71
1, 50671, Control_c, 0, 64, 72
1, 50685, Control_c, 0, 64, 61
1, 50700, Control_c, 0, 64, 32
1, 50704, Note_on_c, 0, 55, 86
1, 50706, Note_on_c, 0, 52, 78
1, 50707, Note_on_c, 0, 72, 91
1, 50715, Control_c, 0, 64, 0
1, 50716, Note_on_c, 0, 45, 69
1, 50776, Note_off_c, 0, 72, 64
1, 50789, Note_on_c, 0, 74, 83
1, 50804, Control_c, 0, 64, 19
1, 50818, Control_c, 0, 64, 34
1, 50833, Control_c, 0, 64, 46
1, 50848, Control_c, 0, 64, 54
1, 50852, Note_on_c, 0, 76, 72
1, 50863, Control_c, 0, 64, 59
1, 50878, Control_c, 0, 64, 61
1, 50883, Note_off_c, 0, 74, 68
1, 50892, Note_off_c, 0, 55, 62
1, 50892, Control_c, 0, 64, 62
1, 50900, Note_on_c, 0, 84, 85
1, 50903, Note_off_c, 0, 76, 67
1, 50907, Control_c, 0, 64, 64
1, 50922, Control_c, 0, 64, 66
1, 50926, Note_off_c, 0, 84, 66
1, 50936, Control_c, 0, 64, 68
1, 50951, Note_off_c, 0, 52, 65
1, 50951, Control_c, 0, 64, 67
1, 50963, Note_off_c, 0, 45, 63
1, 50966, Control_c, 0, 64, 61
1, 50978, Note_on_c, 0, 57, 80
1, 50981, Note_on_c, 0, 84, 97
1, 50982, Control_c, 0, 64, 48
1, 50997, Control_c, 0, 64, 35
1, 51012, Control_c, 0, 64, 39
1, 51027, Control_c, 0, 64, 49
1, 51033, Note_off_c, 0, 84, 66
1, 51040, Note_on_c, 0, 86, 90
1, 51041, Control_c, 0, 64, 55
1, 51064, Control_c, 0, 64, 59
1, 51079, Control_c, 0, 64, 62
1, 51094, Control_c, 0, 64, 66
1, 51109, Control_c, 0, 64, 70
1, 51114, Note_on_c, 0, 88, 83
1, 51123, Control_c, 0, 64, 72
1, 51127, Note_off_c, 0, 57, 59
1, 51131, Note_off_c, 0, 86, 62
1, 51138, Control_c, 0, 64, 73
1, 51145, Note_on_c, 0, 55, 71
1, 51166, Note_on_c, 0, 96, 90
1, 51167, Note_off_c, 0, 88, 68
1, 51167, Control_c, 0, 64, 71
1, 51182, Control_c, 0, 64, 62
1, 51197, Control_c, 0, 64, 40
1, 51206, Note_on_c, 0, 60, 90
1, 51212, Control_c, 0, 64, 0
1, 51232, Note_on_c, 0, 88, 94
1, 51233, Note_off_c, 0, 96, 47
1, 51256, Control_c, 0, 64, 10
1, 51271, Control_c, 0, 64, 26
1, 51286, Control_c, 0, 64, 38
1, 51294, Note_on_c, 0, 86, 88
1, 51301, Control_c, 0, 64, 49
1, 51315, Control_c, 0, 64, 60
1, 51324, Note_off_c, 0, 88, 63
1, 51330, Control_c, 0, 64, 63
1, 51345, Control_c, 0, 64, 64
1, 51358, Note_on_c, 0, 84, 85
1, 51360, Control_c, 0, 64, 65
1, 51366, Note_off_c, 0, 86, 64
1, 51374, Control_c, 0, 64, 68
1, 51376, Note_off_c, 0, 60, 62
1, 51389, Control_c, 0, 64, 72
1, 51402, Note_off_c, 0, 84, 65
1, 51404, Control_c, 0, 64, 75
1, 51419, Control_c, 0, 64, 76
1, 51446, Note_on_c, 0, 84, 65
1, 51449, Control_c, 0, 64, 75
1, 51458, Note_on_c, 0, 83, 66
1, 51464, Control_c, 0, 64, 68
1, 51479, Control_c, 0, 64, 58
1, 51488, Note_on_c, 0, 64, 97
1, 51494, Control_c, 0, 64, 38
1, 51496, Note_off_c, 0, 84, 63
1, 51503, Note_on_c, 0, 76, 72
1, 51504, Note_off_c, 0, 83, 0
1, 51504, Note_on_c, 0, 83, 18
1, 51504, Note_off_c, 0, 55, 64
1, 51508, Control_c, 0, 64, 30
1, 51521, Note_on_c, 0, 77, 38
1, 51523, Control_c, 0, 64, 42
1, 51529, Note_off_c, 0, 64, 64
1, 51538, Control_c, 0, 64, 51
1, 51541, Note_off_c, 0, 83, 51
1, 51547, Note_on_c, 0, 74, 76
1, 51553, Control_c, 0, 64, 58
1, 51553, Note_off_c, 0, 77, 52
1, 51567, Control_c, 0, 64, 62
1, 51577, Note_off_c, 0, 76, 65
1, 51582, Control_c, 0, 64, 65
1, 51597, Control_c, 0, 64, 67
1, 51612, Control_c, 0, 64, 69
1, 51613, Note_off_c, 0, 74, 63
1, 51627, Control_c, 0, 64, 70
1, 51634, Note_on_c, 0, 71, 42
1, 51641, Control_c, 0, 64, 71
1, 51661, Note_on_c, 0, 45, 78
1, 51662, Note_off_c, 0, 71, 59
1, 51684, Note_on_c, 0, 47, 54
1, 51686, Note_on_c, 0, 72, 55
1, 51686, Control_c, 0, 64, 69
1, 51696, Note_on_c, 0, 52, 79
1, 51701, Control_c, 0, 64, 62
1, 51715, Control_c, 0, 64, 37
1, 51722, Note_off_c, 0, 45, 64
1, 51726, Note_on_c, 0, 55, 77
1, 51730, Note_off_c, 0, 72, 64
1, 51730, Control_c, 0, 64, 0
1, 51731, Note_on_c, 0, 48, 22
1, 51777, Note_off_c, 0, 48, 50
1, 51779, Note_on_c, 0, 61, 99
1, 51780, Note_off_c, 0, 47, 44
1, 51788, Note_on_c, 0, 73, 95
1, 51813, Control_c, 0, 64, 30
1, 51828, Control_c, 0, 64, 49
1, 51838, Note_off_c, 0, 61, 67
1, 51842, Control_c, 0, 64, 64
1, 51857, Control_c, 0, 64, 76
1, 51860, Note_off_c, 0, 55, 62
1, 51871, Note_off_c, 0, 52, 65
1, 51872, Control_c, 0, 64, 78
1, 51875, Note_off_c, 0, 73, 65
1, 51885, Note_on_c, 0, 75, 54
1, 51886, Note_off_c, 0, 75, 127
1, 51905, Note_on_c, 0, 74, 70
1, 51917, Control_c, 0, 64, 79
1, 51932, Control_c, 0, 64, 83
1, 51944, Note_on_c, 0, 76, 70
1, 51946, Control_c, 0, 64, 86
1, 51950, Note_off_c, 0, 74, 63
1, 51961, Control_c, 0, 64, 88
1, 51976, Control_c, 0, 64, 89
1, 51990, Control_c, 0, 64, 93
1, 51995, Note_off_c, 0, 76, 66
1, 52002, Note_on_c, 0, 85, 83
1, 52005, Control_c, 0, 64, 96
1, 52020, Control_c, 0, 64, 96
1, 52035, Control_c, 0, 64, 96
1, 52050, Control_c, 0, 64, 76
1, 52064, Control_c, 0, 64, 54
1, 52077, Note_off_c, 0, 85, 67
1, 52079, Note_on_c, 0, 76, 99
1, 52079, Control_c, 0, 64, 0
1, 52088, Note_on_c, 0, 45, 89
1, 52093, Note_on_c, 0, 33, 83
1, 52138, Control_c, 0, 64, 9
1, 52147, Note_off_c, 0, 76, 69
1, 52150, Note_on_c, 0, 77, 89
1, 52153, Control_c, 0, 64, 33
1, 52168, Control_c, 0, 64, 50
1, 52173, Note_off_c, 0, 33, 65
1, 52183, Control_c, 0, 64, 61
1, 52191, Note_off_c, 0, 45, 62
1, 52197, Control_c, 0, 64, 66
1, 52211, Note_on_c, 0, 79, 74
1, 52212, Control_c, 0, 64, 67
1, 52227, Control_c, 0, 64, 68
1, 52233, Note_off_c, 0, 77, 66
1, 52257, Control_c, 0, 64, 69
1, 52259, Note_on_c, 0, 88, 83
1, 52262, Note_off_c, 0, 79, 65
1, 52272, Control_c, 0, 64, 74
1, 52287, Control_c, 0, 64, 80
1, 52302, Control_c, 0, 64, 82
1, 52332, Note_on_c, 0, 79, 90
1, 52346, Control_c, 0, 64, 84
1, 52348, Note_off_c, 0, 88, 64
1, 52361, Control_c, 0, 64, 97
1, 52376, Control_c, 0, 64, 110
1, 52390, Control_c, 0, 64, 114
1, 52397, Note_on_c, 0, 81, 85
1, 52424, Note_off_c, 0, 79, 62
1, 52435, Control_c, 0, 64, 115
1, 52445, Note_on_c, 0, 82, 78
1, 52450, Control_c, 0, 64, 119
1, 52464, Control_c, 0, 64, 127
1, 52469, Note_off_c, 0, 81, 65
1, 52481, Note_off_c, 0, 82, 68
1, 52492, Note_on_c, 0, 91, 75
1, 52508, Control_c, 0, 64, 104
1, 52513, Note_off_c, 0, 91, 66
1, 52523, Control_c, 0, 64, 71
1, 52538, Control_c, 0, 64, 47
1, 52560, Control_c, 0, 64, 0
1, 52573, Note_on_c, 0, 55, 55
1, 52582, Note_on_c, 0, 82, 93
1, 52650, Control_c, 0, 64, 11
1, 52650, Note_on_c, 0, 84, 70
1, 52655, Note_off_c, 0, 82, 63
1, 52665, Control_c, 0, 64, 28
1, 52665, Note_off_c, 0, 55, 63
1, 52668, Note_on_c, 0, 57, 50
1, 52680, Control_c, 0, 64, 37
1, 52694, Control_c, 0, 64, 44
1, 52703, Note_on_c, 0, 58, 64
1, 52707, Note_off_c, 0, 57, 62
1, 52708, Note_on_c, 0, 85, 63
1, 52709, Control_c, 0, 64, 49
1, 52710, Note_off_c, 0, 84, 64
1, 52724, Control_c, 0, 64, 52
1, 52739, Control_c, 0, 64, 54
1, 52742, Note_off_c, 0, 85, 59
1, 52747, Note_on_c, 0, 94, 67
1, 52753, Control_c, 0, 64, 56
1, 52767, Note_off_c, 0, 58, 62
1, 52768, Note_on_c, 0, 64, 64
1, 52768, Control_c, 0, 64, 57
1, 52772, Note_off_c, 0, 94, 69
1, 52783, Control_c, 0, 64, 55
1, 52798, Control_c, 0, 64, 47
1, 52812, Control_c, 0, 64, 23
1, 52819, Note_on_c, 0, 79, 76
1, 52827, Control_c, 0, 64, 0
1, 52841, Note_on_c, 0, 58, 44
1, 52841, Note_off_c, 0, 64, 61
1, 52895, Note_on_c, 0, 81, 69
1, 52897, Note_off_c, 0, 79, 61
1, 52910, Note_on_c, 0, 60, 51
1, 52916, Control_c, 0, 64, 16
1, 52931, Control_c, 0, 64, 31
1, 52931, Note_off_c, 0, 58, 56
1, 52937, Note_on_c, 0, 82, 64
1, 52945, Control_c, 0, 64, 40
1, 52960, Note_off_c, 0, 81, 62
1, 52960, Control_c, 0, 64, 48
1, 52969, Note_off_c, 0, 60, 62
1, 52972, Note_on_c, 0, 61, 57
1, 52975, Control_c, 0, 64, 56
1, 52978, Note_off_c, 0, 82, 65
1, 52990, Control_c, 0, 64, 61
1, 53005, Control_c, 0, 64, 61
1, 53005, Note_on_c, 0, 91, 44
1, 53007, Note_off_c, 0, 61, 66
1, 53014, Note_on_c, 0, 67, 67
1, 53020, Control_c, 0, 64, 58
1, 53035, Control_c, 0, 64, 48
1, 53036, Note_off_c, 0, 91, 51
1, 53050, Control_c, 0, 64, 39
1, 53056, Note_on_c, 0, 76, 85
1, 53057, Note_off_c, 0, 67, 57
1, 53065, Control_c, 0, 64, 39
1, 53079, Control_c, 0, 64, 42
1, 53082, Note_on_c, 0, 61, 65
1, 53094, Control_c, 0, 64, 46
1, 53109, Control_c, 0, 64, 49
1, 53124, Control_c, 0, 64, 52
1, 53126, Note_off_c, 0, 76, 65
1, 53127, Note_on_c, 0, 77, 81
1, 53138, Control_c, 0, 64, 56
1, 53139, Note_on_c, 0, 62, 63
1, 53153, Control_c, 0, 64, 60
1, 53168, Control_c, 0, 64, 62
1, 53170, Note_off_c, 0, 61, 61
1, 53178, Note_on_c, 0, 79, 69
1, 53183, Control_c, 0, 64, 63
1, 53193, Note_on_c, 0, 64, 59
1, 53198, Control_c, 0, 64, 65
1, 53207, Note_off_c, 0, 62, 61
1, 53208, Note_off_c, 0, 77, 64
1, 53212, Control_c, 0, 64, 70
1, 53227, Control_c, 0, 64, 78
1, 53229, Note_off_c, 0, 79, 65
1, 53231, Note_on_c, 0, 88, 82
1, 53236, Note_off_c, 0, 64, 62
1, 53237, Note_on_c, 0, 70, 77
1, 53242, Control_c, 0, 64, 83
1, 53255, Note_off_c, 0, 88, 66
1, 53262, Note_off_c, 0, 70, 67
1, 53272, Control_c, 0, 64, 70
1, 53286, Control_c, 0, 64, 52
1, 53295, Note_on_c, 0, 79, 91
1, 53309, Control_c, 0, 64, 0
1, 53334, Note_on_c, 0, 64, 68
1, 53372, Note_on_c, 0, 81, 83
1, 53384, Control_c, 0, 64, 32
1, 53389, Note_on_c, 0, 65, 66
1, 53394, Note_off_c, 0, 79, 60
1, 53399, Control_c, 0, 64, 48
1, 53413, Control_c, 0, 64, 63
1, 53417, Note_on_c, 0, 82, 76
1, 53419, Note_off_c, 0, 64, 61
1, 53428, Control_c, 0, 64, 71
1, 53432, Note_on_c, 0, 67, 72
1, 53440, Note_off_c, 0, 81, 64
1, 53443, Control_c, 0, 64, 76
1, 53447, Note_off_c, 0, 82, 66
1, 53455, Note_off_c, 0, 65, 65
1, 53458, Control_c, 0, 64, 83
1, 53462, Note_on_c, 0, 91, 73
1, 53473, Control_c, 0, 64, 90
1, 53477, Note_off_c, 0, 67, 61
1, 53487, Note_on_c, 0, 73, 73
1, 53487, Note_off_c, 0, 91, 65
1, 53488, Control_c, 0, 64, 88
1, 53503, Control_c, 0, 64, 74
1, 53507, Note_off_c, 0, 73, 69
1, 53517, Control_c, 0, 64, 60
1, 53532, Control_c, 0, 64, 50
1, 53536, Note_on_c, 0, 82, 100
1, 53547, Control_c, 0, 64, 49
1, 53561, Control_c, 0, 64, 55
1, 53576, Note_on_c, 0, 67, 70
1, 53576, Control_c, 0, 64, 60
1, 53591, Control_c, 0, 64, 63
1, 53601, Note_on_c, 0, 84, 69
1, 53606, Control_c, 0, 64, 67
1, 53621, Control_c, 0, 64, 75
1, 53622, Note_off_c, 0, 82, 62
1, 53632, Note_on_c, 0, 69, 62
1, 53635, Control_c, 0, 64, 81
1, 53650, Control_c, 0, 64, 82
1, 53657, Note_off_c, 0, 67, 64
1, 53661, Note_on_c, 0, 70, 75
1, 53679, Note_off_c, 0, 84, 62
1, 53680, Note_off_c, 0, 69, 63
1, 53682, Note_on_c, 0, 85, 60
1, 53703, Note_off_c, 0, 85, 67
1, 53705, Note_on_c, 0, 94, 82
1, 53708, Note_on_c, 0, 76, 78
1, 53713, Note_off_c, 0, 70, 63
1, 53724, Control_c, 0, 64, 79
1, 53739, Control_c, 0, 64, 65
1, 53750, Note_off_c, 0, 76, 65
1, 53753, Control_c, 0, 64, 41
1, 53768, Note_off_c, 0, 94, 61
1, 53768, Control_c, 0, 64, 0
1, 53786, Note_on_c, 0, 79, 96
1, 53794, Note_on_c, 0, 88, 80
1, 53828, Control_c, 0, 64, 10
1, 53843, Control_c, 0, 64, 34
1, 53858, Control_c, 0, 64, 48
1, 53860, Note_on_c, 0, 86, 75
1, 53872, Control_c, 0, 64, 59
1, 53887, Control_c, 0, 64, 63
1, 53896, Note_off_c, 0, 79, 62
1, 53915, Note_on_c, 0, 85, 83
1, 53918, Note_off_c, 0, 88, 54
1, 53932, Control_c, 0, 64, 64
1, 53947, Control_c, 0, 64, 66
1, 53954, Note_off_c, 0, 86, 61
1, 53961, Control_c, 0, 64, 72
1, 53971, Note_on_c, 0, 79, 74
1, 53976, Control_c, 0, 64, 77
1, 53991, Control_c, 0, 64, 76
1, 53992, Note_off_c, 0, 85, 61
1, 54006, Control_c, 0, 64, 69
1, 54021, Control_c, 0, 64, 60
1, 54027, Note_on_c, 0, 88, 83
1, 54035, Control_c, 0, 64, 48
1, 54038, Note_off_c, 0, 79, 62
1, 54042, Note_on_c, 0, 67, 69
1, 54058, Control_c, 0, 64, 46
1, 54073, Control_c, 0, 64, 52
1, 54088, Control_c, 0, 64, 59
1, 54103, Control_c, 0, 64, 61
1, 54113, Note_on_c, 0, 86, 66
1, 54113, Note_off_c, 0, 67, 62
1, 54117, Control_c, 0, 64, 63
1, 54132, Control_c, 0, 64, 65
1, 54135, Note_on_c, 0, 69, 42
1, 54141, Note_on_c, 0, 70, 74
1, 54147, Note_off_c, 0, 88, 64
1, 54147, Control_c, 0, 64, 69
1, 54156, Note_on_c, 0, 85, 77
1, 54162, Control_c, 0, 64, 73
1, 54164, Note_off_c, 0, 69, 57
1, 54164, Note_off_c, 0, 70, 68
1, 54177, Control_c, 0, 64, 78
1, 54177, Note_off_c, 0, 86, 62
1, 54189, Note_off_c, 0, 85, 61
1, 54192, Control_c, 0, 64, 79
1, 54198, Note_on_c, 0, 94, 88
1, 54207, Control_c, 0, 64, 80
1, 54211, Note_on_c, 0, 61, 76
1, 54235, Note_off_c, 0, 61, 71
1, 54237, Control_c, 0, 64, 81
1, 54252, Control_c, 0, 64, 79
1, 54265, Note_off_c, 0, 94, 67
1, 54266, Control_c, 0, 64, 66
1, 54272, Note_on_c, 0, 88, 83
1, 54281, Control_c, 0, 64, 53
1, 54295, Note_on_c, 0, 67, 67
1, 54296, Control_c, 0, 64, 29
1, 54311, Control_c, 0, 64, 25
1, 54326, Control_c, 0, 64, 33
1, 54340, Control_c, 0, 64, 38
1, 54343, Note_on_c, 0, 86, 73
1, 54355, Control_c, 0, 64, 44
1, 54356, Note_off_c, 0, 88, 65
1, 54369, Note_off_c, 0, 67, 62
1, 54370, Control_c, 0, 64, 51
1, 54374, Note_on_c, 0, 69, 44
1, 54385, Control_c, 0, 64, 57
1, 54386, Note_on_c, 0, 70, 71
1, 54394, Note_on_c, 0, 85, 77
1, 54400, Control_c, 0, 64, 62
1, 54402, Note_off_c, 0, 69, 54
1, 54415, Control_c, 0, 64, 64
1, 54424, Note_off_c, 0, 86, 63
1, 54430, Note_off_c, 0, 70, 54
1, 54433, Note_on_c, 0, 76, 65
1, 54448, Note_on_c, 0, 79, 73
1, 54459, Control_c, 0, 64, 64
1, 54469, Note_off_c, 0, 85, 60
1, 54474, Control_c, 0, 64, 66
1, 54489, Control_c, 0, 64, 67
1, 54501, Note_on_c, 0, 88, 81
1, 54503, Note_on_c, 0, 67, 67
1, 54503, Note_off_c, 0, 76, 58
1, 54504, Control_c, 0, 64, 67
1, 54506, Note_off_c, 0, 79, 60
1, 54547, Note_on_c, 0, 69, 53
1, 54563, Control_c, 0, 64, 68
1, 54564, Note_on_c, 0, 86, 75
1, 54573, Note_off_c, 0, 67, 64
1, 54577, Control_c, 0, 64, 69
1, 54583, Note_off_c, 0, 69, 65
1, 54591, Note_on_c, 0, 70, 65
1, 54592, Control_c, 0, 64, 70
1, 54597, Note_off_c, 0, 88, 65
1, 54607, Control_c, 0, 64, 71
1, 54613, Note_on_c, 0, 85, 75
1, 54615, Note_off_c, 0, 70, 68
1, 54622, Control_c, 0, 64, 74
1, 54637, Note_off_c, 0, 86, 63
1, 54637, Control_c, 0, 64, 76
1, 54651, Control_c, 0, 64, 78
1, 54656, Note_off_c, 0, 85, 65
1, 54662, Note_on_c, 0, 61, 77
1, 54666, Note_on_c, 0, 94, 87
1, 54666, Control_c, 0, 64, 79
1, 54681, Control_c, 0, 64, 82
1, 54688, Note_off_c, 0, 61, 69
1, 54696, Control_c, 0, 64, 86
1, 54710, Control_c, 0, 64, 87
1, 54725, Control_c, 0, 64, 76
1, 54731, Note_off_c, 0, 94, 68
1, 54734, Note_on_c, 0, 88, 86
1, 54740, Control_c, 0, 64, 59
1, 54753, Note_on_c, 0, 67, 72
1, 54755, Control_c, 0, 64, 0
1, 54818, Note_on_c, 0, 86, 79
1, 54823, Note_off_c, 0, 88, 69
1, 54832, Note_on_c, 0, 69, 56
1, 54835, Control_c, 0, 64, 10
1, 54844, Note_off_c, 0, 67, 62
1, 54850, Control_c, 0, 64, 31
1, 54864, Note_on_c, 0, 70, 67
1, 54865, Note_off_c, 0, 69, 66
1, 54865, Control_c, 0, 64, 43
1, 54868, Note_on_c, 0, 85, 82
1, 54880, Control_c, 0, 64, 54
1, 54893, Note_off_c, 0, 86, 64
1, 54895, Control_c, 0, 64, 61
1, 54909, Control_c, 0, 64, 63
1, 54912, Note_off_c, 0, 70, 58
1, 54922, Note_on_c, 0, 76, 65
1, 54935, Note_on_c, 0, 79, 69
1, 54939, Note_off_c, 0, 85, 62
1, 54954, Control_c, 0, 64, 64
1, 54969, Control_c, 0, 64, 65
1, 54984, Control_c, 0, 64, 66
1, 54991, Note_on_c, 0, 85, 69
1, 54999, Control_c, 0, 64, 67
1, 55005, Note_off_c, 0, 76, 60
1, 55005, Note_on_c, 0, 70, 61
1, 55029, Note_off_c, 0, 79, 60
1, 55029, Control_c, 0, 64, 67
1, 55044, Note_on_c, 0, 86, 80
1, 55059, Note_on_c, 0, 69, 49
1, 55059, Control_c, 0, 64, 68
1, 55068, Note_off_c, 0, 70, 60
1, 55074, Control_c, 0, 64, 70
1, 55080, Note_on_c, 0, 67, 47
1, 55084, Note_off_c, 0, 69, 61
1, 55088, Control_c, 0, 64, 71
1, 55103, Control_c, 0, 64, 73
1, 55104, Note_off_c, 0, 85, 61
1, 55110, Note_off_c, 0, 67, 55
1, 55118, Control_c, 0, 64, 74
1, 55119, Note_on_c, 0, 88, 72
1, 55132, Control_c, 0, 64, 75
1, 55137, Note_off_c, 0, 86, 65
1, 55147, Note_on_c, 0, 61, 74
1, 55150, Note_on_c, 0, 94, 88
1, 55159, Note_off_c, 0, 88, 66
1, 55162, Control_c, 0, 64, 68
1, 55171, Note_off_c, 0, 61, 69
1, 55177, Control_c, 0, 64, 55
1, 55192, Control_c, 0, 64, 18
1, 55206, Control_c, 0, 64, 0
1, 55221, Control_c, 0, 64, 18
1, 55225, Note_on_c, 0, 88, 82
1, 55230, Note_off_c, 0, 94, 67
1, 55236, Control_c, 0, 64, 28
1, 55241, Note_on_c, 0, 67, 60
1, 55251, Control_c, 0, 64, 35
1, 55266, Control_c, 0, 64, 44
1, 55280, Control_c, 0, 64, 55
1, 55295, Control_c, 0, 64, 63
1, 55297, Note_on_c, 0, 86, 80
1, 55299, Note_off_c, 0, 88, 69
1, 55302, Note_on_c, 0, 69, 57
1, 55310, Control_c, 0, 64, 66
1, 55312, Note_off_c, 0, 67, 62
1, 55324, Control_c, 0, 64, 67
1, 55333, Note_on_c, 0, 70, 64
1, 55333, Note_off_c, 0, 69, 66
1, 55339, Control_c, 0, 64, 67
1, 55343, Note_on_c, 0, 85, 82
1, 55354, Control_c, 0, 64, 68
1, 55369, Control_c, 0, 64, 70
1, 55375, Note_off_c, 0, 86, 62
1, 55384, Control_c, 0, 64, 75
1, 55387, Note_off_c, 0, 70, 58
1, 55397, Note_on_c, 0, 76, 69
1, 55399, Control_c, 0, 64, 80
1, 55408, Note_on_c, 0, 79, 78
1, 55414, Control_c, 0, 64, 82
1, 55418, Note_off_c, 0, 85, 61
1, 55429, Control_c, 0, 64, 83
1, 55458, Control_c, 0, 64, 84
1, 55471, Note_off_c, 0, 76, 62
1, 55473, Control_c, 0, 64, 88
1, 55478, Note_on_c, 0, 85, 73
1, 55482, Note_on_c, 0, 70, 63
1, 55488, Control_c, 0, 64, 93
1, 55503, Control_c, 0, 64, 94
1, 55509, Note_off_c, 0, 79, 60
1, 55531, Note_on_c, 0, 69, 55
1, 55533, Note_on_c, 0, 86, 73
1, 55547, Control_c, 0, 64, 95
1, 55548, Note_off_c, 0, 70, 61
1, 55569, Note_off_c, 0, 69, 67
1, 55569, Control_c, 0, 64, 95
1, 55578, Note_on_c, 0, 67, 41
1, 55599, Note_off_c, 0, 85, 63
1, 55610, Note_off_c, 0, 67, 56
1, 55613, Note_on_c, 0, 88, 69
1, 55613, Control_c, 0, 64, 94
1, 55628, Control_c, 0, 64, 75
1, 55643, Control_c, 0, 64, 54
1, 55657, Note_off_c, 0, 86, 60
1, 55658, Control_c, 0, 64, 0
1, 55684, Note_on_c, 0, 60, 52
1, 55699, Note_off_c, 0, 88, 66
1, 55707, Note_on_c, 0, 94, 73
1, 55722, Note_off_c, 0, 60, 67
1, 55732, Control_c, 0, 64, 22
1, 55747, Control_c, 0, 64, 34
1, 55762, Control_c, 0, 64, 45
1, 55771, Note_off_c, 0, 94, 65
1, 55777, Control_c, 0, 64, 55
1, 55786, Note_on_c, 0, 88, 65
1, 55792, Control_c, 0, 64, 60
1, 55792, Control_c, 0, 67, 8
1, 55807, Control_c, 0, 64, 61
1, 55825, Note_on_c, 0, 67, 44
1, 55852, Control_c, 0, 64, 61
1, 55867, Control_c, 0, 64, 62
1, 55867, Control_c, 0, 67, 8
1, 55870, Note_on_c, 0, 86, 60
1, 55882, Control_c, 0, 64, 64
1, 55897, Control_c, 0, 67, 9
1, 55901, Note_off_c, 0, 88, 53
1, 55905, Note_off_c, 0, 67, 40
1, 55907, Note_on_c, 0, 69, 49
1, 55923, Note_on_c, 0, 84, 66
1, 55932, Note_off_c, 0, 69, 60
1, 55947, Note_off_c, 0, 86, 61
1, 55964, Note_on_c, 0, 70, 24
1, 55983, Note_off_c, 0, 84, 61
1, 55986, Note_on_c, 0, 76, 52
1, 55991, Note_on_c, 0, 79, 66
1, 56004, Note_off_c, 0, 70, 51
1, 56032, Note_off_c, 0, 76, 47
1, 56044, Control_c, 0, 67, 8
1, 56046, Note_on_c, 0, 67, 49
1, 56052, Note_off_c, 0, 79, 59
1, 56054, Note_on_c, 0, 88, 59
1, 56059, Control_c, 0, 64, 64
1, 56074, Control_c, 0, 67, 8
1, 56099, Note_on_c, 0, 86, 71
1, 56114, Note_on_c, 0, 69, 30
1, 56123, Note_off_c, 0, 67, 60
1, 56127, Note_on_c, 0, 70, 56
1, 56129, Note_off_c, 0, 88, 65
1, 56133, Control_c, 0, 64, 65
1, 56147, Control_c, 0, 64, 66
1, 56153, Note_off_c, 0, 70, 65
1, 56153, Note_off_c, 0, 86, 63
1, 56154, Note_off_c, 0, 69, 43
1, 56162, Control_c, 0, 64, 67
1, 56170, Note_on_c, 0, 84, 45
1, 56177, Control_c, 0, 64, 66
1, 56192, Control_c, 0, 64, 59
1, 56192, Control_c, 0, 67, 8
1, 56198, Note_off_c, 0, 84, 56
1, 56204, Note_on_c, 0, 94, 77
1, 56207, Note_on_c, 0, 60, 65
1, 56207, Control_c, 0, 64, 43
1, 56207, Control_c, 0, 67, 9
1, 56221, Control_c, 0, 64, 24
1, 56224, Note_off_c, 0, 60, 66
1, 56236, Control_c, 0, 64, 29
1, 56243, Note_off_c, 0, 94, 68
1, 56251, Control_c, 0, 64, 34
1, 56266, Control_c, 0, 64, 38
1, 56266, Control_c, 0, 67, 9
1, 56281, Control_c, 0, 64, 44
1, 56293, Note_on_c, 0, 88, 66
1, 56296, Control_c, 0, 64, 50
1, 56296, Control_c, 0, 67, 10
1, 56318, Control_c, 0, 64, 56
1, 56321, Note_on_c, 0, 67, 58
1, 56333, Control_c, 0, 64, 60
1, 56342, Note_on_c, 0, 86, 70
1, 56348, Control_c, 0, 64, 62
1, 56360, Note_off_c, 0, 67, 64
1, 56362, Control_c, 0, 67, 10
1, 56367, Note_off_c, 0, 88, 64
1, 56377, Control_c, 0, 67, 11
1, 56384, Note_on_c, 0, 69, 39
1, 56392, Control_c, 0, 67, 12
1, 56404, Note_on_c, 0, 84, 65
1, 56407, Control_c, 0, 64, 63
1, 56407, Control_c, 0, 67, 15
1, 56409, Note_on_c, 0, 70, 49
1, 56414, Note_off_c, 0, 69, 54
1, 56422, Control_c, 0, 64, 65
1, 56422, Control_c, 0, 67, 18
1, 56423, Note_off_c, 0, 86, 61
1, 56436, Control_c, 0, 64, 67
1, 56436, Control_c, 0, 67, 19
1, 56448, Note_off_c, 0, 70, 47
1, 56451, Control_c, 0, 64, 67
1, 56451, Control_c, 0, 67, 20
1, 56454, Note_off_c, 0, 84, 61
1, 56458, Note_on_c, 0, 79, 62
1, 56461, Note_on_c, 0, 76, 54
1, 56466, Control_c, 0, 67, 21
1, 56481, Control_c, 0, 67, 23
1, 56496, Control_c, 0, 67, 23
1, 56508, Note_off_c, 0, 76, 52
1, 56515, Note_on_c, 0, 67, 55
1, 56517, Note_on_c, 0, 88, 69
1, 56519, Note_off_c, 0, 79, 61
1, 56555, Control_c, 0, 67, 23
1, 56570, Control_c, 0, 67, 22
1, 56573, Note_on_c, 0, 69, 38
1, 56573, Note_on_c, 0, 86, 71
1, 56591, Note_off_c, 0, 67, 59
1, 56598, Note_off_c, 0, 88, 65
1, 56600, Note_on_c, 0, 70, 61
1, 56600, Control_c, 0, 67, 22
1, 56606, Note_off_c, 0, 69, 57
1, 56615, Control_c, 0, 67, 21
1, 56628, Note_off_c, 0, 70, 64
1, 56630, Note_off_c, 0, 86, 63
1, 56635, Note_on_c, 0, 84, 68
1, 56645, Control_c, 0, 67, 20
1, 56662, Note_off_c, 0, 84, 66
1, 56675, Control_c, 0, 64, 68
1, 56685, Note_on_c, 0, 94, 79
1, 56689, Control_c, 0, 64, 68
1, 56704, Control_c, 0, 64, 68
1, 56705, Note_on_c, 0, 60, 42
1, 56719, Control_c, 0, 64, 64
1, 56719, Control_c, 0, 67, 20
1, 56720, Note_off_c, 0, 94, 66
1, 56734, Control_c, 0, 64, 56
1, 56738, Note_off_c, 0, 60, 52
1, 56749, Control_c, 0, 64, 39
1, 56764, Control_c, 0, 64, 27
1, 56773, Note_on_c, 0, 88, 64
1, 56778, Control_c, 0, 64, 30
1, 56793, Control_c, 0, 64, 33
1, 56808, Control_c, 0, 64, 35
1, 56808, Control_c, 0, 67, 20
1, 56818, Note_on_c, 0, 86, 68
1, 56823, Control_c, 0, 64, 39
1, 56824, Note_off_c, 0, 88, 65
1, 56827, Note_on_c, 0, 69, 40
1, 56829, Note_on_c, 0, 67, 17
1, 56838, Control_c, 0, 64, 43
1, 56838, Control_c, 0, 67, 21
1, 56852, Control_c, 0, 64, 49
1, 56852, Control_c, 0, 67, 21
1, 56863, Note_off_c, 0, 69, 66
1, 56867, Control_c, 0, 64, 53
1, 56867, Control_c, 0, 67, 22
1, 56871, Note_off_c, 0, 67, 44
1, 56872, Note_on_c, 0, 70, 59
1, 56874, Note_on_c, 0, 84, 69
1, 56882, Control_c, 0, 64, 56
1, 56882, Control_c, 0, 67, 23
1, 56886, Note_off_c, 0, 86, 61
1, 56897, Control_c, 0, 64, 58
1, 56911, Control_c, 0, 64, 59
1, 56912, Note_off_c, 0, 70, 57
1, 56926, Control_c, 0, 64, 60
1, 56928, Note_off_c, 0, 84, 61
1, 56934, Note_on_c, 0, 79, 67
1, 56938, Note_on_c, 0, 76, 55
1, 56941, Control_c, 0, 64, 60
1, 56956, Control_c, 0, 64, 57
1, 56970, Control_c, 0, 64, 51
1, 56985, Control_c, 0, 64, 46
1, 57000, Note_off_c, 0, 76, 52
1, 57002, Note_on_c, 0, 70, 54
1, 57011, Note_on_c, 0, 84, 57
1, 57015, Note_off_c, 0, 79, 57
1, 57015, Control_c, 0, 64, 48
1, 57030, Control_c, 0, 64, 49
1, 57046, Control_c, 0, 64, 51
1, 57062, Note_off_c, 0, 70, 60
1, 57066, Note_on_c, 0, 69, 49
1, 57068, Control_c, 0, 64, 52
1, 57068, Note_on_c, 0, 86, 65
1, 57083, Control_c, 0, 64, 54
1, 57095, Note_off_c, 0, 69, 63
1, 57097, Note_off_c, 0, 84, 63
1, 57098, Control_c, 0, 64, 57
1, 57100, Note_on_c, 0, 67, 39
1, 57112, Control_c, 0, 64, 60
1, 57127, Control_c, 0, 64, 62
1, 57127, Control_c, 0, 67, 24
1, 57130, Note_off_c, 0, 67, 54
1, 57131, Note_on_c, 0, 88, 65
1, 57142, Note_off_c, 0, 86, 61
1, 57142, Control_c, 0, 64, 63
1, 57142, Control_c, 0, 67, 24
1, 57157, Control_c, 0, 64, 62
1, 57157, Control_c, 0, 67, 25
1, 57172, Control_c, 0, 64, 57
1, 57172, Control_c, 0, 67, 29
1, 57177, Note_on_c, 0, 59, 59
1, 57185, Note_off_c, 0, 88, 66
1, 57186, Control_c, 0, 64, 45
1, 57186, Control_c, 0, 67, 35
1, 57195, Note_on_c, 0, 94, 67
1, 57197, Note_off_c, 0, 59, 61
1, 57201, Control_c, 0, 64, 24
1, 57201, Control_c, 0, 67, 38
1, 57216, Control_c, 0, 64, 21
1, 57216, Control_c, 0, 67, 39
1, 57231, Control_c, 0, 64, 27
1, 57238, Note_off_c, 0, 94, 65
1, 57246, Control_c, 0, 64, 31
1, 57260, Note_on_c, 0, 88, 57
1, 57260, Control_c, 0, 64, 35
1, 57275, Control_c, 0, 64, 40
1, 57289, Note_on_c, 0, 67, 58
1, 57290, Control_c, 0, 64, 46
1, 57304, Control_c, 0, 64, 51
1, 57319, Control_c, 0, 64, 54
1, 57326, Note_off_c, 0, 88, 67
1, 57330, Note_on_c, 0, 86, 75
1, 57330, Note_off_c, 0, 67, 63
1, 57364, Control_c, 0, 64, 55
1, 57380, Note_on_c, 0, 70, 55
1, 57380, Control_c, 0, 64, 56
1, 57389, Note_on_c, 0, 84, 68
1, 57391, Note_off_c, 0, 86, 61
1, 57395, Control_c, 0, 64, 58
1, 57405, Poly_aftertouch_c, 0, 69, 127
1, 57409, Control_c, 0, 64, 58
1, 57415, Note_off_c, 0, 70, 48
1, 57429, Poly_aftertouch_c, 0, 69, 0
1, 57446, Note_off_c, 0, 84, 63
1, 57450, Note_on_c, 0, 79, 66
1, 57461, Note_on_c, 0, 76, 48
1, 57469, Control_c, 0, 64, 59
1, 57483, Control_c, 0, 64, 58
1, 57498, Control_c, 0, 64, 54
1, 57511, Note_off_c, 0, 76, 50
1, 57513, Note_on_c, 0, 70, 53
1, 57513, Control_c, 0, 64, 46
1, 57527, Control_c, 0, 64, 33
1, 57536, Note_on_c, 0, 84, 50
1, 57540, Note_off_c, 0, 79, 57
1, 57542, Control_c, 0, 64, 30
1, 57557, Control_c, 0, 64, 31
1, 57572, Control_c, 0, 64, 33
1, 57587, Note_off_c, 0, 70, 58
1, 57587, Control_c, 0, 64, 36
1, 57588, Note_on_c, 0, 86, 58
1, 57596, Note_on_c, 0, 69, 35
1, 57602, Control_c, 0, 64, 40
1, 57617, Control_c, 0, 64, 46
1, 57626, Note_off_c, 0, 69, 57
1, 57630, Note_off_c, 0, 84, 60
1, 57631, Control_c, 0, 64, 52
1, 57646, Control_c, 0, 64, 57
1, 57661, Control_c, 0, 64, 59
1, 57669, Note_on_c, 0, 88, 63
1, 57676, Control_c, 0, 64, 61
1, 57681, Poly_aftertouch_c, 0, 67, 127
1, 57683, Note_off_c, 0, 86, 61
1, 57691, Control_c, 0, 67, 40
1, 57711, Poly_aftertouch_c, 0, 67, 0
1, 57724, Note_on_c, 0, 60, 56
1, 57735, Control_c, 0, 67, 40
1, 57746, Note_off_c, 0, 88, 65
1, 57750, Control_c, 0, 67, 41
1, 57751, Note_off_c, 0, 60, 61
1, 57755, Note_on_c, 0, 94, 65
1, 57765, Control_c, 0, 67, 42
1, 57780, Control_c, 0, 67, 43
1, 57801, Control_c, 0, 64, 60
1, 57802, Note_off_c, 0, 94, 56
1, 57859, Note_on_c, 0, 88, 62
1, 57888, Note_on_c, 0, 67, 44
1, 57906, Control_c, 0, 64, 60
1, 57937, Note_on_c, 0, 86, 60
1, 57956, Note_off_c, 0, 88, 51
1, 57980, Note_off_c, 0, 67, 54
1, 58004, Note_on_c, 0, 84, 60
1, 58017, Note_off_c, 0, 86, 54
1, 58055, Note_on_c, 0, 70, 40
1, 58075, Note_off_c, 0, 84, 63
1, 58083, Control_c, 0, 67, 43
1, 58085, Note_off_c, 0, 70, 53
1, 58105, Note_on_c, 0, 79, 47
1, 58113, Control_c, 0, 64, 59
1, 58122, Note_on_c, 0, 76, 43
1, 58127, Control_c, 0, 64, 55
1, 58142, Control_c, 0, 64, 46
1, 58157, Note_off_c, 0, 76, 51
1, 58157, Control_c, 0, 64, 24
1, 58173, Control_c, 0, 64, 0
1, 58175, Note_off_c, 0, 79, 41
1, 58180, Note_on_c, 0, 89, 54
1, 58188, Note_on_c, 0, 68, 49
1, 58203, Control_c, 0, 64, 16
1, 58203, Control_c, 0, 67, 42
1, 58218, Control_c, 0, 64, 22
1, 58232, Control_c, 0, 64, 26
1, 58232, Control_c, 0, 67, 42
1, 58247, Control_c, 0, 64, 32
1, 58247, Control_c, 0, 67, 41
1, 58262, Control_c, 0, 64, 39
1, 58267, Note_on_c, 0, 88, 55
1, 58272, Note_off_c, 0, 89, 54
1, 58277, Note_on_c, 0, 69, 42
1, 58277, Control_c, 0, 64, 47
1, 58292, Control_c, 0, 64, 53
1, 58304, Note_off_c, 0, 68, 36
1, 58306, Control_c, 0, 64, 56
1, 58321, Control_c, 0, 64, 57
1, 58321, Control_c, 0, 67, 41
1, 58329, Note_off_c, 0, 69, 51
1, 58332, Note_on_c, 0, 86, 47
1, 58336, Control_c, 0, 64, 56
1, 58336, Control_c, 0, 67, 40
1, 58341, Note_off_c, 0, 88, 53
1, 58342, Note_on_c, 0, 71, 38
1, 58365, Control_c, 0, 64, 57
1, 58380, Control_c, 0, 64, 59
1, 58386, Note_on_c, 0, 80, 49
1, 58386, Note_off_c, 0, 86, 41
1, 58390, Note_off_c, 0, 71, 45
1, 58391, Note_on_c, 0, 77, 42
1, 58395, Control_c, 0, 64, 60
1, 58410, Control_c, 0, 64, 60
1, 58437, Note_off_c, 0, 80, 50
1, 58442, Note_on_c, 0, 89, 47
1, 58448, Note_off_c, 0, 77, 42
1, 58458, Note_on_c, 0, 68, 43
1, 58469, Control_c, 0, 67, 40
1, 58494, Note_on_c, 0, 88, 53
1, 58514, Control_c, 0, 67, 39
1, 58528, Note_off_c, 0, 89, 59
1, 58532, Note_off_c, 0, 68, 49
1, 58550, Control_c, 0, 67, 39
1, 58553, Note_on_c, 0, 69, 26
1, 58565, Control_c, 0, 64, 61
1, 58569, Note_on_c, 0, 86, 51
1, 58576, Note_off_c, 0, 88, 63
1, 58579, Note_on_c, 0, 71, 40
1, 58591, Note_off_c, 0, 69, 52
1, 58609, Note_off_c, 0, 86, 55
1, 58611, Note_on_c, 0, 80, 60
1, 58624, Control_c, 0, 64, 60
1, 58633, Note_on_c, 0, 77, 14
1, 58639, Note_off_c, 0, 71, 46
1, 58639, Control_c, 0, 64, 59
1, 58654, Control_c, 0, 64, 53
1, 58654, Control_c, 0, 67, 38
1, 58657, Note_off_c, 0, 80, 58
1, 58669, Control_c, 0, 64, 33
1, 58669, Control_c, 0, 67, 38
1, 58670, Note_on_c, 0, 67, 57
1, 58680, Note_off_c, 0, 77, 48
1, 58684, Control_c, 0, 64, 0
1, 58684, Control_c, 0, 67, 37
1, 58686, Note_on_c, 0, 88, 56
1, 58699, Control_c, 0, 67, 36
1, 58713, Control_c, 0, 67, 36
1, 58728, Control_c, 0, 64, 18
1, 58728, Control_c, 0, 67, 35
1, 58740, Note_on_c, 0, 86, 52
1, 58743, Control_c, 0, 64, 24
1, 58754, Note_off_c, 0, 67, 59
1, 58758, Control_c, 0, 64, 31
1, 58758, Control_c, 0, 67, 35
1, 58767, Note_on_c, 0, 69, 47
1, 58771, Note_off_c, 0, 88, 61
1, 58773, Control_c, 0, 64, 40
1, 58773, Control_c, 0, 67, 34
1, 58788, Control_c, 0, 64, 49
1, 58788, Control_c, 0, 67, 33
1, 58801, Note_on_c, 0, 85, 51
1, 58803, Control_c, 0, 64, 56
1, 58803, Control_c, 0, 67, 32
1, 58808, Note_off_c, 0, 69, 52
1, 58811, Note_on_c, 0, 70, 41
1, 58816, Note_off_c, 0, 86, 57
1, 58818, Control_c, 0, 64, 59
1, 58818, Control_c, 0, 67, 31
1, 58832, Control_c, 0, 64, 61
1, 58832, Control_c, 0, 67, 30
1, 58847, Control_c, 0, 67, 30
1, 58848, Note_off_c, 0, 85, 61
1, 58861, Note_on_c, 0, 79, 57
1, 58862, Control_c, 0, 64, 60
1, 58862, Control_c, 0, 67, 29
1, 58863, Note_off_c, 0, 70, 44
1, 58864, Note_on_c, 0, 76, 48
1, 58876, Control_c, 0, 64, 58
1, 58876, Control_c, 0, 67, 28
1, 58891, Control_c, 0, 64, 52
1, 58891, Control_c, 0, 67, 25
1, 58906, Control_c, 0, 64, 42
1, 58906, Control_c, 0, 67, 21
1, 58907, Note_off_c, 0, 76, 48
1, 58910, Note_off_c, 0, 79, 55
1, 58913, Note_on_c, 0, 88, 52
1, 58921, Control_c, 0, 64, 35
1, 58921, Control_c, 0, 67, 15
1, 58925, Note_on_c, 0, 67, 49
1, 58936, Control_c, 0, 64, 37
1, 58936, Control_c, 0, 67, 0
1, 58950, Control_c, 0, 64, 42
1, 58965, Control_c, 0, 64, 45
1, 58971, Note_on_c, 0, 86, 53
1, 58981, Control_c, 0, 64, 49
1, 58996, Control_c, 0, 64, 54
1, 59001, Note_off_c, 0, 67, 48
1, 59011, Control_c, 0, 64, 57
1, 59012, Note_off_c, 0, 88, 37
1, 59018, Note_on_c, 0, 69, 41
1, 59026, Note_on_c, 0, 85, 57
1, 59026, Control_c, 0, 64, 60
1, 59030, Note_off_c, 0, 86, 56
1, 59041, Control_c, 0, 64, 61
1, 59049, Note_off_c, 0, 69, 55
1, 59070, Control_c, 0, 64, 60
1, 59074, Note_on_c, 0, 70, 27
1, 59074, Note_off_c, 0, 85, 59
1, 59085, Note_on_c, 0, 79, 58
1, 59100, Control_c, 0, 64, 57
1, 59103, Note_on_c, 0, 76, 50
1, 59109, Note_off_c, 0, 70, 51
1, 59115, Control_c, 0, 64, 47
1, 59129, Control_c, 0, 64, 24
1, 59132, Note_off_c, 0, 79, 54
1, 59144, Note_on_c, 0, 89, 57
1, 59144, Control_c, 0, 64, 0
1, 59152, Note_off_c, 0, 76, 54
1, 59178, Note_on_c, 0, 68, 42
1, 59188, Control_c, 0, 64, 12
1, 59203, Control_c, 0, 64, 20
1, 59214, Note_on_c, 0, 88, 51
1, 59218, Control_c, 0, 64, 28
1, 59223, Note_on_c, 0, 69, 45
1, 59223, Note_off_c, 0, 68, 46
1, 59223, Note_off_c, 0, 89, 52
1, 59233, Control_c, 0, 64, 36
1, 59247, Control_c, 0, 64, 45
1, 59262, Control_c, 0, 64, 51
1, 59265, Note_off_c, 0, 88, 56
1, 59269, Note_on_c, 0, 86, 49
1, 59271, Note_off_c, 0, 69, 61
1, 59277, Control_c, 0, 64, 55
1, 59290, Note_on_c, 0, 71, 50
1, 59298, Control_c, 0, 64, 56
1, 59325, Note_off_c, 0, 86, 52
1, 59328, Note_on_c, 0, 80, 52
1, 59343, Control_c, 0, 64, 57
1, 59344, Note_off_c, 0, 71, 59
1, 59348, Note_on_c, 0, 77, 42
1, 59358, Control_c, 0, 64, 58
1, 59372, Control_c, 0, 64, 56
1, 59379, Note_off_c, 0, 80, 48
1, 59385, Note_on_c, 0, 89, 45
1, 59387, Control_c, 0, 64, 52
1, 59402, Control_c, 0, 64, 46
1, 59405, Note_off_c, 0, 77, 45
1, 59408, Note_on_c, 0, 68, 55
1, 59417, Control_c, 0, 64, 39
1, 59432, Control_c, 0, 64, 36
1, 59447, Control_c, 0, 64, 38
1, 59448, Note_on_c, 0, 88, 52
1, 59462, Control_c, 0, 64, 42
1, 59477, Control_c, 0, 64, 47
1, 59477, Note_on_c, 0, 69, 34
1, 59484, Note_off_c, 0, 68, 55
1, 59486, Note_off_c, 0, 89, 43
1, 59491, Control_c, 0, 64, 51
1, 59506, Control_c, 0, 64, 56
1, 59510, Note_on_c, 0, 86, 50
1, 59510, Note_off_c, 0, 88, 58
1, 59512, Note_off_c, 0, 69, 53
1, 59521, Control_c, 0, 64, 59
1, 59521, Note_on_c, 0, 71, 41
1, 59536, Control_c, 0, 64, 62
1, 59547, Note_on_c, 0, 77, 50
1, 59551, Control_c, 0, 64, 62
1, 59554, Note_on_c, 0, 80, 59
1, 59558, Note_off_c, 0, 86, 55
1, 59566, Control_c, 0, 64, 62
1, 59566, Note_off_c, 0, 71, 50
1, 59580, Control_c, 0, 64, 60
1, 59595, Control_c, 0, 64, 51
1, 59601, Note_off_c, 0, 77, 54
1, 59608, Note_on_c, 0, 90, 65
1, 59610, Control_c, 0, 64, 28
1, 59611, Note_off_c, 0, 80, 60
1, 59625, Control_c, 0, 64, 0
1, 59654, Control_c, 0, 64, 12
1, 59662, Note_on_c, 0, 69, 35
1, 59669, Control_c, 0, 64, 20
1, 59684, Control_c, 0, 64, 27
1, 59687, Note_on_c, 0, 70, 52
1, 59688, Note_on_c, 0, 88, 62
1, 59697, Note_off_c, 0, 90, 59
1, 59698, Control_c, 0, 64, 34
1, 59708, Note_off_c, 0, 69, 64
1, 59713, Control_c, 0, 64, 42
1, 59728, Control_c, 0, 64, 51
1, 59742, Note_on_c, 0, 87, 47
1, 59743, Control_c, 0, 64, 57
1, 59747, Note_off_c, 0, 70, 53
1, 59758, Control_c, 0, 64, 59
1, 59759, Note_off_c, 0, 88, 60
1, 59778, Note_on_c, 0, 72, 5
1, 59787, Note_off_c, 0, 87, 62
1, 59788, Note_on_c, 0, 78, 51
1, 59790, Note_on_c, 0, 81, 64
1, 59803, Control_c, 0, 64, 60
1, 59818, Control_c, 0, 64, 62
1, 59833, Note_off_c, 0, 78, 52
1, 59840, Note_off_c, 0, 72, 49
1, 59848, Note_on_c, 0, 69, 56
1, 59848, Control_c, 0, 64, 59
1, 59853, Note_off_c, 0, 81, 55
1, 59855, Note_on_c, 0, 90, 65
1, 59863, Control_c, 0, 64, 54
1, 59877, Control_c, 0, 64, 46
1, 59892, Control_c, 0, 64, 41
1, 59900, Note_on_c, 0, 70, 48
1, 59907, Control_c, 0, 64, 44
1, 59914, Note_off_c, 0, 69, 59
1, 59921, Control_c, 0, 64, 49
1, 59923, Note_on_c, 0, 88, 67
1, 59934, Note_on_c, 0, 72, 58
1, 59936, Control_c, 0, 64, 53
1, 59951, Control_c, 0, 64, 58
1, 59953, Note_off_c, 0, 90, 61
1, 59966, Note_off_c, 0, 70, 55
1, 59966, Control_c, 0, 64, 61
1, 59973, Note_on_c, 0, 87, 55
1, 59981, Control_c, 0, 64, 63
1, 59995, Control_c, 0, 64, 63
1, 60009, Note_off_c, 0, 88, 61
1, 60012, Note_off_c, 0, 72, 58
1, 60017, Note_on_c, 0, 78, 63
1, 60019, Note_on_c, 0, 81, 66
1, 60031, Note_off_c, 0, 87, 58
1, 60077, Control_c, 0, 64, 62
1, 60086, Note_off_c, 0, 81, 60
1, 60090, Note_off_c, 0, 78, 62
1, 60091, Note_on_c, 0, 91, 68
1, 60092, Control_c, 0, 64, 56
1, 60093, Note_on_c, 0, 70, 54
1, 60107, Control_c, 0, 64, 37
1, 60121, Control_c, 0, 64, 9
1, 60136, Control_c, 0, 64, 14
1, 60151, Note_on_c, 0, 72, 53
1, 60151, Control_c, 0, 64, 23
1, 60156, Note_on_c, 0, 89, 69
1, 60166, Control_c, 0, 64, 28
1, 60169, Note_off_c, 0, 70, 59
1, 60181, Control_c, 0, 64, 33
1, 60191, Note_off_c, 0, 91, 58
1, 60196, Control_c, 0, 64, 39
1, 60197, Note_on_c, 0, 73, 57
1, 60210, Control_c, 0, 64, 48
1, 60215, Note_on_c, 0, 88, 63
1, 60218, Note_off_c, 0, 72, 60
1, 60225, Control_c, 0, 64, 55
1, 60240, Control_c, 0, 64, 60
1, 60246, Note_off_c, 0, 89, 63
1, 60255, Control_c, 0, 64, 61
1, 60260, Note_on_c, 0, 82, 70
1, 60262, Note_off_c, 0, 73, 62
1, 60269, Note_on_c, 0, 79, 63
1, 60294, Note_off_c, 0, 88, 51
1, 60299, Control_c, 0, 64, 63
1, 60314, Control_c, 0, 64, 64
1, 60320, Note_on_c, 0, 91, 73
1, 60329, Control_c, 0, 64, 65
1, 60329, Note_off_c, 0, 82, 63
1, 60338, Note_off_c, 0, 79, 54
1, 60344, Control_c, 0, 64, 62
1, 60346, Note_on_c, 0, 70, 63
1, 60359, Control_c, 0, 64, 57
1, 60374, Control_c, 0, 64, 48
1, 60389, Control_c, 0, 64, 44
1, 60389, Note_on_c, 0, 89, 68
1, 60393, Note_on_c, 0, 72, 52
1, 60403, Control_c, 0, 64, 48
1, 60418, Control_c, 0, 64, 54
1, 60422, Note_off_c, 0, 70, 55
1, 60427, Note_on_c, 0, 73, 62
1, 60430, Note_off_c, 0, 91, 59
1, 60433, Control_c, 0, 64, 59
1, 60439, Note_on_c, 0, 88, 70
1, 60442, Note_off_c, 0, 72, 60
1, 60447, Control_c, 0, 64, 63
1, 60462, Control_c, 0, 64, 67
1, 60468, Note_off_c, 0, 89, 65
1, 60477, Control_c, 0, 64, 70
1, 60491, Note_on_c, 0, 79, 69
1, 60492, Note_off_c, 0, 88, 65
1, 60492, Control_c, 0, 64, 72
1, 60493, Note_on_c, 0, 82, 79
1, 60497, Note_off_c, 0, 73, 62
1, 60507, Control_c, 0, 64, 73
1, 60521, Control_c, 0, 64, 73
1, 60544, Note_off_c, 0, 79, 58
1, 60553, Note_on_c, 0, 90, 86
1, 60562, Note_off_c, 0, 82, 63
1, 60566, Control_c, 0, 64, 71
1, 60568, Note_on_c, 0, 69, 71
1, 60582, Control_c, 0, 64, 63
1, 60597, Control_c, 0, 64, 51
1, 60612, Control_c, 0, 64, 35
1, 60626, Note_on_c, 0, 70, 46
1, 60626, Control_c, 0, 64, 37
1, 60632, Note_on_c, 0, 88, 80
1, 60641, Control_c, 0, 64, 44
1, 60656, Control_c, 0, 64, 50
1, 60666, Note_off_c, 0, 69, 63
1, 60671, Control_c, 0, 64, 56
1, 60679, Note_on_c, 0, 72, 72
1, 60684, Note_off_c, 0, 90, 64
1, 60686, Control_c, 0, 64, 61
1, 60687, Note_on_c, 0, 87, 81
1, 60700, Control_c, 0, 64, 64
1, 60714, Note_off_c, 0, 70, 62
1, 60715, Control_c, 0, 64, 68
1, 60718, Note_off_c, 0, 88, 64
1, 60730, Control_c, 0, 64, 70
1, 60733, Note_on_c, 0, 78, 81
1, 60744, Note_on_c, 0, 81, 81
1, 60744, Control_c, 0, 64, 71
1, 60759, Control_c, 0, 64, 72
1, 60769, Note_off_c, 0, 72, 53
1, 60773, Note_off_c, 0, 87, 64
1, 60797, Control_c, 0, 64, 71
1, 60807, Note_on_c, 0, 90, 85
1, 60810, Note_on_c, 0, 69, 77
1, 60812, Control_c, 0, 64, 65
1, 60821, Note_off_c, 0, 81, 60
1, 60824, Note_off_c, 0, 78, 65
1, 60827, Control_c, 0, 64, 59
1, 60842, Control_c, 0, 64, 48
1, 60857, Control_c, 0, 64, 45
1, 60872, Note_on_c, 0, 70, 66
1, 60872, Control_c, 0, 64, 52
1, 60878, Note_on_c, 0, 88, 84
1, 60887, Control_c, 0, 64, 58
1, 60901, Control_c, 0, 64, 63
1, 60913, Note_on_c, 0, 72, 73
1, 60913, Note_off_c, 0, 69, 64
1, 60916, Control_c, 0, 64, 66
1, 60919, Note_on_c, 0, 87, 83
1, 60931, Control_c, 0, 64, 69
1, 60941, Note_off_c, 0, 90, 64
1, 60945, Control_c, 0, 64, 73
1, 60960, Control_c, 0, 64, 76
1, 60961, Note_off_c, 0, 70, 62
1, 60972, Note_off_c, 0, 88, 64
1, 60975, Control_c, 0, 64, 77
1, 60977, Note_on_c, 0, 81, 86
1, 60981, Note_on_c, 0, 78, 89
1, 60991, Note_off_c, 0, 72, 60
1, 61012, Note_off_c, 0, 87, 65
1, 61032, Note_off_c, 0, 81, 62
1, 61034, Control_c, 0, 64, 74
1, 61036, Note_off_c, 0, 78, 66
1, 61041, Note_on_c, 0, 92, 83
1, 61049, Control_c, 0, 64, 63
1, 61056, Note_on_c, 0, 70, 86
1, 61064, Control_c, 0, 64, 39
1, 61065, Note_on_c, 0, 91, 80
1, 61078, Control_c, 0, 64, 0
1, 61108, Control_c, 0, 64, 17
1, 61119, Note_on_c, 0, 89, 81
1, 61121, Note_on_c, 0, 72, 70
1, 61123, Control_c, 0, 64, 30
1, 61138, Control_c, 0, 64, 42
1, 61152, Control_c, 0, 64, 58
1, 61167, Control_c, 0, 64, 69
1, 61173, Note_on_c, 0, 73, 79
1, 61176, Note_off_c, 0, 91, 56
1, 61178, Note_off_c, 0, 92, 49
1, 61181, Note_off_c, 0, 70, 55
1, 61182, Control_c, 0, 64, 75
1, 61191, Note_on_c, 0, 88, 83
1, 61194, Note_on_c, 0, 87, 55
1, 61212, Control_c, 0, 64, 75
1, 61226, Control_c, 0, 64, 77
1, 61234, Note_off_c, 0, 72, 62
1, 61235, Note_on_c, 0, 82, 95
1, 61241, Control_c, 0, 64, 83
1, 61244, Note_off_c, 0, 89, 60
1, 61245, Note_on_c, 0, 79, 84
1, 61256, Control_c, 0, 64, 91
1, 61266, Note_off_c, 0, 88, 65
1, 61267, Note_off_c, 0, 87, 62
1, 61271, Control_c, 0, 64, 91
1, 61271, Note_off_c, 0, 73, 62
1, 61301, Control_c, 0, 64, 79
1, 61307, Note_off_c, 0, 82, 65
1, 61310, Note_on_c, 0, 91, 88
1, 61311, Note_on_c, 0, 70, 83
1, 61316, Control_c, 0, 64, 61
1, 61321, Note_off_c, 0, 79, 52
1, 61331, Control_c, 0, 64, 24
1, 61345, Control_c, 0, 64, 0
1, 61353, Note_on_c, 0, 72, 69
1, 61389, Note_on_c, 0, 89, 84
1, 61390, Control_c, 0, 64, 26
1, 61405, Control_c, 0, 64, 41
1, 61420, Control_c, 0, 64, 54
1, 61423, Note_on_c, 0, 73, 77
1, 61435, Control_c, 0, 64, 64
1, 61441, Note_off_c, 0, 91, 58
1, 61441, Note_off_c, 0, 70, 53
1, 61444, Note_on_c, 0, 88, 85
1, 61450, Control_c, 0, 64, 70
1, 61465, Control_c, 0, 64, 71
1, 61480, Control_c, 0, 64, 74
1, 61486, Note_off_c, 0, 72, 55
1, 61494, Note_on_c, 0, 79, 85
1, 61494, Control_c, 0, 64, 77
1, 61499, Note_off_c, 0, 89, 62
1, 61506, Note_on_c, 0, 82, 94
1, 61509, Control_c, 0, 64, 81
1, 61524, Control_c, 0, 64, 87
1, 61530, Note_off_c, 0, 88, 63
1, 61533, Note_off_c, 0, 73, 64
1, 61539, Control_c, 0, 64, 92
1, 61541, Note_off_c, 0, 79, 63
1, 61561, Control_c, 0, 64, 94
1, 61575, Control_c, 0, 64, 95
1, 61595, Note_on_c, 0, 92, 95
1, 61597, Note_off_c, 0, 82, 65
1, 61603, Note_on_c, 0, 71, 79
1, 61605, Control_c, 0, 64, 86
1, 61620, Control_c, 0, 64, 66
1, 61635, Control_c, 0, 64, 40
1, 61650, Control_c, 0, 64, 0
1, 61660, Note_off_c, 0, 92, 64
1, 61662, Note_on_c, 0, 72, 62
1, 61665, Control_c, 0, 64, 10
1, 61679, Control_c, 0, 64, 31
1, 61683, Note_on_c, 0, 91, 92
1, 61691, Note_off_c, 0, 71, 65
1, 61694, Control_c, 0, 64, 42
1, 61696, Note_on_c, 0, 74, 66
1, 61709, Control_c, 0, 64, 56
1, 61724, Control_c, 0, 64, 69
1, 61738, Note_on_c, 0, 80, 76
1, 61739, Control_c, 0, 64, 88
1, 61754, Control_c, 0, 64, 94
1, 61765, Note_off_c, 0, 80, 66
1, 61766, Note_on_c, 0, 89, 83
1, 61768, Control_c, 0, 64, 108
1, 61769, Note_off_c, 0, 74, 55
1, 61773, Note_off_c, 0, 72, 58
1, 61783, Control_c, 0, 64, 127
1, 61833, Note_on_c, 0, 83, 91
1, 61858, Note_on_c, 0, 65, 81
1, 61870, Note_off_c, 0, 89, 65
1, 61909, Note_on_c, 0, 72, 74
1, 61912, Note_off_c, 0, 83, 62
1, 61913, Note_off_c, 0, 91, 22
1, 61916, Control_c, 0, 64, 78
1, 61931, Note_off_c, 0, 65, 65
1, 61931, Control_c, 0, 64, 46
1, 61946, Control_c, 0, 64, 0
1, 61970, Note_on_c, 0, 81, 108
1, 61975, Note_on_c, 0, 74, 38
1, 61984, Note_on_c, 0, 93, 90
1, 62005, Control_c, 0, 64, 31
1, 62020, Control_c, 0, 64, 54
1, 62025, Note_off_c, 0, 74, 46
1, 62033, Note_off_c, 0, 81, 68
1, 62035, Control_c, 0, 64, 69
1, 62049, Control_c, 0, 64, 87
1, 62051, Note_on_c, 0, 91, 81
1, 62057, Note_off_c, 0, 72, 62
1, 62064, Control_c, 0, 64, 90
1, 62079, Control_c, 0, 64, 93
1, 62094, Control_c, 0, 64, 99
1, 62094, Note_off_c, 0, 93, 57
1, 62103, Note_on_c, 0, 89, 82
1, 62109, Control_c, 0, 64, 127
1, 62142, Note_off_c, 0, 91, 58
1, 62159, Note_on_c, 0, 84, 84
1, 62168, Note_off_c, 0, 89, 64
1, 62205, Note_off_c, 0, 84, 64
1, 62242, Note_on_c, 0, 81, 85
1, 62303, Note_on_c, 0, 79, 79
1, 62326, Note_off_c, 0, 81, 62
1, 62347, Note_on_c, 0, 77, 77
1, 62354, Control_c, 0, 64, 74
1, 62369, Control_c, 0, 64, 52
1, 62380, Note_off_c, 0, 79, 61
1, 62384, Control_c, 0, 64, 0
1, 62404, Note_on_c, 0, 72, 80
1, 62405, Note_off_c, 0, 77, 63
1, 62453, Note_off_c, 0, 72, 61
1, 62463, Note_on_c, 0, 60, 80
1, 62469, Note_on_c, 0, 53, 69
1, 62472, Control_c, 0, 64, 22
1, 62483, Note_off_c, 0, 60, 70
1, 62484, Note_on_c, 0, 69, 79
1, 62487, Control_c, 0, 64, 35
1, 62494, Note_off_c, 0, 53, 67
1, 62502, Control_c, 0, 64, 42
1, 62517, Control_c, 0, 64, 44
1, 62532, Control_c, 0, 64, 45
1, 62544, Note_on_c, 0, 67, 71
1, 62547, Control_c, 0, 64, 44
1, 62554, Note_off_c, 0, 69, 66
1, 62562, Control_c, 0, 64, 39
1, 62577, Control_c, 0, 64, 31
1, 62591, Control_c, 0, 64, 28
1, 62597, Note_on_c, 0, 65, 73
1, 62606, Control_c, 0, 64, 26
1, 62615, Note_off_c, 0, 67, 59
1, 62621, Control_c, 0, 64, 15
1, 62636, Control_c, 0, 64, 0
1, 62653, Note_on_c, 0, 60, 68
1, 62654, Note_off_c, 0, 65, 67
1, 62706, Note_off_c, 0, 60, 64
1, 62726, Note_on_c, 0, 48, 66
1, 62737, Note_on_c, 0, 57, 74
1, 62738, Note_on_c, 0, 41, 57
1, 62749, Note_off_c, 0, 48, 61
1, 62754, Control_c, 0, 64, 18
1, 62768, Note_off_c, 0, 41, 56
1, 62769, Control_c, 0, 64, 35
1, 62784, Control_c, 0, 64, 43
1, 62798, Note_off_c, 0, 57, 63
1, 62798, Control_c, 0, 64, 45
1, 62806, Note_on_c, 0, 55, 68
1, 62828, Control_c, 0, 64, 43
1, 62842, Control_c, 0, 64, 38
1, 62857, Control_c, 0, 64, 28
1, 62859, Note_on_c, 0, 53, 64
1, 62860, Note_off_c, 0, 55, 64
1, 62872, Control_c, 0, 64, 0
1, 62922, Note_off_c, 0, 53, 64
1, 62930, Note_on_c, 0, 48, 69
1, 62987, Note_off_c, 0, 48, 61
1, 62997, Note_on_c, 0, 41, 77
1, 63003, Note_on_c, 0, 29, 67
1, 63012, Note_on_c, 0, 53, 64
1, 63021, Note_off_c, 0, 41, 68
1, 63021, Control_c, 0, 64, 23
1, 63033, Note_off_c, 0, 29, 55
1, 63043, Control_c, 0, 64, 38
1, 63058, Control_c, 0, 64, 49
1, 63073, Control_c, 0, 64, 60
1, 63075, Note_on_c, 0, 55, 62
1, 63088, Control_c, 0, 64, 62
1, 63102, Control_c, 0, 64, 63
1, 63109, Note_off_c, 0, 53, 64
1, 63134, Note_on_c, 0, 57, 56
1, 63143, Note_off_c, 0, 55, 65
1, 63161, Control_c, 0, 64, 62
1, 63164, Note_off_c, 0, 57, 64
1, 63236, Control_c, 0, 64, 62
1, 63238, Note_on_c, 0, 60, 53
1, 63250, Control_c, 0, 64, 59
1, 63265, Control_c, 0, 64, 45
1, 63274, Note_off_c, 0, 60, 59
1, 63280, Control_c, 0, 64, 0
1, 63308, Note_on_c, 0, 50, 63
1, 63310, Note_on_c, 0, 65, 59
1, 63393, Note_on_c, 0, 67, 50
1, 63398, Note_off_c, 0, 65, 63
1, 63399, Control_c, 0, 64, 22
1, 63414, Control_c, 0, 64, 31
1, 63428, Control_c, 0, 64, 36
1, 63429, Note_on_c, 0, 69, 59
1, 63429, Note_off_c, 0, 67, 62
1, 63443, Control_c, 0, 64, 39
1, 63452, Note_off_c, 0, 69, 66
1, 63458, Control_c, 0, 64, 40
1, 63487, Control_c, 0, 64, 39
1, 63502, Control_c, 0, 64, 28
1, 63517, Control_c, 0, 64, 0
1, 63522, Note_on_c, 0, 48, 71
1, 63524, Note_off_c, 0, 50, 63
1, 63530, Note_on_c, 0, 72, 57
1, 63559, Note_off_c, 0, 72, 53
1, 63575, Note_on_c, 0, 57, 78
1, 63590, Note_on_c, 0, 77, 62
1, 63650, Note_on_c, 0, 79, 54
1, 63677, Note_off_c, 0, 77, 61
1, 63702, Note_on_c, 0, 81, 60
1, 63711, Note_off_c, 0, 79, 64
1, 63724, Control_c, 0, 64, 11
1, 63731, Note_off_c, 0, 81, 65
1, 63739, Control_c, 0, 64, 22
1, 63742, Note_off_c, 0, 57, 59
1, 63754, Control_c, 0, 64, 29
1, 63769, Control_c, 0, 64, 35
1, 63793, Control_c, 0, 64, 40
1, 63798, Note_on_c, 0, 84, 70
1, 63801, Note_off_c, 0, 48, 64
1, 63808, Control_c, 0, 64, 46
1, 63823, Control_c, 0, 64, 51
1, 63838, Control_c, 0, 64, 55
1, 63850, Note_on_c, 0, 53, 74
1, 63850, Note_off_c, 0, 84, 54
1, 63852, Control_c, 0, 64, 58
1, 63853, Note_on_c, 0, 89, 81
1, 63867, Control_c, 0, 64, 60
1, 63882, Control_c, 0, 64, 61
1, 63925, Note_on_c, 0, 91, 75
1, 63926, Control_c, 0, 64, 62
1, 63951, Note_off_c, 0, 89, 61
1, 63989, Note_on_c, 0, 93, 76
1, 63999, Note_off_c, 0, 91, 61
1, 64010, Note_off_c, 0, 53, 59
1, 64038, Note_on_c, 0, 45, 63
1, 64060, Note_on_c, 0, 91, 81
1, 64088, Control_c, 0, 64, 61
1, 64093, Note_off_c, 0, 93, 63
1, 64103, Control_c, 0, 64, 50
1, 64118, Note_on_c, 0, 48, 78
1, 64118, Control_c, 0, 64, 0
1, 64121, Note_on_c, 0, 89, 80
1, 64121, Note_off_c, 0, 45, 64
1, 64124, Note_on_c, 0, 41, 66
1, 64139, Note_off_c, 0, 91, 62
1, 64177, Note_off_c, 0, 89, 65
1, 64189, Note_on_c, 0, 84, 74
1, 64222, Control_c, 0, 64, 8
1, 64227, Note_off_c, 0, 84, 64
1, 64237, Control_c, 0, 64, 27
1, 64252, Control_c, 0, 64, 38
1, 64267, Control_c, 0, 64, 47
1, 64268, Note_on_c, 0, 81, 71
1, 64282, Control_c, 0, 64, 55
1, 64296, Control_c, 0, 64, 60
1, 64311, Control_c, 0, 64, 63
1, 64326, Control_c, 0, 64, 64
1, 64331, Note_on_c, 0, 79, 72
1, 64335, Note_off_c, 0, 81, 64
1, 64341, Control_c, 0, 64, 66
1, 64356, Control_c, 0, 64, 68
1, 64370, Control_c, 0, 64, 70
1, 64371, Note_on_c, 0, 77, 75
1, 64383, Note_off_c, 0, 48, 61
1, 64385, Control_c, 0, 64, 71
1, 64392, Note_off_c, 0, 79, 62
1, 64400, Control_c, 0, 64, 72
1, 64416, Note_off_c, 0, 77, 62
1, 64428, Note_on_c, 0, 72, 71
1, 64459, Control_c, 0, 64, 73
1, 64461, Note_off_c, 0, 72, 54
1, 64474, Control_c, 0, 64, 75
1, 64488, Control_c, 0, 64, 76
1, 64503, Control_c, 0, 64, 77
1, 64507, Note_on_c, 0, 69, 73
1, 64580, Note_on_c, 0, 67, 67
1, 64580, Note_off_c, 0, 69, 65
1, 64586, Control_c, 0, 64, 71
1, 64601, Control_c, 0, 64, 49
1, 64612, Note_on_c, 0, 47, 66
1, 64613, Note_on_c, 0, 48, 72
1, 64616, Control_c, 0, 64, 0
1, 64621, Note_off_c, 0, 41, 51
1, 64633, Note_on_c, 0, 65, 66
1, 64634, Note_off_c, 0, 47, 61
1, 64636, Note_off_c, 0, 67, 63
1, 64639, Note_off_c, 0, 48, 60
1, 64675, Note_off_c, 0, 65, 63
1, 64692, Note_on_c, 0, 60, 68
1, 64728, Note_off_c, 0, 60, 63
1, 64771, Note_on_c, 0, 57, 62
1, 64827, Note_off_c, 0, 57, 62
1, 64835, Note_on_c, 0, 55, 59
1, 64879, Note_off_c, 0, 55, 66
1, 64887, Note_on_c, 0, 53, 55
1, 64892, Note_on_c, 0, 48, 71
1, 64919, Note_off_c, 0, 48, 66
1, 64925, Note_off_c, 0, 53, 66
1, 64962, Note_on_c, 0, 48, 68
1, 65011, Note_off_c, 0, 48, 63
1, 65031, Note_on_c, 0, 53, 63
1, 65076, Note_on_c, 0, 57, 63
1, 65091, Note_off_c, 0, 53, 63
1, 65148, Note_on_c, 0, 40, 66
1, 65150, Note_on_c, 0, 55, 55
1, 65151, Note_on_c, 0, 28, 53
1, 65164, Control_c, 0, 64, 32
1, 65176, Note_off_c, 0, 40, 64
1, 65179, Control_c, 0, 64, 47
1, 65179, Note_off_c, 0, 57, 58
1, 65188, Note_off_c, 0, 28, 53
1, 65193, Control_c, 0, 64, 56
1, 65203, Note_off_c, 0, 55, 61
1, 65208, Control_c, 0, 64, 59
1, 65218, Note_on_c, 0, 48, 58
1, 65223, Control_c, 0, 64, 62
1, 65237, Control_c, 0, 64, 64
1, 65252, Control_c, 0, 64, 65
1, 65261, Note_off_c, 0, 48, 65
1, 65267, Control_c, 0, 64, 65
1, 65279, Note_on_c, 0, 55, 56
1, 65347, Note_on_c, 0, 57, 56
1, 65364, Control_c, 0, 64, 62
1, 65379, Control_c, 0, 64, 53
1, 65391, Note_off_c, 0, 55, 61
1, 65394, Control_c, 0, 64, 27
1, 65409, Control_c, 0, 64, 0
1, 65412, Note_off_c, 0, 57, 62
1, 65412, Note_on_c, 0, 58, 63
1, 65417, Note_on_c, 0, 50, 60
1, 65438, Note_off_c, 0, 58, 66
1, 65453, Control_c, 0, 64, 11
1, 65468, Control_c, 0, 64, 27
1, 65483, Control_c, 0, 64, 37
1, 65492, Note_on_c, 0, 60, 67
1, 65498, Control_c, 0, 64, 46
1, 65513, Control_c, 0, 64, 54
1, 65528, Control_c, 0, 64, 59
1, 65534, Note_off_c, 0, 60, 55
1, 65542, Control_c, 0, 64, 60
1, 65557, Control_c, 0, 64, 58
1, 65558, Note_on_c, 0, 67, 70
1, 65572, Control_c, 0, 64, 50
1, 65587, Control_c, 0, 64, 10
1, 65602, Control_c, 0, 64, 0
1, 65615, Note_on_c, 0, 69, 63
1, 65629, Note_on_c, 0, 48, 62
1, 65653, Note_off_c, 0, 67, 63
1, 65656, Note_off_c, 0, 50, 53
1, 65659, Note_on_c, 0, 70, 73
1, 65673, Note_off_c, 0, 48, 66
1, 65674, Note_off_c, 0, 69, 65
1, 65675, Note_on_c, 0, 55, 73
1, 65675, Control_c, 0, 64, 12
1, 65688, Note_off_c, 0, 70, 66
1, 65690, Control_c, 0, 64, 32
1, 65698, Note_off_c, 0, 55, 70
1, 65705, Control_c, 0, 64, 47
1, 65720, Control_c, 0, 64, 58
1, 65734, Control_c, 0, 64, 64
1, 65743, Note_on_c, 0, 72, 78
1, 65749, Control_c, 0, 64, 67
1, 65792, Note_off_c, 0, 72, 62
1, 65802, Note_on_c, 0, 79, 78
1, 65823, Control_c, 0, 64, 68
1, 65838, Control_c, 0, 64, 68
1, 65868, Note_on_c, 0, 81, 73
1, 65883, Control_c, 0, 64, 69
1, 65897, Control_c, 0, 64, 70
1, 65906, Note_on_c, 0, 62, 87
1, 65912, Control_c, 0, 64, 73
1, 65916, Note_off_c, 0, 79, 61
1, 65920, Note_on_c, 0, 82, 80
1, 65927, Control_c, 0, 64, 75
1, 65931, Note_off_c, 0, 62, 68
1, 65933, Note_off_c, 0, 81, 65
1, 65951, Note_off_c, 0, 82, 64
1, 65957, Control_c, 0, 64, 76
1, 65972, Control_c, 0, 64, 77
1, 65987, Control_c, 0, 64, 81
1, 66002, Control_c, 0, 64, 85
1, 66011, Note_on_c, 0, 84, 79
1, 66016, Control_c, 0, 64, 86
1, 66066, Note_on_c, 0, 40, 76
1, 66073, Note_on_c, 0, 48, 67
1, 66085, Note_off_c, 0, 84, 61
1, 66088, Note_on_c, 0, 91, 76
1, 66096, Note_off_c, 0, 40, 65
1, 66103, Note_off_c, 0, 48, 66
1, 66139, Note_on_c, 0, 93, 59
1, 66157, Control_c, 0, 64, 83
1, 66172, Control_c, 0, 64, 67
1, 66178, Note_off_c, 0, 91, 61
1, 66183, Note_on_c, 0, 60, 97
1, 66187, Control_c, 0, 64, 44
1, 66193, Note_on_c, 0, 94, 83
1, 66202, Control_c, 0, 64, 0
1, 66209, Note_off_c, 0, 93, 63
1, 66260, Note_on_c, 0, 93, 78
1, 66291, Control_c, 0, 64, 23
1, 66300, Note_off_c, 0, 94, 65
1, 66306, Control_c, 0, 64, 39
1, 66315, Note_on_c, 0, 91, 78
1, 66321, Control_c, 0, 64, 52
1, 66336, Control_c, 0, 64, 60
1, 66344, Note_off_c, 0, 93, 61
1, 66351, Control_c, 0, 64, 65
1, 66365, Control_c, 0, 64, 70
1, 66368, Note_off_c, 0, 91, 59
1, 66378, Note_on_c, 0, 84, 74
1, 66380, Control_c, 0, 64, 75
1, 66395, Control_c, 0, 64, 80
1, 66400, Note_off_c, 0, 60, 65
1, 66410, Control_c, 0, 64, 87
1, 66414, Note_on_c, 0, 86, 19
1, 66424, Note_off_c, 0, 84, 62
1, 66425, Control_c, 0, 64, 92
1, 66439, Control_c, 0, 64, 96
1, 66454, Control_c, 0, 64, 103
1, 66455, Note_on_c, 0, 82, 81
1, 66458, Note_off_c, 0, 86, 49
1, 66469, Control_c, 0, 64, 114
1, 66483, Control_c, 0, 64, 127
1, 66507, Note_on_c, 0, 81, 77
1, 66571, Note_on_c, 0, 79, 66
1, 66571, Note_off_c, 0, 82, 61
1, 66595, Note_off_c, 0, 81, 58
1, 66609, Note_off_c, 0, 79, 60
1, 66622, Note_on_c, 0, 72, 75
1, 66661, Control_c, 0, 64, 76
1, 66666, Note_on_c, 0, 48, 59
1, 66669, Note_off_c, 0, 72, 64
1, 66672, Note_on_c, 0, 47, 51
1, 66676, Control_c, 0, 64, 50
1, 66690, Note_off_c, 0, 48, 59
1, 66690, Control_c, 0, 64, 0
1, 66698, Note_off_c, 0, 47, 52
1, 66700, Note_on_c, 0, 70, 73
1, 66756, Note_on_c, 0, 69, 69
1, 66808, Note_off_c, 0, 70, 60
1, 66809, Note_off_c, 0, 69, 60
1, 66818, Note_on_c, 0, 67, 51
1, 66841, Note_off_c, 0, 67, 60
1, 66860, Note_on_c, 0, 60, 71
1, 66900, Note_off_c, 0, 60, 57
1, 66926, Note_on_c, 0, 48, 57
1, 66938, Note_on_c, 0, 58, 73
1, 66951, Note_off_c, 0, 48, 58
1, 66995, Note_on_c, 0, 57, 60
1, 67042, Note_off_c, 0, 58, 59
1, 67048, Note_on_c, 0, 55, 64
1, 67066, Note_off_c, 0, 57, 57
1, 67107, Note_off_c, 0, 55, 64
1, 67108, Note_on_c, 0, 48, 57
1, 67167, Note_on_c, 0, 40, 71
1, 67173, Note_on_c, 0, 28, 58
1, 67175, Note_off_c, 0, 48, 63
1, 67185, Note_on_c, 0, 55, 59
1, 67188, Control_c, 0, 64, 9
1, 67199, Note_off_c, 0, 40, 65
1, 67203, Control_c, 0, 64, 29
1, 67206, Note_off_c, 0, 28, 55
1, 67218, Control_c, 0, 64, 41
1, 67232, Control_c, 0, 64, 49
1, 67247, Control_c, 0, 64, 54
1, 67254, Note_on_c, 0, 57, 54
1, 67262, Control_c, 0, 64, 55
1, 67277, Note_off_c, 0, 55, 64
1, 67292, Control_c, 0, 64, 54
1, 67295, Note_off_c, 0, 57, 63
1, 67304, Note_on_c, 0, 58, 58
1, 67306, Control_c, 0, 64, 54
1, 67325, Note_off_c, 0, 58, 60
1, 67336, Control_c, 0, 64, 54
1, 67351, Control_c, 0, 64, 55
1, 67373, Note_on_c, 0, 60, 70
1, 67380, Control_c, 0, 64, 53
1, 67395, Control_c, 0, 64, 48
1, 67410, Control_c, 0, 64, 35
1, 67412, Note_off_c, 0, 60, 59
1, 67425, Control_c, 0, 64, 0
1, 67439, Note_on_c, 0, 50, 60
1, 67446, Note_on_c, 0, 67, 66
1, 67509, Note_on_c, 0, 69, 55
1, 67513, Control_c, 0, 64, 16
1, 67535, Control_c, 0, 64, 26
1, 67550, Control_c, 0, 64, 35
1, 67554, Note_off_c, 0, 67, 63
1, 67565, Control_c, 0, 64, 43
1, 67567, Note_on_c, 0, 70, 66
1, 67580, Control_c, 0, 64, 50
1, 67584, Note_off_c, 0, 69, 62
1, 67594, Control_c, 0, 64, 55
1, 67609, Control_c, 0, 64, 58
1, 67614, Note_off_c, 0, 70, 62
1, 67638, Control_c, 0, 64, 50
1, 67640, Note_on_c, 0, 48, 74
1, 67653, Control_c, 0, 64, 0
1, 67655, Note_off_c, 0, 50, 56
1, 67663, Note_on_c, 0, 72, 68
1, 67701, Note_on_c, 0, 58, 88
1, 67701, Note_off_c, 0, 72, 57
1, 67725, Note_on_c, 0, 79, 72
1, 67780, Note_on_c, 0, 81, 68
1, 67803, Control_c, 0, 64, 22
1, 67817, Control_c, 0, 64, 31
1, 67826, Note_off_c, 0, 79, 60
1, 67832, Control_c, 0, 64, 38
1, 67835, Note_on_c, 0, 82, 72
1, 67847, Control_c, 0, 64, 46
1, 67850, Note_off_c, 0, 58, 60
1, 67856, Note_off_c, 0, 81, 63
1, 67862, Control_c, 0, 64, 52
1, 67877, Note_off_c, 0, 82, 63
1, 67877, Control_c, 0, 64, 56
1, 67892, Control_c, 0, 64, 58
1, 67895, Note_off_c, 0, 48, 63
1, 67907, Control_c, 0, 64, 60
1, 67919, Note_on_c, 0, 84, 83
1, 67921, Control_c, 0, 64, 60
1, 67936, Control_c, 0, 64, 61
1, 67951, Control_c, 0, 64, 63
1, 67966, Control_c, 0, 64, 65
1, 67971, Note_on_c, 0, 55, 81
1, 67981, Control_c, 0, 64, 67
1, 67983, Note_on_c, 0, 91, 82
1, 67987, Note_off_c, 0, 84, 63
1, 68025, Control_c, 0, 64, 67
1, 68040, Note_on_c, 0, 93, 81
1, 68040, Control_c, 0, 64, 70
1, 68055, Control_c, 0, 64, 72
1, 68069, Control_c, 0, 64, 73
1, 68080, Note_off_c, 0, 91, 59
1, 68101, Note_off_c, 0, 55, 61
1, 68106, Note_on_c, 0, 94, 83
1, 68114, Control_c, 0, 64, 74
1, 68117, Note_off_c, 0, 93, 63
1, 68143, Control_c, 0, 64, 75
1, 68152, Note_on_c, 0, 43, 64
1, 68158, Control_c, 0, 64, 75
1, 68184, Note_on_c, 0, 93, 79
1, 68193, Note_on_c, 0, 91, 84
1, 68200, Note_off_c, 0, 94, 62
1, 68202, Control_c, 0, 64, 70
1, 68217, Control_c, 0, 64, 52
1, 68220, Note_on_c, 0, 40, 83
1, 68222, Note_on_c, 0, 48, 86
1, 68232, Control_c, 0, 64, 0
1, 68246, Note_off_c, 0, 43, 61
1, 68258, Note_off_c, 0, 93, 63
1, 68299, Note_off_c, 0, 91, 47
1, 68313, Note_on_c, 0, 84, 76
1, 68348, Note_off_c, 0, 84, 61
1, 68373, Control_c, 0, 64, 15
1, 68388, Control_c, 0, 64, 29
1, 68389, Note_on_c, 0, 82, 79
1, 68403, Control_c, 0, 64, 40
1, 68417, Control_c, 0, 64, 51
1, 68432, Control_c, 0, 64, 57
1, 68441, Note_on_c, 0, 81, 79
1, 68447, Control_c, 0, 64, 59
1, 68461, Control_c, 0, 64, 60
1, 68476, Control_c, 0, 64, 62
1, 68491, Control_c, 0, 64, 64
1, 68494, Note_off_c, 0, 48, 60
1, 68495, Note_on_c, 0, 79, 67
1, 68500, Note_off_c, 0, 82, 61
1, 68506, Control_c, 0, 64, 67
1, 68514, Note_off_c, 0, 81, 57
1, 68521, Control_c, 0, 64, 69
1, 68531, Note_off_c, 0, 79, 57
1, 68536, Control_c, 0, 64, 69
1, 68542, Note_on_c, 0, 72, 80
1, 68550, Control_c, 0, 64, 71
1, 68566, Control_c, 0, 64, 74
1, 68581, Control_c, 0, 64, 78
1, 68594, Note_off_c, 0, 72, 62
1, 68596, Control_c, 0, 64, 81
1, 68611, Control_c, 0, 64, 85
1, 68626, Control_c, 0, 64, 91
1, 68627, Note_on_c, 0, 70, 76
1, 68640, Control_c, 0, 64, 99
1, 68655, Control_c, 0, 64, 108
1, 68670, Control_c, 0, 64, 110
1, 68673, Note_on_c, 0, 69, 75
1, 68700, Control_c, 0, 64, 101
1, 68709, Note_on_c, 0, 47, 75
1, 68714, Control_c, 0, 64, 64
1, 68716, Note_on_c, 0, 48, 74
1, 68720, Note_on_c, 0, 67, 73
1, 68720, Note_off_c, 0, 70, 59
1, 68720, Note_off_c, 0, 40, 40
1, 68729, Control_c, 0, 64, 18
1, 68732, Note_off_c, 0, 47, 67
1, 68738, Note_off_c, 0, 69, 60
1, 68738, Note_off_c, 0, 48, 70
1, 68744, Control_c, 0, 64, 0
1, 68756, Note_off_c, 0, 67, 62
1, 68780, Note_on_c, 0, 60, 71
1, 68820, Note_off_c, 0, 60, 65
1, 68863, Note_on_c, 0, 58, 73
1, 68917, Note_on_c, 0, 57, 66
1, 68959, Note_off_c, 0, 58, 60
1, 68978, Note_on_c, 0, 55, 61
1, 68990, Note_on_c, 0, 48, 63
1, 68991, Note_off_c, 0, 57, 58
1, 69013, Note_off_c, 0, 48, 60
1, 69018, Note_off_c, 0, 55, 66
1, 69066, Note_on_c, 0, 48, 64
1, 69126, Note_on_c, 0, 55, 66
1, 69141, Note_off_c, 0, 48, 59
1, 69185, Note_on_c, 0, 58, 62
1, 69203, Note_off_c, 0, 55, 62
1, 69233, Note_on_c, 0, 57, 61
1, 69239, Note_on_c, 0, 29, 70
1, 69239, Note_on_c, 0, 41, 75
1, 69269, Note_off_c, 0, 41, 66
1, 69270, Note_off_c, 0, 29, 57
1, 69274, Note_off_c, 0, 58, 62
1, 69278, Note_off_c, 0, 57, 63
1, 69284, Control_c, 0, 64, 11
1, 69299, Control_c, 0, 64, 23
1, 69302, Note_on_c, 0, 48, 60
1, 69314, Control_c, 0, 64, 31
1, 69329, Control_c, 0, 64, 37
1, 69342, Note_off_c, 0, 48, 66
1, 69344, Control_c, 0, 64, 41
1, 69360, Control_c, 0, 64, 44
1, 69375, Note_on_c, 0, 53, 63
1, 69419, Control_c, 0, 64, 44
1, 69425, Note_on_c, 0, 55, 55
1, 69448, Control_c, 0, 64, 41
1, 69461, Note_off_c, 0, 53, 64
1, 69463, Control_c, 0, 64, 26
1, 69478, Control_c, 0, 64, 0
1, 69481, Note_on_c, 0, 57, 54
1, 69495, Note_off_c, 0, 55, 66
1, 69508, Note_on_c, 0, 50, 60
1, 69510, Note_off_c, 0, 57, 64
1, 69573, Note_on_c, 0, 60, 60
1, 69614, Note_off_c, 0, 60, 64
1, 69640, Note_on_c, 0, 65, 61
1, 69689, Note_on_c, 0, 67, 57
1, 69700, Note_off_c, 0, 50, 61
1, 69707, Note_on_c, 0, 48, 65
1, 69716, Note_off_c, 0, 65, 64
1, 69739, Note_on_c, 0, 69, 61
1, 69752, Note_off_c, 0, 67, 65
1, 69758, Note_on_c, 0, 53, 81
1, 69760, Control_c, 0, 64, 22
1, 69769, Note_off_c, 0, 69, 67
1, 69770, Note_off_c, 0, 48, 63
1, 69774, Control_c, 0, 64, 30
1, 69789, Note_off_c, 0, 53, 71
1, 69796, Control_c, 0, 64, 39
1, 69811, Control_c, 0, 64, 50
1, 69826, Control_c, 0, 64, 60
1, 69840, Control_c, 0, 64, 66
1, 69844, Note_on_c, 0, 72, 69
1, 69855, Control_c, 0, 64, 67
1, 69885, Control_c, 0, 64, 69
1, 69900, Control_c, 0, 64, 71
1, 69901, Note_on_c, 0, 77, 75
1, 69907, Note_off_c, 0, 72, 61
1, 69914, Control_c, 0, 64, 75
1, 69929, Control_c, 0, 64, 77
1, 69944, Control_c, 0, 64, 78
1, 69958, Note_on_c, 0, 79, 67
1, 69959, Control_c, 0, 64, 82
1, 69974, Control_c, 0, 64, 95
1, 69988, Control_c, 0, 64, 127
1, 69994, Note_off_c, 0, 77, 62
1, 70005, Note_on_c, 0, 81, 77
1, 70017, Note_on_c, 0, 65, 96
1, 70025, Note_off_c, 0, 79, 64
1, 70033, Note_off_c, 0, 81, 64
1, 70054, Note_off_c, 0, 65, 69
1, 70096, Note_on_c, 0, 84, 88
1, 70148, Note_on_c, 0, 89, 80
1, 70158, Note_off_c, 0, 84, 63
1, 70211, Note_on_c, 0, 93, 89
1, 70217, Note_off_c, 0, 89, 66
1, 70241, Control_c, 0, 64, 67
1, 70256, Control_c, 0, 64, 42
1, 70270, Control_c, 0, 64, 0
1, 70276, Note_on_c, 0, 65, 98
1, 70277, Note_on_c, 0, 62, 82
1, 70279, Note_on_c, 0, 58, 76
1, 70283, Note_on_c, 0, 91, 93
1, 70287, Note_on_c, 0, 53, 67
1, 70315, Control_c, 0, 64, 8
1, 70321, Note_off_c, 0, 93, 62
1, 70330, Control_c, 0, 64, 30
1, 70345, Control_c, 0, 64, 44
1, 70350, Note_on_c, 0, 89, 81
1, 70360, Control_c, 0, 64, 58
1, 70375, Control_c, 0, 64, 68
1, 70375, Note_off_c, 0, 91, 59
1, 70390, Control_c, 0, 64, 74
1, 70419, Note_on_c, 0, 86, 81
1, 70419, Note_off_c, 0, 89, 65
1, 70434, Control_c, 0, 64, 75
1, 70448, Control_c, 0, 64, 81
1, 70460, Note_off_c, 0, 86, 61
1, 70463, Control_c, 0, 64, 92
1, 70466, Note_off_c, 0, 65, 64
1, 70478, Note_off_c, 0, 53, 65
1, 70478, Control_c, 0, 64, 98
1, 70481, Note_off_c, 0, 62, 64
1, 70490, Note_off_c, 0, 58, 63
1, 70493, Control_c, 0, 64, 99
1, 70497, Note_on_c, 0, 82, 77
1, 70530, Control_c, 0, 64, 100
1, 70545, Control_c, 0, 64, 111
1, 70560, Control_c, 0, 64, 127
1, 70563, Note_on_c, 0, 79, 61
1, 70572, Note_on_c, 0, 81, 59
1, 70580, Note_off_c, 0, 82, 69
1, 70595, Note_off_c, 0, 81, 58
1, 70600, Note_on_c, 0, 77, 78
1, 70625, Note_off_c, 0, 79, 62
1, 70652, Note_off_c, 0, 77, 59
1, 70659, Note_on_c, 0, 74, 75
1, 70687, Note_off_c, 0, 74, 57
1, 70734, Note_on_c, 0, 70, 81
1, 70768, Control_c, 0, 64, 115
1, 70782, Control_c, 0, 64, 73
1, 70784, Note_off_c, 0, 70, 61
1, 70794, Note_on_c, 0, 65, 92
1, 70797, Note_on_c, 0, 60, 77
1, 70797, Control_c, 0, 64, 45
1, 70801, Note_on_c, 0, 57, 69
1, 70812, Note_on_c, 0, 53, 48
1, 70812, Control_c, 0, 64, 0
1, 70813, Note_off_c, 0, 65, 75
1, 70819, Note_on_c, 0, 72, 75
1, 70819, Note_off_c, 0, 60, 72
1, 70827, Note_off_c, 0, 57, 66
1, 70837, Note_off_c, 0, 53, 61
1, 70881, Note_on_c, 0, 77, 84
1, 70882, Note_off_c, 0, 72, 61
1, 70936, Note_on_c, 0, 79, 66
1, 70979, Note_off_c, 0, 77, 66
1, 70995, Note_on_c, 0, 81, 67
1, 70999, Note_on_c, 0, 80, 58
1, 71007, Note_off_c, 0, 79, 63
1, 71019, Note_off_c, 0, 80, 61
1, 71021, Note_off_c, 0, 81, 67
1, 71066, Note_on_c, 0, 65, 88
1, 71066, Note_on_c, 0, 60, 77
1, 71067, Note_on_c, 0, 57, 72
1, 71072, Note_on_c, 0, 84, 90
1, 71079, Note_on_c, 0, 53, 47
1, 71083, Note_off_c, 0, 65, 76
1, 71088, Note_off_c, 0, 60, 71
1, 71093, Note_off_c, 0, 57, 66
1, 71108, Note_off_c, 0, 53, 58
1, 71136, Note_on_c, 0, 89, 80
1, 71139, Note_off_c, 0, 84, 64
1, 71200, Note_on_c, 0, 91, 71
1, 71238, Note_off_c, 0, 89, 65
1, 71283, Note_off_c, 0, 91, 62
1, 71286, Note_on_c, 0, 95, 68
1, 71290, Note_on_c, 0, 93, 54
1, 71303, Note_off_c, 0, 95, 67
1, 71323, Note_on_c, 0, 62, 81
1, 71327, Note_on_c, 0, 65, 93
1, 71332, Note_on_c, 0, 58, 72
1, 71333, Note_on_c, 0, 53, 62
1, 71335, Note_off_c, 0, 93, 0
1, 71335, Note_on_c, 0, 93, 59
1, 71336, Note_on_c, 0, 91, 90
1, 71353, Control_c, 0, 64, 17
1, 71368, Control_c, 0, 64, 43
1, 71370, Note_off_c, 0, 93, 63
1, 71383, Control_c, 0, 64, 60
1, 71386, Note_off_c, 0, 65, 66
1, 71394, Note_on_c, 0, 89, 78
1, 71398, Note_off_c, 0, 53, 65
1, 71398, Control_c, 0, 64, 69
1, 71400, Note_off_c, 0, 62, 64
1, 71411, Note_off_c, 0, 58, 63
1, 71412, Control_c, 0, 64, 77
1, 71421, Note_off_c, 0, 91, 59
1, 71427, Control_c, 0, 64, 80
1, 71442, Control_c, 0, 64, 84
1, 71450, Note_off_c, 0, 89, 64
1, 71451, Note_on_c, 0, 86, 86
1, 71457, Control_c, 0, 64, 93
1, 71472, Control_c, 0, 64, 104
1, 71487, Control_c, 0, 64, 108
1, 71490, Note_off_c, 0, 86, 62
1, 71502, Control_c, 0, 64, 108
1, 71534, Note_on_c, 0, 82, 78
1, 71588, Note_on_c, 0, 79, 55
1, 71592, Note_on_c, 0, 81, 61
1, 71620, Control_c, 0, 64, 113
1, 71626, Note_on_c, 0, 77, 78
1, 71633, Note_off_c, 0, 81, 63
1, 71635, Control_c, 0, 64, 127
1, 71645, Note_off_c, 0, 82, 63
1, 71660, Note_off_c, 0, 79, 63
1, 71683, Note_on_c, 0, 74, 79
1, 71683, Note_off_c, 0, 77, 60
1, 71734, Note_off_c, 0, 74, 59
1, 71758, Note_on_c, 0, 70, 83
1, 71784, Control_c, 0, 64, 78
1, 71799, Control_c, 0, 64, 46
1, 71803, Note_off_c, 0, 70, 63
1, 71814, Control_c, 0, 64, 0
1, 71832, Note_on_c, 0, 65, 87
1, 71834, Note_on_c, 0, 60, 77
1, 71835, Note_on_c, 0, 57, 70
1, 71842, Note_on_c, 0, 53, 58
1, 71847, Note_on_c, 0, 72, 79
1, 71850, Note_off_c, 0, 65, 75
1, 71859, Note_off_c, 0, 60, 69
1, 71865, Note_off_c, 0, 57, 64
1, 71871, Note_off_c, 0, 53, 67
1, 71902, Control_c, 0, 64, 10
1, 71909, Note_off_c, 0, 72, 64
1, 71913, Note_on_c, 0, 77, 87
1, 71917, Control_c, 0, 64, 24
1, 71932, Control_c, 0, 64, 33
1, 71947, Control_c, 0, 64, 40
1, 71962, Control_c, 0, 64, 46
1, 71971, Note_on_c, 0, 79, 66
1, 71976, Control_c, 0, 64, 49
1, 71991, Control_c, 0, 64, 50
1, 72006, Control_c, 0, 64, 52
1, 72028, Control_c, 0, 64, 56
1, 72029, Note_on_c, 0, 81, 84
1, 72029, Note_off_c, 0, 77, 64
1, 72043, Control_c, 0, 64, 57
1, 72058, Control_c, 0, 64, 58
1, 72059, Note_off_c, 0, 79, 64
1, 72070, Note_off_c, 0, 81, 65
1, 72088, Control_c, 0, 64, 60
1, 72102, Control_c, 0, 64, 64
1, 72106, Note_on_c, 0, 53, 64
1, 72107, Note_on_c, 0, 57, 68
1, 72109, Note_on_c, 0, 65, 91
1, 72113, Note_on_c, 0, 60, 71
1, 72117, Control_c, 0, 64, 70
1, 72123, Note_on_c, 0, 84, 96
1, 72127, Note_off_c, 0, 65, 74
1, 72132, Control_c, 0, 64, 74
1, 72134, Note_off_c, 0, 57, 65
1, 72138, Note_off_c, 0, 60, 68
1, 72147, Control_c, 0, 64, 74
1, 72149, Note_off_c, 0, 53, 64
1, 72162, Control_c, 0, 64, 75
1, 72176, Control_c, 0, 64, 82
1, 72191, Control_c, 0, 64, 96
1, 72194, Note_on_c, 0, 89, 91
1, 72197, Note_off_c, 0, 84, 61
1, 72206, Control_c, 0, 64, 108
1, 72221, Control_c, 0, 64, 111
1, 72235, Control_c, 0, 64, 113
1, 72250, Control_c, 0, 64, 127
1, 72268, Note_on_c, 0, 91, 80
1, 72298, Note_off_c, 0, 89, 63
1, 72335, Note_on_c, 0, 49, 81
1, 72345, Note_on_c, 0, 93, 86
1, 72368, Note_on_c, 0, 55, 79
1, 72376, Note_off_c, 0, 91, 61
1, 72399, Control_c, 0, 64, 70
1, 72404, Note_off_c, 0, 49, 67
1, 72408, Note_off_c, 0, 93, 64
1, 72410, Note_on_c, 0, 59, 76
1, 72414, Control_c, 0, 64, 43
1, 72428, Control_c, 0, 64, 0
1, 72473, Note_on_c, 0, 91, 103
1, 72478, Note_on_c, 0, 65, 99
1, 72502, Control_c, 0, 64, 22
1, 72517, Control_c, 0, 64, 39
1, 72532, Control_c, 0, 64, 55
1, 72548, Control_c, 0, 64, 63
1, 72563, Control_c, 0, 64, 65
1, 72578, Control_c, 0, 64, 65
1, 72593, Control_c, 0, 64, 66
1, 72596, Note_on_c, 0, 93, 76
1, 72599, Note_on_c, 0, 95, 86
1, 72604, Note_off_c, 0, 91, 59
1, 72607, Control_c, 0, 64, 71
1, 72622, Control_c, 0, 64, 83
1, 72637, Control_c, 0, 64, 86
1, 72639, Note_off_c, 0, 95, 65
1, 72646, Note_off_c, 0, 93, 63
1, 72651, Control_c, 0, 64, 87
1, 72666, Control_c, 0, 64, 90
1, 72679, Note_on_c, 0, 93, 63
1, 72681, Control_c, 0, 64, 97
1, 72683, Note_on_c, 0, 91, 89
1, 72696, Control_c, 0, 64, 109
1, 72711, Control_c, 0, 64, 127
1, 72712, Note_off_c, 0, 93, 65
1, 72751, Note_on_c, 0, 89, 71
1, 72785, Note_off_c, 0, 65, 52
1, 72789, Note_off_c, 0, 91, 60
1, 72823, Note_off_c, 0, 89, 64
1, 72829, Note_on_c, 0, 83, 81
1, 72875, Note_off_c, 0, 83, 65
1, 72911, Note_on_c, 0, 79, 85
1, 72972, Note_on_c, 0, 77, 75
1, 73007, Note_off_c, 0, 79, 61
1, 73027, Note_off_c, 0, 77, 64
1, 73030, Note_on_c, 0, 71, 80
1, 73060, Note_off_c, 0, 59, 52
1, 73060, Note_off_c, 0, 71, 60
1, 73114, Note_off_c, 0, 55, 27
1, 73115, Note_on_c, 0, 67, 80
1, 73154, Note_on_c, 0, 65, 66
1, 73184, Note_off_c, 0, 67, 60
1, 73219, Note_off_c, 0, 65, 66
1, 73219, Note_on_c, 0, 59, 79
1, 73269, Note_off_c, 0, 59, 60
1, 73305, Note_on_c, 0, 55, 81
1, 73359, Note_on_c, 0, 53, 74
1, 73376, Note_off_c, 0, 55, 66
1, 73393, Note_off_c, 0, 53, 66
1, 73424, Note_on_c, 0, 47, 77
1, 73493, Note_on_c, 0, 43, 74
1, 73517, Note_on_c, 0, 41, 74
1, 73549, Note_off_c, 0, 43, 61
1, 73564, Note_off_c, 0, 41, 65
1, 73627, Note_on_c, 0, 35, 90
1, 73659, Control_c, 0, 64, 65
1, 73674, Control_c, 0, 64, 19
1, 73688, Control_c, 0, 64, 0
1, 73702, Note_on_c, 0, 49, 75
1, 73759, Note_off_c, 0, 49, 66
1, 73764, Note_on_c, 0, 53, 66
1, 73788, Note_off_c, 0, 53, 69
1, 73821, Control_c, 0, 64, 18
1, 73836, Control_c, 0, 64, 30
1, 73844, Note_on_c, 0, 55, 81
1, 73851, Control_c, 0, 64, 37
1, 73866, Control_c, 0, 64, 44
1, 73880, Control_c, 0, 64, 49
1, 73895, Control_c, 0, 64, 52
1, 73910, Control_c, 0, 64, 55
1, 73923, Note_on_c, 0, 61, 79
1, 73925, Control_c, 0, 64, 58
1, 73928, Note_off_c, 0, 55, 65
1, 73940, Control_c, 0, 64, 61
1, 73955, Control_c, 0, 64, 63
1, 73966, Note_on_c, 0, 65, 71
1, 73970, Control_c, 0, 64, 65
1, 73976, Note_off_c, 0, 61, 67
1, 73985, Control_c, 0, 64, 67
1, 73999, Control_c, 0, 64, 68
1, 74011, Note_off_c, 0, 65, 65
1, 74029, Control_c, 0, 64, 69
1, 74044, Control_c, 0, 64, 72
1, 74057, Note_on_c, 0, 67, 84
1, 74059, Control_c, 0, 64, 76
1, 74073, Control_c, 0, 64, 78
1, 74088, Control_c, 0, 64, 78
1, 74103, Control_c, 0, 64, 79
1, 74118, Control_c, 0, 64, 80
1, 74121, Note_on_c, 0, 73, 83
1, 74133, Control_c, 0, 64, 84
1, 74142, Note_off_c, 0, 67, 59
1, 74149, Control_c, 0, 64, 88
1, 74163, Control_c, 0, 64, 89
1, 74181, Note_on_c, 0, 77, 75
1, 74185, Note_off_c, 0, 73, 66
1, 74193, Control_c, 0, 64, 90
1, 74206, Note_off_c, 0, 77, 67
1, 74208, Control_c, 0, 64, 91
1, 74222, Control_c, 0, 64, 93
1, 74237, Control_c, 0, 64, 97
1, 74252, Control_c, 0, 64, 100
1, 74266, Note_on_c, 0, 79, 83
1, 74268, Control_c, 0, 64, 102
1, 74290, Control_c, 0, 64, 103
1, 74304, Control_c, 0, 64, 105
1, 74319, Control_c, 0, 64, 109
1, 74328, Note_on_c, 0, 85, 84
1, 74334, Control_c, 0, 64, 119
1, 74343, Note_off_c, 0, 79, 61
1, 74349, Control_c, 0, 64, 127
1, 74378, Note_on_c, 0, 89, 80
1, 74388, Note_off_c, 0, 85, 67
1, 74394, Note_off_c, 0, 35, 61
1, 74414, Note_off_c, 0, 89, 63
1, 74437, Note_off_c, 0, 47, 57
1, 74465, Note_on_c, 0, 91, 92
1, 74528, Note_on_c, 0, 97, 87
1, 74547, Note_off_c, 0, 91, 60
1, 74585, Note_on_c, 0, 101, 93
1, 74611, Note_off_c, 0, 97, 66
1, 74643, Note_off_c, 0, 101, 65
1, 74650, Note_on_c, 0, 91, 85
1, 74687, Note_off_c, 0, 91, 63
1, 74724, Note_on_c, 0, 48, 95
1, 74727, Note_on_c, 0, 36, 84
1, 74728, Note_on_c, 0, 96, 94
1, 74734, Control_c, 0, 64, 64
1, 74740, Note_on_c, 0, 98, 60
1, 74741, Note_off_c, 0, 98, 127
1, 74749, Control_c, 0, 64, 33
1, 74764, Control_c, 0, 64, 0
1, 74793, Note_on_c, 0, 91, 84
1, 74818, Note_off_c, 0, 96, 61
1, 74850, Note_on_c, 0, 89, 65
1, 74852, Control_c, 0, 64, 18
1, 74867, Note_off_c, 0, 91, 62
1, 74867, Control_c, 0, 64, 29
1, 74882, Control_c, 0, 64, 39
1, 74897, Control_c, 0, 64, 49
1, 74905, Note_on_c, 0, 84, 79
1, 74907, Note_off_c, 0, 89, 65
1, 74912, Control_c, 0, 64, 58
1, 74927, Control_c, 0, 64, 62
1, 74941, Note_off_c, 0, 84, 57
1, 74942, Control_c, 0, 64, 63
1, 74957, Control_c, 0, 64, 63
1, 74972, Control_c, 0, 64, 65
1, 74987, Control_c, 0, 64, 69
1, 74994, Note_on_c, 0, 81, 73
1, 75001, Note_on_c, 0, 79, 74
1, 75001, Control_c, 0, 64, 73
1, 75024, Control_c, 0, 64, 73
1, 75053, Control_c, 0, 64, 74
1, 75061, Note_on_c, 0, 77, 75
1, 75064, Note_off_c, 0, 81, 62
1, 75068, Control_c, 0, 64, 75
1, 75083, Control_c, 0, 64, 77
1, 75085, Note_off_c, 0, 79, 63
1, 75098, Control_c, 0, 64, 78
1, 75116, Note_off_c, 0, 77, 57
1, 75127, Control_c, 0, 64, 79
1, 75133, Note_on_c, 0, 72, 55
1, 75134, Note_on_c, 0, 74, 41
1, 75142, Control_c, 0, 64, 80
1, 75156, Note_off_c, 0, 72, 60
1, 75157, Control_c, 0, 64, 83
1, 75161, Note_off_c, 0, 74, 58
1, 75172, Control_c, 0, 64, 85
1, 75201, Control_c, 0, 64, 85
1, 75202, Note_on_c, 0, 69, 45
1, 75209, Note_on_c, 0, 67, 70
1, 75216, Control_c, 0, 64, 77
1, 75231, Control_c, 0, 64, 71
1, 75241, Note_off_c, 0, 69, 59
1, 75245, Note_on_c, 0, 65, 77
1, 75246, Control_c, 0, 64, 69
1, 75275, Note_off_c, 0, 67, 58
1, 75287, Note_off_c, 0, 48, 59
1, 75302, Note_off_c, 0, 65, 61
1, 75314, Note_on_c, 0, 60, 64
1, 75335, Control_c, 0, 64, 69
1, 75339, Note_off_c, 0, 60, 69
1, 75350, Control_c, 0, 64, 70
1, 75365, Control_c, 0, 64, 70
1, 75384, Note_on_c, 0, 55, 75
1, 75444, Note_on_c, 0, 53, 68
1, 75445, Note_off_c, 0, 55, 66
1, 75466, Note_off_c, 0, 53, 69
1, 75483, Control_c, 0, 64, 71
1, 75493, Note_off_c, 0, 36, 61
1, 75508, Note_on_c, 0, 48, 83
1, 75583, Note_on_c, 0, 41, 84
1, 75600, Note_off_c, 0, 48, 62
1, 75631, Control_c, 0, 64, 70
1, 75645, Note_on_c, 0, 40, 77
1, 75690, Note_off_c, 0, 41, 63
1, 75707, Note_on_c, 0, 38, 69
1, 75750, Note_off_c, 0, 40, 62
1, 75773, Control_c, 0, 64, 65
1, 75788, Control_c, 0, 64, 48
1, 75802, Control_c, 0, 64, 0
1, 75808, Note_on_c, 0, 70, 84
1, 75809, Note_off_c, 0, 38, 63
1, 75812, Note_on_c, 0, 64, 62
1, 75815, Note_on_c, 0, 36, 68
1, 75822, Note_on_c, 0, 58, 57
1, 75908, Note_on_c, 0, 38, 60
1, 75930, Note_off_c, 0, 36, 57
1, 75936, Control_c, 0, 64, 11
1, 75950, Control_c, 0, 64, 24
1, 75965, Control_c, 0, 64, 32
1, 75979, Note_on_c, 0, 40, 65
1, 75980, Control_c, 0, 64, 40
1, 75994, Control_c, 0, 64, 47
1, 75996, Note_off_c, 0, 38, 61
1, 76009, Control_c, 0, 64, 52
1, 76024, Control_c, 0, 64, 55
1, 76039, Control_c, 0, 64, 56
1, 76054, Control_c, 0, 64, 58
1, 76058, Note_on_c, 0, 48, 60
1, 76064, Note_off_c, 0, 40, 60
1, 76068, Control_c, 0, 64, 59
1, 76083, Control_c, 0, 64, 60
1, 76098, Control_c, 0, 64, 61
1, 76113, Control_c, 0, 64, 63
1, 76124, Note_off_c, 0, 70, 61
1, 76125, Note_on_c, 0, 62, 71
1, 76128, Control_c, 0, 64, 63
1, 76143, Control_c, 0, 64, 64
1, 76144, Note_off_c, 0, 48, 59
1, 76156, Note_on_c, 0, 38, 56
1, 76158, Control_c, 0, 64, 65
1, 76173, Control_c, 0, 64, 67
1, 76188, Control_c, 0, 64, 69
1, 76202, Control_c, 0, 64, 70
1, 76205, Note_off_c, 0, 64, 37
1, 76205, Note_off_c, 0, 62, 63
1, 76217, Control_c, 0, 64, 72
1, 76228, Note_on_c, 0, 40, 70
1, 76232, Control_c, 0, 64, 72
1, 76247, Control_c, 0, 64, 73
1, 76262, Control_c, 0, 64, 73
1, 76267, Note_off_c, 0, 38, 57
1, 76276, Control_c, 0, 64, 74
1, 76277, Note_on_c, 0, 41, 71
1, 76291, Control_c, 0, 64, 74
1, 76320, Note_off_c, 0, 40, 62
1, 76343, Note_on_c, 0, 48, 75
1, 76384, Note_off_c, 0, 41, 60
1, 76394, Control_c, 0, 64, 71
1, 76409, Control_c, 0, 64, 63
1, 76424, Control_c, 0, 64, 49
1, 76432, Note_on_c, 0, 62, 84
1, 76434, Note_off_c, 0, 58, 0
1, 76437, Note_on_c, 0, 38, 65
1, 76439, Control_c, 0, 64, 0
1, 76440, Note_off_c, 0, 48, 62
1, 76471, Poly_aftertouch_c, 0, 58, 127
1, 76498, Control_c, 0, 64, 17
1, 76513, Control_c, 0, 64, 29
1, 76528, Note_on_c, 0, 40, 72
1, 76530, Poly_aftertouch_c, 0, 58, 0
1, 76535, Control_c, 0, 64, 40
1, 76551, Control_c, 0, 64, 52
1, 76561, Note_off_c, 0, 38, 57
1, 76566, Control_c, 0, 64, 61
1, 76581, Control_c, 0, 64, 64
1, 76584, Note_off_c, 0, 62, 60
1, 76586, Note_on_c, 0, 41, 74
1, 76596, Control_c, 0, 64, 65
1, 76611, Control_c, 0, 64, 66
1, 76625, Control_c, 0, 64, 67
1, 76626, Note_off_c, 0, 40, 61
1, 76640, Control_c, 0, 64, 70
1, 76655, Control_c, 0, 64, 71
1, 76674, Note_on_c, 0, 48, 66
1, 76685, Note_off_c, 0, 41, 62
1, 76744, Control_c, 0, 64, 68
1, 76759, Control_c, 0, 64, 63
1, 76764, Note_off_c, 0, 48, 59
1, 76773, Control_c, 0, 64, 54
1, 76775, Note_on_c, 0, 69, 82
1, 76778, Note_on_c, 0, 58, 72
1, 76779, Note_on_c, 0, 40, 63
1, 76788, Control_c, 0, 64, 29
1, 76803, Control_c, 0, 64, 0
1, 76806, Note_on_c, 0, 68, 25
1, 76852, Note_off_c, 0, 68, 45
1, 76895, Note_on_c, 0, 41, 57
1, 76906, Control_c, 0, 64, 21
1, 76921, Control_c, 0, 64, 31
1, 76927, Note_off_c, 0, 40, 38
1, 76936, Control_c, 0, 64, 41
1, 76951, Control_c, 0, 64, 51
1, 76966, Control_c, 0, 64, 58
1, 76979, Note_off_c, 0, 69, 57
1, 76980, Control_c, 0, 64, 61
1, 76992, Note_on_c, 0, 43, 58
1, 76995, Control_c, 0, 64, 62
1, 77010, Control_c, 0, 64, 63
1, 77025, Control_c, 0, 64, 65
1, 77040, Control_c, 0, 64, 67
1, 77055, Control_c, 0, 64, 68
1, 77082, Note_off_c, 0, 41, 41
1, 77114, Control_c, 0, 64, 69
1, 77114, Control_c, 0, 67, 8
1, 77121, Note_on_c, 0, 67, 69
1, 77124, Note_off_c, 0, 43, 54
1, 77129, Control_c, 0, 67, 8
1, 77143, Control_c, 0, 67, 10
1, 77144, Note_on_c, 0, 48, 51
1, 77158, Control_c, 0, 67, 13
1, 77173, Control_c, 0, 67, 17
1, 77174, Note_off_c, 0, 58, 47
1, 77188, Control_c, 0, 67, 20
1, 77203, Control_c, 0, 64, 68
1, 77203, Control_c, 0, 67, 22
1, 77217, Control_c, 0, 64, 68
1, 77217, Control_c, 0, 67, 24
1, 77232, Control_c, 0, 64, 67
1, 77232, Control_c, 0, 67, 24
1, 77247, Control_c, 0, 64, 66
1, 77247, Control_c, 0, 67, 25
1, 77263, Control_c, 0, 64, 66
1, 77263, Control_c, 0, 67, 25
1, 77285, Control_c, 0, 64, 64
1, 77285, Control_c, 0, 67, 28
1, 77299, Control_c, 0, 64, 60
1, 77299, Control_c, 0, 67, 34
1, 77314, Control_c, 0, 64, 48
1, 77314, Control_c, 0, 67, 41
1, 77328, Note_on_c, 0, 41, 43
1, 77329, Control_c, 0, 64, 28
1, 77329, Control_c, 0, 67, 47
1, 77330, Note_off_c, 0, 67, 54
1, 77339, Note_off_c, 0, 48, 32
1, 77341, Note_on_c, 0, 65, 58
1, 77344, Control_c, 0, 64, 0
1, 77344, Control_c, 0, 67, 50
1, 77360, Control_c, 0, 67, 53
1, 77375, Control_c, 0, 67, 56
1, 77390, Control_c, 0, 67, 58
1, 77426, Note_off_c, 0, 65, 59
1, 77448, Control_c, 0, 64, 10
1, 77463, Control_c, 0, 64, 17
1, 77478, Control_c, 0, 64, 23
1, 77478, Control_c, 0, 67, 57
1, 77480, Note_on_c, 0, 57, 26
1, 77493, Control_c, 0, 64, 29
1, 77493, Control_c, 0, 67, 56
1, 77508, Control_c, 0, 64, 34
1, 77508, Control_c, 0, 67, 56
1, 77520, Note_off_c, 0, 57, 50
1, 77523, Control_c, 0, 64, 38
1, 77523, Control_c, 0, 67, 55
1, 77538, Control_c, 0, 64, 43
1, 77538, Control_c, 0, 67, 55
1, 77541, Note_on_c, 0, 64, 54
1, 77553, Control_c, 0, 64, 49
1, 77553, Control_c, 0, 67, 54
1, 77567, Control_c, 0, 64, 53
1, 77579, Note_off_c, 0, 64, 64
1, 77582, Control_c, 0, 64, 56
1, 77582, Control_c, 0, 67, 54
1, 77596, Note_on_c, 0, 67, 66
1, 77597, Control_c, 0, 64, 58
1, 77612, Control_c, 0, 64, 60
1, 77612, Control_c, 0, 67, 53
1, 77624, Note_off_c, 0, 41, 36
1, 77627, Control_c, 0, 64, 62
1, 77627, Control_c, 0, 67, 53
1, 77641, Control_c, 0, 64, 63
1, 77641, Control_c, 0, 67, 52
1, 77656, Control_c, 0, 64, 64
1, 77656, Control_c, 0, 67, 51
1, 77660, Note_on_c, 0, 65, 65
1, 77664, Note_off_c, 0, 67, 59
1, 77671, Control_c, 0, 67, 50
1, 77683, Note_off_c, 0, 65, 69
1, 77686, Control_c, 0, 67, 50
1, 77701, Control_c, 0, 67, 49
1, 77715, Control_c, 0, 67, 49
1, 77730, Control_c, 0, 67, 48
1, 77745, Note_on_c, 0, 69, 49
1, 77745, Control_c, 0, 67, 47
1, 77748, Note_on_c, 0, 67, 58
1, 77768, Note_off_c, 0, 67, 68
1, 77770, Note_off_c, 0, 69, 59
1, 77774, Control_c, 0, 67, 46
1, 77789, Control_c, 0, 67, 46
1, 77803, Note_on_c, 0, 76, 69
1, 77804, Control_c, 0, 67, 45
1, 77819, Control_c, 0, 64, 63
1, 77819, Control_c, 0, 67, 44
1, 77834, Control_c, 0, 64, 62
1, 77834, Control_c, 0, 67, 43
1, 77840, Note_off_c, 0, 76, 64
1, 77841, Note_on_c, 0, 79, 70
1, 77848, Control_c, 0, 64, 57
1, 77863, Control_c, 0, 64, 44
1, 77863, Control_c, 0, 67, 42
1, 77878, Control_c, 0, 64, 0
1, 77893, Control_c, 0, 67, 41
1, 77899, Note_on_c, 0, 60, 53
1, 77908, Control_c, 0, 67, 40
1, 77910, Note_on_c, 0, 51, 48
1, 77917, Note_on_c, 0, 77, 65
1, 77922, Control_c, 0, 67, 40
1, 77925, Note_off_c, 0, 79, 60
1, 77937, Control_c, 0, 67, 39
1, 77952, Control_c, 0, 67, 38
1, 77965, Note_off_c, 0, 77, 62
1, 77967, Note_on_c, 0, 81, 77
1, 77976, Note_off_c, 0, 60, 62
1, 77982, Control_c, 0, 64, 17
1, 77982, Control_c, 0, 67, 37
1, 77997, Control_c, 0, 64, 25
1, 78018, Control_c, 0, 64, 31
1, 78033, Control_c, 0, 64, 36
1, 78048, Control_c, 0, 64, 39
1, 78053, Note_off_c, 0, 81, 60
1, 78054, Note_on_c, 0, 79, 64
1, 78063, Control_c, 0, 64, 43
1, 78077, Control_c, 0, 64, 45
1, 78092, Note_off_c, 0, 79, 61
1, 78092, Control_c, 0, 64, 44
1, 78092, Control_c, 0, 67, 37
1, 78095, Note_on_c, 0, 74, 68
1, 78107, Control_c, 0, 64, 37
1, 78107, Control_c, 0, 67, 36
1, 78122, Note_off_c, 0, 51, 64
1, 78122, Note_off_c, 0, 74, 65
1, 78122, Control_c, 0, 64, 19
1, 78122, Control_c, 0, 67, 36
1, 78137, Control_c, 0, 64, 0
1, 78137, Control_c, 0, 67, 34
1, 78143, Note_on_c, 0, 41, 63
1, 78152, Control_c, 0, 67, 31
1, 78161, Note_on_c, 0, 77, 73
1, 78167, Control_c, 0, 67, 27
1, 78182, Control_c, 0, 67, 22
1, 78197, Control_c, 0, 67, 15
1, 78212, Control_c, 0, 67, 12
1, 78226, Control_c, 0, 64, 16
1, 78226, Control_c, 0, 67, 11
1, 78236, Note_on_c, 0, 75, 64
1, 78238, Note_off_c, 0, 77, 60
1, 78241, Control_c, 0, 64, 23
1, 78256, Control_c, 0, 64, 28
1, 78271, Control_c, 0, 64, 34
1, 78275, Note_off_c, 0, 41, 57
1, 78286, Note_on_c, 0, 67, 69
1, 78286, Control_c, 0, 64, 38
1, 78294, Note_off_c, 0, 75, 60
1, 78301, Control_c, 0, 64, 42
1, 78316, Control_c, 0, 64, 43
1, 78331, Control_c, 0, 67, 12
1, 78355, Note_on_c, 0, 69, 55
1, 78358, Note_off_c, 0, 67, 60
1, 78360, Control_c, 0, 64, 39
1, 78375, Control_c, 0, 64, 30
1, 78375, Control_c, 0, 67, 12
1, 78390, Control_c, 0, 64, 0
1, 78404, Control_c, 0, 67, 13
1, 78407, Note_on_c, 0, 70, 69
1, 78410, Note_off_c, 0, 69, 63
1, 78417, Note_on_c, 0, 50, 50
1, 78419, Control_c, 0, 67, 14
1, 78420, Note_on_c, 0, 58, 59
1, 78434, Control_c, 0, 67, 14
1, 78449, Control_c, 0, 67, 15
1, 78450, Note_off_c, 0, 70, 60
1, 78462, Note_on_c, 0, 75, 59
1, 78463, Control_c, 0, 67, 16
1, 78478, Control_c, 0, 67, 17
1, 78493, Control_c, 0, 64, 17
1, 78493, Control_c, 0, 67, 19
1, 78508, Note_off_c, 0, 58, 63
1, 78508, Control_c, 0, 64, 26
1, 78508, Control_c, 0, 67, 20
1, 78523, Control_c, 0, 64, 32
1, 78523, Control_c, 0, 67, 21
1, 78534, Note_off_c, 0, 75, 62
1, 78535, Note_on_c, 0, 74, 65
1, 78537, Control_c, 0, 64, 38
1, 78537, Control_c, 0, 67, 24
1, 78552, Control_c, 0, 64, 43
1, 78552, Control_c, 0, 67, 28
1, 78562, Note_off_c, 0, 74, 66
1, 78567, Control_c, 0, 64, 46
1, 78567, Control_c, 0, 67, 31
1, 78582, Control_c, 0, 64, 48
1, 78582, Control_c, 0, 67, 34
1, 78593, Note_on_c, 0, 64, 66
1, 78596, Control_c, 0, 64, 48
1, 78596, Control_c, 0, 67, 40
1, 78611, Control_c, 0, 64, 48
1, 78611, Control_c, 0, 67, 45
1, 78626, Control_c, 0, 64, 44
1, 78626, Control_c, 0, 67, 48
1, 78641, Control_c, 0, 64, 37
1, 78641, Control_c, 0, 67, 49
1, 78656, Note_off_c, 0, 64, 61
1, 78656, Control_c, 0, 64, 0
1, 78659, Note_on_c, 0, 65, 68
1, 78671, Control_c, 0, 67, 50
1, 78686, Note_on_c, 0, 41, 53
1, 78686, Control_c, 0, 67, 50
1, 78692, Note_off_c, 0, 50, 35
1, 78721, Note_on_c, 0, 72, 61
1, 78724, Note_off_c, 0, 65, 64
1, 78775, Note_off_c, 0, 72, 63
1, 78780, Note_on_c, 0, 70, 66
1, 78826, Note_off_c, 0, 70, 61
1, 78834, Note_on_c, 0, 61, 64
1, 78856, Control_c, 0, 64, 18
1, 78870, Note_off_c, 0, 61, 67
1, 78870, Control_c, 0, 64, 24
1, 78870, Control_c, 0, 67, 49
1, 78885, Control_c, 0, 64, 29
1, 78885, Control_c, 0, 67, 49
1, 78900, Control_c, 0, 64, 33
1, 78906, Note_on_c, 0, 62, 63
1, 78915, Control_c, 0, 64, 36
1, 78915, Control_c, 0, 67, 48
1, 78930, Control_c, 0, 64, 37
1, 78930, Control_c, 0, 67, 48
1, 78946, Control_c, 0, 64, 35
1, 78961, Control_c, 0, 64, 25
1, 78961, Control_c, 0, 67, 47
1, 78974, Note_on_c, 0, 69, 68
1, 78975, Control_c, 0, 64, 0
1, 78980, Note_off_c, 0, 62, 63
1, 78990, Control_c, 0, 67, 47
1, 79005, Control_c, 0, 67, 46
1, 79011, Note_on_c, 0, 67, 59
1, 79019, Control_c, 0, 67, 46
1, 79034, Control_c, 0, 67, 45
1, 79036, Note_off_c, 0, 69, 64
1, 79064, Note_off_c, 0, 67, 64
1, 79064, Control_c, 0, 67, 45
1, 79075, Note_on_c, 0, 60, 67
1, 79094, Control_c, 0, 64, 15
1, 79109, Control_c, 0, 64, 26
1, 79117, Note_off_c, 0, 60, 60
1, 79120, Note_on_c, 0, 50, 51
1, 79124, Control_c, 0, 64, 35
1, 79133, Note_on_c, 0, 53, 69
1, 79139, Control_c, 0, 64, 41
1, 79147, Note_off_c, 0, 50, 54
1, 79154, Control_c, 0, 64, 47
1, 79154, Control_c, 0, 67, 44
1, 79156, Note_on_c, 0, 58, 60
1, 79168, Control_c, 0, 64, 51
1, 79168, Control_c, 0, 67, 44
1, 79183, Control_c, 0, 64, 53
1, 79198, Control_c, 0, 64, 53
1, 79213, Control_c, 0, 64, 53
1, 79221, Note_on_c, 0, 64, 64
1, 79228, Note_off_c, 0, 58, 61
1, 79251, Note_on_c, 0, 62, 62
1, 79272, Control_c, 0, 64, 51
1, 79282, Note_off_c, 0, 64, 55
1, 79286, Control_c, 0, 64, 46
1, 79292, Note_off_c, 0, 53, 63
1, 79301, Control_c, 0, 64, 36
1, 79306, Note_on_c, 0, 48, 59
1, 79312, Note_on_c, 0, 57, 58
1, 79314, Note_off_c, 0, 62, 59
1, 79316, Control_c, 0, 64, 0
1, 79343, Note_off_c, 0, 57, 63
1, 79345, Control_c, 0, 67, 43
1, 79356, Note_off_c, 0, 48, 63
1, 79360, Control_c, 0, 67, 43
1, 79375, Note_on_c, 0, 55, 60
1, 79385, Note_on_c, 0, 46, 53
1, 79390, Control_c, 0, 67, 42
1, 79405, Control_c, 0, 64, 12
1, 79414, Note_off_c, 0, 55, 67
1, 79419, Note_on_c, 0, 57, 55
1, 79419, Control_c, 0, 64, 21
1, 79434, Control_c, 0, 64, 27
1, 79449, Control_c, 0, 64, 32
1, 79450, Note_off_c, 0, 57, 63
1, 79464, Control_c, 0, 64, 35
1, 79479, Control_c, 0, 64, 37
1, 79496, Note_on_c, 0, 55, 63
1, 79516, Control_c, 0, 64, 33
1, 79531, Control_c, 0, 64, 25
1, 79545, Control_c, 0, 64, 9
1, 79547, Note_off_c, 0, 55, 65
1, 79560, Control_c, 0, 64, 0
1, 79568, Note_on_c, 0, 62, 53
1, 79575, Control_c, 0, 67, 42
1, 79590, Control_c, 0, 67, 41
1, 79601, Note_off_c, 0, 46, 64
1, 79619, Control_c, 0, 67, 41
1, 79624, Note_on_c, 0, 60, 55
1, 79632, Note_on_c, 0, 52, 59
1, 79634, Control_c, 0, 67, 40
1, 79639, Note_off_c, 0, 62, 49
1, 79649, Control_c, 0, 64, 13
1, 79649, Control_c, 0, 67, 39
1, 79664, Control_c, 0, 64, 18
1, 79664, Control_c, 0, 67, 38
1, 79679, Control_c, 0, 64, 24
1, 79679, Control_c, 0, 67, 38
1, 79684, Note_off_c, 0, 60, 63
1, 79688, Note_on_c, 0, 62, 48
1, 79693, Control_c, 0, 64, 30
1, 79708, Control_c, 0, 64, 35
1, 79717, Note_off_c, 0, 62, 65
1, 79723, Control_c, 0, 64, 39
1, 79723, Control_c, 0, 67, 37
1, 79739, Control_c, 0, 64, 39
1, 79754, Control_c, 0, 64, 36
1, 79766, Note_on_c, 0, 60, 57
1, 79769, Control_c, 0, 64, 30
1, 79784, Control_c, 0, 64, 22
1, 79789, Note_off_c, 0, 52, 62
1, 79797, Note_off_c, 0, 60, 64
1, 79798, Control_c, 0, 64, 19
1, 79813, Control_c, 0, 64, 20
1, 79813, Control_c, 0, 67, 37
1, 79815, Note_on_c, 0, 50, 61
1, 79821, Note_on_c, 0, 65, 50
1, 79828, Control_c, 0, 64, 23
1, 79828, Control_c, 0, 67, 36
1, 79842, Control_c, 0, 64, 25
1, 79842, Control_c, 0, 67, 36
1, 79857, Control_c, 0, 64, 27
1, 79857, Control_c, 0, 67, 34
1, 79872, Control_c, 0, 64, 30
1, 79872, Control_c, 0, 67, 31
1, 79877, Note_on_c, 0, 64, 56
1, 79887, Control_c, 0, 64, 34
1, 79887, Control_c, 0, 67, 28
1, 79890, Note_on_c, 0, 48, 62
1, 79890, Note_off_c, 0, 65, 47
1, 79891, Note_off_c, 0, 50, 63
1, 79902, Control_c, 0, 64, 38
1, 79902, Control_c, 0, 67, 23
1, 79917, Control_c, 0, 64, 43
1, 79917, Control_c, 0, 67, 20
1, 79918, Note_off_c, 0, 64, 63
1, 79932, Control_c, 0, 64, 47
1, 79932, Control_c, 0, 67, 19
1, 79940, Note_on_c, 0, 65, 31
1, 79946, Control_c, 0, 67, 18
1, 79961, Control_c, 0, 64, 43
1, 79971, Note_off_c, 0, 65, 46
1, 79976, Control_c, 0, 64, 40
1, 79984, Note_off_c, 0, 48, 61
1, 79991, Control_c, 0, 64, 38
1, 79991, Control_c, 0, 67, 17
1, 80006, Note_on_c, 0, 64, 51
1, 80021, Control_c, 0, 67, 16
1, 80036, Control_c, 0, 67, 15
1, 80041, Note_off_c, 0, 64, 63
1, 80048, Note_on_c, 0, 69, 61
1, 80050, Control_c, 0, 64, 39
1, 80050, Control_c, 0, 67, 15
1, 80065, Control_c, 0, 64, 41
1, 80065, Control_c, 0, 67, 14
1, 80080, Control_c, 0, 64, 45
1, 80080, Control_c, 0, 67, 13
1, 80095, Control_c, 0, 64, 47
1, 80095, Control_c, 0, 67, 10
1, 80108, Note_off_c, 0, 69, 64
1, 80110, Control_c, 0, 64, 49
1, 80110, Control_c, 0, 67, 0
1, 80111, Note_on_c, 0, 67, 69
1, 80124, Control_c, 0, 64, 46
1, 80127, Note_on_c, 0, 48, 61
1, 80134, Note_off_c, 0, 41, 43
1, 80139, Control_c, 0, 64, 39
1, 80154, Control_c, 0, 64, 25
1, 80166, Note_off_c, 0, 67, 61
1, 80168, Control_c, 0, 64, 13
1, 80170, Note_on_c, 0, 69, 55
1, 80183, Control_c, 0, 64, 18
1, 80196, Note_off_c, 0, 69, 66
1, 80198, Control_c, 0, 64, 25
1, 80213, Control_c, 0, 64, 30
1, 80227, Note_on_c, 0, 41, 58
1, 80228, Control_c, 0, 64, 36
1, 80239, Note_on_c, 0, 67, 62
1, 80242, Control_c, 0, 64, 43
1, 80257, Control_c, 0, 64, 51
1, 80280, Control_c, 0, 64, 56
1, 80283, Note_off_c, 0, 41, 60
1, 80286, Note_off_c, 0, 67, 62
1, 80295, Control_c, 0, 64, 57
1, 80301, Note_on_c, 0, 74, 67
1, 80310, Control_c, 0, 64, 57
1, 80324, Control_c, 0, 64, 56
1, 80325, Note_off_c, 0, 74, 70
1, 80339, Control_c, 0, 64, 55
1, 80354, Control_c, 0, 64, 52
1, 80368, Control_c, 0, 64, 39
1, 80383, Control_c, 0, 64, 14
1, 80388, Note_on_c, 0, 57, 56
1, 80398, Control_c, 0, 64, 0
1, 80400, Note_on_c, 0, 72, 60
1, 80457, Note_off_c, 0, 72, 52
1, 80461, Note_on_c, 0, 76, 70
1, 80487, Control_c, 0, 64, 9
1, 80490, Note_off_c, 0, 57, 60
1, 80502, Control_c, 0, 64, 19
1, 80511, Note_off_c, 0, 76, 65
1, 80516, Control_c, 0, 64, 25
1, 80525, Note_on_c, 0, 79, 61
1, 80531, Control_c, 0, 64, 30
1, 80546, Note_off_c, 0, 79, 66
1, 80547, Control_c, 0, 64, 36
1, 80562, Control_c, 0, 64, 43
1, 80577, Control_c, 0, 64, 49
1, 80588, Note_on_c, 0, 77, 66
1, 80591, Control_c, 0, 64, 53
1, 80606, Control_c, 0, 64, 53
1, 80621, Control_c, 0, 64, 51
1, 80636, Control_c, 0, 64, 44
1, 80651, Control_c, 0, 64, 23
1, 80656, Note_off_c, 0, 48, 41
1, 80657, Note_off_c, 0, 77, 62
1, 80664, Note_on_c, 0, 80, 66
1, 80665, Control_c, 0, 64, 0
1, 80668, Note_on_c, 0, 53, 35
1, 80724, Note_on_c, 0, 82, 60
1, 80727, Note_off_c, 0, 80, 62
1, 80778, Note_off_c, 0, 82, 65
1, 80793, Note_on_c, 0, 81, 64
1, 80799, Control_c, 0, 64, 11
1, 80814, Control_c, 0, 64, 16
1, 80829, Control_c, 0, 64, 20
1, 80844, Control_c, 0, 64, 24
1, 80848, Note_on_c, 0, 83, 73
1, 80855, Note_off_c, 0, 81, 61
1, 80859, Control_c, 0, 64, 27
1, 80873, Control_c, 0, 64, 32
1, 80888, Control_c, 0, 64, 36
1, 80894, Note_off_c, 0, 53, 55
1, 80903, Note_off_c, 0, 83, 68
1, 80903, Control_c, 0, 64, 42
1, 80911, Note_on_c, 0, 86, 73
1, 80918, Control_c, 0, 64, 47
1, 80932, Control_c, 0, 64, 52
1, 80933, Note_off_c, 0, 86, 68
1, 80947, Control_c, 0, 64, 56
1, 80962, Control_c, 0, 64, 58
1, 80972, Note_on_c, 0, 84, 73
1, 80977, Control_c, 0, 64, 59
1, 80991, Control_c, 0, 64, 59
1, 81005, Control_c, 0, 64, 60
1, 81028, Control_c, 0, 64, 60
1, 81036, Note_on_c, 0, 88, 78
1, 81055, Note_off_c, 0, 84, 58
1, 81058, Control_c, 0, 64, 61
1, 81091, Note_on_c, 0, 91, 76
1, 81091, Note_off_c, 0, 88, 68
1, 81102, Control_c, 0, 64, 60
1, 81117, Control_c, 0, 64, 59
1, 81120, Note_off_c, 0, 91, 62
1, 81132, Control_c, 0, 64, 53
1, 81146, Control_c, 0, 64, 39
1, 81161, Control_c, 0, 64, 0
1, 81168, Note_on_c, 0, 89, 78
1, 81173, Note_on_c, 0, 65, 75
1, 81190, Control_c, 0, 64, 9
1, 81205, Control_c, 0, 64, 21
1, 81220, Control_c, 0, 64, 27
1, 81235, Note_off_c, 0, 89, 65
1, 81235, Control_c, 0, 64, 36
1, 81236, Note_on_c, 0, 92, 81
1, 81250, Control_c, 0, 64, 45
1, 81264, Control_c, 0, 64, 54
1, 81279, Control_c, 0, 64, 61
1, 81294, Control_c, 0, 64, 63
1, 81297, Note_off_c, 0, 65, 61
1, 81301, Note_on_c, 0, 94, 76
1, 81309, Note_off_c, 0, 92, 65
1, 81359, Note_off_c, 0, 94, 65
1, 81369, Control_c, 0, 64, 62
1, 81373, Note_on_c, 0, 93, 77
1, 81384, Control_c, 0, 64, 59
1, 81399, Control_c, 0, 64, 53
1, 81413, Control_c, 0, 64, 42
1, 81428, Control_c, 0, 64, 14
1, 81437, Note_on_c, 0, 65, 50
1, 81442, Note_off_c, 0, 93, 60
1, 81443, Control_c, 0, 64, 0
1, 81446, Note_on_c, 0, 95, 74
1, 81454, Note_on_c, 0, 53, 42
1, 81470, Note_on_c, 0, 63, 36
1, 81514, Note_off_c, 0, 95, 65
1, 81526, Note_on_c, 0, 96, 65
1, 81532, Note_off_c, 0, 65, 62
1, 81532, Control_c, 0, 64, 8
1, 81547, Control_c, 0, 64, 16
1, 81561, Note_off_c, 0, 96, 63
1, 81562, Control_c, 0, 64, 21
1, 81577, Control_c, 0, 64, 25
1, 81592, Control_c, 0, 64, 27
1, 81598, Note_on_c, 0, 101, 65
1, 81606, Control_c, 0, 64, 29
1, 81621, Control_c, 0, 64, 32
1, 81636, Control_c, 0, 64, 36
1, 81651, Control_c, 0, 64, 39
1, 81666, Control_c, 0, 64, 43
1, 81670, Note_on_c, 0, 100, 65
1, 81680, Control_c, 0, 64, 46
1, 81695, Control_c, 0, 64, 48
1, 81705, Note_off_c, 0, 101, 62
1, 81710, Control_c, 0, 64, 51
1, 81724, Note_on_c, 0, 99, 67
1, 81725, Control_c, 0, 64, 53
1, 81730, Note_on_c, 0, 65, 85
1, 81736, Note_off_c, 0, 100, 63
1, 81739, Control_c, 0, 64, 55
1, 81762, Control_c, 0, 64, 57
1, 81777, Control_c, 0, 64, 58
1, 81784, Note_on_c, 0, 96, 63
1, 81792, Control_c, 0, 64, 60
1, 81792, Note_off_c, 0, 99, 64
1, 81807, Control_c, 0, 64, 61
1, 81821, Control_c, 0, 64, 62
1, 81836, Control_c, 0, 64, 63
1, 81839, Note_off_c, 0, 53, 45
1, 81853, Note_off_c, 0, 96, 64
1, 81859, Note_on_c, 0, 98, 77
1, 81860, Note_off_c, 0, 65, 66
1, 81862, Note_off_c, 0, 63, 54
1, 81895, Control_c, 0, 64, 63
1, 81941, Note_off_c, 0, 98, 63
1, 81947, Note_on_c, 0, 94, 71
1, 81954, Control_c, 0, 64, 62
1, 81969, Control_c, 0, 64, 60
1, 81984, Control_c, 0, 64, 53
1, 81993, Note_on_c, 0, 63, 43
1, 81994, Note_on_c, 0, 65, 54
1, 81998, Note_on_c, 0, 55, 50
1, 81999, Control_c, 0, 64, 35
1, 82004, Note_off_c, 0, 94, 64
1, 82013, Control_c, 0, 64, 0
1, 82022, Note_on_c, 0, 93, 55
1, 82058, Control_c, 0, 64, 15
1, 82070, Note_off_c, 0, 93, 55
1, 82072, Note_on_c, 0, 98, 72
1, 82073, Control_c, 0, 64, 20
1, 82087, Control_c, 0, 64, 26
1, 82102, Control_c, 0, 64, 33
1, 82117, Control_c, 0, 64, 41
1, 82123, Note_off_c, 0, 55, 64
1, 82131, Note_on_c, 0, 96, 64
1, 82133, Control_c, 0, 64, 49
1, 82148, Note_off_c, 0, 63, 63
1, 82148, Note_off_c, 0, 65, 64
1, 82148, Control_c, 0, 64, 56
1, 82162, Control_c, 0, 64, 59
1, 82171, Note_off_c, 0, 98, 54
1, 82177, Control_c, 0, 64, 59
1, 82190, Note_on_c, 0, 91, 78
1, 82206, Note_off_c, 0, 96, 63
1, 82236, Control_c, 0, 64, 56
1, 82245, Note_off_c, 0, 91, 47
1, 82251, Control_c, 0, 64, 49
1, 82259, Note_on_c, 0, 89, 74
1, 82264, Note_on_c, 0, 65, 64
1, 82266, Control_c, 0, 64, 32
1, 82272, Note_on_c, 0, 63, 60
1, 82277, Note_on_c, 0, 57, 52
1, 82281, Control_c, 0, 64, 0
1, 82296, Note_off_c, 0, 89, 59
1, 82325, Control_c, 0, 64, 13
1, 82334, Note_on_c, 0, 86, 69
1, 82340, Control_c, 0, 64, 20
1, 82355, Control_c, 0, 64, 28
1, 82364, Note_off_c, 0, 63, 54
1, 82364, Note_off_c, 0, 65, 63
1, 82370, Control_c, 0, 64, 37
1, 82385, Control_c, 0, 64, 44
1, 82388, Note_off_c, 0, 86, 61
1, 82400, Control_c, 0, 64, 51
1, 82405, Note_on_c, 0, 87, 71
1, 82415, Control_c, 0, 64, 56
1, 82429, Control_c, 0, 64, 57
1, 82444, Control_c, 0, 64, 57
1, 82444, Note_on_c, 0, 84, 70
1, 82450, Note_off_c, 0, 87, 59
1, 82459, Control_c, 0, 64, 56
1, 82474, Control_c, 0, 64, 51
1, 82489, Control_c, 0, 64, 37
1, 82510, Control_c, 0, 64, 0
1, 82513, Note_off_c, 0, 84, 45
1, 82537, Note_on_c, 0, 65, 37
1, 82540, Note_on_c, 0, 82, 57
1, 82541, Note_off_c, 0, 57, 51
1, 82556, Note_on_c, 0, 62, 33
1, 82559, Note_on_c, 0, 58, 40
1, 82608, Note_off_c, 0, 82, 64
1, 82632, Note_on_c, 0, 88, 58
1, 82636, Note_off_c, 0, 65, 57
1, 82637, Note_on_c, 0, 89, 49
1, 82659, Note_off_c, 0, 89, 60
1, 82665, Note_on_c, 0, 86, 69
1, 82665, Note_off_c, 0, 88, 65
1, 82715, Note_off_c, 0, 86, 63
1, 82718, Control_c, 0, 64, 11
1, 82723, Note_on_c, 0, 78, 69
1, 82733, Control_c, 0, 64, 18
1, 82748, Control_c, 0, 64, 22
1, 82762, Control_c, 0, 64, 26
1, 82763, Note_off_c, 0, 78, 62
1, 82777, Control_c, 0, 64, 30
1, 82792, Control_c, 0, 64, 36
1, 82807, Control_c, 0, 64, 41
1, 82811, Note_on_c, 0, 65, 54
1, 82812, Note_on_c, 0, 79, 68
1, 82822, Control_c, 0, 64, 47
1, 82836, Control_c, 0, 64, 51
1, 82851, Control_c, 0, 64, 52
1, 82868, Note_on_c, 0, 84, 66
1, 82877, Note_off_c, 0, 79, 54
1, 82881, Control_c, 0, 64, 53
1, 82896, Control_c, 0, 64, 56
1, 82910, Control_c, 0, 64, 60
1, 82921, Note_off_c, 0, 84, 64
1, 82925, Control_c, 0, 64, 63
1, 82939, Note_on_c, 0, 82, 53
1, 82941, Control_c, 0, 64, 64
1, 82956, Control_c, 0, 64, 65
1, 82970, Note_off_c, 0, 82, 58
1, 82971, Control_c, 0, 64, 66
1, 82985, Control_c, 0, 64, 68
1, 82990, Note_on_c, 0, 73, 54
1, 83000, Control_c, 0, 67, 8
1, 83015, Control_c, 0, 67, 9
1, 83017, Note_off_c, 0, 73, 62
1, 83030, Control_c, 0, 64, 67
1, 83030, Control_c, 0, 67, 10
1, 83045, Control_c, 0, 64, 62
1, 83045, Control_c, 0, 67, 11
1, 83059, Control_c, 0, 64, 46
1, 83059, Control_c, 0, 67, 12
1, 83064, Note_on_c, 0, 74, 57
1, 83074, Control_c, 0, 64, 0
1, 83074, Control_c, 0, 67, 13
1, 83084, Note_on_c, 0, 53, 42
1, 83089, Control_c, 0, 67, 14
1, 83104, Control_c, 0, 67, 16
1, 83115, Note_off_c, 0, 74, 62
1, 83119, Control_c, 0, 67, 17
1, 83130, Note_on_c, 0, 81, 58
1, 83163, Control_c, 0, 67, 18
1, 83175, Note_off_c, 0, 65, 64
1, 83178, Control_c, 0, 67, 19
1, 83183, Note_on_c, 0, 79, 59
1, 83192, Note_off_c, 0, 81, 61
1, 83193, Control_c, 0, 67, 22
1, 83208, Control_c, 0, 67, 25
1, 83222, Note_off_c, 0, 79, 61
1, 83222, Control_c, 0, 64, 10
1, 83222, Control_c, 0, 67, 26
1, 83234, Note_on_c, 0, 72, 57
1, 83237, Control_c, 0, 64, 23
1, 83237, Control_c, 0, 67, 27
1, 83259, Control_c, 0, 64, 30
1, 83259, Control_c, 0, 67, 28
1, 83274, Control_c, 0, 64, 36
1, 83274, Control_c, 0, 67, 30
1, 83289, Control_c, 0, 64, 40
1, 83289, Control_c, 0, 67, 33
1, 83304, Control_c, 0, 64, 41
1, 83304, Control_c, 0, 67, 36
1, 83306, Note_off_c, 0, 58, 63
1, 83306, Note_off_c, 0, 62, 57
1, 83306, Note_off_c, 0, 72, 49
1, 83319, Control_c, 0, 64, 39
1, 83319, Control_c, 0, 67, 36
1, 83327, Note_on_c, 0, 65, 72
1, 83333, Note_on_c, 0, 70, 63
1, 83333, Control_c, 0, 64, 33
1, 83348, Control_c, 0, 64, 26
1, 83378, Control_c, 0, 64, 30
1, 83390, Note_off_c, 0, 70, 63
1, 83392, Control_c, 0, 64, 33
1, 83392, Control_c, 0, 67, 35
1, 83404, Note_on_c, 0, 76, 67
1, 83407, Control_c, 0, 64, 37
1, 83422, Control_c, 0, 64, 42
1, 83422, Control_c, 0, 67, 35
1, 83437, Control_c, 0, 64, 48
1, 83443, Note_on_c, 0, 74, 52
1, 83452, Control_c, 0, 64, 53
1, 83452, Control_c, 0, 67, 34
1, 83467, Control_c, 0, 64, 57
1, 83467, Control_c, 0, 67, 34
1, 83467, Note_off_c, 0, 76, 59
1, 83482, Control_c, 0, 64, 58
1, 83491, Note_off_c, 0, 65, 63
1, 83493, Note_off_c, 0, 74, 60
1, 83497, Control_c, 0, 67, 33
1, 83497, Note_on_c, 0, 60, 67
1, 83511, Control_c, 0, 64, 57
1, 83525, Note_on_c, 0, 69, 40
1, 83526, Control_c, 0, 64, 56
1, 83541, Control_c, 0, 64, 52
1, 83541, Control_c, 0, 67, 33
1, 83555, Note_off_c, 0, 69, 51
1, 83556, Control_c, 0, 64, 43
1, 83562, Note_off_c, 0, 60, 64
1, 83571, Control_c, 0, 64, 29
1, 83580, Note_on_c, 0, 67, 58
1, 83580, Note_on_c, 0, 58, 60
1, 83585, Control_c, 0, 64, 0
1, 83613, Note_off_c, 0, 67, 66
1, 83615, Control_c, 0, 67, 32
1, 83628, Note_on_c, 0, 69, 61
1, 83630, Control_c, 0, 67, 32
1, 83645, Control_c, 0, 67, 31
1, 83657, Note_off_c, 0, 69, 66
1, 83659, Control_c, 0, 64, 14
1, 83674, Control_c, 0, 64, 21
1, 83674, Control_c, 0, 67, 31
1, 83689, Control_c, 0, 64, 29
1, 83689, Control_c, 0, 67, 30
1, 83703, Control_c, 0, 64, 35
1, 83705, Note_on_c, 0, 67, 60
1, 83718, Control_c, 0, 64, 40
1, 83735, Control_c, 0, 64, 45
1, 83750, Control_c, 0, 64, 48
1, 83753, Note_off_c, 0, 67, 60
1, 83764, Control_c, 0, 64, 46
1, 83765, Note_on_c, 0, 74, 63
1, 83779, Control_c, 0, 64, 41
1, 83779, Control_c, 0, 67, 30
1, 83794, Control_c, 0, 64, 28
1, 83808, Control_c, 0, 64, 0
1, 83808, Control_c, 0, 67, 29
1, 83809, Note_off_c, 0, 58, 63
1, 83823, Control_c, 0, 67, 29
1, 83831, Note_off_c, 0, 74, 56
1, 83834, Note_on_c, 0, 64, 62
1, 83834, Note_on_c, 0, 72, 61
1, 83838, Control_c, 0, 67, 28
1, 83868, Control_c, 0, 64, 8
1, 83868, Control_c, 0, 67, 27
1, 83873, Note_off_c, 0, 72, 59
1, 83881, Note_on_c, 0, 74, 36
1, 83882, Control_c, 0, 64, 16
1, 83882, Control_c, 0, 67, 26
1, 83897, Control_c, 0, 64, 22
1, 83912, Control_c, 0, 64, 29
1, 83912, Control_c, 0, 67, 26
1, 83917, Note_off_c, 0, 74, 65
1, 83927, Control_c, 0, 64, 34
1, 83941, Control_c, 0, 64, 39
1, 83956, Control_c, 0, 64, 44
1, 83956, Control_c, 0, 67, 25
1, 83965, Note_on_c, 0, 72, 64
1, 83971, Control_c, 0, 64, 47
1, 83986, Control_c, 0, 64, 47
1, 83999, Note_off_c, 0, 72, 60
1, 84001, Control_c, 0, 64, 40
1, 84001, Control_c, 0, 67, 25
1, 84012, Note_off_c, 0, 64, 61
1, 84019, Note_on_c, 0, 62, 66
1, 84021, Note_on_c, 0, 77, 68
1, 84023, Control_c, 0, 64, 26
1, 84038, Control_c, 0, 64, 0
1, 84038, Control_c, 0, 67, 24
1, 84053, Control_c, 0, 67, 23
1, 84068, Control_c, 0, 67, 19
1, 84080, Note_off_c, 0, 77, 63
1, 84082, Control_c, 0, 67, 11
1, 84084, Note_on_c, 0, 76, 69
1, 84088, Note_on_c, 0, 60, 66
1, 84097, Note_off_c, 0, 62, 61
1, 84097, Control_c, 0, 67, 0
1, 84127, Control_c, 0, 64, 9
1, 84131, Note_off_c, 0, 76, 64
1, 84141, Control_c, 0, 64, 15
1, 84145, Note_on_c, 0, 77, 62
1, 84156, Control_c, 0, 64, 19
1, 84171, Control_c, 0, 64, 22
1, 84172, Note_off_c, 0, 77, 66
1, 84186, Control_c, 0, 64, 25
1, 84201, Control_c, 0, 64, 30
1, 84210, Note_off_c, 0, 60, 61
1, 84213, Note_on_c, 0, 76, 69
1, 84215, Control_c, 0, 64, 34
1, 84230, Control_c, 0, 64, 38
1, 84241, Note_off_c, 0, 76, 66
1, 84245, Control_c, 0, 64, 41
1, 84260, Control_c, 0, 64, 44
1, 84265, Note_on_c, 0, 86, 75
1, 84275, Control_c, 0, 64, 47
1, 84286, Note_off_c, 0, 86, 69
1, 84290, Control_c, 0, 64, 49
1, 84305, Control_c, 0, 64, 50
1, 84319, Control_c, 0, 64, 51
1, 84334, Control_c, 0, 64, 52
1, 84334, Note_on_c, 0, 60, 65
1, 84341, Note_on_c, 0, 84, 80
1, 84349, Control_c, 0, 64, 53
1, 84364, Control_c, 0, 64, 55
1, 84379, Control_c, 0, 64, 57
1, 84381, Note_off_c, 0, 53, 43
1, 84391, Note_off_c, 0, 84, 63
1, 84394, Control_c, 0, 64, 58
1, 84394, Note_on_c, 0, 86, 74
1, 84408, Control_c, 0, 64, 59
1, 84417, Note_off_c, 0, 86, 67
1, 84423, Control_c, 0, 64, 60
1, 84438, Control_c, 0, 64, 61
1, 84453, Control_c, 0, 64, 62
1, 84466, Note_on_c, 0, 84, 73
1, 84497, Note_off_c, 0, 84, 61
1, 84522, Note_off_c, 0, 60, 49
1, 84537, Note_on_c, 0, 98, 80
1, 84543, Control_c, 0, 64, 62
1, 84557, Control_c, 0, 64, 61
1, 84572, Control_c, 0, 64, 59
1, 84587, Control_c, 0, 64, 54
1, 84601, Note_off_c, 0, 98, 61
1, 84602, Control_c, 0, 64, 44
1, 84605, Note_on_c, 0, 62, 54
1, 84606, Note_on_c, 0, 96, 70
1, 84609, Note_on_c, 0, 57, 47
1, 84617, Control_c, 0, 64, 24
1, 84621, Note_on_c, 0, 53, 38
1, 84631, Control_c, 0, 64, 0
1, 84676, Note_off_c, 0, 96, 64
1, 84680, Note_on_c, 0, 98, 82
1, 84705, Control_c, 0, 64, 10
1, 84720, Control_c, 0, 64, 16
1, 84735, Control_c, 0, 64, 21
1, 84750, Control_c, 0, 64, 26
1, 84751, Note_on_c, 0, 96, 63
1, 84768, Note_on_c, 0, 95, 76
1, 84772, Control_c, 0, 64, 30
1, 84787, Control_c, 0, 64, 33
1, 84792, Note_off_c, 0, 98, 63
1, 84802, Control_c, 0, 64, 35
1, 84815, Note_on_c, 0, 91, 74
1, 84817, Control_c, 0, 64, 37
1, 84828, Note_off_c, 0, 96, 59
1, 84832, Note_off_c, 0, 95, 40
1, 84832, Note_off_c, 0, 62, 56
1, 84867, Note_off_c, 0, 91, 52
1, 84886, Note_on_c, 0, 89, 61
1, 84890, Note_on_c, 0, 60, 44
1, 84891, Control_c, 0, 64, 36
1, 84906, Control_c, 0, 64, 35
1, 84918, Note_off_c, 0, 89, 58
1, 84920, Control_c, 0, 64, 33
1, 84935, Control_c, 0, 64, 26
1, 84950, Control_c, 0, 64, 8
1, 84957, Note_on_c, 0, 91, 63
1, 84964, Control_c, 0, 64, 0
1, 85001, Note_on_c, 0, 89, 61
1, 85041, Note_off_c, 0, 91, 57
1, 85053, Note_on_c, 0, 86, 66
1, 85068, Note_off_c, 0, 89, 63
1, 85083, Control_c, 0, 67, 8
1, 85098, Control_c, 0, 64, 10
1, 85107, Note_off_c, 0, 86, 57
1, 85112, Control_c, 0, 64, 16
1, 85122, Note_on_c, 0, 84, 68
1, 85127, Control_c, 0, 64, 20
1, 85142, Control_c, 0, 64, 25
1, 85142, Control_c, 0, 67, 9
1, 85150, Note_off_c, 0, 84, 65
1, 85157, Control_c, 0, 64, 32
1, 85157, Control_c, 0, 67, 10
1, 85172, Control_c, 0, 64, 38
1, 85172, Control_c, 0, 67, 12
1, 85187, Control_c, 0, 64, 43
1, 85187, Control_c, 0, 67, 13
1, 85193, Note_on_c, 0, 86, 74
1, 85193, Note_off_c, 0, 53, 44
1, 85199, Note_off_c, 0, 60, 57
1, 85202, Control_c, 0, 64, 48
1, 85217, Control_c, 0, 64, 51
1, 85231, Control_c, 0, 64, 54
1, 85235, Note_on_c, 0, 84, 71
1, 85246, Control_c, 0, 64, 56
1, 85260, Note_off_c, 0, 57, 30
1, 85261, Control_c, 0, 64, 57
1, 85261, Control_c, 0, 67, 13
1, 85275, Control_c, 0, 64, 58
1, 85275, Control_c, 0, 67, 12
1, 85285, Note_off_c, 0, 86, 51
1, 85290, Control_c, 0, 67, 12
1, 85305, Note_on_c, 0, 79, 68
1, 85305, Control_c, 0, 67, 11
1, 85320, Control_c, 0, 67, 10
1, 85327, Note_off_c, 0, 84, 62
1, 85336, Control_c, 0, 64, 58
1, 85336, Control_c, 0, 67, 10
1, 85351, Control_c, 0, 64, 59
1, 85351, Control_c, 0, 67, 9
1, 85366, Control_c, 0, 64, 58
1, 85366, Note_off_c, 0, 79, 62
1, 85371, Note_on_c, 0, 77, 71
1, 85372, Note_on_c, 0, 65, 77
1, 85380, Control_c, 0, 64, 56
1, 85395, Control_c, 0, 64, 51
1, 85395, Control_c, 0, 67, 9
1, 85406, Note_off_c, 0, 77, 62
1, 85410, Control_c, 0, 64, 39
1, 85425, Control_c, 0, 64, 20
1, 85425, Control_c, 0, 67, 8
1, 85440, Control_c, 0, 64, 16
1, 85440, Control_c, 0, 67, 8
1, 85445, Note_on_c, 0, 79, 73
1, 85454, Control_c, 0, 64, 19
1, 85454, Control_c, 0, 67, 0
1, 85469, Control_c, 0, 64, 22
1, 85483, Note_on_c, 0, 77, 52
1, 85484, Control_c, 0, 64, 25
1, 85499, Control_c, 0, 64, 27
1, 85521, Control_c, 0, 64, 31
1, 85536, Control_c, 0, 64, 37
1, 85551, Note_on_c, 0, 74, 56
1, 85551, Control_c, 0, 64, 42
1, 85561, Note_off_c, 0, 77, 61
1, 85565, Control_c, 0, 64, 46
1, 85580, Control_c, 0, 64, 48
1, 85585, Note_off_c, 0, 79, 36
1, 85594, Note_off_c, 0, 74, 58
1, 85610, Control_c, 0, 64, 45
1, 85621, Note_on_c, 0, 72, 56
1, 85625, Control_c, 0, 64, 32
1, 85630, Note_on_c, 0, 55, 40
1, 85639, Note_on_c, 0, 53, 39
1, 85640, Control_c, 0, 64, 0
1, 85641, Note_on_c, 0, 58, 46
1, 85653, Note_off_c, 0, 72, 61
1, 85689, Note_on_c, 0, 74, 48
1, 85723, Note_off_c, 0, 74, 61
1, 85743, Control_c, 0, 64, 11
1, 85745, Note_off_c, 0, 65, 59
1, 85756, Note_on_c, 0, 72, 57
1, 85758, Control_c, 0, 64, 23
1, 85773, Control_c, 0, 64, 29
1, 85787, Control_c, 0, 64, 33
1, 85792, Note_off_c, 0, 72, 63
1, 85802, Note_on_c, 0, 77, 61
1, 85802, Control_c, 0, 64, 37
1, 85817, Control_c, 0, 64, 42
1, 85832, Control_c, 0, 64, 47
1, 85847, Control_c, 0, 64, 51
1, 85861, Control_c, 0, 64, 51
1, 85867, Note_off_c, 0, 77, 63
1, 85874, Note_off_c, 0, 58, 61
1, 85876, Control_c, 0, 64, 45
1, 85878, Note_on_c, 0, 76, 61
1, 85881, Note_off_c, 0, 55, 46
1, 85890, Note_on_c, 0, 64, 57
1, 85891, Control_c, 0, 64, 34
1, 85905, Control_c, 0, 64, 18
1, 85920, Note_off_c, 0, 76, 62
1, 85920, Control_c, 0, 64, 0
1, 85938, Note_on_c, 0, 77, 64
1, 85950, Control_c, 0, 64, 12
1, 85965, Control_c, 0, 64, 18
1, 85967, Note_off_c, 0, 77, 66
1, 85980, Control_c, 0, 64, 22
1, 85995, Control_c, 0, 64, 26
1, 86009, Note_on_c, 0, 76, 63
1, 86010, Control_c, 0, 64, 31
1, 86025, Control_c, 0, 64, 35
1, 86039, Control_c, 0, 64, 40
1, 86048, Note_off_c, 0, 76, 61
1, 86054, Control_c, 0, 64, 45
1, 86066, Note_on_c, 0, 62, 74
1, 86069, Control_c, 0, 64, 49
1, 86071, Note_off_c, 0, 64, 63
1, 86076, Note_on_c, 0, 86, 72
1, 86084, Control_c, 0, 64, 51
1, 86113, Control_c, 0, 64, 47
1, 86129, Control_c, 0, 64, 39
1, 86136, Note_off_c, 0, 86, 62
1, 86143, Note_on_c, 0, 84, 74
1, 86144, Control_c, 0, 64, 25
1, 86150, Note_on_c, 0, 60, 73
1, 86159, Control_c, 0, 64, 18
1, 86167, Note_off_c, 0, 62, 63
1, 86188, Control_c, 0, 64, 20
1, 86197, Note_on_c, 0, 86, 66
1, 86199, Note_off_c, 0, 84, 65
1, 86203, Control_c, 0, 64, 22
1, 86218, Control_c, 0, 64, 24
1, 86233, Control_c, 0, 64, 26
1, 86236, Note_off_c, 0, 86, 62
1, 86255, Control_c, 0, 64, 29
1, 86270, Control_c, 0, 64, 32
1, 86284, Control_c, 0, 64, 34
1, 86288, Note_on_c, 0, 84, 65
1, 86299, Control_c, 0, 64, 38
1, 86314, Control_c, 0, 64, 40
1, 86321, Note_off_c, 0, 60, 63
1, 86324, Note_off_c, 0, 84, 61
1, 86329, Control_c, 0, 64, 43
1, 86338, Note_on_c, 0, 89, 77
1, 86343, Control_c, 0, 64, 45
1, 86358, Control_c, 0, 64, 48
1, 86373, Control_c, 0, 64, 51
1, 86388, Control_c, 0, 64, 53
1, 86402, Note_on_c, 0, 88, 78
1, 86403, Control_c, 0, 64, 55
1, 86403, Note_off_c, 0, 89, 65
1, 86418, Control_c, 0, 64, 57
1, 86433, Control_c, 0, 64, 58
1, 86436, Note_on_c, 0, 60, 62
1, 86448, Control_c, 0, 64, 60
1, 86458, Note_off_c, 0, 53, 48
1, 86459, Note_off_c, 0, 88, 67
1, 86461, Note_on_c, 0, 89, 69
1, 86463, Control_c, 0, 64, 61
1, 86478, Control_c, 0, 64, 62
1, 86492, Note_off_c, 0, 89, 67
1, 86492, Control_c, 0, 64, 63
1, 86522, Control_c, 0, 64, 63
1, 86532, Note_on_c, 0, 88, 69
1, 86562, Note_off_c, 0, 88, 68
1, 86589, Note_on_c, 0, 98, 77
1, 86625, Control_c, 0, 64, 63
1, 86640, Control_c, 0, 64, 62
1, 86642, Note_off_c, 0, 60, 62
1, 86655, Control_c, 0, 64, 60
1, 86659, Note_off_c, 0, 98, 63
1, 86670, Control_c, 0, 64, 55
1, 86676, Note_on_c, 0, 96, 58
1, 86677, Note_on_c, 0, 62, 55
1, 86683, Note_on_c, 0, 57, 51
1, 86684, Control_c, 0, 64, 43
1, 86687, Note_on_c, 0, 53, 43
1, 86699, Control_c, 0, 64, 26
1, 86714, Control_c, 0, 64, 0
1, 86736, Note_off_c, 0, 96, 64
1, 86744, Note_on_c, 0, 98, 75
1, 86803, Control_c, 0, 64, 12
1, 86817, Control_c, 0, 64, 17
1, 86820, Note_on_c, 0, 96, 68
1, 86822, Note_off_c, 0, 98, 58
1, 86832, Control_c, 0, 64, 20
1, 86847, Control_c, 0, 64, 23
1, 86862, Control_c, 0, 64, 28
1, 86877, Control_c, 0, 64, 31
1, 86888, Note_on_c, 0, 91, 66
1, 86892, Control_c, 0, 64, 35
1, 86896, Note_off_c, 0, 96, 63
1, 86907, Control_c, 0, 64, 39
1, 86922, Control_c, 0, 64, 44
1, 86937, Control_c, 0, 64, 48
1, 86947, Note_off_c, 0, 91, 60
1, 86952, Control_c, 0, 64, 51
1, 86962, Note_on_c, 0, 89, 63
1, 86965, Note_on_c, 0, 60, 65
1, 86969, Note_off_c, 0, 62, 63
1, 86981, Control_c, 0, 64, 49
1, 87004, Control_c, 0, 64, 47
1, 87012, Note_off_c, 0, 89, 62
1, 87019, Control_c, 0, 64, 48
1, 87033, Control_c, 0, 64, 49
1, 87048, Control_c, 0, 64, 49
1, 87056, Note_on_c, 0, 91, 67
1, 87059, Note_off_c, 0, 57, 37
1, 87063, Control_c, 0, 64, 50
1, 87074, Note_off_c, 0, 53, 55
1, 87078, Control_c, 0, 64, 50
1, 87093, Control_c, 0, 64, 52
1, 87107, Control_c, 0, 64, 56
1, 87122, Control_c, 0, 64, 59
1, 87126, Note_on_c, 0, 89, 60
1, 87137, Control_c, 0, 64, 61
1, 87187, Note_on_c, 0, 86, 55
1, 87216, Note_off_c, 0, 91, 33
1, 87217, Note_off_c, 0, 89, 38
1, 87226, Control_c, 0, 64, 61
1, 87241, Control_c, 0, 64, 60
1, 87256, Control_c, 0, 64, 59
1, 87269, Note_off_c, 0, 86, 59
1, 87271, Control_c, 0, 64, 59
1, 87285, Control_c, 0, 64, 58
1, 87300, Note_on_c, 0, 84, 54
1, 87300, Control_c, 0, 64, 55
1, 87307, Note_on_c, 0, 69, 62
1, 87315, Control_c, 0, 64, 49
1, 87330, Control_c, 0, 64, 40
1, 87345, Control_c, 0, 64, 27
1, 87345, Control_c, 0, 67, 8
1, 87355, Note_off_c, 0, 84, 57
1, 87359, Control_c, 0, 64, 25
1, 87359, Control_c, 0, 67, 9
1, 87374, Control_c, 0, 64, 26
1, 87374, Control_c, 0, 67, 9
1, 87389, Control_c, 0, 67, 10
1, 87404, Control_c, 0, 64, 26
1, 87404, Control_c, 0, 67, 11
1, 87411, Note_on_c, 0, 86, 61
1, 87419, Control_c, 0, 64, 27
1, 87419, Control_c, 0, 67, 11
1, 87433, Control_c, 0, 64, 29
1, 87433, Control_c, 0, 67, 12
1, 87448, Control_c, 0, 64, 31
1, 87448, Control_c, 0, 67, 13
1, 87463, Control_c, 0, 64, 33
1, 87470, Note_on_c, 0, 84, 55
1, 87477, Control_c, 0, 64, 34
1, 87477, Control_c, 0, 67, 14
1, 87479, Note_off_c, 0, 69, 61
1, 87492, Control_c, 0, 64, 36
1, 87492, Control_c, 0, 67, 16
1, 87507, Control_c, 0, 64, 38
1, 87507, Control_c, 0, 67, 18
1, 87515, Note_off_c, 0, 86, 35
1, 87522, Control_c, 0, 64, 41
1, 87522, Control_c, 0, 67, 20
1, 87537, Control_c, 0, 64, 46
1, 87537, Control_c, 0, 67, 21
1, 87543, Note_off_c, 0, 84, 60
1, 87547, Note_on_c, 0, 79, 49
1, 87551, Control_c, 0, 64, 50
1, 87551, Control_c, 0, 67, 22
1, 87566, Control_c, 0, 64, 53
1, 87566, Control_c, 0, 67, 23
1, 87581, Control_c, 0, 64, 54
1, 87581, Control_c, 0, 67, 24
1, 87592, Note_on_c, 0, 67, 66
1, 87594, Note_off_c, 0, 79, 62
1, 87595, Note_on_c, 0, 77, 63
1, 87596, Control_c, 0, 64, 55
1, 87596, Control_c, 0, 67, 27
1, 87611, Control_c, 0, 64, 57
1, 87611, Control_c, 0, 67, 32
1, 87613, Note_on_c, 0, 58, 57
1, 87621, Note_off_c, 0, 67, 67
1, 87625, Control_c, 0, 64, 60
1, 87625, Control_c, 0, 67, 36
1, 87640, Note_off_c, 0, 77, 53
1, 87640, Control_c, 0, 64, 61
1, 87640, Control_c, 0, 67, 36
1, 87646, Note_off_c, 0, 60, 61
1, 87685, Note_on_c, 0, 79, 55
1, 87700, Note_on_c, 0, 77, 51
1, 87709, Note_off_c, 0, 58, 53
1, 87730, Note_on_c, 0, 65, 72
1, 87734, Note_on_c, 0, 57, 66
1, 87753, Control_c, 0, 67, 36
1, 87765, Note_off_c, 0, 65, 71
1, 87774, Note_off_c, 0, 79, 37
1, 87775, Note_off_c, 0, 57, 61
1, 87794, Note_off_c, 0, 77, 59
1, 87796, Note_on_c, 0, 74, 47
1, 87813, Control_c, 0, 64, 60
1, 87834, Note_off_c, 0, 74, 59
1, 87843, Control_c, 0, 64, 59
1, 87858, Control_c, 0, 64, 55
1, 87872, Control_c, 0, 64, 47
1, 87881, Note_on_c, 0, 72, 50
1, 87886, Note_on_c, 0, 65, 62
1, 87887, Note_on_c, 0, 55, 53
1, 87887, Control_c, 0, 64, 34
1, 87901, Control_c, 0, 64, 18
1, 87915, Note_on_c, 0, 58, 42
1, 87916, Control_c, 0, 64, 16
1, 87929, Note_on_c, 0, 53, 35
1, 87930, Note_off_c, 0, 72, 59
1, 87931, Control_c, 0, 64, 16
1, 87946, Control_c, 0, 64, 18
1, 87954, Note_on_c, 0, 75, 57
1, 87961, Control_c, 0, 64, 21
1, 87975, Control_c, 0, 64, 23
1, 87990, Control_c, 0, 64, 26
1, 87990, Control_c, 0, 67, 35
1, 88004, Note_off_c, 0, 75, 60
1, 88005, Control_c, 0, 64, 30
1, 88013, Note_on_c, 0, 77, 43
1, 88019, Note_off_c, 0, 65, 62
1, 88020, Control_c, 0, 64, 34
1, 88035, Control_c, 0, 64, 38
1, 88040, Note_off_c, 0, 77, 51
1, 88049, Control_c, 0, 64, 42
1, 88064, Control_c, 0, 64, 47
1, 88075, Note_on_c, 0, 76, 64
1, 88079, Control_c, 0, 64, 49
1, 88094, Control_c, 0, 64, 46
1, 88097, Note_off_c, 0, 55, 59
1, 88108, Control_c, 0, 64, 35
1, 88111, Note_off_c, 0, 58, 63
1, 88123, Control_c, 0, 64, 9
1, 88134, Note_off_c, 0, 76, 62
1, 88138, Control_c, 0, 64, 0
1, 88140, Note_on_c, 0, 78, 68
1, 88150, Note_on_c, 0, 64, 61
1, 88183, Control_c, 0, 67, 35
1, 88195, Note_on_c, 0, 81, 63
1, 88198, Control_c, 0, 64, 8
1, 88200, Note_off_c, 0, 78, 66
1, 88212, Control_c, 0, 64, 20
1, 88224, Note_off_c, 0, 81, 65
1, 88227, Control_c, 0, 64, 28
1, 88242, Control_c, 0, 64, 33
1, 88257, Control_c, 0, 64, 38
1, 88272, Control_c, 0, 64, 42
1, 88275, Note_on_c, 0, 79, 63
1, 88286, Note_off_c, 0, 64, 59
1, 88287, Control_c, 0, 64, 46
1, 88301, Control_c, 0, 64, 49
1, 88316, Control_c, 0, 64, 50
1, 88326, Note_on_c, 0, 62, 61
1, 88328, Note_off_c, 0, 79, 58
1, 88331, Note_on_c, 0, 83, 60
1, 88331, Control_c, 0, 67, 34
1, 88346, Control_c, 0, 64, 45
1, 88361, Control_c, 0, 64, 34
1, 88361, Control_c, 0, 67, 34
1, 88375, Control_c, 0, 64, 0
1, 88375, Control_c, 0, 67, 33
1, 88376, Note_on_c, 0, 86, 66
1, 88376, Note_off_c, 0, 83, 66
1, 88380, Note_off_c, 0, 62, 61
1, 88390, Control_c, 0, 67, 33
1, 88391, Note_on_c, 0, 60, 57
1, 88406, Note_off_c, 0, 86, 65
1, 88420, Control_c, 0, 64, 11
1, 88420, Control_c, 0, 67, 32
1, 88435, Control_c, 0, 64, 17
1, 88449, Control_c, 0, 64, 22
1, 88460, Note_on_c, 0, 84, 63
1, 88464, Control_c, 0, 64, 27
1, 88464, Control_c, 0, 67, 32
1, 88479, Control_c, 0, 64, 32
1, 88483, Note_off_c, 0, 60, 56
1, 88493, Control_c, 0, 64, 37
1, 88515, Control_c, 0, 64, 41
1, 88521, Note_off_c, 0, 84, 60
1, 88526, Note_on_c, 0, 87, 67
1, 88531, Control_c, 0, 64, 46
1, 88546, Control_c, 0, 64, 49
1, 88561, Control_c, 0, 64, 51
1, 88576, Note_on_c, 0, 89, 61
1, 88576, Control_c, 0, 64, 49
1, 88582, Note_off_c, 0, 87, 65
1, 88591, Control_c, 0, 64, 41
1, 88591, Control_c, 0, 67, 31
1, 88606, Note_off_c, 0, 89, 66
1, 88606, Control_c, 0, 64, 29
1, 88606, Control_c, 0, 67, 31
1, 88619, Note_off_c, 0, 53, 50
1, 88620, Control_c, 0, 64, 23
1, 88620, Control_c, 0, 67, 30
1, 88635, Control_c, 0, 64, 25
1, 88639, Note_on_c, 0, 60, 60
1, 88642, Note_on_c, 0, 88, 69
1, 88650, Control_c, 0, 64, 29
1, 88650, Control_c, 0, 67, 30
1, 88665, Control_c, 0, 64, 32
1, 88679, Control_c, 0, 64, 36
1, 88679, Control_c, 0, 67, 29
1, 88690, Note_off_c, 0, 60, 60
1, 88694, Control_c, 0, 64, 41
1, 88694, Control_c, 0, 67, 29
1, 88699, Note_off_c, 0, 88, 65
1, 88701, Note_on_c, 0, 90, 66
1, 88709, Control_c, 0, 64, 48
1, 88723, Control_c, 0, 64, 54
1, 88724, Note_on_c, 0, 53, 61
1, 88738, Control_c, 0, 64, 57
1, 88752, Note_on_c, 0, 93, 62
1, 88752, Note_off_c, 0, 90, 66
1, 88753, Control_c, 0, 64, 59
1, 88762, Note_off_c, 0, 53, 65
1, 88782, Note_off_c, 0, 93, 62
1, 88798, Control_c, 0, 64, 59
1, 88810, Note_on_c, 0, 60, 53
1, 88812, Note_on_c, 0, 64, 55
1, 88812, Control_c, 0, 64, 60
1, 88824, Note_on_c, 0, 91, 70
1, 88827, Control_c, 0, 64, 59
1, 88842, Control_c, 0, 64, 51
1, 88857, Control_c, 0, 64, 30
1, 88871, Control_c, 0, 64, 0
1, 88875, Note_off_c, 0, 91, 55
1, 88886, Control_c, 0, 67, 28
1, 88888, Note_on_c, 0, 70, 61
1, 88901, Control_c, 0, 67, 28
1, 88902, Note_on_c, 0, 94, 67
1, 88916, Control_c, 0, 67, 27
1, 88931, Control_c, 0, 67, 27
1, 88946, Control_c, 0, 67, 26
1, 88979, Note_on_c, 0, 90, 65
1, 88983, Note_off_c, 0, 94, 63
1, 88991, Control_c, 0, 67, 26
1, 89005, Control_c, 0, 67, 25
1, 89015, Note_off_c, 0, 90, 67
1, 89035, Control_c, 0, 64, 13
1, 89035, Control_c, 0, 67, 25
1, 89035, Note_on_c, 0, 91, 62
1, 89049, Control_c, 0, 64, 19
1, 89064, Control_c, 0, 64, 21
1, 89071, Note_off_c, 0, 91, 59
1, 89079, Control_c, 0, 64, 22
1, 89089, Note_on_c, 0, 98, 64
1, 89094, Control_c, 0, 64, 24
1, 89109, Control_c, 0, 64, 26
1, 89109, Control_c, 0, 67, 24
1, 89123, Control_c, 0, 64, 30
1, 89135, Note_on_c, 0, 96, 63
1, 89138, Control_c, 0, 64, 33
1, 89144, Note_off_c, 0, 98, 54
1, 89153, Control_c, 0, 64, 36
1, 89153, Control_c, 0, 67, 25
1, 89168, Control_c, 0, 64, 40
1, 89183, Control_c, 0, 64, 44
1, 89197, Control_c, 0, 64, 48
1, 89198, Note_on_c, 0, 93, 61
1, 89199, Note_off_c, 0, 96, 63
1, 89212, Control_c, 0, 64, 51
1, 89227, Control_c, 0, 64, 53
1, 89227, Control_c, 0, 67, 25
1, 89242, Control_c, 0, 64, 54
1, 89252, Note_off_c, 0, 93, 62
1, 89254, Note_on_c, 0, 91, 62
1, 89264, Control_c, 0, 64, 55
1, 89279, Control_c, 0, 64, 56
1, 89279, Control_c, 0, 67, 26
1, 89290, Note_on_c, 0, 98, 73
1, 89293, Note_off_c, 0, 91, 59
1, 89294, Control_c, 0, 64, 58
1, 89309, Control_c, 0, 64, 59
1, 89309, Control_c, 0, 67, 26
1, 89318, Note_off_c, 0, 60, 42
1, 89324, Control_c, 0, 64, 60
1, 89324, Control_c, 0, 67, 27
1, 89343, Note_off_c, 0, 64, 47
1, 89354, Control_c, 0, 67, 28
1, 89356, Note_off_c, 0, 98, 64
1, 89357, Note_on_c, 0, 94, 77
1, 89369, Control_c, 0, 64, 60
1, 89381, Note_off_c, 0, 70, 59
1, 89384, Control_c, 0, 64, 61
1, 89399, Control_c, 0, 64, 62
1, 89399, Control_c, 0, 67, 29
1, 89414, Control_c, 0, 64, 63
1, 89414, Control_c, 0, 67, 30
1, 89424, Note_on_c, 0, 90, 65
1, 89428, Control_c, 0, 67, 30
1, 89438, Note_off_c, 0, 94, 64
1, 89461, Note_off_c, 0, 90, 65
1, 89468, Note_on_c, 0, 91, 67
1, 89473, Control_c, 0, 67, 31
1, 89488, Control_c, 0, 67, 32
1, 89502, Control_c, 0, 67, 32
1, 89529, Note_off_c, 0, 91, 56
1, 89536, Note_on_c, 0, 98, 68
1, 89561, Control_c, 0, 67, 33
1, 89579, Note_on_c, 0, 96, 62
1, 89591, Control_c, 0, 67, 33
1, 89593, Note_off_c, 0, 98, 59
1, 89606, Control_c, 0, 67, 34
1, 89643, Note_on_c, 0, 93, 61
1, 89651, Note_off_c, 0, 96, 61
1, 89676, Note_on_c, 0, 65, 45
1, 89691, Note_off_c, 0, 93, 61
1, 89700, Note_on_c, 0, 91, 61
1, 89703, Note_off_c, 0, 65, 58
1, 89715, Note_on_c, 0, 72, 62
1, 89724, Control_c, 0, 67, 34
1, 89739, Control_c, 0, 64, 62
1, 89739, Control_c, 0, 67, 35
1, 89745, Note_on_c, 0, 76, 58
1, 89745, Note_off_c, 0, 91, 59
1, 89748, Note_on_c, 0, 98, 65
1, 89754, Control_c, 0, 64, 58
1, 89754, Control_c, 0, 67, 35
1, 89769, Control_c, 0, 64, 47
1, 89769, Control_c, 0, 67, 36
1, 89783, Control_c, 0, 64, 21
1, 89783, Control_c, 0, 67, 38
1, 89798, Control_c, 0, 64, 0
1, 89798, Control_c, 0, 67, 40
1, 89803, Note_off_c, 0, 98, 64
1, 89813, Note_on_c, 0, 94, 63
1, 89813, Control_c, 0, 67, 42
1, 89814, Note_on_c, 0, 82, 60
1, 89828, Control_c, 0, 64, 10
1, 89828, Control_c, 0, 67, 43
1, 89843, Control_c, 0, 64, 16
1, 89843, Control_c, 0, 67, 44
1, 89858, Control_c, 0, 64, 20
1, 89872, Control_c, 0, 64, 24
1, 89872, Control_c, 0, 67, 45
1, 89885, Note_on_c, 0, 90, 55
1, 89887, Control_c, 0, 64, 27
1, 89887, Control_c, 0, 67, 46
1, 89894, Note_off_c, 0, 94, 63
1, 89902, Control_c, 0, 64, 29
1, 89902, Control_c, 0, 67, 48
1, 89917, Control_c, 0, 64, 31
1, 89917, Control_c, 0, 67, 50
1, 89918, Note_off_c, 0, 90, 61
1, 89932, Control_c, 0, 64, 33
1, 89932, Control_c, 0, 67, 52
1, 89938, Note_on_c, 0, 91, 60
1, 89946, Control_c, 0, 64, 35
1, 89946, Control_c, 0, 67, 54
1, 89961, Control_c, 0, 64, 37
1, 89961, Control_c, 0, 67, 56
1, 89976, Note_off_c, 0, 91, 59
1, 89976, Control_c, 0, 64, 39
1, 89976, Control_c, 0, 67, 59
1, 89998, Control_c, 0, 64, 39
1, 89998, Control_c, 0, 67, 62
1, 90001, Note_on_c, 0, 98, 64
1, 90013, Control_c, 0, 64, 40
1, 90013, Control_c, 0, 67, 65
1, 90028, Control_c, 0, 64, 41
1, 90028, Control_c, 0, 67, 67
1, 90043, Control_c, 0, 64, 42
1, 90043, Control_c, 0, 67, 69
1, 90043, Note_on_c, 0, 96, 69
1, 90058, Control_c, 0, 64, 44
1, 90058, Control_c, 0, 67, 70
1, 90059, Note_off_c, 0, 98, 58
1, 90072, Control_c, 0, 64, 45
1, 90072, Control_c, 0, 67, 71
1, 90087, Control_c, 0, 64, 46
1, 90087, Control_c, 0, 67, 72
1, 90102, Control_c, 0, 64, 47
1, 90102, Control_c, 0, 67, 74
1, 90105, Note_on_c, 0, 93, 70
1, 90109, Note_off_c, 0, 96, 63
1, 90117, Control_c, 0, 64, 49
1, 90117, Control_c, 0, 67, 76
1, 90132, Control_c, 0, 64, 51
1, 90132, Control_c, 0, 67, 76
1, 90147, Control_c, 0, 64, 52
1, 90147, Control_c, 0, 67, 77
1, 90160, Note_off_c, 0, 93, 62
1, 90161, Note_on_c, 0, 91, 72
1, 90177, Control_c, 0, 67, 77
1, 90192, Control_c, 0, 67, 78
1, 90204, Note_on_c, 0, 98, 77
1, 90207, Control_c, 0, 64, 52
1, 90207, Control_c, 0, 67, 79
1, 90210, Note_off_c, 0, 91, 51
1, 90222, Control_c, 0, 64, 54
1, 90222, Control_c, 0, 67, 79
1, 90237, Control_c, 0, 64, 55
1, 90237, Control_c, 0, 67, 80
1, 90251, Control_c, 0, 67, 81
1, 90262, Note_on_c, 0, 94, 81
1, 90266, Control_c, 0, 67, 83
1, 90268, Note_off_c, 0, 98, 61
1, 90281, Control_c, 0, 67, 86
1, 90296, Control_c, 0, 67, 90
1, 90310, Control_c, 0, 64, 56
1, 90310, Control_c, 0, 67, 93
1, 90325, Control_c, 0, 64, 56
1, 90325, Control_c, 0, 67, 95
1, 90327, Note_on_c, 0, 90, 75
1, 90338, Note_off_c, 0, 94, 65
1, 90340, Control_c, 0, 64, 57
1, 90340, Control_c, 0, 67, 99
1, 90355, Control_c, 0, 67, 102
1, 90370, Control_c, 0, 67, 103
1, 90374, Note_off_c, 0, 90, 66
1, 90380, Note_on_c, 0, 91, 79
1, 90384, Control_c, 0, 67, 104
1, 90399, Control_c, 0, 67, 106
1, 90414, Control_c, 0, 67, 108
1, 90428, Note_off_c, 0, 91, 58
1, 90429, Control_c, 0, 67, 111
1, 90432, Note_on_c, 0, 98, 68
1, 90444, Control_c, 0, 67, 114
1, 90458, Control_c, 0, 67, 119
1, 90473, Control_c, 0, 67, 123
1, 90484, Note_on_c, 0, 96, 82
1, 90488, Control_c, 0, 67, 127
1, 90502, Control_c, 0, 64, 57
1, 90503, Note_off_c, 0, 98, 61
1, 90517, Control_c, 0, 64, 58
1, 90545, Note_on_c, 0, 93, 77
1, 90555, Note_off_c, 0, 96, 63
1, 90562, Control_c, 0, 64, 58
1, 90602, Note_off_c, 0, 93, 61
1, 90603, Note_on_c, 0, 91, 72
1, 90662, Note_off_c, 0, 91, 57
1, 90668, Note_on_c, 0, 98, 62
1, 90681, Control_c, 0, 64, 58
1, 90713, Note_on_c, 0, 96, 64
1, 90720, Note_off_c, 0, 98, 60
1, 90725, Control_c, 0, 64, 58
1, 90794, Note_off_c, 0, 96, 62
1, 90806, Note_on_c, 0, 93, 56
1, 90845, Note_off_c, 0, 93, 59
1, 90848, Note_on_c, 0, 91, 60
1, 90894, Note_off_c, 0, 91, 57
1, 90901, Note_on_c, 0, 98, 57
1, 90958, Note_off_c, 0, 98, 60
1, 90959, Note_on_c, 0, 96, 65
1, 91021, Note_off_c, 0, 96, 61
1, 91032, Note_on_c, 0, 93, 60
1, 91078, Note_off_c, 0, 93, 57
1, 91092, Note_on_c, 0, 91, 59
1, 91109, Note_off_c, 0, 82, 44
1, 91128, Note_off_c, 0, 91, 59
1, 91137, Note_on_c, 0, 98, 57
1, 91193, Note_on_c, 0, 96, 65
1, 91193, Note_off_c, 0, 98, 60
1, 91194, Note_off_c, 0, 76, 43
1, 91228, Note_off_c, 0, 72, 24
1, 91254, Note_off_c, 0, 96, 62
1, 91261, Note_on_c, 0, 93, 61
1, 91297, Note_off_c, 0, 93, 61
1, 91317, Note_on_c, 0, 91, 61
1, 91326, Control_c, 0, 64, 58
1, 91365, Note_off_c, 0, 91, 52
1, 91382, Note_on_c, 0, 98, 60
1, 91441, Note_on_c, 0, 96, 62
1, 91445, Control_c, 0, 64, 57
1, 91459, Note_off_c, 0, 98, 59
1, 91490, Note_off_c, 0, 96, 54
1, 91518, Note_on_c, 0, 91, 51
1, 91541, Control_c, 0, 64, 57
1, 91568, Note_off_c, 0, 91, 42
1, 91571, Control_c, 0, 64, 56
1, 91586, Control_c, 0, 64, 55
1, 91588, Note_on_c, 0, 65, 48
1, 91590, Note_on_c, 0, 93, 62
1, 91600, Control_c, 0, 64, 54
1, 91615, Control_c, 0, 64, 54
1, 91645, Control_c, 0, 64, 53
1, 91651, Note_off_c, 0, 93, 61
1, 91659, Control_c, 0, 64, 50
1, 91661, Note_on_c, 0, 91, 56
1, 91674, Control_c, 0, 64, 44
1, 91678, Note_on_c, 0, 72, 38
1, 91689, Control_c, 0, 64, 36
1, 91694, Note_off_c, 0, 65, 43
1, 91704, Control_c, 0, 64, 24
1, 91720, Control_c, 0, 64, 0
1, 91798, Note_off_c, 0, 91, 55
1, 91830, Note_on_c, 0, 81, 45
1, 91836, Note_on_c, 0, 89, 40
1, 91838, Control_c, 0, 64, 12
1, 91853, Control_c, 0, 64, 16
1, 91868, Control_c, 0, 64, 18
1, 91883, Control_c, 0, 64, 21
1, 91897, Control_c, 0, 64, 25
1, 91912, Control_c, 0, 64, 28
1, 91925, Note_off_c, 0, 72, 42
1, 91927, Control_c, 0, 64, 31
1, 91927, Control_c, 0, 67, 123
1, 91942, Control_c, 0, 64, 34
1, 91942, Control_c, 0, 67, 119
1, 91957, Control_c, 0, 64, 37
1, 91957, Control_c, 0, 67, 116
1, 91971, Control_c, 0, 64, 41
1, 91971, Control_c, 0, 67, 113
1, 91986, Control_c, 0, 64, 44
1, 91986, Control_c, 0, 67, 110
1, 91995, Note_off_c, 0, 89, 42
1, 92001, Control_c, 0, 64, 45
1, 92001, Control_c, 0, 67, 107
1, 92016, Control_c, 0, 67, 105
1, 92031, Control_c, 0, 67, 103
1, 92043, Note_off_c, 0, 81, 38
1, 92046, Control_c, 0, 67, 100
1, 92061, Control_c, 0, 67, 97
1, 92075, Control_c, 0, 67, 95
1, 92090, Control_c, 0, 67, 94
1, 92105, Control_c, 0, 67, 93
1, 92179, Control_c, 0, 67, 93
1, 92194, Control_c, 0, 64, 38
1, 92209, Control_c, 0, 64, 0
1, 92209, Control_c, 0, 67, 92
1, 92223, Control_c, 0, 67, 78
1, 92225, Note_on_c, 0, 77, 93
1, 92230, Note_on_c, 0, 89, 81
1, 92237, Control_c, 0, 67, 34
1, 92260, Control_c, 0, 67, 0
1, 92289, Control_c, 0, 64, 11
1, 92304, Control_c, 0, 64, 39
1, 92307, Note_on_c, 0, 94, 73
1, 92308, Note_on_c, 0, 82, 83
1, 92318, Note_off_c, 0, 89, 61
1, 92319, Control_c, 0, 64, 57
1, 92334, Control_c, 0, 64, 68
1, 92338, Note_off_c, 0, 77, 65
1, 92348, Control_c, 0, 64, 77
1, 92363, Control_c, 0, 64, 78
1, 92374, Note_on_c, 0, 81, 85
1, 92379, Note_off_c, 0, 82, 65
1, 92380, Note_on_c, 0, 95, 50
1, 92382, Note_off_c, 0, 94, 67
1, 92392, Note_on_c, 0, 93, 54
1, 92393, Control_c, 0, 64, 78
1, 92407, Note_off_c, 0, 95, 57
1, 92408, Control_c, 0, 64, 87
1, 92422, Note_on_c, 0, 86, 94
1, 92422, Note_off_c, 0, 93, 63
1, 92422, Control_c, 0, 64, 115
1, 92437, Control_c, 0, 64, 127
1, 92442, Note_on_c, 0, 74, 70
1, 92443, Note_off_c, 0, 81, 61
1, 92467, Control_c, 0, 64, 76
1, 92481, Control_c, 0, 64, 57
1, 92485, Note_on_c, 0, 72, 73
1, 92488, Note_on_c, 0, 84, 89
1, 92496, Control_c, 0, 64, 36
1, 92506, Note_off_c, 0, 86, 63
1, 92508, Note_off_c, 0, 74, 65
1, 92511, Control_c, 0, 64, 38
1, 92527, Control_c, 0, 64, 49
1, 92542, Control_c, 0, 64, 57
1, 92543, Note_on_c, 0, 79, 80
1, 92547, Note_off_c, 0, 72, 62
1, 92557, Control_c, 0, 64, 62
1, 92558, Note_on_c, 0, 91, 82
1, 92571, Note_off_c, 0, 84, 62
1, 92571, Control_c, 0, 64, 65
1, 92586, Control_c, 0, 64, 69
1, 92587, Note_on_c, 0, 77, 82
1, 92594, Note_on_c, 0, 89, 73
1, 92601, Control_c, 0, 64, 76
1, 92602, Note_off_c, 0, 79, 61
1, 92616, Control_c, 0, 64, 82
1, 92631, Control_c, 0, 64, 87
1, 92645, Control_c, 0, 64, 88
1, 92648, Note_on_c, 0, 82, 89
1, 92654, Note_on_c, 0, 70, 82
1, 92655, Note_off_c, 0, 91, 58
1, 92660, Control_c, 0, 64, 75
1, 92673, Note_off_c, 0, 89, 66
1, 92675, Control_c, 0, 64, 57
1, 92686, Note_off_c, 0, 77, 61
1, 92690, Control_c, 0, 64, 14
1, 92693, Note_on_c, 0, 69, 72
1, 92705, Control_c, 0, 64, 0
1, 92710, Note_on_c, 0, 81, 87
1, 92720, Control_c, 0, 64, 24
1, 92720, Note_off_c, 0, 70, 62
1, 92728, Note_off_c, 0, 82, 65
1, 92735, Control_c, 0, 64, 35
1, 92746, Note_on_c, 0, 74, 78
1, 92749, Control_c, 0, 64, 45
1, 92752, Note_off_c, 0, 69, 65
1, 92764, Control_c, 0, 64, 57
1, 92774, Note_on_c, 0, 86, 85
1, 92779, Control_c, 0, 64, 65
1, 92794, Control_c, 0, 64, 70
1, 92801, Note_off_c, 0, 81, 60
1, 92808, Note_on_c, 0, 84, 75
1, 92809, Control_c, 0, 64, 71
1, 92810, Note_off_c, 0, 74, 63
1, 92816, Note_on_c, 0, 72, 71
1, 92824, Control_c, 0, 64, 73
1, 92838, Control_c, 0, 64, 74
1, 92853, Control_c, 0, 64, 76
1, 92860, Note_on_c, 0, 79, 80
1, 92865, Note_on_c, 0, 67, 78
1, 92866, Note_off_c, 0, 86, 57
1, 92868, Control_c, 0, 64, 79
1, 92872, Note_off_c, 0, 72, 64
1, 92881, Note_off_c, 0, 84, 62
1, 92883, Control_c, 0, 64, 80
1, 92897, Control_c, 0, 64, 65
1, 92910, Note_on_c, 0, 77, 83
1, 92912, Control_c, 0, 64, 42
1, 92920, Note_off_c, 0, 79, 63
1, 92927, Control_c, 0, 64, 0
1, 92931, Note_on_c, 0, 65, 71
1, 92948, Note_off_c, 0, 67, 63
1, 92952, Note_on_c, 0, 70, 77
1, 92960, Note_on_c, 0, 82, 74
1, 92976, Note_off_c, 0, 77, 61
1, 92986, Note_off_c, 0, 65, 67
1, 92986, Control_c, 0, 64, 32
1, 93009, Control_c, 0, 64, 46
1, 93011, Note_off_c, 0, 70, 63
1, 93022, Note_on_c, 0, 69, 77
1, 93024, Control_c, 0, 64, 58
1, 93028, Note_on_c, 0, 81, 84
1, 93039, Note_off_c, 0, 82, 66
1, 93039, Control_c, 0, 64, 66
1, 93053, Control_c, 0, 64, 71
1, 93068, Control_c, 0, 64, 72
1, 93083, Control_c, 0, 64, 73
1, 93086, Note_on_c, 0, 74, 86
1, 93097, Control_c, 0, 64, 72
1, 93098, Note_on_c, 0, 62, 75
1, 93112, Control_c, 0, 64, 61
1, 93113, Note_off_c, 0, 81, 60
1, 93116, Note_off_c, 0, 69, 62
1, 93127, Control_c, 0, 64, 0
1, 93138, Note_on_c, 0, 60, 75
1, 93155, Note_on_c, 0, 72, 88
1, 93167, Note_off_c, 0, 62, 61
1, 93169, Note_off_c, 0, 74, 62
1, 93206, Note_on_c, 0, 67, 78
1, 93211, Note_off_c, 0, 60, 64
1, 93216, Note_on_c, 0, 79, 72
1, 93216, Control_c, 0, 64, 25
1, 93231, Control_c, 0, 64, 41
1, 93238, Note_off_c, 0, 72, 62
1, 93245, Control_c, 0, 64, 53
1, 93247, Note_on_c, 0, 77, 72
1, 93260, Control_c, 0, 64, 62
1, 93262, Note_on_c, 0, 65, 68
1, 93267, Note_on_c, 0, 64, 71
1, 93275, Control_c, 0, 64, 66
1, 93277, Note_off_c, 0, 67, 63
1, 93290, Control_c, 0, 64, 68
1, 93301, Note_on_c, 0, 70, 88
1, 93304, Control_c, 0, 64, 72
1, 93320, Control_c, 0, 64, 74
1, 93321, Note_on_c, 0, 58, 78
1, 93323, Note_off_c, 0, 79, 61
1, 93335, Note_off_c, 0, 77, 63
1, 93335, Control_c, 0, 64, 71
1, 93350, Control_c, 0, 64, 58
1, 93355, Note_off_c, 0, 65, 63
1, 93356, Note_off_c, 0, 64, 61
1, 93358, Note_on_c, 0, 57, 73
1, 93365, Control_c, 0, 64, 0
1, 93366, Note_on_c, 0, 69, 90
1, 93385, Note_off_c, 0, 58, 63
1, 93386, Note_off_c, 0, 70, 62
1, 93409, Control_c, 0, 64, 10
1, 93414, Note_on_c, 0, 62, 83
1, 93420, Note_off_c, 0, 57, 60
1, 93424, Control_c, 0, 64, 26
1, 93432, Note_on_c, 0, 74, 79
1, 93439, Control_c, 0, 64, 40
1, 93453, Note_off_c, 0, 69, 63
1, 93454, Control_c, 0, 64, 53
1, 93464, Note_on_c, 0, 72, 75
1, 93468, Control_c, 0, 64, 65
1, 93482, Note_on_c, 0, 60, 78
1, 93483, Control_c, 0, 64, 69
1, 93485, Note_off_c, 0, 62, 62
1, 93513, Control_c, 0, 64, 70
1, 93523, Note_on_c, 0, 67, 81
1, 93530, Note_off_c, 0, 74, 62
1, 93539, Note_on_c, 0, 55, 71
1, 93539, Note_off_c, 0, 60, 64
1, 93541, Note_off_c, 0, 72, 64
1, 93542, Control_c, 0, 64, 66
1, 93557, Control_c, 0, 64, 37
1, 93572, Control_c, 0, 64, 0
1, 93583, Note_on_c, 0, 65, 84
1, 93587, Note_off_c, 0, 67, 65
1, 93590, Note_on_c, 0, 53, 73
1, 93611, Note_off_c, 0, 55, 63
1, 93630, Note_on_c, 0, 70, 67
1, 93633, Note_on_c, 0, 58, 71
1, 93647, Note_off_c, 0, 65, 66
1, 93665, Note_off_c, 0, 53, 64
1, 93676, Control_c, 0, 64, 22
1, 93683, Note_off_c, 0, 58, 62
1, 93684, Note_on_c, 0, 69, 85
1, 93691, Control_c, 0, 64, 32
1, 93699, Note_on_c, 0, 57, 76
1, 93699, Note_off_c, 0, 70, 63
1, 93706, Control_c, 0, 64, 41
1, 93720, Control_c, 0, 64, 52
1, 93742, Control_c, 0, 64, 60
1, 93754, Note_on_c, 0, 62, 80
1, 93757, Control_c, 0, 64, 65
1, 93773, Note_on_c, 0, 50, 79
1, 93775, Note_off_c, 0, 69, 62
1, 93786, Note_off_c, 0, 57, 62
1, 93787, Control_c, 0, 64, 52
1, 93801, Control_c, 0, 64, 0
1, 93820, Note_on_c, 0, 48, 58
1, 93821, Note_on_c, 0, 60, 79
1, 93831, Note_off_c, 0, 62, 62
1, 93842, Note_off_c, 0, 50, 62
1, 93872, Note_on_c, 0, 55, 77
1, 93873, Note_off_c, 0, 48, 65
1, 93877, Note_on_c, 0, 67, 70
1, 93890, Control_c, 0, 64, 28
1, 93903, Note_off_c, 0, 60, 62
1, 93905, Control_c, 0, 64, 39
1, 93908, Note_on_c, 0, 65, 66
1, 93918, Note_on_c, 0, 53, 74
1, 93919, Control_c, 0, 64, 51
1, 93934, Note_off_c, 0, 55, 65
1, 93934, Control_c, 0, 64, 60
1, 93949, Control_c, 0, 64, 68
1, 93964, Control_c, 0, 64, 73
1, 93972, Note_on_c, 0, 58, 82
1, 93984, Note_off_c, 0, 67, 62
1, 93991, Note_on_c, 0, 46, 81
1, 93993, Control_c, 0, 64, 61
1, 94004, Note_off_c, 0, 65, 66
1, 94008, Control_c, 0, 64, 20
1, 94013, Note_off_c, 0, 53, 66
1, 94023, Control_c, 0, 64, 0
1, 94028, Note_on_c, 0, 45, 64
1, 94036, Note_on_c, 0, 57, 87
1, 94052, Note_off_c, 0, 58, 63
1, 94060, Note_off_c, 0, 46, 63
1, 94082, Control_c, 0, 64, 25
1, 94088, Note_off_c, 0, 45, 59
1, 94091, Note_on_c, 0, 50, 80
1, 94097, Control_c, 0, 64, 42
1, 94106, Note_on_c, 0, 62, 77
1, 94112, Control_c, 0, 64, 57
1, 94119, Note_off_c, 0, 57, 60
1, 94128, Control_c, 0, 64, 71
1, 94133, Note_on_c, 0, 60, 70
1, 94142, Control_c, 0, 64, 77
1, 94156, Note_on_c, 0, 48, 77
1, 94157, Note_off_c, 0, 50, 64
1, 94187, Control_c, 0, 64, 72
1, 94193, Note_on_c, 0, 55, 83
1, 94202, Control_c, 0, 64, 54
1, 94212, Note_off_c, 0, 62, 60
1, 94216, Control_c, 0, 64, 0
1, 94225, Note_off_c, 0, 60, 62
1, 94226, Note_on_c, 0, 43, 66
1, 94233, Note_off_c, 0, 48, 63
1, 94271, Note_on_c, 0, 41, 66
1, 94273, Note_on_c, 0, 53, 85
1, 94286, Note_off_c, 0, 55, 66
1, 94300, Note_off_c, 0, 43, 58
1, 94350, Control_c, 0, 64, 21
1, 94351, Note_on_c, 0, 62, 72
1, 94355, Note_off_c, 0, 53, 51
1, 94365, Control_c, 0, 64, 29
1, 94370, Note_on_c, 0, 50, 62
1, 94370, Note_off_c, 0, 41, 58
1, 94380, Control_c, 0, 64, 34
1, 94386, Note_on_c, 0, 60, 62
1, 94395, Control_c, 0, 64, 37
1, 94410, Control_c, 0, 64, 42
1, 94424, Control_c, 0, 64, 48
1, 94425, Note_on_c, 0, 48, 61
1, 94425, Note_off_c, 0, 50, 57
1, 94439, Control_c, 0, 64, 53
1, 94448, Note_on_c, 0, 58, 78
1, 94449, Note_off_c, 0, 62, 60
1, 94454, Control_c, 0, 64, 56
1, 94468, Control_c, 0, 64, 58
1, 94475, Note_off_c, 0, 60, 63
1, 94490, Control_c, 0, 64, 58
1, 94493, Note_on_c, 0, 46, 59
1, 94505, Control_c, 0, 64, 51
1, 94515, Note_off_c, 0, 48, 62
1, 94520, Control_c, 0, 64, 0
1, 94531, Note_on_c, 0, 45, 59
1, 94537, Note_on_c, 0, 57, 77
1, 94543, Note_off_c, 0, 58, 63
1, 94553, Note_off_c, 0, 46, 62
1, 94588, Note_off_c, 0, 45, 61
1, 94602, Note_on_c, 0, 50, 56
1, 94610, Control_c, 0, 64, 27
1, 94612, Note_on_c, 0, 62, 73
1, 94620, Note_off_c, 0, 57, 55
1, 94624, Control_c, 0, 64, 38
1, 94633, Note_on_c, 0, 60, 60
1, 94639, Control_c, 0, 64, 47
1, 94654, Control_c, 0, 64, 55
1, 94654, Note_on_c, 0, 48, 68
1, 94660, Note_off_c, 0, 50, 62
1, 94668, Control_c, 0, 64, 59
1, 94683, Control_c, 0, 64, 60
1, 94697, Note_on_c, 0, 55, 77
1, 94698, Control_c, 0, 64, 61
1, 94708, Note_off_c, 0, 62, 55
1, 94711, Note_off_c, 0, 60, 60
1, 94713, Control_c, 0, 64, 62
1, 94728, Control_c, 0, 64, 65
1, 94729, Note_on_c, 0, 43, 68
1, 94733, Note_off_c, 0, 48, 62
1, 94742, Control_c, 0, 64, 63
1, 94757, Control_c, 0, 64, 45
1, 94770, Note_on_c, 0, 41, 72
1, 94771, Note_on_c, 0, 53, 91
1, 94772, Control_c, 0, 64, 0
1, 94786, Note_off_c, 0, 55, 66
1, 94803, Note_off_c, 0, 43, 61
1, 94841, Note_on_c, 0, 62, 78
1, 94846, Note_on_c, 0, 50, 78
1, 94849, Note_off_c, 0, 41, 57
1, 94861, Control_c, 0, 64, 11
1, 94864, Note_off_c, 0, 53, 63
1, 94875, Control_c, 0, 64, 28
1, 94879, Note_on_c, 0, 60, 62
1, 94890, Control_c, 0, 64, 39
1, 94905, Control_c, 0, 64, 50
1, 94912, Note_on_c, 0, 48, 81
1, 94921, Control_c, 0, 64, 59
1, 94926, Note_off_c, 0, 50, 64
1, 94936, Control_c, 0, 64, 63
1, 94937, Note_on_c, 0, 58, 83
1, 94940, Note_off_c, 0, 62, 64
1, 94951, Control_c, 0, 64, 66
1, 94965, Control_c, 0, 64, 69
1, 94972, Note_off_c, 0, 60, 64
1, 94978, Note_on_c, 0, 46, 68
1, 94980, Control_c, 0, 64, 74
1, 94995, Control_c, 0, 64, 77
1, 95010, Control_c, 0, 64, 63
1, 95011, Note_on_c, 0, 45, 74
1, 95013, Note_off_c, 0, 48, 64
1, 95018, Note_on_c, 0, 57, 100
1, 95024, Note_off_c, 0, 58, 59
1, 95025, Control_c, 0, 64, 25
1, 95039, Control_c, 0, 64, 0
1, 95060, Note_off_c, 0, 46, 65
1, 95082, Note_on_c, 0, 50, 78
1, 95091, Note_off_c, 0, 45, 63
1, 95098, Control_c, 0, 64, 26
1, 95101, Note_on_c, 0, 62, 84
1, 95113, Control_c, 0, 64, 42
1, 95123, Note_off_c, 0, 57, 60
1, 95125, Note_on_c, 0, 60, 68
1, 95128, Control_c, 0, 64, 56
1, 95143, Control_c, 0, 64, 67
1, 95152, Note_on_c, 0, 48, 76
1, 95158, Control_c, 0, 64, 76
1, 95172, Note_off_c, 0, 50, 62
1, 95173, Control_c, 0, 64, 80
1, 95188, Control_c, 0, 64, 84
1, 95199, Note_on_c, 0, 55, 81
1, 95203, Control_c, 0, 64, 96
1, 95217, Note_off_c, 0, 60, 61
1, 95218, Control_c, 0, 64, 122
1, 95224, Note_off_c, 0, 62, 62
1, 95231, Note_on_c, 0, 43, 71
1, 95233, Control_c, 0, 64, 119
1, 95254, Control_c, 0, 64, 76
1, 95259, Note_off_c, 0, 48, 63
1, 95269, Control_c, 0, 64, 52
1, 95274, Note_on_c, 0, 41, 72
1, 95281, Note_on_c, 0, 53, 95
1, 95284, Control_c, 0, 64, 0
1, 95304, Note_off_c, 0, 55, 65
1, 95316, Note_off_c, 0, 43, 60
1, 95358, Note_on_c, 0, 62, 76
1, 95358, Control_c, 0, 64, 18
1, 95364, Note_on_c, 0, 50, 75
1, 95364, Note_off_c, 0, 41, 62
1, 95373, Control_c, 0, 64, 35
1, 95377, Note_off_c, 0, 53, 65
1, 95383, Note_on_c, 0, 60, 67
1, 95388, Control_c, 0, 64, 46
1, 95402, Control_c, 0, 64, 55
1, 95417, Control_c, 0, 64, 60
1, 95429, Note_on_c, 0, 48, 76
1, 95432, Control_c, 0, 64, 61
1, 95438, Note_off_c, 0, 50, 62
1, 95456, Note_on_c, 0, 58, 80
1, 95466, Note_off_c, 0, 62, 58
1, 95477, Control_c, 0, 64, 63
1, 95489, Note_off_c, 0, 60, 64
1, 95491, Control_c, 0, 64, 62
1, 95498, Note_on_c, 0, 46, 66
1, 95506, Control_c, 0, 64, 53
1, 95520, Note_off_c, 0, 48, 63
1, 95521, Control_c, 0, 64, 18
1, 95523, Note_on_c, 0, 45, 64
1, 95533, Note_on_c, 0, 57, 92
1, 95536, Control_c, 0, 64, 0
1, 95551, Note_off_c, 0, 58, 61
1, 95557, Note_off_c, 0, 46, 64
1, 95584, Note_on_c, 0, 50, 68
1, 95586, Note_off_c, 0, 45, 64
1, 95595, Control_c, 0, 64, 20
1, 95602, Note_on_c, 0, 62, 74
1, 95609, Control_c, 0, 64, 37
1, 95624, Control_c, 0, 64, 50
1, 95625, Note_off_c, 0, 57, 59
1, 95634, Note_on_c, 0, 60, 51
1, 95639, Control_c, 0, 64, 60
1, 95644, Note_on_c, 0, 48, 74
1, 95649, Note_off_c, 0, 50, 63
1, 95654, Control_c, 0, 64, 64
1, 95669, Control_c, 0, 64, 64
1, 95703, Note_on_c, 0, 55, 72
1, 95709, Note_off_c, 0, 60, 63
1, 95709, Note_off_c, 0, 62, 54
1, 95714, Note_off_c, 0, 48, 62
1, 95714, Control_c, 0, 64, 61
1, 95716, Note_on_c, 0, 43, 48
1, 95729, Control_c, 0, 64, 38
1, 95744, Control_c, 0, 64, 0
1, 95758, Note_off_c, 0, 55, 60
1, 95769, Note_off_c, 0, 43, 62
1, 95784, Note_on_c, 0, 41, 64
1, 95792, Note_on_c, 0, 53, 63
1, 95846, Note_off_c, 0, 53, 63
1, 95864, Note_on_c, 0, 57, 64
1, 95873, Note_off_c, 0, 41, 58
1, 95876, Note_on_c, 0, 45, 66
1, 95907, Control_c, 0, 64, 16
1, 95914, Note_on_c, 0, 60, 62
1, 95921, Control_c, 0, 64, 32
1, 95933, Note_on_c, 0, 48, 60
1, 95936, Control_c, 0, 64, 47
1, 95945, Note_off_c, 0, 57, 61
1, 95951, Control_c, 0, 64, 56
1, 95958, Note_off_c, 0, 45, 63
1, 95966, Control_c, 0, 64, 58
1, 95969, Note_on_c, 0, 64, 59
1, 95969, Note_on_c, 0, 52, 79
1, 95977, Note_off_c, 0, 60, 65
1, 95981, Control_c, 0, 64, 58
1, 95999, Note_off_c, 0, 64, 64
1, 96003, Control_c, 0, 64, 59
1, 96007, Note_off_c, 0, 48, 61
1, 96018, Control_c, 0, 64, 61
1, 96033, Control_c, 0, 64, 62
1, 96037, Note_on_c, 0, 53, 77
1, 96040, Note_off_c, 0, 52, 65
1, 96046, Note_on_c, 0, 65, 80
1, 96047, Control_c, 0, 64, 62
1, 96062, Control_c, 0, 64, 55
1, 96072, Note_off_c, 0, 53, 65
1, 96077, Control_c, 0, 64, 33
1, 96092, Control_c, 0, 64, 15
1, 96100, Note_off_c, 0, 65, 67
1, 96107, Control_c, 0, 64, 32
1, 96113, Note_on_c, 0, 69, 84
1, 96120, Note_on_c, 0, 57, 69
1, 96121, Control_c, 0, 64, 42
1, 96136, Control_c, 0, 64, 51
1, 96151, Control_c, 0, 64, 59
1, 96166, Note_on_c, 0, 60, 74
1, 96166, Control_c, 0, 64, 62
1, 96172, Note_on_c, 0, 72, 55
1, 96181, Control_c, 0, 64, 68
1, 96193, Note_on_c, 0, 71, 46
1, 96195, Control_c, 0, 64, 81
1, 96202, Note_on_c, 0, 64, 85
1, 96205, Note_off_c, 0, 69, 66
1, 96210, Control_c, 0, 64, 85
1, 96212, Note_on_c, 0, 76, 77
1, 96222, Note_off_c, 0, 71, 35
1, 96225, Control_c, 0, 64, 73
1, 96235, Note_off_c, 0, 57, 62
1, 96237, Note_off_c, 0, 72, 64
1, 96237, Note_off_c, 0, 76, 68
1, 96240, Control_c, 0, 64, 57
1, 96246, Note_off_c, 0, 60, 63
1, 96255, Control_c, 0, 64, 48
1, 96270, Control_c, 0, 64, 53
1, 96272, Note_on_c, 0, 65, 81
1, 96272, Note_off_c, 0, 64, 65
1, 96285, Control_c, 0, 64, 62
1, 96292, Note_on_c, 0, 77, 93
1, 96300, Control_c, 0, 64, 66
1, 96313, Note_off_c, 0, 65, 63
1, 96314, Control_c, 0, 64, 69
1, 96329, Control_c, 0, 64, 71
1, 96344, Control_c, 0, 64, 72
1, 96349, Note_on_c, 0, 81, 89
1, 96350, Note_off_c, 0, 77, 66
1, 96353, Note_on_c, 0, 69, 81
1, 96359, Control_c, 0, 64, 76
1, 96374, Control_c, 0, 64, 87
1, 96388, Control_c, 0, 64, 98
1, 96395, Note_on_c, 0, 84, 71
1, 96398, Note_on_c, 0, 72, 73
1, 96403, Control_c, 0, 64, 100
1, 96438, Note_on_c, 0, 88, 78
1, 96440, Note_off_c, 0, 81, 64
1, 96442, Note_on_c, 0, 76, 76
1, 96462, Note_off_c, 0, 69, 62
1, 96462, Control_c, 0, 64, 100
1, 96465, Note_off_c, 0, 84, 65
1, 96471, Note_off_c, 0, 88, 66
1, 96477, Control_c, 0, 64, 101
1, 96482, Note_off_c, 0, 72, 61
1, 96509, Note_off_c, 0, 76, 68
1, 96513, Note_on_c, 0, 77, 71
1, 96523, Control_c, 0, 64, 103
1, 96525, Note_on_c, 0, 89, 84
1, 96537, Control_c, 0, 64, 114
1, 96544, Note_off_c, 0, 77, 65
1, 96552, Control_c, 0, 64, 127
1, 96585, Note_on_c, 0, 93, 93
1, 96587, Note_on_c, 0, 81, 76
1, 96591, Note_off_c, 0, 89, 66
1, 96628, Note_on_c, 0, 84, 75
1, 96636, Note_on_c, 0, 96, 81
1, 96662, Note_off_c, 0, 81, 63
1, 96669, Note_on_c, 0, 88, 89
1, 96678, Note_off_c, 0, 93, 62
1, 96681, Note_on_c, 0, 100, 75
1, 96695, Note_off_c, 0, 84, 61
1, 96727, Note_off_c, 0, 96, 63
1, 96748, Note_on_c, 0, 101, 98
1, 96757, Note_on_c, 0, 89, 90
1, 96765, Note_off_c, 0, 88, 51
1, 96765, Note_off_c, 0, 100, 66
1, 96778, Note_off_c, 0, 101, 68
1, 96792, Note_off_c, 0, 89, 69
1, 97048, Control_c, 0, 64, 69
1, 97057, Note_on_c, 0, 69, 70
1, 97063, Control_c, 0, 64, 49
1, 97075, Note_on_c, 0, 49, 57
1, 97075, Note_on_c, 0, 76, 70
1, 97078, Control_c, 0, 64, 0
1, 97094, Note_on_c, 0, 52, 65
1, 97098, Note_on_c, 0, 57, 51
1, 97107, Note_on_c, 0, 61, 82
1, 97108, Note_on_c, 0, 81, 89
1, 97108, Control_c, 0, 64, 29
1, 97114, Note_off_c, 0, 69, 64
1, 97122, Control_c, 0, 64, 41
1, 97131, Note_off_c, 0, 76, 64
1, 97137, Control_c, 0, 64, 53
1, 97146, Note_off_c, 0, 81, 64
1, 97152, Control_c, 0, 64, 65
1, 97167, Control_c, 0, 64, 83
1, 97179, Note_off_c, 0, 61, 66
1, 97182, Control_c, 0, 64, 91
1, 97183, Note_off_c, 0, 49, 64
1, 97197, Control_c, 0, 64, 94
1, 97208, Note_off_c, 0, 52, 53
1, 97211, Control_c, 0, 64, 100
1, 97226, Control_c, 0, 64, 108
1, 97228, Note_off_c, 0, 57, 59
1, 97241, Control_c, 0, 64, 122
1, 97256, Control_c, 0, 64, 127
1, 97321, Note_on_c, 0, 53, 62
1, 97331, Control_c, 0, 64, 92
1, 97334, Note_on_c, 0, 50, 65
1, 97334, Note_on_c, 0, 69, 71
1, 97346, Control_c, 0, 64, 67
1, 97346, Note_on_c, 0, 57, 59
1, 97355, Note_on_c, 0, 74, 66
1, 97360, Control_c, 0, 64, 51
1, 97375, Control_c, 0, 64, 21
1, 97376, Note_off_c, 0, 69, 61
1, 97377, Note_on_c, 0, 77, 78
1, 97383, Note_off_c, 0, 53, 66
1, 97390, Control_c, 0, 64, 28
1, 97397, Note_on_c, 0, 62, 76
1, 97397, Note_on_c, 0, 81, 90
1, 97397, Note_off_c, 0, 74, 63
1, 97404, Note_off_c, 0, 50, 62
1, 97404, Note_off_c, 0, 57, 62
1, 97405, Control_c, 0, 64, 42
1, 97417, Note_off_c, 0, 77, 65
1, 97420, Control_c, 0, 64, 55
1, 97430, Note_off_c, 0, 81, 66
1, 97434, Control_c, 0, 64, 65
1, 97449, Control_c, 0, 64, 78
1, 97453, Note_off_c, 0, 62, 63
1, 97464, Control_c, 0, 64, 92
1, 97486, Control_c, 0, 64, 109
1, 97501, Control_c, 0, 64, 127
1, 97575, Note_on_c, 0, 48, 67
1, 97620, Control_c, 0, 64, 98
1, 97632, Note_on_c, 0, 55, 64
1, 97635, Control_c, 0, 64, 70
1, 97649, Control_c, 0, 64, 52
1, 97657, Note_off_c, 0, 48, 64
1, 97659, Note_on_c, 0, 58, 80
1, 97664, Control_c, 0, 64, 0
1, 97709, Note_on_c, 0, 72, 77
1, 97723, Control_c, 0, 64, 27
1, 97725, Note_on_c, 0, 64, 78
1, 97731, Note_off_c, 0, 55, 61
1, 97738, Note_on_c, 0, 79, 82
1, 97738, Control_c, 0, 64, 42
1, 97753, Control_c, 0, 64, 57
1, 97763, Note_off_c, 0, 72, 63
1, 97763, Note_off_c, 0, 58, 63
1, 97767, Note_off_c, 0, 64, 60
1, 97767, Control_c, 0, 64, 72
1, 97779, Note_on_c, 0, 84, 95
1, 97782, Control_c, 0, 64, 83
1, 97783, Note_off_c, 0, 79, 66
1, 97797, Control_c, 0, 64, 84
1, 97805, Note_off_c, 0, 84, 67
1, 97811, Control_c, 0, 64, 86
1, 97826, Control_c, 0, 64, 90
1, 97841, Control_c, 0, 64, 107
1, 97856, Control_c, 0, 64, 127
1, 97917, Note_on_c, 0, 41, 52
1, 97945, Control_c, 0, 64, 85
1, 97952, Note_on_c, 0, 48, 72
1, 97960, Control_c, 0, 64, 59
1, 97975, Control_c, 0, 64, 29
1, 97978, Note_off_c, 0, 41, 63
1, 97990, Control_c, 0, 64, 14
1, 98005, Control_c, 0, 64, 33
1, 98017, Note_off_c, 0, 48, 64
1, 98019, Control_c, 0, 64, 41
1, 98034, Control_c, 0, 64, 52
1, 98036, Note_on_c, 0, 57, 55
1, 98049, Control_c, 0, 64, 64
1, 98060, Note_off_c, 0, 57, 63
1, 98064, Control_c, 0, 64, 78
1, 98079, Control_c, 0, 64, 93
1, 98093, Control_c, 0, 64, 99
1, 98109, Control_c, 0, 64, 109
1, 98115, Note_on_c, 0, 65, 73
1, 98124, Control_c, 0, 64, 127
1, 98136, Note_off_c, 0, 65, 70
1, 98187, Note_on_c, 0, 72, 75
1, 98252, Note_on_c, 0, 77, 74
1, 98306, Note_on_c, 0, 81, 79
1, 98358, Note_on_c, 0, 84, 88
1, 98421, Note_on_c, 0, 89, 102
1, 99990, Note_off_c, 0, 72, 59
1, 100004, Note_off_c, 0, 77, 58
1, 100028, Note_off_c, 0, 81, 61
1, 100036, Note_off_c, 0, 89, 65
1, 100053, Note_off_c, 0, 84, 65
1, 100251, Control_c, 0, 64, 98
1, 100266, Control_c, 0, 64, 86
1, 100280, Control_c, 0, 64, 75
1, 100295, Control_c, 0, 64, 64
1, 100310, Control_c, 0, 64, 50
1, 100325, Control_c, 0, 64, 14
1, 100340, Control_c, 0, 64, 0
1, 100415, End_track
0, 0, End_of_file
