0, 0, Header, 0, 1, 384
1, 0, Start_track
1, 0, Title_t, "Wizards (2003)--Tak             "
1, 0, Text_t, "2009 International Piano-e-Competition finals"
1, 0, Text_t, "captured June-July 2009"
1, 0, Text_t, "http://www.piano-e-competition.com/"
1, 0, Text_t, "standard-resolution version"
1, 0, Text_t, "File processed for distribution by software from Zenph Studios, Inc., http://www.zenph.com"
1, 0, Instrument_name_t, "Yamaha Disklavier Pro Mark IV concert grand piano, model DCFIIISM4PRO"
1, 0, Sequencer_specific, 39, 67, 113, 0, 1, 0, 1, 0, 87, 105, 122, 97, 114, 100, 115, 32, 40, 50, 48, 48, 51, 41, 32, 32, 89, 111, 117, 110, 103, 45, 65, 104, 32, 84, 97, 107, 32, 32, 32, 32
1, 0, Sequencer_specific, 6, 67, 113, 0, 0, 0, 69
1, 0, System_exclusive, 21, 67, 113, 126, 21, 0, 2, 2, 2, 3, 12, 8, 4, 10, 4, 13, 3, 8, 12, 1, 1, 247
1, 0, Sequencer_specific, 5, 67, 123, 12, 2, 1
1, 0, Tempo, 512820
1, 0, Time_signature, 4, 2, 24, 8
1, 0, System_exclusive, 5, 126, 127, 9, 1, 247
1, 1, System_exclusive, 8, 67, 16, 76, 0, 0, 126, 0, 247
1, 2, System_exclusive, 8, 67, 16, 76, 8, 9, 7, 1, 247
1, 3, Control_c, 0, 0, 0
1, 3, Control_c, 1, 0, 0
1, 3, Control_c, 2, 0, 0
1, 3, Control_c, 3, 0, 0
1, 3, Control_c, 4, 0, 0
1, 3, Control_c, 5, 0, 0
1, 3, Control_c, 6, 0, 0
1, 3, Control_c, 7, 0, 0
1, 3, Control_c, 8, 0, 0
1, 3, Control_c, 9, 0, 127
1, 3, Control_c, 10, 0, 0
1, 3, Control_c, 11, 0, 0
1, 3, Control_c, 12, 0, 0
1, 3, Control_c, 13, 0, 0
1, 3, Control_c, 14, 0, 0
1, 3, Control_c, 15, 0, 0
1, 4, Control_c, 0, 32, 0
1, 4, Control_c, 1, 32, 0
1, 4, Control_c, 2, 32, 0
1, 4, Control_c, 3, 32, 0
1, 4, Control_c, 4, 32, 0
1, 4, Control_c, 5, 32, 0
1, 4, Control_c, 6, 32, 0
1, 4, Control_c, 7, 32, 0
1, 4, Control_c, 8, 32, 0
1, 4, Control_c, 9, 32, 0
1, 4, Control_c, 10, 32, 0
1, 4, Control_c, 11, 32, 0
1, 4, Control_c, 12, 32, 0
1, 4, Control_c, 13, 32, 0
1, 4, Control_c, 14, 32, 0
1, 4, Control_c, 15, 32, 0
1, 5, Program_c, 0, 0
1, 5, Program_c, 1, 0
1, 5, Program_c, 2, 0
1, 5, Program_c, 3, 0
1, 5, Program_c, 4, 0
1, 5, Program_c, 5, 0
1, 5, Program_c, 6, 0
1, 5, Program_c, 7, 0
1, 5, Program_c, 8, 0
1, 5, Program_c, 9, 0
1, 5, Program_c, 10, 0
1, 5, Program_c, 11, 0
1, 5, Program_c, 12, 0
1, 5, Program_c, 13, 0
1, 5, Program_c, 14, 0
1, 5, Program_c, 15, 0
1, 6, Control_c, 0, 7, 100
1, 6, Control_c, 1, 7, 100
1, 6, Control_c, 2, 7, 100
1, 6, Control_c, 3, 7, 100
1, 6, Control_c, 4, 7, 100
1, 6, Control_c, 5, 7, 100
1, 6, Control_c, 6, 7, 100
1, 6, Control_c, 7, 7, 100
1, 6, Control_c, 8, 7, 100
1, 6, Control_c, 9, 7, 100
1, 6, Control_c, 10, 7, 100
1, 6, Control_c, 11, 7, 100
1, 6, Control_c, 12, 7, 100
1, 6, Control_c, 13, 7, 100
1, 6, Control_c, 14, 7, 100
1, 6, Control_c, 15, 7, 100
1, 1131, Note_on_c, 0, 64, 64
1, 1472, Control_c, 0, 64, 28
1, 1487, Control_c, 0, 64, 43
1, 1502, Control_c, 0, 64, 51
1, 1517, Control_c, 0, 64, 57
1, 1532, Control_c, 0, 64, 60
1, 1547, Control_c, 0, 64, 61
1, 1562, Control_c, 0, 64, 62
1, 1577, Control_c, 0, 64, 63
1, 1592, Control_c, 0, 64, 64
1, 1606, Control_c, 0, 64, 65
1, 1621, Control_c, 0, 64, 66
1, 1636, Control_c, 0, 64, 67
1, 1651, Control_c, 0, 64, 68
1, 1666, Control_c, 0, 64, 70
1, 1681, Control_c, 0, 64, 71
1, 1703, Control_c, 0, 64, 72
1, 1718, Control_c, 0, 64, 73
1, 1732, Control_c, 0, 64, 75
1, 1747, Control_c, 0, 64, 77
1, 1762, Control_c, 0, 64, 79
1, 1777, Control_c, 0, 64, 80
1, 1792, Control_c, 0, 64, 81
1, 1806, Control_c, 0, 64, 82
1, 1821, Control_c, 0, 64, 83
1, 1836, Control_c, 0, 64, 85
1, 1851, Control_c, 0, 64, 87
1, 1866, Control_c, 0, 64, 88
1, 1910, Control_c, 0, 64, 89
1, 1925, Control_c, 0, 64, 90
1, 1940, Control_c, 0, 64, 92
1, 1977, Note_on_c, 0, 69, 42
1, 1984, Control_c, 0, 64, 92
1, 2014, Control_c, 0, 64, 93
1, 2029, Control_c, 0, 64, 94
1, 2044, Control_c, 0, 64, 94
1, 2058, Control_c, 0, 64, 95
1, 2073, Control_c, 0, 64, 95
1, 2088, Control_c, 0, 64, 96
1, 2103, Control_c, 0, 64, 96
1, 2132, Control_c, 0, 64, 97
1, 2147, Control_c, 0, 64, 98
1, 2162, Control_c, 0, 64, 98
1, 2168, Note_on_c, 0, 70, 53
1, 2176, Control_c, 0, 64, 99
1, 2191, Control_c, 0, 64, 100
1, 2206, Control_c, 0, 64, 101
1, 2221, Control_c, 0, 64, 102
1, 2250, Control_c, 0, 64, 101
1, 2265, Control_c, 0, 64, 98
1, 2266, Note_on_c, 0, 72, 50
1, 2280, Control_c, 0, 64, 92
1, 2295, Control_c, 0, 64, 85
1, 2298, Note_on_c, 0, 73, 75
1, 2308, Note_off_c, 0, 72, 59
1, 2310, Control_c, 0, 64, 84
1, 2326, Control_c, 0, 64, 85
1, 2337, Note_on_c, 0, 75, 58
1, 2341, Control_c, 0, 64, 87
1, 2355, Control_c, 0, 64, 90
1, 2366, Note_on_c, 0, 77, 72
1, 2366, Note_off_c, 0, 73, 64
1, 2370, Control_c, 0, 64, 93
1, 2372, Note_off_c, 0, 75, 63
1, 2399, Control_c, 0, 64, 92
1, 2414, Note_on_c, 0, 78, 81
1, 2414, Control_c, 0, 64, 85
1, 2429, Control_c, 0, 64, 77
1, 2441, Note_off_c, 0, 77, 62
1, 2452, Control_c, 0, 64, 68
1, 2467, Control_c, 0, 64, 64
1, 2481, Control_c, 0, 64, 66
1, 2496, Control_c, 0, 64, 69
1, 2511, Control_c, 0, 64, 73
1, 2526, Control_c, 0, 64, 75
1, 2541, Control_c, 0, 64, 77
1, 2555, Control_c, 0, 64, 78
1, 2570, Control_c, 0, 64, 80
1, 2585, Control_c, 0, 64, 82
1, 2599, Control_c, 0, 64, 83
1, 2614, Control_c, 0, 64, 85
1, 2629, Control_c, 0, 64, 86
1, 2644, Control_c, 0, 64, 88
1, 2659, Control_c, 0, 64, 90
1, 2673, Control_c, 0, 64, 91
1, 2688, Control_c, 0, 64, 93
1, 2703, Control_c, 0, 64, 95
1, 2718, Control_c, 0, 64, 97
1, 2733, Control_c, 0, 64, 98
1, 2748, Control_c, 0, 64, 99
1, 2763, Control_c, 0, 64, 99
1, 2778, Control_c, 0, 64, 101
1, 2793, Control_c, 0, 64, 103
1, 2807, Control_c, 0, 64, 104
1, 2822, Control_c, 0, 64, 106
1, 2867, Control_c, 0, 64, 106
1, 2881, Control_c, 0, 64, 107
1, 2896, Control_c, 0, 64, 107
1, 2911, Control_c, 0, 64, 108
1, 2955, Control_c, 0, 64, 108
1, 2970, Control_c, 0, 64, 109
1, 2985, Control_c, 0, 64, 110
1, 2999, Control_c, 0, 64, 112
1, 3014, Control_c, 0, 64, 114
1, 3029, Control_c, 0, 64, 115
1, 3044, Control_c, 0, 64, 116
1, 3059, Control_c, 0, 64, 117
1, 3073, Control_c, 0, 64, 118
1, 3088, Control_c, 0, 64, 121
1, 3103, Control_c, 0, 64, 126
1, 3119, Control_c, 0, 64, 127
1, 3169, Note_off_c, 0, 78, 36
1, 3842, Note_on_c, 0, 87, 76
1, 4336, Note_off_c, 0, 70, 33
1, 4375, Note_off_c, 0, 64, 38
1, 4477, Note_off_c, 0, 69, 33
1, 4594, Note_off_c, 0, 87, 35
1, 4757, Note_on_c, 0, 96, 77
1, 4783, Note_on_c, 0, 97, 87
1, 4812, Note_off_c, 0, 96, 65
1, 5249, Note_on_c, 0, 87, 58
1, 5255, Note_off_c, 0, 97, 39
1, 5390, Note_off_c, 0, 87, 50
1, 5500, Note_on_c, 0, 87, 74
1, 5589, Note_off_c, 0, 87, 64
1, 5699, Note_on_c, 0, 87, 85
1, 5760, Note_off_c, 0, 87, 63
1, 5864, Note_on_c, 0, 87, 91
1, 5920, Note_off_c, 0, 87, 65
1, 6012, Note_on_c, 0, 87, 96
1, 6057, Note_off_c, 0, 87, 66
1, 6140, Note_on_c, 0, 87, 98
1, 6179, Note_off_c, 0, 87, 67
1, 6254, Note_on_c, 0, 87, 98
1, 6294, Note_off_c, 0, 87, 64
1, 6340, Note_on_c, 0, 87, 92
1, 6386, Note_off_c, 0, 87, 66
1, 6433, Note_on_c, 0, 87, 93
1, 6476, Note_off_c, 0, 87, 67
1, 6517, Note_on_c, 0, 87, 91
1, 6562, Note_off_c, 0, 87, 67
1, 6610, Note_on_c, 0, 87, 95
1, 6651, Note_off_c, 0, 87, 67
1, 6698, Note_on_c, 0, 87, 96
1, 6742, Note_off_c, 0, 87, 67
1, 6796, Note_on_c, 0, 87, 86
1, 6844, Note_off_c, 0, 87, 64
1, 6897, Note_on_c, 0, 87, 79
1, 6977, Note_off_c, 0, 87, 0
1, 6992, Note_on_c, 0, 87, 58
1, 7051, Note_off_c, 0, 87, 66
1, 7088, Note_on_c, 0, 89, 95
1, 7103, Note_on_c, 0, 88, 93
1, 7172, Note_off_c, 0, 89, 62
1, 8546, Note_on_c, 0, 84, 42
1, 8761, Note_off_c, 0, 88, 27
1, 8936, Note_off_c, 0, 84, 36
1, 9561, Control_c, 0, 64, 121
1, 9576, Control_c, 0, 64, 75
1, 9590, Control_c, 0, 64, 0
1, 9624, Note_on_c, 0, 64, 50
1, 9783, Control_c, 0, 64, 52
1, 9798, Control_c, 0, 64, 62
1, 9813, Control_c, 0, 64, 64
1, 9828, Control_c, 0, 64, 66
1, 9842, Control_c, 0, 64, 68
1, 9857, Control_c, 0, 64, 70
1, 9872, Control_c, 0, 64, 72
1, 9887, Control_c, 0, 64, 73
1, 9902, Control_c, 0, 64, 75
1, 9917, Control_c, 0, 64, 77
1, 9938, Control_c, 0, 64, 79
1, 9953, Control_c, 0, 64, 81
1, 9968, Control_c, 0, 64, 83
1, 9983, Control_c, 0, 64, 84
1, 9997, Control_c, 0, 64, 86
1, 10012, Control_c, 0, 64, 87
1, 10027, Control_c, 0, 64, 89
1, 10042, Control_c, 0, 64, 91
1, 10057, Control_c, 0, 64, 94
1, 10072, Control_c, 0, 64, 95
1, 10087, Control_c, 0, 64, 97
1, 10102, Control_c, 0, 64, 97
1, 10116, Control_c, 0, 64, 99
1, 10129, Note_on_c, 0, 68, 34
1, 10131, Control_c, 0, 64, 101
1, 10146, Control_c, 0, 64, 105
1, 10161, Control_c, 0, 64, 107
1, 10176, Control_c, 0, 64, 107
1, 10190, Control_c, 0, 64, 108
1, 10205, Control_c, 0, 64, 108
1, 10220, Control_c, 0, 64, 110
1, 10235, Control_c, 0, 64, 112
1, 10250, Control_c, 0, 64, 115
1, 10264, Control_c, 0, 64, 116
1, 10272, Note_off_c, 0, 68, 43
1, 10279, Control_c, 0, 64, 116
1, 10289, Note_on_c, 0, 70, 43
1, 10309, Control_c, 0, 64, 117
1, 10340, Control_c, 0, 64, 117
1, 10352, Note_off_c, 0, 70, 52
1, 10355, Control_c, 0, 64, 118
1, 10384, Control_c, 0, 64, 118
1, 10395, Note_off_c, 0, 64, 34
1, 10398, Note_on_c, 0, 67, 51
1, 10413, Control_c, 0, 64, 119
1, 10428, Control_c, 0, 64, 119
1, 10443, Control_c, 0, 64, 120
1, 10453, Note_on_c, 0, 68, 56
1, 10458, Control_c, 0, 64, 123
1, 10473, Control_c, 0, 64, 126
1, 10487, Control_c, 0, 64, 127
1, 10503, Note_on_c, 0, 72, 58
1, 10512, Note_off_c, 0, 68, 61
1, 10523, Note_off_c, 0, 67, 36
1, 10532, Note_off_c, 0, 72, 66
1, 10541, Note_on_c, 0, 73, 70
1, 10587, Note_on_c, 0, 80, 69
1, 10593, Note_off_c, 0, 73, 62
1, 10641, Note_on_c, 0, 81, 81
1, 10657, Note_off_c, 0, 80, 63
1, 11415, Note_off_c, 0, 81, 50
1, 11450, Note_on_c, 0, 78, 54
1, 11682, Note_on_c, 0, 77, 58
1, 11682, Note_off_c, 0, 78, 53
1, 11909, Note_on_c, 0, 69, 42
1, 12102, Note_on_c, 0, 73, 59
1, 12153, Note_off_c, 0, 77, 38
1, 12159, Note_off_c, 0, 69, 35
1, 12269, Note_on_c, 0, 72, 64
1, 12276, Note_off_c, 0, 73, 59
1, 12399, Note_off_c, 0, 72, 61
1, 12400, Note_on_c, 0, 73, 79
1, 12504, Note_off_c, 0, 73, 61
1, 12514, Note_on_c, 0, 72, 83
1, 12608, Note_off_c, 0, 72, 41
1, 12617, Note_on_c, 0, 73, 91
1, 12678, Note_off_c, 0, 73, 57
1, 12704, Note_on_c, 0, 72, 87
1, 12755, Note_off_c, 0, 72, 61
1, 12765, Note_on_c, 0, 73, 90
1, 12821, Note_off_c, 0, 73, 61
1, 12833, Note_on_c, 0, 72, 83
1, 12868, Control_c, 0, 64, 114
1, 12879, Note_off_c, 0, 72, 62
1, 12886, Note_on_c, 0, 73, 79
1, 12934, Control_c, 0, 64, 115
1, 12944, Note_on_c, 0, 72, 79
1, 12944, Note_off_c, 0, 73, 65
1, 12949, Control_c, 0, 64, 127
1, 12997, Note_off_c, 0, 72, 60
1, 13005, Note_on_c, 0, 73, 86
1, 13008, Control_c, 0, 64, 108
1, 13023, Control_c, 0, 64, 103
1, 13058, Note_on_c, 0, 72, 79
1, 13059, Note_off_c, 0, 73, 65
1, 13068, Control_c, 0, 64, 105
1, 13083, Control_c, 0, 64, 114
1, 13097, Control_c, 0, 64, 127
1, 13115, Note_on_c, 0, 73, 89
1, 13119, Note_off_c, 0, 72, 63
1, 13185, Note_on_c, 0, 72, 90
1, 13188, Note_off_c, 0, 73, 65
1, 13315, Note_on_c, 0, 73, 97
1, 13332, Note_off_c, 0, 72, 60
1, 13464, Note_on_c, 0, 72, 92
1, 13466, Note_off_c, 0, 73, 63
1, 13649, Note_on_c, 0, 75, 91
1, 13661, Note_off_c, 0, 72, 55
1, 13918, Note_on_c, 0, 62, 62
1, 13980, Control_c, 0, 64, 107
1, 13987, Note_on_c, 0, 84, 87
1, 13995, Control_c, 0, 64, 74
1, 14000, Note_off_c, 0, 75, 63
1, 14010, Control_c, 0, 64, 0
1, 14099, Control_c, 0, 64, 47
1, 14113, Control_c, 0, 64, 67
1, 14128, Control_c, 0, 64, 73
1, 14143, Control_c, 0, 64, 80
1, 14157, Control_c, 0, 64, 87
1, 14172, Control_c, 0, 64, 94
1, 14187, Control_c, 0, 64, 100
1, 14202, Control_c, 0, 64, 107
1, 14217, Control_c, 0, 64, 114
1, 14225, Note_on_c, 0, 68, 76
1, 14231, Control_c, 0, 64, 127
1, 14317, Note_on_c, 0, 70, 78
1, 14325, Note_off_c, 0, 62, 57
1, 14359, Note_off_c, 0, 68, 61
1, 14386, Note_on_c, 0, 72, 81
1, 14388, Note_off_c, 0, 70, 65
1, 14448, Control_c, 0, 64, 118
1, 14461, Note_on_c, 0, 73, 89
1, 14461, Note_off_c, 0, 84, 55
1, 14462, Control_c, 0, 64, 106
1, 14475, Note_off_c, 0, 72, 60
1, 14477, Control_c, 0, 64, 106
1, 14507, Control_c, 0, 64, 110
1, 14508, Note_on_c, 0, 77, 67
1, 14519, Note_on_c, 0, 75, 87
1, 14522, Control_c, 0, 64, 123
1, 14536, Control_c, 0, 64, 127
1, 14539, Note_on_c, 0, 78, 81
1, 14548, Note_off_c, 0, 73, 62
1, 14553, Note_off_c, 0, 77, 54
1, 14566, Note_on_c, 0, 84, 62
1, 14575, Note_on_c, 0, 85, 90
1, 14582, Note_off_c, 0, 75, 65
1, 14585, Note_off_c, 0, 78, 64
1, 14592, Note_off_c, 0, 84, 66
1, 14615, Note_off_c, 0, 85, 66
1, 14680, Note_on_c, 0, 88, 105
1, 14699, Control_c, 0, 64, 119
1, 14713, Control_c, 0, 64, 100
1, 14728, Control_c, 0, 64, 98
1, 14743, Control_c, 0, 64, 99
1, 14758, Control_c, 0, 64, 106
1, 14773, Control_c, 0, 64, 127
1, 14809, Note_off_c, 0, 88, 64
1, 14815, Note_on_c, 0, 91, 96
1, 14862, Control_c, 0, 64, 121
1, 14868, Note_on_c, 0, 88, 101
1, 14892, Control_c, 0, 64, 122
1, 14906, Control_c, 0, 64, 127
1, 14916, Note_off_c, 0, 91, 64
1, 15580, Note_on_c, 0, 85, 90
1, 15609, Note_off_c, 0, 88, 59
1, 15897, Note_on_c, 0, 84, 86
1, 15900, Note_off_c, 0, 85, 64
1, 16180, Note_off_c, 0, 84, 64
1, 16189, Note_on_c, 0, 81, 80
1, 16226, Control_c, 0, 64, 116
1, 16240, Control_c, 0, 64, 111
1, 16260, Note_off_c, 0, 81, 58
1, 16268, Note_on_c, 0, 87, 83
1, 16300, Control_c, 0, 64, 112
1, 16314, Control_c, 0, 64, 113
1, 16322, Note_on_c, 0, 85, 82
1, 16329, Control_c, 0, 64, 114
1, 16344, Note_off_c, 0, 87, 65
1, 16344, Control_c, 0, 64, 116
1, 16359, Note_off_c, 0, 85, 62
1, 16359, Control_c, 0, 64, 118
1, 16374, Control_c, 0, 64, 120
1, 16388, Control_c, 0, 64, 126
1, 16402, Note_on_c, 0, 85, 74
1, 16403, Control_c, 0, 64, 127
1, 16449, Note_off_c, 0, 85, 66
1, 16454, Note_on_c, 0, 89, 85
1, 16490, Note_off_c, 0, 89, 66
1, 16494, Note_on_c, 0, 88, 87
1, 16526, Note_off_c, 0, 88, 66
1, 16537, Control_c, 0, 64, 122
1, 16551, Control_c, 0, 64, 100
1, 16566, Control_c, 0, 64, 86
1, 16569, Note_on_c, 0, 88, 87
1, 16574, Note_on_c, 0, 89, 81
1, 16581, Control_c, 0, 64, 82
1, 16596, Control_c, 0, 64, 84
1, 16610, Note_off_c, 0, 89, 42
1, 16611, Control_c, 0, 64, 87
1, 16625, Control_c, 0, 64, 93
1, 16640, Control_c, 0, 64, 102
1, 16655, Control_c, 0, 64, 113
1, 16677, Control_c, 0, 64, 127
1, 18660, Note_on_c, 0, 87, 48
1, 18705, Note_off_c, 0, 88, 32
1, 19012, Note_off_c, 0, 87, 38
1, 19280, Control_c, 0, 67, 8
1, 19294, Control_c, 0, 67, 8
1, 19309, Control_c, 0, 67, 9
1, 19324, Control_c, 0, 67, 11
1, 19339, Control_c, 0, 67, 11
1, 19354, Control_c, 0, 67, 12
1, 19368, Control_c, 0, 67, 13
1, 19383, Control_c, 0, 67, 14
1, 19398, Control_c, 0, 67, 15
1, 19413, Control_c, 0, 67, 16
1, 19428, Control_c, 0, 67, 18
1, 19442, Control_c, 0, 67, 20
1, 19457, Control_c, 0, 67, 22
1, 19472, Control_c, 0, 67, 24
1, 19487, Control_c, 0, 67, 25
1, 19501, Control_c, 0, 67, 27
1, 19516, Control_c, 0, 64, 123
1, 19516, Control_c, 0, 67, 28
1, 19531, Control_c, 0, 64, 119
1, 19531, Control_c, 0, 67, 29
1, 19546, Control_c, 0, 64, 118
1, 19546, Control_c, 0, 67, 30
1, 19561, Control_c, 0, 64, 116
1, 19561, Control_c, 0, 67, 30
1, 19575, Control_c, 0, 64, 114
1, 19575, Control_c, 0, 67, 31
1, 19590, Control_c, 0, 64, 112
1, 19590, Control_c, 0, 67, 32
1, 19605, Control_c, 0, 64, 110
1, 19605, Control_c, 0, 67, 33
1, 19620, Control_c, 0, 64, 109
1, 19620, Control_c, 0, 67, 33
1, 19635, Control_c, 0, 64, 107
1, 19650, Control_c, 0, 64, 106
1, 19650, Control_c, 0, 67, 34
1, 19665, Control_c, 0, 64, 105
1, 19686, Note_on_c, 0, 61, 57
1, 19687, Control_c, 0, 64, 104
1, 19701, Control_c, 0, 64, 102
1, 19716, Control_c, 0, 64, 96
1, 19731, Control_c, 0, 64, 85
1, 19746, Control_c, 0, 64, 71
1, 19761, Control_c, 0, 64, 17
1, 19775, Control_c, 0, 64, 0
1, 19849, Control_c, 0, 67, 33
1, 19894, Control_c, 0, 64, 39
1, 19910, Control_c, 0, 64, 58
1, 19910, Control_c, 0, 67, 33
1, 19924, Control_c, 0, 64, 62
1, 19939, Control_c, 0, 64, 64
1, 19954, Control_c, 0, 64, 66
1, 19969, Control_c, 0, 64, 68
1, 19984, Control_c, 0, 64, 70
1, 19998, Control_c, 0, 64, 73
1, 20013, Control_c, 0, 64, 74
1, 20028, Control_c, 0, 64, 76
1, 20043, Control_c, 0, 64, 79
1, 20058, Control_c, 0, 64, 81
1, 20073, Control_c, 0, 64, 83
1, 20073, Control_c, 0, 67, 32
1, 20088, Control_c, 0, 64, 84
1, 20103, Control_c, 0, 64, 86
1, 20117, Control_c, 0, 64, 89
1, 20132, Control_c, 0, 64, 91
1, 20147, Control_c, 0, 64, 93
1, 20162, Control_c, 0, 64, 94
1, 20177, Control_c, 0, 64, 97
1, 20191, Control_c, 0, 64, 99
1, 20206, Control_c, 0, 64, 101
1, 20221, Control_c, 0, 64, 103
1, 20236, Control_c, 0, 64, 105
1, 20251, Control_c, 0, 64, 106
1, 20266, Control_c, 0, 64, 108
1, 20281, Control_c, 0, 64, 110
1, 20296, Control_c, 0, 64, 113
1, 20311, Control_c, 0, 64, 114
1, 20340, Control_c, 0, 64, 115
1, 20355, Control_c, 0, 64, 116
1, 20370, Control_c, 0, 64, 118
1, 20385, Control_c, 0, 64, 119
1, 20395, Note_on_c, 0, 68, 37
1, 20399, Control_c, 0, 64, 120
1, 20422, Control_c, 0, 64, 121
1, 20437, Control_c, 0, 64, 122
1, 20451, Control_c, 0, 64, 124
1, 20466, Control_c, 0, 64, 126
1, 20481, Control_c, 0, 64, 127
1, 20584, Note_off_c, 0, 68, 37
1, 20593, Note_off_c, 0, 61, 27
1, 20597, Note_on_c, 0, 71, 41
1, 20697, Note_off_c, 0, 71, 52
1, 20724, Note_on_c, 0, 70, 50
1, 20826, Note_off_c, 0, 70, 60
1, 20849, Note_on_c, 0, 69, 44
1, 20932, Note_off_c, 0, 69, 38
1, 20967, Note_on_c, 0, 66, 45
1, 21112, Note_on_c, 0, 72, 43
1, 21112, Note_off_c, 0, 66, 44
1, 21312, Note_on_c, 0, 75, 42
1, 21412, Note_off_c, 0, 72, 24
1, 21497, Control_c, 0, 67, 33
1, 21644, Control_c, 0, 67, 33
1, 21690, Note_on_c, 0, 77, 42
1, 21692, Note_off_c, 0, 75, 35
1, 21748, Control_c, 0, 67, 34
1, 21867, Control_c, 0, 67, 34
1, 21978, Control_c, 0, 67, 35
1, 22008, Control_c, 0, 67, 35
1, 22082, Control_c, 0, 67, 36
1, 22141, Control_c, 0, 67, 36
1, 22170, Control_c, 0, 67, 40
1, 22185, Control_c, 0, 67, 43
1, 22200, Control_c, 0, 67, 46
1, 22202, Note_off_c, 0, 77, 36
1, 22215, Control_c, 0, 67, 49
1, 22230, Control_c, 0, 67, 51
1, 22244, Control_c, 0, 67, 52
1, 22259, Control_c, 0, 67, 53
1, 22274, Control_c, 0, 67, 53
1, 22289, Control_c, 0, 67, 54
1, 22305, Control_c, 0, 67, 56
1, 22319, Control_c, 0, 67, 56
1, 22334, Control_c, 0, 67, 57
1, 22349, Control_c, 0, 67, 58
1, 22364, Control_c, 0, 67, 58
1, 22379, Control_c, 0, 67, 60
1, 22393, Control_c, 0, 67, 61
1, 22408, Control_c, 0, 67, 62
1, 22423, Control_c, 0, 67, 64
1, 22438, Control_c, 0, 67, 66
1, 22453, Control_c, 0, 67, 68
1, 22467, Control_c, 0, 67, 69
1, 22482, Control_c, 0, 67, 70
1, 22497, Control_c, 0, 67, 72
1, 22512, Control_c, 0, 67, 73
1, 22526, Control_c, 0, 67, 74
1, 22541, Control_c, 0, 67, 74
1, 22556, Control_c, 0, 64, 124
1, 22556, Control_c, 0, 67, 76
1, 22571, Control_c, 0, 64, 121
1, 22571, Control_c, 0, 67, 77
1, 22586, Control_c, 0, 64, 118
1, 22586, Control_c, 0, 67, 77
1, 22601, Control_c, 0, 64, 113
1, 22601, Control_c, 0, 67, 78
1, 22616, Control_c, 0, 64, 110
1, 22616, Control_c, 0, 67, 79
1, 22631, Control_c, 0, 64, 107
1, 22631, Control_c, 0, 67, 80
1, 22642, Note_on_c, 0, 65, 32
1, 22645, Control_c, 0, 64, 104
1, 22645, Control_c, 0, 67, 80
1, 22660, Control_c, 0, 64, 101
1, 22660, Control_c, 0, 67, 81
1, 22682, Control_c, 0, 64, 98
1, 22682, Control_c, 0, 67, 81
1, 22697, Control_c, 0, 64, 94
1, 22697, Control_c, 0, 67, 82
1, 22712, Control_c, 0, 64, 88
1, 22712, Control_c, 0, 67, 82
1, 22726, Control_c, 0, 64, 80
1, 22741, Control_c, 0, 64, 70
1, 22756, Control_c, 0, 64, 40
1, 22771, Control_c, 0, 64, 0
1, 22771, Control_c, 0, 67, 83
1, 22830, Control_c, 0, 64, 24
1, 22845, Control_c, 0, 64, 49
1, 22860, Control_c, 0, 64, 60
1, 22860, Control_c, 0, 67, 82
1, 22875, Control_c, 0, 64, 64
1, 22890, Control_c, 0, 64, 65
1, 22905, Control_c, 0, 64, 67
1, 22919, Control_c, 0, 64, 69
1, 22919, Control_c, 0, 67, 82
1, 22934, Control_c, 0, 64, 70
1, 22949, Control_c, 0, 64, 72
1, 22949, Control_c, 0, 67, 81
1, 22964, Control_c, 0, 64, 74
1, 22979, Control_c, 0, 64, 76
1, 22993, Control_c, 0, 64, 78
1, 23008, Control_c, 0, 64, 80
1, 23023, Control_c, 0, 64, 81
1, 23037, Control_c, 0, 64, 83
1, 23052, Control_c, 0, 64, 85
1, 23052, Control_c, 0, 67, 81
1, 23067, Control_c, 0, 64, 87
1, 23082, Control_c, 0, 64, 89
1, 23091, Note_on_c, 0, 68, 30
1, 23098, Control_c, 0, 64, 91
1, 23113, Control_c, 0, 64, 92
1, 23128, Control_c, 0, 64, 94
1, 23142, Control_c, 0, 64, 96
1, 23142, Control_c, 0, 67, 80
1, 23157, Control_c, 0, 64, 97
1, 23172, Control_c, 0, 64, 99
1, 23187, Control_c, 0, 64, 100
1, 23202, Control_c, 0, 64, 101
1, 23216, Control_c, 0, 64, 102
1, 23216, Control_c, 0, 67, 80
1, 23231, Control_c, 0, 64, 104
1, 23246, Control_c, 0, 64, 106
1, 23262, Control_c, 0, 64, 108
1, 23277, Control_c, 0, 64, 110
1, 23282, Note_on_c, 0, 70, 42
1, 23291, Control_c, 0, 64, 111
1, 23306, Control_c, 0, 64, 112
1, 23321, Control_c, 0, 64, 114
1, 23336, Control_c, 0, 64, 117
1, 23347, Note_off_c, 0, 68, 41
1, 23350, Control_c, 0, 64, 118
1, 23350, Control_c, 0, 67, 79
1, 23362, Note_off_c, 0, 70, 52
1, 23380, Control_c, 0, 64, 118
1, 23410, Control_c, 0, 67, 79
1, 23443, Note_on_c, 0, 75, 42
1, 23536, Control_c, 0, 67, 78
1, 23539, Note_off_c, 0, 75, 38
1, 23555, Note_on_c, 0, 72, 46
1, 23595, Control_c, 0, 64, 119
1, 23624, Control_c, 0, 64, 119
1, 23654, Control_c, 0, 64, 120
1, 23668, Note_on_c, 0, 79, 44
1, 23668, Control_c, 0, 64, 121
1, 23668, Control_c, 0, 67, 78
1, 23683, Control_c, 0, 64, 122
1, 23698, Control_c, 0, 64, 124
1, 23713, Control_c, 0, 64, 127
1, 23714, Note_off_c, 0, 79, 45
1, 23717, Note_off_c, 0, 72, 37
1, 23729, Note_on_c, 0, 80, 39
1, 23764, Note_on_c, 0, 81, 56
1, 23767, Note_off_c, 0, 80, 48
1, 23772, Control_c, 0, 67, 77
1, 23820, Note_off_c, 0, 81, 63
1, 23850, Note_on_c, 0, 83, 23
1, 23858, Note_on_c, 0, 84, 56
1, 23894, Note_off_c, 0, 83, 0
1, 23894, Note_on_c, 0, 83, 11
1, 23906, Note_off_c, 0, 84, 54
1, 23950, Note_on_c, 0, 81, 60
1, 23960, Note_off_c, 0, 83, 62
1, 23996, Control_c, 0, 67, 77
1, 23998, Note_off_c, 0, 81, 61
1, 24005, Note_on_c, 0, 80, 59
1, 24027, Note_on_c, 0, 72, 41
1, 24050, Note_off_c, 0, 80, 57
1, 24055, Note_off_c, 0, 72, 57
1, 24058, Note_on_c, 0, 79, 52
1, 24085, Note_on_c, 0, 75, 51
1, 24159, Note_off_c, 0, 75, 45
1, 24159, Control_c, 0, 67, 76
1, 24178, Note_on_c, 0, 70, 52
1, 24270, Note_off_c, 0, 79, 32
1, 24273, Note_on_c, 0, 68, 50
1, 24300, Note_off_c, 0, 65, 31
1, 24334, Note_off_c, 0, 70, 31
1, 24344, Control_c, 0, 67, 76
1, 24447, Control_c, 0, 67, 75
1, 24506, Control_c, 0, 67, 75
1, 24595, Control_c, 0, 67, 74
1, 24714, Control_c, 0, 67, 74
1, 24759, Control_c, 0, 67, 73
1, 24878, Control_c, 0, 67, 73
1, 24959, Control_c, 0, 67, 72
1, 25018, Control_c, 0, 67, 72
1, 25078, Control_c, 0, 67, 71
1, 25093, Control_c, 0, 67, 71
1, 25109, Note_on_c, 0, 66, 41
1, 25214, Note_off_c, 0, 68, 43
1, 25230, Note_off_c, 0, 66, 62
1, 25359, Control_c, 0, 67, 71
1, 25374, Control_c, 0, 67, 72
1, 25388, Control_c, 0, 67, 72
1, 25400, Note_on_c, 0, 56, 95
1, 25403, Control_c, 0, 64, 94
1, 25403, Control_c, 0, 67, 71
1, 25418, Control_c, 0, 64, 0
1, 25418, Control_c, 0, 67, 68
1, 25433, Control_c, 0, 67, 59
1, 25447, Control_c, 0, 67, 37
1, 25462, Control_c, 0, 67, 8
1, 25477, Control_c, 0, 64, 58
1, 25477, Control_c, 0, 67, 0
1, 25493, Control_c, 0, 64, 71
1, 25507, Control_c, 0, 64, 84
1, 25517, Note_on_c, 0, 58, 70
1, 25522, Control_c, 0, 64, 98
1, 25529, Note_on_c, 0, 68, 55
1, 25537, Control_c, 0, 64, 108
1, 25552, Control_c, 0, 64, 118
1, 25567, Control_c, 0, 64, 127
1, 25571, Note_off_c, 0, 68, 59
1, 25575, Note_on_c, 0, 70, 67
1, 25579, Note_off_c, 0, 56, 60
1, 25586, Note_off_c, 0, 58, 61
1, 25594, Note_on_c, 0, 65, 74
1, 25615, Note_off_c, 0, 70, 56
1, 25666, Note_on_c, 0, 72, 78
1, 25672, Note_on_c, 0, 66, 74
1, 25673, Note_off_c, 0, 65, 52
1, 25716, Note_off_c, 0, 72, 64
1, 25721, Note_on_c, 0, 73, 70
1, 25732, Note_on_c, 0, 68, 80
1, 25735, Note_on_c, 0, 75, 78
1, 25749, Note_off_c, 0, 73, 66
1, 25751, Note_off_c, 0, 66, 62
1, 25778, Note_off_c, 0, 68, 64
1, 25796, Note_on_c, 0, 72, 81
1, 25799, Note_off_c, 0, 75, 65
1, 25807, Note_on_c, 0, 73, 94
1, 25833, Note_off_c, 0, 72, 64
1, 25868, Note_off_c, 0, 73, 66
1, 25870, Note_on_c, 0, 80, 99
1, 26122, Note_on_c, 0, 75, 95
1, 26137, Note_off_c, 0, 80, 57
1, 26234, Note_on_c, 0, 73, 102
1, 26240, Note_off_c, 0, 75, 62
1, 26339, Note_on_c, 0, 75, 94
1, 26345, Note_off_c, 0, 73, 66
1, 26362, Note_on_c, 0, 74, 79
1, 26390, Note_off_c, 0, 74, 59
1, 26405, Note_off_c, 0, 75, 43
1, 26428, Note_on_c, 0, 73, 98
1, 26494, Note_off_c, 0, 73, 57
1, 26501, Note_on_c, 0, 75, 85
1, 26557, Note_on_c, 0, 73, 84
1, 26557, Note_off_c, 0, 75, 64
1, 26607, Note_off_c, 0, 73, 64
1, 26609, Note_on_c, 0, 75, 72
1, 26658, Note_on_c, 0, 73, 80
1, 26661, Note_off_c, 0, 75, 65
1, 26698, Poly_aftertouch_c, 0, 75, 0
1, 26706, Note_on_c, 0, 75, 69
1, 26711, Note_off_c, 0, 73, 64
1, 26762, Note_on_c, 0, 73, 81
1, 26765, Note_off_c, 0, 75, 64
1, 26811, Note_on_c, 0, 75, 69
1, 26815, Note_off_c, 0, 73, 64
1, 26866, Note_on_c, 0, 73, 82
1, 26870, Note_off_c, 0, 75, 65
1, 26904, Poly_aftertouch_c, 0, 75, 0
1, 26914, Note_on_c, 0, 75, 67
1, 26915, Note_off_c, 0, 73, 64
1, 26968, Note_on_c, 0, 73, 78
1, 26972, Note_off_c, 0, 75, 67
1, 27014, Note_on_c, 0, 75, 66
1, 27019, Note_off_c, 0, 73, 64
1, 27072, Note_on_c, 0, 73, 76
1, 27076, Note_off_c, 0, 75, 64
1, 27122, Note_on_c, 0, 75, 70
1, 27126, Note_off_c, 0, 73, 65
1, 27195, Note_on_c, 0, 73, 78
1, 27195, Note_off_c, 0, 75, 64
1, 27243, Note_on_c, 0, 75, 72
1, 27248, Note_off_c, 0, 73, 65
1, 27271, Note_on_c, 0, 72, 84
1, 27310, Control_c, 0, 64, 83
1, 27314, Note_off_c, 0, 75, 64
1, 27314, Note_on_c, 0, 73, 79
1, 27319, Note_on_c, 0, 70, 88
1, 27325, Control_c, 0, 64, 65
1, 27340, Control_c, 0, 64, 68
1, 27355, Control_c, 0, 64, 74
1, 27355, Note_off_c, 0, 72, 63
1, 27370, Control_c, 0, 64, 81
1, 27377, Note_on_c, 0, 75, 68
1, 27379, Note_off_c, 0, 73, 63
1, 27385, Control_c, 0, 64, 92
1, 27399, Control_c, 0, 64, 110
1, 27414, Control_c, 0, 64, 127
1, 27439, Note_on_c, 0, 73, 72
1, 27440, Note_off_c, 0, 75, 63
1, 27498, Note_on_c, 0, 75, 69
1, 27498, Note_off_c, 0, 73, 63
1, 27559, Note_on_c, 0, 73, 72
1, 27564, Note_off_c, 0, 75, 63
1, 27594, Note_on_c, 0, 72, 102
1, 27606, Control_c, 0, 64, 73
1, 27621, Control_c, 0, 64, 0
1, 27623, Note_off_c, 0, 73, 61
1, 27625, Note_on_c, 0, 75, 65
1, 27629, Note_off_c, 0, 70, 64
1, 27690, Note_off_c, 0, 75, 65
1, 27692, Note_on_c, 0, 73, 74
1, 27695, Control_c, 0, 64, 41
1, 27710, Control_c, 0, 64, 63
1, 27725, Control_c, 0, 64, 67
1, 27740, Control_c, 0, 64, 70
1, 27755, Control_c, 0, 64, 72
1, 27755, Note_off_c, 0, 73, 62
1, 27756, Note_on_c, 0, 75, 66
1, 27770, Control_c, 0, 64, 75
1, 27784, Control_c, 0, 64, 79
1, 27799, Control_c, 0, 64, 83
1, 27814, Control_c, 0, 64, 87
1, 27820, Note_on_c, 0, 73, 69
1, 27821, Note_off_c, 0, 75, 63
1, 27829, Control_c, 0, 64, 89
1, 27843, Control_c, 0, 64, 90
1, 27858, Control_c, 0, 64, 91
1, 27873, Control_c, 0, 64, 92
1, 27882, Note_off_c, 0, 73, 62
1, 27885, Note_on_c, 0, 75, 66
1, 27889, Control_c, 0, 64, 95
1, 27904, Control_c, 0, 64, 97
1, 27926, Control_c, 0, 64, 99
1, 27940, Control_c, 0, 64, 100
1, 27955, Control_c, 0, 64, 101
1, 27960, Note_on_c, 0, 66, 88
1, 27960, Note_off_c, 0, 75, 64
1, 27964, Note_on_c, 0, 63, 79
1, 27967, Note_on_c, 0, 73, 71
1, 27970, Control_c, 0, 64, 102
1, 27985, Control_c, 0, 64, 103
1, 27992, Note_off_c, 0, 72, 55
1, 28000, Control_c, 0, 64, 104
1, 28014, Control_c, 0, 64, 105
1, 28026, Note_on_c, 0, 75, 69
1, 28026, Note_off_c, 0, 73, 61
1, 28029, Control_c, 0, 64, 107
1, 28044, Control_c, 0, 64, 110
1, 28059, Control_c, 0, 64, 114
1, 28069, Note_on_c, 0, 68, 94
1, 28074, Control_c, 0, 64, 117
1, 28089, Control_c, 0, 64, 118
1, 28097, Note_off_c, 0, 63, 59
1, 28099, Note_off_c, 0, 75, 63
1, 28103, Note_on_c, 0, 73, 71
1, 28103, Control_c, 0, 64, 119
1, 28118, Control_c, 0, 64, 122
1, 28125, Note_off_c, 0, 66, 60
1, 28133, Control_c, 0, 64, 127
1, 28162, Note_off_c, 0, 73, 62
1, 28164, Note_on_c, 0, 75, 68
1, 28232, Note_off_c, 0, 75, 62
1, 28234, Note_on_c, 0, 73, 71
1, 28296, Note_off_c, 0, 73, 63
1, 28300, Note_on_c, 0, 75, 61
1, 28367, Note_on_c, 0, 73, 67
1, 28370, Note_off_c, 0, 75, 61
1, 28429, Note_off_c, 0, 73, 61
1, 28436, Note_on_c, 0, 75, 61
1, 28508, Note_off_c, 0, 75, 61
1, 28509, Note_on_c, 0, 73, 67
1, 28577, Note_off_c, 0, 73, 61
1, 28588, Note_on_c, 0, 75, 60
1, 28597, Note_on_c, 0, 70, 74
1, 28636, Note_off_c, 0, 68, 56
1, 28665, Note_off_c, 0, 75, 61
1, 28685, Note_on_c, 0, 73, 61
1, 28729, Note_off_c, 0, 73, 59
1, 28751, Note_on_c, 0, 75, 58
1, 28811, Note_off_c, 0, 75, 62
1, 28826, Note_on_c, 0, 73, 73
1, 28879, Note_off_c, 0, 73, 60
1, 28887, Note_on_c, 0, 75, 66
1, 28906, Note_off_c, 0, 70, 58
1, 28941, Control_c, 0, 64, 90
1, 28956, Control_c, 0, 64, 59
1, 28959, Note_off_c, 0, 75, 64
1, 28971, Note_on_c, 0, 73, 71
1, 28971, Control_c, 0, 64, 0
1, 28987, Note_on_c, 0, 66, 94
1, 29016, Control_c, 0, 64, 11
1, 29025, Note_off_c, 0, 73, 61
1, 29031, Control_c, 0, 64, 63
1, 29033, Note_on_c, 0, 75, 65
1, 29045, Control_c, 0, 64, 70
1, 29060, Control_c, 0, 64, 76
1, 29075, Control_c, 0, 64, 81
1, 29089, Control_c, 0, 64, 85
1, 29104, Control_c, 0, 64, 88
1, 29107, Note_off_c, 0, 75, 63
1, 29111, Note_on_c, 0, 73, 76
1, 29119, Control_c, 0, 64, 92
1, 29134, Control_c, 0, 64, 95
1, 29149, Control_c, 0, 64, 98
1, 29162, Note_off_c, 0, 66, 60
1, 29163, Control_c, 0, 64, 101
1, 29172, Note_off_c, 0, 73, 62
1, 29178, Control_c, 0, 64, 104
1, 29181, Note_on_c, 0, 75, 63
1, 29193, Control_c, 0, 64, 107
1, 29207, Control_c, 0, 64, 107
1, 29222, Control_c, 0, 64, 104
1, 29227, Note_on_c, 0, 66, 99
1, 29233, Note_on_c, 0, 60, 76
1, 29237, Control_c, 0, 64, 89
1, 29247, Note_off_c, 0, 75, 64
1, 29251, Control_c, 0, 64, 73
1, 29258, Note_on_c, 0, 73, 72
1, 29266, Control_c, 0, 64, 67
1, 29281, Control_c, 0, 64, 73
1, 29296, Control_c, 0, 64, 79
1, 29311, Control_c, 0, 64, 88
1, 29317, Note_off_c, 0, 73, 62
1, 29326, Note_on_c, 0, 75, 67
1, 29326, Control_c, 0, 64, 98
1, 29341, Control_c, 0, 64, 109
1, 29355, Control_c, 0, 64, 121
1, 29370, Control_c, 0, 64, 127
1, 29391, Note_off_c, 0, 75, 64
1, 29414, Note_on_c, 0, 73, 71
1, 29455, Note_off_c, 0, 60, 62
1, 29466, Note_on_c, 0, 68, 92
1, 29467, Note_off_c, 0, 73, 60
1, 29472, Note_off_c, 0, 66, 62
1, 29477, Note_on_c, 0, 75, 66
1, 29545, Note_off_c, 0, 75, 63
1, 29560, Note_on_c, 0, 73, 77
1, 29600, Note_off_c, 0, 68, 62
1, 29607, Note_off_c, 0, 73, 60
1, 29618, Note_on_c, 0, 75, 61
1, 29681, Note_off_c, 0, 75, 63
1, 29699, Note_on_c, 0, 73, 72
1, 29719, Control_c, 0, 64, 85
1, 29734, Control_c, 0, 64, 46
1, 29735, Note_on_c, 0, 65, 74
1, 29735, Note_on_c, 0, 69, 90
1, 29746, Note_off_c, 0, 73, 57
1, 29748, Note_on_c, 0, 60, 65
1, 29749, Control_c, 0, 64, 0
1, 29763, Note_on_c, 0, 75, 70
1, 29793, Control_c, 0, 64, 38
1, 29808, Control_c, 0, 64, 67
1, 29823, Control_c, 0, 64, 76
1, 29829, Note_off_c, 0, 75, 64
1, 29837, Control_c, 0, 64, 85
1, 29841, Note_on_c, 0, 73, 80
1, 29852, Control_c, 0, 64, 95
1, 29867, Control_c, 0, 64, 104
1, 29875, Note_off_c, 0, 65, 63
1, 29882, Control_c, 0, 64, 127
1, 29884, Note_off_c, 0, 60, 63
1, 29892, Note_off_c, 0, 73, 59
1, 29898, Note_on_c, 0, 75, 67
1, 29957, Note_off_c, 0, 75, 65
1, 29961, Note_on_c, 0, 73, 78
1, 29990, Note_off_c, 0, 69, 61
1, 30020, Note_on_c, 0, 75, 75
1, 30020, Note_off_c, 0, 73, 62
1, 30082, Note_on_c, 0, 73, 77
1, 30082, Note_off_c, 0, 75, 64
1, 30134, Control_c, 0, 64, 100
1, 30136, Note_on_c, 0, 75, 70
1, 30136, Note_off_c, 0, 73, 63
1, 30149, Control_c, 0, 64, 70
1, 30172, Control_c, 0, 64, 0
1, 30174, Note_on_c, 0, 63, 80
1, 30175, Note_on_c, 0, 66, 89
1, 30181, Note_on_c, 0, 56, 65
1, 30205, Note_on_c, 0, 73, 75
1, 30209, Note_off_c, 0, 75, 63
1, 30216, Control_c, 0, 64, 52
1, 30231, Control_c, 0, 64, 65
1, 30245, Control_c, 0, 64, 72
1, 30260, Control_c, 0, 64, 79
1, 30262, Note_on_c, 0, 75, 62
1, 30262, Note_off_c, 0, 73, 64
1, 30275, Control_c, 0, 64, 85
1, 30291, Control_c, 0, 64, 89
1, 30306, Control_c, 0, 64, 93
1, 30321, Control_c, 0, 64, 98
1, 30323, Note_off_c, 0, 75, 63
1, 30324, Note_on_c, 0, 73, 68
1, 30335, Control_c, 0, 64, 104
1, 30350, Control_c, 0, 64, 111
1, 30365, Control_c, 0, 64, 118
1, 30373, Note_on_c, 0, 75, 60
1, 30377, Note_off_c, 0, 73, 62
1, 30380, Control_c, 0, 64, 127
1, 30405, Note_off_c, 0, 63, 55
1, 30434, Note_on_c, 0, 73, 67
1, 30437, Note_off_c, 0, 75, 63
1, 30473, Poly_aftertouch_c, 0, 75, 0
1, 30483, Note_on_c, 0, 75, 57
1, 30489, Note_off_c, 0, 73, 62
1, 30517, Note_off_c, 0, 66, 60
1, 30542, Note_on_c, 0, 73, 63
1, 30545, Note_off_c, 0, 75, 64
1, 30561, Note_off_c, 0, 56, 64
1, 30597, Note_on_c, 0, 75, 57
1, 30600, Note_off_c, 0, 73, 62
1, 30653, Note_on_c, 0, 73, 64
1, 30661, Note_off_c, 0, 75, 60
1, 30709, Note_on_c, 0, 75, 53
1, 30711, Note_off_c, 0, 73, 63
1, 30715, Note_on_c, 0, 65, 78
1, 30721, Control_c, 0, 64, 101
1, 30724, Note_on_c, 0, 61, 67
1, 30731, Note_on_c, 0, 57, 60
1, 30735, Control_c, 0, 64, 77
1, 30750, Control_c, 0, 64, 44
1, 30764, Control_c, 0, 64, 0
1, 30773, Note_off_c, 0, 75, 63
1, 30776, Note_on_c, 0, 73, 63
1, 30818, Note_off_c, 0, 73, 60
1, 30823, Control_c, 0, 64, 46
1, 30831, Note_on_c, 0, 75, 52
1, 30838, Control_c, 0, 64, 62
1, 30852, Control_c, 0, 64, 66
1, 30867, Control_c, 0, 64, 69
1, 30882, Control_c, 0, 64, 72
1, 30883, Note_off_c, 0, 75, 60
1, 30891, Note_on_c, 0, 73, 63
1, 30897, Control_c, 0, 64, 74
1, 30920, Control_c, 0, 64, 77
1, 30934, Control_c, 0, 64, 81
1, 30941, Note_off_c, 0, 73, 61
1, 30949, Note_on_c, 0, 75, 51
1, 30949, Control_c, 0, 64, 85
1, 30964, Control_c, 0, 64, 88
1, 30979, Control_c, 0, 64, 90
1, 30993, Control_c, 0, 64, 93
1, 31005, Note_off_c, 0, 75, 57
1, 31006, Note_on_c, 0, 73, 65
1, 31008, Control_c, 0, 64, 96
1, 31023, Control_c, 0, 64, 101
1, 31034, Poly_aftertouch_c, 0, 75, 0
1, 31038, Control_c, 0, 64, 105
1, 31050, Note_on_c, 0, 75, 40
1, 31052, Note_off_c, 0, 73, 58
1, 31053, Control_c, 0, 64, 109
1, 31067, Control_c, 0, 64, 113
1, 31083, Control_c, 0, 64, 119
1, 31096, Note_off_c, 0, 65, 33
1, 31098, Control_c, 0, 64, 127
1, 31107, Note_on_c, 0, 73, 56
1, 31126, Note_off_c, 0, 75, 0
1, 31150, Note_on_c, 0, 75, 41
1, 31158, Note_off_c, 0, 73, 61
1, 31162, Note_off_c, 0, 57, 36
1, 31215, Note_on_c, 0, 73, 52
1, 31215, Note_off_c, 0, 75, 60
1, 31230, Note_off_c, 0, 61, 23
1, 31252, Poly_aftertouch_c, 0, 75, 0
1, 31264, Note_off_c, 0, 73, 58
1, 31265, Note_on_c, 0, 75, 49
1, 31326, Note_off_c, 0, 75, 61
1, 31335, Note_on_c, 0, 73, 53
1, 31361, Poly_aftertouch_c, 0, 75, 0
1, 31374, Note_on_c, 0, 75, 40
1, 31376, Note_off_c, 0, 73, 55
1, 31427, Note_off_c, 0, 75, 56
1, 31433, Note_on_c, 0, 73, 54
1, 31476, Note_off_c, 0, 73, 58
1, 31480, Note_on_c, 0, 75, 37
1, 31540, Note_off_c, 0, 75, 53
1, 31545, Note_on_c, 0, 73, 53
1, 31585, Note_off_c, 0, 73, 56
1, 31587, Note_on_c, 0, 75, 40
1, 31658, Note_off_c, 0, 75, 50
1, 31663, Note_on_c, 0, 73, 50
1, 31702, Note_on_c, 0, 75, 43
1, 31706, Note_off_c, 0, 73, 50
1, 31761, Note_off_c, 0, 75, 59
1, 31782, Note_on_c, 0, 73, 49
1, 31817, Note_off_c, 0, 73, 54
1, 31826, Note_on_c, 0, 75, 51
1, 31862, Note_on_c, 0, 59, 42
1, 31865, Note_on_c, 0, 64, 46
1, 31869, Note_on_c, 0, 52, 49
1, 31874, Note_off_c, 0, 75, 59
1, 31907, Note_on_c, 0, 73, 53
1, 31920, Control_c, 0, 64, 112
1, 31934, Note_off_c, 0, 73, 58
1, 31935, Control_c, 0, 64, 94
1, 31950, Control_c, 0, 64, 76
1, 31951, Note_on_c, 0, 75, 45
1, 31965, Control_c, 0, 64, 55
1, 31979, Control_c, 0, 64, 0
1, 31990, Note_off_c, 0, 75, 63
1, 32013, Note_on_c, 0, 73, 59
1, 32041, Note_off_c, 0, 73, 58
1, 32068, Control_c, 0, 64, 52
1, 32070, Note_on_c, 0, 75, 54
1, 32083, Control_c, 0, 64, 61
1, 32097, Note_off_c, 0, 75, 61
1, 32098, Control_c, 0, 64, 64
1, 32113, Control_c, 0, 64, 66
1, 32126, Note_on_c, 0, 73, 58
1, 32128, Control_c, 0, 64, 68
1, 32143, Control_c, 0, 64, 69
1, 32157, Note_off_c, 0, 73, 62
1, 32157, Control_c, 0, 64, 71
1, 32172, Control_c, 0, 64, 73
1, 32177, Note_on_c, 0, 75, 57
1, 32187, Control_c, 0, 64, 75
1, 32202, Control_c, 0, 64, 77
1, 32211, Note_off_c, 0, 75, 61
1, 32217, Control_c, 0, 64, 79
1, 32237, Note_on_c, 0, 73, 61
1, 32246, Control_c, 0, 64, 80
1, 32261, Control_c, 0, 64, 81
1, 32266, Note_off_c, 0, 73, 66
1, 32276, Control_c, 0, 64, 84
1, 32291, Control_c, 0, 64, 85
1, 32295, Note_on_c, 0, 75, 52
1, 32305, Control_c, 0, 64, 86
1, 32328, Note_off_c, 0, 75, 61
1, 32350, Control_c, 0, 64, 87
1, 32351, Note_on_c, 0, 73, 61
1, 32365, Control_c, 0, 64, 88
1, 32376, Note_off_c, 0, 73, 64
1, 32379, Control_c, 0, 64, 89
1, 32421, Note_on_c, 0, 75, 54
1, 32448, Note_off_c, 0, 75, 59
1, 32481, Note_on_c, 0, 73, 57
1, 32504, Note_off_c, 0, 73, 61
1, 32530, Note_on_c, 0, 75, 57
1, 32571, Note_off_c, 0, 75, 59
1, 32596, Note_on_c, 0, 73, 56
1, 32624, Note_off_c, 0, 73, 58
1, 32671, Note_on_c, 0, 75, 43
1, 32703, Note_off_c, 0, 75, 57
1, 32716, Note_on_c, 0, 73, 54
1, 32739, Note_off_c, 0, 73, 61
1, 32783, Note_on_c, 0, 75, 41
1, 32788, Control_c, 0, 64, 88
1, 32813, Note_off_c, 0, 75, 53
1, 32819, Note_on_c, 0, 73, 68
1, 32832, Control_c, 0, 64, 88
1, 32852, Note_off_c, 0, 73, 63
1, 32873, Note_on_c, 0, 75, 60
1, 32906, Control_c, 0, 64, 87
1, 32936, Note_off_c, 0, 75, 53
1, 32950, Control_c, 0, 64, 87
1, 32965, Control_c, 0, 64, 86
1, 32968, Note_on_c, 0, 73, 60
1, 32980, Control_c, 0, 64, 84
1, 32995, Control_c, 0, 64, 78
1, 33010, Control_c, 0, 64, 65
1, 33025, Control_c, 0, 64, 0
1, 33144, Control_c, 0, 64, 43
1, 33166, Control_c, 0, 64, 54
1, 33181, Control_c, 0, 64, 59
1, 33196, Control_c, 0, 64, 62
1, 33210, Control_c, 0, 64, 63
1, 33225, Control_c, 0, 64, 64
1, 33240, Control_c, 0, 64, 65
1, 33246, Note_off_c, 0, 73, 54
1, 33252, Note_on_c, 0, 75, 47
1, 33254, Control_c, 0, 64, 67
1, 33269, Control_c, 0, 64, 69
1, 33284, Control_c, 0, 64, 71
1, 33299, Control_c, 0, 64, 72
1, 33314, Control_c, 0, 64, 73
1, 33329, Control_c, 0, 64, 74
1, 33342, Note_off_c, 0, 75, 57
1, 33344, Control_c, 0, 64, 76
1, 33359, Control_c, 0, 64, 78
1, 33374, Control_c, 0, 64, 79
1, 33377, Note_on_c, 0, 76, 52
1, 33388, Control_c, 0, 64, 80
1, 33403, Control_c, 0, 64, 82
1, 33418, Control_c, 0, 64, 83
1, 33433, Control_c, 0, 64, 85
1, 33448, Control_c, 0, 64, 86
1, 33462, Control_c, 0, 64, 87
1, 33478, Control_c, 0, 64, 88
1, 33491, Note_off_c, 0, 76, 61
1, 33493, Control_c, 0, 64, 89
1, 33508, Control_c, 0, 64, 90
1, 33519, Note_on_c, 0, 79, 51
1, 33523, Control_c, 0, 64, 92
1, 33538, Control_c, 0, 64, 93
1, 33552, Control_c, 0, 64, 94
1, 33567, Control_c, 0, 64, 95
1, 33576, Note_off_c, 0, 79, 53
1, 33582, Control_c, 0, 64, 96
1, 33597, Control_c, 0, 64, 97
1, 33612, Control_c, 0, 64, 98
1, 33622, Note_on_c, 0, 76, 45
1, 33626, Control_c, 0, 64, 99
1, 33641, Control_c, 0, 64, 101
1, 33648, Note_off_c, 0, 76, 58
1, 33656, Control_c, 0, 64, 102
1, 33664, Note_on_c, 0, 78, 58
1, 33671, Control_c, 0, 64, 103
1, 33685, Control_c, 0, 64, 105
1, 33700, Control_c, 0, 64, 107
1, 33715, Control_c, 0, 64, 109
1, 33730, Control_c, 0, 64, 113
1, 33734, Note_off_c, 0, 78, 61
1, 33745, Control_c, 0, 64, 115
1, 33757, Note_on_c, 0, 75, 55
1, 33759, Control_c, 0, 64, 118
1, 33774, Control_c, 0, 64, 124
1, 33789, Control_c, 0, 64, 127
1, 33800, Note_off_c, 0, 75, 59
1, 33812, Note_on_c, 0, 73, 67
1, 33869, Note_off_c, 0, 52, 33
1, 33885, Note_off_c, 0, 73, 61
1, 33886, Note_on_c, 0, 76, 47
1, 33893, Note_off_c, 0, 64, 37
1, 33919, Note_on_c, 0, 75, 63
1, 33949, Note_off_c, 0, 75, 64
1, 33955, Note_off_c, 0, 76, 57
1, 33958, Note_on_c, 0, 79, 70
1, 33987, Note_off_c, 0, 59, 36
1, 34019, Note_on_c, 0, 69, 63
1, 34020, Note_off_c, 0, 79, 58
1, 34077, Note_on_c, 0, 73, 60
1, 34085, Note_off_c, 0, 69, 61
1, 34101, Note_on_c, 0, 75, 51
1, 34114, Note_off_c, 0, 73, 63
1, 34134, Note_on_c, 0, 79, 67
1, 34134, Note_off_c, 0, 75, 66
1, 34140, Note_on_c, 0, 76, 30
1, 34177, Note_off_c, 0, 76, 47
1, 34199, Note_off_c, 0, 79, 60
1, 34211, Note_on_c, 0, 75, 61
1, 34226, Control_c, 0, 64, 109
1, 34234, Note_on_c, 0, 68, 80
1, 34234, Note_on_c, 0, 69, 85
1, 34238, Note_on_c, 0, 63, 78
1, 34241, Control_c, 0, 64, 91
1, 34243, Note_on_c, 0, 76, 61
1, 34256, Control_c, 0, 64, 87
1, 34261, Note_on_c, 0, 78, 81
1, 34267, Note_off_c, 0, 75, 55
1, 34271, Control_c, 0, 64, 88
1, 34278, Note_off_c, 0, 68, 62
1, 34279, Note_off_c, 0, 76, 62
1, 34286, Control_c, 0, 64, 91
1, 34291, Note_off_c, 0, 69, 63
1, 34301, Control_c, 0, 64, 97
1, 34316, Control_c, 0, 64, 106
1, 34328, Note_on_c, 0, 69, 58
1, 34331, Control_c, 0, 64, 126
1, 34344, Note_off_c, 0, 78, 62
1, 34345, Control_c, 0, 64, 127
1, 34388, Note_on_c, 0, 73, 70
1, 34420, Note_off_c, 0, 69, 58
1, 34422, Note_on_c, 0, 75, 62
1, 34453, Note_off_c, 0, 73, 62
1, 34465, Note_on_c, 0, 76, 57
1, 34480, Note_off_c, 0, 75, 63
1, 34482, Note_on_c, 0, 79, 73
1, 34495, Note_off_c, 0, 76, 63
1, 34546, Note_off_c, 0, 79, 61
1, 34548, Note_off_c, 0, 63, 53
1, 34563, Note_on_c, 0, 75, 55
1, 34569, Note_on_c, 0, 68, 95
1, 34583, Note_on_c, 0, 65, 75
1, 34587, Note_on_c, 0, 76, 63
1, 34608, Note_off_c, 0, 65, 68
1, 34611, Note_off_c, 0, 75, 60
1, 34613, Note_off_c, 0, 68, 62
1, 34619, Note_on_c, 0, 78, 73
1, 34650, Note_off_c, 0, 76, 58
1, 34688, Note_on_c, 0, 69, 65
1, 34696, Note_off_c, 0, 78, 59
1, 34738, Control_c, 0, 64, 94
1, 34753, Control_c, 0, 64, 72
1, 34754, Note_on_c, 0, 73, 66
1, 34768, Control_c, 0, 64, 66
1, 34770, Note_on_c, 0, 56, 91
1, 34770, Note_on_c, 0, 68, 94
1, 34772, Note_off_c, 0, 69, 61
1, 34782, Control_c, 0, 64, 73
1, 34790, Note_on_c, 0, 75, 57
1, 34797, Control_c, 0, 64, 80
1, 34798, Note_off_c, 0, 68, 64
1, 34802, Note_on_c, 0, 66, 41
1, 34810, Note_off_c, 0, 73, 61
1, 34812, Control_c, 0, 64, 89
1, 34816, Note_on_c, 0, 76, 48
1, 34819, Note_off_c, 0, 56, 63
1, 34820, Note_off_c, 0, 75, 66
1, 34826, Note_on_c, 0, 79, 71
1, 34826, Control_c, 0, 64, 106
1, 34832, Note_off_c, 0, 66, 57
1, 34841, Control_c, 0, 64, 127
1, 34843, Note_off_c, 0, 76, 57
1, 34883, Poly_aftertouch_c, 0, 63, 0
1, 34897, Note_off_c, 0, 79, 60
1, 34903, Note_on_c, 0, 75, 58
1, 34920, Note_on_c, 0, 76, 60
1, 34948, Note_off_c, 0, 75, 62
1, 34961, Note_on_c, 0, 78, 71
1, 34980, Note_off_c, 0, 76, 61
1, 35005, Note_on_c, 0, 64, 92
1, 35010, Note_on_c, 0, 59, 85
1, 35020, Note_on_c, 0, 69, 71
1, 35025, Note_off_c, 0, 78, 60
1, 35026, Note_off_c, 0, 64, 69
1, 35034, Control_c, 0, 64, 97
1, 35038, Note_off_c, 0, 59, 61
1, 35049, Control_c, 0, 64, 67
1, 35064, Control_c, 0, 64, 31
1, 35072, Note_on_c, 0, 63, 101
1, 35074, Note_on_c, 0, 59, 79
1, 35079, Control_c, 0, 64, 65
1, 35094, Control_c, 0, 64, 71
1, 35100, Note_on_c, 0, 75, 72
1, 35109, Note_on_c, 0, 72, 44
1, 35109, Control_c, 0, 64, 80
1, 35110, Note_off_c, 0, 69, 57
1, 35123, Control_c, 0, 64, 96
1, 35126, Note_on_c, 0, 76, 57
1, 35135, Note_off_c, 0, 72, 56
1, 35138, Control_c, 0, 64, 127
1, 35140, Note_on_c, 0, 79, 66
1, 35150, Note_off_c, 0, 76, 62
1, 35156, Note_off_c, 0, 75, 63
1, 35198, Note_off_c, 0, 63, 62
1, 35207, Note_on_c, 0, 75, 67
1, 35216, Note_off_c, 0, 79, 62
1, 35218, Note_off_c, 0, 59, 52
1, 35224, Poly_aftertouch_c, 0, 77, 127
1, 35234, Note_on_c, 0, 76, 69
1, 35249, Note_on_c, 0, 77, 35
1, 35268, Note_on_c, 0, 78, 75
1, 35271, Note_off_c, 0, 75, 61
1, 35296, Note_off_c, 0, 76, 59
1, 35299, Note_on_c, 0, 50, 90
1, 35311, Note_off_c, 0, 77, 46
1, 35319, Note_on_c, 0, 69, 72
1, 35327, Note_on_c, 0, 58, 50
1, 35329, Note_on_c, 0, 59, 82
1, 35331, Control_c, 0, 64, 87
1, 35346, Control_c, 0, 64, 0
1, 35353, Note_off_c, 0, 78, 60
1, 35356, Note_off_c, 0, 58, 57
1, 35361, Note_on_c, 0, 63, 100
1, 35374, Note_off_c, 0, 50, 48
1, 35391, Note_on_c, 0, 73, 73
1, 35391, Control_c, 0, 64, 55
1, 35404, Note_on_c, 0, 52, 12
1, 35413, Control_c, 0, 64, 68
1, 35414, Note_on_c, 0, 75, 70
1, 35424, Note_off_c, 0, 69, 57
1, 35428, Control_c, 0, 64, 78
1, 35442, Control_c, 0, 64, 90
1, 35457, Control_c, 0, 64, 103
1, 35468, Note_off_c, 0, 73, 61
1, 35472, Control_c, 0, 64, 109
1, 35480, Note_off_c, 0, 59, 51
1, 35481, Note_on_c, 0, 79, 78
1, 35486, Note_off_c, 0, 75, 63
1, 35487, Control_c, 0, 64, 114
1, 35492, Note_off_c, 0, 52, 33
1, 35502, Control_c, 0, 64, 115
1, 35502, Note_off_c, 0, 63, 57
1, 35517, Control_c, 0, 64, 119
1, 35531, Control_c, 0, 64, 127
1, 35560, Note_on_c, 0, 75, 51
1, 35562, Note_off_c, 0, 79, 61
1, 35570, Note_on_c, 0, 76, 73
1, 35597, Note_on_c, 0, 62, 98
1, 35597, Note_off_c, 0, 75, 65
1, 35600, Note_on_c, 0, 78, 71
1, 35603, Note_on_c, 0, 56, 92
1, 35620, Control_c, 0, 64, 107
1, 35625, Note_off_c, 0, 76, 63
1, 35631, Note_off_c, 0, 62, 64
1, 35634, Note_on_c, 0, 69, 70
1, 35635, Control_c, 0, 64, 84
1, 35639, Note_off_c, 0, 56, 56
1, 35649, Control_c, 0, 64, 75
1, 35664, Control_c, 0, 64, 80
1, 35665, Note_off_c, 0, 78, 61
1, 35678, Note_on_c, 0, 62, 96
1, 35679, Note_on_c, 0, 56, 86
1, 35679, Control_c, 0, 64, 90
1, 35691, Note_on_c, 0, 73, 75
1, 35694, Control_c, 0, 64, 99
1, 35709, Control_c, 0, 64, 109
1, 35720, Note_off_c, 0, 69, 59
1, 35720, Note_on_c, 0, 75, 64
1, 35723, Control_c, 0, 64, 127
1, 35752, Note_off_c, 0, 73, 62
1, 35773, Note_off_c, 0, 62, 55
1, 35777, Note_on_c, 0, 79, 82
1, 35782, Note_off_c, 0, 75, 62
1, 35845, Note_on_c, 0, 75, 61
1, 35863, Note_on_c, 0, 76, 77
1, 35870, Note_off_c, 0, 79, 57
1, 35886, Note_on_c, 0, 49, 98
1, 35896, Note_off_c, 0, 56, 60
1, 35896, Note_off_c, 0, 75, 64
1, 35902, Control_c, 0, 64, 94
1, 35906, Note_on_c, 0, 78, 71
1, 35917, Control_c, 0, 64, 69
1, 35919, Note_on_c, 0, 69, 70
1, 35924, Note_off_c, 0, 76, 63
1, 35932, Control_c, 0, 64, 60
1, 35946, Control_c, 0, 64, 68
1, 35961, Control_c, 0, 64, 74
1, 35975, Note_off_c, 0, 78, 61
1, 35976, Control_c, 0, 64, 80
1, 35991, Control_c, 0, 64, 90
1, 36006, Control_c, 0, 64, 103
1, 36009, Note_on_c, 0, 73, 66
1, 36018, Note_on_c, 0, 75, 68
1, 36018, Note_off_c, 0, 69, 61
1, 36021, Control_c, 0, 64, 119
1, 36036, Control_c, 0, 64, 127
1, 36071, Note_on_c, 0, 56, 89
1, 36075, Note_off_c, 0, 73, 62
1, 36080, Note_on_c, 0, 79, 87
1, 36082, Note_on_c, 0, 62, 95
1, 36082, Note_off_c, 0, 49, 62
1, 36093, Note_off_c, 0, 75, 63
1, 36172, Note_on_c, 0, 75, 54
1, 36184, Note_on_c, 0, 69, 54
1, 36184, Note_off_c, 0, 62, 56
1, 36188, Note_off_c, 0, 79, 51
1, 36198, Note_on_c, 0, 76, 55
1, 36208, Note_off_c, 0, 69, 56
1, 36209, Note_on_c, 0, 78, 76
1, 36214, Note_off_c, 0, 56, 62
1, 36241, Note_off_c, 0, 75, 60
1, 36265, Note_off_c, 0, 76, 61
1, 36276, Note_on_c, 0, 69, 75
1, 36295, Control_c, 0, 64, 79
1, 36303, Note_on_c, 0, 53, 97
1, 36307, Note_on_c, 0, 57, 98
1, 36310, Control_c, 0, 64, 0
1, 36323, Note_off_c, 0, 78, 62
1, 36357, Note_on_c, 0, 73, 69
1, 36369, Control_c, 0, 64, 55
1, 36375, Note_off_c, 0, 69, 60
1, 36384, Control_c, 0, 64, 69
1, 36398, Control_c, 0, 64, 80
1, 36405, Note_on_c, 0, 75, 68
1, 36413, Control_c, 0, 64, 93
1, 36422, Note_off_c, 0, 73, 59
1, 36428, Control_c, 0, 64, 107
1, 36443, Control_c, 0, 64, 127
1, 36466, Note_on_c, 0, 73, 67
1, 36477, Note_off_c, 0, 75, 62
1, 36513, Note_off_c, 0, 57, 59
1, 36539, Note_on_c, 0, 75, 58
1, 36541, Note_off_c, 0, 73, 62
1, 36545, Note_off_c, 0, 53, 61
1, 36576, Control_c, 0, 64, 106
1, 36586, Note_on_c, 0, 56, 97
1, 36591, Control_c, 0, 64, 70
1, 36594, Note_on_c, 0, 60, 92
1, 36605, Control_c, 0, 64, 0
1, 36606, Note_on_c, 0, 73, 70
1, 36610, Note_off_c, 0, 75, 63
1, 36617, Note_on_c, 0, 57, 58
1, 36620, Control_c, 0, 64, 54
1, 36635, Control_c, 0, 64, 67
1, 36650, Control_c, 0, 64, 73
1, 36659, Note_off_c, 0, 57, 43
1, 36665, Control_c, 0, 64, 81
1, 36672, Note_on_c, 0, 75, 68
1, 36677, Note_off_c, 0, 73, 61
1, 36681, Control_c, 0, 64, 95
1, 36695, Control_c, 0, 64, 110
1, 36710, Control_c, 0, 64, 127
1, 36747, Note_off_c, 0, 75, 64
1, 36754, Note_on_c, 0, 73, 66
1, 36778, Note_off_c, 0, 60, 59
1, 36803, Note_off_c, 0, 73, 60
1, 36808, Note_off_c, 0, 56, 63
1, 36813, Note_on_c, 0, 75, 64
1, 36857, Note_on_c, 0, 59, 89
1, 36876, Note_off_c, 0, 75, 63
1, 36897, Note_on_c, 0, 73, 66
1, 36898, Note_off_c, 0, 59, 63
1, 36910, Control_c, 0, 64, 83
1, 36925, Control_c, 0, 64, 66
1, 36932, Note_off_c, 0, 73, 63
1, 36936, Note_on_c, 0, 59, 91
1, 36940, Control_c, 0, 64, 69
1, 36942, Note_on_c, 0, 75, 61
1, 36955, Control_c, 0, 64, 77
1, 36967, Note_on_c, 0, 57, 43
1, 36969, Control_c, 0, 64, 83
1, 36984, Control_c, 0, 64, 92
1, 36992, Note_off_c, 0, 57, 58
1, 36999, Control_c, 0, 64, 109
1, 37001, Note_off_c, 0, 75, 64
1, 37014, Control_c, 0, 64, 127
1, 37017, Note_on_c, 0, 73, 68
1, 37055, Note_off_c, 0, 73, 61
1, 37057, Note_off_c, 0, 59, 59
1, 37061, Note_on_c, 0, 75, 63
1, 37119, Note_off_c, 0, 75, 63
1, 37127, Note_on_c, 0, 73, 66
1, 37148, Control_c, 0, 64, 97
1, 37161, Note_on_c, 0, 60, 97
1, 37162, Note_on_c, 0, 56, 95
1, 37162, Control_c, 0, 64, 65
1, 37163, Note_off_c, 0, 73, 64
1, 37166, Note_on_c, 0, 50, 84
1, 37171, Note_on_c, 0, 75, 56
1, 37177, Control_c, 0, 64, 0
1, 37207, Control_c, 0, 64, 63
1, 37221, Control_c, 0, 64, 70
1, 37236, Control_c, 0, 64, 82
1, 37245, Note_off_c, 0, 75, 63
1, 37251, Control_c, 0, 64, 101
1, 37265, Note_on_c, 0, 73, 66
1, 37266, Control_c, 0, 64, 127
1, 37285, Note_on_c, 0, 55, 87
1, 37306, Note_off_c, 0, 60, 62
1, 37314, Note_on_c, 0, 75, 65
1, 37314, Note_off_c, 0, 56, 65
1, 37323, Note_off_c, 0, 50, 63
1, 37335, Note_off_c, 0, 73, 59
1, 37344, Note_off_c, 0, 75, 62
1, 37347, Note_off_c, 0, 55, 65
1, 37399, Control_c, 0, 64, 83
1, 37409, Note_on_c, 0, 55, 100
1, 37414, Note_on_c, 0, 73, 100
1, 37414, Control_c, 0, 64, 0
1, 37494, Note_on_c, 0, 70, 54
1, 37500, Note_on_c, 0, 61, 79
1, 37504, Control_c, 0, 64, 60
1, 37505, Note_off_c, 0, 73, 61
1, 37518, Control_c, 0, 64, 69
1, 37530, Note_off_c, 0, 70, 62
1, 37533, Control_c, 0, 64, 74
1, 37548, Control_c, 0, 64, 78
1, 37563, Control_c, 0, 64, 83
1, 37565, Note_off_c, 0, 61, 63
1, 37578, Control_c, 0, 64, 90
1, 37581, Note_on_c, 0, 64, 63
1, 37591, Note_on_c, 0, 53, 89
1, 37592, Control_c, 0, 64, 95
1, 37595, Note_on_c, 0, 60, 86
1, 37607, Control_c, 0, 64, 99
1, 37622, Control_c, 0, 64, 101
1, 37624, Note_on_c, 0, 61, 82
1, 37625, Note_off_c, 0, 55, 62
1, 37637, Control_c, 0, 64, 104
1, 37639, Note_off_c, 0, 64, 62
1, 37659, Control_c, 0, 64, 108
1, 37674, Control_c, 0, 64, 117
1, 37689, Control_c, 0, 64, 127
1, 37690, Note_off_c, 0, 61, 63
1, 37718, Note_on_c, 0, 68, 89
1, 37754, Note_off_c, 0, 68, 62
1, 37815, Note_on_c, 0, 72, 98
1, 37842, Note_off_c, 0, 60, 60
1, 37899, Note_on_c, 0, 73, 100
1, 37900, Note_off_c, 0, 72, 62
1, 37920, Note_off_c, 0, 53, 62
1, 37953, Note_off_c, 0, 73, 67
1, 38145, Note_on_c, 0, 87, 104
1, 38180, Note_off_c, 0, 87, 71
1, 38645, Control_c, 0, 64, 91
1, 38660, Control_c, 0, 64, 67
1, 38674, Control_c, 0, 64, 0
1, 39541, Note_on_c, 0, 56, 101
1, 39586, Control_c, 0, 64, 70
1, 39601, Control_c, 0, 64, 92
1, 39616, Control_c, 0, 64, 127
1, 39726, Note_off_c, 0, 56, 67
1, 39814, Note_on_c, 0, 59, 103
1, 39815, Note_on_c, 0, 57, 92
1, 39818, Note_on_c, 0, 68, 97
1, 39913, Poly_aftertouch_c, 0, 66, 127
1, 39942, Poly_aftertouch_c, 0, 66, 0
1, 39976, Note_off_c, 0, 57, 51
1, 40002, Note_off_c, 0, 59, 0
1, 40010, Note_on_c, 0, 62, 96
1, 40014, Note_on_c, 0, 60, 95
1, 40036, Poly_aftertouch_c, 0, 59, 0
1, 40045, Note_off_c, 0, 62, 67
1, 40067, Note_off_c, 0, 60, 65
1, 40118, Note_off_c, 0, 68, 55
1, 40146, Note_on_c, 0, 59, 75
1, 40149, Note_on_c, 0, 52, 91
1, 40158, Note_on_c, 0, 57, 64
1, 40170, Note_off_c, 0, 59, 65
1, 40176, Note_off_c, 0, 57, 66
1, 40176, Note_off_c, 0, 52, 66
1, 40291, Control_c, 0, 64, 79
1, 40302, Note_on_c, 0, 45, 95
1, 40306, Control_c, 0, 64, 0
1, 40312, Note_on_c, 0, 36, 67
1, 40316, Note_on_c, 0, 59, 94
1, 40319, Note_on_c, 0, 38, 70
1, 40323, Note_off_c, 0, 45, 73
1, 40332, Note_on_c, 0, 44, 35
1, 40333, Note_off_c, 0, 44, 127
1, 40335, Control_c, 0, 64, 57
1, 40339, Note_on_c, 0, 43, 38
1, 40340, Note_off_c, 0, 36, 63
1, 40346, Note_off_c, 0, 38, 65
1, 40350, Control_c, 0, 64, 72
1, 40351, Note_on_c, 0, 50, 80
1, 40364, Control_c, 0, 64, 89
1, 40373, Note_off_c, 0, 50, 69
1, 40379, Note_off_c, 0, 43, 35
1, 40379, Control_c, 0, 64, 127
1, 40394, Note_on_c, 0, 52, 94
1, 40414, Note_on_c, 0, 57, 29
1, 40432, Note_off_c, 0, 59, 47
1, 40437, Note_off_c, 0, 52, 67
1, 40453, Note_off_c, 0, 57, 48
1, 40602, Control_c, 0, 64, 122
1, 40617, Control_c, 0, 64, 64
1, 40632, Control_c, 0, 64, 0
1, 40644, Note_on_c, 0, 49, 97
1, 40743, Control_c, 0, 64, 39
1, 40758, Control_c, 0, 64, 66
1, 40773, Control_c, 0, 64, 72
1, 40787, Control_c, 0, 64, 79
1, 40802, Control_c, 0, 64, 90
1, 40817, Control_c, 0, 64, 103
1, 40832, Control_c, 0, 64, 114
1, 40843, Note_on_c, 0, 54, 60
1, 40847, Control_c, 0, 64, 127
1, 40881, Note_off_c, 0, 49, 60
1, 40889, Note_off_c, 0, 54, 61
1, 40900, Note_on_c, 0, 59, 70
1, 40958, Note_off_c, 0, 59, 52
1, 40984, Note_on_c, 0, 61, 74
1, 41045, Note_on_c, 0, 63, 80
1, 41073, Note_off_c, 0, 61, 61
1, 41106, Note_on_c, 0, 64, 80
1, 41109, Note_off_c, 0, 63, 61
1, 41131, Note_off_c, 0, 64, 69
1, 41184, Note_on_c, 0, 71, 48
1, 41195, Note_on_c, 0, 69, 56
1, 41213, Note_on_c, 0, 78, 62
1, 41224, Note_off_c, 0, 69, 63
1, 41246, Note_off_c, 0, 71, 63
1, 41248, Note_on_c, 0, 80, 63
1, 41267, Note_on_c, 0, 81, 68
1, 41273, Note_off_c, 0, 78, 62
1, 41295, Note_on_c, 0, 83, 58
1, 41300, Note_off_c, 0, 80, 63
1, 41324, Note_off_c, 0, 81, 56
1, 41339, Note_off_c, 0, 83, 60
1, 41380, Note_on_c, 0, 80, 91
1, 41395, Note_on_c, 0, 76, 77
1, 41404, Note_off_c, 0, 80, 68
1, 41418, Note_off_c, 0, 76, 66
1, 41445, Note_on_c, 0, 80, 80
1, 41458, Note_on_c, 0, 76, 86
1, 41464, Note_on_c, 0, 77, 63
1, 41465, Note_on_c, 0, 83, 78
1, 41479, Note_off_c, 0, 76, 71
1, 41485, Note_off_c, 0, 80, 61
1, 41485, Note_off_c, 0, 77, 66
1, 41497, Note_on_c, 0, 81, 64
1, 41538, Note_on_c, 0, 80, 68
1, 41566, Note_off_c, 0, 83, 62
1, 41568, Note_off_c, 0, 81, 63
1, 41571, Note_on_c, 0, 78, 69
1, 41611, Note_on_c, 0, 71, 48
1, 41615, Note_on_c, 0, 69, 53
1, 41616, Note_off_c, 0, 80, 61
1, 41628, Note_off_c, 0, 78, 61
1, 41635, Note_off_c, 0, 71, 61
1, 41640, Note_off_c, 0, 69, 59
1, 41693, Note_on_c, 0, 71, 61
1, 41699, Note_on_c, 0, 69, 77
1, 41729, Note_on_c, 0, 78, 71
1, 41747, Note_on_c, 0, 80, 62
1, 41753, Note_off_c, 0, 69, 59
1, 41771, Note_off_c, 0, 71, 63
1, 41786, Note_on_c, 0, 81, 68
1, 41801, Note_off_c, 0, 78, 62
1, 41804, Note_on_c, 0, 83, 71
1, 41830, Note_off_c, 0, 80, 0
1, 41837, Note_off_c, 0, 81, 58
1, 41841, Note_on_c, 0, 80, 64
1, 41845, Note_on_c, 0, 76, 83
1, 41854, Note_off_c, 0, 83, 61
1, 41865, Note_off_c, 0, 80, 66
1, 41866, Note_off_c, 0, 76, 71
1, 41897, Note_on_c, 0, 80, 105
1, 41904, Note_on_c, 0, 76, 92
1, 41920, Note_on_c, 0, 83, 90
1, 41932, Note_off_c, 0, 80, 70
1, 41942, Note_off_c, 0, 76, 61
1, 41947, Note_on_c, 0, 81, 71
1, 41982, Note_on_c, 0, 80, 79
1, 42002, Note_off_c, 0, 83, 62
1, 42006, Note_on_c, 0, 78, 73
1, 42008, Note_off_c, 0, 81, 62
1, 42030, Note_on_c, 0, 71, 73
1, 42034, Note_on_c, 0, 69, 78
1, 42051, Note_off_c, 0, 80, 61
1, 42055, Note_off_c, 0, 71, 69
1, 42057, Note_off_c, 0, 69, 70
1, 42060, Note_off_c, 0, 78, 60
1, 42120, Note_on_c, 0, 71, 77
1, 42121, Note_on_c, 0, 69, 75
1, 42154, Note_on_c, 0, 78, 72
1, 42179, Note_on_c, 0, 80, 74
1, 42183, Note_off_c, 0, 69, 56
1, 42201, Note_off_c, 0, 71, 60
1, 42211, Note_on_c, 0, 81, 63
1, 42215, Note_on_c, 0, 83, 84
1, 42218, Note_off_c, 0, 78, 64
1, 42235, Note_off_c, 0, 81, 69
1, 42239, Note_off_c, 0, 80, 65
1, 42243, Note_off_c, 0, 83, 62
1, 42297, Note_on_c, 0, 83, 95
1, 42313, Note_on_c, 0, 81, 88
1, 42349, Note_on_c, 0, 80, 78
1, 42370, Note_off_c, 0, 83, 62
1, 42391, Note_on_c, 0, 77, 55
1, 42397, Note_on_c, 0, 69, 76
1, 42402, Note_on_c, 0, 71, 69
1, 42407, Note_off_c, 0, 81, 61
1, 42408, Note_off_c, 0, 80, 65
1, 42413, Note_on_c, 0, 76, 30
1, 42413, Note_off_c, 0, 77, 64
1, 42420, Note_off_c, 0, 69, 67
1, 42424, Note_off_c, 0, 71, 69
1, 42448, Note_off_c, 0, 76, 52
1, 42492, Note_on_c, 0, 71, 70
1, 42494, Note_on_c, 0, 69, 78
1, 42513, Note_on_c, 0, 78, 70
1, 42519, Note_on_c, 0, 80, 62
1, 42525, Note_off_c, 0, 69, 51
1, 42549, Note_off_c, 0, 71, 56
1, 42558, Note_on_c, 0, 81, 66
1, 42562, Note_on_c, 0, 83, 82
1, 42562, Note_off_c, 0, 78, 64
1, 42578, Note_off_c, 0, 80, 65
1, 42591, Note_off_c, 0, 81, 62
1, 42612, Note_off_c, 0, 83, 65
1, 42619, Note_on_c, 0, 80, 83
1, 42627, Note_on_c, 0, 78, 66
1, 42628, Note_on_c, 0, 76, 76
1, 42638, Note_off_c, 0, 80, 70
1, 42644, Note_off_c, 0, 76, 69
1, 42647, Note_off_c, 0, 78, 67
1, 42679, Note_on_c, 0, 80, 90
1, 42687, Note_on_c, 0, 76, 93
1, 42687, Note_on_c, 0, 78, 98
1, 42690, Note_on_c, 0, 83, 96
1, 42713, Note_on_c, 0, 81, 76
1, 42719, Note_off_c, 0, 80, 69
1, 42723, Note_off_c, 0, 76, 54
1, 42725, Note_off_c, 0, 78, 67
1, 42758, Note_on_c, 0, 80, 63
1, 42767, Note_on_c, 0, 78, 78
1, 42772, Note_off_c, 0, 83, 60
1, 42787, Note_off_c, 0, 81, 62
1, 42800, Note_on_c, 0, 71, 84
1, 42814, Note_on_c, 0, 69, 77
1, 42829, Note_off_c, 0, 71, 61
1, 42829, Note_off_c, 0, 80, 62
1, 42831, Note_off_c, 0, 69, 66
1, 42832, Note_off_c, 0, 78, 63
1, 42900, Note_on_c, 0, 71, 83
1, 42901, Note_on_c, 0, 69, 64
1, 42923, Note_on_c, 0, 78, 77
1, 42940, Note_on_c, 0, 80, 75
1, 42942, Note_off_c, 0, 69, 58
1, 42954, Note_off_c, 0, 71, 63
1, 42966, Note_on_c, 0, 81, 70
1, 42974, Note_on_c, 0, 83, 88
1, 42978, Note_off_c, 0, 78, 63
1, 42990, Note_off_c, 0, 81, 69
1, 42994, Note_off_c, 0, 80, 64
1, 43011, Note_off_c, 0, 83, 66
1, 43058, Note_on_c, 0, 83, 95
1, 43081, Note_on_c, 0, 81, 83
1, 43109, Note_on_c, 0, 80, 78
1, 43130, Note_off_c, 0, 83, 65
1, 43141, Note_on_c, 0, 78, 75
1, 43148, Note_off_c, 0, 81, 58
1, 43160, Note_on_c, 0, 69, 81
1, 43160, Note_on_c, 0, 71, 68
1, 43179, Note_off_c, 0, 78, 55
1, 43181, Note_off_c, 0, 71, 72
1, 43182, Note_off_c, 0, 69, 69
1, 43182, Note_off_c, 0, 80, 62
1, 43260, Note_on_c, 0, 71, 70
1, 43262, Note_on_c, 0, 69, 74
1, 43280, Note_on_c, 0, 78, 64
1, 43288, Note_off_c, 0, 69, 63
1, 43303, Note_on_c, 0, 80, 61
1, 43303, Note_off_c, 0, 71, 63
1, 43324, Note_on_c, 0, 83, 88
1, 43328, Note_off_c, 0, 78, 60
1, 43330, Note_on_c, 0, 81, 61
1, 43336, Note_off_c, 0, 80, 64
1, 43355, Note_off_c, 0, 81, 66
1, 43370, Note_off_c, 0, 83, 64
1, 43411, Note_on_c, 0, 83, 77
1, 43428, Note_on_c, 0, 81, 74
1, 43467, Note_off_c, 0, 83, 60
1, 43468, Note_on_c, 0, 80, 61
1, 43487, Note_off_c, 0, 81, 62
1, 43498, Note_on_c, 0, 78, 52
1, 43514, Note_on_c, 0, 69, 61
1, 43517, Note_on_c, 0, 71, 48
1, 43521, Note_off_c, 0, 80, 60
1, 43522, Note_off_c, 0, 78, 60
1, 43532, Note_off_c, 0, 69, 64
1, 43542, Note_off_c, 0, 71, 58
1, 43614, Note_on_c, 0, 71, 61
1, 43640, Note_on_c, 0, 69, 7
1, 43653, Note_off_c, 0, 71, 66
1, 43682, Note_on_c, 0, 83, 63
1, 43690, Note_off_c, 0, 69, 39
1, 43708, Note_off_c, 0, 83, 68
1, 43726, Note_on_c, 0, 80, 84
1, 43729, Note_on_c, 0, 78, 79
1, 43733, Note_on_c, 0, 76, 76
1, 43747, Note_off_c, 0, 80, 67
1, 43749, Note_off_c, 0, 76, 69
1, 43750, Note_off_c, 0, 78, 71
1, 43762, Poly_aftertouch_c, 0, 81, 0
1, 43783, Note_on_c, 0, 80, 91
1, 43787, Note_on_c, 0, 83, 90
1, 43790, Note_on_c, 0, 78, 87
1, 43796, Note_on_c, 0, 76, 90
1, 43815, Note_off_c, 0, 76, 70
1, 43819, Note_on_c, 0, 81, 65
1, 43820, Note_off_c, 0, 80, 68
1, 43826, Note_off_c, 0, 78, 67
1, 43851, Note_on_c, 0, 80, 69
1, 43874, Note_off_c, 0, 83, 62
1, 43883, Note_on_c, 0, 78, 73
1, 43888, Note_off_c, 0, 81, 59
1, 43901, Note_on_c, 0, 71, 61
1, 43912, Note_on_c, 0, 69, 62
1, 43919, Note_off_c, 0, 71, 68
1, 43932, Note_off_c, 0, 69, 63
1, 43932, Note_off_c, 0, 80, 61
1, 43940, Note_off_c, 0, 78, 61
1, 43985, Note_on_c, 0, 71, 58
1, 43988, Note_on_c, 0, 69, 84
1, 44018, Note_on_c, 0, 78, 68
1, 44032, Note_on_c, 0, 80, 76
1, 44040, Note_off_c, 0, 69, 58
1, 44055, Note_off_c, 0, 71, 64
1, 44058, Note_on_c, 0, 81, 67
1, 44063, Note_on_c, 0, 83, 84
1, 44070, Note_off_c, 0, 78, 61
1, 44084, Note_off_c, 0, 81, 66
1, 44088, Note_off_c, 0, 80, 63
1, 44105, Note_off_c, 0, 83, 65
1, 44155, Note_on_c, 0, 80, 105
1, 44157, Note_on_c, 0, 76, 96
1, 44157, Note_on_c, 0, 78, 100
1, 44161, Note_on_c, 0, 83, 98
1, 44176, Note_off_c, 0, 76, 68
1, 44179, Note_on_c, 0, 81, 78
1, 44182, Note_off_c, 0, 80, 70
1, 44189, Note_off_c, 0, 78, 62
1, 44214, Note_on_c, 0, 80, 75
1, 44243, Note_on_c, 0, 78, 71
1, 44266, Note_off_c, 0, 83, 51
1, 44270, Note_on_c, 0, 71, 64
1, 44272, Note_off_c, 0, 81, 61
1, 44281, Note_on_c, 0, 69, 65
1, 44289, Note_off_c, 0, 71, 66
1, 44293, Note_off_c, 0, 80, 62
1, 44295, Note_off_c, 0, 78, 63
1, 44296, Note_off_c, 0, 69, 70
1, 44352, Note_on_c, 0, 69, 70
1, 44355, Note_on_c, 0, 71, 79
1, 44398, Note_on_c, 0, 78, 75
1, 44403, Note_on_c, 0, 80, 75
1, 44419, Note_off_c, 0, 69, 59
1, 44427, Note_off_c, 0, 71, 62
1, 44434, Note_on_c, 0, 81, 63
1, 44437, Note_on_c, 0, 83, 82
1, 44454, Note_off_c, 0, 78, 61
1, 44463, Note_off_c, 0, 81, 65
1, 44470, Note_on_c, 0, 78, 73
1, 44479, Note_on_c, 0, 76, 88
1, 44484, Note_off_c, 0, 83, 64
1, 44496, Note_off_c, 0, 76, 72
1, 44500, Note_off_c, 0, 80, 67
1, 44506, Note_off_c, 0, 78, 60
1, 44539, Note_on_c, 0, 83, 96
1, 44543, Note_on_c, 0, 80, 97
1, 44548, Note_on_c, 0, 78, 77
1, 44553, Note_on_c, 0, 76, 92
1, 44559, Note_on_c, 0, 81, 82
1, 44569, Note_off_c, 0, 76, 74
1, 44588, Note_off_c, 0, 78, 65
1, 44615, Note_on_c, 0, 78, 62
1, 44642, Note_off_c, 0, 83, 45
1, 44647, Note_on_c, 0, 69, 81
1, 44651, Note_on_c, 0, 71, 65
1, 44655, Note_off_c, 0, 81, 64
1, 44668, Note_off_c, 0, 69, 71
1, 44675, Note_off_c, 0, 71, 70
1, 44677, Note_off_c, 0, 80, 61
1, 44682, Note_off_c, 0, 78, 63
1, 44741, Note_on_c, 0, 69, 79
1, 44749, Note_on_c, 0, 71, 87
1, 44787, Note_on_c, 0, 78, 70
1, 44793, Note_on_c, 0, 80, 73
1, 44805, Note_off_c, 0, 71, 61
1, 44807, Note_off_c, 0, 69, 62
1, 44814, Note_on_c, 0, 81, 76
1, 44841, Note_off_c, 0, 78, 63
1, 44854, Note_off_c, 0, 80, 64
1, 44856, Note_off_c, 0, 81, 61
1, 44904, Note_on_c, 0, 83, 94
1, 44937, Note_on_c, 0, 81, 75
1, 44954, Note_on_c, 0, 80, 80
1, 44974, Note_on_c, 0, 78, 79
1, 44995, Note_on_c, 0, 71, 80
1, 45005, Note_off_c, 0, 81, 61
1, 45008, Note_off_c, 0, 83, 60
1, 45014, Note_on_c, 0, 72, 60
1, 45032, Note_off_c, 0, 72, 64
1, 45034, Note_off_c, 0, 80, 61
1, 45038, Note_off_c, 0, 71, 65
1, 45044, Note_off_c, 0, 78, 63
1, 45050, Control_c, 0, 64, 106
1, 45065, Control_c, 0, 64, 64
1, 45080, Note_on_c, 0, 64, 105
1, 45080, Control_c, 0, 64, 0
1, 45095, Control_c, 0, 64, 42
1, 45109, Control_c, 0, 64, 63
1, 45124, Control_c, 0, 64, 71
1, 45146, Control_c, 0, 64, 82
1, 45160, Control_c, 0, 64, 96
1, 45175, Control_c, 0, 64, 109
1, 45188, Note_on_c, 0, 76, 76
1, 45190, Control_c, 0, 64, 116
1, 45200, Note_on_c, 0, 65, 75
1, 45205, Control_c, 0, 64, 119
1, 45209, Note_on_c, 0, 84, 83
1, 45213, Note_on_c, 0, 83, 64
1, 45216, Note_off_c, 0, 76, 59
1, 45235, Note_on_c, 0, 72, 84
1, 45235, Note_on_c, 0, 81, 38
1, 45247, Note_off_c, 0, 83, 56
1, 45250, Control_c, 0, 64, 121
1, 45251, Note_off_c, 0, 84, 65
1, 45253, Note_off_c, 0, 64, 59
1, 45263, Note_off_c, 0, 81, 56
1, 45265, Control_c, 0, 64, 127
1, 45288, Note_off_c, 0, 65, 63
1, 45294, Note_on_c, 0, 74, 96
1, 45305, Note_on_c, 0, 91, 111
1, 45311, Note_on_c, 0, 79, 102
1, 45316, Note_off_c, 0, 72, 67
1, 45328, Note_off_c, 0, 74, 69
1, 45334, Note_on_c, 0, 81, 56
1, 45335, Note_off_c, 0, 81, 127
1, 45341, Note_off_c, 0, 79, 61
1, 45362, Note_off_c, 0, 91, 63
1, 45468, Note_on_c, 0, 76, 103
1, 45498, Note_on_c, 0, 77, 77
1, 45522, Note_on_c, 0, 83, 88
1, 45562, Note_off_c, 0, 76, 55
1, 45565, Note_on_c, 0, 84, 102
1, 45572, Note_on_c, 0, 86, 81
1, 45576, Note_on_c, 0, 88, 86
1, 45596, Note_off_c, 0, 77, 63
1, 45612, Note_off_c, 0, 86, 64
1, 45616, Note_off_c, 0, 84, 68
1, 45616, Note_off_c, 0, 88, 65
1, 45624, Note_off_c, 0, 83, 64
1, 45665, Note_on_c, 0, 93, 109
1, 45667, Note_on_c, 0, 81, 110
1, 45667, Note_on_c, 0, 91, 103
1, 45688, Note_on_c, 0, 89, 66
1, 45706, Note_off_c, 0, 89, 64
1, 45728, Note_off_c, 0, 81, 68
1, 45750, Note_off_c, 0, 93, 70
1, 45753, Note_off_c, 0, 91, 70
1, 46132, Control_c, 0, 64, 118
1, 46147, Control_c, 0, 64, 105
1, 46162, Control_c, 0, 64, 97
1, 46177, Control_c, 0, 64, 91
1, 46192, Control_c, 0, 64, 86
1, 46206, Control_c, 0, 64, 81
1, 46221, Control_c, 0, 64, 75
1, 46236, Control_c, 0, 64, 70
1, 46252, Control_c, 0, 64, 67
1, 46267, Control_c, 0, 64, 66
1, 46281, Control_c, 0, 64, 65
1, 46296, Control_c, 0, 64, 64
1, 46311, Control_c, 0, 64, 62
1, 46326, Control_c, 0, 64, 61
1, 46341, Control_c, 0, 64, 60
1, 46356, Control_c, 0, 64, 58
1, 46370, Control_c, 0, 64, 54
1, 46385, Control_c, 0, 64, 50
1, 46430, Control_c, 0, 64, 49
1, 46445, Control_c, 0, 64, 49
1, 46460, Control_c, 0, 64, 47
1, 46475, Control_c, 0, 64, 46
1, 46488, Control_c, 0, 64, 45
1, 46503, Control_c, 0, 64, 43
1, 46518, Control_c, 0, 64, 38
1, 46532, Control_c, 0, 64, 34
1, 46547, Control_c, 0, 64, 32
1, 46562, Control_c, 0, 64, 30
1, 46577, Control_c, 0, 64, 26
1, 46592, Control_c, 0, 64, 17
1, 46606, Control_c, 0, 64, 0
1, 47193, Control_c, 0, 64, 26
1, 47208, Control_c, 0, 64, 61
1, 47222, Control_c, 0, 64, 64
1, 47237, Control_c, 0, 64, 69
1, 47252, Control_c, 0, 64, 78
1, 47267, Control_c, 0, 64, 92
1, 47282, Control_c, 0, 64, 102
1, 47296, Control_c, 0, 64, 105
1, 47311, Control_c, 0, 64, 110
1, 47326, Control_c, 0, 64, 123
1, 47341, Control_c, 0, 64, 127
1, 47393, Control_c, 0, 64, 115
1, 47396, Note_on_c, 0, 49, 84
1, 47397, Note_on_c, 0, 52, 88
1, 47398, Note_on_c, 0, 51, 85
1, 47408, Control_c, 0, 64, 95
1, 47423, Note_off_c, 0, 52, 68
1, 47423, Control_c, 0, 64, 90
1, 47430, Note_off_c, 0, 51, 64
1, 47437, Control_c, 0, 64, 96
1, 47440, Note_off_c, 0, 49, 66
1, 47452, Control_c, 0, 64, 115
1, 47467, Control_c, 0, 64, 127
1, 47488, Note_on_c, 0, 49, 94
1, 47491, Note_on_c, 0, 48, 90
1, 47497, Note_on_c, 0, 39, 81
1, 47522, Note_on_c, 0, 47, 39
1, 47542, Note_on_c, 0, 42, 30
1, 47556, Note_off_c, 0, 47, 34
1, 47570, Control_c, 0, 64, 119
1, 47585, Control_c, 0, 64, 114
1, 47591, Note_off_c, 0, 42, 47
1, 47600, Control_c, 0, 64, 124
1, 47615, Control_c, 0, 64, 127
1, 47950, Note_off_c, 0, 39, 49
1, 48249, Note_off_c, 0, 49, 58
1, 48290, Note_off_c, 0, 48, 55
1, 48329, Note_on_c, 0, 51, 102
1, 48338, Note_on_c, 0, 43, 81
1, 48338, Note_on_c, 0, 44, 88
1, 48349, Control_c, 0, 64, 79
1, 48355, Note_on_c, 0, 48, 47
1, 48364, Control_c, 0, 64, 0
1, 48438, Control_c, 0, 64, 62
1, 48452, Control_c, 0, 64, 73
1, 48467, Control_c, 0, 64, 83
1, 48482, Control_c, 0, 64, 96
1, 48497, Control_c, 0, 64, 109
1, 48511, Control_c, 0, 64, 127
1, 48833, Note_off_c, 0, 48, 3
1, 48855, Note_off_c, 0, 43, 38
1, 48901, Note_off_c, 0, 44, 59
1, 49040, Note_off_c, 0, 51, 60
1, 49202, Note_on_c, 0, 58, 102
1, 49283, Note_on_c, 0, 49, 86
1, 49288, Note_on_c, 0, 48, 82
1, 49317, Note_off_c, 0, 58, 65
1, 49454, Note_off_c, 0, 49, 61
1, 49470, Note_off_c, 0, 48, 61
1, 49499, Control_c, 0, 64, 90
1, 49512, Poly_aftertouch_c, 0, 48, 0
1, 49514, Control_c, 0, 64, 64
1, 49518, Note_on_c, 0, 48, 73
1, 49519, Note_on_c, 0, 49, 91
1, 49521, Note_on_c, 0, 51, 102
1, 49524, Note_on_c, 0, 46, 79
1, 49529, Control_c, 0, 64, 65
1, 49544, Control_c, 0, 64, 79
1, 49558, Control_c, 0, 64, 98
1, 49573, Control_c, 0, 64, 127
1, 49658, Note_off_c, 0, 51, 63
1, 49670, Note_off_c, 0, 49, 64
1, 49672, Note_off_c, 0, 48, 63
1, 49678, Note_off_c, 0, 46, 63
1, 49980, Control_c, 0, 64, 106
1, 49995, Control_c, 0, 64, 84
1, 50010, Control_c, 0, 64, 66
1, 50025, Control_c, 0, 64, 0
1, 50109, Note_on_c, 0, 49, 99
1, 50111, Note_on_c, 0, 42, 97
1, 50115, Note_on_c, 0, 38, 85
1, 50173, Control_c, 0, 64, 70
1, 50188, Control_c, 0, 64, 90
1, 50203, Control_c, 0, 64, 127
1, 50413, Note_off_c, 0, 38, 39
1, 50451, Note_off_c, 0, 49, 61
1, 50467, Note_off_c, 0, 42, 60
1, 50634, Note_on_c, 0, 47, 99
1, 50636, Note_on_c, 0, 49, 104
1, 50673, Note_off_c, 0, 47, 68
1, 50675, Note_off_c, 0, 49, 63
1, 50847, Note_on_c, 0, 49, 97
1, 50848, Note_on_c, 0, 41, 92
1, 50866, Note_off_c, 0, 49, 70
1, 50893, Note_off_c, 0, 41, 61
1, 50916, Note_on_c, 0, 38, 71
1, 50919, Note_on_c, 0, 41, 67
1, 50919, Note_on_c, 0, 49, 104
1, 50931, Note_on_c, 0, 44, 86
1, 50951, Control_c, 0, 64, 76
1, 50966, Control_c, 0, 64, 0
1, 51085, Control_c, 0, 64, 53
1, 51100, Control_c, 0, 64, 64
1, 51115, Control_c, 0, 64, 70
1, 51137, Control_c, 0, 64, 76
1, 51152, Control_c, 0, 64, 83
1, 51167, Control_c, 0, 64, 88
1, 51182, Control_c, 0, 64, 95
1, 51197, Control_c, 0, 64, 103
1, 51211, Control_c, 0, 64, 123
1, 51226, Control_c, 0, 64, 127
1, 51557, Note_off_c, 0, 49, 57
1, 51561, Note_off_c, 0, 44, 54
1, 51572, Note_off_c, 0, 38, 38
1, 51619, Note_off_c, 0, 41, 52
1, 51667, Note_on_c, 0, 38, 86
1, 51670, Note_on_c, 0, 45, 97
1, 51670, Note_on_c, 0, 49, 104
1, 51670, Control_c, 0, 64, 69
1, 51685, Control_c, 0, 64, 0
1, 51744, Control_c, 0, 64, 60
1, 51759, Control_c, 0, 64, 73
1, 51774, Control_c, 0, 64, 88
1, 51789, Control_c, 0, 64, 118
1, 51803, Control_c, 0, 64, 127
1, 51957, Note_off_c, 0, 49, 60
1, 52007, Note_off_c, 0, 38, 38
1, 52197, Note_on_c, 0, 44, 99
1, 52211, Note_off_c, 0, 45, 64
1, 52234, Note_off_c, 0, 44, 67
1, 52523, Control_c, 0, 64, 102
1, 52538, Control_c, 0, 64, 52
1, 52553, Control_c, 0, 64, 0
1, 52562, Note_on_c, 0, 45, 107
1, 52650, Control_c, 0, 64, 65
1, 52665, Control_c, 0, 64, 75
1, 52680, Control_c, 0, 64, 87
1, 52695, Control_c, 0, 64, 106
1, 52710, Control_c, 0, 64, 127
1, 53006, Note_off_c, 0, 45, 59
1, 53018, Note_on_c, 0, 38, 32
1, 53026, Note_on_c, 0, 37, 73
1, 53030, Note_on_c, 0, 36, 66
1, 53054, Note_off_c, 0, 38, 51
1, 53080, Note_on_c, 0, 44, 105
1, 53119, Note_off_c, 0, 36, 61
1, 53125, Note_off_c, 0, 44, 64
1, 53136, Note_off_c, 0, 37, 62
1, 53547, Control_c, 0, 64, 90
1, 53562, Control_c, 0, 64, 0
1, 53569, Note_on_c, 0, 45, 109
1, 53602, Note_on_c, 0, 37, 45
1, 53651, Control_c, 0, 64, 33
1, 53666, Control_c, 0, 64, 66
1, 53667, Note_off_c, 0, 37, 40
1, 53680, Control_c, 0, 64, 76
1, 53695, Control_c, 0, 64, 89
1, 53710, Control_c, 0, 64, 110
1, 53724, Control_c, 0, 64, 127
1, 53985, Note_off_c, 0, 45, 52
1, 54037, Note_on_c, 0, 31, 88
1, 54040, Note_on_c, 0, 37, 92
1, 54111, Note_on_c, 0, 35, 9
1, 54140, Note_off_c, 0, 31, 55
1, 54195, Note_off_c, 0, 35, 37
1, 54285, Note_on_c, 0, 44, 101
1, 54315, Note_off_c, 0, 37, 60
1, 54367, Note_off_c, 0, 44, 64
1, 54533, Control_c, 0, 64, 69
1, 54547, Control_c, 0, 64, 0
1, 54560, Note_on_c, 0, 45, 106
1, 54598, Note_on_c, 0, 37, 41
1, 54622, Control_c, 0, 64, 51
1, 54636, Control_c, 0, 64, 69
1, 54651, Control_c, 0, 64, 77
1, 54665, Note_off_c, 0, 37, 38
1, 54666, Control_c, 0, 64, 86
1, 54681, Control_c, 0, 64, 96
1, 54696, Control_c, 0, 64, 104
1, 54711, Control_c, 0, 64, 112
1, 54725, Control_c, 0, 64, 119
1, 54730, Note_off_c, 0, 45, 57
1, 54739, Control_c, 0, 64, 127
1, 54820, Note_on_c, 0, 36, 88
1, 54825, Note_on_c, 0, 29, 89
1, 55042, Note_off_c, 0, 29, 33
1, 55146, Note_on_c, 0, 44, 115
1, 55173, Note_off_c, 0, 36, 63
1, 55182, Note_off_c, 0, 44, 71
1, 55667, Note_on_c, 0, 49, 80
1, 55676, Note_on_c, 0, 53, 76
1, 55704, Note_on_c, 0, 54, 75
1, 55759, Note_on_c, 0, 56, 107
1, 55763, Control_c, 0, 64, 99
1, 55778, Control_c, 0, 64, 17
1, 55793, Control_c, 0, 64, 0
1, 55853, Control_c, 0, 64, 57
1, 55868, Control_c, 0, 64, 71
1, 55882, Control_c, 0, 64, 83
1, 55897, Control_c, 0, 64, 97
1, 55912, Control_c, 0, 64, 112
1, 55927, Control_c, 0, 64, 127
1, 56385, Note_off_c, 0, 56, 53
1, 56464, Note_off_c, 0, 49, 37
1, 56468, Note_off_c, 0, 53, 31
1, 56563, Note_off_c, 0, 54, 60
1, 56824, Note_on_c, 0, 56, 104
1, 56827, Note_on_c, 0, 54, 88
1, 56827, Note_on_c, 0, 57, 99
1, 56908, Poly_aftertouch_c, 0, 51, 127
1, 56919, Note_off_c, 0, 57, 67
1, 56926, Note_off_c, 0, 56, 70
1, 56938, Note_off_c, 0, 54, 69
1, 56964, Poly_aftertouch_c, 0, 51, 0
1, 57304, Control_c, 0, 64, 114
1, 57319, Control_c, 0, 64, 93
1, 57334, Control_c, 0, 64, 73
1, 57348, Control_c, 0, 64, 0
1, 57726, Note_on_c, 0, 50, 101
1, 57728, Note_on_c, 0, 45, 89
1, 57732, Note_on_c, 0, 40, 83
1, 57738, Note_on_c, 0, 41, 78
1, 57749, Control_c, 0, 64, 72
1, 57763, Control_c, 0, 64, 127
1, 57784, Note_off_c, 0, 50, 69
1, 57800, Note_off_c, 0, 45, 66
1, 57808, Note_off_c, 0, 40, 61
1, 57826, Note_off_c, 0, 41, 63
1, 58198, Note_on_c, 0, 35, 112
1, 58199, Note_on_c, 0, 23, 95
1, 58201, Control_c, 0, 64, 91
1, 58216, Control_c, 0, 64, 0
1, 58239, Note_on_c, 0, 28, 31
1, 58284, Note_off_c, 0, 28, 47
1, 58291, Control_c, 0, 64, 59
1, 58306, Control_c, 0, 64, 72
1, 58320, Control_c, 0, 64, 81
1, 58335, Control_c, 0, 64, 95
1, 58350, Control_c, 0, 64, 112
1, 58365, Control_c, 0, 64, 127
1, 58443, Note_on_c, 0, 28, 20
1, 58481, Note_off_c, 0, 23, 56
1, 58499, Note_off_c, 0, 28, 46
1, 58574, Note_off_c, 0, 35, 62
1, 58876, Control_c, 0, 64, 88
1, 58888, Note_on_c, 0, 50, 103
1, 58891, Control_c, 0, 64, 0
1, 58893, Note_on_c, 0, 45, 90
1, 58895, Note_on_c, 0, 40, 80
1, 58901, Note_on_c, 0, 41, 75
1, 58935, Note_on_c, 0, 42, 29
1, 58936, Note_off_c, 0, 42, 127
1, 58950, Control_c, 0, 64, 62
1, 58965, Control_c, 0, 64, 76
1, 58980, Control_c, 0, 64, 89
1, 58995, Control_c, 0, 64, 111
1, 59009, Control_c, 0, 64, 127
1, 59105, Note_off_c, 0, 45, 58
1, 59150, Note_off_c, 0, 40, 60
1, 59179, Note_off_c, 0, 41, 27
1, 59233, Note_off_c, 0, 50, 61
1, 59388, Control_c, 0, 64, 100
1, 59393, Note_on_c, 0, 47, 84
1, 59394, Note_on_c, 0, 52, 89
1, 59403, Control_c, 0, 64, 99
1, 59405, Note_on_c, 0, 43, 56
1, 59417, Note_off_c, 0, 52, 70
1, 59418, Control_c, 0, 64, 105
1, 59420, Note_on_c, 0, 41, 44
1, 59424, Note_off_c, 0, 47, 66
1, 59433, Control_c, 0, 64, 121
1, 59433, Note_on_c, 0, 45, 37
1, 59436, Note_off_c, 0, 43, 63
1, 59448, Control_c, 0, 64, 127
1, 59459, Note_off_c, 0, 41, 49
1, 59479, Note_on_c, 0, 53, 97
1, 59487, Note_off_c, 0, 45, 0
1, 59492, Note_on_c, 0, 48, 80
1, 59498, Note_on_c, 0, 43, 70
1, 59501, Note_on_c, 0, 45, 53
1, 59512, Note_on_c, 0, 49, 47
1, 59516, Note_off_c, 0, 53, 67
1, 59525, Note_off_c, 0, 48, 66
1, 59531, Note_off_c, 0, 43, 64
1, 59532, Note_off_c, 0, 45, 64
1, 59547, Note_off_c, 0, 49, 32
1, 59575, Note_on_c, 0, 55, 99
1, 59577, Note_on_c, 0, 47, 71
1, 59579, Note_on_c, 0, 50, 89
1, 59596, Note_on_c, 0, 45, 63
1, 59629, Note_off_c, 0, 55, 66
1, 59641, Note_off_c, 0, 45, 64
1, 59646, Note_off_c, 0, 50, 71
1, 59647, Note_on_c, 0, 48, 39
1, 59658, Note_off_c, 0, 47, 66
1, 59677, Note_off_c, 0, 48, 56
1, 60026, Control_c, 0, 64, 102
1, 60041, Control_c, 0, 64, 77
1, 60056, Control_c, 0, 64, 0
1, 60355, Note_on_c, 0, 50, 99
1, 60358, Note_on_c, 0, 45, 90
1, 60362, Note_on_c, 0, 40, 84
1, 60368, Note_on_c, 0, 41, 77
1, 60389, Control_c, 0, 64, 75
1, 60404, Control_c, 0, 64, 103
1, 60419, Control_c, 0, 64, 127
1, 60629, Note_off_c, 0, 40, 51
1, 60646, Poly_aftertouch_c, 0, 43, 127
1, 60708, Poly_aftertouch_c, 0, 43, 0
1, 60710, Note_off_c, 0, 41, 32
1, 60711, Note_off_c, 0, 45, 20
1, 61025, Note_off_c, 0, 50, 55
1, 61107, Control_c, 0, 64, 69
1, 61122, Note_on_c, 0, 53, 100
1, 61122, Control_c, 0, 64, 0
1, 61123, Note_on_c, 0, 48, 76
1, 61123, Note_on_c, 0, 52, 93
1, 61130, Note_on_c, 0, 43, 69
1, 61167, Control_c, 0, 64, 57
1, 61181, Control_c, 0, 64, 73
1, 61196, Control_c, 0, 64, 93
1, 61211, Control_c, 0, 64, 127
1, 61262, Note_off_c, 0, 53, 65
1, 61284, Note_off_c, 0, 52, 60
1, 61322, Note_off_c, 0, 48, 63
1, 61347, Note_off_c, 0, 43, 63
1, 61637, Note_on_c, 0, 23, 85
1, 61637, Note_on_c, 0, 35, 107
1, 61668, Note_off_c, 0, 23, 61
1, 61694, Note_off_c, 0, 35, 68
1, 62029, Note_on_c, 0, 49, 100
1, 62035, Control_c, 0, 64, 83
1, 62050, Control_c, 0, 64, 0
1, 62168, Control_c, 0, 64, 45
1, 62183, Control_c, 0, 64, 64
1, 62198, Control_c, 0, 64, 71
1, 62212, Control_c, 0, 64, 77
1, 62228, Control_c, 0, 64, 85
1, 62236, Note_on_c, 0, 54, 74
1, 62243, Control_c, 0, 64, 92
1, 62256, Note_on_c, 0, 61, 62
1, 62258, Control_c, 0, 64, 98
1, 62273, Control_c, 0, 64, 102
1, 62287, Control_c, 0, 64, 109
1, 62297, Note_on_c, 0, 58, 78
1, 62298, Note_off_c, 0, 61, 60
1, 62302, Control_c, 0, 64, 127
1, 62305, Note_on_c, 0, 63, 69
1, 62343, Note_off_c, 0, 63, 60
1, 62377, Note_on_c, 0, 65, 76
1, 62401, Note_on_c, 0, 60, 74
1, 62424, Note_off_c, 0, 49, 60
1, 62429, Note_on_c, 0, 66, 85
1, 62434, Note_off_c, 0, 65, 62
1, 62472, Note_on_c, 0, 68, 71
1, 62502, Note_off_c, 0, 66, 62
1, 62511, Note_on_c, 0, 70, 76
1, 62542, Note_off_c, 0, 68, 63
1, 62547, Note_off_c, 0, 58, 57
1, 62553, Note_off_c, 0, 54, 34
1, 62560, Note_off_c, 0, 70, 66
1, 62571, Note_off_c, 0, 60, 60
1, 62581, Note_on_c, 0, 72, 80
1, 62650, Note_on_c, 0, 73, 93
1, 62653, Note_off_c, 0, 72, 65
1, 62709, Note_on_c, 0, 75, 88
1, 62725, Note_off_c, 0, 73, 63
1, 62768, Note_off_c, 0, 75, 67
1, 62780, Note_on_c, 0, 77, 100
1, 62879, Note_on_c, 0, 78, 95
1, 62901, Note_off_c, 0, 77, 61
1, 62971, Note_on_c, 0, 80, 88
1, 62977, Note_on_c, 0, 72, 97
1, 62979, Note_on_c, 0, 66, 81
1, 62983, Note_on_c, 0, 61, 84
1, 62989, Note_off_c, 0, 78, 61
1, 63050, Note_off_c, 0, 61, 60
1, 63066, Note_off_c, 0, 72, 62
1, 63069, Note_on_c, 0, 84, 88
1, 63074, Note_off_c, 0, 80, 62
1, 63082, Note_off_c, 0, 66, 59
1, 63157, Note_on_c, 0, 82, 85
1, 63188, Note_on_c, 0, 77, 104
1, 63193, Note_on_c, 0, 72, 79
1, 63200, Note_on_c, 0, 66, 73
1, 63213, Note_off_c, 0, 84, 60
1, 63217, Note_on_c, 0, 73, 62
1, 63218, Note_on_c, 0, 80, 83
1, 63254, Note_off_c, 0, 77, 58
1, 63275, Note_off_c, 0, 82, 57
1, 63290, Note_off_c, 0, 66, 55
1, 63290, Note_off_c, 0, 73, 62
1, 63290, Note_off_c, 0, 72, 61
1, 63367, Note_off_c, 0, 80, 59
1, 63375, Note_on_c, 0, 75, 94
1, 63378, Note_on_c, 0, 73, 85
1, 63383, Note_on_c, 0, 72, 76
1, 63434, Note_off_c, 0, 72, 61
1, 63450, Note_off_c, 0, 73, 61
1, 63450, Note_off_c, 0, 75, 62
1, 63538, Note_on_c, 0, 78, 97
1, 63539, Note_on_c, 0, 75, 84
1, 63547, Control_c, 0, 64, 102
1, 63550, Note_on_c, 0, 77, 81
1, 63562, Control_c, 0, 64, 69
1, 63576, Control_c, 0, 64, 0
1, 63621, Control_c, 0, 64, 14
1, 63636, Control_c, 0, 64, 62
1, 63651, Control_c, 0, 64, 70
1, 63666, Control_c, 0, 64, 77
1, 63681, Control_c, 0, 64, 85
1, 63695, Control_c, 0, 64, 91
1, 63704, Note_off_c, 0, 75, 57
1, 63709, Note_on_c, 0, 80, 97
1, 63709, Note_off_c, 0, 78, 58
1, 63710, Control_c, 0, 64, 98
1, 63725, Control_c, 0, 64, 103
1, 63740, Control_c, 0, 64, 108
1, 63752, Note_off_c, 0, 80, 66
1, 63755, Control_c, 0, 64, 114
1, 63770, Control_c, 0, 64, 127
1, 63828, Note_on_c, 0, 80, 101
1, 63873, Note_off_c, 0, 80, 66
1, 63916, Note_off_c, 0, 77, 61
1, 63928, Note_on_c, 0, 78, 86
1, 63933, Note_on_c, 0, 73, 77
1, 63934, Note_on_c, 0, 80, 98
1, 63974, Note_off_c, 0, 80, 63
1, 64014, Note_off_c, 0, 78, 62
1, 64029, Note_on_c, 0, 80, 87
1, 64076, Note_on_c, 0, 77, 82
1, 64089, Note_on_c, 0, 68, 85
1, 64117, Note_off_c, 0, 80, 60
1, 64120, Note_off_c, 0, 73, 61
1, 64123, Note_off_c, 0, 77, 64
1, 64150, Note_off_c, 0, 68, 62
1, 64205, Note_on_c, 0, 84, 34
1, 64230, Note_on_c, 0, 72, 84
1, 64238, Note_on_c, 0, 77, 94
1, 64251, Control_c, 0, 64, 94
1, 64253, Note_on_c, 0, 66, 73
1, 64266, Control_c, 0, 64, 89
1, 64281, Control_c, 0, 64, 92
1, 64295, Note_on_c, 0, 90, 81
1, 64296, Control_c, 0, 64, 97
1, 64311, Control_c, 0, 64, 107
1, 64318, Note_off_c, 0, 84, 53
1, 64325, Control_c, 0, 64, 127
1, 64373, Note_on_c, 0, 92, 84
1, 64386, Note_off_c, 0, 77, 61
1, 64390, Note_on_c, 0, 75, 78
1, 64398, Note_off_c, 0, 72, 60
1, 64411, Note_off_c, 0, 90, 64
1, 64411, Note_off_c, 0, 75, 69
1, 64426, Note_off_c, 0, 66, 63
1, 64450, Note_on_c, 0, 89, 92
1, 64475, Note_off_c, 0, 92, 66
1, 64506, Note_off_c, 0, 89, 65
1, 64533, Control_c, 0, 64, 95
1, 64540, Note_on_c, 0, 63, 85
1, 64545, Note_on_c, 0, 73, 95
1, 64548, Note_on_c, 0, 70, 78
1, 64548, Control_c, 0, 64, 62
1, 64554, Note_on_c, 0, 84, 75
1, 64563, Control_c, 0, 64, 0
1, 64593, Control_c, 0, 64, 45
1, 64607, Note_off_c, 0, 84, 66
1, 64614, Control_c, 0, 64, 67
1, 64619, Note_on_c, 0, 90, 92
1, 64630, Control_c, 0, 64, 77
1, 64645, Control_c, 0, 64, 93
1, 64658, Note_off_c, 0, 90, 67
1, 64660, Control_c, 0, 64, 127
1, 64707, Note_on_c, 0, 94, 95
1, 64753, Note_off_c, 0, 73, 63
1, 64764, Note_on_c, 0, 101, 107
1, 64772, Note_off_c, 0, 94, 68
1, 64786, Note_off_c, 0, 70, 64
1, 64794, Note_off_c, 0, 101, 70
1, 64824, Note_off_c, 0, 63, 59
1, 65104, Control_c, 0, 64, 106
1, 65119, Control_c, 0, 64, 61
1, 65134, Note_on_c, 0, 50, 104
1, 65134, Control_c, 0, 64, 0
1, 65136, Note_on_c, 0, 45, 92
1, 65144, Note_on_c, 0, 41, 84
1, 65145, Note_on_c, 0, 40, 87
1, 65237, Control_c, 0, 64, 51
1, 65252, Control_c, 0, 64, 67
1, 65267, Control_c, 0, 64, 72
1, 65281, Control_c, 0, 64, 76
1, 65296, Control_c, 0, 64, 80
1, 65311, Control_c, 0, 64, 84
1, 65326, Control_c, 0, 64, 93
1, 65341, Control_c, 0, 64, 104
1, 65363, Control_c, 0, 64, 114
1, 65378, Control_c, 0, 64, 127
1, 65550, Poly_aftertouch_c, 0, 43, 127
1, 65587, Note_off_c, 0, 40, 58
1, 65618, Note_off_c, 0, 45, 22
1, 65653, Note_off_c, 0, 41, 42
1, 65669, Poly_aftertouch_c, 0, 43, 0
1, 65675, Note_off_c, 0, 50, 65
1, 65764, Control_c, 0, 64, 90
1, 65776, Note_on_c, 0, 55, 101
1, 65776, Note_on_c, 0, 53, 89
1, 65779, Control_c, 0, 64, 74
1, 65782, Note_on_c, 0, 52, 86
1, 65794, Control_c, 0, 64, 74
1, 65809, Control_c, 0, 64, 84
1, 65823, Control_c, 0, 64, 91
1, 65838, Control_c, 0, 64, 99
1, 65853, Control_c, 0, 64, 114
1, 65868, Control_c, 0, 64, 127
1, 65886, Note_off_c, 0, 55, 65
1, 65902, Note_off_c, 0, 53, 65
1, 65911, Note_off_c, 0, 52, 62
1, 66035, Note_on_c, 0, 50, 90
1, 66040, Note_on_c, 0, 38, 85
1, 66041, Note_on_c, 0, 48, 92
1, 66050, Note_on_c, 0, 40, 84
1, 66065, Note_off_c, 0, 48, 64
1, 66073, Note_off_c, 0, 50, 69
1, 66074, Note_off_c, 0, 38, 63
1, 66074, Note_off_c, 0, 40, 69
1, 66264, Note_on_c, 0, 50, 93
1, 66274, Note_on_c, 0, 40, 73
1, 66276, Control_c, 0, 64, 116
1, 66277, Note_on_c, 0, 48, 67
1, 66279, Note_on_c, 0, 47, 65
1, 66290, Note_off_c, 0, 50, 71
1, 66291, Control_c, 0, 64, 72
1, 66296, Note_off_c, 0, 48, 63
1, 66301, Note_off_c, 0, 40, 69
1, 66301, Note_off_c, 0, 47, 64
1, 66306, Control_c, 0, 64, 0
1, 66374, Note_on_c, 0, 53, 93
1, 66379, Note_on_c, 0, 43, 59
1, 66389, Note_on_c, 0, 41, 56
1, 66399, Note_off_c, 0, 53, 67
1, 66413, Note_off_c, 0, 43, 66
1, 66415, Note_off_c, 0, 41, 58
1, 66497, Note_on_c, 0, 52, 106
1, 66502, Note_on_c, 0, 38, 97
1, 66513, Control_c, 0, 64, 72
1, 66527, Note_on_c, 0, 40, 55
1, 66528, Note_off_c, 0, 40, 127
1, 66528, Control_c, 0, 64, 102
1, 66538, Note_on_c, 0, 50, 30
1, 66543, Control_c, 0, 64, 127
1, 66547, Note_on_c, 0, 39, 47
1, 66586, Note_off_c, 0, 50, 29
1, 66618, Note_off_c, 0, 39, 52
1, 66822, Note_off_c, 0, 38, 59
1, 66827, Note_off_c, 0, 52, 56
1, 66832, Poly_aftertouch_c, 0, 40, 127
1, 66884, Poly_aftertouch_c, 0, 40, 0
1, 66974, Note_on_c, 0, 53, 104
1, 66976, Note_on_c, 0, 43, 76
1, 66993, Note_on_c, 0, 41, 59
1, 67006, Note_off_c, 0, 43, 63
1, 67014, Note_off_c, 0, 53, 69
1, 67021, Note_off_c, 0, 41, 56
1, 67145, Control_c, 0, 64, 88
1, 67159, Control_c, 0, 64, 0
1, 67206, Note_on_c, 0, 62, 92
1, 67209, Note_on_c, 0, 59, 87
1, 67212, Note_on_c, 0, 64, 99
1, 67233, Control_c, 0, 64, 65
1, 67248, Control_c, 0, 64, 77
1, 67253, Note_off_c, 0, 62, 61
1, 67262, Note_off_c, 0, 59, 59
1, 67263, Control_c, 0, 64, 87
1, 67265, Note_off_c, 0, 64, 65
1, 67277, Control_c, 0, 64, 97
1, 67292, Control_c, 0, 64, 103
1, 67307, Control_c, 0, 64, 109
1, 67321, Note_on_c, 0, 60, 89
1, 67322, Control_c, 0, 64, 119
1, 67325, Note_on_c, 0, 69, 98
1, 67337, Control_c, 0, 64, 127
1, 67367, Note_off_c, 0, 60, 63
1, 67378, Note_off_c, 0, 69, 67
1, 67486, Note_on_c, 0, 64, 90
1, 67488, Note_on_c, 0, 65, 90
1, 67489, Note_on_c, 0, 76, 107
1, 67494, Note_on_c, 0, 67, 97
1, 67504, Note_off_c, 0, 65, 74
1, 67509, Note_off_c, 0, 67, 75
1, 67523, Note_off_c, 0, 76, 70
1, 67524, Note_off_c, 0, 64, 68
1, 67864, Control_c, 0, 64, 89
1, 67879, Control_c, 0, 64, 65
1, 67894, Control_c, 0, 64, 0
1, 68205, Control_c, 0, 64, 61
1, 68207, Note_on_c, 0, 52, 80
1, 68207, Note_on_c, 0, 50, 76
1, 68207, Note_on_c, 0, 57, 88
1, 68219, Control_c, 0, 64, 65
1, 68234, Control_c, 0, 64, 67
1, 68248, Note_off_c, 0, 50, 61
1, 68248, Note_off_c, 0, 57, 66
1, 68249, Control_c, 0, 64, 68
1, 68251, Note_off_c, 0, 52, 57
1, 68264, Control_c, 0, 64, 69
1, 68279, Control_c, 0, 64, 70
1, 68293, Control_c, 0, 64, 71
1, 68308, Control_c, 0, 64, 71
1, 68338, Control_c, 0, 64, 70
1, 68361, Control_c, 0, 64, 68
1, 68375, Control_c, 0, 64, 65
1, 68376, Note_on_c, 0, 48, 72
1, 68382, Note_on_c, 0, 52, 73
1, 68386, Note_on_c, 0, 59, 78
1, 68390, Control_c, 0, 64, 64
1, 68405, Control_c, 0, 64, 67
1, 68408, Note_off_c, 0, 52, 66
1, 68410, Note_off_c, 0, 48, 64
1, 68410, Note_off_c, 0, 59, 67
1, 68420, Control_c, 0, 64, 69
1, 68434, Control_c, 0, 64, 72
1, 68449, Control_c, 0, 64, 74
1, 68479, Control_c, 0, 64, 71
1, 68490, Note_on_c, 0, 52, 68
1, 68494, Control_c, 0, 64, 64
1, 68497, Note_on_c, 0, 60, 85
1, 68502, Note_on_c, 0, 53, 71
1, 68508, Control_c, 0, 64, 44
1, 68523, Note_off_c, 0, 52, 65
1, 68523, Note_off_c, 0, 60, 66
1, 68523, Control_c, 0, 64, 59
1, 68530, Note_off_c, 0, 53, 68
1, 68538, Control_c, 0, 64, 66
1, 68553, Control_c, 0, 64, 70
1, 68568, Control_c, 0, 64, 73
1, 68582, Control_c, 0, 64, 76
1, 68589, Note_on_c, 0, 53, 75
1, 68597, Control_c, 0, 64, 75
1, 68598, Note_on_c, 0, 62, 84
1, 68604, Note_on_c, 0, 55, 65
1, 68604, Note_on_c, 0, 57, 69
1, 68612, Control_c, 0, 64, 69
1, 68617, Note_off_c, 0, 53, 67
1, 68621, Note_off_c, 0, 62, 67
1, 68626, Note_off_c, 0, 55, 62
1, 68628, Control_c, 0, 64, 55
1, 68635, Note_off_c, 0, 57, 66
1, 68642, Control_c, 0, 64, 61
1, 68657, Control_c, 0, 64, 72
1, 68672, Control_c, 0, 64, 77
1, 68683, Note_on_c, 0, 55, 81
1, 68687, Control_c, 0, 64, 76
1, 68688, Note_on_c, 0, 57, 83
1, 68688, Note_on_c, 0, 64, 86
1, 68701, Note_on_c, 0, 62, 64
1, 68702, Control_c, 0, 64, 71
1, 68713, Note_off_c, 0, 57, 64
1, 68715, Note_off_c, 0, 55, 61
1, 68717, Note_off_c, 0, 62, 67
1, 68717, Note_off_c, 0, 64, 64
1, 68717, Control_c, 0, 64, 65
1, 68731, Control_c, 0, 64, 66
1, 68746, Control_c, 0, 64, 72
1, 68761, Control_c, 0, 64, 75
1, 68775, Note_on_c, 0, 59, 73
1, 68776, Control_c, 0, 64, 78
1, 68779, Note_on_c, 0, 65, 95
1, 68785, Note_on_c, 0, 60, 64
1, 68791, Control_c, 0, 64, 80
1, 68800, Note_off_c, 0, 59, 67
1, 68804, Note_off_c, 0, 60, 65
1, 68806, Control_c, 0, 64, 81
1, 68818, Note_off_c, 0, 65, 60
1, 68821, Control_c, 0, 64, 86
1, 68836, Control_c, 0, 64, 97
1, 68850, Control_c, 0, 64, 113
1, 68855, Note_on_c, 0, 60, 94
1, 68865, Control_c, 0, 64, 124
1, 68867, Note_on_c, 0, 62, 69
1, 68871, Note_on_c, 0, 67, 93
1, 68880, Control_c, 0, 64, 127
1, 68892, Note_off_c, 0, 62, 67
1, 68903, Note_off_c, 0, 60, 65
1, 68945, Note_on_c, 0, 69, 92
1, 68957, Note_off_c, 0, 67, 59
1, 68979, Note_off_c, 0, 69, 61
1, 68996, Control_c, 0, 64, 108
1, 69011, Control_c, 0, 64, 65
1, 69026, Control_c, 0, 64, 0
1, 69028, Note_on_c, 0, 62, 84
1, 69029, Note_on_c, 0, 69, 87
1, 69035, Note_on_c, 0, 64, 87
1, 69037, Note_on_c, 0, 67, 84
1, 69054, Note_off_c, 0, 67, 73
1, 69071, Control_c, 0, 64, 58
1, 69086, Control_c, 0, 64, 70
1, 69105, Note_on_c, 0, 71, 83
1, 69108, Control_c, 0, 64, 80
1, 69114, Note_off_c, 0, 69, 64
1, 69116, Note_on_c, 0, 65, 85
1, 69118, Note_off_c, 0, 62, 62
1, 69122, Control_c, 0, 64, 92
1, 69132, Note_off_c, 0, 64, 61
1, 69134, Note_on_c, 0, 72, 82
1, 69137, Control_c, 0, 64, 107
1, 69152, Control_c, 0, 64, 124
1, 69154, Note_off_c, 0, 71, 67
1, 69167, Control_c, 0, 64, 127
1, 69170, Note_on_c, 0, 67, 70
1, 69172, Note_off_c, 0, 72, 66
1, 69174, Note_off_c, 0, 65, 66
1, 69191, Note_off_c, 0, 67, 70
1, 69226, Note_on_c, 0, 74, 95
1, 69235, Note_on_c, 0, 72, 72
1, 69247, Note_on_c, 0, 67, 81
1, 69253, Note_off_c, 0, 72, 72
1, 69265, Note_on_c, 0, 69, 77
1, 69285, Note_on_c, 0, 76, 89
1, 69301, Note_on_c, 0, 71, 84
1, 69302, Note_off_c, 0, 67, 63
1, 69307, Note_off_c, 0, 74, 67
1, 69315, Note_on_c, 0, 77, 84
1, 69327, Note_off_c, 0, 69, 65
1, 69335, Note_off_c, 0, 76, 68
1, 69351, Note_off_c, 0, 77, 66
1, 69369, Note_off_c, 0, 71, 66
1, 69374, Control_c, 0, 64, 94
1, 69381, Note_on_c, 0, 72, 56
1, 69389, Control_c, 0, 64, 44
1, 69400, Note_off_c, 0, 72, 62
1, 69404, Control_c, 0, 64, 0
1, 69415, Note_on_c, 0, 81, 99
1, 69416, Note_on_c, 0, 79, 89
1, 69420, Control_c, 0, 64, 47
1, 69433, Note_off_c, 0, 79, 72
1, 69435, Control_c, 0, 64, 65
1, 69440, Note_on_c, 0, 72, 86
1, 69450, Control_c, 0, 64, 76
1, 69464, Control_c, 0, 64, 91
1, 69468, Note_on_c, 0, 74, 74
1, 69469, Note_on_c, 0, 83, 91
1, 69477, Note_on_c, 0, 76, 80
1, 69479, Control_c, 0, 64, 127
1, 69496, Note_off_c, 0, 81, 66
1, 69503, Note_on_c, 0, 84, 73
1, 69516, Note_on_c, 0, 77, 84
1, 69516, Note_on_c, 0, 86, 88
1, 69521, Note_off_c, 0, 72, 63
1, 69524, Note_off_c, 0, 83, 67
1, 69527, Note_off_c, 0, 84, 69
1, 69533, Note_off_c, 0, 74, 65
1, 69538, Note_off_c, 0, 86, 68
1, 69553, Note_off_c, 0, 76, 62
1, 69579, Note_on_c, 0, 79, 71
1, 69584, Note_off_c, 0, 77, 65
1, 69598, Note_on_c, 0, 88, 90
1, 69600, Note_off_c, 0, 79, 69
1, 69607, Note_on_c, 0, 89, 94
1, 69652, Note_on_c, 0, 91, 99
1, 69656, Note_off_c, 0, 88, 59
1, 69666, Note_off_c, 0, 89, 60
1, 69667, Note_on_c, 0, 81, 79
1, 69675, Note_on_c, 0, 83, 83
1, 69680, Note_off_c, 0, 91, 64
1, 69725, Note_off_c, 0, 81, 63
1, 69735, Note_on_c, 0, 91, 87
1, 69736, Note_on_c, 0, 93, 79
1, 69743, Note_off_c, 0, 83, 64
1, 69761, Note_off_c, 0, 91, 63
1, 69780, Note_on_c, 0, 95, 102
1, 69785, Note_off_c, 0, 93, 67
1, 69819, Note_on_c, 0, 100, 97
1, 69825, Note_off_c, 0, 95, 70
1, 69826, Note_on_c, 0, 86, 95
1, 69827, Note_on_c, 0, 84, 91
1, 69829, Note_on_c, 0, 88, 96
1, 69843, Note_on_c, 0, 96, 43
1, 69853, Note_off_c, 0, 100, 70
1, 69860, Note_off_c, 0, 84, 62
1, 69861, Note_off_c, 0, 88, 67
1, 69870, Note_off_c, 0, 96, 59
1, 69882, Note_off_c, 0, 86, 71
1, 70347, Control_c, 0, 64, 113
1, 70362, Control_c, 0, 64, 106
1, 70376, Control_c, 0, 64, 101
1, 70391, Control_c, 0, 64, 98
1, 70406, Control_c, 0, 64, 95
1, 70420, Control_c, 0, 64, 93
1, 70435, Control_c, 0, 64, 91
1, 70450, Control_c, 0, 64, 90
1, 70494, Control_c, 0, 64, 83
1, 70509, Control_c, 0, 64, 57
1, 70524, Control_c, 0, 64, 0
1, 70550, Note_on_c, 0, 45, 94
1, 70551, Note_on_c, 0, 50, 98
1, 70556, Note_on_c, 0, 40, 80
1, 70566, Note_on_c, 0, 41, 80
1, 70591, Note_on_c, 0, 42, 42
1, 70606, Control_c, 0, 64, 27
1, 70620, Control_c, 0, 64, 74
1, 70635, Note_off_c, 0, 42, 47
1, 70635, Control_c, 0, 64, 91
1, 70650, Control_c, 0, 64, 127
1, 70845, Note_off_c, 0, 45, 61
1, 70967, Note_off_c, 0, 40, 55
1, 70989, Note_off_c, 0, 50, 59
1, 70996, Note_off_c, 0, 41, 52
1, 71121, Note_on_c, 0, 47, 85
1, 71121, Note_on_c, 0, 50, 88
1, 71131, Note_on_c, 0, 41, 79
1, 71134, Note_on_c, 0, 40, 68
1, 71146, Note_off_c, 0, 47, 69
1, 71149, Note_off_c, 0, 50, 69
1, 71155, Control_c, 0, 64, 109
1, 71164, Note_off_c, 0, 40, 65
1, 71170, Control_c, 0, 64, 66
1, 71176, Note_off_c, 0, 41, 0
1, 71184, Control_c, 0, 64, 0
1, 71192, Note_on_c, 0, 49, 99
1, 71193, Note_on_c, 0, 52, 103
1, 71199, Control_c, 0, 64, 44
1, 71203, Note_on_c, 0, 50, 91
1, 71211, Note_off_c, 0, 49, 64
1, 71213, Poly_aftertouch_c, 0, 41, 127
1, 71214, Note_on_c, 0, 43, 62
1, 71214, Control_c, 0, 64, 67
1, 71229, Control_c, 0, 64, 77
1, 71243, Control_c, 0, 64, 95
1, 71258, Control_c, 0, 64, 127
1, 71289, Note_off_c, 0, 52, 61
1, 71316, Note_off_c, 0, 50, 63
1, 71349, Note_off_c, 0, 43, 22
1, 71381, Poly_aftertouch_c, 0, 41, 0
1, 71509, Note_on_c, 0, 40, 99
1, 71514, Note_on_c, 0, 28, 91
1, 71539, Note_off_c, 0, 28, 62
1, 71545, Note_off_c, 0, 40, 69
1, 71829, Control_c, 0, 64, 98
1, 71831, Note_on_c, 0, 52, 105
1, 71844, Control_c, 0, 64, 47
1, 71859, Control_c, 0, 64, 0
1, 71962, Control_c, 0, 64, 59
1, 71977, Control_c, 0, 64, 68
1, 71992, Control_c, 0, 64, 73
1, 72007, Control_c, 0, 64, 78
1, 72022, Control_c, 0, 64, 85
1, 72037, Control_c, 0, 64, 91
1, 72052, Control_c, 0, 64, 97
1, 72066, Control_c, 0, 64, 102
1, 72081, Control_c, 0, 64, 109
1, 72103, Control_c, 0, 64, 120
1, 72118, Control_c, 0, 64, 127
1, 72423, Note_off_c, 0, 52, 57
1, 72488, Control_c, 0, 64, 85
1, 72496, Note_on_c, 0, 53, 106
1, 72497, Note_on_c, 0, 52, 93
1, 72501, Note_on_c, 0, 48, 76
1, 72503, Control_c, 0, 64, 0
1, 72508, Note_on_c, 0, 43, 67
1, 72577, Control_c, 0, 64, 63
1, 72591, Control_c, 0, 64, 71
1, 72606, Control_c, 0, 64, 79
1, 72622, Control_c, 0, 64, 87
1, 72637, Control_c, 0, 64, 94
1, 72652, Control_c, 0, 64, 100
1, 72660, Note_off_c, 0, 52, 53
1, 72667, Control_c, 0, 64, 104
1, 72682, Control_c, 0, 64, 109
1, 72696, Control_c, 0, 64, 118
1, 72711, Control_c, 0, 64, 127
1, 72738, Note_off_c, 0, 53, 59
1, 72777, Note_off_c, 0, 43, 36
1, 72809, Note_on_c, 0, 52, 83
1, 72845, Note_on_c, 0, 55, 102
1, 72854, Note_off_c, 0, 48, 55
1, 72881, Note_off_c, 0, 52, 60
1, 72890, Note_off_c, 0, 55, 68
1, 73149, Control_c, 0, 64, 107
1, 73163, Control_c, 0, 64, 63
1, 73169, Note_on_c, 0, 50, 110
1, 73178, Control_c, 0, 64, 0
1, 73212, Note_on_c, 0, 46, 36
1, 73250, Note_off_c, 0, 46, 31
1, 73267, Control_c, 0, 64, 59
1, 73282, Control_c, 0, 64, 68
1, 73296, Control_c, 0, 64, 74
1, 73311, Control_c, 0, 64, 83
1, 73326, Control_c, 0, 64, 95
1, 73340, Control_c, 0, 64, 106
1, 73355, Control_c, 0, 64, 117
1, 73370, Control_c, 0, 64, 127
1, 73504, Note_off_c, 0, 50, 60
1, 73581, Note_on_c, 0, 50, 105
1, 73590, Note_on_c, 0, 46, 94
1, 73595, Note_on_c, 0, 38, 81
1, 73620, Note_off_c, 0, 50, 71
1, 73623, Note_on_c, 0, 43, 41
1, 73639, Note_off_c, 0, 46, 65
1, 73641, Note_off_c, 0, 38, 64
1, 73657, Note_off_c, 0, 43, 52
1, 74016, Control_c, 0, 64, 91
1, 74022, Note_on_c, 0, 34, 98
1, 74022, Note_on_c, 0, 41, 108
1, 74025, Note_on_c, 0, 26, 84
1, 74031, Control_c, 0, 64, 0
1, 74178, Control_c, 0, 64, 40
1, 74194, Control_c, 0, 64, 60
1, 74210, Control_c, 0, 64, 66
1, 74225, Control_c, 0, 64, 70
1, 74240, Control_c, 0, 64, 75
1, 74254, Control_c, 0, 64, 80
1, 74269, Control_c, 0, 64, 86
1, 74284, Control_c, 0, 64, 90
1, 74299, Control_c, 0, 64, 95
1, 74314, Control_c, 0, 64, 99
1, 74329, Control_c, 0, 64, 104
1, 74350, Control_c, 0, 64, 109
1, 74365, Control_c, 0, 64, 124
1, 74380, Control_c, 0, 64, 127
1, 74779, Note_off_c, 0, 41, 49
1, 74964, Note_off_c, 0, 26, 33
1, 75235, Note_off_c, 0, 34, 58
1, 75243, Note_on_c, 0, 52, 96
1, 75247, Note_on_c, 0, 48, 91
1, 75248, Note_on_c, 0, 38, 97
1, 75250, Note_on_c, 0, 45, 94
1, 75252, Note_on_c, 0, 31, 90
1, 75292, Control_c, 0, 64, 83
1, 75307, Control_c, 0, 64, 0
1, 75721, Control_c, 0, 64, 19
1, 75735, Control_c, 0, 64, 35
1, 75750, Control_c, 0, 64, 43
1, 75765, Control_c, 0, 64, 49
1, 75780, Control_c, 0, 64, 54
1, 75795, Control_c, 0, 64, 58
1, 75811, Control_c, 0, 64, 61
1, 75826, Control_c, 0, 64, 63
1, 75847, Control_c, 0, 64, 64
1, 75862, Control_c, 0, 64, 66
1, 75877, Control_c, 0, 64, 68
1, 75892, Control_c, 0, 64, 70
1, 75907, Control_c, 0, 64, 70
1, 75921, Control_c, 0, 64, 72
1, 75936, Control_c, 0, 64, 74
1, 75951, Control_c, 0, 64, 77
1, 75966, Control_c, 0, 64, 80
1, 75981, Control_c, 0, 64, 83
1, 75996, Control_c, 0, 64, 84
1, 76011, Control_c, 0, 64, 86
1, 76025, Control_c, 0, 64, 89
1, 76040, Control_c, 0, 64, 93
1, 76055, Control_c, 0, 64, 97
1, 76070, Control_c, 0, 64, 101
1, 76085, Control_c, 0, 64, 104
1, 76100, Control_c, 0, 64, 108
1, 76114, Control_c, 0, 64, 115
1, 76129, Control_c, 0, 64, 127
1, 76389, Note_off_c, 0, 38, 55
1, 76405, Note_off_c, 0, 31, 33
1, 77553, Control_c, 0, 64, 115
1, 77567, Control_c, 0, 64, 108
1, 77582, Control_c, 0, 64, 102
1, 77597, Control_c, 0, 64, 97
1, 77611, Control_c, 0, 64, 90
1, 77626, Control_c, 0, 64, 80
1, 77641, Control_c, 0, 64, 66
1, 77656, Control_c, 0, 64, 0
1, 77675, Note_on_c, 0, 39, 32
1, 77685, Note_on_c, 0, 25, 34
1, 77745, Control_c, 0, 67, 8
1, 77760, Control_c, 0, 67, 11
1, 77775, Control_c, 0, 67, 15
1, 77790, Control_c, 0, 67, 20
1, 77804, Control_c, 0, 67, 26
1, 77819, Control_c, 0, 67, 32
1, 77834, Control_c, 0, 67, 38
1, 77849, Control_c, 0, 67, 45
1, 77864, Control_c, 0, 67, 53
1, 77878, Control_c, 0, 67, 61
1, 77893, Control_c, 0, 67, 69
1, 77908, Control_c, 0, 67, 77
1, 77923, Control_c, 0, 67, 83
1, 77939, Control_c, 0, 67, 87
1, 77953, Control_c, 0, 67, 90
1, 77968, Control_c, 0, 67, 93
1, 77983, Control_c, 0, 67, 95
1, 77998, Control_c, 0, 64, 49
1, 77998, Control_c, 0, 67, 96
1, 78001, Note_off_c, 0, 45, 33
1, 78012, Control_c, 0, 64, 61
1, 78012, Control_c, 0, 67, 97
1, 78013, Note_off_c, 0, 48, 51
1, 78027, Control_c, 0, 64, 64
1, 78042, Control_c, 0, 64, 67
1, 78057, Control_c, 0, 64, 71
1, 78072, Control_c, 0, 64, 75
1, 78094, Control_c, 0, 64, 79
1, 78108, Note_off_c, 0, 52, 48
1, 78109, Control_c, 0, 64, 82
1, 78124, Control_c, 0, 64, 86
1, 78138, Control_c, 0, 64, 91
1, 78138, Control_c, 0, 67, 96
1, 78153, Control_c, 0, 64, 97
1, 78168, Control_c, 0, 64, 103
1, 78168, Control_c, 0, 67, 96
1, 78183, Control_c, 0, 64, 108
1, 78183, Control_c, 0, 67, 95
1, 78198, Control_c, 0, 64, 121
1, 78198, Control_c, 0, 67, 95
1, 78213, Control_c, 0, 64, 127
1, 78213, Control_c, 0, 67, 94
1, 78243, Control_c, 0, 67, 94
1, 78273, Control_c, 0, 67, 93
1, 78303, Control_c, 0, 67, 93
1, 78317, Control_c, 0, 67, 92
1, 78347, Control_c, 0, 67, 92
1, 78391, Control_c, 0, 67, 91
1, 78421, Control_c, 0, 67, 90
1, 78465, Control_c, 0, 67, 90
1, 78495, Control_c, 0, 67, 89
1, 78568, Control_c, 0, 67, 89
1, 78628, Control_c, 0, 67, 88
1, 78687, Control_c, 0, 67, 88
1, 78732, Control_c, 0, 67, 87
1, 78747, Control_c, 0, 67, 87
1, 78791, Control_c, 0, 67, 86
1, 78821, Control_c, 0, 67, 86
1, 78887, Control_c, 0, 67, 85
1, 78947, Control_c, 0, 67, 85
1, 78991, Control_c, 0, 67, 84
1, 79007, Note_on_c, 0, 95, 77
1, 79036, Control_c, 0, 67, 84
1, 79051, Control_c, 0, 67, 83
1, 79058, Note_off_c, 0, 95, 62
1, 79066, Control_c, 0, 67, 83
1, 79081, Control_c, 0, 67, 82
1, 79096, Control_c, 0, 67, 81
1, 79111, Control_c, 0, 67, 81
1, 79126, Control_c, 0, 67, 80
1, 79140, Control_c, 0, 67, 80
1, 79170, Control_c, 0, 67, 79
1, 79199, Control_c, 0, 67, 79
1, 79258, Control_c, 0, 67, 78
1, 79318, Control_c, 0, 67, 78
1, 79362, Control_c, 0, 67, 77
1, 79391, Control_c, 0, 67, 76
1, 79406, Control_c, 0, 67, 76
1, 79421, Control_c, 0, 67, 74
1, 79436, Control_c, 0, 67, 74
1, 79450, Control_c, 0, 67, 73
1, 79465, Control_c, 0, 67, 72
1, 79480, Control_c, 0, 67, 71
1, 79495, Control_c, 0, 67, 70
1, 79510, Control_c, 0, 67, 69
1, 79524, Control_c, 0, 67, 69
1, 79539, Control_c, 0, 67, 68
1, 79554, Control_c, 0, 67, 68
1, 79569, Control_c, 0, 67, 67
1, 79591, Control_c, 0, 67, 66
1, 79606, Control_c, 0, 67, 65
1, 79620, Control_c, 0, 67, 65
1, 79635, Control_c, 0, 67, 64
1, 79650, Control_c, 0, 67, 62
1, 79665, Control_c, 0, 67, 61
1, 79680, Control_c, 0, 67, 60
1, 79695, Control_c, 0, 67, 59
1, 79710, Control_c, 0, 67, 58
1, 79725, Control_c, 0, 67, 58
1, 79739, Control_c, 0, 67, 57
1, 79754, Control_c, 0, 67, 56
1, 79769, Control_c, 0, 67, 55
1, 79783, Control_c, 0, 67, 53
1, 79798, Control_c, 0, 67, 52
1, 79814, Control_c, 0, 67, 52
1, 79829, Control_c, 0, 67, 50
1, 79844, Control_c, 0, 67, 49
1, 79859, Control_c, 0, 67, 48
1, 79864, Note_on_c, 0, 95, 80
1, 79873, Control_c, 0, 67, 47
1, 79888, Control_c, 0, 67, 46
1, 79903, Control_c, 0, 67, 44
1, 79916, Note_off_c, 0, 95, 64
1, 79918, Control_c, 0, 67, 42
1, 79933, Control_c, 0, 67, 40
1, 79948, Control_c, 0, 67, 39
1, 79962, Control_c, 0, 67, 37
1, 79977, Control_c, 0, 67, 36
1, 79992, Control_c, 0, 67, 34
1, 80006, Control_c, 0, 67, 32
1, 80021, Control_c, 0, 67, 31
1, 80036, Control_c, 0, 67, 29
1, 80051, Control_c, 0, 67, 28
1, 80066, Control_c, 0, 67, 26
1, 80080, Control_c, 0, 67, 25
1, 80095, Control_c, 0, 67, 24
1, 80110, Control_c, 0, 67, 23
1, 80125, Control_c, 0, 67, 22
1, 80140, Control_c, 0, 67, 21
1, 80154, Control_c, 0, 67, 19
1, 80169, Control_c, 0, 67, 18
1, 80184, Control_c, 0, 67, 16
1, 80199, Control_c, 0, 67, 13
1, 80214, Control_c, 0, 67, 11
1, 80229, Control_c, 0, 67, 9
1, 80243, Control_c, 0, 67, 0
1, 80272, Note_on_c, 0, 95, 69
1, 80629, Note_off_c, 0, 95, 36
1, 80841, Note_on_c, 0, 95, 66
1, 80940, Note_off_c, 0, 95, 57
1, 81119, Note_on_c, 0, 95, 79
1, 81170, Note_off_c, 0, 95, 65
1, 81308, Note_on_c, 0, 95, 81
1, 81356, Note_off_c, 0, 95, 66
1, 81457, Note_on_c, 0, 95, 95
1, 81505, Note_off_c, 0, 95, 65
1, 81593, Note_on_c, 0, 95, 92
1, 81633, Note_off_c, 0, 95, 66
1, 81712, Note_on_c, 0, 95, 94
1, 81736, Note_off_c, 0, 95, 63
1, 81808, Note_on_c, 0, 95, 101
1, 81844, Note_off_c, 0, 95, 63
1, 81906, Note_on_c, 0, 95, 100
1, 81935, Note_off_c, 0, 95, 64
1, 81984, Note_on_c, 0, 95, 95
1, 82017, Note_off_c, 0, 95, 68
1, 82031, Note_off_c, 0, 39, 41
1, 82045, Note_off_c, 0, 25, 39
1, 82067, Note_on_c, 0, 95, 99
1, 82099, Note_off_c, 0, 95, 67
1, 82143, Note_on_c, 0, 95, 96
1, 82178, Note_off_c, 0, 95, 66
1, 82227, Note_on_c, 0, 95, 97
1, 82266, Note_off_c, 0, 95, 66
1, 82309, Note_on_c, 0, 95, 93
1, 82391, Note_on_c, 0, 98, 92
1, 82398, Note_on_c, 0, 97, 94
1, 82400, Note_off_c, 0, 95, 33
1, 82469, Note_off_c, 0, 98, 56
1, 82484, Note_on_c, 0, 25, 63
1, 82486, Note_on_c, 0, 39, 63
1, 82489, Control_c, 0, 64, 110
1, 82504, Control_c, 0, 64, 83
1, 82518, Control_c, 0, 64, 59
1, 82533, Control_c, 0, 64, 0
1, 82674, Control_c, 0, 64, 50
1, 82689, Control_c, 0, 64, 63
1, 82704, Control_c, 0, 64, 67
1, 82719, Control_c, 0, 64, 70
1, 82733, Control_c, 0, 64, 73
1, 82748, Control_c, 0, 64, 76
1, 82763, Control_c, 0, 64, 78
1, 82778, Control_c, 0, 64, 80
1, 82793, Control_c, 0, 64, 82
1, 82807, Control_c, 0, 64, 84
1, 82822, Control_c, 0, 64, 88
1, 82837, Control_c, 0, 64, 90
1, 82852, Control_c, 0, 64, 93
1, 82867, Control_c, 0, 64, 94
1, 82882, Control_c, 0, 64, 96
1, 82896, Control_c, 0, 64, 98
1, 82911, Control_c, 0, 64, 101
1, 82926, Control_c, 0, 64, 103
1, 82941, Control_c, 0, 64, 104
1, 82956, Control_c, 0, 64, 105
1, 82971, Control_c, 0, 64, 106
1, 82972, Note_off_c, 0, 39, 32
1, 82974, Note_off_c, 0, 25, 36
1, 82986, Control_c, 0, 64, 108
1, 83001, Control_c, 0, 64, 110
1, 83016, Control_c, 0, 64, 112
1, 83031, Control_c, 0, 64, 113
1, 83075, Control_c, 0, 64, 114
1, 83090, Control_c, 0, 64, 116
1, 83105, Control_c, 0, 64, 117
1, 83409, Note_on_c, 0, 39, 26
1, 83410, Note_on_c, 0, 25, 30
1, 83453, Control_c, 0, 64, 116
1, 83512, Control_c, 0, 64, 115
1, 83527, Control_c, 0, 64, 114
1, 83542, Control_c, 0, 64, 112
1, 83556, Control_c, 0, 64, 111
1, 83571, Control_c, 0, 64, 110
1, 83586, Control_c, 0, 64, 109
1, 83601, Control_c, 0, 64, 108
1, 83616, Control_c, 0, 64, 106
1, 83630, Control_c, 0, 64, 105
1, 83645, Control_c, 0, 64, 104
1, 83660, Control_c, 0, 64, 103
1, 83675, Control_c, 0, 64, 101
1, 83690, Control_c, 0, 64, 100
1, 83704, Control_c, 0, 64, 99
1, 83719, Control_c, 0, 64, 98
1, 83734, Control_c, 0, 64, 97
1, 83749, Control_c, 0, 64, 97
1, 83764, Control_c, 0, 64, 96
1, 83779, Control_c, 0, 64, 95
1, 83809, Control_c, 0, 64, 95
1, 83824, Control_c, 0, 64, 94
1, 83839, Control_c, 0, 64, 92
1, 83853, Control_c, 0, 64, 91
1, 83868, Control_c, 0, 64, 90
1, 83883, Control_c, 0, 64, 90
1, 84017, Control_c, 0, 64, 90
1, 84032, Control_c, 0, 64, 91
1, 84062, Control_c, 0, 64, 91
1, 84065, Note_on_c, 0, 94, 49
1, 84099, Control_c, 0, 64, 92
1, 84128, Control_c, 0, 64, 92
1, 84202, Control_c, 0, 64, 93
1, 84324, Note_off_c, 0, 25, 39
1, 84408, Note_off_c, 0, 39, 40
1, 84497, Note_off_c, 0, 97, 12
1, 84618, Control_c, 0, 64, 92
1, 84648, Control_c, 0, 64, 91
1, 84663, Control_c, 0, 64, 91
1, 84677, Control_c, 0, 64, 90
1, 84681, Note_on_c, 0, 39, 26
1, 84685, Note_on_c, 0, 25, 35
1, 84692, Control_c, 0, 64, 90
1, 84707, Control_c, 0, 64, 88
1, 84722, Control_c, 0, 64, 83
1, 84737, Control_c, 0, 64, 76
1, 84751, Control_c, 0, 64, 65
1, 84766, Control_c, 0, 64, 19
1, 84781, Control_c, 0, 64, 0
1, 84810, Control_c, 0, 64, 30
1, 84833, Control_c, 0, 64, 46
1, 84848, Control_c, 0, 64, 51
1, 84863, Control_c, 0, 64, 55
1, 84877, Control_c, 0, 64, 59
1, 84892, Control_c, 0, 64, 62
1, 84907, Control_c, 0, 64, 64
1, 84921, Control_c, 0, 64, 65
1, 84936, Control_c, 0, 64, 66
1, 84951, Control_c, 0, 64, 66
1, 84966, Control_c, 0, 64, 67
1, 84981, Control_c, 0, 64, 68
1, 84995, Control_c, 0, 64, 69
1, 85010, Control_c, 0, 64, 71
1, 85025, Control_c, 0, 64, 72
1, 85040, Control_c, 0, 64, 73
1, 85055, Control_c, 0, 64, 74
1, 85070, Control_c, 0, 64, 75
1, 85084, Control_c, 0, 64, 76
1, 85099, Control_c, 0, 64, 78
1, 85114, Control_c, 0, 64, 79
1, 85129, Control_c, 0, 64, 81
1, 85134, Note_on_c, 0, 95, 51
1, 85144, Note_off_c, 0, 39, 42
1, 85144, Control_c, 0, 64, 83
1, 85151, Note_off_c, 0, 25, 41
1, 85159, Control_c, 0, 64, 84
1, 85171, Note_off_c, 0, 94, 57
1, 85174, Control_c, 0, 64, 86
1, 85189, Control_c, 0, 64, 86
1, 85203, Control_c, 0, 64, 87
1, 85218, Control_c, 0, 64, 87
1, 85231, Poly_aftertouch_c, 0, 27, 127
1, 85233, Control_c, 0, 64, 89
1, 85248, Control_c, 0, 64, 90
1, 85263, Control_c, 0, 64, 91
1, 85307, Control_c, 0, 64, 91
1, 85312, Note_on_c, 0, 25, 36
1, 85314, Note_on_c, 0, 39, 30
1, 85322, Control_c, 0, 64, 92
1, 85442, Control_c, 0, 64, 93
1, 85472, Control_c, 0, 64, 94
1, 85487, Control_c, 0, 64, 96
1, 85492, Note_on_c, 0, 96, 72
1, 85501, Control_c, 0, 64, 97
1, 85516, Control_c, 0, 64, 97
1, 85531, Control_c, 0, 64, 98
1, 85545, Control_c, 0, 64, 98
1, 85549, Note_off_c, 0, 95, 46
1, 85560, Control_c, 0, 64, 100
1, 85582, Control_c, 0, 64, 101
1, 85597, Control_c, 0, 64, 102
1, 85627, Control_c, 0, 64, 102
1, 85642, Control_c, 0, 64, 103
1, 85657, Control_c, 0, 64, 105
1, 85666, Note_off_c, 0, 25, 35
1, 85672, Control_c, 0, 64, 108
1, 85687, Control_c, 0, 64, 109
1, 85701, Control_c, 0, 64, 110
1, 85716, Control_c, 0, 64, 111
1, 85722, Note_on_c, 0, 104, 92
1, 85731, Control_c, 0, 64, 112
1, 85737, Note_off_c, 0, 96, 63
1, 85745, Control_c, 0, 64, 113
1, 85760, Control_c, 0, 64, 113
1, 85775, Control_c, 0, 64, 114
1, 85790, Control_c, 0, 64, 115
1, 85805, Control_c, 0, 64, 116
1, 85817, Note_off_c, 0, 39, 36
1, 85819, Control_c, 0, 64, 118
1, 85834, Control_c, 0, 64, 119
1, 85849, Control_c, 0, 64, 121
1, 85948, Note_on_c, 0, 105, 86
1, 85966, Poly_aftertouch_c, 0, 27, 0
1, 85982, Control_c, 0, 64, 122
1, 85985, Note_off_c, 0, 104, 63
1, 85997, Control_c, 0, 64, 123
1, 86012, Control_c, 0, 64, 126
1, 86026, Control_c, 0, 64, 127
1, 86096, Note_on_c, 0, 102, 93
1, 86196, Note_off_c, 0, 105, 38
1, 86214, Note_on_c, 0, 99, 84
1, 86245, Note_off_c, 0, 102, 61
1, 86281, Note_off_c, 0, 99, 65
1, 86313, Note_on_c, 0, 101, 88
1, 86330, Control_c, 0, 64, 124
1, 86332, Note_on_c, 0, 100, 82
1, 86345, Control_c, 0, 64, 113
1, 86449, Control_c, 0, 64, 113
1, 86464, Control_c, 0, 64, 114
1, 86479, Control_c, 0, 64, 114
1, 86500, Note_off_c, 0, 101, 49
1, 86530, Note_off_c, 0, 100, 63
1, 86556, Note_on_c, 0, 91, 71
1, 86567, Control_c, 0, 64, 115
1, 86582, Control_c, 0, 64, 117
1, 86603, Note_on_c, 0, 96, 90
1, 86627, Control_c, 0, 64, 116
1, 86642, Control_c, 0, 64, 116
1, 86645, Note_off_c, 0, 91, 60
1, 86656, Control_c, 0, 64, 115
1, 86730, Control_c, 0, 64, 116
1, 86769, Note_on_c, 0, 95, 91
1, 86796, Note_off_c, 0, 96, 66
1, 86807, Note_off_c, 0, 95, 68
1, 86819, Control_c, 0, 64, 114
1, 86834, Control_c, 0, 64, 108
1, 86843, Note_on_c, 0, 95, 87
1, 86849, Control_c, 0, 64, 105
1, 86858, Note_on_c, 0, 96, 74
1, 86864, Control_c, 0, 64, 105
1, 86878, Note_off_c, 0, 96, 71
1, 86879, Note_off_c, 0, 95, 67
1, 86920, Note_on_c, 0, 96, 86
1, 86924, Control_c, 0, 64, 105
1, 86953, Control_c, 0, 64, 106
1, 86959, Note_on_c, 0, 95, 4
1, 87016, Note_off_c, 0, 95, 53
1, 87043, Control_c, 0, 64, 106
1, 87110, Control_c, 0, 64, 107
1, 87198, Control_c, 0, 64, 107
1, 87213, Control_c, 0, 64, 108
1, 87228, Control_c, 0, 64, 108
1, 87243, Control_c, 0, 64, 109
1, 87258, Control_c, 0, 64, 109
1, 87272, Control_c, 0, 64, 110
1, 87287, Control_c, 0, 64, 111
1, 87302, Control_c, 0, 64, 112
1, 87317, Control_c, 0, 64, 113
1, 87332, Control_c, 0, 64, 114
1, 87347, Control_c, 0, 64, 115
1, 87362, Control_c, 0, 64, 116
1, 87377, Control_c, 0, 64, 119
1, 87391, Control_c, 0, 64, 122
1, 87406, Control_c, 0, 64, 124
1, 87421, Control_c, 0, 64, 126
1, 87436, Control_c, 0, 64, 127
1, 87781, Note_on_c, 0, 95, 72
1, 87853, Note_off_c, 0, 96, 47
1, 87940, Note_off_c, 0, 95, 63
1, 88036, Note_on_c, 0, 95, 79
1, 88062, Note_off_c, 0, 95, 64
1, 88147, Note_on_c, 0, 95, 77
1, 88199, Note_off_c, 0, 95, 62
1, 88211, Note_on_c, 0, 89, 78
1, 88238, Note_off_c, 0, 89, 63
1, 88265, Note_on_c, 0, 79, 70
1, 88314, Note_on_c, 0, 84, 80
1, 88321, Note_off_c, 0, 79, 65
1, 88337, Note_off_c, 0, 84, 69
1, 88349, Note_on_c, 0, 87, 81
1, 88393, Note_on_c, 0, 90, 84
1, 88402, Note_off_c, 0, 87, 65
1, 88443, Note_on_c, 0, 96, 93
1, 88460, Note_off_c, 0, 90, 66
1, 89134, Note_off_c, 0, 96, 67
1, 89180, Note_on_c, 0, 96, 92
1, 89579, Note_off_c, 0, 96, 62
1, 89622, Note_on_c, 0, 97, 97
1, 89623, Control_c, 0, 64, 119
1, 89635, Note_on_c, 0, 96, 92
1, 89638, Control_c, 0, 64, 87
1, 89653, Control_c, 0, 64, 78
1, 89663, Note_off_c, 0, 97, 70
1, 89667, Control_c, 0, 64, 81
1, 89682, Control_c, 0, 64, 87
1, 89697, Control_c, 0, 64, 94
1, 89711, Control_c, 0, 64, 106
1, 89726, Control_c, 0, 64, 127
1, 91121, Note_off_c, 0, 96, 17
1, 91698, Note_on_c, 0, 96, 49
1, 93530, Control_c, 0, 67, 8
1, 93545, Control_c, 0, 67, 10
1, 93559, Control_c, 0, 67, 12
1, 93574, Control_c, 0, 67, 14
1, 93589, Control_c, 0, 67, 16
1, 93604, Control_c, 0, 67, 18
1, 93617, Note_off_c, 0, 96, 40
1, 93619, Control_c, 0, 67, 20
1, 93634, Control_c, 0, 67, 22
1, 93649, Control_c, 0, 67, 24
1, 93664, Control_c, 0, 67, 25
1, 93678, Control_c, 0, 67, 27
1, 93693, Control_c, 0, 67, 30
1, 93708, Control_c, 0, 67, 33
1, 93723, Control_c, 0, 67, 35
1, 93738, Control_c, 0, 67, 37
1, 93753, Control_c, 0, 67, 38
1, 93768, Control_c, 0, 67, 39
1, 93783, Control_c, 0, 67, 40
1, 93798, Control_c, 0, 67, 40
1, 93849, Control_c, 0, 67, 41
1, 93864, Control_c, 0, 64, 126
1, 93879, Control_c, 0, 64, 124
1, 93938, Control_c, 0, 67, 40
1, 93968, Control_c, 0, 67, 40
1, 93997, Control_c, 0, 67, 39
1, 94012, Control_c, 0, 67, 39
1, 94027, Control_c, 0, 67, 38
1, 94042, Control_c, 0, 67, 38
1, 94057, Control_c, 0, 67, 37
1, 94072, Control_c, 0, 67, 37
1, 94086, Control_c, 0, 67, 36
1, 94101, Control_c, 0, 67, 36
1, 94116, Control_c, 0, 67, 35
1, 94131, Control_c, 0, 67, 35
1, 94175, Control_c, 0, 67, 34
1, 94206, Control_c, 0, 67, 34
1, 94251, Control_c, 0, 67, 33
1, 94280, Control_c, 0, 67, 33
1, 94309, Control_c, 0, 67, 32
1, 94324, Control_c, 0, 67, 32
1, 94354, Control_c, 0, 67, 31
1, 94369, Control_c, 0, 67, 31
1, 94383, Control_c, 0, 67, 30
1, 94412, Control_c, 0, 67, 30
1, 94427, Control_c, 0, 67, 29
1, 94441, Control_c, 0, 67, 29
1, 94471, Control_c, 0, 67, 28
1, 94486, Control_c, 0, 67, 28
1, 94500, Control_c, 0, 67, 27
1, 94515, Control_c, 0, 67, 25
1, 94530, Control_c, 0, 67, 22
1, 94545, Control_c, 0, 67, 20
1, 94567, Control_c, 0, 67, 17
1, 94582, Control_c, 0, 67, 15
1, 94596, Control_c, 0, 67, 12
1, 94611, Control_c, 0, 67, 9
1, 94626, Control_c, 0, 64, 126
1, 94626, Control_c, 0, 67, 0
1, 94656, Control_c, 0, 64, 127
1, 94674, Note_on_c, 0, 98, 45
1, 95101, Note_on_c, 0, 108, 77
1, 95111, Note_off_c, 0, 98, 45
1, 95116, Note_on_c, 0, 97, 44
1, 95386, Note_on_c, 0, 107, 85
1, 95395, Note_off_c, 0, 108, 58
1, 95409, Note_on_c, 0, 99, 47
1, 95540, Note_off_c, 0, 99, 62
1, 95550, Note_off_c, 0, 107, 65
1, 95556, Note_on_c, 0, 103, 78
1, 95648, Note_off_c, 0, 103, 63
1, 95708, Note_off_c, 0, 97, 8
1, 95735, Note_on_c, 0, 106, 81
1, 95756, Note_on_c, 0, 100, 51
1, 95902, Note_off_c, 0, 106, 62
1, 95918, Note_on_c, 0, 97, 63
1, 96245, Note_off_c, 0, 100, 42
1, 96249, Note_on_c, 0, 98, 50
1, 96365, Note_off_c, 0, 97, 40
1, 96407, Note_off_c, 0, 98, 63
1, 96421, Note_on_c, 0, 106, 57
1, 96447, Note_on_c, 0, 99, 51
1, 96577, Note_off_c, 0, 99, 54
1, 96599, Note_on_c, 0, 94, 49
1, 96820, Note_on_c, 0, 102, 54
1, 96866, Note_off_c, 0, 106, 36
1, 97255, Note_off_c, 0, 94, 38
1, 97263, Note_on_c, 0, 97, 39
1, 97486, Note_off_c, 0, 97, 54
1, 97518, Note_on_c, 0, 93, 44
1, 97762, Note_off_c, 0, 93, 42
1, 97883, Note_on_c, 0, 103, 42
1, 97939, Note_off_c, 0, 102, 27
1, 98126, Note_off_c, 0, 103, 37
1, 98245, Control_c, 0, 67, 8
1, 98260, Control_c, 0, 67, 10
1, 98274, Control_c, 0, 67, 12
1, 98289, Control_c, 0, 67, 13
1, 98311, Control_c, 0, 67, 16
1, 98326, Control_c, 0, 67, 21
1, 98341, Control_c, 0, 67, 25
1, 98355, Control_c, 0, 67, 28
1, 98370, Control_c, 0, 67, 31
1, 98385, Control_c, 0, 67, 35
1, 98400, Control_c, 0, 67, 38
1, 98415, Control_c, 0, 67, 39
1, 98430, Control_c, 0, 67, 40
1, 98445, Control_c, 0, 67, 41
1, 98460, Control_c, 0, 67, 41
1, 98474, Control_c, 0, 67, 42
1, 98489, Control_c, 0, 67, 43
1, 98504, Control_c, 0, 67, 43
1, 98519, Control_c, 0, 67, 44
1, 98534, Control_c, 0, 67, 45
1, 98548, Control_c, 0, 67, 46
1, 98563, Control_c, 0, 67, 47
1, 98578, Control_c, 0, 67, 49
1, 98593, Control_c, 0, 67, 50
1, 98608, Control_c, 0, 67, 52
1, 98622, Control_c, 0, 67, 55
1, 98637, Control_c, 0, 67, 58
1, 98652, Control_c, 0, 67, 60
1, 98667, Control_c, 0, 67, 62
1, 98681, Control_c, 0, 67, 65
1, 98696, Control_c, 0, 67, 68
1, 98711, Control_c, 0, 64, 123
1, 98711, Control_c, 0, 67, 70
1, 98726, Control_c, 0, 64, 119
1, 98726, Control_c, 0, 67, 72
1, 98741, Control_c, 0, 64, 117
1, 98741, Control_c, 0, 67, 73
1, 98755, Control_c, 0, 64, 115
1, 98755, Control_c, 0, 67, 75
1, 98770, Control_c, 0, 64, 113
1, 98770, Control_c, 0, 67, 77
1, 98785, Control_c, 0, 64, 112
1, 98785, Control_c, 0, 67, 78
1, 98800, Control_c, 0, 64, 110
1, 98800, Control_c, 0, 67, 80
1, 98815, Control_c, 0, 64, 109
1, 98815, Control_c, 0, 67, 81
1, 98829, Control_c, 0, 64, 108
1, 98829, Control_c, 0, 67, 83
1, 98844, Control_c, 0, 64, 106
1, 98844, Control_c, 0, 67, 85
1, 98859, Control_c, 0, 64, 103
1, 98859, Control_c, 0, 67, 86
1, 98874, Control_c, 0, 64, 101
1, 98874, Control_c, 0, 67, 87
1, 98889, Control_c, 0, 64, 99
1, 98889, Control_c, 0, 67, 88
1, 98904, Control_c, 0, 64, 96
1, 98904, Control_c, 0, 67, 88
1, 98919, Control_c, 0, 64, 94
1, 98919, Control_c, 0, 67, 89
1, 98934, Control_c, 0, 64, 92
1, 98934, Control_c, 0, 67, 90
1, 98945, Note_on_c, 0, 91, 35
1, 98948, Control_c, 0, 64, 88
1, 98948, Control_c, 0, 67, 90
1, 98963, Control_c, 0, 64, 84
1, 98978, Control_c, 0, 64, 80
1, 98978, Control_c, 0, 67, 91
1, 98993, Control_c, 0, 64, 77
1, 98993, Control_c, 0, 67, 91
1, 99008, Control_c, 0, 64, 74
1, 99008, Control_c, 0, 67, 92
1, 99023, Control_c, 0, 64, 70
1, 99023, Control_c, 0, 67, 92
1, 99038, Control_c, 0, 64, 67
1, 99038, Control_c, 0, 67, 93
1, 99060, Control_c, 0, 64, 65
1, 99060, Control_c, 0, 67, 93
1, 99075, Control_c, 0, 64, 64
1, 99075, Control_c, 0, 67, 94
1, 99090, Control_c, 0, 64, 63
1, 99104, Control_c, 0, 64, 55
1, 99104, Control_c, 0, 67, 94
1, 99119, Control_c, 0, 64, 0
1, 99119, Control_c, 0, 67, 95
1, 99149, Control_c, 0, 67, 95
1, 99178, Control_c, 0, 67, 96
1, 99300, Note_on_c, 0, 102, 51
1, 99315, Note_on_c, 0, 92, 34
1, 99342, Control_c, 0, 64, 38
1, 99357, Control_c, 0, 64, 57
1, 99371, Control_c, 0, 64, 61
1, 99386, Control_c, 0, 64, 64
1, 99401, Control_c, 0, 64, 65
1, 99401, Control_c, 0, 67, 95
1, 99416, Control_c, 0, 64, 68
1, 99430, Control_c, 0, 64, 70
1, 99430, Control_c, 0, 67, 95
1, 99445, Control_c, 0, 64, 73
1, 99460, Control_c, 0, 64, 75
1, 99475, Control_c, 0, 64, 77
1, 99475, Control_c, 0, 67, 94
1, 99490, Control_c, 0, 64, 80
1, 99504, Control_c, 0, 64, 81
1, 99504, Control_c, 0, 67, 94
1, 99516, Note_off_c, 0, 92, 41
1, 99519, Control_c, 0, 64, 83
1, 99530, Note_on_c, 0, 101, 62
1, 99534, Control_c, 0, 64, 85
1, 99534, Control_c, 0, 67, 93
1, 99536, Note_off_c, 0, 91, 41
1, 99549, Note_on_c, 0, 90, 40
1, 99549, Control_c, 0, 64, 88
1, 99553, Note_off_c, 0, 102, 44
1, 99564, Control_c, 0, 64, 91
1, 99578, Control_c, 0, 64, 95
1, 99578, Control_c, 0, 67, 93
1, 99593, Control_c, 0, 64, 97
1, 99608, Control_c, 0, 64, 98
1, 99608, Control_c, 0, 67, 92
1, 99622, Control_c, 0, 64, 101
1, 99637, Control_c, 0, 64, 104
1, 99637, Control_c, 0, 67, 92
1, 99653, Control_c, 0, 64, 107
1, 99668, Control_c, 0, 64, 111
1, 99668, Control_c, 0, 67, 91
1, 99683, Control_c, 0, 64, 117
1, 99683, Control_c, 0, 67, 90
1, 99697, Control_c, 0, 64, 127
1, 99697, Control_c, 0, 67, 89
1, 99698, Note_on_c, 0, 93, 79
1, 99712, Control_c, 0, 67, 88
1, 99727, Control_c, 0, 67, 87
1, 99742, Control_c, 0, 67, 86
1, 99757, Control_c, 0, 67, 85
1, 99773, Control_c, 0, 67, 84
1, 99788, Control_c, 0, 67, 83
1, 99810, Control_c, 0, 67, 83
1, 99825, Control_c, 0, 67, 82
1, 99837, Note_off_c, 0, 90, 57
1, 99840, Control_c, 0, 67, 81
1, 99854, Control_c, 0, 67, 80
1, 99869, Control_c, 0, 67, 78
1, 99872, Note_on_c, 0, 104, 83
1, 99879, Note_on_c, 0, 91, 54
1, 99884, Control_c, 0, 67, 77
1, 99897, Note_off_c, 0, 101, 51
1, 99899, Control_c, 0, 67, 75
1, 99914, Control_c, 0, 67, 73
1, 99928, Control_c, 0, 67, 70
1, 99943, Control_c, 0, 67, 68
1, 99958, Control_c, 0, 67, 66
1, 99973, Control_c, 0, 67, 62
1, 99988, Control_c, 0, 67, 57
1, 100002, Control_c, 0, 67, 53
1, 100017, Control_c, 0, 67, 49
1, 100032, Control_c, 0, 67, 45
1, 100046, Control_c, 0, 67, 43
1, 100061, Control_c, 0, 67, 41
1, 100076, Control_c, 0, 67, 38
1, 100080, Note_off_c, 0, 93, 30
1, 100090, Note_on_c, 0, 99, 76
1, 100091, Control_c, 0, 67, 37
1, 100106, Control_c, 0, 67, 35
1, 100120, Control_c, 0, 67, 32
1, 100135, Control_c, 0, 67, 30
1, 100150, Control_c, 0, 67, 28
1, 100165, Control_c, 0, 67, 26
1, 100180, Control_c, 0, 67, 24
1, 100195, Control_c, 0, 67, 22
1, 100210, Control_c, 0, 67, 20
1, 100224, Control_c, 0, 67, 17
1, 100229, Note_off_c, 0, 91, 43
1, 100239, Control_c, 0, 67, 16
1, 100245, Note_off_c, 0, 104, 38
1, 100250, Note_on_c, 0, 80, 47
1, 100254, Control_c, 0, 67, 13
1, 100269, Control_c, 0, 67, 11
1, 100284, Control_c, 0, 67, 8
1, 100299, Control_c, 0, 67, 0
1, 100370, Note_on_c, 0, 93, 69
1, 100378, Note_off_c, 0, 99, 64
1, 100451, Note_off_c, 0, 93, 64
1, 100538, Note_off_c, 0, 80, 35
1, 100555, Note_on_c, 0, 92, 62
1, 100559, Note_on_c, 0, 77, 38
1, 100721, Note_off_c, 0, 77, 47
1, 100754, Note_on_c, 0, 87, 56
1, 100828, Note_off_c, 0, 92, 38
1, 101018, Note_off_c, 0, 87, 53
1, 101038, Note_on_c, 0, 78, 42
1, 101455, Control_c, 0, 64, 123
1, 101470, Control_c, 0, 64, 118
1, 101484, Note_off_c, 0, 78, 31
1, 101485, Control_c, 0, 64, 114
1, 101499, Control_c, 0, 64, 111
1, 101514, Control_c, 0, 64, 109
1, 101529, Control_c, 0, 64, 107
1, 101544, Control_c, 0, 64, 104
1, 101559, Control_c, 0, 64, 103
1, 101573, Control_c, 0, 64, 102
1, 101588, Control_c, 0, 64, 101
1, 101603, Control_c, 0, 64, 99
1, 101618, Note_on_c, 0, 74, 40
1, 101618, Control_c, 0, 64, 97
1, 101633, Control_c, 0, 64, 95
1, 101647, Control_c, 0, 64, 92
1, 101662, Control_c, 0, 64, 87
1, 101677, Control_c, 0, 64, 79
1, 101691, Control_c, 0, 64, 72
1, 101706, Control_c, 0, 64, 69
1, 101721, Control_c, 0, 64, 70
1, 101736, Control_c, 0, 64, 71
1, 101751, Control_c, 0, 64, 71
1, 101766, Control_c, 0, 64, 73
1, 101780, Control_c, 0, 64, 75
1, 101795, Control_c, 0, 64, 76
1, 101802, Note_off_c, 0, 74, 55
1, 101810, Control_c, 0, 64, 78
1, 101821, Note_on_c, 0, 75, 40
1, 101825, Control_c, 0, 64, 80
1, 101840, Control_c, 0, 64, 84
1, 101855, Control_c, 0, 64, 88
1, 101870, Control_c, 0, 64, 92
1, 101885, Control_c, 0, 64, 93
1, 101899, Control_c, 0, 64, 94
1, 101914, Control_c, 0, 64, 95
1, 101929, Control_c, 0, 64, 97
1, 101944, Control_c, 0, 64, 100
1, 101959, Control_c, 0, 64, 101
1, 101973, Control_c, 0, 64, 103
1, 101988, Control_c, 0, 64, 104
1, 101991, Note_off_c, 0, 75, 36
1, 101997, Note_on_c, 0, 83, 47
1, 101998, Note_on_c, 0, 74, 43
1, 102003, Control_c, 0, 64, 105
1, 102017, Control_c, 0, 64, 106
1, 102032, Control_c, 0, 64, 107
1, 102036, Note_off_c, 0, 74, 65
1, 102055, Control_c, 0, 64, 108
1, 102070, Control_c, 0, 64, 109
1, 102085, Control_c, 0, 64, 110
1, 102099, Control_c, 0, 64, 111
1, 102114, Control_c, 0, 64, 112
1, 102129, Control_c, 0, 64, 114
1, 102144, Control_c, 0, 64, 117
1, 102159, Control_c, 0, 64, 121
1, 102165, Note_off_c, 0, 83, 43
1, 102168, Note_on_c, 0, 84, 52
1, 102174, Control_c, 0, 64, 122
1, 102195, Note_off_c, 0, 84, 66
1, 102204, Control_c, 0, 64, 121
1, 102285, Note_on_c, 0, 75, 46
1, 102308, Note_on_c, 0, 68, 40
1, 102329, Note_off_c, 0, 75, 59
1, 102382, Control_c, 0, 64, 122
1, 102396, Control_c, 0, 64, 123
1, 102411, Control_c, 0, 64, 126
1, 102421, Note_off_c, 0, 68, 52
1, 102433, Note_on_c, 0, 74, 53
1, 102451, Note_on_c, 0, 64, 43
1, 102467, Note_off_c, 0, 74, 66
1, 102478, Note_off_c, 0, 64, 58
1, 102569, Note_on_c, 0, 79, 62
1, 102572, Note_on_c, 0, 77, 66
1, 102574, Control_c, 0, 64, 127
1, 102685, Note_on_c, 0, 90, 78
1, 102687, Note_off_c, 0, 77, 52
1, 102690, Note_on_c, 0, 87, 70
1, 102694, Note_off_c, 0, 79, 53
1, 102776, Note_off_c, 0, 87, 62
1, 102794, Note_on_c, 0, 93, 81
1, 102808, Note_off_c, 0, 90, 64
1, 102815, Note_on_c, 0, 91, 68
1, 102831, Note_off_c, 0, 91, 61
1, 102837, Note_off_c, 0, 93, 65
1, 102892, Note_on_c, 0, 93, 86
1, 102968, Note_on_c, 0, 90, 85
1, 102981, Note_on_c, 0, 87, 79
1, 102996, Note_off_c, 0, 93, 61
1, 103032, Poly_aftertouch_c, 0, 91, 0
1, 103039, Note_on_c, 0, 77, 78
1, 103042, Note_on_c, 0, 79, 74
1, 103053, Note_off_c, 0, 87, 63
1, 103062, Note_off_c, 0, 90, 63
1, 103097, Note_off_c, 0, 79, 57
1, 103100, Note_off_c, 0, 77, 60
1, 103183, Note_on_c, 0, 74, 70
1, 103185, Note_on_c, 0, 84, 62
1, 103229, Note_off_c, 0, 84, 0
1, 103247, Note_on_c, 0, 84, 49
1, 103278, Note_off_c, 0, 74, 65
1, 103283, Note_off_c, 0, 84, 65
1, 103457, Control_c, 0, 64, 120
1, 103471, Control_c, 0, 64, 105
1, 103486, Control_c, 0, 64, 96
1, 103501, Control_c, 0, 64, 87
1, 103516, Control_c, 0, 64, 78
1, 103531, Control_c, 0, 64, 66
1, 103553, Control_c, 0, 64, 0
1, 103721, Note_on_c, 0, 74, 47
1, 103836, Control_c, 0, 64, 17
1, 103850, Control_c, 0, 64, 58
1, 103865, Control_c, 0, 64, 65
1, 103880, Control_c, 0, 64, 68
1, 103888, Note_off_c, 0, 74, 58
1, 103894, Control_c, 0, 64, 70
1, 103909, Control_c, 0, 64, 72
1, 103917, Note_on_c, 0, 77, 42
1, 103924, Control_c, 0, 64, 74
1, 103933, Note_on_c, 0, 67, 32
1, 103936, Note_on_c, 0, 76, 29
1, 103939, Control_c, 0, 64, 78
1, 103954, Control_c, 0, 64, 81
1, 103968, Control_c, 0, 64, 83
1, 103983, Control_c, 0, 64, 86
1, 103998, Control_c, 0, 64, 87
1, 104013, Control_c, 0, 64, 89
1, 104028, Control_c, 0, 64, 91
1, 104033, Note_off_c, 0, 67, 56
1, 104043, Control_c, 0, 64, 93
1, 104052, Note_off_c, 0, 76, 51
1, 104058, Control_c, 0, 64, 93
1, 104073, Control_c, 0, 64, 94
1, 104087, Note_off_c, 0, 77, 38
1, 104087, Control_c, 0, 64, 95
1, 104102, Control_c, 0, 64, 95
1, 104108, Note_on_c, 0, 85, 52
1, 104112, Note_on_c, 0, 81, 46
1, 104117, Control_c, 0, 64, 96
1, 104142, Note_off_c, 0, 81, 55
1, 104161, Control_c, 0, 64, 96
1, 104192, Note_off_c, 0, 85, 61
1, 104220, Control_c, 0, 64, 97
1, 104250, Control_c, 0, 64, 97
1, 104265, Control_c, 0, 64, 98
1, 104280, Control_c, 0, 64, 99
1, 104302, Control_c, 0, 64, 99
1, 104317, Control_c, 0, 64, 100
1, 104332, Control_c, 0, 64, 100
1, 104347, Control_c, 0, 64, 101
1, 104362, Control_c, 0, 64, 101
1, 104365, Note_on_c, 0, 83, 42
1, 104376, Control_c, 0, 64, 102
1, 104391, Control_c, 0, 64, 102
1, 104406, Control_c, 0, 64, 103
1, 104420, Control_c, 0, 64, 103
1, 104435, Control_c, 0, 64, 104
1, 104450, Control_c, 0, 64, 105
1, 104463, Note_on_c, 0, 88, 56
1, 104465, Control_c, 0, 64, 106
1, 104480, Control_c, 0, 64, 107
1, 104494, Control_c, 0, 64, 108
1, 104524, Control_c, 0, 64, 107
1, 104564, Note_off_c, 0, 88, 56
1, 104598, Note_on_c, 0, 89, 56
1, 104629, Control_c, 0, 64, 108
1, 104703, Control_c, 0, 64, 108
1, 104714, Note_off_c, 0, 89, 60
1, 104732, Control_c, 0, 64, 109
1, 104741, Note_on_c, 0, 90, 57
1, 104747, Control_c, 0, 64, 109
1, 104777, Control_c, 0, 64, 110
1, 104791, Control_c, 0, 64, 111
1, 104800, Note_off_c, 0, 90, 49
1, 104806, Control_c, 0, 64, 112
1, 104821, Control_c, 0, 64, 113
1, 104866, Control_c, 0, 64, 113
1, 104881, Control_c, 0, 64, 114
1, 104895, Control_c, 0, 64, 114
1, 104939, Control_c, 0, 64, 115
1, 105140, Note_off_c, 0, 83, 39
1, 105154, Note_on_c, 0, 99, 46
1, 105155, Note_on_c, 0, 82, 33
1, 105181, Note_on_c, 0, 79, 25
1, 105462, Note_off_c, 0, 82, 44
1, 105506, Note_off_c, 0, 99, 34
1, 105536, Note_off_c, 0, 79, 34
1, 106036, Control_c, 0, 64, 114
1, 106051, Control_c, 0, 64, 86
1, 106065, Control_c, 0, 64, 0
1, 106156, Note_on_c, 0, 96, 102
1, 106200, Control_c, 0, 64, 58
1, 106214, Control_c, 0, 64, 75
1, 106229, Control_c, 0, 64, 87
1, 106244, Control_c, 0, 64, 104
1, 106259, Control_c, 0, 64, 114
1, 106274, Control_c, 0, 64, 122
1, 106288, Control_c, 0, 64, 127
1, 106527, Note_on_c, 0, 76, 59
1, 106531, Note_on_c, 0, 80, 56
1, 106677, Note_on_c, 0, 85, 97
1, 106693, Note_off_c, 0, 96, 60
1, 106728, Note_off_c, 0, 80, 59
1, 106751, Note_off_c, 0, 76, 59
1, 106813, Note_on_c, 0, 93, 101
1, 106824, Note_off_c, 0, 85, 61
1, 106908, Note_on_c, 0, 78, 84
1, 106915, Note_on_c, 0, 75, 70
1, 106978, Note_off_c, 0, 78, 62
1, 107025, Note_on_c, 0, 74, 72
1, 107026, Note_on_c, 0, 77, 75
1, 107036, Note_on_c, 0, 82, 97
1, 107072, Note_off_c, 0, 75, 28
1, 107080, Note_off_c, 0, 93, 60
1, 107133, Note_on_c, 0, 86, 83
1, 107134, Note_off_c, 0, 82, 64
1, 107167, Note_off_c, 0, 77, 55
1, 107200, Note_off_c, 0, 74, 56
1, 107245, Note_off_c, 0, 86, 65
1, 107249, Note_on_c, 0, 93, 97
1, 107311, Control_c, 0, 64, 106
1, 107325, Control_c, 0, 64, 93
1, 107340, Control_c, 0, 64, 91
1, 107368, Note_on_c, 0, 92, 96
1, 107370, Control_c, 0, 64, 91
1, 107385, Control_c, 0, 64, 93
1, 107399, Control_c, 0, 64, 97
1, 107414, Control_c, 0, 64, 101
1, 107429, Control_c, 0, 64, 104
1, 107444, Control_c, 0, 64, 106
1, 107459, Control_c, 0, 64, 108
1, 107474, Control_c, 0, 64, 110
1, 107475, Note_on_c, 0, 78, 82
1, 107481, Note_on_c, 0, 74, 69
1, 107492, Note_off_c, 0, 93, 40
1, 107533, Control_c, 0, 64, 109
1, 107548, Control_c, 0, 64, 108
1, 107593, Note_off_c, 0, 78, 60
1, 107602, Note_on_c, 0, 87, 94
1, 107637, Note_off_c, 0, 92, 62
1, 107681, Control_c, 0, 64, 108
1, 107696, Control_c, 0, 64, 99
1, 107710, Control_c, 0, 64, 85
1, 107725, Control_c, 0, 64, 72
1, 107740, Control_c, 0, 64, 71
1, 107745, Note_on_c, 0, 81, 75
1, 107748, Note_on_c, 0, 90, 92
1, 107753, Note_on_c, 0, 77, 68
1, 107756, Control_c, 0, 64, 74
1, 107767, Note_off_c, 0, 87, 65
1, 107771, Control_c, 0, 64, 77
1, 107786, Control_c, 0, 64, 81
1, 107798, Note_off_c, 0, 74, 58
1, 107801, Control_c, 0, 64, 86
1, 107815, Control_c, 0, 64, 93
1, 107830, Control_c, 0, 64, 97
1, 107845, Control_c, 0, 64, 99
1, 107859, Control_c, 0, 64, 100
1, 107874, Control_c, 0, 64, 102
1, 107889, Control_c, 0, 64, 104
1, 107904, Control_c, 0, 64, 107
1, 107909, Note_on_c, 0, 87, 94
1, 107919, Control_c, 0, 64, 112
1, 107933, Control_c, 0, 64, 117
1, 107948, Control_c, 0, 64, 117
1, 107963, Control_c, 0, 64, 116
1, 107978, Control_c, 0, 64, 107
1, 107993, Control_c, 0, 64, 95
1, 107996, Note_off_c, 0, 81, 58
1, 107999, Note_off_c, 0, 90, 39
1, 108008, Control_c, 0, 64, 92
1, 108040, Note_on_c, 0, 83, 92
1, 108044, Note_on_c, 0, 76, 71
1, 108045, Control_c, 0, 64, 95
1, 108055, Note_on_c, 0, 74, 70
1, 108060, Control_c, 0, 64, 101
1, 108070, Note_off_c, 0, 87, 62
1, 108073, Note_off_c, 0, 77, 61
1, 108074, Control_c, 0, 64, 112
1, 108089, Control_c, 0, 64, 127
1, 108109, Note_off_c, 0, 76, 63
1, 108112, Note_off_c, 0, 74, 65
1, 108134, Control_c, 0, 64, 126
1, 108148, Control_c, 0, 64, 105
1, 108158, Note_on_c, 0, 90, 98
1, 108163, Control_c, 0, 64, 101
1, 108191, Note_off_c, 0, 83, 65
1, 108192, Control_c, 0, 64, 101
1, 108207, Control_c, 0, 64, 103
1, 108222, Control_c, 0, 64, 107
1, 108237, Control_c, 0, 64, 112
1, 108252, Control_c, 0, 64, 114
1, 108262, Note_on_c, 0, 74, 64
1, 108264, Note_on_c, 0, 67, 64
1, 108294, Note_on_c, 0, 85, 92
1, 108339, Note_off_c, 0, 90, 61
1, 108364, Note_off_c, 0, 67, 52
1, 108369, Note_off_c, 0, 74, 58
1, 108429, Note_on_c, 0, 81, 93
1, 108459, Control_c, 0, 64, 114
1, 108464, Note_off_c, 0, 85, 62
1, 108474, Control_c, 0, 64, 109
1, 108489, Control_c, 0, 64, 105
1, 108504, Control_c, 0, 64, 103
1, 108519, Control_c, 0, 64, 100
1, 108533, Control_c, 0, 64, 98
1, 108548, Control_c, 0, 64, 93
1, 108564, Control_c, 0, 64, 87
1, 108579, Control_c, 0, 64, 75
1, 108591, Note_on_c, 0, 74, 60
1, 108594, Control_c, 0, 64, 61
1, 108604, Note_on_c, 0, 67, 49
1, 108608, Control_c, 0, 64, 0
1, 108613, Note_on_c, 0, 90, 92
1, 108651, Note_off_c, 0, 81, 54
1, 108668, Control_c, 0, 64, 43
1, 108682, Control_c, 0, 64, 59
1, 108697, Control_c, 0, 64, 63
1, 108712, Control_c, 0, 64, 65
1, 108727, Control_c, 0, 64, 67
1, 108742, Control_c, 0, 64, 69
1, 108756, Control_c, 0, 64, 71
1, 108771, Control_c, 0, 64, 73
1, 108794, Control_c, 0, 64, 75
1, 108808, Control_c, 0, 64, 76
1, 108815, Note_on_c, 0, 87, 92
1, 108823, Control_c, 0, 64, 78
1, 108838, Control_c, 0, 64, 79
1, 108853, Control_c, 0, 64, 82
1, 108868, Control_c, 0, 64, 85
1, 108878, Note_off_c, 0, 90, 65
1, 108883, Control_c, 0, 64, 88
1, 108897, Control_c, 0, 64, 90
1, 108912, Control_c, 0, 64, 92
1, 108927, Control_c, 0, 64, 95
1, 108942, Control_c, 0, 64, 98
1, 108956, Control_c, 0, 64, 102
1, 108967, Note_off_c, 0, 74, 65
1, 108968, Note_on_c, 0, 73, 79
1, 108970, Note_on_c, 0, 77, 78
1, 108971, Control_c, 0, 64, 103
1, 108986, Control_c, 0, 64, 104
1, 109001, Control_c, 0, 64, 105
1, 109002, Note_off_c, 0, 67, 53
1, 109015, Control_c, 0, 64, 107
1, 109030, Control_c, 0, 64, 111
1, 109045, Control_c, 0, 64, 119
1, 109060, Control_c, 0, 64, 127
1, 109155, Note_on_c, 0, 83, 94
1, 109164, Note_off_c, 0, 77, 61
1, 109196, Note_off_c, 0, 87, 61
1, 109403, Control_c, 0, 64, 117
1, 109418, Control_c, 0, 64, 104
1, 109432, Control_c, 0, 64, 88
1, 109440, Note_on_c, 0, 81, 52
1, 109445, Note_on_c, 0, 77, 55
1, 109447, Control_c, 0, 64, 73
1, 109456, Note_on_c, 0, 90, 83
1, 109462, Control_c, 0, 64, 55
1, 109477, Control_c, 0, 64, 0
1, 109500, Note_off_c, 0, 73, 52
1, 109506, Control_c, 0, 64, 40
1, 109521, Control_c, 0, 64, 55
1, 109543, Control_c, 0, 64, 61
1, 109558, Control_c, 0, 64, 64
1, 109573, Control_c, 0, 64, 67
1, 109587, Control_c, 0, 64, 70
1, 109602, Control_c, 0, 64, 72
1, 109604, Note_off_c, 0, 83, 52
1, 109617, Control_c, 0, 64, 75
1, 109632, Control_c, 0, 64, 77
1, 109647, Control_c, 0, 64, 79
1, 109662, Control_c, 0, 64, 81
1, 109677, Control_c, 0, 64, 84
1, 109687, Note_off_c, 0, 81, 38
1, 109692, Control_c, 0, 64, 86
1, 109706, Control_c, 0, 64, 89
1, 109721, Control_c, 0, 64, 92
1, 109736, Control_c, 0, 64, 93
1, 109751, Control_c, 0, 64, 95
1, 109753, Note_off_c, 0, 77, 60
1, 109762, Note_on_c, 0, 85, 87
1, 109766, Control_c, 0, 64, 96
1, 109780, Control_c, 0, 64, 99
1, 109795, Control_c, 0, 64, 101
1, 109810, Control_c, 0, 64, 102
1, 109825, Control_c, 0, 64, 103
1, 109839, Control_c, 0, 64, 102
1, 109854, Control_c, 0, 64, 102
1, 109869, Control_c, 0, 64, 98
1, 109884, Control_c, 0, 64, 94
1, 109899, Control_c, 0, 64, 92
1, 109972, Control_c, 0, 64, 93
1, 109987, Control_c, 0, 64, 93
1, 110038, Note_off_c, 0, 90, 27
1, 110061, Control_c, 0, 64, 91
1, 110070, Note_off_c, 0, 85, 64
1, 110071, Note_on_c, 0, 81, 55
1, 110076, Note_on_c, 0, 67, 38
1, 110076, Control_c, 0, 64, 87
1, 110081, Note_on_c, 0, 76, 39
1, 110091, Control_c, 0, 64, 83
1, 110106, Control_c, 0, 64, 83
1, 110151, Control_c, 0, 64, 83
1, 110166, Control_c, 0, 64, 84
1, 110181, Control_c, 0, 64, 86
1, 110196, Control_c, 0, 64, 87
1, 110210, Control_c, 0, 64, 88
1, 110225, Control_c, 0, 64, 89
1, 110240, Control_c, 0, 64, 90
1, 110255, Control_c, 0, 64, 92
1, 110270, Control_c, 0, 64, 93
1, 110292, Control_c, 0, 64, 96
1, 110302, Note_off_c, 0, 76, 37
1, 110307, Control_c, 0, 64, 97
1, 110322, Control_c, 0, 64, 98
1, 110336, Control_c, 0, 64, 99
1, 110351, Control_c, 0, 64, 100
1, 110366, Control_c, 0, 64, 101
1, 110380, Control_c, 0, 64, 103
1, 110395, Control_c, 0, 64, 103
1, 110410, Control_c, 0, 64, 104
1, 110440, Control_c, 0, 64, 105
1, 110453, Note_off_c, 0, 67, 35
1, 110455, Control_c, 0, 64, 106
1, 110470, Control_c, 0, 64, 106
1, 110500, Control_c, 0, 64, 107
1, 110514, Note_off_c, 0, 81, 37
1, 110529, Control_c, 0, 64, 107
1, 110559, Control_c, 0, 64, 108
1, 110574, Control_c, 0, 64, 108
1, 110618, Control_c, 0, 64, 109
1, 110633, Control_c, 0, 64, 109
1, 110662, Control_c, 0, 64, 110
1, 110677, Control_c, 0, 64, 110
1, 110692, Control_c, 0, 64, 111
1, 110693, Note_on_c, 0, 88, 104
1, 110693, Note_on_c, 0, 69, 86
1, 110694, Note_on_c, 0, 61, 82
1, 110696, Note_on_c, 0, 68, 81
1, 110700, Note_on_c, 0, 77, 77
1, 110707, Control_c, 0, 64, 114
1, 110715, Note_on_c, 0, 80, 53
1, 110715, Note_off_c, 0, 77, 70
1, 110716, Note_off_c, 0, 68, 71
1, 110716, Note_off_c, 0, 69, 68
1, 110718, Note_off_c, 0, 61, 68
1, 110722, Control_c, 0, 64, 118
1, 110724, Note_off_c, 0, 88, 67
1, 110736, Control_c, 0, 64, 119
1, 110738, Note_off_c, 0, 80, 39
1, 110751, Control_c, 0, 64, 120
1, 110766, Control_c, 0, 64, 123
1, 110780, Control_c, 0, 64, 127
1, 110896, Note_on_c, 0, 81, 81
1, 110896, Note_on_c, 0, 96, 104
1, 110899, Control_c, 0, 64, 88
1, 110905, Note_on_c, 0, 84, 79
1, 110914, Control_c, 0, 64, 0
1, 110915, Note_on_c, 0, 80, 52
1, 110916, Note_off_c, 0, 80, 127
1, 110916, Note_off_c, 0, 81, 67
1, 110916, Note_on_c, 0, 83, 59
1, 110917, Note_off_c, 0, 83, 127
1, 110918, Note_off_c, 0, 84, 72
1, 110922, Note_off_c, 0, 96, 73
1, 110931, Note_on_c, 0, 95, 39
1, 110932, Note_off_c, 0, 95, 127
1, 111075, Note_on_c, 0, 97, 94
1, 111077, Note_on_c, 0, 94, 21
1, 111099, Note_on_c, 0, 93, 46
1, 111117, Note_on_c, 0, 98, 38
1, 111123, Note_off_c, 0, 93, 58
1, 111126, Note_off_c, 0, 94, 42
1, 111141, Note_on_c, 0, 89, 93
1, 111144, Control_c, 0, 64, 80
1, 111147, Note_off_c, 0, 98, 36
1, 111152, Note_on_c, 0, 71, 70
1, 111158, Note_on_c, 0, 79, 79
1, 111158, Control_c, 0, 64, 109
1, 111162, Note_off_c, 0, 97, 65
1, 111165, Note_on_c, 0, 80, 85
1, 111170, Note_off_c, 0, 89, 63
1, 111173, Control_c, 0, 64, 127
1, 111183, Note_off_c, 0, 79, 65
1, 111200, Note_off_c, 0, 80, 55
1, 111209, Note_off_c, 0, 71, 64
1, 111321, Note_on_c, 0, 76, 77
1, 111321, Note_on_c, 0, 78, 87
1, 111322, Note_on_c, 0, 68, 80
1, 111334, Note_on_c, 0, 72, 74
1, 111343, Note_off_c, 0, 76, 69
1, 111351, Control_c, 0, 64, 113
1, 111364, Note_off_c, 0, 78, 65
1, 111366, Control_c, 0, 64, 103
1, 111396, Control_c, 0, 64, 105
1, 111400, Note_on_c, 0, 86, 100
1, 111402, Note_on_c, 0, 78, 88
1, 111406, Note_on_c, 0, 79, 90
1, 111409, Note_on_c, 0, 70, 81
1, 111410, Control_c, 0, 64, 111
1, 111421, Note_off_c, 0, 79, 75
1, 111425, Control_c, 0, 64, 127
1, 111426, Note_off_c, 0, 72, 62
1, 111437, Note_off_c, 0, 68, 62
1, 111439, Note_off_c, 0, 78, 62
1, 111444, Note_off_c, 0, 86, 68
1, 111454, Note_off_c, 0, 70, 65
1, 111573, Control_c, 0, 64, 89
1, 111588, Note_on_c, 0, 60, 85
1, 111588, Control_c, 0, 64, 0
1, 111672, Note_on_c, 0, 65, 80
1, 111692, Control_c, 0, 64, 66
1, 111701, Note_off_c, 0, 60, 65
1, 111707, Note_on_c, 0, 67, 53
1, 111707, Control_c, 0, 64, 84
1, 111708, Note_on_c, 0, 76, 68
1, 111710, Note_on_c, 0, 80, 74
1, 111714, Note_on_c, 0, 74, 107
1, 111714, Note_on_c, 0, 81, 89
1, 111722, Control_c, 0, 64, 107
1, 111729, Note_on_c, 0, 66, 48
1, 111729, Note_off_c, 0, 67, 61
1, 111731, Note_off_c, 0, 65, 63
1, 111732, Note_on_c, 0, 82, 79
1, 111736, Note_off_c, 0, 76, 66
1, 111736, Control_c, 0, 64, 127
1, 111738, Note_on_c, 0, 83, 87
1, 111738, Note_off_c, 0, 74, 71
1, 111755, Note_off_c, 0, 80, 64
1, 111757, Note_off_c, 0, 81, 67
1, 111757, Note_off_c, 0, 83, 73
1, 111758, Note_off_c, 0, 66, 57
1, 111761, Note_off_c, 0, 82, 66
1, 112029, Note_on_c, 0, 91, 90
1, 112041, Control_c, 0, 64, 95
1, 112056, Control_c, 0, 64, 0
1, 112064, Note_on_c, 0, 82, 97
1, 112117, Note_off_c, 0, 91, 64
1, 112189, Control_c, 0, 64, 48
1, 112204, Control_c, 0, 64, 64
1, 112219, Control_c, 0, 64, 69
1, 112233, Control_c, 0, 64, 72
1, 112248, Control_c, 0, 64, 74
1, 112263, Control_c, 0, 64, 77
1, 112278, Control_c, 0, 64, 80
1, 112293, Control_c, 0, 64, 82
1, 112307, Control_c, 0, 64, 83
1, 112316, Note_on_c, 0, 80, 93
1, 112322, Control_c, 0, 64, 84
1, 112328, Note_off_c, 0, 82, 63
1, 112337, Control_c, 0, 64, 87
1, 112351, Control_c, 0, 64, 90
1, 112366, Control_c, 0, 64, 93
1, 112382, Control_c, 0, 64, 95
1, 112397, Control_c, 0, 64, 97
1, 112412, Control_c, 0, 64, 102
1, 112426, Control_c, 0, 64, 108
1, 112441, Control_c, 0, 64, 114
1, 112456, Control_c, 0, 64, 126
1, 112471, Control_c, 0, 64, 127
1, 112509, Note_on_c, 0, 77, 78
1, 112517, Note_on_c, 0, 74, 73
1, 112562, Note_off_c, 0, 80, 60
1, 112577, Note_off_c, 0, 77, 61
1, 112596, Note_off_c, 0, 74, 65
1, 112744, Note_on_c, 0, 77, 96
1, 113004, Note_on_c, 0, 74, 79
1, 113008, Note_on_c, 0, 67, 75
1, 113013, Control_c, 0, 64, 89
1, 113027, Control_c, 0, 64, 61
1, 113042, Control_c, 0, 64, 0
1, 113161, Control_c, 0, 64, 36
1, 113175, Control_c, 0, 64, 59
1, 113190, Control_c, 0, 64, 65
1, 113205, Control_c, 0, 64, 68
1, 113220, Control_c, 0, 64, 70
1, 113235, Control_c, 0, 64, 72
1, 113249, Control_c, 0, 64, 75
1, 113264, Control_c, 0, 64, 78
1, 113287, Control_c, 0, 64, 81
1, 113296, Note_on_c, 0, 80, 92
1, 113299, Note_off_c, 0, 77, 65
1, 113302, Control_c, 0, 64, 83
1, 113317, Control_c, 0, 64, 85
1, 113331, Control_c, 0, 64, 88
1, 113346, Control_c, 0, 64, 91
1, 113361, Control_c, 0, 64, 93
1, 113376, Control_c, 0, 64, 94
1, 113391, Control_c, 0, 64, 95
1, 113406, Control_c, 0, 64, 95
1, 113460, Note_off_c, 0, 74, 61
1, 113540, Control_c, 0, 64, 93
1, 113554, Control_c, 0, 64, 88
1, 113569, Control_c, 0, 64, 81
1, 113584, Control_c, 0, 64, 77
1, 113599, Control_c, 0, 64, 78
1, 113613, Note_on_c, 0, 74, 57
1, 113613, Control_c, 0, 64, 79
1, 113628, Control_c, 0, 64, 81
1, 113629, Note_on_c, 0, 70, 62
1, 113643, Control_c, 0, 64, 84
1, 113657, Note_off_c, 0, 67, 55
1, 113658, Control_c, 0, 64, 88
1, 113673, Control_c, 0, 64, 92
1, 113687, Control_c, 0, 64, 95
1, 113702, Control_c, 0, 64, 97
1, 113717, Control_c, 0, 64, 99
1, 113732, Control_c, 0, 64, 102
1, 113747, Control_c, 0, 64, 104
1, 113761, Control_c, 0, 64, 108
1, 113776, Control_c, 0, 64, 112
1, 113791, Control_c, 0, 64, 117
1, 113805, Control_c, 0, 64, 127
1, 113811, Note_off_c, 0, 74, 59
1, 113953, Note_off_c, 0, 70, 57
1, 113990, Note_on_c, 0, 77, 68
1, 114005, Note_on_c, 0, 72, 51
1, 114060, Note_off_c, 0, 80, 38
1, 114288, Note_off_c, 0, 72, 32
1, 114332, Note_off_c, 0, 77, 40
1, 114363, Control_c, 0, 64, 118
1, 114369, Note_on_c, 0, 56, 68
1, 114377, Control_c, 0, 64, 111
1, 114392, Control_c, 0, 64, 106
1, 114407, Control_c, 0, 64, 101
1, 114421, Control_c, 0, 64, 93
1, 114436, Control_c, 0, 64, 79
1, 114451, Control_c, 0, 64, 56
1, 114466, Control_c, 0, 64, 0
1, 114569, Control_c, 0, 64, 28
1, 114584, Control_c, 0, 64, 59
1, 114599, Control_c, 0, 64, 64
1, 114614, Control_c, 0, 64, 67
1, 114628, Control_c, 0, 64, 69
1, 114643, Control_c, 0, 64, 72
1, 114658, Control_c, 0, 64, 75
1, 114667, Note_on_c, 0, 59, 63
1, 114673, Control_c, 0, 64, 78
1, 114688, Control_c, 0, 64, 80
1, 114703, Control_c, 0, 64, 83
1, 114718, Control_c, 0, 64, 86
1, 114732, Control_c, 0, 64, 88
1, 114747, Note_off_c, 0, 56, 64
1, 114747, Control_c, 0, 64, 90
1, 114762, Control_c, 0, 64, 91
1, 114784, Control_c, 0, 64, 92
1, 114786, Note_on_c, 0, 64, 70
1, 114797, Note_off_c, 0, 59, 59
1, 114799, Control_c, 0, 64, 93
1, 114814, Control_c, 0, 64, 94
1, 114836, Note_off_c, 0, 64, 61
1, 114843, Control_c, 0, 64, 95
1, 114873, Note_on_c, 0, 65, 79
1, 114932, Note_on_c, 0, 67, 77
1, 114932, Control_c, 0, 64, 95
1, 114948, Control_c, 0, 64, 96
1, 114963, Control_c, 0, 64, 97
1, 114966, Note_off_c, 0, 65, 58
1, 114966, Note_off_c, 0, 67, 64
1, 114968, Note_on_c, 0, 72, 73
1, 114977, Control_c, 0, 64, 99
1, 114992, Control_c, 0, 64, 100
1, 115004, Note_on_c, 0, 75, 78
1, 115007, Control_c, 0, 64, 101
1, 115022, Control_c, 0, 64, 102
1, 115026, Note_off_c, 0, 72, 61
1, 115037, Control_c, 0, 64, 105
1, 115051, Control_c, 0, 64, 108
1, 115057, Note_on_c, 0, 76, 77
1, 115066, Note_off_c, 0, 75, 64
1, 115066, Control_c, 0, 64, 111
1, 115078, Note_off_c, 0, 76, 70
1, 115081, Control_c, 0, 64, 112
1, 115096, Control_c, 0, 64, 112
1, 115111, Control_c, 0, 64, 113
1, 115126, Control_c, 0, 64, 113
1, 115141, Control_c, 0, 64, 114
1, 115156, Control_c, 0, 64, 115
1, 115162, Note_on_c, 0, 88, 93
1, 115185, Control_c, 0, 64, 114
1, 115200, Control_c, 0, 64, 109
1, 115215, Control_c, 0, 64, 101
1, 115230, Control_c, 0, 64, 98
1, 115230, Note_on_c, 0, 91, 73
1, 115261, Note_off_c, 0, 88, 43
1, 115265, Note_on_c, 0, 90, 84
1, 115274, Control_c, 0, 64, 99
1, 115281, Note_off_c, 0, 91, 64
1, 115289, Control_c, 0, 64, 100
1, 115304, Note_on_c, 0, 93, 67
1, 115304, Control_c, 0, 64, 103
1, 115309, Poly_aftertouch_c, 0, 91, 0
1, 115314, Note_off_c, 0, 90, 65
1, 115318, Control_c, 0, 64, 105
1, 115321, Note_on_c, 0, 91, 51
1, 115333, Control_c, 0, 64, 105
1, 115348, Control_c, 0, 64, 104
1, 115356, Note_on_c, 0, 92, 97
1, 115363, Control_c, 0, 64, 101
1, 115376, Control_c, 0, 64, 98
1, 115391, Control_c, 0, 64, 98
1, 115392, Note_off_c, 0, 93, 65
1, 115418, Note_off_c, 0, 91, 38
1, 115466, Control_c, 0, 64, 98
1, 115481, Control_c, 0, 64, 100
1, 115496, Control_c, 0, 64, 101
1, 115511, Control_c, 0, 64, 102
1, 115532, Control_c, 0, 64, 103
1, 115547, Control_c, 0, 64, 104
1, 115562, Control_c, 0, 64, 106
1, 115576, Control_c, 0, 64, 108
1, 115591, Control_c, 0, 64, 111
1, 115606, Control_c, 0, 64, 115
1, 115621, Control_c, 0, 64, 118
1, 115636, Control_c, 0, 64, 122
1, 115651, Control_c, 0, 64, 127
1, 116224, Note_on_c, 0, 96, 87
1, 116235, Note_off_c, 0, 92, 64
1, 116261, Note_on_c, 0, 89, 90
1, 116288, Note_off_c, 0, 96, 67
1, 116315, Note_off_c, 0, 89, 65
1, 116539, Note_on_c, 0, 85, 95
1, 116639, Note_off_c, 0, 85, 64
1, 116652, Note_on_c, 0, 86, 82
1, 116709, Note_off_c, 0, 86, 63
1, 116715, Note_on_c, 0, 88, 82
1, 116737, Note_on_c, 0, 91, 70
1, 116766, Note_off_c, 0, 88, 64
1, 116767, Note_on_c, 0, 89, 87
1, 116795, Note_off_c, 0, 91, 63
1, 116800, Note_off_c, 0, 89, 63
1, 116840, Note_on_c, 0, 100, 90
1, 116885, Note_on_c, 0, 89, 92
1, 116885, Note_off_c, 0, 100, 66
1, 116927, Note_off_c, 0, 89, 64
1, 116947, Note_on_c, 0, 86, 96
1, 117525, Note_off_c, 0, 86, 67
1, 117591, Note_on_c, 0, 86, 88
1, 120135, Note_off_c, 0, 86, 52
1, 120140, Note_on_c, 0, 85, 40
1, 120752, Control_c, 0, 67, 8
1, 120775, Control_c, 0, 67, 8
1, 120789, Control_c, 0, 67, 9
1, 120819, Control_c, 0, 67, 9
1, 120849, Control_c, 0, 67, 10
1, 120878, Control_c, 0, 67, 11
1, 120893, Control_c, 0, 67, 11
1, 120908, Control_c, 0, 67, 12
1, 120922, Control_c, 0, 67, 13
1, 120937, Control_c, 0, 67, 14
1, 120952, Control_c, 0, 67, 16
1, 120967, Control_c, 0, 67, 17
1, 120982, Control_c, 0, 67, 19
1, 120996, Control_c, 0, 67, 20
1, 121011, Control_c, 0, 67, 22
1, 121026, Control_c, 0, 67, 24
1, 121041, Control_c, 0, 67, 26
1, 121056, Control_c, 0, 67, 29
1, 121070, Control_c, 0, 67, 32
1, 121085, Control_c, 0, 67, 34
1, 121100, Control_c, 0, 67, 36
1, 121115, Control_c, 0, 67, 38
1, 121130, Control_c, 0, 67, 41
1, 121144, Control_c, 0, 67, 42
1, 121159, Control_c, 0, 67, 44
1, 121174, Control_c, 0, 67, 45
1, 121189, Control_c, 0, 67, 46
1, 121204, Control_c, 0, 67, 48
1, 121219, Control_c, 0, 67, 49
1, 121234, Control_c, 0, 67, 50
1, 121249, Control_c, 0, 67, 52
1, 121263, Note_off_c, 0, 85, 42
1, 121263, Control_c, 0, 64, 124
1, 121263, Control_c, 0, 67, 54
1, 121278, Control_c, 0, 64, 122
1, 121278, Control_c, 0, 67, 56
1, 121293, Control_c, 0, 64, 121
1, 121293, Control_c, 0, 67, 58
1, 121308, Control_c, 0, 64, 119
1, 121308, Control_c, 0, 67, 60
1, 121322, Control_c, 0, 64, 118
1, 121322, Control_c, 0, 67, 62
1, 121338, Control_c, 0, 64, 116
1, 121338, Control_c, 0, 67, 64
1, 121353, Control_c, 0, 64, 115
1, 121353, Control_c, 0, 67, 67
1, 121367, Control_c, 0, 64, 114
1, 121367, Control_c, 0, 67, 70
1, 121382, Control_c, 0, 64, 113
1, 121382, Control_c, 0, 67, 72
1, 121397, Control_c, 0, 64, 113
1, 121397, Control_c, 0, 67, 75
1, 121411, Control_c, 0, 64, 112
1, 121411, Control_c, 0, 67, 77
1, 121426, Control_c, 0, 64, 112
1, 121426, Control_c, 0, 67, 78
1, 121441, Control_c, 0, 64, 111
1, 121441, Control_c, 0, 67, 80
1, 121456, Control_c, 0, 64, 110
1, 121456, Control_c, 0, 67, 82
1, 121471, Control_c, 0, 64, 110
1, 121471, Control_c, 0, 67, 84
1, 121485, Control_c, 0, 64, 109
1, 121485, Control_c, 0, 67, 85
1, 121500, Control_c, 0, 64, 109
1, 121500, Control_c, 0, 67, 86
1, 121523, Control_c, 0, 64, 108
1, 121523, Control_c, 0, 67, 87
1, 121537, Control_c, 0, 64, 107
1, 121537, Control_c, 0, 67, 88
1, 121552, Control_c, 0, 67, 90
1, 121567, Control_c, 0, 64, 107
1, 121567, Control_c, 0, 67, 91
1, 121582, Control_c, 0, 64, 106
1, 121582, Control_c, 0, 67, 93
1, 121597, Control_c, 0, 64, 105
1, 121597, Control_c, 0, 67, 94
1, 121611, Control_c, 0, 64, 105
1, 121611, Control_c, 0, 67, 95
1, 121626, Control_c, 0, 64, 104
1, 121626, Control_c, 0, 67, 96
1, 121641, Control_c, 0, 67, 97
1, 121656, Control_c, 0, 64, 104
1, 121656, Control_c, 0, 67, 98
1, 121671, Control_c, 0, 64, 103
1, 121671, Control_c, 0, 67, 100
1, 121685, Control_c, 0, 64, 103
1, 121685, Control_c, 0, 67, 101
1, 121700, Control_c, 0, 64, 102
1, 121700, Control_c, 0, 67, 102
1, 121715, Control_c, 0, 67, 103
1, 121730, Control_c, 0, 64, 101
1, 121730, Control_c, 0, 67, 104
1, 121744, Control_c, 0, 64, 101
1, 121744, Control_c, 0, 67, 104
1, 121759, Control_c, 0, 64, 100
1, 121759, Control_c, 0, 67, 105
1, 121774, Control_c, 0, 64, 99
1, 121774, Control_c, 0, 67, 106
1, 121789, Control_c, 0, 64, 99
1, 121789, Control_c, 0, 67, 107
1, 121804, Control_c, 0, 64, 98
1, 121804, Control_c, 0, 67, 108
1, 121818, Control_c, 0, 64, 98
1, 121818, Control_c, 0, 67, 109
1, 121833, Control_c, 0, 64, 97
1, 121833, Control_c, 0, 67, 109
1, 121848, Control_c, 0, 64, 96
1, 121848, Control_c, 0, 67, 110
1, 121863, Control_c, 0, 64, 96
1, 121863, Control_c, 0, 67, 111
1, 121878, Control_c, 0, 67, 112
1, 121893, Control_c, 0, 64, 95
1, 121893, Control_c, 0, 67, 113
1, 121908, Control_c, 0, 64, 95
1, 121908, Control_c, 0, 67, 114
1, 121922, Control_c, 0, 64, 94
1, 121922, Control_c, 0, 67, 115
1, 121937, Control_c, 0, 64, 94
1, 121937, Control_c, 0, 67, 116
1, 121952, Control_c, 0, 64, 93
1, 121952, Control_c, 0, 67, 117
1, 121967, Control_c, 0, 64, 93
1, 121967, Control_c, 0, 67, 117
1, 121982, Control_c, 0, 64, 92
1, 121982, Control_c, 0, 67, 118
1, 121997, Control_c, 0, 64, 92
1, 121997, Control_c, 0, 67, 118
1, 122011, Control_c, 0, 64, 91
1, 122011, Control_c, 0, 67, 119
1, 122026, Control_c, 0, 64, 90
1, 122041, Control_c, 0, 67, 120
1, 122056, Control_c, 0, 64, 90
1, 122056, Control_c, 0, 67, 120
1, 122071, Control_c, 0, 64, 89
1, 122071, Control_c, 0, 67, 121
1, 122085, Control_c, 0, 64, 88
1, 122085, Control_c, 0, 67, 121
1, 122100, Control_c, 0, 64, 88
1, 122100, Control_c, 0, 67, 122
1, 122116, Control_c, 0, 64, 87
1, 122116, Control_c, 0, 67, 122
1, 122131, Control_c, 0, 67, 123
1, 122146, Control_c, 0, 64, 87
1, 122146, Control_c, 0, 67, 123
1, 122161, Control_c, 0, 64, 86
1, 122161, Control_c, 0, 67, 124
1, 122176, Control_c, 0, 64, 85
1, 122176, Control_c, 0, 67, 125
1, 122191, Control_c, 0, 64, 85
1, 122191, Control_c, 0, 67, 125
1, 122206, Control_c, 0, 64, 84
1, 122206, Control_c, 0, 67, 126
1, 122221, Control_c, 0, 67, 126
1, 122235, Control_c, 0, 64, 84
1, 122235, Control_c, 0, 67, 127
1, 122250, Control_c, 0, 64, 83
1, 122250, Control_c, 0, 67, 127
1, 122272, Control_c, 0, 64, 82
1, 122302, Control_c, 0, 64, 82
1, 122331, Control_c, 0, 64, 81
1, 122346, Control_c, 0, 64, 80
1, 122361, Control_c, 0, 64, 80
1, 122390, Control_c, 0, 64, 79
1, 122420, Control_c, 0, 64, 79
1, 122435, Control_c, 0, 64, 78
1, 122450, Control_c, 0, 64, 77
1, 122465, Control_c, 0, 64, 77
1, 122495, Control_c, 0, 64, 76
1, 122509, Control_c, 0, 64, 76
1, 122524, Control_c, 0, 64, 75
1, 122539, Control_c, 0, 64, 75
1, 122554, Control_c, 0, 64, 74
1, 122568, Control_c, 0, 64, 74
1, 122583, Control_c, 0, 64, 73
1, 122628, Control_c, 0, 64, 73
1, 122657, Control_c, 0, 64, 72
1, 122701, Control_c, 0, 64, 72
1, 122716, Control_c, 0, 64, 71
1, 122760, Control_c, 0, 64, 71
1, 122790, Control_c, 0, 64, 70
1, 122805, Control_c, 0, 64, 70
1, 122849, Control_c, 0, 64, 69
1, 122864, Control_c, 0, 64, 69
1, 122894, Control_c, 0, 64, 68
1, 122909, Control_c, 0, 64, 68
1, 122954, Control_c, 0, 64, 67
1, 122999, Control_c, 0, 64, 67
1, 123080, Control_c, 0, 64, 66
1, 123154, Control_c, 0, 64, 66
1, 123213, Control_c, 0, 64, 66
1, 123243, Control_c, 0, 64, 67
1, 123258, Control_c, 0, 64, 67
1, 123288, Control_c, 0, 64, 68
1, 123303, Control_c, 0, 64, 68
1, 123317, Control_c, 0, 64, 69
1, 123332, Control_c, 0, 64, 70
1, 123362, Control_c, 0, 64, 70
1, 123377, Control_c, 0, 64, 71
1, 123391, Control_c, 0, 64, 72
1, 123406, Control_c, 0, 64, 73
1, 123421, Control_c, 0, 64, 74
1, 123436, Control_c, 0, 64, 74
1, 123465, Control_c, 0, 64, 75
1, 123480, Control_c, 0, 64, 76
1, 123495, Control_c, 0, 64, 77
1, 123509, Control_c, 0, 64, 78
1, 123524, Control_c, 0, 64, 78
1, 123539, Control_c, 0, 64, 79
1, 123554, Control_c, 0, 64, 80
1, 123569, Control_c, 0, 64, 81
1, 123583, Control_c, 0, 64, 82
1, 123598, Control_c, 0, 64, 83
1, 123613, Control_c, 0, 64, 84
1, 123628, Control_c, 0, 64, 86
1, 123643, Control_c, 0, 64, 87
1, 123657, Control_c, 0, 64, 88
1, 123672, Control_c, 0, 64, 89
1, 123687, Control_c, 0, 64, 90
1, 123702, Control_c, 0, 64, 91
1, 123717, Control_c, 0, 64, 92
1, 123732, Control_c, 0, 64, 93
1, 123747, Control_c, 0, 64, 95
1, 123770, Control_c, 0, 64, 96
1, 123785, Control_c, 0, 64, 97
1, 123800, Control_c, 0, 64, 98
1, 123814, Control_c, 0, 64, 99
1, 123829, Control_c, 0, 64, 101
1, 123844, Control_c, 0, 64, 102
1, 123859, Control_c, 0, 64, 104
1, 123863, Note_on_c, 0, 88, 45
1, 123874, Control_c, 0, 64, 107
1, 123881, Note_on_c, 0, 73, 34
1, 123888, Control_c, 0, 64, 109
1, 123903, Control_c, 0, 64, 111
1, 123918, Control_c, 0, 64, 114
1, 123933, Control_c, 0, 64, 117
1, 123947, Control_c, 0, 64, 122
1, 123962, Control_c, 0, 64, 127
1, 124168, Note_off_c, 0, 73, 46
1, 124261, Note_on_c, 0, 81, 33
1, 124277, Note_off_c, 0, 88, 41
1, 124391, Note_off_c, 0, 81, 45
1, 124445, Note_on_c, 0, 80, 28
1, 124611, Note_off_c, 0, 80, 44
1, 124614, Note_on_c, 0, 87, 52
1, 124744, Note_off_c, 0, 87, 54
1, 124746, Note_on_c, 0, 54, 29
1, 124771, Note_on_c, 0, 78, 40
1, 124893, Note_off_c, 0, 78, 39
1, 124910, Note_on_c, 0, 76, 41
1, 124978, Control_c, 0, 67, 127
1, 125020, Note_off_c, 0, 76, 51
1, 125023, Control_c, 0, 67, 126
1, 125051, Note_on_c, 0, 83, 54
1, 125052, Control_c, 0, 67, 126
1, 125064, Note_on_c, 0, 61, 31
1, 125081, Control_c, 0, 67, 125
1, 125087, Note_off_c, 0, 54, 39
1, 125141, Control_c, 0, 67, 125
1, 125170, Control_c, 0, 67, 124
1, 125185, Control_c, 0, 67, 124
1, 125187, Note_on_c, 0, 76, 37
1, 125200, Control_c, 0, 67, 123
1, 125207, Note_off_c, 0, 83, 39
1, 125215, Control_c, 0, 67, 123
1, 125244, Control_c, 0, 67, 122
1, 125296, Note_off_c, 0, 61, 41
1, 125296, Control_c, 0, 67, 122
1, 125303, Note_off_c, 0, 76, 47
1, 125326, Control_c, 0, 67, 121
1, 125328, Note_on_c, 0, 64, 35
1, 125346, Note_on_c, 0, 75, 35
1, 125371, Control_c, 0, 67, 121
1, 125416, Control_c, 0, 67, 120
1, 125460, Control_c, 0, 67, 119
1, 125464, Note_on_c, 0, 80, 49
1, 125476, Note_off_c, 0, 75, 43
1, 125519, Control_c, 0, 67, 119
1, 125541, Note_off_c, 0, 64, 42
1, 125564, Control_c, 0, 67, 118
1, 125578, Control_c, 0, 67, 118
1, 125593, Control_c, 0, 67, 117
1, 125600, Note_on_c, 0, 66, 32
1, 125608, Control_c, 0, 67, 117
1, 125612, Note_on_c, 0, 73, 40
1, 125623, Control_c, 0, 67, 116
1, 125629, Note_off_c, 0, 80, 37
1, 125638, Control_c, 0, 67, 116
1, 125653, Control_c, 0, 67, 115
1, 125667, Control_c, 0, 67, 115
1, 125682, Control_c, 0, 67, 114
1, 125697, Control_c, 0, 67, 113
1, 125699, Note_off_c, 0, 73, 40
1, 125726, Control_c, 0, 67, 113
1, 125741, Control_c, 0, 67, 112
1, 125746, Note_on_c, 0, 71, 32
1, 125756, Control_c, 0, 67, 111
1, 125771, Control_c, 0, 67, 111
1, 125786, Control_c, 0, 67, 110
1, 125800, Note_off_c, 0, 71, 46
1, 125815, Control_c, 0, 67, 110
1, 125845, Control_c, 0, 67, 109
1, 125850, Note_on_c, 0, 76, 45
1, 125875, Control_c, 0, 67, 109
1, 125876, Note_on_c, 0, 68, 39
1, 125890, Control_c, 0, 67, 108
1, 125904, Control_c, 0, 67, 107
1, 125919, Control_c, 0, 67, 105
1, 125934, Control_c, 0, 67, 104
1, 125949, Control_c, 0, 67, 102
1, 125964, Control_c, 0, 67, 100
1, 125977, Note_off_c, 0, 66, 34
1, 125978, Control_c, 0, 67, 99
1, 125993, Control_c, 0, 67, 97
1, 125997, Note_on_c, 0, 73, 16
1, 126015, Control_c, 0, 67, 96
1, 126030, Control_c, 0, 67, 94
1, 126045, Control_c, 0, 67, 92
1, 126060, Control_c, 0, 67, 90
1, 126075, Control_c, 0, 67, 89
1, 126085, Note_off_c, 0, 73, 43
1, 126090, Control_c, 0, 67, 88
1, 126105, Control_c, 0, 67, 86
1, 126119, Control_c, 0, 67, 85
1, 126125, Note_on_c, 0, 71, 28
1, 126134, Control_c, 0, 67, 84
1, 126149, Control_c, 0, 67, 83
1, 126164, Control_c, 0, 67, 83
1, 126179, Control_c, 0, 67, 82
1, 126194, Control_c, 0, 67, 82
1, 126209, Control_c, 0, 67, 81
1, 126209, Note_off_c, 0, 71, 41
1, 126224, Control_c, 0, 67, 80
1, 126226, Note_off_c, 0, 68, 37
1, 126239, Control_c, 0, 67, 80
1, 126243, Note_on_c, 0, 75, 41
1, 126254, Control_c, 0, 67, 79
1, 126257, Note_off_c, 0, 76, 38
1, 126269, Control_c, 0, 67, 78
1, 126283, Control_c, 0, 67, 78
1, 126288, Note_on_c, 0, 70, 30
1, 126298, Control_c, 0, 67, 77
1, 126313, Control_c, 0, 67, 77
1, 126327, Control_c, 0, 67, 76
1, 126342, Control_c, 0, 67, 75
1, 126357, Control_c, 0, 67, 74
1, 126372, Control_c, 0, 67, 74
1, 126374, Note_off_c, 0, 70, 51
1, 126380, Note_on_c, 0, 73, 38
1, 126381, Note_off_c, 0, 75, 36
1, 126387, Control_c, 0, 67, 73
1, 126401, Control_c, 0, 67, 73
1, 126431, Control_c, 0, 67, 72
1, 126436, Note_off_c, 0, 73, 59
1, 126497, Note_on_c, 0, 71, 30
1, 126529, Note_off_c, 0, 71, 53
1, 126608, Control_c, 0, 64, 95
1, 126612, Note_on_c, 0, 88, 71
1, 126623, Control_c, 0, 64, 81
1, 126638, Control_c, 0, 64, 76
1, 126645, Note_on_c, 0, 73, 41
1, 126653, Control_c, 0, 64, 78
1, 126668, Control_c, 0, 64, 81
1, 126683, Control_c, 0, 64, 84
1, 126698, Control_c, 0, 64, 89
1, 126713, Control_c, 0, 64, 96
1, 126727, Control_c, 0, 64, 103
1, 126737, Note_off_c, 0, 88, 53
1, 126742, Note_on_c, 0, 81, 55
1, 126742, Control_c, 0, 64, 107
1, 126764, Control_c, 0, 64, 110
1, 126779, Control_c, 0, 64, 112
1, 126794, Control_c, 0, 64, 114
1, 126808, Control_c, 0, 64, 117
1, 126813, Note_off_c, 0, 73, 61
1, 126823, Control_c, 0, 64, 123
1, 126832, Note_off_c, 0, 81, 55
1, 126838, Control_c, 0, 64, 127
1, 126865, Note_on_c, 0, 75, 45
1, 126879, Note_on_c, 0, 80, 46
1, 126890, Note_off_c, 0, 75, 58
1, 126975, Note_on_c, 0, 87, 72
1, 126985, Note_off_c, 0, 80, 38
1, 127079, Note_off_c, 0, 87, 59
1, 127091, Note_on_c, 0, 78, 52
1, 127121, Note_on_c, 0, 54, 37
1, 127136, Control_c, 0, 67, 73
1, 127184, Note_off_c, 0, 78, 58
1, 127225, Note_on_c, 0, 76, 45
1, 127254, Control_c, 0, 64, 123
1, 127269, Control_c, 0, 64, 117
1, 127283, Control_c, 0, 64, 113
1, 127298, Control_c, 0, 64, 111
1, 127313, Control_c, 0, 64, 109
1, 127328, Control_c, 0, 64, 106
1, 127328, Control_c, 0, 67, 73
1, 127343, Control_c, 0, 64, 100
1, 127357, Control_c, 0, 64, 92
1, 127372, Control_c, 0, 64, 81
1, 127383, Note_on_c, 0, 83, 40
1, 127387, Control_c, 0, 64, 68
1, 127389, Note_off_c, 0, 76, 43
1, 127402, Control_c, 0, 64, 62
1, 127404, Note_on_c, 0, 59, 38
1, 127417, Control_c, 0, 64, 64
1, 127422, Note_off_c, 0, 83, 0
1, 127422, Note_on_c, 0, 83, 11
1, 127431, Control_c, 0, 64, 67
1, 127446, Control_c, 0, 64, 68
1, 127461, Control_c, 0, 64, 70
1, 127476, Control_c, 0, 64, 73
1, 127491, Control_c, 0, 64, 76
1, 127513, Control_c, 0, 64, 79
1, 127528, Control_c, 0, 64, 81
1, 127543, Control_c, 0, 64, 83
1, 127557, Control_c, 0, 64, 86
1, 127565, Note_off_c, 0, 83, 57
1, 127572, Control_c, 0, 64, 89
1, 127587, Control_c, 0, 64, 92
1, 127589, Note_on_c, 0, 76, 40
1, 127602, Control_c, 0, 64, 95
1, 127617, Control_c, 0, 64, 97
1, 127631, Control_c, 0, 64, 99
1, 127646, Control_c, 0, 64, 102
1, 127658, Note_off_c, 0, 76, 55
1, 127661, Control_c, 0, 64, 105
1, 127676, Control_c, 0, 64, 109
1, 127690, Note_on_c, 0, 61, 39
1, 127690, Control_c, 0, 64, 112
1, 127695, Note_on_c, 0, 75, 47
1, 127705, Control_c, 0, 64, 118
1, 127720, Control_c, 0, 64, 127
1, 127751, Control_c, 0, 67, 73
1, 127801, Note_on_c, 0, 80, 55
1, 127815, Note_off_c, 0, 54, 40
1, 127824, Note_off_c, 0, 75, 43
1, 127869, Control_c, 0, 67, 72
1, 127873, Note_off_c, 0, 59, 41
1, 127912, Note_off_c, 0, 61, 41
1, 127917, Note_off_c, 0, 80, 51
1, 127922, Note_on_c, 0, 64, 43
1, 127922, Note_on_c, 0, 73, 54
1, 127973, Control_c, 0, 67, 72
1, 128005, Note_off_c, 0, 73, 54
1, 128042, Note_on_c, 0, 71, 46
1, 128111, Note_off_c, 0, 71, 46
1, 128120, Note_off_c, 0, 64, 40
1, 128146, Note_on_c, 0, 76, 57
1, 128173, Note_on_c, 0, 68, 41
1, 128240, Control_c, 0, 67, 71
1, 128277, Note_on_c, 0, 73, 41
1, 128343, Note_off_c, 0, 73, 46
1, 128380, Control_c, 0, 67, 71
1, 128396, Note_on_c, 0, 71, 28
1, 128449, Note_off_c, 0, 68, 54
1, 128459, Note_off_c, 0, 71, 40
1, 128504, Note_on_c, 0, 75, 47
1, 128520, Note_off_c, 0, 76, 40
1, 128532, Note_on_c, 0, 70, 31
1, 128584, Note_off_c, 0, 70, 63
1, 128603, Control_c, 0, 67, 70
1, 128612, Note_on_c, 0, 73, 50
1, 128630, Note_off_c, 0, 75, 37
1, 128679, Note_off_c, 0, 73, 60
1, 128720, Note_on_c, 0, 71, 50
1, 128777, Note_off_c, 0, 71, 58
1, 128869, Note_on_c, 0, 75, 59
1, 128871, Control_c, 0, 64, 114
1, 128886, Control_c, 0, 64, 103
1, 128901, Control_c, 0, 64, 92
1, 128916, Control_c, 0, 64, 78
1, 128930, Control_c, 0, 64, 68
1, 128945, Control_c, 0, 64, 66
1, 128960, Control_c, 0, 64, 68
1, 128975, Control_c, 0, 64, 68
1, 128975, Control_c, 0, 67, 70
1, 128990, Control_c, 0, 64, 69
1, 129011, Control_c, 0, 64, 70
1, 129026, Control_c, 0, 64, 71
1, 129041, Note_on_c, 0, 66, 41
1, 129041, Control_c, 0, 64, 74
1, 129056, Control_c, 0, 64, 75
1, 129071, Control_c, 0, 64, 77
1, 129086, Control_c, 0, 64, 78
1, 129091, Note_off_c, 0, 75, 57
1, 129100, Control_c, 0, 64, 79
1, 129100, Control_c, 0, 67, 69
1, 129115, Control_c, 0, 64, 81
1, 129130, Control_c, 0, 64, 83
1, 129145, Control_c, 0, 64, 86
1, 129148, Note_on_c, 0, 65, 41
1, 129151, Note_on_c, 0, 58, 41
1, 129160, Control_c, 0, 64, 87
1, 129175, Control_c, 0, 64, 89
1, 129190, Control_c, 0, 64, 91
1, 129204, Control_c, 0, 64, 93
1, 129204, Control_c, 0, 67, 69
1, 129205, Note_off_c, 0, 66, 30
1, 129219, Control_c, 0, 64, 95
1, 129234, Control_c, 0, 64, 97
1, 129241, Note_off_c, 0, 65, 39
1, 129248, Note_on_c, 0, 73, 70
1, 129248, Control_c, 0, 64, 99
1, 129248, Control_c, 0, 67, 68
1, 129263, Control_c, 0, 64, 102
1, 129263, Control_c, 0, 67, 67
1, 129278, Control_c, 0, 64, 104
1, 129278, Control_c, 0, 67, 66
1, 129293, Control_c, 0, 64, 105
1, 129293, Control_c, 0, 67, 65
1, 129308, Control_c, 0, 64, 106
1, 129308, Control_c, 0, 67, 64
1, 129324, Control_c, 0, 67, 63
1, 129339, Control_c, 0, 64, 107
1, 129339, Control_c, 0, 67, 61
1, 129353, Control_c, 0, 64, 108
1, 129353, Control_c, 0, 67, 60
1, 129360, Note_on_c, 0, 51, 51
1, 129362, Note_off_c, 0, 58, 32
1, 129368, Control_c, 0, 64, 108
1, 129368, Control_c, 0, 67, 58
1, 129378, Note_on_c, 0, 66, 55
1, 129383, Control_c, 0, 64, 109
1, 129383, Control_c, 0, 67, 57
1, 129398, Control_c, 0, 67, 56
1, 129413, Control_c, 0, 67, 55
1, 129427, Control_c, 0, 67, 54
1, 129442, Control_c, 0, 67, 52
1, 129455, Note_off_c, 0, 66, 36
1, 129457, Control_c, 0, 67, 51
1, 129472, Control_c, 0, 67, 50
1, 129479, Note_on_c, 0, 65, 52
1, 129486, Control_c, 0, 67, 48
1, 129501, Control_c, 0, 67, 46
1, 129516, Control_c, 0, 67, 44
1, 129531, Control_c, 0, 67, 40
1, 129546, Control_c, 0, 67, 36
1, 129560, Control_c, 0, 67, 32
1, 129575, Control_c, 0, 64, 108
1, 129575, Control_c, 0, 67, 29
1, 129581, Note_on_c, 0, 56, 52
1, 129590, Control_c, 0, 64, 107
1, 129590, Control_c, 0, 67, 26
1, 129602, Note_on_c, 0, 70, 60
1, 129604, Control_c, 0, 64, 104
1, 129604, Control_c, 0, 67, 23
1, 129618, Note_off_c, 0, 65, 34
1, 129619, Control_c, 0, 64, 97
1, 129619, Control_c, 0, 67, 20
1, 129634, Control_c, 0, 64, 87
1, 129634, Control_c, 0, 67, 18
1, 129648, Note_off_c, 0, 56, 51
1, 129649, Control_c, 0, 64, 75
1, 129649, Control_c, 0, 67, 16
1, 129661, Note_off_c, 0, 51, 34
1, 129664, Control_c, 0, 64, 64
1, 129664, Control_c, 0, 67, 16
1, 129678, Control_c, 0, 64, 46
1, 129678, Control_c, 0, 67, 15
1, 129691, Note_on_c, 0, 60, 50
1, 129693, Control_c, 0, 64, 53
1, 129693, Control_c, 0, 67, 14
1, 129706, Note_on_c, 0, 66, 50
1, 129708, Control_c, 0, 64, 58
1, 129708, Control_c, 0, 67, 13
1, 129723, Control_c, 0, 64, 60
1, 129723, Control_c, 0, 67, 12
1, 129738, Control_c, 0, 64, 61
1, 129738, Control_c, 0, 67, 11
1, 129759, Control_c, 0, 64, 63
1, 129759, Control_c, 0, 67, 10
1, 129774, Control_c, 0, 64, 64
1, 129774, Control_c, 0, 67, 9
1, 129789, Note_off_c, 0, 66, 52
1, 129789, Control_c, 0, 64, 66
1, 129789, Control_c, 0, 67, 8
1, 129794, Note_off_c, 0, 60, 58
1, 129804, Control_c, 0, 64, 67
1, 129804, Control_c, 0, 67, 0
1, 129813, Note_on_c, 0, 61, 45
1, 129819, Control_c, 0, 64, 68
1, 129822, Note_on_c, 0, 65, 49
1, 129822, Note_off_c, 0, 73, 26
1, 129834, Control_c, 0, 64, 69
1, 129849, Control_c, 0, 64, 70
1, 129864, Control_c, 0, 64, 72
1, 129868, Note_off_c, 0, 70, 31
1, 129878, Control_c, 0, 64, 74
1, 129893, Control_c, 0, 64, 75
1, 129895, Note_off_c, 0, 61, 62
1, 129908, Control_c, 0, 64, 76
1, 129908, Note_off_c, 0, 65, 56
1, 129916, Note_on_c, 0, 68, 59
1, 129923, Control_c, 0, 64, 78
1, 129938, Control_c, 0, 64, 79
1, 129952, Control_c, 0, 64, 81
1, 129967, Control_c, 0, 64, 83
1, 129982, Control_c, 0, 64, 85
1, 129997, Control_c, 0, 64, 87
1, 130012, Control_c, 0, 64, 89
1, 130023, Note_off_c, 0, 68, 54
1, 130026, Control_c, 0, 64, 91
1, 130041, Control_c, 0, 64, 91
1, 130042, Note_on_c, 0, 66, 53
1, 130070, Control_c, 0, 64, 92
1, 130100, Control_c, 0, 64, 92
1, 130106, Note_off_c, 0, 66, 55
1, 130131, Control_c, 0, 64, 92
1, 130135, Note_on_c, 0, 65, 51
1, 130190, Control_c, 0, 64, 90
1, 130205, Control_c, 0, 64, 88
1, 130220, Control_c, 0, 64, 85
1, 130235, Control_c, 0, 64, 80
1, 130244, Note_off_c, 0, 65, 56
1, 130248, Note_on_c, 0, 66, 50
1, 130249, Control_c, 0, 64, 70
1, 130253, Note_on_c, 0, 63, 66
1, 130264, Control_c, 0, 64, 60
1, 130279, Control_c, 0, 64, 23
1, 130294, Control_c, 0, 64, 14
1, 130308, Control_c, 0, 64, 29
1, 130323, Control_c, 0, 64, 43
1, 130338, Control_c, 0, 64, 50
1, 130353, Control_c, 0, 64, 54
1, 130358, Note_off_c, 0, 66, 56
1, 130363, Note_on_c, 0, 68, 51
1, 130368, Control_c, 0, 64, 57
1, 130382, Control_c, 0, 64, 61
1, 130397, Control_c, 0, 64, 64
1, 130412, Control_c, 0, 64, 65
1, 130427, Control_c, 0, 64, 66
1, 130442, Control_c, 0, 64, 68
1, 130453, Note_off_c, 0, 68, 55
1, 130457, Control_c, 0, 64, 69
1, 130467, Note_on_c, 0, 65, 60
1, 130472, Control_c, 0, 64, 70
1, 130487, Control_c, 0, 64, 72
1, 130508, Control_c, 0, 64, 73
1, 130523, Control_c, 0, 64, 74
1, 130538, Control_c, 0, 64, 76
1, 130553, Control_c, 0, 64, 77
1, 130568, Control_c, 0, 64, 78
1, 130578, Note_off_c, 0, 65, 56
1, 130582, Control_c, 0, 64, 80
1, 130591, Note_on_c, 0, 66, 60
1, 130597, Control_c, 0, 64, 81
1, 130607, Note_off_c, 0, 63, 52
1, 130612, Control_c, 0, 64, 82
1, 130627, Control_c, 0, 64, 84
1, 130642, Control_c, 0, 64, 86
1, 130656, Control_c, 0, 64, 88
1, 130670, Note_on_c, 0, 61, 62
1, 130671, Control_c, 0, 64, 89
1, 130686, Control_c, 0, 64, 89
1, 130693, Note_off_c, 0, 66, 57
1, 130694, Note_off_c, 0, 61, 64
1, 130695, Note_on_c, 0, 68, 65
1, 130790, Control_c, 0, 64, 89
1, 130794, Note_off_c, 0, 68, 53
1, 130800, Note_on_c, 0, 65, 55
1, 130805, Control_c, 0, 64, 87
1, 130819, Control_c, 0, 64, 85
1, 130834, Control_c, 0, 64, 82
1, 130849, Control_c, 0, 64, 76
1, 130864, Control_c, 0, 64, 65
1, 130879, Control_c, 0, 64, 0
1, 130895, Note_off_c, 0, 65, 57
1, 130896, Note_on_c, 0, 63, 56
1, 130931, Note_on_c, 0, 67, 52
1, 130951, Note_off_c, 0, 63, 48
1, 131007, Note_off_c, 0, 67, 57
1, 131022, Note_on_c, 0, 68, 57
1, 131087, Control_c, 0, 67, 8
1, 131098, Note_off_c, 0, 68, 60
1, 131102, Control_c, 0, 64, 36
1, 131102, Control_c, 0, 67, 9
1, 131117, Control_c, 0, 64, 45
1, 131117, Control_c, 0, 67, 11
1, 131127, Note_on_c, 0, 58, 39
1, 131131, Control_c, 0, 64, 52
1, 131131, Control_c, 0, 67, 13
1, 131139, Note_on_c, 0, 65, 39
1, 131146, Control_c, 0, 64, 58
1, 131146, Control_c, 0, 67, 15
1, 131161, Control_c, 0, 64, 62
1, 131161, Control_c, 0, 67, 18
1, 131176, Control_c, 0, 64, 64
1, 131176, Control_c, 0, 67, 21
1, 131190, Note_off_c, 0, 65, 59
1, 131190, Control_c, 0, 64, 65
1, 131190, Control_c, 0, 67, 24
1, 131205, Control_c, 0, 64, 66
1, 131205, Control_c, 0, 67, 25
1, 131220, Control_c, 0, 64, 68
1, 131220, Control_c, 0, 67, 28
1, 131230, Note_on_c, 0, 72, 54
1, 131235, Control_c, 0, 64, 70
1, 131235, Control_c, 0, 67, 34
1, 131257, Control_c, 0, 64, 71
1, 131257, Control_c, 0, 67, 38
1, 131272, Control_c, 0, 64, 72
1, 131272, Control_c, 0, 67, 41
1, 131287, Control_c, 0, 64, 73
1, 131287, Control_c, 0, 67, 44
1, 131294, Note_off_c, 0, 58, 60
1, 131302, Control_c, 0, 64, 73
1, 131302, Control_c, 0, 67, 45
1, 131317, Control_c, 0, 64, 74
1, 131317, Control_c, 0, 67, 47
1, 131331, Control_c, 0, 67, 48
1, 131339, Note_off_c, 0, 72, 57
1, 131361, Control_c, 0, 64, 73
1, 131361, Control_c, 0, 67, 49
1, 131362, Note_on_c, 0, 73, 55
1, 131391, Control_c, 0, 64, 72
1, 131405, Control_c, 0, 64, 70
1, 131420, Control_c, 0, 64, 67
1, 131435, Control_c, 0, 64, 64
1, 131449, Control_c, 0, 64, 57
1, 131452, Note_off_c, 0, 73, 59
1, 131464, Control_c, 0, 64, 51
1, 131467, Note_on_c, 0, 65, 43
1, 131479, Control_c, 0, 64, 53
1, 131494, Control_c, 0, 64, 57
1, 131509, Control_c, 0, 64, 59
1, 131523, Note_off_c, 0, 65, 56
1, 131524, Control_c, 0, 64, 62
1, 131524, Control_c, 0, 67, 48
1, 131539, Control_c, 0, 64, 63
1, 131554, Control_c, 0, 64, 65
1, 131554, Control_c, 0, 67, 48
1, 131562, Note_on_c, 0, 63, 42
1, 131569, Control_c, 0, 64, 68
1, 131569, Control_c, 0, 67, 47
1, 131580, Note_on_c, 0, 67, 48
1, 131584, Control_c, 0, 64, 69
1, 131584, Control_c, 0, 67, 47
1, 131598, Control_c, 0, 64, 71
1, 131613, Control_c, 0, 64, 73
1, 131613, Control_c, 0, 67, 46
1, 131625, Note_off_c, 0, 67, 59
1, 131628, Control_c, 0, 64, 74
1, 131629, Note_off_c, 0, 63, 51
1, 131642, Control_c, 0, 64, 76
1, 131642, Control_c, 0, 67, 46
1, 131657, Control_c, 0, 64, 77
1, 131657, Control_c, 0, 67, 45
1, 131672, Control_c, 0, 64, 79
1, 131673, Note_on_c, 0, 65, 48
1, 131687, Control_c, 0, 64, 79
1, 131688, Note_on_c, 0, 68, 53
1, 131700, Note_off_c, 0, 65, 63
1, 131702, Control_c, 0, 64, 80
1, 131702, Control_c, 0, 67, 45
1, 131711, Note_off_c, 0, 68, 60
1, 131718, Control_c, 0, 67, 44
1, 131733, Control_c, 0, 67, 44
1, 131785, Note_on_c, 0, 65, 63
1, 131799, Note_on_c, 0, 61, 50
1, 131807, Control_c, 0, 64, 79
1, 131819, Note_off_c, 0, 65, 61
1, 131821, Control_c, 0, 64, 75
1, 131825, Note_off_c, 0, 61, 57
1, 131836, Control_c, 0, 64, 61
1, 131852, Control_c, 0, 64, 0
1, 131892, Note_on_c, 0, 70, 71
1, 131914, Note_on_c, 0, 63, 43
1, 131923, Note_off_c, 0, 70, 60
1, 131946, Note_off_c, 0, 63, 59
1, 132011, Note_on_c, 0, 65, 56
1, 132016, Note_on_c, 0, 72, 58
1, 132033, Note_off_c, 0, 65, 63
1, 132044, Note_off_c, 0, 72, 65
1, 132052, Control_c, 0, 67, 43
1, 132104, Note_on_c, 0, 65, 65
1, 132125, Note_on_c, 0, 58, 51
1, 132150, Note_off_c, 0, 65, 58
1, 132155, Control_c, 0, 67, 43
1, 132165, Note_off_c, 0, 58, 56
1, 132185, Control_c, 0, 64, 24
1, 132185, Control_c, 0, 67, 42
1, 132200, Control_c, 0, 64, 51
1, 132215, Control_c, 0, 64, 60
1, 132217, Note_on_c, 0, 67, 67
1, 132229, Control_c, 0, 64, 64
1, 132230, Note_on_c, 0, 63, 54
1, 132244, Control_c, 0, 64, 67
1, 132244, Control_c, 0, 67, 42
1, 132256, Note_off_c, 0, 67, 59
1, 132259, Control_c, 0, 64, 69
1, 132272, Note_off_c, 0, 63, 57
1, 132273, Control_c, 0, 64, 72
1, 132288, Control_c, 0, 64, 74
1, 132303, Control_c, 0, 64, 76
1, 132318, Control_c, 0, 64, 79
1, 132323, Note_on_c, 0, 68, 70
1, 132333, Control_c, 0, 64, 81
1, 132333, Control_c, 0, 67, 41
1, 132337, Note_on_c, 0, 65, 56
1, 132347, Note_off_c, 0, 68, 69
1, 132347, Control_c, 0, 64, 81
1, 132362, Note_off_c, 0, 65, 64
1, 132392, Control_c, 0, 64, 79
1, 132407, Control_c, 0, 64, 70
1, 132421, Control_c, 0, 64, 0
1, 132430, Note_on_c, 0, 65, 68
1, 132436, Note_on_c, 0, 61, 50
1, 132457, Note_off_c, 0, 65, 66
1, 132463, Note_off_c, 0, 61, 58
1, 132530, Note_on_c, 0, 70, 74
1, 132542, Note_on_c, 0, 63, 59
1, 132555, Note_off_c, 0, 70, 66
1, 132574, Note_off_c, 0, 63, 64
1, 132629, Control_c, 0, 67, 42
1, 132637, Note_on_c, 0, 72, 70
1, 132641, Note_on_c, 0, 65, 61
1, 132665, Note_off_c, 0, 65, 65
1, 132669, Note_off_c, 0, 72, 59
1, 132730, Note_on_c, 0, 65, 68
1, 132732, Control_c, 0, 67, 41
1, 132762, Note_on_c, 0, 58, 51
1, 132775, Note_off_c, 0, 65, 63
1, 132798, Note_off_c, 0, 58, 60
1, 132799, Control_c, 0, 67, 41
1, 132843, Control_c, 0, 64, 42
1, 132848, Note_on_c, 0, 67, 60
1, 132858, Control_c, 0, 64, 56
1, 132862, Note_on_c, 0, 63, 59
1, 132873, Control_c, 0, 64, 63
1, 132873, Control_c, 0, 67, 40
1, 132882, Note_off_c, 0, 67, 62
1, 132888, Control_c, 0, 64, 66
1, 132902, Control_c, 0, 64, 69
1, 132917, Control_c, 0, 64, 71
1, 132932, Note_off_c, 0, 63, 42
1, 132932, Control_c, 0, 64, 74
1, 132947, Control_c, 0, 64, 78
1, 132953, Note_on_c, 0, 68, 59
1, 132955, Note_on_c, 0, 65, 63
1, 132962, Control_c, 0, 64, 81
1, 132976, Control_c, 0, 64, 84
1, 132976, Control_c, 0, 67, 41
1, 132980, Note_off_c, 0, 68, 65
1, 132983, Note_off_c, 0, 65, 66
1, 132991, Control_c, 0, 64, 86
1, 133006, Control_c, 0, 64, 86
1, 133036, Control_c, 0, 67, 41
1, 133055, Note_on_c, 0, 61, 69
1, 133055, Note_on_c, 0, 65, 71
1, 133065, Control_c, 0, 64, 82
1, 133065, Control_c, 0, 67, 42
1, 133080, Control_c, 0, 64, 68
1, 133083, Note_off_c, 0, 61, 64
1, 133095, Control_c, 0, 64, 0
1, 133097, Note_off_c, 0, 65, 62
1, 133110, Control_c, 0, 67, 42
1, 133125, Control_c, 0, 67, 42
1, 133164, Note_on_c, 0, 70, 82
1, 133170, Note_on_c, 0, 63, 66
1, 133199, Control_c, 0, 67, 42
1, 133204, Note_off_c, 0, 70, 59
1, 133206, Note_off_c, 0, 63, 60
1, 133280, Note_on_c, 0, 65, 57
1, 133286, Note_on_c, 0, 72, 63
1, 133307, Note_off_c, 0, 65, 63
1, 133321, Note_off_c, 0, 72, 58
1, 133348, Control_c, 0, 67, 42
1, 133390, Note_on_c, 0, 65, 61
1, 133412, Note_on_c, 0, 58, 51
1, 133437, Control_c, 0, 67, 41
1, 133452, Control_c, 0, 64, 31
1, 133453, Note_off_c, 0, 58, 58
1, 133460, Note_off_c, 0, 65, 59
1, 133466, Control_c, 0, 64, 51
1, 133481, Control_c, 0, 64, 59
1, 133503, Control_c, 0, 64, 63
1, 133518, Control_c, 0, 64, 65
1, 133533, Control_c, 0, 64, 66
1, 133548, Control_c, 0, 64, 68
1, 133563, Control_c, 0, 64, 69
1, 133566, Note_on_c, 0, 67, 50
1, 133578, Control_c, 0, 64, 71
1, 133582, Note_on_c, 0, 61, 38
1, 133592, Control_c, 0, 64, 73
1, 133607, Control_c, 0, 64, 74
1, 133622, Control_c, 0, 64, 75
1, 133637, Control_c, 0, 64, 77
1, 133651, Control_c, 0, 64, 79
1, 133666, Control_c, 0, 64, 81
1, 133666, Control_c, 0, 67, 41
1, 133681, Control_c, 0, 64, 82
1, 133696, Control_c, 0, 64, 83
1, 133700, Note_off_c, 0, 67, 35
1, 133706, Note_off_c, 0, 61, 25
1, 133711, Control_c, 0, 64, 84
1, 133725, Control_c, 0, 64, 85
1, 133751, Note_on_c, 0, 68, 46
1, 133756, Note_on_c, 0, 63, 44
1, 133786, Note_off_c, 0, 63, 61
1, 133873, Control_c, 0, 64, 84
1, 133888, Control_c, 0, 64, 81
1, 133888, Control_c, 0, 67, 41
1, 133903, Control_c, 0, 64, 75
1, 133905, Note_off_c, 0, 68, 59
1, 133918, Control_c, 0, 64, 68
1, 133920, Note_on_c, 0, 60, 41
1, 133932, Control_c, 0, 64, 63
1, 133938, Note_on_c, 0, 70, 54
1, 133947, Control_c, 0, 64, 65
1, 133962, Control_c, 0, 64, 66
1, 133977, Control_c, 0, 64, 67
1, 133981, Note_off_c, 0, 70, 63
1, 133992, Control_c, 0, 64, 68
1, 134007, Control_c, 0, 64, 70
1, 134014, Note_off_c, 0, 60, 57
1, 134022, Control_c, 0, 64, 72
1, 134037, Control_c, 0, 64, 73
1, 134051, Control_c, 0, 64, 75
1, 134052, Note_on_c, 0, 72, 53
1, 134053, Note_on_c, 0, 58, 42
1, 134066, Control_c, 0, 64, 77
1, 134081, Control_c, 0, 64, 79
1, 134087, Note_off_c, 0, 58, 63
1, 134090, Note_off_c, 0, 72, 59
1, 134096, Control_c, 0, 64, 81
1, 134107, Note_on_c, 0, 56, 51
1, 134111, Control_c, 0, 64, 83
1, 134126, Control_c, 0, 64, 85
1, 134135, Note_off_c, 0, 56, 63
1, 134136, Note_on_c, 0, 73, 58
1, 134141, Control_c, 0, 64, 88
1, 134156, Control_c, 0, 64, 90
1, 134171, Control_c, 0, 64, 93
1, 134174, Note_off_c, 0, 73, 64
1, 134186, Control_c, 0, 64, 94
1, 134187, Note_on_c, 0, 75, 66
1, 134201, Control_c, 0, 64, 96
1, 134202, Note_on_c, 0, 55, 55
1, 134211, Note_off_c, 0, 75, 70
1, 134215, Control_c, 0, 64, 97
1, 134230, Control_c, 0, 64, 98
1, 134230, Control_c, 0, 67, 42
1, 134245, Note_off_c, 0, 55, 63
1, 134269, Note_on_c, 0, 77, 66
1, 134272, Note_on_c, 0, 53, 60
1, 134281, Control_c, 0, 64, 97
1, 134305, Note_off_c, 0, 77, 61
1, 134311, Control_c, 0, 67, 41
1, 134320, Note_on_c, 0, 79, 66
1, 134341, Control_c, 0, 67, 41
1, 134344, Note_off_c, 0, 53, 64
1, 134347, Note_on_c, 0, 51, 59
1, 134356, Control_c, 0, 67, 40
1, 134371, Control_c, 0, 67, 40
1, 134376, Note_off_c, 0, 79, 61
1, 134380, Note_on_c, 0, 80, 53
1, 134386, Note_on_c, 0, 49, 48
1, 134386, Note_off_c, 0, 51, 63
1, 134402, Note_off_c, 0, 80, 63
1, 134404, Note_on_c, 0, 82, 69
1, 134416, Note_off_c, 0, 49, 55
1, 134429, Note_off_c, 0, 82, 68
1, 134467, Note_on_c, 0, 48, 52
1, 134481, Note_on_c, 0, 84, 66
1, 134503, Note_off_c, 0, 48, 52
1, 134515, Note_off_c, 0, 84, 58
1, 134537, Note_on_c, 0, 85, 73
1, 134541, Note_on_c, 0, 46, 48
1, 134573, Note_off_c, 0, 46, 50
1, 134590, Note_off_c, 0, 85, 63
1, 134594, Note_on_c, 0, 87, 84
1, 134612, Note_off_c, 0, 87, 73
1, 134652, Control_c, 0, 64, 96
1, 134666, Control_c, 0, 64, 95
1, 134681, Control_c, 0, 64, 95
1, 134696, Control_c, 0, 64, 93
1, 134696, Control_c, 0, 67, 40
1, 134711, Control_c, 0, 64, 90
1, 134726, Control_c, 0, 64, 85
1, 134740, Control_c, 0, 64, 78
1, 134755, Control_c, 0, 64, 68
1, 134770, Control_c, 0, 64, 47
1, 134785, Note_on_c, 0, 88, 63
1, 134785, Control_c, 0, 64, 0
1, 134795, Note_on_c, 0, 42, 41
1, 134815, Control_c, 0, 64, 41
1, 134830, Control_c, 0, 64, 54
1, 134845, Control_c, 0, 64, 60
1, 134845, Control_c, 0, 67, 40
1, 134860, Control_c, 0, 64, 63
1, 134874, Control_c, 0, 64, 66
1, 134889, Control_c, 0, 64, 68
1, 134904, Control_c, 0, 64, 69
1, 134920, Control_c, 0, 64, 70
1, 134935, Control_c, 0, 64, 72
1, 134950, Control_c, 0, 64, 73
1, 134964, Control_c, 0, 64, 75
1, 134971, Note_off_c, 0, 88, 53
1, 134977, Note_on_c, 0, 81, 43
1, 134979, Control_c, 0, 64, 76
1, 134995, Note_on_c, 0, 47, 33
1, 135002, Control_c, 0, 64, 78
1, 135017, Control_c, 0, 64, 79
1, 135017, Control_c, 0, 67, 39
1, 135025, Note_off_c, 0, 42, 43
1, 135032, Control_c, 0, 64, 81
1, 135046, Control_c, 0, 64, 81
1, 135048, Note_off_c, 0, 47, 49
1, 135048, Note_off_c, 0, 81, 57
1, 135061, Control_c, 0, 64, 83
1, 135076, Control_c, 0, 64, 84
1, 135091, Control_c, 0, 64, 86
1, 135095, Note_on_c, 0, 52, 45
1, 135099, Note_on_c, 0, 80, 45
1, 135105, Control_c, 0, 64, 87
1, 135120, Control_c, 0, 64, 89
1, 135135, Control_c, 0, 64, 89
1, 135145, Note_off_c, 0, 52, 55
1, 135150, Control_c, 0, 64, 90
1, 135179, Control_c, 0, 64, 90
1, 135187, Note_off_c, 0, 80, 45
1, 135207, Note_on_c, 0, 87, 67
1, 135220, Note_on_c, 0, 49, 43
1, 135224, Control_c, 0, 67, 39
1, 135283, Control_c, 0, 67, 38
1, 135310, Note_off_c, 0, 87, 61
1, 135324, Note_on_c, 0, 54, 45
1, 135352, Note_off_c, 0, 49, 35
1, 135368, Note_off_c, 0, 54, 60
1, 135421, Note_on_c, 0, 59, 50
1, 135430, Note_on_c, 0, 76, 47
1, 135446, Control_c, 0, 64, 90
1, 135461, Control_c, 0, 64, 89
1, 135476, Control_c, 0, 64, 89
1, 135480, Note_off_c, 0, 76, 47
1, 135490, Control_c, 0, 64, 87
1, 135505, Control_c, 0, 64, 83
1, 135520, Control_c, 0, 64, 77
1, 135529, Note_off_c, 0, 59, 50
1, 135533, Note_on_c, 0, 83, 61
1, 135535, Control_c, 0, 64, 68
1, 135550, Control_c, 0, 64, 62
1, 135550, Control_c, 0, 67, 39
1, 135554, Note_on_c, 0, 61, 49
1, 135564, Control_c, 0, 64, 64
1, 135579, Control_c, 0, 64, 65
1, 135594, Control_c, 0, 64, 65
1, 135608, Control_c, 0, 64, 67
1, 135623, Control_c, 0, 64, 68
1, 135638, Control_c, 0, 64, 70
1, 135646, Note_off_c, 0, 83, 60
1, 135653, Control_c, 0, 64, 73
1, 135653, Control_c, 0, 67, 38
1, 135661, Note_on_c, 0, 76, 41
1, 135668, Control_c, 0, 64, 74
1, 135682, Control_c, 0, 64, 75
1, 135697, Control_c, 0, 64, 75
1, 135713, Control_c, 0, 64, 76
1, 135728, Control_c, 0, 64, 77
1, 135734, Note_off_c, 0, 76, 42
1, 135751, Control_c, 0, 64, 78
1, 135765, Note_on_c, 0, 75, 50
1, 135766, Control_c, 0, 64, 80
1, 135781, Control_c, 0, 64, 81
1, 135795, Control_c, 0, 64, 82
1, 135810, Control_c, 0, 64, 83
1, 135825, Control_c, 0, 64, 84
1, 135829, Note_off_c, 0, 75, 49
1, 135839, Control_c, 0, 64, 84
1, 135854, Control_c, 0, 64, 85
1, 135868, Note_on_c, 0, 80, 54
1, 135869, Control_c, 0, 64, 86
1, 135884, Control_c, 0, 64, 86
1, 135892, Note_on_c, 0, 63, 42
1, 135914, Control_c, 0, 64, 87
1, 135928, Control_c, 0, 64, 87
1, 135965, Note_off_c, 0, 80, 51
1, 135987, Note_on_c, 0, 73, 44
1, 136047, Note_off_c, 0, 73, 58
1, 136088, Note_on_c, 0, 71, 39
1, 136091, Control_c, 0, 67, 39
1, 136120, Control_c, 0, 67, 39
1, 136135, Control_c, 0, 64, 86
1, 136150, Control_c, 0, 64, 83
1, 136165, Note_off_c, 0, 71, 53
1, 136165, Control_c, 0, 64, 78
1, 136177, Note_off_c, 0, 61, 48
1, 136178, Note_on_c, 0, 64, 40
1, 136180, Control_c, 0, 64, 74
1, 136186, Note_off_c, 0, 63, 51
1, 136195, Control_c, 0, 64, 74
1, 136200, Note_on_c, 0, 76, 49
1, 136210, Control_c, 0, 64, 74
1, 136225, Control_c, 0, 64, 75
1, 136239, Control_c, 0, 64, 76
1, 136254, Control_c, 0, 64, 78
1, 136269, Control_c, 0, 64, 80
1, 136284, Control_c, 0, 64, 82
1, 136299, Control_c, 0, 64, 84
1, 136313, Control_c, 0, 64, 85
1, 136313, Control_c, 0, 67, 40
1, 136322, Note_on_c, 0, 73, 45
1, 136328, Control_c, 0, 64, 87
1, 136335, Note_off_c, 0, 64, 52
1, 136342, Control_c, 0, 64, 89
1, 136357, Control_c, 0, 64, 91
1, 136357, Control_c, 0, 67, 40
1, 136372, Control_c, 0, 64, 93
1, 136372, Control_c, 0, 67, 41
1, 136379, Note_off_c, 0, 73, 50
1, 136386, Control_c, 0, 64, 94
1, 136386, Control_c, 0, 67, 41
1, 136401, Control_c, 0, 64, 95
1, 136401, Control_c, 0, 67, 42
1, 136416, Control_c, 0, 64, 96
1, 136416, Control_c, 0, 67, 42
1, 136423, Note_on_c, 0, 70, 37
1, 136430, Control_c, 0, 64, 97
1, 136430, Control_c, 0, 67, 44
1, 136433, Note_on_c, 0, 66, 39
1, 136445, Control_c, 0, 64, 99
1, 136445, Control_c, 0, 67, 44
1, 136460, Control_c, 0, 64, 100
1, 136460, Control_c, 0, 67, 45
1, 136471, Note_off_c, 0, 70, 46
1, 136475, Control_c, 0, 64, 101
1, 136475, Control_c, 0, 67, 46
1, 136498, Control_c, 0, 64, 102
1, 136498, Control_c, 0, 67, 48
1, 136506, Note_off_c, 0, 76, 43
1, 136507, Note_on_c, 0, 75, 50
1, 136514, Control_c, 0, 64, 103
1, 136514, Control_c, 0, 67, 49
1, 136529, Control_c, 0, 64, 103
1, 136529, Control_c, 0, 67, 50
1, 136543, Control_c, 0, 64, 104
1, 136543, Control_c, 0, 67, 53
1, 136556, Note_off_c, 0, 66, 36
1, 136558, Control_c, 0, 64, 104
1, 136558, Control_c, 0, 67, 58
1, 136573, Control_c, 0, 64, 105
1, 136573, Control_c, 0, 67, 63
1, 136588, Control_c, 0, 64, 106
1, 136588, Control_c, 0, 67, 68
1, 136592, Note_off_c, 0, 75, 51
1, 136603, Control_c, 0, 64, 108
1, 136603, Control_c, 0, 67, 72
1, 136612, Note_on_c, 0, 68, 52
1, 136617, Control_c, 0, 64, 109
1, 136617, Control_c, 0, 67, 77
1, 136624, Note_on_c, 0, 71, 51
1, 136632, Control_c, 0, 64, 109
1, 136632, Control_c, 0, 67, 79
1, 136636, Note_off_c, 0, 68, 58
1, 136647, Control_c, 0, 64, 110
1, 136647, Control_c, 0, 67, 80
1, 136660, Note_off_c, 0, 71, 66
1, 136662, Control_c, 0, 67, 81
1, 136676, Control_c, 0, 64, 110
1, 136720, Note_on_c, 0, 70, 48
1, 136742, Note_off_c, 0, 70, 62
1, 136809, Control_c, 0, 64, 108
1, 136824, Control_c, 0, 64, 99
1, 136839, Control_c, 0, 64, 87
1, 136854, Control_c, 0, 64, 73
1, 136867, Note_on_c, 0, 42, 47
1, 136869, Control_c, 0, 64, 66
1, 136869, Note_on_c, 0, 88, 70
1, 136884, Control_c, 0, 64, 68
1, 136898, Control_c, 0, 64, 71
1, 136898, Control_c, 0, 67, 80
1, 136913, Control_c, 0, 64, 72
1, 136913, Control_c, 0, 67, 80
1, 136928, Control_c, 0, 64, 74
1, 136928, Control_c, 0, 67, 79
1, 136943, Control_c, 0, 64, 78
1, 136943, Control_c, 0, 67, 79
1, 136958, Control_c, 0, 64, 82
1, 136973, Control_c, 0, 64, 85
1, 136973, Control_c, 0, 67, 78
1, 136988, Control_c, 0, 64, 88
1, 136988, Control_c, 0, 67, 78
1, 137003, Control_c, 0, 64, 89
1, 137007, Note_on_c, 0, 47, 34
1, 137007, Note_off_c, 0, 88, 61
1, 137017, Control_c, 0, 64, 90
1, 137018, Note_on_c, 0, 81, 48
1, 137031, Note_off_c, 0, 42, 53
1, 137032, Control_c, 0, 64, 92
1, 137032, Control_c, 0, 67, 77
1, 137047, Control_c, 0, 64, 93
1, 137053, Note_off_c, 0, 47, 58
1, 137061, Control_c, 0, 64, 95
1, 137062, Note_off_c, 0, 81, 59
1, 137076, Control_c, 0, 64, 96
1, 137076, Control_c, 0, 67, 77
1, 137091, Control_c, 0, 64, 97
1, 137095, Note_on_c, 0, 52, 49
1, 137106, Control_c, 0, 64, 99
1, 137112, Note_on_c, 0, 80, 58
1, 137121, Control_c, 0, 64, 101
1, 137135, Control_c, 0, 64, 102
1, 137147, Note_off_c, 0, 52, 55
1, 137150, Control_c, 0, 64, 102
1, 137165, Control_c, 0, 64, 103
1, 137170, Note_off_c, 0, 80, 54
1, 137200, Note_on_c, 0, 87, 77
1, 137209, Control_c, 0, 67, 76
1, 137212, Note_on_c, 0, 49, 51
1, 137291, Control_c, 0, 67, 76
1, 137316, Note_off_c, 0, 87, 63
1, 137325, Note_on_c, 0, 78, 52
1, 137331, Note_on_c, 0, 54, 51
1, 137333, Note_off_c, 0, 49, 51
1, 137352, Control_c, 0, 67, 75
1, 137372, Note_off_c, 0, 78, 57
1, 137375, Note_off_c, 0, 54, 59
1, 137396, Control_c, 0, 67, 75
1, 137420, Note_on_c, 0, 59, 49
1, 137433, Note_on_c, 0, 76, 46
1, 137484, Control_c, 0, 64, 102
1, 137489, Note_off_c, 0, 76, 42
1, 137499, Control_c, 0, 64, 98
1, 137514, Control_c, 0, 64, 91
1, 137529, Control_c, 0, 64, 80
1, 137541, Note_on_c, 0, 83, 70
1, 137544, Control_c, 0, 64, 69
1, 137556, Note_off_c, 0, 59, 36
1, 137558, Control_c, 0, 64, 67
1, 137560, Note_on_c, 0, 61, 44
1, 137573, Control_c, 0, 64, 70
1, 137588, Control_c, 0, 64, 71
1, 137603, Control_c, 0, 64, 73
1, 137618, Control_c, 0, 64, 75
1, 137632, Control_c, 0, 64, 78
1, 137647, Control_c, 0, 64, 82
1, 137662, Control_c, 0, 64, 85
1, 137677, Control_c, 0, 64, 87
1, 137685, Note_on_c, 0, 76, 42
1, 137688, Note_off_c, 0, 83, 57
1, 137691, Control_c, 0, 64, 88
1, 137706, Control_c, 0, 64, 89
1, 137706, Control_c, 0, 67, 74
1, 137721, Control_c, 0, 64, 90
1, 137736, Control_c, 0, 64, 92
1, 137751, Control_c, 0, 64, 93
1, 137755, Note_off_c, 0, 76, 46
1, 137766, Control_c, 0, 64, 94
1, 137772, Note_on_c, 0, 75, 54
1, 137781, Control_c, 0, 64, 95
1, 137796, Control_c, 0, 64, 95
1, 137810, Control_c, 0, 64, 96
1, 137837, Note_off_c, 0, 75, 48
1, 137870, Note_on_c, 0, 80, 68
1, 137888, Note_on_c, 0, 63, 45
1, 137899, Control_c, 0, 64, 96
1, 137989, Note_on_c, 0, 73, 54
1, 137995, Control_c, 0, 67, 74
1, 138011, Note_off_c, 0, 80, 38
1, 138067, Note_off_c, 0, 73, 60
1, 138097, Note_on_c, 0, 71, 44
1, 138130, Control_c, 0, 64, 96
1, 138136, Note_off_c, 0, 61, 29
1, 138145, Control_c, 0, 64, 95
1, 138156, Note_off_c, 0, 71, 46
1, 138159, Control_c, 0, 64, 93
1, 138164, Note_off_c, 0, 63, 56
1, 138174, Control_c, 0, 64, 88
1, 138189, Control_c, 0, 64, 79
1, 138189, Control_c, 0, 67, 74
1, 138199, Note_on_c, 0, 76, 56
1, 138204, Control_c, 0, 64, 69
1, 138207, Note_on_c, 0, 64, 34
1, 138219, Control_c, 0, 64, 60
1, 138233, Control_c, 0, 64, 63
1, 138248, Control_c, 0, 64, 64
1, 138263, Control_c, 0, 64, 65
1, 138278, Control_c, 0, 64, 66
1, 138293, Control_c, 0, 64, 67
1, 138307, Control_c, 0, 64, 70
1, 138322, Control_c, 0, 64, 72
1, 138325, Note_on_c, 0, 73, 42
1, 138337, Control_c, 0, 64, 74
1, 138352, Control_c, 0, 64, 76
1, 138367, Control_c, 0, 64, 77
1, 138381, Control_c, 0, 64, 79
1, 138396, Control_c, 0, 64, 81
1, 138409, Note_off_c, 0, 73, 55
1, 138411, Control_c, 0, 64, 84
1, 138415, Note_off_c, 0, 64, 50
1, 138426, Control_c, 0, 64, 86
1, 138437, Note_on_c, 0, 70, 40
1, 138440, Control_c, 0, 64, 87
1, 138455, Note_on_c, 0, 66, 32
1, 138455, Control_c, 0, 64, 89
1, 138470, Control_c, 0, 64, 90
1, 138485, Control_c, 0, 64, 92
1, 138500, Control_c, 0, 64, 93
1, 138514, Control_c, 0, 64, 95
1, 138524, Note_off_c, 0, 76, 54
1, 138529, Control_c, 0, 64, 96
1, 138544, Control_c, 0, 64, 96
1, 138559, Note_off_c, 0, 70, 37
1, 138572, Note_on_c, 0, 71, 51
1, 138574, Control_c, 0, 64, 97
1, 138604, Control_c, 0, 64, 97
1, 138610, Note_off_c, 0, 66, 41
1, 138619, Control_c, 0, 64, 98
1, 138653, Note_off_c, 0, 71, 59
1, 138683, Note_on_c, 0, 75, 45
1, 138785, Note_off_c, 0, 75, 53
1, 138845, Note_on_c, 0, 68, 32
1, 138983, Control_c, 0, 64, 97
1, 139012, Control_c, 0, 64, 97
1, 139027, Control_c, 0, 64, 96
1, 139042, Control_c, 0, 64, 96
1, 139057, Control_c, 0, 64, 95
1, 139072, Control_c, 0, 64, 94
1, 139078, Note_on_c, 0, 73, 48
1, 139082, Note_off_c, 0, 68, 40
1, 139086, Control_c, 0, 64, 92
1, 139101, Control_c, 0, 64, 89
1, 139116, Control_c, 0, 64, 82
1, 139131, Control_c, 0, 64, 73
1, 139146, Control_c, 0, 64, 64
1, 139161, Control_c, 0, 64, 63
1, 139176, Control_c, 0, 64, 66
1, 139191, Control_c, 0, 64, 67
1, 139205, Control_c, 0, 64, 67
1, 139220, Control_c, 0, 64, 69
1, 139235, Control_c, 0, 64, 72
1, 139250, Control_c, 0, 64, 75
1, 139264, Control_c, 0, 64, 78
1, 139279, Control_c, 0, 64, 79
1, 139294, Control_c, 0, 64, 80
1, 139302, Note_on_c, 0, 70, 43
1, 139309, Control_c, 0, 64, 82
1, 139324, Control_c, 0, 64, 85
1, 139338, Control_c, 0, 64, 88
1, 139353, Control_c, 0, 64, 90
1, 139368, Control_c, 0, 64, 92
1, 139383, Control_c, 0, 64, 94
1, 139394, Note_off_c, 0, 70, 37
1, 139398, Control_c, 0, 64, 96
1, 139412, Control_c, 0, 64, 98
1, 139427, Control_c, 0, 64, 101
1, 139427, Control_c, 0, 67, 74
1, 139442, Control_c, 0, 64, 103
1, 139450, Note_on_c, 0, 65, 35
1, 139456, Control_c, 0, 64, 108
1, 139471, Control_c, 0, 64, 112
1, 139474, Note_on_c, 0, 53, 29
1, 139494, Control_c, 0, 64, 118
1, 139509, Control_c, 0, 64, 127
1, 139538, Control_c, 0, 67, 74
1, 139573, Note_on_c, 0, 75, 53
1, 139579, Note_off_c, 0, 65, 36
1, 139587, Note_off_c, 0, 53, 38
1, 139606, Note_on_c, 0, 46, 37
1, 139647, Note_off_c, 0, 46, 49
1, 139667, Note_off_c, 0, 73, 35
1, 139683, Note_on_c, 0, 44, 37
1, 139695, Note_on_c, 0, 68, 45
1, 139747, Note_off_c, 0, 44, 50
1, 139762, Note_off_c, 0, 68, 56
1, 139765, Note_on_c, 0, 39, 44
1, 139769, Note_off_c, 0, 75, 33
1, 139802, Note_off_c, 0, 39, 50
1, 139806, Note_on_c, 0, 67, 43
1, 139876, Note_off_c, 0, 67, 46
1, 139894, Control_c, 0, 64, 118
1, 139894, Control_c, 0, 67, 75
1, 139909, Control_c, 0, 64, 100
1, 139924, Control_c, 0, 64, 85
1, 139935, Note_on_c, 0, 37, 42
1, 139939, Control_c, 0, 64, 71
1, 139941, Note_on_c, 0, 75, 45
1, 139954, Control_c, 0, 64, 67
1, 139969, Control_c, 0, 64, 70
1, 139984, Control_c, 0, 64, 71
1, 139999, Control_c, 0, 64, 73
1, 140013, Control_c, 0, 64, 75
1, 140028, Control_c, 0, 64, 79
1, 140028, Control_c, 0, 67, 74
1, 140043, Control_c, 0, 64, 84
1, 140058, Control_c, 0, 64, 87
1, 140073, Control_c, 0, 64, 90
1, 140073, Control_c, 0, 67, 74
1, 140082, Note_on_c, 0, 72, 43
1, 140086, Control_c, 0, 64, 92
1, 140101, Control_c, 0, 64, 95
1, 140116, Control_c, 0, 64, 98
1, 140131, Control_c, 0, 64, 102
1, 140131, Control_c, 0, 67, 73
1, 140146, Control_c, 0, 64, 106
1, 140160, Control_c, 0, 64, 109
1, 140175, Control_c, 0, 64, 111
1, 140176, Note_on_c, 0, 44, 53
1, 140190, Control_c, 0, 64, 112
1, 140190, Control_c, 0, 67, 73
1, 140204, Control_c, 0, 64, 114
1, 140207, Note_off_c, 0, 37, 40
1, 140210, Note_on_c, 0, 68, 37
1, 140219, Control_c, 0, 64, 116
1, 140219, Control_c, 0, 67, 72
1, 140242, Control_c, 0, 64, 119
1, 140257, Control_c, 0, 64, 126
1, 140272, Control_c, 0, 64, 127
1, 140303, Note_on_c, 0, 77, 73
1, 140309, Note_off_c, 0, 75, 44
1, 140323, Note_off_c, 0, 68, 37
1, 140325, Note_off_c, 0, 72, 43
1, 140415, Note_off_c, 0, 77, 61
1, 140424, Note_on_c, 0, 73, 60
1, 140432, Note_on_c, 0, 53, 53
1, 140464, Control_c, 0, 67, 73
1, 140486, Note_off_c, 0, 44, 28
1, 140496, Note_off_c, 0, 73, 61
1, 140534, Note_on_c, 0, 70, 52
1, 140569, Control_c, 0, 64, 121
1, 140578, Note_off_c, 0, 53, 47
1, 140583, Control_c, 0, 64, 115
1, 140598, Control_c, 0, 64, 109
1, 140613, Control_c, 0, 64, 104
1, 140628, Control_c, 0, 64, 99
1, 140643, Control_c, 0, 64, 93
1, 140657, Control_c, 0, 64, 85
1, 140669, Note_on_c, 0, 79, 60
1, 140672, Control_c, 0, 64, 75
1, 140674, Note_on_c, 0, 48, 40
1, 140678, Note_off_c, 0, 70, 38
1, 140687, Control_c, 0, 64, 65
1, 140702, Control_c, 0, 64, 35
1, 140717, Control_c, 0, 64, 41
1, 140732, Control_c, 0, 64, 51
1, 140747, Control_c, 0, 64, 56
1, 140762, Control_c, 0, 64, 59
1, 140777, Control_c, 0, 64, 62
1, 140786, Note_off_c, 0, 48, 55
1, 140791, Control_c, 0, 64, 65
1, 140805, Note_on_c, 0, 75, 47
1, 140806, Control_c, 0, 64, 67
1, 140812, Note_on_c, 0, 41, 46
1, 140821, Control_c, 0, 64, 69
1, 140835, Control_c, 0, 64, 71
1, 140850, Control_c, 0, 64, 72
1, 140865, Control_c, 0, 64, 74
1, 140880, Control_c, 0, 64, 76
1, 140895, Control_c, 0, 64, 78
1, 140897, Note_off_c, 0, 75, 55
1, 140909, Control_c, 0, 64, 79
1, 140924, Control_c, 0, 64, 80
1, 140925, Note_on_c, 0, 48, 40
1, 140929, Note_on_c, 0, 72, 37
1, 140939, Control_c, 0, 64, 82
1, 140954, Control_c, 0, 64, 84
1, 140968, Note_off_c, 0, 41, 35
1, 140969, Control_c, 0, 64, 86
1, 140991, Control_c, 0, 64, 88
1, 140991, Control_c, 0, 67, 72
1, 141004, Note_off_c, 0, 48, 55
1, 141006, Control_c, 0, 64, 89
1, 141021, Control_c, 0, 64, 90
1, 141035, Control_c, 0, 64, 91
1, 141050, Control_c, 0, 64, 93
1, 141057, Note_off_c, 0, 72, 34
1, 141065, Control_c, 0, 64, 95
1, 141067, Note_on_c, 0, 77, 47
1, 141073, Note_on_c, 0, 55, 37
1, 141080, Control_c, 0, 64, 96
1, 141124, Control_c, 0, 64, 97
1, 141183, Control_c, 0, 64, 97
1, 141196, Note_off_c, 0, 55, 31
1, 141203, Note_on_c, 0, 80, 49
1, 141209, Note_off_c, 0, 79, 35
1, 141236, Note_on_c, 0, 48, 33
1, 141253, Note_off_c, 0, 77, 29
1, 141257, Control_c, 0, 64, 98
1, 141296, Note_off_c, 0, 48, 41
1, 141331, Note_off_c, 0, 80, 38
1, 141525, Control_c, 0, 64, 97
1, 141540, Control_c, 0, 64, 97
1, 141555, Control_c, 0, 64, 96
1, 141570, Control_c, 0, 64, 95
1, 141585, Control_c, 0, 64, 95
1, 141600, Control_c, 0, 64, 93
1, 141614, Control_c, 0, 64, 92
1, 141629, Control_c, 0, 64, 91
1, 141644, Control_c, 0, 64, 89
1, 141650, Note_on_c, 0, 54, 37
1, 141659, Control_c, 0, 64, 85
1, 141668, Note_on_c, 0, 73, 51
1, 141674, Control_c, 0, 64, 78
1, 141689, Control_c, 0, 64, 69
1, 141704, Control_c, 0, 64, 56
1, 141719, Control_c, 0, 64, 44
1, 141730, Note_off_c, 0, 54, 55
1, 141740, Control_c, 0, 64, 54
1, 141755, Control_c, 0, 64, 60
1, 141770, Control_c, 0, 64, 62
1, 141778, Note_on_c, 0, 46, 42
1, 141784, Control_c, 0, 64, 64
1, 141799, Control_c, 0, 64, 66
1, 141814, Control_c, 0, 64, 69
1, 141829, Control_c, 0, 64, 71
1, 141838, Note_on_c, 0, 70, 40
1, 141844, Control_c, 0, 64, 73
1, 141859, Control_c, 0, 64, 75
1, 141874, Control_c, 0, 64, 77
1, 141889, Control_c, 0, 64, 79
1, 141901, Note_off_c, 0, 70, 57
1, 141903, Control_c, 0, 64, 81
1, 141909, Note_on_c, 0, 54, 44
1, 141918, Control_c, 0, 64, 83
1, 141933, Control_c, 0, 64, 85
1, 141935, Note_off_c, 0, 46, 45
1, 141948, Control_c, 0, 64, 86
1, 141963, Control_c, 0, 64, 87
1, 141966, Note_on_c, 0, 65, 14
1, 141977, Control_c, 0, 64, 89
1, 141992, Control_c, 0, 64, 91
1, 142002, Note_off_c, 0, 73, 18
1, 142007, Control_c, 0, 64, 92
1, 142014, Note_off_c, 0, 65, 49
1, 142017, Note_on_c, 0, 75, 56
1, 142022, Control_c, 0, 64, 94
1, 142037, Control_c, 0, 64, 95
1, 142051, Control_c, 0, 64, 96
1, 142066, Control_c, 0, 64, 97
1, 142081, Control_c, 0, 64, 97
1, 142086, Note_off_c, 0, 54, 55
1, 142119, Note_on_c, 0, 72, 56
1, 142121, Note_on_c, 0, 61, 45
1, 142142, Control_c, 0, 67, 72
1, 142144, Note_off_c, 0, 75, 37
1, 142155, Note_off_c, 0, 61, 59
1, 142191, Note_off_c, 0, 72, 49
1, 142212, Note_on_c, 0, 68, 64
1, 142243, Note_off_c, 0, 68, 63
1, 142274, Control_c, 0, 64, 96
1, 142289, Control_c, 0, 64, 93
1, 142304, Control_c, 0, 64, 84
1, 142319, Control_c, 0, 64, 74
1, 142326, Note_on_c, 0, 52, 53
1, 142332, Note_on_c, 0, 75, 61
1, 142334, Control_c, 0, 64, 64
1, 142349, Control_c, 0, 64, 59
1, 142363, Control_c, 0, 64, 64
1, 142378, Control_c, 0, 64, 65
1, 142393, Control_c, 0, 64, 67
1, 142407, Control_c, 0, 64, 69
1, 142407, Control_c, 0, 67, 71
1, 142420, Note_off_c, 0, 52, 61
1, 142422, Control_c, 0, 64, 73
1, 142431, Note_on_c, 0, 71, 48
1, 142437, Control_c, 0, 64, 76
1, 142437, Control_c, 0, 67, 71
1, 142440, Note_on_c, 0, 59, 53
1, 142452, Control_c, 0, 64, 80
1, 142467, Control_c, 0, 64, 83
1, 142467, Control_c, 0, 67, 70
1, 142468, Note_off_c, 0, 75, 37
1, 142489, Control_c, 0, 64, 85
1, 142489, Control_c, 0, 67, 70
1, 142504, Control_c, 0, 64, 87
1, 142515, Note_off_c, 0, 71, 64
1, 142519, Control_c, 0, 64, 90
1, 142519, Control_c, 0, 67, 69
1, 142529, Note_off_c, 0, 59, 57
1, 142534, Control_c, 0, 64, 93
1, 142543, Note_on_c, 0, 76, 62
1, 142549, Control_c, 0, 64, 96
1, 142549, Control_c, 0, 67, 69
1, 142552, Note_on_c, 0, 70, 48
1, 142562, Note_on_c, 0, 66, 55
1, 142563, Control_c, 0, 64, 98
1, 142563, Control_c, 0, 67, 68
1, 142578, Control_c, 0, 64, 100
1, 142578, Control_c, 0, 67, 67
1, 142593, Control_c, 0, 64, 102
1, 142593, Control_c, 0, 67, 65
1, 142606, Note_off_c, 0, 70, 43
1, 142607, Control_c, 0, 64, 102
1, 142607, Control_c, 0, 67, 63
1, 142608, Note_off_c, 0, 66, 54
1, 142622, Control_c, 0, 67, 61
1, 142637, Control_c, 0, 67, 58
1, 142652, Control_c, 0, 67, 56
1, 142667, Control_c, 0, 67, 54
1, 142672, Note_off_c, 0, 76, 38
1, 142681, Control_c, 0, 67, 52
1, 142696, Control_c, 0, 67, 51
1, 142711, Control_c, 0, 67, 50
1, 142726, Control_c, 0, 64, 102
1, 142726, Control_c, 0, 67, 49
1, 142741, Control_c, 0, 64, 97
1, 142741, Control_c, 0, 67, 49
1, 142756, Control_c, 0, 64, 89
1, 142756, Control_c, 0, 67, 48
1, 142760, Note_on_c, 0, 56, 50
1, 142771, Control_c, 0, 64, 77
1, 142771, Control_c, 0, 67, 48
1, 142773, Note_on_c, 0, 75, 62
1, 142786, Control_c, 0, 64, 63
1, 142786, Control_c, 0, 67, 47
1, 142801, Control_c, 0, 64, 58
1, 142801, Control_c, 0, 67, 46
1, 142815, Control_c, 0, 64, 63
1, 142815, Control_c, 0, 67, 45
1, 142830, Control_c, 0, 64, 65
1, 142830, Control_c, 0, 67, 43
1, 142845, Control_c, 0, 64, 66
1, 142845, Control_c, 0, 67, 41
1, 142847, Note_off_c, 0, 75, 58
1, 142860, Control_c, 0, 64, 68
1, 142860, Control_c, 0, 67, 39
1, 142863, Note_on_c, 0, 71, 59
1, 142875, Control_c, 0, 64, 72
1, 142875, Control_c, 0, 67, 36
1, 142878, Note_on_c, 0, 63, 51
1, 142884, Note_off_c, 0, 56, 52
1, 142889, Control_c, 0, 64, 76
1, 142889, Control_c, 0, 67, 34
1, 142905, Control_c, 0, 64, 79
1, 142905, Control_c, 0, 67, 31
1, 142917, Note_off_c, 0, 71, 60
1, 142920, Control_c, 0, 64, 81
1, 142920, Control_c, 0, 67, 30
1, 142927, Note_off_c, 0, 63, 60
1, 142935, Control_c, 0, 64, 84
1, 142935, Control_c, 0, 67, 28
1, 142948, Note_on_c, 0, 64, 57
1, 142950, Control_c, 0, 64, 87
1, 142950, Control_c, 0, 67, 27
1, 142965, Control_c, 0, 64, 89
1, 142965, Control_c, 0, 67, 26
1, 142970, Note_on_c, 0, 70, 57
1, 142979, Control_c, 0, 64, 92
1, 142979, Control_c, 0, 67, 25
1, 142983, Note_off_c, 0, 64, 65
1, 142994, Control_c, 0, 64, 94
1, 142994, Control_c, 0, 67, 24
1, 143009, Control_c, 0, 64, 96
1, 143009, Control_c, 0, 67, 22
1, 143012, Note_off_c, 0, 70, 57
1, 143023, Control_c, 0, 64, 98
1, 143023, Control_c, 0, 67, 20
1, 143038, Note_on_c, 0, 63, 59
1, 143038, Control_c, 0, 64, 99
1, 143038, Control_c, 0, 67, 19
1, 143053, Control_c, 0, 64, 100
1, 143053, Control_c, 0, 67, 18
1, 143058, Note_on_c, 0, 78, 73
1, 143068, Control_c, 0, 64, 100
1, 143068, Control_c, 0, 67, 17
1, 143083, Control_c, 0, 64, 101
1, 143083, Control_c, 0, 67, 17
1, 143097, Control_c, 0, 64, 101
1, 143097, Control_c, 0, 67, 16
1, 143105, Note_off_c, 0, 63, 55
1, 143105, Note_off_c, 0, 78, 52
1, 143112, Control_c, 0, 64, 103
1, 143112, Control_c, 0, 67, 15
1, 143127, Control_c, 0, 64, 103
1, 143127, Control_c, 0, 67, 15
1, 143142, Control_c, 0, 67, 14
1, 143157, Control_c, 0, 64, 104
1, 143157, Control_c, 0, 67, 13
1, 143161, Note_on_c, 0, 70, 63
1, 143171, Control_c, 0, 67, 12
1, 143186, Control_c, 0, 67, 11
1, 143201, Control_c, 0, 67, 8
1, 143216, Control_c, 0, 67, 0
1, 143263, Note_off_c, 0, 70, 58
1, 143327, Control_c, 0, 64, 101
1, 143342, Control_c, 0, 64, 94
1, 143357, Control_c, 0, 64, 82
1, 143366, Note_on_c, 0, 60, 51
1, 143372, Control_c, 0, 64, 71
1, 143379, Note_on_c, 0, 78, 53
1, 143386, Control_c, 0, 64, 64
1, 143401, Control_c, 0, 64, 65
1, 143416, Control_c, 0, 64, 67
1, 143427, Note_off_c, 0, 78, 52
1, 143430, Control_c, 0, 64, 68
1, 143445, Control_c, 0, 64, 69
1, 143460, Control_c, 0, 64, 71
1, 143462, Note_off_c, 0, 60, 55
1, 143467, Note_on_c, 0, 61, 52
1, 143473, Note_on_c, 0, 72, 48
1, 143475, Control_c, 0, 64, 74
1, 143490, Control_c, 0, 64, 77
1, 143504, Control_c, 0, 64, 80
1, 143516, Note_off_c, 0, 72, 62
1, 143519, Control_c, 0, 64, 82
1, 143534, Control_c, 0, 64, 84
1, 143542, Note_on_c, 0, 66, 65
1, 143546, Note_on_c, 0, 80, 66
1, 143549, Control_c, 0, 64, 87
1, 143564, Control_c, 0, 64, 89
1, 143579, Control_c, 0, 64, 90
1, 143581, Note_off_c, 0, 80, 62
1, 143585, Note_off_c, 0, 61, 53
1, 143594, Control_c, 0, 64, 91
1, 143600, Note_off_c, 0, 66, 55
1, 143609, Control_c, 0, 64, 92
1, 143635, Note_on_c, 0, 75, 72
1, 143637, Note_on_c, 0, 65, 50
1, 143693, Note_off_c, 0, 75, 56
1, 143699, Note_off_c, 0, 65, 55
1, 143707, Note_on_c, 0, 82, 76
1, 143710, Note_on_c, 0, 64, 57
1, 143713, Control_c, 0, 64, 88
1, 143728, Control_c, 0, 64, 80
1, 143743, Control_c, 0, 64, 68
1, 143758, Control_c, 0, 64, 65
1, 143772, Control_c, 0, 64, 68
1, 143787, Control_c, 0, 64, 69
1, 143790, Note_on_c, 0, 69, 63
1, 143791, Note_on_c, 0, 75, 74
1, 143802, Control_c, 0, 64, 72
1, 143804, Note_off_c, 0, 82, 42
1, 143817, Control_c, 0, 64, 75
1, 143832, Control_c, 0, 64, 80
1, 143846, Control_c, 0, 64, 84
1, 143859, Note_off_c, 0, 69, 58
1, 143861, Control_c, 0, 64, 88
1, 143864, Note_off_c, 0, 75, 57
1, 143868, Note_on_c, 0, 85, 73
1, 143876, Control_c, 0, 64, 92
1, 143880, Note_on_c, 0, 66, 58
1, 143891, Control_c, 0, 64, 95
1, 143906, Control_c, 0, 64, 97
1, 143920, Control_c, 0, 64, 98
1, 143935, Control_c, 0, 64, 99
1, 143942, Note_off_c, 0, 64, 39
1, 143946, Note_off_c, 0, 66, 59
1, 143957, Note_off_c, 0, 85, 60
1, 143958, Note_on_c, 0, 67, 64
1, 143969, Note_on_c, 0, 78, 64
1, 144010, Note_off_c, 0, 67, 53
1, 144017, Control_c, 0, 64, 97
1, 144032, Control_c, 0, 64, 82
1, 144047, Control_c, 0, 64, 63
1, 144061, Control_c, 0, 64, 0
1, 144069, Note_off_c, 0, 78, 59
1, 144070, Note_on_c, 0, 72, 58
1, 144082, Note_on_c, 0, 84, 66
1, 144135, Control_c, 0, 64, 49
1, 144150, Control_c, 0, 64, 64
1, 144157, Note_off_c, 0, 72, 63
1, 144165, Control_c, 0, 64, 68
1, 144172, Note_off_c, 0, 84, 63
1, 144179, Control_c, 0, 64, 71
1, 144194, Control_c, 0, 64, 74
1, 144209, Control_c, 0, 64, 78
1, 144224, Control_c, 0, 64, 81
1, 144227, Note_on_c, 0, 72, 55
1, 144239, Control_c, 0, 64, 84
1, 144253, Control_c, 0, 64, 86
1, 144268, Control_c, 0, 64, 88
1, 144283, Control_c, 0, 64, 90
1, 144298, Control_c, 0, 64, 92
1, 144306, Note_off_c, 0, 72, 59
1, 144313, Control_c, 0, 64, 94
1, 144324, Note_on_c, 0, 73, 61
1, 144327, Control_c, 0, 64, 97
1, 144342, Control_c, 0, 64, 99
1, 144357, Note_off_c, 0, 73, 67
1, 144357, Control_c, 0, 64, 101
1, 144372, Control_c, 0, 64, 101
1, 144387, Control_c, 0, 64, 103
1, 144401, Control_c, 0, 64, 106
1, 144404, Note_on_c, 0, 84, 65
1, 144416, Control_c, 0, 64, 110
1, 144425, Note_off_c, 0, 84, 62
1, 144431, Control_c, 0, 64, 113
1, 144446, Control_c, 0, 64, 115
1, 144461, Control_c, 0, 64, 118
1, 144476, Control_c, 0, 64, 127
1, 144503, Note_on_c, 0, 84, 65
1, 144540, Note_off_c, 0, 84, 58
1, 144592, Note_on_c, 0, 72, 55
1, 144655, Note_off_c, 0, 72, 59
1, 144674, Note_on_c, 0, 73, 63
1, 144702, Note_off_c, 0, 73, 65
1, 144742, Note_on_c, 0, 84, 66
1, 144765, Note_off_c, 0, 84, 64
1, 144831, Note_on_c, 0, 84, 74
1, 144872, Note_off_c, 0, 84, 64
1, 144902, Note_on_c, 0, 72, 70
1, 144973, Note_off_c, 0, 72, 61
1, 144984, Note_on_c, 0, 73, 69
1, 145008, Note_off_c, 0, 73, 67
1, 145034, Note_on_c, 0, 84, 74
1, 145061, Note_off_c, 0, 84, 64
1, 145117, Note_on_c, 0, 84, 81
1, 145162, Note_off_c, 0, 84, 63
1, 145188, Note_on_c, 0, 72, 71
1, 145249, Note_off_c, 0, 72, 63
1, 145255, Note_on_c, 0, 73, 75
1, 145283, Note_off_c, 0, 73, 66
1, 145311, Note_on_c, 0, 84, 68
1, 145333, Note_off_c, 0, 84, 69
1, 145342, Note_on_c, 0, 83, 18
1, 145382, Note_off_c, 0, 83, 52
1, 145392, Note_on_c, 0, 84, 84
1, 145430, Note_off_c, 0, 84, 65
1, 145446, Note_on_c, 0, 72, 77
1, 145513, Note_off_c, 0, 72, 64
1, 145516, Note_on_c, 0, 73, 70
1, 145541, Note_off_c, 0, 73, 67
1, 145564, Note_on_c, 0, 84, 73
1, 145597, Note_off_c, 0, 84, 59
1, 145655, Note_on_c, 0, 79, 97
1, 145656, Note_on_c, 0, 84, 76
1, 145686, Note_off_c, 0, 79, 62
1, 145713, Note_off_c, 0, 84, 61
1, 145750, Note_on_c, 0, 72, 71
1, 145802, Note_off_c, 0, 72, 63
1, 145809, Note_on_c, 0, 73, 69
1, 145834, Note_off_c, 0, 73, 66
1, 145871, Note_on_c, 0, 84, 76
1, 145916, Note_off_c, 0, 84, 61
1, 145952, Note_on_c, 0, 75, 95
1, 145971, Note_on_c, 0, 84, 74
1, 145973, Note_off_c, 0, 75, 66
1, 146019, Note_off_c, 0, 84, 67
1, 146045, Note_on_c, 0, 72, 77
1, 146104, Note_on_c, 0, 73, 71
1, 146105, Note_off_c, 0, 72, 63
1, 146122, Note_off_c, 0, 73, 66
1, 146154, Note_on_c, 0, 84, 69
1, 146177, Note_off_c, 0, 84, 70
1, 146237, Note_on_c, 0, 84, 90
1, 146279, Note_off_c, 0, 84, 63
1, 146305, Note_on_c, 0, 72, 75
1, 146359, Note_off_c, 0, 72, 62
1, 146372, Note_on_c, 0, 74, 47
1, 146397, Note_off_c, 0, 74, 59
1, 146404, Note_on_c, 0, 84, 74
1, 146432, Note_off_c, 0, 84, 65
1, 146470, Note_on_c, 0, 79, 98
1, 146484, Note_on_c, 0, 84, 86
1, 146490, Note_off_c, 0, 79, 65
1, 146545, Note_off_c, 0, 84, 53
1, 146556, Note_on_c, 0, 72, 80
1, 146604, Note_on_c, 0, 73, 80
1, 146610, Note_off_c, 0, 72, 63
1, 146625, Note_off_c, 0, 73, 70
1, 146652, Note_on_c, 0, 84, 79
1, 146687, Note_off_c, 0, 84, 57
1, 146732, Note_on_c, 0, 75, 99
1, 146738, Note_on_c, 0, 84, 87
1, 146766, Note_off_c, 0, 75, 62
1, 146801, Note_on_c, 0, 72, 82
1, 146801, Note_off_c, 0, 84, 60
1, 146859, Note_on_c, 0, 73, 82
1, 146861, Note_off_c, 0, 72, 63
1, 146881, Note_off_c, 0, 73, 70
1, 146908, Note_on_c, 0, 84, 88
1, 146945, Note_off_c, 0, 84, 60
1, 146993, Note_on_c, 0, 84, 84
1, 147042, Note_off_c, 0, 84, 62
1, 147052, Note_on_c, 0, 72, 88
1, 147108, Note_on_c, 0, 73, 74
1, 147114, Note_off_c, 0, 72, 65
1, 147125, Note_off_c, 0, 73, 68
1, 147153, Note_on_c, 0, 84, 85
1, 147192, Note_off_c, 0, 84, 64
1, 147231, Note_on_c, 0, 79, 107
1, 147234, Note_on_c, 0, 84, 91
1, 147257, Note_off_c, 0, 79, 70
1, 147299, Note_off_c, 0, 84, 56
1, 147308, Note_on_c, 0, 72, 85
1, 147371, Note_off_c, 0, 72, 64
1, 147376, Note_on_c, 0, 74, 63
1, 147401, Note_off_c, 0, 74, 67
1, 147412, Note_on_c, 0, 84, 82
1, 147434, Note_off_c, 0, 84, 67
1, 147456, Note_on_c, 0, 83, 15
1, 147495, Note_off_c, 0, 83, 54
1, 147502, Note_on_c, 0, 84, 87
1, 147512, Note_on_c, 0, 86, 57
1, 147533, Note_off_c, 0, 86, 65
1, 147549, Note_on_c, 0, 72, 84
1, 147551, Note_off_c, 0, 84, 57
1, 147597, Note_on_c, 0, 73, 84
1, 147609, Note_off_c, 0, 72, 63
1, 147627, Note_off_c, 0, 73, 64
1, 147641, Poly_aftertouch_c, 0, 83, 0
1, 147652, Note_on_c, 0, 84, 90
1, 147692, Note_off_c, 0, 84, 66
1, 147743, Note_on_c, 0, 75, 99
1, 147746, Note_on_c, 0, 84, 96
1, 147769, Note_off_c, 0, 75, 60
1, 147818, Note_off_c, 0, 84, 55
1, 147820, Note_on_c, 0, 72, 89
1, 147883, Note_on_c, 0, 73, 84
1, 147891, Note_off_c, 0, 72, 64
1, 147902, Note_off_c, 0, 73, 72
1, 147940, Note_on_c, 0, 84, 89
1, 147981, Note_off_c, 0, 84, 66
1, 148047, Note_on_c, 0, 84, 111
1, 148374, Note_off_c, 0, 84, 35
1, 148421, Note_on_c, 0, 77, 82
1, 148534, Note_off_c, 0, 77, 52
1, 148535, Note_on_c, 0, 79, 82
1, 148601, Note_on_c, 0, 80, 79
1, 148626, Note_off_c, 0, 79, 61
1, 148632, Note_on_c, 0, 82, 79
1, 148649, Note_off_c, 0, 80, 65
1, 148655, Note_off_c, 0, 82, 69
1, 148697, Note_on_c, 0, 84, 83
1, 148753, Note_on_c, 0, 85, 86
1, 148757, Note_off_c, 0, 84, 63
1, 148795, Note_on_c, 0, 87, 89
1, 148801, Note_off_c, 0, 85, 64
1, 148835, Control_c, 0, 64, 73
1, 148837, Note_off_c, 0, 87, 64
1, 148849, Control_c, 0, 64, 0
1, 148858, Note_on_c, 0, 54, 86
1, 148873, Note_on_c, 0, 88, 97
1, 148909, Control_c, 0, 64, 60
1, 148923, Control_c, 0, 64, 71
1, 148938, Control_c, 0, 64, 80
1, 148953, Control_c, 0, 64, 89
1, 148968, Control_c, 0, 64, 97
1, 148983, Control_c, 0, 64, 101
1, 148988, Note_on_c, 0, 59, 65
1, 148989, Note_on_c, 0, 81, 56
1, 148995, Note_off_c, 0, 88, 62
1, 148998, Control_c, 0, 64, 101
1, 149004, Note_off_c, 0, 54, 62
1, 149013, Control_c, 0, 64, 102
1, 149028, Control_c, 0, 64, 103
1, 149042, Control_c, 0, 64, 108
1, 149048, Note_off_c, 0, 81, 62
1, 149057, Control_c, 0, 64, 124
1, 149068, Note_on_c, 0, 80, 72
1, 149072, Control_c, 0, 64, 127
1, 149081, Note_on_c, 0, 69, 64
1, 149091, Note_on_c, 0, 64, 46
1, 149123, Note_off_c, 0, 80, 61
1, 149123, Note_on_c, 0, 87, 94
1, 149144, Note_off_c, 0, 69, 61
1, 149181, Note_off_c, 0, 64, 62
1, 149198, Note_on_c, 0, 78, 86
1, 149207, Note_off_c, 0, 87, 65
1, 149222, Note_off_c, 0, 59, 59
1, 149269, Note_off_c, 0, 78, 64
1, 149271, Note_on_c, 0, 76, 80
1, 149329, Note_on_c, 0, 83, 92
1, 149340, Note_off_c, 0, 76, 59
1, 149407, Note_on_c, 0, 75, 78
1, 149417, Note_off_c, 0, 83, 58
1, 149472, Note_off_c, 0, 75, 61
1, 149473, Note_on_c, 0, 73, 80
1, 149543, Note_on_c, 0, 80, 82
1, 149543, Note_off_c, 0, 73, 63
1, 149555, Note_on_c, 0, 42, 75
1, 149613, Control_c, 0, 64, 126
1, 149623, Note_on_c, 0, 73, 75
1, 149628, Control_c, 0, 64, 115
1, 149630, Note_off_c, 0, 80, 61
1, 149643, Control_c, 0, 64, 112
1, 149658, Control_c, 0, 64, 109
1, 149672, Control_c, 0, 64, 106
1, 149683, Note_off_c, 0, 73, 63
1, 149684, Note_on_c, 0, 71, 74
1, 149687, Control_c, 0, 64, 104
1, 149702, Control_c, 0, 64, 103
1, 149717, Control_c, 0, 64, 102
1, 149729, Note_off_c, 0, 71, 62
1, 149732, Control_c, 0, 64, 100
1, 149746, Control_c, 0, 64, 96
1, 149761, Control_c, 0, 64, 87
1, 149769, Note_on_c, 0, 76, 74
1, 149776, Control_c, 0, 64, 75
1, 149791, Control_c, 0, 64, 58
1, 149802, Note_on_c, 0, 47, 54
1, 149806, Control_c, 0, 64, 0
1, 149836, Control_c, 0, 64, 52
1, 149851, Control_c, 0, 64, 64
1, 149859, Note_on_c, 0, 69, 64
1, 149863, Note_off_c, 0, 76, 58
1, 149865, Control_c, 0, 64, 69
1, 149880, Control_c, 0, 64, 73
1, 149895, Control_c, 0, 64, 78
1, 149910, Control_c, 0, 64, 82
1, 149924, Control_c, 0, 64, 85
1, 149931, Note_off_c, 0, 69, 62
1, 149939, Control_c, 0, 64, 86
1, 149945, Note_on_c, 0, 68, 61
1, 149954, Control_c, 0, 64, 88
1, 149976, Control_c, 0, 64, 90
1, 149991, Control_c, 0, 64, 92
1, 149998, Note_on_c, 0, 75, 75
1, 150006, Control_c, 0, 64, 96
1, 150011, Note_off_c, 0, 68, 61
1, 150020, Control_c, 0, 64, 99
1, 150029, Note_on_c, 0, 49, 57
1, 150035, Control_c, 0, 64, 102
1, 150050, Control_c, 0, 64, 104
1, 150065, Control_c, 0, 64, 104
1, 150079, Note_off_c, 0, 75, 58
1, 150080, Control_c, 0, 64, 105
1, 150084, Note_on_c, 0, 66, 72
1, 150095, Control_c, 0, 64, 105
1, 150110, Control_c, 0, 64, 108
1, 150125, Control_c, 0, 64, 110
1, 150131, Note_off_c, 0, 42, 59
1, 150140, Control_c, 0, 64, 113
1, 150144, Note_off_c, 0, 66, 61
1, 150152, Note_on_c, 0, 64, 74
1, 150155, Control_c, 0, 64, 114
1, 150158, Note_off_c, 0, 47, 56
1, 150169, Control_c, 0, 64, 114
1, 150183, Note_off_c, 0, 64, 61
1, 150184, Control_c, 0, 64, 112
1, 150185, Note_on_c, 0, 52, 63
1, 150193, Note_off_c, 0, 49, 61
1, 150199, Control_c, 0, 64, 100
1, 150214, Control_c, 0, 64, 92
1, 150222, Note_on_c, 0, 71, 76
1, 150229, Control_c, 0, 64, 89
1, 150247, Note_on_c, 0, 69, 59
1, 150259, Control_c, 0, 64, 90
1, 150271, Note_off_c, 0, 69, 56
1, 150274, Control_c, 0, 64, 92
1, 150289, Control_c, 0, 64, 95
1, 150289, Note_on_c, 0, 64, 64
1, 150303, Control_c, 0, 64, 99
1, 150318, Control_c, 0, 64, 102
1, 150320, Note_off_c, 0, 71, 60
1, 150333, Control_c, 0, 64, 104
1, 150348, Control_c, 0, 64, 105
1, 150350, Note_on_c, 0, 54, 73
1, 150351, Note_off_c, 0, 64, 65
1, 150351, Note_off_c, 0, 52, 62
1, 150357, Note_on_c, 0, 63, 74
1, 150362, Control_c, 0, 64, 106
1, 150377, Note_off_c, 0, 54, 66
1, 150377, Control_c, 0, 64, 108
1, 150392, Control_c, 0, 64, 112
1, 150407, Control_c, 0, 64, 114
1, 150411, Note_on_c, 0, 68, 74
1, 150413, Note_off_c, 0, 63, 59
1, 150421, Control_c, 0, 64, 117
1, 150436, Control_c, 0, 64, 119
1, 150451, Control_c, 0, 64, 124
1, 150466, Note_off_c, 0, 68, 62
1, 150466, Control_c, 0, 64, 127
1, 150496, Note_on_c, 0, 61, 78
1, 150520, Note_off_c, 0, 61, 66
1, 150658, Control_c, 0, 64, 88
1, 150673, Control_c, 0, 64, 0
1, 150684, Note_on_c, 0, 54, 94
1, 150687, Note_on_c, 0, 88, 92
1, 150769, Control_c, 0, 64, 64
1, 150775, Note_on_c, 0, 81, 81
1, 150784, Control_c, 0, 64, 71
1, 150798, Note_on_c, 0, 59, 72
1, 150798, Control_c, 0, 64, 77
1, 150810, Note_off_c, 0, 88, 63
1, 150813, Control_c, 0, 64, 85
1, 150828, Control_c, 0, 64, 92
1, 150831, Note_off_c, 0, 54, 61
1, 150843, Control_c, 0, 64, 97
1, 150850, Note_off_c, 0, 81, 63
1, 150857, Note_on_c, 0, 80, 81
1, 150858, Control_c, 0, 64, 102
1, 150873, Control_c, 0, 64, 108
1, 150874, Note_on_c, 0, 69, 73
1, 150886, Note_on_c, 0, 64, 63
1, 150888, Control_c, 0, 64, 120
1, 150903, Control_c, 0, 64, 127
1, 150918, Note_off_c, 0, 80, 61
1, 150924, Note_on_c, 0, 87, 96
1, 150945, Note_off_c, 0, 69, 61
1, 150973, Note_off_c, 0, 64, 63
1, 150979, Note_off_c, 0, 59, 59
1, 151001, Note_on_c, 0, 78, 88
1, 151001, Note_off_c, 0, 87, 65
1, 151028, Poly_aftertouch_c, 0, 85, 0
1, 151060, Note_on_c, 0, 76, 86
1, 151061, Note_off_c, 0, 78, 64
1, 151129, Note_on_c, 0, 83, 83
1, 151135, Note_off_c, 0, 76, 60
1, 151137, Note_on_c, 0, 84, 72
1, 151153, Note_off_c, 0, 84, 65
1, 151204, Note_on_c, 0, 75, 83
1, 151225, Note_off_c, 0, 83, 57
1, 151272, Note_on_c, 0, 73, 84
1, 151275, Note_off_c, 0, 75, 59
1, 151339, Note_on_c, 0, 80, 85
1, 151349, Note_off_c, 0, 73, 63
1, 151384, Note_on_c, 0, 42, 65
1, 151424, Note_on_c, 0, 73, 78
1, 151436, Note_off_c, 0, 80, 59
1, 151474, Control_c, 0, 64, 123
1, 151489, Control_c, 0, 64, 115
1, 151490, Note_off_c, 0, 73, 63
1, 151492, Note_on_c, 0, 71, 75
1, 151504, Control_c, 0, 64, 111
1, 151518, Control_c, 0, 64, 108
1, 151533, Control_c, 0, 64, 103
1, 151541, Note_off_c, 0, 71, 63
1, 151548, Control_c, 0, 64, 95
1, 151562, Control_c, 0, 64, 83
1, 151577, Control_c, 0, 64, 70
1, 151585, Note_on_c, 0, 76, 77
1, 151592, Control_c, 0, 64, 43
1, 151607, Control_c, 0, 64, 0
1, 151622, Control_c, 0, 64, 52
1, 151634, Note_on_c, 0, 47, 43
1, 151637, Control_c, 0, 64, 60
1, 151651, Control_c, 0, 64, 63
1, 151666, Control_c, 0, 64, 66
1, 151681, Control_c, 0, 64, 69
1, 151684, Note_off_c, 0, 76, 62
1, 151696, Note_on_c, 0, 69, 57
1, 151697, Control_c, 0, 64, 73
1, 151712, Control_c, 0, 64, 77
1, 151727, Control_c, 0, 64, 81
1, 151741, Control_c, 0, 64, 83
1, 151752, Note_off_c, 0, 69, 63
1, 151756, Control_c, 0, 64, 85
1, 151759, Note_on_c, 0, 68, 62
1, 151771, Control_c, 0, 64, 88
1, 151786, Control_c, 0, 64, 91
1, 151800, Control_c, 0, 64, 94
1, 151815, Control_c, 0, 64, 97
1, 151818, Note_on_c, 0, 75, 77
1, 151824, Note_off_c, 0, 68, 62
1, 151830, Control_c, 0, 64, 98
1, 151845, Control_c, 0, 64, 101
1, 151848, Note_on_c, 0, 49, 56
1, 151857, Note_on_c, 0, 73, 39
1, 151860, Control_c, 0, 64, 103
1, 151863, Note_off_c, 0, 42, 54
1, 151875, Control_c, 0, 64, 106
1, 151886, Note_off_c, 0, 75, 61
1, 151889, Control_c, 0, 64, 108
1, 151896, Note_on_c, 0, 66, 77
1, 151904, Control_c, 0, 64, 110
1, 151919, Control_c, 0, 64, 111
1, 151934, Control_c, 0, 64, 112
1, 151945, Note_off_c, 0, 73, 40
1, 151949, Control_c, 0, 64, 113
1, 151960, Note_off_c, 0, 66, 61
1, 151962, Note_on_c, 0, 64, 72
1, 151964, Control_c, 0, 64, 116
1, 151974, Note_off_c, 0, 47, 37
1, 151979, Control_c, 0, 64, 118
1, 151993, Control_c, 0, 64, 119
1, 152008, Control_c, 0, 64, 118
1, 152023, Control_c, 0, 64, 107
1, 152024, Note_off_c, 0, 49, 60
1, 152026, Note_off_c, 0, 64, 57
1, 152030, Note_on_c, 0, 71, 83
1, 152038, Control_c, 0, 64, 92
1, 152043, Note_on_c, 0, 52, 58
1, 152053, Control_c, 0, 64, 79
1, 152067, Control_c, 0, 64, 74
1, 152082, Control_c, 0, 64, 75
1, 152097, Control_c, 0, 64, 78
1, 152112, Control_c, 0, 64, 80
1, 152116, Note_on_c, 0, 64, 71
1, 152127, Control_c, 0, 64, 84
1, 152141, Control_c, 0, 64, 89
1, 152148, Note_off_c, 0, 71, 63
1, 152156, Control_c, 0, 64, 94
1, 152171, Note_off_c, 0, 52, 54
1, 152171, Control_c, 0, 64, 98
1, 152176, Note_off_c, 0, 64, 65
1, 152180, Note_on_c, 0, 63, 73
1, 152185, Control_c, 0, 64, 100
1, 152190, Note_on_c, 0, 54, 60
1, 152200, Control_c, 0, 64, 101
1, 152223, Control_c, 0, 64, 102
1, 152223, Note_off_c, 0, 54, 66
1, 152238, Control_c, 0, 64, 102
1, 152253, Control_c, 0, 64, 103
1, 152253, Note_off_c, 0, 63, 57
1, 152262, Note_on_c, 0, 68, 74
1, 152325, Note_off_c, 0, 68, 60
1, 152354, Note_on_c, 0, 61, 64
1, 152375, Note_off_c, 0, 61, 64
1, 152445, Control_c, 0, 64, 102
1, 152459, Control_c, 0, 64, 99
1, 152474, Control_c, 0, 64, 94
1, 152490, Control_c, 0, 64, 85
1, 152505, Control_c, 0, 64, 74
1, 152520, Control_c, 0, 64, 61
1, 152535, Control_c, 0, 64, 0
1, 152703, Note_on_c, 0, 45, 44
1, 152714, Note_on_c, 0, 88, 60
1, 152742, Control_c, 0, 64, 45
1, 152757, Control_c, 0, 64, 64
1, 152759, Note_off_c, 0, 88, 57
1, 152772, Control_c, 0, 64, 70
1, 152781, Note_on_c, 0, 52, 43
1, 152784, Note_off_c, 0, 45, 62
1, 152787, Control_c, 0, 64, 73
1, 152795, Note_on_c, 0, 83, 58
1, 152802, Control_c, 0, 64, 77
1, 152816, Note_off_c, 0, 52, 62
1, 152816, Control_c, 0, 64, 82
1, 152831, Control_c, 0, 64, 88
1, 152837, Note_on_c, 0, 57, 52
1, 152841, Note_off_c, 0, 83, 57
1, 152846, Control_c, 0, 64, 94
1, 152854, Note_on_c, 0, 92, 65
1, 152861, Control_c, 0, 64, 98
1, 152867, Note_off_c, 0, 57, 63
1, 152876, Control_c, 0, 64, 102
1, 152890, Control_c, 0, 64, 108
1, 152905, Control_c, 0, 64, 114
1, 152920, Control_c, 0, 64, 120
1, 152928, Note_on_c, 0, 90, 73
1, 152931, Note_on_c, 0, 61, 54
1, 152934, Control_c, 0, 64, 124
1, 152943, Note_off_c, 0, 92, 61
1, 152970, Note_off_c, 0, 61, 64
1, 152986, Control_c, 0, 64, 123
1, 152998, Note_off_c, 0, 90, 65
1, 153001, Control_c, 0, 64, 102
1, 153009, Note_on_c, 0, 95, 78
1, 153016, Control_c, 0, 64, 73
1, 153017, Note_on_c, 0, 63, 60
1, 153030, Note_off_c, 0, 95, 71
1, 153031, Control_c, 0, 64, 0
1, 153049, Note_off_c, 0, 63, 64
1, 153219, Note_on_c, 0, 45, 69
1, 153228, Note_on_c, 0, 88, 86
1, 153253, Control_c, 0, 64, 68
1, 153268, Control_c, 0, 64, 78
1, 153284, Control_c, 0, 64, 90
1, 153295, Note_on_c, 0, 52, 74
1, 153299, Control_c, 0, 64, 107
1, 153301, Note_on_c, 0, 83, 84
1, 153305, Note_off_c, 0, 88, 64
1, 153310, Note_off_c, 0, 45, 64
1, 153313, Control_c, 0, 64, 127
1, 153346, Note_off_c, 0, 52, 63
1, 153347, Note_on_c, 0, 57, 70
1, 153368, Note_on_c, 0, 92, 85
1, 153368, Note_off_c, 0, 83, 62
1, 153377, Note_off_c, 0, 57, 65
1, 153439, Note_on_c, 0, 90, 90
1, 153441, Note_on_c, 0, 61, 72
1, 153466, Note_off_c, 0, 92, 64
1, 153493, Note_off_c, 0, 90, 66
1, 153499, Note_off_c, 0, 61, 58
1, 153505, Control_c, 0, 64, 71
1, 153511, Note_on_c, 0, 95, 93
1, 153514, Note_on_c, 0, 63, 73
1, 153520, Control_c, 0, 64, 0
1, 153529, Note_off_c, 0, 95, 73
1, 153538, Note_off_c, 0, 63, 69
1, 153714, Note_on_c, 0, 45, 78
1, 153720, Note_on_c, 0, 88, 97
1, 153735, Control_c, 0, 64, 56
1, 153750, Control_c, 0, 64, 85
1, 153764, Control_c, 0, 64, 127
1, 153785, Note_on_c, 0, 52, 86
1, 153794, Note_on_c, 0, 83, 89
1, 153809, Note_off_c, 0, 88, 66
1, 153819, Note_off_c, 0, 45, 63
1, 153845, Note_on_c, 0, 57, 87
1, 153862, Note_off_c, 0, 52, 63
1, 153875, Note_on_c, 0, 92, 93
1, 153877, Note_off_c, 0, 83, 56
1, 153887, Note_off_c, 0, 57, 63
1, 153949, Note_on_c, 0, 61, 89
1, 153952, Note_on_c, 0, 90, 91
1, 153985, Note_off_c, 0, 92, 65
1, 154023, Note_off_c, 0, 61, 59
1, 154024, Note_on_c, 0, 68, 93
1, 154031, Note_on_c, 0, 93, 79
1, 154033, Note_on_c, 0, 95, 90
1, 154036, Note_off_c, 0, 90, 68
1, 154048, Note_off_c, 0, 93, 72
1, 154048, Note_off_c, 0, 95, 75
1, 154062, Note_off_c, 0, 68, 62
1, 154151, Control_c, 0, 64, 110
1, 154166, Control_c, 0, 64, 76
1, 154180, Control_c, 0, 64, 0
1, 154236, Note_on_c, 0, 49, 91
1, 154241, Note_on_c, 0, 88, 91
1, 154269, Control_c, 0, 64, 61
1, 154284, Control_c, 0, 64, 78
1, 154294, Note_on_c, 0, 48, 7
1, 154295, Note_off_c, 0, 48, 127
1, 154299, Control_c, 0, 64, 91
1, 154315, Control_c, 0, 64, 103
1, 154323, Note_on_c, 0, 81, 88
1, 154325, Note_on_c, 0, 82, 51
1, 154330, Control_c, 0, 64, 105
1, 154340, Note_on_c, 0, 54, 72
1, 154344, Control_c, 0, 64, 106
1, 154345, Note_off_c, 0, 88, 63
1, 154346, Poly_aftertouch_c, 0, 48, 0
1, 154352, Note_off_c, 0, 82, 57
1, 154359, Control_c, 0, 64, 108
1, 154374, Control_c, 0, 64, 113
1, 154388, Control_c, 0, 64, 117
1, 154393, Note_on_c, 0, 56, 71
1, 154396, Note_off_c, 0, 81, 64
1, 154399, Note_on_c, 0, 80, 81
1, 154403, Control_c, 0, 64, 118
1, 154413, Note_off_c, 0, 49, 59
1, 154429, Note_off_c, 0, 54, 63
1, 154465, Note_off_c, 0, 56, 63
1, 154466, Note_on_c, 0, 59, 70
1, 154472, Note_off_c, 0, 80, 63
1, 154483, Note_on_c, 0, 87, 94
1, 154534, Note_off_c, 0, 87, 66
1, 154547, Note_on_c, 0, 61, 79
1, 154553, Note_off_c, 0, 59, 60
1, 154566, Note_on_c, 0, 74, 80
1, 154570, Note_off_c, 0, 61, 67
1, 154588, Note_off_c, 0, 74, 71
1, 154590, Note_on_c, 0, 76, 27
1, 154618, Control_c, 0, 64, 117
1, 154632, Note_off_c, 0, 76, 45
1, 154648, Control_c, 0, 64, 117
1, 154662, Control_c, 0, 64, 113
1, 154677, Control_c, 0, 64, 100
1, 154692, Control_c, 0, 64, 76
1, 154707, Control_c, 0, 64, 0
1, 154748, Note_on_c, 0, 76, 69
1, 154825, Note_on_c, 0, 69, 72
1, 154826, Control_c, 0, 64, 51
1, 154830, Note_off_c, 0, 76, 60
1, 154841, Control_c, 0, 64, 63
1, 154855, Control_c, 0, 64, 68
1, 154870, Control_c, 0, 64, 72
1, 154885, Control_c, 0, 64, 75
1, 154894, Note_off_c, 0, 69, 63
1, 154900, Control_c, 0, 64, 77
1, 154906, Note_on_c, 0, 68, 66
1, 154915, Control_c, 0, 64, 79
1, 154930, Control_c, 0, 64, 81
1, 154940, Note_on_c, 0, 64, 53
1, 154945, Control_c, 0, 64, 83
1, 154960, Control_c, 0, 64, 85
1, 154965, Note_off_c, 0, 68, 54
1, 154975, Control_c, 0, 64, 85
1, 154978, Note_off_c, 0, 64, 64
1, 154990, Note_on_c, 0, 75, 70
1, 154990, Control_c, 0, 64, 86
1, 155004, Control_c, 0, 64, 88
1, 155019, Control_c, 0, 64, 90
1, 155034, Control_c, 0, 64, 92
1, 155049, Control_c, 0, 64, 93
1, 155063, Control_c, 0, 64, 94
1, 155064, Note_off_c, 0, 75, 62
1, 155077, Control_c, 0, 64, 95
1, 155092, Control_c, 0, 64, 97
1, 155106, Note_on_c, 0, 61, 61
1, 155107, Control_c, 0, 64, 99
1, 155112, Note_on_c, 0, 64, 59
1, 155122, Control_c, 0, 64, 100
1, 155136, Control_c, 0, 64, 100
1, 155137, Note_off_c, 0, 61, 64
1, 155139, Note_off_c, 0, 64, 67
1, 155263, Control_c, 0, 64, 100
1, 155307, Control_c, 0, 64, 99
1, 155322, Control_c, 0, 64, 98
1, 155336, Control_c, 0, 64, 96
1, 155351, Control_c, 0, 64, 93
1, 155366, Control_c, 0, 64, 91
1, 155381, Control_c, 0, 64, 88
1, 155396, Control_c, 0, 64, 86
1, 155410, Control_c, 0, 64, 83
1, 155425, Control_c, 0, 64, 80
1, 155440, Control_c, 0, 64, 78
1, 155455, Control_c, 0, 64, 75
1, 155470, Control_c, 0, 64, 73
1, 155484, Control_c, 0, 64, 71
1, 155499, Control_c, 0, 64, 70
1, 155514, Control_c, 0, 64, 68
1, 155529, Control_c, 0, 64, 68
1, 155544, Control_c, 0, 64, 67
1, 155559, Control_c, 0, 64, 66
1, 155574, Control_c, 0, 64, 66
1, 155589, Control_c, 0, 64, 64
1, 155596, Note_on_c, 0, 90, 50
1, 155604, Control_c, 0, 64, 63
1, 155618, Control_c, 0, 64, 51
1, 155633, Control_c, 0, 64, 0
1, 155729, Note_off_c, 0, 90, 58
1, 155736, Note_on_c, 0, 86, 57
1, 155782, Control_c, 0, 64, 43
1, 155797, Control_c, 0, 64, 59
1, 155812, Control_c, 0, 64, 64
1, 155815, Note_off_c, 0, 86, 57
1, 155826, Note_on_c, 0, 38, 39
1, 155826, Control_c, 0, 64, 66
1, 155840, Note_on_c, 0, 93, 74
1, 155841, Control_c, 0, 64, 68
1, 155856, Control_c, 0, 64, 70
1, 155871, Control_c, 0, 64, 71
1, 155886, Control_c, 0, 64, 73
1, 155901, Control_c, 0, 64, 75
1, 155912, Note_off_c, 0, 93, 61
1, 155915, Control_c, 0, 64, 77
1, 155930, Control_c, 0, 64, 79
1, 155941, Note_on_c, 0, 86, 66
1, 155941, Note_on_c, 0, 45, 50
1, 155944, Note_off_c, 0, 38, 50
1, 155945, Control_c, 0, 64, 81
1, 155967, Control_c, 0, 64, 83
1, 155982, Control_c, 0, 64, 84
1, 155985, Note_off_c, 0, 45, 63
1, 155997, Control_c, 0, 64, 86
1, 156012, Control_c, 0, 64, 88
1, 156013, Note_off_c, 0, 86, 63
1, 156027, Control_c, 0, 64, 89
1, 156031, Note_on_c, 0, 50, 62
1, 156041, Control_c, 0, 64, 90
1, 156044, Note_on_c, 0, 97, 79
1, 156056, Control_c, 0, 64, 91
1, 156071, Control_c, 0, 64, 92
1, 156080, Note_off_c, 0, 50, 60
1, 156086, Control_c, 0, 64, 93
1, 156101, Control_c, 0, 64, 94
1, 156115, Control_c, 0, 64, 97
1, 156118, Note_off_c, 0, 97, 65
1, 156130, Control_c, 0, 64, 100
1, 156140, Note_on_c, 0, 54, 54
1, 156145, Note_on_c, 0, 86, 70
1, 156145, Control_c, 0, 64, 103
1, 156159, Control_c, 0, 64, 105
1, 156174, Control_c, 0, 64, 106
1, 156189, Control_c, 0, 64, 108
1, 156204, Control_c, 0, 64, 111
1, 156219, Control_c, 0, 64, 118
1, 156233, Control_c, 0, 64, 127
1, 156237, Note_on_c, 0, 56, 58
1, 156244, Note_off_c, 0, 54, 50
1, 156249, Note_off_c, 0, 86, 38
1, 156260, Note_on_c, 0, 100, 67
1, 156306, Note_off_c, 0, 56, 61
1, 156358, Note_off_c, 0, 100, 59
1, 156449, Note_on_c, 0, 62, 61
1, 156459, Note_on_c, 0, 100, 74
1, 156525, Note_off_c, 0, 100, 59
1, 156528, Note_off_c, 0, 62, 57
1, 156536, Note_on_c, 0, 57, 66
1, 156544, Note_on_c, 0, 86, 78
1, 156630, Note_off_c, 0, 86, 61
1, 156634, Note_off_c, 0, 57, 57
1, 156635, Note_on_c, 0, 64, 81
1, 156638, Note_on_c, 0, 97, 88
1, 156724, Note_on_c, 0, 86, 85
1, 156725, Note_on_c, 0, 57, 82
1, 156726, Note_off_c, 0, 64, 64
1, 156736, Note_off_c, 0, 97, 66
1, 156818, Note_on_c, 0, 66, 90
1, 156820, Note_on_c, 0, 95, 86
1, 156821, Note_off_c, 0, 86, 43
1, 156832, Note_off_c, 0, 57, 60
1, 156844, Poly_aftertouch_c, 0, 62, 127
1, 156849, Note_on_c, 0, 62, 3
1, 156905, Note_on_c, 0, 57, 80
1, 156905, Note_on_c, 0, 86, 93
1, 156906, Note_off_c, 0, 66, 63
1, 156946, Note_off_c, 0, 95, 63
1, 156994, Note_on_c, 0, 68, 95
1, 157002, Note_on_c, 0, 92, 96
1, 157002, Note_off_c, 0, 57, 64
1, 157012, Note_off_c, 0, 86, 64
1, 157076, Note_on_c, 0, 86, 86
1, 157093, Note_off_c, 0, 68, 63
1, 157094, Note_on_c, 0, 57, 79
1, 157175, Note_on_c, 0, 88, 92
1, 157181, Note_on_c, 0, 69, 95
1, 157188, Note_off_c, 0, 86, 65
1, 157191, Note_off_c, 0, 92, 64
1, 157219, Note_off_c, 0, 88, 65
1, 157234, Note_off_c, 0, 69, 66
1, 157282, Note_off_c, 0, 57, 63
1, 157300, Note_off_c, 0, 62, 40
1, 157385, Note_on_c, 0, 90, 102
1, 157389, Note_on_c, 0, 86, 90
1, 157399, Control_c, 0, 64, 92
1, 157413, Control_c, 0, 64, 57
1, 157428, Control_c, 0, 64, 0
1, 157466, Control_c, 0, 64, 40
1, 157478, Note_off_c, 0, 86, 57
1, 157481, Control_c, 0, 64, 65
1, 157486, Note_on_c, 0, 92, 97
1, 157495, Control_c, 0, 64, 75
1, 157510, Control_c, 0, 64, 87
1, 157520, Note_off_c, 0, 90, 63
1, 157525, Control_c, 0, 64, 108
1, 157539, Control_c, 0, 64, 127
1, 157559, Note_on_c, 0, 35, 65
1, 157582, Note_on_c, 0, 93, 100
1, 157604, Note_off_c, 0, 92, 66
1, 157610, Note_off_c, 0, 93, 71
1, 157661, Note_on_c, 0, 45, 74
1, 157661, Note_off_c, 0, 35, 63
1, 157689, Note_off_c, 0, 45, 66
1, 157777, Note_on_c, 0, 52, 72
1, 157780, Note_on_c, 0, 50, 51
1, 157803, Note_off_c, 0, 52, 63
1, 157804, Note_on_c, 0, 78, 83
1, 157804, Note_on_c, 0, 74, 68
1, 157809, Note_off_c, 0, 50, 59
1, 157831, Note_on_c, 0, 76, 51
1, 157858, Note_off_c, 0, 76, 36
1, 157867, Note_off_c, 0, 74, 58
1, 157906, Note_on_c, 0, 80, 83
1, 157938, Note_off_c, 0, 78, 58
1, 158028, Control_c, 0, 64, 109
1, 158039, Note_on_c, 0, 81, 76
1, 158043, Control_c, 0, 64, 83
1, 158054, Note_on_c, 0, 54, 50
1, 158056, Control_c, 0, 64, 60
1, 158059, Note_off_c, 0, 80, 61
1, 158072, Control_c, 0, 64, 0
1, 158146, Control_c, 0, 64, 42
1, 158161, Control_c, 0, 64, 63
1, 158176, Control_c, 0, 64, 68
1, 158191, Control_c, 0, 64, 70
1, 158213, Control_c, 0, 64, 73
1, 158228, Control_c, 0, 64, 75
1, 158233, Note_on_c, 0, 57, 35
1, 158242, Control_c, 0, 64, 79
1, 158257, Control_c, 0, 64, 82
1, 158272, Control_c, 0, 64, 85
1, 158287, Control_c, 0, 64, 86
1, 158302, Control_c, 0, 64, 89
1, 158316, Control_c, 0, 64, 92
1, 158331, Control_c, 0, 64, 97
1, 158337, Note_off_c, 0, 81, 64
1, 158346, Control_c, 0, 64, 101
1, 158361, Control_c, 0, 64, 104
1, 158376, Control_c, 0, 64, 109
1, 158391, Control_c, 0, 64, 117
1, 158406, Control_c, 0, 64, 127
1, 158412, Note_on_c, 0, 62, 42
1, 158477, Note_off_c, 0, 62, 56
1, 158485, Note_on_c, 0, 66, 66
1, 158498, Note_off_c, 0, 57, 39
1, 158519, Note_off_c, 0, 54, 63
1, 158579, Note_on_c, 0, 68, 76
1, 158583, Note_off_c, 0, 66, 58
1, 158647, Note_on_c, 0, 69, 80
1, 158652, Note_off_c, 0, 68, 62
1, 158671, Note_off_c, 0, 69, 66
1, 158731, Note_on_c, 0, 46, 74
1, 158757, Note_on_c, 0, 82, 94
1, 158829, Note_on_c, 0, 73, 92
1, 158830, Note_on_c, 0, 53, 71
1, 158840, Note_off_c, 0, 82, 61
1, 158880, Note_off_c, 0, 46, 60
1, 158901, Note_on_c, 0, 58, 81
1, 158907, Note_off_c, 0, 53, 66
1, 158923, Note_on_c, 0, 70, 90
1, 158932, Note_off_c, 0, 73, 61
1, 158933, Note_off_c, 0, 58, 63
1, 158997, Note_on_c, 0, 80, 91
1, 159008, Note_off_c, 0, 70, 63
1, 159011, Note_on_c, 0, 52, 82
1, 159085, Note_on_c, 0, 76, 87
1, 159109, Note_on_c, 0, 59, 79
1, 159115, Note_off_c, 0, 80, 59
1, 159128, Note_off_c, 0, 52, 58
1, 159160, Note_on_c, 0, 71, 88
1, 159167, Note_off_c, 0, 76, 63
1, 159169, Note_on_c, 0, 64, 85
1, 159177, Note_off_c, 0, 59, 63
1, 159211, Note_off_c, 0, 71, 67
1, 159218, Note_off_c, 0, 64, 65
1, 159228, Control_c, 0, 64, 75
1, 159243, Control_c, 0, 64, 0
1, 159255, Note_on_c, 0, 74, 102
1, 159257, Note_on_c, 0, 55, 92
1, 159264, Note_on_c, 0, 70, 89
1, 159302, Control_c, 0, 64, 54
1, 159317, Control_c, 0, 64, 66
1, 159332, Control_c, 0, 64, 76
1, 159347, Control_c, 0, 64, 88
1, 159360, Note_on_c, 0, 62, 81
1, 159362, Control_c, 0, 64, 104
1, 159376, Control_c, 0, 64, 127
1, 159390, Note_off_c, 0, 70, 56
1, 159437, Note_on_c, 0, 67, 93
1, 159465, Note_off_c, 0, 62, 61
1, 159467, Note_off_c, 0, 67, 57
1, 159476, Note_off_c, 0, 74, 58
1, 159503, Note_off_c, 0, 55, 66
1, 159504, Note_on_c, 0, 70, 91
1, 159513, Note_on_c, 0, 69, 77
1, 159557, Note_off_c, 0, 69, 55
1, 159598, Note_on_c, 0, 73, 82
1, 159626, Note_off_c, 0, 70, 63
1, 159648, Note_on_c, 0, 74, 79
1, 159668, Note_off_c, 0, 73, 64
1, 159675, Note_off_c, 0, 74, 69
1, 159740, Control_c, 0, 64, 96
1, 159755, Control_c, 0, 64, 64
1, 159768, Note_on_c, 0, 36, 85
1, 159770, Control_c, 0, 64, 0
1, 159774, Note_on_c, 0, 90, 99
1, 159780, Note_on_c, 0, 86, 87
1, 159824, Note_off_c, 0, 86, 65
1, 159829, Control_c, 0, 64, 63
1, 159844, Control_c, 0, 64, 73
1, 159859, Control_c, 0, 64, 82
1, 159867, Note_on_c, 0, 92, 93
1, 159873, Control_c, 0, 64, 92
1, 159888, Control_c, 0, 64, 102
1, 159892, Note_off_c, 0, 90, 64
1, 159903, Control_c, 0, 64, 114
1, 159918, Control_c, 0, 64, 127
1, 159924, Note_on_c, 0, 45, 72
1, 159940, Poly_aftertouch_c, 0, 39, 127
1, 159947, Note_on_c, 0, 93, 99
1, 159962, Note_off_c, 0, 36, 59
1, 159969, Note_off_c, 0, 92, 66
1, 159980, Note_off_c, 0, 93, 64
1, 159992, Poly_aftertouch_c, 0, 39, 0
1, 160005, Note_off_c, 0, 45, 61
1, 160018, Note_on_c, 0, 50, 75
1, 160063, Note_off_c, 0, 50, 62
1, 160108, Note_on_c, 0, 52, 72
1, 160119, Note_on_c, 0, 73, 85
1, 160164, Note_on_c, 0, 54, 72
1, 160173, Note_off_c, 0, 52, 61
1, 160188, Note_off_c, 0, 73, 63
1, 160189, Note_on_c, 0, 71, 76
1, 160195, Note_off_c, 0, 54, 68
1, 160209, Note_off_c, 0, 71, 72
1, 160273, Control_c, 0, 64, 101
1, 160281, Note_on_c, 0, 62, 80
1, 160288, Control_c, 0, 64, 72
1, 160289, Note_on_c, 0, 74, 79
1, 160296, Note_on_c, 0, 78, 72
1, 160303, Control_c, 0, 64, 0
1, 160362, Control_c, 0, 64, 63
1, 160366, Note_on_c, 0, 59, 76
1, 160371, Note_on_c, 0, 80, 80
1, 160371, Note_off_c, 0, 62, 60
1, 160376, Note_off_c, 0, 78, 64
1, 160377, Control_c, 0, 64, 69
1, 160386, Note_off_c, 0, 74, 61
1, 160392, Control_c, 0, 64, 73
1, 160406, Control_c, 0, 64, 76
1, 160421, Control_c, 0, 64, 80
1, 160436, Control_c, 0, 64, 85
1, 160452, Note_off_c, 0, 59, 60
1, 160458, Note_on_c, 0, 64, 75
1, 160458, Control_c, 0, 64, 89
1, 160466, Note_on_c, 0, 81, 81
1, 160474, Control_c, 0, 64, 93
1, 160489, Control_c, 0, 64, 97
1, 160493, Note_off_c, 0, 80, 62
1, 160504, Control_c, 0, 64, 102
1, 160519, Control_c, 0, 64, 109
1, 160534, Control_c, 0, 64, 113
1, 160535, Note_off_c, 0, 64, 58
1, 160537, Note_on_c, 0, 66, 82
1, 160548, Control_c, 0, 64, 116
1, 160563, Control_c, 0, 64, 127
1, 160611, Note_on_c, 0, 68, 86
1, 160616, Note_off_c, 0, 81, 53
1, 160636, Note_off_c, 0, 66, 59
1, 160669, Note_off_c, 0, 68, 66
1, 160677, Note_on_c, 0, 69, 86
1, 160701, Note_off_c, 0, 69, 64
1, 160712, Poly_aftertouch_c, 0, 80, 127
1, 160750, Poly_aftertouch_c, 0, 80, 0
1, 160770, Control_c, 0, 64, 98
1, 160783, Note_on_c, 0, 82, 99
1, 160785, Note_on_c, 0, 46, 86
1, 160785, Control_c, 0, 64, 67
1, 160800, Control_c, 0, 64, 0
1, 160844, Control_c, 0, 64, 24
1, 160859, Control_c, 0, 64, 65
1, 160860, Note_on_c, 0, 80, 83
1, 160874, Control_c, 0, 64, 76
1, 160874, Note_on_c, 0, 53, 71
1, 160889, Control_c, 0, 64, 92
1, 160894, Note_off_c, 0, 82, 61
1, 160904, Control_c, 0, 64, 127
1, 160931, Note_off_c, 0, 46, 61
1, 160941, Note_on_c, 0, 54, 83
1, 160947, Note_on_c, 0, 70, 94
1, 160954, Note_off_c, 0, 53, 65
1, 160963, Note_off_c, 0, 80, 62
1, 160965, Note_off_c, 0, 54, 71
1, 160999, Note_off_c, 0, 70, 62
1, 161020, Note_on_c, 0, 80, 91
1, 161034, Note_on_c, 0, 52, 84
1, 161095, Note_on_c, 0, 59, 78
1, 161096, Note_on_c, 0, 76, 87
1, 161134, Note_off_c, 0, 80, 58
1, 161142, Note_off_c, 0, 52, 59
1, 161168, Note_on_c, 0, 64, 87
1, 161169, Note_on_c, 0, 71, 86
1, 161180, Note_off_c, 0, 59, 62
1, 161181, Note_off_c, 0, 76, 67
1, 161217, Note_off_c, 0, 64, 68
1, 161220, Note_off_c, 0, 71, 68
1, 161237, Control_c, 0, 64, 75
1, 161252, Control_c, 0, 64, 0
1, 161266, Note_on_c, 0, 74, 105
1, 161270, Note_on_c, 0, 55, 95
1, 161275, Note_on_c, 0, 70, 93
1, 161282, Control_c, 0, 64, 60
1, 161297, Control_c, 0, 64, 69
1, 161312, Control_c, 0, 64, 80
1, 161327, Control_c, 0, 64, 103
1, 161342, Control_c, 0, 64, 127
1, 161368, Note_on_c, 0, 62, 84
1, 161404, Note_off_c, 0, 70, 58
1, 161449, Note_on_c, 0, 67, 95
1, 161477, Note_off_c, 0, 74, 58
1, 161487, Note_off_c, 0, 67, 66
1, 161490, Note_off_c, 0, 62, 60
1, 161512, Note_on_c, 0, 69, 86
1, 161512, Note_on_c, 0, 70, 91
1, 161530, Note_off_c, 0, 55, 66
1, 161555, Note_off_c, 0, 69, 64
1, 161599, Note_on_c, 0, 73, 83
1, 161628, Note_off_c, 0, 70, 61
1, 161649, Note_on_c, 0, 74, 78
1, 161667, Note_off_c, 0, 73, 63
1, 161675, Note_off_c, 0, 74, 67
1, 161756, Control_c, 0, 64, 76
1, 161771, Control_c, 0, 64, 0
1, 161777, Note_on_c, 0, 36, 90
1, 161782, Note_on_c, 0, 88, 104
1, 161783, Note_on_c, 0, 84, 89
1, 161815, Note_on_c, 0, 86, 44
1, 161816, Note_off_c, 0, 86, 127
1, 161831, Control_c, 0, 64, 52
1, 161835, Note_off_c, 0, 84, 62
1, 161845, Control_c, 0, 64, 70
1, 161860, Control_c, 0, 64, 80
1, 161873, Note_on_c, 0, 90, 95
1, 161875, Control_c, 0, 64, 96
1, 161889, Note_off_c, 0, 88, 63
1, 161890, Control_c, 0, 64, 109
1, 161901, Note_on_c, 0, 43, 74
1, 161904, Control_c, 0, 64, 127
1, 161950, Note_off_c, 0, 36, 60
1, 161954, Note_on_c, 0, 91, 99
1, 161962, Note_on_c, 0, 48, 95
1, 161976, Note_off_c, 0, 90, 66
1, 161982, Note_off_c, 0, 91, 63
1, 161989, Note_off_c, 0, 43, 62
1, 162001, Note_off_c, 0, 48, 67
1, 162062, Note_on_c, 0, 76, 100
1, 162066, Note_on_c, 0, 72, 93
1, 162129, Note_off_c, 0, 72, 49
1, 162149, Note_on_c, 0, 78, 88
1, 162172, Note_off_c, 0, 76, 62
1, 162219, Note_on_c, 0, 79, 92
1, 162248, Note_off_c, 0, 78, 63
1, 162274, Note_off_c, 0, 79, 63
1, 162298, Control_c, 0, 64, 73
1, 162309, Note_on_c, 0, 45, 86
1, 162313, Control_c, 0, 64, 0
1, 162317, Note_on_c, 0, 73, 94
1, 162326, Note_on_c, 0, 69, 81
1, 162367, Note_off_c, 0, 69, 59
1, 162401, Control_c, 0, 64, 50
1, 162404, Note_on_c, 0, 75, 74
1, 162416, Control_c, 0, 64, 65
1, 162431, Control_c, 0, 64, 68
1, 162434, Note_off_c, 0, 73, 61
1, 162446, Control_c, 0, 64, 69
1, 162461, Control_c, 0, 64, 70
1, 162475, Control_c, 0, 64, 70
1, 162477, Note_off_c, 0, 75, 66
1, 162480, Note_on_c, 0, 76, 79
1, 162490, Control_c, 0, 64, 72
1, 162505, Control_c, 0, 64, 75
1, 162519, Control_c, 0, 64, 78
1, 162520, Note_off_c, 0, 76, 63
1, 162534, Control_c, 0, 64, 79
1, 162555, Note_on_c, 0, 52, 69
1, 162564, Control_c, 0, 64, 80
1, 162573, Note_off_c, 0, 45, 62
1, 162579, Control_c, 0, 64, 82
1, 162594, Control_c, 0, 64, 85
1, 162609, Control_c, 0, 64, 87
1, 162618, Note_on_c, 0, 51, 75
1, 162623, Note_off_c, 0, 52, 63
1, 162624, Control_c, 0, 64, 88
1, 162653, Control_c, 0, 64, 86
1, 162668, Control_c, 0, 64, 81
1, 162683, Control_c, 0, 64, 73
1, 162701, Note_on_c, 0, 44, 79
1, 162703, Note_off_c, 0, 51, 63
1, 162705, Control_c, 0, 64, 68
1, 162719, Control_c, 0, 64, 70
1, 162734, Note_off_c, 0, 44, 67
1, 162734, Control_c, 0, 64, 74
1, 162749, Control_c, 0, 64, 77
1, 162764, Control_c, 0, 64, 79
1, 162767, Note_on_c, 0, 59, 80
1, 162779, Control_c, 0, 64, 84
1, 162794, Control_c, 0, 64, 88
1, 162809, Control_c, 0, 64, 91
1, 162823, Control_c, 0, 64, 92
1, 162829, Note_on_c, 0, 57, 86
1, 162829, Note_off_c, 0, 59, 60
1, 162838, Control_c, 0, 64, 92
1, 162853, Control_c, 0, 64, 93
1, 162868, Control_c, 0, 64, 94
1, 162877, Note_off_c, 0, 57, 64
1, 162913, Control_c, 0, 64, 92
1, 162919, Note_on_c, 0, 61, 84
1, 162928, Control_c, 0, 64, 85
1, 162943, Control_c, 0, 64, 70
1, 162958, Control_c, 0, 64, 52
1, 162972, Control_c, 0, 64, 59
1, 162987, Control_c, 0, 64, 65
1, 162996, Note_on_c, 0, 63, 76
1, 163002, Control_c, 0, 64, 68
1, 163017, Control_c, 0, 64, 71
1, 163029, Note_off_c, 0, 61, 61
1, 163032, Control_c, 0, 64, 74
1, 163047, Control_c, 0, 64, 73
1, 163062, Note_on_c, 0, 69, 82
1, 163062, Control_c, 0, 64, 69
1, 163070, Note_on_c, 0, 64, 82
1, 163077, Control_c, 0, 64, 63
1, 163092, Control_c, 0, 64, 59
1, 163100, Note_off_c, 0, 63, 61
1, 163106, Control_c, 0, 64, 64
1, 163121, Control_c, 0, 64, 67
1, 163136, Note_on_c, 0, 71, 92
1, 163136, Control_c, 0, 64, 67
1, 163139, Note_on_c, 0, 66, 80
1, 163140, Note_off_c, 0, 64, 64
1, 163147, Note_off_c, 0, 69, 63
1, 163150, Control_c, 0, 64, 66
1, 163165, Control_c, 0, 64, 64
1, 163195, Control_c, 0, 64, 65
1, 163206, Note_off_c, 0, 66, 54
1, 163210, Control_c, 0, 64, 66
1, 163214, Note_on_c, 0, 73, 90
1, 163220, Note_on_c, 0, 68, 84
1, 163224, Control_c, 0, 64, 64
1, 163233, Note_off_c, 0, 71, 63
1, 163239, Control_c, 0, 64, 62
1, 163254, Control_c, 0, 64, 61
1, 163268, Control_c, 0, 64, 62
1, 163283, Control_c, 0, 64, 63
1, 163293, Note_on_c, 0, 76, 89
1, 163305, Note_off_c, 0, 73, 62
1, 163313, Control_c, 0, 64, 63
1, 163328, Control_c, 0, 64, 62
1, 163342, Control_c, 0, 64, 62
1, 163357, Control_c, 0, 64, 63
1, 163369, Note_on_c, 0, 75, 84
1, 163369, Note_on_c, 0, 69, 75
1, 163402, Control_c, 0, 64, 63
1, 163432, Control_c, 0, 64, 64
1, 163445, Note_off_c, 0, 76, 51
1, 163453, Note_on_c, 0, 73, 90
1, 163454, Control_c, 0, 64, 64
1, 163455, Note_off_c, 0, 69, 64
1, 163501, Note_off_c, 0, 68, 58
1, 163508, Note_off_c, 0, 75, 62
1, 163528, Control_c, 0, 64, 65
1, 163533, Note_on_c, 0, 71, 87
1, 163568, Note_off_c, 0, 73, 63
1, 163572, Control_c, 0, 64, 64
1, 163611, Note_on_c, 0, 69, 89
1, 163622, Note_off_c, 0, 71, 66
1, 163631, Control_c, 0, 64, 63
1, 163646, Control_c, 0, 64, 62
1, 163661, Control_c, 0, 64, 61
1, 163692, Control_c, 0, 64, 62
1, 163695, Note_on_c, 0, 68, 89
1, 163706, Control_c, 0, 64, 62
1, 163724, Note_off_c, 0, 69, 63
1, 163772, Note_on_c, 0, 66, 88
1, 163802, Note_off_c, 0, 68, 61
1, 163810, Control_c, 0, 64, 62
1, 163825, Control_c, 0, 64, 61
1, 163855, Control_c, 0, 64, 62
1, 163857, Note_on_c, 0, 64, 83
1, 163864, Note_off_c, 0, 66, 63
1, 163941, Note_on_c, 0, 63, 77
1, 163949, Note_off_c, 0, 64, 64
1, 164018, Control_c, 0, 64, 61
1, 164025, Note_on_c, 0, 61, 75
1, 164056, Note_off_c, 0, 63, 57
1, 164114, Note_on_c, 0, 59, 60
1, 164129, Note_off_c, 0, 61, 56
1, 164174, Note_on_c, 0, 56, 35
1, 164194, Note_off_c, 0, 59, 60
1, 164215, Note_on_c, 0, 57, 55
1, 164293, Note_off_c, 0, 57, 55
1, 164303, Note_on_c, 0, 61, 62
1, 164307, Control_c, 0, 64, 59
1, 164322, Control_c, 0, 64, 54
1, 164337, Control_c, 0, 64, 47
1, 164367, Control_c, 0, 64, 51
1, 164380, Note_off_c, 0, 61, 57
1, 164381, Control_c, 0, 64, 54
1, 164396, Control_c, 0, 64, 57
1, 164404, Note_on_c, 0, 59, 47
1, 164411, Control_c, 0, 64, 60
1, 164426, Control_c, 0, 64, 62
1, 164433, Note_off_c, 0, 56, 46
1, 164440, Control_c, 0, 64, 63
1, 164443, Note_off_c, 0, 59, 60
1, 164454, Note_on_c, 0, 57, 35
1, 164455, Control_c, 0, 64, 64
1, 164471, Control_c, 0, 64, 64
1, 164486, Control_c, 0, 64, 65
1, 164501, Control_c, 0, 64, 66
1, 164515, Control_c, 0, 64, 67
1, 164530, Control_c, 0, 64, 67
1, 164545, Control_c, 0, 64, 68
1, 164560, Control_c, 0, 64, 68
1, 164575, Control_c, 0, 64, 69
1, 164589, Control_c, 0, 64, 70
1, 164604, Control_c, 0, 64, 71
1, 164610, Note_off_c, 0, 57, 50
1, 164619, Control_c, 0, 64, 72
1, 164633, Note_on_c, 0, 56, 33
1, 164634, Control_c, 0, 64, 73
1, 164649, Control_c, 0, 64, 74
1, 164663, Control_c, 0, 64, 75
1, 164678, Control_c, 0, 64, 77
1, 164693, Control_c, 0, 64, 79
1, 164708, Control_c, 0, 64, 80
1, 164722, Control_c, 0, 64, 82
1, 164737, Control_c, 0, 64, 83
1, 164752, Control_c, 0, 64, 85
1, 164767, Control_c, 0, 64, 87
1, 164782, Control_c, 0, 64, 89
1, 164789, Note_off_c, 0, 56, 55
1, 164797, Control_c, 0, 64, 91
1, 164812, Control_c, 0, 64, 93
1, 164827, Control_c, 0, 64, 95
1, 164841, Control_c, 0, 64, 84
1, 164856, Control_c, 0, 64, 50
1, 164863, Note_on_c, 0, 84, 87
1, 164864, Note_on_c, 0, 88, 101
1, 164871, Control_c, 0, 64, 0
1, 164951, Note_off_c, 0, 84, 61
1, 164952, Control_c, 0, 64, 34
1, 164967, Control_c, 0, 64, 65
1, 164975, Note_on_c, 0, 90, 91
1, 164982, Control_c, 0, 64, 73
1, 164996, Control_c, 0, 64, 80
1, 164998, Note_off_c, 0, 88, 64
1, 165011, Control_c, 0, 64, 89
1, 165026, Control_c, 0, 64, 100
1, 165041, Control_c, 0, 64, 115
1, 165043, Note_on_c, 0, 91, 103
1, 165056, Control_c, 0, 64, 127
1, 165073, Note_off_c, 0, 90, 65
1, 165078, Note_off_c, 0, 91, 71
1, 165109, Note_on_c, 0, 52, 79
1, 165109, Note_on_c, 0, 60, 87
1, 165199, Note_off_c, 0, 60, 59
1, 165207, Note_on_c, 0, 54, 78
1, 165218, Note_on_c, 0, 71, 97
1, 165247, Note_off_c, 0, 52, 57
1, 165268, Note_off_c, 0, 71, 67
1, 165298, Note_on_c, 0, 59, 69
1, 165354, Note_on_c, 0, 62, 77
1, 165355, Note_off_c, 0, 54, 59
1, 165359, Note_on_c, 0, 71, 90
1, 165378, Note_off_c, 0, 62, 68
1, 165382, Note_off_c, 0, 59, 62
1, 165399, Note_on_c, 0, 74, 96
1, 165404, Note_off_c, 0, 71, 69
1, 165426, Note_off_c, 0, 74, 64
1, 165545, Control_c, 0, 64, 90
1, 165560, Control_c, 0, 64, 36
1, 165575, Control_c, 0, 64, 0
1, 165575, Note_on_c, 0, 45, 94
1, 165582, Note_on_c, 0, 64, 94
1, 165584, Note_on_c, 0, 65, 92
1, 165605, Control_c, 0, 64, 26
1, 165619, Control_c, 0, 64, 64
1, 165634, Control_c, 0, 64, 72
1, 165636, Note_on_c, 0, 42, 22
1, 165649, Control_c, 0, 64, 81
1, 165663, Control_c, 0, 64, 92
1, 165670, Note_off_c, 0, 65, 63
1, 165676, Note_on_c, 0, 66, 89
1, 165678, Control_c, 0, 64, 103
1, 165693, Note_off_c, 0, 42, 46
1, 165697, Note_off_c, 0, 64, 58
1, 165700, Control_c, 0, 64, 114
1, 165715, Control_c, 0, 64, 127
1, 165766, Note_on_c, 0, 67, 100
1, 165766, Note_on_c, 0, 38, 91
1, 165769, Note_on_c, 0, 60, 84
1, 165775, Note_off_c, 0, 45, 59
1, 165786, Note_off_c, 0, 66, 63
1, 165789, Note_off_c, 0, 60, 72
1, 165802, Note_off_c, 0, 67, 67
1, 165806, Note_off_c, 0, 38, 65
1, 165893, Control_c, 0, 64, 94
1, 165908, Control_c, 0, 64, 0
1, 165944, Note_on_c, 0, 36, 96
1, 165951, Note_on_c, 0, 76, 106
1, 165953, Note_on_c, 0, 72, 98
1, 165982, Control_c, 0, 64, 71
1, 165997, Control_c, 0, 64, 86
1, 166012, Control_c, 0, 64, 108
1, 166026, Control_c, 0, 64, 127
1, 166041, Note_on_c, 0, 78, 85
1, 166049, Note_off_c, 0, 72, 61
1, 166052, Note_on_c, 0, 43, 88
1, 166073, Note_off_c, 0, 36, 56
1, 166075, Note_off_c, 0, 76, 59
1, 166105, Note_on_c, 0, 79, 83
1, 166127, Note_off_c, 0, 78, 65
1, 166128, Note_on_c, 0, 47, 89
1, 166132, Note_off_c, 0, 79, 63
1, 166153, Note_off_c, 0, 43, 65
1, 166167, Note_on_c, 0, 45, 32
1, 166208, Note_off_c, 0, 45, 48
1, 166234, Note_on_c, 0, 90, 100
1, 166285, Note_off_c, 0, 47, 61
1, 166308, Note_on_c, 0, 45, 84
1, 166332, Note_on_c, 0, 86, 95
1, 166334, Note_on_c, 0, 95, 111
1, 166351, Note_off_c, 0, 90, 66
1, 166353, Note_off_c, 0, 45, 68
1, 166362, Note_off_c, 0, 86, 70
1, 166369, Note_off_c, 0, 95, 71
1, 166642, Control_c, 0, 64, 89
1, 166657, Control_c, 0, 64, 0
1, 166708, Note_on_c, 0, 73, 105
1, 166713, Note_on_c, 0, 69, 95
1, 166775, Control_c, 0, 64, 65
1, 166790, Control_c, 0, 64, 73
1, 166805, Control_c, 0, 64, 80
1, 166819, Control_c, 0, 64, 85
1, 166834, Control_c, 0, 64, 86
1, 166849, Control_c, 0, 64, 87
1, 166865, Control_c, 0, 64, 88
1, 166880, Control_c, 0, 64, 92
1, 166882, Note_on_c, 0, 75, 89
1, 166895, Control_c, 0, 64, 101
1, 166910, Control_c, 0, 64, 114
1, 166919, Note_off_c, 0, 69, 58
1, 166924, Control_c, 0, 64, 127
1, 166936, Note_off_c, 0, 73, 48
1, 166969, Control_c, 0, 64, 120
1, 166984, Control_c, 0, 64, 104
1, 166991, Note_on_c, 0, 42, 87
1, 166994, Note_on_c, 0, 76, 97
1, 166998, Control_c, 0, 64, 100
1, 167006, Note_off_c, 0, 75, 66
1, 167028, Control_c, 0, 64, 102
1, 167044, Control_c, 0, 64, 107
1, 167059, Control_c, 0, 64, 118
1, 167073, Control_c, 0, 64, 127
1, 167095, Note_on_c, 0, 49, 83
1, 167098, Note_off_c, 0, 42, 61
1, 167176, Note_on_c, 0, 54, 86
1, 167220, Note_off_c, 0, 76, 44
1, 167229, Note_off_c, 0, 49, 61
1, 167251, Note_on_c, 0, 59, 81
1, 167259, Note_off_c, 0, 54, 67
1, 167328, Note_off_c, 0, 59, 0
1, 167334, Note_on_c, 0, 69, 89
1, 167342, Note_on_c, 0, 61, 88
1, 167365, Poly_aftertouch_c, 0, 59, 127
1, 167414, Note_on_c, 0, 71, 86
1, 167423, Note_off_c, 0, 69, 62
1, 167423, Poly_aftertouch_c, 0, 59, 0
1, 167429, Note_on_c, 0, 63, 80
1, 167459, Note_off_c, 0, 61, 62
1, 167482, Note_off_c, 0, 71, 63
1, 167487, Note_on_c, 0, 80, 82
1, 167489, Note_on_c, 0, 64, 86
1, 167523, Note_off_c, 0, 63, 60
1, 167554, Note_off_c, 0, 80, 61
1, 167563, Note_off_c, 0, 64, 67
1, 167565, Note_on_c, 0, 69, 87
1, 167580, Note_on_c, 0, 75, 85
1, 167625, Note_on_c, 0, 76, 83
1, 167641, Note_on_c, 0, 83, 97
1, 167645, Note_off_c, 0, 75, 33
1, 167646, Note_on_c, 0, 73, 102
1, 167658, Note_off_c, 0, 69, 65
1, 167658, Note_off_c, 0, 76, 66
1, 167673, Note_off_c, 0, 83, 69
1, 167678, Note_off_c, 0, 73, 66
1, 167878, Note_on_c, 0, 88, 103
1, 167881, Control_c, 0, 64, 72
1, 167896, Control_c, 0, 64, 0
1, 167907, Note_on_c, 0, 81, 92
1, 167986, Note_off_c, 0, 88, 59
1, 168007, Control_c, 0, 64, 60
1, 168022, Control_c, 0, 64, 67
1, 168037, Control_c, 0, 64, 71
1, 168052, Control_c, 0, 64, 74
1, 168066, Control_c, 0, 64, 77
1, 168081, Control_c, 0, 64, 80
1, 168096, Control_c, 0, 64, 84
1, 168100, Note_on_c, 0, 80, 81
1, 168100, Note_off_c, 0, 81, 61
1, 168111, Control_c, 0, 64, 87
1, 168126, Control_c, 0, 64, 88
1, 168155, Control_c, 0, 64, 89
1, 168170, Control_c, 0, 64, 91
1, 168174, Note_on_c, 0, 78, 85
1, 168185, Control_c, 0, 64, 93
1, 168191, Note_off_c, 0, 80, 62
1, 168200, Control_c, 0, 64, 95
1, 168214, Control_c, 0, 64, 95
1, 168243, Note_on_c, 0, 76, 83
1, 168244, Control_c, 0, 64, 96
1, 168251, Note_off_c, 0, 78, 63
1, 168258, Control_c, 0, 64, 102
1, 168273, Control_c, 0, 64, 109
1, 168288, Control_c, 0, 64, 111
1, 168308, Note_on_c, 0, 75, 85
1, 168312, Note_off_c, 0, 76, 59
1, 168347, Control_c, 0, 64, 111
1, 168362, Control_c, 0, 64, 112
1, 168384, Note_off_c, 0, 75, 60
1, 168386, Note_on_c, 0, 71, 84
1, 168428, Note_off_c, 0, 71, 66
1, 168436, Control_c, 0, 64, 112
1, 168450, Note_on_c, 0, 69, 84
1, 168532, Note_on_c, 0, 68, 88
1, 168558, Note_off_c, 0, 69, 64
1, 168600, Note_on_c, 0, 66, 91
1, 168600, Control_c, 0, 64, 112
1, 168629, Note_off_c, 0, 68, 63
1, 168670, Note_on_c, 0, 64, 89
1, 168688, Note_off_c, 0, 66, 63
1, 168756, Note_on_c, 0, 63, 83
1, 168770, Control_c, 0, 64, 113
1, 168813, Note_on_c, 0, 61, 85
1, 168815, Note_off_c, 0, 64, 24
1, 168830, Control_c, 0, 64, 112
1, 168843, Note_off_c, 0, 63, 61
1, 168845, Control_c, 0, 64, 97
1, 168860, Control_c, 0, 64, 71
1, 168863, Note_off_c, 0, 61, 65
1, 168875, Control_c, 0, 64, 0
1, 168904, Note_on_c, 0, 59, 100
1, 168904, Note_on_c, 0, 56, 91
1, 168949, Control_c, 0, 64, 39
1, 168958, Note_off_c, 0, 56, 67
1, 168963, Control_c, 0, 64, 64
1, 168978, Control_c, 0, 64, 70
1, 168985, Note_on_c, 0, 57, 88
1, 168990, Note_off_c, 0, 59, 65
1, 168993, Control_c, 0, 64, 76
1, 169008, Control_c, 0, 64, 84
1, 169022, Control_c, 0, 64, 90
1, 169037, Control_c, 0, 64, 86
1, 169052, Control_c, 0, 64, 71
1, 169067, Control_c, 0, 64, 0
1, 169072, Note_on_c, 0, 51, 85
1, 169074, Note_on_c, 0, 56, 96
1, 169080, Note_on_c, 0, 45, 73
1, 169084, Note_off_c, 0, 57, 65
1, 169107, Note_off_c, 0, 56, 67
1, 169111, Control_c, 0, 64, 17
1, 169126, Control_c, 0, 64, 60
1, 169141, Control_c, 0, 64, 67
1, 169155, Control_c, 0, 64, 71
1, 169170, Control_c, 0, 64, 75
1, 169185, Control_c, 0, 64, 80
1, 169200, Control_c, 0, 64, 84
1, 169214, Control_c, 0, 64, 85
1, 169229, Control_c, 0, 64, 84
1, 169244, Control_c, 0, 64, 74
1, 169260, Control_c, 0, 64, 0
1, 169303, Note_on_c, 0, 57, 102
1, 169304, Note_off_c, 0, 51, 62
1, 169307, Note_off_c, 0, 45, 61
1, 169311, Note_on_c, 0, 52, 89
1, 169349, Control_c, 0, 64, 51
1, 169364, Control_c, 0, 64, 66
1, 169378, Control_c, 0, 64, 71
1, 169393, Control_c, 0, 64, 73
1, 169423, Control_c, 0, 64, 72
1, 169445, Control_c, 0, 64, 71
1, 169460, Control_c, 0, 64, 69
1, 169474, Control_c, 0, 64, 68
1, 169489, Control_c, 0, 64, 67
1, 169500, Note_off_c, 0, 57, 47
1, 169593, Control_c, 0, 64, 66
1, 169608, Control_c, 0, 64, 66
1, 169686, Note_on_c, 0, 42, 51
1, 169695, Note_on_c, 0, 56, 63
1, 169711, Control_c, 0, 64, 65
1, 169718, Note_off_c, 0, 52, 46
1, 169726, Control_c, 0, 64, 61
1, 169741, Control_c, 0, 64, 21
1, 169756, Control_c, 0, 64, 0
1, 169772, Note_off_c, 0, 56, 62
1, 169786, Note_on_c, 0, 54, 65
1, 169800, Control_c, 0, 64, 37
1, 169815, Control_c, 0, 64, 51
1, 169830, Control_c, 0, 64, 59
1, 169844, Control_c, 0, 64, 63
1, 169847, Note_off_c, 0, 54, 63
1, 169855, Note_on_c, 0, 41, 56
1, 169859, Control_c, 0, 64, 64
1, 169864, Note_on_c, 0, 56, 69
1, 169874, Control_c, 0, 64, 65
1, 169876, Note_off_c, 0, 42, 59
1, 169904, Control_c, 0, 64, 66
1, 169906, Note_on_c, 0, 54, 77
1, 169918, Control_c, 0, 64, 68
1, 169926, Note_off_c, 0, 56, 64
1, 169933, Control_c, 0, 64, 71
1, 169948, Note_off_c, 0, 54, 64
1, 169948, Control_c, 0, 64, 73
1, 169963, Control_c, 0, 64, 72
1, 169978, Control_c, 0, 64, 66
1, 169988, Note_on_c, 0, 54, 91
1, 169992, Control_c, 0, 64, 32
1, 169995, Note_off_c, 0, 41, 62
1, 170007, Control_c, 0, 64, 0
1, 170037, Control_c, 0, 64, 44
1, 170053, Control_c, 0, 64, 61
1, 170068, Control_c, 0, 64, 67
1, 170083, Control_c, 0, 64, 72
1, 170098, Control_c, 0, 64, 75
1, 170113, Control_c, 0, 64, 78
1, 170127, Control_c, 0, 64, 80
1, 170142, Control_c, 0, 64, 82
1, 170157, Control_c, 0, 64, 83
1, 170186, Note_on_c, 0, 41, 79
1, 170195, Control_c, 0, 64, 84
1, 170210, Control_c, 0, 64, 86
1, 170224, Control_c, 0, 64, 87
1, 170239, Control_c, 0, 64, 85
1, 170247, Note_on_c, 0, 40, 72
1, 170249, Note_off_c, 0, 41, 63
1, 170254, Control_c, 0, 64, 75
1, 170268, Control_c, 0, 64, 0
1, 170303, Note_on_c, 0, 56, 90
1, 170309, Note_on_c, 0, 42, 83
1, 170323, Note_off_c, 0, 40, 63
1, 170326, Note_off_c, 0, 54, 60
1, 170342, Control_c, 0, 64, 61
1, 170357, Control_c, 0, 64, 73
1, 170372, Control_c, 0, 64, 80
1, 170384, Note_on_c, 0, 41, 79
1, 170387, Control_c, 0, 64, 84
1, 170398, Note_off_c, 0, 42, 62
1, 170402, Control_c, 0, 64, 85
1, 170416, Control_c, 0, 64, 85
1, 170431, Control_c, 0, 64, 88
1, 170446, Control_c, 0, 64, 93
1, 170456, Note_on_c, 0, 42, 72
1, 170460, Control_c, 0, 64, 97
1, 170463, Note_off_c, 0, 41, 62
1, 170475, Control_c, 0, 64, 100
1, 170490, Control_c, 0, 64, 101
1, 170521, Note_on_c, 0, 41, 76
1, 170535, Control_c, 0, 64, 93
1, 170550, Control_c, 0, 64, 66
1, 170562, Note_off_c, 0, 42, 60
1, 170565, Control_c, 0, 64, 0
1, 170596, Note_on_c, 0, 45, 102
1, 170609, Control_c, 0, 64, 47
1, 170624, Control_c, 0, 64, 74
1, 170630, Note_off_c, 0, 41, 63
1, 170639, Control_c, 0, 64, 115
1, 170653, Note_off_c, 0, 45, 66
1, 170654, Control_c, 0, 64, 127
1, 170815, Control_c, 0, 64, 102
1, 170830, Control_c, 0, 64, 81
1, 170845, Control_c, 0, 64, 65
1, 170861, Control_c, 0, 64, 0
1, 170875, Note_on_c, 0, 41, 62
1, 170913, Note_off_c, 0, 41, 63
1, 170955, Note_on_c, 0, 38, 60
1, 171000, Note_off_c, 0, 38, 63
1, 171012, Note_on_c, 0, 41, 63
1, 171067, Note_off_c, 0, 41, 61
1, 171087, Note_on_c, 0, 38, 70
1, 171128, Note_on_c, 0, 39, 92
1, 171149, Note_off_c, 0, 38, 64
1, 171164, Control_c, 0, 64, 73
1, 171179, Control_c, 0, 64, 88
1, 171194, Control_c, 0, 64, 99
1, 171209, Control_c, 0, 64, 102
1, 171234, Note_on_c, 0, 38, 76
1, 171234, Note_off_c, 0, 39, 61
1, 171253, Control_c, 0, 64, 101
1, 171268, Control_c, 0, 64, 102
1, 171308, Note_on_c, 0, 39, 58
1, 171328, Control_c, 0, 64, 102
1, 171343, Control_c, 0, 64, 103
1, 171357, Control_c, 0, 64, 107
1, 171372, Control_c, 0, 64, 110
1, 171374, Note_off_c, 0, 39, 53
1, 171387, Control_c, 0, 64, 101
1, 171402, Control_c, 0, 64, 70
1, 171411, Note_on_c, 0, 40, 94
1, 171416, Control_c, 0, 64, 0
1, 171425, Note_off_c, 0, 38, 63
1, 171461, Control_c, 0, 64, 56
1, 171476, Control_c, 0, 64, 71
1, 171490, Control_c, 0, 64, 84
1, 171492, Note_on_c, 0, 38, 72
1, 171505, Control_c, 0, 64, 99
1, 171506, Note_off_c, 0, 40, 62
1, 171520, Control_c, 0, 64, 110
1, 171534, Control_c, 0, 64, 118
1, 171549, Control_c, 0, 64, 127
1, 171567, Note_on_c, 0, 40, 69
1, 171569, Note_off_c, 0, 38, 0
1, 171599, Note_on_c, 0, 38, 19
1, 171620, Note_off_c, 0, 40, 62
1, 171691, Control_c, 0, 64, 96
1, 171692, Note_on_c, 0, 39, 93
1, 171706, Control_c, 0, 64, 34
1, 171720, Control_c, 0, 64, 0
1, 171721, Note_off_c, 0, 38, 64
1, 171788, Note_on_c, 0, 38, 60
1, 171793, Note_off_c, 0, 39, 60
1, 171809, Control_c, 0, 64, 56
1, 171824, Control_c, 0, 64, 67
1, 171839, Control_c, 0, 64, 73
1, 171853, Control_c, 0, 64, 76
1, 171863, Note_off_c, 0, 38, 64
1, 171868, Control_c, 0, 64, 77
1, 171869, Note_on_c, 0, 39, 69
1, 171883, Control_c, 0, 64, 77
1, 171898, Control_c, 0, 64, 79
1, 171912, Control_c, 0, 64, 83
1, 171927, Control_c, 0, 64, 87
1, 171932, Note_off_c, 0, 39, 60
1, 171938, Note_on_c, 0, 38, 64
1, 171942, Control_c, 0, 64, 88
1, 171987, Control_c, 0, 64, 90
1, 171990, Note_off_c, 0, 38, 62
1, 171992, Note_on_c, 0, 39, 63
1, 172002, Control_c, 0, 64, 92
1, 172017, Control_c, 0, 64, 96
1, 172031, Control_c, 0, 64, 98
1, 172046, Control_c, 0, 64, 99
1, 172057, Note_on_c, 0, 38, 66
1, 172061, Note_off_c, 0, 39, 58
1, 172061, Control_c, 0, 64, 100
1, 172076, Control_c, 0, 64, 103
1, 172091, Control_c, 0, 64, 110
1, 172105, Control_c, 0, 64, 122
1, 172110, Note_off_c, 0, 56, 54
1, 172117, Note_on_c, 0, 39, 65
1, 172120, Control_c, 0, 64, 127
1, 172121, Note_off_c, 0, 38, 63
1, 172188, Note_on_c, 0, 38, 66
1, 172194, Note_off_c, 0, 39, 59
1, 172248, Note_on_c, 0, 39, 66
1, 172261, Note_off_c, 0, 38, 57
1, 172318, Note_on_c, 0, 38, 62
1, 172330, Note_off_c, 0, 39, 57
1, 172389, Note_on_c, 0, 39, 68
1, 172441, Note_off_c, 0, 38, 35
1, 172468, Note_on_c, 0, 38, 62
1, 172478, Note_off_c, 0, 39, 60
1, 172538, Note_on_c, 0, 39, 74
1, 172553, Note_off_c, 0, 38, 63
1, 172610, Note_on_c, 0, 38, 69
1, 172632, Note_off_c, 0, 39, 58
1, 172677, Note_on_c, 0, 88, 110
1, 172679, Note_on_c, 0, 39, 72
1, 172708, Note_off_c, 0, 38, 63
1, 172771, Note_on_c, 0, 38, 69
1, 172787, Note_off_c, 0, 39, 59
1, 172843, Note_on_c, 0, 81, 96
1, 172851, Note_on_c, 0, 39, 68
1, 172851, Note_off_c, 0, 88, 60
1, 172860, Note_off_c, 0, 38, 60
1, 172928, Note_on_c, 0, 38, 70
1, 172929, Note_on_c, 0, 80, 91
1, 172937, Note_off_c, 0, 39, 59
1, 172939, Note_off_c, 0, 81, 64
1, 173002, Note_on_c, 0, 87, 107
1, 173003, Note_on_c, 0, 39, 65
1, 173006, Note_off_c, 0, 80, 44
1, 173009, Note_off_c, 0, 38, 61
1, 173070, Note_on_c, 0, 78, 95
1, 173071, Note_on_c, 0, 38, 67
1, 173082, Note_off_c, 0, 39, 59
1, 173125, Note_on_c, 0, 79, 66
1, 173137, Note_off_c, 0, 87, 53
1, 173138, Note_on_c, 0, 39, 58
1, 173142, Note_off_c, 0, 38, 60
1, 173143, Note_on_c, 0, 77, 92
1, 173164, Note_off_c, 0, 78, 61
1, 173165, Note_off_c, 0, 79, 61
1, 173224, Note_on_c, 0, 38, 70
1, 173227, Note_off_c, 0, 39, 59
1, 173283, Note_on_c, 0, 39, 69
1, 173298, Note_off_c, 0, 38, 62
1, 173351, Note_off_c, 0, 39, 60
1, 173353, Note_on_c, 0, 35, 74
1, 173403, Note_on_c, 0, 38, 85
1, 173412, Control_c, 0, 64, 100
1, 173425, Note_off_c, 0, 35, 64
1, 173426, Control_c, 0, 64, 62
1, 173441, Control_c, 0, 64, 0
1, 173471, Control_c, 0, 64, 53
1, 173475, Note_on_c, 0, 35, 61
1, 173482, Note_off_c, 0, 38, 62
1, 173485, Control_c, 0, 64, 67
1, 173500, Control_c, 0, 64, 77
1, 173515, Control_c, 0, 64, 89
1, 173526, Note_on_c, 0, 38, 54
1, 173530, Control_c, 0, 64, 104
1, 173545, Control_c, 0, 64, 127
1, 173548, Note_off_c, 0, 35, 63
1, 173592, Note_off_c, 0, 38, 63
1, 173596, Note_on_c, 0, 37, 73
1, 173652, Note_on_c, 0, 38, 63
1, 173661, Note_off_c, 0, 37, 64
1, 173715, Note_on_c, 0, 34, 87
1, 173720, Note_off_c, 0, 38, 60
1, 173752, Note_on_c, 0, 38, 66
1, 173779, Note_off_c, 0, 34, 60
1, 173802, Poly_aftertouch_c, 0, 39, 0
1, 173808, Poly_aftertouch_c, 0, 35, 127
1, 173837, Note_on_c, 0, 34, 85
1, 173847, Note_off_c, 0, 38, 57
1, 173851, Poly_aftertouch_c, 0, 35, 0
1, 173871, Poly_aftertouch_c, 0, 39, 0
1, 173876, Note_on_c, 0, 38, 54
1, 173900, Note_off_c, 0, 77, 54
1, 173902, Note_off_c, 0, 34, 60
1, 173916, Note_on_c, 0, 88, 108
1, 173975, Note_off_c, 0, 38, 61
1, 173977, Note_on_c, 0, 34, 76
1, 174027, Note_on_c, 0, 38, 68
1, 174035, Note_off_c, 0, 34, 61
1, 174111, Note_on_c, 0, 34, 83
1, 174113, Note_off_c, 0, 38, 61
1, 174163, Note_on_c, 0, 38, 65
1, 174178, Note_off_c, 0, 34, 62
1, 174246, Note_on_c, 0, 34, 82
1, 174309, Note_off_c, 0, 88, 0
1, 174333, Note_on_c, 0, 87, 104
1, 174347, Poly_aftertouch_c, 0, 88, 127
1, 174356, Poly_aftertouch_c, 0, 88, 0
1, 174365, Note_off_c, 0, 34, 54
1, 174379, Note_on_c, 0, 45, 72
1, 174439, Note_off_c, 0, 45, 62
1, 174452, Note_on_c, 0, 37, 78
1, 174493, Note_off_c, 0, 38, 41
1, 174509, Note_on_c, 0, 32, 77
1, 174551, Note_off_c, 0, 37, 58
1, 174564, Note_on_c, 0, 80, 98
1, 174580, Note_on_c, 0, 38, 62
1, 174634, Note_off_c, 0, 87, 53
1, 174659, Note_on_c, 0, 34, 68
1, 174661, Note_on_c, 0, 40, 81
1, 174667, Note_off_c, 0, 38, 62
1, 174681, Note_off_c, 0, 32, 38
1, 174726, Note_off_c, 0, 80, 54
1, 174734, Note_on_c, 0, 38, 70
1, 174741, Note_off_c, 0, 40, 65
1, 174743, Note_on_c, 0, 79, 88
1, 174776, Note_off_c, 0, 34, 58
1, 174825, Note_on_c, 0, 39, 96
1, 174849, Control_c, 0, 64, 104
1, 174859, Note_off_c, 0, 38, 63
1, 174861, Note_off_c, 0, 79, 63
1, 174864, Control_c, 0, 64, 63
1, 174879, Control_c, 0, 64, 0
1, 174924, Control_c, 0, 64, 23
1, 174929, Note_on_c, 0, 76, 81
1, 174938, Control_c, 0, 64, 65
1, 174953, Control_c, 0, 64, 77
1, 174965, Note_on_c, 0, 78, 86
1, 174968, Control_c, 0, 64, 90
1, 174974, Note_off_c, 0, 76, 63
1, 174983, Control_c, 0, 64, 113
1, 174991, Note_off_c, 0, 78, 66
1, 174998, Control_c, 0, 64, 127
1, 175066, Note_on_c, 0, 91, 107
1, 175072, Note_on_c, 0, 93, 96
1, 175158, Note_off_c, 0, 39, 55
1, 175193, Note_off_c, 0, 93, 51
1, 175236, Note_on_c, 0, 36, 73
1, 175245, Note_on_c, 0, 35, 65
1, 175279, Control_c, 0, 64, 76
1, 175282, Note_off_c, 0, 35, 51
1, 175294, Control_c, 0, 64, 0
1, 175297, Note_on_c, 0, 37, 75
1, 175301, Note_off_c, 0, 36, 62
1, 175323, Control_c, 0, 64, 63
1, 175338, Control_c, 0, 64, 70
1, 175353, Control_c, 0, 64, 81
1, 175368, Control_c, 0, 64, 99
1, 175374, Note_off_c, 0, 37, 63
1, 175383, Control_c, 0, 64, 127
1, 175386, Note_on_c, 0, 36, 64
1, 175392, Note_on_c, 0, 35, 45
1, 175435, Note_on_c, 0, 37, 66
1, 175439, Note_off_c, 0, 35, 61
1, 175456, Note_off_c, 0, 36, 59
1, 175494, Note_on_c, 0, 36, 52
1, 175522, Note_off_c, 0, 37, 61
1, 175532, Note_off_c, 0, 91, 62
1, 175579, Note_on_c, 0, 37, 69
1, 175588, Note_off_c, 0, 36, 59
1, 175597, Note_on_c, 0, 91, 103
1, 175626, Poly_aftertouch_c, 0, 36, 0
1, 175636, Note_on_c, 0, 36, 54
1, 175660, Note_off_c, 0, 91, 0
1, 175664, Note_off_c, 0, 37, 63
1, 175680, Note_on_c, 0, 95, 106
1, 175689, Poly_aftertouch_c, 0, 91, 0
1, 175691, Note_off_c, 0, 36, 62
1, 175772, Note_on_c, 0, 29, 84
1, 175821, Control_c, 0, 64, 85
1, 175828, Note_on_c, 0, 36, 71
1, 175833, Note_off_c, 0, 29, 65
1, 175835, Control_c, 0, 64, 72
1, 175850, Control_c, 0, 64, 76
1, 175865, Control_c, 0, 64, 87
1, 175880, Control_c, 0, 64, 96
1, 175883, Note_off_c, 0, 36, 46
1, 175886, Note_on_c, 0, 29, 77
1, 175895, Control_c, 0, 64, 110
1, 175910, Control_c, 0, 64, 127
1, 175945, Note_on_c, 0, 36, 71
1, 175966, Note_off_c, 0, 29, 62
1, 176008, Note_on_c, 0, 29, 71
1, 176017, Note_off_c, 0, 36, 59
1, 176021, Note_off_c, 0, 95, 63
1, 176079, Note_on_c, 0, 36, 76
1, 176093, Note_off_c, 0, 29, 63
1, 176097, Note_on_c, 0, 95, 112
1, 176136, Note_off_c, 0, 36, 60
1, 176142, Note_on_c, 0, 28, 84
1, 176160, Poly_aftertouch_c, 0, 33, 127
1, 176204, Note_on_c, 0, 36, 79
1, 176205, Note_on_c, 0, 33, 7
1, 176216, Note_off_c, 0, 28, 61
1, 176264, Note_off_c, 0, 36, 59
1, 176274, Note_on_c, 0, 28, 85
1, 176281, Note_off_c, 0, 33, 48
1, 176318, Note_on_c, 0, 36, 77
1, 176339, Note_off_c, 0, 28, 60
1, 176374, Note_off_c, 0, 36, 60
1, 176381, Poly_aftertouch_c, 0, 33, 127
1, 176392, Note_on_c, 0, 28, 84
1, 176424, Poly_aftertouch_c, 0, 33, 0
1, 176441, Note_on_c, 0, 36, 82
1, 176458, Note_off_c, 0, 28, 61
1, 176500, Note_off_c, 0, 36, 60
1, 176517, Note_on_c, 0, 28, 81
1, 176568, Note_on_c, 0, 36, 87
1, 176589, Note_off_c, 0, 28, 60
1, 176622, Note_off_c, 0, 36, 61
1, 176639, Note_on_c, 0, 28, 74
1, 176682, Note_on_c, 0, 36, 80
1, 176699, Note_off_c, 0, 28, 60
1, 176735, Note_on_c, 0, 33, 3
1, 176753, Note_off_c, 0, 36, 57
1, 176779, Note_on_c, 0, 28, 76
1, 176783, Note_off_c, 0, 33, 57
1, 176784, Note_on_c, 0, 26, 71
1, 176785, Note_off_c, 0, 95, 56
1, 176815, Note_off_c, 0, 26, 61
1, 176827, Note_on_c, 0, 38, 91
1, 176846, Note_on_c, 0, 95, 106
1, 176847, Note_on_c, 0, 33, 40
1, 176849, Note_off_c, 0, 28, 59
1, 176851, Control_c, 0, 64, 118
1, 176866, Control_c, 0, 64, 69
1, 176881, Control_c, 0, 64, 0
1, 176890, Note_off_c, 0, 38, 64
1, 176912, Note_on_c, 0, 28, 79
1, 176947, Control_c, 0, 64, 50
1, 176953, Note_off_c, 0, 33, 0
1, 176962, Control_c, 0, 64, 71
1, 176974, Note_on_c, 0, 38, 76
1, 176977, Note_off_c, 0, 28, 62
1, 176977, Control_c, 0, 64, 86
1, 176989, Poly_aftertouch_c, 0, 33, 127
1, 176992, Control_c, 0, 64, 117
1, 177001, Note_on_c, 0, 33, 9
1, 177007, Control_c, 0, 64, 127
1, 177010, Note_off_c, 0, 38, 61
1, 177045, Note_on_c, 0, 26, 62
1, 177049, Note_on_c, 0, 28, 75
1, 177071, Note_off_c, 0, 33, 40
1, 177083, Note_off_c, 0, 26, 65
1, 177093, Note_on_c, 0, 38, 84
1, 177102, Note_off_c, 0, 28, 61
1, 177138, Note_off_c, 0, 38, 58
1, 177170, Note_on_c, 0, 32, 84
1, 177226, Note_on_c, 0, 38, 74
1, 177233, Note_off_c, 0, 32, 62
1, 177268, Note_off_c, 0, 38, 61
1, 177296, Note_on_c, 0, 32, 83
1, 177358, Note_on_c, 0, 38, 79
1, 177361, Note_off_c, 0, 32, 63
1, 177367, Note_off_c, 0, 95, 55
1, 177407, Note_off_c, 0, 38, 62
1, 177432, Note_on_c, 0, 32, 91
1, 177435, Note_on_c, 0, 94, 116
1, 177458, Note_on_c, 0, 95, 69
1, 177466, Control_c, 0, 64, 102
1, 177481, Control_c, 0, 64, 102
1, 177496, Control_c, 0, 64, 110
1, 177498, Note_on_c, 0, 38, 73
1, 177498, Note_off_c, 0, 95, 0
1, 177504, Note_off_c, 0, 32, 62
1, 177511, Control_c, 0, 64, 127
1, 177512, Note_on_c, 0, 95, 47
1, 177561, Note_off_c, 0, 38, 55
1, 177576, Note_on_c, 0, 32, 74
1, 177624, Note_off_c, 0, 95, 44
1, 177632, Note_on_c, 0, 38, 67
1, 177640, Note_off_c, 0, 32, 61
1, 177710, Note_off_c, 0, 38, 58
1, 177713, Note_on_c, 0, 32, 77
1, 177773, Note_off_c, 0, 94, 0
1, 177773, Note_on_c, 0, 94, 11
1, 177776, Note_on_c, 0, 38, 67
1, 177785, Note_off_c, 0, 32, 61
1, 177850, Note_on_c, 0, 32, 79
1, 177853, Note_off_c, 0, 38, 56
1, 177863, Note_off_c, 0, 94, 47
1, 177874, Control_c, 0, 64, 95
1, 177883, Note_on_c, 0, 92, 110
1, 177889, Control_c, 0, 64, 85
1, 177904, Control_c, 0, 64, 86
1, 177904, Note_on_c, 0, 38, 56
1, 177919, Control_c, 0, 64, 90
1, 177922, Note_off_c, 0, 32, 58
1, 177933, Control_c, 0, 64, 96
1, 177948, Control_c, 0, 64, 113
1, 177963, Control_c, 0, 64, 127
1, 177975, Note_off_c, 0, 38, 62
1, 177978, Note_on_c, 0, 33, 77
1, 178050, Note_on_c, 0, 38, 69
1, 178053, Note_off_c, 0, 33, 60
1, 178112, Note_on_c, 0, 33, 76
1, 178119, Note_off_c, 0, 38, 63
1, 178157, Note_off_c, 0, 92, 64
1, 178184, Note_on_c, 0, 38, 64
1, 178186, Control_c, 0, 64, 122
1, 178189, Note_off_c, 0, 33, 59
1, 178200, Control_c, 0, 64, 112
1, 178230, Control_c, 0, 64, 112
1, 178233, Note_on_c, 0, 93, 104
1, 178245, Control_c, 0, 64, 127
1, 178249, Note_on_c, 0, 33, 74
1, 178260, Note_off_c, 0, 38, 63
1, 178318, Note_on_c, 0, 38, 67
1, 178329, Note_off_c, 0, 33, 59
1, 178378, Note_off_c, 0, 38, 61
1, 178382, Note_off_c, 0, 93, 62
1, 178399, Note_on_c, 0, 30, 88
1, 178468, Note_on_c, 0, 38, 80
1, 178474, Control_c, 0, 64, 81
1, 178479, Note_off_c, 0, 30, 63
1, 178479, Note_on_c, 0, 91, 115
1, 178489, Control_c, 0, 64, 44
1, 178504, Control_c, 0, 64, 55
1, 178519, Control_c, 0, 64, 69
1, 178529, Note_off_c, 0, 38, 54
1, 178534, Control_c, 0, 64, 79
1, 178545, Note_on_c, 0, 30, 77
1, 178548, Control_c, 0, 64, 94
1, 178563, Control_c, 0, 64, 127
1, 178598, Note_on_c, 0, 32, 28
1, 178604, Note_on_c, 0, 38, 73
1, 178616, Note_off_c, 0, 30, 62
1, 178638, Note_off_c, 0, 32, 53
1, 178677, Note_on_c, 0, 30, 77
1, 178688, Note_off_c, 0, 38, 57
1, 178697, Note_on_c, 0, 82, 99
1, 178729, Note_off_c, 0, 91, 56
1, 178733, Note_on_c, 0, 38, 61
1, 178754, Note_off_c, 0, 30, 59
1, 178819, Note_on_c, 0, 30, 74
1, 178822, Note_off_c, 0, 38, 61
1, 178871, Note_on_c, 0, 81, 102
1, 178885, Note_on_c, 0, 38, 69
1, 178902, Note_off_c, 0, 82, 65
1, 178913, Note_off_c, 0, 30, 60
1, 178974, Note_off_c, 0, 38, 60
1, 178986, Note_on_c, 0, 27, 87
1, 179004, Note_off_c, 0, 81, 62
1, 179038, Control_c, 0, 64, 107
1, 179050, Note_on_c, 0, 38, 77
1, 179053, Control_c, 0, 64, 71
1, 179060, Note_on_c, 0, 86, 102
1, 179068, Control_c, 0, 64, 0
1, 179075, Note_off_c, 0, 27, 63
1, 179075, Note_on_c, 0, 33, 29
1, 179097, Control_c, 0, 64, 63
1, 179112, Control_c, 0, 64, 71
1, 179127, Control_c, 0, 64, 82
1, 179128, Note_off_c, 0, 38, 56
1, 179136, Note_on_c, 0, 27, 79
1, 179142, Control_c, 0, 64, 98
1, 179157, Control_c, 0, 64, 127
1, 179207, Note_off_c, 0, 33, 0
1, 179218, Note_on_c, 0, 38, 77
1, 179221, Note_on_c, 0, 33, 32
1, 179241, Note_off_c, 0, 27, 60
1, 179307, Note_off_c, 0, 38, 54
1, 179315, Note_on_c, 0, 27, 77
1, 179344, Note_on_c, 0, 79, 100
1, 179367, Note_off_c, 0, 33, 0
1, 179374, Note_off_c, 0, 86, 62
1, 179390, Note_on_c, 0, 33, 21
1, 179403, Note_on_c, 0, 38, 73
1, 179415, Note_off_c, 0, 27, 62
1, 179498, Note_on_c, 0, 27, 83
1, 179499, Note_off_c, 0, 38, 53
1, 179549, Control_c, 0, 64, 98
1, 179564, Control_c, 0, 64, 77
1, 179570, Note_on_c, 0, 38, 68
1, 179575, Note_on_c, 0, 77, 100
1, 179579, Control_c, 0, 64, 77
1, 179594, Control_c, 0, 64, 87
1, 179597, Note_off_c, 0, 79, 42
1, 179603, Note_off_c, 0, 27, 62
1, 179609, Control_c, 0, 64, 97
1, 179623, Control_c, 0, 64, 110
1, 179638, Control_c, 0, 64, 127
1, 179671, Note_on_c, 0, 27, 80
1, 179681, Note_off_c, 0, 38, 55
1, 179739, Poly_aftertouch_c, 0, 31, 127
1, 179747, Note_off_c, 0, 33, 0
1, 179747, Note_on_c, 0, 33, 8
1, 179755, Note_on_c, 0, 38, 65
1, 179776, Note_off_c, 0, 27, 60
1, 179846, Control_c, 0, 64, 104
1, 179854, Note_off_c, 0, 38, 57
1, 179856, Note_on_c, 0, 27, 75
1, 179861, Control_c, 0, 64, 99
1, 179867, Note_on_c, 0, 82, 101
1, 179869, Note_off_c, 0, 77, 52
1, 179891, Control_c, 0, 64, 100
1, 179906, Control_c, 0, 64, 105
1, 179928, Control_c, 0, 64, 115
1, 179943, Control_c, 0, 64, 127
1, 179944, Note_on_c, 0, 38, 64
1, 179957, Note_off_c, 0, 27, 60
1, 180037, Note_off_c, 0, 38, 57
1, 180047, Note_on_c, 0, 27, 77
1, 180061, Control_c, 0, 64, 109
1, 180076, Control_c, 0, 64, 101
1, 180106, Control_c, 0, 64, 101
1, 180117, Note_on_c, 0, 38, 69
1, 180117, Note_off_c, 0, 82, 61
1, 180120, Control_c, 0, 64, 106
1, 180130, Note_on_c, 0, 74, 102
1, 180135, Control_c, 0, 64, 122
1, 180136, Note_off_c, 0, 27, 62
1, 180150, Control_c, 0, 64, 127
1, 180199, Note_on_c, 0, 27, 75
1, 180199, Note_off_c, 0, 38, 56
1, 180270, Note_on_c, 0, 38, 60
1, 180297, Note_off_c, 0, 27, 57
1, 180368, Note_off_c, 0, 38, 57
1, 180372, Note_on_c, 0, 27, 67
1, 180401, Note_on_c, 0, 82, 98
1, 180417, Control_c, 0, 64, 98
1, 180432, Note_off_c, 0, 74, 61
1, 180432, Control_c, 0, 64, 59
1, 180434, Poly_aftertouch_c, 0, 31, 0
1, 180447, Control_c, 0, 64, 0
1, 180448, Note_on_c, 0, 38, 62
1, 180456, Note_off_c, 0, 27, 62
1, 180476, Control_c, 0, 64, 14
1, 180491, Control_c, 0, 64, 57
1, 180506, Control_c, 0, 64, 67
1, 180510, Note_off_c, 0, 38, 57
1, 180521, Control_c, 0, 64, 77
1, 180524, Note_on_c, 0, 27, 68
1, 180536, Control_c, 0, 64, 87
1, 180551, Control_c, 0, 64, 97
1, 180557, Note_off_c, 0, 33, 0
1, 180566, Control_c, 0, 64, 102
1, 180581, Control_c, 0, 64, 108
1, 180590, Note_on_c, 0, 38, 56
1, 180593, Poly_aftertouch_c, 0, 33, 127
1, 180595, Control_c, 0, 64, 115
1, 180600, Note_off_c, 0, 27, 60
1, 180610, Control_c, 0, 64, 127
1, 180661, Note_on_c, 0, 27, 61
1, 180661, Note_off_c, 0, 38, 55
1, 180737, Note_on_c, 0, 38, 44
1, 180742, Note_off_c, 0, 27, 58
1, 180799, Note_off_c, 0, 38, 54
1, 180802, Note_on_c, 0, 27, 57
1, 180870, Note_on_c, 0, 38, 43
1, 180876, Note_off_c, 0, 27, 56
1, 180934, Note_off_c, 0, 38, 55
1, 180938, Note_on_c, 0, 27, 54
1, 181021, Note_off_c, 0, 27, 52
1, 181023, Note_on_c, 0, 38, 40
1, 181078, Note_off_c, 0, 38, 57
1, 181079, Note_on_c, 0, 27, 47
1, 181156, Note_off_c, 0, 27, 57
1, 181165, Note_on_c, 0, 38, 41
1, 181197, Note_on_c, 0, 74, 42
1, 181206, Note_off_c, 0, 82, 53
1, 181219, Note_off_c, 0, 38, 55
1, 181226, Note_off_c, 0, 74, 57
1, 181234, Note_on_c, 0, 27, 51
1, 181275, Note_off_c, 0, 27, 61
1, 181302, Note_on_c, 0, 38, 39
1, 181359, Note_off_c, 0, 38, 56
1, 181381, Note_on_c, 0, 27, 58
1, 181421, Poly_aftertouch_c, 0, 33, 0
1, 181424, Note_off_c, 0, 27, 57
1, 181496, Note_on_c, 0, 38, 36
1, 181781, Control_c, 0, 64, 91
1, 181796, Control_c, 0, 64, 63
1, 181804, Note_off_c, 0, 38, 44
1, 181811, Control_c, 0, 64, 0
1, 181814, Note_on_c, 0, 26, 44
1, 181816, Note_on_c, 0, 52, 60
1, 181914, Control_c, 0, 64, 19
1, 181929, Control_c, 0, 64, 57
1, 181943, Control_c, 0, 64, 65
1, 181958, Control_c, 0, 64, 67
1, 181965, Note_off_c, 0, 26, 60
1, 181973, Control_c, 0, 64, 69
1, 181988, Control_c, 0, 64, 70
1, 182003, Control_c, 0, 64, 72
1, 182006, Note_on_c, 0, 38, 21
1, 182017, Control_c, 0, 64, 75
1, 182032, Control_c, 0, 64, 77
1, 182048, Control_c, 0, 64, 78
1, 182054, Note_off_c, 0, 38, 47
1, 182063, Control_c, 0, 64, 79
1, 182078, Control_c, 0, 64, 80
1, 182093, Control_c, 0, 64, 82
1, 182104, Note_on_c, 0, 26, 43
1, 182107, Control_c, 0, 64, 84
1, 182122, Control_c, 0, 64, 87
1, 182137, Control_c, 0, 64, 90
1, 182152, Control_c, 0, 64, 92
1, 182172, Note_off_c, 0, 26, 52
1, 182175, Control_c, 0, 64, 92
1, 182189, Control_c, 0, 64, 94
1, 182202, Note_on_c, 0, 38, 32
1, 182204, Control_c, 0, 64, 96
1, 182219, Control_c, 0, 64, 98
1, 182234, Control_c, 0, 64, 100
1, 182248, Control_c, 0, 64, 101
1, 182263, Control_c, 0, 64, 102
1, 182278, Control_c, 0, 64, 103
1, 182293, Control_c, 0, 64, 106
1, 182294, Note_off_c, 0, 38, 37
1, 182305, Note_on_c, 0, 26, 45
1, 182308, Control_c, 0, 64, 109
1, 182322, Control_c, 0, 64, 112
1, 182337, Control_c, 0, 64, 113
1, 182352, Control_c, 0, 64, 113
1, 182366, Control_c, 0, 64, 114
1, 182381, Control_c, 0, 64, 114
1, 182385, Note_off_c, 0, 26, 44
1, 182396, Control_c, 0, 64, 115
1, 182411, Control_c, 0, 64, 117
1, 182426, Control_c, 0, 64, 118
1, 182433, Note_on_c, 0, 38, 41
1, 182441, Control_c, 0, 64, 119
1, 182456, Control_c, 0, 64, 122
1, 182471, Control_c, 0, 64, 126
1, 182483, Note_off_c, 0, 38, 43
1, 182485, Control_c, 0, 64, 127
1, 182532, Note_on_c, 0, 26, 42
1, 182586, Note_on_c, 0, 54, 47
1, 182631, Note_off_c, 0, 26, 52
1, 182668, Note_off_c, 0, 52, 29
1, 182673, Note_on_c, 0, 38, 35
1, 182724, Note_off_c, 0, 38, 44
1, 182736, Note_on_c, 0, 56, 57
1, 182766, Note_on_c, 0, 26, 46
1, 182785, Note_off_c, 0, 54, 36
1, 182820, Note_off_c, 0, 26, 54
1, 182855, Note_off_c, 0, 56, 57
1, 182862, Note_on_c, 0, 38, 44
1, 182870, Note_on_c, 0, 58, 51
1, 182972, Note_off_c, 0, 38, 35
1, 182980, Note_on_c, 0, 26, 51
1, 182986, Note_off_c, 0, 58, 59
1, 182993, Note_on_c, 0, 59, 62
1, 183021, Note_off_c, 0, 59, 64
1, 183061, Note_off_c, 0, 26, 54
1, 183109, Note_on_c, 0, 38, 48
1, 183132, Control_c, 0, 64, 98
1, 183146, Control_c, 0, 64, 66
1, 183161, Control_c, 0, 64, 0
1, 183169, Note_on_c, 0, 40, 54
1, 183183, Note_off_c, 0, 38, 49
1, 183210, Note_on_c, 0, 26, 47
1, 183235, Control_c, 0, 64, 19
1, 183250, Control_c, 0, 64, 55
1, 183264, Control_c, 0, 64, 63
1, 183279, Control_c, 0, 64, 65
1, 183294, Note_off_c, 0, 40, 58
1, 183294, Control_c, 0, 64, 66
1, 183304, Note_on_c, 0, 42, 54
1, 183309, Control_c, 0, 64, 68
1, 183323, Note_off_c, 0, 26, 52
1, 183324, Control_c, 0, 64, 69
1, 183343, Note_on_c, 0, 38, 44
1, 183353, Control_c, 0, 64, 70
1, 183368, Control_c, 0, 64, 71
1, 183383, Control_c, 0, 64, 73
1, 183387, Note_on_c, 0, 44, 50
1, 183392, Note_off_c, 0, 42, 61
1, 183398, Control_c, 0, 64, 74
1, 183413, Control_c, 0, 64, 75
1, 183424, Note_off_c, 0, 44, 64
1, 183425, Note_on_c, 0, 46, 52
1, 183442, Note_off_c, 0, 38, 38
1, 183452, Note_on_c, 0, 26, 56
1, 183454, Note_off_c, 0, 46, 63
1, 183457, Control_c, 0, 64, 75
1, 183472, Control_c, 0, 64, 76
1, 183487, Control_c, 0, 64, 77
1, 183493, Note_on_c, 0, 47, 61
1, 183502, Control_c, 0, 64, 78
1, 183519, Note_off_c, 0, 26, 59
1, 183530, Control_c, 0, 64, 79
1, 183532, Note_on_c, 0, 49, 74
1, 183550, Note_off_c, 0, 47, 62
1, 183554, Note_on_c, 0, 38, 50
1, 183559, Control_c, 0, 64, 78
1, 183588, Control_c, 0, 64, 78
1, 183592, Note_off_c, 0, 49, 65
1, 183599, Note_off_c, 0, 38, 60
1, 183606, Note_on_c, 0, 52, 64
1, 183633, Note_on_c, 0, 26, 69
1, 183649, Control_c, 0, 64, 78
1, 183672, Note_on_c, 0, 49, 61
1, 183672, Control_c, 0, 64, 79
1, 183687, Control_c, 0, 64, 80
1, 183696, Note_on_c, 0, 50, 72
1, 183698, Note_off_c, 0, 52, 58
1, 183700, Note_off_c, 0, 49, 66
1, 183701, Control_c, 0, 64, 81
1, 183714, Note_on_c, 0, 38, 73
1, 183714, Note_off_c, 0, 26, 60
1, 183716, Control_c, 0, 64, 82
1, 183724, Note_off_c, 0, 50, 68
1, 183731, Control_c, 0, 64, 83
1, 183761, Control_c, 0, 64, 81
1, 183775, Control_c, 0, 64, 78
1, 183786, Note_on_c, 0, 52, 73
1, 183790, Control_c, 0, 64, 72
1, 183799, Note_off_c, 0, 38, 56
1, 183805, Note_on_c, 0, 26, 75
1, 183805, Control_c, 0, 64, 67
1, 183812, Note_on_c, 0, 54, 76
1, 183819, Control_c, 0, 64, 68
1, 183820, Note_off_c, 0, 52, 60
1, 183834, Control_c, 0, 64, 71
1, 183842, Poly_aftertouch_c, 0, 31, 127
1, 183849, Control_c, 0, 64, 74
1, 183861, Note_on_c, 0, 56, 78
1, 183864, Control_c, 0, 64, 77
1, 183874, Note_off_c, 0, 26, 61
1, 183878, Note_on_c, 0, 38, 76
1, 183879, Control_c, 0, 64, 82
1, 183883, Note_on_c, 0, 58, 78
1, 183884, Note_off_c, 0, 54, 65
1, 183893, Control_c, 0, 64, 85
1, 183904, Note_off_c, 0, 56, 66
1, 183917, Note_off_c, 0, 58, 63
1, 183923, Control_c, 0, 64, 82
1, 183938, Control_c, 0, 64, 77
1, 183945, Note_off_c, 0, 38, 59
1, 183953, Control_c, 0, 64, 75
1, 183955, Note_on_c, 0, 26, 79
1, 183957, Note_on_c, 0, 59, 80
1, 183967, Control_c, 0, 64, 77
1, 183982, Control_c, 0, 64, 79
1, 183991, Note_on_c, 0, 61, 78
1, 183997, Control_c, 0, 64, 82
1, 184012, Control_c, 0, 64, 87
1, 184020, Note_off_c, 0, 59, 61
1, 184022, Note_on_c, 0, 38, 81
1, 184023, Poly_aftertouch_c, 0, 31, 0
1, 184025, Note_on_c, 0, 62, 83
1, 184027, Control_c, 0, 64, 95
1, 184032, Note_off_c, 0, 26, 63
1, 184041, Control_c, 0, 64, 104
1, 184046, Note_off_c, 0, 61, 63
1, 184056, Control_c, 0, 64, 112
1, 184060, Poly_aftertouch_c, 0, 31, 127
1, 184066, Note_off_c, 0, 62, 60
1, 184071, Control_c, 0, 64, 113
1, 184079, Note_off_c, 0, 38, 63
1, 184097, Note_on_c, 0, 26, 78
1, 184116, Control_c, 0, 64, 110
1, 184122, Note_on_c, 0, 64, 73
1, 184128, Note_on_c, 0, 65, 76
1, 184131, Control_c, 0, 64, 100
1, 184136, Poly_aftertouch_c, 0, 31, 0
1, 184143, Note_on_c, 0, 66, 89
1, 184145, Control_c, 0, 64, 96
1, 184157, Note_off_c, 0, 64, 63
1, 184158, Note_on_c, 0, 38, 86
1, 184160, Control_c, 0, 64, 96
1, 184162, Note_off_c, 0, 65, 60
1, 184163, Note_off_c, 0, 26, 65
1, 184164, Note_on_c, 0, 31, 25
1, 184175, Control_c, 0, 64, 100
1, 184179, Poly_aftertouch_c, 0, 27, 127
1, 184190, Control_c, 0, 64, 108
1, 184194, Note_on_c, 0, 68, 79
1, 184204, Control_c, 0, 64, 127
1, 184211, Note_off_c, 0, 38, 61
1, 184213, Note_off_c, 0, 66, 63
1, 184220, Note_off_c, 0, 68, 63
1, 184227, Note_on_c, 0, 70, 53
1, 184228, Note_on_c, 0, 69, 59
1, 184232, Note_on_c, 0, 26, 81
1, 184245, Poly_aftertouch_c, 0, 27, 0
1, 184249, Note_off_c, 0, 69, 63
1, 184253, Note_off_c, 0, 70, 37
1, 184264, Note_off_c, 0, 31, 0
1, 184280, Note_on_c, 0, 71, 41
1, 184291, Note_on_c, 0, 31, 23
1, 184292, Note_on_c, 0, 38, 81
1, 184301, Note_off_c, 0, 26, 63
1, 184336, Note_on_c, 0, 73, 80
1, 184340, Note_off_c, 0, 38, 62
1, 184366, Note_on_c, 0, 75, 76
1, 184368, Note_off_c, 0, 71, 65
1, 184369, Note_on_c, 0, 26, 77
1, 184402, Note_on_c, 0, 76, 82
1, 184416, Note_off_c, 0, 73, 63
1, 184426, Note_on_c, 0, 38, 83
1, 184437, Note_off_c, 0, 75, 65
1, 184440, Note_off_c, 0, 26, 64
1, 184443, Note_off_c, 0, 76, 63
1, 184490, Note_off_c, 0, 38, 61
1, 184509, Control_c, 0, 64, 92
1, 184524, Control_c, 0, 64, 27
1, 184527, Note_on_c, 0, 25, 83
1, 184533, Note_on_c, 0, 80, 101
1, 184538, Note_on_c, 0, 72, 92
1, 184539, Control_c, 0, 64, 0
1, 184543, Note_on_c, 0, 78, 78
1, 184560, Note_off_c, 0, 72, 67
1, 184563, Note_off_c, 0, 78, 70
1, 184575, Note_off_c, 0, 80, 65
1, 184598, Control_c, 0, 64, 53
1, 184613, Control_c, 0, 64, 67
1, 184615, Note_on_c, 0, 38, 76
1, 184628, Control_c, 0, 64, 74
1, 184632, Note_off_c, 0, 31, 0
1, 184639, Note_off_c, 0, 25, 59
1, 184642, Control_c, 0, 64, 80
1, 184657, Control_c, 0, 64, 85
1, 184668, Poly_aftertouch_c, 0, 31, 127
1, 184672, Control_c, 0, 64, 88
1, 184685, Note_off_c, 0, 38, 61
1, 184687, Control_c, 0, 64, 91
1, 184702, Control_c, 0, 64, 95
1, 184716, Control_c, 0, 64, 99
1, 184730, Note_on_c, 0, 25, 73
1, 184731, Control_c, 0, 64, 102
1, 184736, Note_on_c, 0, 72, 93
1, 184738, Note_on_c, 0, 80, 94
1, 184739, Note_on_c, 0, 78, 89
1, 184746, Control_c, 0, 64, 104
1, 184757, Note_off_c, 0, 72, 67
1, 184759, Note_off_c, 0, 78, 67
1, 184760, Control_c, 0, 64, 106
1, 184764, Note_off_c, 0, 80, 63
1, 184775, Control_c, 0, 64, 107
1, 184790, Control_c, 0, 64, 110
1, 184798, Note_on_c, 0, 38, 79
1, 184799, Poly_aftertouch_c, 0, 31, 0
1, 184805, Control_c, 0, 64, 115
1, 184820, Control_c, 0, 64, 127
1, 184821, Note_off_c, 0, 25, 61
1, 184835, Poly_aftertouch_c, 0, 31, 127
1, 184861, Note_off_c, 0, 38, 59
1, 184889, Note_on_c, 0, 80, 95
1, 184891, Note_on_c, 0, 72, 92
1, 184894, Note_on_c, 0, 78, 85
1, 184907, Note_on_c, 0, 25, 79
1, 184912, Note_off_c, 0, 72, 69
1, 184912, Note_off_c, 0, 78, 72
1, 184918, Note_off_c, 0, 80, 60
1, 184963, Note_on_c, 0, 38, 83
1, 184963, Poly_aftertouch_c, 0, 31, 0
1, 184980, Note_off_c, 0, 25, 60
1, 184989, Note_on_c, 0, 31, 10
1, 185020, Note_off_c, 0, 38, 62
1, 185021, Note_on_c, 0, 72, 97
1, 185021, Note_on_c, 0, 80, 98
1, 185026, Note_on_c, 0, 78, 84
1, 185039, Note_off_c, 0, 72, 67
1, 185040, Note_off_c, 0, 80, 65
1, 185042, Note_off_c, 0, 78, 74
1, 185050, Note_on_c, 0, 25, 82
1, 185094, Note_off_c, 0, 31, 0
1, 185107, Note_on_c, 0, 38, 89
1, 185109, Note_on_c, 0, 31, 46
1, 185123, Note_on_c, 0, 72, 101
1, 185123, Note_on_c, 0, 80, 98
1, 185127, Note_off_c, 0, 25, 61
1, 185130, Note_on_c, 0, 78, 83
1, 185141, Note_off_c, 0, 72, 65
1, 185147, Note_off_c, 0, 78, 73
1, 185161, Note_off_c, 0, 38, 63
1, 185162, Note_off_c, 0, 80, 62
1, 185194, Note_on_c, 0, 25, 79
1, 185225, Note_on_c, 0, 72, 100
1, 185225, Note_on_c, 0, 80, 92
1, 185231, Note_on_c, 0, 78, 86
1, 185231, Note_off_c, 0, 31, 0
1, 185231, Note_on_c, 0, 31, 25
1, 185245, Note_on_c, 0, 38, 83
1, 185249, Note_off_c, 0, 72, 63
1, 185249, Note_off_c, 0, 78, 70
1, 185260, Note_off_c, 0, 80, 67
1, 185264, Note_off_c, 0, 25, 61
1, 185288, Note_off_c, 0, 38, 60
1, 185318, Note_on_c, 0, 80, 92
1, 185320, Note_on_c, 0, 72, 96
1, 185326, Note_on_c, 0, 25, 84
1, 185326, Note_on_c, 0, 78, 80
1, 185338, Note_off_c, 0, 72, 65
1, 185344, Note_off_c, 0, 78, 70
1, 185353, Note_off_c, 0, 80, 66
1, 185371, Note_off_c, 0, 31, 0
1, 185371, Note_on_c, 0, 31, 7
1, 185374, Note_on_c, 0, 38, 80
1, 185391, Note_off_c, 0, 25, 62
1, 185414, Note_on_c, 0, 72, 93
1, 185417, Note_on_c, 0, 80, 85
1, 185422, Note_on_c, 0, 78, 83
1, 185423, Note_off_c, 0, 38, 62
1, 185435, Note_off_c, 0, 72, 64
1, 185440, Note_off_c, 0, 78, 71
1, 185453, Note_off_c, 0, 80, 62
1, 185457, Note_on_c, 0, 25, 82
1, 185469, Note_off_c, 0, 31, 0
1, 185495, Note_on_c, 0, 31, 31
1, 185502, Note_on_c, 0, 38, 86
1, 185508, Note_on_c, 0, 72, 95
1, 185508, Note_on_c, 0, 80, 82
1, 185517, Note_on_c, 0, 78, 83
1, 185522, Note_off_c, 0, 25, 61
1, 185524, Note_off_c, 0, 72, 69
1, 185533, Note_off_c, 0, 78, 73
1, 185544, Note_off_c, 0, 38, 60
1, 185547, Note_off_c, 0, 80, 60
1, 185584, Note_on_c, 0, 25, 91
1, 185598, Note_on_c, 0, 72, 94
1, 185599, Note_on_c, 0, 80, 80
1, 185604, Note_on_c, 0, 78, 83
1, 185616, Note_off_c, 0, 31, 0
1, 185616, Note_on_c, 0, 31, 23
1, 185620, Note_off_c, 0, 72, 64
1, 185624, Note_on_c, 0, 38, 83
1, 185630, Note_off_c, 0, 78, 63
1, 185639, Note_off_c, 0, 80, 65
1, 185646, Note_off_c, 0, 25, 61
1, 185669, Note_off_c, 0, 38, 57
1, 185693, Note_on_c, 0, 80, 82
1, 185694, Note_on_c, 0, 72, 91
1, 185699, Note_on_c, 0, 78, 85
1, 185711, Note_on_c, 0, 25, 81
1, 185714, Note_off_c, 0, 72, 66
1, 185729, Note_off_c, 0, 31, 0
1, 185733, Note_off_c, 0, 78, 58
1, 185734, Note_off_c, 0, 80, 65
1, 185752, Note_on_c, 0, 31, 41
1, 185753, Note_on_c, 0, 38, 84
1, 185776, Note_off_c, 0, 25, 61
1, 185790, Note_on_c, 0, 80, 81
1, 185791, Note_on_c, 0, 72, 87
1, 185792, Note_off_c, 0, 38, 52
1, 185797, Note_on_c, 0, 78, 73
1, 185809, Note_off_c, 0, 72, 69
1, 185817, Note_off_c, 0, 78, 67
1, 185830, Note_off_c, 0, 80, 64
1, 185841, Note_on_c, 0, 25, 82
1, 185851, Note_off_c, 0, 31, 38
1, 185887, Note_on_c, 0, 38, 83
1, 185887, Note_on_c, 0, 72, 90
1, 185888, Note_on_c, 0, 80, 84
1, 185892, Note_on_c, 0, 78, 88
1, 185913, Note_on_c, 0, 31, 42
1, 185919, Note_off_c, 0, 72, 60
1, 185926, Note_off_c, 0, 25, 60
1, 185945, Note_off_c, 0, 78, 61
1, 185949, Note_off_c, 0, 80, 63
1, 185954, Note_off_c, 0, 38, 59
1, 185992, Note_off_c, 0, 31, 46
1, 186003, Note_on_c, 0, 25, 91
1, 186021, Control_c, 0, 64, 80
1, 186021, Note_on_c, 0, 83, 110
1, 186024, Note_on_c, 0, 72, 103
1, 186028, Note_on_c, 0, 82, 106
1, 186036, Control_c, 0, 64, 0
1, 186048, Note_on_c, 0, 27, 43
1, 186055, Note_on_c, 0, 38, 90
1, 186081, Note_on_c, 0, 31, 37
1, 186093, Note_off_c, 0, 27, 59
1, 186096, Note_off_c, 0, 25, 59
1, 186101, Note_off_c, 0, 83, 58
1, 186121, Note_off_c, 0, 38, 62
1, 186140, Control_c, 0, 64, 57
1, 186155, Control_c, 0, 64, 67
1, 186170, Note_on_c, 0, 25, 71
1, 186170, Control_c, 0, 64, 72
1, 186185, Control_c, 0, 64, 77
1, 186200, Control_c, 0, 64, 82
1, 186212, Note_on_c, 0, 38, 72
1, 186214, Control_c, 0, 64, 86
1, 186223, Note_off_c, 0, 25, 60
1, 186229, Control_c, 0, 64, 92
1, 186233, Note_off_c, 0, 31, 0
1, 186233, Note_on_c, 0, 31, 3
1, 186244, Control_c, 0, 64, 98
1, 186259, Control_c, 0, 64, 101
1, 186264, Note_off_c, 0, 38, 61
1, 186274, Control_c, 0, 64, 103
1, 186279, Note_on_c, 0, 25, 71
1, 186288, Control_c, 0, 64, 106
1, 186303, Control_c, 0, 64, 115
1, 186318, Control_c, 0, 64, 127
1, 186338, Note_off_c, 0, 31, 36
1, 186346, Note_on_c, 0, 38, 69
1, 186348, Note_off_c, 0, 25, 61
1, 186369, Note_off_c, 0, 38, 68
1, 186414, Note_on_c, 0, 28, 89
1, 186421, Control_c, 0, 64, 84
1, 186436, Control_c, 0, 64, 0
1, 186510, Control_c, 0, 64, 64
1, 186522, Note_on_c, 0, 38, 65
1, 186525, Control_c, 0, 64, 69
1, 186539, Control_c, 0, 64, 73
1, 186541, Note_off_c, 0, 28, 59
1, 186554, Control_c, 0, 64, 76
1, 186569, Control_c, 0, 64, 76
1, 186582, Note_off_c, 0, 38, 61
1, 186596, Note_on_c, 0, 28, 66
1, 186614, Control_c, 0, 64, 77
1, 186629, Control_c, 0, 64, 79
1, 186644, Control_c, 0, 64, 82
1, 186666, Control_c, 0, 64, 84
1, 186677, Note_on_c, 0, 38, 69
1, 186681, Note_off_c, 0, 28, 61
1, 186695, Control_c, 0, 64, 82
1, 186710, Control_c, 0, 64, 78
1, 186725, Control_c, 0, 64, 72
1, 186736, Note_off_c, 0, 38, 58
1, 186739, Control_c, 0, 64, 67
1, 186742, Note_on_c, 0, 28, 71
1, 186754, Control_c, 0, 64, 68
1, 186769, Control_c, 0, 64, 69
1, 186812, Note_on_c, 0, 38, 57
1, 186814, Control_c, 0, 64, 68
1, 186814, Note_off_c, 0, 28, 60
1, 186844, Control_c, 0, 64, 69
1, 186859, Control_c, 0, 64, 68
1, 186874, Control_c, 0, 64, 67
1, 186884, Note_off_c, 0, 38, 59
1, 186885, Note_on_c, 0, 28, 66
1, 186889, Control_c, 0, 64, 67
1, 186903, Control_c, 0, 64, 68
1, 186918, Control_c, 0, 64, 69
1, 186958, Note_off_c, 0, 28, 59
1, 186963, Control_c, 0, 64, 70
1, 186965, Note_on_c, 0, 38, 55
1, 186978, Control_c, 0, 64, 72
1, 186993, Control_c, 0, 64, 74
1, 187007, Control_c, 0, 64, 74
1, 187031, Note_off_c, 0, 38, 58
1, 187033, Note_on_c, 0, 28, 62
1, 187037, Control_c, 0, 64, 75
1, 187052, Control_c, 0, 64, 77
1, 187052, Control_c, 0, 67, 9
1, 187067, Control_c, 0, 64, 81
1, 187067, Control_c, 0, 67, 11
1, 187082, Control_c, 0, 64, 83
1, 187082, Control_c, 0, 67, 13
1, 187097, Control_c, 0, 64, 84
1, 187097, Control_c, 0, 67, 17
1, 187103, Note_off_c, 0, 28, 57
1, 187108, Note_on_c, 0, 38, 43
1, 187111, Control_c, 0, 64, 83
1, 187111, Control_c, 0, 67, 21
1, 187126, Control_c, 0, 67, 25
1, 187141, Control_c, 0, 67, 27
1, 187155, Control_c, 0, 67, 28
1, 187170, Control_c, 0, 67, 29
1, 187178, Note_on_c, 0, 28, 50
1, 187179, Note_off_c, 0, 38, 55
1, 187185, Control_c, 0, 67, 30
1, 187200, Control_c, 0, 67, 32
1, 187215, Control_c, 0, 67, 34
1, 187229, Control_c, 0, 64, 83
1, 187229, Control_c, 0, 67, 35
1, 187234, Note_off_c, 0, 28, 55
1, 187244, Control_c, 0, 64, 82
1, 187244, Control_c, 0, 67, 35
1, 187249, Note_on_c, 0, 38, 22
1, 187259, Control_c, 0, 67, 36
1, 187274, Control_c, 0, 67, 37
1, 187289, Control_c, 0, 64, 82
1, 187289, Control_c, 0, 67, 40
1, 187303, Control_c, 0, 64, 80
1, 187303, Control_c, 0, 67, 42
1, 187318, Control_c, 0, 64, 78
1, 187318, Control_c, 0, 67, 43
1, 187320, Note_off_c, 0, 38, 54
1, 187326, Note_on_c, 0, 28, 54
1, 187333, Control_c, 0, 64, 78
1, 187333, Control_c, 0, 67, 43
1, 187348, Control_c, 0, 67, 45
1, 187362, Control_c, 0, 64, 77
1, 187362, Control_c, 0, 67, 48
1, 187377, Control_c, 0, 67, 51
1, 187383, Note_off_c, 0, 28, 54
1, 187392, Control_c, 0, 67, 53
1, 187415, Control_c, 0, 67, 54
1, 187430, Control_c, 0, 64, 78
1, 187430, Control_c, 0, 67, 56
1, 187431, Note_on_c, 0, 38, 18
1, 187444, Control_c, 0, 67, 58
1, 187459, Control_c, 0, 67, 60
1, 187474, Control_c, 0, 67, 63
1, 187485, Note_off_c, 0, 38, 47
1, 187489, Control_c, 0, 67, 65
1, 187493, Note_on_c, 0, 28, 48
1, 187504, Control_c, 0, 64, 77
1, 187504, Control_c, 0, 67, 67
1, 187518, Control_c, 0, 64, 77
1, 187518, Control_c, 0, 67, 67
1, 187533, Control_c, 0, 67, 68
1, 187546, Note_off_c, 0, 28, 51
1, 187548, Control_c, 0, 67, 70
1, 187562, Control_c, 0, 67, 72
1, 187577, Control_c, 0, 67, 75
1, 187592, Note_on_c, 0, 38, 42
1, 187592, Control_c, 0, 64, 76
1, 187592, Control_c, 0, 67, 78
1, 187607, Control_c, 0, 67, 79
1, 187622, Control_c, 0, 64, 76
1, 187622, Control_c, 0, 67, 81
1, 187638, Control_c, 0, 67, 83
1, 187651, Note_off_c, 0, 38, 51
1, 187653, Control_c, 0, 67, 86
1, 187667, Control_c, 0, 67, 88
1, 187678, Note_on_c, 0, 28, 42
1, 187682, Control_c, 0, 67, 89
1, 187697, Control_c, 0, 67, 90
1, 187712, Control_c, 0, 67, 91
1, 187723, Note_off_c, 0, 28, 54
1, 187726, Control_c, 0, 67, 92
1, 187737, Poly_aftertouch_c, 0, 33, 0
1, 187741, Control_c, 0, 67, 93
1, 187756, Note_on_c, 0, 38, 44
1, 187756, Control_c, 0, 64, 75
1, 187756, Control_c, 0, 67, 94
1, 187771, Control_c, 0, 64, 74
1, 187771, Control_c, 0, 67, 94
1, 187785, Control_c, 0, 64, 73
1, 187785, Control_c, 0, 67, 96
1, 187800, Control_c, 0, 64, 72
1, 187800, Control_c, 0, 67, 97
1, 187815, Control_c, 0, 64, 71
1, 187815, Control_c, 0, 67, 99
1, 187830, Control_c, 0, 64, 69
1, 187830, Control_c, 0, 67, 100
1, 187845, Control_c, 0, 64, 67
1, 187845, Control_c, 0, 67, 102
1, 187860, Control_c, 0, 64, 68
1, 187860, Control_c, 0, 67, 103
1, 187869, Note_off_c, 0, 38, 49
1, 187875, Control_c, 0, 64, 69
1, 187875, Control_c, 0, 67, 105
1, 187879, Note_on_c, 0, 28, 47
1, 187890, Control_c, 0, 64, 70
1, 187890, Control_c, 0, 67, 106
1, 187905, Control_c, 0, 67, 107
1, 187920, Control_c, 0, 67, 109
1, 187934, Control_c, 0, 67, 109
1, 187945, Note_on_c, 0, 79, 59
1, 187949, Control_c, 0, 67, 110
1, 187958, Note_off_c, 0, 82, 58
1, 187964, Control_c, 0, 67, 112
1, 187977, Note_off_c, 0, 28, 52
1, 187978, Control_c, 0, 67, 114
1, 187993, Control_c, 0, 67, 115
1, 188008, Control_c, 0, 67, 115
1, 188012, Note_on_c, 0, 38, 39
1, 188023, Control_c, 0, 67, 117
1, 188038, Control_c, 0, 67, 118
1, 188052, Control_c, 0, 67, 120
1, 188067, Control_c, 0, 67, 121
1, 188082, Control_c, 0, 67, 122
1, 188097, Control_c, 0, 67, 123
1, 188112, Control_c, 0, 67, 124
1, 188126, Control_c, 0, 64, 69
1, 188126, Control_c, 0, 67, 126
1, 188141, Control_c, 0, 64, 68
1, 188141, Control_c, 0, 67, 127
1, 188164, Control_c, 0, 64, 68
1, 188223, Control_c, 0, 64, 67
1, 188225, Note_off_c, 0, 38, 43
1, 188235, Note_on_c, 0, 28, 34
1, 188282, Control_c, 0, 64, 67
1, 188297, Control_c, 0, 64, 66
1, 188356, Control_c, 0, 64, 65
1, 188371, Control_c, 0, 64, 65
1, 188406, Note_off_c, 0, 28, 41
1, 188447, Note_on_c, 0, 38, 32
1, 188550, Control_c, 0, 64, 64
1, 188608, Control_c, 0, 64, 64
1, 188638, Control_c, 0, 64, 63
1, 188816, Control_c, 0, 64, 63
1, 188831, Control_c, 0, 64, 60
1, 188846, Control_c, 0, 64, 47
1, 188858, Note_on_c, 0, 28, 30
1, 188861, Control_c, 0, 64, 0
1, 188915, Note_off_c, 0, 38, 38
1, 188957, Control_c, 0, 64, 11
1, 188972, Control_c, 0, 64, 36
1, 188987, Control_c, 0, 64, 49
1, 189002, Control_c, 0, 64, 55
1, 189016, Control_c, 0, 64, 60
1, 189031, Control_c, 0, 64, 64
1, 189046, Control_c, 0, 64, 67
1, 189061, Control_c, 0, 64, 69
1, 189076, Control_c, 0, 64, 71
1, 189090, Control_c, 0, 64, 73
1, 189105, Control_c, 0, 64, 75
1, 189120, Control_c, 0, 64, 78
1, 189134, Control_c, 0, 64, 81
1, 189149, Control_c, 0, 64, 83
1, 189164, Control_c, 0, 64, 84
1, 189179, Control_c, 0, 64, 84
1, 189194, Control_c, 0, 64, 86
1, 189208, Control_c, 0, 64, 87
1, 189208, Control_c, 0, 67, 127
1, 189223, Control_c, 0, 64, 88
1, 189239, Control_c, 0, 64, 90
1, 189254, Control_c, 0, 64, 93
1, 189269, Control_c, 0, 64, 94
1, 189269, Control_c, 0, 67, 126
1, 189284, Control_c, 0, 64, 95
1, 189299, Control_c, 0, 64, 96
1, 189313, Control_c, 0, 64, 97
1, 189328, Control_c, 0, 64, 99
1, 189343, Control_c, 0, 64, 100
1, 189357, Control_c, 0, 64, 101
1, 189372, Control_c, 0, 64, 101
1, 189446, Control_c, 0, 64, 102
1, 189476, Control_c, 0, 64, 102
1, 189491, Control_c, 0, 64, 103
1, 189506, Control_c, 0, 64, 104
1, 189580, Control_c, 0, 64, 104
1, 189625, Control_c, 0, 64, 105
1, 189936, Note_off_c, 0, 72, 16
1, 190003, Control_c, 0, 64, 104
1, 190036, Note_off_c, 0, 28, 32
1, 190078, Control_c, 0, 64, 104
1, 190108, Control_c, 0, 64, 103
1, 190143, Note_off_c, 0, 79, 30
1, 190167, Control_c, 0, 64, 103
1, 190226, Control_c, 0, 64, 102
1, 190254, Control_c, 0, 64, 102
1, 190284, Control_c, 0, 64, 101
1, 190314, Control_c, 0, 64, 101
1, 190343, Control_c, 0, 64, 100
1, 190358, Control_c, 0, 64, 100
1, 190388, Control_c, 0, 64, 99
1, 190410, Control_c, 0, 64, 98
1, 190425, Control_c, 0, 64, 97
1, 190440, Control_c, 0, 64, 97
1, 190454, Control_c, 0, 64, 96
1, 190469, Control_c, 0, 64, 96
1, 190484, Control_c, 0, 64, 95
1, 190499, Control_c, 0, 64, 93
1, 190513, Control_c, 0, 64, 92
1, 190528, Control_c, 0, 64, 90
1, 190543, Control_c, 0, 64, 88
1, 190558, Control_c, 0, 64, 86
1, 190573, Control_c, 0, 64, 84
1, 190588, Control_c, 0, 64, 83
1, 190602, Control_c, 0, 64, 81
1, 190617, Control_c, 0, 64, 80
1, 190632, Control_c, 0, 64, 78
1, 190647, Control_c, 0, 64, 77
1, 190662, Control_c, 0, 64, 76
1, 190677, Control_c, 0, 64, 76
1, 190706, Control_c, 0, 64, 75
1, 190736, Control_c, 0, 64, 75
1, 190766, Control_c, 0, 64, 74
1, 190780, Control_c, 0, 64, 74
1, 190795, Control_c, 0, 64, 73
1, 190810, Control_c, 0, 64, 73
1, 190826, Control_c, 0, 64, 72
1, 190841, Control_c, 0, 64, 71
1, 190856, Control_c, 0, 64, 70
1, 190871, Control_c, 0, 64, 70
1, 190885, Control_c, 0, 64, 69
1, 190900, Control_c, 0, 64, 69
1, 190930, Control_c, 0, 64, 68
1, 190945, Control_c, 0, 64, 68
1, 190959, Control_c, 0, 64, 67
1, 190974, Control_c, 0, 64, 67
1, 190989, Control_c, 0, 64, 66
1, 191018, Control_c, 0, 64, 66
1, 191077, Control_c, 0, 64, 65
1, 191174, Control_c, 0, 64, 65
1, 191218, Control_c, 0, 64, 64
1, 191351, Control_c, 0, 64, 64
1, 191396, Control_c, 0, 64, 63
1, 191425, Control_c, 0, 64, 63
1, 191440, Control_c, 0, 64, 62
1, 191455, Control_c, 0, 64, 61
1, 191470, Control_c, 0, 64, 59
1, 191485, Control_c, 0, 64, 57
1, 191500, Control_c, 0, 64, 54
1, 191515, Control_c, 0, 64, 51
1, 191529, Control_c, 0, 64, 38
1, 191544, Control_c, 0, 64, 0
1, 191618, Control_c, 0, 67, 126
1, 191649, Control_c, 0, 67, 125
1, 191665, Note_on_c, 0, 56, 45
1, 191679, Control_c, 0, 67, 125
1, 191708, Control_c, 0, 67, 124
1, 191723, Control_c, 0, 67, 124
1, 191738, Control_c, 0, 67, 123
1, 191752, Control_c, 0, 67, 123
1, 191782, Control_c, 0, 67, 122
1, 191797, Control_c, 0, 64, 43
1, 191797, Control_c, 0, 67, 122
1, 191812, Control_c, 0, 64, 58
1, 191812, Control_c, 0, 67, 121
1, 191826, Control_c, 0, 64, 61
1, 191841, Control_c, 0, 64, 61
1, 191856, Control_c, 0, 64, 63
1, 191871, Control_c, 0, 64, 65
1, 191886, Control_c, 0, 64, 66
1, 191908, Control_c, 0, 64, 68
1, 191923, Control_c, 0, 64, 69
1, 191938, Control_c, 0, 64, 70
1, 191938, Control_c, 0, 67, 121
1, 191952, Control_c, 0, 64, 72
1, 191952, Control_c, 0, 67, 120
1, 191967, Control_c, 0, 64, 73
1, 191982, Control_c, 0, 64, 74
1, 191997, Control_c, 0, 64, 75
1, 191997, Control_c, 0, 67, 120
1, 192012, Control_c, 0, 64, 76
1, 192012, Control_c, 0, 67, 119
1, 192026, Control_c, 0, 64, 77
1, 192041, Control_c, 0, 64, 79
1, 192056, Control_c, 0, 64, 80
1, 192056, Control_c, 0, 67, 119
1, 192071, Control_c, 0, 64, 82
1, 192086, Control_c, 0, 64, 83
1, 192086, Control_c, 0, 67, 118
1, 192100, Control_c, 0, 64, 84
1, 192100, Control_c, 0, 67, 118
1, 192115, Control_c, 0, 64, 86
1, 192130, Control_c, 0, 64, 87
1, 192145, Control_c, 0, 64, 87
1, 192159, Control_c, 0, 64, 88
1, 192159, Control_c, 0, 67, 117
1, 192174, Control_c, 0, 64, 88
1, 192189, Control_c, 0, 64, 89
1, 192219, Control_c, 0, 64, 89
1, 192219, Control_c, 0, 67, 117
1, 192248, Control_c, 0, 64, 90
1, 192263, Control_c, 0, 67, 116
1, 192278, Control_c, 0, 67, 115
1, 192293, Control_c, 0, 64, 90
1, 192293, Control_c, 0, 67, 114
1, 192308, Control_c, 0, 64, 91
1, 192308, Control_c, 0, 67, 113
1, 192322, Control_c, 0, 67, 111
1, 192337, Control_c, 0, 67, 110
1, 192352, Control_c, 0, 67, 109
1, 192367, Control_c, 0, 67, 107
1, 192382, Control_c, 0, 67, 105
1, 192397, Control_c, 0, 67, 104
1, 192412, Control_c, 0, 67, 102
1, 192427, Control_c, 0, 67, 100
1, 192442, Control_c, 0, 67, 98
1, 192457, Control_c, 0, 67, 97
1, 192471, Control_c, 0, 67, 95
1, 192486, Control_c, 0, 67, 93
1, 192502, Control_c, 0, 67, 91
1, 192516, Control_c, 0, 67, 87
1, 192531, Control_c, 0, 67, 84
1, 192546, Control_c, 0, 67, 82
1, 192561, Control_c, 0, 67, 81
1, 192576, Control_c, 0, 67, 80
1, 192591, Control_c, 0, 67, 78
1, 192606, Control_c, 0, 67, 76
1, 192621, Control_c, 0, 64, 91
1, 192621, Control_c, 0, 67, 75
1, 192635, Control_c, 0, 67, 74
1, 192657, Control_c, 0, 64, 90
1, 192657, Control_c, 0, 67, 73
1, 192672, Control_c, 0, 64, 89
1, 192672, Control_c, 0, 67, 72
1, 192685, Note_on_c, 0, 59, 52
1, 192687, Control_c, 0, 64, 87
1, 192687, Control_c, 0, 67, 71
1, 192701, Control_c, 0, 64, 84
1, 192701, Control_c, 0, 67, 70
1, 192716, Control_c, 0, 64, 79
1, 192716, Control_c, 0, 67, 69
1, 192731, Control_c, 0, 64, 73
1, 192731, Control_c, 0, 67, 68
1, 192746, Control_c, 0, 64, 68
1, 192746, Control_c, 0, 67, 66
1, 192761, Control_c, 0, 64, 67
1, 192761, Control_c, 0, 67, 65
1, 192776, Control_c, 0, 64, 68
1, 192776, Control_c, 0, 67, 62
1, 192785, Note_off_c, 0, 56, 39
1, 192790, Control_c, 0, 67, 60
1, 192805, Control_c, 0, 64, 69
1, 192805, Control_c, 0, 67, 57
1, 192820, Control_c, 0, 64, 69
1, 192820, Control_c, 0, 67, 53
1, 192835, Control_c, 0, 64, 71
1, 192835, Control_c, 0, 67, 49
1, 192850, Control_c, 0, 64, 74
1, 192850, Control_c, 0, 67, 45
1, 192865, Control_c, 0, 64, 76
1, 192865, Control_c, 0, 67, 41
1, 192880, Control_c, 0, 64, 79
1, 192880, Control_c, 0, 67, 36
1, 192895, Control_c, 0, 64, 81
1, 192895, Control_c, 0, 67, 29
1, 192909, Control_c, 0, 64, 85
1, 192909, Control_c, 0, 67, 23
1, 192924, Control_c, 0, 64, 89
1, 192924, Control_c, 0, 67, 15
1, 192939, Control_c, 0, 64, 93
1, 192939, Control_c, 0, 67, 0
1, 192954, Control_c, 0, 64, 96
1, 192969, Control_c, 0, 64, 99
1, 192983, Control_c, 0, 64, 103
1, 192998, Control_c, 0, 64, 105
1, 193013, Control_c, 0, 64, 105
1, 193087, Control_c, 0, 64, 105
1, 193101, Control_c, 0, 64, 104
1, 193116, Note_on_c, 0, 68, 78
1, 193116, Control_c, 0, 64, 97
1, 193118, Note_off_c, 0, 59, 59
1, 193131, Control_c, 0, 64, 85
1, 193146, Control_c, 0, 64, 70
1, 193151, Note_on_c, 0, 58, 79
1, 193161, Control_c, 0, 64, 0
1, 193212, Note_off_c, 0, 68, 59
1, 193236, Control_c, 0, 64, 17
1, 193251, Control_c, 0, 64, 49
1, 193266, Control_c, 0, 64, 59
1, 193280, Control_c, 0, 64, 63
1, 193295, Control_c, 0, 64, 64
1, 193310, Control_c, 0, 64, 65
1, 193324, Control_c, 0, 64, 65
1, 193339, Control_c, 0, 64, 67
1, 193354, Control_c, 0, 64, 70
1, 193369, Control_c, 0, 64, 72
1, 193384, Control_c, 0, 64, 73
1, 193406, Control_c, 0, 64, 74
1, 193421, Control_c, 0, 64, 77
1, 193436, Control_c, 0, 64, 79
1, 193451, Control_c, 0, 64, 81
1, 193466, Control_c, 0, 64, 82
1, 193480, Control_c, 0, 64, 83
1, 193495, Control_c, 0, 64, 84
1, 193510, Control_c, 0, 64, 86
1, 193524, Control_c, 0, 64, 87
1, 193539, Control_c, 0, 64, 88
1, 193643, Control_c, 0, 64, 88
1, 193703, Control_c, 0, 64, 87
1, 193732, Control_c, 0, 64, 87
1, 193747, Control_c, 0, 64, 86
1, 193762, Control_c, 0, 64, 85
1, 193777, Control_c, 0, 64, 85
1, 193792, Control_c, 0, 64, 84
1, 193806, Control_c, 0, 64, 84
1, 193821, Control_c, 0, 64, 83
1, 193836, Control_c, 0, 64, 83
1, 193851, Control_c, 0, 64, 81
1, 193866, Control_c, 0, 64, 78
1, 193880, Control_c, 0, 64, 73
1, 193895, Control_c, 0, 64, 67
1, 193902, Note_on_c, 0, 55, 68
1, 193910, Control_c, 0, 64, 59
1, 193923, Note_off_c, 0, 58, 55
1, 193924, Control_c, 0, 64, 0
1, 194029, Control_c, 0, 64, 11
1, 194044, Control_c, 0, 64, 54
1, 194059, Control_c, 0, 64, 63
1, 194074, Control_c, 0, 64, 65
1, 194089, Control_c, 0, 64, 67
1, 194103, Control_c, 0, 64, 70
1, 194118, Control_c, 0, 64, 72
1, 194133, Control_c, 0, 64, 75
1, 194155, Control_c, 0, 64, 77
1, 194170, Control_c, 0, 64, 79
1, 194185, Control_c, 0, 64, 81
1, 194200, Control_c, 0, 64, 84
1, 194215, Control_c, 0, 64, 88
1, 194229, Control_c, 0, 64, 91
1, 194244, Control_c, 0, 64, 93
1, 194259, Control_c, 0, 64, 95
1, 194274, Control_c, 0, 64, 96
1, 194289, Control_c, 0, 64, 98
1, 194303, Control_c, 0, 64, 102
1, 194318, Control_c, 0, 64, 105
1, 194333, Control_c, 0, 64, 108
1, 194347, Control_c, 0, 64, 111
1, 194362, Control_c, 0, 64, 112
1, 194377, Control_c, 0, 64, 113
1, 194407, Control_c, 0, 64, 114
1, 194421, Control_c, 0, 64, 114
1, 194718, Control_c, 0, 64, 114
1, 194746, Control_c, 0, 64, 113
1, 194761, Control_c, 0, 64, 113
1, 194776, Control_c, 0, 64, 112
1, 194791, Control_c, 0, 64, 110
1, 194806, Control_c, 0, 64, 109
1, 194822, Control_c, 0, 64, 109
1, 194837, Control_c, 0, 64, 108
1, 194851, Control_c, 0, 64, 107
1, 194866, Control_c, 0, 64, 106
1, 194881, Control_c, 0, 64, 104
1, 194904, Control_c, 0, 64, 103
1, 194919, Control_c, 0, 64, 103
1, 194933, Control_c, 0, 64, 101
1, 194948, Control_c, 0, 64, 100
1, 194963, Control_c, 0, 64, 98
1, 194974, Note_on_c, 0, 47, 54
1, 194977, Control_c, 0, 64, 97
1, 194992, Control_c, 0, 64, 96
1, 195007, Control_c, 0, 64, 95
1, 195022, Control_c, 0, 64, 94
1, 195037, Control_c, 0, 64, 92
1, 195051, Control_c, 0, 64, 90
1, 195066, Control_c, 0, 64, 89
1, 195074, Note_off_c, 0, 47, 53
1, 195081, Control_c, 0, 64, 87
1, 195095, Control_c, 0, 64, 85
1, 195110, Control_c, 0, 64, 83
1, 195125, Control_c, 0, 64, 81
1, 195140, Control_c, 0, 64, 80
1, 195155, Control_c, 0, 64, 78
1, 195169, Control_c, 0, 64, 77
1, 195184, Control_c, 0, 64, 76
1, 195437, Control_c, 0, 64, 76
1, 195701, Note_on_c, 0, 51, 58
1, 195909, Note_off_c, 0, 51, 27
1, 196550, Note_on_c, 0, 47, 59
1, 196712, Control_c, 0, 64, 77
1, 196779, Note_off_c, 0, 47, 28
1, 196860, Control_c, 0, 64, 77
1, 196949, Control_c, 0, 64, 78
1, 197022, Control_c, 0, 64, 78
1, 197096, Control_c, 0, 64, 79
1, 197111, Control_c, 0, 64, 79
1, 197148, Control_c, 0, 64, 80
1, 197178, Control_c, 0, 64, 80
1, 197238, Control_c, 0, 64, 81
1, 197253, Control_c, 0, 64, 81
1, 197327, Control_c, 0, 64, 82
1, 197371, Control_c, 0, 64, 82
1, 197445, Control_c, 0, 64, 83
1, 197489, Control_c, 0, 64, 83
1, 197549, Control_c, 0, 64, 84
1, 197587, Note_on_c, 0, 51, 41
1, 197593, Control_c, 0, 64, 84
1, 197608, Control_c, 0, 64, 85
1, 197623, Control_c, 0, 64, 86
1, 197637, Note_off_c, 0, 51, 62
1, 197637, Control_c, 0, 64, 86
1, 197667, Control_c, 0, 64, 87
1, 197682, Control_c, 0, 64, 88
1, 197697, Control_c, 0, 64, 88
1, 197712, Control_c, 0, 64, 89
1, 197742, Control_c, 0, 64, 90
1, 197757, Control_c, 0, 64, 91
1, 197771, Control_c, 0, 64, 91
1, 197786, Control_c, 0, 64, 92
1, 197801, Control_c, 0, 64, 93
1, 197816, Control_c, 0, 64, 93
1, 197831, Control_c, 0, 64, 94
1, 197845, Control_c, 0, 64, 95
1, 197860, Control_c, 0, 64, 96
1, 197875, Control_c, 0, 64, 96
1, 197897, Control_c, 0, 64, 97
1, 197912, Control_c, 0, 64, 98
1, 197927, Control_c, 0, 64, 99
1, 197941, Control_c, 0, 64, 100
1, 197956, Control_c, 0, 64, 100
1, 197971, Control_c, 0, 64, 101
1, 197986, Control_c, 0, 64, 102
1, 198001, Control_c, 0, 64, 102
1, 198016, Control_c, 0, 64, 103
1, 198031, Control_c, 0, 64, 104
1, 198046, Control_c, 0, 64, 105
1, 198061, Control_c, 0, 64, 106
1, 198076, Control_c, 0, 64, 107
1, 198090, Control_c, 0, 64, 109
1, 198105, Control_c, 0, 64, 110
1, 198120, Control_c, 0, 64, 111
1, 198135, Control_c, 0, 64, 113
1, 198150, Control_c, 0, 64, 115
1, 198165, Control_c, 0, 64, 119
1, 198180, Control_c, 0, 64, 124
1, 198194, Control_c, 0, 64, 127
1, 198756, Note_on_c, 0, 30, 81
1, 198794, Control_c, 0, 64, 84
1, 198809, Note_on_c, 0, 43, 94
1, 198809, Control_c, 0, 64, 0
1, 198815, Note_off_c, 0, 30, 62
1, 198826, Note_on_c, 0, 33, 77
1, 198827, Note_on_c, 0, 31, 53
1, 198854, Note_off_c, 0, 33, 60
1, 198860, Note_off_c, 0, 31, 62
1, 198869, Control_c, 0, 64, 38
1, 198884, Control_c, 0, 64, 70
1, 198898, Control_c, 0, 64, 83
1, 198913, Control_c, 0, 64, 101
1, 198928, Control_c, 0, 64, 127
1, 199122, Note_off_c, 0, 43, 62
1, 199133, Note_on_c, 0, 40, 73
1, 199183, Note_off_c, 0, 40, 65
1, 199223, Note_on_c, 0, 39, 92
1, 199224, Control_c, 0, 64, 86
1, 199240, Control_c, 0, 64, 0
1, 199269, Control_c, 0, 64, 64
1, 199284, Control_c, 0, 64, 72
1, 199291, Note_on_c, 0, 38, 72
1, 199296, Note_off_c, 0, 39, 62
1, 199299, Control_c, 0, 64, 83
1, 199314, Control_c, 0, 64, 100
1, 199321, Note_on_c, 0, 37, 46
1, 199329, Control_c, 0, 64, 127
1, 199342, Note_on_c, 0, 32, 80
1, 199348, Note_off_c, 0, 38, 63
1, 199368, Note_off_c, 0, 32, 65
1, 199370, Note_off_c, 0, 37, 47
1, 199416, Poly_aftertouch_c, 0, 40, 0
1, 199452, Note_on_c, 0, 31, 62
1, 199455, Note_on_c, 0, 29, 54
1, 199475, Note_on_c, 0, 22, 76
1, 199489, Note_off_c, 0, 29, 58
1, 199497, Note_off_c, 0, 31, 63
1, 199513, Note_on_c, 0, 21, 77
1, 199578, Note_off_c, 0, 21, 60
1, 199587, Poly_aftertouch_c, 0, 23, 127
1, 199603, Control_c, 0, 64, 84
1, 199614, Note_off_c, 0, 22, 36
1, 199619, Control_c, 0, 64, 0
1, 199623, Poly_aftertouch_c, 0, 23, 0
1, 199649, Note_on_c, 0, 43, 98
1, 199692, Control_c, 0, 64, 65
1, 199707, Control_c, 0, 64, 78
1, 199722, Control_c, 0, 64, 102
1, 199737, Control_c, 0, 64, 127
1, 199775, Poly_aftertouch_c, 0, 37, 0
1, 199787, Note_off_c, 0, 55, 57
1, 199835, Note_off_c, 0, 43, 67
1, 200092, Control_c, 0, 64, 94
1, 200107, Control_c, 0, 64, 0
1, 200115, Note_on_c, 0, 42, 101
1, 200117, Note_on_c, 0, 55, 102
1, 200157, Note_on_c, 0, 54, 51
1, 200204, Control_c, 0, 64, 44
1, 200219, Control_c, 0, 64, 65
1, 200234, Control_c, 0, 64, 71
1, 200248, Control_c, 0, 64, 79
1, 200263, Control_c, 0, 64, 90
1, 200278, Control_c, 0, 64, 101
1, 200292, Control_c, 0, 64, 108
1, 200307, Control_c, 0, 64, 114
1, 200322, Control_c, 0, 64, 127
1, 200383, Note_off_c, 0, 42, 63
1, 200401, Note_off_c, 0, 54, 12
1, 200650, Note_off_c, 0, 55, 44
1, 200817, Note_on_c, 0, 51, 100
1, 200854, Note_off_c, 0, 51, 68
1, 201735, Note_on_c, 0, 47, 100
1, 201768, Note_off_c, 0, 47, 69
1, 203024, Note_on_c, 0, 51, 88
1, 203052, Note_off_c, 0, 51, 69
1, 204066, Control_c, 0, 67, 8
1, 204081, Control_c, 0, 67, 11
1, 204096, Control_c, 0, 67, 14
1, 204111, Control_c, 0, 67, 17
1, 204126, Control_c, 0, 67, 20
1, 204140, Control_c, 0, 67, 25
1, 204155, Control_c, 0, 67, 29
1, 204170, Control_c, 0, 67, 34
1, 204185, Control_c, 0, 67, 38
1, 204200, Control_c, 0, 67, 42
1, 204214, Control_c, 0, 67, 46
1, 204229, Control_c, 0, 67, 50
1, 204244, Control_c, 0, 67, 55
1, 204258, Control_c, 0, 67, 60
1, 204273, Control_c, 0, 67, 64
1, 204288, Control_c, 0, 67, 69
1, 204303, Control_c, 0, 67, 73
1, 204318, Control_c, 0, 67, 76
1, 204332, Control_c, 0, 67, 79
1, 204347, Control_c, 0, 67, 84
1, 204362, Control_c, 0, 67, 86
1, 204377, Control_c, 0, 67, 90
1, 204392, Control_c, 0, 67, 94
1, 204408, Control_c, 0, 67, 98
1, 204423, Control_c, 0, 67, 103
1, 204437, Control_c, 0, 67, 107
1, 204452, Control_c, 0, 67, 110
1, 204467, Control_c, 0, 67, 112
1, 204482, Control_c, 0, 67, 115
1, 204496, Control_c, 0, 67, 119
1, 204511, Control_c, 0, 67, 122
1, 204526, Control_c, 0, 67, 125
1, 204541, Control_c, 0, 67, 127
1, 205926, Note_on_c, 0, 31, 31
1, 205946, Note_on_c, 0, 25, 38
1, 205954, Note_on_c, 0, 29, 39
1, 206009, Control_c, 0, 64, 110
1, 206024, Control_c, 0, 64, 101
1, 206039, Control_c, 0, 64, 93
1, 206053, Control_c, 0, 64, 85
1, 206068, Control_c, 0, 64, 76
1, 206083, Control_c, 0, 64, 66
1, 206098, Control_c, 0, 64, 47
1, 206113, Control_c, 0, 64, 0
1, 206357, Control_c, 0, 64, 43
1, 206372, Control_c, 0, 64, 61
1, 206387, Control_c, 0, 64, 64
1, 206401, Control_c, 0, 64, 66
1, 206416, Control_c, 0, 64, 69
1, 206431, Control_c, 0, 64, 71
1, 206446, Control_c, 0, 64, 73
1, 206461, Control_c, 0, 64, 75
1, 206476, Control_c, 0, 64, 78
1, 206491, Control_c, 0, 64, 81
1, 206506, Control_c, 0, 64, 83
1, 206520, Control_c, 0, 64, 85
1, 206535, Control_c, 0, 64, 87
1, 206550, Control_c, 0, 64, 90
1, 206565, Control_c, 0, 64, 92
1, 206580, Control_c, 0, 64, 95
1, 206595, Control_c, 0, 64, 98
1, 206609, Control_c, 0, 64, 101
1, 206624, Control_c, 0, 64, 104
1, 206639, Control_c, 0, 64, 107
1, 206653, Control_c, 0, 64, 112
1, 206668, Control_c, 0, 64, 119
1, 206683, Control_c, 0, 64, 127
1, 206803, Control_c, 0, 67, 127
1, 206818, Control_c, 0, 67, 126
1, 206832, Control_c, 0, 67, 125
1, 206847, Control_c, 0, 67, 124
1, 206862, Control_c, 0, 67, 123
1, 206905, Note_off_c, 0, 25, 39
1, 206914, Control_c, 0, 67, 123
1, 206931, Note_off_c, 0, 29, 40
1, 206944, Control_c, 0, 67, 122
1, 206958, Control_c, 0, 67, 122
1, 206973, Control_c, 0, 67, 121
1, 206988, Control_c, 0, 67, 120
1, 207003, Control_c, 0, 67, 119
1, 207018, Control_c, 0, 67, 119
1, 207032, Control_c, 0, 67, 118
1, 207062, Control_c, 0, 67, 118
1, 207091, Control_c, 0, 67, 117
1, 207106, Control_c, 0, 67, 117
1, 207121, Control_c, 0, 67, 116
1, 207136, Control_c, 0, 67, 115
1, 207150, Control_c, 0, 67, 114
1, 207165, Control_c, 0, 67, 114
1, 207180, Control_c, 0, 67, 113
1, 207195, Control_c, 0, 67, 113
1, 207210, Control_c, 0, 67, 112
1, 207239, Control_c, 0, 67, 111
1, 207269, Control_c, 0, 67, 111
1, 207298, Control_c, 0, 67, 110
1, 207328, Control_c, 0, 67, 110
1, 207343, Control_c, 0, 67, 109
1, 207364, Note_on_c, 0, 33, 40
1, 207373, Control_c, 0, 67, 109
1, 207402, Control_c, 0, 64, 117
1, 207402, Control_c, 0, 67, 108
1, 207417, Control_c, 0, 64, 114
1, 207417, Control_c, 0, 67, 108
1, 207432, Control_c, 0, 64, 113
1, 207447, Control_c, 0, 64, 110
1, 207462, Control_c, 0, 64, 106
1, 207462, Control_c, 0, 67, 107
1, 207476, Control_c, 0, 64, 102
1, 207491, Control_c, 0, 64, 97
1, 207506, Control_c, 0, 64, 89
1, 207521, Control_c, 0, 64, 80
1, 207536, Control_c, 0, 64, 73
1, 207550, Control_c, 0, 64, 71
1, 207565, Control_c, 0, 64, 71
1, 207580, Control_c, 0, 64, 72
1, 207587, Note_off_c, 0, 31, 32
1, 207596, Control_c, 0, 64, 72
1, 207611, Control_c, 0, 64, 73
1, 207633, Control_c, 0, 64, 74
1, 207648, Control_c, 0, 64, 76
1, 207662, Control_c, 0, 64, 78
1, 207662, Control_c, 0, 67, 107
1, 207677, Control_c, 0, 64, 81
1, 207692, Control_c, 0, 64, 83
1, 207692, Control_c, 0, 67, 106
1, 207707, Control_c, 0, 64, 85
1, 207722, Control_c, 0, 64, 88
1, 207737, Control_c, 0, 64, 90
1, 207737, Control_c, 0, 67, 106
1, 207752, Control_c, 0, 64, 92
1, 207752, Control_c, 0, 67, 105
1, 207766, Control_c, 0, 64, 95
1, 207766, Control_c, 0, 67, 102
1, 207781, Control_c, 0, 64, 98
1, 207781, Control_c, 0, 67, 100
1, 207796, Control_c, 0, 64, 102
1, 207796, Control_c, 0, 67, 98
1, 207811, Control_c, 0, 64, 106
1, 207811, Control_c, 0, 67, 97
1, 207825, Control_c, 0, 64, 111
1, 207825, Control_c, 0, 67, 96
1, 207840, Control_c, 0, 64, 119
1, 207840, Control_c, 0, 67, 94
1, 207855, Control_c, 0, 64, 127
1, 207855, Control_c, 0, 67, 92
1, 207870, Control_c, 0, 67, 90
1, 207885, Control_c, 0, 67, 88
1, 207899, Control_c, 0, 67, 85
1, 207914, Control_c, 0, 67, 82
1, 207929, Control_c, 0, 67, 79
1, 207944, Control_c, 0, 67, 75
1, 207959, Control_c, 0, 67, 72
1, 207973, Control_c, 0, 67, 69
1, 207988, Control_c, 0, 67, 67
1, 208003, Control_c, 0, 67, 65
1, 208017, Note_on_c, 0, 27, 40
1, 208018, Control_c, 0, 67, 63
1, 208032, Note_on_c, 0, 40, 41
1, 208032, Control_c, 0, 67, 60
1, 208036, Note_off_c, 0, 33, 35
1, 208037, Note_on_c, 0, 34, 51
1, 208047, Control_c, 0, 67, 59
1, 208062, Control_c, 0, 67, 58
1, 208072, Note_off_c, 0, 27, 48
1, 208077, Control_c, 0, 67, 57
1, 208092, Control_c, 0, 67, 56
1, 208106, Control_c, 0, 67, 55
1, 208121, Control_c, 0, 67, 54
1, 208136, Control_c, 0, 67, 53
1, 208151, Control_c, 0, 67, 51
1, 208160, Note_off_c, 0, 34, 57
1, 208166, Control_c, 0, 67, 48
1, 208181, Control_c, 0, 67, 45
1, 208186, Note_off_c, 0, 40, 53
1, 208196, Control_c, 0, 67, 43
1, 208211, Control_c, 0, 67, 41
1, 208226, Control_c, 0, 67, 38
1, 208240, Control_c, 0, 67, 37
1, 208255, Control_c, 0, 67, 34
1, 208270, Control_c, 0, 67, 33
1, 208285, Control_c, 0, 67, 31
1, 208300, Control_c, 0, 67, 30
1, 208315, Control_c, 0, 67, 28
1, 208330, Control_c, 0, 67, 27
1, 208345, Control_c, 0, 67, 27
1, 208360, Control_c, 0, 67, 26
1, 208381, Control_c, 0, 67, 25
1, 208396, Control_c, 0, 64, 117
1, 208410, Note_on_c, 0, 48, 56
1, 208412, Control_c, 0, 64, 96
1, 208412, Control_c, 0, 67, 25
1, 208427, Control_c, 0, 64, 81
1, 208427, Control_c, 0, 67, 24
1, 208442, Control_c, 0, 64, 72
1, 208442, Control_c, 0, 67, 22
1, 208456, Control_c, 0, 64, 70
1, 208456, Control_c, 0, 67, 21
1, 208471, Control_c, 0, 64, 73
1, 208471, Control_c, 0, 67, 18
1, 208486, Control_c, 0, 64, 76
1, 208486, Control_c, 0, 67, 15
1, 208501, Control_c, 0, 64, 80
1, 208501, Control_c, 0, 67, 11
1, 208516, Control_c, 0, 64, 86
1, 208516, Control_c, 0, 67, 0
1, 208530, Control_c, 0, 64, 93
1, 208545, Control_c, 0, 64, 99
1, 208560, Control_c, 0, 64, 105
1, 208572, Note_off_c, 0, 48, 60
1, 208574, Note_on_c, 0, 44, 65
1, 208575, Control_c, 0, 64, 111
1, 208590, Control_c, 0, 64, 122
1, 208595, Note_on_c, 0, 61, 54
1, 208604, Control_c, 0, 64, 127
1, 208627, Note_off_c, 0, 61, 64
1, 208637, Note_on_c, 0, 45, 62
1, 208640, Note_on_c, 0, 66, 63
1, 208659, Note_on_c, 0, 69, 56
1, 208667, Note_off_c, 0, 66, 67
1, 208677, Note_on_c, 0, 75, 76
1, 208682, Note_off_c, 0, 69, 63
1, 208690, Note_on_c, 0, 46, 66
1, 208699, Note_off_c, 0, 75, 70
1, 208729, Note_on_c, 0, 52, 68
1, 208742, Note_off_c, 0, 45, 61
1, 208757, Note_on_c, 0, 80, 86
1, 208757, Note_off_c, 0, 44, 57
1, 208763, Note_off_c, 0, 46, 61
1, 208763, Note_off_c, 0, 52, 62
1, 208801, Note_off_c, 0, 80, 61
1, 208806, Note_on_c, 0, 90, 98
1, 208843, Note_off_c, 0, 90, 65
1, 209033, Control_c, 0, 64, 119
1, 209047, Control_c, 0, 64, 110
1, 209062, Control_c, 0, 64, 104
1, 209077, Control_c, 0, 64, 99
1, 209092, Control_c, 0, 64, 94
1, 209107, Control_c, 0, 64, 89
1, 209129, Control_c, 0, 64, 83
1, 209144, Control_c, 0, 64, 79
1, 209159, Control_c, 0, 64, 76
1, 209173, Control_c, 0, 64, 73
1, 209188, Control_c, 0, 64, 70
1, 209204, Control_c, 0, 64, 66
1, 209218, Control_c, 0, 64, 64
1, 209233, Control_c, 0, 64, 64
1, 209248, Control_c, 0, 64, 60
1, 209263, Control_c, 0, 64, 32
1, 209278, Control_c, 0, 64, 0
1, 209782, Control_c, 0, 64, 54
1, 209796, Control_c, 0, 64, 66
1, 209811, Control_c, 0, 64, 70
1, 209826, Control_c, 0, 64, 72
1, 209841, Control_c, 0, 64, 73
1, 209843, Note_on_c, 0, 87, 64
1, 209856, Control_c, 0, 64, 76
1, 209877, Control_c, 0, 64, 80
1, 209892, Control_c, 0, 64, 84
1, 209907, Control_c, 0, 64, 88
1, 209922, Control_c, 0, 64, 91
1, 209937, Control_c, 0, 64, 93
1, 209951, Control_c, 0, 64, 96
1, 209966, Control_c, 0, 64, 99
1, 209981, Control_c, 0, 64, 102
1, 209997, Control_c, 0, 64, 105
1, 210012, Control_c, 0, 64, 109
1, 210027, Control_c, 0, 64, 112
1, 210042, Control_c, 0, 64, 118
1, 210056, Control_c, 0, 64, 127
1, 210268, Note_on_c, 0, 80, 50
1, 210273, Note_on_c, 0, 78, 24
1, 210328, Note_off_c, 0, 87, 31
1, 210390, Note_off_c, 0, 78, 43
1, 210485, Note_on_c, 0, 68, 39
1, 210492, Note_on_c, 0, 69, 28
1, 210536, Note_off_c, 0, 68, 58
1, 210592, Note_off_c, 0, 80, 42
1, 210604, Note_off_c, 0, 69, 0
1, 210605, Note_on_c, 0, 73, 62
1, 210647, Poly_aftertouch_c, 0, 69, 0
1, 210661, Note_off_c, 0, 73, 59
1, 210672, Note_on_c, 0, 88, 77
1, 210717, Note_off_c, 0, 88, 62
1, 210760, Control_c, 0, 64, 126
1, 210764, Note_on_c, 0, 66, 61
1, 210765, Note_on_c, 0, 59, 52
1, 210774, Control_c, 0, 64, 95
1, 210789, Control_c, 0, 64, 76
1, 210805, Control_c, 0, 64, 58
1, 210820, Control_c, 0, 64, 44
1, 210835, Control_c, 0, 64, 60
1, 210849, Control_c, 0, 64, 63
1, 210864, Control_c, 0, 64, 65
1, 210879, Note_on_c, 0, 65, 64
1, 210879, Control_c, 0, 64, 68
1, 210885, Note_off_c, 0, 66, 59
1, 210893, Note_on_c, 0, 71, 67
1, 210894, Control_c, 0, 64, 72
1, 210897, Note_off_c, 0, 59, 51
1, 210909, Control_c, 0, 64, 76
1, 210923, Control_c, 0, 64, 80
1, 210938, Control_c, 0, 64, 83
1, 210953, Control_c, 0, 64, 86
1, 210962, Note_off_c, 0, 65, 62
1, 210968, Note_on_c, 0, 87, 85
1, 210968, Control_c, 0, 64, 89
1, 210980, Note_on_c, 0, 77, 60
1, 210983, Control_c, 0, 64, 92
1, 210991, Note_off_c, 0, 71, 60
1, 210998, Control_c, 0, 64, 95
1, 211013, Control_c, 0, 64, 98
1, 211028, Control_c, 0, 64, 100
1, 211042, Control_c, 0, 64, 102
1, 211057, Control_c, 0, 64, 102
1, 211077, Note_off_c, 0, 77, 57
1, 211084, Note_on_c, 0, 82, 70
1, 211089, Note_off_c, 0, 87, 63
1, 211114, Note_off_c, 0, 82, 62
1, 211176, Control_c, 0, 64, 101
1, 211190, Control_c, 0, 64, 99
1, 211205, Control_c, 0, 64, 95
1, 211207, Note_on_c, 0, 63, 50
1, 211215, Note_on_c, 0, 56, 43
1, 211219, Control_c, 0, 64, 88
1, 211234, Control_c, 0, 64, 80
1, 211248, Control_c, 0, 64, 70
1, 211263, Control_c, 0, 64, 54
1, 211278, Control_c, 0, 64, 0
1, 211404, Control_c, 0, 64, 28
1, 211408, Note_on_c, 0, 85, 59
1, 211419, Control_c, 0, 64, 35
1, 211426, Note_on_c, 0, 72, 33
1, 211427, Note_on_c, 0, 69, 27
1, 211434, Control_c, 0, 64, 41
1, 211448, Control_c, 0, 64, 48
1, 211463, Control_c, 0, 64, 55
1, 211478, Control_c, 0, 64, 60
1, 211493, Control_c, 0, 64, 63
1, 211508, Control_c, 0, 64, 64
1, 211522, Control_c, 0, 64, 66
1, 211537, Control_c, 0, 64, 68
1, 211552, Control_c, 0, 64, 70
1, 211567, Control_c, 0, 64, 72
1, 211582, Control_c, 0, 64, 74
1, 211598, Control_c, 0, 64, 76
1, 211613, Control_c, 0, 64, 78
1, 211627, Control_c, 0, 64, 80
1, 211642, Control_c, 0, 64, 82
1, 211657, Control_c, 0, 64, 85
1, 211671, Control_c, 0, 64, 86
1, 211686, Control_c, 0, 64, 88
1, 211701, Control_c, 0, 64, 89
1, 211716, Control_c, 0, 64, 90
1, 211731, Control_c, 0, 64, 91
1, 211746, Control_c, 0, 64, 91
1, 211761, Control_c, 0, 64, 92
1, 211770, Note_off_c, 0, 85, 35
1, 211791, Control_c, 0, 64, 92
1, 211797, Note_on_c, 0, 78, 45
1, 211898, Note_off_c, 0, 72, 32
1, 211920, Note_off_c, 0, 69, 25
1, 211971, Note_off_c, 0, 63, 20
1, 212097, Note_off_c, 0, 78, 31
1, 212151, Note_off_c, 0, 56, 28
1, 212198, Control_c, 0, 64, 92
1, 212213, Control_c, 0, 64, 91
1, 212228, Control_c, 0, 64, 90
1, 212243, Control_c, 0, 64, 90
1, 212258, Control_c, 0, 64, 89
1, 212272, Control_c, 0, 64, 87
1, 212287, Control_c, 0, 64, 85
1, 212302, Control_c, 0, 64, 83
1, 212317, Control_c, 0, 64, 80
1, 212332, Control_c, 0, 64, 75
1, 212346, Control_c, 0, 64, 70
1, 212361, Control_c, 0, 64, 63
1, 212376, Control_c, 0, 64, 59
1, 212392, Control_c, 0, 64, 49
1, 212407, Control_c, 0, 64, 0
1, 212555, Note_on_c, 0, 79, 56
1, 212585, Note_off_c, 0, 79, 64
1, 212586, Note_on_c, 0, 81, 75
1, 212870, Note_on_c, 0, 64, 58
1, 212873, Note_on_c, 0, 63, 62
1, 212901, Note_off_c, 0, 64, 66
1, 212906, Note_off_c, 0, 63, 62
1, 213107, Note_on_c, 0, 61, 64
1, 213109, Note_on_c, 0, 63, 62
1, 213140, Note_off_c, 0, 61, 64
1, 213140, Note_off_c, 0, 63, 66
1, 213336, Note_on_c, 0, 61, 75
1, 213337, Note_on_c, 0, 70, 61
1, 213339, Note_on_c, 0, 48, 69
1, 213362, Note_off_c, 0, 48, 64
1, 213362, Note_off_c, 0, 61, 66
1, 213766, Note_on_c, 0, 61, 71
1, 213776, Note_on_c, 0, 51, 50
1, 213792, Note_off_c, 0, 61, 66
1, 213804, Note_off_c, 0, 51, 59
1, 214009, Note_on_c, 0, 61, 73
1, 214011, Note_on_c, 0, 55, 70
1, 214033, Note_off_c, 0, 61, 66
1, 214038, Note_off_c, 0, 55, 64
1, 214053, Control_c, 0, 64, 52
1, 214067, Control_c, 0, 64, 67
1, 214082, Control_c, 0, 64, 68
1, 214097, Control_c, 0, 64, 69
1, 214112, Control_c, 0, 64, 70
1, 214141, Control_c, 0, 64, 68
1, 214156, Control_c, 0, 64, 56
1, 214171, Control_c, 0, 64, 0
1, 214198, Note_on_c, 0, 55, 62
1, 214202, Note_on_c, 0, 61, 51
1, 214215, Control_c, 0, 64, 57
1, 214226, Note_off_c, 0, 61, 58
1, 214230, Control_c, 0, 64, 65
1, 214235, Note_off_c, 0, 55, 63
1, 214245, Control_c, 0, 64, 68
1, 214259, Control_c, 0, 64, 71
1, 214274, Control_c, 0, 64, 72
1, 214295, Note_on_c, 0, 61, 67
1, 214297, Note_on_c, 0, 52, 70
1, 214319, Note_off_c, 0, 61, 66
1, 214319, Control_c, 0, 64, 72
1, 214323, Note_off_c, 0, 52, 65
1, 214324, Note_off_c, 0, 81, 57
1, 214333, Control_c, 0, 64, 74
1, 214348, Control_c, 0, 64, 75
1, 214371, Control_c, 0, 64, 76
1, 214377, Note_on_c, 0, 58, 83
1, 214388, Note_on_c, 0, 64, 67
1, 214400, Note_off_c, 0, 58, 68
1, 214406, Note_off_c, 0, 64, 66
1, 214458, Note_on_c, 0, 58, 86
1, 214460, Note_on_c, 0, 64, 84
1, 214460, Control_c, 0, 64, 75
1, 214474, Control_c, 0, 64, 72
1, 214482, Note_off_c, 0, 64, 70
1, 214489, Control_c, 0, 64, 64
1, 214497, Note_off_c, 0, 58, 46
1, 214504, Control_c, 0, 64, 0
1, 214519, Note_on_c, 0, 78, 87
1, 214524, Note_on_c, 0, 58, 73
1, 214526, Note_on_c, 0, 64, 84
1, 214558, Note_off_c, 0, 64, 66
1, 214574, Note_off_c, 0, 58, 65
1, 214726, Note_on_c, 0, 75, 82
1, 214735, Note_off_c, 0, 78, 63
1, 214826, Note_on_c, 0, 49, 81
1, 214843, Note_on_c, 0, 42, 51
1, 214852, Note_off_c, 0, 49, 68
1, 214873, Note_off_c, 0, 42, 55
1, 214998, Note_on_c, 0, 55, 73
1, 215010, Note_on_c, 0, 52, 61
1, 215026, Note_off_c, 0, 55, 66
1, 215034, Note_off_c, 0, 52, 61
1, 215232, Note_on_c, 0, 55, 53
1, 215242, Note_on_c, 0, 52, 50
1, 215263, Note_off_c, 0, 55, 61
1, 215271, Note_off_c, 0, 52, 55
1, 215489, Note_on_c, 0, 52, 52
1, 215504, Note_on_c, 0, 43, 46
1, 215516, Note_on_c, 0, 39, 35
1, 215535, Note_off_c, 0, 52, 60
1, 215541, Note_off_c, 0, 43, 63
1, 215553, Note_off_c, 0, 39, 49
1, 215815, Note_on_c, 0, 43, 46
1, 215817, Control_c, 0, 67, 8
1, 215821, Note_on_c, 0, 52, 41
1, 215831, Control_c, 0, 67, 11
1, 215846, Control_c, 0, 67, 14
1, 215851, Note_off_c, 0, 43, 64
1, 215865, Note_off_c, 0, 52, 62
1, 215869, Control_c, 0, 64, 48
1, 215869, Control_c, 0, 67, 17
1, 215874, Poly_aftertouch_c, 0, 39, 127
1, 215883, Control_c, 0, 64, 61
1, 215883, Control_c, 0, 67, 19
1, 215898, Control_c, 0, 64, 65
1, 215898, Control_c, 0, 67, 21
1, 215902, Poly_aftertouch_c, 0, 39, 0
1, 215910, Note_off_c, 0, 70, 56
1, 215913, Control_c, 0, 64, 66
1, 215913, Control_c, 0, 67, 22
1, 215928, Control_c, 0, 64, 68
1, 215928, Control_c, 0, 67, 23
1, 215943, Control_c, 0, 64, 69
1, 215943, Control_c, 0, 67, 23
1, 215958, Control_c, 0, 64, 71
1, 215973, Control_c, 0, 64, 72
1, 215988, Control_c, 0, 64, 74
1, 216002, Control_c, 0, 64, 75
1, 216017, Control_c, 0, 64, 76
1, 216032, Control_c, 0, 64, 77
1, 216046, Control_c, 0, 64, 78
1, 216061, Control_c, 0, 64, 80
1, 216076, Control_c, 0, 64, 81
1, 216076, Control_c, 0, 67, 23
1, 216091, Control_c, 0, 64, 81
1, 216135, Control_c, 0, 64, 82
1, 216135, Control_c, 0, 67, 23
1, 216164, Control_c, 0, 64, 82
1, 216209, Control_c, 0, 64, 82
1, 216253, Control_c, 0, 64, 81
1, 216268, Control_c, 0, 64, 81
1, 216268, Control_c, 0, 67, 24
1, 216283, Control_c, 0, 64, 80
1, 216298, Control_c, 0, 64, 79
1, 216313, Control_c, 0, 64, 78
1, 216324, Note_on_c, 0, 57, 16
1, 216325, Note_off_c, 0, 75, 25
1, 216328, Control_c, 0, 64, 77
1, 216328, Control_c, 0, 67, 24
1, 216343, Control_c, 0, 64, 76
1, 216357, Control_c, 0, 64, 75
1, 216357, Control_c, 0, 67, 25
1, 216372, Control_c, 0, 64, 73
1, 216372, Control_c, 0, 67, 25
1, 216388, Control_c, 0, 64, 69
1, 216388, Control_c, 0, 67, 28
1, 216403, Control_c, 0, 64, 64
1, 216403, Control_c, 0, 67, 32
1, 216417, Control_c, 0, 64, 51
1, 216417, Control_c, 0, 67, 36
1, 216432, Control_c, 0, 64, 39
1, 216432, Control_c, 0, 67, 39
1, 216447, Control_c, 0, 64, 43
1, 216447, Control_c, 0, 67, 42
1, 216461, Note_on_c, 0, 61, 38
1, 216462, Control_c, 0, 64, 49
1, 216462, Control_c, 0, 67, 44
1, 216477, Control_c, 0, 64, 52
1, 216477, Control_c, 0, 67, 46
1, 216492, Control_c, 0, 64, 55
1, 216492, Control_c, 0, 67, 47
1, 216507, Control_c, 0, 64, 57
1, 216507, Control_c, 0, 67, 49
1, 216518, Note_on_c, 0, 67, 43
1, 216521, Control_c, 0, 64, 60
1, 216521, Control_c, 0, 67, 50
1, 216536, Control_c, 0, 64, 63
1, 216536, Control_c, 0, 67, 51
1, 216551, Control_c, 0, 64, 64
1, 216551, Control_c, 0, 67, 51
1, 216566, Control_c, 0, 64, 66
1, 216580, Control_c, 0, 64, 68
1, 216588, Note_on_c, 0, 75, 47
1, 216595, Control_c, 0, 64, 70
1, 216617, Control_c, 0, 64, 72
1, 216617, Control_c, 0, 67, 51
1, 216632, Control_c, 0, 64, 74
1, 216632, Control_c, 0, 67, 50
1, 216647, Control_c, 0, 64, 76
1, 216647, Control_c, 0, 67, 49
1, 216649, Note_on_c, 0, 78, 53
1, 216662, Control_c, 0, 64, 79
1, 216662, Control_c, 0, 67, 49
1, 216676, Control_c, 0, 64, 82
1, 216691, Control_c, 0, 64, 84
1, 216706, Control_c, 0, 64, 87
1, 216720, Note_off_c, 0, 67, 37
1, 216721, Control_c, 0, 64, 88
1, 216727, Note_off_c, 0, 75, 50
1, 216736, Control_c, 0, 64, 90
1, 216737, Note_off_c, 0, 61, 41
1, 216751, Control_c, 0, 64, 92
1, 216751, Control_c, 0, 67, 49
1, 216762, Note_off_c, 0, 78, 52
1, 216766, Control_c, 0, 64, 92
1, 216766, Control_c, 0, 67, 50
1, 216778, Note_off_c, 0, 57, 40
1, 216810, Control_c, 0, 67, 50
1, 216884, Control_c, 0, 67, 51
1, 216899, Control_c, 0, 67, 51
1, 216914, Control_c, 0, 64, 92
1, 216958, Control_c, 0, 64, 91
1, 216973, Control_c, 0, 67, 52
1, 216987, Control_c, 0, 64, 91
1, 217002, Control_c, 0, 67, 52
1, 217017, Control_c, 0, 64, 90
1, 217032, Control_c, 0, 64, 90
1, 217047, Control_c, 0, 64, 89
1, 217047, Control_c, 0, 67, 53
1, 217061, Control_c, 0, 64, 89
1, 217061, Control_c, 0, 67, 53
1, 217076, Control_c, 0, 64, 88
1, 217076, Control_c, 0, 67, 55
1, 217091, Control_c, 0, 64, 87
1, 217091, Control_c, 0, 67, 56
1, 217106, Control_c, 0, 64, 86
1, 217106, Control_c, 0, 67, 58
1, 217121, Control_c, 0, 64, 85
1, 217121, Control_c, 0, 67, 59
1, 217135, Control_c, 0, 64, 84
1, 217135, Control_c, 0, 67, 60
1, 217150, Control_c, 0, 64, 83
1, 217150, Control_c, 0, 67, 61
1, 217165, Control_c, 0, 64, 81
1, 217165, Control_c, 0, 67, 62
1, 217181, Control_c, 0, 64, 80
1, 217181, Control_c, 0, 67, 62
1, 217196, Control_c, 0, 64, 78
1, 217196, Control_c, 0, 67, 63
1, 217210, Control_c, 0, 64, 77
1, 217210, Control_c, 0, 67, 64
1, 217225, Control_c, 0, 64, 76
1, 217225, Control_c, 0, 67, 65
1, 217240, Control_c, 0, 64, 75
1, 217240, Control_c, 0, 67, 66
1, 217255, Control_c, 0, 64, 75
1, 217255, Control_c, 0, 67, 67
1, 217270, Control_c, 0, 64, 74
1, 217270, Control_c, 0, 67, 68
1, 217285, Control_c, 0, 64, 73
1, 217285, Control_c, 0, 67, 69
1, 217299, Control_c, 0, 64, 72
1, 217299, Control_c, 0, 67, 70
1, 217314, Control_c, 0, 67, 72
1, 217329, Control_c, 0, 64, 72
1, 217329, Control_c, 0, 67, 73
1, 217344, Control_c, 0, 67, 74
1, 217366, Control_c, 0, 64, 71
1, 217366, Control_c, 0, 67, 75
1, 217381, Control_c, 0, 64, 71
1, 217381, Control_c, 0, 67, 76
1, 217396, Control_c, 0, 64, 70
1, 217396, Control_c, 0, 67, 77
1, 217410, Control_c, 0, 64, 70
1, 217410, Control_c, 0, 67, 79
1, 217425, Control_c, 0, 67, 81
1, 217440, Control_c, 0, 64, 69
1, 217440, Control_c, 0, 67, 83
1, 217455, Control_c, 0, 64, 69
1, 217455, Control_c, 0, 67, 84
1, 217470, Control_c, 0, 64, 68
1, 217470, Control_c, 0, 67, 85
1, 217484, Control_c, 0, 64, 68
1, 217484, Control_c, 0, 67, 87
1, 217499, Control_c, 0, 67, 89
1, 217514, Control_c, 0, 64, 67
1, 217514, Control_c, 0, 67, 92
1, 217529, Control_c, 0, 64, 66
1, 217529, Control_c, 0, 67, 94
1, 217544, Control_c, 0, 64, 66
1, 217544, Control_c, 0, 67, 96
1, 217559, Control_c, 0, 67, 97
1, 217574, Control_c, 0, 64, 65
1, 217574, Control_c, 0, 67, 99
1, 217589, Control_c, 0, 64, 65
1, 217589, Control_c, 0, 67, 100
1, 217603, Control_c, 0, 64, 64
1, 217603, Control_c, 0, 67, 102
1, 217618, Control_c, 0, 64, 64
1, 217618, Control_c, 0, 67, 103
1, 217633, Control_c, 0, 64, 63
1, 217633, Control_c, 0, 67, 104
1, 217648, Control_c, 0, 64, 63
1, 217648, Control_c, 0, 67, 105
1, 217663, Control_c, 0, 67, 107
1, 217678, Control_c, 0, 64, 62
1, 217678, Control_c, 0, 67, 108
1, 217692, Control_c, 0, 64, 61
1, 217692, Control_c, 0, 67, 109
1, 217707, Control_c, 0, 64, 60
1, 217707, Control_c, 0, 67, 110
1, 217722, Control_c, 0, 64, 59
1, 217722, Control_c, 0, 67, 111
1, 217737, Control_c, 0, 64, 59
1, 217737, Control_c, 0, 67, 113
1, 217752, Control_c, 0, 64, 58
1, 217752, Control_c, 0, 67, 114
1, 217766, Control_c, 0, 64, 57
1, 217766, Control_c, 0, 67, 115
1, 217781, Control_c, 0, 64, 56
1, 217781, Control_c, 0, 67, 116
1, 217796, Control_c, 0, 64, 56
1, 217796, Control_c, 0, 67, 117
1, 217810, Control_c, 0, 67, 118
1, 217825, Control_c, 0, 64, 55
1, 217825, Control_c, 0, 67, 119
1, 217840, Control_c, 0, 64, 54
1, 217840, Control_c, 0, 67, 119
1, 217855, Control_c, 0, 67, 120
1, 217870, Control_c, 0, 64, 54
1, 217884, Control_c, 0, 67, 121
1, 217899, Control_c, 0, 64, 53
1, 217899, Control_c, 0, 67, 121
1, 217914, Control_c, 0, 64, 52
1, 217914, Control_c, 0, 67, 122
1, 217929, Control_c, 0, 64, 51
1, 217929, Control_c, 0, 67, 122
1, 217943, Control_c, 0, 64, 51
1, 217959, Control_c, 0, 64, 50
1, 217974, Control_c, 0, 64, 50
1, 217974, Control_c, 0, 67, 123
1, 218005, Control_c, 0, 64, 49
1, 218034, Control_c, 0, 64, 48
1, 218049, Control_c, 0, 64, 47
1, 218064, Control_c, 0, 64, 47
1, 218116, Control_c, 0, 67, 123
1, 218264, Control_c, 0, 64, 47
1, 218279, Control_c, 0, 64, 48
1, 218294, Control_c, 0, 64, 49
1, 218308, Control_c, 0, 64, 50
1, 218323, Control_c, 0, 64, 51
1, 218338, Control_c, 0, 64, 53
1, 218353, Control_c, 0, 64, 54
1, 218367, Control_c, 0, 64, 56
1, 218382, Control_c, 0, 64, 57
1, 218397, Control_c, 0, 64, 57
1, 218412, Control_c, 0, 64, 52
1, 218412, Control_c, 0, 67, 123
1, 218427, Control_c, 0, 64, 36
1, 218441, Control_c, 0, 64, 0
1, 218456, Control_c, 0, 67, 122
1, 218466, Note_on_c, 0, 47, 37
1, 218471, Control_c, 0, 64, 33
1, 218471, Control_c, 0, 67, 121
1, 218486, Control_c, 0, 64, 50
1, 218486, Control_c, 0, 67, 121
1, 218501, Control_c, 0, 64, 60
1, 218501, Control_c, 0, 67, 119
1, 218516, Control_c, 0, 64, 64
1, 218516, Control_c, 0, 67, 118
1, 218531, Control_c, 0, 64, 67
1, 218531, Control_c, 0, 67, 117
1, 218545, Control_c, 0, 64, 69
1, 218545, Control_c, 0, 67, 115
1, 218560, Control_c, 0, 64, 71
1, 218560, Control_c, 0, 67, 114
1, 218575, Control_c, 0, 64, 73
1, 218590, Control_c, 0, 64, 75
1, 218590, Control_c, 0, 67, 114
1, 218605, Control_c, 0, 64, 78
1, 218605, Control_c, 0, 67, 113
1, 218620, Control_c, 0, 64, 81
1, 218620, Control_c, 0, 67, 112
1, 218634, Control_c, 0, 64, 83
1, 218649, Control_c, 0, 64, 84
1, 218656, Note_off_c, 0, 47, 40
1, 218663, Note_on_c, 0, 48, 45
1, 218664, Control_c, 0, 64, 86
1, 218679, Control_c, 0, 64, 89
1, 218694, Control_c, 0, 64, 93
1, 218708, Control_c, 0, 64, 97
1, 218708, Control_c, 0, 67, 112
1, 218723, Control_c, 0, 64, 99
1, 218738, Control_c, 0, 64, 100
1, 218752, Control_c, 0, 64, 101
1, 218752, Control_c, 0, 67, 111
1, 218759, Note_off_c, 0, 48, 59
1, 218767, Control_c, 0, 64, 103
1, 218784, Control_c, 0, 64, 106
1, 218789, Note_on_c, 0, 52, 53
1, 218799, Control_c, 0, 64, 110
1, 218813, Control_c, 0, 64, 112
1, 218813, Control_c, 0, 67, 111
1, 218821, Note_off_c, 0, 52, 63
1, 218828, Control_c, 0, 64, 112
1, 218843, Control_c, 0, 64, 113
1, 218843, Control_c, 0, 67, 110
1, 218864, Control_c, 0, 64, 114
1, 218872, Note_on_c, 0, 53, 42
1, 218879, Control_c, 0, 64, 114
1, 218894, Control_c, 0, 64, 116
1, 218907, Note_off_c, 0, 53, 54
1, 218909, Control_c, 0, 67, 110
1, 218929, Note_on_c, 0, 54, 58
1, 218954, Control_c, 0, 67, 109
1, 218957, Note_off_c, 0, 54, 66
1, 218969, Control_c, 0, 67, 108
1, 218983, Control_c, 0, 67, 105
1, 218998, Control_c, 0, 67, 103
1, 219013, Control_c, 0, 67, 102
1, 219019, Note_on_c, 0, 60, 49
1, 219028, Control_c, 0, 67, 102
1, 219043, Control_c, 0, 67, 101
1, 219057, Control_c, 0, 67, 101
1, 219072, Control_c, 0, 67, 100
1, 219085, Note_on_c, 0, 64, 46
1, 219087, Control_c, 0, 67, 100
1, 219095, Note_off_c, 0, 60, 48
1, 219102, Control_c, 0, 67, 99
1, 219117, Control_c, 0, 67, 97
1, 219126, Note_on_c, 0, 66, 52
1, 219131, Control_c, 0, 67, 95
1, 219146, Control_c, 0, 67, 93
1, 219161, Control_c, 0, 67, 92
1, 219162, Note_off_c, 0, 64, 61
1, 219176, Control_c, 0, 67, 90
1, 219190, Control_c, 0, 67, 89
1, 219197, Note_on_c, 0, 69, 57
1, 219197, Note_off_c, 0, 66, 45
1, 219205, Control_c, 0, 67, 86
1, 219220, Control_c, 0, 67, 84
1, 219235, Control_c, 0, 67, 83
1, 219250, Control_c, 0, 67, 81
1, 219258, Note_on_c, 0, 71, 77
1, 219264, Control_c, 0, 67, 79
1, 219279, Note_off_c, 0, 71, 67
1, 219279, Control_c, 0, 67, 76
1, 219288, Note_off_c, 0, 69, 54
1, 219294, Control_c, 0, 67, 74
1, 219309, Control_c, 0, 67, 70
1, 219324, Control_c, 0, 67, 66
1, 219325, Note_on_c, 0, 71, 84
1, 219338, Control_c, 0, 67, 62
1, 219353, Control_c, 0, 67, 58
1, 219356, Note_off_c, 0, 71, 65
1, 219368, Control_c, 0, 67, 54
1, 219383, Control_c, 0, 67, 49
1, 219386, Note_on_c, 0, 69, 67
1, 219398, Control_c, 0, 67, 42
1, 219413, Control_c, 0, 67, 36
1, 219418, Note_on_c, 0, 68, 59
1, 219428, Control_c, 0, 67, 32
1, 219443, Control_c, 0, 64, 117
1, 219443, Control_c, 0, 67, 28
1, 219456, Control_c, 0, 67, 26
1, 219465, Note_off_c, 0, 69, 56
1, 219467, Note_on_c, 0, 66, 51
1, 219471, Control_c, 0, 64, 117
1, 219471, Control_c, 0, 67, 23
1, 219478, Note_on_c, 0, 64, 63
1, 219486, Control_c, 0, 64, 118
1, 219486, Control_c, 0, 67, 19
1, 219493, Note_off_c, 0, 68, 54
1, 219501, Control_c, 0, 64, 119
1, 219501, Control_c, 0, 67, 15
1, 219516, Control_c, 0, 67, 11
1, 219526, Note_on_c, 0, 60, 58
1, 219530, Control_c, 0, 64, 119
1, 219530, Control_c, 0, 67, 8
1, 219531, Note_off_c, 0, 66, 49
1, 219545, Control_c, 0, 67, 0
1, 219558, Note_off_c, 0, 64, 55
1, 219579, Note_on_c, 0, 54, 50
1, 219591, Control_c, 0, 64, 119
1, 219614, Note_off_c, 0, 54, 62
1, 219641, Note_on_c, 0, 53, 62
1, 219680, Note_off_c, 0, 53, 64
1, 219702, Control_c, 0, 64, 117
1, 219712, Note_on_c, 0, 52, 60
1, 219717, Control_c, 0, 64, 102
1, 219732, Control_c, 0, 64, 82
1, 219736, Note_on_c, 0, 47, 64
1, 219747, Control_c, 0, 64, 60
1, 219761, Control_c, 0, 64, 0
1, 219763, Note_off_c, 0, 52, 63
1, 219775, Note_on_c, 0, 48, 69
1, 219791, Control_c, 0, 64, 39
1, 219805, Control_c, 0, 64, 56
1, 219815, Note_off_c, 0, 60, 36
1, 219820, Control_c, 0, 64, 64
1, 219821, Note_off_c, 0, 47, 62
1, 219830, Note_on_c, 0, 52, 66
1, 219835, Control_c, 0, 64, 69
1, 219850, Note_off_c, 0, 48, 63
1, 219850, Control_c, 0, 64, 73
1, 219865, Control_c, 0, 64, 78
1, 219879, Control_c, 0, 64, 82
1, 219885, Note_off_c, 0, 52, 62
1, 219894, Control_c, 0, 64, 85
1, 219908, Note_on_c, 0, 53, 63
1, 219909, Control_c, 0, 64, 88
1, 219924, Control_c, 0, 64, 90
1, 219939, Control_c, 0, 64, 93
1, 219953, Control_c, 0, 64, 97
1, 219955, Note_off_c, 0, 53, 66
1, 219960, Note_on_c, 0, 54, 66
1, 219968, Control_c, 0, 64, 99
1, 219983, Note_off_c, 0, 54, 66
1, 219983, Control_c, 0, 64, 101
1, 219998, Control_c, 0, 64, 102
1, 220004, Note_on_c, 0, 60, 58
1, 220012, Control_c, 0, 64, 104
1, 220027, Control_c, 0, 64, 106
1, 220042, Control_c, 0, 64, 106
1, 220051, Note_on_c, 0, 64, 50
1, 220057, Control_c, 0, 64, 107
1, 220062, Note_off_c, 0, 60, 55
1, 220079, Note_on_c, 0, 66, 54
1, 220101, Control_c, 0, 64, 107
1, 220112, Note_on_c, 0, 69, 68
1, 220113, Note_off_c, 0, 64, 58
1, 220121, Note_off_c, 0, 66, 56
1, 220176, Control_c, 0, 64, 108
1, 220202, Note_on_c, 0, 71, 81
1, 220219, Note_off_c, 0, 69, 52
1, 220220, Control_c, 0, 64, 109
1, 220235, Control_c, 0, 64, 110
1, 220248, Note_on_c, 0, 72, 95
1, 220250, Control_c, 0, 64, 110
1, 220252, Note_off_c, 0, 71, 40
1, 220265, Control_c, 0, 64, 111
1, 220279, Control_c, 0, 64, 111
1, 220283, Note_off_c, 0, 72, 66
1, 220309, Control_c, 0, 64, 112
1, 220311, Note_on_c, 0, 71, 72
1, 220323, Control_c, 0, 64, 112
1, 220338, Control_c, 0, 64, 113
1, 220371, Note_on_c, 0, 68, 66
1, 220376, Control_c, 0, 64, 113
1, 220391, Control_c, 0, 64, 114
1, 220393, Note_on_c, 0, 66, 64
1, 220399, Note_on_c, 0, 64, 67
1, 220406, Control_c, 0, 64, 115
1, 220421, Control_c, 0, 64, 118
1, 220426, Note_off_c, 0, 71, 54
1, 220435, Control_c, 0, 64, 122
1, 220450, Control_c, 0, 64, 124
1, 220465, Control_c, 0, 64, 126
1, 220466, Note_on_c, 0, 60, 37
1, 220470, Note_on_c, 0, 55, 56
1, 220472, Note_on_c, 0, 59, 40
1, 220498, Note_off_c, 0, 55, 64
1, 220526, Note_on_c, 0, 53, 68
1, 220530, Note_off_c, 0, 59, 42
1, 220540, Note_off_c, 0, 64, 48
1, 220584, Control_c, 0, 64, 124
1, 220584, Note_off_c, 0, 66, 23
1, 220585, Note_off_c, 0, 53, 64
1, 220588, Note_on_c, 0, 50, 73
1, 220614, Note_on_c, 0, 47, 34
1, 220617, Note_off_c, 0, 68, 30
1, 220627, Note_off_c, 0, 50, 64
1, 220652, Note_off_c, 0, 47, 52
1, 220658, Control_c, 0, 64, 109
1, 220671, Note_off_c, 0, 60, 29
1, 220673, Control_c, 0, 64, 80
1, 220688, Control_c, 0, 64, 0
1, 220694, Note_on_c, 0, 42, 86
1, 220734, Note_on_c, 0, 47, 58
1, 220747, Control_c, 0, 64, 30
1, 220753, Note_on_c, 0, 48, 72
1, 220761, Control_c, 0, 64, 65
1, 220776, Control_c, 0, 64, 74
1, 220782, Note_off_c, 0, 47, 65
1, 220784, Note_off_c, 0, 42, 62
1, 220788, Note_off_c, 0, 48, 66
1, 220791, Control_c, 0, 64, 82
1, 220793, Note_on_c, 0, 52, 79
1, 220806, Poly_aftertouch_c, 0, 44, 0
1, 220806, Control_c, 0, 64, 88
1, 220821, Control_c, 0, 64, 91
1, 220825, Note_off_c, 0, 52, 66
1, 220835, Control_c, 0, 64, 93
1, 220850, Control_c, 0, 64, 94
1, 220865, Control_c, 0, 64, 95
1, 220880, Control_c, 0, 64, 96
1, 220891, Note_on_c, 0, 53, 72
1, 220895, Control_c, 0, 64, 97
1, 220898, Note_on_c, 0, 54, 69
1, 220909, Control_c, 0, 64, 100
1, 220915, Note_off_c, 0, 53, 69
1, 220922, Note_on_c, 0, 60, 69
1, 220924, Control_c, 0, 64, 101
1, 220929, Note_off_c, 0, 54, 66
1, 220939, Control_c, 0, 64, 102
1, 220950, Note_on_c, 0, 64, 73
1, 220954, Control_c, 0, 64, 103
1, 220969, Note_off_c, 0, 60, 63
1, 220969, Control_c, 0, 64, 105
1, 220976, Note_on_c, 0, 66, 70
1, 220981, Note_off_c, 0, 64, 67
1, 220984, Control_c, 0, 64, 107
1, 220986, Note_on_c, 0, 68, 72
1, 220990, Note_on_c, 0, 69, 70
1, 220999, Control_c, 0, 64, 108
1, 221000, Note_off_c, 0, 66, 69
1, 221008, Note_off_c, 0, 68, 67
1, 221012, Note_off_c, 0, 69, 69
1, 221014, Control_c, 0, 64, 109
1, 221043, Control_c, 0, 64, 109
1, 221058, Control_c, 0, 64, 110
1, 221068, Note_on_c, 0, 71, 88
1, 221073, Control_c, 0, 64, 112
1, 221081, Note_on_c, 0, 69, 62
1, 221088, Control_c, 0, 64, 112
1, 221099, Note_off_c, 0, 69, 66
1, 221110, Control_c, 0, 64, 113
1, 221120, Note_on_c, 0, 72, 92
1, 221127, Note_off_c, 0, 71, 66
1, 221140, Control_c, 0, 64, 114
1, 221154, Control_c, 0, 64, 114
1, 221165, Note_on_c, 0, 76, 92
1, 221169, Control_c, 0, 64, 115
1, 221185, Control_c, 0, 64, 117
1, 221191, Note_off_c, 0, 72, 64
1, 221195, Note_off_c, 0, 76, 67
1, 221200, Control_c, 0, 64, 119
1, 221201, Note_on_c, 0, 88, 96
1, 221215, Control_c, 0, 64, 120
1, 221223, Note_on_c, 0, 89, 95
1, 221230, Control_c, 0, 64, 124
1, 221237, Note_off_c, 0, 88, 66
1, 221245, Control_c, 0, 64, 127
1, 221251, Note_off_c, 0, 89, 65
1, 221386, Note_on_c, 0, 100, 82
1, 221435, Note_on_c, 0, 101, 95
1, 221461, Note_off_c, 0, 100, 64
1, 221469, Note_on_c, 0, 103, 104
1, 221487, Note_off_c, 0, 101, 64
1, 221511, Control_c, 0, 64, 108
1, 221514, Note_off_c, 0, 103, 70
1, 221526, Control_c, 0, 64, 72
1, 221532, Note_on_c, 0, 32, 95
1, 221541, Control_c, 0, 64, 0
1, 221615, Control_c, 0, 64, 62
1, 221630, Control_c, 0, 64, 73
1, 221645, Control_c, 0, 64, 83
1, 221659, Control_c, 0, 64, 97
1, 221672, Note_off_c, 0, 32, 64
1, 221674, Control_c, 0, 64, 114
1, 221689, Control_c, 0, 64, 127
1, 221901, Note_on_c, 0, 36, 104
1, 221902, Control_c, 0, 64, 72
1, 221917, Control_c, 0, 64, 0
1, 222111, Control_c, 0, 64, 47
1, 222126, Control_c, 0, 64, 63
1, 222140, Control_c, 0, 64, 69
1, 222155, Control_c, 0, 64, 73
1, 222170, Control_c, 0, 64, 77
1, 222185, Control_c, 0, 64, 80
1, 222199, Control_c, 0, 64, 83
1, 222214, Control_c, 0, 64, 86
1, 222229, Control_c, 0, 64, 89
1, 222244, Control_c, 0, 64, 94
1, 222259, Control_c, 0, 64, 97
1, 222273, Control_c, 0, 64, 100
1, 222288, Control_c, 0, 64, 102
1, 222303, Control_c, 0, 64, 106
1, 222318, Control_c, 0, 64, 110
1, 222333, Control_c, 0, 64, 120
1, 222347, Control_c, 0, 64, 127
1, 222708, Note_off_c, 0, 36, 53
1, 222764, Note_on_c, 0, 26, 77
1, 222769, Control_c, 0, 64, 101
1, 222785, Control_c, 0, 64, 62
1, 222793, Note_on_c, 0, 35, 96
1, 222800, Control_c, 0, 64, 0
1, 222885, Note_off_c, 0, 26, 39
1, 222889, Control_c, 0, 64, 47
1, 222904, Control_c, 0, 64, 66
1, 222918, Control_c, 0, 64, 73
1, 222933, Control_c, 0, 64, 79
1, 222948, Control_c, 0, 64, 86
1, 222963, Control_c, 0, 64, 93
1, 222978, Control_c, 0, 64, 98
1, 222993, Control_c, 0, 64, 105
1, 223008, Control_c, 0, 64, 113
1, 223022, Control_c, 0, 64, 126
1, 223037, Control_c, 0, 64, 127
1, 223087, Note_off_c, 0, 35, 59
1, 223104, Note_on_c, 0, 32, 85
1, 223108, Note_on_c, 0, 25, 95
1, 223111, Control_c, 0, 64, 85
1, 223126, Control_c, 0, 64, 0
1, 223318, Control_c, 0, 64, 51
1, 223333, Control_c, 0, 64, 63
1, 223355, Control_c, 0, 64, 66
1, 223370, Control_c, 0, 64, 68
1, 223385, Control_c, 0, 64, 71
1, 223400, Control_c, 0, 64, 74
1, 223415, Control_c, 0, 64, 78
1, 223429, Control_c, 0, 64, 82
1, 223444, Control_c, 0, 64, 85
1, 223459, Control_c, 0, 64, 88
1, 223474, Control_c, 0, 64, 91
1, 223489, Control_c, 0, 64, 93
1, 223503, Control_c, 0, 64, 96
1, 223518, Control_c, 0, 64, 98
1, 223533, Control_c, 0, 64, 102
1, 223548, Control_c, 0, 64, 106
1, 223562, Control_c, 0, 64, 111
1, 223578, Control_c, 0, 64, 116
1, 223593, Control_c, 0, 64, 122
1, 223608, Control_c, 0, 64, 127
1, 224038, Control_c, 0, 64, 118
1, 224052, Control_c, 0, 64, 72
1, 224066, Note_on_c, 0, 34, 98
1, 224067, Control_c, 0, 64, 0
1, 224103, Note_off_c, 0, 32, 62
1, 224149, Control_c, 0, 64, 44
1, 224154, Note_off_c, 0, 25, 37
1, 224164, Control_c, 0, 64, 65
1, 224178, Control_c, 0, 64, 71
1, 224193, Control_c, 0, 64, 75
1, 224208, Control_c, 0, 64, 80
1, 224223, Control_c, 0, 64, 86
1, 224238, Control_c, 0, 64, 91
1, 224252, Control_c, 0, 64, 95
1, 224267, Control_c, 0, 64, 98
1, 224282, Control_c, 0, 64, 102
1, 224296, Control_c, 0, 64, 107
1, 224311, Control_c, 0, 64, 114
1, 224326, Control_c, 0, 64, 126
1, 224341, Control_c, 0, 64, 127
1, 224468, Note_off_c, 0, 34, 58
1, 224754, Note_on_c, 0, 29, 98
1, 224773, Control_c, 0, 64, 90
1, 224787, Control_c, 0, 64, 55
1, 224802, Control_c, 0, 64, 0
1, 225047, Control_c, 0, 64, 32
1, 225062, Control_c, 0, 64, 49
1, 225076, Control_c, 0, 64, 57
1, 225091, Control_c, 0, 64, 62
1, 225106, Control_c, 0, 64, 65
1, 225120, Control_c, 0, 64, 67
1, 225135, Control_c, 0, 64, 69
1, 225150, Control_c, 0, 64, 70
1, 225165, Control_c, 0, 64, 72
1, 225181, Control_c, 0, 64, 74
1, 225196, Control_c, 0, 64, 77
1, 225211, Control_c, 0, 64, 79
1, 225225, Control_c, 0, 64, 81
1, 225240, Control_c, 0, 64, 83
1, 225255, Control_c, 0, 64, 84
1, 225270, Control_c, 0, 64, 85
1, 225285, Control_c, 0, 64, 87
1, 225299, Control_c, 0, 64, 89
1, 225314, Control_c, 0, 64, 91
1, 225329, Control_c, 0, 64, 93
1, 225343, Control_c, 0, 64, 94
1, 225358, Control_c, 0, 64, 96
1, 225373, Control_c, 0, 64, 98
1, 225388, Control_c, 0, 64, 101
1, 225403, Control_c, 0, 64, 103
1, 225417, Control_c, 0, 64, 104
1, 225432, Control_c, 0, 64, 105
1, 225447, Control_c, 0, 64, 106
1, 225462, Control_c, 0, 64, 106
1, 225477, Control_c, 0, 64, 108
1, 225491, Control_c, 0, 64, 109
1, 225506, Control_c, 0, 64, 110
1, 225521, Control_c, 0, 64, 110
1, 225551, Control_c, 0, 64, 111
1, 225580, Control_c, 0, 64, 111
1, 225603, Control_c, 0, 64, 112
1, 225618, Control_c, 0, 64, 112
1, 225632, Control_c, 0, 64, 113
1, 225647, Control_c, 0, 64, 113
1, 225662, Control_c, 0, 64, 114
1, 225692, Control_c, 0, 64, 114
1, 225736, Control_c, 0, 64, 115
1, 225750, Control_c, 0, 64, 116
1, 225765, Control_c, 0, 64, 116
1, 225810, Control_c, 0, 64, 117
1, 225825, Control_c, 0, 64, 118
1, 225840, Control_c, 0, 64, 118
1, 225855, Control_c, 0, 64, 119
1, 225870, Control_c, 0, 64, 119
1, 225884, Control_c, 0, 64, 120
1, 225914, Control_c, 0, 64, 121
1, 226063, Note_on_c, 0, 95, 68
1, 226186, Note_off_c, 0, 95, 59
1, 226613, Note_on_c, 0, 95, 73
1, 226685, Note_off_c, 0, 95, 64
1, 226952, Note_on_c, 0, 95, 78
1, 227022, Note_off_c, 0, 95, 65
1, 227279, Note_on_c, 0, 95, 77
1, 227339, Note_off_c, 0, 95, 64
1, 227545, Note_on_c, 0, 95, 79
1, 227596, Note_off_c, 0, 95, 65
1, 227747, Note_on_c, 0, 95, 77
1, 227800, Note_off_c, 0, 95, 64
1, 227864, Control_c, 0, 64, 120
1, 227894, Control_c, 0, 64, 119
1, 227908, Control_c, 0, 64, 116
1, 227914, Note_on_c, 0, 95, 79
1, 227923, Control_c, 0, 64, 114
1, 227938, Control_c, 0, 64, 112
1, 227953, Control_c, 0, 64, 111
1, 227965, Note_off_c, 0, 95, 64
1, 227968, Control_c, 0, 64, 110
1, 227983, Control_c, 0, 64, 108
1, 227998, Control_c, 0, 64, 106
1, 228013, Control_c, 0, 64, 103
1, 228023, Note_on_c, 0, 28, 72
1, 228027, Control_c, 0, 64, 101
1, 228030, Note_off_c, 0, 29, 62
1, 228042, Control_c, 0, 64, 99
1, 228057, Control_c, 0, 64, 95
1, 228064, Note_on_c, 0, 26, 26
1, 228072, Control_c, 0, 64, 87
1, 228087, Control_c, 0, 64, 75
1, 228097, Note_on_c, 0, 95, 69
1, 228101, Control_c, 0, 64, 61
1, 228109, Note_off_c, 0, 26, 40
1, 228116, Control_c, 0, 64, 0
1, 228131, Control_c, 0, 64, 11
1, 228145, Control_c, 0, 64, 47
1, 228157, Note_off_c, 0, 95, 64
1, 228160, Control_c, 0, 64, 55
1, 228175, Control_c, 0, 64, 61
1, 228190, Control_c, 0, 64, 64
1, 228205, Control_c, 0, 64, 66
1, 228219, Control_c, 0, 64, 69
1, 228234, Control_c, 0, 64, 71
1, 228249, Control_c, 0, 64, 72
1, 228263, Control_c, 0, 64, 72
1, 228267, Note_on_c, 0, 95, 66
1, 228278, Control_c, 0, 64, 74
1, 228293, Control_c, 0, 64, 74
1, 228295, Note_off_c, 0, 95, 65
1, 228308, Control_c, 0, 64, 76
1, 228323, Control_c, 0, 64, 77
1, 228338, Control_c, 0, 64, 79
1, 228353, Control_c, 0, 64, 80
1, 228368, Control_c, 0, 64, 81
1, 228383, Control_c, 0, 64, 83
1, 228398, Control_c, 0, 64, 84
1, 228412, Note_on_c, 0, 95, 63
1, 228413, Control_c, 0, 64, 86
1, 228428, Control_c, 0, 64, 87
1, 228439, Note_off_c, 0, 95, 67
1, 228442, Control_c, 0, 64, 89
1, 228457, Control_c, 0, 64, 90
1, 228472, Control_c, 0, 64, 92
1, 228487, Control_c, 0, 64, 93
1, 228502, Control_c, 0, 64, 94
1, 228517, Control_c, 0, 64, 95
1, 228546, Control_c, 0, 64, 96
1, 228550, Note_on_c, 0, 95, 60
1, 228575, Note_off_c, 0, 95, 67
1, 228576, Control_c, 0, 64, 96
1, 228598, Control_c, 0, 64, 97
1, 228613, Control_c, 0, 64, 98
1, 228628, Control_c, 0, 64, 98
1, 228687, Control_c, 0, 64, 99
1, 228689, Note_on_c, 0, 95, 57
1, 228702, Control_c, 0, 64, 100
1, 228713, Note_off_c, 0, 95, 66
1, 228716, Control_c, 0, 64, 100
1, 228776, Control_c, 0, 64, 101
1, 228818, Note_on_c, 0, 95, 59
1, 228821, Control_c, 0, 64, 101
1, 228838, Note_off_c, 0, 95, 65
1, 228880, Control_c, 0, 64, 102
1, 228931, Note_on_c, 0, 95, 59
1, 228950, Note_off_c, 0, 95, 65
1, 229032, Note_on_c, 0, 95, 64
1, 229050, Note_off_c, 0, 95, 67
1, 229127, Note_on_c, 0, 95, 66
1, 229146, Note_off_c, 0, 95, 68
1, 229220, Note_on_c, 0, 95, 71
1, 229239, Note_off_c, 0, 95, 69
1, 229306, Note_on_c, 0, 95, 75
1, 229327, Note_off_c, 0, 95, 69
1, 229391, Control_c, 0, 64, 102
1, 229405, Note_on_c, 0, 95, 73
1, 229425, Note_off_c, 0, 95, 69
1, 229482, Note_on_c, 0, 95, 81
1, 229511, Note_off_c, 0, 95, 60
1, 229574, Note_on_c, 0, 95, 71
1, 229596, Note_off_c, 0, 95, 66
1, 229656, Note_on_c, 0, 95, 69
1, 229663, Note_on_c, 0, 99, 62
1, 229673, Note_off_c, 0, 95, 64
1, 229685, Note_off_c, 0, 99, 66
1, 229739, Note_on_c, 0, 95, 67
1, 229754, Note_on_c, 0, 99, 60
1, 229755, Note_off_c, 0, 95, 67
1, 229774, Note_off_c, 0, 99, 63
1, 229826, Note_on_c, 0, 95, 64
1, 229843, Note_off_c, 0, 95, 66
1, 229845, Note_on_c, 0, 99, 56
1, 229867, Note_off_c, 0, 99, 61
1, 229914, Note_on_c, 0, 95, 67
1, 229930, Note_off_c, 0, 95, 67
1, 229932, Note_on_c, 0, 99, 56
1, 229934, Note_off_c, 0, 28, 34
1, 229953, Note_off_c, 0, 99, 62
1, 229984, Control_c, 0, 67, 9
1, 229999, Control_c, 0, 67, 10
1, 230007, Note_on_c, 0, 95, 60
1, 230013, Control_c, 0, 67, 12
1, 230022, Note_on_c, 0, 99, 57
1, 230025, Note_off_c, 0, 95, 65
1, 230028, Control_c, 0, 67, 14
1, 230043, Control_c, 0, 67, 17
1, 230044, Note_off_c, 0, 99, 61
1, 230058, Control_c, 0, 67, 20
1, 230073, Control_c, 0, 67, 24
1, 230095, Control_c, 0, 67, 27
1, 230100, Note_on_c, 0, 95, 66
1, 230110, Control_c, 0, 67, 29
1, 230117, Note_off_c, 0, 95, 67
1, 230125, Note_on_c, 0, 99, 47
1, 230125, Control_c, 0, 67, 32
1, 230139, Control_c, 0, 67, 35
1, 230150, Note_off_c, 0, 99, 58
1, 230154, Control_c, 0, 67, 37
1, 230169, Control_c, 0, 67, 39
1, 230184, Control_c, 0, 67, 41
1, 230192, Note_on_c, 0, 95, 63
1, 230199, Control_c, 0, 67, 42
1, 230210, Note_off_c, 0, 95, 66
1, 230213, Control_c, 0, 67, 44
1, 230216, Note_on_c, 0, 99, 39
1, 230228, Control_c, 0, 67, 47
1, 230243, Control_c, 0, 67, 50
1, 230251, Note_off_c, 0, 99, 55
1, 230258, Control_c, 0, 67, 52
1, 230273, Control_c, 0, 67, 54
1, 230279, Note_on_c, 0, 95, 74
1, 230287, Control_c, 0, 67, 56
1, 230293, Note_off_c, 0, 95, 69
1, 230298, Note_on_c, 0, 99, 42
1, 230302, Control_c, 0, 67, 59
1, 230317, Control_c, 0, 67, 62
1, 230329, Note_off_c, 0, 99, 54
1, 230332, Control_c, 0, 67, 65
1, 230347, Control_c, 0, 67, 69
1, 230362, Control_c, 0, 67, 73
1, 230374, Note_on_c, 0, 95, 58
1, 230377, Control_c, 0, 67, 79
1, 230383, Note_on_c, 0, 99, 59
1, 230392, Control_c, 0, 67, 83
1, 230394, Note_off_c, 0, 95, 63
1, 230402, Note_off_c, 0, 99, 63
1, 230406, Note_on_c, 0, 31, 40
1, 230406, Control_c, 0, 67, 86
1, 230421, Control_c, 0, 67, 90
1, 230436, Control_c, 0, 64, 102
1, 230436, Control_c, 0, 67, 94
1, 230451, Control_c, 0, 67, 98
1, 230464, Note_on_c, 0, 95, 64
1, 230466, Control_c, 0, 67, 102
1, 230466, Note_on_c, 0, 99, 69
1, 230481, Note_off_c, 0, 95, 67
1, 230481, Control_c, 0, 64, 101
1, 230481, Control_c, 0, 67, 107
1, 230487, Note_off_c, 0, 99, 65
1, 230495, Control_c, 0, 64, 101
1, 230495, Control_c, 0, 67, 111
1, 230510, Control_c, 0, 64, 100
1, 230510, Control_c, 0, 67, 115
1, 230525, Control_c, 0, 64, 100
1, 230525, Control_c, 0, 67, 120
1, 230539, Control_c, 0, 64, 99
1, 230539, Control_c, 0, 67, 125
1, 230554, Note_on_c, 0, 99, 72
1, 230554, Control_c, 0, 67, 127
1, 230558, Note_on_c, 0, 95, 67
1, 230569, Control_c, 0, 64, 97
1, 230573, Note_off_c, 0, 31, 40
1, 230579, Note_off_c, 0, 95, 61
1, 230584, Control_c, 0, 64, 88
1, 230586, Note_off_c, 0, 99, 59
1, 230594, Note_on_c, 0, 22, 45
1, 230599, Control_c, 0, 64, 71
1, 230613, Control_c, 0, 64, 32
1, 230628, Control_c, 0, 64, 19
1, 230643, Control_c, 0, 64, 54
1, 230657, Note_on_c, 0, 95, 60
1, 230657, Control_c, 0, 64, 61
1, 230672, Control_c, 0, 64, 64
1, 230674, Note_off_c, 0, 95, 65
1, 230678, Note_on_c, 0, 99, 52
1, 230688, Control_c, 0, 64, 67
1, 230702, Note_off_c, 0, 99, 59
1, 230703, Control_c, 0, 64, 72
1, 230718, Control_c, 0, 64, 75
1, 230732, Control_c, 0, 64, 77
1, 230747, Control_c, 0, 64, 79
1, 230756, Note_on_c, 0, 95, 55
1, 230763, Control_c, 0, 64, 80
1, 230777, Note_off_c, 0, 95, 62
1, 230778, Note_on_c, 0, 99, 49
1, 230778, Control_c, 0, 64, 81
1, 230793, Control_c, 0, 64, 83
1, 230803, Note_off_c, 0, 99, 59
1, 230808, Control_c, 0, 64, 85
1, 230823, Control_c, 0, 64, 87
1, 230845, Control_c, 0, 64, 88
1, 230860, Control_c, 0, 64, 89
1, 230866, Note_on_c, 0, 95, 55
1, 230874, Control_c, 0, 64, 90
1, 230886, Note_off_c, 0, 95, 63
1, 230889, Control_c, 0, 64, 91
1, 230893, Note_on_c, 0, 99, 43
1, 230904, Control_c, 0, 64, 92
1, 230919, Control_c, 0, 64, 93
1, 230922, Note_off_c, 0, 99, 57
1, 230934, Control_c, 0, 64, 94
1, 230949, Control_c, 0, 64, 94
1, 230963, Control_c, 0, 64, 95
1, 230968, Note_on_c, 0, 95, 61
1, 230986, Note_off_c, 0, 95, 65
1, 230993, Control_c, 0, 64, 95
1, 231005, Note_on_c, 0, 99, 25
1, 231008, Control_c, 0, 64, 96
1, 231023, Control_c, 0, 64, 96
1, 231037, Control_c, 0, 64, 97
1, 231038, Note_off_c, 0, 22, 34
1, 231054, Note_off_c, 0, 99, 29
1, 231068, Note_on_c, 0, 95, 62
1, 231082, Control_c, 0, 64, 98
1, 231087, Note_off_c, 0, 95, 60
1, 231096, Control_c, 0, 64, 99
1, 231104, Note_on_c, 0, 99, 10
1, 231111, Control_c, 0, 64, 100
1, 231141, Control_c, 0, 64, 101
1, 231152, Note_off_c, 0, 99, 0
1, 231178, Note_on_c, 0, 99, 31
1, 231188, Note_on_c, 0, 95, 37
1, 231218, Note_off_c, 0, 95, 56
1, 231225, Note_off_c, 0, 99, 48
1, 231324, Note_on_c, 0, 95, 15
1, 231330, Note_on_c, 0, 99, 31
1, 231365, Note_off_c, 0, 99, 54
1, 231369, Note_off_c, 0, 95, 53
1, 231449, Note_on_c, 0, 92, 34
1, 231453, Note_on_c, 0, 99, 45
1, 231463, Note_on_c, 0, 96, 36
1, 231481, Control_c, 0, 64, 101
1, 231489, Note_off_c, 0, 96, 58
1, 231492, Note_off_c, 0, 92, 52
1, 231492, Note_off_c, 0, 99, 52
1, 231496, Control_c, 0, 64, 102
1, 231511, Control_c, 0, 64, 103
1, 231526, Control_c, 0, 64, 104
1, 231541, Control_c, 0, 64, 105
1, 231557, Control_c, 0, 64, 106
1, 231572, Control_c, 0, 64, 106
1, 231593, Control_c, 0, 64, 107
1, 231608, Note_on_c, 0, 96, 38
1, 231608, Control_c, 0, 64, 107
1, 231610, Note_on_c, 0, 99, 46
1, 231617, Note_on_c, 0, 92, 30
1, 231635, Note_off_c, 0, 96, 56
1, 231637, Note_off_c, 0, 99, 57
1, 231646, Note_off_c, 0, 92, 49
1, 231682, Control_c, 0, 64, 108
1, 231723, Note_on_c, 0, 99, 51
1, 231727, Note_on_c, 0, 96, 38
1, 231740, Note_on_c, 0, 92, 32
1, 231745, Note_off_c, 0, 99, 63
1, 231755, Note_off_c, 0, 96, 56
1, 231771, Note_off_c, 0, 92, 48
1, 231827, Note_on_c, 0, 99, 60
1, 231829, Note_on_c, 0, 96, 48
1, 231847, Note_off_c, 0, 99, 64
1, 231850, Note_off_c, 0, 96, 61
1, 231927, Note_on_c, 0, 99, 50
1, 231930, Note_on_c, 0, 96, 41
1, 231951, Note_off_c, 0, 99, 59
1, 231957, Note_off_c, 0, 96, 59
1, 232025, Note_on_c, 0, 99, 50
1, 232051, Note_off_c, 0, 99, 60
1, 232103, Note_on_c, 0, 96, 37
1, 232106, Note_on_c, 0, 92, 32
1, 232132, Note_off_c, 0, 96, 33
1, 232138, Note_off_c, 0, 92, 49
1, 232177, Note_on_c, 0, 99, 27
1, 232186, Note_on_c, 0, 92, 48
1, 232192, Note_on_c, 0, 96, 54
1, 232210, Note_off_c, 0, 92, 57
1, 232212, Note_off_c, 0, 99, 57
1, 232213, Note_off_c, 0, 96, 63
1, 232275, Note_on_c, 0, 91, 70
1, 232278, Note_on_c, 0, 92, 59
1, 232289, Note_on_c, 0, 99, 60
1, 232291, Note_off_c, 0, 91, 67
1, 232293, Note_on_c, 0, 96, 41
1, 232297, Note_off_c, 0, 92, 64
1, 232308, Note_off_c, 0, 99, 64
1, 232321, Note_off_c, 0, 96, 58
1, 232374, Note_on_c, 0, 92, 61
1, 232380, Note_on_c, 0, 99, 69
1, 232392, Note_off_c, 0, 92, 65
1, 232398, Note_off_c, 0, 99, 68
1, 232460, Note_on_c, 0, 92, 65
1, 232463, Note_on_c, 0, 96, 39
1, 232468, Note_on_c, 0, 99, 75
1, 232487, Note_on_c, 0, 91, 40
1, 232487, Note_off_c, 0, 99, 68
1, 232489, Note_off_c, 0, 96, 59
1, 232514, Note_off_c, 0, 91, 50
1, 232514, Note_off_c, 0, 92, 0
1, 232538, Poly_aftertouch_c, 0, 92, 0
1, 232556, Note_on_c, 0, 99, 66
1, 232569, Note_on_c, 0, 96, 29
1, 232574, Note_off_c, 0, 99, 66
1, 232584, Note_on_c, 0, 91, 54
1, 232605, Note_off_c, 0, 96, 35
1, 232606, Note_off_c, 0, 91, 62
1, 232639, Note_on_c, 0, 106, 75
1, 232645, Note_on_c, 0, 96, 49
1, 232657, Note_on_c, 0, 92, 68
1, 232659, Note_on_c, 0, 91, 62
1, 232663, Note_off_c, 0, 106, 65
1, 232669, Note_off_c, 0, 96, 60
1, 232673, Note_off_c, 0, 92, 68
1, 232677, Note_on_c, 0, 99, 9
1, 232678, Note_off_c, 0, 91, 63
1, 232734, Note_on_c, 0, 96, 62
1, 232736, Note_on_c, 0, 106, 66
1, 232739, Note_on_c, 0, 92, 69
1, 232743, Note_on_c, 0, 91, 64
1, 232750, Note_off_c, 0, 96, 66
1, 232755, Note_off_c, 0, 92, 68
1, 232755, Note_off_c, 0, 106, 63
1, 232761, Note_off_c, 0, 91, 65
1, 232780, Note_off_c, 0, 99, 40
1, 232815, Note_on_c, 0, 96, 69
1, 232825, Note_on_c, 0, 92, 61
1, 232827, Note_on_c, 0, 91, 71
1, 232830, Note_off_c, 0, 96, 68
1, 232831, Note_on_c, 0, 106, 55
1, 232842, Note_off_c, 0, 92, 66
1, 232843, Note_off_c, 0, 91, 65
1, 232855, Note_off_c, 0, 106, 60
1, 232898, Note_on_c, 0, 96, 66
1, 232899, Poly_aftertouch_c, 0, 99, 0
1, 232907, Note_on_c, 0, 92, 69
1, 232913, Note_on_c, 0, 99, 25
1, 232913, Note_off_c, 0, 96, 68
1, 232914, Note_on_c, 0, 91, 63
1, 232925, Note_on_c, 0, 88, 57
1, 232930, Note_off_c, 0, 92, 70
1, 232931, Note_off_c, 0, 91, 62
1, 232936, Note_on_c, 0, 106, 22
1, 232943, Note_off_c, 0, 88, 60
1, 232957, Note_off_c, 0, 99, 46
1, 232981, Note_on_c, 0, 96, 79
1, 232982, Note_off_c, 0, 106, 0
1, 232982, Note_on_c, 0, 106, 52
1, 232986, Note_on_c, 0, 92, 57
1, 232992, Note_on_c, 0, 88, 68
1, 232999, Note_off_c, 0, 96, 72
1, 233004, Note_on_c, 0, 91, 58
1, 233004, Note_off_c, 0, 92, 65
1, 233012, Note_off_c, 0, 106, 65
1, 233023, Note_off_c, 0, 91, 61
1, 233024, Note_off_c, 0, 88, 61
1, 233073, Note_on_c, 0, 92, 58
1, 233077, Note_on_c, 0, 96, 70
1, 233079, Note_on_c, 0, 106, 74
1, 233099, Note_off_c, 0, 96, 69
1, 233103, Note_on_c, 0, 91, 53
1, 233103, Note_off_c, 0, 92, 56
1, 233111, Note_off_c, 0, 106, 67
1, 233144, Note_off_c, 0, 91, 42
1, 233161, Poly_aftertouch_c, 0, 88, 127
1, 233167, Note_on_c, 0, 96, 67
1, 233168, Note_on_c, 0, 106, 68
1, 233169, Note_on_c, 0, 88, 3
1, 233189, Note_off_c, 0, 96, 53
1, 233196, Note_off_c, 0, 106, 63
1, 233197, Note_on_c, 0, 104, 50
1, 233197, Note_off_c, 0, 88, 62
1, 233221, Note_off_c, 0, 104, 60
1, 233257, Note_on_c, 0, 106, 65
1, 233277, Note_off_c, 0, 106, 65
1, 233285, Note_on_c, 0, 104, 32
1, 233318, Note_on_c, 0, 88, 63
1, 233319, Note_off_c, 0, 104, 53
1, 233334, Note_on_c, 0, 99, 81
1, 233337, Note_on_c, 0, 84, 40
1, 233338, Note_off_c, 0, 88, 63
1, 233343, Note_on_c, 0, 96, 30
1, 233356, Note_off_c, 0, 99, 68
1, 233364, Note_off_c, 0, 84, 53
1, 233371, Note_off_c, 0, 96, 49
1, 233420, Note_on_c, 0, 88, 46
1, 233434, Note_on_c, 0, 99, 69
1, 233439, Note_on_c, 0, 84, 22
1, 233445, Note_off_c, 0, 88, 55
1, 233447, Note_on_c, 0, 96, 41
1, 233450, Note_off_c, 0, 99, 67
1, 233474, Note_off_c, 0, 96, 59
1, 233475, Note_off_c, 0, 84, 0
1, 233512, Note_on_c, 0, 88, 42
1, 233521, Note_on_c, 0, 99, 71
1, 233536, Poly_aftertouch_c, 0, 84, 0
1, 233537, Note_off_c, 0, 99, 68
1, 233539, Note_off_c, 0, 88, 55
1, 233579, Note_on_c, 0, 84, 55
1, 233590, Note_on_c, 0, 88, 59
1, 233596, Note_on_c, 0, 99, 78
1, 233597, Note_on_c, 0, 96, 26
1, 233600, Note_off_c, 0, 84, 64
1, 233610, Note_off_c, 0, 88, 62
1, 233618, Note_off_c, 0, 99, 71
1, 233623, Note_off_c, 0, 96, 52
1, 233669, Note_on_c, 0, 84, 72
1, 233672, Note_on_c, 0, 88, 68
1, 233685, Note_on_c, 0, 100, 64
1, 233685, Note_off_c, 0, 84, 67
1, 233688, Note_off_c, 0, 88, 66
1, 233702, Note_off_c, 0, 100, 65
1, 233717, Note_on_c, 0, 96, 25
1, 233718, Note_off_c, 0, 96, 127
1, 233754, Note_on_c, 0, 84, 65
1, 233755, Note_on_c, 0, 88, 63
1, 233762, Note_on_c, 0, 100, 72
1, 233774, Note_off_c, 0, 84, 62
1, 233777, Note_off_c, 0, 100, 69
1, 233779, Note_off_c, 0, 88, 56
1, 233849, Note_on_c, 0, 100, 76
1, 233857, Note_on_c, 0, 88, 63
1, 233864, Note_on_c, 0, 84, 56
1, 233864, Note_on_c, 0, 96, 53
1, 233869, Note_off_c, 0, 100, 70
1, 233884, Note_off_c, 0, 96, 61
1, 233890, Note_off_c, 0, 88, 51
1, 233906, Note_off_c, 0, 84, 58
1, 233942, Note_on_c, 0, 100, 53
1, 233959, Note_on_c, 0, 96, 46
1, 233966, Note_off_c, 0, 100, 60
1, 233983, Note_off_c, 0, 96, 61
1, 234007, Note_on_c, 0, 81, 68
1, 234013, Note_on_c, 0, 84, 63
1, 234027, Note_on_c, 0, 88, 35
1, 234027, Note_on_c, 0, 103, 70
1, 234031, Note_off_c, 0, 84, 66
1, 234037, Note_off_c, 0, 81, 61
1, 234045, Note_off_c, 0, 103, 67
1, 234055, Note_on_c, 0, 96, 37
1, 234060, Note_off_c, 0, 88, 51
1, 234086, Note_off_c, 0, 96, 57
1, 234102, Note_on_c, 0, 84, 56
1, 234104, Note_on_c, 0, 81, 44
1, 234115, Note_on_c, 0, 103, 69
1, 234122, Note_off_c, 0, 84, 61
1, 234130, Note_off_c, 0, 81, 55
1, 234133, Note_off_c, 0, 103, 67
1, 234170, Note_on_c, 0, 88, 63
1, 234189, Note_off_c, 0, 88, 59
1, 234190, Note_on_c, 0, 84, 59
1, 234193, Note_on_c, 0, 103, 88
1, 234200, Note_on_c, 0, 81, 48
1, 234207, Note_off_c, 0, 84, 66
1, 234219, Note_on_c, 0, 96, 14
1, 234223, Note_off_c, 0, 81, 57
1, 234225, Note_off_c, 0, 103, 62
1, 234257, Note_off_c, 0, 96, 0
1, 234266, Note_on_c, 0, 88, 58
1, 234267, Note_on_c, 0, 103, 77
1, 234272, Note_on_c, 0, 84, 63
1, 234276, Note_on_c, 0, 96, 39
1, 234285, Note_off_c, 0, 88, 63
1, 234289, Note_off_c, 0, 84, 66
1, 234305, Note_off_c, 0, 96, 66
1, 234305, Note_on_c, 0, 81, 26
1, 234308, Note_off_c, 0, 103, 64
1, 234347, Note_on_c, 0, 88, 70
1, 234349, Note_on_c, 0, 84, 72
1, 234364, Note_on_c, 0, 102, 69
1, 234365, Note_off_c, 0, 88, 62
1, 234371, Note_on_c, 0, 96, 62
1, 234372, Note_off_c, 0, 81, 0
1, 234372, Note_on_c, 0, 81, 4
1, 234372, Note_off_c, 0, 84, 67
1, 234388, Note_off_c, 0, 102, 64
1, 234389, Note_off_c, 0, 96, 64
1, 234400, Poly_aftertouch_c, 0, 80, 127
1, 234416, Note_off_c, 0, 81, 0
1, 234436, Note_on_c, 0, 88, 59
1, 234446, Note_on_c, 0, 102, 73
1, 234447, Note_on_c, 0, 96, 72
1, 234449, Note_on_c, 0, 84, 53
1, 234451, Poly_aftertouch_c, 0, 81, 127
1, 234455, Note_off_c, 0, 88, 61
1, 234460, Note_off_c, 0, 96, 69
1, 234468, Note_off_c, 0, 84, 62
1, 234469, Note_off_c, 0, 102, 68
1, 234486, Poly_aftertouch_c, 0, 80, 0
1, 234529, Note_on_c, 0, 88, 55
1, 234529, Note_on_c, 0, 96, 68
1, 234529, Note_on_c, 0, 102, 78
1, 234538, Poly_aftertouch_c, 0, 81, 0
1, 234547, Note_off_c, 0, 96, 62
1, 234551, Note_on_c, 0, 84, 42
1, 234562, Note_on_c, 0, 81, 10
1, 234562, Note_off_c, 0, 102, 58
1, 234586, Note_off_c, 0, 84, 53
1, 234586, Note_off_c, 0, 88, 0
1, 234589, Poly_aftertouch_c, 0, 80, 127
1, 234604, Note_off_c, 0, 81, 0
1, 234607, Note_on_c, 0, 88, 22
1, 234613, Note_on_c, 0, 102, 78
1, 234616, Note_on_c, 0, 96, 72
1, 234639, Note_off_c, 0, 96, 67
1, 234641, Poly_aftertouch_c, 0, 81, 127
1, 234645, Note_off_c, 0, 88, 43
1, 234647, Control_c, 0, 64, 106
1, 234655, Note_off_c, 0, 102, 64
1, 234661, Control_c, 0, 64, 103
1, 234676, Control_c, 0, 64, 101
1, 234680, Poly_aftertouch_c, 0, 81, 0
1, 234691, Control_c, 0, 64, 100
1, 234696, Poly_aftertouch_c, 0, 80, 0
1, 234699, Note_on_c, 0, 81, 44
1, 234708, Note_on_c, 0, 97, 81
1, 234708, Note_on_c, 0, 96, 70
1, 234708, Note_on_c, 0, 84, 65
1, 234715, Note_on_c, 0, 80, 26
1, 234722, Note_off_c, 0, 96, 70
1, 234726, Note_off_c, 0, 84, 63
1, 234727, Note_off_c, 0, 97, 70
1, 234733, Note_off_c, 0, 81, 65
1, 234750, Note_off_c, 0, 80, 48
1, 234793, Note_on_c, 0, 96, 71
1, 234799, Note_on_c, 0, 97, 74
1, 234808, Note_off_c, 0, 96, 69
1, 234809, Note_on_c, 0, 84, 30
1, 234812, Note_off_c, 0, 97, 71
1, 234846, Note_off_c, 0, 84, 46
1, 234868, Note_on_c, 0, 81, 35
1, 234878, Note_on_c, 0, 97, 80
1, 234880, Note_on_c, 0, 80, 57
1, 234881, Note_on_c, 0, 84, 47
1, 234881, Note_on_c, 0, 96, 63
1, 234898, Note_off_c, 0, 80, 63
1, 234898, Note_off_c, 0, 81, 58
1, 234898, Note_off_c, 0, 96, 65
1, 234899, Note_off_c, 0, 97, 71
1, 234905, Note_off_c, 0, 84, 61
1, 234915, Control_c, 0, 64, 101
1, 234962, Note_on_c, 0, 80, 61
1, 234972, Note_on_c, 0, 96, 53
1, 234976, Note_on_c, 0, 97, 61
1, 234980, Note_off_c, 0, 80, 63
1, 234992, Note_on_c, 0, 84, 9
1, 234992, Note_off_c, 0, 96, 63
1, 234995, Note_off_c, 0, 97, 65
1, 234996, Note_on_c, 0, 81, 26
1, 235046, Note_on_c, 0, 80, 69
1, 235048, Note_off_c, 0, 81, 0
1, 235049, Note_off_c, 0, 84, 42
1, 235057, Note_on_c, 0, 97, 74
1, 235062, Note_on_c, 0, 96, 59
1, 235065, Note_off_c, 0, 80, 62
1, 235071, Note_off_c, 0, 97, 69
1, 235080, Note_off_c, 0, 96, 65
1, 235085, Poly_aftertouch_c, 0, 81, 127
1, 235113, Poly_aftertouch_c, 0, 81, 0
1, 235134, Note_on_c, 0, 80, 61
1, 235140, Note_on_c, 0, 97, 71
1, 235141, Note_on_c, 0, 84, 57
1, 235144, Note_on_c, 0, 96, 66
1, 235150, Poly_aftertouch_c, 0, 81, 127
1, 235156, Note_off_c, 0, 97, 68
1, 235157, Note_off_c, 0, 80, 58
1, 235161, Note_off_c, 0, 96, 67
1, 235162, Note_off_c, 0, 84, 64
1, 235201, Poly_aftertouch_c, 0, 81, 0
1, 235221, Note_on_c, 0, 96, 73
1, 235227, Note_on_c, 0, 97, 61
1, 235238, Note_on_c, 0, 84, 53
1, 235241, Note_on_c, 0, 80, 53
1, 235244, Note_off_c, 0, 96, 54
1, 235254, Note_off_c, 0, 97, 51
1, 235258, Note_off_c, 0, 84, 62
1, 235263, Note_off_c, 0, 80, 59
1, 235298, Note_on_c, 0, 97, 57
1, 235315, Control_c, 0, 64, 96
1, 235337, Control_c, 0, 64, 85
1, 235339, Note_off_c, 0, 97, 63
1, 235352, Control_c, 0, 64, 73
1, 235367, Control_c, 0, 64, 70
1, 235373, Note_on_c, 0, 98, 72
1, 235382, Control_c, 0, 64, 73
1, 235382, Note_on_c, 0, 77, 63
1, 235383, Note_on_c, 0, 83, 63
1, 235394, Note_on_c, 0, 78, 54
1, 235395, Note_off_c, 0, 98, 71
1, 235396, Control_c, 0, 64, 76
1, 235402, Note_off_c, 0, 83, 67
1, 235408, Note_off_c, 0, 77, 58
1, 235411, Control_c, 0, 64, 81
1, 235414, Note_off_c, 0, 78, 63
1, 235426, Control_c, 0, 64, 86
1, 235441, Control_c, 0, 64, 92
1, 235456, Control_c, 0, 64, 95
1, 235459, Note_on_c, 0, 98, 77
1, 235470, Control_c, 0, 64, 96
1, 235480, Note_off_c, 0, 98, 72
1, 235496, Note_on_c, 0, 77, 40
1, 235515, Control_c, 0, 64, 96
1, 235525, Note_off_c, 0, 77, 54
1, 235530, Control_c, 0, 64, 97
1, 235541, Note_on_c, 0, 94, 43
1, 235544, Control_c, 0, 64, 98
1, 235548, Poly_aftertouch_c, 0, 83, 0
1, 235560, Control_c, 0, 64, 99
1, 235560, Poly_aftertouch_c, 0, 78, 127
1, 235571, Note_on_c, 0, 83, 37
1, 235575, Control_c, 0, 64, 100
1, 235577, Note_off_c, 0, 94, 50
1, 235598, Note_on_c, 0, 98, 63
1, 235599, Note_off_c, 0, 83, 54
1, 235630, Note_off_c, 0, 98, 67
1, 235644, Poly_aftertouch_c, 0, 78, 0
1, 235664, Control_c, 0, 64, 98
1, 235678, Control_c, 0, 64, 98
1, 235696, Note_on_c, 0, 105, 84
1, 235709, Note_on_c, 0, 74, 47
1, 235716, Note_on_c, 0, 73, 34
1, 235718, Note_off_c, 0, 105, 68
1, 235728, Note_on_c, 0, 79, 20
1, 235734, Note_off_c, 0, 74, 60
1, 235760, Note_off_c, 0, 79, 0
1, 235763, Note_off_c, 0, 73, 42
1, 235795, Note_on_c, 0, 105, 87
1, 235799, Note_on_c, 0, 94, 32
1, 235805, Poly_aftertouch_c, 0, 79, 0
1, 235818, Note_off_c, 0, 105, 69
1, 235831, Note_off_c, 0, 94, 51
1, 235849, Poly_aftertouch_c, 0, 74, 0
1, 235879, Note_on_c, 0, 79, 47
1, 235885, Note_on_c, 0, 73, 38
1, 235886, Poly_aftertouch_c, 0, 74, 127
1, 235905, Note_off_c, 0, 79, 58
1, 235919, Note_on_c, 0, 94, 46
1, 235933, Note_on_c, 0, 105, 62
1, 235936, Note_off_c, 0, 73, 0
1, 235941, Poly_aftertouch_c, 0, 74, 0
1, 235951, Note_on_c, 0, 73, 51
1, 235954, Note_on_c, 0, 79, 51
1, 235954, Note_off_c, 0, 105, 64
1, 235957, Note_off_c, 0, 94, 66
1, 235966, Note_on_c, 0, 74, 24
1, 235975, Note_off_c, 0, 79, 61
1, 235975, Note_off_c, 0, 73, 60
1, 236006, Note_off_c, 0, 74, 45
1, 236045, Note_on_c, 0, 73, 79
1, 236068, Note_on_c, 0, 87, 60
1, 236068, Note_off_c, 0, 73, 68
1, 236070, Note_on_c, 0, 77, 44
1, 236083, Note_on_c, 0, 91, 48
1, 236096, Note_off_c, 0, 87, 62
1, 236103, Note_off_c, 0, 77, 57
1, 236106, Note_off_c, 0, 91, 61
1, 236116, Control_c, 0, 64, 97
1, 236131, Control_c, 0, 64, 96
1, 236157, Note_on_c, 0, 73, 58
1, 236160, Note_on_c, 0, 87, 56
1, 236163, Note_on_c, 0, 91, 59
1, 236169, Note_on_c, 0, 77, 33
1, 236176, Note_off_c, 0, 73, 63
1, 236180, Note_off_c, 0, 87, 63
1, 236180, Note_off_c, 0, 91, 62
1, 236202, Note_off_c, 0, 77, 54
1, 236235, Note_on_c, 0, 73, 73
1, 236249, Note_on_c, 0, 91, 70
1, 236255, Note_off_c, 0, 73, 62
1, 236256, Poly_aftertouch_c, 0, 72, 127
1, 236259, Note_on_c, 0, 77, 24
1, 236260, Note_on_c, 0, 87, 38
1, 236265, Note_off_c, 0, 91, 62
1, 236304, Note_off_c, 0, 87, 0
1, 236304, Note_on_c, 0, 87, 40
1, 236306, Note_off_c, 0, 77, 0
1, 236306, Note_on_c, 0, 77, 34
1, 236309, Control_c, 0, 64, 97
1, 236312, Note_on_c, 0, 91, 73
1, 236327, Note_on_c, 0, 73, 65
1, 236335, Note_off_c, 0, 87, 67
1, 236335, Note_off_c, 0, 91, 68
1, 236336, Note_off_c, 0, 77, 62
1, 236356, Note_off_c, 0, 73, 68
1, 236401, Poly_aftertouch_c, 0, 72, 0
1, 236407, Note_on_c, 0, 75, 71
1, 236410, Note_on_c, 0, 73, 66
1, 236412, Note_on_c, 0, 95, 75
1, 236414, Note_on_c, 0, 89, 66
1, 236418, Note_on_c, 0, 72, 38
1, 236429, Note_off_c, 0, 73, 66
1, 236429, Note_off_c, 0, 75, 69
1, 236431, Note_off_c, 0, 89, 63
1, 236434, Note_off_c, 0, 95, 71
1, 236446, Note_off_c, 0, 72, 53
1, 236492, Note_on_c, 0, 89, 72
1, 236502, Note_on_c, 0, 95, 71
1, 236509, Note_off_c, 0, 89, 63
1, 236517, Note_off_c, 0, 95, 71
1, 236531, Note_on_c, 0, 75, 14
1, 236577, Note_on_c, 0, 89, 74
1, 236578, Note_on_c, 0, 95, 86
1, 236582, Note_off_c, 0, 75, 0
1, 236582, Note_on_c, 0, 75, 31
1, 236583, Note_on_c, 0, 72, 25
1, 236595, Note_on_c, 0, 73, 4
1, 236603, Note_off_c, 0, 89, 65
1, 236613, Note_off_c, 0, 95, 63
1, 236618, Note_off_c, 0, 75, 54
1, 236620, Note_off_c, 0, 72, 51
1, 236655, Note_off_c, 0, 73, 37
1, 236662, Note_on_c, 0, 89, 81
1, 236695, Note_off_c, 0, 89, 64
1, 236723, Control_c, 0, 64, 96
1, 236759, Note_on_c, 0, 97, 71
1, 236762, Note_on_c, 0, 76, 62
1, 236774, Note_off_c, 0, 97, 69
1, 236780, Note_off_c, 0, 76, 63
1, 236783, Note_on_c, 0, 68, 28
1, 236844, Note_on_c, 0, 89, 28
1, 236854, Note_on_c, 0, 76, 68
1, 236854, Note_on_c, 0, 97, 61
1, 236869, Note_off_c, 0, 76, 67
1, 236872, Note_off_c, 0, 97, 66
1, 236875, Note_off_c, 0, 89, 63
1, 236891, Poly_aftertouch_c, 0, 77, 0
1, 236920, Note_off_c, 0, 68, 0
1, 236932, Note_on_c, 0, 76, 70
1, 236943, Note_on_c, 0, 77, 34
1, 236944, Note_on_c, 0, 97, 71
1, 236945, Note_on_c, 0, 86, 63
1, 236953, Note_off_c, 0, 76, 63
1, 236957, Poly_aftertouch_c, 0, 68, 127
1, 236961, Note_off_c, 0, 86, 66
1, 236967, Note_off_c, 0, 97, 69
1, 236974, Note_off_c, 0, 77, 55
1, 237026, Note_on_c, 0, 76, 59
1, 237026, Note_on_c, 0, 86, 67
1, 237030, Note_on_c, 0, 97, 72
1, 237034, Note_on_c, 0, 77, 36
1, 237045, Note_off_c, 0, 76, 63
1, 237047, Note_off_c, 0, 86, 62
1, 237048, Note_off_c, 0, 97, 68
1, 237068, Note_off_c, 0, 77, 52
1, 237083, Poly_aftertouch_c, 0, 68, 0
1, 237108, Note_on_c, 0, 77, 59
1, 237113, Note_on_c, 0, 76, 62
1, 237113, Note_on_c, 0, 86, 74
1, 237116, Note_on_c, 0, 97, 75
1, 237119, Poly_aftertouch_c, 0, 68, 127
1, 237131, Note_off_c, 0, 77, 59
1, 237133, Note_off_c, 0, 76, 64
1, 237136, Note_off_c, 0, 86, 69
1, 237138, Note_off_c, 0, 97, 69
1, 237194, Note_on_c, 0, 77, 73
1, 237208, Note_on_c, 0, 86, 68
1, 237215, Note_off_c, 0, 77, 61
1, 237223, Note_on_c, 0, 76, 42
1, 237224, Note_on_c, 0, 97, 56
1, 237224, Note_off_c, 0, 86, 67
1, 237246, Note_off_c, 0, 97, 63
1, 237254, Note_off_c, 0, 76, 53
1, 237261, Poly_aftertouch_c, 0, 68, 0
1, 237266, Control_c, 0, 64, 97
1, 237276, Note_on_c, 0, 68, 46
1, 237282, Note_on_c, 0, 77, 70
1, 237290, Note_on_c, 0, 86, 70
1, 237295, Control_c, 0, 64, 97
1, 237309, Note_off_c, 0, 77, 59
1, 237316, Note_on_c, 0, 97, 59
1, 237316, Note_off_c, 0, 86, 67
1, 237334, Note_off_c, 0, 97, 65
1, 237340, Note_off_c, 0, 68, 58
1, 237354, Control_c, 0, 64, 98
1, 237388, Note_on_c, 0, 86, 64
1, 237399, Control_c, 0, 64, 97
1, 237401, Note_on_c, 0, 97, 59
1, 237404, Note_off_c, 0, 86, 67
1, 237413, Control_c, 0, 64, 94
1, 237423, Note_off_c, 0, 97, 63
1, 237429, Control_c, 0, 64, 88
1, 237444, Control_c, 0, 64, 84
1, 237447, Poly_aftertouch_c, 0, 68, 127
1, 237454, Note_on_c, 0, 71, 37
1, 237471, Note_on_c, 0, 86, 77
1, 237471, Poly_aftertouch_c, 0, 77, 0
1, 237474, Note_on_c, 0, 70, 36
1, 237481, Note_on_c, 0, 97, 81
1, 237488, Control_c, 0, 64, 85
1, 237492, Note_off_c, 0, 86, 71
1, 237500, Note_off_c, 0, 71, 64
1, 237501, Note_off_c, 0, 97, 72
1, 237503, Control_c, 0, 64, 87
1, 237504, Note_off_c, 0, 70, 57
1, 237510, Poly_aftertouch_c, 0, 68, 0
1, 237518, Control_c, 0, 64, 88
1, 237532, Control_c, 0, 64, 90
1, 237547, Control_c, 0, 64, 91
1, 237562, Control_c, 0, 64, 92
1, 237569, Note_on_c, 0, 71, 52
1, 237570, Note_on_c, 0, 86, 69
1, 237581, Note_on_c, 0, 97, 68
1, 237584, Control_c, 0, 64, 92
1, 237593, Note_off_c, 0, 86, 68
1, 237597, Note_off_c, 0, 71, 63
1, 237599, Control_c, 0, 64, 93
1, 237600, Note_off_c, 0, 97, 66
1, 237629, Control_c, 0, 64, 93
1, 237644, Control_c, 0, 64, 94
1, 237654, Note_on_c, 0, 86, 74
1, 237657, Note_on_c, 0, 71, 63
1, 237658, Control_c, 0, 64, 95
1, 237662, Note_on_c, 0, 97, 76
1, 237671, Poly_aftertouch_c, 0, 70, 0
1, 237673, Control_c, 0, 64, 96
1, 237686, Note_off_c, 0, 71, 54
1, 237686, Note_off_c, 0, 97, 68
1, 237688, Control_c, 0, 64, 97
1, 237692, Note_off_c, 0, 86, 59
1, 237693, Poly_aftertouch_c, 0, 68, 127
1, 237732, Control_c, 0, 64, 90
1, 237747, Control_c, 0, 64, 85
1, 237751, Note_on_c, 0, 68, 21
1, 237756, Note_on_c, 0, 74, 69
1, 237757, Note_on_c, 0, 92, 74
1, 237762, Control_c, 0, 64, 83
1, 237772, Note_on_c, 0, 96, 70
1, 237774, Note_off_c, 0, 92, 65
1, 237775, Note_off_c, 0, 74, 69
1, 237781, Note_on_c, 0, 78, 36
1, 237787, Note_off_c, 0, 68, 44
1, 237792, Control_c, 0, 64, 83
1, 237802, Note_off_c, 0, 96, 59
1, 237806, Control_c, 0, 64, 85
1, 237812, Note_off_c, 0, 78, 53
1, 237821, Control_c, 0, 64, 88
1, 237836, Control_c, 0, 64, 90
1, 237842, Poly_aftertouch_c, 0, 93, 127
1, 237844, Note_on_c, 0, 68, 55
1, 237846, Note_on_c, 0, 78, 48
1, 237846, Note_on_c, 0, 93, 2
1, 237850, Control_c, 0, 64, 91
1, 237856, Note_on_c, 0, 74, 45
1, 237864, Note_on_c, 0, 87, 63
1, 237865, Control_c, 0, 64, 90
1, 237868, Note_off_c, 0, 68, 58
1, 237869, Note_off_c, 0, 78, 59
1, 237880, Note_off_c, 0, 74, 61
1, 237883, Note_off_c, 0, 87, 65
1, 237884, Note_off_c, 0, 93, 60
1, 237895, Control_c, 0, 64, 91
1, 237937, Note_on_c, 0, 68, 62
1, 237939, Note_on_c, 0, 78, 70
1, 237951, Note_on_c, 0, 93, 43
1, 237954, Note_on_c, 0, 87, 52
1, 237956, Note_off_c, 0, 68, 61
1, 237958, Note_off_c, 0, 78, 63
1, 237985, Control_c, 0, 64, 92
1, 237998, Note_off_c, 0, 87, 0
1, 238000, Control_c, 0, 64, 92
1, 238001, Note_off_c, 0, 93, 0
1, 238008, Note_on_c, 0, 87, 65
1, 238019, Note_on_c, 0, 78, 76
1, 238022, Note_on_c, 0, 93, 12
1, 238023, Note_on_c, 0, 68, 65
1, 238032, Note_off_c, 0, 87, 71
1, 238038, Note_off_c, 0, 78, 70
1, 238044, Control_c, 0, 64, 90
1, 238052, Note_off_c, 0, 68, 64
1, 238059, Control_c, 0, 64, 84
1, 238068, Note_off_c, 0, 93, 51
1, 238073, Control_c, 0, 64, 79
1, 238088, Control_c, 0, 64, 78
1, 238103, Control_c, 0, 64, 79
1, 238104, Note_on_c, 0, 91, 80
1, 238118, Control_c, 0, 64, 81
1, 238126, Note_on_c, 0, 87, 50
1, 238127, Note_off_c, 0, 91, 70
1, 238133, Control_c, 0, 64, 83
1, 238137, Note_on_c, 0, 77, 44
1, 238142, Note_on_c, 0, 68, 31
1, 238148, Control_c, 0, 64, 86
1, 238152, Note_off_c, 0, 87, 36
1, 238163, Control_c, 0, 64, 88
1, 238165, Note_off_c, 0, 77, 57
1, 238178, Control_c, 0, 64, 89
1, 238196, Note_off_c, 0, 68, 0
1, 238204, Note_on_c, 0, 91, 65
1, 238232, Poly_aftertouch_c, 0, 68, 127
1, 238234, Note_off_c, 0, 91, 48
1, 238237, Control_c, 0, 64, 90
1, 238246, Note_on_c, 0, 87, 43
1, 238252, Control_c, 0, 64, 90
1, 238267, Control_c, 0, 64, 91
1, 238274, Note_on_c, 0, 91, 55
1, 238276, Note_on_c, 0, 77, 11
1, 238283, Note_on_c, 0, 68, 20
1, 238285, Note_off_c, 0, 87, 61
1, 238306, Note_off_c, 0, 91, 64
1, 238309, Note_off_c, 0, 77, 50
1, 238311, Control_c, 0, 64, 91
1, 238330, Note_off_c, 0, 68, 59
1, 238333, Control_c, 0, 64, 84
1, 238348, Control_c, 0, 64, 73
1, 238360, Poly_aftertouch_c, 0, 67, 0
1, 238362, Control_c, 0, 64, 62
1, 238377, Control_c, 0, 64, 63
1, 238378, Note_on_c, 0, 76, 74
1, 238388, Note_on_c, 0, 87, 69
1, 238392, Control_c, 0, 64, 65
1, 238395, Note_on_c, 0, 72, 47
1, 238396, Note_on_c, 0, 82, 44
1, 238401, Note_off_c, 0, 76, 60
1, 238407, Control_c, 0, 64, 66
1, 238412, Note_off_c, 0, 87, 67
1, 238418, Note_off_c, 0, 72, 59
1, 238420, Poly_aftertouch_c, 0, 67, 0
1, 238420, Note_off_c, 0, 82, 37
1, 238422, Control_c, 0, 64, 67
1, 238437, Control_c, 0, 64, 70
1, 238452, Control_c, 0, 64, 72
1, 238467, Control_c, 0, 64, 74
1, 238476, Note_on_c, 0, 76, 52
1, 238479, Note_on_c, 0, 87, 59
1, 238481, Control_c, 0, 64, 77
1, 238496, Control_c, 0, 64, 79
1, 238499, Note_off_c, 0, 87, 64
1, 238500, Note_off_c, 0, 76, 59
1, 238503, Note_on_c, 0, 72, 35
1, 238511, Control_c, 0, 64, 79
1, 238523, Poly_aftertouch_c, 0, 67, 127
1, 238526, Control_c, 0, 64, 80
1, 238532, Note_off_c, 0, 72, 55
1, 238541, Control_c, 0, 64, 81
1, 238551, Note_on_c, 0, 67, 29
1, 238555, Control_c, 0, 64, 82
1, 238562, Note_on_c, 0, 87, 73
1, 238567, Note_on_c, 0, 76, 65
1, 238570, Control_c, 0, 64, 83
1, 238578, Note_off_c, 0, 87, 69
1, 238585, Control_c, 0, 64, 84
1, 238587, Note_off_c, 0, 76, 63
1, 238588, Note_on_c, 0, 72, 27
1, 238591, Note_off_c, 0, 67, 52
1, 238602, Poly_aftertouch_c, 0, 82, 0
1, 238615, Control_c, 0, 64, 84
1, 238622, Note_off_c, 0, 72, 43
1, 238629, Control_c, 0, 64, 85
1, 238643, Note_on_c, 0, 87, 77
1, 238644, Control_c, 0, 64, 86
1, 238652, Note_on_c, 0, 67, 54
1, 238655, Note_on_c, 0, 82, 50
1, 238658, Note_on_c, 0, 76, 59
1, 238659, Control_c, 0, 64, 86
1, 238667, Note_off_c, 0, 87, 68
1, 238676, Note_off_c, 0, 76, 64
1, 238677, Note_off_c, 0, 67, 54
1, 238677, Note_off_c, 0, 82, 59
1, 238683, Note_on_c, 0, 72, 12
1, 238688, Control_c, 0, 64, 87
1, 238718, Control_c, 0, 64, 87
1, 238740, Note_on_c, 0, 82, 68
1, 238748, Note_on_c, 0, 67, 54
1, 238749, Control_c, 0, 64, 88
1, 238750, Note_on_c, 0, 76, 56
1, 238753, Note_on_c, 0, 87, 64
1, 238757, Note_off_c, 0, 82, 67
1, 238768, Note_off_c, 0, 67, 64
1, 238770, Note_off_c, 0, 87, 66
1, 238771, Note_off_c, 0, 76, 61
1, 238823, Control_c, 0, 64, 88
1, 238831, Note_on_c, 0, 87, 77
1, 238832, Note_on_c, 0, 82, 61
1, 238836, Note_on_c, 0, 67, 57
1, 238838, Control_c, 0, 64, 89
1, 238849, Note_on_c, 0, 76, 40
1, 238850, Note_off_c, 0, 82, 64
1, 238852, Control_c, 0, 64, 90
1, 238853, Note_off_c, 0, 87, 71
1, 238857, Note_off_c, 0, 67, 60
1, 238879, Note_off_c, 0, 76, 53
1, 238911, Control_c, 0, 64, 91
1, 238917, Note_on_c, 0, 82, 69
1, 238926, Control_c, 0, 64, 91
1, 238927, Note_on_c, 0, 87, 75
1, 238929, Note_off_c, 0, 72, 0
1, 238930, Note_on_c, 0, 67, 58
1, 238946, Note_off_c, 0, 87, 68
1, 238947, Note_on_c, 0, 72, 26
1, 238948, Note_off_c, 0, 82, 54
1, 238952, Note_on_c, 0, 76, 30
1, 238956, Control_c, 0, 64, 92
1, 238969, Note_off_c, 0, 67, 58
1, 238980, Note_off_c, 0, 72, 46
1, 238989, Note_off_c, 0, 76, 48
1, 239006, Note_on_c, 0, 87, 78
1, 239009, Note_on_c, 0, 82, 47
1, 239030, Control_c, 0, 64, 89
1, 239036, Note_off_c, 0, 82, 57
1, 239036, Note_off_c, 0, 87, 62
1, 239045, Control_c, 0, 64, 84
1, 239060, Control_c, 0, 64, 75
1, 239082, Control_c, 0, 64, 71
1, 239096, Note_on_c, 0, 71, 57
1, 239097, Note_on_c, 0, 63, 36
1, 239098, Note_off_c, 0, 63, 127
1, 239098, Control_c, 0, 64, 73
1, 239106, Note_on_c, 0, 66, 43
1, 239111, Control_c, 0, 64, 75
1, 239113, Note_on_c, 0, 88, 72
1, 239115, Note_off_c, 0, 71, 65
1, 239126, Control_c, 0, 64, 77
1, 239133, Note_off_c, 0, 66, 56
1, 239138, Note_off_c, 0, 88, 68
1, 239141, Note_on_c, 0, 80, 20
1, 239141, Control_c, 0, 64, 79
1, 239156, Control_c, 0, 64, 80
1, 239171, Control_c, 0, 64, 82
1, 239178, Note_on_c, 0, 62, 35
1, 239185, Control_c, 0, 64, 84
1, 239190, Note_on_c, 0, 66, 52
1, 239191, Note_on_c, 0, 71, 50
1, 239200, Control_c, 0, 64, 85
1, 239202, Note_on_c, 0, 88, 65
1, 239210, Note_off_c, 0, 66, 64
1, 239211, Note_off_c, 0, 71, 63
1, 239214, Note_off_c, 0, 62, 54
1, 239215, Control_c, 0, 64, 86
1, 239227, Note_off_c, 0, 88, 68
1, 239236, Note_on_c, 0, 83, 5
1, 239245, Control_c, 0, 64, 86
1, 239251, Note_off_c, 0, 80, 0
1, 239254, Note_off_c, 0, 83, 0
1, 239260, Control_c, 0, 64, 87
1, 239272, Note_on_c, 0, 80, 41
1, 239273, Note_on_c, 0, 71, 63
1, 239275, Control_c, 0, 64, 88
1, 239279, Note_on_c, 0, 83, 25
1, 239284, Note_on_c, 0, 66, 48
1, 239286, Note_on_c, 0, 88, 69
1, 239293, Note_on_c, 0, 62, 55
1, 239296, Note_off_c, 0, 80, 58
1, 239297, Note_off_c, 0, 71, 56
1, 239303, Note_off_c, 0, 83, 59
1, 239304, Control_c, 0, 64, 89
1, 239309, Note_off_c, 0, 88, 68
1, 239310, Note_off_c, 0, 66, 55
1, 239319, Note_off_c, 0, 62, 60
1, 239319, Control_c, 0, 64, 89
1, 239334, Control_c, 0, 64, 90
1, 239349, Control_c, 0, 64, 91
1, 239359, Note_on_c, 0, 80, 73
1, 239368, Note_on_c, 0, 88, 67
1, 239370, Note_on_c, 0, 71, 51
1, 239378, Control_c, 0, 64, 90
1, 239382, Note_off_c, 0, 80, 68
1, 239386, Note_on_c, 0, 83, 51
1, 239386, Note_off_c, 0, 71, 66
1, 239393, Control_c, 0, 64, 86
1, 239394, Note_off_c, 0, 88, 68
1, 239408, Control_c, 0, 64, 79
1, 239409, Note_off_c, 0, 83, 60
1, 239423, Control_c, 0, 64, 73
1, 239437, Control_c, 0, 64, 74
1, 239445, Note_on_c, 0, 71, 67
1, 239452, Control_c, 0, 64, 76
1, 239456, Note_on_c, 0, 61, 62
1, 239461, Note_on_c, 0, 77, 69
1, 239464, Note_off_c, 0, 71, 67
1, 239467, Control_c, 0, 64, 78
1, 239468, Note_on_c, 0, 89, 72
1, 239475, Note_on_c, 0, 66, 18
1, 239477, Note_off_c, 0, 61, 61
1, 239479, Note_off_c, 0, 77, 67
1, 239481, Note_on_c, 0, 83, 53
1, 239482, Control_c, 0, 64, 81
1, 239487, Note_off_c, 0, 89, 65
1, 239496, Control_c, 0, 64, 84
1, 239503, Note_off_c, 0, 83, 61
1, 239510, Note_off_c, 0, 66, 43
1, 239511, Control_c, 0, 64, 87
1, 239526, Control_c, 0, 64, 88
1, 239540, Note_on_c, 0, 71, 55
1, 239541, Control_c, 0, 64, 89
1, 239550, Note_on_c, 0, 61, 56
1, 239552, Note_on_c, 0, 77, 66
1, 239552, Note_on_c, 0, 89, 76
1, 239557, Control_c, 0, 64, 89
1, 239559, Note_off_c, 0, 71, 66
1, 239570, Note_off_c, 0, 77, 64
1, 239576, Note_off_c, 0, 89, 61
1, 239581, Note_off_c, 0, 61, 54
1, 239585, Note_on_c, 0, 83, 39
1, 239587, Control_c, 0, 64, 90
1, 239601, Control_c, 0, 64, 91
1, 239612, Note_off_c, 0, 83, 57
1, 239616, Control_c, 0, 64, 91
1, 239641, Note_on_c, 0, 71, 49
1, 239650, Note_on_c, 0, 77, 51
1, 239661, Control_c, 0, 64, 92
1, 239665, Note_on_c, 0, 61, 48
1, 239665, Note_off_c, 0, 71, 59
1, 239673, Note_off_c, 0, 77, 56
1, 239702, Note_on_c, 0, 89, 3
1, 239705, Control_c, 0, 64, 92
1, 239719, Control_c, 0, 64, 93
1, 239734, Note_on_c, 0, 77, 42
1, 239737, Note_on_c, 0, 83, 22
1, 239738, Note_off_c, 0, 89, 61
1, 239745, Note_on_c, 0, 66, 47
1, 239748, Note_on_c, 0, 71, 50
1, 239749, Control_c, 0, 64, 92
1, 239750, Note_off_c, 0, 61, 54
1, 239764, Note_off_c, 0, 77, 54
1, 239764, Control_c, 0, 64, 88
1, 239772, Note_off_c, 0, 71, 59
1, 239774, Note_off_c, 0, 66, 64
1, 239775, Note_off_c, 0, 83, 49
1, 239779, Control_c, 0, 64, 80
1, 239793, Control_c, 0, 64, 72
1, 239808, Control_c, 0, 64, 71
1, 239827, Note_on_c, 0, 82, 73
1, 239831, Control_c, 0, 64, 73
1, 239841, Note_on_c, 0, 69, 63
1, 239843, Note_on_c, 0, 60, 56
1, 239846, Control_c, 0, 64, 76
1, 239849, Note_on_c, 0, 74, 43
1, 239849, Note_off_c, 0, 82, 70
1, 239856, Note_on_c, 0, 80, 28
1, 239860, Control_c, 0, 64, 78
1, 239861, Note_off_c, 0, 69, 64
1, 239865, Note_off_c, 0, 60, 62
1, 239875, Control_c, 0, 64, 81
1, 239877, Note_off_c, 0, 74, 56
1, 239890, Control_c, 0, 64, 83
1, 239902, Note_off_c, 0, 80, 30
1, 239905, Control_c, 0, 64, 85
1, 239919, Note_on_c, 0, 74, 48
1, 239920, Control_c, 0, 64, 86
1, 239926, Note_on_c, 0, 82, 63
1, 239927, Note_on_c, 0, 69, 64
1, 239930, Note_on_c, 0, 60, 59
1, 239934, Control_c, 0, 64, 87
1, 239943, Note_off_c, 0, 74, 59
1, 239943, Note_off_c, 0, 82, 65
1, 239946, Note_off_c, 0, 69, 63
1, 239958, Note_off_c, 0, 60, 57
1, 239994, Control_c, 0, 64, 88
1, 240008, Note_on_c, 0, 82, 73
1, 240014, Note_on_c, 0, 74, 68
1, 240017, Note_on_c, 0, 69, 60
1, 240023, Control_c, 0, 64, 88
1, 240032, Note_off_c, 0, 82, 68
1, 240034, Note_off_c, 0, 74, 63
1, 240064, Note_off_c, 0, 69, 41
1, 240082, Poly_aftertouch_c, 0, 60, 127
1, 240082, Control_c, 0, 64, 89
1, 240095, Note_on_c, 0, 82, 84
1, 240100, Note_on_c, 0, 74, 63
1, 240118, Poly_aftertouch_c, 0, 60, 0
1, 240119, Note_off_c, 0, 74, 66
1, 240124, Note_off_c, 0, 82, 63
1, 240127, Control_c, 0, 64, 86
1, 240142, Control_c, 0, 64, 80
1, 240157, Control_c, 0, 64, 72
1, 240172, Control_c, 0, 64, 66
1, 240173, Note_on_c, 0, 70, 61
1, 240176, Note_on_c, 0, 63, 59
1, 240182, Note_on_c, 0, 84, 77
1, 240187, Control_c, 0, 64, 68
1, 240187, Note_on_c, 0, 74, 62
1, 240193, Note_off_c, 0, 70, 64
1, 240201, Note_on_c, 0, 82, 31
1, 240201, Control_c, 0, 64, 70
1, 240207, Note_off_c, 0, 63, 65
1, 240207, Note_off_c, 0, 74, 64
1, 240213, Note_off_c, 0, 84, 65
1, 240216, Control_c, 0, 64, 72
1, 240231, Control_c, 0, 64, 74
1, 240233, Note_off_c, 0, 82, 45
1, 240246, Control_c, 0, 64, 76
1, 240259, Note_on_c, 0, 70, 60
1, 240260, Control_c, 0, 64, 77
1, 240266, Note_on_c, 0, 84, 68
1, 240275, Control_c, 0, 64, 79
1, 240276, Note_on_c, 0, 74, 61
1, 240282, Note_off_c, 0, 70, 63
1, 240288, Note_on_c, 0, 63, 43
1, 240290, Control_c, 0, 64, 81
1, 240298, Note_off_c, 0, 84, 62
1, 240299, Note_off_c, 0, 74, 63
1, 240305, Control_c, 0, 64, 82
1, 240313, Note_off_c, 0, 63, 58
1, 240320, Control_c, 0, 64, 83
1, 240350, Control_c, 0, 64, 84
1, 240359, Note_on_c, 0, 70, 56
1, 240363, Note_on_c, 0, 84, 61
1, 240365, Control_c, 0, 64, 84
1, 240369, Note_on_c, 0, 74, 59
1, 240380, Control_c, 0, 64, 86
1, 240387, Note_off_c, 0, 70, 54
1, 240390, Note_off_c, 0, 84, 67
1, 240392, Note_off_c, 0, 74, 62
1, 240395, Control_c, 0, 64, 87
1, 240410, Control_c, 0, 64, 88
1, 240424, Control_c, 0, 64, 88
1, 240439, Control_c, 0, 64, 90
1, 240448, Note_on_c, 0, 84, 73
1, 240454, Control_c, 0, 64, 92
1, 240469, Note_on_c, 0, 70, 47
1, 240469, Control_c, 0, 64, 93
1, 240471, Note_off_c, 0, 84, 66
1, 240483, Control_c, 0, 64, 94
1, 240489, Note_off_c, 0, 70, 62
1, 240513, Control_c, 0, 64, 93
1, 240527, Poly_aftertouch_c, 0, 63, 127
1, 240528, Control_c, 0, 64, 87
1, 240531, Poly_aftertouch_c, 0, 74, 0
1, 240542, Control_c, 0, 64, 77
1, 240549, Note_on_c, 0, 85, 73
1, 240557, Control_c, 0, 64, 70
1, 240562, Note_on_c, 0, 64, 50
1, 240564, Note_on_c, 0, 79, 48
1, 240568, Poly_aftertouch_c, 0, 74, 127
1, 240580, Control_c, 0, 64, 70
1, 240586, Note_off_c, 0, 85, 59
1, 240592, Poly_aftertouch_c, 0, 63, 0
1, 240594, Note_off_c, 0, 64, 60
1, 240595, Control_c, 0, 64, 73
1, 240596, Note_off_c, 0, 79, 59
1, 240601, Poly_aftertouch_c, 0, 74, 0
1, 240610, Control_c, 0, 64, 75
1, 240624, Control_c, 0, 64, 77
1, 240636, Note_on_c, 0, 65, 16
1, 240639, Control_c, 0, 64, 80
1, 240649, Note_on_c, 0, 56, 35
1, 240649, Note_on_c, 0, 64, 52
1, 240654, Control_c, 0, 64, 85
1, 240658, Note_on_c, 0, 85, 67
1, 240667, Note_on_c, 0, 74, 30
1, 240669, Control_c, 0, 64, 88
1, 240670, Note_off_c, 0, 64, 66
1, 240672, Note_off_c, 0, 65, 55
1, 240677, Note_off_c, 0, 85, 61
1, 240681, Note_off_c, 0, 56, 48
1, 240683, Control_c, 0, 64, 89
1, 240686, Note_on_c, 0, 79, 32
1, 240698, Control_c, 0, 64, 90
1, 240702, Note_off_c, 0, 74, 30
1, 240713, Control_c, 0, 64, 90
1, 240719, Note_off_c, 0, 79, 52
1, 240728, Control_c, 0, 64, 93
1, 240743, Control_c, 0, 64, 97
1, 240746, Note_on_c, 0, 85, 62
1, 240755, Note_on_c, 0, 64, 37
1, 240757, Control_c, 0, 64, 100
1, 240762, Note_off_c, 0, 85, 66
1, 240772, Control_c, 0, 64, 102
1, 240785, Note_off_c, 0, 64, 54
1, 240787, Control_c, 0, 64, 102
1, 240807, Note_on_c, 0, 56, 44
1, 240815, Note_on_c, 0, 85, 79
1, 240816, Note_on_c, 0, 74, 61
1, 240817, Note_on_c, 0, 65, 44
1, 240817, Control_c, 0, 64, 103
1, 240828, Note_off_c, 0, 85, 72
1, 240831, Control_c, 0, 64, 104
1, 240835, Note_off_c, 0, 74, 64
1, 240845, Note_off_c, 0, 65, 57
1, 240846, Control_c, 0, 64, 106
1, 240849, Note_off_c, 0, 56, 60
1, 240875, Control_c, 0, 64, 106
1, 240890, Control_c, 0, 64, 100
1, 240899, Poly_aftertouch_c, 0, 64, 0
1, 240905, Control_c, 0, 64, 88
1, 240917, Note_on_c, 0, 65, 73
1, 240920, Control_c, 0, 64, 74
1, 240935, Control_c, 0, 64, 68
1, 240939, Note_on_c, 0, 56, 44
1, 240942, Note_on_c, 0, 66, 61
1, 240944, Note_off_c, 0, 65, 67
1, 240947, Note_on_c, 0, 73, 44
1, 240948, Note_off_c, 0, 73, 127
1, 240951, Control_c, 0, 64, 71
1, 240954, Note_on_c, 0, 58, 25
1, 240957, Note_on_c, 0, 78, 44
1, 240963, Note_off_c, 0, 66, 63
1, 240966, Control_c, 0, 64, 75
1, 240969, Note_off_c, 0, 56, 57
1, 240981, Control_c, 0, 64, 77
1, 240983, Note_off_c, 0, 78, 57
1, 240995, Control_c, 0, 64, 79
1, 241010, Control_c, 0, 64, 82
1, 241012, Note_off_c, 0, 58, 0
1, 241014, Note_on_c, 0, 65, 67
1, 241020, Note_on_c, 0, 66, 70
1, 241022, Note_on_c, 0, 71, 48
1, 241025, Control_c, 0, 64, 84
1, 241039, Note_on_c, 0, 58, 8
1, 241040, Control_c, 0, 64, 86
1, 241040, Note_on_c, 0, 56, 22
1, 241040, Note_off_c, 0, 65, 67
1, 241040, Note_off_c, 0, 66, 66
1, 241046, Note_on_c, 0, 74, 22
1, 241046, Note_off_c, 0, 71, 63
1, 241050, Note_on_c, 0, 78, 33
1, 241055, Control_c, 0, 64, 87
1, 241076, Note_off_c, 0, 58, 0
1, 241103, Note_on_c, 0, 65, 71
1, 241104, Note_off_c, 0, 78, 0
1, 241105, Note_off_c, 0, 56, 0
1, 241105, Note_on_c, 0, 56, 34
1, 241105, Note_on_c, 0, 58, 34
1, 241108, Note_on_c, 0, 66, 72
1, 241119, Note_on_c, 0, 78, 40
1, 241121, Note_off_c, 0, 65, 63
1, 241124, Note_on_c, 0, 71, 48
1, 241126, Note_off_c, 0, 66, 69
1, 241135, Note_off_c, 0, 56, 60
1, 241139, Note_off_c, 0, 58, 63
1, 241148, Note_off_c, 0, 78, 57
1, 241148, Note_off_c, 0, 71, 60
1, 241160, Control_c, 0, 64, 86
1, 241179, Note_off_c, 0, 74, 0
1, 241186, Note_on_c, 0, 65, 70
1, 241187, Note_on_c, 0, 66, 76
1, 241203, Note_on_c, 0, 78, 62
1, 241213, Note_off_c, 0, 66, 67
1, 241213, Note_off_c, 0, 65, 65
1, 241214, Note_on_c, 0, 71, 66
1, 241216, Note_on_c, 0, 56, 37
1, 241216, Poly_aftertouch_c, 0, 74, 127
1, 241217, Note_on_c, 0, 58, 38
1, 241225, Note_off_c, 0, 78, 59
1, 241230, Note_off_c, 0, 71, 70
1, 241245, Note_off_c, 0, 56, 56
1, 241269, Poly_aftertouch_c, 0, 74, 0
1, 241276, Note_on_c, 0, 66, 82
1, 241278, Control_c, 0, 64, 85
1, 241279, Note_off_c, 0, 58, 0
1, 241280, Note_on_c, 0, 65, 75
1, 241281, Poly_aftertouch_c, 0, 74, 0
1, 241282, Note_on_c, 0, 78, 79
1, 241289, Note_on_c, 0, 71, 69
1, 241292, Control_c, 0, 64, 82
1, 241294, Note_on_c, 0, 56, 36
1, 241296, Note_off_c, 0, 65, 65
1, 241300, Note_on_c, 0, 58, 28
1, 241300, Note_on_c, 0, 74, 44
1, 241303, Note_off_c, 0, 66, 60
1, 241305, Note_off_c, 0, 78, 54
1, 241307, Control_c, 0, 64, 79
1, 241310, Note_off_c, 0, 71, 72
1, 241329, Control_c, 0, 64, 78
1, 241332, Note_off_c, 0, 74, 59
1, 241334, Note_off_c, 0, 56, 50
1, 241334, Note_off_c, 0, 58, 52
1, 241365, Note_on_c, 0, 65, 75
1, 241381, Note_on_c, 0, 66, 78
1, 241385, Note_on_c, 0, 78, 66
1, 241389, Note_on_c, 0, 56, 49
1, 241389, Note_on_c, 0, 58, 52
1, 241396, Note_off_c, 0, 65, 61
1, 241400, Note_on_c, 0, 71, 62
1, 241402, Note_off_c, 0, 66, 69
1, 241405, Note_on_c, 0, 74, 58
1, 241406, Note_off_c, 0, 78, 59
1, 241415, Note_off_c, 0, 56, 59
1, 241416, Note_off_c, 0, 58, 59
1, 241418, Note_off_c, 0, 71, 67
1, 241419, Control_c, 0, 64, 78
1, 241425, Note_off_c, 0, 74, 64
1, 241434, Control_c, 0, 64, 76
1, 241448, Control_c, 0, 64, 70
1, 241463, Control_c, 0, 64, 67
1, 241465, Note_on_c, 0, 65, 70
1, 241468, Note_on_c, 0, 66, 77
1, 241478, Control_c, 0, 64, 68
1, 241480, Note_on_c, 0, 78, 57
1, 241485, Note_on_c, 0, 71, 64
1, 241487, Note_on_c, 0, 56, 45
1, 241489, Note_off_c, 0, 65, 70
1, 241489, Note_off_c, 0, 66, 66
1, 241493, Control_c, 0, 64, 70
1, 241499, Note_on_c, 0, 74, 53
1, 241504, Note_off_c, 0, 78, 56
1, 241507, Control_c, 0, 64, 72
1, 241512, Note_off_c, 0, 56, 59
1, 241513, Note_off_c, 0, 71, 68
1, 241515, Note_on_c, 0, 58, 4
1, 241522, Control_c, 0, 64, 72
1, 241523, Note_off_c, 0, 74, 60
1, 241552, Control_c, 0, 64, 72
1, 241567, Control_c, 0, 64, 71
1, 241568, Note_on_c, 0, 66, 75
1, 241570, Note_on_c, 0, 65, 65
1, 241583, Note_on_c, 0, 78, 47
1, 241583, Note_on_c, 0, 56, 46
1, 241583, Note_on_c, 0, 71, 61
1, 241589, Note_off_c, 0, 66, 69
1, 241589, Note_off_c, 0, 65, 65
1, 241596, Control_c, 0, 64, 71
1, 241607, Note_off_c, 0, 78, 58
1, 241610, Note_off_c, 0, 56, 59
1, 241610, Note_off_c, 0, 58, 40
1, 241610, Note_off_c, 0, 71, 66
1, 241611, Note_on_c, 0, 74, 31
1, 241625, Control_c, 0, 64, 70
1, 241647, Note_off_c, 0, 74, 31
1, 241665, Note_on_c, 0, 66, 65
1, 241669, Note_on_c, 0, 65, 48
1, 241675, Note_on_c, 0, 78, 60
1, 241681, Note_on_c, 0, 71, 54
1, 241685, Control_c, 0, 64, 71
1, 241686, Note_off_c, 0, 66, 65
1, 241690, Note_off_c, 0, 65, 63
1, 241699, Note_off_c, 0, 71, 66
1, 241699, Control_c, 0, 64, 71
1, 241702, Note_off_c, 0, 78, 53
1, 241714, Control_c, 0, 64, 72
1, 241759, Control_c, 0, 64, 72
1, 241763, Note_on_c, 0, 65, 50
1, 241767, Note_on_c, 0, 66, 54
1, 241772, Note_on_c, 0, 78, 62
1, 241774, Poly_aftertouch_c, 0, 56, 127
1, 241774, Control_c, 0, 64, 73
1, 241783, Note_on_c, 0, 71, 44
1, 241788, Note_off_c, 0, 65, 56
1, 241789, Note_off_c, 0, 66, 62
1, 241789, Control_c, 0, 64, 75
1, 241797, Poly_aftertouch_c, 0, 58, 127
1, 241802, Note_off_c, 0, 78, 51
1, 241803, Control_c, 0, 64, 77
1, 241809, Note_off_c, 0, 71, 59
1, 241815, Poly_aftertouch_c, 0, 56, 0
1, 241818, Control_c, 0, 64, 78
1, 241833, Control_c, 0, 64, 78
1, 241848, Control_c, 0, 64, 79
1, 241863, Control_c, 0, 64, 80
1, 241869, Note_on_c, 0, 65, 46
1, 241869, Note_on_c, 0, 66, 52
1, 241878, Control_c, 0, 64, 82
1, 241890, Note_off_c, 0, 66, 61
1, 241890, Note_on_c, 0, 71, 42
1, 241893, Control_c, 0, 64, 83
1, 241893, Note_off_c, 0, 65, 60
1, 241904, Note_on_c, 0, 78, 10
1, 241907, Control_c, 0, 64, 84
1, 241914, Note_off_c, 0, 71, 59
1, 241922, Control_c, 0, 64, 84
1, 241946, Note_off_c, 0, 78, 0
1, 241952, Control_c, 0, 64, 85
1, 241967, Note_on_c, 0, 65, 55
1, 241967, Poly_aftertouch_c, 0, 58, 0
1, 241967, Control_c, 0, 64, 86
1, 241973, Note_on_c, 0, 78, 47
1, 241982, Control_c, 0, 64, 86
1, 241991, Note_off_c, 0, 65, 59
1, 242009, Note_off_c, 0, 78, 65
1, 242012, Control_c, 0, 64, 84
1, 242027, Control_c, 0, 64, 80
1, 242042, Control_c, 0, 64, 73
1, 242056, Control_c, 0, 64, 68
1, 242093, Control_c, 0, 64, 69
1, 242097, Note_on_c, 0, 80, 63
1, 242100, Note_on_c, 0, 62, 37
1, 242108, Poly_aftertouch_c, 0, 58, 0
1, 242108, Control_c, 0, 64, 70
1, 242111, Note_on_c, 0, 69, 40
1, 242113, Note_off_c, 0, 80, 67
1, 242123, Control_c, 0, 64, 71
1, 242131, Note_off_c, 0, 62, 53
1, 242137, Control_c, 0, 64, 72
1, 242141, Note_off_c, 0, 69, 34
1, 242152, Control_c, 0, 64, 73
1, 242167, Control_c, 0, 64, 75
1, 242180, Note_on_c, 0, 53, 32
1, 242182, Control_c, 0, 64, 77
1, 242191, Note_on_c, 0, 80, 62
1, 242197, Control_c, 0, 64, 79
1, 242197, Note_on_c, 0, 76, 42
1, 242200, Note_on_c, 0, 69, 44
1, 242206, Note_on_c, 0, 58, 22
1, 242207, Note_off_c, 0, 80, 64
1, 242209, Note_on_c, 0, 62, 15
1, 242212, Control_c, 0, 64, 80
1, 242215, Note_off_c, 0, 53, 57
1, 242226, Note_off_c, 0, 76, 51
1, 242227, Note_off_c, 0, 69, 58
1, 242227, Control_c, 0, 64, 81
1, 242242, Control_c, 0, 64, 82
1, 242248, Note_off_c, 0, 58, 42
1, 242248, Note_off_c, 0, 62, 29
1, 242256, Control_c, 0, 64, 84
1, 242271, Control_c, 0, 64, 85
1, 242277, Note_on_c, 0, 80, 70
1, 242286, Control_c, 0, 64, 87
1, 242286, Note_on_c, 0, 53, 58
1, 242298, Note_on_c, 0, 69, 53
1, 242301, Control_c, 0, 64, 89
1, 242304, Note_off_c, 0, 80, 63
1, 242314, Note_off_c, 0, 53, 59
1, 242320, Note_off_c, 0, 69, 59
1, 242358, Poly_aftertouch_c, 0, 76, 0
1, 242373, Note_on_c, 0, 80, 72
1, 242379, Note_on_c, 0, 69, 58
1, 242385, Poly_aftertouch_c, 0, 62, 127
1, 242388, Poly_aftertouch_c, 0, 76, 0
1, 242396, Note_on_c, 0, 58, 28
1, 242397, Note_off_c, 0, 80, 60
1, 242398, Note_off_c, 0, 69, 64
1, 242404, Control_c, 0, 64, 88
1, 242419, Control_c, 0, 64, 85
1, 242434, Control_c, 0, 64, 79
1, 242448, Control_c, 0, 64, 72
1, 242459, Poly_aftertouch_c, 0, 53, 0
1, 242463, Control_c, 0, 64, 70
1, 242465, Note_on_c, 0, 52, 51
1, 242471, Note_on_c, 0, 83, 64
1, 242478, Control_c, 0, 64, 71
1, 242486, Note_on_c, 0, 71, 42
1, 242487, Note_off_c, 0, 83, 65
1, 242492, Note_on_c, 0, 78, 34
1, 242492, Note_off_c, 0, 58, 27
1, 242493, Note_off_c, 0, 52, 56
1, 242493, Control_c, 0, 64, 73
1, 242504, Poly_aftertouch_c, 0, 62, 0
1, 242508, Control_c, 0, 64, 74
1, 242512, Note_off_c, 0, 71, 58
1, 242522, Note_off_c, 0, 78, 48
1, 242522, Control_c, 0, 64, 75
1, 242537, Control_c, 0, 64, 76
1, 242564, Note_on_c, 0, 52, 54
1, 242564, Note_on_c, 0, 83, 53
1, 242565, Note_on_c, 0, 62, 33
1, 242567, Control_c, 0, 64, 77
1, 242582, Control_c, 0, 64, 78
1, 242587, Note_on_c, 0, 71, 17
1, 242590, Note_off_c, 0, 52, 57
1, 242596, Note_on_c, 0, 78, 13
1, 242596, Control_c, 0, 64, 79
1, 242598, Note_off_c, 0, 62, 46
1, 242611, Control_c, 0, 64, 80
1, 242618, Note_off_c, 0, 83, 0
1, 242626, Control_c, 0, 64, 81
1, 242632, Note_on_c, 0, 83, 48
1, 242641, Control_c, 0, 64, 82
1, 242659, Note_off_c, 0, 83, 56
1, 242660, Note_on_c, 0, 62, 39
1, 242671, Note_on_c, 0, 58, 32
1, 242671, Control_c, 0, 64, 82
1, 242682, Note_off_c, 0, 78, 60
1, 242692, Note_off_c, 0, 62, 52
1, 242698, Note_off_c, 0, 71, 46
1, 242701, Control_c, 0, 64, 83
1, 242707, Note_off_c, 0, 58, 49
1, 242725, Poly_aftertouch_c, 0, 71, 0
1, 242730, Note_on_c, 0, 53, 60
1, 242730, Control_c, 0, 64, 83
1, 242735, Note_on_c, 0, 76, 68
1, 242736, Note_on_c, 0, 62, 57
1, 242745, Control_c, 0, 64, 84
1, 242748, Note_on_c, 0, 73, 52
1, 242757, Note_on_c, 0, 71, 6
1, 242763, Note_off_c, 0, 62, 54
1, 242764, Note_off_c, 0, 76, 63
1, 242766, Note_off_c, 0, 53, 63
1, 242772, Note_off_c, 0, 73, 60
1, 242775, Control_c, 0, 64, 83
1, 242790, Control_c, 0, 64, 82
1, 242798, Note_off_c, 0, 71, 0
1, 242805, Control_c, 0, 64, 81
1, 242837, Note_on_c, 0, 62, 59
1, 242837, Note_on_c, 0, 76, 61
1, 242849, Note_on_c, 0, 53, 41
1, 242851, Note_on_c, 0, 58, 24
1, 242856, Note_off_c, 0, 62, 62
1, 242859, Note_off_c, 0, 76, 65
1, 242862, Note_on_c, 0, 73, 29
1, 242873, Poly_aftertouch_c, 0, 71, 0
1, 242878, Note_off_c, 0, 53, 56
1, 242879, Note_off_c, 0, 58, 53
1, 242900, Note_off_c, 0, 73, 53
1, 242901, Control_c, 0, 64, 81
1, 242916, Control_c, 0, 64, 79
1, 242925, Note_on_c, 0, 52, 69
1, 242928, Note_on_c, 0, 62, 56
1, 242929, Note_on_c, 0, 83, 73
1, 242931, Control_c, 0, 64, 76
1, 242943, Note_on_c, 0, 71, 48
1, 242946, Control_c, 0, 64, 75
1, 242947, Note_off_c, 0, 83, 62
1, 242953, Note_off_c, 0, 62, 57
1, 242954, Note_off_c, 0, 52, 58
1, 242960, Note_on_c, 0, 78, 27
1, 242960, Control_c, 0, 64, 76
1, 242966, Note_off_c, 0, 71, 37
1, 242975, Control_c, 0, 64, 76
1, 242990, Control_c, 0, 64, 78
1, 243005, Control_c, 0, 64, 78
1, 243014, Note_on_c, 0, 83, 73
1, 243020, Control_c, 0, 64, 79
1, 243025, Note_on_c, 0, 62, 52
1, 243027, Note_off_c, 0, 78, 0
1, 243027, Note_on_c, 0, 78, 35
1, 243031, Note_on_c, 0, 58, 28
1, 243031, Note_off_c, 0, 83, 62
1, 243035, Control_c, 0, 64, 80
1, 243044, Note_off_c, 0, 62, 64
1, 243049, Note_on_c, 0, 71, 30
1, 243049, Control_c, 0, 64, 82
1, 243055, Note_on_c, 0, 52, 3
1, 243056, Note_off_c, 0, 78, 53
1, 243063, Note_off_c, 0, 58, 49
1, 243064, Control_c, 0, 64, 83
1, 243079, Control_c, 0, 64, 84
1, 243082, Note_off_c, 0, 71, 50
1, 243094, Note_off_c, 0, 52, 38
1, 243094, Control_c, 0, 64, 85
1, 243108, Note_on_c, 0, 62, 65
1, 243109, Control_c, 0, 64, 85
1, 243120, Note_on_c, 0, 76, 68
1, 243121, Note_on_c, 0, 53, 9
1, 243124, Control_c, 0, 64, 86
1, 243125, Note_on_c, 0, 73, 59
1, 243130, Note_on_c, 0, 58, 54
1, 243145, Note_off_c, 0, 73, 63
1, 243145, Note_off_c, 0, 76, 66
1, 243153, Control_c, 0, 64, 87
1, 243159, Note_off_c, 0, 58, 65
1, 243168, Control_c, 0, 64, 87
1, 243181, Note_off_c, 0, 62, 0
1, 243183, Control_c, 0, 64, 88
1, 243193, Note_on_c, 0, 62, 48
1, 243198, Control_c, 0, 64, 88
1, 243202, Note_on_c, 0, 76, 77
1, 243203, Note_on_c, 0, 71, 27
1, 243205, Note_on_c, 0, 73, 72
1, 243213, Note_off_c, 0, 53, 0
1, 243213, Note_on_c, 0, 53, 15
1, 243222, Note_off_c, 0, 76, 68
1, 243230, Note_off_c, 0, 73, 68
1, 243233, Note_off_c, 0, 71, 52
1, 243235, Note_off_c, 0, 62, 60
1, 243242, Control_c, 0, 64, 86
1, 243244, Note_off_c, 0, 53, 53
1, 243257, Control_c, 0, 64, 77
1, 243271, Control_c, 0, 64, 66
1, 243286, Control_c, 0, 64, 64
1, 243301, Control_c, 0, 64, 67
1, 243302, Note_on_c, 0, 71, 75
1, 243312, Note_on_c, 0, 49, 54
1, 243314, Note_on_c, 0, 83, 63
1, 243316, Control_c, 0, 64, 69
1, 243317, Note_on_c, 0, 62, 42
1, 243317, Note_on_c, 0, 78, 62
1, 243324, Note_off_c, 0, 71, 70
1, 243331, Note_off_c, 0, 83, 65
1, 243331, Control_c, 0, 64, 71
1, 243336, Note_off_c, 0, 78, 65
1, 243341, Note_off_c, 0, 49, 58
1, 243344, Note_off_c, 0, 62, 57
1, 243345, Control_c, 0, 64, 74
1, 243360, Control_c, 0, 64, 76
1, 243375, Control_c, 0, 64, 77
1, 243389, Control_c, 0, 64, 78
1, 243398, Note_on_c, 0, 71, 73
1, 243399, Note_on_c, 0, 56, 66
1, 243400, Note_on_c, 0, 78, 73
1, 243403, Note_on_c, 0, 83, 63
1, 243419, Note_off_c, 0, 71, 72
1, 243420, Control_c, 0, 64, 79
1, 243421, Note_off_c, 0, 83, 64
1, 243422, Note_off_c, 0, 78, 70
1, 243426, Note_off_c, 0, 56, 67
1, 243435, Control_c, 0, 64, 81
1, 243450, Control_c, 0, 64, 83
1, 243464, Control_c, 0, 64, 85
1, 243479, Note_on_c, 0, 56, 80
1, 243493, Note_on_c, 0, 83, 68
1, 243497, Note_on_c, 0, 71, 76
1, 243505, Note_on_c, 0, 78, 69
1, 243508, Note_off_c, 0, 56, 63
1, 243509, Note_off_c, 0, 83, 66
1, 243509, Control_c, 0, 64, 86
1, 243511, Note_off_c, 0, 71, 73
1, 243520, Note_off_c, 0, 78, 68
1, 243524, Control_c, 0, 64, 87
1, 243525, Poly_aftertouch_c, 0, 49, 127
1, 243536, Poly_aftertouch_c, 0, 62, 0
1, 243540, Control_c, 0, 64, 88
1, 243583, Poly_aftertouch_c, 0, 49, 0
1, 243589, Note_on_c, 0, 71, 64
1, 243592, Note_on_c, 0, 62, 50
1, 243598, Note_on_c, 0, 83, 65
1, 243600, Note_on_c, 0, 78, 66
1, 243606, Note_on_c, 0, 56, 49
1, 243607, Control_c, 0, 64, 88
1, 243611, Note_on_c, 0, 49, 9
1, 243613, Note_off_c, 0, 71, 68
1, 243618, Note_off_c, 0, 62, 55
1, 243619, Note_off_c, 0, 83, 64
1, 243622, Control_c, 0, 64, 89
1, 243623, Note_off_c, 0, 78, 69
1, 243629, Note_off_c, 0, 56, 60
1, 243637, Control_c, 0, 64, 90
1, 243651, Control_c, 0, 64, 89
1, 243666, Control_c, 0, 64, 86
1, 243681, Control_c, 0, 64, 78
1, 243682, Note_on_c, 0, 62, 61
1, 243684, Note_on_c, 0, 57, 57
1, 243695, Control_c, 0, 64, 70
1, 243698, Note_on_c, 0, 71, 75
1, 243699, Note_on_c, 0, 83, 63
1, 243700, Note_off_c, 0, 62, 65
1, 243705, Note_on_c, 0, 78, 68
1, 243707, Note_off_c, 0, 57, 63
1, 243710, Control_c, 0, 64, 68
1, 243711, Note_off_c, 0, 71, 73
1, 243716, Note_off_c, 0, 83, 67
1, 243717, Note_off_c, 0, 49, 29
1, 243722, Note_off_c, 0, 78, 68
1, 243725, Control_c, 0, 64, 71
1, 243740, Control_c, 0, 64, 73
1, 243755, Control_c, 0, 64, 76
1, 243766, Note_on_c, 0, 62, 69
1, 243770, Control_c, 0, 64, 79
1, 243775, Note_on_c, 0, 57, 65
1, 243784, Control_c, 0, 64, 83
1, 243785, Note_on_c, 0, 71, 63
1, 243788, Note_off_c, 0, 62, 63
1, 243796, Note_on_c, 0, 83, 60
1, 243799, Note_on_c, 0, 78, 65
1, 243799, Control_c, 0, 64, 87
1, 243804, Note_off_c, 0, 57, 65
1, 243806, Note_off_c, 0, 71, 71
1, 243814, Control_c, 0, 64, 90
1, 243815, Note_off_c, 0, 83, 63
1, 243816, Note_off_c, 0, 78, 68
1, 243828, Control_c, 0, 64, 91
1, 243843, Control_c, 0, 64, 91
1, 243858, Control_c, 0, 64, 92
1, 243873, Control_c, 0, 64, 93
1, 243874, Note_on_c, 0, 57, 65
1, 243878, Note_on_c, 0, 62, 51
1, 243888, Control_c, 0, 64, 96
1, 243893, Note_on_c, 0, 71, 60
1, 243895, Note_on_c, 0, 83, 46
1, 243899, Note_off_c, 0, 57, 67
1, 243902, Control_c, 0, 64, 98
1, 243904, Note_off_c, 0, 62, 56
1, 243906, Note_on_c, 0, 78, 40
1, 243912, Note_off_c, 0, 71, 63
1, 243917, Note_off_c, 0, 83, 60
1, 243917, Control_c, 0, 64, 100
1, 243942, Note_off_c, 0, 78, 0
1, 243957, Note_on_c, 0, 49, 55
1, 243957, Note_on_c, 0, 78, 56
1, 243960, Note_on_c, 0, 71, 60
1, 243962, Note_on_c, 0, 62, 62
1, 243962, Control_c, 0, 64, 100
1, 243977, Control_c, 0, 64, 101
1, 243977, Note_off_c, 0, 62, 66
1, 243977, Note_off_c, 0, 71, 66
1, 243980, Note_on_c, 0, 57, 32
1, 243985, Note_off_c, 0, 78, 66
1, 243991, Control_c, 0, 64, 100
1, 243997, Note_off_c, 0, 49, 63
1, 244006, Control_c, 0, 64, 94
1, 244018, Note_off_c, 0, 57, 51
1, 244021, Control_c, 0, 64, 82
1, 244036, Control_c, 0, 64, 68
1, 244051, Control_c, 0, 64, 62
1, 244061, Note_on_c, 0, 59, 72
1, 244061, Note_on_c, 0, 64, 82
1, 244066, Control_c, 0, 64, 65
1, 244069, Note_on_c, 0, 48, 58
1, 244074, Note_on_c, 0, 76, 55
1, 244081, Note_off_c, 0, 64, 73
1, 244081, Control_c, 0, 64, 68
1, 244084, Note_off_c, 0, 59, 68
1, 244086, Note_on_c, 0, 54, 41
1, 244093, Note_off_c, 0, 48, 59
1, 244094, Note_off_c, 0, 76, 61
1, 244095, Control_c, 0, 64, 71
1, 244110, Control_c, 0, 64, 75
1, 244116, Note_off_c, 0, 54, 55
1, 244125, Control_c, 0, 64, 78
1, 244140, Control_c, 0, 64, 81
1, 244147, Poly_aftertouch_c, 0, 74, 0
1, 244153, Note_on_c, 0, 64, 78
1, 244155, Note_on_c, 0, 76, 77
1, 244155, Control_c, 0, 64, 83
1, 244164, Note_on_c, 0, 48, 58
1, 244164, Note_on_c, 0, 59, 58
1, 244164, Note_on_c, 0, 74, 43
1, 244169, Control_c, 0, 64, 83
1, 244176, Note_off_c, 0, 76, 59
1, 244179, Note_off_c, 0, 64, 68
1, 244181, Note_off_c, 0, 59, 64
1, 244185, Note_off_c, 0, 48, 59
1, 244188, Note_off_c, 0, 74, 61
1, 244209, Note_on_c, 0, 54, 13
1, 244253, Note_on_c, 0, 64, 59
1, 244255, Note_on_c, 0, 59, 63
1, 244258, Note_on_c, 0, 74, 72
1, 244259, Note_on_c, 0, 76, 56
1, 244264, Note_on_c, 0, 48, 53
1, 244275, Note_off_c, 0, 64, 66
1, 244280, Note_off_c, 0, 76, 61
1, 244284, Note_off_c, 0, 74, 68
1, 244286, Note_off_c, 0, 48, 59
1, 244287, Note_off_c, 0, 59, 63
1, 244331, Note_off_c, 0, 54, 0
1, 244355, Note_on_c, 0, 64, 77
1, 244367, Note_on_c, 0, 76, 56
1, 244370, Poly_aftertouch_c, 0, 54, 127
1, 244370, Control_c, 0, 64, 80
1, 244372, Note_on_c, 0, 54, 11
1, 244374, Note_off_c, 0, 64, 72
1, 244377, Note_on_c, 0, 59, 44
1, 244385, Control_c, 0, 64, 71
1, 244387, Note_off_c, 0, 76, 63
1, 244389, Note_on_c, 0, 74, 39
1, 244397, Note_off_c, 0, 54, 56
1, 244400, Control_c, 0, 64, 42
1, 244402, Note_off_c, 0, 59, 57
1, 244415, Note_off_c, 0, 74, 36
1, 244415, Control_c, 0, 64, 0
1, 244444, Control_c, 0, 64, 43
1, 244453, Note_on_c, 0, 74, 76
1, 244456, Note_on_c, 0, 52, 60
1, 244456, Note_on_c, 0, 69, 65
1, 244459, Note_on_c, 0, 56, 70
1, 244459, Control_c, 0, 64, 61
1, 244474, Note_off_c, 0, 74, 66
1, 244474, Control_c, 0, 64, 66
1, 244475, Note_off_c, 0, 69, 65
1, 244477, Note_on_c, 0, 66, 35
1, 244478, Note_off_c, 0, 66, 127
1, 244486, Note_off_c, 0, 56, 64
1, 244488, Note_off_c, 0, 52, 64
1, 244489, Control_c, 0, 64, 70
1, 244504, Control_c, 0, 64, 72
1, 244518, Control_c, 0, 64, 75
1, 244533, Control_c, 0, 64, 77
1, 244536, Note_on_c, 0, 74, 69
1, 244541, Note_on_c, 0, 69, 63
1, 244548, Control_c, 0, 64, 79
1, 244554, Note_on_c, 0, 66, 35
1, 244557, Note_on_c, 0, 56, 47
1, 244560, Note_off_c, 0, 69, 65
1, 244563, Note_on_c, 0, 52, 52
1, 244563, Control_c, 0, 64, 79
1, 244568, Note_off_c, 0, 74, 61
1, 244578, Control_c, 0, 64, 80
1, 244582, Note_off_c, 0, 56, 59
1, 244584, Note_off_c, 0, 66, 51
1, 244588, Note_off_c, 0, 52, 58
1, 244593, Control_c, 0, 64, 81
1, 244607, Control_c, 0, 64, 82
1, 244622, Control_c, 0, 64, 83
1, 244637, Control_c, 0, 64, 83
1, 244647, Note_on_c, 0, 66, 54
1, 244653, Note_on_c, 0, 74, 38
1, 244660, Note_on_c, 0, 56, 37
1, 244666, Control_c, 0, 64, 84
1, 244671, Note_off_c, 0, 66, 59
1, 244672, Note_on_c, 0, 52, 33
1, 244681, Control_c, 0, 64, 84
1, 244683, Note_off_c, 0, 74, 54
1, 244694, Note_off_c, 0, 56, 52
1, 244696, Control_c, 0, 64, 85
1, 244698, Note_off_c, 0, 52, 58
1, 244725, Control_c, 0, 64, 85
1, 244731, Note_on_c, 0, 66, 69
1, 244740, Note_on_c, 0, 69, 17
1, 244740, Control_c, 0, 64, 86
1, 244748, Note_off_c, 0, 66, 67
1, 244749, Note_on_c, 0, 56, 34
1, 244755, Note_on_c, 0, 48, 11
1, 244755, Control_c, 0, 64, 86
1, 244770, Control_c, 0, 64, 87
1, 244776, Note_off_c, 0, 48, 0
1, 244777, Note_off_c, 0, 69, 43
1, 244785, Control_c, 0, 64, 87
1, 244797, Poly_aftertouch_c, 0, 52, 127
1, 244799, Control_c, 0, 64, 88
1, 244805, Note_off_c, 0, 56, 0
1, 244811, Note_on_c, 0, 70, 86
1, 244813, Poly_aftertouch_c, 0, 48, 127
1, 244814, Control_c, 0, 64, 90
1, 244819, Note_on_c, 0, 56, 51
1, 244825, Note_on_c, 0, 66, 57
1, 244829, Control_c, 0, 64, 91
1, 244843, Note_off_c, 0, 70, 65
1, 244844, Control_c, 0, 64, 92
1, 244844, Note_off_c, 0, 66, 65
1, 244846, Note_off_c, 0, 56, 66
1, 244859, Control_c, 0, 64, 93
1, 244874, Poly_aftertouch_c, 0, 52, 0
1, 244879, Poly_aftertouch_c, 0, 48, 0
1, 244917, Control_c, 0, 64, 88
1, 244932, Control_c, 0, 64, 75
1, 244947, Control_c, 0, 64, 46
1, 244952, Note_on_c, 0, 55, 74
1, 244960, Note_on_c, 0, 64, 59
1, 244961, Note_on_c, 0, 48, 61
1, 244962, Control_c, 0, 64, 27
1, 244967, Note_on_c, 0, 41, 45
1, 244970, Note_on_c, 0, 57, 37
1, 244977, Control_c, 0, 64, 55
1, 244979, Note_off_c, 0, 55, 69
1, 244981, Note_off_c, 0, 64, 63
1, 244987, Note_off_c, 0, 48, 59
1, 244991, Control_c, 0, 64, 61
1, 244999, Note_off_c, 0, 41, 52
1, 244999, Note_off_c, 0, 57, 53
1, 245006, Control_c, 0, 64, 64
1, 245021, Control_c, 0, 64, 67
1, 245036, Control_c, 0, 64, 70
1, 245044, Note_on_c, 0, 48, 70
1, 245046, Note_on_c, 0, 55, 59
1, 245050, Control_c, 0, 64, 72
1, 245072, Note_on_c, 0, 64, 35
1, 245073, Control_c, 0, 64, 74
1, 245077, Note_off_c, 0, 48, 64
1, 245079, Note_off_c, 0, 55, 57
1, 245088, Note_on_c, 0, 57, 7
1, 245088, Control_c, 0, 64, 76
1, 245091, Note_on_c, 0, 41, 5
1, 245101, Note_off_c, 0, 64, 54
1, 245103, Control_c, 0, 64, 76
1, 245148, Control_c, 0, 64, 78
1, 245150, Note_on_c, 0, 55, 62
1, 245154, Note_on_c, 0, 48, 54
1, 245163, Control_c, 0, 64, 79
1, 245163, Note_off_c, 0, 57, 23
1, 245172, Note_off_c, 0, 55, 60
1, 245178, Control_c, 0, 64, 80
1, 245190, Note_off_c, 0, 48, 46
1, 245222, Control_c, 0, 64, 80
1, 245236, Note_off_c, 0, 41, 0
1, 245236, Note_on_c, 0, 41, 14
1, 245237, Note_on_c, 0, 55, 70
1, 245242, Poly_aftertouch_c, 0, 64, 127
1, 245247, Note_on_c, 0, 60, 42
1, 245252, Control_c, 0, 64, 80
1, 245254, Note_on_c, 0, 48, 41
1, 245255, Note_off_c, 0, 55, 67
1, 245262, Note_on_c, 0, 57, 19
1, 245266, Control_c, 0, 64, 76
1, 245269, Poly_aftertouch_c, 0, 64, 0
1, 245276, Note_off_c, 0, 60, 64
1, 245279, Note_off_c, 0, 41, 52
1, 245281, Control_c, 0, 64, 71
1, 245282, Note_off_c, 0, 48, 53
1, 245296, Control_c, 0, 64, 65
1, 245302, Note_off_c, 0, 57, 29
1, 245311, Control_c, 0, 64, 64
1, 245326, Control_c, 0, 64, 66
1, 245328, Note_on_c, 0, 47, 64
1, 245336, Note_on_c, 0, 54, 72
1, 245340, Control_c, 0, 64, 67
1, 245345, Note_on_c, 0, 44, 42
1, 245351, Note_on_c, 0, 60, 54
1, 245354, Note_off_c, 0, 54, 67
1, 245355, Note_off_c, 0, 47, 67
1, 245355, Control_c, 0, 64, 68
1, 245370, Control_c, 0, 64, 70
1, 245376, Note_off_c, 0, 44, 51
1, 245377, Note_off_c, 0, 60, 59
1, 245385, Control_c, 0, 64, 72
1, 245400, Control_c, 0, 64, 74
1, 245414, Control_c, 0, 64, 76
1, 245417, Note_on_c, 0, 54, 68
1, 245425, Note_on_c, 0, 47, 58
1, 245429, Control_c, 0, 64, 78
1, 245442, Note_off_c, 0, 54, 67
1, 245444, Control_c, 0, 64, 79
1, 245446, Note_on_c, 0, 60, 47
1, 245452, Note_off_c, 0, 47, 66
1, 245459, Control_c, 0, 64, 78
1, 245471, Note_off_c, 0, 60, 59
1, 245473, Control_c, 0, 64, 76
1, 245488, Control_c, 0, 64, 72
1, 245503, Control_c, 0, 64, 70
1, 245517, Note_on_c, 0, 55, 73
1, 245518, Control_c, 0, 64, 70
1, 245519, Note_on_c, 0, 64, 72
1, 245526, Note_on_c, 0, 46, 62
1, 245531, Note_on_c, 0, 42, 49
1, 245533, Control_c, 0, 64, 71
1, 245544, Note_off_c, 0, 64, 68
1, 245544, Note_on_c, 0, 62, 43
1, 245547, Note_off_c, 0, 55, 65
1, 245547, Control_c, 0, 64, 72
1, 245549, Note_off_c, 0, 46, 59
1, 245560, Note_off_c, 0, 42, 57
1, 245562, Control_c, 0, 64, 73
1, 245572, Note_off_c, 0, 62, 55
1, 245577, Control_c, 0, 64, 74
1, 245584, Note_on_c, 0, 51, 3
1, 245592, Control_c, 0, 64, 74
1, 245603, Note_on_c, 0, 55, 81
1, 245607, Control_c, 0, 64, 75
1, 245615, Note_on_c, 0, 64, 63
1, 245622, Control_c, 0, 64, 75
1, 245634, Note_off_c, 0, 55, 65
1, 245637, Note_on_c, 0, 46, 41
1, 245637, Control_c, 0, 64, 76
1, 245640, Note_off_c, 0, 64, 59
1, 245640, Note_on_c, 0, 62, 45
1, 245651, Note_off_c, 0, 51, 49
1, 245664, Note_off_c, 0, 46, 53
1, 245670, Note_off_c, 0, 62, 54
1, 245696, Control_c, 0, 64, 76
1, 245703, Note_on_c, 0, 55, 65
1, 245714, Note_on_c, 0, 64, 55
1, 245723, Note_off_c, 0, 55, 63
1, 245737, Note_off_c, 0, 64, 61
1, 245740, Control_c, 0, 64, 77
1, 245744, Note_on_c, 0, 42, 41
1, 245750, Note_on_c, 0, 62, 21
1, 245753, Note_on_c, 0, 51, 25
1, 245755, Control_c, 0, 64, 78
1, 245770, Control_c, 0, 64, 79
1, 245777, Note_off_c, 0, 42, 64
1, 245783, Note_on_c, 0, 55, 68
1, 245785, Control_c, 0, 64, 80
1, 245791, Note_off_c, 0, 51, 44
1, 245798, Note_off_c, 0, 62, 0
1, 245817, Note_off_c, 0, 55, 64
1, 245822, Control_c, 0, 64, 77
1, 245822, Note_on_c, 0, 64, 40
1, 245837, Control_c, 0, 64, 69
1, 245846, Note_off_c, 0, 64, 61
1, 245852, Control_c, 0, 64, 26
1, 245866, Control_c, 0, 64, 0
1, 245881, Control_c, 0, 64, 19
1, 245884, Poly_aftertouch_c, 0, 62, 0
1, 245885, Note_on_c, 0, 46, 48
1, 245888, Note_on_c, 0, 37, 39
1, 245890, Note_on_c, 0, 57, 70
1, 245896, Control_c, 0, 64, 51
1, 245905, Note_on_c, 0, 60, 48
1, 245911, Control_c, 0, 64, 62
1, 245915, Note_on_c, 0, 64, 35
1, 245915, Note_off_c, 0, 46, 51
1, 245915, Note_off_c, 0, 57, 64
1, 245923, Note_off_c, 0, 37, 54
1, 245926, Control_c, 0, 64, 65
1, 245930, Note_off_c, 0, 60, 59
1, 245941, Control_c, 0, 64, 66
1, 245950, Note_off_c, 0, 64, 49
1, 245956, Control_c, 0, 64, 68
1, 245971, Control_c, 0, 64, 69
1, 245974, Note_on_c, 0, 57, 66
1, 245986, Control_c, 0, 64, 70
1, 245986, Note_on_c, 0, 60, 64
1, 246001, Control_c, 0, 64, 70
1, 246007, Note_off_c, 0, 57, 58
1, 246007, Note_on_c, 0, 46, 11
1, 246012, Note_off_c, 0, 60, 69
1, 246015, Control_c, 0, 64, 71
1, 246030, Control_c, 0, 64, 71
1, 246045, Control_c, 0, 64, 72
1, 246056, Note_off_c, 0, 46, 0
1, 246060, Control_c, 0, 64, 73
1, 246073, Poly_aftertouch_c, 0, 37, 127
1, 246075, Control_c, 0, 64, 74
1, 246080, Note_on_c, 0, 46, 22
1, 246081, Note_on_c, 0, 60, 55
1, 246099, Note_on_c, 0, 57, 36
1, 246099, Note_off_c, 0, 60, 66
1, 246104, Control_c, 0, 64, 75
1, 246112, Note_off_c, 0, 46, 47
1, 246119, Control_c, 0, 64, 75
1, 246123, Poly_aftertouch_c, 0, 39, 0
1, 246134, Control_c, 0, 64, 76
1, 246147, Poly_aftertouch_c, 0, 37, 0
1, 246149, Control_c, 0, 64, 76
1, 246155, Note_on_c, 0, 46, 63
1, 246159, Note_on_c, 0, 60, 67
1, 246163, Control_c, 0, 64, 78
1, 246178, Control_c, 0, 64, 79
1, 246180, Poly_aftertouch_c, 0, 64, 127
1, 246181, Note_off_c, 0, 46, 64
1, 246184, Note_off_c, 0, 60, 68
1, 246193, Control_c, 0, 64, 78
1, 246208, Control_c, 0, 64, 75
1, 246209, Note_off_c, 0, 57, 25
1, 246214, Poly_aftertouch_c, 0, 64, 0
1, 246222, Control_c, 0, 64, 70
1, 246237, Control_c, 0, 64, 64
1, 246242, Note_on_c, 0, 47, 63
1, 246245, Note_on_c, 0, 42, 68
1, 246263, Note_on_c, 0, 54, 59
1, 246267, Control_c, 0, 64, 66
1, 246270, Note_off_c, 0, 47, 66
1, 246272, Note_off_c, 0, 42, 66
1, 246274, Poly_aftertouch_c, 0, 39, 0
1, 246282, Control_c, 0, 64, 67
1, 246288, Note_off_c, 0, 54, 61
1, 246297, Control_c, 0, 64, 68
1, 246312, Control_c, 0, 64, 70
1, 246327, Control_c, 0, 64, 72
1, 246340, Note_on_c, 0, 42, 67
1, 246342, Control_c, 0, 64, 73
1, 246344, Poly_aftertouch_c, 0, 35, 0
1, 246349, Note_on_c, 0, 47, 52
1, 246350, Note_on_c, 0, 54, 66
1, 246357, Control_c, 0, 64, 74
1, 246367, Note_off_c, 0, 42, 64
1, 246371, Control_c, 0, 64, 75
1, 246373, Note_off_c, 0, 54, 65
1, 246386, Control_c, 0, 64, 75
1, 246387, Note_off_c, 0, 47, 49
1, 246401, Control_c, 0, 64, 76
1, 246430, Control_c, 0, 64, 76
1, 246441, Note_on_c, 0, 42, 52
1, 246441, Note_on_c, 0, 54, 62
1, 246469, Note_off_c, 0, 54, 66
1, 246473, Note_off_c, 0, 42, 62
1, 246475, Control_c, 0, 64, 77
1, 246489, Control_c, 0, 64, 77
1, 246507, Poly_aftertouch_c, 0, 47, 127
1, 246517, Poly_aftertouch_c, 0, 35, 127
1, 246519, Poly_aftertouch_c, 0, 62, 0
1, 246533, Note_on_c, 0, 42, 69
1, 246535, Note_on_c, 0, 54, 63
1, 246549, Control_c, 0, 64, 76
1, 246555, Poly_aftertouch_c, 0, 47, 0
1, 246557, Poly_aftertouch_c, 0, 62, 127
1, 246567, Note_off_c, 0, 42, 65
1, 246568, Note_off_c, 0, 54, 67
1, 246571, Control_c, 0, 64, 70
1, 246586, Control_c, 0, 64, 61
1, 246591, Poly_aftertouch_c, 0, 62, 0
1, 246593, Poly_aftertouch_c, 0, 35, 0
1, 246601, Control_c, 0, 64, 54
1, 246615, Control_c, 0, 64, 62
1, 246621, Note_on_c, 0, 42, 72
1, 246630, Note_on_c, 0, 54, 68
1, 246630, Control_c, 0, 64, 64
1, 246632, Note_on_c, 0, 35, 39
1, 246632, Note_on_c, 0, 45, 62
1, 246645, Control_c, 0, 64, 67
1, 246653, Note_off_c, 0, 42, 62
1, 246654, Note_on_c, 0, 62, 33
1, 246659, Note_off_c, 0, 54, 64
1, 246659, Note_off_c, 0, 45, 65
1, 246660, Control_c, 0, 64, 69
1, 246668, Note_off_c, 0, 35, 50
1, 246675, Control_c, 0, 64, 71
1, 246686, Note_off_c, 0, 62, 52
1, 246690, Control_c, 0, 64, 72
1, 246704, Control_c, 0, 64, 72
1, 246732, Note_on_c, 0, 54, 55
1, 246738, Note_on_c, 0, 42, 46
1, 246738, Note_on_c, 0, 45, 49
1, 246752, Note_off_c, 0, 54, 67
1, 246761, Note_off_c, 0, 45, 61
1, 246765, Control_c, 0, 64, 73
1, 246767, Note_off_c, 0, 42, 60
1, 246832, Note_on_c, 0, 54, 51
1, 246839, Note_on_c, 0, 45, 45
1, 246841, Note_on_c, 0, 42, 62
1, 246853, Control_c, 0, 64, 74
1, 246868, Control_c, 0, 64, 74
1, 246871, Note_off_c, 0, 45, 59
1, 246871, Note_off_c, 0, 54, 59
1, 246872, Poly_aftertouch_c, 0, 35, 127
1, 246876, Note_off_c, 0, 42, 60
1, 246883, Control_c, 0, 64, 75
1, 246898, Control_c, 0, 64, 75
1, 246913, Control_c, 0, 64, 76
1, 246923, Note_on_c, 0, 54, 57
1, 246928, Control_c, 0, 64, 76
1, 246931, Poly_aftertouch_c, 0, 35, 0
1, 246943, Control_c, 0, 64, 74
1, 246946, Note_on_c, 0, 62, 24
1, 246946, Note_on_c, 0, 35, 41
1, 246949, Note_on_c, 0, 45, 55
1, 246951, Note_off_c, 0, 54, 66
1, 246957, Control_c, 0, 64, 70
1, 246972, Control_c, 0, 64, 64
1, 246974, Note_off_c, 0, 62, 49
1, 246987, Control_c, 0, 64, 63
1, 247000, Note_on_c, 0, 40, 16
1, 247002, Control_c, 0, 64, 64
1, 247007, Note_off_c, 0, 45, 0
1, 247014, Note_on_c, 0, 55, 77
1, 247017, Control_c, 0, 64, 65
1, 247026, Note_on_c, 0, 64, 53
1, 247032, Control_c, 0, 64, 67
1, 247032, Note_off_c, 0, 35, 0
1, 247032, Note_on_c, 0, 35, 14
1, 247040, Note_off_c, 0, 55, 68
1, 247044, Poly_aftertouch_c, 0, 45, 127
1, 247046, Control_c, 0, 64, 69
1, 247050, Note_off_c, 0, 64, 61
1, 247061, Control_c, 0, 64, 71
1, 247065, Poly_aftertouch_c, 0, 45, 0
1, 247076, Control_c, 0, 64, 72
1, 247083, Note_off_c, 0, 35, 52
1, 247089, Note_off_c, 0, 40, 45
1, 247091, Control_c, 0, 64, 73
1, 247106, Control_c, 0, 64, 74
1, 247110, Note_on_c, 0, 55, 70
1, 247112, Note_on_c, 0, 64, 71
1, 247120, Control_c, 0, 64, 74
1, 247127, Note_on_c, 0, 62, 24
1, 247135, Control_c, 0, 64, 75
1, 247139, Note_off_c, 0, 55, 64
1, 247139, Note_off_c, 0, 64, 58
1, 247150, Control_c, 0, 64, 76
1, 247160, Note_off_c, 0, 62, 55
1, 247164, Control_c, 0, 64, 76
1, 247223, Note_on_c, 0, 55, 50
1, 247238, Control_c, 0, 64, 77
1, 247241, Note_off_c, 0, 55, 65
1, 247289, Note_on_c, 0, 45, 39
1, 247297, Note_on_c, 0, 55, 72
1, 247297, Control_c, 0, 64, 77
1, 247319, Control_c, 0, 64, 78
1, 247327, Poly_aftertouch_c, 0, 62, 127
1, 247329, Note_off_c, 0, 55, 64
1, 247330, Note_off_c, 0, 45, 51
1, 247334, Control_c, 0, 64, 77
1, 247349, Control_c, 0, 64, 74
1, 247364, Poly_aftertouch_c, 0, 62, 0
1, 247364, Control_c, 0, 64, 69
1, 247379, Control_c, 0, 64, 62
1, 247380, Poly_aftertouch_c, 0, 35, 0
1, 247393, Control_c, 0, 64, 59
1, 247404, Note_on_c, 0, 58, 71
1, 247406, Note_on_c, 0, 55, 50
1, 247408, Control_c, 0, 64, 62
1, 247417, Note_on_c, 0, 42, 50
1, 247421, Note_on_c, 0, 37, 40
1, 247423, Control_c, 0, 64, 64
1, 247428, Note_off_c, 0, 58, 68
1, 247430, Note_off_c, 0, 55, 59
1, 247437, Note_on_c, 0, 32, 15
1, 247438, Note_off_c, 0, 32, 127
1, 247438, Control_c, 0, 64, 66
1, 247448, Note_off_c, 0, 42, 55
1, 247453, Control_c, 0, 64, 67
1, 247457, Note_off_c, 0, 37, 55
1, 247465, Poly_aftertouch_c, 0, 64, 0
1, 247468, Control_c, 0, 64, 68
1, 247483, Control_c, 0, 64, 69
1, 247497, Note_on_c, 0, 55, 63
1, 247505, Note_on_c, 0, 58, 66
1, 247513, Control_c, 0, 64, 69
1, 247516, Poly_aftertouch_c, 0, 32, 0
1, 247517, Note_off_c, 0, 55, 63
1, 247525, Note_on_c, 0, 42, 32
1, 247528, Control_c, 0, 64, 70
1, 247529, Note_off_c, 0, 58, 68
1, 247543, Control_c, 0, 64, 71
1, 247558, Control_c, 0, 64, 71
1, 247587, Note_off_c, 0, 42, 0
1, 247602, Note_on_c, 0, 42, 37
1, 247603, Control_c, 0, 64, 72
1, 247606, Note_on_c, 0, 58, 61
1, 247608, Note_on_c, 0, 55, 46
1, 247614, Note_on_c, 0, 32, 29
1, 247634, Note_off_c, 0, 58, 65
1, 247636, Note_off_c, 0, 55, 52
1, 247637, Note_off_c, 0, 42, 49
1, 247649, Poly_aftertouch_c, 0, 37, 127
1, 247655, Note_off_c, 0, 32, 50
1, 247662, Control_c, 0, 64, 72
1, 247671, Poly_aftertouch_c, 0, 37, 0
1, 247692, Control_c, 0, 64, 73
1, 247698, Note_on_c, 0, 58, 66
1, 247707, Control_c, 0, 64, 73
1, 247711, Note_on_c, 0, 42, 40
1, 247713, Note_on_c, 0, 55, 48
1, 247725, Note_off_c, 0, 58, 65
1, 247736, Control_c, 0, 64, 74
1, 247739, Poly_aftertouch_c, 0, 37, 0
1, 247740, Note_off_c, 0, 42, 57
1, 247741, Note_off_c, 0, 55, 54
1, 247766, Control_c, 0, 64, 73
1, 247781, Control_c, 0, 64, 73
1, 247817, Note_on_c, 0, 37, 10
1, 247820, Note_on_c, 0, 55, 41
1, 247821, Note_on_c, 0, 42, 16
1, 247823, Note_on_c, 0, 57, 31
1, 247843, Note_off_c, 0, 55, 61
1, 247855, Control_c, 0, 64, 73
1, 247859, Note_off_c, 0, 57, 32
1, 247884, Control_c, 0, 64, 74
1, 247899, Control_c, 0, 64, 75
1, 247902, Note_on_c, 0, 32, 7
1, 247914, Control_c, 0, 64, 76
1, 247917, Note_on_c, 0, 55, 28
1, 247929, Control_c, 0, 64, 76
1, 247935, Note_off_c, 0, 42, 41
1, 247936, Note_off_c, 0, 37, 43
1, 247958, Control_c, 0, 64, 77
1, 247965, Note_off_c, 0, 32, 0
1, 247973, Control_c, 0, 64, 78
1, 247980, Note_off_c, 0, 55, 0
1, 247983, Note_on_c, 0, 57, 39
1, 247987, Control_c, 0, 64, 78
1, 247992, Note_on_c, 0, 42, 19
1, 247993, Note_on_c, 0, 55, 33
1, 248002, Poly_aftertouch_c, 0, 32, 127
1, 248002, Control_c, 0, 64, 79
1, 248011, Note_off_c, 0, 57, 59
1, 248017, Control_c, 0, 64, 80
1, 248023, Poly_aftertouch_c, 0, 37, 127
1, 248029, Note_off_c, 0, 55, 47
1, 248034, Poly_aftertouch_c, 0, 32, 0
1, 248055, Note_off_c, 0, 42, 0
1, 248067, Note_on_c, 0, 32, 31
1, 248069, Control_c, 0, 64, 80
1, 248078, Note_on_c, 0, 42, 37
1, 248084, Control_c, 0, 64, 81
1, 248088, Note_on_c, 0, 55, 41
1, 248099, Control_c, 0, 64, 82
1, 248100, Note_on_c, 0, 57, 39
1, 248102, Note_off_c, 0, 32, 61
1, 248112, Note_off_c, 0, 42, 49
1, 248114, Control_c, 0, 64, 80
1, 248124, Note_off_c, 0, 55, 45
1, 248127, Poly_aftertouch_c, 0, 37, 0
1, 248129, Control_c, 0, 64, 73
1, 248130, Note_off_c, 0, 57, 55
1, 248143, Control_c, 0, 64, 61
1, 248158, Control_c, 0, 64, 0
1, 248187, Control_c, 0, 64, 50
1, 248197, Note_on_c, 0, 52, 59
1, 248200, Note_on_c, 0, 55, 53
1, 248202, Control_c, 0, 64, 61
1, 248217, Control_c, 0, 64, 66
1, 248222, Note_off_c, 0, 52, 59
1, 248225, Note_off_c, 0, 55, 58
1, 248232, Control_c, 0, 64, 69
1, 248247, Control_c, 0, 64, 71
1, 248261, Control_c, 0, 64, 71
1, 248266, Note_on_c, 0, 39, 36
1, 248283, Poly_aftertouch_c, 0, 33, 127
1, 248291, Note_on_c, 0, 55, 62
1, 248300, Note_on_c, 0, 27, 35
1, 248305, Note_on_c, 0, 54, 24
1, 248308, Note_off_c, 0, 39, 59
1, 248315, Note_off_c, 0, 55, 64
1, 248318, Note_on_c, 0, 52, 7
1, 248321, Poly_aftertouch_c, 0, 33, 0
1, 248337, Control_c, 0, 64, 72
1, 248342, Note_off_c, 0, 27, 48
1, 248349, Note_off_c, 0, 54, 45
1, 248352, Control_c, 0, 64, 72
1, 248366, Control_c, 0, 64, 73
1, 248381, Note_on_c, 0, 55, 66
1, 248381, Control_c, 0, 64, 74
1, 248394, Note_off_c, 0, 52, 42
1, 248396, Control_c, 0, 64, 74
1, 248397, Note_on_c, 0, 39, 40
1, 248401, Note_off_c, 0, 55, 64
1, 248425, Control_c, 0, 64, 75
1, 248431, Note_off_c, 0, 39, 50
1, 248440, Control_c, 0, 64, 76
1, 248455, Control_c, 0, 64, 76
1, 248467, Note_on_c, 0, 55, 60
1, 248481, Poly_aftertouch_c, 0, 54, 127
1, 248485, Note_off_c, 0, 55, 65
1, 248504, Note_on_c, 0, 39, 36
1, 248514, Control_c, 0, 64, 74
1, 248529, Control_c, 0, 64, 69
1, 248530, Poly_aftertouch_c, 0, 54, 0
1, 248544, Control_c, 0, 64, 65
1, 248546, Note_off_c, 0, 39, 46
1, 248559, Control_c, 0, 64, 65
1, 248571, Note_on_c, 0, 54, 60
1, 248574, Control_c, 0, 64, 66
1, 248586, Note_on_c, 0, 39, 51
1, 248589, Control_c, 0, 64, 67
1, 248595, Poly_aftertouch_c, 0, 27, 127
1, 248603, Note_off_c, 0, 54, 63
1, 248604, Control_c, 0, 64, 68
1, 248605, Note_on_c, 0, 47, 24
1, 248617, Note_off_c, 0, 39, 57
1, 248618, Control_c, 0, 64, 69
1, 248633, Control_c, 0, 64, 69
1, 248647, Note_off_c, 0, 47, 32
1, 248655, Poly_aftertouch_c, 0, 27, 0
1, 248663, Control_c, 0, 64, 70
1, 248681, Note_on_c, 0, 54, 45
1, 248682, Note_on_c, 0, 39, 46
1, 248684, Note_on_c, 0, 55, 53
1, 248692, Control_c, 0, 64, 70
1, 248701, Poly_aftertouch_c, 0, 27, 0
1, 248702, Note_on_c, 0, 36, 41
1, 248707, Control_c, 0, 64, 71
1, 248713, Note_off_c, 0, 54, 61
1, 248716, Note_off_c, 0, 39, 53
1, 248717, Note_off_c, 0, 55, 64
1, 248737, Note_off_c, 0, 36, 48
1, 248737, Control_c, 0, 64, 71
1, 248783, Note_on_c, 0, 47, 41
1, 248791, Note_on_c, 0, 55, 67
1, 248795, Note_on_c, 0, 39, 46
1, 248802, Note_on_c, 0, 54, 36
1, 248822, Note_off_c, 0, 47, 52
1, 248829, Note_off_c, 0, 55, 65
1, 248834, Note_off_c, 0, 39, 53
1, 248839, Note_off_c, 0, 54, 52
1, 248896, Note_on_c, 0, 47, 55
1, 248896, Poly_aftertouch_c, 0, 36, 127
1, 248905, Note_on_c, 0, 39, 49
1, 248912, Note_on_c, 0, 55, 48
1, 248922, Note_off_c, 0, 47, 60
1, 248935, Note_off_c, 0, 55, 59
1, 248938, Note_off_c, 0, 39, 55
1, 248952, Poly_aftertouch_c, 0, 36, 0
1, 248996, Note_on_c, 0, 47, 55
1, 248998, Note_on_c, 0, 55, 64
1, 249015, Note_on_c, 0, 39, 41
1, 249024, Note_off_c, 0, 47, 59
1, 249036, Note_off_c, 0, 55, 65
1, 249044, Poly_aftertouch_c, 0, 54, 0
1, 249048, Note_off_c, 0, 39, 52
1, 249115, Note_on_c, 0, 47, 41
1, 249117, Note_on_c, 0, 55, 55
1, 249118, Note_on_c, 0, 39, 49
1, 249140, Note_off_c, 0, 55, 62
1, 249147, Note_off_c, 0, 39, 57
1, 249150, Note_off_c, 0, 47, 53
1, 249161, Poly_aftertouch_c, 0, 36, 127
1, 249183, Poly_aftertouch_c, 0, 31, 0
1, 249221, Poly_aftertouch_c, 0, 31, 127
1, 249227, Note_on_c, 0, 39, 55
1, 249228, Note_on_c, 0, 54, 60
1, 249231, Note_on_c, 0, 36, 12
1, 249234, Control_c, 0, 64, 72
1, 249236, Note_on_c, 0, 47, 38
1, 249257, Note_on_c, 0, 52, 27
1, 249260, Note_off_c, 0, 39, 60
1, 249274, Note_off_c, 0, 36, 56
1, 249274, Note_off_c, 0, 54, 61
1, 249278, Note_off_c, 0, 47, 46
1, 249293, Poly_aftertouch_c, 0, 31, 0
1, 249300, Note_off_c, 0, 52, 43
1, 249346, Note_on_c, 0, 39, 50
1, 249366, Note_on_c, 0, 54, 44
1, 249382, Note_off_c, 0, 39, 55
1, 249395, Note_off_c, 0, 54, 63
1, 249396, Note_on_c, 0, 36, 16
1, 249397, Control_c, 0, 64, 72
1, 249454, Note_off_c, 0, 36, 39
1, 249467, Poly_aftertouch_c, 0, 47, 0
1, 249470, Note_on_c, 0, 54, 56
1, 249472, Note_on_c, 0, 39, 53
1, 249493, Note_on_c, 0, 52, 35
1, 249504, Poly_aftertouch_c, 0, 47, 127
1, 249513, Note_off_c, 0, 39, 53
1, 249521, Poly_aftertouch_c, 0, 31, 127
1, 249522, Note_off_c, 0, 54, 59
1, 249527, Note_off_c, 0, 52, 54
1, 249543, Poly_aftertouch_c, 0, 47, 0
1, 249586, Poly_aftertouch_c, 0, 31, 0
1, 249620, Note_on_c, 0, 39, 45
1, 249624, Note_on_c, 0, 54, 54
1, 249626, Note_on_c, 0, 52, 37
1, 249626, Control_c, 0, 64, 73
1, 249634, Note_on_c, 0, 47, 29
1, 249641, Control_c, 0, 64, 73
1, 249656, Control_c, 0, 64, 74
1, 249661, Note_off_c, 0, 39, 50
1, 249661, Note_off_c, 0, 52, 57
1, 249662, Note_off_c, 0, 54, 62
1, 249672, Note_off_c, 0, 47, 52
1, 249673, Poly_aftertouch_c, 0, 36, 127
1, 249677, Poly_aftertouch_c, 0, 31, 127
1, 249745, Control_c, 0, 64, 74
1, 249756, Note_on_c, 0, 39, 42
1, 249756, Note_on_c, 0, 54, 48
1, 249764, Poly_aftertouch_c, 0, 36, 0
1, 249766, Note_on_c, 0, 52, 32
1, 249777, Poly_aftertouch_c, 0, 31, 0
1, 249791, Note_on_c, 0, 47, 3
1, 249793, Note_off_c, 0, 39, 51
1, 249796, Note_off_c, 0, 54, 59
1, 249799, Note_off_c, 0, 52, 51
1, 249825, Note_off_c, 0, 47, 43
1, 249856, Poly_aftertouch_c, 0, 36, 0
1, 249894, Note_on_c, 0, 39, 37
1, 249895, Note_on_c, 0, 54, 48
1, 249907, Note_on_c, 0, 52, 14
1, 249907, Poly_aftertouch_c, 0, 31, 0
1, 249926, Note_off_c, 0, 39, 52
1, 249932, Note_off_c, 0, 54, 59
1, 249938, Note_on_c, 0, 47, 3
1, 249945, Poly_aftertouch_c, 0, 31, 127
1, 249956, Note_off_c, 0, 52, 42
1, 249960, Note_off_c, 0, 47, 41
1, 249990, Poly_aftertouch_c, 0, 31, 0
1, 249993, Poly_aftertouch_c, 0, 36, 0
1, 250030, Note_on_c, 0, 39, 36
1, 250036, Note_on_c, 0, 54, 37
1, 250047, Note_on_c, 0, 52, 44
1, 250049, Note_on_c, 0, 36, 28
1, 250078, Poly_aftertouch_c, 0, 47, 127
1, 250081, Note_off_c, 0, 39, 46
1, 250084, Note_off_c, 0, 52, 52
1, 250084, Poly_aftertouch_c, 0, 31, 127
1, 250088, Note_off_c, 0, 36, 52
1, 250091, Note_off_c, 0, 54, 56
1, 250106, Poly_aftertouch_c, 0, 27, 0
1, 250110, Poly_aftertouch_c, 0, 47, 0
1, 250130, Poly_aftertouch_c, 0, 31, 0
1, 250198, Note_on_c, 0, 54, 44
1, 250202, Note_on_c, 0, 39, 36
1, 250208, Note_on_c, 0, 36, 41
1, 250236, Poly_aftertouch_c, 0, 47, 127
1, 250242, Note_off_c, 0, 54, 56
1, 250247, Note_off_c, 0, 39, 49
1, 250252, Note_off_c, 0, 36, 53
1, 250253, Poly_aftertouch_c, 0, 31, 127
1, 250274, Poly_aftertouch_c, 0, 47, 0
1, 250276, Poly_aftertouch_c, 0, 27, 0
1, 250277, Poly_aftertouch_c, 0, 52, 0
1, 250285, Poly_aftertouch_c, 0, 31, 0
1, 250318, Poly_aftertouch_c, 0, 31, 0
1, 250369, Note_on_c, 0, 39, 34
1, 250376, Note_on_c, 0, 54, 31
1, 250388, Note_on_c, 0, 36, 39
1, 250390, Note_on_c, 0, 52, 36
1, 250404, Poly_aftertouch_c, 0, 47, 127
1, 250416, Poly_aftertouch_c, 0, 27, 127
1, 250416, Note_off_c, 0, 39, 46
1, 250426, Note_off_c, 0, 36, 50
1, 250427, Poly_aftertouch_c, 0, 31, 127
1, 250428, Note_off_c, 0, 52, 49
1, 250433, Note_off_c, 0, 54, 46
1, 250441, Poly_aftertouch_c, 0, 47, 0
1, 250448, Poly_aftertouch_c, 0, 27, 0
1, 250476, Poly_aftertouch_c, 0, 31, 0
1, 250537, Note_on_c, 0, 54, 47
1, 250539, Note_on_c, 0, 39, 27
1, 250545, Note_on_c, 0, 52, 36
1, 250548, Note_on_c, 0, 36, 40
1, 250548, Note_on_c, 0, 47, 11
1, 250589, Poly_aftertouch_c, 0, 31, 127
1, 250589, Note_off_c, 0, 52, 50
1, 250592, Note_off_c, 0, 36, 52
1, 250595, Note_off_c, 0, 39, 46
1, 250596, Note_off_c, 0, 54, 53
1, 250601, Note_off_c, 0, 47, 48
1, 250613, Poly_aftertouch_c, 0, 27, 0
1, 250638, Poly_aftertouch_c, 0, 31, 0
1, 250723, Note_on_c, 0, 39, 37
1, 250734, Note_on_c, 0, 54, 44
1, 250743, Note_on_c, 0, 36, 30
1, 250744, Note_on_c, 0, 47, 10
1, 250746, Note_on_c, 0, 52, 36
1, 250768, Note_on_c, 0, 31, 29
1, 250779, Poly_aftertouch_c, 0, 27, 127
1, 250792, Control_c, 0, 64, 75
1, 250794, Note_off_c, 0, 47, 50
1, 250795, Note_off_c, 0, 52, 47
1, 250796, Note_off_c, 0, 39, 43
1, 250798, Note_off_c, 0, 36, 44
1, 250809, Note_off_c, 0, 54, 42
1, 250815, Note_off_c, 0, 31, 49
1, 250827, Poly_aftertouch_c, 0, 27, 0
1, 250836, Control_c, 0, 64, 75
1, 250851, Control_c, 0, 64, 76
1, 250866, Control_c, 0, 64, 76
1, 250880, Control_c, 0, 64, 77
1, 250895, Control_c, 0, 64, 78
1, 250929, Note_on_c, 0, 54, 44
1, 250939, Control_c, 0, 64, 78
1, 250941, Note_on_c, 0, 47, 22
1, 250941, Note_on_c, 0, 52, 37
1, 250949, Note_on_c, 0, 39, 34
1, 250953, Control_c, 0, 64, 79
1, 250962, Note_on_c, 0, 36, 36
1, 250965, Note_on_c, 0, 31, 23
1, 250968, Control_c, 0, 64, 80
1, 250976, Note_off_c, 0, 52, 57
1, 250983, Poly_aftertouch_c, 0, 27, 127
1, 250992, Note_off_c, 0, 54, 57
1, 251004, Note_off_c, 0, 47, 44
1, 251013, Note_off_c, 0, 36, 51
1, 251019, Note_off_c, 0, 39, 42
1, 251030, Note_off_c, 0, 31, 42
1, 251033, Poly_aftertouch_c, 0, 27, 0
1, 251183, Poly_aftertouch_c, 0, 54, 127
1, 251191, Note_on_c, 0, 39, 20
1, 251198, Note_on_c, 0, 36, 34
1, 251200, Note_on_c, 0, 52, 40
1, 251202, Note_on_c, 0, 31, 26
1, 251206, Poly_aftertouch_c, 0, 47, 127
1, 251212, Note_on_c, 0, 50, 18
1, 251222, Poly_aftertouch_c, 0, 27, 127
1, 251242, Control_c, 0, 64, 80
1, 251254, Note_off_c, 0, 52, 52
1, 251263, Note_off_c, 0, 50, 50
1, 251273, Note_off_c, 0, 36, 41
1, 251278, Poly_aftertouch_c, 0, 27, 0
1, 251279, Note_off_c, 0, 31, 40
1, 251279, Note_off_c, 0, 39, 39
1, 251281, Poly_aftertouch_c, 0, 47, 0
1, 251305, Poly_aftertouch_c, 0, 54, 0
1, 251361, Control_c, 0, 64, 81
1, 251452, Note_on_c, 0, 54, 38
1, 251471, Note_on_c, 0, 39, 24
1, 251472, Note_on_c, 0, 50, 26
1, 251479, Note_on_c, 0, 52, 32
1, 251485, Poly_aftertouch_c, 0, 47, 127
1, 251486, Note_on_c, 0, 36, 26
1, 251492, Note_on_c, 0, 47, 3
1, 251518, Poly_aftertouch_c, 0, 27, 127
1, 251522, Poly_aftertouch_c, 0, 31, 127
1, 251546, Note_off_c, 0, 52, 39
1, 251547, Note_off_c, 0, 36, 43
1, 251558, Note_off_c, 0, 50, 39
1, 251561, Note_off_c, 0, 39, 37
1, 251563, Note_off_c, 0, 47, 39
1, 251564, Poly_aftertouch_c, 0, 27, 0
1, 251573, Poly_aftertouch_c, 0, 31, 0
1, 251621, Note_off_c, 0, 54, 41
1, 251833, Note_on_c, 0, 39, 25
1, 251834, Note_on_c, 0, 54, 27
1, 251843, Note_on_c, 0, 36, 34
1, 251850, Note_on_c, 0, 50, 30
1, 251853, Note_on_c, 0, 52, 33
1, 251859, Poly_aftertouch_c, 0, 47, 127
1, 251868, Note_on_c, 0, 31, 21
1, 251877, Poly_aftertouch_c, 0, 27, 127
1, 253141, Control_c, 0, 67, 126
1, 253156, Control_c, 0, 67, 126
1, 253171, Control_c, 0, 67, 125
1, 253186, Control_c, 0, 67, 124
1, 253201, Control_c, 0, 67, 123
1, 253215, Control_c, 0, 67, 123
1, 253230, Control_c, 0, 67, 122
1, 253245, Control_c, 0, 67, 122
1, 253260, Control_c, 0, 67, 121
1, 253275, Control_c, 0, 67, 121
1, 253290, Control_c, 0, 67, 120
1, 253327, Control_c, 0, 67, 119
1, 253357, Control_c, 0, 67, 119
1, 253401, Control_c, 0, 67, 118
1, 253430, Control_c, 0, 67, 118
1, 253460, Control_c, 0, 67, 117
1, 253504, Control_c, 0, 67, 117
1, 253519, Control_c, 0, 67, 116
1, 253534, Control_c, 0, 67, 116
1, 253549, Control_c, 0, 67, 115
1, 253579, Control_c, 0, 67, 115
1, 253594, Control_c, 0, 67, 114
1, 253608, Control_c, 0, 67, 114
1, 253623, Control_c, 0, 67, 113
1, 253638, Control_c, 0, 67, 113
1, 253653, Control_c, 0, 67, 112
1, 253668, Control_c, 0, 67, 112
1, 253682, Control_c, 0, 67, 111
1, 253697, Control_c, 0, 67, 110
1, 253712, Control_c, 0, 67, 109
1, 253727, Control_c, 0, 64, 80
1, 253727, Control_c, 0, 67, 108
1, 253742, Control_c, 0, 67, 107
1, 253756, Control_c, 0, 67, 106
1, 253771, Control_c, 0, 67, 104
1, 253786, Control_c, 0, 67, 102
1, 253800, Control_c, 0, 67, 101
1, 253815, Control_c, 0, 67, 99
1, 253830, Control_c, 0, 64, 80
1, 253830, Control_c, 0, 67, 97
1, 253845, Control_c, 0, 67, 95
1, 253860, Control_c, 0, 67, 93
1, 253874, Control_c, 0, 67, 90
1, 253889, Control_c, 0, 67, 87
1, 253904, Control_c, 0, 67, 85
1, 253919, Control_c, 0, 67, 82
1, 253935, Control_c, 0, 67, 80
1, 253950, Control_c, 0, 67, 77
1, 253965, Control_c, 0, 67, 75
1, 253979, Control_c, 0, 67, 73
1, 253994, Control_c, 0, 67, 70
1, 254009, Control_c, 0, 67, 68
1, 254023, Control_c, 0, 67, 66
1, 254038, Control_c, 0, 67, 65
1, 254061, Control_c, 0, 67, 63
1, 254076, Control_c, 0, 67, 61
1, 254091, Control_c, 0, 67, 60
1, 254106, Control_c, 0, 67, 57
1, 254120, Control_c, 0, 67, 55
1, 254135, Control_c, 0, 67, 53
1, 254150, Control_c, 0, 67, 51
1, 254165, Control_c, 0, 67, 49
1, 254180, Control_c, 0, 67, 48
1, 254194, Control_c, 0, 67, 45
1, 254209, Control_c, 0, 67, 43
1, 254224, Control_c, 0, 67, 40
1, 254238, Control_c, 0, 67, 38
1, 254253, Control_c, 0, 67, 37
1, 254268, Control_c, 0, 67, 35
1, 254280, Note_off_c, 0, 36, 25
1, 254283, Control_c, 0, 67, 33
1, 254298, Control_c, 0, 67, 32
1, 254312, Poly_aftertouch_c, 0, 47, 0
1, 254312, Control_c, 0, 67, 30
1, 254316, Note_off_c, 0, 39, 35
1, 254327, Control_c, 0, 64, 79
1, 254327, Control_c, 0, 67, 29
1, 254342, Control_c, 0, 67, 28
1, 254357, Control_c, 0, 67, 28
1, 254372, Control_c, 0, 67, 27
1, 254387, Control_c, 0, 67, 27
1, 254417, Control_c, 0, 64, 79
1, 254461, Control_c, 0, 64, 78
1, 254512, Note_off_c, 0, 31, 27
1, 254520, Control_c, 0, 64, 78
1, 254521, Note_off_c, 0, 50, 34
1, 254564, Control_c, 0, 64, 77
1, 254564, Control_c, 0, 67, 27
1, 254594, Control_c, 0, 67, 28
1, 254623, Control_c, 0, 67, 28
1, 254638, Control_c, 0, 67, 29
1, 254653, Control_c, 0, 64, 77
1, 254668, Control_c, 0, 67, 29
1, 254683, Control_c, 0, 64, 76
1, 254683, Control_c, 0, 67, 30
1, 254712, Control_c, 0, 67, 30
1, 254713, Note_off_c, 0, 52, 18
1, 254728, Control_c, 0, 64, 76
1, 254743, Control_c, 0, 67, 31
1, 254758, Control_c, 0, 64, 75
1, 254758, Control_c, 0, 67, 32
1, 254787, Control_c, 0, 64, 75
1, 254787, Control_c, 0, 67, 32
1, 254825, Control_c, 0, 67, 33
1, 254840, Control_c, 0, 64, 74
1, 254854, Control_c, 0, 67, 33
1, 254884, Control_c, 0, 64, 74
1, 254899, Control_c, 0, 67, 34
1, 254914, Control_c, 0, 64, 73
1, 254914, Control_c, 0, 67, 34
1, 254916, Poly_aftertouch_c, 0, 27, 0
1, 254943, Control_c, 0, 64, 73
1, 254943, Control_c, 0, 67, 35
1, 254958, Control_c, 0, 67, 35
1, 254959, Note_off_c, 0, 54, 31
1, 254973, Control_c, 0, 64, 72
1, 254973, Control_c, 0, 67, 36
1, 254987, Control_c, 0, 64, 71
1, 255017, Control_c, 0, 64, 71
1, 255017, Control_c, 0, 67, 36
1, 255032, Control_c, 0, 67, 37
1, 255047, Control_c, 0, 67, 37
1, 255061, Control_c, 0, 64, 70
1, 255061, Control_c, 0, 67, 38
1, 255091, Control_c, 0, 67, 38
1, 255106, Control_c, 0, 64, 70
1, 255121, Control_c, 0, 67, 39
1, 255135, Control_c, 0, 64, 69
1, 255135, Control_c, 0, 67, 39
1, 255165, Control_c, 0, 64, 69
1, 255165, Control_c, 0, 67, 40
1, 255180, Control_c, 0, 67, 41
1, 255195, Control_c, 0, 67, 42
1, 255210, Control_c, 0, 64, 68
1, 255210, Control_c, 0, 67, 43
1, 255224, Control_c, 0, 67, 44
1, 255239, Control_c, 0, 64, 68
1, 255239, Control_c, 0, 67, 45
1, 255254, Control_c, 0, 67, 46
1, 255269, Control_c, 0, 67, 47
1, 255284, Control_c, 0, 64, 67
1, 255284, Control_c, 0, 67, 48
1, 255299, Control_c, 0, 67, 49
1, 255314, Control_c, 0, 64, 67
1, 255314, Control_c, 0, 67, 52
1, 255328, Control_c, 0, 67, 55
1, 255343, Control_c, 0, 67, 58
1, 255358, Control_c, 0, 64, 66
1, 255358, Control_c, 0, 67, 59
1, 255372, Control_c, 0, 67, 60
1, 255401, Control_c, 0, 64, 66
1, 255416, Control_c, 0, 67, 61
1, 255431, Control_c, 0, 64, 65
1, 255446, Control_c, 0, 67, 60
1, 255460, Control_c, 0, 64, 65
1, 255490, Control_c, 0, 64, 64
1, 255505, Control_c, 0, 64, 64
1, 255521, Control_c, 0, 64, 63
1, 255521, Control_c, 0, 67, 60
1, 255536, Control_c, 0, 64, 63
1, 255558, Control_c, 0, 64, 62
1, 255573, Control_c, 0, 64, 62
1, 255573, Control_c, 0, 67, 59
1, 255588, Control_c, 0, 64, 60
1, 255602, Control_c, 0, 64, 57
1, 255602, Control_c, 0, 67, 59
1, 255617, Control_c, 0, 64, 54
1, 255617, Control_c, 0, 67, 58
1, 255632, Control_c, 0, 64, 49
1, 255647, Control_c, 0, 64, 45
1, 255647, Control_c, 0, 67, 58
1, 255662, Control_c, 0, 64, 39
1, 255676, Control_c, 0, 64, 27
1, 255676, Control_c, 0, 67, 57
1, 255691, Control_c, 0, 64, 0
1, 255736, Control_c, 0, 67, 57
1, 255765, Control_c, 0, 67, 56
1, 255780, Control_c, 0, 67, 56
1, 255795, Control_c, 0, 67, 55
1, 255809, Control_c, 0, 67, 54
1, 255824, Control_c, 0, 67, 52
1, 255839, Control_c, 0, 67, 49
1, 255854, Control_c, 0, 67, 42
1, 255860, Note_on_c, 0, 33, 53
1, 255869, Control_c, 0, 67, 23
1, 255883, Control_c, 0, 67, 0
1, 255940, Note_off_c, 0, 33, 59
1, 255944, Note_on_c, 0, 32, 51
1, 256174, Note_off_c, 0, 32, 29
1, 256840, Note_on_c, 0, 36, 53
1, 256875, Note_off_c, 0, 36, 60
1, 256879, Note_on_c, 0, 35, 61
1, 257029, Note_off_c, 0, 35, 61
1, 257670, Note_on_c, 0, 28, 83
1, 257728, Note_on_c, 0, 29, 92
1, 257749, Note_off_c, 0, 28, 61
1, 257993, Note_on_c, 0, 57, 98
1, 258205, Control_c, 0, 64, 35
1, 258220, Control_c, 0, 64, 48
1, 258235, Control_c, 0, 64, 55
1, 258250, Control_c, 0, 64, 60
1, 258265, Control_c, 0, 64, 64
1, 258279, Control_c, 0, 64, 66
1, 258294, Control_c, 0, 64, 68
1, 258309, Control_c, 0, 64, 69
1, 258324, Control_c, 0, 64, 71
1, 258339, Control_c, 0, 64, 72
1, 258353, Control_c, 0, 64, 73
1, 258368, Control_c, 0, 64, 74
1, 258383, Control_c, 0, 64, 75
1, 258397, Control_c, 0, 64, 76
1, 258412, Control_c, 0, 64, 77
1, 258442, Control_c, 0, 64, 77
1, 258457, Control_c, 0, 64, 78
1, 258471, Control_c, 0, 64, 78
1, 258486, Control_c, 0, 64, 79
1, 258501, Control_c, 0, 64, 81
1, 258515, Control_c, 0, 64, 81
1, 258530, Control_c, 0, 64, 82
1, 258553, Control_c, 0, 64, 83
1, 258568, Control_c, 0, 64, 84
1, 258583, Control_c, 0, 64, 85
1, 258597, Control_c, 0, 64, 86
1, 258612, Control_c, 0, 64, 86
1, 258627, Control_c, 0, 64, 87
1, 258642, Control_c, 0, 64, 87
1, 258671, Control_c, 0, 64, 88
1, 258686, Control_c, 0, 64, 89
1, 258701, Control_c, 0, 64, 90
1, 258712, Note_off_c, 0, 57, 49
1, 258716, Control_c, 0, 64, 91
1, 258718, Note_on_c, 0, 50, 54
1, 258732, Control_c, 0, 64, 91
1, 258747, Control_c, 0, 64, 92
1, 258762, Control_c, 0, 64, 93
1, 258776, Control_c, 0, 64, 94
1, 258791, Control_c, 0, 64, 95
1, 258806, Control_c, 0, 64, 96
1, 258821, Control_c, 0, 64, 97
1, 258835, Control_c, 0, 64, 98
1, 258850, Control_c, 0, 64, 99
1, 258861, Note_off_c, 0, 50, 62
1, 258865, Control_c, 0, 64, 101
1, 258870, Note_on_c, 0, 49, 75
1, 258880, Control_c, 0, 64, 102
1, 258895, Control_c, 0, 64, 104
1, 258909, Control_c, 0, 64, 106
1, 258915, Note_off_c, 0, 29, 63
1, 258924, Control_c, 0, 64, 113
1, 258925, Note_on_c, 0, 47, 82
1, 258939, Control_c, 0, 64, 127
1, 258951, Note_off_c, 0, 49, 63
1, 258987, Note_on_c, 0, 46, 95
1, 258994, Note_off_c, 0, 47, 66
1, 259010, Note_off_c, 0, 46, 70
1, 259132, Control_c, 0, 64, 103
1, 259143, Note_on_c, 0, 30, 90
1, 259146, Control_c, 0, 64, 58
1, 259161, Control_c, 0, 64, 0
1, 259484, Note_on_c, 0, 42, 48
1, 259565, Note_off_c, 0, 42, 61
1, 259585, Note_on_c, 0, 43, 52
1, 259633, Note_off_c, 0, 43, 63
1, 259653, Note_on_c, 0, 41, 55
1, 259708, Note_off_c, 0, 41, 56
1, 259729, Note_on_c, 0, 42, 56
1, 259785, Note_off_c, 0, 42, 61
1, 259790, Note_on_c, 0, 45, 63
1, 259836, Control_c, 0, 64, 26
1, 259850, Note_on_c, 0, 44, 64
1, 259851, Control_c, 0, 64, 51
1, 259852, Note_off_c, 0, 45, 63
1, 259866, Control_c, 0, 64, 60
1, 259881, Control_c, 0, 64, 63
1, 259895, Control_c, 0, 64, 65
1, 259907, Note_off_c, 0, 44, 62
1, 259908, Note_on_c, 0, 42, 66
1, 259910, Control_c, 0, 64, 66
1, 259924, Control_c, 0, 64, 67
1, 259938, Note_off_c, 0, 30, 60
1, 259939, Control_c, 0, 64, 69
1, 259954, Control_c, 0, 64, 70
1, 259963, Note_off_c, 0, 42, 62
1, 259964, Note_on_c, 0, 43, 72
1, 259968, Control_c, 0, 64, 70
1, 259983, Control_c, 0, 64, 71
1, 260021, Note_off_c, 0, 43, 64
1, 260025, Note_on_c, 0, 41, 68
1, 260095, Note_on_c, 0, 42, 75
1, 260101, Note_off_c, 0, 41, 62
1, 260109, Note_on_c, 0, 30, 84
1, 260124, Control_c, 0, 64, 69
1, 260139, Control_c, 0, 64, 66
1, 260154, Control_c, 0, 64, 58
1, 260158, Note_on_c, 0, 45, 68
1, 260168, Control_c, 0, 64, 0
1, 260169, Note_off_c, 0, 42, 63
1, 260213, Control_c, 0, 64, 36
1, 260215, Note_on_c, 0, 44, 72
1, 260228, Control_c, 0, 64, 49
1, 260239, Note_off_c, 0, 45, 65
1, 260242, Control_c, 0, 64, 57
1, 260257, Control_c, 0, 64, 63
1, 260272, Control_c, 0, 64, 64
1, 260277, Note_on_c, 0, 42, 79
1, 260287, Control_c, 0, 64, 66
1, 260289, Note_off_c, 0, 44, 63
1, 260301, Control_c, 0, 64, 67
1, 260318, Control_c, 0, 64, 67
1, 260333, Control_c, 0, 64, 68
1, 260338, Note_on_c, 0, 43, 77
1, 260347, Note_off_c, 0, 42, 63
1, 260362, Control_c, 0, 64, 69
1, 260377, Control_c, 0, 64, 69
1, 260388, Note_on_c, 0, 41, 76
1, 260391, Control_c, 0, 64, 70
1, 260410, Note_off_c, 0, 43, 62
1, 260436, Control_c, 0, 64, 68
1, 260451, Control_c, 0, 64, 67
1, 260459, Note_on_c, 0, 42, 72
1, 260465, Control_c, 0, 64, 64
1, 260479, Note_off_c, 0, 41, 61
1, 260480, Control_c, 0, 64, 64
1, 260495, Note_on_c, 0, 45, 75
1, 260495, Control_c, 0, 64, 67
1, 260510, Note_on_c, 0, 44, 75
1, 260510, Control_c, 0, 64, 72
1, 260520, Note_off_c, 0, 42, 64
1, 260525, Control_c, 0, 64, 81
1, 260539, Control_c, 0, 64, 90
1, 260554, Control_c, 0, 64, 89
1, 260569, Control_c, 0, 64, 77
1, 260570, Note_on_c, 0, 41, 92
1, 260584, Control_c, 0, 64, 61
1, 260599, Control_c, 0, 64, 0
1, 260605, Poly_aftertouch_c, 0, 28, 127
1, 260629, Control_c, 0, 64, 47
1, 260631, Note_off_c, 0, 41, 63
1, 260644, Control_c, 0, 64, 66
1, 260659, Control_c, 0, 64, 74
1, 260673, Control_c, 0, 64, 85
1, 260688, Control_c, 0, 64, 96
1, 260689, Note_off_c, 0, 44, 46
1, 260694, Note_off_c, 0, 45, 0
1, 260697, Note_on_c, 0, 41, 84
1, 260703, Control_c, 0, 64, 103
1, 260717, Control_c, 0, 64, 104
1, 260719, Poly_aftertouch_c, 0, 45, 0
1, 260727, Note_on_c, 0, 42, 78
1, 260728, Note_on_c, 0, 36, 96
1, 260732, Control_c, 0, 64, 93
1, 260747, Control_c, 0, 64, 66
1, 260755, Note_off_c, 0, 41, 62
1, 260762, Control_c, 0, 64, 0
1, 260771, Note_off_c, 0, 30, 57
1, 260772, Note_on_c, 0, 43, 80
1, 260816, Note_off_c, 0, 42, 62
1, 260858, Control_c, 0, 64, 61
1, 260873, Note_on_c, 0, 39, 82
1, 260873, Control_c, 0, 64, 70
1, 260873, Poly_aftertouch_c, 0, 28, 0
1, 260888, Control_c, 0, 64, 79
1, 260899, Note_off_c, 0, 39, 66
1, 260903, Control_c, 0, 64, 88
1, 260911, Poly_aftertouch_c, 0, 28, 127
1, 260918, Control_c, 0, 64, 93
1, 260925, Note_off_c, 0, 43, 64
1, 260932, Control_c, 0, 64, 95
1, 260947, Control_c, 0, 64, 98
1, 260962, Control_c, 0, 64, 102
1, 260977, Control_c, 0, 64, 107
1, 260992, Control_c, 0, 64, 112
1, 261006, Control_c, 0, 64, 118
1, 261021, Control_c, 0, 64, 127
1, 261050, Note_on_c, 0, 52, 103
1, 261249, Poly_aftertouch_c, 0, 28, 0
1, 261264, Note_off_c, 0, 52, 55
1, 261267, Note_on_c, 0, 55, 70
1, 261288, Note_off_c, 0, 36, 61
1, 261316, Note_on_c, 0, 57, 78
1, 261330, Note_on_c, 0, 60, 80
1, 261347, Note_off_c, 0, 55, 64
1, 261350, Note_on_c, 0, 61, 100
1, 261369, Note_off_c, 0, 57, 65
1, 261382, Note_off_c, 0, 60, 67
1, 261386, Note_off_c, 0, 61, 68
1, 261666, Control_c, 0, 64, 112
1, 261681, Control_c, 0, 64, 94
1, 261695, Control_c, 0, 64, 74
1, 261710, Control_c, 0, 64, 41
1, 261725, Control_c, 0, 64, 0
1, 262008, Note_on_c, 0, 54, 100
1, 262022, Control_c, 0, 64, 17
1, 262025, Note_on_c, 0, 50, 61
1, 262036, Control_c, 0, 64, 74
1, 262051, Control_c, 0, 64, 88
1, 262066, Note_off_c, 0, 50, 59
1, 262066, Control_c, 0, 64, 101
1, 262081, Control_c, 0, 64, 103
1, 262096, Control_c, 0, 64, 103
1, 262102, Note_on_c, 0, 49, 87
1, 262104, Note_on_c, 0, 43, 86
1, 262110, Control_c, 0, 64, 105
1, 262125, Control_c, 0, 64, 105
1, 262126, Note_off_c, 0, 54, 60
1, 262129, Note_off_c, 0, 43, 66
1, 262149, Note_off_c, 0, 49, 65
1, 262200, Control_c, 0, 64, 104
1, 262207, Note_on_c, 0, 42, 96
1, 262215, Control_c, 0, 64, 93
1, 262230, Control_c, 0, 64, 74
1, 262244, Control_c, 0, 64, 0
1, 262315, Note_on_c, 0, 45, 89
1, 262324, Note_off_c, 0, 42, 64
1, 262363, Note_off_c, 0, 45, 66
1, 262403, Note_on_c, 0, 59, 96
1, 262409, Note_on_c, 0, 55, 84
1, 262444, Control_c, 0, 64, 40
1, 262459, Control_c, 0, 64, 66
1, 262474, Control_c, 0, 64, 69
1, 262483, Note_off_c, 0, 55, 56
1, 262489, Control_c, 0, 64, 70
1, 262492, Note_on_c, 0, 52, 84
1, 262499, Note_on_c, 0, 50, 67
1, 262503, Control_c, 0, 64, 72
1, 262518, Control_c, 0, 64, 76
1, 262528, Note_off_c, 0, 52, 63
1, 262530, Note_off_c, 0, 50, 66
1, 262531, Note_off_c, 0, 59, 62
1, 262533, Control_c, 0, 64, 80
1, 262548, Control_c, 0, 64, 83
1, 262563, Control_c, 0, 64, 85
1, 262577, Control_c, 0, 64, 87
1, 262582, Note_on_c, 0, 30, 96
1, 262592, Control_c, 0, 64, 88
1, 262607, Control_c, 0, 64, 86
1, 262622, Control_c, 0, 64, 79
1, 262637, Control_c, 0, 64, 72
1, 262651, Control_c, 0, 64, 73
1, 262663, Note_on_c, 0, 59, 79
1, 262666, Note_on_c, 0, 61, 84
1, 262666, Control_c, 0, 64, 75
1, 262668, Note_on_c, 0, 42, 90
1, 262681, Control_c, 0, 64, 78
1, 262685, Note_off_c, 0, 30, 63
1, 262695, Control_c, 0, 64, 82
1, 262702, Note_off_c, 0, 59, 60
1, 262712, Control_c, 0, 64, 89
1, 262727, Control_c, 0, 64, 96
1, 262731, Note_off_c, 0, 42, 64
1, 262741, Control_c, 0, 64, 97
1, 262755, Note_on_c, 0, 64, 60
1, 262756, Control_c, 0, 64, 95
1, 262757, Note_off_c, 0, 61, 63
1, 262757, Note_on_c, 0, 67, 72
1, 262771, Control_c, 0, 64, 88
1, 262777, Note_off_c, 0, 64, 61
1, 262781, Note_off_c, 0, 67, 68
1, 262785, Control_c, 0, 64, 77
1, 262800, Control_c, 0, 64, 71
1, 262803, Note_on_c, 0, 41, 55
1, 262805, Note_on_c, 0, 40, 60
1, 262806, Note_on_c, 0, 42, 56
1, 262815, Control_c, 0, 64, 74
1, 262830, Control_c, 0, 64, 77
1, 262845, Control_c, 0, 64, 81
1, 262850, Note_on_c, 0, 70, 92
1, 262859, Control_c, 0, 64, 88
1, 262874, Control_c, 0, 64, 95
1, 262890, Control_c, 0, 64, 96
1, 262905, Control_c, 0, 64, 92
1, 262919, Control_c, 0, 64, 85
1, 262922, Note_off_c, 0, 41, 57
1, 262930, Note_off_c, 0, 40, 62
1, 262930, Note_on_c, 0, 63, 87
1, 262934, Control_c, 0, 64, 82
1, 262939, Note_on_c, 0, 54, 94
1, 262944, Note_off_c, 0, 70, 63
1, 262949, Control_c, 0, 64, 84
1, 262964, Control_c, 0, 64, 88
1, 262970, Note_off_c, 0, 42, 63
1, 262979, Control_c, 0, 64, 95
1, 262981, Note_off_c, 0, 54, 65
1, 262993, Control_c, 0, 64, 104
1, 263003, Note_off_c, 0, 63, 62
1, 263008, Control_c, 0, 64, 114
1, 263015, Note_on_c, 0, 68, 83
1, 263023, Control_c, 0, 64, 121
1, 263054, Poly_aftertouch_c, 0, 44, 0
1, 263058, Note_on_c, 0, 71, 83
1, 263076, Note_off_c, 0, 68, 62
1, 263105, Control_c, 0, 64, 120
1, 263119, Control_c, 0, 64, 113
1, 263130, Note_on_c, 0, 70, 60
1, 263134, Control_c, 0, 64, 93
1, 263135, Note_on_c, 0, 67, 69
1, 263149, Control_c, 0, 64, 71
1, 263157, Note_off_c, 0, 67, 69
1, 263160, Note_off_c, 0, 71, 64
1, 263164, Note_off_c, 0, 70, 64
1, 263164, Control_c, 0, 64, 0
1, 263212, Note_on_c, 0, 54, 92
1, 263221, Note_on_c, 0, 73, 110
1, 263236, Note_on_c, 0, 70, 85
1, 263238, Control_c, 0, 64, 50
1, 263253, Control_c, 0, 64, 65
1, 263256, Note_on_c, 0, 56, 26
1, 263267, Control_c, 0, 64, 72
1, 263282, Control_c, 0, 64, 78
1, 263297, Control_c, 0, 64, 84
1, 263299, Note_off_c, 0, 70, 56
1, 263309, Note_on_c, 0, 66, 99
1, 263312, Control_c, 0, 64, 87
1, 263327, Control_c, 0, 64, 91
1, 263336, Note_off_c, 0, 54, 52
1, 263341, Note_off_c, 0, 56, 0
1, 263341, Control_c, 0, 64, 93
1, 263343, Note_off_c, 0, 73, 59
1, 263356, Control_c, 0, 64, 95
1, 263361, Note_off_c, 0, 66, 63
1, 263371, Control_c, 0, 64, 96
1, 263378, Poly_aftertouch_c, 0, 56, 127
1, 263386, Control_c, 0, 64, 96
1, 263396, Poly_aftertouch_c, 0, 56, 0
1, 263398, Note_on_c, 0, 71, 96
1, 263441, Note_off_c, 0, 71, 67
1, 263461, Control_c, 0, 64, 89
1, 263475, Control_c, 0, 64, 72
1, 263485, Note_on_c, 0, 51, 75
1, 263490, Control_c, 0, 64, 0
1, 263492, Note_on_c, 0, 73, 102
1, 263517, Note_on_c, 0, 70, 84
1, 263550, Control_c, 0, 64, 55
1, 263565, Control_c, 0, 64, 67
1, 263580, Control_c, 0, 64, 74
1, 263586, Note_on_c, 0, 56, 75
1, 263594, Note_on_c, 0, 68, 91
1, 263595, Control_c, 0, 64, 79
1, 263607, Note_off_c, 0, 73, 58
1, 263610, Control_c, 0, 64, 85
1, 263624, Control_c, 0, 64, 90
1, 263635, Note_off_c, 0, 70, 56
1, 263639, Control_c, 0, 64, 97
1, 263654, Control_c, 0, 64, 106
1, 263654, Note_off_c, 0, 51, 60
1, 263663, Note_on_c, 0, 57, 89
1, 263669, Control_c, 0, 64, 120
1, 263681, Note_on_c, 0, 61, 98
1, 263683, Note_off_c, 0, 56, 66
1, 263683, Control_c, 0, 64, 127
1, 263685, Note_off_c, 0, 68, 65
1, 263687, Note_off_c, 0, 57, 67
1, 263720, Note_off_c, 0, 61, 63
1, 263728, Control_c, 0, 64, 98
1, 263742, Control_c, 0, 64, 71
1, 263757, Control_c, 0, 64, 0
1, 263887, Note_on_c, 0, 63, 99
1, 263957, Control_c, 0, 64, 61
1, 263972, Control_c, 0, 64, 67
1, 263974, Note_on_c, 0, 52, 85
1, 263975, Note_on_c, 0, 48, 89
1, 263987, Control_c, 0, 64, 71
1, 264000, Note_off_c, 0, 52, 69
1, 264002, Control_c, 0, 64, 76
1, 264015, Note_off_c, 0, 48, 60
1, 264016, Control_c, 0, 64, 81
1, 264031, Control_c, 0, 64, 86
1, 264046, Control_c, 0, 64, 90
1, 264048, Note_off_c, 0, 63, 49
1, 264061, Control_c, 0, 64, 94
1, 264075, Note_on_c, 0, 52, 100
1, 264076, Control_c, 0, 64, 98
1, 264078, Note_on_c, 0, 45, 96
1, 264079, Note_on_c, 0, 68, 96
1, 264090, Control_c, 0, 64, 104
1, 264105, Note_off_c, 0, 52, 60
1, 264105, Control_c, 0, 64, 112
1, 264109, Note_off_c, 0, 45, 65
1, 264120, Control_c, 0, 64, 118
1, 264134, Control_c, 0, 64, 120
1, 264149, Control_c, 0, 64, 122
1, 264164, Control_c, 0, 64, 123
1, 264170, Note_off_c, 0, 68, 60
1, 264170, Note_on_c, 0, 56, 100
1, 264224, Control_c, 0, 64, 113
1, 264236, Note_off_c, 0, 56, 63
1, 264239, Control_c, 0, 64, 90
1, 264254, Control_c, 0, 64, 60
1, 264268, Note_on_c, 0, 68, 93
1, 264268, Control_c, 0, 64, 0
1, 264302, Note_on_c, 0, 51, 32
1, 264349, Note_off_c, 0, 51, 30
1, 264353, Note_on_c, 0, 66, 84
1, 264380, Note_off_c, 0, 68, 61
1, 264438, Note_on_c, 0, 51, 83
1, 264443, Note_on_c, 0, 44, 70
1, 264447, Control_c, 0, 64, 68
1, 264450, Note_on_c, 0, 57, 90
1, 264462, Control_c, 0, 64, 76
1, 264465, Note_off_c, 0, 51, 65
1, 264476, Note_on_c, 0, 49, 30
1, 264477, Control_c, 0, 64, 83
1, 264477, Note_off_c, 0, 44, 64
1, 264486, Note_off_c, 0, 66, 59
1, 264492, Control_c, 0, 64, 88
1, 264507, Control_c, 0, 64, 92
1, 264517, Note_off_c, 0, 49, 55
1, 264521, Control_c, 0, 64, 92
1, 264540, Note_on_c, 0, 51, 89
1, 264547, Note_on_c, 0, 44, 79
1, 264552, Note_on_c, 0, 49, 56
1, 264562, Note_off_c, 0, 51, 66
1, 264573, Control_c, 0, 64, 92
1, 264580, Note_off_c, 0, 49, 66
1, 264581, Note_off_c, 0, 44, 66
1, 264587, Control_c, 0, 64, 85
1, 264602, Control_c, 0, 64, 69
1, 264608, Note_off_c, 0, 57, 55
1, 264617, Control_c, 0, 64, 0
1, 264656, Note_on_c, 0, 42, 83
1, 264659, Note_on_c, 0, 44, 86
1, 264752, Note_on_c, 0, 68, 87
1, 264780, Control_c, 0, 64, 65
1, 264795, Control_c, 0, 64, 71
1, 264810, Control_c, 0, 64, 75
1, 264825, Control_c, 0, 64, 82
1, 264830, Note_on_c, 0, 57, 82
1, 264839, Control_c, 0, 64, 88
1, 264852, Note_off_c, 0, 68, 58
1, 264854, Control_c, 0, 64, 94
1, 264869, Control_c, 0, 64, 96
1, 264883, Control_c, 0, 64, 98
1, 264898, Control_c, 0, 64, 99
1, 264906, Note_on_c, 0, 59, 84
1, 264913, Control_c, 0, 64, 101
1, 264918, Note_off_c, 0, 57, 60
1, 264928, Control_c, 0, 64, 104
1, 264943, Control_c, 0, 64, 109
1, 264957, Control_c, 0, 64, 118
1, 264972, Control_c, 0, 64, 127
1, 264975, Note_off_c, 0, 44, 60
1, 264980, Note_on_c, 0, 45, 84
1, 264982, Note_on_c, 0, 40, 79
1, 264986, Note_on_c, 0, 68, 82
1, 264991, Note_off_c, 0, 59, 62
1, 264995, Note_off_c, 0, 42, 64
1, 265004, Note_off_c, 0, 45, 67
1, 265011, Note_off_c, 0, 40, 66
1, 265032, Control_c, 0, 64, 83
1, 265047, Control_c, 0, 64, 0
1, 265062, Note_on_c, 0, 66, 75
1, 265066, Note_off_c, 0, 68, 63
1, 265082, Note_off_c, 0, 66, 68
1, 265209, Note_on_c, 0, 32, 98
1, 265255, Control_c, 0, 64, 64
1, 265270, Control_c, 0, 64, 70
1, 265292, Control_c, 0, 64, 73
1, 265307, Control_c, 0, 64, 79
1, 265321, Control_c, 0, 64, 87
1, 265336, Control_c, 0, 64, 96
1, 265351, Control_c, 0, 64, 103
1, 265366, Control_c, 0, 64, 112
1, 265381, Control_c, 0, 64, 127
1, 265384, Note_on_c, 0, 41, 85
1, 265389, Note_on_c, 0, 44, 68
1, 265409, Note_on_c, 0, 48, 91
1, 265410, Note_on_c, 0, 45, 59
1, 265419, Note_off_c, 0, 44, 65
1, 265423, Note_off_c, 0, 41, 63
1, 265436, Note_off_c, 0, 45, 65
1, 265451, Note_off_c, 0, 48, 66
1, 265551, Note_on_c, 0, 44, 108
1, 265579, Note_off_c, 0, 32, 64
1, 265592, Note_off_c, 0, 44, 66
1, 265742, Note_on_c, 0, 52, 92
1, 265756, Note_on_c, 0, 56, 75
1, 265759, Note_on_c, 0, 60, 91
1, 265777, Note_off_c, 0, 52, 63
1, 265780, Note_on_c, 0, 57, 39
1, 265782, Note_off_c, 0, 56, 69
1, 265807, Note_off_c, 0, 60, 69
1, 265811, Note_off_c, 0, 57, 55
1, 265869, Control_c, 0, 64, 95
1, 265884, Control_c, 0, 64, 61
1, 265899, Control_c, 0, 64, 0
1, 265923, Note_on_c, 0, 56, 100
1, 265974, Control_c, 0, 64, 63
1, 265989, Control_c, 0, 64, 74
1, 266003, Control_c, 0, 64, 88
1, 266018, Control_c, 0, 64, 108
1, 266041, Control_c, 0, 64, 127
1, 266045, Note_on_c, 0, 69, 72
1, 266060, Note_on_c, 0, 73, 72
1, 266078, Note_on_c, 0, 76, 85
1, 266081, Note_on_c, 0, 62, 61
1, 266087, Note_off_c, 0, 73, 67
1, 266090, Note_off_c, 0, 69, 62
1, 266109, Note_on_c, 0, 74, 77
1, 266114, Note_on_c, 0, 64, 92
1, 266115, Note_off_c, 0, 56, 63
1, 266141, Note_on_c, 0, 73, 53
1, 266142, Note_off_c, 0, 73, 127
1, 266148, Note_on_c, 0, 72, 80
1, 266160, Note_off_c, 0, 62, 62
1, 266161, Note_on_c, 0, 71, 83
1, 266167, Note_on_c, 0, 70, 43
1, 266171, Note_off_c, 0, 64, 65
1, 266178, Note_off_c, 0, 76, 63
1, 266194, Note_on_c, 0, 69, 93
1, 266197, Note_off_c, 0, 70, 55
1, 266202, Note_off_c, 0, 74, 61
1, 266217, Note_off_c, 0, 71, 66
1, 266218, Note_off_c, 0, 72, 63
1, 266248, Control_c, 0, 64, 107
1, 266249, Note_off_c, 0, 69, 66
1, 266263, Control_c, 0, 64, 76
1, 266278, Note_on_c, 0, 70, 106
1, 266278, Control_c, 0, 64, 69
1, 266293, Control_c, 0, 64, 80
1, 266307, Control_c, 0, 64, 94
1, 266322, Control_c, 0, 64, 116
1, 266337, Control_c, 0, 64, 127
1, 266422, Note_on_c, 0, 69, 77
1, 266439, Note_on_c, 0, 73, 79
1, 266448, Note_on_c, 0, 67, 86
1, 266454, Note_off_c, 0, 70, 63
1, 266460, Note_on_c, 0, 74, 71
1, 266471, Control_c, 0, 64, 117
1, 266471, Note_on_c, 0, 77, 93
1, 266474, Note_off_c, 0, 67, 64
1, 266474, Note_off_c, 0, 69, 64
1, 266484, Note_off_c, 0, 74, 71
1, 266485, Control_c, 0, 64, 76
1, 266489, Note_off_c, 0, 73, 65
1, 266500, Control_c, 0, 64, 0
1, 266501, Note_off_c, 0, 77, 69
1, 266642, Note_on_c, 0, 73, 107
1, 266662, Control_c, 0, 64, 68
1, 266677, Control_c, 0, 64, 92
1, 266692, Control_c, 0, 64, 127
1, 266811, Note_on_c, 0, 74, 75
1, 266830, Note_on_c, 0, 75, 83
1, 266836, Note_on_c, 0, 72, 78
1, 266854, Note_off_c, 0, 74, 65
1, 266855, Note_on_c, 0, 82, 97
1, 266857, Note_on_c, 0, 68, 76
1, 266858, Note_off_c, 0, 73, 58
1, 266870, Note_on_c, 0, 81, 47
1, 266873, Note_off_c, 0, 75, 67
1, 266890, Note_off_c, 0, 72, 63
1, 266893, Note_off_c, 0, 81, 58
1, 266896, Note_off_c, 0, 82, 69
1, 266916, Note_off_c, 0, 68, 61
1, 266982, Control_c, 0, 64, 79
1, 266997, Control_c, 0, 64, 0
1, 267005, Note_on_c, 0, 76, 103
1, 267012, Control_c, 0, 64, 53
1, 267027, Control_c, 0, 64, 70
1, 267041, Control_c, 0, 64, 78
1, 267056, Control_c, 0, 64, 89
1, 267071, Control_c, 0, 64, 105
1, 267085, Control_c, 0, 64, 127
1, 267160, Note_on_c, 0, 71, 68
1, 267162, Note_on_c, 0, 79, 77
1, 267182, Note_on_c, 0, 80, 79
1, 267190, Note_on_c, 0, 75, 65
1, 267191, Note_off_c, 0, 76, 58
1, 267195, Note_on_c, 0, 70, 69
1, 267202, Note_on_c, 0, 83, 67
1, 267223, Note_off_c, 0, 79, 61
1, 267228, Note_on_c, 0, 85, 82
1, 267229, Note_off_c, 0, 71, 64
1, 267247, Note_off_c, 0, 80, 64
1, 267252, Note_off_c, 0, 70, 60
1, 267255, Note_off_c, 0, 75, 62
1, 267263, Note_off_c, 0, 83, 65
1, 267292, Note_off_c, 0, 85, 64
1, 267293, Control_c, 0, 64, 86
1, 267308, Control_c, 0, 64, 71
1, 267323, Control_c, 0, 64, 73
1, 267333, Note_on_c, 0, 76, 77
1, 267334, Note_on_c, 0, 77, 71
1, 267338, Control_c, 0, 64, 80
1, 267353, Control_c, 0, 64, 87
1, 267357, Note_off_c, 0, 77, 68
1, 267367, Note_on_c, 0, 82, 77
1, 267367, Control_c, 0, 64, 96
1, 267382, Control_c, 0, 64, 119
1, 267397, Control_c, 0, 64, 127
1, 267404, Note_on_c, 0, 83, 72
1, 267406, Note_off_c, 0, 76, 63
1, 267409, Note_off_c, 0, 82, 62
1, 267410, Note_on_c, 0, 78, 66
1, 267413, Note_on_c, 0, 88, 79
1, 267422, Note_on_c, 0, 79, 84
1, 267428, Note_off_c, 0, 78, 66
1, 267439, Note_off_c, 0, 83, 57
1, 267470, Note_on_c, 0, 82, 84
1, 267479, Note_off_c, 0, 88, 61
1, 267485, Note_off_c, 0, 79, 52
1, 267490, Note_on_c, 0, 70, 92
1, 267515, Note_on_c, 0, 83, 89
1, 267539, Note_off_c, 0, 70, 67
1, 267548, Note_off_c, 0, 82, 65
1, 267553, Note_on_c, 0, 90, 98
1, 267565, Note_off_c, 0, 83, 68
1, 267592, Note_off_c, 0, 90, 69
1, 267672, Control_c, 0, 64, 110
1, 267687, Control_c, 0, 64, 73
1, 267702, Control_c, 0, 64, 0
1, 267740, Note_on_c, 0, 64, 87
1, 267741, Note_on_c, 0, 66, 94
1, 267776, Control_c, 0, 64, 72
1, 267790, Control_c, 0, 64, 86
1, 267805, Control_c, 0, 64, 103
1, 267816, Note_off_c, 0, 64, 58
1, 267820, Note_on_c, 0, 67, 95
1, 267820, Control_c, 0, 64, 114
1, 267834, Note_off_c, 0, 66, 68
1, 267835, Control_c, 0, 64, 115
1, 267850, Control_c, 0, 64, 118
1, 267864, Note_off_c, 0, 67, 65
1, 267864, Control_c, 0, 64, 127
1, 267893, Note_on_c, 0, 88, 94
1, 267894, Note_on_c, 0, 78, 92
1, 267902, Note_on_c, 0, 91, 81
1, 267910, Note_off_c, 0, 78, 73
1, 267915, Note_off_c, 0, 91, 68
1, 267923, Note_off_c, 0, 88, 54
1, 267969, Note_on_c, 0, 78, 93
1, 267969, Note_on_c, 0, 91, 98
1, 267974, Note_on_c, 0, 88, 87
1, 268010, Note_off_c, 0, 78, 65
1, 268013, Control_c, 0, 64, 112
1, 268020, Note_off_c, 0, 91, 63
1, 268024, Note_off_c, 0, 88, 65
1, 268027, Control_c, 0, 64, 97
1, 268042, Control_c, 0, 64, 97
1, 268051, Note_on_c, 0, 66, 88
1, 268051, Note_on_c, 0, 64, 91
1, 268052, Note_on_c, 0, 70, 93
1, 268057, Control_c, 0, 64, 110
1, 268072, Control_c, 0, 64, 127
1, 268103, Note_on_c, 0, 68, 27
1, 268125, Note_on_c, 0, 72, 105
1, 268141, Note_off_c, 0, 68, 52
1, 268155, Note_off_c, 0, 66, 63
1, 268155, Note_off_c, 0, 70, 63
1, 268162, Note_off_c, 0, 64, 61
1, 268181, Note_off_c, 0, 72, 64
1, 268203, Note_on_c, 0, 87, 83
1, 268207, Note_on_c, 0, 91, 89
1, 268210, Note_on_c, 0, 79, 90
1, 268217, Note_on_c, 0, 88, 75
1, 268218, Note_off_c, 0, 87, 73
1, 268223, Note_off_c, 0, 91, 74
1, 268225, Note_off_c, 0, 79, 75
1, 268236, Note_off_c, 0, 88, 68
1, 268281, Note_on_c, 0, 79, 97
1, 268288, Note_on_c, 0, 91, 90
1, 268293, Note_on_c, 0, 88, 85
1, 268293, Note_on_c, 0, 89, 89
1, 268316, Note_off_c, 0, 79, 65
1, 268332, Control_c, 0, 64, 111
1, 268334, Note_off_c, 0, 91, 65
1, 268337, Note_off_c, 0, 89, 64
1, 268340, Note_off_c, 0, 88, 64
1, 268346, Control_c, 0, 64, 82
1, 268359, Note_on_c, 0, 70, 88
1, 268361, Note_on_c, 0, 76, 109
1, 268361, Control_c, 0, 64, 79
1, 268364, Note_on_c, 0, 69, 81
1, 268376, Control_c, 0, 64, 86
1, 268391, Control_c, 0, 64, 97
1, 268399, Note_off_c, 0, 76, 68
1, 268406, Control_c, 0, 64, 108
1, 268421, Control_c, 0, 64, 127
1, 268448, Note_on_c, 0, 76, 101
1, 268454, Note_on_c, 0, 74, 86
1, 268476, Note_off_c, 0, 74, 0
1, 268478, Note_off_c, 0, 69, 62
1, 268494, Note_off_c, 0, 70, 52
1, 268505, Note_on_c, 0, 81, 101
1, 268506, Poly_aftertouch_c, 0, 74, 0
1, 268507, Note_on_c, 0, 93, 94
1, 268510, Note_on_c, 0, 90, 88
1, 268516, Note_off_c, 0, 76, 59
1, 268522, Note_off_c, 0, 81, 67
1, 268526, Note_off_c, 0, 93, 66
1, 268528, Note_off_c, 0, 90, 72
1, 268583, Note_on_c, 0, 90, 98
1, 268586, Note_on_c, 0, 81, 102
1, 268588, Note_on_c, 0, 93, 94
1, 268606, Note_off_c, 0, 81, 60
1, 268613, Control_c, 0, 64, 103
1, 268622, Note_off_c, 0, 93, 69
1, 268628, Control_c, 0, 64, 66
1, 268629, Note_off_c, 0, 90, 66
1, 268643, Control_c, 0, 64, 36
1, 268658, Control_c, 0, 64, 67
1, 268663, Note_on_c, 0, 76, 78
1, 268673, Control_c, 0, 64, 76
1, 268676, Note_on_c, 0, 73, 70
1, 268677, Note_on_c, 0, 70, 75
1, 268687, Control_c, 0, 64, 84
1, 268702, Control_c, 0, 64, 98
1, 268712, Note_on_c, 0, 75, 14
1, 268717, Control_c, 0, 64, 127
1, 268734, Note_on_c, 0, 78, 95
1, 268746, Note_on_c, 0, 83, 104
1, 268747, Note_on_c, 0, 95, 104
1, 268749, Note_on_c, 0, 90, 89
1, 268761, Note_off_c, 0, 83, 72
1, 268761, Note_off_c, 0, 95, 75
1, 268765, Note_off_c, 0, 90, 76
1, 268767, Note_off_c, 0, 75, 52
1, 268781, Note_off_c, 0, 78, 65
1, 268791, Note_off_c, 0, 76, 46
1, 268794, Note_on_c, 0, 94, 8
1, 268795, Note_off_c, 0, 94, 127
1, 268814, Note_on_c, 0, 83, 102
1, 268814, Note_on_c, 0, 95, 105
1, 268816, Note_on_c, 0, 90, 104
1, 268820, Note_on_c, 0, 79, 94
1, 268838, Poly_aftertouch_c, 0, 94, 0
1, 268843, Note_off_c, 0, 83, 65
1, 268847, Note_off_c, 0, 70, 54
1, 268850, Note_off_c, 0, 73, 60
1, 268853, Note_off_c, 0, 90, 66
1, 268854, Note_off_c, 0, 95, 66
1, 268890, Note_off_c, 0, 79, 59
1, 268925, Control_c, 0, 64, 126
1, 268940, Control_c, 0, 64, 71
1, 268955, Control_c, 0, 64, 0
1, 268973, Note_on_c, 0, 84, 109
1, 268976, Note_on_c, 0, 92, 107
1, 268977, Note_on_c, 0, 96, 102
1, 268993, Note_off_c, 0, 92, 70
1, 268994, Note_off_c, 0, 96, 67
1, 268999, Note_off_c, 0, 84, 66
1, 268999, Control_c, 0, 64, 69
1, 269014, Control_c, 0, 64, 83
1, 269036, Control_c, 0, 64, 110
1, 269051, Control_c, 0, 64, 127
1, 269059, Note_on_c, 0, 84, 96
1, 269062, Note_on_c, 0, 96, 86
1, 269065, Note_on_c, 0, 98, 82
1, 269067, Note_on_c, 0, 92, 74
1, 269069, Note_on_c, 0, 93, 91
1, 269079, Note_off_c, 0, 98, 73
1, 269089, Note_off_c, 0, 92, 64
1, 269089, Note_on_c, 0, 86, 41
1, 269090, Note_off_c, 0, 86, 127
1, 269092, Note_off_c, 0, 96, 61
1, 269094, Note_off_c, 0, 84, 60
1, 269101, Note_off_c, 0, 93, 60
1, 269138, Note_on_c, 0, 78, 74
1, 269145, Note_on_c, 0, 75, 72
1, 269181, Note_on_c, 0, 79, 93
1, 269203, Note_on_c, 0, 74, 81
1, 269211, Note_off_c, 0, 78, 65
1, 269211, Note_off_c, 0, 79, 65
1, 269226, Note_off_c, 0, 74, 70
1, 269229, Note_off_c, 0, 75, 67
1, 269274, Note_on_c, 0, 72, 102
1, 269276, Note_on_c, 0, 84, 81
1, 269279, Note_on_c, 0, 80, 73
1, 269286, Note_on_c, 0, 83, 65
1, 269289, Note_off_c, 0, 72, 73
1, 269294, Note_off_c, 0, 80, 69
1, 269298, Note_off_c, 0, 84, 65
1, 269302, Note_off_c, 0, 83, 67
1, 269305, Note_on_c, 0, 82, 32
1, 269306, Note_off_c, 0, 82, 127
1, 269336, Note_on_c, 0, 72, 94
1, 269340, Note_on_c, 0, 84, 89
1, 269345, Note_on_c, 0, 80, 96
1, 269366, Note_off_c, 0, 72, 71
1, 269389, Note_off_c, 0, 84, 67
1, 269392, Note_off_c, 0, 80, 64
1, 269425, Note_on_c, 0, 63, 95
1, 269443, Note_on_c, 0, 66, 84
1, 269465, Note_on_c, 0, 62, 64
1, 269476, Note_on_c, 0, 69, 85
1, 269501, Note_off_c, 0, 66, 63
1, 269504, Note_off_c, 0, 63, 58
1, 269517, Note_off_c, 0, 62, 63
1, 269524, Note_off_c, 0, 69, 64
1, 269569, Note_on_c, 0, 84, 110
1, 269572, Note_on_c, 0, 96, 96
1, 269573, Note_on_c, 0, 92, 94
1, 269586, Note_off_c, 0, 84, 67
1, 269586, Note_off_c, 0, 96, 73
1, 269587, Note_off_c, 0, 92, 76
1, 269591, Note_on_c, 0, 94, 54
1, 269592, Note_off_c, 0, 94, 127
1, 269638, Note_on_c, 0, 96, 98
1, 269639, Note_on_c, 0, 92, 103
1, 269640, Note_on_c, 0, 84, 95
1, 269661, Note_off_c, 0, 84, 66
1, 269672, Note_off_c, 0, 96, 59
1, 269684, Note_off_c, 0, 92, 69
1, 269718, Note_on_c, 0, 81, 94
1, 269723, Note_on_c, 0, 78, 85
1, 269727, Note_on_c, 0, 75, 73
1, 269738, Note_on_c, 0, 71, 71
1, 269747, Note_off_c, 0, 81, 60
1, 269762, Note_off_c, 0, 78, 66
1, 269779, Note_off_c, 0, 75, 65
1, 269784, Note_off_c, 0, 71, 63
1, 269866, Note_on_c, 0, 84, 97
1, 269867, Note_on_c, 0, 72, 102
1, 269894, Note_off_c, 0, 84, 68
1, 269902, Note_off_c, 0, 72, 64
1, 269959, Note_on_c, 0, 66, 94
1, 269964, Note_on_c, 0, 56, 73
1, 269999, Note_off_c, 0, 66, 55
1, 270052, Control_c, 0, 64, 83
1, 270066, Control_c, 0, 64, 0
1, 270080, Note_on_c, 0, 62, 63
1, 270090, Note_on_c, 0, 63, 90
1, 270090, Note_on_c, 0, 65, 102
1, 270091, Note_off_c, 0, 56, 51
1, 270094, Note_on_c, 0, 77, 94
1, 270097, Note_on_c, 0, 72, 100
1, 270126, Control_c, 0, 64, 62
1, 270141, Control_c, 0, 64, 76
1, 270142, Note_off_c, 0, 72, 66
1, 270147, Note_on_c, 0, 79, 37
1, 270153, Note_off_c, 0, 62, 60
1, 270156, Control_c, 0, 64, 88
1, 270171, Control_c, 0, 64, 102
1, 270180, Note_off_c, 0, 79, 52
1, 270181, Note_off_c, 0, 65, 62
1, 270185, Control_c, 0, 64, 110
1, 270186, Note_off_c, 0, 63, 60
1, 270192, Note_off_c, 0, 77, 64
1, 270200, Control_c, 0, 64, 112
1, 270289, Control_c, 0, 64, 111
1, 270299, Note_on_c, 0, 65, 80
1, 270303, Control_c, 0, 64, 89
1, 270318, Control_c, 0, 64, 35
1, 270333, Control_c, 0, 64, 0
1, 270342, Note_on_c, 0, 69, 83
1, 270345, Note_on_c, 0, 66, 79
1, 270353, Note_off_c, 0, 65, 64
1, 270363, Control_c, 0, 64, 14
1, 270370, Note_on_c, 0, 72, 81
1, 270377, Control_c, 0, 64, 67
1, 270392, Control_c, 0, 64, 80
1, 270402, Note_on_c, 0, 75, 77
1, 270404, Note_off_c, 0, 69, 63
1, 270406, Note_off_c, 0, 72, 65
1, 270407, Control_c, 0, 64, 97
1, 270422, Control_c, 0, 64, 127
1, 270425, Note_on_c, 0, 59, 85
1, 270432, Note_off_c, 0, 66, 61
1, 270436, Note_off_c, 0, 75, 62
1, 270467, Note_on_c, 0, 60, 38
1, 270481, Note_off_c, 0, 59, 56
1, 270488, Note_on_c, 0, 76, 79
1, 270506, Note_on_c, 0, 72, 54
1, 270509, Note_on_c, 0, 71, 54
1, 270510, Note_off_c, 0, 60, 62
1, 270514, Note_on_c, 0, 68, 50
1, 270517, Note_on_c, 0, 78, 78
1, 270531, Note_on_c, 0, 77, 44
1, 270532, Note_off_c, 0, 77, 127
1, 270537, Note_off_c, 0, 71, 64
1, 270539, Note_off_c, 0, 72, 58
1, 270546, Note_off_c, 0, 68, 59
1, 270550, Note_on_c, 0, 69, 67
1, 270555, Note_off_c, 0, 76, 60
1, 270571, Note_on_c, 0, 87, 93
1, 270582, Note_off_c, 0, 78, 63
1, 270596, Note_on_c, 0, 72, 88
1, 270604, Note_off_c, 0, 69, 64
1, 270615, Note_off_c, 0, 87, 67
1, 270640, Note_off_c, 0, 72, 66
1, 270705, Note_on_c, 0, 78, 108
1, 270710, Note_on_c, 0, 90, 113
1, 270713, Note_on_c, 0, 102, 116
1, 270737, Note_on_c, 0, 99, 55
1, 270738, Note_off_c, 0, 99, 127
1, 270738, Note_off_c, 0, 78, 69
1, 270738, Note_off_c, 0, 90, 69
1, 270745, Note_off_c, 0, 102, 68
1, 271008, Control_c, 0, 64, 93
1, 271023, Control_c, 0, 64, 70
1, 271038, Control_c, 0, 64, 0
1, 271284, Note_on_c, 0, 45, 87
1, 271284, Note_on_c, 0, 48, 95
1, 271290, Note_on_c, 0, 100, 103
1, 271293, Note_on_c, 0, 41, 79
1, 271294, Note_on_c, 0, 91, 96
1, 271327, Control_c, 0, 64, 64
1, 271329, Note_off_c, 0, 48, 65
1, 271330, Note_off_c, 0, 91, 67
1, 271332, Note_off_c, 0, 45, 64
1, 271334, Note_off_c, 0, 100, 70
1, 271341, Control_c, 0, 64, 80
1, 271352, Note_off_c, 0, 41, 55
1, 271356, Control_c, 0, 64, 99
1, 271371, Control_c, 0, 64, 127
1, 271400, Note_on_c, 0, 50, 100
1, 271403, Note_on_c, 0, 43, 96
1, 271403, Note_on_c, 0, 47, 91
1, 271410, Note_on_c, 0, 95, 109
1, 271411, Note_on_c, 0, 107, 118
1, 271424, Note_on_c, 0, 106, 85
1, 271438, Note_off_c, 0, 106, 72
1, 271439, Note_off_c, 0, 95, 69
1, 271441, Note_off_c, 0, 107, 69
1, 271454, Note_on_c, 0, 105, 38
1, 271455, Note_off_c, 0, 105, 127
1, 271461, Note_off_c, 0, 50, 67
1, 271463, Note_off_c, 0, 43, 63
1, 271467, Note_off_c, 0, 47, 64
1, 271831, Control_c, 0, 64, 99
1, 271846, Control_c, 0, 64, 74
1, 271861, Control_c, 0, 64, 0
1, 272294, Note_on_c, 0, 60, 104
1, 272295, Note_on_c, 0, 59, 104
1, 272297, Note_on_c, 0, 57, 97
1, 272333, Note_off_c, 0, 57, 68
1, 272343, Control_c, 0, 64, 60
1, 272344, Note_off_c, 0, 59, 65
1, 272356, Note_off_c, 0, 60, 65
1, 272358, Control_c, 0, 64, 79
1, 272372, Control_c, 0, 64, 93
1, 272387, Control_c, 0, 64, 110
1, 272402, Control_c, 0, 64, 126
1, 272417, Control_c, 0, 64, 127
1, 272444, Note_on_c, 0, 60, 91
1, 272445, Note_on_c, 0, 57, 86
1, 272447, Note_on_c, 0, 59, 90
1, 272463, Note_off_c, 0, 57, 70
1, 272466, Note_off_c, 0, 59, 68
1, 272481, Note_off_c, 0, 60, 67
1, 272549, Note_on_c, 0, 59, 91
1, 272550, Note_on_c, 0, 57, 84
1, 272551, Note_on_c, 0, 60, 96
1, 272567, Note_off_c, 0, 59, 66
1, 272567, Note_off_c, 0, 57, 74
1, 272572, Note_off_c, 0, 60, 65
1, 272646, Note_on_c, 0, 57, 85
1, 272647, Note_on_c, 0, 60, 93
1, 272648, Note_on_c, 0, 59, 88
1, 272661, Note_off_c, 0, 60, 75
1, 272663, Note_off_c, 0, 59, 75
1, 272664, Note_off_c, 0, 57, 73
1, 272738, Note_on_c, 0, 60, 90
1, 272739, Note_on_c, 0, 57, 83
1, 272740, Note_on_c, 0, 59, 92
1, 272756, Note_off_c, 0, 57, 72
1, 272761, Note_off_c, 0, 60, 58
1, 272765, Note_off_c, 0, 59, 67
1, 272843, Note_on_c, 0, 59, 90
1, 272844, Note_on_c, 0, 60, 94
1, 272848, Note_on_c, 0, 57, 77
1, 272864, Note_off_c, 0, 59, 66
1, 272864, Note_off_c, 0, 60, 65
1, 272867, Note_off_c, 0, 57, 71
1, 272883, Control_c, 0, 64, 94
1, 272898, Control_c, 0, 64, 0
1, 272921, Note_on_c, 0, 33, 108
1, 272924, Note_on_c, 0, 21, 91
1, 272932, Note_on_c, 0, 59, 99
1, 272933, Note_on_c, 0, 60, 90
1, 272934, Note_on_c, 0, 57, 83
1, 272955, Note_on_c, 0, 26, 45
1, 272962, Note_off_c, 0, 57, 65
1, 272973, Control_c, 0, 64, 66
1, 272975, Note_off_c, 0, 59, 54
1, 272977, Note_off_c, 0, 60, 65
1, 272979, Note_off_c, 0, 21, 62
1, 272987, Control_c, 0, 64, 79
1, 272989, Note_off_c, 0, 26, 56
1, 273002, Control_c, 0, 64, 97
1, 273004, Note_off_c, 0, 33, 62
1, 273017, Control_c, 0, 64, 117
1, 273019, Note_on_c, 0, 60, 77
1, 273026, Note_on_c, 0, 57, 75
1, 273028, Note_on_c, 0, 59, 71
1, 273031, Control_c, 0, 64, 127
1, 273048, Note_off_c, 0, 57, 69
1, 273053, Note_off_c, 0, 59, 66
1, 273057, Note_off_c, 0, 60, 65
1, 273128, Note_on_c, 0, 59, 90
1, 273129, Note_on_c, 0, 60, 87
1, 273130, Note_on_c, 0, 57, 80
1, 273146, Note_off_c, 0, 57, 74
1, 273150, Note_off_c, 0, 59, 67
1, 273155, Note_off_c, 0, 60, 65
1, 273222, Note_on_c, 0, 57, 75
1, 273223, Note_on_c, 0, 60, 88
1, 273226, Note_on_c, 0, 59, 83
1, 273245, Note_off_c, 0, 57, 68
1, 273245, Note_off_c, 0, 59, 68
1, 273256, Note_off_c, 0, 60, 61
1, 273321, Note_on_c, 0, 57, 79
1, 273321, Note_on_c, 0, 59, 86
1, 273322, Note_on_c, 0, 60, 84
1, 273341, Note_off_c, 0, 57, 70
1, 273342, Note_off_c, 0, 59, 58
1, 273354, Note_off_c, 0, 60, 65
1, 273417, Note_on_c, 0, 60, 86
1, 273418, Note_on_c, 0, 57, 80
1, 273420, Note_on_c, 0, 59, 85
1, 273441, Note_off_c, 0, 57, 69
1, 273447, Note_off_c, 0, 59, 55
1, 273456, Note_off_c, 0, 60, 67
1, 273515, Note_on_c, 0, 57, 78
1, 273515, Note_on_c, 0, 60, 92
1, 273525, Note_on_c, 0, 59, 91
1, 273559, Control_c, 0, 64, 114
1, 273560, Note_off_c, 0, 57, 59
1, 273565, Note_off_c, 0, 59, 62
1, 273572, Note_off_c, 0, 60, 65
1, 273574, Control_c, 0, 64, 99
1, 273589, Control_c, 0, 64, 100
1, 273603, Control_c, 0, 64, 108
1, 273605, Note_on_c, 0, 62, 121
1, 273618, Control_c, 0, 64, 127
1, 273634, Note_off_c, 0, 62, 69
1, 273637, Note_on_c, 0, 60, 81
1, 273643, Note_on_c, 0, 59, 82
1, 273648, Note_on_c, 0, 57, 67
1, 273665, Note_off_c, 0, 59, 66
1, 273670, Note_off_c, 0, 57, 68
1, 273676, Note_off_c, 0, 60, 65
1, 273742, Note_on_c, 0, 59, 78
1, 273742, Note_on_c, 0, 57, 63
1, 273745, Note_on_c, 0, 60, 81
1, 273772, Note_off_c, 0, 57, 64
1, 273772, Note_off_c, 0, 59, 61
1, 273775, Note_off_c, 0, 60, 68
1, 273838, Note_on_c, 0, 57, 75
1, 273843, Note_on_c, 0, 60, 82
1, 273845, Note_on_c, 0, 59, 73
1, 273858, Note_off_c, 0, 57, 68
1, 273867, Note_off_c, 0, 59, 68
1, 273881, Note_off_c, 0, 60, 60
1, 273885, Control_c, 0, 64, 97
1, 273900, Control_c, 0, 64, 64
1, 273915, Control_c, 0, 64, 0
1, 273923, Note_on_c, 0, 62, 109
1, 273930, Control_c, 0, 64, 66
1, 273937, Note_on_c, 0, 59, 87
1, 273937, Note_on_c, 0, 60, 86
1, 273939, Note_on_c, 0, 57, 78
1, 273945, Control_c, 0, 64, 76
1, 273953, Note_off_c, 0, 62, 70
1, 273959, Control_c, 0, 64, 89
1, 273964, Note_off_c, 0, 57, 65
1, 273974, Control_c, 0, 64, 109
1, 273984, Note_off_c, 0, 59, 63
1, 273989, Control_c, 0, 64, 127
1, 273990, Note_off_c, 0, 60, 65
1, 274047, Note_on_c, 0, 60, 77
1, 274051, Note_on_c, 0, 59, 76
1, 274055, Note_on_c, 0, 57, 68
1, 274075, Note_off_c, 0, 59, 65
1, 274076, Note_off_c, 0, 57, 69
1, 274091, Note_off_c, 0, 60, 63
1, 274142, Note_on_c, 0, 60, 75
1, 274145, Note_on_c, 0, 57, 73
1, 274147, Note_on_c, 0, 59, 85
1, 274165, Note_off_c, 0, 59, 65
1, 274169, Note_off_c, 0, 57, 66
1, 274181, Note_off_c, 0, 60, 65
1, 274239, Note_on_c, 0, 57, 74
1, 274242, Note_on_c, 0, 59, 85
1, 274244, Note_on_c, 0, 60, 85
1, 274260, Note_off_c, 0, 57, 69
1, 274275, Note_off_c, 0, 59, 65
1, 274280, Note_off_c, 0, 60, 67
1, 274344, Note_on_c, 0, 57, 84
1, 274344, Note_on_c, 0, 60, 90
1, 274348, Note_on_c, 0, 59, 87
1, 274375, Note_off_c, 0, 57, 58
1, 274378, Note_off_c, 0, 59, 54
1, 274386, Note_off_c, 0, 60, 65
1, 274441, Note_on_c, 0, 57, 78
1, 274441, Note_on_c, 0, 60, 81
1, 274449, Note_on_c, 0, 59, 74
1, 274467, Note_off_c, 0, 57, 65
1, 274469, Note_off_c, 0, 59, 69
1, 274481, Note_off_c, 0, 60, 66
1, 274500, Control_c, 0, 64, 90
1, 274515, Control_c, 0, 64, 81
1, 274526, Note_on_c, 0, 62, 112
1, 274530, Control_c, 0, 64, 87
1, 274532, Note_on_c, 0, 64, 95
1, 274545, Control_c, 0, 64, 98
1, 274546, Note_on_c, 0, 59, 81
1, 274546, Note_off_c, 0, 64, 43
1, 274546, Note_on_c, 0, 57, 89
1, 274547, Note_on_c, 0, 60, 91
1, 274552, Note_off_c, 0, 62, 70
1, 274559, Control_c, 0, 64, 115
1, 274571, Note_off_c, 0, 57, 68
1, 274574, Control_c, 0, 64, 127
1, 274590, Note_off_c, 0, 59, 57
1, 274591, Note_off_c, 0, 60, 65
1, 274614, Note_on_c, 0, 64, 25
1, 274636, Note_off_c, 0, 64, 61
1, 274645, Note_on_c, 0, 57, 75
1, 274651, Note_on_c, 0, 60, 69
1, 274654, Note_on_c, 0, 59, 65
1, 274672, Note_off_c, 0, 57, 65
1, 274684, Note_off_c, 0, 59, 63
1, 274686, Note_off_c, 0, 60, 59
1, 274740, Note_on_c, 0, 57, 78
1, 274746, Note_on_c, 0, 59, 82
1, 274750, Note_on_c, 0, 60, 78
1, 274767, Note_off_c, 0, 57, 64
1, 274775, Note_off_c, 0, 59, 51
1, 274779, Note_off_c, 0, 60, 65
1, 274848, Note_on_c, 0, 57, 82
1, 274848, Note_on_c, 0, 60, 86
1, 274852, Note_on_c, 0, 59, 80
1, 274866, Note_off_c, 0, 57, 72
1, 274875, Note_off_c, 0, 59, 67
1, 274880, Note_off_c, 0, 60, 61
1, 274937, Note_on_c, 0, 57, 84
1, 274940, Note_on_c, 0, 59, 80
1, 274942, Note_on_c, 0, 60, 87
1, 274973, Note_off_c, 0, 57, 58
1, 274980, Note_off_c, 0, 59, 64
1, 274989, Note_off_c, 0, 60, 64
1, 275056, Control_c, 0, 64, 97
1, 275060, Note_on_c, 0, 59, 82
1, 275060, Note_on_c, 0, 60, 78
1, 275062, Note_on_c, 0, 57, 71
1, 275071, Control_c, 0, 64, 68
1, 275083, Note_off_c, 0, 57, 63
1, 275086, Control_c, 0, 64, 56
1, 275088, Note_off_c, 0, 59, 66
1, 275095, Note_off_c, 0, 60, 64
1, 275101, Control_c, 0, 64, 70
1, 275116, Control_c, 0, 64, 78
1, 275129, Note_on_c, 0, 62, 115
1, 275131, Control_c, 0, 64, 89
1, 275146, Control_c, 0, 64, 111
1, 275149, Note_on_c, 0, 57, 81
1, 275149, Note_on_c, 0, 60, 90
1, 275155, Note_on_c, 0, 59, 91
1, 275157, Note_off_c, 0, 62, 69
1, 275161, Control_c, 0, 64, 127
1, 275197, Note_off_c, 0, 57, 60
1, 275200, Note_off_c, 0, 59, 62
1, 275205, Note_off_c, 0, 60, 65
1, 275281, Note_on_c, 0, 59, 76
1, 275282, Note_on_c, 0, 60, 80
1, 275323, Note_off_c, 0, 59, 57
1, 275334, Note_off_c, 0, 60, 63
1, 275367, Control_c, 0, 64, 104
1, 275382, Control_c, 0, 64, 67
1, 275388, Note_on_c, 0, 57, 107
1, 275397, Control_c, 0, 64, 0
1, 275398, Note_on_c, 0, 60, 79
1, 275403, Note_on_c, 0, 59, 69
1, 275412, Control_c, 0, 64, 59
1, 275426, Control_c, 0, 64, 71
1, 275441, Control_c, 0, 64, 81
1, 275456, Note_off_c, 0, 60, 61
1, 275456, Control_c, 0, 64, 98
1, 275471, Control_c, 0, 64, 127
1, 275527, Note_on_c, 0, 60, 72
1, 275562, Note_off_c, 0, 57, 58
1, 275566, Note_off_c, 0, 59, 63
1, 275566, Note_off_c, 0, 60, 51
1, 275636, Control_c, 0, 64, 92
1, 275650, Note_on_c, 0, 55, 107
1, 275651, Control_c, 0, 64, 0
1, 275653, Note_on_c, 0, 60, 78
1, 275656, Note_on_c, 0, 59, 75
1, 275676, Note_off_c, 0, 59, 67
1, 275680, Control_c, 0, 64, 46
1, 275682, Note_off_c, 0, 60, 66
1, 275695, Control_c, 0, 64, 65
1, 275710, Control_c, 0, 64, 71
1, 275724, Control_c, 0, 64, 80
1, 275739, Control_c, 0, 64, 93
1, 275754, Control_c, 0, 64, 123
1, 275765, Note_on_c, 0, 59, 64
1, 275775, Note_on_c, 0, 60, 75
1, 275777, Control_c, 0, 64, 127
1, 275795, Note_off_c, 0, 60, 70
1, 275796, Note_off_c, 0, 59, 68
1, 275803, Note_off_c, 0, 55, 57
1, 275873, Note_on_c, 0, 53, 107
1, 275873, Note_on_c, 0, 60, 86
1, 275874, Note_on_c, 0, 59, 81
1, 275906, Note_off_c, 0, 59, 58
1, 275921, Note_off_c, 0, 60, 61
1, 275986, Note_off_c, 0, 53, 62
1, 275989, Note_on_c, 0, 60, 72
1, 275991, Note_on_c, 0, 59, 75
1, 276011, Note_off_c, 0, 59, 69
1, 276021, Note_off_c, 0, 60, 62
1, 276073, Control_c, 0, 64, 101
1, 276085, Note_on_c, 0, 52, 104
1, 276088, Note_on_c, 0, 59, 77
1, 276088, Control_c, 0, 64, 57
1, 276094, Note_on_c, 0, 57, 76
1, 276095, Note_on_c, 0, 60, 82
1, 276103, Control_c, 0, 64, 0
1, 276116, Note_off_c, 0, 57, 68
1, 276118, Note_off_c, 0, 59, 63
1, 276120, Note_off_c, 0, 60, 68
1, 276162, Control_c, 0, 64, 61
1, 276177, Control_c, 0, 64, 70
1, 276187, Note_on_c, 0, 57, 70
1, 276191, Control_c, 0, 64, 78
1, 276196, Note_on_c, 0, 59, 77
1, 276198, Note_on_c, 0, 60, 78
1, 276206, Control_c, 0, 64, 88
1, 276213, Note_off_c, 0, 57, 65
1, 276220, Note_off_c, 0, 59, 65
1, 276221, Control_c, 0, 64, 97
1, 276222, Note_off_c, 0, 60, 68
1, 276236, Control_c, 0, 64, 100
1, 276250, Control_c, 0, 64, 102
1, 276265, Control_c, 0, 64, 108
1, 276280, Control_c, 0, 64, 124
1, 276281, Note_on_c, 0, 57, 74
1, 276295, Note_on_c, 0, 59, 74
1, 276296, Control_c, 0, 64, 127
1, 276296, Note_on_c, 0, 60, 68
1, 276296, Note_off_c, 0, 52, 57
1, 276317, Note_off_c, 0, 59, 67
1, 276318, Note_off_c, 0, 57, 61
1, 276322, Note_off_c, 0, 60, 68
1, 276383, Note_on_c, 0, 44, 99
1, 276398, Note_on_c, 0, 60, 68
1, 276399, Note_on_c, 0, 59, 68
1, 276401, Note_on_c, 0, 57, 60
1, 276421, Note_off_c, 0, 57, 66
1, 276422, Note_off_c, 0, 60, 68
1, 276424, Note_off_c, 0, 59, 66
1, 276450, Note_off_c, 0, 44, 64
1, 276458, Control_c, 0, 64, 73
1, 276472, Control_c, 0, 64, 0
1, 276481, Note_on_c, 0, 51, 109
1, 276484, Note_on_c, 0, 57, 77
1, 276487, Note_on_c, 0, 59, 78
1, 276493, Note_on_c, 0, 60, 78
1, 276504, Note_on_c, 0, 52, 79
1, 276525, Control_c, 0, 64, 35
1, 276526, Note_off_c, 0, 57, 62
1, 276531, Note_off_c, 0, 59, 59
1, 276531, Note_off_c, 0, 60, 64
1, 276534, Note_on_c, 0, 53, 45
1, 276540, Control_c, 0, 64, 68
1, 276554, Control_c, 0, 64, 78
1, 276564, Note_off_c, 0, 53, 59
1, 276569, Control_c, 0, 64, 91
1, 276583, Note_off_c, 0, 52, 43
1, 276584, Control_c, 0, 64, 106
1, 276599, Control_c, 0, 64, 127
1, 276608, Note_on_c, 0, 59, 64
1, 276612, Note_on_c, 0, 57, 55
1, 276614, Note_on_c, 0, 60, 57
1, 276631, Note_off_c, 0, 59, 63
1, 276632, Note_off_c, 0, 57, 63
1, 276634, Note_off_c, 0, 60, 64
1, 276693, Note_on_c, 0, 44, 94
1, 276695, Note_on_c, 0, 60, 73
1, 276696, Note_on_c, 0, 59, 67
1, 276699, Note_on_c, 0, 57, 64
1, 276705, Note_off_c, 0, 51, 60
1, 276720, Note_off_c, 0, 57, 69
1, 276731, Note_off_c, 0, 59, 58
1, 276735, Note_off_c, 0, 60, 64
1, 276736, Note_off_c, 0, 44, 66
1, 276807, Note_on_c, 0, 57, 66
1, 276809, Note_on_c, 0, 59, 73
1, 276810, Note_on_c, 0, 60, 69
1, 276825, Note_off_c, 0, 57, 66
1, 276828, Note_off_c, 0, 60, 71
1, 276833, Note_off_c, 0, 59, 67
1, 276836, Control_c, 0, 64, 99
1, 276851, Control_c, 0, 64, 67
1, 276866, Control_c, 0, 64, 0
1, 276895, Note_on_c, 0, 57, 67
1, 276899, Note_on_c, 0, 60, 69
1, 276901, Note_on_c, 0, 59, 73
1, 276923, Note_off_c, 0, 57, 66
1, 276925, Note_off_c, 0, 59, 62
1, 276931, Note_off_c, 0, 60, 64
1, 276995, Note_on_c, 0, 45, 97
1, 277001, Note_on_c, 0, 57, 71
1, 277007, Note_on_c, 0, 59, 74
1, 277010, Note_on_c, 0, 60, 65
1, 277027, Note_off_c, 0, 57, 67
1, 277030, Note_off_c, 0, 59, 68
1, 277036, Note_off_c, 0, 60, 67
1, 277043, Note_off_c, 0, 45, 67
1, 277058, Control_c, 0, 64, 56
1, 277072, Control_c, 0, 64, 62
1, 277087, Control_c, 0, 64, 65
1, 277089, Note_on_c, 0, 44, 90
1, 277093, Note_on_c, 0, 59, 76
1, 277093, Note_on_c, 0, 60, 75
1, 277095, Note_on_c, 0, 57, 75
1, 277103, Control_c, 0, 64, 69
1, 277109, Note_on_c, 0, 42, 43
1, 277118, Control_c, 0, 64, 72
1, 277122, Note_off_c, 0, 57, 63
1, 277130, Note_off_c, 0, 59, 62
1, 277133, Control_c, 0, 64, 73
1, 277134, Note_off_c, 0, 60, 61
1, 277143, Note_off_c, 0, 42, 49
1, 277148, Control_c, 0, 64, 74
1, 277154, Note_off_c, 0, 44, 64
1, 277162, Control_c, 0, 64, 76
1, 277177, Control_c, 0, 64, 79
1, 277192, Control_c, 0, 64, 81
1, 277194, Note_on_c, 0, 43, 94
1, 277200, Note_on_c, 0, 57, 70
1, 277204, Note_on_c, 0, 59, 74
1, 277206, Note_on_c, 0, 60, 68
1, 277207, Control_c, 0, 64, 80
1, 277222, Control_c, 0, 64, 73
1, 277224, Note_off_c, 0, 57, 68
1, 277235, Note_off_c, 0, 59, 64
1, 277235, Note_off_c, 0, 60, 66
1, 277237, Control_c, 0, 64, 64
1, 277251, Control_c, 0, 64, 56
1, 277274, Control_c, 0, 64, 69
1, 277289, Control_c, 0, 64, 76
1, 277290, Note_on_c, 0, 42, 92
1, 277301, Note_on_c, 0, 57, 74
1, 277302, Note_on_c, 0, 60, 75
1, 277303, Note_on_c, 0, 59, 83
1, 277303, Control_c, 0, 64, 85
1, 277309, Note_off_c, 0, 43, 64
1, 277318, Control_c, 0, 64, 97
1, 277333, Control_c, 0, 64, 115
1, 277334, Note_off_c, 0, 42, 66
1, 277338, Note_off_c, 0, 57, 58
1, 277348, Note_off_c, 0, 59, 56
1, 277348, Control_c, 0, 64, 127
1, 277349, Note_off_c, 0, 60, 65
1, 277412, Note_on_c, 0, 60, 68
1, 277413, Note_on_c, 0, 59, 65
1, 277414, Note_on_c, 0, 57, 66
1, 277439, Note_off_c, 0, 57, 67
1, 277445, Note_off_c, 0, 59, 58
1, 277456, Note_off_c, 0, 60, 65
1, 277495, Control_c, 0, 64, 90
1, 277509, Note_on_c, 0, 45, 97
1, 277510, Control_c, 0, 64, 0
1, 277520, Note_on_c, 0, 57, 71
1, 277526, Note_on_c, 0, 59, 70
1, 277528, Note_on_c, 0, 60, 66
1, 277544, Note_off_c, 0, 45, 66
1, 277545, Note_off_c, 0, 57, 65
1, 277552, Note_off_c, 0, 59, 66
1, 277557, Note_off_c, 0, 60, 66
1, 277605, Note_on_c, 0, 44, 96
1, 277615, Note_on_c, 0, 59, 77
1, 277616, Note_on_c, 0, 60, 80
1, 277617, Note_on_c, 0, 57, 70
1, 277638, Note_off_c, 0, 44, 63
1, 277641, Note_off_c, 0, 57, 66
1, 277647, Note_off_c, 0, 59, 63
1, 277654, Note_off_c, 0, 60, 63
1, 277706, Note_on_c, 0, 43, 96
1, 277710, Note_on_c, 0, 57, 79
1, 277718, Note_on_c, 0, 60, 79
1, 277719, Note_on_c, 0, 59, 82
1, 277733, Control_c, 0, 64, 68
1, 277742, Note_off_c, 0, 57, 65
1, 277747, Note_off_c, 0, 59, 63
1, 277748, Note_off_c, 0, 60, 66
1, 277748, Control_c, 0, 64, 85
1, 277755, Note_off_c, 0, 43, 64
1, 277763, Control_c, 0, 64, 93
1, 277777, Control_c, 0, 64, 95
1, 277786, Note_on_c, 0, 42, 96
1, 277821, Control_c, 0, 64, 94
1, 277823, Note_off_c, 0, 42, 65
1, 277823, Note_on_c, 0, 57, 70
1, 277828, Note_on_c, 0, 60, 76
1, 277829, Note_on_c, 0, 59, 79
1, 277845, Note_off_c, 0, 57, 68
1, 277853, Note_off_c, 0, 60, 64
1, 277855, Note_off_c, 0, 59, 66
1, 277866, Control_c, 0, 64, 94
1, 277867, Poly_aftertouch_c, 0, 43, 0
1, 277897, Control_c, 0, 64, 92
1, 277911, Control_c, 0, 64, 84
1, 277924, Note_on_c, 0, 59, 73
1, 277926, Control_c, 0, 64, 64
1, 277927, Note_on_c, 0, 57, 72
1, 277930, Note_on_c, 0, 60, 79
1, 277941, Control_c, 0, 64, 0
1, 277948, Note_off_c, 0, 57, 68
1, 277959, Note_off_c, 0, 59, 63
1, 277960, Note_off_c, 0, 60, 63
1, 278031, Note_on_c, 0, 32, 99
1, 278043, Note_on_c, 0, 57, 69
1, 278043, Note_on_c, 0, 59, 80
1, 278044, Note_on_c, 0, 60, 79
1, 278064, Note_off_c, 0, 59, 67
1, 278068, Note_off_c, 0, 57, 66
1, 278069, Note_off_c, 0, 60, 68
1, 278112, Control_c, 0, 64, 68
1, 278126, Control_c, 0, 64, 76
1, 278130, Note_on_c, 0, 42, 100
1, 278132, Note_on_c, 0, 57, 76
1, 278138, Note_on_c, 0, 59, 84
1, 278140, Note_on_c, 0, 60, 79
1, 278141, Control_c, 0, 64, 80
1, 278156, Control_c, 0, 64, 83
1, 278160, Note_off_c, 0, 32, 63
1, 278171, Note_off_c, 0, 57, 58
1, 278171, Control_c, 0, 64, 85
1, 278177, Note_off_c, 0, 59, 57
1, 278180, Note_off_c, 0, 60, 62
1, 278186, Control_c, 0, 64, 86
1, 278193, Note_off_c, 0, 42, 64
1, 278200, Control_c, 0, 64, 86
1, 278215, Control_c, 0, 64, 88
1, 278230, Control_c, 0, 64, 91
1, 278244, Control_c, 0, 64, 94
1, 278247, Note_on_c, 0, 60, 75
1, 278253, Note_on_c, 0, 59, 65
1, 278254, Note_on_c, 0, 57, 63
1, 278259, Control_c, 0, 64, 95
1, 278274, Note_off_c, 0, 57, 64
1, 278274, Control_c, 0, 64, 91
1, 278275, Note_off_c, 0, 59, 69
1, 278285, Note_off_c, 0, 60, 65
1, 278289, Control_c, 0, 64, 71
1, 278304, Control_c, 0, 64, 0
1, 278326, Note_on_c, 0, 42, 97
1, 278338, Note_on_c, 0, 57, 79
1, 278342, Note_on_c, 0, 60, 78
1, 278343, Note_on_c, 0, 59, 82
1, 278365, Note_off_c, 0, 42, 64
1, 278371, Note_off_c, 0, 57, 63
1, 278378, Control_c, 0, 64, 59
1, 278381, Note_off_c, 0, 59, 59
1, 278386, Note_off_c, 0, 60, 64
1, 278392, Control_c, 0, 64, 69
1, 278407, Control_c, 0, 64, 75
1, 278422, Note_on_c, 0, 29, 91
1, 278422, Control_c, 0, 64, 74
1, 278437, Control_c, 0, 64, 64
1, 278445, Note_on_c, 0, 57, 71
1, 278445, Note_on_c, 0, 60, 67
1, 278449, Note_on_c, 0, 59, 63
1, 278452, Control_c, 0, 64, 0
1, 278479, Note_off_c, 0, 57, 62
1, 278482, Note_off_c, 0, 59, 64
1, 278489, Note_off_c, 0, 60, 65
1, 278511, Control_c, 0, 64, 60
1, 278526, Control_c, 0, 64, 66
1, 278536, Note_off_c, 0, 29, 64
1, 278541, Control_c, 0, 64, 71
1, 278550, Note_on_c, 0, 60, 75
1, 278554, Note_on_c, 0, 57, 66
1, 278556, Note_on_c, 0, 59, 70
1, 278556, Control_c, 0, 64, 78
1, 278571, Control_c, 0, 64, 87
1, 278579, Note_off_c, 0, 57, 67
1, 278585, Note_off_c, 0, 59, 66
1, 278586, Control_c, 0, 64, 93
1, 278595, Note_off_c, 0, 60, 65
1, 278600, Control_c, 0, 64, 85
1, 278616, Control_c, 0, 64, 64
1, 278631, Control_c, 0, 64, 0
1, 278636, Note_on_c, 0, 42, 108
1, 278654, Note_on_c, 0, 57, 71
1, 278660, Note_on_c, 0, 60, 80
1, 278661, Note_on_c, 0, 59, 78
1, 278669, Note_on_c, 0, 34, 56
1, 278670, Note_off_c, 0, 34, 127
1, 278690, Note_off_c, 0, 57, 61
1, 278694, Note_off_c, 0, 59, 61
1, 278705, Note_off_c, 0, 60, 63
1, 278705, Control_c, 0, 64, 11
1, 278720, Control_c, 0, 64, 55
1, 278735, Control_c, 0, 64, 63
1, 278750, Control_c, 0, 64, 66
1, 278757, Note_off_c, 0, 42, 61
1, 278772, Control_c, 0, 64, 68
1, 278787, Control_c, 0, 64, 69
1, 278789, Note_on_c, 0, 60, 65
1, 278796, Note_on_c, 0, 59, 58
1, 278801, Note_on_c, 0, 57, 49
1, 278802, Control_c, 0, 64, 71
1, 278815, Note_off_c, 0, 60, 67
1, 278816, Note_off_c, 0, 59, 64
1, 278828, Note_off_c, 0, 57, 57
1, 278832, Control_c, 0, 64, 66
1, 278847, Control_c, 0, 64, 0
1, 278881, Note_on_c, 0, 60, 83
1, 278884, Note_on_c, 0, 32, 101
1, 278887, Note_on_c, 0, 59, 65
1, 278894, Note_on_c, 0, 57, 63
1, 278912, Note_off_c, 0, 59, 65
1, 278923, Note_off_c, 0, 57, 65
1, 278926, Note_off_c, 0, 60, 62
1, 278937, Note_off_c, 0, 32, 64
1, 278950, Control_c, 0, 64, 37
1, 278965, Control_c, 0, 64, 61
1, 278980, Control_c, 0, 64, 66
1, 278982, Note_on_c, 0, 59, 61
1, 278984, Note_on_c, 0, 57, 65
1, 278986, Note_on_c, 0, 60, 71
1, 278991, Note_on_c, 0, 38, 91
1, 278995, Control_c, 0, 64, 68
1, 279010, Control_c, 0, 64, 70
1, 279015, Note_off_c, 0, 59, 58
1, 279017, Note_off_c, 0, 57, 60
1, 279021, Note_off_c, 0, 60, 65
1, 279024, Control_c, 0, 64, 71
1, 279039, Control_c, 0, 64, 71
1, 279057, Note_off_c, 0, 38, 60
1, 279069, Control_c, 0, 64, 71
1, 279082, Note_on_c, 0, 59, 48
1, 279084, Control_c, 0, 64, 64
1, 279085, Note_on_c, 0, 60, 61
1, 279099, Control_c, 0, 64, 0
1, 279113, Note_off_c, 0, 59, 50
1, 279115, Note_off_c, 0, 60, 65
1, 279160, Note_on_c, 0, 42, 104
1, 279168, Note_on_c, 0, 55, 79
1, 279173, Note_on_c, 0, 57, 76
1, 279179, Note_on_c, 0, 59, 68
1, 279188, Control_c, 0, 64, 55
1, 279193, Note_on_c, 0, 32, 53
1, 279194, Note_off_c, 0, 32, 127
1, 279197, Note_off_c, 0, 55, 65
1, 279203, Control_c, 0, 64, 67
1, 279217, Control_c, 0, 64, 70
1, 279221, Note_off_c, 0, 57, 61
1, 279228, Note_off_c, 0, 59, 59
1, 279232, Control_c, 0, 64, 72
1, 279239, Note_off_c, 0, 42, 59
1, 279262, Note_on_c, 0, 59, 58
1, 279276, Control_c, 0, 64, 73
1, 279291, Control_c, 0, 64, 74
1, 279306, Control_c, 0, 64, 70
1, 279321, Control_c, 0, 64, 38
1, 279330, Note_off_c, 0, 59, 62
1, 279336, Control_c, 0, 64, 0
1, 279361, Note_on_c, 0, 30, 88
1, 279367, Note_on_c, 0, 60, 81
1, 279373, Note_on_c, 0, 32, 62
1, 279403, Note_off_c, 0, 32, 58
1, 279409, Note_off_c, 0, 30, 60
1, 279409, Control_c, 0, 64, 64
1, 279412, Note_off_c, 0, 60, 64
1, 279424, Control_c, 0, 64, 71
1, 279439, Control_c, 0, 64, 75
1, 279451, Note_on_c, 0, 60, 81
1, 279454, Control_c, 0, 64, 79
1, 279468, Control_c, 0, 64, 81
1, 279498, Note_off_c, 0, 60, 66
1, 279499, Control_c, 0, 64, 74
1, 279522, Control_c, 0, 64, 0
1, 279556, Note_on_c, 0, 38, 112
1, 279562, Note_on_c, 0, 26, 88
1, 279563, Note_on_c, 0, 58, 89
1, 279564, Note_on_c, 0, 57, 85
1, 279589, Note_off_c, 0, 38, 68
1, 279590, Note_off_c, 0, 26, 61
1, 279596, Control_c, 0, 64, 56
1, 279605, Note_off_c, 0, 57, 64
1, 279608, Note_on_c, 0, 25, 10
1, 279609, Note_off_c, 0, 25, 127
1, 279611, Control_c, 0, 64, 75
1, 279613, Note_off_c, 0, 58, 66
1, 279626, Control_c, 0, 64, 88
1, 279640, Control_c, 0, 64, 103
1, 279655, Control_c, 0, 64, 111
1, 279662, Poly_aftertouch_c, 0, 25, 0
1, 279670, Control_c, 0, 64, 112
1, 279672, Note_on_c, 0, 60, 89
1, 279686, Poly_aftertouch_c, 0, 30, 0
1, 279714, Note_off_c, 0, 60, 67
1, 279771, Note_on_c, 0, 57, 90
1, 279823, Note_off_c, 0, 57, 60
1, 279861, Note_on_c, 0, 58, 95
1, 279903, Note_off_c, 0, 58, 66
1, 279936, Control_c, 0, 64, 101
1, 279951, Control_c, 0, 64, 71
1, 279957, Note_on_c, 0, 53, 95
1, 279960, Note_on_c, 0, 55, 89
1, 279963, Note_on_c, 0, 62, 88
1, 279964, Note_on_c, 0, 57, 79
1, 279966, Control_c, 0, 64, 0
1, 279979, Note_off_c, 0, 53, 72
1, 279982, Note_off_c, 0, 55, 71
1, 279990, Note_off_c, 0, 57, 65
1, 280010, Note_off_c, 0, 62, 63
1, 280054, Note_on_c, 0, 61, 96
1, 280060, Note_on_c, 0, 53, 84
1, 280061, Note_on_c, 0, 55, 79
1, 280062, Note_on_c, 0, 57, 84
1, 280083, Note_off_c, 0, 53, 71
1, 280085, Note_off_c, 0, 55, 68
1, 280154, Note_on_c, 0, 55, 79
1, 280160, Note_on_c, 0, 53, 86
1, 280172, Note_off_c, 0, 57, 59
1, 280181, Note_off_c, 0, 61, 57
1, 280191, Note_off_c, 0, 55, 65
1, 280213, Note_off_c, 0, 53, 64
1, 280252, Note_on_c, 0, 55, 80
1, 280270, Note_on_c, 0, 64, 95
1, 280272, Note_on_c, 0, 53, 67
1, 280279, Note_on_c, 0, 57, 77
1, 280299, Note_off_c, 0, 53, 67
1, 280300, Note_off_c, 0, 55, 66
1, 280303, Note_off_c, 0, 57, 69
1, 280321, Note_off_c, 0, 64, 63
1, 280360, Note_on_c, 0, 64, 57
1, 280362, Note_on_c, 0, 63, 93
1, 280363, Note_on_c, 0, 49, 86
1, 280368, Note_on_c, 0, 57, 86
1, 280372, Note_on_c, 0, 54, 80
1, 280381, Note_off_c, 0, 64, 66
1, 280389, Control_c, 0, 64, 44
1, 280396, Note_off_c, 0, 54, 70
1, 280398, Note_off_c, 0, 49, 60
1, 280403, Control_c, 0, 64, 67
1, 280418, Control_c, 0, 64, 70
1, 280433, Control_c, 0, 64, 72
1, 280447, Control_c, 0, 64, 74
1, 280462, Control_c, 0, 64, 75
1, 280470, Note_off_c, 0, 57, 57
1, 280471, Note_on_c, 0, 49, 81
1, 280473, Note_on_c, 0, 54, 72
1, 280492, Control_c, 0, 64, 76
1, 280496, Note_off_c, 0, 49, 66
1, 280499, Note_off_c, 0, 54, 70
1, 280507, Control_c, 0, 64, 80
1, 280521, Note_off_c, 0, 63, 58
1, 280521, Control_c, 0, 64, 83
1, 280536, Control_c, 0, 64, 84
1, 280551, Control_c, 0, 64, 78
1, 280565, Note_on_c, 0, 49, 87
1, 280566, Control_c, 0, 64, 65
1, 280571, Note_on_c, 0, 54, 85
1, 280572, Note_on_c, 0, 62, 95
1, 280580, Note_on_c, 0, 57, 75
1, 280581, Control_c, 0, 64, 0
1, 280597, Note_off_c, 0, 49, 58
1, 280598, Note_off_c, 0, 54, 69
1, 280610, Control_c, 0, 64, 49
1, 280625, Control_c, 0, 64, 64
1, 280640, Control_c, 0, 64, 69
1, 280655, Control_c, 0, 64, 74
1, 280669, Control_c, 0, 64, 78
1, 280670, Note_on_c, 0, 49, 88
1, 280672, Note_on_c, 0, 61, 94
1, 280678, Note_on_c, 0, 54, 87
1, 280684, Control_c, 0, 64, 82
1, 280694, Note_off_c, 0, 62, 57
1, 280699, Control_c, 0, 64, 87
1, 280701, Note_off_c, 0, 49, 60
1, 280705, Note_off_c, 0, 54, 62
1, 280714, Control_c, 0, 64, 92
1, 280729, Control_c, 0, 64, 100
1, 280744, Control_c, 0, 64, 115
1, 280749, Note_off_c, 0, 57, 33
1, 280759, Control_c, 0, 64, 127
1, 280759, Note_off_c, 0, 61, 64
1, 280769, Note_on_c, 0, 54, 92
1, 280771, Note_on_c, 0, 49, 72
1, 280771, Note_on_c, 0, 56, 94
1, 280774, Control_c, 0, 64, 119
1, 280785, Note_off_c, 0, 49, 73
1, 280788, Control_c, 0, 64, 75
1, 280800, Note_off_c, 0, 56, 63
1, 280803, Control_c, 0, 64, 0
1, 280811, Note_off_c, 0, 54, 65
1, 280870, Note_on_c, 0, 60, 101
1, 280875, Note_on_c, 0, 56, 87
1, 280888, Note_on_c, 0, 54, 70
1, 280909, Note_off_c, 0, 56, 61
1, 280911, Note_off_c, 0, 54, 67
1, 280918, Poly_aftertouch_c, 0, 49, 0
1, 280951, Note_off_c, 0, 60, 41
1, 280966, Note_on_c, 0, 59, 92
1, 280977, Note_on_c, 0, 54, 72
1, 281035, Note_off_c, 0, 59, 53
1, 281053, Note_off_c, 0, 54, 58
1, 281059, Note_on_c, 0, 58, 85
1, 281087, Note_on_c, 0, 56, 46
1, 281109, Note_off_c, 0, 58, 67
1, 281162, Note_on_c, 0, 57, 102
1, 281165, Note_on_c, 0, 52, 80
1, 281177, Note_on_c, 0, 46, 73
1, 281180, Note_off_c, 0, 56, 64
1, 281182, Control_c, 0, 64, 62
1, 281195, Note_off_c, 0, 57, 68
1, 281196, Note_off_c, 0, 52, 67
1, 281197, Control_c, 0, 64, 72
1, 281205, Note_off_c, 0, 46, 65
1, 281212, Control_c, 0, 64, 74
1, 281226, Control_c, 0, 64, 75
1, 281256, Control_c, 0, 64, 74
1, 281330, Control_c, 0, 64, 74
1, 281344, Control_c, 0, 64, 70
1, 281359, Control_c, 0, 64, 0
1, 281377, Note_on_c, 0, 49, 85
1, 281382, Note_on_c, 0, 57, 99
1, 281383, Note_on_c, 0, 43, 72
1, 281385, Note_on_c, 0, 55, 89
1, 281400, Note_off_c, 0, 49, 70
1, 281408, Note_off_c, 0, 43, 65
1, 281473, Note_on_c, 0, 49, 80
1, 281484, Note_on_c, 0, 43, 57
1, 281505, Note_off_c, 0, 49, 64
1, 281513, Note_off_c, 0, 43, 62
1, 281585, Note_on_c, 0, 49, 86
1, 281586, Note_on_c, 0, 43, 70
1, 281589, Note_on_c, 0, 58, 91
1, 281600, Note_off_c, 0, 57, 56
1, 281606, Note_off_c, 0, 55, 59
1, 281614, Note_off_c, 0, 49, 66
1, 281620, Note_off_c, 0, 43, 64
1, 281678, Note_on_c, 0, 43, 79
1, 281687, Note_on_c, 0, 49, 65
1, 281713, Note_on_c, 0, 50, 48
1, 281714, Note_off_c, 0, 49, 58
1, 281726, Note_off_c, 0, 43, 61
1, 281743, Note_off_c, 0, 50, 58
1, 281782, Control_c, 0, 64, 45
1, 281796, Control_c, 0, 64, 66
1, 281811, Note_on_c, 0, 46, 68
1, 281811, Note_on_c, 0, 49, 41
1, 281811, Note_on_c, 0, 57, 90
1, 281811, Control_c, 0, 64, 68
1, 281816, Note_on_c, 0, 53, 56
1, 281826, Control_c, 0, 64, 69
1, 281840, Note_off_c, 0, 46, 63
1, 281841, Control_c, 0, 64, 72
1, 281843, Note_off_c, 0, 53, 60
1, 281843, Note_off_c, 0, 58, 57
1, 281846, Note_off_c, 0, 49, 55
1, 281856, Control_c, 0, 64, 74
1, 281871, Control_c, 0, 64, 75
1, 281886, Control_c, 0, 64, 76
1, 281901, Note_on_c, 0, 53, 83
1, 281901, Control_c, 0, 64, 78
1, 281904, Note_on_c, 0, 46, 73
1, 281916, Control_c, 0, 64, 81
1, 281923, Note_off_c, 0, 53, 69
1, 281931, Control_c, 0, 64, 84
1, 281935, Note_off_c, 0, 46, 65
1, 281946, Control_c, 0, 64, 84
1, 281960, Control_c, 0, 64, 83
1, 281975, Control_c, 0, 64, 73
1, 281990, Control_c, 0, 64, 0
1, 281994, Note_off_c, 0, 57, 58
1, 282011, Note_on_c, 0, 49, 96
1, 282017, Note_on_c, 0, 55, 84
1, 282017, Note_on_c, 0, 58, 87
1, 282017, Note_on_c, 0, 42, 79
1, 282033, Note_off_c, 0, 49, 70
1, 282041, Note_off_c, 0, 42, 66
1, 282094, Control_c, 0, 64, 49
1, 282106, Note_on_c, 0, 49, 93
1, 282109, Control_c, 0, 64, 64
1, 282109, Note_on_c, 0, 42, 78
1, 282124, Control_c, 0, 64, 67
1, 282139, Control_c, 0, 64, 67
1, 282151, Note_off_c, 0, 49, 65
1, 282154, Control_c, 0, 64, 65
1, 282164, Note_off_c, 0, 42, 59
1, 282168, Control_c, 0, 64, 37
1, 282183, Control_c, 0, 64, 0
1, 282211, Note_on_c, 0, 48, 85
1, 282214, Note_on_c, 0, 45, 86
1, 282242, Control_c, 0, 64, 43
1, 282244, Note_off_c, 0, 48, 63
1, 282254, Note_off_c, 0, 45, 61
1, 282257, Control_c, 0, 64, 63
1, 282272, Control_c, 0, 64, 68
1, 282286, Control_c, 0, 64, 72
1, 282305, Note_on_c, 0, 48, 84
1, 282309, Note_on_c, 0, 45, 72
1, 282316, Control_c, 0, 64, 66
1, 282331, Control_c, 0, 64, 51
1, 282343, Note_off_c, 0, 45, 65
1, 282346, Control_c, 0, 64, 0
1, 282347, Note_off_c, 0, 48, 62
1, 282367, Note_off_c, 0, 55, 50
1, 282375, Control_c, 0, 64, 51
1, 282390, Control_c, 0, 64, 60
1, 282395, Note_off_c, 0, 58, 52
1, 282405, Control_c, 0, 64, 64
1, 282414, Note_on_c, 0, 47, 84
1, 282419, Control_c, 0, 64, 67
1, 282420, Note_on_c, 0, 57, 83
1, 282427, Note_on_c, 0, 40, 62
1, 282434, Note_on_c, 0, 41, 63
1, 282434, Control_c, 0, 64, 69
1, 282440, Note_off_c, 0, 47, 70
1, 282449, Control_c, 0, 64, 70
1, 282459, Note_off_c, 0, 40, 65
1, 282464, Note_off_c, 0, 41, 63
1, 282464, Control_c, 0, 64, 71
1, 282479, Control_c, 0, 64, 74
1, 282494, Control_c, 0, 64, 77
1, 282500, Note_on_c, 0, 47, 92
1, 282516, Control_c, 0, 64, 79
1, 282539, Note_off_c, 0, 47, 66
1, 282541, Note_on_c, 0, 40, 38
1, 282561, Control_c, 0, 64, 78
1, 282575, Control_c, 0, 64, 71
1, 282576, Note_off_c, 0, 40, 55
1, 282590, Control_c, 0, 64, 0
1, 282606, Note_off_c, 0, 57, 58
1, 282619, Note_on_c, 0, 49, 97
1, 282625, Note_on_c, 0, 39, 86
1, 282634, Note_on_c, 0, 58, 86
1, 282641, Note_on_c, 0, 55, 78
1, 282643, Note_off_c, 0, 49, 67
1, 282652, Note_off_c, 0, 39, 68
1, 282655, Note_on_c, 0, 37, 35
1, 282679, Control_c, 0, 64, 43
1, 282695, Control_c, 0, 64, 64
1, 282700, Note_off_c, 0, 37, 33
1, 282709, Control_c, 0, 64, 68
1, 282723, Note_on_c, 0, 49, 79
1, 282724, Control_c, 0, 64, 70
1, 282739, Control_c, 0, 64, 70
1, 282744, Note_on_c, 0, 50, 64
1, 282745, Note_on_c, 0, 40, 49
1, 282748, Note_off_c, 0, 49, 67
1, 282754, Control_c, 0, 64, 68
1, 282768, Note_off_c, 0, 50, 65
1, 282769, Control_c, 0, 64, 60
1, 282774, Note_off_c, 0, 40, 56
1, 282783, Control_c, 0, 64, 0
1, 282828, Note_on_c, 0, 52, 98
1, 282834, Note_on_c, 0, 46, 80
1, 282855, Note_off_c, 0, 52, 66
1, 282863, Note_off_c, 0, 46, 66
1, 282872, Control_c, 0, 64, 50
1, 282887, Control_c, 0, 64, 65
1, 282902, Control_c, 0, 64, 69
1, 282917, Control_c, 0, 64, 70
1, 282927, Note_on_c, 0, 52, 94
1, 282947, Control_c, 0, 64, 68
1, 282951, Note_on_c, 0, 47, 52
1, 282962, Control_c, 0, 64, 53
1, 282969, Note_off_c, 0, 52, 62
1, 282977, Control_c, 0, 64, 0
1, 282979, Note_off_c, 0, 47, 58
1, 282982, Note_off_c, 0, 55, 26
1, 283018, Note_on_c, 0, 51, 92
1, 283018, Note_off_c, 0, 58, 0
1, 283036, Note_on_c, 0, 57, 92
1, 283050, Control_c, 0, 64, 36
1, 283055, Poly_aftertouch_c, 0, 58, 127
1, 283061, Note_off_c, 0, 51, 65
1, 283065, Control_c, 0, 64, 65
1, 283080, Control_c, 0, 64, 69
1, 283088, Poly_aftertouch_c, 0, 58, 0
1, 283095, Control_c, 0, 64, 63
1, 283109, Control_c, 0, 64, 0
1, 283120, Note_on_c, 0, 51, 94
1, 283193, Note_off_c, 0, 51, 64
1, 283198, Control_c, 0, 64, 31
1, 283201, Note_off_c, 0, 57, 59
1, 283213, Control_c, 0, 64, 64
1, 283228, Note_on_c, 0, 54, 94
1, 283228, Control_c, 0, 64, 71
1, 283242, Control_c, 0, 64, 76
1, 283265, Control_c, 0, 64, 81
1, 283280, Control_c, 0, 64, 82
1, 283287, Note_off_c, 0, 54, 68
1, 283369, Control_c, 0, 64, 77
1, 283384, Control_c, 0, 64, 58
1, 283388, Note_on_c, 0, 42, 27
1, 283398, Control_c, 0, 64, 0
1, 283418, Note_off_c, 0, 42, 0
1, 283429, Note_on_c, 0, 50, 109
1, 283433, Poly_aftertouch_c, 0, 42, 0
1, 283433, Note_on_c, 0, 38, 83
1, 283436, Note_on_c, 0, 39, 78
1, 283436, Note_on_c, 0, 57, 91
1, 283436, Note_on_c, 0, 58, 95
1, 283457, Control_c, 0, 64, 67
1, 283460, Note_off_c, 0, 38, 68
1, 283470, Note_off_c, 0, 50, 69
1, 283472, Control_c, 0, 64, 86
1, 283485, Note_off_c, 0, 39, 61
1, 283486, Note_off_c, 0, 57, 61
1, 283488, Control_c, 0, 64, 117
1, 283503, Control_c, 0, 64, 127
1, 283521, Note_off_c, 0, 58, 67
1, 283549, Note_on_c, 0, 60, 89
1, 283594, Note_off_c, 0, 60, 68
1, 283644, Note_on_c, 0, 57, 94
1, 283707, Note_off_c, 0, 57, 60
1, 283725, Control_c, 0, 64, 83
1, 283738, Note_on_c, 0, 58, 94
1, 283740, Control_c, 0, 64, 0
1, 283785, Note_off_c, 0, 58, 67
1, 283847, Note_on_c, 0, 62, 101
1, 283853, Note_on_c, 0, 57, 80
1, 283856, Note_on_c, 0, 52, 84
1, 283858, Note_on_c, 0, 50, 77
1, 283878, Note_off_c, 0, 57, 65
1, 283881, Note_off_c, 0, 52, 68
1, 283886, Note_off_c, 0, 50, 68
1, 283899, Note_off_c, 0, 62, 64
1, 283943, Note_on_c, 0, 61, 96
1, 283946, Note_on_c, 0, 50, 73
1, 283950, Note_on_c, 0, 52, 84
1, 283953, Note_on_c, 0, 57, 86
1, 283977, Note_off_c, 0, 52, 67
1, 283979, Note_off_c, 0, 50, 67
1, 284056, Note_off_c, 0, 57, 56
1, 284056, Note_on_c, 0, 52, 82
1, 284059, Control_c, 0, 64, 45
1, 284062, Note_on_c, 0, 50, 76
1, 284068, Note_off_c, 0, 61, 59
1, 284073, Control_c, 0, 64, 62
1, 284088, Control_c, 0, 64, 65
1, 284092, Note_off_c, 0, 52, 62
1, 284093, Note_off_c, 0, 50, 65
1, 284103, Control_c, 0, 64, 66
1, 284118, Control_c, 0, 64, 67
1, 284133, Control_c, 0, 64, 68
1, 284147, Control_c, 0, 64, 70
1, 284158, Note_on_c, 0, 64, 95
1, 284160, Note_on_c, 0, 50, 65
1, 284162, Control_c, 0, 64, 72
1, 284164, Note_on_c, 0, 57, 77
1, 284167, Note_on_c, 0, 52, 78
1, 284177, Control_c, 0, 64, 73
1, 284191, Control_c, 0, 64, 74
1, 284193, Note_off_c, 0, 57, 65
1, 284196, Note_off_c, 0, 50, 65
1, 284210, Note_off_c, 0, 52, 58
1, 284213, Note_off_c, 0, 64, 63
1, 284236, Control_c, 0, 64, 70
1, 284251, Control_c, 0, 64, 41
1, 284265, Note_on_c, 0, 63, 98
1, 284265, Control_c, 0, 64, 0
1, 284278, Note_on_c, 0, 57, 86
1, 284280, Note_on_c, 0, 56, 86
1, 284282, Note_on_c, 0, 49, 76
1, 284333, Note_off_c, 0, 56, 63
1, 284336, Note_off_c, 0, 49, 60
1, 284355, Control_c, 0, 64, 36
1, 284370, Control_c, 0, 64, 63
1, 284385, Control_c, 0, 64, 69
1, 284387, Note_off_c, 0, 57, 57
1, 284394, Note_on_c, 0, 56, 78
1, 284400, Control_c, 0, 64, 73
1, 284403, Note_on_c, 0, 49, 72
1, 284414, Control_c, 0, 64, 76
1, 284426, Note_off_c, 0, 63, 61
1, 284429, Control_c, 0, 64, 78
1, 284444, Control_c, 0, 64, 81
1, 284452, Note_off_c, 0, 56, 64
1, 284459, Control_c, 0, 64, 83
1, 284468, Note_off_c, 0, 49, 62
1, 284474, Control_c, 0, 64, 85
1, 284488, Control_c, 0, 64, 84
1, 284503, Control_c, 0, 64, 77
1, 284518, Control_c, 0, 64, 63
1, 284533, Note_on_c, 0, 67, 104
1, 284533, Control_c, 0, 64, 0
1, 284543, Note_on_c, 0, 56, 78
1, 284543, Note_on_c, 0, 57, 81
1, 284545, Note_on_c, 0, 49, 67
1, 284548, Control_c, 0, 64, 61
1, 284563, Control_c, 0, 64, 67
1, 284563, Note_off_c, 0, 57, 68
1, 284566, Note_off_c, 0, 56, 67
1, 284577, Control_c, 0, 64, 71
1, 284583, Note_off_c, 0, 49, 63
1, 284586, Note_off_c, 0, 67, 53
1, 284592, Control_c, 0, 64, 76
1, 284606, Control_c, 0, 64, 85
1, 284621, Control_c, 0, 64, 97
1, 284636, Control_c, 0, 64, 110
1, 284651, Note_on_c, 0, 56, 87
1, 284651, Control_c, 0, 64, 123
1, 284655, Note_on_c, 0, 49, 79
1, 284658, Note_on_c, 0, 66, 101
1, 284662, Note_on_c, 0, 57, 88
1, 284666, Control_c, 0, 64, 127
1, 284687, Note_off_c, 0, 56, 59
1, 284693, Note_off_c, 0, 49, 62
1, 284695, Control_c, 0, 64, 117
1, 284705, Note_off_c, 0, 57, 57
1, 284710, Control_c, 0, 64, 81
1, 284725, Control_c, 0, 64, 0
1, 284759, Note_on_c, 0, 49, 88
1, 284762, Note_on_c, 0, 59, 90
1, 284789, Note_off_c, 0, 59, 65
1, 284813, Note_off_c, 0, 49, 62
1, 284816, Note_off_c, 0, 66, 50
1, 284852, Note_on_c, 0, 49, 81
1, 284853, Note_on_c, 0, 64, 98
1, 284855, Note_on_c, 0, 59, 89
1, 284888, Note_off_c, 0, 59, 61
1, 284902, Note_off_c, 0, 49, 61
1, 284953, Note_on_c, 0, 49, 85
1, 284956, Note_on_c, 0, 63, 90
1, 284956, Note_off_c, 0, 64, 58
1, 284957, Note_on_c, 0, 59, 90
1, 284993, Note_off_c, 0, 59, 61
1, 285028, Control_c, 0, 64, 51
1, 285041, Note_on_c, 0, 61, 89
1, 285043, Note_off_c, 0, 63, 61
1, 285043, Control_c, 0, 64, 62
1, 285058, Control_c, 0, 64, 64
1, 285065, Note_on_c, 0, 59, 83
1, 285073, Control_c, 0, 64, 66
1, 285084, Note_off_c, 0, 61, 62
1, 285089, Control_c, 0, 64, 67
1, 285100, Note_off_c, 0, 59, 56
1, 285118, Control_c, 0, 64, 68
1, 285120, Note_off_c, 0, 49, 61
1, 285133, Control_c, 0, 64, 69
1, 285148, Note_on_c, 0, 54, 85
1, 285148, Control_c, 0, 64, 70
1, 285152, Note_on_c, 0, 46, 77
1, 285160, Note_on_c, 0, 60, 92
1, 285163, Control_c, 0, 64, 70
1, 285170, Note_on_c, 0, 53, 78
1, 285183, Note_off_c, 0, 60, 70
1, 285188, Note_off_c, 0, 53, 69
1, 285192, Control_c, 0, 64, 69
1, 285193, Note_off_c, 0, 54, 62
1, 285194, Note_off_c, 0, 46, 60
1, 285207, Control_c, 0, 64, 68
1, 285222, Control_c, 0, 64, 67
1, 285236, Control_c, 0, 64, 66
1, 285251, Control_c, 0, 64, 65
1, 285266, Control_c, 0, 64, 64
1, 285281, Control_c, 0, 64, 63
1, 285296, Control_c, 0, 64, 62
1, 285311, Control_c, 0, 64, 60
1, 285326, Control_c, 0, 64, 38
1, 285341, Control_c, 0, 64, 0
1, 285356, Note_on_c, 0, 60, 102
1, 285360, Note_on_c, 0, 52, 83
1, 285360, Note_on_c, 0, 55, 91
1, 285364, Note_on_c, 0, 46, 77
1, 285394, Note_off_c, 0, 52, 63
1, 285400, Note_off_c, 0, 46, 62
1, 285466, Note_on_c, 0, 52, 86
1, 285473, Note_on_c, 0, 46, 62
1, 285499, Note_off_c, 0, 52, 64
1, 285510, Note_off_c, 0, 46, 63
1, 285573, Note_on_c, 0, 46, 87
1, 285579, Note_on_c, 0, 52, 85
1, 285580, Note_on_c, 0, 61, 86
1, 285615, Note_off_c, 0, 60, 59
1, 285618, Note_off_c, 0, 52, 60
1, 285619, Note_off_c, 0, 55, 59
1, 285627, Note_off_c, 0, 46, 60
1, 285644, Control_c, 0, 64, 40
1, 285659, Control_c, 0, 64, 53
1, 285674, Control_c, 0, 64, 59
1, 285689, Control_c, 0, 64, 63
1, 285702, Note_on_c, 0, 54, 87
1, 285704, Control_c, 0, 64, 64
1, 285718, Note_on_c, 0, 56, 65
1, 285718, Control_c, 0, 64, 65
1, 285733, Control_c, 0, 64, 67
1, 285741, Note_off_c, 0, 56, 61
1, 285747, Note_off_c, 0, 54, 63
1, 285748, Control_c, 0, 64, 70
1, 285762, Control_c, 0, 64, 71
1, 285777, Control_c, 0, 64, 71
1, 285785, Note_on_c, 0, 56, 101
1, 285785, Note_on_c, 0, 60, 96
1, 285792, Control_c, 0, 64, 68
1, 285796, Note_on_c, 0, 58, 84
1, 285797, Note_on_c, 0, 55, 84
1, 285807, Control_c, 0, 64, 65
1, 285809, Note_off_c, 0, 61, 57
1, 285822, Control_c, 0, 64, 62
1, 285830, Note_off_c, 0, 56, 65
1, 285832, Note_off_c, 0, 55, 66
1, 285836, Control_c, 0, 64, 58
1, 285851, Control_c, 0, 64, 53
1, 285866, Control_c, 0, 64, 51
1, 285882, Control_c, 0, 64, 53
1, 285897, Control_c, 0, 64, 56
1, 285912, Control_c, 0, 64, 58
1, 285927, Control_c, 0, 64, 59
1, 285941, Control_c, 0, 64, 54
1, 285956, Control_c, 0, 64, 0
1, 285997, Note_on_c, 0, 52, 94
1, 286005, Note_on_c, 0, 61, 89
1, 286006, Note_off_c, 0, 58, 63
1, 286008, Note_on_c, 0, 57, 82
1, 286013, Note_on_c, 0, 44, 63
1, 286023, Note_off_c, 0, 52, 68
1, 286031, Note_off_c, 0, 60, 60
1, 286040, Note_on_c, 0, 49, 11
1, 286044, Note_off_c, 0, 44, 65
1, 286089, Note_off_c, 0, 49, 27
1, 286100, Note_on_c, 0, 52, 96
1, 286104, Note_on_c, 0, 44, 84
1, 286205, Note_on_c, 0, 51, 86
1, 286208, Note_off_c, 0, 52, 64
1, 286238, Control_c, 0, 64, 56
1, 286248, Note_off_c, 0, 44, 56
1, 286259, Control_c, 0, 64, 63
1, 286274, Control_c, 0, 64, 65
1, 286289, Control_c, 0, 64, 65
1, 286304, Control_c, 0, 64, 65
1, 286319, Control_c, 0, 64, 64
1, 286323, Note_on_c, 0, 54, 95
1, 286333, Control_c, 0, 64, 65
1, 286339, Note_off_c, 0, 51, 64
1, 286339, Note_off_c, 0, 57, 46
1, 286348, Control_c, 0, 64, 65
1, 286378, Control_c, 0, 64, 61
1, 286393, Control_c, 0, 64, 0
1, 286411, Note_off_c, 0, 61, 54
1, 286417, Note_on_c, 0, 50, 85
1, 286423, Note_on_c, 0, 60, 94
1, 286431, Note_on_c, 0, 58, 87
1, 286431, Note_off_c, 0, 54, 66
1, 286528, Note_on_c, 0, 51, 84
1, 286628, Note_off_c, 0, 50, 37
1, 286649, Note_on_c, 0, 57, 101
1, 286660, Note_off_c, 0, 58, 59
1, 286674, Control_c, 0, 64, 73
1, 286682, Note_off_c, 0, 60, 62
1, 286684, Note_off_c, 0, 57, 70
1, 286690, Control_c, 0, 64, 92
1, 286691, Note_off_c, 0, 51, 65
1, 286705, Control_c, 0, 64, 127
1, 286838, Control_c, 0, 64, 106
1, 286852, Control_c, 0, 64, 74
1, 286867, Control_c, 0, 64, 0
1, 287031, Note_on_c, 0, 42, 66
1, 287031, Note_on_c, 0, 56, 79
1, 287047, Note_on_c, 0, 37, 42
1, 287056, Note_on_c, 0, 52, 44
1, 287061, Note_off_c, 0, 42, 64
1, 287064, Note_off_c, 0, 56, 62
1, 287081, Note_off_c, 0, 37, 52
1, 287091, Note_off_c, 0, 52, 51
1, 287135, Note_on_c, 0, 39, 75
1, 287144, Note_on_c, 0, 32, 50
1, 287146, Note_on_c, 0, 56, 79
1, 287147, Note_on_c, 0, 37, 63
1, 287157, Note_on_c, 0, 52, 65
1, 287161, Note_off_c, 0, 39, 64
1, 287171, Control_c, 0, 64, 63
1, 287174, Note_off_c, 0, 37, 60
1, 287177, Note_off_c, 0, 32, 55
1, 287186, Control_c, 0, 64, 68
1, 287190, Note_off_c, 0, 52, 61
1, 287200, Control_c, 0, 64, 68
1, 287215, Control_c, 0, 64, 59
1, 287216, Note_off_c, 0, 56, 60
1, 287230, Control_c, 0, 64, 0
1, 287236, Note_on_c, 0, 57, 72
1, 287288, Note_off_c, 0, 57, 60
1, 287340, Note_on_c, 0, 59, 78
1, 287443, Note_on_c, 0, 54, 76
1, 287451, Note_on_c, 0, 45, 80
1, 287454, Note_on_c, 0, 35, 65
1, 287455, Note_on_c, 0, 52, 62
1, 287475, Note_off_c, 0, 54, 68
1, 287475, Note_off_c, 0, 45, 67
1, 287481, Note_off_c, 0, 52, 58
1, 287496, Note_off_c, 0, 35, 64
1, 287517, Note_off_c, 0, 59, 54
1, 287543, Note_on_c, 0, 45, 91
1, 287551, Note_on_c, 0, 52, 82
1, 287555, Note_on_c, 0, 54, 87
1, 287561, Note_on_c, 0, 32, 47
1, 287561, Note_on_c, 0, 35, 62
1, 287570, Note_off_c, 0, 45, 68
1, 287572, Control_c, 0, 64, 65
1, 287586, Control_c, 0, 64, 83
1, 287593, Note_off_c, 0, 52, 60
1, 287594, Note_off_c, 0, 35, 63
1, 287595, Note_off_c, 0, 32, 54
1, 287601, Control_c, 0, 64, 94
1, 287603, Note_off_c, 0, 54, 65
1, 287616, Control_c, 0, 64, 99
1, 287630, Control_c, 0, 64, 98
1, 287645, Control_c, 0, 64, 84
1, 287648, Note_on_c, 0, 63, 91
1, 287660, Control_c, 0, 64, 61
1, 287675, Control_c, 0, 64, 0
1, 287698, Note_off_c, 0, 63, 60
1, 287766, Note_on_c, 0, 63, 94
1, 287855, Note_on_c, 0, 46, 77
1, 287860, Note_on_c, 0, 41, 71
1, 287862, Note_on_c, 0, 62, 82
1, 287863, Note_on_c, 0, 55, 80
1, 287881, Note_off_c, 0, 46, 65
1, 287892, Note_off_c, 0, 55, 67
1, 287902, Note_off_c, 0, 41, 62
1, 287914, Note_off_c, 0, 62, 63
1, 287955, Note_on_c, 0, 46, 87
1, 287957, Note_on_c, 0, 41, 84
1, 287968, Note_on_c, 0, 55, 93
1, 287973, Note_on_c, 0, 62, 72
1, 287974, Note_on_c, 0, 34, 45
1, 287979, Control_c, 0, 64, 67
1, 287979, Note_off_c, 0, 63, 36
1, 287988, Note_off_c, 0, 46, 63
1, 287988, Note_off_c, 0, 41, 66
1, 287994, Control_c, 0, 64, 92
1, 288008, Control_c, 0, 64, 127
1, 288011, Note_off_c, 0, 34, 48
1, 288017, Note_off_c, 0, 55, 64
1, 288030, Note_on_c, 0, 61, 3
1, 288033, Note_off_c, 0, 62, 62
1, 288070, Note_on_c, 0, 66, 89
1, 288077, Note_off_c, 0, 61, 46
1, 288083, Control_c, 0, 64, 94
1, 288098, Control_c, 0, 64, 65
1, 288112, Control_c, 0, 64, 0
1, 288115, Note_off_c, 0, 66, 63
1, 288177, Note_on_c, 0, 66, 96
1, 288276, Note_on_c, 0, 61, 90
1, 288277, Note_on_c, 0, 57, 86
1, 288279, Note_on_c, 0, 49, 87
1, 288283, Note_on_c, 0, 42, 77
1, 288299, Note_on_c, 0, 37, 48
1, 288303, Note_off_c, 0, 57, 66
1, 288305, Note_off_c, 0, 49, 69
1, 288327, Note_off_c, 0, 42, 62
1, 288328, Note_off_c, 0, 61, 63
1, 288330, Note_off_c, 0, 37, 58
1, 288339, Note_off_c, 0, 66, 58
1, 288375, Poly_aftertouch_c, 0, 42, 0
1, 288378, Note_on_c, 0, 49, 96
1, 288381, Control_c, 0, 64, 56
1, 288381, Note_on_c, 0, 42, 77
1, 288390, Note_on_c, 0, 57, 93
1, 288391, Note_on_c, 0, 61, 87
1, 288396, Control_c, 0, 64, 90
1, 288410, Control_c, 0, 64, 127
1, 288412, Note_on_c, 0, 37, 38
1, 288420, Note_off_c, 0, 49, 64
1, 288429, Note_off_c, 0, 57, 66
1, 288434, Note_off_c, 0, 42, 63
1, 288437, Note_off_c, 0, 61, 66
1, 288450, Note_off_c, 0, 37, 51
1, 288502, Note_on_c, 0, 70, 98
1, 288536, Control_c, 0, 64, 83
1, 288546, Note_off_c, 0, 70, 66
1, 288551, Control_c, 0, 64, 0
1, 288601, Note_on_c, 0, 70, 96
1, 288625, Note_on_c, 0, 69, 69
1, 288703, Note_on_c, 0, 67, 81
1, 288706, Note_on_c, 0, 47, 78
1, 288713, Note_on_c, 0, 52, 82
1, 288718, Note_on_c, 0, 40, 67
1, 288725, Note_off_c, 0, 69, 60
1, 288725, Note_off_c, 0, 70, 57
1, 288739, Note_off_c, 0, 52, 67
1, 288748, Note_off_c, 0, 40, 65
1, 288762, Note_off_c, 0, 47, 65
1, 288792, Note_off_c, 0, 67, 58
1, 288800, Note_on_c, 0, 66, 88
1, 288801, Note_on_c, 0, 52, 92
1, 288806, Note_on_c, 0, 47, 73
1, 288809, Note_on_c, 0, 40, 85
1, 288813, Note_on_c, 0, 60, 78
1, 288832, Control_c, 0, 64, 66
1, 288834, Note_off_c, 0, 40, 67
1, 288836, Note_off_c, 0, 60, 69
1, 288843, Note_off_c, 0, 47, 65
1, 288843, Note_off_c, 0, 52, 64
1, 288847, Control_c, 0, 64, 94
1, 288857, Note_off_c, 0, 66, 64
1, 288861, Control_c, 0, 64, 127
1, 288902, Note_on_c, 0, 73, 97
1, 288936, Note_off_c, 0, 73, 69
1, 288980, Control_c, 0, 64, 100
1, 288995, Control_c, 0, 64, 64
1, 289007, Note_on_c, 0, 74, 108
1, 289010, Control_c, 0, 64, 0
1, 289109, Note_on_c, 0, 73, 94
1, 289121, Note_on_c, 0, 43, 81
1, 289123, Note_on_c, 0, 55, 89
1, 289126, Note_on_c, 0, 51, 76
1, 289135, Note_on_c, 0, 67, 46
1, 289136, Note_off_c, 0, 74, 65
1, 289144, Note_on_c, 0, 72, 70
1, 289150, Note_on_c, 0, 68, 43
1, 289150, Note_off_c, 0, 55, 68
1, 289153, Note_off_c, 0, 43, 63
1, 289158, Note_off_c, 0, 51, 66
1, 289166, Note_off_c, 0, 67, 35
1, 289218, Note_on_c, 0, 64, 86
1, 289219, Note_off_c, 0, 72, 49
1, 289225, Note_on_c, 0, 58, 99
1, 289226, Note_off_c, 0, 73, 51
1, 289231, Note_on_c, 0, 53, 83
1, 289233, Control_c, 0, 64, 72
1, 289237, Note_on_c, 0, 69, 69
1, 289249, Note_on_c, 0, 46, 63
1, 289254, Note_off_c, 0, 58, 68
1, 289255, Control_c, 0, 64, 103
1, 289269, Note_off_c, 0, 64, 63
1, 289269, Note_off_c, 0, 69, 69
1, 289269, Note_off_c, 0, 53, 67
1, 289270, Control_c, 0, 64, 127
1, 289275, Note_off_c, 0, 46, 64
1, 289286, Note_off_c, 0, 68, 47
1, 289334, Note_on_c, 0, 78, 97
1, 289379, Note_off_c, 0, 78, 66
1, 289433, Control_c, 0, 64, 99
1, 289447, Note_on_c, 0, 78, 99
1, 289448, Control_c, 0, 64, 0
1, 289468, Note_on_c, 0, 77, 72
1, 289494, Note_off_c, 0, 77, 49
1, 289505, Note_on_c, 0, 76, 31
1, 289537, Control_c, 0, 64, 54
1, 289542, Note_off_c, 0, 76, 33
1, 289551, Control_c, 0, 64, 68
1, 289563, Note_on_c, 0, 77, 35
1, 289566, Control_c, 0, 64, 73
1, 289581, Control_c, 0, 64, 77
1, 289596, Control_c, 0, 64, 81
1, 289610, Control_c, 0, 64, 83
1, 289625, Control_c, 0, 64, 90
1, 289640, Control_c, 0, 64, 100
1, 289646, Note_on_c, 0, 48, 76
1, 289650, Note_on_c, 0, 72, 77
1, 289650, Note_off_c, 0, 78, 50
1, 289651, Note_on_c, 0, 75, 80
1, 289655, Control_c, 0, 64, 107
1, 289671, Note_on_c, 0, 60, 55
1, 289673, Note_off_c, 0, 77, 27
1, 289681, Note_off_c, 0, 48, 62
1, 289684, Control_c, 0, 64, 107
1, 289688, Note_off_c, 0, 72, 59
1, 289692, Note_off_c, 0, 60, 62
1, 289699, Control_c, 0, 64, 106
1, 289728, Control_c, 0, 64, 106
1, 289744, Note_on_c, 0, 60, 86
1, 289746, Note_on_c, 0, 70, 86
1, 289746, Note_on_c, 0, 74, 82
1, 289758, Control_c, 0, 64, 109
1, 289768, Note_off_c, 0, 60, 67
1, 289770, Note_off_c, 0, 75, 36
1, 289773, Control_c, 0, 64, 116
1, 289781, Note_off_c, 0, 70, 62
1, 289788, Control_c, 0, 64, 127
1, 289790, Note_on_c, 0, 48, 17
1, 289790, Note_off_c, 0, 74, 65
1, 289827, Note_off_c, 0, 48, 46
1, 289839, Note_on_c, 0, 61, 87
1, 289843, Note_on_c, 0, 49, 86
1, 289854, Note_on_c, 0, 70, 87
1, 289856, Note_on_c, 0, 74, 82
1, 289863, Control_c, 0, 64, 97
1, 289874, Note_off_c, 0, 61, 61
1, 289875, Note_on_c, 0, 60, 51
1, 289878, Control_c, 0, 64, 94
1, 289893, Control_c, 0, 64, 98
1, 289904, Note_off_c, 0, 70, 61
1, 289907, Control_c, 0, 64, 111
1, 289908, Note_off_c, 0, 60, 54
1, 289915, Note_off_c, 0, 74, 61
1, 289922, Control_c, 0, 64, 127
1, 289926, Note_off_c, 0, 49, 54
1, 289949, Note_on_c, 0, 63, 95
1, 289949, Note_on_c, 0, 72, 84
1, 289951, Note_on_c, 0, 51, 84
1, 289957, Note_on_c, 0, 68, 84
1, 289985, Note_off_c, 0, 51, 64
1, 289987, Note_off_c, 0, 63, 63
1, 289987, Note_off_c, 0, 68, 59
1, 290005, Note_off_c, 0, 72, 65
1, 290067, Note_on_c, 0, 63, 91
1, 290068, Note_on_c, 0, 72, 90
1, 290076, Note_on_c, 0, 68, 81
1, 290077, Note_on_c, 0, 51, 75
1, 290090, Note_off_c, 0, 63, 61
1, 290092, Note_off_c, 0, 68, 74
1, 290094, Note_on_c, 0, 56, 44
1, 290126, Note_off_c, 0, 56, 54
1, 290128, Note_on_c, 0, 55, 18
1, 290138, Note_off_c, 0, 51, 65
1, 290138, Note_off_c, 0, 72, 56
1, 290158, Note_on_c, 0, 81, 93
1, 290171, Note_off_c, 0, 55, 42
1, 290225, Note_off_c, 0, 81, 66
1, 290241, Control_c, 0, 64, 114
1, 290256, Control_c, 0, 64, 67
1, 290271, Control_c, 0, 64, 0
1, 290274, Note_on_c, 0, 40, 96
1, 290280, Note_on_c, 0, 28, 91
1, 290286, Note_on_c, 0, 81, 106
1, 290344, Control_c, 0, 64, 38
1, 290351, Note_off_c, 0, 28, 60
1, 290359, Control_c, 0, 64, 68
1, 290374, Control_c, 0, 64, 78
1, 290377, Note_off_c, 0, 40, 65
1, 290389, Control_c, 0, 64, 89
1, 290399, Note_on_c, 0, 82, 94
1, 290404, Control_c, 0, 64, 98
1, 290416, Note_off_c, 0, 81, 59
1, 290419, Control_c, 0, 64, 105
1, 290433, Control_c, 0, 64, 112
1, 290448, Control_c, 0, 64, 115
1, 290463, Control_c, 0, 64, 116
1, 290478, Control_c, 0, 64, 117
1, 290493, Control_c, 0, 64, 127
1, 290495, Note_on_c, 0, 79, 96
1, 290512, Note_off_c, 0, 82, 63
1, 290545, Note_off_c, 0, 79, 64
1, 290579, Note_on_c, 0, 80, 96
1, 290629, Note_off_c, 0, 80, 64
1, 290670, Control_c, 0, 64, 79
1, 290681, Note_on_c, 0, 81, 94
1, 290685, Control_c, 0, 64, 0
1, 290686, Note_on_c, 0, 67, 79
1, 290688, Note_on_c, 0, 62, 73
1, 290706, Note_off_c, 0, 67, 69
1, 290711, Note_off_c, 0, 62, 66
1, 290719, Note_on_c, 0, 83, 20
1, 290720, Note_off_c, 0, 83, 127
1, 290731, Note_off_c, 0, 81, 66
1, 290782, Note_on_c, 0, 82, 95
1, 290792, Note_on_c, 0, 67, 68
1, 290793, Note_on_c, 0, 62, 57
1, 290819, Note_off_c, 0, 67, 66
1, 290819, Note_off_c, 0, 62, 63
1, 290855, Control_c, 0, 64, 53
1, 290870, Control_c, 0, 64, 65
1, 290885, Note_on_c, 0, 67, 73
1, 290885, Control_c, 0, 64, 68
1, 290894, Note_on_c, 0, 62, 63
1, 290900, Control_c, 0, 64, 69
1, 290910, Note_off_c, 0, 67, 64
1, 290915, Control_c, 0, 64, 69
1, 290923, Note_off_c, 0, 62, 64
1, 290930, Control_c, 0, 64, 71
1, 290945, Control_c, 0, 64, 72
1, 290954, Note_off_c, 0, 82, 61
1, 290960, Control_c, 0, 64, 75
1, 290974, Control_c, 0, 64, 75
1, 290986, Note_on_c, 0, 83, 84
1, 290989, Note_on_c, 0, 67, 72
1, 290993, Note_on_c, 0, 62, 58
1, 291004, Control_c, 0, 64, 76
1, 291010, Note_off_c, 0, 67, 69
1, 291019, Control_c, 0, 64, 78
1, 291023, Note_off_c, 0, 62, 64
1, 291034, Control_c, 0, 64, 82
1, 291037, Note_off_c, 0, 83, 63
1, 291048, Control_c, 0, 64, 84
1, 291063, Control_c, 0, 64, 78
1, 291074, Note_on_c, 0, 66, 83
1, 291078, Note_on_c, 0, 84, 96
1, 291078, Control_c, 0, 64, 65
1, 291079, Note_on_c, 0, 62, 74
1, 291093, Control_c, 0, 64, 0
1, 291101, Note_off_c, 0, 66, 64
1, 291105, Note_off_c, 0, 62, 65
1, 291166, Control_c, 0, 64, 54
1, 291173, Note_on_c, 0, 62, 59
1, 291175, Note_on_c, 0, 66, 69
1, 291181, Control_c, 0, 64, 65
1, 291196, Control_c, 0, 64, 69
1, 291201, Note_off_c, 0, 66, 66
1, 291203, Note_off_c, 0, 62, 62
1, 291211, Control_c, 0, 64, 71
1, 291226, Control_c, 0, 64, 72
1, 291231, Note_off_c, 0, 84, 59
1, 291255, Control_c, 0, 64, 73
1, 291263, Note_on_c, 0, 62, 71
1, 291270, Control_c, 0, 64, 75
1, 291274, Note_on_c, 0, 66, 60
1, 291276, Note_on_c, 0, 85, 79
1, 291285, Control_c, 0, 64, 79
1, 291287, Note_off_c, 0, 62, 66
1, 291299, Note_off_c, 0, 66, 65
1, 291300, Control_c, 0, 64, 80
1, 291316, Note_off_c, 0, 85, 61
1, 291345, Control_c, 0, 64, 81
1, 291356, Note_on_c, 0, 66, 75
1, 291357, Note_on_c, 0, 62, 66
1, 291360, Control_c, 0, 64, 83
1, 291365, Note_on_c, 0, 86, 70
1, 291374, Control_c, 0, 64, 87
1, 291381, Note_off_c, 0, 66, 61
1, 291386, Note_off_c, 0, 62, 65
1, 291389, Control_c, 0, 64, 89
1, 291404, Control_c, 0, 64, 91
1, 291419, Control_c, 0, 64, 92
1, 291434, Control_c, 0, 64, 93
1, 291448, Control_c, 0, 64, 96
1, 291451, Note_on_c, 0, 62, 71
1, 291459, Note_on_c, 0, 66, 67
1, 291463, Control_c, 0, 64, 98
1, 291479, Control_c, 0, 64, 101
1, 291482, Note_off_c, 0, 62, 62
1, 291488, Note_off_c, 0, 66, 65
1, 291490, Note_off_c, 0, 86, 62
1, 291502, Control_c, 0, 64, 104
1, 291517, Control_c, 0, 64, 106
1, 291532, Control_c, 0, 64, 111
1, 291547, Control_c, 0, 64, 116
1, 291551, Note_on_c, 0, 66, 83
1, 291554, Note_on_c, 0, 62, 69
1, 291561, Control_c, 0, 64, 121
1, 291570, Note_on_c, 0, 87, 90
1, 291576, Control_c, 0, 64, 124
1, 291591, Control_c, 0, 64, 127
1, 291591, Note_off_c, 0, 62, 60
1, 291594, Note_off_c, 0, 66, 60
1, 291605, Control_c, 0, 64, 126
1, 291609, Note_off_c, 0, 87, 71
1, 291620, Control_c, 0, 64, 102
1, 291635, Control_c, 0, 64, 72
1, 291639, Note_on_c, 0, 62, 84
1, 291641, Note_on_c, 0, 65, 96
1, 291650, Control_c, 0, 64, 0
1, 291656, Note_on_c, 0, 88, 111
1, 291687, Note_off_c, 0, 65, 65
1, 291692, Note_off_c, 0, 62, 60
1, 291694, Control_c, 0, 64, 46
1, 291709, Control_c, 0, 64, 63
1, 291724, Control_c, 0, 64, 72
1, 291739, Control_c, 0, 64, 79
1, 291741, Note_on_c, 0, 62, 74
1, 291747, Note_on_c, 0, 65, 74
1, 291753, Control_c, 0, 64, 88
1, 291768, Control_c, 0, 64, 95
1, 291776, Note_off_c, 0, 65, 67
1, 291783, Control_c, 0, 64, 98
1, 291785, Note_off_c, 0, 62, 61
1, 291797, Control_c, 0, 64, 100
1, 291810, Note_off_c, 0, 88, 52
1, 291812, Control_c, 0, 64, 102
1, 291827, Control_c, 0, 64, 106
1, 291834, Note_on_c, 0, 89, 97
1, 291835, Note_on_c, 0, 65, 89
1, 291842, Control_c, 0, 64, 113
1, 291845, Note_on_c, 0, 62, 60
1, 291857, Control_c, 0, 64, 127
1, 291871, Note_off_c, 0, 62, 67
1, 291875, Note_off_c, 0, 65, 66
1, 291904, Note_off_c, 0, 89, 62
1, 291935, Note_on_c, 0, 90, 104
1, 291937, Note_on_c, 0, 65, 85
1, 291944, Note_on_c, 0, 62, 73
1, 291981, Note_off_c, 0, 65, 65
1, 292006, Note_off_c, 0, 62, 0
1, 292025, Note_off_c, 0, 90, 63
1, 292028, Note_on_c, 0, 62, 41
1, 292054, Note_on_c, 0, 65, 88
1, 292065, Note_on_c, 0, 91, 104
1, 292076, Note_off_c, 0, 62, 58
1, 292124, Note_off_c, 0, 65, 67
1, 292134, Note_off_c, 0, 91, 66
1, 292145, Note_on_c, 0, 63, 74
1, 292147, Note_on_c, 0, 61, 75
1, 292157, Note_on_c, 0, 64, 90
1, 292161, Note_on_c, 0, 62, 86
1, 292166, Note_off_c, 0, 63, 39
1, 292167, Note_off_c, 0, 61, 39
1, 292174, Note_on_c, 0, 92, 100
1, 292175, Note_off_c, 0, 64, 74
1, 292182, Note_off_c, 0, 62, 69
1, 292280, Note_on_c, 0, 93, 95
1, 292303, Note_off_c, 0, 92, 66
1, 292343, Note_off_c, 0, 93, 66
1, 292364, Note_on_c, 0, 39, 92
1, 292377, Note_on_c, 0, 94, 106
1, 292408, Note_off_c, 0, 94, 73
1, 292411, Note_on_c, 0, 93, 19
1, 292413, Note_on_c, 0, 91, 25
1, 292442, Note_off_c, 0, 93, 51
1, 292451, Note_off_c, 0, 91, 48
1, 292544, Note_off_c, 0, 39, 57
1, 292576, Control_c, 0, 64, 102
1, 292585, Note_on_c, 0, 40, 96
1, 292591, Control_c, 0, 64, 59
1, 292598, Note_on_c, 0, 81, 106
1, 292606, Control_c, 0, 64, 0
1, 292680, Control_c, 0, 64, 51
1, 292690, Note_off_c, 0, 81, 0
1, 292694, Control_c, 0, 64, 68
1, 292696, Note_off_c, 0, 40, 65
1, 292704, Note_on_c, 0, 81, 40
1, 292704, Note_on_c, 0, 82, 91
1, 292709, Control_c, 0, 64, 77
1, 292724, Control_c, 0, 64, 85
1, 292732, Note_off_c, 0, 81, 60
1, 292739, Control_c, 0, 64, 93
1, 292754, Control_c, 0, 64, 98
1, 292769, Control_c, 0, 64, 100
1, 292784, Control_c, 0, 64, 101
1, 292789, Note_off_c, 0, 82, 62
1, 292793, Note_on_c, 0, 79, 93
1, 292799, Control_c, 0, 64, 105
1, 292814, Control_c, 0, 64, 110
1, 292828, Control_c, 0, 64, 119
1, 292843, Control_c, 0, 64, 127
1, 292870, Note_on_c, 0, 80, 95
1, 292878, Note_off_c, 0, 79, 64
1, 292919, Note_off_c, 0, 80, 64
1, 292946, Control_c, 0, 64, 115
1, 292961, Note_on_c, 0, 67, 83
1, 292961, Control_c, 0, 64, 83
1, 292963, Note_on_c, 0, 81, 99
1, 292969, Note_on_c, 0, 62, 72
1, 292976, Control_c, 0, 64, 43
1, 292982, Note_off_c, 0, 67, 67
1, 292997, Note_off_c, 0, 62, 64
1, 292998, Control_c, 0, 64, 0
1, 293013, Control_c, 0, 64, 49
1, 293024, Note_off_c, 0, 81, 64
1, 293028, Control_c, 0, 64, 61
1, 293043, Control_c, 0, 64, 65
1, 293058, Control_c, 0, 64, 71
1, 293067, Note_on_c, 0, 62, 72
1, 293069, Note_on_c, 0, 82, 93
1, 293073, Control_c, 0, 64, 76
1, 293076, Note_on_c, 0, 67, 72
1, 293088, Control_c, 0, 64, 82
1, 293091, Note_off_c, 0, 62, 68
1, 293102, Note_off_c, 0, 67, 68
1, 293103, Control_c, 0, 64, 86
1, 293118, Control_c, 0, 64, 89
1, 293133, Control_c, 0, 64, 91
1, 293148, Control_c, 0, 64, 93
1, 293162, Control_c, 0, 64, 96
1, 293171, Note_on_c, 0, 62, 67
1, 293174, Note_on_c, 0, 67, 74
1, 293177, Control_c, 0, 64, 98
1, 293192, Control_c, 0, 64, 100
1, 293200, Note_off_c, 0, 62, 64
1, 293204, Note_off_c, 0, 67, 66
1, 293225, Note_off_c, 0, 82, 62
1, 293252, Control_c, 0, 64, 101
1, 293261, Note_on_c, 0, 83, 74
1, 293265, Note_on_c, 0, 67, 76
1, 293267, Control_c, 0, 64, 102
1, 293278, Note_on_c, 0, 62, 58
1, 293291, Note_off_c, 0, 67, 66
1, 293294, Note_off_c, 0, 62, 67
1, 293311, Control_c, 0, 64, 101
1, 293312, Note_off_c, 0, 83, 65
1, 293326, Control_c, 0, 64, 84
1, 293341, Control_c, 0, 64, 0
1, 293344, Note_on_c, 0, 62, 77
1, 293350, Note_on_c, 0, 66, 78
1, 293357, Note_on_c, 0, 84, 86
1, 293371, Note_off_c, 0, 66, 69
1, 293374, Note_off_c, 0, 62, 64
1, 293415, Control_c, 0, 64, 26
1, 293430, Control_c, 0, 64, 63
1, 293444, Control_c, 0, 64, 69
1, 293455, Note_on_c, 0, 66, 66
1, 293459, Control_c, 0, 64, 73
1, 293471, Note_on_c, 0, 62, 33
1, 293474, Control_c, 0, 64, 77
1, 293475, Note_off_c, 0, 66, 66
1, 293489, Control_c, 0, 64, 81
1, 293503, Note_off_c, 0, 62, 51
1, 293504, Control_c, 0, 64, 85
1, 293505, Note_off_c, 0, 84, 59
1, 293518, Control_c, 0, 64, 90
1, 293533, Control_c, 0, 64, 94
1, 293541, Note_on_c, 0, 62, 62
1, 293544, Note_on_c, 0, 66, 68
1, 293544, Note_on_c, 0, 85, 84
1, 293548, Control_c, 0, 64, 99
1, 293563, Control_c, 0, 64, 103
1, 293570, Note_off_c, 0, 66, 65
1, 293573, Note_off_c, 0, 62, 64
1, 293577, Control_c, 0, 64, 105
1, 293592, Control_c, 0, 64, 109
1, 293593, Note_off_c, 0, 85, 64
1, 293607, Control_c, 0, 64, 115
1, 293622, Control_c, 0, 64, 127
1, 293628, Note_on_c, 0, 66, 75
1, 293631, Note_on_c, 0, 86, 84
1, 293634, Note_on_c, 0, 62, 75
1, 293657, Note_off_c, 0, 62, 66
1, 293660, Note_off_c, 0, 66, 60
1, 293726, Note_on_c, 0, 62, 76
1, 293729, Note_on_c, 0, 66, 77
1, 293761, Note_off_c, 0, 86, 64
1, 293767, Note_off_c, 0, 62, 60
1, 293768, Note_off_c, 0, 66, 66
1, 293821, Note_on_c, 0, 66, 91
1, 293825, Note_on_c, 0, 62, 73
1, 293825, Note_on_c, 0, 87, 98
1, 293864, Note_off_c, 0, 66, 62
1, 293872, Note_off_c, 0, 62, 59
1, 293872, Note_off_c, 0, 87, 67
1, 293882, Control_c, 0, 64, 84
1, 293897, Control_c, 0, 64, 70
1, 293910, Note_on_c, 0, 62, 73
1, 293911, Note_on_c, 0, 65, 94
1, 293912, Control_c, 0, 64, 74
1, 293920, Note_on_c, 0, 88, 102
1, 293927, Control_c, 0, 64, 81
1, 293941, Control_c, 0, 64, 87
1, 293950, Note_off_c, 0, 65, 67
1, 293954, Note_off_c, 0, 62, 60
1, 293956, Control_c, 0, 64, 92
1, 293971, Control_c, 0, 64, 100
1, 293986, Control_c, 0, 64, 112
1, 294000, Control_c, 0, 64, 127
1, 294013, Note_on_c, 0, 65, 88
1, 294019, Note_on_c, 0, 62, 72
1, 294045, Note_off_c, 0, 62, 66
1, 294054, Note_off_c, 0, 65, 61
1, 294107, Note_on_c, 0, 65, 80
1, 294108, Note_on_c, 0, 89, 98
1, 294116, Note_on_c, 0, 62, 75
1, 294122, Note_off_c, 0, 88, 52
1, 294143, Note_off_c, 0, 62, 62
1, 294150, Note_off_c, 0, 65, 63
1, 294199, Note_on_c, 0, 62, 72
1, 294203, Note_off_c, 0, 89, 0
1, 294211, Note_on_c, 0, 90, 99
1, 294245, Note_on_c, 0, 65, 38
1, 294265, Note_off_c, 0, 65, 63
1, 294289, Note_off_c, 0, 90, 64
1, 294289, Poly_aftertouch_c, 0, 89, 0
1, 294310, Note_on_c, 0, 65, 92
1, 294319, Note_off_c, 0, 62, 55
1, 294320, Note_on_c, 0, 91, 110
1, 294391, Note_off_c, 0, 65, 67
1, 294402, Note_off_c, 0, 91, 61
1, 294405, Note_on_c, 0, 64, 89
1, 294415, Note_on_c, 0, 62, 83
1, 294431, Note_on_c, 0, 92, 98
1, 294440, Note_off_c, 0, 64, 65
1, 294447, Note_off_c, 0, 62, 61
1, 294540, Note_on_c, 0, 93, 94
1, 294566, Note_off_c, 0, 92, 64
1, 294647, Note_on_c, 0, 41, 102
1, 294657, Note_on_c, 0, 94, 96
1, 294680, Note_off_c, 0, 93, 67
1, 294699, Note_off_c, 0, 94, 68
1, 294913, Control_c, 0, 64, 85
1, 294928, Control_c, 0, 64, 0
1, 294942, Note_on_c, 0, 42, 99
1, 294948, Note_on_c, 0, 81, 104
1, 294976, Note_off_c, 0, 41, 63
1, 295002, Control_c, 0, 64, 37
1, 295010, Note_off_c, 0, 42, 66
1, 295017, Control_c, 0, 64, 68
1, 295031, Control_c, 0, 64, 79
1, 295046, Control_c, 0, 64, 93
1, 295061, Control_c, 0, 64, 103
1, 295070, Note_on_c, 0, 82, 96
1, 295076, Control_c, 0, 64, 109
1, 295090, Note_off_c, 0, 81, 60
1, 295090, Control_c, 0, 64, 113
1, 295105, Control_c, 0, 64, 114
1, 295120, Control_c, 0, 64, 115
1, 295135, Control_c, 0, 64, 116
1, 295149, Control_c, 0, 64, 119
1, 295164, Control_c, 0, 64, 123
1, 295169, Note_on_c, 0, 79, 99
1, 295179, Control_c, 0, 64, 127
1, 295189, Note_off_c, 0, 82, 62
1, 295261, Note_on_c, 0, 80, 94
1, 295270, Note_off_c, 0, 79, 54
1, 295297, Note_off_c, 0, 80, 66
1, 295335, Control_c, 0, 64, 108
1, 295349, Control_c, 0, 64, 70
1, 295354, Note_on_c, 0, 55, 78
1, 295364, Control_c, 0, 64, 0
1, 295368, Note_on_c, 0, 93, 97
1, 295368, Note_on_c, 0, 95, 101
1, 295410, Note_off_c, 0, 95, 66
1, 295413, Note_off_c, 0, 55, 64
1, 295457, Note_on_c, 0, 58, 78
1, 295467, Note_on_c, 0, 90, 96
1, 295487, Note_off_c, 0, 93, 60
1, 295535, Note_off_c, 0, 58, 60
1, 295543, Control_c, 0, 64, 56
1, 295546, Note_on_c, 0, 50, 73
1, 295558, Control_c, 0, 64, 64
1, 295572, Control_c, 0, 64, 65
1, 295587, Control_c, 0, 64, 66
1, 295602, Control_c, 0, 64, 69
1, 295617, Control_c, 0, 64, 72
1, 295632, Control_c, 0, 64, 76
1, 295637, Note_on_c, 0, 58, 80
1, 295643, Note_on_c, 0, 78, 97
1, 295646, Control_c, 0, 64, 79
1, 295651, Note_off_c, 0, 50, 64
1, 295661, Control_c, 0, 64, 82
1, 295675, Note_off_c, 0, 58, 60
1, 295676, Control_c, 0, 64, 88
1, 295678, Note_off_c, 0, 90, 64
1, 295691, Control_c, 0, 64, 97
1, 295693, Note_off_c, 0, 78, 64
1, 295706, Control_c, 0, 64, 106
1, 295720, Control_c, 0, 64, 110
1, 295735, Control_c, 0, 64, 111
1, 295739, Note_on_c, 0, 77, 100
1, 295740, Note_on_c, 0, 60, 81
1, 295808, Note_off_c, 0, 60, 63
1, 295830, Note_on_c, 0, 63, 85
1, 295872, Note_off_c, 0, 63, 64
1, 295899, Control_c, 0, 64, 95
1, 295910, Note_off_c, 0, 77, 60
1, 295913, Control_c, 0, 64, 67
1, 295928, Note_on_c, 0, 64, 87
1, 295928, Control_c, 0, 64, 0
1, 295936, Note_on_c, 0, 80, 97
1, 296027, Note_off_c, 0, 64, 63
1, 296042, Note_on_c, 0, 65, 79
1, 296069, Control_c, 0, 64, 43
1, 296084, Control_c, 0, 64, 59
1, 296099, Control_c, 0, 64, 63
1, 296114, Control_c, 0, 64, 64
1, 296128, Control_c, 0, 64, 65
1, 296132, Note_on_c, 0, 60, 72
1, 296137, Note_off_c, 0, 65, 63
1, 296143, Control_c, 0, 64, 67
1, 296158, Control_c, 0, 64, 68
1, 296172, Control_c, 0, 64, 70
1, 296187, Control_c, 0, 64, 71
1, 296202, Control_c, 0, 64, 72
1, 296217, Control_c, 0, 64, 76
1, 296223, Note_on_c, 0, 61, 76
1, 296231, Note_off_c, 0, 60, 62
1, 296232, Control_c, 0, 64, 81
1, 296238, Note_on_c, 0, 79, 92
1, 296246, Control_c, 0, 64, 87
1, 296257, Note_off_c, 0, 80, 59
1, 296261, Control_c, 0, 64, 92
1, 296263, Note_off_c, 0, 79, 64
1, 296277, Control_c, 0, 64, 95
1, 296292, Control_c, 0, 64, 98
1, 296301, Note_off_c, 0, 61, 62
1, 296307, Control_c, 0, 64, 101
1, 296322, Control_c, 0, 64, 104
1, 296325, Note_on_c, 0, 68, 85
1, 296337, Control_c, 0, 64, 105
1, 296351, Control_c, 0, 64, 106
1, 296366, Control_c, 0, 64, 105
1, 296418, Note_on_c, 0, 67, 73
1, 296421, Note_off_c, 0, 68, 59
1, 296469, Control_c, 0, 64, 105
1, 296484, Control_c, 0, 64, 103
1, 296489, Note_off_c, 0, 67, 63
1, 296499, Control_c, 0, 64, 98
1, 296514, Control_c, 0, 64, 88
1, 296525, Note_on_c, 0, 68, 72
1, 296527, Note_on_c, 0, 73, 87
1, 296529, Control_c, 0, 64, 73
1, 296543, Control_c, 0, 64, 19
1, 296558, Control_c, 0, 64, 0
1, 296602, Control_c, 0, 64, 21
1, 296617, Control_c, 0, 64, 52
1, 296622, Note_on_c, 0, 71, 80
1, 296632, Control_c, 0, 64, 62
1, 296639, Note_off_c, 0, 73, 63
1, 296647, Control_c, 0, 64, 66
1, 296662, Control_c, 0, 64, 70
1, 296677, Control_c, 0, 64, 73
1, 296692, Control_c, 0, 64, 77
1, 296694, Note_off_c, 0, 68, 56
1, 296706, Control_c, 0, 64, 84
1, 296713, Note_on_c, 0, 70, 88
1, 296715, Note_off_c, 0, 71, 65
1, 296717, Note_on_c, 0, 63, 64
1, 296719, Note_on_c, 0, 56, 54
1, 296721, Control_c, 0, 64, 90
1, 296732, Note_off_c, 0, 70, 72
1, 296743, Control_c, 0, 64, 94
1, 296758, Control_c, 0, 64, 95
1, 296817, Note_off_c, 0, 63, 52
1, 296862, Control_c, 0, 64, 95
1, 296877, Control_c, 0, 64, 94
1, 296877, Note_off_c, 0, 56, 33
1, 296892, Control_c, 0, 64, 84
1, 296906, Control_c, 0, 64, 59
1, 296921, Control_c, 0, 64, 0
1, 296932, Note_on_c, 0, 82, 95
1, 297011, Note_off_c, 0, 82, 64
1, 297029, Note_on_c, 0, 83, 79
1, 297086, Note_off_c, 0, 83, 63
1, 297119, Note_on_c, 0, 76, 76
1, 297193, Note_off_c, 0, 76, 58
1, 297205, Note_on_c, 0, 78, 89
1, 297260, Note_off_c, 0, 78, 64
1, 297288, Note_on_c, 0, 62, 64
1, 297294, Note_on_c, 0, 85, 93
1, 297310, Note_on_c, 0, 61, 52
1, 297357, Note_off_c, 0, 62, 58
1, 297368, Note_off_c, 0, 85, 62
1, 297386, Note_on_c, 0, 79, 81
1, 297392, Note_off_c, 0, 61, 60
1, 297397, Note_on_c, 0, 57, 64
1, 297491, Note_on_c, 0, 63, 68
1, 297492, Note_off_c, 0, 57, 61
1, 297523, Note_off_c, 0, 79, 63
1, 297550, Note_off_c, 0, 63, 62
1, 297568, Note_on_c, 0, 88, 97
1, 297581, Note_on_c, 0, 66, 79
1, 297625, Note_off_c, 0, 66, 59
1, 297678, Note_on_c, 0, 53, 81
1, 297770, Note_on_c, 0, 87, 91
1, 297776, Note_on_c, 0, 54, 63
1, 297777, Note_off_c, 0, 88, 63
1, 297785, Note_off_c, 0, 53, 53
1, 297854, Note_off_c, 0, 87, 64
1, 297857, Note_on_c, 0, 75, 94
1, 297862, Control_c, 0, 64, 14
1, 297872, Note_off_c, 0, 54, 66
1, 297877, Control_c, 0, 64, 74
1, 297878, Note_off_c, 0, 75, 63
1, 297885, Note_on_c, 0, 60, 69
1, 297892, Control_c, 0, 64, 95
1, 297907, Control_c, 0, 64, 127
1, 297944, Note_off_c, 0, 60, 63
1, 297956, Note_on_c, 0, 61, 87
1, 298006, Note_off_c, 0, 61, 61
1, 298054, Control_c, 0, 64, 96
1, 298061, Note_on_c, 0, 66, 78
1, 298069, Control_c, 0, 64, 72
1, 298072, Note_on_c, 0, 80, 97
1, 298085, Control_c, 0, 64, 68
1, 298100, Control_c, 0, 64, 76
1, 298114, Control_c, 0, 64, 80
1, 298129, Control_c, 0, 64, 82
1, 298144, Control_c, 0, 64, 86
1, 298150, Note_off_c, 0, 80, 62
1, 298154, Note_on_c, 0, 63, 74
1, 298158, Control_c, 0, 64, 92
1, 298170, Note_off_c, 0, 66, 58
1, 298173, Control_c, 0, 64, 98
1, 298188, Control_c, 0, 64, 102
1, 298203, Control_c, 0, 64, 108
1, 298218, Control_c, 0, 64, 115
1, 298239, Note_on_c, 0, 70, 73
1, 298240, Control_c, 0, 64, 127
1, 298245, Note_on_c, 0, 67, 72
1, 298263, Note_off_c, 0, 70, 69
1, 298282, Note_on_c, 0, 69, 51
1, 298290, Note_on_c, 0, 64, 75
1, 298300, Note_off_c, 0, 67, 60
1, 298305, Note_off_c, 0, 69, 60
1, 298310, Note_off_c, 0, 63, 38
1, 298321, Note_on_c, 0, 68, 72
1, 298337, Note_off_c, 0, 64, 63
1, 298345, Note_off_c, 0, 68, 68
1, 298388, Control_c, 0, 64, 98
1, 298403, Control_c, 0, 64, 55
1, 298418, Control_c, 0, 64, 0
1, 298428, Note_on_c, 0, 68, 82
1, 298432, Note_on_c, 0, 69, 80
1, 298468, Note_on_c, 0, 73, 76
1, 298477, Control_c, 0, 64, 55
1, 298492, Control_c, 0, 64, 69
1, 298498, Note_off_c, 0, 68, 57
1, 298504, Note_on_c, 0, 75, 59
1, 298504, Note_off_c, 0, 69, 64
1, 298506, Note_on_c, 0, 71, 78
1, 298507, Control_c, 0, 64, 77
1, 298522, Control_c, 0, 64, 87
1, 298525, Note_off_c, 0, 73, 65
1, 298525, Note_off_c, 0, 71, 72
1, 298526, Note_on_c, 0, 77, 73
1, 298537, Note_off_c, 0, 75, 66
1, 298537, Control_c, 0, 64, 96
1, 298548, Note_off_c, 0, 77, 70
1, 298552, Control_c, 0, 64, 105
1, 298566, Control_c, 0, 64, 127
1, 298610, Poly_aftertouch_c, 0, 78, 0
1, 298616, Note_on_c, 0, 81, 77
1, 298641, Note_on_c, 0, 85, 85
1, 298662, Note_off_c, 0, 81, 65
1, 298690, Note_on_c, 0, 87, 91
1, 298719, Note_off_c, 0, 85, 63
1, 298727, Note_on_c, 0, 89, 97
1, 298747, Note_off_c, 0, 87, 66
1, 298758, Note_off_c, 0, 89, 67
1, 298823, Note_on_c, 0, 90, 111
1, 298850, Note_off_c, 0, 90, 71
1, 298931, Note_on_c, 0, 90, 108
1, 298964, Note_off_c, 0, 90, 69
1, 299040, Note_on_c, 0, 90, 102
1, 299073, Note_off_c, 0, 90, 66
1, 299124, Note_on_c, 0, 90, 75
1, 299146, Note_off_c, 0, 90, 70
1, 299196, Control_c, 0, 64, 91
1, 299211, Control_c, 0, 64, 59
1, 299226, Note_on_c, 0, 61, 93
1, 299226, Control_c, 0, 64, 0
1, 299229, Note_on_c, 0, 68, 88
1, 299241, Control_c, 0, 64, 61
1, 299246, Note_on_c, 0, 69, 82
1, 299256, Control_c, 0, 64, 66
1, 299270, Control_c, 0, 64, 71
1, 299271, Note_on_c, 0, 74, 76
1, 299285, Control_c, 0, 64, 80
1, 299300, Note_off_c, 0, 69, 62
1, 299300, Control_c, 0, 64, 92
1, 299315, Control_c, 0, 64, 108
1, 299318, Note_on_c, 0, 75, 74
1, 299330, Control_c, 0, 64, 123
1, 299332, Note_off_c, 0, 74, 66
1, 299342, Note_off_c, 0, 75, 68
1, 299345, Control_c, 0, 64, 127
1, 299398, Note_on_c, 0, 77, 75
1, 299426, Note_on_c, 0, 72, 90
1, 299446, Note_off_c, 0, 61, 62
1, 299446, Note_off_c, 0, 77, 64
1, 299449, Note_off_c, 0, 72, 66
1, 299460, Note_off_c, 0, 68, 62
1, 299473, Note_on_c, 0, 79, 33
1, 299506, Note_off_c, 0, 79, 52
1, 299515, Note_on_c, 0, 81, 78
1, 299539, Note_on_c, 0, 86, 82
1, 299546, Note_on_c, 0, 83, 49
1, 299555, Note_off_c, 0, 83, 48
1, 299564, Note_off_c, 0, 81, 63
1, 299576, Note_on_c, 0, 87, 81
1, 299595, Note_on_c, 0, 89, 94
1, 299595, Note_off_c, 0, 86, 67
1, 299599, Note_off_c, 0, 87, 69
1, 299630, Note_off_c, 0, 89, 65
1, 299686, Note_on_c, 0, 90, 87
1, 299704, Note_off_c, 0, 90, 72
1, 299790, Note_on_c, 0, 90, 91
1, 299807, Note_off_c, 0, 90, 73
1, 299812, Control_c, 0, 64, 121
1, 299827, Control_c, 0, 64, 87
1, 299842, Control_c, 0, 64, 64
1, 299857, Control_c, 0, 64, 0
1, 299884, Note_on_c, 0, 63, 61
1, 299891, Note_on_c, 0, 56, 47
1, 299893, Note_on_c, 0, 90, 85
1, 299912, Note_off_c, 0, 90, 72
1, 299931, Control_c, 0, 64, 51
1, 299945, Control_c, 0, 64, 64
1, 299960, Control_c, 0, 64, 68
1, 299975, Control_c, 0, 64, 70
1, 299987, Note_on_c, 0, 90, 76
1, 299990, Control_c, 0, 64, 72
1, 300005, Control_c, 0, 64, 75
1, 300019, Control_c, 0, 64, 78
1, 300020, Note_off_c, 0, 90, 66
1, 300034, Control_c, 0, 64, 81
1, 300049, Control_c, 0, 64, 83
1, 300055, Note_off_c, 0, 63, 57
1, 300056, Note_off_c, 0, 56, 64
1, 300064, Control_c, 0, 64, 85
1, 300077, Note_on_c, 0, 64, 56
1, 300079, Control_c, 0, 64, 88
1, 300081, Note_on_c, 0, 90, 68
1, 300093, Control_c, 0, 64, 91
1, 300094, Note_on_c, 0, 57, 52
1, 300103, Note_off_c, 0, 90, 70
1, 300108, Control_c, 0, 64, 95
1, 300123, Control_c, 0, 64, 97
1, 300138, Control_c, 0, 64, 99
1, 300151, Note_off_c, 0, 64, 62
1, 300153, Control_c, 0, 64, 102
1, 300165, Note_off_c, 0, 57, 54
1, 300168, Control_c, 0, 64, 103
1, 300177, Note_on_c, 0, 90, 80
1, 300182, Control_c, 0, 64, 104
1, 300197, Control_c, 0, 64, 106
1, 300212, Control_c, 0, 64, 108
1, 300219, Note_off_c, 0, 90, 64
1, 300227, Control_c, 0, 64, 110
1, 300242, Control_c, 0, 64, 111
1, 300272, Control_c, 0, 64, 112
1, 300280, Note_on_c, 0, 90, 80
1, 300287, Control_c, 0, 64, 114
1, 300302, Control_c, 0, 64, 119
1, 300306, Note_off_c, 0, 90, 67
1, 300317, Control_c, 0, 64, 127
1, 300371, Note_on_c, 0, 90, 85
1, 300412, Note_off_c, 0, 90, 65
1, 300421, Control_c, 0, 64, 105
1, 300435, Control_c, 0, 64, 94
1, 300450, Control_c, 0, 64, 93
1, 300465, Control_c, 0, 64, 93
1, 300468, Note_on_c, 0, 90, 85
1, 300487, Control_c, 0, 64, 96
1, 300494, Note_on_c, 0, 73, 88
1, 300502, Control_c, 0, 64, 101
1, 300514, Note_off_c, 0, 90, 65
1, 300516, Control_c, 0, 64, 108
1, 300531, Control_c, 0, 64, 123
1, 300546, Control_c, 0, 64, 127
1, 300572, Note_on_c, 0, 90, 87
1, 300604, Note_off_c, 0, 73, 64
1, 300618, Note_off_c, 0, 90, 67
1, 300670, Note_on_c, 0, 90, 92
1, 300674, Note_on_c, 0, 72, 79
1, 300690, Note_on_c, 0, 69, 68
1, 300714, Note_off_c, 0, 72, 67
1, 300717, Note_off_c, 0, 90, 66
1, 300730, Note_off_c, 0, 69, 63
1, 300773, Note_on_c, 0, 90, 93
1, 300820, Note_off_c, 0, 90, 66
1, 300872, Control_c, 0, 64, 96
1, 300874, Note_on_c, 0, 90, 100
1, 300878, Note_on_c, 0, 68, 98
1, 300886, Control_c, 0, 64, 93
1, 300901, Control_c, 0, 64, 101
1, 300916, Control_c, 0, 64, 127
1, 300922, Note_off_c, 0, 90, 66
1, 300977, Note_on_c, 0, 90, 96
1, 301025, Note_off_c, 0, 90, 66
1, 301066, Note_off_c, 0, 68, 64
1, 301072, Note_on_c, 0, 63, 91
1, 301077, Note_on_c, 0, 90, 103
1, 301121, Note_off_c, 0, 63, 66
1, 301124, Note_off_c, 0, 90, 67
1, 301190, Note_on_c, 0, 90, 104
1, 301244, Note_off_c, 0, 90, 66
1, 301251, Control_c, 0, 64, 117
1, 301265, Control_c, 0, 64, 68
1, 301280, Control_c, 0, 64, 0
1, 301289, Note_on_c, 0, 56, 97
1, 301300, Note_on_c, 0, 90, 102
1, 301324, Control_c, 0, 64, 56
1, 301339, Control_c, 0, 64, 69
1, 301346, Note_off_c, 0, 90, 67
1, 301354, Control_c, 0, 64, 80
1, 301363, Note_on_c, 0, 46, 5
1, 301369, Control_c, 0, 64, 97
1, 301384, Control_c, 0, 64, 127
1, 301409, Note_on_c, 0, 90, 101
1, 301410, Poly_aftertouch_c, 0, 49, 127
1, 301452, Note_off_c, 0, 90, 66
1, 301506, Note_off_c, 0, 46, 36
1, 301508, Note_on_c, 0, 90, 103
1, 301518, Poly_aftertouch_c, 0, 49, 0
1, 301521, Note_off_c, 0, 56, 65
1, 301558, Note_off_c, 0, 90, 67
1, 301621, Note_on_c, 0, 90, 98
1, 301673, Note_off_c, 0, 90, 66
1, 301712, Note_on_c, 0, 48, 101
1, 301727, Note_on_c, 0, 90, 99
1, 301776, Note_off_c, 0, 90, 66
1, 301845, Note_on_c, 0, 90, 99
1, 301901, Note_off_c, 0, 90, 66
1, 301947, Note_on_c, 0, 49, 100
1, 301950, Note_off_c, 0, 48, 61
1, 301971, Note_on_c, 0, 90, 89
1, 301984, Note_on_c, 0, 91, 91
1, 301995, Note_off_c, 0, 49, 68
1, 302007, Note_off_c, 0, 91, 61
1, 302022, Note_off_c, 0, 90, 58
1, 302097, Note_on_c, 0, 90, 97
1, 302123, Note_on_c, 0, 91, 65
1, 302140, Note_off_c, 0, 90, 64
1, 302142, Note_off_c, 0, 91, 67
1, 302213, Note_on_c, 0, 90, 101
1, 302266, Note_off_c, 0, 90, 67
1, 302342, Note_on_c, 0, 90, 107
1, 302385, Note_off_c, 0, 90, 66
1, 302547, Control_c, 0, 64, 66
1, 302552, Note_on_c, 0, 48, 100
1, 302557, Note_on_c, 0, 41, 93
1, 302562, Control_c, 0, 64, 0
1, 302594, Note_on_c, 0, 46, 41
1, 302630, Note_off_c, 0, 46, 46
1, 302711, Control_c, 0, 64, 19
1, 302734, Control_c, 0, 64, 56
1, 302749, Control_c, 0, 64, 67
1, 302761, Note_off_c, 0, 48, 55
1, 302763, Control_c, 0, 64, 72
1, 302778, Control_c, 0, 64, 76
1, 302793, Control_c, 0, 64, 79
1, 302808, Note_off_c, 0, 41, 59
1, 302808, Control_c, 0, 64, 81
1, 302823, Control_c, 0, 64, 85
1, 302837, Control_c, 0, 64, 91
1, 302852, Control_c, 0, 64, 97
1, 302861, Poly_aftertouch_c, 0, 45, 127
1, 302867, Control_c, 0, 64, 109
1, 302882, Control_c, 0, 64, 127
1, 302885, Note_on_c, 0, 57, 77
1, 302887, Note_on_c, 0, 59, 65
1, 302904, Note_on_c, 0, 66, 99
1, 302906, Note_on_c, 0, 62, 76
1, 302907, Note_on_c, 0, 56, 105
1, 302913, Note_off_c, 0, 59, 64
1, 302916, Poly_aftertouch_c, 0, 45, 0
1, 302922, Note_off_c, 0, 57, 63
1, 302930, Note_off_c, 0, 62, 67
1, 302943, Note_off_c, 0, 66, 68
1, 302952, Note_off_c, 0, 56, 68
1, 303119, Control_c, 0, 64, 99
1, 303134, Control_c, 0, 64, 40
1, 303137, Note_on_c, 0, 48, 96
1, 303146, Note_on_c, 0, 41, 87
1, 303148, Control_c, 0, 64, 0
1, 303222, Note_off_c, 0, 41, 60
1, 303222, Control_c, 0, 64, 62
1, 303228, Note_off_c, 0, 48, 57
1, 303237, Control_c, 0, 64, 69
1, 303252, Control_c, 0, 64, 74
1, 303267, Control_c, 0, 64, 78
1, 303281, Control_c, 0, 64, 83
1, 303296, Control_c, 0, 64, 85
1, 303311, Control_c, 0, 64, 91
1, 303326, Control_c, 0, 64, 101
1, 303341, Control_c, 0, 64, 127
1, 303343, Note_on_c, 0, 41, 84
1, 303346, Note_on_c, 0, 48, 91
1, 303370, Control_c, 0, 64, 109
1, 303380, Note_off_c, 0, 41, 64
1, 303385, Control_c, 0, 64, 94
1, 303386, Note_off_c, 0, 48, 66
1, 303400, Control_c, 0, 64, 87
1, 303415, Control_c, 0, 64, 87
1, 303429, Control_c, 0, 64, 89
1, 303444, Control_c, 0, 64, 92
1, 303460, Control_c, 0, 64, 95
1, 303482, Control_c, 0, 64, 101
1, 303497, Control_c, 0, 64, 109
1, 303512, Control_c, 0, 64, 127
1, 303550, Note_on_c, 0, 53, 73
1, 303551, Note_on_c, 0, 57, 69
1, 303557, Control_c, 0, 64, 101
1, 303559, Note_on_c, 0, 51, 73
1, 303559, Note_on_c, 0, 61, 78
1, 303572, Control_c, 0, 64, 87
1, 303578, Note_off_c, 0, 57, 65
1, 303586, Control_c, 0, 64, 82
1, 303593, Note_on_c, 0, 63, 69
1, 303601, Control_c, 0, 64, 86
1, 303608, Note_on_c, 0, 66, 77
1, 303608, Note_off_c, 0, 61, 65
1, 303609, Note_on_c, 0, 56, 96
1, 303616, Control_c, 0, 64, 94
1, 303619, Note_off_c, 0, 63, 65
1, 303622, Note_off_c, 0, 53, 67
1, 303626, Note_off_c, 0, 51, 64
1, 303630, Note_off_c, 0, 56, 69
1, 303631, Note_off_c, 0, 66, 69
1, 303631, Control_c, 0, 64, 104
1, 303646, Control_c, 0, 64, 127
1, 303702, Note_on_c, 0, 69, 83
1, 303739, Note_on_c, 0, 73, 81
1, 303763, Note_off_c, 0, 69, 63
1, 303779, Note_on_c, 0, 75, 76
1, 303790, Note_on_c, 0, 78, 82
1, 303800, Note_off_c, 0, 73, 64
1, 303810, Note_off_c, 0, 75, 64
1, 303836, Note_off_c, 0, 78, 62
1, 303891, Note_on_c, 0, 81, 83
1, 303921, Note_on_c, 0, 85, 88
1, 303956, Control_c, 0, 64, 80
1, 303962, Note_off_c, 0, 81, 62
1, 303965, Note_on_c, 0, 87, 91
1, 303971, Control_c, 0, 64, 0
1, 303985, Note_on_c, 0, 68, 104
1, 303989, Note_on_c, 0, 92, 104
1, 303995, Note_off_c, 0, 85, 66
1, 304001, Control_c, 0, 64, 63
1, 304004, Note_off_c, 0, 87, 67
1, 304016, Control_c, 0, 64, 81
1, 304023, Note_off_c, 0, 92, 69
1, 304030, Note_off_c, 0, 68, 66
1, 304031, Control_c, 0, 64, 127
1, 304231, Control_c, 0, 64, 107
1, 304246, Control_c, 0, 64, 80
1, 304262, Control_c, 0, 64, 36
1, 304277, Control_c, 0, 64, 0
1, 304540, Note_on_c, 0, 38, 101
1, 304541, Note_on_c, 0, 35, 97
1, 304602, Control_c, 0, 64, 49
1, 304617, Control_c, 0, 64, 54
1, 304621, Note_off_c, 0, 38, 60
1, 304632, Control_c, 0, 64, 0
1, 304710, Note_on_c, 0, 37, 93
1, 304734, Note_off_c, 0, 35, 62
1, 304758, Note_off_c, 0, 37, 67
1, 304839, Control_c, 0, 64, 54
1, 304854, Control_c, 0, 64, 89
1, 304854, Note_on_c, 0, 54, 96
1, 304856, Note_on_c, 0, 50, 94
1, 304868, Control_c, 0, 64, 102
1, 304881, Note_off_c, 0, 50, 70
1, 304883, Control_c, 0, 64, 88
1, 304892, Note_off_c, 0, 54, 69
1, 304898, Control_c, 0, 64, 59
1, 304913, Control_c, 0, 64, 0
1, 304980, Note_on_c, 0, 54, 86
1, 304983, Note_on_c, 0, 50, 78
1, 305005, Note_off_c, 0, 54, 66
1, 305006, Note_off_c, 0, 50, 68
1, 305084, Note_on_c, 0, 50, 68
1, 305088, Note_on_c, 0, 54, 80
1, 305110, Note_off_c, 0, 54, 68
1, 305113, Note_off_c, 0, 50, 67
1, 305186, Note_on_c, 0, 54, 64
1, 305188, Note_on_c, 0, 50, 72
1, 305215, Note_off_c, 0, 54, 66
1, 305218, Note_off_c, 0, 50, 67
1, 305290, Note_on_c, 0, 50, 69
1, 305292, Note_on_c, 0, 54, 68
1, 305317, Note_off_c, 0, 54, 67
1, 305320, Note_off_c, 0, 50, 67
1, 305393, Note_on_c, 0, 54, 70
1, 305396, Note_on_c, 0, 50, 66
1, 305421, Note_off_c, 0, 54, 66
1, 305424, Note_off_c, 0, 50, 67
1, 305499, Note_on_c, 0, 50, 66
1, 305503, Note_on_c, 0, 54, 64
1, 305526, Note_off_c, 0, 50, 68
1, 305527, Note_off_c, 0, 54, 65
1, 305600, Note_on_c, 0, 50, 66
1, 305602, Note_on_c, 0, 54, 69
1, 305626, Note_off_c, 0, 54, 67
1, 305627, Note_off_c, 0, 50, 68
1, 305701, Note_on_c, 0, 50, 70
1, 305704, Note_on_c, 0, 54, 69
1, 305736, Note_off_c, 0, 54, 67
1, 305740, Note_off_c, 0, 50, 67
1, 305813, Note_on_c, 0, 54, 72
1, 305814, Note_on_c, 0, 50, 68
1, 305840, Note_off_c, 0, 54, 66
1, 305841, Note_off_c, 0, 50, 68
1, 305915, Note_on_c, 0, 50, 65
1, 305915, Note_on_c, 0, 54, 73
1, 305944, Note_off_c, 0, 54, 67
1, 305945, Note_off_c, 0, 50, 67
1, 306003, Note_on_c, 0, 50, 77
1, 306011, Note_on_c, 0, 54, 70
1, 306042, Note_off_c, 0, 54, 69
1, 306044, Note_off_c, 0, 50, 65
1, 306101, Note_on_c, 0, 54, 100
1, 306111, Note_on_c, 0, 55, 91
1, 306131, Note_off_c, 0, 54, 67
1, 306144, Control_c, 0, 64, 33
1, 306153, Note_off_c, 0, 55, 63
1, 306159, Control_c, 0, 64, 63
1, 306173, Control_c, 0, 64, 62
1, 306203, Control_c, 0, 64, 62
1, 306208, Note_on_c, 0, 55, 86
1, 306210, Note_on_c, 0, 54, 79
1, 306232, Note_off_c, 0, 54, 69
1, 306233, Control_c, 0, 64, 62
1, 306247, Control_c, 0, 64, 61
1, 306262, Note_off_c, 0, 55, 63
1, 306262, Control_c, 0, 64, 58
1, 306277, Control_c, 0, 64, 55
1, 306292, Control_c, 0, 64, 44
1, 306306, Control_c, 0, 64, 0
1, 306310, Note_on_c, 0, 57, 78
1, 306344, Note_off_c, 0, 57, 65
1, 306413, Note_on_c, 0, 57, 82
1, 306434, Note_off_c, 0, 57, 69
1, 306508, Note_on_c, 0, 58, 82
1, 306538, Note_off_c, 0, 58, 62
1, 306609, Note_on_c, 0, 57, 71
1, 306618, Note_on_c, 0, 58, 71
1, 306634, Note_off_c, 0, 57, 64
1, 306642, Note_off_c, 0, 58, 68
1, 306705, Note_on_c, 0, 58, 89
1, 306706, Note_on_c, 0, 50, 74
1, 306711, Note_on_c, 0, 54, 79
1, 306714, Note_on_c, 0, 57, 54
1, 306727, Note_off_c, 0, 58, 67
1, 306737, Note_off_c, 0, 57, 58
1, 306744, Note_off_c, 0, 54, 60
1, 306770, Note_off_c, 0, 50, 48
1, 306789, Control_c, 0, 64, 26
1, 306803, Control_c, 0, 64, 50
1, 306808, Note_on_c, 0, 57, 69
1, 306809, Note_on_c, 0, 58, 84
1, 306818, Control_c, 0, 64, 59
1, 306830, Note_off_c, 0, 58, 70
1, 306833, Note_off_c, 0, 57, 66
1, 306833, Control_c, 0, 64, 63
1, 306848, Control_c, 0, 64, 64
1, 306878, Control_c, 0, 64, 57
1, 306892, Control_c, 0, 64, 0
1, 306901, Note_on_c, 0, 57, 79
1, 306901, Note_on_c, 0, 58, 90
1, 306906, Note_on_c, 0, 52, 70
1, 306916, Note_on_c, 0, 48, 57
1, 306922, Note_off_c, 0, 57, 70
1, 306927, Note_off_c, 0, 58, 67
1, 306962, Note_off_c, 0, 52, 54
1, 306967, Control_c, 0, 64, 43
1, 306982, Control_c, 0, 64, 57
1, 306997, Control_c, 0, 64, 64
1, 307002, Note_on_c, 0, 58, 86
1, 307004, Note_on_c, 0, 57, 71
1, 307012, Control_c, 0, 64, 68
1, 307022, Note_off_c, 0, 58, 69
1, 307027, Control_c, 0, 64, 70
1, 307030, Note_off_c, 0, 57, 67
1, 307041, Control_c, 0, 64, 68
1, 307056, Control_c, 0, 64, 63
1, 307071, Control_c, 0, 64, 0
1, 307072, Note_off_c, 0, 48, 37
1, 307101, Note_on_c, 0, 50, 71
1, 307102, Note_on_c, 0, 58, 82
1, 307105, Note_on_c, 0, 57, 74
1, 307107, Note_on_c, 0, 46, 76
1, 307116, Control_c, 0, 64, 39
1, 307125, Note_off_c, 0, 58, 66
1, 307131, Control_c, 0, 64, 56
1, 307131, Note_off_c, 0, 57, 67
1, 307132, Note_off_c, 0, 50, 73
1, 307146, Control_c, 0, 64, 61
1, 307161, Control_c, 0, 64, 64
1, 307170, Note_off_c, 0, 46, 62
1, 307176, Control_c, 0, 64, 67
1, 307191, Control_c, 0, 64, 70
1, 307205, Control_c, 0, 64, 71
1, 307211, Note_on_c, 0, 58, 73
1, 307224, Note_on_c, 0, 57, 62
1, 307227, Control_c, 0, 64, 72
1, 307241, Note_off_c, 0, 58, 68
1, 307242, Control_c, 0, 64, 72
1, 307244, Note_off_c, 0, 57, 64
1, 307256, Control_c, 0, 64, 73
1, 307271, Control_c, 0, 64, 73
1, 307301, Control_c, 0, 64, 73
1, 307316, Control_c, 0, 64, 71
1, 307325, Note_on_c, 0, 49, 77
1, 307326, Note_on_c, 0, 45, 64
1, 307328, Note_on_c, 0, 58, 60
1, 307330, Note_on_c, 0, 57, 47
1, 307331, Control_c, 0, 64, 66
1, 307346, Control_c, 0, 64, 46
1, 307355, Note_off_c, 0, 58, 66
1, 307356, Note_off_c, 0, 57, 56
1, 307360, Control_c, 0, 64, 0
1, 307425, Note_on_c, 0, 57, 60
1, 307427, Note_on_c, 0, 58, 64
1, 307435, Control_c, 0, 64, 42
1, 307450, Control_c, 0, 64, 57
1, 307457, Note_off_c, 0, 57, 65
1, 307459, Note_off_c, 0, 58, 64
1, 307465, Control_c, 0, 64, 63
1, 307480, Control_c, 0, 64, 65
1, 307495, Control_c, 0, 64, 69
1, 307510, Control_c, 0, 64, 72
1, 307524, Control_c, 0, 64, 74
1, 307532, Note_on_c, 0, 57, 62
1, 307539, Control_c, 0, 64, 77
1, 307545, Note_on_c, 0, 58, 62
1, 307554, Control_c, 0, 64, 80
1, 307555, Note_off_c, 0, 57, 64
1, 307569, Note_off_c, 0, 58, 61
1, 307569, Control_c, 0, 64, 83
1, 307584, Control_c, 0, 64, 88
1, 307599, Control_c, 0, 64, 91
1, 307614, Control_c, 0, 64, 91
1, 307634, Note_on_c, 0, 57, 65
1, 307635, Note_on_c, 0, 43, 72
1, 307635, Note_off_c, 0, 45, 60
1, 307636, Note_on_c, 0, 58, 75
1, 307638, Note_on_c, 0, 46, 79
1, 307644, Note_off_c, 0, 49, 61
1, 307666, Note_off_c, 0, 57, 63
1, 307678, Note_off_c, 0, 58, 56
1, 307717, Control_c, 0, 64, 89
1, 307732, Control_c, 0, 64, 82
1, 307746, Control_c, 0, 64, 68
1, 307755, Note_on_c, 0, 55, 80
1, 307761, Control_c, 0, 64, 0
1, 307765, Note_on_c, 0, 51, 73
1, 307765, Note_off_c, 0, 43, 58
1, 307778, Note_on_c, 0, 58, 51
1, 307779, Note_off_c, 0, 46, 61
1, 307781, Note_on_c, 0, 57, 36
1, 307803, Note_off_c, 0, 58, 59
1, 307810, Note_off_c, 0, 57, 56
1, 307887, Note_on_c, 0, 58, 49
1, 307904, Note_on_c, 0, 57, 24
1, 307914, Note_off_c, 0, 58, 60
1, 307939, Control_c, 0, 64, 41
1, 307947, Note_off_c, 0, 57, 29
1, 307954, Control_c, 0, 64, 59
1, 307976, Control_c, 0, 64, 63
1, 307991, Control_c, 0, 64, 65
1, 308006, Control_c, 0, 64, 67
1, 308013, Note_on_c, 0, 58, 45
1, 308020, Control_c, 0, 64, 69
1, 308035, Control_c, 0, 64, 70
1, 308039, Note_off_c, 0, 58, 59
1, 308050, Control_c, 0, 64, 72
1, 308065, Control_c, 0, 64, 74
1, 308079, Control_c, 0, 64, 76
1, 308094, Control_c, 0, 64, 78
1, 308109, Control_c, 0, 64, 78
1, 308134, Note_on_c, 0, 58, 44
1, 308142, Note_on_c, 0, 57, 37
1, 308172, Note_off_c, 0, 57, 51
1, 308172, Note_off_c, 0, 58, 61
1, 308243, Control_c, 0, 64, 78
1, 308256, Note_off_c, 0, 55, 46
1, 308258, Control_c, 0, 64, 75
1, 308270, Note_on_c, 0, 43, 37
1, 308273, Control_c, 0, 64, 70
1, 308276, Note_on_c, 0, 57, 43
1, 308277, Note_off_c, 0, 51, 53
1, 308281, Note_on_c, 0, 58, 45
1, 308285, Note_on_c, 0, 46, 43
1, 308288, Control_c, 0, 64, 62
1, 308302, Control_c, 0, 64, 57
1, 308304, Note_off_c, 0, 57, 57
1, 308315, Note_off_c, 0, 58, 61
1, 308317, Control_c, 0, 64, 64
1, 308332, Control_c, 0, 64, 66
1, 308347, Control_c, 0, 64, 68
1, 308349, Note_off_c, 0, 43, 59
1, 308362, Control_c, 0, 64, 70
1, 308377, Control_c, 0, 64, 73
1, 308392, Control_c, 0, 64, 77
1, 308407, Control_c, 0, 64, 79
1, 308412, Note_on_c, 0, 58, 53
1, 308422, Control_c, 0, 64, 82
1, 308437, Control_c, 0, 64, 83
1, 308441, Note_off_c, 0, 58, 66
1, 308451, Control_c, 0, 64, 84
1, 308466, Control_c, 0, 64, 85
1, 308495, Control_c, 0, 64, 86
1, 308510, Control_c, 0, 64, 86
1, 308569, Control_c, 0, 64, 86
1, 308584, Note_off_c, 0, 46, 54
1, 308584, Control_c, 0, 64, 80
1, 308599, Control_c, 0, 64, 64
1, 308614, Control_c, 0, 64, 0
1, 308629, Note_on_c, 0, 44, 36
1, 308632, Note_on_c, 0, 51, 38
1, 308642, Note_on_c, 0, 52, 42
1, 308740, Control_c, 0, 64, 62
1, 308755, Control_c, 0, 64, 68
1, 308760, Note_off_c, 0, 44, 58
1, 308766, Note_off_c, 0, 51, 59
1, 308768, Note_off_c, 0, 52, 58
1, 308769, Control_c, 0, 64, 72
1, 308779, Note_on_c, 0, 52, 6
1, 308780, Note_off_c, 0, 52, 127
1, 308784, Control_c, 0, 64, 76
1, 308799, Control_c, 0, 64, 82
1, 308814, Control_c, 0, 64, 89
1, 308829, Control_c, 0, 64, 96
1, 308843, Note_on_c, 0, 82, 62
1, 308844, Control_c, 0, 64, 98
1, 308858, Control_c, 0, 64, 99
1, 308866, Note_off_c, 0, 82, 63
1, 308873, Control_c, 0, 64, 102
1, 308877, Note_on_c, 0, 83, 72
1, 308888, Control_c, 0, 64, 108
1, 308902, Control_c, 0, 64, 119
1, 308917, Control_c, 0, 64, 127
1, 308925, Note_off_c, 0, 83, 61
1, 308933, Note_on_c, 0, 82, 81
1, 308973, Note_on_c, 0, 83, 70
1, 308994, Note_off_c, 0, 82, 61
1, 309024, Note_on_c, 0, 86, 77
1, 309027, Note_off_c, 0, 83, 67
1, 309029, Note_on_c, 0, 75, 74
1, 309033, Note_on_c, 0, 76, 67
1, 309036, Control_c, 0, 64, 119
1, 309041, Note_on_c, 0, 68, 54
1, 309051, Note_off_c, 0, 75, 71
1, 309052, Note_off_c, 0, 76, 65
1, 309052, Control_c, 0, 64, 95
1, 309063, Note_off_c, 0, 68, 61
1, 309067, Control_c, 0, 64, 79
1, 309079, Note_off_c, 0, 86, 66
1, 309081, Control_c, 0, 64, 73
1, 309096, Control_c, 0, 64, 75
1, 309111, Control_c, 0, 64, 78
1, 309123, Note_on_c, 0, 85, 84
1, 309125, Control_c, 0, 64, 80
1, 309140, Control_c, 0, 64, 83
1, 309143, Note_on_c, 0, 68, 51
1, 309143, Note_on_c, 0, 75, 60
1, 309143, Note_on_c, 0, 76, 50
1, 309155, Control_c, 0, 64, 88
1, 309162, Note_off_c, 0, 75, 65
1, 309170, Control_c, 0, 64, 91
1, 309172, Note_off_c, 0, 76, 55
1, 309173, Note_off_c, 0, 68, 55
1, 309185, Control_c, 0, 64, 91
1, 309200, Control_c, 0, 64, 92
1, 309211, Note_off_c, 0, 85, 60
1, 309215, Control_c, 0, 64, 93
1, 309224, Note_on_c, 0, 88, 92
1, 309226, Note_on_c, 0, 75, 66
1, 309230, Control_c, 0, 64, 95
1, 309238, Note_on_c, 0, 68, 52
1, 309240, Note_on_c, 0, 76, 49
1, 309241, Note_off_c, 0, 75, 68
1, 309244, Control_c, 0, 64, 97
1, 309259, Note_off_c, 0, 68, 63
1, 309259, Control_c, 0, 64, 98
1, 309266, Note_off_c, 0, 76, 57
1, 309274, Control_c, 0, 64, 99
1, 309295, Note_off_c, 0, 88, 62
1, 309314, Note_on_c, 0, 68, 74
1, 309320, Note_on_c, 0, 75, 59
1, 309322, Note_on_c, 0, 87, 94
1, 309329, Note_on_c, 0, 76, 58
1, 309336, Note_off_c, 0, 68, 69
1, 309346, Note_off_c, 0, 75, 65
1, 309352, Note_off_c, 0, 76, 59
1, 309406, Control_c, 0, 64, 98
1, 309421, Note_on_c, 0, 76, 77
1, 309421, Control_c, 0, 64, 92
1, 309426, Note_on_c, 0, 75, 72
1, 309430, Note_on_c, 0, 91, 90
1, 309435, Note_off_c, 0, 87, 63
1, 309436, Note_on_c, 0, 68, 53
1, 309436, Control_c, 0, 64, 81
1, 309450, Control_c, 0, 64, 69
1, 309458, Note_off_c, 0, 68, 60
1, 309459, Note_on_c, 0, 89, 54
1, 309461, Note_off_c, 0, 75, 55
1, 309461, Note_off_c, 0, 76, 57
1, 309473, Control_c, 0, 64, 65
1, 309488, Control_c, 0, 64, 70
1, 309489, Note_off_c, 0, 89, 38
1, 309503, Control_c, 0, 64, 74
1, 309518, Control_c, 0, 64, 76
1, 309531, Note_on_c, 0, 90, 90
1, 309532, Control_c, 0, 64, 79
1, 309547, Control_c, 0, 64, 83
1, 309562, Control_c, 0, 64, 88
1, 309566, Note_off_c, 0, 91, 62
1, 309577, Control_c, 0, 64, 92
1, 309592, Control_c, 0, 64, 94
1, 309606, Control_c, 0, 64, 96
1, 309621, Control_c, 0, 64, 98
1, 309629, Note_on_c, 0, 82, 95
1, 309636, Control_c, 0, 64, 100
1, 309645, Note_off_c, 0, 90, 65
1, 309650, Control_c, 0, 64, 100
1, 309665, Control_c, 0, 64, 101
1, 309680, Control_c, 0, 64, 101
1, 309695, Control_c, 0, 64, 102
1, 309710, Control_c, 0, 64, 103
1, 309718, Note_on_c, 0, 81, 91
1, 309730, Note_off_c, 0, 82, 65
1, 309766, Note_off_c, 0, 81, 67
1, 309822, Note_on_c, 0, 79, 89
1, 309859, Control_c, 0, 64, 101
1, 309873, Control_c, 0, 64, 95
1, 309888, Control_c, 0, 64, 88
1, 309903, Control_c, 0, 64, 83
1, 309918, Control_c, 0, 64, 82
1, 309921, Note_on_c, 0, 78, 81
1, 309924, Note_off_c, 0, 79, 63
1, 309948, Control_c, 0, 64, 83
1, 309963, Control_c, 0, 64, 86
1, 309978, Control_c, 0, 64, 88
1, 309993, Control_c, 0, 64, 90
1, 310008, Control_c, 0, 64, 92
1, 310014, Note_on_c, 0, 59, 51
1, 310017, Note_off_c, 0, 78, 61
1, 310020, Note_on_c, 0, 68, 77
1, 310022, Control_c, 0, 64, 94
1, 310037, Control_c, 0, 64, 96
1, 310041, Note_off_c, 0, 59, 59
1, 310052, Control_c, 0, 64, 98
1, 310065, Control_c, 0, 64, 100
1, 310072, Poly_aftertouch_c, 0, 62, 127
1, 310073, Note_off_c, 0, 68, 59
1, 310080, Control_c, 0, 64, 100
1, 310106, Poly_aftertouch_c, 0, 62, 0
1, 310122, Note_on_c, 0, 59, 59
1, 310132, Note_on_c, 0, 64, 6
1, 310138, Note_on_c, 0, 63, 44
1, 310145, Note_off_c, 0, 59, 64
1, 310168, Note_off_c, 0, 63, 55
1, 310182, Note_off_c, 0, 64, 52
1, 310266, Control_c, 0, 64, 99
1, 310280, Control_c, 0, 64, 97
1, 310295, Control_c, 0, 64, 94
1, 310298, Note_on_c, 0, 52, 66
1, 310310, Control_c, 0, 64, 89
1, 310318, Note_on_c, 0, 45, 52
1, 310325, Control_c, 0, 64, 80
1, 310340, Control_c, 0, 64, 66
1, 310354, Control_c, 0, 64, 0
1, 310416, Note_on_c, 0, 60, 51
1, 310421, Note_on_c, 0, 57, 42
1, 310443, Control_c, 0, 64, 52
1, 310444, Note_off_c, 0, 60, 65
1, 310450, Note_off_c, 0, 57, 53
1, 310458, Control_c, 0, 64, 63
1, 310473, Control_c, 0, 64, 66
1, 310487, Control_c, 0, 64, 67
1, 310502, Control_c, 0, 64, 70
1, 310516, Note_on_c, 0, 60, 68
1, 310517, Control_c, 0, 64, 73
1, 310518, Note_on_c, 0, 57, 61
1, 310532, Control_c, 0, 64, 77
1, 310543, Note_off_c, 0, 60, 67
1, 310546, Note_off_c, 0, 57, 65
1, 310547, Control_c, 0, 64, 79
1, 310562, Control_c, 0, 64, 81
1, 310577, Control_c, 0, 64, 82
1, 310592, Control_c, 0, 64, 84
1, 310604, Note_off_c, 0, 52, 63
1, 310607, Control_c, 0, 64, 87
1, 310607, Note_on_c, 0, 57, 72
1, 310613, Note_on_c, 0, 60, 76
1, 310621, Note_on_c, 0, 53, 89
1, 310621, Control_c, 0, 64, 90
1, 310629, Note_off_c, 0, 45, 64
1, 310636, Control_c, 0, 64, 93
1, 310645, Note_off_c, 0, 60, 60
1, 310651, Note_off_c, 0, 57, 59
1, 310696, Control_c, 0, 64, 94
1, 310711, Control_c, 0, 64, 94
1, 310717, Note_on_c, 0, 58, 99
1, 310724, Note_on_c, 0, 57, 67
1, 310728, Note_on_c, 0, 60, 76
1, 310744, Note_off_c, 0, 53, 66
1, 310749, Note_off_c, 0, 60, 69
1, 310756, Control_c, 0, 64, 90
1, 310756, Note_off_c, 0, 57, 64
1, 310770, Control_c, 0, 64, 78
1, 310785, Control_c, 0, 64, 63
1, 310800, Control_c, 0, 64, 54
1, 310815, Control_c, 0, 64, 65
1, 310830, Control_c, 0, 64, 69
1, 310831, Note_on_c, 0, 60, 79
1, 310836, Note_on_c, 0, 57, 65
1, 310845, Control_c, 0, 64, 73
1, 310860, Control_c, 0, 64, 78
1, 310860, Note_off_c, 0, 57, 65
1, 310860, Note_off_c, 0, 60, 64
1, 310875, Control_c, 0, 64, 86
1, 310889, Control_c, 0, 64, 95
1, 310904, Control_c, 0, 64, 104
1, 310919, Control_c, 0, 64, 103
1, 310923, Note_on_c, 0, 56, 95
1, 310930, Note_on_c, 0, 57, 68
1, 310932, Note_on_c, 0, 60, 76
1, 310934, Control_c, 0, 64, 89
1, 310939, Note_off_c, 0, 58, 63
1, 310949, Control_c, 0, 64, 72
1, 310967, Note_off_c, 0, 57, 63
1, 310970, Control_c, 0, 64, 53
1, 310973, Note_off_c, 0, 60, 61
1, 310985, Control_c, 0, 64, 64
1, 311000, Control_c, 0, 64, 69
1, 311015, Control_c, 0, 64, 73
1, 311030, Control_c, 0, 64, 79
1, 311034, Note_on_c, 0, 57, 64
1, 311036, Note_on_c, 0, 60, 73
1, 311045, Control_c, 0, 64, 89
1, 311060, Control_c, 0, 64, 102
1, 311075, Control_c, 0, 64, 117
1, 311086, Note_off_c, 0, 57, 56
1, 311090, Control_c, 0, 64, 127
1, 311097, Note_off_c, 0, 60, 61
1, 311113, Note_off_c, 0, 56, 60
1, 311119, Control_c, 0, 64, 112
1, 311126, Note_on_c, 0, 55, 90
1, 311134, Control_c, 0, 64, 83
1, 311137, Note_on_c, 0, 64, 74
1, 311149, Control_c, 0, 64, 0
1, 311176, Note_off_c, 0, 64, 64
1, 311237, Control_c, 0, 64, 39
1, 311240, Note_on_c, 0, 64, 68
1, 311241, Note_on_c, 0, 60, 65
1, 311252, Control_c, 0, 64, 63
1, 311267, Control_c, 0, 64, 68
1, 311273, Note_off_c, 0, 60, 64
1, 311277, Note_off_c, 0, 64, 62
1, 311282, Control_c, 0, 64, 71
1, 311296, Control_c, 0, 64, 73
1, 311311, Control_c, 0, 64, 76
1, 311326, Control_c, 0, 64, 81
1, 311341, Control_c, 0, 64, 85
1, 311356, Control_c, 0, 64, 88
1, 311357, Note_on_c, 0, 66, 100
1, 311358, Note_on_c, 0, 64, 78
1, 311361, Note_on_c, 0, 60, 56
1, 311370, Control_c, 0, 64, 90
1, 311385, Control_c, 0, 64, 93
1, 311392, Note_off_c, 0, 55, 63
1, 311400, Control_c, 0, 64, 95
1, 311407, Note_off_c, 0, 64, 61
1, 311409, Note_off_c, 0, 60, 50
1, 311415, Control_c, 0, 64, 99
1, 311429, Control_c, 0, 64, 103
1, 311446, Control_c, 0, 64, 108
1, 311448, Note_off_c, 0, 66, 66
1, 311460, Control_c, 0, 64, 112
1, 311461, Note_on_c, 0, 60, 62
1, 311467, Note_on_c, 0, 64, 72
1, 311475, Control_c, 0, 64, 123
1, 311490, Control_c, 0, 64, 127
1, 311510, Note_off_c, 0, 60, 60
1, 311516, Note_off_c, 0, 64, 62
1, 311569, Note_on_c, 0, 64, 75
1, 311570, Note_on_c, 0, 60, 60
1, 311604, Note_off_c, 0, 60, 62
1, 311620, Note_off_c, 0, 64, 64
1, 311674, Note_on_c, 0, 64, 71
1, 311677, Note_on_c, 0, 60, 58
1, 311704, Note_off_c, 0, 60, 65
1, 311751, Note_off_c, 0, 64, 58
1, 311759, Note_on_c, 0, 71, 97
1, 311774, Note_off_c, 0, 71, 78
1, 311783, Note_on_c, 0, 67, 86
1, 311891, Note_off_c, 0, 67, 66
1, 311941, Control_c, 0, 64, 90
1, 311956, Control_c, 0, 64, 0
1, 311966, Note_on_c, 0, 70, 99
1, 311972, Note_on_c, 0, 68, 87
1, 311978, Note_on_c, 0, 63, 70
1, 311987, Note_off_c, 0, 70, 68
1, 311992, Note_off_c, 0, 68, 68
1, 311999, Note_off_c, 0, 63, 66
1, 312015, Control_c, 0, 64, 35
1, 312030, Control_c, 0, 64, 65
1, 312044, Control_c, 0, 64, 74
1, 312055, Note_on_c, 0, 70, 77
1, 312059, Control_c, 0, 64, 84
1, 312063, Note_on_c, 0, 68, 69
1, 312065, Note_on_c, 0, 63, 61
1, 312074, Control_c, 0, 64, 95
1, 312082, Note_off_c, 0, 70, 61
1, 312089, Control_c, 0, 64, 103
1, 312093, Note_off_c, 0, 63, 66
1, 312094, Note_off_c, 0, 68, 66
1, 312104, Control_c, 0, 64, 108
1, 312118, Control_c, 0, 64, 113
1, 312133, Control_c, 0, 64, 124
1, 312148, Control_c, 0, 64, 127
1, 312157, Note_on_c, 0, 76, 83
1, 312160, Note_on_c, 0, 83, 74
1, 312168, Note_on_c, 0, 70, 74
1, 312184, Note_on_c, 0, 63, 47
1, 312190, Note_off_c, 0, 70, 65
1, 312193, Note_off_c, 0, 76, 59
1, 312198, Note_on_c, 0, 85, 77
1, 312200, Note_on_c, 0, 68, 42
1, 312208, Note_off_c, 0, 83, 64
1, 312213, Note_off_c, 0, 63, 60
1, 312219, Note_off_c, 0, 68, 64
1, 312254, Note_off_c, 0, 85, 62
1, 312258, Note_on_c, 0, 76, 74
1, 312261, Note_on_c, 0, 83, 72
1, 312274, Note_on_c, 0, 70, 80
1, 312281, Note_on_c, 0, 68, 63
1, 312307, Note_off_c, 0, 68, 65
1, 312315, Note_off_c, 0, 76, 56
1, 312318, Note_on_c, 0, 85, 90
1, 312327, Note_off_c, 0, 70, 64
1, 312345, Note_off_c, 0, 83, 66
1, 312363, Note_on_c, 0, 88, 86
1, 312379, Note_off_c, 0, 85, 66
1, 312381, Note_off_c, 0, 88, 72
1, 312446, Note_on_c, 0, 87, 105
1, 312499, Note_on_c, 0, 88, 29
1, 312523, Note_on_c, 0, 71, 83
1, 312535, Note_on_c, 0, 67, 67
1, 312542, Note_off_c, 0, 88, 42
1, 312544, Note_on_c, 0, 90, 97
1, 312549, Note_off_c, 0, 87, 64
1, 312577, Note_on_c, 0, 89, 13
1, 312590, Note_on_c, 0, 91, 62
1, 312596, Note_off_c, 0, 90, 53
1, 312605, Note_off_c, 0, 67, 59
1, 312609, Note_off_c, 0, 91, 61
1, 312624, Note_on_c, 0, 98, 101
1, 312628, Note_off_c, 0, 89, 40
1, 312630, Note_on_c, 0, 72, 84
1, 312639, Note_off_c, 0, 71, 38
1, 312658, Note_off_c, 0, 72, 64
1, 312677, Poly_aftertouch_c, 0, 66, 0
1, 312719, Note_on_c, 0, 97, 101
1, 312720, Control_c, 0, 64, 80
1, 312726, Note_off_c, 0, 98, 70
1, 312732, Note_on_c, 0, 74, 93
1, 312735, Note_on_c, 0, 67, 73
1, 312735, Control_c, 0, 64, 50
1, 312749, Control_c, 0, 64, 62
1, 312756, Note_off_c, 0, 67, 68
1, 312760, Note_off_c, 0, 74, 66
1, 312764, Control_c, 0, 64, 72
1, 312779, Control_c, 0, 64, 79
1, 312794, Control_c, 0, 64, 88
1, 312806, Note_off_c, 0, 97, 66
1, 312809, Control_c, 0, 64, 104
1, 312814, Note_on_c, 0, 85, 101
1, 312815, Note_on_c, 0, 74, 94
1, 312823, Control_c, 0, 64, 127
1, 312840, Note_on_c, 0, 67, 55
1, 312854, Note_off_c, 0, 74, 68
1, 312858, Note_on_c, 0, 70, 38
1, 312862, Note_off_c, 0, 67, 62
1, 312869, Note_off_c, 0, 85, 65
1, 312888, Note_off_c, 0, 70, 54
1, 312914, Note_on_c, 0, 83, 95
1, 312917, Note_on_c, 0, 67, 74
1, 312917, Note_on_c, 0, 75, 85
1, 312935, Note_on_c, 0, 70, 51
1, 312944, Note_off_c, 0, 67, 66
1, 312956, Note_off_c, 0, 70, 61
1, 312956, Note_off_c, 0, 83, 67
1, 312958, Note_off_c, 0, 75, 65
1, 313012, Note_on_c, 0, 67, 81
1, 313018, Note_on_c, 0, 77, 84
1, 313018, Note_on_c, 0, 70, 73
1, 313029, Note_on_c, 0, 76, 67
1, 313043, Note_off_c, 0, 67, 54
1, 313046, Note_off_c, 0, 77, 64
1, 313049, Note_off_c, 0, 76, 64
1, 313050, Note_off_c, 0, 70, 66
1, 313076, Control_c, 0, 64, 103
1, 313090, Control_c, 0, 64, 68
1, 313105, Control_c, 0, 64, 0
1, 313113, Note_on_c, 0, 77, 108
1, 313115, Note_on_c, 0, 73, 75
1, 313118, Note_on_c, 0, 67, 78
1, 313120, Note_on_c, 0, 91, 95
1, 313123, Note_on_c, 0, 70, 72
1, 313134, Note_off_c, 0, 67, 70
1, 313135, Control_c, 0, 64, 56
1, 313145, Note_off_c, 0, 77, 66
1, 313149, Note_off_c, 0, 70, 64
1, 313150, Control_c, 0, 64, 68
1, 313161, Note_off_c, 0, 91, 66
1, 313164, Control_c, 0, 64, 76
1, 313166, Note_off_c, 0, 73, 63
1, 313179, Control_c, 0, 64, 87
1, 313194, Control_c, 0, 64, 103
1, 313217, Note_on_c, 0, 77, 94
1, 313217, Control_c, 0, 64, 114
1, 313218, Note_on_c, 0, 90, 98
1, 313218, Poly_aftertouch_c, 0, 73, 0
1, 313224, Note_on_c, 0, 73, 66
1, 313232, Control_c, 0, 64, 124
1, 313234, Note_off_c, 0, 77, 70
1, 313244, Note_on_c, 0, 70, 56
1, 313246, Control_c, 0, 64, 127
1, 313257, Note_off_c, 0, 73, 58
1, 313267, Note_off_c, 0, 70, 62
1, 313287, Note_off_c, 0, 90, 63
1, 313319, Note_on_c, 0, 78, 102
1, 313350, Control_c, 0, 64, 93
1, 313364, Control_c, 0, 64, 66
1, 313379, Control_c, 0, 64, 0
1, 313394, Note_off_c, 0, 78, 0
1, 313408, Note_on_c, 0, 85, 94
1, 313419, Note_on_c, 0, 78, 24
1, 313433, Note_on_c, 0, 86, 57
1, 313445, Note_off_c, 0, 78, 43
1, 313451, Note_off_c, 0, 86, 65
1, 313461, Note_off_c, 0, 85, 62
1, 313510, Note_on_c, 0, 75, 102
1, 313528, Control_c, 0, 64, 65
1, 313543, Control_c, 0, 64, 80
1, 313557, Note_off_c, 0, 75, 64
1, 313557, Control_c, 0, 64, 91
1, 313572, Control_c, 0, 64, 104
1, 313587, Control_c, 0, 64, 105
1, 313605, Note_on_c, 0, 82, 99
1, 313631, Control_c, 0, 64, 106
1, 313646, Control_c, 0, 64, 106
1, 313650, Note_off_c, 0, 82, 66
1, 313661, Control_c, 0, 64, 108
1, 313701, Note_on_c, 0, 74, 100
1, 313704, Note_on_c, 0, 77, 88
1, 313705, Control_c, 0, 64, 104
1, 313720, Control_c, 0, 64, 84
1, 313727, Note_off_c, 0, 77, 69
1, 313735, Control_c, 0, 64, 57
1, 313747, Note_off_c, 0, 74, 57
1, 313750, Control_c, 0, 64, 0
1, 313787, Note_on_c, 0, 74, 58
1, 313787, Note_on_c, 0, 76, 89
1, 313787, Note_on_c, 0, 72, 88
1, 313829, Note_off_c, 0, 76, 64
1, 313833, Note_off_c, 0, 72, 68
1, 313833, Note_off_c, 0, 74, 64
1, 313895, Note_on_c, 0, 63, 107
1, 313914, Control_c, 0, 64, 64
1, 313929, Control_c, 0, 64, 82
1, 313939, Note_off_c, 0, 63, 61
1, 313944, Control_c, 0, 64, 97
1, 313966, Control_c, 0, 64, 119
1, 313981, Control_c, 0, 64, 120
1, 313984, Note_on_c, 0, 70, 77
1, 314026, Control_c, 0, 64, 119
1, 314035, Note_off_c, 0, 70, 65
1, 314085, Control_c, 0, 64, 114
1, 314089, Note_on_c, 0, 69, 84
1, 314094, Note_on_c, 0, 65, 75
1, 314097, Note_on_c, 0, 72, 85
1, 314100, Control_c, 0, 64, 99
1, 314114, Control_c, 0, 64, 77
1, 314118, Note_off_c, 0, 72, 68
1, 314129, Control_c, 0, 64, 0
1, 314139, Note_off_c, 0, 69, 64
1, 314145, Note_off_c, 0, 65, 62
1, 314187, Note_on_c, 0, 66, 86
1, 314191, Note_on_c, 0, 72, 92
1, 314196, Note_on_c, 0, 69, 71
1, 314214, Note_on_c, 0, 65, 70
1, 314222, Note_off_c, 0, 72, 69
1, 314236, Note_off_c, 0, 66, 60
1, 314260, Note_off_c, 0, 69, 62
1, 314261, Note_off_c, 0, 65, 67
1, 314286, Note_on_c, 0, 51, 101
1, 314308, Control_c, 0, 64, 67
1, 314322, Control_c, 0, 64, 87
1, 314337, Control_c, 0, 64, 106
1, 314347, Note_off_c, 0, 51, 59
1, 314352, Control_c, 0, 64, 112
1, 314372, Note_on_c, 0, 58, 82
1, 314381, Control_c, 0, 64, 111
1, 314396, Control_c, 0, 64, 103
1, 314411, Control_c, 0, 64, 86
1, 314414, Note_off_c, 0, 58, 66
1, 314426, Control_c, 0, 64, 66
1, 314440, Control_c, 0, 64, 0
1, 314568, Note_on_c, 0, 55, 90
1, 314570, Note_on_c, 0, 62, 95
1, 314603, Note_off_c, 0, 62, 62
1, 314617, Note_off_c, 0, 55, 68
1, 314619, Control_c, 0, 64, 62
1, 314620, Note_on_c, 0, 57, 9
1, 314634, Control_c, 0, 64, 83
1, 314649, Control_c, 0, 64, 96
1, 314661, Note_off_c, 0, 57, 0
1, 314661, Note_on_c, 0, 57, 16
1, 314664, Control_c, 0, 64, 106
1, 314664, Note_on_c, 0, 60, 82
1, 314679, Control_c, 0, 64, 105
1, 314716, Control_c, 0, 64, 97
1, 314731, Control_c, 0, 64, 81
1, 314745, Control_c, 0, 64, 59
1, 314756, Note_on_c, 0, 65, 89
1, 314760, Control_c, 0, 64, 0
1, 314765, Note_off_c, 0, 60, 65
1, 314777, Note_off_c, 0, 57, 36
1, 314791, Note_off_c, 0, 65, 64
1, 314901, Note_on_c, 0, 41, 93
1, 314902, Note_on_c, 0, 51, 100
1, 314906, Note_on_c, 0, 39, 87
1, 314907, Note_on_c, 0, 50, 82
1, 314908, Note_on_c, 0, 48, 94
1, 314908, Note_on_c, 0, 38, 82
1, 314923, Control_c, 0, 64, 26
1, 314929, Note_off_c, 0, 48, 70
1, 314932, Note_off_c, 0, 50, 71
1, 314938, Control_c, 0, 64, 85
1, 314941, Note_off_c, 0, 41, 66
1, 314949, Note_off_c, 0, 38, 63
1, 314952, Note_off_c, 0, 51, 69
1, 314953, Note_off_c, 0, 39, 64
1, 314953, Control_c, 0, 64, 127
1, 315234, Control_c, 0, 64, 104
1, 315249, Control_c, 0, 64, 75
1, 315263, Control_c, 0, 64, 0
1, 315634, Note_on_c, 0, 33, 97
1, 315634, Note_on_c, 0, 40, 93
1, 315636, Note_on_c, 0, 45, 100
1, 315636, Note_on_c, 0, 47, 97
1, 315638, Note_on_c, 0, 52, 98
1, 315642, Control_c, 0, 64, 58
1, 315657, Control_c, 0, 64, 70
1, 315658, Note_off_c, 0, 47, 70
1, 315659, Note_off_c, 0, 45, 69
1, 315660, Note_off_c, 0, 40, 68
1, 315668, Note_off_c, 0, 33, 59
1, 315672, Control_c, 0, 64, 38
1, 315674, Note_on_c, 0, 35, 17
1, 315675, Note_off_c, 0, 35, 127
1, 315685, Note_off_c, 0, 52, 60
1, 315686, Control_c, 0, 64, 0
1, 315722, Poly_aftertouch_c, 0, 35, 0
1, 315746, Note_on_c, 0, 40, 82
1, 315749, Note_on_c, 0, 45, 77
1, 315750, Note_on_c, 0, 52, 66
1, 315752, Note_on_c, 0, 47, 67
1, 315762, Note_on_c, 0, 33, 63
1, 315770, Note_off_c, 0, 40, 68
1, 315771, Note_off_c, 0, 45, 67
1, 315776, Note_off_c, 0, 47, 68
1, 315787, Note_off_c, 0, 52, 65
1, 315794, Note_off_c, 0, 33, 63
1, 315849, Note_on_c, 0, 45, 67
1, 315850, Note_on_c, 0, 40, 54
1, 315850, Note_on_c, 0, 47, 68
1, 315853, Note_on_c, 0, 33, 62
1, 315861, Note_on_c, 0, 52, 62
1, 315875, Note_off_c, 0, 45, 65
1, 315876, Note_off_c, 0, 40, 61
1, 315877, Note_off_c, 0, 47, 67
1, 315883, Note_off_c, 0, 33, 60
1, 315890, Note_off_c, 0, 52, 64
1, 315945, Note_on_c, 0, 45, 74
1, 315950, Note_on_c, 0, 38, 63
1, 315951, Note_on_c, 0, 52, 71
1, 315955, Note_on_c, 0, 43, 56
1, 315963, Note_on_c, 0, 50, 62
1, 315970, Note_off_c, 0, 45, 66
1, 315975, Note_off_c, 0, 38, 59
1, 315983, Note_off_c, 0, 43, 57
1, 315987, Note_off_c, 0, 52, 63
1, 315994, Note_off_c, 0, 50, 67
1, 316043, Note_on_c, 0, 38, 73
1, 316047, Note_on_c, 0, 43, 68
1, 316047, Note_on_c, 0, 45, 62
1, 316052, Note_on_c, 0, 50, 71
1, 316058, Note_on_c, 0, 52, 62
1, 316072, Note_off_c, 0, 38, 64
1, 316073, Note_off_c, 0, 45, 66
1, 316077, Note_off_c, 0, 43, 65
1, 316085, Note_off_c, 0, 50, 67
1, 316087, Note_off_c, 0, 52, 64
1, 316139, Note_on_c, 0, 43, 78
1, 316139, Note_on_c, 0, 45, 76
1, 316140, Note_on_c, 0, 38, 77
1, 316164, Note_off_c, 0, 45, 66
1, 316166, Note_on_c, 0, 50, 42
1, 316167, Note_off_c, 0, 43, 66
1, 316169, Note_off_c, 0, 38, 68
1, 316181, Note_on_c, 0, 52, 6
1, 316188, Note_off_c, 0, 52, 39
1, 316200, Note_off_c, 0, 50, 56
1, 316246, Note_on_c, 0, 43, 92
1, 316249, Note_on_c, 0, 36, 95
1, 316253, Note_on_c, 0, 48, 98
1, 316253, Note_on_c, 0, 55, 89
1, 316259, Note_on_c, 0, 51, 85
1, 316284, Note_off_c, 0, 43, 65
1, 316285, Note_off_c, 0, 48, 63
1, 316287, Control_c, 0, 64, 65
1, 316302, Control_c, 0, 64, 74
1, 316303, Note_off_c, 0, 36, 60
1, 316303, Note_off_c, 0, 55, 65
1, 316306, Note_off_c, 0, 51, 64
1, 316316, Control_c, 0, 64, 76
1, 316351, Note_on_c, 0, 36, 70
1, 316355, Poly_aftertouch_c, 0, 37, 0
1, 316357, Note_on_c, 0, 43, 77
1, 316370, Note_on_c, 0, 51, 75
1, 316372, Note_on_c, 0, 55, 63
1, 316375, Note_on_c, 0, 48, 62
1, 316378, Note_off_c, 0, 43, 71
1, 316390, Note_off_c, 0, 48, 69
1, 316390, Control_c, 0, 64, 74
1, 316393, Note_off_c, 0, 36, 60
1, 316394, Note_off_c, 0, 51, 67
1, 316396, Note_off_c, 0, 55, 70
1, 316405, Control_c, 0, 64, 64
1, 316420, Control_c, 0, 64, 0
1, 316454, Note_on_c, 0, 43, 66
1, 316465, Note_on_c, 0, 50, 69
1, 316467, Note_on_c, 0, 55, 65
1, 316468, Note_on_c, 0, 51, 54
1, 316476, Note_on_c, 0, 41, 44
1, 316477, Note_on_c, 0, 40, 41
1, 316485, Note_off_c, 0, 43, 65
1, 316488, Note_off_c, 0, 50, 64
1, 316496, Note_off_c, 0, 55, 64
1, 316500, Note_off_c, 0, 51, 62
1, 316509, Note_off_c, 0, 41, 50
1, 316511, Note_off_c, 0, 40, 49
1, 316551, Note_on_c, 0, 43, 68
1, 316559, Note_on_c, 0, 50, 61
1, 316563, Note_on_c, 0, 55, 67
1, 316571, Note_on_c, 0, 51, 67
1, 316578, Note_off_c, 0, 43, 65
1, 316579, Note_on_c, 0, 41, 34
1, 316588, Note_off_c, 0, 50, 66
1, 316590, Note_off_c, 0, 55, 65
1, 316601, Note_off_c, 0, 51, 65
1, 316619, Note_off_c, 0, 41, 43
1, 316646, Note_on_c, 0, 43, 69
1, 316655, Note_on_c, 0, 55, 68
1, 316664, Note_on_c, 0, 50, 61
1, 316664, Note_on_c, 0, 51, 72
1, 316683, Note_off_c, 0, 43, 62
1, 316688, Note_on_c, 0, 41, 28
1, 316688, Note_off_c, 0, 55, 64
1, 316691, Note_off_c, 0, 51, 66
1, 316692, Note_off_c, 0, 50, 64
1, 316702, Control_c, 0, 64, 54
1, 316716, Control_c, 0, 64, 70
1, 316731, Control_c, 0, 64, 78
1, 316739, Note_on_c, 0, 43, 86
1, 316739, Note_off_c, 0, 41, 47
1, 316742, Note_on_c, 0, 55, 77
1, 316746, Control_c, 0, 64, 89
1, 316747, Note_on_c, 0, 51, 78
1, 316761, Control_c, 0, 64, 107
1, 316765, Note_off_c, 0, 43, 68
1, 316769, Note_off_c, 0, 51, 68
1, 316771, Note_off_c, 0, 55, 67
1, 316776, Control_c, 0, 64, 127
1, 316786, Note_on_c, 0, 50, 17
1, 316840, Note_off_c, 0, 50, 58
1, 316856, Note_on_c, 0, 53, 88
1, 316859, Note_on_c, 0, 58, 95
1, 316861, Note_on_c, 0, 62, 96
1, 316862, Note_on_c, 0, 63, 90
1, 316866, Note_on_c, 0, 65, 81
1, 316872, Note_on_c, 0, 67, 80
1, 316876, Note_on_c, 0, 60, 63
1, 316882, Note_off_c, 0, 62, 68
1, 316883, Note_off_c, 0, 58, 60
1, 316883, Note_off_c, 0, 63, 68
1, 316895, Note_off_c, 0, 67, 66
1, 316895, Control_c, 0, 64, 85
1, 316897, Note_off_c, 0, 60, 64
1, 316897, Note_off_c, 0, 65, 64
1, 316898, Note_off_c, 0, 53, 63
1, 316909, Control_c, 0, 64, 0
1, 316969, Note_on_c, 0, 67, 84
1, 316971, Note_on_c, 0, 58, 73
1, 316979, Note_on_c, 0, 53, 53
1, 316979, Note_on_c, 0, 62, 72
1, 316986, Note_on_c, 0, 63, 71
1, 316995, Note_off_c, 0, 58, 67
1, 316997, Note_off_c, 0, 67, 59
1, 317001, Note_off_c, 0, 62, 64
1, 317004, Note_off_c, 0, 53, 61
1, 317011, Note_off_c, 0, 63, 68
1, 317073, Note_on_c, 0, 58, 70
1, 317075, Note_on_c, 0, 53, 68
1, 317084, Note_on_c, 0, 67, 71
1, 317087, Note_on_c, 0, 63, 72
1, 317089, Note_on_c, 0, 62, 47
1, 317098, Note_off_c, 0, 58, 68
1, 317100, Note_off_c, 0, 53, 66
1, 317107, Note_off_c, 0, 67, 68
1, 317115, Note_off_c, 0, 63, 66
1, 317117, Note_off_c, 0, 62, 55
1, 317126, Control_c, 0, 64, 36
1, 317140, Control_c, 0, 64, 58
1, 317155, Control_c, 0, 64, 65
1, 317170, Control_c, 0, 64, 70
1, 317171, Note_on_c, 0, 53, 68
1, 317178, Note_on_c, 0, 67, 71
1, 317179, Note_on_c, 0, 58, 71
1, 317185, Note_on_c, 0, 62, 56
1, 317185, Note_on_c, 0, 63, 65
1, 317185, Control_c, 0, 64, 75
1, 317200, Control_c, 0, 64, 78
1, 317201, Note_off_c, 0, 53, 68
1, 317203, Note_off_c, 0, 58, 67
1, 317203, Note_off_c, 0, 67, 67
1, 317206, Note_off_c, 0, 62, 60
1, 317214, Note_off_c, 0, 63, 66
1, 317214, Control_c, 0, 64, 82
1, 317229, Control_c, 0, 64, 87
1, 317244, Control_c, 0, 64, 93
1, 317258, Control_c, 0, 64, 99
1, 317270, Note_on_c, 0, 67, 83
1, 317271, Note_on_c, 0, 53, 77
1, 317273, Control_c, 0, 64, 105
1, 317274, Note_on_c, 0, 58, 75
1, 317280, Note_on_c, 0, 63, 79
1, 317288, Control_c, 0, 64, 114
1, 317296, Note_on_c, 0, 62, 39
1, 317299, Note_off_c, 0, 53, 66
1, 317303, Note_off_c, 0, 67, 61
1, 317303, Control_c, 0, 64, 127
1, 317304, Note_off_c, 0, 63, 68
1, 317308, Note_off_c, 0, 58, 63
1, 317325, Note_off_c, 0, 62, 54
1, 317374, Note_on_c, 0, 53, 82
1, 317376, Note_on_c, 0, 67, 72
1, 317386, Note_on_c, 0, 58, 75
1, 317386, Note_on_c, 0, 63, 69
1, 317399, Note_off_c, 0, 67, 69
1, 317400, Note_off_c, 0, 53, 69
1, 317406, Note_off_c, 0, 58, 72
1, 317412, Note_on_c, 0, 62, 28
1, 317416, Note_off_c, 0, 63, 64
1, 317439, Note_off_c, 0, 62, 54
1, 317474, Note_on_c, 0, 53, 94
1, 317474, Note_on_c, 0, 60, 95
1, 317475, Note_on_c, 0, 67, 97
1, 317477, Note_on_c, 0, 62, 93
1, 317481, Control_c, 0, 64, 115
1, 317483, Note_on_c, 0, 63, 85
1, 317496, Control_c, 0, 64, 69
1, 317501, Note_on_c, 0, 66, 48
1, 317509, Note_off_c, 0, 60, 65
1, 317509, Note_off_c, 0, 63, 59
1, 317510, Note_off_c, 0, 62, 63
1, 317510, Control_c, 0, 64, 0
1, 317513, Note_off_c, 0, 53, 57
1, 317524, Note_off_c, 0, 67, 65
1, 317525, Note_off_c, 0, 66, 59
1, 317570, Note_on_c, 0, 60, 76
1, 317573, Note_on_c, 0, 53, 71
1, 317588, Note_on_c, 0, 67, 72
1, 317591, Note_on_c, 0, 62, 71
1, 317598, Note_off_c, 0, 60, 66
1, 317600, Note_off_c, 0, 53, 67
1, 317602, Note_on_c, 0, 63, 59
1, 317618, Note_off_c, 0, 62, 66
1, 317621, Note_off_c, 0, 67, 64
1, 317623, Note_off_c, 0, 63, 63
1, 317673, Control_c, 0, 64, 52
1, 317685, Note_on_c, 0, 53, 75
1, 317688, Control_c, 0, 64, 61
1, 317692, Note_on_c, 0, 62, 68
1, 317708, Note_on_c, 0, 63, 49
1, 317710, Note_on_c, 0, 60, 44
1, 317710, Control_c, 0, 64, 64
1, 317713, Note_on_c, 0, 67, 50
1, 317717, Note_off_c, 0, 53, 68
1, 317724, Note_off_c, 0, 62, 64
1, 317725, Control_c, 0, 64, 68
1, 317734, Note_off_c, 0, 63, 61
1, 317735, Note_off_c, 0, 60, 59
1, 317738, Note_off_c, 0, 67, 59
1, 317740, Control_c, 0, 64, 72
1, 317755, Control_c, 0, 64, 76
1, 317770, Control_c, 0, 64, 79
1, 317784, Control_c, 0, 64, 82
1, 317791, Note_on_c, 0, 53, 61
1, 317796, Note_on_c, 0, 60, 74
1, 317797, Note_on_c, 0, 62, 63
1, 317799, Control_c, 0, 64, 88
1, 317801, Note_on_c, 0, 67, 77
1, 317809, Note_on_c, 0, 63, 56
1, 317814, Control_c, 0, 64, 94
1, 317820, Note_off_c, 0, 60, 69
1, 317823, Note_off_c, 0, 53, 66
1, 317824, Note_off_c, 0, 62, 62
1, 317827, Note_off_c, 0, 67, 64
1, 317829, Control_c, 0, 64, 97
1, 317835, Note_off_c, 0, 63, 58
1, 317844, Control_c, 0, 64, 98
1, 317859, Control_c, 0, 64, 103
1, 317874, Control_c, 0, 64, 110
1, 317889, Control_c, 0, 64, 127
1, 317895, Note_on_c, 0, 53, 78
1, 317898, Note_on_c, 0, 60, 69
1, 317901, Note_on_c, 0, 62, 65
1, 317906, Note_on_c, 0, 67, 78
1, 317907, Note_on_c, 0, 63, 68
1, 317925, Note_off_c, 0, 53, 62
1, 317927, Note_off_c, 0, 60, 67
1, 317929, Note_off_c, 0, 67, 66
1, 317931, Note_off_c, 0, 62, 63
1, 317937, Note_off_c, 0, 63, 64
1, 317997, Note_on_c, 0, 62, 69
1, 317998, Note_on_c, 0, 60, 76
1, 317999, Note_on_c, 0, 63, 78
1, 317999, Note_on_c, 0, 67, 81
1, 318002, Note_on_c, 0, 53, 81
1, 318017, Note_off_c, 0, 63, 71
1, 318020, Note_off_c, 0, 60, 70
1, 318022, Note_off_c, 0, 67, 63
1, 318026, Note_off_c, 0, 62, 64
1, 318028, Note_off_c, 0, 53, 67
1, 318096, Control_c, 0, 64, 74
1, 318097, Note_on_c, 0, 60, 87
1, 318097, Note_on_c, 0, 62, 96
1, 318098, Note_on_c, 0, 59, 90
1, 318098, Note_on_c, 0, 71, 98
1, 318099, Note_on_c, 0, 52, 83
1, 318106, Note_on_c, 0, 67, 84
1, 318111, Control_c, 0, 64, 0
1, 318118, Note_off_c, 0, 52, 64
1, 318119, Note_off_c, 0, 59, 67
1, 318127, Note_off_c, 0, 60, 67
1, 318129, Note_off_c, 0, 67, 63
1, 318132, Note_off_c, 0, 62, 65
1, 318150, Note_off_c, 0, 71, 63
1, 318187, Note_on_c, 0, 60, 81
1, 318196, Note_on_c, 0, 52, 59
1, 318201, Note_on_c, 0, 59, 79
1, 318208, Note_on_c, 0, 62, 80
1, 318220, Note_on_c, 0, 72, 47
1, 318223, Note_off_c, 0, 60, 64
1, 318226, Note_off_c, 0, 59, 65
1, 318228, Note_off_c, 0, 52, 62
1, 318232, Note_off_c, 0, 62, 66
1, 318244, Note_on_c, 0, 67, 28
1, 318244, Control_c, 0, 64, 31
1, 318246, Note_off_c, 0, 72, 42
1, 318259, Control_c, 0, 64, 57
1, 318274, Control_c, 0, 64, 68
1, 318278, Note_off_c, 0, 67, 34
1, 318288, Control_c, 0, 64, 75
1, 318297, Note_on_c, 0, 52, 73
1, 318303, Control_c, 0, 64, 79
1, 318306, Note_on_c, 0, 71, 16
1, 318308, Note_on_c, 0, 60, 61
1, 318309, Note_on_c, 0, 62, 75
1, 318318, Control_c, 0, 64, 81
1, 318327, Note_on_c, 0, 67, 54
1, 318331, Note_on_c, 0, 59, 47
1, 318332, Note_off_c, 0, 62, 67
1, 318333, Note_off_c, 0, 60, 64
1, 318333, Control_c, 0, 64, 84
1, 318334, Note_off_c, 0, 52, 61
1, 318348, Control_c, 0, 64, 90
1, 318352, Note_off_c, 0, 67, 58
1, 318353, Note_off_c, 0, 71, 58
1, 318354, Note_off_c, 0, 59, 59
1, 318363, Control_c, 0, 64, 95
1, 318378, Control_c, 0, 64, 98
1, 318393, Control_c, 0, 64, 101
1, 318402, Note_on_c, 0, 62, 78
1, 318403, Note_on_c, 0, 60, 61
1, 318407, Control_c, 0, 64, 108
1, 318412, Note_on_c, 0, 59, 70
1, 318413, Note_on_c, 0, 71, 61
1, 318414, Note_on_c, 0, 52, 55
1, 318414, Note_on_c, 0, 67, 74
1, 318418, Note_off_c, 0, 60, 71
1, 318422, Control_c, 0, 64, 127
1, 318429, Note_off_c, 0, 62, 62
1, 318439, Note_off_c, 0, 59, 64
1, 318440, Note_off_c, 0, 67, 66
1, 318445, Note_off_c, 0, 52, 58
1, 318445, Note_off_c, 0, 71, 65
1, 318500, Note_on_c, 0, 60, 59
1, 318515, Note_on_c, 0, 59, 65
1, 318517, Note_on_c, 0, 71, 68
1, 318518, Note_on_c, 0, 62, 73
1, 318519, Note_on_c, 0, 52, 72
1, 318520, Note_on_c, 0, 67, 66
1, 318535, Note_off_c, 0, 59, 70
1, 318537, Note_off_c, 0, 60, 63
1, 318542, Note_off_c, 0, 62, 67
1, 318547, Note_off_c, 0, 52, 64
1, 318548, Note_off_c, 0, 67, 64
1, 318573, Note_off_c, 0, 71, 0
1, 318590, Note_on_c, 0, 71, 58
1, 318601, Note_on_c, 0, 62, 82
1, 318606, Note_on_c, 0, 60, 69
1, 318609, Note_on_c, 0, 67, 80
1, 318615, Note_on_c, 0, 59, 74
1, 318621, Note_off_c, 0, 62, 70
1, 318631, Note_off_c, 0, 60, 70
1, 318631, Note_off_c, 0, 67, 69
1, 318636, Note_off_c, 0, 59, 69
1, 318638, Note_on_c, 0, 52, 21
1, 318641, Note_off_c, 0, 71, 64
1, 318678, Note_off_c, 0, 52, 46
1, 318682, Control_c, 0, 64, 90
1, 318697, Control_c, 0, 64, 0
1, 318704, Note_on_c, 0, 58, 108
1, 318715, Note_on_c, 0, 75, 99
1, 318716, Note_on_c, 0, 56, 82
1, 318716, Note_on_c, 0, 65, 100
1, 318718, Note_on_c, 0, 66, 92
1, 318722, Note_on_c, 0, 51, 65
1, 318733, Note_off_c, 0, 65, 73
1, 318737, Note_off_c, 0, 66, 70
1, 318741, Note_off_c, 0, 58, 66
1, 318742, Control_c, 0, 64, 58
1, 318744, Note_off_c, 0, 56, 66
1, 318753, Note_off_c, 0, 75, 62
1, 318753, Note_off_c, 0, 51, 66
1, 318756, Control_c, 0, 64, 67
1, 318771, Control_c, 0, 64, 75
1, 318786, Control_c, 0, 64, 84
1, 318801, Control_c, 0, 64, 94
1, 318812, Note_on_c, 0, 58, 90
1, 318816, Control_c, 0, 64, 107
1, 318818, Note_on_c, 0, 65, 85
1, 318820, Note_on_c, 0, 66, 85
1, 318824, Note_on_c, 0, 75, 73
1, 318828, Note_on_c, 0, 51, 61
1, 318830, Control_c, 0, 64, 127
1, 318837, Note_off_c, 0, 66, 71
1, 318838, Note_off_c, 0, 65, 71
1, 318844, Note_off_c, 0, 75, 70
1, 318846, Note_off_c, 0, 58, 59
1, 318858, Note_off_c, 0, 51, 64
1, 318860, Control_c, 0, 64, 119
1, 318875, Control_c, 0, 64, 84
1, 318890, Control_c, 0, 64, 63
1, 318904, Control_c, 0, 64, 64
1, 318905, Note_on_c, 0, 54, 88
1, 318917, Note_on_c, 0, 65, 90
1, 318919, Control_c, 0, 64, 72
1, 318924, Note_on_c, 0, 73, 79
1, 318927, Note_on_c, 0, 75, 74
1, 318934, Note_off_c, 0, 65, 74
1, 318934, Control_c, 0, 64, 76
1, 318942, Note_on_c, 0, 51, 47
1, 318946, Note_off_c, 0, 54, 67
1, 318949, Note_off_c, 0, 73, 69
1, 318949, Control_c, 0, 64, 82
1, 318950, Note_off_c, 0, 75, 70
1, 318964, Control_c, 0, 64, 91
1, 318970, Note_off_c, 0, 51, 60
1, 318978, Control_c, 0, 64, 108
1, 318993, Control_c, 0, 64, 127
1, 319007, Note_on_c, 0, 54, 77
1, 319019, Note_on_c, 0, 65, 85
1, 319020, Note_on_c, 0, 51, 61
1, 319023, Note_on_c, 0, 75, 75
1, 319025, Note_on_c, 0, 73, 83
1, 319027, Note_on_c, 0, 53, 55
1, 319028, Note_off_c, 0, 54, 67
1, 319037, Note_off_c, 0, 65, 73
1, 319045, Note_off_c, 0, 51, 66
1, 319045, Note_off_c, 0, 75, 65
1, 319049, Note_off_c, 0, 73, 68
1, 319052, Note_off_c, 0, 53, 61
1, 319099, Note_on_c, 0, 51, 72
1, 319110, Note_on_c, 0, 54, 62
1, 319114, Note_on_c, 0, 53, 76
1, 319118, Note_on_c, 0, 65, 83
1, 319122, Note_on_c, 0, 73, 82
1, 319126, Note_on_c, 0, 75, 72
1, 319138, Note_off_c, 0, 53, 70
1, 319138, Note_off_c, 0, 54, 66
1, 319138, Note_off_c, 0, 65, 67
1, 319146, Note_off_c, 0, 51, 62
1, 319149, Note_off_c, 0, 75, 68
1, 319153, Note_off_c, 0, 73, 61
1, 319198, Note_on_c, 0, 54, 73
1, 319200, Note_on_c, 0, 51, 65
1, 319210, Note_on_c, 0, 53, 63
1, 319210, Note_on_c, 0, 65, 81
1, 319224, Note_on_c, 0, 75, 67
1, 319224, Note_on_c, 0, 73, 72
1, 319229, Note_off_c, 0, 65, 71
1, 319231, Note_off_c, 0, 53, 71
1, 319242, Note_off_c, 0, 54, 66
1, 319247, Note_off_c, 0, 75, 69
1, 319249, Note_off_c, 0, 73, 68
1, 319251, Note_off_c, 0, 51, 65
1, 319282, Control_c, 0, 64, 81
1, 319297, Control_c, 0, 64, 0
1, 319314, Note_on_c, 0, 49, 97
1, 319315, Note_on_c, 0, 55, 98
1, 319321, Note_on_c, 0, 67, 98
1, 319323, Note_on_c, 0, 75, 84
1, 319324, Note_on_c, 0, 72, 83
1, 319326, Note_on_c, 0, 79, 90
1, 319332, Note_on_c, 0, 48, 67
1, 319341, Note_on_c, 0, 47, 47
1, 319343, Note_off_c, 0, 55, 67
1, 319343, Note_off_c, 0, 72, 70
1, 319346, Note_off_c, 0, 67, 64
1, 319355, Note_off_c, 0, 48, 64
1, 319369, Note_off_c, 0, 75, 62
1, 319371, Note_off_c, 0, 47, 35
1, 319371, Note_off_c, 0, 49, 64
1, 319373, Note_off_c, 0, 79, 62
1, 319410, Note_on_c, 0, 55, 90
1, 319421, Note_on_c, 0, 48, 67
1, 319421, Note_on_c, 0, 49, 64
1, 319428, Note_on_c, 0, 67, 88
1, 319437, Note_on_c, 0, 71, 69
1, 319440, Note_on_c, 0, 79, 59
1, 319446, Control_c, 0, 64, 26
1, 319447, Note_off_c, 0, 55, 64
1, 319448, Note_off_c, 0, 67, 66
1, 319452, Note_off_c, 0, 71, 69
1, 319453, Note_off_c, 0, 48, 66
1, 319454, Note_off_c, 0, 49, 66
1, 319460, Control_c, 0, 64, 50
1, 319466, Note_off_c, 0, 79, 58
1, 319475, Control_c, 0, 64, 59
1, 319490, Control_c, 0, 64, 63
1, 319505, Control_c, 0, 64, 63
1, 319518, Note_on_c, 0, 48, 71
1, 319519, Note_on_c, 0, 49, 70
1, 319522, Note_on_c, 0, 55, 67
1, 319526, Note_on_c, 0, 67, 87
1, 319532, Note_on_c, 0, 79, 71
1, 319534, Note_on_c, 0, 75, 74
1, 319534, Control_c, 0, 64, 64
1, 319540, Note_on_c, 0, 72, 55
1, 319543, Note_off_c, 0, 55, 64
1, 319544, Note_off_c, 0, 67, 70
1, 319549, Note_off_c, 0, 48, 67
1, 319549, Control_c, 0, 64, 68
1, 319552, Note_off_c, 0, 79, 61
1, 319558, Note_off_c, 0, 75, 69
1, 319558, Note_off_c, 0, 49, 61
1, 319561, Note_off_c, 0, 72, 61
1, 319564, Control_c, 0, 64, 74
1, 319579, Control_c, 0, 64, 78
1, 319594, Control_c, 0, 64, 80
1, 319609, Control_c, 0, 64, 85
1, 319612, Note_on_c, 0, 55, 79
1, 319615, Note_on_c, 0, 48, 76
1, 319619, Note_on_c, 0, 49, 77
1, 319624, Note_on_c, 0, 67, 78
1, 319624, Note_on_c, 0, 72, 77
1, 319624, Control_c, 0, 64, 95
1, 319628, Note_on_c, 0, 79, 67
1, 319639, Control_c, 0, 64, 109
1, 319641, Note_on_c, 0, 75, 63
1, 319644, Note_off_c, 0, 55, 65
1, 319644, Note_off_c, 0, 67, 70
1, 319645, Note_off_c, 0, 72, 68
1, 319651, Note_off_c, 0, 48, 64
1, 319653, Control_c, 0, 64, 127
1, 319654, Note_off_c, 0, 49, 62
1, 319657, Note_off_c, 0, 79, 61
1, 319661, Note_off_c, 0, 75, 66
1, 319715, Note_on_c, 0, 55, 81
1, 319718, Note_on_c, 0, 67, 82
1, 319719, Note_on_c, 0, 79, 80
1, 319724, Note_on_c, 0, 75, 71
1, 319725, Note_on_c, 0, 48, 69
1, 319725, Note_on_c, 0, 49, 66
1, 319735, Note_on_c, 0, 72, 59
1, 319747, Note_off_c, 0, 67, 61
1, 319749, Note_off_c, 0, 55, 54
1, 319749, Note_off_c, 0, 75, 65
1, 319752, Note_off_c, 0, 48, 66
1, 319753, Note_off_c, 0, 72, 64
1, 319753, Note_off_c, 0, 79, 56
1, 319755, Note_off_c, 0, 49, 65
1, 319806, Note_on_c, 0, 67, 68
1, 319808, Note_on_c, 0, 49, 83
1, 319812, Note_on_c, 0, 75, 69
1, 319813, Note_on_c, 0, 55, 68
1, 319820, Note_on_c, 0, 48, 60
1, 319825, Note_on_c, 0, 79, 55
1, 319831, Note_on_c, 0, 72, 43
1, 319835, Note_off_c, 0, 67, 64
1, 319839, Note_off_c, 0, 55, 67
1, 319842, Note_off_c, 0, 75, 66
1, 319849, Note_off_c, 0, 79, 62
1, 319850, Note_off_c, 0, 48, 57
1, 319850, Note_off_c, 0, 72, 64
1, 319852, Note_off_c, 0, 49, 65
1, 319890, Control_c, 0, 64, 77
1, 319905, Control_c, 0, 64, 0
1, 319911, Note_on_c, 0, 53, 94
1, 319913, Note_on_c, 0, 52, 90
1, 319916, Note_on_c, 0, 47, 82
1, 319918, Note_on_c, 0, 71, 106
1, 319918, Note_on_c, 0, 83, 100
1, 319923, Note_on_c, 0, 78, 95
1, 319939, Note_on_c, 0, 80, 55
1, 319940, Note_off_c, 0, 80, 127
1, 319943, Note_off_c, 0, 71, 68
1, 319944, Note_on_c, 0, 82, 52
1, 319945, Note_off_c, 0, 82, 127
1, 319949, Note_off_c, 0, 53, 64
1, 319959, Note_off_c, 0, 52, 57
1, 319962, Note_off_c, 0, 47, 61
1, 319965, Note_off_c, 0, 83, 65
1, 319967, Note_off_c, 0, 78, 58
1, 320001, Control_c, 0, 64, 66
1, 320016, Control_c, 0, 64, 74
1, 320020, Note_on_c, 0, 47, 69
1, 320023, Note_on_c, 0, 53, 72
1, 320031, Control_c, 0, 64, 82
1, 320032, Note_on_c, 0, 71, 94
1, 320036, Note_on_c, 0, 52, 62
1, 320038, Note_on_c, 0, 83, 79
1, 320039, Note_on_c, 0, 78, 80
1, 320046, Control_c, 0, 64, 94
1, 320051, Note_off_c, 0, 53, 66
1, 320051, Note_off_c, 0, 71, 67
1, 320056, Note_off_c, 0, 47, 65
1, 320060, Control_c, 0, 64, 103
1, 320065, Note_off_c, 0, 78, 63
1, 320065, Note_off_c, 0, 83, 62
1, 320065, Note_off_c, 0, 52, 61
1, 320075, Control_c, 0, 64, 112
1, 320090, Control_c, 0, 64, 127
1, 320127, Note_on_c, 0, 53, 81
1, 320128, Note_on_c, 0, 52, 81
1, 320134, Note_on_c, 0, 71, 93
1, 320136, Note_on_c, 0, 47, 70
1, 320142, Poly_aftertouch_c, 0, 82, 0
1, 320143, Note_on_c, 0, 83, 81
1, 320145, Note_on_c, 0, 78, 84
1, 320152, Note_off_c, 0, 53, 64
1, 320157, Note_off_c, 0, 71, 61
1, 320161, Note_off_c, 0, 47, 68
1, 320164, Note_off_c, 0, 78, 69
1, 320167, Note_off_c, 0, 83, 62
1, 320169, Note_off_c, 0, 52, 59
1, 320226, Note_on_c, 0, 53, 75
1, 320227, Note_on_c, 0, 71, 80
1, 320229, Note_on_c, 0, 83, 71
1, 320230, Note_on_c, 0, 46, 79
1, 320230, Note_on_c, 0, 78, 88
1, 320244, Note_off_c, 0, 71, 76
1, 320250, Note_off_c, 0, 83, 71
1, 320253, Note_on_c, 0, 52, 47
1, 320257, Note_off_c, 0, 53, 64
1, 320265, Note_off_c, 0, 78, 67
1, 320274, Note_off_c, 0, 46, 63
1, 320277, Note_off_c, 0, 52, 60
1, 320284, Control_c, 0, 64, 77
1, 320299, Control_c, 0, 64, 0
1, 320314, Control_c, 0, 64, 57
1, 320329, Control_c, 0, 64, 70
1, 320330, Note_on_c, 0, 53, 90
1, 320330, Note_on_c, 0, 75, 102
1, 320331, Note_on_c, 0, 46, 79
1, 320331, Note_on_c, 0, 87, 100
1, 320335, Note_on_c, 0, 83, 90
1, 320344, Control_c, 0, 64, 77
1, 320348, Note_on_c, 0, 45, 65
1, 320358, Control_c, 0, 64, 88
1, 320362, Note_on_c, 0, 85, 41
1, 320363, Note_off_c, 0, 75, 56
1, 320365, Note_off_c, 0, 53, 59
1, 320369, Note_off_c, 0, 83, 62
1, 320373, Control_c, 0, 64, 107
1, 320375, Note_on_c, 0, 52, 12
1, 320375, Note_off_c, 0, 45, 64
1, 320377, Note_off_c, 0, 87, 64
1, 320388, Control_c, 0, 64, 127
1, 320389, Note_off_c, 0, 85, 58
1, 320399, Note_off_c, 0, 46, 52
1, 320406, Note_off_c, 0, 52, 0
1, 320417, Note_on_c, 0, 53, 87
1, 320429, Note_on_c, 0, 75, 99
1, 320429, Note_on_c, 0, 82, 62
1, 320430, Poly_aftertouch_c, 0, 51, 0
1, 320432, Poly_aftertouch_c, 0, 52, 0
1, 320432, Note_on_c, 0, 87, 87
1, 320444, Note_off_c, 0, 53, 67
1, 320446, Note_on_c, 0, 83, 77
1, 320469, Note_off_c, 0, 75, 62
1, 320469, Note_off_c, 0, 83, 69
1, 320477, Note_off_c, 0, 87, 63
1, 320479, Note_off_c, 0, 82, 55
1, 320530, Note_on_c, 0, 63, 87
1, 320533, Note_on_c, 0, 66, 87
1, 320533, Note_on_c, 0, 87, 86
1, 320534, Note_on_c, 0, 75, 94
1, 320549, Note_on_c, 0, 83, 68
1, 320553, Note_off_c, 0, 66, 66
1, 320566, Note_off_c, 0, 63, 56
1, 320567, Note_off_c, 0, 83, 69
1, 320571, Note_off_c, 0, 75, 62
1, 320589, Note_off_c, 0, 87, 62
1, 320623, Note_on_c, 0, 66, 91
1, 320626, Note_on_c, 0, 63, 83
1, 320626, Note_on_c, 0, 87, 76
1, 320635, Note_on_c, 0, 75, 90
1, 320640, Note_on_c, 0, 82, 83
1, 320649, Note_off_c, 0, 66, 58
1, 320663, Note_off_c, 0, 63, 55
1, 320676, Note_off_c, 0, 87, 66
1, 320681, Note_off_c, 0, 75, 62
1, 320684, Note_off_c, 0, 82, 65
1, 320706, Control_c, 0, 64, 74
1, 320721, Control_c, 0, 64, 0
1, 320734, Note_on_c, 0, 63, 92
1, 320743, Note_on_c, 0, 55, 68
1, 320743, Note_on_c, 0, 74, 96
1, 320746, Note_on_c, 0, 82, 78
1, 320752, Note_on_c, 0, 58, 56
1, 320753, Note_on_c, 0, 86, 72
1, 320754, Note_on_c, 0, 79, 70
1, 320763, Note_on_c, 0, 88, 68
1, 320765, Note_on_c, 0, 80, 54
1, 320775, Note_off_c, 0, 74, 66
1, 320775, Note_off_c, 0, 79, 68
1, 320776, Note_off_c, 0, 55, 64
1, 320780, Note_off_c, 0, 63, 57
1, 320781, Control_c, 0, 64, 64
1, 320781, Note_off_c, 0, 88, 63
1, 320786, Note_off_c, 0, 58, 65
1, 320786, Note_off_c, 0, 80, 60
1, 320787, Note_off_c, 0, 86, 62
1, 320789, Note_off_c, 0, 82, 62
1, 320795, Control_c, 0, 64, 74
1, 320810, Control_c, 0, 64, 86
1, 320825, Control_c, 0, 64, 101
1, 320832, Poly_aftertouch_c, 0, 82, 0
1, 320838, Note_on_c, 0, 63, 91
1, 320840, Note_on_c, 0, 55, 81
1, 320840, Note_on_c, 0, 74, 85
1, 320840, Note_on_c, 0, 82, 71
1, 320840, Control_c, 0, 64, 102
1, 320841, Note_on_c, 0, 79, 81
1, 320849, Note_on_c, 0, 86, 57
1, 320855, Control_c, 0, 64, 98
1, 320862, Note_off_c, 0, 74, 69
1, 320865, Note_off_c, 0, 79, 64
1, 320867, Note_on_c, 0, 60, 49
1, 320870, Note_off_c, 0, 86, 62
1, 320870, Control_c, 0, 64, 90
1, 320883, Note_off_c, 0, 82, 64
1, 320883, Note_off_c, 0, 63, 62
1, 320884, Control_c, 0, 64, 88
1, 320885, Note_off_c, 0, 55, 58
1, 320895, Note_off_c, 0, 60, 62
1, 320899, Control_c, 0, 64, 93
1, 320914, Control_c, 0, 64, 104
1, 320929, Control_c, 0, 64, 127
1, 320944, Note_on_c, 0, 78, 108
1, 320947, Note_on_c, 0, 87, 97
1, 320949, Note_on_c, 0, 90, 91
1, 320950, Note_on_c, 0, 57, 78
1, 320952, Note_on_c, 0, 64, 81
1, 320971, Note_off_c, 0, 78, 55
1, 320972, Note_off_c, 0, 64, 72
1, 320976, Note_off_c, 0, 90, 57
1, 320992, Note_off_c, 0, 87, 63
1, 321003, Note_off_c, 0, 57, 56
1, 321039, Poly_aftertouch_c, 0, 59, 0
1, 321040, Note_on_c, 0, 78, 101
1, 321040, Note_on_c, 0, 90, 104
1, 321048, Note_on_c, 0, 65, 83
1, 321048, Note_on_c, 0, 87, 77
1, 321051, Note_on_c, 0, 64, 71
1, 321052, Note_on_c, 0, 57, 46
1, 321073, Note_off_c, 0, 64, 70
1, 321074, Note_off_c, 0, 57, 60
1, 321077, Note_off_c, 0, 65, 65
1, 321080, Note_off_c, 0, 78, 65
1, 321088, Note_off_c, 0, 90, 65
1, 321089, Note_off_c, 0, 87, 61
1, 321147, Note_on_c, 0, 61, 74
1, 321147, Note_on_c, 0, 77, 93
1, 321149, Note_on_c, 0, 89, 86
1, 321150, Note_on_c, 0, 66, 77
1, 321150, Note_on_c, 0, 86, 77
1, 321152, Note_on_c, 0, 68, 77
1, 321152, Note_on_c, 0, 82, 84
1, 321152, Control_c, 0, 64, 85
1, 321162, Note_on_c, 0, 87, 54
1, 321167, Control_c, 0, 64, 72
1, 321172, Note_off_c, 0, 77, 64
1, 321174, Note_off_c, 0, 68, 70
1, 321176, Note_off_c, 0, 66, 65
1, 321181, Note_off_c, 0, 61, 61
1, 321181, Note_off_c, 0, 82, 65
1, 321181, Control_c, 0, 64, 84
1, 321185, Note_off_c, 0, 87, 62
1, 321192, Note_off_c, 0, 86, 65
1, 321193, Note_off_c, 0, 89, 61
1, 321195, Note_on_c, 0, 85, 18
1, 321196, Note_off_c, 0, 85, 127
1, 321196, Control_c, 0, 64, 105
1, 321211, Control_c, 0, 64, 127
1, 321224, Poly_aftertouch_c, 0, 61, 0
1, 321231, Note_on_c, 0, 61, 81
1, 321239, Note_on_c, 0, 89, 81
1, 321242, Note_on_c, 0, 68, 84
1, 321243, Note_on_c, 0, 77, 93
1, 321246, Note_on_c, 0, 86, 69
1, 321249, Note_on_c, 0, 66, 79
1, 321250, Note_on_c, 0, 82, 85
1, 321251, Poly_aftertouch_c, 0, 63, 0
1, 321267, Note_on_c, 0, 85, 10
1, 321278, Note_on_c, 0, 87, 35
1, 321282, Note_off_c, 0, 68, 64
1, 321288, Note_off_c, 0, 66, 56
1, 321288, Note_off_c, 0, 77, 62
1, 321289, Note_off_c, 0, 61, 60
1, 321293, Note_off_c, 0, 89, 64
1, 321304, Note_off_c, 0, 86, 65
1, 321305, Note_off_c, 0, 82, 66
1, 321311, Note_off_c, 0, 85, 46
1, 321311, Note_off_c, 0, 87, 55
1, 321329, Control_c, 0, 64, 121
1, 321344, Control_c, 0, 64, 127
1, 321351, Note_on_c, 0, 74, 98
1, 321356, Note_on_c, 0, 69, 72
1, 321368, Note_on_c, 0, 64, 58
1, 321377, Note_off_c, 0, 74, 65
1, 321398, Note_off_c, 0, 64, 65
1, 321402, Note_off_c, 0, 69, 62
1, 321441, Poly_aftertouch_c, 0, 69, 0
1, 321442, Note_on_c, 0, 64, 76
1, 321454, Note_on_c, 0, 74, 105
1, 321456, Note_on_c, 0, 69, 75
1, 321506, Poly_aftertouch_c, 0, 66, 0
1, 321511, Note_off_c, 0, 64, 64
1, 321511, Note_off_c, 0, 74, 62
1, 321514, Note_off_c, 0, 69, 61
1, 321552, Note_on_c, 0, 78, 89
1, 321555, Note_on_c, 0, 85, 100
1, 321560, Note_on_c, 0, 76, 91
1, 321577, Note_on_c, 0, 77, 60
1, 321579, Note_off_c, 0, 76, 70
1, 321585, Note_off_c, 0, 85, 54
1, 321586, Note_off_c, 0, 78, 64
1, 321596, Note_off_c, 0, 77, 67
1, 321643, Note_on_c, 0, 85, 96
1, 321647, Note_on_c, 0, 76, 87
1, 321651, Note_on_c, 0, 77, 85
1, 321668, Note_off_c, 0, 76, 70
1, 321669, Note_off_c, 0, 77, 73
1, 321689, Note_off_c, 0, 85, 65
1, 321707, Control_c, 0, 64, 94
1, 321722, Control_c, 0, 64, 54
1, 321731, Note_on_c, 0, 72, 86
1, 321737, Control_c, 0, 64, 0
1, 321740, Note_on_c, 0, 71, 81
1, 321751, Control_c, 0, 64, 60
1, 321753, Note_on_c, 0, 80, 91
1, 321759, Note_on_c, 0, 78, 88
1, 321762, Note_on_c, 0, 70, 22
1, 321762, Note_on_c, 0, 88, 77
1, 321764, Note_on_c, 0, 87, 61
1, 321766, Control_c, 0, 64, 67
1, 321775, Note_off_c, 0, 71, 60
1, 321775, Note_off_c, 0, 72, 65
1, 321775, Note_off_c, 0, 78, 74
1, 321781, Control_c, 0, 64, 74
1, 321790, Note_off_c, 0, 87, 59
1, 321796, Control_c, 0, 64, 85
1, 321797, Note_off_c, 0, 80, 63
1, 321797, Note_off_c, 0, 88, 63
1, 321805, Note_off_c, 0, 70, 36
1, 321811, Control_c, 0, 64, 100
1, 321827, Control_c, 0, 64, 118
1, 321842, Control_c, 0, 64, 127
1, 321851, Note_on_c, 0, 71, 70
1, 321852, Note_on_c, 0, 72, 79
1, 321854, Note_on_c, 0, 88, 92
1, 321855, Note_on_c, 0, 78, 92
1, 321860, Note_on_c, 0, 87, 71
1, 321878, Note_off_c, 0, 87, 68
1, 321894, Note_off_c, 0, 78, 63
1, 321897, Note_off_c, 0, 88, 66
1, 321900, Note_off_c, 0, 71, 59
1, 321901, Note_off_c, 0, 72, 58
1, 321916, Control_c, 0, 64, 103
1, 321930, Control_c, 0, 64, 81
1, 321945, Control_c, 0, 64, 78
1, 321960, Control_c, 0, 64, 88
1, 321961, Note_on_c, 0, 74, 88
1, 321965, Note_on_c, 0, 75, 87
1, 321971, Note_on_c, 0, 81, 102
1, 321971, Note_on_c, 0, 92, 106
1, 321975, Control_c, 0, 64, 103
1, 321990, Control_c, 0, 64, 127
1, 322000, Note_off_c, 0, 81, 67
1, 322007, Note_off_c, 0, 75, 62
1, 322009, Note_off_c, 0, 74, 64
1, 322011, Note_off_c, 0, 92, 66
1, 322066, Note_on_c, 0, 75, 91
1, 322080, Note_on_c, 0, 81, 100
1, 322082, Note_on_c, 0, 92, 110
1, 322101, Note_on_c, 0, 74, 61
1, 322113, Note_off_c, 0, 81, 66
1, 322123, Note_off_c, 0, 74, 62
1, 322128, Note_on_c, 0, 83, 21
1, 322129, Note_off_c, 0, 83, 127
1, 322137, Note_off_c, 0, 92, 63
1, 322145, Note_off_c, 0, 75, 53
1, 322234, Control_c, 0, 64, 67
1, 322241, Note_on_c, 0, 78, 87
1, 322245, Note_on_c, 0, 81, 94
1, 322249, Note_on_c, 0, 85, 113
1, 322249, Control_c, 0, 64, 0
1, 322250, Note_on_c, 0, 95, 112
1, 322257, Note_on_c, 0, 79, 76
1, 322273, Note_off_c, 0, 85, 70
1, 322278, Control_c, 0, 64, 44
1, 322279, Note_off_c, 0, 95, 69
1, 322286, Note_off_c, 0, 81, 66
1, 322293, Control_c, 0, 64, 71
1, 322296, Note_off_c, 0, 79, 49
1, 322308, Control_c, 0, 64, 82
1, 322323, Control_c, 0, 64, 99
1, 322337, Note_off_c, 0, 78, 55
1, 322337, Control_c, 0, 64, 110
1, 322352, Control_c, 0, 64, 111
1, 322396, Control_c, 0, 64, 112
1, 322411, Control_c, 0, 64, 113
1, 322456, Control_c, 0, 64, 112
1, 322471, Control_c, 0, 64, 105
1, 322486, Control_c, 0, 64, 81
1, 322500, Control_c, 0, 64, 0
1, 322503, Poly_aftertouch_c, 0, 82, 127
1, 322530, Note_on_c, 0, 82, 29
1, 322533, Note_on_c, 0, 77, 107
1, 322545, Note_on_c, 0, 79, 97
1, 322547, Note_on_c, 0, 83, 91
1, 322556, Note_off_c, 0, 82, 62
1, 322560, Note_on_c, 0, 80, 67
1, 322560, Control_c, 0, 64, 62
1, 322570, Note_on_c, 0, 85, 64
1, 322574, Control_c, 0, 64, 83
1, 322589, Control_c, 0, 64, 127
1, 322594, Note_off_c, 0, 79, 63
1, 322605, Note_off_c, 0, 80, 58
1, 322607, Note_off_c, 0, 77, 67
1, 322634, Note_off_c, 0, 83, 65
1, 322634, Note_off_c, 0, 85, 58
1, 322715, Note_on_c, 0, 80, 100
1, 322730, Note_on_c, 0, 85, 80
1, 322730, Note_on_c, 0, 87, 84
1, 322747, Note_off_c, 0, 80, 66
1, 322751, Note_off_c, 0, 85, 66
1, 322759, Note_off_c, 0, 87, 63
1, 322822, Note_on_c, 0, 87, 111
1, 322825, Note_on_c, 0, 80, 104
1, 322857, Note_off_c, 0, 80, 68
1, 322879, Note_off_c, 0, 87, 67
1, 322915, Note_on_c, 0, 67, 88
1, 322916, Note_on_c, 0, 70, 87
1, 322917, Note_on_c, 0, 68, 85
1, 322937, Note_off_c, 0, 70, 69
1, 322943, Note_off_c, 0, 68, 60
1, 322957, Note_off_c, 0, 67, 58
1, 323007, Note_on_c, 0, 70, 96
1, 323020, Note_on_c, 0, 68, 74
1, 323022, Note_on_c, 0, 67, 69
1, 323043, Note_off_c, 0, 67, 68
1, 323046, Note_off_c, 0, 70, 64
1, 323053, Note_off_c, 0, 68, 61
1, 323115, Note_on_c, 0, 79, 81
1, 323115, Note_on_c, 0, 83, 84
1, 323124, Note_on_c, 0, 65, 90
1, 323126, Note_on_c, 0, 80, 75
1, 323127, Note_on_c, 0, 62, 83
1, 323141, Note_off_c, 0, 79, 64
1, 323147, Note_on_c, 0, 63, 36
1, 323149, Note_off_c, 0, 80, 66
1, 323162, Note_off_c, 0, 65, 62
1, 323164, Note_off_c, 0, 83, 67
1, 323174, Note_off_c, 0, 62, 58
1, 323182, Note_off_c, 0, 63, 51
1, 323198, Note_on_c, 0, 65, 85
1, 323199, Poly_aftertouch_c, 0, 63, 0
1, 323201, Note_on_c, 0, 62, 62
1, 323207, Note_on_c, 0, 63, 81
1, 323225, Note_off_c, 0, 62, 68
1, 323226, Note_on_c, 0, 83, 95
1, 323234, Note_on_c, 0, 79, 72
1, 323236, Note_off_c, 0, 65, 68
1, 323237, Note_on_c, 0, 80, 77
1, 323238, Note_on_c, 0, 77, 70
1, 323249, Note_on_c, 0, 82, 41
1, 323250, Note_off_c, 0, 82, 127
1, 323252, Note_off_c, 0, 63, 65
1, 323257, Note_off_c, 0, 77, 66
1, 323258, Note_off_c, 0, 80, 70
1, 323261, Note_off_c, 0, 79, 67
1, 323268, Note_off_c, 0, 83, 69
1, 323329, Note_on_c, 0, 80, 106
1, 323331, Note_on_c, 0, 87, 106
1, 323361, Note_off_c, 0, 80, 65
1, 323375, Note_off_c, 0, 87, 63
1, 323428, Note_on_c, 0, 87, 107
1, 323433, Note_on_c, 0, 80, 106
1, 323467, Note_off_c, 0, 80, 68
1, 323493, Note_off_c, 0, 87, 63
1, 323520, Note_on_c, 0, 70, 90
1, 323521, Note_on_c, 0, 67, 87
1, 323523, Note_on_c, 0, 68, 83
1, 323549, Note_off_c, 0, 70, 64
1, 323551, Note_off_c, 0, 68, 63
1, 323554, Poly_aftertouch_c, 0, 88, 0
1, 323564, Note_off_c, 0, 67, 63
1, 323608, Note_on_c, 0, 70, 88
1, 323612, Note_on_c, 0, 68, 87
1, 323621, Note_on_c, 0, 67, 75
1, 323640, Note_off_c, 0, 70, 61
1, 323645, Note_off_c, 0, 67, 64
1, 323654, Note_off_c, 0, 68, 66
1, 323723, Note_on_c, 0, 83, 101
1, 323727, Note_on_c, 0, 79, 87
1, 323731, Note_on_c, 0, 65, 98
1, 323733, Note_on_c, 0, 62, 83
1, 323738, Note_on_c, 0, 80, 74
1, 323756, Note_off_c, 0, 79, 61
1, 323758, Note_off_c, 0, 80, 71
1, 323764, Note_off_c, 0, 65, 62
1, 323771, Note_off_c, 0, 83, 68
1, 323775, Note_off_c, 0, 62, 58
1, 323820, Note_on_c, 0, 65, 95
1, 323820, Poly_aftertouch_c, 0, 62, 0
1, 323824, Note_on_c, 0, 62, 68
1, 323824, Note_on_c, 0, 63, 76
1, 323830, Note_on_c, 0, 83, 105
1, 323836, Note_on_c, 0, 79, 89
1, 323840, Note_on_c, 0, 80, 82
1, 323848, Note_off_c, 0, 62, 67
1, 323852, Note_off_c, 0, 65, 70
1, 323854, Note_off_c, 0, 79, 68
1, 323869, Note_off_c, 0, 80, 62
1, 323876, Note_off_c, 0, 63, 64
1, 323885, Note_off_c, 0, 83, 67
1, 323952, Note_on_c, 0, 80, 111
1, 323952, Note_on_c, 0, 87, 111
1, 323989, Note_off_c, 0, 80, 66
1, 324009, Note_off_c, 0, 87, 63
1, 324083, Note_on_c, 0, 80, 109
1, 324083, Note_on_c, 0, 87, 113
1, 324087, Note_on_c, 0, 67, 89
1, 324090, Note_on_c, 0, 68, 88
1, 324090, Note_on_c, 0, 73, 100
1, 324112, Note_off_c, 0, 80, 69
1, 324124, Note_off_c, 0, 67, 66
1, 324125, Note_off_c, 0, 73, 64
1, 324131, Note_off_c, 0, 87, 66
1, 324151, Note_off_c, 0, 68, 57
1, 324501, Note_on_c, 0, 79, 102
1, 324510, Control_c, 0, 64, 80
1, 324525, Control_c, 0, 64, 0
1, 324706, Note_on_c, 0, 80, 96
1, 324718, Control_c, 0, 64, 68
1, 324724, Note_off_c, 0, 79, 60
1, 324732, Control_c, 0, 64, 78
1, 324747, Control_c, 0, 64, 87
1, 324762, Control_c, 0, 64, 98
1, 324776, Control_c, 0, 64, 108
1, 324791, Control_c, 0, 64, 127
1, 324814, Note_on_c, 0, 79, 99
1, 324825, Note_off_c, 0, 80, 62
1, 324900, Note_on_c, 0, 80, 97
1, 324912, Note_off_c, 0, 79, 62
1, 324975, Note_on_c, 0, 79, 85
1, 324975, Note_off_c, 0, 80, 64
1, 325040, Note_on_c, 0, 80, 83
1, 325043, Note_off_c, 0, 79, 63
1, 325099, Note_on_c, 0, 79, 76
1, 325101, Note_off_c, 0, 80, 64
1, 325155, Note_on_c, 0, 80, 73
1, 325156, Note_off_c, 0, 79, 63
1, 325222, Note_on_c, 0, 79, 74
1, 325228, Note_off_c, 0, 80, 63
1, 325273, Note_on_c, 0, 80, 71
1, 325285, Note_off_c, 0, 79, 61
1, 325335, Note_on_c, 0, 79, 69
1, 325338, Note_off_c, 0, 80, 54
1, 325397, Note_on_c, 0, 80, 74
1, 325410, Note_off_c, 0, 79, 59
1, 325452, Control_c, 0, 64, 81
1, 325461, Note_on_c, 0, 67, 106
1, 325463, Note_on_c, 0, 79, 72
1, 325465, Note_on_c, 0, 65, 95
1, 325466, Control_c, 0, 64, 0
1, 325472, Note_off_c, 0, 80, 62
1, 325511, Control_c, 0, 64, 37
1, 325526, Control_c, 0, 64, 64
1, 325529, Note_on_c, 0, 80, 70
1, 325536, Note_off_c, 0, 79, 64
1, 325541, Control_c, 0, 64, 73
1, 325555, Control_c, 0, 64, 86
1, 325570, Control_c, 0, 64, 101
1, 325585, Control_c, 0, 64, 119
1, 325597, Note_off_c, 0, 67, 61
1, 325599, Control_c, 0, 64, 127
1, 325602, Note_off_c, 0, 80, 62
1, 325607, Note_off_c, 0, 65, 52
1, 325616, Note_on_c, 0, 79, 70
1, 325666, Note_on_c, 0, 80, 79
1, 325669, Note_off_c, 0, 79, 58
1, 325682, Note_on_c, 0, 67, 81
1, 325726, Note_off_c, 0, 80, 57
1, 325736, Note_on_c, 0, 65, 82
1, 325739, Note_on_c, 0, 79, 75
1, 325745, Note_off_c, 0, 67, 61
1, 325788, Note_off_c, 0, 79, 59
1, 325789, Note_on_c, 0, 80, 67
1, 325806, Note_on_c, 0, 67, 75
1, 325808, Note_off_c, 0, 65, 65
1, 325843, Note_on_c, 0, 79, 71
1, 325846, Note_off_c, 0, 80, 59
1, 325866, Note_off_c, 0, 67, 58
1, 325867, Note_on_c, 0, 65, 76
1, 325898, Note_off_c, 0, 79, 62
1, 325903, Note_on_c, 0, 80, 62
1, 325933, Note_on_c, 0, 67, 76
1, 325935, Note_off_c, 0, 65, 64
1, 325967, Note_off_c, 0, 80, 62
1, 325967, Note_on_c, 0, 79, 65
1, 325994, Note_on_c, 0, 65, 74
1, 326008, Note_off_c, 0, 67, 52
1, 326017, Note_on_c, 0, 80, 69
1, 326019, Note_off_c, 0, 79, 59
1, 326060, Note_off_c, 0, 65, 65
1, 326066, Note_on_c, 0, 67, 72
1, 326081, Note_off_c, 0, 80, 64
1, 326084, Note_on_c, 0, 79, 60
1, 326111, Poly_aftertouch_c, 0, 80, 0
1, 326120, Note_on_c, 0, 80, 61
1, 326128, Note_off_c, 0, 79, 59
1, 326130, Note_on_c, 0, 65, 70
1, 326148, Note_off_c, 0, 67, 59
1, 326179, Note_on_c, 0, 64, 67
1, 326184, Note_on_c, 0, 79, 66
1, 326185, Note_off_c, 0, 80, 64
1, 326206, Note_off_c, 0, 65, 62
1, 326231, Note_off_c, 0, 64, 64
1, 326245, Note_on_c, 0, 80, 76
1, 326249, Note_off_c, 0, 79, 63
1, 326274, Note_on_c, 0, 64, 91
1, 326289, Control_c, 0, 64, 79
1, 326304, Note_on_c, 0, 65, 84
1, 326304, Control_c, 0, 64, 0
1, 326319, Control_c, 0, 64, 54
1, 326322, Note_on_c, 0, 79, 74
1, 326334, Control_c, 0, 64, 67
1, 326343, Note_off_c, 0, 64, 65
1, 326345, Note_off_c, 0, 80, 0
1, 326348, Control_c, 0, 64, 71
1, 326358, Note_on_c, 0, 80, 48
1, 326362, Note_off_c, 0, 79, 60
1, 326363, Control_c, 0, 64, 78
1, 326378, Control_c, 0, 64, 89
1, 326393, Control_c, 0, 64, 104
1, 326397, Note_on_c, 0, 64, 75
1, 326405, Note_off_c, 0, 65, 64
1, 326408, Control_c, 0, 64, 127
1, 326427, Note_off_c, 0, 80, 63
1, 326429, Note_on_c, 0, 79, 71
1, 326459, Note_on_c, 0, 65, 70
1, 326479, Note_on_c, 0, 80, 71
1, 326488, Note_off_c, 0, 79, 62
1, 326495, Note_off_c, 0, 64, 58
1, 326507, Note_off_c, 0, 65, 64
1, 326523, Note_off_c, 0, 80, 64
1, 326555, Control_c, 0, 64, 82
1, 326570, Control_c, 0, 64, 0
1, 326586, Note_on_c, 0, 79, 103
1, 326590, Note_on_c, 0, 62, 89
1, 326595, Note_on_c, 0, 85, 101
1, 326596, Note_on_c, 0, 71, 97
1, 326597, Note_on_c, 0, 63, 83
1, 326598, Note_on_c, 0, 70, 89
1, 326613, Note_off_c, 0, 79, 70
1, 326616, Control_c, 0, 64, 64
1, 326631, Control_c, 0, 64, 75
1, 326638, Note_off_c, 0, 85, 65
1, 326645, Control_c, 0, 64, 92
1, 326656, Note_off_c, 0, 62, 57
1, 326660, Control_c, 0, 64, 127
1, 326663, Note_off_c, 0, 71, 65
1, 326674, Note_off_c, 0, 63, 63
1, 326675, Note_off_c, 0, 70, 67
1, 326905, Control_c, 0, 64, 89
1, 326919, Control_c, 0, 64, 63
1, 326934, Control_c, 0, 64, 0
1, 327187, Note_on_c, 0, 44, 101
1, 327231, Note_on_c, 0, 42, 22
1, 327232, Note_off_c, 0, 42, 127
1, 327245, Control_c, 0, 64, 66
1, 327260, Control_c, 0, 64, 90
1, 327275, Control_c, 0, 64, 127
1, 327279, Note_off_c, 0, 44, 64
1, 327333, Note_on_c, 0, 43, 96
1, 327338, Note_on_c, 0, 44, 93
1, 327380, Note_off_c, 0, 43, 66
1, 327391, Note_off_c, 0, 44, 61
1, 327598, Note_on_c, 0, 92, 95
1, 327599, Note_on_c, 0, 94, 96
1, 327634, Note_off_c, 0, 92, 68
1, 327635, Note_off_c, 0, 94, 67
1, 327692, Note_on_c, 0, 94, 97
1, 327693, Note_on_c, 0, 92, 99
1, 327721, Note_off_c, 0, 92, 64
1, 327725, Note_off_c, 0, 94, 67
1, 327787, Note_on_c, 0, 68, 93
1, 327816, Control_c, 0, 64, 87
1, 327831, Control_c, 0, 64, 0
1, 327838, Note_off_c, 0, 68, 63
1, 327890, Control_c, 0, 64, 61
1, 327902, Note_on_c, 0, 68, 96
1, 327905, Control_c, 0, 64, 70
1, 327920, Control_c, 0, 64, 80
1, 327935, Control_c, 0, 64, 94
1, 327950, Control_c, 0, 64, 107
1, 327956, Note_off_c, 0, 68, 61
1, 327964, Control_c, 0, 64, 127
1, 327998, Note_on_c, 0, 82, 85
1, 328004, Note_on_c, 0, 68, 83
1, 328005, Note_on_c, 0, 80, 74
1, 328010, Note_on_c, 0, 70, 89
1, 328025, Note_off_c, 0, 80, 69
1, 328029, Note_off_c, 0, 70, 69
1, 328042, Note_off_c, 0, 68, 68
1, 328045, Note_off_c, 0, 82, 63
1, 328108, Note_on_c, 0, 80, 79
1, 328111, Note_on_c, 0, 82, 73
1, 328134, Note_off_c, 0, 80, 63
1, 328137, Note_off_c, 0, 82, 63
1, 328229, Note_on_c, 0, 82, 74
1, 328261, Note_on_c, 0, 80, 36
1, 328292, Note_off_c, 0, 82, 58
1, 328293, Note_off_c, 0, 80, 51
1, 328358, Control_c, 0, 64, 116
1, 328373, Control_c, 0, 64, 91
1, 328377, Note_on_c, 0, 38, 71
1, 328383, Note_on_c, 0, 83, 59
1, 328388, Control_c, 0, 64, 73
1, 328388, Note_on_c, 0, 80, 44
1, 328403, Control_c, 0, 64, 46
1, 328417, Control_c, 0, 64, 0
1, 328429, Note_off_c, 0, 80, 60
1, 328442, Note_off_c, 0, 83, 60
1, 328506, Control_c, 0, 64, 17
1, 328521, Control_c, 0, 64, 53
1, 328522, Note_on_c, 0, 39, 81
1, 328536, Control_c, 0, 64, 65
1, 328540, Note_on_c, 0, 83, 46
1, 328544, Note_off_c, 0, 38, 62
1, 328550, Control_c, 0, 64, 70
1, 328552, Note_on_c, 0, 80, 32
1, 328565, Control_c, 0, 64, 68
1, 328577, Note_off_c, 0, 83, 65
1, 328580, Control_c, 0, 64, 60
1, 328583, Note_off_c, 0, 80, 55
1, 328595, Control_c, 0, 64, 17
1, 328610, Control_c, 0, 64, 0
1, 328639, Control_c, 0, 64, 40
1, 328654, Control_c, 0, 64, 61
1, 328655, Note_on_c, 0, 42, 89
1, 328668, Note_on_c, 0, 83, 65
1, 328669, Control_c, 0, 64, 67
1, 328673, Note_on_c, 0, 80, 48
1, 328684, Control_c, 0, 64, 74
1, 328689, Note_off_c, 0, 39, 62
1, 328698, Control_c, 0, 64, 86
1, 328704, Note_off_c, 0, 80, 55
1, 328710, Note_off_c, 0, 83, 57
1, 328713, Control_c, 0, 64, 96
1, 328728, Control_c, 0, 64, 102
1, 328743, Control_c, 0, 64, 103
1, 328757, Control_c, 0, 64, 104
1, 328762, Note_off_c, 0, 42, 59
1, 328772, Control_c, 0, 64, 107
1, 328781, Note_on_c, 0, 41, 86
1, 328787, Control_c, 0, 64, 112
1, 328799, Note_on_c, 0, 80, 60
1, 328802, Control_c, 0, 64, 113
1, 328810, Note_on_c, 0, 83, 68
1, 328854, Note_off_c, 0, 83, 52
1, 328863, Note_off_c, 0, 80, 55
1, 328906, Control_c, 0, 64, 113
1, 328921, Control_c, 0, 64, 112
1, 328942, Control_c, 0, 64, 105
1, 328957, Control_c, 0, 64, 90
1, 328962, Note_on_c, 0, 50, 94
1, 328964, Note_off_c, 0, 41, 59
1, 328972, Control_c, 0, 64, 71
1, 328974, Note_on_c, 0, 83, 58
1, 328987, Control_c, 0, 64, 0
1, 328998, Note_on_c, 0, 80, 42
1, 329020, Note_off_c, 0, 83, 58
1, 329029, Note_off_c, 0, 80, 54
1, 329116, Note_on_c, 0, 80, 51
1, 329125, Note_on_c, 0, 83, 58
1, 329136, Control_c, 0, 64, 30
1, 329151, Control_c, 0, 64, 58
1, 329154, Note_off_c, 0, 80, 62
1, 329155, Note_off_c, 0, 83, 65
1, 329166, Control_c, 0, 64, 64
1, 329181, Control_c, 0, 64, 67
1, 329196, Control_c, 0, 64, 70
1, 329211, Control_c, 0, 64, 73
1, 329225, Control_c, 0, 64, 76
1, 329240, Control_c, 0, 64, 79
1, 329255, Control_c, 0, 64, 81
1, 329255, Note_on_c, 0, 83, 59
1, 329270, Control_c, 0, 64, 84
1, 329273, Note_on_c, 0, 80, 31
1, 329285, Control_c, 0, 64, 89
1, 329287, Note_off_c, 0, 83, 66
1, 329300, Control_c, 0, 64, 94
1, 329306, Note_off_c, 0, 50, 63
1, 329309, Note_off_c, 0, 80, 48
1, 329314, Control_c, 0, 64, 97
1, 329329, Control_c, 0, 64, 98
1, 329344, Control_c, 0, 64, 98
1, 329357, Note_on_c, 0, 49, 88
1, 329359, Control_c, 0, 64, 99
1, 329373, Control_c, 0, 64, 100
1, 329374, Note_on_c, 0, 83, 62
1, 329392, Note_on_c, 0, 80, 50
1, 329413, Note_off_c, 0, 83, 58
1, 329414, Note_off_c, 0, 80, 60
1, 329447, Control_c, 0, 64, 90
1, 329462, Control_c, 0, 64, 73
1, 329473, Note_on_c, 0, 56, 106
1, 329477, Control_c, 0, 64, 0
1, 329489, Note_on_c, 0, 80, 61
1, 329494, Note_off_c, 0, 49, 60
1, 329506, Note_on_c, 0, 83, 66
1, 329507, Control_c, 0, 64, 56
1, 329521, Control_c, 0, 64, 64
1, 329533, Note_off_c, 0, 80, 62
1, 329533, Note_off_c, 0, 83, 65
1, 329537, Control_c, 0, 64, 67
1, 329552, Control_c, 0, 64, 74
1, 329566, Control_c, 0, 64, 81
1, 329574, Poly_aftertouch_c, 0, 46, 127
1, 329581, Control_c, 0, 64, 88
1, 329596, Control_c, 0, 64, 92
1, 329610, Note_off_c, 0, 56, 67
1, 329610, Poly_aftertouch_c, 0, 46, 0
1, 329611, Control_c, 0, 64, 94
1, 329624, Note_on_c, 0, 80, 51
1, 329628, Note_on_c, 0, 83, 64
1, 329640, Control_c, 0, 64, 95
1, 329647, Note_off_c, 0, 80, 62
1, 329653, Note_off_c, 0, 83, 67
1, 329655, Control_c, 0, 64, 99
1, 329670, Control_c, 0, 64, 99
1, 329693, Control_c, 0, 64, 97
1, 329708, Control_c, 0, 64, 86
1, 329714, Note_on_c, 0, 60, 94
1, 329722, Control_c, 0, 64, 71
1, 329727, Note_on_c, 0, 83, 78
1, 329735, Note_on_c, 0, 80, 66
1, 329737, Control_c, 0, 64, 0
1, 329760, Note_off_c, 0, 80, 67
1, 329766, Control_c, 0, 64, 52
1, 329781, Note_off_c, 0, 83, 64
1, 329781, Control_c, 0, 64, 64
1, 329796, Control_c, 0, 64, 70
1, 329811, Control_c, 0, 64, 76
1, 329827, Control_c, 0, 64, 75
1, 329830, Note_on_c, 0, 57, 90
1, 329831, Note_off_c, 0, 60, 68
1, 329836, Note_on_c, 0, 83, 71
1, 329842, Control_c, 0, 64, 67
1, 329844, Note_on_c, 0, 80, 68
1, 329857, Control_c, 0, 64, 40
1, 329869, Note_off_c, 0, 80, 65
1, 329871, Control_c, 0, 64, 0
1, 329886, Note_off_c, 0, 83, 65
1, 329886, Control_c, 0, 64, 52
1, 329901, Control_c, 0, 64, 64
1, 329916, Control_c, 0, 64, 68
1, 329931, Control_c, 0, 64, 71
1, 329939, Note_on_c, 0, 54, 86
1, 329945, Control_c, 0, 64, 72
1, 329946, Note_on_c, 0, 83, 75
1, 329954, Note_on_c, 0, 80, 70
1, 329963, Note_off_c, 0, 57, 58
1, 329989, Note_off_c, 0, 80, 55
1, 330003, Note_off_c, 0, 83, 63
1, 330004, Control_c, 0, 64, 73
1, 330019, Control_c, 0, 64, 75
1, 330034, Control_c, 0, 64, 78
1, 330042, Note_on_c, 0, 47, 83
1, 330047, Note_on_c, 0, 48, 70
1, 330049, Control_c, 0, 64, 81
1, 330052, Note_on_c, 0, 83, 64
1, 330052, Note_off_c, 0, 54, 66
1, 330063, Note_on_c, 0, 80, 68
1, 330063, Control_c, 0, 64, 84
1, 330074, Note_off_c, 0, 48, 64
1, 330078, Control_c, 0, 64, 87
1, 330081, Note_off_c, 0, 47, 67
1, 330093, Note_off_c, 0, 80, 62
1, 330093, Control_c, 0, 64, 90
1, 330108, Note_off_c, 0, 83, 65
1, 330108, Control_c, 0, 64, 90
1, 330123, Control_c, 0, 64, 81
1, 330138, Control_c, 0, 64, 64
1, 330144, Note_on_c, 0, 37, 101
1, 330152, Control_c, 0, 64, 0
1, 330161, Note_on_c, 0, 83, 67
1, 330173, Note_on_c, 0, 80, 72
1, 330185, Note_off_c, 0, 37, 69
1, 330197, Note_off_c, 0, 80, 65
1, 330212, Control_c, 0, 64, 59
1, 330216, Note_off_c, 0, 83, 65
1, 330227, Control_c, 0, 64, 66
1, 330228, Note_on_c, 0, 38, 56
1, 330242, Control_c, 0, 64, 63
1, 330256, Control_c, 0, 64, 0
1, 330263, Note_on_c, 0, 36, 73
1, 330264, Note_on_c, 0, 39, 83
1, 330268, Note_on_c, 0, 83, 69
1, 330281, Note_on_c, 0, 80, 72
1, 330304, Note_off_c, 0, 80, 66
1, 330307, Note_off_c, 0, 38, 57
1, 330315, Note_off_c, 0, 83, 65
1, 330315, Control_c, 0, 64, 55
1, 330330, Control_c, 0, 64, 63
1, 330344, Control_c, 0, 64, 59
1, 330359, Control_c, 0, 64, 50
1, 330369, Note_on_c, 0, 44, 89
1, 330374, Control_c, 0, 64, 59
1, 330376, Note_on_c, 0, 85, 88
1, 330386, Note_on_c, 0, 80, 79
1, 330386, Note_off_c, 0, 39, 60
1, 330388, Control_c, 0, 64, 64
1, 330403, Control_c, 0, 64, 69
1, 330406, Note_off_c, 0, 80, 72
1, 330407, Note_off_c, 0, 36, 62
1, 330415, Note_off_c, 0, 44, 64
1, 330418, Control_c, 0, 64, 71
1, 330423, Note_off_c, 0, 85, 65
1, 330441, Control_c, 0, 64, 72
1, 330471, Note_on_c, 0, 41, 78
1, 330482, Note_on_c, 0, 80, 91
1, 330485, Note_on_c, 0, 85, 83
1, 330485, Control_c, 0, 64, 73
1, 330500, Control_c, 0, 64, 76
1, 330514, Control_c, 0, 64, 80
1, 330523, Note_off_c, 0, 80, 61
1, 330529, Control_c, 0, 64, 84
1, 330534, Note_off_c, 0, 85, 63
1, 330544, Control_c, 0, 64, 85
1, 330559, Control_c, 0, 64, 77
1, 330573, Note_off_c, 0, 41, 60
1, 330574, Control_c, 0, 64, 61
1, 330577, Note_on_c, 0, 50, 93
1, 330588, Note_on_c, 0, 80, 86
1, 330588, Control_c, 0, 64, 0
1, 330589, Note_on_c, 0, 85, 86
1, 330619, Control_c, 0, 64, 38
1, 330623, Note_off_c, 0, 80, 63
1, 330634, Control_c, 0, 64, 63
1, 330638, Note_off_c, 0, 85, 63
1, 330649, Control_c, 0, 64, 70
1, 330664, Control_c, 0, 64, 77
1, 330678, Note_on_c, 0, 51, 96
1, 330679, Control_c, 0, 64, 87
1, 330692, Note_off_c, 0, 50, 68
1, 330693, Control_c, 0, 64, 100
1, 330696, Note_on_c, 0, 85, 83
1, 330702, Note_on_c, 0, 80, 83
1, 330708, Control_c, 0, 64, 112
1, 330709, Note_off_c, 0, 51, 63
1, 330723, Note_off_c, 0, 80, 64
1, 330723, Control_c, 0, 64, 127
1, 330743, Note_off_c, 0, 85, 66
1, 330805, Note_on_c, 0, 85, 79
1, 330817, Note_on_c, 0, 80, 64
1, 330832, Note_off_c, 0, 80, 68
1, 330856, Note_off_c, 0, 85, 62
1, 330888, Note_on_c, 0, 57, 88
1, 330892, Note_on_c, 0, 80, 74
1, 330896, Note_on_c, 0, 85, 62
1, 330916, Control_c, 0, 64, 105
1, 330930, Control_c, 0, 64, 67
1, 330936, Note_off_c, 0, 80, 64
1, 330945, Control_c, 0, 64, 0
1, 330960, Note_off_c, 0, 85, 63
1, 330986, Note_on_c, 0, 65, 97
1, 330999, Poly_aftertouch_c, 0, 85, 0
1, 331007, Note_on_c, 0, 85, 63
1, 331008, Note_on_c, 0, 80, 71
1, 331009, Note_off_c, 0, 57, 58
1, 331034, Control_c, 0, 64, 17
1, 331042, Note_off_c, 0, 80, 59
1, 331047, Note_off_c, 0, 85, 59
1, 331049, Control_c, 0, 64, 70
1, 331064, Control_c, 0, 64, 82
1, 331079, Control_c, 0, 64, 93
1, 331080, Note_off_c, 0, 65, 60
1, 331093, Note_on_c, 0, 85, 69
1, 331093, Control_c, 0, 64, 99
1, 331097, Note_on_c, 0, 57, 80
1, 331108, Control_c, 0, 64, 101
1, 331111, Note_on_c, 0, 80, 47
1, 331123, Control_c, 0, 64, 103
1, 331134, Note_off_c, 0, 80, 58
1, 331137, Control_c, 0, 64, 108
1, 331142, Note_off_c, 0, 85, 64
1, 331152, Control_c, 0, 64, 117
1, 331167, Control_c, 0, 64, 127
1, 331200, Note_on_c, 0, 56, 87
1, 331201, Note_on_c, 0, 59, 85
1, 331203, Note_on_c, 0, 80, 74
1, 331208, Note_on_c, 0, 86, 82
1, 331221, Note_off_c, 0, 59, 69
1, 331224, Note_off_c, 0, 57, 64
1, 331233, Note_off_c, 0, 56, 64
1, 331245, Note_off_c, 0, 80, 61
1, 331252, Note_off_c, 0, 86, 66
1, 331309, Note_on_c, 0, 80, 75
1, 331313, Note_on_c, 0, 86, 79
1, 331334, Note_off_c, 0, 80, 65
1, 331347, Note_off_c, 0, 86, 63
1, 331406, Note_on_c, 0, 85, 85
1, 331411, Note_on_c, 0, 80, 72
1, 331413, Control_c, 0, 64, 85
1, 331428, Control_c, 0, 64, 0
1, 331431, Note_off_c, 0, 80, 67
1, 331440, Note_off_c, 0, 85, 61
1, 331497, Note_on_c, 0, 65, 89
1, 331500, Note_on_c, 0, 80, 74
1, 331508, Note_on_c, 0, 85, 85
1, 331530, Note_off_c, 0, 85, 66
1, 331533, Note_off_c, 0, 80, 60
1, 331560, Control_c, 0, 64, 33
1, 331575, Control_c, 0, 64, 56
1, 331590, Control_c, 0, 64, 68
1, 331596, Note_off_c, 0, 65, 62
1, 331598, Note_on_c, 0, 69, 91
1, 331602, Note_on_c, 0, 80, 82
1, 331604, Note_on_c, 0, 87, 91
1, 331605, Control_c, 0, 64, 82
1, 331608, Note_on_c, 0, 72, 91
1, 331620, Control_c, 0, 64, 98
1, 331626, Note_off_c, 0, 72, 72
1, 331630, Note_off_c, 0, 80, 63
1, 331632, Note_off_c, 0, 69, 67
1, 331634, Control_c, 0, 64, 127
1, 331643, Note_off_c, 0, 87, 62
1, 331704, Note_on_c, 0, 87, 95
1, 331709, Note_on_c, 0, 80, 85
1, 331726, Note_off_c, 0, 80, 73
1, 331748, Note_off_c, 0, 87, 64
1, 331798, Control_c, 0, 64, 95
1, 331798, Note_on_c, 0, 73, 104
1, 331800, Note_on_c, 0, 80, 92
1, 331801, Note_on_c, 0, 87, 90
1, 331813, Control_c, 0, 64, 67
1, 331822, Note_on_c, 0, 71, 66
1, 331823, Note_off_c, 0, 71, 127
1, 331827, Note_off_c, 0, 73, 67
1, 331828, Control_c, 0, 64, 51
1, 331831, Note_off_c, 0, 80, 62
1, 331836, Note_on_c, 0, 68, 30
1, 331838, Note_on_c, 0, 72, 50
1, 331842, Control_c, 0, 64, 71
1, 331843, Note_off_c, 0, 87, 66
1, 331843, Note_on_c, 0, 69, 30
1, 331844, Note_off_c, 0, 69, 127
1, 331857, Control_c, 0, 64, 78
1, 331862, Note_off_c, 0, 72, 42
1, 331872, Control_c, 0, 64, 85
1, 331873, Note_off_c, 0, 68, 32
1, 331887, Control_c, 0, 64, 98
1, 331894, Note_on_c, 0, 69, 77
1, 331902, Note_on_c, 0, 87, 84
1, 331902, Control_c, 0, 64, 127
1, 331907, Note_on_c, 0, 80, 83
1, 331941, Note_off_c, 0, 80, 59
1, 331955, Note_off_c, 0, 87, 66
1, 332009, Note_on_c, 0, 73, 101
1, 332015, Note_on_c, 0, 87, 90
1, 332017, Note_on_c, 0, 80, 85
1, 332036, Note_on_c, 0, 75, 42
1, 332037, Note_off_c, 0, 75, 127
1, 332037, Note_off_c, 0, 80, 67
1, 332041, Note_off_c, 0, 73, 68
1, 332055, Note_off_c, 0, 87, 66
1, 332062, Note_off_c, 0, 69, 61
1, 332096, Poly_aftertouch_c, 0, 68, 127
1, 332116, Note_on_c, 0, 87, 78
1, 332117, Note_on_c, 0, 80, 76
1, 332132, Poly_aftertouch_c, 0, 68, 0
1, 332141, Note_off_c, 0, 80, 66
1, 332162, Note_off_c, 0, 87, 65
1, 332219, Note_on_c, 0, 88, 85
1, 332224, Note_on_c, 0, 80, 80
1, 332245, Note_off_c, 0, 80, 69
1, 332251, Control_c, 0, 64, 112
1, 332263, Note_off_c, 0, 88, 66
1, 332265, Control_c, 0, 64, 70
1, 332280, Control_c, 0, 64, 0
1, 332305, Poly_aftertouch_c, 0, 42, 0
1, 332308, Note_on_c, 0, 33, 90
1, 332320, Note_on_c, 0, 80, 83
1, 332326, Note_on_c, 0, 88, 80
1, 332346, Note_off_c, 0, 80, 60
1, 332364, Note_off_c, 0, 88, 64
1, 332383, Control_c, 0, 64, 27
1, 332398, Control_c, 0, 64, 64
1, 332413, Control_c, 0, 64, 70
1, 332415, Note_on_c, 0, 39, 86
1, 332421, Note_on_c, 0, 80, 77
1, 332421, Note_on_c, 0, 88, 73
1, 332428, Control_c, 0, 64, 75
1, 332442, Note_off_c, 0, 33, 60
1, 332443, Control_c, 0, 64, 80
1, 332448, Note_off_c, 0, 80, 62
1, 332457, Control_c, 0, 64, 85
1, 332467, Note_off_c, 0, 88, 62
1, 332472, Control_c, 0, 64, 92
1, 332487, Control_c, 0, 64, 103
1, 332502, Control_c, 0, 64, 116
1, 332511, Note_on_c, 0, 42, 89
1, 332517, Control_c, 0, 64, 127
1, 332524, Note_off_c, 0, 39, 62
1, 332527, Note_on_c, 0, 80, 79
1, 332527, Note_on_c, 0, 88, 77
1, 332534, Note_off_c, 0, 42, 69
1, 332574, Note_off_c, 0, 80, 62
1, 332574, Note_off_c, 0, 88, 66
1, 332634, Note_on_c, 0, 56, 109
1, 332636, Control_c, 0, 64, 117
1, 332647, Note_on_c, 0, 80, 78
1, 332650, Note_on_c, 0, 88, 87
1, 332650, Control_c, 0, 64, 77
1, 332665, Control_c, 0, 64, 0
1, 332687, Control_c, 0, 64, 58
1, 332697, Note_off_c, 0, 80, 60
1, 332701, Note_off_c, 0, 88, 64
1, 332702, Control_c, 0, 64, 68
1, 332716, Control_c, 0, 64, 73
1, 332731, Control_c, 0, 64, 80
1, 332746, Control_c, 0, 64, 94
1, 332761, Note_on_c, 0, 60, 102
1, 332761, Control_c, 0, 64, 116
1, 332764, Note_on_c, 0, 80, 78
1, 332770, Note_on_c, 0, 88, 82
1, 332776, Control_c, 0, 64, 127
1, 332787, Note_off_c, 0, 56, 63
1, 332808, Note_off_c, 0, 80, 61
1, 332812, Note_off_c, 0, 88, 64
1, 332875, Note_on_c, 0, 80, 74
1, 332878, Note_on_c, 0, 88, 78
1, 332904, Note_off_c, 0, 80, 62
1, 332916, Note_off_c, 0, 88, 62
1, 332969, Note_on_c, 0, 57, 85
1, 332975, Note_on_c, 0, 88, 81
1, 332976, Note_off_c, 0, 60, 61
1, 332978, Note_on_c, 0, 80, 76
1, 333008, Note_off_c, 0, 80, 58
1, 333011, Note_off_c, 0, 57, 64
1, 333021, Note_off_c, 0, 88, 64
1, 333059, Control_c, 0, 64, 94
1, 333074, Control_c, 0, 64, 49
1, 333080, Note_on_c, 0, 64, 90
1, 333086, Note_on_c, 0, 91, 96
1, 333088, Control_c, 0, 64, 0
1, 333089, Note_on_c, 0, 80, 92
1, 333118, Control_c, 0, 64, 43
1, 333121, Note_off_c, 0, 80, 64
1, 333130, Note_off_c, 0, 91, 67
1, 333133, Control_c, 0, 64, 67
1, 333148, Control_c, 0, 64, 76
1, 333163, Control_c, 0, 64, 91
1, 333178, Control_c, 0, 64, 106
1, 333187, Note_on_c, 0, 63, 83
1, 333193, Note_on_c, 0, 80, 84
1, 333193, Note_on_c, 0, 91, 94
1, 333193, Control_c, 0, 64, 119
1, 333198, Note_off_c, 0, 64, 61
1, 333207, Control_c, 0, 64, 127
1, 333232, Note_off_c, 0, 80, 61
1, 333232, Note_off_c, 0, 91, 67
1, 333284, Note_on_c, 0, 58, 81
1, 333291, Note_off_c, 0, 63, 63
1, 333296, Note_on_c, 0, 91, 93
1, 333297, Note_on_c, 0, 80, 81
1, 333319, Note_off_c, 0, 58, 61
1, 333320, Note_off_c, 0, 80, 65
1, 333333, Note_off_c, 0, 91, 67
1, 333384, Note_on_c, 0, 57, 85
1, 333389, Note_on_c, 0, 91, 93
1, 333390, Note_on_c, 0, 80, 94
1, 333425, Note_off_c, 0, 80, 65
1, 333434, Note_off_c, 0, 91, 67
1, 333467, Control_c, 0, 64, 94
1, 333478, Note_on_c, 0, 51, 94
1, 333482, Note_off_c, 0, 57, 57
1, 333482, Control_c, 0, 64, 38
1, 333491, Note_on_c, 0, 90, 98
1, 333494, Note_on_c, 0, 80, 96
1, 333497, Control_c, 0, 64, 0
1, 333527, Control_c, 0, 64, 49
1, 333532, Note_off_c, 0, 80, 62
1, 333541, Control_c, 0, 64, 69
1, 333542, Note_off_c, 0, 90, 64
1, 333556, Control_c, 0, 64, 81
1, 333562, Note_off_c, 0, 51, 64
1, 333571, Control_c, 0, 64, 97
1, 333586, Control_c, 0, 64, 127
1, 333589, Note_on_c, 0, 80, 82
1, 333595, Note_on_c, 0, 90, 86
1, 333632, Note_off_c, 0, 80, 63
1, 333643, Note_off_c, 0, 90, 65
1, 333688, Note_on_c, 0, 52, 85
1, 333700, Note_on_c, 0, 90, 96
1, 333702, Note_on_c, 0, 80, 85
1, 333722, Note_off_c, 0, 80, 67
1, 333733, Note_off_c, 0, 52, 63
1, 333744, Note_off_c, 0, 90, 65
1, 333783, Note_on_c, 0, 46, 88
1, 333795, Note_on_c, 0, 90, 99
1, 333799, Note_on_c, 0, 80, 96
1, 333833, Note_off_c, 0, 80, 66
1, 333849, Note_off_c, 0, 90, 64
1, 333876, Note_on_c, 0, 42, 86
1, 333883, Control_c, 0, 64, 77
1, 333884, Note_off_c, 0, 46, 51
1, 333893, Note_on_c, 0, 88, 94
1, 333894, Note_on_c, 0, 80, 93
1, 333898, Control_c, 0, 64, 0
1, 333924, Note_off_c, 0, 80, 64
1, 333941, Note_off_c, 0, 88, 64
1, 333956, Control_c, 0, 64, 59
1, 333968, Note_off_c, 0, 42, 58
1, 333971, Control_c, 0, 64, 71
1, 333980, Note_on_c, 0, 36, 82
1, 333986, Control_c, 0, 64, 83
1, 333990, Note_on_c, 0, 80, 87
1, 333990, Note_on_c, 0, 88, 89
1, 334001, Control_c, 0, 64, 101
1, 334016, Control_c, 0, 64, 127
1, 334028, Note_off_c, 0, 80, 61
1, 334037, Note_off_c, 0, 88, 66
1, 334078, Note_on_c, 0, 44, 88
1, 334081, Note_off_c, 0, 36, 60
1, 334097, Note_on_c, 0, 80, 89
1, 334100, Note_on_c, 0, 88, 92
1, 334135, Note_off_c, 0, 80, 63
1, 334141, Note_off_c, 0, 88, 65
1, 334192, Note_on_c, 0, 49, 94
1, 334206, Note_off_c, 0, 44, 64
1, 334208, Note_on_c, 0, 80, 86
1, 334209, Note_on_c, 0, 88, 89
1, 334236, Note_off_c, 0, 49, 64
1, 334250, Note_off_c, 0, 80, 65
1, 334263, Note_off_c, 0, 88, 63
1, 334284, Poly_aftertouch_c, 0, 50, 127
1, 334290, Control_c, 0, 64, 97
1, 334305, Note_on_c, 0, 46, 97
1, 334305, Control_c, 0, 64, 0
1, 334323, Note_on_c, 0, 87, 90
1, 334324, Note_on_c, 0, 80, 87
1, 334336, Note_on_c, 0, 44, 43
1, 334363, Poly_aftertouch_c, 0, 50, 0
1, 334365, Note_off_c, 0, 44, 53
1, 334367, Note_off_c, 0, 80, 63
1, 334381, Note_off_c, 0, 87, 66
1, 334432, Note_on_c, 0, 52, 97
1, 334435, Note_on_c, 0, 80, 81
1, 334442, Note_on_c, 0, 87, 79
1, 334453, Control_c, 0, 64, 71
1, 334463, Note_off_c, 0, 46, 59
1, 334468, Control_c, 0, 64, 84
1, 334482, Control_c, 0, 64, 103
1, 334484, Note_off_c, 0, 80, 63
1, 334493, Note_off_c, 0, 87, 65
1, 334497, Control_c, 0, 64, 115
1, 334512, Control_c, 0, 64, 127
1, 334555, Note_on_c, 0, 80, 74
1, 334561, Note_on_c, 0, 87, 80
1, 334593, Note_off_c, 0, 52, 60
1, 334599, Note_off_c, 0, 80, 61
1, 334613, Note_off_c, 0, 87, 63
1, 334670, Note_on_c, 0, 48, 101
1, 334672, Note_on_c, 0, 87, 78
1, 334676, Note_on_c, 0, 80, 68
1, 334722, Note_off_c, 0, 80, 60
1, 334731, Note_off_c, 0, 87, 64
1, 334735, Control_c, 0, 64, 98
1, 334750, Control_c, 0, 64, 67
1, 334765, Control_c, 0, 64, 43
1, 334768, Note_off_c, 0, 48, 63
1, 334779, Control_c, 0, 64, 69
1, 334794, Control_c, 0, 64, 78
1, 334798, Note_on_c, 0, 80, 79
1, 334803, Note_on_c, 0, 87, 81
1, 334809, Control_c, 0, 64, 92
1, 334812, Note_on_c, 0, 49, 99
1, 334824, Control_c, 0, 64, 127
1, 334857, Note_off_c, 0, 80, 60
1, 334871, Note_off_c, 0, 87, 63
1, 334900, Note_off_c, 0, 49, 67
1, 334920, Poly_aftertouch_c, 0, 48, 0
1, 334941, Note_on_c, 0, 48, 60
1, 334946, Note_on_c, 0, 80, 84
1, 334954, Note_on_c, 0, 87, 89
1, 335044, Note_off_c, 0, 80, 60
1, 335053, Note_off_c, 0, 87, 65
1, 335068, Control_c, 0, 64, 111
1, 335083, Control_c, 0, 64, 64
1, 335098, Control_c, 0, 64, 0
1, 335102, Note_on_c, 0, 46, 95
1, 335107, Note_on_c, 0, 43, 89
1, 335119, Note_on_c, 0, 87, 96
1, 335120, Note_on_c, 0, 80, 90
1, 335131, Note_off_c, 0, 48, 64
1, 335157, Control_c, 0, 64, 63
1, 335168, Note_off_c, 0, 46, 63
1, 335170, Note_off_c, 0, 43, 64
1, 335172, Control_c, 0, 64, 88
1, 335186, Control_c, 0, 64, 127
1, 335616, Control_c, 0, 64, 103
1, 335631, Control_c, 0, 64, 35
1, 335631, Note_on_c, 0, 45, 109
1, 335636, Note_on_c, 0, 33, 89
1, 335646, Control_c, 0, 64, 0
1, 335659, Note_on_c, 0, 32, 61
1, 335763, Note_off_c, 0, 32, 61
1, 335771, Control_c, 0, 64, 36
1, 335786, Control_c, 0, 64, 82
1, 335801, Control_c, 0, 64, 127
1, 335831, Note_off_c, 0, 87, 59
1, 335835, Note_off_c, 0, 80, 58
1, 335855, Note_off_c, 0, 33, 60
1, 335869, Note_off_c, 0, 45, 63
1, 336520, Note_on_c, 0, 78, 86
1, 336520, Note_on_c, 0, 95, 108
1, 336521, Note_on_c, 0, 79, 89
1, 336524, Note_on_c, 0, 83, 105
1, 336629, Poly_aftertouch_c, 0, 94, 0
1, 336810, Note_off_c, 0, 83, 59
1, 336839, Note_off_c, 0, 95, 57
1, 336848, Note_off_c, 0, 79, 57
1, 336855, Note_off_c, 0, 78, 55
1, 336970, Note_on_c, 0, 78, 82
1, 336970, Note_on_c, 0, 79, 90
1, 336974, Note_on_c, 0, 76, 82
1, 336976, Note_on_c, 0, 83, 105
1, 336976, Note_on_c, 0, 95, 105
1, 337078, Note_off_c, 0, 79, 59
1, 337095, Note_off_c, 0, 76, 57
1, 337098, Note_off_c, 0, 83, 61
1, 337099, Note_off_c, 0, 78, 60
1, 337118, Note_off_c, 0, 95, 57
1, 337202, Note_on_c, 0, 79, 91
1, 337205, Note_on_c, 0, 78, 83
1, 337207, Note_on_c, 0, 76, 78
1, 337213, Note_on_c, 0, 83, 100
1, 337214, Note_on_c, 0, 95, 107
1, 337276, Note_off_c, 0, 79, 54
1, 337287, Note_off_c, 0, 83, 63
1, 337304, Note_off_c, 0, 95, 61
1, 337307, Note_off_c, 0, 78, 57
1, 337316, Note_off_c, 0, 76, 58
1, 337366, Note_on_c, 0, 79, 102
1, 337369, Note_on_c, 0, 78, 85
1, 337370, Note_on_c, 0, 74, 87
1, 337372, Note_on_c, 0, 95, 107
1, 337375, Note_on_c, 0, 81, 97
1, 337378, Note_on_c, 0, 83, 101
1, 337415, Note_on_c, 0, 94, 45
1, 337433, Note_off_c, 0, 79, 56
1, 337450, Note_off_c, 0, 78, 61
1, 337465, Note_off_c, 0, 94, 44
1, 337467, Note_off_c, 0, 74, 58
1, 337499, Note_on_c, 0, 74, 70
1, 337503, Note_on_c, 0, 79, 98
1, 337505, Note_on_c, 0, 78, 83
1, 337524, Note_off_c, 0, 81, 60
1, 337525, Note_off_c, 0, 83, 58
1, 337542, Note_off_c, 0, 95, 61
1, 337554, Note_off_c, 0, 79, 60
1, 337575, Note_off_c, 0, 78, 62
1, 337586, Note_off_c, 0, 74, 63
1, 337626, Note_on_c, 0, 74, 69
1, 337629, Note_on_c, 0, 95, 107
1, 337630, Note_on_c, 0, 81, 99
1, 337631, Note_on_c, 0, 79, 95
1, 337631, Note_on_c, 0, 83, 99
1, 337632, Note_on_c, 0, 78, 75
1, 337662, Note_on_c, 0, 94, 55
1, 337763, Note_off_c, 0, 79, 56
1, 337779, Note_off_c, 0, 94, 0
1, 337787, Note_off_c, 0, 95, 58
1, 337807, Note_on_c, 0, 94, 19
1, 337813, Note_off_c, 0, 78, 60
1, 337825, Note_off_c, 0, 74, 64
1, 337846, Note_off_c, 0, 83, 56
1, 337855, Note_off_c, 0, 81, 56
1, 337861, Note_off_c, 0, 94, 48
1, 338126, Note_on_c, 0, 62, 63
1, 338128, Note_on_c, 0, 66, 77
1, 338129, Note_on_c, 0, 83, 108
1, 338131, Note_on_c, 0, 67, 82
1, 338131, Note_on_c, 0, 69, 93
1, 338131, Note_on_c, 0, 71, 97
1, 338285, Note_off_c, 0, 67, 58
1, 338290, Note_off_c, 0, 71, 59
1, 338293, Note_off_c, 0, 69, 57
1, 338294, Note_off_c, 0, 83, 57
1, 338329, Note_off_c, 0, 66, 49
1, 338338, Note_off_c, 0, 62, 48
1, 338380, Note_on_c, 0, 67, 96
1, 338386, Note_on_c, 0, 71, 96
1, 338389, Note_on_c, 0, 83, 98
1, 338401, Note_on_c, 0, 76, 60
1, 338427, Note_on_c, 0, 66, 4
1, 338436, Note_off_c, 0, 76, 58
1, 338439, Note_off_c, 0, 71, 65
1, 338441, Note_off_c, 0, 67, 63
1, 338451, Note_off_c, 0, 83, 62
1, 338472, Note_off_c, 0, 66, 48
1, 338516, Note_on_c, 0, 67, 105
1, 338520, Note_on_c, 0, 71, 101
1, 338523, Note_on_c, 0, 83, 108
1, 338528, Note_on_c, 0, 76, 74
1, 338536, Control_c, 0, 64, 106
1, 338551, Control_c, 0, 64, 80
1, 338557, Poly_aftertouch_c, 0, 62, 0
1, 338566, Control_c, 0, 64, 76
1, 338581, Control_c, 0, 64, 85
1, 338589, Note_off_c, 0, 67, 66
1, 338597, Control_c, 0, 64, 94
1, 338612, Control_c, 0, 64, 108
1, 338626, Control_c, 0, 64, 127
1, 338634, Note_off_c, 0, 71, 57
1, 338638, Note_on_c, 0, 64, 94
1, 338649, Note_on_c, 0, 60, 83
1, 338657, Note_off_c, 0, 83, 57
1, 338679, Note_off_c, 0, 76, 35
1, 338758, Note_on_c, 0, 71, 96
1, 338761, Note_on_c, 0, 83, 98
1, 338771, Note_on_c, 0, 67, 92
1, 338774, Note_on_c, 0, 76, 53
1, 338791, Note_off_c, 0, 71, 68
1, 338798, Note_off_c, 0, 76, 60
1, 338800, Note_off_c, 0, 64, 61
1, 338804, Note_off_c, 0, 83, 67
1, 338879, Note_on_c, 0, 69, 86
1, 338884, Note_on_c, 0, 74, 102
1, 338885, Note_on_c, 0, 86, 97
1, 338888, Note_off_c, 0, 67, 59
1, 338899, Note_on_c, 0, 84, 73
1, 338914, Note_off_c, 0, 84, 43
1, 338920, Note_off_c, 0, 74, 67
1, 338929, Note_off_c, 0, 86, 65
1, 338948, Note_off_c, 0, 69, 59
1, 338973, Note_off_c, 0, 60, 55
1, 339004, Control_c, 0, 64, 75
1, 339019, Control_c, 0, 64, 0
1, 339035, Note_on_c, 0, 69, 100
1, 339039, Note_on_c, 0, 67, 88
1, 339040, Note_on_c, 0, 86, 101
1, 339042, Note_on_c, 0, 74, 106
1, 339045, Note_on_c, 0, 66, 86
1, 339048, Control_c, 0, 64, 63
1, 339056, Note_on_c, 0, 80, 61
1, 339063, Control_c, 0, 64, 76
1, 339070, Note_off_c, 0, 74, 68
1, 339075, Note_off_c, 0, 80, 63
1, 339077, Note_off_c, 0, 69, 68
1, 339077, Control_c, 0, 64, 95
1, 339078, Note_off_c, 0, 86, 71
1, 339086, Note_off_c, 0, 66, 68
1, 339092, Control_c, 0, 64, 127
1, 339123, Note_off_c, 0, 67, 54
1, 339134, Note_on_c, 0, 65, 18
1, 339176, Note_off_c, 0, 65, 51
1, 339360, Control_c, 0, 64, 86
1, 339375, Control_c, 0, 64, 0
1, 339415, Note_on_c, 0, 74, 102
1, 339415, Note_on_c, 0, 76, 97
1, 339417, Note_on_c, 0, 69, 95
1, 339468, Note_off_c, 0, 69, 65
1, 339472, Control_c, 0, 64, 65
1, 339483, Note_off_c, 0, 74, 66
1, 339487, Control_c, 0, 64, 74
1, 339489, Note_off_c, 0, 76, 61
1, 339495, Note_on_c, 0, 73, 100
1, 339501, Note_on_c, 0, 66, 78
1, 339501, Control_c, 0, 64, 82
1, 339516, Control_c, 0, 64, 91
1, 339524, Note_off_c, 0, 66, 63
1, 339526, Note_off_c, 0, 73, 57
1, 339531, Control_c, 0, 64, 97
1, 339546, Control_c, 0, 64, 98
1, 339561, Control_c, 0, 64, 99
1, 339575, Control_c, 0, 64, 103
1, 339576, Note_on_c, 0, 69, 81
1, 339580, Note_on_c, 0, 76, 82
1, 339583, Note_on_c, 0, 74, 79
1, 339590, Control_c, 0, 64, 113
1, 339599, Note_off_c, 0, 69, 67
1, 339605, Control_c, 0, 64, 127
1, 339606, Note_off_c, 0, 74, 70
1, 339615, Note_off_c, 0, 76, 59
1, 339629, Note_on_c, 0, 66, 73
1, 339635, Note_on_c, 0, 73, 68
1, 339649, Note_off_c, 0, 66, 65
1, 339650, Note_off_c, 0, 73, 70
1, 339686, Note_on_c, 0, 69, 81
1, 339689, Note_on_c, 0, 74, 77
1, 339692, Note_on_c, 0, 76, 81
1, 339704, Note_off_c, 0, 69, 69
1, 339712, Note_off_c, 0, 74, 67
1, 339716, Note_off_c, 0, 76, 62
1, 339724, Note_on_c, 0, 73, 81
1, 339727, Note_on_c, 0, 66, 71
1, 339747, Note_off_c, 0, 66, 68
1, 339749, Note_off_c, 0, 73, 66
1, 339795, Note_on_c, 0, 69, 77
1, 339799, Note_on_c, 0, 74, 78
1, 339801, Note_on_c, 0, 76, 79
1, 339824, Note_off_c, 0, 69, 64
1, 339826, Note_off_c, 0, 74, 67
1, 339831, Note_on_c, 0, 73, 80
1, 339832, Note_on_c, 0, 66, 75
1, 339833, Note_off_c, 0, 76, 62
1, 339858, Note_off_c, 0, 73, 62
1, 339859, Note_off_c, 0, 66, 58
1, 339906, Note_on_c, 0, 69, 83
1, 339909, Note_on_c, 0, 76, 83
1, 339909, Note_on_c, 0, 74, 85
1, 339931, Note_off_c, 0, 69, 63
1, 339941, Note_on_c, 0, 73, 89
1, 339942, Note_on_c, 0, 66, 84
1, 339944, Note_off_c, 0, 74, 63
1, 339949, Note_off_c, 0, 76, 66
1, 339979, Note_off_c, 0, 73, 61
1, 339990, Control_c, 0, 64, 109
1, 339994, Note_off_c, 0, 66, 59
1, 340005, Control_c, 0, 64, 59
1, 340016, Note_on_c, 0, 71, 101
1, 340016, Note_on_c, 0, 79, 103
1, 340018, Note_on_c, 0, 78, 94
1, 340020, Control_c, 0, 64, 0
1, 340035, Control_c, 0, 64, 30
1, 340046, Note_off_c, 0, 71, 67
1, 340049, Control_c, 0, 64, 63
1, 340059, Note_on_c, 0, 66, 89
1, 340064, Control_c, 0, 64, 71
1, 340070, Note_off_c, 0, 78, 63
1, 340070, Note_on_c, 0, 72, 79
1, 340071, Note_off_c, 0, 79, 62
1, 340079, Control_c, 0, 64, 81
1, 340084, Note_on_c, 0, 73, 41
1, 340085, Note_off_c, 0, 72, 72
1, 340094, Control_c, 0, 64, 99
1, 340109, Control_c, 0, 64, 126
1, 340112, Note_off_c, 0, 66, 48
1, 340113, Note_off_c, 0, 73, 54
1, 340124, Control_c, 0, 64, 127
1, 340130, Note_on_c, 0, 71, 95
1, 340130, Note_on_c, 0, 79, 85
1, 340140, Note_on_c, 0, 78, 80
1, 340165, Note_off_c, 0, 71, 62
1, 340175, Note_off_c, 0, 78, 58
1, 340186, Note_on_c, 0, 73, 89
1, 340186, Note_off_c, 0, 79, 60
1, 340189, Note_on_c, 0, 66, 74
1, 340212, Note_off_c, 0, 66, 67
1, 340214, Note_off_c, 0, 73, 60
1, 340256, Note_on_c, 0, 71, 86
1, 340256, Note_on_c, 0, 78, 83
1, 340257, Note_on_c, 0, 79, 78
1, 340273, Note_off_c, 0, 71, 71
1, 340284, Note_off_c, 0, 79, 57
1, 340294, Note_off_c, 0, 78, 57
1, 340305, Note_on_c, 0, 73, 79
1, 340308, Note_on_c, 0, 66, 73
1, 340336, Note_off_c, 0, 66, 56
1, 340340, Note_off_c, 0, 73, 58
1, 340359, Note_on_c, 0, 71, 93
1, 340364, Note_on_c, 0, 79, 85
1, 340365, Note_on_c, 0, 78, 83
1, 340388, Note_off_c, 0, 71, 56
1, 340398, Note_off_c, 0, 79, 55
1, 340407, Note_off_c, 0, 78, 59
1, 340413, Note_on_c, 0, 73, 94
1, 340418, Note_on_c, 0, 66, 84
1, 340460, Note_off_c, 0, 73, 64
1, 340471, Note_on_c, 0, 71, 96
1, 340475, Note_on_c, 0, 78, 80
1, 340478, Note_on_c, 0, 79, 83
1, 340487, Note_off_c, 0, 66, 58
1, 340502, Note_off_c, 0, 79, 64
1, 340508, Note_off_c, 0, 71, 61
1, 340524, Note_off_c, 0, 78, 62
1, 340532, Control_c, 0, 64, 95
1, 340535, Note_on_c, 0, 73, 102
1, 340539, Note_on_c, 0, 66, 61
1, 340544, Note_on_c, 0, 70, 86
1, 340547, Control_c, 0, 64, 89
1, 340562, Note_off_c, 0, 66, 59
1, 340562, Control_c, 0, 64, 94
1, 340577, Control_c, 0, 64, 104
1, 340579, Note_off_c, 0, 73, 64
1, 340584, Note_on_c, 0, 71, 99
1, 340585, Note_on_c, 0, 79, 95
1, 340586, Note_off_c, 0, 70, 67
1, 340588, Note_on_c, 0, 78, 79
1, 340592, Control_c, 0, 64, 120
1, 340606, Control_c, 0, 64, 127
1, 340621, Note_off_c, 0, 71, 63
1, 340636, Note_off_c, 0, 79, 61
1, 340638, Note_off_c, 0, 78, 62
1, 340658, Note_on_c, 0, 70, 90
1, 340660, Note_on_c, 0, 73, 100
1, 340688, Note_off_c, 0, 73, 63
1, 340697, Note_on_c, 0, 71, 96
1, 340698, Note_on_c, 0, 79, 84
1, 340699, Note_on_c, 0, 78, 80
1, 340704, Note_off_c, 0, 70, 62
1, 340720, Note_off_c, 0, 71, 68
1, 340735, Note_off_c, 0, 79, 52
1, 340748, Note_off_c, 0, 78, 60
1, 340760, Note_on_c, 0, 73, 98
1, 340763, Note_on_c, 0, 70, 84
1, 340800, Note_off_c, 0, 73, 64
1, 340804, Note_off_c, 0, 70, 64
1, 340806, Note_on_c, 0, 71, 96
1, 340809, Note_on_c, 0, 78, 82
1, 340814, Note_on_c, 0, 79, 84
1, 340830, Note_off_c, 0, 71, 58
1, 340835, Note_off_c, 0, 79, 66
1, 340856, Note_off_c, 0, 78, 62
1, 340872, Note_on_c, 0, 73, 95
1, 340872, Note_on_c, 0, 70, 88
1, 340910, Note_off_c, 0, 73, 66
1, 340924, Note_on_c, 0, 71, 93
1, 340925, Note_on_c, 0, 79, 88
1, 340925, Note_off_c, 0, 70, 65
1, 340931, Note_on_c, 0, 78, 75
1, 340952, Note_off_c, 0, 71, 63
1, 340972, Note_off_c, 0, 79, 58
1, 340980, Note_off_c, 0, 78, 59
1, 340999, Note_on_c, 0, 70, 93
1, 341025, Note_on_c, 0, 63, 58
1, 341036, Note_off_c, 0, 70, 63
1, 341041, Note_on_c, 0, 71, 102
1, 341044, Note_on_c, 0, 78, 84
1, 341048, Note_on_c, 0, 79, 83
1, 341056, Note_off_c, 0, 63, 64
1, 341067, Note_off_c, 0, 79, 68
1, 341070, Note_off_c, 0, 71, 60
1, 341091, Note_off_c, 0, 78, 62
1, 341104, Note_on_c, 0, 63, 92
1, 341113, Note_on_c, 0, 70, 92
1, 341155, Note_off_c, 0, 70, 63
1, 341157, Note_on_c, 0, 71, 100
1, 341158, Note_on_c, 0, 79, 91
1, 341159, Note_on_c, 0, 78, 87
1, 341168, Note_off_c, 0, 63, 60
1, 341191, Note_off_c, 0, 71, 67
1, 341206, Note_off_c, 0, 79, 59
1, 341214, Note_off_c, 0, 78, 63
1, 341229, Note_on_c, 0, 70, 99
1, 341231, Note_on_c, 0, 63, 79
1, 341259, Note_off_c, 0, 70, 71
1, 341271, Note_on_c, 0, 79, 103
1, 341271, Note_on_c, 0, 71, 98
1, 341277, Note_off_c, 0, 63, 52
1, 341301, Note_off_c, 0, 71, 67
1, 341319, Note_off_c, 0, 79, 65
1, 341458, Control_c, 0, 64, 97
1, 341471, Note_on_c, 0, 78, 12
1, 341472, Control_c, 0, 64, 70
1, 341487, Control_c, 0, 64, 0
1, 341504, Note_off_c, 0, 78, 44
1, 341564, Note_on_c, 0, 62, 80
1, 341565, Note_on_c, 0, 63, 87
1, 341568, Note_on_c, 0, 78, 105
1, 341569, Note_on_c, 0, 69, 91
1, 341617, Note_off_c, 0, 69, 64
1, 341682, Note_off_c, 0, 78, 60
1, 341687, Control_c, 0, 64, 70
1, 341702, Control_c, 0, 64, 97
1, 341717, Control_c, 0, 64, 127
1, 341745, Note_on_c, 0, 66, 93
1, 341745, Note_on_c, 0, 68, 95
1, 341747, Note_on_c, 0, 83, 108
1, 341751, Note_off_c, 0, 62, 61
1, 341754, Note_on_c, 0, 72, 82
1, 341757, Note_on_c, 0, 74, 83
1, 341768, Note_off_c, 0, 72, 72
1, 341773, Note_off_c, 0, 83, 71
1, 341777, Note_off_c, 0, 74, 72
1, 341783, Note_off_c, 0, 63, 58
1, 341787, Note_off_c, 0, 68, 67
1, 341796, Note_off_c, 0, 66, 65
1, 342103, Control_c, 0, 64, 108
1, 342118, Control_c, 0, 64, 76
1, 342133, Control_c, 0, 64, 0
1, 342173, Note_on_c, 0, 56, 99
1, 342280, Note_on_c, 0, 68, 80
1, 342282, Control_c, 0, 64, 53
1, 342296, Control_c, 0, 64, 62
1, 342311, Control_c, 0, 64, 65
1, 342326, Control_c, 0, 64, 69
1, 342341, Control_c, 0, 64, 74
1, 342356, Control_c, 0, 64, 78
1, 342362, Note_off_c, 0, 56, 65
1, 342370, Control_c, 0, 64, 82
1, 342385, Control_c, 0, 64, 83
1, 342400, Control_c, 0, 64, 84
1, 342422, Control_c, 0, 64, 86
1, 342434, Note_on_c, 0, 66, 94
1, 342437, Control_c, 0, 64, 87
1, 342452, Control_c, 0, 64, 86
1, 342467, Control_c, 0, 64, 81
1, 342481, Control_c, 0, 64, 74
1, 342493, Note_off_c, 0, 68, 61
1, 342496, Control_c, 0, 64, 73
1, 342509, Note_on_c, 0, 69, 80
1, 342511, Control_c, 0, 64, 75
1, 342526, Control_c, 0, 64, 78
1, 342541, Control_c, 0, 64, 80
1, 342556, Control_c, 0, 64, 85
1, 342571, Control_c, 0, 64, 95
1, 342586, Control_c, 0, 64, 105
1, 342601, Control_c, 0, 64, 109
1, 342616, Control_c, 0, 64, 108
1, 342622, Note_on_c, 0, 63, 88
1, 342631, Control_c, 0, 64, 105
1, 342634, Note_off_c, 0, 66, 62
1, 342645, Note_off_c, 0, 69, 55
1, 342646, Control_c, 0, 64, 100
1, 342661, Control_c, 0, 64, 98
1, 342684, Note_on_c, 0, 72, 79
1, 342688, Note_on_c, 0, 71, 78
1, 342705, Control_c, 0, 64, 101
1, 342720, Control_c, 0, 64, 107
1, 342735, Note_off_c, 0, 71, 58
1, 342735, Control_c, 0, 64, 120
1, 342738, Note_off_c, 0, 63, 62
1, 342750, Control_c, 0, 64, 127
1, 342752, Note_on_c, 0, 60, 81
1, 342784, Note_on_c, 0, 75, 90
1, 342794, Note_off_c, 0, 72, 56
1, 342820, Note_on_c, 0, 57, 11
1, 342856, Note_off_c, 0, 75, 64
1, 342878, Note_on_c, 0, 53, 86
1, 342885, Note_on_c, 0, 78, 93
1, 342887, Note_off_c, 0, 60, 62
1, 342890, Note_off_c, 0, 57, 39
1, 342935, Note_off_c, 0, 78, 67
1, 342947, Note_off_c, 0, 53, 65
1, 342991, Note_on_c, 0, 60, 88
1, 343002, Note_on_c, 0, 81, 93
1, 343008, Note_on_c, 0, 83, 85
1, 343069, Note_off_c, 0, 83, 51
1, 343100, Note_off_c, 0, 60, 62
1, 343102, Note_on_c, 0, 57, 83
1, 343104, Note_on_c, 0, 84, 96
1, 343112, Note_off_c, 0, 81, 59
1, 343206, Note_on_c, 0, 53, 87
1, 343210, Note_off_c, 0, 57, 65
1, 343213, Note_on_c, 0, 87, 98
1, 343218, Note_off_c, 0, 84, 62
1, 343227, Note_off_c, 0, 53, 72
1, 343252, Note_off_c, 0, 87, 70
1, 343316, Note_on_c, 0, 48, 91
1, 343323, Note_on_c, 0, 90, 107
1, 343459, Note_on_c, 0, 104, 100
1, 343461, Note_on_c, 0, 41, 100
1, 343469, Note_on_c, 0, 102, 86
1, 343482, Note_off_c, 0, 48, 61
1, 343482, Note_off_c, 0, 102, 72
1, 343495, Note_off_c, 0, 90, 65
1, 343500, Note_off_c, 0, 104, 68
1, 343530, Note_off_c, 0, 41, 62
1, 343883, Control_c, 0, 64, 126
1, 343898, Control_c, 0, 64, 107
1, 343921, Control_c, 0, 64, 101
1, 343936, Control_c, 0, 64, 97
1, 343950, Control_c, 0, 64, 92
1, 343965, Control_c, 0, 64, 84
1, 343980, Control_c, 0, 64, 75
1, 343995, Control_c, 0, 64, 66
1, 344010, Control_c, 0, 64, 61
1, 344024, Control_c, 0, 64, 51
1, 344039, Control_c, 0, 64, 0
1, 344265, Note_on_c, 0, 45, 102
1, 344267, Note_on_c, 0, 40, 93
1, 344272, Note_on_c, 0, 72, 96
1, 344273, Note_on_c, 0, 76, 88
1, 344273, Note_on_c, 0, 83, 101
1, 344291, Control_c, 0, 64, 78
1, 344305, Note_off_c, 0, 45, 67
1, 344306, Control_c, 0, 64, 127
1, 344315, Note_off_c, 0, 40, 64
1, 344348, Poly_aftertouch_c, 0, 43, 127
1, 344383, Poly_aftertouch_c, 0, 41, 0
1, 344389, Poly_aftertouch_c, 0, 43, 0
1, 344518, Note_off_c, 0, 76, 59
1, 344530, Note_off_c, 0, 72, 59
1, 344533, Note_off_c, 0, 83, 57
1, 344640, Note_on_c, 0, 76, 98
1, 344651, Note_on_c, 0, 69, 90
1, 344655, Note_on_c, 0, 65, 83
1, 344656, Note_on_c, 0, 72, 73
1, 344681, Note_off_c, 0, 72, 72
1, 344688, Note_off_c, 0, 69, 60
1, 344714, Note_off_c, 0, 76, 68
1, 344726, Note_off_c, 0, 65, 58
1, 344829, Note_on_c, 0, 64, 79
1, 344920, Note_off_c, 0, 64, 56
1, 344975, Note_on_c, 0, 62, 72
1, 344987, Note_on_c, 0, 86, 96
1, 344995, Note_on_c, 0, 74, 92
1, 345008, Note_on_c, 0, 78, 72
1, 345024, Note_off_c, 0, 78, 68
1, 345033, Note_off_c, 0, 62, 59
1, 345035, Note_off_c, 0, 74, 59
1, 345055, Note_off_c, 0, 86, 62
1, 345148, Note_on_c, 0, 79, 96
1, 345161, Note_on_c, 0, 72, 75
1, 345164, Note_on_c, 0, 76, 76
1, 345169, Note_on_c, 0, 67, 76
1, 345174, Control_c, 0, 64, 113
1, 345188, Control_c, 0, 64, 76
1, 345203, Control_c, 0, 64, 40
1, 345218, Control_c, 0, 64, 62
1, 345233, Control_c, 0, 64, 71
1, 345248, Control_c, 0, 64, 76
1, 345263, Control_c, 0, 64, 83
1, 345278, Control_c, 0, 64, 95
1, 345292, Note_off_c, 0, 72, 59
1, 345292, Control_c, 0, 64, 112
1, 345294, Note_on_c, 0, 66, 81
1, 345297, Note_off_c, 0, 76, 58
1, 345307, Control_c, 0, 64, 127
1, 345322, Note_off_c, 0, 79, 65
1, 345344, Note_off_c, 0, 67, 51
1, 345397, Note_on_c, 0, 60, 73
1, 345427, Note_on_c, 0, 86, 98
1, 345428, Note_on_c, 0, 74, 94
1, 345431, Note_off_c, 0, 66, 60
1, 345436, Note_on_c, 0, 78, 81
1, 345454, Note_off_c, 0, 78, 72
1, 345456, Note_off_c, 0, 74, 63
1, 345458, Note_off_c, 0, 86, 66
1, 345467, Note_on_c, 0, 84, 31
1, 345468, Note_off_c, 0, 84, 127
1, 345521, Note_on_c, 0, 62, 75
1, 345531, Note_on_c, 0, 79, 97
1, 345535, Note_on_c, 0, 76, 90
1, 345536, Note_on_c, 0, 72, 86
1, 345553, Note_on_c, 0, 63, 45
1, 345555, Note_off_c, 0, 60, 58
1, 345601, Note_off_c, 0, 63, 45
1, 345613, Note_off_c, 0, 72, 60
1, 345627, Note_off_c, 0, 76, 61
1, 345639, Note_on_c, 0, 67, 98
1, 345640, Control_c, 0, 64, 103
1, 345641, Note_off_c, 0, 79, 65
1, 345655, Control_c, 0, 64, 78
1, 345670, Control_c, 0, 64, 72
1, 345685, Control_c, 0, 64, 78
1, 345700, Control_c, 0, 64, 87
1, 345714, Control_c, 0, 64, 95
1, 345729, Control_c, 0, 64, 107
1, 345737, Note_on_c, 0, 66, 87
1, 345738, Note_on_c, 0, 86, 96
1, 345739, Note_on_c, 0, 74, 97
1, 345744, Control_c, 0, 64, 127
1, 345750, Note_off_c, 0, 62, 59
1, 345752, Note_on_c, 0, 78, 70
1, 345756, Note_off_c, 0, 67, 61
1, 345767, Note_off_c, 0, 78, 68
1, 345774, Note_off_c, 0, 86, 51
1, 345775, Note_off_c, 0, 74, 66
1, 345780, Note_on_c, 0, 84, 33
1, 345781, Note_off_c, 0, 84, 127
1, 345810, Note_off_c, 0, 66, 64
1, 345838, Note_on_c, 0, 76, 90
1, 345838, Note_on_c, 0, 79, 99
1, 345841, Note_on_c, 0, 62, 87
1, 345844, Note_on_c, 0, 72, 87
1, 345882, Note_off_c, 0, 76, 65
1, 345888, Note_off_c, 0, 72, 63
1, 345910, Note_off_c, 0, 79, 65
1, 345936, Note_on_c, 0, 64, 82
1, 345965, Note_off_c, 0, 62, 60
1, 346011, Control_c, 0, 64, 89
1, 346026, Control_c, 0, 64, 64
1, 346028, Note_on_c, 0, 67, 91
1, 346032, Note_on_c, 0, 86, 98
1, 346034, Note_on_c, 0, 74, 99
1, 346041, Control_c, 0, 64, 60
1, 346043, Note_off_c, 0, 64, 62
1, 346056, Control_c, 0, 64, 70
1, 346070, Control_c, 0, 64, 75
1, 346085, Control_c, 0, 64, 81
1, 346091, Note_off_c, 0, 74, 56
1, 346100, Control_c, 0, 64, 90
1, 346103, Note_off_c, 0, 67, 57
1, 346115, Control_c, 0, 64, 102
1, 346125, Note_on_c, 0, 84, 93
1, 346130, Control_c, 0, 64, 114
1, 346133, Note_on_c, 0, 69, 91
1, 346145, Control_c, 0, 64, 127
1, 346149, Note_off_c, 0, 86, 64
1, 346175, Note_off_c, 0, 84, 68
1, 346231, Note_off_c, 0, 69, 58
1, 346252, Note_on_c, 0, 71, 92
1, 346252, Note_on_c, 0, 91, 116
1, 346253, Note_on_c, 0, 81, 103
1, 346266, Note_off_c, 0, 81, 77
1, 346274, Note_off_c, 0, 91, 73
1, 346290, Note_off_c, 0, 71, 66
1, 346419, Control_c, 0, 64, 101
1, 346434, Control_c, 0, 64, 59
1, 346449, Control_c, 0, 64, 0
1, 346466, Note_on_c, 0, 64, 103
1, 346473, Note_on_c, 0, 57, 93
1, 346537, Control_c, 0, 64, 47
1, 346552, Control_c, 0, 64, 65
1, 346562, Note_on_c, 0, 63, 90
1, 346567, Control_c, 0, 64, 71
1, 346568, Note_off_c, 0, 64, 65
1, 346569, Note_on_c, 0, 59, 80
1, 346582, Control_c, 0, 64, 76
1, 346598, Control_c, 0, 64, 83
1, 346613, Control_c, 0, 64, 91
1, 346613, Note_off_c, 0, 57, 58
1, 346616, Note_off_c, 0, 63, 64
1, 346628, Control_c, 0, 64, 100
1, 346628, Note_off_c, 0, 59, 63
1, 346642, Control_c, 0, 64, 111
1, 346643, Note_on_c, 0, 88, 95
1, 346643, Note_on_c, 0, 96, 100
1, 346657, Control_c, 0, 64, 127
1, 346683, Note_off_c, 0, 88, 65
1, 346683, Note_off_c, 0, 96, 70
1, 346699, Note_on_c, 0, 89, 107
1, 346702, Note_on_c, 0, 93, 97
1, 346762, Note_on_c, 0, 49, 34
1, 346799, Note_off_c, 0, 49, 54
1, 346805, Note_off_c, 0, 89, 59
1, 346816, Note_on_c, 0, 56, 92
1, 346828, Note_on_c, 0, 49, 73
1, 346838, Note_off_c, 0, 93, 66
1, 346845, Note_off_c, 0, 56, 64
1, 346879, Control_c, 0, 64, 92
1, 346890, Note_on_c, 0, 53, 94
1, 346893, Control_c, 0, 64, 0
1, 346917, Note_on_c, 0, 47, 83
1, 346920, Note_off_c, 0, 49, 63
1, 346923, Note_on_c, 0, 50, 59
1, 346951, Note_off_c, 0, 50, 61
1, 347108, Control_c, 0, 64, 73
1, 347123, Control_c, 0, 64, 105
1, 347138, Note_on_c, 0, 105, 118
1, 347138, Control_c, 0, 64, 127
1, 347139, Note_on_c, 0, 93, 107
1, 347143, Note_off_c, 0, 53, 61
1, 347163, Note_off_c, 0, 93, 65
1, 347168, Note_off_c, 0, 105, 69
1, 347315, Note_off_c, 0, 47, 36
1, 347436, Control_c, 0, 64, 73
1, 347445, Note_on_c, 0, 52, 105
1, 347451, Control_c, 0, 64, 0
1, 347539, Control_c, 0, 64, 32
1, 347554, Control_c, 0, 64, 64
1, 347569, Control_c, 0, 64, 74
1, 347583, Control_c, 0, 64, 83
1, 347598, Control_c, 0, 64, 95
1, 347613, Control_c, 0, 64, 103
1, 347628, Control_c, 0, 64, 116
1, 347642, Control_c, 0, 64, 127
1, 347771, Note_off_c, 0, 52, 55
1, 348032, Note_on_c, 0, 41, 93
1, 348044, Note_on_c, 0, 36, 84
1, 348239, Note_on_c, 0, 35, 78
1, 348240, Note_on_c, 0, 40, 85
1, 348255, Note_off_c, 0, 41, 62
1, 348264, Note_off_c, 0, 36, 59
1, 348285, Note_on_c, 0, 96, 101
1, 348290, Note_off_c, 0, 40, 65
1, 348294, Note_off_c, 0, 35, 64
1, 348502, Note_on_c, 0, 45, 88
1, 348516, Control_c, 0, 64, 78
1, 348531, Control_c, 0, 64, 0
1, 348581, Note_on_c, 0, 93, 104
1, 348606, Note_off_c, 0, 96, 58
1, 348634, Control_c, 0, 64, 57
1, 348649, Control_c, 0, 64, 75
1, 348664, Control_c, 0, 64, 90
1, 348679, Control_c, 0, 64, 115
1, 348694, Control_c, 0, 64, 127
1, 348781, Note_on_c, 0, 52, 91
1, 348839, Note_off_c, 0, 93, 54
1, 348851, Note_on_c, 0, 84, 98
1, 348903, Note_off_c, 0, 84, 68
1, 348988, Note_on_c, 0, 57, 94
1, 349007, Note_off_c, 0, 45, 62
1, 349016, Note_off_c, 0, 52, 59
1, 349054, Note_off_c, 0, 57, 65
1, 349078, Note_on_c, 0, 77, 99
1, 349185, Note_on_c, 0, 62, 101
1, 349236, Note_off_c, 0, 62, 61
1, 349267, Note_on_c, 0, 72, 98
1, 349282, Note_off_c, 0, 77, 53
1, 349385, Note_on_c, 0, 64, 107
1, 349420, Note_off_c, 0, 64, 69
1, 349471, Note_off_c, 0, 72, 57
1, 349473, Note_on_c, 0, 69, 101
1, 349549, Poly_aftertouch_c, 0, 75, 127
1, 349619, Poly_aftertouch_c, 0, 75, 0
1, 349665, Note_off_c, 0, 69, 52
1, 350372, Note_on_c, 0, 88, 92
1, 350379, Note_on_c, 0, 67, 83
1, 350381, Note_on_c, 0, 66, 78
1, 350381, Note_on_c, 0, 78, 81
1, 350402, Note_off_c, 0, 78, 69
1, 350421, Note_off_c, 0, 88, 63
1, 350433, Note_off_c, 0, 67, 0
1, 350438, Note_off_c, 0, 66, 0
1, 350446, Note_on_c, 0, 67, 55
1, 350456, Note_on_c, 0, 86, 70
1, 350458, Note_on_c, 0, 71, 100
1, 350458, Control_c, 0, 64, 72
1, 350464, Note_on_c, 0, 72, 103
1, 350466, Note_on_c, 0, 78, 107
1, 350468, Note_on_c, 0, 81, 77
1, 350473, Control_c, 0, 64, 0
1, 350476, Poly_aftertouch_c, 0, 66, 127
1, 350484, Poly_aftertouch_c, 0, 66, 0
1, 350488, Note_off_c, 0, 67, 56
1, 350622, Control_c, 0, 64, 60
1, 350637, Control_c, 0, 64, 65
1, 350659, Control_c, 0, 64, 70
1, 350674, Control_c, 0, 64, 78
1, 350689, Control_c, 0, 64, 86
1, 350704, Control_c, 0, 64, 93
1, 350719, Control_c, 0, 64, 97
1, 350733, Control_c, 0, 64, 101
1, 350748, Control_c, 0, 64, 108
1, 350763, Control_c, 0, 64, 120
1, 350778, Control_c, 0, 64, 127
1, 351305, Note_off_c, 0, 78, 56
1, 351323, Note_off_c, 0, 86, 36
1, 351414, Note_on_c, 0, 79, 103
1, 351441, Note_off_c, 0, 81, 59
1, 351478, Note_on_c, 0, 86, 5
1, 351588, Note_off_c, 0, 86, 30
1, 351968, Note_off_c, 0, 79, 49
1, 352450, Note_off_c, 0, 72, 59
1, 352528, Note_off_c, 0, 71, 48
1, 352668, Note_on_c, 0, 105, 110
1, 352702, Note_off_c, 0, 105, 68
1, 352873, Note_on_c, 0, 33, 96
1, 352878, Note_on_c, 0, 21, 89
1, 352916, Note_off_c, 0, 21, 56
1, 352928, Note_off_c, 0, 33, 64
1, 353182, Note_on_c, 0, 52, 100
1, 353183, Note_on_c, 0, 45, 88
1, 353186, Note_on_c, 0, 57, 102
1, 353213, Note_on_c, 0, 47, 56
1, 353222, Note_off_c, 0, 57, 69
1, 353238, Note_off_c, 0, 47, 62
1, 353239, Note_off_c, 0, 52, 65
1, 353263, Note_off_c, 0, 45, 67
1, 353572, Control_c, 0, 64, 123
1, 353587, Control_c, 0, 64, 88
1, 353602, Control_c, 0, 64, 72
1, 353617, Control_c, 0, 64, 47
1, 353632, Control_c, 0, 64, 0
1, 353707, End_track
0, 0, End_of_file
